<?xml version="1.0" encoding="UTF-8"?>
<!DOCTYPE xmeml>
<xmeml version="4">
	<sequence id="sequence-1">
		<name>bandicam 2025-06-22 02-16-39-762</name>
		<duration>24549</duration>
		<rate>
			<timebase>59</timebase>
			<ntsc>TRUE</ntsc>
		</rate>
		<media>
			<video>
				<format/>
				<track>
					<clipitem frameBlend="FALSE" id="clipitem-1">
						<file id="file-1">
							<pathurl>file://localhost/D:/%E5%88%87%E3%82%8A%E6%8A%9C%E3%81%8D/2025-6/2025-6-22/bandicam%202025-06-22%2002-16-39-762.mp4</pathurl>
							<name>bandicam 2025-06-22 02-16-39-762.mp4</name>
							<rate>
								<timebase>59</timebase>
								<ntsc>TRUE</ntsc>
							</rate>
							<duration>24549</duration>
							<timecode>
								<rate>
									<timebase>59</timebase>
									<ntsc>TRUE</ntsc>
								</rate>
								<string>00:00:00:00</string>
								<frame>0</frame>
								<displayformat>NDF</displayformat>
							</timecode>
							<media>
								<video/>
								<audio/>
							</media>
						</file>
						<name>bandicam 2025-06-22 02-16-39-762</name>
						<rate>
							<timebase>59</timebase>
							<ntsc>TRUE</ntsc>
						</rate>
						<rate>
							<timebase>59</timebase>
							<ntsc>TRUE</ntsc>
						</rate>
						<duration>24543</duration>
						<start>0</start>
						<end>24543</end>
						<in>0</in>
						<out>24543</out>
					</clipitem>
				</track>
				<track>
					<clipitem frameBlend="FALSE" id="clipitem-telop-1">
						<file id="file-2">
							<name>グラフィック</name>
							<mediaSource>GraphicAndType</mediaSource>
							<rate>
								<timebase>59</timebase>
								<ntsc>TRUE</ntsc>
							</rate>
							<timecode>
								<rate>
									<timebase>59</timebase>
									<ntsc>TRUE</ntsc>
								</rate>
								<string>00:00:00:00</string>
								<frame>0</frame>
								<displayformat>NDF</displayformat>
							</timecode>
							<media>
								<video>
									<samplecharacteristics>
										<rate>
											<timebase>58</timebase>
											<ntsc>TRUE</ntsc>
										</rate>
										<width>1080</width>
										<height>1920</height>
										<anamorphic>FALSE</anamorphic>
										<pixelaspectratio>square</pixelaspectratio>
										<fielddominance>none</fielddominance>
									</samplecharacteristics>
								</video>
							</media>
						</file>
						<name>グラフィック</name>
						<rate>
							<timebase>59</timebase>
							<ntsc>TRUE</ntsc>
						</rate>
						<rate>
							<timebase>59</timebase>
							<ntsc>TRUE</ntsc>
						</rate>
						<duration>431</duration>
						<start>0</start>
						<end>431</end>
						<in>0</in>
						<out>431</out>
						<filter>
							<effect>
								<name></name>
								<effectid>GraphicAndType</effectid>
								<effectcategory>graphic</effectcategory>
								<effecttype>filter</effecttype>
								<mediatype>video</mediatype>
								<pproBypass>false</pproBypass>
								<parameter authoringApp="PremierePro">
									<parameterid>1</parameterid>
									<name>ソーステキスト</name>
									<hash>9da144c7-0b89-e7ae-5cc9-9e6c00000224</hash>
									<value>1AEAAAAAAABEMyIRDAAAAAAABgAKAAQABgAAAGQAAAAAAF4ASAAQAAwARABAADwAOAAAAAAAAAAAADQAMwAsAAAAKAAkACAAAAAAAAAAAAAAAAAAHAAAAAAAGgAAAAAAAAAUAAAAAAAAAAAAAAAAAAAAAAAAAAgAAAAAABsABwBeAAAAAAAAAUAAAABQAAAAbAAAAAIAAAAAAAEAAQAAAAAAQEEAAMBAAABAQAAAyEIAAAABIAAAAAIAAAACAAAAAAAQRACASkQA////BP///wj///8i////AAAAAAEAAAAEAAAAEQAAAEhHUFNvZWlLYWt1cG9wdGFpAAAAAQAAAAwAAAAIAAwABAAIAAgAAAAIAAAAjAAAAIgAAADlv4PphY3jgafjgZTjgZbjgYTjgb7jgZnjg5/jg6vjgq/jgYrlrKLmp5jjgafjgoLlhajnhLblpKfkuIjlpKvjgaDjgogg6KaL44KL5a2Q5aWz5qeY552h55yg44Go44GE44GG44Gu44Gv44Go44Gm44KC5aSn5LqL44Gq44KC44Gu44Gn44GZNAAgAAAAHAAYAAAAAAAXABAAAAAAAAAAAAAAAAAAAAAAAAAADAAAAAAAAAAIAAAABAA0AAAAHAAAABwAAAAcAAAAAABwQQAAAAFoAAAAHf+eQ7D///+0////AQAAABQAAAAQABoACAAHAAwAAAAQABQAEAAAAAAAAAEcAAAAAACIQRwAAAACAAAAAAAKAAgABQAGAAcACgAAAAD9b//8////BAAEAAQAAAAIAAgABgAHAAgAAAAAAP1v</value>
								</parameter>
								<parameter authoringApp="PremierePro">
									<parameterid>2</parameterid>
									<name>トランスフォーム</name>
									<IsTimeVarying>false</IsTimeVarying>
									<ParameterControlType>11</ParameterControlType>
									<LowerBound>false</LowerBound>
									<UpperBound>false</UpperBound>
									<value>-91445760000000000,false,0,0,0,0,0,0</value>
								</parameter>
							</effect>
						</filter>
					</clipitem>
					<clipitem frameBlend="FALSE" id="clipitem-telop-2">
						<file id="file-2"/>
						<name>グラフィック</name>
						<rate>
							<timebase>59</timebase>
							<ntsc>TRUE</ntsc>
						</rate>
						<rate>
							<timebase>59</timebase>
							<ntsc>TRUE</ntsc>
						</rate>
						<duration>288</duration>
						<start>431</start>
						<end>719</end>
						<in>0</in>
						<out>288</out>
						<filter>
							<effect>
								<name></name>
								<effectid>GraphicAndType</effectid>
								<effectcategory>graphic</effectcategory>
								<effecttype>filter</effecttype>
								<mediatype>video</mediatype>
								<pproBypass>false</pproBypass>
								<parameter authoringApp="PremierePro">
									<parameterid>1</parameterid>
									<name>ソーステキスト</name>
									<hash>9da144c7-0b89-e7ae-5cc9-9e6c00000224</hash>
									<value>1AEAAAAAAABEMyIRDAAAAAAABgAKAAQABgAAAGQAAAAAAF4ASAAQAAwARABAADwAOAAAAAAAAAAAADQAMwAsAAAAKAAkACAAAAAAAAAAAAAAAAAAHAAAAAAAGgAAAAAAAAAUAAAAAAAAAAAAAAAAAAAAAAAAAAgAAAAAABsABwBeAAAAAAAAAUAAAABQAAAAbAAAAAIAAAAAAAEAAQAAAAAAQEEAAMBAAABAQAAAyEIAAAABIAAAAAIAAAACAAAAAAAQRACASkQA////BP///wj///8i////AAAAAAEAAAAEAAAAEQAAAEhHUFNvZWlLYWt1cG9wdGFpAAAAAQAAAAwAAAAIAAwABAAIAAgAAAAIAAAARAAAAEAAAAAx5pelMTLmmYLplpPlr53jgabjgY/jgaDjgZXjgYQg6KaL44KL5a2Q44KC5a+d44Gf44GE44KT44Gg44GR44GpNAAgAAAAHAAYAAAAAAAXABAAAAAAAAAAAAAAAAAAAAAAAAAADAAAAAAAAAAIAAAABAA0AAAAHAAAABwAAAAcAAAAAABwQQAAAAFoAAAAHf+eQ7D///+0////AQAAABQAAAAQABoACAAHAAwAAAAQABQAEAAAAAAAAAEcAAAAAACIQRwAAAACAAAAAAAKAAgABQAGAAcACgAAAAD9b//8////BAAEAAQAAAAIAAgABgAHAAgAAAAAAP1v</value>
								</parameter>
								<parameter authoringApp="PremierePro">
									<parameterid>2</parameterid>
									<name>トランスフォーム</name>
									<IsTimeVarying>false</IsTimeVarying>
									<ParameterControlType>11</ParameterControlType>
									<LowerBound>false</LowerBound>
									<UpperBound>false</UpperBound>
									<value>-91445760000000000,false,0,0,0,0,0,0</value>
								</parameter>
							</effect>
						</filter>
					</clipitem>
					<clipitem frameBlend="FALSE" id="clipitem-telop-3">
						<file id="file-2"/>
						<name>グラフィック</name>
						<rate>
							<timebase>59</timebase>
							<ntsc>TRUE</ntsc>
						</rate>
						<rate>
							<timebase>59</timebase>
							<ntsc>TRUE</ntsc>
						</rate>
						<duration>282</duration>
						<start>719</start>
						<end>1001</end>
						<in>0</in>
						<out>282</out>
						<filter>
							<effect>
								<name></name>
								<effectid>GraphicAndType</effectid>
								<effectcategory>graphic</effectcategory>
								<effecttype>filter</effecttype>
								<mediatype>video</mediatype>
								<pproBypass>false</pproBypass>
								<parameter authoringApp="PremierePro">
									<parameterid>1</parameterid>
									<name>ソーステキスト</name>
									<hash>9da144c7-0b89-e7ae-5cc9-9e6c00000224</hash>
									<value>1AEAAAAAAABEMyIRDAAAAAAABgAKAAQABgAAAGQAAAAAAF4ASAAQAAwARABAADwAOAAAAAAAAAAAADQAMwAsAAAAKAAkACAAAAAAAAAAAAAAAAAAHAAAAAAAGgAAAAAAAAAUAAAAAAAAAAAAAAAAAAAAAAAAAAgAAAAAABsABwBeAAAAAAAAAUAAAABQAAAAbAAAAAIAAAAAAAEAAQAAAAAAQEEAAMBAAABAQAAAyEIAAAABIAAAAAIAAAACAAAAAAAQRACASkQA////BP///wj///8i////AAAAAAEAAAAEAAAAEQAAAEhHUFNvZWlLYWt1cG9wdGFpAAAAAQAAAAwAAAAIAAwABAAIAAgAAAAIAAAAQQAAAD0AAADjgarjgpPjgYvlhajnhLblr53jgozjgarjgY/jgaYg5L2V44GL44GK5Zuw44KK44GU44Go44Gn44KC44KTAAAANAAgAAAAHAAYAAAAAAAXABAAAAAAAAAAAAAAAAAAAAAAAAAADAAAAAAAAAAIAAAABAA0AAAAHAAAABwAAAAcAAAAAABwQQAAAAFoAAAAHf+eQ7D///+0////AQAAABQAAAAQABoACAAHAAwAAAAQABQAEAAAAAAAAAEcAAAAAACIQRwAAAACAAAAAAAKAAgABQAGAAcACgAAAAD9b//8////BAAEAAQAAAAIAAgABgAHAAgAAAAAAP1v</value>
								</parameter>
								<parameter authoringApp="PremierePro">
									<parameterid>2</parameterid>
									<name>トランスフォーム</name>
									<IsTimeVarying>false</IsTimeVarying>
									<ParameterControlType>11</ParameterControlType>
									<LowerBound>false</LowerBound>
									<UpperBound>false</UpperBound>
									<value>-91445760000000000,false,0,0,0,0,0,0</value>
								</parameter>
							</effect>
						</filter>
					</clipitem>
					<clipitem frameBlend="FALSE" id="clipitem-telop-4">
						<file id="file-2"/>
						<name>グラフィック</name>
						<rate>
							<timebase>59</timebase>
							<ntsc>TRUE</ntsc>
						</rate>
						<rate>
							<timebase>59</timebase>
							<ntsc>TRUE</ntsc>
						</rate>
						<duration>486</duration>
						<start>1001</start>
						<end>1487</end>
						<in>0</in>
						<out>486</out>
						<filter>
							<effect>
								<name></name>
								<effectid>GraphicAndType</effectid>
								<effectcategory>graphic</effectcategory>
								<effecttype>filter</effecttype>
								<mediatype>video</mediatype>
								<pproBypass>false</pproBypass>
								<parameter authoringApp="PremierePro">
									<parameterid>1</parameterid>
									<name>ソーステキスト</name>
									<hash>9da144c7-0b89-e7ae-5cc9-9e6c00000224</hash>
									<value>1AEAAAAAAABEMyIRDAAAAAAABgAKAAQABgAAAGQAAAAAAF4ASAAQAAwARABAADwAOAAAAAAAAAAAADQAMwAsAAAAKAAkACAAAAAAAAAAAAAAAAAAHAAAAAAAGgAAAAAAAAAUAAAAAAAAAAAAAAAAAAAAAAAAAAgAAAAAABsABwBeAAAAAAAAAUAAAABQAAAAbAAAAAIAAAAAAAEAAQAAAAAAQEEAAMBAAABAQAAAyEIAAAABIAAAAAIAAAACAAAAAAAQRACASkQA////BP///wj///8i////AAAAAAEAAAAEAAAAEQAAAEhHUFNvZWlLYWt1cG9wdGFpAAAAAQAAAAwAAAAIAAwABAAIAAgAAAAIAAAAZQAAAGEAAADjgarjgpPjgYvjgaHjgofjgaPjgajogbfloLTjgafjgarjgpPjgYvlhajnhLbjgYbjgb7jgY/jgYTjgYvjgarjgY/jgaYg44KP44GL44KK44G+44GZ44Gq5rCX5oyB44GhAAAANAAgAAAAHAAYAAAAAAAXABAAAAAAAAAAAAAAAAAAAAAAAAAADAAAAAAAAAAIAAAABAA0AAAAHAAAABwAAAAcAAAAAABwQQAAAAFoAAAAHf+eQ7D///+0////AQAAABQAAAAQABoACAAHAAwAAAAQABQAEAAAAAAAAAEcAAAAAACIQRwAAAACAAAAAAAKAAgABQAGAAcACgAAAAD9b//8////BAAEAAQAAAAIAAgABgAHAAgAAAAAAP1v</value>
								</parameter>
								<parameter authoringApp="PremierePro">
									<parameterid>2</parameterid>
									<name>トランスフォーム</name>
									<IsTimeVarying>false</IsTimeVarying>
									<ParameterControlType>11</ParameterControlType>
									<LowerBound>false</LowerBound>
									<UpperBound>false</UpperBound>
									<value>-91445760000000000,false,0,0,0,0,0,0</value>
								</parameter>
							</effect>
						</filter>
					</clipitem>
					<clipitem frameBlend="FALSE" id="clipitem-telop-5">
						<file id="file-2"/>
						<name>グラフィック</name>
						<rate>
							<timebase>59</timebase>
							<ntsc>TRUE</ntsc>
						</rate>
						<rate>
							<timebase>59</timebase>
							<ntsc>TRUE</ntsc>
						</rate>
						<duration>660</duration>
						<start>1487</start>
						<end>2147</end>
						<in>0</in>
						<out>660</out>
						<filter>
							<effect>
								<name></name>
								<effectid>GraphicAndType</effectid>
								<effectcategory>graphic</effectcategory>
								<effecttype>filter</effecttype>
								<mediatype>video</mediatype>
								<pproBypass>false</pproBypass>
								<parameter authoringApp="PremierePro">
									<parameterid>1</parameterid>
									<name>ソーステキスト</name>
									<hash>9da144c7-0b89-e7ae-5cc9-9e6c00000224</hash>
									<value>1AEAAAAAAABEMyIRDAAAAAAABgAKAAQABgAAAGQAAAAAAF4ASAAQAAwARABAADwAOAAAAAAAAAAAADQAMwAsAAAAKAAkACAAAAAAAAAAAAAAAAAAHAAAAAAAGgAAAAAAAAAUAAAAAAAAAAAAAAAAAAAAAAAAAAgAAAAAABsABwBeAAAAAAAAAUAAAABQAAAAbAAAAAIAAAAAAAEAAQAAAAAAQEEAAMBAAABAQAAAyEIAAAABIAAAAAIAAAACAAAAAAAQRACASkQA////BP///wj///8i////AAAAAAEAAAAEAAAAEQAAAEhHUFNvZWlLYWt1cG9wdGFpAAAAAQAAAAwAAAAIAAwABAAIAAgAAAAIAAAAtgAAALIAAADkurrjgoLjgZ/jgY/jgZXjgpPkurrjgYzjgYTjgovkvZXjgpLjgZfjgZ/jgonjgYTjgYTjga0g44Gh44KH44Gj44Go44Gh44KH44Gj44Go44Gt44GT44GT44Gu5bit44Gh44KH44Gj44Go5b6M44KN44GM44GG44KL44GV44GZ44GO44Gm5YWo54S25rOi44Gu5aOw44GM6IGe44GT44GI44Gq44GE44KT44Gg44GR44GpAAA0ACAAAAAcABgAAAAAABcAEAAAAAAAAAAAAAAAAAAAAAAAAAAMAAAAAAAAAAgAAAAEADQAAAAcAAAAHAAAABwAAAAAAHBBAAAAAWgAAAAd/55DsP///7T///8BAAAAFAAAABAAGgAIAAcADAAAABAAFAAQAAAAAAAAARwAAAAAAIhBHAAAAAIAAAAAAAoACAAFAAYABwAKAAAAAP1v//z///8EAAQABAAAAAgACAAGAAcACAAAAAAA/W8=</value>
								</parameter>
								<parameter authoringApp="PremierePro">
									<parameterid>2</parameterid>
									<name>トランスフォーム</name>
									<IsTimeVarying>false</IsTimeVarying>
									<ParameterControlType>11</ParameterControlType>
									<LowerBound>false</LowerBound>
									<UpperBound>false</UpperBound>
									<value>-91445760000000000,false,0,0,0,0,0,0</value>
								</parameter>
							</effect>
						</filter>
					</clipitem>
					<clipitem frameBlend="FALSE" id="clipitem-telop-6">
						<file id="file-2"/>
						<name>グラフィック</name>
						<rate>
							<timebase>59</timebase>
							<ntsc>TRUE</ntsc>
						</rate>
						<rate>
							<timebase>59</timebase>
							<ntsc>TRUE</ntsc>
						</rate>
						<duration>354</duration>
						<start>2147</start>
						<end>2501</end>
						<in>0</in>
						<out>354</out>
						<filter>
							<effect>
								<name></name>
								<effectid>GraphicAndType</effectid>
								<effectcategory>graphic</effectcategory>
								<effecttype>filter</effecttype>
								<mediatype>video</mediatype>
								<pproBypass>false</pproBypass>
								<parameter authoringApp="PremierePro">
									<parameterid>1</parameterid>
									<name>ソーステキスト</name>
									<hash>9da144c7-0b89-e7ae-5cc9-9e6c00000224</hash>
									<value>1AEAAAAAAABEMyIRDAAAAAAABgAKAAQABgAAAGQAAAAAAF4ASAAQAAwARABAADwAOAAAAAAAAAAAADQAMwAsAAAAKAAkACAAAAAAAAAAAAAAAAAAHAAAAAAAGgAAAAAAAAAUAAAAAAAAAAAAAAAAAAAAAAAAAAgAAAAAABsABwBeAAAAAAAAAUAAAABQAAAAbAAAAAIAAAAAAAEAAQAAAAAAQEEAAMBAAABAQAAAyEIAAAABIAAAAAIAAAACAAAAAAAQRACASkQA////BP///wj///8i////AAAAAAEAAAAEAAAAEQAAAEhHUFNvZWlLYWt1cG9wdGFpAAAAAQAAAAwAAAAIAAwABAAIAAgAAAAIAAAANQAAADEAAADjgYrlrKLmp5jjgpMg44Gh44KH44Gj44Go6YGV44GG5bit44Gn44GE44GE44GL44GqAAAANAAgAAAAHAAYAAAAAAAXABAAAAAAAAAAAAAAAAAAAAAAAAAADAAAAAAAAAAIAAAABAA0AAAAHAAAABwAAAAcAAAAAABwQQAAAAFoAAAAHf+eQ7D///+0////AQAAABQAAAAQABoACAAHAAwAAAAQABQAEAAAAAAAAAEcAAAAAACIQRwAAAACAAAAAAAKAAgABQAGAAcACgAAAAD9b//8////BAAEAAQAAAAIAAgABgAHAAgAAAAAAP1v</value>
								</parameter>
								<parameter authoringApp="PremierePro">
									<parameterid>2</parameterid>
									<name>トランスフォーム</name>
									<IsTimeVarying>false</IsTimeVarying>
									<ParameterControlType>11</ParameterControlType>
									<LowerBound>false</LowerBound>
									<UpperBound>false</UpperBound>
									<value>-91445760000000000,false,0,0,0,0,0,0</value>
								</parameter>
							</effect>
						</filter>
					</clipitem>
					<clipitem frameBlend="FALSE" id="clipitem-telop-7">
						<file id="file-2"/>
						<name>グラフィック</name>
						<rate>
							<timebase>59</timebase>
							<ntsc>TRUE</ntsc>
						</rate>
						<rate>
							<timebase>59</timebase>
							<ntsc>TRUE</ntsc>
						</rate>
						<duration>252</duration>
						<start>2501</start>
						<end>2753</end>
						<in>0</in>
						<out>252</out>
						<filter>
							<effect>
								<name></name>
								<effectid>GraphicAndType</effectid>
								<effectcategory>graphic</effectcategory>
								<effecttype>filter</effecttype>
								<mediatype>video</mediatype>
								<pproBypass>false</pproBypass>
								<parameter authoringApp="PremierePro">
									<parameterid>1</parameterid>
									<name>ソーステキスト</name>
									<hash>9da144c7-0b89-e7ae-5cc9-9e6c00000224</hash>
									<value>1AEAAAAAAABEMyIRDAAAAAAABgAKAAQABgAAAGQAAAAAAF4ASAAQAAwARABAADwAOAAAAAAAAAAAADQAMwAsAAAAKAAkACAAAAAAAAAAAAAAAAAAHAAAAAAAGgAAAAAAAAAUAAAAAAAAAAAAAAAAAAAAAAAAAAgAAAAAABsABwBeAAAAAAAAAUAAAABQAAAAbAAAAAIAAAAAAAEAAQAAAAAAQEEAAMBAAABAQAAAyEIAAAABIAAAAAIAAAACAAAAAAAQRACASkQA////BP///wj///8i////AAAAAAEAAAAEAAAAEQAAAEhHUFNvZWlLYWt1cG9wdGFpAAAAAQAAAAwAAAAIAAwABAAIAAgAAAAIAAAASgAAAEYAAADjgYbjgbLjgojjga7jg4Hjgqfjgq3jga7jgYrljLvogIUg5aSn5LiI5aSr5aSn5LiI5aSr5aSn5LiI5aSr5aSn5LiI5aSrAAA0ACAAAAAcABgAAAAAABcAEAAAAAAAAAAAAAAAAAAAAAAAAAAMAAAAAAAAAAgAAAAEADQAAAAcAAAAHAAAABwAAAAAAHBBAAAAAWgAAAAd/55DsP///7T///8BAAAAFAAAABAAGgAIAAcADAAAABAAFAAQAAAAAAAAARwAAAAAAIhBHAAAAAIAAAAAAAoACAAFAAYABwAKAAAAAP1v//z///8EAAQABAAAAAgACAAGAAcACAAAAAAA/W8=</value>
								</parameter>
								<parameter authoringApp="PremierePro">
									<parameterid>2</parameterid>
									<name>トランスフォーム</name>
									<IsTimeVarying>false</IsTimeVarying>
									<ParameterControlType>11</ParameterControlType>
									<LowerBound>false</LowerBound>
									<UpperBound>false</UpperBound>
									<value>-91445760000000000,false,0,0,0,0,0,0</value>
								</parameter>
							</effect>
						</filter>
					</clipitem>
					<clipitem frameBlend="FALSE" id="clipitem-telop-8">
						<file id="file-2"/>
						<name>グラフィック</name>
						<rate>
							<timebase>59</timebase>
							<ntsc>TRUE</ntsc>
						</rate>
						<rate>
							<timebase>59</timebase>
							<ntsc>TRUE</ntsc>
						</rate>
						<duration>246</duration>
						<start>2765</start>
						<end>3011</end>
						<in>0</in>
						<out>246</out>
						<filter>
							<effect>
								<name></name>
								<effectid>GraphicAndType</effectid>
								<effectcategory>graphic</effectcategory>
								<effecttype>filter</effecttype>
								<mediatype>video</mediatype>
								<pproBypass>false</pproBypass>
								<parameter authoringApp="PremierePro">
									<parameterid>1</parameterid>
									<name>ソーステキスト</name>
									<hash>9da144c7-0b89-e7ae-5cc9-9e6c00000224</hash>
									<value>1AEAAAAAAABEMyIRDAAAAAAABgAKAAQABgAAAGQAAAAAAF4ASAAQAAwARABAADwAOAAAAAAAAAAAADQAMwAsAAAAKAAkACAAAAAAAAAAAAAAAAAAHAAAAAAAGgAAAAAAAAAUAAAAAAAAAAAAAAAAAAAAAAAAAAgAAAAAABsABwBeAAAAAAAAAUAAAABQAAAAbAAAAAIAAAAAAAEAAQAAAAAAQEEAAMBAAABAQAAAyEIAAAABIAAAAAIAAAACAAAAAAAQRACASkQA////BP///wj///8i////AAAAAAEAAAAEAAAAEQAAAEhHUFNvZWlLYWt1cG9wdGFpAAAAAQAAAAwAAAAIAAwABAAIAAgAAAAIAAAAVQAAAFEAAADjgYbjgbLjgojjga7jgYrlrKLmp5jjgYLjgo/jgozjgZnjgY7jgabjgaHjgofjgaPjgajjgajjgpPjgafjgoLjgarjgYTjgafjgZnjgojjga0AAAA0ACAAAAAcABgAAAAAABcAEAAAAAAAAAAAAAAAAAAAAAAAAAAMAAAAAAAAAAgAAAAEADQAAAAcAAAAHAAAABwAAAAAAHBBAAAAAWgAAAAd/55DsP///7T///8BAAAAFAAAABAAGgAIAAcADAAAABAAFAAQAAAAAAAAARwAAAAAAIhBHAAAAAIAAAAAAAoACAAFAAYABwAKAAAAAP1v//z///8EAAQABAAAAAgACAAGAAcACAAAAAAA/W8=</value>
								</parameter>
								<parameter authoringApp="PremierePro">
									<parameterid>2</parameterid>
									<name>トランスフォーム</name>
									<IsTimeVarying>false</IsTimeVarying>
									<ParameterControlType>11</ParameterControlType>
									<LowerBound>false</LowerBound>
									<UpperBound>false</UpperBound>
									<value>-91445760000000000,false,0,0,0,0,0,0</value>
								</parameter>
							</effect>
						</filter>
					</clipitem>
					<clipitem frameBlend="FALSE" id="clipitem-telop-9">
						<file id="file-2"/>
						<name>グラフィック</name>
						<rate>
							<timebase>59</timebase>
							<ntsc>TRUE</ntsc>
						</rate>
						<rate>
							<timebase>59</timebase>
							<ntsc>TRUE</ntsc>
						</rate>
						<duration>240</duration>
						<start>3011</start>
						<end>3251</end>
						<in>0</in>
						<out>240</out>
						<filter>
							<effect>
								<name></name>
								<effectid>GraphicAndType</effectid>
								<effectcategory>graphic</effectcategory>
								<effecttype>filter</effecttype>
								<mediatype>video</mediatype>
								<pproBypass>false</pproBypass>
								<parameter authoringApp="PremierePro">
									<parameterid>1</parameterid>
									<name>ソーステキスト</name>
									<hash>9da144c7-0b89-e7ae-5cc9-9e6c00000224</hash>
									<value>1AEAAAAAAABEMyIRDAAAAAAABgAKAAQABgAAAGQAAAAAAF4ASAAQAAwARABAADwAOAAAAAAAAAAAADQAMwAsAAAAKAAkACAAAAAAAAAAAAAAAAAAHAAAAAAAGgAAAAAAAAAUAAAAAAAAAAAAAAAAAAAAAAAAAAgAAAAAABsABwBeAAAAAAAAAUAAAABQAAAAbAAAAAIAAAAAAAEAAQAAAAAAQEEAAMBAAABAQAAAyEIAAAABIAAAAAIAAAACAAAAAAAQRACASkQA////BP///wj///8i////AAAAAAEAAAAEAAAAEQAAAEhHUFNvZWlLYWt1cG9wdGFpAAAAAQAAAAwAAAAIAAwABAAIAAgAAAAIAAAAUwAAAE8AAADjgarjgpPjgYvlrqTmrKHmgqrlj6PoqIDjgaPjgabjgb7jgZvjgpPjgYLjgZ3jgZPjgacg6IGe44GL44Gq44GE44Gn44GP44Gg44GV44GEADQAIAAAABwAGAAAAAAAFwAQAAAAAAAAAAAAAAAAAAAAAAAAAAwAAAAAAAAACAAAAAQANAAAABwAAAAcAAAAHAAAAAAAcEEAAAABaAAAAB3/nkOw////tP///wEAAAAUAAAAEAAaAAgABwAMAAAAEAAUABAAAAAAAAABHAAAAAAAiEEcAAAAAgAAAAAACgAIAAUABgAHAAoAAAAA/W///P///wQABAAEAAAACAAIAAYABwAIAAAAAAD9bw==</value>
								</parameter>
								<parameter authoringApp="PremierePro">
									<parameterid>2</parameterid>
									<name>トランスフォーム</name>
									<IsTimeVarying>false</IsTimeVarying>
									<ParameterControlType>11</ParameterControlType>
									<LowerBound>false</LowerBound>
									<UpperBound>false</UpperBound>
									<value>-91445760000000000,false,0,0,0,0,0,0</value>
								</parameter>
							</effect>
						</filter>
					</clipitem>
					<clipitem frameBlend="FALSE" id="clipitem-telop-10">
						<file id="file-2"/>
						<name>グラフィック</name>
						<rate>
							<timebase>59</timebase>
							<ntsc>TRUE</ntsc>
						</rate>
						<rate>
							<timebase>59</timebase>
							<ntsc>TRUE</ntsc>
						</rate>
						<duration>156</duration>
						<start>3251</start>
						<end>3407</end>
						<in>0</in>
						<out>156</out>
						<filter>
							<effect>
								<name></name>
								<effectid>GraphicAndType</effectid>
								<effectcategory>graphic</effectcategory>
								<effecttype>filter</effecttype>
								<mediatype>video</mediatype>
								<pproBypass>false</pproBypass>
								<parameter authoringApp="PremierePro">
									<parameterid>1</parameterid>
									<name>ソーステキスト</name>
									<hash>9da144c7-0b89-e7ae-5cc9-9e6c00000224</hash>
									<value>1AEAAAAAAABEMyIRDAAAAAAABgAKAAQABgAAAGQAAAAAAF4ASAAQAAwARABAADwAOAAAAAAAAAAAADQAMwAsAAAAKAAkACAAAAAAAAAAAAAAAAAAHAAAAAAAGgAAAAAAAAAUAAAAAAAAAAAAAAAAAAAAAAAAAAgAAAAAABsABwBeAAAAAAAAAUAAAABQAAAAbAAAAAIAAAAAAAEAAQAAAAAAQEEAAMBAAABAQAAAyEIAAAABIAAAAAIAAAACAAAAAAAQRACASkQA////BP///wj///8i////AAAAAAEAAAAEAAAAEQAAAEhHUFNvZWlLYWt1cG9wdGFpAAAAAQAAAAwAAAAIAAwABAAIAAgAAAAIAAAATwAAAEsAAADjgYbjgbLjgojjga7kurrjgYzjgYLjgovjgo/jgZHjgafjgYvjga7lpbPjga7jgZPjgajjgafjga/jgZTjgZbjgYTjgb7jgZvjgpMANAAgAAAAHAAYAAAAAAAXABAAAAAAAAAAAAAAAAAAAAAAAAAADAAAAAAAAAAIAAAABAA0AAAAHAAAABwAAAAcAAAAAABwQQAAAAFoAAAAHf+eQ7D///+0////AQAAABQAAAAQABoACAAHAAwAAAAQABQAEAAAAAAAAAEcAAAAAACIQRwAAAACAAAAAAAKAAgABQAGAAcACgAAAAD9b//8////BAAEAAQAAAAIAAgABgAHAAgAAAAAAP1v</value>
								</parameter>
								<parameter authoringApp="PremierePro">
									<parameterid>2</parameterid>
									<name>トランスフォーム</name>
									<IsTimeVarying>false</IsTimeVarying>
									<ParameterControlType>11</ParameterControlType>
									<LowerBound>false</LowerBound>
									<UpperBound>false</UpperBound>
									<value>-91445760000000000,false,0,0,0,0,0,0</value>
								</parameter>
							</effect>
						</filter>
					</clipitem>
					<clipitem frameBlend="FALSE" id="clipitem-telop-11">
						<file id="file-2"/>
						<name>グラフィック</name>
						<rate>
							<timebase>59</timebase>
							<ntsc>TRUE</ntsc>
						</rate>
						<rate>
							<timebase>59</timebase>
							<ntsc>TRUE</ntsc>
						</rate>
						<duration>168</duration>
						<start>3407</start>
						<end>3575</end>
						<in>0</in>
						<out>168</out>
						<filter>
							<effect>
								<name></name>
								<effectid>GraphicAndType</effectid>
								<effectcategory>graphic</effectcategory>
								<effecttype>filter</effecttype>
								<mediatype>video</mediatype>
								<pproBypass>false</pproBypass>
								<parameter authoringApp="PremierePro">
									<parameterid>1</parameterid>
									<name>ソーステキスト</name>
									<hash>9da144c7-0b89-e7ae-5cc9-9e6c00000224</hash>
									<value>1AEAAAAAAABEMyIRDAAAAAAABgAKAAQABgAAAGQAAAAAAF4ASAAQAAwARABAADwAOAAAAAAAAAAAADQAMwAsAAAAKAAkACAAAAAAAAAAAAAAAAAAHAAAAAAAGgAAAAAAAAAUAAAAAAAAAAAAAAAAAAAAAAAAAAgAAAAAABsABwBeAAAAAAAAAUAAAABQAAAAbAAAAAIAAAAAAAEAAQAAAAAAQEEAAMBAAABAQAAAyEIAAAABIAAAAAIAAAACAAAAAAAQRACASkQA////BP///wj///8i////AAAAAAEAAAAEAAAAEQAAAEhHUFNvZWlLYWt1cG9wdGFpAAAAAQAAAAwAAAAIAAwABAAIAAgAAAAIAAAAOAAAADQAAADjgarjgpPjgYvmgqrlj6PoqIDjgaPjgabjgb7jgZnjgogg44Of44Or44Kv44GK5ayi5qeYNAAgAAAAHAAYAAAAAAAXABAAAAAAAAAAAAAAAAAAAAAAAAAADAAAAAAAAAAIAAAABAA0AAAAHAAAABwAAAAcAAAAAABwQQAAAAFoAAAAHf+eQ7D///+0////AQAAABQAAAAQABoACAAHAAwAAAAQABQAEAAAAAAAAAEcAAAAAACIQRwAAAACAAAAAAAKAAgABQAGAAcACgAAAAD9b//8////BAAEAAQAAAAIAAgABgAHAAgAAAAAAP1v</value>
								</parameter>
								<parameter authoringApp="PremierePro">
									<parameterid>2</parameterid>
									<name>トランスフォーム</name>
									<IsTimeVarying>false</IsTimeVarying>
									<ParameterControlType>11</ParameterControlType>
									<LowerBound>false</LowerBound>
									<UpperBound>false</UpperBound>
									<value>-91445760000000000,false,0,0,0,0,0,0</value>
								</parameter>
							</effect>
						</filter>
					</clipitem>
					<clipitem frameBlend="FALSE" id="clipitem-telop-12">
						<file id="file-2"/>
						<name>グラフィック</name>
						<rate>
							<timebase>59</timebase>
							<ntsc>TRUE</ntsc>
						</rate>
						<rate>
							<timebase>59</timebase>
							<ntsc>TRUE</ntsc>
						</rate>
						<duration>300</duration>
						<start>3575</start>
						<end>3875</end>
						<in>0</in>
						<out>300</out>
						<filter>
							<effect>
								<name></name>
								<effectid>GraphicAndType</effectid>
								<effectcategory>graphic</effectcategory>
								<effecttype>filter</effecttype>
								<mediatype>video</mediatype>
								<pproBypass>false</pproBypass>
								<parameter authoringApp="PremierePro">
									<parameterid>1</parameterid>
									<name>ソーステキスト</name>
									<hash>9da144c7-0b89-e7ae-5cc9-9e6c00000224</hash>
									<value>1AEAAAAAAABEMyIRDAAAAAAABgAKAAQABgAAAGQAAAAAAF4ASAAQAAwARABAADwAOAAAAAAAAAAAADQAMwAsAAAAKAAkACAAAAAAAAAAAAAAAAAAHAAAAAAAGgAAAAAAAAAUAAAAAAAAAAAAAAAAAAAAAAAAAAgAAAAAABsABwBeAAAAAAAAAUAAAABQAAAAbAAAAAIAAAAAAAEAAQAAAAAAQEEAAMBAAABAQAAAyEIAAAABIAAAAAIAAAACAAAAAAAQRACASkQA////BP///wj///8i////AAAAAAEAAAAEAAAAEQAAAEhHUFNvZWlLYWt1cG9wdGFpAAAAAQAAAAwAAAAIAAwABAAIAAgAAAAIAAAAdwAAAHMAAADjganjgYbjgZXjgozjgb7jgZfjgZ/jgYvjg5/jg6vjgq/jgYrlrKLmp5gg44Gq44KT44GL44GI44Gh44KH44Gj44Go44GI44GT44GI44GT44GT44Gu44Kq44O844OK44O844GV44KT44Gn44GZ44KI44GtADQAIAAAABwAGAAAAAAAFwAQAAAAAAAAAAAAAAAAAAAAAAAAAAwAAAAAAAAACAAAAAQANAAAABwAAAAcAAAAHAAAAAAAcEEAAAABaAAAAB3/nkOw////tP///wEAAAAUAAAAEAAaAAgABwAMAAAAEAAUABAAAAAAAAABHAAAAAAAiEEcAAAAAgAAAAAACgAIAAUABgAHAAoAAAAA/W///P///wQABAAEAAAACAAIAAYABwAIAAAAAAD9bw==</value>
								</parameter>
								<parameter authoringApp="PremierePro">
									<parameterid>2</parameterid>
									<name>トランスフォーム</name>
									<IsTimeVarying>false</IsTimeVarying>
									<ParameterControlType>11</ParameterControlType>
									<LowerBound>false</LowerBound>
									<UpperBound>false</UpperBound>
									<value>-91445760000000000,false,0,0,0,0,0,0</value>
								</parameter>
							</effect>
						</filter>
					</clipitem>
					<clipitem frameBlend="FALSE" id="clipitem-telop-13">
						<file id="file-2"/>
						<name>グラフィック</name>
						<rate>
							<timebase>59</timebase>
							<ntsc>TRUE</ntsc>
						</rate>
						<rate>
							<timebase>59</timebase>
							<ntsc>TRUE</ntsc>
						</rate>
						<duration>378</duration>
						<start>3875</start>
						<end>4253</end>
						<in>0</in>
						<out>378</out>
						<filter>
							<effect>
								<name></name>
								<effectid>GraphicAndType</effectid>
								<effectcategory>graphic</effectcategory>
								<effecttype>filter</effecttype>
								<mediatype>video</mediatype>
								<pproBypass>false</pproBypass>
								<parameter authoringApp="PremierePro">
									<parameterid>1</parameterid>
									<name>ソーステキスト</name>
									<hash>9da144c7-0b89-e7ae-5cc9-9e6c00000224</hash>
									<value>1AEAAAAAAABEMyIRDAAAAAAABgAKAAQABgAAAGQAAAAAAF4ASAAQAAwARABAADwAOAAAAAAAAAAAADQAMwAsAAAAKAAkACAAAAAAAAAAAAAAAAAAHAAAAAAAGgAAAAAAAAAUAAAAAAAAAAAAAAAAAAAAAAAAAAgAAAAAABsABwBeAAAAAAAAAUAAAABQAAAAbAAAAAIAAAAAAAEAAQAAAAAAQEEAAMBAAABAQAAAyEIAAAABIAAAAAIAAAACAAAAAAAQRACASkQA////BP///wj///8i////AAAAAAEAAAAEAAAAEQAAAEhHUFNvZWlLYWt1cG9wdGFpAAAAAQAAAAwAAAAIAAwABAAIAAgAAAAIAAAAdgAAAHIAAADjgYLjga/jgYTjgZPjgaHjgonjga7jgqrjg7zjg4rjg7zjgafjgabjgarjgpPjgYvjgZ3jgZPjgavjgYTjgovjgarjgpPjgYvlvIHjgajjgYvmnInlh7rkuovjgYzjgoHjgaPjgaHjgoPlpLHnpLzjgacAADQAIAAAABwAGAAAAAAAFwAQAAAAAAAAAAAAAAAAAAAAAAAAAAwAAAAAAAAACAAAAAQANAAAABwAAAAcAAAAHAAAAAAAcEEAAAABaAAAAB3/nkOw////tP///wEAAAAUAAAAEAAaAAgABwAMAAAAEAAUABAAAAAAAAABHAAAAAAAiEEcAAAAAgAAAAAACgAIAAUABgAHAAoAAAAA/W///P///wQABAAEAAAACAAIAAYABwAIAAAAAAD9bw==</value>
								</parameter>
								<parameter authoringApp="PremierePro">
									<parameterid>2</parameterid>
									<name>トランスフォーム</name>
									<IsTimeVarying>false</IsTimeVarying>
									<ParameterControlType>11</ParameterControlType>
									<LowerBound>false</LowerBound>
									<UpperBound>false</UpperBound>
									<value>-91445760000000000,false,0,0,0,0,0,0</value>
								</parameter>
							</effect>
						</filter>
					</clipitem>
					<clipitem frameBlend="FALSE" id="clipitem-telop-14">
						<file id="file-2"/>
						<name>グラフィック</name>
						<rate>
							<timebase>59</timebase>
							<ntsc>TRUE</ntsc>
						</rate>
						<rate>
							<timebase>59</timebase>
							<ntsc>TRUE</ntsc>
						</rate>
						<duration>120</duration>
						<start>4313</start>
						<end>4433</end>
						<in>0</in>
						<out>120</out>
						<filter>
							<effect>
								<name></name>
								<effectid>GraphicAndType</effectid>
								<effectcategory>graphic</effectcategory>
								<effecttype>filter</effecttype>
								<mediatype>video</mediatype>
								<pproBypass>false</pproBypass>
								<parameter authoringApp="PremierePro">
									<parameterid>1</parameterid>
									<name>ソーステキスト</name>
									<hash>9da144c7-0b89-e7ae-5cc9-9e6c00000224</hash>
									<value>1AEAAAAAAABEMyIRDAAAAAAABgAKAAQABgAAAGQAAAAAAF4ASAAQAAwARABAADwAOAAAAAAAAAAAADQAMwAsAAAAKAAkACAAAAAAAAAAAAAAAAAAHAAAAAAAGgAAAAAAAAAUAAAAAAAAAAAAAAAAAAAAAAAAAAgAAAAAABsABwBeAAAAAAAAAUAAAABQAAAAbAAAAAIAAAAAAAEAAQAAAAAAQEEAAMBAAABAQAAAyEIAAAABIAAAAAIAAAACAAAAAAAQRACASkQA////BP///wj///8i////AAAAAAEAAAAEAAAAEQAAAEhHUFNvZWlLYWt1cG9wdGFpAAAAAQAAAAwAAAAIAAwABAAIAAgAAAAIAAAANwAAADMAAADjgarjgpPjgYvjg5/jg6vjgq/jgoHjgaPjgaHjgoPnhKHjgYTjgaDjgpPjgaDjgZHjgakANAAgAAAAHAAYAAAAAAAXABAAAAAAAAAAAAAAAAAAAAAAAAAADAAAAAAAAAAIAAAABAA0AAAAHAAAABwAAAAcAAAAAABwQQAAAAFoAAAAHf+eQ7D///+0////AQAAABQAAAAQABoACAAHAAwAAAAQABQAEAAAAAAAAAEcAAAAAACIQRwAAAACAAAAAAAKAAgABQAGAAcACgAAAAD9b//8////BAAEAAQAAAAIAAgABgAHAAgAAAAAAP1v</value>
								</parameter>
								<parameter authoringApp="PremierePro">
									<parameterid>2</parameterid>
									<name>トランスフォーム</name>
									<IsTimeVarying>false</IsTimeVarying>
									<ParameterControlType>11</ParameterControlType>
									<LowerBound>false</LowerBound>
									<UpperBound>false</UpperBound>
									<value>-91445760000000000,false,0,0,0,0,0,0</value>
								</parameter>
							</effect>
						</filter>
					</clipitem>
					<clipitem frameBlend="FALSE" id="clipitem-telop-15">
						<file id="file-2"/>
						<name>グラフィック</name>
						<rate>
							<timebase>59</timebase>
							<ntsc>TRUE</ntsc>
						</rate>
						<rate>
							<timebase>59</timebase>
							<ntsc>TRUE</ntsc>
						</rate>
						<duration>120</duration>
						<start>4433</start>
						<end>4553</end>
						<in>0</in>
						<out>120</out>
						<filter>
							<effect>
								<name></name>
								<effectid>GraphicAndType</effectid>
								<effectcategory>graphic</effectcategory>
								<effecttype>filter</effecttype>
								<mediatype>video</mediatype>
								<pproBypass>false</pproBypass>
								<parameter authoringApp="PremierePro">
									<parameterid>1</parameterid>
									<name>ソーステキスト</name>
									<hash>9da144c7-0b89-e7ae-5cc9-9e6c00000224</hash>
									<value>1AEAAAAAAABEMyIRDAAAAAAABgAKAAQABgAAAGQAAAAAAF4ASAAQAAwARABAADwAOAAAAAAAAAAAADQAMwAsAAAAKAAkACAAAAAAAAAAAAAAAAAAHAAAAAAAGgAAAAAAAAAUAAAAAAAAAAAAAAAAAAAAAAAAAAgAAAAAABsABwBeAAAAAAAAAUAAAABQAAAAbAAAAAIAAAAAAAEAAQAAAAAAQEEAAMBAAABAQAAAyEIAAAABIAAAAAIAAAACAAAAAAAQRACASkQA////BP///wj///8i////AAAAAAEAAAAEAAAAEQAAAEhHUFNvZWlLYWt1cG9wdGFpAAAAAQAAAAwAAAAIAAwABAAIAAgAAAAIAAAAIgAAAB4AAADjg5/jg6vjgq/jgYrlrKLmp5jlpKflpInjgarkuroAADQAIAAAABwAGAAAAAAAFwAQAAAAAAAAAAAAAAAAAAAAAAAAAAwAAAAAAAAACAAAAAQANAAAABwAAAAcAAAAHAAAAAAAcEEAAAABaAAAAB3/nkOw////tP///wEAAAAUAAAAEAAaAAgABwAMAAAAEAAUABAAAAAAAAABHAAAAAAAiEEcAAAAAgAAAAAACgAIAAUABgAHAAoAAAAA/W///P///wQABAAEAAAACAAIAAYABwAIAAAAAAD9bw==</value>
								</parameter>
								<parameter authoringApp="PremierePro">
									<parameterid>2</parameterid>
									<name>トランスフォーム</name>
									<IsTimeVarying>false</IsTimeVarying>
									<ParameterControlType>11</ParameterControlType>
									<LowerBound>false</LowerBound>
									<UpperBound>false</UpperBound>
									<value>-91445760000000000,false,0,0,0,0,0,0</value>
								</parameter>
							</effect>
						</filter>
					</clipitem>
					<clipitem frameBlend="FALSE" id="clipitem-telop-16">
						<file id="file-2"/>
						<name>グラフィック</name>
						<rate>
							<timebase>59</timebase>
							<ntsc>TRUE</ntsc>
						</rate>
						<rate>
							<timebase>59</timebase>
							<ntsc>TRUE</ntsc>
						</rate>
						<duration>240</duration>
						<start>4553</start>
						<end>4793</end>
						<in>0</in>
						<out>240</out>
						<filter>
							<effect>
								<name></name>
								<effectid>GraphicAndType</effectid>
								<effectcategory>graphic</effectcategory>
								<effecttype>filter</effecttype>
								<mediatype>video</mediatype>
								<pproBypass>false</pproBypass>
								<parameter authoringApp="PremierePro">
									<parameterid>1</parameterid>
									<name>ソーステキスト</name>
									<hash>9da144c7-0b89-e7ae-5cc9-9e6c00000224</hash>
									<value>1AEAAAAAAABEMyIRDAAAAAAABgAKAAQABgAAAGQAAAAAAF4ASAAQAAwARABAADwAOAAAAAAAAAAAADQAMwAsAAAAKAAkACAAAAAAAAAAAAAAAAAAHAAAAAAAGgAAAAAAAAAUAAAAAAAAAAAAAAAAAAAAAAAAAAgAAAAAABsABwBeAAAAAAAAAUAAAABQAAAAbAAAAAIAAAAAAAEAAQAAAAAAQEEAAMBAAABAQAAAyEIAAAABIAAAAAIAAAACAAAAAAAQRACASkQA////BP///wj///8i////AAAAAAEAAAAEAAAAEQAAAEhHUFNvZWlLYWt1cG9wdGFpAAAAAQAAAAwAAAAIAAwABAAIAAgAAAAIAAAAVQAAAFEAAADjgYjjgarjgpPjgYvjgZPjga7jg5/jg6njg7zjgajjgYvoqIDjgYbkurrjgoLjgarjgpPjgYvoqbHjgaTjgb7jgpPjgarjgYvjgaPjgZ/jgZcAAAA0ACAAAAAcABgAAAAAABcAEAAAAAAAAAAAAAAAAAAAAAAAAAAMAAAAAAAAAAgAAAAEADQAAAAcAAAAHAAAABwAAAAAAHBBAAAAAWgAAAAd/55DsP///7T///8BAAAAFAAAABAAGgAIAAcADAAAABAAFAAQAAAAAAAAARwAAAAAAIhBHAAAAAIAAAAAAAoACAAFAAYABwAKAAAAAP1v//z///8EAAQABAAAAAgACAAGAAcACAAAAAAA/W8=</value>
								</parameter>
								<parameter authoringApp="PremierePro">
									<parameterid>2</parameterid>
									<name>トランスフォーム</name>
									<IsTimeVarying>false</IsTimeVarying>
									<ParameterControlType>11</ParameterControlType>
									<LowerBound>false</LowerBound>
									<UpperBound>false</UpperBound>
									<value>-91445760000000000,false,0,0,0,0,0,0</value>
								</parameter>
							</effect>
						</filter>
					</clipitem>
					<clipitem frameBlend="FALSE" id="clipitem-telop-17">
						<file id="file-2"/>
						<name>グラフィック</name>
						<rate>
							<timebase>59</timebase>
							<ntsc>TRUE</ntsc>
						</rate>
						<rate>
							<timebase>59</timebase>
							<ntsc>TRUE</ntsc>
						</rate>
						<duration>120</duration>
						<start>4793</start>
						<end>4913</end>
						<in>0</in>
						<out>120</out>
						<filter>
							<effect>
								<name></name>
								<effectid>GraphicAndType</effectid>
								<effectcategory>graphic</effectcategory>
								<effecttype>filter</effecttype>
								<mediatype>video</mediatype>
								<pproBypass>false</pproBypass>
								<parameter authoringApp="PremierePro">
									<parameterid>1</parameterid>
									<name>ソーステキスト</name>
									<hash>9da144c7-0b89-e7ae-5cc9-9e6c00000224</hash>
									<value>1AEAAAAAAABEMyIRDAAAAAAABgAKAAQABgAAAGQAAAAAAF4ASAAQAAwARABAADwAOAAAAAAAAAAAADQAMwAsAAAAKAAkACAAAAAAAAAAAAAAAAAAHAAAAAAAGgAAAAAAAAAUAAAAAAAAAAAAAAAAAAAAAAAAAAgAAAAAABsABwBeAAAAAAAAAUAAAABQAAAAbAAAAAIAAAAAAAEAAQAAAAAAQEEAAMBAAABAQAAAyEIAAAABIAAAAAIAAAACAAAAAAAQRACASkQA////BP///wj///8i////AAAAAAEAAAAEAAAAEQAAAEhHUFNvZWlLYWt1cG9wdGFpAAAAAQAAAAwAAAAIAAwABAAIAAgAAAAIAAAAKQAAACUAAADjgYrlrKLmp5gg5aSc44Gv44Gq44GL44Gj44Gf44Gn44GZ44KIAAAANAAgAAAAHAAYAAAAAAAXABAAAAAAAAAAAAAAAAAAAAAAAAAADAAAAAAAAAAIAAAABAA0AAAAHAAAABwAAAAcAAAAAABwQQAAAAFoAAAAHf+eQ7D///+0////AQAAABQAAAAQABoACAAHAAwAAAAQABQAEAAAAAAAAAEcAAAAAACIQRwAAAACAAAAAAAKAAgABQAGAAcACgAAAAD9b//8////BAAEAAQAAAAIAAgABgAHAAgAAAAAAP1v</value>
								</parameter>
								<parameter authoringApp="PremierePro">
									<parameterid>2</parameterid>
									<name>トランスフォーム</name>
									<IsTimeVarying>false</IsTimeVarying>
									<ParameterControlType>11</ParameterControlType>
									<LowerBound>false</LowerBound>
									<UpperBound>false</UpperBound>
									<value>-91445760000000000,false,0,0,0,0,0,0</value>
								</parameter>
							</effect>
						</filter>
					</clipitem>
					<clipitem frameBlend="FALSE" id="clipitem-telop-18">
						<file id="file-2"/>
						<name>グラフィック</name>
						<rate>
							<timebase>59</timebase>
							<ntsc>TRUE</ntsc>
						</rate>
						<rate>
							<timebase>59</timebase>
							<ntsc>TRUE</ntsc>
						</rate>
						<duration>480</duration>
						<start>4913</start>
						<end>5393</end>
						<in>0</in>
						<out>480</out>
						<filter>
							<effect>
								<name></name>
								<effectid>GraphicAndType</effectid>
								<effectcategory>graphic</effectcategory>
								<effecttype>filter</effecttype>
								<mediatype>video</mediatype>
								<pproBypass>false</pproBypass>
								<parameter authoringApp="PremierePro">
									<parameterid>1</parameterid>
									<name>ソーステキスト</name>
									<hash>9da144c7-0b89-e7ae-5cc9-9e6c00000224</hash>
									<value>1AEAAAAAAABEMyIRDAAAAAAABgAKAAQABgAAAGQAAAAAAF4ASAAQAAwARABAADwAOAAAAAAAAAAAADQAMwAsAAAAKAAkACAAAAAAAAAAAAAAAAAAHAAAAAAAGgAAAAAAAAAUAAAAAAAAAAAAAAAAAAAAAAAAAAgAAAAAABsABwBeAAAAAAAAAUAAAABQAAAAbAAAAAIAAAAAAAEAAQAAAAAAQEEAAMBAAABAQAAAyEIAAAABIAAAAAIAAAACAAAAAAAQRACASkQA////BP///wj///8i////AAAAAAEAAAAEAAAAEQAAAEhHUFNvZWlLYWt1cG9wdGFpAAAAAQAAAAwAAAAIAAwABAAIAAgAAAAIAAAAhgAAAIIAAADjgarjgpPjgYvjg5XjgqHjg5/jg57jga7jg5XjgqHjg5/jg4Hjgq3poLzjgoDjgajjgZfjgZ/jgonjgarjgpPjgYs344OB44Kt44Gg44Gj44Gf44G/44Gf44GE44Gq6Kmx44GV44KM44Gm44Oe44K45oSP5ZGz44Gv44Gq44GE44GXAAA0ACAAAAAcABgAAAAAABcAEAAAAAAAAAAAAAAAAAAAAAAAAAAMAAAAAAAAAAgAAAAEADQAAAAcAAAAHAAAABwAAAAAAHBBAAAAAWgAAAAd/55DsP///7T///8BAAAAFAAAABAAGgAIAAcADAAAABAAFAAQAAAAAAAAARwAAAAAAIhBHAAAAAIAAAAAAAoACAAFAAYABwAKAAAAAP1v//z///8EAAQABAAAAAgACAAGAAcACAAAAAAA/W8=</value>
								</parameter>
								<parameter authoringApp="PremierePro">
									<parameterid>2</parameterid>
									<name>トランスフォーム</name>
									<IsTimeVarying>false</IsTimeVarying>
									<ParameterControlType>11</ParameterControlType>
									<LowerBound>false</LowerBound>
									<UpperBound>false</UpperBound>
									<value>-91445760000000000,false,0,0,0,0,0,0</value>
								</parameter>
							</effect>
						</filter>
					</clipitem>
					<clipitem frameBlend="FALSE" id="clipitem-telop-19">
						<file id="file-2"/>
						<name>グラフィック</name>
						<rate>
							<timebase>59</timebase>
							<ntsc>TRUE</ntsc>
						</rate>
						<rate>
							<timebase>59</timebase>
							<ntsc>TRUE</ntsc>
						</rate>
						<duration>300</duration>
						<start>5393</start>
						<end>5693</end>
						<in>0</in>
						<out>300</out>
						<filter>
							<effect>
								<name></name>
								<effectid>GraphicAndType</effectid>
								<effectcategory>graphic</effectcategory>
								<effecttype>filter</effecttype>
								<mediatype>video</mediatype>
								<pproBypass>false</pproBypass>
								<parameter authoringApp="PremierePro">
									<parameterid>1</parameterid>
									<name>ソーステキスト</name>
									<hash>9da144c7-0b89-e7ae-5cc9-9e6c00000224</hash>
									<value>1AEAAAAAAABEMyIRDAAAAAAABgAKAAQABgAAAGQAAAAAAF4ASAAQAAwARABAADwAOAAAAAAAAAAAADQAMwAsAAAAKAAkACAAAAAAAAAAAAAAAAAAHAAAAAAAGgAAAAAAAAAUAAAAAAAAAAAAAAAAAAAAAAAAAAgAAAAAABsABwBeAAAAAAAAAUAAAABQAAAAbAAAAAIAAAAAAAEAAQAAAAAAQEEAAMBAAABAQAAAyEIAAAABIAAAAAIAAAACAAAAAAAQRACASkQA////BP///wj///8i////AAAAAAEAAAAEAAAAEQAAAEhHUFNvZWlLYWt1cG9wdGFpAAAAAQAAAAwAAAAIAAwABAAIAAgAAAAIAAAAkgAAAI4AAADjgZTkuI3lv6vjgarmgJ3jgYTjgpLjgZXjgZvjgabjgZfjgb7jgYTlpKflpInnlLPjgZfoqLPjgZTjgZbjgYTjgb7jgZvjgpPjgafjgZfjgZ8g44Gp44Gu44Kt44Oj44K544OI44GM5LiA55Wq44KI44KN44GX44GL44Gj44Gf44Gn44GX44KH44GG44GLAAA0ACAAAAAcABgAAAAAABcAEAAAAAAAAAAAAAAAAAAAAAAAAAAMAAAAAAAAAAgAAAAEADQAAAAcAAAAHAAAABwAAAAAAHBBAAAAAWgAAAAd/55DsP///7T///8BAAAAFAAAABAAGgAIAAcADAAAABAAFAAQAAAAAAAAARwAAAAAAIhBHAAAAAIAAAAAAAoACAAFAAYABwAKAAAAAP1v//z///8EAAQABAAAAAgACAAGAAcACAAAAAAA/W8=</value>
								</parameter>
								<parameter authoringApp="PremierePro">
									<parameterid>2</parameterid>
									<name>トランスフォーム</name>
									<IsTimeVarying>false</IsTimeVarying>
									<ParameterControlType>11</ParameterControlType>
									<LowerBound>false</LowerBound>
									<UpperBound>false</UpperBound>
									<value>-91445760000000000,false,0,0,0,0,0,0</value>
								</parameter>
							</effect>
						</filter>
					</clipitem>
					<clipitem frameBlend="FALSE" id="clipitem-telop-20">
						<file id="file-2"/>
						<name>グラフィック</name>
						<rate>
							<timebase>59</timebase>
							<ntsc>TRUE</ntsc>
						</rate>
						<rate>
							<timebase>59</timebase>
							<ntsc>TRUE</ntsc>
						</rate>
						<duration>180</duration>
						<start>5693</start>
						<end>5873</end>
						<in>0</in>
						<out>180</out>
						<filter>
							<effect>
								<name></name>
								<effectid>GraphicAndType</effectid>
								<effectcategory>graphic</effectcategory>
								<effecttype>filter</effecttype>
								<mediatype>video</mediatype>
								<pproBypass>false</pproBypass>
								<parameter authoringApp="PremierePro">
									<parameterid>1</parameterid>
									<name>ソーステキスト</name>
									<hash>9da144c7-0b89-e7ae-5cc9-9e6c00000224</hash>
									<value>1AEAAAAAAABEMyIRDAAAAAAABgAKAAQABgAAAGQAAAAAAF4ASAAQAAwARABAADwAOAAAAAAAAAAAADQAMwAsAAAAKAAkACAAAAAAAAAAAAAAAAAAHAAAAAAAGgAAAAAAAAAUAAAAAAAAAAAAAAAAAAAAAAAAAAgAAAAAABsABwBeAAAAAAAAAUAAAABQAAAAbAAAAAIAAAAAAAEAAQAAAAAAQEEAAMBAAABAQAAAyEIAAAABIAAAAAIAAAACAAAAAAAQRACASkQA////BP///wj///8i////AAAAAAEAAAAEAAAAEQAAAEhHUFNvZWlLYWt1cG9wdGFpAAAAAQAAAAwAAAAIAAwABAAIAAgAAAAIAAAAQwAAAD8AAADjgYjjgafjgoLjgarjgpPjgYvms6LjgYzjgZPjgozjgYvjgonmjqXlrqLjgZfjgabjgY/jgozjgovjgaPjgaYANAAgAAAAHAAYAAAAAAAXABAAAAAAAAAAAAAAAAAAAAAAAAAADAAAAAAAAAAIAAAABAA0AAAAHAAAABwAAAAcAAAAAABwQQAAAAFoAAAAHf+eQ7D///+0////AQAAABQAAAAQABoACAAHAAwAAAAQABQAEAAAAAAAAAEcAAAAAACIQRwAAAACAAAAAAAKAAgABQAGAAcACgAAAAD9b//8////BAAEAAQAAAAIAAgABgAHAAgAAAAAAP1v</value>
								</parameter>
								<parameter authoringApp="PremierePro">
									<parameterid>2</parameterid>
									<name>トランスフォーム</name>
									<IsTimeVarying>false</IsTimeVarying>
									<ParameterControlType>11</ParameterControlType>
									<LowerBound>false</LowerBound>
									<UpperBound>false</UpperBound>
									<value>-91445760000000000,false,0,0,0,0,0,0</value>
								</parameter>
							</effect>
						</filter>
					</clipitem>
					<clipitem frameBlend="FALSE" id="clipitem-telop-21">
						<file id="file-2"/>
						<name>グラフィック</name>
						<rate>
							<timebase>59</timebase>
							<ntsc>TRUE</ntsc>
						</rate>
						<rate>
							<timebase>59</timebase>
							<ntsc>TRUE</ntsc>
						</rate>
						<duration>240</duration>
						<start>5873</start>
						<end>6113</end>
						<in>0</in>
						<out>240</out>
						<filter>
							<effect>
								<name></name>
								<effectid>GraphicAndType</effectid>
								<effectcategory>graphic</effectcategory>
								<effecttype>filter</effecttype>
								<mediatype>video</mediatype>
								<pproBypass>false</pproBypass>
								<parameter authoringApp="PremierePro">
									<parameterid>1</parameterid>
									<name>ソーステキスト</name>
									<hash>9da144c7-0b89-e7ae-5cc9-9e6c00000224</hash>
									<value>1AEAAAAAAABEMyIRDAAAAAAABgAKAAQABgAAAGQAAAAAAF4ASAAQAAwARABAADwAOAAAAAAAAAAAADQAMwAsAAAAKAAkACAAAAAAAAAAAAAAAAAAHAAAAAAAGgAAAAAAAAAUAAAAAAAAAAAAAAAAAAAAAAAAAAgAAAAAABsABwBeAAAAAAAAAUAAAABQAAAAbAAAAAIAAAAAAAEAAQAAAAAAQEEAAMBAAABAQAAAyEIAAAABIAAAAAIAAAACAAAAAAAQRACASkQA////BP///wj///8i////AAAAAAEAAAAEAAAAEQAAAEhHUFNvZWlLYWt1cG9wdGFpAAAAAQAAAAwAAAAIAAwABAAIAAgAAAAIAAAAdgAAAHIAAADku5Xovrzjgb7jgozjgb7jgZfjgZ/np4HjgoLjgafjga/jgb7jgY/jgZvjgY/jgaDjgZXjgYTjgb7jgZvjgpPjg6njg5/jgrnls7bjgajoqIDjgYblrZDlpbPjgZXjgpPjga7kuJbnlYzjga7mlrnjgpIAADQAIAAAABwAGAAAAAAAFwAQAAAAAAAAAAAAAAAAAAAAAAAAAAwAAAAAAAAACAAAAAQANAAAABwAAAAcAAAAHAAAAAAAcEEAAAABaAAAAB3/nkOw////tP///wEAAAAUAAAAEAAaAAgABwAMAAAAEAAUABAAAAAAAAABHAAAAAAAiEEcAAAAAgAAAAAACgAIAAUABgAHAAoAAAAA/W///P///wQABAAEAAAACAAIAAYABwAIAAAAAAD9bw==</value>
								</parameter>
								<parameter authoringApp="PremierePro">
									<parameterid>2</parameterid>
									<name>トランスフォーム</name>
									<IsTimeVarying>false</IsTimeVarying>
									<ParameterControlType>11</ParameterControlType>
									<LowerBound>false</LowerBound>
									<UpperBound>false</UpperBound>
									<value>-91445760000000000,false,0,0,0,0,0,0</value>
								</parameter>
							</effect>
						</filter>
					</clipitem>
					<clipitem frameBlend="FALSE" id="clipitem-telop-22">
						<file id="file-2"/>
						<name>グラフィック</name>
						<rate>
							<timebase>59</timebase>
							<ntsc>TRUE</ntsc>
						</rate>
						<rate>
							<timebase>59</timebase>
							<ntsc>TRUE</ntsc>
						</rate>
						<duration>120</duration>
						<start>6113</start>
						<end>6233</end>
						<in>0</in>
						<out>120</out>
						<filter>
							<effect>
								<name></name>
								<effectid>GraphicAndType</effectid>
								<effectcategory>graphic</effectcategory>
								<effecttype>filter</effecttype>
								<mediatype>video</mediatype>
								<pproBypass>false</pproBypass>
								<parameter authoringApp="PremierePro">
									<parameterid>1</parameterid>
									<name>ソーステキスト</name>
									<hash>9da144c7-0b89-e7ae-5cc9-9e6c00000224</hash>
									<value>1AEAAAAAAABEMyIRDAAAAAAABgAKAAQABgAAAGQAAAAAAF4ASAAQAAwARABAADwAOAAAAAAAAAAAADQAMwAsAAAAKAAkACAAAAAAAAAAAAAAAAAAHAAAAAAAGgAAAAAAAAAUAAAAAAAAAAAAAAAAAAAAAAAAAAgAAAAAABsABwBeAAAAAAAAAUAAAABQAAAAbAAAAAIAAAAAAAEAAQAAAAAAQEEAAMBAAABAQAAAyEIAAAABIAAAAAIAAAACAAAAAAAQRACASkQA////BP///wj///8i////AAAAAAEAAAAEAAAAEQAAAEhHUFNvZWlLYWt1cG9wdGFpAAAAAQAAAAwAAAAIAAwABAAIAAgAAAAIAAAAPQAAADkAAADjgojjgorokL3jgajjgZfjgabjgoLjgonjgaPjgabjgojjgo3jgZfjgYTjgafjgZfjgofjgYbjgYsAAAA0ACAAAAAcABgAAAAAABcAEAAAAAAAAAAAAAAAAAAAAAAAAAAMAAAAAAAAAAgAAAAEADQAAAAcAAAAHAAAABwAAAAAAHBBAAAAAWgAAAAd/55DsP///7T///8BAAAAFAAAABAAGgAIAAcADAAAABAAFAAQAAAAAAAAARwAAAAAAIhBHAAAAAIAAAAAAAoACAAFAAYABwAKAAAAAP1v//z///8EAAQABAAAAAgACAAGAAcACAAAAAAA/W8=</value>
								</parameter>
								<parameter authoringApp="PremierePro">
									<parameterid>2</parameterid>
									<name>トランスフォーム</name>
									<IsTimeVarying>false</IsTimeVarying>
									<ParameterControlType>11</ParameterControlType>
									<LowerBound>false</LowerBound>
									<UpperBound>false</UpperBound>
									<value>-91445760000000000,false,0,0,0,0,0,0</value>
								</parameter>
							</effect>
						</filter>
					</clipitem>
					<clipitem frameBlend="FALSE" id="clipitem-telop-23">
						<file id="file-2"/>
						<name>グラフィック</name>
						<rate>
							<timebase>59</timebase>
							<ntsc>TRUE</ntsc>
						</rate>
						<rate>
							<timebase>59</timebase>
							<ntsc>TRUE</ntsc>
						</rate>
						<duration>240</duration>
						<start>6233</start>
						<end>6473</end>
						<in>0</in>
						<out>240</out>
						<filter>
							<effect>
								<name></name>
								<effectid>GraphicAndType</effectid>
								<effectcategory>graphic</effectcategory>
								<effecttype>filter</effecttype>
								<mediatype>video</mediatype>
								<pproBypass>false</pproBypass>
								<parameter authoringApp="PremierePro">
									<parameterid>1</parameterid>
									<name>ソーステキスト</name>
									<hash>9da144c7-0b89-e7ae-5cc9-9e6c00000224</hash>
									<value>1AEAAAAAAABEMyIRDAAAAAAABgAKAAQABgAAAGQAAAAAAF4ASAAQAAwARABAADwAOAAAAAAAAAAAADQAMwAsAAAAKAAkACAAAAAAAAAAAAAAAAAAHAAAAAAAGgAAAAAAAAAUAAAAAAAAAAAAAAAAAAAAAAAAAAgAAAAAABsABwBeAAAAAAAAAUAAAABQAAAAbAAAAAIAAAAAAAEAAQAAAAAAQEEAAMBAAABAQAAAyEIAAAABIAAAAAIAAAACAAAAAAAQRACASkQA////BP///wj///8i////AAAAAAEAAAAEAAAAEQAAAEhHUFNvZWlLYWt1cG9wdGFpAAAAAQAAAAwAAAAIAAwABAAIAAgAAAAIAAAATwAAAEsAAADjgYjkvZXku5bjga7jgYrlrqLmp5jjga7jg5zjgqTjgrnjgavkuZfjgaPjgabjgZfjgb7jgYTjgb7jgZnjga7jga7jgb7jgozjgasANAAgAAAAHAAYAAAAAAAXABAAAAAAAAAAAAAAAAAAAAAAAAAADAAAAAAAAAAIAAAABAA0AAAAHAAAABwAAAAcAAAAAABwQQAAAAFoAAAAHf+eQ7D///+0////AQAAABQAAAAQABoACAAHAAwAAAAQABQAEAAAAAAAAAEcAAAAAACIQRwAAAACAAAAAAAKAAgABQAGAAcACgAAAAD9b//8////BAAEAAQAAAAIAAgABgAHAAgAAAAAAP1v</value>
								</parameter>
								<parameter authoringApp="PremierePro">
									<parameterid>2</parameterid>
									<name>トランスフォーム</name>
									<IsTimeVarying>false</IsTimeVarying>
									<ParameterControlType>11</ParameterControlType>
									<LowerBound>false</LowerBound>
									<UpperBound>false</UpperBound>
									<value>-91445760000000000,false,0,0,0,0,0,0</value>
								</parameter>
							</effect>
						</filter>
					</clipitem>
					<clipitem frameBlend="FALSE" id="clipitem-telop-24">
						<file id="file-2"/>
						<name>グラフィック</name>
						<rate>
							<timebase>59</timebase>
							<ntsc>TRUE</ntsc>
						</rate>
						<rate>
							<timebase>59</timebase>
							<ntsc>TRUE</ntsc>
						</rate>
						<duration>240</duration>
						<start>6473</start>
						<end>6713</end>
						<in>0</in>
						<out>240</out>
						<filter>
							<effect>
								<name></name>
								<effectid>GraphicAndType</effectid>
								<effectcategory>graphic</effectcategory>
								<effecttype>filter</effecttype>
								<mediatype>video</mediatype>
								<pproBypass>false</pproBypass>
								<parameter authoringApp="PremierePro">
									<parameterid>1</parameterid>
									<name>ソーステキスト</name>
									<hash>9da144c7-0b89-e7ae-5cc9-9e6c00000224</hash>
									<value>1AEAAAAAAABEMyIRDAAAAAAABgAKAAQABgAAAGQAAAAAAF4ASAAQAAwARABAADwAOAAAAAAAAAAAADQAMwAsAAAAKAAkACAAAAAAAAAAAAAAAAAAHAAAAAAAGgAAAAAAAAAUAAAAAAAAAAAAAAAAAAAAAAAAAAgAAAAAABsABwBeAAAAAAAAAUAAAABQAAAAbAAAAAIAAAAAAAEAAQAAAAAAQEEAAMBAAABAQAAAyEIAAAABIAAAAAIAAAACAAAAAAAQRACASkQA////BP///wj///8i////AAAAAAEAAAAEAAAAEQAAAEhHUFNvZWlLYWt1cG9wdGFpAAAAAQAAAAwAAAAIAAwABAAIAAgAAAAIAAAAPQAAADkAAADjgYjjgarjgpPjgYvjg5/jg6njg7PjgYzjgarjgpPjgYvjg5XjgqHjg5/jg4Hjgq3jga7oqbHjgpIAAAA0ACAAAAAcABgAAAAAABcAEAAAAAAAAAAAAAAAAAAAAAAAAAAMAAAAAAAAAAgAAAAEADQAAAAcAAAAHAAAABwAAAAAAHBBAAAAAWgAAAAd/55DsP///7T///8BAAAAFAAAABAAGgAIAAcADAAAABAAFAAQAAAAAAAAARwAAAAAAIhBHAAAAAIAAAAAAAoACAAFAAYABwAKAAAAAP1v//z///8EAAQABAAAAAgACAAGAAcACAAAAAAA/W8=</value>
								</parameter>
								<parameter authoringApp="PremierePro">
									<parameterid>2</parameterid>
									<name>トランスフォーム</name>
									<IsTimeVarying>false</IsTimeVarying>
									<ParameterControlType>11</ParameterControlType>
									<LowerBound>false</LowerBound>
									<UpperBound>false</UpperBound>
									<value>-91445760000000000,false,0,0,0,0,0,0</value>
								</parameter>
							</effect>
						</filter>
					</clipitem>
					<clipitem frameBlend="FALSE" id="clipitem-telop-25">
						<file id="file-2"/>
						<name>グラフィック</name>
						<rate>
							<timebase>59</timebase>
							<ntsc>TRUE</ntsc>
						</rate>
						<rate>
							<timebase>59</timebase>
							<ntsc>TRUE</ntsc>
						</rate>
						<duration>240</duration>
						<start>6773</start>
						<end>7013</end>
						<in>0</in>
						<out>240</out>
						<filter>
							<effect>
								<name></name>
								<effectid>GraphicAndType</effectid>
								<effectcategory>graphic</effectcategory>
								<effecttype>filter</effecttype>
								<mediatype>video</mediatype>
								<pproBypass>false</pproBypass>
								<parameter authoringApp="PremierePro">
									<parameterid>1</parameterid>
									<name>ソーステキスト</name>
									<hash>9da144c7-0b89-e7ae-5cc9-9e6c00000224</hash>
									<value>1AEAAAAAAABEMyIRDAAAAAAABgAKAAQABgAAAGQAAAAAAF4ASAAQAAwARABAADwAOAAAAAAAAAAAADQAMwAsAAAAKAAkACAAAAAAAAAAAAAAAAAAHAAAAAAAGgAAAAAAAAAUAAAAAAAAAAAAAAAAAAAAAAAAAAgAAAAAABsABwBeAAAAAAAAAUAAAABQAAAAbAAAAAIAAAAAAAEAAQAAAAAAQEEAAMBAAABAQAAAyEIAAAABIAAAAAIAAAACAAAAAAAQRACASkQA////BP///wj///8i////AAAAAAEAAAAEAAAAEQAAAEhHUFNvZWlLYWt1cG9wdGFpAAAAAQAAAAwAAAAIAAwABAAIAAgAAAAIAAAAVQAAAFEAAADjg6rjg7zjgaHjgoPjgpPjgZPjgaPjgaHjgafjgZTjgZbjgYTjgb7jgZnjga7jgafjgYLjgorjgYzjgajjgYbjgZTjgZbjgYTjgb7jgZfjgZ8AAAA0ACAAAAAcABgAAAAAABcAEAAAAAAAAAAAAAAAAAAAAAAAAAAMAAAAAAAAAAgAAAAEADQAAAAcAAAAHAAAABwAAAAAAHBBAAAAAWgAAAAd/55DsP///7T///8BAAAAFAAAABAAGgAIAAcADAAAABAAFAAQAAAAAAAAARwAAAAAAIhBHAAAAAIAAAAAAAoACAAFAAYABwAKAAAAAP1v//z///8EAAQABAAAAAgACAAGAAcACAAAAAAA/W8=</value>
								</parameter>
								<parameter authoringApp="PremierePro">
									<parameterid>2</parameterid>
									<name>トランスフォーム</name>
									<IsTimeVarying>false</IsTimeVarying>
									<ParameterControlType>11</ParameterControlType>
									<LowerBound>false</LowerBound>
									<UpperBound>false</UpperBound>
									<value>-91445760000000000,false,0,0,0,0,0,0</value>
								</parameter>
							</effect>
						</filter>
					</clipitem>
					<clipitem frameBlend="FALSE" id="clipitem-telop-26">
						<file id="file-2"/>
						<name>グラフィック</name>
						<rate>
							<timebase>59</timebase>
							<ntsc>TRUE</ntsc>
						</rate>
						<rate>
							<timebase>59</timebase>
							<ntsc>TRUE</ntsc>
						</rate>
						<duration>120</duration>
						<start>7013</start>
						<end>7133</end>
						<in>0</in>
						<out>120</out>
						<filter>
							<effect>
								<name></name>
								<effectid>GraphicAndType</effectid>
								<effectcategory>graphic</effectcategory>
								<effecttype>filter</effecttype>
								<mediatype>video</mediatype>
								<pproBypass>false</pproBypass>
								<parameter authoringApp="PremierePro">
									<parameterid>1</parameterid>
									<name>ソーステキスト</name>
									<hash>9da144c7-0b89-e7ae-5cc9-9e6c00000224</hash>
									<value>1AEAAAAAAABEMyIRDAAAAAAABgAKAAQABgAAAGQAAAAAAF4ASAAQAAwARABAADwAOAAAAAAAAAAAADQAMwAsAAAAKAAkACAAAAAAAAAAAAAAAAAAHAAAAAAAGgAAAAAAAAAUAAAAAAAAAAAAAAAAAAAAAAAAAAgAAAAAABsABwBeAAAAAAAAAUAAAABQAAAAbAAAAAIAAAAAAAEAAQAAAAAAQEEAAMBAAABAQAAAyEIAAAABIAAAAAIAAAACAAAAAAAQRACASkQA////BP///wj///8i////AAAAAAEAAAAEAAAAEQAAAEhHUFNvZWlLYWt1cG9wdGFpAAAAAQAAAAwAAAAIAAwABAAIAAgAAAAIAAAATwAAAEsAAADjgYLjgorjgYzjgajjgYbjgZTjgZbjgYTjgb7jgZfjgZ/jgYrlrKLjgZXjgpPjgYrjgoHjgafjgajjgYbjgZTjgZbjgYTjgb7jgZkANAAgAAAAHAAYAAAAAAAXABAAAAAAAAAAAAAAAAAAAAAAAAAADAAAAAAAAAAIAAAABAA0AAAAHAAAABwAAAAcAAAAAABwQQAAAAFoAAAAHf+eQ7D///+0////AQAAABQAAAAQABoACAAHAAwAAAAQABQAEAAAAAAAAAEcAAAAAACIQRwAAAACAAAAAAAKAAgABQAGAAcACgAAAAD9b//8////BAAEAAQAAAAIAAgABgAHAAgAAAAAAP1v</value>
								</parameter>
								<parameter authoringApp="PremierePro">
									<parameterid>2</parameterid>
									<name>トランスフォーム</name>
									<IsTimeVarying>false</IsTimeVarying>
									<ParameterControlType>11</ParameterControlType>
									<LowerBound>false</LowerBound>
									<UpperBound>false</UpperBound>
									<value>-91445760000000000,false,0,0,0,0,0,0</value>
								</parameter>
							</effect>
						</filter>
					</clipitem>
					<clipitem frameBlend="FALSE" id="clipitem-telop-27">
						<file id="file-2"/>
						<name>グラフィック</name>
						<rate>
							<timebase>59</timebase>
							<ntsc>TRUE</ntsc>
						</rate>
						<rate>
							<timebase>59</timebase>
							<ntsc>TRUE</ntsc>
						</rate>
						<duration>120</duration>
						<start>7133</start>
						<end>7253</end>
						<in>0</in>
						<out>120</out>
						<filter>
							<effect>
								<name></name>
								<effectid>GraphicAndType</effectid>
								<effectcategory>graphic</effectcategory>
								<effecttype>filter</effecttype>
								<mediatype>video</mediatype>
								<pproBypass>false</pproBypass>
								<parameter authoringApp="PremierePro">
									<parameterid>1</parameterid>
									<name>ソーステキスト</name>
									<hash>9da144c7-0b89-e7ae-5cc9-9e6c00000224</hash>
									<value>1AEAAAAAAABEMyIRDAAAAAAABgAKAAQABgAAAGQAAAAAAF4ASAAQAAwARABAADwAOAAAAAAAAAAAADQAMwAsAAAAKAAkACAAAAAAAAAAAAAAAAAAHAAAAAAAGgAAAAAAAAAUAAAAAAAAAAAAAAAAAAAAAAAAAAgAAAAAABsABwBeAAAAAAAAAUAAAABQAAAAbAAAAAIAAAAAAAEAAQAAAAAAQEEAAMBAAABAQAAAyEIAAAABIAAAAAIAAAACAAAAAAAQRACASkQA////BP///wj///8i////AAAAAAEAAAAEAAAAEQAAAEhHUFNvZWlLYWt1cG9wdGFpAAAAAQAAAAwAAAAIAAwABAAIAAgAAAAIAAAAOgAAADYAAADjgYrjgZXjgoHjgabjgYTjgZ/jgaDjgYTjgabjgojjgo3jgZfjgYTjgafjgZfjgofjgYbjgYsAADQAIAAAABwAGAAAAAAAFwAQAAAAAAAAAAAAAAAAAAAAAAAAAAwAAAAAAAAACAAAAAQANAAAABwAAAAcAAAAHAAAAAAAcEEAAAABaAAAAB3/nkOw////tP///wEAAAAUAAAAEAAaAAgABwAMAAAAEAAUABAAAAAAAAABHAAAAAAAiEEcAAAAAgAAAAAACgAIAAUABgAHAAoAAAAA/W///P///wQABAAEAAAACAAIAAYABwAIAAAAAAD9bw==</value>
								</parameter>
								<parameter authoringApp="PremierePro">
									<parameterid>2</parameterid>
									<name>トランスフォーム</name>
									<IsTimeVarying>false</IsTimeVarying>
									<ParameterControlType>11</ParameterControlType>
									<LowerBound>false</LowerBound>
									<UpperBound>false</UpperBound>
									<value>-91445760000000000,false,0,0,0,0,0,0</value>
								</parameter>
							</effect>
						</filter>
					</clipitem>
					<clipitem frameBlend="FALSE" id="clipitem-telop-28">
						<file id="file-2"/>
						<name>グラフィック</name>
						<rate>
							<timebase>59</timebase>
							<ntsc>TRUE</ntsc>
						</rate>
						<rate>
							<timebase>59</timebase>
							<ntsc>TRUE</ntsc>
						</rate>
						<duration>240</duration>
						<start>7253</start>
						<end>7493</end>
						<in>0</in>
						<out>240</out>
						<filter>
							<effect>
								<name></name>
								<effectid>GraphicAndType</effectid>
								<effectcategory>graphic</effectcategory>
								<effecttype>filter</effecttype>
								<mediatype>video</mediatype>
								<pproBypass>false</pproBypass>
								<parameter authoringApp="PremierePro">
									<parameterid>1</parameterid>
									<name>ソーステキスト</name>
									<hash>9da144c7-0b89-e7ae-5cc9-9e6c00000224</hash>
									<value>1AEAAAAAAABEMyIRDAAAAAAABgAKAAQABgAAAGQAAAAAAF4ASAAQAAwARABAADwAOAAAAAAAAAAAADQAMwAsAAAAKAAkACAAAAAAAAAAAAAAAAAAHAAAAAAAGgAAAAAAAAAUAAAAAAAAAAAAAAAAAAAAAAAAAAgAAAAAABsABwBeAAAAAAAAAUAAAABQAAAAbAAAAAIAAAAAAAEAAQAAAAAAQEEAAMBAAABAQAAAyEIAAAABIAAAAAIAAAACAAAAAAAQRACASkQA////BP///wj///8i////AAAAAAEAAAAEAAAAEQAAAEhHUFNvZWlLYWt1cG9wdGFpAAAAAQAAAAwAAAAIAAwABAAIAAgAAAAIAAAAUgAAAE4AAADjgZ3jgozjgYvjgYLjga7lh7rli6TjgZfjgabjgYTjgarjgYTlh7rkuovjga/jganjgZPjgYvjgavnn6XjgaPjgabjgY/jgaDjgZXjgYQAADQAIAAAABwAGAAAAAAAFwAQAAAAAAAAAAAAAAAAAAAAAAAAAAwAAAAAAAAACAAAAAQANAAAABwAAAAcAAAAHAAAAAAAcEEAAAABaAAAAB3/nkOw////tP///wEAAAAUAAAAEAAaAAgABwAMAAAAEAAUABAAAAAAAAABHAAAAAAAiEEcAAAAAgAAAAAACgAIAAUABgAHAAoAAAAA/W///P///wQABAAEAAAACAAIAAYABwAIAAAAAAD9bw==</value>
								</parameter>
								<parameter authoringApp="PremierePro">
									<parameterid>2</parameterid>
									<name>トランスフォーム</name>
									<IsTimeVarying>false</IsTimeVarying>
									<ParameterControlType>11</ParameterControlType>
									<LowerBound>false</LowerBound>
									<UpperBound>false</UpperBound>
									<value>-91445760000000000,false,0,0,0,0,0,0</value>
								</parameter>
							</effect>
						</filter>
					</clipitem>
					<clipitem frameBlend="FALSE" id="clipitem-telop-29">
						<file id="file-2"/>
						<name>グラフィック</name>
						<rate>
							<timebase>59</timebase>
							<ntsc>TRUE</ntsc>
						</rate>
						<rate>
							<timebase>59</timebase>
							<ntsc>TRUE</ntsc>
						</rate>
						<duration>120</duration>
						<start>7493</start>
						<end>7613</end>
						<in>0</in>
						<out>120</out>
						<filter>
							<effect>
								<name></name>
								<effectid>GraphicAndType</effectid>
								<effectcategory>graphic</effectcategory>
								<effecttype>filter</effecttype>
								<mediatype>video</mediatype>
								<pproBypass>false</pproBypass>
								<parameter authoringApp="PremierePro">
									<parameterid>1</parameterid>
									<name>ソーステキスト</name>
									<hash>9da144c7-0b89-e7ae-5cc9-9e6c00000224</hash>
									<value>1AEAAAAAAABEMyIRDAAAAAAABgAKAAQABgAAAGQAAAAAAF4ASAAQAAwARABAADwAOAAAAAAAAAAAADQAMwAsAAAAKAAkACAAAAAAAAAAAAAAAAAAHAAAAAAAGgAAAAAAAAAUAAAAAAAAAAAAAAAAAAAAAAAAAAgAAAAAABsABwBeAAAAAAAAAUAAAABQAAAAbAAAAAIAAAAAAAEAAQAAAAAAQEEAAMBAAABAQAAAyEIAAAABIAAAAAIAAAACAAAAAAAQRACASkQA////BP///wj///8i////AAAAAAEAAAAEAAAAEQAAAEhHUFNvZWlLYWt1cG9wdGFpAAAAAQAAAAwAAAAIAAwABAAIAAgAAAAIAAAACgAAAAYAAADjga/jgYQAADQAIAAAABwAGAAAAAAAFwAQAAAAAAAAAAAAAAAAAAAAAAAAAAwAAAAAAAAACAAAAAQANAAAABwAAAAcAAAAHAAAAAAAcEEAAAABaAAAAB3/nkOw////tP///wEAAAAUAAAAEAAaAAgABwAMAAAAEAAUABAAAAAAAAABHAAAAAAAiEEcAAAAAgAAAAAACgAIAAUABgAHAAoAAAAA/W///P///wQABAAEAAAACAAIAAYABwAIAAAAAAD9bw==</value>
								</parameter>
								<parameter authoringApp="PremierePro">
									<parameterid>2</parameterid>
									<name>トランスフォーム</name>
									<IsTimeVarying>false</IsTimeVarying>
									<ParameterControlType>11</ParameterControlType>
									<LowerBound>false</LowerBound>
									<UpperBound>false</UpperBound>
									<value>-91445760000000000,false,0,0,0,0,0,0</value>
								</parameter>
							</effect>
						</filter>
					</clipitem>
					<clipitem frameBlend="FALSE" id="clipitem-telop-30">
						<file id="file-2"/>
						<name>グラフィック</name>
						<rate>
							<timebase>59</timebase>
							<ntsc>TRUE</ntsc>
						</rate>
						<rate>
							<timebase>59</timebase>
							<ntsc>TRUE</ntsc>
						</rate>
						<duration>180</duration>
						<start>7613</start>
						<end>7793</end>
						<in>0</in>
						<out>180</out>
						<filter>
							<effect>
								<name></name>
								<effectid>GraphicAndType</effectid>
								<effectcategory>graphic</effectcategory>
								<effecttype>filter</effecttype>
								<mediatype>video</mediatype>
								<pproBypass>false</pproBypass>
								<parameter authoringApp="PremierePro">
									<parameterid>1</parameterid>
									<name>ソーステキスト</name>
									<hash>9da144c7-0b89-e7ae-5cc9-9e6c00000224</hash>
									<value>1AEAAAAAAABEMyIRDAAAAAAABgAKAAQABgAAAGQAAAAAAF4ASAAQAAwARABAADwAOAAAAAAAAAAAADQAMwAsAAAAKAAkACAAAAAAAAAAAAAAAAAAHAAAAAAAGgAAAAAAAAAUAAAAAAAAAAAAAAAAAAAAAAAAAAgAAAAAABsABwBeAAAAAAAAAUAAAABQAAAAbAAAAAIAAAAAAAEAAQAAAAAAQEEAAMBAAABAQAAAyEIAAAABIAAAAAIAAAACAAAAAAAQRACASkQA////BP///wj///8i////AAAAAAEAAAAEAAAAEQAAAEhHUFNvZWlLYWt1cG9wdGFpAAAAAQAAAAwAAAAIAAwABAAIAAgAAAAIAAAALgAAACoAAADjgYrlrKLmp5jlpKflpInnlLPjgZfoqLPjgZTjgZbjgYTjgb7jgZvjgpMAADQAIAAAABwAGAAAAAAAFwAQAAAAAAAAAAAAAAAAAAAAAAAAAAwAAAAAAAAACAAAAAQANAAAABwAAAAcAAAAHAAAAAAAcEEAAAABaAAAAB3/nkOw////tP///wEAAAAUAAAAEAAaAAgABwAMAAAAEAAUABAAAAAAAAABHAAAAAAAiEEcAAAAAgAAAAAACgAIAAUABgAHAAoAAAAA/W///P///wQABAAEAAAACAAIAAYABwAIAAAAAAD9bw==</value>
								</parameter>
								<parameter authoringApp="PremierePro">
									<parameterid>2</parameterid>
									<name>トランスフォーム</name>
									<IsTimeVarying>false</IsTimeVarying>
									<ParameterControlType>11</ParameterControlType>
									<LowerBound>false</LowerBound>
									<UpperBound>false</UpperBound>
									<value>-91445760000000000,false,0,0,0,0,0,0</value>
								</parameter>
							</effect>
						</filter>
					</clipitem>
					<clipitem frameBlend="FALSE" id="clipitem-telop-31">
						<file id="file-2"/>
						<name>グラフィック</name>
						<rate>
							<timebase>59</timebase>
							<ntsc>TRUE</ntsc>
						</rate>
						<rate>
							<timebase>59</timebase>
							<ntsc>TRUE</ntsc>
						</rate>
						<duration>60</duration>
						<start>7793</start>
						<end>7853</end>
						<in>0</in>
						<out>60</out>
						<filter>
							<effect>
								<name></name>
								<effectid>GraphicAndType</effectid>
								<effectcategory>graphic</effectcategory>
								<effecttype>filter</effecttype>
								<mediatype>video</mediatype>
								<pproBypass>false</pproBypass>
								<parameter authoringApp="PremierePro">
									<parameterid>1</parameterid>
									<name>ソーステキスト</name>
									<hash>9da144c7-0b89-e7ae-5cc9-9e6c00000224</hash>
									<value>1AEAAAAAAABEMyIRDAAAAAAABgAKAAQABgAAAGQAAAAAAF4ASAAQAAwARABAADwAOAAAAAAAAAAAADQAMwAsAAAAKAAkACAAAAAAAAAAAAAAAAAAHAAAAAAAGgAAAAAAAAAUAAAAAAAAAAAAAAAAAAAAAAAAAAgAAAAAABsABwBeAAAAAAAAAUAAAABQAAAAbAAAAAIAAAAAAAEAAQAAAAAAQEEAAMBAAABAQAAAyEIAAAABIAAAAAIAAAACAAAAAAAQRACASkQA////BP///wj///8i////AAAAAAEAAAAEAAAAEQAAAEhHUFNvZWlLYWt1cG9wdGFpAAAAAQAAAAwAAAAIAAwABAAIAAgAAAAIAAAAHAAAABgAAADlo7DjgYzjgafjgYvjgYTjgafjgZnjgog0ACAAAAAcABgAAAAAABcAEAAAAAAAAAAAAAAAAAAAAAAAAAAMAAAAAAAAAAgAAAAEADQAAAAcAAAAHAAAABwAAAAAAHBBAAAAAWgAAAAd/55DsP///7T///8BAAAAFAAAABAAGgAIAAcADAAAABAAFAAQAAAAAAAAARwAAAAAAIhBHAAAAAIAAAAAAAoACAAFAAYABwAKAAAAAP1v//z///8EAAQABAAAAAgACAAGAAcACAAAAAAA/W8=</value>
								</parameter>
								<parameter authoringApp="PremierePro">
									<parameterid>2</parameterid>
									<name>トランスフォーム</name>
									<IsTimeVarying>false</IsTimeVarying>
									<ParameterControlType>11</ParameterControlType>
									<LowerBound>false</LowerBound>
									<UpperBound>false</UpperBound>
									<value>-91445760000000000,false,0,0,0,0,0,0</value>
								</parameter>
							</effect>
						</filter>
					</clipitem>
					<clipitem frameBlend="FALSE" id="clipitem-telop-32">
						<file id="file-2"/>
						<name>グラフィック</name>
						<rate>
							<timebase>59</timebase>
							<ntsc>TRUE</ntsc>
						</rate>
						<rate>
							<timebase>59</timebase>
							<ntsc>TRUE</ntsc>
						</rate>
						<duration>180</duration>
						<start>7853</start>
						<end>8033</end>
						<in>0</in>
						<out>180</out>
						<filter>
							<effect>
								<name></name>
								<effectid>GraphicAndType</effectid>
								<effectcategory>graphic</effectcategory>
								<effecttype>filter</effecttype>
								<mediatype>video</mediatype>
								<pproBypass>false</pproBypass>
								<parameter authoringApp="PremierePro">
									<parameterid>1</parameterid>
									<name>ソーステキスト</name>
									<hash>9da144c7-0b89-e7ae-5cc9-9e6c00000224</hash>
									<value>1AEAAAAAAABEMyIRDAAAAAAABgAKAAQABgAAAGQAAAAAAF4ASAAQAAwARABAADwAOAAAAAAAAAAAADQAMwAsAAAAKAAkACAAAAAAAAAAAAAAAAAAHAAAAAAAGgAAAAAAAAAUAAAAAAAAAAAAAAAAAAAAAAAAAAgAAAAAABsABwBeAAAAAAAAAUAAAABQAAAAbAAAAAIAAAAAAAEAAQAAAAAAQEEAAMBAAABAQAAAyEIAAAABIAAAAAIAAAACAAAAAAAQRACASkQA////BP///wj///8i////AAAAAAEAAAAEAAAAEQAAAEhHUFNvZWlLYWt1cG9wdGFpAAAAAQAAAAwAAAAIAAwABAAIAAgAAAAIAAAAOgAAADYAAADliIbjgYvjgaPjgZ/jgaTjgoLjgorjgovjgY/pnZnjgYvjgavllovjgovjga3jgZjjgoPjgYIAADQAIAAAABwAGAAAAAAAFwAQAAAAAAAAAAAAAAAAAAAAAAAAAAwAAAAAAAAACAAAAAQANAAAABwAAAAcAAAAHAAAAAAAcEEAAAABaAAAAB3/nkOw////tP///wEAAAAUAAAAEAAaAAgABwAMAAAAEAAUABAAAAAAAAABHAAAAAAAiEEcAAAAAgAAAAAACgAIAAUABgAHAAoAAAAA/W///P///wQABAAEAAAACAAIAAYABwAIAAAAAAD9bw==</value>
								</parameter>
								<parameter authoringApp="PremierePro">
									<parameterid>2</parameterid>
									<name>トランスフォーム</name>
									<IsTimeVarying>false</IsTimeVarying>
									<ParameterControlType>11</ParameterControlType>
									<LowerBound>false</LowerBound>
									<UpperBound>false</UpperBound>
									<value>-91445760000000000,false,0,0,0,0,0,0</value>
								</parameter>
							</effect>
						</filter>
					</clipitem>
					<clipitem frameBlend="FALSE" id="clipitem-telop-33">
						<file id="file-2"/>
						<name>グラフィック</name>
						<rate>
							<timebase>59</timebase>
							<ntsc>TRUE</ntsc>
						</rate>
						<rate>
							<timebase>59</timebase>
							<ntsc>TRUE</ntsc>
						</rate>
						<duration>120</duration>
						<start>8033</start>
						<end>8153</end>
						<in>0</in>
						<out>120</out>
						<filter>
							<effect>
								<name></name>
								<effectid>GraphicAndType</effectid>
								<effectcategory>graphic</effectcategory>
								<effecttype>filter</effecttype>
								<mediatype>video</mediatype>
								<pproBypass>false</pproBypass>
								<parameter authoringApp="PremierePro">
									<parameterid>1</parameterid>
									<name>ソーステキスト</name>
									<hash>9da144c7-0b89-e7ae-5cc9-9e6c00000224</hash>
									<value>1AEAAAAAAABEMyIRDAAAAAAABgAKAAQABgAAAGQAAAAAAF4ASAAQAAwARABAADwAOAAAAAAAAAAAADQAMwAsAAAAKAAkACAAAAAAAAAAAAAAAAAAHAAAAAAAGgAAAAAAAAAUAAAAAAAAAAAAAAAAAAAAAAAAAAgAAAAAABsABwBeAAAAAAAAAUAAAABQAAAAbAAAAAIAAAAAAAEAAQAAAAAAQEEAAMBAAABAQAAAyEIAAAABIAAAAAIAAAACAAAAAAAQRACASkQA////BP///wj///8i////AAAAAAEAAAAEAAAAEQAAAEhHUFNvZWlLYWt1cG9wdGFpAAAAAQAAAAwAAAAIAAwABAAIAAgAAAAIAAAAEwAAAA8AAADjgZnjgYTjgb7jgZvjgpMANAAgAAAAHAAYAAAAAAAXABAAAAAAAAAAAAAAAAAAAAAAAAAADAAAAAAAAAAIAAAABAA0AAAAHAAAABwAAAAcAAAAAABwQQAAAAFoAAAAHf+eQ7D///+0////AQAAABQAAAAQABoACAAHAAwAAAAQABQAEAAAAAAAAAEcAAAAAACIQRwAAAACAAAAAAAKAAgABQAGAAcACgAAAAD9b//8////BAAEAAQAAAAIAAgABgAHAAgAAAAAAP1v</value>
								</parameter>
								<parameter authoringApp="PremierePro">
									<parameterid>2</parameterid>
									<name>トランスフォーム</name>
									<IsTimeVarying>false</IsTimeVarying>
									<ParameterControlType>11</ParameterControlType>
									<LowerBound>false</LowerBound>
									<UpperBound>false</UpperBound>
									<value>-91445760000000000,false,0,0,0,0,0,0</value>
								</parameter>
							</effect>
						</filter>
					</clipitem>
					<clipitem frameBlend="FALSE" id="clipitem-telop-34">
						<file id="file-2"/>
						<name>グラフィック</name>
						<rate>
							<timebase>59</timebase>
							<ntsc>TRUE</ntsc>
						</rate>
						<rate>
							<timebase>59</timebase>
							<ntsc>TRUE</ntsc>
						</rate>
						<duration>179</duration>
						<start>8153</start>
						<end>8332</end>
						<in>0</in>
						<out>179</out>
						<filter>
							<effect>
								<name></name>
								<effectid>GraphicAndType</effectid>
								<effectcategory>graphic</effectcategory>
								<effecttype>filter</effecttype>
								<mediatype>video</mediatype>
								<pproBypass>false</pproBypass>
								<parameter authoringApp="PremierePro">
									<parameterid>1</parameterid>
									<name>ソーステキスト</name>
									<hash>9da144c7-0b89-e7ae-5cc9-9e6c00000224</hash>
									<value>1AEAAAAAAABEMyIRDAAAAAAABgAKAAQABgAAAGQAAAAAAF4ASAAQAAwARABAADwAOAAAAAAAAAAAADQAMwAsAAAAKAAkACAAAAAAAAAAAAAAAAAAHAAAAAAAGgAAAAAAAAAUAAAAAAAAAAAAAAAAAAAAAAAAAAgAAAAAABsABwBeAAAAAAAAAUAAAABQAAAAbAAAAAIAAAAAAAEAAQAAAAAAQEEAAMBAAABAQAAAyEIAAAABIAAAAAIAAAACAAAAAAAQRACASkQA////BP///wj///8i////AAAAAAEAAAAEAAAAEQAAAEhHUFNvZWlLYWt1cG9wdGFpAAAAAQAAAAwAAAAIAAwABAAIAAgAAAAIAAAAKAAAACQAAADjgZPjgpPjgarjgavlhKrjgZfjgYTjgYrlrKLmp5jjgaDjgao0ACAAAAAcABgAAAAAABcAEAAAAAAAAAAAAAAAAAAAAAAAAAAMAAAAAAAAAAgAAAAEADQAAAAcAAAAHAAAABwAAAAAAHBBAAAAAWgAAAAd/55DsP///7T///8BAAAAFAAAABAAGgAIAAcADAAAABAAFAAQAAAAAAAAARwAAAAAAIhBHAAAAAIAAAAAAAoACAAFAAYABwAKAAAAAP1v//z///8EAAQABAAAAAgACAAGAAcACAAAAAAA/W8=</value>
								</parameter>
								<parameter authoringApp="PremierePro">
									<parameterid>2</parameterid>
									<name>トランスフォーム</name>
									<IsTimeVarying>false</IsTimeVarying>
									<ParameterControlType>11</ParameterControlType>
									<LowerBound>false</LowerBound>
									<UpperBound>false</UpperBound>
									<value>-91445760000000000,false,0,0,0,0,0,0</value>
								</parameter>
							</effect>
						</filter>
					</clipitem>
					<clipitem frameBlend="FALSE" id="clipitem-telop-35">
						<file id="file-2"/>
						<name>グラフィック</name>
						<rate>
							<timebase>59</timebase>
							<ntsc>TRUE</ntsc>
						</rate>
						<rate>
							<timebase>59</timebase>
							<ntsc>TRUE</ntsc>
						</rate>
						<duration>120</duration>
						<start>8452</start>
						<end>8572</end>
						<in>0</in>
						<out>120</out>
						<filter>
							<effect>
								<name></name>
								<effectid>GraphicAndType</effectid>
								<effectcategory>graphic</effectcategory>
								<effecttype>filter</effecttype>
								<mediatype>video</mediatype>
								<pproBypass>false</pproBypass>
								<parameter authoringApp="PremierePro">
									<parameterid>1</parameterid>
									<name>ソーステキスト</name>
									<hash>9da144c7-0b89-e7ae-5cc9-9e6c00000224</hash>
									<value>1AEAAAAAAABEMyIRDAAAAAAABgAKAAQABgAAAGQAAAAAAF4ASAAQAAwARABAADwAOAAAAAAAAAAAADQAMwAsAAAAKAAkACAAAAAAAAAAAAAAAAAAHAAAAAAAGgAAAAAAAAAUAAAAAAAAAAAAAAAAAAAAAAAAAAgAAAAAABsABwBeAAAAAAAAAUAAAABQAAAAbAAAAAIAAAAAAAEAAQAAAAAAQEEAAMBAAABAQAAAyEIAAAABIAAAAAIAAAACAAAAAAAQRACASkQA////BP///wj///8i////AAAAAAEAAAAEAAAAEQAAAEhHUFNvZWlLYWt1cG9wdGFpAAAAAQAAAAwAAAAIAAwABAAIAAgAAAAIAAAAJQAAACEAAADml6njgY/jgYrluqfjgorjgavkuZfjgonjgozjgabjga8AAAA0ACAAAAAcABgAAAAAABcAEAAAAAAAAAAAAAAAAAAAAAAAAAAMAAAAAAAAAAgAAAAEADQAAAAcAAAAHAAAABwAAAAAAHBBAAAAAWgAAAAd/55DsP///7T///8BAAAAFAAAABAAGgAIAAcADAAAABAAFAAQAAAAAAAAARwAAAAAAIhBHAAAAAIAAAAAAAoACAAFAAYABwAKAAAAAP1v//z///8EAAQABAAAAAgACAAGAAcACAAAAAAA/W8=</value>
								</parameter>
								<parameter authoringApp="PremierePro">
									<parameterid>2</parameterid>
									<name>トランスフォーム</name>
									<IsTimeVarying>false</IsTimeVarying>
									<ParameterControlType>11</ParameterControlType>
									<LowerBound>false</LowerBound>
									<UpperBound>false</UpperBound>
									<value>-91445760000000000,false,0,0,0,0,0,0</value>
								</parameter>
							</effect>
						</filter>
					</clipitem>
					<clipitem frameBlend="FALSE" id="clipitem-telop-36">
						<file id="file-2"/>
						<name>グラフィック</name>
						<rate>
							<timebase>59</timebase>
							<ntsc>TRUE</ntsc>
						</rate>
						<rate>
							<timebase>59</timebase>
							<ntsc>TRUE</ntsc>
						</rate>
						<duration>60</duration>
						<start>8572</start>
						<end>8632</end>
						<in>0</in>
						<out>60</out>
						<filter>
							<effect>
								<name></name>
								<effectid>GraphicAndType</effectid>
								<effectcategory>graphic</effectcategory>
								<effecttype>filter</effecttype>
								<mediatype>video</mediatype>
								<pproBypass>false</pproBypass>
								<parameter authoringApp="PremierePro">
									<parameterid>1</parameterid>
									<name>ソーステキスト</name>
									<hash>9da144c7-0b89-e7ae-5cc9-9e6c00000224</hash>
									<value>1AEAAAAAAABEMyIRDAAAAAAABgAKAAQABgAAAGQAAAAAAF4ASAAQAAwARABAADwAOAAAAAAAAAAAADQAMwAsAAAAKAAkACAAAAAAAAAAAAAAAAAAHAAAAAAAGgAAAAAAAAAUAAAAAAAAAAAAAAAAAAAAAAAAAAgAAAAAABsABwBeAAAAAAAAAUAAAABQAAAAbAAAAAIAAAAAAAEAAQAAAAAAQEEAAMBAAABAQAAAyEIAAAABIAAAAAIAAAACAAAAAAAQRACASkQA////BP///wj///8i////AAAAAAEAAAAEAAAAEQAAAEhHUFNvZWlLYWt1cG9wdGFpAAAAAQAAAAwAAAAIAAwABAAIAAgAAAAIAAAAIwAAAB8AAADjgYLjgZPjgZPjgavluqfjgaPjgabjgYTjgYTjga4/ADQAIAAAABwAGAAAAAAAFwAQAAAAAAAAAAAAAAAAAAAAAAAAAAwAAAAAAAAACAAAAAQANAAAABwAAAAcAAAAHAAAAAAAcEEAAAABaAAAAB3/nkOw////tP///wEAAAAUAAAAEAAaAAgABwAMAAAAEAAUABAAAAAAAAABHAAAAAAAiEEcAAAAAgAAAAAACgAIAAUABgAHAAoAAAAA/W///P///wQABAAEAAAACAAIAAYABwAIAAAAAAD9bw==</value>
								</parameter>
								<parameter authoringApp="PremierePro">
									<parameterid>2</parameterid>
									<name>トランスフォーム</name>
									<IsTimeVarying>false</IsTimeVarying>
									<ParameterControlType>11</ParameterControlType>
									<LowerBound>false</LowerBound>
									<UpperBound>false</UpperBound>
									<value>-91445760000000000,false,0,0,0,0,0,0</value>
								</parameter>
							</effect>
						</filter>
					</clipitem>
					<clipitem frameBlend="FALSE" id="clipitem-telop-37">
						<file id="file-2"/>
						<name>グラフィック</name>
						<rate>
							<timebase>59</timebase>
							<ntsc>TRUE</ntsc>
						</rate>
						<rate>
							<timebase>59</timebase>
							<ntsc>TRUE</ntsc>
						</rate>
						<duration>60</duration>
						<start>8632</start>
						<end>8692</end>
						<in>0</in>
						<out>60</out>
						<filter>
							<effect>
								<name></name>
								<effectid>GraphicAndType</effectid>
								<effectcategory>graphic</effectcategory>
								<effecttype>filter</effecttype>
								<mediatype>video</mediatype>
								<pproBypass>false</pproBypass>
								<parameter authoringApp="PremierePro">
									<parameterid>1</parameterid>
									<name>ソーステキスト</name>
									<hash>9da144c7-0b89-e7ae-5cc9-9e6c00000224</hash>
									<value>1AEAAAAAAABEMyIRDAAAAAAABgAKAAQABgAAAGQAAAAAAF4ASAAQAAwARABAADwAOAAAAAAAAAAAADQAMwAsAAAAKAAkACAAAAAAAAAAAAAAAAAAHAAAAAAAGgAAAAAAAAAUAAAAAAAAAAAAAAAAAAAAAAAAAAgAAAAAABsABwBeAAAAAAAAAUAAAABQAAAAbAAAAAIAAAAAAAEAAQAAAAAAQEEAAMBAAABAQAAAyEIAAAABIAAAAAIAAAACAAAAAAAQRACASkQA////BP///wj///8i////AAAAAAEAAAAEAAAAEQAAAEhHUFNvZWlLYWt1cG9wdGFpAAAAAQAAAAwAAAAIAAwABAAIAAgAAAAIAAAAEwAAAA8AAADjgYjjgoLjgaHjgo3jgpMANAAgAAAAHAAYAAAAAAAXABAAAAAAAAAAAAAAAAAAAAAAAAAADAAAAAAAAAAIAAAABAA0AAAAHAAAABwAAAAcAAAAAABwQQAAAAFoAAAAHf+eQ7D///+0////AQAAABQAAAAQABoACAAHAAwAAAAQABQAEAAAAAAAAAEcAAAAAACIQRwAAAACAAAAAAAKAAgABQAGAAcACgAAAAD9b//8////BAAEAAQAAAAIAAgABgAHAAgAAAAAAP1v</value>
								</parameter>
								<parameter authoringApp="PremierePro">
									<parameterid>2</parameterid>
									<name>トランスフォーム</name>
									<IsTimeVarying>false</IsTimeVarying>
									<ParameterControlType>11</ParameterControlType>
									<LowerBound>false</LowerBound>
									<UpperBound>false</UpperBound>
									<value>-91445760000000000,false,0,0,0,0,0,0</value>
								</parameter>
							</effect>
						</filter>
					</clipitem>
					<clipitem frameBlend="FALSE" id="clipitem-telop-38">
						<file id="file-2"/>
						<name>グラフィック</name>
						<rate>
							<timebase>59</timebase>
							<ntsc>TRUE</ntsc>
						</rate>
						<rate>
							<timebase>59</timebase>
							<ntsc>TRUE</ntsc>
						</rate>
						<duration>120</duration>
						<start>8692</start>
						<end>8812</end>
						<in>0</in>
						<out>120</out>
						<filter>
							<effect>
								<name></name>
								<effectid>GraphicAndType</effectid>
								<effectcategory>graphic</effectcategory>
								<effecttype>filter</effecttype>
								<mediatype>video</mediatype>
								<pproBypass>false</pproBypass>
								<parameter authoringApp="PremierePro">
									<parameterid>1</parameterid>
									<name>ソーステキスト</name>
									<hash>9da144c7-0b89-e7ae-5cc9-9e6c00000224</hash>
									<value>1AEAAAAAAABEMyIRDAAAAAAABgAKAAQABgAAAGQAAAAAAF4ASAAQAAwARABAADwAOAAAAAAAAAAAADQAMwAsAAAAKAAkACAAAAAAAAAAAAAAAAAAHAAAAAAAGgAAAAAAAAAUAAAAAAAAAAAAAAAAAAAAAAAAAAgAAAAAABsABwBeAAAAAAAAAUAAAABQAAAAbAAAAAIAAAAAAAEAAQAAAAAAQEEAAMBAAABAQAAAyEIAAAABIAAAAAIAAAACAAAAAAAQRACASkQA////BP///wj///8i////AAAAAAEAAAAEAAAAEQAAAEhHUFNvZWlLYWt1cG9wdGFpAAAAAQAAAAwAAAAIAAwABAAIAAgAAAAIAAAAHAAAABgAAADjgYbjgpPjgYLjgZPjgZPjgavluqfjgos0ACAAAAAcABgAAAAAABcAEAAAAAAAAAAAAAAAAAAAAAAAAAAMAAAAAAAAAAgAAAAEADQAAAAcAAAAHAAAABwAAAAAAHBBAAAAAWgAAAAd/55DsP///7T///8BAAAAFAAAABAAGgAIAAcADAAAABAAFAAQAAAAAAAAARwAAAAAAIhBHAAAAAIAAAAAAAoACAAFAAYABwAKAAAAAP1v//z///8EAAQABAAAAAgACAAGAAcACAAAAAAA/W8=</value>
								</parameter>
								<parameter authoringApp="PremierePro">
									<parameterid>2</parameterid>
									<name>トランスフォーム</name>
									<IsTimeVarying>false</IsTimeVarying>
									<ParameterControlType>11</ParameterControlType>
									<LowerBound>false</LowerBound>
									<UpperBound>false</UpperBound>
									<value>-91445760000000000,false,0,0,0,0,0,0</value>
								</parameter>
							</effect>
						</filter>
					</clipitem>
					<clipitem frameBlend="FALSE" id="clipitem-telop-39">
						<file id="file-2"/>
						<name>グラフィック</name>
						<rate>
							<timebase>59</timebase>
							<ntsc>TRUE</ntsc>
						</rate>
						<rate>
							<timebase>59</timebase>
							<ntsc>TRUE</ntsc>
						</rate>
						<duration>180</duration>
						<start>8812</start>
						<end>8992</end>
						<in>0</in>
						<out>180</out>
						<filter>
							<effect>
								<name></name>
								<effectid>GraphicAndType</effectid>
								<effectcategory>graphic</effectcategory>
								<effecttype>filter</effecttype>
								<mediatype>video</mediatype>
								<pproBypass>false</pproBypass>
								<parameter authoringApp="PremierePro">
									<parameterid>1</parameterid>
									<name>ソーステキスト</name>
									<hash>9da144c7-0b89-e7ae-5cc9-9e6c00000224</hash>
									<value>1AEAAAAAAABEMyIRDAAAAAAABgAKAAQABgAAAGQAAAAAAF4ASAAQAAwARABAADwAOAAAAAAAAAAAADQAMwAsAAAAKAAkACAAAAAAAAAAAAAAAAAAHAAAAAAAGgAAAAAAAAAUAAAAAAAAAAAAAAAAAAAAAAAAAAgAAAAAABsABwBeAAAAAAAAAUAAAABQAAAAbAAAAAIAAAAAAAEAAQAAAAAAQEEAAMBAAABAQAAAyEIAAAABIAAAAAIAAAACAAAAAAAQRACASkQA////BP///wj///8i////AAAAAAEAAAAEAAAAEQAAAEhHUFNvZWlLYWt1cG9wdGFpAAAAAQAAAAwAAAAIAAwABAAIAAgAAAAIAAAAJQAAACEAAADlhYjjgbvjganjga7jgYroqbHjgavmiLvjgorjgb7jgZkAAAA0ACAAAAAcABgAAAAAABcAEAAAAAAAAAAAAAAAAAAAAAAAAAAMAAAAAAAAAAgAAAAEADQAAAAcAAAAHAAAABwAAAAAAHBBAAAAAWgAAAAd/55DsP///7T///8BAAAAFAAAABAAGgAIAAcADAAAABAAFAAQAAAAAAAAARwAAAAAAIhBHAAAAAIAAAAAAAoACAAFAAYABwAKAAAAAP1v//z///8EAAQABAAAAAgACAAGAAcACAAAAAAA/W8=</value>
								</parameter>
								<parameter authoringApp="PremierePro">
									<parameterid>2</parameterid>
									<name>トランスフォーム</name>
									<IsTimeVarying>false</IsTimeVarying>
									<ParameterControlType>11</ParameterControlType>
									<LowerBound>false</LowerBound>
									<UpperBound>false</UpperBound>
									<value>-91445760000000000,false,0,0,0,0,0,0</value>
								</parameter>
							</effect>
						</filter>
					</clipitem>
					<clipitem frameBlend="FALSE" id="clipitem-telop-40">
						<file id="file-2"/>
						<name>グラフィック</name>
						<rate>
							<timebase>59</timebase>
							<ntsc>TRUE</ntsc>
						</rate>
						<rate>
							<timebase>59</timebase>
							<ntsc>TRUE</ntsc>
						</rate>
						<duration>120</duration>
						<start>8992</start>
						<end>9112</end>
						<in>0</in>
						<out>120</out>
						<filter>
							<effect>
								<name></name>
								<effectid>GraphicAndType</effectid>
								<effectcategory>graphic</effectcategory>
								<effecttype>filter</effecttype>
								<mediatype>video</mediatype>
								<pproBypass>false</pproBypass>
								<parameter authoringApp="PremierePro">
									<parameterid>1</parameterid>
									<name>ソーステキスト</name>
									<hash>9da144c7-0b89-e7ae-5cc9-9e6c00000224</hash>
									<value>1AEAAAAAAABEMyIRDAAAAAAABgAKAAQABgAAAGQAAAAAAF4ASAAQAAwARABAADwAOAAAAAAAAAAAADQAMwAsAAAAKAAkACAAAAAAAAAAAAAAAAAAHAAAAAAAGgAAAAAAAAAUAAAAAAAAAAAAAAAAAAAAAAAAAAgAAAAAABsABwBeAAAAAAAAAUAAAABQAAAAbAAAAAIAAAAAAAEAAQAAAAAAQEEAAMBAAABAQAAAyEIAAAABIAAAAAIAAAACAAAAAAAQRACASkQA////BP///wj///8i////AAAAAAEAAAAEAAAAEQAAAEhHUFNvZWlLYWt1cG9wdGFpAAAAAQAAAAwAAAAIAAwABAAIAAgAAAAIAAAANAAAADAAAADkvZXjgYvjgYrlm7DjgorkuovjgafjgoLjgYLjgovjga7jgafjgZfjgofjgYbjgYs0ACAAAAAcABgAAAAAABcAEAAAAAAAAAAAAAAAAAAAAAAAAAAMAAAAAAAAAAgAAAAEADQAAAAcAAAAHAAAABwAAAAAAHBBAAAAAWgAAAAd/55DsP///7T///8BAAAAFAAAABAAGgAIAAcADAAAABAAFAAQAAAAAAAAARwAAAAAAIhBHAAAAAIAAAAAAAoACAAFAAYABwAKAAAAAP1v//z///8EAAQABAAAAAgACAAGAAcACAAAAAAA/W8=</value>
								</parameter>
								<parameter authoringApp="PremierePro">
									<parameterid>2</parameterid>
									<name>トランスフォーム</name>
									<IsTimeVarying>false</IsTimeVarying>
									<ParameterControlType>11</ParameterControlType>
									<LowerBound>false</LowerBound>
									<UpperBound>false</UpperBound>
									<value>-91445760000000000,false,0,0,0,0,0,0</value>
								</parameter>
							</effect>
						</filter>
					</clipitem>
					<clipitem frameBlend="FALSE" id="clipitem-telop-41">
						<file id="file-2"/>
						<name>グラフィック</name>
						<rate>
							<timebase>59</timebase>
							<ntsc>TRUE</ntsc>
						</rate>
						<rate>
							<timebase>59</timebase>
							<ntsc>TRUE</ntsc>
						</rate>
						<duration>60</duration>
						<start>9112</start>
						<end>9172</end>
						<in>0</in>
						<out>60</out>
						<filter>
							<effect>
								<name></name>
								<effectid>GraphicAndType</effectid>
								<effectcategory>graphic</effectcategory>
								<effecttype>filter</effecttype>
								<mediatype>video</mediatype>
								<pproBypass>false</pproBypass>
								<parameter authoringApp="PremierePro">
									<parameterid>1</parameterid>
									<name>ソーステキスト</name>
									<hash>9da144c7-0b89-e7ae-5cc9-9e6c00000224</hash>
									<value>1AEAAAAAAABEMyIRDAAAAAAABgAKAAQABgAAAGQAAAAAAF4ASAAQAAwARABAADwAOAAAAAAAAAAAADQAMwAsAAAAKAAkACAAAAAAAAAAAAAAAAAAHAAAAAAAGgAAAAAAAAAUAAAAAAAAAAAAAAAAAAAAAAAAAAgAAAAAABsABwBeAAAAAAAAAUAAAABQAAAAbAAAAAIAAAAAAAEAAQAAAAAAQEEAAMBAAABAQAAAyEIAAAABIAAAAAIAAAACAAAAAAAQRACASkQA////BP///wj///8i////AAAAAAEAAAAEAAAAEQAAAEhHUFNvZWlLYWt1cG9wdGFpAAAAAQAAAAwAAAAIAAwABAAIAAgAAAAIAAAAKAAAACQAAADjgqzjg4Hjg6Pjgqzjg4Hjg6Pjgqzjg4Hjg6Pjgqzjg4Hjg6M0ACAAAAAcABgAAAAAABcAEAAAAAAAAAAAAAAAAAAAAAAAAAAMAAAAAAAAAAgAAAAEADQAAAAcAAAAHAAAABwAAAAAAHBBAAAAAWgAAAAd/55DsP///7T///8BAAAAFAAAABAAGgAIAAcADAAAABAAFAAQAAAAAAAAARwAAAAAAIhBHAAAAAIAAAAAAAoACAAFAAYABwAKAAAAAP1v//z///8EAAQABAAAAAgACAAGAAcACAAAAAAA/W8=</value>
								</parameter>
								<parameter authoringApp="PremierePro">
									<parameterid>2</parameterid>
									<name>トランスフォーム</name>
									<IsTimeVarying>false</IsTimeVarying>
									<ParameterControlType>11</ParameterControlType>
									<LowerBound>false</LowerBound>
									<UpperBound>false</UpperBound>
									<value>-91445760000000000,false,0,0,0,0,0,0</value>
								</parameter>
							</effect>
						</filter>
					</clipitem>
					<clipitem frameBlend="FALSE" id="clipitem-telop-42">
						<file id="file-2"/>
						<name>グラフィック</name>
						<rate>
							<timebase>59</timebase>
							<ntsc>TRUE</ntsc>
						</rate>
						<rate>
							<timebase>59</timebase>
							<ntsc>TRUE</ntsc>
						</rate>
						<duration>180</duration>
						<start>9232</start>
						<end>9412</end>
						<in>0</in>
						<out>180</out>
						<filter>
							<effect>
								<name></name>
								<effectid>GraphicAndType</effectid>
								<effectcategory>graphic</effectcategory>
								<effecttype>filter</effecttype>
								<mediatype>video</mediatype>
								<pproBypass>false</pproBypass>
								<parameter authoringApp="PremierePro">
									<parameterid>1</parameterid>
									<name>ソーステキスト</name>
									<hash>9da144c7-0b89-e7ae-5cc9-9e6c00000224</hash>
									<value>1AEAAAAAAABEMyIRDAAAAAAABgAKAAQABgAAAGQAAAAAAF4ASAAQAAwARABAADwAOAAAAAAAAAAAADQAMwAsAAAAKAAkACAAAAAAAAAAAAAAAAAAHAAAAAAAGgAAAAAAAAAUAAAAAAAAAAAAAAAAAAAAAAAAAAgAAAAAABsABwBeAAAAAAAAAUAAAABQAAAAbAAAAAIAAAAAAAEAAQAAAAAAQEEAAMBAAABAQAAAyEIAAAABIAAAAAIAAAACAAAAAAAQRACASkQA////BP///wj///8i////AAAAAAEAAAAEAAAAEQAAAEhHUFNvZWlLYWt1cG9wdGFpAAAAAQAAAAwAAAAIAAwABAAIAAgAAAAIAAAANAAAADAAAADjgZjjgoPjgYLjgZPjgZPjgafjgoTjgonjgarjgYTjgafjgY/jgaDjgZXjgYTjga00ACAAAAAcABgAAAAAABcAEAAAAAAAAAAAAAAAAAAAAAAAAAAMAAAAAAAAAAgAAAAEADQAAAAcAAAAHAAAABwAAAAAAHBBAAAAAWgAAAAd/55DsP///7T///8BAAAAFAAAABAAGgAIAAcADAAAABAAFAAQAAAAAAAAARwAAAAAAIhBHAAAAAIAAAAAAAoACAAFAAYABwAKAAAAAP1v//z///8EAAQABAAAAAgACAAGAAcACAAAAAAA/W8=</value>
								</parameter>
								<parameter authoringApp="PremierePro">
									<parameterid>2</parameterid>
									<name>トランスフォーム</name>
									<IsTimeVarying>false</IsTimeVarying>
									<ParameterControlType>11</ParameterControlType>
									<LowerBound>false</LowerBound>
									<UpperBound>false</UpperBound>
									<value>-91445760000000000,false,0,0,0,0,0,0</value>
								</parameter>
							</effect>
						</filter>
					</clipitem>
					<clipitem frameBlend="FALSE" id="clipitem-telop-43">
						<file id="file-2"/>
						<name>グラフィック</name>
						<rate>
							<timebase>59</timebase>
							<ntsc>TRUE</ntsc>
						</rate>
						<rate>
							<timebase>59</timebase>
							<ntsc>TRUE</ntsc>
						</rate>
						<duration>60</duration>
						<start>9412</start>
						<end>9472</end>
						<in>0</in>
						<out>60</out>
						<filter>
							<effect>
								<name></name>
								<effectid>GraphicAndType</effectid>
								<effectcategory>graphic</effectcategory>
								<effecttype>filter</effecttype>
								<mediatype>video</mediatype>
								<pproBypass>false</pproBypass>
								<parameter authoringApp="PremierePro">
									<parameterid>1</parameterid>
									<name>ソーステキスト</name>
									<hash>9da144c7-0b89-e7ae-5cc9-9e6c00000224</hash>
									<value>1AEAAAAAAABEMyIRDAAAAAAABgAKAAQABgAAAGQAAAAAAF4ASAAQAAwARABAADwAOAAAAAAAAAAAADQAMwAsAAAAKAAkACAAAAAAAAAAAAAAAAAAHAAAAAAAGgAAAAAAAAAUAAAAAAAAAAAAAAAAAAAAAAAAAAgAAAAAABsABwBeAAAAAAAAAUAAAABQAAAAbAAAAAIAAAAAAAEAAQAAAAAAQEEAAMBAAABAQAAAyEIAAAABIAAAAAIAAAACAAAAAAAQRACASkQA////BP///wj///8i////AAAAAAEAAAAEAAAAEQAAAEhHUFNvZWlLYWt1cG9wdGFpAAAAAQAAAAwAAAAIAAwABAAIAAgAAAAIAAAADQAAAAkAAADjgYbjgpPjga0AAAA0ACAAAAAcABgAAAAAABcAEAAAAAAAAAAAAAAAAAAAAAAAAAAMAAAAAAAAAAgAAAAEADQAAAAcAAAAHAAAABwAAAAAAHBBAAAAAWgAAAAd/55DsP///7T///8BAAAAFAAAABAAGgAIAAcADAAAABAAFAAQAAAAAAAAARwAAAAAAIhBHAAAAAIAAAAAAAoACAAFAAYABwAKAAAAAP1v//z///8EAAQABAAAAAgACAAGAAcACAAAAAAA/W8=</value>
								</parameter>
								<parameter authoringApp="PremierePro">
									<parameterid>2</parameterid>
									<name>トランスフォーム</name>
									<IsTimeVarying>false</IsTimeVarying>
									<ParameterControlType>11</ParameterControlType>
									<LowerBound>false</LowerBound>
									<UpperBound>false</UpperBound>
									<value>-91445760000000000,false,0,0,0,0,0,0</value>
								</parameter>
							</effect>
						</filter>
					</clipitem>
					<clipitem frameBlend="FALSE" id="clipitem-telop-44">
						<file id="file-2"/>
						<name>グラフィック</name>
						<rate>
							<timebase>59</timebase>
							<ntsc>TRUE</ntsc>
						</rate>
						<rate>
							<timebase>59</timebase>
							<ntsc>TRUE</ntsc>
						</rate>
						<duration>60</duration>
						<start>9472</start>
						<end>9532</end>
						<in>0</in>
						<out>60</out>
						<filter>
							<effect>
								<name></name>
								<effectid>GraphicAndType</effectid>
								<effectcategory>graphic</effectcategory>
								<effecttype>filter</effecttype>
								<mediatype>video</mediatype>
								<pproBypass>false</pproBypass>
								<parameter authoringApp="PremierePro">
									<parameterid>1</parameterid>
									<name>ソーステキスト</name>
									<hash>9da144c7-0b89-e7ae-5cc9-9e6c00000224</hash>
									<value>1AEAAAAAAABEMyIRDAAAAAAABgAKAAQABgAAAGQAAAAAAF4ASAAQAAwARABAADwAOAAAAAAAAAAAADQAMwAsAAAAKAAkACAAAAAAAAAAAAAAAAAAHAAAAAAAGgAAAAAAAAAUAAAAAAAAAAAAAAAAAAAAAAAAAAgAAAAAABsABwBeAAAAAAAAAUAAAABQAAAAbAAAAAIAAAAAAAEAAQAAAAAAQEEAAMBAAABAQAAAyEIAAAABIAAAAAIAAAACAAAAAAAQRACASkQA////BP///wj///8i////AAAAAAEAAAAEAAAAEQAAAEhHUFNvZWlLYWt1cG9wdGFpAAAAAQAAAAwAAAAIAAwABAAIAAgAAAAIAAAAFgAAABIAAADjg5/jg6vjgq/jgYrlrKLmp5gAADQAIAAAABwAGAAAAAAAFwAQAAAAAAAAAAAAAAAAAAAAAAAAAAwAAAAAAAAACAAAAAQANAAAABwAAAAcAAAAHAAAAAAAcEEAAAABaAAAAB3/nkOw////tP///wEAAAAUAAAAEAAaAAgABwAMAAAAEAAUABAAAAAAAAABHAAAAAAAiEEcAAAAAgAAAAAACgAIAAUABgAHAAoAAAAA/W///P///wQABAAEAAAACAAIAAYABwAIAAAAAAD9bw==</value>
								</parameter>
								<parameter authoringApp="PremierePro">
									<parameterid>2</parameterid>
									<name>トランスフォーム</name>
									<IsTimeVarying>false</IsTimeVarying>
									<ParameterControlType>11</ParameterControlType>
									<LowerBound>false</LowerBound>
									<UpperBound>false</UpperBound>
									<value>-91445760000000000,false,0,0,0,0,0,0</value>
								</parameter>
							</effect>
						</filter>
					</clipitem>
					<clipitem frameBlend="FALSE" id="clipitem-telop-45">
						<file id="file-2"/>
						<name>グラフィック</name>
						<rate>
							<timebase>59</timebase>
							<ntsc>TRUE</ntsc>
						</rate>
						<rate>
							<timebase>59</timebase>
							<ntsc>TRUE</ntsc>
						</rate>
						<duration>60</duration>
						<start>9532</start>
						<end>9592</end>
						<in>0</in>
						<out>60</out>
						<filter>
							<effect>
								<name></name>
								<effectid>GraphicAndType</effectid>
								<effectcategory>graphic</effectcategory>
								<effecttype>filter</effecttype>
								<mediatype>video</mediatype>
								<pproBypass>false</pproBypass>
								<parameter authoringApp="PremierePro">
									<parameterid>1</parameterid>
									<name>ソーステキスト</name>
									<hash>9da144c7-0b89-e7ae-5cc9-9e6c00000224</hash>
									<value>1AEAAAAAAABEMyIRDAAAAAAABgAKAAQABgAAAGQAAAAAAF4ASAAQAAwARABAADwAOAAAAAAAAAAAADQAMwAsAAAAKAAkACAAAAAAAAAAAAAAAAAAHAAAAAAAGgAAAAAAAAAUAAAAAAAAAAAAAAAAAAAAAAAAAAgAAAAAABsABwBeAAAAAAAAAUAAAABQAAAAbAAAAAIAAAAAAAEAAQAAAAAAQEEAAMBAAABAQAAAyEIAAAABIAAAAAIAAAACAAAAAAAQRACASkQA////BP///wj///8i////AAAAAAEAAAAEAAAAEQAAAEhHUFNvZWlLYWt1cG9wdGFpAAAAAQAAAAwAAAAIAAwABAAIAAgAAAAIAAAACAAAAAQAAADkvZU/NAAgAAAAHAAYAAAAAAAXABAAAAAAAAAAAAAAAAAAAAAAAAAADAAAAAAAAAAIAAAABAA0AAAAHAAAABwAAAAcAAAAAABwQQAAAAFoAAAAHf+eQ7D///+0////AQAAABQAAAAQABoACAAHAAwAAAAQABQAEAAAAAAAAAEcAAAAAACIQRwAAAACAAAAAAAKAAgABQAGAAcACgAAAAD9b//8////BAAEAAQAAAAIAAgABgAHAAgAAAAAAP1v</value>
								</parameter>
								<parameter authoringApp="PremierePro">
									<parameterid>2</parameterid>
									<name>トランスフォーム</name>
									<IsTimeVarying>false</IsTimeVarying>
									<ParameterControlType>11</ParameterControlType>
									<LowerBound>false</LowerBound>
									<UpperBound>false</UpperBound>
									<value>-91445760000000000,false,0,0,0,0,0,0</value>
								</parameter>
							</effect>
						</filter>
					</clipitem>
					<clipitem frameBlend="FALSE" id="clipitem-telop-46">
						<file id="file-2"/>
						<name>グラフィック</name>
						<rate>
							<timebase>59</timebase>
							<ntsc>TRUE</ntsc>
						</rate>
						<rate>
							<timebase>59</timebase>
							<ntsc>TRUE</ntsc>
						</rate>
						<duration>120</duration>
						<start>9592</start>
						<end>9712</end>
						<in>0</in>
						<out>120</out>
						<filter>
							<effect>
								<name></name>
								<effectid>GraphicAndType</effectid>
								<effectcategory>graphic</effectcategory>
								<effecttype>filter</effecttype>
								<mediatype>video</mediatype>
								<pproBypass>false</pproBypass>
								<parameter authoringApp="PremierePro">
									<parameterid>1</parameterid>
									<name>ソーステキスト</name>
									<hash>9da144c7-0b89-e7ae-5cc9-9e6c00000224</hash>
									<value>1AEAAAAAAABEMyIRDAAAAAAABgAKAAQABgAAAGQAAAAAAF4ASAAQAAwARABAADwAOAAAAAAAAAAAADQAMwAsAAAAKAAkACAAAAAAAAAAAAAAAAAAHAAAAAAAGgAAAAAAAAAUAAAAAAAAAAAAAAAAAAAAAAAAAAgAAAAAABsABwBeAAAAAAAAAUAAAABQAAAAbAAAAAIAAAAAAAEAAQAAAAAAQEEAAMBAAABAQAAAyEIAAAABIAAAAAIAAAACAAAAAAAQRACASkQA////BP///wj///8i////AAAAAAEAAAAEAAAAEQAAAEhHUFNvZWlLYWt1cG9wdGFpAAAAAQAAAAwAAAAIAAwABAAIAAgAAAAIAAAALgAAACoAAADogbfloLTjgafjga7jgYroqbHogZ7jgYvjgZvjgabjgY/jgaDjgZXjgYQAADQAIAAAABwAGAAAAAAAFwAQAAAAAAAAAAAAAAAAAAAAAAAAAAwAAAAAAAAACAAAAAQANAAAABwAAAAcAAAAHAAAAAAAcEEAAAABaAAAAB3/nkOw////tP///wEAAAAUAAAAEAAaAAgABwAMAAAAEAAUABAAAAAAAAABHAAAAAAAiEEcAAAAAgAAAAAACgAIAAUABgAHAAoAAAAA/W///P///wQABAAEAAAACAAIAAYABwAIAAAAAAD9bw==</value>
								</parameter>
								<parameter authoringApp="PremierePro">
									<parameterid>2</parameterid>
									<name>トランスフォーム</name>
									<IsTimeVarying>false</IsTimeVarying>
									<ParameterControlType>11</ParameterControlType>
									<LowerBound>false</LowerBound>
									<UpperBound>false</UpperBound>
									<value>-91445760000000000,false,0,0,0,0,0,0</value>
								</parameter>
							</effect>
						</filter>
					</clipitem>
					<clipitem frameBlend="FALSE" id="clipitem-telop-47">
						<file id="file-2"/>
						<name>グラフィック</name>
						<rate>
							<timebase>59</timebase>
							<ntsc>TRUE</ntsc>
						</rate>
						<rate>
							<timebase>59</timebase>
							<ntsc>TRUE</ntsc>
						</rate>
						<duration>240</duration>
						<start>9712</start>
						<end>9952</end>
						<in>0</in>
						<out>240</out>
						<filter>
							<effect>
								<name></name>
								<effectid>GraphicAndType</effectid>
								<effectcategory>graphic</effectcategory>
								<effecttype>filter</effecttype>
								<mediatype>video</mediatype>
								<pproBypass>false</pproBypass>
								<parameter authoringApp="PremierePro">
									<parameterid>1</parameterid>
									<name>ソーステキスト</name>
									<hash>9da144c7-0b89-e7ae-5cc9-9e6c00000224</hash>
									<value>1AEAAAAAAABEMyIRDAAAAAAABgAKAAQABgAAAGQAAAAAAF4ASAAQAAwARABAADwAOAAAAAAAAAAAADQAMwAsAAAAKAAkACAAAAAAAAAAAAAAAAAAHAAAAAAAGgAAAAAAAAAUAAAAAAAAAAAAAAAAAAAAAAAAAAgAAAAAABsABwBeAAAAAAAAAUAAAABQAAAAbAAAAAIAAAAAAAEAAQAAAAAAQEEAAMBAAABAQAAAyEIAAAABIAAAAAIAAAACAAAAAAAQRACASkQA////BP///wj///8i////AAAAAAEAAAAEAAAAEQAAAEhHUFNvZWlLYWt1cG9wdGFpAAAAAQAAAAwAAAAIAAwABAAIAAgAAAAIAAAAPQAAADkAAADogbfloLTjga/jg5/jg6vjgq/jga7oqbHjga/jganjgYbjgafjgoLjgYTjgYTjgpPjgaDjgZHjgakAAAA0ACAAAAAcABgAAAAAABcAEAAAAAAAAAAAAAAAAAAAAAAAAAAMAAAAAAAAAAgAAAAEADQAAAAcAAAAHAAAABwAAAAAAHBBAAAAAWgAAAAd/55DsP///7T///8BAAAAFAAAABAAGgAIAAcADAAAABAAFAAQAAAAAAAAARwAAAAAAIhBHAAAAAIAAAAAAAoACAAFAAYABwAKAAAAAP1v//z///8EAAQABAAAAAgACAAGAAcACAAAAAAA/W8=</value>
								</parameter>
								<parameter authoringApp="PremierePro">
									<parameterid>2</parameterid>
									<name>トランスフォーム</name>
									<IsTimeVarying>false</IsTimeVarying>
									<ParameterControlType>11</ParameterControlType>
									<LowerBound>false</LowerBound>
									<UpperBound>false</UpperBound>
									<value>-91445760000000000,false,0,0,0,0,0,0</value>
								</parameter>
							</effect>
						</filter>
					</clipitem>
					<clipitem frameBlend="FALSE" id="clipitem-telop-48">
						<file id="file-2"/>
						<name>グラフィック</name>
						<rate>
							<timebase>59</timebase>
							<ntsc>TRUE</ntsc>
						</rate>
						<rate>
							<timebase>59</timebase>
							<ntsc>TRUE</ntsc>
						</rate>
						<duration>180</duration>
						<start>9952</start>
						<end>10132</end>
						<in>0</in>
						<out>180</out>
						<filter>
							<effect>
								<name></name>
								<effectid>GraphicAndType</effectid>
								<effectcategory>graphic</effectcategory>
								<effecttype>filter</effecttype>
								<mediatype>video</mediatype>
								<pproBypass>false</pproBypass>
								<parameter authoringApp="PremierePro">
									<parameterid>1</parameterid>
									<name>ソーステキスト</name>
									<hash>9da144c7-0b89-e7ae-5cc9-9e6c00000224</hash>
									<value>1AEAAAAAAABEMyIRDAAAAAAABgAKAAQABgAAAGQAAAAAAF4ASAAQAAwARABAADwAOAAAAAAAAAAAADQAMwAsAAAAKAAkACAAAAAAAAAAAAAAAAAAHAAAAAAAGgAAAAAAAAAUAAAAAAAAAAAAAAAAAAAAAAAAAAgAAAAAABsABwBeAAAAAAAAAUAAAABQAAAAbAAAAAIAAAAAAAEAAQAAAAAAQEEAAMBAAABAQAAAyEIAAAABIAAAAAIAAAACAAAAAAAQRACASkQA////BP///wj///8i////AAAAAAEAAAAEAAAAEQAAAEhHUFNvZWlLYWt1cG9wdGFpAAAAAQAAAAwAAAAIAAwABAAIAAgAAAAIAAAAJQAAACEAAADkvZXjga7oqbHogZ7jgYvjgZvjgabjgbvjgZfjgYTjgaoAAAA0ACAAAAAcABgAAAAAABcAEAAAAAAAAAAAAAAAAAAAAAAAAAAMAAAAAAAAAAgAAAAEADQAAAAcAAAAHAAAABwAAAAAAHBBAAAAAWgAAAAd/55DsP///7T///8BAAAAFAAAABAAGgAIAAcADAAAABAAFAAQAAAAAAAAARwAAAAAAIhBHAAAAAIAAAAAAAoACAAFAAYABwAKAAAAAP1v//z///8EAAQABAAAAAgACAAGAAcACAAAAAAA/W8=</value>
								</parameter>
								<parameter authoringApp="PremierePro">
									<parameterid>2</parameterid>
									<name>トランスフォーム</name>
									<IsTimeVarying>false</IsTimeVarying>
									<ParameterControlType>11</ParameterControlType>
									<LowerBound>false</LowerBound>
									<UpperBound>false</UpperBound>
									<value>-91445760000000000,false,0,0,0,0,0,0</value>
								</parameter>
							</effect>
						</filter>
					</clipitem>
					<clipitem frameBlend="FALSE" id="clipitem-telop-49">
						<file id="file-2"/>
						<name>グラフィック</name>
						<rate>
							<timebase>59</timebase>
							<ntsc>TRUE</ntsc>
						</rate>
						<rate>
							<timebase>59</timebase>
							<ntsc>TRUE</ntsc>
						</rate>
						<duration>120</duration>
						<start>10132</start>
						<end>10252</end>
						<in>0</in>
						<out>120</out>
						<filter>
							<effect>
								<name></name>
								<effectid>GraphicAndType</effectid>
								<effectcategory>graphic</effectcategory>
								<effecttype>filter</effecttype>
								<mediatype>video</mediatype>
								<pproBypass>false</pproBypass>
								<parameter authoringApp="PremierePro">
									<parameterid>1</parameterid>
									<name>ソーステキスト</name>
									<hash>9da144c7-0b89-e7ae-5cc9-9e6c00000224</hash>
									<value>1AEAAAAAAABEMyIRDAAAAAAABgAKAAQABgAAAGQAAAAAAF4ASAAQAAwARABAADwAOAAAAAAAAAAAADQAMwAsAAAAKAAkACAAAAAAAAAAAAAAAAAAHAAAAAAAGgAAAAAAAAAUAAAAAAAAAAAAAAAAAAAAAAAAAAgAAAAAABsABwBeAAAAAAAAAUAAAABQAAAAbAAAAAIAAAAAAAEAAQAAAAAAQEEAAMBAAABAQAAAyEIAAAABIAAAAAIAAAACAAAAAAAQRACASkQA////BP///wj///8i////AAAAAAEAAAAEAAAAEQAAAEhHUFNvZWlLYWt1cG9wdGFpAAAAAQAAAAwAAAAIAAwABAAIAAgAAAAIAAAAHAAAABgAAADnp4Hjga7nm67jga7oqbHjgafjgZnjgYs0ACAAAAAcABgAAAAAABcAEAAAAAAAAAAAAAAAAAAAAAAAAAAMAAAAAAAAAAgAAAAEADQAAAAcAAAAHAAAABwAAAAAAHBBAAAAAWgAAAAd/55DsP///7T///8BAAAAFAAAABAAGgAIAAcADAAAABAAFAAQAAAAAAAAARwAAAAAAIhBHAAAAAIAAAAAAAoACAAFAAYABwAKAAAAAP1v//z///8EAAQABAAAAAgACAAGAAcACAAAAAAA/W8=</value>
								</parameter>
								<parameter authoringApp="PremierePro">
									<parameterid>2</parameterid>
									<name>トランスフォーム</name>
									<IsTimeVarying>false</IsTimeVarying>
									<ParameterControlType>11</ParameterControlType>
									<LowerBound>false</LowerBound>
									<UpperBound>false</UpperBound>
									<value>-91445760000000000,false,0,0,0,0,0,0</value>
								</parameter>
							</effect>
						</filter>
					</clipitem>
					<clipitem frameBlend="FALSE" id="clipitem-telop-50">
						<file id="file-2"/>
						<name>グラフィック</name>
						<rate>
							<timebase>59</timebase>
							<ntsc>TRUE</ntsc>
						</rate>
						<rate>
							<timebase>59</timebase>
							<ntsc>TRUE</ntsc>
						</rate>
						<duration>120</duration>
						<start>10252</start>
						<end>10372</end>
						<in>0</in>
						<out>120</out>
						<filter>
							<effect>
								<name></name>
								<effectid>GraphicAndType</effectid>
								<effectcategory>graphic</effectcategory>
								<effecttype>filter</effecttype>
								<mediatype>video</mediatype>
								<pproBypass>false</pproBypass>
								<parameter authoringApp="PremierePro">
									<parameterid>1</parameterid>
									<name>ソーステキスト</name>
									<hash>9da144c7-0b89-e7ae-5cc9-9e6c00000224</hash>
									<value>1AEAAAAAAABEMyIRDAAAAAAABgAKAAQABgAAAGQAAAAAAF4ASAAQAAwARABAADwAOAAAAAAAAAAAADQAMwAsAAAAKAAkACAAAAAAAAAAAAAAAAAAHAAAAAAAGgAAAAAAAAAUAAAAAAAAAAAAAAAAAAAAAAAAAAgAAAAAABsABwBeAAAAAAAAAUAAAABQAAAAbAAAAAIAAAAAAAEAAQAAAAAAQEEAAMBAAABAQAAAyEIAAAABIAAAAAIAAAACAAAAAAAQRACASkQA////BP///wj///8i////AAAAAAEAAAAEAAAAEQAAAEhHUFNvZWlLYWt1cG9wdGFpAAAAAQAAAAwAAAAIAAwABAAIAAgAAAAIAAAAJQAAACEAAADjgoHjgaPjgZ3jg7zjgoLjgZTjgZbjgYTjgb7jgZvjgpMAAAA0ACAAAAAcABgAAAAAABcAEAAAAAAAAAAAAAAAAAAAAAAAAAAMAAAAAAAAAAgAAAAEADQAAAAcAAAAHAAAABwAAAAAAHBBAAAAAWgAAAAd/55DsP///7T///8BAAAAFAAAABAAGgAIAAcADAAAABAAFAAQAAAAAAAAARwAAAAAAIhBHAAAAAIAAAAAAAoACAAFAAYABwAKAAAAAP1v//z///8EAAQABAAAAAgACAAGAAcACAAAAAAA/W8=</value>
								</parameter>
								<parameter authoringApp="PremierePro">
									<parameterid>2</parameterid>
									<name>トランスフォーム</name>
									<IsTimeVarying>false</IsTimeVarying>
									<ParameterControlType>11</ParameterControlType>
									<LowerBound>false</LowerBound>
									<UpperBound>false</UpperBound>
									<value>-91445760000000000,false,0,0,0,0,0,0</value>
								</parameter>
							</effect>
						</filter>
					</clipitem>
					<clipitem frameBlend="FALSE" id="clipitem-telop-51">
						<file id="file-2"/>
						<name>グラフィック</name>
						<rate>
							<timebase>59</timebase>
							<ntsc>TRUE</ntsc>
						</rate>
						<rate>
							<timebase>59</timebase>
							<ntsc>TRUE</ntsc>
						</rate>
						<duration>180</duration>
						<start>10372</start>
						<end>10552</end>
						<in>0</in>
						<out>180</out>
						<filter>
							<effect>
								<name></name>
								<effectid>GraphicAndType</effectid>
								<effectcategory>graphic</effectcategory>
								<effecttype>filter</effecttype>
								<mediatype>video</mediatype>
								<pproBypass>false</pproBypass>
								<parameter authoringApp="PremierePro">
									<parameterid>1</parameterid>
									<name>ソーステキスト</name>
									<hash>9da144c7-0b89-e7ae-5cc9-9e6c00000224</hash>
									<value>1AEAAAAAAABEMyIRDAAAAAAABgAKAAQABgAAAGQAAAAAAF4ASAAQAAwARABAADwAOAAAAAAAAAAAADQAMwAsAAAAKAAkACAAAAAAAAAAAAAAAAAAHAAAAAAAGgAAAAAAAAAUAAAAAAAAAAAAAAAAAAAAAAAAAAgAAAAAABsABwBeAAAAAAAAAUAAAABQAAAAbAAAAAIAAAAAAAEAAQAAAAAAQEEAAMBAAABAQAAAyEIAAAABIAAAAAIAAAACAAAAAAAQRACASkQA////BP///wj///8i////AAAAAAEAAAAEAAAAEQAAAEhHUFNvZWlLYWt1cG9wdGFpAAAAAQAAAAwAAAAIAAwABAAIAAgAAAAIAAAANwAAADMAAADku4rml6Xjga/jg5/jg6vjgq/jgYrlrKLmp5jjga7nlrLjgozjgpLnmZLjgZvjgZ/jgokANAAgAAAAHAAYAAAAAAAXABAAAAAAAAAAAAAAAAAAAAAAAAAADAAAAAAAAAAIAAAABAA0AAAAHAAAABwAAAAcAAAAAABwQQAAAAFoAAAAHf+eQ7D///+0////AQAAABQAAAAQABoACAAHAAwAAAAQABQAEAAAAAAAAAEcAAAAAACIQRwAAAACAAAAAAAKAAgABQAGAAcACgAAAAD9b//8////BAAEAAQAAAAIAAgABgAHAAgAAAAAAP1v</value>
								</parameter>
								<parameter authoringApp="PremierePro">
									<parameterid>2</parameterid>
									<name>トランスフォーム</name>
									<IsTimeVarying>false</IsTimeVarying>
									<ParameterControlType>11</ParameterControlType>
									<LowerBound>false</LowerBound>
									<UpperBound>false</UpperBound>
									<value>-91445760000000000,false,0,0,0,0,0,0</value>
								</parameter>
							</effect>
						</filter>
					</clipitem>
					<clipitem frameBlend="FALSE" id="clipitem-telop-52">
						<file id="file-2"/>
						<name>グラフィック</name>
						<rate>
							<timebase>59</timebase>
							<ntsc>TRUE</ntsc>
						</rate>
						<rate>
							<timebase>59</timebase>
							<ntsc>TRUE</ntsc>
						</rate>
						<duration>180</duration>
						<start>10552</start>
						<end>10732</end>
						<in>0</in>
						<out>180</out>
						<filter>
							<effect>
								<name></name>
								<effectid>GraphicAndType</effectid>
								<effectcategory>graphic</effectcategory>
								<effecttype>filter</effecttype>
								<mediatype>video</mediatype>
								<pproBypass>false</pproBypass>
								<parameter authoringApp="PremierePro">
									<parameterid>1</parameterid>
									<name>ソーステキスト</name>
									<hash>9da144c7-0b89-e7ae-5cc9-9e6c00000224</hash>
									<value>1AEAAAAAAABEMyIRDAAAAAAABgAKAAQABgAAAGQAAAAAAF4ASAAQAAwARABAADwAOAAAAAAAAAAAADQAMwAsAAAAKAAkACAAAAAAAAAAAAAAAAAAHAAAAAAAGgAAAAAAAAAUAAAAAAAAAAAAAAAAAAAAAAAAAAgAAAAAABsABwBeAAAAAAAAAUAAAABQAAAAbAAAAAIAAAAAAAEAAQAAAAAAQEEAAMBAAABAQAAAyEIAAAABIAAAAAIAAAACAAAAAAAQRACASkQA////BP///wj///8i////AAAAAAEAAAAEAAAAEQAAAEhHUFNvZWlLYWt1cG9wdGFpAAAAAQAAAAwAAAAIAAwABAAIAAgAAAAIAAAAKAAAACQAAADnp4HjgajjgaPjgabjgoLlubjjgZvjgafjgY/jgaDjgZXjgYQ0ACAAAAAcABgAAAAAABcAEAAAAAAAAAAAAAAAAAAAAAAAAAAMAAAAAAAAAAgAAAAEADQAAAAcAAAAHAAAABwAAAAAAHBBAAAAAWgAAAAd/55DsP///7T///8BAAAAFAAAABAAGgAIAAcADAAAABAAFAAQAAAAAAAAARwAAAAAAIhBHAAAAAIAAAAAAAoACAAFAAYABwAKAAAAAP1v//z///8EAAQABAAAAAgACAAGAAcACAAAAAAA/W8=</value>
								</parameter>
								<parameter authoringApp="PremierePro">
									<parameterid>2</parameterid>
									<name>トランスフォーム</name>
									<IsTimeVarying>false</IsTimeVarying>
									<ParameterControlType>11</ParameterControlType>
									<LowerBound>false</LowerBound>
									<UpperBound>false</UpperBound>
									<value>-91445760000000000,false,0,0,0,0,0,0</value>
								</parameter>
							</effect>
						</filter>
					</clipitem>
					<clipitem frameBlend="FALSE" id="clipitem-telop-53">
						<file id="file-2"/>
						<name>グラフィック</name>
						<rate>
							<timebase>59</timebase>
							<ntsc>TRUE</ntsc>
						</rate>
						<rate>
							<timebase>59</timebase>
							<ntsc>TRUE</ntsc>
						</rate>
						<duration>120</duration>
						<start>10732</start>
						<end>10852</end>
						<in>0</in>
						<out>120</out>
						<filter>
							<effect>
								<name></name>
								<effectid>GraphicAndType</effectid>
								<effectcategory>graphic</effectcategory>
								<effecttype>filter</effecttype>
								<mediatype>video</mediatype>
								<pproBypass>false</pproBypass>
								<parameter authoringApp="PremierePro">
									<parameterid>1</parameterid>
									<name>ソーステキスト</name>
									<hash>9da144c7-0b89-e7ae-5cc9-9e6c00000224</hash>
									<value>1AEAAAAAAABEMyIRDAAAAAAABgAKAAQABgAAAGQAAAAAAF4ASAAQAAwARABAADwAOAAAAAAAAAAAADQAMwAsAAAAKAAkACAAAAAAAAAAAAAAAAAAHAAAAAAAGgAAAAAAAAAUAAAAAAAAAAAAAAAAAAAAAAAAAAgAAAAAABsABwBeAAAAAAAAAUAAAABQAAAAbAAAAAIAAAAAAAEAAQAAAAAAQEEAAMBAAABAQAAAyEIAAAABIAAAAAIAAAACAAAAAAAQRACASkQA////BP///wj///8i////AAAAAAEAAAAEAAAAEQAAAEhHUFNvZWlLYWt1cG9wdGFpAAAAAQAAAAwAAAAIAAwABAAIAAgAAAAIAAAAFgAAABIAAADjgYjjgafjgoLjg5/jg6vjgq8AADQAIAAAABwAGAAAAAAAFwAQAAAAAAAAAAAAAAAAAAAAAAAAAAwAAAAAAAAACAAAAAQANAAAABwAAAAcAAAAHAAAAAAAcEEAAAABaAAAAB3/nkOw////tP///wEAAAAUAAAAEAAaAAgABwAMAAAAEAAUABAAAAAAAAABHAAAAAAAiEEcAAAAAgAAAAAACgAIAAUABgAHAAoAAAAA/W///P///wQABAAEAAAACAAIAAYABwAIAAAAAAD9bw==</value>
								</parameter>
								<parameter authoringApp="PremierePro">
									<parameterid>2</parameterid>
									<name>トランスフォーム</name>
									<IsTimeVarying>false</IsTimeVarying>
									<ParameterControlType>11</ParameterControlType>
									<LowerBound>false</LowerBound>
									<UpperBound>false</UpperBound>
									<value>-91445760000000000,false,0,0,0,0,0,0</value>
								</parameter>
							</effect>
						</filter>
					</clipitem>
					<clipitem frameBlend="FALSE" id="clipitem-telop-54">
						<file id="file-2"/>
						<name>グラフィック</name>
						<rate>
							<timebase>59</timebase>
							<ntsc>TRUE</ntsc>
						</rate>
						<rate>
							<timebase>59</timebase>
							<ntsc>TRUE</ntsc>
						</rate>
						<duration>120</duration>
						<start>10852</start>
						<end>10972</end>
						<in>0</in>
						<out>120</out>
						<filter>
							<effect>
								<name></name>
								<effectid>GraphicAndType</effectid>
								<effectcategory>graphic</effectcategory>
								<effecttype>filter</effecttype>
								<mediatype>video</mediatype>
								<pproBypass>false</pproBypass>
								<parameter authoringApp="PremierePro">
									<parameterid>1</parameterid>
									<name>ソーステキスト</name>
									<hash>9da144c7-0b89-e7ae-5cc9-9e6c00000224</hash>
									<value>1AEAAAAAAABEMyIRDAAAAAAABgAKAAQABgAAAGQAAAAAAF4ASAAQAAwARABAADwAOAAAAAAAAAAAADQAMwAsAAAAKAAkACAAAAAAAAAAAAAAAAAAHAAAAAAAGgAAAAAAAAAUAAAAAAAAAAAAAAAAAAAAAAAAAAgAAAAAABsABwBeAAAAAAAAAUAAAABQAAAAbAAAAAIAAAAAAAEAAQAAAAAAQEEAAMBAAABAQAAAyEIAAAABIAAAAAIAAAACAAAAAAAQRACASkQA////BP///wj///8i////AAAAAAEAAAAEAAAAEQAAAEhHUFNvZWlLYWt1cG9wdGFpAAAAAQAAAAwAAAAIAAwABAAIAAgAAAAIAAAADQAAAAkAAADjgarjgpPjgYsAAAA0ACAAAAAcABgAAAAAABcAEAAAAAAAAAAAAAAAAAAAAAAAAAAMAAAAAAAAAAgAAAAEADQAAAAcAAAAHAAAABwAAAAAAHBBAAAAAWgAAAAd/55DsP///7T///8BAAAAFAAAABAAGgAIAAcADAAAABAAFAAQAAAAAAAAARwAAAAAAIhBHAAAAAIAAAAAAAoACAAFAAYABwAKAAAAAP1v//z///8EAAQABAAAAAgACAAGAAcACAAAAAAA/W8=</value>
								</parameter>
								<parameter authoringApp="PremierePro">
									<parameterid>2</parameterid>
									<name>トランスフォーム</name>
									<IsTimeVarying>false</IsTimeVarying>
									<ParameterControlType>11</ParameterControlType>
									<LowerBound>false</LowerBound>
									<UpperBound>false</UpperBound>
									<value>-91445760000000000,false,0,0,0,0,0,0</value>
								</parameter>
							</effect>
						</filter>
					</clipitem>
					<clipitem frameBlend="FALSE" id="clipitem-telop-55">
						<file id="file-2"/>
						<name>グラフィック</name>
						<rate>
							<timebase>59</timebase>
							<ntsc>TRUE</ntsc>
						</rate>
						<rate>
							<timebase>59</timebase>
							<ntsc>TRUE</ntsc>
						</rate>
						<duration>120</duration>
						<start>10972</start>
						<end>11092</end>
						<in>0</in>
						<out>120</out>
						<filter>
							<effect>
								<name></name>
								<effectid>GraphicAndType</effectid>
								<effectcategory>graphic</effectcategory>
								<effecttype>filter</effecttype>
								<mediatype>video</mediatype>
								<pproBypass>false</pproBypass>
								<parameter authoringApp="PremierePro">
									<parameterid>1</parameterid>
									<name>ソーステキスト</name>
									<hash>9da144c7-0b89-e7ae-5cc9-9e6c00000224</hash>
									<value>1AEAAAAAAABEMyIRDAAAAAAABgAKAAQABgAAAGQAAAAAAF4ASAAQAAwARABAADwAOAAAAAAAAAAAADQAMwAsAAAAKAAkACAAAAAAAAAAAAAAAAAAHAAAAAAAGgAAAAAAAAAUAAAAAAAAAAAAAAAAAAAAAAAAAAgAAAAAABsABwBeAAAAAAAAAUAAAABQAAAAbAAAAAIAAAAAAAEAAQAAAAAAQEEAAMBAAABAQAAAyEIAAAABIAAAAAIAAAACAAAAAAAQRACASkQA////BP///wj///8i////AAAAAAEAAAAEAAAAEQAAAEhHUFNvZWlLYWt1cG9wdGFpAAAAAQAAAAwAAAAIAAwABAAIAAgAAAAIAAAAEAAAAAwAAADjg5/jg6vjgq/jgas0ACAAAAAcABgAAAAAABcAEAAAAAAAAAAAAAAAAAAAAAAAAAAMAAAAAAAAAAgAAAAEADQAAAAcAAAAHAAAABwAAAAAAHBBAAAAAWgAAAAd/55DsP///7T///8BAAAAFAAAABAAGgAIAAcADAAAABAAFAAQAAAAAAAAARwAAAAAAIhBHAAAAAIAAAAAAAoACAAFAAYABwAKAAAAAP1v//z///8EAAQABAAAAAgACAAGAAcACAAAAAAA/W8=</value>
								</parameter>
								<parameter authoringApp="PremierePro">
									<parameterid>2</parameterid>
									<name>トランスフォーム</name>
									<IsTimeVarying>false</IsTimeVarying>
									<ParameterControlType>11</ParameterControlType>
									<LowerBound>false</LowerBound>
									<UpperBound>false</UpperBound>
									<value>-91445760000000000,false,0,0,0,0,0,0</value>
								</parameter>
							</effect>
						</filter>
					</clipitem>
					<clipitem frameBlend="FALSE" id="clipitem-telop-56">
						<file id="file-2"/>
						<name>グラフィック</name>
						<rate>
							<timebase>59</timebase>
							<ntsc>TRUE</ntsc>
						</rate>
						<rate>
							<timebase>59</timebase>
							<ntsc>TRUE</ntsc>
						</rate>
						<duration>120</duration>
						<start>11092</start>
						<end>11212</end>
						<in>0</in>
						<out>120</out>
						<filter>
							<effect>
								<name></name>
								<effectid>GraphicAndType</effectid>
								<effectcategory>graphic</effectcategory>
								<effecttype>filter</effecttype>
								<mediatype>video</mediatype>
								<pproBypass>false</pproBypass>
								<parameter authoringApp="PremierePro">
									<parameterid>1</parameterid>
									<name>ソーステキスト</name>
									<hash>9da144c7-0b89-e7ae-5cc9-9e6c00000224</hash>
									<value>1AEAAAAAAABEMyIRDAAAAAAABgAKAAQABgAAAGQAAAAAAF4ASAAQAAwARABAADwAOAAAAAAAAAAAADQAMwAsAAAAKAAkACAAAAAAAAAAAAAAAAAAHAAAAAAAGgAAAAAAAAAUAAAAAAAAAAAAAAAAAAAAAAAAAAgAAAAAABsABwBeAAAAAAAAAUAAAABQAAAAbAAAAAIAAAAAAAEAAQAAAAAAQEEAAMBAAABAQAAAyEIAAAABIAAAAAIAAAACAAAAAAAQRACASkQA////BP///wj///8i////AAAAAAEAAAAEAAAAEQAAAEhHUFNvZWlLYWt1cG9wdGFpAAAAAQAAAAwAAAAIAAwABAAIAAgAAAAIAAAAHwAAABsAAADjgarjgpPjgYvjgYrjgozoibLjga7pppbjga8ANAAgAAAAHAAYAAAAAAAXABAAAAAAAAAAAAAAAAAAAAAAAAAADAAAAAAAAAAIAAAABAA0AAAAHAAAABwAAAAcAAAAAABwQQAAAAFoAAAAHf+eQ7D///+0////AQAAABQAAAAQABoACAAHAAwAAAAQABQAEAAAAAAAAAEcAAAAAACIQRwAAAACAAAAAAAKAAgABQAGAAcACgAAAAD9b//8////BAAEAAQAAAAIAAgABgAHAAgAAAAAAP1v</value>
								</parameter>
								<parameter authoringApp="PremierePro">
									<parameterid>2</parameterid>
									<name>トランスフォーム</name>
									<IsTimeVarying>false</IsTimeVarying>
									<ParameterControlType>11</ParameterControlType>
									<LowerBound>false</LowerBound>
									<UpperBound>false</UpperBound>
									<value>-91445760000000000,false,0,0,0,0,0,0</value>
								</parameter>
							</effect>
						</filter>
					</clipitem>
					<clipitem frameBlend="FALSE" id="clipitem-telop-57">
						<file id="file-2"/>
						<name>グラフィック</name>
						<rate>
							<timebase>59</timebase>
							<ntsc>TRUE</ntsc>
						</rate>
						<rate>
							<timebase>59</timebase>
							<ntsc>TRUE</ntsc>
						</rate>
						<duration>240</duration>
						<start>11212</start>
						<end>11452</end>
						<in>0</in>
						<out>240</out>
						<filter>
							<effect>
								<name></name>
								<effectid>GraphicAndType</effectid>
								<effectcategory>graphic</effectcategory>
								<effecttype>filter</effecttype>
								<mediatype>video</mediatype>
								<pproBypass>false</pproBypass>
								<parameter authoringApp="PremierePro">
									<parameterid>1</parameterid>
									<name>ソーステキスト</name>
									<hash>9da144c7-0b89-e7ae-5cc9-9e6c00000224</hash>
									<value>1AEAAAAAAABEMyIRDAAAAAAABgAKAAQABgAAAGQAAAAAAF4ASAAQAAwARABAADwAOAAAAAAAAAAAADQAMwAsAAAAKAAkACAAAAAAAAAAAAAAAAAAHAAAAAAAGgAAAAAAAAAUAAAAAAAAAAAAAAAAAAAAAAAAAAgAAAAAABsABwBeAAAAAAAAAUAAAABQAAAAbAAAAAIAAAAAAAEAAQAAAAAAQEEAAMBAAABAQAAAyEIAAAABIAAAAAIAAAACAAAAAAAQRACASkQA////BP///wj///8i////AAAAAAEAAAAEAAAAEQAAAEhHUFNvZWlLYWt1cG9wdGFpAAAAAQAAAAwAAAAIAAwABAAIAAgAAAAIAAAAOgAAADYAAADjga/jgoHjgabjgY/jgozjgovkurrjgYzmrLLjgZfjgYTjgarjgaPjgabmgJ3jgaPjgabjgaYAADQAIAAAABwAGAAAAAAAFwAQAAAAAAAAAAAAAAAAAAAAAAAAAAwAAAAAAAAACAAAAAQANAAAABwAAAAcAAAAHAAAAAAAcEEAAAABaAAAAB3/nkOw////tP///wEAAAAUAAAAEAAaAAgABwAMAAAAEAAUABAAAAAAAAABHAAAAAAAiEEcAAAAAgAAAAAACgAIAAUABgAHAAoAAAAA/W///P///wQABAAEAAAACAAIAAYABwAIAAAAAAD9bw==</value>
								</parameter>
								<parameter authoringApp="PremierePro">
									<parameterid>2</parameterid>
									<name>トランスフォーム</name>
									<IsTimeVarying>false</IsTimeVarying>
									<ParameterControlType>11</ParameterControlType>
									<LowerBound>false</LowerBound>
									<UpperBound>false</UpperBound>
									<value>-91445760000000000,false,0,0,0,0,0,0</value>
								</parameter>
							</effect>
						</filter>
					</clipitem>
					<clipitem frameBlend="FALSE" id="clipitem-telop-58">
						<file id="file-2"/>
						<name>グラフィック</name>
						<rate>
							<timebase>59</timebase>
							<ntsc>TRUE</ntsc>
						</rate>
						<rate>
							<timebase>59</timebase>
							<ntsc>TRUE</ntsc>
						</rate>
						<duration>120</duration>
						<start>11452</start>
						<end>11572</end>
						<in>0</in>
						<out>120</out>
						<filter>
							<effect>
								<name></name>
								<effectid>GraphicAndType</effectid>
								<effectcategory>graphic</effectcategory>
								<effecttype>filter</effecttype>
								<mediatype>video</mediatype>
								<pproBypass>false</pproBypass>
								<parameter authoringApp="PremierePro">
									<parameterid>1</parameterid>
									<name>ソーステキスト</name>
									<hash>9da144c7-0b89-e7ae-5cc9-9e6c00000224</hash>
									<value>1AEAAAAAAABEMyIRDAAAAAAABgAKAAQABgAAAGQAAAAAAF4ASAAQAAwARABAADwAOAAAAAAAAAAAADQAMwAsAAAAKAAkACAAAAAAAAAAAAAAAAAAHAAAAAAAGgAAAAAAAAAUAAAAAAAAAAAAAAAAAAAAAAAAAAgAAAAAABsABwBeAAAAAAAAAUAAAABQAAAAbAAAAAIAAAAAAAEAAQAAAAAAQEEAAMBAAABAQAAAyEIAAAABIAAAAAIAAAACAAAAAAAQRACASkQA////BP///wj///8i////AAAAAAEAAAAEAAAAEQAAAEhHUFNvZWlLYWt1cG9wdGFpAAAAAQAAAAwAAAAIAAwABAAIAAgAAAAIAAAAEAAAAAwAAADjgarjgovjgbvjgak0ACAAAAAcABgAAAAAABcAEAAAAAAAAAAAAAAAAAAAAAAAAAAMAAAAAAAAAAgAAAAEADQAAAAcAAAAHAAAABwAAAAAAHBBAAAAAWgAAAAd/55DsP///7T///8BAAAAFAAAABAAGgAIAAcADAAAABAAFAAQAAAAAAAAARwAAAAAAIhBHAAAAAIAAAAAAAoACAAFAAYABwAKAAAAAP1v//z///8EAAQABAAAAAgACAAGAAcACAAAAAAA/W8=</value>
								</parameter>
								<parameter authoringApp="PremierePro">
									<parameterid>2</parameterid>
									<name>トランスフォーム</name>
									<IsTimeVarying>false</IsTimeVarying>
									<ParameterControlType>11</ParameterControlType>
									<LowerBound>false</LowerBound>
									<UpperBound>false</UpperBound>
									<value>-91445760000000000,false,0,0,0,0,0,0</value>
								</parameter>
							</effect>
						</filter>
					</clipitem>
					<clipitem frameBlend="FALSE" id="clipitem-telop-59">
						<file id="file-2"/>
						<name>グラフィック</name>
						<rate>
							<timebase>59</timebase>
							<ntsc>TRUE</ntsc>
						</rate>
						<rate>
							<timebase>59</timebase>
							<ntsc>TRUE</ntsc>
						</rate>
						<duration>120</duration>
						<start>11572</start>
						<end>11692</end>
						<in>0</in>
						<out>120</out>
						<filter>
							<effect>
								<name></name>
								<effectid>GraphicAndType</effectid>
								<effectcategory>graphic</effectcategory>
								<effecttype>filter</effecttype>
								<mediatype>video</mediatype>
								<pproBypass>false</pproBypass>
								<parameter authoringApp="PremierePro">
									<parameterid>1</parameterid>
									<name>ソーステキスト</name>
									<hash>9da144c7-0b89-e7ae-5cc9-9e6c00000224</hash>
									<value>1AEAAAAAAABEMyIRDAAAAAAABgAKAAQABgAAAGQAAAAAAF4ASAAQAAwARABAADwAOAAAAAAAAAAAADQAMwAsAAAAKAAkACAAAAAAAAAAAAAAAAAAHAAAAAAAGgAAAAAAAAAUAAAAAAAAAAAAAAAAAAAAAAAAAAgAAAAAABsABwBeAAAAAAAAAUAAAABQAAAAbAAAAAIAAAAAAAEAAQAAAAAAQEEAAMBAAABAQAAAyEIAAAABIAAAAAIAAAACAAAAAAAQRACASkQA////BP///wj///8i////AAAAAAEAAAAEAAAAEQAAAEhHUFNvZWlLYWt1cG9wdGFpAAAAAQAAAAwAAAAIAAwABAAIAAgAAAAIAAAAKwAAACcAAADjgYbjgpPjgarjgpPjgYvmjqLjgZfjgabjgovjgpPjgaDjgojjga0ANAAgAAAAHAAYAAAAAAAXABAAAAAAAAAAAAAAAAAAAAAAAAAADAAAAAAAAAAIAAAABAA0AAAAHAAAABwAAAAcAAAAAABwQQAAAAFoAAAAHf+eQ7D///+0////AQAAABQAAAAQABoACAAHAAwAAAAQABQAEAAAAAAAAAEcAAAAAACIQRwAAAACAAAAAAAKAAgABQAGAAcACgAAAAD9b//8////BAAEAAQAAAAIAAgABgAHAAgAAAAAAP1v</value>
								</parameter>
								<parameter authoringApp="PremierePro">
									<parameterid>2</parameterid>
									<name>トランスフォーム</name>
									<IsTimeVarying>false</IsTimeVarying>
									<ParameterControlType>11</ParameterControlType>
									<LowerBound>false</LowerBound>
									<UpperBound>false</UpperBound>
									<value>-91445760000000000,false,0,0,0,0,0,0</value>
								</parameter>
							</effect>
						</filter>
					</clipitem>
					<clipitem frameBlend="FALSE" id="clipitem-telop-60">
						<file id="file-2"/>
						<name>グラフィック</name>
						<rate>
							<timebase>59</timebase>
							<ntsc>TRUE</ntsc>
						</rate>
						<rate>
							<timebase>59</timebase>
							<ntsc>TRUE</ntsc>
						</rate>
						<duration>180</duration>
						<start>11692</start>
						<end>11872</end>
						<in>0</in>
						<out>180</out>
						<filter>
							<effect>
								<name></name>
								<effectid>GraphicAndType</effectid>
								<effectcategory>graphic</effectcategory>
								<effecttype>filter</effecttype>
								<mediatype>video</mediatype>
								<pproBypass>false</pproBypass>
								<parameter authoringApp="PremierePro">
									<parameterid>1</parameterid>
									<name>ソーステキスト</name>
									<hash>9da144c7-0b89-e7ae-5cc9-9e6c00000224</hash>
									<value>1AEAAAAAAABEMyIRDAAAAAAABgAKAAQABgAAAGQAAAAAAF4ASAAQAAwARABAADwAOAAAAAAAAAAAADQAMwAsAAAAKAAkACAAAAAAAAAAAAAAAAAAHAAAAAAAGgAAAAAAAAAUAAAAAAAAAAAAAAAAAAAAAAAAAAgAAAAAABsABwBeAAAAAAAAAUAAAABQAAAAbAAAAAIAAAAAAAEAAQAAAAAAQEEAAMBAAABAQAAAyEIAAAABIAAAAAIAAAACAAAAAAAQRACASkQA////BP///wj///8i////AAAAAAEAAAAEAAAAEQAAAEhHUFNvZWlLYWt1cG9wdGFpAAAAAQAAAAwAAAAIAAwABAAIAAgAAAAIAAAANwAAADMAAADjgZ3jgozjga/kvZXjgYvjgpLlj4LogIPjgavlh7rjgZXjgozjgZ/jgpPjgafjgZnjgYsANAAgAAAAHAAYAAAAAAAXABAAAAAAAAAAAAAAAAAAAAAAAAAADAAAAAAAAAAIAAAABAA0AAAAHAAAABwAAAAcAAAAAABwQQAAAAFoAAAAHf+eQ7D///+0////AQAAABQAAAAQABoACAAHAAwAAAAQABQAEAAAAAAAAAEcAAAAAACIQRwAAAACAAAAAAAKAAgABQAGAAcACgAAAAD9b//8////BAAEAAQAAAAIAAgABgAHAAgAAAAAAP1v</value>
								</parameter>
								<parameter authoringApp="PremierePro">
									<parameterid>2</parameterid>
									<name>トランスフォーム</name>
									<IsTimeVarying>false</IsTimeVarying>
									<ParameterControlType>11</ParameterControlType>
									<LowerBound>false</LowerBound>
									<UpperBound>false</UpperBound>
									<value>-91445760000000000,false,0,0,0,0,0,0</value>
								</parameter>
							</effect>
						</filter>
					</clipitem>
					<clipitem frameBlend="FALSE" id="clipitem-telop-61">
						<file id="file-2"/>
						<name>グラフィック</name>
						<rate>
							<timebase>59</timebase>
							<ntsc>TRUE</ntsc>
						</rate>
						<rate>
							<timebase>59</timebase>
							<ntsc>TRUE</ntsc>
						</rate>
						<duration>180</duration>
						<start>11872</start>
						<end>12052</end>
						<in>0</in>
						<out>180</out>
						<filter>
							<effect>
								<name></name>
								<effectid>GraphicAndType</effectid>
								<effectcategory>graphic</effectcategory>
								<effecttype>filter</effecttype>
								<mediatype>video</mediatype>
								<pproBypass>false</pproBypass>
								<parameter authoringApp="PremierePro">
									<parameterid>1</parameterid>
									<name>ソーステキスト</name>
									<hash>9da144c7-0b89-e7ae-5cc9-9e6c00000224</hash>
									<value>1AEAAAAAAABEMyIRDAAAAAAABgAKAAQABgAAAGQAAAAAAF4ASAAQAAwARABAADwAOAAAAAAAAAAAADQAMwAsAAAAKAAkACAAAAAAAAAAAAAAAAAAHAAAAAAAGgAAAAAAAAAUAAAAAAAAAAAAAAAAAAAAAAAAAAgAAAAAABsABwBeAAAAAAAAAUAAAABQAAAAbAAAAAIAAAAAAAEAAQAAAAAAQEEAAMBAAABAQAAAyEIAAAABIAAAAAIAAAACAAAAAAAQRACASkQA////BP///wj///8i////AAAAAAEAAAAEAAAAEQAAAEhHUFNvZWlLYWt1cG9wdGFpAAAAAQAAAAwAAAAIAAwABAAIAAgAAAAIAAAANwAAADMAAADjgYjjgarjgpPjgYvogbfloLTjga7kurrjgoLjgarjgpPjgYvnnYDkv6HjgojjgpPjgacANAAgAAAAHAAYAAAAAAAXABAAAAAAAAAAAAAAAAAAAAAAAAAADAAAAAAAAAAIAAAABAA0AAAAHAAAABwAAAAcAAAAAABwQQAAAAFoAAAAHf+eQ7D///+0////AQAAABQAAAAQABoACAAHAAwAAAAQABQAEAAAAAAAAAEcAAAAAACIQRwAAAACAAAAAAAKAAgABQAGAAcACgAAAAD9b//8////BAAEAAQAAAAIAAgABgAHAAgAAAAAAP1v</value>
								</parameter>
								<parameter authoringApp="PremierePro">
									<parameterid>2</parameterid>
									<name>トランスフォーム</name>
									<IsTimeVarying>false</IsTimeVarying>
									<ParameterControlType>11</ParameterControlType>
									<LowerBound>false</LowerBound>
									<UpperBound>false</UpperBound>
									<value>-91445760000000000,false,0,0,0,0,0,0</value>
								</parameter>
							</effect>
						</filter>
					</clipitem>
					<clipitem frameBlend="FALSE" id="clipitem-telop-62">
						<file id="file-2"/>
						<name>グラフィック</name>
						<rate>
							<timebase>59</timebase>
							<ntsc>TRUE</ntsc>
						</rate>
						<rate>
							<timebase>59</timebase>
							<ntsc>TRUE</ntsc>
						</rate>
						<duration>180</duration>
						<start>12052</start>
						<end>12232</end>
						<in>0</in>
						<out>180</out>
						<filter>
							<effect>
								<name></name>
								<effectid>GraphicAndType</effectid>
								<effectcategory>graphic</effectcategory>
								<effecttype>filter</effecttype>
								<mediatype>video</mediatype>
								<pproBypass>false</pproBypass>
								<parameter authoringApp="PremierePro">
									<parameterid>1</parameterid>
									<name>ソーステキスト</name>
									<hash>9da144c7-0b89-e7ae-5cc9-9e6c00000224</hash>
									<value>1AEAAAAAAABEMyIRDAAAAAAABgAKAAQABgAAAGQAAAAAAF4ASAAQAAwARABAADwAOAAAAAAAAAAAADQAMwAsAAAAKAAkACAAAAAAAAAAAAAAAAAAHAAAAAAAGgAAAAAAAAAUAAAAAAAAAAAAAAAAAAAAAAAAAAgAAAAAABsABwBeAAAAAAAAAUAAAABQAAAAbAAAAAIAAAAAAAEAAQAAAAAAQEEAAMBAAABAQAAAyEIAAAABIAAAAAIAAAACAAAAAAAQRACASkQA////BP///wj///8i////AAAAAAEAAAAEAAAAEQAAAEhHUFNvZWlLYWt1cG9wdGFpAAAAAQAAAAwAAAAIAAwABAAIAAgAAAAIAAAALgAAACoAAADjgarjgpPjgYvjgYrjgozoibLjgavmn5PjgoHjgabjgoTjgovjgajjgYsAADQAIAAAABwAGAAAAAAAFwAQAAAAAAAAAAAAAAAAAAAAAAAAAAwAAAAAAAAACAAAAAQANAAAABwAAAAcAAAAHAAAAAAAcEEAAAABaAAAAB3/nkOw////tP///wEAAAAUAAAAEAAaAAgABwAMAAAAEAAUABAAAAAAAAABHAAAAAAAiEEcAAAAAgAAAAAACgAIAAUABgAHAAoAAAAA/W///P///wQABAAEAAAACAAIAAYABwAIAAAAAAD9bw==</value>
								</parameter>
								<parameter authoringApp="PremierePro">
									<parameterid>2</parameterid>
									<name>トランスフォーム</name>
									<IsTimeVarying>false</IsTimeVarying>
									<ParameterControlType>11</ParameterControlType>
									<LowerBound>false</LowerBound>
									<UpperBound>false</UpperBound>
									<value>-91445760000000000,false,0,0,0,0,0,0</value>
								</parameter>
							</effect>
						</filter>
					</clipitem>
					<clipitem frameBlend="FALSE" id="clipitem-telop-63">
						<file id="file-2"/>
						<name>グラフィック</name>
						<rate>
							<timebase>59</timebase>
							<ntsc>TRUE</ntsc>
						</rate>
						<rate>
							<timebase>59</timebase>
							<ntsc>TRUE</ntsc>
						</rate>
						<duration>240</duration>
						<start>12232</start>
						<end>12472</end>
						<in>0</in>
						<out>240</out>
						<filter>
							<effect>
								<name></name>
								<effectid>GraphicAndType</effectid>
								<effectcategory>graphic</effectcategory>
								<effecttype>filter</effecttype>
								<mediatype>video</mediatype>
								<pproBypass>false</pproBypass>
								<parameter authoringApp="PremierePro">
									<parameterid>1</parameterid>
									<name>ソーステキスト</name>
									<hash>9da144c7-0b89-e7ae-5cc9-9e6c00000224</hash>
									<value>1AEAAAAAAABEMyIRDAAAAAAABgAKAAQABgAAAGQAAAAAAF4ASAAQAAwARABAADwAOAAAAAAAAAAAADQAMwAsAAAAKAAkACAAAAAAAAAAAAAAAAAAHAAAAAAAGgAAAAAAAAAUAAAAAAAAAAAAAAAAAAAAAAAAAAgAAAAAABsABwBeAAAAAAAAAUAAAABQAAAAbAAAAAIAAAAAAAEAAQAAAAAAQEEAAMBAAABAQAAAyEIAAAABIAAAAAIAAAACAAAAAAAQRACASkQA////BP///wj///8i////AAAAAAEAAAAEAAAAEQAAAEhHUFNvZWlLYWt1cG9wdGFpAAAAAQAAAAwAAAAIAAwABAAIAAgAAAAIAAAASQAAAEUAAADjgarjgpPjgYvkv7rjgYvjgonpgIPjgZLjgonjgozjgarjgYTjgojjgb/jgZ/jgYTjgarjgZPjgajoqIDjgaPjgabjgaYAAAA0ACAAAAAcABgAAAAAABcAEAAAAAAAAAAAAAAAAAAAAAAAAAAMAAAAAAAAAAgAAAAEADQAAAAcAAAAHAAAABwAAAAAAHBBAAAAAWgAAAAd/55DsP///7T///8BAAAAFAAAABAAGgAIAAcADAAAABAAFAAQAAAAAAAAARwAAAAAAIhBHAAAAAIAAAAAAAoACAAFAAYABwAKAAAAAP1v//z///8EAAQABAAAAAgACAAGAAcACAAAAAAA/W8=</value>
								</parameter>
								<parameter authoringApp="PremierePro">
									<parameterid>2</parameterid>
									<name>トランスフォーム</name>
									<IsTimeVarying>false</IsTimeVarying>
									<ParameterControlType>11</ParameterControlType>
									<LowerBound>false</LowerBound>
									<UpperBound>false</UpperBound>
									<value>-91445760000000000,false,0,0,0,0,0,0</value>
								</parameter>
							</effect>
						</filter>
					</clipitem>
					<clipitem frameBlend="FALSE" id="clipitem-telop-64">
						<file id="file-2"/>
						<name>グラフィック</name>
						<rate>
							<timebase>59</timebase>
							<ntsc>TRUE</ntsc>
						</rate>
						<rate>
							<timebase>59</timebase>
							<ntsc>TRUE</ntsc>
						</rate>
						<duration>120</duration>
						<start>12472</start>
						<end>12592</end>
						<in>0</in>
						<out>120</out>
						<filter>
							<effect>
								<name></name>
								<effectid>GraphicAndType</effectid>
								<effectcategory>graphic</effectcategory>
								<effecttype>filter</effecttype>
								<mediatype>video</mediatype>
								<pproBypass>false</pproBypass>
								<parameter authoringApp="PremierePro">
									<parameterid>1</parameterid>
									<name>ソーステキスト</name>
									<hash>9da144c7-0b89-e7ae-5cc9-9e6c00000224</hash>
									<value>1AEAAAAAAABEMyIRDAAAAAAABgAKAAQABgAAAGQAAAAAAF4ASAAQAAwARABAADwAOAAAAAAAAAAAADQAMwAsAAAAKAAkACAAAAAAAAAAAAAAAAAAHAAAAAAAGgAAAAAAAAAUAAAAAAAAAAAAAAAAAAAAAAAAAAgAAAAAABsABwBeAAAAAAAAAUAAAABQAAAAbAAAAAIAAAAAAAEAAQAAAAAAQEEAAMBAAABAQAAAyEIAAAABIAAAAAIAAAACAAAAAAAQRACASkQA////BP///wj///8i////AAAAAAEAAAAEAAAAEQAAAEhHUFNvZWlLYWt1cG9wdGFpAAAAAQAAAAwAAAAIAAwABAAIAAgAAAAIAAAAJgAAACIAAADjgarjgpPjgafjgYrliY0z55uu44Gj44Gm6KiA44Gj44GmAAA0ACAAAAAcABgAAAAAABcAEAAAAAAAAAAAAAAAAAAAAAAAAAAMAAAAAAAAAAgAAAAEADQAAAAcAAAAHAAAABwAAAAAAHBBAAAAAWgAAAAd/55DsP///7T///8BAAAAFAAAABAAGgAIAAcADAAAABAAFAAQAAAAAAAAARwAAAAAAIhBHAAAAAIAAAAAAAoACAAFAAYABwAKAAAAAP1v//z///8EAAQABAAAAAgACAAGAAcACAAAAAAA/W8=</value>
								</parameter>
								<parameter authoringApp="PremierePro">
									<parameterid>2</parameterid>
									<name>トランスフォーム</name>
									<IsTimeVarying>false</IsTimeVarying>
									<ParameterControlType>11</ParameterControlType>
									<LowerBound>false</LowerBound>
									<UpperBound>false</UpperBound>
									<value>-91445760000000000,false,0,0,0,0,0,0</value>
								</parameter>
							</effect>
						</filter>
					</clipitem>
					<clipitem frameBlend="FALSE" id="clipitem-telop-65">
						<file id="file-2"/>
						<name>グラフィック</name>
						<rate>
							<timebase>59</timebase>
							<ntsc>TRUE</ntsc>
						</rate>
						<rate>
							<timebase>59</timebase>
							<ntsc>TRUE</ntsc>
						</rate>
						<duration>180</duration>
						<start>12592</start>
						<end>12772</end>
						<in>0</in>
						<out>180</out>
						<filter>
							<effect>
								<name></name>
								<effectid>GraphicAndType</effectid>
								<effectcategory>graphic</effectcategory>
								<effecttype>filter</effecttype>
								<mediatype>video</mediatype>
								<pproBypass>false</pproBypass>
								<parameter authoringApp="PremierePro">
									<parameterid>1</parameterid>
									<name>ソーステキスト</name>
									<hash>9da144c7-0b89-e7ae-5cc9-9e6c00000224</hash>
									<value>1AEAAAAAAABEMyIRDAAAAAAABgAKAAQABgAAAGQAAAAAAF4ASAAQAAwARABAADwAOAAAAAAAAAAAADQAMwAsAAAAKAAkACAAAAAAAAAAAAAAAAAAHAAAAAAAGgAAAAAAAAAUAAAAAAAAAAAAAAAAAAAAAAAAAAgAAAAAABsABwBeAAAAAAAAAUAAAABQAAAAbAAAAAIAAAAAAAEAAQAAAAAAQEEAAMBAAABAQAAAyEIAAAABIAAAAAIAAAACAAAAAAAQRACASkQA////BP///wj///8i////AAAAAAEAAAAEAAAAEQAAAEhHUFNvZWlLYWt1cG9wdGFpAAAAAQAAAAwAAAAIAAwABAAIAAgAAAAIAAAAQAAAADwAAADjgarjgpPjgYvjgYTjgYTjgarjgaPjgabmgajjgb7jgZfjgYTjgarjgaPjgabmgJ3jgaPjgZ/jgoLjgpM0ACAAAAAcABgAAAAAABcAEAAAAAAAAAAAAAAAAAAAAAAAAAAMAAAAAAAAAAgAAAAEADQAAAAcAAAAHAAAABwAAAAAAHBBAAAAAWgAAAAd/55DsP///7T///8BAAAAFAAAABAAGgAIAAcADAAAABAAFAAQAAAAAAAAARwAAAAAAIhBHAAAAAIAAAAAAAoACAAFAAYABwAKAAAAAP1v//z///8EAAQABAAAAAgACAAGAAcACAAAAAAA/W8=</value>
								</parameter>
								<parameter authoringApp="PremierePro">
									<parameterid>2</parameterid>
									<name>トランスフォーム</name>
									<IsTimeVarying>false</IsTimeVarying>
									<ParameterControlType>11</ParameterControlType>
									<LowerBound>false</LowerBound>
									<UpperBound>false</UpperBound>
									<value>-91445760000000000,false,0,0,0,0,0,0</value>
								</parameter>
							</effect>
						</filter>
					</clipitem>
					<clipitem frameBlend="FALSE" id="clipitem-telop-66">
						<file id="file-2"/>
						<name>グラフィック</name>
						<rate>
							<timebase>59</timebase>
							<ntsc>TRUE</ntsc>
						</rate>
						<rate>
							<timebase>59</timebase>
							<ntsc>TRUE</ntsc>
						</rate>
						<duration>300</duration>
						<start>12772</start>
						<end>13072</end>
						<in>0</in>
						<out>300</out>
						<filter>
							<effect>
								<name></name>
								<effectid>GraphicAndType</effectid>
								<effectcategory>graphic</effectcategory>
								<effecttype>filter</effecttype>
								<mediatype>video</mediatype>
								<pproBypass>false</pproBypass>
								<parameter authoringApp="PremierePro">
									<parameterid>1</parameterid>
									<name>ソーステキスト</name>
									<hash>9da144c7-0b89-e7ae-5cc9-9e6c00000224</hash>
									<value>1AEAAAAAAABEMyIRDAAAAAAABgAKAAQABgAAAGQAAAAAAF4ASAAQAAwARABAADwAOAAAAAAAAAAAADQAMwAsAAAAKAAkACAAAAAAAAAAAAAAAAAAHAAAAAAAGgAAAAAAAAAUAAAAAAAAAAAAAAAAAAAAAAAAAAgAAAAAABsABwBeAAAAAAAAAUAAAABQAAAAbAAAAAIAAAAAAAEAAQAAAAAAQEEAAMBAAABAQAAAyEIAAAABIAAAAAIAAAACAAAAAAAQRACASkQA////BP///wj///8i////AAAAAAEAAAAEAAAAEQAAAEhHUFNvZWlLYWt1cG9wdGFpAAAAAQAAAAwAAAAIAAwABAAIAAgAAAAIAAAAWwAAAFcAAADjgoLjgZfjgYvjgZfjgabjg5/jg6vjgq/jgYrlrKLmp5jjga/jgZ3jgYbjgYTjgYbmhJ/jgZjjga7nlLfmgKfjgYzlpb3jgY3jgarjga7jgafjgZnjgYsANAAgAAAAHAAYAAAAAAAXABAAAAAAAAAAAAAAAAAAAAAAAAAADAAAAAAAAAAIAAAABAA0AAAAHAAAABwAAAAcAAAAAABwQQAAAAFoAAAAHf+eQ7D///+0////AQAAABQAAAAQABoACAAHAAwAAAAQABQAEAAAAAAAAAEcAAAAAACIQRwAAAACAAAAAAAKAAgABQAGAAcACgAAAAD9b//8////BAAEAAQAAAAIAAgABgAHAAgAAAAAAP1v</value>
								</parameter>
								<parameter authoringApp="PremierePro">
									<parameterid>2</parameterid>
									<name>トランスフォーム</name>
									<IsTimeVarying>false</IsTimeVarying>
									<ParameterControlType>11</ParameterControlType>
									<LowerBound>false</LowerBound>
									<UpperBound>false</UpperBound>
									<value>-91445760000000000,false,0,0,0,0,0,0</value>
								</parameter>
							</effect>
						</filter>
					</clipitem>
					<clipitem frameBlend="FALSE" id="clipitem-telop-67">
						<file id="file-2"/>
						<name>グラフィック</name>
						<rate>
							<timebase>59</timebase>
							<ntsc>TRUE</ntsc>
						</rate>
						<rate>
							<timebase>59</timebase>
							<ntsc>TRUE</ntsc>
						</rate>
						<duration>180</duration>
						<start>13072</start>
						<end>13252</end>
						<in>0</in>
						<out>180</out>
						<filter>
							<effect>
								<name></name>
								<effectid>GraphicAndType</effectid>
								<effectcategory>graphic</effectcategory>
								<effecttype>filter</effecttype>
								<mediatype>video</mediatype>
								<pproBypass>false</pproBypass>
								<parameter authoringApp="PremierePro">
									<parameterid>1</parameterid>
									<name>ソーステキスト</name>
									<hash>9da144c7-0b89-e7ae-5cc9-9e6c00000224</hash>
									<value>1AEAAAAAAABEMyIRDAAAAAAABgAKAAQABgAAAGQAAAAAAF4ASAAQAAwARABAADwAOAAAAAAAAAAAADQAMwAsAAAAKAAkACAAAAAAAAAAAAAAAAAAHAAAAAAAGgAAAAAAAAAUAAAAAAAAAAAAAAAAAAAAAAAAAAgAAAAAABsABwBeAAAAAAAAAUAAAABQAAAAbAAAAAIAAAAAAAEAAQAAAAAAQEEAAMBAAABAQAAAyEIAAAABIAAAAAIAAAACAAAAAAAQRACASkQA////BP///wj///8i////AAAAAAEAAAAEAAAAEQAAAEhHUFNvZWlLYWt1cG9wdGFpAAAAAQAAAAwAAAAIAAwABAAIAAgAAAAIAAAALgAAACoAAADjgYjjgarjgpPjgYvjgafjgoLjgYTjgYTjgarjgaPjgabmgJ3jgaPjgaYAADQAIAAAABwAGAAAAAAAFwAQAAAAAAAAAAAAAAAAAAAAAAAAAAwAAAAAAAAACAAAAAQANAAAABwAAAAcAAAAHAAAAAAAcEEAAAABaAAAAB3/nkOw////tP///wEAAAAUAAAAEAAaAAgABwAMAAAAEAAUABAAAAAAAAABHAAAAAAAiEEcAAAAAgAAAAAACgAIAAUABgAHAAoAAAAA/W///P///wQABAAEAAAACAAIAAYABwAIAAAAAAD9bw==</value>
								</parameter>
								<parameter authoringApp="PremierePro">
									<parameterid>2</parameterid>
									<name>トランスフォーム</name>
									<IsTimeVarying>false</IsTimeVarying>
									<ParameterControlType>11</ParameterControlType>
									<LowerBound>false</LowerBound>
									<UpperBound>false</UpperBound>
									<value>-91445760000000000,false,0,0,0,0,0,0</value>
								</parameter>
							</effect>
						</filter>
					</clipitem>
					<clipitem frameBlend="FALSE" id="clipitem-telop-68">
						<file id="file-2"/>
						<name>グラフィック</name>
						<rate>
							<timebase>59</timebase>
							<ntsc>TRUE</ntsc>
						</rate>
						<rate>
							<timebase>59</timebase>
							<ntsc>TRUE</ntsc>
						</rate>
						<duration>120</duration>
						<start>13252</start>
						<end>13372</end>
						<in>0</in>
						<out>120</out>
						<filter>
							<effect>
								<name></name>
								<effectid>GraphicAndType</effectid>
								<effectcategory>graphic</effectcategory>
								<effecttype>filter</effecttype>
								<mediatype>video</mediatype>
								<pproBypass>false</pproBypass>
								<parameter authoringApp="PremierePro">
									<parameterid>1</parameterid>
									<name>ソーステキスト</name>
									<hash>9da144c7-0b89-e7ae-5cc9-9e6c00000224</hash>
									<value>1AEAAAAAAABEMyIRDAAAAAAABgAKAAQABgAAAGQAAAAAAF4ASAAQAAwARABAADwAOAAAAAAAAAAAADQAMwAsAAAAKAAkACAAAAAAAAAAAAAAAAAAHAAAAAAAGgAAAAAAAAAUAAAAAAAAAAAAAAAAAAAAAAAAAAgAAAAAABsABwBeAAAAAAAAAUAAAABQAAAAbAAAAAIAAAAAAAEAAQAAAAAAQEEAAMBAAABAQAAAyEIAAAABIAAAAAIAAAACAAAAAAAQRACASkQA////BP///wj///8i////AAAAAAEAAAAEAAAAEQAAAEhHUFNvZWlLYWt1cG9wdGFpAAAAAQAAAAwAAAAIAAwABAAIAAgAAAAIAAAAEAAAAAwAAADjgarjgovjgbvjgak0ACAAAAAcABgAAAAAABcAEAAAAAAAAAAAAAAAAAAAAAAAAAAMAAAAAAAAAAgAAAAEADQAAAAcAAAAHAAAABwAAAAAAHBBAAAAAWgAAAAd/55DsP///7T///8BAAAAFAAAABAAGgAIAAcADAAAABAAFAAQAAAAAAAAARwAAAAAAIhBHAAAAAIAAAAAAAoACAAFAAYABwAKAAAAAP1v//z///8EAAQABAAAAAgACAAGAAcACAAAAAAA/W8=</value>
								</parameter>
								<parameter authoringApp="PremierePro">
									<parameterid>2</parameterid>
									<name>トランスフォーム</name>
									<IsTimeVarying>false</IsTimeVarying>
									<ParameterControlType>11</ParameterControlType>
									<LowerBound>false</LowerBound>
									<UpperBound>false</UpperBound>
									<value>-91445760000000000,false,0,0,0,0,0,0</value>
								</parameter>
							</effect>
						</filter>
					</clipitem>
					<clipitem frameBlend="FALSE" id="clipitem-telop-69">
						<file id="file-2"/>
						<name>グラフィック</name>
						<rate>
							<timebase>59</timebase>
							<ntsc>TRUE</ntsc>
						</rate>
						<rate>
							<timebase>59</timebase>
							<ntsc>TRUE</ntsc>
						</rate>
						<duration>360</duration>
						<start>13372</start>
						<end>13732</end>
						<in>0</in>
						<out>360</out>
						<filter>
							<effect>
								<name></name>
								<effectid>GraphicAndType</effectid>
								<effectcategory>graphic</effectcategory>
								<effecttype>filter</effecttype>
								<mediatype>video</mediatype>
								<pproBypass>false</pproBypass>
								<parameter authoringApp="PremierePro">
									<parameterid>1</parameterid>
									<name>ソーステキスト</name>
									<hash>9da144c7-0b89-e7ae-5cc9-9e6c00000224</hash>
									<value>1AEAAAAAAABEMyIRDAAAAAAABgAKAAQABgAAAGQAAAAAAF4ASAAQAAwARABAADwAOAAAAAAAAAAAADQAMwAsAAAAKAAkACAAAAAAAAAAAAAAAAAAHAAAAAAAGgAAAAAAAAAUAAAAAAAAAAAAAAAAAAAAAAAAAAgAAAAAABsABwBeAAAAAAAAAUAAAABQAAAAbAAAAAIAAAAAAAEAAQAAAAAAQEEAAMBAAABAQAAAyEIAAAABIAAAAAIAAAACAAAAAAAQRACASkQA////BP///wj///8i////AAAAAAEAAAAEAAAAEQAAAEhHUFNvZWlLYWt1cG9wdGFpAAAAAQAAAAwAAAAIAAwABAAIAAgAAAAIAAAATwAAAEsAAADnp4HjgoLnp4HjgoLjgZPjga7jgojjgYbjgarlr77lv5zjgZnjgovjgZPjgajjgoLlj6/og73jgafjgZTjgZbjgYTjgb7jgZnjgogANAAgAAAAHAAYAAAAAAAXABAAAAAAAAAAAAAAAAAAAAAAAAAADAAAAAAAAAAIAAAABAA0AAAAHAAAABwAAAAcAAAAAABwQQAAAAFoAAAAHf+eQ7D///+0////AQAAABQAAAAQABoACAAHAAwAAAAQABQAEAAAAAAAAAEcAAAAAACIQRwAAAACAAAAAAAKAAgABQAGAAcACgAAAAD9b//8////BAAEAAQAAAAIAAgABgAHAAgAAAAAAP1v</value>
								</parameter>
								<parameter authoringApp="PremierePro">
									<parameterid>2</parameterid>
									<name>トランスフォーム</name>
									<IsTimeVarying>false</IsTimeVarying>
									<ParameterControlType>11</ParameterControlType>
									<LowerBound>false</LowerBound>
									<UpperBound>false</UpperBound>
									<value>-91445760000000000,false,0,0,0,0,0,0</value>
								</parameter>
							</effect>
						</filter>
					</clipitem>
					<clipitem frameBlend="FALSE" id="clipitem-telop-70">
						<file id="file-2"/>
						<name>グラフィック</name>
						<rate>
							<timebase>59</timebase>
							<ntsc>TRUE</ntsc>
						</rate>
						<rate>
							<timebase>59</timebase>
							<ntsc>TRUE</ntsc>
						</rate>
						<duration>480</duration>
						<start>13732</start>
						<end>14212</end>
						<in>0</in>
						<out>480</out>
						<filter>
							<effect>
								<name></name>
								<effectid>GraphicAndType</effectid>
								<effectcategory>graphic</effectcategory>
								<effecttype>filter</effecttype>
								<mediatype>video</mediatype>
								<pproBypass>false</pproBypass>
								<parameter authoringApp="PremierePro">
									<parameterid>1</parameterid>
									<name>ソーステキスト</name>
									<hash>9da144c7-0b89-e7ae-5cc9-9e6c00000224</hash>
									<value>1AEAAAAAAABEMyIRDAAAAAAABgAKAAQABgAAAGQAAAAAAF4ASAAQAAwARABAADwAOAAAAAAAAAAAADQAMwAsAAAAKAAkACAAAAAAAAAAAAAAAAAAHAAAAAAAGgAAAAAAAAAUAAAAAAAAAAAAAAAAAAAAAAAAAAgAAAAAABsABwBeAAAAAAAAAUAAAABQAAAAbAAAAAIAAAAAAAEAAQAAAAAAQEEAAMBAAABAQAAAyEIAAAABIAAAAAIAAAACAAAAAAAQRACASkQA////BP///wj///8i////AAAAAAEAAAAEAAAAEQAAAEhHUFNvZWlLYWt1cG9wdGFpAAAAAQAAAAwAAAAIAAwABAAIAAgAAAAIAAAAUgAAAE4AAADjgoLjgZfjgY/jga/jgYLjgarjgZ/jgYzmnJvjgoDjg5zjgqTjgrnjgpLjgYrlj5bjgorjgZnjgovjgZPjgajjgoLlj6/og73jgafjgZkAADQAIAAAABwAGAAAAAAAFwAQAAAAAAAAAAAAAAAAAAAAAAAAAAwAAAAAAAAACAAAAAQANAAAABwAAAAcAAAAHAAAAAAAcEEAAAABaAAAAB3/nkOw////tP///wEAAAAUAAAAEAAaAAgABwAMAAAAEAAUABAAAAAAAAABHAAAAAAAiEEcAAAAAgAAAAAACgAIAAUABgAHAAoAAAAA/W///P///wQABAAEAAAACAAIAAYABwAIAAAAAAD9bw==</value>
								</parameter>
								<parameter authoringApp="PremierePro">
									<parameterid>2</parameterid>
									<name>トランスフォーム</name>
									<IsTimeVarying>false</IsTimeVarying>
									<ParameterControlType>11</ParameterControlType>
									<LowerBound>false</LowerBound>
									<UpperBound>false</UpperBound>
									<value>-91445760000000000,false,0,0,0,0,0,0</value>
								</parameter>
							</effect>
						</filter>
					</clipitem>
					<clipitem frameBlend="FALSE" id="clipitem-telop-71">
						<file id="file-2"/>
						<name>グラフィック</name>
						<rate>
							<timebase>59</timebase>
							<ntsc>TRUE</ntsc>
						</rate>
						<rate>
							<timebase>59</timebase>
							<ntsc>TRUE</ntsc>
						</rate>
						<duration>120</duration>
						<start>14272</start>
						<end>14392</end>
						<in>0</in>
						<out>120</out>
						<filter>
							<effect>
								<name></name>
								<effectid>GraphicAndType</effectid>
								<effectcategory>graphic</effectcategory>
								<effecttype>filter</effecttype>
								<mediatype>video</mediatype>
								<pproBypass>false</pproBypass>
								<parameter authoringApp="PremierePro">
									<parameterid>1</parameterid>
									<name>ソーステキスト</name>
									<hash>9da144c7-0b89-e7ae-5cc9-9e6c00000224</hash>
									<value>1AEAAAAAAABEMyIRDAAAAAAABgAKAAQABgAAAGQAAAAAAF4ASAAQAAwARABAADwAOAAAAAAAAAAAADQAMwAsAAAAKAAkACAAAAAAAAAAAAAAAAAAHAAAAAAAGgAAAAAAAAAUAAAAAAAAAAAAAAAAAAAAAAAAAAgAAAAAABsABwBeAAAAAAAAAUAAAABQAAAAbAAAAAIAAAAAAAEAAQAAAAAAQEEAAMBAAABAQAAAyEIAAAABIAAAAAIAAAACAAAAAAAQRACASkQA////BP///wj///8i////AAAAAAEAAAAEAAAAEQAAAEhHUFNvZWlLYWt1cG9wdGFpAAAAAQAAAAwAAAAIAAwABAAIAAgAAAAIAAAAHQAAABkAAADjgarjgpPjgYvlkIzmp5jjgZfjgabjgos/AAAANAAgAAAAHAAYAAAAAAAXABAAAAAAAAAAAAAAAAAAAAAAAAAADAAAAAAAAAAIAAAABAA0AAAAHAAAABwAAAAcAAAAAABwQQAAAAFoAAAAHf+eQ7D///+0////AQAAABQAAAAQABoACAAHAAwAAAAQABQAEAAAAAAAAAEcAAAAAACIQRwAAAACAAAAAAAKAAgABQAGAAcACgAAAAD9b//8////BAAEAAQAAAAIAAgABgAHAAgAAAAAAP1v</value>
								</parameter>
								<parameter authoringApp="PremierePro">
									<parameterid>2</parameterid>
									<name>トランスフォーム</name>
									<IsTimeVarying>false</IsTimeVarying>
									<ParameterControlType>11</ParameterControlType>
									<LowerBound>false</LowerBound>
									<UpperBound>false</UpperBound>
									<value>-91445760000000000,false,0,0,0,0,0,0</value>
								</parameter>
							</effect>
						</filter>
					</clipitem>
					<clipitem frameBlend="FALSE" id="clipitem-telop-72">
						<file id="file-2"/>
						<name>グラフィック</name>
						<rate>
							<timebase>59</timebase>
							<ntsc>TRUE</ntsc>
						</rate>
						<rate>
							<timebase>59</timebase>
							<ntsc>TRUE</ntsc>
						</rate>
						<duration>60</duration>
						<start>14392</start>
						<end>14452</end>
						<in>0</in>
						<out>60</out>
						<filter>
							<effect>
								<name></name>
								<effectid>GraphicAndType</effectid>
								<effectcategory>graphic</effectcategory>
								<effecttype>filter</effecttype>
								<mediatype>video</mediatype>
								<pproBypass>false</pproBypass>
								<parameter authoringApp="PremierePro">
									<parameterid>1</parameterid>
									<name>ソーステキスト</name>
									<hash>9da144c7-0b89-e7ae-5cc9-9e6c00000224</hash>
									<value>1AEAAAAAAABEMyIRDAAAAAAABgAKAAQABgAAAGQAAAAAAF4ASAAQAAwARABAADwAOAAAAAAAAAAAADQAMwAsAAAAKAAkACAAAAAAAAAAAAAAAAAAHAAAAAAAGgAAAAAAAAAUAAAAAAAAAAAAAAAAAAAAAAAAAAgAAAAAABsABwBeAAAAAAAAAUAAAABQAAAAbAAAAAIAAAAAAAEAAQAAAAAAQEEAAMBAAABAQAAAyEIAAAABIAAAAAIAAAACAAAAAAAQRACASkQA////BP///wj///8i////AAAAAAEAAAAEAAAAEQAAAEhHUFNvZWlLYWt1cG9wdGFpAAAAAQAAAAwAAAAIAAwABAAIAAgAAAAIAAAAEwAAAA8AAADjgbvjgpPjgajjgoTjgpMANAAgAAAAHAAYAAAAAAAXABAAAAAAAAAAAAAAAAAAAAAAAAAADAAAAAAAAAAIAAAABAA0AAAAHAAAABwAAAAcAAAAAABwQQAAAAFoAAAAHf+eQ7D///+0////AQAAABQAAAAQABoACAAHAAwAAAAQABQAEAAAAAAAAAEcAAAAAACIQRwAAAACAAAAAAAKAAgABQAGAAcACgAAAAD9b//8////BAAEAAQAAAAIAAgABgAHAAgAAAAAAP1v</value>
								</parameter>
								<parameter authoringApp="PremierePro">
									<parameterid>2</parameterid>
									<name>トランスフォーム</name>
									<IsTimeVarying>false</IsTimeVarying>
									<ParameterControlType>11</ParameterControlType>
									<LowerBound>false</LowerBound>
									<UpperBound>false</UpperBound>
									<value>-91445760000000000,false,0,0,0,0,0,0</value>
								</parameter>
							</effect>
						</filter>
					</clipitem>
					<clipitem frameBlend="FALSE" id="clipitem-telop-73">
						<file id="file-2"/>
						<name>グラフィック</name>
						<rate>
							<timebase>59</timebase>
							<ntsc>TRUE</ntsc>
						</rate>
						<rate>
							<timebase>59</timebase>
							<ntsc>TRUE</ntsc>
						</rate>
						<duration>60</duration>
						<start>14452</start>
						<end>14512</end>
						<in>0</in>
						<out>60</out>
						<filter>
							<effect>
								<name></name>
								<effectid>GraphicAndType</effectid>
								<effectcategory>graphic</effectcategory>
								<effecttype>filter</effecttype>
								<mediatype>video</mediatype>
								<pproBypass>false</pproBypass>
								<parameter authoringApp="PremierePro">
									<parameterid>1</parameterid>
									<name>ソーステキスト</name>
									<hash>9da144c7-0b89-e7ae-5cc9-9e6c00000224</hash>
									<value>1AEAAAAAAABEMyIRDAAAAAAABgAKAAQABgAAAGQAAAAAAF4ASAAQAAwARABAADwAOAAAAAAAAAAAADQAMwAsAAAAKAAkACAAAAAAAAAAAAAAAAAAHAAAAAAAGgAAAAAAAAAUAAAAAAAAAAAAAAAAAAAAAAAAAAgAAAAAABsABwBeAAAAAAAAAUAAAABQAAAAbAAAAAIAAAAAAAEAAQAAAAAAQEEAAMBAAABAQAAAyEIAAAABIAAAAAIAAAACAAAAAAAQRACASkQA////BP///wj///8i////AAAAAAEAAAAEAAAAEQAAAEhHUFNvZWlLYWt1cG9wdGFpAAAAAQAAAAwAAAAIAAwABAAIAAgAAAAIAAAAEAAAAAwAAADjgYTjgYTjgYTjgYQ0ACAAAAAcABgAAAAAABcAEAAAAAAAAAAAAAAAAAAAAAAAAAAMAAAAAAAAAAgAAAAEADQAAAAcAAAAHAAAABwAAAAAAHBBAAAAAWgAAAAd/55DsP///7T///8BAAAAFAAAABAAGgAIAAcADAAAABAAFAAQAAAAAAAAARwAAAAAAIhBHAAAAAIAAAAAAAoACAAFAAYABwAKAAAAAP1v//z///8EAAQABAAAAAgACAAGAAcACAAAAAAA/W8=</value>
								</parameter>
								<parameter authoringApp="PremierePro">
									<parameterid>2</parameterid>
									<name>トランスフォーム</name>
									<IsTimeVarying>false</IsTimeVarying>
									<ParameterControlType>11</ParameterControlType>
									<LowerBound>false</LowerBound>
									<UpperBound>false</UpperBound>
									<value>-91445760000000000,false,0,0,0,0,0,0</value>
								</parameter>
							</effect>
						</filter>
					</clipitem>
					<clipitem frameBlend="FALSE" id="clipitem-telop-74">
						<file id="file-2"/>
						<name>グラフィック</name>
						<rate>
							<timebase>59</timebase>
							<ntsc>TRUE</ntsc>
						</rate>
						<rate>
							<timebase>59</timebase>
							<ntsc>TRUE</ntsc>
						</rate>
						<duration>180</duration>
						<start>14512</start>
						<end>14692</end>
						<in>0</in>
						<out>180</out>
						<filter>
							<effect>
								<name></name>
								<effectid>GraphicAndType</effectid>
								<effectcategory>graphic</effectcategory>
								<effecttype>filter</effecttype>
								<mediatype>video</mediatype>
								<pproBypass>false</pproBypass>
								<parameter authoringApp="PremierePro">
									<parameterid>1</parameterid>
									<name>ソーステキスト</name>
									<hash>9da144c7-0b89-e7ae-5cc9-9e6c00000224</hash>
									<value>1AEAAAAAAABEMyIRDAAAAAAABgAKAAQABgAAAGQAAAAAAF4ASAAQAAwARABAADwAOAAAAAAAAAAAADQAMwAsAAAAKAAkACAAAAAAAAAAAAAAAAAAHAAAAAAAGgAAAAAAAAAUAAAAAAAAAAAAAAAAAAAAAAAAAAgAAAAAABsABwBeAAAAAAAAAUAAAABQAAAAbAAAAAIAAAAAAAEAAQAAAAAAQEEAAMBAAABAQAAAyEIAAAABIAAAAAIAAAACAAAAAAAQRACASkQA////BP///wj///8i////AAAAAAEAAAAEAAAAEQAAAEhHUFNvZWlLYWt1cG9wdGFpAAAAAQAAAAwAAAAIAAwABAAIAAgAAAAIAAAAMQAAAC0AAADlh7rkuovjga/lkIzmp5jjgarjgpPjgablhajjgY/jgZfjgb7jgZvjgpPjgogAAAA0ACAAAAAcABgAAAAAABcAEAAAAAAAAAAAAAAAAAAAAAAAAAAMAAAAAAAAAAgAAAAEADQAAAAcAAAAHAAAABwAAAAAAHBBAAAAAWgAAAAd/55DsP///7T///8BAAAAFAAAABAAGgAIAAcADAAAABAAFAAQAAAAAAAAARwAAAAAAIhBHAAAAAIAAAAAAAoACAAFAAYABwAKAAAAAP1v//z///8EAAQABAAAAAgACAAGAAcACAAAAAAA/W8=</value>
								</parameter>
								<parameter authoringApp="PremierePro">
									<parameterid>2</parameterid>
									<name>トランスフォーム</name>
									<IsTimeVarying>false</IsTimeVarying>
									<ParameterControlType>11</ParameterControlType>
									<LowerBound>false</LowerBound>
									<UpperBound>false</UpperBound>
									<value>-91445760000000000,false,0,0,0,0,0,0</value>
								</parameter>
							</effect>
						</filter>
					</clipitem>
					<clipitem frameBlend="FALSE" id="clipitem-telop-75">
						<file id="file-2"/>
						<name>グラフィック</name>
						<rate>
							<timebase>59</timebase>
							<ntsc>TRUE</ntsc>
						</rate>
						<rate>
							<timebase>59</timebase>
							<ntsc>TRUE</ntsc>
						</rate>
						<duration>120</duration>
						<start>14692</start>
						<end>14812</end>
						<in>0</in>
						<out>120</out>
						<filter>
							<effect>
								<name></name>
								<effectid>GraphicAndType</effectid>
								<effectcategory>graphic</effectcategory>
								<effecttype>filter</effecttype>
								<mediatype>video</mediatype>
								<pproBypass>false</pproBypass>
								<parameter authoringApp="PremierePro">
									<parameterid>1</parameterid>
									<name>ソーステキスト</name>
									<hash>9da144c7-0b89-e7ae-5cc9-9e6c00000224</hash>
									<value>1AEAAAAAAABEMyIRDAAAAAAABgAKAAQABgAAAGQAAAAAAF4ASAAQAAwARABAADwAOAAAAAAAAAAAADQAMwAsAAAAKAAkACAAAAAAAAAAAAAAAAAAHAAAAAAAGgAAAAAAAAAUAAAAAAAAAAAAAAAAAAAAAAAAAAgAAAAAABsABwBeAAAAAAAAAUAAAABQAAAAbAAAAAIAAAAAAAEAAQAAAAAAQEEAAMBAAABAQAAAyEIAAAABIAAAAAIAAAACAAAAAAAQRACASkQA////BP///wj///8i////AAAAAAEAAAAEAAAAEQAAAEhHUFNvZWlLYWt1cG9wdGFpAAAAAQAAAAwAAAAIAAwABAAIAAgAAAAIAAAAIgAAAB4AAADjgZfjgZ/jgYTjgojjga3jgZ3jgYbjgaDjgojjga0AADQAIAAAABwAGAAAAAAAFwAQAAAAAAAAAAAAAAAAAAAAAAAAAAwAAAAAAAAACAAAAAQANAAAABwAAAAcAAAAHAAAAAAAcEEAAAABaAAAAB3/nkOw////tP///wEAAAAUAAAAEAAaAAgABwAMAAAAEAAUABAAAAAAAAABHAAAAAAAiEEcAAAAAgAAAAAACgAIAAUABgAHAAoAAAAA/W///P///wQABAAEAAAACAAIAAYABwAIAAAAAAD9bw==</value>
								</parameter>
								<parameter authoringApp="PremierePro">
									<parameterid>2</parameterid>
									<name>トランスフォーム</name>
									<IsTimeVarying>false</IsTimeVarying>
									<ParameterControlType>11</ParameterControlType>
									<LowerBound>false</LowerBound>
									<UpperBound>false</UpperBound>
									<value>-91445760000000000,false,0,0,0,0,0,0</value>
								</parameter>
							</effect>
						</filter>
					</clipitem>
					<clipitem frameBlend="FALSE" id="clipitem-telop-76">
						<file id="file-2"/>
						<name>グラフィック</name>
						<rate>
							<timebase>59</timebase>
							<ntsc>TRUE</ntsc>
						</rate>
						<rate>
							<timebase>59</timebase>
							<ntsc>TRUE</ntsc>
						</rate>
						<duration>240</duration>
						<start>14932</start>
						<end>15172</end>
						<in>0</in>
						<out>240</out>
						<filter>
							<effect>
								<name></name>
								<effectid>GraphicAndType</effectid>
								<effectcategory>graphic</effectcategory>
								<effecttype>filter</effecttype>
								<mediatype>video</mediatype>
								<pproBypass>false</pproBypass>
								<parameter authoringApp="PremierePro">
									<parameterid>1</parameterid>
									<name>ソーステキスト</name>
									<hash>9da144c7-0b89-e7ae-5cc9-9e6c00000224</hash>
									<value>1AEAAAAAAABEMyIRDAAAAAAABgAKAAQABgAAAGQAAAAAAF4ASAAQAAwARABAADwAOAAAAAAAAAAAADQAMwAsAAAAKAAkACAAAAAAAAAAAAAAAAAAHAAAAAAAGgAAAAAAAAAUAAAAAAAAAAAAAAAAAAAAAAAAAAgAAAAAABsABwBeAAAAAAAAAUAAAABQAAAAbAAAAAIAAAAAAAEAAQAAAAAAQEEAAMBAAABAQAAAyEIAAAABIAAAAAIAAAACAAAAAAAQRACASkQA////BP///wj///8i////AAAAAAEAAAAEAAAAEQAAAEhHUFNvZWlLYWt1cG9wdGFpAAAAAQAAAAwAAAAIAAwABAAIAAgAAAAIAAAAPQAAADkAAADjg5/jg6vjgq/jgYrlrKLmp5jjgYzjgYrlubjjgZvjgavku4rml6Xlr53jgozjgovjgojjgYbjgasAAAA0ACAAAAAcABgAAAAAABcAEAAAAAAAAAAAAAAAAAAAAAAAAAAMAAAAAAAAAAgAAAAEADQAAAAcAAAAHAAAABwAAAAAAHBBAAAAAWgAAAAd/55DsP///7T///8BAAAAFAAAABAAGgAIAAcADAAAABAAFAAQAAAAAAAAARwAAAAAAIhBHAAAAAIAAAAAAAoACAAFAAYABwAKAAAAAP1v//z///8EAAQABAAAAAgACAAGAAcACAAAAAAA/W8=</value>
								</parameter>
								<parameter authoringApp="PremierePro">
									<parameterid>2</parameterid>
									<name>トランスフォーム</name>
									<IsTimeVarying>false</IsTimeVarying>
									<ParameterControlType>11</ParameterControlType>
									<LowerBound>false</LowerBound>
									<UpperBound>false</UpperBound>
									<value>-91445760000000000,false,0,0,0,0,0,0</value>
								</parameter>
							</effect>
						</filter>
					</clipitem>
					<clipitem frameBlend="FALSE" id="clipitem-telop-77">
						<file id="file-2"/>
						<name>グラフィック</name>
						<rate>
							<timebase>59</timebase>
							<ntsc>TRUE</ntsc>
						</rate>
						<rate>
							<timebase>59</timebase>
							<ntsc>TRUE</ntsc>
						</rate>
						<duration>240</duration>
						<start>15172</start>
						<end>15412</end>
						<in>0</in>
						<out>240</out>
						<filter>
							<effect>
								<name></name>
								<effectid>GraphicAndType</effectid>
								<effectcategory>graphic</effectcategory>
								<effecttype>filter</effecttype>
								<mediatype>video</mediatype>
								<pproBypass>false</pproBypass>
								<parameter authoringApp="PremierePro">
									<parameterid>1</parameterid>
									<name>ソーステキスト</name>
									<hash>9da144c7-0b89-e7ae-5cc9-9e6c00000224</hash>
									<value>1AEAAAAAAABEMyIRDAAAAAAABgAKAAQABgAAAGQAAAAAAF4ASAAQAAwARABAADwAOAAAAAAAAAAAADQAMwAsAAAAKAAkACAAAAAAAAAAAAAAAAAAHAAAAAAAGgAAAAAAAAAUAAAAAAAAAAAAAAAAAAAAAAAAAAgAAAAAABsABwBeAAAAAAAAAUAAAABQAAAAbAAAAAIAAAAAAAEAAQAAAAAAQEEAAMBAAABAQAAAyEIAAAABIAAAAAIAAAACAAAAAAAQRACASkQA////BP///wj///8i////AAAAAAEAAAAEAAAAEQAAAEhHUFNvZWlLYWt1cG9wdGFpAAAAAQAAAAwAAAAIAAwABAAIAAgAAAAIAAAAMQAAAC0AAADlnLDln5/jgarjganjg5zjgqTjgrnjgarjganjgYTjgYvjgYzjgafjgZnjgYsAAAA0ACAAAAAcABgAAAAAABcAEAAAAAAAAAAAAAAAAAAAAAAAAAAMAAAAAAAAAAgAAAAEADQAAAAcAAAAHAAAABwAAAAAAHBBAAAAAWgAAAAd/55DsP///7T///8BAAAAFAAAABAAGgAIAAcADAAAABAAFAAQAAAAAAAAARwAAAAAAIhBHAAAAAIAAAAAAAoACAAFAAYABwAKAAAAAP1v//z///8EAAQABAAAAAgACAAGAAcACAAAAAAA/W8=</value>
								</parameter>
								<parameter authoringApp="PremierePro">
									<parameterid>2</parameterid>
									<name>トランスフォーム</name>
									<IsTimeVarying>false</IsTimeVarying>
									<ParameterControlType>11</ParameterControlType>
									<LowerBound>false</LowerBound>
									<UpperBound>false</UpperBound>
									<value>-91445760000000000,false,0,0,0,0,0,0</value>
								</parameter>
							</effect>
						</filter>
					</clipitem>
					<clipitem frameBlend="FALSE" id="clipitem-telop-78">
						<file id="file-2"/>
						<name>グラフィック</name>
						<rate>
							<timebase>59</timebase>
							<ntsc>TRUE</ntsc>
						</rate>
						<rate>
							<timebase>59</timebase>
							<ntsc>TRUE</ntsc>
						</rate>
						<duration>240</duration>
						<start>15412</start>
						<end>15652</end>
						<in>0</in>
						<out>240</out>
						<filter>
							<effect>
								<name></name>
								<effectid>GraphicAndType</effectid>
								<effectcategory>graphic</effectcategory>
								<effecttype>filter</effecttype>
								<mediatype>video</mediatype>
								<pproBypass>false</pproBypass>
								<parameter authoringApp="PremierePro">
									<parameterid>1</parameterid>
									<name>ソーステキスト</name>
									<hash>9da144c7-0b89-e7ae-5cc9-9e6c00000224</hash>
									<value>1AEAAAAAAABEMyIRDAAAAAAABgAKAAQABgAAAGQAAAAAAF4ASAAQAAwARABAADwAOAAAAAAAAAAAADQAMwAsAAAAKAAkACAAAAAAAAAAAAAAAAAAHAAAAAAAGgAAAAAAAAAUAAAAAAAAAAAAAAAAAAAAAAAAAAgAAAAAABsABwBeAAAAAAAAAUAAAABQAAAAbAAAAAIAAAAAAAEAAQAAAAAAQEEAAMBAAABAQAAAyEIAAAABIAAAAAIAAAACAAAAAAAQRACASkQA////BP///wj///8i////AAAAAAEAAAAEAAAAEQAAAEhHUFNvZWlLYWt1cG9wdGFpAAAAAQAAAAwAAAAIAAwABAAIAAgAAAAIAAAALwAAACsAAADlubjjgZvjgavlr53jgozjgovjgojjgYbjgavlnLDln5/jgaPjgabkvZU/ADQAIAAAABwAGAAAAAAAFwAQAAAAAAAAAAAAAAAAAAAAAAAAAAwAAAAAAAAACAAAAAQANAAAABwAAAAcAAAAHAAAAAAAcEEAAAABaAAAAB3/nkOw////tP///wEAAAAUAAAAEAAaAAgABwAMAAAAEAAUABAAAAAAAAABHAAAAAAAiEEcAAAAAgAAAAAACgAIAAUABgAHAAoAAAAA/W///P///wQABAAEAAAACAAIAAYABwAIAAAAAAD9bw==</value>
								</parameter>
								<parameter authoringApp="PremierePro">
									<parameterid>2</parameterid>
									<name>トランスフォーム</name>
									<IsTimeVarying>false</IsTimeVarying>
									<ParameterControlType>11</ParameterControlType>
									<LowerBound>false</LowerBound>
									<UpperBound>false</UpperBound>
									<value>-91445760000000000,false,0,0,0,0,0,0</value>
								</parameter>
							</effect>
						</filter>
					</clipitem>
					<clipitem frameBlend="FALSE" id="clipitem-telop-79">
						<file id="file-2"/>
						<name>グラフィック</name>
						<rate>
							<timebase>59</timebase>
							<ntsc>TRUE</ntsc>
						</rate>
						<rate>
							<timebase>59</timebase>
							<ntsc>TRUE</ntsc>
						</rate>
						<duration>60</duration>
						<start>15652</start>
						<end>15712</end>
						<in>0</in>
						<out>60</out>
						<filter>
							<effect>
								<name></name>
								<effectid>GraphicAndType</effectid>
								<effectcategory>graphic</effectcategory>
								<effecttype>filter</effecttype>
								<mediatype>video</mediatype>
								<pproBypass>false</pproBypass>
								<parameter authoringApp="PremierePro">
									<parameterid>1</parameterid>
									<name>ソーステキスト</name>
									<hash>9da144c7-0b89-e7ae-5cc9-9e6c00000224</hash>
									<value>1AEAAAAAAABEMyIRDAAAAAAABgAKAAQABgAAAGQAAAAAAF4ASAAQAAwARABAADwAOAAAAAAAAAAAADQAMwAsAAAAKAAkACAAAAAAAAAAAAAAAAAAHAAAAAAAGgAAAAAAAAAUAAAAAAAAAAAAAAAAAAAAAAAAAAgAAAAAABsABwBeAAAAAAAAAUAAAABQAAAAbAAAAAIAAAAAAAEAAQAAAAAAQEEAAMBAAABAQAAAyEIAAAABIAAAAAIAAAACAAAAAAAQRACASkQA////BP///wj///8i////AAAAAAEAAAAEAAAAEQAAAEhHUFNvZWlLYWt1cG9wdGFpAAAAAQAAAAwAAAAIAAwABAAIAAgAAAAIAAAAGQAAABUAAADjgZ3jgozjga/jgoLjgaHjgo3jgpMAAAA0ACAAAAAcABgAAAAAABcAEAAAAAAAAAAAAAAAAAAAAAAAAAAMAAAAAAAAAAgAAAAEADQAAAAcAAAAHAAAABwAAAAAAHBBAAAAAWgAAAAd/55DsP///7T///8BAAAAFAAAABAAGgAIAAcADAAAABAAFAAQAAAAAAAAARwAAAAAAIhBHAAAAAIAAAAAAAoACAAFAAYABwAKAAAAAP1v//z///8EAAQABAAAAAgACAAGAAcACAAAAAAA/W8=</value>
								</parameter>
								<parameter authoringApp="PremierePro">
									<parameterid>2</parameterid>
									<name>トランスフォーム</name>
									<IsTimeVarying>false</IsTimeVarying>
									<ParameterControlType>11</ParameterControlType>
									<LowerBound>false</LowerBound>
									<UpperBound>false</UpperBound>
									<value>-91445760000000000,false,0,0,0,0,0,0</value>
								</parameter>
							</effect>
						</filter>
					</clipitem>
					<clipitem frameBlend="FALSE" id="clipitem-telop-80">
						<file id="file-2"/>
						<name>グラフィック</name>
						<rate>
							<timebase>59</timebase>
							<ntsc>TRUE</ntsc>
						</rate>
						<rate>
							<timebase>59</timebase>
							<ntsc>TRUE</ntsc>
						</rate>
						<duration>60</duration>
						<start>15712</start>
						<end>15772</end>
						<in>0</in>
						<out>60</out>
						<filter>
							<effect>
								<name></name>
								<effectid>GraphicAndType</effectid>
								<effectcategory>graphic</effectcategory>
								<effecttype>filter</effecttype>
								<mediatype>video</mediatype>
								<pproBypass>false</pproBypass>
								<parameter authoringApp="PremierePro">
									<parameterid>1</parameterid>
									<name>ソーステキスト</name>
									<hash>9da144c7-0b89-e7ae-5cc9-9e6c00000224</hash>
									<value>1AEAAAAAAABEMyIRDAAAAAAABgAKAAQABgAAAGQAAAAAAF4ASAAQAAwARABAADwAOAAAAAAAAAAAADQAMwAsAAAAKAAkACAAAAAAAAAAAAAAAAAAHAAAAAAAGgAAAAAAAAAUAAAAAAAAAAAAAAAAAAAAAAAAAAgAAAAAABsABwBeAAAAAAAAAUAAAABQAAAAbAAAAAIAAAAAAAEAAQAAAAAAQEEAAMBAAABAQAAAyEIAAAABIAAAAAIAAAACAAAAAAAQRACASkQA////BP///wj///8i////AAAAAAEAAAAEAAAAEQAAAEhHUFNvZWlLYWt1cG9wdGFpAAAAAQAAAAwAAAAIAAwABAAIAAgAAAAIAAAAHQAAABkAAADjganjgYbjgYTjgYbmhI/lkbPjgZ3jgow/AAAANAAgAAAAHAAYAAAAAAAXABAAAAAAAAAAAAAAAAAAAAAAAAAADAAAAAAAAAAIAAAABAA0AAAAHAAAABwAAAAcAAAAAABwQQAAAAFoAAAAHf+eQ7D///+0////AQAAABQAAAAQABoACAAHAAwAAAAQABQAEAAAAAAAAAEcAAAAAACIQRwAAAACAAAAAAAKAAgABQAGAAcACgAAAAD9b//8////BAAEAAQAAAAIAAgABgAHAAgAAAAAAP1v</value>
								</parameter>
								<parameter authoringApp="PremierePro">
									<parameterid>2</parameterid>
									<name>トランスフォーム</name>
									<IsTimeVarying>false</IsTimeVarying>
									<ParameterControlType>11</ParameterControlType>
									<LowerBound>false</LowerBound>
									<UpperBound>false</UpperBound>
									<value>-91445760000000000,false,0,0,0,0,0,0</value>
								</parameter>
							</effect>
						</filter>
					</clipitem>
					<clipitem frameBlend="FALSE" id="clipitem-telop-81">
						<file id="file-2"/>
						<name>グラフィック</name>
						<rate>
							<timebase>59</timebase>
							<ntsc>TRUE</ntsc>
						</rate>
						<rate>
							<timebase>59</timebase>
							<ntsc>TRUE</ntsc>
						</rate>
						<duration>120</duration>
						<start>15772</start>
						<end>15892</end>
						<in>0</in>
						<out>120</out>
						<filter>
							<effect>
								<name></name>
								<effectid>GraphicAndType</effectid>
								<effectcategory>graphic</effectcategory>
								<effecttype>filter</effecttype>
								<mediatype>video</mediatype>
								<pproBypass>false</pproBypass>
								<parameter authoringApp="PremierePro">
									<parameterid>1</parameterid>
									<name>ソーステキスト</name>
									<hash>9da144c7-0b89-e7ae-5cc9-9e6c00000224</hash>
									<value>1AEAAAAAAABEMyIRDAAAAAAABgAKAAQABgAAAGQAAAAAAF4ASAAQAAwARABAADwAOAAAAAAAAAAAADQAMwAsAAAAKAAkACAAAAAAAAAAAAAAAAAAHAAAAAAAGgAAAAAAAAAUAAAAAAAAAAAAAAAAAAAAAAAAAAgAAAAAABsABwBeAAAAAAAAAUAAAABQAAAAbAAAAAIAAAAAAAEAAQAAAAAAQEEAAMBAAABAQAAAyEIAAAABIAAAAAIAAAACAAAAAAAQRACASkQA////BP///wj///8i////AAAAAAEAAAAEAAAAEQAAAEhHUFNvZWlLYWt1cG9wdGFpAAAAAQAAAAwAAAAIAAwABAAIAAgAAAAIAAAALgAAACoAAADjg5/jg6vjgq/jgYrlrKLmp5jjga7jgYrjgYvjgZLjga7jgZPjgajjgasAADQAIAAAABwAGAAAAAAAFwAQAAAAAAAAAAAAAAAAAAAAAAAAAAwAAAAAAAAACAAAAAQANAAAABwAAAAcAAAAHAAAAAAAcEEAAAABaAAAAB3/nkOw////tP///wEAAAAUAAAAEAAaAAgABwAMAAAAEAAUABAAAAAAAAABHAAAAAAAiEEcAAAAAgAAAAAACgAIAAUABgAHAAoAAAAA/W///P///wQABAAEAAAACAAIAAYABwAIAAAAAAD9bw==</value>
								</parameter>
								<parameter authoringApp="PremierePro">
									<parameterid>2</parameterid>
									<name>トランスフォーム</name>
									<IsTimeVarying>false</IsTimeVarying>
									<ParameterControlType>11</ParameterControlType>
									<LowerBound>false</LowerBound>
									<UpperBound>false</UpperBound>
									<value>-91445760000000000,false,0,0,0,0,0,0</value>
								</parameter>
							</effect>
						</filter>
					</clipitem>
					<clipitem frameBlend="FALSE" id="clipitem-telop-82">
						<file id="file-2"/>
						<name>グラフィック</name>
						<rate>
							<timebase>59</timebase>
							<ntsc>TRUE</ntsc>
						</rate>
						<rate>
							<timebase>59</timebase>
							<ntsc>TRUE</ntsc>
						</rate>
						<duration>240</duration>
						<start>15892</start>
						<end>16132</end>
						<in>0</in>
						<out>240</out>
						<filter>
							<effect>
								<name></name>
								<effectid>GraphicAndType</effectid>
								<effectcategory>graphic</effectcategory>
								<effecttype>filter</effecttype>
								<mediatype>video</mediatype>
								<pproBypass>false</pproBypass>
								<parameter authoringApp="PremierePro">
									<parameterid>1</parameterid>
									<name>ソーステキスト</name>
									<hash>9da144c7-0b89-e7ae-5cc9-9e6c00000224</hash>
									<value>1AEAAAAAAABEMyIRDAAAAAAABgAKAAQABgAAAGQAAAAAAF4ASAAQAAwARABAADwAOAAAAAAAAAAAADQAMwAsAAAAKAAkACAAAAAAAAAAAAAAAAAAHAAAAAAAGgAAAAAAAAAUAAAAAAAAAAAAAAAAAAAAAAAAAAgAAAAAABsABwBeAAAAAAAAAUAAAABQAAAAbAAAAAIAAAAAAAEAAQAAAAAAQEEAAMBAAABAQAAAyEIAAAABIAAAAAIAAAACAAAAAAAQRACASkQA////BP///wj///8i////AAAAAAEAAAAEAAAAEQAAAEhHUFNvZWlLYWt1cG9wdGFpAAAAAQAAAAwAAAAIAAwABAAIAAgAAAAIAAAANwAAADMAAADjgZPjgZPjga7lh7rkuovjgaPjgabjgb/jgpPjgarjg6Hjg6vjgq/jga7jgZPjgajjgZUANAAgAAAAHAAYAAAAAAAXABAAAAAAAAAAAAAAAAAAAAAAAAAADAAAAAAAAAAIAAAABAA0AAAAHAAAABwAAAAcAAAAAABwQQAAAAFoAAAAHf+eQ7D///+0////AQAAABQAAAAQABoACAAHAAwAAAAQABQAEAAAAAAAAAEcAAAAAACIQRwAAAACAAAAAAAKAAgABQAGAAcACgAAAAD9b//8////BAAEAAQAAAAIAAgABgAHAAgAAAAAAP1v</value>
								</parameter>
								<parameter authoringApp="PremierePro">
									<parameterid>2</parameterid>
									<name>トランスフォーム</name>
									<IsTimeVarying>false</IsTimeVarying>
									<ParameterControlType>11</ParameterControlType>
									<LowerBound>false</LowerBound>
									<UpperBound>false</UpperBound>
									<value>-91445760000000000,false,0,0,0,0,0,0</value>
								</parameter>
							</effect>
						</filter>
					</clipitem>
					<clipitem frameBlend="FALSE" id="clipitem-telop-83">
						<file id="file-2"/>
						<name>グラフィック</name>
						<rate>
							<timebase>59</timebase>
							<ntsc>TRUE</ntsc>
						</rate>
						<rate>
							<timebase>59</timebase>
							<ntsc>TRUE</ntsc>
						</rate>
						<duration>120</duration>
						<start>16132</start>
						<end>16252</end>
						<in>0</in>
						<out>120</out>
						<filter>
							<effect>
								<name></name>
								<effectid>GraphicAndType</effectid>
								<effectcategory>graphic</effectcategory>
								<effecttype>filter</effecttype>
								<mediatype>video</mediatype>
								<pproBypass>false</pproBypass>
								<parameter authoringApp="PremierePro">
									<parameterid>1</parameterid>
									<name>ソーステキスト</name>
									<hash>9da144c7-0b89-e7ae-5cc9-9e6c00000224</hash>
									<value>1AEAAAAAAABEMyIRDAAAAAAABgAKAAQABgAAAGQAAAAAAF4ASAAQAAwARABAADwAOAAAAAAAAAAAADQAMwAsAAAAKAAkACAAAAAAAAAAAAAAAAAAHAAAAAAAGgAAAAAAAAAUAAAAAAAAAAAAAAAAAAAAAAAAAAgAAAAAABsABwBeAAAAAAAAAUAAAABQAAAAbAAAAAIAAAAAAAEAAQAAAAAAQEEAAMBAAABAQAAAyEIAAAABIAAAAAIAAAACAAAAAAAQRACASkQA////BP///wj///8i////AAAAAAEAAAAEAAAAEQAAAEhHUFNvZWlLYWt1cG9wdGFpAAAAAQAAAAwAAAAIAAwABAAIAAgAAAAIAAAAJQAAACEAAADlv4XjgZrjgZfjgYvmgJ3jgaPjgabjgarjgYTjgojjga0AAAA0ACAAAAAcABgAAAAAABcAEAAAAAAAAAAAAAAAAAAAAAAAAAAMAAAAAAAAAAgAAAAEADQAAAAcAAAAHAAAABwAAAAAAHBBAAAAAWgAAAAd/55DsP///7T///8BAAAAFAAAABAAGgAIAAcADAAAABAAFAAQAAAAAAAAARwAAAAAAIhBHAAAAAIAAAAAAAoACAAFAAYABwAKAAAAAP1v//z///8EAAQABAAAAAgACAAGAAcACAAAAAAA/W8=</value>
								</parameter>
								<parameter authoringApp="PremierePro">
									<parameterid>2</parameterid>
									<name>トランスフォーム</name>
									<IsTimeVarying>false</IsTimeVarying>
									<ParameterControlType>11</ParameterControlType>
									<LowerBound>false</LowerBound>
									<UpperBound>false</UpperBound>
									<value>-91445760000000000,false,0,0,0,0,0,0</value>
								</parameter>
							</effect>
						</filter>
					</clipitem>
					<clipitem frameBlend="FALSE" id="clipitem-telop-84">
						<file id="file-2"/>
						<name>グラフィック</name>
						<rate>
							<timebase>59</timebase>
							<ntsc>TRUE</ntsc>
						</rate>
						<rate>
							<timebase>59</timebase>
							<ntsc>TRUE</ntsc>
						</rate>
						<duration>119</duration>
						<start>16252</start>
						<end>16371</end>
						<in>0</in>
						<out>119</out>
						<filter>
							<effect>
								<name></name>
								<effectid>GraphicAndType</effectid>
								<effectcategory>graphic</effectcategory>
								<effecttype>filter</effecttype>
								<mediatype>video</mediatype>
								<pproBypass>false</pproBypass>
								<parameter authoringApp="PremierePro">
									<parameterid>1</parameterid>
									<name>ソーステキスト</name>
									<hash>9da144c7-0b89-e7ae-5cc9-9e6c00000224</hash>
									<value>1AEAAAAAAABEMyIRDAAAAAAABgAKAAQABgAAAGQAAAAAAF4ASAAQAAwARABAADwAOAAAAAAAAAAAADQAMwAsAAAAKAAkACAAAAAAAAAAAAAAAAAAHAAAAAAAGgAAAAAAAAAUAAAAAAAAAAAAAAAAAAAAAAAAAAgAAAAAABsABwBeAAAAAAAAAUAAAABQAAAAbAAAAAIAAAAAAAEAAQAAAAAAQEEAAMBAAABAQAAAyEIAAAABIAAAAAIAAAACAAAAAAAQRACASkQA////BP///wj///8i////AAAAAAEAAAAEAAAAEQAAAEhHUFNvZWlLYWt1cG9wdGFpAAAAAQAAAAwAAAAIAAwABAAIAAgAAAAIAAAAHwAAABsAAADjgZ3jgYbjgoLjgZTjgZbjgYTjgb7jgZvjgpMANAAgAAAAHAAYAAAAAAAXABAAAAAAAAAAAAAAAAAAAAAAAAAADAAAAAAAAAAIAAAABAA0AAAAHAAAABwAAAAcAAAAAABwQQAAAAFoAAAAHf+eQ7D///+0////AQAAABQAAAAQABoACAAHAAwAAAAQABQAEAAAAAAAAAEcAAAAAACIQRwAAAACAAAAAAAKAAgABQAGAAcACgAAAAD9b//8////BAAEAAQAAAAIAAgABgAHAAgAAAAAAP1v</value>
								</parameter>
								<parameter authoringApp="PremierePro">
									<parameterid>2</parameterid>
									<name>トランスフォーム</name>
									<IsTimeVarying>false</IsTimeVarying>
									<ParameterControlType>11</ParameterControlType>
									<LowerBound>false</LowerBound>
									<UpperBound>false</UpperBound>
									<value>-91445760000000000,false,0,0,0,0,0,0</value>
								</parameter>
							</effect>
						</filter>
					</clipitem>
					<clipitem frameBlend="FALSE" id="clipitem-telop-85">
						<file id="file-2"/>
						<name>グラフィック</name>
						<rate>
							<timebase>59</timebase>
							<ntsc>TRUE</ntsc>
						</rate>
						<rate>
							<timebase>59</timebase>
							<ntsc>TRUE</ntsc>
						</rate>
						<duration>300</duration>
						<start>16371</start>
						<end>16671</end>
						<in>0</in>
						<out>300</out>
						<filter>
							<effect>
								<name></name>
								<effectid>GraphicAndType</effectid>
								<effectcategory>graphic</effectcategory>
								<effecttype>filter</effecttype>
								<mediatype>video</mediatype>
								<pproBypass>false</pproBypass>
								<parameter authoringApp="PremierePro">
									<parameterid>1</parameterid>
									<name>ソーステキスト</name>
									<hash>9da144c7-0b89-e7ae-5cc9-9e6c00000224</hash>
									<value>1AEAAAAAAABEMyIRDAAAAAAABgAKAAQABgAAAGQAAAAAAF4ASAAQAAwARABAADwAOAAAAAAAAAAAADQAMwAsAAAAKAAkACAAAAAAAAAAAAAAAAAAHAAAAAAAGgAAAAAAAAAUAAAAAAAAAAAAAAAAAAAAAAAAAAgAAAAAABsABwBeAAAAAAAAAUAAAABQAAAAbAAAAAIAAAAAAAEAAQAAAAAAQEEAAMBAAABAQAAAyEIAAAABIAAAAAIAAAACAAAAAAAQRACASkQA////BP///wj///8i////AAAAAAEAAAAEAAAAEQAAAEhHUFNvZWlLYWt1cG9wdGFpAAAAAQAAAAwAAAAIAAwABAAIAAgAAAAIAAAAUgAAAE4AAADjg5/jg6vjgq/jga7jgZPjgajjgpLlrqLjgaPjgabph5HjgajjgZfjgYvmgJ3jgaPjgabjgarjgYTjgojjgYbjgarmsJfjgYzjgZnjgosAADQAIAAAABwAGAAAAAAAFwAQAAAAAAAAAAAAAAAAAAAAAAAAAAwAAAAAAAAACAAAAAQANAAAABwAAAAcAAAAHAAAAAAAcEEAAAABaAAAAB3/nkOw////tP///wEAAAAUAAAAEAAaAAgABwAMAAAAEAAUABAAAAAAAAABHAAAAAAAiEEcAAAAAgAAAAAACgAIAAUABgAHAAoAAAAA/W///P///wQABAAEAAAACAAIAAYABwAIAAAAAAD9bw==</value>
								</parameter>
								<parameter authoringApp="PremierePro">
									<parameterid>2</parameterid>
									<name>トランスフォーム</name>
									<IsTimeVarying>false</IsTimeVarying>
									<ParameterControlType>11</ParameterControlType>
									<LowerBound>false</LowerBound>
									<UpperBound>false</UpperBound>
									<value>-91445760000000000,false,0,0,0,0,0,0</value>
								</parameter>
							</effect>
						</filter>
					</clipitem>
					<clipitem frameBlend="FALSE" id="clipitem-telop-86">
						<file id="file-2"/>
						<name>グラフィック</name>
						<rate>
							<timebase>59</timebase>
							<ntsc>TRUE</ntsc>
						</rate>
						<rate>
							<timebase>59</timebase>
							<ntsc>TRUE</ntsc>
						</rate>
						<duration>240</duration>
						<start>16671</start>
						<end>16911</end>
						<in>0</in>
						<out>240</out>
						<filter>
							<effect>
								<name></name>
								<effectid>GraphicAndType</effectid>
								<effectcategory>graphic</effectcategory>
								<effecttype>filter</effecttype>
								<mediatype>video</mediatype>
								<pproBypass>false</pproBypass>
								<parameter authoringApp="PremierePro">
									<parameterid>1</parameterid>
									<name>ソーステキスト</name>
									<hash>9da144c7-0b89-e7ae-5cc9-9e6c00000224</hash>
									<value>1AEAAAAAAABEMyIRDAAAAAAABgAKAAQABgAAAGQAAAAAAF4ASAAQAAwARABAADwAOAAAAAAAAAAAADQAMwAsAAAAKAAkACAAAAAAAAAAAAAAAAAAHAAAAAAAGgAAAAAAAAAUAAAAAAAAAAAAAAAAAAAAAAAAAAgAAAAAABsABwBeAAAAAAAAAUAAAABQAAAAbAAAAAIAAAAAAAEAAQAAAAAAQEEAAMBAAABAQAAAyEIAAAABIAAAAAIAAAACAAAAAAAQRACASkQA////BP///wj///8i////AAAAAAEAAAAEAAAAEQAAAEhHUFNvZWlLYWt1cG9wdGFpAAAAAQAAAAwAAAAIAAwABAAIAAgAAAAIAAAATAAAAEgAAADjgoLjgaHjgo3jgpPnp4HjgoLjgYrlrKLmp5jjga7lubjjgZvjgpLlr53jgabjgovjgZPjgajjgafjgZTjgZbjgYTjgb7jgZk0ACAAAAAcABgAAAAAABcAEAAAAAAAAAAAAAAAAAAAAAAAAAAMAAAAAAAAAAgAAAAEADQAAAAcAAAAHAAAABwAAAAAAHBBAAAAAWgAAAAd/55DsP///7T///8BAAAAFAAAABAAGgAIAAcADAAAABAAFAAQAAAAAAAAARwAAAAAAIhBHAAAAAIAAAAAAAoACAAFAAYABwAKAAAAAP1v//z///8EAAQABAAAAAgACAAGAAcACAAAAAAA/W8=</value>
								</parameter>
								<parameter authoringApp="PremierePro">
									<parameterid>2</parameterid>
									<name>トランスフォーム</name>
									<IsTimeVarying>false</IsTimeVarying>
									<ParameterControlType>11</ParameterControlType>
									<LowerBound>false</LowerBound>
									<UpperBound>false</UpperBound>
									<value>-91445760000000000,false,0,0,0,0,0,0</value>
								</parameter>
							</effect>
						</filter>
					</clipitem>
					<clipitem frameBlend="FALSE" id="clipitem-telop-87">
						<file id="file-2"/>
						<name>グラフィック</name>
						<rate>
							<timebase>59</timebase>
							<ntsc>TRUE</ntsc>
						</rate>
						<rate>
							<timebase>59</timebase>
							<ntsc>TRUE</ntsc>
						</rate>
						<duration>60</duration>
						<start>16911</start>
						<end>16971</end>
						<in>0</in>
						<out>60</out>
						<filter>
							<effect>
								<name></name>
								<effectid>GraphicAndType</effectid>
								<effectcategory>graphic</effectcategory>
								<effecttype>filter</effecttype>
								<mediatype>video</mediatype>
								<pproBypass>false</pproBypass>
								<parameter authoringApp="PremierePro">
									<parameterid>1</parameterid>
									<name>ソーステキスト</name>
									<hash>9da144c7-0b89-e7ae-5cc9-9e6c00000224</hash>
									<value>1AEAAAAAAABEMyIRDAAAAAAABgAKAAQABgAAAGQAAAAAAF4ASAAQAAwARABAADwAOAAAAAAAAAAAADQAMwAsAAAAKAAkACAAAAAAAAAAAAAAAAAAHAAAAAAAGgAAAAAAAAAUAAAAAAAAAAAAAAAAAAAAAAAAAAgAAAAAABsABwBeAAAAAAAAAUAAAABQAAAAbAAAAAIAAAAAAAEAAQAAAAAAQEEAAMBAAABAQAAAyEIAAAABIAAAAAIAAAACAAAAAAAQRACASkQA////BP///wj///8i////AAAAAAEAAAAEAAAAEQAAAEhHUFNvZWlLYWt1cG9wdGFpAAAAAQAAAAwAAAAIAAwABAAIAAgAAAAIAAAAEAAAAAwAAADjgarjgpPjgYvjgao0ACAAAAAcABgAAAAAABcAEAAAAAAAAAAAAAAAAAAAAAAAAAAMAAAAAAAAAAgAAAAEADQAAAAcAAAAHAAAABwAAAAAAHBBAAAAAWgAAAAd/55DsP///7T///8BAAAAFAAAABAAGgAIAAcADAAAABAAFAAQAAAAAAAAARwAAAAAAIhBHAAAAAIAAAAAAAoACAAFAAYABwAKAAAAAP1v//z///8EAAQABAAAAAgACAAGAAcACAAAAAAA/W8=</value>
								</parameter>
								<parameter authoringApp="PremierePro">
									<parameterid>2</parameterid>
									<name>トランスフォーム</name>
									<IsTimeVarying>false</IsTimeVarying>
									<ParameterControlType>11</ParameterControlType>
									<LowerBound>false</LowerBound>
									<UpperBound>false</UpperBound>
									<value>-91445760000000000,false,0,0,0,0,0,0</value>
								</parameter>
							</effect>
						</filter>
					</clipitem>
					<clipitem frameBlend="FALSE" id="clipitem-telop-88">
						<file id="file-2"/>
						<name>グラフィック</name>
						<rate>
							<timebase>59</timebase>
							<ntsc>TRUE</ntsc>
						</rate>
						<rate>
							<timebase>59</timebase>
							<ntsc>TRUE</ntsc>
						</rate>
						<duration>360</duration>
						<start>16971</start>
						<end>17331</end>
						<in>0</in>
						<out>360</out>
						<filter>
							<effect>
								<name></name>
								<effectid>GraphicAndType</effectid>
								<effectcategory>graphic</effectcategory>
								<effecttype>filter</effecttype>
								<mediatype>video</mediatype>
								<pproBypass>false</pproBypass>
								<parameter authoringApp="PremierePro">
									<parameterid>1</parameterid>
									<name>ソーステキスト</name>
									<hash>9da144c7-0b89-e7ae-5cc9-9e6c00000224</hash>
									<value>1AEAAAAAAABEMyIRDAAAAAAABgAKAAQABgAAAGQAAAAAAF4ASAAQAAwARABAADwAOAAAAAAAAAAAADQAMwAsAAAAKAAkACAAAAAAAAAAAAAAAAAAHAAAAAAAGgAAAAAAAAAUAAAAAAAAAAAAAAAAAAAAAAAAAAgAAAAAABsABwBeAAAAAAAAAUAAAABQAAAAbAAAAAIAAAAAAAEAAQAAAAAAQEEAAMBAAABAQAAAyEIAAAABIAAAAAIAAAACAAAAAAAQRACASkQA////BP///wj///8i////AAAAAAEAAAAEAAAAEQAAAEhHUFNvZWlLYWt1cG9wdGFpAAAAAQAAAAwAAAAIAAwABAAIAAgAAAAIAAAAagAAAGYAAADjgZ3jgozjgafjgYLjgozjgbDlhajnhLbku4rml6XjgYroqbHjgaDjgZHjgafjgoLjgb7jgZ/kvJrjgYTjgavmnaXjgabjgY/jgozjgZ/jgonlrInjgZfjgYTjgarjgarjgpPjgaYAADQAIAAAABwAGAAAAAAAFwAQAAAAAAAAAAAAAAAAAAAAAAAAAAwAAAAAAAAACAAAAAQANAAAABwAAAAcAAAAHAAAAAAAcEEAAAABaAAAAB3/nkOw////tP///wEAAAAUAAAAEAAaAAgABwAMAAAAEAAUABAAAAAAAAABHAAAAAAAiEEcAAAAAgAAAAAACgAIAAUABgAHAAoAAAAA/W///P///wQABAAEAAAACAAIAAYABwAIAAAAAAD9bw==</value>
								</parameter>
								<parameter authoringApp="PremierePro">
									<parameterid>2</parameterid>
									<name>トランスフォーム</name>
									<IsTimeVarying>false</IsTimeVarying>
									<ParameterControlType>11</ParameterControlType>
									<LowerBound>false</LowerBound>
									<UpperBound>false</UpperBound>
									<value>-91445760000000000,false,0,0,0,0,0,0</value>
								</parameter>
							</effect>
						</filter>
					</clipitem>
					<clipitem frameBlend="FALSE" id="clipitem-telop-89">
						<file id="file-2"/>
						<name>グラフィック</name>
						<rate>
							<timebase>59</timebase>
							<ntsc>TRUE</ntsc>
						</rate>
						<rate>
							<timebase>59</timebase>
							<ntsc>TRUE</ntsc>
						</rate>
						<duration>120</duration>
						<start>17331</start>
						<end>17451</end>
						<in>0</in>
						<out>120</out>
						<filter>
							<effect>
								<name></name>
								<effectid>GraphicAndType</effectid>
								<effectcategory>graphic</effectcategory>
								<effecttype>filter</effecttype>
								<mediatype>video</mediatype>
								<pproBypass>false</pproBypass>
								<parameter authoringApp="PremierePro">
									<parameterid>1</parameterid>
									<name>ソーステキスト</name>
									<hash>9da144c7-0b89-e7ae-5cc9-9e6c00000224</hash>
									<value>1AEAAAAAAABEMyIRDAAAAAAABgAKAAQABgAAAGQAAAAAAF4ASAAQAAwARABAADwAOAAAAAAAAAAAADQAMwAsAAAAKAAkACAAAAAAAAAAAAAAAAAAHAAAAAAAGgAAAAAAAAAUAAAAAAAAAAAAAAAAAAAAAAAAAAgAAAAAABsABwBeAAAAAAAAAUAAAABQAAAAbAAAAAIAAAAAAAEAAQAAAAAAQEEAAMBAAABAQAAAyEIAAAABIAAAAAIAAAACAAAAAAAQRACASkQA////BP///wj///8i////AAAAAAEAAAAEAAAAEQAAAEhHUFNvZWlLYWt1cG9wdGFpAAAAAQAAAAwAAAAIAAwABAAIAAgAAAAIAAAAIgAAAB4AAADms6LjgoLmgJ3jgaPjgabjgYrjgorjgb7jgZnjgogAADQAIAAAABwAGAAAAAAAFwAQAAAAAAAAAAAAAAAAAAAAAAAAAAwAAAAAAAAACAAAAAQANAAAABwAAAAcAAAAHAAAAAAAcEEAAAABaAAAAB3/nkOw////tP///wEAAAAUAAAAEAAaAAgABwAMAAAAEAAUABAAAAAAAAABHAAAAAAAiEEcAAAAAgAAAAAACgAIAAUABgAHAAoAAAAA/W///P///wQABAAEAAAACAAIAAYABwAIAAAAAAD9bw==</value>
								</parameter>
								<parameter authoringApp="PremierePro">
									<parameterid>2</parameterid>
									<name>トランスフォーム</name>
									<IsTimeVarying>false</IsTimeVarying>
									<ParameterControlType>11</ParameterControlType>
									<LowerBound>false</LowerBound>
									<UpperBound>false</UpperBound>
									<value>-91445760000000000,false,0,0,0,0,0,0</value>
								</parameter>
							</effect>
						</filter>
					</clipitem>
					<clipitem frameBlend="FALSE" id="clipitem-telop-90">
						<file id="file-2"/>
						<name>グラフィック</name>
						<rate>
							<timebase>59</timebase>
							<ntsc>TRUE</ntsc>
						</rate>
						<rate>
							<timebase>59</timebase>
							<ntsc>TRUE</ntsc>
						</rate>
						<duration>120</duration>
						<start>17451</start>
						<end>17571</end>
						<in>0</in>
						<out>120</out>
						<filter>
							<effect>
								<name></name>
								<effectid>GraphicAndType</effectid>
								<effectcategory>graphic</effectcategory>
								<effecttype>filter</effecttype>
								<mediatype>video</mediatype>
								<pproBypass>false</pproBypass>
								<parameter authoringApp="PremierePro">
									<parameterid>1</parameterid>
									<name>ソーステキスト</name>
									<hash>9da144c7-0b89-e7ae-5cc9-9e6c00000224</hash>
									<value>1AEAAAAAAABEMyIRDAAAAAAABgAKAAQABgAAAGQAAAAAAF4ASAAQAAwARABAADwAOAAAAAAAAAAAADQAMwAsAAAAKAAkACAAAAAAAAAAAAAAAAAAHAAAAAAAGgAAAAAAAAAUAAAAAAAAAAAAAAAAAAAAAAAAAAgAAAAAABsABwBeAAAAAAAAAUAAAABQAAAAbAAAAAIAAAAAAAEAAQAAAAAAQEEAAMBAAABAQAAAyEIAAAABIAAAAAIAAAACAAAAAAAQRACASkQA////BP///wj///8i////AAAAAAEAAAAEAAAAEQAAAEhHUFNvZWlLYWt1cG9wdGFpAAAAAQAAAAwAAAAIAAwABAAIAAgAAAAIAAAANAAAADAAAADku4rjgYrjgYvjgo/jgZjjgoPjgZXjgb7jgZfjgabjgY/jgaDjgZXjgYTjgb7jgZk0ACAAAAAcABgAAAAAABcAEAAAAAAAAAAAAAAAAAAAAAAAAAAMAAAAAAAAAAgAAAAEADQAAAAcAAAAHAAAABwAAAAAAHBBAAAAAWgAAAAd/55DsP///7T///8BAAAAFAAAABAAGgAIAAcADAAAABAAFAAQAAAAAAAAARwAAAAAAIhBHAAAAAIAAAAAAAoACAAFAAYABwAKAAAAAP1v//z///8EAAQABAAAAAgACAAGAAcACAAAAAAA/W8=</value>
								</parameter>
								<parameter authoringApp="PremierePro">
									<parameterid>2</parameterid>
									<name>トランスフォーム</name>
									<IsTimeVarying>false</IsTimeVarying>
									<ParameterControlType>11</ParameterControlType>
									<LowerBound>false</LowerBound>
									<UpperBound>false</UpperBound>
									<value>-91445760000000000,false,0,0,0,0,0,0</value>
								</parameter>
							</effect>
						</filter>
					</clipitem>
					<clipitem frameBlend="FALSE" id="clipitem-telop-91">
						<file id="file-2"/>
						<name>グラフィック</name>
						<rate>
							<timebase>59</timebase>
							<ntsc>TRUE</ntsc>
						</rate>
						<rate>
							<timebase>59</timebase>
							<ntsc>TRUE</ntsc>
						</rate>
						<duration>60</duration>
						<start>17691</start>
						<end>17751</end>
						<in>0</in>
						<out>60</out>
						<filter>
							<effect>
								<name></name>
								<effectid>GraphicAndType</effectid>
								<effectcategory>graphic</effectcategory>
								<effecttype>filter</effecttype>
								<mediatype>video</mediatype>
								<pproBypass>false</pproBypass>
								<parameter authoringApp="PremierePro">
									<parameterid>1</parameterid>
									<name>ソーステキスト</name>
									<hash>9da144c7-0b89-e7ae-5cc9-9e6c00000224</hash>
									<value>1AEAAAAAAABEMyIRDAAAAAAABgAKAAQABgAAAGQAAAAAAF4ASAAQAAwARABAADwAOAAAAAAAAAAAADQAMwAsAAAAKAAkACAAAAAAAAAAAAAAAAAAHAAAAAAAGgAAAAAAAAAUAAAAAAAAAAAAAAAAAAAAAAAAAAgAAAAAABsABwBeAAAAAAAAAUAAAABQAAAAbAAAAAIAAAAAAAEAAQAAAAAAQEEAAMBAAABAQAAAyEIAAAABIAAAAAIAAAACAAAAAAAQRACASkQA////BP///wj///8i////AAAAAAEAAAAEAAAAEQAAAEhHUFNvZWlLYWt1cG9wdGFpAAAAAQAAAAwAAAAIAAwABAAIAAgAAAAIAAAADQAAAAkAAADjgYLjgaPjgZ8AAAA0ACAAAAAcABgAAAAAABcAEAAAAAAAAAAAAAAAAAAAAAAAAAAMAAAAAAAAAAgAAAAEADQAAAAcAAAAHAAAABwAAAAAAHBBAAAAAWgAAAAd/55DsP///7T///8BAAAAFAAAABAAGgAIAAcADAAAABAAFAAQAAAAAAAAARwAAAAAAIhBHAAAAAIAAAAAAAoACAAFAAYABwAKAAAAAP1v//z///8EAAQABAAAAAgACAAGAAcACAAAAAAA/W8=</value>
								</parameter>
								<parameter authoringApp="PremierePro">
									<parameterid>2</parameterid>
									<name>トランスフォーム</name>
									<IsTimeVarying>false</IsTimeVarying>
									<ParameterControlType>11</ParameterControlType>
									<LowerBound>false</LowerBound>
									<UpperBound>false</UpperBound>
									<value>-91445760000000000,false,0,0,0,0,0,0</value>
								</parameter>
							</effect>
						</filter>
					</clipitem>
					<clipitem frameBlend="FALSE" id="clipitem-telop-92">
						<file id="file-2"/>
						<name>グラフィック</name>
						<rate>
							<timebase>59</timebase>
							<ntsc>TRUE</ntsc>
						</rate>
						<rate>
							<timebase>59</timebase>
							<ntsc>TRUE</ntsc>
						</rate>
						<duration>60</duration>
						<start>17751</start>
						<end>17811</end>
						<in>0</in>
						<out>60</out>
						<filter>
							<effect>
								<name></name>
								<effectid>GraphicAndType</effectid>
								<effectcategory>graphic</effectcategory>
								<effecttype>filter</effecttype>
								<mediatype>video</mediatype>
								<pproBypass>false</pproBypass>
								<parameter authoringApp="PremierePro">
									<parameterid>1</parameterid>
									<name>ソーステキスト</name>
									<hash>9da144c7-0b89-e7ae-5cc9-9e6c00000224</hash>
									<value>1AEAAAAAAABEMyIRDAAAAAAABgAKAAQABgAAAGQAAAAAAF4ASAAQAAwARABAADwAOAAAAAAAAAAAADQAMwAsAAAAKAAkACAAAAAAAAAAAAAAAAAAHAAAAAAAGgAAAAAAAAAUAAAAAAAAAAAAAAAAAAAAAAAAAAgAAAAAABsABwBeAAAAAAAAAUAAAABQAAAAbAAAAAIAAAAAAAEAAQAAAAAAQEEAAMBAAABAQAAAyEIAAAABIAAAAAIAAAACAAAAAAAQRACASkQA////BP///wj///8i////AAAAAAEAAAAEAAAAEQAAAEhHUFNvZWlLYWt1cG9wdGFpAAAAAQAAAAwAAAAIAAwABAAIAAgAAAAIAAAADQAAAAkAAADjgYrlrKLmp5gAAAA0ACAAAAAcABgAAAAAABcAEAAAAAAAAAAAAAAAAAAAAAAAAAAMAAAAAAAAAAgAAAAEADQAAAAcAAAAHAAAABwAAAAAAHBBAAAAAWgAAAAd/55DsP///7T///8BAAAAFAAAABAAGgAIAAcADAAAABAAFAAQAAAAAAAAARwAAAAAAIhBHAAAAAIAAAAAAAoACAAFAAYABwAKAAAAAP1v//z///8EAAQABAAAAAgACAAGAAcACAAAAAAA/W8=</value>
								</parameter>
								<parameter authoringApp="PremierePro">
									<parameterid>2</parameterid>
									<name>トランスフォーム</name>
									<IsTimeVarying>false</IsTimeVarying>
									<ParameterControlType>11</ParameterControlType>
									<LowerBound>false</LowerBound>
									<UpperBound>false</UpperBound>
									<value>-91445760000000000,false,0,0,0,0,0,0</value>
								</parameter>
							</effect>
						</filter>
					</clipitem>
					<clipitem frameBlend="FALSE" id="clipitem-telop-93">
						<file id="file-2"/>
						<name>グラフィック</name>
						<rate>
							<timebase>59</timebase>
							<ntsc>TRUE</ntsc>
						</rate>
						<rate>
							<timebase>59</timebase>
							<ntsc>TRUE</ntsc>
						</rate>
						<duration>60</duration>
						<start>17931</start>
						<end>17991</end>
						<in>0</in>
						<out>60</out>
						<filter>
							<effect>
								<name></name>
								<effectid>GraphicAndType</effectid>
								<effectcategory>graphic</effectcategory>
								<effecttype>filter</effecttype>
								<mediatype>video</mediatype>
								<pproBypass>false</pproBypass>
								<parameter authoringApp="PremierePro">
									<parameterid>1</parameterid>
									<name>ソーステキスト</name>
									<hash>9da144c7-0b89-e7ae-5cc9-9e6c00000224</hash>
									<value>1AEAAAAAAABEMyIRDAAAAAAABgAKAAQABgAAAGQAAAAAAF4ASAAQAAwARABAADwAOAAAAAAAAAAAADQAMwAsAAAAKAAkACAAAAAAAAAAAAAAAAAAHAAAAAAAGgAAAAAAAAAUAAAAAAAAAAAAAAAAAAAAAAAAAAgAAAAAABsABwBeAAAAAAAAAUAAAABQAAAAbAAAAAIAAAAAAAEAAQAAAAAAQEEAAMBAAABAQAAAyEIAAAABIAAAAAIAAAACAAAAAAAQRACASkQA////BP///wj///8i////AAAAAAEAAAAEAAAAEQAAAEhHUFNvZWlLYWt1cG9wdGFpAAAAAQAAAAwAAAAIAAwABAAIAAgAAAAIAAAAHAAAABgAAADjgaHjgofjgaPjgajlvoXjgaPjgabjga00ACAAAAAcABgAAAAAABcAEAAAAAAAAAAAAAAAAAAAAAAAAAAMAAAAAAAAAAgAAAAEADQAAAAcAAAAHAAAABwAAAAAAHBBAAAAAWgAAAAd/55DsP///7T///8BAAAAFAAAABAAGgAIAAcADAAAABAAFAAQAAAAAAAAARwAAAAAAIhBHAAAAAIAAAAAAAoACAAFAAYABwAKAAAAAP1v//z///8EAAQABAAAAAgACAAGAAcACAAAAAAA/W8=</value>
								</parameter>
								<parameter authoringApp="PremierePro">
									<parameterid>2</parameterid>
									<name>トランスフォーム</name>
									<IsTimeVarying>false</IsTimeVarying>
									<ParameterControlType>11</ParameterControlType>
									<LowerBound>false</LowerBound>
									<UpperBound>false</UpperBound>
									<value>-91445760000000000,false,0,0,0,0,0,0</value>
								</parameter>
							</effect>
						</filter>
					</clipitem>
					<clipitem frameBlend="FALSE" id="clipitem-telop-94">
						<file id="file-2"/>
						<name>グラフィック</name>
						<rate>
							<timebase>59</timebase>
							<ntsc>TRUE</ntsc>
						</rate>
						<rate>
							<timebase>59</timebase>
							<ntsc>TRUE</ntsc>
						</rate>
						<duration>60</duration>
						<start>17991</start>
						<end>18051</end>
						<in>0</in>
						<out>60</out>
						<filter>
							<effect>
								<name></name>
								<effectid>GraphicAndType</effectid>
								<effectcategory>graphic</effectcategory>
								<effecttype>filter</effecttype>
								<mediatype>video</mediatype>
								<pproBypass>false</pproBypass>
								<parameter authoringApp="PremierePro">
									<parameterid>1</parameterid>
									<name>ソーステキスト</name>
									<hash>9da144c7-0b89-e7ae-5cc9-9e6c00000224</hash>
									<value>1AEAAAAAAABEMyIRDAAAAAAABgAKAAQABgAAAGQAAAAAAF4ASAAQAAwARABAADwAOAAAAAAAAAAAADQAMwAsAAAAKAAkACAAAAAAAAAAAAAAAAAAHAAAAAAAGgAAAAAAAAAUAAAAAAAAAAAAAAAAAAAAAAAAAAgAAAAAABsABwBeAAAAAAAAAUAAAABQAAAAbAAAAAIAAAAAAAEAAQAAAAAAQEEAAMBAAABAQAAAyEIAAAABIAAAAAIAAAACAAAAAAAQRACASkQA////BP///wj///8i////AAAAAAEAAAAEAAAAEQAAAEhHUFNvZWlLYWt1cG9wdGFpAAAAAQAAAAwAAAAIAAwABAAIAAgAAAAIAAAAEwAAAA8AAADjgYLjgorjgYzjgajjgYYANAAgAAAAHAAYAAAAAAAXABAAAAAAAAAAAAAAAAAAAAAAAAAADAAAAAAAAAAIAAAABAA0AAAAHAAAABwAAAAcAAAAAABwQQAAAAFoAAAAHf+eQ7D///+0////AQAAABQAAAAQABoACAAHAAwAAAAQABQAEAAAAAAAAAEcAAAAAACIQRwAAAACAAAAAAAKAAgABQAGAAcACgAAAAD9b//8////BAAEAAQAAAAIAAgABgAHAAgAAAAAAP1v</value>
								</parameter>
								<parameter authoringApp="PremierePro">
									<parameterid>2</parameterid>
									<name>トランスフォーム</name>
									<IsTimeVarying>false</IsTimeVarying>
									<ParameterControlType>11</ParameterControlType>
									<LowerBound>false</LowerBound>
									<UpperBound>false</UpperBound>
									<value>-91445760000000000,false,0,0,0,0,0,0</value>
								</parameter>
							</effect>
						</filter>
					</clipitem>
					<clipitem frameBlend="FALSE" id="clipitem-telop-95">
						<file id="file-2"/>
						<name>グラフィック</name>
						<rate>
							<timebase>59</timebase>
							<ntsc>TRUE</ntsc>
						</rate>
						<rate>
							<timebase>59</timebase>
							<ntsc>TRUE</ntsc>
						</rate>
						<duration>120</duration>
						<start>18051</start>
						<end>18171</end>
						<in>0</in>
						<out>120</out>
						<filter>
							<effect>
								<name></name>
								<effectid>GraphicAndType</effectid>
								<effectcategory>graphic</effectcategory>
								<effecttype>filter</effecttype>
								<mediatype>video</mediatype>
								<pproBypass>false</pproBypass>
								<parameter authoringApp="PremierePro">
									<parameterid>1</parameterid>
									<name>ソーステキスト</name>
									<hash>9da144c7-0b89-e7ae-5cc9-9e6c00000224</hash>
									<value>1AEAAAAAAABEMyIRDAAAAAAABgAKAAQABgAAAGQAAAAAAF4ASAAQAAwARABAADwAOAAAAAAAAAAAADQAMwAsAAAAKAAkACAAAAAAAAAAAAAAAAAAHAAAAAAAGgAAAAAAAAAUAAAAAAAAAAAAAAAAAAAAAAAAAAgAAAAAABsABwBeAAAAAAAAAUAAAABQAAAAbAAAAAIAAAAAAAEAAQAAAAAAQEEAAMBAAABAQAAAyEIAAAABIAAAAAIAAAACAAAAAAAQRACASkQA////BP///wj///8i////AAAAAAEAAAAEAAAAEQAAAEhHUFNvZWlLYWt1cG9wdGFpAAAAAQAAAAwAAAAIAAwABAAIAAgAAAAIAAAAMQAAAC0AAADjgaHjgofjgaPjgajjgYLjgIHjgaHjgoPjgpPjgaHjgaHjgZfjgb7jgZfjgZ8AAAA0ACAAAAAcABgAAAAAABcAEAAAAAAAAAAAAAAAAAAAAAAAAAAMAAAAAAAAAAgAAAAEADQAAAAcAAAAHAAAABwAAAAAAHBBAAAAAWgAAAAd/55DsP///7T///8BAAAAFAAAABAAGgAIAAcADAAAABAAFAAQAAAAAAAAARwAAAAAAIhBHAAAAAIAAAAAAAoACAAFAAYABwAKAAAAAP1v//z///8EAAQABAAAAAgACAAGAAcACAAAAAAA/W8=</value>
								</parameter>
								<parameter authoringApp="PremierePro">
									<parameterid>2</parameterid>
									<name>トランスフォーム</name>
									<IsTimeVarying>false</IsTimeVarying>
									<ParameterControlType>11</ParameterControlType>
									<LowerBound>false</LowerBound>
									<UpperBound>false</UpperBound>
									<value>-91445760000000000,false,0,0,0,0,0,0</value>
								</parameter>
							</effect>
						</filter>
					</clipitem>
					<clipitem frameBlend="FALSE" id="clipitem-telop-96">
						<file id="file-2"/>
						<name>グラフィック</name>
						<rate>
							<timebase>59</timebase>
							<ntsc>TRUE</ntsc>
						</rate>
						<rate>
							<timebase>59</timebase>
							<ntsc>TRUE</ntsc>
						</rate>
						<duration>240</duration>
						<start>18291</start>
						<end>18531</end>
						<in>0</in>
						<out>240</out>
						<filter>
							<effect>
								<name></name>
								<effectid>GraphicAndType</effectid>
								<effectcategory>graphic</effectcategory>
								<effecttype>filter</effecttype>
								<mediatype>video</mediatype>
								<pproBypass>false</pproBypass>
								<parameter authoringApp="PremierePro">
									<parameterid>1</parameterid>
									<name>ソーステキスト</name>
									<hash>9da144c7-0b89-e7ae-5cc9-9e6c00000224</hash>
									<value>1AEAAAAAAABEMyIRDAAAAAAABgAKAAQABgAAAGQAAAAAAF4ASAAQAAwARABAADwAOAAAAAAAAAAAADQAMwAsAAAAKAAkACAAAAAAAAAAAAAAAAAAHAAAAAAAGgAAAAAAAAAUAAAAAAAAAAAAAAAAAAAAAAAAAAgAAAAAABsABwBeAAAAAAAAAUAAAABQAAAAbAAAAAIAAAAAAAEAAQAAAAAAQEEAAMBAAABAQAAAyEIAAAABIAAAAAIAAAACAAAAAAAQRACASkQA////BP///wj///8i////AAAAAAEAAAAEAAAAEQAAAEhHUFNvZWlLYWt1cG9wdGFpAAAAAQAAAAwAAAAIAAwABAAIAAgAAAAIAAAALgAAACoAAADjg5/jg6vjgq/jgYrlrKLmp5jjga7jgZTnn6XkuovjgajjgYLjgozjgbAAADQAIAAAABwAGAAAAAAAFwAQAAAAAAAAAAAAAAAAAAAAAAAAAAwAAAAAAAAACAAAAAQANAAAABwAAAAcAAAAHAAAAAAAcEEAAAABaAAAAB3/nkOw////tP///wEAAAAUAAAAEAAaAAgABwAMAAAAEAAUABAAAAAAAAABHAAAAAAAiEEcAAAAAgAAAAAACgAIAAUABgAHAAoAAAAA/W///P///wQABAAEAAAACAAIAAYABwAIAAAAAAD9bw==</value>
								</parameter>
								<parameter authoringApp="PremierePro">
									<parameterid>2</parameterid>
									<name>トランスフォーム</name>
									<IsTimeVarying>false</IsTimeVarying>
									<ParameterControlType>11</ParameterControlType>
									<LowerBound>false</LowerBound>
									<UpperBound>false</UpperBound>
									<value>-91445760000000000,false,0,0,0,0,0,0</value>
								</parameter>
							</effect>
						</filter>
					</clipitem>
					<clipitem frameBlend="FALSE" id="clipitem-telop-97">
						<file id="file-2"/>
						<name>グラフィック</name>
						<rate>
							<timebase>59</timebase>
							<ntsc>TRUE</ntsc>
						</rate>
						<rate>
							<timebase>59</timebase>
							<ntsc>TRUE</ntsc>
						</rate>
						<duration>120</duration>
						<start>18531</start>
						<end>18651</end>
						<in>0</in>
						<out>120</out>
						<filter>
							<effect>
								<name></name>
								<effectid>GraphicAndType</effectid>
								<effectcategory>graphic</effectcategory>
								<effecttype>filter</effecttype>
								<mediatype>video</mediatype>
								<pproBypass>false</pproBypass>
								<parameter authoringApp="PremierePro">
									<parameterid>1</parameterid>
									<name>ソーステキスト</name>
									<hash>9da144c7-0b89-e7ae-5cc9-9e6c00000224</hash>
									<value>1AEAAAAAAABEMyIRDAAAAAAABgAKAAQABgAAAGQAAAAAAF4ASAAQAAwARABAADwAOAAAAAAAAAAAADQAMwAsAAAAKAAkACAAAAAAAAAAAAAAAAAAHAAAAAAAGgAAAAAAAAAUAAAAAAAAAAAAAAAAAAAAAAAAAAgAAAAAABsABwBeAAAAAAAAAUAAAABQAAAAbAAAAAIAAAAAAAEAAQAAAAAAQEEAAMBAAABAQAAAyEIAAAABIAAAAAIAAAACAAAAAAAQRACASkQA////BP///wj///8i////AAAAAAEAAAAEAAAAEQAAAEhHUFNvZWlLYWt1cG9wdGFpAAAAAQAAAAwAAAAIAAwABAAIAAgAAAAIAAAAEwAAAA8AAADjgYTjgY/jgonjgafjgoIANAAgAAAAHAAYAAAAAAAXABAAAAAAAAAAAAAAAAAAAAAAAAAADAAAAAAAAAAIAAAABAA0AAAAHAAAABwAAAAcAAAAAABwQQAAAAFoAAAAHf+eQ7D///+0////AQAAABQAAAAQABoACAAHAAwAAAAQABQAEAAAAAAAAAEcAAAAAACIQRwAAAACAAAAAAAKAAgABQAGAAcACgAAAAD9b//8////BAAEAAQAAAAIAAgABgAHAAgAAAAAAP1v</value>
								</parameter>
								<parameter authoringApp="PremierePro">
									<parameterid>2</parameterid>
									<name>トランスフォーム</name>
									<IsTimeVarying>false</IsTimeVarying>
									<ParameterControlType>11</ParameterControlType>
									<LowerBound>false</LowerBound>
									<UpperBound>false</UpperBound>
									<value>-91445760000000000,false,0,0,0,0,0,0</value>
								</parameter>
							</effect>
						</filter>
					</clipitem>
					<clipitem frameBlend="FALSE" id="clipitem-telop-98">
						<file id="file-2"/>
						<name>グラフィック</name>
						<rate>
							<timebase>59</timebase>
							<ntsc>TRUE</ntsc>
						</rate>
						<rate>
							<timebase>59</timebase>
							<ntsc>TRUE</ntsc>
						</rate>
						<duration>180</duration>
						<start>18651</start>
						<end>18831</end>
						<in>0</in>
						<out>180</out>
						<filter>
							<effect>
								<name></name>
								<effectid>GraphicAndType</effectid>
								<effectcategory>graphic</effectcategory>
								<effecttype>filter</effecttype>
								<mediatype>video</mediatype>
								<pproBypass>false</pproBypass>
								<parameter authoringApp="PremierePro">
									<parameterid>1</parameterid>
									<name>ソーステキスト</name>
									<hash>9da144c7-0b89-e7ae-5cc9-9e6c00000224</hash>
									<value>1AEAAAAAAABEMyIRDAAAAAAABgAKAAQABgAAAGQAAAAAAF4ASAAQAAwARABAADwAOAAAAAAAAAAAADQAMwAsAAAAKAAkACAAAAAAAAAAAAAAAAAAHAAAAAAAGgAAAAAAAAAUAAAAAAAAAAAAAAAAAAAAAAAAAAgAAAAAABsABwBeAAAAAAAAAUAAAABQAAAAbAAAAAIAAAAAAAEAAQAAAAAAQEEAAMBAAABAQAAAyEIAAAABIAAAAAIAAAACAAAAAAAQRACASkQA////BP///wj///8i////AAAAAAEAAAAEAAAAEQAAAEhHUFNvZWlLYWt1cG9wdGFpAAAAAQAAAAwAAAAIAAwABAAIAAgAAAAIAAAAHwAAABsAAADjgZXjgaPjgY3jga7jgojjgYbjgarpoZTjgpIANAAgAAAAHAAYAAAAAAAXABAAAAAAAAAAAAAAAAAAAAAAAAAADAAAAAAAAAAIAAAABAA0AAAAHAAAABwAAAAcAAAAAABwQQAAAAFoAAAAHf+eQ7D///+0////AQAAABQAAAAQABoACAAHAAwAAAAQABQAEAAAAAAAAAEcAAAAAACIQRwAAAACAAAAAAAKAAgABQAGAAcACgAAAAD9b//8////BAAEAAQAAAAIAAgABgAHAAgAAAAAAP1v</value>
								</parameter>
								<parameter authoringApp="PremierePro">
									<parameterid>2</parameterid>
									<name>トランスフォーム</name>
									<IsTimeVarying>false</IsTimeVarying>
									<ParameterControlType>11</ParameterControlType>
									<LowerBound>false</LowerBound>
									<UpperBound>false</UpperBound>
									<value>-91445760000000000,false,0,0,0,0,0,0</value>
								</parameter>
							</effect>
						</filter>
					</clipitem>
					<clipitem frameBlend="FALSE" id="clipitem-telop-99">
						<file id="file-2"/>
						<name>グラフィック</name>
						<rate>
							<timebase>59</timebase>
							<ntsc>TRUE</ntsc>
						</rate>
						<rate>
							<timebase>59</timebase>
							<ntsc>TRUE</ntsc>
						</rate>
						<duration>60</duration>
						<start>18891</start>
						<end>18951</end>
						<in>0</in>
						<out>60</out>
						<filter>
							<effect>
								<name></name>
								<effectid>GraphicAndType</effectid>
								<effectcategory>graphic</effectcategory>
								<effecttype>filter</effecttype>
								<mediatype>video</mediatype>
								<pproBypass>false</pproBypass>
								<parameter authoringApp="PremierePro">
									<parameterid>1</parameterid>
									<name>ソーステキスト</name>
									<hash>9da144c7-0b89-e7ae-5cc9-9e6c00000224</hash>
									<value>1AEAAAAAAABEMyIRDAAAAAAABgAKAAQABgAAAGQAAAAAAF4ASAAQAAwARABAADwAOAAAAAAAAAAAADQAMwAsAAAAKAAkACAAAAAAAAAAAAAAAAAAHAAAAAAAGgAAAAAAAAAUAAAAAAAAAAAAAAAAAAAAAAAAAAgAAAAAABsABwBeAAAAAAAAAUAAAABQAAAAbAAAAAIAAAAAAAEAAQAAAAAAQEEAAMBAAABAQAAAyEIAAAABIAAAAAIAAAACAAAAAAAQRACASkQA////BP///wj///8i////AAAAAAEAAAAEAAAAEQAAAEhHUFNvZWlLYWt1cG9wdGFpAAAAAQAAAAwAAAAIAAwABAAIAAgAAAAIAAAAFgAAABIAAADjgYvjgarjgYrjgafjgZnjgogAADQAIAAAABwAGAAAAAAAFwAQAAAAAAAAAAAAAAAAAAAAAAAAAAwAAAAAAAAACAAAAAQANAAAABwAAAAcAAAAHAAAAAAAcEEAAAABaAAAAB3/nkOw////tP///wEAAAAUAAAAEAAaAAgABwAMAAAAEAAUABAAAAAAAAABHAAAAAAAiEEcAAAAAgAAAAAACgAIAAUABgAHAAoAAAAA/W///P///wQABAAEAAAACAAIAAYABwAIAAAAAAD9bw==</value>
								</parameter>
								<parameter authoringApp="PremierePro">
									<parameterid>2</parameterid>
									<name>トランスフォーム</name>
									<IsTimeVarying>false</IsTimeVarying>
									<ParameterControlType>11</ParameterControlType>
									<LowerBound>false</LowerBound>
									<UpperBound>false</UpperBound>
									<value>-91445760000000000,false,0,0,0,0,0,0</value>
								</parameter>
							</effect>
						</filter>
					</clipitem>
					<clipitem frameBlend="FALSE" id="clipitem-telop-100">
						<file id="file-2"/>
						<name>グラフィック</name>
						<rate>
							<timebase>59</timebase>
							<ntsc>TRUE</ntsc>
						</rate>
						<rate>
							<timebase>59</timebase>
							<ntsc>TRUE</ntsc>
						</rate>
						<duration>120</duration>
						<start>18951</start>
						<end>19071</end>
						<in>0</in>
						<out>120</out>
						<filter>
							<effect>
								<name></name>
								<effectid>GraphicAndType</effectid>
								<effectcategory>graphic</effectcategory>
								<effecttype>filter</effecttype>
								<mediatype>video</mediatype>
								<pproBypass>false</pproBypass>
								<parameter authoringApp="PremierePro">
									<parameterid>1</parameterid>
									<name>ソーステキスト</name>
									<hash>9da144c7-0b89-e7ae-5cc9-9e6c00000224</hash>
									<value>1AEAAAAAAABEMyIRDAAAAAAABgAKAAQABgAAAGQAAAAAAF4ASAAQAAwARABAADwAOAAAAAAAAAAAADQAMwAsAAAAKAAkACAAAAAAAAAAAAAAAAAAHAAAAAAAGgAAAAAAAAAUAAAAAAAAAAAAAAAAAAAAAAAAAAgAAAAAABsABwBeAAAAAAAAAUAAAABQAAAAbAAAAAIAAAAAAAEAAQAAAAAAQEEAAMBAAABAQAAAyEIAAAABIAAAAAIAAAACAAAAAAAQRACASkQA////BP///wj///8i////AAAAAAEAAAAEAAAAEQAAAEhHUFNvZWlLYWt1cG9wdGFpAAAAAQAAAAwAAAAIAAwABAAIAAgAAAAIAAAADQAAAAkAAADjgYrlrKLmp5gAAAA0ACAAAAAcABgAAAAAABcAEAAAAAAAAAAAAAAAAAAAAAAAAAAMAAAAAAAAAAgAAAAEADQAAAAcAAAAHAAAABwAAAAAAHBBAAAAAWgAAAAd/55DsP///7T///8BAAAAFAAAABAAGgAIAAcADAAAABAAFAAQAAAAAAAAARwAAAAAAIhBHAAAAAIAAAAAAAoACAAFAAYABwAKAAAAAP1v//z///8EAAQABAAAAAgACAAGAAcACAAAAAAA/W8=</value>
								</parameter>
								<parameter authoringApp="PremierePro">
									<parameterid>2</parameterid>
									<name>トランスフォーム</name>
									<IsTimeVarying>false</IsTimeVarying>
									<ParameterControlType>11</ParameterControlType>
									<LowerBound>false</LowerBound>
									<UpperBound>false</UpperBound>
									<value>-91445760000000000,false,0,0,0,0,0,0</value>
								</parameter>
							</effect>
						</filter>
					</clipitem>
					<clipitem frameBlend="FALSE" id="clipitem-telop-101">
						<file id="file-2"/>
						<name>グラフィック</name>
						<rate>
							<timebase>59</timebase>
							<ntsc>TRUE</ntsc>
						</rate>
						<rate>
							<timebase>59</timebase>
							<ntsc>TRUE</ntsc>
						</rate>
						<duration>60</duration>
						<start>19071</start>
						<end>19131</end>
						<in>0</in>
						<out>60</out>
						<filter>
							<effect>
								<name></name>
								<effectid>GraphicAndType</effectid>
								<effectcategory>graphic</effectcategory>
								<effecttype>filter</effecttype>
								<mediatype>video</mediatype>
								<pproBypass>false</pproBypass>
								<parameter authoringApp="PremierePro">
									<parameterid>1</parameterid>
									<name>ソーステキスト</name>
									<hash>9da144c7-0b89-e7ae-5cc9-9e6c00000224</hash>
									<value>1AEAAAAAAABEMyIRDAAAAAAABgAKAAQABgAAAGQAAAAAAF4ASAAQAAwARABAADwAOAAAAAAAAAAAADQAMwAsAAAAKAAkACAAAAAAAAAAAAAAAAAAHAAAAAAAGgAAAAAAAAAUAAAAAAAAAAAAAAAAAAAAAAAAAAgAAAAAABsABwBeAAAAAAAAAUAAAABQAAAAbAAAAAIAAAAAAAEAAQAAAAAAQEEAAMBAAABAQAAAyEIAAAABIAAAAAIAAAACAAAAAAAQRACASkQA////BP///wj///8i////AAAAAAEAAAAEAAAAEQAAAEhHUFNvZWlLYWt1cG9wdGFpAAAAAQAAAAwAAAAIAAwABAAIAAgAAAAIAAAAEwAAAA8AAADkvZXlm57jgoLoqIDjgYYANAAgAAAAHAAYAAAAAAAXABAAAAAAAAAAAAAAAAAAAAAAAAAADAAAAAAAAAAIAAAABAA0AAAAHAAAABwAAAAcAAAAAABwQQAAAAFoAAAAHf+eQ7D///+0////AQAAABQAAAAQABoACAAHAAwAAAAQABQAEAAAAAAAAAEcAAAAAACIQRwAAAACAAAAAAAKAAgABQAGAAcACgAAAAD9b//8////BAAEAAQAAAAIAAgABgAHAAgAAAAAAP1v</value>
								</parameter>
								<parameter authoringApp="PremierePro">
									<parameterid>2</parameterid>
									<name>トランスフォーム</name>
									<IsTimeVarying>false</IsTimeVarying>
									<ParameterControlType>11</ParameterControlType>
									<LowerBound>false</LowerBound>
									<UpperBound>false</UpperBound>
									<value>-91445760000000000,false,0,0,0,0,0,0</value>
								</parameter>
							</effect>
						</filter>
					</clipitem>
					<clipitem frameBlend="FALSE" id="clipitem-telop-102">
						<file id="file-2"/>
						<name>グラフィック</name>
						<rate>
							<timebase>59</timebase>
							<ntsc>TRUE</ntsc>
						</rate>
						<rate>
							<timebase>59</timebase>
							<ntsc>TRUE</ntsc>
						</rate>
						<duration>120</duration>
						<start>19191</start>
						<end>19311</end>
						<in>0</in>
						<out>120</out>
						<filter>
							<effect>
								<name></name>
								<effectid>GraphicAndType</effectid>
								<effectcategory>graphic</effectcategory>
								<effecttype>filter</effecttype>
								<mediatype>video</mediatype>
								<pproBypass>false</pproBypass>
								<parameter authoringApp="PremierePro">
									<parameterid>1</parameterid>
									<name>ソーステキスト</name>
									<hash>9da144c7-0b89-e7ae-5cc9-9e6c00000224</hash>
									<value>1AEAAAAAAABEMyIRDAAAAAAABgAKAAQABgAAAGQAAAAAAF4ASAAQAAwARABAADwAOAAAAAAAAAAAADQAMwAsAAAAKAAkACAAAAAAAAAAAAAAAAAAHAAAAAAAGgAAAAAAAAAUAAAAAAAAAAAAAAAAAAAAAAAAAAgAAAAAABsABwBeAAAAAAAAAUAAAABQAAAAbAAAAAIAAAAAAAEAAQAAAAAAQEEAAMBAAABAQAAAyEIAAAABIAAAAAIAAAACAAAAAAAQRACASkQA////BP///wj///8i////AAAAAAEAAAAEAAAAEQAAAEhHUFNvZWlLYWt1cG9wdGFpAAAAAQAAAAwAAAAIAAwABAAIAAgAAAAIAAAAKAAAACQAAADjgYrlrKLmp5jpppbjgpLjgaTjgZHjgabjgYTjgb7jgZnjga00ACAAAAAcABgAAAAAABcAEAAAAAAAAAAAAAAAAAAAAAAAAAAMAAAAAAAAAAgAAAAEADQAAAAcAAAAHAAAABwAAAAAAHBBAAAAAWgAAAAd/55DsP///7T///8BAAAAFAAAABAAGgAIAAcADAAAABAAFAAQAAAAAAAAARwAAAAAAIhBHAAAAAIAAAAAAAoACAAFAAYABwAKAAAAAP1v//z///8EAAQABAAAAAgACAAGAAcACAAAAAAA/W8=</value>
								</parameter>
								<parameter authoringApp="PremierePro">
									<parameterid>2</parameterid>
									<name>トランスフォーム</name>
									<IsTimeVarying>false</IsTimeVarying>
									<ParameterControlType>11</ParameterControlType>
									<LowerBound>false</LowerBound>
									<UpperBound>false</UpperBound>
									<value>-91445760000000000,false,0,0,0,0,0,0</value>
								</parameter>
							</effect>
						</filter>
					</clipitem>
					<clipitem frameBlend="FALSE" id="clipitem-telop-103">
						<file id="file-2"/>
						<name>グラフィック</name>
						<rate>
							<timebase>59</timebase>
							<ntsc>TRUE</ntsc>
						</rate>
						<rate>
							<timebase>59</timebase>
							<ntsc>TRUE</ntsc>
						</rate>
						<duration>240</duration>
						<start>19311</start>
						<end>19551</end>
						<in>0</in>
						<out>240</out>
						<filter>
							<effect>
								<name></name>
								<effectid>GraphicAndType</effectid>
								<effectcategory>graphic</effectcategory>
								<effecttype>filter</effecttype>
								<mediatype>video</mediatype>
								<pproBypass>false</pproBypass>
								<parameter authoringApp="PremierePro">
									<parameterid>1</parameterid>
									<name>ソーステキスト</name>
									<hash>9da144c7-0b89-e7ae-5cc9-9e6c00000224</hash>
									<value>1AEAAAAAAABEMyIRDAAAAAAABgAKAAQABgAAAGQAAAAAAF4ASAAQAAwARABAADwAOAAAAAAAAAAAADQAMwAsAAAAKAAkACAAAAAAAAAAAAAAAAAAHAAAAAAAGgAAAAAAAAAUAAAAAAAAAAAAAAAAAAAAAAAAAAgAAAAAABsABwBeAAAAAAAAAUAAAABQAAAAbAAAAAIAAAAAAAEAAQAAAAAAQEEAAMBAAABAQAAAyEIAAAABIAAAAAIAAAACAAAAAAAQRACASkQA////BP///wj///8i////AAAAAAEAAAAEAAAAEQAAAEhHUFNvZWlLYWt1cG9wdGFpAAAAAQAAAAwAAAAIAAwABAAIAAgAAAAIAAAANwAAADMAAADjgaDjgYvjgonpppbjgpLjga/jgoHjgabjgbvjgZfjgYTjgarjgaPjgabmgJ3jgaPjgaYANAAgAAAAHAAYAAAAAAAXABAAAAAAAAAAAAAAAAAAAAAAAAAADAAAAAAAAAAIAAAABAA0AAAAHAAAABwAAAAcAAAAAABwQQAAAAFoAAAAHf+eQ7D///+0////AQAAABQAAAAQABoACAAHAAwAAAAQABQAEAAAAAAAAAEcAAAAAACIQRwAAAACAAAAAAAKAAgABQAGAAcACgAAAAD9b//8////BAAEAAQAAAAIAAgABgAHAAgAAAAAAP1v</value>
								</parameter>
								<parameter authoringApp="PremierePro">
									<parameterid>2</parameterid>
									<name>トランスフォーム</name>
									<IsTimeVarying>false</IsTimeVarying>
									<ParameterControlType>11</ParameterControlType>
									<LowerBound>false</LowerBound>
									<UpperBound>false</UpperBound>
									<value>-91445760000000000,false,0,0,0,0,0,0</value>
								</parameter>
							</effect>
						</filter>
					</clipitem>
					<clipitem frameBlend="FALSE" id="clipitem-telop-104">
						<file id="file-2"/>
						<name>グラフィック</name>
						<rate>
							<timebase>59</timebase>
							<ntsc>TRUE</ntsc>
						</rate>
						<rate>
							<timebase>59</timebase>
							<ntsc>TRUE</ntsc>
						</rate>
						<duration>120</duration>
						<start>19551</start>
						<end>19671</end>
						<in>0</in>
						<out>120</out>
						<filter>
							<effect>
								<name></name>
								<effectid>GraphicAndType</effectid>
								<effectcategory>graphic</effectcategory>
								<effecttype>filter</effecttype>
								<mediatype>video</mediatype>
								<pproBypass>false</pproBypass>
								<parameter authoringApp="PremierePro">
									<parameterid>1</parameterid>
									<name>ソーステキスト</name>
									<hash>9da144c7-0b89-e7ae-5cc9-9e6c00000224</hash>
									<value>1AEAAAAAAABEMyIRDAAAAAAABgAKAAQABgAAAGQAAAAAAF4ASAAQAAwARABAADwAOAAAAAAAAAAAADQAMwAsAAAAKAAkACAAAAAAAAAAAAAAAAAAHAAAAAAAGgAAAAAAAAAUAAAAAAAAAAAAAAAAAAAAAAAAAAgAAAAAABsABwBeAAAAAAAAAUAAAABQAAAAbAAAAAIAAAAAAAEAAQAAAAAAQEEAAMBAAABAQAAAyEIAAAABIAAAAAIAAAACAAAAAAAQRACASkQA////BP///wj///8i////AAAAAAEAAAAEAAAAEQAAAEhHUFNvZWlLYWt1cG9wdGFpAAAAAQAAAAwAAAAIAAwABAAIAAgAAAAIAAAAHwAAABsAAADjgZ3jgozjgpLjgqTjg6Hjg7zjgrjjgZfjgaYANAAgAAAAHAAYAAAAAAAXABAAAAAAAAAAAAAAAAAAAAAAAAAADAAAAAAAAAAIAAAABAA0AAAAHAAAABwAAAAcAAAAAABwQQAAAAFoAAAAHf+eQ7D///+0////AQAAABQAAAAQABoACAAHAAwAAAAQABQAEAAAAAAAAAEcAAAAAACIQRwAAAACAAAAAAAKAAgABQAGAAcACgAAAAD9b//8////BAAEAAQAAAAIAAgABgAHAAgAAAAAAP1v</value>
								</parameter>
								<parameter authoringApp="PremierePro">
									<parameterid>2</parameterid>
									<name>トランスフォーム</name>
									<IsTimeVarying>false</IsTimeVarying>
									<ParameterControlType>11</ParameterControlType>
									<LowerBound>false</LowerBound>
									<UpperBound>false</UpperBound>
									<value>-91445760000000000,false,0,0,0,0,0,0</value>
								</parameter>
							</effect>
						</filter>
					</clipitem>
					<clipitem frameBlend="FALSE" id="clipitem-telop-105">
						<file id="file-2"/>
						<name>グラフィック</name>
						<rate>
							<timebase>59</timebase>
							<ntsc>TRUE</ntsc>
						</rate>
						<rate>
							<timebase>59</timebase>
							<ntsc>TRUE</ntsc>
						</rate>
						<duration>120</duration>
						<start>19671</start>
						<end>19791</end>
						<in>0</in>
						<out>120</out>
						<filter>
							<effect>
								<name></name>
								<effectid>GraphicAndType</effectid>
								<effectcategory>graphic</effectcategory>
								<effecttype>filter</effecttype>
								<mediatype>video</mediatype>
								<pproBypass>false</pproBypass>
								<parameter authoringApp="PremierePro">
									<parameterid>1</parameterid>
									<name>ソーステキスト</name>
									<hash>9da144c7-0b89-e7ae-5cc9-9e6c00000224</hash>
									<value>1AEAAAAAAABEMyIRDAAAAAAABgAKAAQABgAAAGQAAAAAAF4ASAAQAAwARABAADwAOAAAAAAAAAAAADQAMwAsAAAAKAAkACAAAAAAAAAAAAAAAAAAHAAAAAAAGgAAAAAAAAAUAAAAAAAAAAAAAAAAAAAAAAAAAAgAAAAAABsABwBeAAAAAAAAAUAAAABQAAAAbAAAAAIAAAAAAAEAAQAAAAAAQEEAAMBAAABAQAAAyEIAAAABIAAAAAIAAAACAAAAAAAQRACASkQA////BP///wj///8i////AAAAAAEAAAAEAAAAEQAAAEhHUFNvZWlLYWt1cG9wdGFpAAAAAQAAAAwAAAAIAAwABAAIAAgAAAAIAAAAKAAAACQAAADotoXjgqvjg7zjgaTjgZHjgabjgY3jgZ/jgpPjgaDjgojjga00ACAAAAAcABgAAAAAABcAEAAAAAAAAAAAAAAAAAAAAAAAAAAMAAAAAAAAAAgAAAAEADQAAAAcAAAAHAAAABwAAAAAAHBBAAAAAWgAAAAd/55DsP///7T///8BAAAAFAAAABAAGgAIAAcADAAAABAAFAAQAAAAAAAAARwAAAAAAIhBHAAAAAIAAAAAAAoACAAFAAYABwAKAAAAAP1v//z///8EAAQABAAAAAgACAAGAAcACAAAAAAA/W8=</value>
								</parameter>
								<parameter authoringApp="PremierePro">
									<parameterid>2</parameterid>
									<name>トランスフォーム</name>
									<IsTimeVarying>false</IsTimeVarying>
									<ParameterControlType>11</ParameterControlType>
									<LowerBound>false</LowerBound>
									<UpperBound>false</UpperBound>
									<value>-91445760000000000,false,0,0,0,0,0,0</value>
								</parameter>
							</effect>
						</filter>
					</clipitem>
					<clipitem frameBlend="FALSE" id="clipitem-telop-106">
						<file id="file-2"/>
						<name>グラフィック</name>
						<rate>
							<timebase>59</timebase>
							<ntsc>TRUE</ntsc>
						</rate>
						<rate>
							<timebase>59</timebase>
							<ntsc>TRUE</ntsc>
						</rate>
						<duration>120</duration>
						<start>19791</start>
						<end>19911</end>
						<in>0</in>
						<out>120</out>
						<filter>
							<effect>
								<name></name>
								<effectid>GraphicAndType</effectid>
								<effectcategory>graphic</effectcategory>
								<effecttype>filter</effecttype>
								<mediatype>video</mediatype>
								<pproBypass>false</pproBypass>
								<parameter authoringApp="PremierePro">
									<parameterid>1</parameterid>
									<name>ソーステキスト</name>
									<hash>9da144c7-0b89-e7ae-5cc9-9e6c00000224</hash>
									<value>1AEAAAAAAABEMyIRDAAAAAAABgAKAAQABgAAAGQAAAAAAF4ASAAQAAwARABAADwAOAAAAAAAAAAAADQAMwAsAAAAKAAkACAAAAAAAAAAAAAAAAAAHAAAAAAAGgAAAAAAAAAUAAAAAAAAAAAAAAAAAAAAAAAAAAgAAAAAABsABwBeAAAAAAAAAUAAAABQAAAAbAAAAAIAAAAAAAEAAQAAAAAAQEEAAMBAAABAQAAAyEIAAAABIAAAAAIAAAACAAAAAAAQRACASkQA////BP///wj///8i////AAAAAAEAAAAEAAAAEQAAAEhHUFNvZWlLYWt1cG9wdGFpAAAAAQAAAAwAAAAIAAwABAAIAAgAAAAIAAAAJQAAACEAAADntKDmlbXjgafjgZnjga3jgYrlrKLmp5jjga/lhajjgY8AAAA0ACAAAAAcABgAAAAAABcAEAAAAAAAAAAAAAAAAAAAAAAAAAAMAAAAAAAAAAgAAAAEADQAAAAcAAAAHAAAABwAAAAAAHBBAAAAAWgAAAAd/55DsP///7T///8BAAAAFAAAABAAGgAIAAcADAAAABAAFAAQAAAAAAAAARwAAAAAAIhBHAAAAAIAAAAAAAoACAAFAAYABwAKAAAAAP1v//z///8EAAQABAAAAAgACAAGAAcACAAAAAAA/W8=</value>
								</parameter>
								<parameter authoringApp="PremierePro">
									<parameterid>2</parameterid>
									<name>トランスフォーム</name>
									<IsTimeVarying>false</IsTimeVarying>
									<ParameterControlType>11</ParameterControlType>
									<LowerBound>false</LowerBound>
									<UpperBound>false</UpperBound>
									<value>-91445760000000000,false,0,0,0,0,0,0</value>
								</parameter>
							</effect>
						</filter>
					</clipitem>
					<clipitem frameBlend="FALSE" id="clipitem-telop-107">
						<file id="file-2"/>
						<name>グラフィック</name>
						<rate>
							<timebase>59</timebase>
							<ntsc>TRUE</ntsc>
						</rate>
						<rate>
							<timebase>59</timebase>
							<ntsc>TRUE</ntsc>
						</rate>
						<duration>60</duration>
						<start>19911</start>
						<end>19971</end>
						<in>0</in>
						<out>60</out>
						<filter>
							<effect>
								<name></name>
								<effectid>GraphicAndType</effectid>
								<effectcategory>graphic</effectcategory>
								<effecttype>filter</effecttype>
								<mediatype>video</mediatype>
								<pproBypass>false</pproBypass>
								<parameter authoringApp="PremierePro">
									<parameterid>1</parameterid>
									<name>ソーステキスト</name>
									<hash>9da144c7-0b89-e7ae-5cc9-9e6c00000224</hash>
									<value>1AEAAAAAAABEMyIRDAAAAAAABgAKAAQABgAAAGQAAAAAAF4ASAAQAAwARABAADwAOAAAAAAAAAAAADQAMwAsAAAAKAAkACAAAAAAAAAAAAAAAAAAHAAAAAAAGgAAAAAAAAAUAAAAAAAAAAAAAAAAAAAAAAAAAAgAAAAAABsABwBeAAAAAAAAAUAAAABQAAAAbAAAAAIAAAAAAAEAAQAAAAAAQEEAAMBAAABAQAAAyEIAAAABIAAAAAIAAAACAAAAAAAQRACASkQA////BP///wj///8i////AAAAAAEAAAAEAAAAEQAAAEhHUFNvZWlLYWt1cG9wdGFpAAAAAQAAAAwAAAAIAAwABAAIAAgAAAAIAAAAEwAAAA8AAADjgZ3jgYbjgaDjgojjga0ANAAgAAAAHAAYAAAAAAAXABAAAAAAAAAAAAAAAAAAAAAAAAAADAAAAAAAAAAIAAAABAA0AAAAHAAAABwAAAAcAAAAAABwQQAAAAFoAAAAHf+eQ7D///+0////AQAAABQAAAAQABoACAAHAAwAAAAQABQAEAAAAAAAAAEcAAAAAACIQRwAAAACAAAAAAAKAAgABQAGAAcACgAAAAD9b//8////BAAEAAQAAAAIAAgABgAHAAgAAAAAAP1v</value>
								</parameter>
								<parameter authoringApp="PremierePro">
									<parameterid>2</parameterid>
									<name>トランスフォーム</name>
									<IsTimeVarying>false</IsTimeVarying>
									<ParameterControlType>11</ParameterControlType>
									<LowerBound>false</LowerBound>
									<UpperBound>false</UpperBound>
									<value>-91445760000000000,false,0,0,0,0,0,0</value>
								</parameter>
							</effect>
						</filter>
					</clipitem>
					<clipitem frameBlend="FALSE" id="clipitem-telop-108">
						<file id="file-2"/>
						<name>グラフィック</name>
						<rate>
							<timebase>59</timebase>
							<ntsc>TRUE</ntsc>
						</rate>
						<rate>
							<timebase>59</timebase>
							<ntsc>TRUE</ntsc>
						</rate>
						<duration>120</duration>
						<start>19971</start>
						<end>20091</end>
						<in>0</in>
						<out>120</out>
						<filter>
							<effect>
								<name></name>
								<effectid>GraphicAndType</effectid>
								<effectcategory>graphic</effectcategory>
								<effecttype>filter</effecttype>
								<mediatype>video</mediatype>
								<pproBypass>false</pproBypass>
								<parameter authoringApp="PremierePro">
									<parameterid>1</parameterid>
									<name>ソーステキスト</name>
									<hash>9da144c7-0b89-e7ae-5cc9-9e6c00000224</hash>
									<value>1AEAAAAAAABEMyIRDAAAAAAABgAKAAQABgAAAGQAAAAAAF4ASAAQAAwARABAADwAOAAAAAAAAAAAADQAMwAsAAAAKAAkACAAAAAAAAAAAAAAAAAAHAAAAAAAGgAAAAAAAAAUAAAAAAAAAAAAAAAAAAAAAAAAAAgAAAAAABsABwBeAAAAAAAAAUAAAABQAAAAbAAAAAIAAAAAAAEAAQAAAAAAQEEAAMBAAABAQAAAyEIAAAABIAAAAAIAAAACAAAAAAAQRACASkQA////BP///wj///8i////AAAAAAEAAAAEAAAAEQAAAEhHUFNvZWlLYWt1cG9wdGFpAAAAAQAAAAwAAAAIAAwABAAIAAgAAAAIAAAAHwAAABsAAADjgZPjgYblvoXjgaPjgabjgYrlrKLmp5jjgaAANAAgAAAAHAAYAAAAAAAXABAAAAAAAAAAAAAAAAAAAAAAAAAADAAAAAAAAAAIAAAABAA0AAAAHAAAABwAAAAcAAAAAABwQQAAAAFoAAAAHf+eQ7D///+0////AQAAABQAAAAQABoACAAHAAwAAAAQABQAEAAAAAAAAAEcAAAAAACIQRwAAAACAAAAAAAKAAgABQAGAAcACgAAAAD9b//8////BAAEAAQAAAAIAAgABgAHAAgAAAAAAP1v</value>
								</parameter>
								<parameter authoringApp="PremierePro">
									<parameterid>2</parameterid>
									<name>トランスフォーム</name>
									<IsTimeVarying>false</IsTimeVarying>
									<ParameterControlType>11</ParameterControlType>
									<LowerBound>false</LowerBound>
									<UpperBound>false</UpperBound>
									<value>-91445760000000000,false,0,0,0,0,0,0</value>
								</parameter>
							</effect>
						</filter>
					</clipitem>
					<clipitem frameBlend="FALSE" id="clipitem-telop-109">
						<file id="file-2"/>
						<name>グラフィック</name>
						<rate>
							<timebase>59</timebase>
							<ntsc>TRUE</ntsc>
						</rate>
						<rate>
							<timebase>59</timebase>
							<ntsc>TRUE</ntsc>
						</rate>
						<duration>60</duration>
						<start>20091</start>
						<end>20151</end>
						<in>0</in>
						<out>60</out>
						<filter>
							<effect>
								<name></name>
								<effectid>GraphicAndType</effectid>
								<effectcategory>graphic</effectcategory>
								<effecttype>filter</effecttype>
								<mediatype>video</mediatype>
								<pproBypass>false</pproBypass>
								<parameter authoringApp="PremierePro">
									<parameterid>1</parameterid>
									<name>ソーステキスト</name>
									<hash>9da144c7-0b89-e7ae-5cc9-9e6c00000224</hash>
									<value>1AEAAAAAAABEMyIRDAAAAAAABgAKAAQABgAAAGQAAAAAAF4ASAAQAAwARABAADwAOAAAAAAAAAAAADQAMwAsAAAAKAAkACAAAAAAAAAAAAAAAAAAHAAAAAAAGgAAAAAAAAAUAAAAAAAAAAAAAAAAAAAAAAAAAAgAAAAAABsABwBeAAAAAAAAAUAAAABQAAAAbAAAAAIAAAAAAAEAAQAAAAAAQEEAAMBAAABAQAAAyEIAAAABIAAAAAIAAAACAAAAAAAQRACASkQA////BP///wj///8i////AAAAAAEAAAAEAAAAEQAAAEhHUFNvZWlLYWt1cG9wdGFpAAAAAQAAAAwAAAAIAAwABAAIAAgAAAAIAAAACgAAAAYAAADkuKHmlrkAADQAIAAAABwAGAAAAAAAFwAQAAAAAAAAAAAAAAAAAAAAAAAAAAwAAAAAAAAACAAAAAQANAAAABwAAAAcAAAAHAAAAAAAcEEAAAABaAAAAB3/nkOw////tP///wEAAAAUAAAAEAAaAAgABwAMAAAAEAAUABAAAAAAAAABHAAAAAAAiEEcAAAAAgAAAAAACgAIAAUABgAHAAoAAAAA/W///P///wQABAAEAAAACAAIAAYABwAIAAAAAAD9bw==</value>
								</parameter>
								<parameter authoringApp="PremierePro">
									<parameterid>2</parameterid>
									<name>トランスフォーム</name>
									<IsTimeVarying>false</IsTimeVarying>
									<ParameterControlType>11</ParameterControlType>
									<LowerBound>false</LowerBound>
									<UpperBound>false</UpperBound>
									<value>-91445760000000000,false,0,0,0,0,0,0</value>
								</parameter>
							</effect>
						</filter>
					</clipitem>
					<clipitem frameBlend="FALSE" id="clipitem-telop-110">
						<file id="file-2"/>
						<name>グラフィック</name>
						<rate>
							<timebase>59</timebase>
							<ntsc>TRUE</ntsc>
						</rate>
						<rate>
							<timebase>59</timebase>
							<ntsc>TRUE</ntsc>
						</rate>
						<duration>60</duration>
						<start>20211</start>
						<end>20271</end>
						<in>0</in>
						<out>60</out>
						<filter>
							<effect>
								<name></name>
								<effectid>GraphicAndType</effectid>
								<effectcategory>graphic</effectcategory>
								<effecttype>filter</effecttype>
								<mediatype>video</mediatype>
								<pproBypass>false</pproBypass>
								<parameter authoringApp="PremierePro">
									<parameterid>1</parameterid>
									<name>ソーステキスト</name>
									<hash>9da144c7-0b89-e7ae-5cc9-9e6c00000224</hash>
									<value>1AEAAAAAAABEMyIRDAAAAAAABgAKAAQABgAAAGQAAAAAAF4ASAAQAAwARABAADwAOAAAAAAAAAAAADQAMwAsAAAAKAAkACAAAAAAAAAAAAAAAAAAHAAAAAAAGgAAAAAAAAAUAAAAAAAAAAAAAAAAAAAAAAAAAAgAAAAAABsABwBeAAAAAAAAAUAAAABQAAAAbAAAAAIAAAAAAAEAAQAAAAAAQEEAAMBAAABAQAAAyEIAAAABIAAAAAIAAAACAAAAAAAQRACASkQA////BP///wj///8i////AAAAAAEAAAAEAAAAEQAAAEhHUFNvZWlLYWt1cG9wdGFpAAAAAQAAAAwAAAAIAAwABAAIAAgAAAAIAAAAEAAAAAwAAADjgZ3jga7pppbjga80ACAAAAAcABgAAAAAABcAEAAAAAAAAAAAAAAAAAAAAAAAAAAMAAAAAAAAAAgAAAAEADQAAAAcAAAAHAAAABwAAAAAAHBBAAAAAWgAAAAd/55DsP///7T///8BAAAAFAAAABAAGgAIAAcADAAAABAAFAAQAAAAAAAAARwAAAAAAIhBHAAAAAIAAAAAAAoACAAFAAYABwAKAAAAAP1v//z///8EAAQABAAAAAgACAAGAAcACAAAAAAA/W8=</value>
								</parameter>
								<parameter authoringApp="PremierePro">
									<parameterid>2</parameterid>
									<name>トランスフォーム</name>
									<IsTimeVarying>false</IsTimeVarying>
									<ParameterControlType>11</ParameterControlType>
									<LowerBound>false</LowerBound>
									<UpperBound>false</UpperBound>
									<value>-91445760000000000,false,0,0,0,0,0,0</value>
								</parameter>
							</effect>
						</filter>
					</clipitem>
					<clipitem frameBlend="FALSE" id="clipitem-telop-111">
						<file id="file-2"/>
						<name>グラフィック</name>
						<rate>
							<timebase>59</timebase>
							<ntsc>TRUE</ntsc>
						</rate>
						<rate>
							<timebase>59</timebase>
							<ntsc>TRUE</ntsc>
						</rate>
						<duration>120</duration>
						<start>20271</start>
						<end>20391</end>
						<in>0</in>
						<out>120</out>
						<filter>
							<effect>
								<name></name>
								<effectid>GraphicAndType</effectid>
								<effectcategory>graphic</effectcategory>
								<effecttype>filter</effecttype>
								<mediatype>video</mediatype>
								<pproBypass>false</pproBypass>
								<parameter authoringApp="PremierePro">
									<parameterid>1</parameterid>
									<name>ソーステキスト</name>
									<hash>9da144c7-0b89-e7ae-5cc9-9e6c00000224</hash>
									<value>1AEAAAAAAABEMyIRDAAAAAAABgAKAAQABgAAAGQAAAAAAF4ASAAQAAwARABAADwAOAAAAAAAAAAAADQAMwAsAAAAKAAkACAAAAAAAAAAAAAAAAAAHAAAAAAAGgAAAAAAAAAUAAAAAAAAAAAAAAAAAAAAAAAAAAgAAAAAABsABwBeAAAAAAAAAUAAAABQAAAAbAAAAAIAAAAAAAEAAQAAAAAAQEEAAMBAAABAQAAAyEIAAAABIAAAAAIAAAACAAAAAAAQRACASkQA////BP///wj///8i////AAAAAAEAAAAEAAAAEQAAAEhHUFNvZWlLYWt1cG9wdGFpAAAAAQAAAAwAAAAIAAwABAAIAAgAAAAIAAAADQAAAAkAAADku4rnp4HjgYwAAAA0ACAAAAAcABgAAAAAABcAEAAAAAAAAAAAAAAAAAAAAAAAAAAMAAAAAAAAAAgAAAAEADQAAAAcAAAAHAAAABwAAAAAAHBBAAAAAWgAAAAd/55DsP///7T///8BAAAAFAAAABAAGgAIAAcADAAAABAAFAAQAAAAAAAAARwAAAAAAIhBHAAAAAIAAAAAAAoACAAFAAYABwAKAAAAAP1v//z///8EAAQABAAAAAgACAAGAAcACAAAAAAA/W8=</value>
								</parameter>
								<parameter authoringApp="PremierePro">
									<parameterid>2</parameterid>
									<name>トランスフォーム</name>
									<IsTimeVarying>false</IsTimeVarying>
									<ParameterControlType>11</ParameterControlType>
									<LowerBound>false</LowerBound>
									<UpperBound>false</UpperBound>
									<value>-91445760000000000,false,0,0,0,0,0,0</value>
								</parameter>
							</effect>
						</filter>
					</clipitem>
					<clipitem frameBlend="FALSE" id="clipitem-telop-112">
						<file id="file-2"/>
						<name>グラフィック</name>
						<rate>
							<timebase>59</timebase>
							<ntsc>TRUE</ntsc>
						</rate>
						<rate>
							<timebase>59</timebase>
							<ntsc>TRUE</ntsc>
						</rate>
						<duration>60</duration>
						<start>20391</start>
						<end>20451</end>
						<in>0</in>
						<out>60</out>
						<filter>
							<effect>
								<name></name>
								<effectid>GraphicAndType</effectid>
								<effectcategory>graphic</effectcategory>
								<effecttype>filter</effecttype>
								<mediatype>video</mediatype>
								<pproBypass>false</pproBypass>
								<parameter authoringApp="PremierePro">
									<parameterid>1</parameterid>
									<name>ソーステキスト</name>
									<hash>9da144c7-0b89-e7ae-5cc9-9e6c00000224</hash>
									<value>1AEAAAAAAABEMyIRDAAAAAAABgAKAAQABgAAAGQAAAAAAF4ASAAQAAwARABAADwAOAAAAAAAAAAAADQAMwAsAAAAKAAkACAAAAAAAAAAAAAAAAAAHAAAAAAAGgAAAAAAAAAUAAAAAAAAAAAAAAAAAAAAAAAAAAgAAAAAABsABwBeAAAAAAAAAUAAAABQAAAAbAAAAAIAAAAAAAEAAQAAAAAAQEEAAMBAAABAQAAAyEIAAAABIAAAAAIAAAACAAAAAAAQRACASkQA////BP///wj///8i////AAAAAAEAAAAEAAAAEQAAAEhHUFNvZWlLYWt1cG9wdGFpAAAAAQAAAAwAAAAIAAwABAAIAAgAAAAIAAAAHAAAABgAAADjgYrliY3jgYzog4zosqDjgYTjgo3jgZc0ACAAAAAcABgAAAAAABcAEAAAAAAAAAAAAAAAAAAAAAAAAAAMAAAAAAAAAAgAAAAEADQAAAAcAAAAHAAAABwAAAAAAHBBAAAAAWgAAAAd/55DsP///7T///8BAAAAFAAAABAAGgAIAAcADAAAABAAFAAQAAAAAAAAARwAAAAAAIhBHAAAAAIAAAAAAAoACAAFAAYABwAKAAAAAP1v//z///8EAAQABAAAAAgACAAGAAcACAAAAAAA/W8=</value>
								</parameter>
								<parameter authoringApp="PremierePro">
									<parameterid>2</parameterid>
									<name>トランスフォーム</name>
									<IsTimeVarying>false</IsTimeVarying>
									<ParameterControlType>11</ParameterControlType>
									<LowerBound>false</LowerBound>
									<UpperBound>false</UpperBound>
									<value>-91445760000000000,false,0,0,0,0,0,0</value>
								</parameter>
							</effect>
						</filter>
					</clipitem>
					<clipitem frameBlend="FALSE" id="clipitem-telop-113">
						<file id="file-2"/>
						<name>グラフィック</name>
						<rate>
							<timebase>59</timebase>
							<ntsc>TRUE</ntsc>
						</rate>
						<rate>
							<timebase>59</timebase>
							<ntsc>TRUE</ntsc>
						</rate>
						<duration>120</duration>
						<start>20451</start>
						<end>20571</end>
						<in>0</in>
						<out>120</out>
						<filter>
							<effect>
								<name></name>
								<effectid>GraphicAndType</effectid>
								<effectcategory>graphic</effectcategory>
								<effecttype>filter</effecttype>
								<mediatype>video</mediatype>
								<pproBypass>false</pproBypass>
								<parameter authoringApp="PremierePro">
									<parameterid>1</parameterid>
									<name>ソーステキスト</name>
									<hash>9da144c7-0b89-e7ae-5cc9-9e6c00000224</hash>
									<value>1AEAAAAAAABEMyIRDAAAAAAABgAKAAQABgAAAGQAAAAAAF4ASAAQAAwARABAADwAOAAAAAAAAAAAADQAMwAsAAAAKAAkACAAAAAAAAAAAAAAAAAAHAAAAAAAGgAAAAAAAAAUAAAAAAAAAAAAAAAAAAAAAAAAAAgAAAAAABsABwBeAAAAAAAAAUAAAABQAAAAbAAAAAIAAAAAAAEAAQAAAAAAQEEAAMBAAABAQAAAyEIAAAABIAAAAAIAAAACAAAAAAAQRACASkQA////BP///wj///8i////AAAAAAEAAAAEAAAAEQAAAEhHUFNvZWlLYWt1cG9wdGFpAAAAAQAAAAwAAAAIAAwABAAIAAgAAAAIAAAAMgAAAC4AAADjgYrliY3jgIHjgaHjgofjgaPjgajkuIrmiYvjgY/jgafjgY3jgovjga7jgYs/AAA0ACAAAAAcABgAAAAAABcAEAAAAAAAAAAAAAAAAAAAAAAAAAAMAAAAAAAAAAgAAAAEADQAAAAcAAAAHAAAABwAAAAAAHBBAAAAAWgAAAAd/55DsP///7T///8BAAAAFAAAABAAGgAIAAcADAAAABAAFAAQAAAAAAAAARwAAAAAAIhBHAAAAAIAAAAAAAoACAAFAAYABwAKAAAAAP1v//z///8EAAQABAAAAAgACAAGAAcACAAAAAAA/W8=</value>
								</parameter>
								<parameter authoringApp="PremierePro">
									<parameterid>2</parameterid>
									<name>トランスフォーム</name>
									<IsTimeVarying>false</IsTimeVarying>
									<ParameterControlType>11</ParameterControlType>
									<LowerBound>false</LowerBound>
									<UpperBound>false</UpperBound>
									<value>-91445760000000000,false,0,0,0,0,0,0</value>
								</parameter>
							</effect>
						</filter>
					</clipitem>
					<clipitem frameBlend="FALSE" id="clipitem-telop-114">
						<file id="file-2"/>
						<name>グラフィック</name>
						<rate>
							<timebase>59</timebase>
							<ntsc>TRUE</ntsc>
						</rate>
						<rate>
							<timebase>59</timebase>
							<ntsc>TRUE</ntsc>
						</rate>
						<duration>60</duration>
						<start>20571</start>
						<end>20631</end>
						<in>0</in>
						<out>60</out>
						<filter>
							<effect>
								<name></name>
								<effectid>GraphicAndType</effectid>
								<effectcategory>graphic</effectcategory>
								<effecttype>filter</effecttype>
								<mediatype>video</mediatype>
								<pproBypass>false</pproBypass>
								<parameter authoringApp="PremierePro">
									<parameterid>1</parameterid>
									<name>ソーステキスト</name>
									<hash>9da144c7-0b89-e7ae-5cc9-9e6c00000224</hash>
									<value>1AEAAAAAAABEMyIRDAAAAAAABgAKAAQABgAAAGQAAAAAAF4ASAAQAAwARABAADwAOAAAAAAAAAAAADQAMwAsAAAAKAAkACAAAAAAAAAAAAAAAAAAHAAAAAAAGgAAAAAAAAAUAAAAAAAAAAAAAAAAAAAAAAAAAAgAAAAAABsABwBeAAAAAAAAAUAAAABQAAAAbAAAAAIAAAAAAAEAAQAAAAAAQEEAAMBAAABAQAAAyEIAAAABIAAAAAIAAAACAAAAAAAQRACASkQA////BP///wj///8i////AAAAAAEAAAAEAAAAEQAAAEhHUFNvZWlLYWt1cG9wdGFpAAAAAQAAAAwAAAAIAAwABAAIAAgAAAAIAAAAEAAAAAwAAADjgZ3jgYbjgYvjgog0ACAAAAAcABgAAAAAABcAEAAAAAAAAAAAAAAAAAAAAAAAAAAMAAAAAAAAAAgAAAAEADQAAAAcAAAAHAAAABwAAAAAAHBBAAAAAWgAAAAd/55DsP///7T///8BAAAAFAAAABAAGgAIAAcADAAAABAAFAAQAAAAAAAAARwAAAAAAIhBHAAAAAIAAAAAAAoACAAFAAYABwAKAAAAAP1v//z///8EAAQABAAAAAgACAAGAAcACAAAAAAA/W8=</value>
								</parameter>
								<parameter authoringApp="PremierePro">
									<parameterid>2</parameterid>
									<name>トランスフォーム</name>
									<IsTimeVarying>false</IsTimeVarying>
									<ParameterControlType>11</ParameterControlType>
									<LowerBound>false</LowerBound>
									<UpperBound>false</UpperBound>
									<value>-91445760000000000,false,0,0,0,0,0,0</value>
								</parameter>
							</effect>
						</filter>
					</clipitem>
					<clipitem frameBlend="FALSE" id="clipitem-telop-115">
						<file id="file-2"/>
						<name>グラフィック</name>
						<rate>
							<timebase>59</timebase>
							<ntsc>TRUE</ntsc>
						</rate>
						<rate>
							<timebase>59</timebase>
							<ntsc>TRUE</ntsc>
						</rate>
						<duration>60</duration>
						<start>20751</start>
						<end>20811</end>
						<in>0</in>
						<out>60</out>
						<filter>
							<effect>
								<name></name>
								<effectid>GraphicAndType</effectid>
								<effectcategory>graphic</effectcategory>
								<effecttype>filter</effecttype>
								<mediatype>video</mediatype>
								<pproBypass>false</pproBypass>
								<parameter authoringApp="PremierePro">
									<parameterid>1</parameterid>
									<name>ソーステキスト</name>
									<hash>9da144c7-0b89-e7ae-5cc9-9e6c00000224</hash>
									<value>1AEAAAAAAABEMyIRDAAAAAAABgAKAAQABgAAAGQAAAAAAF4ASAAQAAwARABAADwAOAAAAAAAAAAAADQAMwAsAAAAKAAkACAAAAAAAAAAAAAAAAAAHAAAAAAAGgAAAAAAAAAUAAAAAAAAAAAAAAAAAAAAAAAAAAgAAAAAABsABwBeAAAAAAAAAUAAAABQAAAAbAAAAAIAAAAAAAEAAQAAAAAAQEEAAMBAAABAQAAAyEIAAAABIAAAAAIAAAACAAAAAAAQRACASkQA////BP///wj///8i////AAAAAAEAAAAEAAAAEQAAAEhHUFNvZWlLYWt1cG9wdGFpAAAAAQAAAAwAAAAIAAwABAAIAAgAAAAIAAAAEwAAAA8AAADms6LkvJ3luKvjga/jgagANAAgAAAAHAAYAAAAAAAXABAAAAAAAAAAAAAAAAAAAAAAAAAADAAAAAAAAAAIAAAABAA0AAAAHAAAABwAAAAcAAAAAABwQQAAAAFoAAAAHf+eQ7D///+0////AQAAABQAAAAQABoACAAHAAwAAAAQABQAEAAAAAAAAAEcAAAAAACIQRwAAAACAAAAAAAKAAgABQAGAAcACgAAAAD9b//8////BAAEAAQAAAAIAAgABgAHAAgAAAAAAP1v</value>
								</parameter>
								<parameter authoringApp="PremierePro">
									<parameterid>2</parameterid>
									<name>トランスフォーム</name>
									<IsTimeVarying>false</IsTimeVarying>
									<ParameterControlType>11</ParameterControlType>
									<LowerBound>false</LowerBound>
									<UpperBound>false</UpperBound>
									<value>-91445760000000000,false,0,0,0,0,0,0</value>
								</parameter>
							</effect>
						</filter>
					</clipitem>
					<clipitem frameBlend="FALSE" id="clipitem-telop-116">
						<file id="file-2"/>
						<name>グラフィック</name>
						<rate>
							<timebase>59</timebase>
							<ntsc>TRUE</ntsc>
						</rate>
						<rate>
							<timebase>59</timebase>
							<ntsc>TRUE</ntsc>
						</rate>
						<duration>60</duration>
						<start>20811</start>
						<end>20871</end>
						<in>0</in>
						<out>60</out>
						<filter>
							<effect>
								<name></name>
								<effectid>GraphicAndType</effectid>
								<effectcategory>graphic</effectcategory>
								<effecttype>filter</effecttype>
								<mediatype>video</mediatype>
								<pproBypass>false</pproBypass>
								<parameter authoringApp="PremierePro">
									<parameterid>1</parameterid>
									<name>ソーステキスト</name>
									<hash>9da144c7-0b89-e7ae-5cc9-9e6c00000224</hash>
									<value>1AEAAAAAAABEMyIRDAAAAAAABgAKAAQABgAAAGQAAAAAAF4ASAAQAAwARABAADwAOAAAAAAAAAAAADQAMwAsAAAAKAAkACAAAAAAAAAAAAAAAAAAHAAAAAAAGgAAAAAAAAAUAAAAAAAAAAAAAAAAAAAAAAAAAAgAAAAAABsABwBeAAAAAAAAAUAAAABQAAAAbAAAAAIAAAAAAAEAAQAAAAAAQEEAAMBAAABAQAAAyEIAAAABIAAAAAIAAAACAAAAAAAQRACASkQA////BP///wj///8i////AAAAAAEAAAAEAAAAEQAAAEhHUFNvZWlLYWt1cG9wdGFpAAAAAQAAAAwAAAAIAAwABAAIAAgAAAAIAAAAHAAAABgAAADlp4njgYzlhaXjgorjgb7jgZfjgZ/jgog0ACAAAAAcABgAAAAAABcAEAAAAAAAAAAAAAAAAAAAAAAAAAAMAAAAAAAAAAgAAAAEADQAAAAcAAAAHAAAABwAAAAAAHBBAAAAAWgAAAAd/55DsP///7T///8BAAAAFAAAABAAGgAIAAcADAAAABAAFAAQAAAAAAAAARwAAAAAAIhBHAAAAAIAAAAAAAoACAAFAAYABwAKAAAAAP1v//z///8EAAQABAAAAAgACAAGAAcACAAAAAAA/W8=</value>
								</parameter>
								<parameter authoringApp="PremierePro">
									<parameterid>2</parameterid>
									<name>トランスフォーム</name>
									<IsTimeVarying>false</IsTimeVarying>
									<ParameterControlType>11</ParameterControlType>
									<LowerBound>false</LowerBound>
									<UpperBound>false</UpperBound>
									<value>-91445760000000000,false,0,0,0,0,0,0</value>
								</parameter>
							</effect>
						</filter>
					</clipitem>
					<clipitem frameBlend="FALSE" id="clipitem-telop-117">
						<file id="file-2"/>
						<name>グラフィック</name>
						<rate>
							<timebase>59</timebase>
							<ntsc>TRUE</ntsc>
						</rate>
						<rate>
							<timebase>59</timebase>
							<ntsc>TRUE</ntsc>
						</rate>
						<duration>60</duration>
						<start>20931</start>
						<end>20991</end>
						<in>0</in>
						<out>60</out>
						<filter>
							<effect>
								<name></name>
								<effectid>GraphicAndType</effectid>
								<effectcategory>graphic</effectcategory>
								<effecttype>filter</effecttype>
								<mediatype>video</mediatype>
								<pproBypass>false</pproBypass>
								<parameter authoringApp="PremierePro">
									<parameterid>1</parameterid>
									<name>ソーステキスト</name>
									<hash>9da144c7-0b89-e7ae-5cc9-9e6c00000224</hash>
									<value>1AEAAAAAAABEMyIRDAAAAAAABgAKAAQABgAAAGQAAAAAAF4ASAAQAAwARABAADwAOAAAAAAAAAAAADQAMwAsAAAAKAAkACAAAAAAAAAAAAAAAAAAHAAAAAAAGgAAAAAAAAAUAAAAAAAAAAAAAAAAAAAAAAAAAAgAAAAAABsABwBeAAAAAAAAAUAAAABQAAAAbAAAAAIAAAAAAAEAAQAAAAAAQEEAAMBAAABAQAAAyEIAAAABIAAAAAIAAAACAAAAAAAQRACASkQA////BP///wj///8i////AAAAAAEAAAAEAAAAEQAAAEhHUFNvZWlLYWt1cG9wdGFpAAAAAQAAAAwAAAAIAAwABAAIAAgAAAAIAAAAGQAAABUAAADjgYjjgIHjgZjjgoPjgYLjgoLjgYYAAAA0ACAAAAAcABgAAAAAABcAEAAAAAAAAAAAAAAAAAAAAAAAAAAMAAAAAAAAAAgAAAAEADQAAAAcAAAAHAAAABwAAAAAAHBBAAAAAWgAAAAd/55DsP///7T///8BAAAAFAAAABAAGgAIAAcADAAAABAAFAAQAAAAAAAAARwAAAAAAIhBHAAAAAIAAAAAAAoACAAFAAYABwAKAAAAAP1v//z///8EAAQABAAAAAgACAAGAAcACAAAAAAA/W8=</value>
								</parameter>
								<parameter authoringApp="PremierePro">
									<parameterid>2</parameterid>
									<name>トランスフォーム</name>
									<IsTimeVarying>false</IsTimeVarying>
									<ParameterControlType>11</ParameterControlType>
									<LowerBound>false</LowerBound>
									<UpperBound>false</UpperBound>
									<value>-91445760000000000,false,0,0,0,0,0,0</value>
								</parameter>
							</effect>
						</filter>
					</clipitem>
					<clipitem frameBlend="FALSE" id="clipitem-telop-118">
						<file id="file-2"/>
						<name>グラフィック</name>
						<rate>
							<timebase>59</timebase>
							<ntsc>TRUE</ntsc>
						</rate>
						<rate>
							<timebase>59</timebase>
							<ntsc>TRUE</ntsc>
						</rate>
						<duration>60</duration>
						<start>20991</start>
						<end>21051</end>
						<in>0</in>
						<out>60</out>
						<filter>
							<effect>
								<name></name>
								<effectid>GraphicAndType</effectid>
								<effectcategory>graphic</effectcategory>
								<effecttype>filter</effecttype>
								<mediatype>video</mediatype>
								<pproBypass>false</pproBypass>
								<parameter authoringApp="PremierePro">
									<parameterid>1</parameterid>
									<name>ソーステキスト</name>
									<hash>9da144c7-0b89-e7ae-5cc9-9e6c00000224</hash>
									<value>1AEAAAAAAABEMyIRDAAAAAAABgAKAAQABgAAAGQAAAAAAF4ASAAQAAwARABAADwAOAAAAAAAAAAAADQAMwAsAAAAKAAkACAAAAAAAAAAAAAAAAAAHAAAAAAAGgAAAAAAAAAUAAAAAAAAAAAAAAAAAAAAAAAAAAgAAAAAABsABwBeAAAAAAAAAUAAAABQAAAAbAAAAAIAAAAAAAEAAQAAAAAAQEEAAMBAAABAQAAAyEIAAAABIAAAAAIAAAACAAAAAAAQRACASkQA////BP///wj///8i////AAAAAAEAAAAEAAAAEQAAAEhHUFNvZWlLYWt1cG9wdGFpAAAAAQAAAAwAAAAIAAwABAAIAAgAAAAIAAAAFgAAABIAAADjgaHjgofjgaPjgajjgaDjgZEAADQAIAAAABwAGAAAAAAAFwAQAAAAAAAAAAAAAAAAAAAAAAAAAAwAAAAAAAAACAAAAAQANAAAABwAAAAcAAAAHAAAAAAAcEEAAAABaAAAAB3/nkOw////tP///wEAAAAUAAAAEAAaAAgABwAMAAAAEAAUABAAAAAAAAABHAAAAAAAiEEcAAAAAgAAAAAACgAIAAUABgAHAAoAAAAA/W///P///wQABAAEAAAACAAIAAYABwAIAAAAAAD9bw==</value>
								</parameter>
								<parameter authoringApp="PremierePro">
									<parameterid>2</parameterid>
									<name>トランスフォーム</name>
									<IsTimeVarying>false</IsTimeVarying>
									<ParameterControlType>11</ParameterControlType>
									<LowerBound>false</LowerBound>
									<UpperBound>false</UpperBound>
									<value>-91445760000000000,false,0,0,0,0,0,0</value>
								</parameter>
							</effect>
						</filter>
					</clipitem>
					<clipitem frameBlend="FALSE" id="clipitem-telop-119">
						<file id="file-2"/>
						<name>グラフィック</name>
						<rate>
							<timebase>59</timebase>
							<ntsc>TRUE</ntsc>
						</rate>
						<rate>
							<timebase>59</timebase>
							<ntsc>TRUE</ntsc>
						</rate>
						<duration>60</duration>
						<start>21051</start>
						<end>21111</end>
						<in>0</in>
						<out>60</out>
						<filter>
							<effect>
								<name></name>
								<effectid>GraphicAndType</effectid>
								<effectcategory>graphic</effectcategory>
								<effecttype>filter</effecttype>
								<mediatype>video</mediatype>
								<pproBypass>false</pproBypass>
								<parameter authoringApp="PremierePro">
									<parameterid>1</parameterid>
									<name>ソーステキスト</name>
									<hash>9da144c7-0b89-e7ae-5cc9-9e6c00000224</hash>
									<value>1AEAAAAAAABEMyIRDAAAAAAABgAKAAQABgAAAGQAAAAAAF4ASAAQAAwARABAADwAOAAAAAAAAAAAADQAMwAsAAAAKAAkACAAAAAAAAAAAAAAAAAAHAAAAAAAGgAAAAAAAAAUAAAAAAAAAAAAAAAAAAAAAAAAAAgAAAAAABsABwBeAAAAAAAAAUAAAABQAAAAbAAAAAIAAAAAAAEAAQAAAAAAQEEAAMBAAABAQAAAyEIAAAABIAAAAAIAAAACAAAAAAAQRACASkQA////BP///wj///8i////AAAAAAEAAAAEAAAAEQAAAEhHUFNvZWlLYWt1cG9wdGFpAAAAAQAAAAwAAAAIAAwABAAIAAgAAAAIAAAAJQAAACEAAADjgaHjgofjgaPjgajjgaDjgZHlvoXjgaHjgarjgZXjgYQAAAA0ACAAAAAcABgAAAAAABcAEAAAAAAAAAAAAAAAAAAAAAAAAAAMAAAAAAAAAAgAAAAEADQAAAAcAAAAHAAAABwAAAAAAHBBAAAAAWgAAAAd/55DsP///7T///8BAAAAFAAAABAAGgAIAAcADAAAABAAFAAQAAAAAAAAARwAAAAAAIhBHAAAAAIAAAAAAAoACAAFAAYABwAKAAAAAP1v//z///8EAAQABAAAAAgACAAGAAcACAAAAAAA/W8=</value>
								</parameter>
								<parameter authoringApp="PremierePro">
									<parameterid>2</parameterid>
									<name>トランスフォーム</name>
									<IsTimeVarying>false</IsTimeVarying>
									<ParameterControlType>11</ParameterControlType>
									<LowerBound>false</LowerBound>
									<UpperBound>false</UpperBound>
									<value>-91445760000000000,false,0,0,0,0,0,0</value>
								</parameter>
							</effect>
						</filter>
					</clipitem>
					<clipitem frameBlend="FALSE" id="clipitem-telop-120">
						<file id="file-2"/>
						<name>グラフィック</name>
						<rate>
							<timebase>59</timebase>
							<ntsc>TRUE</ntsc>
						</rate>
						<rate>
							<timebase>59</timebase>
							<ntsc>TRUE</ntsc>
						</rate>
						<duration>60</duration>
						<start>21111</start>
						<end>21171</end>
						<in>0</in>
						<out>60</out>
						<filter>
							<effect>
								<name></name>
								<effectid>GraphicAndType</effectid>
								<effectcategory>graphic</effectcategory>
								<effecttype>filter</effecttype>
								<mediatype>video</mediatype>
								<pproBypass>false</pproBypass>
								<parameter authoringApp="PremierePro">
									<parameterid>1</parameterid>
									<name>ソーステキスト</name>
									<hash>9da144c7-0b89-e7ae-5cc9-9e6c00000224</hash>
									<value>1AEAAAAAAABEMyIRDAAAAAAABgAKAAQABgAAAGQAAAAAAF4ASAAQAAwARABAADwAOAAAAAAAAAAAADQAMwAsAAAAKAAkACAAAAAAAAAAAAAAAAAAHAAAAAAAGgAAAAAAAAAUAAAAAAAAAAAAAAAAAAAAAAAAAAgAAAAAABsABwBeAAAAAAAAAUAAAABQAAAAbAAAAAIAAAAAAAEAAQAAAAAAQEEAAMBAAABAQAAAyEIAAAABIAAAAAIAAAACAAAAAAAQRACASkQA////BP///wj///8i////AAAAAAEAAAAEAAAAEQAAAEhHUFNvZWlLYWt1cG9wdGFpAAAAAQAAAAwAAAAIAAwABAAIAAgAAAAIAAAAHQAAABkAAADjgYjjgIHooYzjgaPjgaHjgoPjgYbjga4/AAAANAAgAAAAHAAYAAAAAAAXABAAAAAAAAAAAAAAAAAAAAAAAAAADAAAAAAAAAAIAAAABAA0AAAAHAAAABwAAAAcAAAAAABwQQAAAAFoAAAAHf+eQ7D///+0////AQAAABQAAAAQABoACAAHAAwAAAAQABQAEAAAAAAAAAEcAAAAAACIQRwAAAACAAAAAAAKAAgABQAGAAcACgAAAAD9b//8////BAAEAAQAAAAIAAgABgAHAAgAAAAAAP1v</value>
								</parameter>
								<parameter authoringApp="PremierePro">
									<parameterid>2</parameterid>
									<name>トランスフォーム</name>
									<IsTimeVarying>false</IsTimeVarying>
									<ParameterControlType>11</ParameterControlType>
									<LowerBound>false</LowerBound>
									<UpperBound>false</UpperBound>
									<value>-91445760000000000,false,0,0,0,0,0,0</value>
								</parameter>
							</effect>
						</filter>
					</clipitem>
					<clipitem frameBlend="FALSE" id="clipitem-telop-121">
						<file id="file-2"/>
						<name>グラフィック</name>
						<rate>
							<timebase>59</timebase>
							<ntsc>TRUE</ntsc>
						</rate>
						<rate>
							<timebase>59</timebase>
							<ntsc>TRUE</ntsc>
						</rate>
						<duration>60</duration>
						<start>21171</start>
						<end>21231</end>
						<in>0</in>
						<out>60</out>
						<filter>
							<effect>
								<name></name>
								<effectid>GraphicAndType</effectid>
								<effectcategory>graphic</effectcategory>
								<effecttype>filter</effecttype>
								<mediatype>video</mediatype>
								<pproBypass>false</pproBypass>
								<parameter authoringApp="PremierePro">
									<parameterid>1</parameterid>
									<name>ソーステキスト</name>
									<hash>9da144c7-0b89-e7ae-5cc9-9e6c00000224</hash>
									<value>1AEAAAAAAABEMyIRDAAAAAAABgAKAAQABgAAAGQAAAAAAF4ASAAQAAwARABAADwAOAAAAAAAAAAAADQAMwAsAAAAKAAkACAAAAAAAAAAAAAAAAAAHAAAAAAAGgAAAAAAAAAUAAAAAAAAAAAAAAAAAAAAAAAAAAgAAAAAABsABwBeAAAAAAAAAUAAAABQAAAAbAAAAAIAAAAAAAEAAQAAAAAAQEEAAMBAAABAQAAAyEIAAAABIAAAAAIAAAACAAAAAAAQRACASkQA////BP///wj///8i////AAAAAAEAAAAEAAAAEQAAAEhHUFNvZWlLYWt1cG9wdGFpAAAAAQAAAAwAAAAIAAwABAAIAAgAAAAIAAAAJQAAACEAAADjgaHjgofjgaPjgajjgaDjgZHlvoXjgaHjgarjgZXjgYQAAAA0ACAAAAAcABgAAAAAABcAEAAAAAAAAAAAAAAAAAAAAAAAAAAMAAAAAAAAAAgAAAAEADQAAAAcAAAAHAAAABwAAAAAAHBBAAAAAWgAAAAd/55DsP///7T///8BAAAAFAAAABAAGgAIAAcADAAAABAAFAAQAAAAAAAAARwAAAAAAIhBHAAAAAIAAAAAAAoACAAFAAYABwAKAAAAAP1v//z///8EAAQABAAAAAgACAAGAAcACAAAAAAA/W8=</value>
								</parameter>
								<parameter authoringApp="PremierePro">
									<parameterid>2</parameterid>
									<name>トランスフォーム</name>
									<IsTimeVarying>false</IsTimeVarying>
									<ParameterControlType>11</ParameterControlType>
									<LowerBound>false</LowerBound>
									<UpperBound>false</UpperBound>
									<value>-91445760000000000,false,0,0,0,0,0,0</value>
								</parameter>
							</effect>
						</filter>
					</clipitem>
					<clipitem frameBlend="FALSE" id="clipitem-telop-122">
						<file id="file-2"/>
						<name>グラフィック</name>
						<rate>
							<timebase>59</timebase>
							<ntsc>TRUE</ntsc>
						</rate>
						<rate>
							<timebase>59</timebase>
							<ntsc>TRUE</ntsc>
						</rate>
						<duration>120</duration>
						<start>21231</start>
						<end>21351</end>
						<in>0</in>
						<out>120</out>
						<filter>
							<effect>
								<name></name>
								<effectid>GraphicAndType</effectid>
								<effectcategory>graphic</effectcategory>
								<effecttype>filter</effecttype>
								<mediatype>video</mediatype>
								<pproBypass>false</pproBypass>
								<parameter authoringApp="PremierePro">
									<parameterid>1</parameterid>
									<name>ソーステキスト</name>
									<hash>9da144c7-0b89-e7ae-5cc9-9e6c00000224</hash>
									<value>1AEAAAAAAABEMyIRDAAAAAAABgAKAAQABgAAAGQAAAAAAF4ASAAQAAwARABAADwAOAAAAAAAAAAAADQAMwAsAAAAKAAkACAAAAAAAAAAAAAAAAAAHAAAAAAAGgAAAAAAAAAUAAAAAAAAAAAAAAAAAAAAAAAAAAgAAAAAABsABwBeAAAAAAAAAUAAAABQAAAAbAAAAAIAAAAAAAEAAQAAAAAAQEEAAMBAAABAQAAAyEIAAAABIAAAAAIAAAACAAAAAAAQRACASkQA////BP///wj///8i////AAAAAAEAAAAEAAAAEQAAAEhHUFNvZWlLYWt1cG9wdGFpAAAAAQAAAAwAAAAIAAwABAAIAAgAAAAIAAAAHAAAABgAAADjgb7jgYLlhajnhLbooYzjgaPjgabjgoI0ACAAAAAcABgAAAAAABcAEAAAAAAAAAAAAAAAAAAAAAAAAAAMAAAAAAAAAAgAAAAEADQAAAAcAAAAHAAAABwAAAAAAHBBAAAAAWgAAAAd/55DsP///7T///8BAAAAFAAAABAAGgAIAAcADAAAABAAFAAQAAAAAAAAARwAAAAAAIhBHAAAAAIAAAAAAAoACAAFAAYABwAKAAAAAP1v//z///8EAAQABAAAAAgACAAGAAcACAAAAAAA/W8=</value>
								</parameter>
								<parameter authoringApp="PremierePro">
									<parameterid>2</parameterid>
									<name>トランスフォーム</name>
									<IsTimeVarying>false</IsTimeVarying>
									<ParameterControlType>11</ParameterControlType>
									<LowerBound>false</LowerBound>
									<UpperBound>false</UpperBound>
									<value>-91445760000000000,false,0,0,0,0,0,0</value>
								</parameter>
							</effect>
						</filter>
					</clipitem>
					<clipitem frameBlend="FALSE" id="clipitem-telop-123">
						<file id="file-2"/>
						<name>グラフィック</name>
						<rate>
							<timebase>59</timebase>
							<ntsc>TRUE</ntsc>
						</rate>
						<rate>
							<timebase>59</timebase>
							<ntsc>TRUE</ntsc>
						</rate>
						<duration>60</duration>
						<start>21351</start>
						<end>21411</end>
						<in>0</in>
						<out>60</out>
						<filter>
							<effect>
								<name></name>
								<effectid>GraphicAndType</effectid>
								<effectcategory>graphic</effectcategory>
								<effecttype>filter</effecttype>
								<mediatype>video</mediatype>
								<pproBypass>false</pproBypass>
								<parameter authoringApp="PremierePro">
									<parameterid>1</parameterid>
									<name>ソーステキスト</name>
									<hash>9da144c7-0b89-e7ae-5cc9-9e6c00000224</hash>
									<value>1AEAAAAAAABEMyIRDAAAAAAABgAKAAQABgAAAGQAAAAAAF4ASAAQAAwARABAADwAOAAAAAAAAAAAADQAMwAsAAAAKAAkACAAAAAAAAAAAAAAAAAAHAAAAAAAGgAAAAAAAAAUAAAAAAAAAAAAAAAAAAAAAAAAAAgAAAAAABsABwBeAAAAAAAAAUAAAABQAAAAbAAAAAIAAAAAAAEAAQAAAAAAQEEAAMBAAABAQAAAyEIAAAABIAAAAAIAAAACAAAAAAAQRACASkQA////BP///wj///8i////AAAAAAEAAAAEAAAAEQAAAEhHUFNvZWlLYWt1cG9wdGFpAAAAAQAAAAwAAAAIAAwABAAIAAgAAAAIAAAAHwAAABsAAADooYzjgaPjgabjgoLjgYTjgYTjgojlhajnhLYANAAgAAAAHAAYAAAAAAAXABAAAAAAAAAAAAAAAAAAAAAAAAAADAAAAAAAAAAIAAAABAA0AAAAHAAAABwAAAAcAAAAAABwQQAAAAFoAAAAHf+eQ7D///+0////AQAAABQAAAAQABoACAAHAAwAAAAQABQAEAAAAAAAAAEcAAAAAACIQRwAAAACAAAAAAAKAAgABQAGAAcACgAAAAD9b//8////BAAEAAQAAAAIAAgABgAHAAgAAAAAAP1v</value>
								</parameter>
								<parameter authoringApp="PremierePro">
									<parameterid>2</parameterid>
									<name>トランスフォーム</name>
									<IsTimeVarying>false</IsTimeVarying>
									<ParameterControlType>11</ParameterControlType>
									<LowerBound>false</LowerBound>
									<UpperBound>false</UpperBound>
									<value>-91445760000000000,false,0,0,0,0,0,0</value>
								</parameter>
							</effect>
						</filter>
					</clipitem>
					<clipitem frameBlend="FALSE" id="clipitem-telop-124">
						<file id="file-2"/>
						<name>グラフィック</name>
						<rate>
							<timebase>59</timebase>
							<ntsc>TRUE</ntsc>
						</rate>
						<rate>
							<timebase>59</timebase>
							<ntsc>TRUE</ntsc>
						</rate>
						<duration>180</duration>
						<start>21411</start>
						<end>21591</end>
						<in>0</in>
						<out>180</out>
						<filter>
							<effect>
								<name></name>
								<effectid>GraphicAndType</effectid>
								<effectcategory>graphic</effectcategory>
								<effecttype>filter</effecttype>
								<mediatype>video</mediatype>
								<pproBypass>false</pproBypass>
								<parameter authoringApp="PremierePro">
									<parameterid>1</parameterid>
									<name>ソーステキスト</name>
									<hash>9da144c7-0b89-e7ae-5cc9-9e6c00000224</hash>
									<value>1AEAAAAAAABEMyIRDAAAAAAABgAKAAQABgAAAGQAAAAAAF4ASAAQAAwARABAADwAOAAAAAAAAAAAADQAMwAsAAAAKAAkACAAAAAAAAAAAAAAAAAAHAAAAAAAGgAAAAAAAAAUAAAAAAAAAAAAAAAAAAAAAAAAAAgAAAAAABsABwBeAAAAAAAAAUAAAABQAAAAbAAAAAIAAAAAAAEAAQAAAAAAQEEAAMBAAABAQAAAyEIAAAABIAAAAAIAAAACAAAAAAAQRACASkQA////BP///wj///8i////AAAAAAEAAAAEAAAAEQAAAEhHUFNvZWlLYWt1cG9wdGFpAAAAAQAAAAwAAAAIAAwABAAIAAgAAAAIAAAANwAAADMAAADjgoLjgaHjgo3jgpPnp4Hjga/jg5/jg6vjgq/jgYrlrKLmp5jjga7jgYrjgZ3jgbDjgasANAAgAAAAHAAYAAAAAAAXABAAAAAAAAAAAAAAAAAAAAAAAAAADAAAAAAAAAAIAAAABAA0AAAAHAAAABwAAAAcAAAAAABwQQAAAAFoAAAAHf+eQ7D///+0////AQAAABQAAAAQABoACAAHAAwAAAAQABQAEAAAAAAAAAEcAAAAAACIQRwAAAACAAAAAAAKAAgABQAGAAcACgAAAAD9b//8////BAAEAAQAAAAIAAgABgAHAAgAAAAAAP1v</value>
								</parameter>
								<parameter authoringApp="PremierePro">
									<parameterid>2</parameterid>
									<name>トランスフォーム</name>
									<IsTimeVarying>false</IsTimeVarying>
									<ParameterControlType>11</ParameterControlType>
									<LowerBound>false</LowerBound>
									<UpperBound>false</UpperBound>
									<value>-91445760000000000,false,0,0,0,0,0,0</value>
								</parameter>
							</effect>
						</filter>
					</clipitem>
					<clipitem frameBlend="FALSE" id="clipitem-telop-125">
						<file id="file-2"/>
						<name>グラフィック</name>
						<rate>
							<timebase>59</timebase>
							<ntsc>TRUE</ntsc>
						</rate>
						<rate>
							<timebase>59</timebase>
							<ntsc>TRUE</ntsc>
						</rate>
						<duration>240</duration>
						<start>21591</start>
						<end>21831</end>
						<in>0</in>
						<out>240</out>
						<filter>
							<effect>
								<name></name>
								<effectid>GraphicAndType</effectid>
								<effectcategory>graphic</effectcategory>
								<effecttype>filter</effecttype>
								<mediatype>video</mediatype>
								<pproBypass>false</pproBypass>
								<parameter authoringApp="PremierePro">
									<parameterid>1</parameterid>
									<name>ソーステキスト</name>
									<hash>9da144c7-0b89-e7ae-5cc9-9e6c00000224</hash>
									<value>1AEAAAAAAABEMyIRDAAAAAAABgAKAAQABgAAAGQAAAAAAF4ASAAQAAwARABAADwAOAAAAAAAAAAAADQAMwAsAAAAKAAkACAAAAAAAAAAAAAAAAAAHAAAAAAAGgAAAAAAAAAUAAAAAAAAAAAAAAAAAAAAAAAAAAgAAAAAABsABwBeAAAAAAAAAUAAAABQAAAAbAAAAAIAAAAAAAEAAQAAAAAAQEEAAMBAAABAQAAAyEIAAAABIAAAAAIAAAACAAAAAAAQRACASkQA////BP///wj///8i////AAAAAAEAAAAEAAAAEQAAAEhHUFNvZWlLYWt1cG9wdGFpAAAAAQAAAAwAAAAIAAwABAAIAAgAAAAIAAAAOgAAADYAAADjgYTjgoTjgIHjg5/jg6vjgq/jgYrlrKLmp5jjga7pppbjgpLlh7roqbHjgZfjgb7jgZvjgpMAADQAIAAAABwAGAAAAAAAFwAQAAAAAAAAAAAAAAAAAAAAAAAAAAwAAAAAAAAACAAAAAQANAAAABwAAAAcAAAAHAAAAAAAcEEAAAABaAAAAB3/nkOw////tP///wEAAAAUAAAAEAAaAAgABwAMAAAAEAAUABAAAAAAAAABHAAAAAAAiEEcAAAAAgAAAAAACgAIAAUABgAHAAoAAAAA/W///P///wQABAAEAAAACAAIAAYABwAIAAAAAAD9bw==</value>
								</parameter>
								<parameter authoringApp="PremierePro">
									<parameterid>2</parameterid>
									<name>トランスフォーム</name>
									<IsTimeVarying>false</IsTimeVarying>
									<ParameterControlType>11</ParameterControlType>
									<LowerBound>false</LowerBound>
									<UpperBound>false</UpperBound>
									<value>-91445760000000000,false,0,0,0,0,0,0</value>
								</parameter>
							</effect>
						</filter>
					</clipitem>
					<clipitem frameBlend="FALSE" id="clipitem-telop-126">
						<file id="file-2"/>
						<name>グラフィック</name>
						<rate>
							<timebase>59</timebase>
							<ntsc>TRUE</ntsc>
						</rate>
						<rate>
							<timebase>59</timebase>
							<ntsc>TRUE</ntsc>
						</rate>
						<duration>60</duration>
						<start>21831</start>
						<end>21891</end>
						<in>0</in>
						<out>60</out>
						<filter>
							<effect>
								<name></name>
								<effectid>GraphicAndType</effectid>
								<effectcategory>graphic</effectcategory>
								<effecttype>filter</effecttype>
								<mediatype>video</mediatype>
								<pproBypass>false</pproBypass>
								<parameter authoringApp="PremierePro">
									<parameterid>1</parameterid>
									<name>ソーステキスト</name>
									<hash>9da144c7-0b89-e7ae-5cc9-9e6c00000224</hash>
									<value>1AEAAAAAAABEMyIRDAAAAAAABgAKAAQABgAAAGQAAAAAAF4ASAAQAAwARABAADwAOAAAAAAAAAAAADQAMwAsAAAAKAAkACAAAAAAAAAAAAAAAAAAHAAAAAAAGgAAAAAAAAAUAAAAAAAAAAAAAAAAAAAAAAAAAAgAAAAAABsABwBeAAAAAAAAAUAAAABQAAAAbAAAAAIAAAAAAAEAAQAAAAAAQEEAAMBAAABAQAAAyEIAAAABIAAAAAIAAAACAAAAAAAQRACASkQA////BP///wj///8i////AAAAAAEAAAAEAAAAEQAAAEhHUFNvZWlLYWt1cG9wdGFpAAAAAQAAAAwAAAAIAAwABAAIAAgAAAAIAAAACgAAAAYAAADjgYbjgpMAADQAIAAAABwAGAAAAAAAFwAQAAAAAAAAAAAAAAAAAAAAAAAAAAwAAAAAAAAACAAAAAQANAAAABwAAAAcAAAAHAAAAAAAcEEAAAABaAAAAB3/nkOw////tP///wEAAAAUAAAAEAAaAAgABwAMAAAAEAAUABAAAAAAAAABHAAAAAAAiEEcAAAAAgAAAAAACgAIAAUABgAHAAoAAAAA/W///P///wQABAAEAAAACAAIAAYABwAIAAAAAAD9bw==</value>
								</parameter>
								<parameter authoringApp="PremierePro">
									<parameterid>2</parameterid>
									<name>トランスフォーム</name>
									<IsTimeVarying>false</IsTimeVarying>
									<ParameterControlType>11</ParameterControlType>
									<LowerBound>false</LowerBound>
									<UpperBound>false</UpperBound>
									<value>-91445760000000000,false,0,0,0,0,0,0</value>
								</parameter>
							</effect>
						</filter>
					</clipitem>
					<clipitem frameBlend="FALSE" id="clipitem-telop-127">
						<file id="file-2"/>
						<name>グラフィック</name>
						<rate>
							<timebase>59</timebase>
							<ntsc>TRUE</ntsc>
						</rate>
						<rate>
							<timebase>59</timebase>
							<ntsc>TRUE</ntsc>
						</rate>
						<duration>120</duration>
						<start>21891</start>
						<end>22011</end>
						<in>0</in>
						<out>120</out>
						<filter>
							<effect>
								<name></name>
								<effectid>GraphicAndType</effectid>
								<effectcategory>graphic</effectcategory>
								<effecttype>filter</effecttype>
								<mediatype>video</mediatype>
								<pproBypass>false</pproBypass>
								<parameter authoringApp="PremierePro">
									<parameterid>1</parameterid>
									<name>ソーステキスト</name>
									<hash>9da144c7-0b89-e7ae-5cc9-9e6c00000224</hash>
									<value>1AEAAAAAAABEMyIRDAAAAAAABgAKAAQABgAAAGQAAAAAAF4ASAAQAAwARABAADwAOAAAAAAAAAAAADQAMwAsAAAAKAAkACAAAAAAAAAAAAAAAAAAHAAAAAAAGgAAAAAAAAAUAAAAAAAAAAAAAAAAAAAAAAAAAAgAAAAAABsABwBeAAAAAAAAAUAAAABQAAAAbAAAAAIAAAAAAAEAAQAAAAAAQEEAAMBAAABAQAAAyEIAAAABIAAAAAIAAAACAAAAAAAQRACASkQA////BP///wj///8i////AAAAAAEAAAAEAAAAEQAAAEhHUFNvZWlLYWt1cG9wdGFpAAAAAQAAAAwAAAAIAAwABAAIAAgAAAAIAAAAJQAAACEAAADlvZPjgZ/jgorliY3jgZfjgaHjgoPjgYTjgb7jgZfjgZ8AAAA0ACAAAAAcABgAAAAAABcAEAAAAAAAAAAAAAAAAAAAAAAAAAAMAAAAAAAAAAgAAAAEADQAAAAcAAAAHAAAABwAAAAAAHBBAAAAAWgAAAAd/55DsP///7T///8BAAAAFAAAABAAGgAIAAcADAAAABAAFAAQAAAAAAAAARwAAAAAAIhBHAAAAAIAAAAAAAoACAAFAAYABwAKAAAAAP1v//z///8EAAQABAAAAAgACAAGAAcACAAAAAAA/W8=</value>
								</parameter>
								<parameter authoringApp="PremierePro">
									<parameterid>2</parameterid>
									<name>トランスフォーム</name>
									<IsTimeVarying>false</IsTimeVarying>
									<ParameterControlType>11</ParameterControlType>
									<LowerBound>false</LowerBound>
									<UpperBound>false</UpperBound>
									<value>-91445760000000000,false,0,0,0,0,0,0</value>
								</parameter>
							</effect>
						</filter>
					</clipitem>
					<clipitem frameBlend="FALSE" id="clipitem-telop-128">
						<file id="file-2"/>
						<name>グラフィック</name>
						<rate>
							<timebase>59</timebase>
							<ntsc>TRUE</ntsc>
						</rate>
						<rate>
							<timebase>59</timebase>
							<ntsc>TRUE</ntsc>
						</rate>
						<duration>120</duration>
						<start>22071</start>
						<end>22191</end>
						<in>0</in>
						<out>120</out>
						<filter>
							<effect>
								<name></name>
								<effectid>GraphicAndType</effectid>
								<effectcategory>graphic</effectcategory>
								<effecttype>filter</effecttype>
								<mediatype>video</mediatype>
								<pproBypass>false</pproBypass>
								<parameter authoringApp="PremierePro">
									<parameterid>1</parameterid>
									<name>ソーステキスト</name>
									<hash>9da144c7-0b89-e7ae-5cc9-9e6c00000224</hash>
									<value>1AEAAAAAAABEMyIRDAAAAAAABgAKAAQABgAAAGQAAAAAAF4ASAAQAAwARABAADwAOAAAAAAAAAAAADQAMwAsAAAAKAAkACAAAAAAAAAAAAAAAAAAHAAAAAAAGgAAAAAAAAAUAAAAAAAAAAAAAAAAAAAAAAAAAAgAAAAAABsABwBeAAAAAAAAAUAAAABQAAAAbAAAAAIAAAAAAAEAAQAAAAAAQEEAAMBAAABAQAAAyEIAAAABIAAAAAIAAAACAAAAAAAQRACASkQA////BP///wj///8i////AAAAAAEAAAAEAAAAEQAAAEhHUFNvZWlLYWt1cG9wdGFpAAAAAQAAAAwAAAAIAAwABAAIAAgAAAAIAAAANAAAADAAAADjgb7jgYLjgafjgoLku5bjga7kurrlkbzjgpPjgafjgovjgpPjgaDjgaPjgZ/jgok0ACAAAAAcABgAAAAAABcAEAAAAAAAAAAAAAAAAAAAAAAAAAAMAAAAAAAAAAgAAAAEADQAAAAcAAAAHAAAABwAAAAAAHBBAAAAAWgAAAAd/55DsP///7T///8BAAAAFAAAABAAGgAIAAcADAAAABAAFAAQAAAAAAAAARwAAAAAAIhBHAAAAAIAAAAAAAoACAAFAAYABwAKAAAAAP1v//z///8EAAQABAAAAAgACAAGAAcACAAAAAAA/W8=</value>
								</parameter>
								<parameter authoringApp="PremierePro">
									<parameterid>2</parameterid>
									<name>トランスフォーム</name>
									<IsTimeVarying>false</IsTimeVarying>
									<ParameterControlType>11</ParameterControlType>
									<LowerBound>false</LowerBound>
									<UpperBound>false</UpperBound>
									<value>-91445760000000000,false,0,0,0,0,0,0</value>
								</parameter>
							</effect>
						</filter>
					</clipitem>
					<clipitem frameBlend="FALSE" id="clipitem-telop-129">
						<file id="file-2"/>
						<name>グラフィック</name>
						<rate>
							<timebase>59</timebase>
							<ntsc>TRUE</ntsc>
						</rate>
						<rate>
							<timebase>59</timebase>
							<ntsc>TRUE</ntsc>
						</rate>
						<duration>120</duration>
						<start>22191</start>
						<end>22311</end>
						<in>0</in>
						<out>120</out>
						<filter>
							<effect>
								<name></name>
								<effectid>GraphicAndType</effectid>
								<effectcategory>graphic</effectcategory>
								<effecttype>filter</effecttype>
								<mediatype>video</mediatype>
								<pproBypass>false</pproBypass>
								<parameter authoringApp="PremierePro">
									<parameterid>1</parameterid>
									<name>ソーステキスト</name>
									<hash>9da144c7-0b89-e7ae-5cc9-9e6c00000224</hash>
									<value>1AEAAAAAAABEMyIRDAAAAAAABgAKAAQABgAAAGQAAAAAAF4ASAAQAAwARABAADwAOAAAAAAAAAAAADQAMwAsAAAAKAAkACAAAAAAAAAAAAAAAAAAHAAAAAAAGgAAAAAAAAAUAAAAAAAAAAAAAAAAAAAAAAAAAAgAAAAAABsABwBeAAAAAAAAAUAAAABQAAAAbAAAAAIAAAAAAAEAAQAAAAAAQEEAAMBAAABAQAAAyEIAAAABIAAAAAIAAAACAAAAAAAQRACASkQA////BP///wj///8i////AAAAAAEAAAAEAAAAEQAAAEhHUFNvZWlLYWt1cG9wdGFpAAAAAQAAAAwAAAAIAAwABAAIAAgAAAAIAAAANwAAADMAAADjg5/jg6vjgq/lvoXjgaPjgabjgovjgYvjgonooYzjgaPjgabjgY3jgabjgYTjgYTjgogANAAgAAAAHAAYAAAAAAAXABAAAAAAAAAAAAAAAAAAAAAAAAAADAAAAAAAAAAIAAAABAA0AAAAHAAAABwAAAAcAAAAAABwQQAAAAFoAAAAHf+eQ7D///+0////AQAAABQAAAAQABoACAAHAAwAAAAQABQAEAAAAAAAAAEcAAAAAACIQRwAAAACAAAAAAAKAAgABQAGAAcACgAAAAD9b//8////BAAEAAQAAAAIAAgABgAHAAgAAAAAAP1v</value>
								</parameter>
								<parameter authoringApp="PremierePro">
									<parameterid>2</parameterid>
									<name>トランスフォーム</name>
									<IsTimeVarying>false</IsTimeVarying>
									<ParameterControlType>11</ParameterControlType>
									<LowerBound>false</LowerBound>
									<UpperBound>false</UpperBound>
									<value>-91445760000000000,false,0,0,0,0,0,0</value>
								</parameter>
							</effect>
						</filter>
					</clipitem>
					<clipitem frameBlend="FALSE" id="clipitem-telop-130">
						<file id="file-2"/>
						<name>グラフィック</name>
						<rate>
							<timebase>59</timebase>
							<ntsc>TRUE</ntsc>
						</rate>
						<rate>
							<timebase>59</timebase>
							<ntsc>TRUE</ntsc>
						</rate>
						<duration>120</duration>
						<start>22311</start>
						<end>22431</end>
						<in>0</in>
						<out>120</out>
						<filter>
							<effect>
								<name></name>
								<effectid>GraphicAndType</effectid>
								<effectcategory>graphic</effectcategory>
								<effecttype>filter</effecttype>
								<mediatype>video</mediatype>
								<pproBypass>false</pproBypass>
								<parameter authoringApp="PremierePro">
									<parameterid>1</parameterid>
									<name>ソーステキスト</name>
									<hash>9da144c7-0b89-e7ae-5cc9-9e6c00000224</hash>
									<value>1AEAAAAAAABEMyIRDAAAAAAABgAKAAQABgAAAGQAAAAAAF4ASAAQAAwARABAADwAOAAAAAAAAAAAADQAMwAsAAAAKAAkACAAAAAAAAAAAAAAAAAAHAAAAAAAGgAAAAAAAAAUAAAAAAAAAAAAAAAAAAAAAAAAAAgAAAAAABsABwBeAAAAAAAAAUAAAABQAAAAbAAAAAIAAAAAAAEAAQAAAAAAQEEAAMBAAABAQAAAyEIAAAABIAAAAAIAAAACAAAAAAAQRACASkQA////BP///wj///8i////AAAAAAEAAAAEAAAAEQAAAEhHUFNvZWlLYWt1cG9wdGFpAAAAAQAAAAwAAAAIAAwABAAIAAgAAAAIAAAALwAAACsAAADjgYrlrKLmp5jjgIHlvoXjgabjgYzjgafjgY3jgovjgpPjgafjgZnjgYs/ADQAIAAAABwAGAAAAAAAFwAQAAAAAAAAAAAAAAAAAAAAAAAAAAwAAAAAAAAACAAAAAQANAAAABwAAAAcAAAAHAAAAAAAcEEAAAABaAAAAB3/nkOw////tP///wEAAAAUAAAAEAAaAAgABwAMAAAAEAAUABAAAAAAAAABHAAAAAAAiEEcAAAAAgAAAAAACgAIAAUABgAHAAoAAAAA/W///P///wQABAAEAAAACAAIAAYABwAIAAAAAAD9bw==</value>
								</parameter>
								<parameter authoringApp="PremierePro">
									<parameterid>2</parameterid>
									<name>トランスフォーム</name>
									<IsTimeVarying>false</IsTimeVarying>
									<ParameterControlType>11</ParameterControlType>
									<LowerBound>false</LowerBound>
									<UpperBound>false</UpperBound>
									<value>-91445760000000000,false,0,0,0,0,0,0</value>
								</parameter>
							</effect>
						</filter>
					</clipitem>
					<clipitem frameBlend="FALSE" id="clipitem-telop-131">
						<file id="file-2"/>
						<name>グラフィック</name>
						<rate>
							<timebase>59</timebase>
							<ntsc>TRUE</ntsc>
						</rate>
						<rate>
							<timebase>59</timebase>
							<ntsc>TRUE</ntsc>
						</rate>
						<duration>60</duration>
						<start>22431</start>
						<end>22491</end>
						<in>0</in>
						<out>60</out>
						<filter>
							<effect>
								<name></name>
								<effectid>GraphicAndType</effectid>
								<effectcategory>graphic</effectcategory>
								<effecttype>filter</effecttype>
								<mediatype>video</mediatype>
								<pproBypass>false</pproBypass>
								<parameter authoringApp="PremierePro">
									<parameterid>1</parameterid>
									<name>ソーステキスト</name>
									<hash>9da144c7-0b89-e7ae-5cc9-9e6c00000224</hash>
									<value>1AEAAAAAAABEMyIRDAAAAAAABgAKAAQABgAAAGQAAAAAAF4ASAAQAAwARABAADwAOAAAAAAAAAAAADQAMwAsAAAAKAAkACAAAAAAAAAAAAAAAAAAHAAAAAAAGgAAAAAAAAAUAAAAAAAAAAAAAAAAAAAAAAAAAAgAAAAAABsABwBeAAAAAAAAAUAAAABQAAAAbAAAAAIAAAAAAAEAAQAAAAAAQEEAAMBAAABAQAAAyEIAAAABIAAAAAIAAAACAAAAAAAQRACASkQA////BP///wj///8i////AAAAAAEAAAAEAAAAEQAAAEhHUFNvZWlLYWt1cG9wdGFpAAAAAQAAAAwAAAAIAAwABAAIAAgAAAAIAAAAFgAAABIAAADjgZ3jgYbjgarjgpPjgaDjgYsAADQAIAAAABwAGAAAAAAAFwAQAAAAAAAAAAAAAAAAAAAAAAAAAAwAAAAAAAAACAAAAAQANAAAABwAAAAcAAAAHAAAAAAAcEEAAAABaAAAAB3/nkOw////tP///wEAAAAUAAAAEAAaAAgABwAMAAAAEAAUABAAAAAAAAABHAAAAAAAiEEcAAAAAgAAAAAACgAIAAUABgAHAAoAAAAA/W///P///wQABAAEAAAACAAIAAYABwAIAAAAAAD9bw==</value>
								</parameter>
								<parameter authoringApp="PremierePro">
									<parameterid>2</parameterid>
									<name>トランスフォーム</name>
									<IsTimeVarying>false</IsTimeVarying>
									<ParameterControlType>11</ParameterControlType>
									<LowerBound>false</LowerBound>
									<UpperBound>false</UpperBound>
									<value>-91445760000000000,false,0,0,0,0,0,0</value>
								</parameter>
							</effect>
						</filter>
					</clipitem>
					<clipitem frameBlend="FALSE" id="clipitem-telop-132">
						<file id="file-2"/>
						<name>グラフィック</name>
						<rate>
							<timebase>59</timebase>
							<ntsc>TRUE</ntsc>
						</rate>
						<rate>
							<timebase>59</timebase>
							<ntsc>TRUE</ntsc>
						</rate>
						<duration>60</duration>
						<start>22491</start>
						<end>22551</end>
						<in>0</in>
						<out>60</out>
						<filter>
							<effect>
								<name></name>
								<effectid>GraphicAndType</effectid>
								<effectcategory>graphic</effectcategory>
								<effecttype>filter</effecttype>
								<mediatype>video</mediatype>
								<pproBypass>false</pproBypass>
								<parameter authoringApp="PremierePro">
									<parameterid>1</parameterid>
									<name>ソーステキスト</name>
									<hash>9da144c7-0b89-e7ae-5cc9-9e6c00000224</hash>
									<value>1AEAAAAAAABEMyIRDAAAAAAABgAKAAQABgAAAGQAAAAAAF4ASAAQAAwARABAADwAOAAAAAAAAAAAADQAMwAsAAAAKAAkACAAAAAAAAAAAAAAAAAAHAAAAAAAGgAAAAAAAAAUAAAAAAAAAAAAAAAAAAAAAAAAAAgAAAAAABsABwBeAAAAAAAAAUAAAABQAAAAbAAAAAIAAAAAAAEAAQAAAAAAQEEAAMBAAABAQAAAyEIAAAABIAAAAAIAAAACAAAAAAAQRACASkQA////BP///wj///8i////AAAAAAEAAAAEAAAAEQAAAEhHUFNvZWlLYWt1cG9wdGFpAAAAAQAAAAwAAAAIAAwABAAIAAgAAAAIAAAAEAAAAAwAAADlpb3jgY3lpb3jgY00ACAAAAAcABgAAAAAABcAEAAAAAAAAAAAAAAAAAAAAAAAAAAMAAAAAAAAAAgAAAAEADQAAAAcAAAAHAAAABwAAAAAAHBBAAAAAWgAAAAd/55DsP///7T///8BAAAAFAAAABAAGgAIAAcADAAAABAAFAAQAAAAAAAAARwAAAAAAIhBHAAAAAIAAAAAAAoACAAFAAYABwAKAAAAAP1v//z///8EAAQABAAAAAgACAAGAAcACAAAAAAA/W8=</value>
								</parameter>
								<parameter authoringApp="PremierePro">
									<parameterid>2</parameterid>
									<name>トランスフォーム</name>
									<IsTimeVarying>false</IsTimeVarying>
									<ParameterControlType>11</ParameterControlType>
									<LowerBound>false</LowerBound>
									<UpperBound>false</UpperBound>
									<value>-91445760000000000,false,0,0,0,0,0,0</value>
								</parameter>
							</effect>
						</filter>
					</clipitem>
					<clipitem frameBlend="FALSE" id="clipitem-telop-133">
						<file id="file-2"/>
						<name>グラフィック</name>
						<rate>
							<timebase>59</timebase>
							<ntsc>TRUE</ntsc>
						</rate>
						<rate>
							<timebase>59</timebase>
							<ntsc>TRUE</ntsc>
						</rate>
						<duration>60</duration>
						<start>22611</start>
						<end>22671</end>
						<in>0</in>
						<out>60</out>
						<filter>
							<effect>
								<name></name>
								<effectid>GraphicAndType</effectid>
								<effectcategory>graphic</effectcategory>
								<effecttype>filter</effecttype>
								<mediatype>video</mediatype>
								<pproBypass>false</pproBypass>
								<parameter authoringApp="PremierePro">
									<parameterid>1</parameterid>
									<name>ソーステキスト</name>
									<hash>9da144c7-0b89-e7ae-5cc9-9e6c00000224</hash>
									<value>1AEAAAAAAABEMyIRDAAAAAAABgAKAAQABgAAAGQAAAAAAF4ASAAQAAwARABAADwAOAAAAAAAAAAAADQAMwAsAAAAKAAkACAAAAAAAAAAAAAAAAAAHAAAAAAAGgAAAAAAAAAUAAAAAAAAAAAAAAAAAAAAAAAAAAgAAAAAABsABwBeAAAAAAAAAUAAAABQAAAAbAAAAAIAAAAAAAEAAQAAAAAAQEEAAMBAAABAQAAAyEIAAAABIAAAAAIAAAACAAAAAAAQRACASkQA////BP///wj///8i////AAAAAAEAAAAEAAAAEQAAAEhHUFNvZWlLYWt1cG9wdGFpAAAAAQAAAAwAAAAIAAwABAAIAAgAAAAIAAAAHQAAABkAAADjgZPjgozjgafmuoDotrPjgafjgZnjgYs/AAAANAAgAAAAHAAYAAAAAAAXABAAAAAAAAAAAAAAAAAAAAAAAAAADAAAAAAAAAAIAAAABAA0AAAAHAAAABwAAAAcAAAAAABwQQAAAAFoAAAAHf+eQ7D///+0////AQAAABQAAAAQABoACAAHAAwAAAAQABQAEAAAAAAAAAEcAAAAAACIQRwAAAACAAAAAAAKAAgABQAGAAcACgAAAAD9b//8////BAAEAAQAAAAIAAgABgAHAAgAAAAAAP1v</value>
								</parameter>
								<parameter authoringApp="PremierePro">
									<parameterid>2</parameterid>
									<name>トランスフォーム</name>
									<IsTimeVarying>false</IsTimeVarying>
									<ParameterControlType>11</ParameterControlType>
									<LowerBound>false</LowerBound>
									<UpperBound>false</UpperBound>
									<value>-91445760000000000,false,0,0,0,0,0,0</value>
								</parameter>
							</effect>
						</filter>
					</clipitem>
					<clipitem frameBlend="FALSE" id="clipitem-telop-134">
						<file id="file-2"/>
						<name>グラフィック</name>
						<rate>
							<timebase>59</timebase>
							<ntsc>TRUE</ntsc>
						</rate>
						<rate>
							<timebase>59</timebase>
							<ntsc>TRUE</ntsc>
						</rate>
						<duration>60</duration>
						<start>22671</start>
						<end>22731</end>
						<in>0</in>
						<out>60</out>
						<filter>
							<effect>
								<name></name>
								<effectid>GraphicAndType</effectid>
								<effectcategory>graphic</effectcategory>
								<effecttype>filter</effecttype>
								<mediatype>video</mediatype>
								<pproBypass>false</pproBypass>
								<parameter authoringApp="PremierePro">
									<parameterid>1</parameterid>
									<name>ソーステキスト</name>
									<hash>9da144c7-0b89-e7ae-5cc9-9e6c00000224</hash>
									<value>1AEAAAAAAABEMyIRDAAAAAAABgAKAAQABgAAAGQAAAAAAF4ASAAQAAwARABAADwAOAAAAAAAAAAAADQAMwAsAAAAKAAkACAAAAAAAAAAAAAAAAAAHAAAAAAAGgAAAAAAAAAUAAAAAAAAAAAAAAAAAAAAAAAAAAgAAAAAABsABwBeAAAAAAAAAUAAAABQAAAAbAAAAAIAAAAAAAEAAQAAAAAAQEEAAMBAAABAQAAAyEIAAAABIAAAAAIAAAACAAAAAAAQRACASkQA////BP///wj///8i////AAAAAAEAAAAEAAAAEQAAAEhHUFNvZWlLYWt1cG9wdGFpAAAAAQAAAAwAAAAIAAwABAAIAAgAAAAIAAAAGQAAABUAAADjgYLjgaPjgaHjgYbjgovjgZXjgYQAAAA0ACAAAAAcABgAAAAAABcAEAAAAAAAAAAAAAAAAAAAAAAAAAAMAAAAAAAAAAgAAAAEADQAAAAcAAAAHAAAABwAAAAAAHBBAAAAAWgAAAAd/55DsP///7T///8BAAAAFAAAABAAGgAIAAcADAAAABAAFAAQAAAAAAAAARwAAAAAAIhBHAAAAAIAAAAAAAoACAAFAAYABwAKAAAAAP1v//z///8EAAQABAAAAAgACAAGAAcACAAAAAAA/W8=</value>
								</parameter>
								<parameter authoringApp="PremierePro">
									<parameterid>2</parameterid>
									<name>トランスフォーム</name>
									<IsTimeVarying>false</IsTimeVarying>
									<ParameterControlType>11</ParameterControlType>
									<LowerBound>false</LowerBound>
									<UpperBound>false</UpperBound>
									<value>-91445760000000000,false,0,0,0,0,0,0</value>
								</parameter>
							</effect>
						</filter>
					</clipitem>
					<clipitem frameBlend="FALSE" id="clipitem-telop-135">
						<file id="file-2"/>
						<name>グラフィック</name>
						<rate>
							<timebase>59</timebase>
							<ntsc>TRUE</ntsc>
						</rate>
						<rate>
							<timebase>59</timebase>
							<ntsc>TRUE</ntsc>
						</rate>
						<duration>60</duration>
						<start>23331</start>
						<end>23391</end>
						<in>0</in>
						<out>60</out>
						<filter>
							<effect>
								<name></name>
								<effectid>GraphicAndType</effectid>
								<effectcategory>graphic</effectcategory>
								<effecttype>filter</effecttype>
								<mediatype>video</mediatype>
								<pproBypass>false</pproBypass>
								<parameter authoringApp="PremierePro">
									<parameterid>1</parameterid>
									<name>ソーステキスト</name>
									<hash>9da144c7-0b89-e7ae-5cc9-9e6c00000224</hash>
									<value>1AEAAAAAAABEMyIRDAAAAAAABgAKAAQABgAAAGQAAAAAAF4ASAAQAAwARABAADwAOAAAAAAAAAAAADQAMwAsAAAAKAAkACAAAAAAAAAAAAAAAAAAHAAAAAAAGgAAAAAAAAAUAAAAAAAAAAAAAAAAAAAAAAAAAAgAAAAAABsABwBeAAAAAAAAAUAAAABQAAAAbAAAAAIAAAAAAAEAAQAAAAAAQEEAAMBAAABAQAAAyEIAAAABIAAAAAIAAAACAAAAAAAQRACASkQA////BP///wj///8i////AAAAAAEAAAAEAAAAEQAAAEhHUFNvZWlLYWt1cG9wdGFpAAAAAQAAAAwAAAAIAAwABAAIAAgAAAAIAAAAEwAAAA8AAADlvoXjgaPjgabjgovjga0ANAAgAAAAHAAYAAAAAAAXABAAAAAAAAAAAAAAAAAAAAAAAAAADAAAAAAAAAAIAAAABAA0AAAAHAAAABwAAAAcAAAAAABwQQAAAAFoAAAAHf+eQ7D///+0////AQAAABQAAAAQABoACAAHAAwAAAAQABQAEAAAAAAAAAEcAAAAAACIQRwAAAACAAAAAAAKAAgABQAGAAcACgAAAAD9b//8////BAAEAAQAAAAIAAgABgAHAAgAAAAAAP1v</value>
								</parameter>
								<parameter authoringApp="PremierePro">
									<parameterid>2</parameterid>
									<name>トランスフォーム</name>
									<IsTimeVarying>false</IsTimeVarying>
									<ParameterControlType>11</ParameterControlType>
									<LowerBound>false</LowerBound>
									<UpperBound>false</UpperBound>
									<value>-91445760000000000,false,0,0,0,0,0,0</value>
								</parameter>
							</effect>
						</filter>
					</clipitem>
					<clipitem frameBlend="FALSE" id="clipitem-telop-136">
						<file id="file-2"/>
						<name>グラフィック</name>
						<rate>
							<timebase>59</timebase>
							<ntsc>TRUE</ntsc>
						</rate>
						<rate>
							<timebase>59</timebase>
							<ntsc>TRUE</ntsc>
						</rate>
						<duration>120</duration>
						<start>23391</start>
						<end>23511</end>
						<in>0</in>
						<out>120</out>
						<filter>
							<effect>
								<name></name>
								<effectid>GraphicAndType</effectid>
								<effectcategory>graphic</effectcategory>
								<effecttype>filter</effecttype>
								<mediatype>video</mediatype>
								<pproBypass>false</pproBypass>
								<parameter authoringApp="PremierePro">
									<parameterid>1</parameterid>
									<name>ソーステキスト</name>
									<hash>9da144c7-0b89-e7ae-5cc9-9e6c00000224</hash>
									<value>1AEAAAAAAABEMyIRDAAAAAAABgAKAAQABgAAAGQAAAAAAF4ASAAQAAwARABAADwAOAAAAAAAAAAAADQAMwAsAAAAKAAkACAAAAAAAAAAAAAAAAAAHAAAAAAAGgAAAAAAAAAUAAAAAAAAAAAAAAAAAAAAAAAAAAgAAAAAABsABwBeAAAAAAAAAUAAAABQAAAAbAAAAAIAAAAAAAEAAQAAAAAAQEEAAMBAAABAQAAAyEIAAAABIAAAAAIAAAACAAAAAAAQRACASkQA////BP///wj///8i////AAAAAAEAAAAEAAAAEQAAAEhHUFNvZWlLYWt1cG9wdGFpAAAAAQAAAAwAAAAIAAwABAAIAAgAAAAIAAAANAAAADAAAADjgYbjgpPjgIHlvoXjgaPjgabjgovjgIHms6PjgYTjgabjgonjgaPjgZfjgoPjgYQ0ACAAAAAcABgAAAAAABcAEAAAAAAAAAAAAAAAAAAAAAAAAAAMAAAAAAAAAAgAAAAEADQAAAAcAAAAHAAAABwAAAAAAHBBAAAAAWgAAAAd/55DsP///7T///8BAAAAFAAAABAAGgAIAAcADAAAABAAFAAQAAAAAAAAARwAAAAAAIhBHAAAAAIAAAAAAAoACAAFAAYABwAKAAAAAP1v//z///8EAAQABAAAAAgACAAGAAcACAAAAAAA/W8=</value>
								</parameter>
								<parameter authoringApp="PremierePro">
									<parameterid>2</parameterid>
									<name>トランスフォーム</name>
									<IsTimeVarying>false</IsTimeVarying>
									<ParameterControlType>11</ParameterControlType>
									<LowerBound>false</LowerBound>
									<UpperBound>false</UpperBound>
									<value>-91445760000000000,false,0,0,0,0,0,0</value>
								</parameter>
							</effect>
						</filter>
					</clipitem>
					<clipitem frameBlend="FALSE" id="clipitem-telop-137">
						<file id="file-2"/>
						<name>グラフィック</name>
						<rate>
							<timebase>59</timebase>
							<ntsc>TRUE</ntsc>
						</rate>
						<rate>
							<timebase>59</timebase>
							<ntsc>TRUE</ntsc>
						</rate>
						<duration>60</duration>
						<start>23631</start>
						<end>23691</end>
						<in>0</in>
						<out>60</out>
						<filter>
							<effect>
								<name></name>
								<effectid>GraphicAndType</effectid>
								<effectcategory>graphic</effectcategory>
								<effecttype>filter</effecttype>
								<mediatype>video</mediatype>
								<pproBypass>false</pproBypass>
								<parameter authoringApp="PremierePro">
									<parameterid>1</parameterid>
									<name>ソーステキスト</name>
									<hash>9da144c7-0b89-e7ae-5cc9-9e6c00000224</hash>
									<value>1AEAAAAAAABEMyIRDAAAAAAABgAKAAQABgAAAGQAAAAAAF4ASAAQAAwARABAADwAOAAAAAAAAAAAADQAMwAsAAAAKAAkACAAAAAAAAAAAAAAAAAAHAAAAAAAGgAAAAAAAAAUAAAAAAAAAAAAAAAAAAAAAAAAAAgAAAAAABsABwBeAAAAAAAAAUAAAABQAAAAbAAAAAIAAAAAAAEAAQAAAAAAQEEAAMBAAABAQAAAyEIAAAABIAAAAAIAAAACAAAAAAAQRACASkQA////BP///wj///8i////AAAAAAEAAAAEAAAAEQAAAEhHUFNvZWlLYWt1cG9wdGFpAAAAAQAAAAwAAAAIAAwABAAIAAgAAAAIAAAACgAAAAYAAADlvLfjgYcAADQAIAAAABwAGAAAAAAAFwAQAAAAAAAAAAAAAAAAAAAAAAAAAAwAAAAAAAAACAAAAAQANAAAABwAAAAcAAAAHAAAAAAAcEEAAAABaAAAAB3/nkOw////tP///wEAAAAUAAAAEAAaAAgABwAMAAAAEAAUABAAAAAAAAABHAAAAAAAiEEcAAAAAgAAAAAACgAIAAUABgAHAAoAAAAA/W///P///wQABAAEAAAACAAIAAYABwAIAAAAAAD9bw==</value>
								</parameter>
								<parameter authoringApp="PremierePro">
									<parameterid>2</parameterid>
									<name>トランスフォーム</name>
									<IsTimeVarying>false</IsTimeVarying>
									<ParameterControlType>11</ParameterControlType>
									<LowerBound>false</LowerBound>
									<UpperBound>false</UpperBound>
									<value>-91445760000000000,false,0,0,0,0,0,0</value>
								</parameter>
							</effect>
						</filter>
					</clipitem>
					<clipitem frameBlend="FALSE" id="clipitem-telop-138">
						<file id="file-2"/>
						<name>グラフィック</name>
						<rate>
							<timebase>59</timebase>
							<ntsc>TRUE</ntsc>
						</rate>
						<rate>
							<timebase>59</timebase>
							<ntsc>TRUE</ntsc>
						</rate>
						<duration>60</duration>
						<start>23751</start>
						<end>23811</end>
						<in>0</in>
						<out>60</out>
						<filter>
							<effect>
								<name></name>
								<effectid>GraphicAndType</effectid>
								<effectcategory>graphic</effectcategory>
								<effecttype>filter</effecttype>
								<mediatype>video</mediatype>
								<pproBypass>false</pproBypass>
								<parameter authoringApp="PremierePro">
									<parameterid>1</parameterid>
									<name>ソーステキスト</name>
									<hash>9da144c7-0b89-e7ae-5cc9-9e6c00000224</hash>
									<value>1AEAAAAAAABEMyIRDAAAAAAABgAKAAQABgAAAGQAAAAAAF4ASAAQAAwARABAADwAOAAAAAAAAAAAADQAMwAsAAAAKAAkACAAAAAAAAAAAAAAAAAAHAAAAAAAGgAAAAAAAAAUAAAAAAAAAAAAAAAAAAAAAAAAAAgAAAAAABsABwBeAAAAAAAAAUAAAABQAAAAbAAAAAIAAAAAAAEAAQAAAAAAQEEAAMBAAABAQAAAyEIAAAABIAAAAAIAAAACAAAAAAAQRACASkQA////BP///wj///8i////AAAAAAEAAAAEAAAAEQAAAEhHUFNvZWlLYWt1cG9wdGFpAAAAAQAAAAwAAAAIAAwABAAIAAgAAAAIAAAAEwAAAA8AAADjgZPjgYTjgaTlvLfjgYQANAAgAAAAHAAYAAAAAAAXABAAAAAAAAAAAAAAAAAAAAAAAAAADAAAAAAAAAAIAAAABAA0AAAAHAAAABwAAAAcAAAAAABwQQAAAAFoAAAAHf+eQ7D///+0////AQAAABQAAAAQABoACAAHAAwAAAAQABQAEAAAAAAAAAEcAAAAAACIQRwAAAACAAAAAAAKAAgABQAGAAcACgAAAAD9b//8////BAAEAAQAAAAIAAgABgAHAAgAAAAAAP1v</value>
								</parameter>
								<parameter authoringApp="PremierePro">
									<parameterid>2</parameterid>
									<name>トランスフォーム</name>
									<IsTimeVarying>false</IsTimeVarying>
									<ParameterControlType>11</ParameterControlType>
									<LowerBound>false</LowerBound>
									<UpperBound>false</UpperBound>
									<value>-91445760000000000,false,0,0,0,0,0,0</value>
								</parameter>
							</effect>
						</filter>
					</clipitem>
					<clipitem frameBlend="FALSE" id="clipitem-telop-139">
						<file id="file-2"/>
						<name>グラフィック</name>
						<rate>
							<timebase>59</timebase>
							<ntsc>TRUE</ntsc>
						</rate>
						<rate>
							<timebase>59</timebase>
							<ntsc>TRUE</ntsc>
						</rate>
						<duration>60</duration>
						<start>23811</start>
						<end>23871</end>
						<in>0</in>
						<out>60</out>
						<filter>
							<effect>
								<name></name>
								<effectid>GraphicAndType</effectid>
								<effectcategory>graphic</effectcategory>
								<effecttype>filter</effecttype>
								<mediatype>video</mediatype>
								<pproBypass>false</pproBypass>
								<parameter authoringApp="PremierePro">
									<parameterid>1</parameterid>
									<name>ソーステキスト</name>
									<hash>9da144c7-0b89-e7ae-5cc9-9e6c00000224</hash>
									<value>1AEAAAAAAABEMyIRDAAAAAAABgAKAAQABgAAAGQAAAAAAF4ASAAQAAwARABAADwAOAAAAAAAAAAAADQAMwAsAAAAKAAkACAAAAAAAAAAAAAAAAAAHAAAAAAAGgAAAAAAAAAUAAAAAAAAAAAAAAAAAAAAAAAAAAgAAAAAABsABwBeAAAAAAAAAUAAAABQAAAAbAAAAAIAAAAAAAEAAQAAAAAAQEEAAMBAAABAQAAAyEIAAAABIAAAAAIAAAACAAAAAAAQRACASkQA////BP///wj///8i////AAAAAAEAAAAEAAAAEQAAAEhHUFNvZWlLYWt1cG9wdGFpAAAAAQAAAAwAAAAIAAwABAAIAAgAAAAIAAAAEAAAAAwAAADli53jgabjgarjgYQ0ACAAAAAcABgAAAAAABcAEAAAAAAAAAAAAAAAAAAAAAAAAAAMAAAAAAAAAAgAAAAEADQAAAAcAAAAHAAAABwAAAAAAHBBAAAAAWgAAAAd/55DsP///7T///8BAAAAFAAAABAAGgAIAAcADAAAABAAFAAQAAAAAAAAARwAAAAAAIhBHAAAAAIAAAAAAAoACAAFAAYABwAKAAAAAP1v//z///8EAAQABAAAAAgACAAGAAcACAAAAAAA/W8=</value>
								</parameter>
								<parameter authoringApp="PremierePro">
									<parameterid>2</parameterid>
									<name>トランスフォーム</name>
									<IsTimeVarying>false</IsTimeVarying>
									<ParameterControlType>11</ParameterControlType>
									<LowerBound>false</LowerBound>
									<UpperBound>false</UpperBound>
									<value>-91445760000000000,false,0,0,0,0,0,0</value>
								</parameter>
							</effect>
						</filter>
					</clipitem>
					<clipitem frameBlend="FALSE" id="clipitem-telop-140">
						<file id="file-2"/>
						<name>グラフィック</name>
						<rate>
							<timebase>59</timebase>
							<ntsc>TRUE</ntsc>
						</rate>
						<rate>
							<timebase>59</timebase>
							<ntsc>TRUE</ntsc>
						</rate>
						<duration>60</duration>
						<start>23991</start>
						<end>24051</end>
						<in>0</in>
						<out>60</out>
						<filter>
							<effect>
								<name></name>
								<effectid>GraphicAndType</effectid>
								<effectcategory>graphic</effectcategory>
								<effecttype>filter</effecttype>
								<mediatype>video</mediatype>
								<pproBypass>false</pproBypass>
								<parameter authoringApp="PremierePro">
									<parameterid>1</parameterid>
									<name>ソーステキスト</name>
									<hash>9da144c7-0b89-e7ae-5cc9-9e6c00000224</hash>
									<value>1AEAAAAAAABEMyIRDAAAAAAABgAKAAQABgAAAGQAAAAAAF4ASAAQAAwARABAADwAOAAAAAAAAAAAADQAMwAsAAAAKAAkACAAAAAAAAAAAAAAAAAAHAAAAAAAGgAAAAAAAAAUAAAAAAAAAAAAAAAAAAAAAAAAAAgAAAAAABsABwBeAAAAAAAAAUAAAABQAAAAbAAAAAIAAAAAAAEAAQAAAAAAQEEAAMBAAABAQAAAyEIAAAABIAAAAAIAAAACAAAAAAAQRACASkQA////BP///wj///8i////AAAAAAEAAAAEAAAAEQAAAEhHUFNvZWlLYWt1cG9wdGFpAAAAAQAAAAwAAAAIAAwABAAIAAgAAAAIAAAADQAAAAkAAADjgYTjgYTjgogAAAA0ACAAAAAcABgAAAAAABcAEAAAAAAAAAAAAAAAAAAAAAAAAAAMAAAAAAAAAAgAAAAEADQAAAAcAAAAHAAAABwAAAAAAHBBAAAAAWgAAAAd/55DsP///7T///8BAAAAFAAAABAAGgAIAAcADAAAABAAFAAQAAAAAAAAARwAAAAAAIhBHAAAAAIAAAAAAAoACAAFAAYABwAKAAAAAP1v//z///8EAAQABAAAAAgACAAGAAcACAAAAAAA/W8=</value>
								</parameter>
								<parameter authoringApp="PremierePro">
									<parameterid>2</parameterid>
									<name>トランスフォーム</name>
									<IsTimeVarying>false</IsTimeVarying>
									<ParameterControlType>11</ParameterControlType>
									<LowerBound>false</LowerBound>
									<UpperBound>false</UpperBound>
									<value>-91445760000000000,false,0,0,0,0,0,0</value>
								</parameter>
							</effect>
						</filter>
					</clipitem>
					<clipitem frameBlend="FALSE" id="clipitem-telop-141">
						<file id="file-2"/>
						<name>グラフィック</name>
						<rate>
							<timebase>59</timebase>
							<ntsc>TRUE</ntsc>
						</rate>
						<rate>
							<timebase>59</timebase>
							<ntsc>TRUE</ntsc>
						</rate>
						<duration>120</duration>
						<start>24051</start>
						<end>24171</end>
						<in>0</in>
						<out>120</out>
						<filter>
							<effect>
								<name></name>
								<effectid>GraphicAndType</effectid>
								<effectcategory>graphic</effectcategory>
								<effecttype>filter</effecttype>
								<mediatype>video</mediatype>
								<pproBypass>false</pproBypass>
								<parameter authoringApp="PremierePro">
									<parameterid>1</parameterid>
									<name>ソーステキスト</name>
									<hash>9da144c7-0b89-e7ae-5cc9-9e6c00000224</hash>
									<value>1AEAAAAAAABEMyIRDAAAAAAABgAKAAQABgAAAGQAAAAAAF4ASAAQAAwARABAADwAOAAAAAAAAAAAADQAMwAsAAAAKAAkACAAAAAAAAAAAAAAAAAAHAAAAAAAGgAAAAAAAAAUAAAAAAAAAAAAAAAAAAAAAAAAAAgAAAAAABsABwBeAAAAAAAAAUAAAABQAAAAbAAAAAIAAAAAAAEAAQAAAAAAQEEAAMBAAABAQAAAyEIAAAABIAAAAAIAAAACAAAAAAAQRACASkQA////BP///wj///8i////AAAAAAEAAAAEAAAAEQAAAEhHUFNvZWlLYWt1cG9wdGFpAAAAAQAAAAwAAAAIAAwABAAIAAgAAAAIAAAAKwAAACcAAADjgYTjgoTjgIHjgarjgpPjgYvjgoLjgYbluLDjgo3jgYbjgYvjgaoANAAgAAAAHAAYAAAAAAAXABAAAAAAAAAAAAAAAAAAAAAAAAAADAAAAAAAAAAIAAAABAA0AAAAHAAAABwAAAAcAAAAAABwQQAAAAFoAAAAHf+eQ7D///+0////AQAAABQAAAAQABoACAAHAAwAAAAQABQAEAAAAAAAAAEcAAAAAACIQRwAAAACAAAAAAAKAAgABQAGAAcACgAAAAD9b//8////BAAEAAQAAAAIAAgABgAHAAgAAAAAAP1v</value>
								</parameter>
								<parameter authoringApp="PremierePro">
									<parameterid>2</parameterid>
									<name>トランスフォーム</name>
									<IsTimeVarying>false</IsTimeVarying>
									<ParameterControlType>11</ParameterControlType>
									<LowerBound>false</LowerBound>
									<UpperBound>false</UpperBound>
									<value>-91445760000000000,false,0,0,0,0,0,0</value>
								</parameter>
							</effect>
						</filter>
					</clipitem>
					<clipitem frameBlend="FALSE" id="clipitem-telop-142">
						<file id="file-2"/>
						<name>グラフィック</name>
						<rate>
							<timebase>59</timebase>
							<ntsc>TRUE</ntsc>
						</rate>
						<rate>
							<timebase>59</timebase>
							<ntsc>TRUE</ntsc>
						</rate>
						<duration>60</duration>
						<start>24171</start>
						<end>24231</end>
						<in>0</in>
						<out>60</out>
						<filter>
							<effect>
								<name></name>
								<effectid>GraphicAndType</effectid>
								<effectcategory>graphic</effectcategory>
								<effecttype>filter</effecttype>
								<mediatype>video</mediatype>
								<pproBypass>false</pproBypass>
								<parameter authoringApp="PremierePro">
									<parameterid>1</parameterid>
									<name>ソーステキスト</name>
									<hash>9da144c7-0b89-e7ae-5cc9-9e6c00000224</hash>
									<value>1AEAAAAAAABEMyIRDAAAAAAABgAKAAQABgAAAGQAAAAAAF4ASAAQAAwARABAADwAOAAAAAAAAAAAADQAMwAsAAAAKAAkACAAAAAAAAAAAAAAAAAAHAAAAAAAGgAAAAAAAAAUAAAAAAAAAAAAAAAAAAAAAAAAAAgAAAAAABsABwBeAAAAAAAAAUAAAABQAAAAbAAAAAIAAAAAAAEAAQAAAAAAQEEAAMBAAABAQAAAyEIAAAABIAAAAAIAAAACAAAAAAAQRACASkQA////BP///wj///8i////AAAAAAEAAAAEAAAAEQAAAEhHUFNvZWlLYWt1cG9wdGFpAAAAAQAAAAwAAAAIAAwABAAIAAgAAAAIAAAAFAAAABAAAADjgZPjgaPjgaHjga4z5ZCNNAAgAAAAHAAYAAAAAAAXABAAAAAAAAAAAAAAAAAAAAAAAAAADAAAAAAAAAAIAAAABAA0AAAAHAAAABwAAAAcAAAAAABwQQAAAAFoAAAAHf+eQ7D///+0////AQAAABQAAAAQABoACAAHAAwAAAAQABQAEAAAAAAAAAEcAAAAAACIQRwAAAACAAAAAAAKAAgABQAGAAcACgAAAAD9b//8////BAAEAAQAAAAIAAgABgAHAAgAAAAAAP1v</value>
								</parameter>
								<parameter authoringApp="PremierePro">
									<parameterid>2</parameterid>
									<name>トランスフォーム</name>
									<IsTimeVarying>false</IsTimeVarying>
									<ParameterControlType>11</ParameterControlType>
									<LowerBound>false</LowerBound>
									<UpperBound>false</UpperBound>
									<value>-91445760000000000,false,0,0,0,0,0,0</value>
								</parameter>
							</effect>
						</filter>
					</clipitem>
					<clipitem frameBlend="FALSE" id="clipitem-telop-143">
						<file id="file-2"/>
						<name>グラフィック</name>
						<rate>
							<timebase>59</timebase>
							<ntsc>TRUE</ntsc>
						</rate>
						<rate>
							<timebase>59</timebase>
							<ntsc>TRUE</ntsc>
						</rate>
						<duration>60</duration>
						<start>24231</start>
						<end>24291</end>
						<in>0</in>
						<out>60</out>
						<filter>
							<effect>
								<name></name>
								<effectid>GraphicAndType</effectid>
								<effectcategory>graphic</effectcategory>
								<effecttype>filter</effecttype>
								<mediatype>video</mediatype>
								<pproBypass>false</pproBypass>
								<parameter authoringApp="PremierePro">
									<parameterid>1</parameterid>
									<name>ソーステキスト</name>
									<hash>9da144c7-0b89-e7ae-5cc9-9e6c00000224</hash>
									<value>1AEAAAAAAABEMyIRDAAAAAAABgAKAAQABgAAAGQAAAAAAF4ASAAQAAwARABAADwAOAAAAAAAAAAAADQAMwAsAAAAKAAkACAAAAAAAAAAAAAAAAAAHAAAAAAAGgAAAAAAAAAUAAAAAAAAAAAAAAAAAAAAAAAAAAgAAAAAABsABwBeAAAAAAAAAUAAAABQAAAAbAAAAAIAAAAAAAEAAQAAAAAAQEEAAMBAAABAQAAAyEIAAAABIAAAAAIAAAACAAAAAAAQRACASkQA////BP///wj///8i////AAAAAAEAAAAEAAAAEQAAAEhHUFNvZWlLYWt1cG9wdGFpAAAAAQAAAAwAAAAIAAwABAAIAAgAAAAIAAAAHAAAABgAAADmib/nn6XjgYTjgZ/jgZfjgb7jgZfjgZ80ACAAAAAcABgAAAAAABcAEAAAAAAAAAAAAAAAAAAAAAAAAAAMAAAAAAAAAAgAAAAEADQAAAAcAAAAHAAAABwAAAAAAHBBAAAAAWgAAAAd/55DsP///7T///8BAAAAFAAAABAAGgAIAAcADAAAABAAFAAQAAAAAAAAARwAAAAAAIhBHAAAAAIAAAAAAAoACAAFAAYABwAKAAAAAP1v//z///8EAAQABAAAAAgACAAGAAcACAAAAAAA/W8=</value>
								</parameter>
								<parameter authoringApp="PremierePro">
									<parameterid>2</parameterid>
									<name>トランスフォーム</name>
									<IsTimeVarying>false</IsTimeVarying>
									<ParameterControlType>11</ParameterControlType>
									<LowerBound>false</LowerBound>
									<UpperBound>false</UpperBound>
									<value>-91445760000000000,false,0,0,0,0,0,0</value>
								</parameter>
							</effect>
						</filter>
					</clipitem>
					<clipitem frameBlend="FALSE" id="clipitem-telop-144">
						<file id="file-2"/>
						<name>グラフィック</name>
						<rate>
							<timebase>59</timebase>
							<ntsc>TRUE</ntsc>
						</rate>
						<rate>
							<timebase>59</timebase>
							<ntsc>TRUE</ntsc>
						</rate>
						<duration>120</duration>
						<start>24351</start>
						<end>24471</end>
						<in>0</in>
						<out>120</out>
						<filter>
							<effect>
								<name></name>
								<effectid>GraphicAndType</effectid>
								<effectcategory>graphic</effectcategory>
								<effecttype>filter</effecttype>
								<mediatype>video</mediatype>
								<pproBypass>false</pproBypass>
								<parameter authoringApp="PremierePro">
									<parameterid>1</parameterid>
									<name>ソーステキスト</name>
									<hash>9da144c7-0b89-e7ae-5cc9-9e6c00000224</hash>
									<value>1AEAAAAAAABEMyIRDAAAAAAABgAKAAQABgAAAGQAAAAAAF4ASAAQAAwARABAADwAOAAAAAAAAAAAADQAMwAsAAAAKAAkACAAAAAAAAAAAAAAAAAAHAAAAAAAGgAAAAAAAAAUAAAAAAAAAAAAAAAAAAAAAAAAAAgAAAAAABsABwBeAAAAAAAAAUAAAABQAAAAbAAAAAIAAAAAAAEAAQAAAAAAQEEAAMBAAABAQAAAyEIAAAABIAAAAAIAAAACAAAAAAAQRACASkQA////BP///wj///8i////AAAAAAEAAAAEAAAAEQAAAEhHUFNvZWlLYWt1cG9wdGFpAAAAAQAAAAwAAAAIAAwABAAIAAgAAAAIAAAAIgAAAB4AAADjgoLjgYbmnIDlvoznlJ/nlKPjgZfjgb7jgZvjgpMAADQAIAAAABwAGAAAAAAAFwAQAAAAAAAAAAAAAAAAAAAAAAAAAAwAAAAAAAAACAAAAAQANAAAABwAAAAcAAAAHAAAAAAAcEEAAAABaAAAAB3/nkOw////tP///wEAAAAUAAAAEAAaAAgABwAMAAAAEAAUABAAAAAAAAABHAAAAAAAiEEcAAAAAgAAAAAACgAIAAUABgAHAAoAAAAA/W///P///wQABAAEAAAACAAIAAYABwAIAAAAAAD9bw==</value>
								</parameter>
								<parameter authoringApp="PremierePro">
									<parameterid>2</parameterid>
									<name>トランスフォーム</name>
									<IsTimeVarying>false</IsTimeVarying>
									<ParameterControlType>11</ParameterControlType>
									<LowerBound>false</LowerBound>
									<UpperBound>false</UpperBound>
									<value>-91445760000000000,false,0,0,0,0,0,0</value>
								</parameter>
							</effect>
						</filter>
					</clipitem>
				</track>
			</video>
			<audio>
				<track>
					<clipitem frameBlend="FALSE" id="audioclip-1">
						<file id="file-1"/>
						<name>bandicam 2025-06-22 02-16-39-762 - Audio</name>
						<rate>
							<timebase>59</timebase>
							<ntsc>TRUE</ntsc>
						</rate>
						<rate>
							<timebase>59</timebase>
							<ntsc>TRUE</ntsc>
						</rate>
						<duration>24543</duration>
						<start>0</start>
						<end>24543</end>
						<in>0</in>
						<out>24543</out>
					</clipitem>
				</track>
			</audio>
		</media>
	</sequence>
</xmeml>