<?xml version="1.0" encoding="UTF-8"?>
<!DOCTYPE xmeml>
<xmeml version="4">
	<sequence id="sequence-1">
		<name>bandicam 2025-06-22 02-16-39-762</name>
		<duration>24549</duration>
		<rate>
			<timebase>59</timebase>
			<ntsc>TRUE</ntsc>
		</rate>
		<media>
			<video>
				<format/>
				<track>
					<clipitem frameBlend="FALSE" id="clipitem-1">
						<file id="file-1">
							<pathurl>file://localhost/D:/%E5%88%87%E3%82%8A%E6%8A%9C%E3%81%8D/2025-6/2025-6-22/bandicam%202025-06-22%2002-16-39-762.mp4</pathurl>
							<name>bandicam 2025-06-22 02-16-39-762.mp4</name>
							<rate>
								<timebase>59</timebase>
								<ntsc>TRUE</ntsc>
							</rate>
							<duration>24549</duration>
							<timecode>
								<rate>
									<timebase>59</timebase>
									<ntsc>TRUE</ntsc>
								</rate>
								<string>00:00:00:00</string>
								<frame>0</frame>
								<displayformat>NDF</displayformat>
							</timecode>
							<media>
								<video/>
								<audio/>
							</media>
						</file>
						<name>bandicam 2025-06-22 02-16-39-762</name>
						<rate>
							<timebase>59</timebase>
							<ntsc>TRUE</ntsc>
						</rate>
						<rate>
							<timebase>59</timebase>
							<ntsc>TRUE</ntsc>
						</rate>
						<duration>24543</duration>
						<start>0</start>
						<end>24543</end>
						<in>0</in>
						<out>24543</out>
					</clipitem>
				</track>
				<track>
					<clipitem frameBlend="FALSE" id="clipitem-telop-1">
						<file id="file-2">
							<name>グラフィック</name>
							<mediaSource>GraphicAndType</mediaSource>
							<rate>
								<timebase>59</timebase>
								<ntsc>TRUE</ntsc>
							</rate>
							<timecode>
								<rate>
									<timebase>59</timebase>
									<ntsc>TRUE</ntsc>
								</rate>
								<string>00:00:00:00</string>
								<frame>0</frame>
								<displayformat>NDF</displayformat>
							</timecode>
							<media>
								<video>
									<samplecharacteristics>
										<rate>
											<timebase>58</timebase>
											<ntsc>TRUE</ntsc>
										</rate>
										<width>1080</width>
										<height>1920</height>
										<anamorphic>FALSE</anamorphic>
										<pixelaspectratio>square</pixelaspectratio>
										<fielddominance>none</fielddominance>
									</samplecharacteristics>
								</video>
							</media>
						</file>
						<name>心配でございますミルクお嬢様でも全然大丈夫だよ 見る子女様睡眠というのはとても大事なものです</name>
						<rate>
							<timebase>59</timebase>
							<ntsc>TRUE</ntsc>
						</rate>
						<rate>
							<timebase>59</timebase>
							<ntsc>TRUE</ntsc>
						</rate>
						<duration>431</duration>
						<start>0</start>
						<end>431</end>
						<in>0</in>
						<out>431</out>
					</clipitem>
					<clipitem frameBlend="FALSE" id="clipitem-telop-49">
						<file id="file-2"/>
						<name>1日12時間寝てください 見る子も寝たいんだけど</name>
						<rate>
							<timebase>59</timebase>
							<ntsc>TRUE</ntsc>
						</rate>
						<rate>
							<timebase>59</timebase>
							<ntsc>TRUE</ntsc>
						</rate>
						<duration>288</duration>
						<start>431</start>
						<end>719</end>
						<in>0</in>
						<out>288</out>
					</clipitem>
					<clipitem frameBlend="FALSE" id="clipitem-telop-80">
						<file id="file-2"/>
						<name>なんか全然寝れなくて 何かお困りごとでもん</name>
						<rate>
							<timebase>59</timebase>
							<ntsc>TRUE</ntsc>
						</rate>
						<rate>
							<timebase>59</timebase>
							<ntsc>TRUE</ntsc>
						</rate>
						<duration>282</duration>
						<start>719</start>
						<end>1001</end>
						<in>0</in>
						<out>282</out>
					</clipitem>
					<clipitem frameBlend="FALSE" id="clipitem-telop-115">
						<file id="file-2"/>
						<name>なんかちょっと職場でなんか全然うまくいかなくて わかりますな気持ち</name>
						<rate>
							<timebase>59</timebase>
							<ntsc>TRUE</ntsc>
						</rate>
						<rate>
							<timebase>59</timebase>
							<ntsc>TRUE</ntsc>
						</rate>
						<duration>486</duration>
						<start>1001</start>
						<end>1487</end>
						<in>0</in>
						<out>486</out>
					</clipitem>
					<clipitem frameBlend="FALSE" id="clipitem-telop-163">
						<file id="file-2"/>
						<name>人もたくさん人がいる何をしたらいいね ちょっとちょっとねここの席ちょっと後ろがうるさすぎて全然波の声が聞こえないんだけど</name>
						<rate>
							<timebase>59</timebase>
							<ntsc>TRUE</ntsc>
						</rate>
						<rate>
							<timebase>59</timebase>
							<ntsc>TRUE</ntsc>
						</rate>
						<duration>660</duration>
						<start>1487</start>
						<end>2147</end>
						<in>0</in>
						<out>660</out>
					</clipitem>
					<clipitem frameBlend="FALSE" id="clipitem-telop-248">
						<file id="file-2"/>
						<name>お嬢様ん ちょっと違う席でいいかな</name>
						<rate>
							<timebase>59</timebase>
							<ntsc>TRUE</ntsc>
						</rate>
						<rate>
							<timebase>59</timebase>
							<ntsc>TRUE</ntsc>
						</rate>
						<duration>354</duration>
						<start>2147</start>
						<end>2501</end>
						<in>0</in>
						<out>354</out>
					</clipitem>
					<clipitem frameBlend="FALSE" id="clipitem-telop-288">
						<file id="file-2"/>
						<name>うひよのチェキのお医者 大丈夫大丈夫大丈夫大丈夫</name>
						<rate>
							<timebase>59</timebase>
							<ntsc>TRUE</ntsc>
						</rate>
						<rate>
							<timebase>59</timebase>
							<ntsc>TRUE</ntsc>
						</rate>
						<duration>252</duration>
						<start>2501</start>
						<end>2753</end>
						<in>0</in>
						<out>252</out>
					</clipitem>
					<clipitem frameBlend="FALSE" id="clipitem-telop-316">
						<file id="file-2"/>
						<name>！</name>
						<rate>
							<timebase>59</timebase>
							<ntsc>TRUE</ntsc>
						</rate>
						<rate>
							<timebase>59</timebase>
							<ntsc>TRUE</ntsc>
						</rate>
						<duration>60</duration>
						<start>2753</start>
						<end>2813</end>
						<in>0</in>
						<out>60</out>
					</clipitem>
					<clipitem frameBlend="FALSE" id="clipitem-telop-324">
						<file id="file-2"/>
						<name>！</name>
						<rate>
							<timebase>59</timebase>
							<ntsc>TRUE</ntsc>
						</rate>
						<rate>
							<timebase>59</timebase>
							<ntsc>TRUE</ntsc>
						</rate>
						<duration>60</duration>
						<start>2813</start>
						<end>2873</end>
						<in>0</in>
						<out>60</out>
					</clipitem>
					<clipitem frameBlend="FALSE" id="clipitem-telop-330">
						<file id="file-2"/>
						<name>！</name>
						<rate>
							<timebase>59</timebase>
							<ntsc>TRUE</ntsc>
						</rate>
						<rate>
							<timebase>59</timebase>
							<ntsc>TRUE</ntsc>
						</rate>
						<duration>60</duration>
						<start>2891</start>
						<end>2951</end>
						<in>0</in>
						<out>60</out>
					</clipitem>
					<clipitem frameBlend="FALSE" id="clipitem-telop-335">
						<file id="file-2"/>
						<name>！</name>
						<rate>
							<timebase>59</timebase>
							<ntsc>TRUE</ntsc>
						</rate>
						<rate>
							<timebase>59</timebase>
							<ntsc>TRUE</ntsc>
						</rate>
						<duration>60</duration>
						<start>2951</start>
						<end>3011</end>
						<in>0</in>
						<out>60</out>
					</clipitem>
					<clipitem frameBlend="FALSE" id="clipitem-telop-345">
						<file id="file-2"/>
						<name>なんか室次悪口言ってませんあそこで 聞かないでください</name>
						<rate>
							<timebase>59</timebase>
							<ntsc>TRUE</ntsc>
						</rate>
						<rate>
							<timebase>59</timebase>
							<ntsc>TRUE</ntsc>
						</rate>
						<duration>240</duration>
						<start>3011</start>
						<end>3251</end>
						<in>0</in>
						<out>240</out>
					</clipitem>
					<clipitem frameBlend="FALSE" id="clipitem-telop-371">
						<file id="file-2"/>
						<name>うひよの人があるわけでかの女のことではございません</name>
						<rate>
							<timebase>59</timebase>
							<ntsc>TRUE</ntsc>
						</rate>
						<rate>
							<timebase>59</timebase>
							<ntsc>TRUE</ntsc>
						</rate>
						<duration>156</duration>
						<start>3251</start>
						<end>3407</end>
						<in>0</in>
						<out>156</out>
					</clipitem>
					<clipitem frameBlend="FALSE" id="clipitem-telop-400">
						<file id="file-2"/>
						<name>なんか悪口言ってますよ ミルクお嬢様</name>
						<rate>
							<timebase>59</timebase>
							<ntsc>TRUE</ntsc>
						</rate>
						<rate>
							<timebase>59</timebase>
							<ntsc>TRUE</ntsc>
						</rate>
						<duration>168</duration>
						<start>3407</start>
						<end>3575</end>
						<in>0</in>
						<out>168</out>
					</clipitem>
					<clipitem frameBlend="FALSE" id="clipitem-telop-421">
						<file id="file-2"/>
						<name>どうされましたかミルクお嬢様 なんかえちょっとえこえここのオーナーさんですよね</name>
						<rate>
							<timebase>59</timebase>
							<ntsc>TRUE</ntsc>
						</rate>
						<rate>
							<timebase>59</timebase>
							<ntsc>TRUE</ntsc>
						</rate>
						<duration>300</duration>
						<start>3575</start>
						<end>3875</end>
						<in>0</in>
						<out>300</out>
					</clipitem>
					<clipitem frameBlend="FALSE" id="clipitem-telop-454">
						<file id="file-2"/>
						<name>あはいこちらのオーナーでてなんかそこにいるなんか弁とか有出事がめっちゃ失礼で</name>
						<rate>
							<timebase>59</timebase>
							<ntsc>TRUE</ntsc>
						</rate>
						<rate>
							<timebase>59</timebase>
							<ntsc>TRUE</ntsc>
						</rate>
						<duration>378</duration>
						<start>3875</start>
						<end>4253</end>
						<in>0</in>
						<out>378</out>
					</clipitem>
					<clipitem frameBlend="FALSE" id="clipitem-telop-494">
						<file id="file-2"/>
						<name>！</name>
						<rate>
							<timebase>59</timebase>
							<ntsc>TRUE</ntsc>
						</rate>
						<rate>
							<timebase>59</timebase>
							<ntsc>TRUE</ntsc>
						</rate>
						<duration>60</duration>
						<start>4259</start>
						<end>4319</end>
						<in>0</in>
						<out>60</out>
					</clipitem>
					<clipitem frameBlend="FALSE" id="clipitem-telop-502">
						<file id="file-2"/>
						<name>！</name>
						<rate>
							<timebase>59</timebase>
							<ntsc>TRUE</ntsc>
						</rate>
						<rate>
							<timebase>59</timebase>
							<ntsc>TRUE</ntsc>
						</rate>
						<duration>60</duration>
						<start>4319</start>
						<end>4379</end>
						<in>0</in>
						<out>60</out>
					</clipitem>
					<clipitem frameBlend="FALSE" id="clipitem-telop-511">
						<file id="file-2"/>
						<name>！</name>
						<rate>
							<timebase>59</timebase>
							<ntsc>TRUE</ntsc>
						</rate>
						<rate>
							<timebase>59</timebase>
							<ntsc>TRUE</ntsc>
						</rate>
						<duration>66</duration>
						<start>4379</start>
						<end>4445</end>
						<in>0</in>
						<out>66</out>
					</clipitem>
					<clipitem frameBlend="FALSE" id="clipitem-telop-520">
						<file id="file-2"/>
						<name>！</name>
						<rate>
							<timebase>59</timebase>
							<ntsc>TRUE</ntsc>
						</rate>
						<rate>
							<timebase>59</timebase>
							<ntsc>TRUE</ntsc>
						</rate>
						<duration>60</duration>
						<start>4445</start>
						<end>4505</end>
						<in>0</in>
						<out>60</out>
					</clipitem>
					<clipitem frameBlend="FALSE" id="clipitem-telop-526">
						<file id="file-2"/>
						<name>！</name>
						<rate>
							<timebase>59</timebase>
							<ntsc>TRUE</ntsc>
						</rate>
						<rate>
							<timebase>59</timebase>
							<ntsc>TRUE</ntsc>
						</rate>
						<duration>60</duration>
						<start>4505</start>
						<end>4565</end>
						<in>0</in>
						<out>60</out>
					</clipitem>
					<clipitem frameBlend="FALSE" id="clipitem-telop-535">
						<file id="file-2"/>
						<name>w</name>
						<rate>
							<timebase>59</timebase>
							<ntsc>TRUE</ntsc>
						</rate>
						<rate>
							<timebase>59</timebase>
							<ntsc>TRUE</ntsc>
						</rate>
						<duration>30</duration>
						<start>4565</start>
						<end>4595</end>
						<in>0</in>
						<out>30</out>
					</clipitem>
					<clipitem frameBlend="FALSE" id="clipitem-telop-541">
						<file id="file-2"/>
						<name>w</name>
						<rate>
							<timebase>59</timebase>
							<ntsc>TRUE</ntsc>
						</rate>
						<rate>
							<timebase>59</timebase>
							<ntsc>TRUE</ntsc>
						</rate>
						<duration>24</duration>
						<start>4595</start>
						<end>4619</end>
						<in>0</in>
						<out>24</out>
					</clipitem>
					<clipitem frameBlend="FALSE" id="clipitem-telop-547">
						<file id="file-2"/>
						<name>w</name>
						<rate>
							<timebase>59</timebase>
							<ntsc>TRUE</ntsc>
						</rate>
						<rate>
							<timebase>59</timebase>
							<ntsc>TRUE</ntsc>
						</rate>
						<duration>30</duration>
						<start>4619</start>
						<end>4649</end>
						<in>0</in>
						<out>30</out>
					</clipitem>
					<clipitem frameBlend="FALSE" id="clipitem-telop-551">
						<file id="file-2"/>
						<name>w</name>
						<rate>
							<timebase>59</timebase>
							<ntsc>TRUE</ntsc>
						</rate>
						<rate>
							<timebase>59</timebase>
							<ntsc>TRUE</ntsc>
						</rate>
						<duration>30</duration>
						<start>4649</start>
						<end>4679</end>
						<in>0</in>
						<out>30</out>
					</clipitem>
					<clipitem frameBlend="FALSE" id="clipitem-telop-555">
						<file id="file-2"/>
						<name>！</name>
						<rate>
							<timebase>59</timebase>
							<ntsc>TRUE</ntsc>
						</rate>
						<rate>
							<timebase>59</timebase>
							<ntsc>TRUE</ntsc>
						</rate>
						<duration>60</duration>
						<start>4679</start>
						<end>4739</end>
						<in>0</in>
						<out>60</out>
					</clipitem>
					<clipitem frameBlend="FALSE" id="clipitem-telop-562">
						<file id="file-2"/>
						<name>！</name>
						<rate>
							<timebase>59</timebase>
							<ntsc>TRUE</ntsc>
						</rate>
						<rate>
							<timebase>59</timebase>
							<ntsc>TRUE</ntsc>
						</rate>
						<duration>60</duration>
						<start>4739</start>
						<end>4799</end>
						<in>0</in>
						<out>60</out>
					</clipitem>
					<clipitem frameBlend="FALSE" id="clipitem-telop-570">
						<file id="file-2"/>
						<name>！</name>
						<rate>
							<timebase>59</timebase>
							<ntsc>TRUE</ntsc>
						</rate>
						<rate>
							<timebase>59</timebase>
							<ntsc>TRUE</ntsc>
						</rate>
						<duration>60</duration>
						<start>4799</start>
						<end>4859</end>
						<in>0</in>
						<out>60</out>
					</clipitem>
					<clipitem frameBlend="FALSE" id="clipitem-telop-579">
						<file id="file-2"/>
						<name>！</name>
						<rate>
							<timebase>59</timebase>
							<ntsc>TRUE</ntsc>
						</rate>
						<rate>
							<timebase>59</timebase>
							<ntsc>TRUE</ntsc>
						</rate>
						<duration>60</duration>
						<start>4859</start>
						<end>4919</end>
						<in>0</in>
						<out>60</out>
					</clipitem>
					<clipitem frameBlend="FALSE" id="clipitem-telop-590">
						<file id="file-2"/>
						<name>！</name>
						<rate>
							<timebase>59</timebase>
							<ntsc>TRUE</ntsc>
						</rate>
						<rate>
							<timebase>59</timebase>
							<ntsc>TRUE</ntsc>
						</rate>
						<duration>60</duration>
						<start>4919</start>
						<end>4979</end>
						<in>0</in>
						<out>60</out>
					</clipitem>
					<clipitem frameBlend="FALSE" id="clipitem-telop-603">
						<file id="file-2"/>
						<name>！</name>
						<rate>
							<timebase>59</timebase>
							<ntsc>TRUE</ntsc>
						</rate>
						<rate>
							<timebase>59</timebase>
							<ntsc>TRUE</ntsc>
						</rate>
						<duration>60</duration>
						<start>4979</start>
						<end>5039</end>
						<in>0</in>
						<out>60</out>
					</clipitem>
					<clipitem frameBlend="FALSE" id="clipitem-telop-614">
						<file id="file-2"/>
						<name>w</name>
						<rate>
							<timebase>59</timebase>
							<ntsc>TRUE</ntsc>
						</rate>
						<rate>
							<timebase>59</timebase>
							<ntsc>TRUE</ntsc>
						</rate>
						<duration>30</duration>
						<start>5039</start>
						<end>5069</end>
						<in>0</in>
						<out>30</out>
					</clipitem>
					<clipitem frameBlend="FALSE" id="clipitem-telop-618">
						<file id="file-2"/>
						<name>！</name>
						<rate>
							<timebase>59</timebase>
							<ntsc>TRUE</ntsc>
						</rate>
						<rate>
							<timebase>59</timebase>
							<ntsc>TRUE</ntsc>
						</rate>
						<duration>60</duration>
						<start>5069</start>
						<end>5129</end>
						<in>0</in>
						<out>60</out>
					</clipitem>
					<clipitem frameBlend="FALSE" id="clipitem-telop-629">
						<file id="file-2"/>
						<name>！</name>
						<rate>
							<timebase>59</timebase>
							<ntsc>TRUE</ntsc>
						</rate>
						<rate>
							<timebase>59</timebase>
							<ntsc>TRUE</ntsc>
						</rate>
						<duration>60</duration>
						<start>5129</start>
						<end>5189</end>
						<in>0</in>
						<out>60</out>
					</clipitem>
					<clipitem frameBlend="FALSE" id="clipitem-telop-636">
						<file id="file-2"/>
						<name>！</name>
						<rate>
							<timebase>59</timebase>
							<ntsc>TRUE</ntsc>
						</rate>
						<rate>
							<timebase>59</timebase>
							<ntsc>TRUE</ntsc>
						</rate>
						<duration>60</duration>
						<start>5189</start>
						<end>5249</end>
						<in>0</in>
						<out>60</out>
					</clipitem>
					<clipitem frameBlend="FALSE" id="clipitem-telop-646">
						<file id="file-2"/>
						<name>！</name>
						<rate>
							<timebase>59</timebase>
							<ntsc>TRUE</ntsc>
						</rate>
						<rate>
							<timebase>59</timebase>
							<ntsc>TRUE</ntsc>
						</rate>
						<duration>60</duration>
						<start>5249</start>
						<end>5309</end>
						<in>0</in>
						<out>60</out>
					</clipitem>
					<clipitem frameBlend="FALSE" id="clipitem-telop-652">
						<file id="file-2"/>
						<name>！</name>
						<rate>
							<timebase>59</timebase>
							<ntsc>TRUE</ntsc>
						</rate>
						<rate>
							<timebase>59</timebase>
							<ntsc>TRUE</ntsc>
						</rate>
						<duration>66</duration>
						<start>5309</start>
						<end>5375</end>
						<in>0</in>
						<out>66</out>
					</clipitem>
					<clipitem frameBlend="FALSE" id="clipitem-telop-661">
						<file id="file-2"/>
						<name>！</name>
						<rate>
							<timebase>59</timebase>
							<ntsc>TRUE</ntsc>
						</rate>
						<rate>
							<timebase>59</timebase>
							<ntsc>TRUE</ntsc>
						</rate>
						<duration>60</duration>
						<start>5375</start>
						<end>5435</end>
						<in>0</in>
						<out>60</out>
					</clipitem>
					<clipitem frameBlend="FALSE" id="clipitem-telop-670">
						<file id="file-2"/>
						<name>！</name>
						<rate>
							<timebase>59</timebase>
							<ntsc>TRUE</ntsc>
						</rate>
						<rate>
							<timebase>59</timebase>
							<ntsc>TRUE</ntsc>
						</rate>
						<duration>60</duration>
						<start>5435</start>
						<end>5495</end>
						<in>0</in>
						<out>60</out>
					</clipitem>
					<clipitem frameBlend="FALSE" id="clipitem-telop-674">
						<file id="file-2"/>
						<name>！</name>
						<rate>
							<timebase>59</timebase>
							<ntsc>TRUE</ntsc>
						</rate>
						<rate>
							<timebase>59</timebase>
							<ntsc>TRUE</ntsc>
						</rate>
						<duration>60</duration>
						<start>5507</start>
						<end>5567</end>
						<in>0</in>
						<out>60</out>
					</clipitem>
					<clipitem frameBlend="FALSE" id="clipitem-telop-679">
						<file id="file-2"/>
						<name>！</name>
						<rate>
							<timebase>59</timebase>
							<ntsc>TRUE</ntsc>
						</rate>
						<rate>
							<timebase>59</timebase>
							<ntsc>TRUE</ntsc>
						</rate>
						<duration>60</duration>
						<start>5567</start>
						<end>5627</end>
						<in>0</in>
						<out>60</out>
					</clipitem>
					<clipitem frameBlend="FALSE" id="clipitem-telop-685">
						<file id="file-2"/>
						<name>！</name>
						<rate>
							<timebase>59</timebase>
							<ntsc>TRUE</ntsc>
						</rate>
						<rate>
							<timebase>59</timebase>
							<ntsc>TRUE</ntsc>
						</rate>
						<duration>66</duration>
						<start>5627</start>
						<end>5693</end>
						<in>0</in>
						<out>66</out>
					</clipitem>
					<clipitem frameBlend="FALSE" id="clipitem-telop-691">
						<file id="file-2"/>
						<name>えでもなんか波がこれから接客してくれるって</name>
						<rate>
							<timebase>59</timebase>
							<ntsc>TRUE</ntsc>
						</rate>
						<rate>
							<timebase>59</timebase>
							<ntsc>TRUE</ntsc>
						</rate>
						<duration>180</duration>
						<start>5693</start>
						<end>5873</end>
						<in>0</in>
						<out>180</out>
					</clipitem>
					<clipitem frameBlend="FALSE" id="clipitem-telop-711">
						<file id="file-2"/>
						<name>仕込まれました私もではまくせくださいませんラミス島と言う子女さんの世界の方を</name>
						<rate>
							<timebase>59</timebase>
							<ntsc>TRUE</ntsc>
						</rate>
						<rate>
							<timebase>59</timebase>
							<ntsc>TRUE</ntsc>
						</rate>
						<duration>240</duration>
						<start>5873</start>
						<end>6113</end>
						<in>0</in>
						<out>240</out>
					</clipitem>
					<clipitem frameBlend="FALSE" id="clipitem-telop-741">
						<file id="file-2"/>
						<name>より落としてもらってよろしいでしょうか</name>
						<rate>
							<timebase>59</timebase>
							<ntsc>TRUE</ntsc>
						</rate>
						<rate>
							<timebase>59</timebase>
							<ntsc>TRUE</ntsc>
						</rate>
						<duration>120</duration>
						<start>6113</start>
						<end>6233</end>
						<in>0</in>
						<out>120</out>
					</clipitem>
					<clipitem frameBlend="FALSE" id="clipitem-telop-749">
						<file id="file-2"/>
						<name>え何他のお客様のボイスに乗ってしまいますののまれに</name>
						<rate>
							<timebase>59</timebase>
							<ntsc>TRUE</ntsc>
						</rate>
						<rate>
							<timebase>59</timebase>
							<ntsc>TRUE</ntsc>
						</rate>
						<duration>240</duration>
						<start>6233</start>
						<end>6473</end>
						<in>0</in>
						<out>240</out>
					</clipitem>
					<clipitem frameBlend="FALSE" id="clipitem-telop-771">
						<file id="file-2"/>
						<name>えなんかミランがなんかファミチキの話を</name>
						<rate>
							<timebase>59</timebase>
							<ntsc>TRUE</ntsc>
						</rate>
						<rate>
							<timebase>59</timebase>
							<ntsc>TRUE</ntsc>
						</rate>
						<duration>240</duration>
						<start>6473</start>
						<end>6713</end>
						<in>0</in>
						<out>240</out>
					</clipitem>
					<clipitem frameBlend="FALSE" id="clipitem-telop-807">
						<file id="file-2"/>
						<name>！</name>
						<rate>
							<timebase>59</timebase>
							<ntsc>TRUE</ntsc>
						</rate>
						<rate>
							<timebase>59</timebase>
							<ntsc>TRUE</ntsc>
						</rate>
						<duration>66</duration>
						<start>6713</start>
						<end>6779</end>
						<in>0</in>
						<out>66</out>
					</clipitem>
					<clipitem frameBlend="FALSE" id="clipitem-telop-817">
						<file id="file-2"/>
						<name>！</name>
						<rate>
							<timebase>59</timebase>
							<ntsc>TRUE</ntsc>
						</rate>
						<rate>
							<timebase>59</timebase>
							<ntsc>TRUE</ntsc>
						</rate>
						<duration>60</duration>
						<start>6779</start>
						<end>6839</end>
						<in>0</in>
						<out>60</out>
					</clipitem>
					<clipitem frameBlend="FALSE" id="clipitem-telop-826">
						<file id="file-2"/>
						<name>！</name>
						<rate>
							<timebase>59</timebase>
							<ntsc>TRUE</ntsc>
						</rate>
						<rate>
							<timebase>59</timebase>
							<ntsc>TRUE</ntsc>
						</rate>
						<duration>60</duration>
						<start>6839</start>
						<end>6899</end>
						<in>0</in>
						<out>60</out>
					</clipitem>
					<clipitem frameBlend="FALSE" id="clipitem-telop-838">
						<file id="file-2"/>
						<name>！</name>
						<rate>
							<timebase>59</timebase>
							<ntsc>TRUE</ntsc>
						</rate>
						<rate>
							<timebase>59</timebase>
							<ntsc>TRUE</ntsc>
						</rate>
						<duration>60</duration>
						<start>6905</start>
						<end>6965</end>
						<in>0</in>
						<out>60</out>
					</clipitem>
					<clipitem frameBlend="FALSE" id="clipitem-telop-850">
						<file id="file-2"/>
						<name>！</name>
						<rate>
							<timebase>59</timebase>
							<ntsc>TRUE</ntsc>
						</rate>
						<rate>
							<timebase>59</timebase>
							<ntsc>TRUE</ntsc>
						</rate>
						<duration>66</duration>
						<start>6965</start>
						<end>7031</end>
						<in>0</in>
						<out>66</out>
					</clipitem>
					<clipitem frameBlend="FALSE" id="clipitem-telop-859">
						<file id="file-2"/>
						<name>！</name>
						<rate>
							<timebase>59</timebase>
							<ntsc>TRUE</ntsc>
						</rate>
						<rate>
							<timebase>59</timebase>
							<ntsc>TRUE</ntsc>
						</rate>
						<duration>60</duration>
						<start>7037</start>
						<end>7097</end>
						<in>0</in>
						<out>60</out>
					</clipitem>
					<clipitem frameBlend="FALSE" id="clipitem-telop-866">
						<file id="file-2"/>
						<name>！</name>
						<rate>
							<timebase>59</timebase>
							<ntsc>TRUE</ntsc>
						</rate>
						<rate>
							<timebase>59</timebase>
							<ntsc>TRUE</ntsc>
						</rate>
						<duration>60</duration>
						<start>7109</start>
						<end>7169</end>
						<in>0</in>
						<out>60</out>
					</clipitem>
					<clipitem frameBlend="FALSE" id="clipitem-telop-876">
						<file id="file-2"/>
						<name>！</name>
						<rate>
							<timebase>59</timebase>
							<ntsc>TRUE</ntsc>
						</rate>
						<rate>
							<timebase>59</timebase>
							<ntsc>TRUE</ntsc>
						</rate>
						<duration>60</duration>
						<start>7169</start>
						<end>7229</end>
						<in>0</in>
						<out>60</out>
					</clipitem>
					<clipitem frameBlend="FALSE" id="clipitem-telop-882">
						<file id="file-2"/>
						<name>！</name>
						<rate>
							<timebase>59</timebase>
							<ntsc>TRUE</ntsc>
						</rate>
						<rate>
							<timebase>59</timebase>
							<ntsc>TRUE</ntsc>
						</rate>
						<duration>60</duration>
						<start>7229</start>
						<end>7289</end>
						<in>0</in>
						<out>60</out>
					</clipitem>
					<clipitem frameBlend="FALSE" id="clipitem-telop-890">
						<file id="file-2"/>
						<name>！</name>
						<rate>
							<timebase>59</timebase>
							<ntsc>TRUE</ntsc>
						</rate>
						<rate>
							<timebase>59</timebase>
							<ntsc>TRUE</ntsc>
						</rate>
						<duration>66</duration>
						<start>7295</start>
						<end>7361</end>
						<in>0</in>
						<out>66</out>
					</clipitem>
					<clipitem frameBlend="FALSE" id="clipitem-telop-898">
						<file id="file-2"/>
						<name>！</name>
						<rate>
							<timebase>59</timebase>
							<ntsc>TRUE</ntsc>
						</rate>
						<rate>
							<timebase>59</timebase>
							<ntsc>TRUE</ntsc>
						</rate>
						<duration>60</duration>
						<start>7361</start>
						<end>7421</end>
						<in>0</in>
						<out>60</out>
					</clipitem>
					<clipitem frameBlend="FALSE" id="clipitem-telop-906">
						<file id="file-2"/>
						<name>！</name>
						<rate>
							<timebase>59</timebase>
							<ntsc>TRUE</ntsc>
						</rate>
						<rate>
							<timebase>59</timebase>
							<ntsc>TRUE</ntsc>
						</rate>
						<duration>60</duration>
						<start>7421</start>
						<end>7481</end>
						<in>0</in>
						<out>60</out>
					</clipitem>
					<clipitem frameBlend="FALSE" id="clipitem-telop-917">
						<file id="file-2"/>
						<name>！</name>
						<rate>
							<timebase>59</timebase>
							<ntsc>TRUE</ntsc>
						</rate>
						<rate>
							<timebase>59</timebase>
							<ntsc>TRUE</ntsc>
						</rate>
						<duration>60</duration>
						<start>7481</start>
						<end>7541</end>
						<in>0</in>
						<out>60</out>
					</clipitem>
					<clipitem frameBlend="FALSE" id="clipitem-telop-928">
						<file id="file-2"/>
						<name>！</name>
						<rate>
							<timebase>59</timebase>
							<ntsc>TRUE</ntsc>
						</rate>
						<rate>
							<timebase>59</timebase>
							<ntsc>TRUE</ntsc>
						</rate>
						<duration>60</duration>
						<start>7541</start>
						<end>7601</end>
						<in>0</in>
						<out>60</out>
					</clipitem>
					<clipitem frameBlend="FALSE" id="clipitem-telop-935">
						<file id="file-2"/>
						<name>！</name>
						<rate>
							<timebase>59</timebase>
							<ntsc>TRUE</ntsc>
						</rate>
						<rate>
							<timebase>59</timebase>
							<ntsc>TRUE</ntsc>
						</rate>
						<duration>60</duration>
						<start>7601</start>
						<end>7661</end>
						<in>0</in>
						<out>60</out>
					</clipitem>
					<clipitem frameBlend="FALSE" id="clipitem-telop-944">
						<file id="file-2"/>
						<name>！</name>
						<rate>
							<timebase>59</timebase>
							<ntsc>TRUE</ntsc>
						</rate>
						<rate>
							<timebase>59</timebase>
							<ntsc>TRUE</ntsc>
						</rate>
						<duration>66</duration>
						<start>7661</start>
						<end>7727</end>
						<in>0</in>
						<out>66</out>
					</clipitem>
					<clipitem frameBlend="FALSE" id="clipitem-telop-953">
						<file id="file-2"/>
						<name>！</name>
						<rate>
							<timebase>59</timebase>
							<ntsc>TRUE</ntsc>
						</rate>
						<rate>
							<timebase>59</timebase>
							<ntsc>TRUE</ntsc>
						</rate>
						<duration>60</duration>
						<start>7733</start>
						<end>7793</end>
						<in>0</in>
						<out>60</out>
					</clipitem>
					<clipitem frameBlend="FALSE" id="clipitem-telop-960">
						<file id="file-2"/>
						<name>声がでかいですよ</name>
						<rate>
							<timebase>59</timebase>
							<ntsc>TRUE</ntsc>
						</rate>
						<rate>
							<timebase>59</timebase>
							<ntsc>TRUE</ntsc>
						</rate>
						<duration>60</duration>
						<start>7793</start>
						<end>7853</end>
						<in>0</in>
						<out>60</out>
					</clipitem>
					<clipitem frameBlend="FALSE" id="clipitem-telop-966">
						<file id="file-2"/>
						<name>分かったつもりるく静かに喋るねじゃあ</name>
						<rate>
							<timebase>59</timebase>
							<ntsc>TRUE</ntsc>
						</rate>
						<rate>
							<timebase>59</timebase>
							<ntsc>TRUE</ntsc>
						</rate>
						<duration>180</duration>
						<start>7853</start>
						<end>8033</end>
						<in>0</in>
						<out>180</out>
					</clipitem>
					<clipitem frameBlend="FALSE" id="clipitem-telop-977">
						<file id="file-2"/>
						<name>すいません</name>
						<rate>
							<timebase>59</timebase>
							<ntsc>TRUE</ntsc>
						</rate>
						<rate>
							<timebase>59</timebase>
							<ntsc>TRUE</ntsc>
						</rate>
						<duration>120</duration>
						<start>8033</start>
						<end>8153</end>
						<in>0</in>
						<out>120</out>
					</clipitem>
					<clipitem frameBlend="FALSE" id="clipitem-telop-990">
						<file id="file-2"/>
						<name>こんなに優しいお嬢様だな</name>
						<rate>
							<timebase>59</timebase>
							<ntsc>TRUE</ntsc>
						</rate>
						<rate>
							<timebase>59</timebase>
							<ntsc>TRUE</ntsc>
						</rate>
						<duration>179</duration>
						<start>8153</start>
						<end>8332</end>
						<in>0</in>
						<out>179</out>
					</clipitem>
					<clipitem frameBlend="FALSE" id="clipitem-telop-1010">
						<file id="file-2"/>
						<name>！</name>
						<rate>
							<timebase>59</timebase>
							<ntsc>TRUE</ntsc>
						</rate>
						<rate>
							<timebase>59</timebase>
							<ntsc>TRUE</ntsc>
						</rate>
						<duration>66</duration>
						<start>8332</start>
						<end>8398</end>
						<in>0</in>
						<out>66</out>
					</clipitem>
					<clipitem frameBlend="FALSE" id="clipitem-telop-1015">
						<file id="file-2"/>
						<name>！</name>
						<rate>
							<timebase>59</timebase>
							<ntsc>TRUE</ntsc>
						</rate>
						<rate>
							<timebase>59</timebase>
							<ntsc>TRUE</ntsc>
						</rate>
						<duration>66</duration>
						<start>8398</start>
						<end>8464</end>
						<in>0</in>
						<out>66</out>
					</clipitem>
					<clipitem frameBlend="FALSE" id="clipitem-telop-1025">
						<file id="file-2"/>
						<name>！</name>
						<rate>
							<timebase>59</timebase>
							<ntsc>TRUE</ntsc>
						</rate>
						<rate>
							<timebase>59</timebase>
							<ntsc>TRUE</ntsc>
						</rate>
						<duration>60</duration>
						<start>8470</start>
						<end>8530</end>
						<in>0</in>
						<out>60</out>
					</clipitem>
					<clipitem frameBlend="FALSE" id="clipitem-telop-1033">
						<file id="file-2"/>
						<name>！</name>
						<rate>
							<timebase>59</timebase>
							<ntsc>TRUE</ntsc>
						</rate>
						<rate>
							<timebase>59</timebase>
							<ntsc>TRUE</ntsc>
						</rate>
						<duration>60</duration>
						<start>8548</start>
						<end>8608</end>
						<in>0</in>
						<out>60</out>
					</clipitem>
					<clipitem frameBlend="FALSE" id="clipitem-telop-1043">
						<file id="file-2"/>
						<name>！</name>
						<rate>
							<timebase>59</timebase>
							<ntsc>TRUE</ntsc>
						</rate>
						<rate>
							<timebase>59</timebase>
							<ntsc>TRUE</ntsc>
						</rate>
						<duration>60</duration>
						<start>8608</start>
						<end>8668</end>
						<in>0</in>
						<out>60</out>
					</clipitem>
					<clipitem frameBlend="FALSE" id="clipitem-telop-1049">
						<file id="file-2"/>
						<name>うんあここに座る</name>
						<rate>
							<timebase>59</timebase>
							<ntsc>TRUE</ntsc>
						</rate>
						<rate>
							<timebase>59</timebase>
							<ntsc>TRUE</ntsc>
						</rate>
						<duration>120</duration>
						<start>8692</start>
						<end>8812</end>
						<in>0</in>
						<out>120</out>
					</clipitem>
					<clipitem frameBlend="FALSE" id="clipitem-telop-1056">
						<file id="file-2"/>
						<name>先ほどのお話に戻ります</name>
						<rate>
							<timebase>59</timebase>
							<ntsc>TRUE</ntsc>
						</rate>
						<rate>
							<timebase>59</timebase>
							<ntsc>TRUE</ntsc>
						</rate>
						<duration>180</duration>
						<start>8812</start>
						<end>8992</end>
						<in>0</in>
						<out>180</out>
					</clipitem>
					<clipitem frameBlend="FALSE" id="clipitem-telop-1080">
						<file id="file-2"/>
						<name>何かお困り事でもあるのでしょうか</name>
						<rate>
							<timebase>59</timebase>
							<ntsc>TRUE</ntsc>
						</rate>
						<rate>
							<timebase>59</timebase>
							<ntsc>TRUE</ntsc>
						</rate>
						<duration>120</duration>
						<start>8992</start>
						<end>9112</end>
						<in>0</in>
						<out>120</out>
					</clipitem>
					<clipitem frameBlend="FALSE" id="clipitem-telop-1095">
						<file id="file-2"/>
						<name>ガチャガチャガチャガチャ</name>
						<rate>
							<timebase>59</timebase>
							<ntsc>TRUE</ntsc>
						</rate>
						<rate>
							<timebase>59</timebase>
							<ntsc>TRUE</ntsc>
						</rate>
						<duration>60</duration>
						<start>9112</start>
						<end>9172</end>
						<in>0</in>
						<out>60</out>
					</clipitem>
					<clipitem frameBlend="FALSE" id="clipitem-telop-1103">
						<file id="file-2"/>
						<name>！</name>
						<rate>
							<timebase>59</timebase>
							<ntsc>TRUE</ntsc>
						</rate>
						<rate>
							<timebase>59</timebase>
							<ntsc>TRUE</ntsc>
						</rate>
						<duration>60</duration>
						<start>9178</start>
						<end>9238</end>
						<in>0</in>
						<out>60</out>
					</clipitem>
					<clipitem frameBlend="FALSE" id="clipitem-telop-1110">
						<file id="file-2"/>
						<name>！</name>
						<rate>
							<timebase>59</timebase>
							<ntsc>TRUE</ntsc>
						</rate>
						<rate>
							<timebase>59</timebase>
							<ntsc>TRUE</ntsc>
						</rate>
						<duration>60</duration>
						<start>9238</start>
						<end>9298</end>
						<in>0</in>
						<out>60</out>
					</clipitem>
					<clipitem frameBlend="FALSE" id="clipitem-telop-1120">
						<file id="file-2"/>
						<name>！</name>
						<rate>
							<timebase>59</timebase>
							<ntsc>TRUE</ntsc>
						</rate>
						<rate>
							<timebase>59</timebase>
							<ntsc>TRUE</ntsc>
						</rate>
						<duration>66</duration>
						<start>9298</start>
						<end>9364</end>
						<in>0</in>
						<out>66</out>
					</clipitem>
					<clipitem frameBlend="FALSE" id="clipitem-telop-1129">
						<file id="file-2"/>
						<name>！</name>
						<rate>
							<timebase>59</timebase>
							<ntsc>TRUE</ntsc>
						</rate>
						<rate>
							<timebase>59</timebase>
							<ntsc>TRUE</ntsc>
						</rate>
						<duration>66</duration>
						<start>9364</start>
						<end>9430</end>
						<in>0</in>
						<out>66</out>
					</clipitem>
					<clipitem frameBlend="FALSE" id="clipitem-telop-1139">
						<file id="file-2"/>
						<name>！</name>
						<rate>
							<timebase>59</timebase>
							<ntsc>TRUE</ntsc>
						</rate>
						<rate>
							<timebase>59</timebase>
							<ntsc>TRUE</ntsc>
						</rate>
						<duration>60</duration>
						<start>9430</start>
						<end>9490</end>
						<in>0</in>
						<out>60</out>
					</clipitem>
					<clipitem frameBlend="FALSE" id="clipitem-telop-1149">
						<file id="file-2"/>
						<name>！</name>
						<rate>
							<timebase>59</timebase>
							<ntsc>TRUE</ntsc>
						</rate>
						<rate>
							<timebase>59</timebase>
							<ntsc>TRUE</ntsc>
						</rate>
						<duration>60</duration>
						<start>9496</start>
						<end>9556</end>
						<in>0</in>
						<out>60</out>
					</clipitem>
					<clipitem frameBlend="FALSE" id="clipitem-telop-1156">
						<file id="file-2"/>
						<name>！</name>
						<rate>
							<timebase>59</timebase>
							<ntsc>TRUE</ntsc>
						</rate>
						<rate>
							<timebase>59</timebase>
							<ntsc>TRUE</ntsc>
						</rate>
						<duration>60</duration>
						<start>9556</start>
						<end>9616</end>
						<in>0</in>
						<out>60</out>
					</clipitem>
					<clipitem frameBlend="FALSE" id="clipitem-telop-1162">
						<file id="file-2"/>
						<name>！</name>
						<rate>
							<timebase>59</timebase>
							<ntsc>TRUE</ntsc>
						</rate>
						<rate>
							<timebase>59</timebase>
							<ntsc>TRUE</ntsc>
						</rate>
						<duration>60</duration>
						<start>9616</start>
						<end>9676</end>
						<in>0</in>
						<out>60</out>
					</clipitem>
					<clipitem frameBlend="FALSE" id="clipitem-telop-1171">
						<file id="file-2"/>
						<name>！</name>
						<rate>
							<timebase>59</timebase>
							<ntsc>TRUE</ntsc>
						</rate>
						<rate>
							<timebase>59</timebase>
							<ntsc>TRUE</ntsc>
						</rate>
						<duration>60</duration>
						<start>9688</start>
						<end>9748</end>
						<in>0</in>
						<out>60</out>
					</clipitem>
					<clipitem frameBlend="FALSE" id="clipitem-telop-1177">
						<file id="file-2"/>
						<name>w</name>
						<rate>
							<timebase>59</timebase>
							<ntsc>TRUE</ntsc>
						</rate>
						<rate>
							<timebase>59</timebase>
							<ntsc>TRUE</ntsc>
						</rate>
						<duration>30</duration>
						<start>9760</start>
						<end>9790</end>
						<in>0</in>
						<out>30</out>
					</clipitem>
					<clipitem frameBlend="FALSE" id="clipitem-telop-1181">
						<file id="file-2"/>
						<name>w</name>
						<rate>
							<timebase>59</timebase>
							<ntsc>TRUE</ntsc>
						</rate>
						<rate>
							<timebase>59</timebase>
							<ntsc>TRUE</ntsc>
						</rate>
						<duration>30</duration>
						<start>9790</start>
						<end>9820</end>
						<in>0</in>
						<out>30</out>
					</clipitem>
					<clipitem frameBlend="FALSE" id="clipitem-telop-1184">
						<file id="file-2"/>
						<name>！</name>
						<rate>
							<timebase>59</timebase>
							<ntsc>TRUE</ntsc>
						</rate>
						<rate>
							<timebase>59</timebase>
							<ntsc>TRUE</ntsc>
						</rate>
						<duration>66</duration>
						<start>9844</start>
						<end>9910</end>
						<in>0</in>
						<out>66</out>
					</clipitem>
					<clipitem frameBlend="FALSE" id="clipitem-telop-1193">
						<file id="file-2"/>
						<name>！</name>
						<rate>
							<timebase>59</timebase>
							<ntsc>TRUE</ntsc>
						</rate>
						<rate>
							<timebase>59</timebase>
							<ntsc>TRUE</ntsc>
						</rate>
						<duration>60</duration>
						<start>9928</start>
						<end>9988</end>
						<in>0</in>
						<out>60</out>
					</clipitem>
					<clipitem frameBlend="FALSE" id="clipitem-telop-1198">
						<file id="file-2"/>
						<name>！</name>
						<rate>
							<timebase>59</timebase>
							<ntsc>TRUE</ntsc>
						</rate>
						<rate>
							<timebase>59</timebase>
							<ntsc>TRUE</ntsc>
						</rate>
						<duration>60</duration>
						<start>9988</start>
						<end>10048</end>
						<in>0</in>
						<out>60</out>
					</clipitem>
					<clipitem frameBlend="FALSE" id="clipitem-telop-1203">
						<file id="file-2"/>
						<name>！</name>
						<rate>
							<timebase>59</timebase>
							<ntsc>TRUE</ntsc>
						</rate>
						<rate>
							<timebase>59</timebase>
							<ntsc>TRUE</ntsc>
						</rate>
						<duration>60</duration>
						<start>10060</start>
						<end>10120</end>
						<in>0</in>
						<out>60</out>
					</clipitem>
					<clipitem frameBlend="FALSE" id="clipitem-telop-1209">
						<file id="file-2"/>
						<name>私の目の話ですか</name>
						<rate>
							<timebase>59</timebase>
							<ntsc>TRUE</ntsc>
						</rate>
						<rate>
							<timebase>59</timebase>
							<ntsc>TRUE</ntsc>
						</rate>
						<duration>120</duration>
						<start>10132</start>
						<end>10252</end>
						<in>0</in>
						<out>120</out>
					</clipitem>
					<clipitem frameBlend="FALSE" id="clipitem-telop-1224">
						<file id="file-2"/>
						<name>めっそーもございません</name>
						<rate>
							<timebase>59</timebase>
							<ntsc>TRUE</ntsc>
						</rate>
						<rate>
							<timebase>59</timebase>
							<ntsc>TRUE</ntsc>
						</rate>
						<duration>120</duration>
						<start>10252</start>
						<end>10372</end>
						<in>0</in>
						<out>120</out>
					</clipitem>
					<clipitem frameBlend="FALSE" id="clipitem-telop-1233">
						<file id="file-2"/>
						<name>今日はミルクお嬢様の疲れを癒せたら</name>
						<rate>
							<timebase>59</timebase>
							<ntsc>TRUE</ntsc>
						</rate>
						<rate>
							<timebase>59</timebase>
							<ntsc>TRUE</ntsc>
						</rate>
						<duration>180</duration>
						<start>10372</start>
						<end>10552</end>
						<in>0</in>
						<out>180</out>
					</clipitem>
					<clipitem frameBlend="FALSE" id="clipitem-telop-1246">
						<file id="file-2"/>
						<name>私とっても幸せでください</name>
						<rate>
							<timebase>59</timebase>
							<ntsc>TRUE</ntsc>
						</rate>
						<rate>
							<timebase>59</timebase>
							<ntsc>TRUE</ntsc>
						</rate>
						<duration>180</duration>
						<start>10552</start>
						<end>10732</end>
						<in>0</in>
						<out>180</out>
					</clipitem>
					<clipitem frameBlend="FALSE" id="clipitem-telop-1274">
						<file id="file-2"/>
						<name>えでもミルク</name>
						<rate>
							<timebase>59</timebase>
							<ntsc>TRUE</ntsc>
						</rate>
						<rate>
							<timebase>59</timebase>
							<ntsc>TRUE</ntsc>
						</rate>
						<duration>120</duration>
						<start>10732</start>
						<end>10852</end>
						<in>0</in>
						<out>120</out>
					</clipitem>
					<clipitem frameBlend="FALSE" id="clipitem-telop-1287">
						<file id="file-2"/>
						<name>なんか</name>
						<rate>
							<timebase>59</timebase>
							<ntsc>TRUE</ntsc>
						</rate>
						<rate>
							<timebase>59</timebase>
							<ntsc>TRUE</ntsc>
						</rate>
						<duration>120</duration>
						<start>10852</start>
						<end>10972</end>
						<in>0</in>
						<out>120</out>
					</clipitem>
					<clipitem frameBlend="FALSE" id="clipitem-telop-1300">
						<file id="file-2"/>
						<name>ミルクに</name>
						<rate>
							<timebase>59</timebase>
							<ntsc>TRUE</ntsc>
						</rate>
						<rate>
							<timebase>59</timebase>
							<ntsc>TRUE</ntsc>
						</rate>
						<duration>120</duration>
						<start>10972</start>
						<end>11092</end>
						<in>0</in>
						<out>120</out>
					</clipitem>
					<clipitem frameBlend="FALSE" id="clipitem-telop-1317">
						<file id="file-2"/>
						<name>なんかおれ色の首は</name>
						<rate>
							<timebase>59</timebase>
							<ntsc>TRUE</ntsc>
						</rate>
						<rate>
							<timebase>59</timebase>
							<ntsc>TRUE</ntsc>
						</rate>
						<duration>120</duration>
						<start>11092</start>
						<end>11212</end>
						<in>0</in>
						<out>120</out>
					</clipitem>
					<clipitem frameBlend="FALSE" id="clipitem-telop-1328">
						<file id="file-2"/>
						<name>はめてくれる人が欲しいなって思ってて</name>
						<rate>
							<timebase>59</timebase>
							<ntsc>TRUE</ntsc>
						</rate>
						<rate>
							<timebase>59</timebase>
							<ntsc>TRUE</ntsc>
						</rate>
						<duration>240</duration>
						<start>11212</start>
						<end>11452</end>
						<in>0</in>
						<out>240</out>
					</clipitem>
					<clipitem frameBlend="FALSE" id="clipitem-telop-1354">
						<file id="file-2"/>
						<name>なるほど</name>
						<rate>
							<timebase>59</timebase>
							<ntsc>TRUE</ntsc>
						</rate>
						<rate>
							<timebase>59</timebase>
							<ntsc>TRUE</ntsc>
						</rate>
						<duration>120</duration>
						<start>11452</start>
						<end>11572</end>
						<in>0</in>
						<out>120</out>
					</clipitem>
					<clipitem frameBlend="FALSE" id="clipitem-telop-1369">
						<file id="file-2"/>
						<name>うんなんか探してるんだよね</name>
						<rate>
							<timebase>59</timebase>
							<ntsc>TRUE</ntsc>
						</rate>
						<rate>
							<timebase>59</timebase>
							<ntsc>TRUE</ntsc>
						</rate>
						<duration>120</duration>
						<start>11572</start>
						<end>11692</end>
						<in>0</in>
						<out>120</out>
					</clipitem>
					<clipitem frameBlend="FALSE" id="clipitem-telop-1383">
						<file id="file-2"/>
						<name>それは何かを参考に出されたんですか</name>
						<rate>
							<timebase>59</timebase>
							<ntsc>TRUE</ntsc>
						</rate>
						<rate>
							<timebase>59</timebase>
							<ntsc>TRUE</ntsc>
						</rate>
						<duration>180</duration>
						<start>11692</start>
						<end>11872</end>
						<in>0</in>
						<out>180</out>
					</clipitem>
					<clipitem frameBlend="FALSE" id="clipitem-telop-1407">
						<file id="file-2"/>
						<name>えなんか職場の人もなんか着信よんで</name>
						<rate>
							<timebase>59</timebase>
							<ntsc>TRUE</ntsc>
						</rate>
						<rate>
							<timebase>59</timebase>
							<ntsc>TRUE</ntsc>
						</rate>
						<duration>180</duration>
						<start>11872</start>
						<end>12052</end>
						<in>0</in>
						<out>180</out>
					</clipitem>
					<clipitem frameBlend="FALSE" id="clipitem-telop-1428">
						<file id="file-2"/>
						<name>なんかおれ色に染めてやるとか</name>
						<rate>
							<timebase>59</timebase>
							<ntsc>TRUE</ntsc>
						</rate>
						<rate>
							<timebase>59</timebase>
							<ntsc>TRUE</ntsc>
						</rate>
						<duration>180</duration>
						<start>12052</start>
						<end>12232</end>
						<in>0</in>
						<out>180</out>
					</clipitem>
					<clipitem frameBlend="FALSE" id="clipitem-telop-1451">
						<file id="file-2"/>
						<name>なんか俺から逃げられないよみたいなこと言ってて</name>
						<rate>
							<timebase>59</timebase>
							<ntsc>TRUE</ntsc>
						</rate>
						<rate>
							<timebase>59</timebase>
							<ntsc>TRUE</ntsc>
						</rate>
						<duration>240</duration>
						<start>12232</start>
						<end>12472</end>
						<in>0</in>
						<out>240</out>
					</clipitem>
					<clipitem frameBlend="FALSE" id="clipitem-telop-1476">
						<file id="file-2"/>
						<name>なんでお前3目って言って</name>
						<rate>
							<timebase>59</timebase>
							<ntsc>TRUE</ntsc>
						</rate>
						<rate>
							<timebase>59</timebase>
							<ntsc>TRUE</ntsc>
						</rate>
						<duration>120</duration>
						<start>12472</start>
						<end>12592</end>
						<in>0</in>
						<out>120</out>
					</clipitem>
					<clipitem frameBlend="FALSE" id="clipitem-telop-1489">
						<file id="file-2"/>
						<name>なんかいいなって恨ましいなって思ったもん</name>
						<rate>
							<timebase>59</timebase>
							<ntsc>TRUE</ntsc>
						</rate>
						<rate>
							<timebase>59</timebase>
							<ntsc>TRUE</ntsc>
						</rate>
						<duration>180</duration>
						<start>12592</start>
						<end>12772</end>
						<in>0</in>
						<out>180</out>
					</clipitem>
					<clipitem frameBlend="FALSE" id="clipitem-telop-1517">
						<file id="file-2"/>
						<name>もしかしてミルクお嬢様はそういう感じの男性が好きなのですか</name>
						<rate>
							<timebase>59</timebase>
							<ntsc>TRUE</ntsc>
						</rate>
						<rate>
							<timebase>59</timebase>
							<ntsc>TRUE</ntsc>
						</rate>
						<duration>300</duration>
						<start>12772</start>
						<end>13072</end>
						<in>0</in>
						<out>300</out>
					</clipitem>
					<clipitem frameBlend="FALSE" id="clipitem-telop-1549">
						<file id="file-2"/>
						<name>えなんかでもいいなって思って</name>
						<rate>
							<timebase>59</timebase>
							<ntsc>TRUE</ntsc>
						</rate>
						<rate>
							<timebase>59</timebase>
							<ntsc>TRUE</ntsc>
						</rate>
						<duration>180</duration>
						<start>13072</start>
						<end>13252</end>
						<in>0</in>
						<out>180</out>
					</clipitem>
					<clipitem frameBlend="FALSE" id="clipitem-telop-1566">
						<file id="file-2"/>
						<name>なるほど</name>
						<rate>
							<timebase>59</timebase>
							<ntsc>TRUE</ntsc>
						</rate>
						<rate>
							<timebase>59</timebase>
							<ntsc>TRUE</ntsc>
						</rate>
						<duration>120</duration>
						<start>13252</start>
						<end>13372</end>
						<in>0</in>
						<out>120</out>
					</clipitem>
					<clipitem frameBlend="FALSE" id="clipitem-telop-1581">
						<file id="file-2"/>
						<name>私も私もこのような対応することも可能でございますよ</name>
						<rate>
							<timebase>59</timebase>
							<ntsc>TRUE</ntsc>
						</rate>
						<rate>
							<timebase>59</timebase>
							<ntsc>TRUE</ntsc>
						</rate>
						<duration>360</duration>
						<start>13372</start>
						<end>13732</end>
						<in>0</in>
						<out>360</out>
					</clipitem>
					<clipitem frameBlend="FALSE" id="clipitem-telop-1623">
						<file id="file-2"/>
						<name>もしくはあなたが望むボイスをお取りすることも可能です</name>
						<rate>
							<timebase>59</timebase>
							<ntsc>TRUE</ntsc>
						</rate>
						<rate>
							<timebase>59</timebase>
							<ntsc>TRUE</ntsc>
						</rate>
						<duration>480</duration>
						<start>13732</start>
						<end>14212</end>
						<in>0</in>
						<out>480</out>
					</clipitem>
					<clipitem frameBlend="FALSE" id="clipitem-telop-1680">
						<file id="file-2"/>
						<name>！</name>
						<rate>
							<timebase>59</timebase>
							<ntsc>TRUE</ntsc>
						</rate>
						<rate>
							<timebase>59</timebase>
							<ntsc>TRUE</ntsc>
						</rate>
						<duration>60</duration>
						<start>14212</start>
						<end>14272</end>
						<in>0</in>
						<out>60</out>
					</clipitem>
					<clipitem frameBlend="FALSE" id="clipitem-telop-1689">
						<file id="file-2"/>
						<name>なんか同様してる?</name>
						<rate>
							<timebase>59</timebase>
							<ntsc>TRUE</ntsc>
						</rate>
						<rate>
							<timebase>59</timebase>
							<ntsc>TRUE</ntsc>
						</rate>
						<duration>120</duration>
						<start>14272</start>
						<end>14392</end>
						<in>0</in>
						<out>120</out>
					</clipitem>
					<clipitem frameBlend="FALSE" id="clipitem-telop-1701">
						<file id="file-2"/>
						<name>ほんとやん</name>
						<rate>
							<timebase>59</timebase>
							<ntsc>TRUE</ntsc>
						</rate>
						<rate>
							<timebase>59</timebase>
							<ntsc>TRUE</ntsc>
						</rate>
						<duration>60</duration>
						<start>14392</start>
						<end>14452</end>
						<in>0</in>
						<out>60</out>
					</clipitem>
					<clipitem frameBlend="FALSE" id="clipitem-telop-1705">
						<file id="file-2"/>
						<name>いいいい</name>
						<rate>
							<timebase>59</timebase>
							<ntsc>TRUE</ntsc>
						</rate>
						<rate>
							<timebase>59</timebase>
							<ntsc>TRUE</ntsc>
						</rate>
						<duration>60</duration>
						<start>14452</start>
						<end>14512</end>
						<in>0</in>
						<out>60</out>
					</clipitem>
					<clipitem frameBlend="FALSE" id="clipitem-telop-1712">
						<file id="file-2"/>
						<name>出事は同様なんて全くしませんよ</name>
						<rate>
							<timebase>59</timebase>
							<ntsc>TRUE</ntsc>
						</rate>
						<rate>
							<timebase>59</timebase>
							<ntsc>TRUE</ntsc>
						</rate>
						<duration>180</duration>
						<start>14512</start>
						<end>14692</end>
						<in>0</in>
						<out>180</out>
					</clipitem>
					<clipitem frameBlend="FALSE" id="clipitem-telop-1733">
						<file id="file-2"/>
						<name>したいよねそうだよね</name>
						<rate>
							<timebase>59</timebase>
							<ntsc>TRUE</ntsc>
						</rate>
						<rate>
							<timebase>59</timebase>
							<ntsc>TRUE</ntsc>
						</rate>
						<duration>120</duration>
						<start>14692</start>
						<end>14812</end>
						<in>0</in>
						<out>120</out>
					</clipitem>
					<clipitem frameBlend="FALSE" id="clipitem-telop-1748">
						<file id="file-2"/>
						<name>！</name>
						<rate>
							<timebase>59</timebase>
							<ntsc>TRUE</ntsc>
						</rate>
						<rate>
							<timebase>59</timebase>
							<ntsc>TRUE</ntsc>
						</rate>
						<duration>60</duration>
						<start>14824</start>
						<end>14884</end>
						<in>0</in>
						<out>60</out>
					</clipitem>
					<clipitem frameBlend="FALSE" id="clipitem-telop-1750">
						<file id="file-2"/>
						<name>！</name>
						<rate>
							<timebase>59</timebase>
							<ntsc>TRUE</ntsc>
						</rate>
						<rate>
							<timebase>59</timebase>
							<ntsc>TRUE</ntsc>
						</rate>
						<duration>60</duration>
						<start>14902</start>
						<end>14962</end>
						<in>0</in>
						<out>60</out>
					</clipitem>
					<clipitem frameBlend="FALSE" id="clipitem-telop-1756">
						<file id="file-2"/>
						<name>！</name>
						<rate>
							<timebase>59</timebase>
							<ntsc>TRUE</ntsc>
						</rate>
						<rate>
							<timebase>59</timebase>
							<ntsc>TRUE</ntsc>
						</rate>
						<duration>66</duration>
						<start>14962</start>
						<end>15028</end>
						<in>0</in>
						<out>66</out>
					</clipitem>
					<clipitem frameBlend="FALSE" id="clipitem-telop-1767">
						<file id="file-2"/>
						<name>！</name>
						<rate>
							<timebase>59</timebase>
							<ntsc>TRUE</ntsc>
						</rate>
						<rate>
							<timebase>59</timebase>
							<ntsc>TRUE</ntsc>
						</rate>
						<duration>60</duration>
						<start>15040</start>
						<end>15100</end>
						<in>0</in>
						<out>60</out>
					</clipitem>
					<clipitem frameBlend="FALSE" id="clipitem-telop-1773">
						<file id="file-2"/>
						<name>！</name>
						<rate>
							<timebase>59</timebase>
							<ntsc>TRUE</ntsc>
						</rate>
						<rate>
							<timebase>59</timebase>
							<ntsc>TRUE</ntsc>
						</rate>
						<duration>60</duration>
						<start>15106</start>
						<end>15166</end>
						<in>0</in>
						<out>60</out>
					</clipitem>
					<clipitem frameBlend="FALSE" id="clipitem-telop-1780">
						<file id="file-2"/>
						<name>！</name>
						<rate>
							<timebase>59</timebase>
							<ntsc>TRUE</ntsc>
						</rate>
						<rate>
							<timebase>59</timebase>
							<ntsc>TRUE</ntsc>
						</rate>
						<duration>60</duration>
						<start>15166</start>
						<end>15226</end>
						<in>0</in>
						<out>60</out>
					</clipitem>
					<clipitem frameBlend="FALSE" id="clipitem-telop-1785">
						<file id="file-2"/>
						<name>！</name>
						<rate>
							<timebase>59</timebase>
							<ntsc>TRUE</ntsc>
						</rate>
						<rate>
							<timebase>59</timebase>
							<ntsc>TRUE</ntsc>
						</rate>
						<duration>66</duration>
						<start>15226</start>
						<end>15292</end>
						<in>0</in>
						<out>66</out>
					</clipitem>
					<clipitem frameBlend="FALSE" id="clipitem-telop-1789">
						<file id="file-2"/>
						<name>！</name>
						<rate>
							<timebase>59</timebase>
							<ntsc>TRUE</ntsc>
						</rate>
						<rate>
							<timebase>59</timebase>
							<ntsc>TRUE</ntsc>
						</rate>
						<duration>60</duration>
						<start>15292</start>
						<end>15352</end>
						<in>0</in>
						<out>60</out>
					</clipitem>
					<clipitem frameBlend="FALSE" id="clipitem-telop-1795">
						<file id="file-2"/>
						<name>！</name>
						<rate>
							<timebase>59</timebase>
							<ntsc>TRUE</ntsc>
						</rate>
						<rate>
							<timebase>59</timebase>
							<ntsc>TRUE</ntsc>
						</rate>
						<duration>60</duration>
						<start>15358</start>
						<end>15418</end>
						<in>0</in>
						<out>60</out>
					</clipitem>
					<clipitem frameBlend="FALSE" id="clipitem-telop-1807">
						<file id="file-2"/>
						<name>！</name>
						<rate>
							<timebase>59</timebase>
							<ntsc>TRUE</ntsc>
						</rate>
						<rate>
							<timebase>59</timebase>
							<ntsc>TRUE</ntsc>
						</rate>
						<duration>60</duration>
						<start>15418</start>
						<end>15478</end>
						<in>0</in>
						<out>60</out>
					</clipitem>
					<clipitem frameBlend="FALSE" id="clipitem-telop-1812">
						<file id="file-2"/>
						<name>！</name>
						<rate>
							<timebase>59</timebase>
							<ntsc>TRUE</ntsc>
						</rate>
						<rate>
							<timebase>59</timebase>
							<ntsc>TRUE</ntsc>
						</rate>
						<duration>60</duration>
						<start>15478</start>
						<end>15538</end>
						<in>0</in>
						<out>60</out>
					</clipitem>
					<clipitem frameBlend="FALSE" id="clipitem-telop-1818">
						<file id="file-2"/>
						<name>！</name>
						<rate>
							<timebase>59</timebase>
							<ntsc>TRUE</ntsc>
						</rate>
						<rate>
							<timebase>59</timebase>
							<ntsc>TRUE</ntsc>
						</rate>
						<duration>60</duration>
						<start>15550</start>
						<end>15610</end>
						<in>0</in>
						<out>60</out>
					</clipitem>
					<clipitem frameBlend="FALSE" id="clipitem-telop-1826">
						<file id="file-2"/>
						<name>！</name>
						<rate>
							<timebase>59</timebase>
							<ntsc>TRUE</ntsc>
						</rate>
						<rate>
							<timebase>59</timebase>
							<ntsc>TRUE</ntsc>
						</rate>
						<duration>60</duration>
						<start>15616</start>
						<end>15676</end>
						<in>0</in>
						<out>60</out>
					</clipitem>
					<clipitem frameBlend="FALSE" id="clipitem-telop-1832">
						<file id="file-2"/>
						<name>！</name>
						<rate>
							<timebase>59</timebase>
							<ntsc>TRUE</ntsc>
						</rate>
						<rate>
							<timebase>59</timebase>
							<ntsc>TRUE</ntsc>
						</rate>
						<duration>60</duration>
						<start>15688</start>
						<end>15748</end>
						<in>0</in>
						<out>60</out>
					</clipitem>
					<clipitem frameBlend="FALSE" id="clipitem-telop-1839">
						<file id="file-2"/>
						<name>！</name>
						<rate>
							<timebase>59</timebase>
							<ntsc>TRUE</ntsc>
						</rate>
						<rate>
							<timebase>59</timebase>
							<ntsc>TRUE</ntsc>
						</rate>
						<duration>66</duration>
						<start>15766</start>
						<end>15832</end>
						<in>0</in>
						<out>66</out>
					</clipitem>
					<clipitem frameBlend="FALSE" id="clipitem-telop-1846">
						<file id="file-2"/>
						<name>！</name>
						<rate>
							<timebase>59</timebase>
							<ntsc>TRUE</ntsc>
						</rate>
						<rate>
							<timebase>59</timebase>
							<ntsc>TRUE</ntsc>
						</rate>
						<duration>60</duration>
						<start>15838</start>
						<end>15898</end>
						<in>0</in>
						<out>60</out>
					</clipitem>
					<clipitem frameBlend="FALSE" id="clipitem-telop-1858">
						<file id="file-2"/>
						<name>！</name>
						<rate>
							<timebase>59</timebase>
							<ntsc>TRUE</ntsc>
						</rate>
						<rate>
							<timebase>59</timebase>
							<ntsc>TRUE</ntsc>
						</rate>
						<duration>60</duration>
						<start>15904</start>
						<end>15964</end>
						<in>0</in>
						<out>60</out>
					</clipitem>
					<clipitem frameBlend="FALSE" id="clipitem-telop-1865">
						<file id="file-2"/>
						<name>！</name>
						<rate>
							<timebase>59</timebase>
							<ntsc>TRUE</ntsc>
						</rate>
						<rate>
							<timebase>59</timebase>
							<ntsc>TRUE</ntsc>
						</rate>
						<duration>60</duration>
						<start>15964</start>
						<end>16024</end>
						<in>0</in>
						<out>60</out>
					</clipitem>
					<clipitem frameBlend="FALSE" id="clipitem-telop-1872">
						<file id="file-2"/>
						<name>！</name>
						<rate>
							<timebase>59</timebase>
							<ntsc>TRUE</ntsc>
						</rate>
						<rate>
							<timebase>59</timebase>
							<ntsc>TRUE</ntsc>
						</rate>
						<duration>60</duration>
						<start>16024</start>
						<end>16084</end>
						<in>0</in>
						<out>60</out>
					</clipitem>
					<clipitem frameBlend="FALSE" id="clipitem-telop-1880">
						<file id="file-2"/>
						<name>！</name>
						<rate>
							<timebase>59</timebase>
							<ntsc>TRUE</ntsc>
						</rate>
						<rate>
							<timebase>59</timebase>
							<ntsc>TRUE</ntsc>
						</rate>
						<duration>60</duration>
						<start>16084</start>
						<end>16144</end>
						<in>0</in>
						<out>60</out>
					</clipitem>
					<clipitem frameBlend="FALSE" id="clipitem-telop-1890">
						<file id="file-2"/>
						<name>！</name>
						<rate>
							<timebase>59</timebase>
							<ntsc>TRUE</ntsc>
						</rate>
						<rate>
							<timebase>59</timebase>
							<ntsc>TRUE</ntsc>
						</rate>
						<duration>60</duration>
						<start>16156</start>
						<end>16216</end>
						<in>0</in>
						<out>60</out>
					</clipitem>
					<clipitem frameBlend="FALSE" id="clipitem-telop-1897">
						<file id="file-2"/>
						<name>！</name>
						<rate>
							<timebase>59</timebase>
							<ntsc>TRUE</ntsc>
						</rate>
						<rate>
							<timebase>59</timebase>
							<ntsc>TRUE</ntsc>
						</rate>
						<duration>60</duration>
						<start>16222</start>
						<end>16282</end>
						<in>0</in>
						<out>60</out>
					</clipitem>
					<clipitem frameBlend="FALSE" id="clipitem-telop-1906">
						<file id="file-2"/>
						<name>！</name>
						<rate>
							<timebase>59</timebase>
							<ntsc>TRUE</ntsc>
						</rate>
						<rate>
							<timebase>59</timebase>
							<ntsc>TRUE</ntsc>
						</rate>
						<duration>60</duration>
						<start>16288</start>
						<end>16348</end>
						<in>0</in>
						<out>60</out>
					</clipitem>
					<clipitem frameBlend="FALSE" id="clipitem-telop-1914">
						<file id="file-2"/>
						<name>！</name>
						<rate>
							<timebase>59</timebase>
							<ntsc>TRUE</ntsc>
						</rate>
						<rate>
							<timebase>59</timebase>
							<ntsc>TRUE</ntsc>
						</rate>
						<duration>59</duration>
						<start>16360</start>
						<end>16419</end>
						<in>0</in>
						<out>59</out>
					</clipitem>
					<clipitem frameBlend="FALSE" id="clipitem-telop-1926">
						<file id="file-2"/>
						<name>！</name>
						<rate>
							<timebase>59</timebase>
							<ntsc>TRUE</ntsc>
						</rate>
						<rate>
							<timebase>59</timebase>
							<ntsc>TRUE</ntsc>
						</rate>
						<duration>66</duration>
						<start>16419</start>
						<end>16485</end>
						<in>0</in>
						<out>66</out>
					</clipitem>
					<clipitem frameBlend="FALSE" id="clipitem-telop-1933">
						<file id="file-2"/>
						<name>！</name>
						<rate>
							<timebase>59</timebase>
							<ntsc>TRUE</ntsc>
						</rate>
						<rate>
							<timebase>59</timebase>
							<ntsc>TRUE</ntsc>
						</rate>
						<duration>60</duration>
						<start>16485</start>
						<end>16545</end>
						<in>0</in>
						<out>60</out>
					</clipitem>
					<clipitem frameBlend="FALSE" id="clipitem-telop-1940">
						<file id="file-2"/>
						<name>！</name>
						<rate>
							<timebase>59</timebase>
							<ntsc>TRUE</ntsc>
						</rate>
						<rate>
							<timebase>59</timebase>
							<ntsc>TRUE</ntsc>
						</rate>
						<duration>60</duration>
						<start>16545</start>
						<end>16605</end>
						<in>0</in>
						<out>60</out>
					</clipitem>
					<clipitem frameBlend="FALSE" id="clipitem-telop-1946">
						<file id="file-2"/>
						<name>！</name>
						<rate>
							<timebase>59</timebase>
							<ntsc>TRUE</ntsc>
						</rate>
						<rate>
							<timebase>59</timebase>
							<ntsc>TRUE</ntsc>
						</rate>
						<duration>66</duration>
						<start>16605</start>
						<end>16671</end>
						<in>0</in>
						<out>66</out>
					</clipitem>
					<clipitem frameBlend="FALSE" id="clipitem-telop-1952">
						<file id="file-2"/>
						<name>もちろん私もお嬢様の幸せを寝てることでございます</name>
						<rate>
							<timebase>59</timebase>
							<ntsc>TRUE</ntsc>
						</rate>
						<rate>
							<timebase>59</timebase>
							<ntsc>TRUE</ntsc>
						</rate>
						<duration>240</duration>
						<start>16671</start>
						<end>16911</end>
						<in>0</in>
						<out>240</out>
					</clipitem>
					<clipitem frameBlend="FALSE" id="clipitem-telop-1983">
						<file id="file-2"/>
						<name>なんかな</name>
						<rate>
							<timebase>59</timebase>
							<ntsc>TRUE</ntsc>
						</rate>
						<rate>
							<timebase>59</timebase>
							<ntsc>TRUE</ntsc>
						</rate>
						<duration>60</duration>
						<start>16911</start>
						<end>16971</end>
						<in>0</in>
						<out>60</out>
					</clipitem>
					<clipitem frameBlend="FALSE" id="clipitem-telop-1987">
						<file id="file-2"/>
						<name>それであれば全然今日お話だけでもまた会いに来てくれたら嬉しいななんて</name>
						<rate>
							<timebase>59</timebase>
							<ntsc>TRUE</ntsc>
						</rate>
						<rate>
							<timebase>59</timebase>
							<ntsc>TRUE</ntsc>
						</rate>
						<duration>360</duration>
						<start>16971</start>
						<end>17331</end>
						<in>0</in>
						<out>360</out>
					</clipitem>
					<clipitem frameBlend="FALSE" id="clipitem-telop-2027">
						<file id="file-2"/>
						<name>波も思っておりますよ</name>
						<rate>
							<timebase>59</timebase>
							<ntsc>TRUE</ntsc>
						</rate>
						<rate>
							<timebase>59</timebase>
							<ntsc>TRUE</ntsc>
						</rate>
						<duration>120</duration>
						<start>17331</start>
						<end>17451</end>
						<in>0</in>
						<out>120</out>
					</clipitem>
					<clipitem frameBlend="FALSE" id="clipitem-telop-2037">
						<file id="file-2"/>
						<name>今おかわじゃさましてくださいます</name>
						<rate>
							<timebase>59</timebase>
							<ntsc>TRUE</ntsc>
						</rate>
						<rate>
							<timebase>59</timebase>
							<ntsc>TRUE</ntsc>
						</rate>
						<duration>120</duration>
						<start>17451</start>
						<end>17571</end>
						<in>0</in>
						<out>120</out>
					</clipitem>
					<clipitem frameBlend="FALSE" id="clipitem-telop-2050">
						<file id="file-2"/>
						<name>！</name>
						<rate>
							<timebase>59</timebase>
							<ntsc>TRUE</ntsc>
						</rate>
						<rate>
							<timebase>59</timebase>
							<ntsc>TRUE</ntsc>
						</rate>
						<duration>60</duration>
						<start>17571</start>
						<end>17631</end>
						<in>0</in>
						<out>60</out>
					</clipitem>
					<clipitem frameBlend="FALSE" id="clipitem-telop-2056">
						<file id="file-2"/>
						<name>！</name>
						<rate>
							<timebase>59</timebase>
							<ntsc>TRUE</ntsc>
						</rate>
						<rate>
							<timebase>59</timebase>
							<ntsc>TRUE</ntsc>
						</rate>
						<duration>60</duration>
						<start>17631</start>
						<end>17691</end>
						<in>0</in>
						<out>60</out>
					</clipitem>
					<clipitem frameBlend="FALSE" id="clipitem-telop-2060">
						<file id="file-2"/>
						<name>あった</name>
						<rate>
							<timebase>59</timebase>
							<ntsc>TRUE</ntsc>
						</rate>
						<rate>
							<timebase>59</timebase>
							<ntsc>TRUE</ntsc>
						</rate>
						<duration>60</duration>
						<start>17691</start>
						<end>17751</end>
						<in>0</in>
						<out>60</out>
					</clipitem>
					<clipitem frameBlend="FALSE" id="clipitem-telop-2066">
						<file id="file-2"/>
						<name>お嬢様</name>
						<rate>
							<timebase>59</timebase>
							<ntsc>TRUE</ntsc>
						</rate>
						<rate>
							<timebase>59</timebase>
							<ntsc>TRUE</ntsc>
						</rate>
						<duration>60</duration>
						<start>17751</start>
						<end>17811</end>
						<in>0</in>
						<out>60</out>
					</clipitem>
					<clipitem frameBlend="FALSE" id="clipitem-telop-2075">
						<file id="file-2"/>
						<name>！</name>
						<rate>
							<timebase>59</timebase>
							<ntsc>TRUE</ntsc>
						</rate>
						<rate>
							<timebase>59</timebase>
							<ntsc>TRUE</ntsc>
						</rate>
						<duration>60</duration>
						<start>17853</start>
						<end>17913</end>
						<in>0</in>
						<out>60</out>
					</clipitem>
					<clipitem frameBlend="FALSE" id="clipitem-telop-2083">
						<file id="file-2"/>
						<name>！</name>
						<rate>
							<timebase>59</timebase>
							<ntsc>TRUE</ntsc>
						</rate>
						<rate>
							<timebase>59</timebase>
							<ntsc>TRUE</ntsc>
						</rate>
						<duration>60</duration>
						<start>17925</start>
						<end>17985</end>
						<in>0</in>
						<out>60</out>
					</clipitem>
					<clipitem frameBlend="FALSE" id="clipitem-telop-2094">
						<file id="file-2"/>
						<name>ありがとう</name>
						<rate>
							<timebase>59</timebase>
							<ntsc>TRUE</ntsc>
						</rate>
						<rate>
							<timebase>59</timebase>
							<ntsc>TRUE</ntsc>
						</rate>
						<duration>60</duration>
						<start>17991</start>
						<end>18051</end>
						<in>0</in>
						<out>60</out>
					</clipitem>
					<clipitem frameBlend="FALSE" id="clipitem-telop-2100">
						<file id="file-2"/>
						<name>ちょっとあ、ちゃんちちしました</name>
						<rate>
							<timebase>59</timebase>
							<ntsc>TRUE</ntsc>
						</rate>
						<rate>
							<timebase>59</timebase>
							<ntsc>TRUE</ntsc>
						</rate>
						<duration>120</duration>
						<start>18051</start>
						<end>18171</end>
						<in>0</in>
						<out>120</out>
					</clipitem>
					<clipitem frameBlend="FALSE" id="clipitem-telop-2115">
						<file id="file-2"/>
						<name>！</name>
						<rate>
							<timebase>59</timebase>
							<ntsc>TRUE</ntsc>
						</rate>
						<rate>
							<timebase>59</timebase>
							<ntsc>TRUE</ntsc>
						</rate>
						<duration>60</duration>
						<start>18171</start>
						<end>18231</end>
						<in>0</in>
						<out>60</out>
					</clipitem>
					<clipitem frameBlend="FALSE" id="clipitem-telop-2124">
						<file id="file-2"/>
						<name>！</name>
						<rate>
							<timebase>59</timebase>
							<ntsc>TRUE</ntsc>
						</rate>
						<rate>
							<timebase>59</timebase>
							<ntsc>TRUE</ntsc>
						</rate>
						<duration>60</duration>
						<start>18237</start>
						<end>18297</end>
						<in>0</in>
						<out>60</out>
					</clipitem>
					<clipitem frameBlend="FALSE" id="clipitem-telop-2129">
						<file id="file-2"/>
						<name>！</name>
						<rate>
							<timebase>59</timebase>
							<ntsc>TRUE</ntsc>
						</rate>
						<rate>
							<timebase>59</timebase>
							<ntsc>TRUE</ntsc>
						</rate>
						<duration>60</duration>
						<start>18339</start>
						<end>18399</end>
						<in>0</in>
						<out>60</out>
					</clipitem>
					<clipitem frameBlend="FALSE" id="clipitem-telop-2136">
						<file id="file-2"/>
						<name>！</name>
						<rate>
							<timebase>59</timebase>
							<ntsc>TRUE</ntsc>
						</rate>
						<rate>
							<timebase>59</timebase>
							<ntsc>TRUE</ntsc>
						</rate>
						<duration>60</duration>
						<start>18399</start>
						<end>18459</end>
						<in>0</in>
						<out>60</out>
					</clipitem>
					<clipitem frameBlend="FALSE" id="clipitem-telop-2141">
						<file id="file-2"/>
						<name>！</name>
						<rate>
							<timebase>59</timebase>
							<ntsc>TRUE</ntsc>
						</rate>
						<rate>
							<timebase>59</timebase>
							<ntsc>TRUE</ntsc>
						</rate>
						<duration>60</duration>
						<start>18465</start>
						<end>18525</end>
						<in>0</in>
						<out>60</out>
					</clipitem>
					<clipitem frameBlend="FALSE" id="clipitem-telop-2147">
						<file id="file-2"/>
						<name>いくらでも</name>
						<rate>
							<timebase>59</timebase>
							<ntsc>TRUE</ntsc>
						</rate>
						<rate>
							<timebase>59</timebase>
							<ntsc>TRUE</ntsc>
						</rate>
						<duration>120</duration>
						<start>18531</start>
						<end>18651</end>
						<in>0</in>
						<out>120</out>
					</clipitem>
					<clipitem frameBlend="FALSE" id="clipitem-telop-2163">
						<file id="file-2"/>
						<name>さっきのような顔を</name>
						<rate>
							<timebase>59</timebase>
							<ntsc>TRUE</ntsc>
						</rate>
						<rate>
							<timebase>59</timebase>
							<ntsc>TRUE</ntsc>
						</rate>
						<duration>180</duration>
						<start>18651</start>
						<end>18831</end>
						<in>0</in>
						<out>180</out>
					</clipitem>
					<clipitem frameBlend="FALSE" id="clipitem-telop-2178">
						<file id="file-2"/>
						<name>！</name>
						<rate>
							<timebase>59</timebase>
							<ntsc>TRUE</ntsc>
						</rate>
						<rate>
							<timebase>59</timebase>
							<ntsc>TRUE</ntsc>
						</rate>
						<duration>60</duration>
						<start>18837</start>
						<end>18897</end>
						<in>0</in>
						<out>60</out>
					</clipitem>
					<clipitem frameBlend="FALSE" id="clipitem-telop-2181">
						<file id="file-2"/>
						<name>！</name>
						<rate>
							<timebase>59</timebase>
							<ntsc>TRUE</ntsc>
						</rate>
						<rate>
							<timebase>59</timebase>
							<ntsc>TRUE</ntsc>
						</rate>
						<duration>60</duration>
						<start>18909</start>
						<end>18969</end>
						<in>0</in>
						<out>60</out>
					</clipitem>
					<clipitem frameBlend="FALSE" id="clipitem-telop-2185">
						<file id="file-2"/>
						<name>！</name>
						<rate>
							<timebase>59</timebase>
							<ntsc>TRUE</ntsc>
						</rate>
						<rate>
							<timebase>59</timebase>
							<ntsc>TRUE</ntsc>
						</rate>
						<duration>60</duration>
						<start>19005</start>
						<end>19065</end>
						<in>0</in>
						<out>60</out>
					</clipitem>
					<clipitem frameBlend="FALSE" id="clipitem-telop-2197">
						<file id="file-2"/>
						<name>何回も言う</name>
						<rate>
							<timebase>59</timebase>
							<ntsc>TRUE</ntsc>
						</rate>
						<rate>
							<timebase>59</timebase>
							<ntsc>TRUE</ntsc>
						</rate>
						<duration>60</duration>
						<start>19071</start>
						<end>19131</end>
						<in>0</in>
						<out>60</out>
					</clipitem>
					<clipitem frameBlend="FALSE" id="clipitem-telop-2205">
						<file id="file-2"/>
						<name>！</name>
						<rate>
							<timebase>59</timebase>
							<ntsc>TRUE</ntsc>
						</rate>
						<rate>
							<timebase>59</timebase>
							<ntsc>TRUE</ntsc>
						</rate>
						<duration>60</duration>
						<start>19137</start>
						<end>19197</end>
						<in>0</in>
						<out>60</out>
					</clipitem>
					<clipitem frameBlend="FALSE" id="clipitem-telop-2211">
						<file id="file-2"/>
						<name>！</name>
						<rate>
							<timebase>59</timebase>
							<ntsc>TRUE</ntsc>
						</rate>
						<rate>
							<timebase>59</timebase>
							<ntsc>TRUE</ntsc>
						</rate>
						<duration>66</duration>
						<start>19227</start>
						<end>19293</end>
						<in>0</in>
						<out>66</out>
					</clipitem>
					<clipitem frameBlend="FALSE" id="clipitem-telop-2215">
						<file id="file-2"/>
						<name>！</name>
						<rate>
							<timebase>59</timebase>
							<ntsc>TRUE</ntsc>
						</rate>
						<rate>
							<timebase>59</timebase>
							<ntsc>TRUE</ntsc>
						</rate>
						<duration>60</duration>
						<start>19293</start>
						<end>19353</end>
						<in>0</in>
						<out>60</out>
					</clipitem>
					<clipitem frameBlend="FALSE" id="clipitem-telop-2228">
						<file id="file-2"/>
						<name>w</name>
						<rate>
							<timebase>59</timebase>
							<ntsc>TRUE</ntsc>
						</rate>
						<rate>
							<timebase>59</timebase>
							<ntsc>TRUE</ntsc>
						</rate>
						<duration>30</duration>
						<start>19359</start>
						<end>19389</end>
						<in>0</in>
						<out>30</out>
					</clipitem>
					<clipitem frameBlend="FALSE" id="clipitem-telop-2234">
						<file id="file-2"/>
						<name>！</name>
						<rate>
							<timebase>59</timebase>
							<ntsc>TRUE</ntsc>
						</rate>
						<rate>
							<timebase>59</timebase>
							<ntsc>TRUE</ntsc>
						</rate>
						<duration>60</duration>
						<start>19395</start>
						<end>19455</end>
						<in>0</in>
						<out>60</out>
					</clipitem>
					<clipitem frameBlend="FALSE" id="clipitem-telop-2241">
						<file id="file-2"/>
						<name>！</name>
						<rate>
							<timebase>59</timebase>
							<ntsc>TRUE</ntsc>
						</rate>
						<rate>
							<timebase>59</timebase>
							<ntsc>TRUE</ntsc>
						</rate>
						<duration>60</duration>
						<start>19467</start>
						<end>19527</end>
						<in>0</in>
						<out>60</out>
					</clipitem>
					<clipitem frameBlend="FALSE" id="clipitem-telop-2250">
						<file id="file-2"/>
						<name>！</name>
						<rate>
							<timebase>59</timebase>
							<ntsc>TRUE</ntsc>
						</rate>
						<rate>
							<timebase>59</timebase>
							<ntsc>TRUE</ntsc>
						</rate>
						<duration>60</duration>
						<start>19527</start>
						<end>19587</end>
						<in>0</in>
						<out>60</out>
					</clipitem>
					<clipitem frameBlend="FALSE" id="clipitem-telop-2255">
						<file id="file-2"/>
						<name>！</name>
						<rate>
							<timebase>59</timebase>
							<ntsc>TRUE</ntsc>
						</rate>
						<rate>
							<timebase>59</timebase>
							<ntsc>TRUE</ntsc>
						</rate>
						<duration>66</duration>
						<start>19593</start>
						<end>19659</end>
						<in>0</in>
						<out>66</out>
					</clipitem>
					<clipitem frameBlend="FALSE" id="clipitem-telop-2267">
						<file id="file-2"/>
						<name>！</name>
						<rate>
							<timebase>59</timebase>
							<ntsc>TRUE</ntsc>
						</rate>
						<rate>
							<timebase>59</timebase>
							<ntsc>TRUE</ntsc>
						</rate>
						<duration>60</duration>
						<start>19665</start>
						<end>19725</end>
						<in>0</in>
						<out>60</out>
					</clipitem>
					<clipitem frameBlend="FALSE" id="clipitem-telop-2274">
						<file id="file-2"/>
						<name>！</name>
						<rate>
							<timebase>59</timebase>
							<ntsc>TRUE</ntsc>
						</rate>
						<rate>
							<timebase>59</timebase>
							<ntsc>TRUE</ntsc>
						</rate>
						<duration>60</duration>
						<start>19725</start>
						<end>19785</end>
						<in>0</in>
						<out>60</out>
					</clipitem>
					<clipitem frameBlend="FALSE" id="clipitem-telop-2279">
						<file id="file-2"/>
						<name>素敵ですねお嬢様は全く</name>
						<rate>
							<timebase>59</timebase>
							<ntsc>TRUE</ntsc>
						</rate>
						<rate>
							<timebase>59</timebase>
							<ntsc>TRUE</ntsc>
						</rate>
						<duration>120</duration>
						<start>19791</start>
						<end>19911</end>
						<in>0</in>
						<out>120</out>
					</clipitem>
					<clipitem frameBlend="FALSE" id="clipitem-telop-2296">
						<file id="file-2"/>
						<name>そうだよね</name>
						<rate>
							<timebase>59</timebase>
							<ntsc>TRUE</ntsc>
						</rate>
						<rate>
							<timebase>59</timebase>
							<ntsc>TRUE</ntsc>
						</rate>
						<duration>60</duration>
						<start>19911</start>
						<end>19971</end>
						<in>0</in>
						<out>60</out>
					</clipitem>
					<clipitem frameBlend="FALSE" id="clipitem-telop-2304">
						<file id="file-2"/>
						<name>こう待ってお嬢様だ</name>
						<rate>
							<timebase>59</timebase>
							<ntsc>TRUE</ntsc>
						</rate>
						<rate>
							<timebase>59</timebase>
							<ntsc>TRUE</ntsc>
						</rate>
						<duration>120</duration>
						<start>19971</start>
						<end>20091</end>
						<in>0</in>
						<out>120</out>
					</clipitem>
					<clipitem frameBlend="FALSE" id="clipitem-telop-2317">
						<file id="file-2"/>
						<name>両方</name>
						<rate>
							<timebase>59</timebase>
							<ntsc>TRUE</ntsc>
						</rate>
						<rate>
							<timebase>59</timebase>
							<ntsc>TRUE</ntsc>
						</rate>
						<duration>60</duration>
						<start>20091</start>
						<end>20151</end>
						<in>0</in>
						<out>60</out>
					</clipitem>
					<clipitem frameBlend="FALSE" id="clipitem-telop-2325">
						<file id="file-2"/>
						<name>！</name>
						<rate>
							<timebase>59</timebase>
							<ntsc>TRUE</ntsc>
						</rate>
						<rate>
							<timebase>59</timebase>
							<ntsc>TRUE</ntsc>
						</rate>
						<duration>60</duration>
						<start>20151</start>
						<end>20211</end>
						<in>0</in>
						<out>60</out>
					</clipitem>
					<clipitem frameBlend="FALSE" id="clipitem-telop-2330">
						<file id="file-2"/>
						<name>その首は</name>
						<rate>
							<timebase>59</timebase>
							<ntsc>TRUE</ntsc>
						</rate>
						<rate>
							<timebase>59</timebase>
							<ntsc>TRUE</ntsc>
						</rate>
						<duration>60</duration>
						<start>20211</start>
						<end>20271</end>
						<in>0</in>
						<out>60</out>
					</clipitem>
					<clipitem frameBlend="FALSE" id="clipitem-telop-2341">
						<file id="file-2"/>
						<name>今私が</name>
						<rate>
							<timebase>59</timebase>
							<ntsc>TRUE</ntsc>
						</rate>
						<rate>
							<timebase>59</timebase>
							<ntsc>TRUE</ntsc>
						</rate>
						<duration>120</duration>
						<start>20271</start>
						<end>20391</end>
						<in>0</in>
						<out>120</out>
					</clipitem>
					<clipitem frameBlend="FALSE" id="clipitem-telop-2356">
						<file id="file-2"/>
						<name>お前が背負いろし</name>
						<rate>
							<timebase>59</timebase>
							<ntsc>TRUE</ntsc>
						</rate>
						<rate>
							<timebase>59</timebase>
							<ntsc>TRUE</ntsc>
						</rate>
						<duration>60</duration>
						<start>20391</start>
						<end>20451</end>
						<in>0</in>
						<out>60</out>
					</clipitem>
					<clipitem frameBlend="FALSE" id="clipitem-telop-2368">
						<file id="file-2"/>
						<name>お前、ちょっと上手くできるのか?</name>
						<rate>
							<timebase>59</timebase>
							<ntsc>TRUE</ntsc>
						</rate>
						<rate>
							<timebase>59</timebase>
							<ntsc>TRUE</ntsc>
						</rate>
						<duration>120</duration>
						<start>20451</start>
						<end>20571</end>
						<in>0</in>
						<out>120</out>
					</clipitem>
					<clipitem frameBlend="FALSE" id="clipitem-telop-2381">
						<file id="file-2"/>
						<name>そうかよ</name>
						<rate>
							<timebase>59</timebase>
							<ntsc>TRUE</ntsc>
						</rate>
						<rate>
							<timebase>59</timebase>
							<ntsc>TRUE</ntsc>
						</rate>
						<duration>60</duration>
						<start>20571</start>
						<end>20631</end>
						<in>0</in>
						<out>60</out>
					</clipitem>
					<clipitem frameBlend="FALSE" id="clipitem-telop-2386">
						<file id="file-2"/>
						<name>！</name>
						<rate>
							<timebase>59</timebase>
							<ntsc>TRUE</ntsc>
						</rate>
						<rate>
							<timebase>59</timebase>
							<ntsc>TRUE</ntsc>
						</rate>
						<duration>66</duration>
						<start>20643</start>
						<end>20709</end>
						<in>0</in>
						<out>66</out>
					</clipitem>
					<clipitem frameBlend="FALSE" id="clipitem-telop-2393">
						<file id="file-2"/>
						<name>！</name>
						<rate>
							<timebase>59</timebase>
							<ntsc>TRUE</ntsc>
						</rate>
						<rate>
							<timebase>59</timebase>
							<ntsc>TRUE</ntsc>
						</rate>
						<duration>60</duration>
						<start>20715</start>
						<end>20775</end>
						<in>0</in>
						<out>60</out>
					</clipitem>
					<clipitem frameBlend="FALSE" id="clipitem-telop-2399">
						<file id="file-2"/>
						<name>！</name>
						<rate>
							<timebase>59</timebase>
							<ntsc>TRUE</ntsc>
						</rate>
						<rate>
							<timebase>59</timebase>
							<ntsc>TRUE</ntsc>
						</rate>
						<duration>60</duration>
						<start>20781</start>
						<end>20841</end>
						<in>0</in>
						<out>60</out>
					</clipitem>
					<clipitem frameBlend="FALSE" id="clipitem-telop-2408">
						<file id="file-2"/>
						<name>！</name>
						<rate>
							<timebase>59</timebase>
							<ntsc>TRUE</ntsc>
						</rate>
						<rate>
							<timebase>59</timebase>
							<ntsc>TRUE</ntsc>
						</rate>
						<duration>60</duration>
						<start>20853</start>
						<end>20913</end>
						<in>0</in>
						<out>60</out>
					</clipitem>
					<clipitem frameBlend="FALSE" id="clipitem-telop-2413">
						<file id="file-2"/>
						<name>！</name>
						<rate>
							<timebase>59</timebase>
							<ntsc>TRUE</ntsc>
						</rate>
						<rate>
							<timebase>59</timebase>
							<ntsc>TRUE</ntsc>
						</rate>
						<duration>60</duration>
						<start>20925</start>
						<end>20985</end>
						<in>0</in>
						<out>60</out>
					</clipitem>
					<clipitem frameBlend="FALSE" id="clipitem-telop-2423">
						<file id="file-2"/>
						<name>ちょっとだけ</name>
						<rate>
							<timebase>59</timebase>
							<ntsc>TRUE</ntsc>
						</rate>
						<rate>
							<timebase>59</timebase>
							<ntsc>TRUE</ntsc>
						</rate>
						<duration>60</duration>
						<start>20991</start>
						<end>21051</end>
						<in>0</in>
						<out>60</out>
					</clipitem>
					<clipitem frameBlend="FALSE" id="clipitem-telop-2433">
						<file id="file-2"/>
						<name>ちょっとだけ待ちなさい</name>
						<rate>
							<timebase>59</timebase>
							<ntsc>TRUE</ntsc>
						</rate>
						<rate>
							<timebase>59</timebase>
							<ntsc>TRUE</ntsc>
						</rate>
						<duration>60</duration>
						<start>21051</start>
						<end>21111</end>
						<in>0</in>
						<out>60</out>
					</clipitem>
					<clipitem frameBlend="FALSE" id="clipitem-telop-2449">
						<file id="file-2"/>
						<name>え、行っちゃうの?</name>
						<rate>
							<timebase>59</timebase>
							<ntsc>TRUE</ntsc>
						</rate>
						<rate>
							<timebase>59</timebase>
							<ntsc>TRUE</ntsc>
						</rate>
						<duration>60</duration>
						<start>21111</start>
						<end>21171</end>
						<in>0</in>
						<out>60</out>
					</clipitem>
					<clipitem frameBlend="FALSE" id="clipitem-telop-2459">
						<file id="file-2"/>
						<name>ちょっとだけ待ちなさい</name>
						<rate>
							<timebase>59</timebase>
							<ntsc>TRUE</ntsc>
						</rate>
						<rate>
							<timebase>59</timebase>
							<ntsc>TRUE</ntsc>
						</rate>
						<duration>60</duration>
						<start>21171</start>
						<end>21231</end>
						<in>0</in>
						<out>60</out>
					</clipitem>
					<clipitem frameBlend="FALSE" id="clipitem-telop-2470">
						<file id="file-2"/>
						<name>まあ全然行っても</name>
						<rate>
							<timebase>59</timebase>
							<ntsc>TRUE</ntsc>
						</rate>
						<rate>
							<timebase>59</timebase>
							<ntsc>TRUE</ntsc>
						</rate>
						<duration>120</duration>
						<start>21231</start>
						<end>21351</end>
						<in>0</in>
						<out>120</out>
					</clipitem>
					<clipitem frameBlend="FALSE" id="clipitem-telop-2491">
						<file id="file-2"/>
						<name>行ってもいいよ全然</name>
						<rate>
							<timebase>59</timebase>
							<ntsc>TRUE</ntsc>
						</rate>
						<rate>
							<timebase>59</timebase>
							<ntsc>TRUE</ntsc>
						</rate>
						<duration>60</duration>
						<start>21351</start>
						<end>21411</end>
						<in>0</in>
						<out>60</out>
					</clipitem>
					<clipitem frameBlend="FALSE" id="clipitem-telop-2499">
						<file id="file-2"/>
						<name>もちろん私はミルクお嬢様のおそばに</name>
						<rate>
							<timebase>59</timebase>
							<ntsc>TRUE</ntsc>
						</rate>
						<rate>
							<timebase>59</timebase>
							<ntsc>TRUE</ntsc>
						</rate>
						<duration>180</duration>
						<start>21411</start>
						<end>21591</end>
						<in>0</in>
						<out>180</out>
					</clipitem>
					<clipitem frameBlend="FALSE" id="clipitem-telop-2527">
						<file id="file-2"/>
						<name>いや、ミルクお嬢様の首を出話しません</name>
						<rate>
							<timebase>59</timebase>
							<ntsc>TRUE</ntsc>
						</rate>
						<rate>
							<timebase>59</timebase>
							<ntsc>TRUE</ntsc>
						</rate>
						<duration>240</duration>
						<start>21591</start>
						<end>21831</end>
						<in>0</in>
						<out>240</out>
					</clipitem>
					<clipitem frameBlend="FALSE" id="clipitem-telop-2565">
						<file id="file-2"/>
						<name>うん</name>
						<rate>
							<timebase>59</timebase>
							<ntsc>TRUE</ntsc>
						</rate>
						<rate>
							<timebase>59</timebase>
							<ntsc>TRUE</ntsc>
						</rate>
						<duration>60</duration>
						<start>21831</start>
						<end>21891</end>
						<in>0</in>
						<out>60</out>
					</clipitem>
					<clipitem frameBlend="FALSE" id="clipitem-telop-2576">
						<file id="file-2"/>
						<name>当たり前しちゃいました</name>
						<rate>
							<timebase>59</timebase>
							<ntsc>TRUE</ntsc>
						</rate>
						<rate>
							<timebase>59</timebase>
							<ntsc>TRUE</ntsc>
						</rate>
						<duration>120</duration>
						<start>21891</start>
						<end>22011</end>
						<in>0</in>
						<out>120</out>
					</clipitem>
					<clipitem frameBlend="FALSE" id="clipitem-telop-2591">
						<file id="file-2"/>
						<name>！</name>
						<rate>
							<timebase>59</timebase>
							<ntsc>TRUE</ntsc>
						</rate>
						<rate>
							<timebase>59</timebase>
							<ntsc>TRUE</ntsc>
						</rate>
						<duration>60</duration>
						<start>22011</start>
						<end>22071</end>
						<in>0</in>
						<out>60</out>
					</clipitem>
					<clipitem frameBlend="FALSE" id="clipitem-telop-2600">
						<file id="file-2"/>
						<name>まあでも他の人呼んでるんだったら</name>
						<rate>
							<timebase>59</timebase>
							<ntsc>TRUE</ntsc>
						</rate>
						<rate>
							<timebase>59</timebase>
							<ntsc>TRUE</ntsc>
						</rate>
						<duration>120</duration>
						<start>22071</start>
						<end>22191</end>
						<in>0</in>
						<out>120</out>
					</clipitem>
					<clipitem frameBlend="FALSE" id="clipitem-telop-2623">
						<file id="file-2"/>
						<name>ミルク待ってるから行ってきていいよ</name>
						<rate>
							<timebase>59</timebase>
							<ntsc>TRUE</ntsc>
						</rate>
						<rate>
							<timebase>59</timebase>
							<ntsc>TRUE</ntsc>
						</rate>
						<duration>120</duration>
						<start>22191</start>
						<end>22311</end>
						<in>0</in>
						<out>120</out>
					</clipitem>
					<clipitem frameBlend="FALSE" id="clipitem-telop-2639">
						<file id="file-2"/>
						<name>お嬢様、待てができるんですか?</name>
						<rate>
							<timebase>59</timebase>
							<ntsc>TRUE</ntsc>
						</rate>
						<rate>
							<timebase>59</timebase>
							<ntsc>TRUE</ntsc>
						</rate>
						<duration>120</duration>
						<start>22311</start>
						<end>22431</end>
						<in>0</in>
						<out>120</out>
					</clipitem>
					<clipitem frameBlend="FALSE" id="clipitem-telop-2650">
						<file id="file-2"/>
						<name>そうなんだか</name>
						<rate>
							<timebase>59</timebase>
							<ntsc>TRUE</ntsc>
						</rate>
						<rate>
							<timebase>59</timebase>
							<ntsc>TRUE</ntsc>
						</rate>
						<duration>60</duration>
						<start>22431</start>
						<end>22491</end>
						<in>0</in>
						<out>60</out>
					</clipitem>
					<clipitem frameBlend="FALSE" id="clipitem-telop-2663">
						<file id="file-2"/>
						<name>好き好き</name>
						<rate>
							<timebase>59</timebase>
							<ntsc>TRUE</ntsc>
						</rate>
						<rate>
							<timebase>59</timebase>
							<ntsc>TRUE</ntsc>
						</rate>
						<duration>60</duration>
						<start>22491</start>
						<end>22551</end>
						<in>0</in>
						<out>60</out>
					</clipitem>
					<clipitem frameBlend="FALSE" id="clipitem-telop-2668">
						<file id="file-2"/>
						<name>！</name>
						<rate>
							<timebase>59</timebase>
							<ntsc>TRUE</ntsc>
						</rate>
						<rate>
							<timebase>59</timebase>
							<ntsc>TRUE</ntsc>
						</rate>
						<duration>60</duration>
						<start>22563</start>
						<end>22623</end>
						<in>0</in>
						<out>60</out>
					</clipitem>
					<clipitem frameBlend="FALSE" id="clipitem-telop-2678">
						<file id="file-2"/>
						<name>！</name>
						<rate>
							<timebase>59</timebase>
							<ntsc>TRUE</ntsc>
						</rate>
						<rate>
							<timebase>59</timebase>
							<ntsc>TRUE</ntsc>
						</rate>
						<duration>66</duration>
						<start>22635</start>
						<end>22701</end>
						<in>0</in>
						<out>66</out>
					</clipitem>
					<clipitem frameBlend="FALSE" id="clipitem-telop-2686">
						<file id="file-2"/>
						<name>！</name>
						<rate>
							<timebase>59</timebase>
							<ntsc>TRUE</ntsc>
						</rate>
						<rate>
							<timebase>59</timebase>
							<ntsc>TRUE</ntsc>
						</rate>
						<duration>60</duration>
						<start>22701</start>
						<end>22761</end>
						<in>0</in>
						<out>60</out>
					</clipitem>
					<clipitem frameBlend="FALSE" id="clipitem-telop-2696">
						<file id="file-2"/>
						<name>！</name>
						<rate>
							<timebase>59</timebase>
							<ntsc>TRUE</ntsc>
						</rate>
						<rate>
							<timebase>59</timebase>
							<ntsc>TRUE</ntsc>
						</rate>
						<duration>60</duration>
						<start>22761</start>
						<end>22821</end>
						<in>0</in>
						<out>60</out>
					</clipitem>
					<clipitem frameBlend="FALSE" id="clipitem-telop-2703">
						<file id="file-2"/>
						<name>！</name>
						<rate>
							<timebase>59</timebase>
							<ntsc>TRUE</ntsc>
						</rate>
						<rate>
							<timebase>59</timebase>
							<ntsc>TRUE</ntsc>
						</rate>
						<duration>60</duration>
						<start>22827</start>
						<end>22887</end>
						<in>0</in>
						<out>60</out>
					</clipitem>
					<clipitem frameBlend="FALSE" id="clipitem-telop-2710">
						<file id="file-2"/>
						<name>！</name>
						<rate>
							<timebase>59</timebase>
							<ntsc>TRUE</ntsc>
						</rate>
						<rate>
							<timebase>59</timebase>
							<ntsc>TRUE</ntsc>
						</rate>
						<duration>60</duration>
						<start>22893</start>
						<end>22953</end>
						<in>0</in>
						<out>60</out>
					</clipitem>
					<clipitem frameBlend="FALSE" id="clipitem-telop-2720">
						<file id="file-2"/>
						<name>！</name>
						<rate>
							<timebase>59</timebase>
							<ntsc>TRUE</ntsc>
						</rate>
						<rate>
							<timebase>59</timebase>
							<ntsc>TRUE</ntsc>
						</rate>
						<duration>60</duration>
						<start>22959</start>
						<end>23019</end>
						<in>0</in>
						<out>60</out>
					</clipitem>
					<clipitem frameBlend="FALSE" id="clipitem-telop-2729">
						<file id="file-2"/>
						<name>！</name>
						<rate>
							<timebase>59</timebase>
							<ntsc>TRUE</ntsc>
						</rate>
						<rate>
							<timebase>59</timebase>
							<ntsc>TRUE</ntsc>
						</rate>
						<duration>60</duration>
						<start>23025</start>
						<end>23085</end>
						<in>0</in>
						<out>60</out>
					</clipitem>
					<clipitem frameBlend="FALSE" id="clipitem-telop-2735">
						<file id="file-2"/>
						<name>！</name>
						<rate>
							<timebase>59</timebase>
							<ntsc>TRUE</ntsc>
						</rate>
						<rate>
							<timebase>59</timebase>
							<ntsc>TRUE</ntsc>
						</rate>
						<duration>60</duration>
						<start>23085</start>
						<end>23145</end>
						<in>0</in>
						<out>60</out>
					</clipitem>
					<clipitem frameBlend="FALSE" id="clipitem-telop-2744">
						<file id="file-2"/>
						<name>！</name>
						<rate>
							<timebase>59</timebase>
							<ntsc>TRUE</ntsc>
						</rate>
						<rate>
							<timebase>59</timebase>
							<ntsc>TRUE</ntsc>
						</rate>
						<duration>60</duration>
						<start>23145</start>
						<end>23205</end>
						<in>0</in>
						<out>60</out>
					</clipitem>
					<clipitem frameBlend="FALSE" id="clipitem-telop-2751">
						<file id="file-2"/>
						<name>！</name>
						<rate>
							<timebase>59</timebase>
							<ntsc>TRUE</ntsc>
						</rate>
						<rate>
							<timebase>59</timebase>
							<ntsc>TRUE</ntsc>
						</rate>
						<duration>66</duration>
						<start>23205</start>
						<end>23271</end>
						<in>0</in>
						<out>66</out>
					</clipitem>
					<clipitem frameBlend="FALSE" id="clipitem-telop-2761">
						<file id="file-2"/>
						<name>！</name>
						<rate>
							<timebase>59</timebase>
							<ntsc>TRUE</ntsc>
						</rate>
						<rate>
							<timebase>59</timebase>
							<ntsc>TRUE</ntsc>
						</rate>
						<duration>60</duration>
						<start>23271</start>
						<end>23331</end>
						<in>0</in>
						<out>60</out>
					</clipitem>
					<clipitem frameBlend="FALSE" id="clipitem-telop-2769">
						<file id="file-2"/>
						<name>待ってるね</name>
						<rate>
							<timebase>59</timebase>
							<ntsc>TRUE</ntsc>
						</rate>
						<rate>
							<timebase>59</timebase>
							<ntsc>TRUE</ntsc>
						</rate>
						<duration>60</duration>
						<start>23331</start>
						<end>23391</end>
						<in>0</in>
						<out>60</out>
					</clipitem>
					<clipitem frameBlend="FALSE" id="clipitem-telop-2780">
						<file id="file-2"/>
						<name>うん、待ってる、泣いてらっしゃい</name>
						<rate>
							<timebase>59</timebase>
							<ntsc>TRUE</ntsc>
						</rate>
						<rate>
							<timebase>59</timebase>
							<ntsc>TRUE</ntsc>
						</rate>
						<duration>120</duration>
						<start>23391</start>
						<end>23511</end>
						<in>0</in>
						<out>120</out>
					</clipitem>
					<clipitem frameBlend="FALSE" id="clipitem-telop-2797">
						<file id="file-2"/>
						<name>！</name>
						<rate>
							<timebase>59</timebase>
							<ntsc>TRUE</ntsc>
						</rate>
						<rate>
							<timebase>59</timebase>
							<ntsc>TRUE</ntsc>
						</rate>
						<duration>60</duration>
						<start>23511</start>
						<end>23571</end>
						<in>0</in>
						<out>60</out>
					</clipitem>
					<clipitem frameBlend="FALSE" id="clipitem-telop-2804">
						<file id="file-2"/>
						<name>！</name>
						<rate>
							<timebase>59</timebase>
							<ntsc>TRUE</ntsc>
						</rate>
						<rate>
							<timebase>59</timebase>
							<ntsc>TRUE</ntsc>
						</rate>
						<duration>60</duration>
						<start>23583</start>
						<end>23643</end>
						<in>0</in>
						<out>60</out>
					</clipitem>
					<clipitem frameBlend="FALSE" id="clipitem-telop-2811">
						<file id="file-2"/>
						<name>！</name>
						<rate>
							<timebase>59</timebase>
							<ntsc>TRUE</ntsc>
						</rate>
						<rate>
							<timebase>59</timebase>
							<ntsc>TRUE</ntsc>
						</rate>
						<duration>60</duration>
						<start>23643</start>
						<end>23703</end>
						<in>0</in>
						<out>60</out>
					</clipitem>
					<clipitem frameBlend="FALSE" id="clipitem-telop-2820">
						<file id="file-2"/>
						<name>！</name>
						<rate>
							<timebase>59</timebase>
							<ntsc>TRUE</ntsc>
						</rate>
						<rate>
							<timebase>59</timebase>
							<ntsc>TRUE</ntsc>
						</rate>
						<duration>60</duration>
						<start>23709</start>
						<end>23769</end>
						<in>0</in>
						<out>60</out>
					</clipitem>
					<clipitem frameBlend="FALSE" id="clipitem-telop-2831">
						<file id="file-2"/>
						<name>w</name>
						<rate>
							<timebase>59</timebase>
							<ntsc>TRUE</ntsc>
						</rate>
						<rate>
							<timebase>59</timebase>
							<ntsc>TRUE</ntsc>
						</rate>
						<duration>30</duration>
						<start>23775</start>
						<end>23805</end>
						<in>0</in>
						<out>30</out>
					</clipitem>
					<clipitem frameBlend="FALSE" id="clipitem-telop-2837">
						<file id="file-2"/>
						<name>w</name>
						<rate>
							<timebase>59</timebase>
							<ntsc>TRUE</ntsc>
						</rate>
						<rate>
							<timebase>59</timebase>
							<ntsc>TRUE</ntsc>
						</rate>
						<duration>24</duration>
						<start>23805</start>
						<end>23829</end>
						<in>0</in>
						<out>24</out>
					</clipitem>
					<clipitem frameBlend="FALSE" id="clipitem-telop-2842">
						<file id="file-2"/>
						<name>！</name>
						<rate>
							<timebase>59</timebase>
							<ntsc>TRUE</ntsc>
						</rate>
						<rate>
							<timebase>59</timebase>
							<ntsc>TRUE</ntsc>
						</rate>
						<duration>60</duration>
						<start>23829</start>
						<end>23889</end>
						<in>0</in>
						<out>60</out>
					</clipitem>
					<clipitem frameBlend="FALSE" id="clipitem-telop-2856">
						<file id="file-2"/>
						<name>w</name>
						<rate>
							<timebase>59</timebase>
							<ntsc>TRUE</ntsc>
						</rate>
						<rate>
							<timebase>59</timebase>
							<ntsc>TRUE</ntsc>
						</rate>
						<duration>24</duration>
						<start>23889</start>
						<end>23913</end>
						<in>0</in>
						<out>24</out>
					</clipitem>
					<clipitem frameBlend="FALSE" id="clipitem-telop-2859">
						<file id="file-2"/>
						<name>！</name>
						<rate>
							<timebase>59</timebase>
							<ntsc>TRUE</ntsc>
						</rate>
						<rate>
							<timebase>59</timebase>
							<ntsc>TRUE</ntsc>
						</rate>
						<duration>60</duration>
						<start>23913</start>
						<end>23973</end>
						<in>0</in>
						<out>60</out>
					</clipitem>
					<clipitem frameBlend="FALSE" id="clipitem-telop-2863">
						<file id="file-2"/>
						<name>！</name>
						<rate>
							<timebase>59</timebase>
							<ntsc>TRUE</ntsc>
						</rate>
						<rate>
							<timebase>59</timebase>
							<ntsc>TRUE</ntsc>
						</rate>
						<duration>60</duration>
						<start>23973</start>
						<end>24033</end>
						<in>0</in>
						<out>60</out>
					</clipitem>
					<clipitem frameBlend="FALSE" id="clipitem-telop-2872">
						<file id="file-2"/>
						<name>！</name>
						<rate>
							<timebase>59</timebase>
							<ntsc>TRUE</ntsc>
						</rate>
						<rate>
							<timebase>59</timebase>
							<ntsc>TRUE</ntsc>
						</rate>
						<duration>60</duration>
						<start>24045</start>
						<end>24105</end>
						<in>0</in>
						<out>60</out>
					</clipitem>
					<clipitem frameBlend="FALSE" id="clipitem-telop-2885">
						<file id="file-2"/>
						<name>！</name>
						<rate>
							<timebase>59</timebase>
							<ntsc>TRUE</ntsc>
						</rate>
						<rate>
							<timebase>59</timebase>
							<ntsc>TRUE</ntsc>
						</rate>
						<duration>66</duration>
						<start>24105</start>
						<end>24171</end>
						<in>0</in>
						<out>66</out>
					</clipitem>
					<clipitem frameBlend="FALSE" id="clipitem-telop-2896">
						<file id="file-2"/>
						<name>こっちの3名</name>
						<rate>
							<timebase>59</timebase>
							<ntsc>TRUE</ntsc>
						</rate>
						<rate>
							<timebase>59</timebase>
							<ntsc>TRUE</ntsc>
						</rate>
						<duration>60</duration>
						<start>24171</start>
						<end>24231</end>
						<in>0</in>
						<out>60</out>
					</clipitem>
					<clipitem frameBlend="FALSE" id="clipitem-telop-2909">
						<file id="file-2"/>
						<name>承知いたしました</name>
						<rate>
							<timebase>59</timebase>
							<ntsc>TRUE</ntsc>
						</rate>
						<rate>
							<timebase>59</timebase>
							<ntsc>TRUE</ntsc>
						</rate>
						<duration>60</duration>
						<start>24231</start>
						<end>24291</end>
						<in>0</in>
						<out>60</out>
					</clipitem>
					<clipitem frameBlend="FALSE" id="clipitem-telop-2915">
						<file id="file-2"/>
						<name>！</name>
						<rate>
							<timebase>59</timebase>
							<ntsc>TRUE</ntsc>
						</rate>
						<rate>
							<timebase>59</timebase>
							<ntsc>TRUE</ntsc>
						</rate>
						<duration>60</duration>
						<start>24291</start>
						<end>24351</end>
						<in>0</in>
						<out>60</out>
					</clipitem>
					<clipitem frameBlend="FALSE" id="clipitem-telop-2923">
						<file id="file-2"/>
						<name>もう最後生産しません</name>
						<rate>
							<timebase>59</timebase>
							<ntsc>TRUE</ntsc>
						</rate>
						<rate>
							<timebase>59</timebase>
							<ntsc>TRUE</ntsc>
						</rate>
						<duration>120</duration>
						<start>24351</start>
						<end>24471</end>
						<in>0</in>
						<out>120</out>
					</clipitem>
					<clipitem frameBlend="FALSE" id="clipitem-telop-2939">
						<file id="file-2"/>
						<name>！</name>
						<rate>
							<timebase>59</timebase>
							<ntsc>TRUE</ntsc>
						</rate>
						<rate>
							<timebase>59</timebase>
							<ntsc>TRUE</ntsc>
						</rate>
						<duration>60</duration>
						<start>24477</start>
						<end>24537</end>
						<in>0</in>
						<out>60</out>
					</clipitem>
					<clipitem frameBlend="FALSE" id="clipitem-telop-2948">
						<file id="file-2"/>
						<name>！</name>
						<rate>
							<timebase>59</timebase>
							<ntsc>TRUE</ntsc>
						</rate>
						<rate>
							<timebase>59</timebase>
							<ntsc>TRUE</ntsc>
						</rate>
						<duration>0</duration>
						<start>24537</start>
						<end>24537</end>
						<in>0</in>
						<out>0</out>
					</clipitem>
				</track>
				<track>
					<clipitem frameBlend="FALSE" id="clipitem-telop-2">
						<file id="file-2"/>
						<name>！</name>
						<rate>
							<timebase>59</timebase>
							<ntsc>TRUE</ntsc>
						</rate>
						<rate>
							<timebase>59</timebase>
							<ntsc>TRUE</ntsc>
						</rate>
						<duration>59</duration>
						<start>0</start>
						<end>59</end>
						<in>0</in>
						<out>59</out>
					</clipitem>
					<clipitem frameBlend="FALSE" id="clipitem-telop-8">
						<file id="file-2"/>
						<name>！</name>
						<rate>
							<timebase>59</timebase>
							<ntsc>TRUE</ntsc>
						</rate>
						<rate>
							<timebase>59</timebase>
							<ntsc>TRUE</ntsc>
						</rate>
						<duration>66</duration>
						<start>59</start>
						<end>125</end>
						<in>0</in>
						<out>66</out>
					</clipitem>
					<clipitem frameBlend="FALSE" id="clipitem-telop-17">
						<file id="file-2"/>
						<name>！</name>
						<rate>
							<timebase>59</timebase>
							<ntsc>TRUE</ntsc>
						</rate>
						<rate>
							<timebase>59</timebase>
							<ntsc>TRUE</ntsc>
						</rate>
						<duration>60</duration>
						<start>143</start>
						<end>203</end>
						<in>0</in>
						<out>60</out>
					</clipitem>
					<clipitem frameBlend="FALSE" id="clipitem-telop-24">
						<file id="file-2"/>
						<name>！</name>
						<rate>
							<timebase>59</timebase>
							<ntsc>TRUE</ntsc>
						</rate>
						<rate>
							<timebase>59</timebase>
							<ntsc>TRUE</ntsc>
						</rate>
						<duration>60</duration>
						<start>215</start>
						<end>275</end>
						<in>0</in>
						<out>60</out>
					</clipitem>
					<clipitem frameBlend="FALSE" id="clipitem-telop-31">
						<file id="file-2"/>
						<name>！</name>
						<rate>
							<timebase>59</timebase>
							<ntsc>TRUE</ntsc>
						</rate>
						<rate>
							<timebase>59</timebase>
							<ntsc>TRUE</ntsc>
						</rate>
						<duration>60</duration>
						<start>281</start>
						<end>341</end>
						<in>0</in>
						<out>60</out>
					</clipitem>
					<clipitem frameBlend="FALSE" id="clipitem-telop-37">
						<file id="file-2"/>
						<name>！</name>
						<rate>
							<timebase>59</timebase>
							<ntsc>TRUE</ntsc>
						</rate>
						<rate>
							<timebase>59</timebase>
							<ntsc>TRUE</ntsc>
						</rate>
						<duration>60</duration>
						<start>341</start>
						<end>401</end>
						<in>0</in>
						<out>60</out>
					</clipitem>
					<clipitem frameBlend="FALSE" id="clipitem-telop-45">
						<file id="file-2"/>
						<name>！</name>
						<rate>
							<timebase>59</timebase>
							<ntsc>TRUE</ntsc>
						</rate>
						<rate>
							<timebase>59</timebase>
							<ntsc>TRUE</ntsc>
						</rate>
						<duration>60</duration>
						<start>407</start>
						<end>467</end>
						<in>0</in>
						<out>60</out>
					</clipitem>
					<clipitem frameBlend="FALSE" id="clipitem-telop-52">
						<file id="file-2"/>
						<name>！</name>
						<rate>
							<timebase>59</timebase>
							<ntsc>TRUE</ntsc>
						</rate>
						<rate>
							<timebase>59</timebase>
							<ntsc>TRUE</ntsc>
						</rate>
						<duration>60</duration>
						<start>473</start>
						<end>533</end>
						<in>0</in>
						<out>60</out>
					</clipitem>
					<clipitem frameBlend="FALSE" id="clipitem-telop-61">
						<file id="file-2"/>
						<name>！</name>
						<rate>
							<timebase>59</timebase>
							<ntsc>TRUE</ntsc>
						</rate>
						<rate>
							<timebase>59</timebase>
							<ntsc>TRUE</ntsc>
						</rate>
						<duration>60</duration>
						<start>539</start>
						<end>599</end>
						<in>0</in>
						<out>60</out>
					</clipitem>
					<clipitem frameBlend="FALSE" id="clipitem-telop-69">
						<file id="file-2"/>
						<name>！</name>
						<rate>
							<timebase>59</timebase>
							<ntsc>TRUE</ntsc>
						</rate>
						<rate>
							<timebase>59</timebase>
							<ntsc>TRUE</ntsc>
						</rate>
						<duration>60</duration>
						<start>605</start>
						<end>665</end>
						<in>0</in>
						<out>60</out>
					</clipitem>
					<clipitem frameBlend="FALSE" id="clipitem-telop-77">
						<file id="file-2"/>
						<name>！</name>
						<rate>
							<timebase>59</timebase>
							<ntsc>TRUE</ntsc>
						</rate>
						<rate>
							<timebase>59</timebase>
							<ntsc>TRUE</ntsc>
						</rate>
						<duration>66</duration>
						<start>671</start>
						<end>737</end>
						<in>0</in>
						<out>66</out>
					</clipitem>
					<clipitem frameBlend="FALSE" id="clipitem-telop-83">
						<file id="file-2"/>
						<name>！</name>
						<rate>
							<timebase>59</timebase>
							<ntsc>TRUE</ntsc>
						</rate>
						<rate>
							<timebase>59</timebase>
							<ntsc>TRUE</ntsc>
						</rate>
						<duration>66</duration>
						<start>737</start>
						<end>803</end>
						<in>0</in>
						<out>66</out>
					</clipitem>
					<clipitem frameBlend="FALSE" id="clipitem-telop-93">
						<file id="file-2"/>
						<name>！</name>
						<rate>
							<timebase>59</timebase>
							<ntsc>TRUE</ntsc>
						</rate>
						<rate>
							<timebase>59</timebase>
							<ntsc>TRUE</ntsc>
						</rate>
						<duration>66</duration>
						<start>803</start>
						<end>869</end>
						<in>0</in>
						<out>66</out>
					</clipitem>
					<clipitem frameBlend="FALSE" id="clipitem-telop-96">
						<file id="file-2"/>
						<name>！</name>
						<rate>
							<timebase>59</timebase>
							<ntsc>TRUE</ntsc>
						</rate>
						<rate>
							<timebase>59</timebase>
							<ntsc>TRUE</ntsc>
						</rate>
						<duration>60</duration>
						<start>869</start>
						<end>929</end>
						<in>0</in>
						<out>60</out>
					</clipitem>
					<clipitem frameBlend="FALSE" id="clipitem-telop-104">
						<file id="file-2"/>
						<name>！</name>
						<rate>
							<timebase>59</timebase>
							<ntsc>TRUE</ntsc>
						</rate>
						<rate>
							<timebase>59</timebase>
							<ntsc>TRUE</ntsc>
						</rate>
						<duration>66</duration>
						<start>935</start>
						<end>1001</end>
						<in>0</in>
						<out>66</out>
					</clipitem>
					<clipitem frameBlend="FALSE" id="clipitem-telop-116">
						<file id="file-2"/>
						<name>！</name>
						<rate>
							<timebase>59</timebase>
							<ntsc>TRUE</ntsc>
						</rate>
						<rate>
							<timebase>59</timebase>
							<ntsc>TRUE</ntsc>
						</rate>
						<duration>60</duration>
						<start>1001</start>
						<end>1061</end>
						<in>0</in>
						<out>60</out>
					</clipitem>
					<clipitem frameBlend="FALSE" id="clipitem-telop-119">
						<file id="file-2"/>
						<name>！</name>
						<rate>
							<timebase>59</timebase>
							<ntsc>TRUE</ntsc>
						</rate>
						<rate>
							<timebase>59</timebase>
							<ntsc>TRUE</ntsc>
						</rate>
						<duration>60</duration>
						<start>1067</start>
						<end>1127</end>
						<in>0</in>
						<out>60</out>
					</clipitem>
					<clipitem frameBlend="FALSE" id="clipitem-telop-126">
						<file id="file-2"/>
						<name>！</name>
						<rate>
							<timebase>59</timebase>
							<ntsc>TRUE</ntsc>
						</rate>
						<rate>
							<timebase>59</timebase>
							<ntsc>TRUE</ntsc>
						</rate>
						<duration>60</duration>
						<start>1139</start>
						<end>1199</end>
						<in>0</in>
						<out>60</out>
					</clipitem>
					<clipitem frameBlend="FALSE" id="clipitem-telop-135">
						<file id="file-2"/>
						<name>！</name>
						<rate>
							<timebase>59</timebase>
							<ntsc>TRUE</ntsc>
						</rate>
						<rate>
							<timebase>59</timebase>
							<ntsc>TRUE</ntsc>
						</rate>
						<duration>60</duration>
						<start>1211</start>
						<end>1271</end>
						<in>0</in>
						<out>60</out>
					</clipitem>
					<clipitem frameBlend="FALSE" id="clipitem-telop-141">
						<file id="file-2"/>
						<name>！</name>
						<rate>
							<timebase>59</timebase>
							<ntsc>TRUE</ntsc>
						</rate>
						<rate>
							<timebase>59</timebase>
							<ntsc>TRUE</ntsc>
						</rate>
						<duration>60</duration>
						<start>1271</start>
						<end>1331</end>
						<in>0</in>
						<out>60</out>
					</clipitem>
					<clipitem frameBlend="FALSE" id="clipitem-telop-146">
						<file id="file-2"/>
						<name>！</name>
						<rate>
							<timebase>59</timebase>
							<ntsc>TRUE</ntsc>
						</rate>
						<rate>
							<timebase>59</timebase>
							<ntsc>TRUE</ntsc>
						</rate>
						<duration>66</duration>
						<start>1331</start>
						<end>1397</end>
						<in>0</in>
						<out>66</out>
					</clipitem>
					<clipitem frameBlend="FALSE" id="clipitem-telop-154">
						<file id="file-2"/>
						<name>！</name>
						<rate>
							<timebase>59</timebase>
							<ntsc>TRUE</ntsc>
						</rate>
						<rate>
							<timebase>59</timebase>
							<ntsc>TRUE</ntsc>
						</rate>
						<duration>60</duration>
						<start>1409</start>
						<end>1469</end>
						<in>0</in>
						<out>60</out>
					</clipitem>
					<clipitem frameBlend="FALSE" id="clipitem-telop-162">
						<file id="file-2"/>
						<name>！</name>
						<rate>
							<timebase>59</timebase>
							<ntsc>TRUE</ntsc>
						</rate>
						<rate>
							<timebase>59</timebase>
							<ntsc>TRUE</ntsc>
						</rate>
						<duration>60</duration>
						<start>1475</start>
						<end>1535</end>
						<in>0</in>
						<out>60</out>
					</clipitem>
					<clipitem frameBlend="FALSE" id="clipitem-telop-170">
						<file id="file-2"/>
						<name>！</name>
						<rate>
							<timebase>59</timebase>
							<ntsc>TRUE</ntsc>
						</rate>
						<rate>
							<timebase>59</timebase>
							<ntsc>TRUE</ntsc>
						</rate>
						<duration>66</duration>
						<start>1547</start>
						<end>1613</end>
						<in>0</in>
						<out>66</out>
					</clipitem>
					<clipitem frameBlend="FALSE" id="clipitem-telop-179">
						<file id="file-2"/>
						<name>！</name>
						<rate>
							<timebase>59</timebase>
							<ntsc>TRUE</ntsc>
						</rate>
						<rate>
							<timebase>59</timebase>
							<ntsc>TRUE</ntsc>
						</rate>
						<duration>60</duration>
						<start>1613</start>
						<end>1673</end>
						<in>0</in>
						<out>60</out>
					</clipitem>
					<clipitem frameBlend="FALSE" id="clipitem-telop-188">
						<file id="file-2"/>
						<name>！</name>
						<rate>
							<timebase>59</timebase>
							<ntsc>TRUE</ntsc>
						</rate>
						<rate>
							<timebase>59</timebase>
							<ntsc>TRUE</ntsc>
						</rate>
						<duration>66</duration>
						<start>1673</start>
						<end>1739</end>
						<in>0</in>
						<out>66</out>
					</clipitem>
					<clipitem frameBlend="FALSE" id="clipitem-telop-195">
						<file id="file-2"/>
						<name>！</name>
						<rate>
							<timebase>59</timebase>
							<ntsc>TRUE</ntsc>
						</rate>
						<rate>
							<timebase>59</timebase>
							<ntsc>TRUE</ntsc>
						</rate>
						<duration>60</duration>
						<start>1745</start>
						<end>1805</end>
						<in>0</in>
						<out>60</out>
					</clipitem>
					<clipitem frameBlend="FALSE" id="clipitem-telop-206">
						<file id="file-2"/>
						<name>！</name>
						<rate>
							<timebase>59</timebase>
							<ntsc>TRUE</ntsc>
						</rate>
						<rate>
							<timebase>59</timebase>
							<ntsc>TRUE</ntsc>
						</rate>
						<duration>66</duration>
						<start>1811</start>
						<end>1877</end>
						<in>0</in>
						<out>66</out>
					</clipitem>
					<clipitem frameBlend="FALSE" id="clipitem-telop-212">
						<file id="file-2"/>
						<name>w</name>
						<rate>
							<timebase>59</timebase>
							<ntsc>TRUE</ntsc>
						</rate>
						<rate>
							<timebase>59</timebase>
							<ntsc>TRUE</ntsc>
						</rate>
						<duration>30</duration>
						<start>1877</start>
						<end>1907</end>
						<in>0</in>
						<out>30</out>
					</clipitem>
					<clipitem frameBlend="FALSE" id="clipitem-telop-216">
						<file id="file-2"/>
						<name>w</name>
						<rate>
							<timebase>59</timebase>
							<ntsc>TRUE</ntsc>
						</rate>
						<rate>
							<timebase>59</timebase>
							<ntsc>TRUE</ntsc>
						</rate>
						<duration>24</duration>
						<start>1907</start>
						<end>1931</end>
						<in>0</in>
						<out>24</out>
					</clipitem>
					<clipitem frameBlend="FALSE" id="clipitem-telop-218">
						<file id="file-2"/>
						<name>w</name>
						<rate>
							<timebase>59</timebase>
							<ntsc>TRUE</ntsc>
						</rate>
						<rate>
							<timebase>59</timebase>
							<ntsc>TRUE</ntsc>
						</rate>
						<duration>30</duration>
						<start>1931</start>
						<end>1961</end>
						<in>0</in>
						<out>30</out>
					</clipitem>
					<clipitem frameBlend="FALSE" id="clipitem-telop-223">
						<file id="file-2"/>
						<name>！</name>
						<rate>
							<timebase>59</timebase>
							<ntsc>TRUE</ntsc>
						</rate>
						<rate>
							<timebase>59</timebase>
							<ntsc>TRUE</ntsc>
						</rate>
						<duration>60</duration>
						<start>1967</start>
						<end>2027</end>
						<in>0</in>
						<out>60</out>
					</clipitem>
					<clipitem frameBlend="FALSE" id="clipitem-telop-235">
						<file id="file-2"/>
						<name>！</name>
						<rate>
							<timebase>59</timebase>
							<ntsc>TRUE</ntsc>
						</rate>
						<rate>
							<timebase>59</timebase>
							<ntsc>TRUE</ntsc>
						</rate>
						<duration>60</duration>
						<start>2033</start>
						<end>2093</end>
						<in>0</in>
						<out>60</out>
					</clipitem>
					<clipitem frameBlend="FALSE" id="clipitem-telop-245">
						<file id="file-2"/>
						<name>！</name>
						<rate>
							<timebase>59</timebase>
							<ntsc>TRUE</ntsc>
						</rate>
						<rate>
							<timebase>59</timebase>
							<ntsc>TRUE</ntsc>
						</rate>
						<duration>60</duration>
						<start>2105</start>
						<end>2165</end>
						<in>0</in>
						<out>60</out>
					</clipitem>
					<clipitem frameBlend="FALSE" id="clipitem-telop-252">
						<file id="file-2"/>
						<name>！</name>
						<rate>
							<timebase>59</timebase>
							<ntsc>TRUE</ntsc>
						</rate>
						<rate>
							<timebase>59</timebase>
							<ntsc>TRUE</ntsc>
						</rate>
						<duration>60</duration>
						<start>2165</start>
						<end>2225</end>
						<in>0</in>
						<out>60</out>
					</clipitem>
					<clipitem frameBlend="FALSE" id="clipitem-telop-259">
						<file id="file-2"/>
						<name>！</name>
						<rate>
							<timebase>59</timebase>
							<ntsc>TRUE</ntsc>
						</rate>
						<rate>
							<timebase>59</timebase>
							<ntsc>TRUE</ntsc>
						</rate>
						<duration>60</duration>
						<start>2225</start>
						<end>2285</end>
						<in>0</in>
						<out>60</out>
					</clipitem>
					<clipitem frameBlend="FALSE" id="clipitem-telop-268">
						<file id="file-2"/>
						<name>！</name>
						<rate>
							<timebase>59</timebase>
							<ntsc>TRUE</ntsc>
						</rate>
						<rate>
							<timebase>59</timebase>
							<ntsc>TRUE</ntsc>
						</rate>
						<duration>60</duration>
						<start>2285</start>
						<end>2345</end>
						<in>0</in>
						<out>60</out>
					</clipitem>
					<clipitem frameBlend="FALSE" id="clipitem-telop-273">
						<file id="file-2"/>
						<name>！</name>
						<rate>
							<timebase>59</timebase>
							<ntsc>TRUE</ntsc>
						</rate>
						<rate>
							<timebase>59</timebase>
							<ntsc>TRUE</ntsc>
						</rate>
						<duration>60</duration>
						<start>2345</start>
						<end>2405</end>
						<in>0</in>
						<out>60</out>
					</clipitem>
					<clipitem frameBlend="FALSE" id="clipitem-telop-280">
						<file id="file-2"/>
						<name>！</name>
						<rate>
							<timebase>59</timebase>
							<ntsc>TRUE</ntsc>
						</rate>
						<rate>
							<timebase>59</timebase>
							<ntsc>TRUE</ntsc>
						</rate>
						<duration>60</duration>
						<start>2435</start>
						<end>2495</end>
						<in>0</in>
						<out>60</out>
					</clipitem>
					<clipitem frameBlend="FALSE" id="clipitem-telop-286">
						<file id="file-2"/>
						<name>！</name>
						<rate>
							<timebase>59</timebase>
							<ntsc>TRUE</ntsc>
						</rate>
						<rate>
							<timebase>59</timebase>
							<ntsc>TRUE</ntsc>
						</rate>
						<duration>60</duration>
						<start>2495</start>
						<end>2555</end>
						<in>0</in>
						<out>60</out>
					</clipitem>
					<clipitem frameBlend="FALSE" id="clipitem-telop-293">
						<file id="file-2"/>
						<name>！</name>
						<rate>
							<timebase>59</timebase>
							<ntsc>TRUE</ntsc>
						</rate>
						<rate>
							<timebase>59</timebase>
							<ntsc>TRUE</ntsc>
						</rate>
						<duration>60</duration>
						<start>2555</start>
						<end>2615</end>
						<in>0</in>
						<out>60</out>
					</clipitem>
					<clipitem frameBlend="FALSE" id="clipitem-telop-300">
						<file id="file-2"/>
						<name>！</name>
						<rate>
							<timebase>59</timebase>
							<ntsc>TRUE</ntsc>
						</rate>
						<rate>
							<timebase>59</timebase>
							<ntsc>TRUE</ntsc>
						</rate>
						<duration>60</duration>
						<start>2615</start>
						<end>2675</end>
						<in>0</in>
						<out>60</out>
					</clipitem>
					<clipitem frameBlend="FALSE" id="clipitem-telop-305">
						<file id="file-2"/>
						<name>！</name>
						<rate>
							<timebase>59</timebase>
							<ntsc>TRUE</ntsc>
						</rate>
						<rate>
							<timebase>59</timebase>
							<ntsc>TRUE</ntsc>
						</rate>
						<duration>60</duration>
						<start>2675</start>
						<end>2735</end>
						<in>0</in>
						<out>60</out>
					</clipitem>
					<clipitem frameBlend="FALSE" id="clipitem-telop-314">
						<file id="file-2"/>
						<name>！</name>
						<rate>
							<timebase>59</timebase>
							<ntsc>TRUE</ntsc>
						</rate>
						<rate>
							<timebase>59</timebase>
							<ntsc>TRUE</ntsc>
						</rate>
						<duration>60</duration>
						<start>2741</start>
						<end>2801</end>
						<in>0</in>
						<out>60</out>
					</clipitem>
					<clipitem frameBlend="FALSE" id="clipitem-telop-323">
						<file id="file-2"/>
						<name>！</name>
						<rate>
							<timebase>59</timebase>
							<ntsc>TRUE</ntsc>
						</rate>
						<rate>
							<timebase>59</timebase>
							<ntsc>TRUE</ntsc>
						</rate>
						<duration>60</duration>
						<start>2807</start>
						<end>2867</end>
						<in>0</in>
						<out>60</out>
					</clipitem>
					<clipitem frameBlend="FALSE" id="clipitem-telop-331">
						<file id="file-2"/>
						<name>！</name>
						<rate>
							<timebase>59</timebase>
							<ntsc>TRUE</ntsc>
						</rate>
						<rate>
							<timebase>59</timebase>
							<ntsc>TRUE</ntsc>
						</rate>
						<duration>60</duration>
						<start>2909</start>
						<end>2969</end>
						<in>0</in>
						<out>60</out>
					</clipitem>
					<clipitem frameBlend="FALSE" id="clipitem-telop-336">
						<file id="file-2"/>
						<name>！</name>
						<rate>
							<timebase>59</timebase>
							<ntsc>TRUE</ntsc>
						</rate>
						<rate>
							<timebase>59</timebase>
							<ntsc>TRUE</ntsc>
						</rate>
						<duration>60</duration>
						<start>2969</start>
						<end>3029</end>
						<in>0</in>
						<out>60</out>
					</clipitem>
					<clipitem frameBlend="FALSE" id="clipitem-telop-348">
						<file id="file-2"/>
						<name>！</name>
						<rate>
							<timebase>59</timebase>
							<ntsc>TRUE</ntsc>
						</rate>
						<rate>
							<timebase>59</timebase>
							<ntsc>TRUE</ntsc>
						</rate>
						<duration>60</duration>
						<start>3029</start>
						<end>3089</end>
						<in>0</in>
						<out>60</out>
					</clipitem>
					<clipitem frameBlend="FALSE" id="clipitem-telop-355">
						<file id="file-2"/>
						<name>！</name>
						<rate>
							<timebase>59</timebase>
							<ntsc>TRUE</ntsc>
						</rate>
						<rate>
							<timebase>59</timebase>
							<ntsc>TRUE</ntsc>
						</rate>
						<duration>66</duration>
						<start>3089</start>
						<end>3155</end>
						<in>0</in>
						<out>66</out>
					</clipitem>
					<clipitem frameBlend="FALSE" id="clipitem-telop-362">
						<file id="file-2"/>
						<name>！</name>
						<rate>
							<timebase>59</timebase>
							<ntsc>TRUE</ntsc>
						</rate>
						<rate>
							<timebase>59</timebase>
							<ntsc>TRUE</ntsc>
						</rate>
						<duration>66</duration>
						<start>3197</start>
						<end>3263</end>
						<in>0</in>
						<out>66</out>
					</clipitem>
					<clipitem frameBlend="FALSE" id="clipitem-telop-372">
						<file id="file-2"/>
						<name>！</name>
						<rate>
							<timebase>59</timebase>
							<ntsc>TRUE</ntsc>
						</rate>
						<rate>
							<timebase>59</timebase>
							<ntsc>TRUE</ntsc>
						</rate>
						<duration>60</duration>
						<start>3263</start>
						<end>3323</end>
						<in>0</in>
						<out>60</out>
					</clipitem>
					<clipitem frameBlend="FALSE" id="clipitem-telop-385">
						<file id="file-2"/>
						<name>！</name>
						<rate>
							<timebase>59</timebase>
							<ntsc>TRUE</ntsc>
						</rate>
						<rate>
							<timebase>59</timebase>
							<ntsc>TRUE</ntsc>
						</rate>
						<duration>60</duration>
						<start>3323</start>
						<end>3383</end>
						<in>0</in>
						<out>60</out>
					</clipitem>
					<clipitem frameBlend="FALSE" id="clipitem-telop-398">
						<file id="file-2"/>
						<name>！</name>
						<rate>
							<timebase>59</timebase>
							<ntsc>TRUE</ntsc>
						</rate>
						<rate>
							<timebase>59</timebase>
							<ntsc>TRUE</ntsc>
						</rate>
						<duration>60</duration>
						<start>3383</start>
						<end>3443</end>
						<in>0</in>
						<out>60</out>
					</clipitem>
					<clipitem frameBlend="FALSE" id="clipitem-telop-407">
						<file id="file-2"/>
						<name>！</name>
						<rate>
							<timebase>59</timebase>
							<ntsc>TRUE</ntsc>
						</rate>
						<rate>
							<timebase>59</timebase>
							<ntsc>TRUE</ntsc>
						</rate>
						<duration>60</duration>
						<start>3443</start>
						<end>3503</end>
						<in>0</in>
						<out>60</out>
					</clipitem>
					<clipitem frameBlend="FALSE" id="clipitem-telop-415">
						<file id="file-2"/>
						<name>！</name>
						<rate>
							<timebase>59</timebase>
							<ntsc>TRUE</ntsc>
						</rate>
						<rate>
							<timebase>59</timebase>
							<ntsc>TRUE</ntsc>
						</rate>
						<duration>66</duration>
						<start>3515</start>
						<end>3581</end>
						<in>0</in>
						<out>66</out>
					</clipitem>
					<clipitem frameBlend="FALSE" id="clipitem-telop-422">
						<file id="file-2"/>
						<name>！</name>
						<rate>
							<timebase>59</timebase>
							<ntsc>TRUE</ntsc>
						</rate>
						<rate>
							<timebase>59</timebase>
							<ntsc>TRUE</ntsc>
						</rate>
						<duration>60</duration>
						<start>3581</start>
						<end>3641</end>
						<in>0</in>
						<out>60</out>
					</clipitem>
					<clipitem frameBlend="FALSE" id="clipitem-telop-427">
						<file id="file-2"/>
						<name>！</name>
						<rate>
							<timebase>59</timebase>
							<ntsc>TRUE</ntsc>
						</rate>
						<rate>
							<timebase>59</timebase>
							<ntsc>TRUE</ntsc>
						</rate>
						<duration>60</duration>
						<start>3641</start>
						<end>3701</end>
						<in>0</in>
						<out>60</out>
					</clipitem>
					<clipitem frameBlend="FALSE" id="clipitem-telop-432">
						<file id="file-2"/>
						<name>！</name>
						<rate>
							<timebase>59</timebase>
							<ntsc>TRUE</ntsc>
						</rate>
						<rate>
							<timebase>59</timebase>
							<ntsc>TRUE</ntsc>
						</rate>
						<duration>60</duration>
						<start>3713</start>
						<end>3773</end>
						<in>0</in>
						<out>60</out>
					</clipitem>
					<clipitem frameBlend="FALSE" id="clipitem-telop-441">
						<file id="file-2"/>
						<name>！</name>
						<rate>
							<timebase>59</timebase>
							<ntsc>TRUE</ntsc>
						</rate>
						<rate>
							<timebase>59</timebase>
							<ntsc>TRUE</ntsc>
						</rate>
						<duration>60</duration>
						<start>3773</start>
						<end>3833</end>
						<in>0</in>
						<out>60</out>
					</clipitem>
					<clipitem frameBlend="FALSE" id="clipitem-telop-447">
						<file id="file-2"/>
						<name>！</name>
						<rate>
							<timebase>59</timebase>
							<ntsc>TRUE</ntsc>
						</rate>
						<rate>
							<timebase>59</timebase>
							<ntsc>TRUE</ntsc>
						</rate>
						<duration>60</duration>
						<start>3833</start>
						<end>3893</end>
						<in>0</in>
						<out>60</out>
					</clipitem>
					<clipitem frameBlend="FALSE" id="clipitem-telop-458">
						<file id="file-2"/>
						<name>！</name>
						<rate>
							<timebase>59</timebase>
							<ntsc>TRUE</ntsc>
						</rate>
						<rate>
							<timebase>59</timebase>
							<ntsc>TRUE</ntsc>
						</rate>
						<duration>66</duration>
						<start>3893</start>
						<end>3959</end>
						<in>0</in>
						<out>66</out>
					</clipitem>
					<clipitem frameBlend="FALSE" id="clipitem-telop-468">
						<file id="file-2"/>
						<name>！</name>
						<rate>
							<timebase>59</timebase>
							<ntsc>TRUE</ntsc>
						</rate>
						<rate>
							<timebase>59</timebase>
							<ntsc>TRUE</ntsc>
						</rate>
						<duration>60</duration>
						<start>3977</start>
						<end>4037</end>
						<in>0</in>
						<out>60</out>
					</clipitem>
					<clipitem frameBlend="FALSE" id="clipitem-telop-476">
						<file id="file-2"/>
						<name>！</name>
						<rate>
							<timebase>59</timebase>
							<ntsc>TRUE</ntsc>
						</rate>
						<rate>
							<timebase>59</timebase>
							<ntsc>TRUE</ntsc>
						</rate>
						<duration>60</duration>
						<start>4055</start>
						<end>4115</end>
						<in>0</in>
						<out>60</out>
					</clipitem>
					<clipitem frameBlend="FALSE" id="clipitem-telop-483">
						<file id="file-2"/>
						<name>！</name>
						<rate>
							<timebase>59</timebase>
							<ntsc>TRUE</ntsc>
						</rate>
						<rate>
							<timebase>59</timebase>
							<ntsc>TRUE</ntsc>
						</rate>
						<duration>60</duration>
						<start>4115</start>
						<end>4175</end>
						<in>0</in>
						<out>60</out>
					</clipitem>
					<clipitem frameBlend="FALSE" id="clipitem-telop-487">
						<file id="file-2"/>
						<name>w</name>
						<rate>
							<timebase>59</timebase>
							<ntsc>TRUE</ntsc>
						</rate>
						<rate>
							<timebase>59</timebase>
							<ntsc>TRUE</ntsc>
						</rate>
						<duration>30</duration>
						<start>4175</start>
						<end>4205</end>
						<in>0</in>
						<out>30</out>
					</clipitem>
					<clipitem frameBlend="FALSE" id="clipitem-telop-492">
						<file id="file-2"/>
						<name>！</name>
						<rate>
							<timebase>59</timebase>
							<ntsc>TRUE</ntsc>
						</rate>
						<rate>
							<timebase>59</timebase>
							<ntsc>TRUE</ntsc>
						</rate>
						<duration>60</duration>
						<start>4205</start>
						<end>4265</end>
						<in>0</in>
						<out>60</out>
					</clipitem>
					<clipitem frameBlend="FALSE" id="clipitem-telop-495">
						<file id="file-2"/>
						<name>！</name>
						<rate>
							<timebase>59</timebase>
							<ntsc>TRUE</ntsc>
						</rate>
						<rate>
							<timebase>59</timebase>
							<ntsc>TRUE</ntsc>
						</rate>
						<duration>66</duration>
						<start>4265</start>
						<end>4331</end>
						<in>0</in>
						<out>66</out>
					</clipitem>
					<clipitem frameBlend="FALSE" id="clipitem-telop-505">
						<file id="file-2"/>
						<name>！</name>
						<rate>
							<timebase>59</timebase>
							<ntsc>TRUE</ntsc>
						</rate>
						<rate>
							<timebase>59</timebase>
							<ntsc>TRUE</ntsc>
						</rate>
						<duration>60</duration>
						<start>4331</start>
						<end>4391</end>
						<in>0</in>
						<out>60</out>
					</clipitem>
					<clipitem frameBlend="FALSE" id="clipitem-telop-512">
						<file id="file-2"/>
						<name>！</name>
						<rate>
							<timebase>59</timebase>
							<ntsc>TRUE</ntsc>
						</rate>
						<rate>
							<timebase>59</timebase>
							<ntsc>TRUE</ntsc>
						</rate>
						<duration>60</duration>
						<start>4391</start>
						<end>4451</end>
						<in>0</in>
						<out>60</out>
					</clipitem>
					<clipitem frameBlend="FALSE" id="clipitem-telop-521">
						<file id="file-2"/>
						<name>！</name>
						<rate>
							<timebase>59</timebase>
							<ntsc>TRUE</ntsc>
						</rate>
						<rate>
							<timebase>59</timebase>
							<ntsc>TRUE</ntsc>
						</rate>
						<duration>60</duration>
						<start>4451</start>
						<end>4511</end>
						<in>0</in>
						<out>60</out>
					</clipitem>
					<clipitem frameBlend="FALSE" id="clipitem-telop-527">
						<file id="file-2"/>
						<name>！</name>
						<rate>
							<timebase>59</timebase>
							<ntsc>TRUE</ntsc>
						</rate>
						<rate>
							<timebase>59</timebase>
							<ntsc>TRUE</ntsc>
						</rate>
						<duration>60</duration>
						<start>4517</start>
						<end>4577</end>
						<in>0</in>
						<out>60</out>
					</clipitem>
					<clipitem frameBlend="FALSE" id="clipitem-telop-538">
						<file id="file-2"/>
						<name>w</name>
						<rate>
							<timebase>59</timebase>
							<ntsc>TRUE</ntsc>
						</rate>
						<rate>
							<timebase>59</timebase>
							<ntsc>TRUE</ntsc>
						</rate>
						<duration>30</duration>
						<start>4577</start>
						<end>4607</end>
						<in>0</in>
						<out>30</out>
					</clipitem>
					<clipitem frameBlend="FALSE" id="clipitem-telop-544">
						<file id="file-2"/>
						<name>！</name>
						<rate>
							<timebase>59</timebase>
							<ntsc>TRUE</ntsc>
						</rate>
						<rate>
							<timebase>59</timebase>
							<ntsc>TRUE</ntsc>
						</rate>
						<duration>60</duration>
						<start>4607</start>
						<end>4667</end>
						<in>0</in>
						<out>60</out>
					</clipitem>
					<clipitem frameBlend="FALSE" id="clipitem-telop-553">
						<file id="file-2"/>
						<name>！</name>
						<rate>
							<timebase>59</timebase>
							<ntsc>TRUE</ntsc>
						</rate>
						<rate>
							<timebase>59</timebase>
							<ntsc>TRUE</ntsc>
						</rate>
						<duration>60</duration>
						<start>4667</start>
						<end>4727</end>
						<in>0</in>
						<out>60</out>
					</clipitem>
					<clipitem frameBlend="FALSE" id="clipitem-telop-560">
						<file id="file-2"/>
						<name>！</name>
						<rate>
							<timebase>59</timebase>
							<ntsc>TRUE</ntsc>
						</rate>
						<rate>
							<timebase>59</timebase>
							<ntsc>TRUE</ntsc>
						</rate>
						<duration>60</duration>
						<start>4727</start>
						<end>4787</end>
						<in>0</in>
						<out>60</out>
					</clipitem>
					<clipitem frameBlend="FALSE" id="clipitem-telop-566">
						<file id="file-2"/>
						<name>！</name>
						<rate>
							<timebase>59</timebase>
							<ntsc>TRUE</ntsc>
						</rate>
						<rate>
							<timebase>59</timebase>
							<ntsc>TRUE</ntsc>
						</rate>
						<duration>60</duration>
						<start>4787</start>
						<end>4847</end>
						<in>0</in>
						<out>60</out>
					</clipitem>
					<clipitem frameBlend="FALSE" id="clipitem-telop-577">
						<file id="file-2"/>
						<name>w</name>
						<rate>
							<timebase>59</timebase>
							<ntsc>TRUE</ntsc>
						</rate>
						<rate>
							<timebase>59</timebase>
							<ntsc>TRUE</ntsc>
						</rate>
						<duration>24</duration>
						<start>4847</start>
						<end>4871</end>
						<in>0</in>
						<out>24</out>
					</clipitem>
					<clipitem frameBlend="FALSE" id="clipitem-telop-583">
						<file id="file-2"/>
						<name>w</name>
						<rate>
							<timebase>59</timebase>
							<ntsc>TRUE</ntsc>
						</rate>
						<rate>
							<timebase>59</timebase>
							<ntsc>TRUE</ntsc>
						</rate>
						<duration>30</duration>
						<start>4871</start>
						<end>4901</end>
						<in>0</in>
						<out>30</out>
					</clipitem>
					<clipitem frameBlend="FALSE" id="clipitem-telop-588">
						<file id="file-2"/>
						<name>！</name>
						<rate>
							<timebase>59</timebase>
							<ntsc>TRUE</ntsc>
						</rate>
						<rate>
							<timebase>59</timebase>
							<ntsc>TRUE</ntsc>
						</rate>
						<duration>66</duration>
						<start>4907</start>
						<end>4973</end>
						<in>0</in>
						<out>66</out>
					</clipitem>
					<clipitem frameBlend="FALSE" id="clipitem-telop-604">
						<file id="file-2"/>
						<name>w</name>
						<rate>
							<timebase>59</timebase>
							<ntsc>TRUE</ntsc>
						</rate>
						<rate>
							<timebase>59</timebase>
							<ntsc>TRUE</ntsc>
						</rate>
						<duration>24</duration>
						<start>4985</start>
						<end>5009</end>
						<in>0</in>
						<out>24</out>
					</clipitem>
					<clipitem frameBlend="FALSE" id="clipitem-telop-610">
						<file id="file-2"/>
						<name>！</name>
						<rate>
							<timebase>59</timebase>
							<ntsc>TRUE</ntsc>
						</rate>
						<rate>
							<timebase>59</timebase>
							<ntsc>TRUE</ntsc>
						</rate>
						<duration>60</duration>
						<start>5009</start>
						<end>5069</end>
						<in>0</in>
						<out>60</out>
					</clipitem>
					<clipitem frameBlend="FALSE" id="clipitem-telop-619">
						<file id="file-2"/>
						<name>！</name>
						<rate>
							<timebase>59</timebase>
							<ntsc>TRUE</ntsc>
						</rate>
						<rate>
							<timebase>59</timebase>
							<ntsc>TRUE</ntsc>
						</rate>
						<duration>60</duration>
						<start>5081</start>
						<end>5141</end>
						<in>0</in>
						<out>60</out>
					</clipitem>
					<clipitem frameBlend="FALSE" id="clipitem-telop-630">
						<file id="file-2"/>
						<name>！</name>
						<rate>
							<timebase>59</timebase>
							<ntsc>TRUE</ntsc>
						</rate>
						<rate>
							<timebase>59</timebase>
							<ntsc>TRUE</ntsc>
						</rate>
						<duration>60</duration>
						<start>5141</start>
						<end>5201</end>
						<in>0</in>
						<out>60</out>
					</clipitem>
					<clipitem frameBlend="FALSE" id="clipitem-telop-639">
						<file id="file-2"/>
						<name>！</name>
						<rate>
							<timebase>59</timebase>
							<ntsc>TRUE</ntsc>
						</rate>
						<rate>
							<timebase>59</timebase>
							<ntsc>TRUE</ntsc>
						</rate>
						<duration>66</duration>
						<start>5201</start>
						<end>5267</end>
						<in>0</in>
						<out>66</out>
					</clipitem>
					<clipitem frameBlend="FALSE" id="clipitem-telop-648">
						<file id="file-2"/>
						<name>！</name>
						<rate>
							<timebase>59</timebase>
							<ntsc>TRUE</ntsc>
						</rate>
						<rate>
							<timebase>59</timebase>
							<ntsc>TRUE</ntsc>
						</rate>
						<duration>60</duration>
						<start>5267</start>
						<end>5327</end>
						<in>0</in>
						<out>60</out>
					</clipitem>
					<clipitem frameBlend="FALSE" id="clipitem-telop-655">
						<file id="file-2"/>
						<name>！</name>
						<rate>
							<timebase>59</timebase>
							<ntsc>TRUE</ntsc>
						</rate>
						<rate>
							<timebase>59</timebase>
							<ntsc>TRUE</ntsc>
						</rate>
						<duration>60</duration>
						<start>5327</start>
						<end>5387</end>
						<in>0</in>
						<out>60</out>
					</clipitem>
					<clipitem frameBlend="FALSE" id="clipitem-telop-663">
						<file id="file-2"/>
						<name>ご不快な思いをさせてしまい大変申し訳ございませんでした どのキャストが一番よろしかったでしょうか</name>
						<rate>
							<timebase>59</timebase>
							<ntsc>TRUE</ntsc>
						</rate>
						<rate>
							<timebase>59</timebase>
							<ntsc>TRUE</ntsc>
						</rate>
						<duration>300</duration>
						<start>5393</start>
						<end>5693</end>
						<in>0</in>
						<out>300</out>
					</clipitem>
					<clipitem frameBlend="FALSE" id="clipitem-telop-692">
						<file id="file-2"/>
						<name>！</name>
						<rate>
							<timebase>59</timebase>
							<ntsc>TRUE</ntsc>
						</rate>
						<rate>
							<timebase>59</timebase>
							<ntsc>TRUE</ntsc>
						</rate>
						<duration>60</duration>
						<start>5693</start>
						<end>5753</end>
						<in>0</in>
						<out>60</out>
					</clipitem>
					<clipitem frameBlend="FALSE" id="clipitem-telop-699">
						<file id="file-2"/>
						<name>！</name>
						<rate>
							<timebase>59</timebase>
							<ntsc>TRUE</ntsc>
						</rate>
						<rate>
							<timebase>59</timebase>
							<ntsc>TRUE</ntsc>
						</rate>
						<duration>60</duration>
						<start>5759</start>
						<end>5819</end>
						<in>0</in>
						<out>60</out>
					</clipitem>
					<clipitem frameBlend="FALSE" id="clipitem-telop-707">
						<file id="file-2"/>
						<name>！</name>
						<rate>
							<timebase>59</timebase>
							<ntsc>TRUE</ntsc>
						</rate>
						<rate>
							<timebase>59</timebase>
							<ntsc>TRUE</ntsc>
						</rate>
						<duration>60</duration>
						<start>5831</start>
						<end>5891</end>
						<in>0</in>
						<out>60</out>
					</clipitem>
					<clipitem frameBlend="FALSE" id="clipitem-telop-714">
						<file id="file-2"/>
						<name>！</name>
						<rate>
							<timebase>59</timebase>
							<ntsc>TRUE</ntsc>
						</rate>
						<rate>
							<timebase>59</timebase>
							<ntsc>TRUE</ntsc>
						</rate>
						<duration>60</duration>
						<start>5921</start>
						<end>5981</end>
						<in>0</in>
						<out>60</out>
					</clipitem>
					<clipitem frameBlend="FALSE" id="clipitem-telop-722">
						<file id="file-2"/>
						<name>！</name>
						<rate>
							<timebase>59</timebase>
							<ntsc>TRUE</ntsc>
						</rate>
						<rate>
							<timebase>59</timebase>
							<ntsc>TRUE</ntsc>
						</rate>
						<duration>66</duration>
						<start>5981</start>
						<end>6047</end>
						<in>0</in>
						<out>66</out>
					</clipitem>
					<clipitem frameBlend="FALSE" id="clipitem-telop-733">
						<file id="file-2"/>
						<name>！</name>
						<rate>
							<timebase>59</timebase>
							<ntsc>TRUE</ntsc>
						</rate>
						<rate>
							<timebase>59</timebase>
							<ntsc>TRUE</ntsc>
						</rate>
						<duration>60</duration>
						<start>6053</start>
						<end>6113</end>
						<in>0</in>
						<out>60</out>
					</clipitem>
					<clipitem frameBlend="FALSE" id="clipitem-telop-742">
						<file id="file-2"/>
						<name>！</name>
						<rate>
							<timebase>59</timebase>
							<ntsc>TRUE</ntsc>
						</rate>
						<rate>
							<timebase>59</timebase>
							<ntsc>TRUE</ntsc>
						</rate>
						<duration>60</duration>
						<start>6119</start>
						<end>6179</end>
						<in>0</in>
						<out>60</out>
					</clipitem>
					<clipitem frameBlend="FALSE" id="clipitem-telop-747">
						<file id="file-2"/>
						<name>！</name>
						<rate>
							<timebase>59</timebase>
							<ntsc>TRUE</ntsc>
						</rate>
						<rate>
							<timebase>59</timebase>
							<ntsc>TRUE</ntsc>
						</rate>
						<duration>60</duration>
						<start>6185</start>
						<end>6245</end>
						<in>0</in>
						<out>60</out>
					</clipitem>
					<clipitem frameBlend="FALSE" id="clipitem-telop-752">
						<file id="file-2"/>
						<name>！</name>
						<rate>
							<timebase>59</timebase>
							<ntsc>TRUE</ntsc>
						</rate>
						<rate>
							<timebase>59</timebase>
							<ntsc>TRUE</ntsc>
						</rate>
						<duration>60</duration>
						<start>6245</start>
						<end>6305</end>
						<in>0</in>
						<out>60</out>
					</clipitem>
					<clipitem frameBlend="FALSE" id="clipitem-telop-759">
						<file id="file-2"/>
						<name>！</name>
						<rate>
							<timebase>59</timebase>
							<ntsc>TRUE</ntsc>
						</rate>
						<rate>
							<timebase>59</timebase>
							<ntsc>TRUE</ntsc>
						</rate>
						<duration>66</duration>
						<start>6311</start>
						<end>6377</end>
						<in>0</in>
						<out>66</out>
					</clipitem>
					<clipitem frameBlend="FALSE" id="clipitem-telop-766">
						<file id="file-2"/>
						<name>！</name>
						<rate>
							<timebase>59</timebase>
							<ntsc>TRUE</ntsc>
						</rate>
						<rate>
							<timebase>59</timebase>
							<ntsc>TRUE</ntsc>
						</rate>
						<duration>60</duration>
						<start>6401</start>
						<end>6461</end>
						<in>0</in>
						<out>60</out>
					</clipitem>
					<clipitem frameBlend="FALSE" id="clipitem-telop-769">
						<file id="file-2"/>
						<name>！</name>
						<rate>
							<timebase>59</timebase>
							<ntsc>TRUE</ntsc>
						</rate>
						<rate>
							<timebase>59</timebase>
							<ntsc>TRUE</ntsc>
						</rate>
						<duration>60</duration>
						<start>6461</start>
						<end>6521</end>
						<in>0</in>
						<out>60</out>
					</clipitem>
					<clipitem frameBlend="FALSE" id="clipitem-telop-781">
						<file id="file-2"/>
						<name>！</name>
						<rate>
							<timebase>59</timebase>
							<ntsc>TRUE</ntsc>
						</rate>
						<rate>
							<timebase>59</timebase>
							<ntsc>TRUE</ntsc>
						</rate>
						<duration>60</duration>
						<start>6521</start>
						<end>6581</end>
						<in>0</in>
						<out>60</out>
					</clipitem>
					<clipitem frameBlend="FALSE" id="clipitem-telop-790">
						<file id="file-2"/>
						<name>！</name>
						<rate>
							<timebase>59</timebase>
							<ntsc>TRUE</ntsc>
						</rate>
						<rate>
							<timebase>59</timebase>
							<ntsc>TRUE</ntsc>
						</rate>
						<duration>60</duration>
						<start>6581</start>
						<end>6641</end>
						<in>0</in>
						<out>60</out>
					</clipitem>
					<clipitem frameBlend="FALSE" id="clipitem-telop-797">
						<file id="file-2"/>
						<name>！</name>
						<rate>
							<timebase>59</timebase>
							<ntsc>TRUE</ntsc>
						</rate>
						<rate>
							<timebase>59</timebase>
							<ntsc>TRUE</ntsc>
						</rate>
						<duration>66</duration>
						<start>6641</start>
						<end>6707</end>
						<in>0</in>
						<out>66</out>
					</clipitem>
					<clipitem frameBlend="FALSE" id="clipitem-telop-806">
						<file id="file-2"/>
						<name>！</name>
						<rate>
							<timebase>59</timebase>
							<ntsc>TRUE</ntsc>
						</rate>
						<rate>
							<timebase>59</timebase>
							<ntsc>TRUE</ntsc>
						</rate>
						<duration>60</duration>
						<start>6707</start>
						<end>6767</end>
						<in>0</in>
						<out>60</out>
					</clipitem>
					<clipitem frameBlend="FALSE" id="clipitem-telop-814">
						<file id="file-2"/>
						<name>！</name>
						<rate>
							<timebase>59</timebase>
							<ntsc>TRUE</ntsc>
						</rate>
						<rate>
							<timebase>59</timebase>
							<ntsc>TRUE</ntsc>
						</rate>
						<duration>60</duration>
						<start>6767</start>
						<end>6827</end>
						<in>0</in>
						<out>60</out>
					</clipitem>
					<clipitem frameBlend="FALSE" id="clipitem-telop-825">
						<file id="file-2"/>
						<name>！</name>
						<rate>
							<timebase>59</timebase>
							<ntsc>TRUE</ntsc>
						</rate>
						<rate>
							<timebase>59</timebase>
							<ntsc>TRUE</ntsc>
						</rate>
						<duration>60</duration>
						<start>6833</start>
						<end>6893</end>
						<in>0</in>
						<out>60</out>
					</clipitem>
					<clipitem frameBlend="FALSE" id="clipitem-telop-836">
						<file id="file-2"/>
						<name>w</name>
						<rate>
							<timebase>59</timebase>
							<ntsc>TRUE</ntsc>
						</rate>
						<rate>
							<timebase>59</timebase>
							<ntsc>TRUE</ntsc>
						</rate>
						<duration>30</duration>
						<start>6893</start>
						<end>6923</end>
						<in>0</in>
						<out>30</out>
					</clipitem>
					<clipitem frameBlend="FALSE" id="clipitem-telop-841">
						<file id="file-2"/>
						<name>w</name>
						<rate>
							<timebase>59</timebase>
							<ntsc>TRUE</ntsc>
						</rate>
						<rate>
							<timebase>59</timebase>
							<ntsc>TRUE</ntsc>
						</rate>
						<duration>24</duration>
						<start>6923</start>
						<end>6947</end>
						<in>0</in>
						<out>24</out>
					</clipitem>
					<clipitem frameBlend="FALSE" id="clipitem-telop-846">
						<file id="file-2"/>
						<name>！</name>
						<rate>
							<timebase>59</timebase>
							<ntsc>TRUE</ntsc>
						</rate>
						<rate>
							<timebase>59</timebase>
							<ntsc>TRUE</ntsc>
						</rate>
						<duration>60</duration>
						<start>6947</start>
						<end>7007</end>
						<in>0</in>
						<out>60</out>
					</clipitem>
					<clipitem frameBlend="FALSE" id="clipitem-telop-854">
						<file id="file-2"/>
						<name>ありがとうございましたお嬢さんおめでとうございます</name>
						<rate>
							<timebase>59</timebase>
							<ntsc>TRUE</ntsc>
						</rate>
						<rate>
							<timebase>59</timebase>
							<ntsc>TRUE</ntsc>
						</rate>
						<duration>120</duration>
						<start>7013</start>
						<end>7133</end>
						<in>0</in>
						<out>120</out>
					</clipitem>
					<clipitem frameBlend="FALSE" id="clipitem-telop-870">
						<file id="file-2"/>
						<name>おさめていただいてよろしいでしょうか</name>
						<rate>
							<timebase>59</timebase>
							<ntsc>TRUE</ntsc>
						</rate>
						<rate>
							<timebase>59</timebase>
							<ntsc>TRUE</ntsc>
						</rate>
						<duration>120</duration>
						<start>7133</start>
						<end>7253</end>
						<in>0</in>
						<out>120</out>
					</clipitem>
					<clipitem frameBlend="FALSE" id="clipitem-telop-885">
						<file id="file-2"/>
						<name>それかあの出勤していない出事はどこかに知ってください</name>
						<rate>
							<timebase>59</timebase>
							<ntsc>TRUE</ntsc>
						</rate>
						<rate>
							<timebase>59</timebase>
							<ntsc>TRUE</ntsc>
						</rate>
						<duration>240</duration>
						<start>7253</start>
						<end>7493</end>
						<in>0</in>
						<out>240</out>
					</clipitem>
					<clipitem frameBlend="FALSE" id="clipitem-telop-918">
						<file id="file-2"/>
						<name>はい</name>
						<rate>
							<timebase>59</timebase>
							<ntsc>TRUE</ntsc>
						</rate>
						<rate>
							<timebase>59</timebase>
							<ntsc>TRUE</ntsc>
						</rate>
						<duration>120</duration>
						<start>7493</start>
						<end>7613</end>
						<in>0</in>
						<out>120</out>
					</clipitem>
					<clipitem frameBlend="FALSE" id="clipitem-telop-937">
						<file id="file-2"/>
						<name>お嬢様大変申し訳ございません</name>
						<rate>
							<timebase>59</timebase>
							<ntsc>TRUE</ntsc>
						</rate>
						<rate>
							<timebase>59</timebase>
							<ntsc>TRUE</ntsc>
						</rate>
						<duration>180</duration>
						<start>7613</start>
						<end>7793</end>
						<in>0</in>
						<out>180</out>
					</clipitem>
					<clipitem frameBlend="FALSE" id="clipitem-telop-961">
						<file id="file-2"/>
						<name>！</name>
						<rate>
							<timebase>59</timebase>
							<ntsc>TRUE</ntsc>
						</rate>
						<rate>
							<timebase>59</timebase>
							<ntsc>TRUE</ntsc>
						</rate>
						<duration>60</duration>
						<start>7793</start>
						<end>7853</end>
						<in>0</in>
						<out>60</out>
					</clipitem>
					<clipitem frameBlend="FALSE" id="clipitem-telop-967">
						<file id="file-2"/>
						<name>！</name>
						<rate>
							<timebase>59</timebase>
							<ntsc>TRUE</ntsc>
						</rate>
						<rate>
							<timebase>59</timebase>
							<ntsc>TRUE</ntsc>
						</rate>
						<duration>60</duration>
						<start>7889</start>
						<end>7949</end>
						<in>0</in>
						<out>60</out>
					</clipitem>
					<clipitem frameBlend="FALSE" id="clipitem-telop-972">
						<file id="file-2"/>
						<name>！</name>
						<rate>
							<timebase>59</timebase>
							<ntsc>TRUE</ntsc>
						</rate>
						<rate>
							<timebase>59</timebase>
							<ntsc>TRUE</ntsc>
						</rate>
						<duration>60</duration>
						<start>7961</start>
						<end>8021</end>
						<in>0</in>
						<out>60</out>
					</clipitem>
					<clipitem frameBlend="FALSE" id="clipitem-telop-978">
						<file id="file-2"/>
						<name>！</name>
						<rate>
							<timebase>59</timebase>
							<ntsc>TRUE</ntsc>
						</rate>
						<rate>
							<timebase>59</timebase>
							<ntsc>TRUE</ntsc>
						</rate>
						<duration>60</duration>
						<start>8033</start>
						<end>8093</end>
						<in>0</in>
						<out>60</out>
					</clipitem>
					<clipitem frameBlend="FALSE" id="clipitem-telop-986">
						<file id="file-2"/>
						<name>！</name>
						<rate>
							<timebase>59</timebase>
							<ntsc>TRUE</ntsc>
						</rate>
						<rate>
							<timebase>59</timebase>
							<ntsc>TRUE</ntsc>
						</rate>
						<duration>65</duration>
						<start>8123</start>
						<end>8188</end>
						<in>0</in>
						<out>65</out>
					</clipitem>
					<clipitem frameBlend="FALSE" id="clipitem-telop-994">
						<file id="file-2"/>
						<name>！</name>
						<rate>
							<timebase>59</timebase>
							<ntsc>TRUE</ntsc>
						</rate>
						<rate>
							<timebase>59</timebase>
							<ntsc>TRUE</ntsc>
						</rate>
						<duration>60</duration>
						<start>8188</start>
						<end>8248</end>
						<in>0</in>
						<out>60</out>
					</clipitem>
					<clipitem frameBlend="FALSE" id="clipitem-telop-1002">
						<file id="file-2"/>
						<name>！</name>
						<rate>
							<timebase>59</timebase>
							<ntsc>TRUE</ntsc>
						</rate>
						<rate>
							<timebase>59</timebase>
							<ntsc>TRUE</ntsc>
						</rate>
						<duration>66</duration>
						<start>8248</start>
						<end>8314</end>
						<in>0</in>
						<out>66</out>
					</clipitem>
					<clipitem frameBlend="FALSE" id="clipitem-telop-1009">
						<file id="file-2"/>
						<name>！</name>
						<rate>
							<timebase>59</timebase>
							<ntsc>TRUE</ntsc>
						</rate>
						<rate>
							<timebase>59</timebase>
							<ntsc>TRUE</ntsc>
						</rate>
						<duration>60</duration>
						<start>8314</start>
						<end>8374</end>
						<in>0</in>
						<out>60</out>
					</clipitem>
					<clipitem frameBlend="FALSE" id="clipitem-telop-1014">
						<file id="file-2"/>
						<name>！</name>
						<rate>
							<timebase>59</timebase>
							<ntsc>TRUE</ntsc>
						</rate>
						<rate>
							<timebase>59</timebase>
							<ntsc>TRUE</ntsc>
						</rate>
						<duration>60</duration>
						<start>8380</start>
						<end>8440</end>
						<in>0</in>
						<out>60</out>
					</clipitem>
					<clipitem frameBlend="FALSE" id="clipitem-telop-1022">
						<file id="file-2"/>
						<name>！</name>
						<rate>
							<timebase>59</timebase>
							<ntsc>TRUE</ntsc>
						</rate>
						<rate>
							<timebase>59</timebase>
							<ntsc>TRUE</ntsc>
						</rate>
						<duration>66</duration>
						<start>8446</start>
						<end>8512</end>
						<in>0</in>
						<out>66</out>
					</clipitem>
					<clipitem frameBlend="FALSE" id="clipitem-telop-1030">
						<file id="file-2"/>
						<name>！</name>
						<rate>
							<timebase>59</timebase>
							<ntsc>TRUE</ntsc>
						</rate>
						<rate>
							<timebase>59</timebase>
							<ntsc>TRUE</ntsc>
						</rate>
						<duration>60</duration>
						<start>8512</start>
						<end>8572</end>
						<in>0</in>
						<out>60</out>
					</clipitem>
					<clipitem frameBlend="FALSE" id="clipitem-telop-1038">
						<file id="file-2"/>
						<name>あここに座っていいの?</name>
						<rate>
							<timebase>59</timebase>
							<ntsc>TRUE</ntsc>
						</rate>
						<rate>
							<timebase>59</timebase>
							<ntsc>TRUE</ntsc>
						</rate>
						<duration>60</duration>
						<start>8572</start>
						<end>8632</end>
						<in>0</in>
						<out>60</out>
					</clipitem>
					<clipitem frameBlend="FALSE" id="clipitem-telop-1045">
						<file id="file-2"/>
						<name>えもちろん</name>
						<rate>
							<timebase>59</timebase>
							<ntsc>TRUE</ntsc>
						</rate>
						<rate>
							<timebase>59</timebase>
							<ntsc>TRUE</ntsc>
						</rate>
						<duration>60</duration>
						<start>8632</start>
						<end>8692</end>
						<in>0</in>
						<out>60</out>
					</clipitem>
					<clipitem frameBlend="FALSE" id="clipitem-telop-1050">
						<file id="file-2"/>
						<name>！</name>
						<rate>
							<timebase>59</timebase>
							<ntsc>TRUE</ntsc>
						</rate>
						<rate>
							<timebase>59</timebase>
							<ntsc>TRUE</ntsc>
						</rate>
						<duration>60</duration>
						<start>8698</start>
						<end>8758</end>
						<in>0</in>
						<out>60</out>
					</clipitem>
					<clipitem frameBlend="FALSE" id="clipitem-telop-1055">
						<file id="file-2"/>
						<name>！</name>
						<rate>
							<timebase>59</timebase>
							<ntsc>TRUE</ntsc>
						</rate>
						<rate>
							<timebase>59</timebase>
							<ntsc>TRUE</ntsc>
						</rate>
						<duration>66</duration>
						<start>8806</start>
						<end>8872</end>
						<in>0</in>
						<out>66</out>
					</clipitem>
					<clipitem frameBlend="FALSE" id="clipitem-telop-1063">
						<file id="file-2"/>
						<name>！</name>
						<rate>
							<timebase>59</timebase>
							<ntsc>TRUE</ntsc>
						</rate>
						<rate>
							<timebase>59</timebase>
							<ntsc>TRUE</ntsc>
						</rate>
						<duration>60</duration>
						<start>8872</start>
						<end>8932</end>
						<in>0</in>
						<out>60</out>
					</clipitem>
					<clipitem frameBlend="FALSE" id="clipitem-telop-1074">
						<file id="file-2"/>
						<name>！</name>
						<rate>
							<timebase>59</timebase>
							<ntsc>TRUE</ntsc>
						</rate>
						<rate>
							<timebase>59</timebase>
							<ntsc>TRUE</ntsc>
						</rate>
						<duration>60</duration>
						<start>8944</start>
						<end>9004</end>
						<in>0</in>
						<out>60</out>
					</clipitem>
					<clipitem frameBlend="FALSE" id="clipitem-telop-1082">
						<file id="file-2"/>
						<name>！</name>
						<rate>
							<timebase>59</timebase>
							<ntsc>TRUE</ntsc>
						</rate>
						<rate>
							<timebase>59</timebase>
							<ntsc>TRUE</ntsc>
						</rate>
						<duration>60</duration>
						<start>9010</start>
						<end>9070</end>
						<in>0</in>
						<out>60</out>
					</clipitem>
					<clipitem frameBlend="FALSE" id="clipitem-telop-1089">
						<file id="file-2"/>
						<name>！</name>
						<rate>
							<timebase>59</timebase>
							<ntsc>TRUE</ntsc>
						</rate>
						<rate>
							<timebase>59</timebase>
							<ntsc>TRUE</ntsc>
						</rate>
						<duration>60</duration>
						<start>9088</start>
						<end>9148</end>
						<in>0</in>
						<out>60</out>
					</clipitem>
					<clipitem frameBlend="FALSE" id="clipitem-telop-1100">
						<file id="file-2"/>
						<name>！</name>
						<rate>
							<timebase>59</timebase>
							<ntsc>TRUE</ntsc>
						</rate>
						<rate>
							<timebase>59</timebase>
							<ntsc>TRUE</ntsc>
						</rate>
						<duration>60</duration>
						<start>9148</start>
						<end>9208</end>
						<in>0</in>
						<out>60</out>
					</clipitem>
					<clipitem frameBlend="FALSE" id="clipitem-telop-1106">
						<file id="file-2"/>
						<name>！</name>
						<rate>
							<timebase>59</timebase>
							<ntsc>TRUE</ntsc>
						</rate>
						<rate>
							<timebase>59</timebase>
							<ntsc>TRUE</ntsc>
						</rate>
						<duration>60</duration>
						<start>9214</start>
						<end>9274</end>
						<in>0</in>
						<out>60</out>
					</clipitem>
					<clipitem frameBlend="FALSE" id="clipitem-telop-1116">
						<file id="file-2"/>
						<name>！</name>
						<rate>
							<timebase>59</timebase>
							<ntsc>TRUE</ntsc>
						</rate>
						<rate>
							<timebase>59</timebase>
							<ntsc>TRUE</ntsc>
						</rate>
						<duration>60</duration>
						<start>9274</start>
						<end>9334</end>
						<in>0</in>
						<out>60</out>
					</clipitem>
					<clipitem frameBlend="FALSE" id="clipitem-telop-1125">
						<file id="file-2"/>
						<name>！</name>
						<rate>
							<timebase>59</timebase>
							<ntsc>TRUE</ntsc>
						</rate>
						<rate>
							<timebase>59</timebase>
							<ntsc>TRUE</ntsc>
						</rate>
						<duration>60</duration>
						<start>9334</start>
						<end>9394</end>
						<in>0</in>
						<out>60</out>
					</clipitem>
					<clipitem frameBlend="FALSE" id="clipitem-telop-1133">
						<file id="file-2"/>
						<name>！</name>
						<rate>
							<timebase>59</timebase>
							<ntsc>TRUE</ntsc>
						</rate>
						<rate>
							<timebase>59</timebase>
							<ntsc>TRUE</ntsc>
						</rate>
						<duration>60</duration>
						<start>9400</start>
						<end>9460</end>
						<in>0</in>
						<out>60</out>
					</clipitem>
					<clipitem frameBlend="FALSE" id="clipitem-telop-1146">
						<file id="file-2"/>
						<name>ミルクお嬢様</name>
						<rate>
							<timebase>59</timebase>
							<ntsc>TRUE</ntsc>
						</rate>
						<rate>
							<timebase>59</timebase>
							<ntsc>TRUE</ntsc>
						</rate>
						<duration>60</duration>
						<start>9472</start>
						<end>9532</end>
						<in>0</in>
						<out>60</out>
					</clipitem>
					<clipitem frameBlend="FALSE" id="clipitem-telop-1153">
						<file id="file-2"/>
						<name>何?</name>
						<rate>
							<timebase>59</timebase>
							<ntsc>TRUE</ntsc>
						</rate>
						<rate>
							<timebase>59</timebase>
							<ntsc>TRUE</ntsc>
						</rate>
						<duration>60</duration>
						<start>9532</start>
						<end>9592</end>
						<in>0</in>
						<out>60</out>
					</clipitem>
					<clipitem frameBlend="FALSE" id="clipitem-telop-1159">
						<file id="file-2"/>
						<name>職場でのお話聞かせてください</name>
						<rate>
							<timebase>59</timebase>
							<ntsc>TRUE</ntsc>
						</rate>
						<rate>
							<timebase>59</timebase>
							<ntsc>TRUE</ntsc>
						</rate>
						<duration>120</duration>
						<start>9592</start>
						<end>9712</end>
						<in>0</in>
						<out>120</out>
					</clipitem>
					<clipitem frameBlend="FALSE" id="clipitem-telop-1173">
						<file id="file-2"/>
						<name>職場はミルクの話はどうでもいいんだけど</name>
						<rate>
							<timebase>59</timebase>
							<ntsc>TRUE</ntsc>
						</rate>
						<rate>
							<timebase>59</timebase>
							<ntsc>TRUE</ntsc>
						</rate>
						<duration>240</duration>
						<start>9712</start>
						<end>9952</end>
						<in>0</in>
						<out>240</out>
					</clipitem>
					<clipitem frameBlend="FALSE" id="clipitem-telop-1194">
						<file id="file-2"/>
						<name>何の話聞かせてほしいな</name>
						<rate>
							<timebase>59</timebase>
							<ntsc>TRUE</ntsc>
						</rate>
						<rate>
							<timebase>59</timebase>
							<ntsc>TRUE</ntsc>
						</rate>
						<duration>180</duration>
						<start>9952</start>
						<end>10132</end>
						<in>0</in>
						<out>180</out>
					</clipitem>
					<clipitem frameBlend="FALSE" id="clipitem-telop-1210">
						<file id="file-2"/>
						<name>！</name>
						<rate>
							<timebase>59</timebase>
							<ntsc>TRUE</ntsc>
						</rate>
						<rate>
							<timebase>59</timebase>
							<ntsc>TRUE</ntsc>
						</rate>
						<duration>60</duration>
						<start>10132</start>
						<end>10192</end>
						<in>0</in>
						<out>60</out>
					</clipitem>
					<clipitem frameBlend="FALSE" id="clipitem-telop-1220">
						<file id="file-2"/>
						<name>！</name>
						<rate>
							<timebase>59</timebase>
							<ntsc>TRUE</ntsc>
						</rate>
						<rate>
							<timebase>59</timebase>
							<ntsc>TRUE</ntsc>
						</rate>
						<duration>60</duration>
						<start>10192</start>
						<end>10252</end>
						<in>0</in>
						<out>60</out>
					</clipitem>
					<clipitem frameBlend="FALSE" id="clipitem-telop-1225">
						<file id="file-2"/>
						<name>！</name>
						<rate>
							<timebase>59</timebase>
							<ntsc>TRUE</ntsc>
						</rate>
						<rate>
							<timebase>59</timebase>
							<ntsc>TRUE</ntsc>
						</rate>
						<duration>60</duration>
						<start>10276</start>
						<end>10336</end>
						<in>0</in>
						<out>60</out>
					</clipitem>
					<clipitem frameBlend="FALSE" id="clipitem-telop-1229">
						<file id="file-2"/>
						<name>！</name>
						<rate>
							<timebase>59</timebase>
							<ntsc>TRUE</ntsc>
						</rate>
						<rate>
							<timebase>59</timebase>
							<ntsc>TRUE</ntsc>
						</rate>
						<duration>60</duration>
						<start>10336</start>
						<end>10396</end>
						<in>0</in>
						<out>60</out>
					</clipitem>
					<clipitem frameBlend="FALSE" id="clipitem-telop-1237">
						<file id="file-2"/>
						<name>！</name>
						<rate>
							<timebase>59</timebase>
							<ntsc>TRUE</ntsc>
						</rate>
						<rate>
							<timebase>59</timebase>
							<ntsc>TRUE</ntsc>
						</rate>
						<duration>60</duration>
						<start>10402</start>
						<end>10462</end>
						<in>0</in>
						<out>60</out>
					</clipitem>
					<clipitem frameBlend="FALSE" id="clipitem-telop-1241">
						<file id="file-2"/>
						<name>！</name>
						<rate>
							<timebase>59</timebase>
							<ntsc>TRUE</ntsc>
						</rate>
						<rate>
							<timebase>59</timebase>
							<ntsc>TRUE</ntsc>
						</rate>
						<duration>60</duration>
						<start>10468</start>
						<end>10528</end>
						<in>0</in>
						<out>60</out>
					</clipitem>
					<clipitem frameBlend="FALSE" id="clipitem-telop-1245">
						<file id="file-2"/>
						<name>！</name>
						<rate>
							<timebase>59</timebase>
							<ntsc>TRUE</ntsc>
						</rate>
						<rate>
							<timebase>59</timebase>
							<ntsc>TRUE</ntsc>
						</rate>
						<duration>66</duration>
						<start>10534</start>
						<end>10600</end>
						<in>0</in>
						<out>66</out>
					</clipitem>
					<clipitem frameBlend="FALSE" id="clipitem-telop-1254">
						<file id="file-2"/>
						<name>！</name>
						<rate>
							<timebase>59</timebase>
							<ntsc>TRUE</ntsc>
						</rate>
						<rate>
							<timebase>59</timebase>
							<ntsc>TRUE</ntsc>
						</rate>
						<duration>60</duration>
						<start>10600</start>
						<end>10660</end>
						<in>0</in>
						<out>60</out>
					</clipitem>
					<clipitem frameBlend="FALSE" id="clipitem-telop-1264">
						<file id="file-2"/>
						<name>！</name>
						<rate>
							<timebase>59</timebase>
							<ntsc>TRUE</ntsc>
						</rate>
						<rate>
							<timebase>59</timebase>
							<ntsc>TRUE</ntsc>
						</rate>
						<duration>60</duration>
						<start>10666</start>
						<end>10726</end>
						<in>0</in>
						<out>60</out>
					</clipitem>
					<clipitem frameBlend="FALSE" id="clipitem-telop-1275">
						<file id="file-2"/>
						<name>！</name>
						<rate>
							<timebase>59</timebase>
							<ntsc>TRUE</ntsc>
						</rate>
						<rate>
							<timebase>59</timebase>
							<ntsc>TRUE</ntsc>
						</rate>
						<duration>66</duration>
						<start>10732</start>
						<end>10798</end>
						<in>0</in>
						<out>66</out>
					</clipitem>
					<clipitem frameBlend="FALSE" id="clipitem-telop-1282">
						<file id="file-2"/>
						<name>！</name>
						<rate>
							<timebase>59</timebase>
							<ntsc>TRUE</ntsc>
						</rate>
						<rate>
							<timebase>59</timebase>
							<ntsc>TRUE</ntsc>
						</rate>
						<duration>66</duration>
						<start>10810</start>
						<end>10876</end>
						<in>0</in>
						<out>66</out>
					</clipitem>
					<clipitem frameBlend="FALSE" id="clipitem-telop-1290">
						<file id="file-2"/>
						<name>！</name>
						<rate>
							<timebase>59</timebase>
							<ntsc>TRUE</ntsc>
						</rate>
						<rate>
							<timebase>59</timebase>
							<ntsc>TRUE</ntsc>
						</rate>
						<duration>60</duration>
						<start>10882</start>
						<end>10942</end>
						<in>0</in>
						<out>60</out>
					</clipitem>
					<clipitem frameBlend="FALSE" id="clipitem-telop-1295">
						<file id="file-2"/>
						<name>！</name>
						<rate>
							<timebase>59</timebase>
							<ntsc>TRUE</ntsc>
						</rate>
						<rate>
							<timebase>59</timebase>
							<ntsc>TRUE</ntsc>
						</rate>
						<duration>66</duration>
						<start>10942</start>
						<end>11008</end>
						<in>0</in>
						<out>66</out>
					</clipitem>
					<clipitem frameBlend="FALSE" id="clipitem-telop-1305">
						<file id="file-2"/>
						<name>！</name>
						<rate>
							<timebase>59</timebase>
							<ntsc>TRUE</ntsc>
						</rate>
						<rate>
							<timebase>59</timebase>
							<ntsc>TRUE</ntsc>
						</rate>
						<duration>60</duration>
						<start>11008</start>
						<end>11068</end>
						<in>0</in>
						<out>60</out>
					</clipitem>
					<clipitem frameBlend="FALSE" id="clipitem-telop-1313">
						<file id="file-2"/>
						<name>！</name>
						<rate>
							<timebase>59</timebase>
							<ntsc>TRUE</ntsc>
						</rate>
						<rate>
							<timebase>59</timebase>
							<ntsc>TRUE</ntsc>
						</rate>
						<duration>60</duration>
						<start>11068</start>
						<end>11128</end>
						<in>0</in>
						<out>60</out>
					</clipitem>
					<clipitem frameBlend="FALSE" id="clipitem-telop-1320">
						<file id="file-2"/>
						<name>！</name>
						<rate>
							<timebase>59</timebase>
							<ntsc>TRUE</ntsc>
						</rate>
						<rate>
							<timebase>59</timebase>
							<ntsc>TRUE</ntsc>
						</rate>
						<duration>60</duration>
						<start>11140</start>
						<end>11200</end>
						<in>0</in>
						<out>60</out>
					</clipitem>
					<clipitem frameBlend="FALSE" id="clipitem-telop-1327">
						<file id="file-2"/>
						<name>！</name>
						<rate>
							<timebase>59</timebase>
							<ntsc>TRUE</ntsc>
						</rate>
						<rate>
							<timebase>59</timebase>
							<ntsc>TRUE</ntsc>
						</rate>
						<duration>60</duration>
						<start>11206</start>
						<end>11266</end>
						<in>0</in>
						<out>60</out>
					</clipitem>
					<clipitem frameBlend="FALSE" id="clipitem-telop-1332">
						<file id="file-2"/>
						<name>！</name>
						<rate>
							<timebase>59</timebase>
							<ntsc>TRUE</ntsc>
						</rate>
						<rate>
							<timebase>59</timebase>
							<ntsc>TRUE</ntsc>
						</rate>
						<duration>60</duration>
						<start>11266</start>
						<end>11326</end>
						<in>0</in>
						<out>60</out>
					</clipitem>
					<clipitem frameBlend="FALSE" id="clipitem-telop-1338">
						<file id="file-2"/>
						<name>！</name>
						<rate>
							<timebase>59</timebase>
							<ntsc>TRUE</ntsc>
						</rate>
						<rate>
							<timebase>59</timebase>
							<ntsc>TRUE</ntsc>
						</rate>
						<duration>60</duration>
						<start>11326</start>
						<end>11386</end>
						<in>0</in>
						<out>60</out>
					</clipitem>
					<clipitem frameBlend="FALSE" id="clipitem-telop-1346">
						<file id="file-2"/>
						<name>！</name>
						<rate>
							<timebase>59</timebase>
							<ntsc>TRUE</ntsc>
						</rate>
						<rate>
							<timebase>59</timebase>
							<ntsc>TRUE</ntsc>
						</rate>
						<duration>60</duration>
						<start>11386</start>
						<end>11446</end>
						<in>0</in>
						<out>60</out>
					</clipitem>
					<clipitem frameBlend="FALSE" id="clipitem-telop-1353">
						<file id="file-2"/>
						<name>！</name>
						<rate>
							<timebase>59</timebase>
							<ntsc>TRUE</ntsc>
						</rate>
						<rate>
							<timebase>59</timebase>
							<ntsc>TRUE</ntsc>
						</rate>
						<duration>60</duration>
						<start>11446</start>
						<end>11506</end>
						<in>0</in>
						<out>60</out>
					</clipitem>
					<clipitem frameBlend="FALSE" id="clipitem-telop-1360">
						<file id="file-2"/>
						<name>！</name>
						<rate>
							<timebase>59</timebase>
							<ntsc>TRUE</ntsc>
						</rate>
						<rate>
							<timebase>59</timebase>
							<ntsc>TRUE</ntsc>
						</rate>
						<duration>60</duration>
						<start>11506</start>
						<end>11566</end>
						<in>0</in>
						<out>60</out>
					</clipitem>
					<clipitem frameBlend="FALSE" id="clipitem-telop-1370">
						<file id="file-2"/>
						<name>w</name>
						<rate>
							<timebase>59</timebase>
							<ntsc>TRUE</ntsc>
						</rate>
						<rate>
							<timebase>59</timebase>
							<ntsc>TRUE</ntsc>
						</rate>
						<duration>30</duration>
						<start>11614</start>
						<end>11644</end>
						<in>0</in>
						<out>30</out>
					</clipitem>
					<clipitem frameBlend="FALSE" id="clipitem-telop-1375">
						<file id="file-2"/>
						<name>！</name>
						<rate>
							<timebase>59</timebase>
							<ntsc>TRUE</ntsc>
						</rate>
						<rate>
							<timebase>59</timebase>
							<ntsc>TRUE</ntsc>
						</rate>
						<duration>66</duration>
						<start>11644</start>
						<end>11710</end>
						<in>0</in>
						<out>66</out>
					</clipitem>
					<clipitem frameBlend="FALSE" id="clipitem-telop-1386">
						<file id="file-2"/>
						<name>！</name>
						<rate>
							<timebase>59</timebase>
							<ntsc>TRUE</ntsc>
						</rate>
						<rate>
							<timebase>59</timebase>
							<ntsc>TRUE</ntsc>
						</rate>
						<duration>60</duration>
						<start>11716</start>
						<end>11776</end>
						<in>0</in>
						<out>60</out>
					</clipitem>
					<clipitem frameBlend="FALSE" id="clipitem-telop-1394">
						<file id="file-2"/>
						<name>！</name>
						<rate>
							<timebase>59</timebase>
							<ntsc>TRUE</ntsc>
						</rate>
						<rate>
							<timebase>59</timebase>
							<ntsc>TRUE</ntsc>
						</rate>
						<duration>60</duration>
						<start>11776</start>
						<end>11836</end>
						<in>0</in>
						<out>60</out>
					</clipitem>
					<clipitem frameBlend="FALSE" id="clipitem-telop-1400">
						<file id="file-2"/>
						<name>！</name>
						<rate>
							<timebase>59</timebase>
							<ntsc>TRUE</ntsc>
						</rate>
						<rate>
							<timebase>59</timebase>
							<ntsc>TRUE</ntsc>
						</rate>
						<duration>60</duration>
						<start>11836</start>
						<end>11896</end>
						<in>0</in>
						<out>60</out>
					</clipitem>
					<clipitem frameBlend="FALSE" id="clipitem-telop-1409">
						<file id="file-2"/>
						<name>！</name>
						<rate>
							<timebase>59</timebase>
							<ntsc>TRUE</ntsc>
						</rate>
						<rate>
							<timebase>59</timebase>
							<ntsc>TRUE</ntsc>
						</rate>
						<duration>60</duration>
						<start>11896</start>
						<end>11956</end>
						<in>0</in>
						<out>60</out>
					</clipitem>
					<clipitem frameBlend="FALSE" id="clipitem-telop-1417">
						<file id="file-2"/>
						<name>！</name>
						<rate>
							<timebase>59</timebase>
							<ntsc>TRUE</ntsc>
						</rate>
						<rate>
							<timebase>59</timebase>
							<ntsc>TRUE</ntsc>
						</rate>
						<duration>60</duration>
						<start>11968</start>
						<end>12028</end>
						<in>0</in>
						<out>60</out>
					</clipitem>
					<clipitem frameBlend="FALSE" id="clipitem-telop-1424">
						<file id="file-2"/>
						<name>w</name>
						<rate>
							<timebase>59</timebase>
							<ntsc>TRUE</ntsc>
						</rate>
						<rate>
							<timebase>59</timebase>
							<ntsc>TRUE</ntsc>
						</rate>
						<duration>24</duration>
						<start>12034</start>
						<end>12058</end>
						<in>0</in>
						<out>24</out>
					</clipitem>
					<clipitem frameBlend="FALSE" id="clipitem-telop-1430">
						<file id="file-2"/>
						<name>！</name>
						<rate>
							<timebase>59</timebase>
							<ntsc>TRUE</ntsc>
						</rate>
						<rate>
							<timebase>59</timebase>
							<ntsc>TRUE</ntsc>
						</rate>
						<duration>60</duration>
						<start>12058</start>
						<end>12118</end>
						<in>0</in>
						<out>60</out>
					</clipitem>
					<clipitem frameBlend="FALSE" id="clipitem-telop-1438">
						<file id="file-2"/>
						<name>！</name>
						<rate>
							<timebase>59</timebase>
							<ntsc>TRUE</ntsc>
						</rate>
						<rate>
							<timebase>59</timebase>
							<ntsc>TRUE</ntsc>
						</rate>
						<duration>66</duration>
						<start>12118</start>
						<end>12184</end>
						<in>0</in>
						<out>66</out>
					</clipitem>
					<clipitem frameBlend="FALSE" id="clipitem-telop-1444">
						<file id="file-2"/>
						<name>！</name>
						<rate>
							<timebase>59</timebase>
							<ntsc>TRUE</ntsc>
						</rate>
						<rate>
							<timebase>59</timebase>
							<ntsc>TRUE</ntsc>
						</rate>
						<duration>60</duration>
						<start>12196</start>
						<end>12256</end>
						<in>0</in>
						<out>60</out>
					</clipitem>
					<clipitem frameBlend="FALSE" id="clipitem-telop-1456">
						<file id="file-2"/>
						<name>！</name>
						<rate>
							<timebase>59</timebase>
							<ntsc>TRUE</ntsc>
						</rate>
						<rate>
							<timebase>59</timebase>
							<ntsc>TRUE</ntsc>
						</rate>
						<duration>60</duration>
						<start>12256</start>
						<end>12316</end>
						<in>0</in>
						<out>60</out>
					</clipitem>
					<clipitem frameBlend="FALSE" id="clipitem-telop-1463">
						<file id="file-2"/>
						<name>！</name>
						<rate>
							<timebase>59</timebase>
							<ntsc>TRUE</ntsc>
						</rate>
						<rate>
							<timebase>59</timebase>
							<ntsc>TRUE</ntsc>
						</rate>
						<duration>60</duration>
						<start>12328</start>
						<end>12388</end>
						<in>0</in>
						<out>60</out>
					</clipitem>
					<clipitem frameBlend="FALSE" id="clipitem-telop-1468">
						<file id="file-2"/>
						<name>！</name>
						<rate>
							<timebase>59</timebase>
							<ntsc>TRUE</ntsc>
						</rate>
						<rate>
							<timebase>59</timebase>
							<ntsc>TRUE</ntsc>
						</rate>
						<duration>60</duration>
						<start>12394</start>
						<end>12454</end>
						<in>0</in>
						<out>60</out>
					</clipitem>
					<clipitem frameBlend="FALSE" id="clipitem-telop-1474">
						<file id="file-2"/>
						<name>！</name>
						<rate>
							<timebase>59</timebase>
							<ntsc>TRUE</ntsc>
						</rate>
						<rate>
							<timebase>59</timebase>
							<ntsc>TRUE</ntsc>
						</rate>
						<duration>66</duration>
						<start>12454</start>
						<end>12520</end>
						<in>0</in>
						<out>66</out>
					</clipitem>
					<clipitem frameBlend="FALSE" id="clipitem-telop-1483">
						<file id="file-2"/>
						<name>！</name>
						<rate>
							<timebase>59</timebase>
							<ntsc>TRUE</ntsc>
						</rate>
						<rate>
							<timebase>59</timebase>
							<ntsc>TRUE</ntsc>
						</rate>
						<duration>60</duration>
						<start>12520</start>
						<end>12580</end>
						<in>0</in>
						<out>60</out>
					</clipitem>
					<clipitem frameBlend="FALSE" id="clipitem-telop-1490">
						<file id="file-2"/>
						<name>！</name>
						<rate>
							<timebase>59</timebase>
							<ntsc>TRUE</ntsc>
						</rate>
						<rate>
							<timebase>59</timebase>
							<ntsc>TRUE</ntsc>
						</rate>
						<duration>60</duration>
						<start>12592</start>
						<end>12652</end>
						<in>0</in>
						<out>60</out>
					</clipitem>
					<clipitem frameBlend="FALSE" id="clipitem-telop-1504">
						<file id="file-2"/>
						<name>！</name>
						<rate>
							<timebase>59</timebase>
							<ntsc>TRUE</ntsc>
						</rate>
						<rate>
							<timebase>59</timebase>
							<ntsc>TRUE</ntsc>
						</rate>
						<duration>66</duration>
						<start>12652</start>
						<end>12718</end>
						<in>0</in>
						<out>66</out>
					</clipitem>
					<clipitem frameBlend="FALSE" id="clipitem-telop-1511">
						<file id="file-2"/>
						<name>！</name>
						<rate>
							<timebase>59</timebase>
							<ntsc>TRUE</ntsc>
						</rate>
						<rate>
							<timebase>59</timebase>
							<ntsc>TRUE</ntsc>
						</rate>
						<duration>66</duration>
						<start>12724</start>
						<end>12790</end>
						<in>0</in>
						<out>66</out>
					</clipitem>
					<clipitem frameBlend="FALSE" id="clipitem-telop-1520">
						<file id="file-2"/>
						<name>！</name>
						<rate>
							<timebase>59</timebase>
							<ntsc>TRUE</ntsc>
						</rate>
						<rate>
							<timebase>59</timebase>
							<ntsc>TRUE</ntsc>
						</rate>
						<duration>60</duration>
						<start>12790</start>
						<end>12850</end>
						<in>0</in>
						<out>60</out>
					</clipitem>
					<clipitem frameBlend="FALSE" id="clipitem-telop-1525">
						<file id="file-2"/>
						<name>！</name>
						<rate>
							<timebase>59</timebase>
							<ntsc>TRUE</ntsc>
						</rate>
						<rate>
							<timebase>59</timebase>
							<ntsc>TRUE</ntsc>
						</rate>
						<duration>60</duration>
						<start>12850</start>
						<end>12910</end>
						<in>0</in>
						<out>60</out>
					</clipitem>
					<clipitem frameBlend="FALSE" id="clipitem-telop-1533">
						<file id="file-2"/>
						<name>！</name>
						<rate>
							<timebase>59</timebase>
							<ntsc>TRUE</ntsc>
						</rate>
						<rate>
							<timebase>59</timebase>
							<ntsc>TRUE</ntsc>
						</rate>
						<duration>60</duration>
						<start>12922</start>
						<end>12982</end>
						<in>0</in>
						<out>60</out>
					</clipitem>
					<clipitem frameBlend="FALSE" id="clipitem-telop-1539">
						<file id="file-2"/>
						<name>！</name>
						<rate>
							<timebase>59</timebase>
							<ntsc>TRUE</ntsc>
						</rate>
						<rate>
							<timebase>59</timebase>
							<ntsc>TRUE</ntsc>
						</rate>
						<duration>60</duration>
						<start>12982</start>
						<end>13042</end>
						<in>0</in>
						<out>60</out>
					</clipitem>
					<clipitem frameBlend="FALSE" id="clipitem-telop-1546">
						<file id="file-2"/>
						<name>！</name>
						<rate>
							<timebase>59</timebase>
							<ntsc>TRUE</ntsc>
						</rate>
						<rate>
							<timebase>59</timebase>
							<ntsc>TRUE</ntsc>
						</rate>
						<duration>66</duration>
						<start>13042</start>
						<end>13108</end>
						<in>0</in>
						<out>66</out>
					</clipitem>
					<clipitem frameBlend="FALSE" id="clipitem-telop-1555">
						<file id="file-2"/>
						<name>！</name>
						<rate>
							<timebase>59</timebase>
							<ntsc>TRUE</ntsc>
						</rate>
						<rate>
							<timebase>59</timebase>
							<ntsc>TRUE</ntsc>
						</rate>
						<duration>60</duration>
						<start>13120</start>
						<end>13180</end>
						<in>0</in>
						<out>60</out>
					</clipitem>
					<clipitem frameBlend="FALSE" id="clipitem-telop-1559">
						<file id="file-2"/>
						<name>！</name>
						<rate>
							<timebase>59</timebase>
							<ntsc>TRUE</ntsc>
						</rate>
						<rate>
							<timebase>59</timebase>
							<ntsc>TRUE</ntsc>
						</rate>
						<duration>60</duration>
						<start>13192</start>
						<end>13252</end>
						<in>0</in>
						<out>60</out>
					</clipitem>
					<clipitem frameBlend="FALSE" id="clipitem-telop-1567">
						<file id="file-2"/>
						<name>！</name>
						<rate>
							<timebase>59</timebase>
							<ntsc>TRUE</ntsc>
						</rate>
						<rate>
							<timebase>59</timebase>
							<ntsc>TRUE</ntsc>
						</rate>
						<duration>60</duration>
						<start>13252</start>
						<end>13312</end>
						<in>0</in>
						<out>60</out>
					</clipitem>
					<clipitem frameBlend="FALSE" id="clipitem-telop-1577">
						<file id="file-2"/>
						<name>！</name>
						<rate>
							<timebase>59</timebase>
							<ntsc>TRUE</ntsc>
						</rate>
						<rate>
							<timebase>59</timebase>
							<ntsc>TRUE</ntsc>
						</rate>
						<duration>60</duration>
						<start>13348</start>
						<end>13408</end>
						<in>0</in>
						<out>60</out>
					</clipitem>
					<clipitem frameBlend="FALSE" id="clipitem-telop-1585">
						<file id="file-2"/>
						<name>！</name>
						<rate>
							<timebase>59</timebase>
							<ntsc>TRUE</ntsc>
						</rate>
						<rate>
							<timebase>59</timebase>
							<ntsc>TRUE</ntsc>
						</rate>
						<duration>60</duration>
						<start>13414</start>
						<end>13474</end>
						<in>0</in>
						<out>60</out>
					</clipitem>
					<clipitem frameBlend="FALSE" id="clipitem-telop-1589">
						<file id="file-2"/>
						<name>！</name>
						<rate>
							<timebase>59</timebase>
							<ntsc>TRUE</ntsc>
						</rate>
						<rate>
							<timebase>59</timebase>
							<ntsc>TRUE</ntsc>
						</rate>
						<duration>60</duration>
						<start>13474</start>
						<end>13534</end>
						<in>0</in>
						<out>60</out>
					</clipitem>
					<clipitem frameBlend="FALSE" id="clipitem-telop-1599">
						<file id="file-2"/>
						<name>！</name>
						<rate>
							<timebase>59</timebase>
							<ntsc>TRUE</ntsc>
						</rate>
						<rate>
							<timebase>59</timebase>
							<ntsc>TRUE</ntsc>
						</rate>
						<duration>60</duration>
						<start>13534</start>
						<end>13594</end>
						<in>0</in>
						<out>60</out>
					</clipitem>
					<clipitem frameBlend="FALSE" id="clipitem-telop-1606">
						<file id="file-2"/>
						<name>！</name>
						<rate>
							<timebase>59</timebase>
							<ntsc>TRUE</ntsc>
						</rate>
						<rate>
							<timebase>59</timebase>
							<ntsc>TRUE</ntsc>
						</rate>
						<duration>60</duration>
						<start>13594</start>
						<end>13654</end>
						<in>0</in>
						<out>60</out>
					</clipitem>
					<clipitem frameBlend="FALSE" id="clipitem-telop-1614">
						<file id="file-2"/>
						<name>！</name>
						<rate>
							<timebase>59</timebase>
							<ntsc>TRUE</ntsc>
						</rate>
						<rate>
							<timebase>59</timebase>
							<ntsc>TRUE</ntsc>
						</rate>
						<duration>60</duration>
						<start>13654</start>
						<end>13714</end>
						<in>0</in>
						<out>60</out>
					</clipitem>
					<clipitem frameBlend="FALSE" id="clipitem-telop-1621">
						<file id="file-2"/>
						<name>！</name>
						<rate>
							<timebase>59</timebase>
							<ntsc>TRUE</ntsc>
						</rate>
						<rate>
							<timebase>59</timebase>
							<ntsc>TRUE</ntsc>
						</rate>
						<duration>60</duration>
						<start>13714</start>
						<end>13774</end>
						<in>0</in>
						<out>60</out>
					</clipitem>
					<clipitem frameBlend="FALSE" id="clipitem-telop-1628">
						<file id="file-2"/>
						<name>！</name>
						<rate>
							<timebase>59</timebase>
							<ntsc>TRUE</ntsc>
						</rate>
						<rate>
							<timebase>59</timebase>
							<ntsc>TRUE</ntsc>
						</rate>
						<duration>60</duration>
						<start>13774</start>
						<end>13834</end>
						<in>0</in>
						<out>60</out>
					</clipitem>
					<clipitem frameBlend="FALSE" id="clipitem-telop-1638">
						<file id="file-2"/>
						<name>！</name>
						<rate>
							<timebase>59</timebase>
							<ntsc>TRUE</ntsc>
						</rate>
						<rate>
							<timebase>59</timebase>
							<ntsc>TRUE</ntsc>
						</rate>
						<duration>60</duration>
						<start>13858</start>
						<end>13918</end>
						<in>0</in>
						<out>60</out>
					</clipitem>
					<clipitem frameBlend="FALSE" id="clipitem-telop-1645">
						<file id="file-2"/>
						<name>！</name>
						<rate>
							<timebase>59</timebase>
							<ntsc>TRUE</ntsc>
						</rate>
						<rate>
							<timebase>59</timebase>
							<ntsc>TRUE</ntsc>
						</rate>
						<duration>66</duration>
						<start>13918</start>
						<end>13984</end>
						<in>0</in>
						<out>66</out>
					</clipitem>
					<clipitem frameBlend="FALSE" id="clipitem-telop-1654">
						<file id="file-2"/>
						<name>！</name>
						<rate>
							<timebase>59</timebase>
							<ntsc>TRUE</ntsc>
						</rate>
						<rate>
							<timebase>59</timebase>
							<ntsc>TRUE</ntsc>
						</rate>
						<duration>60</duration>
						<start>13990</start>
						<end>14050</end>
						<in>0</in>
						<out>60</out>
					</clipitem>
					<clipitem frameBlend="FALSE" id="clipitem-telop-1660">
						<file id="file-2"/>
						<name>！</name>
						<rate>
							<timebase>59</timebase>
							<ntsc>TRUE</ntsc>
						</rate>
						<rate>
							<timebase>59</timebase>
							<ntsc>TRUE</ntsc>
						</rate>
						<duration>60</duration>
						<start>14050</start>
						<end>14110</end>
						<in>0</in>
						<out>60</out>
					</clipitem>
					<clipitem frameBlend="FALSE" id="clipitem-telop-1666">
						<file id="file-2"/>
						<name>！</name>
						<rate>
							<timebase>59</timebase>
							<ntsc>TRUE</ntsc>
						</rate>
						<rate>
							<timebase>59</timebase>
							<ntsc>TRUE</ntsc>
						</rate>
						<duration>60</duration>
						<start>14122</start>
						<end>14182</end>
						<in>0</in>
						<out>60</out>
					</clipitem>
					<clipitem frameBlend="FALSE" id="clipitem-telop-1675">
						<file id="file-2"/>
						<name>！</name>
						<rate>
							<timebase>59</timebase>
							<ntsc>TRUE</ntsc>
						</rate>
						<rate>
							<timebase>59</timebase>
							<ntsc>TRUE</ntsc>
						</rate>
						<duration>60</duration>
						<start>14182</start>
						<end>14242</end>
						<in>0</in>
						<out>60</out>
					</clipitem>
					<clipitem frameBlend="FALSE" id="clipitem-telop-1685">
						<file id="file-2"/>
						<name>！</name>
						<rate>
							<timebase>59</timebase>
							<ntsc>TRUE</ntsc>
						</rate>
						<rate>
							<timebase>59</timebase>
							<ntsc>TRUE</ntsc>
						</rate>
						<duration>60</duration>
						<start>14242</start>
						<end>14302</end>
						<in>0</in>
						<out>60</out>
					</clipitem>
					<clipitem frameBlend="FALSE" id="clipitem-telop-1690">
						<file id="file-2"/>
						<name>！</name>
						<rate>
							<timebase>59</timebase>
							<ntsc>TRUE</ntsc>
						</rate>
						<rate>
							<timebase>59</timebase>
							<ntsc>TRUE</ntsc>
						</rate>
						<duration>60</duration>
						<start>14308</start>
						<end>14368</end>
						<in>0</in>
						<out>60</out>
					</clipitem>
					<clipitem frameBlend="FALSE" id="clipitem-telop-1699">
						<file id="file-2"/>
						<name>！</name>
						<rate>
							<timebase>59</timebase>
							<ntsc>TRUE</ntsc>
						</rate>
						<rate>
							<timebase>59</timebase>
							<ntsc>TRUE</ntsc>
						</rate>
						<duration>60</duration>
						<start>14374</start>
						<end>14434</end>
						<in>0</in>
						<out>60</out>
					</clipitem>
					<clipitem frameBlend="FALSE" id="clipitem-telop-1703">
						<file id="file-2"/>
						<name>！</name>
						<rate>
							<timebase>59</timebase>
							<ntsc>TRUE</ntsc>
						</rate>
						<rate>
							<timebase>59</timebase>
							<ntsc>TRUE</ntsc>
						</rate>
						<duration>60</duration>
						<start>14446</start>
						<end>14506</end>
						<in>0</in>
						<out>60</out>
					</clipitem>
					<clipitem frameBlend="FALSE" id="clipitem-telop-1711">
						<file id="file-2"/>
						<name>！</name>
						<rate>
							<timebase>59</timebase>
							<ntsc>TRUE</ntsc>
						</rate>
						<rate>
							<timebase>59</timebase>
							<ntsc>TRUE</ntsc>
						</rate>
						<duration>60</duration>
						<start>14506</start>
						<end>14566</end>
						<in>0</in>
						<out>60</out>
					</clipitem>
					<clipitem frameBlend="FALSE" id="clipitem-telop-1719">
						<file id="file-2"/>
						<name>！</name>
						<rate>
							<timebase>59</timebase>
							<ntsc>TRUE</ntsc>
						</rate>
						<rate>
							<timebase>59</timebase>
							<ntsc>TRUE</ntsc>
						</rate>
						<duration>60</duration>
						<start>14566</start>
						<end>14626</end>
						<in>0</in>
						<out>60</out>
					</clipitem>
					<clipitem frameBlend="FALSE" id="clipitem-telop-1724">
						<file id="file-2"/>
						<name>！</name>
						<rate>
							<timebase>59</timebase>
							<ntsc>TRUE</ntsc>
						</rate>
						<rate>
							<timebase>59</timebase>
							<ntsc>TRUE</ntsc>
						</rate>
						<duration>60</duration>
						<start>14632</start>
						<end>14692</end>
						<in>0</in>
						<out>60</out>
					</clipitem>
					<clipitem frameBlend="FALSE" id="clipitem-telop-1734">
						<file id="file-2"/>
						<name>！</name>
						<rate>
							<timebase>59</timebase>
							<ntsc>TRUE</ntsc>
						</rate>
						<rate>
							<timebase>59</timebase>
							<ntsc>TRUE</ntsc>
						</rate>
						<duration>60</duration>
						<start>14692</start>
						<end>14752</end>
						<in>0</in>
						<out>60</out>
					</clipitem>
					<clipitem frameBlend="FALSE" id="clipitem-telop-1742">
						<file id="file-2"/>
						<name>！</name>
						<rate>
							<timebase>59</timebase>
							<ntsc>TRUE</ntsc>
						</rate>
						<rate>
							<timebase>59</timebase>
							<ntsc>TRUE</ntsc>
						</rate>
						<duration>66</duration>
						<start>14752</start>
						<end>14818</end>
						<in>0</in>
						<out>66</out>
					</clipitem>
					<clipitem frameBlend="FALSE" id="clipitem-telop-1749">
						<file id="file-2"/>
						<name>！</name>
						<rate>
							<timebase>59</timebase>
							<ntsc>TRUE</ntsc>
						</rate>
						<rate>
							<timebase>59</timebase>
							<ntsc>TRUE</ntsc>
						</rate>
						<duration>60</duration>
						<start>14830</start>
						<end>14890</end>
						<in>0</in>
						<out>60</out>
					</clipitem>
					<clipitem frameBlend="FALSE" id="clipitem-telop-1751">
						<file id="file-2"/>
						<name>！</name>
						<rate>
							<timebase>59</timebase>
							<ntsc>TRUE</ntsc>
						</rate>
						<rate>
							<timebase>59</timebase>
							<ntsc>TRUE</ntsc>
						</rate>
						<duration>60</duration>
						<start>14926</start>
						<end>14986</end>
						<in>0</in>
						<out>60</out>
					</clipitem>
					<clipitem frameBlend="FALSE" id="clipitem-telop-1759">
						<file id="file-2"/>
						<name>！</name>
						<rate>
							<timebase>59</timebase>
							<ntsc>TRUE</ntsc>
						</rate>
						<rate>
							<timebase>59</timebase>
							<ntsc>TRUE</ntsc>
						</rate>
						<duration>60</duration>
						<start>14986</start>
						<end>15046</end>
						<in>0</in>
						<out>60</out>
					</clipitem>
					<clipitem frameBlend="FALSE" id="clipitem-telop-1768">
						<file id="file-2"/>
						<name>！</name>
						<rate>
							<timebase>59</timebase>
							<ntsc>TRUE</ntsc>
						</rate>
						<rate>
							<timebase>59</timebase>
							<ntsc>TRUE</ntsc>
						</rate>
						<duration>60</duration>
						<start>15058</start>
						<end>15118</end>
						<in>0</in>
						<out>60</out>
					</clipitem>
					<clipitem frameBlend="FALSE" id="clipitem-telop-1775">
						<file id="file-2"/>
						<name>！</name>
						<rate>
							<timebase>59</timebase>
							<ntsc>TRUE</ntsc>
						</rate>
						<rate>
							<timebase>59</timebase>
							<ntsc>TRUE</ntsc>
						</rate>
						<duration>60</duration>
						<start>15130</start>
						<end>15190</end>
						<in>0</in>
						<out>60</out>
					</clipitem>
					<clipitem frameBlend="FALSE" id="clipitem-telop-1782">
						<file id="file-2"/>
						<name>！</name>
						<rate>
							<timebase>59</timebase>
							<ntsc>TRUE</ntsc>
						</rate>
						<rate>
							<timebase>59</timebase>
							<ntsc>TRUE</ntsc>
						</rate>
						<duration>60</duration>
						<start>15190</start>
						<end>15250</end>
						<in>0</in>
						<out>60</out>
					</clipitem>
					<clipitem frameBlend="FALSE" id="clipitem-telop-1787">
						<file id="file-2"/>
						<name>！</name>
						<rate>
							<timebase>59</timebase>
							<ntsc>TRUE</ntsc>
						</rate>
						<rate>
							<timebase>59</timebase>
							<ntsc>TRUE</ntsc>
						</rate>
						<duration>60</duration>
						<start>15262</start>
						<end>15322</end>
						<in>0</in>
						<out>60</out>
					</clipitem>
					<clipitem frameBlend="FALSE" id="clipitem-telop-1791">
						<file id="file-2"/>
						<name>！</name>
						<rate>
							<timebase>59</timebase>
							<ntsc>TRUE</ntsc>
						</rate>
						<rate>
							<timebase>59</timebase>
							<ntsc>TRUE</ntsc>
						</rate>
						<duration>60</duration>
						<start>15322</start>
						<end>15382</end>
						<in>0</in>
						<out>60</out>
					</clipitem>
					<clipitem frameBlend="FALSE" id="clipitem-telop-1800">
						<file id="file-2"/>
						<name>！</name>
						<rate>
							<timebase>59</timebase>
							<ntsc>TRUE</ntsc>
						</rate>
						<rate>
							<timebase>59</timebase>
							<ntsc>TRUE</ntsc>
						</rate>
						<duration>60</duration>
						<start>15382</start>
						<end>15442</end>
						<in>0</in>
						<out>60</out>
					</clipitem>
					<clipitem frameBlend="FALSE" id="clipitem-telop-1809">
						<file id="file-2"/>
						<name>！</name>
						<rate>
							<timebase>59</timebase>
							<ntsc>TRUE</ntsc>
						</rate>
						<rate>
							<timebase>59</timebase>
							<ntsc>TRUE</ntsc>
						</rate>
						<duration>60</duration>
						<start>15454</start>
						<end>15514</end>
						<in>0</in>
						<out>60</out>
					</clipitem>
					<clipitem frameBlend="FALSE" id="clipitem-telop-1817">
						<file id="file-2"/>
						<name>w</name>
						<rate>
							<timebase>59</timebase>
							<ntsc>TRUE</ntsc>
						</rate>
						<rate>
							<timebase>59</timebase>
							<ntsc>TRUE</ntsc>
						</rate>
						<duration>24</duration>
						<start>15532</start>
						<end>15556</end>
						<in>0</in>
						<out>24</out>
					</clipitem>
					<clipitem frameBlend="FALSE" id="clipitem-telop-1820">
						<file id="file-2"/>
						<name>！</name>
						<rate>
							<timebase>59</timebase>
							<ntsc>TRUE</ntsc>
						</rate>
						<rate>
							<timebase>59</timebase>
							<ntsc>TRUE</ntsc>
						</rate>
						<duration>66</duration>
						<start>15556</start>
						<end>15622</end>
						<in>0</in>
						<out>66</out>
					</clipitem>
					<clipitem frameBlend="FALSE" id="clipitem-telop-1827">
						<file id="file-2"/>
						<name>！</name>
						<rate>
							<timebase>59</timebase>
							<ntsc>TRUE</ntsc>
						</rate>
						<rate>
							<timebase>59</timebase>
							<ntsc>TRUE</ntsc>
						</rate>
						<duration>60</duration>
						<start>15622</start>
						<end>15682</end>
						<in>0</in>
						<out>60</out>
					</clipitem>
					<clipitem frameBlend="FALSE" id="clipitem-telop-1833">
						<file id="file-2"/>
						<name>！</name>
						<rate>
							<timebase>59</timebase>
							<ntsc>TRUE</ntsc>
						</rate>
						<rate>
							<timebase>59</timebase>
							<ntsc>TRUE</ntsc>
						</rate>
						<duration>60</duration>
						<start>15694</start>
						<end>15754</end>
						<in>0</in>
						<out>60</out>
					</clipitem>
					<clipitem frameBlend="FALSE" id="clipitem-telop-1840">
						<file id="file-2"/>
						<name>ミルクお嬢様のおかげのことに</name>
						<rate>
							<timebase>59</timebase>
							<ntsc>TRUE</ntsc>
						</rate>
						<rate>
							<timebase>59</timebase>
							<ntsc>TRUE</ntsc>
						</rate>
						<duration>120</duration>
						<start>15772</start>
						<end>15892</end>
						<in>0</in>
						<out>120</out>
					</clipitem>
					<clipitem frameBlend="FALSE" id="clipitem-telop-1856">
						<file id="file-2"/>
						<name>ここの出事ってみんなメルクのことさ</name>
						<rate>
							<timebase>59</timebase>
							<ntsc>TRUE</ntsc>
						</rate>
						<rate>
							<timebase>59</timebase>
							<ntsc>TRUE</ntsc>
						</rate>
						<duration>240</duration>
						<start>15892</start>
						<end>16132</end>
						<in>0</in>
						<out>240</out>
					</clipitem>
					<clipitem frameBlend="FALSE" id="clipitem-telop-1888">
						<file id="file-2"/>
						<name>必ずしか思ってないよね</name>
						<rate>
							<timebase>59</timebase>
							<ntsc>TRUE</ntsc>
						</rate>
						<rate>
							<timebase>59</timebase>
							<ntsc>TRUE</ntsc>
						</rate>
						<duration>120</duration>
						<start>16132</start>
						<end>16252</end>
						<in>0</in>
						<out>120</out>
					</clipitem>
					<clipitem frameBlend="FALSE" id="clipitem-telop-1902">
						<file id="file-2"/>
						<name>そうもございません</name>
						<rate>
							<timebase>59</timebase>
							<ntsc>TRUE</ntsc>
						</rate>
						<rate>
							<timebase>59</timebase>
							<ntsc>TRUE</ntsc>
						</rate>
						<duration>119</duration>
						<start>16252</start>
						<end>16371</end>
						<in>0</in>
						<out>119</out>
					</clipitem>
					<clipitem frameBlend="FALSE" id="clipitem-telop-1917">
						<file id="file-2"/>
						<name>ミルクのことを客って金としか思ってないような気がする</name>
						<rate>
							<timebase>59</timebase>
							<ntsc>TRUE</ntsc>
						</rate>
						<rate>
							<timebase>59</timebase>
							<ntsc>TRUE</ntsc>
						</rate>
						<duration>300</duration>
						<start>16371</start>
						<end>16671</end>
						<in>0</in>
						<out>300</out>
					</clipitem>
					<clipitem frameBlend="FALSE" id="clipitem-telop-1953">
						<file id="file-2"/>
						<name>！</name>
						<rate>
							<timebase>59</timebase>
							<ntsc>TRUE</ntsc>
						</rate>
						<rate>
							<timebase>59</timebase>
							<ntsc>TRUE</ntsc>
						</rate>
						<duration>60</duration>
						<start>16671</start>
						<end>16731</end>
						<in>0</in>
						<out>60</out>
					</clipitem>
					<clipitem frameBlend="FALSE" id="clipitem-telop-1962">
						<file id="file-2"/>
						<name>！</name>
						<rate>
							<timebase>59</timebase>
							<ntsc>TRUE</ntsc>
						</rate>
						<rate>
							<timebase>59</timebase>
							<ntsc>TRUE</ntsc>
						</rate>
						<duration>60</duration>
						<start>16731</start>
						<end>16791</end>
						<in>0</in>
						<out>60</out>
					</clipitem>
					<clipitem frameBlend="FALSE" id="clipitem-telop-1971">
						<file id="file-2"/>
						<name>！</name>
						<rate>
							<timebase>59</timebase>
							<ntsc>TRUE</ntsc>
						</rate>
						<rate>
							<timebase>59</timebase>
							<ntsc>TRUE</ntsc>
						</rate>
						<duration>60</duration>
						<start>16803</start>
						<end>16863</end>
						<in>0</in>
						<out>60</out>
					</clipitem>
					<clipitem frameBlend="FALSE" id="clipitem-telop-1979">
						<file id="file-2"/>
						<name>！</name>
						<rate>
							<timebase>59</timebase>
							<ntsc>TRUE</ntsc>
						</rate>
						<rate>
							<timebase>59</timebase>
							<ntsc>TRUE</ntsc>
						</rate>
						<duration>60</duration>
						<start>16869</start>
						<end>16929</end>
						<in>0</in>
						<out>60</out>
					</clipitem>
					<clipitem frameBlend="FALSE" id="clipitem-telop-1984">
						<file id="file-2"/>
						<name>！</name>
						<rate>
							<timebase>59</timebase>
							<ntsc>TRUE</ntsc>
						</rate>
						<rate>
							<timebase>59</timebase>
							<ntsc>TRUE</ntsc>
						</rate>
						<duration>60</duration>
						<start>16935</start>
						<end>16995</end>
						<in>0</in>
						<out>60</out>
					</clipitem>
					<clipitem frameBlend="FALSE" id="clipitem-telop-1988">
						<file id="file-2"/>
						<name>！</name>
						<rate>
							<timebase>59</timebase>
							<ntsc>TRUE</ntsc>
						</rate>
						<rate>
							<timebase>59</timebase>
							<ntsc>TRUE</ntsc>
						</rate>
						<duration>60</duration>
						<start>17007</start>
						<end>17067</end>
						<in>0</in>
						<out>60</out>
					</clipitem>
					<clipitem frameBlend="FALSE" id="clipitem-telop-1995">
						<file id="file-2"/>
						<name>！</name>
						<rate>
							<timebase>59</timebase>
							<ntsc>TRUE</ntsc>
						</rate>
						<rate>
							<timebase>59</timebase>
							<ntsc>TRUE</ntsc>
						</rate>
						<duration>60</duration>
						<start>17067</start>
						<end>17127</end>
						<in>0</in>
						<out>60</out>
					</clipitem>
					<clipitem frameBlend="FALSE" id="clipitem-telop-2003">
						<file id="file-2"/>
						<name>！</name>
						<rate>
							<timebase>59</timebase>
							<ntsc>TRUE</ntsc>
						</rate>
						<rate>
							<timebase>59</timebase>
							<ntsc>TRUE</ntsc>
						</rate>
						<duration>60</duration>
						<start>17127</start>
						<end>17187</end>
						<in>0</in>
						<out>60</out>
					</clipitem>
					<clipitem frameBlend="FALSE" id="clipitem-telop-2013">
						<file id="file-2"/>
						<name>！</name>
						<rate>
							<timebase>59</timebase>
							<ntsc>TRUE</ntsc>
						</rate>
						<rate>
							<timebase>59</timebase>
							<ntsc>TRUE</ntsc>
						</rate>
						<duration>60</duration>
						<start>17187</start>
						<end>17247</end>
						<in>0</in>
						<out>60</out>
					</clipitem>
					<clipitem frameBlend="FALSE" id="clipitem-telop-2017">
						<file id="file-2"/>
						<name>！</name>
						<rate>
							<timebase>59</timebase>
							<ntsc>TRUE</ntsc>
						</rate>
						<rate>
							<timebase>59</timebase>
							<ntsc>TRUE</ntsc>
						</rate>
						<duration>60</duration>
						<start>17247</start>
						<end>17307</end>
						<in>0</in>
						<out>60</out>
					</clipitem>
					<clipitem frameBlend="FALSE" id="clipitem-telop-2023">
						<file id="file-2"/>
						<name>！</name>
						<rate>
							<timebase>59</timebase>
							<ntsc>TRUE</ntsc>
						</rate>
						<rate>
							<timebase>59</timebase>
							<ntsc>TRUE</ntsc>
						</rate>
						<duration>60</duration>
						<start>17307</start>
						<end>17367</end>
						<in>0</in>
						<out>60</out>
					</clipitem>
					<clipitem frameBlend="FALSE" id="clipitem-telop-2029">
						<file id="file-2"/>
						<name>！</name>
						<rate>
							<timebase>59</timebase>
							<ntsc>TRUE</ntsc>
						</rate>
						<rate>
							<timebase>59</timebase>
							<ntsc>TRUE</ntsc>
						</rate>
						<duration>60</duration>
						<start>17367</start>
						<end>17427</end>
						<in>0</in>
						<out>60</out>
					</clipitem>
					<clipitem frameBlend="FALSE" id="clipitem-telop-2035">
						<file id="file-2"/>
						<name>！</name>
						<rate>
							<timebase>59</timebase>
							<ntsc>TRUE</ntsc>
						</rate>
						<rate>
							<timebase>59</timebase>
							<ntsc>TRUE</ntsc>
						</rate>
						<duration>60</duration>
						<start>17433</start>
						<end>17493</end>
						<in>0</in>
						<out>60</out>
					</clipitem>
					<clipitem frameBlend="FALSE" id="clipitem-telop-2043">
						<file id="file-2"/>
						<name>！</name>
						<rate>
							<timebase>59</timebase>
							<ntsc>TRUE</ntsc>
						</rate>
						<rate>
							<timebase>59</timebase>
							<ntsc>TRUE</ntsc>
						</rate>
						<duration>60</duration>
						<start>17493</start>
						<end>17553</end>
						<in>0</in>
						<out>60</out>
					</clipitem>
					<clipitem frameBlend="FALSE" id="clipitem-telop-2049">
						<file id="file-2"/>
						<name>！</name>
						<rate>
							<timebase>59</timebase>
							<ntsc>TRUE</ntsc>
						</rate>
						<rate>
							<timebase>59</timebase>
							<ntsc>TRUE</ntsc>
						</rate>
						<duration>60</duration>
						<start>17559</start>
						<end>17619</end>
						<in>0</in>
						<out>60</out>
					</clipitem>
					<clipitem frameBlend="FALSE" id="clipitem-telop-2057">
						<file id="file-2"/>
						<name>！</name>
						<rate>
							<timebase>59</timebase>
							<ntsc>TRUE</ntsc>
						</rate>
						<rate>
							<timebase>59</timebase>
							<ntsc>TRUE</ntsc>
						</rate>
						<duration>60</duration>
						<start>17655</start>
						<end>17715</end>
						<in>0</in>
						<out>60</out>
					</clipitem>
					<clipitem frameBlend="FALSE" id="clipitem-telop-2061">
						<file id="file-2"/>
						<name>！</name>
						<rate>
							<timebase>59</timebase>
							<ntsc>TRUE</ntsc>
						</rate>
						<rate>
							<timebase>59</timebase>
							<ntsc>TRUE</ntsc>
						</rate>
						<duration>60</duration>
						<start>17727</start>
						<end>17787</end>
						<in>0</in>
						<out>60</out>
					</clipitem>
					<clipitem frameBlend="FALSE" id="clipitem-telop-2070">
						<file id="file-2"/>
						<name>！</name>
						<rate>
							<timebase>59</timebase>
							<ntsc>TRUE</ntsc>
						</rate>
						<rate>
							<timebase>59</timebase>
							<ntsc>TRUE</ntsc>
						</rate>
						<duration>66</duration>
						<start>17787</start>
						<end>17853</end>
						<in>0</in>
						<out>66</out>
					</clipitem>
					<clipitem frameBlend="FALSE" id="clipitem-telop-2076">
						<file id="file-2"/>
						<name>！</name>
						<rate>
							<timebase>59</timebase>
							<ntsc>TRUE</ntsc>
						</rate>
						<rate>
							<timebase>59</timebase>
							<ntsc>TRUE</ntsc>
						</rate>
						<duration>60</duration>
						<start>17865</start>
						<end>17925</end>
						<in>0</in>
						<out>60</out>
					</clipitem>
					<clipitem frameBlend="FALSE" id="clipitem-telop-2084">
						<file id="file-2"/>
						<name>ちょっと待ってね</name>
						<rate>
							<timebase>59</timebase>
							<ntsc>TRUE</ntsc>
						</rate>
						<rate>
							<timebase>59</timebase>
							<ntsc>TRUE</ntsc>
						</rate>
						<duration>60</duration>
						<start>17931</start>
						<end>17991</end>
						<in>0</in>
						<out>60</out>
					</clipitem>
					<clipitem frameBlend="FALSE" id="clipitem-telop-2095">
						<file id="file-2"/>
						<name>！</name>
						<rate>
							<timebase>59</timebase>
							<ntsc>TRUE</ntsc>
						</rate>
						<rate>
							<timebase>59</timebase>
							<ntsc>TRUE</ntsc>
						</rate>
						<duration>60</duration>
						<start>17991</start>
						<end>18051</end>
						<in>0</in>
						<out>60</out>
					</clipitem>
					<clipitem frameBlend="FALSE" id="clipitem-telop-2101">
						<file id="file-2"/>
						<name>！</name>
						<rate>
							<timebase>59</timebase>
							<ntsc>TRUE</ntsc>
						</rate>
						<rate>
							<timebase>59</timebase>
							<ntsc>TRUE</ntsc>
						</rate>
						<duration>60</duration>
						<start>18051</start>
						<end>18111</end>
						<in>0</in>
						<out>60</out>
					</clipitem>
					<clipitem frameBlend="FALSE" id="clipitem-telop-2109">
						<file id="file-2"/>
						<name>！</name>
						<rate>
							<timebase>59</timebase>
							<ntsc>TRUE</ntsc>
						</rate>
						<rate>
							<timebase>59</timebase>
							<ntsc>TRUE</ntsc>
						</rate>
						<duration>60</duration>
						<start>18111</start>
						<end>18171</end>
						<in>0</in>
						<out>60</out>
					</clipitem>
					<clipitem frameBlend="FALSE" id="clipitem-telop-2116">
						<file id="file-2"/>
						<name>！</name>
						<rate>
							<timebase>59</timebase>
							<ntsc>TRUE</ntsc>
						</rate>
						<rate>
							<timebase>59</timebase>
							<ntsc>TRUE</ntsc>
						</rate>
						<duration>60</duration>
						<start>18177</start>
						<end>18237</end>
						<in>0</in>
						<out>60</out>
					</clipitem>
					<clipitem frameBlend="FALSE" id="clipitem-telop-2125">
						<file id="file-2"/>
						<name>！</name>
						<rate>
							<timebase>59</timebase>
							<ntsc>TRUE</ntsc>
						</rate>
						<rate>
							<timebase>59</timebase>
							<ntsc>TRUE</ntsc>
						</rate>
						<duration>60</duration>
						<start>18237</start>
						<end>18297</end>
						<in>0</in>
						<out>60</out>
					</clipitem>
					<clipitem frameBlend="FALSE" id="clipitem-telop-2130">
						<file id="file-2"/>
						<name>！</name>
						<rate>
							<timebase>59</timebase>
							<ntsc>TRUE</ntsc>
						</rate>
						<rate>
							<timebase>59</timebase>
							<ntsc>TRUE</ntsc>
						</rate>
						<duration>60</duration>
						<start>18345</start>
						<end>18405</end>
						<in>0</in>
						<out>60</out>
					</clipitem>
					<clipitem frameBlend="FALSE" id="clipitem-telop-2137">
						<file id="file-2"/>
						<name>！</name>
						<rate>
							<timebase>59</timebase>
							<ntsc>TRUE</ntsc>
						</rate>
						<rate>
							<timebase>59</timebase>
							<ntsc>TRUE</ntsc>
						</rate>
						<duration>66</duration>
						<start>18411</start>
						<end>18477</end>
						<in>0</in>
						<out>66</out>
					</clipitem>
					<clipitem frameBlend="FALSE" id="clipitem-telop-2142">
						<file id="file-2"/>
						<name>！</name>
						<rate>
							<timebase>59</timebase>
							<ntsc>TRUE</ntsc>
						</rate>
						<rate>
							<timebase>59</timebase>
							<ntsc>TRUE</ntsc>
						</rate>
						<duration>60</duration>
						<start>18483</start>
						<end>18543</end>
						<in>0</in>
						<out>60</out>
					</clipitem>
					<clipitem frameBlend="FALSE" id="clipitem-telop-2149">
						<file id="file-2"/>
						<name>！</name>
						<rate>
							<timebase>59</timebase>
							<ntsc>TRUE</ntsc>
						</rate>
						<rate>
							<timebase>59</timebase>
							<ntsc>TRUE</ntsc>
						</rate>
						<duration>60</duration>
						<start>18543</start>
						<end>18603</end>
						<in>0</in>
						<out>60</out>
					</clipitem>
					<clipitem frameBlend="FALSE" id="clipitem-telop-2156">
						<file id="file-2"/>
						<name>！</name>
						<rate>
							<timebase>59</timebase>
							<ntsc>TRUE</ntsc>
						</rate>
						<rate>
							<timebase>59</timebase>
							<ntsc>TRUE</ntsc>
						</rate>
						<duration>60</duration>
						<start>18603</start>
						<end>18663</end>
						<in>0</in>
						<out>60</out>
					</clipitem>
					<clipitem frameBlend="FALSE" id="clipitem-telop-2164">
						<file id="file-2"/>
						<name>！</name>
						<rate>
							<timebase>59</timebase>
							<ntsc>TRUE</ntsc>
						</rate>
						<rate>
							<timebase>59</timebase>
							<ntsc>TRUE</ntsc>
						</rate>
						<duration>60</duration>
						<start>18681</start>
						<end>18741</end>
						<in>0</in>
						<out>60</out>
					</clipitem>
					<clipitem frameBlend="FALSE" id="clipitem-telop-2167">
						<file id="file-2"/>
						<name>！</name>
						<rate>
							<timebase>59</timebase>
							<ntsc>TRUE</ntsc>
						</rate>
						<rate>
							<timebase>59</timebase>
							<ntsc>TRUE</ntsc>
						</rate>
						<duration>60</duration>
						<start>18753</start>
						<end>18813</end>
						<in>0</in>
						<out>60</out>
					</clipitem>
					<clipitem frameBlend="FALSE" id="clipitem-telop-2179">
						<file id="file-2"/>
						<name>！</name>
						<rate>
							<timebase>59</timebase>
							<ntsc>TRUE</ntsc>
						</rate>
						<rate>
							<timebase>59</timebase>
							<ntsc>TRUE</ntsc>
						</rate>
						<duration>60</duration>
						<start>18879</start>
						<end>18939</end>
						<in>0</in>
						<out>60</out>
					</clipitem>
					<clipitem frameBlend="FALSE" id="clipitem-telop-2183">
						<file id="file-2"/>
						<name>！</name>
						<rate>
							<timebase>59</timebase>
							<ntsc>TRUE</ntsc>
						</rate>
						<rate>
							<timebase>59</timebase>
							<ntsc>TRUE</ntsc>
						</rate>
						<duration>60</duration>
						<start>18945</start>
						<end>19005</end>
						<in>0</in>
						<out>60</out>
					</clipitem>
					<clipitem frameBlend="FALSE" id="clipitem-telop-2186">
						<file id="file-2"/>
						<name>！</name>
						<rate>
							<timebase>59</timebase>
							<ntsc>TRUE</ntsc>
						</rate>
						<rate>
							<timebase>59</timebase>
							<ntsc>TRUE</ntsc>
						</rate>
						<duration>60</duration>
						<start>19011</start>
						<end>19071</end>
						<in>0</in>
						<out>60</out>
					</clipitem>
					<clipitem frameBlend="FALSE" id="clipitem-telop-2198">
						<file id="file-2"/>
						<name>！</name>
						<rate>
							<timebase>59</timebase>
							<ntsc>TRUE</ntsc>
						</rate>
						<rate>
							<timebase>59</timebase>
							<ntsc>TRUE</ntsc>
						</rate>
						<duration>60</duration>
						<start>19071</start>
						<end>19131</end>
						<in>0</in>
						<out>60</out>
					</clipitem>
					<clipitem frameBlend="FALSE" id="clipitem-telop-2206">
						<file id="file-2"/>
						<name>！</name>
						<rate>
							<timebase>59</timebase>
							<ntsc>TRUE</ntsc>
						</rate>
						<rate>
							<timebase>59</timebase>
							<ntsc>TRUE</ntsc>
						</rate>
						<duration>60</duration>
						<start>19155</start>
						<end>19215</end>
						<in>0</in>
						<out>60</out>
					</clipitem>
					<clipitem frameBlend="FALSE" id="clipitem-telop-2212">
						<file id="file-2"/>
						<name>！</name>
						<rate>
							<timebase>59</timebase>
							<ntsc>TRUE</ntsc>
						</rate>
						<rate>
							<timebase>59</timebase>
							<ntsc>TRUE</ntsc>
						</rate>
						<duration>66</duration>
						<start>19239</start>
						<end>19305</end>
						<in>0</in>
						<out>66</out>
					</clipitem>
					<clipitem frameBlend="FALSE" id="clipitem-telop-2217">
						<file id="file-2"/>
						<name>！</name>
						<rate>
							<timebase>59</timebase>
							<ntsc>TRUE</ntsc>
						</rate>
						<rate>
							<timebase>59</timebase>
							<ntsc>TRUE</ntsc>
						</rate>
						<duration>60</duration>
						<start>19305</start>
						<end>19365</end>
						<in>0</in>
						<out>60</out>
					</clipitem>
					<clipitem frameBlend="FALSE" id="clipitem-telop-2230">
						<file id="file-2"/>
						<name>！</name>
						<rate>
							<timebase>59</timebase>
							<ntsc>TRUE</ntsc>
						</rate>
						<rate>
							<timebase>59</timebase>
							<ntsc>TRUE</ntsc>
						</rate>
						<duration>60</duration>
						<start>19365</start>
						<end>19425</end>
						<in>0</in>
						<out>60</out>
					</clipitem>
					<clipitem frameBlend="FALSE" id="clipitem-telop-2237">
						<file id="file-2"/>
						<name>！</name>
						<rate>
							<timebase>59</timebase>
							<ntsc>TRUE</ntsc>
						</rate>
						<rate>
							<timebase>59</timebase>
							<ntsc>TRUE</ntsc>
						</rate>
						<duration>66</duration>
						<start>19431</start>
						<end>19497</end>
						<in>0</in>
						<out>66</out>
					</clipitem>
					<clipitem frameBlend="FALSE" id="clipitem-telop-2246">
						<file id="file-2"/>
						<name>！</name>
						<rate>
							<timebase>59</timebase>
							<ntsc>TRUE</ntsc>
						</rate>
						<rate>
							<timebase>59</timebase>
							<ntsc>TRUE</ntsc>
						</rate>
						<duration>60</duration>
						<start>19503</start>
						<end>19563</end>
						<in>0</in>
						<out>60</out>
					</clipitem>
					<clipitem frameBlend="FALSE" id="clipitem-telop-2252">
						<file id="file-2"/>
						<name>！</name>
						<rate>
							<timebase>59</timebase>
							<ntsc>TRUE</ntsc>
						</rate>
						<rate>
							<timebase>59</timebase>
							<ntsc>TRUE</ntsc>
						</rate>
						<duration>60</duration>
						<start>19569</start>
						<end>19629</end>
						<in>0</in>
						<out>60</out>
					</clipitem>
					<clipitem frameBlend="FALSE" id="clipitem-telop-2262">
						<file id="file-2"/>
						<name>！</name>
						<rate>
							<timebase>59</timebase>
							<ntsc>TRUE</ntsc>
						</rate>
						<rate>
							<timebase>59</timebase>
							<ntsc>TRUE</ntsc>
						</rate>
						<duration>60</duration>
						<start>19635</start>
						<end>19695</end>
						<in>0</in>
						<out>60</out>
					</clipitem>
					<clipitem frameBlend="FALSE" id="clipitem-telop-2271">
						<file id="file-2"/>
						<name>！</name>
						<rate>
							<timebase>59</timebase>
							<ntsc>TRUE</ntsc>
						</rate>
						<rate>
							<timebase>59</timebase>
							<ntsc>TRUE</ntsc>
						</rate>
						<duration>60</duration>
						<start>19695</start>
						<end>19755</end>
						<in>0</in>
						<out>60</out>
					</clipitem>
					<clipitem frameBlend="FALSE" id="clipitem-telop-2277">
						<file id="file-2"/>
						<name>！</name>
						<rate>
							<timebase>59</timebase>
							<ntsc>TRUE</ntsc>
						</rate>
						<rate>
							<timebase>59</timebase>
							<ntsc>TRUE</ntsc>
						</rate>
						<duration>60</duration>
						<start>19755</start>
						<end>19815</end>
						<in>0</in>
						<out>60</out>
					</clipitem>
					<clipitem frameBlend="FALSE" id="clipitem-telop-2283">
						<file id="file-2"/>
						<name>！</name>
						<rate>
							<timebase>59</timebase>
							<ntsc>TRUE</ntsc>
						</rate>
						<rate>
							<timebase>59</timebase>
							<ntsc>TRUE</ntsc>
						</rate>
						<duration>60</duration>
						<start>19815</start>
						<end>19875</end>
						<in>0</in>
						<out>60</out>
					</clipitem>
					<clipitem frameBlend="FALSE" id="clipitem-telop-2294">
						<file id="file-2"/>
						<name>！</name>
						<rate>
							<timebase>59</timebase>
							<ntsc>TRUE</ntsc>
						</rate>
						<rate>
							<timebase>59</timebase>
							<ntsc>TRUE</ntsc>
						</rate>
						<duration>60</duration>
						<start>19875</start>
						<end>19935</end>
						<in>0</in>
						<out>60</out>
					</clipitem>
					<clipitem frameBlend="FALSE" id="clipitem-telop-2299">
						<file id="file-2"/>
						<name>！</name>
						<rate>
							<timebase>59</timebase>
							<ntsc>TRUE</ntsc>
						</rate>
						<rate>
							<timebase>59</timebase>
							<ntsc>TRUE</ntsc>
						</rate>
						<duration>60</duration>
						<start>19935</start>
						<end>19995</end>
						<in>0</in>
						<out>60</out>
					</clipitem>
					<clipitem frameBlend="FALSE" id="clipitem-telop-2308">
						<file id="file-2"/>
						<name>！</name>
						<rate>
							<timebase>59</timebase>
							<ntsc>TRUE</ntsc>
						</rate>
						<rate>
							<timebase>59</timebase>
							<ntsc>TRUE</ntsc>
						</rate>
						<duration>60</duration>
						<start>20001</start>
						<end>20061</end>
						<in>0</in>
						<out>60</out>
					</clipitem>
					<clipitem frameBlend="FALSE" id="clipitem-telop-2314">
						<file id="file-2"/>
						<name>！</name>
						<rate>
							<timebase>59</timebase>
							<ntsc>TRUE</ntsc>
						</rate>
						<rate>
							<timebase>59</timebase>
							<ntsc>TRUE</ntsc>
						</rate>
						<duration>60</duration>
						<start>20061</start>
						<end>20121</end>
						<in>0</in>
						<out>60</out>
					</clipitem>
					<clipitem frameBlend="FALSE" id="clipitem-telop-2321">
						<file id="file-2"/>
						<name>！</name>
						<rate>
							<timebase>59</timebase>
							<ntsc>TRUE</ntsc>
						</rate>
						<rate>
							<timebase>59</timebase>
							<ntsc>TRUE</ntsc>
						</rate>
						<duration>66</duration>
						<start>20121</start>
						<end>20187</end>
						<in>0</in>
						<out>66</out>
					</clipitem>
					<clipitem frameBlend="FALSE" id="clipitem-telop-2327">
						<file id="file-2"/>
						<name>！</name>
						<rate>
							<timebase>59</timebase>
							<ntsc>TRUE</ntsc>
						</rate>
						<rate>
							<timebase>59</timebase>
							<ntsc>TRUE</ntsc>
						</rate>
						<duration>60</duration>
						<start>20199</start>
						<end>20259</end>
						<in>0</in>
						<out>60</out>
					</clipitem>
					<clipitem frameBlend="FALSE" id="clipitem-telop-2339">
						<file id="file-2"/>
						<name>！</name>
						<rate>
							<timebase>59</timebase>
							<ntsc>TRUE</ntsc>
						</rate>
						<rate>
							<timebase>59</timebase>
							<ntsc>TRUE</ntsc>
						</rate>
						<duration>60</duration>
						<start>20265</start>
						<end>20325</end>
						<in>0</in>
						<out>60</out>
					</clipitem>
					<clipitem frameBlend="FALSE" id="clipitem-telop-2347">
						<file id="file-2"/>
						<name>！</name>
						<rate>
							<timebase>59</timebase>
							<ntsc>TRUE</ntsc>
						</rate>
						<rate>
							<timebase>59</timebase>
							<ntsc>TRUE</ntsc>
						</rate>
						<duration>66</duration>
						<start>20325</start>
						<end>20391</end>
						<in>0</in>
						<out>66</out>
					</clipitem>
					<clipitem frameBlend="FALSE" id="clipitem-telop-2357">
						<file id="file-2"/>
						<name>！</name>
						<rate>
							<timebase>59</timebase>
							<ntsc>TRUE</ntsc>
						</rate>
						<rate>
							<timebase>59</timebase>
							<ntsc>TRUE</ntsc>
						</rate>
						<duration>60</duration>
						<start>20391</start>
						<end>20451</end>
						<in>0</in>
						<out>60</out>
					</clipitem>
					<clipitem frameBlend="FALSE" id="clipitem-telop-2369">
						<file id="file-2"/>
						<name>！</name>
						<rate>
							<timebase>59</timebase>
							<ntsc>TRUE</ntsc>
						</rate>
						<rate>
							<timebase>59</timebase>
							<ntsc>TRUE</ntsc>
						</rate>
						<duration>66</duration>
						<start>20457</start>
						<end>20523</end>
						<in>0</in>
						<out>66</out>
					</clipitem>
					<clipitem frameBlend="FALSE" id="clipitem-telop-2376">
						<file id="file-2"/>
						<name>！</name>
						<rate>
							<timebase>59</timebase>
							<ntsc>TRUE</ntsc>
						</rate>
						<rate>
							<timebase>59</timebase>
							<ntsc>TRUE</ntsc>
						</rate>
						<duration>60</duration>
						<start>20529</start>
						<end>20589</end>
						<in>0</in>
						<out>60</out>
					</clipitem>
					<clipitem frameBlend="FALSE" id="clipitem-telop-2382">
						<file id="file-2"/>
						<name>！</name>
						<rate>
							<timebase>59</timebase>
							<ntsc>TRUE</ntsc>
						</rate>
						<rate>
							<timebase>59</timebase>
							<ntsc>TRUE</ntsc>
						</rate>
						<duration>60</duration>
						<start>20589</start>
						<end>20649</end>
						<in>0</in>
						<out>60</out>
					</clipitem>
					<clipitem frameBlend="FALSE" id="clipitem-telop-2387">
						<file id="file-2"/>
						<name>！</name>
						<rate>
							<timebase>59</timebase>
							<ntsc>TRUE</ntsc>
						</rate>
						<rate>
							<timebase>59</timebase>
							<ntsc>TRUE</ntsc>
						</rate>
						<duration>60</duration>
						<start>20655</start>
						<end>20715</end>
						<in>0</in>
						<out>60</out>
					</clipitem>
					<clipitem frameBlend="FALSE" id="clipitem-telop-2394">
						<file id="file-2"/>
						<name>！</name>
						<rate>
							<timebase>59</timebase>
							<ntsc>TRUE</ntsc>
						</rate>
						<rate>
							<timebase>59</timebase>
							<ntsc>TRUE</ntsc>
						</rate>
						<duration>60</duration>
						<start>20739</start>
						<end>20799</end>
						<in>0</in>
						<out>60</out>
					</clipitem>
					<clipitem frameBlend="FALSE" id="clipitem-telop-2402">
						<file id="file-2"/>
						<name>！</name>
						<rate>
							<timebase>59</timebase>
							<ntsc>TRUE</ntsc>
						</rate>
						<rate>
							<timebase>59</timebase>
							<ntsc>TRUE</ntsc>
						</rate>
						<duration>66</duration>
						<start>20799</start>
						<end>20865</end>
						<in>0</in>
						<out>66</out>
					</clipitem>
					<clipitem frameBlend="FALSE" id="clipitem-telop-2410">
						<file id="file-2"/>
						<name>！</name>
						<rate>
							<timebase>59</timebase>
							<ntsc>TRUE</ntsc>
						</rate>
						<rate>
							<timebase>59</timebase>
							<ntsc>TRUE</ntsc>
						</rate>
						<duration>66</duration>
						<start>20865</start>
						<end>20931</end>
						<in>0</in>
						<out>66</out>
					</clipitem>
					<clipitem frameBlend="FALSE" id="clipitem-telop-2414">
						<file id="file-2"/>
						<name>え、じゃあもう</name>
						<rate>
							<timebase>59</timebase>
							<ntsc>TRUE</ntsc>
						</rate>
						<rate>
							<timebase>59</timebase>
							<ntsc>TRUE</ntsc>
						</rate>
						<duration>60</duration>
						<start>20931</start>
						<end>20991</end>
						<in>0</in>
						<out>60</out>
					</clipitem>
					<clipitem frameBlend="FALSE" id="clipitem-telop-2424">
						<file id="file-2"/>
						<name>w</name>
						<rate>
							<timebase>59</timebase>
							<ntsc>TRUE</ntsc>
						</rate>
						<rate>
							<timebase>59</timebase>
							<ntsc>TRUE</ntsc>
						</rate>
						<duration>24</duration>
						<start>20991</start>
						<end>21015</end>
						<in>0</in>
						<out>24</out>
					</clipitem>
					<clipitem frameBlend="FALSE" id="clipitem-telop-2427">
						<file id="file-2"/>
						<name>！</name>
						<rate>
							<timebase>59</timebase>
							<ntsc>TRUE</ntsc>
						</rate>
						<rate>
							<timebase>59</timebase>
							<ntsc>TRUE</ntsc>
						</rate>
						<duration>66</duration>
						<start>21015</start>
						<end>21081</end>
						<in>0</in>
						<out>66</out>
					</clipitem>
					<clipitem frameBlend="FALSE" id="clipitem-telop-2440">
						<file id="file-2"/>
						<name>！</name>
						<rate>
							<timebase>59</timebase>
							<ntsc>TRUE</ntsc>
						</rate>
						<rate>
							<timebase>59</timebase>
							<ntsc>TRUE</ntsc>
						</rate>
						<duration>60</duration>
						<start>21081</start>
						<end>21141</end>
						<in>0</in>
						<out>60</out>
					</clipitem>
					<clipitem frameBlend="FALSE" id="clipitem-telop-2457">
						<file id="file-2"/>
						<name>！</name>
						<rate>
							<timebase>59</timebase>
							<ntsc>TRUE</ntsc>
						</rate>
						<rate>
							<timebase>59</timebase>
							<ntsc>TRUE</ntsc>
						</rate>
						<duration>66</duration>
						<start>21141</start>
						<end>21207</end>
						<in>0</in>
						<out>66</out>
					</clipitem>
					<clipitem frameBlend="FALSE" id="clipitem-telop-2463">
						<file id="file-2"/>
						<name>！</name>
						<rate>
							<timebase>59</timebase>
							<ntsc>TRUE</ntsc>
						</rate>
						<rate>
							<timebase>59</timebase>
							<ntsc>TRUE</ntsc>
						</rate>
						<duration>60</duration>
						<start>21207</start>
						<end>21267</end>
						<in>0</in>
						<out>60</out>
					</clipitem>
					<clipitem frameBlend="FALSE" id="clipitem-telop-2477">
						<file id="file-2"/>
						<name>！</name>
						<rate>
							<timebase>59</timebase>
							<ntsc>TRUE</ntsc>
						</rate>
						<rate>
							<timebase>59</timebase>
							<ntsc>TRUE</ntsc>
						</rate>
						<duration>60</duration>
						<start>21273</start>
						<end>21333</end>
						<in>0</in>
						<out>60</out>
					</clipitem>
					<clipitem frameBlend="FALSE" id="clipitem-telop-2487">
						<file id="file-2"/>
						<name>！</name>
						<rate>
							<timebase>59</timebase>
							<ntsc>TRUE</ntsc>
						</rate>
						<rate>
							<timebase>59</timebase>
							<ntsc>TRUE</ntsc>
						</rate>
						<duration>66</duration>
						<start>21333</start>
						<end>21399</end>
						<in>0</in>
						<out>66</out>
					</clipitem>
					<clipitem frameBlend="FALSE" id="clipitem-telop-2498">
						<file id="file-2"/>
						<name>！</name>
						<rate>
							<timebase>59</timebase>
							<ntsc>TRUE</ntsc>
						</rate>
						<rate>
							<timebase>59</timebase>
							<ntsc>TRUE</ntsc>
						</rate>
						<duration>60</duration>
						<start>21399</start>
						<end>21459</end>
						<in>0</in>
						<out>60</out>
					</clipitem>
					<clipitem frameBlend="FALSE" id="clipitem-telop-2507">
						<file id="file-2"/>
						<name>！</name>
						<rate>
							<timebase>59</timebase>
							<ntsc>TRUE</ntsc>
						</rate>
						<rate>
							<timebase>59</timebase>
							<ntsc>TRUE</ntsc>
						</rate>
						<duration>60</duration>
						<start>21459</start>
						<end>21519</end>
						<in>0</in>
						<out>60</out>
					</clipitem>
					<clipitem frameBlend="FALSE" id="clipitem-telop-2517">
						<file id="file-2"/>
						<name>！</name>
						<rate>
							<timebase>59</timebase>
							<ntsc>TRUE</ntsc>
						</rate>
						<rate>
							<timebase>59</timebase>
							<ntsc>TRUE</ntsc>
						</rate>
						<duration>60</duration>
						<start>21525</start>
						<end>21585</end>
						<in>0</in>
						<out>60</out>
					</clipitem>
					<clipitem frameBlend="FALSE" id="clipitem-telop-2525">
						<file id="file-2"/>
						<name>！</name>
						<rate>
							<timebase>59</timebase>
							<ntsc>TRUE</ntsc>
						</rate>
						<rate>
							<timebase>59</timebase>
							<ntsc>TRUE</ntsc>
						</rate>
						<duration>60</duration>
						<start>21585</start>
						<end>21645</end>
						<in>0</in>
						<out>60</out>
					</clipitem>
					<clipitem frameBlend="FALSE" id="clipitem-telop-2531">
						<file id="file-2"/>
						<name>！</name>
						<rate>
							<timebase>59</timebase>
							<ntsc>TRUE</ntsc>
						</rate>
						<rate>
							<timebase>59</timebase>
							<ntsc>TRUE</ntsc>
						</rate>
						<duration>60</duration>
						<start>21645</start>
						<end>21705</end>
						<in>0</in>
						<out>60</out>
					</clipitem>
					<clipitem frameBlend="FALSE" id="clipitem-telop-2543">
						<file id="file-2"/>
						<name>！</name>
						<rate>
							<timebase>59</timebase>
							<ntsc>TRUE</ntsc>
						</rate>
						<rate>
							<timebase>59</timebase>
							<ntsc>TRUE</ntsc>
						</rate>
						<duration>66</duration>
						<start>21705</start>
						<end>21771</end>
						<in>0</in>
						<out>66</out>
					</clipitem>
					<clipitem frameBlend="FALSE" id="clipitem-telop-2556">
						<file id="file-2"/>
						<name>！</name>
						<rate>
							<timebase>59</timebase>
							<ntsc>TRUE</ntsc>
						</rate>
						<rate>
							<timebase>59</timebase>
							<ntsc>TRUE</ntsc>
						</rate>
						<duration>60</duration>
						<start>21777</start>
						<end>21837</end>
						<in>0</in>
						<out>60</out>
					</clipitem>
					<clipitem frameBlend="FALSE" id="clipitem-telop-2568">
						<file id="file-2"/>
						<name>！</name>
						<rate>
							<timebase>59</timebase>
							<ntsc>TRUE</ntsc>
						</rate>
						<rate>
							<timebase>59</timebase>
							<ntsc>TRUE</ntsc>
						</rate>
						<duration>66</duration>
						<start>21837</start>
						<end>21903</end>
						<in>0</in>
						<out>66</out>
					</clipitem>
					<clipitem frameBlend="FALSE" id="clipitem-telop-2578">
						<file id="file-2"/>
						<name>！</name>
						<rate>
							<timebase>59</timebase>
							<ntsc>TRUE</ntsc>
						</rate>
						<rate>
							<timebase>59</timebase>
							<ntsc>TRUE</ntsc>
						</rate>
						<duration>60</duration>
						<start>21915</start>
						<end>21975</end>
						<in>0</in>
						<out>60</out>
					</clipitem>
					<clipitem frameBlend="FALSE" id="clipitem-telop-2586">
						<file id="file-2"/>
						<name>！</name>
						<rate>
							<timebase>59</timebase>
							<ntsc>TRUE</ntsc>
						</rate>
						<rate>
							<timebase>59</timebase>
							<ntsc>TRUE</ntsc>
						</rate>
						<duration>60</duration>
						<start>21981</start>
						<end>22041</end>
						<in>0</in>
						<out>60</out>
					</clipitem>
					<clipitem frameBlend="FALSE" id="clipitem-telop-2595">
						<file id="file-2"/>
						<name>！</name>
						<rate>
							<timebase>59</timebase>
							<ntsc>TRUE</ntsc>
						</rate>
						<rate>
							<timebase>59</timebase>
							<ntsc>TRUE</ntsc>
						</rate>
						<duration>60</duration>
						<start>22047</start>
						<end>22107</end>
						<in>0</in>
						<out>60</out>
					</clipitem>
					<clipitem frameBlend="FALSE" id="clipitem-telop-2607">
						<file id="file-2"/>
						<name>w</name>
						<rate>
							<timebase>59</timebase>
							<ntsc>TRUE</ntsc>
						</rate>
						<rate>
							<timebase>59</timebase>
							<ntsc>TRUE</ntsc>
						</rate>
						<duration>24</duration>
						<start>22107</start>
						<end>22131</end>
						<in>0</in>
						<out>24</out>
					</clipitem>
					<clipitem frameBlend="FALSE" id="clipitem-telop-2612">
						<file id="file-2"/>
						<name>！</name>
						<rate>
							<timebase>59</timebase>
							<ntsc>TRUE</ntsc>
						</rate>
						<rate>
							<timebase>59</timebase>
							<ntsc>TRUE</ntsc>
						</rate>
						<duration>60</duration>
						<start>22131</start>
						<end>22191</end>
						<in>0</in>
						<out>60</out>
					</clipitem>
					<clipitem frameBlend="FALSE" id="clipitem-telop-2624">
						<file id="file-2"/>
						<name>！</name>
						<rate>
							<timebase>59</timebase>
							<ntsc>TRUE</ntsc>
						</rate>
						<rate>
							<timebase>59</timebase>
							<ntsc>TRUE</ntsc>
						</rate>
						<duration>60</duration>
						<start>22197</start>
						<end>22257</end>
						<in>0</in>
						<out>60</out>
					</clipitem>
					<clipitem frameBlend="FALSE" id="clipitem-telop-2632">
						<file id="file-2"/>
						<name>！</name>
						<rate>
							<timebase>59</timebase>
							<ntsc>TRUE</ntsc>
						</rate>
						<rate>
							<timebase>59</timebase>
							<ntsc>TRUE</ntsc>
						</rate>
						<duration>60</duration>
						<start>22257</start>
						<end>22317</end>
						<in>0</in>
						<out>60</out>
					</clipitem>
					<clipitem frameBlend="FALSE" id="clipitem-telop-2642">
						<file id="file-2"/>
						<name>！</name>
						<rate>
							<timebase>59</timebase>
							<ntsc>TRUE</ntsc>
						</rate>
						<rate>
							<timebase>59</timebase>
							<ntsc>TRUE</ntsc>
						</rate>
						<duration>66</duration>
						<start>22323</start>
						<end>22389</end>
						<in>0</in>
						<out>66</out>
					</clipitem>
					<clipitem frameBlend="FALSE" id="clipitem-telop-2645">
						<file id="file-2"/>
						<name>！</name>
						<rate>
							<timebase>59</timebase>
							<ntsc>TRUE</ntsc>
						</rate>
						<rate>
							<timebase>59</timebase>
							<ntsc>TRUE</ntsc>
						</rate>
						<duration>60</duration>
						<start>22401</start>
						<end>22461</end>
						<in>0</in>
						<out>60</out>
					</clipitem>
					<clipitem frameBlend="FALSE" id="clipitem-telop-2657">
						<file id="file-2"/>
						<name>！</name>
						<rate>
							<timebase>59</timebase>
							<ntsc>TRUE</ntsc>
						</rate>
						<rate>
							<timebase>59</timebase>
							<ntsc>TRUE</ntsc>
						</rate>
						<duration>60</duration>
						<start>22461</start>
						<end>22521</end>
						<in>0</in>
						<out>60</out>
					</clipitem>
					<clipitem frameBlend="FALSE" id="clipitem-telop-2666">
						<file id="file-2"/>
						<name>！</name>
						<rate>
							<timebase>59</timebase>
							<ntsc>TRUE</ntsc>
						</rate>
						<rate>
							<timebase>59</timebase>
							<ntsc>TRUE</ntsc>
						</rate>
						<duration>60</duration>
						<start>22527</start>
						<end>22587</end>
						<in>0</in>
						<out>60</out>
					</clipitem>
					<clipitem frameBlend="FALSE" id="clipitem-telop-2672">
						<file id="file-2"/>
						<name>！</name>
						<rate>
							<timebase>59</timebase>
							<ntsc>TRUE</ntsc>
						</rate>
						<rate>
							<timebase>59</timebase>
							<ntsc>TRUE</ntsc>
						</rate>
						<duration>60</duration>
						<start>22587</start>
						<end>22647</end>
						<in>0</in>
						<out>60</out>
					</clipitem>
					<clipitem frameBlend="FALSE" id="clipitem-telop-2679">
						<file id="file-2"/>
						<name>！</name>
						<rate>
							<timebase>59</timebase>
							<ntsc>TRUE</ntsc>
						</rate>
						<rate>
							<timebase>59</timebase>
							<ntsc>TRUE</ntsc>
						</rate>
						<duration>66</duration>
						<start>22647</start>
						<end>22713</end>
						<in>0</in>
						<out>66</out>
					</clipitem>
					<clipitem frameBlend="FALSE" id="clipitem-telop-2687">
						<file id="file-2"/>
						<name>！</name>
						<rate>
							<timebase>59</timebase>
							<ntsc>TRUE</ntsc>
						</rate>
						<rate>
							<timebase>59</timebase>
							<ntsc>TRUE</ntsc>
						</rate>
						<duration>60</duration>
						<start>22713</start>
						<end>22773</end>
						<in>0</in>
						<out>60</out>
					</clipitem>
					<clipitem frameBlend="FALSE" id="clipitem-telop-2698">
						<file id="file-2"/>
						<name>！</name>
						<rate>
							<timebase>59</timebase>
							<ntsc>TRUE</ntsc>
						</rate>
						<rate>
							<timebase>59</timebase>
							<ntsc>TRUE</ntsc>
						</rate>
						<duration>60</duration>
						<start>22791</start>
						<end>22851</end>
						<in>0</in>
						<out>60</out>
					</clipitem>
					<clipitem frameBlend="FALSE" id="clipitem-telop-2707">
						<file id="file-2"/>
						<name>！</name>
						<rate>
							<timebase>59</timebase>
							<ntsc>TRUE</ntsc>
						</rate>
						<rate>
							<timebase>59</timebase>
							<ntsc>TRUE</ntsc>
						</rate>
						<duration>60</duration>
						<start>22851</start>
						<end>22911</end>
						<in>0</in>
						<out>60</out>
					</clipitem>
					<clipitem frameBlend="FALSE" id="clipitem-telop-2711">
						<file id="file-2"/>
						<name>！</name>
						<rate>
							<timebase>59</timebase>
							<ntsc>TRUE</ntsc>
						</rate>
						<rate>
							<timebase>59</timebase>
							<ntsc>TRUE</ntsc>
						</rate>
						<duration>60</duration>
						<start>22911</start>
						<end>22971</end>
						<in>0</in>
						<out>60</out>
					</clipitem>
					<clipitem frameBlend="FALSE" id="clipitem-telop-2723">
						<file id="file-2"/>
						<name>！</name>
						<rate>
							<timebase>59</timebase>
							<ntsc>TRUE</ntsc>
						</rate>
						<rate>
							<timebase>59</timebase>
							<ntsc>TRUE</ntsc>
						</rate>
						<duration>60</duration>
						<start>22977</start>
						<end>23037</end>
						<in>0</in>
						<out>60</out>
					</clipitem>
					<clipitem frameBlend="FALSE" id="clipitem-telop-2731">
						<file id="file-2"/>
						<name>！</name>
						<rate>
							<timebase>59</timebase>
							<ntsc>TRUE</ntsc>
						</rate>
						<rate>
							<timebase>59</timebase>
							<ntsc>TRUE</ntsc>
						</rate>
						<duration>60</duration>
						<start>23043</start>
						<end>23103</end>
						<in>0</in>
						<out>60</out>
					</clipitem>
					<clipitem frameBlend="FALSE" id="clipitem-telop-2738">
						<file id="file-2"/>
						<name>！</name>
						<rate>
							<timebase>59</timebase>
							<ntsc>TRUE</ntsc>
						</rate>
						<rate>
							<timebase>59</timebase>
							<ntsc>TRUE</ntsc>
						</rate>
						<duration>66</duration>
						<start>23103</start>
						<end>23169</end>
						<in>0</in>
						<out>66</out>
					</clipitem>
					<clipitem frameBlend="FALSE" id="clipitem-telop-2745">
						<file id="file-2"/>
						<name>！</name>
						<rate>
							<timebase>59</timebase>
							<ntsc>TRUE</ntsc>
						</rate>
						<rate>
							<timebase>59</timebase>
							<ntsc>TRUE</ntsc>
						</rate>
						<duration>60</duration>
						<start>23169</start>
						<end>23229</end>
						<in>0</in>
						<out>60</out>
					</clipitem>
					<clipitem frameBlend="FALSE" id="clipitem-telop-2755">
						<file id="file-2"/>
						<name>！</name>
						<rate>
							<timebase>59</timebase>
							<ntsc>TRUE</ntsc>
						</rate>
						<rate>
							<timebase>59</timebase>
							<ntsc>TRUE</ntsc>
						</rate>
						<duration>60</duration>
						<start>23229</start>
						<end>23289</end>
						<in>0</in>
						<out>60</out>
					</clipitem>
					<clipitem frameBlend="FALSE" id="clipitem-telop-2763">
						<file id="file-2"/>
						<name>！</name>
						<rate>
							<timebase>59</timebase>
							<ntsc>TRUE</ntsc>
						</rate>
						<rate>
							<timebase>59</timebase>
							<ntsc>TRUE</ntsc>
						</rate>
						<duration>66</duration>
						<start>23289</start>
						<end>23355</end>
						<in>0</in>
						<out>66</out>
					</clipitem>
					<clipitem frameBlend="FALSE" id="clipitem-telop-2774">
						<file id="file-2"/>
						<name>w</name>
						<rate>
							<timebase>59</timebase>
							<ntsc>TRUE</ntsc>
						</rate>
						<rate>
							<timebase>59</timebase>
							<ntsc>TRUE</ntsc>
						</rate>
						<duration>30</duration>
						<start>23355</start>
						<end>23385</end>
						<in>0</in>
						<out>30</out>
					</clipitem>
					<clipitem frameBlend="FALSE" id="clipitem-telop-2781">
						<file id="file-2"/>
						<name>！</name>
						<rate>
							<timebase>59</timebase>
							<ntsc>TRUE</ntsc>
						</rate>
						<rate>
							<timebase>59</timebase>
							<ntsc>TRUE</ntsc>
						</rate>
						<duration>60</duration>
						<start>23397</start>
						<end>23457</end>
						<in>0</in>
						<out>60</out>
					</clipitem>
					<clipitem frameBlend="FALSE" id="clipitem-telop-2791">
						<file id="file-2"/>
						<name>w</name>
						<rate>
							<timebase>59</timebase>
							<ntsc>TRUE</ntsc>
						</rate>
						<rate>
							<timebase>59</timebase>
							<ntsc>TRUE</ntsc>
						</rate>
						<duration>24</duration>
						<start>23457</start>
						<end>23481</end>
						<in>0</in>
						<out>24</out>
					</clipitem>
					<clipitem frameBlend="FALSE" id="clipitem-telop-2795">
						<file id="file-2"/>
						<name>！</name>
						<rate>
							<timebase>59</timebase>
							<ntsc>TRUE</ntsc>
						</rate>
						<rate>
							<timebase>59</timebase>
							<ntsc>TRUE</ntsc>
						</rate>
						<duration>60</duration>
						<start>23487</start>
						<end>23547</end>
						<in>0</in>
						<out>60</out>
					</clipitem>
					<clipitem frameBlend="FALSE" id="clipitem-telop-2802">
						<file id="file-2"/>
						<name>！</name>
						<rate>
							<timebase>59</timebase>
							<ntsc>TRUE</ntsc>
						</rate>
						<rate>
							<timebase>59</timebase>
							<ntsc>TRUE</ntsc>
						</rate>
						<duration>60</duration>
						<start>23547</start>
						<end>23607</end>
						<in>0</in>
						<out>60</out>
					</clipitem>
					<clipitem frameBlend="FALSE" id="clipitem-telop-2806">
						<file id="file-2"/>
						<name>！</name>
						<rate>
							<timebase>59</timebase>
							<ntsc>TRUE</ntsc>
						</rate>
						<rate>
							<timebase>59</timebase>
							<ntsc>TRUE</ntsc>
						</rate>
						<duration>60</duration>
						<start>23607</start>
						<end>23667</end>
						<in>0</in>
						<out>60</out>
					</clipitem>
					<clipitem frameBlend="FALSE" id="clipitem-telop-2814">
						<file id="file-2"/>
						<name>w</name>
						<rate>
							<timebase>59</timebase>
							<ntsc>TRUE</ntsc>
						</rate>
						<rate>
							<timebase>59</timebase>
							<ntsc>TRUE</ntsc>
						</rate>
						<duration>24</duration>
						<start>23667</start>
						<end>23691</end>
						<in>0</in>
						<out>24</out>
					</clipitem>
					<clipitem frameBlend="FALSE" id="clipitem-telop-2819">
						<file id="file-2"/>
						<name>！</name>
						<rate>
							<timebase>59</timebase>
							<ntsc>TRUE</ntsc>
						</rate>
						<rate>
							<timebase>59</timebase>
							<ntsc>TRUE</ntsc>
						</rate>
						<duration>60</duration>
						<start>23691</start>
						<end>23751</end>
						<in>0</in>
						<out>60</out>
					</clipitem>
					<clipitem frameBlend="FALSE" id="clipitem-telop-2826">
						<file id="file-2"/>
						<name>こいつ強い</name>
						<rate>
							<timebase>59</timebase>
							<ntsc>TRUE</ntsc>
						</rate>
						<rate>
							<timebase>59</timebase>
							<ntsc>TRUE</ntsc>
						</rate>
						<duration>60</duration>
						<start>23751</start>
						<end>23811</end>
						<in>0</in>
						<out>60</out>
					</clipitem>
					<clipitem frameBlend="FALSE" id="clipitem-telop-2839">
						<file id="file-2"/>
						<name>勝てない</name>
						<rate>
							<timebase>59</timebase>
							<ntsc>TRUE</ntsc>
						</rate>
						<rate>
							<timebase>59</timebase>
							<ntsc>TRUE</ntsc>
						</rate>
						<duration>60</duration>
						<start>23811</start>
						<end>23871</end>
						<in>0</in>
						<out>60</out>
					</clipitem>
					<clipitem frameBlend="FALSE" id="clipitem-telop-2852">
						<file id="file-2"/>
						<name>w</name>
						<rate>
							<timebase>59</timebase>
							<ntsc>TRUE</ntsc>
						</rate>
						<rate>
							<timebase>59</timebase>
							<ntsc>TRUE</ntsc>
						</rate>
						<duration>30</duration>
						<start>23871</start>
						<end>23901</end>
						<in>0</in>
						<out>30</out>
					</clipitem>
					<clipitem frameBlend="FALSE" id="clipitem-telop-2860">
						<file id="file-2"/>
						<name>！</name>
						<rate>
							<timebase>59</timebase>
							<ntsc>TRUE</ntsc>
						</rate>
						<rate>
							<timebase>59</timebase>
							<ntsc>TRUE</ntsc>
						</rate>
						<duration>60</duration>
						<start>23919</start>
						<end>23979</end>
						<in>0</in>
						<out>60</out>
					</clipitem>
					<clipitem frameBlend="FALSE" id="clipitem-telop-2864">
						<file id="file-2"/>
						<name>！</name>
						<rate>
							<timebase>59</timebase>
							<ntsc>TRUE</ntsc>
						</rate>
						<rate>
							<timebase>59</timebase>
							<ntsc>TRUE</ntsc>
						</rate>
						<duration>60</duration>
						<start>23979</start>
						<end>24039</end>
						<in>0</in>
						<out>60</out>
					</clipitem>
					<clipitem frameBlend="FALSE" id="clipitem-telop-2873">
						<file id="file-2"/>
						<name>！</name>
						<rate>
							<timebase>59</timebase>
							<ntsc>TRUE</ntsc>
						</rate>
						<rate>
							<timebase>59</timebase>
							<ntsc>TRUE</ntsc>
						</rate>
						<duration>60</duration>
						<start>24045</start>
						<end>24105</end>
						<in>0</in>
						<out>60</out>
					</clipitem>
					<clipitem frameBlend="FALSE" id="clipitem-telop-2886">
						<file id="file-2"/>
						<name>！</name>
						<rate>
							<timebase>59</timebase>
							<ntsc>TRUE</ntsc>
						</rate>
						<rate>
							<timebase>59</timebase>
							<ntsc>TRUE</ntsc>
						</rate>
						<duration>60</duration>
						<start>24117</start>
						<end>24177</end>
						<in>0</in>
						<out>60</out>
					</clipitem>
					<clipitem frameBlend="FALSE" id="clipitem-telop-2899">
						<file id="file-2"/>
						<name>！</name>
						<rate>
							<timebase>59</timebase>
							<ntsc>TRUE</ntsc>
						</rate>
						<rate>
							<timebase>59</timebase>
							<ntsc>TRUE</ntsc>
						</rate>
						<duration>60</duration>
						<start>24183</start>
						<end>24243</end>
						<in>0</in>
						<out>60</out>
					</clipitem>
					<clipitem frameBlend="FALSE" id="clipitem-telop-2912">
						<file id="file-2"/>
						<name>！</name>
						<rate>
							<timebase>59</timebase>
							<ntsc>TRUE</ntsc>
						</rate>
						<rate>
							<timebase>59</timebase>
							<ntsc>TRUE</ntsc>
						</rate>
						<duration>60</duration>
						<start>24243</start>
						<end>24303</end>
						<in>0</in>
						<out>60</out>
					</clipitem>
					<clipitem frameBlend="FALSE" id="clipitem-telop-2916">
						<file id="file-2"/>
						<name>！</name>
						<rate>
							<timebase>59</timebase>
							<ntsc>TRUE</ntsc>
						</rate>
						<rate>
							<timebase>59</timebase>
							<ntsc>TRUE</ntsc>
						</rate>
						<duration>60</duration>
						<start>24303</start>
						<end>24363</end>
						<in>0</in>
						<out>60</out>
					</clipitem>
					<clipitem frameBlend="FALSE" id="clipitem-telop-2927">
						<file id="file-2"/>
						<name>！</name>
						<rate>
							<timebase>59</timebase>
							<ntsc>TRUE</ntsc>
						</rate>
						<rate>
							<timebase>59</timebase>
							<ntsc>TRUE</ntsc>
						</rate>
						<duration>60</duration>
						<start>24369</start>
						<end>24429</end>
						<in>0</in>
						<out>60</out>
					</clipitem>
					<clipitem frameBlend="FALSE" id="clipitem-telop-2933">
						<file id="file-2"/>
						<name>！</name>
						<rate>
							<timebase>59</timebase>
							<ntsc>TRUE</ntsc>
						</rate>
						<rate>
							<timebase>59</timebase>
							<ntsc>TRUE</ntsc>
						</rate>
						<duration>60</duration>
						<start>24429</start>
						<end>24489</end>
						<in>0</in>
						<out>60</out>
					</clipitem>
					<clipitem frameBlend="FALSE" id="clipitem-telop-2941">
						<file id="file-2"/>
						<name>！</name>
						<rate>
							<timebase>59</timebase>
							<ntsc>TRUE</ntsc>
						</rate>
						<rate>
							<timebase>59</timebase>
							<ntsc>TRUE</ntsc>
						</rate>
						<duration>42</duration>
						<start>24495</start>
						<end>24537</end>
						<in>0</in>
						<out>42</out>
					</clipitem>
				</track>
				<track>
					<clipitem frameBlend="FALSE" id="clipitem-telop-3">
						<file id="file-2"/>
						<name>！</name>
						<rate>
							<timebase>59</timebase>
							<ntsc>TRUE</ntsc>
						</rate>
						<rate>
							<timebase>59</timebase>
							<ntsc>TRUE</ntsc>
						</rate>
						<duration>59</duration>
						<start>0</start>
						<end>59</end>
						<in>0</in>
						<out>59</out>
					</clipitem>
					<clipitem frameBlend="FALSE" id="clipitem-telop-9">
						<file id="file-2"/>
						<name>！</name>
						<rate>
							<timebase>59</timebase>
							<ntsc>TRUE</ntsc>
						</rate>
						<rate>
							<timebase>59</timebase>
							<ntsc>TRUE</ntsc>
						</rate>
						<duration>66</duration>
						<start>71</start>
						<end>137</end>
						<in>0</in>
						<out>66</out>
					</clipitem>
					<clipitem frameBlend="FALSE" id="clipitem-telop-18">
						<file id="file-2"/>
						<name>！</name>
						<rate>
							<timebase>59</timebase>
							<ntsc>TRUE</ntsc>
						</rate>
						<rate>
							<timebase>59</timebase>
							<ntsc>TRUE</ntsc>
						</rate>
						<duration>60</duration>
						<start>143</start>
						<end>203</end>
						<in>0</in>
						<out>60</out>
					</clipitem>
					<clipitem frameBlend="FALSE" id="clipitem-telop-25">
						<file id="file-2"/>
						<name>！</name>
						<rate>
							<timebase>59</timebase>
							<ntsc>TRUE</ntsc>
						</rate>
						<rate>
							<timebase>59</timebase>
							<ntsc>TRUE</ntsc>
						</rate>
						<duration>60</duration>
						<start>221</start>
						<end>281</end>
						<in>0</in>
						<out>60</out>
					</clipitem>
					<clipitem frameBlend="FALSE" id="clipitem-telop-32">
						<file id="file-2"/>
						<name>！</name>
						<rate>
							<timebase>59</timebase>
							<ntsc>TRUE</ntsc>
						</rate>
						<rate>
							<timebase>59</timebase>
							<ntsc>TRUE</ntsc>
						</rate>
						<duration>60</duration>
						<start>287</start>
						<end>347</end>
						<in>0</in>
						<out>60</out>
					</clipitem>
					<clipitem frameBlend="FALSE" id="clipitem-telop-39">
						<file id="file-2"/>
						<name>！</name>
						<rate>
							<timebase>59</timebase>
							<ntsc>TRUE</ntsc>
						</rate>
						<rate>
							<timebase>59</timebase>
							<ntsc>TRUE</ntsc>
						</rate>
						<duration>60</duration>
						<start>347</start>
						<end>407</end>
						<in>0</in>
						<out>60</out>
					</clipitem>
					<clipitem frameBlend="FALSE" id="clipitem-telop-46">
						<file id="file-2"/>
						<name>！</name>
						<rate>
							<timebase>59</timebase>
							<ntsc>TRUE</ntsc>
						</rate>
						<rate>
							<timebase>59</timebase>
							<ntsc>TRUE</ntsc>
						</rate>
						<duration>60</duration>
						<start>413</start>
						<end>473</end>
						<in>0</in>
						<out>60</out>
					</clipitem>
					<clipitem frameBlend="FALSE" id="clipitem-telop-53">
						<file id="file-2"/>
						<name>！</name>
						<rate>
							<timebase>59</timebase>
							<ntsc>TRUE</ntsc>
						</rate>
						<rate>
							<timebase>59</timebase>
							<ntsc>TRUE</ntsc>
						</rate>
						<duration>66</duration>
						<start>491</start>
						<end>557</end>
						<in>0</in>
						<out>66</out>
					</clipitem>
					<clipitem frameBlend="FALSE" id="clipitem-telop-64">
						<file id="file-2"/>
						<name>！</name>
						<rate>
							<timebase>59</timebase>
							<ntsc>TRUE</ntsc>
						</rate>
						<rate>
							<timebase>59</timebase>
							<ntsc>TRUE</ntsc>
						</rate>
						<duration>60</duration>
						<start>557</start>
						<end>617</end>
						<in>0</in>
						<out>60</out>
					</clipitem>
					<clipitem frameBlend="FALSE" id="clipitem-telop-71">
						<file id="file-2"/>
						<name>！</name>
						<rate>
							<timebase>59</timebase>
							<ntsc>TRUE</ntsc>
						</rate>
						<rate>
							<timebase>59</timebase>
							<ntsc>TRUE</ntsc>
						</rate>
						<duration>66</duration>
						<start>617</start>
						<end>683</end>
						<in>0</in>
						<out>66</out>
					</clipitem>
					<clipitem frameBlend="FALSE" id="clipitem-telop-78">
						<file id="file-2"/>
						<name>！</name>
						<rate>
							<timebase>59</timebase>
							<ntsc>TRUE</ntsc>
						</rate>
						<rate>
							<timebase>59</timebase>
							<ntsc>TRUE</ntsc>
						</rate>
						<duration>60</duration>
						<start>689</start>
						<end>749</end>
						<in>0</in>
						<out>60</out>
					</clipitem>
					<clipitem frameBlend="FALSE" id="clipitem-telop-84">
						<file id="file-2"/>
						<name>！</name>
						<rate>
							<timebase>59</timebase>
							<ntsc>TRUE</ntsc>
						</rate>
						<rate>
							<timebase>59</timebase>
							<ntsc>TRUE</ntsc>
						</rate>
						<duration>60</duration>
						<start>749</start>
						<end>809</end>
						<in>0</in>
						<out>60</out>
					</clipitem>
					<clipitem frameBlend="FALSE" id="clipitem-telop-94">
						<file id="file-2"/>
						<name>！</name>
						<rate>
							<timebase>59</timebase>
							<ntsc>TRUE</ntsc>
						</rate>
						<rate>
							<timebase>59</timebase>
							<ntsc>TRUE</ntsc>
						</rate>
						<duration>60</duration>
						<start>809</start>
						<end>869</end>
						<in>0</in>
						<out>60</out>
					</clipitem>
					<clipitem frameBlend="FALSE" id="clipitem-telop-97">
						<file id="file-2"/>
						<name>！</name>
						<rate>
							<timebase>59</timebase>
							<ntsc>TRUE</ntsc>
						</rate>
						<rate>
							<timebase>59</timebase>
							<ntsc>TRUE</ntsc>
						</rate>
						<duration>60</duration>
						<start>881</start>
						<end>941</end>
						<in>0</in>
						<out>60</out>
					</clipitem>
					<clipitem frameBlend="FALSE" id="clipitem-telop-105">
						<file id="file-2"/>
						<name>！</name>
						<rate>
							<timebase>59</timebase>
							<ntsc>TRUE</ntsc>
						</rate>
						<rate>
							<timebase>59</timebase>
							<ntsc>TRUE</ntsc>
						</rate>
						<duration>60</duration>
						<start>947</start>
						<end>1007</end>
						<in>0</in>
						<out>60</out>
					</clipitem>
					<clipitem frameBlend="FALSE" id="clipitem-telop-117">
						<file id="file-2"/>
						<name>！</name>
						<rate>
							<timebase>59</timebase>
							<ntsc>TRUE</ntsc>
						</rate>
						<rate>
							<timebase>59</timebase>
							<ntsc>TRUE</ntsc>
						</rate>
						<duration>60</duration>
						<start>1031</start>
						<end>1091</end>
						<in>0</in>
						<out>60</out>
					</clipitem>
					<clipitem frameBlend="FALSE" id="clipitem-telop-123">
						<file id="file-2"/>
						<name>w</name>
						<rate>
							<timebase>59</timebase>
							<ntsc>TRUE</ntsc>
						</rate>
						<rate>
							<timebase>59</timebase>
							<ntsc>TRUE</ntsc>
						</rate>
						<duration>30</duration>
						<start>1097</start>
						<end>1127</end>
						<in>0</in>
						<out>30</out>
					</clipitem>
					<clipitem frameBlend="FALSE" id="clipitem-telop-127">
						<file id="file-2"/>
						<name>！</name>
						<rate>
							<timebase>59</timebase>
							<ntsc>TRUE</ntsc>
						</rate>
						<rate>
							<timebase>59</timebase>
							<ntsc>TRUE</ntsc>
						</rate>
						<duration>66</duration>
						<start>1139</start>
						<end>1205</end>
						<in>0</in>
						<out>66</out>
					</clipitem>
					<clipitem frameBlend="FALSE" id="clipitem-telop-136">
						<file id="file-2"/>
						<name>！</name>
						<rate>
							<timebase>59</timebase>
							<ntsc>TRUE</ntsc>
						</rate>
						<rate>
							<timebase>59</timebase>
							<ntsc>TRUE</ntsc>
						</rate>
						<duration>60</duration>
						<start>1223</start>
						<end>1283</end>
						<in>0</in>
						<out>60</out>
					</clipitem>
					<clipitem frameBlend="FALSE" id="clipitem-telop-142">
						<file id="file-2"/>
						<name>！</name>
						<rate>
							<timebase>59</timebase>
							<ntsc>TRUE</ntsc>
						</rate>
						<rate>
							<timebase>59</timebase>
							<ntsc>TRUE</ntsc>
						</rate>
						<duration>60</duration>
						<start>1289</start>
						<end>1349</end>
						<in>0</in>
						<out>60</out>
					</clipitem>
					<clipitem frameBlend="FALSE" id="clipitem-telop-147">
						<file id="file-2"/>
						<name>！</name>
						<rate>
							<timebase>59</timebase>
							<ntsc>TRUE</ntsc>
						</rate>
						<rate>
							<timebase>59</timebase>
							<ntsc>TRUE</ntsc>
						</rate>
						<duration>60</duration>
						<start>1349</start>
						<end>1409</end>
						<in>0</in>
						<out>60</out>
					</clipitem>
					<clipitem frameBlend="FALSE" id="clipitem-telop-155">
						<file id="file-2"/>
						<name>！</name>
						<rate>
							<timebase>59</timebase>
							<ntsc>TRUE</ntsc>
						</rate>
						<rate>
							<timebase>59</timebase>
							<ntsc>TRUE</ntsc>
						</rate>
						<duration>60</duration>
						<start>1439</start>
						<end>1499</end>
						<in>0</in>
						<out>60</out>
					</clipitem>
					<clipitem frameBlend="FALSE" id="clipitem-telop-167">
						<file id="file-2"/>
						<name>！</name>
						<rate>
							<timebase>59</timebase>
							<ntsc>TRUE</ntsc>
						</rate>
						<rate>
							<timebase>59</timebase>
							<ntsc>TRUE</ntsc>
						</rate>
						<duration>60</duration>
						<start>1499</start>
						<end>1559</end>
						<in>0</in>
						<out>60</out>
					</clipitem>
					<clipitem frameBlend="FALSE" id="clipitem-telop-172">
						<file id="file-2"/>
						<name>！</name>
						<rate>
							<timebase>59</timebase>
							<ntsc>TRUE</ntsc>
						</rate>
						<rate>
							<timebase>59</timebase>
							<ntsc>TRUE</ntsc>
						</rate>
						<duration>60</duration>
						<start>1559</start>
						<end>1619</end>
						<in>0</in>
						<out>60</out>
					</clipitem>
					<clipitem frameBlend="FALSE" id="clipitem-telop-181">
						<file id="file-2"/>
						<name>！</name>
						<rate>
							<timebase>59</timebase>
							<ntsc>TRUE</ntsc>
						</rate>
						<rate>
							<timebase>59</timebase>
							<ntsc>TRUE</ntsc>
						</rate>
						<duration>60</duration>
						<start>1619</start>
						<end>1679</end>
						<in>0</in>
						<out>60</out>
					</clipitem>
					<clipitem frameBlend="FALSE" id="clipitem-telop-189">
						<file id="file-2"/>
						<name>！</name>
						<rate>
							<timebase>59</timebase>
							<ntsc>TRUE</ntsc>
						</rate>
						<rate>
							<timebase>59</timebase>
							<ntsc>TRUE</ntsc>
						</rate>
						<duration>60</duration>
						<start>1685</start>
						<end>1745</end>
						<in>0</in>
						<out>60</out>
					</clipitem>
					<clipitem frameBlend="FALSE" id="clipitem-telop-196">
						<file id="file-2"/>
						<name>！</name>
						<rate>
							<timebase>59</timebase>
							<ntsc>TRUE</ntsc>
						</rate>
						<rate>
							<timebase>59</timebase>
							<ntsc>TRUE</ntsc>
						</rate>
						<duration>60</duration>
						<start>1751</start>
						<end>1811</end>
						<in>0</in>
						<out>60</out>
					</clipitem>
					<clipitem frameBlend="FALSE" id="clipitem-telop-207">
						<file id="file-2"/>
						<name>！</name>
						<rate>
							<timebase>59</timebase>
							<ntsc>TRUE</ntsc>
						</rate>
						<rate>
							<timebase>59</timebase>
							<ntsc>TRUE</ntsc>
						</rate>
						<duration>66</duration>
						<start>1817</start>
						<end>1883</end>
						<in>0</in>
						<out>66</out>
					</clipitem>
					<clipitem frameBlend="FALSE" id="clipitem-telop-214">
						<file id="file-2"/>
						<name>w</name>
						<rate>
							<timebase>59</timebase>
							<ntsc>TRUE</ntsc>
						</rate>
						<rate>
							<timebase>59</timebase>
							<ntsc>TRUE</ntsc>
						</rate>
						<duration>30</duration>
						<start>1889</start>
						<end>1919</end>
						<in>0</in>
						<out>30</out>
					</clipitem>
					<clipitem frameBlend="FALSE" id="clipitem-telop-217">
						<file id="file-2"/>
						<name>！</name>
						<rate>
							<timebase>59</timebase>
							<ntsc>TRUE</ntsc>
						</rate>
						<rate>
							<timebase>59</timebase>
							<ntsc>TRUE</ntsc>
						</rate>
						<duration>60</duration>
						<start>1919</start>
						<end>1979</end>
						<in>0</in>
						<out>60</out>
					</clipitem>
					<clipitem frameBlend="FALSE" id="clipitem-telop-224">
						<file id="file-2"/>
						<name>！</name>
						<rate>
							<timebase>59</timebase>
							<ntsc>TRUE</ntsc>
						</rate>
						<rate>
							<timebase>59</timebase>
							<ntsc>TRUE</ntsc>
						</rate>
						<duration>66</duration>
						<start>1979</start>
						<end>2045</end>
						<in>0</in>
						<out>66</out>
					</clipitem>
					<clipitem frameBlend="FALSE" id="clipitem-telop-237">
						<file id="file-2"/>
						<name>！</name>
						<rate>
							<timebase>59</timebase>
							<ntsc>TRUE</ntsc>
						</rate>
						<rate>
							<timebase>59</timebase>
							<ntsc>TRUE</ntsc>
						</rate>
						<duration>60</duration>
						<start>2045</start>
						<end>2105</end>
						<in>0</in>
						<out>60</out>
					</clipitem>
					<clipitem frameBlend="FALSE" id="clipitem-telop-246">
						<file id="file-2"/>
						<name>！</name>
						<rate>
							<timebase>59</timebase>
							<ntsc>TRUE</ntsc>
						</rate>
						<rate>
							<timebase>59</timebase>
							<ntsc>TRUE</ntsc>
						</rate>
						<duration>60</duration>
						<start>2111</start>
						<end>2171</end>
						<in>0</in>
						<out>60</out>
					</clipitem>
					<clipitem frameBlend="FALSE" id="clipitem-telop-253">
						<file id="file-2"/>
						<name>！</name>
						<rate>
							<timebase>59</timebase>
							<ntsc>TRUE</ntsc>
						</rate>
						<rate>
							<timebase>59</timebase>
							<ntsc>TRUE</ntsc>
						</rate>
						<duration>66</duration>
						<start>2171</start>
						<end>2237</end>
						<in>0</in>
						<out>66</out>
					</clipitem>
					<clipitem frameBlend="FALSE" id="clipitem-telop-261">
						<file id="file-2"/>
						<name>！</name>
						<rate>
							<timebase>59</timebase>
							<ntsc>TRUE</ntsc>
						</rate>
						<rate>
							<timebase>59</timebase>
							<ntsc>TRUE</ntsc>
						</rate>
						<duration>60</duration>
						<start>2237</start>
						<end>2297</end>
						<in>0</in>
						<out>60</out>
					</clipitem>
					<clipitem frameBlend="FALSE" id="clipitem-telop-269">
						<file id="file-2"/>
						<name>！</name>
						<rate>
							<timebase>59</timebase>
							<ntsc>TRUE</ntsc>
						</rate>
						<rate>
							<timebase>59</timebase>
							<ntsc>TRUE</ntsc>
						</rate>
						<duration>60</duration>
						<start>2303</start>
						<end>2363</end>
						<in>0</in>
						<out>60</out>
					</clipitem>
					<clipitem frameBlend="FALSE" id="clipitem-telop-274">
						<file id="file-2"/>
						<name>！</name>
						<rate>
							<timebase>59</timebase>
							<ntsc>TRUE</ntsc>
						</rate>
						<rate>
							<timebase>59</timebase>
							<ntsc>TRUE</ntsc>
						</rate>
						<duration>60</duration>
						<start>2363</start>
						<end>2423</end>
						<in>0</in>
						<out>60</out>
					</clipitem>
					<clipitem frameBlend="FALSE" id="clipitem-telop-281">
						<file id="file-2"/>
						<name>！</name>
						<rate>
							<timebase>59</timebase>
							<ntsc>TRUE</ntsc>
						</rate>
						<rate>
							<timebase>59</timebase>
							<ntsc>TRUE</ntsc>
						</rate>
						<duration>60</duration>
						<start>2447</start>
						<end>2507</end>
						<in>0</in>
						<out>60</out>
					</clipitem>
					<clipitem frameBlend="FALSE" id="clipitem-telop-289">
						<file id="file-2"/>
						<name>！</name>
						<rate>
							<timebase>59</timebase>
							<ntsc>TRUE</ntsc>
						</rate>
						<rate>
							<timebase>59</timebase>
							<ntsc>TRUE</ntsc>
						</rate>
						<duration>60</duration>
						<start>2507</start>
						<end>2567</end>
						<in>0</in>
						<out>60</out>
					</clipitem>
					<clipitem frameBlend="FALSE" id="clipitem-telop-296">
						<file id="file-2"/>
						<name>！</name>
						<rate>
							<timebase>59</timebase>
							<ntsc>TRUE</ntsc>
						</rate>
						<rate>
							<timebase>59</timebase>
							<ntsc>TRUE</ntsc>
						</rate>
						<duration>66</duration>
						<start>2567</start>
						<end>2633</end>
						<in>0</in>
						<out>66</out>
					</clipitem>
					<clipitem frameBlend="FALSE" id="clipitem-telop-302">
						<file id="file-2"/>
						<name>！</name>
						<rate>
							<timebase>59</timebase>
							<ntsc>TRUE</ntsc>
						</rate>
						<rate>
							<timebase>59</timebase>
							<ntsc>TRUE</ntsc>
						</rate>
						<duration>60</duration>
						<start>2633</start>
						<end>2693</end>
						<in>0</in>
						<out>60</out>
					</clipitem>
					<clipitem frameBlend="FALSE" id="clipitem-telop-309">
						<file id="file-2"/>
						<name>！</name>
						<rate>
							<timebase>59</timebase>
							<ntsc>TRUE</ntsc>
						</rate>
						<rate>
							<timebase>59</timebase>
							<ntsc>TRUE</ntsc>
						</rate>
						<duration>60</duration>
						<start>2693</start>
						<end>2753</end>
						<in>0</in>
						<out>60</out>
					</clipitem>
					<clipitem frameBlend="FALSE" id="clipitem-telop-317">
						<file id="file-2"/>
						<name>！</name>
						<rate>
							<timebase>59</timebase>
							<ntsc>TRUE</ntsc>
						</rate>
						<rate>
							<timebase>59</timebase>
							<ntsc>TRUE</ntsc>
						</rate>
						<duration>60</duration>
						<start>2759</start>
						<end>2819</end>
						<in>0</in>
						<out>60</out>
					</clipitem>
					<clipitem frameBlend="FALSE" id="clipitem-telop-325">
						<file id="file-2"/>
						<name>！</name>
						<rate>
							<timebase>59</timebase>
							<ntsc>TRUE</ntsc>
						</rate>
						<rate>
							<timebase>59</timebase>
							<ntsc>TRUE</ntsc>
						</rate>
						<duration>66</duration>
						<start>2831</start>
						<end>2897</end>
						<in>0</in>
						<out>66</out>
					</clipitem>
					<clipitem frameBlend="FALSE" id="clipitem-telop-332">
						<file id="file-2"/>
						<name>！</name>
						<rate>
							<timebase>59</timebase>
							<ntsc>TRUE</ntsc>
						</rate>
						<rate>
							<timebase>59</timebase>
							<ntsc>TRUE</ntsc>
						</rate>
						<duration>60</duration>
						<start>2909</start>
						<end>2969</end>
						<in>0</in>
						<out>60</out>
					</clipitem>
					<clipitem frameBlend="FALSE" id="clipitem-telop-337">
						<file id="file-2"/>
						<name>！</name>
						<rate>
							<timebase>59</timebase>
							<ntsc>TRUE</ntsc>
						</rate>
						<rate>
							<timebase>59</timebase>
							<ntsc>TRUE</ntsc>
						</rate>
						<duration>60</duration>
						<start>2969</start>
						<end>3029</end>
						<in>0</in>
						<out>60</out>
					</clipitem>
					<clipitem frameBlend="FALSE" id="clipitem-telop-349">
						<file id="file-2"/>
						<name>！</name>
						<rate>
							<timebase>59</timebase>
							<ntsc>TRUE</ntsc>
						</rate>
						<rate>
							<timebase>59</timebase>
							<ntsc>TRUE</ntsc>
						</rate>
						<duration>66</duration>
						<start>3029</start>
						<end>3095</end>
						<in>0</in>
						<out>66</out>
					</clipitem>
					<clipitem frameBlend="FALSE" id="clipitem-telop-356">
						<file id="file-2"/>
						<name>！</name>
						<rate>
							<timebase>59</timebase>
							<ntsc>TRUE</ntsc>
						</rate>
						<rate>
							<timebase>59</timebase>
							<ntsc>TRUE</ntsc>
						</rate>
						<duration>60</duration>
						<start>3095</start>
						<end>3155</end>
						<in>0</in>
						<out>60</out>
					</clipitem>
					<clipitem frameBlend="FALSE" id="clipitem-telop-363">
						<file id="file-2"/>
						<name>！</name>
						<rate>
							<timebase>59</timebase>
							<ntsc>TRUE</ntsc>
						</rate>
						<rate>
							<timebase>59</timebase>
							<ntsc>TRUE</ntsc>
						</rate>
						<duration>60</duration>
						<start>3209</start>
						<end>3269</end>
						<in>0</in>
						<out>60</out>
					</clipitem>
					<clipitem frameBlend="FALSE" id="clipitem-telop-373">
						<file id="file-2"/>
						<name>w</name>
						<rate>
							<timebase>59</timebase>
							<ntsc>TRUE</ntsc>
						</rate>
						<rate>
							<timebase>59</timebase>
							<ntsc>TRUE</ntsc>
						</rate>
						<duration>30</duration>
						<start>3269</start>
						<end>3299</end>
						<in>0</in>
						<out>30</out>
					</clipitem>
					<clipitem frameBlend="FALSE" id="clipitem-telop-380">
						<file id="file-2"/>
						<name>w</name>
						<rate>
							<timebase>59</timebase>
							<ntsc>TRUE</ntsc>
						</rate>
						<rate>
							<timebase>59</timebase>
							<ntsc>TRUE</ntsc>
						</rate>
						<duration>24</duration>
						<start>3299</start>
						<end>3323</end>
						<in>0</in>
						<out>24</out>
					</clipitem>
					<clipitem frameBlend="FALSE" id="clipitem-telop-386">
						<file id="file-2"/>
						<name>w</name>
						<rate>
							<timebase>59</timebase>
							<ntsc>TRUE</ntsc>
						</rate>
						<rate>
							<timebase>59</timebase>
							<ntsc>TRUE</ntsc>
						</rate>
						<duration>30</duration>
						<start>3323</start>
						<end>3353</end>
						<in>0</in>
						<out>30</out>
					</clipitem>
					<clipitem frameBlend="FALSE" id="clipitem-telop-392">
						<file id="file-2"/>
						<name>！</name>
						<rate>
							<timebase>59</timebase>
							<ntsc>TRUE</ntsc>
						</rate>
						<rate>
							<timebase>59</timebase>
							<ntsc>TRUE</ntsc>
						</rate>
						<duration>66</duration>
						<start>3353</start>
						<end>3419</end>
						<in>0</in>
						<out>66</out>
					</clipitem>
					<clipitem frameBlend="FALSE" id="clipitem-telop-403">
						<file id="file-2"/>
						<name>！</name>
						<rate>
							<timebase>59</timebase>
							<ntsc>TRUE</ntsc>
						</rate>
						<rate>
							<timebase>59</timebase>
							<ntsc>TRUE</ntsc>
						</rate>
						<duration>60</duration>
						<start>3419</start>
						<end>3479</end>
						<in>0</in>
						<out>60</out>
					</clipitem>
					<clipitem frameBlend="FALSE" id="clipitem-telop-412">
						<file id="file-2"/>
						<name>！</name>
						<rate>
							<timebase>59</timebase>
							<ntsc>TRUE</ntsc>
						</rate>
						<rate>
							<timebase>59</timebase>
							<ntsc>TRUE</ntsc>
						</rate>
						<duration>60</duration>
						<start>3479</start>
						<end>3539</end>
						<in>0</in>
						<out>60</out>
					</clipitem>
					<clipitem frameBlend="FALSE" id="clipitem-telop-418">
						<file id="file-2"/>
						<name>！</name>
						<rate>
							<timebase>59</timebase>
							<ntsc>TRUE</ntsc>
						</rate>
						<rate>
							<timebase>59</timebase>
							<ntsc>TRUE</ntsc>
						</rate>
						<duration>60</duration>
						<start>3545</start>
						<end>3605</end>
						<in>0</in>
						<out>60</out>
					</clipitem>
					<clipitem frameBlend="FALSE" id="clipitem-telop-424">
						<file id="file-2"/>
						<name>！</name>
						<rate>
							<timebase>59</timebase>
							<ntsc>TRUE</ntsc>
						</rate>
						<rate>
							<timebase>59</timebase>
							<ntsc>TRUE</ntsc>
						</rate>
						<duration>66</duration>
						<start>3617</start>
						<end>3683</end>
						<in>0</in>
						<out>66</out>
					</clipitem>
					<clipitem frameBlend="FALSE" id="clipitem-telop-430">
						<file id="file-2"/>
						<name>！</name>
						<rate>
							<timebase>59</timebase>
							<ntsc>TRUE</ntsc>
						</rate>
						<rate>
							<timebase>59</timebase>
							<ntsc>TRUE</ntsc>
						</rate>
						<duration>60</duration>
						<start>3689</start>
						<end>3749</end>
						<in>0</in>
						<out>60</out>
					</clipitem>
					<clipitem frameBlend="FALSE" id="clipitem-telop-438">
						<file id="file-2"/>
						<name>！</name>
						<rate>
							<timebase>59</timebase>
							<ntsc>TRUE</ntsc>
						</rate>
						<rate>
							<timebase>59</timebase>
							<ntsc>TRUE</ntsc>
						</rate>
						<duration>60</duration>
						<start>3749</start>
						<end>3809</end>
						<in>0</in>
						<out>60</out>
					</clipitem>
					<clipitem frameBlend="FALSE" id="clipitem-telop-446">
						<file id="file-2"/>
						<name>！</name>
						<rate>
							<timebase>59</timebase>
							<ntsc>TRUE</ntsc>
						</rate>
						<rate>
							<timebase>59</timebase>
							<ntsc>TRUE</ntsc>
						</rate>
						<duration>60</duration>
						<start>3827</start>
						<end>3887</end>
						<in>0</in>
						<out>60</out>
					</clipitem>
					<clipitem frameBlend="FALSE" id="clipitem-telop-457">
						<file id="file-2"/>
						<name>！</name>
						<rate>
							<timebase>59</timebase>
							<ntsc>TRUE</ntsc>
						</rate>
						<rate>
							<timebase>59</timebase>
							<ntsc>TRUE</ntsc>
						</rate>
						<duration>60</duration>
						<start>3887</start>
						<end>3947</end>
						<in>0</in>
						<out>60</out>
					</clipitem>
					<clipitem frameBlend="FALSE" id="clipitem-telop-467">
						<file id="file-2"/>
						<name>！</name>
						<rate>
							<timebase>59</timebase>
							<ntsc>TRUE</ntsc>
						</rate>
						<rate>
							<timebase>59</timebase>
							<ntsc>TRUE</ntsc>
						</rate>
						<duration>60</duration>
						<start>3947</start>
						<end>4007</end>
						<in>0</in>
						<out>60</out>
					</clipitem>
					<clipitem frameBlend="FALSE" id="clipitem-telop-473">
						<file id="file-2"/>
						<name>！</name>
						<rate>
							<timebase>59</timebase>
							<ntsc>TRUE</ntsc>
						</rate>
						<rate>
							<timebase>59</timebase>
							<ntsc>TRUE</ntsc>
						</rate>
						<duration>60</duration>
						<start>4007</start>
						<end>4067</end>
						<in>0</in>
						<out>60</out>
					</clipitem>
					<clipitem frameBlend="FALSE" id="clipitem-telop-478">
						<file id="file-2"/>
						<name>！</name>
						<rate>
							<timebase>59</timebase>
							<ntsc>TRUE</ntsc>
						</rate>
						<rate>
							<timebase>59</timebase>
							<ntsc>TRUE</ntsc>
						</rate>
						<duration>60</duration>
						<start>4067</start>
						<end>4127</end>
						<in>0</in>
						<out>60</out>
					</clipitem>
					<clipitem frameBlend="FALSE" id="clipitem-telop-484">
						<file id="file-2"/>
						<name>！</name>
						<rate>
							<timebase>59</timebase>
							<ntsc>TRUE</ntsc>
						</rate>
						<rate>
							<timebase>59</timebase>
							<ntsc>TRUE</ntsc>
						</rate>
						<duration>60</duration>
						<start>4133</start>
						<end>4193</end>
						<in>0</in>
						<out>60</out>
					</clipitem>
					<clipitem frameBlend="FALSE" id="clipitem-telop-493">
						<file id="file-2"/>
						<name>！</name>
						<rate>
							<timebase>59</timebase>
							<ntsc>TRUE</ntsc>
						</rate>
						<rate>
							<timebase>59</timebase>
							<ntsc>TRUE</ntsc>
						</rate>
						<duration>60</duration>
						<start>4223</start>
						<end>4283</end>
						<in>0</in>
						<out>60</out>
					</clipitem>
					<clipitem frameBlend="FALSE" id="clipitem-telop-496">
						<file id="file-2"/>
						<name>！</name>
						<rate>
							<timebase>59</timebase>
							<ntsc>TRUE</ntsc>
						</rate>
						<rate>
							<timebase>59</timebase>
							<ntsc>TRUE</ntsc>
						</rate>
						<duration>60</duration>
						<start>4283</start>
						<end>4343</end>
						<in>0</in>
						<out>60</out>
					</clipitem>
					<clipitem frameBlend="FALSE" id="clipitem-telop-506">
						<file id="file-2"/>
						<name>！</name>
						<rate>
							<timebase>59</timebase>
							<ntsc>TRUE</ntsc>
						</rate>
						<rate>
							<timebase>59</timebase>
							<ntsc>TRUE</ntsc>
						</rate>
						<duration>60</duration>
						<start>4343</start>
						<end>4403</end>
						<in>0</in>
						<out>60</out>
					</clipitem>
					<clipitem frameBlend="FALSE" id="clipitem-telop-514">
						<file id="file-2"/>
						<name>！</name>
						<rate>
							<timebase>59</timebase>
							<ntsc>TRUE</ntsc>
						</rate>
						<rate>
							<timebase>59</timebase>
							<ntsc>TRUE</ntsc>
						</rate>
						<duration>60</duration>
						<start>4403</start>
						<end>4463</end>
						<in>0</in>
						<out>60</out>
					</clipitem>
					<clipitem frameBlend="FALSE" id="clipitem-telop-523">
						<file id="file-2"/>
						<name>！</name>
						<rate>
							<timebase>59</timebase>
							<ntsc>TRUE</ntsc>
						</rate>
						<rate>
							<timebase>59</timebase>
							<ntsc>TRUE</ntsc>
						</rate>
						<duration>60</duration>
						<start>4463</start>
						<end>4523</end>
						<in>0</in>
						<out>60</out>
					</clipitem>
					<clipitem frameBlend="FALSE" id="clipitem-telop-528">
						<file id="file-2"/>
						<name>！</name>
						<rate>
							<timebase>59</timebase>
							<ntsc>TRUE</ntsc>
						</rate>
						<rate>
							<timebase>59</timebase>
							<ntsc>TRUE</ntsc>
						</rate>
						<duration>60</duration>
						<start>4523</start>
						<end>4583</end>
						<in>0</in>
						<out>60</out>
					</clipitem>
					<clipitem frameBlend="FALSE" id="clipitem-telop-539">
						<file id="file-2"/>
						<name>！</name>
						<rate>
							<timebase>59</timebase>
							<ntsc>TRUE</ntsc>
						</rate>
						<rate>
							<timebase>59</timebase>
							<ntsc>TRUE</ntsc>
						</rate>
						<duration>60</duration>
						<start>4589</start>
						<end>4649</end>
						<in>0</in>
						<out>60</out>
					</clipitem>
					<clipitem frameBlend="FALSE" id="clipitem-telop-552">
						<file id="file-2"/>
						<name>！</name>
						<rate>
							<timebase>59</timebase>
							<ntsc>TRUE</ntsc>
						</rate>
						<rate>
							<timebase>59</timebase>
							<ntsc>TRUE</ntsc>
						</rate>
						<duration>60</duration>
						<start>4661</start>
						<end>4721</end>
						<in>0</in>
						<out>60</out>
					</clipitem>
					<clipitem frameBlend="FALSE" id="clipitem-telop-561">
						<file id="file-2"/>
						<name>！</name>
						<rate>
							<timebase>59</timebase>
							<ntsc>TRUE</ntsc>
						</rate>
						<rate>
							<timebase>59</timebase>
							<ntsc>TRUE</ntsc>
						</rate>
						<duration>60</duration>
						<start>4733</start>
						<end>4793</end>
						<in>0</in>
						<out>60</out>
					</clipitem>
					<clipitem frameBlend="FALSE" id="clipitem-telop-568">
						<file id="file-2"/>
						<name>お嬢様 夜はなかったですよ</name>
						<rate>
							<timebase>59</timebase>
							<ntsc>TRUE</ntsc>
						</rate>
						<rate>
							<timebase>59</timebase>
							<ntsc>TRUE</ntsc>
						</rate>
						<duration>120</duration>
						<start>4793</start>
						<end>4913</end>
						<in>0</in>
						<out>120</out>
					</clipitem>
					<clipitem frameBlend="FALSE" id="clipitem-telop-589">
						<file id="file-2"/>
						<name>なんかファミマのファミチキ頼むとしたらなんか7チキだったみたいな話されてマジ意味はないし</name>
						<rate>
							<timebase>59</timebase>
							<ntsc>TRUE</ntsc>
						</rate>
						<rate>
							<timebase>59</timebase>
							<ntsc>TRUE</ntsc>
						</rate>
						<duration>480</duration>
						<start>4913</start>
						<end>5393</end>
						<in>0</in>
						<out>480</out>
					</clipitem>
					<clipitem frameBlend="FALSE" id="clipitem-telop-664">
						<file id="file-2"/>
						<name>！</name>
						<rate>
							<timebase>59</timebase>
							<ntsc>TRUE</ntsc>
						</rate>
						<rate>
							<timebase>59</timebase>
							<ntsc>TRUE</ntsc>
						</rate>
						<duration>60</duration>
						<start>5393</start>
						<end>5453</end>
						<in>0</in>
						<out>60</out>
					</clipitem>
					<clipitem frameBlend="FALSE" id="clipitem-telop-671">
						<file id="file-2"/>
						<name>！</name>
						<rate>
							<timebase>59</timebase>
							<ntsc>TRUE</ntsc>
						</rate>
						<rate>
							<timebase>59</timebase>
							<ntsc>TRUE</ntsc>
						</rate>
						<duration>60</duration>
						<start>5453</start>
						<end>5513</end>
						<in>0</in>
						<out>60</out>
					</clipitem>
					<clipitem frameBlend="FALSE" id="clipitem-telop-675">
						<file id="file-2"/>
						<name>！</name>
						<rate>
							<timebase>59</timebase>
							<ntsc>TRUE</ntsc>
						</rate>
						<rate>
							<timebase>59</timebase>
							<ntsc>TRUE</ntsc>
						</rate>
						<duration>60</duration>
						<start>5513</start>
						<end>5573</end>
						<in>0</in>
						<out>60</out>
					</clipitem>
					<clipitem frameBlend="FALSE" id="clipitem-telop-680">
						<file id="file-2"/>
						<name>！</name>
						<rate>
							<timebase>59</timebase>
							<ntsc>TRUE</ntsc>
						</rate>
						<rate>
							<timebase>59</timebase>
							<ntsc>TRUE</ntsc>
						</rate>
						<duration>60</duration>
						<start>5573</start>
						<end>5633</end>
						<in>0</in>
						<out>60</out>
					</clipitem>
					<clipitem frameBlend="FALSE" id="clipitem-telop-686">
						<file id="file-2"/>
						<name>！</name>
						<rate>
							<timebase>59</timebase>
							<ntsc>TRUE</ntsc>
						</rate>
						<rate>
							<timebase>59</timebase>
							<ntsc>TRUE</ntsc>
						</rate>
						<duration>60</duration>
						<start>5633</start>
						<end>5693</end>
						<in>0</in>
						<out>60</out>
					</clipitem>
					<clipitem frameBlend="FALSE" id="clipitem-telop-693">
						<file id="file-2"/>
						<name>！</name>
						<rate>
							<timebase>59</timebase>
							<ntsc>TRUE</ntsc>
						</rate>
						<rate>
							<timebase>59</timebase>
							<ntsc>TRUE</ntsc>
						</rate>
						<duration>60</duration>
						<start>5711</start>
						<end>5771</end>
						<in>0</in>
						<out>60</out>
					</clipitem>
					<clipitem frameBlend="FALSE" id="clipitem-telop-700">
						<file id="file-2"/>
						<name>！</name>
						<rate>
							<timebase>59</timebase>
							<ntsc>TRUE</ntsc>
						</rate>
						<rate>
							<timebase>59</timebase>
							<ntsc>TRUE</ntsc>
						</rate>
						<duration>60</duration>
						<start>5771</start>
						<end>5831</end>
						<in>0</in>
						<out>60</out>
					</clipitem>
					<clipitem frameBlend="FALSE" id="clipitem-telop-708">
						<file id="file-2"/>
						<name>！</name>
						<rate>
							<timebase>59</timebase>
							<ntsc>TRUE</ntsc>
						</rate>
						<rate>
							<timebase>59</timebase>
							<ntsc>TRUE</ntsc>
						</rate>
						<duration>60</duration>
						<start>5837</start>
						<end>5897</end>
						<in>0</in>
						<out>60</out>
					</clipitem>
					<clipitem frameBlend="FALSE" id="clipitem-telop-715">
						<file id="file-2"/>
						<name>！</name>
						<rate>
							<timebase>59</timebase>
							<ntsc>TRUE</ntsc>
						</rate>
						<rate>
							<timebase>59</timebase>
							<ntsc>TRUE</ntsc>
						</rate>
						<duration>60</duration>
						<start>5927</start>
						<end>5987</end>
						<in>0</in>
						<out>60</out>
					</clipitem>
					<clipitem frameBlend="FALSE" id="clipitem-telop-723">
						<file id="file-2"/>
						<name>！</name>
						<rate>
							<timebase>59</timebase>
							<ntsc>TRUE</ntsc>
						</rate>
						<rate>
							<timebase>59</timebase>
							<ntsc>TRUE</ntsc>
						</rate>
						<duration>60</duration>
						<start>5987</start>
						<end>6047</end>
						<in>0</in>
						<out>60</out>
					</clipitem>
					<clipitem frameBlend="FALSE" id="clipitem-telop-734">
						<file id="file-2"/>
						<name>！</name>
						<rate>
							<timebase>59</timebase>
							<ntsc>TRUE</ntsc>
						</rate>
						<rate>
							<timebase>59</timebase>
							<ntsc>TRUE</ntsc>
						</rate>
						<duration>66</duration>
						<start>6059</start>
						<end>6125</end>
						<in>0</in>
						<out>66</out>
					</clipitem>
					<clipitem frameBlend="FALSE" id="clipitem-telop-744">
						<file id="file-2"/>
						<name>！</name>
						<rate>
							<timebase>59</timebase>
							<ntsc>TRUE</ntsc>
						</rate>
						<rate>
							<timebase>59</timebase>
							<ntsc>TRUE</ntsc>
						</rate>
						<duration>60</duration>
						<start>6155</start>
						<end>6215</end>
						<in>0</in>
						<out>60</out>
					</clipitem>
					<clipitem frameBlend="FALSE" id="clipitem-telop-750">
						<file id="file-2"/>
						<name>！</name>
						<rate>
							<timebase>59</timebase>
							<ntsc>TRUE</ntsc>
						</rate>
						<rate>
							<timebase>59</timebase>
							<ntsc>TRUE</ntsc>
						</rate>
						<duration>60</duration>
						<start>6233</start>
						<end>6293</end>
						<in>0</in>
						<out>60</out>
					</clipitem>
					<clipitem frameBlend="FALSE" id="clipitem-telop-758">
						<file id="file-2"/>
						<name>！</name>
						<rate>
							<timebase>59</timebase>
							<ntsc>TRUE</ntsc>
						</rate>
						<rate>
							<timebase>59</timebase>
							<ntsc>TRUE</ntsc>
						</rate>
						<duration>60</duration>
						<start>6299</start>
						<end>6359</end>
						<in>0</in>
						<out>60</out>
					</clipitem>
					<clipitem frameBlend="FALSE" id="clipitem-telop-765">
						<file id="file-2"/>
						<name>！</name>
						<rate>
							<timebase>59</timebase>
							<ntsc>TRUE</ntsc>
						</rate>
						<rate>
							<timebase>59</timebase>
							<ntsc>TRUE</ntsc>
						</rate>
						<duration>60</duration>
						<start>6359</start>
						<end>6419</end>
						<in>0</in>
						<out>60</out>
					</clipitem>
					<clipitem frameBlend="FALSE" id="clipitem-telop-768">
						<file id="file-2"/>
						<name>！</name>
						<rate>
							<timebase>59</timebase>
							<ntsc>TRUE</ntsc>
						</rate>
						<rate>
							<timebase>59</timebase>
							<ntsc>TRUE</ntsc>
						</rate>
						<duration>66</duration>
						<start>6449</start>
						<end>6515</end>
						<in>0</in>
						<out>66</out>
					</clipitem>
					<clipitem frameBlend="FALSE" id="clipitem-telop-779">
						<file id="file-2"/>
						<name>！</name>
						<rate>
							<timebase>59</timebase>
							<ntsc>TRUE</ntsc>
						</rate>
						<rate>
							<timebase>59</timebase>
							<ntsc>TRUE</ntsc>
						</rate>
						<duration>60</duration>
						<start>6515</start>
						<end>6575</end>
						<in>0</in>
						<out>60</out>
					</clipitem>
					<clipitem frameBlend="FALSE" id="clipitem-telop-789">
						<file id="file-2"/>
						<name>！</name>
						<rate>
							<timebase>59</timebase>
							<ntsc>TRUE</ntsc>
						</rate>
						<rate>
							<timebase>59</timebase>
							<ntsc>TRUE</ntsc>
						</rate>
						<duration>66</duration>
						<start>6575</start>
						<end>6641</end>
						<in>0</in>
						<out>66</out>
					</clipitem>
					<clipitem frameBlend="FALSE" id="clipitem-telop-798">
						<file id="file-2"/>
						<name>w</name>
						<rate>
							<timebase>59</timebase>
							<ntsc>TRUE</ntsc>
						</rate>
						<rate>
							<timebase>59</timebase>
							<ntsc>TRUE</ntsc>
						</rate>
						<duration>30</duration>
						<start>6653</start>
						<end>6683</end>
						<in>0</in>
						<out>30</out>
					</clipitem>
					<clipitem frameBlend="FALSE" id="clipitem-telop-804">
						<file id="file-2"/>
						<name>w</name>
						<rate>
							<timebase>59</timebase>
							<ntsc>TRUE</ntsc>
						</rate>
						<rate>
							<timebase>59</timebase>
							<ntsc>TRUE</ntsc>
						</rate>
						<duration>30</duration>
						<start>6683</start>
						<end>6713</end>
						<in>0</in>
						<out>30</out>
					</clipitem>
					<clipitem frameBlend="FALSE" id="clipitem-telop-808">
						<file id="file-2"/>
						<name>！</name>
						<rate>
							<timebase>59</timebase>
							<ntsc>TRUE</ntsc>
						</rate>
						<rate>
							<timebase>59</timebase>
							<ntsc>TRUE</ntsc>
						</rate>
						<duration>66</duration>
						<start>6719</start>
						<end>6785</end>
						<in>0</in>
						<out>66</out>
					</clipitem>
					<clipitem frameBlend="FALSE" id="clipitem-telop-819">
						<file id="file-2"/>
						<name>！</name>
						<rate>
							<timebase>59</timebase>
							<ntsc>TRUE</ntsc>
						</rate>
						<rate>
							<timebase>59</timebase>
							<ntsc>TRUE</ntsc>
						</rate>
						<duration>60</duration>
						<start>6791</start>
						<end>6851</end>
						<in>0</in>
						<out>60</out>
					</clipitem>
					<clipitem frameBlend="FALSE" id="clipitem-telop-828">
						<file id="file-2"/>
						<name>！</name>
						<rate>
							<timebase>59</timebase>
							<ntsc>TRUE</ntsc>
						</rate>
						<rate>
							<timebase>59</timebase>
							<ntsc>TRUE</ntsc>
						</rate>
						<duration>60</duration>
						<start>6851</start>
						<end>6911</end>
						<in>0</in>
						<out>60</out>
					</clipitem>
					<clipitem frameBlend="FALSE" id="clipitem-telop-842">
						<file id="file-2"/>
						<name>！</name>
						<rate>
							<timebase>59</timebase>
							<ntsc>TRUE</ntsc>
						</rate>
						<rate>
							<timebase>59</timebase>
							<ntsc>TRUE</ntsc>
						</rate>
						<duration>60</duration>
						<start>6929</start>
						<end>6989</end>
						<in>0</in>
						<out>60</out>
					</clipitem>
					<clipitem frameBlend="FALSE" id="clipitem-telop-853">
						<file id="file-2"/>
						<name>！</name>
						<rate>
							<timebase>59</timebase>
							<ntsc>TRUE</ntsc>
						</rate>
						<rate>
							<timebase>59</timebase>
							<ntsc>TRUE</ntsc>
						</rate>
						<duration>66</duration>
						<start>6989</start>
						<end>7055</end>
						<in>0</in>
						<out>66</out>
					</clipitem>
					<clipitem frameBlend="FALSE" id="clipitem-telop-860">
						<file id="file-2"/>
						<name>！</name>
						<rate>
							<timebase>59</timebase>
							<ntsc>TRUE</ntsc>
						</rate>
						<rate>
							<timebase>59</timebase>
							<ntsc>TRUE</ntsc>
						</rate>
						<duration>60</duration>
						<start>7055</start>
						<end>7115</end>
						<in>0</in>
						<out>60</out>
					</clipitem>
					<clipitem frameBlend="FALSE" id="clipitem-telop-868">
						<file id="file-2"/>
						<name>！</name>
						<rate>
							<timebase>59</timebase>
							<ntsc>TRUE</ntsc>
						</rate>
						<rate>
							<timebase>59</timebase>
							<ntsc>TRUE</ntsc>
						</rate>
						<duration>60</duration>
						<start>7115</start>
						<end>7175</end>
						<in>0</in>
						<out>60</out>
					</clipitem>
					<clipitem frameBlend="FALSE" id="clipitem-telop-877">
						<file id="file-2"/>
						<name>！</name>
						<rate>
							<timebase>59</timebase>
							<ntsc>TRUE</ntsc>
						</rate>
						<rate>
							<timebase>59</timebase>
							<ntsc>TRUE</ntsc>
						</rate>
						<duration>60</duration>
						<start>7175</start>
						<end>7235</end>
						<in>0</in>
						<out>60</out>
					</clipitem>
					<clipitem frameBlend="FALSE" id="clipitem-telop-884">
						<file id="file-2"/>
						<name>！</name>
						<rate>
							<timebase>59</timebase>
							<ntsc>TRUE</ntsc>
						</rate>
						<rate>
							<timebase>59</timebase>
							<ntsc>TRUE</ntsc>
						</rate>
						<duration>60</duration>
						<start>7241</start>
						<end>7301</end>
						<in>0</in>
						<out>60</out>
					</clipitem>
					<clipitem frameBlend="FALSE" id="clipitem-telop-891">
						<file id="file-2"/>
						<name>！</name>
						<rate>
							<timebase>59</timebase>
							<ntsc>TRUE</ntsc>
						</rate>
						<rate>
							<timebase>59</timebase>
							<ntsc>TRUE</ntsc>
						</rate>
						<duration>66</duration>
						<start>7301</start>
						<end>7367</end>
						<in>0</in>
						<out>66</out>
					</clipitem>
					<clipitem frameBlend="FALSE" id="clipitem-telop-899">
						<file id="file-2"/>
						<name>！</name>
						<rate>
							<timebase>59</timebase>
							<ntsc>TRUE</ntsc>
						</rate>
						<rate>
							<timebase>59</timebase>
							<ntsc>TRUE</ntsc>
						</rate>
						<duration>60</duration>
						<start>7373</start>
						<end>7433</end>
						<in>0</in>
						<out>60</out>
					</clipitem>
					<clipitem frameBlend="FALSE" id="clipitem-telop-908">
						<file id="file-2"/>
						<name>！</name>
						<rate>
							<timebase>59</timebase>
							<ntsc>TRUE</ntsc>
						</rate>
						<rate>
							<timebase>59</timebase>
							<ntsc>TRUE</ntsc>
						</rate>
						<duration>60</duration>
						<start>7433</start>
						<end>7493</end>
						<in>0</in>
						<out>60</out>
					</clipitem>
					<clipitem frameBlend="FALSE" id="clipitem-telop-919">
						<file id="file-2"/>
						<name>！</name>
						<rate>
							<timebase>59</timebase>
							<ntsc>TRUE</ntsc>
						</rate>
						<rate>
							<timebase>59</timebase>
							<ntsc>TRUE</ntsc>
						</rate>
						<duration>60</duration>
						<start>7493</start>
						<end>7553</end>
						<in>0</in>
						<out>60</out>
					</clipitem>
					<clipitem frameBlend="FALSE" id="clipitem-telop-930">
						<file id="file-2"/>
						<name>！</name>
						<rate>
							<timebase>59</timebase>
							<ntsc>TRUE</ntsc>
						</rate>
						<rate>
							<timebase>59</timebase>
							<ntsc>TRUE</ntsc>
						</rate>
						<duration>60</duration>
						<start>7553</start>
						<end>7613</end>
						<in>0</in>
						<out>60</out>
					</clipitem>
					<clipitem frameBlend="FALSE" id="clipitem-telop-938">
						<file id="file-2"/>
						<name>！</name>
						<rate>
							<timebase>59</timebase>
							<ntsc>TRUE</ntsc>
						</rate>
						<rate>
							<timebase>59</timebase>
							<ntsc>TRUE</ntsc>
						</rate>
						<duration>66</duration>
						<start>7613</start>
						<end>7679</end>
						<in>0</in>
						<out>66</out>
					</clipitem>
					<clipitem frameBlend="FALSE" id="clipitem-telop-946">
						<file id="file-2"/>
						<name>！</name>
						<rate>
							<timebase>59</timebase>
							<ntsc>TRUE</ntsc>
						</rate>
						<rate>
							<timebase>59</timebase>
							<ntsc>TRUE</ntsc>
						</rate>
						<duration>60</duration>
						<start>7679</start>
						<end>7739</end>
						<in>0</in>
						<out>60</out>
					</clipitem>
					<clipitem frameBlend="FALSE" id="clipitem-telop-954">
						<file id="file-2"/>
						<name>！</name>
						<rate>
							<timebase>59</timebase>
							<ntsc>TRUE</ntsc>
						</rate>
						<rate>
							<timebase>59</timebase>
							<ntsc>TRUE</ntsc>
						</rate>
						<duration>66</duration>
						<start>7745</start>
						<end>7811</end>
						<in>0</in>
						<out>66</out>
					</clipitem>
					<clipitem frameBlend="FALSE" id="clipitem-telop-964">
						<file id="file-2"/>
						<name>！</name>
						<rate>
							<timebase>59</timebase>
							<ntsc>TRUE</ntsc>
						</rate>
						<rate>
							<timebase>59</timebase>
							<ntsc>TRUE</ntsc>
						</rate>
						<duration>60</duration>
						<start>7823</start>
						<end>7883</end>
						<in>0</in>
						<out>60</out>
					</clipitem>
					<clipitem frameBlend="FALSE" id="clipitem-telop-968">
						<file id="file-2"/>
						<name>！</name>
						<rate>
							<timebase>59</timebase>
							<ntsc>TRUE</ntsc>
						</rate>
						<rate>
							<timebase>59</timebase>
							<ntsc>TRUE</ntsc>
						</rate>
						<duration>66</duration>
						<start>7901</start>
						<end>7967</end>
						<in>0</in>
						<out>66</out>
					</clipitem>
					<clipitem frameBlend="FALSE" id="clipitem-telop-973">
						<file id="file-2"/>
						<name>！</name>
						<rate>
							<timebase>59</timebase>
							<ntsc>TRUE</ntsc>
						</rate>
						<rate>
							<timebase>59</timebase>
							<ntsc>TRUE</ntsc>
						</rate>
						<duration>60</duration>
						<start>7979</start>
						<end>8039</end>
						<in>0</in>
						<out>60</out>
					</clipitem>
					<clipitem frameBlend="FALSE" id="clipitem-telop-979">
						<file id="file-2"/>
						<name>！</name>
						<rate>
							<timebase>59</timebase>
							<ntsc>TRUE</ntsc>
						</rate>
						<rate>
							<timebase>59</timebase>
							<ntsc>TRUE</ntsc>
						</rate>
						<duration>60</duration>
						<start>8045</start>
						<end>8105</end>
						<in>0</in>
						<out>60</out>
					</clipitem>
					<clipitem frameBlend="FALSE" id="clipitem-telop-987">
						<file id="file-2"/>
						<name>！</name>
						<rate>
							<timebase>59</timebase>
							<ntsc>TRUE</ntsc>
						</rate>
						<rate>
							<timebase>59</timebase>
							<ntsc>TRUE</ntsc>
						</rate>
						<duration>59</duration>
						<start>8135</start>
						<end>8194</end>
						<in>0</in>
						<out>59</out>
					</clipitem>
					<clipitem frameBlend="FALSE" id="clipitem-telop-995">
						<file id="file-2"/>
						<name>！</name>
						<rate>
							<timebase>59</timebase>
							<ntsc>TRUE</ntsc>
						</rate>
						<rate>
							<timebase>59</timebase>
							<ntsc>TRUE</ntsc>
						</rate>
						<duration>60</duration>
						<start>8194</start>
						<end>8254</end>
						<in>0</in>
						<out>60</out>
					</clipitem>
					<clipitem frameBlend="FALSE" id="clipitem-telop-1003">
						<file id="file-2"/>
						<name>！</name>
						<rate>
							<timebase>59</timebase>
							<ntsc>TRUE</ntsc>
						</rate>
						<rate>
							<timebase>59</timebase>
							<ntsc>TRUE</ntsc>
						</rate>
						<duration>60</duration>
						<start>8254</start>
						<end>8314</end>
						<in>0</in>
						<out>60</out>
					</clipitem>
					<clipitem frameBlend="FALSE" id="clipitem-telop-1011">
						<file id="file-2"/>
						<name>！</name>
						<rate>
							<timebase>59</timebase>
							<ntsc>TRUE</ntsc>
						</rate>
						<rate>
							<timebase>59</timebase>
							<ntsc>TRUE</ntsc>
						</rate>
						<duration>60</duration>
						<start>8338</start>
						<end>8398</end>
						<in>0</in>
						<out>60</out>
					</clipitem>
					<clipitem frameBlend="FALSE" id="clipitem-telop-1016">
						<file id="file-2"/>
						<name>！</name>
						<rate>
							<timebase>59</timebase>
							<ntsc>TRUE</ntsc>
						</rate>
						<rate>
							<timebase>59</timebase>
							<ntsc>TRUE</ntsc>
						</rate>
						<duration>66</duration>
						<start>8410</start>
						<end>8476</end>
						<in>0</in>
						<out>66</out>
					</clipitem>
					<clipitem frameBlend="FALSE" id="clipitem-telop-1026">
						<file id="file-2"/>
						<name>！</name>
						<rate>
							<timebase>59</timebase>
							<ntsc>TRUE</ntsc>
						</rate>
						<rate>
							<timebase>59</timebase>
							<ntsc>TRUE</ntsc>
						</rate>
						<duration>60</duration>
						<start>8476</start>
						<end>8536</end>
						<in>0</in>
						<out>60</out>
					</clipitem>
					<clipitem frameBlend="FALSE" id="clipitem-telop-1034">
						<file id="file-2"/>
						<name>！</name>
						<rate>
							<timebase>59</timebase>
							<ntsc>TRUE</ntsc>
						</rate>
						<rate>
							<timebase>59</timebase>
							<ntsc>TRUE</ntsc>
						</rate>
						<duration>60</duration>
						<start>8554</start>
						<end>8614</end>
						<in>0</in>
						<out>60</out>
					</clipitem>
					<clipitem frameBlend="FALSE" id="clipitem-telop-1044">
						<file id="file-2"/>
						<name>！</name>
						<rate>
							<timebase>59</timebase>
							<ntsc>TRUE</ntsc>
						</rate>
						<rate>
							<timebase>59</timebase>
							<ntsc>TRUE</ntsc>
						</rate>
						<duration>66</duration>
						<start>8614</start>
						<end>8680</end>
						<in>0</in>
						<out>66</out>
					</clipitem>
					<clipitem frameBlend="FALSE" id="clipitem-telop-1051">
						<file id="file-2"/>
						<name>！</name>
						<rate>
							<timebase>59</timebase>
							<ntsc>TRUE</ntsc>
						</rate>
						<rate>
							<timebase>59</timebase>
							<ntsc>TRUE</ntsc>
						</rate>
						<duration>60</duration>
						<start>8722</start>
						<end>8782</end>
						<in>0</in>
						<out>60</out>
					</clipitem>
					<clipitem frameBlend="FALSE" id="clipitem-telop-1057">
						<file id="file-2"/>
						<name>！</name>
						<rate>
							<timebase>59</timebase>
							<ntsc>TRUE</ntsc>
						</rate>
						<rate>
							<timebase>59</timebase>
							<ntsc>TRUE</ntsc>
						</rate>
						<duration>60</duration>
						<start>8812</start>
						<end>8872</end>
						<in>0</in>
						<out>60</out>
					</clipitem>
					<clipitem frameBlend="FALSE" id="clipitem-telop-1064">
						<file id="file-2"/>
						<name>！</name>
						<rate>
							<timebase>59</timebase>
							<ntsc>TRUE</ntsc>
						</rate>
						<rate>
							<timebase>59</timebase>
							<ntsc>TRUE</ntsc>
						</rate>
						<duration>60</duration>
						<start>8872</start>
						<end>8932</end>
						<in>0</in>
						<out>60</out>
					</clipitem>
					<clipitem frameBlend="FALSE" id="clipitem-telop-1075">
						<file id="file-2"/>
						<name>！</name>
						<rate>
							<timebase>59</timebase>
							<ntsc>TRUE</ntsc>
						</rate>
						<rate>
							<timebase>59</timebase>
							<ntsc>TRUE</ntsc>
						</rate>
						<duration>66</duration>
						<start>8944</start>
						<end>9010</end>
						<in>0</in>
						<out>66</out>
					</clipitem>
					<clipitem frameBlend="FALSE" id="clipitem-telop-1083">
						<file id="file-2"/>
						<name>！</name>
						<rate>
							<timebase>59</timebase>
							<ntsc>TRUE</ntsc>
						</rate>
						<rate>
							<timebase>59</timebase>
							<ntsc>TRUE</ntsc>
						</rate>
						<duration>60</duration>
						<start>9022</start>
						<end>9082</end>
						<in>0</in>
						<out>60</out>
					</clipitem>
					<clipitem frameBlend="FALSE" id="clipitem-telop-1090">
						<file id="file-2"/>
						<name>！</name>
						<rate>
							<timebase>59</timebase>
							<ntsc>TRUE</ntsc>
						</rate>
						<rate>
							<timebase>59</timebase>
							<ntsc>TRUE</ntsc>
						</rate>
						<duration>60</duration>
						<start>9094</start>
						<end>9154</end>
						<in>0</in>
						<out>60</out>
					</clipitem>
					<clipitem frameBlend="FALSE" id="clipitem-telop-1101">
						<file id="file-2"/>
						<name>！</name>
						<rate>
							<timebase>59</timebase>
							<ntsc>TRUE</ntsc>
						</rate>
						<rate>
							<timebase>59</timebase>
							<ntsc>TRUE</ntsc>
						</rate>
						<duration>60</duration>
						<start>9154</start>
						<end>9214</end>
						<in>0</in>
						<out>60</out>
					</clipitem>
					<clipitem frameBlend="FALSE" id="clipitem-telop-1107">
						<file id="file-2"/>
						<name>！</name>
						<rate>
							<timebase>59</timebase>
							<ntsc>TRUE</ntsc>
						</rate>
						<rate>
							<timebase>59</timebase>
							<ntsc>TRUE</ntsc>
						</rate>
						<duration>60</duration>
						<start>9214</start>
						<end>9274</end>
						<in>0</in>
						<out>60</out>
					</clipitem>
					<clipitem frameBlend="FALSE" id="clipitem-telop-1117">
						<file id="file-2"/>
						<name>！</name>
						<rate>
							<timebase>59</timebase>
							<ntsc>TRUE</ntsc>
						</rate>
						<rate>
							<timebase>59</timebase>
							<ntsc>TRUE</ntsc>
						</rate>
						<duration>66</duration>
						<start>9274</start>
						<end>9340</end>
						<in>0</in>
						<out>66</out>
					</clipitem>
					<clipitem frameBlend="FALSE" id="clipitem-telop-1126">
						<file id="file-2"/>
						<name>！</name>
						<rate>
							<timebase>59</timebase>
							<ntsc>TRUE</ntsc>
						</rate>
						<rate>
							<timebase>59</timebase>
							<ntsc>TRUE</ntsc>
						</rate>
						<duration>60</duration>
						<start>9340</start>
						<end>9400</end>
						<in>0</in>
						<out>60</out>
					</clipitem>
					<clipitem frameBlend="FALSE" id="clipitem-telop-1134">
						<file id="file-2"/>
						<name>！</name>
						<rate>
							<timebase>59</timebase>
							<ntsc>TRUE</ntsc>
						</rate>
						<rate>
							<timebase>59</timebase>
							<ntsc>TRUE</ntsc>
						</rate>
						<duration>66</duration>
						<start>9400</start>
						<end>9466</end>
						<in>0</in>
						<out>66</out>
					</clipitem>
					<clipitem frameBlend="FALSE" id="clipitem-telop-1147">
						<file id="file-2"/>
						<name>！</name>
						<rate>
							<timebase>59</timebase>
							<ntsc>TRUE</ntsc>
						</rate>
						<rate>
							<timebase>59</timebase>
							<ntsc>TRUE</ntsc>
						</rate>
						<duration>60</duration>
						<start>9478</start>
						<end>9538</end>
						<in>0</in>
						<out>60</out>
					</clipitem>
					<clipitem frameBlend="FALSE" id="clipitem-telop-1155">
						<file id="file-2"/>
						<name>！</name>
						<rate>
							<timebase>59</timebase>
							<ntsc>TRUE</ntsc>
						</rate>
						<rate>
							<timebase>59</timebase>
							<ntsc>TRUE</ntsc>
						</rate>
						<duration>60</duration>
						<start>9538</start>
						<end>9598</end>
						<in>0</in>
						<out>60</out>
					</clipitem>
					<clipitem frameBlend="FALSE" id="clipitem-telop-1161">
						<file id="file-2"/>
						<name>！</name>
						<rate>
							<timebase>59</timebase>
							<ntsc>TRUE</ntsc>
						</rate>
						<rate>
							<timebase>59</timebase>
							<ntsc>TRUE</ntsc>
						</rate>
						<duration>60</duration>
						<start>9604</start>
						<end>9664</end>
						<in>0</in>
						<out>60</out>
					</clipitem>
					<clipitem frameBlend="FALSE" id="clipitem-telop-1169">
						<file id="file-2"/>
						<name>！</name>
						<rate>
							<timebase>59</timebase>
							<ntsc>TRUE</ntsc>
						</rate>
						<rate>
							<timebase>59</timebase>
							<ntsc>TRUE</ntsc>
						</rate>
						<duration>60</duration>
						<start>9664</start>
						<end>9724</end>
						<in>0</in>
						<out>60</out>
					</clipitem>
					<clipitem frameBlend="FALSE" id="clipitem-telop-1175">
						<file id="file-2"/>
						<name>！</name>
						<rate>
							<timebase>59</timebase>
							<ntsc>TRUE</ntsc>
						</rate>
						<rate>
							<timebase>59</timebase>
							<ntsc>TRUE</ntsc>
						</rate>
						<duration>60</duration>
						<start>9730</start>
						<end>9790</end>
						<in>0</in>
						<out>60</out>
					</clipitem>
					<clipitem frameBlend="FALSE" id="clipitem-telop-1182">
						<file id="file-2"/>
						<name>！</name>
						<rate>
							<timebase>59</timebase>
							<ntsc>TRUE</ntsc>
						</rate>
						<rate>
							<timebase>59</timebase>
							<ntsc>TRUE</ntsc>
						</rate>
						<duration>60</duration>
						<start>9808</start>
						<end>9868</end>
						<in>0</in>
						<out>60</out>
					</clipitem>
					<clipitem frameBlend="FALSE" id="clipitem-telop-1187">
						<file id="file-2"/>
						<name>！</name>
						<rate>
							<timebase>59</timebase>
							<ntsc>TRUE</ntsc>
						</rate>
						<rate>
							<timebase>59</timebase>
							<ntsc>TRUE</ntsc>
						</rate>
						<duration>60</duration>
						<start>9874</start>
						<end>9934</end>
						<in>0</in>
						<out>60</out>
					</clipitem>
					<clipitem frameBlend="FALSE" id="clipitem-telop-1195">
						<file id="file-2"/>
						<name>！</name>
						<rate>
							<timebase>59</timebase>
							<ntsc>TRUE</ntsc>
						</rate>
						<rate>
							<timebase>59</timebase>
							<ntsc>TRUE</ntsc>
						</rate>
						<duration>60</duration>
						<start>9952</start>
						<end>10012</end>
						<in>0</in>
						<out>60</out>
					</clipitem>
					<clipitem frameBlend="FALSE" id="clipitem-telop-1201">
						<file id="file-2"/>
						<name>！</name>
						<rate>
							<timebase>59</timebase>
							<ntsc>TRUE</ntsc>
						</rate>
						<rate>
							<timebase>59</timebase>
							<ntsc>TRUE</ntsc>
						</rate>
						<duration>66</duration>
						<start>10018</start>
						<end>10084</end>
						<in>0</in>
						<out>66</out>
					</clipitem>
					<clipitem frameBlend="FALSE" id="clipitem-telop-1206">
						<file id="file-2"/>
						<name>！</name>
						<rate>
							<timebase>59</timebase>
							<ntsc>TRUE</ntsc>
						</rate>
						<rate>
							<timebase>59</timebase>
							<ntsc>TRUE</ntsc>
						</rate>
						<duration>60</duration>
						<start>10090</start>
						<end>10150</end>
						<in>0</in>
						<out>60</out>
					</clipitem>
					<clipitem frameBlend="FALSE" id="clipitem-telop-1212">
						<file id="file-2"/>
						<name>！</name>
						<rate>
							<timebase>59</timebase>
							<ntsc>TRUE</ntsc>
						</rate>
						<rate>
							<timebase>59</timebase>
							<ntsc>TRUE</ntsc>
						</rate>
						<duration>60</duration>
						<start>10150</start>
						<end>10210</end>
						<in>0</in>
						<out>60</out>
					</clipitem>
					<clipitem frameBlend="FALSE" id="clipitem-telop-1222">
						<file id="file-2"/>
						<name>！</name>
						<rate>
							<timebase>59</timebase>
							<ntsc>TRUE</ntsc>
						</rate>
						<rate>
							<timebase>59</timebase>
							<ntsc>TRUE</ntsc>
						</rate>
						<duration>60</duration>
						<start>10216</start>
						<end>10276</end>
						<in>0</in>
						<out>60</out>
					</clipitem>
					<clipitem frameBlend="FALSE" id="clipitem-telop-1226">
						<file id="file-2"/>
						<name>！</name>
						<rate>
							<timebase>59</timebase>
							<ntsc>TRUE</ntsc>
						</rate>
						<rate>
							<timebase>59</timebase>
							<ntsc>TRUE</ntsc>
						</rate>
						<duration>60</duration>
						<start>10288</start>
						<end>10348</end>
						<in>0</in>
						<out>60</out>
					</clipitem>
					<clipitem frameBlend="FALSE" id="clipitem-telop-1231">
						<file id="file-2"/>
						<name>！</name>
						<rate>
							<timebase>59</timebase>
							<ntsc>TRUE</ntsc>
						</rate>
						<rate>
							<timebase>59</timebase>
							<ntsc>TRUE</ntsc>
						</rate>
						<duration>60</duration>
						<start>10348</start>
						<end>10408</end>
						<in>0</in>
						<out>60</out>
					</clipitem>
					<clipitem frameBlend="FALSE" id="clipitem-telop-1238">
						<file id="file-2"/>
						<name>！</name>
						<rate>
							<timebase>59</timebase>
							<ntsc>TRUE</ntsc>
						</rate>
						<rate>
							<timebase>59</timebase>
							<ntsc>TRUE</ntsc>
						</rate>
						<duration>66</duration>
						<start>10408</start>
						<end>10474</end>
						<in>0</in>
						<out>66</out>
					</clipitem>
					<clipitem frameBlend="FALSE" id="clipitem-telop-1243">
						<file id="file-2"/>
						<name>！</name>
						<rate>
							<timebase>59</timebase>
							<ntsc>TRUE</ntsc>
						</rate>
						<rate>
							<timebase>59</timebase>
							<ntsc>TRUE</ntsc>
						</rate>
						<duration>60</duration>
						<start>10480</start>
						<end>10540</end>
						<in>0</in>
						<out>60</out>
					</clipitem>
					<clipitem frameBlend="FALSE" id="clipitem-telop-1247">
						<file id="file-2"/>
						<name>！</name>
						<rate>
							<timebase>59</timebase>
							<ntsc>TRUE</ntsc>
						</rate>
						<rate>
							<timebase>59</timebase>
							<ntsc>TRUE</ntsc>
						</rate>
						<duration>60</duration>
						<start>10558</start>
						<end>10618</end>
						<in>0</in>
						<out>60</out>
					</clipitem>
					<clipitem frameBlend="FALSE" id="clipitem-telop-1257">
						<file id="file-2"/>
						<name>！</name>
						<rate>
							<timebase>59</timebase>
							<ntsc>TRUE</ntsc>
						</rate>
						<rate>
							<timebase>59</timebase>
							<ntsc>TRUE</ntsc>
						</rate>
						<duration>60</duration>
						<start>10624</start>
						<end>10684</end>
						<in>0</in>
						<out>60</out>
					</clipitem>
					<clipitem frameBlend="FALSE" id="clipitem-telop-1267">
						<file id="file-2"/>
						<name>！</name>
						<rate>
							<timebase>59</timebase>
							<ntsc>TRUE</ntsc>
						</rate>
						<rate>
							<timebase>59</timebase>
							<ntsc>TRUE</ntsc>
						</rate>
						<duration>60</duration>
						<start>10684</start>
						<end>10744</end>
						<in>0</in>
						<out>60</out>
					</clipitem>
					<clipitem frameBlend="FALSE" id="clipitem-telop-1277">
						<file id="file-2"/>
						<name>！</name>
						<rate>
							<timebase>59</timebase>
							<ntsc>TRUE</ntsc>
						</rate>
						<rate>
							<timebase>59</timebase>
							<ntsc>TRUE</ntsc>
						</rate>
						<duration>60</duration>
						<start>10744</start>
						<end>10804</end>
						<in>0</in>
						<out>60</out>
					</clipitem>
					<clipitem frameBlend="FALSE" id="clipitem-telop-1283">
						<file id="file-2"/>
						<name>！</name>
						<rate>
							<timebase>59</timebase>
							<ntsc>TRUE</ntsc>
						</rate>
						<rate>
							<timebase>59</timebase>
							<ntsc>TRUE</ntsc>
						</rate>
						<duration>60</duration>
						<start>10822</start>
						<end>10882</end>
						<in>0</in>
						<out>60</out>
					</clipitem>
					<clipitem frameBlend="FALSE" id="clipitem-telop-1291">
						<file id="file-2"/>
						<name>！</name>
						<rate>
							<timebase>59</timebase>
							<ntsc>TRUE</ntsc>
						</rate>
						<rate>
							<timebase>59</timebase>
							<ntsc>TRUE</ntsc>
						</rate>
						<duration>60</duration>
						<start>10888</start>
						<end>10948</end>
						<in>0</in>
						<out>60</out>
					</clipitem>
					<clipitem frameBlend="FALSE" id="clipitem-telop-1296">
						<file id="file-2"/>
						<name>！</name>
						<rate>
							<timebase>59</timebase>
							<ntsc>TRUE</ntsc>
						</rate>
						<rate>
							<timebase>59</timebase>
							<ntsc>TRUE</ntsc>
						</rate>
						<duration>60</duration>
						<start>10948</start>
						<end>11008</end>
						<in>0</in>
						<out>60</out>
					</clipitem>
					<clipitem frameBlend="FALSE" id="clipitem-telop-1306">
						<file id="file-2"/>
						<name>！</name>
						<rate>
							<timebase>59</timebase>
							<ntsc>TRUE</ntsc>
						</rate>
						<rate>
							<timebase>59</timebase>
							<ntsc>TRUE</ntsc>
						</rate>
						<duration>60</duration>
						<start>11020</start>
						<end>11080</end>
						<in>0</in>
						<out>60</out>
					</clipitem>
					<clipitem frameBlend="FALSE" id="clipitem-telop-1314">
						<file id="file-2"/>
						<name>！</name>
						<rate>
							<timebase>59</timebase>
							<ntsc>TRUE</ntsc>
						</rate>
						<rate>
							<timebase>59</timebase>
							<ntsc>TRUE</ntsc>
						</rate>
						<duration>60</duration>
						<start>11080</start>
						<end>11140</end>
						<in>0</in>
						<out>60</out>
					</clipitem>
					<clipitem frameBlend="FALSE" id="clipitem-telop-1321">
						<file id="file-2"/>
						<name>！</name>
						<rate>
							<timebase>59</timebase>
							<ntsc>TRUE</ntsc>
						</rate>
						<rate>
							<timebase>59</timebase>
							<ntsc>TRUE</ntsc>
						</rate>
						<duration>66</duration>
						<start>11140</start>
						<end>11206</end>
						<in>0</in>
						<out>66</out>
					</clipitem>
					<clipitem frameBlend="FALSE" id="clipitem-telop-1329">
						<file id="file-2"/>
						<name>！</name>
						<rate>
							<timebase>59</timebase>
							<ntsc>TRUE</ntsc>
						</rate>
						<rate>
							<timebase>59</timebase>
							<ntsc>TRUE</ntsc>
						</rate>
						<duration>60</duration>
						<start>11224</start>
						<end>11284</end>
						<in>0</in>
						<out>60</out>
					</clipitem>
					<clipitem frameBlend="FALSE" id="clipitem-telop-1333">
						<file id="file-2"/>
						<name>！</name>
						<rate>
							<timebase>59</timebase>
							<ntsc>TRUE</ntsc>
						</rate>
						<rate>
							<timebase>59</timebase>
							<ntsc>TRUE</ntsc>
						</rate>
						<duration>60</duration>
						<start>11284</start>
						<end>11344</end>
						<in>0</in>
						<out>60</out>
					</clipitem>
					<clipitem frameBlend="FALSE" id="clipitem-telop-1341">
						<file id="file-2"/>
						<name>！</name>
						<rate>
							<timebase>59</timebase>
							<ntsc>TRUE</ntsc>
						</rate>
						<rate>
							<timebase>59</timebase>
							<ntsc>TRUE</ntsc>
						</rate>
						<duration>60</duration>
						<start>11350</start>
						<end>11410</end>
						<in>0</in>
						<out>60</out>
					</clipitem>
					<clipitem frameBlend="FALSE" id="clipitem-telop-1348">
						<file id="file-2"/>
						<name>！</name>
						<rate>
							<timebase>59</timebase>
							<ntsc>TRUE</ntsc>
						</rate>
						<rate>
							<timebase>59</timebase>
							<ntsc>TRUE</ntsc>
						</rate>
						<duration>60</duration>
						<start>11410</start>
						<end>11470</end>
						<in>0</in>
						<out>60</out>
					</clipitem>
					<clipitem frameBlend="FALSE" id="clipitem-telop-1357">
						<file id="file-2"/>
						<name>！</name>
						<rate>
							<timebase>59</timebase>
							<ntsc>TRUE</ntsc>
						</rate>
						<rate>
							<timebase>59</timebase>
							<ntsc>TRUE</ntsc>
						</rate>
						<duration>66</duration>
						<start>11488</start>
						<end>11554</end>
						<in>0</in>
						<out>66</out>
					</clipitem>
					<clipitem frameBlend="FALSE" id="clipitem-telop-1367">
						<file id="file-2"/>
						<name>！</name>
						<rate>
							<timebase>59</timebase>
							<ntsc>TRUE</ntsc>
						</rate>
						<rate>
							<timebase>59</timebase>
							<ntsc>TRUE</ntsc>
						</rate>
						<duration>60</duration>
						<start>11554</start>
						<end>11614</end>
						<in>0</in>
						<out>60</out>
					</clipitem>
					<clipitem frameBlend="FALSE" id="clipitem-telop-1371">
						<file id="file-2"/>
						<name>！</name>
						<rate>
							<timebase>59</timebase>
							<ntsc>TRUE</ntsc>
						</rate>
						<rate>
							<timebase>59</timebase>
							<ntsc>TRUE</ntsc>
						</rate>
						<duration>60</duration>
						<start>11620</start>
						<end>11680</end>
						<in>0</in>
						<out>60</out>
					</clipitem>
					<clipitem frameBlend="FALSE" id="clipitem-telop-1380">
						<file id="file-2"/>
						<name>！</name>
						<rate>
							<timebase>59</timebase>
							<ntsc>TRUE</ntsc>
						</rate>
						<rate>
							<timebase>59</timebase>
							<ntsc>TRUE</ntsc>
						</rate>
						<duration>60</duration>
						<start>11680</start>
						<end>11740</end>
						<in>0</in>
						<out>60</out>
					</clipitem>
					<clipitem frameBlend="FALSE" id="clipitem-telop-1390">
						<file id="file-2"/>
						<name>！</name>
						<rate>
							<timebase>59</timebase>
							<ntsc>TRUE</ntsc>
						</rate>
						<rate>
							<timebase>59</timebase>
							<ntsc>TRUE</ntsc>
						</rate>
						<duration>66</duration>
						<start>11746</start>
						<end>11812</end>
						<in>0</in>
						<out>66</out>
					</clipitem>
					<clipitem frameBlend="FALSE" id="clipitem-telop-1397">
						<file id="file-2"/>
						<name>！</name>
						<rate>
							<timebase>59</timebase>
							<ntsc>TRUE</ntsc>
						</rate>
						<rate>
							<timebase>59</timebase>
							<ntsc>TRUE</ntsc>
						</rate>
						<duration>60</duration>
						<start>11812</start>
						<end>11872</end>
						<in>0</in>
						<out>60</out>
					</clipitem>
					<clipitem frameBlend="FALSE" id="clipitem-telop-1408">
						<file id="file-2"/>
						<name>！</name>
						<rate>
							<timebase>59</timebase>
							<ntsc>TRUE</ntsc>
						</rate>
						<rate>
							<timebase>59</timebase>
							<ntsc>TRUE</ntsc>
						</rate>
						<duration>60</duration>
						<start>11884</start>
						<end>11944</end>
						<in>0</in>
						<out>60</out>
					</clipitem>
					<clipitem frameBlend="FALSE" id="clipitem-telop-1418">
						<file id="file-2"/>
						<name>！</name>
						<rate>
							<timebase>59</timebase>
							<ntsc>TRUE</ntsc>
						</rate>
						<rate>
							<timebase>59</timebase>
							<ntsc>TRUE</ntsc>
						</rate>
						<duration>66</duration>
						<start>11980</start>
						<end>12046</end>
						<in>0</in>
						<out>66</out>
					</clipitem>
					<clipitem frameBlend="FALSE" id="clipitem-telop-1427">
						<file id="file-2"/>
						<name>w</name>
						<rate>
							<timebase>59</timebase>
							<ntsc>TRUE</ntsc>
						</rate>
						<rate>
							<timebase>59</timebase>
							<ntsc>TRUE</ntsc>
						</rate>
						<duration>30</duration>
						<start>12046</start>
						<end>12076</end>
						<in>0</in>
						<out>30</out>
					</clipitem>
					<clipitem frameBlend="FALSE" id="clipitem-telop-1432">
						<file id="file-2"/>
						<name>！</name>
						<rate>
							<timebase>59</timebase>
							<ntsc>TRUE</ntsc>
						</rate>
						<rate>
							<timebase>59</timebase>
							<ntsc>TRUE</ntsc>
						</rate>
						<duration>60</duration>
						<start>12088</start>
						<end>12148</end>
						<in>0</in>
						<out>60</out>
					</clipitem>
					<clipitem frameBlend="FALSE" id="clipitem-telop-1441">
						<file id="file-2"/>
						<name>！</name>
						<rate>
							<timebase>59</timebase>
							<ntsc>TRUE</ntsc>
						</rate>
						<rate>
							<timebase>59</timebase>
							<ntsc>TRUE</ntsc>
						</rate>
						<duration>60</duration>
						<start>12148</start>
						<end>12208</end>
						<in>0</in>
						<out>60</out>
					</clipitem>
					<clipitem frameBlend="FALSE" id="clipitem-telop-1448">
						<file id="file-2"/>
						<name>！</name>
						<rate>
							<timebase>59</timebase>
							<ntsc>TRUE</ntsc>
						</rate>
						<rate>
							<timebase>59</timebase>
							<ntsc>TRUE</ntsc>
						</rate>
						<duration>60</duration>
						<start>12220</start>
						<end>12280</end>
						<in>0</in>
						<out>60</out>
					</clipitem>
					<clipitem frameBlend="FALSE" id="clipitem-telop-1458">
						<file id="file-2"/>
						<name>！</name>
						<rate>
							<timebase>59</timebase>
							<ntsc>TRUE</ntsc>
						</rate>
						<rate>
							<timebase>59</timebase>
							<ntsc>TRUE</ntsc>
						</rate>
						<duration>60</duration>
						<start>12280</start>
						<end>12340</end>
						<in>0</in>
						<out>60</out>
					</clipitem>
					<clipitem frameBlend="FALSE" id="clipitem-telop-1464">
						<file id="file-2"/>
						<name>！</name>
						<rate>
							<timebase>59</timebase>
							<ntsc>TRUE</ntsc>
						</rate>
						<rate>
							<timebase>59</timebase>
							<ntsc>TRUE</ntsc>
						</rate>
						<duration>60</duration>
						<start>12346</start>
						<end>12406</end>
						<in>0</in>
						<out>60</out>
					</clipitem>
					<clipitem frameBlend="FALSE" id="clipitem-telop-1470">
						<file id="file-2"/>
						<name>！</name>
						<rate>
							<timebase>59</timebase>
							<ntsc>TRUE</ntsc>
						</rate>
						<rate>
							<timebase>59</timebase>
							<ntsc>TRUE</ntsc>
						</rate>
						<duration>66</duration>
						<start>12412</start>
						<end>12478</end>
						<in>0</in>
						<out>66</out>
					</clipitem>
					<clipitem frameBlend="FALSE" id="clipitem-telop-1477">
						<file id="file-2"/>
						<name>！</name>
						<rate>
							<timebase>59</timebase>
							<ntsc>TRUE</ntsc>
						</rate>
						<rate>
							<timebase>59</timebase>
							<ntsc>TRUE</ntsc>
						</rate>
						<duration>60</duration>
						<start>12478</start>
						<end>12538</end>
						<in>0</in>
						<out>60</out>
					</clipitem>
					<clipitem frameBlend="FALSE" id="clipitem-telop-1485">
						<file id="file-2"/>
						<name>！</name>
						<rate>
							<timebase>59</timebase>
							<ntsc>TRUE</ntsc>
						</rate>
						<rate>
							<timebase>59</timebase>
							<ntsc>TRUE</ntsc>
						</rate>
						<duration>66</duration>
						<start>12538</start>
						<end>12604</end>
						<in>0</in>
						<out>66</out>
					</clipitem>
					<clipitem frameBlend="FALSE" id="clipitem-telop-1493">
						<file id="file-2"/>
						<name>w</name>
						<rate>
							<timebase>59</timebase>
							<ntsc>TRUE</ntsc>
						</rate>
						<rate>
							<timebase>59</timebase>
							<ntsc>TRUE</ntsc>
						</rate>
						<duration>30</duration>
						<start>12604</start>
						<end>12634</end>
						<in>0</in>
						<out>30</out>
					</clipitem>
					<clipitem frameBlend="FALSE" id="clipitem-telop-1499">
						<file id="file-2"/>
						<name>w</name>
						<rate>
							<timebase>59</timebase>
							<ntsc>TRUE</ntsc>
						</rate>
						<rate>
							<timebase>59</timebase>
							<ntsc>TRUE</ntsc>
						</rate>
						<duration>24</duration>
						<start>12634</start>
						<end>12658</end>
						<in>0</in>
						<out>24</out>
					</clipitem>
					<clipitem frameBlend="FALSE" id="clipitem-telop-1505">
						<file id="file-2"/>
						<name>！</name>
						<rate>
							<timebase>59</timebase>
							<ntsc>TRUE</ntsc>
						</rate>
						<rate>
							<timebase>59</timebase>
							<ntsc>TRUE</ntsc>
						</rate>
						<duration>60</duration>
						<start>12658</start>
						<end>12718</end>
						<in>0</in>
						<out>60</out>
					</clipitem>
					<clipitem frameBlend="FALSE" id="clipitem-telop-1512">
						<file id="file-2"/>
						<name>！</name>
						<rate>
							<timebase>59</timebase>
							<ntsc>TRUE</ntsc>
						</rate>
						<rate>
							<timebase>59</timebase>
							<ntsc>TRUE</ntsc>
						</rate>
						<duration>60</duration>
						<start>12730</start>
						<end>12790</end>
						<in>0</in>
						<out>60</out>
					</clipitem>
					<clipitem frameBlend="FALSE" id="clipitem-telop-1521">
						<file id="file-2"/>
						<name>！</name>
						<rate>
							<timebase>59</timebase>
							<ntsc>TRUE</ntsc>
						</rate>
						<rate>
							<timebase>59</timebase>
							<ntsc>TRUE</ntsc>
						</rate>
						<duration>60</duration>
						<start>12814</start>
						<end>12874</end>
						<in>0</in>
						<out>60</out>
					</clipitem>
					<clipitem frameBlend="FALSE" id="clipitem-telop-1528">
						<file id="file-2"/>
						<name>！</name>
						<rate>
							<timebase>59</timebase>
							<ntsc>TRUE</ntsc>
						</rate>
						<rate>
							<timebase>59</timebase>
							<ntsc>TRUE</ntsc>
						</rate>
						<duration>60</duration>
						<start>12874</start>
						<end>12934</end>
						<in>0</in>
						<out>60</out>
					</clipitem>
					<clipitem frameBlend="FALSE" id="clipitem-telop-1535">
						<file id="file-2"/>
						<name>！</name>
						<rate>
							<timebase>59</timebase>
							<ntsc>TRUE</ntsc>
						</rate>
						<rate>
							<timebase>59</timebase>
							<ntsc>TRUE</ntsc>
						</rate>
						<duration>60</duration>
						<start>12940</start>
						<end>13000</end>
						<in>0</in>
						<out>60</out>
					</clipitem>
					<clipitem frameBlend="FALSE" id="clipitem-telop-1541">
						<file id="file-2"/>
						<name>！</name>
						<rate>
							<timebase>59</timebase>
							<ntsc>TRUE</ntsc>
						</rate>
						<rate>
							<timebase>59</timebase>
							<ntsc>TRUE</ntsc>
						</rate>
						<duration>66</duration>
						<start>13000</start>
						<end>13066</end>
						<in>0</in>
						<out>66</out>
					</clipitem>
					<clipitem frameBlend="FALSE" id="clipitem-telop-1548">
						<file id="file-2"/>
						<name>！</name>
						<rate>
							<timebase>59</timebase>
							<ntsc>TRUE</ntsc>
						</rate>
						<rate>
							<timebase>59</timebase>
							<ntsc>TRUE</ntsc>
						</rate>
						<duration>60</duration>
						<start>13066</start>
						<end>13126</end>
						<in>0</in>
						<out>60</out>
					</clipitem>
					<clipitem frameBlend="FALSE" id="clipitem-telop-1557">
						<file id="file-2"/>
						<name>！</name>
						<rate>
							<timebase>59</timebase>
							<ntsc>TRUE</ntsc>
						</rate>
						<rate>
							<timebase>59</timebase>
							<ntsc>TRUE</ntsc>
						</rate>
						<duration>60</duration>
						<start>13138</start>
						<end>13198</end>
						<in>0</in>
						<out>60</out>
					</clipitem>
					<clipitem frameBlend="FALSE" id="clipitem-telop-1560">
						<file id="file-2"/>
						<name>！</name>
						<rate>
							<timebase>59</timebase>
							<ntsc>TRUE</ntsc>
						</rate>
						<rate>
							<timebase>59</timebase>
							<ntsc>TRUE</ntsc>
						</rate>
						<duration>60</duration>
						<start>13198</start>
						<end>13258</end>
						<in>0</in>
						<out>60</out>
					</clipitem>
					<clipitem frameBlend="FALSE" id="clipitem-telop-1569">
						<file id="file-2"/>
						<name>！</name>
						<rate>
							<timebase>59</timebase>
							<ntsc>TRUE</ntsc>
						</rate>
						<rate>
							<timebase>59</timebase>
							<ntsc>TRUE</ntsc>
						</rate>
						<duration>66</duration>
						<start>13264</start>
						<end>13330</end>
						<in>0</in>
						<out>66</out>
					</clipitem>
					<clipitem frameBlend="FALSE" id="clipitem-telop-1578">
						<file id="file-2"/>
						<name>！</name>
						<rate>
							<timebase>59</timebase>
							<ntsc>TRUE</ntsc>
						</rate>
						<rate>
							<timebase>59</timebase>
							<ntsc>TRUE</ntsc>
						</rate>
						<duration>60</duration>
						<start>13354</start>
						<end>13414</end>
						<in>0</in>
						<out>60</out>
					</clipitem>
					<clipitem frameBlend="FALSE" id="clipitem-telop-1586">
						<file id="file-2"/>
						<name>！</name>
						<rate>
							<timebase>59</timebase>
							<ntsc>TRUE</ntsc>
						</rate>
						<rate>
							<timebase>59</timebase>
							<ntsc>TRUE</ntsc>
						</rate>
						<duration>60</duration>
						<start>13426</start>
						<end>13486</end>
						<in>0</in>
						<out>60</out>
					</clipitem>
					<clipitem frameBlend="FALSE" id="clipitem-telop-1590">
						<file id="file-2"/>
						<name>！</name>
						<rate>
							<timebase>59</timebase>
							<ntsc>TRUE</ntsc>
						</rate>
						<rate>
							<timebase>59</timebase>
							<ntsc>TRUE</ntsc>
						</rate>
						<duration>60</duration>
						<start>13486</start>
						<end>13546</end>
						<in>0</in>
						<out>60</out>
					</clipitem>
					<clipitem frameBlend="FALSE" id="clipitem-telop-1601">
						<file id="file-2"/>
						<name>！</name>
						<rate>
							<timebase>59</timebase>
							<ntsc>TRUE</ntsc>
						</rate>
						<rate>
							<timebase>59</timebase>
							<ntsc>TRUE</ntsc>
						</rate>
						<duration>60</duration>
						<start>13552</start>
						<end>13612</end>
						<in>0</in>
						<out>60</out>
					</clipitem>
					<clipitem frameBlend="FALSE" id="clipitem-telop-1610">
						<file id="file-2"/>
						<name>！</name>
						<rate>
							<timebase>59</timebase>
							<ntsc>TRUE</ntsc>
						</rate>
						<rate>
							<timebase>59</timebase>
							<ntsc>TRUE</ntsc>
						</rate>
						<duration>60</duration>
						<start>13612</start>
						<end>13672</end>
						<in>0</in>
						<out>60</out>
					</clipitem>
					<clipitem frameBlend="FALSE" id="clipitem-telop-1616">
						<file id="file-2"/>
						<name>！</name>
						<rate>
							<timebase>59</timebase>
							<ntsc>TRUE</ntsc>
						</rate>
						<rate>
							<timebase>59</timebase>
							<ntsc>TRUE</ntsc>
						</rate>
						<duration>60</duration>
						<start>13684</start>
						<end>13744</end>
						<in>0</in>
						<out>60</out>
					</clipitem>
					<clipitem frameBlend="FALSE" id="clipitem-telop-1625">
						<file id="file-2"/>
						<name>！</name>
						<rate>
							<timebase>59</timebase>
							<ntsc>TRUE</ntsc>
						</rate>
						<rate>
							<timebase>59</timebase>
							<ntsc>TRUE</ntsc>
						</rate>
						<duration>60</duration>
						<start>13744</start>
						<end>13804</end>
						<in>0</in>
						<out>60</out>
					</clipitem>
					<clipitem frameBlend="FALSE" id="clipitem-telop-1634">
						<file id="file-2"/>
						<name>！</name>
						<rate>
							<timebase>59</timebase>
							<ntsc>TRUE</ntsc>
						</rate>
						<rate>
							<timebase>59</timebase>
							<ntsc>TRUE</ntsc>
						</rate>
						<duration>60</duration>
						<start>13810</start>
						<end>13870</end>
						<in>0</in>
						<out>60</out>
					</clipitem>
					<clipitem frameBlend="FALSE" id="clipitem-telop-1639">
						<file id="file-2"/>
						<name>！</name>
						<rate>
							<timebase>59</timebase>
							<ntsc>TRUE</ntsc>
						</rate>
						<rate>
							<timebase>59</timebase>
							<ntsc>TRUE</ntsc>
						</rate>
						<duration>60</duration>
						<start>13876</start>
						<end>13936</end>
						<in>0</in>
						<out>60</out>
					</clipitem>
					<clipitem frameBlend="FALSE" id="clipitem-telop-1648">
						<file id="file-2"/>
						<name>！</name>
						<rate>
							<timebase>59</timebase>
							<ntsc>TRUE</ntsc>
						</rate>
						<rate>
							<timebase>59</timebase>
							<ntsc>TRUE</ntsc>
						</rate>
						<duration>66</duration>
						<start>13954</start>
						<end>14020</end>
						<in>0</in>
						<out>66</out>
					</clipitem>
					<clipitem frameBlend="FALSE" id="clipitem-telop-1656">
						<file id="file-2"/>
						<name>！</name>
						<rate>
							<timebase>59</timebase>
							<ntsc>TRUE</ntsc>
						</rate>
						<rate>
							<timebase>59</timebase>
							<ntsc>TRUE</ntsc>
						</rate>
						<duration>60</duration>
						<start>14026</start>
						<end>14086</end>
						<in>0</in>
						<out>60</out>
					</clipitem>
					<clipitem frameBlend="FALSE" id="clipitem-telop-1664">
						<file id="file-2"/>
						<name>！</name>
						<rate>
							<timebase>59</timebase>
							<ntsc>TRUE</ntsc>
						</rate>
						<rate>
							<timebase>59</timebase>
							<ntsc>TRUE</ntsc>
						</rate>
						<duration>66</duration>
						<start>14098</start>
						<end>14164</end>
						<in>0</in>
						<out>66</out>
					</clipitem>
					<clipitem frameBlend="FALSE" id="clipitem-telop-1671">
						<file id="file-2"/>
						<name>！</name>
						<rate>
							<timebase>59</timebase>
							<ntsc>TRUE</ntsc>
						</rate>
						<rate>
							<timebase>59</timebase>
							<ntsc>TRUE</ntsc>
						</rate>
						<duration>60</duration>
						<start>14164</start>
						<end>14224</end>
						<in>0</in>
						<out>60</out>
					</clipitem>
					<clipitem frameBlend="FALSE" id="clipitem-telop-1682">
						<file id="file-2"/>
						<name>！</name>
						<rate>
							<timebase>59</timebase>
							<ntsc>TRUE</ntsc>
						</rate>
						<rate>
							<timebase>59</timebase>
							<ntsc>TRUE</ntsc>
						</rate>
						<duration>60</duration>
						<start>14230</start>
						<end>14290</end>
						<in>0</in>
						<out>60</out>
					</clipitem>
					<clipitem frameBlend="FALSE" id="clipitem-telop-1691">
						<file id="file-2"/>
						<name>！</name>
						<rate>
							<timebase>59</timebase>
							<ntsc>TRUE</ntsc>
						</rate>
						<rate>
							<timebase>59</timebase>
							<ntsc>TRUE</ntsc>
						</rate>
						<duration>60</duration>
						<start>14314</start>
						<end>14374</end>
						<in>0</in>
						<out>60</out>
					</clipitem>
					<clipitem frameBlend="FALSE" id="clipitem-telop-1700">
						<file id="file-2"/>
						<name>！</name>
						<rate>
							<timebase>59</timebase>
							<ntsc>TRUE</ntsc>
						</rate>
						<rate>
							<timebase>59</timebase>
							<ntsc>TRUE</ntsc>
						</rate>
						<duration>60</duration>
						<start>14386</start>
						<end>14446</end>
						<in>0</in>
						<out>60</out>
					</clipitem>
					<clipitem frameBlend="FALSE" id="clipitem-telop-1704">
						<file id="file-2"/>
						<name>！</name>
						<rate>
							<timebase>59</timebase>
							<ntsc>TRUE</ntsc>
						</rate>
						<rate>
							<timebase>59</timebase>
							<ntsc>TRUE</ntsc>
						</rate>
						<duration>66</duration>
						<start>14446</start>
						<end>14512</end>
						<in>0</in>
						<out>66</out>
					</clipitem>
					<clipitem frameBlend="FALSE" id="clipitem-telop-1713">
						<file id="file-2"/>
						<name>！</name>
						<rate>
							<timebase>59</timebase>
							<ntsc>TRUE</ntsc>
						</rate>
						<rate>
							<timebase>59</timebase>
							<ntsc>TRUE</ntsc>
						</rate>
						<duration>60</duration>
						<start>14518</start>
						<end>14578</end>
						<in>0</in>
						<out>60</out>
					</clipitem>
					<clipitem frameBlend="FALSE" id="clipitem-telop-1720">
						<file id="file-2"/>
						<name>！</name>
						<rate>
							<timebase>59</timebase>
							<ntsc>TRUE</ntsc>
						</rate>
						<rate>
							<timebase>59</timebase>
							<ntsc>TRUE</ntsc>
						</rate>
						<duration>60</duration>
						<start>14578</start>
						<end>14638</end>
						<in>0</in>
						<out>60</out>
					</clipitem>
					<clipitem frameBlend="FALSE" id="clipitem-telop-1725">
						<file id="file-2"/>
						<name>！</name>
						<rate>
							<timebase>59</timebase>
							<ntsc>TRUE</ntsc>
						</rate>
						<rate>
							<timebase>59</timebase>
							<ntsc>TRUE</ntsc>
						</rate>
						<duration>60</duration>
						<start>14638</start>
						<end>14698</end>
						<in>0</in>
						<out>60</out>
					</clipitem>
					<clipitem frameBlend="FALSE" id="clipitem-telop-1735">
						<file id="file-2"/>
						<name>！</name>
						<rate>
							<timebase>59</timebase>
							<ntsc>TRUE</ntsc>
						</rate>
						<rate>
							<timebase>59</timebase>
							<ntsc>TRUE</ntsc>
						</rate>
						<duration>60</duration>
						<start>14698</start>
						<end>14758</end>
						<in>0</in>
						<out>60</out>
					</clipitem>
					<clipitem frameBlend="FALSE" id="clipitem-telop-1743">
						<file id="file-2"/>
						<name>！</name>
						<rate>
							<timebase>59</timebase>
							<ntsc>TRUE</ntsc>
						</rate>
						<rate>
							<timebase>59</timebase>
							<ntsc>TRUE</ntsc>
						</rate>
						<duration>66</duration>
						<start>14770</start>
						<end>14836</end>
						<in>0</in>
						<out>66</out>
					</clipitem>
					<clipitem frameBlend="FALSE" id="clipitem-telop-1752">
						<file id="file-2"/>
						<name>ミルクお嬢様がお幸せに今日寝れるように</name>
						<rate>
							<timebase>59</timebase>
							<ntsc>TRUE</ntsc>
						</rate>
						<rate>
							<timebase>59</timebase>
							<ntsc>TRUE</ntsc>
						</rate>
						<duration>240</duration>
						<start>14932</start>
						<end>15172</end>
						<in>0</in>
						<out>240</out>
					</clipitem>
					<clipitem frameBlend="FALSE" id="clipitem-telop-1781">
						<file id="file-2"/>
						<name>地域などボイスなどいかがですか</name>
						<rate>
							<timebase>59</timebase>
							<ntsc>TRUE</ntsc>
						</rate>
						<rate>
							<timebase>59</timebase>
							<ntsc>TRUE</ntsc>
						</rate>
						<duration>240</duration>
						<start>15172</start>
						<end>15412</end>
						<in>0</in>
						<out>240</out>
					</clipitem>
					<clipitem frameBlend="FALSE" id="clipitem-telop-1804">
						<file id="file-2"/>
						<name>幸せに寝れるように地域って何?</name>
						<rate>
							<timebase>59</timebase>
							<ntsc>TRUE</ntsc>
						</rate>
						<rate>
							<timebase>59</timebase>
							<ntsc>TRUE</ntsc>
						</rate>
						<duration>240</duration>
						<start>15412</start>
						<end>15652</end>
						<in>0</in>
						<out>240</out>
					</clipitem>
					<clipitem frameBlend="FALSE" id="clipitem-telop-1830">
						<file id="file-2"/>
						<name>それはもちろん</name>
						<rate>
							<timebase>59</timebase>
							<ntsc>TRUE</ntsc>
						</rate>
						<rate>
							<timebase>59</timebase>
							<ntsc>TRUE</ntsc>
						</rate>
						<duration>60</duration>
						<start>15652</start>
						<end>15712</end>
						<in>0</in>
						<out>60</out>
					</clipitem>
					<clipitem frameBlend="FALSE" id="clipitem-telop-1834">
						<file id="file-2"/>
						<name>どういう意味それ?</name>
						<rate>
							<timebase>59</timebase>
							<ntsc>TRUE</ntsc>
						</rate>
						<rate>
							<timebase>59</timebase>
							<ntsc>TRUE</ntsc>
						</rate>
						<duration>60</duration>
						<start>15712</start>
						<end>15772</end>
						<in>0</in>
						<out>60</out>
					</clipitem>
					<clipitem frameBlend="FALSE" id="clipitem-telop-1841">
						<file id="file-2"/>
						<name>！</name>
						<rate>
							<timebase>59</timebase>
							<ntsc>TRUE</ntsc>
						</rate>
						<rate>
							<timebase>59</timebase>
							<ntsc>TRUE</ntsc>
						</rate>
						<duration>60</duration>
						<start>15778</start>
						<end>15838</end>
						<in>0</in>
						<out>60</out>
					</clipitem>
					<clipitem frameBlend="FALSE" id="clipitem-telop-1847">
						<file id="file-2"/>
						<name>！</name>
						<rate>
							<timebase>59</timebase>
							<ntsc>TRUE</ntsc>
						</rate>
						<rate>
							<timebase>59</timebase>
							<ntsc>TRUE</ntsc>
						</rate>
						<duration>60</duration>
						<start>15850</start>
						<end>15910</end>
						<in>0</in>
						<out>60</out>
					</clipitem>
					<clipitem frameBlend="FALSE" id="clipitem-telop-1861">
						<file id="file-2"/>
						<name>！</name>
						<rate>
							<timebase>59</timebase>
							<ntsc>TRUE</ntsc>
						</rate>
						<rate>
							<timebase>59</timebase>
							<ntsc>TRUE</ntsc>
						</rate>
						<duration>60</duration>
						<start>15910</start>
						<end>15970</end>
						<in>0</in>
						<out>60</out>
					</clipitem>
					<clipitem frameBlend="FALSE" id="clipitem-telop-1866">
						<file id="file-2"/>
						<name>！</name>
						<rate>
							<timebase>59</timebase>
							<ntsc>TRUE</ntsc>
						</rate>
						<rate>
							<timebase>59</timebase>
							<ntsc>TRUE</ntsc>
						</rate>
						<duration>66</duration>
						<start>15970</start>
						<end>16036</end>
						<in>0</in>
						<out>66</out>
					</clipitem>
					<clipitem frameBlend="FALSE" id="clipitem-telop-1874">
						<file id="file-2"/>
						<name>！</name>
						<rate>
							<timebase>59</timebase>
							<ntsc>TRUE</ntsc>
						</rate>
						<rate>
							<timebase>59</timebase>
							<ntsc>TRUE</ntsc>
						</rate>
						<duration>60</duration>
						<start>16036</start>
						<end>16096</end>
						<in>0</in>
						<out>60</out>
					</clipitem>
					<clipitem frameBlend="FALSE" id="clipitem-telop-1881">
						<file id="file-2"/>
						<name>！</name>
						<rate>
							<timebase>59</timebase>
							<ntsc>TRUE</ntsc>
						</rate>
						<rate>
							<timebase>59</timebase>
							<ntsc>TRUE</ntsc>
						</rate>
						<duration>60</duration>
						<start>16096</start>
						<end>16156</end>
						<in>0</in>
						<out>60</out>
					</clipitem>
					<clipitem frameBlend="FALSE" id="clipitem-telop-1891">
						<file id="file-2"/>
						<name>！</name>
						<rate>
							<timebase>59</timebase>
							<ntsc>TRUE</ntsc>
						</rate>
						<rate>
							<timebase>59</timebase>
							<ntsc>TRUE</ntsc>
						</rate>
						<duration>60</duration>
						<start>16156</start>
						<end>16216</end>
						<in>0</in>
						<out>60</out>
					</clipitem>
					<clipitem frameBlend="FALSE" id="clipitem-telop-1898">
						<file id="file-2"/>
						<name>！</name>
						<rate>
							<timebase>59</timebase>
							<ntsc>TRUE</ntsc>
						</rate>
						<rate>
							<timebase>59</timebase>
							<ntsc>TRUE</ntsc>
						</rate>
						<duration>66</duration>
						<start>16222</start>
						<end>16288</end>
						<in>0</in>
						<out>66</out>
					</clipitem>
					<clipitem frameBlend="FALSE" id="clipitem-telop-1907">
						<file id="file-2"/>
						<name>！</name>
						<rate>
							<timebase>59</timebase>
							<ntsc>TRUE</ntsc>
						</rate>
						<rate>
							<timebase>59</timebase>
							<ntsc>TRUE</ntsc>
						</rate>
						<duration>60</duration>
						<start>16288</start>
						<end>16348</end>
						<in>0</in>
						<out>60</out>
					</clipitem>
					<clipitem frameBlend="FALSE" id="clipitem-telop-1915">
						<file id="file-2"/>
						<name>！</name>
						<rate>
							<timebase>59</timebase>
							<ntsc>TRUE</ntsc>
						</rate>
						<rate>
							<timebase>59</timebase>
							<ntsc>TRUE</ntsc>
						</rate>
						<duration>65</duration>
						<start>16360</start>
						<end>16425</end>
						<in>0</in>
						<out>65</out>
					</clipitem>
					<clipitem frameBlend="FALSE" id="clipitem-telop-1927">
						<file id="file-2"/>
						<name>！</name>
						<rate>
							<timebase>59</timebase>
							<ntsc>TRUE</ntsc>
						</rate>
						<rate>
							<timebase>59</timebase>
							<ntsc>TRUE</ntsc>
						</rate>
						<duration>66</duration>
						<start>16425</start>
						<end>16491</end>
						<in>0</in>
						<out>66</out>
					</clipitem>
					<clipitem frameBlend="FALSE" id="clipitem-telop-1934">
						<file id="file-2"/>
						<name>！</name>
						<rate>
							<timebase>59</timebase>
							<ntsc>TRUE</ntsc>
						</rate>
						<rate>
							<timebase>59</timebase>
							<ntsc>TRUE</ntsc>
						</rate>
						<duration>60</duration>
						<start>16503</start>
						<end>16563</end>
						<in>0</in>
						<out>60</out>
					</clipitem>
					<clipitem frameBlend="FALSE" id="clipitem-telop-1942">
						<file id="file-2"/>
						<name>！</name>
						<rate>
							<timebase>59</timebase>
							<ntsc>TRUE</ntsc>
						</rate>
						<rate>
							<timebase>59</timebase>
							<ntsc>TRUE</ntsc>
						</rate>
						<duration>60</duration>
						<start>16563</start>
						<end>16623</end>
						<in>0</in>
						<out>60</out>
					</clipitem>
					<clipitem frameBlend="FALSE" id="clipitem-telop-1948">
						<file id="file-2"/>
						<name>！</name>
						<rate>
							<timebase>59</timebase>
							<ntsc>TRUE</ntsc>
						</rate>
						<rate>
							<timebase>59</timebase>
							<ntsc>TRUE</ntsc>
						</rate>
						<duration>60</duration>
						<start>16623</start>
						<end>16683</end>
						<in>0</in>
						<out>60</out>
					</clipitem>
					<clipitem frameBlend="FALSE" id="clipitem-telop-1954">
						<file id="file-2"/>
						<name>！</name>
						<rate>
							<timebase>59</timebase>
							<ntsc>TRUE</ntsc>
						</rate>
						<rate>
							<timebase>59</timebase>
							<ntsc>TRUE</ntsc>
						</rate>
						<duration>60</duration>
						<start>16683</start>
						<end>16743</end>
						<in>0</in>
						<out>60</out>
					</clipitem>
					<clipitem frameBlend="FALSE" id="clipitem-telop-1964">
						<file id="file-2"/>
						<name>！</name>
						<rate>
							<timebase>59</timebase>
							<ntsc>TRUE</ntsc>
						</rate>
						<rate>
							<timebase>59</timebase>
							<ntsc>TRUE</ntsc>
						</rate>
						<duration>66</duration>
						<start>16743</start>
						<end>16809</end>
						<in>0</in>
						<out>66</out>
					</clipitem>
					<clipitem frameBlend="FALSE" id="clipitem-telop-1972">
						<file id="file-2"/>
						<name>！</name>
						<rate>
							<timebase>59</timebase>
							<ntsc>TRUE</ntsc>
						</rate>
						<rate>
							<timebase>59</timebase>
							<ntsc>TRUE</ntsc>
						</rate>
						<duration>60</duration>
						<start>16809</start>
						<end>16869</end>
						<in>0</in>
						<out>60</out>
					</clipitem>
					<clipitem frameBlend="FALSE" id="clipitem-telop-1980">
						<file id="file-2"/>
						<name>！</name>
						<rate>
							<timebase>59</timebase>
							<ntsc>TRUE</ntsc>
						</rate>
						<rate>
							<timebase>59</timebase>
							<ntsc>TRUE</ntsc>
						</rate>
						<duration>66</duration>
						<start>16875</start>
						<end>16941</end>
						<in>0</in>
						<out>66</out>
					</clipitem>
					<clipitem frameBlend="FALSE" id="clipitem-telop-1986">
						<file id="file-2"/>
						<name>！</name>
						<rate>
							<timebase>59</timebase>
							<ntsc>TRUE</ntsc>
						</rate>
						<rate>
							<timebase>59</timebase>
							<ntsc>TRUE</ntsc>
						</rate>
						<duration>60</duration>
						<start>16965</start>
						<end>17025</end>
						<in>0</in>
						<out>60</out>
					</clipitem>
					<clipitem frameBlend="FALSE" id="clipitem-telop-1990">
						<file id="file-2"/>
						<name>！</name>
						<rate>
							<timebase>59</timebase>
							<ntsc>TRUE</ntsc>
						</rate>
						<rate>
							<timebase>59</timebase>
							<ntsc>TRUE</ntsc>
						</rate>
						<duration>60</duration>
						<start>17025</start>
						<end>17085</end>
						<in>0</in>
						<out>60</out>
					</clipitem>
					<clipitem frameBlend="FALSE" id="clipitem-telop-1997">
						<file id="file-2"/>
						<name>！</name>
						<rate>
							<timebase>59</timebase>
							<ntsc>TRUE</ntsc>
						</rate>
						<rate>
							<timebase>59</timebase>
							<ntsc>TRUE</ntsc>
						</rate>
						<duration>66</duration>
						<start>17085</start>
						<end>17151</end>
						<in>0</in>
						<out>66</out>
					</clipitem>
					<clipitem frameBlend="FALSE" id="clipitem-telop-2007">
						<file id="file-2"/>
						<name>！</name>
						<rate>
							<timebase>59</timebase>
							<ntsc>TRUE</ntsc>
						</rate>
						<rate>
							<timebase>59</timebase>
							<ntsc>TRUE</ntsc>
						</rate>
						<duration>60</duration>
						<start>17157</start>
						<end>17217</end>
						<in>0</in>
						<out>60</out>
					</clipitem>
					<clipitem frameBlend="FALSE" id="clipitem-telop-2016">
						<file id="file-2"/>
						<name>！</name>
						<rate>
							<timebase>59</timebase>
							<ntsc>TRUE</ntsc>
						</rate>
						<rate>
							<timebase>59</timebase>
							<ntsc>TRUE</ntsc>
						</rate>
						<duration>60</duration>
						<start>17235</start>
						<end>17295</end>
						<in>0</in>
						<out>60</out>
					</clipitem>
					<clipitem frameBlend="FALSE" id="clipitem-telop-2022">
						<file id="file-2"/>
						<name>！</name>
						<rate>
							<timebase>59</timebase>
							<ntsc>TRUE</ntsc>
						</rate>
						<rate>
							<timebase>59</timebase>
							<ntsc>TRUE</ntsc>
						</rate>
						<duration>60</duration>
						<start>17301</start>
						<end>17361</end>
						<in>0</in>
						<out>60</out>
					</clipitem>
					<clipitem frameBlend="FALSE" id="clipitem-telop-2030">
						<file id="file-2"/>
						<name>！</name>
						<rate>
							<timebase>59</timebase>
							<ntsc>TRUE</ntsc>
						</rate>
						<rate>
							<timebase>59</timebase>
							<ntsc>TRUE</ntsc>
						</rate>
						<duration>60</duration>
						<start>17367</start>
						<end>17427</end>
						<in>0</in>
						<out>60</out>
					</clipitem>
					<clipitem frameBlend="FALSE" id="clipitem-telop-2036">
						<file id="file-2"/>
						<name>！</name>
						<rate>
							<timebase>59</timebase>
							<ntsc>TRUE</ntsc>
						</rate>
						<rate>
							<timebase>59</timebase>
							<ntsc>TRUE</ntsc>
						</rate>
						<duration>60</duration>
						<start>17445</start>
						<end>17505</end>
						<in>0</in>
						<out>60</out>
					</clipitem>
					<clipitem frameBlend="FALSE" id="clipitem-telop-2044">
						<file id="file-2"/>
						<name>！</name>
						<rate>
							<timebase>59</timebase>
							<ntsc>TRUE</ntsc>
						</rate>
						<rate>
							<timebase>59</timebase>
							<ntsc>TRUE</ntsc>
						</rate>
						<duration>66</duration>
						<start>17517</start>
						<end>17583</end>
						<in>0</in>
						<out>66</out>
					</clipitem>
					<clipitem frameBlend="FALSE" id="clipitem-telop-2051">
						<file id="file-2"/>
						<name>！</name>
						<rate>
							<timebase>59</timebase>
							<ntsc>TRUE</ntsc>
						</rate>
						<rate>
							<timebase>59</timebase>
							<ntsc>TRUE</ntsc>
						</rate>
						<duration>60</duration>
						<start>17583</start>
						<end>17643</end>
						<in>0</in>
						<out>60</out>
					</clipitem>
					<clipitem frameBlend="FALSE" id="clipitem-telop-2058">
						<file id="file-2"/>
						<name>！</name>
						<rate>
							<timebase>59</timebase>
							<ntsc>TRUE</ntsc>
						</rate>
						<rate>
							<timebase>59</timebase>
							<ntsc>TRUE</ntsc>
						</rate>
						<duration>60</duration>
						<start>17661</start>
						<end>17721</end>
						<in>0</in>
						<out>60</out>
					</clipitem>
					<clipitem frameBlend="FALSE" id="clipitem-telop-2062">
						<file id="file-2"/>
						<name>！</name>
						<rate>
							<timebase>59</timebase>
							<ntsc>TRUE</ntsc>
						</rate>
						<rate>
							<timebase>59</timebase>
							<ntsc>TRUE</ntsc>
						</rate>
						<duration>66</duration>
						<start>17733</start>
						<end>17799</end>
						<in>0</in>
						<out>66</out>
					</clipitem>
					<clipitem frameBlend="FALSE" id="clipitem-telop-2072">
						<file id="file-2"/>
						<name>！</name>
						<rate>
							<timebase>59</timebase>
							<ntsc>TRUE</ntsc>
						</rate>
						<rate>
							<timebase>59</timebase>
							<ntsc>TRUE</ntsc>
						</rate>
						<duration>60</duration>
						<start>17799</start>
						<end>17859</end>
						<in>0</in>
						<out>60</out>
					</clipitem>
					<clipitem frameBlend="FALSE" id="clipitem-telop-2077">
						<file id="file-2"/>
						<name>！</name>
						<rate>
							<timebase>59</timebase>
							<ntsc>TRUE</ntsc>
						</rate>
						<rate>
							<timebase>59</timebase>
							<ntsc>TRUE</ntsc>
						</rate>
						<duration>60</duration>
						<start>17871</start>
						<end>17931</end>
						<in>0</in>
						<out>60</out>
					</clipitem>
					<clipitem frameBlend="FALSE" id="clipitem-telop-2085">
						<file id="file-2"/>
						<name>！</name>
						<rate>
							<timebase>59</timebase>
							<ntsc>TRUE</ntsc>
						</rate>
						<rate>
							<timebase>59</timebase>
							<ntsc>TRUE</ntsc>
						</rate>
						<duration>60</duration>
						<start>17937</start>
						<end>17997</end>
						<in>0</in>
						<out>60</out>
					</clipitem>
					<clipitem frameBlend="FALSE" id="clipitem-telop-2096">
						<file id="file-2"/>
						<name>！</name>
						<rate>
							<timebase>59</timebase>
							<ntsc>TRUE</ntsc>
						</rate>
						<rate>
							<timebase>59</timebase>
							<ntsc>TRUE</ntsc>
						</rate>
						<duration>60</duration>
						<start>18009</start>
						<end>18069</end>
						<in>0</in>
						<out>60</out>
					</clipitem>
					<clipitem frameBlend="FALSE" id="clipitem-telop-2104">
						<file id="file-2"/>
						<name>！</name>
						<rate>
							<timebase>59</timebase>
							<ntsc>TRUE</ntsc>
						</rate>
						<rate>
							<timebase>59</timebase>
							<ntsc>TRUE</ntsc>
						</rate>
						<duration>60</duration>
						<start>18075</start>
						<end>18135</end>
						<in>0</in>
						<out>60</out>
					</clipitem>
					<clipitem frameBlend="FALSE" id="clipitem-telop-2111">
						<file id="file-2"/>
						<name>！</name>
						<rate>
							<timebase>59</timebase>
							<ntsc>TRUE</ntsc>
						</rate>
						<rate>
							<timebase>59</timebase>
							<ntsc>TRUE</ntsc>
						</rate>
						<duration>60</duration>
						<start>18135</start>
						<end>18195</end>
						<in>0</in>
						<out>60</out>
					</clipitem>
					<clipitem frameBlend="FALSE" id="clipitem-telop-2119">
						<file id="file-2"/>
						<name>！</name>
						<rate>
							<timebase>59</timebase>
							<ntsc>TRUE</ntsc>
						</rate>
						<rate>
							<timebase>59</timebase>
							<ntsc>TRUE</ntsc>
						</rate>
						<duration>60</duration>
						<start>18195</start>
						<end>18255</end>
						<in>0</in>
						<out>60</out>
					</clipitem>
					<clipitem frameBlend="FALSE" id="clipitem-telop-2126">
						<file id="file-2"/>
						<name>！</name>
						<rate>
							<timebase>59</timebase>
							<ntsc>TRUE</ntsc>
						</rate>
						<rate>
							<timebase>59</timebase>
							<ntsc>TRUE</ntsc>
						</rate>
						<duration>66</duration>
						<start>18267</start>
						<end>18333</end>
						<in>0</in>
						<out>66</out>
					</clipitem>
					<clipitem frameBlend="FALSE" id="clipitem-telop-2131">
						<file id="file-2"/>
						<name>！</name>
						<rate>
							<timebase>59</timebase>
							<ntsc>TRUE</ntsc>
						</rate>
						<rate>
							<timebase>59</timebase>
							<ntsc>TRUE</ntsc>
						</rate>
						<duration>60</duration>
						<start>18357</start>
						<end>18417</end>
						<in>0</in>
						<out>60</out>
					</clipitem>
					<clipitem frameBlend="FALSE" id="clipitem-telop-2138">
						<file id="file-2"/>
						<name>！</name>
						<rate>
							<timebase>59</timebase>
							<ntsc>TRUE</ntsc>
						</rate>
						<rate>
							<timebase>59</timebase>
							<ntsc>TRUE</ntsc>
						</rate>
						<duration>60</duration>
						<start>18417</start>
						<end>18477</end>
						<in>0</in>
						<out>60</out>
					</clipitem>
					<clipitem frameBlend="FALSE" id="clipitem-telop-2143">
						<file id="file-2"/>
						<name>！</name>
						<rate>
							<timebase>59</timebase>
							<ntsc>TRUE</ntsc>
						</rate>
						<rate>
							<timebase>59</timebase>
							<ntsc>TRUE</ntsc>
						</rate>
						<duration>60</duration>
						<start>18495</start>
						<end>18555</end>
						<in>0</in>
						<out>60</out>
					</clipitem>
					<clipitem frameBlend="FALSE" id="clipitem-telop-2151">
						<file id="file-2"/>
						<name>！</name>
						<rate>
							<timebase>59</timebase>
							<ntsc>TRUE</ntsc>
						</rate>
						<rate>
							<timebase>59</timebase>
							<ntsc>TRUE</ntsc>
						</rate>
						<duration>60</duration>
						<start>18567</start>
						<end>18627</end>
						<in>0</in>
						<out>60</out>
					</clipitem>
					<clipitem frameBlend="FALSE" id="clipitem-telop-2161">
						<file id="file-2"/>
						<name>！</name>
						<rate>
							<timebase>59</timebase>
							<ntsc>TRUE</ntsc>
						</rate>
						<rate>
							<timebase>59</timebase>
							<ntsc>TRUE</ntsc>
						</rate>
						<duration>60</duration>
						<start>18627</start>
						<end>18687</end>
						<in>0</in>
						<out>60</out>
					</clipitem>
					<clipitem frameBlend="FALSE" id="clipitem-telop-2165">
						<file id="file-2"/>
						<name>！</name>
						<rate>
							<timebase>59</timebase>
							<ntsc>TRUE</ntsc>
						</rate>
						<rate>
							<timebase>59</timebase>
							<ntsc>TRUE</ntsc>
						</rate>
						<duration>60</duration>
						<start>18693</start>
						<end>18753</end>
						<in>0</in>
						<out>60</out>
					</clipitem>
					<clipitem frameBlend="FALSE" id="clipitem-telop-2168">
						<file id="file-2"/>
						<name>！</name>
						<rate>
							<timebase>59</timebase>
							<ntsc>TRUE</ntsc>
						</rate>
						<rate>
							<timebase>59</timebase>
							<ntsc>TRUE</ntsc>
						</rate>
						<duration>60</duration>
						<start>18765</start>
						<end>18825</end>
						<in>0</in>
						<out>60</out>
					</clipitem>
					<clipitem frameBlend="FALSE" id="clipitem-telop-2180">
						<file id="file-2"/>
						<name>かなおですよ</name>
						<rate>
							<timebase>59</timebase>
							<ntsc>TRUE</ntsc>
						</rate>
						<rate>
							<timebase>59</timebase>
							<ntsc>TRUE</ntsc>
						</rate>
						<duration>60</duration>
						<start>18891</start>
						<end>18951</end>
						<in>0</in>
						<out>60</out>
					</clipitem>
					<clipitem frameBlend="FALSE" id="clipitem-telop-2184">
						<file id="file-2"/>
						<name>お嬢様</name>
						<rate>
							<timebase>59</timebase>
							<ntsc>TRUE</ntsc>
						</rate>
						<rate>
							<timebase>59</timebase>
							<ntsc>TRUE</ntsc>
						</rate>
						<duration>120</duration>
						<start>18951</start>
						<end>19071</end>
						<in>0</in>
						<out>120</out>
					</clipitem>
					<clipitem frameBlend="FALSE" id="clipitem-telop-2199">
						<file id="file-2"/>
						<name>！</name>
						<rate>
							<timebase>59</timebase>
							<ntsc>TRUE</ntsc>
						</rate>
						<rate>
							<timebase>59</timebase>
							<ntsc>TRUE</ntsc>
						</rate>
						<duration>60</duration>
						<start>19071</start>
						<end>19131</end>
						<in>0</in>
						<out>60</out>
					</clipitem>
					<clipitem frameBlend="FALSE" id="clipitem-telop-2207">
						<file id="file-2"/>
						<name>！</name>
						<rate>
							<timebase>59</timebase>
							<ntsc>TRUE</ntsc>
						</rate>
						<rate>
							<timebase>59</timebase>
							<ntsc>TRUE</ntsc>
						</rate>
						<duration>60</duration>
						<start>19167</start>
						<end>19227</end>
						<in>0</in>
						<out>60</out>
					</clipitem>
					<clipitem frameBlend="FALSE" id="clipitem-telop-2213">
						<file id="file-2"/>
						<name>！</name>
						<rate>
							<timebase>59</timebase>
							<ntsc>TRUE</ntsc>
						</rate>
						<rate>
							<timebase>59</timebase>
							<ntsc>TRUE</ntsc>
						</rate>
						<duration>60</duration>
						<start>19251</start>
						<end>19311</end>
						<in>0</in>
						<out>60</out>
					</clipitem>
					<clipitem frameBlend="FALSE" id="clipitem-telop-2218">
						<file id="file-2"/>
						<name>だから首をはめてほしいなって思って</name>
						<rate>
							<timebase>59</timebase>
							<ntsc>TRUE</ntsc>
						</rate>
						<rate>
							<timebase>59</timebase>
							<ntsc>TRUE</ntsc>
						</rate>
						<duration>240</duration>
						<start>19311</start>
						<end>19551</end>
						<in>0</in>
						<out>240</out>
					</clipitem>
					<clipitem frameBlend="FALSE" id="clipitem-telop-2251">
						<file id="file-2"/>
						<name>それをイメージして</name>
						<rate>
							<timebase>59</timebase>
							<ntsc>TRUE</ntsc>
						</rate>
						<rate>
							<timebase>59</timebase>
							<ntsc>TRUE</ntsc>
						</rate>
						<duration>120</duration>
						<start>19551</start>
						<end>19671</end>
						<in>0</in>
						<out>120</out>
					</clipitem>
					<clipitem frameBlend="FALSE" id="clipitem-telop-2268">
						<file id="file-2"/>
						<name>超カーつけてきたんだよね</name>
						<rate>
							<timebase>59</timebase>
							<ntsc>TRUE</ntsc>
						</rate>
						<rate>
							<timebase>59</timebase>
							<ntsc>TRUE</ntsc>
						</rate>
						<duration>120</duration>
						<start>19671</start>
						<end>19791</end>
						<in>0</in>
						<out>120</out>
					</clipitem>
					<clipitem frameBlend="FALSE" id="clipitem-telop-2280">
						<file id="file-2"/>
						<name>！</name>
						<rate>
							<timebase>59</timebase>
							<ntsc>TRUE</ntsc>
						</rate>
						<rate>
							<timebase>59</timebase>
							<ntsc>TRUE</ntsc>
						</rate>
						<duration>60</duration>
						<start>19791</start>
						<end>19851</end>
						<in>0</in>
						<out>60</out>
					</clipitem>
					<clipitem frameBlend="FALSE" id="clipitem-telop-2291">
						<file id="file-2"/>
						<name>！</name>
						<rate>
							<timebase>59</timebase>
							<ntsc>TRUE</ntsc>
						</rate>
						<rate>
							<timebase>59</timebase>
							<ntsc>TRUE</ntsc>
						</rate>
						<duration>60</duration>
						<start>19851</start>
						<end>19911</end>
						<in>0</in>
						<out>60</out>
					</clipitem>
					<clipitem frameBlend="FALSE" id="clipitem-telop-2297">
						<file id="file-2"/>
						<name>！</name>
						<rate>
							<timebase>59</timebase>
							<ntsc>TRUE</ntsc>
						</rate>
						<rate>
							<timebase>59</timebase>
							<ntsc>TRUE</ntsc>
						</rate>
						<duration>60</duration>
						<start>19911</start>
						<end>19971</end>
						<in>0</in>
						<out>60</out>
					</clipitem>
					<clipitem frameBlend="FALSE" id="clipitem-telop-2305">
						<file id="file-2"/>
						<name>！</name>
						<rate>
							<timebase>59</timebase>
							<ntsc>TRUE</ntsc>
						</rate>
						<rate>
							<timebase>59</timebase>
							<ntsc>TRUE</ntsc>
						</rate>
						<duration>60</duration>
						<start>19971</start>
						<end>20031</end>
						<in>0</in>
						<out>60</out>
					</clipitem>
					<clipitem frameBlend="FALSE" id="clipitem-telop-2310">
						<file id="file-2"/>
						<name>！</name>
						<rate>
							<timebase>59</timebase>
							<ntsc>TRUE</ntsc>
						</rate>
						<rate>
							<timebase>59</timebase>
							<ntsc>TRUE</ntsc>
						</rate>
						<duration>60</duration>
						<start>20031</start>
						<end>20091</end>
						<in>0</in>
						<out>60</out>
					</clipitem>
					<clipitem frameBlend="FALSE" id="clipitem-telop-2318">
						<file id="file-2"/>
						<name>！</name>
						<rate>
							<timebase>59</timebase>
							<ntsc>TRUE</ntsc>
						</rate>
						<rate>
							<timebase>59</timebase>
							<ntsc>TRUE</ntsc>
						</rate>
						<duration>60</duration>
						<start>20091</start>
						<end>20151</end>
						<in>0</in>
						<out>60</out>
					</clipitem>
					<clipitem frameBlend="FALSE" id="clipitem-telop-2326">
						<file id="file-2"/>
						<name>！</name>
						<rate>
							<timebase>59</timebase>
							<ntsc>TRUE</ntsc>
						</rate>
						<rate>
							<timebase>59</timebase>
							<ntsc>TRUE</ntsc>
						</rate>
						<duration>60</duration>
						<start>20163</start>
						<end>20223</end>
						<in>0</in>
						<out>60</out>
					</clipitem>
					<clipitem frameBlend="FALSE" id="clipitem-telop-2333">
						<file id="file-2"/>
						<name>！</name>
						<rate>
							<timebase>59</timebase>
							<ntsc>TRUE</ntsc>
						</rate>
						<rate>
							<timebase>59</timebase>
							<ntsc>TRUE</ntsc>
						</rate>
						<duration>60</duration>
						<start>20223</start>
						<end>20283</end>
						<in>0</in>
						<out>60</out>
					</clipitem>
					<clipitem frameBlend="FALSE" id="clipitem-telop-2342">
						<file id="file-2"/>
						<name>！</name>
						<rate>
							<timebase>59</timebase>
							<ntsc>TRUE</ntsc>
						</rate>
						<rate>
							<timebase>59</timebase>
							<ntsc>TRUE</ntsc>
						</rate>
						<duration>60</duration>
						<start>20283</start>
						<end>20343</end>
						<in>0</in>
						<out>60</out>
					</clipitem>
					<clipitem frameBlend="FALSE" id="clipitem-telop-2348">
						<file id="file-2"/>
						<name>！</name>
						<rate>
							<timebase>59</timebase>
							<ntsc>TRUE</ntsc>
						</rate>
						<rate>
							<timebase>59</timebase>
							<ntsc>TRUE</ntsc>
						</rate>
						<duration>60</duration>
						<start>20343</start>
						<end>20403</end>
						<in>0</in>
						<out>60</out>
					</clipitem>
					<clipitem frameBlend="FALSE" id="clipitem-telop-2360">
						<file id="file-2"/>
						<name>！</name>
						<rate>
							<timebase>59</timebase>
							<ntsc>TRUE</ntsc>
						</rate>
						<rate>
							<timebase>59</timebase>
							<ntsc>TRUE</ntsc>
						</rate>
						<duration>60</duration>
						<start>20403</start>
						<end>20463</end>
						<in>0</in>
						<out>60</out>
					</clipitem>
					<clipitem frameBlend="FALSE" id="clipitem-telop-2370">
						<file id="file-2"/>
						<name>！</name>
						<rate>
							<timebase>59</timebase>
							<ntsc>TRUE</ntsc>
						</rate>
						<rate>
							<timebase>59</timebase>
							<ntsc>TRUE</ntsc>
						</rate>
						<duration>60</duration>
						<start>20481</start>
						<end>20541</end>
						<in>0</in>
						<out>60</out>
					</clipitem>
					<clipitem frameBlend="FALSE" id="clipitem-telop-2378">
						<file id="file-2"/>
						<name>！</name>
						<rate>
							<timebase>59</timebase>
							<ntsc>TRUE</ntsc>
						</rate>
						<rate>
							<timebase>59</timebase>
							<ntsc>TRUE</ntsc>
						</rate>
						<duration>60</duration>
						<start>20541</start>
						<end>20601</end>
						<in>0</in>
						<out>60</out>
					</clipitem>
					<clipitem frameBlend="FALSE" id="clipitem-telop-2383">
						<file id="file-2"/>
						<name>！</name>
						<rate>
							<timebase>59</timebase>
							<ntsc>TRUE</ntsc>
						</rate>
						<rate>
							<timebase>59</timebase>
							<ntsc>TRUE</ntsc>
						</rate>
						<duration>60</duration>
						<start>20601</start>
						<end>20661</end>
						<in>0</in>
						<out>60</out>
					</clipitem>
					<clipitem frameBlend="FALSE" id="clipitem-telop-2389">
						<file id="file-2"/>
						<name>！</name>
						<rate>
							<timebase>59</timebase>
							<ntsc>TRUE</ntsc>
						</rate>
						<rate>
							<timebase>59</timebase>
							<ntsc>TRUE</ntsc>
						</rate>
						<duration>60</duration>
						<start>20685</start>
						<end>20745</end>
						<in>0</in>
						<out>60</out>
					</clipitem>
					<clipitem frameBlend="FALSE" id="clipitem-telop-2396">
						<file id="file-2"/>
						<name>波伝師はと</name>
						<rate>
							<timebase>59</timebase>
							<ntsc>TRUE</ntsc>
						</rate>
						<rate>
							<timebase>59</timebase>
							<ntsc>TRUE</ntsc>
						</rate>
						<duration>60</duration>
						<start>20751</start>
						<end>20811</end>
						<in>0</in>
						<out>60</out>
					</clipitem>
					<clipitem frameBlend="FALSE" id="clipitem-telop-2404">
						<file id="file-2"/>
						<name>姉が入りましたよ</name>
						<rate>
							<timebase>59</timebase>
							<ntsc>TRUE</ntsc>
						</rate>
						<rate>
							<timebase>59</timebase>
							<ntsc>TRUE</ntsc>
						</rate>
						<duration>60</duration>
						<start>20811</start>
						<end>20871</end>
						<in>0</in>
						<out>60</out>
					</clipitem>
					<clipitem frameBlend="FALSE" id="clipitem-telop-2411">
						<file id="file-2"/>
						<name>！</name>
						<rate>
							<timebase>59</timebase>
							<ntsc>TRUE</ntsc>
						</rate>
						<rate>
							<timebase>59</timebase>
							<ntsc>TRUE</ntsc>
						</rate>
						<duration>66</duration>
						<start>20871</start>
						<end>20937</end>
						<in>0</in>
						<out>66</out>
					</clipitem>
					<clipitem frameBlend="FALSE" id="clipitem-telop-2417">
						<file id="file-2"/>
						<name>！</name>
						<rate>
							<timebase>59</timebase>
							<ntsc>TRUE</ntsc>
						</rate>
						<rate>
							<timebase>59</timebase>
							<ntsc>TRUE</ntsc>
						</rate>
						<duration>60</duration>
						<start>20949</start>
						<end>21009</end>
						<in>0</in>
						<out>60</out>
					</clipitem>
					<clipitem frameBlend="FALSE" id="clipitem-telop-2428">
						<file id="file-2"/>
						<name>！</name>
						<rate>
							<timebase>59</timebase>
							<ntsc>TRUE</ntsc>
						</rate>
						<rate>
							<timebase>59</timebase>
							<ntsc>TRUE</ntsc>
						</rate>
						<duration>66</duration>
						<start>21021</start>
						<end>21087</end>
						<in>0</in>
						<out>66</out>
					</clipitem>
					<clipitem frameBlend="FALSE" id="clipitem-telop-2441">
						<file id="file-2"/>
						<name>！</name>
						<rate>
							<timebase>59</timebase>
							<ntsc>TRUE</ntsc>
						</rate>
						<rate>
							<timebase>59</timebase>
							<ntsc>TRUE</ntsc>
						</rate>
						<duration>60</duration>
						<start>21087</start>
						<end>21147</end>
						<in>0</in>
						<out>60</out>
					</clipitem>
					<clipitem frameBlend="FALSE" id="clipitem-telop-2458">
						<file id="file-2"/>
						<name>！</name>
						<rate>
							<timebase>59</timebase>
							<ntsc>TRUE</ntsc>
						</rate>
						<rate>
							<timebase>59</timebase>
							<ntsc>TRUE</ntsc>
						</rate>
						<duration>60</duration>
						<start>21165</start>
						<end>21225</end>
						<in>0</in>
						<out>60</out>
					</clipitem>
					<clipitem frameBlend="FALSE" id="clipitem-telop-2469">
						<file id="file-2"/>
						<name>！</name>
						<rate>
							<timebase>59</timebase>
							<ntsc>TRUE</ntsc>
						</rate>
						<rate>
							<timebase>59</timebase>
							<ntsc>TRUE</ntsc>
						</rate>
						<duration>60</duration>
						<start>21225</start>
						<end>21285</end>
						<in>0</in>
						<out>60</out>
					</clipitem>
					<clipitem frameBlend="FALSE" id="clipitem-telop-2478">
						<file id="file-2"/>
						<name>！</name>
						<rate>
							<timebase>59</timebase>
							<ntsc>TRUE</ntsc>
						</rate>
						<rate>
							<timebase>59</timebase>
							<ntsc>TRUE</ntsc>
						</rate>
						<duration>60</duration>
						<start>21285</start>
						<end>21345</end>
						<in>0</in>
						<out>60</out>
					</clipitem>
					<clipitem frameBlend="FALSE" id="clipitem-telop-2490">
						<file id="file-2"/>
						<name>！</name>
						<rate>
							<timebase>59</timebase>
							<ntsc>TRUE</ntsc>
						</rate>
						<rate>
							<timebase>59</timebase>
							<ntsc>TRUE</ntsc>
						</rate>
						<duration>66</duration>
						<start>21345</start>
						<end>21411</end>
						<in>0</in>
						<out>66</out>
					</clipitem>
					<clipitem frameBlend="FALSE" id="clipitem-telop-2500">
						<file id="file-2"/>
						<name>！</name>
						<rate>
							<timebase>59</timebase>
							<ntsc>TRUE</ntsc>
						</rate>
						<rate>
							<timebase>59</timebase>
							<ntsc>TRUE</ntsc>
						</rate>
						<duration>60</duration>
						<start>21411</start>
						<end>21471</end>
						<in>0</in>
						<out>60</out>
					</clipitem>
					<clipitem frameBlend="FALSE" id="clipitem-telop-2509">
						<file id="file-2"/>
						<name>！</name>
						<rate>
							<timebase>59</timebase>
							<ntsc>TRUE</ntsc>
						</rate>
						<rate>
							<timebase>59</timebase>
							<ntsc>TRUE</ntsc>
						</rate>
						<duration>60</duration>
						<start>21471</start>
						<end>21531</end>
						<in>0</in>
						<out>60</out>
					</clipitem>
					<clipitem frameBlend="FALSE" id="clipitem-telop-2518">
						<file id="file-2"/>
						<name>！</name>
						<rate>
							<timebase>59</timebase>
							<ntsc>TRUE</ntsc>
						</rate>
						<rate>
							<timebase>59</timebase>
							<ntsc>TRUE</ntsc>
						</rate>
						<duration>60</duration>
						<start>21537</start>
						<end>21597</end>
						<in>0</in>
						<out>60</out>
					</clipitem>
					<clipitem frameBlend="FALSE" id="clipitem-telop-2529">
						<file id="file-2"/>
						<name>！</name>
						<rate>
							<timebase>59</timebase>
							<ntsc>TRUE</ntsc>
						</rate>
						<rate>
							<timebase>59</timebase>
							<ntsc>TRUE</ntsc>
						</rate>
						<duration>66</duration>
						<start>21603</start>
						<end>21669</end>
						<in>0</in>
						<out>66</out>
					</clipitem>
					<clipitem frameBlend="FALSE" id="clipitem-telop-2538">
						<file id="file-2"/>
						<name>！</name>
						<rate>
							<timebase>59</timebase>
							<ntsc>TRUE</ntsc>
						</rate>
						<rate>
							<timebase>59</timebase>
							<ntsc>TRUE</ntsc>
						</rate>
						<duration>60</duration>
						<start>21669</start>
						<end>21729</end>
						<in>0</in>
						<out>60</out>
					</clipitem>
					<clipitem frameBlend="FALSE" id="clipitem-telop-2546">
						<file id="file-2"/>
						<name>！</name>
						<rate>
							<timebase>59</timebase>
							<ntsc>TRUE</ntsc>
						</rate>
						<rate>
							<timebase>59</timebase>
							<ntsc>TRUE</ntsc>
						</rate>
						<duration>60</duration>
						<start>21729</start>
						<end>21789</end>
						<in>0</in>
						<out>60</out>
					</clipitem>
					<clipitem frameBlend="FALSE" id="clipitem-telop-2557">
						<file id="file-2"/>
						<name>！</name>
						<rate>
							<timebase>59</timebase>
							<ntsc>TRUE</ntsc>
						</rate>
						<rate>
							<timebase>59</timebase>
							<ntsc>TRUE</ntsc>
						</rate>
						<duration>60</duration>
						<start>21795</start>
						<end>21855</end>
						<in>0</in>
						<out>60</out>
					</clipitem>
					<clipitem frameBlend="FALSE" id="clipitem-telop-2570">
						<file id="file-2"/>
						<name>！</name>
						<rate>
							<timebase>59</timebase>
							<ntsc>TRUE</ntsc>
						</rate>
						<rate>
							<timebase>59</timebase>
							<ntsc>TRUE</ntsc>
						</rate>
						<duration>66</duration>
						<start>21855</start>
						<end>21921</end>
						<in>0</in>
						<out>66</out>
					</clipitem>
					<clipitem frameBlend="FALSE" id="clipitem-telop-2580">
						<file id="file-2"/>
						<name>！</name>
						<rate>
							<timebase>59</timebase>
							<ntsc>TRUE</ntsc>
						</rate>
						<rate>
							<timebase>59</timebase>
							<ntsc>TRUE</ntsc>
						</rate>
						<duration>60</duration>
						<start>21927</start>
						<end>21987</end>
						<in>0</in>
						<out>60</out>
					</clipitem>
					<clipitem frameBlend="FALSE" id="clipitem-telop-2587">
						<file id="file-2"/>
						<name>！</name>
						<rate>
							<timebase>59</timebase>
							<ntsc>TRUE</ntsc>
						</rate>
						<rate>
							<timebase>59</timebase>
							<ntsc>TRUE</ntsc>
						</rate>
						<duration>60</duration>
						<start>21987</start>
						<end>22047</end>
						<in>0</in>
						<out>60</out>
					</clipitem>
					<clipitem frameBlend="FALSE" id="clipitem-telop-2596">
						<file id="file-2"/>
						<name>！</name>
						<rate>
							<timebase>59</timebase>
							<ntsc>TRUE</ntsc>
						</rate>
						<rate>
							<timebase>59</timebase>
							<ntsc>TRUE</ntsc>
						</rate>
						<duration>60</duration>
						<start>22053</start>
						<end>22113</end>
						<in>0</in>
						<out>60</out>
					</clipitem>
					<clipitem frameBlend="FALSE" id="clipitem-telop-2609">
						<file id="file-2"/>
						<name>w</name>
						<rate>
							<timebase>59</timebase>
							<ntsc>TRUE</ntsc>
						</rate>
						<rate>
							<timebase>59</timebase>
							<ntsc>TRUE</ntsc>
						</rate>
						<duration>24</duration>
						<start>22119</start>
						<end>22143</end>
						<in>0</in>
						<out>24</out>
					</clipitem>
					<clipitem frameBlend="FALSE" id="clipitem-telop-2614">
						<file id="file-2"/>
						<name>！</name>
						<rate>
							<timebase>59</timebase>
							<ntsc>TRUE</ntsc>
						</rate>
						<rate>
							<timebase>59</timebase>
							<ntsc>TRUE</ntsc>
						</rate>
						<duration>60</duration>
						<start>22143</start>
						<end>22203</end>
						<in>0</in>
						<out>60</out>
					</clipitem>
					<clipitem frameBlend="FALSE" id="clipitem-telop-2626">
						<file id="file-2"/>
						<name>！</name>
						<rate>
							<timebase>59</timebase>
							<ntsc>TRUE</ntsc>
						</rate>
						<rate>
							<timebase>59</timebase>
							<ntsc>TRUE</ntsc>
						</rate>
						<duration>60</duration>
						<start>22203</start>
						<end>22263</end>
						<in>0</in>
						<out>60</out>
					</clipitem>
					<clipitem frameBlend="FALSE" id="clipitem-telop-2634">
						<file id="file-2"/>
						<name>！</name>
						<rate>
							<timebase>59</timebase>
							<ntsc>TRUE</ntsc>
						</rate>
						<rate>
							<timebase>59</timebase>
							<ntsc>TRUE</ntsc>
						</rate>
						<duration>66</duration>
						<start>22269</start>
						<end>22335</end>
						<in>0</in>
						<out>66</out>
					</clipitem>
					<clipitem frameBlend="FALSE" id="clipitem-telop-2643">
						<file id="file-2"/>
						<name>！</name>
						<rate>
							<timebase>59</timebase>
							<ntsc>TRUE</ntsc>
						</rate>
						<rate>
							<timebase>59</timebase>
							<ntsc>TRUE</ntsc>
						</rate>
						<duration>66</duration>
						<start>22347</start>
						<end>22413</end>
						<in>0</in>
						<out>66</out>
					</clipitem>
					<clipitem frameBlend="FALSE" id="clipitem-telop-2647">
						<file id="file-2"/>
						<name>！</name>
						<rate>
							<timebase>59</timebase>
							<ntsc>TRUE</ntsc>
						</rate>
						<rate>
							<timebase>59</timebase>
							<ntsc>TRUE</ntsc>
						</rate>
						<duration>60</duration>
						<start>22419</start>
						<end>22479</end>
						<in>0</in>
						<out>60</out>
					</clipitem>
					<clipitem frameBlend="FALSE" id="clipitem-telop-2660">
						<file id="file-2"/>
						<name>！</name>
						<rate>
							<timebase>59</timebase>
							<ntsc>TRUE</ntsc>
						</rate>
						<rate>
							<timebase>59</timebase>
							<ntsc>TRUE</ntsc>
						</rate>
						<duration>60</duration>
						<start>22479</start>
						<end>22539</end>
						<in>0</in>
						<out>60</out>
					</clipitem>
					<clipitem frameBlend="FALSE" id="clipitem-telop-2667">
						<file id="file-2"/>
						<name>！</name>
						<rate>
							<timebase>59</timebase>
							<ntsc>TRUE</ntsc>
						</rate>
						<rate>
							<timebase>59</timebase>
							<ntsc>TRUE</ntsc>
						</rate>
						<duration>66</duration>
						<start>22545</start>
						<end>22611</end>
						<in>0</in>
						<out>66</out>
					</clipitem>
					<clipitem frameBlend="FALSE" id="clipitem-telop-2675">
						<file id="file-2"/>
						<name>これで満足ですか?</name>
						<rate>
							<timebase>59</timebase>
							<ntsc>TRUE</ntsc>
						</rate>
						<rate>
							<timebase>59</timebase>
							<ntsc>TRUE</ntsc>
						</rate>
						<duration>60</duration>
						<start>22611</start>
						<end>22671</end>
						<in>0</in>
						<out>60</out>
					</clipitem>
					<clipitem frameBlend="FALSE" id="clipitem-telop-2682">
						<file id="file-2"/>
						<name>あっちうるさい</name>
						<rate>
							<timebase>59</timebase>
							<ntsc>TRUE</ntsc>
						</rate>
						<rate>
							<timebase>59</timebase>
							<ntsc>TRUE</ntsc>
						</rate>
						<duration>60</duration>
						<start>22671</start>
						<end>22731</end>
						<in>0</in>
						<out>60</out>
					</clipitem>
					<clipitem frameBlend="FALSE" id="clipitem-telop-2690">
						<file id="file-2"/>
						<name>！</name>
						<rate>
							<timebase>59</timebase>
							<ntsc>TRUE</ntsc>
						</rate>
						<rate>
							<timebase>59</timebase>
							<ntsc>TRUE</ntsc>
						</rate>
						<duration>60</duration>
						<start>22731</start>
						<end>22791</end>
						<in>0</in>
						<out>60</out>
					</clipitem>
					<clipitem frameBlend="FALSE" id="clipitem-telop-2699">
						<file id="file-2"/>
						<name>！</name>
						<rate>
							<timebase>59</timebase>
							<ntsc>TRUE</ntsc>
						</rate>
						<rate>
							<timebase>59</timebase>
							<ntsc>TRUE</ntsc>
						</rate>
						<duration>60</duration>
						<start>22791</start>
						<end>22851</end>
						<in>0</in>
						<out>60</out>
					</clipitem>
					<clipitem frameBlend="FALSE" id="clipitem-telop-2708">
						<file id="file-2"/>
						<name>！</name>
						<rate>
							<timebase>59</timebase>
							<ntsc>TRUE</ntsc>
						</rate>
						<rate>
							<timebase>59</timebase>
							<ntsc>TRUE</ntsc>
						</rate>
						<duration>60</duration>
						<start>22857</start>
						<end>22917</end>
						<in>0</in>
						<out>60</out>
					</clipitem>
					<clipitem frameBlend="FALSE" id="clipitem-telop-2713">
						<file id="file-2"/>
						<name>！</name>
						<rate>
							<timebase>59</timebase>
							<ntsc>TRUE</ntsc>
						</rate>
						<rate>
							<timebase>59</timebase>
							<ntsc>TRUE</ntsc>
						</rate>
						<duration>60</duration>
						<start>22923</start>
						<end>22983</end>
						<in>0</in>
						<out>60</out>
					</clipitem>
					<clipitem frameBlend="FALSE" id="clipitem-telop-2725">
						<file id="file-2"/>
						<name>！</name>
						<rate>
							<timebase>59</timebase>
							<ntsc>TRUE</ntsc>
						</rate>
						<rate>
							<timebase>59</timebase>
							<ntsc>TRUE</ntsc>
						</rate>
						<duration>60</duration>
						<start>22983</start>
						<end>23043</end>
						<in>0</in>
						<out>60</out>
					</clipitem>
					<clipitem frameBlend="FALSE" id="clipitem-telop-2732">
						<file id="file-2"/>
						<name>！</name>
						<rate>
							<timebase>59</timebase>
							<ntsc>TRUE</ntsc>
						</rate>
						<rate>
							<timebase>59</timebase>
							<ntsc>TRUE</ntsc>
						</rate>
						<duration>60</duration>
						<start>23049</start>
						<end>23109</end>
						<in>0</in>
						<out>60</out>
					</clipitem>
					<clipitem frameBlend="FALSE" id="clipitem-telop-2739">
						<file id="file-2"/>
						<name>！</name>
						<rate>
							<timebase>59</timebase>
							<ntsc>TRUE</ntsc>
						</rate>
						<rate>
							<timebase>59</timebase>
							<ntsc>TRUE</ntsc>
						</rate>
						<duration>60</duration>
						<start>23109</start>
						<end>23169</end>
						<in>0</in>
						<out>60</out>
					</clipitem>
					<clipitem frameBlend="FALSE" id="clipitem-telop-2746">
						<file id="file-2"/>
						<name>！</name>
						<rate>
							<timebase>59</timebase>
							<ntsc>TRUE</ntsc>
						</rate>
						<rate>
							<timebase>59</timebase>
							<ntsc>TRUE</ntsc>
						</rate>
						<duration>60</duration>
						<start>23175</start>
						<end>23235</end>
						<in>0</in>
						<out>60</out>
					</clipitem>
					<clipitem frameBlend="FALSE" id="clipitem-telop-2757">
						<file id="file-2"/>
						<name>！</name>
						<rate>
							<timebase>59</timebase>
							<ntsc>TRUE</ntsc>
						</rate>
						<rate>
							<timebase>59</timebase>
							<ntsc>TRUE</ntsc>
						</rate>
						<duration>60</duration>
						<start>23235</start>
						<end>23295</end>
						<in>0</in>
						<out>60</out>
					</clipitem>
					<clipitem frameBlend="FALSE" id="clipitem-telop-2764">
						<file id="file-2"/>
						<name>w</name>
						<rate>
							<timebase>59</timebase>
							<ntsc>TRUE</ntsc>
						</rate>
						<rate>
							<timebase>59</timebase>
							<ntsc>TRUE</ntsc>
						</rate>
						<duration>30</duration>
						<start>23301</start>
						<end>23331</end>
						<in>0</in>
						<out>30</out>
					</clipitem>
					<clipitem frameBlend="FALSE" id="clipitem-telop-2770">
						<file id="file-2"/>
						<name>w</name>
						<rate>
							<timebase>59</timebase>
							<ntsc>TRUE</ntsc>
						</rate>
						<rate>
							<timebase>59</timebase>
							<ntsc>TRUE</ntsc>
						</rate>
						<duration>24</duration>
						<start>23331</start>
						<end>23355</end>
						<in>0</in>
						<out>24</out>
					</clipitem>
					<clipitem frameBlend="FALSE" id="clipitem-telop-2775">
						<file id="file-2"/>
						<name>！</name>
						<rate>
							<timebase>59</timebase>
							<ntsc>TRUE</ntsc>
						</rate>
						<rate>
							<timebase>59</timebase>
							<ntsc>TRUE</ntsc>
						</rate>
						<duration>66</duration>
						<start>23355</start>
						<end>23421</end>
						<in>0</in>
						<out>66</out>
					</clipitem>
					<clipitem frameBlend="FALSE" id="clipitem-telop-2785">
						<file id="file-2"/>
						<name>！</name>
						<rate>
							<timebase>59</timebase>
							<ntsc>TRUE</ntsc>
						</rate>
						<rate>
							<timebase>59</timebase>
							<ntsc>TRUE</ntsc>
						</rate>
						<duration>66</duration>
						<start>23421</start>
						<end>23487</end>
						<in>0</in>
						<out>66</out>
					</clipitem>
					<clipitem frameBlend="FALSE" id="clipitem-telop-2796">
						<file id="file-2"/>
						<name>！</name>
						<rate>
							<timebase>59</timebase>
							<ntsc>TRUE</ntsc>
						</rate>
						<rate>
							<timebase>59</timebase>
							<ntsc>TRUE</ntsc>
						</rate>
						<duration>60</duration>
						<start>23505</start>
						<end>23565</end>
						<in>0</in>
						<out>60</out>
					</clipitem>
					<clipitem frameBlend="FALSE" id="clipitem-telop-2803">
						<file id="file-2"/>
						<name>！</name>
						<rate>
							<timebase>59</timebase>
							<ntsc>TRUE</ntsc>
						</rate>
						<rate>
							<timebase>59</timebase>
							<ntsc>TRUE</ntsc>
						</rate>
						<duration>60</duration>
						<start>23565</start>
						<end>23625</end>
						<in>0</in>
						<out>60</out>
					</clipitem>
					<clipitem frameBlend="FALSE" id="clipitem-telop-2808">
						<file id="file-2"/>
						<name>！</name>
						<rate>
							<timebase>59</timebase>
							<ntsc>TRUE</ntsc>
						</rate>
						<rate>
							<timebase>59</timebase>
							<ntsc>TRUE</ntsc>
						</rate>
						<duration>60</duration>
						<start>23625</start>
						<end>23685</end>
						<in>0</in>
						<out>60</out>
					</clipitem>
					<clipitem frameBlend="FALSE" id="clipitem-telop-2821">
						<file id="file-2"/>
						<name>！</name>
						<rate>
							<timebase>59</timebase>
							<ntsc>TRUE</ntsc>
						</rate>
						<rate>
							<timebase>59</timebase>
							<ntsc>TRUE</ntsc>
						</rate>
						<duration>66</duration>
						<start>23709</start>
						<end>23775</end>
						<in>0</in>
						<out>66</out>
					</clipitem>
					<clipitem frameBlend="FALSE" id="clipitem-telop-2832">
						<file id="file-2"/>
						<name>！</name>
						<rate>
							<timebase>59</timebase>
							<ntsc>TRUE</ntsc>
						</rate>
						<rate>
							<timebase>59</timebase>
							<ntsc>TRUE</ntsc>
						</rate>
						<duration>60</duration>
						<start>23775</start>
						<end>23835</end>
						<in>0</in>
						<out>60</out>
					</clipitem>
					<clipitem frameBlend="FALSE" id="clipitem-telop-2843">
						<file id="file-2"/>
						<name>！</name>
						<rate>
							<timebase>59</timebase>
							<ntsc>TRUE</ntsc>
						</rate>
						<rate>
							<timebase>59</timebase>
							<ntsc>TRUE</ntsc>
						</rate>
						<duration>66</duration>
						<start>23835</start>
						<end>23901</end>
						<in>0</in>
						<out>66</out>
					</clipitem>
					<clipitem frameBlend="FALSE" id="clipitem-telop-2861">
						<file id="file-2"/>
						<name>！</name>
						<rate>
							<timebase>59</timebase>
							<ntsc>TRUE</ntsc>
						</rate>
						<rate>
							<timebase>59</timebase>
							<ntsc>TRUE</ntsc>
						</rate>
						<duration>60</duration>
						<start>23949</start>
						<end>24009</end>
						<in>0</in>
						<out>60</out>
					</clipitem>
					<clipitem frameBlend="FALSE" id="clipitem-telop-2869">
						<file id="file-2"/>
						<name>！</name>
						<rate>
							<timebase>59</timebase>
							<ntsc>TRUE</ntsc>
						</rate>
						<rate>
							<timebase>59</timebase>
							<ntsc>TRUE</ntsc>
						</rate>
						<duration>60</duration>
						<start>24015</start>
						<end>24075</end>
						<in>0</in>
						<out>60</out>
					</clipitem>
					<clipitem frameBlend="FALSE" id="clipitem-telop-2879">
						<file id="file-2"/>
						<name>w</name>
						<rate>
							<timebase>59</timebase>
							<ntsc>TRUE</ntsc>
						</rate>
						<rate>
							<timebase>59</timebase>
							<ntsc>TRUE</ntsc>
						</rate>
						<duration>30</duration>
						<start>24081</start>
						<end>24111</end>
						<in>0</in>
						<out>30</out>
					</clipitem>
					<clipitem frameBlend="FALSE" id="clipitem-telop-2887">
						<file id="file-2"/>
						<name>！</name>
						<rate>
							<timebase>59</timebase>
							<ntsc>TRUE</ntsc>
						</rate>
						<rate>
							<timebase>59</timebase>
							<ntsc>TRUE</ntsc>
						</rate>
						<duration>66</duration>
						<start>24117</start>
						<end>24183</end>
						<in>0</in>
						<out>66</out>
					</clipitem>
					<clipitem frameBlend="FALSE" id="clipitem-telop-2900">
						<file id="file-2"/>
						<name>！</name>
						<rate>
							<timebase>59</timebase>
							<ntsc>TRUE</ntsc>
						</rate>
						<rate>
							<timebase>59</timebase>
							<ntsc>TRUE</ntsc>
						</rate>
						<duration>60</duration>
						<start>24195</start>
						<end>24255</end>
						<in>0</in>
						<out>60</out>
					</clipitem>
					<clipitem frameBlend="FALSE" id="clipitem-telop-2913">
						<file id="file-2"/>
						<name>！</name>
						<rate>
							<timebase>59</timebase>
							<ntsc>TRUE</ntsc>
						</rate>
						<rate>
							<timebase>59</timebase>
							<ntsc>TRUE</ntsc>
						</rate>
						<duration>60</duration>
						<start>24267</start>
						<end>24327</end>
						<in>0</in>
						<out>60</out>
					</clipitem>
					<clipitem frameBlend="FALSE" id="clipitem-telop-2921">
						<file id="file-2"/>
						<name>！</name>
						<rate>
							<timebase>59</timebase>
							<ntsc>TRUE</ntsc>
						</rate>
						<rate>
							<timebase>59</timebase>
							<ntsc>TRUE</ntsc>
						</rate>
						<duration>66</duration>
						<start>24327</start>
						<end>24393</end>
						<in>0</in>
						<out>66</out>
					</clipitem>
					<clipitem frameBlend="FALSE" id="clipitem-telop-2930">
						<file id="file-2"/>
						<name>！</name>
						<rate>
							<timebase>59</timebase>
							<ntsc>TRUE</ntsc>
						</rate>
						<rate>
							<timebase>59</timebase>
							<ntsc>TRUE</ntsc>
						</rate>
						<duration>60</duration>
						<start>24393</start>
						<end>24453</end>
						<in>0</in>
						<out>60</out>
					</clipitem>
					<clipitem frameBlend="FALSE" id="clipitem-telop-2936">
						<file id="file-2"/>
						<name>！</name>
						<rate>
							<timebase>59</timebase>
							<ntsc>TRUE</ntsc>
						</rate>
						<rate>
							<timebase>59</timebase>
							<ntsc>TRUE</ntsc>
						</rate>
						<duration>60</duration>
						<start>24453</start>
						<end>24513</end>
						<in>0</in>
						<out>60</out>
					</clipitem>
					<clipitem frameBlend="FALSE" id="clipitem-telop-2945">
						<file id="file-2"/>
						<name>！</name>
						<rate>
							<timebase>59</timebase>
							<ntsc>TRUE</ntsc>
						</rate>
						<rate>
							<timebase>59</timebase>
							<ntsc>TRUE</ntsc>
						</rate>
						<duration>24</duration>
						<start>24513</start>
						<end>24537</end>
						<in>0</in>
						<out>24</out>
					</clipitem>
				</track>
				<track>
					<clipitem frameBlend="FALSE" id="clipitem-telop-4">
						<file id="file-2"/>
						<name>！</name>
						<rate>
							<timebase>59</timebase>
							<ntsc>TRUE</ntsc>
						</rate>
						<rate>
							<timebase>59</timebase>
							<ntsc>TRUE</ntsc>
						</rate>
						<duration>66</duration>
						<start>29</start>
						<end>95</end>
						<in>0</in>
						<out>66</out>
					</clipitem>
					<clipitem frameBlend="FALSE" id="clipitem-telop-14">
						<file id="file-2"/>
						<name>！</name>
						<rate>
							<timebase>59</timebase>
							<ntsc>TRUE</ntsc>
						</rate>
						<rate>
							<timebase>59</timebase>
							<ntsc>TRUE</ntsc>
						</rate>
						<duration>60</duration>
						<start>95</start>
						<end>155</end>
						<in>0</in>
						<out>60</out>
					</clipitem>
					<clipitem frameBlend="FALSE" id="clipitem-telop-19">
						<file id="file-2"/>
						<name>！</name>
						<rate>
							<timebase>59</timebase>
							<ntsc>TRUE</ntsc>
						</rate>
						<rate>
							<timebase>59</timebase>
							<ntsc>TRUE</ntsc>
						</rate>
						<duration>60</duration>
						<start>155</start>
						<end>215</end>
						<in>0</in>
						<out>60</out>
					</clipitem>
					<clipitem frameBlend="FALSE" id="clipitem-telop-26">
						<file id="file-2"/>
						<name>！</name>
						<rate>
							<timebase>59</timebase>
							<ntsc>TRUE</ntsc>
						</rate>
						<rate>
							<timebase>59</timebase>
							<ntsc>TRUE</ntsc>
						</rate>
						<duration>66</duration>
						<start>227</start>
						<end>293</end>
						<in>0</in>
						<out>66</out>
					</clipitem>
					<clipitem frameBlend="FALSE" id="clipitem-telop-33">
						<file id="file-2"/>
						<name>！</name>
						<rate>
							<timebase>59</timebase>
							<ntsc>TRUE</ntsc>
						</rate>
						<rate>
							<timebase>59</timebase>
							<ntsc>TRUE</ntsc>
						</rate>
						<duration>60</duration>
						<start>299</start>
						<end>359</end>
						<in>0</in>
						<out>60</out>
					</clipitem>
					<clipitem frameBlend="FALSE" id="clipitem-telop-41">
						<file id="file-2"/>
						<name>！</name>
						<rate>
							<timebase>59</timebase>
							<ntsc>TRUE</ntsc>
						</rate>
						<rate>
							<timebase>59</timebase>
							<ntsc>TRUE</ntsc>
						</rate>
						<duration>66</duration>
						<start>365</start>
						<end>431</end>
						<in>0</in>
						<out>66</out>
					</clipitem>
					<clipitem frameBlend="FALSE" id="clipitem-telop-50">
						<file id="file-2"/>
						<name>！</name>
						<rate>
							<timebase>59</timebase>
							<ntsc>TRUE</ntsc>
						</rate>
						<rate>
							<timebase>59</timebase>
							<ntsc>TRUE</ntsc>
						</rate>
						<duration>60</duration>
						<start>431</start>
						<end>491</end>
						<in>0</in>
						<out>60</out>
					</clipitem>
					<clipitem frameBlend="FALSE" id="clipitem-telop-54">
						<file id="file-2"/>
						<name>！</name>
						<rate>
							<timebase>59</timebase>
							<ntsc>TRUE</ntsc>
						</rate>
						<rate>
							<timebase>59</timebase>
							<ntsc>TRUE</ntsc>
						</rate>
						<duration>60</duration>
						<start>503</start>
						<end>563</end>
						<in>0</in>
						<out>60</out>
					</clipitem>
					<clipitem frameBlend="FALSE" id="clipitem-telop-66">
						<file id="file-2"/>
						<name>！</name>
						<rate>
							<timebase>59</timebase>
							<ntsc>TRUE</ntsc>
						</rate>
						<rate>
							<timebase>59</timebase>
							<ntsc>TRUE</ntsc>
						</rate>
						<duration>60</duration>
						<start>569</start>
						<end>629</end>
						<in>0</in>
						<out>60</out>
					</clipitem>
					<clipitem frameBlend="FALSE" id="clipitem-telop-73">
						<file id="file-2"/>
						<name>！</name>
						<rate>
							<timebase>59</timebase>
							<ntsc>TRUE</ntsc>
						</rate>
						<rate>
							<timebase>59</timebase>
							<ntsc>TRUE</ntsc>
						</rate>
						<duration>60</duration>
						<start>629</start>
						<end>689</end>
						<in>0</in>
						<out>60</out>
					</clipitem>
					<clipitem frameBlend="FALSE" id="clipitem-telop-79">
						<file id="file-2"/>
						<name>！</name>
						<rate>
							<timebase>59</timebase>
							<ntsc>TRUE</ntsc>
						</rate>
						<rate>
							<timebase>59</timebase>
							<ntsc>TRUE</ntsc>
						</rate>
						<duration>66</duration>
						<start>707</start>
						<end>773</end>
						<in>0</in>
						<out>66</out>
					</clipitem>
					<clipitem frameBlend="FALSE" id="clipitem-telop-88">
						<file id="file-2"/>
						<name>！</name>
						<rate>
							<timebase>59</timebase>
							<ntsc>TRUE</ntsc>
						</rate>
						<rate>
							<timebase>59</timebase>
							<ntsc>TRUE</ntsc>
						</rate>
						<duration>60</duration>
						<start>779</start>
						<end>839</end>
						<in>0</in>
						<out>60</out>
					</clipitem>
					<clipitem frameBlend="FALSE" id="clipitem-telop-98">
						<file id="file-2"/>
						<name>！</name>
						<rate>
							<timebase>59</timebase>
							<ntsc>TRUE</ntsc>
						</rate>
						<rate>
							<timebase>59</timebase>
							<ntsc>TRUE</ntsc>
						</rate>
						<duration>60</duration>
						<start>881</start>
						<end>941</end>
						<in>0</in>
						<out>60</out>
					</clipitem>
					<clipitem frameBlend="FALSE" id="clipitem-telop-106">
						<file id="file-2"/>
						<name>！</name>
						<rate>
							<timebase>59</timebase>
							<ntsc>TRUE</ntsc>
						</rate>
						<rate>
							<timebase>59</timebase>
							<ntsc>TRUE</ntsc>
						</rate>
						<duration>60</duration>
						<start>947</start>
						<end>1007</end>
						<in>0</in>
						<out>60</out>
					</clipitem>
					<clipitem frameBlend="FALSE" id="clipitem-telop-118">
						<file id="file-2"/>
						<name>！</name>
						<rate>
							<timebase>59</timebase>
							<ntsc>TRUE</ntsc>
						</rate>
						<rate>
							<timebase>59</timebase>
							<ntsc>TRUE</ntsc>
						</rate>
						<duration>60</duration>
						<start>1049</start>
						<end>1109</end>
						<in>0</in>
						<out>60</out>
					</clipitem>
					<clipitem frameBlend="FALSE" id="clipitem-telop-125">
						<file id="file-2"/>
						<name>！</name>
						<rate>
							<timebase>59</timebase>
							<ntsc>TRUE</ntsc>
						</rate>
						<rate>
							<timebase>59</timebase>
							<ntsc>TRUE</ntsc>
						</rate>
						<duration>60</duration>
						<start>1115</start>
						<end>1175</end>
						<in>0</in>
						<out>60</out>
					</clipitem>
					<clipitem frameBlend="FALSE" id="clipitem-telop-130">
						<file id="file-2"/>
						<name>！</name>
						<rate>
							<timebase>59</timebase>
							<ntsc>TRUE</ntsc>
						</rate>
						<rate>
							<timebase>59</timebase>
							<ntsc>TRUE</ntsc>
						</rate>
						<duration>66</duration>
						<start>1175</start>
						<end>1241</end>
						<in>0</in>
						<out>66</out>
					</clipitem>
					<clipitem frameBlend="FALSE" id="clipitem-telop-138">
						<file id="file-2"/>
						<name>！</name>
						<rate>
							<timebase>59</timebase>
							<ntsc>TRUE</ntsc>
						</rate>
						<rate>
							<timebase>59</timebase>
							<ntsc>TRUE</ntsc>
						</rate>
						<duration>60</duration>
						<start>1241</start>
						<end>1301</end>
						<in>0</in>
						<out>60</out>
					</clipitem>
					<clipitem frameBlend="FALSE" id="clipitem-telop-143">
						<file id="file-2"/>
						<name>！</name>
						<rate>
							<timebase>59</timebase>
							<ntsc>TRUE</ntsc>
						</rate>
						<rate>
							<timebase>59</timebase>
							<ntsc>TRUE</ntsc>
						</rate>
						<duration>60</duration>
						<start>1301</start>
						<end>1361</end>
						<in>0</in>
						<out>60</out>
					</clipitem>
					<clipitem frameBlend="FALSE" id="clipitem-telop-149">
						<file id="file-2"/>
						<name>！</name>
						<rate>
							<timebase>59</timebase>
							<ntsc>TRUE</ntsc>
						</rate>
						<rate>
							<timebase>59</timebase>
							<ntsc>TRUE</ntsc>
						</rate>
						<duration>60</duration>
						<start>1361</start>
						<end>1421</end>
						<in>0</in>
						<out>60</out>
					</clipitem>
					<clipitem frameBlend="FALSE" id="clipitem-telop-156">
						<file id="file-2"/>
						<name>！</name>
						<rate>
							<timebase>59</timebase>
							<ntsc>TRUE</ntsc>
						</rate>
						<rate>
							<timebase>59</timebase>
							<ntsc>TRUE</ntsc>
						</rate>
						<duration>60</duration>
						<start>1445</start>
						<end>1505</end>
						<in>0</in>
						<out>60</out>
					</clipitem>
					<clipitem frameBlend="FALSE" id="clipitem-telop-168">
						<file id="file-2"/>
						<name>！</name>
						<rate>
							<timebase>59</timebase>
							<ntsc>TRUE</ntsc>
						</rate>
						<rate>
							<timebase>59</timebase>
							<ntsc>TRUE</ntsc>
						</rate>
						<duration>60</duration>
						<start>1505</start>
						<end>1565</end>
						<in>0</in>
						<out>60</out>
					</clipitem>
					<clipitem frameBlend="FALSE" id="clipitem-telop-173">
						<file id="file-2"/>
						<name>！</name>
						<rate>
							<timebase>59</timebase>
							<ntsc>TRUE</ntsc>
						</rate>
						<rate>
							<timebase>59</timebase>
							<ntsc>TRUE</ntsc>
						</rate>
						<duration>60</duration>
						<start>1571</start>
						<end>1631</end>
						<in>0</in>
						<out>60</out>
					</clipitem>
					<clipitem frameBlend="FALSE" id="clipitem-telop-182">
						<file id="file-2"/>
						<name>！</name>
						<rate>
							<timebase>59</timebase>
							<ntsc>TRUE</ntsc>
						</rate>
						<rate>
							<timebase>59</timebase>
							<ntsc>TRUE</ntsc>
						</rate>
						<duration>60</duration>
						<start>1631</start>
						<end>1691</end>
						<in>0</in>
						<out>60</out>
					</clipitem>
					<clipitem frameBlend="FALSE" id="clipitem-telop-190">
						<file id="file-2"/>
						<name>！</name>
						<rate>
							<timebase>59</timebase>
							<ntsc>TRUE</ntsc>
						</rate>
						<rate>
							<timebase>59</timebase>
							<ntsc>TRUE</ntsc>
						</rate>
						<duration>66</duration>
						<start>1697</start>
						<end>1763</end>
						<in>0</in>
						<out>66</out>
					</clipitem>
					<clipitem frameBlend="FALSE" id="clipitem-telop-199">
						<file id="file-2"/>
						<name>！</name>
						<rate>
							<timebase>59</timebase>
							<ntsc>TRUE</ntsc>
						</rate>
						<rate>
							<timebase>59</timebase>
							<ntsc>TRUE</ntsc>
						</rate>
						<duration>60</duration>
						<start>1769</start>
						<end>1829</end>
						<in>0</in>
						<out>60</out>
					</clipitem>
					<clipitem frameBlend="FALSE" id="clipitem-telop-208">
						<file id="file-2"/>
						<name>！</name>
						<rate>
							<timebase>59</timebase>
							<ntsc>TRUE</ntsc>
						</rate>
						<rate>
							<timebase>59</timebase>
							<ntsc>TRUE</ntsc>
						</rate>
						<duration>60</duration>
						<start>1841</start>
						<end>1901</end>
						<in>0</in>
						<out>60</out>
					</clipitem>
					<clipitem frameBlend="FALSE" id="clipitem-telop-219">
						<file id="file-2"/>
						<name>！</name>
						<rate>
							<timebase>59</timebase>
							<ntsc>TRUE</ntsc>
						</rate>
						<rate>
							<timebase>59</timebase>
							<ntsc>TRUE</ntsc>
						</rate>
						<duration>66</duration>
						<start>1937</start>
						<end>2003</end>
						<in>0</in>
						<out>66</out>
					</clipitem>
					<clipitem frameBlend="FALSE" id="clipitem-telop-230">
						<file id="file-2"/>
						<name>！</name>
						<rate>
							<timebase>59</timebase>
							<ntsc>TRUE</ntsc>
						</rate>
						<rate>
							<timebase>59</timebase>
							<ntsc>TRUE</ntsc>
						</rate>
						<duration>60</duration>
						<start>2009</start>
						<end>2069</end>
						<in>0</in>
						<out>60</out>
					</clipitem>
					<clipitem frameBlend="FALSE" id="clipitem-telop-242">
						<file id="file-2"/>
						<name>！</name>
						<rate>
							<timebase>59</timebase>
							<ntsc>TRUE</ntsc>
						</rate>
						<rate>
							<timebase>59</timebase>
							<ntsc>TRUE</ntsc>
						</rate>
						<duration>60</duration>
						<start>2069</start>
						<end>2129</end>
						<in>0</in>
						<out>60</out>
					</clipitem>
					<clipitem frameBlend="FALSE" id="clipitem-telop-247">
						<file id="file-2"/>
						<name>！</name>
						<rate>
							<timebase>59</timebase>
							<ntsc>TRUE</ntsc>
						</rate>
						<rate>
							<timebase>59</timebase>
							<ntsc>TRUE</ntsc>
						</rate>
						<duration>60</duration>
						<start>2129</start>
						<end>2189</end>
						<in>0</in>
						<out>60</out>
					</clipitem>
					<clipitem frameBlend="FALSE" id="clipitem-telop-255">
						<file id="file-2"/>
						<name>！</name>
						<rate>
							<timebase>59</timebase>
							<ntsc>TRUE</ntsc>
						</rate>
						<rate>
							<timebase>59</timebase>
							<ntsc>TRUE</ntsc>
						</rate>
						<duration>60</duration>
						<start>2189</start>
						<end>2249</end>
						<in>0</in>
						<out>60</out>
					</clipitem>
					<clipitem frameBlend="FALSE" id="clipitem-telop-263">
						<file id="file-2"/>
						<name>！</name>
						<rate>
							<timebase>59</timebase>
							<ntsc>TRUE</ntsc>
						</rate>
						<rate>
							<timebase>59</timebase>
							<ntsc>TRUE</ntsc>
						</rate>
						<duration>60</duration>
						<start>2249</start>
						<end>2309</end>
						<in>0</in>
						<out>60</out>
					</clipitem>
					<clipitem frameBlend="FALSE" id="clipitem-telop-271">
						<file id="file-2"/>
						<name>！</name>
						<rate>
							<timebase>59</timebase>
							<ntsc>TRUE</ntsc>
						</rate>
						<rate>
							<timebase>59</timebase>
							<ntsc>TRUE</ntsc>
						</rate>
						<duration>60</duration>
						<start>2321</start>
						<end>2381</end>
						<in>0</in>
						<out>60</out>
					</clipitem>
					<clipitem frameBlend="FALSE" id="clipitem-telop-276">
						<file id="file-2"/>
						<name>！</name>
						<rate>
							<timebase>59</timebase>
							<ntsc>TRUE</ntsc>
						</rate>
						<rate>
							<timebase>59</timebase>
							<ntsc>TRUE</ntsc>
						</rate>
						<duration>60</duration>
						<start>2381</start>
						<end>2441</end>
						<in>0</in>
						<out>60</out>
					</clipitem>
					<clipitem frameBlend="FALSE" id="clipitem-telop-282">
						<file id="file-2"/>
						<name>！</name>
						<rate>
							<timebase>59</timebase>
							<ntsc>TRUE</ntsc>
						</rate>
						<rate>
							<timebase>59</timebase>
							<ntsc>TRUE</ntsc>
						</rate>
						<duration>60</duration>
						<start>2459</start>
						<end>2519</end>
						<in>0</in>
						<out>60</out>
					</clipitem>
					<clipitem frameBlend="FALSE" id="clipitem-telop-291">
						<file id="file-2"/>
						<name>！</name>
						<rate>
							<timebase>59</timebase>
							<ntsc>TRUE</ntsc>
						</rate>
						<rate>
							<timebase>59</timebase>
							<ntsc>TRUE</ntsc>
						</rate>
						<duration>66</duration>
						<start>2519</start>
						<end>2585</end>
						<in>0</in>
						<out>66</out>
					</clipitem>
					<clipitem frameBlend="FALSE" id="clipitem-telop-297">
						<file id="file-2"/>
						<name>！</name>
						<rate>
							<timebase>59</timebase>
							<ntsc>TRUE</ntsc>
						</rate>
						<rate>
							<timebase>59</timebase>
							<ntsc>TRUE</ntsc>
						</rate>
						<duration>60</duration>
						<start>2591</start>
						<end>2651</end>
						<in>0</in>
						<out>60</out>
					</clipitem>
					<clipitem frameBlend="FALSE" id="clipitem-telop-306">
						<file id="file-2"/>
						<name>！</name>
						<rate>
							<timebase>59</timebase>
							<ntsc>TRUE</ntsc>
						</rate>
						<rate>
							<timebase>59</timebase>
							<ntsc>TRUE</ntsc>
						</rate>
						<duration>60</duration>
						<start>2675</start>
						<end>2735</end>
						<in>0</in>
						<out>60</out>
					</clipitem>
					<clipitem frameBlend="FALSE" id="clipitem-telop-315">
						<file id="file-2"/>
						<name>！</name>
						<rate>
							<timebase>59</timebase>
							<ntsc>TRUE</ntsc>
						</rate>
						<rate>
							<timebase>59</timebase>
							<ntsc>TRUE</ntsc>
						</rate>
						<duration>66</duration>
						<start>2741</start>
						<end>2807</end>
						<in>0</in>
						<out>66</out>
					</clipitem>
					<clipitem frameBlend="FALSE" id="clipitem-telop-326">
						<file id="file-2"/>
						<name>！</name>
						<rate>
							<timebase>59</timebase>
							<ntsc>TRUE</ntsc>
						</rate>
						<rate>
							<timebase>59</timebase>
							<ntsc>TRUE</ntsc>
						</rate>
						<duration>60</duration>
						<start>2849</start>
						<end>2909</end>
						<in>0</in>
						<out>60</out>
					</clipitem>
					<clipitem frameBlend="FALSE" id="clipitem-telop-333">
						<file id="file-2"/>
						<name>！</name>
						<rate>
							<timebase>59</timebase>
							<ntsc>TRUE</ntsc>
						</rate>
						<rate>
							<timebase>59</timebase>
							<ntsc>TRUE</ntsc>
						</rate>
						<duration>60</duration>
						<start>2939</start>
						<end>2999</end>
						<in>0</in>
						<out>60</out>
					</clipitem>
					<clipitem frameBlend="FALSE" id="clipitem-telop-344">
						<file id="file-2"/>
						<name>！</name>
						<rate>
							<timebase>59</timebase>
							<ntsc>TRUE</ntsc>
						</rate>
						<rate>
							<timebase>59</timebase>
							<ntsc>TRUE</ntsc>
						</rate>
						<duration>60</duration>
						<start>2999</start>
						<end>3059</end>
						<in>0</in>
						<out>60</out>
					</clipitem>
					<clipitem frameBlend="FALSE" id="clipitem-telop-352">
						<file id="file-2"/>
						<name>！</name>
						<rate>
							<timebase>59</timebase>
							<ntsc>TRUE</ntsc>
						</rate>
						<rate>
							<timebase>59</timebase>
							<ntsc>TRUE</ntsc>
						</rate>
						<duration>60</duration>
						<start>3059</start>
						<end>3119</end>
						<in>0</in>
						<out>60</out>
					</clipitem>
					<clipitem frameBlend="FALSE" id="clipitem-telop-359">
						<file id="file-2"/>
						<name>！</name>
						<rate>
							<timebase>59</timebase>
							<ntsc>TRUE</ntsc>
						</rate>
						<rate>
							<timebase>59</timebase>
							<ntsc>TRUE</ntsc>
						</rate>
						<duration>60</duration>
						<start>3131</start>
						<end>3191</end>
						<in>0</in>
						<out>60</out>
					</clipitem>
					<clipitem frameBlend="FALSE" id="clipitem-telop-364">
						<file id="file-2"/>
						<name>！</name>
						<rate>
							<timebase>59</timebase>
							<ntsc>TRUE</ntsc>
						</rate>
						<rate>
							<timebase>59</timebase>
							<ntsc>TRUE</ntsc>
						</rate>
						<duration>60</duration>
						<start>3215</start>
						<end>3275</end>
						<in>0</in>
						<out>60</out>
					</clipitem>
					<clipitem frameBlend="FALSE" id="clipitem-telop-375">
						<file id="file-2"/>
						<name>！</name>
						<rate>
							<timebase>59</timebase>
							<ntsc>TRUE</ntsc>
						</rate>
						<rate>
							<timebase>59</timebase>
							<ntsc>TRUE</ntsc>
						</rate>
						<duration>60</duration>
						<start>3281</start>
						<end>3341</end>
						<in>0</in>
						<out>60</out>
					</clipitem>
					<clipitem frameBlend="FALSE" id="clipitem-telop-389">
						<file id="file-2"/>
						<name>！</name>
						<rate>
							<timebase>59</timebase>
							<ntsc>TRUE</ntsc>
						</rate>
						<rate>
							<timebase>59</timebase>
							<ntsc>TRUE</ntsc>
						</rate>
						<duration>60</duration>
						<start>3341</start>
						<end>3401</end>
						<in>0</in>
						<out>60</out>
					</clipitem>
					<clipitem frameBlend="FALSE" id="clipitem-telop-401">
						<file id="file-2"/>
						<name>！</name>
						<rate>
							<timebase>59</timebase>
							<ntsc>TRUE</ntsc>
						</rate>
						<rate>
							<timebase>59</timebase>
							<ntsc>TRUE</ntsc>
						</rate>
						<duration>60</duration>
						<start>3413</start>
						<end>3473</end>
						<in>0</in>
						<out>60</out>
					</clipitem>
					<clipitem frameBlend="FALSE" id="clipitem-telop-413">
						<file id="file-2"/>
						<name>！</name>
						<rate>
							<timebase>59</timebase>
							<ntsc>TRUE</ntsc>
						</rate>
						<rate>
							<timebase>59</timebase>
							<ntsc>TRUE</ntsc>
						</rate>
						<duration>60</duration>
						<start>3485</start>
						<end>3545</end>
						<in>0</in>
						<out>60</out>
					</clipitem>
					<clipitem frameBlend="FALSE" id="clipitem-telop-419">
						<file id="file-2"/>
						<name>！</name>
						<rate>
							<timebase>59</timebase>
							<ntsc>TRUE</ntsc>
						</rate>
						<rate>
							<timebase>59</timebase>
							<ntsc>TRUE</ntsc>
						</rate>
						<duration>60</duration>
						<start>3563</start>
						<end>3623</end>
						<in>0</in>
						<out>60</out>
					</clipitem>
					<clipitem frameBlend="FALSE" id="clipitem-telop-425">
						<file id="file-2"/>
						<name>！</name>
						<rate>
							<timebase>59</timebase>
							<ntsc>TRUE</ntsc>
						</rate>
						<rate>
							<timebase>59</timebase>
							<ntsc>TRUE</ntsc>
						</rate>
						<duration>60</duration>
						<start>3623</start>
						<end>3683</end>
						<in>0</in>
						<out>60</out>
					</clipitem>
					<clipitem frameBlend="FALSE" id="clipitem-telop-431">
						<file id="file-2"/>
						<name>！</name>
						<rate>
							<timebase>59</timebase>
							<ntsc>TRUE</ntsc>
						</rate>
						<rate>
							<timebase>59</timebase>
							<ntsc>TRUE</ntsc>
						</rate>
						<duration>60</duration>
						<start>3695</start>
						<end>3755</end>
						<in>0</in>
						<out>60</out>
					</clipitem>
					<clipitem frameBlend="FALSE" id="clipitem-telop-439">
						<file id="file-2"/>
						<name>！</name>
						<rate>
							<timebase>59</timebase>
							<ntsc>TRUE</ntsc>
						</rate>
						<rate>
							<timebase>59</timebase>
							<ntsc>TRUE</ntsc>
						</rate>
						<duration>60</duration>
						<start>3761</start>
						<end>3821</end>
						<in>0</in>
						<out>60</out>
					</clipitem>
					<clipitem frameBlend="FALSE" id="clipitem-telop-448">
						<file id="file-2"/>
						<name>！</name>
						<rate>
							<timebase>59</timebase>
							<ntsc>TRUE</ntsc>
						</rate>
						<rate>
							<timebase>59</timebase>
							<ntsc>TRUE</ntsc>
						</rate>
						<duration>60</duration>
						<start>3839</start>
						<end>3899</end>
						<in>0</in>
						<out>60</out>
					</clipitem>
					<clipitem frameBlend="FALSE" id="clipitem-telop-459">
						<file id="file-2"/>
						<name>！</name>
						<rate>
							<timebase>59</timebase>
							<ntsc>TRUE</ntsc>
						</rate>
						<rate>
							<timebase>59</timebase>
							<ntsc>TRUE</ntsc>
						</rate>
						<duration>66</duration>
						<start>3899</start>
						<end>3965</end>
						<in>0</in>
						<out>66</out>
					</clipitem>
					<clipitem frameBlend="FALSE" id="clipitem-telop-469">
						<file id="file-2"/>
						<name>w</name>
						<rate>
							<timebase>59</timebase>
							<ntsc>TRUE</ntsc>
						</rate>
						<rate>
							<timebase>59</timebase>
							<ntsc>TRUE</ntsc>
						</rate>
						<duration>24</duration>
						<start>3983</start>
						<end>4007</end>
						<in>0</in>
						<out>24</out>
					</clipitem>
					<clipitem frameBlend="FALSE" id="clipitem-telop-474">
						<file id="file-2"/>
						<name>！</name>
						<rate>
							<timebase>59</timebase>
							<ntsc>TRUE</ntsc>
						</rate>
						<rate>
							<timebase>59</timebase>
							<ntsc>TRUE</ntsc>
						</rate>
						<duration>60</duration>
						<start>4013</start>
						<end>4073</end>
						<in>0</in>
						<out>60</out>
					</clipitem>
					<clipitem frameBlend="FALSE" id="clipitem-telop-479">
						<file id="file-2"/>
						<name>！</name>
						<rate>
							<timebase>59</timebase>
							<ntsc>TRUE</ntsc>
						</rate>
						<rate>
							<timebase>59</timebase>
							<ntsc>TRUE</ntsc>
						</rate>
						<duration>60</duration>
						<start>4073</start>
						<end>4133</end>
						<in>0</in>
						<out>60</out>
					</clipitem>
					<clipitem frameBlend="FALSE" id="clipitem-telop-485">
						<file id="file-2"/>
						<name>！</name>
						<rate>
							<timebase>59</timebase>
							<ntsc>TRUE</ntsc>
						</rate>
						<rate>
							<timebase>59</timebase>
							<ntsc>TRUE</ntsc>
						</rate>
						<duration>60</duration>
						<start>4151</start>
						<end>4211</end>
						<in>0</in>
						<out>60</out>
					</clipitem>
					<clipitem frameBlend="FALSE" id="clipitem-telop-497">
						<file id="file-2"/>
						<name>！</name>
						<rate>
							<timebase>59</timebase>
							<ntsc>TRUE</ntsc>
						</rate>
						<rate>
							<timebase>59</timebase>
							<ntsc>TRUE</ntsc>
						</rate>
						<duration>60</duration>
						<start>4289</start>
						<end>4349</end>
						<in>0</in>
						<out>60</out>
					</clipitem>
					<clipitem frameBlend="FALSE" id="clipitem-telop-507">
						<file id="file-2"/>
						<name>！</name>
						<rate>
							<timebase>59</timebase>
							<ntsc>TRUE</ntsc>
						</rate>
						<rate>
							<timebase>59</timebase>
							<ntsc>TRUE</ntsc>
						</rate>
						<duration>60</duration>
						<start>4355</start>
						<end>4415</end>
						<in>0</in>
						<out>60</out>
					</clipitem>
					<clipitem frameBlend="FALSE" id="clipitem-telop-515">
						<file id="file-2"/>
						<name>！</name>
						<rate>
							<timebase>59</timebase>
							<ntsc>TRUE</ntsc>
						</rate>
						<rate>
							<timebase>59</timebase>
							<ntsc>TRUE</ntsc>
						</rate>
						<duration>66</duration>
						<start>4415</start>
						<end>4481</end>
						<in>0</in>
						<out>66</out>
					</clipitem>
					<clipitem frameBlend="FALSE" id="clipitem-telop-529">
						<file id="file-2"/>
						<name>！</name>
						<rate>
							<timebase>59</timebase>
							<ntsc>TRUE</ntsc>
						</rate>
						<rate>
							<timebase>59</timebase>
							<ntsc>TRUE</ntsc>
						</rate>
						<duration>60</duration>
						<start>4535</start>
						<end>4595</end>
						<in>0</in>
						<out>60</out>
					</clipitem>
					<clipitem frameBlend="FALSE" id="clipitem-telop-542">
						<file id="file-2"/>
						<name>！</name>
						<rate>
							<timebase>59</timebase>
							<ntsc>TRUE</ntsc>
						</rate>
						<rate>
							<timebase>59</timebase>
							<ntsc>TRUE</ntsc>
						</rate>
						<duration>60</duration>
						<start>4595</start>
						<end>4655</end>
						<in>0</in>
						<out>60</out>
					</clipitem>
					<clipitem frameBlend="FALSE" id="clipitem-telop-554">
						<file id="file-2"/>
						<name>！</name>
						<rate>
							<timebase>59</timebase>
							<ntsc>TRUE</ntsc>
						</rate>
						<rate>
							<timebase>59</timebase>
							<ntsc>TRUE</ntsc>
						</rate>
						<duration>66</duration>
						<start>4673</start>
						<end>4739</end>
						<in>0</in>
						<out>66</out>
					</clipitem>
					<clipitem frameBlend="FALSE" id="clipitem-telop-563">
						<file id="file-2"/>
						<name>！</name>
						<rate>
							<timebase>59</timebase>
							<ntsc>TRUE</ntsc>
						</rate>
						<rate>
							<timebase>59</timebase>
							<ntsc>TRUE</ntsc>
						</rate>
						<duration>60</duration>
						<start>4769</start>
						<end>4829</end>
						<in>0</in>
						<out>60</out>
					</clipitem>
					<clipitem frameBlend="FALSE" id="clipitem-telop-575">
						<file id="file-2"/>
						<name>！</name>
						<rate>
							<timebase>59</timebase>
							<ntsc>TRUE</ntsc>
						</rate>
						<rate>
							<timebase>59</timebase>
							<ntsc>TRUE</ntsc>
						</rate>
						<duration>60</duration>
						<start>4841</start>
						<end>4901</end>
						<in>0</in>
						<out>60</out>
					</clipitem>
					<clipitem frameBlend="FALSE" id="clipitem-telop-591">
						<file id="file-2"/>
						<name>w</name>
						<rate>
							<timebase>59</timebase>
							<ntsc>TRUE</ntsc>
						</rate>
						<rate>
							<timebase>59</timebase>
							<ntsc>TRUE</ntsc>
						</rate>
						<duration>30</duration>
						<start>4925</start>
						<end>4955</end>
						<in>0</in>
						<out>30</out>
					</clipitem>
					<clipitem frameBlend="FALSE" id="clipitem-telop-598">
						<file id="file-2"/>
						<name>w</name>
						<rate>
							<timebase>59</timebase>
							<ntsc>TRUE</ntsc>
						</rate>
						<rate>
							<timebase>59</timebase>
							<ntsc>TRUE</ntsc>
						</rate>
						<duration>30</duration>
						<start>4955</start>
						<end>4985</end>
						<in>0</in>
						<out>30</out>
					</clipitem>
					<clipitem frameBlend="FALSE" id="clipitem-telop-605">
						<file id="file-2"/>
						<name>！</name>
						<rate>
							<timebase>59</timebase>
							<ntsc>TRUE</ntsc>
						</rate>
						<rate>
							<timebase>59</timebase>
							<ntsc>TRUE</ntsc>
						</rate>
						<duration>60</duration>
						<start>4991</start>
						<end>5051</end>
						<in>0</in>
						<out>60</out>
					</clipitem>
					<clipitem frameBlend="FALSE" id="clipitem-telop-617">
						<file id="file-2"/>
						<name>！</name>
						<rate>
							<timebase>59</timebase>
							<ntsc>TRUE</ntsc>
						</rate>
						<rate>
							<timebase>59</timebase>
							<ntsc>TRUE</ntsc>
						</rate>
						<duration>60</duration>
						<start>5063</start>
						<end>5123</end>
						<in>0</in>
						<out>60</out>
					</clipitem>
					<clipitem frameBlend="FALSE" id="clipitem-telop-628">
						<file id="file-2"/>
						<name>w</name>
						<rate>
							<timebase>59</timebase>
							<ntsc>TRUE</ntsc>
						</rate>
						<rate>
							<timebase>59</timebase>
							<ntsc>TRUE</ntsc>
						</rate>
						<duration>30</duration>
						<start>5123</start>
						<end>5153</end>
						<in>0</in>
						<out>30</out>
					</clipitem>
					<clipitem frameBlend="FALSE" id="clipitem-telop-632">
						<file id="file-2"/>
						<name>！</name>
						<rate>
							<timebase>59</timebase>
							<ntsc>TRUE</ntsc>
						</rate>
						<rate>
							<timebase>59</timebase>
							<ntsc>TRUE</ntsc>
						</rate>
						<duration>60</duration>
						<start>5159</start>
						<end>5219</end>
						<in>0</in>
						<out>60</out>
					</clipitem>
					<clipitem frameBlend="FALSE" id="clipitem-telop-642">
						<file id="file-2"/>
						<name>！</name>
						<rate>
							<timebase>59</timebase>
							<ntsc>TRUE</ntsc>
						</rate>
						<rate>
							<timebase>59</timebase>
							<ntsc>TRUE</ntsc>
						</rate>
						<duration>60</duration>
						<start>5219</start>
						<end>5279</end>
						<in>0</in>
						<out>60</out>
					</clipitem>
					<clipitem frameBlend="FALSE" id="clipitem-telop-650">
						<file id="file-2"/>
						<name>！</name>
						<rate>
							<timebase>59</timebase>
							<ntsc>TRUE</ntsc>
						</rate>
						<rate>
							<timebase>59</timebase>
							<ntsc>TRUE</ntsc>
						</rate>
						<duration>60</duration>
						<start>5285</start>
						<end>5345</end>
						<in>0</in>
						<out>60</out>
					</clipitem>
					<clipitem frameBlend="FALSE" id="clipitem-telop-659">
						<file id="file-2"/>
						<name>！</name>
						<rate>
							<timebase>59</timebase>
							<ntsc>TRUE</ntsc>
						</rate>
						<rate>
							<timebase>59</timebase>
							<ntsc>TRUE</ntsc>
						</rate>
						<duration>60</duration>
						<start>5357</start>
						<end>5417</end>
						<in>0</in>
						<out>60</out>
					</clipitem>
					<clipitem frameBlend="FALSE" id="clipitem-telop-668">
						<file id="file-2"/>
						<name>！</name>
						<rate>
							<timebase>59</timebase>
							<ntsc>TRUE</ntsc>
						</rate>
						<rate>
							<timebase>59</timebase>
							<ntsc>TRUE</ntsc>
						</rate>
						<duration>60</duration>
						<start>5417</start>
						<end>5477</end>
						<in>0</in>
						<out>60</out>
					</clipitem>
					<clipitem frameBlend="FALSE" id="clipitem-telop-673">
						<file id="file-2"/>
						<name>！</name>
						<rate>
							<timebase>59</timebase>
							<ntsc>TRUE</ntsc>
						</rate>
						<rate>
							<timebase>59</timebase>
							<ntsc>TRUE</ntsc>
						</rate>
						<duration>60</duration>
						<start>5489</start>
						<end>5549</end>
						<in>0</in>
						<out>60</out>
					</clipitem>
					<clipitem frameBlend="FALSE" id="clipitem-telop-677">
						<file id="file-2"/>
						<name>！</name>
						<rate>
							<timebase>59</timebase>
							<ntsc>TRUE</ntsc>
						</rate>
						<rate>
							<timebase>59</timebase>
							<ntsc>TRUE</ntsc>
						</rate>
						<duration>60</duration>
						<start>5555</start>
						<end>5615</end>
						<in>0</in>
						<out>60</out>
					</clipitem>
					<clipitem frameBlend="FALSE" id="clipitem-telop-684">
						<file id="file-2"/>
						<name>！</name>
						<rate>
							<timebase>59</timebase>
							<ntsc>TRUE</ntsc>
						</rate>
						<rate>
							<timebase>59</timebase>
							<ntsc>TRUE</ntsc>
						</rate>
						<duration>66</duration>
						<start>5615</start>
						<end>5681</end>
						<in>0</in>
						<out>66</out>
					</clipitem>
					<clipitem frameBlend="FALSE" id="clipitem-telop-694">
						<file id="file-2"/>
						<name>！</name>
						<rate>
							<timebase>59</timebase>
							<ntsc>TRUE</ntsc>
						</rate>
						<rate>
							<timebase>59</timebase>
							<ntsc>TRUE</ntsc>
						</rate>
						<duration>60</duration>
						<start>5711</start>
						<end>5771</end>
						<in>0</in>
						<out>60</out>
					</clipitem>
					<clipitem frameBlend="FALSE" id="clipitem-telop-701">
						<file id="file-2"/>
						<name>！</name>
						<rate>
							<timebase>59</timebase>
							<ntsc>TRUE</ntsc>
						</rate>
						<rate>
							<timebase>59</timebase>
							<ntsc>TRUE</ntsc>
						</rate>
						<duration>60</duration>
						<start>5783</start>
						<end>5843</end>
						<in>0</in>
						<out>60</out>
					</clipitem>
					<clipitem frameBlend="FALSE" id="clipitem-telop-710">
						<file id="file-2"/>
						<name>！</name>
						<rate>
							<timebase>59</timebase>
							<ntsc>TRUE</ntsc>
						</rate>
						<rate>
							<timebase>59</timebase>
							<ntsc>TRUE</ntsc>
						</rate>
						<duration>60</duration>
						<start>5849</start>
						<end>5909</end>
						<in>0</in>
						<out>60</out>
					</clipitem>
					<clipitem frameBlend="FALSE" id="clipitem-telop-716">
						<file id="file-2"/>
						<name>！</name>
						<rate>
							<timebase>59</timebase>
							<ntsc>TRUE</ntsc>
						</rate>
						<rate>
							<timebase>59</timebase>
							<ntsc>TRUE</ntsc>
						</rate>
						<duration>66</duration>
						<start>5945</start>
						<end>6011</end>
						<in>0</in>
						<out>66</out>
					</clipitem>
					<clipitem frameBlend="FALSE" id="clipitem-telop-726">
						<file id="file-2"/>
						<name>！</name>
						<rate>
							<timebase>59</timebase>
							<ntsc>TRUE</ntsc>
						</rate>
						<rate>
							<timebase>59</timebase>
							<ntsc>TRUE</ntsc>
						</rate>
						<duration>60</duration>
						<start>6011</start>
						<end>6071</end>
						<in>0</in>
						<out>60</out>
					</clipitem>
					<clipitem frameBlend="FALSE" id="clipitem-telop-735">
						<file id="file-2"/>
						<name>！</name>
						<rate>
							<timebase>59</timebase>
							<ntsc>TRUE</ntsc>
						</rate>
						<rate>
							<timebase>59</timebase>
							<ntsc>TRUE</ntsc>
						</rate>
						<duration>60</duration>
						<start>6071</start>
						<end>6131</end>
						<in>0</in>
						<out>60</out>
					</clipitem>
					<clipitem frameBlend="FALSE" id="clipitem-telop-745">
						<file id="file-2"/>
						<name>！</name>
						<rate>
							<timebase>59</timebase>
							<ntsc>TRUE</ntsc>
						</rate>
						<rate>
							<timebase>59</timebase>
							<ntsc>TRUE</ntsc>
						</rate>
						<duration>60</duration>
						<start>6161</start>
						<end>6221</end>
						<in>0</in>
						<out>60</out>
					</clipitem>
					<clipitem frameBlend="FALSE" id="clipitem-telop-751">
						<file id="file-2"/>
						<name>！</name>
						<rate>
							<timebase>59</timebase>
							<ntsc>TRUE</ntsc>
						</rate>
						<rate>
							<timebase>59</timebase>
							<ntsc>TRUE</ntsc>
						</rate>
						<duration>66</duration>
						<start>6239</start>
						<end>6305</end>
						<in>0</in>
						<out>66</out>
					</clipitem>
					<clipitem frameBlend="FALSE" id="clipitem-telop-760">
						<file id="file-2"/>
						<name>！</name>
						<rate>
							<timebase>59</timebase>
							<ntsc>TRUE</ntsc>
						</rate>
						<rate>
							<timebase>59</timebase>
							<ntsc>TRUE</ntsc>
						</rate>
						<duration>66</duration>
						<start>6317</start>
						<end>6383</end>
						<in>0</in>
						<out>66</out>
					</clipitem>
					<clipitem frameBlend="FALSE" id="clipitem-telop-767">
						<file id="file-2"/>
						<name>！</name>
						<rate>
							<timebase>59</timebase>
							<ntsc>TRUE</ntsc>
						</rate>
						<rate>
							<timebase>59</timebase>
							<ntsc>TRUE</ntsc>
						</rate>
						<duration>66</duration>
						<start>6413</start>
						<end>6479</end>
						<in>0</in>
						<out>66</out>
					</clipitem>
					<clipitem frameBlend="FALSE" id="clipitem-telop-772">
						<file id="file-2"/>
						<name>w</name>
						<rate>
							<timebase>59</timebase>
							<ntsc>TRUE</ntsc>
						</rate>
						<rate>
							<timebase>59</timebase>
							<ntsc>TRUE</ntsc>
						</rate>
						<duration>24</duration>
						<start>6491</start>
						<end>6515</end>
						<in>0</in>
						<out>24</out>
					</clipitem>
					<clipitem frameBlend="FALSE" id="clipitem-telop-780">
						<file id="file-2"/>
						<name>w</name>
						<rate>
							<timebase>59</timebase>
							<ntsc>TRUE</ntsc>
						</rate>
						<rate>
							<timebase>59</timebase>
							<ntsc>TRUE</ntsc>
						</rate>
						<duration>30</duration>
						<start>6515</start>
						<end>6545</end>
						<in>0</in>
						<out>30</out>
					</clipitem>
					<clipitem frameBlend="FALSE" id="clipitem-telop-784">
						<file id="file-2"/>
						<name>w</name>
						<rate>
							<timebase>59</timebase>
							<ntsc>TRUE</ntsc>
						</rate>
						<rate>
							<timebase>59</timebase>
							<ntsc>TRUE</ntsc>
						</rate>
						<duration>24</duration>
						<start>6545</start>
						<end>6569</end>
						<in>0</in>
						<out>24</out>
					</clipitem>
					<clipitem frameBlend="FALSE" id="clipitem-telop-791">
						<file id="file-2"/>
						<name>！</name>
						<rate>
							<timebase>59</timebase>
							<ntsc>TRUE</ntsc>
						</rate>
						<rate>
							<timebase>59</timebase>
							<ntsc>TRUE</ntsc>
						</rate>
						<duration>60</duration>
						<start>6593</start>
						<end>6653</end>
						<in>0</in>
						<out>60</out>
					</clipitem>
					<clipitem frameBlend="FALSE" id="clipitem-telop-799">
						<file id="file-2"/>
						<name>！</name>
						<rate>
							<timebase>59</timebase>
							<ntsc>TRUE</ntsc>
						</rate>
						<rate>
							<timebase>59</timebase>
							<ntsc>TRUE</ntsc>
						</rate>
						<duration>60</duration>
						<start>6659</start>
						<end>6719</end>
						<in>0</in>
						<out>60</out>
					</clipitem>
					<clipitem frameBlend="FALSE" id="clipitem-telop-809">
						<file id="file-2"/>
						<name>！</name>
						<rate>
							<timebase>59</timebase>
							<ntsc>TRUE</ntsc>
						</rate>
						<rate>
							<timebase>59</timebase>
							<ntsc>TRUE</ntsc>
						</rate>
						<duration>60</duration>
						<start>6725</start>
						<end>6785</end>
						<in>0</in>
						<out>60</out>
					</clipitem>
					<clipitem frameBlend="FALSE" id="clipitem-telop-820">
						<file id="file-2"/>
						<name>w</name>
						<rate>
							<timebase>59</timebase>
							<ntsc>TRUE</ntsc>
						</rate>
						<rate>
							<timebase>59</timebase>
							<ntsc>TRUE</ntsc>
						</rate>
						<duration>24</duration>
						<start>6797</start>
						<end>6821</end>
						<in>0</in>
						<out>24</out>
					</clipitem>
					<clipitem frameBlend="FALSE" id="clipitem-telop-823">
						<file id="file-2"/>
						<name>！</name>
						<rate>
							<timebase>59</timebase>
							<ntsc>TRUE</ntsc>
						</rate>
						<rate>
							<timebase>59</timebase>
							<ntsc>TRUE</ntsc>
						</rate>
						<duration>60</duration>
						<start>6821</start>
						<end>6881</end>
						<in>0</in>
						<out>60</out>
					</clipitem>
					<clipitem frameBlend="FALSE" id="clipitem-telop-833">
						<file id="file-2"/>
						<name>w</name>
						<rate>
							<timebase>59</timebase>
							<ntsc>TRUE</ntsc>
						</rate>
						<rate>
							<timebase>59</timebase>
							<ntsc>TRUE</ntsc>
						</rate>
						<duration>24</duration>
						<start>6881</start>
						<end>6905</end>
						<in>0</in>
						<out>24</out>
					</clipitem>
					<clipitem frameBlend="FALSE" id="clipitem-telop-839">
						<file id="file-2"/>
						<name>！</name>
						<rate>
							<timebase>59</timebase>
							<ntsc>TRUE</ntsc>
						</rate>
						<rate>
							<timebase>59</timebase>
							<ntsc>TRUE</ntsc>
						</rate>
						<duration>60</duration>
						<start>6905</start>
						<end>6965</end>
						<in>0</in>
						<out>60</out>
					</clipitem>
					<clipitem frameBlend="FALSE" id="clipitem-telop-851">
						<file id="file-2"/>
						<name>！</name>
						<rate>
							<timebase>59</timebase>
							<ntsc>TRUE</ntsc>
						</rate>
						<rate>
							<timebase>59</timebase>
							<ntsc>TRUE</ntsc>
						</rate>
						<duration>60</duration>
						<start>6977</start>
						<end>7037</end>
						<in>0</in>
						<out>60</out>
					</clipitem>
					<clipitem frameBlend="FALSE" id="clipitem-telop-861">
						<file id="file-2"/>
						<name>！</name>
						<rate>
							<timebase>59</timebase>
							<ntsc>TRUE</ntsc>
						</rate>
						<rate>
							<timebase>59</timebase>
							<ntsc>TRUE</ntsc>
						</rate>
						<duration>60</duration>
						<start>7061</start>
						<end>7121</end>
						<in>0</in>
						<out>60</out>
					</clipitem>
					<clipitem frameBlend="FALSE" id="clipitem-telop-869">
						<file id="file-2"/>
						<name>！</name>
						<rate>
							<timebase>59</timebase>
							<ntsc>TRUE</ntsc>
						</rate>
						<rate>
							<timebase>59</timebase>
							<ntsc>TRUE</ntsc>
						</rate>
						<duration>66</duration>
						<start>7121</start>
						<end>7187</end>
						<in>0</in>
						<out>66</out>
					</clipitem>
					<clipitem frameBlend="FALSE" id="clipitem-telop-879">
						<file id="file-2"/>
						<name>！</name>
						<rate>
							<timebase>59</timebase>
							<ntsc>TRUE</ntsc>
						</rate>
						<rate>
							<timebase>59</timebase>
							<ntsc>TRUE</ntsc>
						</rate>
						<duration>60</duration>
						<start>7187</start>
						<end>7247</end>
						<in>0</in>
						<out>60</out>
					</clipitem>
					<clipitem frameBlend="FALSE" id="clipitem-telop-886">
						<file id="file-2"/>
						<name>！</name>
						<rate>
							<timebase>59</timebase>
							<ntsc>TRUE</ntsc>
						</rate>
						<rate>
							<timebase>59</timebase>
							<ntsc>TRUE</ntsc>
						</rate>
						<duration>60</duration>
						<start>7253</start>
						<end>7313</end>
						<in>0</in>
						<out>60</out>
					</clipitem>
					<clipitem frameBlend="FALSE" id="clipitem-telop-892">
						<file id="file-2"/>
						<name>！</name>
						<rate>
							<timebase>59</timebase>
							<ntsc>TRUE</ntsc>
						</rate>
						<rate>
							<timebase>59</timebase>
							<ntsc>TRUE</ntsc>
						</rate>
						<duration>60</duration>
						<start>7313</start>
						<end>7373</end>
						<in>0</in>
						<out>60</out>
					</clipitem>
					<clipitem frameBlend="FALSE" id="clipitem-telop-900">
						<file id="file-2"/>
						<name>！</name>
						<rate>
							<timebase>59</timebase>
							<ntsc>TRUE</ntsc>
						</rate>
						<rate>
							<timebase>59</timebase>
							<ntsc>TRUE</ntsc>
						</rate>
						<duration>60</duration>
						<start>7373</start>
						<end>7433</end>
						<in>0</in>
						<out>60</out>
					</clipitem>
					<clipitem frameBlend="FALSE" id="clipitem-telop-909">
						<file id="file-2"/>
						<name>！</name>
						<rate>
							<timebase>59</timebase>
							<ntsc>TRUE</ntsc>
						</rate>
						<rate>
							<timebase>59</timebase>
							<ntsc>TRUE</ntsc>
						</rate>
						<duration>60</duration>
						<start>7433</start>
						<end>7493</end>
						<in>0</in>
						<out>60</out>
					</clipitem>
					<clipitem frameBlend="FALSE" id="clipitem-telop-920">
						<file id="file-2"/>
						<name>！</name>
						<rate>
							<timebase>59</timebase>
							<ntsc>TRUE</ntsc>
						</rate>
						<rate>
							<timebase>59</timebase>
							<ntsc>TRUE</ntsc>
						</rate>
						<duration>66</duration>
						<start>7493</start>
						<end>7559</end>
						<in>0</in>
						<out>66</out>
					</clipitem>
					<clipitem frameBlend="FALSE" id="clipitem-telop-931">
						<file id="file-2"/>
						<name>！</name>
						<rate>
							<timebase>59</timebase>
							<ntsc>TRUE</ntsc>
						</rate>
						<rate>
							<timebase>59</timebase>
							<ntsc>TRUE</ntsc>
						</rate>
						<duration>60</duration>
						<start>7577</start>
						<end>7637</end>
						<in>0</in>
						<out>60</out>
					</clipitem>
					<clipitem frameBlend="FALSE" id="clipitem-telop-939">
						<file id="file-2"/>
						<name>！</name>
						<rate>
							<timebase>59</timebase>
							<ntsc>TRUE</ntsc>
						</rate>
						<rate>
							<timebase>59</timebase>
							<ntsc>TRUE</ntsc>
						</rate>
						<duration>60</duration>
						<start>7637</start>
						<end>7697</end>
						<in>0</in>
						<out>60</out>
					</clipitem>
					<clipitem frameBlend="FALSE" id="clipitem-telop-950">
						<file id="file-2"/>
						<name>！</name>
						<rate>
							<timebase>59</timebase>
							<ntsc>TRUE</ntsc>
						</rate>
						<rate>
							<timebase>59</timebase>
							<ntsc>TRUE</ntsc>
						</rate>
						<duration>60</duration>
						<start>7709</start>
						<end>7769</end>
						<in>0</in>
						<out>60</out>
					</clipitem>
					<clipitem frameBlend="FALSE" id="clipitem-telop-958">
						<file id="file-2"/>
						<name>！</name>
						<rate>
							<timebase>59</timebase>
							<ntsc>TRUE</ntsc>
						</rate>
						<rate>
							<timebase>59</timebase>
							<ntsc>TRUE</ntsc>
						</rate>
						<duration>60</duration>
						<start>7781</start>
						<end>7841</end>
						<in>0</in>
						<out>60</out>
					</clipitem>
					<clipitem frameBlend="FALSE" id="clipitem-telop-969">
						<file id="file-2"/>
						<name>！</name>
						<rate>
							<timebase>59</timebase>
							<ntsc>TRUE</ntsc>
						</rate>
						<rate>
							<timebase>59</timebase>
							<ntsc>TRUE</ntsc>
						</rate>
						<duration>60</duration>
						<start>7913</start>
						<end>7973</end>
						<in>0</in>
						<out>60</out>
					</clipitem>
					<clipitem frameBlend="FALSE" id="clipitem-telop-974">
						<file id="file-2"/>
						<name>！</name>
						<rate>
							<timebase>59</timebase>
							<ntsc>TRUE</ntsc>
						</rate>
						<rate>
							<timebase>59</timebase>
							<ntsc>TRUE</ntsc>
						</rate>
						<duration>60</duration>
						<start>7985</start>
						<end>8045</end>
						<in>0</in>
						<out>60</out>
					</clipitem>
					<clipitem frameBlend="FALSE" id="clipitem-telop-980">
						<file id="file-2"/>
						<name>！</name>
						<rate>
							<timebase>59</timebase>
							<ntsc>TRUE</ntsc>
						</rate>
						<rate>
							<timebase>59</timebase>
							<ntsc>TRUE</ntsc>
						</rate>
						<duration>60</duration>
						<start>8057</start>
						<end>8117</end>
						<in>0</in>
						<out>60</out>
					</clipitem>
					<clipitem frameBlend="FALSE" id="clipitem-telop-988">
						<file id="file-2"/>
						<name>！</name>
						<rate>
							<timebase>59</timebase>
							<ntsc>TRUE</ntsc>
						</rate>
						<rate>
							<timebase>59</timebase>
							<ntsc>TRUE</ntsc>
						</rate>
						<duration>59</duration>
						<start>8141</start>
						<end>8200</end>
						<in>0</in>
						<out>59</out>
					</clipitem>
					<clipitem frameBlend="FALSE" id="clipitem-telop-996">
						<file id="file-2"/>
						<name>！</name>
						<rate>
							<timebase>59</timebase>
							<ntsc>TRUE</ntsc>
						</rate>
						<rate>
							<timebase>59</timebase>
							<ntsc>TRUE</ntsc>
						</rate>
						<duration>60</duration>
						<start>8200</start>
						<end>8260</end>
						<in>0</in>
						<out>60</out>
					</clipitem>
					<clipitem frameBlend="FALSE" id="clipitem-telop-1004">
						<file id="file-2"/>
						<name>！</name>
						<rate>
							<timebase>59</timebase>
							<ntsc>TRUE</ntsc>
						</rate>
						<rate>
							<timebase>59</timebase>
							<ntsc>TRUE</ntsc>
						</rate>
						<duration>60</duration>
						<start>8260</start>
						<end>8320</end>
						<in>0</in>
						<out>60</out>
					</clipitem>
					<clipitem frameBlend="FALSE" id="clipitem-telop-1012">
						<file id="file-2"/>
						<name>！</name>
						<rate>
							<timebase>59</timebase>
							<ntsc>TRUE</ntsc>
						</rate>
						<rate>
							<timebase>59</timebase>
							<ntsc>TRUE</ntsc>
						</rate>
						<duration>60</duration>
						<start>8356</start>
						<end>8416</end>
						<in>0</in>
						<out>60</out>
					</clipitem>
					<clipitem frameBlend="FALSE" id="clipitem-telop-1017">
						<file id="file-2"/>
						<name>！</name>
						<rate>
							<timebase>59</timebase>
							<ntsc>TRUE</ntsc>
						</rate>
						<rate>
							<timebase>59</timebase>
							<ntsc>TRUE</ntsc>
						</rate>
						<duration>60</duration>
						<start>8422</start>
						<end>8482</end>
						<in>0</in>
						<out>60</out>
					</clipitem>
					<clipitem frameBlend="FALSE" id="clipitem-telop-1027">
						<file id="file-2"/>
						<name>！</name>
						<rate>
							<timebase>59</timebase>
							<ntsc>TRUE</ntsc>
						</rate>
						<rate>
							<timebase>59</timebase>
							<ntsc>TRUE</ntsc>
						</rate>
						<duration>66</duration>
						<start>8488</start>
						<end>8554</end>
						<in>0</in>
						<out>66</out>
					</clipitem>
					<clipitem frameBlend="FALSE" id="clipitem-telop-1035">
						<file id="file-2"/>
						<name>！</name>
						<rate>
							<timebase>59</timebase>
							<ntsc>TRUE</ntsc>
						</rate>
						<rate>
							<timebase>59</timebase>
							<ntsc>TRUE</ntsc>
						</rate>
						<duration>60</duration>
						<start>8554</start>
						<end>8614</end>
						<in>0</in>
						<out>60</out>
					</clipitem>
					<clipitem frameBlend="FALSE" id="clipitem-telop-1046">
						<file id="file-2"/>
						<name>！</name>
						<rate>
							<timebase>59</timebase>
							<ntsc>TRUE</ntsc>
						</rate>
						<rate>
							<timebase>59</timebase>
							<ntsc>TRUE</ntsc>
						</rate>
						<duration>60</duration>
						<start>8644</start>
						<end>8704</end>
						<in>0</in>
						<out>60</out>
					</clipitem>
					<clipitem frameBlend="FALSE" id="clipitem-telop-1052">
						<file id="file-2"/>
						<name>！</name>
						<rate>
							<timebase>59</timebase>
							<ntsc>TRUE</ntsc>
						</rate>
						<rate>
							<timebase>59</timebase>
							<ntsc>TRUE</ntsc>
						</rate>
						<duration>66</duration>
						<start>8722</start>
						<end>8788</end>
						<in>0</in>
						<out>66</out>
					</clipitem>
					<clipitem frameBlend="FALSE" id="clipitem-telop-1058">
						<file id="file-2"/>
						<name>！</name>
						<rate>
							<timebase>59</timebase>
							<ntsc>TRUE</ntsc>
						</rate>
						<rate>
							<timebase>59</timebase>
							<ntsc>TRUE</ntsc>
						</rate>
						<duration>66</duration>
						<start>8812</start>
						<end>8878</end>
						<in>0</in>
						<out>66</out>
					</clipitem>
					<clipitem frameBlend="FALSE" id="clipitem-telop-1065">
						<file id="file-2"/>
						<name>！</name>
						<rate>
							<timebase>59</timebase>
							<ntsc>TRUE</ntsc>
						</rate>
						<rate>
							<timebase>59</timebase>
							<ntsc>TRUE</ntsc>
						</rate>
						<duration>60</duration>
						<start>8878</start>
						<end>8938</end>
						<in>0</in>
						<out>60</out>
					</clipitem>
					<clipitem frameBlend="FALSE" id="clipitem-telop-1076">
						<file id="file-2"/>
						<name>！</name>
						<rate>
							<timebase>59</timebase>
							<ntsc>TRUE</ntsc>
						</rate>
						<rate>
							<timebase>59</timebase>
							<ntsc>TRUE</ntsc>
						</rate>
						<duration>60</duration>
						<start>8956</start>
						<end>9016</end>
						<in>0</in>
						<out>60</out>
					</clipitem>
					<clipitem frameBlend="FALSE" id="clipitem-telop-1084">
						<file id="file-2"/>
						<name>！</name>
						<rate>
							<timebase>59</timebase>
							<ntsc>TRUE</ntsc>
						</rate>
						<rate>
							<timebase>59</timebase>
							<ntsc>TRUE</ntsc>
						</rate>
						<duration>60</duration>
						<start>9034</start>
						<end>9094</end>
						<in>0</in>
						<out>60</out>
					</clipitem>
					<clipitem frameBlend="FALSE" id="clipitem-telop-1091">
						<file id="file-2"/>
						<name>！</name>
						<rate>
							<timebase>59</timebase>
							<ntsc>TRUE</ntsc>
						</rate>
						<rate>
							<timebase>59</timebase>
							<ntsc>TRUE</ntsc>
						</rate>
						<duration>60</duration>
						<start>9094</start>
						<end>9154</end>
						<in>0</in>
						<out>60</out>
					</clipitem>
					<clipitem frameBlend="FALSE" id="clipitem-telop-1102">
						<file id="file-2"/>
						<name>！</name>
						<rate>
							<timebase>59</timebase>
							<ntsc>TRUE</ntsc>
						</rate>
						<rate>
							<timebase>59</timebase>
							<ntsc>TRUE</ntsc>
						</rate>
						<duration>66</duration>
						<start>9160</start>
						<end>9226</end>
						<in>0</in>
						<out>66</out>
					</clipitem>
					<clipitem frameBlend="FALSE" id="clipitem-telop-1108">
						<file id="file-2"/>
						<name>！</name>
						<rate>
							<timebase>59</timebase>
							<ntsc>TRUE</ntsc>
						</rate>
						<rate>
							<timebase>59</timebase>
							<ntsc>TRUE</ntsc>
						</rate>
						<duration>60</duration>
						<start>9226</start>
						<end>9286</end>
						<in>0</in>
						<out>60</out>
					</clipitem>
					<clipitem frameBlend="FALSE" id="clipitem-telop-1119">
						<file id="file-2"/>
						<name>！</name>
						<rate>
							<timebase>59</timebase>
							<ntsc>TRUE</ntsc>
						</rate>
						<rate>
							<timebase>59</timebase>
							<ntsc>TRUE</ntsc>
						</rate>
						<duration>60</duration>
						<start>9286</start>
						<end>9346</end>
						<in>0</in>
						<out>60</out>
					</clipitem>
					<clipitem frameBlend="FALSE" id="clipitem-telop-1127">
						<file id="file-2"/>
						<name>！</name>
						<rate>
							<timebase>59</timebase>
							<ntsc>TRUE</ntsc>
						</rate>
						<rate>
							<timebase>59</timebase>
							<ntsc>TRUE</ntsc>
						</rate>
						<duration>60</duration>
						<start>9346</start>
						<end>9406</end>
						<in>0</in>
						<out>60</out>
					</clipitem>
					<clipitem frameBlend="FALSE" id="clipitem-telop-1135">
						<file id="file-2"/>
						<name>うんね</name>
						<rate>
							<timebase>59</timebase>
							<ntsc>TRUE</ntsc>
						</rate>
						<rate>
							<timebase>59</timebase>
							<ntsc>TRUE</ntsc>
						</rate>
						<duration>60</duration>
						<start>9412</start>
						<end>9472</end>
						<in>0</in>
						<out>60</out>
					</clipitem>
					<clipitem frameBlend="FALSE" id="clipitem-telop-1148">
						<file id="file-2"/>
						<name>！</name>
						<rate>
							<timebase>59</timebase>
							<ntsc>TRUE</ntsc>
						</rate>
						<rate>
							<timebase>59</timebase>
							<ntsc>TRUE</ntsc>
						</rate>
						<duration>66</duration>
						<start>9478</start>
						<end>9544</end>
						<in>0</in>
						<out>66</out>
					</clipitem>
					<clipitem frameBlend="FALSE" id="clipitem-telop-1157">
						<file id="file-2"/>
						<name>！</name>
						<rate>
							<timebase>59</timebase>
							<ntsc>TRUE</ntsc>
						</rate>
						<rate>
							<timebase>59</timebase>
							<ntsc>TRUE</ntsc>
						</rate>
						<duration>66</duration>
						<start>9568</start>
						<end>9634</end>
						<in>0</in>
						<out>66</out>
					</clipitem>
					<clipitem frameBlend="FALSE" id="clipitem-telop-1165">
						<file id="file-2"/>
						<name>！</name>
						<rate>
							<timebase>59</timebase>
							<ntsc>TRUE</ntsc>
						</rate>
						<rate>
							<timebase>59</timebase>
							<ntsc>TRUE</ntsc>
						</rate>
						<duration>66</duration>
						<start>9634</start>
						<end>9700</end>
						<in>0</in>
						<out>66</out>
					</clipitem>
					<clipitem frameBlend="FALSE" id="clipitem-telop-1174">
						<file id="file-2"/>
						<name>！</name>
						<rate>
							<timebase>59</timebase>
							<ntsc>TRUE</ntsc>
						</rate>
						<rate>
							<timebase>59</timebase>
							<ntsc>TRUE</ntsc>
						</rate>
						<duration>60</duration>
						<start>9718</start>
						<end>9778</end>
						<in>0</in>
						<out>60</out>
					</clipitem>
					<clipitem frameBlend="FALSE" id="clipitem-telop-1179">
						<file id="file-2"/>
						<name>w</name>
						<rate>
							<timebase>59</timebase>
							<ntsc>TRUE</ntsc>
						</rate>
						<rate>
							<timebase>59</timebase>
							<ntsc>TRUE</ntsc>
						</rate>
						<duration>24</duration>
						<start>9778</start>
						<end>9802</end>
						<in>0</in>
						<out>24</out>
					</clipitem>
					<clipitem frameBlend="FALSE" id="clipitem-telop-1183">
						<file id="file-2"/>
						<name>！</name>
						<rate>
							<timebase>59</timebase>
							<ntsc>TRUE</ntsc>
						</rate>
						<rate>
							<timebase>59</timebase>
							<ntsc>TRUE</ntsc>
						</rate>
						<duration>60</duration>
						<start>9814</start>
						<end>9874</end>
						<in>0</in>
						<out>60</out>
					</clipitem>
					<clipitem frameBlend="FALSE" id="clipitem-telop-1188">
						<file id="file-2"/>
						<name>！</name>
						<rate>
							<timebase>59</timebase>
							<ntsc>TRUE</ntsc>
						</rate>
						<rate>
							<timebase>59</timebase>
							<ntsc>TRUE</ntsc>
						</rate>
						<duration>66</duration>
						<start>9880</start>
						<end>9946</end>
						<in>0</in>
						<out>66</out>
					</clipitem>
					<clipitem frameBlend="FALSE" id="clipitem-telop-1196">
						<file id="file-2"/>
						<name>！</name>
						<rate>
							<timebase>59</timebase>
							<ntsc>TRUE</ntsc>
						</rate>
						<rate>
							<timebase>59</timebase>
							<ntsc>TRUE</ntsc>
						</rate>
						<duration>66</duration>
						<start>9970</start>
						<end>10036</end>
						<in>0</in>
						<out>66</out>
					</clipitem>
					<clipitem frameBlend="FALSE" id="clipitem-telop-1204">
						<file id="file-2"/>
						<name>！</name>
						<rate>
							<timebase>59</timebase>
							<ntsc>TRUE</ntsc>
						</rate>
						<rate>
							<timebase>59</timebase>
							<ntsc>TRUE</ntsc>
						</rate>
						<duration>60</duration>
						<start>10066</start>
						<end>10126</end>
						<in>0</in>
						<out>60</out>
					</clipitem>
					<clipitem frameBlend="FALSE" id="clipitem-telop-1211">
						<file id="file-2"/>
						<name>！</name>
						<rate>
							<timebase>59</timebase>
							<ntsc>TRUE</ntsc>
						</rate>
						<rate>
							<timebase>59</timebase>
							<ntsc>TRUE</ntsc>
						</rate>
						<duration>60</duration>
						<start>10132</start>
						<end>10192</end>
						<in>0</in>
						<out>60</out>
					</clipitem>
					<clipitem frameBlend="FALSE" id="clipitem-telop-1221">
						<file id="file-2"/>
						<name>！</name>
						<rate>
							<timebase>59</timebase>
							<ntsc>TRUE</ntsc>
						</rate>
						<rate>
							<timebase>59</timebase>
							<ntsc>TRUE</ntsc>
						</rate>
						<duration>60</duration>
						<start>10192</start>
						<end>10252</end>
						<in>0</in>
						<out>60</out>
					</clipitem>
					<clipitem frameBlend="FALSE" id="clipitem-telop-1227">
						<file id="file-2"/>
						<name>！</name>
						<rate>
							<timebase>59</timebase>
							<ntsc>TRUE</ntsc>
						</rate>
						<rate>
							<timebase>59</timebase>
							<ntsc>TRUE</ntsc>
						</rate>
						<duration>60</duration>
						<start>10294</start>
						<end>10354</end>
						<in>0</in>
						<out>60</out>
					</clipitem>
					<clipitem frameBlend="FALSE" id="clipitem-telop-1232">
						<file id="file-2"/>
						<name>！</name>
						<rate>
							<timebase>59</timebase>
							<ntsc>TRUE</ntsc>
						</rate>
						<rate>
							<timebase>59</timebase>
							<ntsc>TRUE</ntsc>
						</rate>
						<duration>60</duration>
						<start>10366</start>
						<end>10426</end>
						<in>0</in>
						<out>60</out>
					</clipitem>
					<clipitem frameBlend="FALSE" id="clipitem-telop-1239">
						<file id="file-2"/>
						<name>！</name>
						<rate>
							<timebase>59</timebase>
							<ntsc>TRUE</ntsc>
						</rate>
						<rate>
							<timebase>59</timebase>
							<ntsc>TRUE</ntsc>
						</rate>
						<duration>60</duration>
						<start>10432</start>
						<end>10492</end>
						<in>0</in>
						<out>60</out>
					</clipitem>
					<clipitem frameBlend="FALSE" id="clipitem-telop-1244">
						<file id="file-2"/>
						<name>！</name>
						<rate>
							<timebase>59</timebase>
							<ntsc>TRUE</ntsc>
						</rate>
						<rate>
							<timebase>59</timebase>
							<ntsc>TRUE</ntsc>
						</rate>
						<duration>66</duration>
						<start>10504</start>
						<end>10570</end>
						<in>0</in>
						<out>66</out>
					</clipitem>
					<clipitem frameBlend="FALSE" id="clipitem-telop-1250">
						<file id="file-2"/>
						<name>！</name>
						<rate>
							<timebase>59</timebase>
							<ntsc>TRUE</ntsc>
						</rate>
						<rate>
							<timebase>59</timebase>
							<ntsc>TRUE</ntsc>
						</rate>
						<duration>60</duration>
						<start>10576</start>
						<end>10636</end>
						<in>0</in>
						<out>60</out>
					</clipitem>
					<clipitem frameBlend="FALSE" id="clipitem-telop-1261">
						<file id="file-2"/>
						<name>！</name>
						<rate>
							<timebase>59</timebase>
							<ntsc>TRUE</ntsc>
						</rate>
						<rate>
							<timebase>59</timebase>
							<ntsc>TRUE</ntsc>
						</rate>
						<duration>60</duration>
						<start>10636</start>
						<end>10696</end>
						<in>0</in>
						<out>60</out>
					</clipitem>
					<clipitem frameBlend="FALSE" id="clipitem-telop-1269">
						<file id="file-2"/>
						<name>！</name>
						<rate>
							<timebase>59</timebase>
							<ntsc>TRUE</ntsc>
						</rate>
						<rate>
							<timebase>59</timebase>
							<ntsc>TRUE</ntsc>
						</rate>
						<duration>66</duration>
						<start>10702</start>
						<end>10768</end>
						<in>0</in>
						<out>66</out>
					</clipitem>
					<clipitem frameBlend="FALSE" id="clipitem-telop-1279">
						<file id="file-2"/>
						<name>！</name>
						<rate>
							<timebase>59</timebase>
							<ntsc>TRUE</ntsc>
						</rate>
						<rate>
							<timebase>59</timebase>
							<ntsc>TRUE</ntsc>
						</rate>
						<duration>60</duration>
						<start>10786</start>
						<end>10846</end>
						<in>0</in>
						<out>60</out>
					</clipitem>
					<clipitem frameBlend="FALSE" id="clipitem-telop-1286">
						<file id="file-2"/>
						<name>！</name>
						<rate>
							<timebase>59</timebase>
							<ntsc>TRUE</ntsc>
						</rate>
						<rate>
							<timebase>59</timebase>
							<ntsc>TRUE</ntsc>
						</rate>
						<duration>60</duration>
						<start>10846</start>
						<end>10906</end>
						<in>0</in>
						<out>60</out>
					</clipitem>
					<clipitem frameBlend="FALSE" id="clipitem-telop-1292">
						<file id="file-2"/>
						<name>！</name>
						<rate>
							<timebase>59</timebase>
							<ntsc>TRUE</ntsc>
						</rate>
						<rate>
							<timebase>59</timebase>
							<ntsc>TRUE</ntsc>
						</rate>
						<duration>60</duration>
						<start>10912</start>
						<end>10972</end>
						<in>0</in>
						<out>60</out>
					</clipitem>
					<clipitem frameBlend="FALSE" id="clipitem-telop-1301">
						<file id="file-2"/>
						<name>！</name>
						<rate>
							<timebase>59</timebase>
							<ntsc>TRUE</ntsc>
						</rate>
						<rate>
							<timebase>59</timebase>
							<ntsc>TRUE</ntsc>
						</rate>
						<duration>60</duration>
						<start>10978</start>
						<end>11038</end>
						<in>0</in>
						<out>60</out>
					</clipitem>
					<clipitem frameBlend="FALSE" id="clipitem-telop-1307">
						<file id="file-2"/>
						<name>！</name>
						<rate>
							<timebase>59</timebase>
							<ntsc>TRUE</ntsc>
						</rate>
						<rate>
							<timebase>59</timebase>
							<ntsc>TRUE</ntsc>
						</rate>
						<duration>60</duration>
						<start>11038</start>
						<end>11098</end>
						<in>0</in>
						<out>60</out>
					</clipitem>
					<clipitem frameBlend="FALSE" id="clipitem-telop-1318">
						<file id="file-2"/>
						<name>！</name>
						<rate>
							<timebase>59</timebase>
							<ntsc>TRUE</ntsc>
						</rate>
						<rate>
							<timebase>59</timebase>
							<ntsc>TRUE</ntsc>
						</rate>
						<duration>66</duration>
						<start>11104</start>
						<end>11170</end>
						<in>0</in>
						<out>66</out>
					</clipitem>
					<clipitem frameBlend="FALSE" id="clipitem-telop-1323">
						<file id="file-2"/>
						<name>！</name>
						<rate>
							<timebase>59</timebase>
							<ntsc>TRUE</ntsc>
						</rate>
						<rate>
							<timebase>59</timebase>
							<ntsc>TRUE</ntsc>
						</rate>
						<duration>60</duration>
						<start>11170</start>
						<end>11230</end>
						<in>0</in>
						<out>60</out>
					</clipitem>
					<clipitem frameBlend="FALSE" id="clipitem-telop-1330">
						<file id="file-2"/>
						<name>！</name>
						<rate>
							<timebase>59</timebase>
							<ntsc>TRUE</ntsc>
						</rate>
						<rate>
							<timebase>59</timebase>
							<ntsc>TRUE</ntsc>
						</rate>
						<duration>60</duration>
						<start>11248</start>
						<end>11308</end>
						<in>0</in>
						<out>60</out>
					</clipitem>
					<clipitem frameBlend="FALSE" id="clipitem-telop-1336">
						<file id="file-2"/>
						<name>！</name>
						<rate>
							<timebase>59</timebase>
							<ntsc>TRUE</ntsc>
						</rate>
						<rate>
							<timebase>59</timebase>
							<ntsc>TRUE</ntsc>
						</rate>
						<duration>60</duration>
						<start>11314</start>
						<end>11374</end>
						<in>0</in>
						<out>60</out>
					</clipitem>
					<clipitem frameBlend="FALSE" id="clipitem-telop-1347">
						<file id="file-2"/>
						<name>！</name>
						<rate>
							<timebase>59</timebase>
							<ntsc>TRUE</ntsc>
						</rate>
						<rate>
							<timebase>59</timebase>
							<ntsc>TRUE</ntsc>
						</rate>
						<duration>60</duration>
						<start>11404</start>
						<end>11464</end>
						<in>0</in>
						<out>60</out>
					</clipitem>
					<clipitem frameBlend="FALSE" id="clipitem-telop-1356">
						<file id="file-2"/>
						<name>！</name>
						<rate>
							<timebase>59</timebase>
							<ntsc>TRUE</ntsc>
						</rate>
						<rate>
							<timebase>59</timebase>
							<ntsc>TRUE</ntsc>
						</rate>
						<duration>60</duration>
						<start>11464</start>
						<end>11524</end>
						<in>0</in>
						<out>60</out>
					</clipitem>
					<clipitem frameBlend="FALSE" id="clipitem-telop-1364">
						<file id="file-2"/>
						<name>！</name>
						<rate>
							<timebase>59</timebase>
							<ntsc>TRUE</ntsc>
						</rate>
						<rate>
							<timebase>59</timebase>
							<ntsc>TRUE</ntsc>
						</rate>
						<duration>60</duration>
						<start>11530</start>
						<end>11590</end>
						<in>0</in>
						<out>60</out>
					</clipitem>
					<clipitem frameBlend="FALSE" id="clipitem-telop-1372">
						<file id="file-2"/>
						<name>！</name>
						<rate>
							<timebase>59</timebase>
							<ntsc>TRUE</ntsc>
						</rate>
						<rate>
							<timebase>59</timebase>
							<ntsc>TRUE</ntsc>
						</rate>
						<duration>60</duration>
						<start>11620</start>
						<end>11680</end>
						<in>0</in>
						<out>60</out>
					</clipitem>
					<clipitem frameBlend="FALSE" id="clipitem-telop-1381">
						<file id="file-2"/>
						<name>！</name>
						<rate>
							<timebase>59</timebase>
							<ntsc>TRUE</ntsc>
						</rate>
						<rate>
							<timebase>59</timebase>
							<ntsc>TRUE</ntsc>
						</rate>
						<duration>60</duration>
						<start>11686</start>
						<end>11746</end>
						<in>0</in>
						<out>60</out>
					</clipitem>
					<clipitem frameBlend="FALSE" id="clipitem-telop-1391">
						<file id="file-2"/>
						<name>！</name>
						<rate>
							<timebase>59</timebase>
							<ntsc>TRUE</ntsc>
						</rate>
						<rate>
							<timebase>59</timebase>
							<ntsc>TRUE</ntsc>
						</rate>
						<duration>60</duration>
						<start>11752</start>
						<end>11812</end>
						<in>0</in>
						<out>60</out>
					</clipitem>
					<clipitem frameBlend="FALSE" id="clipitem-telop-1398">
						<file id="file-2"/>
						<name>！</name>
						<rate>
							<timebase>59</timebase>
							<ntsc>TRUE</ntsc>
						</rate>
						<rate>
							<timebase>59</timebase>
							<ntsc>TRUE</ntsc>
						</rate>
						<duration>60</duration>
						<start>11824</start>
						<end>11884</end>
						<in>0</in>
						<out>60</out>
					</clipitem>
					<clipitem frameBlend="FALSE" id="clipitem-telop-1410">
						<file id="file-2"/>
						<name>！</name>
						<rate>
							<timebase>59</timebase>
							<ntsc>TRUE</ntsc>
						</rate>
						<rate>
							<timebase>59</timebase>
							<ntsc>TRUE</ntsc>
						</rate>
						<duration>60</duration>
						<start>11902</start>
						<end>11962</end>
						<in>0</in>
						<out>60</out>
					</clipitem>
					<clipitem frameBlend="FALSE" id="clipitem-telop-1419">
						<file id="file-2"/>
						<name>！</name>
						<rate>
							<timebase>59</timebase>
							<ntsc>TRUE</ntsc>
						</rate>
						<rate>
							<timebase>59</timebase>
							<ntsc>TRUE</ntsc>
						</rate>
						<duration>60</duration>
						<start>11986</start>
						<end>12046</end>
						<in>0</in>
						<out>60</out>
					</clipitem>
					<clipitem frameBlend="FALSE" id="clipitem-telop-1429">
						<file id="file-2"/>
						<name>！</name>
						<rate>
							<timebase>59</timebase>
							<ntsc>TRUE</ntsc>
						</rate>
						<rate>
							<timebase>59</timebase>
							<ntsc>TRUE</ntsc>
						</rate>
						<duration>60</duration>
						<start>12052</start>
						<end>12112</end>
						<in>0</in>
						<out>60</out>
					</clipitem>
					<clipitem frameBlend="FALSE" id="clipitem-telop-1437">
						<file id="file-2"/>
						<name>！</name>
						<rate>
							<timebase>59</timebase>
							<ntsc>TRUE</ntsc>
						</rate>
						<rate>
							<timebase>59</timebase>
							<ntsc>TRUE</ntsc>
						</rate>
						<duration>60</duration>
						<start>12112</start>
						<end>12172</end>
						<in>0</in>
						<out>60</out>
					</clipitem>
					<clipitem frameBlend="FALSE" id="clipitem-telop-1445">
						<file id="file-2"/>
						<name>！</name>
						<rate>
							<timebase>59</timebase>
							<ntsc>TRUE</ntsc>
						</rate>
						<rate>
							<timebase>59</timebase>
							<ntsc>TRUE</ntsc>
						</rate>
						<duration>60</duration>
						<start>12196</start>
						<end>12256</end>
						<in>0</in>
						<out>60</out>
					</clipitem>
					<clipitem frameBlend="FALSE" id="clipitem-telop-1457">
						<file id="file-2"/>
						<name>！</name>
						<rate>
							<timebase>59</timebase>
							<ntsc>TRUE</ntsc>
						</rate>
						<rate>
							<timebase>59</timebase>
							<ntsc>TRUE</ntsc>
						</rate>
						<duration>60</duration>
						<start>12268</start>
						<end>12328</end>
						<in>0</in>
						<out>60</out>
					</clipitem>
					<clipitem frameBlend="FALSE" id="clipitem-telop-1465">
						<file id="file-2"/>
						<name>！</name>
						<rate>
							<timebase>59</timebase>
							<ntsc>TRUE</ntsc>
						</rate>
						<rate>
							<timebase>59</timebase>
							<ntsc>TRUE</ntsc>
						</rate>
						<duration>60</duration>
						<start>12376</start>
						<end>12436</end>
						<in>0</in>
						<out>60</out>
					</clipitem>
					<clipitem frameBlend="FALSE" id="clipitem-telop-1472">
						<file id="file-2"/>
						<name>！</name>
						<rate>
							<timebase>59</timebase>
							<ntsc>TRUE</ntsc>
						</rate>
						<rate>
							<timebase>59</timebase>
							<ntsc>TRUE</ntsc>
						</rate>
						<duration>60</duration>
						<start>12442</start>
						<end>12502</end>
						<in>0</in>
						<out>60</out>
					</clipitem>
					<clipitem frameBlend="FALSE" id="clipitem-telop-1481">
						<file id="file-2"/>
						<name>！</name>
						<rate>
							<timebase>59</timebase>
							<ntsc>TRUE</ntsc>
						</rate>
						<rate>
							<timebase>59</timebase>
							<ntsc>TRUE</ntsc>
						</rate>
						<duration>66</duration>
						<start>12508</start>
						<end>12574</end>
						<in>0</in>
						<out>66</out>
					</clipitem>
					<clipitem frameBlend="FALSE" id="clipitem-telop-1488">
						<file id="file-2"/>
						<name>！</name>
						<rate>
							<timebase>59</timebase>
							<ntsc>TRUE</ntsc>
						</rate>
						<rate>
							<timebase>59</timebase>
							<ntsc>TRUE</ntsc>
						</rate>
						<duration>66</duration>
						<start>12574</start>
						<end>12640</end>
						<in>0</in>
						<out>66</out>
					</clipitem>
					<clipitem frameBlend="FALSE" id="clipitem-telop-1500">
						<file id="file-2"/>
						<name>！</name>
						<rate>
							<timebase>59</timebase>
							<ntsc>TRUE</ntsc>
						</rate>
						<rate>
							<timebase>59</timebase>
							<ntsc>TRUE</ntsc>
						</rate>
						<duration>60</duration>
						<start>12640</start>
						<end>12700</end>
						<in>0</in>
						<out>60</out>
					</clipitem>
					<clipitem frameBlend="FALSE" id="clipitem-telop-1513">
						<file id="file-2"/>
						<name>！</name>
						<rate>
							<timebase>59</timebase>
							<ntsc>TRUE</ntsc>
						</rate>
						<rate>
							<timebase>59</timebase>
							<ntsc>TRUE</ntsc>
						</rate>
						<duration>60</duration>
						<start>12748</start>
						<end>12808</end>
						<in>0</in>
						<out>60</out>
					</clipitem>
					<clipitem frameBlend="FALSE" id="clipitem-telop-1522">
						<file id="file-2"/>
						<name>！</name>
						<rate>
							<timebase>59</timebase>
							<ntsc>TRUE</ntsc>
						</rate>
						<rate>
							<timebase>59</timebase>
							<ntsc>TRUE</ntsc>
						</rate>
						<duration>66</duration>
						<start>12826</start>
						<end>12892</end>
						<in>0</in>
						<out>66</out>
					</clipitem>
					<clipitem frameBlend="FALSE" id="clipitem-telop-1530">
						<file id="file-2"/>
						<name>！</name>
						<rate>
							<timebase>59</timebase>
							<ntsc>TRUE</ntsc>
						</rate>
						<rate>
							<timebase>59</timebase>
							<ntsc>TRUE</ntsc>
						</rate>
						<duration>66</duration>
						<start>12898</start>
						<end>12964</end>
						<in>0</in>
						<out>66</out>
					</clipitem>
					<clipitem frameBlend="FALSE" id="clipitem-telop-1538">
						<file id="file-2"/>
						<name>！</name>
						<rate>
							<timebase>59</timebase>
							<ntsc>TRUE</ntsc>
						</rate>
						<rate>
							<timebase>59</timebase>
							<ntsc>TRUE</ntsc>
						</rate>
						<duration>60</duration>
						<start>12970</start>
						<end>13030</end>
						<in>0</in>
						<out>60</out>
					</clipitem>
					<clipitem frameBlend="FALSE" id="clipitem-telop-1547">
						<file id="file-2"/>
						<name>！</name>
						<rate>
							<timebase>59</timebase>
							<ntsc>TRUE</ntsc>
						</rate>
						<rate>
							<timebase>59</timebase>
							<ntsc>TRUE</ntsc>
						</rate>
						<duration>60</duration>
						<start>13054</start>
						<end>13114</end>
						<in>0</in>
						<out>60</out>
					</clipitem>
					<clipitem frameBlend="FALSE" id="clipitem-telop-1556">
						<file id="file-2"/>
						<name>！</name>
						<rate>
							<timebase>59</timebase>
							<ntsc>TRUE</ntsc>
						</rate>
						<rate>
							<timebase>59</timebase>
							<ntsc>TRUE</ntsc>
						</rate>
						<duration>60</duration>
						<start>13120</start>
						<end>13180</end>
						<in>0</in>
						<out>60</out>
					</clipitem>
					<clipitem frameBlend="FALSE" id="clipitem-telop-1561">
						<file id="file-2"/>
						<name>！</name>
						<rate>
							<timebase>59</timebase>
							<ntsc>TRUE</ntsc>
						</rate>
						<rate>
							<timebase>59</timebase>
							<ntsc>TRUE</ntsc>
						</rate>
						<duration>60</duration>
						<start>13204</start>
						<end>13264</end>
						<in>0</in>
						<out>60</out>
					</clipitem>
					<clipitem frameBlend="FALSE" id="clipitem-telop-1570">
						<file id="file-2"/>
						<name>！</name>
						<rate>
							<timebase>59</timebase>
							<ntsc>TRUE</ntsc>
						</rate>
						<rate>
							<timebase>59</timebase>
							<ntsc>TRUE</ntsc>
						</rate>
						<duration>60</duration>
						<start>13270</start>
						<end>13330</end>
						<in>0</in>
						<out>60</out>
					</clipitem>
					<clipitem frameBlend="FALSE" id="clipitem-telop-1579">
						<file id="file-2"/>
						<name>！</name>
						<rate>
							<timebase>59</timebase>
							<ntsc>TRUE</ntsc>
						</rate>
						<rate>
							<timebase>59</timebase>
							<ntsc>TRUE</ntsc>
						</rate>
						<duration>66</duration>
						<start>13360</start>
						<end>13426</end>
						<in>0</in>
						<out>66</out>
					</clipitem>
					<clipitem frameBlend="FALSE" id="clipitem-telop-1587">
						<file id="file-2"/>
						<name>！</name>
						<rate>
							<timebase>59</timebase>
							<ntsc>TRUE</ntsc>
						</rate>
						<rate>
							<timebase>59</timebase>
							<ntsc>TRUE</ntsc>
						</rate>
						<duration>60</duration>
						<start>13432</start>
						<end>13492</end>
						<in>0</in>
						<out>60</out>
					</clipitem>
					<clipitem frameBlend="FALSE" id="clipitem-telop-1591">
						<file id="file-2"/>
						<name>！</name>
						<rate>
							<timebase>59</timebase>
							<ntsc>TRUE</ntsc>
						</rate>
						<rate>
							<timebase>59</timebase>
							<ntsc>TRUE</ntsc>
						</rate>
						<duration>60</duration>
						<start>13492</start>
						<end>13552</end>
						<in>0</in>
						<out>60</out>
					</clipitem>
					<clipitem frameBlend="FALSE" id="clipitem-telop-1602">
						<file id="file-2"/>
						<name>！</name>
						<rate>
							<timebase>59</timebase>
							<ntsc>TRUE</ntsc>
						</rate>
						<rate>
							<timebase>59</timebase>
							<ntsc>TRUE</ntsc>
						</rate>
						<duration>60</duration>
						<start>13558</start>
						<end>13618</end>
						<in>0</in>
						<out>60</out>
					</clipitem>
					<clipitem frameBlend="FALSE" id="clipitem-telop-1611">
						<file id="file-2"/>
						<name>！</name>
						<rate>
							<timebase>59</timebase>
							<ntsc>TRUE</ntsc>
						</rate>
						<rate>
							<timebase>59</timebase>
							<ntsc>TRUE</ntsc>
						</rate>
						<duration>66</duration>
						<start>13630</start>
						<end>13696</end>
						<in>0</in>
						<out>66</out>
					</clipitem>
					<clipitem frameBlend="FALSE" id="clipitem-telop-1618">
						<file id="file-2"/>
						<name>！</name>
						<rate>
							<timebase>59</timebase>
							<ntsc>TRUE</ntsc>
						</rate>
						<rate>
							<timebase>59</timebase>
							<ntsc>TRUE</ntsc>
						</rate>
						<duration>60</duration>
						<start>13696</start>
						<end>13756</end>
						<in>0</in>
						<out>60</out>
					</clipitem>
					<clipitem frameBlend="FALSE" id="clipitem-telop-1627">
						<file id="file-2"/>
						<name>！</name>
						<rate>
							<timebase>59</timebase>
							<ntsc>TRUE</ntsc>
						</rate>
						<rate>
							<timebase>59</timebase>
							<ntsc>TRUE</ntsc>
						</rate>
						<duration>60</duration>
						<start>13762</start>
						<end>13822</end>
						<in>0</in>
						<out>60</out>
					</clipitem>
					<clipitem frameBlend="FALSE" id="clipitem-telop-1636">
						<file id="file-2"/>
						<name>！</name>
						<rate>
							<timebase>59</timebase>
							<ntsc>TRUE</ntsc>
						</rate>
						<rate>
							<timebase>59</timebase>
							<ntsc>TRUE</ntsc>
						</rate>
						<duration>60</duration>
						<start>13822</start>
						<end>13882</end>
						<in>0</in>
						<out>60</out>
					</clipitem>
					<clipitem frameBlend="FALSE" id="clipitem-telop-1640">
						<file id="file-2"/>
						<name>！</name>
						<rate>
							<timebase>59</timebase>
							<ntsc>TRUE</ntsc>
						</rate>
						<rate>
							<timebase>59</timebase>
							<ntsc>TRUE</ntsc>
						</rate>
						<duration>60</duration>
						<start>13888</start>
						<end>13948</end>
						<in>0</in>
						<out>60</out>
					</clipitem>
					<clipitem frameBlend="FALSE" id="clipitem-telop-1649">
						<file id="file-2"/>
						<name>！</name>
						<rate>
							<timebase>59</timebase>
							<ntsc>TRUE</ntsc>
						</rate>
						<rate>
							<timebase>59</timebase>
							<ntsc>TRUE</ntsc>
						</rate>
						<duration>66</duration>
						<start>13960</start>
						<end>14026</end>
						<in>0</in>
						<out>66</out>
					</clipitem>
					<clipitem frameBlend="FALSE" id="clipitem-telop-1657">
						<file id="file-2"/>
						<name>！</name>
						<rate>
							<timebase>59</timebase>
							<ntsc>TRUE</ntsc>
						</rate>
						<rate>
							<timebase>59</timebase>
							<ntsc>TRUE</ntsc>
						</rate>
						<duration>60</duration>
						<start>14032</start>
						<end>14092</end>
						<in>0</in>
						<out>60</out>
					</clipitem>
					<clipitem frameBlend="FALSE" id="clipitem-telop-1665">
						<file id="file-2"/>
						<name>！</name>
						<rate>
							<timebase>59</timebase>
							<ntsc>TRUE</ntsc>
						</rate>
						<rate>
							<timebase>59</timebase>
							<ntsc>TRUE</ntsc>
						</rate>
						<duration>60</duration>
						<start>14104</start>
						<end>14164</end>
						<in>0</in>
						<out>60</out>
					</clipitem>
					<clipitem frameBlend="FALSE" id="clipitem-telop-1672">
						<file id="file-2"/>
						<name>！</name>
						<rate>
							<timebase>59</timebase>
							<ntsc>TRUE</ntsc>
						</rate>
						<rate>
							<timebase>59</timebase>
							<ntsc>TRUE</ntsc>
						</rate>
						<duration>60</duration>
						<start>14164</start>
						<end>14224</end>
						<in>0</in>
						<out>60</out>
					</clipitem>
					<clipitem frameBlend="FALSE" id="clipitem-telop-1683">
						<file id="file-2"/>
						<name>！</name>
						<rate>
							<timebase>59</timebase>
							<ntsc>TRUE</ntsc>
						</rate>
						<rate>
							<timebase>59</timebase>
							<ntsc>TRUE</ntsc>
						</rate>
						<duration>66</duration>
						<start>14230</start>
						<end>14296</end>
						<in>0</in>
						<out>66</out>
					</clipitem>
					<clipitem frameBlend="FALSE" id="clipitem-telop-1692">
						<file id="file-2"/>
						<name>！</name>
						<rate>
							<timebase>59</timebase>
							<ntsc>TRUE</ntsc>
						</rate>
						<rate>
							<timebase>59</timebase>
							<ntsc>TRUE</ntsc>
						</rate>
						<duration>60</duration>
						<start>14326</start>
						<end>14386</end>
						<in>0</in>
						<out>60</out>
					</clipitem>
					<clipitem frameBlend="FALSE" id="clipitem-telop-1702">
						<file id="file-2"/>
						<name>！</name>
						<rate>
							<timebase>59</timebase>
							<ntsc>TRUE</ntsc>
						</rate>
						<rate>
							<timebase>59</timebase>
							<ntsc>TRUE</ntsc>
						</rate>
						<duration>60</duration>
						<start>14428</start>
						<end>14488</end>
						<in>0</in>
						<out>60</out>
					</clipitem>
					<clipitem frameBlend="FALSE" id="clipitem-telop-1709">
						<file id="file-2"/>
						<name>！</name>
						<rate>
							<timebase>59</timebase>
							<ntsc>TRUE</ntsc>
						</rate>
						<rate>
							<timebase>59</timebase>
							<ntsc>TRUE</ntsc>
						</rate>
						<duration>60</duration>
						<start>14488</start>
						<end>14548</end>
						<in>0</in>
						<out>60</out>
					</clipitem>
					<clipitem frameBlend="FALSE" id="clipitem-telop-1717">
						<file id="file-2"/>
						<name>！</name>
						<rate>
							<timebase>59</timebase>
							<ntsc>TRUE</ntsc>
						</rate>
						<rate>
							<timebase>59</timebase>
							<ntsc>TRUE</ntsc>
						</rate>
						<duration>60</duration>
						<start>14554</start>
						<end>14614</end>
						<in>0</in>
						<out>60</out>
					</clipitem>
					<clipitem frameBlend="FALSE" id="clipitem-telop-1722">
						<file id="file-2"/>
						<name>！</name>
						<rate>
							<timebase>59</timebase>
							<ntsc>TRUE</ntsc>
						</rate>
						<rate>
							<timebase>59</timebase>
							<ntsc>TRUE</ntsc>
						</rate>
						<duration>60</duration>
						<start>14620</start>
						<end>14680</end>
						<in>0</in>
						<out>60</out>
					</clipitem>
					<clipitem frameBlend="FALSE" id="clipitem-telop-1732">
						<file id="file-2"/>
						<name>！</name>
						<rate>
							<timebase>59</timebase>
							<ntsc>TRUE</ntsc>
						</rate>
						<rate>
							<timebase>59</timebase>
							<ntsc>TRUE</ntsc>
						</rate>
						<duration>60</duration>
						<start>14686</start>
						<end>14746</end>
						<in>0</in>
						<out>60</out>
					</clipitem>
					<clipitem frameBlend="FALSE" id="clipitem-telop-1741">
						<file id="file-2"/>
						<name>！</name>
						<rate>
							<timebase>59</timebase>
							<ntsc>TRUE</ntsc>
						</rate>
						<rate>
							<timebase>59</timebase>
							<ntsc>TRUE</ntsc>
						</rate>
						<duration>60</duration>
						<start>14746</start>
						<end>14806</end>
						<in>0</in>
						<out>60</out>
					</clipitem>
					<clipitem frameBlend="FALSE" id="clipitem-telop-1747">
						<file id="file-2"/>
						<name>！</name>
						<rate>
							<timebase>59</timebase>
							<ntsc>TRUE</ntsc>
						</rate>
						<rate>
							<timebase>59</timebase>
							<ntsc>TRUE</ntsc>
						</rate>
						<duration>60</duration>
						<start>14806</start>
						<end>14866</end>
						<in>0</in>
						<out>60</out>
					</clipitem>
					<clipitem frameBlend="FALSE" id="clipitem-telop-1753">
						<file id="file-2"/>
						<name>！</name>
						<rate>
							<timebase>59</timebase>
							<ntsc>TRUE</ntsc>
						</rate>
						<rate>
							<timebase>59</timebase>
							<ntsc>TRUE</ntsc>
						</rate>
						<duration>60</duration>
						<start>14938</start>
						<end>14998</end>
						<in>0</in>
						<out>60</out>
					</clipitem>
					<clipitem frameBlend="FALSE" id="clipitem-telop-1761">
						<file id="file-2"/>
						<name>！</name>
						<rate>
							<timebase>59</timebase>
							<ntsc>TRUE</ntsc>
						</rate>
						<rate>
							<timebase>59</timebase>
							<ntsc>TRUE</ntsc>
						</rate>
						<duration>60</duration>
						<start>14998</start>
						<end>15058</end>
						<in>0</in>
						<out>60</out>
					</clipitem>
					<clipitem frameBlend="FALSE" id="clipitem-telop-1769">
						<file id="file-2"/>
						<name>！</name>
						<rate>
							<timebase>59</timebase>
							<ntsc>TRUE</ntsc>
						</rate>
						<rate>
							<timebase>59</timebase>
							<ntsc>TRUE</ntsc>
						</rate>
						<duration>66</duration>
						<start>15064</start>
						<end>15130</end>
						<in>0</in>
						<out>66</out>
					</clipitem>
					<clipitem frameBlend="FALSE" id="clipitem-telop-1776">
						<file id="file-2"/>
						<name>！</name>
						<rate>
							<timebase>59</timebase>
							<ntsc>TRUE</ntsc>
						</rate>
						<rate>
							<timebase>59</timebase>
							<ntsc>TRUE</ntsc>
						</rate>
						<duration>60</duration>
						<start>15136</start>
						<end>15196</end>
						<in>0</in>
						<out>60</out>
					</clipitem>
					<clipitem frameBlend="FALSE" id="clipitem-telop-1783">
						<file id="file-2"/>
						<name>！</name>
						<rate>
							<timebase>59</timebase>
							<ntsc>TRUE</ntsc>
						</rate>
						<rate>
							<timebase>59</timebase>
							<ntsc>TRUE</ntsc>
						</rate>
						<duration>60</duration>
						<start>15196</start>
						<end>15256</end>
						<in>0</in>
						<out>60</out>
					</clipitem>
					<clipitem frameBlend="FALSE" id="clipitem-telop-1788">
						<file id="file-2"/>
						<name>！</name>
						<rate>
							<timebase>59</timebase>
							<ntsc>TRUE</ntsc>
						</rate>
						<rate>
							<timebase>59</timebase>
							<ntsc>TRUE</ntsc>
						</rate>
						<duration>66</duration>
						<start>15268</start>
						<end>15334</end>
						<in>0</in>
						<out>66</out>
					</clipitem>
					<clipitem frameBlend="FALSE" id="clipitem-telop-1793">
						<file id="file-2"/>
						<name>！</name>
						<rate>
							<timebase>59</timebase>
							<ntsc>TRUE</ntsc>
						</rate>
						<rate>
							<timebase>59</timebase>
							<ntsc>TRUE</ntsc>
						</rate>
						<duration>60</duration>
						<start>15334</start>
						<end>15394</end>
						<in>0</in>
						<out>60</out>
					</clipitem>
					<clipitem frameBlend="FALSE" id="clipitem-telop-1802">
						<file id="file-2"/>
						<name>！</name>
						<rate>
							<timebase>59</timebase>
							<ntsc>TRUE</ntsc>
						</rate>
						<rate>
							<timebase>59</timebase>
							<ntsc>TRUE</ntsc>
						</rate>
						<duration>60</duration>
						<start>15394</start>
						<end>15454</end>
						<in>0</in>
						<out>60</out>
					</clipitem>
					<clipitem frameBlend="FALSE" id="clipitem-telop-1810">
						<file id="file-2"/>
						<name>！</name>
						<rate>
							<timebase>59</timebase>
							<ntsc>TRUE</ntsc>
						</rate>
						<rate>
							<timebase>59</timebase>
							<ntsc>TRUE</ntsc>
						</rate>
						<duration>60</duration>
						<start>15460</start>
						<end>15520</end>
						<in>0</in>
						<out>60</out>
					</clipitem>
					<clipitem frameBlend="FALSE" id="clipitem-telop-1819">
						<file id="file-2"/>
						<name>！</name>
						<rate>
							<timebase>59</timebase>
							<ntsc>TRUE</ntsc>
						</rate>
						<rate>
							<timebase>59</timebase>
							<ntsc>TRUE</ntsc>
						</rate>
						<duration>60</duration>
						<start>15550</start>
						<end>15610</end>
						<in>0</in>
						<out>60</out>
					</clipitem>
					<clipitem frameBlend="FALSE" id="clipitem-telop-1828">
						<file id="file-2"/>
						<name>！</name>
						<rate>
							<timebase>59</timebase>
							<ntsc>TRUE</ntsc>
						</rate>
						<rate>
							<timebase>59</timebase>
							<ntsc>TRUE</ntsc>
						</rate>
						<duration>60</duration>
						<start>15634</start>
						<end>15694</end>
						<in>0</in>
						<out>60</out>
					</clipitem>
					<clipitem frameBlend="FALSE" id="clipitem-telop-1835">
						<file id="file-2"/>
						<name>！</name>
						<rate>
							<timebase>59</timebase>
							<ntsc>TRUE</ntsc>
						</rate>
						<rate>
							<timebase>59</timebase>
							<ntsc>TRUE</ntsc>
						</rate>
						<duration>60</duration>
						<start>15718</start>
						<end>15778</end>
						<in>0</in>
						<out>60</out>
					</clipitem>
					<clipitem frameBlend="FALSE" id="clipitem-telop-1842">
						<file id="file-2"/>
						<name>！</name>
						<rate>
							<timebase>59</timebase>
							<ntsc>TRUE</ntsc>
						</rate>
						<rate>
							<timebase>59</timebase>
							<ntsc>TRUE</ntsc>
						</rate>
						<duration>66</duration>
						<start>15778</start>
						<end>15844</end>
						<in>0</in>
						<out>66</out>
					</clipitem>
					<clipitem frameBlend="FALSE" id="clipitem-telop-1848">
						<file id="file-2"/>
						<name>！</name>
						<rate>
							<timebase>59</timebase>
							<ntsc>TRUE</ntsc>
						</rate>
						<rate>
							<timebase>59</timebase>
							<ntsc>TRUE</ntsc>
						</rate>
						<duration>60</duration>
						<start>15850</start>
						<end>15910</end>
						<in>0</in>
						<out>60</out>
					</clipitem>
					<clipitem frameBlend="FALSE" id="clipitem-telop-1862">
						<file id="file-2"/>
						<name>！</name>
						<rate>
							<timebase>59</timebase>
							<ntsc>TRUE</ntsc>
						</rate>
						<rate>
							<timebase>59</timebase>
							<ntsc>TRUE</ntsc>
						</rate>
						<duration>60</duration>
						<start>15940</start>
						<end>16000</end>
						<in>0</in>
						<out>60</out>
					</clipitem>
					<clipitem frameBlend="FALSE" id="clipitem-telop-1868">
						<file id="file-2"/>
						<name>！</name>
						<rate>
							<timebase>59</timebase>
							<ntsc>TRUE</ntsc>
						</rate>
						<rate>
							<timebase>59</timebase>
							<ntsc>TRUE</ntsc>
						</rate>
						<duration>60</duration>
						<start>16000</start>
						<end>16060</end>
						<in>0</in>
						<out>60</out>
					</clipitem>
					<clipitem frameBlend="FALSE" id="clipitem-telop-1876">
						<file id="file-2"/>
						<name>！</name>
						<rate>
							<timebase>59</timebase>
							<ntsc>TRUE</ntsc>
						</rate>
						<rate>
							<timebase>59</timebase>
							<ntsc>TRUE</ntsc>
						</rate>
						<duration>60</duration>
						<start>16060</start>
						<end>16120</end>
						<in>0</in>
						<out>60</out>
					</clipitem>
					<clipitem frameBlend="FALSE" id="clipitem-telop-1886">
						<file id="file-2"/>
						<name>！</name>
						<rate>
							<timebase>59</timebase>
							<ntsc>TRUE</ntsc>
						</rate>
						<rate>
							<timebase>59</timebase>
							<ntsc>TRUE</ntsc>
						</rate>
						<duration>60</duration>
						<start>16120</start>
						<end>16180</end>
						<in>0</in>
						<out>60</out>
					</clipitem>
					<clipitem frameBlend="FALSE" id="clipitem-telop-1893">
						<file id="file-2"/>
						<name>！</name>
						<rate>
							<timebase>59</timebase>
							<ntsc>TRUE</ntsc>
						</rate>
						<rate>
							<timebase>59</timebase>
							<ntsc>TRUE</ntsc>
						</rate>
						<duration>60</duration>
						<start>16180</start>
						<end>16240</end>
						<in>0</in>
						<out>60</out>
					</clipitem>
					<clipitem frameBlend="FALSE" id="clipitem-telop-1900">
						<file id="file-2"/>
						<name>！</name>
						<rate>
							<timebase>59</timebase>
							<ntsc>TRUE</ntsc>
						</rate>
						<rate>
							<timebase>59</timebase>
							<ntsc>TRUE</ntsc>
						</rate>
						<duration>60</duration>
						<start>16240</start>
						<end>16300</end>
						<in>0</in>
						<out>60</out>
					</clipitem>
					<clipitem frameBlend="FALSE" id="clipitem-telop-1909">
						<file id="file-2"/>
						<name>！</name>
						<rate>
							<timebase>59</timebase>
							<ntsc>TRUE</ntsc>
						</rate>
						<rate>
							<timebase>59</timebase>
							<ntsc>TRUE</ntsc>
						</rate>
						<duration>66</duration>
						<start>16300</start>
						<end>16366</end>
						<in>0</in>
						<out>66</out>
					</clipitem>
					<clipitem frameBlend="FALSE" id="clipitem-telop-1916">
						<file id="file-2"/>
						<name>！</name>
						<rate>
							<timebase>59</timebase>
							<ntsc>TRUE</ntsc>
						</rate>
						<rate>
							<timebase>59</timebase>
							<ntsc>TRUE</ntsc>
						</rate>
						<duration>59</duration>
						<start>16366</start>
						<end>16425</end>
						<in>0</in>
						<out>59</out>
					</clipitem>
					<clipitem frameBlend="FALSE" id="clipitem-telop-1928">
						<file id="file-2"/>
						<name>！</name>
						<rate>
							<timebase>59</timebase>
							<ntsc>TRUE</ntsc>
						</rate>
						<rate>
							<timebase>59</timebase>
							<ntsc>TRUE</ntsc>
						</rate>
						<duration>60</duration>
						<start>16431</start>
						<end>16491</end>
						<in>0</in>
						<out>60</out>
					</clipitem>
					<clipitem frameBlend="FALSE" id="clipitem-telop-1935">
						<file id="file-2"/>
						<name>！</name>
						<rate>
							<timebase>59</timebase>
							<ntsc>TRUE</ntsc>
						</rate>
						<rate>
							<timebase>59</timebase>
							<ntsc>TRUE</ntsc>
						</rate>
						<duration>60</duration>
						<start>16509</start>
						<end>16569</end>
						<in>0</in>
						<out>60</out>
					</clipitem>
					<clipitem frameBlend="FALSE" id="clipitem-telop-1943">
						<file id="file-2"/>
						<name>！</name>
						<rate>
							<timebase>59</timebase>
							<ntsc>TRUE</ntsc>
						</rate>
						<rate>
							<timebase>59</timebase>
							<ntsc>TRUE</ntsc>
						</rate>
						<duration>60</duration>
						<start>16587</start>
						<end>16647</end>
						<in>0</in>
						<out>60</out>
					</clipitem>
					<clipitem frameBlend="FALSE" id="clipitem-telop-1950">
						<file id="file-2"/>
						<name>！</name>
						<rate>
							<timebase>59</timebase>
							<ntsc>TRUE</ntsc>
						</rate>
						<rate>
							<timebase>59</timebase>
							<ntsc>TRUE</ntsc>
						</rate>
						<duration>60</duration>
						<start>16647</start>
						<end>16707</end>
						<in>0</in>
						<out>60</out>
					</clipitem>
					<clipitem frameBlend="FALSE" id="clipitem-telop-1957">
						<file id="file-2"/>
						<name>！</name>
						<rate>
							<timebase>59</timebase>
							<ntsc>TRUE</ntsc>
						</rate>
						<rate>
							<timebase>59</timebase>
							<ntsc>TRUE</ntsc>
						</rate>
						<duration>60</duration>
						<start>16707</start>
						<end>16767</end>
						<in>0</in>
						<out>60</out>
					</clipitem>
					<clipitem frameBlend="FALSE" id="clipitem-telop-1967">
						<file id="file-2"/>
						<name>w</name>
						<rate>
							<timebase>59</timebase>
							<ntsc>TRUE</ntsc>
						</rate>
						<rate>
							<timebase>59</timebase>
							<ntsc>TRUE</ntsc>
						</rate>
						<duration>30</duration>
						<start>16767</start>
						<end>16797</end>
						<in>0</in>
						<out>30</out>
					</clipitem>
					<clipitem frameBlend="FALSE" id="clipitem-telop-1973">
						<file id="file-2"/>
						<name>！</name>
						<rate>
							<timebase>59</timebase>
							<ntsc>TRUE</ntsc>
						</rate>
						<rate>
							<timebase>59</timebase>
							<ntsc>TRUE</ntsc>
						</rate>
						<duration>60</duration>
						<start>16815</start>
						<end>16875</end>
						<in>0</in>
						<out>60</out>
					</clipitem>
					<clipitem frameBlend="FALSE" id="clipitem-telop-1981">
						<file id="file-2"/>
						<name>！</name>
						<rate>
							<timebase>59</timebase>
							<ntsc>TRUE</ntsc>
						</rate>
						<rate>
							<timebase>59</timebase>
							<ntsc>TRUE</ntsc>
						</rate>
						<duration>60</duration>
						<start>16881</start>
						<end>16941</end>
						<in>0</in>
						<out>60</out>
					</clipitem>
					<clipitem frameBlend="FALSE" id="clipitem-telop-1989">
						<file id="file-2"/>
						<name>！</name>
						<rate>
							<timebase>59</timebase>
							<ntsc>TRUE</ntsc>
						</rate>
						<rate>
							<timebase>59</timebase>
							<ntsc>TRUE</ntsc>
						</rate>
						<duration>66</duration>
						<start>17013</start>
						<end>17079</end>
						<in>0</in>
						<out>66</out>
					</clipitem>
					<clipitem frameBlend="FALSE" id="clipitem-telop-1996">
						<file id="file-2"/>
						<name>！</name>
						<rate>
							<timebase>59</timebase>
							<ntsc>TRUE</ntsc>
						</rate>
						<rate>
							<timebase>59</timebase>
							<ntsc>TRUE</ntsc>
						</rate>
						<duration>60</duration>
						<start>17079</start>
						<end>17139</end>
						<in>0</in>
						<out>60</out>
					</clipitem>
					<clipitem frameBlend="FALSE" id="clipitem-telop-2005">
						<file id="file-2"/>
						<name>！</name>
						<rate>
							<timebase>59</timebase>
							<ntsc>TRUE</ntsc>
						</rate>
						<rate>
							<timebase>59</timebase>
							<ntsc>TRUE</ntsc>
						</rate>
						<duration>60</duration>
						<start>17139</start>
						<end>17199</end>
						<in>0</in>
						<out>60</out>
					</clipitem>
					<clipitem frameBlend="FALSE" id="clipitem-telop-2015">
						<file id="file-2"/>
						<name>！</name>
						<rate>
							<timebase>59</timebase>
							<ntsc>TRUE</ntsc>
						</rate>
						<rate>
							<timebase>59</timebase>
							<ntsc>TRUE</ntsc>
						</rate>
						<duration>60</duration>
						<start>17205</start>
						<end>17265</end>
						<in>0</in>
						<out>60</out>
					</clipitem>
					<clipitem frameBlend="FALSE" id="clipitem-telop-2020">
						<file id="file-2"/>
						<name>！</name>
						<rate>
							<timebase>59</timebase>
							<ntsc>TRUE</ntsc>
						</rate>
						<rate>
							<timebase>59</timebase>
							<ntsc>TRUE</ntsc>
						</rate>
						<duration>66</duration>
						<start>17265</start>
						<end>17331</end>
						<in>0</in>
						<out>66</out>
					</clipitem>
					<clipitem frameBlend="FALSE" id="clipitem-telop-2028">
						<file id="file-2"/>
						<name>！</name>
						<rate>
							<timebase>59</timebase>
							<ntsc>TRUE</ntsc>
						</rate>
						<rate>
							<timebase>59</timebase>
							<ntsc>TRUE</ntsc>
						</rate>
						<duration>60</duration>
						<start>17337</start>
						<end>17397</end>
						<in>0</in>
						<out>60</out>
					</clipitem>
					<clipitem frameBlend="FALSE" id="clipitem-telop-2032">
						<file id="file-2"/>
						<name>！</name>
						<rate>
							<timebase>59</timebase>
							<ntsc>TRUE</ntsc>
						</rate>
						<rate>
							<timebase>59</timebase>
							<ntsc>TRUE</ntsc>
						</rate>
						<duration>60</duration>
						<start>17397</start>
						<end>17457</end>
						<in>0</in>
						<out>60</out>
					</clipitem>
					<clipitem frameBlend="FALSE" id="clipitem-telop-2039">
						<file id="file-2"/>
						<name>！</name>
						<rate>
							<timebase>59</timebase>
							<ntsc>TRUE</ntsc>
						</rate>
						<rate>
							<timebase>59</timebase>
							<ntsc>TRUE</ntsc>
						</rate>
						<duration>60</duration>
						<start>17463</start>
						<end>17523</end>
						<in>0</in>
						<out>60</out>
					</clipitem>
					<clipitem frameBlend="FALSE" id="clipitem-telop-2045">
						<file id="file-2"/>
						<name>！</name>
						<rate>
							<timebase>59</timebase>
							<ntsc>TRUE</ntsc>
						</rate>
						<rate>
							<timebase>59</timebase>
							<ntsc>TRUE</ntsc>
						</rate>
						<duration>60</duration>
						<start>17523</start>
						<end>17583</end>
						<in>0</in>
						<out>60</out>
					</clipitem>
					<clipitem frameBlend="FALSE" id="clipitem-telop-2052">
						<file id="file-2"/>
						<name>！</name>
						<rate>
							<timebase>59</timebase>
							<ntsc>TRUE</ntsc>
						</rate>
						<rate>
							<timebase>59</timebase>
							<ntsc>TRUE</ntsc>
						</rate>
						<duration>60</duration>
						<start>17595</start>
						<end>17655</end>
						<in>0</in>
						<out>60</out>
					</clipitem>
					<clipitem frameBlend="FALSE" id="clipitem-telop-2059">
						<file id="file-2"/>
						<name>！</name>
						<rate>
							<timebase>59</timebase>
							<ntsc>TRUE</ntsc>
						</rate>
						<rate>
							<timebase>59</timebase>
							<ntsc>TRUE</ntsc>
						</rate>
						<duration>60</duration>
						<start>17667</start>
						<end>17727</end>
						<in>0</in>
						<out>60</out>
					</clipitem>
					<clipitem frameBlend="FALSE" id="clipitem-telop-2063">
						<file id="file-2"/>
						<name>！</name>
						<rate>
							<timebase>59</timebase>
							<ntsc>TRUE</ntsc>
						</rate>
						<rate>
							<timebase>59</timebase>
							<ntsc>TRUE</ntsc>
						</rate>
						<duration>60</duration>
						<start>17739</start>
						<end>17799</end>
						<in>0</in>
						<out>60</out>
					</clipitem>
					<clipitem frameBlend="FALSE" id="clipitem-telop-2073">
						<file id="file-2"/>
						<name>！</name>
						<rate>
							<timebase>59</timebase>
							<ntsc>TRUE</ntsc>
						</rate>
						<rate>
							<timebase>59</timebase>
							<ntsc>TRUE</ntsc>
						</rate>
						<duration>66</duration>
						<start>17799</start>
						<end>17865</end>
						<in>0</in>
						<out>66</out>
					</clipitem>
					<clipitem frameBlend="FALSE" id="clipitem-telop-2078">
						<file id="file-2"/>
						<name>！</name>
						<rate>
							<timebase>59</timebase>
							<ntsc>TRUE</ntsc>
						</rate>
						<rate>
							<timebase>59</timebase>
							<ntsc>TRUE</ntsc>
						</rate>
						<duration>60</duration>
						<start>17877</start>
						<end>17937</end>
						<in>0</in>
						<out>60</out>
					</clipitem>
					<clipitem frameBlend="FALSE" id="clipitem-telop-2086">
						<file id="file-2"/>
						<name>！</name>
						<rate>
							<timebase>59</timebase>
							<ntsc>TRUE</ntsc>
						</rate>
						<rate>
							<timebase>59</timebase>
							<ntsc>TRUE</ntsc>
						</rate>
						<duration>66</duration>
						<start>17937</start>
						<end>18003</end>
						<in>0</in>
						<out>66</out>
					</clipitem>
					<clipitem frameBlend="FALSE" id="clipitem-telop-2097">
						<file id="file-2"/>
						<name>！</name>
						<rate>
							<timebase>59</timebase>
							<ntsc>TRUE</ntsc>
						</rate>
						<rate>
							<timebase>59</timebase>
							<ntsc>TRUE</ntsc>
						</rate>
						<duration>60</duration>
						<start>18015</start>
						<end>18075</end>
						<in>0</in>
						<out>60</out>
					</clipitem>
					<clipitem frameBlend="FALSE" id="clipitem-telop-2105">
						<file id="file-2"/>
						<name>！</name>
						<rate>
							<timebase>59</timebase>
							<ntsc>TRUE</ntsc>
						</rate>
						<rate>
							<timebase>59</timebase>
							<ntsc>TRUE</ntsc>
						</rate>
						<duration>60</duration>
						<start>18075</start>
						<end>18135</end>
						<in>0</in>
						<out>60</out>
					</clipitem>
					<clipitem frameBlend="FALSE" id="clipitem-telop-2112">
						<file id="file-2"/>
						<name>！</name>
						<rate>
							<timebase>59</timebase>
							<ntsc>TRUE</ntsc>
						</rate>
						<rate>
							<timebase>59</timebase>
							<ntsc>TRUE</ntsc>
						</rate>
						<duration>60</duration>
						<start>18141</start>
						<end>18201</end>
						<in>0</in>
						<out>60</out>
					</clipitem>
					<clipitem frameBlend="FALSE" id="clipitem-telop-2120">
						<file id="file-2"/>
						<name>！</name>
						<rate>
							<timebase>59</timebase>
							<ntsc>TRUE</ntsc>
						</rate>
						<rate>
							<timebase>59</timebase>
							<ntsc>TRUE</ntsc>
						</rate>
						<duration>60</duration>
						<start>18201</start>
						<end>18261</end>
						<in>0</in>
						<out>60</out>
					</clipitem>
					<clipitem frameBlend="FALSE" id="clipitem-telop-2127">
						<file id="file-2"/>
						<name>ミルクお嬢様のご知事とあれば</name>
						<rate>
							<timebase>59</timebase>
							<ntsc>TRUE</ntsc>
						</rate>
						<rate>
							<timebase>59</timebase>
							<ntsc>TRUE</ntsc>
						</rate>
						<duration>240</duration>
						<start>18291</start>
						<end>18531</end>
						<in>0</in>
						<out>240</out>
					</clipitem>
					<clipitem frameBlend="FALSE" id="clipitem-telop-2148">
						<file id="file-2"/>
						<name>！</name>
						<rate>
							<timebase>59</timebase>
							<ntsc>TRUE</ntsc>
						</rate>
						<rate>
							<timebase>59</timebase>
							<ntsc>TRUE</ntsc>
						</rate>
						<duration>60</duration>
						<start>18537</start>
						<end>18597</end>
						<in>0</in>
						<out>60</out>
					</clipitem>
					<clipitem frameBlend="FALSE" id="clipitem-telop-2157">
						<file id="file-2"/>
						<name>！</name>
						<rate>
							<timebase>59</timebase>
							<ntsc>TRUE</ntsc>
						</rate>
						<rate>
							<timebase>59</timebase>
							<ntsc>TRUE</ntsc>
						</rate>
						<duration>60</duration>
						<start>18603</start>
						<end>18663</end>
						<in>0</in>
						<out>60</out>
					</clipitem>
					<clipitem frameBlend="FALSE" id="clipitem-telop-2166">
						<file id="file-2"/>
						<name>！</name>
						<rate>
							<timebase>59</timebase>
							<ntsc>TRUE</ntsc>
						</rate>
						<rate>
							<timebase>59</timebase>
							<ntsc>TRUE</ntsc>
						</rate>
						<duration>60</duration>
						<start>18735</start>
						<end>18795</end>
						<in>0</in>
						<out>60</out>
					</clipitem>
					<clipitem frameBlend="FALSE" id="clipitem-telop-2176">
						<file id="file-2"/>
						<name>！</name>
						<rate>
							<timebase>59</timebase>
							<ntsc>TRUE</ntsc>
						</rate>
						<rate>
							<timebase>59</timebase>
							<ntsc>TRUE</ntsc>
						</rate>
						<duration>60</duration>
						<start>18795</start>
						<end>18855</end>
						<in>0</in>
						<out>60</out>
					</clipitem>
					<clipitem frameBlend="FALSE" id="clipitem-telop-2182">
						<file id="file-2"/>
						<name>！</name>
						<rate>
							<timebase>59</timebase>
							<ntsc>TRUE</ntsc>
						</rate>
						<rate>
							<timebase>59</timebase>
							<ntsc>TRUE</ntsc>
						</rate>
						<duration>60</duration>
						<start>18921</start>
						<end>18981</end>
						<in>0</in>
						<out>60</out>
					</clipitem>
					<clipitem frameBlend="FALSE" id="clipitem-telop-2187">
						<file id="file-2"/>
						<name>！</name>
						<rate>
							<timebase>59</timebase>
							<ntsc>TRUE</ntsc>
						</rate>
						<rate>
							<timebase>59</timebase>
							<ntsc>TRUE</ntsc>
						</rate>
						<duration>66</duration>
						<start>19011</start>
						<end>19077</end>
						<in>0</in>
						<out>66</out>
					</clipitem>
					<clipitem frameBlend="FALSE" id="clipitem-telop-2200">
						<file id="file-2"/>
						<name>！</name>
						<rate>
							<timebase>59</timebase>
							<ntsc>TRUE</ntsc>
						</rate>
						<rate>
							<timebase>59</timebase>
							<ntsc>TRUE</ntsc>
						</rate>
						<duration>60</duration>
						<start>19083</start>
						<end>19143</end>
						<in>0</in>
						<out>60</out>
					</clipitem>
					<clipitem frameBlend="FALSE" id="clipitem-telop-2208">
						<file id="file-2"/>
						<name>！</name>
						<rate>
							<timebase>59</timebase>
							<ntsc>TRUE</ntsc>
						</rate>
						<rate>
							<timebase>59</timebase>
							<ntsc>TRUE</ntsc>
						</rate>
						<duration>60</duration>
						<start>19179</start>
						<end>19239</end>
						<in>0</in>
						<out>60</out>
					</clipitem>
					<clipitem frameBlend="FALSE" id="clipitem-telop-2214">
						<file id="file-2"/>
						<name>！</name>
						<rate>
							<timebase>59</timebase>
							<ntsc>TRUE</ntsc>
						</rate>
						<rate>
							<timebase>59</timebase>
							<ntsc>TRUE</ntsc>
						</rate>
						<duration>60</duration>
						<start>19263</start>
						<end>19323</end>
						<in>0</in>
						<out>60</out>
					</clipitem>
					<clipitem frameBlend="FALSE" id="clipitem-telop-2221">
						<file id="file-2"/>
						<name>！</name>
						<rate>
							<timebase>59</timebase>
							<ntsc>TRUE</ntsc>
						</rate>
						<rate>
							<timebase>59</timebase>
							<ntsc>TRUE</ntsc>
						</rate>
						<duration>60</duration>
						<start>19323</start>
						<end>19383</end>
						<in>0</in>
						<out>60</out>
					</clipitem>
					<clipitem frameBlend="FALSE" id="clipitem-telop-2233">
						<file id="file-2"/>
						<name>！</name>
						<rate>
							<timebase>59</timebase>
							<ntsc>TRUE</ntsc>
						</rate>
						<rate>
							<timebase>59</timebase>
							<ntsc>TRUE</ntsc>
						</rate>
						<duration>60</duration>
						<start>19383</start>
						<end>19443</end>
						<in>0</in>
						<out>60</out>
					</clipitem>
					<clipitem frameBlend="FALSE" id="clipitem-telop-2239">
						<file id="file-2"/>
						<name>！</name>
						<rate>
							<timebase>59</timebase>
							<ntsc>TRUE</ntsc>
						</rate>
						<rate>
							<timebase>59</timebase>
							<ntsc>TRUE</ntsc>
						</rate>
						<duration>60</duration>
						<start>19443</start>
						<end>19503</end>
						<in>0</in>
						<out>60</out>
					</clipitem>
					<clipitem frameBlend="FALSE" id="clipitem-telop-2247">
						<file id="file-2"/>
						<name>！</name>
						<rate>
							<timebase>59</timebase>
							<ntsc>TRUE</ntsc>
						</rate>
						<rate>
							<timebase>59</timebase>
							<ntsc>TRUE</ntsc>
						</rate>
						<duration>60</duration>
						<start>19503</start>
						<end>19563</end>
						<in>0</in>
						<out>60</out>
					</clipitem>
					<clipitem frameBlend="FALSE" id="clipitem-telop-2253">
						<file id="file-2"/>
						<name>！</name>
						<rate>
							<timebase>59</timebase>
							<ntsc>TRUE</ntsc>
						</rate>
						<rate>
							<timebase>59</timebase>
							<ntsc>TRUE</ntsc>
						</rate>
						<duration>66</duration>
						<start>19575</start>
						<end>19641</end>
						<in>0</in>
						<out>66</out>
					</clipitem>
					<clipitem frameBlend="FALSE" id="clipitem-telop-2263">
						<file id="file-2"/>
						<name>！</name>
						<rate>
							<timebase>59</timebase>
							<ntsc>TRUE</ntsc>
						</rate>
						<rate>
							<timebase>59</timebase>
							<ntsc>TRUE</ntsc>
						</rate>
						<duration>60</duration>
						<start>19641</start>
						<end>19701</end>
						<in>0</in>
						<out>60</out>
					</clipitem>
					<clipitem frameBlend="FALSE" id="clipitem-telop-2272">
						<file id="file-2"/>
						<name>！</name>
						<rate>
							<timebase>59</timebase>
							<ntsc>TRUE</ntsc>
						</rate>
						<rate>
							<timebase>59</timebase>
							<ntsc>TRUE</ntsc>
						</rate>
						<duration>60</duration>
						<start>19701</start>
						<end>19761</end>
						<in>0</in>
						<out>60</out>
					</clipitem>
					<clipitem frameBlend="FALSE" id="clipitem-telop-2278">
						<file id="file-2"/>
						<name>！</name>
						<rate>
							<timebase>59</timebase>
							<ntsc>TRUE</ntsc>
						</rate>
						<rate>
							<timebase>59</timebase>
							<ntsc>TRUE</ntsc>
						</rate>
						<duration>66</duration>
						<start>19761</start>
						<end>19827</end>
						<in>0</in>
						<out>66</out>
					</clipitem>
					<clipitem frameBlend="FALSE" id="clipitem-telop-2286">
						<file id="file-2"/>
						<name>！</name>
						<rate>
							<timebase>59</timebase>
							<ntsc>TRUE</ntsc>
						</rate>
						<rate>
							<timebase>59</timebase>
							<ntsc>TRUE</ntsc>
						</rate>
						<duration>66</duration>
						<start>19827</start>
						<end>19893</end>
						<in>0</in>
						<out>66</out>
					</clipitem>
					<clipitem frameBlend="FALSE" id="clipitem-telop-2298">
						<file id="file-2"/>
						<name>！</name>
						<rate>
							<timebase>59</timebase>
							<ntsc>TRUE</ntsc>
						</rate>
						<rate>
							<timebase>59</timebase>
							<ntsc>TRUE</ntsc>
						</rate>
						<duration>60</duration>
						<start>19923</start>
						<end>19983</end>
						<in>0</in>
						<out>60</out>
					</clipitem>
					<clipitem frameBlend="FALSE" id="clipitem-telop-2306">
						<file id="file-2"/>
						<name>！</name>
						<rate>
							<timebase>59</timebase>
							<ntsc>TRUE</ntsc>
						</rate>
						<rate>
							<timebase>59</timebase>
							<ntsc>TRUE</ntsc>
						</rate>
						<duration>60</duration>
						<start>19983</start>
						<end>20043</end>
						<in>0</in>
						<out>60</out>
					</clipitem>
					<clipitem frameBlend="FALSE" id="clipitem-telop-2311">
						<file id="file-2"/>
						<name>！</name>
						<rate>
							<timebase>59</timebase>
							<ntsc>TRUE</ntsc>
						</rate>
						<rate>
							<timebase>59</timebase>
							<ntsc>TRUE</ntsc>
						</rate>
						<duration>60</duration>
						<start>20043</start>
						<end>20103</end>
						<in>0</in>
						<out>60</out>
					</clipitem>
					<clipitem frameBlend="FALSE" id="clipitem-telop-2320">
						<file id="file-2"/>
						<name>！</name>
						<rate>
							<timebase>59</timebase>
							<ntsc>TRUE</ntsc>
						</rate>
						<rate>
							<timebase>59</timebase>
							<ntsc>TRUE</ntsc>
						</rate>
						<duration>60</duration>
						<start>20103</start>
						<end>20163</end>
						<in>0</in>
						<out>60</out>
					</clipitem>
					<clipitem frameBlend="FALSE" id="clipitem-telop-2328">
						<file id="file-2"/>
						<name>！</name>
						<rate>
							<timebase>59</timebase>
							<ntsc>TRUE</ntsc>
						</rate>
						<rate>
							<timebase>59</timebase>
							<ntsc>TRUE</ntsc>
						</rate>
						<duration>60</duration>
						<start>20205</start>
						<end>20265</end>
						<in>0</in>
						<out>60</out>
					</clipitem>
					<clipitem frameBlend="FALSE" id="clipitem-telop-2340">
						<file id="file-2"/>
						<name>！</name>
						<rate>
							<timebase>59</timebase>
							<ntsc>TRUE</ntsc>
						</rate>
						<rate>
							<timebase>59</timebase>
							<ntsc>TRUE</ntsc>
						</rate>
						<duration>60</duration>
						<start>20265</start>
						<end>20325</end>
						<in>0</in>
						<out>60</out>
					</clipitem>
					<clipitem frameBlend="FALSE" id="clipitem-telop-2349">
						<file id="file-2"/>
						<name>！</name>
						<rate>
							<timebase>59</timebase>
							<ntsc>TRUE</ntsc>
						</rate>
						<rate>
							<timebase>59</timebase>
							<ntsc>TRUE</ntsc>
						</rate>
						<duration>60</duration>
						<start>20349</start>
						<end>20409</end>
						<in>0</in>
						<out>60</out>
					</clipitem>
					<clipitem frameBlend="FALSE" id="clipitem-telop-2361">
						<file id="file-2"/>
						<name>！</name>
						<rate>
							<timebase>59</timebase>
							<ntsc>TRUE</ntsc>
						</rate>
						<rate>
							<timebase>59</timebase>
							<ntsc>TRUE</ntsc>
						</rate>
						<duration>60</duration>
						<start>20409</start>
						<end>20469</end>
						<in>0</in>
						<out>60</out>
					</clipitem>
					<clipitem frameBlend="FALSE" id="clipitem-telop-2371">
						<file id="file-2"/>
						<name>！</name>
						<rate>
							<timebase>59</timebase>
							<ntsc>TRUE</ntsc>
						</rate>
						<rate>
							<timebase>59</timebase>
							<ntsc>TRUE</ntsc>
						</rate>
						<duration>66</duration>
						<start>20481</start>
						<end>20547</end>
						<in>0</in>
						<out>66</out>
					</clipitem>
					<clipitem frameBlend="FALSE" id="clipitem-telop-2380">
						<file id="file-2"/>
						<name>！</name>
						<rate>
							<timebase>59</timebase>
							<ntsc>TRUE</ntsc>
						</rate>
						<rate>
							<timebase>59</timebase>
							<ntsc>TRUE</ntsc>
						</rate>
						<duration>60</duration>
						<start>20565</start>
						<end>20625</end>
						<in>0</in>
						<out>60</out>
					</clipitem>
					<clipitem frameBlend="FALSE" id="clipitem-telop-2388">
						<file id="file-2"/>
						<name>！</name>
						<rate>
							<timebase>59</timebase>
							<ntsc>TRUE</ntsc>
						</rate>
						<rate>
							<timebase>59</timebase>
							<ntsc>TRUE</ntsc>
						</rate>
						<duration>66</duration>
						<start>20655</start>
						<end>20721</end>
						<in>0</in>
						<out>66</out>
					</clipitem>
					<clipitem frameBlend="FALSE" id="clipitem-telop-2395">
						<file id="file-2"/>
						<name>！</name>
						<rate>
							<timebase>59</timebase>
							<ntsc>TRUE</ntsc>
						</rate>
						<rate>
							<timebase>59</timebase>
							<ntsc>TRUE</ntsc>
						</rate>
						<duration>60</duration>
						<start>20739</start>
						<end>20799</end>
						<in>0</in>
						<out>60</out>
					</clipitem>
					<clipitem frameBlend="FALSE" id="clipitem-telop-2403">
						<file id="file-2"/>
						<name>！</name>
						<rate>
							<timebase>59</timebase>
							<ntsc>TRUE</ntsc>
						</rate>
						<rate>
							<timebase>59</timebase>
							<ntsc>TRUE</ntsc>
						</rate>
						<duration>60</duration>
						<start>20805</start>
						<end>20865</end>
						<in>0</in>
						<out>60</out>
					</clipitem>
					<clipitem frameBlend="FALSE" id="clipitem-telop-2412">
						<file id="file-2"/>
						<name>！</name>
						<rate>
							<timebase>59</timebase>
							<ntsc>TRUE</ntsc>
						</rate>
						<rate>
							<timebase>59</timebase>
							<ntsc>TRUE</ntsc>
						</rate>
						<duration>60</duration>
						<start>20883</start>
						<end>20943</end>
						<in>0</in>
						<out>60</out>
					</clipitem>
					<clipitem frameBlend="FALSE" id="clipitem-telop-2418">
						<file id="file-2"/>
						<name>！</name>
						<rate>
							<timebase>59</timebase>
							<ntsc>TRUE</ntsc>
						</rate>
						<rate>
							<timebase>59</timebase>
							<ntsc>TRUE</ntsc>
						</rate>
						<duration>60</duration>
						<start>20955</start>
						<end>21015</end>
						<in>0</in>
						<out>60</out>
					</clipitem>
					<clipitem frameBlend="FALSE" id="clipitem-telop-2429">
						<file id="file-2"/>
						<name>！</name>
						<rate>
							<timebase>59</timebase>
							<ntsc>TRUE</ntsc>
						</rate>
						<rate>
							<timebase>59</timebase>
							<ntsc>TRUE</ntsc>
						</rate>
						<duration>60</duration>
						<start>21033</start>
						<end>21093</end>
						<in>0</in>
						<out>60</out>
					</clipitem>
					<clipitem frameBlend="FALSE" id="clipitem-telop-2444">
						<file id="file-2"/>
						<name>！</name>
						<rate>
							<timebase>59</timebase>
							<ntsc>TRUE</ntsc>
						</rate>
						<rate>
							<timebase>59</timebase>
							<ntsc>TRUE</ntsc>
						</rate>
						<duration>60</duration>
						<start>21093</start>
						<end>21153</end>
						<in>0</in>
						<out>60</out>
					</clipitem>
					<clipitem frameBlend="FALSE" id="clipitem-telop-2460">
						<file id="file-2"/>
						<name>！</name>
						<rate>
							<timebase>59</timebase>
							<ntsc>TRUE</ntsc>
						</rate>
						<rate>
							<timebase>59</timebase>
							<ntsc>TRUE</ntsc>
						</rate>
						<duration>60</duration>
						<start>21171</start>
						<end>21231</end>
						<in>0</in>
						<out>60</out>
					</clipitem>
					<clipitem frameBlend="FALSE" id="clipitem-telop-2471">
						<file id="file-2"/>
						<name>！</name>
						<rate>
							<timebase>59</timebase>
							<ntsc>TRUE</ntsc>
						</rate>
						<rate>
							<timebase>59</timebase>
							<ntsc>TRUE</ntsc>
						</rate>
						<duration>60</duration>
						<start>21231</start>
						<end>21291</end>
						<in>0</in>
						<out>60</out>
					</clipitem>
					<clipitem frameBlend="FALSE" id="clipitem-telop-2479">
						<file id="file-2"/>
						<name>！</name>
						<rate>
							<timebase>59</timebase>
							<ntsc>TRUE</ntsc>
						</rate>
						<rate>
							<timebase>59</timebase>
							<ntsc>TRUE</ntsc>
						</rate>
						<duration>60</duration>
						<start>21291</start>
						<end>21351</end>
						<in>0</in>
						<out>60</out>
					</clipitem>
					<clipitem frameBlend="FALSE" id="clipitem-telop-2492">
						<file id="file-2"/>
						<name>！</name>
						<rate>
							<timebase>59</timebase>
							<ntsc>TRUE</ntsc>
						</rate>
						<rate>
							<timebase>59</timebase>
							<ntsc>TRUE</ntsc>
						</rate>
						<duration>60</duration>
						<start>21363</start>
						<end>21423</end>
						<in>0</in>
						<out>60</out>
					</clipitem>
					<clipitem frameBlend="FALSE" id="clipitem-telop-2502">
						<file id="file-2"/>
						<name>！</name>
						<rate>
							<timebase>59</timebase>
							<ntsc>TRUE</ntsc>
						</rate>
						<rate>
							<timebase>59</timebase>
							<ntsc>TRUE</ntsc>
						</rate>
						<duration>60</duration>
						<start>21423</start>
						<end>21483</end>
						<in>0</in>
						<out>60</out>
					</clipitem>
					<clipitem frameBlend="FALSE" id="clipitem-telop-2511">
						<file id="file-2"/>
						<name>！</name>
						<rate>
							<timebase>59</timebase>
							<ntsc>TRUE</ntsc>
						</rate>
						<rate>
							<timebase>59</timebase>
							<ntsc>TRUE</ntsc>
						</rate>
						<duration>60</duration>
						<start>21483</start>
						<end>21543</end>
						<in>0</in>
						<out>60</out>
					</clipitem>
					<clipitem frameBlend="FALSE" id="clipitem-telop-2519">
						<file id="file-2"/>
						<name>！</name>
						<rate>
							<timebase>59</timebase>
							<ntsc>TRUE</ntsc>
						</rate>
						<rate>
							<timebase>59</timebase>
							<ntsc>TRUE</ntsc>
						</rate>
						<duration>60</duration>
						<start>21543</start>
						<end>21603</end>
						<in>0</in>
						<out>60</out>
					</clipitem>
					<clipitem frameBlend="FALSE" id="clipitem-telop-2530">
						<file id="file-2"/>
						<name>！</name>
						<rate>
							<timebase>59</timebase>
							<ntsc>TRUE</ntsc>
						</rate>
						<rate>
							<timebase>59</timebase>
							<ntsc>TRUE</ntsc>
						</rate>
						<duration>60</duration>
						<start>21621</start>
						<end>21681</end>
						<in>0</in>
						<out>60</out>
					</clipitem>
					<clipitem frameBlend="FALSE" id="clipitem-telop-2539">
						<file id="file-2"/>
						<name>！</name>
						<rate>
							<timebase>59</timebase>
							<ntsc>TRUE</ntsc>
						</rate>
						<rate>
							<timebase>59</timebase>
							<ntsc>TRUE</ntsc>
						</rate>
						<duration>60</duration>
						<start>21681</start>
						<end>21741</end>
						<in>0</in>
						<out>60</out>
					</clipitem>
					<clipitem frameBlend="FALSE" id="clipitem-telop-2550">
						<file id="file-2"/>
						<name>！</name>
						<rate>
							<timebase>59</timebase>
							<ntsc>TRUE</ntsc>
						</rate>
						<rate>
							<timebase>59</timebase>
							<ntsc>TRUE</ntsc>
						</rate>
						<duration>60</duration>
						<start>21741</start>
						<end>21801</end>
						<in>0</in>
						<out>60</out>
					</clipitem>
					<clipitem frameBlend="FALSE" id="clipitem-telop-2559">
						<file id="file-2"/>
						<name>！</name>
						<rate>
							<timebase>59</timebase>
							<ntsc>TRUE</ntsc>
						</rate>
						<rate>
							<timebase>59</timebase>
							<ntsc>TRUE</ntsc>
						</rate>
						<duration>60</duration>
						<start>21807</start>
						<end>21867</end>
						<in>0</in>
						<out>60</out>
					</clipitem>
					<clipitem frameBlend="FALSE" id="clipitem-telop-2571">
						<file id="file-2"/>
						<name>！</name>
						<rate>
							<timebase>59</timebase>
							<ntsc>TRUE</ntsc>
						</rate>
						<rate>
							<timebase>59</timebase>
							<ntsc>TRUE</ntsc>
						</rate>
						<duration>60</duration>
						<start>21867</start>
						<end>21927</end>
						<in>0</in>
						<out>60</out>
					</clipitem>
					<clipitem frameBlend="FALSE" id="clipitem-telop-2581">
						<file id="file-2"/>
						<name>！</name>
						<rate>
							<timebase>59</timebase>
							<ntsc>TRUE</ntsc>
						</rate>
						<rate>
							<timebase>59</timebase>
							<ntsc>TRUE</ntsc>
						</rate>
						<duration>66</duration>
						<start>21927</start>
						<end>21993</end>
						<in>0</in>
						<out>66</out>
					</clipitem>
					<clipitem frameBlend="FALSE" id="clipitem-telop-2588">
						<file id="file-2"/>
						<name>！</name>
						<rate>
							<timebase>59</timebase>
							<ntsc>TRUE</ntsc>
						</rate>
						<rate>
							<timebase>59</timebase>
							<ntsc>TRUE</ntsc>
						</rate>
						<duration>60</duration>
						<start>21993</start>
						<end>22053</end>
						<in>0</in>
						<out>60</out>
					</clipitem>
					<clipitem frameBlend="FALSE" id="clipitem-telop-2597">
						<file id="file-2"/>
						<name>！</name>
						<rate>
							<timebase>59</timebase>
							<ntsc>TRUE</ntsc>
						</rate>
						<rate>
							<timebase>59</timebase>
							<ntsc>TRUE</ntsc>
						</rate>
						<duration>60</duration>
						<start>22053</start>
						<end>22113</end>
						<in>0</in>
						<out>60</out>
					</clipitem>
					<clipitem frameBlend="FALSE" id="clipitem-telop-2610">
						<file id="file-2"/>
						<name>！</name>
						<rate>
							<timebase>59</timebase>
							<ntsc>TRUE</ntsc>
						</rate>
						<rate>
							<timebase>59</timebase>
							<ntsc>TRUE</ntsc>
						</rate>
						<duration>60</duration>
						<start>22119</start>
						<end>22179</end>
						<in>0</in>
						<out>60</out>
					</clipitem>
					<clipitem frameBlend="FALSE" id="clipitem-telop-2620">
						<file id="file-2"/>
						<name>！</name>
						<rate>
							<timebase>59</timebase>
							<ntsc>TRUE</ntsc>
						</rate>
						<rate>
							<timebase>59</timebase>
							<ntsc>TRUE</ntsc>
						</rate>
						<duration>60</duration>
						<start>22179</start>
						<end>22239</end>
						<in>0</in>
						<out>60</out>
					</clipitem>
					<clipitem frameBlend="FALSE" id="clipitem-telop-2631">
						<file id="file-2"/>
						<name>！</name>
						<rate>
							<timebase>59</timebase>
							<ntsc>TRUE</ntsc>
						</rate>
						<rate>
							<timebase>59</timebase>
							<ntsc>TRUE</ntsc>
						</rate>
						<duration>60</duration>
						<start>22245</start>
						<end>22305</end>
						<in>0</in>
						<out>60</out>
					</clipitem>
					<clipitem frameBlend="FALSE" id="clipitem-telop-2638">
						<file id="file-2"/>
						<name>！</name>
						<rate>
							<timebase>59</timebase>
							<ntsc>TRUE</ntsc>
						</rate>
						<rate>
							<timebase>59</timebase>
							<ntsc>TRUE</ntsc>
						</rate>
						<duration>60</duration>
						<start>22305</start>
						<end>22365</end>
						<in>0</in>
						<out>60</out>
					</clipitem>
					<clipitem frameBlend="FALSE" id="clipitem-telop-2644">
						<file id="file-2"/>
						<name>！</name>
						<rate>
							<timebase>59</timebase>
							<ntsc>TRUE</ntsc>
						</rate>
						<rate>
							<timebase>59</timebase>
							<ntsc>TRUE</ntsc>
						</rate>
						<duration>60</duration>
						<start>22365</start>
						<end>22425</end>
						<in>0</in>
						<out>60</out>
					</clipitem>
					<clipitem frameBlend="FALSE" id="clipitem-telop-2649">
						<file id="file-2"/>
						<name>！</name>
						<rate>
							<timebase>59</timebase>
							<ntsc>TRUE</ntsc>
						</rate>
						<rate>
							<timebase>59</timebase>
							<ntsc>TRUE</ntsc>
						</rate>
						<duration>60</duration>
						<start>22425</start>
						<end>22485</end>
						<in>0</in>
						<out>60</out>
					</clipitem>
					<clipitem frameBlend="FALSE" id="clipitem-telop-2664">
						<file id="file-2"/>
						<name>！</name>
						<rate>
							<timebase>59</timebase>
							<ntsc>TRUE</ntsc>
						</rate>
						<rate>
							<timebase>59</timebase>
							<ntsc>TRUE</ntsc>
						</rate>
						<duration>60</duration>
						<start>22503</start>
						<end>22563</end>
						<in>0</in>
						<out>60</out>
					</clipitem>
					<clipitem frameBlend="FALSE" id="clipitem-telop-2669">
						<file id="file-2"/>
						<name>！</name>
						<rate>
							<timebase>59</timebase>
							<ntsc>TRUE</ntsc>
						</rate>
						<rate>
							<timebase>59</timebase>
							<ntsc>TRUE</ntsc>
						</rate>
						<duration>60</duration>
						<start>22575</start>
						<end>22635</end>
						<in>0</in>
						<out>60</out>
					</clipitem>
					<clipitem frameBlend="FALSE" id="clipitem-telop-2680">
						<file id="file-2"/>
						<name>！</name>
						<rate>
							<timebase>59</timebase>
							<ntsc>TRUE</ntsc>
						</rate>
						<rate>
							<timebase>59</timebase>
							<ntsc>TRUE</ntsc>
						</rate>
						<duration>66</duration>
						<start>22653</start>
						<end>22719</end>
						<in>0</in>
						<out>66</out>
					</clipitem>
					<clipitem frameBlend="FALSE" id="clipitem-telop-2688">
						<file id="file-2"/>
						<name>！</name>
						<rate>
							<timebase>59</timebase>
							<ntsc>TRUE</ntsc>
						</rate>
						<rate>
							<timebase>59</timebase>
							<ntsc>TRUE</ntsc>
						</rate>
						<duration>60</duration>
						<start>22719</start>
						<end>22779</end>
						<in>0</in>
						<out>60</out>
					</clipitem>
					<clipitem frameBlend="FALSE" id="clipitem-telop-2700">
						<file id="file-2"/>
						<name>！</name>
						<rate>
							<timebase>59</timebase>
							<ntsc>TRUE</ntsc>
						</rate>
						<rate>
							<timebase>59</timebase>
							<ntsc>TRUE</ntsc>
						</rate>
						<duration>60</duration>
						<start>22797</start>
						<end>22857</end>
						<in>0</in>
						<out>60</out>
					</clipitem>
					<clipitem frameBlend="FALSE" id="clipitem-telop-2709">
						<file id="file-2"/>
						<name>！</name>
						<rate>
							<timebase>59</timebase>
							<ntsc>TRUE</ntsc>
						</rate>
						<rate>
							<timebase>59</timebase>
							<ntsc>TRUE</ntsc>
						</rate>
						<duration>66</duration>
						<start>22869</start>
						<end>22935</end>
						<in>0</in>
						<out>66</out>
					</clipitem>
					<clipitem frameBlend="FALSE" id="clipitem-telop-2715">
						<file id="file-2"/>
						<name>！</name>
						<rate>
							<timebase>59</timebase>
							<ntsc>TRUE</ntsc>
						</rate>
						<rate>
							<timebase>59</timebase>
							<ntsc>TRUE</ntsc>
						</rate>
						<duration>60</duration>
						<start>22935</start>
						<end>22995</end>
						<in>0</in>
						<out>60</out>
					</clipitem>
					<clipitem frameBlend="FALSE" id="clipitem-telop-2726">
						<file id="file-2"/>
						<name>！</name>
						<rate>
							<timebase>59</timebase>
							<ntsc>TRUE</ntsc>
						</rate>
						<rate>
							<timebase>59</timebase>
							<ntsc>TRUE</ntsc>
						</rate>
						<duration>60</duration>
						<start>22995</start>
						<end>23055</end>
						<in>0</in>
						<out>60</out>
					</clipitem>
					<clipitem frameBlend="FALSE" id="clipitem-telop-2734">
						<file id="file-2"/>
						<name>！</name>
						<rate>
							<timebase>59</timebase>
							<ntsc>TRUE</ntsc>
						</rate>
						<rate>
							<timebase>59</timebase>
							<ntsc>TRUE</ntsc>
						</rate>
						<duration>60</duration>
						<start>23067</start>
						<end>23127</end>
						<in>0</in>
						<out>60</out>
					</clipitem>
					<clipitem frameBlend="FALSE" id="clipitem-telop-2742">
						<file id="file-2"/>
						<name>！</name>
						<rate>
							<timebase>59</timebase>
							<ntsc>TRUE</ntsc>
						</rate>
						<rate>
							<timebase>59</timebase>
							<ntsc>TRUE</ntsc>
						</rate>
						<duration>66</duration>
						<start>23127</start>
						<end>23193</end>
						<in>0</in>
						<out>66</out>
					</clipitem>
					<clipitem frameBlend="FALSE" id="clipitem-telop-2749">
						<file id="file-2"/>
						<name>！</name>
						<rate>
							<timebase>59</timebase>
							<ntsc>TRUE</ntsc>
						</rate>
						<rate>
							<timebase>59</timebase>
							<ntsc>TRUE</ntsc>
						</rate>
						<duration>60</duration>
						<start>23193</start>
						<end>23253</end>
						<in>0</in>
						<out>60</out>
					</clipitem>
					<clipitem frameBlend="FALSE" id="clipitem-telop-2759">
						<file id="file-2"/>
						<name>！</name>
						<rate>
							<timebase>59</timebase>
							<ntsc>TRUE</ntsc>
						</rate>
						<rate>
							<timebase>59</timebase>
							<ntsc>TRUE</ntsc>
						</rate>
						<duration>60</duration>
						<start>23253</start>
						<end>23313</end>
						<in>0</in>
						<out>60</out>
					</clipitem>
					<clipitem frameBlend="FALSE" id="clipitem-telop-2766">
						<file id="file-2"/>
						<name>！</name>
						<rate>
							<timebase>59</timebase>
							<ntsc>TRUE</ntsc>
						</rate>
						<rate>
							<timebase>59</timebase>
							<ntsc>TRUE</ntsc>
						</rate>
						<duration>60</duration>
						<start>23313</start>
						<end>23373</end>
						<in>0</in>
						<out>60</out>
					</clipitem>
					<clipitem frameBlend="FALSE" id="clipitem-telop-2777">
						<file id="file-2"/>
						<name>w</name>
						<rate>
							<timebase>59</timebase>
							<ntsc>TRUE</ntsc>
						</rate>
						<rate>
							<timebase>59</timebase>
							<ntsc>TRUE</ntsc>
						</rate>
						<duration>24</duration>
						<start>23373</start>
						<end>23397</end>
						<in>0</in>
						<out>24</out>
					</clipitem>
					<clipitem frameBlend="FALSE" id="clipitem-telop-2782">
						<file id="file-2"/>
						<name>！</name>
						<rate>
							<timebase>59</timebase>
							<ntsc>TRUE</ntsc>
						</rate>
						<rate>
							<timebase>59</timebase>
							<ntsc>TRUE</ntsc>
						</rate>
						<duration>66</duration>
						<start>23403</start>
						<end>23469</end>
						<in>0</in>
						<out>66</out>
					</clipitem>
					<clipitem frameBlend="FALSE" id="clipitem-telop-2794">
						<file id="file-2"/>
						<name>w</name>
						<rate>
							<timebase>59</timebase>
							<ntsc>TRUE</ntsc>
						</rate>
						<rate>
							<timebase>59</timebase>
							<ntsc>TRUE</ntsc>
						</rate>
						<duration>30</duration>
						<start>23469</start>
						<end>23499</end>
						<in>0</in>
						<out>30</out>
					</clipitem>
					<clipitem frameBlend="FALSE" id="clipitem-telop-2798">
						<file id="file-2"/>
						<name>！</name>
						<rate>
							<timebase>59</timebase>
							<ntsc>TRUE</ntsc>
						</rate>
						<rate>
							<timebase>59</timebase>
							<ntsc>TRUE</ntsc>
						</rate>
						<duration>60</duration>
						<start>23511</start>
						<end>23571</end>
						<in>0</in>
						<out>60</out>
					</clipitem>
					<clipitem frameBlend="FALSE" id="clipitem-telop-2805">
						<file id="file-2"/>
						<name>！</name>
						<rate>
							<timebase>59</timebase>
							<ntsc>TRUE</ntsc>
						</rate>
						<rate>
							<timebase>59</timebase>
							<ntsc>TRUE</ntsc>
						</rate>
						<duration>60</duration>
						<start>23595</start>
						<end>23655</end>
						<in>0</in>
						<out>60</out>
					</clipitem>
					<clipitem frameBlend="FALSE" id="clipitem-telop-2815">
						<file id="file-2"/>
						<name>！</name>
						<rate>
							<timebase>59</timebase>
							<ntsc>TRUE</ntsc>
						</rate>
						<rate>
							<timebase>59</timebase>
							<ntsc>TRUE</ntsc>
						</rate>
						<duration>60</duration>
						<start>23667</start>
						<end>23727</end>
						<in>0</in>
						<out>60</out>
					</clipitem>
					<clipitem frameBlend="FALSE" id="clipitem-telop-2822">
						<file id="file-2"/>
						<name>！</name>
						<rate>
							<timebase>59</timebase>
							<ntsc>TRUE</ntsc>
						</rate>
						<rate>
							<timebase>59</timebase>
							<ntsc>TRUE</ntsc>
						</rate>
						<duration>60</duration>
						<start>23727</start>
						<end>23787</end>
						<in>0</in>
						<out>60</out>
					</clipitem>
					<clipitem frameBlend="FALSE" id="clipitem-telop-2833">
						<file id="file-2"/>
						<name>！</name>
						<rate>
							<timebase>59</timebase>
							<ntsc>TRUE</ntsc>
						</rate>
						<rate>
							<timebase>59</timebase>
							<ntsc>TRUE</ntsc>
						</rate>
						<duration>60</duration>
						<start>23787</start>
						<end>23847</end>
						<in>0</in>
						<out>60</out>
					</clipitem>
					<clipitem frameBlend="FALSE" id="clipitem-telop-2845">
						<file id="file-2"/>
						<name>w</name>
						<rate>
							<timebase>59</timebase>
							<ntsc>TRUE</ntsc>
						</rate>
						<rate>
							<timebase>59</timebase>
							<ntsc>TRUE</ntsc>
						</rate>
						<duration>24</duration>
						<start>23847</start>
						<end>23871</end>
						<in>0</in>
						<out>24</out>
					</clipitem>
					<clipitem frameBlend="FALSE" id="clipitem-telop-2853">
						<file id="file-2"/>
						<name>！</name>
						<rate>
							<timebase>59</timebase>
							<ntsc>TRUE</ntsc>
						</rate>
						<rate>
							<timebase>59</timebase>
							<ntsc>TRUE</ntsc>
						</rate>
						<duration>66</duration>
						<start>23877</start>
						<end>23943</end>
						<in>0</in>
						<out>66</out>
					</clipitem>
					<clipitem frameBlend="FALSE" id="clipitem-telop-2862">
						<file id="file-2"/>
						<name>！</name>
						<rate>
							<timebase>59</timebase>
							<ntsc>TRUE</ntsc>
						</rate>
						<rate>
							<timebase>59</timebase>
							<ntsc>TRUE</ntsc>
						</rate>
						<duration>60</duration>
						<start>23961</start>
						<end>24021</end>
						<in>0</in>
						<out>60</out>
					</clipitem>
					<clipitem frameBlend="FALSE" id="clipitem-telop-2870">
						<file id="file-2"/>
						<name>！</name>
						<rate>
							<timebase>59</timebase>
							<ntsc>TRUE</ntsc>
						</rate>
						<rate>
							<timebase>59</timebase>
							<ntsc>TRUE</ntsc>
						</rate>
						<duration>66</duration>
						<start>24021</start>
						<end>24087</end>
						<in>0</in>
						<out>66</out>
					</clipitem>
					<clipitem frameBlend="FALSE" id="clipitem-telop-2881">
						<file id="file-2"/>
						<name>！</name>
						<rate>
							<timebase>59</timebase>
							<ntsc>TRUE</ntsc>
						</rate>
						<rate>
							<timebase>59</timebase>
							<ntsc>TRUE</ntsc>
						</rate>
						<duration>60</duration>
						<start>24087</start>
						<end>24147</end>
						<in>0</in>
						<out>60</out>
					</clipitem>
					<clipitem frameBlend="FALSE" id="clipitem-telop-2892">
						<file id="file-2"/>
						<name>！</name>
						<rate>
							<timebase>59</timebase>
							<ntsc>TRUE</ntsc>
						</rate>
						<rate>
							<timebase>59</timebase>
							<ntsc>TRUE</ntsc>
						</rate>
						<duration>60</duration>
						<start>24153</start>
						<end>24213</end>
						<in>0</in>
						<out>60</out>
					</clipitem>
					<clipitem frameBlend="FALSE" id="clipitem-telop-2903">
						<file id="file-2"/>
						<name>！</name>
						<rate>
							<timebase>59</timebase>
							<ntsc>TRUE</ntsc>
						</rate>
						<rate>
							<timebase>59</timebase>
							<ntsc>TRUE</ntsc>
						</rate>
						<duration>60</duration>
						<start>24213</start>
						<end>24273</end>
						<in>0</in>
						<out>60</out>
					</clipitem>
					<clipitem frameBlend="FALSE" id="clipitem-telop-2914">
						<file id="file-2"/>
						<name>！</name>
						<rate>
							<timebase>59</timebase>
							<ntsc>TRUE</ntsc>
						</rate>
						<rate>
							<timebase>59</timebase>
							<ntsc>TRUE</ntsc>
						</rate>
						<duration>60</duration>
						<start>24285</start>
						<end>24345</end>
						<in>0</in>
						<out>60</out>
					</clipitem>
					<clipitem frameBlend="FALSE" id="clipitem-telop-2924">
						<file id="file-2"/>
						<name>！</name>
						<rate>
							<timebase>59</timebase>
							<ntsc>TRUE</ntsc>
						</rate>
						<rate>
							<timebase>59</timebase>
							<ntsc>TRUE</ntsc>
						</rate>
						<duration>60</duration>
						<start>24357</start>
						<end>24417</end>
						<in>0</in>
						<out>60</out>
					</clipitem>
					<clipitem frameBlend="FALSE" id="clipitem-telop-2932">
						<file id="file-2"/>
						<name>！</name>
						<rate>
							<timebase>59</timebase>
							<ntsc>TRUE</ntsc>
						</rate>
						<rate>
							<timebase>59</timebase>
							<ntsc>TRUE</ntsc>
						</rate>
						<duration>60</duration>
						<start>24417</start>
						<end>24477</end>
						<in>0</in>
						<out>60</out>
					</clipitem>
					<clipitem frameBlend="FALSE" id="clipitem-telop-2940">
						<file id="file-2"/>
						<name>！</name>
						<rate>
							<timebase>59</timebase>
							<ntsc>TRUE</ntsc>
						</rate>
						<rate>
							<timebase>59</timebase>
							<ntsc>TRUE</ntsc>
						</rate>
						<duration>60</duration>
						<start>24477</start>
						<end>24537</end>
						<in>0</in>
						<out>60</out>
					</clipitem>
				</track>
				<track>
					<clipitem frameBlend="FALSE" id="clipitem-telop-5">
						<file id="file-2"/>
						<name>！</name>
						<rate>
							<timebase>59</timebase>
							<ntsc>TRUE</ntsc>
						</rate>
						<rate>
							<timebase>59</timebase>
							<ntsc>TRUE</ntsc>
						</rate>
						<duration>60</duration>
						<start>47</start>
						<end>107</end>
						<in>0</in>
						<out>60</out>
					</clipitem>
					<clipitem frameBlend="FALSE" id="clipitem-telop-20">
						<file id="file-2"/>
						<name>！</name>
						<rate>
							<timebase>59</timebase>
							<ntsc>TRUE</ntsc>
						</rate>
						<rate>
							<timebase>59</timebase>
							<ntsc>TRUE</ntsc>
						</rate>
						<duration>66</duration>
						<start>161</start>
						<end>227</end>
						<in>0</in>
						<out>66</out>
					</clipitem>
					<clipitem frameBlend="FALSE" id="clipitem-telop-27">
						<file id="file-2"/>
						<name>！</name>
						<rate>
							<timebase>59</timebase>
							<ntsc>TRUE</ntsc>
						</rate>
						<rate>
							<timebase>59</timebase>
							<ntsc>TRUE</ntsc>
						</rate>
						<duration>60</duration>
						<start>245</start>
						<end>305</end>
						<in>0</in>
						<out>60</out>
					</clipitem>
					<clipitem frameBlend="FALSE" id="clipitem-telop-34">
						<file id="file-2"/>
						<name>！</name>
						<rate>
							<timebase>59</timebase>
							<ntsc>TRUE</ntsc>
						</rate>
						<rate>
							<timebase>59</timebase>
							<ntsc>TRUE</ntsc>
						</rate>
						<duration>60</duration>
						<start>311</start>
						<end>371</end>
						<in>0</in>
						<out>60</out>
					</clipitem>
					<clipitem frameBlend="FALSE" id="clipitem-telop-42">
						<file id="file-2"/>
						<name>！</name>
						<rate>
							<timebase>59</timebase>
							<ntsc>TRUE</ntsc>
						</rate>
						<rate>
							<timebase>59</timebase>
							<ntsc>TRUE</ntsc>
						</rate>
						<duration>60</duration>
						<start>383</start>
						<end>443</end>
						<in>0</in>
						<out>60</out>
					</clipitem>
					<clipitem frameBlend="FALSE" id="clipitem-telop-51">
						<file id="file-2"/>
						<name>！</name>
						<rate>
							<timebase>59</timebase>
							<ntsc>TRUE</ntsc>
						</rate>
						<rate>
							<timebase>59</timebase>
							<ntsc>TRUE</ntsc>
						</rate>
						<duration>66</duration>
						<start>461</start>
						<end>527</end>
						<in>0</in>
						<out>66</out>
					</clipitem>
					<clipitem frameBlend="FALSE" id="clipitem-telop-59">
						<file id="file-2"/>
						<name>！</name>
						<rate>
							<timebase>59</timebase>
							<ntsc>TRUE</ntsc>
						</rate>
						<rate>
							<timebase>59</timebase>
							<ntsc>TRUE</ntsc>
						</rate>
						<duration>60</duration>
						<start>527</start>
						<end>587</end>
						<in>0</in>
						<out>60</out>
					</clipitem>
					<clipitem frameBlend="FALSE" id="clipitem-telop-67">
						<file id="file-2"/>
						<name>！</name>
						<rate>
							<timebase>59</timebase>
							<ntsc>TRUE</ntsc>
						</rate>
						<rate>
							<timebase>59</timebase>
							<ntsc>TRUE</ntsc>
						</rate>
						<duration>60</duration>
						<start>587</start>
						<end>647</end>
						<in>0</in>
						<out>60</out>
					</clipitem>
					<clipitem frameBlend="FALSE" id="clipitem-telop-75">
						<file id="file-2"/>
						<name>！</name>
						<rate>
							<timebase>59</timebase>
							<ntsc>TRUE</ntsc>
						</rate>
						<rate>
							<timebase>59</timebase>
							<ntsc>TRUE</ntsc>
						</rate>
						<duration>60</duration>
						<start>647</start>
						<end>707</end>
						<in>0</in>
						<out>60</out>
					</clipitem>
					<clipitem frameBlend="FALSE" id="clipitem-telop-81">
						<file id="file-2"/>
						<name>！</name>
						<rate>
							<timebase>59</timebase>
							<ntsc>TRUE</ntsc>
						</rate>
						<rate>
							<timebase>59</timebase>
							<ntsc>TRUE</ntsc>
						</rate>
						<duration>60</duration>
						<start>725</start>
						<end>785</end>
						<in>0</in>
						<out>60</out>
					</clipitem>
					<clipitem frameBlend="FALSE" id="clipitem-telop-89">
						<file id="file-2"/>
						<name>！</name>
						<rate>
							<timebase>59</timebase>
							<ntsc>TRUE</ntsc>
						</rate>
						<rate>
							<timebase>59</timebase>
							<ntsc>TRUE</ntsc>
						</rate>
						<duration>60</duration>
						<start>785</start>
						<end>845</end>
						<in>0</in>
						<out>60</out>
					</clipitem>
					<clipitem frameBlend="FALSE" id="clipitem-telop-99">
						<file id="file-2"/>
						<name>！</name>
						<rate>
							<timebase>59</timebase>
							<ntsc>TRUE</ntsc>
						</rate>
						<rate>
							<timebase>59</timebase>
							<ntsc>TRUE</ntsc>
						</rate>
						<duration>66</duration>
						<start>887</start>
						<end>953</end>
						<in>0</in>
						<out>66</out>
					</clipitem>
					<clipitem frameBlend="FALSE" id="clipitem-telop-108">
						<file id="file-2"/>
						<name>！</name>
						<rate>
							<timebase>59</timebase>
							<ntsc>TRUE</ntsc>
						</rate>
						<rate>
							<timebase>59</timebase>
							<ntsc>TRUE</ntsc>
						</rate>
						<duration>66</duration>
						<start>953</start>
						<end>1019</end>
						<in>0</in>
						<out>66</out>
					</clipitem>
					<clipitem frameBlend="FALSE" id="clipitem-telop-120">
						<file id="file-2"/>
						<name>！</name>
						<rate>
							<timebase>59</timebase>
							<ntsc>TRUE</ntsc>
						</rate>
						<rate>
							<timebase>59</timebase>
							<ntsc>TRUE</ntsc>
						</rate>
						<duration>60</duration>
						<start>1073</start>
						<end>1133</end>
						<in>0</in>
						<out>60</out>
					</clipitem>
					<clipitem frameBlend="FALSE" id="clipitem-telop-128">
						<file id="file-2"/>
						<name>！</name>
						<rate>
							<timebase>59</timebase>
							<ntsc>TRUE</ntsc>
						</rate>
						<rate>
							<timebase>59</timebase>
							<ntsc>TRUE</ntsc>
						</rate>
						<duration>60</duration>
						<start>1145</start>
						<end>1205</end>
						<in>0</in>
						<out>60</out>
					</clipitem>
					<clipitem frameBlend="FALSE" id="clipitem-telop-137">
						<file id="file-2"/>
						<name>！</name>
						<rate>
							<timebase>59</timebase>
							<ntsc>TRUE</ntsc>
						</rate>
						<rate>
							<timebase>59</timebase>
							<ntsc>TRUE</ntsc>
						</rate>
						<duration>60</duration>
						<start>1229</start>
						<end>1289</end>
						<in>0</in>
						<out>60</out>
					</clipitem>
					<clipitem frameBlend="FALSE" id="clipitem-telop-144">
						<file id="file-2"/>
						<name>！</name>
						<rate>
							<timebase>59</timebase>
							<ntsc>TRUE</ntsc>
						</rate>
						<rate>
							<timebase>59</timebase>
							<ntsc>TRUE</ntsc>
						</rate>
						<duration>60</duration>
						<start>1307</start>
						<end>1367</end>
						<in>0</in>
						<out>60</out>
					</clipitem>
					<clipitem frameBlend="FALSE" id="clipitem-telop-150">
						<file id="file-2"/>
						<name>！</name>
						<rate>
							<timebase>59</timebase>
							<ntsc>TRUE</ntsc>
						</rate>
						<rate>
							<timebase>59</timebase>
							<ntsc>TRUE</ntsc>
						</rate>
						<duration>60</duration>
						<start>1367</start>
						<end>1427</end>
						<in>0</in>
						<out>60</out>
					</clipitem>
					<clipitem frameBlend="FALSE" id="clipitem-telop-157">
						<file id="file-2"/>
						<name>！</name>
						<rate>
							<timebase>59</timebase>
							<ntsc>TRUE</ntsc>
						</rate>
						<rate>
							<timebase>59</timebase>
							<ntsc>TRUE</ntsc>
						</rate>
						<duration>66</duration>
						<start>1445</start>
						<end>1511</end>
						<in>0</in>
						<out>66</out>
					</clipitem>
					<clipitem frameBlend="FALSE" id="clipitem-telop-169">
						<file id="file-2"/>
						<name>！</name>
						<rate>
							<timebase>59</timebase>
							<ntsc>TRUE</ntsc>
						</rate>
						<rate>
							<timebase>59</timebase>
							<ntsc>TRUE</ntsc>
						</rate>
						<duration>66</duration>
						<start>1529</start>
						<end>1595</end>
						<in>0</in>
						<out>66</out>
					</clipitem>
					<clipitem frameBlend="FALSE" id="clipitem-telop-178">
						<file id="file-2"/>
						<name>！</name>
						<rate>
							<timebase>59</timebase>
							<ntsc>TRUE</ntsc>
						</rate>
						<rate>
							<timebase>59</timebase>
							<ntsc>TRUE</ntsc>
						</rate>
						<duration>66</duration>
						<start>1595</start>
						<end>1661</end>
						<in>0</in>
						<out>66</out>
					</clipitem>
					<clipitem frameBlend="FALSE" id="clipitem-telop-187">
						<file id="file-2"/>
						<name>！</name>
						<rate>
							<timebase>59</timebase>
							<ntsc>TRUE</ntsc>
						</rate>
						<rate>
							<timebase>59</timebase>
							<ntsc>TRUE</ntsc>
						</rate>
						<duration>66</duration>
						<start>1667</start>
						<end>1733</end>
						<in>0</in>
						<out>66</out>
					</clipitem>
					<clipitem frameBlend="FALSE" id="clipitem-telop-194">
						<file id="file-2"/>
						<name>！</name>
						<rate>
							<timebase>59</timebase>
							<ntsc>TRUE</ntsc>
						</rate>
						<rate>
							<timebase>59</timebase>
							<ntsc>TRUE</ntsc>
						</rate>
						<duration>60</duration>
						<start>1733</start>
						<end>1793</end>
						<in>0</in>
						<out>60</out>
					</clipitem>
					<clipitem frameBlend="FALSE" id="clipitem-telop-203">
						<file id="file-2"/>
						<name>w</name>
						<rate>
							<timebase>59</timebase>
							<ntsc>TRUE</ntsc>
						</rate>
						<rate>
							<timebase>59</timebase>
							<ntsc>TRUE</ntsc>
						</rate>
						<duration>30</duration>
						<start>1793</start>
						<end>1823</end>
						<in>0</in>
						<out>30</out>
					</clipitem>
					<clipitem frameBlend="FALSE" id="clipitem-telop-209">
						<file id="file-2"/>
						<name>！</name>
						<rate>
							<timebase>59</timebase>
							<ntsc>TRUE</ntsc>
						</rate>
						<rate>
							<timebase>59</timebase>
							<ntsc>TRUE</ntsc>
						</rate>
						<duration>60</duration>
						<start>1859</start>
						<end>1919</end>
						<in>0</in>
						<out>60</out>
					</clipitem>
					<clipitem frameBlend="FALSE" id="clipitem-telop-220">
						<file id="file-2"/>
						<name>！</name>
						<rate>
							<timebase>59</timebase>
							<ntsc>TRUE</ntsc>
						</rate>
						<rate>
							<timebase>59</timebase>
							<ntsc>TRUE</ntsc>
						</rate>
						<duration>60</duration>
						<start>1943</start>
						<end>2003</end>
						<in>0</in>
						<out>60</out>
					</clipitem>
					<clipitem frameBlend="FALSE" id="clipitem-telop-231">
						<file id="file-2"/>
						<name>！</name>
						<rate>
							<timebase>59</timebase>
							<ntsc>TRUE</ntsc>
						</rate>
						<rate>
							<timebase>59</timebase>
							<ntsc>TRUE</ntsc>
						</rate>
						<duration>60</duration>
						<start>2009</start>
						<end>2069</end>
						<in>0</in>
						<out>60</out>
					</clipitem>
					<clipitem frameBlend="FALSE" id="clipitem-telop-243">
						<file id="file-2"/>
						<name>！</name>
						<rate>
							<timebase>59</timebase>
							<ntsc>TRUE</ntsc>
						</rate>
						<rate>
							<timebase>59</timebase>
							<ntsc>TRUE</ntsc>
						</rate>
						<duration>60</duration>
						<start>2081</start>
						<end>2141</end>
						<in>0</in>
						<out>60</out>
					</clipitem>
					<clipitem frameBlend="FALSE" id="clipitem-telop-249">
						<file id="file-2"/>
						<name>！</name>
						<rate>
							<timebase>59</timebase>
							<ntsc>TRUE</ntsc>
						</rate>
						<rate>
							<timebase>59</timebase>
							<ntsc>TRUE</ntsc>
						</rate>
						<duration>60</duration>
						<start>2153</start>
						<end>2213</end>
						<in>0</in>
						<out>60</out>
					</clipitem>
					<clipitem frameBlend="FALSE" id="clipitem-telop-258">
						<file id="file-2"/>
						<name>！</name>
						<rate>
							<timebase>59</timebase>
							<ntsc>TRUE</ntsc>
						</rate>
						<rate>
							<timebase>59</timebase>
							<ntsc>TRUE</ntsc>
						</rate>
						<duration>60</duration>
						<start>2213</start>
						<end>2273</end>
						<in>0</in>
						<out>60</out>
					</clipitem>
					<clipitem frameBlend="FALSE" id="clipitem-telop-267">
						<file id="file-2"/>
						<name>！</name>
						<rate>
							<timebase>59</timebase>
							<ntsc>TRUE</ntsc>
						</rate>
						<rate>
							<timebase>59</timebase>
							<ntsc>TRUE</ntsc>
						</rate>
						<duration>66</duration>
						<start>2273</start>
						<end>2339</end>
						<in>0</in>
						<out>66</out>
					</clipitem>
					<clipitem frameBlend="FALSE" id="clipitem-telop-275">
						<file id="file-2"/>
						<name>！</name>
						<rate>
							<timebase>59</timebase>
							<ntsc>TRUE</ntsc>
						</rate>
						<rate>
							<timebase>59</timebase>
							<ntsc>TRUE</ntsc>
						</rate>
						<duration>60</duration>
						<start>2369</start>
						<end>2429</end>
						<in>0</in>
						<out>60</out>
					</clipitem>
					<clipitem frameBlend="FALSE" id="clipitem-telop-283">
						<file id="file-2"/>
						<name>！</name>
						<rate>
							<timebase>59</timebase>
							<ntsc>TRUE</ntsc>
						</rate>
						<rate>
							<timebase>59</timebase>
							<ntsc>TRUE</ntsc>
						</rate>
						<duration>60</duration>
						<start>2465</start>
						<end>2525</end>
						<in>0</in>
						<out>60</out>
					</clipitem>
					<clipitem frameBlend="FALSE" id="clipitem-telop-292">
						<file id="file-2"/>
						<name>！</name>
						<rate>
							<timebase>59</timebase>
							<ntsc>TRUE</ntsc>
						</rate>
						<rate>
							<timebase>59</timebase>
							<ntsc>TRUE</ntsc>
						</rate>
						<duration>60</duration>
						<start>2537</start>
						<end>2597</end>
						<in>0</in>
						<out>60</out>
					</clipitem>
					<clipitem frameBlend="FALSE" id="clipitem-telop-299">
						<file id="file-2"/>
						<name>！</name>
						<rate>
							<timebase>59</timebase>
							<ntsc>TRUE</ntsc>
						</rate>
						<rate>
							<timebase>59</timebase>
							<ntsc>TRUE</ntsc>
						</rate>
						<duration>60</duration>
						<start>2597</start>
						<end>2657</end>
						<in>0</in>
						<out>60</out>
					</clipitem>
					<clipitem frameBlend="FALSE" id="clipitem-telop-307">
						<file id="file-2"/>
						<name>！</name>
						<rate>
							<timebase>59</timebase>
							<ntsc>TRUE</ntsc>
						</rate>
						<rate>
							<timebase>59</timebase>
							<ntsc>TRUE</ntsc>
						</rate>
						<duration>66</duration>
						<start>2681</start>
						<end>2747</end>
						<in>0</in>
						<out>66</out>
					</clipitem>
					<clipitem frameBlend="FALSE" id="clipitem-telop-318">
						<file id="file-2"/>
						<name>！</name>
						<rate>
							<timebase>59</timebase>
							<ntsc>TRUE</ntsc>
						</rate>
						<rate>
							<timebase>59</timebase>
							<ntsc>TRUE</ntsc>
						</rate>
						<duration>60</duration>
						<start>2759</start>
						<end>2819</end>
						<in>0</in>
						<out>60</out>
					</clipitem>
					<clipitem frameBlend="FALSE" id="clipitem-telop-327">
						<file id="file-2"/>
						<name>！</name>
						<rate>
							<timebase>59</timebase>
							<ntsc>TRUE</ntsc>
						</rate>
						<rate>
							<timebase>59</timebase>
							<ntsc>TRUE</ntsc>
						</rate>
						<duration>60</duration>
						<start>2855</start>
						<end>2915</end>
						<in>0</in>
						<out>60</out>
					</clipitem>
					<clipitem frameBlend="FALSE" id="clipitem-telop-334">
						<file id="file-2"/>
						<name>！</name>
						<rate>
							<timebase>59</timebase>
							<ntsc>TRUE</ntsc>
						</rate>
						<rate>
							<timebase>59</timebase>
							<ntsc>TRUE</ntsc>
						</rate>
						<duration>66</duration>
						<start>2939</start>
						<end>3005</end>
						<in>0</in>
						<out>66</out>
					</clipitem>
					<clipitem frameBlend="FALSE" id="clipitem-telop-346">
						<file id="file-2"/>
						<name>！</name>
						<rate>
							<timebase>59</timebase>
							<ntsc>TRUE</ntsc>
						</rate>
						<rate>
							<timebase>59</timebase>
							<ntsc>TRUE</ntsc>
						</rate>
						<duration>60</duration>
						<start>3011</start>
						<end>3071</end>
						<in>0</in>
						<out>60</out>
					</clipitem>
					<clipitem frameBlend="FALSE" id="clipitem-telop-354">
						<file id="file-2"/>
						<name>！</name>
						<rate>
							<timebase>59</timebase>
							<ntsc>TRUE</ntsc>
						</rate>
						<rate>
							<timebase>59</timebase>
							<ntsc>TRUE</ntsc>
						</rate>
						<duration>60</duration>
						<start>3071</start>
						<end>3131</end>
						<in>0</in>
						<out>60</out>
					</clipitem>
					<clipitem frameBlend="FALSE" id="clipitem-telop-360">
						<file id="file-2"/>
						<name>！</name>
						<rate>
							<timebase>59</timebase>
							<ntsc>TRUE</ntsc>
						</rate>
						<rate>
							<timebase>59</timebase>
							<ntsc>TRUE</ntsc>
						</rate>
						<duration>60</duration>
						<start>3137</start>
						<end>3197</end>
						<in>0</in>
						<out>60</out>
					</clipitem>
					<clipitem frameBlend="FALSE" id="clipitem-telop-365">
						<file id="file-2"/>
						<name>！</name>
						<rate>
							<timebase>59</timebase>
							<ntsc>TRUE</ntsc>
						</rate>
						<rate>
							<timebase>59</timebase>
							<ntsc>TRUE</ntsc>
						</rate>
						<duration>60</duration>
						<start>3221</start>
						<end>3281</end>
						<in>0</in>
						<out>60</out>
					</clipitem>
					<clipitem frameBlend="FALSE" id="clipitem-telop-376">
						<file id="file-2"/>
						<name>w</name>
						<rate>
							<timebase>59</timebase>
							<ntsc>TRUE</ntsc>
						</rate>
						<rate>
							<timebase>59</timebase>
							<ntsc>TRUE</ntsc>
						</rate>
						<duration>30</duration>
						<start>3281</start>
						<end>3311</end>
						<in>0</in>
						<out>30</out>
					</clipitem>
					<clipitem frameBlend="FALSE" id="clipitem-telop-383">
						<file id="file-2"/>
						<name>w</name>
						<rate>
							<timebase>59</timebase>
							<ntsc>TRUE</ntsc>
						</rate>
						<rate>
							<timebase>59</timebase>
							<ntsc>TRUE</ntsc>
						</rate>
						<duration>30</duration>
						<start>3311</start>
						<end>3341</end>
						<in>0</in>
						<out>30</out>
					</clipitem>
					<clipitem frameBlend="FALSE" id="clipitem-telop-390">
						<file id="file-2"/>
						<name>！</name>
						<rate>
							<timebase>59</timebase>
							<ntsc>TRUE</ntsc>
						</rate>
						<rate>
							<timebase>59</timebase>
							<ntsc>TRUE</ntsc>
						</rate>
						<duration>60</duration>
						<start>3347</start>
						<end>3407</end>
						<in>0</in>
						<out>60</out>
					</clipitem>
					<clipitem frameBlend="FALSE" id="clipitem-telop-402">
						<file id="file-2"/>
						<name>！</name>
						<rate>
							<timebase>59</timebase>
							<ntsc>TRUE</ntsc>
						</rate>
						<rate>
							<timebase>59</timebase>
							<ntsc>TRUE</ntsc>
						</rate>
						<duration>66</duration>
						<start>3413</start>
						<end>3479</end>
						<in>0</in>
						<out>66</out>
					</clipitem>
					<clipitem frameBlend="FALSE" id="clipitem-telop-414">
						<file id="file-2"/>
						<name>！</name>
						<rate>
							<timebase>59</timebase>
							<ntsc>TRUE</ntsc>
						</rate>
						<rate>
							<timebase>59</timebase>
							<ntsc>TRUE</ntsc>
						</rate>
						<duration>60</duration>
						<start>3491</start>
						<end>3551</end>
						<in>0</in>
						<out>60</out>
					</clipitem>
					<clipitem frameBlend="FALSE" id="clipitem-telop-420">
						<file id="file-2"/>
						<name>！</name>
						<rate>
							<timebase>59</timebase>
							<ntsc>TRUE</ntsc>
						</rate>
						<rate>
							<timebase>59</timebase>
							<ntsc>TRUE</ntsc>
						</rate>
						<duration>60</duration>
						<start>3569</start>
						<end>3629</end>
						<in>0</in>
						<out>60</out>
					</clipitem>
					<clipitem frameBlend="FALSE" id="clipitem-telop-426">
						<file id="file-2"/>
						<name>！</name>
						<rate>
							<timebase>59</timebase>
							<ntsc>TRUE</ntsc>
						</rate>
						<rate>
							<timebase>59</timebase>
							<ntsc>TRUE</ntsc>
						</rate>
						<duration>60</duration>
						<start>3635</start>
						<end>3695</end>
						<in>0</in>
						<out>60</out>
					</clipitem>
					<clipitem frameBlend="FALSE" id="clipitem-telop-433">
						<file id="file-2"/>
						<name>！</name>
						<rate>
							<timebase>59</timebase>
							<ntsc>TRUE</ntsc>
						</rate>
						<rate>
							<timebase>59</timebase>
							<ntsc>TRUE</ntsc>
						</rate>
						<duration>60</duration>
						<start>3713</start>
						<end>3773</end>
						<in>0</in>
						<out>60</out>
					</clipitem>
					<clipitem frameBlend="FALSE" id="clipitem-telop-442">
						<file id="file-2"/>
						<name>w</name>
						<rate>
							<timebase>59</timebase>
							<ntsc>TRUE</ntsc>
						</rate>
						<rate>
							<timebase>59</timebase>
							<ntsc>TRUE</ntsc>
						</rate>
						<duration>30</duration>
						<start>3785</start>
						<end>3815</end>
						<in>0</in>
						<out>30</out>
					</clipitem>
					<clipitem frameBlend="FALSE" id="clipitem-telop-449">
						<file id="file-2"/>
						<name>！</name>
						<rate>
							<timebase>59</timebase>
							<ntsc>TRUE</ntsc>
						</rate>
						<rate>
							<timebase>59</timebase>
							<ntsc>TRUE</ntsc>
						</rate>
						<duration>60</duration>
						<start>3845</start>
						<end>3905</end>
						<in>0</in>
						<out>60</out>
					</clipitem>
					<clipitem frameBlend="FALSE" id="clipitem-telop-460">
						<file id="file-2"/>
						<name>！</name>
						<rate>
							<timebase>59</timebase>
							<ntsc>TRUE</ntsc>
						</rate>
						<rate>
							<timebase>59</timebase>
							<ntsc>TRUE</ntsc>
						</rate>
						<duration>60</duration>
						<start>3911</start>
						<end>3971</end>
						<in>0</in>
						<out>60</out>
					</clipitem>
					<clipitem frameBlend="FALSE" id="clipitem-telop-470">
						<file id="file-2"/>
						<name>！</name>
						<rate>
							<timebase>59</timebase>
							<ntsc>TRUE</ntsc>
						</rate>
						<rate>
							<timebase>59</timebase>
							<ntsc>TRUE</ntsc>
						</rate>
						<duration>60</duration>
						<start>3983</start>
						<end>4043</end>
						<in>0</in>
						<out>60</out>
					</clipitem>
					<clipitem frameBlend="FALSE" id="clipitem-telop-477">
						<file id="file-2"/>
						<name>！</name>
						<rate>
							<timebase>59</timebase>
							<ntsc>TRUE</ntsc>
						</rate>
						<rate>
							<timebase>59</timebase>
							<ntsc>TRUE</ntsc>
						</rate>
						<duration>60</duration>
						<start>4055</start>
						<end>4115</end>
						<in>0</in>
						<out>60</out>
					</clipitem>
					<clipitem frameBlend="FALSE" id="clipitem-telop-486">
						<file id="file-2"/>
						<name>！</name>
						<rate>
							<timebase>59</timebase>
							<ntsc>TRUE</ntsc>
						</rate>
						<rate>
							<timebase>59</timebase>
							<ntsc>TRUE</ntsc>
						</rate>
						<duration>60</duration>
						<start>4169</start>
						<end>4229</end>
						<in>0</in>
						<out>60</out>
					</clipitem>
					<clipitem frameBlend="FALSE" id="clipitem-telop-498">
						<file id="file-2"/>
						<name>！</name>
						<rate>
							<timebase>59</timebase>
							<ntsc>TRUE</ntsc>
						</rate>
						<rate>
							<timebase>59</timebase>
							<ntsc>TRUE</ntsc>
						</rate>
						<duration>60</duration>
						<start>4295</start>
						<end>4355</end>
						<in>0</in>
						<out>60</out>
					</clipitem>
					<clipitem frameBlend="FALSE" id="clipitem-telop-508">
						<file id="file-2"/>
						<name>！</name>
						<rate>
							<timebase>59</timebase>
							<ntsc>TRUE</ntsc>
						</rate>
						<rate>
							<timebase>59</timebase>
							<ntsc>TRUE</ntsc>
						</rate>
						<duration>60</duration>
						<start>4361</start>
						<end>4421</end>
						<in>0</in>
						<out>60</out>
					</clipitem>
					<clipitem frameBlend="FALSE" id="clipitem-telop-516">
						<file id="file-2"/>
						<name>！</name>
						<rate>
							<timebase>59</timebase>
							<ntsc>TRUE</ntsc>
						</rate>
						<rate>
							<timebase>59</timebase>
							<ntsc>TRUE</ntsc>
						</rate>
						<duration>60</duration>
						<start>4427</start>
						<end>4487</end>
						<in>0</in>
						<out>60</out>
					</clipitem>
					<clipitem frameBlend="FALSE" id="clipitem-telop-530">
						<file id="file-2"/>
						<name>w</name>
						<rate>
							<timebase>59</timebase>
							<ntsc>TRUE</ntsc>
						</rate>
						<rate>
							<timebase>59</timebase>
							<ntsc>TRUE</ntsc>
						</rate>
						<duration>30</duration>
						<start>4535</start>
						<end>4565</end>
						<in>0</in>
						<out>30</out>
					</clipitem>
					<clipitem frameBlend="FALSE" id="clipitem-telop-536">
						<file id="file-2"/>
						<name>！</name>
						<rate>
							<timebase>59</timebase>
							<ntsc>TRUE</ntsc>
						</rate>
						<rate>
							<timebase>59</timebase>
							<ntsc>TRUE</ntsc>
						</rate>
						<duration>60</duration>
						<start>4565</start>
						<end>4625</end>
						<in>0</in>
						<out>60</out>
					</clipitem>
					<clipitem frameBlend="FALSE" id="clipitem-telop-548">
						<file id="file-2"/>
						<name>！</name>
						<rate>
							<timebase>59</timebase>
							<ntsc>TRUE</ntsc>
						</rate>
						<rate>
							<timebase>59</timebase>
							<ntsc>TRUE</ntsc>
						</rate>
						<duration>60</duration>
						<start>4631</start>
						<end>4691</end>
						<in>0</in>
						<out>60</out>
					</clipitem>
					<clipitem frameBlend="FALSE" id="clipitem-telop-556">
						<file id="file-2"/>
						<name>！</name>
						<rate>
							<timebase>59</timebase>
							<ntsc>TRUE</ntsc>
						</rate>
						<rate>
							<timebase>59</timebase>
							<ntsc>TRUE</ntsc>
						</rate>
						<duration>60</duration>
						<start>4691</start>
						<end>4751</end>
						<in>0</in>
						<out>60</out>
					</clipitem>
					<clipitem frameBlend="FALSE" id="clipitem-telop-564">
						<file id="file-2"/>
						<name>！</name>
						<rate>
							<timebase>59</timebase>
							<ntsc>TRUE</ntsc>
						</rate>
						<rate>
							<timebase>59</timebase>
							<ntsc>TRUE</ntsc>
						</rate>
						<duration>60</duration>
						<start>4769</start>
						<end>4829</end>
						<in>0</in>
						<out>60</out>
					</clipitem>
					<clipitem frameBlend="FALSE" id="clipitem-telop-576">
						<file id="file-2"/>
						<name>！</name>
						<rate>
							<timebase>59</timebase>
							<ntsc>TRUE</ntsc>
						</rate>
						<rate>
							<timebase>59</timebase>
							<ntsc>TRUE</ntsc>
						</rate>
						<duration>66</duration>
						<start>4841</start>
						<end>4907</end>
						<in>0</in>
						<out>66</out>
					</clipitem>
					<clipitem frameBlend="FALSE" id="clipitem-telop-592">
						<file id="file-2"/>
						<name>！</name>
						<rate>
							<timebase>59</timebase>
							<ntsc>TRUE</ntsc>
						</rate>
						<rate>
							<timebase>59</timebase>
							<ntsc>TRUE</ntsc>
						</rate>
						<duration>66</duration>
						<start>4931</start>
						<end>4997</end>
						<in>0</in>
						<out>66</out>
					</clipitem>
					<clipitem frameBlend="FALSE" id="clipitem-telop-607">
						<file id="file-2"/>
						<name>！</name>
						<rate>
							<timebase>59</timebase>
							<ntsc>TRUE</ntsc>
						</rate>
						<rate>
							<timebase>59</timebase>
							<ntsc>TRUE</ntsc>
						</rate>
						<duration>60</duration>
						<start>4997</start>
						<end>5057</end>
						<in>0</in>
						<out>60</out>
					</clipitem>
					<clipitem frameBlend="FALSE" id="clipitem-telop-620">
						<file id="file-2"/>
						<name>！</name>
						<rate>
							<timebase>59</timebase>
							<ntsc>TRUE</ntsc>
						</rate>
						<rate>
							<timebase>59</timebase>
							<ntsc>TRUE</ntsc>
						</rate>
						<duration>60</duration>
						<start>5087</start>
						<end>5147</end>
						<in>0</in>
						<out>60</out>
					</clipitem>
					<clipitem frameBlend="FALSE" id="clipitem-telop-631">
						<file id="file-2"/>
						<name>！</name>
						<rate>
							<timebase>59</timebase>
							<ntsc>TRUE</ntsc>
						</rate>
						<rate>
							<timebase>59</timebase>
							<ntsc>TRUE</ntsc>
						</rate>
						<duration>66</duration>
						<start>5147</start>
						<end>5213</end>
						<in>0</in>
						<out>66</out>
					</clipitem>
					<clipitem frameBlend="FALSE" id="clipitem-telop-641">
						<file id="file-2"/>
						<name>！</name>
						<rate>
							<timebase>59</timebase>
							<ntsc>TRUE</ntsc>
						</rate>
						<rate>
							<timebase>59</timebase>
							<ntsc>TRUE</ntsc>
						</rate>
						<duration>60</duration>
						<start>5213</start>
						<end>5273</end>
						<in>0</in>
						<out>60</out>
					</clipitem>
					<clipitem frameBlend="FALSE" id="clipitem-telop-649">
						<file id="file-2"/>
						<name>！</name>
						<rate>
							<timebase>59</timebase>
							<ntsc>TRUE</ntsc>
						</rate>
						<rate>
							<timebase>59</timebase>
							<ntsc>TRUE</ntsc>
						</rate>
						<duration>60</duration>
						<start>5273</start>
						<end>5333</end>
						<in>0</in>
						<out>60</out>
					</clipitem>
					<clipitem frameBlend="FALSE" id="clipitem-telop-656">
						<file id="file-2"/>
						<name>！</name>
						<rate>
							<timebase>59</timebase>
							<ntsc>TRUE</ntsc>
						</rate>
						<rate>
							<timebase>59</timebase>
							<ntsc>TRUE</ntsc>
						</rate>
						<duration>60</duration>
						<start>5333</start>
						<end>5393</end>
						<in>0</in>
						<out>60</out>
					</clipitem>
					<clipitem frameBlend="FALSE" id="clipitem-telop-665">
						<file id="file-2"/>
						<name>！</name>
						<rate>
							<timebase>59</timebase>
							<ntsc>TRUE</ntsc>
						</rate>
						<rate>
							<timebase>59</timebase>
							<ntsc>TRUE</ntsc>
						</rate>
						<duration>60</duration>
						<start>5393</start>
						<end>5453</end>
						<in>0</in>
						<out>60</out>
					</clipitem>
					<clipitem frameBlend="FALSE" id="clipitem-telop-672">
						<file id="file-2"/>
						<name>！</name>
						<rate>
							<timebase>59</timebase>
							<ntsc>TRUE</ntsc>
						</rate>
						<rate>
							<timebase>59</timebase>
							<ntsc>TRUE</ntsc>
						</rate>
						<duration>60</duration>
						<start>5465</start>
						<end>5525</end>
						<in>0</in>
						<out>60</out>
					</clipitem>
					<clipitem frameBlend="FALSE" id="clipitem-telop-676">
						<file id="file-2"/>
						<name>！</name>
						<rate>
							<timebase>59</timebase>
							<ntsc>TRUE</ntsc>
						</rate>
						<rate>
							<timebase>59</timebase>
							<ntsc>TRUE</ntsc>
						</rate>
						<duration>66</duration>
						<start>5543</start>
						<end>5609</end>
						<in>0</in>
						<out>66</out>
					</clipitem>
					<clipitem frameBlend="FALSE" id="clipitem-telop-687">
						<file id="file-2"/>
						<name>！</name>
						<rate>
							<timebase>59</timebase>
							<ntsc>TRUE</ntsc>
						</rate>
						<rate>
							<timebase>59</timebase>
							<ntsc>TRUE</ntsc>
						</rate>
						<duration>60</duration>
						<start>5651</start>
						<end>5711</end>
						<in>0</in>
						<out>60</out>
					</clipitem>
					<clipitem frameBlend="FALSE" id="clipitem-telop-695">
						<file id="file-2"/>
						<name>！</name>
						<rate>
							<timebase>59</timebase>
							<ntsc>TRUE</ntsc>
						</rate>
						<rate>
							<timebase>59</timebase>
							<ntsc>TRUE</ntsc>
						</rate>
						<duration>66</duration>
						<start>5717</start>
						<end>5783</end>
						<in>0</in>
						<out>66</out>
					</clipitem>
					<clipitem frameBlend="FALSE" id="clipitem-telop-702">
						<file id="file-2"/>
						<name>！</name>
						<rate>
							<timebase>59</timebase>
							<ntsc>TRUE</ntsc>
						</rate>
						<rate>
							<timebase>59</timebase>
							<ntsc>TRUE</ntsc>
						</rate>
						<duration>60</duration>
						<start>5789</start>
						<end>5849</end>
						<in>0</in>
						<out>60</out>
					</clipitem>
					<clipitem frameBlend="FALSE" id="clipitem-telop-712">
						<file id="file-2"/>
						<name>！</name>
						<rate>
							<timebase>59</timebase>
							<ntsc>TRUE</ntsc>
						</rate>
						<rate>
							<timebase>59</timebase>
							<ntsc>TRUE</ntsc>
						</rate>
						<duration>60</duration>
						<start>5879</start>
						<end>5939</end>
						<in>0</in>
						<out>60</out>
					</clipitem>
					<clipitem frameBlend="FALSE" id="clipitem-telop-717">
						<file id="file-2"/>
						<name>！</name>
						<rate>
							<timebase>59</timebase>
							<ntsc>TRUE</ntsc>
						</rate>
						<rate>
							<timebase>59</timebase>
							<ntsc>TRUE</ntsc>
						</rate>
						<duration>60</duration>
						<start>5951</start>
						<end>6011</end>
						<in>0</in>
						<out>60</out>
					</clipitem>
					<clipitem frameBlend="FALSE" id="clipitem-telop-727">
						<file id="file-2"/>
						<name>！</name>
						<rate>
							<timebase>59</timebase>
							<ntsc>TRUE</ntsc>
						</rate>
						<rate>
							<timebase>59</timebase>
							<ntsc>TRUE</ntsc>
						</rate>
						<duration>60</duration>
						<start>6011</start>
						<end>6071</end>
						<in>0</in>
						<out>60</out>
					</clipitem>
					<clipitem frameBlend="FALSE" id="clipitem-telop-736">
						<file id="file-2"/>
						<name>！</name>
						<rate>
							<timebase>59</timebase>
							<ntsc>TRUE</ntsc>
						</rate>
						<rate>
							<timebase>59</timebase>
							<ntsc>TRUE</ntsc>
						</rate>
						<duration>60</duration>
						<start>6077</start>
						<end>6137</end>
						<in>0</in>
						<out>60</out>
					</clipitem>
					<clipitem frameBlend="FALSE" id="clipitem-telop-746">
						<file id="file-2"/>
						<name>！</name>
						<rate>
							<timebase>59</timebase>
							<ntsc>TRUE</ntsc>
						</rate>
						<rate>
							<timebase>59</timebase>
							<ntsc>TRUE</ntsc>
						</rate>
						<duration>60</duration>
						<start>6167</start>
						<end>6227</end>
						<in>0</in>
						<out>60</out>
					</clipitem>
					<clipitem frameBlend="FALSE" id="clipitem-telop-753">
						<file id="file-2"/>
						<name>！</name>
						<rate>
							<timebase>59</timebase>
							<ntsc>TRUE</ntsc>
						</rate>
						<rate>
							<timebase>59</timebase>
							<ntsc>TRUE</ntsc>
						</rate>
						<duration>66</duration>
						<start>6245</start>
						<end>6311</end>
						<in>0</in>
						<out>66</out>
					</clipitem>
					<clipitem frameBlend="FALSE" id="clipitem-telop-761">
						<file id="file-2"/>
						<name>！</name>
						<rate>
							<timebase>59</timebase>
							<ntsc>TRUE</ntsc>
						</rate>
						<rate>
							<timebase>59</timebase>
							<ntsc>TRUE</ntsc>
						</rate>
						<duration>60</duration>
						<start>6329</start>
						<end>6389</end>
						<in>0</in>
						<out>60</out>
					</clipitem>
					<clipitem frameBlend="FALSE" id="clipitem-telop-770">
						<file id="file-2"/>
						<name>！</name>
						<rate>
							<timebase>59</timebase>
							<ntsc>TRUE</ntsc>
						</rate>
						<rate>
							<timebase>59</timebase>
							<ntsc>TRUE</ntsc>
						</rate>
						<duration>60</duration>
						<start>6461</start>
						<end>6521</end>
						<in>0</in>
						<out>60</out>
					</clipitem>
					<clipitem frameBlend="FALSE" id="clipitem-telop-782">
						<file id="file-2"/>
						<name>！</name>
						<rate>
							<timebase>59</timebase>
							<ntsc>TRUE</ntsc>
						</rate>
						<rate>
							<timebase>59</timebase>
							<ntsc>TRUE</ntsc>
						</rate>
						<duration>60</duration>
						<start>6527</start>
						<end>6587</end>
						<in>0</in>
						<out>60</out>
					</clipitem>
					<clipitem frameBlend="FALSE" id="clipitem-telop-792">
						<file id="file-2"/>
						<name>！</name>
						<rate>
							<timebase>59</timebase>
							<ntsc>TRUE</ntsc>
						</rate>
						<rate>
							<timebase>59</timebase>
							<ntsc>TRUE</ntsc>
						</rate>
						<duration>66</duration>
						<start>6593</start>
						<end>6659</end>
						<in>0</in>
						<out>66</out>
					</clipitem>
					<clipitem frameBlend="FALSE" id="clipitem-telop-800">
						<file id="file-2"/>
						<name>！</name>
						<rate>
							<timebase>59</timebase>
							<ntsc>TRUE</ntsc>
						</rate>
						<rate>
							<timebase>59</timebase>
							<ntsc>TRUE</ntsc>
						</rate>
						<duration>60</duration>
						<start>6665</start>
						<end>6725</end>
						<in>0</in>
						<out>60</out>
					</clipitem>
					<clipitem frameBlend="FALSE" id="clipitem-telop-810">
						<file id="file-2"/>
						<name>！</name>
						<rate>
							<timebase>59</timebase>
							<ntsc>TRUE</ntsc>
						</rate>
						<rate>
							<timebase>59</timebase>
							<ntsc>TRUE</ntsc>
						</rate>
						<duration>66</duration>
						<start>6725</start>
						<end>6791</end>
						<in>0</in>
						<out>66</out>
					</clipitem>
					<clipitem frameBlend="FALSE" id="clipitem-telop-821">
						<file id="file-2"/>
						<name>！</name>
						<rate>
							<timebase>59</timebase>
							<ntsc>TRUE</ntsc>
						</rate>
						<rate>
							<timebase>59</timebase>
							<ntsc>TRUE</ntsc>
						</rate>
						<duration>60</duration>
						<start>6797</start>
						<end>6857</end>
						<in>0</in>
						<out>60</out>
					</clipitem>
					<clipitem frameBlend="FALSE" id="clipitem-telop-829">
						<file id="file-2"/>
						<name>！</name>
						<rate>
							<timebase>59</timebase>
							<ntsc>TRUE</ntsc>
						</rate>
						<rate>
							<timebase>59</timebase>
							<ntsc>TRUE</ntsc>
						</rate>
						<duration>60</duration>
						<start>6863</start>
						<end>6923</end>
						<in>0</in>
						<out>60</out>
					</clipitem>
					<clipitem frameBlend="FALSE" id="clipitem-telop-843">
						<file id="file-2"/>
						<name>w</name>
						<rate>
							<timebase>59</timebase>
							<ntsc>TRUE</ntsc>
						</rate>
						<rate>
							<timebase>59</timebase>
							<ntsc>TRUE</ntsc>
						</rate>
						<duration>24</duration>
						<start>6935</start>
						<end>6959</end>
						<in>0</in>
						<out>24</out>
					</clipitem>
					<clipitem frameBlend="FALSE" id="clipitem-telop-848">
						<file id="file-2"/>
						<name>！</name>
						<rate>
							<timebase>59</timebase>
							<ntsc>TRUE</ntsc>
						</rate>
						<rate>
							<timebase>59</timebase>
							<ntsc>TRUE</ntsc>
						</rate>
						<duration>60</duration>
						<start>6959</start>
						<end>7019</end>
						<in>0</in>
						<out>60</out>
					</clipitem>
					<clipitem frameBlend="FALSE" id="clipitem-telop-856">
						<file id="file-2"/>
						<name>！</name>
						<rate>
							<timebase>59</timebase>
							<ntsc>TRUE</ntsc>
						</rate>
						<rate>
							<timebase>59</timebase>
							<ntsc>TRUE</ntsc>
						</rate>
						<duration>60</duration>
						<start>7019</start>
						<end>7079</end>
						<in>0</in>
						<out>60</out>
					</clipitem>
					<clipitem frameBlend="FALSE" id="clipitem-telop-865">
						<file id="file-2"/>
						<name>！</name>
						<rate>
							<timebase>59</timebase>
							<ntsc>TRUE</ntsc>
						</rate>
						<rate>
							<timebase>59</timebase>
							<ntsc>TRUE</ntsc>
						</rate>
						<duration>60</duration>
						<start>7085</start>
						<end>7145</end>
						<in>0</in>
						<out>60</out>
					</clipitem>
					<clipitem frameBlend="FALSE" id="clipitem-telop-873">
						<file id="file-2"/>
						<name>！</name>
						<rate>
							<timebase>59</timebase>
							<ntsc>TRUE</ntsc>
						</rate>
						<rate>
							<timebase>59</timebase>
							<ntsc>TRUE</ntsc>
						</rate>
						<duration>66</duration>
						<start>7145</start>
						<end>7211</end>
						<in>0</in>
						<out>66</out>
					</clipitem>
					<clipitem frameBlend="FALSE" id="clipitem-telop-880">
						<file id="file-2"/>
						<name>！</name>
						<rate>
							<timebase>59</timebase>
							<ntsc>TRUE</ntsc>
						</rate>
						<rate>
							<timebase>59</timebase>
							<ntsc>TRUE</ntsc>
						</rate>
						<duration>60</duration>
						<start>7211</start>
						<end>7271</end>
						<in>0</in>
						<out>60</out>
					</clipitem>
					<clipitem frameBlend="FALSE" id="clipitem-telop-888">
						<file id="file-2"/>
						<name>！</name>
						<rate>
							<timebase>59</timebase>
							<ntsc>TRUE</ntsc>
						</rate>
						<rate>
							<timebase>59</timebase>
							<ntsc>TRUE</ntsc>
						</rate>
						<duration>66</duration>
						<start>7271</start>
						<end>7337</end>
						<in>0</in>
						<out>66</out>
					</clipitem>
					<clipitem frameBlend="FALSE" id="clipitem-telop-895">
						<file id="file-2"/>
						<name>！</name>
						<rate>
							<timebase>59</timebase>
							<ntsc>TRUE</ntsc>
						</rate>
						<rate>
							<timebase>59</timebase>
							<ntsc>TRUE</ntsc>
						</rate>
						<duration>60</duration>
						<start>7349</start>
						<end>7409</end>
						<in>0</in>
						<out>60</out>
					</clipitem>
					<clipitem frameBlend="FALSE" id="clipitem-telop-904">
						<file id="file-2"/>
						<name>！</name>
						<rate>
							<timebase>59</timebase>
							<ntsc>TRUE</ntsc>
						</rate>
						<rate>
							<timebase>59</timebase>
							<ntsc>TRUE</ntsc>
						</rate>
						<duration>60</duration>
						<start>7409</start>
						<end>7469</end>
						<in>0</in>
						<out>60</out>
					</clipitem>
					<clipitem frameBlend="FALSE" id="clipitem-telop-916">
						<file id="file-2"/>
						<name>！</name>
						<rate>
							<timebase>59</timebase>
							<ntsc>TRUE</ntsc>
						</rate>
						<rate>
							<timebase>59</timebase>
							<ntsc>TRUE</ntsc>
						</rate>
						<duration>60</duration>
						<start>7469</start>
						<end>7529</end>
						<in>0</in>
						<out>60</out>
					</clipitem>
					<clipitem frameBlend="FALSE" id="clipitem-telop-926">
						<file id="file-2"/>
						<name>！</name>
						<rate>
							<timebase>59</timebase>
							<ntsc>TRUE</ntsc>
						</rate>
						<rate>
							<timebase>59</timebase>
							<ntsc>TRUE</ntsc>
						</rate>
						<duration>66</duration>
						<start>7529</start>
						<end>7595</end>
						<in>0</in>
						<out>66</out>
					</clipitem>
					<clipitem frameBlend="FALSE" id="clipitem-telop-933">
						<file id="file-2"/>
						<name>！</name>
						<rate>
							<timebase>59</timebase>
							<ntsc>TRUE</ntsc>
						</rate>
						<rate>
							<timebase>59</timebase>
							<ntsc>TRUE</ntsc>
						</rate>
						<duration>60</duration>
						<start>7595</start>
						<end>7655</end>
						<in>0</in>
						<out>60</out>
					</clipitem>
					<clipitem frameBlend="FALSE" id="clipitem-telop-945">
						<file id="file-2"/>
						<name>！</name>
						<rate>
							<timebase>59</timebase>
							<ntsc>TRUE</ntsc>
						</rate>
						<rate>
							<timebase>59</timebase>
							<ntsc>TRUE</ntsc>
						</rate>
						<duration>60</duration>
						<start>7673</start>
						<end>7733</end>
						<in>0</in>
						<out>60</out>
					</clipitem>
					<clipitem frameBlend="FALSE" id="clipitem-telop-955">
						<file id="file-2"/>
						<name>！</name>
						<rate>
							<timebase>59</timebase>
							<ntsc>TRUE</ntsc>
						</rate>
						<rate>
							<timebase>59</timebase>
							<ntsc>TRUE</ntsc>
						</rate>
						<duration>66</duration>
						<start>7751</start>
						<end>7817</end>
						<in>0</in>
						<out>66</out>
					</clipitem>
					<clipitem frameBlend="FALSE" id="clipitem-telop-965">
						<file id="file-2"/>
						<name>！</name>
						<rate>
							<timebase>59</timebase>
							<ntsc>TRUE</ntsc>
						</rate>
						<rate>
							<timebase>59</timebase>
							<ntsc>TRUE</ntsc>
						</rate>
						<duration>60</duration>
						<start>7835</start>
						<end>7895</end>
						<in>0</in>
						<out>60</out>
					</clipitem>
					<clipitem frameBlend="FALSE" id="clipitem-telop-970">
						<file id="file-2"/>
						<name>！</name>
						<rate>
							<timebase>59</timebase>
							<ntsc>TRUE</ntsc>
						</rate>
						<rate>
							<timebase>59</timebase>
							<ntsc>TRUE</ntsc>
						</rate>
						<duration>60</duration>
						<start>7919</start>
						<end>7979</end>
						<in>0</in>
						<out>60</out>
					</clipitem>
					<clipitem frameBlend="FALSE" id="clipitem-telop-975">
						<file id="file-2"/>
						<name>！</name>
						<rate>
							<timebase>59</timebase>
							<ntsc>TRUE</ntsc>
						</rate>
						<rate>
							<timebase>59</timebase>
							<ntsc>TRUE</ntsc>
						</rate>
						<duration>60</duration>
						<start>7985</start>
						<end>8045</end>
						<in>0</in>
						<out>60</out>
					</clipitem>
					<clipitem frameBlend="FALSE" id="clipitem-telop-981">
						<file id="file-2"/>
						<name>！</name>
						<rate>
							<timebase>59</timebase>
							<ntsc>TRUE</ntsc>
						</rate>
						<rate>
							<timebase>59</timebase>
							<ntsc>TRUE</ntsc>
						</rate>
						<duration>60</duration>
						<start>8057</start>
						<end>8117</end>
						<in>0</in>
						<out>60</out>
					</clipitem>
					<clipitem frameBlend="FALSE" id="clipitem-telop-989">
						<file id="file-2"/>
						<name>！</name>
						<rate>
							<timebase>59</timebase>
							<ntsc>TRUE</ntsc>
						</rate>
						<rate>
							<timebase>59</timebase>
							<ntsc>TRUE</ntsc>
						</rate>
						<duration>59</duration>
						<start>8147</start>
						<end>8206</end>
						<in>0</in>
						<out>59</out>
					</clipitem>
					<clipitem frameBlend="FALSE" id="clipitem-telop-997">
						<file id="file-2"/>
						<name>！</name>
						<rate>
							<timebase>59</timebase>
							<ntsc>TRUE</ntsc>
						</rate>
						<rate>
							<timebase>59</timebase>
							<ntsc>TRUE</ntsc>
						</rate>
						<duration>66</duration>
						<start>8206</start>
						<end>8272</end>
						<in>0</in>
						<out>66</out>
					</clipitem>
					<clipitem frameBlend="FALSE" id="clipitem-telop-1005">
						<file id="file-2"/>
						<name>！</name>
						<rate>
							<timebase>59</timebase>
							<ntsc>TRUE</ntsc>
						</rate>
						<rate>
							<timebase>59</timebase>
							<ntsc>TRUE</ntsc>
						</rate>
						<duration>60</duration>
						<start>8284</start>
						<end>8344</end>
						<in>0</in>
						<out>60</out>
					</clipitem>
					<clipitem frameBlend="FALSE" id="clipitem-telop-1013">
						<file id="file-2"/>
						<name>！</name>
						<rate>
							<timebase>59</timebase>
							<ntsc>TRUE</ntsc>
						</rate>
						<rate>
							<timebase>59</timebase>
							<ntsc>TRUE</ntsc>
						</rate>
						<duration>60</duration>
						<start>8368</start>
						<end>8428</end>
						<in>0</in>
						<out>60</out>
					</clipitem>
					<clipitem frameBlend="FALSE" id="clipitem-telop-1018">
						<file id="file-2"/>
						<name>！</name>
						<rate>
							<timebase>59</timebase>
							<ntsc>TRUE</ntsc>
						</rate>
						<rate>
							<timebase>59</timebase>
							<ntsc>TRUE</ntsc>
						</rate>
						<duration>60</duration>
						<start>8428</start>
						<end>8488</end>
						<in>0</in>
						<out>60</out>
					</clipitem>
					<clipitem frameBlend="FALSE" id="clipitem-telop-1028">
						<file id="file-2"/>
						<name>！</name>
						<rate>
							<timebase>59</timebase>
							<ntsc>TRUE</ntsc>
						</rate>
						<rate>
							<timebase>59</timebase>
							<ntsc>TRUE</ntsc>
						</rate>
						<duration>60</duration>
						<start>8494</start>
						<end>8554</end>
						<in>0</in>
						<out>60</out>
					</clipitem>
					<clipitem frameBlend="FALSE" id="clipitem-telop-1036">
						<file id="file-2"/>
						<name>！</name>
						<rate>
							<timebase>59</timebase>
							<ntsc>TRUE</ntsc>
						</rate>
						<rate>
							<timebase>59</timebase>
							<ntsc>TRUE</ntsc>
						</rate>
						<duration>66</duration>
						<start>8554</start>
						<end>8620</end>
						<in>0</in>
						<out>66</out>
					</clipitem>
					<clipitem frameBlend="FALSE" id="clipitem-telop-1047">
						<file id="file-2"/>
						<name>！</name>
						<rate>
							<timebase>59</timebase>
							<ntsc>TRUE</ntsc>
						</rate>
						<rate>
							<timebase>59</timebase>
							<ntsc>TRUE</ntsc>
						</rate>
						<duration>60</duration>
						<start>8656</start>
						<end>8716</end>
						<in>0</in>
						<out>60</out>
					</clipitem>
					<clipitem frameBlend="FALSE" id="clipitem-telop-1053">
						<file id="file-2"/>
						<name>！</name>
						<rate>
							<timebase>59</timebase>
							<ntsc>TRUE</ntsc>
						</rate>
						<rate>
							<timebase>59</timebase>
							<ntsc>TRUE</ntsc>
						</rate>
						<duration>60</duration>
						<start>8734</start>
						<end>8794</end>
						<in>0</in>
						<out>60</out>
					</clipitem>
					<clipitem frameBlend="FALSE" id="clipitem-telop-1059">
						<file id="file-2"/>
						<name>！</name>
						<rate>
							<timebase>59</timebase>
							<ntsc>TRUE</ntsc>
						</rate>
						<rate>
							<timebase>59</timebase>
							<ntsc>TRUE</ntsc>
						</rate>
						<duration>66</duration>
						<start>8824</start>
						<end>8890</end>
						<in>0</in>
						<out>66</out>
					</clipitem>
					<clipitem frameBlend="FALSE" id="clipitem-telop-1068">
						<file id="file-2"/>
						<name>！</name>
						<rate>
							<timebase>59</timebase>
							<ntsc>TRUE</ntsc>
						</rate>
						<rate>
							<timebase>59</timebase>
							<ntsc>TRUE</ntsc>
						</rate>
						<duration>60</duration>
						<start>8890</start>
						<end>8950</end>
						<in>0</in>
						<out>60</out>
					</clipitem>
					<clipitem frameBlend="FALSE" id="clipitem-telop-1077">
						<file id="file-2"/>
						<name>！</name>
						<rate>
							<timebase>59</timebase>
							<ntsc>TRUE</ntsc>
						</rate>
						<rate>
							<timebase>59</timebase>
							<ntsc>TRUE</ntsc>
						</rate>
						<duration>60</duration>
						<start>8956</start>
						<end>9016</end>
						<in>0</in>
						<out>60</out>
					</clipitem>
					<clipitem frameBlend="FALSE" id="clipitem-telop-1085">
						<file id="file-2"/>
						<name>！</name>
						<rate>
							<timebase>59</timebase>
							<ntsc>TRUE</ntsc>
						</rate>
						<rate>
							<timebase>59</timebase>
							<ntsc>TRUE</ntsc>
						</rate>
						<duration>60</duration>
						<start>9046</start>
						<end>9106</end>
						<in>0</in>
						<out>60</out>
					</clipitem>
					<clipitem frameBlend="FALSE" id="clipitem-telop-1094">
						<file id="file-2"/>
						<name>！</name>
						<rate>
							<timebase>59</timebase>
							<ntsc>TRUE</ntsc>
						</rate>
						<rate>
							<timebase>59</timebase>
							<ntsc>TRUE</ntsc>
						</rate>
						<duration>60</duration>
						<start>9106</start>
						<end>9166</end>
						<in>0</in>
						<out>60</out>
					</clipitem>
					<clipitem frameBlend="FALSE" id="clipitem-telop-1104">
						<file id="file-2"/>
						<name>！</name>
						<rate>
							<timebase>59</timebase>
							<ntsc>TRUE</ntsc>
						</rate>
						<rate>
							<timebase>59</timebase>
							<ntsc>TRUE</ntsc>
						</rate>
						<duration>60</duration>
						<start>9178</start>
						<end>9238</end>
						<in>0</in>
						<out>60</out>
					</clipitem>
					<clipitem frameBlend="FALSE" id="clipitem-telop-1111">
						<file id="file-2"/>
						<name>！</name>
						<rate>
							<timebase>59</timebase>
							<ntsc>TRUE</ntsc>
						</rate>
						<rate>
							<timebase>59</timebase>
							<ntsc>TRUE</ntsc>
						</rate>
						<duration>60</duration>
						<start>9244</start>
						<end>9304</end>
						<in>0</in>
						<out>60</out>
					</clipitem>
					<clipitem frameBlend="FALSE" id="clipitem-telop-1121">
						<file id="file-2"/>
						<name>！</name>
						<rate>
							<timebase>59</timebase>
							<ntsc>TRUE</ntsc>
						</rate>
						<rate>
							<timebase>59</timebase>
							<ntsc>TRUE</ntsc>
						</rate>
						<duration>66</duration>
						<start>9304</start>
						<end>9370</end>
						<in>0</in>
						<out>66</out>
					</clipitem>
					<clipitem frameBlend="FALSE" id="clipitem-telop-1130">
						<file id="file-2"/>
						<name>！</name>
						<rate>
							<timebase>59</timebase>
							<ntsc>TRUE</ntsc>
						</rate>
						<rate>
							<timebase>59</timebase>
							<ntsc>TRUE</ntsc>
						</rate>
						<duration>60</duration>
						<start>9370</start>
						<end>9430</end>
						<in>0</in>
						<out>60</out>
					</clipitem>
					<clipitem frameBlend="FALSE" id="clipitem-telop-1140">
						<file id="file-2"/>
						<name>！</name>
						<rate>
							<timebase>59</timebase>
							<ntsc>TRUE</ntsc>
						</rate>
						<rate>
							<timebase>59</timebase>
							<ntsc>TRUE</ntsc>
						</rate>
						<duration>66</duration>
						<start>9430</start>
						<end>9496</end>
						<in>0</in>
						<out>66</out>
					</clipitem>
					<clipitem frameBlend="FALSE" id="clipitem-telop-1150">
						<file id="file-2"/>
						<name>！</name>
						<rate>
							<timebase>59</timebase>
							<ntsc>TRUE</ntsc>
						</rate>
						<rate>
							<timebase>59</timebase>
							<ntsc>TRUE</ntsc>
						</rate>
						<duration>60</duration>
						<start>9508</start>
						<end>9568</end>
						<in>0</in>
						<out>60</out>
					</clipitem>
					<clipitem frameBlend="FALSE" id="clipitem-telop-1158">
						<file id="file-2"/>
						<name>！</name>
						<rate>
							<timebase>59</timebase>
							<ntsc>TRUE</ntsc>
						</rate>
						<rate>
							<timebase>59</timebase>
							<ntsc>TRUE</ntsc>
						</rate>
						<duration>60</duration>
						<start>9580</start>
						<end>9640</end>
						<in>0</in>
						<out>60</out>
					</clipitem>
					<clipitem frameBlend="FALSE" id="clipitem-telop-1166">
						<file id="file-2"/>
						<name>！</name>
						<rate>
							<timebase>59</timebase>
							<ntsc>TRUE</ntsc>
						</rate>
						<rate>
							<timebase>59</timebase>
							<ntsc>TRUE</ntsc>
						</rate>
						<duration>60</duration>
						<start>9640</start>
						<end>9700</end>
						<in>0</in>
						<out>60</out>
					</clipitem>
					<clipitem frameBlend="FALSE" id="clipitem-telop-1176">
						<file id="file-2"/>
						<name>！</name>
						<rate>
							<timebase>59</timebase>
							<ntsc>TRUE</ntsc>
						</rate>
						<rate>
							<timebase>59</timebase>
							<ntsc>TRUE</ntsc>
						</rate>
						<duration>66</duration>
						<start>9736</start>
						<end>9802</end>
						<in>0</in>
						<out>66</out>
					</clipitem>
					<clipitem frameBlend="FALSE" id="clipitem-telop-1185">
						<file id="file-2"/>
						<name>！</name>
						<rate>
							<timebase>59</timebase>
							<ntsc>TRUE</ntsc>
						</rate>
						<rate>
							<timebase>59</timebase>
							<ntsc>TRUE</ntsc>
						</rate>
						<duration>60</duration>
						<start>9850</start>
						<end>9910</end>
						<in>0</in>
						<out>60</out>
					</clipitem>
					<clipitem frameBlend="FALSE" id="clipitem-telop-1197">
						<file id="file-2"/>
						<name>！</name>
						<rate>
							<timebase>59</timebase>
							<ntsc>TRUE</ntsc>
						</rate>
						<rate>
							<timebase>59</timebase>
							<ntsc>TRUE</ntsc>
						</rate>
						<duration>60</duration>
						<start>9976</start>
						<end>10036</end>
						<in>0</in>
						<out>60</out>
					</clipitem>
					<clipitem frameBlend="FALSE" id="clipitem-telop-1205">
						<file id="file-2"/>
						<name>！</name>
						<rate>
							<timebase>59</timebase>
							<ntsc>TRUE</ntsc>
						</rate>
						<rate>
							<timebase>59</timebase>
							<ntsc>TRUE</ntsc>
						</rate>
						<duration>66</duration>
						<start>10066</start>
						<end>10132</end>
						<in>0</in>
						<out>66</out>
					</clipitem>
					<clipitem frameBlend="FALSE" id="clipitem-telop-1213">
						<file id="file-2"/>
						<name>！</name>
						<rate>
							<timebase>59</timebase>
							<ntsc>TRUE</ntsc>
						</rate>
						<rate>
							<timebase>59</timebase>
							<ntsc>TRUE</ntsc>
						</rate>
						<duration>66</duration>
						<start>10150</start>
						<end>10216</end>
						<in>0</in>
						<out>66</out>
					</clipitem>
					<clipitem frameBlend="FALSE" id="clipitem-telop-1223">
						<file id="file-2"/>
						<name>！</name>
						<rate>
							<timebase>59</timebase>
							<ntsc>TRUE</ntsc>
						</rate>
						<rate>
							<timebase>59</timebase>
							<ntsc>TRUE</ntsc>
						</rate>
						<duration>60</duration>
						<start>10234</start>
						<end>10294</end>
						<in>0</in>
						<out>60</out>
					</clipitem>
					<clipitem frameBlend="FALSE" id="clipitem-telop-1228">
						<file id="file-2"/>
						<name>！</name>
						<rate>
							<timebase>59</timebase>
							<ntsc>TRUE</ntsc>
						</rate>
						<rate>
							<timebase>59</timebase>
							<ntsc>TRUE</ntsc>
						</rate>
						<duration>60</duration>
						<start>10312</start>
						<end>10372</end>
						<in>0</in>
						<out>60</out>
					</clipitem>
					<clipitem frameBlend="FALSE" id="clipitem-telop-1234">
						<file id="file-2"/>
						<name>！</name>
						<rate>
							<timebase>59</timebase>
							<ntsc>TRUE</ntsc>
						</rate>
						<rate>
							<timebase>59</timebase>
							<ntsc>TRUE</ntsc>
						</rate>
						<duration>60</duration>
						<start>10372</start>
						<end>10432</end>
						<in>0</in>
						<out>60</out>
					</clipitem>
					<clipitem frameBlend="FALSE" id="clipitem-telop-1240">
						<file id="file-2"/>
						<name>！</name>
						<rate>
							<timebase>59</timebase>
							<ntsc>TRUE</ntsc>
						</rate>
						<rate>
							<timebase>59</timebase>
							<ntsc>TRUE</ntsc>
						</rate>
						<duration>66</duration>
						<start>10450</start>
						<end>10516</end>
						<in>0</in>
						<out>66</out>
					</clipitem>
					<clipitem frameBlend="FALSE" id="clipitem-telop-1248">
						<file id="file-2"/>
						<name>！</name>
						<rate>
							<timebase>59</timebase>
							<ntsc>TRUE</ntsc>
						</rate>
						<rate>
							<timebase>59</timebase>
							<ntsc>TRUE</ntsc>
						</rate>
						<duration>66</duration>
						<start>10558</start>
						<end>10624</end>
						<in>0</in>
						<out>66</out>
					</clipitem>
					<clipitem frameBlend="FALSE" id="clipitem-telop-1258">
						<file id="file-2"/>
						<name>！</name>
						<rate>
							<timebase>59</timebase>
							<ntsc>TRUE</ntsc>
						</rate>
						<rate>
							<timebase>59</timebase>
							<ntsc>TRUE</ntsc>
						</rate>
						<duration>60</duration>
						<start>10630</start>
						<end>10690</end>
						<in>0</in>
						<out>60</out>
					</clipitem>
					<clipitem frameBlend="FALSE" id="clipitem-telop-1270">
						<file id="file-2"/>
						<name>w</name>
						<rate>
							<timebase>59</timebase>
							<ntsc>TRUE</ntsc>
						</rate>
						<rate>
							<timebase>59</timebase>
							<ntsc>TRUE</ntsc>
						</rate>
						<duration>30</duration>
						<start>10708</start>
						<end>10738</end>
						<in>0</in>
						<out>30</out>
					</clipitem>
					<clipitem frameBlend="FALSE" id="clipitem-telop-1276">
						<file id="file-2"/>
						<name>w</name>
						<rate>
							<timebase>59</timebase>
							<ntsc>TRUE</ntsc>
						</rate>
						<rate>
							<timebase>59</timebase>
							<ntsc>TRUE</ntsc>
						</rate>
						<duration>24</duration>
						<start>10738</start>
						<end>10762</end>
						<in>0</in>
						<out>24</out>
					</clipitem>
					<clipitem frameBlend="FALSE" id="clipitem-telop-1280">
						<file id="file-2"/>
						<name>！</name>
						<rate>
							<timebase>59</timebase>
							<ntsc>TRUE</ntsc>
						</rate>
						<rate>
							<timebase>59</timebase>
							<ntsc>TRUE</ntsc>
						</rate>
						<duration>60</duration>
						<start>10786</start>
						<end>10846</end>
						<in>0</in>
						<out>60</out>
					</clipitem>
					<clipitem frameBlend="FALSE" id="clipitem-telop-1288">
						<file id="file-2"/>
						<name>！</name>
						<rate>
							<timebase>59</timebase>
							<ntsc>TRUE</ntsc>
						</rate>
						<rate>
							<timebase>59</timebase>
							<ntsc>TRUE</ntsc>
						</rate>
						<duration>60</duration>
						<start>10852</start>
						<end>10912</end>
						<in>0</in>
						<out>60</out>
					</clipitem>
					<clipitem frameBlend="FALSE" id="clipitem-telop-1293">
						<file id="file-2"/>
						<name>！</name>
						<rate>
							<timebase>59</timebase>
							<ntsc>TRUE</ntsc>
						</rate>
						<rate>
							<timebase>59</timebase>
							<ntsc>TRUE</ntsc>
						</rate>
						<duration>60</duration>
						<start>10930</start>
						<end>10990</end>
						<in>0</in>
						<out>60</out>
					</clipitem>
					<clipitem frameBlend="FALSE" id="clipitem-telop-1303">
						<file id="file-2"/>
						<name>！</name>
						<rate>
							<timebase>59</timebase>
							<ntsc>TRUE</ntsc>
						</rate>
						<rate>
							<timebase>59</timebase>
							<ntsc>TRUE</ntsc>
						</rate>
						<duration>60</duration>
						<start>10990</start>
						<end>11050</end>
						<in>0</in>
						<out>60</out>
					</clipitem>
					<clipitem frameBlend="FALSE" id="clipitem-telop-1310">
						<file id="file-2"/>
						<name>！</name>
						<rate>
							<timebase>59</timebase>
							<ntsc>TRUE</ntsc>
						</rate>
						<rate>
							<timebase>59</timebase>
							<ntsc>TRUE</ntsc>
						</rate>
						<duration>60</duration>
						<start>11056</start>
						<end>11116</end>
						<in>0</in>
						<out>60</out>
					</clipitem>
					<clipitem frameBlend="FALSE" id="clipitem-telop-1322">
						<file id="file-2"/>
						<name>！</name>
						<rate>
							<timebase>59</timebase>
							<ntsc>TRUE</ntsc>
						</rate>
						<rate>
							<timebase>59</timebase>
							<ntsc>TRUE</ntsc>
						</rate>
						<duration>60</duration>
						<start>11152</start>
						<end>11212</end>
						<in>0</in>
						<out>60</out>
					</clipitem>
					<clipitem frameBlend="FALSE" id="clipitem-telop-1331">
						<file id="file-2"/>
						<name>！</name>
						<rate>
							<timebase>59</timebase>
							<ntsc>TRUE</ntsc>
						</rate>
						<rate>
							<timebase>59</timebase>
							<ntsc>TRUE</ntsc>
						</rate>
						<duration>60</duration>
						<start>11254</start>
						<end>11314</end>
						<in>0</in>
						<out>60</out>
					</clipitem>
					<clipitem frameBlend="FALSE" id="clipitem-telop-1337">
						<file id="file-2"/>
						<name>！</name>
						<rate>
							<timebase>59</timebase>
							<ntsc>TRUE</ntsc>
						</rate>
						<rate>
							<timebase>59</timebase>
							<ntsc>TRUE</ntsc>
						</rate>
						<duration>66</duration>
						<start>11320</start>
						<end>11386</end>
						<in>0</in>
						<out>66</out>
					</clipitem>
					<clipitem frameBlend="FALSE" id="clipitem-telop-1349">
						<file id="file-2"/>
						<name>！</name>
						<rate>
							<timebase>59</timebase>
							<ntsc>TRUE</ntsc>
						</rate>
						<rate>
							<timebase>59</timebase>
							<ntsc>TRUE</ntsc>
						</rate>
						<duration>60</duration>
						<start>11428</start>
						<end>11488</end>
						<in>0</in>
						<out>60</out>
					</clipitem>
					<clipitem frameBlend="FALSE" id="clipitem-telop-1358">
						<file id="file-2"/>
						<name>！</name>
						<rate>
							<timebase>59</timebase>
							<ntsc>TRUE</ntsc>
						</rate>
						<rate>
							<timebase>59</timebase>
							<ntsc>TRUE</ntsc>
						</rate>
						<duration>60</duration>
						<start>11494</start>
						<end>11554</end>
						<in>0</in>
						<out>60</out>
					</clipitem>
					<clipitem frameBlend="FALSE" id="clipitem-telop-1368">
						<file id="file-2"/>
						<name>！</name>
						<rate>
							<timebase>59</timebase>
							<ntsc>TRUE</ntsc>
						</rate>
						<rate>
							<timebase>59</timebase>
							<ntsc>TRUE</ntsc>
						</rate>
						<duration>60</duration>
						<start>11560</start>
						<end>11620</end>
						<in>0</in>
						<out>60</out>
					</clipitem>
					<clipitem frameBlend="FALSE" id="clipitem-telop-1373">
						<file id="file-2"/>
						<name>！</name>
						<rate>
							<timebase>59</timebase>
							<ntsc>TRUE</ntsc>
						</rate>
						<rate>
							<timebase>59</timebase>
							<ntsc>TRUE</ntsc>
						</rate>
						<duration>66</duration>
						<start>11632</start>
						<end>11698</end>
						<in>0</in>
						<out>66</out>
					</clipitem>
					<clipitem frameBlend="FALSE" id="clipitem-telop-1384">
						<file id="file-2"/>
						<name>！</name>
						<rate>
							<timebase>59</timebase>
							<ntsc>TRUE</ntsc>
						</rate>
						<rate>
							<timebase>59</timebase>
							<ntsc>TRUE</ntsc>
						</rate>
						<duration>60</duration>
						<start>11698</start>
						<end>11758</end>
						<in>0</in>
						<out>60</out>
					</clipitem>
					<clipitem frameBlend="FALSE" id="clipitem-telop-1392">
						<file id="file-2"/>
						<name>！</name>
						<rate>
							<timebase>59</timebase>
							<ntsc>TRUE</ntsc>
						</rate>
						<rate>
							<timebase>59</timebase>
							<ntsc>TRUE</ntsc>
						</rate>
						<duration>66</duration>
						<start>11758</start>
						<end>11824</end>
						<in>0</in>
						<out>66</out>
					</clipitem>
					<clipitem frameBlend="FALSE" id="clipitem-telop-1399">
						<file id="file-2"/>
						<name>！</name>
						<rate>
							<timebase>59</timebase>
							<ntsc>TRUE</ntsc>
						</rate>
						<rate>
							<timebase>59</timebase>
							<ntsc>TRUE</ntsc>
						</rate>
						<duration>60</duration>
						<start>11830</start>
						<end>11890</end>
						<in>0</in>
						<out>60</out>
					</clipitem>
					<clipitem frameBlend="FALSE" id="clipitem-telop-1411">
						<file id="file-2"/>
						<name>！</name>
						<rate>
							<timebase>59</timebase>
							<ntsc>TRUE</ntsc>
						</rate>
						<rate>
							<timebase>59</timebase>
							<ntsc>TRUE</ntsc>
						</rate>
						<duration>60</duration>
						<start>11914</start>
						<end>11974</end>
						<in>0</in>
						<out>60</out>
					</clipitem>
					<clipitem frameBlend="FALSE" id="clipitem-telop-1420">
						<file id="file-2"/>
						<name>！</name>
						<rate>
							<timebase>59</timebase>
							<ntsc>TRUE</ntsc>
						</rate>
						<rate>
							<timebase>59</timebase>
							<ntsc>TRUE</ntsc>
						</rate>
						<duration>60</duration>
						<start>11992</start>
						<end>12052</end>
						<in>0</in>
						<out>60</out>
					</clipitem>
					<clipitem frameBlend="FALSE" id="clipitem-telop-1431">
						<file id="file-2"/>
						<name>！</name>
						<rate>
							<timebase>59</timebase>
							<ntsc>TRUE</ntsc>
						</rate>
						<rate>
							<timebase>59</timebase>
							<ntsc>TRUE</ntsc>
						</rate>
						<duration>66</duration>
						<start>12070</start>
						<end>12136</end>
						<in>0</in>
						<out>66</out>
					</clipitem>
					<clipitem frameBlend="FALSE" id="clipitem-telop-1440">
						<file id="file-2"/>
						<name>！</name>
						<rate>
							<timebase>59</timebase>
							<ntsc>TRUE</ntsc>
						</rate>
						<rate>
							<timebase>59</timebase>
							<ntsc>TRUE</ntsc>
						</rate>
						<duration>66</duration>
						<start>12142</start>
						<end>12208</end>
						<in>0</in>
						<out>66</out>
					</clipitem>
					<clipitem frameBlend="FALSE" id="clipitem-telop-1449">
						<file id="file-2"/>
						<name>！</name>
						<rate>
							<timebase>59</timebase>
							<ntsc>TRUE</ntsc>
						</rate>
						<rate>
							<timebase>59</timebase>
							<ntsc>TRUE</ntsc>
						</rate>
						<duration>60</duration>
						<start>12226</start>
						<end>12286</end>
						<in>0</in>
						<out>60</out>
					</clipitem>
					<clipitem frameBlend="FALSE" id="clipitem-telop-1460">
						<file id="file-2"/>
						<name>！</name>
						<rate>
							<timebase>59</timebase>
							<ntsc>TRUE</ntsc>
						</rate>
						<rate>
							<timebase>59</timebase>
							<ntsc>TRUE</ntsc>
						</rate>
						<duration>60</duration>
						<start>12298</start>
						<end>12358</end>
						<in>0</in>
						<out>60</out>
					</clipitem>
					<clipitem frameBlend="FALSE" id="clipitem-telop-1466">
						<file id="file-2"/>
						<name>w</name>
						<rate>
							<timebase>59</timebase>
							<ntsc>TRUE</ntsc>
						</rate>
						<rate>
							<timebase>59</timebase>
							<ntsc>TRUE</ntsc>
						</rate>
						<duration>24</duration>
						<start>12382</start>
						<end>12406</end>
						<in>0</in>
						<out>24</out>
					</clipitem>
					<clipitem frameBlend="FALSE" id="clipitem-telop-1471">
						<file id="file-2"/>
						<name>！</name>
						<rate>
							<timebase>59</timebase>
							<ntsc>TRUE</ntsc>
						</rate>
						<rate>
							<timebase>59</timebase>
							<ntsc>TRUE</ntsc>
						</rate>
						<duration>60</duration>
						<start>12424</start>
						<end>12484</end>
						<in>0</in>
						<out>60</out>
					</clipitem>
					<clipitem frameBlend="FALSE" id="clipitem-telop-1478">
						<file id="file-2"/>
						<name>！</name>
						<rate>
							<timebase>59</timebase>
							<ntsc>TRUE</ntsc>
						</rate>
						<rate>
							<timebase>59</timebase>
							<ntsc>TRUE</ntsc>
						</rate>
						<duration>60</duration>
						<start>12484</start>
						<end>12544</end>
						<in>0</in>
						<out>60</out>
					</clipitem>
					<clipitem frameBlend="FALSE" id="clipitem-telop-1486">
						<file id="file-2"/>
						<name>！</name>
						<rate>
							<timebase>59</timebase>
							<ntsc>TRUE</ntsc>
						</rate>
						<rate>
							<timebase>59</timebase>
							<ntsc>TRUE</ntsc>
						</rate>
						<duration>60</duration>
						<start>12550</start>
						<end>12610</end>
						<in>0</in>
						<out>60</out>
					</clipitem>
					<clipitem frameBlend="FALSE" id="clipitem-telop-1495">
						<file id="file-2"/>
						<name>！</name>
						<rate>
							<timebase>59</timebase>
							<ntsc>TRUE</ntsc>
						</rate>
						<rate>
							<timebase>59</timebase>
							<ntsc>TRUE</ntsc>
						</rate>
						<duration>60</duration>
						<start>12616</start>
						<end>12676</end>
						<in>0</in>
						<out>60</out>
					</clipitem>
					<clipitem frameBlend="FALSE" id="clipitem-telop-1509">
						<file id="file-2"/>
						<name>！</name>
						<rate>
							<timebase>59</timebase>
							<ntsc>TRUE</ntsc>
						</rate>
						<rate>
							<timebase>59</timebase>
							<ntsc>TRUE</ntsc>
						</rate>
						<duration>66</duration>
						<start>12676</start>
						<end>12742</end>
						<in>0</in>
						<out>66</out>
					</clipitem>
					<clipitem frameBlend="FALSE" id="clipitem-telop-1514">
						<file id="file-2"/>
						<name>！</name>
						<rate>
							<timebase>59</timebase>
							<ntsc>TRUE</ntsc>
						</rate>
						<rate>
							<timebase>59</timebase>
							<ntsc>TRUE</ntsc>
						</rate>
						<duration>60</duration>
						<start>12754</start>
						<end>12814</end>
						<in>0</in>
						<out>60</out>
					</clipitem>
					<clipitem frameBlend="FALSE" id="clipitem-telop-1523">
						<file id="file-2"/>
						<name>！</name>
						<rate>
							<timebase>59</timebase>
							<ntsc>TRUE</ntsc>
						</rate>
						<rate>
							<timebase>59</timebase>
							<ntsc>TRUE</ntsc>
						</rate>
						<duration>66</duration>
						<start>12832</start>
						<end>12898</end>
						<in>0</in>
						<out>66</out>
					</clipitem>
					<clipitem frameBlend="FALSE" id="clipitem-telop-1531">
						<file id="file-2"/>
						<name>！</name>
						<rate>
							<timebase>59</timebase>
							<ntsc>TRUE</ntsc>
						</rate>
						<rate>
							<timebase>59</timebase>
							<ntsc>TRUE</ntsc>
						</rate>
						<duration>60</duration>
						<start>12904</start>
						<end>12964</end>
						<in>0</in>
						<out>60</out>
					</clipitem>
					<clipitem frameBlend="FALSE" id="clipitem-telop-1540">
						<file id="file-2"/>
						<name>！</name>
						<rate>
							<timebase>59</timebase>
							<ntsc>TRUE</ntsc>
						</rate>
						<rate>
							<timebase>59</timebase>
							<ntsc>TRUE</ntsc>
						</rate>
						<duration>60</duration>
						<start>12988</start>
						<end>13048</end>
						<in>0</in>
						<out>60</out>
					</clipitem>
					<clipitem frameBlend="FALSE" id="clipitem-telop-1550">
						<file id="file-2"/>
						<name>！</name>
						<rate>
							<timebase>59</timebase>
							<ntsc>TRUE</ntsc>
						</rate>
						<rate>
							<timebase>59</timebase>
							<ntsc>TRUE</ntsc>
						</rate>
						<duration>60</duration>
						<start>13084</start>
						<end>13144</end>
						<in>0</in>
						<out>60</out>
					</clipitem>
					<clipitem frameBlend="FALSE" id="clipitem-telop-1558">
						<file id="file-2"/>
						<name>！</name>
						<rate>
							<timebase>59</timebase>
							<ntsc>TRUE</ntsc>
						</rate>
						<rate>
							<timebase>59</timebase>
							<ntsc>TRUE</ntsc>
						</rate>
						<duration>60</duration>
						<start>13162</start>
						<end>13222</end>
						<in>0</in>
						<out>60</out>
					</clipitem>
					<clipitem frameBlend="FALSE" id="clipitem-telop-1563">
						<file id="file-2"/>
						<name>！</name>
						<rate>
							<timebase>59</timebase>
							<ntsc>TRUE</ntsc>
						</rate>
						<rate>
							<timebase>59</timebase>
							<ntsc>TRUE</ntsc>
						</rate>
						<duration>60</duration>
						<start>13228</start>
						<end>13288</end>
						<in>0</in>
						<out>60</out>
					</clipitem>
					<clipitem frameBlend="FALSE" id="clipitem-telop-1574">
						<file id="file-2"/>
						<name>！</name>
						<rate>
							<timebase>59</timebase>
							<ntsc>TRUE</ntsc>
						</rate>
						<rate>
							<timebase>59</timebase>
							<ntsc>TRUE</ntsc>
						</rate>
						<duration>60</duration>
						<start>13288</start>
						<end>13348</end>
						<in>0</in>
						<out>60</out>
					</clipitem>
					<clipitem frameBlend="FALSE" id="clipitem-telop-1580">
						<file id="file-2"/>
						<name>！</name>
						<rate>
							<timebase>59</timebase>
							<ntsc>TRUE</ntsc>
						</rate>
						<rate>
							<timebase>59</timebase>
							<ntsc>TRUE</ntsc>
						</rate>
						<duration>60</duration>
						<start>13366</start>
						<end>13426</end>
						<in>0</in>
						<out>60</out>
					</clipitem>
					<clipitem frameBlend="FALSE" id="clipitem-telop-1588">
						<file id="file-2"/>
						<name>！</name>
						<rate>
							<timebase>59</timebase>
							<ntsc>TRUE</ntsc>
						</rate>
						<rate>
							<timebase>59</timebase>
							<ntsc>TRUE</ntsc>
						</rate>
						<duration>60</duration>
						<start>13462</start>
						<end>13522</end>
						<in>0</in>
						<out>60</out>
					</clipitem>
					<clipitem frameBlend="FALSE" id="clipitem-telop-1596">
						<file id="file-2"/>
						<name>！</name>
						<rate>
							<timebase>59</timebase>
							<ntsc>TRUE</ntsc>
						</rate>
						<rate>
							<timebase>59</timebase>
							<ntsc>TRUE</ntsc>
						</rate>
						<duration>66</duration>
						<start>13522</start>
						<end>13588</end>
						<in>0</in>
						<out>66</out>
					</clipitem>
					<clipitem frameBlend="FALSE" id="clipitem-telop-1605">
						<file id="file-2"/>
						<name>！</name>
						<rate>
							<timebase>59</timebase>
							<ntsc>TRUE</ntsc>
						</rate>
						<rate>
							<timebase>59</timebase>
							<ntsc>TRUE</ntsc>
						</rate>
						<duration>60</duration>
						<start>13588</start>
						<end>13648</end>
						<in>0</in>
						<out>60</out>
					</clipitem>
					<clipitem frameBlend="FALSE" id="clipitem-telop-1613">
						<file id="file-2"/>
						<name>！</name>
						<rate>
							<timebase>59</timebase>
							<ntsc>TRUE</ntsc>
						</rate>
						<rate>
							<timebase>59</timebase>
							<ntsc>TRUE</ntsc>
						</rate>
						<duration>60</duration>
						<start>13648</start>
						<end>13708</end>
						<in>0</in>
						<out>60</out>
					</clipitem>
					<clipitem frameBlend="FALSE" id="clipitem-telop-1620">
						<file id="file-2"/>
						<name>！</name>
						<rate>
							<timebase>59</timebase>
							<ntsc>TRUE</ntsc>
						</rate>
						<rate>
							<timebase>59</timebase>
							<ntsc>TRUE</ntsc>
						</rate>
						<duration>60</duration>
						<start>13708</start>
						<end>13768</end>
						<in>0</in>
						<out>60</out>
					</clipitem>
					<clipitem frameBlend="FALSE" id="clipitem-telop-1629">
						<file id="file-2"/>
						<name>！</name>
						<rate>
							<timebase>59</timebase>
							<ntsc>TRUE</ntsc>
						</rate>
						<rate>
							<timebase>59</timebase>
							<ntsc>TRUE</ntsc>
						</rate>
						<duration>60</duration>
						<start>13780</start>
						<end>13840</end>
						<in>0</in>
						<out>60</out>
					</clipitem>
					<clipitem frameBlend="FALSE" id="clipitem-telop-1641">
						<file id="file-2"/>
						<name>！</name>
						<rate>
							<timebase>59</timebase>
							<ntsc>TRUE</ntsc>
						</rate>
						<rate>
							<timebase>59</timebase>
							<ntsc>TRUE</ntsc>
						</rate>
						<duration>66</duration>
						<start>13894</start>
						<end>13960</end>
						<in>0</in>
						<out>66</out>
					</clipitem>
					<clipitem frameBlend="FALSE" id="clipitem-telop-1650">
						<file id="file-2"/>
						<name>！</name>
						<rate>
							<timebase>59</timebase>
							<ntsc>TRUE</ntsc>
						</rate>
						<rate>
							<timebase>59</timebase>
							<ntsc>TRUE</ntsc>
						</rate>
						<duration>60</duration>
						<start>13966</start>
						<end>14026</end>
						<in>0</in>
						<out>60</out>
					</clipitem>
					<clipitem frameBlend="FALSE" id="clipitem-telop-1658">
						<file id="file-2"/>
						<name>！</name>
						<rate>
							<timebase>59</timebase>
							<ntsc>TRUE</ntsc>
						</rate>
						<rate>
							<timebase>59</timebase>
							<ntsc>TRUE</ntsc>
						</rate>
						<duration>60</duration>
						<start>14044</start>
						<end>14104</end>
						<in>0</in>
						<out>60</out>
					</clipitem>
					<clipitem frameBlend="FALSE" id="clipitem-telop-1667">
						<file id="file-2"/>
						<name>！</name>
						<rate>
							<timebase>59</timebase>
							<ntsc>TRUE</ntsc>
						</rate>
						<rate>
							<timebase>59</timebase>
							<ntsc>TRUE</ntsc>
						</rate>
						<duration>60</duration>
						<start>14134</start>
						<end>14194</end>
						<in>0</in>
						<out>60</out>
					</clipitem>
					<clipitem frameBlend="FALSE" id="clipitem-telop-1678">
						<file id="file-2"/>
						<name>！</name>
						<rate>
							<timebase>59</timebase>
							<ntsc>TRUE</ntsc>
						</rate>
						<rate>
							<timebase>59</timebase>
							<ntsc>TRUE</ntsc>
						</rate>
						<duration>60</duration>
						<start>14194</start>
						<end>14254</end>
						<in>0</in>
						<out>60</out>
					</clipitem>
					<clipitem frameBlend="FALSE" id="clipitem-telop-1686">
						<file id="file-2"/>
						<name>！</name>
						<rate>
							<timebase>59</timebase>
							<ntsc>TRUE</ntsc>
						</rate>
						<rate>
							<timebase>59</timebase>
							<ntsc>TRUE</ntsc>
						</rate>
						<duration>60</duration>
						<start>14254</start>
						<end>14314</end>
						<in>0</in>
						<out>60</out>
					</clipitem>
					<clipitem frameBlend="FALSE" id="clipitem-telop-1693">
						<file id="file-2"/>
						<name>！</name>
						<rate>
							<timebase>59</timebase>
							<ntsc>TRUE</ntsc>
						</rate>
						<rate>
							<timebase>59</timebase>
							<ntsc>TRUE</ntsc>
						</rate>
						<duration>60</duration>
						<start>14332</start>
						<end>14392</end>
						<in>0</in>
						<out>60</out>
					</clipitem>
					<clipitem frameBlend="FALSE" id="clipitem-telop-1706">
						<file id="file-2"/>
						<name>！</name>
						<rate>
							<timebase>59</timebase>
							<ntsc>TRUE</ntsc>
						</rate>
						<rate>
							<timebase>59</timebase>
							<ntsc>TRUE</ntsc>
						</rate>
						<duration>60</duration>
						<start>14452</start>
						<end>14512</end>
						<in>0</in>
						<out>60</out>
					</clipitem>
					<clipitem frameBlend="FALSE" id="clipitem-telop-1714">
						<file id="file-2"/>
						<name>！</name>
						<rate>
							<timebase>59</timebase>
							<ntsc>TRUE</ntsc>
						</rate>
						<rate>
							<timebase>59</timebase>
							<ntsc>TRUE</ntsc>
						</rate>
						<duration>60</duration>
						<start>14524</start>
						<end>14584</end>
						<in>0</in>
						<out>60</out>
					</clipitem>
					<clipitem frameBlend="FALSE" id="clipitem-telop-1721">
						<file id="file-2"/>
						<name>！</name>
						<rate>
							<timebase>59</timebase>
							<ntsc>TRUE</ntsc>
						</rate>
						<rate>
							<timebase>59</timebase>
							<ntsc>TRUE</ntsc>
						</rate>
						<duration>66</duration>
						<start>14596</start>
						<end>14662</end>
						<in>0</in>
						<out>66</out>
					</clipitem>
					<clipitem frameBlend="FALSE" id="clipitem-telop-1728">
						<file id="file-2"/>
						<name>！</name>
						<rate>
							<timebase>59</timebase>
							<ntsc>TRUE</ntsc>
						</rate>
						<rate>
							<timebase>59</timebase>
							<ntsc>TRUE</ntsc>
						</rate>
						<duration>60</duration>
						<start>14662</start>
						<end>14722</end>
						<in>0</in>
						<out>60</out>
					</clipitem>
					<clipitem frameBlend="FALSE" id="clipitem-telop-1737">
						<file id="file-2"/>
						<name>！</name>
						<rate>
							<timebase>59</timebase>
							<ntsc>TRUE</ntsc>
						</rate>
						<rate>
							<timebase>59</timebase>
							<ntsc>TRUE</ntsc>
						</rate>
						<duration>60</duration>
						<start>14722</start>
						<end>14782</end>
						<in>0</in>
						<out>60</out>
					</clipitem>
					<clipitem frameBlend="FALSE" id="clipitem-telop-1745">
						<file id="file-2"/>
						<name>！</name>
						<rate>
							<timebase>59</timebase>
							<ntsc>TRUE</ntsc>
						</rate>
						<rate>
							<timebase>59</timebase>
							<ntsc>TRUE</ntsc>
						</rate>
						<duration>66</duration>
						<start>14782</start>
						<end>14848</end>
						<in>0</in>
						<out>66</out>
					</clipitem>
					<clipitem frameBlend="FALSE" id="clipitem-telop-1754">
						<file id="file-2"/>
						<name>！</name>
						<rate>
							<timebase>59</timebase>
							<ntsc>TRUE</ntsc>
						</rate>
						<rate>
							<timebase>59</timebase>
							<ntsc>TRUE</ntsc>
						</rate>
						<duration>66</duration>
						<start>14938</start>
						<end>15004</end>
						<in>0</in>
						<out>66</out>
					</clipitem>
					<clipitem frameBlend="FALSE" id="clipitem-telop-1762">
						<file id="file-2"/>
						<name>！</name>
						<rate>
							<timebase>59</timebase>
							<ntsc>TRUE</ntsc>
						</rate>
						<rate>
							<timebase>59</timebase>
							<ntsc>TRUE</ntsc>
						</rate>
						<duration>60</duration>
						<start>15004</start>
						<end>15064</end>
						<in>0</in>
						<out>60</out>
					</clipitem>
					<clipitem frameBlend="FALSE" id="clipitem-telop-1770">
						<file id="file-2"/>
						<name>！</name>
						<rate>
							<timebase>59</timebase>
							<ntsc>TRUE</ntsc>
						</rate>
						<rate>
							<timebase>59</timebase>
							<ntsc>TRUE</ntsc>
						</rate>
						<duration>60</duration>
						<start>15082</start>
						<end>15142</end>
						<in>0</in>
						<out>60</out>
					</clipitem>
					<clipitem frameBlend="FALSE" id="clipitem-telop-1777">
						<file id="file-2"/>
						<name>！</name>
						<rate>
							<timebase>59</timebase>
							<ntsc>TRUE</ntsc>
						</rate>
						<rate>
							<timebase>59</timebase>
							<ntsc>TRUE</ntsc>
						</rate>
						<duration>60</duration>
						<start>15142</start>
						<end>15202</end>
						<in>0</in>
						<out>60</out>
					</clipitem>
					<clipitem frameBlend="FALSE" id="clipitem-telop-1784">
						<file id="file-2"/>
						<name>！</name>
						<rate>
							<timebase>59</timebase>
							<ntsc>TRUE</ntsc>
						</rate>
						<rate>
							<timebase>59</timebase>
							<ntsc>TRUE</ntsc>
						</rate>
						<duration>60</duration>
						<start>15220</start>
						<end>15280</end>
						<in>0</in>
						<out>60</out>
					</clipitem>
					<clipitem frameBlend="FALSE" id="clipitem-telop-1790">
						<file id="file-2"/>
						<name>！</name>
						<rate>
							<timebase>59</timebase>
							<ntsc>TRUE</ntsc>
						</rate>
						<rate>
							<timebase>59</timebase>
							<ntsc>TRUE</ntsc>
						</rate>
						<duration>60</duration>
						<start>15298</start>
						<end>15358</end>
						<in>0</in>
						<out>60</out>
					</clipitem>
					<clipitem frameBlend="FALSE" id="clipitem-telop-1796">
						<file id="file-2"/>
						<name>！</name>
						<rate>
							<timebase>59</timebase>
							<ntsc>TRUE</ntsc>
						</rate>
						<rate>
							<timebase>59</timebase>
							<ntsc>TRUE</ntsc>
						</rate>
						<duration>60</duration>
						<start>15364</start>
						<end>15424</end>
						<in>0</in>
						<out>60</out>
					</clipitem>
					<clipitem frameBlend="FALSE" id="clipitem-telop-1808">
						<file id="file-2"/>
						<name>！</name>
						<rate>
							<timebase>59</timebase>
							<ntsc>TRUE</ntsc>
						</rate>
						<rate>
							<timebase>59</timebase>
							<ntsc>TRUE</ntsc>
						</rate>
						<duration>66</duration>
						<start>15424</start>
						<end>15490</end>
						<in>0</in>
						<out>66</out>
					</clipitem>
					<clipitem frameBlend="FALSE" id="clipitem-telop-1815">
						<file id="file-2"/>
						<name>w</name>
						<rate>
							<timebase>59</timebase>
							<ntsc>TRUE</ntsc>
						</rate>
						<rate>
							<timebase>59</timebase>
							<ntsc>TRUE</ntsc>
						</rate>
						<duration>24</duration>
						<start>15490</start>
						<end>15514</end>
						<in>0</in>
						<out>24</out>
					</clipitem>
					<clipitem frameBlend="FALSE" id="clipitem-telop-1821">
						<file id="file-2"/>
						<name>！</name>
						<rate>
							<timebase>59</timebase>
							<ntsc>TRUE</ntsc>
						</rate>
						<rate>
							<timebase>59</timebase>
							<ntsc>TRUE</ntsc>
						</rate>
						<duration>60</duration>
						<start>15562</start>
						<end>15622</end>
						<in>0</in>
						<out>60</out>
					</clipitem>
					<clipitem frameBlend="FALSE" id="clipitem-telop-1829">
						<file id="file-2"/>
						<name>！</name>
						<rate>
							<timebase>59</timebase>
							<ntsc>TRUE</ntsc>
						</rate>
						<rate>
							<timebase>59</timebase>
							<ntsc>TRUE</ntsc>
						</rate>
						<duration>60</duration>
						<start>15646</start>
						<end>15706</end>
						<in>0</in>
						<out>60</out>
					</clipitem>
					<clipitem frameBlend="FALSE" id="clipitem-telop-1836">
						<file id="file-2"/>
						<name>w</name>
						<rate>
							<timebase>59</timebase>
							<ntsc>TRUE</ntsc>
						</rate>
						<rate>
							<timebase>59</timebase>
							<ntsc>TRUE</ntsc>
						</rate>
						<duration>30</duration>
						<start>15724</start>
						<end>15754</end>
						<in>0</in>
						<out>30</out>
					</clipitem>
					<clipitem frameBlend="FALSE" id="clipitem-telop-1843">
						<file id="file-2"/>
						<name>！</name>
						<rate>
							<timebase>59</timebase>
							<ntsc>TRUE</ntsc>
						</rate>
						<rate>
							<timebase>59</timebase>
							<ntsc>TRUE</ntsc>
						</rate>
						<duration>66</duration>
						<start>15784</start>
						<end>15850</end>
						<in>0</in>
						<out>66</out>
					</clipitem>
					<clipitem frameBlend="FALSE" id="clipitem-telop-1849">
						<file id="file-2"/>
						<name>！</name>
						<rate>
							<timebase>59</timebase>
							<ntsc>TRUE</ntsc>
						</rate>
						<rate>
							<timebase>59</timebase>
							<ntsc>TRUE</ntsc>
						</rate>
						<duration>66</duration>
						<start>15850</start>
						<end>15916</end>
						<in>0</in>
						<out>66</out>
					</clipitem>
					<clipitem frameBlend="FALSE" id="clipitem-telop-1863">
						<file id="file-2"/>
						<name>！</name>
						<rate>
							<timebase>59</timebase>
							<ntsc>TRUE</ntsc>
						</rate>
						<rate>
							<timebase>59</timebase>
							<ntsc>TRUE</ntsc>
						</rate>
						<duration>60</duration>
						<start>15940</start>
						<end>16000</end>
						<in>0</in>
						<out>60</out>
					</clipitem>
					<clipitem frameBlend="FALSE" id="clipitem-telop-1869">
						<file id="file-2"/>
						<name>！</name>
						<rate>
							<timebase>59</timebase>
							<ntsc>TRUE</ntsc>
						</rate>
						<rate>
							<timebase>59</timebase>
							<ntsc>TRUE</ntsc>
						</rate>
						<duration>60</duration>
						<start>16000</start>
						<end>16060</end>
						<in>0</in>
						<out>60</out>
					</clipitem>
					<clipitem frameBlend="FALSE" id="clipitem-telop-1877">
						<file id="file-2"/>
						<name>！</name>
						<rate>
							<timebase>59</timebase>
							<ntsc>TRUE</ntsc>
						</rate>
						<rate>
							<timebase>59</timebase>
							<ntsc>TRUE</ntsc>
						</rate>
						<duration>60</duration>
						<start>16066</start>
						<end>16126</end>
						<in>0</in>
						<out>60</out>
					</clipitem>
					<clipitem frameBlend="FALSE" id="clipitem-telop-1889">
						<file id="file-2"/>
						<name>！</name>
						<rate>
							<timebase>59</timebase>
							<ntsc>TRUE</ntsc>
						</rate>
						<rate>
							<timebase>59</timebase>
							<ntsc>TRUE</ntsc>
						</rate>
						<duration>60</duration>
						<start>16138</start>
						<end>16198</end>
						<in>0</in>
						<out>60</out>
					</clipitem>
					<clipitem frameBlend="FALSE" id="clipitem-telop-1895">
						<file id="file-2"/>
						<name>！</name>
						<rate>
							<timebase>59</timebase>
							<ntsc>TRUE</ntsc>
						</rate>
						<rate>
							<timebase>59</timebase>
							<ntsc>TRUE</ntsc>
						</rate>
						<duration>60</duration>
						<start>16198</start>
						<end>16258</end>
						<in>0</in>
						<out>60</out>
					</clipitem>
					<clipitem frameBlend="FALSE" id="clipitem-telop-1904">
						<file id="file-2"/>
						<name>！</name>
						<rate>
							<timebase>59</timebase>
							<ntsc>TRUE</ntsc>
						</rate>
						<rate>
							<timebase>59</timebase>
							<ntsc>TRUE</ntsc>
						</rate>
						<duration>60</duration>
						<start>16264</start>
						<end>16324</end>
						<in>0</in>
						<out>60</out>
					</clipitem>
					<clipitem frameBlend="FALSE" id="clipitem-telop-1918">
						<file id="file-2"/>
						<name>！</name>
						<rate>
							<timebase>59</timebase>
							<ntsc>TRUE</ntsc>
						</rate>
						<rate>
							<timebase>59</timebase>
							<ntsc>TRUE</ntsc>
						</rate>
						<duration>60</duration>
						<start>16377</start>
						<end>16437</end>
						<in>0</in>
						<out>60</out>
					</clipitem>
					<clipitem frameBlend="FALSE" id="clipitem-telop-1929">
						<file id="file-2"/>
						<name>！</name>
						<rate>
							<timebase>59</timebase>
							<ntsc>TRUE</ntsc>
						</rate>
						<rate>
							<timebase>59</timebase>
							<ntsc>TRUE</ntsc>
						</rate>
						<duration>60</duration>
						<start>16449</start>
						<end>16509</end>
						<in>0</in>
						<out>60</out>
					</clipitem>
					<clipitem frameBlend="FALSE" id="clipitem-telop-1936">
						<file id="file-2"/>
						<name>！</name>
						<rate>
							<timebase>59</timebase>
							<ntsc>TRUE</ntsc>
						</rate>
						<rate>
							<timebase>59</timebase>
							<ntsc>TRUE</ntsc>
						</rate>
						<duration>60</duration>
						<start>16509</start>
						<end>16569</end>
						<in>0</in>
						<out>60</out>
					</clipitem>
					<clipitem frameBlend="FALSE" id="clipitem-telop-1944">
						<file id="file-2"/>
						<name>！</name>
						<rate>
							<timebase>59</timebase>
							<ntsc>TRUE</ntsc>
						</rate>
						<rate>
							<timebase>59</timebase>
							<ntsc>TRUE</ntsc>
						</rate>
						<duration>60</duration>
						<start>16587</start>
						<end>16647</end>
						<in>0</in>
						<out>60</out>
					</clipitem>
					<clipitem frameBlend="FALSE" id="clipitem-telop-1951">
						<file id="file-2"/>
						<name>！</name>
						<rate>
							<timebase>59</timebase>
							<ntsc>TRUE</ntsc>
						</rate>
						<rate>
							<timebase>59</timebase>
							<ntsc>TRUE</ntsc>
						</rate>
						<duration>60</duration>
						<start>16665</start>
						<end>16725</end>
						<in>0</in>
						<out>60</out>
					</clipitem>
					<clipitem frameBlend="FALSE" id="clipitem-telop-1961">
						<file id="file-2"/>
						<name>！</name>
						<rate>
							<timebase>59</timebase>
							<ntsc>TRUE</ntsc>
						</rate>
						<rate>
							<timebase>59</timebase>
							<ntsc>TRUE</ntsc>
						</rate>
						<duration>60</duration>
						<start>16725</start>
						<end>16785</end>
						<in>0</in>
						<out>60</out>
					</clipitem>
					<clipitem frameBlend="FALSE" id="clipitem-telop-1974">
						<file id="file-2"/>
						<name>！</name>
						<rate>
							<timebase>59</timebase>
							<ntsc>TRUE</ntsc>
						</rate>
						<rate>
							<timebase>59</timebase>
							<ntsc>TRUE</ntsc>
						</rate>
						<duration>60</duration>
						<start>16821</start>
						<end>16881</end>
						<in>0</in>
						<out>60</out>
					</clipitem>
					<clipitem frameBlend="FALSE" id="clipitem-telop-1982">
						<file id="file-2"/>
						<name>！</name>
						<rate>
							<timebase>59</timebase>
							<ntsc>TRUE</ntsc>
						</rate>
						<rate>
							<timebase>59</timebase>
							<ntsc>TRUE</ntsc>
						</rate>
						<duration>66</duration>
						<start>16887</start>
						<end>16953</end>
						<in>0</in>
						<out>66</out>
					</clipitem>
					<clipitem frameBlend="FALSE" id="clipitem-telop-1991">
						<file id="file-2"/>
						<name>！</name>
						<rate>
							<timebase>59</timebase>
							<ntsc>TRUE</ntsc>
						</rate>
						<rate>
							<timebase>59</timebase>
							<ntsc>TRUE</ntsc>
						</rate>
						<duration>60</duration>
						<start>17031</start>
						<end>17091</end>
						<in>0</in>
						<out>60</out>
					</clipitem>
					<clipitem frameBlend="FALSE" id="clipitem-telop-1998">
						<file id="file-2"/>
						<name>！</name>
						<rate>
							<timebase>59</timebase>
							<ntsc>TRUE</ntsc>
						</rate>
						<rate>
							<timebase>59</timebase>
							<ntsc>TRUE</ntsc>
						</rate>
						<duration>60</duration>
						<start>17097</start>
						<end>17157</end>
						<in>0</in>
						<out>60</out>
					</clipitem>
					<clipitem frameBlend="FALSE" id="clipitem-telop-2008">
						<file id="file-2"/>
						<name>！</name>
						<rate>
							<timebase>59</timebase>
							<ntsc>TRUE</ntsc>
						</rate>
						<rate>
							<timebase>59</timebase>
							<ntsc>TRUE</ntsc>
						</rate>
						<duration>66</duration>
						<start>17157</start>
						<end>17223</end>
						<in>0</in>
						<out>66</out>
					</clipitem>
					<clipitem frameBlend="FALSE" id="clipitem-telop-2018">
						<file id="file-2"/>
						<name>！</name>
						<rate>
							<timebase>59</timebase>
							<ntsc>TRUE</ntsc>
						</rate>
						<rate>
							<timebase>59</timebase>
							<ntsc>TRUE</ntsc>
						</rate>
						<duration>60</duration>
						<start>17259</start>
						<end>17319</end>
						<in>0</in>
						<out>60</out>
					</clipitem>
					<clipitem frameBlend="FALSE" id="clipitem-telop-2026">
						<file id="file-2"/>
						<name>！</name>
						<rate>
							<timebase>59</timebase>
							<ntsc>TRUE</ntsc>
						</rate>
						<rate>
							<timebase>59</timebase>
							<ntsc>TRUE</ntsc>
						</rate>
						<duration>60</duration>
						<start>17325</start>
						<end>17385</end>
						<in>0</in>
						<out>60</out>
					</clipitem>
					<clipitem frameBlend="FALSE" id="clipitem-telop-2031">
						<file id="file-2"/>
						<name>！</name>
						<rate>
							<timebase>59</timebase>
							<ntsc>TRUE</ntsc>
						</rate>
						<rate>
							<timebase>59</timebase>
							<ntsc>TRUE</ntsc>
						</rate>
						<duration>60</duration>
						<start>17385</start>
						<end>17445</end>
						<in>0</in>
						<out>60</out>
					</clipitem>
					<clipitem frameBlend="FALSE" id="clipitem-telop-2038">
						<file id="file-2"/>
						<name>！</name>
						<rate>
							<timebase>59</timebase>
							<ntsc>TRUE</ntsc>
						</rate>
						<rate>
							<timebase>59</timebase>
							<ntsc>TRUE</ntsc>
						</rate>
						<duration>60</duration>
						<start>17451</start>
						<end>17511</end>
						<in>0</in>
						<out>60</out>
					</clipitem>
					<clipitem frameBlend="FALSE" id="clipitem-telop-2046">
						<file id="file-2"/>
						<name>！</name>
						<rate>
							<timebase>59</timebase>
							<ntsc>TRUE</ntsc>
						</rate>
						<rate>
							<timebase>59</timebase>
							<ntsc>TRUE</ntsc>
						</rate>
						<duration>60</duration>
						<start>17523</start>
						<end>17583</end>
						<in>0</in>
						<out>60</out>
					</clipitem>
					<clipitem frameBlend="FALSE" id="clipitem-telop-2053">
						<file id="file-2"/>
						<name>！</name>
						<rate>
							<timebase>59</timebase>
							<ntsc>TRUE</ntsc>
						</rate>
						<rate>
							<timebase>59</timebase>
							<ntsc>TRUE</ntsc>
						</rate>
						<duration>60</duration>
						<start>17601</start>
						<end>17661</end>
						<in>0</in>
						<out>60</out>
					</clipitem>
					<clipitem frameBlend="FALSE" id="clipitem-telop-2064">
						<file id="file-2"/>
						<name>！</name>
						<rate>
							<timebase>59</timebase>
							<ntsc>TRUE</ntsc>
						</rate>
						<rate>
							<timebase>59</timebase>
							<ntsc>TRUE</ntsc>
						</rate>
						<duration>66</duration>
						<start>17739</start>
						<end>17805</end>
						<in>0</in>
						<out>66</out>
					</clipitem>
					<clipitem frameBlend="FALSE" id="clipitem-telop-2074">
						<file id="file-2"/>
						<name>！</name>
						<rate>
							<timebase>59</timebase>
							<ntsc>TRUE</ntsc>
						</rate>
						<rate>
							<timebase>59</timebase>
							<ntsc>TRUE</ntsc>
						</rate>
						<duration>66</duration>
						<start>17805</start>
						<end>17871</end>
						<in>0</in>
						<out>66</out>
					</clipitem>
					<clipitem frameBlend="FALSE" id="clipitem-telop-2079">
						<file id="file-2"/>
						<name>！</name>
						<rate>
							<timebase>59</timebase>
							<ntsc>TRUE</ntsc>
						</rate>
						<rate>
							<timebase>59</timebase>
							<ntsc>TRUE</ntsc>
						</rate>
						<duration>66</duration>
						<start>17877</start>
						<end>17943</end>
						<in>0</in>
						<out>66</out>
					</clipitem>
					<clipitem frameBlend="FALSE" id="clipitem-telop-2087">
						<file id="file-2"/>
						<name>！</name>
						<rate>
							<timebase>59</timebase>
							<ntsc>TRUE</ntsc>
						</rate>
						<rate>
							<timebase>59</timebase>
							<ntsc>TRUE</ntsc>
						</rate>
						<duration>60</duration>
						<start>17943</start>
						<end>18003</end>
						<in>0</in>
						<out>60</out>
					</clipitem>
					<clipitem frameBlend="FALSE" id="clipitem-telop-2098">
						<file id="file-2"/>
						<name>！</name>
						<rate>
							<timebase>59</timebase>
							<ntsc>TRUE</ntsc>
						</rate>
						<rate>
							<timebase>59</timebase>
							<ntsc>TRUE</ntsc>
						</rate>
						<duration>60</duration>
						<start>18027</start>
						<end>18087</end>
						<in>0</in>
						<out>60</out>
					</clipitem>
					<clipitem frameBlend="FALSE" id="clipitem-telop-2107">
						<file id="file-2"/>
						<name>！</name>
						<rate>
							<timebase>59</timebase>
							<ntsc>TRUE</ntsc>
						</rate>
						<rate>
							<timebase>59</timebase>
							<ntsc>TRUE</ntsc>
						</rate>
						<duration>60</duration>
						<start>18093</start>
						<end>18153</end>
						<in>0</in>
						<out>60</out>
					</clipitem>
					<clipitem frameBlend="FALSE" id="clipitem-telop-2113">
						<file id="file-2"/>
						<name>！</name>
						<rate>
							<timebase>59</timebase>
							<ntsc>TRUE</ntsc>
						</rate>
						<rate>
							<timebase>59</timebase>
							<ntsc>TRUE</ntsc>
						</rate>
						<duration>66</duration>
						<start>18153</start>
						<end>18219</end>
						<in>0</in>
						<out>66</out>
					</clipitem>
					<clipitem frameBlend="FALSE" id="clipitem-telop-2122">
						<file id="file-2"/>
						<name>！</name>
						<rate>
							<timebase>59</timebase>
							<ntsc>TRUE</ntsc>
						</rate>
						<rate>
							<timebase>59</timebase>
							<ntsc>TRUE</ntsc>
						</rate>
						<duration>60</duration>
						<start>18225</start>
						<end>18285</end>
						<in>0</in>
						<out>60</out>
					</clipitem>
					<clipitem frameBlend="FALSE" id="clipitem-telop-2128">
						<file id="file-2"/>
						<name>！</name>
						<rate>
							<timebase>59</timebase>
							<ntsc>TRUE</ntsc>
						</rate>
						<rate>
							<timebase>59</timebase>
							<ntsc>TRUE</ntsc>
						</rate>
						<duration>60</duration>
						<start>18291</start>
						<end>18351</end>
						<in>0</in>
						<out>60</out>
					</clipitem>
					<clipitem frameBlend="FALSE" id="clipitem-telop-2132">
						<file id="file-2"/>
						<name>！</name>
						<rate>
							<timebase>59</timebase>
							<ntsc>TRUE</ntsc>
						</rate>
						<rate>
							<timebase>59</timebase>
							<ntsc>TRUE</ntsc>
						</rate>
						<duration>60</duration>
						<start>18363</start>
						<end>18423</end>
						<in>0</in>
						<out>60</out>
					</clipitem>
					<clipitem frameBlend="FALSE" id="clipitem-telop-2139">
						<file id="file-2"/>
						<name>！</name>
						<rate>
							<timebase>59</timebase>
							<ntsc>TRUE</ntsc>
						</rate>
						<rate>
							<timebase>59</timebase>
							<ntsc>TRUE</ntsc>
						</rate>
						<duration>60</duration>
						<start>18441</start>
						<end>18501</end>
						<in>0</in>
						<out>60</out>
					</clipitem>
					<clipitem frameBlend="FALSE" id="clipitem-telop-2144">
						<file id="file-2"/>
						<name>！</name>
						<rate>
							<timebase>59</timebase>
							<ntsc>TRUE</ntsc>
						</rate>
						<rate>
							<timebase>59</timebase>
							<ntsc>TRUE</ntsc>
						</rate>
						<duration>60</duration>
						<start>18501</start>
						<end>18561</end>
						<in>0</in>
						<out>60</out>
					</clipitem>
					<clipitem frameBlend="FALSE" id="clipitem-telop-2152">
						<file id="file-2"/>
						<name>！</name>
						<rate>
							<timebase>59</timebase>
							<ntsc>TRUE</ntsc>
						</rate>
						<rate>
							<timebase>59</timebase>
							<ntsc>TRUE</ntsc>
						</rate>
						<duration>60</duration>
						<start>18579</start>
						<end>18639</end>
						<in>0</in>
						<out>60</out>
					</clipitem>
					<clipitem frameBlend="FALSE" id="clipitem-telop-2162">
						<file id="file-2"/>
						<name>！</name>
						<rate>
							<timebase>59</timebase>
							<ntsc>TRUE</ntsc>
						</rate>
						<rate>
							<timebase>59</timebase>
							<ntsc>TRUE</ntsc>
						</rate>
						<duration>60</duration>
						<start>18639</start>
						<end>18699</end>
						<in>0</in>
						<out>60</out>
					</clipitem>
					<clipitem frameBlend="FALSE" id="clipitem-telop-2169">
						<file id="file-2"/>
						<name>！</name>
						<rate>
							<timebase>59</timebase>
							<ntsc>TRUE</ntsc>
						</rate>
						<rate>
							<timebase>59</timebase>
							<ntsc>TRUE</ntsc>
						</rate>
						<duration>60</duration>
						<start>18765</start>
						<end>18825</end>
						<in>0</in>
						<out>60</out>
					</clipitem>
					<clipitem frameBlend="FALSE" id="clipitem-telop-2188">
						<file id="file-2"/>
						<name>！</name>
						<rate>
							<timebase>59</timebase>
							<ntsc>TRUE</ntsc>
						</rate>
						<rate>
							<timebase>59</timebase>
							<ntsc>TRUE</ntsc>
						</rate>
						<duration>60</duration>
						<start>19017</start>
						<end>19077</end>
						<in>0</in>
						<out>60</out>
					</clipitem>
					<clipitem frameBlend="FALSE" id="clipitem-telop-2201">
						<file id="file-2"/>
						<name>！</name>
						<rate>
							<timebase>59</timebase>
							<ntsc>TRUE</ntsc>
						</rate>
						<rate>
							<timebase>59</timebase>
							<ntsc>TRUE</ntsc>
						</rate>
						<duration>60</duration>
						<start>19089</start>
						<end>19149</end>
						<in>0</in>
						<out>60</out>
					</clipitem>
					<clipitem frameBlend="FALSE" id="clipitem-telop-2209">
						<file id="file-2"/>
						<name>お嬢様首をつけていますね</name>
						<rate>
							<timebase>59</timebase>
							<ntsc>TRUE</ntsc>
						</rate>
						<rate>
							<timebase>59</timebase>
							<ntsc>TRUE</ntsc>
						</rate>
						<duration>120</duration>
						<start>19191</start>
						<end>19311</end>
						<in>0</in>
						<out>120</out>
					</clipitem>
					<clipitem frameBlend="FALSE" id="clipitem-telop-2219">
						<file id="file-2"/>
						<name>！</name>
						<rate>
							<timebase>59</timebase>
							<ntsc>TRUE</ntsc>
						</rate>
						<rate>
							<timebase>59</timebase>
							<ntsc>TRUE</ntsc>
						</rate>
						<duration>60</duration>
						<start>19311</start>
						<end>19371</end>
						<in>0</in>
						<out>60</out>
					</clipitem>
					<clipitem frameBlend="FALSE" id="clipitem-telop-2231">
						<file id="file-2"/>
						<name>！</name>
						<rate>
							<timebase>59</timebase>
							<ntsc>TRUE</ntsc>
						</rate>
						<rate>
							<timebase>59</timebase>
							<ntsc>TRUE</ntsc>
						</rate>
						<duration>60</duration>
						<start>19371</start>
						<end>19431</end>
						<in>0</in>
						<out>60</out>
					</clipitem>
					<clipitem frameBlend="FALSE" id="clipitem-telop-2238">
						<file id="file-2"/>
						<name>！</name>
						<rate>
							<timebase>59</timebase>
							<ntsc>TRUE</ntsc>
						</rate>
						<rate>
							<timebase>59</timebase>
							<ntsc>TRUE</ntsc>
						</rate>
						<duration>66</duration>
						<start>19437</start>
						<end>19503</end>
						<in>0</in>
						<out>66</out>
					</clipitem>
					<clipitem frameBlend="FALSE" id="clipitem-telop-2248">
						<file id="file-2"/>
						<name>！</name>
						<rate>
							<timebase>59</timebase>
							<ntsc>TRUE</ntsc>
						</rate>
						<rate>
							<timebase>59</timebase>
							<ntsc>TRUE</ntsc>
						</rate>
						<duration>60</duration>
						<start>19515</start>
						<end>19575</end>
						<in>0</in>
						<out>60</out>
					</clipitem>
					<clipitem frameBlend="FALSE" id="clipitem-telop-2254">
						<file id="file-2"/>
						<name>！</name>
						<rate>
							<timebase>59</timebase>
							<ntsc>TRUE</ntsc>
						</rate>
						<rate>
							<timebase>59</timebase>
							<ntsc>TRUE</ntsc>
						</rate>
						<duration>60</duration>
						<start>19581</start>
						<end>19641</end>
						<in>0</in>
						<out>60</out>
					</clipitem>
					<clipitem frameBlend="FALSE" id="clipitem-telop-2264">
						<file id="file-2"/>
						<name>！</name>
						<rate>
							<timebase>59</timebase>
							<ntsc>TRUE</ntsc>
						</rate>
						<rate>
							<timebase>59</timebase>
							<ntsc>TRUE</ntsc>
						</rate>
						<duration>60</duration>
						<start>19641</start>
						<end>19701</end>
						<in>0</in>
						<out>60</out>
					</clipitem>
					<clipitem frameBlend="FALSE" id="clipitem-telop-2273">
						<file id="file-2"/>
						<name>！</name>
						<rate>
							<timebase>59</timebase>
							<ntsc>TRUE</ntsc>
						</rate>
						<rate>
							<timebase>59</timebase>
							<ntsc>TRUE</ntsc>
						</rate>
						<duration>66</duration>
						<start>19713</start>
						<end>19779</end>
						<in>0</in>
						<out>66</out>
					</clipitem>
					<clipitem frameBlend="FALSE" id="clipitem-telop-2281">
						<file id="file-2"/>
						<name>！</name>
						<rate>
							<timebase>59</timebase>
							<ntsc>TRUE</ntsc>
						</rate>
						<rate>
							<timebase>59</timebase>
							<ntsc>TRUE</ntsc>
						</rate>
						<duration>60</duration>
						<start>19797</start>
						<end>19857</end>
						<in>0</in>
						<out>60</out>
					</clipitem>
					<clipitem frameBlend="FALSE" id="clipitem-telop-2292">
						<file id="file-2"/>
						<name>！</name>
						<rate>
							<timebase>59</timebase>
							<ntsc>TRUE</ntsc>
						</rate>
						<rate>
							<timebase>59</timebase>
							<ntsc>TRUE</ntsc>
						</rate>
						<duration>66</duration>
						<start>19857</start>
						<end>19923</end>
						<in>0</in>
						<out>66</out>
					</clipitem>
					<clipitem frameBlend="FALSE" id="clipitem-telop-2300">
						<file id="file-2"/>
						<name>！</name>
						<rate>
							<timebase>59</timebase>
							<ntsc>TRUE</ntsc>
						</rate>
						<rate>
							<timebase>59</timebase>
							<ntsc>TRUE</ntsc>
						</rate>
						<duration>66</duration>
						<start>19941</start>
						<end>20007</end>
						<in>0</in>
						<out>66</out>
					</clipitem>
					<clipitem frameBlend="FALSE" id="clipitem-telop-2312">
						<file id="file-2"/>
						<name>！</name>
						<rate>
							<timebase>59</timebase>
							<ntsc>TRUE</ntsc>
						</rate>
						<rate>
							<timebase>59</timebase>
							<ntsc>TRUE</ntsc>
						</rate>
						<duration>60</duration>
						<start>20049</start>
						<end>20109</end>
						<in>0</in>
						<out>60</out>
					</clipitem>
					<clipitem frameBlend="FALSE" id="clipitem-telop-2322">
						<file id="file-2"/>
						<name>！</name>
						<rate>
							<timebase>59</timebase>
							<ntsc>TRUE</ntsc>
						</rate>
						<rate>
							<timebase>59</timebase>
							<ntsc>TRUE</ntsc>
						</rate>
						<duration>60</duration>
						<start>20133</start>
						<end>20193</end>
						<in>0</in>
						<out>60</out>
					</clipitem>
					<clipitem frameBlend="FALSE" id="clipitem-telop-2329">
						<file id="file-2"/>
						<name>！</name>
						<rate>
							<timebase>59</timebase>
							<ntsc>TRUE</ntsc>
						</rate>
						<rate>
							<timebase>59</timebase>
							<ntsc>TRUE</ntsc>
						</rate>
						<duration>60</duration>
						<start>20205</start>
						<end>20265</end>
						<in>0</in>
						<out>60</out>
					</clipitem>
					<clipitem frameBlend="FALSE" id="clipitem-telop-2343">
						<file id="file-2"/>
						<name>！</name>
						<rate>
							<timebase>59</timebase>
							<ntsc>TRUE</ntsc>
						</rate>
						<rate>
							<timebase>59</timebase>
							<ntsc>TRUE</ntsc>
						</rate>
						<duration>60</duration>
						<start>20289</start>
						<end>20349</end>
						<in>0</in>
						<out>60</out>
					</clipitem>
					<clipitem frameBlend="FALSE" id="clipitem-telop-2350">
						<file id="file-2"/>
						<name>！</name>
						<rate>
							<timebase>59</timebase>
							<ntsc>TRUE</ntsc>
						</rate>
						<rate>
							<timebase>59</timebase>
							<ntsc>TRUE</ntsc>
						</rate>
						<duration>60</duration>
						<start>20355</start>
						<end>20415</end>
						<in>0</in>
						<out>60</out>
					</clipitem>
					<clipitem frameBlend="FALSE" id="clipitem-telop-2363">
						<file id="file-2"/>
						<name>！</name>
						<rate>
							<timebase>59</timebase>
							<ntsc>TRUE</ntsc>
						</rate>
						<rate>
							<timebase>59</timebase>
							<ntsc>TRUE</ntsc>
						</rate>
						<duration>60</duration>
						<start>20421</start>
						<end>20481</end>
						<in>0</in>
						<out>60</out>
					</clipitem>
					<clipitem frameBlend="FALSE" id="clipitem-telop-2372">
						<file id="file-2"/>
						<name>！</name>
						<rate>
							<timebase>59</timebase>
							<ntsc>TRUE</ntsc>
						</rate>
						<rate>
							<timebase>59</timebase>
							<ntsc>TRUE</ntsc>
						</rate>
						<duration>60</duration>
						<start>20493</start>
						<end>20553</end>
						<in>0</in>
						<out>60</out>
					</clipitem>
					<clipitem frameBlend="FALSE" id="clipitem-telop-2384">
						<file id="file-2"/>
						<name>！</name>
						<rate>
							<timebase>59</timebase>
							<ntsc>TRUE</ntsc>
						</rate>
						<rate>
							<timebase>59</timebase>
							<ntsc>TRUE</ntsc>
						</rate>
						<duration>60</duration>
						<start>20613</start>
						<end>20673</end>
						<in>0</in>
						<out>60</out>
					</clipitem>
					<clipitem frameBlend="FALSE" id="clipitem-telop-2390">
						<file id="file-2"/>
						<name>！</name>
						<rate>
							<timebase>59</timebase>
							<ntsc>TRUE</ntsc>
						</rate>
						<rate>
							<timebase>59</timebase>
							<ntsc>TRUE</ntsc>
						</rate>
						<duration>60</duration>
						<start>20691</start>
						<end>20751</end>
						<in>0</in>
						<out>60</out>
					</clipitem>
					<clipitem frameBlend="FALSE" id="clipitem-telop-2397">
						<file id="file-2"/>
						<name>！</name>
						<rate>
							<timebase>59</timebase>
							<ntsc>TRUE</ntsc>
						</rate>
						<rate>
							<timebase>59</timebase>
							<ntsc>TRUE</ntsc>
						</rate>
						<duration>60</duration>
						<start>20763</start>
						<end>20823</end>
						<in>0</in>
						<out>60</out>
					</clipitem>
					<clipitem frameBlend="FALSE" id="clipitem-telop-2405">
						<file id="file-2"/>
						<name>！</name>
						<rate>
							<timebase>59</timebase>
							<ntsc>TRUE</ntsc>
						</rate>
						<rate>
							<timebase>59</timebase>
							<ntsc>TRUE</ntsc>
						</rate>
						<duration>60</duration>
						<start>20823</start>
						<end>20883</end>
						<in>0</in>
						<out>60</out>
					</clipitem>
					<clipitem frameBlend="FALSE" id="clipitem-telop-2415">
						<file id="file-2"/>
						<name>！</name>
						<rate>
							<timebase>59</timebase>
							<ntsc>TRUE</ntsc>
						</rate>
						<rate>
							<timebase>59</timebase>
							<ntsc>TRUE</ntsc>
						</rate>
						<duration>60</duration>
						<start>20931</start>
						<end>20991</end>
						<in>0</in>
						<out>60</out>
					</clipitem>
					<clipitem frameBlend="FALSE" id="clipitem-telop-2425">
						<file id="file-2"/>
						<name>！</name>
						<rate>
							<timebase>59</timebase>
							<ntsc>TRUE</ntsc>
						</rate>
						<rate>
							<timebase>59</timebase>
							<ntsc>TRUE</ntsc>
						</rate>
						<duration>60</duration>
						<start>20991</start>
						<end>21051</end>
						<in>0</in>
						<out>60</out>
					</clipitem>
					<clipitem frameBlend="FALSE" id="clipitem-telop-2434">
						<file id="file-2"/>
						<name>！</name>
						<rate>
							<timebase>59</timebase>
							<ntsc>TRUE</ntsc>
						</rate>
						<rate>
							<timebase>59</timebase>
							<ntsc>TRUE</ntsc>
						</rate>
						<duration>60</duration>
						<start>21051</start>
						<end>21111</end>
						<in>0</in>
						<out>60</out>
					</clipitem>
					<clipitem frameBlend="FALSE" id="clipitem-telop-2450">
						<file id="file-2"/>
						<name>！</name>
						<rate>
							<timebase>59</timebase>
							<ntsc>TRUE</ntsc>
						</rate>
						<rate>
							<timebase>59</timebase>
							<ntsc>TRUE</ntsc>
						</rate>
						<duration>60</duration>
						<start>21111</start>
						<end>21171</end>
						<in>0</in>
						<out>60</out>
					</clipitem>
					<clipitem frameBlend="FALSE" id="clipitem-telop-2461">
						<file id="file-2"/>
						<name>！</name>
						<rate>
							<timebase>59</timebase>
							<ntsc>TRUE</ntsc>
						</rate>
						<rate>
							<timebase>59</timebase>
							<ntsc>TRUE</ntsc>
						</rate>
						<duration>60</duration>
						<start>21195</start>
						<end>21255</end>
						<in>0</in>
						<out>60</out>
					</clipitem>
					<clipitem frameBlend="FALSE" id="clipitem-telop-2475">
						<file id="file-2"/>
						<name>！</name>
						<rate>
							<timebase>59</timebase>
							<ntsc>TRUE</ntsc>
						</rate>
						<rate>
							<timebase>59</timebase>
							<ntsc>TRUE</ntsc>
						</rate>
						<duration>60</duration>
						<start>21255</start>
						<end>21315</end>
						<in>0</in>
						<out>60</out>
					</clipitem>
					<clipitem frameBlend="FALSE" id="clipitem-telop-2483">
						<file id="file-2"/>
						<name>！</name>
						<rate>
							<timebase>59</timebase>
							<ntsc>TRUE</ntsc>
						</rate>
						<rate>
							<timebase>59</timebase>
							<ntsc>TRUE</ntsc>
						</rate>
						<duration>66</duration>
						<start>21315</start>
						<end>21381</end>
						<in>0</in>
						<out>66</out>
					</clipitem>
					<clipitem frameBlend="FALSE" id="clipitem-telop-2495">
						<file id="file-2"/>
						<name>！</name>
						<rate>
							<timebase>59</timebase>
							<ntsc>TRUE</ntsc>
						</rate>
						<rate>
							<timebase>59</timebase>
							<ntsc>TRUE</ntsc>
						</rate>
						<duration>66</duration>
						<start>21381</start>
						<end>21447</end>
						<in>0</in>
						<out>66</out>
					</clipitem>
					<clipitem frameBlend="FALSE" id="clipitem-telop-2505">
						<file id="file-2"/>
						<name>！</name>
						<rate>
							<timebase>59</timebase>
							<ntsc>TRUE</ntsc>
						</rate>
						<rate>
							<timebase>59</timebase>
							<ntsc>TRUE</ntsc>
						</rate>
						<duration>60</duration>
						<start>21447</start>
						<end>21507</end>
						<in>0</in>
						<out>60</out>
					</clipitem>
					<clipitem frameBlend="FALSE" id="clipitem-telop-2520">
						<file id="file-2"/>
						<name>！</name>
						<rate>
							<timebase>59</timebase>
							<ntsc>TRUE</ntsc>
						</rate>
						<rate>
							<timebase>59</timebase>
							<ntsc>TRUE</ntsc>
						</rate>
						<duration>60</duration>
						<start>21549</start>
						<end>21609</end>
						<in>0</in>
						<out>60</out>
					</clipitem>
					<clipitem frameBlend="FALSE" id="clipitem-telop-2532">
						<file id="file-2"/>
						<name>！</name>
						<rate>
							<timebase>59</timebase>
							<ntsc>TRUE</ntsc>
						</rate>
						<rate>
							<timebase>59</timebase>
							<ntsc>TRUE</ntsc>
						</rate>
						<duration>60</duration>
						<start>21645</start>
						<end>21705</end>
						<in>0</in>
						<out>60</out>
					</clipitem>
					<clipitem frameBlend="FALSE" id="clipitem-telop-2544">
						<file id="file-2"/>
						<name>！</name>
						<rate>
							<timebase>59</timebase>
							<ntsc>TRUE</ntsc>
						</rate>
						<rate>
							<timebase>59</timebase>
							<ntsc>TRUE</ntsc>
						</rate>
						<duration>60</duration>
						<start>21717</start>
						<end>21777</end>
						<in>0</in>
						<out>60</out>
					</clipitem>
					<clipitem frameBlend="FALSE" id="clipitem-telop-2558">
						<file id="file-2"/>
						<name>！</name>
						<rate>
							<timebase>59</timebase>
							<ntsc>TRUE</ntsc>
						</rate>
						<rate>
							<timebase>59</timebase>
							<ntsc>TRUE</ntsc>
						</rate>
						<duration>60</duration>
						<start>21795</start>
						<end>21855</end>
						<in>0</in>
						<out>60</out>
					</clipitem>
					<clipitem frameBlend="FALSE" id="clipitem-telop-2572">
						<file id="file-2"/>
						<name>！</name>
						<rate>
							<timebase>59</timebase>
							<ntsc>TRUE</ntsc>
						</rate>
						<rate>
							<timebase>59</timebase>
							<ntsc>TRUE</ntsc>
						</rate>
						<duration>60</duration>
						<start>21879</start>
						<end>21939</end>
						<in>0</in>
						<out>60</out>
					</clipitem>
					<clipitem frameBlend="FALSE" id="clipitem-telop-2582">
						<file id="file-2"/>
						<name>！</name>
						<rate>
							<timebase>59</timebase>
							<ntsc>TRUE</ntsc>
						</rate>
						<rate>
							<timebase>59</timebase>
							<ntsc>TRUE</ntsc>
						</rate>
						<duration>66</duration>
						<start>21939</start>
						<end>22005</end>
						<in>0</in>
						<out>66</out>
					</clipitem>
					<clipitem frameBlend="FALSE" id="clipitem-telop-2590">
						<file id="file-2"/>
						<name>！</name>
						<rate>
							<timebase>59</timebase>
							<ntsc>TRUE</ntsc>
						</rate>
						<rate>
							<timebase>59</timebase>
							<ntsc>TRUE</ntsc>
						</rate>
						<duration>60</duration>
						<start>22005</start>
						<end>22065</end>
						<in>0</in>
						<out>60</out>
					</clipitem>
					<clipitem frameBlend="FALSE" id="clipitem-telop-2598">
						<file id="file-2"/>
						<name>！</name>
						<rate>
							<timebase>59</timebase>
							<ntsc>TRUE</ntsc>
						</rate>
						<rate>
							<timebase>59</timebase>
							<ntsc>TRUE</ntsc>
						</rate>
						<duration>60</duration>
						<start>22065</start>
						<end>22125</end>
						<in>0</in>
						<out>60</out>
					</clipitem>
					<clipitem frameBlend="FALSE" id="clipitem-telop-2613">
						<file id="file-2"/>
						<name>w</name>
						<rate>
							<timebase>59</timebase>
							<ntsc>TRUE</ntsc>
						</rate>
						<rate>
							<timebase>59</timebase>
							<ntsc>TRUE</ntsc>
						</rate>
						<duration>30</duration>
						<start>22131</start>
						<end>22161</end>
						<in>0</in>
						<out>30</out>
					</clipitem>
					<clipitem frameBlend="FALSE" id="clipitem-telop-2617">
						<file id="file-2"/>
						<name>！</name>
						<rate>
							<timebase>59</timebase>
							<ntsc>TRUE</ntsc>
						</rate>
						<rate>
							<timebase>59</timebase>
							<ntsc>TRUE</ntsc>
						</rate>
						<duration>66</duration>
						<start>22161</start>
						<end>22227</end>
						<in>0</in>
						<out>66</out>
					</clipitem>
					<clipitem frameBlend="FALSE" id="clipitem-telop-2633">
						<file id="file-2"/>
						<name>！</name>
						<rate>
							<timebase>59</timebase>
							<ntsc>TRUE</ntsc>
						</rate>
						<rate>
							<timebase>59</timebase>
							<ntsc>TRUE</ntsc>
						</rate>
						<duration>60</duration>
						<start>22257</start>
						<end>22317</end>
						<in>0</in>
						<out>60</out>
					</clipitem>
					<clipitem frameBlend="FALSE" id="clipitem-telop-2646">
						<file id="file-2"/>
						<name>！</name>
						<rate>
							<timebase>59</timebase>
							<ntsc>TRUE</ntsc>
						</rate>
						<rate>
							<timebase>59</timebase>
							<ntsc>TRUE</ntsc>
						</rate>
						<duration>66</duration>
						<start>22407</start>
						<end>22473</end>
						<in>0</in>
						<out>66</out>
					</clipitem>
					<clipitem frameBlend="FALSE" id="clipitem-telop-2659">
						<file id="file-2"/>
						<name>！</name>
						<rate>
							<timebase>59</timebase>
							<ntsc>TRUE</ntsc>
						</rate>
						<rate>
							<timebase>59</timebase>
							<ntsc>TRUE</ntsc>
						</rate>
						<duration>60</duration>
						<start>22473</start>
						<end>22533</end>
						<in>0</in>
						<out>60</out>
					</clipitem>
					<clipitem frameBlend="FALSE" id="clipitem-telop-2670">
						<file id="file-2"/>
						<name>！</name>
						<rate>
							<timebase>59</timebase>
							<ntsc>TRUE</ntsc>
						</rate>
						<rate>
							<timebase>59</timebase>
							<ntsc>TRUE</ntsc>
						</rate>
						<duration>60</duration>
						<start>22575</start>
						<end>22635</end>
						<in>0</in>
						<out>60</out>
					</clipitem>
					<clipitem frameBlend="FALSE" id="clipitem-telop-2681">
						<file id="file-2"/>
						<name>！</name>
						<rate>
							<timebase>59</timebase>
							<ntsc>TRUE</ntsc>
						</rate>
						<rate>
							<timebase>59</timebase>
							<ntsc>TRUE</ntsc>
						</rate>
						<duration>66</duration>
						<start>22665</start>
						<end>22731</end>
						<in>0</in>
						<out>66</out>
					</clipitem>
					<clipitem frameBlend="FALSE" id="clipitem-telop-2691">
						<file id="file-2"/>
						<name>！</name>
						<rate>
							<timebase>59</timebase>
							<ntsc>TRUE</ntsc>
						</rate>
						<rate>
							<timebase>59</timebase>
							<ntsc>TRUE</ntsc>
						</rate>
						<duration>60</duration>
						<start>22737</start>
						<end>22797</end>
						<in>0</in>
						<out>60</out>
					</clipitem>
					<clipitem frameBlend="FALSE" id="clipitem-telop-2701">
						<file id="file-2"/>
						<name>！</name>
						<rate>
							<timebase>59</timebase>
							<ntsc>TRUE</ntsc>
						</rate>
						<rate>
							<timebase>59</timebase>
							<ntsc>TRUE</ntsc>
						</rate>
						<duration>60</duration>
						<start>22809</start>
						<end>22869</end>
						<in>0</in>
						<out>60</out>
					</clipitem>
					<clipitem frameBlend="FALSE" id="clipitem-telop-2712">
						<file id="file-2"/>
						<name>！</name>
						<rate>
							<timebase>59</timebase>
							<ntsc>TRUE</ntsc>
						</rate>
						<rate>
							<timebase>59</timebase>
							<ntsc>TRUE</ntsc>
						</rate>
						<duration>66</duration>
						<start>22911</start>
						<end>22977</end>
						<in>0</in>
						<out>66</out>
					</clipitem>
					<clipitem frameBlend="FALSE" id="clipitem-telop-2724">
						<file id="file-2"/>
						<name>！</name>
						<rate>
							<timebase>59</timebase>
							<ntsc>TRUE</ntsc>
						</rate>
						<rate>
							<timebase>59</timebase>
							<ntsc>TRUE</ntsc>
						</rate>
						<duration>66</duration>
						<start>22977</start>
						<end>23043</end>
						<in>0</in>
						<out>66</out>
					</clipitem>
					<clipitem frameBlend="FALSE" id="clipitem-telop-2733">
						<file id="file-2"/>
						<name>！</name>
						<rate>
							<timebase>59</timebase>
							<ntsc>TRUE</ntsc>
						</rate>
						<rate>
							<timebase>59</timebase>
							<ntsc>TRUE</ntsc>
						</rate>
						<duration>60</duration>
						<start>23049</start>
						<end>23109</end>
						<in>0</in>
						<out>60</out>
					</clipitem>
					<clipitem frameBlend="FALSE" id="clipitem-telop-2740">
						<file id="file-2"/>
						<name>！</name>
						<rate>
							<timebase>59</timebase>
							<ntsc>TRUE</ntsc>
						</rate>
						<rate>
							<timebase>59</timebase>
							<ntsc>TRUE</ntsc>
						</rate>
						<duration>60</duration>
						<start>23121</start>
						<end>23181</end>
						<in>0</in>
						<out>60</out>
					</clipitem>
					<clipitem frameBlend="FALSE" id="clipitem-telop-2747">
						<file id="file-2"/>
						<name>！</name>
						<rate>
							<timebase>59</timebase>
							<ntsc>TRUE</ntsc>
						</rate>
						<rate>
							<timebase>59</timebase>
							<ntsc>TRUE</ntsc>
						</rate>
						<duration>60</duration>
						<start>23181</start>
						<end>23241</end>
						<in>0</in>
						<out>60</out>
					</clipitem>
					<clipitem frameBlend="FALSE" id="clipitem-telop-2758">
						<file id="file-2"/>
						<name>！</name>
						<rate>
							<timebase>59</timebase>
							<ntsc>TRUE</ntsc>
						</rate>
						<rate>
							<timebase>59</timebase>
							<ntsc>TRUE</ntsc>
						</rate>
						<duration>60</duration>
						<start>23241</start>
						<end>23301</end>
						<in>0</in>
						<out>60</out>
					</clipitem>
					<clipitem frameBlend="FALSE" id="clipitem-telop-2765">
						<file id="file-2"/>
						<name>！</name>
						<rate>
							<timebase>59</timebase>
							<ntsc>TRUE</ntsc>
						</rate>
						<rate>
							<timebase>59</timebase>
							<ntsc>TRUE</ntsc>
						</rate>
						<duration>60</duration>
						<start>23307</start>
						<end>23367</end>
						<in>0</in>
						<out>60</out>
					</clipitem>
					<clipitem frameBlend="FALSE" id="clipitem-telop-2778">
						<file id="file-2"/>
						<name>！</name>
						<rate>
							<timebase>59</timebase>
							<ntsc>TRUE</ntsc>
						</rate>
						<rate>
							<timebase>59</timebase>
							<ntsc>TRUE</ntsc>
						</rate>
						<duration>60</duration>
						<start>23373</start>
						<end>23433</end>
						<in>0</in>
						<out>60</out>
					</clipitem>
					<clipitem frameBlend="FALSE" id="clipitem-telop-2787">
						<file id="file-2"/>
						<name>！</name>
						<rate>
							<timebase>59</timebase>
							<ntsc>TRUE</ntsc>
						</rate>
						<rate>
							<timebase>59</timebase>
							<ntsc>TRUE</ntsc>
						</rate>
						<duration>60</duration>
						<start>23433</start>
						<end>23493</end>
						<in>0</in>
						<out>60</out>
					</clipitem>
					<clipitem frameBlend="FALSE" id="clipitem-telop-2799">
						<file id="file-2"/>
						<name>！</name>
						<rate>
							<timebase>59</timebase>
							<ntsc>TRUE</ntsc>
						</rate>
						<rate>
							<timebase>59</timebase>
							<ntsc>TRUE</ntsc>
						</rate>
						<duration>66</duration>
						<start>23517</start>
						<end>23583</end>
						<in>0</in>
						<out>66</out>
					</clipitem>
					<clipitem frameBlend="FALSE" id="clipitem-telop-2807">
						<file id="file-2"/>
						<name>！</name>
						<rate>
							<timebase>59</timebase>
							<ntsc>TRUE</ntsc>
						</rate>
						<rate>
							<timebase>59</timebase>
							<ntsc>TRUE</ntsc>
						</rate>
						<duration>66</duration>
						<start>23619</start>
						<end>23685</end>
						<in>0</in>
						<out>66</out>
					</clipitem>
					<clipitem frameBlend="FALSE" id="clipitem-telop-2823">
						<file id="file-2"/>
						<name>！</name>
						<rate>
							<timebase>59</timebase>
							<ntsc>TRUE</ntsc>
						</rate>
						<rate>
							<timebase>59</timebase>
							<ntsc>TRUE</ntsc>
						</rate>
						<duration>66</duration>
						<start>23727</start>
						<end>23793</end>
						<in>0</in>
						<out>66</out>
					</clipitem>
					<clipitem frameBlend="FALSE" id="clipitem-telop-2835">
						<file id="file-2"/>
						<name>！</name>
						<rate>
							<timebase>59</timebase>
							<ntsc>TRUE</ntsc>
						</rate>
						<rate>
							<timebase>59</timebase>
							<ntsc>TRUE</ntsc>
						</rate>
						<duration>66</duration>
						<start>23793</start>
						<end>23859</end>
						<in>0</in>
						<out>66</out>
					</clipitem>
					<clipitem frameBlend="FALSE" id="clipitem-telop-2848">
						<file id="file-2"/>
						<name>！</name>
						<rate>
							<timebase>59</timebase>
							<ntsc>TRUE</ntsc>
						</rate>
						<rate>
							<timebase>59</timebase>
							<ntsc>TRUE</ntsc>
						</rate>
						<duration>60</duration>
						<start>23859</start>
						<end>23919</end>
						<in>0</in>
						<out>60</out>
					</clipitem>
					<clipitem frameBlend="FALSE" id="clipitem-telop-2865">
						<file id="file-2"/>
						<name>！</name>
						<rate>
							<timebase>59</timebase>
							<ntsc>TRUE</ntsc>
						</rate>
						<rate>
							<timebase>59</timebase>
							<ntsc>TRUE</ntsc>
						</rate>
						<duration>60</duration>
						<start>23979</start>
						<end>24039</end>
						<in>0</in>
						<out>60</out>
					</clipitem>
					<clipitem frameBlend="FALSE" id="clipitem-telop-2874">
						<file id="file-2"/>
						<name>いや、なんかもう帰ろうかな</name>
						<rate>
							<timebase>59</timebase>
							<ntsc>TRUE</ntsc>
						</rate>
						<rate>
							<timebase>59</timebase>
							<ntsc>TRUE</ntsc>
						</rate>
						<duration>120</duration>
						<start>24051</start>
						<end>24171</end>
						<in>0</in>
						<out>120</out>
					</clipitem>
					<clipitem frameBlend="FALSE" id="clipitem-telop-2897">
						<file id="file-2"/>
						<name>！</name>
						<rate>
							<timebase>59</timebase>
							<ntsc>TRUE</ntsc>
						</rate>
						<rate>
							<timebase>59</timebase>
							<ntsc>TRUE</ntsc>
						</rate>
						<duration>60</duration>
						<start>24171</start>
						<end>24231</end>
						<in>0</in>
						<out>60</out>
					</clipitem>
					<clipitem frameBlend="FALSE" id="clipitem-telop-2910">
						<file id="file-2"/>
						<name>！</name>
						<rate>
							<timebase>59</timebase>
							<ntsc>TRUE</ntsc>
						</rate>
						<rate>
							<timebase>59</timebase>
							<ntsc>TRUE</ntsc>
						</rate>
						<duration>60</duration>
						<start>24237</start>
						<end>24297</end>
						<in>0</in>
						<out>60</out>
					</clipitem>
					<clipitem frameBlend="FALSE" id="clipitem-telop-2917">
						<file id="file-2"/>
						<name>！</name>
						<rate>
							<timebase>59</timebase>
							<ntsc>TRUE</ntsc>
						</rate>
						<rate>
							<timebase>59</timebase>
							<ntsc>TRUE</ntsc>
						</rate>
						<duration>60</duration>
						<start>24309</start>
						<end>24369</end>
						<in>0</in>
						<out>60</out>
					</clipitem>
					<clipitem frameBlend="FALSE" id="clipitem-telop-2928">
						<file id="file-2"/>
						<name>！</name>
						<rate>
							<timebase>59</timebase>
							<ntsc>TRUE</ntsc>
						</rate>
						<rate>
							<timebase>59</timebase>
							<ntsc>TRUE</ntsc>
						</rate>
						<duration>60</duration>
						<start>24375</start>
						<end>24435</end>
						<in>0</in>
						<out>60</out>
					</clipitem>
					<clipitem frameBlend="FALSE" id="clipitem-telop-2934">
						<file id="file-2"/>
						<name>！</name>
						<rate>
							<timebase>59</timebase>
							<ntsc>TRUE</ntsc>
						</rate>
						<rate>
							<timebase>59</timebase>
							<ntsc>TRUE</ntsc>
						</rate>
						<duration>60</duration>
						<start>24441</start>
						<end>24501</end>
						<in>0</in>
						<out>60</out>
					</clipitem>
					<clipitem frameBlend="FALSE" id="clipitem-telop-2943">
						<file id="file-2"/>
						<name>！</name>
						<rate>
							<timebase>59</timebase>
							<ntsc>TRUE</ntsc>
						</rate>
						<rate>
							<timebase>59</timebase>
							<ntsc>TRUE</ntsc>
						</rate>
						<duration>36</duration>
						<start>24501</start>
						<end>24537</end>
						<in>0</in>
						<out>36</out>
					</clipitem>
				</track>
				<track>
					<clipitem frameBlend="FALSE" id="clipitem-telop-6">
						<file id="file-2"/>
						<name>！</name>
						<rate>
							<timebase>59</timebase>
							<ntsc>TRUE</ntsc>
						</rate>
						<rate>
							<timebase>59</timebase>
							<ntsc>TRUE</ntsc>
						</rate>
						<duration>60</duration>
						<start>47</start>
						<end>107</end>
						<in>0</in>
						<out>60</out>
					</clipitem>
					<clipitem frameBlend="FALSE" id="clipitem-telop-21">
						<file id="file-2"/>
						<name>！</name>
						<rate>
							<timebase>59</timebase>
							<ntsc>TRUE</ntsc>
						</rate>
						<rate>
							<timebase>59</timebase>
							<ntsc>TRUE</ntsc>
						</rate>
						<duration>66</duration>
						<start>173</start>
						<end>239</end>
						<in>0</in>
						<out>66</out>
					</clipitem>
					<clipitem frameBlend="FALSE" id="clipitem-telop-28">
						<file id="file-2"/>
						<name>！</name>
						<rate>
							<timebase>59</timebase>
							<ntsc>TRUE</ntsc>
						</rate>
						<rate>
							<timebase>59</timebase>
							<ntsc>TRUE</ntsc>
						</rate>
						<duration>60</duration>
						<start>251</start>
						<end>311</end>
						<in>0</in>
						<out>60</out>
					</clipitem>
					<clipitem frameBlend="FALSE" id="clipitem-telop-35">
						<file id="file-2"/>
						<name>！</name>
						<rate>
							<timebase>59</timebase>
							<ntsc>TRUE</ntsc>
						</rate>
						<rate>
							<timebase>59</timebase>
							<ntsc>TRUE</ntsc>
						</rate>
						<duration>60</duration>
						<start>323</start>
						<end>383</end>
						<in>0</in>
						<out>60</out>
					</clipitem>
					<clipitem frameBlend="FALSE" id="clipitem-telop-43">
						<file id="file-2"/>
						<name>！</name>
						<rate>
							<timebase>59</timebase>
							<ntsc>TRUE</ntsc>
						</rate>
						<rate>
							<timebase>59</timebase>
							<ntsc>TRUE</ntsc>
						</rate>
						<duration>66</duration>
						<start>389</start>
						<end>455</end>
						<in>0</in>
						<out>66</out>
					</clipitem>
					<clipitem frameBlend="FALSE" id="clipitem-telop-55">
						<file id="file-2"/>
						<name>！</name>
						<rate>
							<timebase>59</timebase>
							<ntsc>TRUE</ntsc>
						</rate>
						<rate>
							<timebase>59</timebase>
							<ntsc>TRUE</ntsc>
						</rate>
						<duration>60</duration>
						<start>509</start>
						<end>569</end>
						<in>0</in>
						<out>60</out>
					</clipitem>
					<clipitem frameBlend="FALSE" id="clipitem-telop-68">
						<file id="file-2"/>
						<name>！</name>
						<rate>
							<timebase>59</timebase>
							<ntsc>TRUE</ntsc>
						</rate>
						<rate>
							<timebase>59</timebase>
							<ntsc>TRUE</ntsc>
						</rate>
						<duration>66</duration>
						<start>587</start>
						<end>653</end>
						<in>0</in>
						<out>66</out>
					</clipitem>
					<clipitem frameBlend="FALSE" id="clipitem-telop-76">
						<file id="file-2"/>
						<name>！</name>
						<rate>
							<timebase>59</timebase>
							<ntsc>TRUE</ntsc>
						</rate>
						<rate>
							<timebase>59</timebase>
							<ntsc>TRUE</ntsc>
						</rate>
						<duration>60</duration>
						<start>653</start>
						<end>713</end>
						<in>0</in>
						<out>60</out>
					</clipitem>
					<clipitem frameBlend="FALSE" id="clipitem-telop-82">
						<file id="file-2"/>
						<name>！</name>
						<rate>
							<timebase>59</timebase>
							<ntsc>TRUE</ntsc>
						</rate>
						<rate>
							<timebase>59</timebase>
							<ntsc>TRUE</ntsc>
						</rate>
						<duration>60</duration>
						<start>731</start>
						<end>791</end>
						<in>0</in>
						<out>60</out>
					</clipitem>
					<clipitem frameBlend="FALSE" id="clipitem-telop-91">
						<file id="file-2"/>
						<name>！</name>
						<rate>
							<timebase>59</timebase>
							<ntsc>TRUE</ntsc>
						</rate>
						<rate>
							<timebase>59</timebase>
							<ntsc>TRUE</ntsc>
						</rate>
						<duration>60</duration>
						<start>797</start>
						<end>857</end>
						<in>0</in>
						<out>60</out>
					</clipitem>
					<clipitem frameBlend="FALSE" id="clipitem-telop-100">
						<file id="file-2"/>
						<name>！</name>
						<rate>
							<timebase>59</timebase>
							<ntsc>TRUE</ntsc>
						</rate>
						<rate>
							<timebase>59</timebase>
							<ntsc>TRUE</ntsc>
						</rate>
						<duration>60</duration>
						<start>893</start>
						<end>953</end>
						<in>0</in>
						<out>60</out>
					</clipitem>
					<clipitem frameBlend="FALSE" id="clipitem-telop-109">
						<file id="file-2"/>
						<name>！</name>
						<rate>
							<timebase>59</timebase>
							<ntsc>TRUE</ntsc>
						</rate>
						<rate>
							<timebase>59</timebase>
							<ntsc>TRUE</ntsc>
						</rate>
						<duration>66</duration>
						<start>971</start>
						<end>1037</end>
						<in>0</in>
						<out>66</out>
					</clipitem>
					<clipitem frameBlend="FALSE" id="clipitem-telop-121">
						<file id="file-2"/>
						<name>w</name>
						<rate>
							<timebase>59</timebase>
							<ntsc>TRUE</ntsc>
						</rate>
						<rate>
							<timebase>59</timebase>
							<ntsc>TRUE</ntsc>
						</rate>
						<duration>24</duration>
						<start>1085</start>
						<end>1109</end>
						<in>0</in>
						<out>24</out>
					</clipitem>
					<clipitem frameBlend="FALSE" id="clipitem-telop-129">
						<file id="file-2"/>
						<name>！</name>
						<rate>
							<timebase>59</timebase>
							<ntsc>TRUE</ntsc>
						</rate>
						<rate>
							<timebase>59</timebase>
							<ntsc>TRUE</ntsc>
						</rate>
						<duration>60</duration>
						<start>1169</start>
						<end>1229</end>
						<in>0</in>
						<out>60</out>
					</clipitem>
					<clipitem frameBlend="FALSE" id="clipitem-telop-139">
						<file id="file-2"/>
						<name>！</name>
						<rate>
							<timebase>59</timebase>
							<ntsc>TRUE</ntsc>
						</rate>
						<rate>
							<timebase>59</timebase>
							<ntsc>TRUE</ntsc>
						</rate>
						<duration>60</duration>
						<start>1247</start>
						<end>1307</end>
						<in>0</in>
						<out>60</out>
					</clipitem>
					<clipitem frameBlend="FALSE" id="clipitem-telop-145">
						<file id="file-2"/>
						<name>！</name>
						<rate>
							<timebase>59</timebase>
							<ntsc>TRUE</ntsc>
						</rate>
						<rate>
							<timebase>59</timebase>
							<ntsc>TRUE</ntsc>
						</rate>
						<duration>60</duration>
						<start>1319</start>
						<end>1379</end>
						<in>0</in>
						<out>60</out>
					</clipitem>
					<clipitem frameBlend="FALSE" id="clipitem-telop-151">
						<file id="file-2"/>
						<name>！</name>
						<rate>
							<timebase>59</timebase>
							<ntsc>TRUE</ntsc>
						</rate>
						<rate>
							<timebase>59</timebase>
							<ntsc>TRUE</ntsc>
						</rate>
						<duration>60</duration>
						<start>1385</start>
						<end>1445</end>
						<in>0</in>
						<out>60</out>
					</clipitem>
					<clipitem frameBlend="FALSE" id="clipitem-telop-158">
						<file id="file-2"/>
						<name>！</name>
						<rate>
							<timebase>59</timebase>
							<ntsc>TRUE</ntsc>
						</rate>
						<rate>
							<timebase>59</timebase>
							<ntsc>TRUE</ntsc>
						</rate>
						<duration>60</duration>
						<start>1451</start>
						<end>1511</end>
						<in>0</in>
						<out>60</out>
					</clipitem>
					<clipitem frameBlend="FALSE" id="clipitem-telop-171">
						<file id="file-2"/>
						<name>！</name>
						<rate>
							<timebase>59</timebase>
							<ntsc>TRUE</ntsc>
						</rate>
						<rate>
							<timebase>59</timebase>
							<ntsc>TRUE</ntsc>
						</rate>
						<duration>60</duration>
						<start>1553</start>
						<end>1613</end>
						<in>0</in>
						<out>60</out>
					</clipitem>
					<clipitem frameBlend="FALSE" id="clipitem-telop-180">
						<file id="file-2"/>
						<name>！</name>
						<rate>
							<timebase>59</timebase>
							<ntsc>TRUE</ntsc>
						</rate>
						<rate>
							<timebase>59</timebase>
							<ntsc>TRUE</ntsc>
						</rate>
						<duration>66</duration>
						<start>1613</start>
						<end>1679</end>
						<in>0</in>
						<out>66</out>
					</clipitem>
					<clipitem frameBlend="FALSE" id="clipitem-telop-191">
						<file id="file-2"/>
						<name>！</name>
						<rate>
							<timebase>59</timebase>
							<ntsc>TRUE</ntsc>
						</rate>
						<rate>
							<timebase>59</timebase>
							<ntsc>TRUE</ntsc>
						</rate>
						<duration>60</duration>
						<start>1709</start>
						<end>1769</end>
						<in>0</in>
						<out>60</out>
					</clipitem>
					<clipitem frameBlend="FALSE" id="clipitem-telop-200">
						<file id="file-2"/>
						<name>w</name>
						<rate>
							<timebase>59</timebase>
							<ntsc>TRUE</ntsc>
						</rate>
						<rate>
							<timebase>59</timebase>
							<ntsc>TRUE</ntsc>
						</rate>
						<duration>24</duration>
						<start>1781</start>
						<end>1805</end>
						<in>0</in>
						<out>24</out>
					</clipitem>
					<clipitem frameBlend="FALSE" id="clipitem-telop-210">
						<file id="file-2"/>
						<name>w</name>
						<rate>
							<timebase>59</timebase>
							<ntsc>TRUE</ntsc>
						</rate>
						<rate>
							<timebase>59</timebase>
							<ntsc>TRUE</ntsc>
						</rate>
						<duration>24</duration>
						<start>1865</start>
						<end>1889</end>
						<in>0</in>
						<out>24</out>
					</clipitem>
					<clipitem frameBlend="FALSE" id="clipitem-telop-215">
						<file id="file-2"/>
						<name>！</name>
						<rate>
							<timebase>59</timebase>
							<ntsc>TRUE</ntsc>
						</rate>
						<rate>
							<timebase>59</timebase>
							<ntsc>TRUE</ntsc>
						</rate>
						<duration>60</duration>
						<start>1895</start>
						<end>1955</end>
						<in>0</in>
						<out>60</out>
					</clipitem>
					<clipitem frameBlend="FALSE" id="clipitem-telop-225">
						<file id="file-2"/>
						<name>！</name>
						<rate>
							<timebase>59</timebase>
							<ntsc>TRUE</ntsc>
						</rate>
						<rate>
							<timebase>59</timebase>
							<ntsc>TRUE</ntsc>
						</rate>
						<duration>60</duration>
						<start>1985</start>
						<end>2045</end>
						<in>0</in>
						<out>60</out>
					</clipitem>
					<clipitem frameBlend="FALSE" id="clipitem-telop-238">
						<file id="file-2"/>
						<name>！</name>
						<rate>
							<timebase>59</timebase>
							<ntsc>TRUE</ntsc>
						</rate>
						<rate>
							<timebase>59</timebase>
							<ntsc>TRUE</ntsc>
						</rate>
						<duration>66</duration>
						<start>2051</start>
						<end>2117</end>
						<in>0</in>
						<out>66</out>
					</clipitem>
					<clipitem frameBlend="FALSE" id="clipitem-telop-250">
						<file id="file-2"/>
						<name>！</name>
						<rate>
							<timebase>59</timebase>
							<ntsc>TRUE</ntsc>
						</rate>
						<rate>
							<timebase>59</timebase>
							<ntsc>TRUE</ntsc>
						</rate>
						<duration>66</duration>
						<start>2153</start>
						<end>2219</end>
						<in>0</in>
						<out>66</out>
					</clipitem>
					<clipitem frameBlend="FALSE" id="clipitem-telop-260">
						<file id="file-2"/>
						<name>！</name>
						<rate>
							<timebase>59</timebase>
							<ntsc>TRUE</ntsc>
						</rate>
						<rate>
							<timebase>59</timebase>
							<ntsc>TRUE</ntsc>
						</rate>
						<duration>60</duration>
						<start>2231</start>
						<end>2291</end>
						<in>0</in>
						<out>60</out>
					</clipitem>
					<clipitem frameBlend="FALSE" id="clipitem-telop-270">
						<file id="file-2"/>
						<name>！</name>
						<rate>
							<timebase>59</timebase>
							<ntsc>TRUE</ntsc>
						</rate>
						<rate>
							<timebase>59</timebase>
							<ntsc>TRUE</ntsc>
						</rate>
						<duration>66</duration>
						<start>2303</start>
						<end>2369</end>
						<in>0</in>
						<out>66</out>
					</clipitem>
					<clipitem frameBlend="FALSE" id="clipitem-telop-277">
						<file id="file-2"/>
						<name>！</name>
						<rate>
							<timebase>59</timebase>
							<ntsc>TRUE</ntsc>
						</rate>
						<rate>
							<timebase>59</timebase>
							<ntsc>TRUE</ntsc>
						</rate>
						<duration>60</duration>
						<start>2381</start>
						<end>2441</end>
						<in>0</in>
						<out>60</out>
					</clipitem>
					<clipitem frameBlend="FALSE" id="clipitem-telop-284">
						<file id="file-2"/>
						<name>！</name>
						<rate>
							<timebase>59</timebase>
							<ntsc>TRUE</ntsc>
						</rate>
						<rate>
							<timebase>59</timebase>
							<ntsc>TRUE</ntsc>
						</rate>
						<duration>60</duration>
						<start>2477</start>
						<end>2537</end>
						<in>0</in>
						<out>60</out>
					</clipitem>
					<clipitem frameBlend="FALSE" id="clipitem-telop-294">
						<file id="file-2"/>
						<name>！</name>
						<rate>
							<timebase>59</timebase>
							<ntsc>TRUE</ntsc>
						</rate>
						<rate>
							<timebase>59</timebase>
							<ntsc>TRUE</ntsc>
						</rate>
						<duration>66</duration>
						<start>2555</start>
						<end>2621</end>
						<in>0</in>
						<out>66</out>
					</clipitem>
					<clipitem frameBlend="FALSE" id="clipitem-telop-301">
						<file id="file-2"/>
						<name>！</name>
						<rate>
							<timebase>59</timebase>
							<ntsc>TRUE</ntsc>
						</rate>
						<rate>
							<timebase>59</timebase>
							<ntsc>TRUE</ntsc>
						</rate>
						<duration>60</duration>
						<start>2627</start>
						<end>2687</end>
						<in>0</in>
						<out>60</out>
					</clipitem>
					<clipitem frameBlend="FALSE" id="clipitem-telop-308">
						<file id="file-2"/>
						<name>！</name>
						<rate>
							<timebase>59</timebase>
							<ntsc>TRUE</ntsc>
						</rate>
						<rate>
							<timebase>59</timebase>
							<ntsc>TRUE</ntsc>
						</rate>
						<duration>60</duration>
						<start>2687</start>
						<end>2747</end>
						<in>0</in>
						<out>60</out>
					</clipitem>
					<clipitem frameBlend="FALSE" id="clipitem-telop-319">
						<file id="file-2"/>
						<name>うひよのお嬢様あわれすぎてちょっととんでもないですよね</name>
						<rate>
							<timebase>59</timebase>
							<ntsc>TRUE</ntsc>
						</rate>
						<rate>
							<timebase>59</timebase>
							<ntsc>TRUE</ntsc>
						</rate>
						<duration>246</duration>
						<start>2765</start>
						<end>3011</end>
						<in>0</in>
						<out>246</out>
					</clipitem>
					<clipitem frameBlend="FALSE" id="clipitem-telop-347">
						<file id="file-2"/>
						<name>w</name>
						<rate>
							<timebase>59</timebase>
							<ntsc>TRUE</ntsc>
						</rate>
						<rate>
							<timebase>59</timebase>
							<ntsc>TRUE</ntsc>
						</rate>
						<duration>30</duration>
						<start>3017</start>
						<end>3047</end>
						<in>0</in>
						<out>30</out>
					</clipitem>
					<clipitem frameBlend="FALSE" id="clipitem-telop-351">
						<file id="file-2"/>
						<name>w</name>
						<rate>
							<timebase>59</timebase>
							<ntsc>TRUE</ntsc>
						</rate>
						<rate>
							<timebase>59</timebase>
							<ntsc>TRUE</ntsc>
						</rate>
						<duration>30</duration>
						<start>3047</start>
						<end>3077</end>
						<in>0</in>
						<out>30</out>
					</clipitem>
					<clipitem frameBlend="FALSE" id="clipitem-telop-357">
						<file id="file-2"/>
						<name>！</name>
						<rate>
							<timebase>59</timebase>
							<ntsc>TRUE</ntsc>
						</rate>
						<rate>
							<timebase>59</timebase>
							<ntsc>TRUE</ntsc>
						</rate>
						<duration>60</duration>
						<start>3101</start>
						<end>3161</end>
						<in>0</in>
						<out>60</out>
					</clipitem>
					<clipitem frameBlend="FALSE" id="clipitem-telop-366">
						<file id="file-2"/>
						<name>！</name>
						<rate>
							<timebase>59</timebase>
							<ntsc>TRUE</ntsc>
						</rate>
						<rate>
							<timebase>59</timebase>
							<ntsc>TRUE</ntsc>
						</rate>
						<duration>60</duration>
						<start>3221</start>
						<end>3281</end>
						<in>0</in>
						<out>60</out>
					</clipitem>
					<clipitem frameBlend="FALSE" id="clipitem-telop-377">
						<file id="file-2"/>
						<name>！</name>
						<rate>
							<timebase>59</timebase>
							<ntsc>TRUE</ntsc>
						</rate>
						<rate>
							<timebase>59</timebase>
							<ntsc>TRUE</ntsc>
						</rate>
						<duration>66</duration>
						<start>3281</start>
						<end>3347</end>
						<in>0</in>
						<out>66</out>
					</clipitem>
					<clipitem frameBlend="FALSE" id="clipitem-telop-391">
						<file id="file-2"/>
						<name>！</name>
						<rate>
							<timebase>59</timebase>
							<ntsc>TRUE</ntsc>
						</rate>
						<rate>
							<timebase>59</timebase>
							<ntsc>TRUE</ntsc>
						</rate>
						<duration>60</duration>
						<start>3347</start>
						<end>3407</end>
						<in>0</in>
						<out>60</out>
					</clipitem>
					<clipitem frameBlend="FALSE" id="clipitem-telop-404">
						<file id="file-2"/>
						<name>！</name>
						<rate>
							<timebase>59</timebase>
							<ntsc>TRUE</ntsc>
						</rate>
						<rate>
							<timebase>59</timebase>
							<ntsc>TRUE</ntsc>
						</rate>
						<duration>60</duration>
						<start>3425</start>
						<end>3485</end>
						<in>0</in>
						<out>60</out>
					</clipitem>
					<clipitem frameBlend="FALSE" id="clipitem-telop-416">
						<file id="file-2"/>
						<name>！</name>
						<rate>
							<timebase>59</timebase>
							<ntsc>TRUE</ntsc>
						</rate>
						<rate>
							<timebase>59</timebase>
							<ntsc>TRUE</ntsc>
						</rate>
						<duration>60</duration>
						<start>3521</start>
						<end>3581</end>
						<in>0</in>
						<out>60</out>
					</clipitem>
					<clipitem frameBlend="FALSE" id="clipitem-telop-423">
						<file id="file-2"/>
						<name>！</name>
						<rate>
							<timebase>59</timebase>
							<ntsc>TRUE</ntsc>
						</rate>
						<rate>
							<timebase>59</timebase>
							<ntsc>TRUE</ntsc>
						</rate>
						<duration>66</duration>
						<start>3587</start>
						<end>3653</end>
						<in>0</in>
						<out>66</out>
					</clipitem>
					<clipitem frameBlend="FALSE" id="clipitem-telop-429">
						<file id="file-2"/>
						<name>！</name>
						<rate>
							<timebase>59</timebase>
							<ntsc>TRUE</ntsc>
						</rate>
						<rate>
							<timebase>59</timebase>
							<ntsc>TRUE</ntsc>
						</rate>
						<duration>60</duration>
						<start>3659</start>
						<end>3719</end>
						<in>0</in>
						<out>60</out>
					</clipitem>
					<clipitem frameBlend="FALSE" id="clipitem-telop-434">
						<file id="file-2"/>
						<name>！</name>
						<rate>
							<timebase>59</timebase>
							<ntsc>TRUE</ntsc>
						</rate>
						<rate>
							<timebase>59</timebase>
							<ntsc>TRUE</ntsc>
						</rate>
						<duration>60</duration>
						<start>3725</start>
						<end>3785</end>
						<in>0</in>
						<out>60</out>
					</clipitem>
					<clipitem frameBlend="FALSE" id="clipitem-telop-443">
						<file id="file-2"/>
						<name>！</name>
						<rate>
							<timebase>59</timebase>
							<ntsc>TRUE</ntsc>
						</rate>
						<rate>
							<timebase>59</timebase>
							<ntsc>TRUE</ntsc>
						</rate>
						<duration>60</duration>
						<start>3797</start>
						<end>3857</end>
						<in>0</in>
						<out>60</out>
					</clipitem>
					<clipitem frameBlend="FALSE" id="clipitem-telop-453">
						<file id="file-2"/>
						<name>！</name>
						<rate>
							<timebase>59</timebase>
							<ntsc>TRUE</ntsc>
						</rate>
						<rate>
							<timebase>59</timebase>
							<ntsc>TRUE</ntsc>
						</rate>
						<duration>66</duration>
						<start>3857</start>
						<end>3923</end>
						<in>0</in>
						<out>66</out>
					</clipitem>
					<clipitem frameBlend="FALSE" id="clipitem-telop-462">
						<file id="file-2"/>
						<name>！</name>
						<rate>
							<timebase>59</timebase>
							<ntsc>TRUE</ntsc>
						</rate>
						<rate>
							<timebase>59</timebase>
							<ntsc>TRUE</ntsc>
						</rate>
						<duration>60</duration>
						<start>3923</start>
						<end>3983</end>
						<in>0</in>
						<out>60</out>
					</clipitem>
					<clipitem frameBlend="FALSE" id="clipitem-telop-471">
						<file id="file-2"/>
						<name>！</name>
						<rate>
							<timebase>59</timebase>
							<ntsc>TRUE</ntsc>
						</rate>
						<rate>
							<timebase>59</timebase>
							<ntsc>TRUE</ntsc>
						</rate>
						<duration>66</duration>
						<start>3983</start>
						<end>4049</end>
						<in>0</in>
						<out>66</out>
					</clipitem>
					<clipitem frameBlend="FALSE" id="clipitem-telop-480">
						<file id="file-2"/>
						<name>！</name>
						<rate>
							<timebase>59</timebase>
							<ntsc>TRUE</ntsc>
						</rate>
						<rate>
							<timebase>59</timebase>
							<ntsc>TRUE</ntsc>
						</rate>
						<duration>60</duration>
						<start>4085</start>
						<end>4145</end>
						<in>0</in>
						<out>60</out>
					</clipitem>
					<clipitem frameBlend="FALSE" id="clipitem-telop-488">
						<file id="file-2"/>
						<name>！</name>
						<rate>
							<timebase>59</timebase>
							<ntsc>TRUE</ntsc>
						</rate>
						<rate>
							<timebase>59</timebase>
							<ntsc>TRUE</ntsc>
						</rate>
						<duration>60</duration>
						<start>4175</start>
						<end>4235</end>
						<in>0</in>
						<out>60</out>
					</clipitem>
					<clipitem frameBlend="FALSE" id="clipitem-telop-499">
						<file id="file-2"/>
						<name>！</name>
						<rate>
							<timebase>59</timebase>
							<ntsc>TRUE</ntsc>
						</rate>
						<rate>
							<timebase>59</timebase>
							<ntsc>TRUE</ntsc>
						</rate>
						<duration>66</duration>
						<start>4301</start>
						<end>4367</end>
						<in>0</in>
						<out>66</out>
					</clipitem>
					<clipitem frameBlend="FALSE" id="clipitem-telop-509">
						<file id="file-2"/>
						<name>！</name>
						<rate>
							<timebase>59</timebase>
							<ntsc>TRUE</ntsc>
						</rate>
						<rate>
							<timebase>59</timebase>
							<ntsc>TRUE</ntsc>
						</rate>
						<duration>60</duration>
						<start>4367</start>
						<end>4427</end>
						<in>0</in>
						<out>60</out>
					</clipitem>
					<clipitem frameBlend="FALSE" id="clipitem-telop-517">
						<file id="file-2"/>
						<name>ミルクお嬢様大変な人</name>
						<rate>
							<timebase>59</timebase>
							<ntsc>TRUE</ntsc>
						</rate>
						<rate>
							<timebase>59</timebase>
							<ntsc>TRUE</ntsc>
						</rate>
						<duration>120</duration>
						<start>4433</start>
						<end>4553</end>
						<in>0</in>
						<out>120</out>
					</clipitem>
					<clipitem frameBlend="FALSE" id="clipitem-telop-532">
						<file id="file-2"/>
						<name>えなんかこのミラーとか言う人もなんか話つまんなかったし</name>
						<rate>
							<timebase>59</timebase>
							<ntsc>TRUE</ntsc>
						</rate>
						<rate>
							<timebase>59</timebase>
							<ntsc>TRUE</ntsc>
						</rate>
						<duration>240</duration>
						<start>4553</start>
						<end>4793</end>
						<in>0</in>
						<out>240</out>
					</clipitem>
					<clipitem frameBlend="FALSE" id="clipitem-telop-569">
						<file id="file-2"/>
						<name>！</name>
						<rate>
							<timebase>59</timebase>
							<ntsc>TRUE</ntsc>
						</rate>
						<rate>
							<timebase>59</timebase>
							<ntsc>TRUE</ntsc>
						</rate>
						<duration>60</duration>
						<start>4793</start>
						<end>4853</end>
						<in>0</in>
						<out>60</out>
					</clipitem>
					<clipitem frameBlend="FALSE" id="clipitem-telop-580">
						<file id="file-2"/>
						<name>w</name>
						<rate>
							<timebase>59</timebase>
							<ntsc>TRUE</ntsc>
						</rate>
						<rate>
							<timebase>59</timebase>
							<ntsc>TRUE</ntsc>
						</rate>
						<duration>30</duration>
						<start>4859</start>
						<end>4889</end>
						<in>0</in>
						<out>30</out>
					</clipitem>
					<clipitem frameBlend="FALSE" id="clipitem-telop-586">
						<file id="file-2"/>
						<name>w</name>
						<rate>
							<timebase>59</timebase>
							<ntsc>TRUE</ntsc>
						</rate>
						<rate>
							<timebase>59</timebase>
							<ntsc>TRUE</ntsc>
						</rate>
						<duration>24</duration>
						<start>4889</start>
						<end>4913</end>
						<in>0</in>
						<out>24</out>
					</clipitem>
					<clipitem frameBlend="FALSE" id="clipitem-telop-593">
						<file id="file-2"/>
						<name>！</name>
						<rate>
							<timebase>59</timebase>
							<ntsc>TRUE</ntsc>
						</rate>
						<rate>
							<timebase>59</timebase>
							<ntsc>TRUE</ntsc>
						</rate>
						<duration>60</duration>
						<start>4937</start>
						<end>4997</end>
						<in>0</in>
						<out>60</out>
					</clipitem>
					<clipitem frameBlend="FALSE" id="clipitem-telop-608">
						<file id="file-2"/>
						<name>w</name>
						<rate>
							<timebase>59</timebase>
							<ntsc>TRUE</ntsc>
						</rate>
						<rate>
							<timebase>59</timebase>
							<ntsc>TRUE</ntsc>
						</rate>
						<duration>30</duration>
						<start>4997</start>
						<end>5027</end>
						<in>0</in>
						<out>30</out>
					</clipitem>
					<clipitem frameBlend="FALSE" id="clipitem-telop-612">
						<file id="file-2"/>
						<name>w</name>
						<rate>
							<timebase>59</timebase>
							<ntsc>TRUE</ntsc>
						</rate>
						<rate>
							<timebase>59</timebase>
							<ntsc>TRUE</ntsc>
						</rate>
						<duration>24</duration>
						<start>5027</start>
						<end>5051</end>
						<in>0</in>
						<out>24</out>
					</clipitem>
					<clipitem frameBlend="FALSE" id="clipitem-telop-621">
						<file id="file-2"/>
						<name>！</name>
						<rate>
							<timebase>59</timebase>
							<ntsc>TRUE</ntsc>
						</rate>
						<rate>
							<timebase>59</timebase>
							<ntsc>TRUE</ntsc>
						</rate>
						<duration>66</duration>
						<start>5087</start>
						<end>5153</end>
						<in>0</in>
						<out>66</out>
					</clipitem>
					<clipitem frameBlend="FALSE" id="clipitem-telop-633">
						<file id="file-2"/>
						<name>！</name>
						<rate>
							<timebase>59</timebase>
							<ntsc>TRUE</ntsc>
						</rate>
						<rate>
							<timebase>59</timebase>
							<ntsc>TRUE</ntsc>
						</rate>
						<duration>60</duration>
						<start>5171</start>
						<end>5231</end>
						<in>0</in>
						<out>60</out>
					</clipitem>
					<clipitem frameBlend="FALSE" id="clipitem-telop-644">
						<file id="file-2"/>
						<name>！</name>
						<rate>
							<timebase>59</timebase>
							<ntsc>TRUE</ntsc>
						</rate>
						<rate>
							<timebase>59</timebase>
							<ntsc>TRUE</ntsc>
						</rate>
						<duration>60</duration>
						<start>5237</start>
						<end>5297</end>
						<in>0</in>
						<out>60</out>
					</clipitem>
					<clipitem frameBlend="FALSE" id="clipitem-telop-651">
						<file id="file-2"/>
						<name>！</name>
						<rate>
							<timebase>59</timebase>
							<ntsc>TRUE</ntsc>
						</rate>
						<rate>
							<timebase>59</timebase>
							<ntsc>TRUE</ntsc>
						</rate>
						<duration>60</duration>
						<start>5303</start>
						<end>5363</end>
						<in>0</in>
						<out>60</out>
					</clipitem>
					<clipitem frameBlend="FALSE" id="clipitem-telop-662">
						<file id="file-2"/>
						<name>！</name>
						<rate>
							<timebase>59</timebase>
							<ntsc>TRUE</ntsc>
						</rate>
						<rate>
							<timebase>59</timebase>
							<ntsc>TRUE</ntsc>
						</rate>
						<duration>60</duration>
						<start>5381</start>
						<end>5441</end>
						<in>0</in>
						<out>60</out>
					</clipitem>
					<clipitem frameBlend="FALSE" id="clipitem-telop-678">
						<file id="file-2"/>
						<name>！</name>
						<rate>
							<timebase>59</timebase>
							<ntsc>TRUE</ntsc>
						</rate>
						<rate>
							<timebase>59</timebase>
							<ntsc>TRUE</ntsc>
						</rate>
						<duration>60</duration>
						<start>5555</start>
						<end>5615</end>
						<in>0</in>
						<out>60</out>
					</clipitem>
					<clipitem frameBlend="FALSE" id="clipitem-telop-688">
						<file id="file-2"/>
						<name>！</name>
						<rate>
							<timebase>59</timebase>
							<ntsc>TRUE</ntsc>
						</rate>
						<rate>
							<timebase>59</timebase>
							<ntsc>TRUE</ntsc>
						</rate>
						<duration>60</duration>
						<start>5657</start>
						<end>5717</end>
						<in>0</in>
						<out>60</out>
					</clipitem>
					<clipitem frameBlend="FALSE" id="clipitem-telop-696">
						<file id="file-2"/>
						<name>w</name>
						<rate>
							<timebase>59</timebase>
							<ntsc>TRUE</ntsc>
						</rate>
						<rate>
							<timebase>59</timebase>
							<ntsc>TRUE</ntsc>
						</rate>
						<duration>24</duration>
						<start>5723</start>
						<end>5747</end>
						<in>0</in>
						<out>24</out>
					</clipitem>
					<clipitem frameBlend="FALSE" id="clipitem-telop-703">
						<file id="file-2"/>
						<name>！</name>
						<rate>
							<timebase>59</timebase>
							<ntsc>TRUE</ntsc>
						</rate>
						<rate>
							<timebase>59</timebase>
							<ntsc>TRUE</ntsc>
						</rate>
						<duration>60</duration>
						<start>5789</start>
						<end>5849</end>
						<in>0</in>
						<out>60</out>
					</clipitem>
					<clipitem frameBlend="FALSE" id="clipitem-telop-713">
						<file id="file-2"/>
						<name>！</name>
						<rate>
							<timebase>59</timebase>
							<ntsc>TRUE</ntsc>
						</rate>
						<rate>
							<timebase>59</timebase>
							<ntsc>TRUE</ntsc>
						</rate>
						<duration>60</duration>
						<start>5885</start>
						<end>5945</end>
						<in>0</in>
						<out>60</out>
					</clipitem>
					<clipitem frameBlend="FALSE" id="clipitem-telop-718">
						<file id="file-2"/>
						<name>！</name>
						<rate>
							<timebase>59</timebase>
							<ntsc>TRUE</ntsc>
						</rate>
						<rate>
							<timebase>59</timebase>
							<ntsc>TRUE</ntsc>
						</rate>
						<duration>66</duration>
						<start>5957</start>
						<end>6023</end>
						<in>0</in>
						<out>66</out>
					</clipitem>
					<clipitem frameBlend="FALSE" id="clipitem-telop-729">
						<file id="file-2"/>
						<name>！</name>
						<rate>
							<timebase>59</timebase>
							<ntsc>TRUE</ntsc>
						</rate>
						<rate>
							<timebase>59</timebase>
							<ntsc>TRUE</ntsc>
						</rate>
						<duration>60</duration>
						<start>6023</start>
						<end>6083</end>
						<in>0</in>
						<out>60</out>
					</clipitem>
					<clipitem frameBlend="FALSE" id="clipitem-telop-737">
						<file id="file-2"/>
						<name>！</name>
						<rate>
							<timebase>59</timebase>
							<ntsc>TRUE</ntsc>
						</rate>
						<rate>
							<timebase>59</timebase>
							<ntsc>TRUE</ntsc>
						</rate>
						<duration>60</duration>
						<start>6083</start>
						<end>6143</end>
						<in>0</in>
						<out>60</out>
					</clipitem>
					<clipitem frameBlend="FALSE" id="clipitem-telop-748">
						<file id="file-2"/>
						<name>！</name>
						<rate>
							<timebase>59</timebase>
							<ntsc>TRUE</ntsc>
						</rate>
						<rate>
							<timebase>59</timebase>
							<ntsc>TRUE</ntsc>
						</rate>
						<duration>60</duration>
						<start>6191</start>
						<end>6251</end>
						<in>0</in>
						<out>60</out>
					</clipitem>
					<clipitem frameBlend="FALSE" id="clipitem-telop-754">
						<file id="file-2"/>
						<name>w</name>
						<rate>
							<timebase>59</timebase>
							<ntsc>TRUE</ntsc>
						</rate>
						<rate>
							<timebase>59</timebase>
							<ntsc>TRUE</ntsc>
						</rate>
						<duration>30</duration>
						<start>6251</start>
						<end>6281</end>
						<in>0</in>
						<out>30</out>
					</clipitem>
					<clipitem frameBlend="FALSE" id="clipitem-telop-762">
						<file id="file-2"/>
						<name>！</name>
						<rate>
							<timebase>59</timebase>
							<ntsc>TRUE</ntsc>
						</rate>
						<rate>
							<timebase>59</timebase>
							<ntsc>TRUE</ntsc>
						</rate>
						<duration>66</duration>
						<start>6335</start>
						<end>6401</end>
						<in>0</in>
						<out>66</out>
					</clipitem>
					<clipitem frameBlend="FALSE" id="clipitem-telop-773">
						<file id="file-2"/>
						<name>！</name>
						<rate>
							<timebase>59</timebase>
							<ntsc>TRUE</ntsc>
						</rate>
						<rate>
							<timebase>59</timebase>
							<ntsc>TRUE</ntsc>
						</rate>
						<duration>60</duration>
						<start>6491</start>
						<end>6551</end>
						<in>0</in>
						<out>60</out>
					</clipitem>
					<clipitem frameBlend="FALSE" id="clipitem-telop-786">
						<file id="file-2"/>
						<name>！</name>
						<rate>
							<timebase>59</timebase>
							<ntsc>TRUE</ntsc>
						</rate>
						<rate>
							<timebase>59</timebase>
							<ntsc>TRUE</ntsc>
						</rate>
						<duration>60</duration>
						<start>6551</start>
						<end>6611</end>
						<in>0</in>
						<out>60</out>
					</clipitem>
					<clipitem frameBlend="FALSE" id="clipitem-telop-793">
						<file id="file-2"/>
						<name>！</name>
						<rate>
							<timebase>59</timebase>
							<ntsc>TRUE</ntsc>
						</rate>
						<rate>
							<timebase>59</timebase>
							<ntsc>TRUE</ntsc>
						</rate>
						<duration>60</duration>
						<start>6611</start>
						<end>6671</end>
						<in>0</in>
						<out>60</out>
					</clipitem>
					<clipitem frameBlend="FALSE" id="clipitem-telop-801">
						<file id="file-2"/>
						<name>w</name>
						<rate>
							<timebase>59</timebase>
							<ntsc>TRUE</ntsc>
						</rate>
						<rate>
							<timebase>59</timebase>
							<ntsc>TRUE</ntsc>
						</rate>
						<duration>24</duration>
						<start>6671</start>
						<end>6695</end>
						<in>0</in>
						<out>24</out>
					</clipitem>
					<clipitem frameBlend="FALSE" id="clipitem-telop-811">
						<file id="file-2"/>
						<name>！</name>
						<rate>
							<timebase>59</timebase>
							<ntsc>TRUE</ntsc>
						</rate>
						<rate>
							<timebase>59</timebase>
							<ntsc>TRUE</ntsc>
						</rate>
						<duration>60</duration>
						<start>6749</start>
						<end>6809</end>
						<in>0</in>
						<out>60</out>
					</clipitem>
					<clipitem frameBlend="FALSE" id="clipitem-telop-824">
						<file id="file-2"/>
						<name>！</name>
						<rate>
							<timebase>59</timebase>
							<ntsc>TRUE</ntsc>
						</rate>
						<rate>
							<timebase>59</timebase>
							<ntsc>TRUE</ntsc>
						</rate>
						<duration>60</duration>
						<start>6821</start>
						<end>6881</end>
						<in>0</in>
						<out>60</out>
					</clipitem>
					<clipitem frameBlend="FALSE" id="clipitem-telop-834">
						<file id="file-2"/>
						<name>！</name>
						<rate>
							<timebase>59</timebase>
							<ntsc>TRUE</ntsc>
						</rate>
						<rate>
							<timebase>59</timebase>
							<ntsc>TRUE</ntsc>
						</rate>
						<duration>60</duration>
						<start>6881</start>
						<end>6941</end>
						<in>0</in>
						<out>60</out>
					</clipitem>
					<clipitem frameBlend="FALSE" id="clipitem-telop-847">
						<file id="file-2"/>
						<name>w</name>
						<rate>
							<timebase>59</timebase>
							<ntsc>TRUE</ntsc>
						</rate>
						<rate>
							<timebase>59</timebase>
							<ntsc>TRUE</ntsc>
						</rate>
						<duration>30</duration>
						<start>6947</start>
						<end>6977</end>
						<in>0</in>
						<out>30</out>
					</clipitem>
					<clipitem frameBlend="FALSE" id="clipitem-telop-852">
						<file id="file-2"/>
						<name>！</name>
						<rate>
							<timebase>59</timebase>
							<ntsc>TRUE</ntsc>
						</rate>
						<rate>
							<timebase>59</timebase>
							<ntsc>TRUE</ntsc>
						</rate>
						<duration>60</duration>
						<start>6983</start>
						<end>7043</end>
						<in>0</in>
						<out>60</out>
					</clipitem>
					<clipitem frameBlend="FALSE" id="clipitem-telop-862">
						<file id="file-2"/>
						<name>！</name>
						<rate>
							<timebase>59</timebase>
							<ntsc>TRUE</ntsc>
						</rate>
						<rate>
							<timebase>59</timebase>
							<ntsc>TRUE</ntsc>
						</rate>
						<duration>66</duration>
						<start>7061</start>
						<end>7127</end>
						<in>0</in>
						<out>66</out>
					</clipitem>
					<clipitem frameBlend="FALSE" id="clipitem-telop-871">
						<file id="file-2"/>
						<name>！</name>
						<rate>
							<timebase>59</timebase>
							<ntsc>TRUE</ntsc>
						</rate>
						<rate>
							<timebase>59</timebase>
							<ntsc>TRUE</ntsc>
						</rate>
						<duration>60</duration>
						<start>7139</start>
						<end>7199</end>
						<in>0</in>
						<out>60</out>
					</clipitem>
					<clipitem frameBlend="FALSE" id="clipitem-telop-881">
						<file id="file-2"/>
						<name>！</name>
						<rate>
							<timebase>59</timebase>
							<ntsc>TRUE</ntsc>
						</rate>
						<rate>
							<timebase>59</timebase>
							<ntsc>TRUE</ntsc>
						</rate>
						<duration>60</duration>
						<start>7217</start>
						<end>7277</end>
						<in>0</in>
						<out>60</out>
					</clipitem>
					<clipitem frameBlend="FALSE" id="clipitem-telop-889">
						<file id="file-2"/>
						<name>！</name>
						<rate>
							<timebase>59</timebase>
							<ntsc>TRUE</ntsc>
						</rate>
						<rate>
							<timebase>59</timebase>
							<ntsc>TRUE</ntsc>
						</rate>
						<duration>60</duration>
						<start>7283</start>
						<end>7343</end>
						<in>0</in>
						<out>60</out>
					</clipitem>
					<clipitem frameBlend="FALSE" id="clipitem-telop-896">
						<file id="file-2"/>
						<name>！</name>
						<rate>
							<timebase>59</timebase>
							<ntsc>TRUE</ntsc>
						</rate>
						<rate>
							<timebase>59</timebase>
							<ntsc>TRUE</ntsc>
						</rate>
						<duration>60</duration>
						<start>7349</start>
						<end>7409</end>
						<in>0</in>
						<out>60</out>
					</clipitem>
					<clipitem frameBlend="FALSE" id="clipitem-telop-905">
						<file id="file-2"/>
						<name>！</name>
						<rate>
							<timebase>59</timebase>
							<ntsc>TRUE</ntsc>
						</rate>
						<rate>
							<timebase>59</timebase>
							<ntsc>TRUE</ntsc>
						</rate>
						<duration>66</duration>
						<start>7409</start>
						<end>7475</end>
						<in>0</in>
						<out>66</out>
					</clipitem>
					<clipitem frameBlend="FALSE" id="clipitem-telop-921">
						<file id="file-2"/>
						<name>！</name>
						<rate>
							<timebase>59</timebase>
							<ntsc>TRUE</ntsc>
						</rate>
						<rate>
							<timebase>59</timebase>
							<ntsc>TRUE</ntsc>
						</rate>
						<duration>60</duration>
						<start>7499</start>
						<end>7559</end>
						<in>0</in>
						<out>60</out>
					</clipitem>
					<clipitem frameBlend="FALSE" id="clipitem-telop-932">
						<file id="file-2"/>
						<name>！</name>
						<rate>
							<timebase>59</timebase>
							<ntsc>TRUE</ntsc>
						</rate>
						<rate>
							<timebase>59</timebase>
							<ntsc>TRUE</ntsc>
						</rate>
						<duration>60</duration>
						<start>7583</start>
						<end>7643</end>
						<in>0</in>
						<out>60</out>
					</clipitem>
					<clipitem frameBlend="FALSE" id="clipitem-telop-940">
						<file id="file-2"/>
						<name>！</name>
						<rate>
							<timebase>59</timebase>
							<ntsc>TRUE</ntsc>
						</rate>
						<rate>
							<timebase>59</timebase>
							<ntsc>TRUE</ntsc>
						</rate>
						<duration>60</duration>
						<start>7643</start>
						<end>7703</end>
						<in>0</in>
						<out>60</out>
					</clipitem>
					<clipitem frameBlend="FALSE" id="clipitem-telop-951">
						<file id="file-2"/>
						<name>！</name>
						<rate>
							<timebase>59</timebase>
							<ntsc>TRUE</ntsc>
						</rate>
						<rate>
							<timebase>59</timebase>
							<ntsc>TRUE</ntsc>
						</rate>
						<duration>60</duration>
						<start>7709</start>
						<end>7769</end>
						<in>0</in>
						<out>60</out>
					</clipitem>
					<clipitem frameBlend="FALSE" id="clipitem-telop-959">
						<file id="file-2"/>
						<name>！</name>
						<rate>
							<timebase>59</timebase>
							<ntsc>TRUE</ntsc>
						</rate>
						<rate>
							<timebase>59</timebase>
							<ntsc>TRUE</ntsc>
						</rate>
						<duration>66</duration>
						<start>7787</start>
						<end>7853</end>
						<in>0</in>
						<out>66</out>
					</clipitem>
					<clipitem frameBlend="FALSE" id="clipitem-telop-971">
						<file id="file-2"/>
						<name>！</name>
						<rate>
							<timebase>59</timebase>
							<ntsc>TRUE</ntsc>
						</rate>
						<rate>
							<timebase>59</timebase>
							<ntsc>TRUE</ntsc>
						</rate>
						<duration>60</duration>
						<start>7925</start>
						<end>7985</end>
						<in>0</in>
						<out>60</out>
					</clipitem>
					<clipitem frameBlend="FALSE" id="clipitem-telop-976">
						<file id="file-2"/>
						<name>！</name>
						<rate>
							<timebase>59</timebase>
							<ntsc>TRUE</ntsc>
						</rate>
						<rate>
							<timebase>59</timebase>
							<ntsc>TRUE</ntsc>
						</rate>
						<duration>66</duration>
						<start>7985</start>
						<end>8051</end>
						<in>0</in>
						<out>66</out>
					</clipitem>
					<clipitem frameBlend="FALSE" id="clipitem-telop-982">
						<file id="file-2"/>
						<name>！</name>
						<rate>
							<timebase>59</timebase>
							<ntsc>TRUE</ntsc>
						</rate>
						<rate>
							<timebase>59</timebase>
							<ntsc>TRUE</ntsc>
						</rate>
						<duration>60</duration>
						<start>8063</start>
						<end>8123</end>
						<in>0</in>
						<out>60</out>
					</clipitem>
					<clipitem frameBlend="FALSE" id="clipitem-telop-991">
						<file id="file-2"/>
						<name>！</name>
						<rate>
							<timebase>59</timebase>
							<ntsc>TRUE</ntsc>
						</rate>
						<rate>
							<timebase>59</timebase>
							<ntsc>TRUE</ntsc>
						</rate>
						<duration>59</duration>
						<start>8165</start>
						<end>8224</end>
						<in>0</in>
						<out>59</out>
					</clipitem>
					<clipitem frameBlend="FALSE" id="clipitem-telop-998">
						<file id="file-2"/>
						<name>！</name>
						<rate>
							<timebase>59</timebase>
							<ntsc>TRUE</ntsc>
						</rate>
						<rate>
							<timebase>59</timebase>
							<ntsc>TRUE</ntsc>
						</rate>
						<duration>60</duration>
						<start>8230</start>
						<end>8290</end>
						<in>0</in>
						<out>60</out>
					</clipitem>
					<clipitem frameBlend="FALSE" id="clipitem-telop-1007">
						<file id="file-2"/>
						<name>！</name>
						<rate>
							<timebase>59</timebase>
							<ntsc>TRUE</ntsc>
						</rate>
						<rate>
							<timebase>59</timebase>
							<ntsc>TRUE</ntsc>
						</rate>
						<duration>66</duration>
						<start>8290</start>
						<end>8356</end>
						<in>0</in>
						<out>66</out>
					</clipitem>
					<clipitem frameBlend="FALSE" id="clipitem-telop-1019">
						<file id="file-2"/>
						<name>！</name>
						<rate>
							<timebase>59</timebase>
							<ntsc>TRUE</ntsc>
						</rate>
						<rate>
							<timebase>59</timebase>
							<ntsc>TRUE</ntsc>
						</rate>
						<duration>60</duration>
						<start>8428</start>
						<end>8488</end>
						<in>0</in>
						<out>60</out>
					</clipitem>
					<clipitem frameBlend="FALSE" id="clipitem-telop-1029">
						<file id="file-2"/>
						<name>！</name>
						<rate>
							<timebase>59</timebase>
							<ntsc>TRUE</ntsc>
						</rate>
						<rate>
							<timebase>59</timebase>
							<ntsc>TRUE</ntsc>
						</rate>
						<duration>60</duration>
						<start>8506</start>
						<end>8566</end>
						<in>0</in>
						<out>60</out>
					</clipitem>
					<clipitem frameBlend="FALSE" id="clipitem-telop-1037">
						<file id="file-2"/>
						<name>！</name>
						<rate>
							<timebase>59</timebase>
							<ntsc>TRUE</ntsc>
						</rate>
						<rate>
							<timebase>59</timebase>
							<ntsc>TRUE</ntsc>
						</rate>
						<duration>60</duration>
						<start>8566</start>
						<end>8626</end>
						<in>0</in>
						<out>60</out>
					</clipitem>
					<clipitem frameBlend="FALSE" id="clipitem-telop-1048">
						<file id="file-2"/>
						<name>！</name>
						<rate>
							<timebase>59</timebase>
							<ntsc>TRUE</ntsc>
						</rate>
						<rate>
							<timebase>59</timebase>
							<ntsc>TRUE</ntsc>
						</rate>
						<duration>60</duration>
						<start>8662</start>
						<end>8722</end>
						<in>0</in>
						<out>60</out>
					</clipitem>
					<clipitem frameBlend="FALSE" id="clipitem-telop-1054">
						<file id="file-2"/>
						<name>！</name>
						<rate>
							<timebase>59</timebase>
							<ntsc>TRUE</ntsc>
						</rate>
						<rate>
							<timebase>59</timebase>
							<ntsc>TRUE</ntsc>
						</rate>
						<duration>66</duration>
						<start>8746</start>
						<end>8812</end>
						<in>0</in>
						<out>66</out>
					</clipitem>
					<clipitem frameBlend="FALSE" id="clipitem-telop-1060">
						<file id="file-2"/>
						<name>！</name>
						<rate>
							<timebase>59</timebase>
							<ntsc>TRUE</ntsc>
						</rate>
						<rate>
							<timebase>59</timebase>
							<ntsc>TRUE</ntsc>
						</rate>
						<duration>60</duration>
						<start>8854</start>
						<end>8914</end>
						<in>0</in>
						<out>60</out>
					</clipitem>
					<clipitem frameBlend="FALSE" id="clipitem-telop-1071">
						<file id="file-2"/>
						<name>！</name>
						<rate>
							<timebase>59</timebase>
							<ntsc>TRUE</ntsc>
						</rate>
						<rate>
							<timebase>59</timebase>
							<ntsc>TRUE</ntsc>
						</rate>
						<duration>60</duration>
						<start>8914</start>
						<end>8974</end>
						<in>0</in>
						<out>60</out>
					</clipitem>
					<clipitem frameBlend="FALSE" id="clipitem-telop-1078">
						<file id="file-2"/>
						<name>！</name>
						<rate>
							<timebase>59</timebase>
							<ntsc>TRUE</ntsc>
						</rate>
						<rate>
							<timebase>59</timebase>
							<ntsc>TRUE</ntsc>
						</rate>
						<duration>60</duration>
						<start>8974</start>
						<end>9034</end>
						<in>0</in>
						<out>60</out>
					</clipitem>
					<clipitem frameBlend="FALSE" id="clipitem-telop-1086">
						<file id="file-2"/>
						<name>！</name>
						<rate>
							<timebase>59</timebase>
							<ntsc>TRUE</ntsc>
						</rate>
						<rate>
							<timebase>59</timebase>
							<ntsc>TRUE</ntsc>
						</rate>
						<duration>66</duration>
						<start>9046</start>
						<end>9112</end>
						<in>0</in>
						<out>66</out>
					</clipitem>
					<clipitem frameBlend="FALSE" id="clipitem-telop-1096">
						<file id="file-2"/>
						<name>！</name>
						<rate>
							<timebase>59</timebase>
							<ntsc>TRUE</ntsc>
						</rate>
						<rate>
							<timebase>59</timebase>
							<ntsc>TRUE</ntsc>
						</rate>
						<duration>60</duration>
						<start>9130</start>
						<end>9190</end>
						<in>0</in>
						<out>60</out>
					</clipitem>
					<clipitem frameBlend="FALSE" id="clipitem-telop-1105">
						<file id="file-2"/>
						<name>！</name>
						<rate>
							<timebase>59</timebase>
							<ntsc>TRUE</ntsc>
						</rate>
						<rate>
							<timebase>59</timebase>
							<ntsc>TRUE</ntsc>
						</rate>
						<duration>60</duration>
						<start>9202</start>
						<end>9262</end>
						<in>0</in>
						<out>60</out>
					</clipitem>
					<clipitem frameBlend="FALSE" id="clipitem-telop-1114">
						<file id="file-2"/>
						<name>！</name>
						<rate>
							<timebase>59</timebase>
							<ntsc>TRUE</ntsc>
						</rate>
						<rate>
							<timebase>59</timebase>
							<ntsc>TRUE</ntsc>
						</rate>
						<duration>60</duration>
						<start>9262</start>
						<end>9322</end>
						<in>0</in>
						<out>60</out>
					</clipitem>
					<clipitem frameBlend="FALSE" id="clipitem-telop-1124">
						<file id="file-2"/>
						<name>！</name>
						<rate>
							<timebase>59</timebase>
							<ntsc>TRUE</ntsc>
						</rate>
						<rate>
							<timebase>59</timebase>
							<ntsc>TRUE</ntsc>
						</rate>
						<duration>60</duration>
						<start>9328</start>
						<end>9388</end>
						<in>0</in>
						<out>60</out>
					</clipitem>
					<clipitem frameBlend="FALSE" id="clipitem-telop-1132">
						<file id="file-2"/>
						<name>！</name>
						<rate>
							<timebase>59</timebase>
							<ntsc>TRUE</ntsc>
						</rate>
						<rate>
							<timebase>59</timebase>
							<ntsc>TRUE</ntsc>
						</rate>
						<duration>60</duration>
						<start>9388</start>
						<end>9448</end>
						<in>0</in>
						<out>60</out>
					</clipitem>
					<clipitem frameBlend="FALSE" id="clipitem-telop-1144">
						<file id="file-2"/>
						<name>！</name>
						<rate>
							<timebase>59</timebase>
							<ntsc>TRUE</ntsc>
						</rate>
						<rate>
							<timebase>59</timebase>
							<ntsc>TRUE</ntsc>
						</rate>
						<duration>60</duration>
						<start>9448</start>
						<end>9508</end>
						<in>0</in>
						<out>60</out>
					</clipitem>
					<clipitem frameBlend="FALSE" id="clipitem-telop-1151">
						<file id="file-2"/>
						<name>！</name>
						<rate>
							<timebase>59</timebase>
							<ntsc>TRUE</ntsc>
						</rate>
						<rate>
							<timebase>59</timebase>
							<ntsc>TRUE</ntsc>
						</rate>
						<duration>60</duration>
						<start>9514</start>
						<end>9574</end>
						<in>0</in>
						<out>60</out>
					</clipitem>
					<clipitem frameBlend="FALSE" id="clipitem-telop-1160">
						<file id="file-2"/>
						<name>！</name>
						<rate>
							<timebase>59</timebase>
							<ntsc>TRUE</ntsc>
						</rate>
						<rate>
							<timebase>59</timebase>
							<ntsc>TRUE</ntsc>
						</rate>
						<duration>66</duration>
						<start>9592</start>
						<end>9658</end>
						<in>0</in>
						<out>66</out>
					</clipitem>
					<clipitem frameBlend="FALSE" id="clipitem-telop-1168">
						<file id="file-2"/>
						<name>！</name>
						<rate>
							<timebase>59</timebase>
							<ntsc>TRUE</ntsc>
						</rate>
						<rate>
							<timebase>59</timebase>
							<ntsc>TRUE</ntsc>
						</rate>
						<duration>60</duration>
						<start>9658</start>
						<end>9718</end>
						<in>0</in>
						<out>60</out>
					</clipitem>
					<clipitem frameBlend="FALSE" id="clipitem-telop-1178">
						<file id="file-2"/>
						<name>！</name>
						<rate>
							<timebase>59</timebase>
							<ntsc>TRUE</ntsc>
						</rate>
						<rate>
							<timebase>59</timebase>
							<ntsc>TRUE</ntsc>
						</rate>
						<duration>66</duration>
						<start>9760</start>
						<end>9826</end>
						<in>0</in>
						<out>66</out>
					</clipitem>
					<clipitem frameBlend="FALSE" id="clipitem-telop-1186">
						<file id="file-2"/>
						<name>！</name>
						<rate>
							<timebase>59</timebase>
							<ntsc>TRUE</ntsc>
						</rate>
						<rate>
							<timebase>59</timebase>
							<ntsc>TRUE</ntsc>
						</rate>
						<duration>60</duration>
						<start>9862</start>
						<end>9922</end>
						<in>0</in>
						<out>60</out>
					</clipitem>
					<clipitem frameBlend="FALSE" id="clipitem-telop-1199">
						<file id="file-2"/>
						<name>！</name>
						<rate>
							<timebase>59</timebase>
							<ntsc>TRUE</ntsc>
						</rate>
						<rate>
							<timebase>59</timebase>
							<ntsc>TRUE</ntsc>
						</rate>
						<duration>60</duration>
						<start>10000</start>
						<end>10060</end>
						<in>0</in>
						<out>60</out>
					</clipitem>
					<clipitem frameBlend="FALSE" id="clipitem-telop-1207">
						<file id="file-2"/>
						<name>！</name>
						<rate>
							<timebase>59</timebase>
							<ntsc>TRUE</ntsc>
						</rate>
						<rate>
							<timebase>59</timebase>
							<ntsc>TRUE</ntsc>
						</rate>
						<duration>60</duration>
						<start>10108</start>
						<end>10168</end>
						<in>0</in>
						<out>60</out>
					</clipitem>
					<clipitem frameBlend="FALSE" id="clipitem-telop-1216">
						<file id="file-2"/>
						<name>！</name>
						<rate>
							<timebase>59</timebase>
							<ntsc>TRUE</ntsc>
						</rate>
						<rate>
							<timebase>59</timebase>
							<ntsc>TRUE</ntsc>
						</rate>
						<duration>60</duration>
						<start>10168</start>
						<end>10228</end>
						<in>0</in>
						<out>60</out>
					</clipitem>
					<clipitem frameBlend="FALSE" id="clipitem-telop-1230">
						<file id="file-2"/>
						<name>！</name>
						<rate>
							<timebase>59</timebase>
							<ntsc>TRUE</ntsc>
						</rate>
						<rate>
							<timebase>59</timebase>
							<ntsc>TRUE</ntsc>
						</rate>
						<duration>60</duration>
						<start>10342</start>
						<end>10402</end>
						<in>0</in>
						<out>60</out>
					</clipitem>
					<clipitem frameBlend="FALSE" id="clipitem-telop-1242">
						<file id="file-2"/>
						<name>！</name>
						<rate>
							<timebase>59</timebase>
							<ntsc>TRUE</ntsc>
						</rate>
						<rate>
							<timebase>59</timebase>
							<ntsc>TRUE</ntsc>
						</rate>
						<duration>66</duration>
						<start>10468</start>
						<end>10534</end>
						<in>0</in>
						<out>66</out>
					</clipitem>
					<clipitem frameBlend="FALSE" id="clipitem-telop-1249">
						<file id="file-2"/>
						<name>！</name>
						<rate>
							<timebase>59</timebase>
							<ntsc>TRUE</ntsc>
						</rate>
						<rate>
							<timebase>59</timebase>
							<ntsc>TRUE</ntsc>
						</rate>
						<duration>66</duration>
						<start>10564</start>
						<end>10630</end>
						<in>0</in>
						<out>66</out>
					</clipitem>
					<clipitem frameBlend="FALSE" id="clipitem-telop-1259">
						<file id="file-2"/>
						<name>！</name>
						<rate>
							<timebase>59</timebase>
							<ntsc>TRUE</ntsc>
						</rate>
						<rate>
							<timebase>59</timebase>
							<ntsc>TRUE</ntsc>
						</rate>
						<duration>60</duration>
						<start>10630</start>
						<end>10690</end>
						<in>0</in>
						<out>60</out>
					</clipitem>
					<clipitem frameBlend="FALSE" id="clipitem-telop-1271">
						<file id="file-2"/>
						<name>！</name>
						<rate>
							<timebase>59</timebase>
							<ntsc>TRUE</ntsc>
						</rate>
						<rate>
							<timebase>59</timebase>
							<ntsc>TRUE</ntsc>
						</rate>
						<duration>60</duration>
						<start>10714</start>
						<end>10774</end>
						<in>0</in>
						<out>60</out>
					</clipitem>
					<clipitem frameBlend="FALSE" id="clipitem-telop-1281">
						<file id="file-2"/>
						<name>w</name>
						<rate>
							<timebase>59</timebase>
							<ntsc>TRUE</ntsc>
						</rate>
						<rate>
							<timebase>59</timebase>
							<ntsc>TRUE</ntsc>
						</rate>
						<duration>30</duration>
						<start>10792</start>
						<end>10822</end>
						<in>0</in>
						<out>30</out>
					</clipitem>
					<clipitem frameBlend="FALSE" id="clipitem-telop-1284">
						<file id="file-2"/>
						<name>！</name>
						<rate>
							<timebase>59</timebase>
							<ntsc>TRUE</ntsc>
						</rate>
						<rate>
							<timebase>59</timebase>
							<ntsc>TRUE</ntsc>
						</rate>
						<duration>60</duration>
						<start>10828</start>
						<end>10888</end>
						<in>0</in>
						<out>60</out>
					</clipitem>
					<clipitem frameBlend="FALSE" id="clipitem-telop-1294">
						<file id="file-2"/>
						<name>！</name>
						<rate>
							<timebase>59</timebase>
							<ntsc>TRUE</ntsc>
						</rate>
						<rate>
							<timebase>59</timebase>
							<ntsc>TRUE</ntsc>
						</rate>
						<duration>60</duration>
						<start>10936</start>
						<end>10996</end>
						<in>0</in>
						<out>60</out>
					</clipitem>
					<clipitem frameBlend="FALSE" id="clipitem-telop-1304">
						<file id="file-2"/>
						<name>！</name>
						<rate>
							<timebase>59</timebase>
							<ntsc>TRUE</ntsc>
						</rate>
						<rate>
							<timebase>59</timebase>
							<ntsc>TRUE</ntsc>
						</rate>
						<duration>60</duration>
						<start>10996</start>
						<end>11056</end>
						<in>0</in>
						<out>60</out>
					</clipitem>
					<clipitem frameBlend="FALSE" id="clipitem-telop-1311">
						<file id="file-2"/>
						<name>！</name>
						<rate>
							<timebase>59</timebase>
							<ntsc>TRUE</ntsc>
						</rate>
						<rate>
							<timebase>59</timebase>
							<ntsc>TRUE</ntsc>
						</rate>
						<duration>60</duration>
						<start>11062</start>
						<end>11122</end>
						<in>0</in>
						<out>60</out>
					</clipitem>
					<clipitem frameBlend="FALSE" id="clipitem-telop-1324">
						<file id="file-2"/>
						<name>！</name>
						<rate>
							<timebase>59</timebase>
							<ntsc>TRUE</ntsc>
						</rate>
						<rate>
							<timebase>59</timebase>
							<ntsc>TRUE</ntsc>
						</rate>
						<duration>60</duration>
						<start>11176</start>
						<end>11236</end>
						<in>0</in>
						<out>60</out>
					</clipitem>
					<clipitem frameBlend="FALSE" id="clipitem-telop-1334">
						<file id="file-2"/>
						<name>！</name>
						<rate>
							<timebase>59</timebase>
							<ntsc>TRUE</ntsc>
						</rate>
						<rate>
							<timebase>59</timebase>
							<ntsc>TRUE</ntsc>
						</rate>
						<duration>60</duration>
						<start>11284</start>
						<end>11344</end>
						<in>0</in>
						<out>60</out>
					</clipitem>
					<clipitem frameBlend="FALSE" id="clipitem-telop-1342">
						<file id="file-2"/>
						<name>！</name>
						<rate>
							<timebase>59</timebase>
							<ntsc>TRUE</ntsc>
						</rate>
						<rate>
							<timebase>59</timebase>
							<ntsc>TRUE</ntsc>
						</rate>
						<duration>60</duration>
						<start>11356</start>
						<end>11416</end>
						<in>0</in>
						<out>60</out>
					</clipitem>
					<clipitem frameBlend="FALSE" id="clipitem-telop-1350">
						<file id="file-2"/>
						<name>！</name>
						<rate>
							<timebase>59</timebase>
							<ntsc>TRUE</ntsc>
						</rate>
						<rate>
							<timebase>59</timebase>
							<ntsc>TRUE</ntsc>
						</rate>
						<duration>60</duration>
						<start>11434</start>
						<end>11494</end>
						<in>0</in>
						<out>60</out>
					</clipitem>
					<clipitem frameBlend="FALSE" id="clipitem-telop-1359">
						<file id="file-2"/>
						<name>！</name>
						<rate>
							<timebase>59</timebase>
							<ntsc>TRUE</ntsc>
						</rate>
						<rate>
							<timebase>59</timebase>
							<ntsc>TRUE</ntsc>
						</rate>
						<duration>60</duration>
						<start>11500</start>
						<end>11560</end>
						<in>0</in>
						<out>60</out>
					</clipitem>
					<clipitem frameBlend="FALSE" id="clipitem-telop-1374">
						<file id="file-2"/>
						<name>！</name>
						<rate>
							<timebase>59</timebase>
							<ntsc>TRUE</ntsc>
						</rate>
						<rate>
							<timebase>59</timebase>
							<ntsc>TRUE</ntsc>
						</rate>
						<duration>60</duration>
						<start>11638</start>
						<end>11698</end>
						<in>0</in>
						<out>60</out>
					</clipitem>
					<clipitem frameBlend="FALSE" id="clipitem-telop-1385">
						<file id="file-2"/>
						<name>！</name>
						<rate>
							<timebase>59</timebase>
							<ntsc>TRUE</ntsc>
						</rate>
						<rate>
							<timebase>59</timebase>
							<ntsc>TRUE</ntsc>
						</rate>
						<duration>66</duration>
						<start>11704</start>
						<end>11770</end>
						<in>0</in>
						<out>66</out>
					</clipitem>
					<clipitem frameBlend="FALSE" id="clipitem-telop-1395">
						<file id="file-2"/>
						<name>！</name>
						<rate>
							<timebase>59</timebase>
							<ntsc>TRUE</ntsc>
						</rate>
						<rate>
							<timebase>59</timebase>
							<ntsc>TRUE</ntsc>
						</rate>
						<duration>60</duration>
						<start>11788</start>
						<end>11848</end>
						<in>0</in>
						<out>60</out>
					</clipitem>
					<clipitem frameBlend="FALSE" id="clipitem-telop-1402">
						<file id="file-2"/>
						<name>！</name>
						<rate>
							<timebase>59</timebase>
							<ntsc>TRUE</ntsc>
						</rate>
						<rate>
							<timebase>59</timebase>
							<ntsc>TRUE</ntsc>
						</rate>
						<duration>60</duration>
						<start>11848</start>
						<end>11908</end>
						<in>0</in>
						<out>60</out>
					</clipitem>
					<clipitem frameBlend="FALSE" id="clipitem-telop-1412">
						<file id="file-2"/>
						<name>！</name>
						<rate>
							<timebase>59</timebase>
							<ntsc>TRUE</ntsc>
						</rate>
						<rate>
							<timebase>59</timebase>
							<ntsc>TRUE</ntsc>
						</rate>
						<duration>60</duration>
						<start>11914</start>
						<end>11974</end>
						<in>0</in>
						<out>60</out>
					</clipitem>
					<clipitem frameBlend="FALSE" id="clipitem-telop-1421">
						<file id="file-2"/>
						<name>！</name>
						<rate>
							<timebase>59</timebase>
							<ntsc>TRUE</ntsc>
						</rate>
						<rate>
							<timebase>59</timebase>
							<ntsc>TRUE</ntsc>
						</rate>
						<duration>60</duration>
						<start>11998</start>
						<end>12058</end>
						<in>0</in>
						<out>60</out>
					</clipitem>
					<clipitem frameBlend="FALSE" id="clipitem-telop-1433">
						<file id="file-2"/>
						<name>！</name>
						<rate>
							<timebase>59</timebase>
							<ntsc>TRUE</ntsc>
						</rate>
						<rate>
							<timebase>59</timebase>
							<ntsc>TRUE</ntsc>
						</rate>
						<duration>60</duration>
						<start>12094</start>
						<end>12154</end>
						<in>0</in>
						<out>60</out>
					</clipitem>
					<clipitem frameBlend="FALSE" id="clipitem-telop-1442">
						<file id="file-2"/>
						<name>！</name>
						<rate>
							<timebase>59</timebase>
							<ntsc>TRUE</ntsc>
						</rate>
						<rate>
							<timebase>59</timebase>
							<ntsc>TRUE</ntsc>
						</rate>
						<duration>60</duration>
						<start>12154</start>
						<end>12214</end>
						<in>0</in>
						<out>60</out>
					</clipitem>
					<clipitem frameBlend="FALSE" id="clipitem-telop-1450">
						<file id="file-2"/>
						<name>！</name>
						<rate>
							<timebase>59</timebase>
							<ntsc>TRUE</ntsc>
						</rate>
						<rate>
							<timebase>59</timebase>
							<ntsc>TRUE</ntsc>
						</rate>
						<duration>60</duration>
						<start>12226</start>
						<end>12286</end>
						<in>0</in>
						<out>60</out>
					</clipitem>
					<clipitem frameBlend="FALSE" id="clipitem-telop-1461">
						<file id="file-2"/>
						<name>！</name>
						<rate>
							<timebase>59</timebase>
							<ntsc>TRUE</ntsc>
						</rate>
						<rate>
							<timebase>59</timebase>
							<ntsc>TRUE</ntsc>
						</rate>
						<duration>60</duration>
						<start>12304</start>
						<end>12364</end>
						<in>0</in>
						<out>60</out>
					</clipitem>
					<clipitem frameBlend="FALSE" id="clipitem-telop-1467">
						<file id="file-2"/>
						<name>！</name>
						<rate>
							<timebase>59</timebase>
							<ntsc>TRUE</ntsc>
						</rate>
						<rate>
							<timebase>59</timebase>
							<ntsc>TRUE</ntsc>
						</rate>
						<duration>60</duration>
						<start>12382</start>
						<end>12442</end>
						<in>0</in>
						<out>60</out>
					</clipitem>
					<clipitem frameBlend="FALSE" id="clipitem-telop-1473">
						<file id="file-2"/>
						<name>！</name>
						<rate>
							<timebase>59</timebase>
							<ntsc>TRUE</ntsc>
						</rate>
						<rate>
							<timebase>59</timebase>
							<ntsc>TRUE</ntsc>
						</rate>
						<duration>66</duration>
						<start>12448</start>
						<end>12514</end>
						<in>0</in>
						<out>66</out>
					</clipitem>
					<clipitem frameBlend="FALSE" id="clipitem-telop-1482">
						<file id="file-2"/>
						<name>！</name>
						<rate>
							<timebase>59</timebase>
							<ntsc>TRUE</ntsc>
						</rate>
						<rate>
							<timebase>59</timebase>
							<ntsc>TRUE</ntsc>
						</rate>
						<duration>60</duration>
						<start>12514</start>
						<end>12574</end>
						<in>0</in>
						<out>60</out>
					</clipitem>
					<clipitem frameBlend="FALSE" id="clipitem-telop-1491">
						<file id="file-2"/>
						<name>！</name>
						<rate>
							<timebase>59</timebase>
							<ntsc>TRUE</ntsc>
						</rate>
						<rate>
							<timebase>59</timebase>
							<ntsc>TRUE</ntsc>
						</rate>
						<duration>60</duration>
						<start>12598</start>
						<end>12658</end>
						<in>0</in>
						<out>60</out>
					</clipitem>
					<clipitem frameBlend="FALSE" id="clipitem-telop-1506">
						<file id="file-2"/>
						<name>w</name>
						<rate>
							<timebase>59</timebase>
							<ntsc>TRUE</ntsc>
						</rate>
						<rate>
							<timebase>59</timebase>
							<ntsc>TRUE</ntsc>
						</rate>
						<duration>30</duration>
						<start>12658</start>
						<end>12688</end>
						<in>0</in>
						<out>30</out>
					</clipitem>
					<clipitem frameBlend="FALSE" id="clipitem-telop-1510">
						<file id="file-2"/>
						<name>！</name>
						<rate>
							<timebase>59</timebase>
							<ntsc>TRUE</ntsc>
						</rate>
						<rate>
							<timebase>59</timebase>
							<ntsc>TRUE</ntsc>
						</rate>
						<duration>66</duration>
						<start>12688</start>
						<end>12754</end>
						<in>0</in>
						<out>66</out>
					</clipitem>
					<clipitem frameBlend="FALSE" id="clipitem-telop-1515">
						<file id="file-2"/>
						<name>！</name>
						<rate>
							<timebase>59</timebase>
							<ntsc>TRUE</ntsc>
						</rate>
						<rate>
							<timebase>59</timebase>
							<ntsc>TRUE</ntsc>
						</rate>
						<duration>66</duration>
						<start>12754</start>
						<end>12820</end>
						<in>0</in>
						<out>66</out>
					</clipitem>
					<clipitem frameBlend="FALSE" id="clipitem-telop-1524">
						<file id="file-2"/>
						<name>！</name>
						<rate>
							<timebase>59</timebase>
							<ntsc>TRUE</ntsc>
						</rate>
						<rate>
							<timebase>59</timebase>
							<ntsc>TRUE</ntsc>
						</rate>
						<duration>66</duration>
						<start>12838</start>
						<end>12904</end>
						<in>0</in>
						<out>66</out>
					</clipitem>
					<clipitem frameBlend="FALSE" id="clipitem-telop-1532">
						<file id="file-2"/>
						<name>！</name>
						<rate>
							<timebase>59</timebase>
							<ntsc>TRUE</ntsc>
						</rate>
						<rate>
							<timebase>59</timebase>
							<ntsc>TRUE</ntsc>
						</rate>
						<duration>66</duration>
						<start>12904</start>
						<end>12970</end>
						<in>0</in>
						<out>66</out>
					</clipitem>
					<clipitem frameBlend="FALSE" id="clipitem-telop-1542">
						<file id="file-2"/>
						<name>！</name>
						<rate>
							<timebase>59</timebase>
							<ntsc>TRUE</ntsc>
						</rate>
						<rate>
							<timebase>59</timebase>
							<ntsc>TRUE</ntsc>
						</rate>
						<duration>60</duration>
						<start>13006</start>
						<end>13066</end>
						<in>0</in>
						<out>60</out>
					</clipitem>
					<clipitem frameBlend="FALSE" id="clipitem-telop-1551">
						<file id="file-2"/>
						<name>w</name>
						<rate>
							<timebase>59</timebase>
							<ntsc>TRUE</ntsc>
						</rate>
						<rate>
							<timebase>59</timebase>
							<ntsc>TRUE</ntsc>
						</rate>
						<duration>30</duration>
						<start>13090</start>
						<end>13120</end>
						<in>0</in>
						<out>30</out>
					</clipitem>
					<clipitem frameBlend="FALSE" id="clipitem-telop-1562">
						<file id="file-2"/>
						<name>！</name>
						<rate>
							<timebase>59</timebase>
							<ntsc>TRUE</ntsc>
						</rate>
						<rate>
							<timebase>59</timebase>
							<ntsc>TRUE</ntsc>
						</rate>
						<duration>60</duration>
						<start>13204</start>
						<end>13264</end>
						<in>0</in>
						<out>60</out>
					</clipitem>
					<clipitem frameBlend="FALSE" id="clipitem-telop-1571">
						<file id="file-2"/>
						<name>！</name>
						<rate>
							<timebase>59</timebase>
							<ntsc>TRUE</ntsc>
						</rate>
						<rate>
							<timebase>59</timebase>
							<ntsc>TRUE</ntsc>
						</rate>
						<duration>60</duration>
						<start>13270</start>
						<end>13330</end>
						<in>0</in>
						<out>60</out>
					</clipitem>
					<clipitem frameBlend="FALSE" id="clipitem-telop-1582">
						<file id="file-2"/>
						<name>！</name>
						<rate>
							<timebase>59</timebase>
							<ntsc>TRUE</ntsc>
						</rate>
						<rate>
							<timebase>59</timebase>
							<ntsc>TRUE</ntsc>
						</rate>
						<duration>60</duration>
						<start>13372</start>
						<end>13432</end>
						<in>0</in>
						<out>60</out>
					</clipitem>
					<clipitem frameBlend="FALSE" id="clipitem-telop-1592">
						<file id="file-2"/>
						<name>！</name>
						<rate>
							<timebase>59</timebase>
							<ntsc>TRUE</ntsc>
						</rate>
						<rate>
							<timebase>59</timebase>
							<ntsc>TRUE</ntsc>
						</rate>
						<duration>60</duration>
						<start>13498</start>
						<end>13558</end>
						<in>0</in>
						<out>60</out>
					</clipitem>
					<clipitem frameBlend="FALSE" id="clipitem-telop-1603">
						<file id="file-2"/>
						<name>！</name>
						<rate>
							<timebase>59</timebase>
							<ntsc>TRUE</ntsc>
						</rate>
						<rate>
							<timebase>59</timebase>
							<ntsc>TRUE</ntsc>
						</rate>
						<duration>60</duration>
						<start>13576</start>
						<end>13636</end>
						<in>0</in>
						<out>60</out>
					</clipitem>
					<clipitem frameBlend="FALSE" id="clipitem-telop-1612">
						<file id="file-2"/>
						<name>！</name>
						<rate>
							<timebase>59</timebase>
							<ntsc>TRUE</ntsc>
						</rate>
						<rate>
							<timebase>59</timebase>
							<ntsc>TRUE</ntsc>
						</rate>
						<duration>60</duration>
						<start>13642</start>
						<end>13702</end>
						<in>0</in>
						<out>60</out>
					</clipitem>
					<clipitem frameBlend="FALSE" id="clipitem-telop-1619">
						<file id="file-2"/>
						<name>！</name>
						<rate>
							<timebase>59</timebase>
							<ntsc>TRUE</ntsc>
						</rate>
						<rate>
							<timebase>59</timebase>
							<ntsc>TRUE</ntsc>
						</rate>
						<duration>60</duration>
						<start>13702</start>
						<end>13762</end>
						<in>0</in>
						<out>60</out>
					</clipitem>
					<clipitem frameBlend="FALSE" id="clipitem-telop-1630">
						<file id="file-2"/>
						<name>！</name>
						<rate>
							<timebase>59</timebase>
							<ntsc>TRUE</ntsc>
						</rate>
						<rate>
							<timebase>59</timebase>
							<ntsc>TRUE</ntsc>
						</rate>
						<duration>60</duration>
						<start>13786</start>
						<end>13846</end>
						<in>0</in>
						<out>60</out>
					</clipitem>
					<clipitem frameBlend="FALSE" id="clipitem-telop-1642">
						<file id="file-2"/>
						<name>！</name>
						<rate>
							<timebase>59</timebase>
							<ntsc>TRUE</ntsc>
						</rate>
						<rate>
							<timebase>59</timebase>
							<ntsc>TRUE</ntsc>
						</rate>
						<duration>60</duration>
						<start>13906</start>
						<end>13966</end>
						<in>0</in>
						<out>60</out>
					</clipitem>
					<clipitem frameBlend="FALSE" id="clipitem-telop-1651">
						<file id="file-2"/>
						<name>！</name>
						<rate>
							<timebase>59</timebase>
							<ntsc>TRUE</ntsc>
						</rate>
						<rate>
							<timebase>59</timebase>
							<ntsc>TRUE</ntsc>
						</rate>
						<duration>66</duration>
						<start>13972</start>
						<end>14038</end>
						<in>0</in>
						<out>66</out>
					</clipitem>
					<clipitem frameBlend="FALSE" id="clipitem-telop-1659">
						<file id="file-2"/>
						<name>！</name>
						<rate>
							<timebase>59</timebase>
							<ntsc>TRUE</ntsc>
						</rate>
						<rate>
							<timebase>59</timebase>
							<ntsc>TRUE</ntsc>
						</rate>
						<duration>60</duration>
						<start>14044</start>
						<end>14104</end>
						<in>0</in>
						<out>60</out>
					</clipitem>
					<clipitem frameBlend="FALSE" id="clipitem-telop-1668">
						<file id="file-2"/>
						<name>！</name>
						<rate>
							<timebase>59</timebase>
							<ntsc>TRUE</ntsc>
						</rate>
						<rate>
							<timebase>59</timebase>
							<ntsc>TRUE</ntsc>
						</rate>
						<duration>60</duration>
						<start>14134</start>
						<end>14194</end>
						<in>0</in>
						<out>60</out>
					</clipitem>
					<clipitem frameBlend="FALSE" id="clipitem-telop-1679">
						<file id="file-2"/>
						<name>！</name>
						<rate>
							<timebase>59</timebase>
							<ntsc>TRUE</ntsc>
						</rate>
						<rate>
							<timebase>59</timebase>
							<ntsc>TRUE</ntsc>
						</rate>
						<duration>60</duration>
						<start>14200</start>
						<end>14260</end>
						<in>0</in>
						<out>60</out>
					</clipitem>
					<clipitem frameBlend="FALSE" id="clipitem-telop-1688">
						<file id="file-2"/>
						<name>！</name>
						<rate>
							<timebase>59</timebase>
							<ntsc>TRUE</ntsc>
						</rate>
						<rate>
							<timebase>59</timebase>
							<ntsc>TRUE</ntsc>
						</rate>
						<duration>66</duration>
						<start>14266</start>
						<end>14332</end>
						<in>0</in>
						<out>66</out>
					</clipitem>
					<clipitem frameBlend="FALSE" id="clipitem-telop-1694">
						<file id="file-2"/>
						<name>！</name>
						<rate>
							<timebase>59</timebase>
							<ntsc>TRUE</ntsc>
						</rate>
						<rate>
							<timebase>59</timebase>
							<ntsc>TRUE</ntsc>
						</rate>
						<duration>60</duration>
						<start>14338</start>
						<end>14398</end>
						<in>0</in>
						<out>60</out>
					</clipitem>
					<clipitem frameBlend="FALSE" id="clipitem-telop-1707">
						<file id="file-2"/>
						<name>！</name>
						<rate>
							<timebase>59</timebase>
							<ntsc>TRUE</ntsc>
						</rate>
						<rate>
							<timebase>59</timebase>
							<ntsc>TRUE</ntsc>
						</rate>
						<duration>66</duration>
						<start>14452</start>
						<end>14518</end>
						<in>0</in>
						<out>66</out>
					</clipitem>
					<clipitem frameBlend="FALSE" id="clipitem-telop-1715">
						<file id="file-2"/>
						<name>！</name>
						<rate>
							<timebase>59</timebase>
							<ntsc>TRUE</ntsc>
						</rate>
						<rate>
							<timebase>59</timebase>
							<ntsc>TRUE</ntsc>
						</rate>
						<duration>60</duration>
						<start>14536</start>
						<end>14596</end>
						<in>0</in>
						<out>60</out>
					</clipitem>
					<clipitem frameBlend="FALSE" id="clipitem-telop-1723">
						<file id="file-2"/>
						<name>！</name>
						<rate>
							<timebase>59</timebase>
							<ntsc>TRUE</ntsc>
						</rate>
						<rate>
							<timebase>59</timebase>
							<ntsc>TRUE</ntsc>
						</rate>
						<duration>60</duration>
						<start>14620</start>
						<end>14680</end>
						<in>0</in>
						<out>60</out>
					</clipitem>
					<clipitem frameBlend="FALSE" id="clipitem-telop-1736">
						<file id="file-2"/>
						<name>！</name>
						<rate>
							<timebase>59</timebase>
							<ntsc>TRUE</ntsc>
						</rate>
						<rate>
							<timebase>59</timebase>
							<ntsc>TRUE</ntsc>
						</rate>
						<duration>60</duration>
						<start>14716</start>
						<end>14776</end>
						<in>0</in>
						<out>60</out>
					</clipitem>
					<clipitem frameBlend="FALSE" id="clipitem-telop-1744">
						<file id="file-2"/>
						<name>！</name>
						<rate>
							<timebase>59</timebase>
							<ntsc>TRUE</ntsc>
						</rate>
						<rate>
							<timebase>59</timebase>
							<ntsc>TRUE</ntsc>
						</rate>
						<duration>60</duration>
						<start>14776</start>
						<end>14836</end>
						<in>0</in>
						<out>60</out>
					</clipitem>
					<clipitem frameBlend="FALSE" id="clipitem-telop-1755">
						<file id="file-2"/>
						<name>！</name>
						<rate>
							<timebase>59</timebase>
							<ntsc>TRUE</ntsc>
						</rate>
						<rate>
							<timebase>59</timebase>
							<ntsc>TRUE</ntsc>
						</rate>
						<duration>60</duration>
						<start>14956</start>
						<end>15016</end>
						<in>0</in>
						<out>60</out>
					</clipitem>
					<clipitem frameBlend="FALSE" id="clipitem-telop-1764">
						<file id="file-2"/>
						<name>！</name>
						<rate>
							<timebase>59</timebase>
							<ntsc>TRUE</ntsc>
						</rate>
						<rate>
							<timebase>59</timebase>
							<ntsc>TRUE</ntsc>
						</rate>
						<duration>60</duration>
						<start>15016</start>
						<end>15076</end>
						<in>0</in>
						<out>60</out>
					</clipitem>
					<clipitem frameBlend="FALSE" id="clipitem-telop-1771">
						<file id="file-2"/>
						<name>！</name>
						<rate>
							<timebase>59</timebase>
							<ntsc>TRUE</ntsc>
						</rate>
						<rate>
							<timebase>59</timebase>
							<ntsc>TRUE</ntsc>
						</rate>
						<duration>60</duration>
						<start>15094</start>
						<end>15154</end>
						<in>0</in>
						<out>60</out>
					</clipitem>
					<clipitem frameBlend="FALSE" id="clipitem-telop-1779">
						<file id="file-2"/>
						<name>！</name>
						<rate>
							<timebase>59</timebase>
							<ntsc>TRUE</ntsc>
						</rate>
						<rate>
							<timebase>59</timebase>
							<ntsc>TRUE</ntsc>
						</rate>
						<duration>60</duration>
						<start>15154</start>
						<end>15214</end>
						<in>0</in>
						<out>60</out>
					</clipitem>
					<clipitem frameBlend="FALSE" id="clipitem-telop-1786">
						<file id="file-2"/>
						<name>！</name>
						<rate>
							<timebase>59</timebase>
							<ntsc>TRUE</ntsc>
						</rate>
						<rate>
							<timebase>59</timebase>
							<ntsc>TRUE</ntsc>
						</rate>
						<duration>66</duration>
						<start>15232</start>
						<end>15298</end>
						<in>0</in>
						<out>66</out>
					</clipitem>
					<clipitem frameBlend="FALSE" id="clipitem-telop-1792">
						<file id="file-2"/>
						<name>！</name>
						<rate>
							<timebase>59</timebase>
							<ntsc>TRUE</ntsc>
						</rate>
						<rate>
							<timebase>59</timebase>
							<ntsc>TRUE</ntsc>
						</rate>
						<duration>66</duration>
						<start>15322</start>
						<end>15388</end>
						<in>0</in>
						<out>66</out>
					</clipitem>
					<clipitem frameBlend="FALSE" id="clipitem-telop-1801">
						<file id="file-2"/>
						<name>！</name>
						<rate>
							<timebase>59</timebase>
							<ntsc>TRUE</ntsc>
						</rate>
						<rate>
							<timebase>59</timebase>
							<ntsc>TRUE</ntsc>
						</rate>
						<duration>66</duration>
						<start>15388</start>
						<end>15454</end>
						<in>0</in>
						<out>66</out>
					</clipitem>
					<clipitem frameBlend="FALSE" id="clipitem-telop-1811">
						<file id="file-2"/>
						<name>w</name>
						<rate>
							<timebase>59</timebase>
							<ntsc>TRUE</ntsc>
						</rate>
						<rate>
							<timebase>59</timebase>
							<ntsc>TRUE</ntsc>
						</rate>
						<duration>30</duration>
						<start>15472</start>
						<end>15502</end>
						<in>0</in>
						<out>30</out>
					</clipitem>
					<clipitem frameBlend="FALSE" id="clipitem-telop-1816">
						<file id="file-2"/>
						<name>！</name>
						<rate>
							<timebase>59</timebase>
							<ntsc>TRUE</ntsc>
						</rate>
						<rate>
							<timebase>59</timebase>
							<ntsc>TRUE</ntsc>
						</rate>
						<duration>60</duration>
						<start>15502</start>
						<end>15562</end>
						<in>0</in>
						<out>60</out>
					</clipitem>
					<clipitem frameBlend="FALSE" id="clipitem-telop-1822">
						<file id="file-2"/>
						<name>！</name>
						<rate>
							<timebase>59</timebase>
							<ntsc>TRUE</ntsc>
						</rate>
						<rate>
							<timebase>59</timebase>
							<ntsc>TRUE</ntsc>
						</rate>
						<duration>60</duration>
						<start>15574</start>
						<end>15634</end>
						<in>0</in>
						<out>60</out>
					</clipitem>
					<clipitem frameBlend="FALSE" id="clipitem-telop-1831">
						<file id="file-2"/>
						<name>！</name>
						<rate>
							<timebase>59</timebase>
							<ntsc>TRUE</ntsc>
						</rate>
						<rate>
							<timebase>59</timebase>
							<ntsc>TRUE</ntsc>
						</rate>
						<duration>60</duration>
						<start>15670</start>
						<end>15730</end>
						<in>0</in>
						<out>60</out>
					</clipitem>
					<clipitem frameBlend="FALSE" id="clipitem-telop-1837">
						<file id="file-2"/>
						<name>！</name>
						<rate>
							<timebase>59</timebase>
							<ntsc>TRUE</ntsc>
						</rate>
						<rate>
							<timebase>59</timebase>
							<ntsc>TRUE</ntsc>
						</rate>
						<duration>60</duration>
						<start>15730</start>
						<end>15790</end>
						<in>0</in>
						<out>60</out>
					</clipitem>
					<clipitem frameBlend="FALSE" id="clipitem-telop-1844">
						<file id="file-2"/>
						<name>！</name>
						<rate>
							<timebase>59</timebase>
							<ntsc>TRUE</ntsc>
						</rate>
						<rate>
							<timebase>59</timebase>
							<ntsc>TRUE</ntsc>
						</rate>
						<duration>60</duration>
						<start>15802</start>
						<end>15862</end>
						<in>0</in>
						<out>60</out>
					</clipitem>
					<clipitem frameBlend="FALSE" id="clipitem-telop-1850">
						<file id="file-2"/>
						<name>w</name>
						<rate>
							<timebase>59</timebase>
							<ntsc>TRUE</ntsc>
						</rate>
						<rate>
							<timebase>59</timebase>
							<ntsc>TRUE</ntsc>
						</rate>
						<duration>30</duration>
						<start>15862</start>
						<end>15892</end>
						<in>0</in>
						<out>30</out>
					</clipitem>
					<clipitem frameBlend="FALSE" id="clipitem-telop-1857">
						<file id="file-2"/>
						<name>w</name>
						<rate>
							<timebase>59</timebase>
							<ntsc>TRUE</ntsc>
						</rate>
						<rate>
							<timebase>59</timebase>
							<ntsc>TRUE</ntsc>
						</rate>
						<duration>30</duration>
						<start>15892</start>
						<end>15922</end>
						<in>0</in>
						<out>30</out>
					</clipitem>
					<clipitem frameBlend="FALSE" id="clipitem-telop-1864">
						<file id="file-2"/>
						<name>！</name>
						<rate>
							<timebase>59</timebase>
							<ntsc>TRUE</ntsc>
						</rate>
						<rate>
							<timebase>59</timebase>
							<ntsc>TRUE</ntsc>
						</rate>
						<duration>66</duration>
						<start>15958</start>
						<end>16024</end>
						<in>0</in>
						<out>66</out>
					</clipitem>
					<clipitem frameBlend="FALSE" id="clipitem-telop-1873">
						<file id="file-2"/>
						<name>！</name>
						<rate>
							<timebase>59</timebase>
							<ntsc>TRUE</ntsc>
						</rate>
						<rate>
							<timebase>59</timebase>
							<ntsc>TRUE</ntsc>
						</rate>
						<duration>66</duration>
						<start>16030</start>
						<end>16096</end>
						<in>0</in>
						<out>66</out>
					</clipitem>
					<clipitem frameBlend="FALSE" id="clipitem-telop-1882">
						<file id="file-2"/>
						<name>！</name>
						<rate>
							<timebase>59</timebase>
							<ntsc>TRUE</ntsc>
						</rate>
						<rate>
							<timebase>59</timebase>
							<ntsc>TRUE</ntsc>
						</rate>
						<duration>66</duration>
						<start>16096</start>
						<end>16162</end>
						<in>0</in>
						<out>66</out>
					</clipitem>
					<clipitem frameBlend="FALSE" id="clipitem-telop-1892">
						<file id="file-2"/>
						<name>！</name>
						<rate>
							<timebase>59</timebase>
							<ntsc>TRUE</ntsc>
						</rate>
						<rate>
							<timebase>59</timebase>
							<ntsc>TRUE</ntsc>
						</rate>
						<duration>66</duration>
						<start>16162</start>
						<end>16228</end>
						<in>0</in>
						<out>66</out>
					</clipitem>
					<clipitem frameBlend="FALSE" id="clipitem-telop-1899">
						<file id="file-2"/>
						<name>！</name>
						<rate>
							<timebase>59</timebase>
							<ntsc>TRUE</ntsc>
						</rate>
						<rate>
							<timebase>59</timebase>
							<ntsc>TRUE</ntsc>
						</rate>
						<duration>60</duration>
						<start>16234</start>
						<end>16294</end>
						<in>0</in>
						<out>60</out>
					</clipitem>
					<clipitem frameBlend="FALSE" id="clipitem-telop-1908">
						<file id="file-2"/>
						<name>！</name>
						<rate>
							<timebase>59</timebase>
							<ntsc>TRUE</ntsc>
						</rate>
						<rate>
							<timebase>59</timebase>
							<ntsc>TRUE</ntsc>
						</rate>
						<duration>60</duration>
						<start>16294</start>
						<end>16354</end>
						<in>0</in>
						<out>60</out>
					</clipitem>
					<clipitem frameBlend="FALSE" id="clipitem-telop-1919">
						<file id="file-2"/>
						<name>！</name>
						<rate>
							<timebase>59</timebase>
							<ntsc>TRUE</ntsc>
						</rate>
						<rate>
							<timebase>59</timebase>
							<ntsc>TRUE</ntsc>
						</rate>
						<duration>60</duration>
						<start>16383</start>
						<end>16443</end>
						<in>0</in>
						<out>60</out>
					</clipitem>
					<clipitem frameBlend="FALSE" id="clipitem-telop-1930">
						<file id="file-2"/>
						<name>！</name>
						<rate>
							<timebase>59</timebase>
							<ntsc>TRUE</ntsc>
						</rate>
						<rate>
							<timebase>59</timebase>
							<ntsc>TRUE</ntsc>
						</rate>
						<duration>60</duration>
						<start>16455</start>
						<end>16515</end>
						<in>0</in>
						<out>60</out>
					</clipitem>
					<clipitem frameBlend="FALSE" id="clipitem-telop-1937">
						<file id="file-2"/>
						<name>！</name>
						<rate>
							<timebase>59</timebase>
							<ntsc>TRUE</ntsc>
						</rate>
						<rate>
							<timebase>59</timebase>
							<ntsc>TRUE</ntsc>
						</rate>
						<duration>66</duration>
						<start>16515</start>
						<end>16581</end>
						<in>0</in>
						<out>66</out>
					</clipitem>
					<clipitem frameBlend="FALSE" id="clipitem-telop-1945">
						<file id="file-2"/>
						<name>！</name>
						<rate>
							<timebase>59</timebase>
							<ntsc>TRUE</ntsc>
						</rate>
						<rate>
							<timebase>59</timebase>
							<ntsc>TRUE</ntsc>
						</rate>
						<duration>66</duration>
						<start>16587</start>
						<end>16653</end>
						<in>0</in>
						<out>66</out>
					</clipitem>
					<clipitem frameBlend="FALSE" id="clipitem-telop-1955">
						<file id="file-2"/>
						<name>！</name>
						<rate>
							<timebase>59</timebase>
							<ntsc>TRUE</ntsc>
						</rate>
						<rate>
							<timebase>59</timebase>
							<ntsc>TRUE</ntsc>
						</rate>
						<duration>60</duration>
						<start>16695</start>
						<end>16755</end>
						<in>0</in>
						<out>60</out>
					</clipitem>
					<clipitem frameBlend="FALSE" id="clipitem-telop-1965">
						<file id="file-2"/>
						<name>！</name>
						<rate>
							<timebase>59</timebase>
							<ntsc>TRUE</ntsc>
						</rate>
						<rate>
							<timebase>59</timebase>
							<ntsc>TRUE</ntsc>
						</rate>
						<duration>60</duration>
						<start>16755</start>
						<end>16815</end>
						<in>0</in>
						<out>60</out>
					</clipitem>
					<clipitem frameBlend="FALSE" id="clipitem-telop-1975">
						<file id="file-2"/>
						<name>！</name>
						<rate>
							<timebase>59</timebase>
							<ntsc>TRUE</ntsc>
						</rate>
						<rate>
							<timebase>59</timebase>
							<ntsc>TRUE</ntsc>
						</rate>
						<duration>60</duration>
						<start>16827</start>
						<end>16887</end>
						<in>0</in>
						<out>60</out>
					</clipitem>
					<clipitem frameBlend="FALSE" id="clipitem-telop-1985">
						<file id="file-2"/>
						<name>w</name>
						<rate>
							<timebase>59</timebase>
							<ntsc>TRUE</ntsc>
						</rate>
						<rate>
							<timebase>59</timebase>
							<ntsc>TRUE</ntsc>
						</rate>
						<duration>30</duration>
						<start>16935</start>
						<end>16965</end>
						<in>0</in>
						<out>30</out>
					</clipitem>
					<clipitem frameBlend="FALSE" id="clipitem-telop-1992">
						<file id="file-2"/>
						<name>！</name>
						<rate>
							<timebase>59</timebase>
							<ntsc>TRUE</ntsc>
						</rate>
						<rate>
							<timebase>59</timebase>
							<ntsc>TRUE</ntsc>
						</rate>
						<duration>60</duration>
						<start>17043</start>
						<end>17103</end>
						<in>0</in>
						<out>60</out>
					</clipitem>
					<clipitem frameBlend="FALSE" id="clipitem-telop-2000">
						<file id="file-2"/>
						<name>！</name>
						<rate>
							<timebase>59</timebase>
							<ntsc>TRUE</ntsc>
						</rate>
						<rate>
							<timebase>59</timebase>
							<ntsc>TRUE</ntsc>
						</rate>
						<duration>60</duration>
						<start>17109</start>
						<end>17169</end>
						<in>0</in>
						<out>60</out>
					</clipitem>
					<clipitem frameBlend="FALSE" id="clipitem-telop-2010">
						<file id="file-2"/>
						<name>！</name>
						<rate>
							<timebase>59</timebase>
							<ntsc>TRUE</ntsc>
						</rate>
						<rate>
							<timebase>59</timebase>
							<ntsc>TRUE</ntsc>
						</rate>
						<duration>60</duration>
						<start>17169</start>
						<end>17229</end>
						<in>0</in>
						<out>60</out>
					</clipitem>
					<clipitem frameBlend="FALSE" id="clipitem-telop-2019">
						<file id="file-2"/>
						<name>！</name>
						<rate>
							<timebase>59</timebase>
							<ntsc>TRUE</ntsc>
						</rate>
						<rate>
							<timebase>59</timebase>
							<ntsc>TRUE</ntsc>
						</rate>
						<duration>60</duration>
						<start>17259</start>
						<end>17319</end>
						<in>0</in>
						<out>60</out>
					</clipitem>
					<clipitem frameBlend="FALSE" id="clipitem-telop-2033">
						<file id="file-2"/>
						<name>！</name>
						<rate>
							<timebase>59</timebase>
							<ntsc>TRUE</ntsc>
						</rate>
						<rate>
							<timebase>59</timebase>
							<ntsc>TRUE</ntsc>
						</rate>
						<duration>60</duration>
						<start>17397</start>
						<end>17457</end>
						<in>0</in>
						<out>60</out>
					</clipitem>
					<clipitem frameBlend="FALSE" id="clipitem-telop-2040">
						<file id="file-2"/>
						<name>！</name>
						<rate>
							<timebase>59</timebase>
							<ntsc>TRUE</ntsc>
						</rate>
						<rate>
							<timebase>59</timebase>
							<ntsc>TRUE</ntsc>
						</rate>
						<duration>66</duration>
						<start>17463</start>
						<end>17529</end>
						<in>0</in>
						<out>66</out>
					</clipitem>
					<clipitem frameBlend="FALSE" id="clipitem-telop-2047">
						<file id="file-2"/>
						<name>！</name>
						<rate>
							<timebase>59</timebase>
							<ntsc>TRUE</ntsc>
						</rate>
						<rate>
							<timebase>59</timebase>
							<ntsc>TRUE</ntsc>
						</rate>
						<duration>66</duration>
						<start>17541</start>
						<end>17607</end>
						<in>0</in>
						<out>66</out>
					</clipitem>
					<clipitem frameBlend="FALSE" id="clipitem-telop-2054">
						<file id="file-2"/>
						<name>！</name>
						<rate>
							<timebase>59</timebase>
							<ntsc>TRUE</ntsc>
						</rate>
						<rate>
							<timebase>59</timebase>
							<ntsc>TRUE</ntsc>
						</rate>
						<duration>60</duration>
						<start>17607</start>
						<end>17667</end>
						<in>0</in>
						<out>60</out>
					</clipitem>
					<clipitem frameBlend="FALSE" id="clipitem-telop-2065">
						<file id="file-2"/>
						<name>！</name>
						<rate>
							<timebase>59</timebase>
							<ntsc>TRUE</ntsc>
						</rate>
						<rate>
							<timebase>59</timebase>
							<ntsc>TRUE</ntsc>
						</rate>
						<duration>60</duration>
						<start>17745</start>
						<end>17805</end>
						<in>0</in>
						<out>60</out>
					</clipitem>
					<clipitem frameBlend="FALSE" id="clipitem-telop-2080">
						<file id="file-2"/>
						<name>！</name>
						<rate>
							<timebase>59</timebase>
							<ntsc>TRUE</ntsc>
						</rate>
						<rate>
							<timebase>59</timebase>
							<ntsc>TRUE</ntsc>
						</rate>
						<duration>66</duration>
						<start>17889</start>
						<end>17955</end>
						<in>0</in>
						<out>66</out>
					</clipitem>
					<clipitem frameBlend="FALSE" id="clipitem-telop-2090">
						<file id="file-2"/>
						<name>！</name>
						<rate>
							<timebase>59</timebase>
							<ntsc>TRUE</ntsc>
						</rate>
						<rate>
							<timebase>59</timebase>
							<ntsc>TRUE</ntsc>
						</rate>
						<duration>60</duration>
						<start>17955</start>
						<end>18015</end>
						<in>0</in>
						<out>60</out>
					</clipitem>
					<clipitem frameBlend="FALSE" id="clipitem-telop-2099">
						<file id="file-2"/>
						<name>！</name>
						<rate>
							<timebase>59</timebase>
							<ntsc>TRUE</ntsc>
						</rate>
						<rate>
							<timebase>59</timebase>
							<ntsc>TRUE</ntsc>
						</rate>
						<duration>60</duration>
						<start>18039</start>
						<end>18099</end>
						<in>0</in>
						<out>60</out>
					</clipitem>
					<clipitem frameBlend="FALSE" id="clipitem-telop-2108">
						<file id="file-2"/>
						<name>！</name>
						<rate>
							<timebase>59</timebase>
							<ntsc>TRUE</ntsc>
						</rate>
						<rate>
							<timebase>59</timebase>
							<ntsc>TRUE</ntsc>
						</rate>
						<duration>66</duration>
						<start>18099</start>
						<end>18165</end>
						<in>0</in>
						<out>66</out>
					</clipitem>
					<clipitem frameBlend="FALSE" id="clipitem-telop-2117">
						<file id="file-2"/>
						<name>！</name>
						<rate>
							<timebase>59</timebase>
							<ntsc>TRUE</ntsc>
						</rate>
						<rate>
							<timebase>59</timebase>
							<ntsc>TRUE</ntsc>
						</rate>
						<duration>60</duration>
						<start>18189</start>
						<end>18249</end>
						<in>0</in>
						<out>60</out>
					</clipitem>
					<clipitem frameBlend="FALSE" id="clipitem-telop-2133">
						<file id="file-2"/>
						<name>！</name>
						<rate>
							<timebase>59</timebase>
							<ntsc>TRUE</ntsc>
						</rate>
						<rate>
							<timebase>59</timebase>
							<ntsc>TRUE</ntsc>
						</rate>
						<duration>60</duration>
						<start>18369</start>
						<end>18429</end>
						<in>0</in>
						<out>60</out>
					</clipitem>
					<clipitem frameBlend="FALSE" id="clipitem-telop-2140">
						<file id="file-2"/>
						<name>！</name>
						<rate>
							<timebase>59</timebase>
							<ntsc>TRUE</ntsc>
						</rate>
						<rate>
							<timebase>59</timebase>
							<ntsc>TRUE</ntsc>
						</rate>
						<duration>60</duration>
						<start>18453</start>
						<end>18513</end>
						<in>0</in>
						<out>60</out>
					</clipitem>
					<clipitem frameBlend="FALSE" id="clipitem-telop-2146">
						<file id="file-2"/>
						<name>！</name>
						<rate>
							<timebase>59</timebase>
							<ntsc>TRUE</ntsc>
						</rate>
						<rate>
							<timebase>59</timebase>
							<ntsc>TRUE</ntsc>
						</rate>
						<duration>66</duration>
						<start>18513</start>
						<end>18579</end>
						<in>0</in>
						<out>66</out>
					</clipitem>
					<clipitem frameBlend="FALSE" id="clipitem-telop-2153">
						<file id="file-2"/>
						<name>！</name>
						<rate>
							<timebase>59</timebase>
							<ntsc>TRUE</ntsc>
						</rate>
						<rate>
							<timebase>59</timebase>
							<ntsc>TRUE</ntsc>
						</rate>
						<duration>66</duration>
						<start>18579</start>
						<end>18645</end>
						<in>0</in>
						<out>66</out>
					</clipitem>
					<clipitem frameBlend="FALSE" id="clipitem-telop-2170">
						<file id="file-2"/>
						<name>！</name>
						<rate>
							<timebase>59</timebase>
							<ntsc>TRUE</ntsc>
						</rate>
						<rate>
							<timebase>59</timebase>
							<ntsc>TRUE</ntsc>
						</rate>
						<duration>66</duration>
						<start>18771</start>
						<end>18837</end>
						<in>0</in>
						<out>66</out>
					</clipitem>
					<clipitem frameBlend="FALSE" id="clipitem-telop-2189">
						<file id="file-2"/>
						<name>！</name>
						<rate>
							<timebase>59</timebase>
							<ntsc>TRUE</ntsc>
						</rate>
						<rate>
							<timebase>59</timebase>
							<ntsc>TRUE</ntsc>
						</rate>
						<duration>60</duration>
						<start>19023</start>
						<end>19083</end>
						<in>0</in>
						<out>60</out>
					</clipitem>
					<clipitem frameBlend="FALSE" id="clipitem-telop-2202">
						<file id="file-2"/>
						<name>！</name>
						<rate>
							<timebase>59</timebase>
							<ntsc>TRUE</ntsc>
						</rate>
						<rate>
							<timebase>59</timebase>
							<ntsc>TRUE</ntsc>
						</rate>
						<duration>60</duration>
						<start>19095</start>
						<end>19155</end>
						<in>0</in>
						<out>60</out>
					</clipitem>
					<clipitem frameBlend="FALSE" id="clipitem-telop-2210">
						<file id="file-2"/>
						<name>！</name>
						<rate>
							<timebase>59</timebase>
							<ntsc>TRUE</ntsc>
						</rate>
						<rate>
							<timebase>59</timebase>
							<ntsc>TRUE</ntsc>
						</rate>
						<duration>60</duration>
						<start>19191</start>
						<end>19251</end>
						<in>0</in>
						<out>60</out>
					</clipitem>
					<clipitem frameBlend="FALSE" id="clipitem-telop-2216">
						<file id="file-2"/>
						<name>！</name>
						<rate>
							<timebase>59</timebase>
							<ntsc>TRUE</ntsc>
						</rate>
						<rate>
							<timebase>59</timebase>
							<ntsc>TRUE</ntsc>
						</rate>
						<duration>60</duration>
						<start>19293</start>
						<end>19353</end>
						<in>0</in>
						<out>60</out>
					</clipitem>
					<clipitem frameBlend="FALSE" id="clipitem-telop-2229">
						<file id="file-2"/>
						<name>！</name>
						<rate>
							<timebase>59</timebase>
							<ntsc>TRUE</ntsc>
						</rate>
						<rate>
							<timebase>59</timebase>
							<ntsc>TRUE</ntsc>
						</rate>
						<duration>60</duration>
						<start>19359</start>
						<end>19419</end>
						<in>0</in>
						<out>60</out>
					</clipitem>
					<clipitem frameBlend="FALSE" id="clipitem-telop-2240">
						<file id="file-2"/>
						<name>！</name>
						<rate>
							<timebase>59</timebase>
							<ntsc>TRUE</ntsc>
						</rate>
						<rate>
							<timebase>59</timebase>
							<ntsc>TRUE</ntsc>
						</rate>
						<duration>66</duration>
						<start>19449</start>
						<end>19515</end>
						<in>0</in>
						<out>66</out>
					</clipitem>
					<clipitem frameBlend="FALSE" id="clipitem-telop-2249">
						<file id="file-2"/>
						<name>！</name>
						<rate>
							<timebase>59</timebase>
							<ntsc>TRUE</ntsc>
						</rate>
						<rate>
							<timebase>59</timebase>
							<ntsc>TRUE</ntsc>
						</rate>
						<duration>66</duration>
						<start>19521</start>
						<end>19587</end>
						<in>0</in>
						<out>66</out>
					</clipitem>
					<clipitem frameBlend="FALSE" id="clipitem-telop-2256">
						<file id="file-2"/>
						<name>w</name>
						<rate>
							<timebase>59</timebase>
							<ntsc>TRUE</ntsc>
						</rate>
						<rate>
							<timebase>59</timebase>
							<ntsc>TRUE</ntsc>
						</rate>
						<duration>30</duration>
						<start>19611</start>
						<end>19641</end>
						<in>0</in>
						<out>30</out>
					</clipitem>
					<clipitem frameBlend="FALSE" id="clipitem-telop-2265">
						<file id="file-2"/>
						<name>！</name>
						<rate>
							<timebase>59</timebase>
							<ntsc>TRUE</ntsc>
						</rate>
						<rate>
							<timebase>59</timebase>
							<ntsc>TRUE</ntsc>
						</rate>
						<duration>60</duration>
						<start>19647</start>
						<end>19707</end>
						<in>0</in>
						<out>60</out>
					</clipitem>
					<clipitem frameBlend="FALSE" id="clipitem-telop-2275">
						<file id="file-2"/>
						<name>！</name>
						<rate>
							<timebase>59</timebase>
							<ntsc>TRUE</ntsc>
						</rate>
						<rate>
							<timebase>59</timebase>
							<ntsc>TRUE</ntsc>
						</rate>
						<duration>60</duration>
						<start>19725</start>
						<end>19785</end>
						<in>0</in>
						<out>60</out>
					</clipitem>
					<clipitem frameBlend="FALSE" id="clipitem-telop-2282">
						<file id="file-2"/>
						<name>！</name>
						<rate>
							<timebase>59</timebase>
							<ntsc>TRUE</ntsc>
						</rate>
						<rate>
							<timebase>59</timebase>
							<ntsc>TRUE</ntsc>
						</rate>
						<duration>60</duration>
						<start>19803</start>
						<end>19863</end>
						<in>0</in>
						<out>60</out>
					</clipitem>
					<clipitem frameBlend="FALSE" id="clipitem-telop-2293">
						<file id="file-2"/>
						<name>！</name>
						<rate>
							<timebase>59</timebase>
							<ntsc>TRUE</ntsc>
						</rate>
						<rate>
							<timebase>59</timebase>
							<ntsc>TRUE</ntsc>
						</rate>
						<duration>60</duration>
						<start>19869</start>
						<end>19929</end>
						<in>0</in>
						<out>60</out>
					</clipitem>
					<clipitem frameBlend="FALSE" id="clipitem-telop-2301">
						<file id="file-2"/>
						<name>！</name>
						<rate>
							<timebase>59</timebase>
							<ntsc>TRUE</ntsc>
						</rate>
						<rate>
							<timebase>59</timebase>
							<ntsc>TRUE</ntsc>
						</rate>
						<duration>60</duration>
						<start>19947</start>
						<end>20007</end>
						<in>0</in>
						<out>60</out>
					</clipitem>
					<clipitem frameBlend="FALSE" id="clipitem-telop-2313">
						<file id="file-2"/>
						<name>！</name>
						<rate>
							<timebase>59</timebase>
							<ntsc>TRUE</ntsc>
						</rate>
						<rate>
							<timebase>59</timebase>
							<ntsc>TRUE</ntsc>
						</rate>
						<duration>60</duration>
						<start>20049</start>
						<end>20109</end>
						<in>0</in>
						<out>60</out>
					</clipitem>
					<clipitem frameBlend="FALSE" id="clipitem-telop-2323">
						<file id="file-2"/>
						<name>！</name>
						<rate>
							<timebase>59</timebase>
							<ntsc>TRUE</ntsc>
						</rate>
						<rate>
							<timebase>59</timebase>
							<ntsc>TRUE</ntsc>
						</rate>
						<duration>60</duration>
						<start>20145</start>
						<end>20205</end>
						<in>0</in>
						<out>60</out>
					</clipitem>
					<clipitem frameBlend="FALSE" id="clipitem-telop-2331">
						<file id="file-2"/>
						<name>！</name>
						<rate>
							<timebase>59</timebase>
							<ntsc>TRUE</ntsc>
						</rate>
						<rate>
							<timebase>59</timebase>
							<ntsc>TRUE</ntsc>
						</rate>
						<duration>60</duration>
						<start>20211</start>
						<end>20271</end>
						<in>0</in>
						<out>60</out>
					</clipitem>
					<clipitem frameBlend="FALSE" id="clipitem-telop-2344">
						<file id="file-2"/>
						<name>！</name>
						<rate>
							<timebase>59</timebase>
							<ntsc>TRUE</ntsc>
						</rate>
						<rate>
							<timebase>59</timebase>
							<ntsc>TRUE</ntsc>
						</rate>
						<duration>60</duration>
						<start>20289</start>
						<end>20349</end>
						<in>0</in>
						<out>60</out>
					</clipitem>
					<clipitem frameBlend="FALSE" id="clipitem-telop-2351">
						<file id="file-2"/>
						<name>！</name>
						<rate>
							<timebase>59</timebase>
							<ntsc>TRUE</ntsc>
						</rate>
						<rate>
							<timebase>59</timebase>
							<ntsc>TRUE</ntsc>
						</rate>
						<duration>60</duration>
						<start>20355</start>
						<end>20415</end>
						<in>0</in>
						<out>60</out>
					</clipitem>
					<clipitem frameBlend="FALSE" id="clipitem-telop-2364">
						<file id="file-2"/>
						<name>！</name>
						<rate>
							<timebase>59</timebase>
							<ntsc>TRUE</ntsc>
						</rate>
						<rate>
							<timebase>59</timebase>
							<ntsc>TRUE</ntsc>
						</rate>
						<duration>60</duration>
						<start>20427</start>
						<end>20487</end>
						<in>0</in>
						<out>60</out>
					</clipitem>
					<clipitem frameBlend="FALSE" id="clipitem-telop-2373">
						<file id="file-2"/>
						<name>！</name>
						<rate>
							<timebase>59</timebase>
							<ntsc>TRUE</ntsc>
						</rate>
						<rate>
							<timebase>59</timebase>
							<ntsc>TRUE</ntsc>
						</rate>
						<duration>60</duration>
						<start>20499</start>
						<end>20559</end>
						<in>0</in>
						<out>60</out>
					</clipitem>
					<clipitem frameBlend="FALSE" id="clipitem-telop-2385">
						<file id="file-2"/>
						<name>！</name>
						<rate>
							<timebase>59</timebase>
							<ntsc>TRUE</ntsc>
						</rate>
						<rate>
							<timebase>59</timebase>
							<ntsc>TRUE</ntsc>
						</rate>
						<duration>60</duration>
						<start>20619</start>
						<end>20679</end>
						<in>0</in>
						<out>60</out>
					</clipitem>
					<clipitem frameBlend="FALSE" id="clipitem-telop-2391">
						<file id="file-2"/>
						<name>！</name>
						<rate>
							<timebase>59</timebase>
							<ntsc>TRUE</ntsc>
						</rate>
						<rate>
							<timebase>59</timebase>
							<ntsc>TRUE</ntsc>
						</rate>
						<duration>60</duration>
						<start>20697</start>
						<end>20757</end>
						<in>0</in>
						<out>60</out>
					</clipitem>
					<clipitem frameBlend="FALSE" id="clipitem-telop-2398">
						<file id="file-2"/>
						<name>！</name>
						<rate>
							<timebase>59</timebase>
							<ntsc>TRUE</ntsc>
						</rate>
						<rate>
							<timebase>59</timebase>
							<ntsc>TRUE</ntsc>
						</rate>
						<duration>60</duration>
						<start>20769</start>
						<end>20829</end>
						<in>0</in>
						<out>60</out>
					</clipitem>
					<clipitem frameBlend="FALSE" id="clipitem-telop-2406">
						<file id="file-2"/>
						<name>！</name>
						<rate>
							<timebase>59</timebase>
							<ntsc>TRUE</ntsc>
						</rate>
						<rate>
							<timebase>59</timebase>
							<ntsc>TRUE</ntsc>
						</rate>
						<duration>60</duration>
						<start>20829</start>
						<end>20889</end>
						<in>0</in>
						<out>60</out>
					</clipitem>
					<clipitem frameBlend="FALSE" id="clipitem-telop-2416">
						<file id="file-2"/>
						<name>！</name>
						<rate>
							<timebase>59</timebase>
							<ntsc>TRUE</ntsc>
						</rate>
						<rate>
							<timebase>59</timebase>
							<ntsc>TRUE</ntsc>
						</rate>
						<duration>60</duration>
						<start>20931</start>
						<end>20991</end>
						<in>0</in>
						<out>60</out>
					</clipitem>
					<clipitem frameBlend="FALSE" id="clipitem-telop-2426">
						<file id="file-2"/>
						<name>！</name>
						<rate>
							<timebase>59</timebase>
							<ntsc>TRUE</ntsc>
						</rate>
						<rate>
							<timebase>59</timebase>
							<ntsc>TRUE</ntsc>
						</rate>
						<duration>60</duration>
						<start>20997</start>
						<end>21057</end>
						<in>0</in>
						<out>60</out>
					</clipitem>
					<clipitem frameBlend="FALSE" id="clipitem-telop-2436">
						<file id="file-2"/>
						<name>！</name>
						<rate>
							<timebase>59</timebase>
							<ntsc>TRUE</ntsc>
						</rate>
						<rate>
							<timebase>59</timebase>
							<ntsc>TRUE</ntsc>
						</rate>
						<duration>60</duration>
						<start>21057</start>
						<end>21117</end>
						<in>0</in>
						<out>60</out>
					</clipitem>
					<clipitem frameBlend="FALSE" id="clipitem-telop-2451">
						<file id="file-2"/>
						<name>w</name>
						<rate>
							<timebase>59</timebase>
							<ntsc>TRUE</ntsc>
						</rate>
						<rate>
							<timebase>59</timebase>
							<ntsc>TRUE</ntsc>
						</rate>
						<duration>24</duration>
						<start>21117</start>
						<end>21141</end>
						<in>0</in>
						<out>24</out>
					</clipitem>
					<clipitem frameBlend="FALSE" id="clipitem-telop-2462">
						<file id="file-2"/>
						<name>！</name>
						<rate>
							<timebase>59</timebase>
							<ntsc>TRUE</ntsc>
						</rate>
						<rate>
							<timebase>59</timebase>
							<ntsc>TRUE</ntsc>
						</rate>
						<duration>60</duration>
						<start>21201</start>
						<end>21261</end>
						<in>0</in>
						<out>60</out>
					</clipitem>
					<clipitem frameBlend="FALSE" id="clipitem-telop-2480">
						<file id="file-2"/>
						<name>！</name>
						<rate>
							<timebase>59</timebase>
							<ntsc>TRUE</ntsc>
						</rate>
						<rate>
							<timebase>59</timebase>
							<ntsc>TRUE</ntsc>
						</rate>
						<duration>60</duration>
						<start>21303</start>
						<end>21363</end>
						<in>0</in>
						<out>60</out>
					</clipitem>
					<clipitem frameBlend="FALSE" id="clipitem-telop-2493">
						<file id="file-2"/>
						<name>！</name>
						<rate>
							<timebase>59</timebase>
							<ntsc>TRUE</ntsc>
						</rate>
						<rate>
							<timebase>59</timebase>
							<ntsc>TRUE</ntsc>
						</rate>
						<duration>60</duration>
						<start>21363</start>
						<end>21423</end>
						<in>0</in>
						<out>60</out>
					</clipitem>
					<clipitem frameBlend="FALSE" id="clipitem-telop-2503">
						<file id="file-2"/>
						<name>！</name>
						<rate>
							<timebase>59</timebase>
							<ntsc>TRUE</ntsc>
						</rate>
						<rate>
							<timebase>59</timebase>
							<ntsc>TRUE</ntsc>
						</rate>
						<duration>60</duration>
						<start>21429</start>
						<end>21489</end>
						<in>0</in>
						<out>60</out>
					</clipitem>
					<clipitem frameBlend="FALSE" id="clipitem-telop-2512">
						<file id="file-2"/>
						<name>！</name>
						<rate>
							<timebase>59</timebase>
							<ntsc>TRUE</ntsc>
						</rate>
						<rate>
							<timebase>59</timebase>
							<ntsc>TRUE</ntsc>
						</rate>
						<duration>60</duration>
						<start>21489</start>
						<end>21549</end>
						<in>0</in>
						<out>60</out>
					</clipitem>
					<clipitem frameBlend="FALSE" id="clipitem-telop-2521">
						<file id="file-2"/>
						<name>！</name>
						<rate>
							<timebase>59</timebase>
							<ntsc>TRUE</ntsc>
						</rate>
						<rate>
							<timebase>59</timebase>
							<ntsc>TRUE</ntsc>
						</rate>
						<duration>60</duration>
						<start>21549</start>
						<end>21609</end>
						<in>0</in>
						<out>60</out>
					</clipitem>
					<clipitem frameBlend="FALSE" id="clipitem-telop-2533">
						<file id="file-2"/>
						<name>！</name>
						<rate>
							<timebase>59</timebase>
							<ntsc>TRUE</ntsc>
						</rate>
						<rate>
							<timebase>59</timebase>
							<ntsc>TRUE</ntsc>
						</rate>
						<duration>60</duration>
						<start>21651</start>
						<end>21711</end>
						<in>0</in>
						<out>60</out>
					</clipitem>
					<clipitem frameBlend="FALSE" id="clipitem-telop-2545">
						<file id="file-2"/>
						<name>！</name>
						<rate>
							<timebase>59</timebase>
							<ntsc>TRUE</ntsc>
						</rate>
						<rate>
							<timebase>59</timebase>
							<ntsc>TRUE</ntsc>
						</rate>
						<duration>60</duration>
						<start>21723</start>
						<end>21783</end>
						<in>0</in>
						<out>60</out>
					</clipitem>
					<clipitem frameBlend="FALSE" id="clipitem-telop-2560">
						<file id="file-2"/>
						<name>！</name>
						<rate>
							<timebase>59</timebase>
							<ntsc>TRUE</ntsc>
						</rate>
						<rate>
							<timebase>59</timebase>
							<ntsc>TRUE</ntsc>
						</rate>
						<duration>60</duration>
						<start>21807</start>
						<end>21867</end>
						<in>0</in>
						<out>60</out>
					</clipitem>
					<clipitem frameBlend="FALSE" id="clipitem-telop-2573">
						<file id="file-2"/>
						<name>！</name>
						<rate>
							<timebase>59</timebase>
							<ntsc>TRUE</ntsc>
						</rate>
						<rate>
							<timebase>59</timebase>
							<ntsc>TRUE</ntsc>
						</rate>
						<duration>60</duration>
						<start>21879</start>
						<end>21939</end>
						<in>0</in>
						<out>60</out>
					</clipitem>
					<clipitem frameBlend="FALSE" id="clipitem-telop-2583">
						<file id="file-2"/>
						<name>！</name>
						<rate>
							<timebase>59</timebase>
							<ntsc>TRUE</ntsc>
						</rate>
						<rate>
							<timebase>59</timebase>
							<ntsc>TRUE</ntsc>
						</rate>
						<duration>60</duration>
						<start>21945</start>
						<end>22005</end>
						<in>0</in>
						<out>60</out>
					</clipitem>
					<clipitem frameBlend="FALSE" id="clipitem-telop-2592">
						<file id="file-2"/>
						<name>！</name>
						<rate>
							<timebase>59</timebase>
							<ntsc>TRUE</ntsc>
						</rate>
						<rate>
							<timebase>59</timebase>
							<ntsc>TRUE</ntsc>
						</rate>
						<duration>60</duration>
						<start>22023</start>
						<end>22083</end>
						<in>0</in>
						<out>60</out>
					</clipitem>
					<clipitem frameBlend="FALSE" id="clipitem-telop-2603">
						<file id="file-2"/>
						<name>！</name>
						<rate>
							<timebase>59</timebase>
							<ntsc>TRUE</ntsc>
						</rate>
						<rate>
							<timebase>59</timebase>
							<ntsc>TRUE</ntsc>
						</rate>
						<duration>60</duration>
						<start>22083</start>
						<end>22143</end>
						<in>0</in>
						<out>60</out>
					</clipitem>
					<clipitem frameBlend="FALSE" id="clipitem-telop-2615">
						<file id="file-2"/>
						<name>！</name>
						<rate>
							<timebase>59</timebase>
							<ntsc>TRUE</ntsc>
						</rate>
						<rate>
							<timebase>59</timebase>
							<ntsc>TRUE</ntsc>
						</rate>
						<duration>60</duration>
						<start>22149</start>
						<end>22209</end>
						<in>0</in>
						<out>60</out>
					</clipitem>
					<clipitem frameBlend="FALSE" id="clipitem-telop-2628">
						<file id="file-2"/>
						<name>w</name>
						<rate>
							<timebase>59</timebase>
							<ntsc>TRUE</ntsc>
						</rate>
						<rate>
							<timebase>59</timebase>
							<ntsc>TRUE</ntsc>
						</rate>
						<duration>30</duration>
						<start>22215</start>
						<end>22245</end>
						<in>0</in>
						<out>30</out>
					</clipitem>
					<clipitem frameBlend="FALSE" id="clipitem-telop-2635">
						<file id="file-2"/>
						<name>！</name>
						<rate>
							<timebase>59</timebase>
							<ntsc>TRUE</ntsc>
						</rate>
						<rate>
							<timebase>59</timebase>
							<ntsc>TRUE</ntsc>
						</rate>
						<duration>60</duration>
						<start>22275</start>
						<end>22335</end>
						<in>0</in>
						<out>60</out>
					</clipitem>
					<clipitem frameBlend="FALSE" id="clipitem-telop-2648">
						<file id="file-2"/>
						<name>！</name>
						<rate>
							<timebase>59</timebase>
							<ntsc>TRUE</ntsc>
						</rate>
						<rate>
							<timebase>59</timebase>
							<ntsc>TRUE</ntsc>
						</rate>
						<duration>60</duration>
						<start>22419</start>
						<end>22479</end>
						<in>0</in>
						<out>60</out>
					</clipitem>
					<clipitem frameBlend="FALSE" id="clipitem-telop-2661">
						<file id="file-2"/>
						<name>！</name>
						<rate>
							<timebase>59</timebase>
							<ntsc>TRUE</ntsc>
						</rate>
						<rate>
							<timebase>59</timebase>
							<ntsc>TRUE</ntsc>
						</rate>
						<duration>60</duration>
						<start>22479</start>
						<end>22539</end>
						<in>0</in>
						<out>60</out>
					</clipitem>
					<clipitem frameBlend="FALSE" id="clipitem-telop-2671">
						<file id="file-2"/>
						<name>！</name>
						<rate>
							<timebase>59</timebase>
							<ntsc>TRUE</ntsc>
						</rate>
						<rate>
							<timebase>59</timebase>
							<ntsc>TRUE</ntsc>
						</rate>
						<duration>66</duration>
						<start>22575</start>
						<end>22641</end>
						<in>0</in>
						<out>66</out>
					</clipitem>
					<clipitem frameBlend="FALSE" id="clipitem-telop-2683">
						<file id="file-2"/>
						<name>！</name>
						<rate>
							<timebase>59</timebase>
							<ntsc>TRUE</ntsc>
						</rate>
						<rate>
							<timebase>59</timebase>
							<ntsc>TRUE</ntsc>
						</rate>
						<duration>60</duration>
						<start>22671</start>
						<end>22731</end>
						<in>0</in>
						<out>60</out>
					</clipitem>
					<clipitem frameBlend="FALSE" id="clipitem-telop-2692">
						<file id="file-2"/>
						<name>！</name>
						<rate>
							<timebase>59</timebase>
							<ntsc>TRUE</ntsc>
						</rate>
						<rate>
							<timebase>59</timebase>
							<ntsc>TRUE</ntsc>
						</rate>
						<duration>60</duration>
						<start>22737</start>
						<end>22797</end>
						<in>0</in>
						<out>60</out>
					</clipitem>
					<clipitem frameBlend="FALSE" id="clipitem-telop-2702">
						<file id="file-2"/>
						<name>！</name>
						<rate>
							<timebase>59</timebase>
							<ntsc>TRUE</ntsc>
						</rate>
						<rate>
							<timebase>59</timebase>
							<ntsc>TRUE</ntsc>
						</rate>
						<duration>60</duration>
						<start>22815</start>
						<end>22875</end>
						<in>0</in>
						<out>60</out>
					</clipitem>
					<clipitem frameBlend="FALSE" id="clipitem-telop-2714">
						<file id="file-2"/>
						<name>！</name>
						<rate>
							<timebase>59</timebase>
							<ntsc>TRUE</ntsc>
						</rate>
						<rate>
							<timebase>59</timebase>
							<ntsc>TRUE</ntsc>
						</rate>
						<duration>66</duration>
						<start>22923</start>
						<end>22989</end>
						<in>0</in>
						<out>66</out>
					</clipitem>
					<clipitem frameBlend="FALSE" id="clipitem-telop-2727">
						<file id="file-2"/>
						<name>！</name>
						<rate>
							<timebase>59</timebase>
							<ntsc>TRUE</ntsc>
						</rate>
						<rate>
							<timebase>59</timebase>
							<ntsc>TRUE</ntsc>
						</rate>
						<duration>60</duration>
						<start>23007</start>
						<end>23067</end>
						<in>0</in>
						<out>60</out>
					</clipitem>
					<clipitem frameBlend="FALSE" id="clipitem-telop-2736">
						<file id="file-2"/>
						<name>！</name>
						<rate>
							<timebase>59</timebase>
							<ntsc>TRUE</ntsc>
						</rate>
						<rate>
							<timebase>59</timebase>
							<ntsc>TRUE</ntsc>
						</rate>
						<duration>60</duration>
						<start>23085</start>
						<end>23145</end>
						<in>0</in>
						<out>60</out>
					</clipitem>
					<clipitem frameBlend="FALSE" id="clipitem-telop-2748">
						<file id="file-2"/>
						<name>！</name>
						<rate>
							<timebase>59</timebase>
							<ntsc>TRUE</ntsc>
						</rate>
						<rate>
							<timebase>59</timebase>
							<ntsc>TRUE</ntsc>
						</rate>
						<duration>60</duration>
						<start>23187</start>
						<end>23247</end>
						<in>0</in>
						<out>60</out>
					</clipitem>
					<clipitem frameBlend="FALSE" id="clipitem-telop-2760">
						<file id="file-2"/>
						<name>！</name>
						<rate>
							<timebase>59</timebase>
							<ntsc>TRUE</ntsc>
						</rate>
						<rate>
							<timebase>59</timebase>
							<ntsc>TRUE</ntsc>
						</rate>
						<duration>60</duration>
						<start>23265</start>
						<end>23325</end>
						<in>0</in>
						<out>60</out>
					</clipitem>
					<clipitem frameBlend="FALSE" id="clipitem-telop-2771">
						<file id="file-2"/>
						<name>！</name>
						<rate>
							<timebase>59</timebase>
							<ntsc>TRUE</ntsc>
						</rate>
						<rate>
							<timebase>59</timebase>
							<ntsc>TRUE</ntsc>
						</rate>
						<duration>60</duration>
						<start>23337</start>
						<end>23397</end>
						<in>0</in>
						<out>60</out>
					</clipitem>
					<clipitem frameBlend="FALSE" id="clipitem-telop-2783">
						<file id="file-2"/>
						<name>！</name>
						<rate>
							<timebase>59</timebase>
							<ntsc>TRUE</ntsc>
						</rate>
						<rate>
							<timebase>59</timebase>
							<ntsc>TRUE</ntsc>
						</rate>
						<duration>60</duration>
						<start>23409</start>
						<end>23469</end>
						<in>0</in>
						<out>60</out>
					</clipitem>
					<clipitem frameBlend="FALSE" id="clipitem-telop-2800">
						<file id="file-2"/>
						<name>！</name>
						<rate>
							<timebase>59</timebase>
							<ntsc>TRUE</ntsc>
						</rate>
						<rate>
							<timebase>59</timebase>
							<ntsc>TRUE</ntsc>
						</rate>
						<duration>66</duration>
						<start>23523</start>
						<end>23589</end>
						<in>0</in>
						<out>66</out>
					</clipitem>
					<clipitem frameBlend="FALSE" id="clipitem-telop-2809">
						<file id="file-2"/>
						<name>強ぇ</name>
						<rate>
							<timebase>59</timebase>
							<ntsc>TRUE</ntsc>
						</rate>
						<rate>
							<timebase>59</timebase>
							<ntsc>TRUE</ntsc>
						</rate>
						<duration>60</duration>
						<start>23631</start>
						<end>23691</end>
						<in>0</in>
						<out>60</out>
					</clipitem>
					<clipitem frameBlend="FALSE" id="clipitem-telop-2824">
						<file id="file-2"/>
						<name>！</name>
						<rate>
							<timebase>59</timebase>
							<ntsc>TRUE</ntsc>
						</rate>
						<rate>
							<timebase>59</timebase>
							<ntsc>TRUE</ntsc>
						</rate>
						<duration>60</duration>
						<start>23733</start>
						<end>23793</end>
						<in>0</in>
						<out>60</out>
					</clipitem>
					<clipitem frameBlend="FALSE" id="clipitem-telop-2836">
						<file id="file-2"/>
						<name>！</name>
						<rate>
							<timebase>59</timebase>
							<ntsc>TRUE</ntsc>
						</rate>
						<rate>
							<timebase>59</timebase>
							<ntsc>TRUE</ntsc>
						</rate>
						<duration>60</duration>
						<start>23799</start>
						<end>23859</end>
						<in>0</in>
						<out>60</out>
					</clipitem>
					<clipitem frameBlend="FALSE" id="clipitem-telop-2849">
						<file id="file-2"/>
						<name>w</name>
						<rate>
							<timebase>59</timebase>
							<ntsc>TRUE</ntsc>
						</rate>
						<rate>
							<timebase>59</timebase>
							<ntsc>TRUE</ntsc>
						</rate>
						<duration>30</duration>
						<start>23859</start>
						<end>23889</end>
						<in>0</in>
						<out>30</out>
					</clipitem>
					<clipitem frameBlend="FALSE" id="clipitem-telop-2857">
						<file id="file-2"/>
						<name>！</name>
						<rate>
							<timebase>59</timebase>
							<ntsc>TRUE</ntsc>
						</rate>
						<rate>
							<timebase>59</timebase>
							<ntsc>TRUE</ntsc>
						</rate>
						<duration>60</duration>
						<start>23889</start>
						<end>23949</end>
						<in>0</in>
						<out>60</out>
					</clipitem>
					<clipitem frameBlend="FALSE" id="clipitem-telop-2866">
						<file id="file-2"/>
						<name>いいよ</name>
						<rate>
							<timebase>59</timebase>
							<ntsc>TRUE</ntsc>
						</rate>
						<rate>
							<timebase>59</timebase>
							<ntsc>TRUE</ntsc>
						</rate>
						<duration>60</duration>
						<start>23991</start>
						<end>24051</end>
						<in>0</in>
						<out>60</out>
					</clipitem>
					<clipitem frameBlend="FALSE" id="clipitem-telop-2875">
						<file id="file-2"/>
						<name>！</name>
						<rate>
							<timebase>59</timebase>
							<ntsc>TRUE</ntsc>
						</rate>
						<rate>
							<timebase>59</timebase>
							<ntsc>TRUE</ntsc>
						</rate>
						<duration>60</duration>
						<start>24051</start>
						<end>24111</end>
						<in>0</in>
						<out>60</out>
					</clipitem>
					<clipitem frameBlend="FALSE" id="clipitem-telop-2888">
						<file id="file-2"/>
						<name>！</name>
						<rate>
							<timebase>59</timebase>
							<ntsc>TRUE</ntsc>
						</rate>
						<rate>
							<timebase>59</timebase>
							<ntsc>TRUE</ntsc>
						</rate>
						<duration>60</duration>
						<start>24123</start>
						<end>24183</end>
						<in>0</in>
						<out>60</out>
					</clipitem>
					<clipitem frameBlend="FALSE" id="clipitem-telop-2901">
						<file id="file-2"/>
						<name>！</name>
						<rate>
							<timebase>59</timebase>
							<ntsc>TRUE</ntsc>
						</rate>
						<rate>
							<timebase>59</timebase>
							<ntsc>TRUE</ntsc>
						</rate>
						<duration>60</duration>
						<start>24201</start>
						<end>24261</end>
						<in>0</in>
						<out>60</out>
					</clipitem>
					<clipitem frameBlend="FALSE" id="clipitem-telop-2918">
						<file id="file-2"/>
						<name>！</name>
						<rate>
							<timebase>59</timebase>
							<ntsc>TRUE</ntsc>
						</rate>
						<rate>
							<timebase>59</timebase>
							<ntsc>TRUE</ntsc>
						</rate>
						<duration>66</duration>
						<start>24309</start>
						<end>24375</end>
						<in>0</in>
						<out>66</out>
					</clipitem>
					<clipitem frameBlend="FALSE" id="clipitem-telop-2929">
						<file id="file-2"/>
						<name>！</name>
						<rate>
							<timebase>59</timebase>
							<ntsc>TRUE</ntsc>
						</rate>
						<rate>
							<timebase>59</timebase>
							<ntsc>TRUE</ntsc>
						</rate>
						<duration>60</duration>
						<start>24381</start>
						<end>24441</end>
						<in>0</in>
						<out>60</out>
					</clipitem>
					<clipitem frameBlend="FALSE" id="clipitem-telop-2935">
						<file id="file-2"/>
						<name>！</name>
						<rate>
							<timebase>59</timebase>
							<ntsc>TRUE</ntsc>
						</rate>
						<rate>
							<timebase>59</timebase>
							<ntsc>TRUE</ntsc>
						</rate>
						<duration>60</duration>
						<start>24447</start>
						<end>24507</end>
						<in>0</in>
						<out>60</out>
					</clipitem>
					<clipitem frameBlend="FALSE" id="clipitem-telop-2944">
						<file id="file-2"/>
						<name>！</name>
						<rate>
							<timebase>59</timebase>
							<ntsc>TRUE</ntsc>
						</rate>
						<rate>
							<timebase>59</timebase>
							<ntsc>TRUE</ntsc>
						</rate>
						<duration>30</duration>
						<start>24507</start>
						<end>24537</end>
						<in>0</in>
						<out>30</out>
					</clipitem>
				</track>
				<track>
					<clipitem frameBlend="FALSE" id="clipitem-telop-7">
						<file id="file-2"/>
						<name>！</name>
						<rate>
							<timebase>59</timebase>
							<ntsc>TRUE</ntsc>
						</rate>
						<rate>
							<timebase>59</timebase>
							<ntsc>TRUE</ntsc>
						</rate>
						<duration>66</duration>
						<start>47</start>
						<end>113</end>
						<in>0</in>
						<out>66</out>
					</clipitem>
					<clipitem frameBlend="FALSE" id="clipitem-telop-22">
						<file id="file-2"/>
						<name>！</name>
						<rate>
							<timebase>59</timebase>
							<ntsc>TRUE</ntsc>
						</rate>
						<rate>
							<timebase>59</timebase>
							<ntsc>TRUE</ntsc>
						</rate>
						<duration>60</duration>
						<start>179</start>
						<end>239</end>
						<in>0</in>
						<out>60</out>
					</clipitem>
					<clipitem frameBlend="FALSE" id="clipitem-telop-29">
						<file id="file-2"/>
						<name>！</name>
						<rate>
							<timebase>59</timebase>
							<ntsc>TRUE</ntsc>
						</rate>
						<rate>
							<timebase>59</timebase>
							<ntsc>TRUE</ntsc>
						</rate>
						<duration>60</duration>
						<start>257</start>
						<end>317</end>
						<in>0</in>
						<out>60</out>
					</clipitem>
					<clipitem frameBlend="FALSE" id="clipitem-telop-36">
						<file id="file-2"/>
						<name>！</name>
						<rate>
							<timebase>59</timebase>
							<ntsc>TRUE</ntsc>
						</rate>
						<rate>
							<timebase>59</timebase>
							<ntsc>TRUE</ntsc>
						</rate>
						<duration>60</duration>
						<start>329</start>
						<end>389</end>
						<in>0</in>
						<out>60</out>
					</clipitem>
					<clipitem frameBlend="FALSE" id="clipitem-telop-44">
						<file id="file-2"/>
						<name>！</name>
						<rate>
							<timebase>59</timebase>
							<ntsc>TRUE</ntsc>
						</rate>
						<rate>
							<timebase>59</timebase>
							<ntsc>TRUE</ntsc>
						</rate>
						<duration>60</duration>
						<start>395</start>
						<end>455</end>
						<in>0</in>
						<out>60</out>
					</clipitem>
					<clipitem frameBlend="FALSE" id="clipitem-telop-56">
						<file id="file-2"/>
						<name>！</name>
						<rate>
							<timebase>59</timebase>
							<ntsc>TRUE</ntsc>
						</rate>
						<rate>
							<timebase>59</timebase>
							<ntsc>TRUE</ntsc>
						</rate>
						<duration>60</duration>
						<start>515</start>
						<end>575</end>
						<in>0</in>
						<out>60</out>
					</clipitem>
					<clipitem frameBlend="FALSE" id="clipitem-telop-70">
						<file id="file-2"/>
						<name>！</name>
						<rate>
							<timebase>59</timebase>
							<ntsc>TRUE</ntsc>
						</rate>
						<rate>
							<timebase>59</timebase>
							<ntsc>TRUE</ntsc>
						</rate>
						<duration>60</duration>
						<start>611</start>
						<end>671</end>
						<in>0</in>
						<out>60</out>
					</clipitem>
					<clipitem frameBlend="FALSE" id="clipitem-telop-85">
						<file id="file-2"/>
						<name>！</name>
						<rate>
							<timebase>59</timebase>
							<ntsc>TRUE</ntsc>
						</rate>
						<rate>
							<timebase>59</timebase>
							<ntsc>TRUE</ntsc>
						</rate>
						<duration>60</duration>
						<start>755</start>
						<end>815</end>
						<in>0</in>
						<out>60</out>
					</clipitem>
					<clipitem frameBlend="FALSE" id="clipitem-telop-95">
						<file id="file-2"/>
						<name>！</name>
						<rate>
							<timebase>59</timebase>
							<ntsc>TRUE</ntsc>
						</rate>
						<rate>
							<timebase>59</timebase>
							<ntsc>TRUE</ntsc>
						</rate>
						<duration>60</duration>
						<start>815</start>
						<end>875</end>
						<in>0</in>
						<out>60</out>
					</clipitem>
					<clipitem frameBlend="FALSE" id="clipitem-telop-101">
						<file id="file-2"/>
						<name>！</name>
						<rate>
							<timebase>59</timebase>
							<ntsc>TRUE</ntsc>
						</rate>
						<rate>
							<timebase>59</timebase>
							<ntsc>TRUE</ntsc>
						</rate>
						<duration>60</duration>
						<start>899</start>
						<end>959</end>
						<in>0</in>
						<out>60</out>
					</clipitem>
					<clipitem frameBlend="FALSE" id="clipitem-telop-110">
						<file id="file-2"/>
						<name>！</name>
						<rate>
							<timebase>59</timebase>
							<ntsc>TRUE</ntsc>
						</rate>
						<rate>
							<timebase>59</timebase>
							<ntsc>TRUE</ntsc>
						</rate>
						<duration>60</duration>
						<start>977</start>
						<end>1037</end>
						<in>0</in>
						<out>60</out>
					</clipitem>
					<clipitem frameBlend="FALSE" id="clipitem-telop-122">
						<file id="file-2"/>
						<name>！</name>
						<rate>
							<timebase>59</timebase>
							<ntsc>TRUE</ntsc>
						</rate>
						<rate>
							<timebase>59</timebase>
							<ntsc>TRUE</ntsc>
						</rate>
						<duration>60</duration>
						<start>1085</start>
						<end>1145</end>
						<in>0</in>
						<out>60</out>
					</clipitem>
					<clipitem frameBlend="FALSE" id="clipitem-telop-131">
						<file id="file-2"/>
						<name>！</name>
						<rate>
							<timebase>59</timebase>
							<ntsc>TRUE</ntsc>
						</rate>
						<rate>
							<timebase>59</timebase>
							<ntsc>TRUE</ntsc>
						</rate>
						<duration>60</duration>
						<start>1181</start>
						<end>1241</end>
						<in>0</in>
						<out>60</out>
					</clipitem>
					<clipitem frameBlend="FALSE" id="clipitem-telop-140">
						<file id="file-2"/>
						<name>！</name>
						<rate>
							<timebase>59</timebase>
							<ntsc>TRUE</ntsc>
						</rate>
						<rate>
							<timebase>59</timebase>
							<ntsc>TRUE</ntsc>
						</rate>
						<duration>60</duration>
						<start>1259</start>
						<end>1319</end>
						<in>0</in>
						<out>60</out>
					</clipitem>
					<clipitem frameBlend="FALSE" id="clipitem-telop-148">
						<file id="file-2"/>
						<name>！</name>
						<rate>
							<timebase>59</timebase>
							<ntsc>TRUE</ntsc>
						</rate>
						<rate>
							<timebase>59</timebase>
							<ntsc>TRUE</ntsc>
						</rate>
						<duration>60</duration>
						<start>1355</start>
						<end>1415</end>
						<in>0</in>
						<out>60</out>
					</clipitem>
					<clipitem frameBlend="FALSE" id="clipitem-telop-159">
						<file id="file-2"/>
						<name>！</name>
						<rate>
							<timebase>59</timebase>
							<ntsc>TRUE</ntsc>
						</rate>
						<rate>
							<timebase>59</timebase>
							<ntsc>TRUE</ntsc>
						</rate>
						<duration>60</duration>
						<start>1457</start>
						<end>1517</end>
						<in>0</in>
						<out>60</out>
					</clipitem>
					<clipitem frameBlend="FALSE" id="clipitem-telop-174">
						<file id="file-2"/>
						<name>！</name>
						<rate>
							<timebase>59</timebase>
							<ntsc>TRUE</ntsc>
						</rate>
						<rate>
							<timebase>59</timebase>
							<ntsc>TRUE</ntsc>
						</rate>
						<duration>66</duration>
						<start>1571</start>
						<end>1637</end>
						<in>0</in>
						<out>66</out>
					</clipitem>
					<clipitem frameBlend="FALSE" id="clipitem-telop-183">
						<file id="file-2"/>
						<name>！</name>
						<rate>
							<timebase>59</timebase>
							<ntsc>TRUE</ntsc>
						</rate>
						<rate>
							<timebase>59</timebase>
							<ntsc>TRUE</ntsc>
						</rate>
						<duration>60</duration>
						<start>1637</start>
						<end>1697</end>
						<in>0</in>
						<out>60</out>
					</clipitem>
					<clipitem frameBlend="FALSE" id="clipitem-telop-192">
						<file id="file-2"/>
						<name>！</name>
						<rate>
							<timebase>59</timebase>
							<ntsc>TRUE</ntsc>
						</rate>
						<rate>
							<timebase>59</timebase>
							<ntsc>TRUE</ntsc>
						</rate>
						<duration>66</duration>
						<start>1709</start>
						<end>1775</end>
						<in>0</in>
						<out>66</out>
					</clipitem>
					<clipitem frameBlend="FALSE" id="clipitem-telop-201">
						<file id="file-2"/>
						<name>！</name>
						<rate>
							<timebase>59</timebase>
							<ntsc>TRUE</ntsc>
						</rate>
						<rate>
							<timebase>59</timebase>
							<ntsc>TRUE</ntsc>
						</rate>
						<duration>60</duration>
						<start>1781</start>
						<end>1841</end>
						<in>0</in>
						<out>60</out>
					</clipitem>
					<clipitem frameBlend="FALSE" id="clipitem-telop-211">
						<file id="file-2"/>
						<name>！</name>
						<rate>
							<timebase>59</timebase>
							<ntsc>TRUE</ntsc>
						</rate>
						<rate>
							<timebase>59</timebase>
							<ntsc>TRUE</ntsc>
						</rate>
						<duration>60</duration>
						<start>1871</start>
						<end>1931</end>
						<in>0</in>
						<out>60</out>
					</clipitem>
					<clipitem frameBlend="FALSE" id="clipitem-telop-221">
						<file id="file-2"/>
						<name>w</name>
						<rate>
							<timebase>59</timebase>
							<ntsc>TRUE</ntsc>
						</rate>
						<rate>
							<timebase>59</timebase>
							<ntsc>TRUE</ntsc>
						</rate>
						<duration>24</duration>
						<start>1949</start>
						<end>1973</end>
						<in>0</in>
						<out>24</out>
					</clipitem>
					<clipitem frameBlend="FALSE" id="clipitem-telop-226">
						<file id="file-2"/>
						<name>！</name>
						<rate>
							<timebase>59</timebase>
							<ntsc>TRUE</ntsc>
						</rate>
						<rate>
							<timebase>59</timebase>
							<ntsc>TRUE</ntsc>
						</rate>
						<duration>60</duration>
						<start>1985</start>
						<end>2045</end>
						<in>0</in>
						<out>60</out>
					</clipitem>
					<clipitem frameBlend="FALSE" id="clipitem-telop-239">
						<file id="file-2"/>
						<name>！</name>
						<rate>
							<timebase>59</timebase>
							<ntsc>TRUE</ntsc>
						</rate>
						<rate>
							<timebase>59</timebase>
							<ntsc>TRUE</ntsc>
						</rate>
						<duration>60</duration>
						<start>2057</start>
						<end>2117</end>
						<in>0</in>
						<out>60</out>
					</clipitem>
					<clipitem frameBlend="FALSE" id="clipitem-telop-251">
						<file id="file-2"/>
						<name>！</name>
						<rate>
							<timebase>59</timebase>
							<ntsc>TRUE</ntsc>
						</rate>
						<rate>
							<timebase>59</timebase>
							<ntsc>TRUE</ntsc>
						</rate>
						<duration>66</duration>
						<start>2159</start>
						<end>2225</end>
						<in>0</in>
						<out>66</out>
					</clipitem>
					<clipitem frameBlend="FALSE" id="clipitem-telop-262">
						<file id="file-2"/>
						<name>！</name>
						<rate>
							<timebase>59</timebase>
							<ntsc>TRUE</ntsc>
						</rate>
						<rate>
							<timebase>59</timebase>
							<ntsc>TRUE</ntsc>
						</rate>
						<duration>66</duration>
						<start>2243</start>
						<end>2309</end>
						<in>0</in>
						<out>66</out>
					</clipitem>
					<clipitem frameBlend="FALSE" id="clipitem-telop-272">
						<file id="file-2"/>
						<name>！</name>
						<rate>
							<timebase>59</timebase>
							<ntsc>TRUE</ntsc>
						</rate>
						<rate>
							<timebase>59</timebase>
							<ntsc>TRUE</ntsc>
						</rate>
						<duration>66</duration>
						<start>2327</start>
						<end>2393</end>
						<in>0</in>
						<out>66</out>
					</clipitem>
					<clipitem frameBlend="FALSE" id="clipitem-telop-279">
						<file id="file-2"/>
						<name>！</name>
						<rate>
							<timebase>59</timebase>
							<ntsc>TRUE</ntsc>
						</rate>
						<rate>
							<timebase>59</timebase>
							<ntsc>TRUE</ntsc>
						</rate>
						<duration>66</duration>
						<start>2393</start>
						<end>2459</end>
						<in>0</in>
						<out>66</out>
					</clipitem>
					<clipitem frameBlend="FALSE" id="clipitem-telop-285">
						<file id="file-2"/>
						<name>！</name>
						<rate>
							<timebase>59</timebase>
							<ntsc>TRUE</ntsc>
						</rate>
						<rate>
							<timebase>59</timebase>
							<ntsc>TRUE</ntsc>
						</rate>
						<duration>60</duration>
						<start>2489</start>
						<end>2549</end>
						<in>0</in>
						<out>60</out>
					</clipitem>
					<clipitem frameBlend="FALSE" id="clipitem-telop-295">
						<file id="file-2"/>
						<name>！</name>
						<rate>
							<timebase>59</timebase>
							<ntsc>TRUE</ntsc>
						</rate>
						<rate>
							<timebase>59</timebase>
							<ntsc>TRUE</ntsc>
						</rate>
						<duration>60</duration>
						<start>2561</start>
						<end>2621</end>
						<in>0</in>
						<out>60</out>
					</clipitem>
					<clipitem frameBlend="FALSE" id="clipitem-telop-303">
						<file id="file-2"/>
						<name>！</name>
						<rate>
							<timebase>59</timebase>
							<ntsc>TRUE</ntsc>
						</rate>
						<rate>
							<timebase>59</timebase>
							<ntsc>TRUE</ntsc>
						</rate>
						<duration>60</duration>
						<start>2645</start>
						<end>2705</end>
						<in>0</in>
						<out>60</out>
					</clipitem>
					<clipitem frameBlend="FALSE" id="clipitem-telop-311">
						<file id="file-2"/>
						<name>！</name>
						<rate>
							<timebase>59</timebase>
							<ntsc>TRUE</ntsc>
						</rate>
						<rate>
							<timebase>59</timebase>
							<ntsc>TRUE</ntsc>
						</rate>
						<duration>60</duration>
						<start>2711</start>
						<end>2771</end>
						<in>0</in>
						<out>60</out>
					</clipitem>
					<clipitem frameBlend="FALSE" id="clipitem-telop-320">
						<file id="file-2"/>
						<name>！</name>
						<rate>
							<timebase>59</timebase>
							<ntsc>TRUE</ntsc>
						</rate>
						<rate>
							<timebase>59</timebase>
							<ntsc>TRUE</ntsc>
						</rate>
						<duration>60</duration>
						<start>2771</start>
						<end>2831</end>
						<in>0</in>
						<out>60</out>
					</clipitem>
					<clipitem frameBlend="FALSE" id="clipitem-telop-328">
						<file id="file-2"/>
						<name>！</name>
						<rate>
							<timebase>59</timebase>
							<ntsc>TRUE</ntsc>
						</rate>
						<rate>
							<timebase>59</timebase>
							<ntsc>TRUE</ntsc>
						</rate>
						<duration>60</duration>
						<start>2855</start>
						<end>2915</end>
						<in>0</in>
						<out>60</out>
					</clipitem>
					<clipitem frameBlend="FALSE" id="clipitem-telop-338">
						<file id="file-2"/>
						<name>！</name>
						<rate>
							<timebase>59</timebase>
							<ntsc>TRUE</ntsc>
						</rate>
						<rate>
							<timebase>59</timebase>
							<ntsc>TRUE</ntsc>
						</rate>
						<duration>66</duration>
						<start>2975</start>
						<end>3041</end>
						<in>0</in>
						<out>66</out>
					</clipitem>
					<clipitem frameBlend="FALSE" id="clipitem-telop-350">
						<file id="file-2"/>
						<name>！</name>
						<rate>
							<timebase>59</timebase>
							<ntsc>TRUE</ntsc>
						</rate>
						<rate>
							<timebase>59</timebase>
							<ntsc>TRUE</ntsc>
						</rate>
						<duration>60</duration>
						<start>3041</start>
						<end>3101</end>
						<in>0</in>
						<out>60</out>
					</clipitem>
					<clipitem frameBlend="FALSE" id="clipitem-telop-358">
						<file id="file-2"/>
						<name>！</name>
						<rate>
							<timebase>59</timebase>
							<ntsc>TRUE</ntsc>
						</rate>
						<rate>
							<timebase>59</timebase>
							<ntsc>TRUE</ntsc>
						</rate>
						<duration>66</duration>
						<start>3107</start>
						<end>3173</end>
						<in>0</in>
						<out>66</out>
					</clipitem>
					<clipitem frameBlend="FALSE" id="clipitem-telop-367">
						<file id="file-2"/>
						<name>！</name>
						<rate>
							<timebase>59</timebase>
							<ntsc>TRUE</ntsc>
						</rate>
						<rate>
							<timebase>59</timebase>
							<ntsc>TRUE</ntsc>
						</rate>
						<duration>60</duration>
						<start>3227</start>
						<end>3287</end>
						<in>0</in>
						<out>60</out>
					</clipitem>
					<clipitem frameBlend="FALSE" id="clipitem-telop-378">
						<file id="file-2"/>
						<name>！</name>
						<rate>
							<timebase>59</timebase>
							<ntsc>TRUE</ntsc>
						</rate>
						<rate>
							<timebase>59</timebase>
							<ntsc>TRUE</ntsc>
						</rate>
						<duration>60</duration>
						<start>3293</start>
						<end>3353</end>
						<in>0</in>
						<out>60</out>
					</clipitem>
					<clipitem frameBlend="FALSE" id="clipitem-telop-393">
						<file id="file-2"/>
						<name>！</name>
						<rate>
							<timebase>59</timebase>
							<ntsc>TRUE</ntsc>
						</rate>
						<rate>
							<timebase>59</timebase>
							<ntsc>TRUE</ntsc>
						</rate>
						<duration>60</duration>
						<start>3359</start>
						<end>3419</end>
						<in>0</in>
						<out>60</out>
					</clipitem>
					<clipitem frameBlend="FALSE" id="clipitem-telop-405">
						<file id="file-2"/>
						<name>！</name>
						<rate>
							<timebase>59</timebase>
							<ntsc>TRUE</ntsc>
						</rate>
						<rate>
							<timebase>59</timebase>
							<ntsc>TRUE</ntsc>
						</rate>
						<duration>60</duration>
						<start>3437</start>
						<end>3497</end>
						<in>0</in>
						<out>60</out>
					</clipitem>
					<clipitem frameBlend="FALSE" id="clipitem-telop-417">
						<file id="file-2"/>
						<name>！</name>
						<rate>
							<timebase>59</timebase>
							<ntsc>TRUE</ntsc>
						</rate>
						<rate>
							<timebase>59</timebase>
							<ntsc>TRUE</ntsc>
						</rate>
						<duration>60</duration>
						<start>3533</start>
						<end>3593</end>
						<in>0</in>
						<out>60</out>
					</clipitem>
					<clipitem frameBlend="FALSE" id="clipitem-telop-428">
						<file id="file-2"/>
						<name>！</name>
						<rate>
							<timebase>59</timebase>
							<ntsc>TRUE</ntsc>
						</rate>
						<rate>
							<timebase>59</timebase>
							<ntsc>TRUE</ntsc>
						</rate>
						<duration>66</duration>
						<start>3641</start>
						<end>3707</end>
						<in>0</in>
						<out>66</out>
					</clipitem>
					<clipitem frameBlend="FALSE" id="clipitem-telop-435">
						<file id="file-2"/>
						<name>！</name>
						<rate>
							<timebase>59</timebase>
							<ntsc>TRUE</ntsc>
						</rate>
						<rate>
							<timebase>59</timebase>
							<ntsc>TRUE</ntsc>
						</rate>
						<duration>60</duration>
						<start>3731</start>
						<end>3791</end>
						<in>0</in>
						<out>60</out>
					</clipitem>
					<clipitem frameBlend="FALSE" id="clipitem-telop-444">
						<file id="file-2"/>
						<name>w</name>
						<rate>
							<timebase>59</timebase>
							<ntsc>TRUE</ntsc>
						</rate>
						<rate>
							<timebase>59</timebase>
							<ntsc>TRUE</ntsc>
						</rate>
						<duration>30</duration>
						<start>3797</start>
						<end>3827</end>
						<in>0</in>
						<out>30</out>
					</clipitem>
					<clipitem frameBlend="FALSE" id="clipitem-telop-450">
						<file id="file-2"/>
						<name>！</name>
						<rate>
							<timebase>59</timebase>
							<ntsc>TRUE</ntsc>
						</rate>
						<rate>
							<timebase>59</timebase>
							<ntsc>TRUE</ntsc>
						</rate>
						<duration>60</duration>
						<start>3851</start>
						<end>3911</end>
						<in>0</in>
						<out>60</out>
					</clipitem>
					<clipitem frameBlend="FALSE" id="clipitem-telop-461">
						<file id="file-2"/>
						<name>！</name>
						<rate>
							<timebase>59</timebase>
							<ntsc>TRUE</ntsc>
						</rate>
						<rate>
							<timebase>59</timebase>
							<ntsc>TRUE</ntsc>
						</rate>
						<duration>60</duration>
						<start>3917</start>
						<end>3977</end>
						<in>0</in>
						<out>60</out>
					</clipitem>
					<clipitem frameBlend="FALSE" id="clipitem-telop-472">
						<file id="file-2"/>
						<name>！</name>
						<rate>
							<timebase>59</timebase>
							<ntsc>TRUE</ntsc>
						</rate>
						<rate>
							<timebase>59</timebase>
							<ntsc>TRUE</ntsc>
						</rate>
						<duration>60</duration>
						<start>3989</start>
						<end>4049</end>
						<in>0</in>
						<out>60</out>
					</clipitem>
					<clipitem frameBlend="FALSE" id="clipitem-telop-481">
						<file id="file-2"/>
						<name>！</name>
						<rate>
							<timebase>59</timebase>
							<ntsc>TRUE</ntsc>
						</rate>
						<rate>
							<timebase>59</timebase>
							<ntsc>TRUE</ntsc>
						</rate>
						<duration>60</duration>
						<start>4097</start>
						<end>4157</end>
						<in>0</in>
						<out>60</out>
					</clipitem>
					<clipitem frameBlend="FALSE" id="clipitem-telop-489">
						<file id="file-2"/>
						<name>！</name>
						<rate>
							<timebase>59</timebase>
							<ntsc>TRUE</ntsc>
						</rate>
						<rate>
							<timebase>59</timebase>
							<ntsc>TRUE</ntsc>
						</rate>
						<duration>60</duration>
						<start>4187</start>
						<end>4247</end>
						<in>0</in>
						<out>60</out>
					</clipitem>
					<clipitem frameBlend="FALSE" id="clipitem-telop-500">
						<file id="file-2"/>
						<name>！</name>
						<rate>
							<timebase>59</timebase>
							<ntsc>TRUE</ntsc>
						</rate>
						<rate>
							<timebase>59</timebase>
							<ntsc>TRUE</ntsc>
						</rate>
						<duration>60</duration>
						<start>4307</start>
						<end>4367</end>
						<in>0</in>
						<out>60</out>
					</clipitem>
					<clipitem frameBlend="FALSE" id="clipitem-telop-510">
						<file id="file-2"/>
						<name>！</name>
						<rate>
							<timebase>59</timebase>
							<ntsc>TRUE</ntsc>
						</rate>
						<rate>
							<timebase>59</timebase>
							<ntsc>TRUE</ntsc>
						</rate>
						<duration>60</duration>
						<start>4367</start>
						<end>4427</end>
						<in>0</in>
						<out>60</out>
					</clipitem>
					<clipitem frameBlend="FALSE" id="clipitem-telop-518">
						<file id="file-2"/>
						<name>！</name>
						<rate>
							<timebase>59</timebase>
							<ntsc>TRUE</ntsc>
						</rate>
						<rate>
							<timebase>59</timebase>
							<ntsc>TRUE</ntsc>
						</rate>
						<duration>60</duration>
						<start>4433</start>
						<end>4493</end>
						<in>0</in>
						<out>60</out>
					</clipitem>
					<clipitem frameBlend="FALSE" id="clipitem-telop-531">
						<file id="file-2"/>
						<name>！</name>
						<rate>
							<timebase>59</timebase>
							<ntsc>TRUE</ntsc>
						</rate>
						<rate>
							<timebase>59</timebase>
							<ntsc>TRUE</ntsc>
						</rate>
						<duration>60</duration>
						<start>4547</start>
						<end>4607</end>
						<in>0</in>
						<out>60</out>
					</clipitem>
					<clipitem frameBlend="FALSE" id="clipitem-telop-545">
						<file id="file-2"/>
						<name>w</name>
						<rate>
							<timebase>59</timebase>
							<ntsc>TRUE</ntsc>
						</rate>
						<rate>
							<timebase>59</timebase>
							<ntsc>TRUE</ntsc>
						</rate>
						<duration>30</duration>
						<start>4607</start>
						<end>4637</end>
						<in>0</in>
						<out>30</out>
					</clipitem>
					<clipitem frameBlend="FALSE" id="clipitem-telop-549">
						<file id="file-2"/>
						<name>w</name>
						<rate>
							<timebase>59</timebase>
							<ntsc>TRUE</ntsc>
						</rate>
						<rate>
							<timebase>59</timebase>
							<ntsc>TRUE</ntsc>
						</rate>
						<duration>24</duration>
						<start>4637</start>
						<end>4661</end>
						<in>0</in>
						<out>24</out>
					</clipitem>
					<clipitem frameBlend="FALSE" id="clipitem-telop-557">
						<file id="file-2"/>
						<name>！</name>
						<rate>
							<timebase>59</timebase>
							<ntsc>TRUE</ntsc>
						</rate>
						<rate>
							<timebase>59</timebase>
							<ntsc>TRUE</ntsc>
						</rate>
						<duration>60</duration>
						<start>4697</start>
						<end>4757</end>
						<in>0</in>
						<out>60</out>
					</clipitem>
					<clipitem frameBlend="FALSE" id="clipitem-telop-565">
						<file id="file-2"/>
						<name>！</name>
						<rate>
							<timebase>59</timebase>
							<ntsc>TRUE</ntsc>
						</rate>
						<rate>
							<timebase>59</timebase>
							<ntsc>TRUE</ntsc>
						</rate>
						<duration>66</duration>
						<start>4781</start>
						<end>4847</end>
						<in>0</in>
						<out>66</out>
					</clipitem>
					<clipitem frameBlend="FALSE" id="clipitem-telop-578">
						<file id="file-2"/>
						<name>！</name>
						<rate>
							<timebase>59</timebase>
							<ntsc>TRUE</ntsc>
						</rate>
						<rate>
							<timebase>59</timebase>
							<ntsc>TRUE</ntsc>
						</rate>
						<duration>60</duration>
						<start>4847</start>
						<end>4907</end>
						<in>0</in>
						<out>60</out>
					</clipitem>
					<clipitem frameBlend="FALSE" id="clipitem-telop-594">
						<file id="file-2"/>
						<name>！</name>
						<rate>
							<timebase>59</timebase>
							<ntsc>TRUE</ntsc>
						</rate>
						<rate>
							<timebase>59</timebase>
							<ntsc>TRUE</ntsc>
						</rate>
						<duration>60</duration>
						<start>4937</start>
						<end>4997</end>
						<in>0</in>
						<out>60</out>
					</clipitem>
					<clipitem frameBlend="FALSE" id="clipitem-telop-609">
						<file id="file-2"/>
						<name>！</name>
						<rate>
							<timebase>59</timebase>
							<ntsc>TRUE</ntsc>
						</rate>
						<rate>
							<timebase>59</timebase>
							<ntsc>TRUE</ntsc>
						</rate>
						<duration>60</duration>
						<start>5003</start>
						<end>5063</end>
						<in>0</in>
						<out>60</out>
					</clipitem>
					<clipitem frameBlend="FALSE" id="clipitem-telop-622">
						<file id="file-2"/>
						<name>！</name>
						<rate>
							<timebase>59</timebase>
							<ntsc>TRUE</ntsc>
						</rate>
						<rate>
							<timebase>59</timebase>
							<ntsc>TRUE</ntsc>
						</rate>
						<duration>60</duration>
						<start>5093</start>
						<end>5153</end>
						<in>0</in>
						<out>60</out>
					</clipitem>
					<clipitem frameBlend="FALSE" id="clipitem-telop-634">
						<file id="file-2"/>
						<name>！</name>
						<rate>
							<timebase>59</timebase>
							<ntsc>TRUE</ntsc>
						</rate>
						<rate>
							<timebase>59</timebase>
							<ntsc>TRUE</ntsc>
						</rate>
						<duration>60</duration>
						<start>5177</start>
						<end>5237</end>
						<in>0</in>
						<out>60</out>
					</clipitem>
					<clipitem frameBlend="FALSE" id="clipitem-telop-645">
						<file id="file-2"/>
						<name>！</name>
						<rate>
							<timebase>59</timebase>
							<ntsc>TRUE</ntsc>
						</rate>
						<rate>
							<timebase>59</timebase>
							<ntsc>TRUE</ntsc>
						</rate>
						<duration>66</duration>
						<start>5237</start>
						<end>5303</end>
						<in>0</in>
						<out>66</out>
					</clipitem>
					<clipitem frameBlend="FALSE" id="clipitem-telop-653">
						<file id="file-2"/>
						<name>！</name>
						<rate>
							<timebase>59</timebase>
							<ntsc>TRUE</ntsc>
						</rate>
						<rate>
							<timebase>59</timebase>
							<ntsc>TRUE</ntsc>
						</rate>
						<duration>60</duration>
						<start>5315</start>
						<end>5375</end>
						<in>0</in>
						<out>60</out>
					</clipitem>
					<clipitem frameBlend="FALSE" id="clipitem-telop-666">
						<file id="file-2"/>
						<name>！</name>
						<rate>
							<timebase>59</timebase>
							<ntsc>TRUE</ntsc>
						</rate>
						<rate>
							<timebase>59</timebase>
							<ntsc>TRUE</ntsc>
						</rate>
						<duration>66</duration>
						<start>5399</start>
						<end>5465</end>
						<in>0</in>
						<out>66</out>
					</clipitem>
					<clipitem frameBlend="FALSE" id="clipitem-telop-681">
						<file id="file-2"/>
						<name>！</name>
						<rate>
							<timebase>59</timebase>
							<ntsc>TRUE</ntsc>
						</rate>
						<rate>
							<timebase>59</timebase>
							<ntsc>TRUE</ntsc>
						</rate>
						<duration>60</duration>
						<start>5585</start>
						<end>5645</end>
						<in>0</in>
						<out>60</out>
					</clipitem>
					<clipitem frameBlend="FALSE" id="clipitem-telop-689">
						<file id="file-2"/>
						<name>！</name>
						<rate>
							<timebase>59</timebase>
							<ntsc>TRUE</ntsc>
						</rate>
						<rate>
							<timebase>59</timebase>
							<ntsc>TRUE</ntsc>
						</rate>
						<duration>60</duration>
						<start>5663</start>
						<end>5723</end>
						<in>0</in>
						<out>60</out>
					</clipitem>
					<clipitem frameBlend="FALSE" id="clipitem-telop-697">
						<file id="file-2"/>
						<name>！</name>
						<rate>
							<timebase>59</timebase>
							<ntsc>TRUE</ntsc>
						</rate>
						<rate>
							<timebase>59</timebase>
							<ntsc>TRUE</ntsc>
						</rate>
						<duration>60</duration>
						<start>5729</start>
						<end>5789</end>
						<in>0</in>
						<out>60</out>
					</clipitem>
					<clipitem frameBlend="FALSE" id="clipitem-telop-704">
						<file id="file-2"/>
						<name>！</name>
						<rate>
							<timebase>59</timebase>
							<ntsc>TRUE</ntsc>
						</rate>
						<rate>
							<timebase>59</timebase>
							<ntsc>TRUE</ntsc>
						</rate>
						<duration>60</duration>
						<start>5795</start>
						<end>5855</end>
						<in>0</in>
						<out>60</out>
					</clipitem>
					<clipitem frameBlend="FALSE" id="clipitem-telop-719">
						<file id="file-2"/>
						<name>！</name>
						<rate>
							<timebase>59</timebase>
							<ntsc>TRUE</ntsc>
						</rate>
						<rate>
							<timebase>59</timebase>
							<ntsc>TRUE</ntsc>
						</rate>
						<duration>60</duration>
						<start>5963</start>
						<end>6023</end>
						<in>0</in>
						<out>60</out>
					</clipitem>
					<clipitem frameBlend="FALSE" id="clipitem-telop-730">
						<file id="file-2"/>
						<name>！</name>
						<rate>
							<timebase>59</timebase>
							<ntsc>TRUE</ntsc>
						</rate>
						<rate>
							<timebase>59</timebase>
							<ntsc>TRUE</ntsc>
						</rate>
						<duration>60</duration>
						<start>6023</start>
						<end>6083</end>
						<in>0</in>
						<out>60</out>
					</clipitem>
					<clipitem frameBlend="FALSE" id="clipitem-telop-738">
						<file id="file-2"/>
						<name>！</name>
						<rate>
							<timebase>59</timebase>
							<ntsc>TRUE</ntsc>
						</rate>
						<rate>
							<timebase>59</timebase>
							<ntsc>TRUE</ntsc>
						</rate>
						<duration>60</duration>
						<start>6083</start>
						<end>6143</end>
						<in>0</in>
						<out>60</out>
					</clipitem>
					<clipitem frameBlend="FALSE" id="clipitem-telop-755">
						<file id="file-2"/>
						<name>！</name>
						<rate>
							<timebase>59</timebase>
							<ntsc>TRUE</ntsc>
						</rate>
						<rate>
							<timebase>59</timebase>
							<ntsc>TRUE</ntsc>
						</rate>
						<duration>60</duration>
						<start>6257</start>
						<end>6317</end>
						<in>0</in>
						<out>60</out>
					</clipitem>
					<clipitem frameBlend="FALSE" id="clipitem-telop-763">
						<file id="file-2"/>
						<name>！</name>
						<rate>
							<timebase>59</timebase>
							<ntsc>TRUE</ntsc>
						</rate>
						<rate>
							<timebase>59</timebase>
							<ntsc>TRUE</ntsc>
						</rate>
						<duration>60</duration>
						<start>6347</start>
						<end>6407</end>
						<in>0</in>
						<out>60</out>
					</clipitem>
					<clipitem frameBlend="FALSE" id="clipitem-telop-774">
						<file id="file-2"/>
						<name>！</name>
						<rate>
							<timebase>59</timebase>
							<ntsc>TRUE</ntsc>
						</rate>
						<rate>
							<timebase>59</timebase>
							<ntsc>TRUE</ntsc>
						</rate>
						<duration>60</duration>
						<start>6497</start>
						<end>6557</end>
						<in>0</in>
						<out>60</out>
					</clipitem>
					<clipitem frameBlend="FALSE" id="clipitem-telop-787">
						<file id="file-2"/>
						<name>w</name>
						<rate>
							<timebase>59</timebase>
							<ntsc>TRUE</ntsc>
						</rate>
						<rate>
							<timebase>59</timebase>
							<ntsc>TRUE</ntsc>
						</rate>
						<duration>30</duration>
						<start>6557</start>
						<end>6587</end>
						<in>0</in>
						<out>30</out>
					</clipitem>
					<clipitem frameBlend="FALSE" id="clipitem-telop-794">
						<file id="file-2"/>
						<name>！</name>
						<rate>
							<timebase>59</timebase>
							<ntsc>TRUE</ntsc>
						</rate>
						<rate>
							<timebase>59</timebase>
							<ntsc>TRUE</ntsc>
						</rate>
						<duration>60</duration>
						<start>6629</start>
						<end>6689</end>
						<in>0</in>
						<out>60</out>
					</clipitem>
					<clipitem frameBlend="FALSE" id="clipitem-telop-805">
						<file id="file-2"/>
						<name>！</name>
						<rate>
							<timebase>59</timebase>
							<ntsc>TRUE</ntsc>
						</rate>
						<rate>
							<timebase>59</timebase>
							<ntsc>TRUE</ntsc>
						</rate>
						<duration>60</duration>
						<start>6689</start>
						<end>6749</end>
						<in>0</in>
						<out>60</out>
					</clipitem>
					<clipitem frameBlend="FALSE" id="clipitem-telop-812">
						<file id="file-2"/>
						<name>！</name>
						<rate>
							<timebase>59</timebase>
							<ntsc>TRUE</ntsc>
						</rate>
						<rate>
							<timebase>59</timebase>
							<ntsc>TRUE</ntsc>
						</rate>
						<duration>60</duration>
						<start>6755</start>
						<end>6815</end>
						<in>0</in>
						<out>60</out>
					</clipitem>
					<clipitem frameBlend="FALSE" id="clipitem-telop-827">
						<file id="file-2"/>
						<name>！</name>
						<rate>
							<timebase>59</timebase>
							<ntsc>TRUE</ntsc>
						</rate>
						<rate>
							<timebase>59</timebase>
							<ntsc>TRUE</ntsc>
						</rate>
						<duration>60</duration>
						<start>6845</start>
						<end>6905</end>
						<in>0</in>
						<out>60</out>
					</clipitem>
					<clipitem frameBlend="FALSE" id="clipitem-telop-840">
						<file id="file-2"/>
						<name>w</name>
						<rate>
							<timebase>59</timebase>
							<ntsc>TRUE</ntsc>
						</rate>
						<rate>
							<timebase>59</timebase>
							<ntsc>TRUE</ntsc>
						</rate>
						<duration>30</duration>
						<start>6905</start>
						<end>6935</end>
						<in>0</in>
						<out>30</out>
					</clipitem>
					<clipitem frameBlend="FALSE" id="clipitem-telop-844">
						<file id="file-2"/>
						<name>！</name>
						<rate>
							<timebase>59</timebase>
							<ntsc>TRUE</ntsc>
						</rate>
						<rate>
							<timebase>59</timebase>
							<ntsc>TRUE</ntsc>
						</rate>
						<duration>60</duration>
						<start>6935</start>
						<end>6995</end>
						<in>0</in>
						<out>60</out>
					</clipitem>
					<clipitem frameBlend="FALSE" id="clipitem-telop-855">
						<file id="file-2"/>
						<name>！</name>
						<rate>
							<timebase>59</timebase>
							<ntsc>TRUE</ntsc>
						</rate>
						<rate>
							<timebase>59</timebase>
							<ntsc>TRUE</ntsc>
						</rate>
						<duration>60</duration>
						<start>7013</start>
						<end>7073</end>
						<in>0</in>
						<out>60</out>
					</clipitem>
					<clipitem frameBlend="FALSE" id="clipitem-telop-867">
						<file id="file-2"/>
						<name>！</name>
						<rate>
							<timebase>59</timebase>
							<ntsc>TRUE</ntsc>
						</rate>
						<rate>
							<timebase>59</timebase>
							<ntsc>TRUE</ntsc>
						</rate>
						<duration>66</duration>
						<start>7109</start>
						<end>7175</end>
						<in>0</in>
						<out>66</out>
					</clipitem>
					<clipitem frameBlend="FALSE" id="clipitem-telop-878">
						<file id="file-2"/>
						<name>！</name>
						<rate>
							<timebase>59</timebase>
							<ntsc>TRUE</ntsc>
						</rate>
						<rate>
							<timebase>59</timebase>
							<ntsc>TRUE</ntsc>
						</rate>
						<duration>60</duration>
						<start>7181</start>
						<end>7241</end>
						<in>0</in>
						<out>60</out>
					</clipitem>
					<clipitem frameBlend="FALSE" id="clipitem-telop-887">
						<file id="file-2"/>
						<name>！</name>
						<rate>
							<timebase>59</timebase>
							<ntsc>TRUE</ntsc>
						</rate>
						<rate>
							<timebase>59</timebase>
							<ntsc>TRUE</ntsc>
						</rate>
						<duration>60</duration>
						<start>7265</start>
						<end>7325</end>
						<in>0</in>
						<out>60</out>
					</clipitem>
					<clipitem frameBlend="FALSE" id="clipitem-telop-893">
						<file id="file-2"/>
						<name>！</name>
						<rate>
							<timebase>59</timebase>
							<ntsc>TRUE</ntsc>
						</rate>
						<rate>
							<timebase>59</timebase>
							<ntsc>TRUE</ntsc>
						</rate>
						<duration>60</duration>
						<start>7331</start>
						<end>7391</end>
						<in>0</in>
						<out>60</out>
					</clipitem>
					<clipitem frameBlend="FALSE" id="clipitem-telop-903">
						<file id="file-2"/>
						<name>！</name>
						<rate>
							<timebase>59</timebase>
							<ntsc>TRUE</ntsc>
						</rate>
						<rate>
							<timebase>59</timebase>
							<ntsc>TRUE</ntsc>
						</rate>
						<duration>60</duration>
						<start>7397</start>
						<end>7457</end>
						<in>0</in>
						<out>60</out>
					</clipitem>
					<clipitem frameBlend="FALSE" id="clipitem-telop-913">
						<file id="file-2"/>
						<name>！</name>
						<rate>
							<timebase>59</timebase>
							<ntsc>TRUE</ntsc>
						</rate>
						<rate>
							<timebase>59</timebase>
							<ntsc>TRUE</ntsc>
						</rate>
						<duration>60</duration>
						<start>7457</start>
						<end>7517</end>
						<in>0</in>
						<out>60</out>
					</clipitem>
					<clipitem frameBlend="FALSE" id="clipitem-telop-925">
						<file id="file-2"/>
						<name>！</name>
						<rate>
							<timebase>59</timebase>
							<ntsc>TRUE</ntsc>
						</rate>
						<rate>
							<timebase>59</timebase>
							<ntsc>TRUE</ntsc>
						</rate>
						<duration>60</duration>
						<start>7517</start>
						<end>7577</end>
						<in>0</in>
						<out>60</out>
					</clipitem>
					<clipitem frameBlend="FALSE" id="clipitem-telop-934">
						<file id="file-2"/>
						<name>！</name>
						<rate>
							<timebase>59</timebase>
							<ntsc>TRUE</ntsc>
						</rate>
						<rate>
							<timebase>59</timebase>
							<ntsc>TRUE</ntsc>
						</rate>
						<duration>66</duration>
						<start>7595</start>
						<end>7661</end>
						<in>0</in>
						<out>66</out>
					</clipitem>
					<clipitem frameBlend="FALSE" id="clipitem-telop-947">
						<file id="file-2"/>
						<name>！</name>
						<rate>
							<timebase>59</timebase>
							<ntsc>TRUE</ntsc>
						</rate>
						<rate>
							<timebase>59</timebase>
							<ntsc>TRUE</ntsc>
						</rate>
						<duration>60</duration>
						<start>7685</start>
						<end>7745</end>
						<in>0</in>
						<out>60</out>
					</clipitem>
					<clipitem frameBlend="FALSE" id="clipitem-telop-956">
						<file id="file-2"/>
						<name>！</name>
						<rate>
							<timebase>59</timebase>
							<ntsc>TRUE</ntsc>
						</rate>
						<rate>
							<timebase>59</timebase>
							<ntsc>TRUE</ntsc>
						</rate>
						<duration>60</duration>
						<start>7763</start>
						<end>7823</end>
						<in>0</in>
						<out>60</out>
					</clipitem>
					<clipitem frameBlend="FALSE" id="clipitem-telop-983">
						<file id="file-2"/>
						<name>！</name>
						<rate>
							<timebase>59</timebase>
							<ntsc>TRUE</ntsc>
						</rate>
						<rate>
							<timebase>59</timebase>
							<ntsc>TRUE</ntsc>
						</rate>
						<duration>66</duration>
						<start>8063</start>
						<end>8129</end>
						<in>0</in>
						<out>66</out>
					</clipitem>
					<clipitem frameBlend="FALSE" id="clipitem-telop-992">
						<file id="file-2"/>
						<name>！</name>
						<rate>
							<timebase>59</timebase>
							<ntsc>TRUE</ntsc>
						</rate>
						<rate>
							<timebase>59</timebase>
							<ntsc>TRUE</ntsc>
						</rate>
						<duration>59</duration>
						<start>8177</start>
						<end>8236</end>
						<in>0</in>
						<out>59</out>
					</clipitem>
					<clipitem frameBlend="FALSE" id="clipitem-telop-1001">
						<file id="file-2"/>
						<name>！</name>
						<rate>
							<timebase>59</timebase>
							<ntsc>TRUE</ntsc>
						</rate>
						<rate>
							<timebase>59</timebase>
							<ntsc>TRUE</ntsc>
						</rate>
						<duration>66</duration>
						<start>8242</start>
						<end>8308</end>
						<in>0</in>
						<out>66</out>
					</clipitem>
					<clipitem frameBlend="FALSE" id="clipitem-telop-1020">
						<file id="file-2"/>
						<name>！</name>
						<rate>
							<timebase>59</timebase>
							<ntsc>TRUE</ntsc>
						</rate>
						<rate>
							<timebase>59</timebase>
							<ntsc>TRUE</ntsc>
						</rate>
						<duration>60</duration>
						<start>8434</start>
						<end>8494</end>
						<in>0</in>
						<out>60</out>
					</clipitem>
					<clipitem frameBlend="FALSE" id="clipitem-telop-1031">
						<file id="file-2"/>
						<name>！</name>
						<rate>
							<timebase>59</timebase>
							<ntsc>TRUE</ntsc>
						</rate>
						<rate>
							<timebase>59</timebase>
							<ntsc>TRUE</ntsc>
						</rate>
						<duration>60</duration>
						<start>8518</start>
						<end>8578</end>
						<in>0</in>
						<out>60</out>
					</clipitem>
					<clipitem frameBlend="FALSE" id="clipitem-telop-1040">
						<file id="file-2"/>
						<name>！</name>
						<rate>
							<timebase>59</timebase>
							<ntsc>TRUE</ntsc>
						</rate>
						<rate>
							<timebase>59</timebase>
							<ntsc>TRUE</ntsc>
						</rate>
						<duration>60</duration>
						<start>8590</start>
						<end>8650</end>
						<in>0</in>
						<out>60</out>
					</clipitem>
					<clipitem frameBlend="FALSE" id="clipitem-telop-1061">
						<file id="file-2"/>
						<name>！</name>
						<rate>
							<timebase>59</timebase>
							<ntsc>TRUE</ntsc>
						</rate>
						<rate>
							<timebase>59</timebase>
							<ntsc>TRUE</ntsc>
						</rate>
						<duration>60</duration>
						<start>8860</start>
						<end>8920</end>
						<in>0</in>
						<out>60</out>
					</clipitem>
					<clipitem frameBlend="FALSE" id="clipitem-telop-1072">
						<file id="file-2"/>
						<name>！</name>
						<rate>
							<timebase>59</timebase>
							<ntsc>TRUE</ntsc>
						</rate>
						<rate>
							<timebase>59</timebase>
							<ntsc>TRUE</ntsc>
						</rate>
						<duration>66</duration>
						<start>8920</start>
						<end>8986</end>
						<in>0</in>
						<out>66</out>
					</clipitem>
					<clipitem frameBlend="FALSE" id="clipitem-telop-1079">
						<file id="file-2"/>
						<name>！</name>
						<rate>
							<timebase>59</timebase>
							<ntsc>TRUE</ntsc>
						</rate>
						<rate>
							<timebase>59</timebase>
							<ntsc>TRUE</ntsc>
						</rate>
						<duration>60</duration>
						<start>8986</start>
						<end>9046</end>
						<in>0</in>
						<out>60</out>
					</clipitem>
					<clipitem frameBlend="FALSE" id="clipitem-telop-1087">
						<file id="file-2"/>
						<name>！</name>
						<rate>
							<timebase>59</timebase>
							<ntsc>TRUE</ntsc>
						</rate>
						<rate>
							<timebase>59</timebase>
							<ntsc>TRUE</ntsc>
						</rate>
						<duration>60</duration>
						<start>9058</start>
						<end>9118</end>
						<in>0</in>
						<out>60</out>
					</clipitem>
					<clipitem frameBlend="FALSE" id="clipitem-telop-1097">
						<file id="file-2"/>
						<name>！</name>
						<rate>
							<timebase>59</timebase>
							<ntsc>TRUE</ntsc>
						</rate>
						<rate>
							<timebase>59</timebase>
							<ntsc>TRUE</ntsc>
						</rate>
						<duration>60</duration>
						<start>9136</start>
						<end>9196</end>
						<in>0</in>
						<out>60</out>
					</clipitem>
					<clipitem frameBlend="FALSE" id="clipitem-telop-1109">
						<file id="file-2"/>
						<name>じゃあここでやらないでくださいね</name>
						<rate>
							<timebase>59</timebase>
							<ntsc>TRUE</ntsc>
						</rate>
						<rate>
							<timebase>59</timebase>
							<ntsc>TRUE</ntsc>
						</rate>
						<duration>180</duration>
						<start>9232</start>
						<end>9412</end>
						<in>0</in>
						<out>180</out>
					</clipitem>
					<clipitem frameBlend="FALSE" id="clipitem-telop-1136">
						<file id="file-2"/>
						<name>！</name>
						<rate>
							<timebase>59</timebase>
							<ntsc>TRUE</ntsc>
						</rate>
						<rate>
							<timebase>59</timebase>
							<ntsc>TRUE</ntsc>
						</rate>
						<duration>60</duration>
						<start>9418</start>
						<end>9478</end>
						<in>0</in>
						<out>60</out>
					</clipitem>
					<clipitem frameBlend="FALSE" id="clipitem-telop-1152">
						<file id="file-2"/>
						<name>！</name>
						<rate>
							<timebase>59</timebase>
							<ntsc>TRUE</ntsc>
						</rate>
						<rate>
							<timebase>59</timebase>
							<ntsc>TRUE</ntsc>
						</rate>
						<duration>60</duration>
						<start>9520</start>
						<end>9580</end>
						<in>0</in>
						<out>60</out>
					</clipitem>
					<clipitem frameBlend="FALSE" id="clipitem-telop-1163">
						<file id="file-2"/>
						<name>！</name>
						<rate>
							<timebase>59</timebase>
							<ntsc>TRUE</ntsc>
						</rate>
						<rate>
							<timebase>59</timebase>
							<ntsc>TRUE</ntsc>
						</rate>
						<duration>60</duration>
						<start>9622</start>
						<end>9682</end>
						<in>0</in>
						<out>60</out>
					</clipitem>
					<clipitem frameBlend="FALSE" id="clipitem-telop-1172">
						<file id="file-2"/>
						<name>！</name>
						<rate>
							<timebase>59</timebase>
							<ntsc>TRUE</ntsc>
						</rate>
						<rate>
							<timebase>59</timebase>
							<ntsc>TRUE</ntsc>
						</rate>
						<duration>66</duration>
						<start>9694</start>
						<end>9760</end>
						<in>0</in>
						<out>66</out>
					</clipitem>
					<clipitem frameBlend="FALSE" id="clipitem-telop-1180">
						<file id="file-2"/>
						<name>！</name>
						<rate>
							<timebase>59</timebase>
							<ntsc>TRUE</ntsc>
						</rate>
						<rate>
							<timebase>59</timebase>
							<ntsc>TRUE</ntsc>
						</rate>
						<duration>60</duration>
						<start>9778</start>
						<end>9838</end>
						<in>0</in>
						<out>60</out>
					</clipitem>
					<clipitem frameBlend="FALSE" id="clipitem-telop-1189">
						<file id="file-2"/>
						<name>！</name>
						<rate>
							<timebase>59</timebase>
							<ntsc>TRUE</ntsc>
						</rate>
						<rate>
							<timebase>59</timebase>
							<ntsc>TRUE</ntsc>
						</rate>
						<duration>60</duration>
						<start>9886</start>
						<end>9946</end>
						<in>0</in>
						<out>60</out>
					</clipitem>
					<clipitem frameBlend="FALSE" id="clipitem-telop-1200">
						<file id="file-2"/>
						<name>！</name>
						<rate>
							<timebase>59</timebase>
							<ntsc>TRUE</ntsc>
						</rate>
						<rate>
							<timebase>59</timebase>
							<ntsc>TRUE</ntsc>
						</rate>
						<duration>60</duration>
						<start>10000</start>
						<end>10060</end>
						<in>0</in>
						<out>60</out>
					</clipitem>
					<clipitem frameBlend="FALSE" id="clipitem-telop-1208">
						<file id="file-2"/>
						<name>！</name>
						<rate>
							<timebase>59</timebase>
							<ntsc>TRUE</ntsc>
						</rate>
						<rate>
							<timebase>59</timebase>
							<ntsc>TRUE</ntsc>
						</rate>
						<duration>60</duration>
						<start>10108</start>
						<end>10168</end>
						<in>0</in>
						<out>60</out>
					</clipitem>
					<clipitem frameBlend="FALSE" id="clipitem-telop-1217">
						<file id="file-2"/>
						<name>！</name>
						<rate>
							<timebase>59</timebase>
							<ntsc>TRUE</ntsc>
						</rate>
						<rate>
							<timebase>59</timebase>
							<ntsc>TRUE</ntsc>
						</rate>
						<duration>60</duration>
						<start>10174</start>
						<end>10234</end>
						<in>0</in>
						<out>60</out>
					</clipitem>
					<clipitem frameBlend="FALSE" id="clipitem-telop-1235">
						<file id="file-2"/>
						<name>！</name>
						<rate>
							<timebase>59</timebase>
							<ntsc>TRUE</ntsc>
						</rate>
						<rate>
							<timebase>59</timebase>
							<ntsc>TRUE</ntsc>
						</rate>
						<duration>60</duration>
						<start>10372</start>
						<end>10432</end>
						<in>0</in>
						<out>60</out>
					</clipitem>
					<clipitem frameBlend="FALSE" id="clipitem-telop-1251">
						<file id="file-2"/>
						<name>！</name>
						<rate>
							<timebase>59</timebase>
							<ntsc>TRUE</ntsc>
						</rate>
						<rate>
							<timebase>59</timebase>
							<ntsc>TRUE</ntsc>
						</rate>
						<duration>60</duration>
						<start>10582</start>
						<end>10642</end>
						<in>0</in>
						<out>60</out>
					</clipitem>
					<clipitem frameBlend="FALSE" id="clipitem-telop-1263">
						<file id="file-2"/>
						<name>！</name>
						<rate>
							<timebase>59</timebase>
							<ntsc>TRUE</ntsc>
						</rate>
						<rate>
							<timebase>59</timebase>
							<ntsc>TRUE</ntsc>
						</rate>
						<duration>66</duration>
						<start>10654</start>
						<end>10720</end>
						<in>0</in>
						<out>66</out>
					</clipitem>
					<clipitem frameBlend="FALSE" id="clipitem-telop-1272">
						<file id="file-2"/>
						<name>！</name>
						<rate>
							<timebase>59</timebase>
							<ntsc>TRUE</ntsc>
						</rate>
						<rate>
							<timebase>59</timebase>
							<ntsc>TRUE</ntsc>
						</rate>
						<duration>60</duration>
						<start>10720</start>
						<end>10780</end>
						<in>0</in>
						<out>60</out>
					</clipitem>
					<clipitem frameBlend="FALSE" id="clipitem-telop-1285">
						<file id="file-2"/>
						<name>！</name>
						<rate>
							<timebase>59</timebase>
							<ntsc>TRUE</ntsc>
						</rate>
						<rate>
							<timebase>59</timebase>
							<ntsc>TRUE</ntsc>
						</rate>
						<duration>60</duration>
						<start>10840</start>
						<end>10900</end>
						<in>0</in>
						<out>60</out>
					</clipitem>
					<clipitem frameBlend="FALSE" id="clipitem-telop-1297">
						<file id="file-2"/>
						<name>！</name>
						<rate>
							<timebase>59</timebase>
							<ntsc>TRUE</ntsc>
						</rate>
						<rate>
							<timebase>59</timebase>
							<ntsc>TRUE</ntsc>
						</rate>
						<duration>60</duration>
						<start>10954</start>
						<end>11014</end>
						<in>0</in>
						<out>60</out>
					</clipitem>
					<clipitem frameBlend="FALSE" id="clipitem-telop-1308">
						<file id="file-2"/>
						<name>！</name>
						<rate>
							<timebase>59</timebase>
							<ntsc>TRUE</ntsc>
						</rate>
						<rate>
							<timebase>59</timebase>
							<ntsc>TRUE</ntsc>
						</rate>
						<duration>66</duration>
						<start>11038</start>
						<end>11104</end>
						<in>0</in>
						<out>66</out>
					</clipitem>
					<clipitem frameBlend="FALSE" id="clipitem-telop-1319">
						<file id="file-2"/>
						<name>！</name>
						<rate>
							<timebase>59</timebase>
							<ntsc>TRUE</ntsc>
						</rate>
						<rate>
							<timebase>59</timebase>
							<ntsc>TRUE</ntsc>
						</rate>
						<duration>60</duration>
						<start>11110</start>
						<end>11170</end>
						<in>0</in>
						<out>60</out>
					</clipitem>
					<clipitem frameBlend="FALSE" id="clipitem-telop-1325">
						<file id="file-2"/>
						<name>！</name>
						<rate>
							<timebase>59</timebase>
							<ntsc>TRUE</ntsc>
						</rate>
						<rate>
							<timebase>59</timebase>
							<ntsc>TRUE</ntsc>
						</rate>
						<duration>60</duration>
						<start>11182</start>
						<end>11242</end>
						<in>0</in>
						<out>60</out>
					</clipitem>
					<clipitem frameBlend="FALSE" id="clipitem-telop-1335">
						<file id="file-2"/>
						<name>！</name>
						<rate>
							<timebase>59</timebase>
							<ntsc>TRUE</ntsc>
						</rate>
						<rate>
							<timebase>59</timebase>
							<ntsc>TRUE</ntsc>
						</rate>
						<duration>60</duration>
						<start>11296</start>
						<end>11356</end>
						<in>0</in>
						<out>60</out>
					</clipitem>
					<clipitem frameBlend="FALSE" id="clipitem-telop-1343">
						<file id="file-2"/>
						<name>w</name>
						<rate>
							<timebase>59</timebase>
							<ntsc>TRUE</ntsc>
						</rate>
						<rate>
							<timebase>59</timebase>
							<ntsc>TRUE</ntsc>
						</rate>
						<duration>30</duration>
						<start>11362</start>
						<end>11392</end>
						<in>0</in>
						<out>30</out>
					</clipitem>
					<clipitem frameBlend="FALSE" id="clipitem-telop-1351">
						<file id="file-2"/>
						<name>！</name>
						<rate>
							<timebase>59</timebase>
							<ntsc>TRUE</ntsc>
						</rate>
						<rate>
							<timebase>59</timebase>
							<ntsc>TRUE</ntsc>
						</rate>
						<duration>60</duration>
						<start>11434</start>
						<end>11494</end>
						<in>0</in>
						<out>60</out>
					</clipitem>
					<clipitem frameBlend="FALSE" id="clipitem-telop-1361">
						<file id="file-2"/>
						<name>！</name>
						<rate>
							<timebase>59</timebase>
							<ntsc>TRUE</ntsc>
						</rate>
						<rate>
							<timebase>59</timebase>
							<ntsc>TRUE</ntsc>
						</rate>
						<duration>60</duration>
						<start>11512</start>
						<end>11572</end>
						<in>0</in>
						<out>60</out>
					</clipitem>
					<clipitem frameBlend="FALSE" id="clipitem-telop-1376">
						<file id="file-2"/>
						<name>！</name>
						<rate>
							<timebase>59</timebase>
							<ntsc>TRUE</ntsc>
						</rate>
						<rate>
							<timebase>59</timebase>
							<ntsc>TRUE</ntsc>
						</rate>
						<duration>66</duration>
						<start>11650</start>
						<end>11716</end>
						<in>0</in>
						<out>66</out>
					</clipitem>
					<clipitem frameBlend="FALSE" id="clipitem-telop-1387">
						<file id="file-2"/>
						<name>！</name>
						<rate>
							<timebase>59</timebase>
							<ntsc>TRUE</ntsc>
						</rate>
						<rate>
							<timebase>59</timebase>
							<ntsc>TRUE</ntsc>
						</rate>
						<duration>60</duration>
						<start>11722</start>
						<end>11782</end>
						<in>0</in>
						<out>60</out>
					</clipitem>
					<clipitem frameBlend="FALSE" id="clipitem-telop-1396">
						<file id="file-2"/>
						<name>！</name>
						<rate>
							<timebase>59</timebase>
							<ntsc>TRUE</ntsc>
						</rate>
						<rate>
							<timebase>59</timebase>
							<ntsc>TRUE</ntsc>
						</rate>
						<duration>60</duration>
						<start>11794</start>
						<end>11854</end>
						<in>0</in>
						<out>60</out>
					</clipitem>
					<clipitem frameBlend="FALSE" id="clipitem-telop-1404">
						<file id="file-2"/>
						<name>！</name>
						<rate>
							<timebase>59</timebase>
							<ntsc>TRUE</ntsc>
						</rate>
						<rate>
							<timebase>59</timebase>
							<ntsc>TRUE</ntsc>
						</rate>
						<duration>60</duration>
						<start>11854</start>
						<end>11914</end>
						<in>0</in>
						<out>60</out>
					</clipitem>
					<clipitem frameBlend="FALSE" id="clipitem-telop-1413">
						<file id="file-2"/>
						<name>！</name>
						<rate>
							<timebase>59</timebase>
							<ntsc>TRUE</ntsc>
						</rate>
						<rate>
							<timebase>59</timebase>
							<ntsc>TRUE</ntsc>
						</rate>
						<duration>60</duration>
						<start>11920</start>
						<end>11980</end>
						<in>0</in>
						<out>60</out>
					</clipitem>
					<clipitem frameBlend="FALSE" id="clipitem-telop-1422">
						<file id="file-2"/>
						<name>！</name>
						<rate>
							<timebase>59</timebase>
							<ntsc>TRUE</ntsc>
						</rate>
						<rate>
							<timebase>59</timebase>
							<ntsc>TRUE</ntsc>
						</rate>
						<duration>60</duration>
						<start>12016</start>
						<end>12076</end>
						<in>0</in>
						<out>60</out>
					</clipitem>
					<clipitem frameBlend="FALSE" id="clipitem-telop-1434">
						<file id="file-2"/>
						<name>！</name>
						<rate>
							<timebase>59</timebase>
							<ntsc>TRUE</ntsc>
						</rate>
						<rate>
							<timebase>59</timebase>
							<ntsc>TRUE</ntsc>
						</rate>
						<duration>60</duration>
						<start>12100</start>
						<end>12160</end>
						<in>0</in>
						<out>60</out>
					</clipitem>
					<clipitem frameBlend="FALSE" id="clipitem-telop-1443">
						<file id="file-2"/>
						<name>！</name>
						<rate>
							<timebase>59</timebase>
							<ntsc>TRUE</ntsc>
						</rate>
						<rate>
							<timebase>59</timebase>
							<ntsc>TRUE</ntsc>
						</rate>
						<duration>60</duration>
						<start>12160</start>
						<end>12220</end>
						<in>0</in>
						<out>60</out>
					</clipitem>
					<clipitem frameBlend="FALSE" id="clipitem-telop-1452">
						<file id="file-2"/>
						<name>！</name>
						<rate>
							<timebase>59</timebase>
							<ntsc>TRUE</ntsc>
						</rate>
						<rate>
							<timebase>59</timebase>
							<ntsc>TRUE</ntsc>
						</rate>
						<duration>60</duration>
						<start>12232</start>
						<end>12292</end>
						<in>0</in>
						<out>60</out>
					</clipitem>
					<clipitem frameBlend="FALSE" id="clipitem-telop-1462">
						<file id="file-2"/>
						<name>！</name>
						<rate>
							<timebase>59</timebase>
							<ntsc>TRUE</ntsc>
						</rate>
						<rate>
							<timebase>59</timebase>
							<ntsc>TRUE</ntsc>
						</rate>
						<duration>60</duration>
						<start>12304</start>
						<end>12364</end>
						<in>0</in>
						<out>60</out>
					</clipitem>
					<clipitem frameBlend="FALSE" id="clipitem-telop-1469">
						<file id="file-2"/>
						<name>！</name>
						<rate>
							<timebase>59</timebase>
							<ntsc>TRUE</ntsc>
						</rate>
						<rate>
							<timebase>59</timebase>
							<ntsc>TRUE</ntsc>
						</rate>
						<duration>60</duration>
						<start>12400</start>
						<end>12460</end>
						<in>0</in>
						<out>60</out>
					</clipitem>
					<clipitem frameBlend="FALSE" id="clipitem-telop-1475">
						<file id="file-2"/>
						<name>！</name>
						<rate>
							<timebase>59</timebase>
							<ntsc>TRUE</ntsc>
						</rate>
						<rate>
							<timebase>59</timebase>
							<ntsc>TRUE</ntsc>
						</rate>
						<duration>60</duration>
						<start>12466</start>
						<end>12526</end>
						<in>0</in>
						<out>60</out>
					</clipitem>
					<clipitem frameBlend="FALSE" id="clipitem-telop-1484">
						<file id="file-2"/>
						<name>！</name>
						<rate>
							<timebase>59</timebase>
							<ntsc>TRUE</ntsc>
						</rate>
						<rate>
							<timebase>59</timebase>
							<ntsc>TRUE</ntsc>
						</rate>
						<duration>60</duration>
						<start>12532</start>
						<end>12592</end>
						<in>0</in>
						<out>60</out>
					</clipitem>
					<clipitem frameBlend="FALSE" id="clipitem-telop-1492">
						<file id="file-2"/>
						<name>！</name>
						<rate>
							<timebase>59</timebase>
							<ntsc>TRUE</ntsc>
						</rate>
						<rate>
							<timebase>59</timebase>
							<ntsc>TRUE</ntsc>
						</rate>
						<duration>60</duration>
						<start>12598</start>
						<end>12658</end>
						<in>0</in>
						<out>60</out>
					</clipitem>
					<clipitem frameBlend="FALSE" id="clipitem-telop-1507">
						<file id="file-2"/>
						<name>！</name>
						<rate>
							<timebase>59</timebase>
							<ntsc>TRUE</ntsc>
						</rate>
						<rate>
							<timebase>59</timebase>
							<ntsc>TRUE</ntsc>
						</rate>
						<duration>60</duration>
						<start>12658</start>
						<end>12718</end>
						<in>0</in>
						<out>60</out>
					</clipitem>
					<clipitem frameBlend="FALSE" id="clipitem-telop-1516">
						<file id="file-2"/>
						<name>！</name>
						<rate>
							<timebase>59</timebase>
							<ntsc>TRUE</ntsc>
						</rate>
						<rate>
							<timebase>59</timebase>
							<ntsc>TRUE</ntsc>
						</rate>
						<duration>66</duration>
						<start>12766</start>
						<end>12832</end>
						<in>0</in>
						<out>66</out>
					</clipitem>
					<clipitem frameBlend="FALSE" id="clipitem-telop-1526">
						<file id="file-2"/>
						<name>！</name>
						<rate>
							<timebase>59</timebase>
							<ntsc>TRUE</ntsc>
						</rate>
						<rate>
							<timebase>59</timebase>
							<ntsc>TRUE</ntsc>
						</rate>
						<duration>60</duration>
						<start>12856</start>
						<end>12916</end>
						<in>0</in>
						<out>60</out>
					</clipitem>
					<clipitem frameBlend="FALSE" id="clipitem-telop-1534">
						<file id="file-2"/>
						<name>！</name>
						<rate>
							<timebase>59</timebase>
							<ntsc>TRUE</ntsc>
						</rate>
						<rate>
							<timebase>59</timebase>
							<ntsc>TRUE</ntsc>
						</rate>
						<duration>60</duration>
						<start>12928</start>
						<end>12988</end>
						<in>0</in>
						<out>60</out>
					</clipitem>
					<clipitem frameBlend="FALSE" id="clipitem-telop-1543">
						<file id="file-2"/>
						<name>！</name>
						<rate>
							<timebase>59</timebase>
							<ntsc>TRUE</ntsc>
						</rate>
						<rate>
							<timebase>59</timebase>
							<ntsc>TRUE</ntsc>
						</rate>
						<duration>66</duration>
						<start>13012</start>
						<end>13078</end>
						<in>0</in>
						<out>66</out>
					</clipitem>
					<clipitem frameBlend="FALSE" id="clipitem-telop-1552">
						<file id="file-2"/>
						<name>！</name>
						<rate>
							<timebase>59</timebase>
							<ntsc>TRUE</ntsc>
						</rate>
						<rate>
							<timebase>59</timebase>
							<ntsc>TRUE</ntsc>
						</rate>
						<duration>66</duration>
						<start>13090</start>
						<end>13156</end>
						<in>0</in>
						<out>66</out>
					</clipitem>
					<clipitem frameBlend="FALSE" id="clipitem-telop-1564">
						<file id="file-2"/>
						<name>！</name>
						<rate>
							<timebase>59</timebase>
							<ntsc>TRUE</ntsc>
						</rate>
						<rate>
							<timebase>59</timebase>
							<ntsc>TRUE</ntsc>
						</rate>
						<duration>66</duration>
						<start>13234</start>
						<end>13300</end>
						<in>0</in>
						<out>66</out>
					</clipitem>
					<clipitem frameBlend="FALSE" id="clipitem-telop-1576">
						<file id="file-2"/>
						<name>！</name>
						<rate>
							<timebase>59</timebase>
							<ntsc>TRUE</ntsc>
						</rate>
						<rate>
							<timebase>59</timebase>
							<ntsc>TRUE</ntsc>
						</rate>
						<duration>60</duration>
						<start>13300</start>
						<end>13360</end>
						<in>0</in>
						<out>60</out>
					</clipitem>
					<clipitem frameBlend="FALSE" id="clipitem-telop-1583">
						<file id="file-2"/>
						<name>！</name>
						<rate>
							<timebase>59</timebase>
							<ntsc>TRUE</ntsc>
						</rate>
						<rate>
							<timebase>59</timebase>
							<ntsc>TRUE</ntsc>
						</rate>
						<duration>66</duration>
						<start>13390</start>
						<end>13456</end>
						<in>0</in>
						<out>66</out>
					</clipitem>
					<clipitem frameBlend="FALSE" id="clipitem-telop-1593">
						<file id="file-2"/>
						<name>！</name>
						<rate>
							<timebase>59</timebase>
							<ntsc>TRUE</ntsc>
						</rate>
						<rate>
							<timebase>59</timebase>
							<ntsc>TRUE</ntsc>
						</rate>
						<duration>60</duration>
						<start>13504</start>
						<end>13564</end>
						<in>0</in>
						<out>60</out>
					</clipitem>
					<clipitem frameBlend="FALSE" id="clipitem-telop-1604">
						<file id="file-2"/>
						<name>！</name>
						<rate>
							<timebase>59</timebase>
							<ntsc>TRUE</ntsc>
						</rate>
						<rate>
							<timebase>59</timebase>
							<ntsc>TRUE</ntsc>
						</rate>
						<duration>60</duration>
						<start>13582</start>
						<end>13642</end>
						<in>0</in>
						<out>60</out>
					</clipitem>
					<clipitem frameBlend="FALSE" id="clipitem-telop-1615">
						<file id="file-2"/>
						<name>！</name>
						<rate>
							<timebase>59</timebase>
							<ntsc>TRUE</ntsc>
						</rate>
						<rate>
							<timebase>59</timebase>
							<ntsc>TRUE</ntsc>
						</rate>
						<duration>60</duration>
						<start>13666</start>
						<end>13726</end>
						<in>0</in>
						<out>60</out>
					</clipitem>
					<clipitem frameBlend="FALSE" id="clipitem-telop-1624">
						<file id="file-2"/>
						<name>！</name>
						<rate>
							<timebase>59</timebase>
							<ntsc>TRUE</ntsc>
						</rate>
						<rate>
							<timebase>59</timebase>
							<ntsc>TRUE</ntsc>
						</rate>
						<duration>60</duration>
						<start>13738</start>
						<end>13798</end>
						<in>0</in>
						<out>60</out>
					</clipitem>
					<clipitem frameBlend="FALSE" id="clipitem-telop-1633">
						<file id="file-2"/>
						<name>！</name>
						<rate>
							<timebase>59</timebase>
							<ntsc>TRUE</ntsc>
						</rate>
						<rate>
							<timebase>59</timebase>
							<ntsc>TRUE</ntsc>
						</rate>
						<duration>60</duration>
						<start>13798</start>
						<end>13858</end>
						<in>0</in>
						<out>60</out>
					</clipitem>
					<clipitem frameBlend="FALSE" id="clipitem-telop-1643">
						<file id="file-2"/>
						<name>！</name>
						<rate>
							<timebase>59</timebase>
							<ntsc>TRUE</ntsc>
						</rate>
						<rate>
							<timebase>59</timebase>
							<ntsc>TRUE</ntsc>
						</rate>
						<duration>60</duration>
						<start>13912</start>
						<end>13972</end>
						<in>0</in>
						<out>60</out>
					</clipitem>
					<clipitem frameBlend="FALSE" id="clipitem-telop-1652">
						<file id="file-2"/>
						<name>！</name>
						<rate>
							<timebase>59</timebase>
							<ntsc>TRUE</ntsc>
						</rate>
						<rate>
							<timebase>59</timebase>
							<ntsc>TRUE</ntsc>
						</rate>
						<duration>60</duration>
						<start>13978</start>
						<end>14038</end>
						<in>0</in>
						<out>60</out>
					</clipitem>
					<clipitem frameBlend="FALSE" id="clipitem-telop-1661">
						<file id="file-2"/>
						<name>！</name>
						<rate>
							<timebase>59</timebase>
							<ntsc>TRUE</ntsc>
						</rate>
						<rate>
							<timebase>59</timebase>
							<ntsc>TRUE</ntsc>
						</rate>
						<duration>60</duration>
						<start>14068</start>
						<end>14128</end>
						<in>0</in>
						<out>60</out>
					</clipitem>
					<clipitem frameBlend="FALSE" id="clipitem-telop-1669">
						<file id="file-2"/>
						<name>！</name>
						<rate>
							<timebase>59</timebase>
							<ntsc>TRUE</ntsc>
						</rate>
						<rate>
							<timebase>59</timebase>
							<ntsc>TRUE</ntsc>
						</rate>
						<duration>60</duration>
						<start>14146</start>
						<end>14206</end>
						<in>0</in>
						<out>60</out>
					</clipitem>
					<clipitem frameBlend="FALSE" id="clipitem-telop-1681">
						<file id="file-2"/>
						<name>！</name>
						<rate>
							<timebase>59</timebase>
							<ntsc>TRUE</ntsc>
						</rate>
						<rate>
							<timebase>59</timebase>
							<ntsc>TRUE</ntsc>
						</rate>
						<duration>60</duration>
						<start>14212</start>
						<end>14272</end>
						<in>0</in>
						<out>60</out>
					</clipitem>
					<clipitem frameBlend="FALSE" id="clipitem-telop-1695">
						<file id="file-2"/>
						<name>！</name>
						<rate>
							<timebase>59</timebase>
							<ntsc>TRUE</ntsc>
						</rate>
						<rate>
							<timebase>59</timebase>
							<ntsc>TRUE</ntsc>
						</rate>
						<duration>60</duration>
						<start>14344</start>
						<end>14404</end>
						<in>0</in>
						<out>60</out>
					</clipitem>
					<clipitem frameBlend="FALSE" id="clipitem-telop-1708">
						<file id="file-2"/>
						<name>！</name>
						<rate>
							<timebase>59</timebase>
							<ntsc>TRUE</ntsc>
						</rate>
						<rate>
							<timebase>59</timebase>
							<ntsc>TRUE</ntsc>
						</rate>
						<duration>60</duration>
						<start>14476</start>
						<end>14536</end>
						<in>0</in>
						<out>60</out>
					</clipitem>
					<clipitem frameBlend="FALSE" id="clipitem-telop-1716">
						<file id="file-2"/>
						<name>！</name>
						<rate>
							<timebase>59</timebase>
							<ntsc>TRUE</ntsc>
						</rate>
						<rate>
							<timebase>59</timebase>
							<ntsc>TRUE</ntsc>
						</rate>
						<duration>60</duration>
						<start>14542</start>
						<end>14602</end>
						<in>0</in>
						<out>60</out>
					</clipitem>
					<clipitem frameBlend="FALSE" id="clipitem-telop-1726">
						<file id="file-2"/>
						<name>！</name>
						<rate>
							<timebase>59</timebase>
							<ntsc>TRUE</ntsc>
						</rate>
						<rate>
							<timebase>59</timebase>
							<ntsc>TRUE</ntsc>
						</rate>
						<duration>66</duration>
						<start>14638</start>
						<end>14704</end>
						<in>0</in>
						<out>66</out>
					</clipitem>
					<clipitem frameBlend="FALSE" id="clipitem-telop-1738">
						<file id="file-2"/>
						<name>！</name>
						<rate>
							<timebase>59</timebase>
							<ntsc>TRUE</ntsc>
						</rate>
						<rate>
							<timebase>59</timebase>
							<ntsc>TRUE</ntsc>
						</rate>
						<duration>66</duration>
						<start>14722</start>
						<end>14788</end>
						<in>0</in>
						<out>66</out>
					</clipitem>
					<clipitem frameBlend="FALSE" id="clipitem-telop-1746">
						<file id="file-2"/>
						<name>！</name>
						<rate>
							<timebase>59</timebase>
							<ntsc>TRUE</ntsc>
						</rate>
						<rate>
							<timebase>59</timebase>
							<ntsc>TRUE</ntsc>
						</rate>
						<duration>66</duration>
						<start>14800</start>
						<end>14866</end>
						<in>0</in>
						<out>66</out>
					</clipitem>
					<clipitem frameBlend="FALSE" id="clipitem-telop-1757">
						<file id="file-2"/>
						<name>！</name>
						<rate>
							<timebase>59</timebase>
							<ntsc>TRUE</ntsc>
						</rate>
						<rate>
							<timebase>59</timebase>
							<ntsc>TRUE</ntsc>
						</rate>
						<duration>60</duration>
						<start>14968</start>
						<end>15028</end>
						<in>0</in>
						<out>60</out>
					</clipitem>
					<clipitem frameBlend="FALSE" id="clipitem-telop-1772">
						<file id="file-2"/>
						<name>！</name>
						<rate>
							<timebase>59</timebase>
							<ntsc>TRUE</ntsc>
						</rate>
						<rate>
							<timebase>59</timebase>
							<ntsc>TRUE</ntsc>
						</rate>
						<duration>66</duration>
						<start>15094</start>
						<end>15160</end>
						<in>0</in>
						<out>66</out>
					</clipitem>
					<clipitem frameBlend="FALSE" id="clipitem-telop-1794">
						<file id="file-2"/>
						<name>！</name>
						<rate>
							<timebase>59</timebase>
							<ntsc>TRUE</ntsc>
						</rate>
						<rate>
							<timebase>59</timebase>
							<ntsc>TRUE</ntsc>
						</rate>
						<duration>60</duration>
						<start>15334</start>
						<end>15394</end>
						<in>0</in>
						<out>60</out>
					</clipitem>
					<clipitem frameBlend="FALSE" id="clipitem-telop-1803">
						<file id="file-2"/>
						<name>！</name>
						<rate>
							<timebase>59</timebase>
							<ntsc>TRUE</ntsc>
						</rate>
						<rate>
							<timebase>59</timebase>
							<ntsc>TRUE</ntsc>
						</rate>
						<duration>60</duration>
						<start>15400</start>
						<end>15460</end>
						<in>0</in>
						<out>60</out>
					</clipitem>
					<clipitem frameBlend="FALSE" id="clipitem-telop-1813">
						<file id="file-2"/>
						<name>！</name>
						<rate>
							<timebase>59</timebase>
							<ntsc>TRUE</ntsc>
						</rate>
						<rate>
							<timebase>59</timebase>
							<ntsc>TRUE</ntsc>
						</rate>
						<duration>66</duration>
						<start>15478</start>
						<end>15544</end>
						<in>0</in>
						<out>66</out>
					</clipitem>
					<clipitem frameBlend="FALSE" id="clipitem-telop-1823">
						<file id="file-2"/>
						<name>！</name>
						<rate>
							<timebase>59</timebase>
							<ntsc>TRUE</ntsc>
						</rate>
						<rate>
							<timebase>59</timebase>
							<ntsc>TRUE</ntsc>
						</rate>
						<duration>60</duration>
						<start>15580</start>
						<end>15640</end>
						<in>0</in>
						<out>60</out>
					</clipitem>
					<clipitem frameBlend="FALSE" id="clipitem-telop-1838">
						<file id="file-2"/>
						<name>！</name>
						<rate>
							<timebase>59</timebase>
							<ntsc>TRUE</ntsc>
						</rate>
						<rate>
							<timebase>59</timebase>
							<ntsc>TRUE</ntsc>
						</rate>
						<duration>60</duration>
						<start>15736</start>
						<end>15796</end>
						<in>0</in>
						<out>60</out>
					</clipitem>
					<clipitem frameBlend="FALSE" id="clipitem-telop-1845">
						<file id="file-2"/>
						<name>！</name>
						<rate>
							<timebase>59</timebase>
							<ntsc>TRUE</ntsc>
						</rate>
						<rate>
							<timebase>59</timebase>
							<ntsc>TRUE</ntsc>
						</rate>
						<duration>60</duration>
						<start>15808</start>
						<end>15868</end>
						<in>0</in>
						<out>60</out>
					</clipitem>
					<clipitem frameBlend="FALSE" id="clipitem-telop-1851">
						<file id="file-2"/>
						<name>！</name>
						<rate>
							<timebase>59</timebase>
							<ntsc>TRUE</ntsc>
						</rate>
						<rate>
							<timebase>59</timebase>
							<ntsc>TRUE</ntsc>
						</rate>
						<duration>60</duration>
						<start>15868</start>
						<end>15928</end>
						<in>0</in>
						<out>60</out>
					</clipitem>
					<clipitem frameBlend="FALSE" id="clipitem-telop-1867">
						<file id="file-2"/>
						<name>！</name>
						<rate>
							<timebase>59</timebase>
							<ntsc>TRUE</ntsc>
						</rate>
						<rate>
							<timebase>59</timebase>
							<ntsc>TRUE</ntsc>
						</rate>
						<duration>60</duration>
						<start>15976</start>
						<end>16036</end>
						<in>0</in>
						<out>60</out>
					</clipitem>
					<clipitem frameBlend="FALSE" id="clipitem-telop-1875">
						<file id="file-2"/>
						<name>！</name>
						<rate>
							<timebase>59</timebase>
							<ntsc>TRUE</ntsc>
						</rate>
						<rate>
							<timebase>59</timebase>
							<ntsc>TRUE</ntsc>
						</rate>
						<duration>66</duration>
						<start>16048</start>
						<end>16114</end>
						<in>0</in>
						<out>66</out>
					</clipitem>
					<clipitem frameBlend="FALSE" id="clipitem-telop-1887">
						<file id="file-2"/>
						<name>！</name>
						<rate>
							<timebase>59</timebase>
							<ntsc>TRUE</ntsc>
						</rate>
						<rate>
							<timebase>59</timebase>
							<ntsc>TRUE</ntsc>
						</rate>
						<duration>66</duration>
						<start>16120</start>
						<end>16186</end>
						<in>0</in>
						<out>66</out>
					</clipitem>
					<clipitem frameBlend="FALSE" id="clipitem-telop-1894">
						<file id="file-2"/>
						<name>！</name>
						<rate>
							<timebase>59</timebase>
							<ntsc>TRUE</ntsc>
						</rate>
						<rate>
							<timebase>59</timebase>
							<ntsc>TRUE</ntsc>
						</rate>
						<duration>66</duration>
						<start>16186</start>
						<end>16252</end>
						<in>0</in>
						<out>66</out>
					</clipitem>
					<clipitem frameBlend="FALSE" id="clipitem-telop-1903">
						<file id="file-2"/>
						<name>！</name>
						<rate>
							<timebase>59</timebase>
							<ntsc>TRUE</ntsc>
						</rate>
						<rate>
							<timebase>59</timebase>
							<ntsc>TRUE</ntsc>
						</rate>
						<duration>66</duration>
						<start>16252</start>
						<end>16318</end>
						<in>0</in>
						<out>66</out>
					</clipitem>
					<clipitem frameBlend="FALSE" id="clipitem-telop-1920">
						<file id="file-2"/>
						<name>！</name>
						<rate>
							<timebase>59</timebase>
							<ntsc>TRUE</ntsc>
						</rate>
						<rate>
							<timebase>59</timebase>
							<ntsc>TRUE</ntsc>
						</rate>
						<duration>60</duration>
						<start>16389</start>
						<end>16449</end>
						<in>0</in>
						<out>60</out>
					</clipitem>
					<clipitem frameBlend="FALSE" id="clipitem-telop-1931">
						<file id="file-2"/>
						<name>！</name>
						<rate>
							<timebase>59</timebase>
							<ntsc>TRUE</ntsc>
						</rate>
						<rate>
							<timebase>59</timebase>
							<ntsc>TRUE</ntsc>
						</rate>
						<duration>60</duration>
						<start>16461</start>
						<end>16521</end>
						<in>0</in>
						<out>60</out>
					</clipitem>
					<clipitem frameBlend="FALSE" id="clipitem-telop-1938">
						<file id="file-2"/>
						<name>！</name>
						<rate>
							<timebase>59</timebase>
							<ntsc>TRUE</ntsc>
						</rate>
						<rate>
							<timebase>59</timebase>
							<ntsc>TRUE</ntsc>
						</rate>
						<duration>60</duration>
						<start>16527</start>
						<end>16587</end>
						<in>0</in>
						<out>60</out>
					</clipitem>
					<clipitem frameBlend="FALSE" id="clipitem-telop-1947">
						<file id="file-2"/>
						<name>！</name>
						<rate>
							<timebase>59</timebase>
							<ntsc>TRUE</ntsc>
						</rate>
						<rate>
							<timebase>59</timebase>
							<ntsc>TRUE</ntsc>
						</rate>
						<duration>66</duration>
						<start>16617</start>
						<end>16683</end>
						<in>0</in>
						<out>66</out>
					</clipitem>
					<clipitem frameBlend="FALSE" id="clipitem-telop-1956">
						<file id="file-2"/>
						<name>！</name>
						<rate>
							<timebase>59</timebase>
							<ntsc>TRUE</ntsc>
						</rate>
						<rate>
							<timebase>59</timebase>
							<ntsc>TRUE</ntsc>
						</rate>
						<duration>66</duration>
						<start>16695</start>
						<end>16761</end>
						<in>0</in>
						<out>66</out>
					</clipitem>
					<clipitem frameBlend="FALSE" id="clipitem-telop-1966">
						<file id="file-2"/>
						<name>！</name>
						<rate>
							<timebase>59</timebase>
							<ntsc>TRUE</ntsc>
						</rate>
						<rate>
							<timebase>59</timebase>
							<ntsc>TRUE</ntsc>
						</rate>
						<duration>66</duration>
						<start>16761</start>
						<end>16827</end>
						<in>0</in>
						<out>66</out>
					</clipitem>
					<clipitem frameBlend="FALSE" id="clipitem-telop-1976">
						<file id="file-2"/>
						<name>！</name>
						<rate>
							<timebase>59</timebase>
							<ntsc>TRUE</ntsc>
						</rate>
						<rate>
							<timebase>59</timebase>
							<ntsc>TRUE</ntsc>
						</rate>
						<duration>60</duration>
						<start>16839</start>
						<end>16899</end>
						<in>0</in>
						<out>60</out>
					</clipitem>
					<clipitem frameBlend="FALSE" id="clipitem-telop-1993">
						<file id="file-2"/>
						<name>！</name>
						<rate>
							<timebase>59</timebase>
							<ntsc>TRUE</ntsc>
						</rate>
						<rate>
							<timebase>59</timebase>
							<ntsc>TRUE</ntsc>
						</rate>
						<duration>66</duration>
						<start>17049</start>
						<end>17115</end>
						<in>0</in>
						<out>66</out>
					</clipitem>
					<clipitem frameBlend="FALSE" id="clipitem-telop-2001">
						<file id="file-2"/>
						<name>！</name>
						<rate>
							<timebase>59</timebase>
							<ntsc>TRUE</ntsc>
						</rate>
						<rate>
							<timebase>59</timebase>
							<ntsc>TRUE</ntsc>
						</rate>
						<duration>66</duration>
						<start>17115</start>
						<end>17181</end>
						<in>0</in>
						<out>66</out>
					</clipitem>
					<clipitem frameBlend="FALSE" id="clipitem-telop-2012">
						<file id="file-2"/>
						<name>！</name>
						<rate>
							<timebase>59</timebase>
							<ntsc>TRUE</ntsc>
						</rate>
						<rate>
							<timebase>59</timebase>
							<ntsc>TRUE</ntsc>
						</rate>
						<duration>66</duration>
						<start>17181</start>
						<end>17247</end>
						<in>0</in>
						<out>66</out>
					</clipitem>
					<clipitem frameBlend="FALSE" id="clipitem-telop-2021">
						<file id="file-2"/>
						<name>！</name>
						<rate>
							<timebase>59</timebase>
							<ntsc>TRUE</ntsc>
						</rate>
						<rate>
							<timebase>59</timebase>
							<ntsc>TRUE</ntsc>
						</rate>
						<duration>60</duration>
						<start>17277</start>
						<end>17337</end>
						<in>0</in>
						<out>60</out>
					</clipitem>
					<clipitem frameBlend="FALSE" id="clipitem-telop-2034">
						<file id="file-2"/>
						<name>！</name>
						<rate>
							<timebase>59</timebase>
							<ntsc>TRUE</ntsc>
						</rate>
						<rate>
							<timebase>59</timebase>
							<ntsc>TRUE</ntsc>
						</rate>
						<duration>66</duration>
						<start>17415</start>
						<end>17481</end>
						<in>0</in>
						<out>66</out>
					</clipitem>
					<clipitem frameBlend="FALSE" id="clipitem-telop-2048">
						<file id="file-2"/>
						<name>！</name>
						<rate>
							<timebase>59</timebase>
							<ntsc>TRUE</ntsc>
						</rate>
						<rate>
							<timebase>59</timebase>
							<ntsc>TRUE</ntsc>
						</rate>
						<duration>60</duration>
						<start>17547</start>
						<end>17607</end>
						<in>0</in>
						<out>60</out>
					</clipitem>
					<clipitem frameBlend="FALSE" id="clipitem-telop-2055">
						<file id="file-2"/>
						<name>！</name>
						<rate>
							<timebase>59</timebase>
							<ntsc>TRUE</ntsc>
						</rate>
						<rate>
							<timebase>59</timebase>
							<ntsc>TRUE</ntsc>
						</rate>
						<duration>66</duration>
						<start>17607</start>
						<end>17673</end>
						<in>0</in>
						<out>66</out>
					</clipitem>
					<clipitem frameBlend="FALSE" id="clipitem-telop-2067">
						<file id="file-2"/>
						<name>！</name>
						<rate>
							<timebase>59</timebase>
							<ntsc>TRUE</ntsc>
						</rate>
						<rate>
							<timebase>59</timebase>
							<ntsc>TRUE</ntsc>
						</rate>
						<duration>60</duration>
						<start>17757</start>
						<end>17817</end>
						<in>0</in>
						<out>60</out>
					</clipitem>
					<clipitem frameBlend="FALSE" id="clipitem-telop-2081">
						<file id="file-2"/>
						<name>！</name>
						<rate>
							<timebase>59</timebase>
							<ntsc>TRUE</ntsc>
						</rate>
						<rate>
							<timebase>59</timebase>
							<ntsc>TRUE</ntsc>
						</rate>
						<duration>60</duration>
						<start>17895</start>
						<end>17955</end>
						<in>0</in>
						<out>60</out>
					</clipitem>
					<clipitem frameBlend="FALSE" id="clipitem-telop-2091">
						<file id="file-2"/>
						<name>！</name>
						<rate>
							<timebase>59</timebase>
							<ntsc>TRUE</ntsc>
						</rate>
						<rate>
							<timebase>59</timebase>
							<ntsc>TRUE</ntsc>
						</rate>
						<duration>60</duration>
						<start>17961</start>
						<end>18021</end>
						<in>0</in>
						<out>60</out>
					</clipitem>
					<clipitem frameBlend="FALSE" id="clipitem-telop-2102">
						<file id="file-2"/>
						<name>！</name>
						<rate>
							<timebase>59</timebase>
							<ntsc>TRUE</ntsc>
						</rate>
						<rate>
							<timebase>59</timebase>
							<ntsc>TRUE</ntsc>
						</rate>
						<duration>66</duration>
						<start>18051</start>
						<end>18117</end>
						<in>0</in>
						<out>66</out>
					</clipitem>
					<clipitem frameBlend="FALSE" id="clipitem-telop-2110">
						<file id="file-2"/>
						<name>！</name>
						<rate>
							<timebase>59</timebase>
							<ntsc>TRUE</ntsc>
						</rate>
						<rate>
							<timebase>59</timebase>
							<ntsc>TRUE</ntsc>
						</rate>
						<duration>60</duration>
						<start>18129</start>
						<end>18189</end>
						<in>0</in>
						<out>60</out>
					</clipitem>
					<clipitem frameBlend="FALSE" id="clipitem-telop-2118">
						<file id="file-2"/>
						<name>！</name>
						<rate>
							<timebase>59</timebase>
							<ntsc>TRUE</ntsc>
						</rate>
						<rate>
							<timebase>59</timebase>
							<ntsc>TRUE</ntsc>
						</rate>
						<duration>60</duration>
						<start>18189</start>
						<end>18249</end>
						<in>0</in>
						<out>60</out>
					</clipitem>
					<clipitem frameBlend="FALSE" id="clipitem-telop-2134">
						<file id="file-2"/>
						<name>！</name>
						<rate>
							<timebase>59</timebase>
							<ntsc>TRUE</ntsc>
						</rate>
						<rate>
							<timebase>59</timebase>
							<ntsc>TRUE</ntsc>
						</rate>
						<duration>60</duration>
						<start>18375</start>
						<end>18435</end>
						<in>0</in>
						<out>60</out>
					</clipitem>
					<clipitem frameBlend="FALSE" id="clipitem-telop-2145">
						<file id="file-2"/>
						<name>！</name>
						<rate>
							<timebase>59</timebase>
							<ntsc>TRUE</ntsc>
						</rate>
						<rate>
							<timebase>59</timebase>
							<ntsc>TRUE</ntsc>
						</rate>
						<duration>60</duration>
						<start>18501</start>
						<end>18561</end>
						<in>0</in>
						<out>60</out>
					</clipitem>
					<clipitem frameBlend="FALSE" id="clipitem-telop-2154">
						<file id="file-2"/>
						<name>！</name>
						<rate>
							<timebase>59</timebase>
							<ntsc>TRUE</ntsc>
						</rate>
						<rate>
							<timebase>59</timebase>
							<ntsc>TRUE</ntsc>
						</rate>
						<duration>60</duration>
						<start>18585</start>
						<end>18645</end>
						<in>0</in>
						<out>60</out>
					</clipitem>
					<clipitem frameBlend="FALSE" id="clipitem-telop-2171">
						<file id="file-2"/>
						<name>！</name>
						<rate>
							<timebase>59</timebase>
							<ntsc>TRUE</ntsc>
						</rate>
						<rate>
							<timebase>59</timebase>
							<ntsc>TRUE</ntsc>
						</rate>
						<duration>60</duration>
						<start>18777</start>
						<end>18837</end>
						<in>0</in>
						<out>60</out>
					</clipitem>
					<clipitem frameBlend="FALSE" id="clipitem-telop-2190">
						<file id="file-2"/>
						<name>！</name>
						<rate>
							<timebase>59</timebase>
							<ntsc>TRUE</ntsc>
						</rate>
						<rate>
							<timebase>59</timebase>
							<ntsc>TRUE</ntsc>
						</rate>
						<duration>60</duration>
						<start>19029</start>
						<end>19089</end>
						<in>0</in>
						<out>60</out>
					</clipitem>
					<clipitem frameBlend="FALSE" id="clipitem-telop-2203">
						<file id="file-2"/>
						<name>！</name>
						<rate>
							<timebase>59</timebase>
							<ntsc>TRUE</ntsc>
						</rate>
						<rate>
							<timebase>59</timebase>
							<ntsc>TRUE</ntsc>
						</rate>
						<duration>60</duration>
						<start>19113</start>
						<end>19173</end>
						<in>0</in>
						<out>60</out>
					</clipitem>
					<clipitem frameBlend="FALSE" id="clipitem-telop-2220">
						<file id="file-2"/>
						<name>！</name>
						<rate>
							<timebase>59</timebase>
							<ntsc>TRUE</ntsc>
						</rate>
						<rate>
							<timebase>59</timebase>
							<ntsc>TRUE</ntsc>
						</rate>
						<duration>60</duration>
						<start>19317</start>
						<end>19377</end>
						<in>0</in>
						<out>60</out>
					</clipitem>
					<clipitem frameBlend="FALSE" id="clipitem-telop-2235">
						<file id="file-2"/>
						<name>！</name>
						<rate>
							<timebase>59</timebase>
							<ntsc>TRUE</ntsc>
						</rate>
						<rate>
							<timebase>59</timebase>
							<ntsc>TRUE</ntsc>
						</rate>
						<duration>60</duration>
						<start>19395</start>
						<end>19455</end>
						<in>0</in>
						<out>60</out>
					</clipitem>
					<clipitem frameBlend="FALSE" id="clipitem-telop-2242">
						<file id="file-2"/>
						<name>！</name>
						<rate>
							<timebase>59</timebase>
							<ntsc>TRUE</ntsc>
						</rate>
						<rate>
							<timebase>59</timebase>
							<ntsc>TRUE</ntsc>
						</rate>
						<duration>66</duration>
						<start>19467</start>
						<end>19533</end>
						<in>0</in>
						<out>66</out>
					</clipitem>
					<clipitem frameBlend="FALSE" id="clipitem-telop-2257">
						<file id="file-2"/>
						<name>！</name>
						<rate>
							<timebase>59</timebase>
							<ntsc>TRUE</ntsc>
						</rate>
						<rate>
							<timebase>59</timebase>
							<ntsc>TRUE</ntsc>
						</rate>
						<duration>60</duration>
						<start>19611</start>
						<end>19671</end>
						<in>0</in>
						<out>60</out>
					</clipitem>
					<clipitem frameBlend="FALSE" id="clipitem-telop-2269">
						<file id="file-2"/>
						<name>！</name>
						<rate>
							<timebase>59</timebase>
							<ntsc>TRUE</ntsc>
						</rate>
						<rate>
							<timebase>59</timebase>
							<ntsc>TRUE</ntsc>
						</rate>
						<duration>60</duration>
						<start>19671</start>
						<end>19731</end>
						<in>0</in>
						<out>60</out>
					</clipitem>
					<clipitem frameBlend="FALSE" id="clipitem-telop-2276">
						<file id="file-2"/>
						<name>！</name>
						<rate>
							<timebase>59</timebase>
							<ntsc>TRUE</ntsc>
						</rate>
						<rate>
							<timebase>59</timebase>
							<ntsc>TRUE</ntsc>
						</rate>
						<duration>60</duration>
						<start>19737</start>
						<end>19797</end>
						<in>0</in>
						<out>60</out>
					</clipitem>
					<clipitem frameBlend="FALSE" id="clipitem-telop-2284">
						<file id="file-2"/>
						<name>！</name>
						<rate>
							<timebase>59</timebase>
							<ntsc>TRUE</ntsc>
						</rate>
						<rate>
							<timebase>59</timebase>
							<ntsc>TRUE</ntsc>
						</rate>
						<duration>60</duration>
						<start>19821</start>
						<end>19881</end>
						<in>0</in>
						<out>60</out>
					</clipitem>
					<clipitem frameBlend="FALSE" id="clipitem-telop-2302">
						<file id="file-2"/>
						<name>！</name>
						<rate>
							<timebase>59</timebase>
							<ntsc>TRUE</ntsc>
						</rate>
						<rate>
							<timebase>59</timebase>
							<ntsc>TRUE</ntsc>
						</rate>
						<duration>66</duration>
						<start>19953</start>
						<end>20019</end>
						<in>0</in>
						<out>66</out>
					</clipitem>
					<clipitem frameBlend="FALSE" id="clipitem-telop-2315">
						<file id="file-2"/>
						<name>！</name>
						<rate>
							<timebase>59</timebase>
							<ntsc>TRUE</ntsc>
						</rate>
						<rate>
							<timebase>59</timebase>
							<ntsc>TRUE</ntsc>
						</rate>
						<duration>60</duration>
						<start>20067</start>
						<end>20127</end>
						<in>0</in>
						<out>60</out>
					</clipitem>
					<clipitem frameBlend="FALSE" id="clipitem-telop-2324">
						<file id="file-2"/>
						<name>！</name>
						<rate>
							<timebase>59</timebase>
							<ntsc>TRUE</ntsc>
						</rate>
						<rate>
							<timebase>59</timebase>
							<ntsc>TRUE</ntsc>
						</rate>
						<duration>66</duration>
						<start>20145</start>
						<end>20211</end>
						<in>0</in>
						<out>66</out>
					</clipitem>
					<clipitem frameBlend="FALSE" id="clipitem-telop-2332">
						<file id="file-2"/>
						<name>！</name>
						<rate>
							<timebase>59</timebase>
							<ntsc>TRUE</ntsc>
						</rate>
						<rate>
							<timebase>59</timebase>
							<ntsc>TRUE</ntsc>
						</rate>
						<duration>60</duration>
						<start>20217</start>
						<end>20277</end>
						<in>0</in>
						<out>60</out>
					</clipitem>
					<clipitem frameBlend="FALSE" id="clipitem-telop-2345">
						<file id="file-2"/>
						<name>！</name>
						<rate>
							<timebase>59</timebase>
							<ntsc>TRUE</ntsc>
						</rate>
						<rate>
							<timebase>59</timebase>
							<ntsc>TRUE</ntsc>
						</rate>
						<duration>60</duration>
						<start>20295</start>
						<end>20355</end>
						<in>0</in>
						<out>60</out>
					</clipitem>
					<clipitem frameBlend="FALSE" id="clipitem-telop-2352">
						<file id="file-2"/>
						<name>！</name>
						<rate>
							<timebase>59</timebase>
							<ntsc>TRUE</ntsc>
						</rate>
						<rate>
							<timebase>59</timebase>
							<ntsc>TRUE</ntsc>
						</rate>
						<duration>60</duration>
						<start>20361</start>
						<end>20421</end>
						<in>0</in>
						<out>60</out>
					</clipitem>
					<clipitem frameBlend="FALSE" id="clipitem-telop-2365">
						<file id="file-2"/>
						<name>！</name>
						<rate>
							<timebase>59</timebase>
							<ntsc>TRUE</ntsc>
						</rate>
						<rate>
							<timebase>59</timebase>
							<ntsc>TRUE</ntsc>
						</rate>
						<duration>66</duration>
						<start>20433</start>
						<end>20499</end>
						<in>0</in>
						<out>66</out>
					</clipitem>
					<clipitem frameBlend="FALSE" id="clipitem-telop-2374">
						<file id="file-2"/>
						<name>！</name>
						<rate>
							<timebase>59</timebase>
							<ntsc>TRUE</ntsc>
						</rate>
						<rate>
							<timebase>59</timebase>
							<ntsc>TRUE</ntsc>
						</rate>
						<duration>66</duration>
						<start>20505</start>
						<end>20571</end>
						<in>0</in>
						<out>66</out>
					</clipitem>
					<clipitem frameBlend="FALSE" id="clipitem-telop-2392">
						<file id="file-2"/>
						<name>！</name>
						<rate>
							<timebase>59</timebase>
							<ntsc>TRUE</ntsc>
						</rate>
						<rate>
							<timebase>59</timebase>
							<ntsc>TRUE</ntsc>
						</rate>
						<duration>66</duration>
						<start>20703</start>
						<end>20769</end>
						<in>0</in>
						<out>66</out>
					</clipitem>
					<clipitem frameBlend="FALSE" id="clipitem-telop-2400">
						<file id="file-2"/>
						<name>！</name>
						<rate>
							<timebase>59</timebase>
							<ntsc>TRUE</ntsc>
						</rate>
						<rate>
							<timebase>59</timebase>
							<ntsc>TRUE</ntsc>
						</rate>
						<duration>60</duration>
						<start>20793</start>
						<end>20853</end>
						<in>0</in>
						<out>60</out>
					</clipitem>
					<clipitem frameBlend="FALSE" id="clipitem-telop-2409">
						<file id="file-2"/>
						<name>！</name>
						<rate>
							<timebase>59</timebase>
							<ntsc>TRUE</ntsc>
						</rate>
						<rate>
							<timebase>59</timebase>
							<ntsc>TRUE</ntsc>
						</rate>
						<duration>60</duration>
						<start>20859</start>
						<end>20919</end>
						<in>0</in>
						<out>60</out>
					</clipitem>
					<clipitem frameBlend="FALSE" id="clipitem-telop-2419">
						<file id="file-2"/>
						<name>w</name>
						<rate>
							<timebase>59</timebase>
							<ntsc>TRUE</ntsc>
						</rate>
						<rate>
							<timebase>59</timebase>
							<ntsc>TRUE</ntsc>
						</rate>
						<duration>30</duration>
						<start>20961</start>
						<end>20991</end>
						<in>0</in>
						<out>30</out>
					</clipitem>
					<clipitem frameBlend="FALSE" id="clipitem-telop-2430">
						<file id="file-2"/>
						<name>！</name>
						<rate>
							<timebase>59</timebase>
							<ntsc>TRUE</ntsc>
						</rate>
						<rate>
							<timebase>59</timebase>
							<ntsc>TRUE</ntsc>
						</rate>
						<duration>60</duration>
						<start>21033</start>
						<end>21093</end>
						<in>0</in>
						<out>60</out>
					</clipitem>
					<clipitem frameBlend="FALSE" id="clipitem-telop-2445">
						<file id="file-2"/>
						<name>！</name>
						<rate>
							<timebase>59</timebase>
							<ntsc>TRUE</ntsc>
						</rate>
						<rate>
							<timebase>59</timebase>
							<ntsc>TRUE</ntsc>
						</rate>
						<duration>60</duration>
						<start>21099</start>
						<end>21159</end>
						<in>0</in>
						<out>60</out>
					</clipitem>
					<clipitem frameBlend="FALSE" id="clipitem-telop-2464">
						<file id="file-2"/>
						<name>！</name>
						<rate>
							<timebase>59</timebase>
							<ntsc>TRUE</ntsc>
						</rate>
						<rate>
							<timebase>59</timebase>
							<ntsc>TRUE</ntsc>
						</rate>
						<duration>60</duration>
						<start>21207</start>
						<end>21267</end>
						<in>0</in>
						<out>60</out>
					</clipitem>
					<clipitem frameBlend="FALSE" id="clipitem-telop-2481">
						<file id="file-2"/>
						<name>！</name>
						<rate>
							<timebase>59</timebase>
							<ntsc>TRUE</ntsc>
						</rate>
						<rate>
							<timebase>59</timebase>
							<ntsc>TRUE</ntsc>
						</rate>
						<duration>60</duration>
						<start>21309</start>
						<end>21369</end>
						<in>0</in>
						<out>60</out>
					</clipitem>
					<clipitem frameBlend="FALSE" id="clipitem-telop-2494">
						<file id="file-2"/>
						<name>！</name>
						<rate>
							<timebase>59</timebase>
							<ntsc>TRUE</ntsc>
						</rate>
						<rate>
							<timebase>59</timebase>
							<ntsc>TRUE</ntsc>
						</rate>
						<duration>60</duration>
						<start>21375</start>
						<end>21435</end>
						<in>0</in>
						<out>60</out>
					</clipitem>
					<clipitem frameBlend="FALSE" id="clipitem-telop-2504">
						<file id="file-2"/>
						<name>！</name>
						<rate>
							<timebase>59</timebase>
							<ntsc>TRUE</ntsc>
						</rate>
						<rate>
							<timebase>59</timebase>
							<ntsc>TRUE</ntsc>
						</rate>
						<duration>60</duration>
						<start>21441</start>
						<end>21501</end>
						<in>0</in>
						<out>60</out>
					</clipitem>
					<clipitem frameBlend="FALSE" id="clipitem-telop-2514">
						<file id="file-2"/>
						<name>！</name>
						<rate>
							<timebase>59</timebase>
							<ntsc>TRUE</ntsc>
						</rate>
						<rate>
							<timebase>59</timebase>
							<ntsc>TRUE</ntsc>
						</rate>
						<duration>60</duration>
						<start>21501</start>
						<end>21561</end>
						<in>0</in>
						<out>60</out>
					</clipitem>
					<clipitem frameBlend="FALSE" id="clipitem-telop-2522">
						<file id="file-2"/>
						<name>！</name>
						<rate>
							<timebase>59</timebase>
							<ntsc>TRUE</ntsc>
						</rate>
						<rate>
							<timebase>59</timebase>
							<ntsc>TRUE</ntsc>
						</rate>
						<duration>60</duration>
						<start>21567</start>
						<end>21627</end>
						<in>0</in>
						<out>60</out>
					</clipitem>
					<clipitem frameBlend="FALSE" id="clipitem-telop-2534">
						<file id="file-2"/>
						<name>！</name>
						<rate>
							<timebase>59</timebase>
							<ntsc>TRUE</ntsc>
						</rate>
						<rate>
							<timebase>59</timebase>
							<ntsc>TRUE</ntsc>
						</rate>
						<duration>60</duration>
						<start>21651</start>
						<end>21711</end>
						<in>0</in>
						<out>60</out>
					</clipitem>
					<clipitem frameBlend="FALSE" id="clipitem-telop-2547">
						<file id="file-2"/>
						<name>！</name>
						<rate>
							<timebase>59</timebase>
							<ntsc>TRUE</ntsc>
						</rate>
						<rate>
							<timebase>59</timebase>
							<ntsc>TRUE</ntsc>
						</rate>
						<duration>60</duration>
						<start>21729</start>
						<end>21789</end>
						<in>0</in>
						<out>60</out>
					</clipitem>
					<clipitem frameBlend="FALSE" id="clipitem-telop-2561">
						<file id="file-2"/>
						<name>！</name>
						<rate>
							<timebase>59</timebase>
							<ntsc>TRUE</ntsc>
						</rate>
						<rate>
							<timebase>59</timebase>
							<ntsc>TRUE</ntsc>
						</rate>
						<duration>60</duration>
						<start>21819</start>
						<end>21879</end>
						<in>0</in>
						<out>60</out>
					</clipitem>
					<clipitem frameBlend="FALSE" id="clipitem-telop-2574">
						<file id="file-2"/>
						<name>！</name>
						<rate>
							<timebase>59</timebase>
							<ntsc>TRUE</ntsc>
						</rate>
						<rate>
							<timebase>59</timebase>
							<ntsc>TRUE</ntsc>
						</rate>
						<duration>60</duration>
						<start>21885</start>
						<end>21945</end>
						<in>0</in>
						<out>60</out>
					</clipitem>
					<clipitem frameBlend="FALSE" id="clipitem-telop-2584">
						<file id="file-2"/>
						<name>！</name>
						<rate>
							<timebase>59</timebase>
							<ntsc>TRUE</ntsc>
						</rate>
						<rate>
							<timebase>59</timebase>
							<ntsc>TRUE</ntsc>
						</rate>
						<duration>66</duration>
						<start>21957</start>
						<end>22023</end>
						<in>0</in>
						<out>66</out>
					</clipitem>
					<clipitem frameBlend="FALSE" id="clipitem-telop-2593">
						<file id="file-2"/>
						<name>！</name>
						<rate>
							<timebase>59</timebase>
							<ntsc>TRUE</ntsc>
						</rate>
						<rate>
							<timebase>59</timebase>
							<ntsc>TRUE</ntsc>
						</rate>
						<duration>60</duration>
						<start>22029</start>
						<end>22089</end>
						<in>0</in>
						<out>60</out>
					</clipitem>
					<clipitem frameBlend="FALSE" id="clipitem-telop-2604">
						<file id="file-2"/>
						<name>w</name>
						<rate>
							<timebase>59</timebase>
							<ntsc>TRUE</ntsc>
						</rate>
						<rate>
							<timebase>59</timebase>
							<ntsc>TRUE</ntsc>
						</rate>
						<duration>30</duration>
						<start>22089</start>
						<end>22119</end>
						<in>0</in>
						<out>30</out>
					</clipitem>
					<clipitem frameBlend="FALSE" id="clipitem-telop-2611">
						<file id="file-2"/>
						<name>！</name>
						<rate>
							<timebase>59</timebase>
							<ntsc>TRUE</ntsc>
						</rate>
						<rate>
							<timebase>59</timebase>
							<ntsc>TRUE</ntsc>
						</rate>
						<duration>66</duration>
						<start>22119</start>
						<end>22185</end>
						<in>0</in>
						<out>66</out>
					</clipitem>
					<clipitem frameBlend="FALSE" id="clipitem-telop-2622">
						<file id="file-2"/>
						<name>！</name>
						<rate>
							<timebase>59</timebase>
							<ntsc>TRUE</ntsc>
						</rate>
						<rate>
							<timebase>59</timebase>
							<ntsc>TRUE</ntsc>
						</rate>
						<duration>60</duration>
						<start>22185</start>
						<end>22245</end>
						<in>0</in>
						<out>60</out>
					</clipitem>
					<clipitem frameBlend="FALSE" id="clipitem-telop-2636">
						<file id="file-2"/>
						<name>！</name>
						<rate>
							<timebase>59</timebase>
							<ntsc>TRUE</ntsc>
						</rate>
						<rate>
							<timebase>59</timebase>
							<ntsc>TRUE</ntsc>
						</rate>
						<duration>60</duration>
						<start>22287</start>
						<end>22347</end>
						<in>0</in>
						<out>60</out>
					</clipitem>
					<clipitem frameBlend="FALSE" id="clipitem-telop-2651">
						<file id="file-2"/>
						<name>！</name>
						<rate>
							<timebase>59</timebase>
							<ntsc>TRUE</ntsc>
						</rate>
						<rate>
							<timebase>59</timebase>
							<ntsc>TRUE</ntsc>
						</rate>
						<duration>60</duration>
						<start>22431</start>
						<end>22491</end>
						<in>0</in>
						<out>60</out>
					</clipitem>
					<clipitem frameBlend="FALSE" id="clipitem-telop-2665">
						<file id="file-2"/>
						<name>！</name>
						<rate>
							<timebase>59</timebase>
							<ntsc>TRUE</ntsc>
						</rate>
						<rate>
							<timebase>59</timebase>
							<ntsc>TRUE</ntsc>
						</rate>
						<duration>60</duration>
						<start>22515</start>
						<end>22575</end>
						<in>0</in>
						<out>60</out>
					</clipitem>
					<clipitem frameBlend="FALSE" id="clipitem-telop-2673">
						<file id="file-2"/>
						<name>！</name>
						<rate>
							<timebase>59</timebase>
							<ntsc>TRUE</ntsc>
						</rate>
						<rate>
							<timebase>59</timebase>
							<ntsc>TRUE</ntsc>
						</rate>
						<duration>60</duration>
						<start>22587</start>
						<end>22647</end>
						<in>0</in>
						<out>60</out>
					</clipitem>
					<clipitem frameBlend="FALSE" id="clipitem-telop-2684">
						<file id="file-2"/>
						<name>！</name>
						<rate>
							<timebase>59</timebase>
							<ntsc>TRUE</ntsc>
						</rate>
						<rate>
							<timebase>59</timebase>
							<ntsc>TRUE</ntsc>
						</rate>
						<duration>60</duration>
						<start>22677</start>
						<end>22737</end>
						<in>0</in>
						<out>60</out>
					</clipitem>
					<clipitem frameBlend="FALSE" id="clipitem-telop-2693">
						<file id="file-2"/>
						<name>！</name>
						<rate>
							<timebase>59</timebase>
							<ntsc>TRUE</ntsc>
						</rate>
						<rate>
							<timebase>59</timebase>
							<ntsc>TRUE</ntsc>
						</rate>
						<duration>60</duration>
						<start>22743</start>
						<end>22803</end>
						<in>0</in>
						<out>60</out>
					</clipitem>
					<clipitem frameBlend="FALSE" id="clipitem-telop-2704">
						<file id="file-2"/>
						<name>！</name>
						<rate>
							<timebase>59</timebase>
							<ntsc>TRUE</ntsc>
						</rate>
						<rate>
							<timebase>59</timebase>
							<ntsc>TRUE</ntsc>
						</rate>
						<duration>60</duration>
						<start>22839</start>
						<end>22899</end>
						<in>0</in>
						<out>60</out>
					</clipitem>
					<clipitem frameBlend="FALSE" id="clipitem-telop-2716">
						<file id="file-2"/>
						<name>！</name>
						<rate>
							<timebase>59</timebase>
							<ntsc>TRUE</ntsc>
						</rate>
						<rate>
							<timebase>59</timebase>
							<ntsc>TRUE</ntsc>
						</rate>
						<duration>60</duration>
						<start>22935</start>
						<end>22995</end>
						<in>0</in>
						<out>60</out>
					</clipitem>
					<clipitem frameBlend="FALSE" id="clipitem-telop-2728">
						<file id="file-2"/>
						<name>！</name>
						<rate>
							<timebase>59</timebase>
							<ntsc>TRUE</ntsc>
						</rate>
						<rate>
							<timebase>59</timebase>
							<ntsc>TRUE</ntsc>
						</rate>
						<duration>66</duration>
						<start>23007</start>
						<end>23073</end>
						<in>0</in>
						<out>66</out>
					</clipitem>
					<clipitem frameBlend="FALSE" id="clipitem-telop-2737">
						<file id="file-2"/>
						<name>！</name>
						<rate>
							<timebase>59</timebase>
							<ntsc>TRUE</ntsc>
						</rate>
						<rate>
							<timebase>59</timebase>
							<ntsc>TRUE</ntsc>
						</rate>
						<duration>60</duration>
						<start>23091</start>
						<end>23151</end>
						<in>0</in>
						<out>60</out>
					</clipitem>
					<clipitem frameBlend="FALSE" id="clipitem-telop-2750">
						<file id="file-2"/>
						<name>！</name>
						<rate>
							<timebase>59</timebase>
							<ntsc>TRUE</ntsc>
						</rate>
						<rate>
							<timebase>59</timebase>
							<ntsc>TRUE</ntsc>
						</rate>
						<duration>66</duration>
						<start>23193</start>
						<end>23259</end>
						<in>0</in>
						<out>66</out>
					</clipitem>
					<clipitem frameBlend="FALSE" id="clipitem-telop-2762">
						<file id="file-2"/>
						<name>！</name>
						<rate>
							<timebase>59</timebase>
							<ntsc>TRUE</ntsc>
						</rate>
						<rate>
							<timebase>59</timebase>
							<ntsc>TRUE</ntsc>
						</rate>
						<duration>60</duration>
						<start>23277</start>
						<end>23337</end>
						<in>0</in>
						<out>60</out>
					</clipitem>
					<clipitem frameBlend="FALSE" id="clipitem-telop-2772">
						<file id="file-2"/>
						<name>w</name>
						<rate>
							<timebase>59</timebase>
							<ntsc>TRUE</ntsc>
						</rate>
						<rate>
							<timebase>59</timebase>
							<ntsc>TRUE</ntsc>
						</rate>
						<duration>30</duration>
						<start>23343</start>
						<end>23373</end>
						<in>0</in>
						<out>30</out>
					</clipitem>
					<clipitem frameBlend="FALSE" id="clipitem-telop-2779">
						<file id="file-2"/>
						<name>！</name>
						<rate>
							<timebase>59</timebase>
							<ntsc>TRUE</ntsc>
						</rate>
						<rate>
							<timebase>59</timebase>
							<ntsc>TRUE</ntsc>
						</rate>
						<duration>60</duration>
						<start>23379</start>
						<end>23439</end>
						<in>0</in>
						<out>60</out>
					</clipitem>
					<clipitem frameBlend="FALSE" id="clipitem-telop-2788">
						<file id="file-2"/>
						<name>w</name>
						<rate>
							<timebase>59</timebase>
							<ntsc>TRUE</ntsc>
						</rate>
						<rate>
							<timebase>59</timebase>
							<ntsc>TRUE</ntsc>
						</rate>
						<duration>30</duration>
						<start>23439</start>
						<end>23469</end>
						<in>0</in>
						<out>30</out>
					</clipitem>
					<clipitem frameBlend="FALSE" id="clipitem-telop-2801">
						<file id="file-2"/>
						<name>！</name>
						<rate>
							<timebase>59</timebase>
							<ntsc>TRUE</ntsc>
						</rate>
						<rate>
							<timebase>59</timebase>
							<ntsc>TRUE</ntsc>
						</rate>
						<duration>60</duration>
						<start>23535</start>
						<end>23595</end>
						<in>0</in>
						<out>60</out>
					</clipitem>
					<clipitem frameBlend="FALSE" id="clipitem-telop-2810">
						<file id="file-2"/>
						<name>！</name>
						<rate>
							<timebase>59</timebase>
							<ntsc>TRUE</ntsc>
						</rate>
						<rate>
							<timebase>59</timebase>
							<ntsc>TRUE</ntsc>
						</rate>
						<duration>60</duration>
						<start>23631</start>
						<end>23691</end>
						<in>0</in>
						<out>60</out>
					</clipitem>
					<clipitem frameBlend="FALSE" id="clipitem-telop-2825">
						<file id="file-2"/>
						<name>！</name>
						<rate>
							<timebase>59</timebase>
							<ntsc>TRUE</ntsc>
						</rate>
						<rate>
							<timebase>59</timebase>
							<ntsc>TRUE</ntsc>
						</rate>
						<duration>60</duration>
						<start>23739</start>
						<end>23799</end>
						<in>0</in>
						<out>60</out>
					</clipitem>
					<clipitem frameBlend="FALSE" id="clipitem-telop-2838">
						<file id="file-2"/>
						<name>！</name>
						<rate>
							<timebase>59</timebase>
							<ntsc>TRUE</ntsc>
						</rate>
						<rate>
							<timebase>59</timebase>
							<ntsc>TRUE</ntsc>
						</rate>
						<duration>60</duration>
						<start>23805</start>
						<end>23865</end>
						<in>0</in>
						<out>60</out>
					</clipitem>
					<clipitem frameBlend="FALSE" id="clipitem-telop-2851">
						<file id="file-2"/>
						<name>！</name>
						<rate>
							<timebase>59</timebase>
							<ntsc>TRUE</ntsc>
						</rate>
						<rate>
							<timebase>59</timebase>
							<ntsc>TRUE</ntsc>
						</rate>
						<duration>60</duration>
						<start>23865</start>
						<end>23925</end>
						<in>0</in>
						<out>60</out>
					</clipitem>
					<clipitem frameBlend="FALSE" id="clipitem-telop-2867">
						<file id="file-2"/>
						<name>！</name>
						<rate>
							<timebase>59</timebase>
							<ntsc>TRUE</ntsc>
						</rate>
						<rate>
							<timebase>59</timebase>
							<ntsc>TRUE</ntsc>
						</rate>
						<duration>60</duration>
						<start>23991</start>
						<end>24051</end>
						<in>0</in>
						<out>60</out>
					</clipitem>
					<clipitem frameBlend="FALSE" id="clipitem-telop-2876">
						<file id="file-2"/>
						<name>！</name>
						<rate>
							<timebase>59</timebase>
							<ntsc>TRUE</ntsc>
						</rate>
						<rate>
							<timebase>59</timebase>
							<ntsc>TRUE</ntsc>
						</rate>
						<duration>60</duration>
						<start>24057</start>
						<end>24117</end>
						<in>0</in>
						<out>60</out>
					</clipitem>
					<clipitem frameBlend="FALSE" id="clipitem-telop-2889">
						<file id="file-2"/>
						<name>！</name>
						<rate>
							<timebase>59</timebase>
							<ntsc>TRUE</ntsc>
						</rate>
						<rate>
							<timebase>59</timebase>
							<ntsc>TRUE</ntsc>
						</rate>
						<duration>60</duration>
						<start>24123</start>
						<end>24183</end>
						<in>0</in>
						<out>60</out>
					</clipitem>
					<clipitem frameBlend="FALSE" id="clipitem-telop-2902">
						<file id="file-2"/>
						<name>！</name>
						<rate>
							<timebase>59</timebase>
							<ntsc>TRUE</ntsc>
						</rate>
						<rate>
							<timebase>59</timebase>
							<ntsc>TRUE</ntsc>
						</rate>
						<duration>60</duration>
						<start>24207</start>
						<end>24267</end>
						<in>0</in>
						<out>60</out>
					</clipitem>
					<clipitem frameBlend="FALSE" id="clipitem-telop-2919">
						<file id="file-2"/>
						<name>！</name>
						<rate>
							<timebase>59</timebase>
							<ntsc>TRUE</ntsc>
						</rate>
						<rate>
							<timebase>59</timebase>
							<ntsc>TRUE</ntsc>
						</rate>
						<duration>60</duration>
						<start>24315</start>
						<end>24375</end>
						<in>0</in>
						<out>60</out>
					</clipitem>
					<clipitem frameBlend="FALSE" id="clipitem-telop-2931">
						<file id="file-2"/>
						<name>！</name>
						<rate>
							<timebase>59</timebase>
							<ntsc>TRUE</ntsc>
						</rate>
						<rate>
							<timebase>59</timebase>
							<ntsc>TRUE</ntsc>
						</rate>
						<duration>60</duration>
						<start>24393</start>
						<end>24453</end>
						<in>0</in>
						<out>60</out>
					</clipitem>
					<clipitem frameBlend="FALSE" id="clipitem-telop-2937">
						<file id="file-2"/>
						<name>w</name>
						<rate>
							<timebase>59</timebase>
							<ntsc>TRUE</ntsc>
						</rate>
						<rate>
							<timebase>59</timebase>
							<ntsc>TRUE</ntsc>
						</rate>
						<duration>30</duration>
						<start>24459</start>
						<end>24489</end>
						<in>0</in>
						<out>30</out>
					</clipitem>
					<clipitem frameBlend="FALSE" id="clipitem-telop-2942">
						<file id="file-2"/>
						<name>！</name>
						<rate>
							<timebase>59</timebase>
							<ntsc>TRUE</ntsc>
						</rate>
						<rate>
							<timebase>59</timebase>
							<ntsc>TRUE</ntsc>
						</rate>
						<duration>42</duration>
						<start>24495</start>
						<end>24537</end>
						<in>0</in>
						<out>42</out>
					</clipitem>
				</track>
				<track>
					<clipitem frameBlend="FALSE" id="clipitem-telop-10">
						<file id="file-2"/>
						<name>！</name>
						<rate>
							<timebase>59</timebase>
							<ntsc>TRUE</ntsc>
						</rate>
						<rate>
							<timebase>59</timebase>
							<ntsc>TRUE</ntsc>
						</rate>
						<duration>60</duration>
						<start>77</start>
						<end>137</end>
						<in>0</in>
						<out>60</out>
					</clipitem>
					<clipitem frameBlend="FALSE" id="clipitem-telop-23">
						<file id="file-2"/>
						<name>！</name>
						<rate>
							<timebase>59</timebase>
							<ntsc>TRUE</ntsc>
						</rate>
						<rate>
							<timebase>59</timebase>
							<ntsc>TRUE</ntsc>
						</rate>
						<duration>66</duration>
						<start>197</start>
						<end>263</end>
						<in>0</in>
						<out>66</out>
					</clipitem>
					<clipitem frameBlend="FALSE" id="clipitem-telop-30">
						<file id="file-2"/>
						<name>！</name>
						<rate>
							<timebase>59</timebase>
							<ntsc>TRUE</ntsc>
						</rate>
						<rate>
							<timebase>59</timebase>
							<ntsc>TRUE</ntsc>
						</rate>
						<duration>60</duration>
						<start>263</start>
						<end>323</end>
						<in>0</in>
						<out>60</out>
					</clipitem>
					<clipitem frameBlend="FALSE" id="clipitem-telop-38">
						<file id="file-2"/>
						<name>！</name>
						<rate>
							<timebase>59</timebase>
							<ntsc>TRUE</ntsc>
						</rate>
						<rate>
							<timebase>59</timebase>
							<ntsc>TRUE</ntsc>
						</rate>
						<duration>60</duration>
						<start>341</start>
						<end>401</end>
						<in>0</in>
						<out>60</out>
					</clipitem>
					<clipitem frameBlend="FALSE" id="clipitem-telop-47">
						<file id="file-2"/>
						<name>！</name>
						<rate>
							<timebase>59</timebase>
							<ntsc>TRUE</ntsc>
						</rate>
						<rate>
							<timebase>59</timebase>
							<ntsc>TRUE</ntsc>
						</rate>
						<duration>60</duration>
						<start>419</start>
						<end>479</end>
						<in>0</in>
						<out>60</out>
					</clipitem>
					<clipitem frameBlend="FALSE" id="clipitem-telop-57">
						<file id="file-2"/>
						<name>！</name>
						<rate>
							<timebase>59</timebase>
							<ntsc>TRUE</ntsc>
						</rate>
						<rate>
							<timebase>59</timebase>
							<ntsc>TRUE</ntsc>
						</rate>
						<duration>60</duration>
						<start>521</start>
						<end>581</end>
						<in>0</in>
						<out>60</out>
					</clipitem>
					<clipitem frameBlend="FALSE" id="clipitem-telop-72">
						<file id="file-2"/>
						<name>！</name>
						<rate>
							<timebase>59</timebase>
							<ntsc>TRUE</ntsc>
						</rate>
						<rate>
							<timebase>59</timebase>
							<ntsc>TRUE</ntsc>
						</rate>
						<duration>60</duration>
						<start>623</start>
						<end>683</end>
						<in>0</in>
						<out>60</out>
					</clipitem>
					<clipitem frameBlend="FALSE" id="clipitem-telop-86">
						<file id="file-2"/>
						<name>！</name>
						<rate>
							<timebase>59</timebase>
							<ntsc>TRUE</ntsc>
						</rate>
						<rate>
							<timebase>59</timebase>
							<ntsc>TRUE</ntsc>
						</rate>
						<duration>60</duration>
						<start>755</start>
						<end>815</end>
						<in>0</in>
						<out>60</out>
					</clipitem>
					<clipitem frameBlend="FALSE" id="clipitem-telop-102">
						<file id="file-2"/>
						<name>！</name>
						<rate>
							<timebase>59</timebase>
							<ntsc>TRUE</ntsc>
						</rate>
						<rate>
							<timebase>59</timebase>
							<ntsc>TRUE</ntsc>
						</rate>
						<duration>60</duration>
						<start>911</start>
						<end>971</end>
						<in>0</in>
						<out>60</out>
					</clipitem>
					<clipitem frameBlend="FALSE" id="clipitem-telop-111">
						<file id="file-2"/>
						<name>！</name>
						<rate>
							<timebase>59</timebase>
							<ntsc>TRUE</ntsc>
						</rate>
						<rate>
							<timebase>59</timebase>
							<ntsc>TRUE</ntsc>
						</rate>
						<duration>66</duration>
						<start>977</start>
						<end>1043</end>
						<in>0</in>
						<out>66</out>
					</clipitem>
					<clipitem frameBlend="FALSE" id="clipitem-telop-124">
						<file id="file-2"/>
						<name>！</name>
						<rate>
							<timebase>59</timebase>
							<ntsc>TRUE</ntsc>
						</rate>
						<rate>
							<timebase>59</timebase>
							<ntsc>TRUE</ntsc>
						</rate>
						<duration>60</duration>
						<start>1097</start>
						<end>1157</end>
						<in>0</in>
						<out>60</out>
					</clipitem>
					<clipitem frameBlend="FALSE" id="clipitem-telop-132">
						<file id="file-2"/>
						<name>！</name>
						<rate>
							<timebase>59</timebase>
							<ntsc>TRUE</ntsc>
						</rate>
						<rate>
							<timebase>59</timebase>
							<ntsc>TRUE</ntsc>
						</rate>
						<duration>60</duration>
						<start>1193</start>
						<end>1253</end>
						<in>0</in>
						<out>60</out>
					</clipitem>
					<clipitem frameBlend="FALSE" id="clipitem-telop-152">
						<file id="file-2"/>
						<name>！</name>
						<rate>
							<timebase>59</timebase>
							<ntsc>TRUE</ntsc>
						</rate>
						<rate>
							<timebase>59</timebase>
							<ntsc>TRUE</ntsc>
						</rate>
						<duration>66</duration>
						<start>1385</start>
						<end>1451</end>
						<in>0</in>
						<out>66</out>
					</clipitem>
					<clipitem frameBlend="FALSE" id="clipitem-telop-160">
						<file id="file-2"/>
						<name>！</name>
						<rate>
							<timebase>59</timebase>
							<ntsc>TRUE</ntsc>
						</rate>
						<rate>
							<timebase>59</timebase>
							<ntsc>TRUE</ntsc>
						</rate>
						<duration>60</duration>
						<start>1463</start>
						<end>1523</end>
						<in>0</in>
						<out>60</out>
					</clipitem>
					<clipitem frameBlend="FALSE" id="clipitem-telop-175">
						<file id="file-2"/>
						<name>！</name>
						<rate>
							<timebase>59</timebase>
							<ntsc>TRUE</ntsc>
						</rate>
						<rate>
							<timebase>59</timebase>
							<ntsc>TRUE</ntsc>
						</rate>
						<duration>60</duration>
						<start>1577</start>
						<end>1637</end>
						<in>0</in>
						<out>60</out>
					</clipitem>
					<clipitem frameBlend="FALSE" id="clipitem-telop-184">
						<file id="file-2"/>
						<name>！</name>
						<rate>
							<timebase>59</timebase>
							<ntsc>TRUE</ntsc>
						</rate>
						<rate>
							<timebase>59</timebase>
							<ntsc>TRUE</ntsc>
						</rate>
						<duration>60</duration>
						<start>1643</start>
						<end>1703</end>
						<in>0</in>
						<out>60</out>
					</clipitem>
					<clipitem frameBlend="FALSE" id="clipitem-telop-193">
						<file id="file-2"/>
						<name>！</name>
						<rate>
							<timebase>59</timebase>
							<ntsc>TRUE</ntsc>
						</rate>
						<rate>
							<timebase>59</timebase>
							<ntsc>TRUE</ntsc>
						</rate>
						<duration>60</duration>
						<start>1721</start>
						<end>1781</end>
						<in>0</in>
						<out>60</out>
					</clipitem>
					<clipitem frameBlend="FALSE" id="clipitem-telop-202">
						<file id="file-2"/>
						<name>！</name>
						<rate>
							<timebase>59</timebase>
							<ntsc>TRUE</ntsc>
						</rate>
						<rate>
							<timebase>59</timebase>
							<ntsc>TRUE</ntsc>
						</rate>
						<duration>60</duration>
						<start>1787</start>
						<end>1847</end>
						<in>0</in>
						<out>60</out>
					</clipitem>
					<clipitem frameBlend="FALSE" id="clipitem-telop-213">
						<file id="file-2"/>
						<name>！</name>
						<rate>
							<timebase>59</timebase>
							<ntsc>TRUE</ntsc>
						</rate>
						<rate>
							<timebase>59</timebase>
							<ntsc>TRUE</ntsc>
						</rate>
						<duration>60</duration>
						<start>1877</start>
						<end>1937</end>
						<in>0</in>
						<out>60</out>
					</clipitem>
					<clipitem frameBlend="FALSE" id="clipitem-telop-222">
						<file id="file-2"/>
						<name>！</name>
						<rate>
							<timebase>59</timebase>
							<ntsc>TRUE</ntsc>
						</rate>
						<rate>
							<timebase>59</timebase>
							<ntsc>TRUE</ntsc>
						</rate>
						<duration>60</duration>
						<start>1949</start>
						<end>2009</end>
						<in>0</in>
						<out>60</out>
					</clipitem>
					<clipitem frameBlend="FALSE" id="clipitem-telop-232">
						<file id="file-2"/>
						<name>！</name>
						<rate>
							<timebase>59</timebase>
							<ntsc>TRUE</ntsc>
						</rate>
						<rate>
							<timebase>59</timebase>
							<ntsc>TRUE</ntsc>
						</rate>
						<duration>60</duration>
						<start>2009</start>
						<end>2069</end>
						<in>0</in>
						<out>60</out>
					</clipitem>
					<clipitem frameBlend="FALSE" id="clipitem-telop-244">
						<file id="file-2"/>
						<name>！</name>
						<rate>
							<timebase>59</timebase>
							<ntsc>TRUE</ntsc>
						</rate>
						<rate>
							<timebase>59</timebase>
							<ntsc>TRUE</ntsc>
						</rate>
						<duration>60</duration>
						<start>2087</start>
						<end>2147</end>
						<in>0</in>
						<out>60</out>
					</clipitem>
					<clipitem frameBlend="FALSE" id="clipitem-telop-254">
						<file id="file-2"/>
						<name>！</name>
						<rate>
							<timebase>59</timebase>
							<ntsc>TRUE</ntsc>
						</rate>
						<rate>
							<timebase>59</timebase>
							<ntsc>TRUE</ntsc>
						</rate>
						<duration>60</duration>
						<start>2183</start>
						<end>2243</end>
						<in>0</in>
						<out>60</out>
					</clipitem>
					<clipitem frameBlend="FALSE" id="clipitem-telop-264">
						<file id="file-2"/>
						<name>！</name>
						<rate>
							<timebase>59</timebase>
							<ntsc>TRUE</ntsc>
						</rate>
						<rate>
							<timebase>59</timebase>
							<ntsc>TRUE</ntsc>
						</rate>
						<duration>60</duration>
						<start>2255</start>
						<end>2315</end>
						<in>0</in>
						<out>60</out>
					</clipitem>
					<clipitem frameBlend="FALSE" id="clipitem-telop-278">
						<file id="file-2"/>
						<name>！</name>
						<rate>
							<timebase>59</timebase>
							<ntsc>TRUE</ntsc>
						</rate>
						<rate>
							<timebase>59</timebase>
							<ntsc>TRUE</ntsc>
						</rate>
						<duration>66</duration>
						<start>2387</start>
						<end>2453</end>
						<in>0</in>
						<out>66</out>
					</clipitem>
					<clipitem frameBlend="FALSE" id="clipitem-telop-287">
						<file id="file-2"/>
						<name>！</name>
						<rate>
							<timebase>59</timebase>
							<ntsc>TRUE</ntsc>
						</rate>
						<rate>
							<timebase>59</timebase>
							<ntsc>TRUE</ntsc>
						</rate>
						<duration>60</duration>
						<start>2495</start>
						<end>2555</end>
						<in>0</in>
						<out>60</out>
					</clipitem>
					<clipitem frameBlend="FALSE" id="clipitem-telop-298">
						<file id="file-2"/>
						<name>！</name>
						<rate>
							<timebase>59</timebase>
							<ntsc>TRUE</ntsc>
						</rate>
						<rate>
							<timebase>59</timebase>
							<ntsc>TRUE</ntsc>
						</rate>
						<duration>60</duration>
						<start>2591</start>
						<end>2651</end>
						<in>0</in>
						<out>60</out>
					</clipitem>
					<clipitem frameBlend="FALSE" id="clipitem-telop-310">
						<file id="file-2"/>
						<name>！</name>
						<rate>
							<timebase>59</timebase>
							<ntsc>TRUE</ntsc>
						</rate>
						<rate>
							<timebase>59</timebase>
							<ntsc>TRUE</ntsc>
						</rate>
						<duration>60</duration>
						<start>2699</start>
						<end>2759</end>
						<in>0</in>
						<out>60</out>
					</clipitem>
					<clipitem frameBlend="FALSE" id="clipitem-telop-321">
						<file id="file-2"/>
						<name>！</name>
						<rate>
							<timebase>59</timebase>
							<ntsc>TRUE</ntsc>
						</rate>
						<rate>
							<timebase>59</timebase>
							<ntsc>TRUE</ntsc>
						</rate>
						<duration>66</duration>
						<start>2783</start>
						<end>2849</end>
						<in>0</in>
						<out>66</out>
					</clipitem>
					<clipitem frameBlend="FALSE" id="clipitem-telop-329">
						<file id="file-2"/>
						<name>！</name>
						<rate>
							<timebase>59</timebase>
							<ntsc>TRUE</ntsc>
						</rate>
						<rate>
							<timebase>59</timebase>
							<ntsc>TRUE</ntsc>
						</rate>
						<duration>66</duration>
						<start>2855</start>
						<end>2921</end>
						<in>0</in>
						<out>66</out>
					</clipitem>
					<clipitem frameBlend="FALSE" id="clipitem-telop-339">
						<file id="file-2"/>
						<name>！</name>
						<rate>
							<timebase>59</timebase>
							<ntsc>TRUE</ntsc>
						</rate>
						<rate>
							<timebase>59</timebase>
							<ntsc>TRUE</ntsc>
						</rate>
						<duration>60</duration>
						<start>2981</start>
						<end>3041</end>
						<in>0</in>
						<out>60</out>
					</clipitem>
					<clipitem frameBlend="FALSE" id="clipitem-telop-353">
						<file id="file-2"/>
						<name>！</name>
						<rate>
							<timebase>59</timebase>
							<ntsc>TRUE</ntsc>
						</rate>
						<rate>
							<timebase>59</timebase>
							<ntsc>TRUE</ntsc>
						</rate>
						<duration>60</duration>
						<start>3065</start>
						<end>3125</end>
						<in>0</in>
						<out>60</out>
					</clipitem>
					<clipitem frameBlend="FALSE" id="clipitem-telop-361">
						<file id="file-2"/>
						<name>！</name>
						<rate>
							<timebase>59</timebase>
							<ntsc>TRUE</ntsc>
						</rate>
						<rate>
							<timebase>59</timebase>
							<ntsc>TRUE</ntsc>
						</rate>
						<duration>60</duration>
						<start>3143</start>
						<end>3203</end>
						<in>0</in>
						<out>60</out>
					</clipitem>
					<clipitem frameBlend="FALSE" id="clipitem-telop-368">
						<file id="file-2"/>
						<name>！</name>
						<rate>
							<timebase>59</timebase>
							<ntsc>TRUE</ntsc>
						</rate>
						<rate>
							<timebase>59</timebase>
							<ntsc>TRUE</ntsc>
						</rate>
						<duration>60</duration>
						<start>3227</start>
						<end>3287</end>
						<in>0</in>
						<out>60</out>
					</clipitem>
					<clipitem frameBlend="FALSE" id="clipitem-telop-379">
						<file id="file-2"/>
						<name>！</name>
						<rate>
							<timebase>59</timebase>
							<ntsc>TRUE</ntsc>
						</rate>
						<rate>
							<timebase>59</timebase>
							<ntsc>TRUE</ntsc>
						</rate>
						<duration>60</duration>
						<start>3293</start>
						<end>3353</end>
						<in>0</in>
						<out>60</out>
					</clipitem>
					<clipitem frameBlend="FALSE" id="clipitem-telop-394">
						<file id="file-2"/>
						<name>！</name>
						<rate>
							<timebase>59</timebase>
							<ntsc>TRUE</ntsc>
						</rate>
						<rate>
							<timebase>59</timebase>
							<ntsc>TRUE</ntsc>
						</rate>
						<duration>60</duration>
						<start>3359</start>
						<end>3419</end>
						<in>0</in>
						<out>60</out>
					</clipitem>
					<clipitem frameBlend="FALSE" id="clipitem-telop-406">
						<file id="file-2"/>
						<name>w</name>
						<rate>
							<timebase>59</timebase>
							<ntsc>TRUE</ntsc>
						</rate>
						<rate>
							<timebase>59</timebase>
							<ntsc>TRUE</ntsc>
						</rate>
						<duration>30</duration>
						<start>3437</start>
						<end>3467</end>
						<in>0</in>
						<out>30</out>
					</clipitem>
					<clipitem frameBlend="FALSE" id="clipitem-telop-411">
						<file id="file-2"/>
						<name>！</name>
						<rate>
							<timebase>59</timebase>
							<ntsc>TRUE</ntsc>
						</rate>
						<rate>
							<timebase>59</timebase>
							<ntsc>TRUE</ntsc>
						</rate>
						<duration>60</duration>
						<start>3467</start>
						<end>3527</end>
						<in>0</in>
						<out>60</out>
					</clipitem>
					<clipitem frameBlend="FALSE" id="clipitem-telop-436">
						<file id="file-2"/>
						<name>！</name>
						<rate>
							<timebase>59</timebase>
							<ntsc>TRUE</ntsc>
						</rate>
						<rate>
							<timebase>59</timebase>
							<ntsc>TRUE</ntsc>
						</rate>
						<duration>60</duration>
						<start>3743</start>
						<end>3803</end>
						<in>0</in>
						<out>60</out>
					</clipitem>
					<clipitem frameBlend="FALSE" id="clipitem-telop-445">
						<file id="file-2"/>
						<name>！</name>
						<rate>
							<timebase>59</timebase>
							<ntsc>TRUE</ntsc>
						</rate>
						<rate>
							<timebase>59</timebase>
							<ntsc>TRUE</ntsc>
						</rate>
						<duration>60</duration>
						<start>3803</start>
						<end>3863</end>
						<in>0</in>
						<out>60</out>
					</clipitem>
					<clipitem frameBlend="FALSE" id="clipitem-telop-455">
						<file id="file-2"/>
						<name>！</name>
						<rate>
							<timebase>59</timebase>
							<ntsc>TRUE</ntsc>
						</rate>
						<rate>
							<timebase>59</timebase>
							<ntsc>TRUE</ntsc>
						</rate>
						<duration>60</duration>
						<start>3875</start>
						<end>3935</end>
						<in>0</in>
						<out>60</out>
					</clipitem>
					<clipitem frameBlend="FALSE" id="clipitem-telop-465">
						<file id="file-2"/>
						<name>！</name>
						<rate>
							<timebase>59</timebase>
							<ntsc>TRUE</ntsc>
						</rate>
						<rate>
							<timebase>59</timebase>
							<ntsc>TRUE</ntsc>
						</rate>
						<duration>66</duration>
						<start>3935</start>
						<end>4001</end>
						<in>0</in>
						<out>66</out>
					</clipitem>
					<clipitem frameBlend="FALSE" id="clipitem-telop-475">
						<file id="file-2"/>
						<name>！</name>
						<rate>
							<timebase>59</timebase>
							<ntsc>TRUE</ntsc>
						</rate>
						<rate>
							<timebase>59</timebase>
							<ntsc>TRUE</ntsc>
						</rate>
						<duration>66</duration>
						<start>4019</start>
						<end>4085</end>
						<in>0</in>
						<out>66</out>
					</clipitem>
					<clipitem frameBlend="FALSE" id="clipitem-telop-482">
						<file id="file-2"/>
						<name>！</name>
						<rate>
							<timebase>59</timebase>
							<ntsc>TRUE</ntsc>
						</rate>
						<rate>
							<timebase>59</timebase>
							<ntsc>TRUE</ntsc>
						</rate>
						<duration>60</duration>
						<start>4103</start>
						<end>4163</end>
						<in>0</in>
						<out>60</out>
					</clipitem>
					<clipitem frameBlend="FALSE" id="clipitem-telop-490">
						<file id="file-2"/>
						<name>！</name>
						<rate>
							<timebase>59</timebase>
							<ntsc>TRUE</ntsc>
						</rate>
						<rate>
							<timebase>59</timebase>
							<ntsc>TRUE</ntsc>
						</rate>
						<duration>60</duration>
						<start>4187</start>
						<end>4247</end>
						<in>0</in>
						<out>60</out>
					</clipitem>
					<clipitem frameBlend="FALSE" id="clipitem-telop-501">
						<file id="file-2"/>
						<name>なんかミルクめっちゃ無いだんだけど</name>
						<rate>
							<timebase>59</timebase>
							<ntsc>TRUE</ntsc>
						</rate>
						<rate>
							<timebase>59</timebase>
							<ntsc>TRUE</ntsc>
						</rate>
						<duration>120</duration>
						<start>4313</start>
						<end>4433</end>
						<in>0</in>
						<out>120</out>
					</clipitem>
					<clipitem frameBlend="FALSE" id="clipitem-telop-519">
						<file id="file-2"/>
						<name>！</name>
						<rate>
							<timebase>59</timebase>
							<ntsc>TRUE</ntsc>
						</rate>
						<rate>
							<timebase>59</timebase>
							<ntsc>TRUE</ntsc>
						</rate>
						<duration>60</duration>
						<start>4439</start>
						<end>4499</end>
						<in>0</in>
						<out>60</out>
					</clipitem>
					<clipitem frameBlend="FALSE" id="clipitem-telop-533">
						<file id="file-2"/>
						<name>w</name>
						<rate>
							<timebase>59</timebase>
							<ntsc>TRUE</ntsc>
						</rate>
						<rate>
							<timebase>59</timebase>
							<ntsc>TRUE</ntsc>
						</rate>
						<duration>24</duration>
						<start>4553</start>
						<end>4577</end>
						<in>0</in>
						<out>24</out>
					</clipitem>
					<clipitem frameBlend="FALSE" id="clipitem-telop-540">
						<file id="file-2"/>
						<name>！</name>
						<rate>
							<timebase>59</timebase>
							<ntsc>TRUE</ntsc>
						</rate>
						<rate>
							<timebase>59</timebase>
							<ntsc>TRUE</ntsc>
						</rate>
						<duration>66</duration>
						<start>4589</start>
						<end>4655</end>
						<in>0</in>
						<out>66</out>
					</clipitem>
					<clipitem frameBlend="FALSE" id="clipitem-telop-558">
						<file id="file-2"/>
						<name>！</name>
						<rate>
							<timebase>59</timebase>
							<ntsc>TRUE</ntsc>
						</rate>
						<rate>
							<timebase>59</timebase>
							<ntsc>TRUE</ntsc>
						</rate>
						<duration>66</duration>
						<start>4697</start>
						<end>4763</end>
						<in>0</in>
						<out>66</out>
					</clipitem>
					<clipitem frameBlend="FALSE" id="clipitem-telop-567">
						<file id="file-2"/>
						<name>！</name>
						<rate>
							<timebase>59</timebase>
							<ntsc>TRUE</ntsc>
						</rate>
						<rate>
							<timebase>59</timebase>
							<ntsc>TRUE</ntsc>
						</rate>
						<duration>60</duration>
						<start>4787</start>
						<end>4847</end>
						<in>0</in>
						<out>60</out>
					</clipitem>
					<clipitem frameBlend="FALSE" id="clipitem-telop-581">
						<file id="file-2"/>
						<name>！</name>
						<rate>
							<timebase>59</timebase>
							<ntsc>TRUE</ntsc>
						</rate>
						<rate>
							<timebase>59</timebase>
							<ntsc>TRUE</ntsc>
						</rate>
						<duration>66</duration>
						<start>4859</start>
						<end>4925</end>
						<in>0</in>
						<out>66</out>
					</clipitem>
					<clipitem frameBlend="FALSE" id="clipitem-telop-595">
						<file id="file-2"/>
						<name>w</name>
						<rate>
							<timebase>59</timebase>
							<ntsc>TRUE</ntsc>
						</rate>
						<rate>
							<timebase>59</timebase>
							<ntsc>TRUE</ntsc>
						</rate>
						<duration>24</duration>
						<start>4943</start>
						<end>4967</end>
						<in>0</in>
						<out>24</out>
					</clipitem>
					<clipitem frameBlend="FALSE" id="clipitem-telop-602">
						<file id="file-2"/>
						<name>w</name>
						<rate>
							<timebase>59</timebase>
							<ntsc>TRUE</ntsc>
						</rate>
						<rate>
							<timebase>59</timebase>
							<ntsc>TRUE</ntsc>
						</rate>
						<duration>30</duration>
						<start>4967</start>
						<end>4997</end>
						<in>0</in>
						<out>30</out>
					</clipitem>
					<clipitem frameBlend="FALSE" id="clipitem-telop-611">
						<file id="file-2"/>
						<name>w</name>
						<rate>
							<timebase>59</timebase>
							<ntsc>TRUE</ntsc>
						</rate>
						<rate>
							<timebase>59</timebase>
							<ntsc>TRUE</ntsc>
						</rate>
						<duration>30</duration>
						<start>5009</start>
						<end>5039</end>
						<in>0</in>
						<out>30</out>
					</clipitem>
					<clipitem frameBlend="FALSE" id="clipitem-telop-615">
						<file id="file-2"/>
						<name>！</name>
						<rate>
							<timebase>59</timebase>
							<ntsc>TRUE</ntsc>
						</rate>
						<rate>
							<timebase>59</timebase>
							<ntsc>TRUE</ntsc>
						</rate>
						<duration>60</duration>
						<start>5045</start>
						<end>5105</end>
						<in>0</in>
						<out>60</out>
					</clipitem>
					<clipitem frameBlend="FALSE" id="clipitem-telop-625">
						<file id="file-2"/>
						<name>！</name>
						<rate>
							<timebase>59</timebase>
							<ntsc>TRUE</ntsc>
						</rate>
						<rate>
							<timebase>59</timebase>
							<ntsc>TRUE</ntsc>
						</rate>
						<duration>60</duration>
						<start>5105</start>
						<end>5165</end>
						<in>0</in>
						<out>60</out>
					</clipitem>
					<clipitem frameBlend="FALSE" id="clipitem-telop-635">
						<file id="file-2"/>
						<name>！</name>
						<rate>
							<timebase>59</timebase>
							<ntsc>TRUE</ntsc>
						</rate>
						<rate>
							<timebase>59</timebase>
							<ntsc>TRUE</ntsc>
						</rate>
						<duration>60</duration>
						<start>5183</start>
						<end>5243</end>
						<in>0</in>
						<out>60</out>
					</clipitem>
					<clipitem frameBlend="FALSE" id="clipitem-telop-647">
						<file id="file-2"/>
						<name>！</name>
						<rate>
							<timebase>59</timebase>
							<ntsc>TRUE</ntsc>
						</rate>
						<rate>
							<timebase>59</timebase>
							<ntsc>TRUE</ntsc>
						</rate>
						<duration>60</duration>
						<start>5249</start>
						<end>5309</end>
						<in>0</in>
						<out>60</out>
					</clipitem>
					<clipitem frameBlend="FALSE" id="clipitem-telop-654">
						<file id="file-2"/>
						<name>！</name>
						<rate>
							<timebase>59</timebase>
							<ntsc>TRUE</ntsc>
						</rate>
						<rate>
							<timebase>59</timebase>
							<ntsc>TRUE</ntsc>
						</rate>
						<duration>60</duration>
						<start>5321</start>
						<end>5381</end>
						<in>0</in>
						<out>60</out>
					</clipitem>
					<clipitem frameBlend="FALSE" id="clipitem-telop-667">
						<file id="file-2"/>
						<name>！</name>
						<rate>
							<timebase>59</timebase>
							<ntsc>TRUE</ntsc>
						</rate>
						<rate>
							<timebase>59</timebase>
							<ntsc>TRUE</ntsc>
						</rate>
						<duration>60</duration>
						<start>5405</start>
						<end>5465</end>
						<in>0</in>
						<out>60</out>
					</clipitem>
					<clipitem frameBlend="FALSE" id="clipitem-telop-682">
						<file id="file-2"/>
						<name>！</name>
						<rate>
							<timebase>59</timebase>
							<ntsc>TRUE</ntsc>
						</rate>
						<rate>
							<timebase>59</timebase>
							<ntsc>TRUE</ntsc>
						</rate>
						<duration>60</duration>
						<start>5591</start>
						<end>5651</end>
						<in>0</in>
						<out>60</out>
					</clipitem>
					<clipitem frameBlend="FALSE" id="clipitem-telop-690">
						<file id="file-2"/>
						<name>！</name>
						<rate>
							<timebase>59</timebase>
							<ntsc>TRUE</ntsc>
						</rate>
						<rate>
							<timebase>59</timebase>
							<ntsc>TRUE</ntsc>
						</rate>
						<duration>60</duration>
						<start>5675</start>
						<end>5735</end>
						<in>0</in>
						<out>60</out>
					</clipitem>
					<clipitem frameBlend="FALSE" id="clipitem-telop-698">
						<file id="file-2"/>
						<name>！</name>
						<rate>
							<timebase>59</timebase>
							<ntsc>TRUE</ntsc>
						</rate>
						<rate>
							<timebase>59</timebase>
							<ntsc>TRUE</ntsc>
						</rate>
						<duration>60</duration>
						<start>5741</start>
						<end>5801</end>
						<in>0</in>
						<out>60</out>
					</clipitem>
					<clipitem frameBlend="FALSE" id="clipitem-telop-705">
						<file id="file-2"/>
						<name>！</name>
						<rate>
							<timebase>59</timebase>
							<ntsc>TRUE</ntsc>
						</rate>
						<rate>
							<timebase>59</timebase>
							<ntsc>TRUE</ntsc>
						</rate>
						<duration>60</duration>
						<start>5801</start>
						<end>5861</end>
						<in>0</in>
						<out>60</out>
					</clipitem>
					<clipitem frameBlend="FALSE" id="clipitem-telop-720">
						<file id="file-2"/>
						<name>！</name>
						<rate>
							<timebase>59</timebase>
							<ntsc>TRUE</ntsc>
						</rate>
						<rate>
							<timebase>59</timebase>
							<ntsc>TRUE</ntsc>
						</rate>
						<duration>66</duration>
						<start>5969</start>
						<end>6035</end>
						<in>0</in>
						<out>66</out>
					</clipitem>
					<clipitem frameBlend="FALSE" id="clipitem-telop-731">
						<file id="file-2"/>
						<name>！</name>
						<rate>
							<timebase>59</timebase>
							<ntsc>TRUE</ntsc>
						</rate>
						<rate>
							<timebase>59</timebase>
							<ntsc>TRUE</ntsc>
						</rate>
						<duration>66</duration>
						<start>6035</start>
						<end>6101</end>
						<in>0</in>
						<out>66</out>
					</clipitem>
					<clipitem frameBlend="FALSE" id="clipitem-telop-743">
						<file id="file-2"/>
						<name>！</name>
						<rate>
							<timebase>59</timebase>
							<ntsc>TRUE</ntsc>
						</rate>
						<rate>
							<timebase>59</timebase>
							<ntsc>TRUE</ntsc>
						</rate>
						<duration>66</duration>
						<start>6119</start>
						<end>6185</end>
						<in>0</in>
						<out>66</out>
					</clipitem>
					<clipitem frameBlend="FALSE" id="clipitem-telop-756">
						<file id="file-2"/>
						<name>！</name>
						<rate>
							<timebase>59</timebase>
							<ntsc>TRUE</ntsc>
						</rate>
						<rate>
							<timebase>59</timebase>
							<ntsc>TRUE</ntsc>
						</rate>
						<duration>66</duration>
						<start>6269</start>
						<end>6335</end>
						<in>0</in>
						<out>66</out>
					</clipitem>
					<clipitem frameBlend="FALSE" id="clipitem-telop-764">
						<file id="file-2"/>
						<name>！</name>
						<rate>
							<timebase>59</timebase>
							<ntsc>TRUE</ntsc>
						</rate>
						<rate>
							<timebase>59</timebase>
							<ntsc>TRUE</ntsc>
						</rate>
						<duration>66</duration>
						<start>6347</start>
						<end>6413</end>
						<in>0</in>
						<out>66</out>
					</clipitem>
					<clipitem frameBlend="FALSE" id="clipitem-telop-775">
						<file id="file-2"/>
						<name>w</name>
						<rate>
							<timebase>59</timebase>
							<ntsc>TRUE</ntsc>
						</rate>
						<rate>
							<timebase>59</timebase>
							<ntsc>TRUE</ntsc>
						</rate>
						<duration>30</duration>
						<start>6503</start>
						<end>6533</end>
						<in>0</in>
						<out>30</out>
					</clipitem>
					<clipitem frameBlend="FALSE" id="clipitem-telop-783">
						<file id="file-2"/>
						<name>w</name>
						<rate>
							<timebase>59</timebase>
							<ntsc>TRUE</ntsc>
						</rate>
						<rate>
							<timebase>59</timebase>
							<ntsc>TRUE</ntsc>
						</rate>
						<duration>24</duration>
						<start>6533</start>
						<end>6557</end>
						<in>0</in>
						<out>24</out>
					</clipitem>
					<clipitem frameBlend="FALSE" id="clipitem-telop-788">
						<file id="file-2"/>
						<name>！</name>
						<rate>
							<timebase>59</timebase>
							<ntsc>TRUE</ntsc>
						</rate>
						<rate>
							<timebase>59</timebase>
							<ntsc>TRUE</ntsc>
						</rate>
						<duration>66</duration>
						<start>6563</start>
						<end>6629</end>
						<in>0</in>
						<out>66</out>
					</clipitem>
					<clipitem frameBlend="FALSE" id="clipitem-telop-795">
						<file id="file-2"/>
						<name>！</name>
						<rate>
							<timebase>59</timebase>
							<ntsc>TRUE</ntsc>
						</rate>
						<rate>
							<timebase>59</timebase>
							<ntsc>TRUE</ntsc>
						</rate>
						<duration>60</duration>
						<start>6629</start>
						<end>6689</end>
						<in>0</in>
						<out>60</out>
					</clipitem>
					<clipitem frameBlend="FALSE" id="clipitem-telop-813">
						<file id="file-2"/>
						<name>！</name>
						<rate>
							<timebase>59</timebase>
							<ntsc>TRUE</ntsc>
						</rate>
						<rate>
							<timebase>59</timebase>
							<ntsc>TRUE</ntsc>
						</rate>
						<duration>60</duration>
						<start>6761</start>
						<end>6821</end>
						<in>0</in>
						<out>60</out>
					</clipitem>
					<clipitem frameBlend="FALSE" id="clipitem-telop-830">
						<file id="file-2"/>
						<name>！</name>
						<rate>
							<timebase>59</timebase>
							<ntsc>TRUE</ntsc>
						</rate>
						<rate>
							<timebase>59</timebase>
							<ntsc>TRUE</ntsc>
						</rate>
						<duration>60</duration>
						<start>6869</start>
						<end>6929</end>
						<in>0</in>
						<out>60</out>
					</clipitem>
					<clipitem frameBlend="FALSE" id="clipitem-telop-845">
						<file id="file-2"/>
						<name>！</name>
						<rate>
							<timebase>59</timebase>
							<ntsc>TRUE</ntsc>
						</rate>
						<rate>
							<timebase>59</timebase>
							<ntsc>TRUE</ntsc>
						</rate>
						<duration>66</duration>
						<start>6935</start>
						<end>7001</end>
						<in>0</in>
						<out>66</out>
					</clipitem>
					<clipitem frameBlend="FALSE" id="clipitem-telop-857">
						<file id="file-2"/>
						<name>！</name>
						<rate>
							<timebase>59</timebase>
							<ntsc>TRUE</ntsc>
						</rate>
						<rate>
							<timebase>59</timebase>
							<ntsc>TRUE</ntsc>
						</rate>
						<duration>66</duration>
						<start>7019</start>
						<end>7085</end>
						<in>0</in>
						<out>66</out>
					</clipitem>
					<clipitem frameBlend="FALSE" id="clipitem-telop-872">
						<file id="file-2"/>
						<name>！</name>
						<rate>
							<timebase>59</timebase>
							<ntsc>TRUE</ntsc>
						</rate>
						<rate>
							<timebase>59</timebase>
							<ntsc>TRUE</ntsc>
						</rate>
						<duration>66</duration>
						<start>7139</start>
						<end>7205</end>
						<in>0</in>
						<out>66</out>
					</clipitem>
					<clipitem frameBlend="FALSE" id="clipitem-telop-883">
						<file id="file-2"/>
						<name>！</name>
						<rate>
							<timebase>59</timebase>
							<ntsc>TRUE</ntsc>
						</rate>
						<rate>
							<timebase>59</timebase>
							<ntsc>TRUE</ntsc>
						</rate>
						<duration>60</duration>
						<start>7229</start>
						<end>7289</end>
						<in>0</in>
						<out>60</out>
					</clipitem>
					<clipitem frameBlend="FALSE" id="clipitem-telop-894">
						<file id="file-2"/>
						<name>！</name>
						<rate>
							<timebase>59</timebase>
							<ntsc>TRUE</ntsc>
						</rate>
						<rate>
							<timebase>59</timebase>
							<ntsc>TRUE</ntsc>
						</rate>
						<duration>66</duration>
						<start>7331</start>
						<end>7397</end>
						<in>0</in>
						<out>66</out>
					</clipitem>
					<clipitem frameBlend="FALSE" id="clipitem-telop-907">
						<file id="file-2"/>
						<name>！</name>
						<rate>
							<timebase>59</timebase>
							<ntsc>TRUE</ntsc>
						</rate>
						<rate>
							<timebase>59</timebase>
							<ntsc>TRUE</ntsc>
						</rate>
						<duration>60</duration>
						<start>7427</start>
						<end>7487</end>
						<in>0</in>
						<out>60</out>
					</clipitem>
					<clipitem frameBlend="FALSE" id="clipitem-telop-922">
						<file id="file-2"/>
						<name>！</name>
						<rate>
							<timebase>59</timebase>
							<ntsc>TRUE</ntsc>
						</rate>
						<rate>
							<timebase>59</timebase>
							<ntsc>TRUE</ntsc>
						</rate>
						<duration>66</duration>
						<start>7499</start>
						<end>7565</end>
						<in>0</in>
						<out>66</out>
					</clipitem>
					<clipitem frameBlend="FALSE" id="clipitem-telop-936">
						<file id="file-2"/>
						<name>！</name>
						<rate>
							<timebase>59</timebase>
							<ntsc>TRUE</ntsc>
						</rate>
						<rate>
							<timebase>59</timebase>
							<ntsc>TRUE</ntsc>
						</rate>
						<duration>66</duration>
						<start>7607</start>
						<end>7673</end>
						<in>0</in>
						<out>66</out>
					</clipitem>
					<clipitem frameBlend="FALSE" id="clipitem-telop-948">
						<file id="file-2"/>
						<name>！</name>
						<rate>
							<timebase>59</timebase>
							<ntsc>TRUE</ntsc>
						</rate>
						<rate>
							<timebase>59</timebase>
							<ntsc>TRUE</ntsc>
						</rate>
						<duration>66</duration>
						<start>7685</start>
						<end>7751</end>
						<in>0</in>
						<out>66</out>
					</clipitem>
					<clipitem frameBlend="FALSE" id="clipitem-telop-957">
						<file id="file-2"/>
						<name>！</name>
						<rate>
							<timebase>59</timebase>
							<ntsc>TRUE</ntsc>
						</rate>
						<rate>
							<timebase>59</timebase>
							<ntsc>TRUE</ntsc>
						</rate>
						<duration>60</duration>
						<start>7763</start>
						<end>7823</end>
						<in>0</in>
						<out>60</out>
					</clipitem>
					<clipitem frameBlend="FALSE" id="clipitem-telop-984">
						<file id="file-2"/>
						<name>！</name>
						<rate>
							<timebase>59</timebase>
							<ntsc>TRUE</ntsc>
						</rate>
						<rate>
							<timebase>59</timebase>
							<ntsc>TRUE</ntsc>
						</rate>
						<duration>60</duration>
						<start>8075</start>
						<end>8135</end>
						<in>0</in>
						<out>60</out>
					</clipitem>
					<clipitem frameBlend="FALSE" id="clipitem-telop-993">
						<file id="file-2"/>
						<name>！</name>
						<rate>
							<timebase>59</timebase>
							<ntsc>TRUE</ntsc>
						</rate>
						<rate>
							<timebase>59</timebase>
							<ntsc>TRUE</ntsc>
						</rate>
						<duration>59</duration>
						<start>8177</start>
						<end>8236</end>
						<in>0</in>
						<out>59</out>
					</clipitem>
					<clipitem frameBlend="FALSE" id="clipitem-telop-1006">
						<file id="file-2"/>
						<name>！</name>
						<rate>
							<timebase>59</timebase>
							<ntsc>TRUE</ntsc>
						</rate>
						<rate>
							<timebase>59</timebase>
							<ntsc>TRUE</ntsc>
						</rate>
						<duration>66</duration>
						<start>8284</start>
						<end>8350</end>
						<in>0</in>
						<out>66</out>
					</clipitem>
					<clipitem frameBlend="FALSE" id="clipitem-telop-1021">
						<file id="file-2"/>
						<name>！</name>
						<rate>
							<timebase>59</timebase>
							<ntsc>TRUE</ntsc>
						</rate>
						<rate>
							<timebase>59</timebase>
							<ntsc>TRUE</ntsc>
						</rate>
						<duration>60</duration>
						<start>8434</start>
						<end>8494</end>
						<in>0</in>
						<out>60</out>
					</clipitem>
					<clipitem frameBlend="FALSE" id="clipitem-telop-1032">
						<file id="file-2"/>
						<name>！</name>
						<rate>
							<timebase>59</timebase>
							<ntsc>TRUE</ntsc>
						</rate>
						<rate>
							<timebase>59</timebase>
							<ntsc>TRUE</ntsc>
						</rate>
						<duration>60</duration>
						<start>8524</start>
						<end>8584</end>
						<in>0</in>
						<out>60</out>
					</clipitem>
					<clipitem frameBlend="FALSE" id="clipitem-telop-1041">
						<file id="file-2"/>
						<name>！</name>
						<rate>
							<timebase>59</timebase>
							<ntsc>TRUE</ntsc>
						</rate>
						<rate>
							<timebase>59</timebase>
							<ntsc>TRUE</ntsc>
						</rate>
						<duration>60</duration>
						<start>8596</start>
						<end>8656</end>
						<in>0</in>
						<out>60</out>
					</clipitem>
					<clipitem frameBlend="FALSE" id="clipitem-telop-1062">
						<file id="file-2"/>
						<name>！</name>
						<rate>
							<timebase>59</timebase>
							<ntsc>TRUE</ntsc>
						</rate>
						<rate>
							<timebase>59</timebase>
							<ntsc>TRUE</ntsc>
						</rate>
						<duration>60</duration>
						<start>8866</start>
						<end>8926</end>
						<in>0</in>
						<out>60</out>
					</clipitem>
					<clipitem frameBlend="FALSE" id="clipitem-telop-1073">
						<file id="file-2"/>
						<name>！</name>
						<rate>
							<timebase>59</timebase>
							<ntsc>TRUE</ntsc>
						</rate>
						<rate>
							<timebase>59</timebase>
							<ntsc>TRUE</ntsc>
						</rate>
						<duration>60</duration>
						<start>8926</start>
						<end>8986</end>
						<in>0</in>
						<out>60</out>
					</clipitem>
					<clipitem frameBlend="FALSE" id="clipitem-telop-1081">
						<file id="file-2"/>
						<name>！</name>
						<rate>
							<timebase>59</timebase>
							<ntsc>TRUE</ntsc>
						</rate>
						<rate>
							<timebase>59</timebase>
							<ntsc>TRUE</ntsc>
						</rate>
						<duration>66</duration>
						<start>8998</start>
						<end>9064</end>
						<in>0</in>
						<out>66</out>
					</clipitem>
					<clipitem frameBlend="FALSE" id="clipitem-telop-1088">
						<file id="file-2"/>
						<name>！</name>
						<rate>
							<timebase>59</timebase>
							<ntsc>TRUE</ntsc>
						</rate>
						<rate>
							<timebase>59</timebase>
							<ntsc>TRUE</ntsc>
						</rate>
						<duration>60</duration>
						<start>9064</start>
						<end>9124</end>
						<in>0</in>
						<out>60</out>
					</clipitem>
					<clipitem frameBlend="FALSE" id="clipitem-telop-1098">
						<file id="file-2"/>
						<name>！</name>
						<rate>
							<timebase>59</timebase>
							<ntsc>TRUE</ntsc>
						</rate>
						<rate>
							<timebase>59</timebase>
							<ntsc>TRUE</ntsc>
						</rate>
						<duration>60</duration>
						<start>9142</start>
						<end>9202</end>
						<in>0</in>
						<out>60</out>
					</clipitem>
					<clipitem frameBlend="FALSE" id="clipitem-telop-1112">
						<file id="file-2"/>
						<name>！</name>
						<rate>
							<timebase>59</timebase>
							<ntsc>TRUE</ntsc>
						</rate>
						<rate>
							<timebase>59</timebase>
							<ntsc>TRUE</ntsc>
						</rate>
						<duration>60</duration>
						<start>9250</start>
						<end>9310</end>
						<in>0</in>
						<out>60</out>
					</clipitem>
					<clipitem frameBlend="FALSE" id="clipitem-telop-1122">
						<file id="file-2"/>
						<name>！</name>
						<rate>
							<timebase>59</timebase>
							<ntsc>TRUE</ntsc>
						</rate>
						<rate>
							<timebase>59</timebase>
							<ntsc>TRUE</ntsc>
						</rate>
						<duration>60</duration>
						<start>9310</start>
						<end>9370</end>
						<in>0</in>
						<out>60</out>
					</clipitem>
					<clipitem frameBlend="FALSE" id="clipitem-telop-1131">
						<file id="file-2"/>
						<name>！</name>
						<rate>
							<timebase>59</timebase>
							<ntsc>TRUE</ntsc>
						</rate>
						<rate>
							<timebase>59</timebase>
							<ntsc>TRUE</ntsc>
						</rate>
						<duration>66</duration>
						<start>9382</start>
						<end>9448</end>
						<in>0</in>
						<out>66</out>
					</clipitem>
					<clipitem frameBlend="FALSE" id="clipitem-telop-1145">
						<file id="file-2"/>
						<name>！</name>
						<rate>
							<timebase>59</timebase>
							<ntsc>TRUE</ntsc>
						</rate>
						<rate>
							<timebase>59</timebase>
							<ntsc>TRUE</ntsc>
						</rate>
						<duration>60</duration>
						<start>9454</start>
						<end>9514</end>
						<in>0</in>
						<out>60</out>
					</clipitem>
					<clipitem frameBlend="FALSE" id="clipitem-telop-1154">
						<file id="file-2"/>
						<name>！</name>
						<rate>
							<timebase>59</timebase>
							<ntsc>TRUE</ntsc>
						</rate>
						<rate>
							<timebase>59</timebase>
							<ntsc>TRUE</ntsc>
						</rate>
						<duration>66</duration>
						<start>9532</start>
						<end>9598</end>
						<in>0</in>
						<out>66</out>
					</clipitem>
					<clipitem frameBlend="FALSE" id="clipitem-telop-1164">
						<file id="file-2"/>
						<name>！</name>
						<rate>
							<timebase>59</timebase>
							<ntsc>TRUE</ntsc>
						</rate>
						<rate>
							<timebase>59</timebase>
							<ntsc>TRUE</ntsc>
						</rate>
						<duration>60</duration>
						<start>9628</start>
						<end>9688</end>
						<in>0</in>
						<out>60</out>
					</clipitem>
					<clipitem frameBlend="FALSE" id="clipitem-telop-1190">
						<file id="file-2"/>
						<name>！</name>
						<rate>
							<timebase>59</timebase>
							<ntsc>TRUE</ntsc>
						</rate>
						<rate>
							<timebase>59</timebase>
							<ntsc>TRUE</ntsc>
						</rate>
						<duration>66</duration>
						<start>9886</start>
						<end>9952</end>
						<in>0</in>
						<out>66</out>
					</clipitem>
					<clipitem frameBlend="FALSE" id="clipitem-telop-1202">
						<file id="file-2"/>
						<name>！</name>
						<rate>
							<timebase>59</timebase>
							<ntsc>TRUE</ntsc>
						</rate>
						<rate>
							<timebase>59</timebase>
							<ntsc>TRUE</ntsc>
						</rate>
						<duration>60</duration>
						<start>10030</start>
						<end>10090</end>
						<in>0</in>
						<out>60</out>
					</clipitem>
					<clipitem frameBlend="FALSE" id="clipitem-telop-1214">
						<file id="file-2"/>
						<name>！</name>
						<rate>
							<timebase>59</timebase>
							<ntsc>TRUE</ntsc>
						</rate>
						<rate>
							<timebase>59</timebase>
							<ntsc>TRUE</ntsc>
						</rate>
						<duration>60</duration>
						<start>10162</start>
						<end>10222</end>
						<in>0</in>
						<out>60</out>
					</clipitem>
					<clipitem frameBlend="FALSE" id="clipitem-telop-1236">
						<file id="file-2"/>
						<name>！</name>
						<rate>
							<timebase>59</timebase>
							<ntsc>TRUE</ntsc>
						</rate>
						<rate>
							<timebase>59</timebase>
							<ntsc>TRUE</ntsc>
						</rate>
						<duration>60</duration>
						<start>10378</start>
						<end>10438</end>
						<in>0</in>
						<out>60</out>
					</clipitem>
					<clipitem frameBlend="FALSE" id="clipitem-telop-1252">
						<file id="file-2"/>
						<name>！</name>
						<rate>
							<timebase>59</timebase>
							<ntsc>TRUE</ntsc>
						</rate>
						<rate>
							<timebase>59</timebase>
							<ntsc>TRUE</ntsc>
						</rate>
						<duration>60</duration>
						<start>10582</start>
						<end>10642</end>
						<in>0</in>
						<out>60</out>
					</clipitem>
					<clipitem frameBlend="FALSE" id="clipitem-telop-1265">
						<file id="file-2"/>
						<name>！</name>
						<rate>
							<timebase>59</timebase>
							<ntsc>TRUE</ntsc>
						</rate>
						<rate>
							<timebase>59</timebase>
							<ntsc>TRUE</ntsc>
						</rate>
						<duration>60</duration>
						<start>10666</start>
						<end>10726</end>
						<in>0</in>
						<out>60</out>
					</clipitem>
					<clipitem frameBlend="FALSE" id="clipitem-telop-1278">
						<file id="file-2"/>
						<name>w</name>
						<rate>
							<timebase>59</timebase>
							<ntsc>TRUE</ntsc>
						</rate>
						<rate>
							<timebase>59</timebase>
							<ntsc>TRUE</ntsc>
						</rate>
						<duration>30</duration>
						<start>10750</start>
						<end>10780</end>
						<in>0</in>
						<out>30</out>
					</clipitem>
					<clipitem frameBlend="FALSE" id="clipitem-telop-1289">
						<file id="file-2"/>
						<name>！</name>
						<rate>
							<timebase>59</timebase>
							<ntsc>TRUE</ntsc>
						</rate>
						<rate>
							<timebase>59</timebase>
							<ntsc>TRUE</ntsc>
						</rate>
						<duration>60</duration>
						<start>10864</start>
						<end>10924</end>
						<in>0</in>
						<out>60</out>
					</clipitem>
					<clipitem frameBlend="FALSE" id="clipitem-telop-1298">
						<file id="file-2"/>
						<name>！</name>
						<rate>
							<timebase>59</timebase>
							<ntsc>TRUE</ntsc>
						</rate>
						<rate>
							<timebase>59</timebase>
							<ntsc>TRUE</ntsc>
						</rate>
						<duration>60</duration>
						<start>10960</start>
						<end>11020</end>
						<in>0</in>
						<out>60</out>
					</clipitem>
					<clipitem frameBlend="FALSE" id="clipitem-telop-1309">
						<file id="file-2"/>
						<name>！</name>
						<rate>
							<timebase>59</timebase>
							<ntsc>TRUE</ntsc>
						</rate>
						<rate>
							<timebase>59</timebase>
							<ntsc>TRUE</ntsc>
						</rate>
						<duration>66</duration>
						<start>11044</start>
						<end>11110</end>
						<in>0</in>
						<out>66</out>
					</clipitem>
					<clipitem frameBlend="FALSE" id="clipitem-telop-1326">
						<file id="file-2"/>
						<name>！</name>
						<rate>
							<timebase>59</timebase>
							<ntsc>TRUE</ntsc>
						</rate>
						<rate>
							<timebase>59</timebase>
							<ntsc>TRUE</ntsc>
						</rate>
						<duration>66</duration>
						<start>11194</start>
						<end>11260</end>
						<in>0</in>
						<out>66</out>
					</clipitem>
					<clipitem frameBlend="FALSE" id="clipitem-telop-1339">
						<file id="file-2"/>
						<name>！</name>
						<rate>
							<timebase>59</timebase>
							<ntsc>TRUE</ntsc>
						</rate>
						<rate>
							<timebase>59</timebase>
							<ntsc>TRUE</ntsc>
						</rate>
						<duration>60</duration>
						<start>11332</start>
						<end>11392</end>
						<in>0</in>
						<out>60</out>
					</clipitem>
					<clipitem frameBlend="FALSE" id="clipitem-telop-1352">
						<file id="file-2"/>
						<name>！</name>
						<rate>
							<timebase>59</timebase>
							<ntsc>TRUE</ntsc>
						</rate>
						<rate>
							<timebase>59</timebase>
							<ntsc>TRUE</ntsc>
						</rate>
						<duration>60</duration>
						<start>11440</start>
						<end>11500</end>
						<in>0</in>
						<out>60</out>
					</clipitem>
					<clipitem frameBlend="FALSE" id="clipitem-telop-1362">
						<file id="file-2"/>
						<name>！</name>
						<rate>
							<timebase>59</timebase>
							<ntsc>TRUE</ntsc>
						</rate>
						<rate>
							<timebase>59</timebase>
							<ntsc>TRUE</ntsc>
						</rate>
						<duration>66</duration>
						<start>11512</start>
						<end>11578</end>
						<in>0</in>
						<out>66</out>
					</clipitem>
					<clipitem frameBlend="FALSE" id="clipitem-telop-1377">
						<file id="file-2"/>
						<name>！</name>
						<rate>
							<timebase>59</timebase>
							<ntsc>TRUE</ntsc>
						</rate>
						<rate>
							<timebase>59</timebase>
							<ntsc>TRUE</ntsc>
						</rate>
						<duration>66</duration>
						<start>11656</start>
						<end>11722</end>
						<in>0</in>
						<out>66</out>
					</clipitem>
					<clipitem frameBlend="FALSE" id="clipitem-telop-1388">
						<file id="file-2"/>
						<name>w</name>
						<rate>
							<timebase>59</timebase>
							<ntsc>TRUE</ntsc>
						</rate>
						<rate>
							<timebase>59</timebase>
							<ntsc>TRUE</ntsc>
						</rate>
						<duration>24</duration>
						<start>11728</start>
						<end>11752</end>
						<in>0</in>
						<out>24</out>
					</clipitem>
					<clipitem frameBlend="FALSE" id="clipitem-telop-1393">
						<file id="file-2"/>
						<name>！</name>
						<rate>
							<timebase>59</timebase>
							<ntsc>TRUE</ntsc>
						</rate>
						<rate>
							<timebase>59</timebase>
							<ntsc>TRUE</ntsc>
						</rate>
						<duration>60</duration>
						<start>11764</start>
						<end>11824</end>
						<in>0</in>
						<out>60</out>
					</clipitem>
					<clipitem frameBlend="FALSE" id="clipitem-telop-1401">
						<file id="file-2"/>
						<name>！</name>
						<rate>
							<timebase>59</timebase>
							<ntsc>TRUE</ntsc>
						</rate>
						<rate>
							<timebase>59</timebase>
							<ntsc>TRUE</ntsc>
						</rate>
						<duration>60</duration>
						<start>11842</start>
						<end>11902</end>
						<in>0</in>
						<out>60</out>
					</clipitem>
					<clipitem frameBlend="FALSE" id="clipitem-telop-1414">
						<file id="file-2"/>
						<name>w</name>
						<rate>
							<timebase>59</timebase>
							<ntsc>TRUE</ntsc>
						</rate>
						<rate>
							<timebase>59</timebase>
							<ntsc>TRUE</ntsc>
						</rate>
						<duration>30</duration>
						<start>11920</start>
						<end>11950</end>
						<in>0</in>
						<out>30</out>
					</clipitem>
					<clipitem frameBlend="FALSE" id="clipitem-telop-1423">
						<file id="file-2"/>
						<name>！</name>
						<rate>
							<timebase>59</timebase>
							<ntsc>TRUE</ntsc>
						</rate>
						<rate>
							<timebase>59</timebase>
							<ntsc>TRUE</ntsc>
						</rate>
						<duration>60</duration>
						<start>12022</start>
						<end>12082</end>
						<in>0</in>
						<out>60</out>
					</clipitem>
					<clipitem frameBlend="FALSE" id="clipitem-telop-1435">
						<file id="file-2"/>
						<name>！</name>
						<rate>
							<timebase>59</timebase>
							<ntsc>TRUE</ntsc>
						</rate>
						<rate>
							<timebase>59</timebase>
							<ntsc>TRUE</ntsc>
						</rate>
						<duration>66</duration>
						<start>12100</start>
						<end>12166</end>
						<in>0</in>
						<out>66</out>
					</clipitem>
					<clipitem frameBlend="FALSE" id="clipitem-telop-1446">
						<file id="file-2"/>
						<name>！</name>
						<rate>
							<timebase>59</timebase>
							<ntsc>TRUE</ntsc>
						</rate>
						<rate>
							<timebase>59</timebase>
							<ntsc>TRUE</ntsc>
						</rate>
						<duration>60</duration>
						<start>12202</start>
						<end>12262</end>
						<in>0</in>
						<out>60</out>
					</clipitem>
					<clipitem frameBlend="FALSE" id="clipitem-telop-1459">
						<file id="file-2"/>
						<name>！</name>
						<rate>
							<timebase>59</timebase>
							<ntsc>TRUE</ntsc>
						</rate>
						<rate>
							<timebase>59</timebase>
							<ntsc>TRUE</ntsc>
						</rate>
						<duration>60</duration>
						<start>12280</start>
						<end>12340</end>
						<in>0</in>
						<out>60</out>
					</clipitem>
					<clipitem frameBlend="FALSE" id="clipitem-telop-1479">
						<file id="file-2"/>
						<name>！</name>
						<rate>
							<timebase>59</timebase>
							<ntsc>TRUE</ntsc>
						</rate>
						<rate>
							<timebase>59</timebase>
							<ntsc>TRUE</ntsc>
						</rate>
						<duration>60</duration>
						<start>12490</start>
						<end>12550</end>
						<in>0</in>
						<out>60</out>
					</clipitem>
					<clipitem frameBlend="FALSE" id="clipitem-telop-1487">
						<file id="file-2"/>
						<name>！</name>
						<rate>
							<timebase>59</timebase>
							<ntsc>TRUE</ntsc>
						</rate>
						<rate>
							<timebase>59</timebase>
							<ntsc>TRUE</ntsc>
						</rate>
						<duration>60</duration>
						<start>12568</start>
						<end>12628</end>
						<in>0</in>
						<out>60</out>
					</clipitem>
					<clipitem frameBlend="FALSE" id="clipitem-telop-1501">
						<file id="file-2"/>
						<name>！</name>
						<rate>
							<timebase>59</timebase>
							<ntsc>TRUE</ntsc>
						</rate>
						<rate>
							<timebase>59</timebase>
							<ntsc>TRUE</ntsc>
						</rate>
						<duration>60</duration>
						<start>12646</start>
						<end>12706</end>
						<in>0</in>
						<out>60</out>
					</clipitem>
					<clipitem frameBlend="FALSE" id="clipitem-telop-1518">
						<file id="file-2"/>
						<name>！</name>
						<rate>
							<timebase>59</timebase>
							<ntsc>TRUE</ntsc>
						</rate>
						<rate>
							<timebase>59</timebase>
							<ntsc>TRUE</ntsc>
						</rate>
						<duration>60</duration>
						<start>12778</start>
						<end>12838</end>
						<in>0</in>
						<out>60</out>
					</clipitem>
					<clipitem frameBlend="FALSE" id="clipitem-telop-1527">
						<file id="file-2"/>
						<name>！</name>
						<rate>
							<timebase>59</timebase>
							<ntsc>TRUE</ntsc>
						</rate>
						<rate>
							<timebase>59</timebase>
							<ntsc>TRUE</ntsc>
						</rate>
						<duration>60</duration>
						<start>12868</start>
						<end>12928</end>
						<in>0</in>
						<out>60</out>
					</clipitem>
					<clipitem frameBlend="FALSE" id="clipitem-telop-1536">
						<file id="file-2"/>
						<name>！</name>
						<rate>
							<timebase>59</timebase>
							<ntsc>TRUE</ntsc>
						</rate>
						<rate>
							<timebase>59</timebase>
							<ntsc>TRUE</ntsc>
						</rate>
						<duration>66</duration>
						<start>12946</start>
						<end>13012</end>
						<in>0</in>
						<out>66</out>
					</clipitem>
					<clipitem frameBlend="FALSE" id="clipitem-telop-1544">
						<file id="file-2"/>
						<name>！</name>
						<rate>
							<timebase>59</timebase>
							<ntsc>TRUE</ntsc>
						</rate>
						<rate>
							<timebase>59</timebase>
							<ntsc>TRUE</ntsc>
						</rate>
						<duration>60</duration>
						<start>13018</start>
						<end>13078</end>
						<in>0</in>
						<out>60</out>
					</clipitem>
					<clipitem frameBlend="FALSE" id="clipitem-telop-1553">
						<file id="file-2"/>
						<name>！</name>
						<rate>
							<timebase>59</timebase>
							<ntsc>TRUE</ntsc>
						</rate>
						<rate>
							<timebase>59</timebase>
							<ntsc>TRUE</ntsc>
						</rate>
						<duration>60</duration>
						<start>13102</start>
						<end>13162</end>
						<in>0</in>
						<out>60</out>
					</clipitem>
					<clipitem frameBlend="FALSE" id="clipitem-telop-1565">
						<file id="file-2"/>
						<name>！</name>
						<rate>
							<timebase>59</timebase>
							<ntsc>TRUE</ntsc>
						</rate>
						<rate>
							<timebase>59</timebase>
							<ntsc>TRUE</ntsc>
						</rate>
						<duration>66</duration>
						<start>13240</start>
						<end>13306</end>
						<in>0</in>
						<out>66</out>
					</clipitem>
					<clipitem frameBlend="FALSE" id="clipitem-telop-1584">
						<file id="file-2"/>
						<name>！</name>
						<rate>
							<timebase>59</timebase>
							<ntsc>TRUE</ntsc>
						</rate>
						<rate>
							<timebase>59</timebase>
							<ntsc>TRUE</ntsc>
						</rate>
						<duration>60</duration>
						<start>13402</start>
						<end>13462</end>
						<in>0</in>
						<out>60</out>
					</clipitem>
					<clipitem frameBlend="FALSE" id="clipitem-telop-1594">
						<file id="file-2"/>
						<name>！</name>
						<rate>
							<timebase>59</timebase>
							<ntsc>TRUE</ntsc>
						</rate>
						<rate>
							<timebase>59</timebase>
							<ntsc>TRUE</ntsc>
						</rate>
						<duration>60</duration>
						<start>13504</start>
						<end>13564</end>
						<in>0</in>
						<out>60</out>
					</clipitem>
					<clipitem frameBlend="FALSE" id="clipitem-telop-1607">
						<file id="file-2"/>
						<name>！</name>
						<rate>
							<timebase>59</timebase>
							<ntsc>TRUE</ntsc>
						</rate>
						<rate>
							<timebase>59</timebase>
							<ntsc>TRUE</ntsc>
						</rate>
						<duration>60</duration>
						<start>13600</start>
						<end>13660</end>
						<in>0</in>
						<out>60</out>
					</clipitem>
					<clipitem frameBlend="FALSE" id="clipitem-telop-1617">
						<file id="file-2"/>
						<name>！</name>
						<rate>
							<timebase>59</timebase>
							<ntsc>TRUE</ntsc>
						</rate>
						<rate>
							<timebase>59</timebase>
							<ntsc>TRUE</ntsc>
						</rate>
						<duration>60</duration>
						<start>13690</start>
						<end>13750</end>
						<in>0</in>
						<out>60</out>
					</clipitem>
					<clipitem frameBlend="FALSE" id="clipitem-telop-1626">
						<file id="file-2"/>
						<name>！</name>
						<rate>
							<timebase>59</timebase>
							<ntsc>TRUE</ntsc>
						</rate>
						<rate>
							<timebase>59</timebase>
							<ntsc>TRUE</ntsc>
						</rate>
						<duration>60</duration>
						<start>13750</start>
						<end>13810</end>
						<in>0</in>
						<out>60</out>
					</clipitem>
					<clipitem frameBlend="FALSE" id="clipitem-telop-1635">
						<file id="file-2"/>
						<name>！</name>
						<rate>
							<timebase>59</timebase>
							<ntsc>TRUE</ntsc>
						</rate>
						<rate>
							<timebase>59</timebase>
							<ntsc>TRUE</ntsc>
						</rate>
						<duration>60</duration>
						<start>13816</start>
						<end>13876</end>
						<in>0</in>
						<out>60</out>
					</clipitem>
					<clipitem frameBlend="FALSE" id="clipitem-telop-1644">
						<file id="file-2"/>
						<name>！</name>
						<rate>
							<timebase>59</timebase>
							<ntsc>TRUE</ntsc>
						</rate>
						<rate>
							<timebase>59</timebase>
							<ntsc>TRUE</ntsc>
						</rate>
						<duration>60</duration>
						<start>13912</start>
						<end>13972</end>
						<in>0</in>
						<out>60</out>
					</clipitem>
					<clipitem frameBlend="FALSE" id="clipitem-telop-1653">
						<file id="file-2"/>
						<name>！</name>
						<rate>
							<timebase>59</timebase>
							<ntsc>TRUE</ntsc>
						</rate>
						<rate>
							<timebase>59</timebase>
							<ntsc>TRUE</ntsc>
						</rate>
						<duration>66</duration>
						<start>13978</start>
						<end>14044</end>
						<in>0</in>
						<out>66</out>
					</clipitem>
					<clipitem frameBlend="FALSE" id="clipitem-telop-1662">
						<file id="file-2"/>
						<name>！</name>
						<rate>
							<timebase>59</timebase>
							<ntsc>TRUE</ntsc>
						</rate>
						<rate>
							<timebase>59</timebase>
							<ntsc>TRUE</ntsc>
						</rate>
						<duration>60</duration>
						<start>14080</start>
						<end>14140</end>
						<in>0</in>
						<out>60</out>
					</clipitem>
					<clipitem frameBlend="FALSE" id="clipitem-telop-1670">
						<file id="file-2"/>
						<name>！</name>
						<rate>
							<timebase>59</timebase>
							<ntsc>TRUE</ntsc>
						</rate>
						<rate>
							<timebase>59</timebase>
							<ntsc>TRUE</ntsc>
						</rate>
						<duration>60</duration>
						<start>14158</start>
						<end>14218</end>
						<in>0</in>
						<out>60</out>
					</clipitem>
					<clipitem frameBlend="FALSE" id="clipitem-telop-1684">
						<file id="file-2"/>
						<name>！</name>
						<rate>
							<timebase>59</timebase>
							<ntsc>TRUE</ntsc>
						</rate>
						<rate>
							<timebase>59</timebase>
							<ntsc>TRUE</ntsc>
						</rate>
						<duration>66</duration>
						<start>14236</start>
						<end>14302</end>
						<in>0</in>
						<out>66</out>
					</clipitem>
					<clipitem frameBlend="FALSE" id="clipitem-telop-1696">
						<file id="file-2"/>
						<name>！</name>
						<rate>
							<timebase>59</timebase>
							<ntsc>TRUE</ntsc>
						</rate>
						<rate>
							<timebase>59</timebase>
							<ntsc>TRUE</ntsc>
						</rate>
						<duration>60</duration>
						<start>14344</start>
						<end>14404</end>
						<in>0</in>
						<out>60</out>
					</clipitem>
					<clipitem frameBlend="FALSE" id="clipitem-telop-1710">
						<file id="file-2"/>
						<name>！</name>
						<rate>
							<timebase>59</timebase>
							<ntsc>TRUE</ntsc>
						</rate>
						<rate>
							<timebase>59</timebase>
							<ntsc>TRUE</ntsc>
						</rate>
						<duration>60</duration>
						<start>14488</start>
						<end>14548</end>
						<in>0</in>
						<out>60</out>
					</clipitem>
					<clipitem frameBlend="FALSE" id="clipitem-telop-1718">
						<file id="file-2"/>
						<name>！</name>
						<rate>
							<timebase>59</timebase>
							<ntsc>TRUE</ntsc>
						</rate>
						<rate>
							<timebase>59</timebase>
							<ntsc>TRUE</ntsc>
						</rate>
						<duration>60</duration>
						<start>14554</start>
						<end>14614</end>
						<in>0</in>
						<out>60</out>
					</clipitem>
					<clipitem frameBlend="FALSE" id="clipitem-telop-1727">
						<file id="file-2"/>
						<name>！</name>
						<rate>
							<timebase>59</timebase>
							<ntsc>TRUE</ntsc>
						</rate>
						<rate>
							<timebase>59</timebase>
							<ntsc>TRUE</ntsc>
						</rate>
						<duration>66</duration>
						<start>14650</start>
						<end>14716</end>
						<in>0</in>
						<out>66</out>
					</clipitem>
					<clipitem frameBlend="FALSE" id="clipitem-telop-1739">
						<file id="file-2"/>
						<name>！</name>
						<rate>
							<timebase>59</timebase>
							<ntsc>TRUE</ntsc>
						</rate>
						<rate>
							<timebase>59</timebase>
							<ntsc>TRUE</ntsc>
						</rate>
						<duration>60</duration>
						<start>14734</start>
						<end>14794</end>
						<in>0</in>
						<out>60</out>
					</clipitem>
					<clipitem frameBlend="FALSE" id="clipitem-telop-1758">
						<file id="file-2"/>
						<name>！</name>
						<rate>
							<timebase>59</timebase>
							<ntsc>TRUE</ntsc>
						</rate>
						<rate>
							<timebase>59</timebase>
							<ntsc>TRUE</ntsc>
						</rate>
						<duration>60</duration>
						<start>14980</start>
						<end>15040</end>
						<in>0</in>
						<out>60</out>
					</clipitem>
					<clipitem frameBlend="FALSE" id="clipitem-telop-1774">
						<file id="file-2"/>
						<name>！</name>
						<rate>
							<timebase>59</timebase>
							<ntsc>TRUE</ntsc>
						</rate>
						<rate>
							<timebase>59</timebase>
							<ntsc>TRUE</ntsc>
						</rate>
						<duration>60</duration>
						<start>15112</start>
						<end>15172</end>
						<in>0</in>
						<out>60</out>
					</clipitem>
					<clipitem frameBlend="FALSE" id="clipitem-telop-1797">
						<file id="file-2"/>
						<name>！</name>
						<rate>
							<timebase>59</timebase>
							<ntsc>TRUE</ntsc>
						</rate>
						<rate>
							<timebase>59</timebase>
							<ntsc>TRUE</ntsc>
						</rate>
						<duration>66</duration>
						<start>15364</start>
						<end>15430</end>
						<in>0</in>
						<out>66</out>
					</clipitem>
					<clipitem frameBlend="FALSE" id="clipitem-telop-1814">
						<file id="file-2"/>
						<name>！</name>
						<rate>
							<timebase>59</timebase>
							<ntsc>TRUE</ntsc>
						</rate>
						<rate>
							<timebase>59</timebase>
							<ntsc>TRUE</ntsc>
						</rate>
						<duration>60</duration>
						<start>15484</start>
						<end>15544</end>
						<in>0</in>
						<out>60</out>
					</clipitem>
					<clipitem frameBlend="FALSE" id="clipitem-telop-1824">
						<file id="file-2"/>
						<name>！</name>
						<rate>
							<timebase>59</timebase>
							<ntsc>TRUE</ntsc>
						</rate>
						<rate>
							<timebase>59</timebase>
							<ntsc>TRUE</ntsc>
						</rate>
						<duration>60</duration>
						<start>15586</start>
						<end>15646</end>
						<in>0</in>
						<out>60</out>
					</clipitem>
					<clipitem frameBlend="FALSE" id="clipitem-telop-1852">
						<file id="file-2"/>
						<name>！</name>
						<rate>
							<timebase>59</timebase>
							<ntsc>TRUE</ntsc>
						</rate>
						<rate>
							<timebase>59</timebase>
							<ntsc>TRUE</ntsc>
						</rate>
						<duration>60</duration>
						<start>15874</start>
						<end>15934</end>
						<in>0</in>
						<out>60</out>
					</clipitem>
					<clipitem frameBlend="FALSE" id="clipitem-telop-1870">
						<file id="file-2"/>
						<name>！</name>
						<rate>
							<timebase>59</timebase>
							<ntsc>TRUE</ntsc>
						</rate>
						<rate>
							<timebase>59</timebase>
							<ntsc>TRUE</ntsc>
						</rate>
						<duration>60</duration>
						<start>16012</start>
						<end>16072</end>
						<in>0</in>
						<out>60</out>
					</clipitem>
					<clipitem frameBlend="FALSE" id="clipitem-telop-1878">
						<file id="file-2"/>
						<name>！</name>
						<rate>
							<timebase>59</timebase>
							<ntsc>TRUE</ntsc>
						</rate>
						<rate>
							<timebase>59</timebase>
							<ntsc>TRUE</ntsc>
						</rate>
						<duration>60</duration>
						<start>16072</start>
						<end>16132</end>
						<in>0</in>
						<out>60</out>
					</clipitem>
					<clipitem frameBlend="FALSE" id="clipitem-telop-1896">
						<file id="file-2"/>
						<name>！</name>
						<rate>
							<timebase>59</timebase>
							<ntsc>TRUE</ntsc>
						</rate>
						<rate>
							<timebase>59</timebase>
							<ntsc>TRUE</ntsc>
						</rate>
						<duration>60</duration>
						<start>16204</start>
						<end>16264</end>
						<in>0</in>
						<out>60</out>
					</clipitem>
					<clipitem frameBlend="FALSE" id="clipitem-telop-1905">
						<file id="file-2"/>
						<name>！</name>
						<rate>
							<timebase>59</timebase>
							<ntsc>TRUE</ntsc>
						</rate>
						<rate>
							<timebase>59</timebase>
							<ntsc>TRUE</ntsc>
						</rate>
						<duration>66</duration>
						<start>16276</start>
						<end>16342</end>
						<in>0</in>
						<out>66</out>
					</clipitem>
					<clipitem frameBlend="FALSE" id="clipitem-telop-1921">
						<file id="file-2"/>
						<name>！</name>
						<rate>
							<timebase>59</timebase>
							<ntsc>TRUE</ntsc>
						</rate>
						<rate>
							<timebase>59</timebase>
							<ntsc>TRUE</ntsc>
						</rate>
						<duration>60</duration>
						<start>16389</start>
						<end>16449</end>
						<in>0</in>
						<out>60</out>
					</clipitem>
					<clipitem frameBlend="FALSE" id="clipitem-telop-1932">
						<file id="file-2"/>
						<name>！</name>
						<rate>
							<timebase>59</timebase>
							<ntsc>TRUE</ntsc>
						</rate>
						<rate>
							<timebase>59</timebase>
							<ntsc>TRUE</ntsc>
						</rate>
						<duration>60</duration>
						<start>16479</start>
						<end>16539</end>
						<in>0</in>
						<out>60</out>
					</clipitem>
					<clipitem frameBlend="FALSE" id="clipitem-telop-1941">
						<file id="file-2"/>
						<name>！</name>
						<rate>
							<timebase>59</timebase>
							<ntsc>TRUE</ntsc>
						</rate>
						<rate>
							<timebase>59</timebase>
							<ntsc>TRUE</ntsc>
						</rate>
						<duration>60</duration>
						<start>16551</start>
						<end>16611</end>
						<in>0</in>
						<out>60</out>
					</clipitem>
					<clipitem frameBlend="FALSE" id="clipitem-telop-1949">
						<file id="file-2"/>
						<name>！</name>
						<rate>
							<timebase>59</timebase>
							<ntsc>TRUE</ntsc>
						</rate>
						<rate>
							<timebase>59</timebase>
							<ntsc>TRUE</ntsc>
						</rate>
						<duration>60</duration>
						<start>16641</start>
						<end>16701</end>
						<in>0</in>
						<out>60</out>
					</clipitem>
					<clipitem frameBlend="FALSE" id="clipitem-telop-1958">
						<file id="file-2"/>
						<name>！</name>
						<rate>
							<timebase>59</timebase>
							<ntsc>TRUE</ntsc>
						</rate>
						<rate>
							<timebase>59</timebase>
							<ntsc>TRUE</ntsc>
						</rate>
						<duration>60</duration>
						<start>16713</start>
						<end>16773</end>
						<in>0</in>
						<out>60</out>
					</clipitem>
					<clipitem frameBlend="FALSE" id="clipitem-telop-1968">
						<file id="file-2"/>
						<name>！</name>
						<rate>
							<timebase>59</timebase>
							<ntsc>TRUE</ntsc>
						</rate>
						<rate>
							<timebase>59</timebase>
							<ntsc>TRUE</ntsc>
						</rate>
						<duration>60</duration>
						<start>16773</start>
						<end>16833</end>
						<in>0</in>
						<out>60</out>
					</clipitem>
					<clipitem frameBlend="FALSE" id="clipitem-telop-1977">
						<file id="file-2"/>
						<name>！</name>
						<rate>
							<timebase>59</timebase>
							<ntsc>TRUE</ntsc>
						</rate>
						<rate>
							<timebase>59</timebase>
							<ntsc>TRUE</ntsc>
						</rate>
						<duration>66</duration>
						<start>16839</start>
						<end>16905</end>
						<in>0</in>
						<out>66</out>
					</clipitem>
					<clipitem frameBlend="FALSE" id="clipitem-telop-1994">
						<file id="file-2"/>
						<name>！</name>
						<rate>
							<timebase>59</timebase>
							<ntsc>TRUE</ntsc>
						</rate>
						<rate>
							<timebase>59</timebase>
							<ntsc>TRUE</ntsc>
						</rate>
						<duration>60</duration>
						<start>17055</start>
						<end>17115</end>
						<in>0</in>
						<out>60</out>
					</clipitem>
					<clipitem frameBlend="FALSE" id="clipitem-telop-2002">
						<file id="file-2"/>
						<name>！</name>
						<rate>
							<timebase>59</timebase>
							<ntsc>TRUE</ntsc>
						</rate>
						<rate>
							<timebase>59</timebase>
							<ntsc>TRUE</ntsc>
						</rate>
						<duration>66</duration>
						<start>17121</start>
						<end>17187</end>
						<in>0</in>
						<out>66</out>
					</clipitem>
					<clipitem frameBlend="FALSE" id="clipitem-telop-2014">
						<file id="file-2"/>
						<name>！</name>
						<rate>
							<timebase>59</timebase>
							<ntsc>TRUE</ntsc>
						</rate>
						<rate>
							<timebase>59</timebase>
							<ntsc>TRUE</ntsc>
						</rate>
						<duration>60</duration>
						<start>17193</start>
						<end>17253</end>
						<in>0</in>
						<out>60</out>
					</clipitem>
					<clipitem frameBlend="FALSE" id="clipitem-telop-2024">
						<file id="file-2"/>
						<name>！</name>
						<rate>
							<timebase>59</timebase>
							<ntsc>TRUE</ntsc>
						</rate>
						<rate>
							<timebase>59</timebase>
							<ntsc>TRUE</ntsc>
						</rate>
						<duration>66</duration>
						<start>17307</start>
						<end>17373</end>
						<in>0</in>
						<out>66</out>
					</clipitem>
					<clipitem frameBlend="FALSE" id="clipitem-telop-2041">
						<file id="file-2"/>
						<name>！</name>
						<rate>
							<timebase>59</timebase>
							<ntsc>TRUE</ntsc>
						</rate>
						<rate>
							<timebase>59</timebase>
							<ntsc>TRUE</ntsc>
						</rate>
						<duration>60</duration>
						<start>17469</start>
						<end>17529</end>
						<in>0</in>
						<out>60</out>
					</clipitem>
					<clipitem frameBlend="FALSE" id="clipitem-telop-2068">
						<file id="file-2"/>
						<name>！</name>
						<rate>
							<timebase>59</timebase>
							<ntsc>TRUE</ntsc>
						</rate>
						<rate>
							<timebase>59</timebase>
							<ntsc>TRUE</ntsc>
						</rate>
						<duration>66</duration>
						<start>17769</start>
						<end>17835</end>
						<in>0</in>
						<out>66</out>
					</clipitem>
					<clipitem frameBlend="FALSE" id="clipitem-telop-2082">
						<file id="file-2"/>
						<name>！</name>
						<rate>
							<timebase>59</timebase>
							<ntsc>TRUE</ntsc>
						</rate>
						<rate>
							<timebase>59</timebase>
							<ntsc>TRUE</ntsc>
						</rate>
						<duration>60</duration>
						<start>17901</start>
						<end>17961</end>
						<in>0</in>
						<out>60</out>
					</clipitem>
					<clipitem frameBlend="FALSE" id="clipitem-telop-2092">
						<file id="file-2"/>
						<name>！</name>
						<rate>
							<timebase>59</timebase>
							<ntsc>TRUE</ntsc>
						</rate>
						<rate>
							<timebase>59</timebase>
							<ntsc>TRUE</ntsc>
						</rate>
						<duration>66</duration>
						<start>17961</start>
						<end>18027</end>
						<in>0</in>
						<out>66</out>
					</clipitem>
					<clipitem frameBlend="FALSE" id="clipitem-telop-2103">
						<file id="file-2"/>
						<name>！</name>
						<rate>
							<timebase>59</timebase>
							<ntsc>TRUE</ntsc>
						</rate>
						<rate>
							<timebase>59</timebase>
							<ntsc>TRUE</ntsc>
						</rate>
						<duration>60</duration>
						<start>18063</start>
						<end>18123</end>
						<in>0</in>
						<out>60</out>
					</clipitem>
					<clipitem frameBlend="FALSE" id="clipitem-telop-2114">
						<file id="file-2"/>
						<name>！</name>
						<rate>
							<timebase>59</timebase>
							<ntsc>TRUE</ntsc>
						</rate>
						<rate>
							<timebase>59</timebase>
							<ntsc>TRUE</ntsc>
						</rate>
						<duration>60</duration>
						<start>18159</start>
						<end>18219</end>
						<in>0</in>
						<out>60</out>
					</clipitem>
					<clipitem frameBlend="FALSE" id="clipitem-telop-2123">
						<file id="file-2"/>
						<name>！</name>
						<rate>
							<timebase>59</timebase>
							<ntsc>TRUE</ntsc>
						</rate>
						<rate>
							<timebase>59</timebase>
							<ntsc>TRUE</ntsc>
						</rate>
						<duration>66</duration>
						<start>18225</start>
						<end>18291</end>
						<in>0</in>
						<out>66</out>
					</clipitem>
					<clipitem frameBlend="FALSE" id="clipitem-telop-2135">
						<file id="file-2"/>
						<name>！</name>
						<rate>
							<timebase>59</timebase>
							<ntsc>TRUE</ntsc>
						</rate>
						<rate>
							<timebase>59</timebase>
							<ntsc>TRUE</ntsc>
						</rate>
						<duration>60</duration>
						<start>18393</start>
						<end>18453</end>
						<in>0</in>
						<out>60</out>
					</clipitem>
					<clipitem frameBlend="FALSE" id="clipitem-telop-2150">
						<file id="file-2"/>
						<name>！</name>
						<rate>
							<timebase>59</timebase>
							<ntsc>TRUE</ntsc>
						</rate>
						<rate>
							<timebase>59</timebase>
							<ntsc>TRUE</ntsc>
						</rate>
						<duration>60</duration>
						<start>18543</start>
						<end>18603</end>
						<in>0</in>
						<out>60</out>
					</clipitem>
					<clipitem frameBlend="FALSE" id="clipitem-telop-2158">
						<file id="file-2"/>
						<name>！</name>
						<rate>
							<timebase>59</timebase>
							<ntsc>TRUE</ntsc>
						</rate>
						<rate>
							<timebase>59</timebase>
							<ntsc>TRUE</ntsc>
						</rate>
						<duration>60</duration>
						<start>18615</start>
						<end>18675</end>
						<in>0</in>
						<out>60</out>
					</clipitem>
					<clipitem frameBlend="FALSE" id="clipitem-telop-2172">
						<file id="file-2"/>
						<name>！</name>
						<rate>
							<timebase>59</timebase>
							<ntsc>TRUE</ntsc>
						</rate>
						<rate>
							<timebase>59</timebase>
							<ntsc>TRUE</ntsc>
						</rate>
						<duration>60</duration>
						<start>18783</start>
						<end>18843</end>
						<in>0</in>
						<out>60</out>
					</clipitem>
					<clipitem frameBlend="FALSE" id="clipitem-telop-2191">
						<file id="file-2"/>
						<name>！</name>
						<rate>
							<timebase>59</timebase>
							<ntsc>TRUE</ntsc>
						</rate>
						<rate>
							<timebase>59</timebase>
							<ntsc>TRUE</ntsc>
						</rate>
						<duration>60</duration>
						<start>19041</start>
						<end>19101</end>
						<in>0</in>
						<out>60</out>
					</clipitem>
					<clipitem frameBlend="FALSE" id="clipitem-telop-2204">
						<file id="file-2"/>
						<name>！</name>
						<rate>
							<timebase>59</timebase>
							<ntsc>TRUE</ntsc>
						</rate>
						<rate>
							<timebase>59</timebase>
							<ntsc>TRUE</ntsc>
						</rate>
						<duration>60</duration>
						<start>19125</start>
						<end>19185</end>
						<in>0</in>
						<out>60</out>
					</clipitem>
					<clipitem frameBlend="FALSE" id="clipitem-telop-2222">
						<file id="file-2"/>
						<name>w</name>
						<rate>
							<timebase>59</timebase>
							<ntsc>TRUE</ntsc>
						</rate>
						<rate>
							<timebase>59</timebase>
							<ntsc>TRUE</ntsc>
						</rate>
						<duration>30</duration>
						<start>19329</start>
						<end>19359</end>
						<in>0</in>
						<out>30</out>
					</clipitem>
					<clipitem frameBlend="FALSE" id="clipitem-telop-2232">
						<file id="file-2"/>
						<name>w</name>
						<rate>
							<timebase>59</timebase>
							<ntsc>TRUE</ntsc>
						</rate>
						<rate>
							<timebase>59</timebase>
							<ntsc>TRUE</ntsc>
						</rate>
						<duration>30</duration>
						<start>19371</start>
						<end>19401</end>
						<in>0</in>
						<out>30</out>
					</clipitem>
					<clipitem frameBlend="FALSE" id="clipitem-telop-2236">
						<file id="file-2"/>
						<name>！</name>
						<rate>
							<timebase>59</timebase>
							<ntsc>TRUE</ntsc>
						</rate>
						<rate>
							<timebase>59</timebase>
							<ntsc>TRUE</ntsc>
						</rate>
						<duration>66</duration>
						<start>19407</start>
						<end>19473</end>
						<in>0</in>
						<out>66</out>
					</clipitem>
					<clipitem frameBlend="FALSE" id="clipitem-telop-2243">
						<file id="file-2"/>
						<name>！</name>
						<rate>
							<timebase>59</timebase>
							<ntsc>TRUE</ntsc>
						</rate>
						<rate>
							<timebase>59</timebase>
							<ntsc>TRUE</ntsc>
						</rate>
						<duration>66</duration>
						<start>19479</start>
						<end>19545</end>
						<in>0</in>
						<out>66</out>
					</clipitem>
					<clipitem frameBlend="FALSE" id="clipitem-telop-2258">
						<file id="file-2"/>
						<name>！</name>
						<rate>
							<timebase>59</timebase>
							<ntsc>TRUE</ntsc>
						</rate>
						<rate>
							<timebase>59</timebase>
							<ntsc>TRUE</ntsc>
						</rate>
						<duration>60</duration>
						<start>19617</start>
						<end>19677</end>
						<in>0</in>
						<out>60</out>
					</clipitem>
					<clipitem frameBlend="FALSE" id="clipitem-telop-2270">
						<file id="file-2"/>
						<name>！</name>
						<rate>
							<timebase>59</timebase>
							<ntsc>TRUE</ntsc>
						</rate>
						<rate>
							<timebase>59</timebase>
							<ntsc>TRUE</ntsc>
						</rate>
						<duration>60</duration>
						<start>19677</start>
						<end>19737</end>
						<in>0</in>
						<out>60</out>
					</clipitem>
					<clipitem frameBlend="FALSE" id="clipitem-telop-2285">
						<file id="file-2"/>
						<name>！</name>
						<rate>
							<timebase>59</timebase>
							<ntsc>TRUE</ntsc>
						</rate>
						<rate>
							<timebase>59</timebase>
							<ntsc>TRUE</ntsc>
						</rate>
						<duration>66</duration>
						<start>19821</start>
						<end>19887</end>
						<in>0</in>
						<out>66</out>
					</clipitem>
					<clipitem frameBlend="FALSE" id="clipitem-telop-2303">
						<file id="file-2"/>
						<name>！</name>
						<rate>
							<timebase>59</timebase>
							<ntsc>TRUE</ntsc>
						</rate>
						<rate>
							<timebase>59</timebase>
							<ntsc>TRUE</ntsc>
						</rate>
						<duration>60</duration>
						<start>19959</start>
						<end>20019</end>
						<in>0</in>
						<out>60</out>
					</clipitem>
					<clipitem frameBlend="FALSE" id="clipitem-telop-2316">
						<file id="file-2"/>
						<name>！</name>
						<rate>
							<timebase>59</timebase>
							<ntsc>TRUE</ntsc>
						</rate>
						<rate>
							<timebase>59</timebase>
							<ntsc>TRUE</ntsc>
						</rate>
						<duration>60</duration>
						<start>20079</start>
						<end>20139</end>
						<in>0</in>
						<out>60</out>
					</clipitem>
					<clipitem frameBlend="FALSE" id="clipitem-telop-2334">
						<file id="file-2"/>
						<name>！</name>
						<rate>
							<timebase>59</timebase>
							<ntsc>TRUE</ntsc>
						</rate>
						<rate>
							<timebase>59</timebase>
							<ntsc>TRUE</ntsc>
						</rate>
						<duration>60</duration>
						<start>20229</start>
						<end>20289</end>
						<in>0</in>
						<out>60</out>
					</clipitem>
					<clipitem frameBlend="FALSE" id="clipitem-telop-2346">
						<file id="file-2"/>
						<name>！</name>
						<rate>
							<timebase>59</timebase>
							<ntsc>TRUE</ntsc>
						</rate>
						<rate>
							<timebase>59</timebase>
							<ntsc>TRUE</ntsc>
						</rate>
						<duration>60</duration>
						<start>20313</start>
						<end>20373</end>
						<in>0</in>
						<out>60</out>
					</clipitem>
					<clipitem frameBlend="FALSE" id="clipitem-telop-2354">
						<file id="file-2"/>
						<name>！</name>
						<rate>
							<timebase>59</timebase>
							<ntsc>TRUE</ntsc>
						</rate>
						<rate>
							<timebase>59</timebase>
							<ntsc>TRUE</ntsc>
						</rate>
						<duration>60</duration>
						<start>20379</start>
						<end>20439</end>
						<in>0</in>
						<out>60</out>
					</clipitem>
					<clipitem frameBlend="FALSE" id="clipitem-telop-2366">
						<file id="file-2"/>
						<name>！</name>
						<rate>
							<timebase>59</timebase>
							<ntsc>TRUE</ntsc>
						</rate>
						<rate>
							<timebase>59</timebase>
							<ntsc>TRUE</ntsc>
						</rate>
						<duration>60</duration>
						<start>20439</start>
						<end>20499</end>
						<in>0</in>
						<out>60</out>
					</clipitem>
					<clipitem frameBlend="FALSE" id="clipitem-telop-2375">
						<file id="file-2"/>
						<name>！</name>
						<rate>
							<timebase>59</timebase>
							<ntsc>TRUE</ntsc>
						</rate>
						<rate>
							<timebase>59</timebase>
							<ntsc>TRUE</ntsc>
						</rate>
						<duration>60</duration>
						<start>20517</start>
						<end>20577</end>
						<in>0</in>
						<out>60</out>
					</clipitem>
					<clipitem frameBlend="FALSE" id="clipitem-telop-2401">
						<file id="file-2"/>
						<name>！</name>
						<rate>
							<timebase>59</timebase>
							<ntsc>TRUE</ntsc>
						</rate>
						<rate>
							<timebase>59</timebase>
							<ntsc>TRUE</ntsc>
						</rate>
						<duration>66</duration>
						<start>20793</start>
						<end>20859</end>
						<in>0</in>
						<out>66</out>
					</clipitem>
					<clipitem frameBlend="FALSE" id="clipitem-telop-2420">
						<file id="file-2"/>
						<name>！</name>
						<rate>
							<timebase>59</timebase>
							<ntsc>TRUE</ntsc>
						</rate>
						<rate>
							<timebase>59</timebase>
							<ntsc>TRUE</ntsc>
						</rate>
						<duration>60</duration>
						<start>20973</start>
						<end>21033</end>
						<in>0</in>
						<out>60</out>
					</clipitem>
					<clipitem frameBlend="FALSE" id="clipitem-telop-2431">
						<file id="file-2"/>
						<name>！</name>
						<rate>
							<timebase>59</timebase>
							<ntsc>TRUE</ntsc>
						</rate>
						<rate>
							<timebase>59</timebase>
							<ntsc>TRUE</ntsc>
						</rate>
						<duration>60</duration>
						<start>21045</start>
						<end>21105</end>
						<in>0</in>
						<out>60</out>
					</clipitem>
					<clipitem frameBlend="FALSE" id="clipitem-telop-2448">
						<file id="file-2"/>
						<name>！</name>
						<rate>
							<timebase>59</timebase>
							<ntsc>TRUE</ntsc>
						</rate>
						<rate>
							<timebase>59</timebase>
							<ntsc>TRUE</ntsc>
						</rate>
						<duration>60</duration>
						<start>21105</start>
						<end>21165</end>
						<in>0</in>
						<out>60</out>
					</clipitem>
					<clipitem frameBlend="FALSE" id="clipitem-telop-2465">
						<file id="file-2"/>
						<name>！</name>
						<rate>
							<timebase>59</timebase>
							<ntsc>TRUE</ntsc>
						</rate>
						<rate>
							<timebase>59</timebase>
							<ntsc>TRUE</ntsc>
						</rate>
						<duration>66</duration>
						<start>21207</start>
						<end>21273</end>
						<in>0</in>
						<out>66</out>
					</clipitem>
					<clipitem frameBlend="FALSE" id="clipitem-telop-2482">
						<file id="file-2"/>
						<name>w</name>
						<rate>
							<timebase>59</timebase>
							<ntsc>TRUE</ntsc>
						</rate>
						<rate>
							<timebase>59</timebase>
							<ntsc>TRUE</ntsc>
						</rate>
						<duration>30</duration>
						<start>21309</start>
						<end>21339</end>
						<in>0</in>
						<out>30</out>
					</clipitem>
					<clipitem frameBlend="FALSE" id="clipitem-telop-2488">
						<file id="file-2"/>
						<name>！</name>
						<rate>
							<timebase>59</timebase>
							<ntsc>TRUE</ntsc>
						</rate>
						<rate>
							<timebase>59</timebase>
							<ntsc>TRUE</ntsc>
						</rate>
						<duration>60</duration>
						<start>21339</start>
						<end>21399</end>
						<in>0</in>
						<out>60</out>
					</clipitem>
					<clipitem frameBlend="FALSE" id="clipitem-telop-2501">
						<file id="file-2"/>
						<name>！</name>
						<rate>
							<timebase>59</timebase>
							<ntsc>TRUE</ntsc>
						</rate>
						<rate>
							<timebase>59</timebase>
							<ntsc>TRUE</ntsc>
						</rate>
						<duration>66</duration>
						<start>21411</start>
						<end>21477</end>
						<in>0</in>
						<out>66</out>
					</clipitem>
					<clipitem frameBlend="FALSE" id="clipitem-telop-2510">
						<file id="file-2"/>
						<name>！</name>
						<rate>
							<timebase>59</timebase>
							<ntsc>TRUE</ntsc>
						</rate>
						<rate>
							<timebase>59</timebase>
							<ntsc>TRUE</ntsc>
						</rate>
						<duration>66</duration>
						<start>21477</start>
						<end>21543</end>
						<in>0</in>
						<out>66</out>
					</clipitem>
					<clipitem frameBlend="FALSE" id="clipitem-telop-2523">
						<file id="file-2"/>
						<name>！</name>
						<rate>
							<timebase>59</timebase>
							<ntsc>TRUE</ntsc>
						</rate>
						<rate>
							<timebase>59</timebase>
							<ntsc>TRUE</ntsc>
						</rate>
						<duration>60</duration>
						<start>21573</start>
						<end>21633</end>
						<in>0</in>
						<out>60</out>
					</clipitem>
					<clipitem frameBlend="FALSE" id="clipitem-telop-2535">
						<file id="file-2"/>
						<name>！</name>
						<rate>
							<timebase>59</timebase>
							<ntsc>TRUE</ntsc>
						</rate>
						<rate>
							<timebase>59</timebase>
							<ntsc>TRUE</ntsc>
						</rate>
						<duration>60</duration>
						<start>21657</start>
						<end>21717</end>
						<in>0</in>
						<out>60</out>
					</clipitem>
					<clipitem frameBlend="FALSE" id="clipitem-telop-2548">
						<file id="file-2"/>
						<name>！</name>
						<rate>
							<timebase>59</timebase>
							<ntsc>TRUE</ntsc>
						</rate>
						<rate>
							<timebase>59</timebase>
							<ntsc>TRUE</ntsc>
						</rate>
						<duration>60</duration>
						<start>21735</start>
						<end>21795</end>
						<in>0</in>
						<out>60</out>
					</clipitem>
					<clipitem frameBlend="FALSE" id="clipitem-telop-2562">
						<file id="file-2"/>
						<name>！</name>
						<rate>
							<timebase>59</timebase>
							<ntsc>TRUE</ntsc>
						</rate>
						<rate>
							<timebase>59</timebase>
							<ntsc>TRUE</ntsc>
						</rate>
						<duration>60</duration>
						<start>21819</start>
						<end>21879</end>
						<in>0</in>
						<out>60</out>
					</clipitem>
					<clipitem frameBlend="FALSE" id="clipitem-telop-2575">
						<file id="file-2"/>
						<name>！</name>
						<rate>
							<timebase>59</timebase>
							<ntsc>TRUE</ntsc>
						</rate>
						<rate>
							<timebase>59</timebase>
							<ntsc>TRUE</ntsc>
						</rate>
						<duration>66</duration>
						<start>21885</start>
						<end>21951</end>
						<in>0</in>
						<out>66</out>
					</clipitem>
					<clipitem frameBlend="FALSE" id="clipitem-telop-2585">
						<file id="file-2"/>
						<name>！</name>
						<rate>
							<timebase>59</timebase>
							<ntsc>TRUE</ntsc>
						</rate>
						<rate>
							<timebase>59</timebase>
							<ntsc>TRUE</ntsc>
						</rate>
						<duration>60</duration>
						<start>21963</start>
						<end>22023</end>
						<in>0</in>
						<out>60</out>
					</clipitem>
					<clipitem frameBlend="FALSE" id="clipitem-telop-2594">
						<file id="file-2"/>
						<name>！</name>
						<rate>
							<timebase>59</timebase>
							<ntsc>TRUE</ntsc>
						</rate>
						<rate>
							<timebase>59</timebase>
							<ntsc>TRUE</ntsc>
						</rate>
						<duration>66</duration>
						<start>22035</start>
						<end>22101</end>
						<in>0</in>
						<out>66</out>
					</clipitem>
					<clipitem frameBlend="FALSE" id="clipitem-telop-2606">
						<file id="file-2"/>
						<name>！</name>
						<rate>
							<timebase>59</timebase>
							<ntsc>TRUE</ntsc>
						</rate>
						<rate>
							<timebase>59</timebase>
							<ntsc>TRUE</ntsc>
						</rate>
						<duration>66</duration>
						<start>22101</start>
						<end>22167</end>
						<in>0</in>
						<out>66</out>
					</clipitem>
					<clipitem frameBlend="FALSE" id="clipitem-telop-2618">
						<file id="file-2"/>
						<name>！</name>
						<rate>
							<timebase>59</timebase>
							<ntsc>TRUE</ntsc>
						</rate>
						<rate>
							<timebase>59</timebase>
							<ntsc>TRUE</ntsc>
						</rate>
						<duration>60</duration>
						<start>22167</start>
						<end>22227</end>
						<in>0</in>
						<out>60</out>
					</clipitem>
					<clipitem frameBlend="FALSE" id="clipitem-telop-2637">
						<file id="file-2"/>
						<name>！</name>
						<rate>
							<timebase>59</timebase>
							<ntsc>TRUE</ntsc>
						</rate>
						<rate>
							<timebase>59</timebase>
							<ntsc>TRUE</ntsc>
						</rate>
						<duration>60</duration>
						<start>22299</start>
						<end>22359</end>
						<in>0</in>
						<out>60</out>
					</clipitem>
					<clipitem frameBlend="FALSE" id="clipitem-telop-2652">
						<file id="file-2"/>
						<name>！</name>
						<rate>
							<timebase>59</timebase>
							<ntsc>TRUE</ntsc>
						</rate>
						<rate>
							<timebase>59</timebase>
							<ntsc>TRUE</ntsc>
						</rate>
						<duration>60</duration>
						<start>22431</start>
						<end>22491</end>
						<in>0</in>
						<out>60</out>
					</clipitem>
					<clipitem frameBlend="FALSE" id="clipitem-telop-2674">
						<file id="file-2"/>
						<name>！</name>
						<rate>
							<timebase>59</timebase>
							<ntsc>TRUE</ntsc>
						</rate>
						<rate>
							<timebase>59</timebase>
							<ntsc>TRUE</ntsc>
						</rate>
						<duration>60</duration>
						<start>22605</start>
						<end>22665</end>
						<in>0</in>
						<out>60</out>
					</clipitem>
					<clipitem frameBlend="FALSE" id="clipitem-telop-2685">
						<file id="file-2"/>
						<name>！</name>
						<rate>
							<timebase>59</timebase>
							<ntsc>TRUE</ntsc>
						</rate>
						<rate>
							<timebase>59</timebase>
							<ntsc>TRUE</ntsc>
						</rate>
						<duration>60</duration>
						<start>22689</start>
						<end>22749</end>
						<in>0</in>
						<out>60</out>
					</clipitem>
					<clipitem frameBlend="FALSE" id="clipitem-telop-2695">
						<file id="file-2"/>
						<name>！</name>
						<rate>
							<timebase>59</timebase>
							<ntsc>TRUE</ntsc>
						</rate>
						<rate>
							<timebase>59</timebase>
							<ntsc>TRUE</ntsc>
						</rate>
						<duration>60</duration>
						<start>22755</start>
						<end>22815</end>
						<in>0</in>
						<out>60</out>
					</clipitem>
					<clipitem frameBlend="FALSE" id="clipitem-telop-2705">
						<file id="file-2"/>
						<name>！</name>
						<rate>
							<timebase>59</timebase>
							<ntsc>TRUE</ntsc>
						</rate>
						<rate>
							<timebase>59</timebase>
							<ntsc>TRUE</ntsc>
						</rate>
						<duration>60</duration>
						<start>22845</start>
						<end>22905</end>
						<in>0</in>
						<out>60</out>
					</clipitem>
					<clipitem frameBlend="FALSE" id="clipitem-telop-2717">
						<file id="file-2"/>
						<name>！</name>
						<rate>
							<timebase>59</timebase>
							<ntsc>TRUE</ntsc>
						</rate>
						<rate>
							<timebase>59</timebase>
							<ntsc>TRUE</ntsc>
						</rate>
						<duration>60</duration>
						<start>22941</start>
						<end>23001</end>
						<in>0</in>
						<out>60</out>
					</clipitem>
					<clipitem frameBlend="FALSE" id="clipitem-telop-2730">
						<file id="file-2"/>
						<name>！</name>
						<rate>
							<timebase>59</timebase>
							<ntsc>TRUE</ntsc>
						</rate>
						<rate>
							<timebase>59</timebase>
							<ntsc>TRUE</ntsc>
						</rate>
						<duration>60</duration>
						<start>23025</start>
						<end>23085</end>
						<in>0</in>
						<out>60</out>
					</clipitem>
					<clipitem frameBlend="FALSE" id="clipitem-telop-2741">
						<file id="file-2"/>
						<name>！</name>
						<rate>
							<timebase>59</timebase>
							<ntsc>TRUE</ntsc>
						</rate>
						<rate>
							<timebase>59</timebase>
							<ntsc>TRUE</ntsc>
						</rate>
						<duration>60</duration>
						<start>23121</start>
						<end>23181</end>
						<in>0</in>
						<out>60</out>
					</clipitem>
					<clipitem frameBlend="FALSE" id="clipitem-telop-2752">
						<file id="file-2"/>
						<name>！</name>
						<rate>
							<timebase>59</timebase>
							<ntsc>TRUE</ntsc>
						</rate>
						<rate>
							<timebase>59</timebase>
							<ntsc>TRUE</ntsc>
						</rate>
						<duration>66</duration>
						<start>23211</start>
						<end>23277</end>
						<in>0</in>
						<out>66</out>
					</clipitem>
					<clipitem frameBlend="FALSE" id="clipitem-telop-2767">
						<file id="file-2"/>
						<name>w</name>
						<rate>
							<timebase>59</timebase>
							<ntsc>TRUE</ntsc>
						</rate>
						<rate>
							<timebase>59</timebase>
							<ntsc>TRUE</ntsc>
						</rate>
						<duration>24</duration>
						<start>23319</start>
						<end>23343</end>
						<in>0</in>
						<out>24</out>
					</clipitem>
					<clipitem frameBlend="FALSE" id="clipitem-telop-2773">
						<file id="file-2"/>
						<name>！</name>
						<rate>
							<timebase>59</timebase>
							<ntsc>TRUE</ntsc>
						</rate>
						<rate>
							<timebase>59</timebase>
							<ntsc>TRUE</ntsc>
						</rate>
						<duration>66</duration>
						<start>23349</start>
						<end>23415</end>
						<in>0</in>
						<out>66</out>
					</clipitem>
					<clipitem frameBlend="FALSE" id="clipitem-telop-2786">
						<file id="file-2"/>
						<name>！</name>
						<rate>
							<timebase>59</timebase>
							<ntsc>TRUE</ntsc>
						</rate>
						<rate>
							<timebase>59</timebase>
							<ntsc>TRUE</ntsc>
						</rate>
						<duration>60</duration>
						<start>23427</start>
						<end>23487</end>
						<in>0</in>
						<out>60</out>
					</clipitem>
					<clipitem frameBlend="FALSE" id="clipitem-telop-2812">
						<file id="file-2"/>
						<name>！</name>
						<rate>
							<timebase>59</timebase>
							<ntsc>TRUE</ntsc>
						</rate>
						<rate>
							<timebase>59</timebase>
							<ntsc>TRUE</ntsc>
						</rate>
						<duration>60</duration>
						<start>23649</start>
						<end>23709</end>
						<in>0</in>
						<out>60</out>
					</clipitem>
					<clipitem frameBlend="FALSE" id="clipitem-telop-2827">
						<file id="file-2"/>
						<name>w</name>
						<rate>
							<timebase>59</timebase>
							<ntsc>TRUE</ntsc>
						</rate>
						<rate>
							<timebase>59</timebase>
							<ntsc>TRUE</ntsc>
						</rate>
						<duration>24</duration>
						<start>23751</start>
						<end>23775</end>
						<in>0</in>
						<out>24</out>
					</clipitem>
					<clipitem frameBlend="FALSE" id="clipitem-telop-2834">
						<file id="file-2"/>
						<name>w</name>
						<rate>
							<timebase>59</timebase>
							<ntsc>TRUE</ntsc>
						</rate>
						<rate>
							<timebase>59</timebase>
							<ntsc>TRUE</ntsc>
						</rate>
						<duration>30</duration>
						<start>23787</start>
						<end>23817</end>
						<in>0</in>
						<out>30</out>
					</clipitem>
					<clipitem frameBlend="FALSE" id="clipitem-telop-2841">
						<file id="file-2"/>
						<name>！</name>
						<rate>
							<timebase>59</timebase>
							<ntsc>TRUE</ntsc>
						</rate>
						<rate>
							<timebase>59</timebase>
							<ntsc>TRUE</ntsc>
						</rate>
						<duration>60</duration>
						<start>23823</start>
						<end>23883</end>
						<in>0</in>
						<out>60</out>
					</clipitem>
					<clipitem frameBlend="FALSE" id="clipitem-telop-2854">
						<file id="file-2"/>
						<name>！</name>
						<rate>
							<timebase>59</timebase>
							<ntsc>TRUE</ntsc>
						</rate>
						<rate>
							<timebase>59</timebase>
							<ntsc>TRUE</ntsc>
						</rate>
						<duration>60</duration>
						<start>23883</start>
						<end>23943</end>
						<in>0</in>
						<out>60</out>
					</clipitem>
					<clipitem frameBlend="FALSE" id="clipitem-telop-2868">
						<file id="file-2"/>
						<name>！</name>
						<rate>
							<timebase>59</timebase>
							<ntsc>TRUE</ntsc>
						</rate>
						<rate>
							<timebase>59</timebase>
							<ntsc>TRUE</ntsc>
						</rate>
						<duration>60</duration>
						<start>23997</start>
						<end>24057</end>
						<in>0</in>
						<out>60</out>
					</clipitem>
					<clipitem frameBlend="FALSE" id="clipitem-telop-2877">
						<file id="file-2"/>
						<name>！</name>
						<rate>
							<timebase>59</timebase>
							<ntsc>TRUE</ntsc>
						</rate>
						<rate>
							<timebase>59</timebase>
							<ntsc>TRUE</ntsc>
						</rate>
						<duration>60</duration>
						<start>24063</start>
						<end>24123</end>
						<in>0</in>
						<out>60</out>
					</clipitem>
					<clipitem frameBlend="FALSE" id="clipitem-telop-2890">
						<file id="file-2"/>
						<name>！</name>
						<rate>
							<timebase>59</timebase>
							<ntsc>TRUE</ntsc>
						</rate>
						<rate>
							<timebase>59</timebase>
							<ntsc>TRUE</ntsc>
						</rate>
						<duration>66</duration>
						<start>24123</start>
						<end>24189</end>
						<in>0</in>
						<out>66</out>
					</clipitem>
					<clipitem frameBlend="FALSE" id="clipitem-telop-2904">
						<file id="file-2"/>
						<name>！</name>
						<rate>
							<timebase>59</timebase>
							<ntsc>TRUE</ntsc>
						</rate>
						<rate>
							<timebase>59</timebase>
							<ntsc>TRUE</ntsc>
						</rate>
						<duration>66</duration>
						<start>24213</start>
						<end>24279</end>
						<in>0</in>
						<out>66</out>
					</clipitem>
					<clipitem frameBlend="FALSE" id="clipitem-telop-2920">
						<file id="file-2"/>
						<name>！</name>
						<rate>
							<timebase>59</timebase>
							<ntsc>TRUE</ntsc>
						</rate>
						<rate>
							<timebase>59</timebase>
							<ntsc>TRUE</ntsc>
						</rate>
						<duration>60</duration>
						<start>24321</start>
						<end>24381</end>
						<in>0</in>
						<out>60</out>
					</clipitem>
					<clipitem frameBlend="FALSE" id="clipitem-telop-2938">
						<file id="file-2"/>
						<name>！</name>
						<rate>
							<timebase>59</timebase>
							<ntsc>TRUE</ntsc>
						</rate>
						<rate>
							<timebase>59</timebase>
							<ntsc>TRUE</ntsc>
						</rate>
						<duration>66</duration>
						<start>24459</start>
						<end>24525</end>
						<in>0</in>
						<out>66</out>
					</clipitem>
					<clipitem frameBlend="FALSE" id="clipitem-telop-2946">
						<file id="file-2"/>
						<name>！</name>
						<rate>
							<timebase>59</timebase>
							<ntsc>TRUE</ntsc>
						</rate>
						<rate>
							<timebase>59</timebase>
							<ntsc>TRUE</ntsc>
						</rate>
						<duration>12</duration>
						<start>24525</start>
						<end>24537</end>
						<in>0</in>
						<out>12</out>
					</clipitem>
				</track>
				<track>
					<clipitem frameBlend="FALSE" id="clipitem-telop-11">
						<file id="file-2"/>
						<name>！</name>
						<rate>
							<timebase>59</timebase>
							<ntsc>TRUE</ntsc>
						</rate>
						<rate>
							<timebase>59</timebase>
							<ntsc>TRUE</ntsc>
						</rate>
						<duration>60</duration>
						<start>83</start>
						<end>143</end>
						<in>0</in>
						<out>60</out>
					</clipitem>
					<clipitem frameBlend="FALSE" id="clipitem-telop-40">
						<file id="file-2"/>
						<name>！</name>
						<rate>
							<timebase>59</timebase>
							<ntsc>TRUE</ntsc>
						</rate>
						<rate>
							<timebase>59</timebase>
							<ntsc>TRUE</ntsc>
						</rate>
						<duration>60</duration>
						<start>353</start>
						<end>413</end>
						<in>0</in>
						<out>60</out>
					</clipitem>
					<clipitem frameBlend="FALSE" id="clipitem-telop-48">
						<file id="file-2"/>
						<name>！</name>
						<rate>
							<timebase>59</timebase>
							<ntsc>TRUE</ntsc>
						</rate>
						<rate>
							<timebase>59</timebase>
							<ntsc>TRUE</ntsc>
						</rate>
						<duration>60</duration>
						<start>425</start>
						<end>485</end>
						<in>0</in>
						<out>60</out>
					</clipitem>
					<clipitem frameBlend="FALSE" id="clipitem-telop-58">
						<file id="file-2"/>
						<name>！</name>
						<rate>
							<timebase>59</timebase>
							<ntsc>TRUE</ntsc>
						</rate>
						<rate>
							<timebase>59</timebase>
							<ntsc>TRUE</ntsc>
						</rate>
						<duration>66</duration>
						<start>521</start>
						<end>587</end>
						<in>0</in>
						<out>66</out>
					</clipitem>
					<clipitem frameBlend="FALSE" id="clipitem-telop-74">
						<file id="file-2"/>
						<name>！</name>
						<rate>
							<timebase>59</timebase>
							<ntsc>TRUE</ntsc>
						</rate>
						<rate>
							<timebase>59</timebase>
							<ntsc>TRUE</ntsc>
						</rate>
						<duration>66</duration>
						<start>641</start>
						<end>707</end>
						<in>0</in>
						<out>66</out>
					</clipitem>
					<clipitem frameBlend="FALSE" id="clipitem-telop-87">
						<file id="file-2"/>
						<name>！</name>
						<rate>
							<timebase>59</timebase>
							<ntsc>TRUE</ntsc>
						</rate>
						<rate>
							<timebase>59</timebase>
							<ntsc>TRUE</ntsc>
						</rate>
						<duration>60</duration>
						<start>767</start>
						<end>827</end>
						<in>0</in>
						<out>60</out>
					</clipitem>
					<clipitem frameBlend="FALSE" id="clipitem-telop-103">
						<file id="file-2"/>
						<name>！</name>
						<rate>
							<timebase>59</timebase>
							<ntsc>TRUE</ntsc>
						</rate>
						<rate>
							<timebase>59</timebase>
							<ntsc>TRUE</ntsc>
						</rate>
						<duration>60</duration>
						<start>923</start>
						<end>983</end>
						<in>0</in>
						<out>60</out>
					</clipitem>
					<clipitem frameBlend="FALSE" id="clipitem-telop-112">
						<file id="file-2"/>
						<name>！</name>
						<rate>
							<timebase>59</timebase>
							<ntsc>TRUE</ntsc>
						</rate>
						<rate>
							<timebase>59</timebase>
							<ntsc>TRUE</ntsc>
						</rate>
						<duration>60</duration>
						<start>983</start>
						<end>1043</end>
						<in>0</in>
						<out>60</out>
					</clipitem>
					<clipitem frameBlend="FALSE" id="clipitem-telop-133">
						<file id="file-2"/>
						<name>w</name>
						<rate>
							<timebase>59</timebase>
							<ntsc>TRUE</ntsc>
						</rate>
						<rate>
							<timebase>59</timebase>
							<ntsc>TRUE</ntsc>
						</rate>
						<duration>30</duration>
						<start>1193</start>
						<end>1223</end>
						<in>0</in>
						<out>30</out>
					</clipitem>
					<clipitem frameBlend="FALSE" id="clipitem-telop-153">
						<file id="file-2"/>
						<name>！</name>
						<rate>
							<timebase>59</timebase>
							<ntsc>TRUE</ntsc>
						</rate>
						<rate>
							<timebase>59</timebase>
							<ntsc>TRUE</ntsc>
						</rate>
						<duration>66</duration>
						<start>1391</start>
						<end>1457</end>
						<in>0</in>
						<out>66</out>
					</clipitem>
					<clipitem frameBlend="FALSE" id="clipitem-telop-161">
						<file id="file-2"/>
						<name>！</name>
						<rate>
							<timebase>59</timebase>
							<ntsc>TRUE</ntsc>
						</rate>
						<rate>
							<timebase>59</timebase>
							<ntsc>TRUE</ntsc>
						</rate>
						<duration>60</duration>
						<start>1463</start>
						<end>1523</end>
						<in>0</in>
						<out>60</out>
					</clipitem>
					<clipitem frameBlend="FALSE" id="clipitem-telop-176">
						<file id="file-2"/>
						<name>！</name>
						<rate>
							<timebase>59</timebase>
							<ntsc>TRUE</ntsc>
						</rate>
						<rate>
							<timebase>59</timebase>
							<ntsc>TRUE</ntsc>
						</rate>
						<duration>60</duration>
						<start>1583</start>
						<end>1643</end>
						<in>0</in>
						<out>60</out>
					</clipitem>
					<clipitem frameBlend="FALSE" id="clipitem-telop-185">
						<file id="file-2"/>
						<name>！</name>
						<rate>
							<timebase>59</timebase>
							<ntsc>TRUE</ntsc>
						</rate>
						<rate>
							<timebase>59</timebase>
							<ntsc>TRUE</ntsc>
						</rate>
						<duration>60</duration>
						<start>1649</start>
						<end>1709</end>
						<in>0</in>
						<out>60</out>
					</clipitem>
					<clipitem frameBlend="FALSE" id="clipitem-telop-197">
						<file id="file-2"/>
						<name>！</name>
						<rate>
							<timebase>59</timebase>
							<ntsc>TRUE</ntsc>
						</rate>
						<rate>
							<timebase>59</timebase>
							<ntsc>TRUE</ntsc>
						</rate>
						<duration>60</duration>
						<start>1757</start>
						<end>1817</end>
						<in>0</in>
						<out>60</out>
					</clipitem>
					<clipitem frameBlend="FALSE" id="clipitem-telop-227">
						<file id="file-2"/>
						<name>w</name>
						<rate>
							<timebase>59</timebase>
							<ntsc>TRUE</ntsc>
						</rate>
						<rate>
							<timebase>59</timebase>
							<ntsc>TRUE</ntsc>
						</rate>
						<duration>24</duration>
						<start>1991</start>
						<end>2015</end>
						<in>0</in>
						<out>24</out>
					</clipitem>
					<clipitem frameBlend="FALSE" id="clipitem-telop-233">
						<file id="file-2"/>
						<name>！</name>
						<rate>
							<timebase>59</timebase>
							<ntsc>TRUE</ntsc>
						</rate>
						<rate>
							<timebase>59</timebase>
							<ntsc>TRUE</ntsc>
						</rate>
						<duration>60</duration>
						<start>2021</start>
						<end>2081</end>
						<in>0</in>
						<out>60</out>
					</clipitem>
					<clipitem frameBlend="FALSE" id="clipitem-telop-256">
						<file id="file-2"/>
						<name>！</name>
						<rate>
							<timebase>59</timebase>
							<ntsc>TRUE</ntsc>
						</rate>
						<rate>
							<timebase>59</timebase>
							<ntsc>TRUE</ntsc>
						</rate>
						<duration>60</duration>
						<start>2201</start>
						<end>2261</end>
						<in>0</in>
						<out>60</out>
					</clipitem>
					<clipitem frameBlend="FALSE" id="clipitem-telop-265">
						<file id="file-2"/>
						<name>！</name>
						<rate>
							<timebase>59</timebase>
							<ntsc>TRUE</ntsc>
						</rate>
						<rate>
							<timebase>59</timebase>
							<ntsc>TRUE</ntsc>
						</rate>
						<duration>60</duration>
						<start>2267</start>
						<end>2327</end>
						<in>0</in>
						<out>60</out>
					</clipitem>
					<clipitem frameBlend="FALSE" id="clipitem-telop-290">
						<file id="file-2"/>
						<name>！</name>
						<rate>
							<timebase>59</timebase>
							<ntsc>TRUE</ntsc>
						</rate>
						<rate>
							<timebase>59</timebase>
							<ntsc>TRUE</ntsc>
						</rate>
						<duration>66</duration>
						<start>2513</start>
						<end>2579</end>
						<in>0</in>
						<out>66</out>
					</clipitem>
					<clipitem frameBlend="FALSE" id="clipitem-telop-304">
						<file id="file-2"/>
						<name>！</name>
						<rate>
							<timebase>59</timebase>
							<ntsc>TRUE</ntsc>
						</rate>
						<rate>
							<timebase>59</timebase>
							<ntsc>TRUE</ntsc>
						</rate>
						<duration>66</duration>
						<start>2645</start>
						<end>2711</end>
						<in>0</in>
						<out>66</out>
					</clipitem>
					<clipitem frameBlend="FALSE" id="clipitem-telop-312">
						<file id="file-2"/>
						<name>！</name>
						<rate>
							<timebase>59</timebase>
							<ntsc>TRUE</ntsc>
						</rate>
						<rate>
							<timebase>59</timebase>
							<ntsc>TRUE</ntsc>
						</rate>
						<duration>66</duration>
						<start>2717</start>
						<end>2783</end>
						<in>0</in>
						<out>66</out>
					</clipitem>
					<clipitem frameBlend="FALSE" id="clipitem-telop-322">
						<file id="file-2"/>
						<name>！</name>
						<rate>
							<timebase>59</timebase>
							<ntsc>TRUE</ntsc>
						</rate>
						<rate>
							<timebase>59</timebase>
							<ntsc>TRUE</ntsc>
						</rate>
						<duration>60</duration>
						<start>2795</start>
						<end>2855</end>
						<in>0</in>
						<out>60</out>
					</clipitem>
					<clipitem frameBlend="FALSE" id="clipitem-telop-340">
						<file id="file-2"/>
						<name>！</name>
						<rate>
							<timebase>59</timebase>
							<ntsc>TRUE</ntsc>
						</rate>
						<rate>
							<timebase>59</timebase>
							<ntsc>TRUE</ntsc>
						</rate>
						<duration>60</duration>
						<start>2987</start>
						<end>3047</end>
						<in>0</in>
						<out>60</out>
					</clipitem>
					<clipitem frameBlend="FALSE" id="clipitem-telop-369">
						<file id="file-2"/>
						<name>！</name>
						<rate>
							<timebase>59</timebase>
							<ntsc>TRUE</ntsc>
						</rate>
						<rate>
							<timebase>59</timebase>
							<ntsc>TRUE</ntsc>
						</rate>
						<duration>60</duration>
						<start>3233</start>
						<end>3293</end>
						<in>0</in>
						<out>60</out>
					</clipitem>
					<clipitem frameBlend="FALSE" id="clipitem-telop-381">
						<file id="file-2"/>
						<name>！</name>
						<rate>
							<timebase>59</timebase>
							<ntsc>TRUE</ntsc>
						</rate>
						<rate>
							<timebase>59</timebase>
							<ntsc>TRUE</ntsc>
						</rate>
						<duration>60</duration>
						<start>3305</start>
						<end>3365</end>
						<in>0</in>
						<out>60</out>
					</clipitem>
					<clipitem frameBlend="FALSE" id="clipitem-telop-395">
						<file id="file-2"/>
						<name>！</name>
						<rate>
							<timebase>59</timebase>
							<ntsc>TRUE</ntsc>
						</rate>
						<rate>
							<timebase>59</timebase>
							<ntsc>TRUE</ntsc>
						</rate>
						<duration>60</duration>
						<start>3365</start>
						<end>3425</end>
						<in>0</in>
						<out>60</out>
					</clipitem>
					<clipitem frameBlend="FALSE" id="clipitem-telop-408">
						<file id="file-2"/>
						<name>！</name>
						<rate>
							<timebase>59</timebase>
							<ntsc>TRUE</ntsc>
						</rate>
						<rate>
							<timebase>59</timebase>
							<ntsc>TRUE</ntsc>
						</rate>
						<duration>60</duration>
						<start>3449</start>
						<end>3509</end>
						<in>0</in>
						<out>60</out>
					</clipitem>
					<clipitem frameBlend="FALSE" id="clipitem-telop-437">
						<file id="file-2"/>
						<name>！</name>
						<rate>
							<timebase>59</timebase>
							<ntsc>TRUE</ntsc>
						</rate>
						<rate>
							<timebase>59</timebase>
							<ntsc>TRUE</ntsc>
						</rate>
						<duration>60</duration>
						<start>3743</start>
						<end>3803</end>
						<in>0</in>
						<out>60</out>
					</clipitem>
					<clipitem frameBlend="FALSE" id="clipitem-telop-451">
						<file id="file-2"/>
						<name>！</name>
						<rate>
							<timebase>59</timebase>
							<ntsc>TRUE</ntsc>
						</rate>
						<rate>
							<timebase>59</timebase>
							<ntsc>TRUE</ntsc>
						</rate>
						<duration>60</duration>
						<start>3851</start>
						<end>3911</end>
						<in>0</in>
						<out>60</out>
					</clipitem>
					<clipitem frameBlend="FALSE" id="clipitem-telop-463">
						<file id="file-2"/>
						<name>！</name>
						<rate>
							<timebase>59</timebase>
							<ntsc>TRUE</ntsc>
						</rate>
						<rate>
							<timebase>59</timebase>
							<ntsc>TRUE</ntsc>
						</rate>
						<duration>60</duration>
						<start>3923</start>
						<end>3983</end>
						<in>0</in>
						<out>60</out>
					</clipitem>
					<clipitem frameBlend="FALSE" id="clipitem-telop-491">
						<file id="file-2"/>
						<name>w</name>
						<rate>
							<timebase>59</timebase>
							<ntsc>TRUE</ntsc>
						</rate>
						<rate>
							<timebase>59</timebase>
							<ntsc>TRUE</ntsc>
						</rate>
						<duration>30</duration>
						<start>4187</start>
						<end>4217</end>
						<in>0</in>
						<out>30</out>
					</clipitem>
					<clipitem frameBlend="FALSE" id="clipitem-telop-503">
						<file id="file-2"/>
						<name>！</name>
						<rate>
							<timebase>59</timebase>
							<ntsc>TRUE</ntsc>
						</rate>
						<rate>
							<timebase>59</timebase>
							<ntsc>TRUE</ntsc>
						</rate>
						<duration>60</duration>
						<start>4319</start>
						<end>4379</end>
						<in>0</in>
						<out>60</out>
					</clipitem>
					<clipitem frameBlend="FALSE" id="clipitem-telop-513">
						<file id="file-2"/>
						<name>！</name>
						<rate>
							<timebase>59</timebase>
							<ntsc>TRUE</ntsc>
						</rate>
						<rate>
							<timebase>59</timebase>
							<ntsc>TRUE</ntsc>
						</rate>
						<duration>60</duration>
						<start>4397</start>
						<end>4457</end>
						<in>0</in>
						<out>60</out>
					</clipitem>
					<clipitem frameBlend="FALSE" id="clipitem-telop-522">
						<file id="file-2"/>
						<name>！</name>
						<rate>
							<timebase>59</timebase>
							<ntsc>TRUE</ntsc>
						</rate>
						<rate>
							<timebase>59</timebase>
							<ntsc>TRUE</ntsc>
						</rate>
						<duration>60</duration>
						<start>4457</start>
						<end>4517</end>
						<in>0</in>
						<out>60</out>
					</clipitem>
					<clipitem frameBlend="FALSE" id="clipitem-telop-534">
						<file id="file-2"/>
						<name>！</name>
						<rate>
							<timebase>59</timebase>
							<ntsc>TRUE</ntsc>
						</rate>
						<rate>
							<timebase>59</timebase>
							<ntsc>TRUE</ntsc>
						</rate>
						<duration>60</duration>
						<start>4553</start>
						<end>4613</end>
						<in>0</in>
						<out>60</out>
					</clipitem>
					<clipitem frameBlend="FALSE" id="clipitem-telop-546">
						<file id="file-2"/>
						<name>！</name>
						<rate>
							<timebase>59</timebase>
							<ntsc>TRUE</ntsc>
						</rate>
						<rate>
							<timebase>59</timebase>
							<ntsc>TRUE</ntsc>
						</rate>
						<duration>60</duration>
						<start>4613</start>
						<end>4673</end>
						<in>0</in>
						<out>60</out>
					</clipitem>
					<clipitem frameBlend="FALSE" id="clipitem-telop-559">
						<file id="file-2"/>
						<name>！</name>
						<rate>
							<timebase>59</timebase>
							<ntsc>TRUE</ntsc>
						</rate>
						<rate>
							<timebase>59</timebase>
							<ntsc>TRUE</ntsc>
						</rate>
						<duration>60</duration>
						<start>4703</start>
						<end>4763</end>
						<in>0</in>
						<out>60</out>
					</clipitem>
					<clipitem frameBlend="FALSE" id="clipitem-telop-571">
						<file id="file-2"/>
						<name>！</name>
						<rate>
							<timebase>59</timebase>
							<ntsc>TRUE</ntsc>
						</rate>
						<rate>
							<timebase>59</timebase>
							<ntsc>TRUE</ntsc>
						</rate>
						<duration>60</duration>
						<start>4799</start>
						<end>4859</end>
						<in>0</in>
						<out>60</out>
					</clipitem>
					<clipitem frameBlend="FALSE" id="clipitem-telop-582">
						<file id="file-2"/>
						<name>！</name>
						<rate>
							<timebase>59</timebase>
							<ntsc>TRUE</ntsc>
						</rate>
						<rate>
							<timebase>59</timebase>
							<ntsc>TRUE</ntsc>
						</rate>
						<duration>60</duration>
						<start>4865</start>
						<end>4925</end>
						<in>0</in>
						<out>60</out>
					</clipitem>
					<clipitem frameBlend="FALSE" id="clipitem-telop-596">
						<file id="file-2"/>
						<name>！</name>
						<rate>
							<timebase>59</timebase>
							<ntsc>TRUE</ntsc>
						</rate>
						<rate>
							<timebase>59</timebase>
							<ntsc>TRUE</ntsc>
						</rate>
						<duration>66</duration>
						<start>4943</start>
						<end>5009</end>
						<in>0</in>
						<out>66</out>
					</clipitem>
					<clipitem frameBlend="FALSE" id="clipitem-telop-613">
						<file id="file-2"/>
						<name>！</name>
						<rate>
							<timebase>59</timebase>
							<ntsc>TRUE</ntsc>
						</rate>
						<rate>
							<timebase>59</timebase>
							<ntsc>TRUE</ntsc>
						</rate>
						<duration>60</duration>
						<start>5027</start>
						<end>5087</end>
						<in>0</in>
						<out>60</out>
					</clipitem>
					<clipitem frameBlend="FALSE" id="clipitem-telop-623">
						<file id="file-2"/>
						<name>！</name>
						<rate>
							<timebase>59</timebase>
							<ntsc>TRUE</ntsc>
						</rate>
						<rate>
							<timebase>59</timebase>
							<ntsc>TRUE</ntsc>
						</rate>
						<duration>60</duration>
						<start>5099</start>
						<end>5159</end>
						<in>0</in>
						<out>60</out>
					</clipitem>
					<clipitem frameBlend="FALSE" id="clipitem-telop-637">
						<file id="file-2"/>
						<name>！</name>
						<rate>
							<timebase>59</timebase>
							<ntsc>TRUE</ntsc>
						</rate>
						<rate>
							<timebase>59</timebase>
							<ntsc>TRUE</ntsc>
						</rate>
						<duration>66</duration>
						<start>5189</start>
						<end>5255</end>
						<in>0</in>
						<out>66</out>
					</clipitem>
					<clipitem frameBlend="FALSE" id="clipitem-telop-657">
						<file id="file-2"/>
						<name>！</name>
						<rate>
							<timebase>59</timebase>
							<ntsc>TRUE</ntsc>
						</rate>
						<rate>
							<timebase>59</timebase>
							<ntsc>TRUE</ntsc>
						</rate>
						<duration>60</duration>
						<start>5339</start>
						<end>5399</end>
						<in>0</in>
						<out>60</out>
					</clipitem>
					<clipitem frameBlend="FALSE" id="clipitem-telop-669">
						<file id="file-2"/>
						<name>！</name>
						<rate>
							<timebase>59</timebase>
							<ntsc>TRUE</ntsc>
						</rate>
						<rate>
							<timebase>59</timebase>
							<ntsc>TRUE</ntsc>
						</rate>
						<duration>60</duration>
						<start>5423</start>
						<end>5483</end>
						<in>0</in>
						<out>60</out>
					</clipitem>
					<clipitem frameBlend="FALSE" id="clipitem-telop-683">
						<file id="file-2"/>
						<name>！</name>
						<rate>
							<timebase>59</timebase>
							<ntsc>TRUE</ntsc>
						</rate>
						<rate>
							<timebase>59</timebase>
							<ntsc>TRUE</ntsc>
						</rate>
						<duration>66</duration>
						<start>5591</start>
						<end>5657</end>
						<in>0</in>
						<out>66</out>
					</clipitem>
					<clipitem frameBlend="FALSE" id="clipitem-telop-706">
						<file id="file-2"/>
						<name>！</name>
						<rate>
							<timebase>59</timebase>
							<ntsc>TRUE</ntsc>
						</rate>
						<rate>
							<timebase>59</timebase>
							<ntsc>TRUE</ntsc>
						</rate>
						<duration>60</duration>
						<start>5813</start>
						<end>5873</end>
						<in>0</in>
						<out>60</out>
					</clipitem>
					<clipitem frameBlend="FALSE" id="clipitem-telop-721">
						<file id="file-2"/>
						<name>！</name>
						<rate>
							<timebase>59</timebase>
							<ntsc>TRUE</ntsc>
						</rate>
						<rate>
							<timebase>59</timebase>
							<ntsc>TRUE</ntsc>
						</rate>
						<duration>66</duration>
						<start>5975</start>
						<end>6041</end>
						<in>0</in>
						<out>66</out>
					</clipitem>
					<clipitem frameBlend="FALSE" id="clipitem-telop-732">
						<file id="file-2"/>
						<name>！</name>
						<rate>
							<timebase>59</timebase>
							<ntsc>TRUE</ntsc>
						</rate>
						<rate>
							<timebase>59</timebase>
							<ntsc>TRUE</ntsc>
						</rate>
						<duration>60</duration>
						<start>6041</start>
						<end>6101</end>
						<in>0</in>
						<out>60</out>
					</clipitem>
					<clipitem frameBlend="FALSE" id="clipitem-telop-757">
						<file id="file-2"/>
						<name>！</name>
						<rate>
							<timebase>59</timebase>
							<ntsc>TRUE</ntsc>
						</rate>
						<rate>
							<timebase>59</timebase>
							<ntsc>TRUE</ntsc>
						</rate>
						<duration>60</duration>
						<start>6275</start>
						<end>6335</end>
						<in>0</in>
						<out>60</out>
					</clipitem>
					<clipitem frameBlend="FALSE" id="clipitem-telop-776">
						<file id="file-2"/>
						<name>！</name>
						<rate>
							<timebase>59</timebase>
							<ntsc>TRUE</ntsc>
						</rate>
						<rate>
							<timebase>59</timebase>
							<ntsc>TRUE</ntsc>
						</rate>
						<duration>60</duration>
						<start>6503</start>
						<end>6563</end>
						<in>0</in>
						<out>60</out>
					</clipitem>
					<clipitem frameBlend="FALSE" id="clipitem-telop-796">
						<file id="file-2"/>
						<name>！</name>
						<rate>
							<timebase>59</timebase>
							<ntsc>TRUE</ntsc>
						</rate>
						<rate>
							<timebase>59</timebase>
							<ntsc>TRUE</ntsc>
						</rate>
						<duration>66</duration>
						<start>6635</start>
						<end>6701</end>
						<in>0</in>
						<out>66</out>
					</clipitem>
					<clipitem frameBlend="FALSE" id="clipitem-telop-815">
						<file id="file-2"/>
						<name>リーちゃんこっちでございますのでありがとうございました</name>
						<rate>
							<timebase>59</timebase>
							<ntsc>TRUE</ntsc>
						</rate>
						<rate>
							<timebase>59</timebase>
							<ntsc>TRUE</ntsc>
						</rate>
						<duration>240</duration>
						<start>6773</start>
						<end>7013</end>
						<in>0</in>
						<out>240</out>
					</clipitem>
					<clipitem frameBlend="FALSE" id="clipitem-telop-858">
						<file id="file-2"/>
						<name>！</name>
						<rate>
							<timebase>59</timebase>
							<ntsc>TRUE</ntsc>
						</rate>
						<rate>
							<timebase>59</timebase>
							<ntsc>TRUE</ntsc>
						</rate>
						<duration>60</duration>
						<start>7025</start>
						<end>7085</end>
						<in>0</in>
						<out>60</out>
					</clipitem>
					<clipitem frameBlend="FALSE" id="clipitem-telop-874">
						<file id="file-2"/>
						<name>！</name>
						<rate>
							<timebase>59</timebase>
							<ntsc>TRUE</ntsc>
						</rate>
						<rate>
							<timebase>59</timebase>
							<ntsc>TRUE</ntsc>
						</rate>
						<duration>60</duration>
						<start>7151</start>
						<end>7211</end>
						<in>0</in>
						<out>60</out>
					</clipitem>
					<clipitem frameBlend="FALSE" id="clipitem-telop-897">
						<file id="file-2"/>
						<name>！</name>
						<rate>
							<timebase>59</timebase>
							<ntsc>TRUE</ntsc>
						</rate>
						<rate>
							<timebase>59</timebase>
							<ntsc>TRUE</ntsc>
						</rate>
						<duration>60</duration>
						<start>7355</start>
						<end>7415</end>
						<in>0</in>
						<out>60</out>
					</clipitem>
					<clipitem frameBlend="FALSE" id="clipitem-telop-910">
						<file id="file-2"/>
						<name>！</name>
						<rate>
							<timebase>59</timebase>
							<ntsc>TRUE</ntsc>
						</rate>
						<rate>
							<timebase>59</timebase>
							<ntsc>TRUE</ntsc>
						</rate>
						<duration>60</duration>
						<start>7439</start>
						<end>7499</end>
						<in>0</in>
						<out>60</out>
					</clipitem>
					<clipitem frameBlend="FALSE" id="clipitem-telop-923">
						<file id="file-2"/>
						<name>！</name>
						<rate>
							<timebase>59</timebase>
							<ntsc>TRUE</ntsc>
						</rate>
						<rate>
							<timebase>59</timebase>
							<ntsc>TRUE</ntsc>
						</rate>
						<duration>66</duration>
						<start>7505</start>
						<end>7571</end>
						<in>0</in>
						<out>66</out>
					</clipitem>
					<clipitem frameBlend="FALSE" id="clipitem-telop-941">
						<file id="file-2"/>
						<name>！</name>
						<rate>
							<timebase>59</timebase>
							<ntsc>TRUE</ntsc>
						</rate>
						<rate>
							<timebase>59</timebase>
							<ntsc>TRUE</ntsc>
						</rate>
						<duration>60</duration>
						<start>7643</start>
						<end>7703</end>
						<in>0</in>
						<out>60</out>
					</clipitem>
					<clipitem frameBlend="FALSE" id="clipitem-telop-952">
						<file id="file-2"/>
						<name>！</name>
						<rate>
							<timebase>59</timebase>
							<ntsc>TRUE</ntsc>
						</rate>
						<rate>
							<timebase>59</timebase>
							<ntsc>TRUE</ntsc>
						</rate>
						<duration>60</duration>
						<start>7715</start>
						<end>7775</end>
						<in>0</in>
						<out>60</out>
					</clipitem>
					<clipitem frameBlend="FALSE" id="clipitem-telop-962">
						<file id="file-2"/>
						<name>！</name>
						<rate>
							<timebase>59</timebase>
							<ntsc>TRUE</ntsc>
						</rate>
						<rate>
							<timebase>59</timebase>
							<ntsc>TRUE</ntsc>
						</rate>
						<duration>60</duration>
						<start>7799</start>
						<end>7859</end>
						<in>0</in>
						<out>60</out>
					</clipitem>
					<clipitem frameBlend="FALSE" id="clipitem-telop-985">
						<file id="file-2"/>
						<name>！</name>
						<rate>
							<timebase>59</timebase>
							<ntsc>TRUE</ntsc>
						</rate>
						<rate>
							<timebase>59</timebase>
							<ntsc>TRUE</ntsc>
						</rate>
						<duration>66</duration>
						<start>8087</start>
						<end>8153</end>
						<in>0</in>
						<out>66</out>
					</clipitem>
					<clipitem frameBlend="FALSE" id="clipitem-telop-999">
						<file id="file-2"/>
						<name>！</name>
						<rate>
							<timebase>59</timebase>
							<ntsc>TRUE</ntsc>
						</rate>
						<rate>
							<timebase>59</timebase>
							<ntsc>TRUE</ntsc>
						</rate>
						<duration>60</duration>
						<start>8230</start>
						<end>8290</end>
						<in>0</in>
						<out>60</out>
					</clipitem>
					<clipitem frameBlend="FALSE" id="clipitem-telop-1008">
						<file id="file-2"/>
						<name>！</name>
						<rate>
							<timebase>59</timebase>
							<ntsc>TRUE</ntsc>
						</rate>
						<rate>
							<timebase>59</timebase>
							<ntsc>TRUE</ntsc>
						</rate>
						<duration>66</duration>
						<start>8296</start>
						<end>8362</end>
						<in>0</in>
						<out>66</out>
					</clipitem>
					<clipitem frameBlend="FALSE" id="clipitem-telop-1023">
						<file id="file-2"/>
						<name>早くお座りに乗られては</name>
						<rate>
							<timebase>59</timebase>
							<ntsc>TRUE</ntsc>
						</rate>
						<rate>
							<timebase>59</timebase>
							<ntsc>TRUE</ntsc>
						</rate>
						<duration>120</duration>
						<start>8452</start>
						<end>8572</end>
						<in>0</in>
						<out>120</out>
					</clipitem>
					<clipitem frameBlend="FALSE" id="clipitem-telop-1039">
						<file id="file-2"/>
						<name>！</name>
						<rate>
							<timebase>59</timebase>
							<ntsc>TRUE</ntsc>
						</rate>
						<rate>
							<timebase>59</timebase>
							<ntsc>TRUE</ntsc>
						</rate>
						<duration>60</duration>
						<start>8572</start>
						<end>8632</end>
						<in>0</in>
						<out>60</out>
					</clipitem>
					<clipitem frameBlend="FALSE" id="clipitem-telop-1066">
						<file id="file-2"/>
						<name>！</name>
						<rate>
							<timebase>59</timebase>
							<ntsc>TRUE</ntsc>
						</rate>
						<rate>
							<timebase>59</timebase>
							<ntsc>TRUE</ntsc>
						</rate>
						<duration>60</duration>
						<start>8884</start>
						<end>8944</end>
						<in>0</in>
						<out>60</out>
					</clipitem>
					<clipitem frameBlend="FALSE" id="clipitem-telop-1092">
						<file id="file-2"/>
						<name>！</name>
						<rate>
							<timebase>59</timebase>
							<ntsc>TRUE</ntsc>
						</rate>
						<rate>
							<timebase>59</timebase>
							<ntsc>TRUE</ntsc>
						</rate>
						<duration>60</duration>
						<start>9100</start>
						<end>9160</end>
						<in>0</in>
						<out>60</out>
					</clipitem>
					<clipitem frameBlend="FALSE" id="clipitem-telop-1113">
						<file id="file-2"/>
						<name>！</name>
						<rate>
							<timebase>59</timebase>
							<ntsc>TRUE</ntsc>
						</rate>
						<rate>
							<timebase>59</timebase>
							<ntsc>TRUE</ntsc>
						</rate>
						<duration>60</duration>
						<start>9256</start>
						<end>9316</end>
						<in>0</in>
						<out>60</out>
					</clipitem>
					<clipitem frameBlend="FALSE" id="clipitem-telop-1123">
						<file id="file-2"/>
						<name>！</name>
						<rate>
							<timebase>59</timebase>
							<ntsc>TRUE</ntsc>
						</rate>
						<rate>
							<timebase>59</timebase>
							<ntsc>TRUE</ntsc>
						</rate>
						<duration>60</duration>
						<start>9316</start>
						<end>9376</end>
						<in>0</in>
						<out>60</out>
					</clipitem>
					<clipitem frameBlend="FALSE" id="clipitem-telop-1137">
						<file id="file-2"/>
						<name>！</name>
						<rate>
							<timebase>59</timebase>
							<ntsc>TRUE</ntsc>
						</rate>
						<rate>
							<timebase>59</timebase>
							<ntsc>TRUE</ntsc>
						</rate>
						<duration>66</duration>
						<start>9418</start>
						<end>9484</end>
						<in>0</in>
						<out>66</out>
					</clipitem>
					<clipitem frameBlend="FALSE" id="clipitem-telop-1167">
						<file id="file-2"/>
						<name>！</name>
						<rate>
							<timebase>59</timebase>
							<ntsc>TRUE</ntsc>
						</rate>
						<rate>
							<timebase>59</timebase>
							<ntsc>TRUE</ntsc>
						</rate>
						<duration>60</duration>
						<start>9652</start>
						<end>9712</end>
						<in>0</in>
						<out>60</out>
					</clipitem>
					<clipitem frameBlend="FALSE" id="clipitem-telop-1191">
						<file id="file-2"/>
						<name>！</name>
						<rate>
							<timebase>59</timebase>
							<ntsc>TRUE</ntsc>
						</rate>
						<rate>
							<timebase>59</timebase>
							<ntsc>TRUE</ntsc>
						</rate>
						<duration>60</duration>
						<start>9898</start>
						<end>9958</end>
						<in>0</in>
						<out>60</out>
					</clipitem>
					<clipitem frameBlend="FALSE" id="clipitem-telop-1215">
						<file id="file-2"/>
						<name>！</name>
						<rate>
							<timebase>59</timebase>
							<ntsc>TRUE</ntsc>
						</rate>
						<rate>
							<timebase>59</timebase>
							<ntsc>TRUE</ntsc>
						</rate>
						<duration>60</duration>
						<start>10162</start>
						<end>10222</end>
						<in>0</in>
						<out>60</out>
					</clipitem>
					<clipitem frameBlend="FALSE" id="clipitem-telop-1253">
						<file id="file-2"/>
						<name>！</name>
						<rate>
							<timebase>59</timebase>
							<ntsc>TRUE</ntsc>
						</rate>
						<rate>
							<timebase>59</timebase>
							<ntsc>TRUE</ntsc>
						</rate>
						<duration>60</duration>
						<start>10588</start>
						<end>10648</end>
						<in>0</in>
						<out>60</out>
					</clipitem>
					<clipitem frameBlend="FALSE" id="clipitem-telop-1266">
						<file id="file-2"/>
						<name>！</name>
						<rate>
							<timebase>59</timebase>
							<ntsc>TRUE</ntsc>
						</rate>
						<rate>
							<timebase>59</timebase>
							<ntsc>TRUE</ntsc>
						</rate>
						<duration>60</duration>
						<start>10672</start>
						<end>10732</end>
						<in>0</in>
						<out>60</out>
					</clipitem>
					<clipitem frameBlend="FALSE" id="clipitem-telop-1299">
						<file id="file-2"/>
						<name>！</name>
						<rate>
							<timebase>59</timebase>
							<ntsc>TRUE</ntsc>
						</rate>
						<rate>
							<timebase>59</timebase>
							<ntsc>TRUE</ntsc>
						</rate>
						<duration>60</duration>
						<start>10966</start>
						<end>11026</end>
						<in>0</in>
						<out>60</out>
					</clipitem>
					<clipitem frameBlend="FALSE" id="clipitem-telop-1312">
						<file id="file-2"/>
						<name>！</name>
						<rate>
							<timebase>59</timebase>
							<ntsc>TRUE</ntsc>
						</rate>
						<rate>
							<timebase>59</timebase>
							<ntsc>TRUE</ntsc>
						</rate>
						<duration>66</duration>
						<start>11062</start>
						<end>11128</end>
						<in>0</in>
						<out>66</out>
					</clipitem>
					<clipitem frameBlend="FALSE" id="clipitem-telop-1340">
						<file id="file-2"/>
						<name>！</name>
						<rate>
							<timebase>59</timebase>
							<ntsc>TRUE</ntsc>
						</rate>
						<rate>
							<timebase>59</timebase>
							<ntsc>TRUE</ntsc>
						</rate>
						<duration>66</duration>
						<start>11332</start>
						<end>11398</end>
						<in>0</in>
						<out>66</out>
					</clipitem>
					<clipitem frameBlend="FALSE" id="clipitem-telop-1355">
						<file id="file-2"/>
						<name>！</name>
						<rate>
							<timebase>59</timebase>
							<ntsc>TRUE</ntsc>
						</rate>
						<rate>
							<timebase>59</timebase>
							<ntsc>TRUE</ntsc>
						</rate>
						<duration>60</duration>
						<start>11452</start>
						<end>11512</end>
						<in>0</in>
						<out>60</out>
					</clipitem>
					<clipitem frameBlend="FALSE" id="clipitem-telop-1363">
						<file id="file-2"/>
						<name>！</name>
						<rate>
							<timebase>59</timebase>
							<ntsc>TRUE</ntsc>
						</rate>
						<rate>
							<timebase>59</timebase>
							<ntsc>TRUE</ntsc>
						</rate>
						<duration>60</duration>
						<start>11518</start>
						<end>11578</end>
						<in>0</in>
						<out>60</out>
					</clipitem>
					<clipitem frameBlend="FALSE" id="clipitem-telop-1378">
						<file id="file-2"/>
						<name>！</name>
						<rate>
							<timebase>59</timebase>
							<ntsc>TRUE</ntsc>
						</rate>
						<rate>
							<timebase>59</timebase>
							<ntsc>TRUE</ntsc>
						</rate>
						<duration>60</duration>
						<start>11668</start>
						<end>11728</end>
						<in>0</in>
						<out>60</out>
					</clipitem>
					<clipitem frameBlend="FALSE" id="clipitem-telop-1389">
						<file id="file-2"/>
						<name>！</name>
						<rate>
							<timebase>59</timebase>
							<ntsc>TRUE</ntsc>
						</rate>
						<rate>
							<timebase>59</timebase>
							<ntsc>TRUE</ntsc>
						</rate>
						<duration>60</duration>
						<start>11734</start>
						<end>11794</end>
						<in>0</in>
						<out>60</out>
					</clipitem>
					<clipitem frameBlend="FALSE" id="clipitem-telop-1403">
						<file id="file-2"/>
						<name>！</name>
						<rate>
							<timebase>59</timebase>
							<ntsc>TRUE</ntsc>
						</rate>
						<rate>
							<timebase>59</timebase>
							<ntsc>TRUE</ntsc>
						</rate>
						<duration>60</duration>
						<start>11848</start>
						<end>11908</end>
						<in>0</in>
						<out>60</out>
					</clipitem>
					<clipitem frameBlend="FALSE" id="clipitem-telop-1415">
						<file id="file-2"/>
						<name>！</name>
						<rate>
							<timebase>59</timebase>
							<ntsc>TRUE</ntsc>
						</rate>
						<rate>
							<timebase>59</timebase>
							<ntsc>TRUE</ntsc>
						</rate>
						<duration>60</duration>
						<start>11932</start>
						<end>11992</end>
						<in>0</in>
						<out>60</out>
					</clipitem>
					<clipitem frameBlend="FALSE" id="clipitem-telop-1425">
						<file id="file-2"/>
						<name>！</name>
						<rate>
							<timebase>59</timebase>
							<ntsc>TRUE</ntsc>
						</rate>
						<rate>
							<timebase>59</timebase>
							<ntsc>TRUE</ntsc>
						</rate>
						<duration>60</duration>
						<start>12034</start>
						<end>12094</end>
						<in>0</in>
						<out>60</out>
					</clipitem>
					<clipitem frameBlend="FALSE" id="clipitem-telop-1436">
						<file id="file-2"/>
						<name>！</name>
						<rate>
							<timebase>59</timebase>
							<ntsc>TRUE</ntsc>
						</rate>
						<rate>
							<timebase>59</timebase>
							<ntsc>TRUE</ntsc>
						</rate>
						<duration>60</duration>
						<start>12106</start>
						<end>12166</end>
						<in>0</in>
						<out>60</out>
					</clipitem>
					<clipitem frameBlend="FALSE" id="clipitem-telop-1447">
						<file id="file-2"/>
						<name>！</name>
						<rate>
							<timebase>59</timebase>
							<ntsc>TRUE</ntsc>
						</rate>
						<rate>
							<timebase>59</timebase>
							<ntsc>TRUE</ntsc>
						</rate>
						<duration>60</duration>
						<start>12202</start>
						<end>12262</end>
						<in>0</in>
						<out>60</out>
					</clipitem>
					<clipitem frameBlend="FALSE" id="clipitem-telop-1480">
						<file id="file-2"/>
						<name>！</name>
						<rate>
							<timebase>59</timebase>
							<ntsc>TRUE</ntsc>
						</rate>
						<rate>
							<timebase>59</timebase>
							<ntsc>TRUE</ntsc>
						</rate>
						<duration>66</duration>
						<start>12496</start>
						<end>12562</end>
						<in>0</in>
						<out>66</out>
					</clipitem>
					<clipitem frameBlend="FALSE" id="clipitem-telop-1494">
						<file id="file-2"/>
						<name>！</name>
						<rate>
							<timebase>59</timebase>
							<ntsc>TRUE</ntsc>
						</rate>
						<rate>
							<timebase>59</timebase>
							<ntsc>TRUE</ntsc>
						</rate>
						<duration>60</duration>
						<start>12604</start>
						<end>12664</end>
						<in>0</in>
						<out>60</out>
					</clipitem>
					<clipitem frameBlend="FALSE" id="clipitem-telop-1508">
						<file id="file-2"/>
						<name>！</name>
						<rate>
							<timebase>59</timebase>
							<ntsc>TRUE</ntsc>
						</rate>
						<rate>
							<timebase>59</timebase>
							<ntsc>TRUE</ntsc>
						</rate>
						<duration>60</duration>
						<start>12670</start>
						<end>12730</end>
						<in>0</in>
						<out>60</out>
					</clipitem>
					<clipitem frameBlend="FALSE" id="clipitem-telop-1519">
						<file id="file-2"/>
						<name>！</name>
						<rate>
							<timebase>59</timebase>
							<ntsc>TRUE</ntsc>
						</rate>
						<rate>
							<timebase>59</timebase>
							<ntsc>TRUE</ntsc>
						</rate>
						<duration>66</duration>
						<start>12784</start>
						<end>12850</end>
						<in>0</in>
						<out>66</out>
					</clipitem>
					<clipitem frameBlend="FALSE" id="clipitem-telop-1529">
						<file id="file-2"/>
						<name>！</name>
						<rate>
							<timebase>59</timebase>
							<ntsc>TRUE</ntsc>
						</rate>
						<rate>
							<timebase>59</timebase>
							<ntsc>TRUE</ntsc>
						</rate>
						<duration>60</duration>
						<start>12886</start>
						<end>12946</end>
						<in>0</in>
						<out>60</out>
					</clipitem>
					<clipitem frameBlend="FALSE" id="clipitem-telop-1537">
						<file id="file-2"/>
						<name>！</name>
						<rate>
							<timebase>59</timebase>
							<ntsc>TRUE</ntsc>
						</rate>
						<rate>
							<timebase>59</timebase>
							<ntsc>TRUE</ntsc>
						</rate>
						<duration>60</duration>
						<start>12952</start>
						<end>13012</end>
						<in>0</in>
						<out>60</out>
					</clipitem>
					<clipitem frameBlend="FALSE" id="clipitem-telop-1545">
						<file id="file-2"/>
						<name>！</name>
						<rate>
							<timebase>59</timebase>
							<ntsc>TRUE</ntsc>
						</rate>
						<rate>
							<timebase>59</timebase>
							<ntsc>TRUE</ntsc>
						</rate>
						<duration>60</duration>
						<start>13024</start>
						<end>13084</end>
						<in>0</in>
						<out>60</out>
					</clipitem>
					<clipitem frameBlend="FALSE" id="clipitem-telop-1554">
						<file id="file-2"/>
						<name>w</name>
						<rate>
							<timebase>59</timebase>
							<ntsc>TRUE</ntsc>
						</rate>
						<rate>
							<timebase>59</timebase>
							<ntsc>TRUE</ntsc>
						</rate>
						<duration>30</duration>
						<start>13102</start>
						<end>13132</end>
						<in>0</in>
						<out>30</out>
					</clipitem>
					<clipitem frameBlend="FALSE" id="clipitem-telop-1568">
						<file id="file-2"/>
						<name>！</name>
						<rate>
							<timebase>59</timebase>
							<ntsc>TRUE</ntsc>
						</rate>
						<rate>
							<timebase>59</timebase>
							<ntsc>TRUE</ntsc>
						</rate>
						<duration>66</duration>
						<start>13252</start>
						<end>13318</end>
						<in>0</in>
						<out>66</out>
					</clipitem>
					<clipitem frameBlend="FALSE" id="clipitem-telop-1595">
						<file id="file-2"/>
						<name>！</name>
						<rate>
							<timebase>59</timebase>
							<ntsc>TRUE</ntsc>
						</rate>
						<rate>
							<timebase>59</timebase>
							<ntsc>TRUE</ntsc>
						</rate>
						<duration>60</duration>
						<start>13516</start>
						<end>13576</end>
						<in>0</in>
						<out>60</out>
					</clipitem>
					<clipitem frameBlend="FALSE" id="clipitem-telop-1608">
						<file id="file-2"/>
						<name>！</name>
						<rate>
							<timebase>59</timebase>
							<ntsc>TRUE</ntsc>
						</rate>
						<rate>
							<timebase>59</timebase>
							<ntsc>TRUE</ntsc>
						</rate>
						<duration>60</duration>
						<start>13606</start>
						<end>13666</end>
						<in>0</in>
						<out>60</out>
					</clipitem>
					<clipitem frameBlend="FALSE" id="clipitem-telop-1622">
						<file id="file-2"/>
						<name>！</name>
						<rate>
							<timebase>59</timebase>
							<ntsc>TRUE</ntsc>
						</rate>
						<rate>
							<timebase>59</timebase>
							<ntsc>TRUE</ntsc>
						</rate>
						<duration>66</duration>
						<start>13720</start>
						<end>13786</end>
						<in>0</in>
						<out>66</out>
					</clipitem>
					<clipitem frameBlend="FALSE" id="clipitem-telop-1631">
						<file id="file-2"/>
						<name>！</name>
						<rate>
							<timebase>59</timebase>
							<ntsc>TRUE</ntsc>
						</rate>
						<rate>
							<timebase>59</timebase>
							<ntsc>TRUE</ntsc>
						</rate>
						<duration>60</duration>
						<start>13792</start>
						<end>13852</end>
						<in>0</in>
						<out>60</out>
					</clipitem>
					<clipitem frameBlend="FALSE" id="clipitem-telop-1646">
						<file id="file-2"/>
						<name>！</name>
						<rate>
							<timebase>59</timebase>
							<ntsc>TRUE</ntsc>
						</rate>
						<rate>
							<timebase>59</timebase>
							<ntsc>TRUE</ntsc>
						</rate>
						<duration>60</duration>
						<start>13924</start>
						<end>13984</end>
						<in>0</in>
						<out>60</out>
					</clipitem>
					<clipitem frameBlend="FALSE" id="clipitem-telop-1655">
						<file id="file-2"/>
						<name>！</name>
						<rate>
							<timebase>59</timebase>
							<ntsc>TRUE</ntsc>
						</rate>
						<rate>
							<timebase>59</timebase>
							<ntsc>TRUE</ntsc>
						</rate>
						<duration>60</duration>
						<start>14002</start>
						<end>14062</end>
						<in>0</in>
						<out>60</out>
					</clipitem>
					<clipitem frameBlend="FALSE" id="clipitem-telop-1663">
						<file id="file-2"/>
						<name>！</name>
						<rate>
							<timebase>59</timebase>
							<ntsc>TRUE</ntsc>
						</rate>
						<rate>
							<timebase>59</timebase>
							<ntsc>TRUE</ntsc>
						</rate>
						<duration>66</duration>
						<start>14080</start>
						<end>14146</end>
						<in>0</in>
						<out>66</out>
					</clipitem>
					<clipitem frameBlend="FALSE" id="clipitem-telop-1673">
						<file id="file-2"/>
						<name>！</name>
						<rate>
							<timebase>59</timebase>
							<ntsc>TRUE</ntsc>
						</rate>
						<rate>
							<timebase>59</timebase>
							<ntsc>TRUE</ntsc>
						</rate>
						<duration>66</duration>
						<start>14170</start>
						<end>14236</end>
						<in>0</in>
						<out>66</out>
					</clipitem>
					<clipitem frameBlend="FALSE" id="clipitem-telop-1687">
						<file id="file-2"/>
						<name>！</name>
						<rate>
							<timebase>59</timebase>
							<ntsc>TRUE</ntsc>
						</rate>
						<rate>
							<timebase>59</timebase>
							<ntsc>TRUE</ntsc>
						</rate>
						<duration>66</duration>
						<start>14254</start>
						<end>14320</end>
						<in>0</in>
						<out>66</out>
					</clipitem>
					<clipitem frameBlend="FALSE" id="clipitem-telop-1697">
						<file id="file-2"/>
						<name>！</name>
						<rate>
							<timebase>59</timebase>
							<ntsc>TRUE</ntsc>
						</rate>
						<rate>
							<timebase>59</timebase>
							<ntsc>TRUE</ntsc>
						</rate>
						<duration>60</duration>
						<start>14350</start>
						<end>14410</end>
						<in>0</in>
						<out>60</out>
					</clipitem>
					<clipitem frameBlend="FALSE" id="clipitem-telop-1729">
						<file id="file-2"/>
						<name>！</name>
						<rate>
							<timebase>59</timebase>
							<ntsc>TRUE</ntsc>
						</rate>
						<rate>
							<timebase>59</timebase>
							<ntsc>TRUE</ntsc>
						</rate>
						<duration>66</duration>
						<start>14662</start>
						<end>14728</end>
						<in>0</in>
						<out>66</out>
					</clipitem>
					<clipitem frameBlend="FALSE" id="clipitem-telop-1740">
						<file id="file-2"/>
						<name>！</name>
						<rate>
							<timebase>59</timebase>
							<ntsc>TRUE</ntsc>
						</rate>
						<rate>
							<timebase>59</timebase>
							<ntsc>TRUE</ntsc>
						</rate>
						<duration>66</duration>
						<start>14734</start>
						<end>14800</end>
						<in>0</in>
						<out>66</out>
					</clipitem>
					<clipitem frameBlend="FALSE" id="clipitem-telop-1760">
						<file id="file-2"/>
						<name>！</name>
						<rate>
							<timebase>59</timebase>
							<ntsc>TRUE</ntsc>
						</rate>
						<rate>
							<timebase>59</timebase>
							<ntsc>TRUE</ntsc>
						</rate>
						<duration>60</duration>
						<start>14992</start>
						<end>15052</end>
						<in>0</in>
						<out>60</out>
					</clipitem>
					<clipitem frameBlend="FALSE" id="clipitem-telop-1778">
						<file id="file-2"/>
						<name>！</name>
						<rate>
							<timebase>59</timebase>
							<ntsc>TRUE</ntsc>
						</rate>
						<rate>
							<timebase>59</timebase>
							<ntsc>TRUE</ntsc>
						</rate>
						<duration>60</duration>
						<start>15148</start>
						<end>15208</end>
						<in>0</in>
						<out>60</out>
					</clipitem>
					<clipitem frameBlend="FALSE" id="clipitem-telop-1798">
						<file id="file-2"/>
						<name>！</name>
						<rate>
							<timebase>59</timebase>
							<ntsc>TRUE</ntsc>
						</rate>
						<rate>
							<timebase>59</timebase>
							<ntsc>TRUE</ntsc>
						</rate>
						<duration>66</duration>
						<start>15370</start>
						<end>15436</end>
						<in>0</in>
						<out>66</out>
					</clipitem>
					<clipitem frameBlend="FALSE" id="clipitem-telop-1825">
						<file id="file-2"/>
						<name>！</name>
						<rate>
							<timebase>59</timebase>
							<ntsc>TRUE</ntsc>
						</rate>
						<rate>
							<timebase>59</timebase>
							<ntsc>TRUE</ntsc>
						</rate>
						<duration>60</duration>
						<start>15604</start>
						<end>15664</end>
						<in>0</in>
						<out>60</out>
					</clipitem>
					<clipitem frameBlend="FALSE" id="clipitem-telop-1853">
						<file id="file-2"/>
						<name>！</name>
						<rate>
							<timebase>59</timebase>
							<ntsc>TRUE</ntsc>
						</rate>
						<rate>
							<timebase>59</timebase>
							<ntsc>TRUE</ntsc>
						</rate>
						<duration>66</duration>
						<start>15874</start>
						<end>15940</end>
						<in>0</in>
						<out>66</out>
					</clipitem>
					<clipitem frameBlend="FALSE" id="clipitem-telop-1871">
						<file id="file-2"/>
						<name>！</name>
						<rate>
							<timebase>59</timebase>
							<ntsc>TRUE</ntsc>
						</rate>
						<rate>
							<timebase>59</timebase>
							<ntsc>TRUE</ntsc>
						</rate>
						<duration>60</duration>
						<start>16012</start>
						<end>16072</end>
						<in>0</in>
						<out>60</out>
					</clipitem>
					<clipitem frameBlend="FALSE" id="clipitem-telop-1879">
						<file id="file-2"/>
						<name>！</name>
						<rate>
							<timebase>59</timebase>
							<ntsc>TRUE</ntsc>
						</rate>
						<rate>
							<timebase>59</timebase>
							<ntsc>TRUE</ntsc>
						</rate>
						<duration>60</duration>
						<start>16078</start>
						<end>16138</end>
						<in>0</in>
						<out>60</out>
					</clipitem>
					<clipitem frameBlend="FALSE" id="clipitem-telop-1901">
						<file id="file-2"/>
						<name>！</name>
						<rate>
							<timebase>59</timebase>
							<ntsc>TRUE</ntsc>
						</rate>
						<rate>
							<timebase>59</timebase>
							<ntsc>TRUE</ntsc>
						</rate>
						<duration>66</duration>
						<start>16240</start>
						<end>16306</end>
						<in>0</in>
						<out>66</out>
					</clipitem>
					<clipitem frameBlend="FALSE" id="clipitem-telop-1910">
						<file id="file-2"/>
						<name>！</name>
						<rate>
							<timebase>59</timebase>
							<ntsc>TRUE</ntsc>
						</rate>
						<rate>
							<timebase>59</timebase>
							<ntsc>TRUE</ntsc>
						</rate>
						<duration>60</duration>
						<start>16306</start>
						<end>16366</end>
						<in>0</in>
						<out>60</out>
					</clipitem>
					<clipitem frameBlend="FALSE" id="clipitem-telop-1922">
						<file id="file-2"/>
						<name>！</name>
						<rate>
							<timebase>59</timebase>
							<ntsc>TRUE</ntsc>
						</rate>
						<rate>
							<timebase>59</timebase>
							<ntsc>TRUE</ntsc>
						</rate>
						<duration>60</duration>
						<start>16395</start>
						<end>16455</end>
						<in>0</in>
						<out>60</out>
					</clipitem>
					<clipitem frameBlend="FALSE" id="clipitem-telop-1939">
						<file id="file-2"/>
						<name>！</name>
						<rate>
							<timebase>59</timebase>
							<ntsc>TRUE</ntsc>
						</rate>
						<rate>
							<timebase>59</timebase>
							<ntsc>TRUE</ntsc>
						</rate>
						<duration>60</duration>
						<start>16527</start>
						<end>16587</end>
						<in>0</in>
						<out>60</out>
					</clipitem>
					<clipitem frameBlend="FALSE" id="clipitem-telop-1959">
						<file id="file-2"/>
						<name>！</name>
						<rate>
							<timebase>59</timebase>
							<ntsc>TRUE</ntsc>
						</rate>
						<rate>
							<timebase>59</timebase>
							<ntsc>TRUE</ntsc>
						</rate>
						<duration>66</duration>
						<start>16713</start>
						<end>16779</end>
						<in>0</in>
						<out>66</out>
					</clipitem>
					<clipitem frameBlend="FALSE" id="clipitem-telop-1969">
						<file id="file-2"/>
						<name>！</name>
						<rate>
							<timebase>59</timebase>
							<ntsc>TRUE</ntsc>
						</rate>
						<rate>
							<timebase>59</timebase>
							<ntsc>TRUE</ntsc>
						</rate>
						<duration>60</duration>
						<start>16779</start>
						<end>16839</end>
						<in>0</in>
						<out>60</out>
					</clipitem>
					<clipitem frameBlend="FALSE" id="clipitem-telop-1978">
						<file id="file-2"/>
						<name>！</name>
						<rate>
							<timebase>59</timebase>
							<ntsc>TRUE</ntsc>
						</rate>
						<rate>
							<timebase>59</timebase>
							<ntsc>TRUE</ntsc>
						</rate>
						<duration>60</duration>
						<start>16845</start>
						<end>16905</end>
						<in>0</in>
						<out>60</out>
					</clipitem>
					<clipitem frameBlend="FALSE" id="clipitem-telop-1999">
						<file id="file-2"/>
						<name>！</name>
						<rate>
							<timebase>59</timebase>
							<ntsc>TRUE</ntsc>
						</rate>
						<rate>
							<timebase>59</timebase>
							<ntsc>TRUE</ntsc>
						</rate>
						<duration>66</duration>
						<start>17097</start>
						<end>17163</end>
						<in>0</in>
						<out>66</out>
					</clipitem>
					<clipitem frameBlend="FALSE" id="clipitem-telop-2009">
						<file id="file-2"/>
						<name>！</name>
						<rate>
							<timebase>59</timebase>
							<ntsc>TRUE</ntsc>
						</rate>
						<rate>
							<timebase>59</timebase>
							<ntsc>TRUE</ntsc>
						</rate>
						<duration>60</duration>
						<start>17163</start>
						<end>17223</end>
						<in>0</in>
						<out>60</out>
					</clipitem>
					<clipitem frameBlend="FALSE" id="clipitem-telop-2025">
						<file id="file-2"/>
						<name>！</name>
						<rate>
							<timebase>59</timebase>
							<ntsc>TRUE</ntsc>
						</rate>
						<rate>
							<timebase>59</timebase>
							<ntsc>TRUE</ntsc>
						</rate>
						<duration>66</duration>
						<start>17313</start>
						<end>17379</end>
						<in>0</in>
						<out>66</out>
					</clipitem>
					<clipitem frameBlend="FALSE" id="clipitem-telop-2042">
						<file id="file-2"/>
						<name>！</name>
						<rate>
							<timebase>59</timebase>
							<ntsc>TRUE</ntsc>
						</rate>
						<rate>
							<timebase>59</timebase>
							<ntsc>TRUE</ntsc>
						</rate>
						<duration>66</duration>
						<start>17469</start>
						<end>17535</end>
						<in>0</in>
						<out>66</out>
					</clipitem>
					<clipitem frameBlend="FALSE" id="clipitem-telop-2069">
						<file id="file-2"/>
						<name>！</name>
						<rate>
							<timebase>59</timebase>
							<ntsc>TRUE</ntsc>
						</rate>
						<rate>
							<timebase>59</timebase>
							<ntsc>TRUE</ntsc>
						</rate>
						<duration>60</duration>
						<start>17781</start>
						<end>17841</end>
						<in>0</in>
						<out>60</out>
					</clipitem>
					<clipitem frameBlend="FALSE" id="clipitem-telop-2088">
						<file id="file-2"/>
						<name>！</name>
						<rate>
							<timebase>59</timebase>
							<ntsc>TRUE</ntsc>
						</rate>
						<rate>
							<timebase>59</timebase>
							<ntsc>TRUE</ntsc>
						</rate>
						<duration>60</duration>
						<start>17949</start>
						<end>18009</end>
						<in>0</in>
						<out>60</out>
					</clipitem>
					<clipitem frameBlend="FALSE" id="clipitem-telop-2106">
						<file id="file-2"/>
						<name>！</name>
						<rate>
							<timebase>59</timebase>
							<ntsc>TRUE</ntsc>
						</rate>
						<rate>
							<timebase>59</timebase>
							<ntsc>TRUE</ntsc>
						</rate>
						<duration>60</duration>
						<start>18081</start>
						<end>18141</end>
						<in>0</in>
						<out>60</out>
					</clipitem>
					<clipitem frameBlend="FALSE" id="clipitem-telop-2121">
						<file id="file-2"/>
						<name>！</name>
						<rate>
							<timebase>59</timebase>
							<ntsc>TRUE</ntsc>
						</rate>
						<rate>
							<timebase>59</timebase>
							<ntsc>TRUE</ntsc>
						</rate>
						<duration>66</duration>
						<start>18207</start>
						<end>18273</end>
						<in>0</in>
						<out>66</out>
					</clipitem>
					<clipitem frameBlend="FALSE" id="clipitem-telop-2155">
						<file id="file-2"/>
						<name>！</name>
						<rate>
							<timebase>59</timebase>
							<ntsc>TRUE</ntsc>
						</rate>
						<rate>
							<timebase>59</timebase>
							<ntsc>TRUE</ntsc>
						</rate>
						<duration>66</duration>
						<start>18591</start>
						<end>18657</end>
						<in>0</in>
						<out>66</out>
					</clipitem>
					<clipitem frameBlend="FALSE" id="clipitem-telop-2173">
						<file id="file-2"/>
						<name>！</name>
						<rate>
							<timebase>59</timebase>
							<ntsc>TRUE</ntsc>
						</rate>
						<rate>
							<timebase>59</timebase>
							<ntsc>TRUE</ntsc>
						</rate>
						<duration>66</duration>
						<start>18783</start>
						<end>18849</end>
						<in>0</in>
						<out>66</out>
					</clipitem>
					<clipitem frameBlend="FALSE" id="clipitem-telop-2192">
						<file id="file-2"/>
						<name>！</name>
						<rate>
							<timebase>59</timebase>
							<ntsc>TRUE</ntsc>
						</rate>
						<rate>
							<timebase>59</timebase>
							<ntsc>TRUE</ntsc>
						</rate>
						<duration>60</duration>
						<start>19041</start>
						<end>19101</end>
						<in>0</in>
						<out>60</out>
					</clipitem>
					<clipitem frameBlend="FALSE" id="clipitem-telop-2223">
						<file id="file-2"/>
						<name>！</name>
						<rate>
							<timebase>59</timebase>
							<ntsc>TRUE</ntsc>
						</rate>
						<rate>
							<timebase>59</timebase>
							<ntsc>TRUE</ntsc>
						</rate>
						<duration>60</duration>
						<start>19335</start>
						<end>19395</end>
						<in>0</in>
						<out>60</out>
					</clipitem>
					<clipitem frameBlend="FALSE" id="clipitem-telop-2244">
						<file id="file-2"/>
						<name>！</name>
						<rate>
							<timebase>59</timebase>
							<ntsc>TRUE</ntsc>
						</rate>
						<rate>
							<timebase>59</timebase>
							<ntsc>TRUE</ntsc>
						</rate>
						<duration>60</duration>
						<start>19485</start>
						<end>19545</end>
						<in>0</in>
						<out>60</out>
					</clipitem>
					<clipitem frameBlend="FALSE" id="clipitem-telop-2259">
						<file id="file-2"/>
						<name>！</name>
						<rate>
							<timebase>59</timebase>
							<ntsc>TRUE</ntsc>
						</rate>
						<rate>
							<timebase>59</timebase>
							<ntsc>TRUE</ntsc>
						</rate>
						<duration>60</duration>
						<start>19617</start>
						<end>19677</end>
						<in>0</in>
						<out>60</out>
					</clipitem>
					<clipitem frameBlend="FALSE" id="clipitem-telop-2287">
						<file id="file-2"/>
						<name>！</name>
						<rate>
							<timebase>59</timebase>
							<ntsc>TRUE</ntsc>
						</rate>
						<rate>
							<timebase>59</timebase>
							<ntsc>TRUE</ntsc>
						</rate>
						<duration>60</duration>
						<start>19833</start>
						<end>19893</end>
						<in>0</in>
						<out>60</out>
					</clipitem>
					<clipitem frameBlend="FALSE" id="clipitem-telop-2307">
						<file id="file-2"/>
						<name>！</name>
						<rate>
							<timebase>59</timebase>
							<ntsc>TRUE</ntsc>
						</rate>
						<rate>
							<timebase>59</timebase>
							<ntsc>TRUE</ntsc>
						</rate>
						<duration>60</duration>
						<start>19989</start>
						<end>20049</end>
						<in>0</in>
						<out>60</out>
					</clipitem>
					<clipitem frameBlend="FALSE" id="clipitem-telop-2319">
						<file id="file-2"/>
						<name>！</name>
						<rate>
							<timebase>59</timebase>
							<ntsc>TRUE</ntsc>
						</rate>
						<rate>
							<timebase>59</timebase>
							<ntsc>TRUE</ntsc>
						</rate>
						<duration>60</duration>
						<start>20091</start>
						<end>20151</end>
						<in>0</in>
						<out>60</out>
					</clipitem>
					<clipitem frameBlend="FALSE" id="clipitem-telop-2335">
						<file id="file-2"/>
						<name>！</name>
						<rate>
							<timebase>59</timebase>
							<ntsc>TRUE</ntsc>
						</rate>
						<rate>
							<timebase>59</timebase>
							<ntsc>TRUE</ntsc>
						</rate>
						<duration>60</duration>
						<start>20235</start>
						<end>20295</end>
						<in>0</in>
						<out>60</out>
					</clipitem>
					<clipitem frameBlend="FALSE" id="clipitem-telop-2353">
						<file id="file-2"/>
						<name>！</name>
						<rate>
							<timebase>59</timebase>
							<ntsc>TRUE</ntsc>
						</rate>
						<rate>
							<timebase>59</timebase>
							<ntsc>TRUE</ntsc>
						</rate>
						<duration>66</duration>
						<start>20361</start>
						<end>20427</end>
						<in>0</in>
						<out>66</out>
					</clipitem>
					<clipitem frameBlend="FALSE" id="clipitem-telop-2367">
						<file id="file-2"/>
						<name>！</name>
						<rate>
							<timebase>59</timebase>
							<ntsc>TRUE</ntsc>
						</rate>
						<rate>
							<timebase>59</timebase>
							<ntsc>TRUE</ntsc>
						</rate>
						<duration>60</duration>
						<start>20439</start>
						<end>20499</end>
						<in>0</in>
						<out>60</out>
					</clipitem>
					<clipitem frameBlend="FALSE" id="clipitem-telop-2377">
						<file id="file-2"/>
						<name>！</name>
						<rate>
							<timebase>59</timebase>
							<ntsc>TRUE</ntsc>
						</rate>
						<rate>
							<timebase>59</timebase>
							<ntsc>TRUE</ntsc>
						</rate>
						<duration>60</duration>
						<start>20535</start>
						<end>20595</end>
						<in>0</in>
						<out>60</out>
					</clipitem>
					<clipitem frameBlend="FALSE" id="clipitem-telop-2407">
						<file id="file-2"/>
						<name>！</name>
						<rate>
							<timebase>59</timebase>
							<ntsc>TRUE</ntsc>
						</rate>
						<rate>
							<timebase>59</timebase>
							<ntsc>TRUE</ntsc>
						</rate>
						<duration>60</duration>
						<start>20835</start>
						<end>20895</end>
						<in>0</in>
						<out>60</out>
					</clipitem>
					<clipitem frameBlend="FALSE" id="clipitem-telop-2421">
						<file id="file-2"/>
						<name>w</name>
						<rate>
							<timebase>59</timebase>
							<ntsc>TRUE</ntsc>
						</rate>
						<rate>
							<timebase>59</timebase>
							<ntsc>TRUE</ntsc>
						</rate>
						<duration>30</duration>
						<start>20973</start>
						<end>21003</end>
						<in>0</in>
						<out>30</out>
					</clipitem>
					<clipitem frameBlend="FALSE" id="clipitem-telop-2432">
						<file id="file-2"/>
						<name>！</name>
						<rate>
							<timebase>59</timebase>
							<ntsc>TRUE</ntsc>
						</rate>
						<rate>
							<timebase>59</timebase>
							<ntsc>TRUE</ntsc>
						</rate>
						<duration>66</duration>
						<start>21045</start>
						<end>21111</end>
						<in>0</in>
						<out>66</out>
					</clipitem>
					<clipitem frameBlend="FALSE" id="clipitem-telop-2452">
						<file id="file-2"/>
						<name>！</name>
						<rate>
							<timebase>59</timebase>
							<ntsc>TRUE</ntsc>
						</rate>
						<rate>
							<timebase>59</timebase>
							<ntsc>TRUE</ntsc>
						</rate>
						<duration>60</duration>
						<start>21117</start>
						<end>21177</end>
						<in>0</in>
						<out>60</out>
					</clipitem>
					<clipitem frameBlend="FALSE" id="clipitem-telop-2466">
						<file id="file-2"/>
						<name>！</name>
						<rate>
							<timebase>59</timebase>
							<ntsc>TRUE</ntsc>
						</rate>
						<rate>
							<timebase>59</timebase>
							<ntsc>TRUE</ntsc>
						</rate>
						<duration>60</duration>
						<start>21213</start>
						<end>21273</end>
						<in>0</in>
						<out>60</out>
					</clipitem>
					<clipitem frameBlend="FALSE" id="clipitem-telop-2484">
						<file id="file-2"/>
						<name>！</name>
						<rate>
							<timebase>59</timebase>
							<ntsc>TRUE</ntsc>
						</rate>
						<rate>
							<timebase>59</timebase>
							<ntsc>TRUE</ntsc>
						</rate>
						<duration>60</duration>
						<start>21321</start>
						<end>21381</end>
						<in>0</in>
						<out>60</out>
					</clipitem>
					<clipitem frameBlend="FALSE" id="clipitem-telop-2496">
						<file id="file-2"/>
						<name>！</name>
						<rate>
							<timebase>59</timebase>
							<ntsc>TRUE</ntsc>
						</rate>
						<rate>
							<timebase>59</timebase>
							<ntsc>TRUE</ntsc>
						</rate>
						<duration>66</duration>
						<start>21387</start>
						<end>21453</end>
						<in>0</in>
						<out>66</out>
					</clipitem>
					<clipitem frameBlend="FALSE" id="clipitem-telop-2508">
						<file id="file-2"/>
						<name>！</name>
						<rate>
							<timebase>59</timebase>
							<ntsc>TRUE</ntsc>
						</rate>
						<rate>
							<timebase>59</timebase>
							<ntsc>TRUE</ntsc>
						</rate>
						<duration>60</duration>
						<start>21465</start>
						<end>21525</end>
						<in>0</in>
						<out>60</out>
					</clipitem>
					<clipitem frameBlend="FALSE" id="clipitem-telop-2524">
						<file id="file-2"/>
						<name>！</name>
						<rate>
							<timebase>59</timebase>
							<ntsc>TRUE</ntsc>
						</rate>
						<rate>
							<timebase>59</timebase>
							<ntsc>TRUE</ntsc>
						</rate>
						<duration>60</duration>
						<start>21579</start>
						<end>21639</end>
						<in>0</in>
						<out>60</out>
					</clipitem>
					<clipitem frameBlend="FALSE" id="clipitem-telop-2536">
						<file id="file-2"/>
						<name>！</name>
						<rate>
							<timebase>59</timebase>
							<ntsc>TRUE</ntsc>
						</rate>
						<rate>
							<timebase>59</timebase>
							<ntsc>TRUE</ntsc>
						</rate>
						<duration>60</duration>
						<start>21663</start>
						<end>21723</end>
						<in>0</in>
						<out>60</out>
					</clipitem>
					<clipitem frameBlend="FALSE" id="clipitem-telop-2549">
						<file id="file-2"/>
						<name>！</name>
						<rate>
							<timebase>59</timebase>
							<ntsc>TRUE</ntsc>
						</rate>
						<rate>
							<timebase>59</timebase>
							<ntsc>TRUE</ntsc>
						</rate>
						<duration>60</duration>
						<start>21735</start>
						<end>21795</end>
						<in>0</in>
						<out>60</out>
					</clipitem>
					<clipitem frameBlend="FALSE" id="clipitem-telop-2563">
						<file id="file-2"/>
						<name>！</name>
						<rate>
							<timebase>59</timebase>
							<ntsc>TRUE</ntsc>
						</rate>
						<rate>
							<timebase>59</timebase>
							<ntsc>TRUE</ntsc>
						</rate>
						<duration>66</duration>
						<start>21819</start>
						<end>21885</end>
						<in>0</in>
						<out>66</out>
					</clipitem>
					<clipitem frameBlend="FALSE" id="clipitem-telop-2577">
						<file id="file-2"/>
						<name>！</name>
						<rate>
							<timebase>59</timebase>
							<ntsc>TRUE</ntsc>
						</rate>
						<rate>
							<timebase>59</timebase>
							<ntsc>TRUE</ntsc>
						</rate>
						<duration>60</duration>
						<start>21891</start>
						<end>21951</end>
						<in>0</in>
						<out>60</out>
					</clipitem>
					<clipitem frameBlend="FALSE" id="clipitem-telop-2589">
						<file id="file-2"/>
						<name>！</name>
						<rate>
							<timebase>59</timebase>
							<ntsc>TRUE</ntsc>
						</rate>
						<rate>
							<timebase>59</timebase>
							<ntsc>TRUE</ntsc>
						</rate>
						<duration>60</duration>
						<start>21993</start>
						<end>22053</end>
						<in>0</in>
						<out>60</out>
					</clipitem>
					<clipitem frameBlend="FALSE" id="clipitem-telop-2599">
						<file id="file-2"/>
						<name>！</name>
						<rate>
							<timebase>59</timebase>
							<ntsc>TRUE</ntsc>
						</rate>
						<rate>
							<timebase>59</timebase>
							<ntsc>TRUE</ntsc>
						</rate>
						<duration>60</duration>
						<start>22065</start>
						<end>22125</end>
						<in>0</in>
						<out>60</out>
					</clipitem>
					<clipitem frameBlend="FALSE" id="clipitem-telop-2616">
						<file id="file-2"/>
						<name>！</name>
						<rate>
							<timebase>59</timebase>
							<ntsc>TRUE</ntsc>
						</rate>
						<rate>
							<timebase>59</timebase>
							<ntsc>TRUE</ntsc>
						</rate>
						<duration>60</duration>
						<start>22155</start>
						<end>22215</end>
						<in>0</in>
						<out>60</out>
					</clipitem>
					<clipitem frameBlend="FALSE" id="clipitem-telop-2629">
						<file id="file-2"/>
						<name>！</name>
						<rate>
							<timebase>59</timebase>
							<ntsc>TRUE</ntsc>
						</rate>
						<rate>
							<timebase>59</timebase>
							<ntsc>TRUE</ntsc>
						</rate>
						<duration>60</duration>
						<start>22215</start>
						<end>22275</end>
						<in>0</in>
						<out>60</out>
					</clipitem>
					<clipitem frameBlend="FALSE" id="clipitem-telop-2640">
						<file id="file-2"/>
						<name>！</name>
						<rate>
							<timebase>59</timebase>
							<ntsc>TRUE</ntsc>
						</rate>
						<rate>
							<timebase>59</timebase>
							<ntsc>TRUE</ntsc>
						</rate>
						<duration>60</duration>
						<start>22311</start>
						<end>22371</end>
						<in>0</in>
						<out>60</out>
					</clipitem>
					<clipitem frameBlend="FALSE" id="clipitem-telop-2653">
						<file id="file-2"/>
						<name>！</name>
						<rate>
							<timebase>59</timebase>
							<ntsc>TRUE</ntsc>
						</rate>
						<rate>
							<timebase>59</timebase>
							<ntsc>TRUE</ntsc>
						</rate>
						<duration>60</duration>
						<start>22437</start>
						<end>22497</end>
						<in>0</in>
						<out>60</out>
					</clipitem>
					<clipitem frameBlend="FALSE" id="clipitem-telop-2676">
						<file id="file-2"/>
						<name>！</name>
						<rate>
							<timebase>59</timebase>
							<ntsc>TRUE</ntsc>
						</rate>
						<rate>
							<timebase>59</timebase>
							<ntsc>TRUE</ntsc>
						</rate>
						<duration>60</duration>
						<start>22611</start>
						<end>22671</end>
						<in>0</in>
						<out>60</out>
					</clipitem>
					<clipitem frameBlend="FALSE" id="clipitem-telop-2689">
						<file id="file-2"/>
						<name>！</name>
						<rate>
							<timebase>59</timebase>
							<ntsc>TRUE</ntsc>
						</rate>
						<rate>
							<timebase>59</timebase>
							<ntsc>TRUE</ntsc>
						</rate>
						<duration>60</duration>
						<start>22725</start>
						<end>22785</end>
						<in>0</in>
						<out>60</out>
					</clipitem>
					<clipitem frameBlend="FALSE" id="clipitem-telop-2706">
						<file id="file-2"/>
						<name>！</name>
						<rate>
							<timebase>59</timebase>
							<ntsc>TRUE</ntsc>
						</rate>
						<rate>
							<timebase>59</timebase>
							<ntsc>TRUE</ntsc>
						</rate>
						<duration>66</duration>
						<start>22845</start>
						<end>22911</end>
						<in>0</in>
						<out>66</out>
					</clipitem>
					<clipitem frameBlend="FALSE" id="clipitem-telop-2718">
						<file id="file-2"/>
						<name>！</name>
						<rate>
							<timebase>59</timebase>
							<ntsc>TRUE</ntsc>
						</rate>
						<rate>
							<timebase>59</timebase>
							<ntsc>TRUE</ntsc>
						</rate>
						<duration>66</duration>
						<start>22941</start>
						<end>23007</end>
						<in>0</in>
						<out>66</out>
					</clipitem>
					<clipitem frameBlend="FALSE" id="clipitem-telop-2743">
						<file id="file-2"/>
						<name>！</name>
						<rate>
							<timebase>59</timebase>
							<ntsc>TRUE</ntsc>
						</rate>
						<rate>
							<timebase>59</timebase>
							<ntsc>TRUE</ntsc>
						</rate>
						<duration>60</duration>
						<start>23139</start>
						<end>23199</end>
						<in>0</in>
						<out>60</out>
					</clipitem>
					<clipitem frameBlend="FALSE" id="clipitem-telop-2753">
						<file id="file-2"/>
						<name>！</name>
						<rate>
							<timebase>59</timebase>
							<ntsc>TRUE</ntsc>
						</rate>
						<rate>
							<timebase>59</timebase>
							<ntsc>TRUE</ntsc>
						</rate>
						<duration>60</duration>
						<start>23217</start>
						<end>23277</end>
						<in>0</in>
						<out>60</out>
					</clipitem>
					<clipitem frameBlend="FALSE" id="clipitem-telop-2768">
						<file id="file-2"/>
						<name>！</name>
						<rate>
							<timebase>59</timebase>
							<ntsc>TRUE</ntsc>
						</rate>
						<rate>
							<timebase>59</timebase>
							<ntsc>TRUE</ntsc>
						</rate>
						<duration>60</duration>
						<start>23319</start>
						<end>23379</end>
						<in>0</in>
						<out>60</out>
					</clipitem>
					<clipitem frameBlend="FALSE" id="clipitem-telop-2784">
						<file id="file-2"/>
						<name>！</name>
						<rate>
							<timebase>59</timebase>
							<ntsc>TRUE</ntsc>
						</rate>
						<rate>
							<timebase>59</timebase>
							<ntsc>TRUE</ntsc>
						</rate>
						<duration>60</duration>
						<start>23409</start>
						<end>23469</end>
						<in>0</in>
						<out>60</out>
					</clipitem>
					<clipitem frameBlend="FALSE" id="clipitem-telop-2813">
						<file id="file-2"/>
						<name>w</name>
						<rate>
							<timebase>59</timebase>
							<ntsc>TRUE</ntsc>
						</rate>
						<rate>
							<timebase>59</timebase>
							<ntsc>TRUE</ntsc>
						</rate>
						<duration>30</duration>
						<start>23649</start>
						<end>23679</end>
						<in>0</in>
						<out>30</out>
					</clipitem>
					<clipitem frameBlend="FALSE" id="clipitem-telop-2817">
						<file id="file-2"/>
						<name>w</name>
						<rate>
							<timebase>59</timebase>
							<ntsc>TRUE</ntsc>
						</rate>
						<rate>
							<timebase>59</timebase>
							<ntsc>TRUE</ntsc>
						</rate>
						<duration>30</duration>
						<start>23679</start>
						<end>23709</end>
						<in>0</in>
						<out>30</out>
					</clipitem>
					<clipitem frameBlend="FALSE" id="clipitem-telop-2828">
						<file id="file-2"/>
						<name>！</name>
						<rate>
							<timebase>59</timebase>
							<ntsc>TRUE</ntsc>
						</rate>
						<rate>
							<timebase>59</timebase>
							<ntsc>TRUE</ntsc>
						</rate>
						<duration>66</duration>
						<start>23751</start>
						<end>23817</end>
						<in>0</in>
						<out>66</out>
					</clipitem>
					<clipitem frameBlend="FALSE" id="clipitem-telop-2844">
						<file id="file-2"/>
						<name>！</name>
						<rate>
							<timebase>59</timebase>
							<ntsc>TRUE</ntsc>
						</rate>
						<rate>
							<timebase>59</timebase>
							<ntsc>TRUE</ntsc>
						</rate>
						<duration>60</duration>
						<start>23841</start>
						<end>23901</end>
						<in>0</in>
						<out>60</out>
					</clipitem>
					<clipitem frameBlend="FALSE" id="clipitem-telop-2871">
						<file id="file-2"/>
						<name>！</name>
						<rate>
							<timebase>59</timebase>
							<ntsc>TRUE</ntsc>
						</rate>
						<rate>
							<timebase>59</timebase>
							<ntsc>TRUE</ntsc>
						</rate>
						<duration>60</duration>
						<start>24027</start>
						<end>24087</end>
						<in>0</in>
						<out>60</out>
					</clipitem>
					<clipitem frameBlend="FALSE" id="clipitem-telop-2882">
						<file id="file-2"/>
						<name>！</name>
						<rate>
							<timebase>59</timebase>
							<ntsc>TRUE</ntsc>
						</rate>
						<rate>
							<timebase>59</timebase>
							<ntsc>TRUE</ntsc>
						</rate>
						<duration>60</duration>
						<start>24093</start>
						<end>24153</end>
						<in>0</in>
						<out>60</out>
					</clipitem>
					<clipitem frameBlend="FALSE" id="clipitem-telop-2893">
						<file id="file-2"/>
						<name>w</name>
						<rate>
							<timebase>59</timebase>
							<ntsc>TRUE</ntsc>
						</rate>
						<rate>
							<timebase>59</timebase>
							<ntsc>TRUE</ntsc>
						</rate>
						<duration>24</duration>
						<start>24153</start>
						<end>24177</end>
						<in>0</in>
						<out>24</out>
					</clipitem>
					<clipitem frameBlend="FALSE" id="clipitem-telop-2905">
						<file id="file-2"/>
						<name>！</name>
						<rate>
							<timebase>59</timebase>
							<ntsc>TRUE</ntsc>
						</rate>
						<rate>
							<timebase>59</timebase>
							<ntsc>TRUE</ntsc>
						</rate>
						<duration>60</duration>
						<start>24219</start>
						<end>24279</end>
						<in>0</in>
						<out>60</out>
					</clipitem>
					<clipitem frameBlend="FALSE" id="clipitem-telop-2922">
						<file id="file-2"/>
						<name>！</name>
						<rate>
							<timebase>59</timebase>
							<ntsc>TRUE</ntsc>
						</rate>
						<rate>
							<timebase>59</timebase>
							<ntsc>TRUE</ntsc>
						</rate>
						<duration>60</duration>
						<start>24339</start>
						<end>24399</end>
						<in>0</in>
						<out>60</out>
					</clipitem>
					<clipitem frameBlend="FALSE" id="clipitem-telop-2947">
						<file id="file-2"/>
						<name>！</name>
						<rate>
							<timebase>59</timebase>
							<ntsc>TRUE</ntsc>
						</rate>
						<rate>
							<timebase>59</timebase>
							<ntsc>TRUE</ntsc>
						</rate>
						<duration>12</duration>
						<start>24525</start>
						<end>24537</end>
						<in>0</in>
						<out>12</out>
					</clipitem>
				</track>
				<track>
					<clipitem frameBlend="FALSE" id="clipitem-telop-12">
						<file id="file-2"/>
						<name>！</name>
						<rate>
							<timebase>59</timebase>
							<ntsc>TRUE</ntsc>
						</rate>
						<rate>
							<timebase>59</timebase>
							<ntsc>TRUE</ntsc>
						</rate>
						<duration>60</duration>
						<start>89</start>
						<end>149</end>
						<in>0</in>
						<out>60</out>
					</clipitem>
					<clipitem frameBlend="FALSE" id="clipitem-telop-60">
						<file id="file-2"/>
						<name>！</name>
						<rate>
							<timebase>59</timebase>
							<ntsc>TRUE</ntsc>
						</rate>
						<rate>
							<timebase>59</timebase>
							<ntsc>TRUE</ntsc>
						</rate>
						<duration>60</duration>
						<start>527</start>
						<end>587</end>
						<in>0</in>
						<out>60</out>
					</clipitem>
					<clipitem frameBlend="FALSE" id="clipitem-telop-90">
						<file id="file-2"/>
						<name>！</name>
						<rate>
							<timebase>59</timebase>
							<ntsc>TRUE</ntsc>
						</rate>
						<rate>
							<timebase>59</timebase>
							<ntsc>TRUE</ntsc>
						</rate>
						<duration>66</duration>
						<start>785</start>
						<end>851</end>
						<in>0</in>
						<out>66</out>
					</clipitem>
					<clipitem frameBlend="FALSE" id="clipitem-telop-107">
						<file id="file-2"/>
						<name>！</name>
						<rate>
							<timebase>59</timebase>
							<ntsc>TRUE</ntsc>
						</rate>
						<rate>
							<timebase>59</timebase>
							<ntsc>TRUE</ntsc>
						</rate>
						<duration>66</duration>
						<start>947</start>
						<end>1013</end>
						<in>0</in>
						<out>66</out>
					</clipitem>
					<clipitem frameBlend="FALSE" id="clipitem-telop-134">
						<file id="file-2"/>
						<name>！</name>
						<rate>
							<timebase>59</timebase>
							<ntsc>TRUE</ntsc>
						</rate>
						<rate>
							<timebase>59</timebase>
							<ntsc>TRUE</ntsc>
						</rate>
						<duration>60</duration>
						<start>1193</start>
						<end>1253</end>
						<in>0</in>
						<out>60</out>
					</clipitem>
					<clipitem frameBlend="FALSE" id="clipitem-telop-164">
						<file id="file-2"/>
						<name>！</name>
						<rate>
							<timebase>59</timebase>
							<ntsc>TRUE</ntsc>
						</rate>
						<rate>
							<timebase>59</timebase>
							<ntsc>TRUE</ntsc>
						</rate>
						<duration>60</duration>
						<start>1487</start>
						<end>1547</end>
						<in>0</in>
						<out>60</out>
					</clipitem>
					<clipitem frameBlend="FALSE" id="clipitem-telop-177">
						<file id="file-2"/>
						<name>！</name>
						<rate>
							<timebase>59</timebase>
							<ntsc>TRUE</ntsc>
						</rate>
						<rate>
							<timebase>59</timebase>
							<ntsc>TRUE</ntsc>
						</rate>
						<duration>60</duration>
						<start>1589</start>
						<end>1649</end>
						<in>0</in>
						<out>60</out>
					</clipitem>
					<clipitem frameBlend="FALSE" id="clipitem-telop-186">
						<file id="file-2"/>
						<name>！</name>
						<rate>
							<timebase>59</timebase>
							<ntsc>TRUE</ntsc>
						</rate>
						<rate>
							<timebase>59</timebase>
							<ntsc>TRUE</ntsc>
						</rate>
						<duration>66</duration>
						<start>1649</start>
						<end>1715</end>
						<in>0</in>
						<out>66</out>
					</clipitem>
					<clipitem frameBlend="FALSE" id="clipitem-telop-198">
						<file id="file-2"/>
						<name>！</name>
						<rate>
							<timebase>59</timebase>
							<ntsc>TRUE</ntsc>
						</rate>
						<rate>
							<timebase>59</timebase>
							<ntsc>TRUE</ntsc>
						</rate>
						<duration>66</duration>
						<start>1757</start>
						<end>1823</end>
						<in>0</in>
						<out>66</out>
					</clipitem>
					<clipitem frameBlend="FALSE" id="clipitem-telop-228">
						<file id="file-2"/>
						<name>！</name>
						<rate>
							<timebase>59</timebase>
							<ntsc>TRUE</ntsc>
						</rate>
						<rate>
							<timebase>59</timebase>
							<ntsc>TRUE</ntsc>
						</rate>
						<duration>60</duration>
						<start>1991</start>
						<end>2051</end>
						<in>0</in>
						<out>60</out>
					</clipitem>
					<clipitem frameBlend="FALSE" id="clipitem-telop-240">
						<file id="file-2"/>
						<name>！</name>
						<rate>
							<timebase>59</timebase>
							<ntsc>TRUE</ntsc>
						</rate>
						<rate>
							<timebase>59</timebase>
							<ntsc>TRUE</ntsc>
						</rate>
						<duration>60</duration>
						<start>2057</start>
						<end>2117</end>
						<in>0</in>
						<out>60</out>
					</clipitem>
					<clipitem frameBlend="FALSE" id="clipitem-telop-257">
						<file id="file-2"/>
						<name>！</name>
						<rate>
							<timebase>59</timebase>
							<ntsc>TRUE</ntsc>
						</rate>
						<rate>
							<timebase>59</timebase>
							<ntsc>TRUE</ntsc>
						</rate>
						<duration>66</duration>
						<start>2207</start>
						<end>2273</end>
						<in>0</in>
						<out>66</out>
					</clipitem>
					<clipitem frameBlend="FALSE" id="clipitem-telop-313">
						<file id="file-2"/>
						<name>！</name>
						<rate>
							<timebase>59</timebase>
							<ntsc>TRUE</ntsc>
						</rate>
						<rate>
							<timebase>59</timebase>
							<ntsc>TRUE</ntsc>
						</rate>
						<duration>60</duration>
						<start>2729</start>
						<end>2789</end>
						<in>0</in>
						<out>60</out>
					</clipitem>
					<clipitem frameBlend="FALSE" id="clipitem-telop-341">
						<file id="file-2"/>
						<name>！</name>
						<rate>
							<timebase>59</timebase>
							<ntsc>TRUE</ntsc>
						</rate>
						<rate>
							<timebase>59</timebase>
							<ntsc>TRUE</ntsc>
						</rate>
						<duration>60</duration>
						<start>2993</start>
						<end>3053</end>
						<in>0</in>
						<out>60</out>
					</clipitem>
					<clipitem frameBlend="FALSE" id="clipitem-telop-370">
						<file id="file-2"/>
						<name>！</name>
						<rate>
							<timebase>59</timebase>
							<ntsc>TRUE</ntsc>
						</rate>
						<rate>
							<timebase>59</timebase>
							<ntsc>TRUE</ntsc>
						</rate>
						<duration>66</duration>
						<start>3239</start>
						<end>3305</end>
						<in>0</in>
						<out>66</out>
					</clipitem>
					<clipitem frameBlend="FALSE" id="clipitem-telop-382">
						<file id="file-2"/>
						<name>！</name>
						<rate>
							<timebase>59</timebase>
							<ntsc>TRUE</ntsc>
						</rate>
						<rate>
							<timebase>59</timebase>
							<ntsc>TRUE</ntsc>
						</rate>
						<duration>60</duration>
						<start>3305</start>
						<end>3365</end>
						<in>0</in>
						<out>60</out>
					</clipitem>
					<clipitem frameBlend="FALSE" id="clipitem-telop-396">
						<file id="file-2"/>
						<name>！</name>
						<rate>
							<timebase>59</timebase>
							<ntsc>TRUE</ntsc>
						</rate>
						<rate>
							<timebase>59</timebase>
							<ntsc>TRUE</ntsc>
						</rate>
						<duration>66</duration>
						<start>3365</start>
						<end>3431</end>
						<in>0</in>
						<out>66</out>
					</clipitem>
					<clipitem frameBlend="FALSE" id="clipitem-telop-409">
						<file id="file-2"/>
						<name>w</name>
						<rate>
							<timebase>59</timebase>
							<ntsc>TRUE</ntsc>
						</rate>
						<rate>
							<timebase>59</timebase>
							<ntsc>TRUE</ntsc>
						</rate>
						<duration>30</duration>
						<start>3449</start>
						<end>3479</end>
						<in>0</in>
						<out>30</out>
					</clipitem>
					<clipitem frameBlend="FALSE" id="clipitem-telop-440">
						<file id="file-2"/>
						<name>！</name>
						<rate>
							<timebase>59</timebase>
							<ntsc>TRUE</ntsc>
						</rate>
						<rate>
							<timebase>59</timebase>
							<ntsc>TRUE</ntsc>
						</rate>
						<duration>60</duration>
						<start>3767</start>
						<end>3827</end>
						<in>0</in>
						<out>60</out>
					</clipitem>
					<clipitem frameBlend="FALSE" id="clipitem-telop-452">
						<file id="file-2"/>
						<name>！</name>
						<rate>
							<timebase>59</timebase>
							<ntsc>TRUE</ntsc>
						</rate>
						<rate>
							<timebase>59</timebase>
							<ntsc>TRUE</ntsc>
						</rate>
						<duration>66</duration>
						<start>3851</start>
						<end>3917</end>
						<in>0</in>
						<out>66</out>
					</clipitem>
					<clipitem frameBlend="FALSE" id="clipitem-telop-464">
						<file id="file-2"/>
						<name>！</name>
						<rate>
							<timebase>59</timebase>
							<ntsc>TRUE</ntsc>
						</rate>
						<rate>
							<timebase>59</timebase>
							<ntsc>TRUE</ntsc>
						</rate>
						<duration>60</duration>
						<start>3929</start>
						<end>3989</end>
						<in>0</in>
						<out>60</out>
					</clipitem>
					<clipitem frameBlend="FALSE" id="clipitem-telop-504">
						<file id="file-2"/>
						<name>！</name>
						<rate>
							<timebase>59</timebase>
							<ntsc>TRUE</ntsc>
						</rate>
						<rate>
							<timebase>59</timebase>
							<ntsc>TRUE</ntsc>
						</rate>
						<duration>60</duration>
						<start>4325</start>
						<end>4385</end>
						<in>0</in>
						<out>60</out>
					</clipitem>
					<clipitem frameBlend="FALSE" id="clipitem-telop-524">
						<file id="file-2"/>
						<name>！</name>
						<rate>
							<timebase>59</timebase>
							<ntsc>TRUE</ntsc>
						</rate>
						<rate>
							<timebase>59</timebase>
							<ntsc>TRUE</ntsc>
						</rate>
						<duration>60</duration>
						<start>4463</start>
						<end>4523</end>
						<in>0</in>
						<out>60</out>
					</clipitem>
					<clipitem frameBlend="FALSE" id="clipitem-telop-537">
						<file id="file-2"/>
						<name>！</name>
						<rate>
							<timebase>59</timebase>
							<ntsc>TRUE</ntsc>
						</rate>
						<rate>
							<timebase>59</timebase>
							<ntsc>TRUE</ntsc>
						</rate>
						<duration>60</duration>
						<start>4571</start>
						<end>4631</end>
						<in>0</in>
						<out>60</out>
					</clipitem>
					<clipitem frameBlend="FALSE" id="clipitem-telop-550">
						<file id="file-2"/>
						<name>！</name>
						<rate>
							<timebase>59</timebase>
							<ntsc>TRUE</ntsc>
						</rate>
						<rate>
							<timebase>59</timebase>
							<ntsc>TRUE</ntsc>
						</rate>
						<duration>60</duration>
						<start>4637</start>
						<end>4697</end>
						<in>0</in>
						<out>60</out>
					</clipitem>
					<clipitem frameBlend="FALSE" id="clipitem-telop-572">
						<file id="file-2"/>
						<name>！</name>
						<rate>
							<timebase>59</timebase>
							<ntsc>TRUE</ntsc>
						</rate>
						<rate>
							<timebase>59</timebase>
							<ntsc>TRUE</ntsc>
						</rate>
						<duration>60</duration>
						<start>4817</start>
						<end>4877</end>
						<in>0</in>
						<out>60</out>
					</clipitem>
					<clipitem frameBlend="FALSE" id="clipitem-telop-584">
						<file id="file-2"/>
						<name>！</name>
						<rate>
							<timebase>59</timebase>
							<ntsc>TRUE</ntsc>
						</rate>
						<rate>
							<timebase>59</timebase>
							<ntsc>TRUE</ntsc>
						</rate>
						<duration>66</duration>
						<start>4877</start>
						<end>4943</end>
						<in>0</in>
						<out>66</out>
					</clipitem>
					<clipitem frameBlend="FALSE" id="clipitem-telop-597">
						<file id="file-2"/>
						<name>！</name>
						<rate>
							<timebase>59</timebase>
							<ntsc>TRUE</ntsc>
						</rate>
						<rate>
							<timebase>59</timebase>
							<ntsc>TRUE</ntsc>
						</rate>
						<duration>60</duration>
						<start>4949</start>
						<end>5009</end>
						<in>0</in>
						<out>60</out>
					</clipitem>
					<clipitem frameBlend="FALSE" id="clipitem-telop-616">
						<file id="file-2"/>
						<name>！</name>
						<rate>
							<timebase>59</timebase>
							<ntsc>TRUE</ntsc>
						</rate>
						<rate>
							<timebase>59</timebase>
							<ntsc>TRUE</ntsc>
						</rate>
						<duration>60</duration>
						<start>5045</start>
						<end>5105</end>
						<in>0</in>
						<out>60</out>
					</clipitem>
					<clipitem frameBlend="FALSE" id="clipitem-telop-626">
						<file id="file-2"/>
						<name>！</name>
						<rate>
							<timebase>59</timebase>
							<ntsc>TRUE</ntsc>
						</rate>
						<rate>
							<timebase>59</timebase>
							<ntsc>TRUE</ntsc>
						</rate>
						<duration>66</duration>
						<start>5105</start>
						<end>5171</end>
						<in>0</in>
						<out>66</out>
					</clipitem>
					<clipitem frameBlend="FALSE" id="clipitem-telop-638">
						<file id="file-2"/>
						<name>！</name>
						<rate>
							<timebase>59</timebase>
							<ntsc>TRUE</ntsc>
						</rate>
						<rate>
							<timebase>59</timebase>
							<ntsc>TRUE</ntsc>
						</rate>
						<duration>60</duration>
						<start>5195</start>
						<end>5255</end>
						<in>0</in>
						<out>60</out>
					</clipitem>
					<clipitem frameBlend="FALSE" id="clipitem-telop-658">
						<file id="file-2"/>
						<name>！</name>
						<rate>
							<timebase>59</timebase>
							<ntsc>TRUE</ntsc>
						</rate>
						<rate>
							<timebase>59</timebase>
							<ntsc>TRUE</ntsc>
						</rate>
						<duration>60</duration>
						<start>5339</start>
						<end>5399</end>
						<in>0</in>
						<out>60</out>
					</clipitem>
					<clipitem frameBlend="FALSE" id="clipitem-telop-709">
						<file id="file-2"/>
						<name>！</name>
						<rate>
							<timebase>59</timebase>
							<ntsc>TRUE</ntsc>
						</rate>
						<rate>
							<timebase>59</timebase>
							<ntsc>TRUE</ntsc>
						</rate>
						<duration>60</duration>
						<start>5837</start>
						<end>5897</end>
						<in>0</in>
						<out>60</out>
					</clipitem>
					<clipitem frameBlend="FALSE" id="clipitem-telop-724">
						<file id="file-2"/>
						<name>！</name>
						<rate>
							<timebase>59</timebase>
							<ntsc>TRUE</ntsc>
						</rate>
						<rate>
							<timebase>59</timebase>
							<ntsc>TRUE</ntsc>
						</rate>
						<duration>60</duration>
						<start>5999</start>
						<end>6059</end>
						<in>0</in>
						<out>60</out>
					</clipitem>
					<clipitem frameBlend="FALSE" id="clipitem-telop-739">
						<file id="file-2"/>
						<name>！</name>
						<rate>
							<timebase>59</timebase>
							<ntsc>TRUE</ntsc>
						</rate>
						<rate>
							<timebase>59</timebase>
							<ntsc>TRUE</ntsc>
						</rate>
						<duration>60</duration>
						<start>6089</start>
						<end>6149</end>
						<in>0</in>
						<out>60</out>
					</clipitem>
					<clipitem frameBlend="FALSE" id="clipitem-telop-777">
						<file id="file-2"/>
						<name>！</name>
						<rate>
							<timebase>59</timebase>
							<ntsc>TRUE</ntsc>
						</rate>
						<rate>
							<timebase>59</timebase>
							<ntsc>TRUE</ntsc>
						</rate>
						<duration>66</duration>
						<start>6503</start>
						<end>6569</end>
						<in>0</in>
						<out>66</out>
					</clipitem>
					<clipitem frameBlend="FALSE" id="clipitem-telop-802">
						<file id="file-2"/>
						<name>！</name>
						<rate>
							<timebase>59</timebase>
							<ntsc>TRUE</ntsc>
						</rate>
						<rate>
							<timebase>59</timebase>
							<ntsc>TRUE</ntsc>
						</rate>
						<duration>60</duration>
						<start>6671</start>
						<end>6731</end>
						<in>0</in>
						<out>60</out>
					</clipitem>
					<clipitem frameBlend="FALSE" id="clipitem-telop-816">
						<file id="file-2"/>
						<name>！</name>
						<rate>
							<timebase>59</timebase>
							<ntsc>TRUE</ntsc>
						</rate>
						<rate>
							<timebase>59</timebase>
							<ntsc>TRUE</ntsc>
						</rate>
						<duration>60</duration>
						<start>6773</start>
						<end>6833</end>
						<in>0</in>
						<out>60</out>
					</clipitem>
					<clipitem frameBlend="FALSE" id="clipitem-telop-831">
						<file id="file-2"/>
						<name>！</name>
						<rate>
							<timebase>59</timebase>
							<ntsc>TRUE</ntsc>
						</rate>
						<rate>
							<timebase>59</timebase>
							<ntsc>TRUE</ntsc>
						</rate>
						<duration>60</duration>
						<start>6869</start>
						<end>6929</end>
						<in>0</in>
						<out>60</out>
					</clipitem>
					<clipitem frameBlend="FALSE" id="clipitem-telop-849">
						<file id="file-2"/>
						<name>！</name>
						<rate>
							<timebase>59</timebase>
							<ntsc>TRUE</ntsc>
						</rate>
						<rate>
							<timebase>59</timebase>
							<ntsc>TRUE</ntsc>
						</rate>
						<duration>60</duration>
						<start>6959</start>
						<end>7019</end>
						<in>0</in>
						<out>60</out>
					</clipitem>
					<clipitem frameBlend="FALSE" id="clipitem-telop-863">
						<file id="file-2"/>
						<name>！</name>
						<rate>
							<timebase>59</timebase>
							<ntsc>TRUE</ntsc>
						</rate>
						<rate>
							<timebase>59</timebase>
							<ntsc>TRUE</ntsc>
						</rate>
						<duration>60</duration>
						<start>7067</start>
						<end>7127</end>
						<in>0</in>
						<out>60</out>
					</clipitem>
					<clipitem frameBlend="FALSE" id="clipitem-telop-875">
						<file id="file-2"/>
						<name>！</name>
						<rate>
							<timebase>59</timebase>
							<ntsc>TRUE</ntsc>
						</rate>
						<rate>
							<timebase>59</timebase>
							<ntsc>TRUE</ntsc>
						</rate>
						<duration>60</duration>
						<start>7163</start>
						<end>7223</end>
						<in>0</in>
						<out>60</out>
					</clipitem>
					<clipitem frameBlend="FALSE" id="clipitem-telop-901">
						<file id="file-2"/>
						<name>！</name>
						<rate>
							<timebase>59</timebase>
							<ntsc>TRUE</ntsc>
						</rate>
						<rate>
							<timebase>59</timebase>
							<ntsc>TRUE</ntsc>
						</rate>
						<duration>66</duration>
						<start>7373</start>
						<end>7439</end>
						<in>0</in>
						<out>66</out>
					</clipitem>
					<clipitem frameBlend="FALSE" id="clipitem-telop-911">
						<file id="file-2"/>
						<name>！</name>
						<rate>
							<timebase>59</timebase>
							<ntsc>TRUE</ntsc>
						</rate>
						<rate>
							<timebase>59</timebase>
							<ntsc>TRUE</ntsc>
						</rate>
						<duration>60</duration>
						<start>7445</start>
						<end>7505</end>
						<in>0</in>
						<out>60</out>
					</clipitem>
					<clipitem frameBlend="FALSE" id="clipitem-telop-924">
						<file id="file-2"/>
						<name>！</name>
						<rate>
							<timebase>59</timebase>
							<ntsc>TRUE</ntsc>
						</rate>
						<rate>
							<timebase>59</timebase>
							<ntsc>TRUE</ntsc>
						</rate>
						<duration>60</duration>
						<start>7511</start>
						<end>7571</end>
						<in>0</in>
						<out>60</out>
					</clipitem>
					<clipitem frameBlend="FALSE" id="clipitem-telop-942">
						<file id="file-2"/>
						<name>！</name>
						<rate>
							<timebase>59</timebase>
							<ntsc>TRUE</ntsc>
						</rate>
						<rate>
							<timebase>59</timebase>
							<ntsc>TRUE</ntsc>
						</rate>
						<duration>60</duration>
						<start>7649</start>
						<end>7709</end>
						<in>0</in>
						<out>60</out>
					</clipitem>
					<clipitem frameBlend="FALSE" id="clipitem-telop-963">
						<file id="file-2"/>
						<name>！</name>
						<rate>
							<timebase>59</timebase>
							<ntsc>TRUE</ntsc>
						</rate>
						<rate>
							<timebase>59</timebase>
							<ntsc>TRUE</ntsc>
						</rate>
						<duration>66</duration>
						<start>7805</start>
						<end>7871</end>
						<in>0</in>
						<out>66</out>
					</clipitem>
					<clipitem frameBlend="FALSE" id="clipitem-telop-1000">
						<file id="file-2"/>
						<name>！</name>
						<rate>
							<timebase>59</timebase>
							<ntsc>TRUE</ntsc>
						</rate>
						<rate>
							<timebase>59</timebase>
							<ntsc>TRUE</ntsc>
						</rate>
						<duration>66</duration>
						<start>8230</start>
						<end>8296</end>
						<in>0</in>
						<out>66</out>
					</clipitem>
					<clipitem frameBlend="FALSE" id="clipitem-telop-1024">
						<file id="file-2"/>
						<name>！</name>
						<rate>
							<timebase>59</timebase>
							<ntsc>TRUE</ntsc>
						</rate>
						<rate>
							<timebase>59</timebase>
							<ntsc>TRUE</ntsc>
						</rate>
						<duration>66</duration>
						<start>8458</start>
						<end>8524</end>
						<in>0</in>
						<out>66</out>
					</clipitem>
					<clipitem frameBlend="FALSE" id="clipitem-telop-1042">
						<file id="file-2"/>
						<name>！</name>
						<rate>
							<timebase>59</timebase>
							<ntsc>TRUE</ntsc>
						</rate>
						<rate>
							<timebase>59</timebase>
							<ntsc>TRUE</ntsc>
						</rate>
						<duration>60</duration>
						<start>8602</start>
						<end>8662</end>
						<in>0</in>
						<out>60</out>
					</clipitem>
					<clipitem frameBlend="FALSE" id="clipitem-telop-1067">
						<file id="file-2"/>
						<name>！</name>
						<rate>
							<timebase>59</timebase>
							<ntsc>TRUE</ntsc>
						</rate>
						<rate>
							<timebase>59</timebase>
							<ntsc>TRUE</ntsc>
						</rate>
						<duration>66</duration>
						<start>8884</start>
						<end>8950</end>
						<in>0</in>
						<out>66</out>
					</clipitem>
					<clipitem frameBlend="FALSE" id="clipitem-telop-1093">
						<file id="file-2"/>
						<name>！</name>
						<rate>
							<timebase>59</timebase>
							<ntsc>TRUE</ntsc>
						</rate>
						<rate>
							<timebase>59</timebase>
							<ntsc>TRUE</ntsc>
						</rate>
						<duration>66</duration>
						<start>9100</start>
						<end>9166</end>
						<in>0</in>
						<out>66</out>
					</clipitem>
					<clipitem frameBlend="FALSE" id="clipitem-telop-1115">
						<file id="file-2"/>
						<name>！</name>
						<rate>
							<timebase>59</timebase>
							<ntsc>TRUE</ntsc>
						</rate>
						<rate>
							<timebase>59</timebase>
							<ntsc>TRUE</ntsc>
						</rate>
						<duration>60</duration>
						<start>9268</start>
						<end>9328</end>
						<in>0</in>
						<out>60</out>
					</clipitem>
					<clipitem frameBlend="FALSE" id="clipitem-telop-1128">
						<file id="file-2"/>
						<name>！</name>
						<rate>
							<timebase>59</timebase>
							<ntsc>TRUE</ntsc>
						</rate>
						<rate>
							<timebase>59</timebase>
							<ntsc>TRUE</ntsc>
						</rate>
						<duration>60</duration>
						<start>9358</start>
						<end>9418</end>
						<in>0</in>
						<out>60</out>
					</clipitem>
					<clipitem frameBlend="FALSE" id="clipitem-telop-1138">
						<file id="file-2"/>
						<name>！</name>
						<rate>
							<timebase>59</timebase>
							<ntsc>TRUE</ntsc>
						</rate>
						<rate>
							<timebase>59</timebase>
							<ntsc>TRUE</ntsc>
						</rate>
						<duration>66</duration>
						<start>9424</start>
						<end>9490</end>
						<in>0</in>
						<out>66</out>
					</clipitem>
					<clipitem frameBlend="FALSE" id="clipitem-telop-1170">
						<file id="file-2"/>
						<name>！</name>
						<rate>
							<timebase>59</timebase>
							<ntsc>TRUE</ntsc>
						</rate>
						<rate>
							<timebase>59</timebase>
							<ntsc>TRUE</ntsc>
						</rate>
						<duration>66</duration>
						<start>9664</start>
						<end>9730</end>
						<in>0</in>
						<out>66</out>
					</clipitem>
					<clipitem frameBlend="FALSE" id="clipitem-telop-1192">
						<file id="file-2"/>
						<name>！</name>
						<rate>
							<timebase>59</timebase>
							<ntsc>TRUE</ntsc>
						</rate>
						<rate>
							<timebase>59</timebase>
							<ntsc>TRUE</ntsc>
						</rate>
						<duration>60</duration>
						<start>9904</start>
						<end>9964</end>
						<in>0</in>
						<out>60</out>
					</clipitem>
					<clipitem frameBlend="FALSE" id="clipitem-telop-1218">
						<file id="file-2"/>
						<name>！</name>
						<rate>
							<timebase>59</timebase>
							<ntsc>TRUE</ntsc>
						</rate>
						<rate>
							<timebase>59</timebase>
							<ntsc>TRUE</ntsc>
						</rate>
						<duration>60</duration>
						<start>10180</start>
						<end>10240</end>
						<in>0</in>
						<out>60</out>
					</clipitem>
					<clipitem frameBlend="FALSE" id="clipitem-telop-1255">
						<file id="file-2"/>
						<name>！</name>
						<rate>
							<timebase>59</timebase>
							<ntsc>TRUE</ntsc>
						</rate>
						<rate>
							<timebase>59</timebase>
							<ntsc>TRUE</ntsc>
						</rate>
						<duration>60</duration>
						<start>10612</start>
						<end>10672</end>
						<in>0</in>
						<out>60</out>
					</clipitem>
					<clipitem frameBlend="FALSE" id="clipitem-telop-1268">
						<file id="file-2"/>
						<name>！</name>
						<rate>
							<timebase>59</timebase>
							<ntsc>TRUE</ntsc>
						</rate>
						<rate>
							<timebase>59</timebase>
							<ntsc>TRUE</ntsc>
						</rate>
						<duration>60</duration>
						<start>10684</start>
						<end>10744</end>
						<in>0</in>
						<out>60</out>
					</clipitem>
					<clipitem frameBlend="FALSE" id="clipitem-telop-1302">
						<file id="file-2"/>
						<name>！</name>
						<rate>
							<timebase>59</timebase>
							<ntsc>TRUE</ntsc>
						</rate>
						<rate>
							<timebase>59</timebase>
							<ntsc>TRUE</ntsc>
						</rate>
						<duration>60</duration>
						<start>10984</start>
						<end>11044</end>
						<in>0</in>
						<out>60</out>
					</clipitem>
					<clipitem frameBlend="FALSE" id="clipitem-telop-1315">
						<file id="file-2"/>
						<name>！</name>
						<rate>
							<timebase>59</timebase>
							<ntsc>TRUE</ntsc>
						</rate>
						<rate>
							<timebase>59</timebase>
							<ntsc>TRUE</ntsc>
						</rate>
						<duration>60</duration>
						<start>11086</start>
						<end>11146</end>
						<in>0</in>
						<out>60</out>
					</clipitem>
					<clipitem frameBlend="FALSE" id="clipitem-telop-1344">
						<file id="file-2"/>
						<name>！</name>
						<rate>
							<timebase>59</timebase>
							<ntsc>TRUE</ntsc>
						</rate>
						<rate>
							<timebase>59</timebase>
							<ntsc>TRUE</ntsc>
						</rate>
						<duration>66</duration>
						<start>11362</start>
						<end>11428</end>
						<in>0</in>
						<out>66</out>
					</clipitem>
					<clipitem frameBlend="FALSE" id="clipitem-telop-1365">
						<file id="file-2"/>
						<name>！</name>
						<rate>
							<timebase>59</timebase>
							<ntsc>TRUE</ntsc>
						</rate>
						<rate>
							<timebase>59</timebase>
							<ntsc>TRUE</ntsc>
						</rate>
						<duration>60</duration>
						<start>11542</start>
						<end>11602</end>
						<in>0</in>
						<out>60</out>
					</clipitem>
					<clipitem frameBlend="FALSE" id="clipitem-telop-1379">
						<file id="file-2"/>
						<name>！</name>
						<rate>
							<timebase>59</timebase>
							<ntsc>TRUE</ntsc>
						</rate>
						<rate>
							<timebase>59</timebase>
							<ntsc>TRUE</ntsc>
						</rate>
						<duration>66</duration>
						<start>11674</start>
						<end>11740</end>
						<in>0</in>
						<out>66</out>
					</clipitem>
					<clipitem frameBlend="FALSE" id="clipitem-telop-1405">
						<file id="file-2"/>
						<name>！</name>
						<rate>
							<timebase>59</timebase>
							<ntsc>TRUE</ntsc>
						</rate>
						<rate>
							<timebase>59</timebase>
							<ntsc>TRUE</ntsc>
						</rate>
						<duration>60</duration>
						<start>11866</start>
						<end>11926</end>
						<in>0</in>
						<out>60</out>
					</clipitem>
					<clipitem frameBlend="FALSE" id="clipitem-telop-1416">
						<file id="file-2"/>
						<name>！</name>
						<rate>
							<timebase>59</timebase>
							<ntsc>TRUE</ntsc>
						</rate>
						<rate>
							<timebase>59</timebase>
							<ntsc>TRUE</ntsc>
						</rate>
						<duration>66</duration>
						<start>11938</start>
						<end>12004</end>
						<in>0</in>
						<out>66</out>
					</clipitem>
					<clipitem frameBlend="FALSE" id="clipitem-telop-1426">
						<file id="file-2"/>
						<name>！</name>
						<rate>
							<timebase>59</timebase>
							<ntsc>TRUE</ntsc>
						</rate>
						<rate>
							<timebase>59</timebase>
							<ntsc>TRUE</ntsc>
						</rate>
						<duration>60</duration>
						<start>12040</start>
						<end>12100</end>
						<in>0</in>
						<out>60</out>
					</clipitem>
					<clipitem frameBlend="FALSE" id="clipitem-telop-1439">
						<file id="file-2"/>
						<name>！</name>
						<rate>
							<timebase>59</timebase>
							<ntsc>TRUE</ntsc>
						</rate>
						<rate>
							<timebase>59</timebase>
							<ntsc>TRUE</ntsc>
						</rate>
						<duration>60</duration>
						<start>12130</start>
						<end>12190</end>
						<in>0</in>
						<out>60</out>
					</clipitem>
					<clipitem frameBlend="FALSE" id="clipitem-telop-1453">
						<file id="file-2"/>
						<name>！</name>
						<rate>
							<timebase>59</timebase>
							<ntsc>TRUE</ntsc>
						</rate>
						<rate>
							<timebase>59</timebase>
							<ntsc>TRUE</ntsc>
						</rate>
						<duration>60</duration>
						<start>12244</start>
						<end>12304</end>
						<in>0</in>
						<out>60</out>
					</clipitem>
					<clipitem frameBlend="FALSE" id="clipitem-telop-1496">
						<file id="file-2"/>
						<name>！</name>
						<rate>
							<timebase>59</timebase>
							<ntsc>TRUE</ntsc>
						</rate>
						<rate>
							<timebase>59</timebase>
							<ntsc>TRUE</ntsc>
						</rate>
						<duration>60</duration>
						<start>12616</start>
						<end>12676</end>
						<in>0</in>
						<out>60</out>
					</clipitem>
					<clipitem frameBlend="FALSE" id="clipitem-telop-1572">
						<file id="file-2"/>
						<name>！</name>
						<rate>
							<timebase>59</timebase>
							<ntsc>TRUE</ntsc>
						</rate>
						<rate>
							<timebase>59</timebase>
							<ntsc>TRUE</ntsc>
						</rate>
						<duration>60</duration>
						<start>13282</start>
						<end>13342</end>
						<in>0</in>
						<out>60</out>
					</clipitem>
					<clipitem frameBlend="FALSE" id="clipitem-telop-1597">
						<file id="file-2"/>
						<name>！</name>
						<rate>
							<timebase>59</timebase>
							<ntsc>TRUE</ntsc>
						</rate>
						<rate>
							<timebase>59</timebase>
							<ntsc>TRUE</ntsc>
						</rate>
						<duration>60</duration>
						<start>13528</start>
						<end>13588</end>
						<in>0</in>
						<out>60</out>
					</clipitem>
					<clipitem frameBlend="FALSE" id="clipitem-telop-1609">
						<file id="file-2"/>
						<name>！</name>
						<rate>
							<timebase>59</timebase>
							<ntsc>TRUE</ntsc>
						</rate>
						<rate>
							<timebase>59</timebase>
							<ntsc>TRUE</ntsc>
						</rate>
						<duration>60</duration>
						<start>13606</start>
						<end>13666</end>
						<in>0</in>
						<out>60</out>
					</clipitem>
					<clipitem frameBlend="FALSE" id="clipitem-telop-1632">
						<file id="file-2"/>
						<name>！</name>
						<rate>
							<timebase>59</timebase>
							<ntsc>TRUE</ntsc>
						</rate>
						<rate>
							<timebase>59</timebase>
							<ntsc>TRUE</ntsc>
						</rate>
						<duration>60</duration>
						<start>13792</start>
						<end>13852</end>
						<in>0</in>
						<out>60</out>
					</clipitem>
					<clipitem frameBlend="FALSE" id="clipitem-telop-1647">
						<file id="file-2"/>
						<name>！</name>
						<rate>
							<timebase>59</timebase>
							<ntsc>TRUE</ntsc>
						</rate>
						<rate>
							<timebase>59</timebase>
							<ntsc>TRUE</ntsc>
						</rate>
						<duration>60</duration>
						<start>13924</start>
						<end>13984</end>
						<in>0</in>
						<out>60</out>
					</clipitem>
					<clipitem frameBlend="FALSE" id="clipitem-telop-1674">
						<file id="file-2"/>
						<name>！</name>
						<rate>
							<timebase>59</timebase>
							<ntsc>TRUE</ntsc>
						</rate>
						<rate>
							<timebase>59</timebase>
							<ntsc>TRUE</ntsc>
						</rate>
						<duration>60</duration>
						<start>14176</start>
						<end>14236</end>
						<in>0</in>
						<out>60</out>
					</clipitem>
					<clipitem frameBlend="FALSE" id="clipitem-telop-1698">
						<file id="file-2"/>
						<name>！</name>
						<rate>
							<timebase>59</timebase>
							<ntsc>TRUE</ntsc>
						</rate>
						<rate>
							<timebase>59</timebase>
							<ntsc>TRUE</ntsc>
						</rate>
						<duration>66</duration>
						<start>14362</start>
						<end>14428</end>
						<in>0</in>
						<out>66</out>
					</clipitem>
					<clipitem frameBlend="FALSE" id="clipitem-telop-1730">
						<file id="file-2"/>
						<name>！</name>
						<rate>
							<timebase>59</timebase>
							<ntsc>TRUE</ntsc>
						</rate>
						<rate>
							<timebase>59</timebase>
							<ntsc>TRUE</ntsc>
						</rate>
						<duration>66</duration>
						<start>14668</start>
						<end>14734</end>
						<in>0</in>
						<out>66</out>
					</clipitem>
					<clipitem frameBlend="FALSE" id="clipitem-telop-1763">
						<file id="file-2"/>
						<name>！</name>
						<rate>
							<timebase>59</timebase>
							<ntsc>TRUE</ntsc>
						</rate>
						<rate>
							<timebase>59</timebase>
							<ntsc>TRUE</ntsc>
						</rate>
						<duration>60</duration>
						<start>15010</start>
						<end>15070</end>
						<in>0</in>
						<out>60</out>
					</clipitem>
					<clipitem frameBlend="FALSE" id="clipitem-telop-1799">
						<file id="file-2"/>
						<name>！</name>
						<rate>
							<timebase>59</timebase>
							<ntsc>TRUE</ntsc>
						</rate>
						<rate>
							<timebase>59</timebase>
							<ntsc>TRUE</ntsc>
						</rate>
						<duration>60</duration>
						<start>15376</start>
						<end>15436</end>
						<in>0</in>
						<out>60</out>
					</clipitem>
					<clipitem frameBlend="FALSE" id="clipitem-telop-1854">
						<file id="file-2"/>
						<name>w</name>
						<rate>
							<timebase>59</timebase>
							<ntsc>TRUE</ntsc>
						</rate>
						<rate>
							<timebase>59</timebase>
							<ntsc>TRUE</ntsc>
						</rate>
						<duration>24</duration>
						<start>15880</start>
						<end>15904</end>
						<in>0</in>
						<out>24</out>
					</clipitem>
					<clipitem frameBlend="FALSE" id="clipitem-telop-1859">
						<file id="file-2"/>
						<name>w</name>
						<rate>
							<timebase>59</timebase>
							<ntsc>TRUE</ntsc>
						</rate>
						<rate>
							<timebase>59</timebase>
							<ntsc>TRUE</ntsc>
						</rate>
						<duration>30</duration>
						<start>15904</start>
						<end>15934</end>
						<in>0</in>
						<out>30</out>
					</clipitem>
					<clipitem frameBlend="FALSE" id="clipitem-telop-1883">
						<file id="file-2"/>
						<name>！</name>
						<rate>
							<timebase>59</timebase>
							<ntsc>TRUE</ntsc>
						</rate>
						<rate>
							<timebase>59</timebase>
							<ntsc>TRUE</ntsc>
						</rate>
						<duration>60</duration>
						<start>16102</start>
						<end>16162</end>
						<in>0</in>
						<out>60</out>
					</clipitem>
					<clipitem frameBlend="FALSE" id="clipitem-telop-1911">
						<file id="file-2"/>
						<name>！</name>
						<rate>
							<timebase>59</timebase>
							<ntsc>TRUE</ntsc>
						</rate>
						<rate>
							<timebase>59</timebase>
							<ntsc>TRUE</ntsc>
						</rate>
						<duration>65</duration>
						<start>16306</start>
						<end>16371</end>
						<in>0</in>
						<out>65</out>
					</clipitem>
					<clipitem frameBlend="FALSE" id="clipitem-telop-1923">
						<file id="file-2"/>
						<name>！</name>
						<rate>
							<timebase>59</timebase>
							<ntsc>TRUE</ntsc>
						</rate>
						<rate>
							<timebase>59</timebase>
							<ntsc>TRUE</ntsc>
						</rate>
						<duration>60</duration>
						<start>16401</start>
						<end>16461</end>
						<in>0</in>
						<out>60</out>
					</clipitem>
					<clipitem frameBlend="FALSE" id="clipitem-telop-1960">
						<file id="file-2"/>
						<name>！</name>
						<rate>
							<timebase>59</timebase>
							<ntsc>TRUE</ntsc>
						</rate>
						<rate>
							<timebase>59</timebase>
							<ntsc>TRUE</ntsc>
						</rate>
						<duration>60</duration>
						<start>16719</start>
						<end>16779</end>
						<in>0</in>
						<out>60</out>
					</clipitem>
					<clipitem frameBlend="FALSE" id="clipitem-telop-1970">
						<file id="file-2"/>
						<name>！</name>
						<rate>
							<timebase>59</timebase>
							<ntsc>TRUE</ntsc>
						</rate>
						<rate>
							<timebase>59</timebase>
							<ntsc>TRUE</ntsc>
						</rate>
						<duration>66</duration>
						<start>16779</start>
						<end>16845</end>
						<in>0</in>
						<out>66</out>
					</clipitem>
					<clipitem frameBlend="FALSE" id="clipitem-telop-2004">
						<file id="file-2"/>
						<name>！</name>
						<rate>
							<timebase>59</timebase>
							<ntsc>TRUE</ntsc>
						</rate>
						<rate>
							<timebase>59</timebase>
							<ntsc>TRUE</ntsc>
						</rate>
						<duration>66</duration>
						<start>17133</start>
						<end>17199</end>
						<in>0</in>
						<out>66</out>
					</clipitem>
					<clipitem frameBlend="FALSE" id="clipitem-telop-2071">
						<file id="file-2"/>
						<name>！</name>
						<rate>
							<timebase>59</timebase>
							<ntsc>TRUE</ntsc>
						</rate>
						<rate>
							<timebase>59</timebase>
							<ntsc>TRUE</ntsc>
						</rate>
						<duration>60</duration>
						<start>17793</start>
						<end>17853</end>
						<in>0</in>
						<out>60</out>
					</clipitem>
					<clipitem frameBlend="FALSE" id="clipitem-telop-2089">
						<file id="file-2"/>
						<name>！</name>
						<rate>
							<timebase>59</timebase>
							<ntsc>TRUE</ntsc>
						</rate>
						<rate>
							<timebase>59</timebase>
							<ntsc>TRUE</ntsc>
						</rate>
						<duration>66</duration>
						<start>17949</start>
						<end>18015</end>
						<in>0</in>
						<out>66</out>
					</clipitem>
					<clipitem frameBlend="FALSE" id="clipitem-telop-2159">
						<file id="file-2"/>
						<name>！</name>
						<rate>
							<timebase>59</timebase>
							<ntsc>TRUE</ntsc>
						</rate>
						<rate>
							<timebase>59</timebase>
							<ntsc>TRUE</ntsc>
						</rate>
						<duration>60</duration>
						<start>18615</start>
						<end>18675</end>
						<in>0</in>
						<out>60</out>
					</clipitem>
					<clipitem frameBlend="FALSE" id="clipitem-telop-2174">
						<file id="file-2"/>
						<name>！</name>
						<rate>
							<timebase>59</timebase>
							<ntsc>TRUE</ntsc>
						</rate>
						<rate>
							<timebase>59</timebase>
							<ntsc>TRUE</ntsc>
						</rate>
						<duration>60</duration>
						<start>18789</start>
						<end>18849</end>
						<in>0</in>
						<out>60</out>
					</clipitem>
					<clipitem frameBlend="FALSE" id="clipitem-telop-2193">
						<file id="file-2"/>
						<name>！</name>
						<rate>
							<timebase>59</timebase>
							<ntsc>TRUE</ntsc>
						</rate>
						<rate>
							<timebase>59</timebase>
							<ntsc>TRUE</ntsc>
						</rate>
						<duration>60</duration>
						<start>19047</start>
						<end>19107</end>
						<in>0</in>
						<out>60</out>
					</clipitem>
					<clipitem frameBlend="FALSE" id="clipitem-telop-2224">
						<file id="file-2"/>
						<name>！</name>
						<rate>
							<timebase>59</timebase>
							<ntsc>TRUE</ntsc>
						</rate>
						<rate>
							<timebase>59</timebase>
							<ntsc>TRUE</ntsc>
						</rate>
						<duration>60</duration>
						<start>19341</start>
						<end>19401</end>
						<in>0</in>
						<out>60</out>
					</clipitem>
					<clipitem frameBlend="FALSE" id="clipitem-telop-2245">
						<file id="file-2"/>
						<name>！</name>
						<rate>
							<timebase>59</timebase>
							<ntsc>TRUE</ntsc>
						</rate>
						<rate>
							<timebase>59</timebase>
							<ntsc>TRUE</ntsc>
						</rate>
						<duration>60</duration>
						<start>19491</start>
						<end>19551</end>
						<in>0</in>
						<out>60</out>
					</clipitem>
					<clipitem frameBlend="FALSE" id="clipitem-telop-2260">
						<file id="file-2"/>
						<name>！</name>
						<rate>
							<timebase>59</timebase>
							<ntsc>TRUE</ntsc>
						</rate>
						<rate>
							<timebase>59</timebase>
							<ntsc>TRUE</ntsc>
						</rate>
						<duration>60</duration>
						<start>19623</start>
						<end>19683</end>
						<in>0</in>
						<out>60</out>
					</clipitem>
					<clipitem frameBlend="FALSE" id="clipitem-telop-2288">
						<file id="file-2"/>
						<name>！</name>
						<rate>
							<timebase>59</timebase>
							<ntsc>TRUE</ntsc>
						</rate>
						<rate>
							<timebase>59</timebase>
							<ntsc>TRUE</ntsc>
						</rate>
						<duration>60</duration>
						<start>19839</start>
						<end>19899</end>
						<in>0</in>
						<out>60</out>
					</clipitem>
					<clipitem frameBlend="FALSE" id="clipitem-telop-2309">
						<file id="file-2"/>
						<name>！</name>
						<rate>
							<timebase>59</timebase>
							<ntsc>TRUE</ntsc>
						</rate>
						<rate>
							<timebase>59</timebase>
							<ntsc>TRUE</ntsc>
						</rate>
						<duration>66</duration>
						<start>20001</start>
						<end>20067</end>
						<in>0</in>
						<out>66</out>
					</clipitem>
					<clipitem frameBlend="FALSE" id="clipitem-telop-2336">
						<file id="file-2"/>
						<name>！</name>
						<rate>
							<timebase>59</timebase>
							<ntsc>TRUE</ntsc>
						</rate>
						<rate>
							<timebase>59</timebase>
							<ntsc>TRUE</ntsc>
						</rate>
						<duration>60</duration>
						<start>20235</start>
						<end>20295</end>
						<in>0</in>
						<out>60</out>
					</clipitem>
					<clipitem frameBlend="FALSE" id="clipitem-telop-2355">
						<file id="file-2"/>
						<name>！</name>
						<rate>
							<timebase>59</timebase>
							<ntsc>TRUE</ntsc>
						</rate>
						<rate>
							<timebase>59</timebase>
							<ntsc>TRUE</ntsc>
						</rate>
						<duration>60</duration>
						<start>20385</start>
						<end>20445</end>
						<in>0</in>
						<out>60</out>
					</clipitem>
					<clipitem frameBlend="FALSE" id="clipitem-telop-2379">
						<file id="file-2"/>
						<name>！</name>
						<rate>
							<timebase>59</timebase>
							<ntsc>TRUE</ntsc>
						</rate>
						<rate>
							<timebase>59</timebase>
							<ntsc>TRUE</ntsc>
						</rate>
						<duration>60</duration>
						<start>20541</start>
						<end>20601</end>
						<in>0</in>
						<out>60</out>
					</clipitem>
					<clipitem frameBlend="FALSE" id="clipitem-telop-2422">
						<file id="file-2"/>
						<name>！</name>
						<rate>
							<timebase>59</timebase>
							<ntsc>TRUE</ntsc>
						</rate>
						<rate>
							<timebase>59</timebase>
							<ntsc>TRUE</ntsc>
						</rate>
						<duration>66</duration>
						<start>20973</start>
						<end>21039</end>
						<in>0</in>
						<out>66</out>
					</clipitem>
					<clipitem frameBlend="FALSE" id="clipitem-telop-2435">
						<file id="file-2"/>
						<name>！</name>
						<rate>
							<timebase>59</timebase>
							<ntsc>TRUE</ntsc>
						</rate>
						<rate>
							<timebase>59</timebase>
							<ntsc>TRUE</ntsc>
						</rate>
						<duration>66</duration>
						<start>21051</start>
						<end>21117</end>
						<in>0</in>
						<out>66</out>
					</clipitem>
					<clipitem frameBlend="FALSE" id="clipitem-telop-2453">
						<file id="file-2"/>
						<name>！</name>
						<rate>
							<timebase>59</timebase>
							<ntsc>TRUE</ntsc>
						</rate>
						<rate>
							<timebase>59</timebase>
							<ntsc>TRUE</ntsc>
						</rate>
						<duration>66</duration>
						<start>21117</start>
						<end>21183</end>
						<in>0</in>
						<out>66</out>
					</clipitem>
					<clipitem frameBlend="FALSE" id="clipitem-telop-2467">
						<file id="file-2"/>
						<name>！</name>
						<rate>
							<timebase>59</timebase>
							<ntsc>TRUE</ntsc>
						</rate>
						<rate>
							<timebase>59</timebase>
							<ntsc>TRUE</ntsc>
						</rate>
						<duration>60</duration>
						<start>21219</start>
						<end>21279</end>
						<in>0</in>
						<out>60</out>
					</clipitem>
					<clipitem frameBlend="FALSE" id="clipitem-telop-2485">
						<file id="file-2"/>
						<name>w</name>
						<rate>
							<timebase>59</timebase>
							<ntsc>TRUE</ntsc>
						</rate>
						<rate>
							<timebase>59</timebase>
							<ntsc>TRUE</ntsc>
						</rate>
						<duration>30</duration>
						<start>21321</start>
						<end>21351</end>
						<in>0</in>
						<out>30</out>
					</clipitem>
					<clipitem frameBlend="FALSE" id="clipitem-telop-2497">
						<file id="file-2"/>
						<name>！</name>
						<rate>
							<timebase>59</timebase>
							<ntsc>TRUE</ntsc>
						</rate>
						<rate>
							<timebase>59</timebase>
							<ntsc>TRUE</ntsc>
						</rate>
						<duration>66</duration>
						<start>21393</start>
						<end>21459</end>
						<in>0</in>
						<out>66</out>
					</clipitem>
					<clipitem frameBlend="FALSE" id="clipitem-telop-2513">
						<file id="file-2"/>
						<name>！</name>
						<rate>
							<timebase>59</timebase>
							<ntsc>TRUE</ntsc>
						</rate>
						<rate>
							<timebase>59</timebase>
							<ntsc>TRUE</ntsc>
						</rate>
						<duration>60</duration>
						<start>21495</start>
						<end>21555</end>
						<in>0</in>
						<out>60</out>
					</clipitem>
					<clipitem frameBlend="FALSE" id="clipitem-telop-2526">
						<file id="file-2"/>
						<name>！</name>
						<rate>
							<timebase>59</timebase>
							<ntsc>TRUE</ntsc>
						</rate>
						<rate>
							<timebase>59</timebase>
							<ntsc>TRUE</ntsc>
						</rate>
						<duration>66</duration>
						<start>21585</start>
						<end>21651</end>
						<in>0</in>
						<out>66</out>
					</clipitem>
					<clipitem frameBlend="FALSE" id="clipitem-telop-2537">
						<file id="file-2"/>
						<name>！</name>
						<rate>
							<timebase>59</timebase>
							<ntsc>TRUE</ntsc>
						</rate>
						<rate>
							<timebase>59</timebase>
							<ntsc>TRUE</ntsc>
						</rate>
						<duration>66</duration>
						<start>21663</start>
						<end>21729</end>
						<in>0</in>
						<out>66</out>
					</clipitem>
					<clipitem frameBlend="FALSE" id="clipitem-telop-2551">
						<file id="file-2"/>
						<name>！</name>
						<rate>
							<timebase>59</timebase>
							<ntsc>TRUE</ntsc>
						</rate>
						<rate>
							<timebase>59</timebase>
							<ntsc>TRUE</ntsc>
						</rate>
						<duration>60</duration>
						<start>21747</start>
						<end>21807</end>
						<in>0</in>
						<out>60</out>
					</clipitem>
					<clipitem frameBlend="FALSE" id="clipitem-telop-2564">
						<file id="file-2"/>
						<name>！</name>
						<rate>
							<timebase>59</timebase>
							<ntsc>TRUE</ntsc>
						</rate>
						<rate>
							<timebase>59</timebase>
							<ntsc>TRUE</ntsc>
						</rate>
						<duration>60</duration>
						<start>21825</start>
						<end>21885</end>
						<in>0</in>
						<out>60</out>
					</clipitem>
					<clipitem frameBlend="FALSE" id="clipitem-telop-2579">
						<file id="file-2"/>
						<name>！</name>
						<rate>
							<timebase>59</timebase>
							<ntsc>TRUE</ntsc>
						</rate>
						<rate>
							<timebase>59</timebase>
							<ntsc>TRUE</ntsc>
						</rate>
						<duration>66</duration>
						<start>21915</start>
						<end>21981</end>
						<in>0</in>
						<out>66</out>
					</clipitem>
					<clipitem frameBlend="FALSE" id="clipitem-telop-2601">
						<file id="file-2"/>
						<name>！</name>
						<rate>
							<timebase>59</timebase>
							<ntsc>TRUE</ntsc>
						</rate>
						<rate>
							<timebase>59</timebase>
							<ntsc>TRUE</ntsc>
						</rate>
						<duration>66</duration>
						<start>22071</start>
						<end>22137</end>
						<in>0</in>
						<out>66</out>
					</clipitem>
					<clipitem frameBlend="FALSE" id="clipitem-telop-2619">
						<file id="file-2"/>
						<name>！</name>
						<rate>
							<timebase>59</timebase>
							<ntsc>TRUE</ntsc>
						</rate>
						<rate>
							<timebase>59</timebase>
							<ntsc>TRUE</ntsc>
						</rate>
						<duration>60</duration>
						<start>22173</start>
						<end>22233</end>
						<in>0</in>
						<out>60</out>
					</clipitem>
					<clipitem frameBlend="FALSE" id="clipitem-telop-2641">
						<file id="file-2"/>
						<name>！</name>
						<rate>
							<timebase>59</timebase>
							<ntsc>TRUE</ntsc>
						</rate>
						<rate>
							<timebase>59</timebase>
							<ntsc>TRUE</ntsc>
						</rate>
						<duration>60</duration>
						<start>22311</start>
						<end>22371</end>
						<in>0</in>
						<out>60</out>
					</clipitem>
					<clipitem frameBlend="FALSE" id="clipitem-telop-2654">
						<file id="file-2"/>
						<name>！</name>
						<rate>
							<timebase>59</timebase>
							<ntsc>TRUE</ntsc>
						</rate>
						<rate>
							<timebase>59</timebase>
							<ntsc>TRUE</ntsc>
						</rate>
						<duration>60</duration>
						<start>22437</start>
						<end>22497</end>
						<in>0</in>
						<out>60</out>
					</clipitem>
					<clipitem frameBlend="FALSE" id="clipitem-telop-2677">
						<file id="file-2"/>
						<name>！</name>
						<rate>
							<timebase>59</timebase>
							<ntsc>TRUE</ntsc>
						</rate>
						<rate>
							<timebase>59</timebase>
							<ntsc>TRUE</ntsc>
						</rate>
						<duration>66</duration>
						<start>22611</start>
						<end>22677</end>
						<in>0</in>
						<out>66</out>
					</clipitem>
					<clipitem frameBlend="FALSE" id="clipitem-telop-2694">
						<file id="file-2"/>
						<name>！</name>
						<rate>
							<timebase>59</timebase>
							<ntsc>TRUE</ntsc>
						</rate>
						<rate>
							<timebase>59</timebase>
							<ntsc>TRUE</ntsc>
						</rate>
						<duration>66</duration>
						<start>22743</start>
						<end>22809</end>
						<in>0</in>
						<out>66</out>
					</clipitem>
					<clipitem frameBlend="FALSE" id="clipitem-telop-2719">
						<file id="file-2"/>
						<name>！</name>
						<rate>
							<timebase>59</timebase>
							<ntsc>TRUE</ntsc>
						</rate>
						<rate>
							<timebase>59</timebase>
							<ntsc>TRUE</ntsc>
						</rate>
						<duration>60</duration>
						<start>22947</start>
						<end>23007</end>
						<in>0</in>
						<out>60</out>
					</clipitem>
					<clipitem frameBlend="FALSE" id="clipitem-telop-2754">
						<file id="file-2"/>
						<name>！</name>
						<rate>
							<timebase>59</timebase>
							<ntsc>TRUE</ntsc>
						</rate>
						<rate>
							<timebase>59</timebase>
							<ntsc>TRUE</ntsc>
						</rate>
						<duration>60</duration>
						<start>23223</start>
						<end>23283</end>
						<in>0</in>
						<out>60</out>
					</clipitem>
					<clipitem frameBlend="FALSE" id="clipitem-telop-2776">
						<file id="file-2"/>
						<name>！</name>
						<rate>
							<timebase>59</timebase>
							<ntsc>TRUE</ntsc>
						</rate>
						<rate>
							<timebase>59</timebase>
							<ntsc>TRUE</ntsc>
						</rate>
						<duration>60</duration>
						<start>23361</start>
						<end>23421</end>
						<in>0</in>
						<out>60</out>
					</clipitem>
					<clipitem frameBlend="FALSE" id="clipitem-telop-2789">
						<file id="file-2"/>
						<name>！</name>
						<rate>
							<timebase>59</timebase>
							<ntsc>TRUE</ntsc>
						</rate>
						<rate>
							<timebase>59</timebase>
							<ntsc>TRUE</ntsc>
						</rate>
						<duration>60</duration>
						<start>23445</start>
						<end>23505</end>
						<in>0</in>
						<out>60</out>
					</clipitem>
					<clipitem frameBlend="FALSE" id="clipitem-telop-2816">
						<file id="file-2"/>
						<name>！</name>
						<rate>
							<timebase>59</timebase>
							<ntsc>TRUE</ntsc>
						</rate>
						<rate>
							<timebase>59</timebase>
							<ntsc>TRUE</ntsc>
						</rate>
						<duration>60</duration>
						<start>23667</start>
						<end>23727</end>
						<in>0</in>
						<out>60</out>
					</clipitem>
					<clipitem frameBlend="FALSE" id="clipitem-telop-2829">
						<file id="file-2"/>
						<name>w</name>
						<rate>
							<timebase>59</timebase>
							<ntsc>TRUE</ntsc>
						</rate>
						<rate>
							<timebase>59</timebase>
							<ntsc>TRUE</ntsc>
						</rate>
						<duration>24</duration>
						<start>23763</start>
						<end>23787</end>
						<in>0</in>
						<out>24</out>
					</clipitem>
					<clipitem frameBlend="FALSE" id="clipitem-telop-2840">
						<file id="file-2"/>
						<name>！</name>
						<rate>
							<timebase>59</timebase>
							<ntsc>TRUE</ntsc>
						</rate>
						<rate>
							<timebase>59</timebase>
							<ntsc>TRUE</ntsc>
						</rate>
						<duration>66</duration>
						<start>23811</start>
						<end>23877</end>
						<in>0</in>
						<out>66</out>
					</clipitem>
					<clipitem frameBlend="FALSE" id="clipitem-telop-2855">
						<file id="file-2"/>
						<name>！</name>
						<rate>
							<timebase>59</timebase>
							<ntsc>TRUE</ntsc>
						</rate>
						<rate>
							<timebase>59</timebase>
							<ntsc>TRUE</ntsc>
						</rate>
						<duration>66</duration>
						<start>23883</start>
						<end>23949</end>
						<in>0</in>
						<out>66</out>
					</clipitem>
					<clipitem frameBlend="FALSE" id="clipitem-telop-2878">
						<file id="file-2"/>
						<name>！</name>
						<rate>
							<timebase>59</timebase>
							<ntsc>TRUE</ntsc>
						</rate>
						<rate>
							<timebase>59</timebase>
							<ntsc>TRUE</ntsc>
						</rate>
						<duration>66</duration>
						<start>24069</start>
						<end>24135</end>
						<in>0</in>
						<out>66</out>
					</clipitem>
					<clipitem frameBlend="FALSE" id="clipitem-telop-2891">
						<file id="file-2"/>
						<name>！</name>
						<rate>
							<timebase>59</timebase>
							<ntsc>TRUE</ntsc>
						</rate>
						<rate>
							<timebase>59</timebase>
							<ntsc>TRUE</ntsc>
						</rate>
						<duration>60</duration>
						<start>24135</start>
						<end>24195</end>
						<in>0</in>
						<out>60</out>
					</clipitem>
					<clipitem frameBlend="FALSE" id="clipitem-telop-2906">
						<file id="file-2"/>
						<name>！</name>
						<rate>
							<timebase>59</timebase>
							<ntsc>TRUE</ntsc>
						</rate>
						<rate>
							<timebase>59</timebase>
							<ntsc>TRUE</ntsc>
						</rate>
						<duration>60</duration>
						<start>24219</start>
						<end>24279</end>
						<in>0</in>
						<out>60</out>
					</clipitem>
					<clipitem frameBlend="FALSE" id="clipitem-telop-2925">
						<file id="file-2"/>
						<name>！</name>
						<rate>
							<timebase>59</timebase>
							<ntsc>TRUE</ntsc>
						</rate>
						<rate>
							<timebase>59</timebase>
							<ntsc>TRUE</ntsc>
						</rate>
						<duration>60</duration>
						<start>24357</start>
						<end>24417</end>
						<in>0</in>
						<out>60</out>
					</clipitem>
				</track>
				<track>
					<clipitem frameBlend="FALSE" id="clipitem-telop-13">
						<file id="file-2"/>
						<name>！</name>
						<rate>
							<timebase>59</timebase>
							<ntsc>TRUE</ntsc>
						</rate>
						<rate>
							<timebase>59</timebase>
							<ntsc>TRUE</ntsc>
						</rate>
						<duration>60</duration>
						<start>89</start>
						<end>149</end>
						<in>0</in>
						<out>60</out>
					</clipitem>
					<clipitem frameBlend="FALSE" id="clipitem-telop-62">
						<file id="file-2"/>
						<name>！</name>
						<rate>
							<timebase>59</timebase>
							<ntsc>TRUE</ntsc>
						</rate>
						<rate>
							<timebase>59</timebase>
							<ntsc>TRUE</ntsc>
						</rate>
						<duration>60</duration>
						<start>545</start>
						<end>605</end>
						<in>0</in>
						<out>60</out>
					</clipitem>
					<clipitem frameBlend="FALSE" id="clipitem-telop-92">
						<file id="file-2"/>
						<name>！</name>
						<rate>
							<timebase>59</timebase>
							<ntsc>TRUE</ntsc>
						</rate>
						<rate>
							<timebase>59</timebase>
							<ntsc>TRUE</ntsc>
						</rate>
						<duration>60</duration>
						<start>797</start>
						<end>857</end>
						<in>0</in>
						<out>60</out>
					</clipitem>
					<clipitem frameBlend="FALSE" id="clipitem-telop-113">
						<file id="file-2"/>
						<name>！</name>
						<rate>
							<timebase>59</timebase>
							<ntsc>TRUE</ntsc>
						</rate>
						<rate>
							<timebase>59</timebase>
							<ntsc>TRUE</ntsc>
						</rate>
						<duration>60</duration>
						<start>989</start>
						<end>1049</end>
						<in>0</in>
						<out>60</out>
					</clipitem>
					<clipitem frameBlend="FALSE" id="clipitem-telop-165">
						<file id="file-2"/>
						<name>！</name>
						<rate>
							<timebase>59</timebase>
							<ntsc>TRUE</ntsc>
						</rate>
						<rate>
							<timebase>59</timebase>
							<ntsc>TRUE</ntsc>
						</rate>
						<duration>60</duration>
						<start>1487</start>
						<end>1547</end>
						<in>0</in>
						<out>60</out>
					</clipitem>
					<clipitem frameBlend="FALSE" id="clipitem-telop-204">
						<file id="file-2"/>
						<name>！</name>
						<rate>
							<timebase>59</timebase>
							<ntsc>TRUE</ntsc>
						</rate>
						<rate>
							<timebase>59</timebase>
							<ntsc>TRUE</ntsc>
						</rate>
						<duration>66</duration>
						<start>1793</start>
						<end>1859</end>
						<in>0</in>
						<out>66</out>
					</clipitem>
					<clipitem frameBlend="FALSE" id="clipitem-telop-229">
						<file id="file-2"/>
						<name>！</name>
						<rate>
							<timebase>59</timebase>
							<ntsc>TRUE</ntsc>
						</rate>
						<rate>
							<timebase>59</timebase>
							<ntsc>TRUE</ntsc>
						</rate>
						<duration>60</duration>
						<start>1997</start>
						<end>2057</end>
						<in>0</in>
						<out>60</out>
					</clipitem>
					<clipitem frameBlend="FALSE" id="clipitem-telop-241">
						<file id="file-2"/>
						<name>！</name>
						<rate>
							<timebase>59</timebase>
							<ntsc>TRUE</ntsc>
						</rate>
						<rate>
							<timebase>59</timebase>
							<ntsc>TRUE</ntsc>
						</rate>
						<duration>60</duration>
						<start>2063</start>
						<end>2123</end>
						<in>0</in>
						<out>60</out>
					</clipitem>
					<clipitem frameBlend="FALSE" id="clipitem-telop-266">
						<file id="file-2"/>
						<name>！</name>
						<rate>
							<timebase>59</timebase>
							<ntsc>TRUE</ntsc>
						</rate>
						<rate>
							<timebase>59</timebase>
							<ntsc>TRUE</ntsc>
						</rate>
						<duration>60</duration>
						<start>2267</start>
						<end>2327</end>
						<in>0</in>
						<out>60</out>
					</clipitem>
					<clipitem frameBlend="FALSE" id="clipitem-telop-342">
						<file id="file-2"/>
						<name>！</name>
						<rate>
							<timebase>59</timebase>
							<ntsc>TRUE</ntsc>
						</rate>
						<rate>
							<timebase>59</timebase>
							<ntsc>TRUE</ntsc>
						</rate>
						<duration>60</duration>
						<start>2993</start>
						<end>3053</end>
						<in>0</in>
						<out>60</out>
					</clipitem>
					<clipitem frameBlend="FALSE" id="clipitem-telop-374">
						<file id="file-2"/>
						<name>！</name>
						<rate>
							<timebase>59</timebase>
							<ntsc>TRUE</ntsc>
						</rate>
						<rate>
							<timebase>59</timebase>
							<ntsc>TRUE</ntsc>
						</rate>
						<duration>66</duration>
						<start>3269</start>
						<end>3335</end>
						<in>0</in>
						<out>66</out>
					</clipitem>
					<clipitem frameBlend="FALSE" id="clipitem-telop-388">
						<file id="file-2"/>
						<name>！</name>
						<rate>
							<timebase>59</timebase>
							<ntsc>TRUE</ntsc>
						</rate>
						<rate>
							<timebase>59</timebase>
							<ntsc>TRUE</ntsc>
						</rate>
						<duration>60</duration>
						<start>3335</start>
						<end>3395</end>
						<in>0</in>
						<out>60</out>
					</clipitem>
					<clipitem frameBlend="FALSE" id="clipitem-telop-399">
						<file id="file-2"/>
						<name>！</name>
						<rate>
							<timebase>59</timebase>
							<ntsc>TRUE</ntsc>
						</rate>
						<rate>
							<timebase>59</timebase>
							<ntsc>TRUE</ntsc>
						</rate>
						<duration>60</duration>
						<start>3395</start>
						<end>3455</end>
						<in>0</in>
						<out>60</out>
					</clipitem>
					<clipitem frameBlend="FALSE" id="clipitem-telop-410">
						<file id="file-2"/>
						<name>！</name>
						<rate>
							<timebase>59</timebase>
							<ntsc>TRUE</ntsc>
						</rate>
						<rate>
							<timebase>59</timebase>
							<ntsc>TRUE</ntsc>
						</rate>
						<duration>60</duration>
						<start>3455</start>
						<end>3515</end>
						<in>0</in>
						<out>60</out>
					</clipitem>
					<clipitem frameBlend="FALSE" id="clipitem-telop-456">
						<file id="file-2"/>
						<name>！</name>
						<rate>
							<timebase>59</timebase>
							<ntsc>TRUE</ntsc>
						</rate>
						<rate>
							<timebase>59</timebase>
							<ntsc>TRUE</ntsc>
						</rate>
						<duration>60</duration>
						<start>3875</start>
						<end>3935</end>
						<in>0</in>
						<out>60</out>
					</clipitem>
					<clipitem frameBlend="FALSE" id="clipitem-telop-466">
						<file id="file-2"/>
						<name>！</name>
						<rate>
							<timebase>59</timebase>
							<ntsc>TRUE</ntsc>
						</rate>
						<rate>
							<timebase>59</timebase>
							<ntsc>TRUE</ntsc>
						</rate>
						<duration>66</duration>
						<start>3941</start>
						<end>4007</end>
						<in>0</in>
						<out>66</out>
					</clipitem>
					<clipitem frameBlend="FALSE" id="clipitem-telop-525">
						<file id="file-2"/>
						<name>！</name>
						<rate>
							<timebase>59</timebase>
							<ntsc>TRUE</ntsc>
						</rate>
						<rate>
							<timebase>59</timebase>
							<ntsc>TRUE</ntsc>
						</rate>
						<duration>66</duration>
						<start>4469</start>
						<end>4535</end>
						<in>0</in>
						<out>66</out>
					</clipitem>
					<clipitem frameBlend="FALSE" id="clipitem-telop-543">
						<file id="file-2"/>
						<name>！</name>
						<rate>
							<timebase>59</timebase>
							<ntsc>TRUE</ntsc>
						</rate>
						<rate>
							<timebase>59</timebase>
							<ntsc>TRUE</ntsc>
						</rate>
						<duration>60</duration>
						<start>4595</start>
						<end>4655</end>
						<in>0</in>
						<out>60</out>
					</clipitem>
					<clipitem frameBlend="FALSE" id="clipitem-telop-573">
						<file id="file-2"/>
						<name>！</name>
						<rate>
							<timebase>59</timebase>
							<ntsc>TRUE</ntsc>
						</rate>
						<rate>
							<timebase>59</timebase>
							<ntsc>TRUE</ntsc>
						</rate>
						<duration>60</duration>
						<start>4823</start>
						<end>4883</end>
						<in>0</in>
						<out>60</out>
					</clipitem>
					<clipitem frameBlend="FALSE" id="clipitem-telop-585">
						<file id="file-2"/>
						<name>！</name>
						<rate>
							<timebase>59</timebase>
							<ntsc>TRUE</ntsc>
						</rate>
						<rate>
							<timebase>59</timebase>
							<ntsc>TRUE</ntsc>
						</rate>
						<duration>60</duration>
						<start>4883</start>
						<end>4943</end>
						<in>0</in>
						<out>60</out>
					</clipitem>
					<clipitem frameBlend="FALSE" id="clipitem-telop-599">
						<file id="file-2"/>
						<name>！</name>
						<rate>
							<timebase>59</timebase>
							<ntsc>TRUE</ntsc>
						</rate>
						<rate>
							<timebase>59</timebase>
							<ntsc>TRUE</ntsc>
						</rate>
						<duration>60</duration>
						<start>4961</start>
						<end>5021</end>
						<in>0</in>
						<out>60</out>
					</clipitem>
					<clipitem frameBlend="FALSE" id="clipitem-telop-624">
						<file id="file-2"/>
						<name>！</name>
						<rate>
							<timebase>59</timebase>
							<ntsc>TRUE</ntsc>
						</rate>
						<rate>
							<timebase>59</timebase>
							<ntsc>TRUE</ntsc>
						</rate>
						<duration>66</duration>
						<start>5099</start>
						<end>5165</end>
						<in>0</in>
						<out>66</out>
					</clipitem>
					<clipitem frameBlend="FALSE" id="clipitem-telop-640">
						<file id="file-2"/>
						<name>！</name>
						<rate>
							<timebase>59</timebase>
							<ntsc>TRUE</ntsc>
						</rate>
						<rate>
							<timebase>59</timebase>
							<ntsc>TRUE</ntsc>
						</rate>
						<duration>60</duration>
						<start>5207</start>
						<end>5267</end>
						<in>0</in>
						<out>60</out>
					</clipitem>
					<clipitem frameBlend="FALSE" id="clipitem-telop-660">
						<file id="file-2"/>
						<name>！</name>
						<rate>
							<timebase>59</timebase>
							<ntsc>TRUE</ntsc>
						</rate>
						<rate>
							<timebase>59</timebase>
							<ntsc>TRUE</ntsc>
						</rate>
						<duration>66</duration>
						<start>5357</start>
						<end>5423</end>
						<in>0</in>
						<out>66</out>
					</clipitem>
					<clipitem frameBlend="FALSE" id="clipitem-telop-725">
						<file id="file-2"/>
						<name>！</name>
						<rate>
							<timebase>59</timebase>
							<ntsc>TRUE</ntsc>
						</rate>
						<rate>
							<timebase>59</timebase>
							<ntsc>TRUE</ntsc>
						</rate>
						<duration>60</duration>
						<start>6005</start>
						<end>6065</end>
						<in>0</in>
						<out>60</out>
					</clipitem>
					<clipitem frameBlend="FALSE" id="clipitem-telop-740">
						<file id="file-2"/>
						<name>！</name>
						<rate>
							<timebase>59</timebase>
							<ntsc>TRUE</ntsc>
						</rate>
						<rate>
							<timebase>59</timebase>
							<ntsc>TRUE</ntsc>
						</rate>
						<duration>66</duration>
						<start>6095</start>
						<end>6161</end>
						<in>0</in>
						<out>66</out>
					</clipitem>
					<clipitem frameBlend="FALSE" id="clipitem-telop-778">
						<file id="file-2"/>
						<name>！</name>
						<rate>
							<timebase>59</timebase>
							<ntsc>TRUE</ntsc>
						</rate>
						<rate>
							<timebase>59</timebase>
							<ntsc>TRUE</ntsc>
						</rate>
						<duration>60</duration>
						<start>6509</start>
						<end>6569</end>
						<in>0</in>
						<out>60</out>
					</clipitem>
					<clipitem frameBlend="FALSE" id="clipitem-telop-803">
						<file id="file-2"/>
						<name>！</name>
						<rate>
							<timebase>59</timebase>
							<ntsc>TRUE</ntsc>
						</rate>
						<rate>
							<timebase>59</timebase>
							<ntsc>TRUE</ntsc>
						</rate>
						<duration>60</duration>
						<start>6677</start>
						<end>6737</end>
						<in>0</in>
						<out>60</out>
					</clipitem>
					<clipitem frameBlend="FALSE" id="clipitem-telop-818">
						<file id="file-2"/>
						<name>w</name>
						<rate>
							<timebase>59</timebase>
							<ntsc>TRUE</ntsc>
						</rate>
						<rate>
							<timebase>59</timebase>
							<ntsc>TRUE</ntsc>
						</rate>
						<duration>30</duration>
						<start>6779</start>
						<end>6809</end>
						<in>0</in>
						<out>30</out>
					</clipitem>
					<clipitem frameBlend="FALSE" id="clipitem-telop-832">
						<file id="file-2"/>
						<name>！</name>
						<rate>
							<timebase>59</timebase>
							<ntsc>TRUE</ntsc>
						</rate>
						<rate>
							<timebase>59</timebase>
							<ntsc>TRUE</ntsc>
						</rate>
						<duration>60</duration>
						<start>6875</start>
						<end>6935</end>
						<in>0</in>
						<out>60</out>
					</clipitem>
					<clipitem frameBlend="FALSE" id="clipitem-telop-864">
						<file id="file-2"/>
						<name>！</name>
						<rate>
							<timebase>59</timebase>
							<ntsc>TRUE</ntsc>
						</rate>
						<rate>
							<timebase>59</timebase>
							<ntsc>TRUE</ntsc>
						</rate>
						<duration>66</duration>
						<start>7067</start>
						<end>7133</end>
						<in>0</in>
						<out>66</out>
					</clipitem>
					<clipitem frameBlend="FALSE" id="clipitem-telop-902">
						<file id="file-2"/>
						<name>！</name>
						<rate>
							<timebase>59</timebase>
							<ntsc>TRUE</ntsc>
						</rate>
						<rate>
							<timebase>59</timebase>
							<ntsc>TRUE</ntsc>
						</rate>
						<duration>60</duration>
						<start>7385</start>
						<end>7445</end>
						<in>0</in>
						<out>60</out>
					</clipitem>
					<clipitem frameBlend="FALSE" id="clipitem-telop-912">
						<file id="file-2"/>
						<name>！</name>
						<rate>
							<timebase>59</timebase>
							<ntsc>TRUE</ntsc>
						</rate>
						<rate>
							<timebase>59</timebase>
							<ntsc>TRUE</ntsc>
						</rate>
						<duration>60</duration>
						<start>7451</start>
						<end>7511</end>
						<in>0</in>
						<out>60</out>
					</clipitem>
					<clipitem frameBlend="FALSE" id="clipitem-telop-927">
						<file id="file-2"/>
						<name>！</name>
						<rate>
							<timebase>59</timebase>
							<ntsc>TRUE</ntsc>
						</rate>
						<rate>
							<timebase>59</timebase>
							<ntsc>TRUE</ntsc>
						</rate>
						<duration>66</duration>
						<start>7535</start>
						<end>7601</end>
						<in>0</in>
						<out>66</out>
					</clipitem>
					<clipitem frameBlend="FALSE" id="clipitem-telop-943">
						<file id="file-2"/>
						<name>！</name>
						<rate>
							<timebase>59</timebase>
							<ntsc>TRUE</ntsc>
						</rate>
						<rate>
							<timebase>59</timebase>
							<ntsc>TRUE</ntsc>
						</rate>
						<duration>66</duration>
						<start>7649</start>
						<end>7715</end>
						<in>0</in>
						<out>66</out>
					</clipitem>
					<clipitem frameBlend="FALSE" id="clipitem-telop-1069">
						<file id="file-2"/>
						<name>！</name>
						<rate>
							<timebase>59</timebase>
							<ntsc>TRUE</ntsc>
						</rate>
						<rate>
							<timebase>59</timebase>
							<ntsc>TRUE</ntsc>
						</rate>
						<duration>60</duration>
						<start>8896</start>
						<end>8956</end>
						<in>0</in>
						<out>60</out>
					</clipitem>
					<clipitem frameBlend="FALSE" id="clipitem-telop-1099">
						<file id="file-2"/>
						<name>！</name>
						<rate>
							<timebase>59</timebase>
							<ntsc>TRUE</ntsc>
						</rate>
						<rate>
							<timebase>59</timebase>
							<ntsc>TRUE</ntsc>
						</rate>
						<duration>60</duration>
						<start>9142</start>
						<end>9202</end>
						<in>0</in>
						<out>60</out>
					</clipitem>
					<clipitem frameBlend="FALSE" id="clipitem-telop-1118">
						<file id="file-2"/>
						<name>！</name>
						<rate>
							<timebase>59</timebase>
							<ntsc>TRUE</ntsc>
						</rate>
						<rate>
							<timebase>59</timebase>
							<ntsc>TRUE</ntsc>
						</rate>
						<duration>66</duration>
						<start>9280</start>
						<end>9346</end>
						<in>0</in>
						<out>66</out>
					</clipitem>
					<clipitem frameBlend="FALSE" id="clipitem-telop-1141">
						<file id="file-2"/>
						<name>！</name>
						<rate>
							<timebase>59</timebase>
							<ntsc>TRUE</ntsc>
						</rate>
						<rate>
							<timebase>59</timebase>
							<ntsc>TRUE</ntsc>
						</rate>
						<duration>60</duration>
						<start>9436</start>
						<end>9496</end>
						<in>0</in>
						<out>60</out>
					</clipitem>
					<clipitem frameBlend="FALSE" id="clipitem-telop-1219">
						<file id="file-2"/>
						<name>！</name>
						<rate>
							<timebase>59</timebase>
							<ntsc>TRUE</ntsc>
						</rate>
						<rate>
							<timebase>59</timebase>
							<ntsc>TRUE</ntsc>
						</rate>
						<duration>60</duration>
						<start>10186</start>
						<end>10246</end>
						<in>0</in>
						<out>60</out>
					</clipitem>
					<clipitem frameBlend="FALSE" id="clipitem-telop-1256">
						<file id="file-2"/>
						<name>！</name>
						<rate>
							<timebase>59</timebase>
							<ntsc>TRUE</ntsc>
						</rate>
						<rate>
							<timebase>59</timebase>
							<ntsc>TRUE</ntsc>
						</rate>
						<duration>66</duration>
						<start>10612</start>
						<end>10678</end>
						<in>0</in>
						<out>66</out>
					</clipitem>
					<clipitem frameBlend="FALSE" id="clipitem-telop-1273">
						<file id="file-2"/>
						<name>w</name>
						<rate>
							<timebase>59</timebase>
							<ntsc>TRUE</ntsc>
						</rate>
						<rate>
							<timebase>59</timebase>
							<ntsc>TRUE</ntsc>
						</rate>
						<duration>30</duration>
						<start>10720</start>
						<end>10750</end>
						<in>0</in>
						<out>30</out>
					</clipitem>
					<clipitem frameBlend="FALSE" id="clipitem-telop-1316">
						<file id="file-2"/>
						<name>！</name>
						<rate>
							<timebase>59</timebase>
							<ntsc>TRUE</ntsc>
						</rate>
						<rate>
							<timebase>59</timebase>
							<ntsc>TRUE</ntsc>
						</rate>
						<duration>66</duration>
						<start>11086</start>
						<end>11152</end>
						<in>0</in>
						<out>66</out>
					</clipitem>
					<clipitem frameBlend="FALSE" id="clipitem-telop-1345">
						<file id="file-2"/>
						<name>！</name>
						<rate>
							<timebase>59</timebase>
							<ntsc>TRUE</ntsc>
						</rate>
						<rate>
							<timebase>59</timebase>
							<ntsc>TRUE</ntsc>
						</rate>
						<duration>60</duration>
						<start>11368</start>
						<end>11428</end>
						<in>0</in>
						<out>60</out>
					</clipitem>
					<clipitem frameBlend="FALSE" id="clipitem-telop-1366">
						<file id="file-2"/>
						<name>！</name>
						<rate>
							<timebase>59</timebase>
							<ntsc>TRUE</ntsc>
						</rate>
						<rate>
							<timebase>59</timebase>
							<ntsc>TRUE</ntsc>
						</rate>
						<duration>60</duration>
						<start>11542</start>
						<end>11602</end>
						<in>0</in>
						<out>60</out>
					</clipitem>
					<clipitem frameBlend="FALSE" id="clipitem-telop-1382">
						<file id="file-2"/>
						<name>！</name>
						<rate>
							<timebase>59</timebase>
							<ntsc>TRUE</ntsc>
						</rate>
						<rate>
							<timebase>59</timebase>
							<ntsc>TRUE</ntsc>
						</rate>
						<duration>66</duration>
						<start>11686</start>
						<end>11752</end>
						<in>0</in>
						<out>66</out>
					</clipitem>
					<clipitem frameBlend="FALSE" id="clipitem-telop-1406">
						<file id="file-2"/>
						<name>！</name>
						<rate>
							<timebase>59</timebase>
							<ntsc>TRUE</ntsc>
						</rate>
						<rate>
							<timebase>59</timebase>
							<ntsc>TRUE</ntsc>
						</rate>
						<duration>66</duration>
						<start>11866</start>
						<end>11932</end>
						<in>0</in>
						<out>66</out>
					</clipitem>
					<clipitem frameBlend="FALSE" id="clipitem-telop-1454">
						<file id="file-2"/>
						<name>！</name>
						<rate>
							<timebase>59</timebase>
							<ntsc>TRUE</ntsc>
						</rate>
						<rate>
							<timebase>59</timebase>
							<ntsc>TRUE</ntsc>
						</rate>
						<duration>60</duration>
						<start>12250</start>
						<end>12310</end>
						<in>0</in>
						<out>60</out>
					</clipitem>
					<clipitem frameBlend="FALSE" id="clipitem-telop-1497">
						<file id="file-2"/>
						<name>w</name>
						<rate>
							<timebase>59</timebase>
							<ntsc>TRUE</ntsc>
						</rate>
						<rate>
							<timebase>59</timebase>
							<ntsc>TRUE</ntsc>
						</rate>
						<duration>30</duration>
						<start>12616</start>
						<end>12646</end>
						<in>0</in>
						<out>30</out>
					</clipitem>
					<clipitem frameBlend="FALSE" id="clipitem-telop-1502">
						<file id="file-2"/>
						<name>w</name>
						<rate>
							<timebase>59</timebase>
							<ntsc>TRUE</ntsc>
						</rate>
						<rate>
							<timebase>59</timebase>
							<ntsc>TRUE</ntsc>
						</rate>
						<duration>30</duration>
						<start>12646</start>
						<end>12676</end>
						<in>0</in>
						<out>30</out>
					</clipitem>
					<clipitem frameBlend="FALSE" id="clipitem-telop-1573">
						<file id="file-2"/>
						<name>！</name>
						<rate>
							<timebase>59</timebase>
							<ntsc>TRUE</ntsc>
						</rate>
						<rate>
							<timebase>59</timebase>
							<ntsc>TRUE</ntsc>
						</rate>
						<duration>60</duration>
						<start>13282</start>
						<end>13342</end>
						<in>0</in>
						<out>60</out>
					</clipitem>
					<clipitem frameBlend="FALSE" id="clipitem-telop-1598">
						<file id="file-2"/>
						<name>！</name>
						<rate>
							<timebase>59</timebase>
							<ntsc>TRUE</ntsc>
						</rate>
						<rate>
							<timebase>59</timebase>
							<ntsc>TRUE</ntsc>
						</rate>
						<duration>60</duration>
						<start>13528</start>
						<end>13588</end>
						<in>0</in>
						<out>60</out>
					</clipitem>
					<clipitem frameBlend="FALSE" id="clipitem-telop-1637">
						<file id="file-2"/>
						<name>！</name>
						<rate>
							<timebase>59</timebase>
							<ntsc>TRUE</ntsc>
						</rate>
						<rate>
							<timebase>59</timebase>
							<ntsc>TRUE</ntsc>
						</rate>
						<duration>60</duration>
						<start>13828</start>
						<end>13888</end>
						<in>0</in>
						<out>60</out>
					</clipitem>
					<clipitem frameBlend="FALSE" id="clipitem-telop-1676">
						<file id="file-2"/>
						<name>！</name>
						<rate>
							<timebase>59</timebase>
							<ntsc>TRUE</ntsc>
						</rate>
						<rate>
							<timebase>59</timebase>
							<ntsc>TRUE</ntsc>
						</rate>
						<duration>60</duration>
						<start>14182</start>
						<end>14242</end>
						<in>0</in>
						<out>60</out>
					</clipitem>
					<clipitem frameBlend="FALSE" id="clipitem-telop-1731">
						<file id="file-2"/>
						<name>！</name>
						<rate>
							<timebase>59</timebase>
							<ntsc>TRUE</ntsc>
						</rate>
						<rate>
							<timebase>59</timebase>
							<ntsc>TRUE</ntsc>
						</rate>
						<duration>66</duration>
						<start>14674</start>
						<end>14740</end>
						<in>0</in>
						<out>66</out>
					</clipitem>
					<clipitem frameBlend="FALSE" id="clipitem-telop-1765">
						<file id="file-2"/>
						<name>！</name>
						<rate>
							<timebase>59</timebase>
							<ntsc>TRUE</ntsc>
						</rate>
						<rate>
							<timebase>59</timebase>
							<ntsc>TRUE</ntsc>
						</rate>
						<duration>60</duration>
						<start>15016</start>
						<end>15076</end>
						<in>0</in>
						<out>60</out>
					</clipitem>
					<clipitem frameBlend="FALSE" id="clipitem-telop-1805">
						<file id="file-2"/>
						<name>！</name>
						<rate>
							<timebase>59</timebase>
							<ntsc>TRUE</ntsc>
						</rate>
						<rate>
							<timebase>59</timebase>
							<ntsc>TRUE</ntsc>
						</rate>
						<duration>60</duration>
						<start>15412</start>
						<end>15472</end>
						<in>0</in>
						<out>60</out>
					</clipitem>
					<clipitem frameBlend="FALSE" id="clipitem-telop-1855">
						<file id="file-2"/>
						<name>！</name>
						<rate>
							<timebase>59</timebase>
							<ntsc>TRUE</ntsc>
						</rate>
						<rate>
							<timebase>59</timebase>
							<ntsc>TRUE</ntsc>
						</rate>
						<duration>60</duration>
						<start>15880</start>
						<end>15940</end>
						<in>0</in>
						<out>60</out>
					</clipitem>
					<clipitem frameBlend="FALSE" id="clipitem-telop-1884">
						<file id="file-2"/>
						<name>！</name>
						<rate>
							<timebase>59</timebase>
							<ntsc>TRUE</ntsc>
						</rate>
						<rate>
							<timebase>59</timebase>
							<ntsc>TRUE</ntsc>
						</rate>
						<duration>60</duration>
						<start>16108</start>
						<end>16168</end>
						<in>0</in>
						<out>60</out>
					</clipitem>
					<clipitem frameBlend="FALSE" id="clipitem-telop-1912">
						<file id="file-2"/>
						<name>！</name>
						<rate>
							<timebase>59</timebase>
							<ntsc>TRUE</ntsc>
						</rate>
						<rate>
							<timebase>59</timebase>
							<ntsc>TRUE</ntsc>
						</rate>
						<duration>59</duration>
						<start>16312</start>
						<end>16371</end>
						<in>0</in>
						<out>59</out>
					</clipitem>
					<clipitem frameBlend="FALSE" id="clipitem-telop-1924">
						<file id="file-2"/>
						<name>！</name>
						<rate>
							<timebase>59</timebase>
							<ntsc>TRUE</ntsc>
						</rate>
						<rate>
							<timebase>59</timebase>
							<ntsc>TRUE</ntsc>
						</rate>
						<duration>60</duration>
						<start>16407</start>
						<end>16467</end>
						<in>0</in>
						<out>60</out>
					</clipitem>
					<clipitem frameBlend="FALSE" id="clipitem-telop-1963">
						<file id="file-2"/>
						<name>！</name>
						<rate>
							<timebase>59</timebase>
							<ntsc>TRUE</ntsc>
						</rate>
						<rate>
							<timebase>59</timebase>
							<ntsc>TRUE</ntsc>
						</rate>
						<duration>66</duration>
						<start>16737</start>
						<end>16803</end>
						<in>0</in>
						<out>66</out>
					</clipitem>
					<clipitem frameBlend="FALSE" id="clipitem-telop-2006">
						<file id="file-2"/>
						<name>！</name>
						<rate>
							<timebase>59</timebase>
							<ntsc>TRUE</ntsc>
						</rate>
						<rate>
							<timebase>59</timebase>
							<ntsc>TRUE</ntsc>
						</rate>
						<duration>60</duration>
						<start>17145</start>
						<end>17205</end>
						<in>0</in>
						<out>60</out>
					</clipitem>
					<clipitem frameBlend="FALSE" id="clipitem-telop-2093">
						<file id="file-2"/>
						<name>！</name>
						<rate>
							<timebase>59</timebase>
							<ntsc>TRUE</ntsc>
						</rate>
						<rate>
							<timebase>59</timebase>
							<ntsc>TRUE</ntsc>
						</rate>
						<duration>66</duration>
						<start>17973</start>
						<end>18039</end>
						<in>0</in>
						<out>66</out>
					</clipitem>
					<clipitem frameBlend="FALSE" id="clipitem-telop-2160">
						<file id="file-2"/>
						<name>！</name>
						<rate>
							<timebase>59</timebase>
							<ntsc>TRUE</ntsc>
						</rate>
						<rate>
							<timebase>59</timebase>
							<ntsc>TRUE</ntsc>
						</rate>
						<duration>66</duration>
						<start>18621</start>
						<end>18687</end>
						<in>0</in>
						<out>66</out>
					</clipitem>
					<clipitem frameBlend="FALSE" id="clipitem-telop-2175">
						<file id="file-2"/>
						<name>！</name>
						<rate>
							<timebase>59</timebase>
							<ntsc>TRUE</ntsc>
						</rate>
						<rate>
							<timebase>59</timebase>
							<ntsc>TRUE</ntsc>
						</rate>
						<duration>60</duration>
						<start>18789</start>
						<end>18849</end>
						<in>0</in>
						<out>60</out>
					</clipitem>
					<clipitem frameBlend="FALSE" id="clipitem-telop-2194">
						<file id="file-2"/>
						<name>！</name>
						<rate>
							<timebase>59</timebase>
							<ntsc>TRUE</ntsc>
						</rate>
						<rate>
							<timebase>59</timebase>
							<ntsc>TRUE</ntsc>
						</rate>
						<duration>60</duration>
						<start>19047</start>
						<end>19107</end>
						<in>0</in>
						<out>60</out>
					</clipitem>
					<clipitem frameBlend="FALSE" id="clipitem-telop-2225">
						<file id="file-2"/>
						<name>！</name>
						<rate>
							<timebase>59</timebase>
							<ntsc>TRUE</ntsc>
						</rate>
						<rate>
							<timebase>59</timebase>
							<ntsc>TRUE</ntsc>
						</rate>
						<duration>60</duration>
						<start>19341</start>
						<end>19401</end>
						<in>0</in>
						<out>60</out>
					</clipitem>
					<clipitem frameBlend="FALSE" id="clipitem-telop-2261">
						<file id="file-2"/>
						<name>w</name>
						<rate>
							<timebase>59</timebase>
							<ntsc>TRUE</ntsc>
						</rate>
						<rate>
							<timebase>59</timebase>
							<ntsc>TRUE</ntsc>
						</rate>
						<duration>30</duration>
						<start>19623</start>
						<end>19653</end>
						<in>0</in>
						<out>30</out>
					</clipitem>
					<clipitem frameBlend="FALSE" id="clipitem-telop-2266">
						<file id="file-2"/>
						<name>！</name>
						<rate>
							<timebase>59</timebase>
							<ntsc>TRUE</ntsc>
						</rate>
						<rate>
							<timebase>59</timebase>
							<ntsc>TRUE</ntsc>
						</rate>
						<duration>66</duration>
						<start>19653</start>
						<end>19719</end>
						<in>0</in>
						<out>66</out>
					</clipitem>
					<clipitem frameBlend="FALSE" id="clipitem-telop-2289">
						<file id="file-2"/>
						<name>！</name>
						<rate>
							<timebase>59</timebase>
							<ntsc>TRUE</ntsc>
						</rate>
						<rate>
							<timebase>59</timebase>
							<ntsc>TRUE</ntsc>
						</rate>
						<duration>66</duration>
						<start>19839</start>
						<end>19905</end>
						<in>0</in>
						<out>66</out>
					</clipitem>
					<clipitem frameBlend="FALSE" id="clipitem-telop-2337">
						<file id="file-2"/>
						<name>！</name>
						<rate>
							<timebase>59</timebase>
							<ntsc>TRUE</ntsc>
						</rate>
						<rate>
							<timebase>59</timebase>
							<ntsc>TRUE</ntsc>
						</rate>
						<duration>60</duration>
						<start>20247</start>
						<end>20307</end>
						<in>0</in>
						<out>60</out>
					</clipitem>
					<clipitem frameBlend="FALSE" id="clipitem-telop-2358">
						<file id="file-2"/>
						<name>！</name>
						<rate>
							<timebase>59</timebase>
							<ntsc>TRUE</ntsc>
						</rate>
						<rate>
							<timebase>59</timebase>
							<ntsc>TRUE</ntsc>
						</rate>
						<duration>60</duration>
						<start>20391</start>
						<end>20451</end>
						<in>0</in>
						<out>60</out>
					</clipitem>
					<clipitem frameBlend="FALSE" id="clipitem-telop-2437">
						<file id="file-2"/>
						<name>！</name>
						<rate>
							<timebase>59</timebase>
							<ntsc>TRUE</ntsc>
						</rate>
						<rate>
							<timebase>59</timebase>
							<ntsc>TRUE</ntsc>
						</rate>
						<duration>60</duration>
						<start>21063</start>
						<end>21123</end>
						<in>0</in>
						<out>60</out>
					</clipitem>
					<clipitem frameBlend="FALSE" id="clipitem-telop-2454">
						<file id="file-2"/>
						<name>！</name>
						<rate>
							<timebase>59</timebase>
							<ntsc>TRUE</ntsc>
						</rate>
						<rate>
							<timebase>59</timebase>
							<ntsc>TRUE</ntsc>
						</rate>
						<duration>60</duration>
						<start>21129</start>
						<end>21189</end>
						<in>0</in>
						<out>60</out>
					</clipitem>
					<clipitem frameBlend="FALSE" id="clipitem-telop-2468">
						<file id="file-2"/>
						<name>！</name>
						<rate>
							<timebase>59</timebase>
							<ntsc>TRUE</ntsc>
						</rate>
						<rate>
							<timebase>59</timebase>
							<ntsc>TRUE</ntsc>
						</rate>
						<duration>60</duration>
						<start>21219</start>
						<end>21279</end>
						<in>0</in>
						<out>60</out>
					</clipitem>
					<clipitem frameBlend="FALSE" id="clipitem-telop-2486">
						<file id="file-2"/>
						<name>！</name>
						<rate>
							<timebase>59</timebase>
							<ntsc>TRUE</ntsc>
						</rate>
						<rate>
							<timebase>59</timebase>
							<ntsc>TRUE</ntsc>
						</rate>
						<duration>60</duration>
						<start>21327</start>
						<end>21387</end>
						<in>0</in>
						<out>60</out>
					</clipitem>
					<clipitem frameBlend="FALSE" id="clipitem-telop-2506">
						<file id="file-2"/>
						<name>！</name>
						<rate>
							<timebase>59</timebase>
							<ntsc>TRUE</ntsc>
						</rate>
						<rate>
							<timebase>59</timebase>
							<ntsc>TRUE</ntsc>
						</rate>
						<duration>66</duration>
						<start>21447</start>
						<end>21513</end>
						<in>0</in>
						<out>66</out>
					</clipitem>
					<clipitem frameBlend="FALSE" id="clipitem-telop-2528">
						<file id="file-2"/>
						<name>！</name>
						<rate>
							<timebase>59</timebase>
							<ntsc>TRUE</ntsc>
						</rate>
						<rate>
							<timebase>59</timebase>
							<ntsc>TRUE</ntsc>
						</rate>
						<duration>66</duration>
						<start>21591</start>
						<end>21657</end>
						<in>0</in>
						<out>66</out>
					</clipitem>
					<clipitem frameBlend="FALSE" id="clipitem-telop-2540">
						<file id="file-2"/>
						<name>！</name>
						<rate>
							<timebase>59</timebase>
							<ntsc>TRUE</ntsc>
						</rate>
						<rate>
							<timebase>59</timebase>
							<ntsc>TRUE</ntsc>
						</rate>
						<duration>60</duration>
						<start>21687</start>
						<end>21747</end>
						<in>0</in>
						<out>60</out>
					</clipitem>
					<clipitem frameBlend="FALSE" id="clipitem-telop-2552">
						<file id="file-2"/>
						<name>！</name>
						<rate>
							<timebase>59</timebase>
							<ntsc>TRUE</ntsc>
						</rate>
						<rate>
							<timebase>59</timebase>
							<ntsc>TRUE</ntsc>
						</rate>
						<duration>66</duration>
						<start>21747</start>
						<end>21813</end>
						<in>0</in>
						<out>66</out>
					</clipitem>
					<clipitem frameBlend="FALSE" id="clipitem-telop-2566">
						<file id="file-2"/>
						<name>！</name>
						<rate>
							<timebase>59</timebase>
							<ntsc>TRUE</ntsc>
						</rate>
						<rate>
							<timebase>59</timebase>
							<ntsc>TRUE</ntsc>
						</rate>
						<duration>60</duration>
						<start>21831</start>
						<end>21891</end>
						<in>0</in>
						<out>60</out>
					</clipitem>
					<clipitem frameBlend="FALSE" id="clipitem-telop-2602">
						<file id="file-2"/>
						<name>！</name>
						<rate>
							<timebase>59</timebase>
							<ntsc>TRUE</ntsc>
						</rate>
						<rate>
							<timebase>59</timebase>
							<ntsc>TRUE</ntsc>
						</rate>
						<duration>60</duration>
						<start>22077</start>
						<end>22137</end>
						<in>0</in>
						<out>60</out>
					</clipitem>
					<clipitem frameBlend="FALSE" id="clipitem-telop-2621">
						<file id="file-2"/>
						<name>！</name>
						<rate>
							<timebase>59</timebase>
							<ntsc>TRUE</ntsc>
						</rate>
						<rate>
							<timebase>59</timebase>
							<ntsc>TRUE</ntsc>
						</rate>
						<duration>66</duration>
						<start>22179</start>
						<end>22245</end>
						<in>0</in>
						<out>66</out>
					</clipitem>
					<clipitem frameBlend="FALSE" id="clipitem-telop-2655">
						<file id="file-2"/>
						<name>！</name>
						<rate>
							<timebase>59</timebase>
							<ntsc>TRUE</ntsc>
						</rate>
						<rate>
							<timebase>59</timebase>
							<ntsc>TRUE</ntsc>
						</rate>
						<duration>66</duration>
						<start>22443</start>
						<end>22509</end>
						<in>0</in>
						<out>66</out>
					</clipitem>
					<clipitem frameBlend="FALSE" id="clipitem-telop-2697">
						<file id="file-2"/>
						<name>！</name>
						<rate>
							<timebase>59</timebase>
							<ntsc>TRUE</ntsc>
						</rate>
						<rate>
							<timebase>59</timebase>
							<ntsc>TRUE</ntsc>
						</rate>
						<duration>60</duration>
						<start>22767</start>
						<end>22827</end>
						<in>0</in>
						<out>60</out>
					</clipitem>
					<clipitem frameBlend="FALSE" id="clipitem-telop-2721">
						<file id="file-2"/>
						<name>！</name>
						<rate>
							<timebase>59</timebase>
							<ntsc>TRUE</ntsc>
						</rate>
						<rate>
							<timebase>59</timebase>
							<ntsc>TRUE</ntsc>
						</rate>
						<duration>60</duration>
						<start>22959</start>
						<end>23019</end>
						<in>0</in>
						<out>60</out>
					</clipitem>
					<clipitem frameBlend="FALSE" id="clipitem-telop-2756">
						<file id="file-2"/>
						<name>！</name>
						<rate>
							<timebase>59</timebase>
							<ntsc>TRUE</ntsc>
						</rate>
						<rate>
							<timebase>59</timebase>
							<ntsc>TRUE</ntsc>
						</rate>
						<duration>60</duration>
						<start>23229</start>
						<end>23289</end>
						<in>0</in>
						<out>60</out>
					</clipitem>
					<clipitem frameBlend="FALSE" id="clipitem-telop-2790">
						<file id="file-2"/>
						<name>！</name>
						<rate>
							<timebase>59</timebase>
							<ntsc>TRUE</ntsc>
						</rate>
						<rate>
							<timebase>59</timebase>
							<ntsc>TRUE</ntsc>
						</rate>
						<duration>66</duration>
						<start>23451</start>
						<end>23517</end>
						<in>0</in>
						<out>66</out>
					</clipitem>
					<clipitem frameBlend="FALSE" id="clipitem-telop-2818">
						<file id="file-2"/>
						<name>！</name>
						<rate>
							<timebase>59</timebase>
							<ntsc>TRUE</ntsc>
						</rate>
						<rate>
							<timebase>59</timebase>
							<ntsc>TRUE</ntsc>
						</rate>
						<duration>60</duration>
						<start>23679</start>
						<end>23739</end>
						<in>0</in>
						<out>60</out>
					</clipitem>
					<clipitem frameBlend="FALSE" id="clipitem-telop-2830">
						<file id="file-2"/>
						<name>！</name>
						<rate>
							<timebase>59</timebase>
							<ntsc>TRUE</ntsc>
						</rate>
						<rate>
							<timebase>59</timebase>
							<ntsc>TRUE</ntsc>
						</rate>
						<duration>60</duration>
						<start>23763</start>
						<end>23823</end>
						<in>0</in>
						<out>60</out>
					</clipitem>
					<clipitem frameBlend="FALSE" id="clipitem-telop-2846">
						<file id="file-2"/>
						<name>！</name>
						<rate>
							<timebase>59</timebase>
							<ntsc>TRUE</ntsc>
						</rate>
						<rate>
							<timebase>59</timebase>
							<ntsc>TRUE</ntsc>
						</rate>
						<duration>60</duration>
						<start>23847</start>
						<end>23907</end>
						<in>0</in>
						<out>60</out>
					</clipitem>
					<clipitem frameBlend="FALSE" id="clipitem-telop-2880">
						<file id="file-2"/>
						<name>！</name>
						<rate>
							<timebase>59</timebase>
							<ntsc>TRUE</ntsc>
						</rate>
						<rate>
							<timebase>59</timebase>
							<ntsc>TRUE</ntsc>
						</rate>
						<duration>66</duration>
						<start>24081</start>
						<end>24147</end>
						<in>0</in>
						<out>66</out>
					</clipitem>
					<clipitem frameBlend="FALSE" id="clipitem-telop-2894">
						<file id="file-2"/>
						<name>！</name>
						<rate>
							<timebase>59</timebase>
							<ntsc>TRUE</ntsc>
						</rate>
						<rate>
							<timebase>59</timebase>
							<ntsc>TRUE</ntsc>
						</rate>
						<duration>60</duration>
						<start>24159</start>
						<end>24219</end>
						<in>0</in>
						<out>60</out>
					</clipitem>
					<clipitem frameBlend="FALSE" id="clipitem-telop-2907">
						<file id="file-2"/>
						<name>！</name>
						<rate>
							<timebase>59</timebase>
							<ntsc>TRUE</ntsc>
						</rate>
						<rate>
							<timebase>59</timebase>
							<ntsc>TRUE</ntsc>
						</rate>
						<duration>66</duration>
						<start>24219</start>
						<end>24285</end>
						<in>0</in>
						<out>66</out>
					</clipitem>
					<clipitem frameBlend="FALSE" id="clipitem-telop-2926">
						<file id="file-2"/>
						<name>！</name>
						<rate>
							<timebase>59</timebase>
							<ntsc>TRUE</ntsc>
						</rate>
						<rate>
							<timebase>59</timebase>
							<ntsc>TRUE</ntsc>
						</rate>
						<duration>60</duration>
						<start>24357</start>
						<end>24417</end>
						<in>0</in>
						<out>60</out>
					</clipitem>
				</track>
				<track>
					<clipitem frameBlend="FALSE" id="clipitem-telop-15">
						<file id="file-2"/>
						<name>！</name>
						<rate>
							<timebase>59</timebase>
							<ntsc>TRUE</ntsc>
						</rate>
						<rate>
							<timebase>59</timebase>
							<ntsc>TRUE</ntsc>
						</rate>
						<duration>60</duration>
						<start>101</start>
						<end>161</end>
						<in>0</in>
						<out>60</out>
					</clipitem>
					<clipitem frameBlend="FALSE" id="clipitem-telop-63">
						<file id="file-2"/>
						<name>！</name>
						<rate>
							<timebase>59</timebase>
							<ntsc>TRUE</ntsc>
						</rate>
						<rate>
							<timebase>59</timebase>
							<ntsc>TRUE</ntsc>
						</rate>
						<duration>60</duration>
						<start>545</start>
						<end>605</end>
						<in>0</in>
						<out>60</out>
					</clipitem>
					<clipitem frameBlend="FALSE" id="clipitem-telop-114">
						<file id="file-2"/>
						<name>！</name>
						<rate>
							<timebase>59</timebase>
							<ntsc>TRUE</ntsc>
						</rate>
						<rate>
							<timebase>59</timebase>
							<ntsc>TRUE</ntsc>
						</rate>
						<duration>60</duration>
						<start>995</start>
						<end>1055</end>
						<in>0</in>
						<out>60</out>
					</clipitem>
					<clipitem frameBlend="FALSE" id="clipitem-telop-166">
						<file id="file-2"/>
						<name>！</name>
						<rate>
							<timebase>59</timebase>
							<ntsc>TRUE</ntsc>
						</rate>
						<rate>
							<timebase>59</timebase>
							<ntsc>TRUE</ntsc>
						</rate>
						<duration>60</duration>
						<start>1493</start>
						<end>1553</end>
						<in>0</in>
						<out>60</out>
					</clipitem>
					<clipitem frameBlend="FALSE" id="clipitem-telop-205">
						<file id="file-2"/>
						<name>！</name>
						<rate>
							<timebase>59</timebase>
							<ntsc>TRUE</ntsc>
						</rate>
						<rate>
							<timebase>59</timebase>
							<ntsc>TRUE</ntsc>
						</rate>
						<duration>60</duration>
						<start>1799</start>
						<end>1859</end>
						<in>0</in>
						<out>60</out>
					</clipitem>
					<clipitem frameBlend="FALSE" id="clipitem-telop-234">
						<file id="file-2"/>
						<name>！</name>
						<rate>
							<timebase>59</timebase>
							<ntsc>TRUE</ntsc>
						</rate>
						<rate>
							<timebase>59</timebase>
							<ntsc>TRUE</ntsc>
						</rate>
						<duration>66</duration>
						<start>2021</start>
						<end>2087</end>
						<in>0</in>
						<out>66</out>
					</clipitem>
					<clipitem frameBlend="FALSE" id="clipitem-telop-343">
						<file id="file-2"/>
						<name>！</name>
						<rate>
							<timebase>59</timebase>
							<ntsc>TRUE</ntsc>
						</rate>
						<rate>
							<timebase>59</timebase>
							<ntsc>TRUE</ntsc>
						</rate>
						<duration>66</duration>
						<start>2993</start>
						<end>3059</end>
						<in>0</in>
						<out>66</out>
					</clipitem>
					<clipitem frameBlend="FALSE" id="clipitem-telop-384">
						<file id="file-2"/>
						<name>！</name>
						<rate>
							<timebase>59</timebase>
							<ntsc>TRUE</ntsc>
						</rate>
						<rate>
							<timebase>59</timebase>
							<ntsc>TRUE</ntsc>
						</rate>
						<duration>60</duration>
						<start>3317</start>
						<end>3377</end>
						<in>0</in>
						<out>60</out>
					</clipitem>
					<clipitem frameBlend="FALSE" id="clipitem-telop-397">
						<file id="file-2"/>
						<name>！</name>
						<rate>
							<timebase>59</timebase>
							<ntsc>TRUE</ntsc>
						</rate>
						<rate>
							<timebase>59</timebase>
							<ntsc>TRUE</ntsc>
						</rate>
						<duration>60</duration>
						<start>3377</start>
						<end>3437</end>
						<in>0</in>
						<out>60</out>
					</clipitem>
					<clipitem frameBlend="FALSE" id="clipitem-telop-574">
						<file id="file-2"/>
						<name>！</name>
						<rate>
							<timebase>59</timebase>
							<ntsc>TRUE</ntsc>
						</rate>
						<rate>
							<timebase>59</timebase>
							<ntsc>TRUE</ntsc>
						</rate>
						<duration>66</duration>
						<start>4823</start>
						<end>4889</end>
						<in>0</in>
						<out>66</out>
					</clipitem>
					<clipitem frameBlend="FALSE" id="clipitem-telop-587">
						<file id="file-2"/>
						<name>！</name>
						<rate>
							<timebase>59</timebase>
							<ntsc>TRUE</ntsc>
						</rate>
						<rate>
							<timebase>59</timebase>
							<ntsc>TRUE</ntsc>
						</rate>
						<duration>60</duration>
						<start>4889</start>
						<end>4949</end>
						<in>0</in>
						<out>60</out>
					</clipitem>
					<clipitem frameBlend="FALSE" id="clipitem-telop-600">
						<file id="file-2"/>
						<name>！</name>
						<rate>
							<timebase>59</timebase>
							<ntsc>TRUE</ntsc>
						</rate>
						<rate>
							<timebase>59</timebase>
							<ntsc>TRUE</ntsc>
						</rate>
						<duration>60</duration>
						<start>4961</start>
						<end>5021</end>
						<in>0</in>
						<out>60</out>
					</clipitem>
					<clipitem frameBlend="FALSE" id="clipitem-telop-627">
						<file id="file-2"/>
						<name>！</name>
						<rate>
							<timebase>59</timebase>
							<ntsc>TRUE</ntsc>
						</rate>
						<rate>
							<timebase>59</timebase>
							<ntsc>TRUE</ntsc>
						</rate>
						<duration>60</duration>
						<start>5117</start>
						<end>5177</end>
						<in>0</in>
						<out>60</out>
					</clipitem>
					<clipitem frameBlend="FALSE" id="clipitem-telop-643">
						<file id="file-2"/>
						<name>！</name>
						<rate>
							<timebase>59</timebase>
							<ntsc>TRUE</ntsc>
						</rate>
						<rate>
							<timebase>59</timebase>
							<ntsc>TRUE</ntsc>
						</rate>
						<duration>66</duration>
						<start>5219</start>
						<end>5285</end>
						<in>0</in>
						<out>66</out>
					</clipitem>
					<clipitem frameBlend="FALSE" id="clipitem-telop-728">
						<file id="file-2"/>
						<name>！</name>
						<rate>
							<timebase>59</timebase>
							<ntsc>TRUE</ntsc>
						</rate>
						<rate>
							<timebase>59</timebase>
							<ntsc>TRUE</ntsc>
						</rate>
						<duration>60</duration>
						<start>6017</start>
						<end>6077</end>
						<in>0</in>
						<out>60</out>
					</clipitem>
					<clipitem frameBlend="FALSE" id="clipitem-telop-785">
						<file id="file-2"/>
						<name>！</name>
						<rate>
							<timebase>59</timebase>
							<ntsc>TRUE</ntsc>
						</rate>
						<rate>
							<timebase>59</timebase>
							<ntsc>TRUE</ntsc>
						</rate>
						<duration>60</duration>
						<start>6545</start>
						<end>6605</end>
						<in>0</in>
						<out>60</out>
					</clipitem>
					<clipitem frameBlend="FALSE" id="clipitem-telop-822">
						<file id="file-2"/>
						<name>！</name>
						<rate>
							<timebase>59</timebase>
							<ntsc>TRUE</ntsc>
						</rate>
						<rate>
							<timebase>59</timebase>
							<ntsc>TRUE</ntsc>
						</rate>
						<duration>66</duration>
						<start>6803</start>
						<end>6869</end>
						<in>0</in>
						<out>66</out>
					</clipitem>
					<clipitem frameBlend="FALSE" id="clipitem-telop-835">
						<file id="file-2"/>
						<name>！</name>
						<rate>
							<timebase>59</timebase>
							<ntsc>TRUE</ntsc>
						</rate>
						<rate>
							<timebase>59</timebase>
							<ntsc>TRUE</ntsc>
						</rate>
						<duration>60</duration>
						<start>6887</start>
						<end>6947</end>
						<in>0</in>
						<out>60</out>
					</clipitem>
					<clipitem frameBlend="FALSE" id="clipitem-telop-914">
						<file id="file-2"/>
						<name>！</name>
						<rate>
							<timebase>59</timebase>
							<ntsc>TRUE</ntsc>
						</rate>
						<rate>
							<timebase>59</timebase>
							<ntsc>TRUE</ntsc>
						</rate>
						<duration>60</duration>
						<start>7457</start>
						<end>7517</end>
						<in>0</in>
						<out>60</out>
					</clipitem>
					<clipitem frameBlend="FALSE" id="clipitem-telop-929">
						<file id="file-2"/>
						<name>！</name>
						<rate>
							<timebase>59</timebase>
							<ntsc>TRUE</ntsc>
						</rate>
						<rate>
							<timebase>59</timebase>
							<ntsc>TRUE</ntsc>
						</rate>
						<duration>60</duration>
						<start>7547</start>
						<end>7607</end>
						<in>0</in>
						<out>60</out>
					</clipitem>
					<clipitem frameBlend="FALSE" id="clipitem-telop-949">
						<file id="file-2"/>
						<name>！</name>
						<rate>
							<timebase>59</timebase>
							<ntsc>TRUE</ntsc>
						</rate>
						<rate>
							<timebase>59</timebase>
							<ntsc>TRUE</ntsc>
						</rate>
						<duration>66</duration>
						<start>7691</start>
						<end>7757</end>
						<in>0</in>
						<out>66</out>
					</clipitem>
					<clipitem frameBlend="FALSE" id="clipitem-telop-1070">
						<file id="file-2"/>
						<name>！</name>
						<rate>
							<timebase>59</timebase>
							<ntsc>TRUE</ntsc>
						</rate>
						<rate>
							<timebase>59</timebase>
							<ntsc>TRUE</ntsc>
						</rate>
						<duration>66</duration>
						<start>8896</start>
						<end>8962</end>
						<in>0</in>
						<out>66</out>
					</clipitem>
					<clipitem frameBlend="FALSE" id="clipitem-telop-1142">
						<file id="file-2"/>
						<name>！</name>
						<rate>
							<timebase>59</timebase>
							<ntsc>TRUE</ntsc>
						</rate>
						<rate>
							<timebase>59</timebase>
							<ntsc>TRUE</ntsc>
						</rate>
						<duration>60</duration>
						<start>9442</start>
						<end>9502</end>
						<in>0</in>
						<out>60</out>
					</clipitem>
					<clipitem frameBlend="FALSE" id="clipitem-telop-1260">
						<file id="file-2"/>
						<name>！</name>
						<rate>
							<timebase>59</timebase>
							<ntsc>TRUE</ntsc>
						</rate>
						<rate>
							<timebase>59</timebase>
							<ntsc>TRUE</ntsc>
						</rate>
						<duration>66</duration>
						<start>10630</start>
						<end>10696</end>
						<in>0</in>
						<out>66</out>
					</clipitem>
					<clipitem frameBlend="FALSE" id="clipitem-telop-1455">
						<file id="file-2"/>
						<name>！</name>
						<rate>
							<timebase>59</timebase>
							<ntsc>TRUE</ntsc>
						</rate>
						<rate>
							<timebase>59</timebase>
							<ntsc>TRUE</ntsc>
						</rate>
						<duration>66</duration>
						<start>12250</start>
						<end>12316</end>
						<in>0</in>
						<out>66</out>
					</clipitem>
					<clipitem frameBlend="FALSE" id="clipitem-telop-1498">
						<file id="file-2"/>
						<name>！</name>
						<rate>
							<timebase>59</timebase>
							<ntsc>TRUE</ntsc>
						</rate>
						<rate>
							<timebase>59</timebase>
							<ntsc>TRUE</ntsc>
						</rate>
						<duration>66</duration>
						<start>12622</start>
						<end>12688</end>
						<in>0</in>
						<out>66</out>
					</clipitem>
					<clipitem frameBlend="FALSE" id="clipitem-telop-1575">
						<file id="file-2"/>
						<name>！</name>
						<rate>
							<timebase>59</timebase>
							<ntsc>TRUE</ntsc>
						</rate>
						<rate>
							<timebase>59</timebase>
							<ntsc>TRUE</ntsc>
						</rate>
						<duration>66</duration>
						<start>13288</start>
						<end>13354</end>
						<in>0</in>
						<out>66</out>
					</clipitem>
					<clipitem frameBlend="FALSE" id="clipitem-telop-1600">
						<file id="file-2"/>
						<name>！</name>
						<rate>
							<timebase>59</timebase>
							<ntsc>TRUE</ntsc>
						</rate>
						<rate>
							<timebase>59</timebase>
							<ntsc>TRUE</ntsc>
						</rate>
						<duration>60</duration>
						<start>13540</start>
						<end>13600</end>
						<in>0</in>
						<out>60</out>
					</clipitem>
					<clipitem frameBlend="FALSE" id="clipitem-telop-1677">
						<file id="file-2"/>
						<name>！</name>
						<rate>
							<timebase>59</timebase>
							<ntsc>TRUE</ntsc>
						</rate>
						<rate>
							<timebase>59</timebase>
							<ntsc>TRUE</ntsc>
						</rate>
						<duration>66</duration>
						<start>14188</start>
						<end>14254</end>
						<in>0</in>
						<out>66</out>
					</clipitem>
					<clipitem frameBlend="FALSE" id="clipitem-telop-1766">
						<file id="file-2"/>
						<name>！</name>
						<rate>
							<timebase>59</timebase>
							<ntsc>TRUE</ntsc>
						</rate>
						<rate>
							<timebase>59</timebase>
							<ntsc>TRUE</ntsc>
						</rate>
						<duration>60</duration>
						<start>15022</start>
						<end>15082</end>
						<in>0</in>
						<out>60</out>
					</clipitem>
					<clipitem frameBlend="FALSE" id="clipitem-telop-1806">
						<file id="file-2"/>
						<name>！</name>
						<rate>
							<timebase>59</timebase>
							<ntsc>TRUE</ntsc>
						</rate>
						<rate>
							<timebase>59</timebase>
							<ntsc>TRUE</ntsc>
						</rate>
						<duration>60</duration>
						<start>15412</start>
						<end>15472</end>
						<in>0</in>
						<out>60</out>
					</clipitem>
					<clipitem frameBlend="FALSE" id="clipitem-telop-1860">
						<file id="file-2"/>
						<name>！</name>
						<rate>
							<timebase>59</timebase>
							<ntsc>TRUE</ntsc>
						</rate>
						<rate>
							<timebase>59</timebase>
							<ntsc>TRUE</ntsc>
						</rate>
						<duration>66</duration>
						<start>15904</start>
						<end>15970</end>
						<in>0</in>
						<out>66</out>
					</clipitem>
					<clipitem frameBlend="FALSE" id="clipitem-telop-1885">
						<file id="file-2"/>
						<name>！</name>
						<rate>
							<timebase>59</timebase>
							<ntsc>TRUE</ntsc>
						</rate>
						<rate>
							<timebase>59</timebase>
							<ntsc>TRUE</ntsc>
						</rate>
						<duration>66</duration>
						<start>16108</start>
						<end>16174</end>
						<in>0</in>
						<out>66</out>
					</clipitem>
					<clipitem frameBlend="FALSE" id="clipitem-telop-1913">
						<file id="file-2"/>
						<name>！</name>
						<rate>
							<timebase>59</timebase>
							<ntsc>TRUE</ntsc>
						</rate>
						<rate>
							<timebase>59</timebase>
							<ntsc>TRUE</ntsc>
						</rate>
						<duration>59</duration>
						<start>16312</start>
						<end>16371</end>
						<in>0</in>
						<out>59</out>
					</clipitem>
					<clipitem frameBlend="FALSE" id="clipitem-telop-1925">
						<file id="file-2"/>
						<name>！</name>
						<rate>
							<timebase>59</timebase>
							<ntsc>TRUE</ntsc>
						</rate>
						<rate>
							<timebase>59</timebase>
							<ntsc>TRUE</ntsc>
						</rate>
						<duration>60</duration>
						<start>16413</start>
						<end>16473</end>
						<in>0</in>
						<out>60</out>
					</clipitem>
					<clipitem frameBlend="FALSE" id="clipitem-telop-2011">
						<file id="file-2"/>
						<name>！</name>
						<rate>
							<timebase>59</timebase>
							<ntsc>TRUE</ntsc>
						</rate>
						<rate>
							<timebase>59</timebase>
							<ntsc>TRUE</ntsc>
						</rate>
						<duration>60</duration>
						<start>17175</start>
						<end>17235</end>
						<in>0</in>
						<out>60</out>
					</clipitem>
					<clipitem frameBlend="FALSE" id="clipitem-telop-2177">
						<file id="file-2"/>
						<name>！</name>
						<rate>
							<timebase>59</timebase>
							<ntsc>TRUE</ntsc>
						</rate>
						<rate>
							<timebase>59</timebase>
							<ntsc>TRUE</ntsc>
						</rate>
						<duration>60</duration>
						<start>18801</start>
						<end>18861</end>
						<in>0</in>
						<out>60</out>
					</clipitem>
					<clipitem frameBlend="FALSE" id="clipitem-telop-2195">
						<file id="file-2"/>
						<name>！</name>
						<rate>
							<timebase>59</timebase>
							<ntsc>TRUE</ntsc>
						</rate>
						<rate>
							<timebase>59</timebase>
							<ntsc>TRUE</ntsc>
						</rate>
						<duration>66</duration>
						<start>19053</start>
						<end>19119</end>
						<in>0</in>
						<out>66</out>
					</clipitem>
					<clipitem frameBlend="FALSE" id="clipitem-telop-2226">
						<file id="file-2"/>
						<name>w</name>
						<rate>
							<timebase>59</timebase>
							<ntsc>TRUE</ntsc>
						</rate>
						<rate>
							<timebase>59</timebase>
							<ntsc>TRUE</ntsc>
						</rate>
						<duration>24</duration>
						<start>19347</start>
						<end>19371</end>
						<in>0</in>
						<out>24</out>
					</clipitem>
					<clipitem frameBlend="FALSE" id="clipitem-telop-2290">
						<file id="file-2"/>
						<name>！</name>
						<rate>
							<timebase>59</timebase>
							<ntsc>TRUE</ntsc>
						</rate>
						<rate>
							<timebase>59</timebase>
							<ntsc>TRUE</ntsc>
						</rate>
						<duration>60</duration>
						<start>19845</start>
						<end>19905</end>
						<in>0</in>
						<out>60</out>
					</clipitem>
					<clipitem frameBlend="FALSE" id="clipitem-telop-2338">
						<file id="file-2"/>
						<name>！</name>
						<rate>
							<timebase>59</timebase>
							<ntsc>TRUE</ntsc>
						</rate>
						<rate>
							<timebase>59</timebase>
							<ntsc>TRUE</ntsc>
						</rate>
						<duration>60</duration>
						<start>20253</start>
						<end>20313</end>
						<in>0</in>
						<out>60</out>
					</clipitem>
					<clipitem frameBlend="FALSE" id="clipitem-telop-2359">
						<file id="file-2"/>
						<name>！</name>
						<rate>
							<timebase>59</timebase>
							<ntsc>TRUE</ntsc>
						</rate>
						<rate>
							<timebase>59</timebase>
							<ntsc>TRUE</ntsc>
						</rate>
						<duration>60</duration>
						<start>20397</start>
						<end>20457</end>
						<in>0</in>
						<out>60</out>
					</clipitem>
					<clipitem frameBlend="FALSE" id="clipitem-telop-2438">
						<file id="file-2"/>
						<name>！</name>
						<rate>
							<timebase>59</timebase>
							<ntsc>TRUE</ntsc>
						</rate>
						<rate>
							<timebase>59</timebase>
							<ntsc>TRUE</ntsc>
						</rate>
						<duration>60</duration>
						<start>21069</start>
						<end>21129</end>
						<in>0</in>
						<out>60</out>
					</clipitem>
					<clipitem frameBlend="FALSE" id="clipitem-telop-2455">
						<file id="file-2"/>
						<name>w</name>
						<rate>
							<timebase>59</timebase>
							<ntsc>TRUE</ntsc>
						</rate>
						<rate>
							<timebase>59</timebase>
							<ntsc>TRUE</ntsc>
						</rate>
						<duration>30</duration>
						<start>21129</start>
						<end>21159</end>
						<in>0</in>
						<out>30</out>
					</clipitem>
					<clipitem frameBlend="FALSE" id="clipitem-telop-2472">
						<file id="file-2"/>
						<name>！</name>
						<rate>
							<timebase>59</timebase>
							<ntsc>TRUE</ntsc>
						</rate>
						<rate>
							<timebase>59</timebase>
							<ntsc>TRUE</ntsc>
						</rate>
						<duration>60</duration>
						<start>21237</start>
						<end>21297</end>
						<in>0</in>
						<out>60</out>
					</clipitem>
					<clipitem frameBlend="FALSE" id="clipitem-telop-2489">
						<file id="file-2"/>
						<name>！</name>
						<rate>
							<timebase>59</timebase>
							<ntsc>TRUE</ntsc>
						</rate>
						<rate>
							<timebase>59</timebase>
							<ntsc>TRUE</ntsc>
						</rate>
						<duration>60</duration>
						<start>21339</start>
						<end>21399</end>
						<in>0</in>
						<out>60</out>
					</clipitem>
					<clipitem frameBlend="FALSE" id="clipitem-telop-2515">
						<file id="file-2"/>
						<name>！</name>
						<rate>
							<timebase>59</timebase>
							<ntsc>TRUE</ntsc>
						</rate>
						<rate>
							<timebase>59</timebase>
							<ntsc>TRUE</ntsc>
						</rate>
						<duration>60</duration>
						<start>21501</start>
						<end>21561</end>
						<in>0</in>
						<out>60</out>
					</clipitem>
					<clipitem frameBlend="FALSE" id="clipitem-telop-2541">
						<file id="file-2"/>
						<name>！</name>
						<rate>
							<timebase>59</timebase>
							<ntsc>TRUE</ntsc>
						</rate>
						<rate>
							<timebase>59</timebase>
							<ntsc>TRUE</ntsc>
						</rate>
						<duration>60</duration>
						<start>21693</start>
						<end>21753</end>
						<in>0</in>
						<out>60</out>
					</clipitem>
					<clipitem frameBlend="FALSE" id="clipitem-telop-2553">
						<file id="file-2"/>
						<name>！</name>
						<rate>
							<timebase>59</timebase>
							<ntsc>TRUE</ntsc>
						</rate>
						<rate>
							<timebase>59</timebase>
							<ntsc>TRUE</ntsc>
						</rate>
						<duration>60</duration>
						<start>21753</start>
						<end>21813</end>
						<in>0</in>
						<out>60</out>
					</clipitem>
					<clipitem frameBlend="FALSE" id="clipitem-telop-2567">
						<file id="file-2"/>
						<name>！</name>
						<rate>
							<timebase>59</timebase>
							<ntsc>TRUE</ntsc>
						</rate>
						<rate>
							<timebase>59</timebase>
							<ntsc>TRUE</ntsc>
						</rate>
						<duration>66</duration>
						<start>21831</start>
						<end>21897</end>
						<in>0</in>
						<out>66</out>
					</clipitem>
					<clipitem frameBlend="FALSE" id="clipitem-telop-2605">
						<file id="file-2"/>
						<name>！</name>
						<rate>
							<timebase>59</timebase>
							<ntsc>TRUE</ntsc>
						</rate>
						<rate>
							<timebase>59</timebase>
							<ntsc>TRUE</ntsc>
						</rate>
						<duration>66</duration>
						<start>22095</start>
						<end>22161</end>
						<in>0</in>
						<out>66</out>
					</clipitem>
					<clipitem frameBlend="FALSE" id="clipitem-telop-2625">
						<file id="file-2"/>
						<name>！</name>
						<rate>
							<timebase>59</timebase>
							<ntsc>TRUE</ntsc>
						</rate>
						<rate>
							<timebase>59</timebase>
							<ntsc>TRUE</ntsc>
						</rate>
						<duration>66</duration>
						<start>22197</start>
						<end>22263</end>
						<in>0</in>
						<out>66</out>
					</clipitem>
					<clipitem frameBlend="FALSE" id="clipitem-telop-2656">
						<file id="file-2"/>
						<name>！</name>
						<rate>
							<timebase>59</timebase>
							<ntsc>TRUE</ntsc>
						</rate>
						<rate>
							<timebase>59</timebase>
							<ntsc>TRUE</ntsc>
						</rate>
						<duration>66</duration>
						<start>22449</start>
						<end>22515</end>
						<in>0</in>
						<out>66</out>
					</clipitem>
					<clipitem frameBlend="FALSE" id="clipitem-telop-2722">
						<file id="file-2"/>
						<name>！</name>
						<rate>
							<timebase>59</timebase>
							<ntsc>TRUE</ntsc>
						</rate>
						<rate>
							<timebase>59</timebase>
							<ntsc>TRUE</ntsc>
						</rate>
						<duration>60</duration>
						<start>22965</start>
						<end>23025</end>
						<in>0</in>
						<out>60</out>
					</clipitem>
					<clipitem frameBlend="FALSE" id="clipitem-telop-2792">
						<file id="file-2"/>
						<name>！</name>
						<rate>
							<timebase>59</timebase>
							<ntsc>TRUE</ntsc>
						</rate>
						<rate>
							<timebase>59</timebase>
							<ntsc>TRUE</ntsc>
						</rate>
						<duration>60</duration>
						<start>23457</start>
						<end>23517</end>
						<in>0</in>
						<out>60</out>
					</clipitem>
					<clipitem frameBlend="FALSE" id="clipitem-telop-2847">
						<file id="file-2"/>
						<name>！</name>
						<rate>
							<timebase>59</timebase>
							<ntsc>TRUE</ntsc>
						</rate>
						<rate>
							<timebase>59</timebase>
							<ntsc>TRUE</ntsc>
						</rate>
						<duration>60</duration>
						<start>23853</start>
						<end>23913</end>
						<in>0</in>
						<out>60</out>
					</clipitem>
					<clipitem frameBlend="FALSE" id="clipitem-telop-2883">
						<file id="file-2"/>
						<name>！</name>
						<rate>
							<timebase>59</timebase>
							<ntsc>TRUE</ntsc>
						</rate>
						<rate>
							<timebase>59</timebase>
							<ntsc>TRUE</ntsc>
						</rate>
						<duration>60</duration>
						<start>24099</start>
						<end>24159</end>
						<in>0</in>
						<out>60</out>
					</clipitem>
					<clipitem frameBlend="FALSE" id="clipitem-telop-2895">
						<file id="file-2"/>
						<name>！</name>
						<rate>
							<timebase>59</timebase>
							<ntsc>TRUE</ntsc>
						</rate>
						<rate>
							<timebase>59</timebase>
							<ntsc>TRUE</ntsc>
						</rate>
						<duration>60</duration>
						<start>24165</start>
						<end>24225</end>
						<in>0</in>
						<out>60</out>
					</clipitem>
					<clipitem frameBlend="FALSE" id="clipitem-telop-2908">
						<file id="file-2"/>
						<name>！</name>
						<rate>
							<timebase>59</timebase>
							<ntsc>TRUE</ntsc>
						</rate>
						<rate>
							<timebase>59</timebase>
							<ntsc>TRUE</ntsc>
						</rate>
						<duration>60</duration>
						<start>24225</start>
						<end>24285</end>
						<in>0</in>
						<out>60</out>
					</clipitem>
				</track>
				<track>
					<clipitem frameBlend="FALSE" id="clipitem-telop-16">
						<file id="file-2"/>
						<name>！</name>
						<rate>
							<timebase>59</timebase>
							<ntsc>TRUE</ntsc>
						</rate>
						<rate>
							<timebase>59</timebase>
							<ntsc>TRUE</ntsc>
						</rate>
						<duration>60</duration>
						<start>101</start>
						<end>161</end>
						<in>0</in>
						<out>60</out>
					</clipitem>
					<clipitem frameBlend="FALSE" id="clipitem-telop-65">
						<file id="file-2"/>
						<name>！</name>
						<rate>
							<timebase>59</timebase>
							<ntsc>TRUE</ntsc>
						</rate>
						<rate>
							<timebase>59</timebase>
							<ntsc>TRUE</ntsc>
						</rate>
						<duration>66</duration>
						<start>557</start>
						<end>623</end>
						<in>0</in>
						<out>66</out>
					</clipitem>
					<clipitem frameBlend="FALSE" id="clipitem-telop-236">
						<file id="file-2"/>
						<name>！</name>
						<rate>
							<timebase>59</timebase>
							<ntsc>TRUE</ntsc>
						</rate>
						<rate>
							<timebase>59</timebase>
							<ntsc>TRUE</ntsc>
						</rate>
						<duration>60</duration>
						<start>2039</start>
						<end>2099</end>
						<in>0</in>
						<out>60</out>
					</clipitem>
					<clipitem frameBlend="FALSE" id="clipitem-telop-387">
						<file id="file-2"/>
						<name>！</name>
						<rate>
							<timebase>59</timebase>
							<ntsc>TRUE</ntsc>
						</rate>
						<rate>
							<timebase>59</timebase>
							<ntsc>TRUE</ntsc>
						</rate>
						<duration>60</duration>
						<start>3329</start>
						<end>3389</end>
						<in>0</in>
						<out>60</out>
					</clipitem>
					<clipitem frameBlend="FALSE" id="clipitem-telop-601">
						<file id="file-2"/>
						<name>！</name>
						<rate>
							<timebase>59</timebase>
							<ntsc>TRUE</ntsc>
						</rate>
						<rate>
							<timebase>59</timebase>
							<ntsc>TRUE</ntsc>
						</rate>
						<duration>66</duration>
						<start>4961</start>
						<end>5027</end>
						<in>0</in>
						<out>66</out>
					</clipitem>
					<clipitem frameBlend="FALSE" id="clipitem-telop-837">
						<file id="file-2"/>
						<name>！</name>
						<rate>
							<timebase>59</timebase>
							<ntsc>TRUE</ntsc>
						</rate>
						<rate>
							<timebase>59</timebase>
							<ntsc>TRUE</ntsc>
						</rate>
						<duration>66</duration>
						<start>6893</start>
						<end>6959</end>
						<in>0</in>
						<out>66</out>
					</clipitem>
					<clipitem frameBlend="FALSE" id="clipitem-telop-915">
						<file id="file-2"/>
						<name>！</name>
						<rate>
							<timebase>59</timebase>
							<ntsc>TRUE</ntsc>
						</rate>
						<rate>
							<timebase>59</timebase>
							<ntsc>TRUE</ntsc>
						</rate>
						<duration>60</duration>
						<start>7463</start>
						<end>7523</end>
						<in>0</in>
						<out>60</out>
					</clipitem>
					<clipitem frameBlend="FALSE" id="clipitem-telop-1143">
						<file id="file-2"/>
						<name>！</name>
						<rate>
							<timebase>59</timebase>
							<ntsc>TRUE</ntsc>
						</rate>
						<rate>
							<timebase>59</timebase>
							<ntsc>TRUE</ntsc>
						</rate>
						<duration>60</duration>
						<start>9442</start>
						<end>9502</end>
						<in>0</in>
						<out>60</out>
					</clipitem>
					<clipitem frameBlend="FALSE" id="clipitem-telop-1262">
						<file id="file-2"/>
						<name>！</name>
						<rate>
							<timebase>59</timebase>
							<ntsc>TRUE</ntsc>
						</rate>
						<rate>
							<timebase>59</timebase>
							<ntsc>TRUE</ntsc>
						</rate>
						<duration>66</duration>
						<start>10636</start>
						<end>10702</end>
						<in>0</in>
						<out>66</out>
					</clipitem>
					<clipitem frameBlend="FALSE" id="clipitem-telop-1503">
						<file id="file-2"/>
						<name>！</name>
						<rate>
							<timebase>59</timebase>
							<ntsc>TRUE</ntsc>
						</rate>
						<rate>
							<timebase>59</timebase>
							<ntsc>TRUE</ntsc>
						</rate>
						<duration>60</duration>
						<start>12646</start>
						<end>12706</end>
						<in>0</in>
						<out>60</out>
					</clipitem>
					<clipitem frameBlend="FALSE" id="clipitem-telop-2196">
						<file id="file-2"/>
						<name>！</name>
						<rate>
							<timebase>59</timebase>
							<ntsc>TRUE</ntsc>
						</rate>
						<rate>
							<timebase>59</timebase>
							<ntsc>TRUE</ntsc>
						</rate>
						<duration>60</duration>
						<start>19059</start>
						<end>19119</end>
						<in>0</in>
						<out>60</out>
					</clipitem>
					<clipitem frameBlend="FALSE" id="clipitem-telop-2227">
						<file id="file-2"/>
						<name>！</name>
						<rate>
							<timebase>59</timebase>
							<ntsc>TRUE</ntsc>
						</rate>
						<rate>
							<timebase>59</timebase>
							<ntsc>TRUE</ntsc>
						</rate>
						<duration>60</duration>
						<start>19347</start>
						<end>19407</end>
						<in>0</in>
						<out>60</out>
					</clipitem>
					<clipitem frameBlend="FALSE" id="clipitem-telop-2295">
						<file id="file-2"/>
						<name>！</name>
						<rate>
							<timebase>59</timebase>
							<ntsc>TRUE</ntsc>
						</rate>
						<rate>
							<timebase>59</timebase>
							<ntsc>TRUE</ntsc>
						</rate>
						<duration>60</duration>
						<start>19875</start>
						<end>19935</end>
						<in>0</in>
						<out>60</out>
					</clipitem>
					<clipitem frameBlend="FALSE" id="clipitem-telop-2362">
						<file id="file-2"/>
						<name>！</name>
						<rate>
							<timebase>59</timebase>
							<ntsc>TRUE</ntsc>
						</rate>
						<rate>
							<timebase>59</timebase>
							<ntsc>TRUE</ntsc>
						</rate>
						<duration>66</duration>
						<start>20409</start>
						<end>20475</end>
						<in>0</in>
						<out>66</out>
					</clipitem>
					<clipitem frameBlend="FALSE" id="clipitem-telop-2439">
						<file id="file-2"/>
						<name>！</name>
						<rate>
							<timebase>59</timebase>
							<ntsc>TRUE</ntsc>
						</rate>
						<rate>
							<timebase>59</timebase>
							<ntsc>TRUE</ntsc>
						</rate>
						<duration>60</duration>
						<start>21075</start>
						<end>21135</end>
						<in>0</in>
						<out>60</out>
					</clipitem>
					<clipitem frameBlend="FALSE" id="clipitem-telop-2456">
						<file id="file-2"/>
						<name>！</name>
						<rate>
							<timebase>59</timebase>
							<ntsc>TRUE</ntsc>
						</rate>
						<rate>
							<timebase>59</timebase>
							<ntsc>TRUE</ntsc>
						</rate>
						<duration>60</duration>
						<start>21135</start>
						<end>21195</end>
						<in>0</in>
						<out>60</out>
					</clipitem>
					<clipitem frameBlend="FALSE" id="clipitem-telop-2473">
						<file id="file-2"/>
						<name>！</name>
						<rate>
							<timebase>59</timebase>
							<ntsc>TRUE</ntsc>
						</rate>
						<rate>
							<timebase>59</timebase>
							<ntsc>TRUE</ntsc>
						</rate>
						<duration>60</duration>
						<start>21243</start>
						<end>21303</end>
						<in>0</in>
						<out>60</out>
					</clipitem>
					<clipitem frameBlend="FALSE" id="clipitem-telop-2516">
						<file id="file-2"/>
						<name>！</name>
						<rate>
							<timebase>59</timebase>
							<ntsc>TRUE</ntsc>
						</rate>
						<rate>
							<timebase>59</timebase>
							<ntsc>TRUE</ntsc>
						</rate>
						<duration>66</duration>
						<start>21501</start>
						<end>21567</end>
						<in>0</in>
						<out>66</out>
					</clipitem>
					<clipitem frameBlend="FALSE" id="clipitem-telop-2542">
						<file id="file-2"/>
						<name>！</name>
						<rate>
							<timebase>59</timebase>
							<ntsc>TRUE</ntsc>
						</rate>
						<rate>
							<timebase>59</timebase>
							<ntsc>TRUE</ntsc>
						</rate>
						<duration>60</duration>
						<start>21699</start>
						<end>21759</end>
						<in>0</in>
						<out>60</out>
					</clipitem>
					<clipitem frameBlend="FALSE" id="clipitem-telop-2554">
						<file id="file-2"/>
						<name>！</name>
						<rate>
							<timebase>59</timebase>
							<ntsc>TRUE</ntsc>
						</rate>
						<rate>
							<timebase>59</timebase>
							<ntsc>TRUE</ntsc>
						</rate>
						<duration>60</duration>
						<start>21765</start>
						<end>21825</end>
						<in>0</in>
						<out>60</out>
					</clipitem>
					<clipitem frameBlend="FALSE" id="clipitem-telop-2569">
						<file id="file-2"/>
						<name>！</name>
						<rate>
							<timebase>59</timebase>
							<ntsc>TRUE</ntsc>
						</rate>
						<rate>
							<timebase>59</timebase>
							<ntsc>TRUE</ntsc>
						</rate>
						<duration>60</duration>
						<start>21849</start>
						<end>21909</end>
						<in>0</in>
						<out>60</out>
					</clipitem>
					<clipitem frameBlend="FALSE" id="clipitem-telop-2608">
						<file id="file-2"/>
						<name>！</name>
						<rate>
							<timebase>59</timebase>
							<ntsc>TRUE</ntsc>
						</rate>
						<rate>
							<timebase>59</timebase>
							<ntsc>TRUE</ntsc>
						</rate>
						<duration>66</duration>
						<start>22107</start>
						<end>22173</end>
						<in>0</in>
						<out>66</out>
					</clipitem>
					<clipitem frameBlend="FALSE" id="clipitem-telop-2627">
						<file id="file-2"/>
						<name>！</name>
						<rate>
							<timebase>59</timebase>
							<ntsc>TRUE</ntsc>
						</rate>
						<rate>
							<timebase>59</timebase>
							<ntsc>TRUE</ntsc>
						</rate>
						<duration>60</duration>
						<start>22203</start>
						<end>22263</end>
						<in>0</in>
						<out>60</out>
					</clipitem>
					<clipitem frameBlend="FALSE" id="clipitem-telop-2658">
						<file id="file-2"/>
						<name>！</name>
						<rate>
							<timebase>59</timebase>
							<ntsc>TRUE</ntsc>
						</rate>
						<rate>
							<timebase>59</timebase>
							<ntsc>TRUE</ntsc>
						</rate>
						<duration>66</duration>
						<start>22461</start>
						<end>22527</end>
						<in>0</in>
						<out>66</out>
					</clipitem>
					<clipitem frameBlend="FALSE" id="clipitem-telop-2793">
						<file id="file-2"/>
						<name>！</name>
						<rate>
							<timebase>59</timebase>
							<ntsc>TRUE</ntsc>
						</rate>
						<rate>
							<timebase>59</timebase>
							<ntsc>TRUE</ntsc>
						</rate>
						<duration>60</duration>
						<start>23463</start>
						<end>23523</end>
						<in>0</in>
						<out>60</out>
					</clipitem>
					<clipitem frameBlend="FALSE" id="clipitem-telop-2850">
						<file id="file-2"/>
						<name>！</name>
						<rate>
							<timebase>59</timebase>
							<ntsc>TRUE</ntsc>
						</rate>
						<rate>
							<timebase>59</timebase>
							<ntsc>TRUE</ntsc>
						</rate>
						<duration>60</duration>
						<start>23859</start>
						<end>23919</end>
						<in>0</in>
						<out>60</out>
					</clipitem>
					<clipitem frameBlend="FALSE" id="clipitem-telop-2884">
						<file id="file-2"/>
						<name>！</name>
						<rate>
							<timebase>59</timebase>
							<ntsc>TRUE</ntsc>
						</rate>
						<rate>
							<timebase>59</timebase>
							<ntsc>TRUE</ntsc>
						</rate>
						<duration>60</duration>
						<start>24099</start>
						<end>24159</end>
						<in>0</in>
						<out>60</out>
					</clipitem>
					<clipitem frameBlend="FALSE" id="clipitem-telop-2898">
						<file id="file-2"/>
						<name>！</name>
						<rate>
							<timebase>59</timebase>
							<ntsc>TRUE</ntsc>
						</rate>
						<rate>
							<timebase>59</timebase>
							<ntsc>TRUE</ntsc>
						</rate>
						<duration>60</duration>
						<start>24171</start>
						<end>24231</end>
						<in>0</in>
						<out>60</out>
					</clipitem>
					<clipitem frameBlend="FALSE" id="clipitem-telop-2911">
						<file id="file-2"/>
						<name>！</name>
						<rate>
							<timebase>59</timebase>
							<ntsc>TRUE</ntsc>
						</rate>
						<rate>
							<timebase>59</timebase>
							<ntsc>TRUE</ntsc>
						</rate>
						<duration>60</duration>
						<start>24237</start>
						<end>24297</end>
						<in>0</in>
						<out>60</out>
					</clipitem>
				</track>
				<track>
					<clipitem frameBlend="FALSE" id="clipitem-telop-606">
						<file id="file-2"/>
						<name>！</name>
						<rate>
							<timebase>59</timebase>
							<ntsc>TRUE</ntsc>
						</rate>
						<rate>
							<timebase>59</timebase>
							<ntsc>TRUE</ntsc>
						</rate>
						<duration>60</duration>
						<start>4991</start>
						<end>5051</end>
						<in>0</in>
						<out>60</out>
					</clipitem>
					<clipitem frameBlend="FALSE" id="clipitem-telop-2442">
						<file id="file-2"/>
						<name>w</name>
						<rate>
							<timebase>59</timebase>
							<ntsc>TRUE</ntsc>
						</rate>
						<rate>
							<timebase>59</timebase>
							<ntsc>TRUE</ntsc>
						</rate>
						<duration>30</duration>
						<start>21087</start>
						<end>21117</end>
						<in>0</in>
						<out>30</out>
					</clipitem>
					<clipitem frameBlend="FALSE" id="clipitem-telop-2474">
						<file id="file-2"/>
						<name>！</name>
						<rate>
							<timebase>59</timebase>
							<ntsc>TRUE</ntsc>
						</rate>
						<rate>
							<timebase>59</timebase>
							<ntsc>TRUE</ntsc>
						</rate>
						<duration>60</duration>
						<start>21249</start>
						<end>21309</end>
						<in>0</in>
						<out>60</out>
					</clipitem>
					<clipitem frameBlend="FALSE" id="clipitem-telop-2555">
						<file id="file-2"/>
						<name>！</name>
						<rate>
							<timebase>59</timebase>
							<ntsc>TRUE</ntsc>
						</rate>
						<rate>
							<timebase>59</timebase>
							<ntsc>TRUE</ntsc>
						</rate>
						<duration>66</duration>
						<start>21765</start>
						<end>21831</end>
						<in>0</in>
						<out>66</out>
					</clipitem>
					<clipitem frameBlend="FALSE" id="clipitem-telop-2630">
						<file id="file-2"/>
						<name>！</name>
						<rate>
							<timebase>59</timebase>
							<ntsc>TRUE</ntsc>
						</rate>
						<rate>
							<timebase>59</timebase>
							<ntsc>TRUE</ntsc>
						</rate>
						<duration>60</duration>
						<start>22221</start>
						<end>22281</end>
						<in>0</in>
						<out>60</out>
					</clipitem>
					<clipitem frameBlend="FALSE" id="clipitem-telop-2662">
						<file id="file-2"/>
						<name>！</name>
						<rate>
							<timebase>59</timebase>
							<ntsc>TRUE</ntsc>
						</rate>
						<rate>
							<timebase>59</timebase>
							<ntsc>TRUE</ntsc>
						</rate>
						<duration>66</duration>
						<start>22479</start>
						<end>22545</end>
						<in>0</in>
						<out>66</out>
					</clipitem>
					<clipitem frameBlend="FALSE" id="clipitem-telop-2858">
						<file id="file-2"/>
						<name>！</name>
						<rate>
							<timebase>59</timebase>
							<ntsc>TRUE</ntsc>
						</rate>
						<rate>
							<timebase>59</timebase>
							<ntsc>TRUE</ntsc>
						</rate>
						<duration>60</duration>
						<start>23895</start>
						<end>23955</end>
						<in>0</in>
						<out>60</out>
					</clipitem>
				</track>
				<track>
					<clipitem frameBlend="FALSE" id="clipitem-telop-2443">
						<file id="file-2"/>
						<name>！</name>
						<rate>
							<timebase>59</timebase>
							<ntsc>TRUE</ntsc>
						</rate>
						<rate>
							<timebase>59</timebase>
							<ntsc>TRUE</ntsc>
						</rate>
						<duration>66</duration>
						<start>21087</start>
						<end>21153</end>
						<in>0</in>
						<out>66</out>
					</clipitem>
					<clipitem frameBlend="FALSE" id="clipitem-telop-2476">
						<file id="file-2"/>
						<name>！</name>
						<rate>
							<timebase>59</timebase>
							<ntsc>TRUE</ntsc>
						</rate>
						<rate>
							<timebase>59</timebase>
							<ntsc>TRUE</ntsc>
						</rate>
						<duration>66</duration>
						<start>21255</start>
						<end>21321</end>
						<in>0</in>
						<out>66</out>
					</clipitem>
				</track>
				<track>
					<clipitem frameBlend="FALSE" id="clipitem-telop-2446">
						<file id="file-2"/>
						<name>！</name>
						<rate>
							<timebase>59</timebase>
							<ntsc>TRUE</ntsc>
						</rate>
						<rate>
							<timebase>59</timebase>
							<ntsc>TRUE</ntsc>
						</rate>
						<duration>60</duration>
						<start>21099</start>
						<end>21159</end>
						<in>0</in>
						<out>60</out>
					</clipitem>
				</track>
				<track>
					<clipitem frameBlend="FALSE" id="clipitem-telop-2447">
						<file id="file-2"/>
						<name>w</name>
						<rate>
							<timebase>59</timebase>
							<ntsc>TRUE</ntsc>
						</rate>
						<rate>
							<timebase>59</timebase>
							<ntsc>TRUE</ntsc>
						</rate>
						<duration>30</duration>
						<start>21099</start>
						<end>21129</end>
						<in>0</in>
						<out>30</out>
					</clipitem>
				</track>
			</video>
			<audio>
				<track>
					<clipitem frameBlend="FALSE" id="audioclip-1">
						<file id="file-1"/>
						<name>bandicam 2025-06-22 02-16-39-762 - Audio</name>
						<rate>
							<timebase>59</timebase>
							<ntsc>TRUE</ntsc>
						</rate>
						<rate>
							<timebase>59</timebase>
							<ntsc>TRUE</ntsc>
						</rate>
						<duration>24543</duration>
						<start>0</start>
						<end>24543</end>
						<in>0</in>
						<out>24543</out>
					</clipitem>
				</track>
			</audio>
		</media>
	</sequence>
</xmeml>