<?xml version="1.0" encoding="UTF-8"?>
<!DOCTYPE xmeml>
<xmeml version="4">
	<sequence id="sequence-1">
		<name>bandicam 2025-06-02 00-01-10-144</name>
		<duration>7071</duration>
		<rate>
			<timebase>59</timebase>
			<ntsc>TRUE</ntsc>
		</rate>
		<media>
			<video>
				<format/>
				<track>
					<clipitem frameBlend="FALSE" id="clipitem-1">
						<file id="file-1">
							<pathurl>file://localhost/D:/%E5%88%87%E3%82%8A%E6%8A%9C%E3%81%8D/2025-6/2025-6-02/bandicam%202025-06-02%2000-01-10-144.mp4</pathurl>
							<name>bandicam 2025-06-02 00-01-10-144.mp4</name>
							<rate>
								<timebase>59</timebase>
								<ntsc>TRUE</ntsc>
							</rate>
							<duration>7071</duration>
							<timecode>
								<rate>
									<timebase>59</timebase>
									<ntsc>TRUE</ntsc>
								</rate>
								<string>00:00:00:00</string>
								<frame>0</frame>
								<displayformat>NDF</displayformat>
							</timecode>
							<media>
								<video/>
								<audio/>
							</media>
						</file>
						<name>bandicam 2025-06-02 00-01-10-144</name>
						<rate>
							<timebase>59</timebase>
							<ntsc>TRUE</ntsc>
						</rate>
						<rate>
							<timebase>59</timebase>
							<ntsc>TRUE</ntsc>
						</rate>
						<duration>809</duration>
						<start>0</start>
						<end>809</end>
						<in>0</in>
						<out>809</out>
					</clipitem>
					<clipitem frameBlend="FALSE" id="clipitem-2">
						<file id="file-1"/>
						<name>bandicam 2025-06-02 00-01-10-144</name>
						<rate>
							<timebase>59</timebase>
							<ntsc>TRUE</ntsc>
						</rate>
						<rate>
							<timebase>59</timebase>
							<ntsc>TRUE</ntsc>
						</rate>
						<duration>18</duration>
						<start>809</start>
						<end>827</end>
						<in>905</in>
						<out>923</out>
					</clipitem>
					<clipitem frameBlend="FALSE" id="clipitem-3">
						<file id="file-1"/>
						<name>bandicam 2025-06-02 00-01-10-144</name>
						<rate>
							<timebase>59</timebase>
							<ntsc>TRUE</ntsc>
						</rate>
						<rate>
							<timebase>59</timebase>
							<ntsc>TRUE</ntsc>
						</rate>
						<duration>6083</duration>
						<start>827</start>
						<end>6910</end>
						<in>983</in>
						<out>7066</out>
					</clipitem>
				</track>
				<track TL.SQTrackShy="0" TL.SQTrackExpandedHeight="25" TL.SQTrackExpanded="0" MZ.TrackTargeted="0">
							<clipitem frameBlend="FALSE" id="clipitem-telop-1">
								<masterclipid>masterclip-3</masterclipid>
								<name>グラフィック</name>
								<enabled>TRUE</enabled>
								<duration>2582774</duration>
								<rate>
									
								<timebase>59</timebase>
								<ntsc>TRUE</ntsc>
							
								</rate>
								<start>0</start>
								<end>359</end>
								<in>0</in>
								<out>359</out>
								<pproTicksIn>914456774963789</pproTicksIn>
								<pproTicksOut>914677708529577</pproTicksOut>
								<alphatype>straight</alphatype>
								<pixelaspectratio>square</pixelaspectratio>
								<anamorphic>FALSE</anamorphic>
								<file id="file-2">
									<name>グラフィック</name>
									<mediaSource>GraphicAndType</mediaSource>
									<rate>
										<timebase>60</timebase>
										<ntsc>TRUE</ntsc>
									</rate>
									<timecode>
										<rate>
											<timebase>60</timebase>
											<ntsc>TRUE</ntsc>
										</rate>
										<string>00:00:00:00</string>
										<frame>0</frame>
										<displayformat>NDF</displayformat>
									</timecode>
									<media>
										<video>
											<samplecharacteristics>
												<rate>
													<timebase>60</timebase>
													<ntsc>TRUE</ntsc>
												</rate>
												<width>1080</width>
												<height>1920</height>
												<anamorphic>FALSE</anamorphic>
												<pixelaspectratio>square</pixelaspectratio>
												<fielddominance>none</fielddominance>
											</samplecharacteristics>
										</video>
									</media>
								</file>
								<filter>
									<effect>
										<name>グラフィック</name>
										<effectid>GraphicAndType</effectid>
										<effectcategory>graphic</effectcategory>
										<effecttype>filter</effecttype>
										<mediatype>video</mediatype>
										<pproBypass>false</pproBypass>
										<parameter authoringApp="PremierePro">
											<parameterid>1</parameterid>
											<name>ソーステキスト</name>
											<hash>025b1101-ead6-0ca2-1feb-caf3000001fc</hash>
											<value>5AEAAAAAAABEMyIRDAAAAAAABgAKAAQABgAAAGQAAAAAAF4ASAAQAAwARABAADwAOAAAAAAAAAAAADQAMwAsAAAAKAAkACAAAAAAAAAAAAAAAAAAHAAAAAAAGgAAAAAAAAAUAAAAAAAAAAAAAAAAAAAAAAAAAAgAAAAAABsABwBeAAAAAAAAAUAAAABQAAAAbAAAAAIAAAAAAAEAAQAAAAAAQEEAAMBAAABAQAAAyEIAAAABIAAAAAIAAAACAAAAAAA2QwCASkTw/v//9P7///j+//8S////AAAAAAEAAAAEAAAAEQAAAEhHUFNvZWlLYWt1cG9wdGFpAAAAAQAAAAwAAAAIAAwABAAIAAgAAAAIAAAAUAAAAA8AAADjgrDjg6njg5XjgqPjg4MAAAA2ACQAAAAgABwAAAAAABsAFAAAAAAAAAAAAAAAAAAAAAAAAAAAABAAAAAAAAAADAAAAAgABAA2AAAAAgAAABwAAAAcAAAAHAAAAAAAIEEAAAABaAAAAE3PAEOw////tP///wEAAAAUAAAAEAAaAAgABwAMAAAAEAAUABAAAAAAAAABHAAAAAAAoEEcAAAAAgAAAAAACgAIAAUABgAHAAoAAAAADAD//P///wQABAAEAAAACAAIAAYABwAIAAAAAAAMAA==</value>
										</parameter>
										<parameter authoringApp="PremierePro">
											<parameterid>2</parameterid>
											<name>トランスフォーム</name>
											<IsTimeVarying>false</IsTimeVarying>
											<ParameterControlType>11</ParameterControlType>
											<LowerBound>false</LowerBound>
											<UpperBound>false</UpperBound>
											<value>-91445760000000000,false,0,0,0,0,0,0</value>
										</parameter>
										<parameter authoringApp="PremierePro">
											<parameterid>3</parameterid>
											<name>位置</name>
											<IsTimeVarying>false</IsTimeVarying>
											<value>-91445760000000000,0.5:0.5,0,0,0,0,0,0,5,4,0,0,0,0</value>
										</parameter>
										<parameter authoringApp="PremierePro">
											<parameterid>4</parameterid>
											<name>スケール</name>
											<IsTimeVarying>false</IsTimeVarying>
											<ParameterControlType>2</ParameterControlType>
											<LowerBound>0</LowerBound>
											<UpperBound>4000</UpperBound>
											<value>-91445760000000000,100.,0,0,0,0,0,0</value>
										</parameter>
										<parameter authoringApp="PremierePro">
											<parameterid>8</parameterid>
											<name>不透明度</name>
											<IsTimeVarying>false</IsTimeVarying>
											<ParameterControlType>2</ParameterControlType>
											<LowerBound>0</LowerBound>
											<UpperBound>100</UpperBound>
											<value>-91445760000000000,100.,0,0,0,0,0,0</value>
										</parameter>
									</effect>
								</filter>
								<logginginfo>
									<description></description>
									<scene></scene>
									<shottake></shottake>
									<lognote></lognote>
									<good></good>
									<originalvideofilename></originalvideofilename>
									<originalaudiofilename></originalaudiofilename>
								</logginginfo>
								<colorinfo>
									<lut></lut>
									<lut1></lut1>
									<asc_sop></asc_sop>
									<asc_sat></asc_sat>
									<lut2></lut2>
								</colorinfo>
								<labels>
								</labels>
							</clipitem>
							<enabled>TRUE</enabled>
							<locked>FALSE</locked>
						</track>
				<track TL.SQTrackShy="0" TL.SQTrackExpandedHeight="25" TL.SQTrackExpanded="0" MZ.TrackTargeted="0">
							<clipitem frameBlend="FALSE" id="clipitem-telop-2">
								<masterclipid>masterclip-4</masterclipid>
								<name>グラフィック</name>
								<enabled>TRUE</enabled>
								<duration>2582774</duration>
								<rate>
									
							<timebase>59</timebase>
							<ntsc>TRUE</ntsc>
						
								</rate>
								<start>47</start>
								<end>113</end>
								<in>0</in>
								<out>66</out>
								<pproTicksIn>914456774963789</pproTicksIn>
								<pproTicksOut>914677708529577</pproTicksOut>
								<alphatype>straight</alphatype>
								<pixelaspectratio>square</pixelaspectratio>
								<anamorphic>FALSE</anamorphic>
								<file id="file-3">
									<name>グラフィック</name>
									<mediaSource>GraphicAndType</mediaSource>
									<rate>
										<timebase>60</timebase>
										<ntsc>TRUE</ntsc>
									</rate>
									<timecode>
										<rate>
											<timebase>60</timebase>
											<ntsc>TRUE</ntsc>
										</rate>
										<string>00:00:00:00</string>
										<frame>0</frame>
										<displayformat>NDF</displayformat>
									</timecode>
									<media>
										<video>
											<samplecharacteristics>
												<rate>
													<timebase>60</timebase>
													<ntsc>TRUE</ntsc>
												</rate>
												<width>1080</width>
												<height>1920</height>
												<anamorphic>FALSE</anamorphic>
												<pixelaspectratio>square</pixelaspectratio>
												<fielddominance>none</fielddominance>
											</samplecharacteristics>
										</video>
									</media>
								</file>
								<filter>
									<effect>
										<name>！</name>
										<effectid>GraphicAndType</effectid>
										<effectcategory>graphic</effectcategory>
										<effecttype>filter</effecttype>
										<mediatype>video</mediatype>
										<pproBypass>false</pproBypass>
										<parameter authoringApp="PremierePro">
											<parameterid>1</parameterid>
											<name>ソーステキスト</name>
											<hash>025b1101-ead6-0ca2-1feb-caf3000001fc</hash>
											<value>5AEAAAAAAABEMyIRDAAAAAAABgAKAAQABgAAAGQAAAAAAF4ASAAQAAwARABAADwAOAAAAAAAAAAAADQAMwAsAAAAKAAkACAAAAAAAAAAAAAAAAAAHAAAAAAAGgAAAAAAAAAUAAAAAAAAAAAAAAAAAAAAAAAAAAgAAAAAABsABwBeAAAAAAAAAUAAAABQAAAAbAAAAAIAAAAAAAEAAQAAAAAAQEEAAMBAAABAQAAAyEIAAAABIAAAAAIAAAACAAAAAAA2QwCASkTw/v//9P7///j+//8S////AAAAAAEAAAAEAAAAEQAAAEhHUFNvZWlLYWt1cG9wdGFpAAAAAQAAAAwAAAAIAAwABAAIAAgAAAAIAAAAUAAAAA8AAADvvIEAAAAAAAAAAAAAAAAAAAA2ACQAAAAgABwAAAAAABsAFAAAAAAAAAAAAAAAAAAAAAAAAAAAABAAAAAAAAAADAAAAAgABAA2AAAAAgAAABwAAAAcAAAAHAAAAAAAIEEAAAABaAAAAE3PAEOw////tP///wEAAAAUAAAAEAAaAAgABwAMAAAAEAAUABAAAAAAAAABHAAAAAAAoEEcAAAAAgAAAAAACgAIAAUABgAHAAoAAAAADAD//P///wQABAAEAAAACAAIAAYABwAIAAAAAAAMAA==</value>
										</parameter>
										<parameter authoringApp="PremierePro">
											<parameterid>2</parameterid>
											<name>トランスフォーム</name>
											<IsTimeVarying>false</IsTimeVarying>
											<ParameterControlType>11</ParameterControlType>
											<LowerBound>false</LowerBound>
											<UpperBound>false</UpperBound>
											<value>-91445760000000000,false,0,0,0,0,0,0</value>
										</parameter>
										<parameter authoringApp="PremierePro">
											<parameterid>3</parameterid>
											<name>位置</name>
											<IsTimeVarying>false</IsTimeVarying>
											<value>-91445760000000000,0.5:0.5,0,0,0,0,0,0,5,4,0,0,0,0</value>
										</parameter>
										<parameter authoringApp="PremierePro">
											<parameterid>4</parameterid>
											<name>スケール</name>
											<IsTimeVarying>false</IsTimeVarying>
											<ParameterControlType>2</ParameterControlType>
											<LowerBound>0</LowerBound>
											<UpperBound>4000</UpperBound>
											<value>-91445760000000000,100.,0,0,0,0,0,0</value>
										</parameter>
										<parameter authoringApp="PremierePro">
											<parameterid>8</parameterid>
											<name>不透明度</name>
											<IsTimeVarying>false</IsTimeVarying>
											<ParameterControlType>2</ParameterControlType>
											<LowerBound>0</LowerBound>
											<UpperBound>100</UpperBound>
											<value>-91445760000000000,100.,0,0,0,0,0,0</value>
										</parameter>
									</effect>
								</filter>
								<logginginfo>
									<description></description>
									<scene></scene>
									<shottake></shottake>
									<lognote></lognote>
									<good></good>
									<originalvideofilename></originalvideofilename>
									<originalaudiofilename></originalaudiofilename>
								</logginginfo>
								<colorinfo>
									<lut></lut>
									<lut1></lut1>
									<asc_sop></asc_sop>
									<asc_sat></asc_sat>
									<lut2></lut2>
								</colorinfo>
								<labels>
								</labels>
							</clipitem>
							<enabled>TRUE</enabled>
							<locked>FALSE</locked>
						</track>
				<track TL.SQTrackShy="0" TL.SQTrackExpandedHeight="25" TL.SQTrackExpanded="0" MZ.TrackTargeted="0">
							<clipitem frameBlend="FALSE" id="clipitem-telop-3">
								<masterclipid>masterclip-5</masterclipid>
								<name>グラフィック</name>
								<enabled>TRUE</enabled>
								<duration>2582774</duration>
								<rate>
									
							<timebase>59</timebase>
							<ntsc>TRUE</ntsc>
						
								</rate>
								<start>53</start>
								<end>113</end>
								<in>0</in>
								<out>60</out>
								<pproTicksIn>914456774963789</pproTicksIn>
								<pproTicksOut>914677708529577</pproTicksOut>
								<alphatype>straight</alphatype>
								<pixelaspectratio>square</pixelaspectratio>
								<anamorphic>FALSE</anamorphic>
								<file id="file-4">
									<name>グラフィック</name>
									<mediaSource>GraphicAndType</mediaSource>
									<rate>
										<timebase>60</timebase>
										<ntsc>TRUE</ntsc>
									</rate>
									<timecode>
										<rate>
											<timebase>60</timebase>
											<ntsc>TRUE</ntsc>
										</rate>
										<string>00:00:00:00</string>
										<frame>0</frame>
										<displayformat>NDF</displayformat>
									</timecode>
									<media>
										<video>
											<samplecharacteristics>
												<rate>
													<timebase>60</timebase>
													<ntsc>TRUE</ntsc>
												</rate>
												<width>1080</width>
												<height>1920</height>
												<anamorphic>FALSE</anamorphic>
												<pixelaspectratio>square</pixelaspectratio>
												<fielddominance>none</fielddominance>
											</samplecharacteristics>
										</video>
									</media>
								</file>
								<filter>
									<effect>
										<name>！</name>
										<effectid>GraphicAndType</effectid>
										<effectcategory>graphic</effectcategory>
										<effecttype>filter</effecttype>
										<mediatype>video</mediatype>
										<pproBypass>false</pproBypass>
										<parameter authoringApp="PremierePro">
											<parameterid>1</parameterid>
											<name>ソーステキスト</name>
											<hash>025b1101-ead6-0ca2-1feb-caf3000001fc</hash>
											<value>5AEAAAAAAABEMyIRDAAAAAAABgAKAAQABgAAAGQAAAAAAF4ASAAQAAwARABAADwAOAAAAAAAAAAAADQAMwAsAAAAKAAkACAAAAAAAAAAAAAAAAAAHAAAAAAAGgAAAAAAAAAUAAAAAAAAAAAAAAAAAAAAAAAAAAgAAAAAABsABwBeAAAAAAAAAUAAAABQAAAAbAAAAAIAAAAAAAEAAQAAAAAAQEEAAMBAAABAQAAAyEIAAAABIAAAAAIAAAACAAAAAAA2QwCASkTw/v//9P7///j+//8S////AAAAAAEAAAAEAAAAEQAAAEhHUFNvZWlLYWt1cG9wdGFpAAAAAQAAAAwAAAAIAAwABAAIAAgAAAAIAAAAUAAAAA8AAADvvIEAAAAAAAAAAAAAAAAAAAA2ACQAAAAgABwAAAAAABsAFAAAAAAAAAAAAAAAAAAAAAAAAAAAABAAAAAAAAAADAAAAAgABAA2AAAAAgAAABwAAAAcAAAAHAAAAAAAIEEAAAABaAAAAE3PAEOw////tP///wEAAAAUAAAAEAAaAAgABwAMAAAAEAAUABAAAAAAAAABHAAAAAAAoEEcAAAAAgAAAAAACgAIAAUABgAHAAoAAAAADAD//P///wQABAAEAAAACAAIAAYABwAIAAAAAAAMAA==</value>
										</parameter>
										<parameter authoringApp="PremierePro">
											<parameterid>2</parameterid>
											<name>トランスフォーム</name>
											<IsTimeVarying>false</IsTimeVarying>
											<ParameterControlType>11</ParameterControlType>
											<LowerBound>false</LowerBound>
											<UpperBound>false</UpperBound>
											<value>-91445760000000000,false,0,0,0,0,0,0</value>
										</parameter>
										<parameter authoringApp="PremierePro">
											<parameterid>3</parameterid>
											<name>位置</name>
											<IsTimeVarying>false</IsTimeVarying>
											<value>-91445760000000000,0.5:0.5,0,0,0,0,0,0,5,4,0,0,0,0</value>
										</parameter>
										<parameter authoringApp="PremierePro">
											<parameterid>4</parameterid>
											<name>スケール</name>
											<IsTimeVarying>false</IsTimeVarying>
											<ParameterControlType>2</ParameterControlType>
											<LowerBound>0</LowerBound>
											<UpperBound>4000</UpperBound>
											<value>-91445760000000000,100.,0,0,0,0,0,0</value>
										</parameter>
										<parameter authoringApp="PremierePro">
											<parameterid>8</parameterid>
											<name>不透明度</name>
											<IsTimeVarying>false</IsTimeVarying>
											<ParameterControlType>2</ParameterControlType>
											<LowerBound>0</LowerBound>
											<UpperBound>100</UpperBound>
											<value>-91445760000000000,100.,0,0,0,0,0,0</value>
										</parameter>
									</effect>
								</filter>
								<logginginfo>
									<description></description>
									<scene></scene>
									<shottake></shottake>
									<lognote></lognote>
									<good></good>
									<originalvideofilename></originalvideofilename>
									<originalaudiofilename></originalaudiofilename>
								</logginginfo>
								<colorinfo>
									<lut></lut>
									<lut1></lut1>
									<asc_sop></asc_sop>
									<asc_sat></asc_sat>
									<lut2></lut2>
								</colorinfo>
								<labels>
								</labels>
							</clipitem>
							<enabled>TRUE</enabled>
							<locked>FALSE</locked>
						</track>
				<track TL.SQTrackShy="0" TL.SQTrackExpandedHeight="25" TL.SQTrackExpanded="0" MZ.TrackTargeted="0">
							<clipitem frameBlend="FALSE" id="clipitem-telop-4">
								<masterclipid>masterclip-6</masterclipid>
								<name>グラフィック</name>
								<enabled>TRUE</enabled>
								<duration>2582774</duration>
								<rate>
									
							<timebase>59</timebase>
							<ntsc>TRUE</ntsc>
						
								</rate>
								<start>59</start>
								<end>119</end>
								<in>0</in>
								<out>60</out>
								<pproTicksIn>914456774963789</pproTicksIn>
								<pproTicksOut>914677708529577</pproTicksOut>
								<alphatype>straight</alphatype>
								<pixelaspectratio>square</pixelaspectratio>
								<anamorphic>FALSE</anamorphic>
								<file id="file-5">
									<name>グラフィック</name>
									<mediaSource>GraphicAndType</mediaSource>
									<rate>
										<timebase>60</timebase>
										<ntsc>TRUE</ntsc>
									</rate>
									<timecode>
										<rate>
											<timebase>60</timebase>
											<ntsc>TRUE</ntsc>
										</rate>
										<string>00:00:00:00</string>
										<frame>0</frame>
										<displayformat>NDF</displayformat>
									</timecode>
									<media>
										<video>
											<samplecharacteristics>
												<rate>
													<timebase>60</timebase>
													<ntsc>TRUE</ntsc>
												</rate>
												<width>1080</width>
												<height>1920</height>
												<anamorphic>FALSE</anamorphic>
												<pixelaspectratio>square</pixelaspectratio>
												<fielddominance>none</fielddominance>
											</samplecharacteristics>
										</video>
									</media>
								</file>
								<filter>
									<effect>
										<name>！</name>
										<effectid>GraphicAndType</effectid>
										<effectcategory>graphic</effectcategory>
										<effecttype>filter</effecttype>
										<mediatype>video</mediatype>
										<pproBypass>false</pproBypass>
										<parameter authoringApp="PremierePro">
											<parameterid>1</parameterid>
											<name>ソーステキスト</name>
											<hash>025b1101-ead6-0ca2-1feb-caf3000001fc</hash>
											<value>5AEAAAAAAABEMyIRDAAAAAAABgAKAAQABgAAAGQAAAAAAF4ASAAQAAwARABAADwAOAAAAAAAAAAAADQAMwAsAAAAKAAkACAAAAAAAAAAAAAAAAAAHAAAAAAAGgAAAAAAAAAUAAAAAAAAAAAAAAAAAAAAAAAAAAgAAAAAABsABwBeAAAAAAAAAUAAAABQAAAAbAAAAAIAAAAAAAEAAQAAAAAAQEEAAMBAAABAQAAAyEIAAAABIAAAAAIAAAACAAAAAAA2QwCASkTw/v//9P7///j+//8S////AAAAAAEAAAAEAAAAEQAAAEhHUFNvZWlLYWt1cG9wdGFpAAAAAQAAAAwAAAAIAAwABAAIAAgAAAAIAAAAUAAAAA8AAADvvIEAAAAAAAAAAAAAAAAAAAA2ACQAAAAgABwAAAAAABsAFAAAAAAAAAAAAAAAAAAAAAAAAAAAABAAAAAAAAAADAAAAAgABAA2AAAAAgAAABwAAAAcAAAAHAAAAAAAIEEAAAABaAAAAE3PAEOw////tP///wEAAAAUAAAAEAAaAAgABwAMAAAAEAAUABAAAAAAAAABHAAAAAAAoEEcAAAAAgAAAAAACgAIAAUABgAHAAoAAAAADAD//P///wQABAAEAAAACAAIAAYABwAIAAAAAAAMAA==</value>
										</parameter>
										<parameter authoringApp="PremierePro">
											<parameterid>2</parameterid>
											<name>トランスフォーム</name>
											<IsTimeVarying>false</IsTimeVarying>
											<ParameterControlType>11</ParameterControlType>
											<LowerBound>false</LowerBound>
											<UpperBound>false</UpperBound>
											<value>-91445760000000000,false,0,0,0,0,0,0</value>
										</parameter>
										<parameter authoringApp="PremierePro">
											<parameterid>3</parameterid>
											<name>位置</name>
											<IsTimeVarying>false</IsTimeVarying>
											<value>-91445760000000000,0.5:0.5,0,0,0,0,0,0,5,4,0,0,0,0</value>
										</parameter>
										<parameter authoringApp="PremierePro">
											<parameterid>4</parameterid>
											<name>スケール</name>
											<IsTimeVarying>false</IsTimeVarying>
											<ParameterControlType>2</ParameterControlType>
											<LowerBound>0</LowerBound>
											<UpperBound>4000</UpperBound>
											<value>-91445760000000000,100.,0,0,0,0,0,0</value>
										</parameter>
										<parameter authoringApp="PremierePro">
											<parameterid>8</parameterid>
											<name>不透明度</name>
											<IsTimeVarying>false</IsTimeVarying>
											<ParameterControlType>2</ParameterControlType>
											<LowerBound>0</LowerBound>
											<UpperBound>100</UpperBound>
											<value>-91445760000000000,100.,0,0,0,0,0,0</value>
										</parameter>
									</effect>
								</filter>
								<logginginfo>
									<description></description>
									<scene></scene>
									<shottake></shottake>
									<lognote></lognote>
									<good></good>
									<originalvideofilename></originalvideofilename>
									<originalaudiofilename></originalaudiofilename>
								</logginginfo>
								<colorinfo>
									<lut></lut>
									<lut1></lut1>
									<asc_sop></asc_sop>
									<asc_sat></asc_sat>
									<lut2></lut2>
								</colorinfo>
								<labels>
								</labels>
							</clipitem>
							<enabled>TRUE</enabled>
							<locked>FALSE</locked>
						</track>
				<track TL.SQTrackShy="0" TL.SQTrackExpandedHeight="25" TL.SQTrackExpanded="0" MZ.TrackTargeted="0">
							<clipitem frameBlend="FALSE" id="clipitem-telop-5">
								<masterclipid>masterclip-7</masterclipid>
								<name>グラフィック</name>
								<enabled>TRUE</enabled>
								<duration>2582774</duration>
								<rate>
									
							<timebase>59</timebase>
							<ntsc>TRUE</ntsc>
						
								</rate>
								<start>65</start>
								<end>125</end>
								<in>0</in>
								<out>60</out>
								<pproTicksIn>914456774963789</pproTicksIn>
								<pproTicksOut>914677708529577</pproTicksOut>
								<alphatype>straight</alphatype>
								<pixelaspectratio>square</pixelaspectratio>
								<anamorphic>FALSE</anamorphic>
								<file id="file-6">
									<name>グラフィック</name>
									<mediaSource>GraphicAndType</mediaSource>
									<rate>
										<timebase>60</timebase>
										<ntsc>TRUE</ntsc>
									</rate>
									<timecode>
										<rate>
											<timebase>60</timebase>
											<ntsc>TRUE</ntsc>
										</rate>
										<string>00:00:00:00</string>
										<frame>0</frame>
										<displayformat>NDF</displayformat>
									</timecode>
									<media>
										<video>
											<samplecharacteristics>
												<rate>
													<timebase>60</timebase>
													<ntsc>TRUE</ntsc>
												</rate>
												<width>1080</width>
												<height>1920</height>
												<anamorphic>FALSE</anamorphic>
												<pixelaspectratio>square</pixelaspectratio>
												<fielddominance>none</fielddominance>
											</samplecharacteristics>
										</video>
									</media>
								</file>
								<filter>
									<effect>
										<name>！</name>
										<effectid>GraphicAndType</effectid>
										<effectcategory>graphic</effectcategory>
										<effecttype>filter</effecttype>
										<mediatype>video</mediatype>
										<pproBypass>false</pproBypass>
										<parameter authoringApp="PremierePro">
											<parameterid>1</parameterid>
											<name>ソーステキスト</name>
											<hash>025b1101-ead6-0ca2-1feb-caf3000001fc</hash>
											<value>5AEAAAAAAABEMyIRDAAAAAAABgAKAAQABgAAAGQAAAAAAF4ASAAQAAwARABAADwAOAAAAAAAAAAAADQAMwAsAAAAKAAkACAAAAAAAAAAAAAAAAAAHAAAAAAAGgAAAAAAAAAUAAAAAAAAAAAAAAAAAAAAAAAAAAgAAAAAABsABwBeAAAAAAAAAUAAAABQAAAAbAAAAAIAAAAAAAEAAQAAAAAAQEEAAMBAAABAQAAAyEIAAAABIAAAAAIAAAACAAAAAAA2QwCASkTw/v//9P7///j+//8S////AAAAAAEAAAAEAAAAEQAAAEhHUFNvZWlLYWt1cG9wdGFpAAAAAQAAAAwAAAAIAAwABAAIAAgAAAAIAAAAUAAAAA8AAADvvIEAAAAAAAAAAAAAAAAAAAA2ACQAAAAgABwAAAAAABsAFAAAAAAAAAAAAAAAAAAAAAAAAAAAABAAAAAAAAAADAAAAAgABAA2AAAAAgAAABwAAAAcAAAAHAAAAAAAIEEAAAABaAAAAE3PAEOw////tP///wEAAAAUAAAAEAAaAAgABwAMAAAAEAAUABAAAAAAAAABHAAAAAAAoEEcAAAAAgAAAAAACgAIAAUABgAHAAoAAAAADAD//P///wQABAAEAAAACAAIAAYABwAIAAAAAAAMAA==</value>
										</parameter>
										<parameter authoringApp="PremierePro">
											<parameterid>2</parameterid>
											<name>トランスフォーム</name>
											<IsTimeVarying>false</IsTimeVarying>
											<ParameterControlType>11</ParameterControlType>
											<LowerBound>false</LowerBound>
											<UpperBound>false</UpperBound>
											<value>-91445760000000000,false,0,0,0,0,0,0</value>
										</parameter>
										<parameter authoringApp="PremierePro">
											<parameterid>3</parameterid>
											<name>位置</name>
											<IsTimeVarying>false</IsTimeVarying>
											<value>-91445760000000000,0.5:0.5,0,0,0,0,0,0,5,4,0,0,0,0</value>
										</parameter>
										<parameter authoringApp="PremierePro">
											<parameterid>4</parameterid>
											<name>スケール</name>
											<IsTimeVarying>false</IsTimeVarying>
											<ParameterControlType>2</ParameterControlType>
											<LowerBound>0</LowerBound>
											<UpperBound>4000</UpperBound>
											<value>-91445760000000000,100.,0,0,0,0,0,0</value>
										</parameter>
										<parameter authoringApp="PremierePro">
											<parameterid>8</parameterid>
											<name>不透明度</name>
											<IsTimeVarying>false</IsTimeVarying>
											<ParameterControlType>2</ParameterControlType>
											<LowerBound>0</LowerBound>
											<UpperBound>100</UpperBound>
											<value>-91445760000000000,100.,0,0,0,0,0,0</value>
										</parameter>
									</effect>
								</filter>
								<logginginfo>
									<description></description>
									<scene></scene>
									<shottake></shottake>
									<lognote></lognote>
									<good></good>
									<originalvideofilename></originalvideofilename>
									<originalaudiofilename></originalaudiofilename>
								</logginginfo>
								<colorinfo>
									<lut></lut>
									<lut1></lut1>
									<asc_sop></asc_sop>
									<asc_sat></asc_sat>
									<lut2></lut2>
								</colorinfo>
								<labels>
								</labels>
							</clipitem>
							<enabled>TRUE</enabled>
							<locked>FALSE</locked>
						</track>
				<track TL.SQTrackShy="0" TL.SQTrackExpandedHeight="25" TL.SQTrackExpanded="0" MZ.TrackTargeted="0">
							<clipitem frameBlend="FALSE" id="clipitem-telop-6">
								<masterclipid>masterclip-8</masterclipid>
								<name>グラフィック</name>
								<enabled>TRUE</enabled>
								<duration>2582774</duration>
								<rate>
									
							<timebase>59</timebase>
							<ntsc>TRUE</ntsc>
						
								</rate>
								<start>71</start>
								<end>137</end>
								<in>0</in>
								<out>66</out>
								<pproTicksIn>914456774963789</pproTicksIn>
								<pproTicksOut>914677708529577</pproTicksOut>
								<alphatype>straight</alphatype>
								<pixelaspectratio>square</pixelaspectratio>
								<anamorphic>FALSE</anamorphic>
								<file id="file-7">
									<name>グラフィック</name>
									<mediaSource>GraphicAndType</mediaSource>
									<rate>
										<timebase>60</timebase>
										<ntsc>TRUE</ntsc>
									</rate>
									<timecode>
										<rate>
											<timebase>60</timebase>
											<ntsc>TRUE</ntsc>
										</rate>
										<string>00:00:00:00</string>
										<frame>0</frame>
										<displayformat>NDF</displayformat>
									</timecode>
									<media>
										<video>
											<samplecharacteristics>
												<rate>
													<timebase>60</timebase>
													<ntsc>TRUE</ntsc>
												</rate>
												<width>1080</width>
												<height>1920</height>
												<anamorphic>FALSE</anamorphic>
												<pixelaspectratio>square</pixelaspectratio>
												<fielddominance>none</fielddominance>
											</samplecharacteristics>
										</video>
									</media>
								</file>
								<filter>
									<effect>
										<name>！</name>
										<effectid>GraphicAndType</effectid>
										<effectcategory>graphic</effectcategory>
										<effecttype>filter</effecttype>
										<mediatype>video</mediatype>
										<pproBypass>false</pproBypass>
										<parameter authoringApp="PremierePro">
											<parameterid>1</parameterid>
											<name>ソーステキスト</name>
											<hash>025b1101-ead6-0ca2-1feb-caf3000001fc</hash>
											<value>5AEAAAAAAABEMyIRDAAAAAAABgAKAAQABgAAAGQAAAAAAF4ASAAQAAwARABAADwAOAAAAAAAAAAAADQAMwAsAAAAKAAkACAAAAAAAAAAAAAAAAAAHAAAAAAAGgAAAAAAAAAUAAAAAAAAAAAAAAAAAAAAAAAAAAgAAAAAABsABwBeAAAAAAAAAUAAAABQAAAAbAAAAAIAAAAAAAEAAQAAAAAAQEEAAMBAAABAQAAAyEIAAAABIAAAAAIAAAACAAAAAAA2QwCASkTw/v//9P7///j+//8S////AAAAAAEAAAAEAAAAEQAAAEhHUFNvZWlLYWt1cG9wdGFpAAAAAQAAAAwAAAAIAAwABAAIAAgAAAAIAAAAUAAAAA8AAADvvIEAAAAAAAAAAAAAAAAAAAA2ACQAAAAgABwAAAAAABsAFAAAAAAAAAAAAAAAAAAAAAAAAAAAABAAAAAAAAAADAAAAAgABAA2AAAAAgAAABwAAAAcAAAAHAAAAAAAIEEAAAABaAAAAE3PAEOw////tP///wEAAAAUAAAAEAAaAAgABwAMAAAAEAAUABAAAAAAAAABHAAAAAAAoEEcAAAAAgAAAAAACgAIAAUABgAHAAoAAAAADAD//P///wQABAAEAAAACAAIAAYABwAIAAAAAAAMAA==</value>
										</parameter>
										<parameter authoringApp="PremierePro">
											<parameterid>2</parameterid>
											<name>トランスフォーム</name>
											<IsTimeVarying>false</IsTimeVarying>
											<ParameterControlType>11</ParameterControlType>
											<LowerBound>false</LowerBound>
											<UpperBound>false</UpperBound>
											<value>-91445760000000000,false,0,0,0,0,0,0</value>
										</parameter>
										<parameter authoringApp="PremierePro">
											<parameterid>3</parameterid>
											<name>位置</name>
											<IsTimeVarying>false</IsTimeVarying>
											<value>-91445760000000000,0.5:0.5,0,0,0,0,0,0,5,4,0,0,0,0</value>
										</parameter>
										<parameter authoringApp="PremierePro">
											<parameterid>4</parameterid>
											<name>スケール</name>
											<IsTimeVarying>false</IsTimeVarying>
											<ParameterControlType>2</ParameterControlType>
											<LowerBound>0</LowerBound>
											<UpperBound>4000</UpperBound>
											<value>-91445760000000000,100.,0,0,0,0,0,0</value>
										</parameter>
										<parameter authoringApp="PremierePro">
											<parameterid>8</parameterid>
											<name>不透明度</name>
											<IsTimeVarying>false</IsTimeVarying>
											<ParameterControlType>2</ParameterControlType>
											<LowerBound>0</LowerBound>
											<UpperBound>100</UpperBound>
											<value>-91445760000000000,100.,0,0,0,0,0,0</value>
										</parameter>
									</effect>
								</filter>
								<logginginfo>
									<description></description>
									<scene></scene>
									<shottake></shottake>
									<lognote></lognote>
									<good></good>
									<originalvideofilename></originalvideofilename>
									<originalaudiofilename></originalaudiofilename>
								</logginginfo>
								<colorinfo>
									<lut></lut>
									<lut1></lut1>
									<asc_sop></asc_sop>
									<asc_sat></asc_sat>
									<lut2></lut2>
								</colorinfo>
								<labels>
								</labels>
							</clipitem>
							<enabled>TRUE</enabled>
							<locked>FALSE</locked>
						</track>
				<track TL.SQTrackShy="0" TL.SQTrackExpandedHeight="25" TL.SQTrackExpanded="0" MZ.TrackTargeted="0">
							<clipitem frameBlend="FALSE" id="clipitem-telop-7">
								<masterclipid>masterclip-9</masterclipid>
								<name>グラフィック</name>
								<enabled>TRUE</enabled>
								<duration>2582774</duration>
								<rate>
									
							<timebase>59</timebase>
							<ntsc>TRUE</ntsc>
						
								</rate>
								<start>89</start>
								<end>149</end>
								<in>0</in>
								<out>60</out>
								<pproTicksIn>914456774963789</pproTicksIn>
								<pproTicksOut>914677708529577</pproTicksOut>
								<alphatype>straight</alphatype>
								<pixelaspectratio>square</pixelaspectratio>
								<anamorphic>FALSE</anamorphic>
								<file id="file-8">
									<name>グラフィック</name>
									<mediaSource>GraphicAndType</mediaSource>
									<rate>
										<timebase>60</timebase>
										<ntsc>TRUE</ntsc>
									</rate>
									<timecode>
										<rate>
											<timebase>60</timebase>
											<ntsc>TRUE</ntsc>
										</rate>
										<string>00:00:00:00</string>
										<frame>0</frame>
										<displayformat>NDF</displayformat>
									</timecode>
									<media>
										<video>
											<samplecharacteristics>
												<rate>
													<timebase>60</timebase>
													<ntsc>TRUE</ntsc>
												</rate>
												<width>1080</width>
												<height>1920</height>
												<anamorphic>FALSE</anamorphic>
												<pixelaspectratio>square</pixelaspectratio>
												<fielddominance>none</fielddominance>
											</samplecharacteristics>
										</video>
									</media>
								</file>
								<filter>
									<effect>
										<name>！</name>
										<effectid>GraphicAndType</effectid>
										<effectcategory>graphic</effectcategory>
										<effecttype>filter</effecttype>
										<mediatype>video</mediatype>
										<pproBypass>false</pproBypass>
										<parameter authoringApp="PremierePro">
											<parameterid>1</parameterid>
											<name>ソーステキスト</name>
											<hash>025b1101-ead6-0ca2-1feb-caf3000001fc</hash>
											<value>5AEAAAAAAABEMyIRDAAAAAAABgAKAAQABgAAAGQAAAAAAF4ASAAQAAwARABAADwAOAAAAAAAAAAAADQAMwAsAAAAKAAkACAAAAAAAAAAAAAAAAAAHAAAAAAAGgAAAAAAAAAUAAAAAAAAAAAAAAAAAAAAAAAAAAgAAAAAABsABwBeAAAAAAAAAUAAAABQAAAAbAAAAAIAAAAAAAEAAQAAAAAAQEEAAMBAAABAQAAAyEIAAAABIAAAAAIAAAACAAAAAAA2QwCASkTw/v//9P7///j+//8S////AAAAAAEAAAAEAAAAEQAAAEhHUFNvZWlLYWt1cG9wdGFpAAAAAQAAAAwAAAAIAAwABAAIAAgAAAAIAAAAUAAAAA8AAADvvIEAAAAAAAAAAAAAAAAAAAA2ACQAAAAgABwAAAAAABsAFAAAAAAAAAAAAAAAAAAAAAAAAAAAABAAAAAAAAAADAAAAAgABAA2AAAAAgAAABwAAAAcAAAAHAAAAAAAIEEAAAABaAAAAE3PAEOw////tP///wEAAAAUAAAAEAAaAAgABwAMAAAAEAAUABAAAAAAAAABHAAAAAAAoEEcAAAAAgAAAAAACgAIAAUABgAHAAoAAAAADAD//P///wQABAAEAAAACAAIAAYABwAIAAAAAAAMAA==</value>
										</parameter>
										<parameter authoringApp="PremierePro">
											<parameterid>2</parameterid>
											<name>トランスフォーム</name>
											<IsTimeVarying>false</IsTimeVarying>
											<ParameterControlType>11</ParameterControlType>
											<LowerBound>false</LowerBound>
											<UpperBound>false</UpperBound>
											<value>-91445760000000000,false,0,0,0,0,0,0</value>
										</parameter>
										<parameter authoringApp="PremierePro">
											<parameterid>3</parameterid>
											<name>位置</name>
											<IsTimeVarying>false</IsTimeVarying>
											<value>-91445760000000000,0.5:0.5,0,0,0,0,0,0,5,4,0,0,0,0</value>
										</parameter>
										<parameter authoringApp="PremierePro">
											<parameterid>4</parameterid>
											<name>スケール</name>
											<IsTimeVarying>false</IsTimeVarying>
											<ParameterControlType>2</ParameterControlType>
											<LowerBound>0</LowerBound>
											<UpperBound>4000</UpperBound>
											<value>-91445760000000000,100.,0,0,0,0,0,0</value>
										</parameter>
										<parameter authoringApp="PremierePro">
											<parameterid>8</parameterid>
											<name>不透明度</name>
											<IsTimeVarying>false</IsTimeVarying>
											<ParameterControlType>2</ParameterControlType>
											<LowerBound>0</LowerBound>
											<UpperBound>100</UpperBound>
											<value>-91445760000000000,100.,0,0,0,0,0,0</value>
										</parameter>
									</effect>
								</filter>
								<logginginfo>
									<description></description>
									<scene></scene>
									<shottake></shottake>
									<lognote></lognote>
									<good></good>
									<originalvideofilename></originalvideofilename>
									<originalaudiofilename></originalaudiofilename>
								</logginginfo>
								<colorinfo>
									<lut></lut>
									<lut1></lut1>
									<asc_sop></asc_sop>
									<asc_sat></asc_sat>
									<lut2></lut2>
								</colorinfo>
								<labels>
								</labels>
							</clipitem>
							<enabled>TRUE</enabled>
							<locked>FALSE</locked>
						</track>
				<track TL.SQTrackShy="0" TL.SQTrackExpandedHeight="25" TL.SQTrackExpanded="0" MZ.TrackTargeted="0">
							<clipitem frameBlend="FALSE" id="clipitem-telop-8">
								<masterclipid>masterclip-10</masterclipid>
								<name>グラフィック</name>
								<enabled>TRUE</enabled>
								<duration>2582774</duration>
								<rate>
									
							<timebase>59</timebase>
							<ntsc>TRUE</ntsc>
						
								</rate>
								<start>89</start>
								<end>149</end>
								<in>0</in>
								<out>60</out>
								<pproTicksIn>914456774963789</pproTicksIn>
								<pproTicksOut>914677708529577</pproTicksOut>
								<alphatype>straight</alphatype>
								<pixelaspectratio>square</pixelaspectratio>
								<anamorphic>FALSE</anamorphic>
								<file id="file-9">
									<name>グラフィック</name>
									<mediaSource>GraphicAndType</mediaSource>
									<rate>
										<timebase>60</timebase>
										<ntsc>TRUE</ntsc>
									</rate>
									<timecode>
										<rate>
											<timebase>60</timebase>
											<ntsc>TRUE</ntsc>
										</rate>
										<string>00:00:00:00</string>
										<frame>0</frame>
										<displayformat>NDF</displayformat>
									</timecode>
									<media>
										<video>
											<samplecharacteristics>
												<rate>
													<timebase>60</timebase>
													<ntsc>TRUE</ntsc>
												</rate>
												<width>1080</width>
												<height>1920</height>
												<anamorphic>FALSE</anamorphic>
												<pixelaspectratio>square</pixelaspectratio>
												<fielddominance>none</fielddominance>
											</samplecharacteristics>
										</video>
									</media>
								</file>
								<filter>
									<effect>
										<name>！</name>
										<effectid>GraphicAndType</effectid>
										<effectcategory>graphic</effectcategory>
										<effecttype>filter</effecttype>
										<mediatype>video</mediatype>
										<pproBypass>false</pproBypass>
										<parameter authoringApp="PremierePro">
											<parameterid>1</parameterid>
											<name>ソーステキスト</name>
											<hash>025b1101-ead6-0ca2-1feb-caf3000001fc</hash>
											<value>5AEAAAAAAABEMyIRDAAAAAAABgAKAAQABgAAAGQAAAAAAF4ASAAQAAwARABAADwAOAAAAAAAAAAAADQAMwAsAAAAKAAkACAAAAAAAAAAAAAAAAAAHAAAAAAAGgAAAAAAAAAUAAAAAAAAAAAAAAAAAAAAAAAAAAgAAAAAABsABwBeAAAAAAAAAUAAAABQAAAAbAAAAAIAAAAAAAEAAQAAAAAAQEEAAMBAAABAQAAAyEIAAAABIAAAAAIAAAACAAAAAAA2QwCASkTw/v//9P7///j+//8S////AAAAAAEAAAAEAAAAEQAAAEhHUFNvZWlLYWt1cG9wdGFpAAAAAQAAAAwAAAAIAAwABAAIAAgAAAAIAAAAUAAAAA8AAADvvIEAAAAAAAAAAAAAAAAAAAA2ACQAAAAgABwAAAAAABsAFAAAAAAAAAAAAAAAAAAAAAAAAAAAABAAAAAAAAAADAAAAAgABAA2AAAAAgAAABwAAAAcAAAAHAAAAAAAIEEAAAABaAAAAE3PAEOw////tP///wEAAAAUAAAAEAAaAAgABwAMAAAAEAAUABAAAAAAAAABHAAAAAAAoEEcAAAAAgAAAAAACgAIAAUABgAHAAoAAAAADAD//P///wQABAAEAAAACAAIAAYABwAIAAAAAAAMAA==</value>
										</parameter>
										<parameter authoringApp="PremierePro">
											<parameterid>2</parameterid>
											<name>トランスフォーム</name>
											<IsTimeVarying>false</IsTimeVarying>
											<ParameterControlType>11</ParameterControlType>
											<LowerBound>false</LowerBound>
											<UpperBound>false</UpperBound>
											<value>-91445760000000000,false,0,0,0,0,0,0</value>
										</parameter>
										<parameter authoringApp="PremierePro">
											<parameterid>3</parameterid>
											<name>位置</name>
											<IsTimeVarying>false</IsTimeVarying>
											<value>-91445760000000000,0.5:0.5,0,0,0,0,0,0,5,4,0,0,0,0</value>
										</parameter>
										<parameter authoringApp="PremierePro">
											<parameterid>4</parameterid>
											<name>スケール</name>
											<IsTimeVarying>false</IsTimeVarying>
											<ParameterControlType>2</ParameterControlType>
											<LowerBound>0</LowerBound>
											<UpperBound>4000</UpperBound>
											<value>-91445760000000000,100.,0,0,0,0,0,0</value>
										</parameter>
										<parameter authoringApp="PremierePro">
											<parameterid>8</parameterid>
											<name>不透明度</name>
											<IsTimeVarying>false</IsTimeVarying>
											<ParameterControlType>2</ParameterControlType>
											<LowerBound>0</LowerBound>
											<UpperBound>100</UpperBound>
											<value>-91445760000000000,100.,0,0,0,0,0,0</value>
										</parameter>
									</effect>
								</filter>
								<logginginfo>
									<description></description>
									<scene></scene>
									<shottake></shottake>
									<lognote></lognote>
									<good></good>
									<originalvideofilename></originalvideofilename>
									<originalaudiofilename></originalaudiofilename>
								</logginginfo>
								<colorinfo>
									<lut></lut>
									<lut1></lut1>
									<asc_sop></asc_sop>
									<asc_sat></asc_sat>
									<lut2></lut2>
								</colorinfo>
								<labels>
								</labels>
							</clipitem>
							<enabled>TRUE</enabled>
							<locked>FALSE</locked>
						</track>
				<track TL.SQTrackShy="0" TL.SQTrackExpandedHeight="25" TL.SQTrackExpanded="0" MZ.TrackTargeted="0">
							<clipitem frameBlend="FALSE" id="clipitem-telop-9">
								<masterclipid>masterclip-11</masterclipid>
								<name>グラフィック</name>
								<enabled>TRUE</enabled>
								<duration>2582774</duration>
								<rate>
									
							<timebase>59</timebase>
							<ntsc>TRUE</ntsc>
						
								</rate>
								<start>107</start>
								<end>167</end>
								<in>0</in>
								<out>60</out>
								<pproTicksIn>914456774963789</pproTicksIn>
								<pproTicksOut>914677708529577</pproTicksOut>
								<alphatype>straight</alphatype>
								<pixelaspectratio>square</pixelaspectratio>
								<anamorphic>FALSE</anamorphic>
								<file id="file-10">
									<name>グラフィック</name>
									<mediaSource>GraphicAndType</mediaSource>
									<rate>
										<timebase>60</timebase>
										<ntsc>TRUE</ntsc>
									</rate>
									<timecode>
										<rate>
											<timebase>60</timebase>
											<ntsc>TRUE</ntsc>
										</rate>
										<string>00:00:00:00</string>
										<frame>0</frame>
										<displayformat>NDF</displayformat>
									</timecode>
									<media>
										<video>
											<samplecharacteristics>
												<rate>
													<timebase>60</timebase>
													<ntsc>TRUE</ntsc>
												</rate>
												<width>1080</width>
												<height>1920</height>
												<anamorphic>FALSE</anamorphic>
												<pixelaspectratio>square</pixelaspectratio>
												<fielddominance>none</fielddominance>
											</samplecharacteristics>
										</video>
									</media>
								</file>
								<filter>
									<effect>
										<name>！</name>
										<effectid>GraphicAndType</effectid>
										<effectcategory>graphic</effectcategory>
										<effecttype>filter</effecttype>
										<mediatype>video</mediatype>
										<pproBypass>false</pproBypass>
										<parameter authoringApp="PremierePro">
											<parameterid>1</parameterid>
											<name>ソーステキスト</name>
											<hash>025b1101-ead6-0ca2-1feb-caf3000001fc</hash>
											<value>5AEAAAAAAABEMyIRDAAAAAAABgAKAAQABgAAAGQAAAAAAF4ASAAQAAwARABAADwAOAAAAAAAAAAAADQAMwAsAAAAKAAkACAAAAAAAAAAAAAAAAAAHAAAAAAAGgAAAAAAAAAUAAAAAAAAAAAAAAAAAAAAAAAAAAgAAAAAABsABwBeAAAAAAAAAUAAAABQAAAAbAAAAAIAAAAAAAEAAQAAAAAAQEEAAMBAAABAQAAAyEIAAAABIAAAAAIAAAACAAAAAAA2QwCASkTw/v//9P7///j+//8S////AAAAAAEAAAAEAAAAEQAAAEhHUFNvZWlLYWt1cG9wdGFpAAAAAQAAAAwAAAAIAAwABAAIAAgAAAAIAAAAUAAAAA8AAADvvIEAAAAAAAAAAAAAAAAAAAA2ACQAAAAgABwAAAAAABsAFAAAAAAAAAAAAAAAAAAAAAAAAAAAABAAAAAAAAAADAAAAAgABAA2AAAAAgAAABwAAAAcAAAAHAAAAAAAIEEAAAABaAAAAE3PAEOw////tP///wEAAAAUAAAAEAAaAAgABwAMAAAAEAAUABAAAAAAAAABHAAAAAAAoEEcAAAAAgAAAAAACgAIAAUABgAHAAoAAAAADAD//P///wQABAAEAAAACAAIAAYABwAIAAAAAAAMAA==</value>
										</parameter>
										<parameter authoringApp="PremierePro">
											<parameterid>2</parameterid>
											<name>トランスフォーム</name>
											<IsTimeVarying>false</IsTimeVarying>
											<ParameterControlType>11</ParameterControlType>
											<LowerBound>false</LowerBound>
											<UpperBound>false</UpperBound>
											<value>-91445760000000000,false,0,0,0,0,0,0</value>
										</parameter>
										<parameter authoringApp="PremierePro">
											<parameterid>3</parameterid>
											<name>位置</name>
											<IsTimeVarying>false</IsTimeVarying>
											<value>-91445760000000000,0.5:0.5,0,0,0,0,0,0,5,4,0,0,0,0</value>
										</parameter>
										<parameter authoringApp="PremierePro">
											<parameterid>4</parameterid>
											<name>スケール</name>
											<IsTimeVarying>false</IsTimeVarying>
											<ParameterControlType>2</ParameterControlType>
											<LowerBound>0</LowerBound>
											<UpperBound>4000</UpperBound>
											<value>-91445760000000000,100.,0,0,0,0,0,0</value>
										</parameter>
										<parameter authoringApp="PremierePro">
											<parameterid>8</parameterid>
											<name>不透明度</name>
											<IsTimeVarying>false</IsTimeVarying>
											<ParameterControlType>2</ParameterControlType>
											<LowerBound>0</LowerBound>
											<UpperBound>100</UpperBound>
											<value>-91445760000000000,100.,0,0,0,0,0,0</value>
										</parameter>
									</effect>
								</filter>
								<logginginfo>
									<description></description>
									<scene></scene>
									<shottake></shottake>
									<lognote></lognote>
									<good></good>
									<originalvideofilename></originalvideofilename>
									<originalaudiofilename></originalaudiofilename>
								</logginginfo>
								<colorinfo>
									<lut></lut>
									<lut1></lut1>
									<asc_sop></asc_sop>
									<asc_sat></asc_sat>
									<lut2></lut2>
								</colorinfo>
								<labels>
								</labels>
							</clipitem>
							<enabled>TRUE</enabled>
							<locked>FALSE</locked>
						</track>
				<track TL.SQTrackShy="0" TL.SQTrackExpandedHeight="25" TL.SQTrackExpanded="0" MZ.TrackTargeted="0">
							<clipitem frameBlend="FALSE" id="clipitem-telop-51">
								<masterclipid>masterclip-12</masterclipid>
								<name>グラフィック</name>
								<enabled>TRUE</enabled>
								<duration>2582774</duration>
								<rate>
									
							<timebase>59</timebase>
							<ntsc>TRUE</ntsc>
						
								</rate>
								<start>515</start>
								<end>575</end>
								<in>0</in>
								<out>60</out>
								<pproTicksIn>914456774963789</pproTicksIn>
								<pproTicksOut>914677708529577</pproTicksOut>
								<alphatype>straight</alphatype>
								<pixelaspectratio>square</pixelaspectratio>
								<anamorphic>FALSE</anamorphic>
								<file id="file-11">
									<name>グラフィック</name>
									<mediaSource>GraphicAndType</mediaSource>
									<rate>
										<timebase>60</timebase>
										<ntsc>TRUE</ntsc>
									</rate>
									<timecode>
										<rate>
											<timebase>60</timebase>
											<ntsc>TRUE</ntsc>
										</rate>
										<string>00:00:00:00</string>
										<frame>0</frame>
										<displayformat>NDF</displayformat>
									</timecode>
									<media>
										<video>
											<samplecharacteristics>
												<rate>
													<timebase>60</timebase>
													<ntsc>TRUE</ntsc>
												</rate>
												<width>1080</width>
												<height>1920</height>
												<anamorphic>FALSE</anamorphic>
												<pixelaspectratio>square</pixelaspectratio>
												<fielddominance>none</fielddominance>
											</samplecharacteristics>
										</video>
									</media>
								</file>
								<filter>
									<effect>
										<name>！</name>
										<effectid>GraphicAndType</effectid>
										<effectcategory>graphic</effectcategory>
										<effecttype>filter</effecttype>
										<mediatype>video</mediatype>
										<pproBypass>false</pproBypass>
										<parameter authoringApp="PremierePro">
											<parameterid>1</parameterid>
											<name>ソーステキスト</name>
											<hash>025b1101-ead6-0ca2-1feb-caf3000001fc</hash>
											<value>5AEAAAAAAABEMyIRDAAAAAAABgAKAAQABgAAAGQAAAAAAF4ASAAQAAwARABAADwAOAAAAAAAAAAAADQAMwAsAAAAKAAkACAAAAAAAAAAAAAAAAAAHAAAAAAAGgAAAAAAAAAUAAAAAAAAAAAAAAAAAAAAAAAAAAgAAAAAABsABwBeAAAAAAAAAUAAAABQAAAAbAAAAAIAAAAAAAEAAQAAAAAAQEEAAMBAAABAQAAAyEIAAAABIAAAAAIAAAACAAAAAAA2QwCASkTw/v//9P7///j+//8S////AAAAAAEAAAAEAAAAEQAAAEhHUFNvZWlLYWt1cG9wdGFpAAAAAQAAAAwAAAAIAAwABAAIAAgAAAAIAAAAUAAAAA8AAADvvIEAAAAAAAAAAAAAAAAAAAA2ACQAAAAgABwAAAAAABsAFAAAAAAAAAAAAAAAAAAAAAAAAAAAABAAAAAAAAAADAAAAAgABAA2AAAAAgAAABwAAAAcAAAAHAAAAAAAIEEAAAABaAAAAE3PAEOw////tP///wEAAAAUAAAAEAAaAAgABwAMAAAAEAAUABAAAAAAAAABHAAAAAAAoEEcAAAAAgAAAAAACgAIAAUABgAHAAoAAAAADAD//P///wQABAAEAAAACAAIAAYABwAIAAAAAAAMAA==</value>
										</parameter>
										<parameter authoringApp="PremierePro">
											<parameterid>2</parameterid>
											<name>トランスフォーム</name>
											<IsTimeVarying>false</IsTimeVarying>
											<ParameterControlType>11</ParameterControlType>
											<LowerBound>false</LowerBound>
											<UpperBound>false</UpperBound>
											<value>-91445760000000000,false,0,0,0,0,0,0</value>
										</parameter>
										<parameter authoringApp="PremierePro">
											<parameterid>3</parameterid>
											<name>位置</name>
											<IsTimeVarying>false</IsTimeVarying>
											<value>-91445760000000000,0.5:0.5,0,0,0,0,0,0,5,4,0,0,0,0</value>
										</parameter>
										<parameter authoringApp="PremierePro">
											<parameterid>4</parameterid>
											<name>スケール</name>
											<IsTimeVarying>false</IsTimeVarying>
											<ParameterControlType>2</ParameterControlType>
											<LowerBound>0</LowerBound>
											<UpperBound>4000</UpperBound>
											<value>-91445760000000000,100.,0,0,0,0,0,0</value>
										</parameter>
										<parameter authoringApp="PremierePro">
											<parameterid>8</parameterid>
											<name>不透明度</name>
											<IsTimeVarying>false</IsTimeVarying>
											<ParameterControlType>2</ParameterControlType>
											<LowerBound>0</LowerBound>
											<UpperBound>100</UpperBound>
											<value>-91445760000000000,100.,0,0,0,0,0,0</value>
										</parameter>
									</effect>
								</filter>
								<logginginfo>
									<description></description>
									<scene></scene>
									<shottake></shottake>
									<lognote></lognote>
									<good></good>
									<originalvideofilename></originalvideofilename>
									<originalaudiofilename></originalaudiofilename>
								</logginginfo>
								<colorinfo>
									<lut></lut>
									<lut1></lut1>
									<asc_sop></asc_sop>
									<asc_sat></asc_sat>
									<lut2></lut2>
								</colorinfo>
								<labels>
								</labels>
							</clipitem>
							<enabled>TRUE</enabled>
							<locked>FALSE</locked>
						</track>
				<track TL.SQTrackShy="0" TL.SQTrackExpandedHeight="25" TL.SQTrackExpanded="0" MZ.TrackTargeted="0">
							<clipitem frameBlend="FALSE" id="clipitem-telop-95">
								<masterclipid>masterclip-13</masterclipid>
								<name>グラフィック</name>
								<enabled>TRUE</enabled>
								<duration>2582774</duration>
								<rate>
									
							<timebase>59</timebase>
							<ntsc>TRUE</ntsc>
						
								</rate>
								<start>845</start>
								<end>905</end>
								<in>0</in>
								<out>60</out>
								<pproTicksIn>914456774963789</pproTicksIn>
								<pproTicksOut>914677708529577</pproTicksOut>
								<alphatype>straight</alphatype>
								<pixelaspectratio>square</pixelaspectratio>
								<anamorphic>FALSE</anamorphic>
								<file id="file-12">
									<name>グラフィック</name>
									<mediaSource>GraphicAndType</mediaSource>
									<rate>
										<timebase>60</timebase>
										<ntsc>TRUE</ntsc>
									</rate>
									<timecode>
										<rate>
											<timebase>60</timebase>
											<ntsc>TRUE</ntsc>
										</rate>
										<string>00:00:00:00</string>
										<frame>0</frame>
										<displayformat>NDF</displayformat>
									</timecode>
									<media>
										<video>
											<samplecharacteristics>
												<rate>
													<timebase>60</timebase>
													<ntsc>TRUE</ntsc>
												</rate>
												<width>1080</width>
												<height>1920</height>
												<anamorphic>FALSE</anamorphic>
												<pixelaspectratio>square</pixelaspectratio>
												<fielddominance>none</fielddominance>
											</samplecharacteristics>
										</video>
									</media>
								</file>
								<filter>
									<effect>
										<name>！</name>
										<effectid>GraphicAndType</effectid>
										<effectcategory>graphic</effectcategory>
										<effecttype>filter</effecttype>
										<mediatype>video</mediatype>
										<pproBypass>false</pproBypass>
										<parameter authoringApp="PremierePro">
											<parameterid>1</parameterid>
											<name>ソーステキスト</name>
											<hash>025b1101-ead6-0ca2-1feb-caf3000001fc</hash>
											<value>5AEAAAAAAABEMyIRDAAAAAAABgAKAAQABgAAAGQAAAAAAF4ASAAQAAwARABAADwAOAAAAAAAAAAAADQAMwAsAAAAKAAkACAAAAAAAAAAAAAAAAAAHAAAAAAAGgAAAAAAAAAUAAAAAAAAAAAAAAAAAAAAAAAAAAgAAAAAABsABwBeAAAAAAAAAUAAAABQAAAAbAAAAAIAAAAAAAEAAQAAAAAAQEEAAMBAAABAQAAAyEIAAAABIAAAAAIAAAACAAAAAAA2QwCASkTw/v//9P7///j+//8S////AAAAAAEAAAAEAAAAEQAAAEhHUFNvZWlLYWt1cG9wdGFpAAAAAQAAAAwAAAAIAAwABAAIAAgAAAAIAAAAUAAAAA8AAADvvIEAAAAAAAAAAAAAAAAAAAA2ACQAAAAgABwAAAAAABsAFAAAAAAAAAAAAAAAAAAAAAAAAAAAABAAAAAAAAAADAAAAAgABAA2AAAAAgAAABwAAAAcAAAAHAAAAAAAIEEAAAABaAAAAE3PAEOw////tP///wEAAAAUAAAAEAAaAAgABwAMAAAAEAAUABAAAAAAAAABHAAAAAAAoEEcAAAAAgAAAAAACgAIAAUABgAHAAoAAAAADAD//P///wQABAAEAAAACAAIAAYABwAIAAAAAAAMAA==</value>
										</parameter>
										<parameter authoringApp="PremierePro">
											<parameterid>2</parameterid>
											<name>トランスフォーム</name>
											<IsTimeVarying>false</IsTimeVarying>
											<ParameterControlType>11</ParameterControlType>
											<LowerBound>false</LowerBound>
											<UpperBound>false</UpperBound>
											<value>-91445760000000000,false,0,0,0,0,0,0</value>
										</parameter>
										<parameter authoringApp="PremierePro">
											<parameterid>3</parameterid>
											<name>位置</name>
											<IsTimeVarying>false</IsTimeVarying>
											<value>-91445760000000000,0.5:0.5,0,0,0,0,0,0,5,4,0,0,0,0</value>
										</parameter>
										<parameter authoringApp="PremierePro">
											<parameterid>4</parameterid>
											<name>スケール</name>
											<IsTimeVarying>false</IsTimeVarying>
											<ParameterControlType>2</ParameterControlType>
											<LowerBound>0</LowerBound>
											<UpperBound>4000</UpperBound>
											<value>-91445760000000000,100.,0,0,0,0,0,0</value>
										</parameter>
										<parameter authoringApp="PremierePro">
											<parameterid>8</parameterid>
											<name>不透明度</name>
											<IsTimeVarying>false</IsTimeVarying>
											<ParameterControlType>2</ParameterControlType>
											<LowerBound>0</LowerBound>
											<UpperBound>100</UpperBound>
											<value>-91445760000000000,100.,0,0,0,0,0,0</value>
										</parameter>
									</effect>
								</filter>
								<logginginfo>
									<description></description>
									<scene></scene>
									<shottake></shottake>
									<lognote></lognote>
									<good></good>
									<originalvideofilename></originalvideofilename>
									<originalaudiofilename></originalaudiofilename>
								</logginginfo>
								<colorinfo>
									<lut></lut>
									<lut1></lut1>
									<asc_sop></asc_sop>
									<asc_sat></asc_sat>
									<lut2></lut2>
								</colorinfo>
								<labels>
								</labels>
							</clipitem>
							<enabled>TRUE</enabled>
							<locked>FALSE</locked>
						</track>
				<track TL.SQTrackShy="0" TL.SQTrackExpandedHeight="25" TL.SQTrackExpanded="0" MZ.TrackTargeted="0">
							<clipitem frameBlend="FALSE" id="clipitem-telop-96">
								<masterclipid>masterclip-14</masterclipid>
								<name>グラフィック</name>
								<enabled>TRUE</enabled>
								<duration>2582774</duration>
								<rate>
									
							<timebase>59</timebase>
							<ntsc>TRUE</ntsc>
						
								</rate>
								<start>845</start>
								<end>911</end>
								<in>0</in>
								<out>66</out>
								<pproTicksIn>914456774963789</pproTicksIn>
								<pproTicksOut>914677708529577</pproTicksOut>
								<alphatype>straight</alphatype>
								<pixelaspectratio>square</pixelaspectratio>
								<anamorphic>FALSE</anamorphic>
								<file id="file-13">
									<name>グラフィック</name>
									<mediaSource>GraphicAndType</mediaSource>
									<rate>
										<timebase>60</timebase>
										<ntsc>TRUE</ntsc>
									</rate>
									<timecode>
										<rate>
											<timebase>60</timebase>
											<ntsc>TRUE</ntsc>
										</rate>
										<string>00:00:00:00</string>
										<frame>0</frame>
										<displayformat>NDF</displayformat>
									</timecode>
									<media>
										<video>
											<samplecharacteristics>
												<rate>
													<timebase>60</timebase>
													<ntsc>TRUE</ntsc>
												</rate>
												<width>1080</width>
												<height>1920</height>
												<anamorphic>FALSE</anamorphic>
												<pixelaspectratio>square</pixelaspectratio>
												<fielddominance>none</fielddominance>
											</samplecharacteristics>
										</video>
									</media>
								</file>
								<filter>
									<effect>
										<name>！</name>
										<effectid>GraphicAndType</effectid>
										<effectcategory>graphic</effectcategory>
										<effecttype>filter</effecttype>
										<mediatype>video</mediatype>
										<pproBypass>false</pproBypass>
										<parameter authoringApp="PremierePro">
											<parameterid>1</parameterid>
											<name>ソーステキスト</name>
											<hash>025b1101-ead6-0ca2-1feb-caf3000001fc</hash>
											<value>5AEAAAAAAABEMyIRDAAAAAAABgAKAAQABgAAAGQAAAAAAF4ASAAQAAwARABAADwAOAAAAAAAAAAAADQAMwAsAAAAKAAkACAAAAAAAAAAAAAAAAAAHAAAAAAAGgAAAAAAAAAUAAAAAAAAAAAAAAAAAAAAAAAAAAgAAAAAABsABwBeAAAAAAAAAUAAAABQAAAAbAAAAAIAAAAAAAEAAQAAAAAAQEEAAMBAAABAQAAAyEIAAAABIAAAAAIAAAACAAAAAAA2QwCASkTw/v//9P7///j+//8S////AAAAAAEAAAAEAAAAEQAAAEhHUFNvZWlLYWt1cG9wdGFpAAAAAQAAAAwAAAAIAAwABAAIAAgAAAAIAAAAUAAAAA8AAADvvIEAAAAAAAAAAAAAAAAAAAA2ACQAAAAgABwAAAAAABsAFAAAAAAAAAAAAAAAAAAAAAAAAAAAABAAAAAAAAAADAAAAAgABAA2AAAAAgAAABwAAAAcAAAAHAAAAAAAIEEAAAABaAAAAE3PAEOw////tP///wEAAAAUAAAAEAAaAAgABwAMAAAAEAAUABAAAAAAAAABHAAAAAAAoEEcAAAAAgAAAAAACgAIAAUABgAHAAoAAAAADAD//P///wQABAAEAAAACAAIAAYABwAIAAAAAAAMAA==</value>
										</parameter>
										<parameter authoringApp="PremierePro">
											<parameterid>2</parameterid>
											<name>トランスフォーム</name>
											<IsTimeVarying>false</IsTimeVarying>
											<ParameterControlType>11</ParameterControlType>
											<LowerBound>false</LowerBound>
											<UpperBound>false</UpperBound>
											<value>-91445760000000000,false,0,0,0,0,0,0</value>
										</parameter>
										<parameter authoringApp="PremierePro">
											<parameterid>3</parameterid>
											<name>位置</name>
											<IsTimeVarying>false</IsTimeVarying>
											<value>-91445760000000000,0.5:0.5,0,0,0,0,0,0,5,4,0,0,0,0</value>
										</parameter>
										<parameter authoringApp="PremierePro">
											<parameterid>4</parameterid>
											<name>スケール</name>
											<IsTimeVarying>false</IsTimeVarying>
											<ParameterControlType>2</ParameterControlType>
											<LowerBound>0</LowerBound>
											<UpperBound>4000</UpperBound>
											<value>-91445760000000000,100.,0,0,0,0,0,0</value>
										</parameter>
										<parameter authoringApp="PremierePro">
											<parameterid>8</parameterid>
											<name>不透明度</name>
											<IsTimeVarying>false</IsTimeVarying>
											<ParameterControlType>2</ParameterControlType>
											<LowerBound>0</LowerBound>
											<UpperBound>100</UpperBound>
											<value>-91445760000000000,100.,0,0,0,0,0,0</value>
										</parameter>
									</effect>
								</filter>
								<logginginfo>
									<description></description>
									<scene></scene>
									<shottake></shottake>
									<lognote></lognote>
									<good></good>
									<originalvideofilename></originalvideofilename>
									<originalaudiofilename></originalaudiofilename>
								</logginginfo>
								<colorinfo>
									<lut></lut>
									<lut1></lut1>
									<asc_sop></asc_sop>
									<asc_sat></asc_sat>
									<lut2></lut2>
								</colorinfo>
								<labels>
								</labels>
							</clipitem>
							<enabled>TRUE</enabled>
							<locked>FALSE</locked>
						</track>
				<track TL.SQTrackShy="0" TL.SQTrackExpandedHeight="25" TL.SQTrackExpanded="0" MZ.TrackTargeted="0">
							<clipitem frameBlend="FALSE" id="clipitem-telop-120">
								<masterclipid>masterclip-15</masterclipid>
								<name>グラフィック</name>
								<enabled>TRUE</enabled>
								<duration>2582774</duration>
								<rate>
									
							<timebase>59</timebase>
							<ntsc>TRUE</ntsc>
						
								</rate>
								<start>983</start>
								<end>1049</end>
								<in>0</in>
								<out>66</out>
								<pproTicksIn>914456774963789</pproTicksIn>
								<pproTicksOut>914677708529577</pproTicksOut>
								<alphatype>straight</alphatype>
								<pixelaspectratio>square</pixelaspectratio>
								<anamorphic>FALSE</anamorphic>
								<file id="file-14">
									<name>グラフィック</name>
									<mediaSource>GraphicAndType</mediaSource>
									<rate>
										<timebase>60</timebase>
										<ntsc>TRUE</ntsc>
									</rate>
									<timecode>
										<rate>
											<timebase>60</timebase>
											<ntsc>TRUE</ntsc>
										</rate>
										<string>00:00:00:00</string>
										<frame>0</frame>
										<displayformat>NDF</displayformat>
									</timecode>
									<media>
										<video>
											<samplecharacteristics>
												<rate>
													<timebase>60</timebase>
													<ntsc>TRUE</ntsc>
												</rate>
												<width>1080</width>
												<height>1920</height>
												<anamorphic>FALSE</anamorphic>
												<pixelaspectratio>square</pixelaspectratio>
												<fielddominance>none</fielddominance>
											</samplecharacteristics>
										</video>
									</media>
								</file>
								<filter>
									<effect>
										<name>！</name>
										<effectid>GraphicAndType</effectid>
										<effectcategory>graphic</effectcategory>
										<effecttype>filter</effecttype>
										<mediatype>video</mediatype>
										<pproBypass>false</pproBypass>
										<parameter authoringApp="PremierePro">
											<parameterid>1</parameterid>
											<name>ソーステキスト</name>
											<hash>025b1101-ead6-0ca2-1feb-caf3000001fc</hash>
											<value>5AEAAAAAAABEMyIRDAAAAAAABgAKAAQABgAAAGQAAAAAAF4ASAAQAAwARABAADwAOAAAAAAAAAAAADQAMwAsAAAAKAAkACAAAAAAAAAAAAAAAAAAHAAAAAAAGgAAAAAAAAAUAAAAAAAAAAAAAAAAAAAAAAAAAAgAAAAAABsABwBeAAAAAAAAAUAAAABQAAAAbAAAAAIAAAAAAAEAAQAAAAAAQEEAAMBAAABAQAAAyEIAAAABIAAAAAIAAAACAAAAAAA2QwCASkTw/v//9P7///j+//8S////AAAAAAEAAAAEAAAAEQAAAEhHUFNvZWlLYWt1cG9wdGFpAAAAAQAAAAwAAAAIAAwABAAIAAgAAAAIAAAAUAAAAA8AAADvvIEAAAAAAAAAAAAAAAAAAAA2ACQAAAAgABwAAAAAABsAFAAAAAAAAAAAAAAAAAAAAAAAAAAAABAAAAAAAAAADAAAAAgABAA2AAAAAgAAABwAAAAcAAAAHAAAAAAAIEEAAAABaAAAAE3PAEOw////tP///wEAAAAUAAAAEAAaAAgABwAMAAAAEAAUABAAAAAAAAABHAAAAAAAoEEcAAAAAgAAAAAACgAIAAUABgAHAAoAAAAADAD//P///wQABAAEAAAACAAIAAYABwAIAAAAAAAMAA==</value>
										</parameter>
										<parameter authoringApp="PremierePro">
											<parameterid>2</parameterid>
											<name>トランスフォーム</name>
											<IsTimeVarying>false</IsTimeVarying>
											<ParameterControlType>11</ParameterControlType>
											<LowerBound>false</LowerBound>
											<UpperBound>false</UpperBound>
											<value>-91445760000000000,false,0,0,0,0,0,0</value>
										</parameter>
										<parameter authoringApp="PremierePro">
											<parameterid>3</parameterid>
											<name>位置</name>
											<IsTimeVarying>false</IsTimeVarying>
											<value>-91445760000000000,0.5:0.5,0,0,0,0,0,0,5,4,0,0,0,0</value>
										</parameter>
										<parameter authoringApp="PremierePro">
											<parameterid>4</parameterid>
											<name>スケール</name>
											<IsTimeVarying>false</IsTimeVarying>
											<ParameterControlType>2</ParameterControlType>
											<LowerBound>0</LowerBound>
											<UpperBound>4000</UpperBound>
											<value>-91445760000000000,100.,0,0,0,0,0,0</value>
										</parameter>
										<parameter authoringApp="PremierePro">
											<parameterid>8</parameterid>
											<name>不透明度</name>
											<IsTimeVarying>false</IsTimeVarying>
											<ParameterControlType>2</ParameterControlType>
											<LowerBound>0</LowerBound>
											<UpperBound>100</UpperBound>
											<value>-91445760000000000,100.,0,0,0,0,0,0</value>
										</parameter>
									</effect>
								</filter>
								<logginginfo>
									<description></description>
									<scene></scene>
									<shottake></shottake>
									<lognote></lognote>
									<good></good>
									<originalvideofilename></originalvideofilename>
									<originalaudiofilename></originalaudiofilename>
								</logginginfo>
								<colorinfo>
									<lut></lut>
									<lut1></lut1>
									<asc_sop></asc_sop>
									<asc_sat></asc_sat>
									<lut2></lut2>
								</colorinfo>
								<labels>
								</labels>
							</clipitem>
							<enabled>TRUE</enabled>
							<locked>FALSE</locked>
						</track>
				<track TL.SQTrackShy="0" TL.SQTrackExpandedHeight="25" TL.SQTrackExpanded="0" MZ.TrackTargeted="0">
							<clipitem frameBlend="FALSE" id="clipitem-telop-121">
								<masterclipid>masterclip-16</masterclipid>
								<name>グラフィック</name>
								<enabled>TRUE</enabled>
								<duration>2582774</duration>
								<rate>
									
							<timebase>59</timebase>
							<ntsc>TRUE</ntsc>
						
								</rate>
								<start>989</start>
								<end>1049</end>
								<in>0</in>
								<out>60</out>
								<pproTicksIn>914456774963789</pproTicksIn>
								<pproTicksOut>914677708529577</pproTicksOut>
								<alphatype>straight</alphatype>
								<pixelaspectratio>square</pixelaspectratio>
								<anamorphic>FALSE</anamorphic>
								<file id="file-15">
									<name>グラフィック</name>
									<mediaSource>GraphicAndType</mediaSource>
									<rate>
										<timebase>60</timebase>
										<ntsc>TRUE</ntsc>
									</rate>
									<timecode>
										<rate>
											<timebase>60</timebase>
											<ntsc>TRUE</ntsc>
										</rate>
										<string>00:00:00:00</string>
										<frame>0</frame>
										<displayformat>NDF</displayformat>
									</timecode>
									<media>
										<video>
											<samplecharacteristics>
												<rate>
													<timebase>60</timebase>
													<ntsc>TRUE</ntsc>
												</rate>
												<width>1080</width>
												<height>1920</height>
												<anamorphic>FALSE</anamorphic>
												<pixelaspectratio>square</pixelaspectratio>
												<fielddominance>none</fielddominance>
											</samplecharacteristics>
										</video>
									</media>
								</file>
								<filter>
									<effect>
										<name>！</name>
										<effectid>GraphicAndType</effectid>
										<effectcategory>graphic</effectcategory>
										<effecttype>filter</effecttype>
										<mediatype>video</mediatype>
										<pproBypass>false</pproBypass>
										<parameter authoringApp="PremierePro">
											<parameterid>1</parameterid>
											<name>ソーステキスト</name>
											<hash>025b1101-ead6-0ca2-1feb-caf3000001fc</hash>
											<value>5AEAAAAAAABEMyIRDAAAAAAABgAKAAQABgAAAGQAAAAAAF4ASAAQAAwARABAADwAOAAAAAAAAAAAADQAMwAsAAAAKAAkACAAAAAAAAAAAAAAAAAAHAAAAAAAGgAAAAAAAAAUAAAAAAAAAAAAAAAAAAAAAAAAAAgAAAAAABsABwBeAAAAAAAAAUAAAABQAAAAbAAAAAIAAAAAAAEAAQAAAAAAQEEAAMBAAABAQAAAyEIAAAABIAAAAAIAAAACAAAAAAA2QwCASkTw/v//9P7///j+//8S////AAAAAAEAAAAEAAAAEQAAAEhHUFNvZWlLYWt1cG9wdGFpAAAAAQAAAAwAAAAIAAwABAAIAAgAAAAIAAAAUAAAAA8AAADvvIEAAAAAAAAAAAAAAAAAAAA2ACQAAAAgABwAAAAAABsAFAAAAAAAAAAAAAAAAAAAAAAAAAAAABAAAAAAAAAADAAAAAgABAA2AAAAAgAAABwAAAAcAAAAHAAAAAAAIEEAAAABaAAAAE3PAEOw////tP///wEAAAAUAAAAEAAaAAgABwAMAAAAEAAUABAAAAAAAAABHAAAAAAAoEEcAAAAAgAAAAAACgAIAAUABgAHAAoAAAAADAD//P///wQABAAEAAAACAAIAAYABwAIAAAAAAAMAA==</value>
										</parameter>
										<parameter authoringApp="PremierePro">
											<parameterid>2</parameterid>
											<name>トランスフォーム</name>
											<IsTimeVarying>false</IsTimeVarying>
											<ParameterControlType>11</ParameterControlType>
											<LowerBound>false</LowerBound>
											<UpperBound>false</UpperBound>
											<value>-91445760000000000,false,0,0,0,0,0,0</value>
										</parameter>
										<parameter authoringApp="PremierePro">
											<parameterid>3</parameterid>
											<name>位置</name>
											<IsTimeVarying>false</IsTimeVarying>
											<value>-91445760000000000,0.5:0.5,0,0,0,0,0,0,5,4,0,0,0,0</value>
										</parameter>
										<parameter authoringApp="PremierePro">
											<parameterid>4</parameterid>
											<name>スケール</name>
											<IsTimeVarying>false</IsTimeVarying>
											<ParameterControlType>2</ParameterControlType>
											<LowerBound>0</LowerBound>
											<UpperBound>4000</UpperBound>
											<value>-91445760000000000,100.,0,0,0,0,0,0</value>
										</parameter>
										<parameter authoringApp="PremierePro">
											<parameterid>8</parameterid>
											<name>不透明度</name>
											<IsTimeVarying>false</IsTimeVarying>
											<ParameterControlType>2</ParameterControlType>
											<LowerBound>0</LowerBound>
											<UpperBound>100</UpperBound>
											<value>-91445760000000000,100.,0,0,0,0,0,0</value>
										</parameter>
									</effect>
								</filter>
								<logginginfo>
									<description></description>
									<scene></scene>
									<shottake></shottake>
									<lognote></lognote>
									<good></good>
									<originalvideofilename></originalvideofilename>
									<originalaudiofilename></originalaudiofilename>
								</logginginfo>
								<colorinfo>
									<lut></lut>
									<lut1></lut1>
									<asc_sop></asc_sop>
									<asc_sat></asc_sat>
									<lut2></lut2>
								</colorinfo>
								<labels>
								</labels>
							</clipitem>
							<enabled>TRUE</enabled>
							<locked>FALSE</locked>
						</track>
				<track TL.SQTrackShy="0" TL.SQTrackExpandedHeight="25" TL.SQTrackExpanded="0" MZ.TrackTargeted="0">
							<clipitem frameBlend="FALSE" id="clipitem-telop-122">
								<masterclipid>masterclip-17</masterclipid>
								<name>グラフィック</name>
								<enabled>TRUE</enabled>
								<duration>2582774</duration>
								<rate>
									
							<timebase>59</timebase>
							<ntsc>TRUE</ntsc>
						
								</rate>
								<start>989</start>
								<end>1055</end>
								<in>0</in>
								<out>66</out>
								<pproTicksIn>914456774963789</pproTicksIn>
								<pproTicksOut>914677708529577</pproTicksOut>
								<alphatype>straight</alphatype>
								<pixelaspectratio>square</pixelaspectratio>
								<anamorphic>FALSE</anamorphic>
								<file id="file-16">
									<name>グラフィック</name>
									<mediaSource>GraphicAndType</mediaSource>
									<rate>
										<timebase>60</timebase>
										<ntsc>TRUE</ntsc>
									</rate>
									<timecode>
										<rate>
											<timebase>60</timebase>
											<ntsc>TRUE</ntsc>
										</rate>
										<string>00:00:00:00</string>
										<frame>0</frame>
										<displayformat>NDF</displayformat>
									</timecode>
									<media>
										<video>
											<samplecharacteristics>
												<rate>
													<timebase>60</timebase>
													<ntsc>TRUE</ntsc>
												</rate>
												<width>1080</width>
												<height>1920</height>
												<anamorphic>FALSE</anamorphic>
												<pixelaspectratio>square</pixelaspectratio>
												<fielddominance>none</fielddominance>
											</samplecharacteristics>
										</video>
									</media>
								</file>
								<filter>
									<effect>
										<name>！</name>
										<effectid>GraphicAndType</effectid>
										<effectcategory>graphic</effectcategory>
										<effecttype>filter</effecttype>
										<mediatype>video</mediatype>
										<pproBypass>false</pproBypass>
										<parameter authoringApp="PremierePro">
											<parameterid>1</parameterid>
											<name>ソーステキスト</name>
											<hash>025b1101-ead6-0ca2-1feb-caf3000001fc</hash>
											<value>5AEAAAAAAABEMyIRDAAAAAAABgAKAAQABgAAAGQAAAAAAF4ASAAQAAwARABAADwAOAAAAAAAAAAAADQAMwAsAAAAKAAkACAAAAAAAAAAAAAAAAAAHAAAAAAAGgAAAAAAAAAUAAAAAAAAAAAAAAAAAAAAAAAAAAgAAAAAABsABwBeAAAAAAAAAUAAAABQAAAAbAAAAAIAAAAAAAEAAQAAAAAAQEEAAMBAAABAQAAAyEIAAAABIAAAAAIAAAACAAAAAAA2QwCASkTw/v//9P7///j+//8S////AAAAAAEAAAAEAAAAEQAAAEhHUFNvZWlLYWt1cG9wdGFpAAAAAQAAAAwAAAAIAAwABAAIAAgAAAAIAAAAUAAAAA8AAADvvIEAAAAAAAAAAAAAAAAAAAA2ACQAAAAgABwAAAAAABsAFAAAAAAAAAAAAAAAAAAAAAAAAAAAABAAAAAAAAAADAAAAAgABAA2AAAAAgAAABwAAAAcAAAAHAAAAAAAIEEAAAABaAAAAE3PAEOw////tP///wEAAAAUAAAAEAAaAAgABwAMAAAAEAAUABAAAAAAAAABHAAAAAAAoEEcAAAAAgAAAAAACgAIAAUABgAHAAoAAAAADAD//P///wQABAAEAAAACAAIAAYABwAIAAAAAAAMAA==</value>
										</parameter>
										<parameter authoringApp="PremierePro">
											<parameterid>2</parameterid>
											<name>トランスフォーム</name>
											<IsTimeVarying>false</IsTimeVarying>
											<ParameterControlType>11</ParameterControlType>
											<LowerBound>false</LowerBound>
											<UpperBound>false</UpperBound>
											<value>-91445760000000000,false,0,0,0,0,0,0</value>
										</parameter>
										<parameter authoringApp="PremierePro">
											<parameterid>3</parameterid>
											<name>位置</name>
											<IsTimeVarying>false</IsTimeVarying>
											<value>-91445760000000000,0.5:0.5,0,0,0,0,0,0,5,4,0,0,0,0</value>
										</parameter>
										<parameter authoringApp="PremierePro">
											<parameterid>4</parameterid>
											<name>スケール</name>
											<IsTimeVarying>false</IsTimeVarying>
											<ParameterControlType>2</ParameterControlType>
											<LowerBound>0</LowerBound>
											<UpperBound>4000</UpperBound>
											<value>-91445760000000000,100.,0,0,0,0,0,0</value>
										</parameter>
										<parameter authoringApp="PremierePro">
											<parameterid>8</parameterid>
											<name>不透明度</name>
											<IsTimeVarying>false</IsTimeVarying>
											<ParameterControlType>2</ParameterControlType>
											<LowerBound>0</LowerBound>
											<UpperBound>100</UpperBound>
											<value>-91445760000000000,100.,0,0,0,0,0,0</value>
										</parameter>
									</effect>
								</filter>
								<logginginfo>
									<description></description>
									<scene></scene>
									<shottake></shottake>
									<lognote></lognote>
									<good></good>
									<originalvideofilename></originalvideofilename>
									<originalaudiofilename></originalaudiofilename>
								</logginginfo>
								<colorinfo>
									<lut></lut>
									<lut1></lut1>
									<asc_sop></asc_sop>
									<asc_sat></asc_sat>
									<lut2></lut2>
								</colorinfo>
								<labels>
								</labels>
							</clipitem>
							<enabled>TRUE</enabled>
							<locked>FALSE</locked>
						</track>
			</video>
			<audio>
				<track>
					<clipitem frameBlend="FALSE" id="audioclip-1">
						<file id="file-1"/>
						<name>bandicam 2025-06-02 00-01-10-144 - Audio</name>
						<rate>
							<timebase>59</timebase>
							<ntsc>TRUE</ntsc>
						</rate>
						<rate>
							<timebase>59</timebase>
							<ntsc>TRUE</ntsc>
						</rate>
						<duration>809</duration>
						<start>0</start>
						<end>809</end>
						<in>0</in>
						<out>809</out>
					</clipitem>
					<clipitem frameBlend="FALSE" id="audioclip-2">
						<file id="file-1"/>
						<name>bandicam 2025-06-02 00-01-10-144 - Audio</name>
						<rate>
							<timebase>59</timebase>
							<ntsc>TRUE</ntsc>
						</rate>
						<rate>
							<timebase>59</timebase>
							<ntsc>TRUE</ntsc>
						</rate>
						<duration>18</duration>
						<start>809</start>
						<end>827</end>
						<in>905</in>
						<out>923</out>
					</clipitem>
					<clipitem frameBlend="FALSE" id="audioclip-3">
						<file id="file-1"/>
						<name>bandicam 2025-06-02 00-01-10-144 - Audio</name>
						<rate>
							<timebase>59</timebase>
							<ntsc>TRUE</ntsc>
						</rate>
						<rate>
							<timebase>59</timebase>
							<ntsc>TRUE</ntsc>
						</rate>
						<duration>6083</duration>
						<start>827</start>
						<end>6910</end>
						<in>983</in>
						<out>7066</out>
					</clipitem>
				</track>
			</audio>
		</media>
	</sequence>
</xmeml>