<?xml version="1.0" encoding="UTF-8"?>
<!DOCTYPE xmeml>
<xmeml version="4">
	<sequence id="sequence-1">
		<name>bandicam 2025-06-02 00-01-10-144</name>
		<duration>7071</duration>
		<rate>
			<timebase>59</timebase>
			<ntsc>TRUE</ntsc>
		</rate>
		<media>
			<video>
				<format/>
				<track>
					<clipitem frameBlend="FALSE" id="clipitem-1">
						<file id="file-1">
							<pathurl>file://localhost/D:/%E5%88%87%E3%82%8A%E6%8A%9C%E3%81%8D/2025-6/2025-6-02/bandicam%202025-06-02%2000-01-10-144.mp4</pathurl>
							<name>bandicam 2025-06-02 00-01-10-144.mp4</name>
							<rate>
								<timebase>59</timebase>
								<ntsc>TRUE</ntsc>
							</rate>
							<duration>7071</duration>
							<timecode>
								<rate>
									<timebase>59</timebase>
									<ntsc>TRUE</ntsc>
								</rate>
								<string>00:00:00:00</string>
								<frame>0</frame>
								<displayformat>NDF</displayformat>
							</timecode>
							<media>
								<video/>
								<audio/>
							</media>
						</file>
						<name>bandicam 2025-06-02 00-01-10-144</name>
						<rate>
							<timebase>59</timebase>
							<ntsc>TRUE</ntsc>
						</rate>
						<rate>
							<timebase>59</timebase>
							<ntsc>TRUE</ntsc>
						</rate>
						<duration>809</duration>
						<start>0</start>
						<end>809</end>
						<in>0</in>
						<out>809</out>
					</clipitem>
					<clipitem frameBlend="FALSE" id="clipitem-2">
						<file id="file-1"/>
						<name>bandicam 2025-06-02 00-01-10-144</name>
						<rate>
							<timebase>59</timebase>
							<ntsc>TRUE</ntsc>
						</rate>
						<rate>
							<timebase>59</timebase>
							<ntsc>TRUE</ntsc>
						</rate>
						<duration>18</duration>
						<start>809</start>
						<end>827</end>
						<in>905</in>
						<out>923</out>
					</clipitem>
					<clipitem frameBlend="FALSE" id="clipitem-3">
						<file id="file-1"/>
						<name>bandicam 2025-06-02 00-01-10-144</name>
						<rate>
							<timebase>59</timebase>
							<ntsc>TRUE</ntsc>
						</rate>
						<rate>
							<timebase>59</timebase>
							<ntsc>TRUE</ntsc>
						</rate>
						<duration>6083</duration>
						<start>827</start>
						<end>6910</end>
						<in>983</in>
						<out>7066</out>
					</clipitem>
				</track>
				<track>
					<clipitem frameBlend="FALSE" id="clipitem-telop-1">
						<file id="file-2">
							<name>グラフィック</name>
							<mediaSource>GraphicAndType</mediaSource>
							<rate>
								<timebase>59</timebase>
								<ntsc>TRUE</ntsc>
							</rate>
							<timecode>
								<rate>
									<timebase>59</timebase>
									<ntsc>TRUE</ntsc>
								</rate>
								<string>00:00:00:00</string>
								<frame>0</frame>
								<displayformat>NDF</displayformat>
							</timecode>
							<media>
								<video>
									<samplecharacteristics>
										<rate>
											<timebase>58</timebase>
											<ntsc>TRUE</ntsc>
										</rate>
										<width>1080</width>
										<height>1920</height>
										<anamorphic>FALSE</anamorphic>
										<pixelaspectratio>square</pixelaspectratio>
										<fielddominance>none</fielddominance>
									</samplecharacteristics>
								</video>
							</media>
						</file>
						<name>なんか 先来たばっかで 飲食店やろうかなって思ったんですけど</name>
						<rate>
							<timebase>59</timebase>
							<ntsc>TRUE</ntsc>
						</rate>
						<rate>
							<timebase>59</timebase>
							<ntsc>TRUE</ntsc>
						</rate>
						<duration>359</duration>
						<start>0</start>
						<end>359</end>
						<in>0</in>
						<out>359</out>
					</clipitem>
					<clipitem frameBlend="FALSE" id="clipitem-telop-34">
						<file id="file-2"/>
						<name>あれ もし そう</name>
						<rate>
							<timebase>59</timebase>
							<ntsc>TRUE</ntsc>
						</rate>
						<rate>
							<timebase>59</timebase>
							<ntsc>TRUE</ntsc>
						</rate>
						<duration>180</duration>
						<start>359</start>
						<end>539</end>
						<in>0</in>
						<out>180</out>
					</clipitem>
					<clipitem frameBlend="FALSE" id="clipitem-telop-54">
						<file id="file-2"/>
						<name>そう そう</name>
						<rate>
							<timebase>59</timebase>
							<ntsc>TRUE</ntsc>
						</rate>
						<rate>
							<timebase>59</timebase>
							<ntsc>TRUE</ntsc>
						</rate>
						<duration>120</duration>
						<start>539</start>
						<end>659</end>
						<in>0</in>
						<out>120</out>
					</clipitem>
					<clipitem frameBlend="FALSE" id="clipitem-telop-71">
						<file id="file-2"/>
						<name>先に飲食店やってる人たちの 感触聞こうかなと思って</name>
						<rate>
							<timebase>59</timebase>
							<ntsc>TRUE</ntsc>
						</rate>
						<rate>
							<timebase>59</timebase>
							<ntsc>TRUE</ntsc>
						</rate>
						<duration>240</duration>
						<start>659</start>
						<end>899</end>
						<in>0</in>
						<out>240</out>
					</clipitem>
					<clipitem frameBlend="FALSE" id="clipitem-telop-104">
						<file id="file-2"/>
						<name>さっき ペイントさんの ここの人をお勧めって言ってたから</name>
						<rate>
							<timebase>59</timebase>
							<ntsc>TRUE</ntsc>
						</rate>
						<rate>
							<timebase>59</timebase>
							<ntsc>TRUE</ntsc>
						</rate>
						<duration>360</duration>
						<start>899</start>
						<end>1259</end>
						<in>0</in>
						<out>360</out>
					</clipitem>
					<clipitem frameBlend="FALSE" id="clipitem-telop-150">
						<file id="file-2"/>
						<name>まあ でも 楽しいことが 始まる その予感はしてるよ</name>
						<rate>
							<timebase>59</timebase>
							<ntsc>TRUE</ntsc>
						</rate>
						<rate>
							<timebase>59</timebase>
							<ntsc>TRUE</ntsc>
						</rate>
						<duration>180</duration>
						<start>1259</start>
						<end>1439</end>
						<in>0</in>
						<out>180</out>
					</clipitem>
					<clipitem frameBlend="FALSE" id="clipitem-telop-172">
						<file id="file-2"/>
						<name>じゃあ 逆に1人目</name>
						<rate>
							<timebase>59</timebase>
							<ntsc>TRUE</ntsc>
						</rate>
						<rate>
							<timebase>59</timebase>
							<ntsc>TRUE</ntsc>
						</rate>
						<duration>240</duration>
						<start>1439</start>
						<end>1679</end>
						<in>0</in>
						<out>240</out>
					</clipitem>
					<clipitem frameBlend="FALSE" id="clipitem-telop-198">
						<file id="file-2"/>
						<name>1人目 真の客は1人目かも</name>
						<rate>
							<timebase>59</timebase>
							<ntsc>TRUE</ntsc>
						</rate>
						<rate>
							<timebase>59</timebase>
							<ntsc>TRUE</ntsc>
						</rate>
						<duration>300</duration>
						<start>1679</start>
						<end>1979</end>
						<in>0</in>
						<out>300</out>
					</clipitem>
					<clipitem frameBlend="FALSE" id="clipitem-telop-236">
						<file id="file-2"/>
						<name>どうかなぁ でも これ</name>
						<rate>
							<timebase>59</timebase>
							<ntsc>TRUE</ntsc>
						</rate>
						<rate>
							<timebase>59</timebase>
							<ntsc>TRUE</ntsc>
						</rate>
						<duration>120</duration>
						<start>1979</start>
						<end>2099</end>
						<in>0</in>
						<out>120</out>
					</clipitem>
					<clipitem frameBlend="FALSE" id="clipitem-telop-243">
						<file id="file-2"/>
						<name>自然か オススメねつくださーい</name>
						<rate>
							<timebase>59</timebase>
							<ntsc>TRUE</ntsc>
						</rate>
						<rate>
							<timebase>59</timebase>
							<ntsc>TRUE</ntsc>
						</rate>
						<duration>300</duration>
						<start>2099</start>
						<end>2399</end>
						<in>0</in>
						<out>300</out>
					</clipitem>
					<clipitem frameBlend="FALSE" id="clipitem-telop-261">
						<file id="file-2"/>
						<name>オススメ じゃあ 食べ物の用の 両方欲しいですか</name>
						<rate>
							<timebase>59</timebase>
							<ntsc>TRUE</ntsc>
						</rate>
						<rate>
							<timebase>59</timebase>
							<ntsc>TRUE</ntsc>
						</rate>
						<duration>240</duration>
						<start>2399</start>
						<end>2639</end>
						<in>0</in>
						<out>240</out>
					</clipitem>
					<clipitem frameBlend="FALSE" id="clipitem-telop-286">
						<file id="file-2"/>
						<name>はい じゃあ マラカスオバケの1号</name>
						<rate>
							<timebase>59</timebase>
							<ntsc>TRUE</ntsc>
						</rate>
						<rate>
							<timebase>59</timebase>
							<ntsc>TRUE</ntsc>
						</rate>
						<duration>240</duration>
						<start>2639</start>
						<end>2879</end>
						<in>0</in>
						<out>240</out>
					</clipitem>
					<clipitem frameBlend="FALSE" id="clipitem-telop-313">
						<file id="file-2"/>
						<name>1号レトー トーラパンケーキリン じゃない まずは</name>
						<rate>
							<timebase>59</timebase>
							<ntsc>TRUE</ntsc>
						</rate>
						<rate>
							<timebase>59</timebase>
							<ntsc>TRUE</ntsc>
						</rate>
						<duration>120</duration>
						<start>2879</start>
						<end>2999</end>
						<in>0</in>
						<out>120</out>
					</clipitem>
					<clipitem frameBlend="FALSE" id="clipitem-telop-324">
						<file id="file-2"/>
						<name>マラカスオバケの1号</name>
						<rate>
							<timebase>59</timebase>
							<ntsc>TRUE</ntsc>
						</rate>
						<rate>
							<timebase>59</timebase>
							<ntsc>TRUE</ntsc>
						</rate>
						<duration>240</duration>
						<start>2999</start>
						<end>3239</end>
						<in>0</in>
						<out>240</out>
					</clipitem>
					<clipitem frameBlend="FALSE" id="clipitem-telop-354">
						<file id="file-2"/>
						<name>！</name>
						<rate>
							<timebase>59</timebase>
							<ntsc>TRUE</ntsc>
						</rate>
						<rate>
							<timebase>59</timebase>
							<ntsc>TRUE</ntsc>
						</rate>
						<duration>60</duration>
						<start>3245</start>
						<end>3305</end>
						<in>0</in>
						<out>60</out>
					</clipitem>
					<clipitem frameBlend="FALSE" id="clipitem-telop-361">
						<file id="file-2"/>
						<name>！</name>
						<rate>
							<timebase>59</timebase>
							<ntsc>TRUE</ntsc>
						</rate>
						<rate>
							<timebase>59</timebase>
							<ntsc>TRUE</ntsc>
						</rate>
						<duration>60</duration>
						<start>3305</start>
						<end>3365</end>
						<in>0</in>
						<out>60</out>
					</clipitem>
					<clipitem frameBlend="FALSE" id="clipitem-telop-368">
						<file id="file-2"/>
						<name>！</name>
						<rate>
							<timebase>59</timebase>
							<ntsc>TRUE</ntsc>
						</rate>
						<rate>
							<timebase>59</timebase>
							<ntsc>TRUE</ntsc>
						</rate>
						<duration>60</duration>
						<start>3377</start>
						<end>3437</end>
						<in>0</in>
						<out>60</out>
					</clipitem>
					<clipitem frameBlend="FALSE" id="clipitem-telop-375">
						<file id="file-2"/>
						<name>！</name>
						<rate>
							<timebase>59</timebase>
							<ntsc>TRUE</ntsc>
						</rate>
						<rate>
							<timebase>59</timebase>
							<ntsc>TRUE</ntsc>
						</rate>
						<duration>60</duration>
						<start>3437</start>
						<end>3497</end>
						<in>0</in>
						<out>60</out>
					</clipitem>
					<clipitem frameBlend="FALSE" id="clipitem-telop-381">
						<file id="file-2"/>
						<name>！</name>
						<rate>
							<timebase>59</timebase>
							<ntsc>TRUE</ntsc>
						</rate>
						<rate>
							<timebase>59</timebase>
							<ntsc>TRUE</ntsc>
						</rate>
						<duration>59</duration>
						<start>3503</start>
						<end>3562</end>
						<in>0</in>
						<out>59</out>
					</clipitem>
					<clipitem frameBlend="FALSE" id="clipitem-telop-387">
						<file id="file-2"/>
						<name>！</name>
						<rate>
							<timebase>59</timebase>
							<ntsc>TRUE</ntsc>
						</rate>
						<rate>
							<timebase>59</timebase>
							<ntsc>TRUE</ntsc>
						</rate>
						<duration>66</duration>
						<start>3562</start>
						<end>3628</end>
						<in>0</in>
						<out>66</out>
					</clipitem>
					<clipitem frameBlend="FALSE" id="clipitem-telop-395">
						<file id="file-2"/>
						<name>！</name>
						<rate>
							<timebase>59</timebase>
							<ntsc>TRUE</ntsc>
						</rate>
						<rate>
							<timebase>59</timebase>
							<ntsc>TRUE</ntsc>
						</rate>
						<duration>60</duration>
						<start>3628</start>
						<end>3688</end>
						<in>0</in>
						<out>60</out>
					</clipitem>
					<clipitem frameBlend="FALSE" id="clipitem-telop-400">
						<file id="file-2"/>
						<name>！</name>
						<rate>
							<timebase>59</timebase>
							<ntsc>TRUE</ntsc>
						</rate>
						<rate>
							<timebase>59</timebase>
							<ntsc>TRUE</ntsc>
						</rate>
						<duration>60</duration>
						<start>3694</start>
						<end>3754</end>
						<in>0</in>
						<out>60</out>
					</clipitem>
					<clipitem frameBlend="FALSE" id="clipitem-telop-411">
						<file id="file-2"/>
						<name>！</name>
						<rate>
							<timebase>59</timebase>
							<ntsc>TRUE</ntsc>
						</rate>
						<rate>
							<timebase>59</timebase>
							<ntsc>TRUE</ntsc>
						</rate>
						<duration>60</duration>
						<start>3760</start>
						<end>3820</end>
						<in>0</in>
						<out>60</out>
					</clipitem>
					<clipitem frameBlend="FALSE" id="clipitem-telop-419">
						<file id="file-2"/>
						<name>！</name>
						<rate>
							<timebase>59</timebase>
							<ntsc>TRUE</ntsc>
						</rate>
						<rate>
							<timebase>59</timebase>
							<ntsc>TRUE</ntsc>
						</rate>
						<duration>60</duration>
						<start>3820</start>
						<end>3880</end>
						<in>0</in>
						<out>60</out>
					</clipitem>
					<clipitem frameBlend="FALSE" id="clipitem-telop-425">
						<file id="file-2"/>
						<name>！</name>
						<rate>
							<timebase>59</timebase>
							<ntsc>TRUE</ntsc>
						</rate>
						<rate>
							<timebase>59</timebase>
							<ntsc>TRUE</ntsc>
						</rate>
						<duration>60</duration>
						<start>3880</start>
						<end>3940</end>
						<in>0</in>
						<out>60</out>
					</clipitem>
					<clipitem frameBlend="FALSE" id="clipitem-telop-428">
						<file id="file-2"/>
						<name>！</name>
						<rate>
							<timebase>59</timebase>
							<ntsc>TRUE</ntsc>
						</rate>
						<rate>
							<timebase>59</timebase>
							<ntsc>TRUE</ntsc>
						</rate>
						<duration>60</duration>
						<start>3964</start>
						<end>4024</end>
						<in>0</in>
						<out>60</out>
					</clipitem>
					<clipitem frameBlend="FALSE" id="clipitem-telop-433">
						<file id="file-2"/>
						<name>！</name>
						<rate>
							<timebase>59</timebase>
							<ntsc>TRUE</ntsc>
						</rate>
						<rate>
							<timebase>59</timebase>
							<ntsc>TRUE</ntsc>
						</rate>
						<duration>60</duration>
						<start>4024</start>
						<end>4084</end>
						<in>0</in>
						<out>60</out>
					</clipitem>
					<clipitem frameBlend="FALSE" id="clipitem-telop-438">
						<file id="file-2"/>
						<name>！</name>
						<rate>
							<timebase>59</timebase>
							<ntsc>TRUE</ntsc>
						</rate>
						<rate>
							<timebase>59</timebase>
							<ntsc>TRUE</ntsc>
						</rate>
						<duration>60</duration>
						<start>4084</start>
						<end>4144</end>
						<in>0</in>
						<out>60</out>
					</clipitem>
					<clipitem frameBlend="FALSE" id="clipitem-telop-443">
						<file id="file-2"/>
						<name>！</name>
						<rate>
							<timebase>59</timebase>
							<ntsc>TRUE</ntsc>
						</rate>
						<rate>
							<timebase>59</timebase>
							<ntsc>TRUE</ntsc>
						</rate>
						<duration>66</duration>
						<start>4162</start>
						<end>4228</end>
						<in>0</in>
						<out>66</out>
					</clipitem>
					<clipitem frameBlend="FALSE" id="clipitem-telop-448">
						<file id="file-2"/>
						<name>！</name>
						<rate>
							<timebase>59</timebase>
							<ntsc>TRUE</ntsc>
						</rate>
						<rate>
							<timebase>59</timebase>
							<ntsc>TRUE</ntsc>
						</rate>
						<duration>60</duration>
						<start>4228</start>
						<end>4288</end>
						<in>0</in>
						<out>60</out>
					</clipitem>
					<clipitem frameBlend="FALSE" id="clipitem-telop-454">
						<file id="file-2"/>
						<name>！</name>
						<rate>
							<timebase>59</timebase>
							<ntsc>TRUE</ntsc>
						</rate>
						<rate>
							<timebase>59</timebase>
							<ntsc>TRUE</ntsc>
						</rate>
						<duration>60</duration>
						<start>4288</start>
						<end>4348</end>
						<in>0</in>
						<out>60</out>
					</clipitem>
					<clipitem frameBlend="FALSE" id="clipitem-telop-463">
						<file id="file-2"/>
						<name>！</name>
						<rate>
							<timebase>59</timebase>
							<ntsc>TRUE</ntsc>
						</rate>
						<rate>
							<timebase>59</timebase>
							<ntsc>TRUE</ntsc>
						</rate>
						<duration>66</duration>
						<start>4348</start>
						<end>4414</end>
						<in>0</in>
						<out>66</out>
					</clipitem>
					<clipitem frameBlend="FALSE" id="clipitem-telop-471">
						<file id="file-2"/>
						<name>！</name>
						<rate>
							<timebase>59</timebase>
							<ntsc>TRUE</ntsc>
						</rate>
						<rate>
							<timebase>59</timebase>
							<ntsc>TRUE</ntsc>
						</rate>
						<duration>66</duration>
						<start>4414</start>
						<end>4480</end>
						<in>0</in>
						<out>66</out>
					</clipitem>
					<clipitem frameBlend="FALSE" id="clipitem-telop-483">
						<file id="file-2"/>
						<name>！</name>
						<rate>
							<timebase>59</timebase>
							<ntsc>TRUE</ntsc>
						</rate>
						<rate>
							<timebase>59</timebase>
							<ntsc>TRUE</ntsc>
						</rate>
						<duration>66</duration>
						<start>4486</start>
						<end>4552</end>
						<in>0</in>
						<out>66</out>
					</clipitem>
					<clipitem frameBlend="FALSE" id="clipitem-telop-490">
						<file id="file-2"/>
						<name>！</name>
						<rate>
							<timebase>59</timebase>
							<ntsc>TRUE</ntsc>
						</rate>
						<rate>
							<timebase>59</timebase>
							<ntsc>TRUE</ntsc>
						</rate>
						<duration>60</duration>
						<start>4552</start>
						<end>4612</end>
						<in>0</in>
						<out>60</out>
					</clipitem>
					<clipitem frameBlend="FALSE" id="clipitem-telop-498">
						<file id="file-2"/>
						<name>！</name>
						<rate>
							<timebase>59</timebase>
							<ntsc>TRUE</ntsc>
						</rate>
						<rate>
							<timebase>59</timebase>
							<ntsc>TRUE</ntsc>
						</rate>
						<duration>60</duration>
						<start>4612</start>
						<end>4672</end>
						<in>0</in>
						<out>60</out>
					</clipitem>
					<clipitem frameBlend="FALSE" id="clipitem-telop-503">
						<file id="file-2"/>
						<name>ふりっこびだね 食べなかったら終わりだよ俺</name>
						<rate>
							<timebase>59</timebase>
							<ntsc>TRUE</ntsc>
						</rate>
						<rate>
							<timebase>59</timebase>
							<ntsc>TRUE</ntsc>
						</rate>
						<duration>180</duration>
						<start>4678</start>
						<end>4858</end>
						<in>0</in>
						<out>180</out>
					</clipitem>
					<clipitem frameBlend="FALSE" id="clipitem-telop-524">
						<file id="file-2"/>
						<name>！</name>
						<rate>
							<timebase>59</timebase>
							<ntsc>TRUE</ntsc>
						</rate>
						<rate>
							<timebase>59</timebase>
							<ntsc>TRUE</ntsc>
						</rate>
						<duration>66</duration>
						<start>4864</start>
						<end>4930</end>
						<in>0</in>
						<out>66</out>
					</clipitem>
					<clipitem frameBlend="FALSE" id="clipitem-telop-531">
						<file id="file-2"/>
						<name>！</name>
						<rate>
							<timebase>59</timebase>
							<ntsc>TRUE</ntsc>
						</rate>
						<rate>
							<timebase>59</timebase>
							<ntsc>TRUE</ntsc>
						</rate>
						<duration>60</duration>
						<start>4930</start>
						<end>4990</end>
						<in>0</in>
						<out>60</out>
					</clipitem>
					<clipitem frameBlend="FALSE" id="clipitem-telop-535">
						<file id="file-2"/>
						<name>！</name>
						<rate>
							<timebase>59</timebase>
							<ntsc>TRUE</ntsc>
						</rate>
						<rate>
							<timebase>59</timebase>
							<ntsc>TRUE</ntsc>
						</rate>
						<duration>60</duration>
						<start>4990</start>
						<end>5050</end>
						<in>0</in>
						<out>60</out>
					</clipitem>
					<clipitem frameBlend="FALSE" id="clipitem-telop-543">
						<file id="file-2"/>
						<name>！</name>
						<rate>
							<timebase>59</timebase>
							<ntsc>TRUE</ntsc>
						</rate>
						<rate>
							<timebase>59</timebase>
							<ntsc>TRUE</ntsc>
						</rate>
						<duration>66</duration>
						<start>5050</start>
						<end>5116</end>
						<in>0</in>
						<out>66</out>
					</clipitem>
					<clipitem frameBlend="FALSE" id="clipitem-telop-551">
						<file id="file-2"/>
						<name>！</name>
						<rate>
							<timebase>59</timebase>
							<ntsc>TRUE</ntsc>
						</rate>
						<rate>
							<timebase>59</timebase>
							<ntsc>TRUE</ntsc>
						</rate>
						<duration>60</duration>
						<start>5122</start>
						<end>5182</end>
						<in>0</in>
						<out>60</out>
					</clipitem>
					<clipitem frameBlend="FALSE" id="clipitem-telop-556">
						<file id="file-2"/>
						<name>！</name>
						<rate>
							<timebase>59</timebase>
							<ntsc>TRUE</ntsc>
						</rate>
						<rate>
							<timebase>59</timebase>
							<ntsc>TRUE</ntsc>
						</rate>
						<duration>60</duration>
						<start>5182</start>
						<end>5242</end>
						<in>0</in>
						<out>60</out>
					</clipitem>
					<clipitem frameBlend="FALSE" id="clipitem-telop-561">
						<file id="file-2"/>
						<name>！</name>
						<rate>
							<timebase>59</timebase>
							<ntsc>TRUE</ntsc>
						</rate>
						<rate>
							<timebase>59</timebase>
							<ntsc>TRUE</ntsc>
						</rate>
						<duration>60</duration>
						<start>5242</start>
						<end>5302</end>
						<in>0</in>
						<out>60</out>
					</clipitem>
					<clipitem frameBlend="FALSE" id="clipitem-telop-571">
						<file id="file-2"/>
						<name>！</name>
						<rate>
							<timebase>59</timebase>
							<ntsc>TRUE</ntsc>
						</rate>
						<rate>
							<timebase>59</timebase>
							<ntsc>TRUE</ntsc>
						</rate>
						<duration>60</duration>
						<start>5302</start>
						<end>5362</end>
						<in>0</in>
						<out>60</out>
					</clipitem>
					<clipitem frameBlend="FALSE" id="clipitem-telop-576">
						<file id="file-2"/>
						<name>！</name>
						<rate>
							<timebase>59</timebase>
							<ntsc>TRUE</ntsc>
						</rate>
						<rate>
							<timebase>59</timebase>
							<ntsc>TRUE</ntsc>
						</rate>
						<duration>60</duration>
						<start>5362</start>
						<end>5422</end>
						<in>0</in>
						<out>60</out>
					</clipitem>
					<clipitem frameBlend="FALSE" id="clipitem-telop-578">
						<file id="file-2"/>
						<name>！</name>
						<rate>
							<timebase>59</timebase>
							<ntsc>TRUE</ntsc>
						</rate>
						<rate>
							<timebase>59</timebase>
							<ntsc>TRUE</ntsc>
						</rate>
						<duration>66</duration>
						<start>5434</start>
						<end>5500</end>
						<in>0</in>
						<out>66</out>
					</clipitem>
					<clipitem frameBlend="FALSE" id="clipitem-telop-581">
						<file id="file-2"/>
						<name>！</name>
						<rate>
							<timebase>59</timebase>
							<ntsc>TRUE</ntsc>
						</rate>
						<rate>
							<timebase>59</timebase>
							<ntsc>TRUE</ntsc>
						</rate>
						<duration>60</duration>
						<start>5500</start>
						<end>5560</end>
						<in>0</in>
						<out>60</out>
					</clipitem>
					<clipitem frameBlend="FALSE" id="clipitem-telop-593">
						<file id="file-2"/>
						<name>！</name>
						<rate>
							<timebase>59</timebase>
							<ntsc>TRUE</ntsc>
						</rate>
						<rate>
							<timebase>59</timebase>
							<ntsc>TRUE</ntsc>
						</rate>
						<duration>60</duration>
						<start>5566</start>
						<end>5626</end>
						<in>0</in>
						<out>60</out>
					</clipitem>
					<clipitem frameBlend="FALSE" id="clipitem-telop-604">
						<file id="file-2"/>
						<name>！</name>
						<rate>
							<timebase>59</timebase>
							<ntsc>TRUE</ntsc>
						</rate>
						<rate>
							<timebase>59</timebase>
							<ntsc>TRUE</ntsc>
						</rate>
						<duration>60</duration>
						<start>5626</start>
						<end>5686</end>
						<in>0</in>
						<out>60</out>
					</clipitem>
					<clipitem frameBlend="FALSE" id="clipitem-telop-610">
						<file id="file-2"/>
						<name>メニューとかも書いてもらえるかもしれないしね</name>
						<rate>
							<timebase>59</timebase>
							<ntsc>TRUE</ntsc>
						</rate>
						<rate>
							<timebase>59</timebase>
							<ntsc>TRUE</ntsc>
						</rate>
						<duration>180</duration>
						<start>5698</start>
						<end>5878</end>
						<in>0</in>
						<out>180</out>
					</clipitem>
					<clipitem frameBlend="FALSE" id="clipitem-telop-632">
						<file id="file-2"/>
						<name>おこびしといたら</name>
						<rate>
							<timebase>59</timebase>
							<ntsc>TRUE</ntsc>
						</rate>
						<rate>
							<timebase>59</timebase>
							<ntsc>TRUE</ntsc>
						</rate>
						<duration>120</duration>
						<start>5878</start>
						<end>5998</end>
						<in>0</in>
						<out>120</out>
					</clipitem>
					<clipitem frameBlend="FALSE" id="clipitem-telop-646">
						<file id="file-2"/>
						<name>おこびだね</name>
						<rate>
							<timebase>59</timebase>
							<ntsc>TRUE</ntsc>
						</rate>
						<rate>
							<timebase>59</timebase>
							<ntsc>TRUE</ntsc>
						</rate>
						<duration>120</duration>
						<start>5998</start>
						<end>6118</end>
						<in>0</in>
						<out>120</out>
					</clipitem>
					<clipitem frameBlend="FALSE" id="clipitem-telop-661">
						<file id="file-2"/>
						<name>これ結構 あれですか シーレー大変?</name>
						<rate>
							<timebase>59</timebase>
							<ntsc>TRUE</ntsc>
						</rate>
						<rate>
							<timebase>59</timebase>
							<ntsc>TRUE</ntsc>
						</rate>
						<duration>180</duration>
						<start>6118</start>
						<end>6298</end>
						<in>0</in>
						<out>180</out>
					</clipitem>
					<clipitem frameBlend="FALSE" id="clipitem-telop-685">
						<file id="file-2"/>
						<name>全然 スーパーだよ</name>
						<rate>
							<timebase>59</timebase>
							<ntsc>TRUE</ntsc>
						</rate>
						<rate>
							<timebase>59</timebase>
							<ntsc>TRUE</ntsc>
						</rate>
						<duration>120</duration>
						<start>6298</start>
						<end>6418</end>
						<in>0</in>
						<out>120</out>
					</clipitem>
					<clipitem frameBlend="FALSE" id="clipitem-telop-702">
						<file id="file-2"/>
						<name>スーパーで買うだけ</name>
						<rate>
							<timebase>59</timebase>
							<ntsc>TRUE</ntsc>
						</rate>
						<rate>
							<timebase>59</timebase>
							<ntsc>TRUE</ntsc>
						</rate>
						<duration>120</duration>
						<start>6418</start>
						<end>6538</end>
						<in>0</in>
						<out>120</out>
					</clipitem>
					<clipitem frameBlend="FALSE" id="clipitem-telop-711">
						<file id="file-2"/>
						<name>スーパーで買うだけなんだ</name>
						<rate>
							<timebase>59</timebase>
							<ntsc>TRUE</ntsc>
						</rate>
						<rate>
							<timebase>59</timebase>
							<ntsc>TRUE</ntsc>
						</rate>
						<duration>180</duration>
						<start>6538</start>
						<end>6718</end>
						<in>0</in>
						<out>180</out>
					</clipitem>
					<clipitem frameBlend="FALSE" id="clipitem-telop-725">
						<file id="file-2"/>
						<name>スーパーが売ってくれてればって感じかな</name>
						<rate>
							<timebase>59</timebase>
							<ntsc>TRUE</ntsc>
						</rate>
						<rate>
							<timebase>59</timebase>
							<ntsc>TRUE</ntsc>
						</rate>
						<duration>180</duration>
						<start>6718</start>
						<end>6898</end>
						<in>0</in>
						<out>180</out>
					</clipitem>
					<clipitem frameBlend="FALSE" id="clipitem-telop-740">
						<file id="file-2"/>
						<name>パーの大変っぽいとは</name>
						<rate>
							<timebase>59</timebase>
							<ntsc>TRUE</ntsc>
						</rate>
						<rate>
							<timebase>59</timebase>
							<ntsc>TRUE</ntsc>
						</rate>
						<duration>120</duration>
						<start>6898</start>
						<end>7018</end>
						<in>0</in>
						<out>120</out>
					</clipitem>
					<clipitem frameBlend="FALSE" id="clipitem-telop-754">
						<file id="file-2"/>
						<name>マラカスオバケの1号レゴ</name>
						<rate>
							<timebase>59</timebase>
							<ntsc>TRUE</ntsc>
						</rate>
						<rate>
							<timebase>59</timebase>
							<ntsc>TRUE</ntsc>
						</rate>
						<duration>179</duration>
						<start>7018</start>
						<end>7197</end>
						<in>0</in>
						<out>179</out>
					</clipitem>
				</track>
				<track>
					<clipitem frameBlend="FALSE" id="clipitem-telop-2">
						<file id="file-2"/>
						<name>！</name>
						<rate>
							<timebase>59</timebase>
							<ntsc>TRUE</ntsc>
						</rate>
						<rate>
							<timebase>59</timebase>
							<ntsc>TRUE</ntsc>
						</rate>
						<duration>66</duration>
						<start>47</start>
						<end>113</end>
						<in>0</in>
						<out>66</out>
					</clipitem>
					<clipitem frameBlend="FALSE" id="clipitem-telop-10">
						<file id="file-2"/>
						<name>！</name>
						<rate>
							<timebase>59</timebase>
							<ntsc>TRUE</ntsc>
						</rate>
						<rate>
							<timebase>59</timebase>
							<ntsc>TRUE</ntsc>
						</rate>
						<duration>60</duration>
						<start>113</start>
						<end>173</end>
						<in>0</in>
						<out>60</out>
					</clipitem>
					<clipitem frameBlend="FALSE" id="clipitem-telop-17">
						<file id="file-2"/>
						<name>！</name>
						<rate>
							<timebase>59</timebase>
							<ntsc>TRUE</ntsc>
						</rate>
						<rate>
							<timebase>59</timebase>
							<ntsc>TRUE</ntsc>
						</rate>
						<duration>60</duration>
						<start>209</start>
						<end>269</end>
						<in>0</in>
						<out>60</out>
					</clipitem>
					<clipitem frameBlend="FALSE" id="clipitem-telop-25">
						<file id="file-2"/>
						<name>！</name>
						<rate>
							<timebase>59</timebase>
							<ntsc>TRUE</ntsc>
						</rate>
						<rate>
							<timebase>59</timebase>
							<ntsc>TRUE</ntsc>
						</rate>
						<duration>60</duration>
						<start>269</start>
						<end>329</end>
						<in>0</in>
						<out>60</out>
					</clipitem>
					<clipitem frameBlend="FALSE" id="clipitem-telop-32">
						<file id="file-2"/>
						<name>！</name>
						<rate>
							<timebase>59</timebase>
							<ntsc>TRUE</ntsc>
						</rate>
						<rate>
							<timebase>59</timebase>
							<ntsc>TRUE</ntsc>
						</rate>
						<duration>60</duration>
						<start>329</start>
						<end>389</end>
						<in>0</in>
						<out>60</out>
					</clipitem>
					<clipitem frameBlend="FALSE" id="clipitem-telop-38">
						<file id="file-2"/>
						<name>！</name>
						<rate>
							<timebase>59</timebase>
							<ntsc>TRUE</ntsc>
						</rate>
						<rate>
							<timebase>59</timebase>
							<ntsc>TRUE</ntsc>
						</rate>
						<duration>60</duration>
						<start>389</start>
						<end>449</end>
						<in>0</in>
						<out>60</out>
					</clipitem>
					<clipitem frameBlend="FALSE" id="clipitem-telop-43">
						<file id="file-2"/>
						<name>！</name>
						<rate>
							<timebase>59</timebase>
							<ntsc>TRUE</ntsc>
						</rate>
						<rate>
							<timebase>59</timebase>
							<ntsc>TRUE</ntsc>
						</rate>
						<duration>66</duration>
						<start>455</start>
						<end>521</end>
						<in>0</in>
						<out>66</out>
					</clipitem>
					<clipitem frameBlend="FALSE" id="clipitem-telop-52">
						<file id="file-2"/>
						<name>！</name>
						<rate>
							<timebase>59</timebase>
							<ntsc>TRUE</ntsc>
						</rate>
						<rate>
							<timebase>59</timebase>
							<ntsc>TRUE</ntsc>
						</rate>
						<duration>60</duration>
						<start>533</start>
						<end>593</end>
						<in>0</in>
						<out>60</out>
					</clipitem>
					<clipitem frameBlend="FALSE" id="clipitem-telop-61">
						<file id="file-2"/>
						<name>！</name>
						<rate>
							<timebase>59</timebase>
							<ntsc>TRUE</ntsc>
						</rate>
						<rate>
							<timebase>59</timebase>
							<ntsc>TRUE</ntsc>
						</rate>
						<duration>60</duration>
						<start>593</start>
						<end>653</end>
						<in>0</in>
						<out>60</out>
					</clipitem>
					<clipitem frameBlend="FALSE" id="clipitem-telop-70">
						<file id="file-2"/>
						<name>！</name>
						<rate>
							<timebase>59</timebase>
							<ntsc>TRUE</ntsc>
						</rate>
						<rate>
							<timebase>59</timebase>
							<ntsc>TRUE</ntsc>
						</rate>
						<duration>60</duration>
						<start>653</start>
						<end>713</end>
						<in>0</in>
						<out>60</out>
					</clipitem>
					<clipitem frameBlend="FALSE" id="clipitem-telop-78">
						<file id="file-2"/>
						<name>！</name>
						<rate>
							<timebase>59</timebase>
							<ntsc>TRUE</ntsc>
						</rate>
						<rate>
							<timebase>59</timebase>
							<ntsc>TRUE</ntsc>
						</rate>
						<duration>66</duration>
						<start>713</start>
						<end>779</end>
						<in>0</in>
						<out>66</out>
					</clipitem>
					<clipitem frameBlend="FALSE" id="clipitem-telop-85">
						<file id="file-2"/>
						<name>！</name>
						<rate>
							<timebase>59</timebase>
							<ntsc>TRUE</ntsc>
						</rate>
						<rate>
							<timebase>59</timebase>
							<ntsc>TRUE</ntsc>
						</rate>
						<duration>60</duration>
						<start>779</start>
						<end>839</end>
						<in>0</in>
						<out>60</out>
					</clipitem>
					<clipitem frameBlend="FALSE" id="clipitem-telop-94">
						<file id="file-2"/>
						<name>！</name>
						<rate>
							<timebase>59</timebase>
							<ntsc>TRUE</ntsc>
						</rate>
						<rate>
							<timebase>59</timebase>
							<ntsc>TRUE</ntsc>
						</rate>
						<duration>60</duration>
						<start>845</start>
						<end>905</end>
						<in>0</in>
						<out>60</out>
					</clipitem>
					<clipitem frameBlend="FALSE" id="clipitem-telop-106">
						<file id="file-2"/>
						<name>！</name>
						<rate>
							<timebase>59</timebase>
							<ntsc>TRUE</ntsc>
						</rate>
						<rate>
							<timebase>59</timebase>
							<ntsc>TRUE</ntsc>
						</rate>
						<duration>60</duration>
						<start>911</start>
						<end>971</end>
						<in>0</in>
						<out>60</out>
					</clipitem>
					<clipitem frameBlend="FALSE" id="clipitem-telop-116">
						<file id="file-2"/>
						<name>！</name>
						<rate>
							<timebase>59</timebase>
							<ntsc>TRUE</ntsc>
						</rate>
						<rate>
							<timebase>59</timebase>
							<ntsc>TRUE</ntsc>
						</rate>
						<duration>60</duration>
						<start>971</start>
						<end>1031</end>
						<in>0</in>
						<out>60</out>
					</clipitem>
					<clipitem frameBlend="FALSE" id="clipitem-telop-127">
						<file id="file-2"/>
						<name>！</name>
						<rate>
							<timebase>59</timebase>
							<ntsc>TRUE</ntsc>
						</rate>
						<rate>
							<timebase>59</timebase>
							<ntsc>TRUE</ntsc>
						</rate>
						<duration>60</duration>
						<start>1031</start>
						<end>1091</end>
						<in>0</in>
						<out>60</out>
					</clipitem>
					<clipitem frameBlend="FALSE" id="clipitem-telop-136">
						<file id="file-2"/>
						<name>！</name>
						<rate>
							<timebase>59</timebase>
							<ntsc>TRUE</ntsc>
						</rate>
						<rate>
							<timebase>59</timebase>
							<ntsc>TRUE</ntsc>
						</rate>
						<duration>60</duration>
						<start>1097</start>
						<end>1157</end>
						<in>0</in>
						<out>60</out>
					</clipitem>
					<clipitem frameBlend="FALSE" id="clipitem-telop-141">
						<file id="file-2"/>
						<name>！</name>
						<rate>
							<timebase>59</timebase>
							<ntsc>TRUE</ntsc>
						</rate>
						<rate>
							<timebase>59</timebase>
							<ntsc>TRUE</ntsc>
						</rate>
						<duration>66</duration>
						<start>1157</start>
						<end>1223</end>
						<in>0</in>
						<out>66</out>
					</clipitem>
					<clipitem frameBlend="FALSE" id="clipitem-telop-148">
						<file id="file-2"/>
						<name>！</name>
						<rate>
							<timebase>59</timebase>
							<ntsc>TRUE</ntsc>
						</rate>
						<rate>
							<timebase>59</timebase>
							<ntsc>TRUE</ntsc>
						</rate>
						<duration>60</duration>
						<start>1247</start>
						<end>1307</end>
						<in>0</in>
						<out>60</out>
					</clipitem>
					<clipitem frameBlend="FALSE" id="clipitem-telop-157">
						<file id="file-2"/>
						<name>！</name>
						<rate>
							<timebase>59</timebase>
							<ntsc>TRUE</ntsc>
						</rate>
						<rate>
							<timebase>59</timebase>
							<ntsc>TRUE</ntsc>
						</rate>
						<duration>66</duration>
						<start>1313</start>
						<end>1379</end>
						<in>0</in>
						<out>66</out>
					</clipitem>
					<clipitem frameBlend="FALSE" id="clipitem-telop-164">
						<file id="file-2"/>
						<name>！</name>
						<rate>
							<timebase>59</timebase>
							<ntsc>TRUE</ntsc>
						</rate>
						<rate>
							<timebase>59</timebase>
							<ntsc>TRUE</ntsc>
						</rate>
						<duration>60</duration>
						<start>1385</start>
						<end>1445</end>
						<in>0</in>
						<out>60</out>
					</clipitem>
					<clipitem frameBlend="FALSE" id="clipitem-telop-173">
						<file id="file-2"/>
						<name>！</name>
						<rate>
							<timebase>59</timebase>
							<ntsc>TRUE</ntsc>
						</rate>
						<rate>
							<timebase>59</timebase>
							<ntsc>TRUE</ntsc>
						</rate>
						<duration>60</duration>
						<start>1445</start>
						<end>1505</end>
						<in>0</in>
						<out>60</out>
					</clipitem>
					<clipitem frameBlend="FALSE" id="clipitem-telop-179">
						<file id="file-2"/>
						<name>！</name>
						<rate>
							<timebase>59</timebase>
							<ntsc>TRUE</ntsc>
						</rate>
						<rate>
							<timebase>59</timebase>
							<ntsc>TRUE</ntsc>
						</rate>
						<duration>60</duration>
						<start>1505</start>
						<end>1565</end>
						<in>0</in>
						<out>60</out>
					</clipitem>
					<clipitem frameBlend="FALSE" id="clipitem-telop-186">
						<file id="file-2"/>
						<name>！</name>
						<rate>
							<timebase>59</timebase>
							<ntsc>TRUE</ntsc>
						</rate>
						<rate>
							<timebase>59</timebase>
							<ntsc>TRUE</ntsc>
						</rate>
						<duration>60</duration>
						<start>1571</start>
						<end>1631</end>
						<in>0</in>
						<out>60</out>
					</clipitem>
					<clipitem frameBlend="FALSE" id="clipitem-telop-193">
						<file id="file-2"/>
						<name>！</name>
						<rate>
							<timebase>59</timebase>
							<ntsc>TRUE</ntsc>
						</rate>
						<rate>
							<timebase>59</timebase>
							<ntsc>TRUE</ntsc>
						</rate>
						<duration>60</duration>
						<start>1637</start>
						<end>1697</end>
						<in>0</in>
						<out>60</out>
					</clipitem>
					<clipitem frameBlend="FALSE" id="clipitem-telop-200">
						<file id="file-2"/>
						<name>！</name>
						<rate>
							<timebase>59</timebase>
							<ntsc>TRUE</ntsc>
						</rate>
						<rate>
							<timebase>59</timebase>
							<ntsc>TRUE</ntsc>
						</rate>
						<duration>60</duration>
						<start>1703</start>
						<end>1763</end>
						<in>0</in>
						<out>60</out>
					</clipitem>
					<clipitem frameBlend="FALSE" id="clipitem-telop-207">
						<file id="file-2"/>
						<name>！</name>
						<rate>
							<timebase>59</timebase>
							<ntsc>TRUE</ntsc>
						</rate>
						<rate>
							<timebase>59</timebase>
							<ntsc>TRUE</ntsc>
						</rate>
						<duration>60</duration>
						<start>1769</start>
						<end>1829</end>
						<in>0</in>
						<out>60</out>
					</clipitem>
					<clipitem frameBlend="FALSE" id="clipitem-telop-218">
						<file id="file-2"/>
						<name>！</name>
						<rate>
							<timebase>59</timebase>
							<ntsc>TRUE</ntsc>
						</rate>
						<rate>
							<timebase>59</timebase>
							<ntsc>TRUE</ntsc>
						</rate>
						<duration>66</duration>
						<start>1829</start>
						<end>1895</end>
						<in>0</in>
						<out>66</out>
					</clipitem>
					<clipitem frameBlend="FALSE" id="clipitem-telop-224">
						<file id="file-2"/>
						<name>！</name>
						<rate>
							<timebase>59</timebase>
							<ntsc>TRUE</ntsc>
						</rate>
						<rate>
							<timebase>59</timebase>
							<ntsc>TRUE</ntsc>
						</rate>
						<duration>60</duration>
						<start>1895</start>
						<end>1955</end>
						<in>0</in>
						<out>60</out>
					</clipitem>
					<clipitem frameBlend="FALSE" id="clipitem-telop-233">
						<file id="file-2"/>
						<name>！</name>
						<rate>
							<timebase>59</timebase>
							<ntsc>TRUE</ntsc>
						</rate>
						<rate>
							<timebase>59</timebase>
							<ntsc>TRUE</ntsc>
						</rate>
						<duration>60</duration>
						<start>1955</start>
						<end>2015</end>
						<in>0</in>
						<out>60</out>
					</clipitem>
					<clipitem frameBlend="FALSE" id="clipitem-telop-239">
						<file id="file-2"/>
						<name>！</name>
						<rate>
							<timebase>59</timebase>
							<ntsc>TRUE</ntsc>
						</rate>
						<rate>
							<timebase>59</timebase>
							<ntsc>TRUE</ntsc>
						</rate>
						<duration>66</duration>
						<start>2021</start>
						<end>2087</end>
						<in>0</in>
						<out>66</out>
					</clipitem>
					<clipitem frameBlend="FALSE" id="clipitem-telop-242">
						<file id="file-2"/>
						<name>！</name>
						<rate>
							<timebase>59</timebase>
							<ntsc>TRUE</ntsc>
						</rate>
						<rate>
							<timebase>59</timebase>
							<ntsc>TRUE</ntsc>
						</rate>
						<duration>60</duration>
						<start>2087</start>
						<end>2147</end>
						<in>0</in>
						<out>60</out>
					</clipitem>
					<clipitem frameBlend="FALSE" id="clipitem-telop-244">
						<file id="file-2"/>
						<name>！</name>
						<rate>
							<timebase>59</timebase>
							<ntsc>TRUE</ntsc>
						</rate>
						<rate>
							<timebase>59</timebase>
							<ntsc>TRUE</ntsc>
						</rate>
						<duration>60</duration>
						<start>2147</start>
						<end>2207</end>
						<in>0</in>
						<out>60</out>
					</clipitem>
					<clipitem frameBlend="FALSE" id="clipitem-telop-252">
						<file id="file-2"/>
						<name>！</name>
						<rate>
							<timebase>59</timebase>
							<ntsc>TRUE</ntsc>
						</rate>
						<rate>
							<timebase>59</timebase>
							<ntsc>TRUE</ntsc>
						</rate>
						<duration>60</duration>
						<start>2207</start>
						<end>2267</end>
						<in>0</in>
						<out>60</out>
					</clipitem>
					<clipitem frameBlend="FALSE" id="clipitem-telop-253">
						<file id="file-2"/>
						<name>！</name>
						<rate>
							<timebase>59</timebase>
							<ntsc>TRUE</ntsc>
						</rate>
						<rate>
							<timebase>59</timebase>
							<ntsc>TRUE</ntsc>
						</rate>
						<duration>60</duration>
						<start>2297</start>
						<end>2357</end>
						<in>0</in>
						<out>60</out>
					</clipitem>
					<clipitem frameBlend="FALSE" id="clipitem-telop-259">
						<file id="file-2"/>
						<name>！</name>
						<rate>
							<timebase>59</timebase>
							<ntsc>TRUE</ntsc>
						</rate>
						<rate>
							<timebase>59</timebase>
							<ntsc>TRUE</ntsc>
						</rate>
						<duration>60</duration>
						<start>2363</start>
						<end>2423</end>
						<in>0</in>
						<out>60</out>
					</clipitem>
					<clipitem frameBlend="FALSE" id="clipitem-telop-264">
						<file id="file-2"/>
						<name>！</name>
						<rate>
							<timebase>59</timebase>
							<ntsc>TRUE</ntsc>
						</rate>
						<rate>
							<timebase>59</timebase>
							<ntsc>TRUE</ntsc>
						</rate>
						<duration>60</duration>
						<start>2423</start>
						<end>2483</end>
						<in>0</in>
						<out>60</out>
					</clipitem>
					<clipitem frameBlend="FALSE" id="clipitem-telop-270">
						<file id="file-2"/>
						<name>！</name>
						<rate>
							<timebase>59</timebase>
							<ntsc>TRUE</ntsc>
						</rate>
						<rate>
							<timebase>59</timebase>
							<ntsc>TRUE</ntsc>
						</rate>
						<duration>60</duration>
						<start>2501</start>
						<end>2561</end>
						<in>0</in>
						<out>60</out>
					</clipitem>
					<clipitem frameBlend="FALSE" id="clipitem-telop-276">
						<file id="file-2"/>
						<name>！</name>
						<rate>
							<timebase>59</timebase>
							<ntsc>TRUE</ntsc>
						</rate>
						<rate>
							<timebase>59</timebase>
							<ntsc>TRUE</ntsc>
						</rate>
						<duration>60</duration>
						<start>2561</start>
						<end>2621</end>
						<in>0</in>
						<out>60</out>
					</clipitem>
					<clipitem frameBlend="FALSE" id="clipitem-telop-283">
						<file id="file-2"/>
						<name>！</name>
						<rate>
							<timebase>59</timebase>
							<ntsc>TRUE</ntsc>
						</rate>
						<rate>
							<timebase>59</timebase>
							<ntsc>TRUE</ntsc>
						</rate>
						<duration>60</duration>
						<start>2627</start>
						<end>2687</end>
						<in>0</in>
						<out>60</out>
					</clipitem>
					<clipitem frameBlend="FALSE" id="clipitem-telop-292">
						<file id="file-2"/>
						<name>！</name>
						<rate>
							<timebase>59</timebase>
							<ntsc>TRUE</ntsc>
						</rate>
						<rate>
							<timebase>59</timebase>
							<ntsc>TRUE</ntsc>
						</rate>
						<duration>60</duration>
						<start>2693</start>
						<end>2753</end>
						<in>0</in>
						<out>60</out>
					</clipitem>
					<clipitem frameBlend="FALSE" id="clipitem-telop-299">
						<file id="file-2"/>
						<name>！</name>
						<rate>
							<timebase>59</timebase>
							<ntsc>TRUE</ntsc>
						</rate>
						<rate>
							<timebase>59</timebase>
							<ntsc>TRUE</ntsc>
						</rate>
						<duration>60</duration>
						<start>2759</start>
						<end>2819</end>
						<in>0</in>
						<out>60</out>
					</clipitem>
					<clipitem frameBlend="FALSE" id="clipitem-telop-307">
						<file id="file-2"/>
						<name>！</name>
						<rate>
							<timebase>59</timebase>
							<ntsc>TRUE</ntsc>
						</rate>
						<rate>
							<timebase>59</timebase>
							<ntsc>TRUE</ntsc>
						</rate>
						<duration>66</duration>
						<start>2819</start>
						<end>2885</end>
						<in>0</in>
						<out>66</out>
					</clipitem>
					<clipitem frameBlend="FALSE" id="clipitem-telop-314">
						<file id="file-2"/>
						<name>！</name>
						<rate>
							<timebase>59</timebase>
							<ntsc>TRUE</ntsc>
						</rate>
						<rate>
							<timebase>59</timebase>
							<ntsc>TRUE</ntsc>
						</rate>
						<duration>60</duration>
						<start>2885</start>
						<end>2945</end>
						<in>0</in>
						<out>60</out>
					</clipitem>
					<clipitem frameBlend="FALSE" id="clipitem-telop-319">
						<file id="file-2"/>
						<name>！</name>
						<rate>
							<timebase>59</timebase>
							<ntsc>TRUE</ntsc>
						</rate>
						<rate>
							<timebase>59</timebase>
							<ntsc>TRUE</ntsc>
						</rate>
						<duration>60</duration>
						<start>2951</start>
						<end>3011</end>
						<in>0</in>
						<out>60</out>
					</clipitem>
					<clipitem frameBlend="FALSE" id="clipitem-telop-327">
						<file id="file-2"/>
						<name>！</name>
						<rate>
							<timebase>59</timebase>
							<ntsc>TRUE</ntsc>
						</rate>
						<rate>
							<timebase>59</timebase>
							<ntsc>TRUE</ntsc>
						</rate>
						<duration>60</duration>
						<start>3017</start>
						<end>3077</end>
						<in>0</in>
						<out>60</out>
					</clipitem>
					<clipitem frameBlend="FALSE" id="clipitem-telop-334">
						<file id="file-2"/>
						<name>！</name>
						<rate>
							<timebase>59</timebase>
							<ntsc>TRUE</ntsc>
						</rate>
						<rate>
							<timebase>59</timebase>
							<ntsc>TRUE</ntsc>
						</rate>
						<duration>60</duration>
						<start>3095</start>
						<end>3155</end>
						<in>0</in>
						<out>60</out>
					</clipitem>
					<clipitem frameBlend="FALSE" id="clipitem-telop-343">
						<file id="file-2"/>
						<name>！</name>
						<rate>
							<timebase>59</timebase>
							<ntsc>TRUE</ntsc>
						</rate>
						<rate>
							<timebase>59</timebase>
							<ntsc>TRUE</ntsc>
						</rate>
						<duration>60</duration>
						<start>3161</start>
						<end>3221</end>
						<in>0</in>
						<out>60</out>
					</clipitem>
					<clipitem frameBlend="FALSE" id="clipitem-telop-350">
						<file id="file-2"/>
						<name>！</name>
						<rate>
							<timebase>59</timebase>
							<ntsc>TRUE</ntsc>
						</rate>
						<rate>
							<timebase>59</timebase>
							<ntsc>TRUE</ntsc>
						</rate>
						<duration>60</duration>
						<start>3221</start>
						<end>3281</end>
						<in>0</in>
						<out>60</out>
					</clipitem>
					<clipitem frameBlend="FALSE" id="clipitem-telop-358">
						<file id="file-2"/>
						<name>！</name>
						<rate>
							<timebase>59</timebase>
							<ntsc>TRUE</ntsc>
						</rate>
						<rate>
							<timebase>59</timebase>
							<ntsc>TRUE</ntsc>
						</rate>
						<duration>60</duration>
						<start>3287</start>
						<end>3347</end>
						<in>0</in>
						<out>60</out>
					</clipitem>
					<clipitem frameBlend="FALSE" id="clipitem-telop-366">
						<file id="file-2"/>
						<name>！</name>
						<rate>
							<timebase>59</timebase>
							<ntsc>TRUE</ntsc>
						</rate>
						<rate>
							<timebase>59</timebase>
							<ntsc>TRUE</ntsc>
						</rate>
						<duration>60</duration>
						<start>3347</start>
						<end>3407</end>
						<in>0</in>
						<out>60</out>
					</clipitem>
					<clipitem frameBlend="FALSE" id="clipitem-telop-372">
						<file id="file-2"/>
						<name>5号で</name>
						<rate>
							<timebase>59</timebase>
							<ntsc>TRUE</ntsc>
						</rate>
						<rate>
							<timebase>59</timebase>
							<ntsc>TRUE</ntsc>
						</rate>
						<duration>119</duration>
						<start>3419</start>
						<end>3538</end>
						<in>0</in>
						<out>119</out>
					</clipitem>
					<clipitem frameBlend="FALSE" id="clipitem-telop-384">
						<file id="file-2"/>
						<name>ラパンケーキ5号と マラカスオバケの1号レゴ入りました</name>
						<rate>
							<timebase>59</timebase>
							<ntsc>TRUE</ntsc>
						</rate>
						<rate>
							<timebase>59</timebase>
							<ntsc>TRUE</ntsc>
						</rate>
						<duration>240</duration>
						<start>3538</start>
						<end>3778</end>
						<in>0</in>
						<out>240</out>
					</clipitem>
					<clipitem frameBlend="FALSE" id="clipitem-telop-414">
						<file id="file-2"/>
						<name>はい</name>
						<rate>
							<timebase>59</timebase>
							<ntsc>TRUE</ntsc>
						</rate>
						<rate>
							<timebase>59</timebase>
							<ntsc>TRUE</ntsc>
						</rate>
						<duration>120</duration>
						<start>3778</start>
						<end>3898</end>
						<in>0</in>
						<out>120</out>
					</clipitem>
					<clipitem frameBlend="FALSE" id="clipitem-telop-427">
						<file id="file-2"/>
						<name>！</name>
						<rate>
							<timebase>59</timebase>
							<ntsc>TRUE</ntsc>
						</rate>
						<rate>
							<timebase>59</timebase>
							<ntsc>TRUE</ntsc>
						</rate>
						<duration>66</duration>
						<start>3934</start>
						<end>4000</end>
						<in>0</in>
						<out>66</out>
					</clipitem>
					<clipitem frameBlend="FALSE" id="clipitem-telop-431">
						<file id="file-2"/>
						<name>！</name>
						<rate>
							<timebase>59</timebase>
							<ntsc>TRUE</ntsc>
						</rate>
						<rate>
							<timebase>59</timebase>
							<ntsc>TRUE</ntsc>
						</rate>
						<duration>60</duration>
						<start>4012</start>
						<end>4072</end>
						<in>0</in>
						<out>60</out>
					</clipitem>
					<clipitem frameBlend="FALSE" id="clipitem-telop-437">
						<file id="file-2"/>
						<name>！</name>
						<rate>
							<timebase>59</timebase>
							<ntsc>TRUE</ntsc>
						</rate>
						<rate>
							<timebase>59</timebase>
							<ntsc>TRUE</ntsc>
						</rate>
						<duration>60</duration>
						<start>4078</start>
						<end>4138</end>
						<in>0</in>
						<out>60</out>
					</clipitem>
					<clipitem frameBlend="FALSE" id="clipitem-telop-441">
						<file id="file-2"/>
						<name>材料が食べませんね 今俺ら</name>
						<rate>
							<timebase>59</timebase>
							<ntsc>TRUE</ntsc>
						</rate>
						<rate>
							<timebase>59</timebase>
							<ntsc>TRUE</ntsc>
						</rate>
						<duration>180</duration>
						<start>4138</start>
						<end>4318</end>
						<in>0</in>
						<out>180</out>
					</clipitem>
					<clipitem frameBlend="FALSE" id="clipitem-telop-459">
						<file id="file-2"/>
						<name>ね なんか 受け狙ってますね それ</name>
						<rate>
							<timebase>59</timebase>
							<ntsc>TRUE</ntsc>
						</rate>
						<rate>
							<timebase>59</timebase>
							<ntsc>TRUE</ntsc>
						</rate>
						<duration>180</duration>
						<start>4318</start>
						<end>4498</end>
						<in>0</in>
						<out>180</out>
					</clipitem>
					<clipitem frameBlend="FALSE" id="clipitem-telop-485">
						<file id="file-2"/>
						<name>マジでこみてるね 今 トレーブルで 金稼ぎに行ってるから</name>
						<rate>
							<timebase>59</timebase>
							<ntsc>TRUE</ntsc>
						</rate>
						<rate>
							<timebase>59</timebase>
							<ntsc>TRUE</ntsc>
						</rate>
						<duration>180</duration>
						<start>4498</start>
						<end>4678</end>
						<in>0</in>
						<out>180</out>
					</clipitem>
					<clipitem frameBlend="FALSE" id="clipitem-telop-504">
						<file id="file-2"/>
						<name>！</name>
						<rate>
							<timebase>59</timebase>
							<ntsc>TRUE</ntsc>
						</rate>
						<rate>
							<timebase>59</timebase>
							<ntsc>TRUE</ntsc>
						</rate>
						<duration>66</duration>
						<start>4684</start>
						<end>4750</end>
						<in>0</in>
						<out>66</out>
					</clipitem>
					<clipitem frameBlend="FALSE" id="clipitem-telop-511">
						<file id="file-2"/>
						<name>！</name>
						<rate>
							<timebase>59</timebase>
							<ntsc>TRUE</ntsc>
						</rate>
						<rate>
							<timebase>59</timebase>
							<ntsc>TRUE</ntsc>
						</rate>
						<duration>60</duration>
						<start>4750</start>
						<end>4810</end>
						<in>0</in>
						<out>60</out>
					</clipitem>
					<clipitem frameBlend="FALSE" id="clipitem-telop-516">
						<file id="file-2"/>
						<name>！</name>
						<rate>
							<timebase>59</timebase>
							<ntsc>TRUE</ntsc>
						</rate>
						<rate>
							<timebase>59</timebase>
							<ntsc>TRUE</ntsc>
						</rate>
						<duration>60</duration>
						<start>4810</start>
						<end>4870</end>
						<in>0</in>
						<out>60</out>
					</clipitem>
					<clipitem frameBlend="FALSE" id="clipitem-telop-525">
						<file id="file-2"/>
						<name>！</name>
						<rate>
							<timebase>59</timebase>
							<ntsc>TRUE</ntsc>
						</rate>
						<rate>
							<timebase>59</timebase>
							<ntsc>TRUE</ntsc>
						</rate>
						<duration>66</duration>
						<start>4870</start>
						<end>4936</end>
						<in>0</in>
						<out>66</out>
					</clipitem>
					<clipitem frameBlend="FALSE" id="clipitem-telop-532">
						<file id="file-2"/>
						<name>！</name>
						<rate>
							<timebase>59</timebase>
							<ntsc>TRUE</ntsc>
						</rate>
						<rate>
							<timebase>59</timebase>
							<ntsc>TRUE</ntsc>
						</rate>
						<duration>60</duration>
						<start>4942</start>
						<end>5002</end>
						<in>0</in>
						<out>60</out>
					</clipitem>
					<clipitem frameBlend="FALSE" id="clipitem-telop-537">
						<file id="file-2"/>
						<name>！</name>
						<rate>
							<timebase>59</timebase>
							<ntsc>TRUE</ntsc>
						</rate>
						<rate>
							<timebase>59</timebase>
							<ntsc>TRUE</ntsc>
						</rate>
						<duration>60</duration>
						<start>5008</start>
						<end>5068</end>
						<in>0</in>
						<out>60</out>
					</clipitem>
					<clipitem frameBlend="FALSE" id="clipitem-telop-545">
						<file id="file-2"/>
						<name>！</name>
						<rate>
							<timebase>59</timebase>
							<ntsc>TRUE</ntsc>
						</rate>
						<rate>
							<timebase>59</timebase>
							<ntsc>TRUE</ntsc>
						</rate>
						<duration>60</duration>
						<start>5092</start>
						<end>5152</end>
						<in>0</in>
						<out>60</out>
					</clipitem>
					<clipitem frameBlend="FALSE" id="clipitem-telop-555">
						<file id="file-2"/>
						<name>！</name>
						<rate>
							<timebase>59</timebase>
							<ntsc>TRUE</ntsc>
						</rate>
						<rate>
							<timebase>59</timebase>
							<ntsc>TRUE</ntsc>
						</rate>
						<duration>60</duration>
						<start>5164</start>
						<end>5224</end>
						<in>0</in>
						<out>60</out>
					</clipitem>
					<clipitem frameBlend="FALSE" id="clipitem-telop-560">
						<file id="file-2"/>
						<name>！</name>
						<rate>
							<timebase>59</timebase>
							<ntsc>TRUE</ntsc>
						</rate>
						<rate>
							<timebase>59</timebase>
							<ntsc>TRUE</ntsc>
						</rate>
						<duration>60</duration>
						<start>5236</start>
						<end>5296</end>
						<in>0</in>
						<out>60</out>
					</clipitem>
					<clipitem frameBlend="FALSE" id="clipitem-telop-568">
						<file id="file-2"/>
						<name>！</name>
						<rate>
							<timebase>59</timebase>
							<ntsc>TRUE</ntsc>
						</rate>
						<rate>
							<timebase>59</timebase>
							<ntsc>TRUE</ntsc>
						</rate>
						<duration>60</duration>
						<start>5296</start>
						<end>5356</end>
						<in>0</in>
						<out>60</out>
					</clipitem>
					<clipitem frameBlend="FALSE" id="clipitem-telop-577">
						<file id="file-2"/>
						<name>！</name>
						<rate>
							<timebase>59</timebase>
							<ntsc>TRUE</ntsc>
						</rate>
						<rate>
							<timebase>59</timebase>
							<ntsc>TRUE</ntsc>
						</rate>
						<duration>60</duration>
						<start>5398</start>
						<end>5458</end>
						<in>0</in>
						<out>60</out>
					</clipitem>
					<clipitem frameBlend="FALSE" id="clipitem-telop-582">
						<file id="file-2"/>
						<name>！</name>
						<rate>
							<timebase>59</timebase>
							<ntsc>TRUE</ntsc>
						</rate>
						<rate>
							<timebase>59</timebase>
							<ntsc>TRUE</ntsc>
						</rate>
						<duration>60</duration>
						<start>5500</start>
						<end>5560</end>
						<in>0</in>
						<out>60</out>
					</clipitem>
					<clipitem frameBlend="FALSE" id="clipitem-telop-594">
						<file id="file-2"/>
						<name>w</name>
						<rate>
							<timebase>59</timebase>
							<ntsc>TRUE</ntsc>
						</rate>
						<rate>
							<timebase>59</timebase>
							<ntsc>TRUE</ntsc>
						</rate>
						<duration>30</duration>
						<start>5566</start>
						<end>5596</end>
						<in>0</in>
						<out>30</out>
					</clipitem>
					<clipitem frameBlend="FALSE" id="clipitem-telop-600">
						<file id="file-2"/>
						<name>！</name>
						<rate>
							<timebase>59</timebase>
							<ntsc>TRUE</ntsc>
						</rate>
						<rate>
							<timebase>59</timebase>
							<ntsc>TRUE</ntsc>
						</rate>
						<duration>60</duration>
						<start>5596</start>
						<end>5656</end>
						<in>0</in>
						<out>60</out>
					</clipitem>
					<clipitem frameBlend="FALSE" id="clipitem-telop-609">
						<file id="file-2"/>
						<name>！</name>
						<rate>
							<timebase>59</timebase>
							<ntsc>TRUE</ntsc>
						</rate>
						<rate>
							<timebase>59</timebase>
							<ntsc>TRUE</ntsc>
						</rate>
						<duration>60</duration>
						<start>5674</start>
						<end>5734</end>
						<in>0</in>
						<out>60</out>
					</clipitem>
					<clipitem frameBlend="FALSE" id="clipitem-telop-614">
						<file id="file-2"/>
						<name>！</name>
						<rate>
							<timebase>59</timebase>
							<ntsc>TRUE</ntsc>
						</rate>
						<rate>
							<timebase>59</timebase>
							<ntsc>TRUE</ntsc>
						</rate>
						<duration>60</duration>
						<start>5740</start>
						<end>5800</end>
						<in>0</in>
						<out>60</out>
					</clipitem>
					<clipitem frameBlend="FALSE" id="clipitem-telop-623">
						<file id="file-2"/>
						<name>！</name>
						<rate>
							<timebase>59</timebase>
							<ntsc>TRUE</ntsc>
						</rate>
						<rate>
							<timebase>59</timebase>
							<ntsc>TRUE</ntsc>
						</rate>
						<duration>60</duration>
						<start>5800</start>
						<end>5860</end>
						<in>0</in>
						<out>60</out>
					</clipitem>
					<clipitem frameBlend="FALSE" id="clipitem-telop-631">
						<file id="file-2"/>
						<name>！</name>
						<rate>
							<timebase>59</timebase>
							<ntsc>TRUE</ntsc>
						</rate>
						<rate>
							<timebase>59</timebase>
							<ntsc>TRUE</ntsc>
						</rate>
						<duration>66</duration>
						<start>5860</start>
						<end>5926</end>
						<in>0</in>
						<out>66</out>
					</clipitem>
					<clipitem frameBlend="FALSE" id="clipitem-telop-638">
						<file id="file-2"/>
						<name>！</name>
						<rate>
							<timebase>59</timebase>
							<ntsc>TRUE</ntsc>
						</rate>
						<rate>
							<timebase>59</timebase>
							<ntsc>TRUE</ntsc>
						</rate>
						<duration>60</duration>
						<start>5932</start>
						<end>5992</end>
						<in>0</in>
						<out>60</out>
					</clipitem>
					<clipitem frameBlend="FALSE" id="clipitem-telop-644">
						<file id="file-2"/>
						<name>！</name>
						<rate>
							<timebase>59</timebase>
							<ntsc>TRUE</ntsc>
						</rate>
						<rate>
							<timebase>59</timebase>
							<ntsc>TRUE</ntsc>
						</rate>
						<duration>60</duration>
						<start>5992</start>
						<end>6052</end>
						<in>0</in>
						<out>60</out>
					</clipitem>
					<clipitem frameBlend="FALSE" id="clipitem-telop-653">
						<file id="file-2"/>
						<name>！</name>
						<rate>
							<timebase>59</timebase>
							<ntsc>TRUE</ntsc>
						</rate>
						<rate>
							<timebase>59</timebase>
							<ntsc>TRUE</ntsc>
						</rate>
						<duration>60</duration>
						<start>6058</start>
						<end>6118</end>
						<in>0</in>
						<out>60</out>
					</clipitem>
					<clipitem frameBlend="FALSE" id="clipitem-telop-662">
						<file id="file-2"/>
						<name>！</name>
						<rate>
							<timebase>59</timebase>
							<ntsc>TRUE</ntsc>
						</rate>
						<rate>
							<timebase>59</timebase>
							<ntsc>TRUE</ntsc>
						</rate>
						<duration>60</duration>
						<start>6124</start>
						<end>6184</end>
						<in>0</in>
						<out>60</out>
					</clipitem>
					<clipitem frameBlend="FALSE" id="clipitem-telop-670">
						<file id="file-2"/>
						<name>！</name>
						<rate>
							<timebase>59</timebase>
							<ntsc>TRUE</ntsc>
						</rate>
						<rate>
							<timebase>59</timebase>
							<ntsc>TRUE</ntsc>
						</rate>
						<duration>60</duration>
						<start>6190</start>
						<end>6250</end>
						<in>0</in>
						<out>60</out>
					</clipitem>
					<clipitem frameBlend="FALSE" id="clipitem-telop-679">
						<file id="file-2"/>
						<name>！</name>
						<rate>
							<timebase>59</timebase>
							<ntsc>TRUE</ntsc>
						</rate>
						<rate>
							<timebase>59</timebase>
							<ntsc>TRUE</ntsc>
						</rate>
						<duration>60</duration>
						<start>6268</start>
						<end>6328</end>
						<in>0</in>
						<out>60</out>
					</clipitem>
					<clipitem frameBlend="FALSE" id="clipitem-telop-690">
						<file id="file-2"/>
						<name>！</name>
						<rate>
							<timebase>59</timebase>
							<ntsc>TRUE</ntsc>
						</rate>
						<rate>
							<timebase>59</timebase>
							<ntsc>TRUE</ntsc>
						</rate>
						<duration>60</duration>
						<start>6334</start>
						<end>6394</end>
						<in>0</in>
						<out>60</out>
					</clipitem>
					<clipitem frameBlend="FALSE" id="clipitem-telop-699">
						<file id="file-2"/>
						<name>！</name>
						<rate>
							<timebase>59</timebase>
							<ntsc>TRUE</ntsc>
						</rate>
						<rate>
							<timebase>59</timebase>
							<ntsc>TRUE</ntsc>
						</rate>
						<duration>60</duration>
						<start>6394</start>
						<end>6454</end>
						<in>0</in>
						<out>60</out>
					</clipitem>
					<clipitem frameBlend="FALSE" id="clipitem-telop-704">
						<file id="file-2"/>
						<name>！</name>
						<rate>
							<timebase>59</timebase>
							<ntsc>TRUE</ntsc>
						</rate>
						<rate>
							<timebase>59</timebase>
							<ntsc>TRUE</ntsc>
						</rate>
						<duration>60</duration>
						<start>6454</start>
						<end>6514</end>
						<in>0</in>
						<out>60</out>
					</clipitem>
					<clipitem frameBlend="FALSE" id="clipitem-telop-709">
						<file id="file-2"/>
						<name>！</name>
						<rate>
							<timebase>59</timebase>
							<ntsc>TRUE</ntsc>
						</rate>
						<rate>
							<timebase>59</timebase>
							<ntsc>TRUE</ntsc>
						</rate>
						<duration>66</duration>
						<start>6526</start>
						<end>6592</end>
						<in>0</in>
						<out>66</out>
					</clipitem>
					<clipitem frameBlend="FALSE" id="clipitem-telop-718">
						<file id="file-2"/>
						<name>！</name>
						<rate>
							<timebase>59</timebase>
							<ntsc>TRUE</ntsc>
						</rate>
						<rate>
							<timebase>59</timebase>
							<ntsc>TRUE</ntsc>
						</rate>
						<duration>66</duration>
						<start>6598</start>
						<end>6664</end>
						<in>0</in>
						<out>66</out>
					</clipitem>
					<clipitem frameBlend="FALSE" id="clipitem-telop-723">
						<file id="file-2"/>
						<name>！</name>
						<rate>
							<timebase>59</timebase>
							<ntsc>TRUE</ntsc>
						</rate>
						<rate>
							<timebase>59</timebase>
							<ntsc>TRUE</ntsc>
						</rate>
						<duration>66</duration>
						<start>6682</start>
						<end>6748</end>
						<in>0</in>
						<out>66</out>
					</clipitem>
					<clipitem frameBlend="FALSE" id="clipitem-telop-727">
						<file id="file-2"/>
						<name>！</name>
						<rate>
							<timebase>59</timebase>
							<ntsc>TRUE</ntsc>
						</rate>
						<rate>
							<timebase>59</timebase>
							<ntsc>TRUE</ntsc>
						</rate>
						<duration>66</duration>
						<start>6748</start>
						<end>6814</end>
						<in>0</in>
						<out>66</out>
					</clipitem>
					<clipitem frameBlend="FALSE" id="clipitem-telop-733">
						<file id="file-2"/>
						<name>！</name>
						<rate>
							<timebase>59</timebase>
							<ntsc>TRUE</ntsc>
						</rate>
						<rate>
							<timebase>59</timebase>
							<ntsc>TRUE</ntsc>
						</rate>
						<duration>60</duration>
						<start>6814</start>
						<end>6874</end>
						<in>0</in>
						<out>60</out>
					</clipitem>
					<clipitem frameBlend="FALSE" id="clipitem-telop-737">
						<file id="file-2"/>
						<name>！</name>
						<rate>
							<timebase>59</timebase>
							<ntsc>TRUE</ntsc>
						</rate>
						<rate>
							<timebase>59</timebase>
							<ntsc>TRUE</ntsc>
						</rate>
						<duration>60</duration>
						<start>6874</start>
						<end>6934</end>
						<in>0</in>
						<out>60</out>
					</clipitem>
					<clipitem frameBlend="FALSE" id="clipitem-telop-747">
						<file id="file-2"/>
						<name>！</name>
						<rate>
							<timebase>59</timebase>
							<ntsc>TRUE</ntsc>
						</rate>
						<rate>
							<timebase>59</timebase>
							<ntsc>TRUE</ntsc>
						</rate>
						<duration>66</duration>
						<start>6940</start>
						<end>7006</end>
						<in>0</in>
						<out>66</out>
					</clipitem>
					<clipitem frameBlend="FALSE" id="clipitem-telop-753">
						<file id="file-2"/>
						<name>！</name>
						<rate>
							<timebase>59</timebase>
							<ntsc>TRUE</ntsc>
						</rate>
						<rate>
							<timebase>59</timebase>
							<ntsc>TRUE</ntsc>
						</rate>
						<duration>54</duration>
						<start>7006</start>
						<end>7060</end>
						<in>0</in>
						<out>54</out>
					</clipitem>
				</track>
				<track>
					<clipitem frameBlend="FALSE" id="clipitem-telop-3">
						<file id="file-2"/>
						<name>！</name>
						<rate>
							<timebase>59</timebase>
							<ntsc>TRUE</ntsc>
						</rate>
						<rate>
							<timebase>59</timebase>
							<ntsc>TRUE</ntsc>
						</rate>
						<duration>60</duration>
						<start>53</start>
						<end>113</end>
						<in>0</in>
						<out>60</out>
					</clipitem>
					<clipitem frameBlend="FALSE" id="clipitem-telop-11">
						<file id="file-2"/>
						<name>！</name>
						<rate>
							<timebase>59</timebase>
							<ntsc>TRUE</ntsc>
						</rate>
						<rate>
							<timebase>59</timebase>
							<ntsc>TRUE</ntsc>
						</rate>
						<duration>66</duration>
						<start>119</start>
						<end>185</end>
						<in>0</in>
						<out>66</out>
					</clipitem>
					<clipitem frameBlend="FALSE" id="clipitem-telop-18">
						<file id="file-2"/>
						<name>！</name>
						<rate>
							<timebase>59</timebase>
							<ntsc>TRUE</ntsc>
						</rate>
						<rate>
							<timebase>59</timebase>
							<ntsc>TRUE</ntsc>
						</rate>
						<duration>60</duration>
						<start>215</start>
						<end>275</end>
						<in>0</in>
						<out>60</out>
					</clipitem>
					<clipitem frameBlend="FALSE" id="clipitem-telop-26">
						<file id="file-2"/>
						<name>！</name>
						<rate>
							<timebase>59</timebase>
							<ntsc>TRUE</ntsc>
						</rate>
						<rate>
							<timebase>59</timebase>
							<ntsc>TRUE</ntsc>
						</rate>
						<duration>66</duration>
						<start>275</start>
						<end>341</end>
						<in>0</in>
						<out>66</out>
					</clipitem>
					<clipitem frameBlend="FALSE" id="clipitem-telop-33">
						<file id="file-2"/>
						<name>！</name>
						<rate>
							<timebase>59</timebase>
							<ntsc>TRUE</ntsc>
						</rate>
						<rate>
							<timebase>59</timebase>
							<ntsc>TRUE</ntsc>
						</rate>
						<duration>66</duration>
						<start>341</start>
						<end>407</end>
						<in>0</in>
						<out>66</out>
					</clipitem>
					<clipitem frameBlend="FALSE" id="clipitem-telop-39">
						<file id="file-2"/>
						<name>！</name>
						<rate>
							<timebase>59</timebase>
							<ntsc>TRUE</ntsc>
						</rate>
						<rate>
							<timebase>59</timebase>
							<ntsc>TRUE</ntsc>
						</rate>
						<duration>66</duration>
						<start>407</start>
						<end>473</end>
						<in>0</in>
						<out>66</out>
					</clipitem>
					<clipitem frameBlend="FALSE" id="clipitem-telop-44">
						<file id="file-2"/>
						<name>！</name>
						<rate>
							<timebase>59</timebase>
							<ntsc>TRUE</ntsc>
						</rate>
						<rate>
							<timebase>59</timebase>
							<ntsc>TRUE</ntsc>
						</rate>
						<duration>60</duration>
						<start>473</start>
						<end>533</end>
						<in>0</in>
						<out>60</out>
					</clipitem>
					<clipitem frameBlend="FALSE" id="clipitem-telop-53">
						<file id="file-2"/>
						<name>！</name>
						<rate>
							<timebase>59</timebase>
							<ntsc>TRUE</ntsc>
						</rate>
						<rate>
							<timebase>59</timebase>
							<ntsc>TRUE</ntsc>
						</rate>
						<duration>66</duration>
						<start>533</start>
						<end>599</end>
						<in>0</in>
						<out>66</out>
					</clipitem>
					<clipitem frameBlend="FALSE" id="clipitem-telop-63">
						<file id="file-2"/>
						<name>！</name>
						<rate>
							<timebase>59</timebase>
							<ntsc>TRUE</ntsc>
						</rate>
						<rate>
							<timebase>59</timebase>
							<ntsc>TRUE</ntsc>
						</rate>
						<duration>60</duration>
						<start>599</start>
						<end>659</end>
						<in>0</in>
						<out>60</out>
					</clipitem>
					<clipitem frameBlend="FALSE" id="clipitem-telop-72">
						<file id="file-2"/>
						<name>！</name>
						<rate>
							<timebase>59</timebase>
							<ntsc>TRUE</ntsc>
						</rate>
						<rate>
							<timebase>59</timebase>
							<ntsc>TRUE</ntsc>
						</rate>
						<duration>60</duration>
						<start>665</start>
						<end>725</end>
						<in>0</in>
						<out>60</out>
					</clipitem>
					<clipitem frameBlend="FALSE" id="clipitem-telop-80">
						<file id="file-2"/>
						<name>！</name>
						<rate>
							<timebase>59</timebase>
							<ntsc>TRUE</ntsc>
						</rate>
						<rate>
							<timebase>59</timebase>
							<ntsc>TRUE</ntsc>
						</rate>
						<duration>60</duration>
						<start>743</start>
						<end>803</end>
						<in>0</in>
						<out>60</out>
					</clipitem>
					<clipitem frameBlend="FALSE" id="clipitem-telop-89">
						<file id="file-2"/>
						<name>！</name>
						<rate>
							<timebase>59</timebase>
							<ntsc>TRUE</ntsc>
						</rate>
						<rate>
							<timebase>59</timebase>
							<ntsc>TRUE</ntsc>
						</rate>
						<duration>60</duration>
						<start>803</start>
						<end>863</end>
						<in>0</in>
						<out>60</out>
					</clipitem>
					<clipitem frameBlend="FALSE" id="clipitem-telop-98">
						<file id="file-2"/>
						<name>！</name>
						<rate>
							<timebase>59</timebase>
							<ntsc>TRUE</ntsc>
						</rate>
						<rate>
							<timebase>59</timebase>
							<ntsc>TRUE</ntsc>
						</rate>
						<duration>60</duration>
						<start>863</start>
						<end>923</end>
						<in>0</in>
						<out>60</out>
					</clipitem>
					<clipitem frameBlend="FALSE" id="clipitem-telop-108">
						<file id="file-2"/>
						<name>！</name>
						<rate>
							<timebase>59</timebase>
							<ntsc>TRUE</ntsc>
						</rate>
						<rate>
							<timebase>59</timebase>
							<ntsc>TRUE</ntsc>
						</rate>
						<duration>60</duration>
						<start>923</start>
						<end>983</end>
						<in>0</in>
						<out>60</out>
					</clipitem>
					<clipitem frameBlend="FALSE" id="clipitem-telop-119">
						<file id="file-2"/>
						<name>！</name>
						<rate>
							<timebase>59</timebase>
							<ntsc>TRUE</ntsc>
						</rate>
						<rate>
							<timebase>59</timebase>
							<ntsc>TRUE</ntsc>
						</rate>
						<duration>60</duration>
						<start>983</start>
						<end>1043</end>
						<in>0</in>
						<out>60</out>
					</clipitem>
					<clipitem frameBlend="FALSE" id="clipitem-telop-130">
						<file id="file-2"/>
						<name>！</name>
						<rate>
							<timebase>59</timebase>
							<ntsc>TRUE</ntsc>
						</rate>
						<rate>
							<timebase>59</timebase>
							<ntsc>TRUE</ntsc>
						</rate>
						<duration>66</duration>
						<start>1043</start>
						<end>1109</end>
						<in>0</in>
						<out>66</out>
					</clipitem>
					<clipitem frameBlend="FALSE" id="clipitem-telop-137">
						<file id="file-2"/>
						<name>！</name>
						<rate>
							<timebase>59</timebase>
							<ntsc>TRUE</ntsc>
						</rate>
						<rate>
							<timebase>59</timebase>
							<ntsc>TRUE</ntsc>
						</rate>
						<duration>66</duration>
						<start>1109</start>
						<end>1175</end>
						<in>0</in>
						<out>66</out>
					</clipitem>
					<clipitem frameBlend="FALSE" id="clipitem-telop-143">
						<file id="file-2"/>
						<name>！</name>
						<rate>
							<timebase>59</timebase>
							<ntsc>TRUE</ntsc>
						</rate>
						<rate>
							<timebase>59</timebase>
							<ntsc>TRUE</ntsc>
						</rate>
						<duration>60</duration>
						<start>1181</start>
						<end>1241</end>
						<in>0</in>
						<out>60</out>
					</clipitem>
					<clipitem frameBlend="FALSE" id="clipitem-telop-149">
						<file id="file-2"/>
						<name>！</name>
						<rate>
							<timebase>59</timebase>
							<ntsc>TRUE</ntsc>
						</rate>
						<rate>
							<timebase>59</timebase>
							<ntsc>TRUE</ntsc>
						</rate>
						<duration>60</duration>
						<start>1253</start>
						<end>1313</end>
						<in>0</in>
						<out>60</out>
					</clipitem>
					<clipitem frameBlend="FALSE" id="clipitem-telop-158">
						<file id="file-2"/>
						<name>！</name>
						<rate>
							<timebase>59</timebase>
							<ntsc>TRUE</ntsc>
						</rate>
						<rate>
							<timebase>59</timebase>
							<ntsc>TRUE</ntsc>
						</rate>
						<duration>60</duration>
						<start>1331</start>
						<end>1391</end>
						<in>0</in>
						<out>60</out>
					</clipitem>
					<clipitem frameBlend="FALSE" id="clipitem-telop-167">
						<file id="file-2"/>
						<name>！</name>
						<rate>
							<timebase>59</timebase>
							<ntsc>TRUE</ntsc>
						</rate>
						<rate>
							<timebase>59</timebase>
							<ntsc>TRUE</ntsc>
						</rate>
						<duration>60</duration>
						<start>1403</start>
						<end>1463</end>
						<in>0</in>
						<out>60</out>
					</clipitem>
					<clipitem frameBlend="FALSE" id="clipitem-telop-175">
						<file id="file-2"/>
						<name>！</name>
						<rate>
							<timebase>59</timebase>
							<ntsc>TRUE</ntsc>
						</rate>
						<rate>
							<timebase>59</timebase>
							<ntsc>TRUE</ntsc>
						</rate>
						<duration>60</duration>
						<start>1475</start>
						<end>1535</end>
						<in>0</in>
						<out>60</out>
					</clipitem>
					<clipitem frameBlend="FALSE" id="clipitem-telop-182">
						<file id="file-2"/>
						<name>！</name>
						<rate>
							<timebase>59</timebase>
							<ntsc>TRUE</ntsc>
						</rate>
						<rate>
							<timebase>59</timebase>
							<ntsc>TRUE</ntsc>
						</rate>
						<duration>60</duration>
						<start>1535</start>
						<end>1595</end>
						<in>0</in>
						<out>60</out>
					</clipitem>
					<clipitem frameBlend="FALSE" id="clipitem-telop-187">
						<file id="file-2"/>
						<name>！</name>
						<rate>
							<timebase>59</timebase>
							<ntsc>TRUE</ntsc>
						</rate>
						<rate>
							<timebase>59</timebase>
							<ntsc>TRUE</ntsc>
						</rate>
						<duration>60</duration>
						<start>1601</start>
						<end>1661</end>
						<in>0</in>
						<out>60</out>
					</clipitem>
					<clipitem frameBlend="FALSE" id="clipitem-telop-196">
						<file id="file-2"/>
						<name>！</name>
						<rate>
							<timebase>59</timebase>
							<ntsc>TRUE</ntsc>
						</rate>
						<rate>
							<timebase>59</timebase>
							<ntsc>TRUE</ntsc>
						</rate>
						<duration>60</duration>
						<start>1661</start>
						<end>1721</end>
						<in>0</in>
						<out>60</out>
					</clipitem>
					<clipitem frameBlend="FALSE" id="clipitem-telop-202">
						<file id="file-2"/>
						<name>！</name>
						<rate>
							<timebase>59</timebase>
							<ntsc>TRUE</ntsc>
						</rate>
						<rate>
							<timebase>59</timebase>
							<ntsc>TRUE</ntsc>
						</rate>
						<duration>60</duration>
						<start>1727</start>
						<end>1787</end>
						<in>0</in>
						<out>60</out>
					</clipitem>
					<clipitem frameBlend="FALSE" id="clipitem-telop-211">
						<file id="file-2"/>
						<name>！</name>
						<rate>
							<timebase>59</timebase>
							<ntsc>TRUE</ntsc>
						</rate>
						<rate>
							<timebase>59</timebase>
							<ntsc>TRUE</ntsc>
						</rate>
						<duration>60</duration>
						<start>1787</start>
						<end>1847</end>
						<in>0</in>
						<out>60</out>
					</clipitem>
					<clipitem frameBlend="FALSE" id="clipitem-telop-221">
						<file id="file-2"/>
						<name>！</name>
						<rate>
							<timebase>59</timebase>
							<ntsc>TRUE</ntsc>
						</rate>
						<rate>
							<timebase>59</timebase>
							<ntsc>TRUE</ntsc>
						</rate>
						<duration>60</duration>
						<start>1877</start>
						<end>1937</end>
						<in>0</in>
						<out>60</out>
					</clipitem>
					<clipitem frameBlend="FALSE" id="clipitem-telop-230">
						<file id="file-2"/>
						<name>！</name>
						<rate>
							<timebase>59</timebase>
							<ntsc>TRUE</ntsc>
						</rate>
						<rate>
							<timebase>59</timebase>
							<ntsc>TRUE</ntsc>
						</rate>
						<duration>66</duration>
						<start>1937</start>
						<end>2003</end>
						<in>0</in>
						<out>66</out>
					</clipitem>
					<clipitem frameBlend="FALSE" id="clipitem-telop-238">
						<file id="file-2"/>
						<name>！</name>
						<rate>
							<timebase>59</timebase>
							<ntsc>TRUE</ntsc>
						</rate>
						<rate>
							<timebase>59</timebase>
							<ntsc>TRUE</ntsc>
						</rate>
						<duration>60</duration>
						<start>2009</start>
						<end>2069</end>
						<in>0</in>
						<out>60</out>
					</clipitem>
					<clipitem frameBlend="FALSE" id="clipitem-telop-245">
						<file id="file-2"/>
						<name>！</name>
						<rate>
							<timebase>59</timebase>
							<ntsc>TRUE</ntsc>
						</rate>
						<rate>
							<timebase>59</timebase>
							<ntsc>TRUE</ntsc>
						</rate>
						<duration>60</duration>
						<start>2153</start>
						<end>2213</end>
						<in>0</in>
						<out>60</out>
					</clipitem>
					<clipitem frameBlend="FALSE" id="clipitem-telop-254">
						<file id="file-2"/>
						<name>！</name>
						<rate>
							<timebase>59</timebase>
							<ntsc>TRUE</ntsc>
						</rate>
						<rate>
							<timebase>59</timebase>
							<ntsc>TRUE</ntsc>
						</rate>
						<duration>60</duration>
						<start>2303</start>
						<end>2363</end>
						<in>0</in>
						<out>60</out>
					</clipitem>
					<clipitem frameBlend="FALSE" id="clipitem-telop-260">
						<file id="file-2"/>
						<name>！</name>
						<rate>
							<timebase>59</timebase>
							<ntsc>TRUE</ntsc>
						</rate>
						<rate>
							<timebase>59</timebase>
							<ntsc>TRUE</ntsc>
						</rate>
						<duration>66</duration>
						<start>2369</start>
						<end>2435</end>
						<in>0</in>
						<out>66</out>
					</clipitem>
					<clipitem frameBlend="FALSE" id="clipitem-telop-265">
						<file id="file-2"/>
						<name>！</name>
						<rate>
							<timebase>59</timebase>
							<ntsc>TRUE</ntsc>
						</rate>
						<rate>
							<timebase>59</timebase>
							<ntsc>TRUE</ntsc>
						</rate>
						<duration>60</duration>
						<start>2435</start>
						<end>2495</end>
						<in>0</in>
						<out>60</out>
					</clipitem>
					<clipitem frameBlend="FALSE" id="clipitem-telop-271">
						<file id="file-2"/>
						<name>！</name>
						<rate>
							<timebase>59</timebase>
							<ntsc>TRUE</ntsc>
						</rate>
						<rate>
							<timebase>59</timebase>
							<ntsc>TRUE</ntsc>
						</rate>
						<duration>60</duration>
						<start>2513</start>
						<end>2573</end>
						<in>0</in>
						<out>60</out>
					</clipitem>
					<clipitem frameBlend="FALSE" id="clipitem-telop-279">
						<file id="file-2"/>
						<name>！</name>
						<rate>
							<timebase>59</timebase>
							<ntsc>TRUE</ntsc>
						</rate>
						<rate>
							<timebase>59</timebase>
							<ntsc>TRUE</ntsc>
						</rate>
						<duration>60</duration>
						<start>2579</start>
						<end>2639</end>
						<in>0</in>
						<out>60</out>
					</clipitem>
					<clipitem frameBlend="FALSE" id="clipitem-telop-287">
						<file id="file-2"/>
						<name>！</name>
						<rate>
							<timebase>59</timebase>
							<ntsc>TRUE</ntsc>
						</rate>
						<rate>
							<timebase>59</timebase>
							<ntsc>TRUE</ntsc>
						</rate>
						<duration>60</duration>
						<start>2645</start>
						<end>2705</end>
						<in>0</in>
						<out>60</out>
					</clipitem>
					<clipitem frameBlend="FALSE" id="clipitem-telop-294">
						<file id="file-2"/>
						<name>！</name>
						<rate>
							<timebase>59</timebase>
							<ntsc>TRUE</ntsc>
						</rate>
						<rate>
							<timebase>59</timebase>
							<ntsc>TRUE</ntsc>
						</rate>
						<duration>66</duration>
						<start>2723</start>
						<end>2789</end>
						<in>0</in>
						<out>66</out>
					</clipitem>
					<clipitem frameBlend="FALSE" id="clipitem-telop-303">
						<file id="file-2"/>
						<name>！</name>
						<rate>
							<timebase>59</timebase>
							<ntsc>TRUE</ntsc>
						</rate>
						<rate>
							<timebase>59</timebase>
							<ntsc>TRUE</ntsc>
						</rate>
						<duration>66</duration>
						<start>2789</start>
						<end>2855</end>
						<in>0</in>
						<out>66</out>
					</clipitem>
					<clipitem frameBlend="FALSE" id="clipitem-telop-311">
						<file id="file-2"/>
						<name>！</name>
						<rate>
							<timebase>59</timebase>
							<ntsc>TRUE</ntsc>
						</rate>
						<rate>
							<timebase>59</timebase>
							<ntsc>TRUE</ntsc>
						</rate>
						<duration>66</duration>
						<start>2855</start>
						<end>2921</end>
						<in>0</in>
						<out>66</out>
					</clipitem>
					<clipitem frameBlend="FALSE" id="clipitem-telop-317">
						<file id="file-2"/>
						<name>！</name>
						<rate>
							<timebase>59</timebase>
							<ntsc>TRUE</ntsc>
						</rate>
						<rate>
							<timebase>59</timebase>
							<ntsc>TRUE</ntsc>
						</rate>
						<duration>60</duration>
						<start>2921</start>
						<end>2981</end>
						<in>0</in>
						<out>60</out>
					</clipitem>
					<clipitem frameBlend="FALSE" id="clipitem-telop-322">
						<file id="file-2"/>
						<name>！</name>
						<rate>
							<timebase>59</timebase>
							<ntsc>TRUE</ntsc>
						</rate>
						<rate>
							<timebase>59</timebase>
							<ntsc>TRUE</ntsc>
						</rate>
						<duration>66</duration>
						<start>2981</start>
						<end>3047</end>
						<in>0</in>
						<out>66</out>
					</clipitem>
					<clipitem frameBlend="FALSE" id="clipitem-telop-332">
						<file id="file-2"/>
						<name>w</name>
						<rate>
							<timebase>59</timebase>
							<ntsc>TRUE</ntsc>
						</rate>
						<rate>
							<timebase>59</timebase>
							<ntsc>TRUE</ntsc>
						</rate>
						<duration>30</duration>
						<start>3047</start>
						<end>3077</end>
						<in>0</in>
						<out>30</out>
					</clipitem>
					<clipitem frameBlend="FALSE" id="clipitem-telop-335">
						<file id="file-2"/>
						<name>！</name>
						<rate>
							<timebase>59</timebase>
							<ntsc>TRUE</ntsc>
						</rate>
						<rate>
							<timebase>59</timebase>
							<ntsc>TRUE</ntsc>
						</rate>
						<duration>60</duration>
						<start>3113</start>
						<end>3173</end>
						<in>0</in>
						<out>60</out>
					</clipitem>
					<clipitem frameBlend="FALSE" id="clipitem-telop-344">
						<file id="file-2"/>
						<name>！</name>
						<rate>
							<timebase>59</timebase>
							<ntsc>TRUE</ntsc>
						</rate>
						<rate>
							<timebase>59</timebase>
							<ntsc>TRUE</ntsc>
						</rate>
						<duration>60</duration>
						<start>3179</start>
						<end>3239</end>
						<in>0</in>
						<out>60</out>
					</clipitem>
					<clipitem frameBlend="FALSE" id="clipitem-telop-355">
						<file id="file-2"/>
						<name>！</name>
						<rate>
							<timebase>59</timebase>
							<ntsc>TRUE</ntsc>
						</rate>
						<rate>
							<timebase>59</timebase>
							<ntsc>TRUE</ntsc>
						</rate>
						<duration>60</duration>
						<start>3251</start>
						<end>3311</end>
						<in>0</in>
						<out>60</out>
					</clipitem>
					<clipitem frameBlend="FALSE" id="clipitem-telop-362">
						<file id="file-2"/>
						<name>！</name>
						<rate>
							<timebase>59</timebase>
							<ntsc>TRUE</ntsc>
						</rate>
						<rate>
							<timebase>59</timebase>
							<ntsc>TRUE</ntsc>
						</rate>
						<duration>60</duration>
						<start>3317</start>
						<end>3377</end>
						<in>0</in>
						<out>60</out>
					</clipitem>
					<clipitem frameBlend="FALSE" id="clipitem-telop-369">
						<file id="file-2"/>
						<name>！</name>
						<rate>
							<timebase>59</timebase>
							<ntsc>TRUE</ntsc>
						</rate>
						<rate>
							<timebase>59</timebase>
							<ntsc>TRUE</ntsc>
						</rate>
						<duration>60</duration>
						<start>3383</start>
						<end>3443</end>
						<in>0</in>
						<out>60</out>
					</clipitem>
					<clipitem frameBlend="FALSE" id="clipitem-telop-376">
						<file id="file-2"/>
						<name>！</name>
						<rate>
							<timebase>59</timebase>
							<ntsc>TRUE</ntsc>
						</rate>
						<rate>
							<timebase>59</timebase>
							<ntsc>TRUE</ntsc>
						</rate>
						<duration>60</duration>
						<start>3449</start>
						<end>3509</end>
						<in>0</in>
						<out>60</out>
					</clipitem>
					<clipitem frameBlend="FALSE" id="clipitem-telop-382">
						<file id="file-2"/>
						<name>！</name>
						<rate>
							<timebase>59</timebase>
							<ntsc>TRUE</ntsc>
						</rate>
						<rate>
							<timebase>59</timebase>
							<ntsc>TRUE</ntsc>
						</rate>
						<duration>59</duration>
						<start>3509</start>
						<end>3568</end>
						<in>0</in>
						<out>59</out>
					</clipitem>
					<clipitem frameBlend="FALSE" id="clipitem-telop-388">
						<file id="file-2"/>
						<name>！</name>
						<rate>
							<timebase>59</timebase>
							<ntsc>TRUE</ntsc>
						</rate>
						<rate>
							<timebase>59</timebase>
							<ntsc>TRUE</ntsc>
						</rate>
						<duration>60</duration>
						<start>3580</start>
						<end>3640</end>
						<in>0</in>
						<out>60</out>
					</clipitem>
					<clipitem frameBlend="FALSE" id="clipitem-telop-396">
						<file id="file-2"/>
						<name>！</name>
						<rate>
							<timebase>59</timebase>
							<ntsc>TRUE</ntsc>
						</rate>
						<rate>
							<timebase>59</timebase>
							<ntsc>TRUE</ntsc>
						</rate>
						<duration>66</duration>
						<start>3640</start>
						<end>3706</end>
						<in>0</in>
						<out>66</out>
					</clipitem>
					<clipitem frameBlend="FALSE" id="clipitem-telop-402">
						<file id="file-2"/>
						<name>！</name>
						<rate>
							<timebase>59</timebase>
							<ntsc>TRUE</ntsc>
						</rate>
						<rate>
							<timebase>59</timebase>
							<ntsc>TRUE</ntsc>
						</rate>
						<duration>60</duration>
						<start>3712</start>
						<end>3772</end>
						<in>0</in>
						<out>60</out>
					</clipitem>
					<clipitem frameBlend="FALSE" id="clipitem-telop-413">
						<file id="file-2"/>
						<name>！</name>
						<rate>
							<timebase>59</timebase>
							<ntsc>TRUE</ntsc>
						</rate>
						<rate>
							<timebase>59</timebase>
							<ntsc>TRUE</ntsc>
						</rate>
						<duration>60</duration>
						<start>3772</start>
						<end>3832</end>
						<in>0</in>
						<out>60</out>
					</clipitem>
					<clipitem frameBlend="FALSE" id="clipitem-telop-420">
						<file id="file-2"/>
						<name>！</name>
						<rate>
							<timebase>59</timebase>
							<ntsc>TRUE</ntsc>
						</rate>
						<rate>
							<timebase>59</timebase>
							<ntsc>TRUE</ntsc>
						</rate>
						<duration>60</duration>
						<start>3838</start>
						<end>3898</end>
						<in>0</in>
						<out>60</out>
					</clipitem>
					<clipitem frameBlend="FALSE" id="clipitem-telop-429">
						<file id="file-2"/>
						<name>！</name>
						<rate>
							<timebase>59</timebase>
							<ntsc>TRUE</ntsc>
						</rate>
						<rate>
							<timebase>59</timebase>
							<ntsc>TRUE</ntsc>
						</rate>
						<duration>60</duration>
						<start>3970</start>
						<end>4030</end>
						<in>0</in>
						<out>60</out>
					</clipitem>
					<clipitem frameBlend="FALSE" id="clipitem-telop-434">
						<file id="file-2"/>
						<name>！</name>
						<rate>
							<timebase>59</timebase>
							<ntsc>TRUE</ntsc>
						</rate>
						<rate>
							<timebase>59</timebase>
							<ntsc>TRUE</ntsc>
						</rate>
						<duration>60</duration>
						<start>4048</start>
						<end>4108</end>
						<in>0</in>
						<out>60</out>
					</clipitem>
					<clipitem frameBlend="FALSE" id="clipitem-telop-440">
						<file id="file-2"/>
						<name>！</name>
						<rate>
							<timebase>59</timebase>
							<ntsc>TRUE</ntsc>
						</rate>
						<rate>
							<timebase>59</timebase>
							<ntsc>TRUE</ntsc>
						</rate>
						<duration>60</duration>
						<start>4114</start>
						<end>4174</end>
						<in>0</in>
						<out>60</out>
					</clipitem>
					<clipitem frameBlend="FALSE" id="clipitem-telop-444">
						<file id="file-2"/>
						<name>！</name>
						<rate>
							<timebase>59</timebase>
							<ntsc>TRUE</ntsc>
						</rate>
						<rate>
							<timebase>59</timebase>
							<ntsc>TRUE</ntsc>
						</rate>
						<duration>60</duration>
						<start>4180</start>
						<end>4240</end>
						<in>0</in>
						<out>60</out>
					</clipitem>
					<clipitem frameBlend="FALSE" id="clipitem-telop-451">
						<file id="file-2"/>
						<name>！</name>
						<rate>
							<timebase>59</timebase>
							<ntsc>TRUE</ntsc>
						</rate>
						<rate>
							<timebase>59</timebase>
							<ntsc>TRUE</ntsc>
						</rate>
						<duration>60</duration>
						<start>4258</start>
						<end>4318</end>
						<in>0</in>
						<out>60</out>
					</clipitem>
					<clipitem frameBlend="FALSE" id="clipitem-telop-460">
						<file id="file-2"/>
						<name>！</name>
						<rate>
							<timebase>59</timebase>
							<ntsc>TRUE</ntsc>
						</rate>
						<rate>
							<timebase>59</timebase>
							<ntsc>TRUE</ntsc>
						</rate>
						<duration>66</duration>
						<start>4318</start>
						<end>4384</end>
						<in>0</in>
						<out>66</out>
					</clipitem>
					<clipitem frameBlend="FALSE" id="clipitem-telop-467">
						<file id="file-2"/>
						<name>！</name>
						<rate>
							<timebase>59</timebase>
							<ntsc>TRUE</ntsc>
						</rate>
						<rate>
							<timebase>59</timebase>
							<ntsc>TRUE</ntsc>
						</rate>
						<duration>60</duration>
						<start>4390</start>
						<end>4450</end>
						<in>0</in>
						<out>60</out>
					</clipitem>
					<clipitem frameBlend="FALSE" id="clipitem-telop-476">
						<file id="file-2"/>
						<name>！</name>
						<rate>
							<timebase>59</timebase>
							<ntsc>TRUE</ntsc>
						</rate>
						<rate>
							<timebase>59</timebase>
							<ntsc>TRUE</ntsc>
						</rate>
						<duration>60</duration>
						<start>4450</start>
						<end>4510</end>
						<in>0</in>
						<out>60</out>
					</clipitem>
					<clipitem frameBlend="FALSE" id="clipitem-telop-488">
						<file id="file-2"/>
						<name>！</name>
						<rate>
							<timebase>59</timebase>
							<ntsc>TRUE</ntsc>
						</rate>
						<rate>
							<timebase>59</timebase>
							<ntsc>TRUE</ntsc>
						</rate>
						<duration>60</duration>
						<start>4534</start>
						<end>4594</end>
						<in>0</in>
						<out>60</out>
					</clipitem>
					<clipitem frameBlend="FALSE" id="clipitem-telop-495">
						<file id="file-2"/>
						<name>！</name>
						<rate>
							<timebase>59</timebase>
							<ntsc>TRUE</ntsc>
						</rate>
						<rate>
							<timebase>59</timebase>
							<ntsc>TRUE</ntsc>
						</rate>
						<duration>60</duration>
						<start>4594</start>
						<end>4654</end>
						<in>0</in>
						<out>60</out>
					</clipitem>
					<clipitem frameBlend="FALSE" id="clipitem-telop-501">
						<file id="file-2"/>
						<name>！</name>
						<rate>
							<timebase>59</timebase>
							<ntsc>TRUE</ntsc>
						</rate>
						<rate>
							<timebase>59</timebase>
							<ntsc>TRUE</ntsc>
						</rate>
						<duration>66</duration>
						<start>4654</start>
						<end>4720</end>
						<in>0</in>
						<out>66</out>
					</clipitem>
					<clipitem frameBlend="FALSE" id="clipitem-telop-508">
						<file id="file-2"/>
						<name>！</name>
						<rate>
							<timebase>59</timebase>
							<ntsc>TRUE</ntsc>
						</rate>
						<rate>
							<timebase>59</timebase>
							<ntsc>TRUE</ntsc>
						</rate>
						<duration>60</duration>
						<start>4726</start>
						<end>4786</end>
						<in>0</in>
						<out>60</out>
					</clipitem>
					<clipitem frameBlend="FALSE" id="clipitem-telop-514">
						<file id="file-2"/>
						<name>！</name>
						<rate>
							<timebase>59</timebase>
							<ntsc>TRUE</ntsc>
						</rate>
						<rate>
							<timebase>59</timebase>
							<ntsc>TRUE</ntsc>
						</rate>
						<duration>60</duration>
						<start>4792</start>
						<end>4852</end>
						<in>0</in>
						<out>60</out>
					</clipitem>
					<clipitem frameBlend="FALSE" id="clipitem-telop-526">
						<file id="file-2"/>
						<name>！</name>
						<rate>
							<timebase>59</timebase>
							<ntsc>TRUE</ntsc>
						</rate>
						<rate>
							<timebase>59</timebase>
							<ntsc>TRUE</ntsc>
						</rate>
						<duration>60</duration>
						<start>4888</start>
						<end>4948</end>
						<in>0</in>
						<out>60</out>
					</clipitem>
					<clipitem frameBlend="FALSE" id="clipitem-telop-533">
						<file id="file-2"/>
						<name>！</name>
						<rate>
							<timebase>59</timebase>
							<ntsc>TRUE</ntsc>
						</rate>
						<rate>
							<timebase>59</timebase>
							<ntsc>TRUE</ntsc>
						</rate>
						<duration>60</duration>
						<start>4966</start>
						<end>5026</end>
						<in>0</in>
						<out>60</out>
					</clipitem>
					<clipitem frameBlend="FALSE" id="clipitem-telop-538">
						<file id="file-2"/>
						<name>！</name>
						<rate>
							<timebase>59</timebase>
							<ntsc>TRUE</ntsc>
						</rate>
						<rate>
							<timebase>59</timebase>
							<ntsc>TRUE</ntsc>
						</rate>
						<duration>60</duration>
						<start>5026</start>
						<end>5086</end>
						<in>0</in>
						<out>60</out>
					</clipitem>
					<clipitem frameBlend="FALSE" id="clipitem-telop-546">
						<file id="file-2"/>
						<name>全力なんだ</name>
						<rate>
							<timebase>59</timebase>
							<ntsc>TRUE</ntsc>
						</rate>
						<rate>
							<timebase>59</timebase>
							<ntsc>TRUE</ntsc>
						</rate>
						<duration>180</duration>
						<start>5098</start>
						<end>5278</end>
						<in>0</in>
						<out>180</out>
					</clipitem>
					<clipitem frameBlend="FALSE" id="clipitem-telop-566">
						<file id="file-2"/>
						<name>全力で パーと目指してる</name>
						<rate>
							<timebase>59</timebase>
							<ntsc>TRUE</ntsc>
						</rate>
						<rate>
							<timebase>59</timebase>
							<ntsc>TRUE</ntsc>
						</rate>
						<duration>240</duration>
						<start>5278</start>
						<end>5518</end>
						<in>0</in>
						<out>240</out>
					</clipitem>
					<clipitem frameBlend="FALSE" id="clipitem-telop-586">
						<file id="file-2"/>
						<name>パーが目指してるからね</name>
						<rate>
							<timebase>59</timebase>
							<ntsc>TRUE</ntsc>
						</rate>
						<rate>
							<timebase>59</timebase>
							<ntsc>TRUE</ntsc>
						</rate>
						<duration>180</duration>
						<start>5518</start>
						<end>5698</end>
						<in>0</in>
						<out>180</out>
					</clipitem>
					<clipitem frameBlend="FALSE" id="clipitem-telop-611">
						<file id="file-2"/>
						<name>！</name>
						<rate>
							<timebase>59</timebase>
							<ntsc>TRUE</ntsc>
						</rate>
						<rate>
							<timebase>59</timebase>
							<ntsc>TRUE</ntsc>
						</rate>
						<duration>60</duration>
						<start>5698</start>
						<end>5758</end>
						<in>0</in>
						<out>60</out>
					</clipitem>
					<clipitem frameBlend="FALSE" id="clipitem-telop-616">
						<file id="file-2"/>
						<name>！</name>
						<rate>
							<timebase>59</timebase>
							<ntsc>TRUE</ntsc>
						</rate>
						<rate>
							<timebase>59</timebase>
							<ntsc>TRUE</ntsc>
						</rate>
						<duration>60</duration>
						<start>5764</start>
						<end>5824</end>
						<in>0</in>
						<out>60</out>
					</clipitem>
					<clipitem frameBlend="FALSE" id="clipitem-telop-629">
						<file id="file-2"/>
						<name>！</name>
						<rate>
							<timebase>59</timebase>
							<ntsc>TRUE</ntsc>
						</rate>
						<rate>
							<timebase>59</timebase>
							<ntsc>TRUE</ntsc>
						</rate>
						<duration>60</duration>
						<start>5830</start>
						<end>5890</end>
						<in>0</in>
						<out>60</out>
					</clipitem>
					<clipitem frameBlend="FALSE" id="clipitem-telop-633">
						<file id="file-2"/>
						<name>！</name>
						<rate>
							<timebase>59</timebase>
							<ntsc>TRUE</ntsc>
						</rate>
						<rate>
							<timebase>59</timebase>
							<ntsc>TRUE</ntsc>
						</rate>
						<duration>60</duration>
						<start>5896</start>
						<end>5956</end>
						<in>0</in>
						<out>60</out>
					</clipitem>
					<clipitem frameBlend="FALSE" id="clipitem-telop-641">
						<file id="file-2"/>
						<name>！</name>
						<rate>
							<timebase>59</timebase>
							<ntsc>TRUE</ntsc>
						</rate>
						<rate>
							<timebase>59</timebase>
							<ntsc>TRUE</ntsc>
						</rate>
						<duration>60</duration>
						<start>5968</start>
						<end>6028</end>
						<in>0</in>
						<out>60</out>
					</clipitem>
					<clipitem frameBlend="FALSE" id="clipitem-telop-650">
						<file id="file-2"/>
						<name>！</name>
						<rate>
							<timebase>59</timebase>
							<ntsc>TRUE</ntsc>
						</rate>
						<rate>
							<timebase>59</timebase>
							<ntsc>TRUE</ntsc>
						</rate>
						<duration>66</duration>
						<start>6028</start>
						<end>6094</end>
						<in>0</in>
						<out>66</out>
					</clipitem>
					<clipitem frameBlend="FALSE" id="clipitem-telop-658">
						<file id="file-2"/>
						<name>！</name>
						<rate>
							<timebase>59</timebase>
							<ntsc>TRUE</ntsc>
						</rate>
						<rate>
							<timebase>59</timebase>
							<ntsc>TRUE</ntsc>
						</rate>
						<duration>60</duration>
						<start>6100</start>
						<end>6160</end>
						<in>0</in>
						<out>60</out>
					</clipitem>
					<clipitem frameBlend="FALSE" id="clipitem-telop-666">
						<file id="file-2"/>
						<name>！</name>
						<rate>
							<timebase>59</timebase>
							<ntsc>TRUE</ntsc>
						</rate>
						<rate>
							<timebase>59</timebase>
							<ntsc>TRUE</ntsc>
						</rate>
						<duration>60</duration>
						<start>6166</start>
						<end>6226</end>
						<in>0</in>
						<out>60</out>
					</clipitem>
					<clipitem frameBlend="FALSE" id="clipitem-telop-673">
						<file id="file-2"/>
						<name>！</name>
						<rate>
							<timebase>59</timebase>
							<ntsc>TRUE</ntsc>
						</rate>
						<rate>
							<timebase>59</timebase>
							<ntsc>TRUE</ntsc>
						</rate>
						<duration>60</duration>
						<start>6226</start>
						<end>6286</end>
						<in>0</in>
						<out>60</out>
					</clipitem>
					<clipitem frameBlend="FALSE" id="clipitem-telop-683">
						<file id="file-2"/>
						<name>！</name>
						<rate>
							<timebase>59</timebase>
							<ntsc>TRUE</ntsc>
						</rate>
						<rate>
							<timebase>59</timebase>
							<ntsc>TRUE</ntsc>
						</rate>
						<duration>60</duration>
						<start>6286</start>
						<end>6346</end>
						<in>0</in>
						<out>60</out>
					</clipitem>
					<clipitem frameBlend="FALSE" id="clipitem-telop-693">
						<file id="file-2"/>
						<name>！</name>
						<rate>
							<timebase>59</timebase>
							<ntsc>TRUE</ntsc>
						</rate>
						<rate>
							<timebase>59</timebase>
							<ntsc>TRUE</ntsc>
						</rate>
						<duration>60</duration>
						<start>6352</start>
						<end>6412</end>
						<in>0</in>
						<out>60</out>
					</clipitem>
					<clipitem frameBlend="FALSE" id="clipitem-telop-701">
						<file id="file-2"/>
						<name>！</name>
						<rate>
							<timebase>59</timebase>
							<ntsc>TRUE</ntsc>
						</rate>
						<rate>
							<timebase>59</timebase>
							<ntsc>TRUE</ntsc>
						</rate>
						<duration>66</duration>
						<start>6412</start>
						<end>6478</end>
						<in>0</in>
						<out>66</out>
					</clipitem>
					<clipitem frameBlend="FALSE" id="clipitem-telop-708">
						<file id="file-2"/>
						<name>！</name>
						<rate>
							<timebase>59</timebase>
							<ntsc>TRUE</ntsc>
						</rate>
						<rate>
							<timebase>59</timebase>
							<ntsc>TRUE</ntsc>
						</rate>
						<duration>60</duration>
						<start>6478</start>
						<end>6538</end>
						<in>0</in>
						<out>60</out>
					</clipitem>
					<clipitem frameBlend="FALSE" id="clipitem-telop-712">
						<file id="file-2"/>
						<name>！</name>
						<rate>
							<timebase>59</timebase>
							<ntsc>TRUE</ntsc>
						</rate>
						<rate>
							<timebase>59</timebase>
							<ntsc>TRUE</ntsc>
						</rate>
						<duration>60</duration>
						<start>6544</start>
						<end>6604</end>
						<in>0</in>
						<out>60</out>
					</clipitem>
					<clipitem frameBlend="FALSE" id="clipitem-telop-719">
						<file id="file-2"/>
						<name>！</name>
						<rate>
							<timebase>59</timebase>
							<ntsc>TRUE</ntsc>
						</rate>
						<rate>
							<timebase>59</timebase>
							<ntsc>TRUE</ntsc>
						</rate>
						<duration>60</duration>
						<start>6604</start>
						<end>6664</end>
						<in>0</in>
						<out>60</out>
					</clipitem>
					<clipitem frameBlend="FALSE" id="clipitem-telop-724">
						<file id="file-2"/>
						<name>！</name>
						<rate>
							<timebase>59</timebase>
							<ntsc>TRUE</ntsc>
						</rate>
						<rate>
							<timebase>59</timebase>
							<ntsc>TRUE</ntsc>
						</rate>
						<duration>60</duration>
						<start>6706</start>
						<end>6766</end>
						<in>0</in>
						<out>60</out>
					</clipitem>
					<clipitem frameBlend="FALSE" id="clipitem-telop-729">
						<file id="file-2"/>
						<name>！</name>
						<rate>
							<timebase>59</timebase>
							<ntsc>TRUE</ntsc>
						</rate>
						<rate>
							<timebase>59</timebase>
							<ntsc>TRUE</ntsc>
						</rate>
						<duration>60</duration>
						<start>6766</start>
						<end>6826</end>
						<in>0</in>
						<out>60</out>
					</clipitem>
					<clipitem frameBlend="FALSE" id="clipitem-telop-735">
						<file id="file-2"/>
						<name>！</name>
						<rate>
							<timebase>59</timebase>
							<ntsc>TRUE</ntsc>
						</rate>
						<rate>
							<timebase>59</timebase>
							<ntsc>TRUE</ntsc>
						</rate>
						<duration>66</duration>
						<start>6832</start>
						<end>6898</end>
						<in>0</in>
						<out>66</out>
					</clipitem>
					<clipitem frameBlend="FALSE" id="clipitem-telop-741">
						<file id="file-2"/>
						<name>！</name>
						<rate>
							<timebase>59</timebase>
							<ntsc>TRUE</ntsc>
						</rate>
						<rate>
							<timebase>59</timebase>
							<ntsc>TRUE</ntsc>
						</rate>
						<duration>60</duration>
						<start>6898</start>
						<end>6958</end>
						<in>0</in>
						<out>60</out>
					</clipitem>
					<clipitem frameBlend="FALSE" id="clipitem-telop-749">
						<file id="file-2"/>
						<name>！</name>
						<rate>
							<timebase>59</timebase>
							<ntsc>TRUE</ntsc>
						</rate>
						<rate>
							<timebase>59</timebase>
							<ntsc>TRUE</ntsc>
						</rate>
						<duration>60</duration>
						<start>6958</start>
						<end>7018</end>
						<in>0</in>
						<out>60</out>
					</clipitem>
					<clipitem frameBlend="FALSE" id="clipitem-telop-755">
						<file id="file-2"/>
						<name>！</name>
						<rate>
							<timebase>59</timebase>
							<ntsc>TRUE</ntsc>
						</rate>
						<rate>
							<timebase>59</timebase>
							<ntsc>TRUE</ntsc>
						</rate>
						<duration>24</duration>
						<start>7036</start>
						<end>7060</end>
						<in>0</in>
						<out>24</out>
					</clipitem>
				</track>
				<track>
					<clipitem frameBlend="FALSE" id="clipitem-telop-4">
						<file id="file-2"/>
						<name>！</name>
						<rate>
							<timebase>59</timebase>
							<ntsc>TRUE</ntsc>
						</rate>
						<rate>
							<timebase>59</timebase>
							<ntsc>TRUE</ntsc>
						</rate>
						<duration>60</duration>
						<start>59</start>
						<end>119</end>
						<in>0</in>
						<out>60</out>
					</clipitem>
					<clipitem frameBlend="FALSE" id="clipitem-telop-12">
						<file id="file-2"/>
						<name>！</name>
						<rate>
							<timebase>59</timebase>
							<ntsc>TRUE</ntsc>
						</rate>
						<rate>
							<timebase>59</timebase>
							<ntsc>TRUE</ntsc>
						</rate>
						<duration>60</duration>
						<start>131</start>
						<end>191</end>
						<in>0</in>
						<out>60</out>
					</clipitem>
					<clipitem frameBlend="FALSE" id="clipitem-telop-19">
						<file id="file-2"/>
						<name>！</name>
						<rate>
							<timebase>59</timebase>
							<ntsc>TRUE</ntsc>
						</rate>
						<rate>
							<timebase>59</timebase>
							<ntsc>TRUE</ntsc>
						</rate>
						<duration>66</duration>
						<start>233</start>
						<end>299</end>
						<in>0</in>
						<out>66</out>
					</clipitem>
					<clipitem frameBlend="FALSE" id="clipitem-telop-27">
						<file id="file-2"/>
						<name>！</name>
						<rate>
							<timebase>59</timebase>
							<ntsc>TRUE</ntsc>
						</rate>
						<rate>
							<timebase>59</timebase>
							<ntsc>TRUE</ntsc>
						</rate>
						<duration>60</duration>
						<start>299</start>
						<end>359</end>
						<in>0</in>
						<out>60</out>
					</clipitem>
					<clipitem frameBlend="FALSE" id="clipitem-telop-35">
						<file id="file-2"/>
						<name>！</name>
						<rate>
							<timebase>59</timebase>
							<ntsc>TRUE</ntsc>
						</rate>
						<rate>
							<timebase>59</timebase>
							<ntsc>TRUE</ntsc>
						</rate>
						<duration>60</duration>
						<start>365</start>
						<end>425</end>
						<in>0</in>
						<out>60</out>
					</clipitem>
					<clipitem frameBlend="FALSE" id="clipitem-telop-41">
						<file id="file-2"/>
						<name>！</name>
						<rate>
							<timebase>59</timebase>
							<ntsc>TRUE</ntsc>
						</rate>
						<rate>
							<timebase>59</timebase>
							<ntsc>TRUE</ntsc>
						</rate>
						<duration>60</duration>
						<start>437</start>
						<end>497</end>
						<in>0</in>
						<out>60</out>
					</clipitem>
					<clipitem frameBlend="FALSE" id="clipitem-telop-48">
						<file id="file-2"/>
						<name>！</name>
						<rate>
							<timebase>59</timebase>
							<ntsc>TRUE</ntsc>
						</rate>
						<rate>
							<timebase>59</timebase>
							<ntsc>TRUE</ntsc>
						</rate>
						<duration>60</duration>
						<start>497</start>
						<end>557</end>
						<in>0</in>
						<out>60</out>
					</clipitem>
					<clipitem frameBlend="FALSE" id="clipitem-telop-57">
						<file id="file-2"/>
						<name>！</name>
						<rate>
							<timebase>59</timebase>
							<ntsc>TRUE</ntsc>
						</rate>
						<rate>
							<timebase>59</timebase>
							<ntsc>TRUE</ntsc>
						</rate>
						<duration>60</duration>
						<start>563</start>
						<end>623</end>
						<in>0</in>
						<out>60</out>
					</clipitem>
					<clipitem frameBlend="FALSE" id="clipitem-telop-66">
						<file id="file-2"/>
						<name>！</name>
						<rate>
							<timebase>59</timebase>
							<ntsc>TRUE</ntsc>
						</rate>
						<rate>
							<timebase>59</timebase>
							<ntsc>TRUE</ntsc>
						</rate>
						<duration>60</duration>
						<start>623</start>
						<end>683</end>
						<in>0</in>
						<out>60</out>
					</clipitem>
					<clipitem frameBlend="FALSE" id="clipitem-telop-75">
						<file id="file-2"/>
						<name>！</name>
						<rate>
							<timebase>59</timebase>
							<ntsc>TRUE</ntsc>
						</rate>
						<rate>
							<timebase>59</timebase>
							<ntsc>TRUE</ntsc>
						</rate>
						<duration>66</duration>
						<start>689</start>
						<end>755</end>
						<in>0</in>
						<out>66</out>
					</clipitem>
					<clipitem frameBlend="FALSE" id="clipitem-telop-83">
						<file id="file-2"/>
						<name>！</name>
						<rate>
							<timebase>59</timebase>
							<ntsc>TRUE</ntsc>
						</rate>
						<rate>
							<timebase>59</timebase>
							<ntsc>TRUE</ntsc>
						</rate>
						<duration>60</duration>
						<start>761</start>
						<end>821</end>
						<in>0</in>
						<out>60</out>
					</clipitem>
					<clipitem frameBlend="FALSE" id="clipitem-telop-91">
						<file id="file-2"/>
						<name>！</name>
						<rate>
							<timebase>59</timebase>
							<ntsc>TRUE</ntsc>
						</rate>
						<rate>
							<timebase>59</timebase>
							<ntsc>TRUE</ntsc>
						</rate>
						<duration>66</duration>
						<start>821</start>
						<end>887</end>
						<in>0</in>
						<out>66</out>
					</clipitem>
					<clipitem frameBlend="FALSE" id="clipitem-telop-102">
						<file id="file-2"/>
						<name>！</name>
						<rate>
							<timebase>59</timebase>
							<ntsc>TRUE</ntsc>
						</rate>
						<rate>
							<timebase>59</timebase>
							<ntsc>TRUE</ntsc>
						</rate>
						<duration>60</duration>
						<start>887</start>
						<end>947</end>
						<in>0</in>
						<out>60</out>
					</clipitem>
					<clipitem frameBlend="FALSE" id="clipitem-telop-112">
						<file id="file-2"/>
						<name>！</name>
						<rate>
							<timebase>59</timebase>
							<ntsc>TRUE</ntsc>
						</rate>
						<rate>
							<timebase>59</timebase>
							<ntsc>TRUE</ntsc>
						</rate>
						<duration>60</duration>
						<start>947</start>
						<end>1007</end>
						<in>0</in>
						<out>60</out>
					</clipitem>
					<clipitem frameBlend="FALSE" id="clipitem-telop-124">
						<file id="file-2"/>
						<name>！</name>
						<rate>
							<timebase>59</timebase>
							<ntsc>TRUE</ntsc>
						</rate>
						<rate>
							<timebase>59</timebase>
							<ntsc>TRUE</ntsc>
						</rate>
						<duration>60</duration>
						<start>1007</start>
						<end>1067</end>
						<in>0</in>
						<out>60</out>
					</clipitem>
					<clipitem frameBlend="FALSE" id="clipitem-telop-132">
						<file id="file-2"/>
						<name>！</name>
						<rate>
							<timebase>59</timebase>
							<ntsc>TRUE</ntsc>
						</rate>
						<rate>
							<timebase>59</timebase>
							<ntsc>TRUE</ntsc>
						</rate>
						<duration>60</duration>
						<start>1067</start>
						<end>1127</end>
						<in>0</in>
						<out>60</out>
					</clipitem>
					<clipitem frameBlend="FALSE" id="clipitem-telop-139">
						<file id="file-2"/>
						<name>！</name>
						<rate>
							<timebase>59</timebase>
							<ntsc>TRUE</ntsc>
						</rate>
						<rate>
							<timebase>59</timebase>
							<ntsc>TRUE</ntsc>
						</rate>
						<duration>60</duration>
						<start>1151</start>
						<end>1211</end>
						<in>0</in>
						<out>60</out>
					</clipitem>
					<clipitem frameBlend="FALSE" id="clipitem-telop-146">
						<file id="file-2"/>
						<name>！</name>
						<rate>
							<timebase>59</timebase>
							<ntsc>TRUE</ntsc>
						</rate>
						<rate>
							<timebase>59</timebase>
							<ntsc>TRUE</ntsc>
						</rate>
						<duration>60</duration>
						<start>1211</start>
						<end>1271</end>
						<in>0</in>
						<out>60</out>
					</clipitem>
					<clipitem frameBlend="FALSE" id="clipitem-telop-153">
						<file id="file-2"/>
						<name>！</name>
						<rate>
							<timebase>59</timebase>
							<ntsc>TRUE</ntsc>
						</rate>
						<rate>
							<timebase>59</timebase>
							<ntsc>TRUE</ntsc>
						</rate>
						<duration>66</duration>
						<start>1277</start>
						<end>1343</end>
						<in>0</in>
						<out>66</out>
					</clipitem>
					<clipitem frameBlend="FALSE" id="clipitem-telop-159">
						<file id="file-2"/>
						<name>！</name>
						<rate>
							<timebase>59</timebase>
							<ntsc>TRUE</ntsc>
						</rate>
						<rate>
							<timebase>59</timebase>
							<ntsc>TRUE</ntsc>
						</rate>
						<duration>60</duration>
						<start>1343</start>
						<end>1403</end>
						<in>0</in>
						<out>60</out>
					</clipitem>
					<clipitem frameBlend="FALSE" id="clipitem-telop-168">
						<file id="file-2"/>
						<name>！</name>
						<rate>
							<timebase>59</timebase>
							<ntsc>TRUE</ntsc>
						</rate>
						<rate>
							<timebase>59</timebase>
							<ntsc>TRUE</ntsc>
						</rate>
						<duration>66</duration>
						<start>1415</start>
						<end>1481</end>
						<in>0</in>
						<out>66</out>
					</clipitem>
					<clipitem frameBlend="FALSE" id="clipitem-telop-177">
						<file id="file-2"/>
						<name>！</name>
						<rate>
							<timebase>59</timebase>
							<ntsc>TRUE</ntsc>
						</rate>
						<rate>
							<timebase>59</timebase>
							<ntsc>TRUE</ntsc>
						</rate>
						<duration>66</duration>
						<start>1481</start>
						<end>1547</end>
						<in>0</in>
						<out>66</out>
					</clipitem>
					<clipitem frameBlend="FALSE" id="clipitem-telop-183">
						<file id="file-2"/>
						<name>！</name>
						<rate>
							<timebase>59</timebase>
							<ntsc>TRUE</ntsc>
						</rate>
						<rate>
							<timebase>59</timebase>
							<ntsc>TRUE</ntsc>
						</rate>
						<duration>60</duration>
						<start>1547</start>
						<end>1607</end>
						<in>0</in>
						<out>60</out>
					</clipitem>
					<clipitem frameBlend="FALSE" id="clipitem-telop-189">
						<file id="file-2"/>
						<name>！</name>
						<rate>
							<timebase>59</timebase>
							<ntsc>TRUE</ntsc>
						</rate>
						<rate>
							<timebase>59</timebase>
							<ntsc>TRUE</ntsc>
						</rate>
						<duration>60</duration>
						<start>1607</start>
						<end>1667</end>
						<in>0</in>
						<out>60</out>
					</clipitem>
					<clipitem frameBlend="FALSE" id="clipitem-telop-197">
						<file id="file-2"/>
						<name>！</name>
						<rate>
							<timebase>59</timebase>
							<ntsc>TRUE</ntsc>
						</rate>
						<rate>
							<timebase>59</timebase>
							<ntsc>TRUE</ntsc>
						</rate>
						<duration>60</duration>
						<start>1673</start>
						<end>1733</end>
						<in>0</in>
						<out>60</out>
					</clipitem>
					<clipitem frameBlend="FALSE" id="clipitem-telop-203">
						<file id="file-2"/>
						<name>！</name>
						<rate>
							<timebase>59</timebase>
							<ntsc>TRUE</ntsc>
						</rate>
						<rate>
							<timebase>59</timebase>
							<ntsc>TRUE</ntsc>
						</rate>
						<duration>60</duration>
						<start>1733</start>
						<end>1793</end>
						<in>0</in>
						<out>60</out>
					</clipitem>
					<clipitem frameBlend="FALSE" id="clipitem-telop-212">
						<file id="file-2"/>
						<name>！</name>
						<rate>
							<timebase>59</timebase>
							<ntsc>TRUE</ntsc>
						</rate>
						<rate>
							<timebase>59</timebase>
							<ntsc>TRUE</ntsc>
						</rate>
						<duration>60</duration>
						<start>1793</start>
						<end>1853</end>
						<in>0</in>
						<out>60</out>
					</clipitem>
					<clipitem frameBlend="FALSE" id="clipitem-telop-222">
						<file id="file-2"/>
						<name>！</name>
						<rate>
							<timebase>59</timebase>
							<ntsc>TRUE</ntsc>
						</rate>
						<rate>
							<timebase>59</timebase>
							<ntsc>TRUE</ntsc>
						</rate>
						<duration>60</duration>
						<start>1883</start>
						<end>1943</end>
						<in>0</in>
						<out>60</out>
					</clipitem>
					<clipitem frameBlend="FALSE" id="clipitem-telop-231">
						<file id="file-2"/>
						<name>！</name>
						<rate>
							<timebase>59</timebase>
							<ntsc>TRUE</ntsc>
						</rate>
						<rate>
							<timebase>59</timebase>
							<ntsc>TRUE</ntsc>
						</rate>
						<duration>60</duration>
						<start>1943</start>
						<end>2003</end>
						<in>0</in>
						<out>60</out>
					</clipitem>
					<clipitem frameBlend="FALSE" id="clipitem-telop-240">
						<file id="file-2"/>
						<name>！</name>
						<rate>
							<timebase>59</timebase>
							<ntsc>TRUE</ntsc>
						</rate>
						<rate>
							<timebase>59</timebase>
							<ntsc>TRUE</ntsc>
						</rate>
						<duration>66</duration>
						<start>2039</start>
						<end>2105</end>
						<in>0</in>
						<out>66</out>
					</clipitem>
					<clipitem frameBlend="FALSE" id="clipitem-telop-246">
						<file id="file-2"/>
						<name>！</name>
						<rate>
							<timebase>59</timebase>
							<ntsc>TRUE</ntsc>
						</rate>
						<rate>
							<timebase>59</timebase>
							<ntsc>TRUE</ntsc>
						</rate>
						<duration>60</duration>
						<start>2165</start>
						<end>2225</end>
						<in>0</in>
						<out>60</out>
					</clipitem>
					<clipitem frameBlend="FALSE" id="clipitem-telop-255">
						<file id="file-2"/>
						<name>！</name>
						<rate>
							<timebase>59</timebase>
							<ntsc>TRUE</ntsc>
						</rate>
						<rate>
							<timebase>59</timebase>
							<ntsc>TRUE</ntsc>
						</rate>
						<duration>60</duration>
						<start>2309</start>
						<end>2369</end>
						<in>0</in>
						<out>60</out>
					</clipitem>
					<clipitem frameBlend="FALSE" id="clipitem-telop-262">
						<file id="file-2"/>
						<name>！</name>
						<rate>
							<timebase>59</timebase>
							<ntsc>TRUE</ntsc>
						</rate>
						<rate>
							<timebase>59</timebase>
							<ntsc>TRUE</ntsc>
						</rate>
						<duration>66</duration>
						<start>2399</start>
						<end>2465</end>
						<in>0</in>
						<out>66</out>
					</clipitem>
					<clipitem frameBlend="FALSE" id="clipitem-telop-272">
						<file id="file-2"/>
						<name>！</name>
						<rate>
							<timebase>59</timebase>
							<ntsc>TRUE</ntsc>
						</rate>
						<rate>
							<timebase>59</timebase>
							<ntsc>TRUE</ntsc>
						</rate>
						<duration>66</duration>
						<start>2513</start>
						<end>2579</end>
						<in>0</in>
						<out>66</out>
					</clipitem>
					<clipitem frameBlend="FALSE" id="clipitem-telop-280">
						<file id="file-2"/>
						<name>！</name>
						<rate>
							<timebase>59</timebase>
							<ntsc>TRUE</ntsc>
						</rate>
						<rate>
							<timebase>59</timebase>
							<ntsc>TRUE</ntsc>
						</rate>
						<duration>60</duration>
						<start>2591</start>
						<end>2651</end>
						<in>0</in>
						<out>60</out>
					</clipitem>
					<clipitem frameBlend="FALSE" id="clipitem-telop-289">
						<file id="file-2"/>
						<name>！</name>
						<rate>
							<timebase>59</timebase>
							<ntsc>TRUE</ntsc>
						</rate>
						<rate>
							<timebase>59</timebase>
							<ntsc>TRUE</ntsc>
						</rate>
						<duration>60</duration>
						<start>2669</start>
						<end>2729</end>
						<in>0</in>
						<out>60</out>
					</clipitem>
					<clipitem frameBlend="FALSE" id="clipitem-telop-295">
						<file id="file-2"/>
						<name>！</name>
						<rate>
							<timebase>59</timebase>
							<ntsc>TRUE</ntsc>
						</rate>
						<rate>
							<timebase>59</timebase>
							<ntsc>TRUE</ntsc>
						</rate>
						<duration>60</duration>
						<start>2729</start>
						<end>2789</end>
						<in>0</in>
						<out>60</out>
					</clipitem>
					<clipitem frameBlend="FALSE" id="clipitem-telop-304">
						<file id="file-2"/>
						<name>！</name>
						<rate>
							<timebase>59</timebase>
							<ntsc>TRUE</ntsc>
						</rate>
						<rate>
							<timebase>59</timebase>
							<ntsc>TRUE</ntsc>
						</rate>
						<duration>60</duration>
						<start>2795</start>
						<end>2855</end>
						<in>0</in>
						<out>60</out>
					</clipitem>
					<clipitem frameBlend="FALSE" id="clipitem-telop-312">
						<file id="file-2"/>
						<name>！</name>
						<rate>
							<timebase>59</timebase>
							<ntsc>TRUE</ntsc>
						</rate>
						<rate>
							<timebase>59</timebase>
							<ntsc>TRUE</ntsc>
						</rate>
						<duration>60</duration>
						<start>2867</start>
						<end>2927</end>
						<in>0</in>
						<out>60</out>
					</clipitem>
					<clipitem frameBlend="FALSE" id="clipitem-telop-318">
						<file id="file-2"/>
						<name>！</name>
						<rate>
							<timebase>59</timebase>
							<ntsc>TRUE</ntsc>
						</rate>
						<rate>
							<timebase>59</timebase>
							<ntsc>TRUE</ntsc>
						</rate>
						<duration>60</duration>
						<start>2939</start>
						<end>2999</end>
						<in>0</in>
						<out>60</out>
					</clipitem>
					<clipitem frameBlend="FALSE" id="clipitem-telop-325">
						<file id="file-2"/>
						<name>！</name>
						<rate>
							<timebase>59</timebase>
							<ntsc>TRUE</ntsc>
						</rate>
						<rate>
							<timebase>59</timebase>
							<ntsc>TRUE</ntsc>
						</rate>
						<duration>60</duration>
						<start>2999</start>
						<end>3059</end>
						<in>0</in>
						<out>60</out>
					</clipitem>
					<clipitem frameBlend="FALSE" id="clipitem-telop-333">
						<file id="file-2"/>
						<name>！</name>
						<rate>
							<timebase>59</timebase>
							<ntsc>TRUE</ntsc>
						</rate>
						<rate>
							<timebase>59</timebase>
							<ntsc>TRUE</ntsc>
						</rate>
						<duration>60</duration>
						<start>3059</start>
						<end>3119</end>
						<in>0</in>
						<out>60</out>
					</clipitem>
					<clipitem frameBlend="FALSE" id="clipitem-telop-336">
						<file id="file-2"/>
						<name>！</name>
						<rate>
							<timebase>59</timebase>
							<ntsc>TRUE</ntsc>
						</rate>
						<rate>
							<timebase>59</timebase>
							<ntsc>TRUE</ntsc>
						</rate>
						<duration>60</duration>
						<start>3119</start>
						<end>3179</end>
						<in>0</in>
						<out>60</out>
					</clipitem>
					<clipitem frameBlend="FALSE" id="clipitem-telop-345">
						<file id="file-2"/>
						<name>！</name>
						<rate>
							<timebase>59</timebase>
							<ntsc>TRUE</ntsc>
						</rate>
						<rate>
							<timebase>59</timebase>
							<ntsc>TRUE</ntsc>
						</rate>
						<duration>66</duration>
						<start>3185</start>
						<end>3251</end>
						<in>0</in>
						<out>66</out>
					</clipitem>
					<clipitem frameBlend="FALSE" id="clipitem-telop-356">
						<file id="file-2"/>
						<name>！</name>
						<rate>
							<timebase>59</timebase>
							<ntsc>TRUE</ntsc>
						</rate>
						<rate>
							<timebase>59</timebase>
							<ntsc>TRUE</ntsc>
						</rate>
						<duration>60</duration>
						<start>3263</start>
						<end>3323</end>
						<in>0</in>
						<out>60</out>
					</clipitem>
					<clipitem frameBlend="FALSE" id="clipitem-telop-363">
						<file id="file-2"/>
						<name>！</name>
						<rate>
							<timebase>59</timebase>
							<ntsc>TRUE</ntsc>
						</rate>
						<rate>
							<timebase>59</timebase>
							<ntsc>TRUE</ntsc>
						</rate>
						<duration>60</duration>
						<start>3329</start>
						<end>3389</end>
						<in>0</in>
						<out>60</out>
					</clipitem>
					<clipitem frameBlend="FALSE" id="clipitem-telop-370">
						<file id="file-2"/>
						<name>！</name>
						<rate>
							<timebase>59</timebase>
							<ntsc>TRUE</ntsc>
						</rate>
						<rate>
							<timebase>59</timebase>
							<ntsc>TRUE</ntsc>
						</rate>
						<duration>60</duration>
						<start>3389</start>
						<end>3449</end>
						<in>0</in>
						<out>60</out>
					</clipitem>
					<clipitem frameBlend="FALSE" id="clipitem-telop-377">
						<file id="file-2"/>
						<name>！</name>
						<rate>
							<timebase>59</timebase>
							<ntsc>TRUE</ntsc>
						</rate>
						<rate>
							<timebase>59</timebase>
							<ntsc>TRUE</ntsc>
						</rate>
						<duration>60</duration>
						<start>3455</start>
						<end>3515</end>
						<in>0</in>
						<out>60</out>
					</clipitem>
					<clipitem frameBlend="FALSE" id="clipitem-telop-383">
						<file id="file-2"/>
						<name>！</name>
						<rate>
							<timebase>59</timebase>
							<ntsc>TRUE</ntsc>
						</rate>
						<rate>
							<timebase>59</timebase>
							<ntsc>TRUE</ntsc>
						</rate>
						<duration>59</duration>
						<start>3521</start>
						<end>3580</end>
						<in>0</in>
						<out>59</out>
					</clipitem>
					<clipitem frameBlend="FALSE" id="clipitem-telop-389">
						<file id="file-2"/>
						<name>！</name>
						<rate>
							<timebase>59</timebase>
							<ntsc>TRUE</ntsc>
						</rate>
						<rate>
							<timebase>59</timebase>
							<ntsc>TRUE</ntsc>
						</rate>
						<duration>60</duration>
						<start>3604</start>
						<end>3664</end>
						<in>0</in>
						<out>60</out>
					</clipitem>
					<clipitem frameBlend="FALSE" id="clipitem-telop-398">
						<file id="file-2"/>
						<name>！</name>
						<rate>
							<timebase>59</timebase>
							<ntsc>TRUE</ntsc>
						</rate>
						<rate>
							<timebase>59</timebase>
							<ntsc>TRUE</ntsc>
						</rate>
						<duration>66</duration>
						<start>3670</start>
						<end>3736</end>
						<in>0</in>
						<out>66</out>
					</clipitem>
					<clipitem frameBlend="FALSE" id="clipitem-telop-407">
						<file id="file-2"/>
						<name>！</name>
						<rate>
							<timebase>59</timebase>
							<ntsc>TRUE</ntsc>
						</rate>
						<rate>
							<timebase>59</timebase>
							<ntsc>TRUE</ntsc>
						</rate>
						<duration>60</duration>
						<start>3736</start>
						<end>3796</end>
						<in>0</in>
						<out>60</out>
					</clipitem>
					<clipitem frameBlend="FALSE" id="clipitem-telop-415">
						<file id="file-2"/>
						<name>！</name>
						<rate>
							<timebase>59</timebase>
							<ntsc>TRUE</ntsc>
						</rate>
						<rate>
							<timebase>59</timebase>
							<ntsc>TRUE</ntsc>
						</rate>
						<duration>60</duration>
						<start>3796</start>
						<end>3856</end>
						<in>0</in>
						<out>60</out>
					</clipitem>
					<clipitem frameBlend="FALSE" id="clipitem-telop-423">
						<file id="file-2"/>
						<name>！</name>
						<rate>
							<timebase>59</timebase>
							<ntsc>TRUE</ntsc>
						</rate>
						<rate>
							<timebase>59</timebase>
							<ntsc>TRUE</ntsc>
						</rate>
						<duration>60</duration>
						<start>3856</start>
						<end>3916</end>
						<in>0</in>
						<out>60</out>
					</clipitem>
					<clipitem frameBlend="FALSE" id="clipitem-telop-430">
						<file id="file-2"/>
						<name>！</name>
						<rate>
							<timebase>59</timebase>
							<ntsc>TRUE</ntsc>
						</rate>
						<rate>
							<timebase>59</timebase>
							<ntsc>TRUE</ntsc>
						</rate>
						<duration>66</duration>
						<start>3982</start>
						<end>4048</end>
						<in>0</in>
						<out>66</out>
					</clipitem>
					<clipitem frameBlend="FALSE" id="clipitem-telop-435">
						<file id="file-2"/>
						<name>！</name>
						<rate>
							<timebase>59</timebase>
							<ntsc>TRUE</ntsc>
						</rate>
						<rate>
							<timebase>59</timebase>
							<ntsc>TRUE</ntsc>
						</rate>
						<duration>60</duration>
						<start>4060</start>
						<end>4120</end>
						<in>0</in>
						<out>60</out>
					</clipitem>
					<clipitem frameBlend="FALSE" id="clipitem-telop-442">
						<file id="file-2"/>
						<name>！</name>
						<rate>
							<timebase>59</timebase>
							<ntsc>TRUE</ntsc>
						</rate>
						<rate>
							<timebase>59</timebase>
							<ntsc>TRUE</ntsc>
						</rate>
						<duration>60</duration>
						<start>4138</start>
						<end>4198</end>
						<in>0</in>
						<out>60</out>
					</clipitem>
					<clipitem frameBlend="FALSE" id="clipitem-telop-445">
						<file id="file-2"/>
						<name>！</name>
						<rate>
							<timebase>59</timebase>
							<ntsc>TRUE</ntsc>
						</rate>
						<rate>
							<timebase>59</timebase>
							<ntsc>TRUE</ntsc>
						</rate>
						<duration>60</duration>
						<start>4210</start>
						<end>4270</end>
						<in>0</in>
						<out>60</out>
					</clipitem>
					<clipitem frameBlend="FALSE" id="clipitem-telop-453">
						<file id="file-2"/>
						<name>！</name>
						<rate>
							<timebase>59</timebase>
							<ntsc>TRUE</ntsc>
						</rate>
						<rate>
							<timebase>59</timebase>
							<ntsc>TRUE</ntsc>
						</rate>
						<duration>60</duration>
						<start>4270</start>
						<end>4330</end>
						<in>0</in>
						<out>60</out>
					</clipitem>
					<clipitem frameBlend="FALSE" id="clipitem-telop-461">
						<file id="file-2"/>
						<name>！</name>
						<rate>
							<timebase>59</timebase>
							<ntsc>TRUE</ntsc>
						</rate>
						<rate>
							<timebase>59</timebase>
							<ntsc>TRUE</ntsc>
						</rate>
						<duration>60</duration>
						<start>4336</start>
						<end>4396</end>
						<in>0</in>
						<out>60</out>
					</clipitem>
					<clipitem frameBlend="FALSE" id="clipitem-telop-468">
						<file id="file-2"/>
						<name>！</name>
						<rate>
							<timebase>59</timebase>
							<ntsc>TRUE</ntsc>
						</rate>
						<rate>
							<timebase>59</timebase>
							<ntsc>TRUE</ntsc>
						</rate>
						<duration>60</duration>
						<start>4396</start>
						<end>4456</end>
						<in>0</in>
						<out>60</out>
					</clipitem>
					<clipitem frameBlend="FALSE" id="clipitem-telop-478">
						<file id="file-2"/>
						<name>！</name>
						<rate>
							<timebase>59</timebase>
							<ntsc>TRUE</ntsc>
						</rate>
						<rate>
							<timebase>59</timebase>
							<ntsc>TRUE</ntsc>
						</rate>
						<duration>60</duration>
						<start>4456</start>
						<end>4516</end>
						<in>0</in>
						<out>60</out>
					</clipitem>
					<clipitem frameBlend="FALSE" id="clipitem-telop-489">
						<file id="file-2"/>
						<name>！</name>
						<rate>
							<timebase>59</timebase>
							<ntsc>TRUE</ntsc>
						</rate>
						<rate>
							<timebase>59</timebase>
							<ntsc>TRUE</ntsc>
						</rate>
						<duration>60</duration>
						<start>4546</start>
						<end>4606</end>
						<in>0</in>
						<out>60</out>
					</clipitem>
					<clipitem frameBlend="FALSE" id="clipitem-telop-497">
						<file id="file-2"/>
						<name>！</name>
						<rate>
							<timebase>59</timebase>
							<ntsc>TRUE</ntsc>
						</rate>
						<rate>
							<timebase>59</timebase>
							<ntsc>TRUE</ntsc>
						</rate>
						<duration>60</duration>
						<start>4606</start>
						<end>4666</end>
						<in>0</in>
						<out>60</out>
					</clipitem>
					<clipitem frameBlend="FALSE" id="clipitem-telop-502">
						<file id="file-2"/>
						<name>！</name>
						<rate>
							<timebase>59</timebase>
							<ntsc>TRUE</ntsc>
						</rate>
						<rate>
							<timebase>59</timebase>
							<ntsc>TRUE</ntsc>
						</rate>
						<duration>60</duration>
						<start>4666</start>
						<end>4726</end>
						<in>0</in>
						<out>60</out>
					</clipitem>
					<clipitem frameBlend="FALSE" id="clipitem-telop-509">
						<file id="file-2"/>
						<name>！</name>
						<rate>
							<timebase>59</timebase>
							<ntsc>TRUE</ntsc>
						</rate>
						<rate>
							<timebase>59</timebase>
							<ntsc>TRUE</ntsc>
						</rate>
						<duration>60</duration>
						<start>4726</start>
						<end>4786</end>
						<in>0</in>
						<out>60</out>
					</clipitem>
					<clipitem frameBlend="FALSE" id="clipitem-telop-515">
						<file id="file-2"/>
						<name>！</name>
						<rate>
							<timebase>59</timebase>
							<ntsc>TRUE</ntsc>
						</rate>
						<rate>
							<timebase>59</timebase>
							<ntsc>TRUE</ntsc>
						</rate>
						<duration>66</duration>
						<start>4798</start>
						<end>4864</end>
						<in>0</in>
						<out>66</out>
					</clipitem>
					<clipitem frameBlend="FALSE" id="clipitem-telop-527">
						<file id="file-2"/>
						<name>！</name>
						<rate>
							<timebase>59</timebase>
							<ntsc>TRUE</ntsc>
						</rate>
						<rate>
							<timebase>59</timebase>
							<ntsc>TRUE</ntsc>
						</rate>
						<duration>60</duration>
						<start>4912</start>
						<end>4972</end>
						<in>0</in>
						<out>60</out>
					</clipitem>
					<clipitem frameBlend="FALSE" id="clipitem-telop-534">
						<file id="file-2"/>
						<name>！</name>
						<rate>
							<timebase>59</timebase>
							<ntsc>TRUE</ntsc>
						</rate>
						<rate>
							<timebase>59</timebase>
							<ntsc>TRUE</ntsc>
						</rate>
						<duration>66</duration>
						<start>4984</start>
						<end>5050</end>
						<in>0</in>
						<out>66</out>
					</clipitem>
					<clipitem frameBlend="FALSE" id="clipitem-telop-544">
						<file id="file-2"/>
						<name>！</name>
						<rate>
							<timebase>59</timebase>
							<ntsc>TRUE</ntsc>
						</rate>
						<rate>
							<timebase>59</timebase>
							<ntsc>TRUE</ntsc>
						</rate>
						<duration>60</duration>
						<start>5056</start>
						<end>5116</end>
						<in>0</in>
						<out>60</out>
					</clipitem>
					<clipitem frameBlend="FALSE" id="clipitem-telop-552">
						<file id="file-2"/>
						<name>！</name>
						<rate>
							<timebase>59</timebase>
							<ntsc>TRUE</ntsc>
						</rate>
						<rate>
							<timebase>59</timebase>
							<ntsc>TRUE</ntsc>
						</rate>
						<duration>60</duration>
						<start>5128</start>
						<end>5188</end>
						<in>0</in>
						<out>60</out>
					</clipitem>
					<clipitem frameBlend="FALSE" id="clipitem-telop-558">
						<file id="file-2"/>
						<name>！</name>
						<rate>
							<timebase>59</timebase>
							<ntsc>TRUE</ntsc>
						</rate>
						<rate>
							<timebase>59</timebase>
							<ntsc>TRUE</ntsc>
						</rate>
						<duration>60</duration>
						<start>5200</start>
						<end>5260</end>
						<in>0</in>
						<out>60</out>
					</clipitem>
					<clipitem frameBlend="FALSE" id="clipitem-telop-563">
						<file id="file-2"/>
						<name>！</name>
						<rate>
							<timebase>59</timebase>
							<ntsc>TRUE</ntsc>
						</rate>
						<rate>
							<timebase>59</timebase>
							<ntsc>TRUE</ntsc>
						</rate>
						<duration>60</duration>
						<start>5260</start>
						<end>5320</end>
						<in>0</in>
						<out>60</out>
					</clipitem>
					<clipitem frameBlend="FALSE" id="clipitem-telop-573">
						<file id="file-2"/>
						<name>！</name>
						<rate>
							<timebase>59</timebase>
							<ntsc>TRUE</ntsc>
						</rate>
						<rate>
							<timebase>59</timebase>
							<ntsc>TRUE</ntsc>
						</rate>
						<duration>60</duration>
						<start>5320</start>
						<end>5380</end>
						<in>0</in>
						<out>60</out>
					</clipitem>
					<clipitem frameBlend="FALSE" id="clipitem-telop-579">
						<file id="file-2"/>
						<name>！</name>
						<rate>
							<timebase>59</timebase>
							<ntsc>TRUE</ntsc>
						</rate>
						<rate>
							<timebase>59</timebase>
							<ntsc>TRUE</ntsc>
						</rate>
						<duration>60</duration>
						<start>5440</start>
						<end>5500</end>
						<in>0</in>
						<out>60</out>
					</clipitem>
					<clipitem frameBlend="FALSE" id="clipitem-telop-583">
						<file id="file-2"/>
						<name>！</name>
						<rate>
							<timebase>59</timebase>
							<ntsc>TRUE</ntsc>
						</rate>
						<rate>
							<timebase>59</timebase>
							<ntsc>TRUE</ntsc>
						</rate>
						<duration>66</duration>
						<start>5500</start>
						<end>5566</end>
						<in>0</in>
						<out>66</out>
					</clipitem>
					<clipitem frameBlend="FALSE" id="clipitem-telop-595">
						<file id="file-2"/>
						<name>！</name>
						<rate>
							<timebase>59</timebase>
							<ntsc>TRUE</ntsc>
						</rate>
						<rate>
							<timebase>59</timebase>
							<ntsc>TRUE</ntsc>
						</rate>
						<duration>66</duration>
						<start>5566</start>
						<end>5632</end>
						<in>0</in>
						<out>66</out>
					</clipitem>
					<clipitem frameBlend="FALSE" id="clipitem-telop-605">
						<file id="file-2"/>
						<name>！</name>
						<rate>
							<timebase>59</timebase>
							<ntsc>TRUE</ntsc>
						</rate>
						<rate>
							<timebase>59</timebase>
							<ntsc>TRUE</ntsc>
						</rate>
						<duration>60</duration>
						<start>5632</start>
						<end>5692</end>
						<in>0</in>
						<out>60</out>
					</clipitem>
					<clipitem frameBlend="FALSE" id="clipitem-telop-612">
						<file id="file-2"/>
						<name>！</name>
						<rate>
							<timebase>59</timebase>
							<ntsc>TRUE</ntsc>
						</rate>
						<rate>
							<timebase>59</timebase>
							<ntsc>TRUE</ntsc>
						</rate>
						<duration>66</duration>
						<start>5716</start>
						<end>5782</end>
						<in>0</in>
						<out>66</out>
					</clipitem>
					<clipitem frameBlend="FALSE" id="clipitem-telop-619">
						<file id="file-2"/>
						<name>！</name>
						<rate>
							<timebase>59</timebase>
							<ntsc>TRUE</ntsc>
						</rate>
						<rate>
							<timebase>59</timebase>
							<ntsc>TRUE</ntsc>
						</rate>
						<duration>60</duration>
						<start>5782</start>
						<end>5842</end>
						<in>0</in>
						<out>60</out>
					</clipitem>
					<clipitem frameBlend="FALSE" id="clipitem-telop-634">
						<file id="file-2"/>
						<name>！</name>
						<rate>
							<timebase>59</timebase>
							<ntsc>TRUE</ntsc>
						</rate>
						<rate>
							<timebase>59</timebase>
							<ntsc>TRUE</ntsc>
						</rate>
						<duration>60</duration>
						<start>5896</start>
						<end>5956</end>
						<in>0</in>
						<out>60</out>
					</clipitem>
					<clipitem frameBlend="FALSE" id="clipitem-telop-642">
						<file id="file-2"/>
						<name>！</name>
						<rate>
							<timebase>59</timebase>
							<ntsc>TRUE</ntsc>
						</rate>
						<rate>
							<timebase>59</timebase>
							<ntsc>TRUE</ntsc>
						</rate>
						<duration>60</duration>
						<start>5980</start>
						<end>6040</end>
						<in>0</in>
						<out>60</out>
					</clipitem>
					<clipitem frameBlend="FALSE" id="clipitem-telop-652">
						<file id="file-2"/>
						<name>！</name>
						<rate>
							<timebase>59</timebase>
							<ntsc>TRUE</ntsc>
						</rate>
						<rate>
							<timebase>59</timebase>
							<ntsc>TRUE</ntsc>
						</rate>
						<duration>60</duration>
						<start>6040</start>
						<end>6100</end>
						<in>0</in>
						<out>60</out>
					</clipitem>
					<clipitem frameBlend="FALSE" id="clipitem-telop-659">
						<file id="file-2"/>
						<name>！</name>
						<rate>
							<timebase>59</timebase>
							<ntsc>TRUE</ntsc>
						</rate>
						<rate>
							<timebase>59</timebase>
							<ntsc>TRUE</ntsc>
						</rate>
						<duration>60</duration>
						<start>6106</start>
						<end>6166</end>
						<in>0</in>
						<out>60</out>
					</clipitem>
					<clipitem frameBlend="FALSE" id="clipitem-telop-667">
						<file id="file-2"/>
						<name>！</name>
						<rate>
							<timebase>59</timebase>
							<ntsc>TRUE</ntsc>
						</rate>
						<rate>
							<timebase>59</timebase>
							<ntsc>TRUE</ntsc>
						</rate>
						<duration>60</duration>
						<start>6172</start>
						<end>6232</end>
						<in>0</in>
						<out>60</out>
					</clipitem>
					<clipitem frameBlend="FALSE" id="clipitem-telop-674">
						<file id="file-2"/>
						<name>！</name>
						<rate>
							<timebase>59</timebase>
							<ntsc>TRUE</ntsc>
						</rate>
						<rate>
							<timebase>59</timebase>
							<ntsc>TRUE</ntsc>
						</rate>
						<duration>60</duration>
						<start>6232</start>
						<end>6292</end>
						<in>0</in>
						<out>60</out>
					</clipitem>
					<clipitem frameBlend="FALSE" id="clipitem-telop-684">
						<file id="file-2"/>
						<name>！</name>
						<rate>
							<timebase>59</timebase>
							<ntsc>TRUE</ntsc>
						</rate>
						<rate>
							<timebase>59</timebase>
							<ntsc>TRUE</ntsc>
						</rate>
						<duration>66</duration>
						<start>6292</start>
						<end>6358</end>
						<in>0</in>
						<out>66</out>
					</clipitem>
					<clipitem frameBlend="FALSE" id="clipitem-telop-694">
						<file id="file-2"/>
						<name>！</name>
						<rate>
							<timebase>59</timebase>
							<ntsc>TRUE</ntsc>
						</rate>
						<rate>
							<timebase>59</timebase>
							<ntsc>TRUE</ntsc>
						</rate>
						<duration>60</duration>
						<start>6358</start>
						<end>6418</end>
						<in>0</in>
						<out>60</out>
					</clipitem>
					<clipitem frameBlend="FALSE" id="clipitem-telop-703">
						<file id="file-2"/>
						<name>！</name>
						<rate>
							<timebase>59</timebase>
							<ntsc>TRUE</ntsc>
						</rate>
						<rate>
							<timebase>59</timebase>
							<ntsc>TRUE</ntsc>
						</rate>
						<duration>66</duration>
						<start>6442</start>
						<end>6508</end>
						<in>0</in>
						<out>66</out>
					</clipitem>
					<clipitem frameBlend="FALSE" id="clipitem-telop-710">
						<file id="file-2"/>
						<name>！</name>
						<rate>
							<timebase>59</timebase>
							<ntsc>TRUE</ntsc>
						</rate>
						<rate>
							<timebase>59</timebase>
							<ntsc>TRUE</ntsc>
						</rate>
						<duration>60</duration>
						<start>6532</start>
						<end>6592</end>
						<in>0</in>
						<out>60</out>
					</clipitem>
					<clipitem frameBlend="FALSE" id="clipitem-telop-720">
						<file id="file-2"/>
						<name>！</name>
						<rate>
							<timebase>59</timebase>
							<ntsc>TRUE</ntsc>
						</rate>
						<rate>
							<timebase>59</timebase>
							<ntsc>TRUE</ntsc>
						</rate>
						<duration>66</duration>
						<start>6616</start>
						<end>6682</end>
						<in>0</in>
						<out>66</out>
					</clipitem>
					<clipitem frameBlend="FALSE" id="clipitem-telop-726">
						<file id="file-2"/>
						<name>！</name>
						<rate>
							<timebase>59</timebase>
							<ntsc>TRUE</ntsc>
						</rate>
						<rate>
							<timebase>59</timebase>
							<ntsc>TRUE</ntsc>
						</rate>
						<duration>60</duration>
						<start>6724</start>
						<end>6784</end>
						<in>0</in>
						<out>60</out>
					</clipitem>
					<clipitem frameBlend="FALSE" id="clipitem-telop-731">
						<file id="file-2"/>
						<name>！</name>
						<rate>
							<timebase>59</timebase>
							<ntsc>TRUE</ntsc>
						</rate>
						<rate>
							<timebase>59</timebase>
							<ntsc>TRUE</ntsc>
						</rate>
						<duration>60</duration>
						<start>6784</start>
						<end>6844</end>
						<in>0</in>
						<out>60</out>
					</clipitem>
					<clipitem frameBlend="FALSE" id="clipitem-telop-736">
						<file id="file-2"/>
						<name>！</name>
						<rate>
							<timebase>59</timebase>
							<ntsc>TRUE</ntsc>
						</rate>
						<rate>
							<timebase>59</timebase>
							<ntsc>TRUE</ntsc>
						</rate>
						<duration>60</duration>
						<start>6844</start>
						<end>6904</end>
						<in>0</in>
						<out>60</out>
					</clipitem>
					<clipitem frameBlend="FALSE" id="clipitem-telop-742">
						<file id="file-2"/>
						<name>！</name>
						<rate>
							<timebase>59</timebase>
							<ntsc>TRUE</ntsc>
						</rate>
						<rate>
							<timebase>59</timebase>
							<ntsc>TRUE</ntsc>
						</rate>
						<duration>60</duration>
						<start>6910</start>
						<end>6970</end>
						<in>0</in>
						<out>60</out>
					</clipitem>
					<clipitem frameBlend="FALSE" id="clipitem-telop-750">
						<file id="file-2"/>
						<name>！</name>
						<rate>
							<timebase>59</timebase>
							<ntsc>TRUE</ntsc>
						</rate>
						<rate>
							<timebase>59</timebase>
							<ntsc>TRUE</ntsc>
						</rate>
						<duration>60</duration>
						<start>6970</start>
						<end>7030</end>
						<in>0</in>
						<out>60</out>
					</clipitem>
					<clipitem frameBlend="FALSE" id="clipitem-telop-756">
						<file id="file-2"/>
						<name>！</name>
						<rate>
							<timebase>59</timebase>
							<ntsc>TRUE</ntsc>
						</rate>
						<rate>
							<timebase>59</timebase>
							<ntsc>TRUE</ntsc>
						</rate>
						<duration>24</duration>
						<start>7036</start>
						<end>7060</end>
						<in>0</in>
						<out>24</out>
					</clipitem>
				</track>
				<track>
					<clipitem frameBlend="FALSE" id="clipitem-telop-5">
						<file id="file-2"/>
						<name>！</name>
						<rate>
							<timebase>59</timebase>
							<ntsc>TRUE</ntsc>
						</rate>
						<rate>
							<timebase>59</timebase>
							<ntsc>TRUE</ntsc>
						</rate>
						<duration>60</duration>
						<start>65</start>
						<end>125</end>
						<in>0</in>
						<out>60</out>
					</clipitem>
					<clipitem frameBlend="FALSE" id="clipitem-telop-13">
						<file id="file-2"/>
						<name>！</name>
						<rate>
							<timebase>59</timebase>
							<ntsc>TRUE</ntsc>
						</rate>
						<rate>
							<timebase>59</timebase>
							<ntsc>TRUE</ntsc>
						</rate>
						<duration>60</duration>
						<start>137</start>
						<end>197</end>
						<in>0</in>
						<out>60</out>
					</clipitem>
					<clipitem frameBlend="FALSE" id="clipitem-telop-20">
						<file id="file-2"/>
						<name>！</name>
						<rate>
							<timebase>59</timebase>
							<ntsc>TRUE</ntsc>
						</rate>
						<rate>
							<timebase>59</timebase>
							<ntsc>TRUE</ntsc>
						</rate>
						<duration>60</duration>
						<start>239</start>
						<end>299</end>
						<in>0</in>
						<out>60</out>
					</clipitem>
					<clipitem frameBlend="FALSE" id="clipitem-telop-28">
						<file id="file-2"/>
						<name>！</name>
						<rate>
							<timebase>59</timebase>
							<ntsc>TRUE</ntsc>
						</rate>
						<rate>
							<timebase>59</timebase>
							<ntsc>TRUE</ntsc>
						</rate>
						<duration>60</duration>
						<start>299</start>
						<end>359</end>
						<in>0</in>
						<out>60</out>
					</clipitem>
					<clipitem frameBlend="FALSE" id="clipitem-telop-36">
						<file id="file-2"/>
						<name>！</name>
						<rate>
							<timebase>59</timebase>
							<ntsc>TRUE</ntsc>
						</rate>
						<rate>
							<timebase>59</timebase>
							<ntsc>TRUE</ntsc>
						</rate>
						<duration>66</duration>
						<start>377</start>
						<end>443</end>
						<in>0</in>
						<out>66</out>
					</clipitem>
					<clipitem frameBlend="FALSE" id="clipitem-telop-42">
						<file id="file-2"/>
						<name>！</name>
						<rate>
							<timebase>59</timebase>
							<ntsc>TRUE</ntsc>
						</rate>
						<rate>
							<timebase>59</timebase>
							<ntsc>TRUE</ntsc>
						</rate>
						<duration>60</duration>
						<start>443</start>
						<end>503</end>
						<in>0</in>
						<out>60</out>
					</clipitem>
					<clipitem frameBlend="FALSE" id="clipitem-telop-49">
						<file id="file-2"/>
						<name>！</name>
						<rate>
							<timebase>59</timebase>
							<ntsc>TRUE</ntsc>
						</rate>
						<rate>
							<timebase>59</timebase>
							<ntsc>TRUE</ntsc>
						</rate>
						<duration>60</duration>
						<start>503</start>
						<end>563</end>
						<in>0</in>
						<out>60</out>
					</clipitem>
					<clipitem frameBlend="FALSE" id="clipitem-telop-58">
						<file id="file-2"/>
						<name>！</name>
						<rate>
							<timebase>59</timebase>
							<ntsc>TRUE</ntsc>
						</rate>
						<rate>
							<timebase>59</timebase>
							<ntsc>TRUE</ntsc>
						</rate>
						<duration>60</duration>
						<start>575</start>
						<end>635</end>
						<in>0</in>
						<out>60</out>
					</clipitem>
					<clipitem frameBlend="FALSE" id="clipitem-telop-67">
						<file id="file-2"/>
						<name>！</name>
						<rate>
							<timebase>59</timebase>
							<ntsc>TRUE</ntsc>
						</rate>
						<rate>
							<timebase>59</timebase>
							<ntsc>TRUE</ntsc>
						</rate>
						<duration>66</duration>
						<start>635</start>
						<end>701</end>
						<in>0</in>
						<out>66</out>
					</clipitem>
					<clipitem frameBlend="FALSE" id="clipitem-telop-76">
						<file id="file-2"/>
						<name>！</name>
						<rate>
							<timebase>59</timebase>
							<ntsc>TRUE</ntsc>
						</rate>
						<rate>
							<timebase>59</timebase>
							<ntsc>TRUE</ntsc>
						</rate>
						<duration>60</duration>
						<start>701</start>
						<end>761</end>
						<in>0</in>
						<out>60</out>
					</clipitem>
					<clipitem frameBlend="FALSE" id="clipitem-telop-84">
						<file id="file-2"/>
						<name>！</name>
						<rate>
							<timebase>59</timebase>
							<ntsc>TRUE</ntsc>
						</rate>
						<rate>
							<timebase>59</timebase>
							<ntsc>TRUE</ntsc>
						</rate>
						<duration>60</duration>
						<start>773</start>
						<end>833</end>
						<in>0</in>
						<out>60</out>
					</clipitem>
					<clipitem frameBlend="FALSE" id="clipitem-telop-93">
						<file id="file-2"/>
						<name>！</name>
						<rate>
							<timebase>59</timebase>
							<ntsc>TRUE</ntsc>
						</rate>
						<rate>
							<timebase>59</timebase>
							<ntsc>TRUE</ntsc>
						</rate>
						<duration>60</duration>
						<start>833</start>
						<end>893</end>
						<in>0</in>
						<out>60</out>
					</clipitem>
					<clipitem frameBlend="FALSE" id="clipitem-telop-103">
						<file id="file-2"/>
						<name>！</name>
						<rate>
							<timebase>59</timebase>
							<ntsc>TRUE</ntsc>
						</rate>
						<rate>
							<timebase>59</timebase>
							<ntsc>TRUE</ntsc>
						</rate>
						<duration>60</duration>
						<start>893</start>
						<end>953</end>
						<in>0</in>
						<out>60</out>
					</clipitem>
					<clipitem frameBlend="FALSE" id="clipitem-telop-113">
						<file id="file-2"/>
						<name>！</name>
						<rate>
							<timebase>59</timebase>
							<ntsc>TRUE</ntsc>
						</rate>
						<rate>
							<timebase>59</timebase>
							<ntsc>TRUE</ntsc>
						</rate>
						<duration>60</duration>
						<start>953</start>
						<end>1013</end>
						<in>0</in>
						<out>60</out>
					</clipitem>
					<clipitem frameBlend="FALSE" id="clipitem-telop-125">
						<file id="file-2"/>
						<name>！</name>
						<rate>
							<timebase>59</timebase>
							<ntsc>TRUE</ntsc>
						</rate>
						<rate>
							<timebase>59</timebase>
							<ntsc>TRUE</ntsc>
						</rate>
						<duration>60</duration>
						<start>1019</start>
						<end>1079</end>
						<in>0</in>
						<out>60</out>
					</clipitem>
					<clipitem frameBlend="FALSE" id="clipitem-telop-135">
						<file id="file-2"/>
						<name>！</name>
						<rate>
							<timebase>59</timebase>
							<ntsc>TRUE</ntsc>
						</rate>
						<rate>
							<timebase>59</timebase>
							<ntsc>TRUE</ntsc>
						</rate>
						<duration>60</duration>
						<start>1085</start>
						<end>1145</end>
						<in>0</in>
						<out>60</out>
					</clipitem>
					<clipitem frameBlend="FALSE" id="clipitem-telop-140">
						<file id="file-2"/>
						<name>！</name>
						<rate>
							<timebase>59</timebase>
							<ntsc>TRUE</ntsc>
						</rate>
						<rate>
							<timebase>59</timebase>
							<ntsc>TRUE</ntsc>
						</rate>
						<duration>60</duration>
						<start>1151</start>
						<end>1211</end>
						<in>0</in>
						<out>60</out>
					</clipitem>
					<clipitem frameBlend="FALSE" id="clipitem-telop-147">
						<file id="file-2"/>
						<name>！</name>
						<rate>
							<timebase>59</timebase>
							<ntsc>TRUE</ntsc>
						</rate>
						<rate>
							<timebase>59</timebase>
							<ntsc>TRUE</ntsc>
						</rate>
						<duration>60</duration>
						<start>1217</start>
						<end>1277</end>
						<in>0</in>
						<out>60</out>
					</clipitem>
					<clipitem frameBlend="FALSE" id="clipitem-telop-154">
						<file id="file-2"/>
						<name>！</name>
						<rate>
							<timebase>59</timebase>
							<ntsc>TRUE</ntsc>
						</rate>
						<rate>
							<timebase>59</timebase>
							<ntsc>TRUE</ntsc>
						</rate>
						<duration>60</duration>
						<start>1289</start>
						<end>1349</end>
						<in>0</in>
						<out>60</out>
					</clipitem>
					<clipitem frameBlend="FALSE" id="clipitem-telop-160">
						<file id="file-2"/>
						<name>！</name>
						<rate>
							<timebase>59</timebase>
							<ntsc>TRUE</ntsc>
						</rate>
						<rate>
							<timebase>59</timebase>
							<ntsc>TRUE</ntsc>
						</rate>
						<duration>60</duration>
						<start>1355</start>
						<end>1415</end>
						<in>0</in>
						<out>60</out>
					</clipitem>
					<clipitem frameBlend="FALSE" id="clipitem-telop-169">
						<file id="file-2"/>
						<name>！</name>
						<rate>
							<timebase>59</timebase>
							<ntsc>TRUE</ntsc>
						</rate>
						<rate>
							<timebase>59</timebase>
							<ntsc>TRUE</ntsc>
						</rate>
						<duration>60</duration>
						<start>1421</start>
						<end>1481</end>
						<in>0</in>
						<out>60</out>
					</clipitem>
					<clipitem frameBlend="FALSE" id="clipitem-telop-178">
						<file id="file-2"/>
						<name>！</name>
						<rate>
							<timebase>59</timebase>
							<ntsc>TRUE</ntsc>
						</rate>
						<rate>
							<timebase>59</timebase>
							<ntsc>TRUE</ntsc>
						</rate>
						<duration>60</duration>
						<start>1499</start>
						<end>1559</end>
						<in>0</in>
						<out>60</out>
					</clipitem>
					<clipitem frameBlend="FALSE" id="clipitem-telop-185">
						<file id="file-2"/>
						<name>！</name>
						<rate>
							<timebase>59</timebase>
							<ntsc>TRUE</ntsc>
						</rate>
						<rate>
							<timebase>59</timebase>
							<ntsc>TRUE</ntsc>
						</rate>
						<duration>60</duration>
						<start>1559</start>
						<end>1619</end>
						<in>0</in>
						<out>60</out>
					</clipitem>
					<clipitem frameBlend="FALSE" id="clipitem-telop-191">
						<file id="file-2"/>
						<name>！</name>
						<rate>
							<timebase>59</timebase>
							<ntsc>TRUE</ntsc>
						</rate>
						<rate>
							<timebase>59</timebase>
							<ntsc>TRUE</ntsc>
						</rate>
						<duration>60</duration>
						<start>1619</start>
						<end>1679</end>
						<in>0</in>
						<out>60</out>
					</clipitem>
					<clipitem frameBlend="FALSE" id="clipitem-telop-199">
						<file id="file-2"/>
						<name>！</name>
						<rate>
							<timebase>59</timebase>
							<ntsc>TRUE</ntsc>
						</rate>
						<rate>
							<timebase>59</timebase>
							<ntsc>TRUE</ntsc>
						</rate>
						<duration>60</duration>
						<start>1685</start>
						<end>1745</end>
						<in>0</in>
						<out>60</out>
					</clipitem>
					<clipitem frameBlend="FALSE" id="clipitem-telop-206">
						<file id="file-2"/>
						<name>！</name>
						<rate>
							<timebase>59</timebase>
							<ntsc>TRUE</ntsc>
						</rate>
						<rate>
							<timebase>59</timebase>
							<ntsc>TRUE</ntsc>
						</rate>
						<duration>60</duration>
						<start>1751</start>
						<end>1811</end>
						<in>0</in>
						<out>60</out>
					</clipitem>
					<clipitem frameBlend="FALSE" id="clipitem-telop-214">
						<file id="file-2"/>
						<name>！</name>
						<rate>
							<timebase>59</timebase>
							<ntsc>TRUE</ntsc>
						</rate>
						<rate>
							<timebase>59</timebase>
							<ntsc>TRUE</ntsc>
						</rate>
						<duration>60</duration>
						<start>1811</start>
						<end>1871</end>
						<in>0</in>
						<out>60</out>
					</clipitem>
					<clipitem frameBlend="FALSE" id="clipitem-telop-223">
						<file id="file-2"/>
						<name>！</name>
						<rate>
							<timebase>59</timebase>
							<ntsc>TRUE</ntsc>
						</rate>
						<rate>
							<timebase>59</timebase>
							<ntsc>TRUE</ntsc>
						</rate>
						<duration>60</duration>
						<start>1883</start>
						<end>1943</end>
						<in>0</in>
						<out>60</out>
					</clipitem>
					<clipitem frameBlend="FALSE" id="clipitem-telop-232">
						<file id="file-2"/>
						<name>！</name>
						<rate>
							<timebase>59</timebase>
							<ntsc>TRUE</ntsc>
						</rate>
						<rate>
							<timebase>59</timebase>
							<ntsc>TRUE</ntsc>
						</rate>
						<duration>60</duration>
						<start>1949</start>
						<end>2009</end>
						<in>0</in>
						<out>60</out>
					</clipitem>
					<clipitem frameBlend="FALSE" id="clipitem-telop-241">
						<file id="file-2"/>
						<name>！</name>
						<rate>
							<timebase>59</timebase>
							<ntsc>TRUE</ntsc>
						</rate>
						<rate>
							<timebase>59</timebase>
							<ntsc>TRUE</ntsc>
						</rate>
						<duration>60</duration>
						<start>2063</start>
						<end>2123</end>
						<in>0</in>
						<out>60</out>
					</clipitem>
					<clipitem frameBlend="FALSE" id="clipitem-telop-247">
						<file id="file-2"/>
						<name>！</name>
						<rate>
							<timebase>59</timebase>
							<ntsc>TRUE</ntsc>
						</rate>
						<rate>
							<timebase>59</timebase>
							<ntsc>TRUE</ntsc>
						</rate>
						<duration>60</duration>
						<start>2171</start>
						<end>2231</end>
						<in>0</in>
						<out>60</out>
					</clipitem>
					<clipitem frameBlend="FALSE" id="clipitem-telop-256">
						<file id="file-2"/>
						<name>！</name>
						<rate>
							<timebase>59</timebase>
							<ntsc>TRUE</ntsc>
						</rate>
						<rate>
							<timebase>59</timebase>
							<ntsc>TRUE</ntsc>
						</rate>
						<duration>60</duration>
						<start>2315</start>
						<end>2375</end>
						<in>0</in>
						<out>60</out>
					</clipitem>
					<clipitem frameBlend="FALSE" id="clipitem-telop-263">
						<file id="file-2"/>
						<name>！</name>
						<rate>
							<timebase>59</timebase>
							<ntsc>TRUE</ntsc>
						</rate>
						<rate>
							<timebase>59</timebase>
							<ntsc>TRUE</ntsc>
						</rate>
						<duration>60</duration>
						<start>2405</start>
						<end>2465</end>
						<in>0</in>
						<out>60</out>
					</clipitem>
					<clipitem frameBlend="FALSE" id="clipitem-telop-273">
						<file id="file-2"/>
						<name>！</name>
						<rate>
							<timebase>59</timebase>
							<ntsc>TRUE</ntsc>
						</rate>
						<rate>
							<timebase>59</timebase>
							<ntsc>TRUE</ntsc>
						</rate>
						<duration>60</duration>
						<start>2525</start>
						<end>2585</end>
						<in>0</in>
						<out>60</out>
					</clipitem>
					<clipitem frameBlend="FALSE" id="clipitem-telop-281">
						<file id="file-2"/>
						<name>！</name>
						<rate>
							<timebase>59</timebase>
							<ntsc>TRUE</ntsc>
						</rate>
						<rate>
							<timebase>59</timebase>
							<ntsc>TRUE</ntsc>
						</rate>
						<duration>60</duration>
						<start>2591</start>
						<end>2651</end>
						<in>0</in>
						<out>60</out>
					</clipitem>
					<clipitem frameBlend="FALSE" id="clipitem-telop-290">
						<file id="file-2"/>
						<name>！</name>
						<rate>
							<timebase>59</timebase>
							<ntsc>TRUE</ntsc>
						</rate>
						<rate>
							<timebase>59</timebase>
							<ntsc>TRUE</ntsc>
						</rate>
						<duration>66</duration>
						<start>2669</start>
						<end>2735</end>
						<in>0</in>
						<out>66</out>
					</clipitem>
					<clipitem frameBlend="FALSE" id="clipitem-telop-296">
						<file id="file-2"/>
						<name>！</name>
						<rate>
							<timebase>59</timebase>
							<ntsc>TRUE</ntsc>
						</rate>
						<rate>
							<timebase>59</timebase>
							<ntsc>TRUE</ntsc>
						</rate>
						<duration>60</duration>
						<start>2735</start>
						<end>2795</end>
						<in>0</in>
						<out>60</out>
					</clipitem>
					<clipitem frameBlend="FALSE" id="clipitem-telop-305">
						<file id="file-2"/>
						<name>！</name>
						<rate>
							<timebase>59</timebase>
							<ntsc>TRUE</ntsc>
						</rate>
						<rate>
							<timebase>59</timebase>
							<ntsc>TRUE</ntsc>
						</rate>
						<duration>60</duration>
						<start>2801</start>
						<end>2861</end>
						<in>0</in>
						<out>60</out>
					</clipitem>
					<clipitem frameBlend="FALSE" id="clipitem-telop-315">
						<file id="file-2"/>
						<name>！</name>
						<rate>
							<timebase>59</timebase>
							<ntsc>TRUE</ntsc>
						</rate>
						<rate>
							<timebase>59</timebase>
							<ntsc>TRUE</ntsc>
						</rate>
						<duration>60</duration>
						<start>2909</start>
						<end>2969</end>
						<in>0</in>
						<out>60</out>
					</clipitem>
					<clipitem frameBlend="FALSE" id="clipitem-telop-323">
						<file id="file-2"/>
						<name>！</name>
						<rate>
							<timebase>59</timebase>
							<ntsc>TRUE</ntsc>
						</rate>
						<rate>
							<timebase>59</timebase>
							<ntsc>TRUE</ntsc>
						</rate>
						<duration>60</duration>
						<start>2987</start>
						<end>3047</end>
						<in>0</in>
						<out>60</out>
					</clipitem>
					<clipitem frameBlend="FALSE" id="clipitem-telop-337">
						<file id="file-2"/>
						<name>！</name>
						<rate>
							<timebase>59</timebase>
							<ntsc>TRUE</ntsc>
						</rate>
						<rate>
							<timebase>59</timebase>
							<ntsc>TRUE</ntsc>
						</rate>
						<duration>60</duration>
						<start>3125</start>
						<end>3185</end>
						<in>0</in>
						<out>60</out>
					</clipitem>
					<clipitem frameBlend="FALSE" id="clipitem-telop-346">
						<file id="file-2"/>
						<name>！</name>
						<rate>
							<timebase>59</timebase>
							<ntsc>TRUE</ntsc>
						</rate>
						<rate>
							<timebase>59</timebase>
							<ntsc>TRUE</ntsc>
						</rate>
						<duration>66</duration>
						<start>3197</start>
						<end>3263</end>
						<in>0</in>
						<out>66</out>
					</clipitem>
					<clipitem frameBlend="FALSE" id="clipitem-telop-357">
						<file id="file-2"/>
						<name>！</name>
						<rate>
							<timebase>59</timebase>
							<ntsc>TRUE</ntsc>
						</rate>
						<rate>
							<timebase>59</timebase>
							<ntsc>TRUE</ntsc>
						</rate>
						<duration>66</duration>
						<start>3275</start>
						<end>3341</end>
						<in>0</in>
						<out>66</out>
					</clipitem>
					<clipitem frameBlend="FALSE" id="clipitem-telop-365">
						<file id="file-2"/>
						<name>！</name>
						<rate>
							<timebase>59</timebase>
							<ntsc>TRUE</ntsc>
						</rate>
						<rate>
							<timebase>59</timebase>
							<ntsc>TRUE</ntsc>
						</rate>
						<duration>66</duration>
						<start>3341</start>
						<end>3407</end>
						<in>0</in>
						<out>66</out>
					</clipitem>
					<clipitem frameBlend="FALSE" id="clipitem-telop-373">
						<file id="file-2"/>
						<name>！</name>
						<rate>
							<timebase>59</timebase>
							<ntsc>TRUE</ntsc>
						</rate>
						<rate>
							<timebase>59</timebase>
							<ntsc>TRUE</ntsc>
						</rate>
						<duration>60</duration>
						<start>3425</start>
						<end>3485</end>
						<in>0</in>
						<out>60</out>
					</clipitem>
					<clipitem frameBlend="FALSE" id="clipitem-telop-385">
						<file id="file-2"/>
						<name>！</name>
						<rate>
							<timebase>59</timebase>
							<ntsc>TRUE</ntsc>
						</rate>
						<rate>
							<timebase>59</timebase>
							<ntsc>TRUE</ntsc>
						</rate>
						<duration>60</duration>
						<start>3538</start>
						<end>3598</end>
						<in>0</in>
						<out>60</out>
					</clipitem>
					<clipitem frameBlend="FALSE" id="clipitem-telop-390">
						<file id="file-2"/>
						<name>！</name>
						<rate>
							<timebase>59</timebase>
							<ntsc>TRUE</ntsc>
						</rate>
						<rate>
							<timebase>59</timebase>
							<ntsc>TRUE</ntsc>
						</rate>
						<duration>60</duration>
						<start>3610</start>
						<end>3670</end>
						<in>0</in>
						<out>60</out>
					</clipitem>
					<clipitem frameBlend="FALSE" id="clipitem-telop-399">
						<file id="file-2"/>
						<name>！</name>
						<rate>
							<timebase>59</timebase>
							<ntsc>TRUE</ntsc>
						</rate>
						<rate>
							<timebase>59</timebase>
							<ntsc>TRUE</ntsc>
						</rate>
						<duration>60</duration>
						<start>3682</start>
						<end>3742</end>
						<in>0</in>
						<out>60</out>
					</clipitem>
					<clipitem frameBlend="FALSE" id="clipitem-telop-408">
						<file id="file-2"/>
						<name>！</name>
						<rate>
							<timebase>59</timebase>
							<ntsc>TRUE</ntsc>
						</rate>
						<rate>
							<timebase>59</timebase>
							<ntsc>TRUE</ntsc>
						</rate>
						<duration>60</duration>
						<start>3742</start>
						<end>3802</end>
						<in>0</in>
						<out>60</out>
					</clipitem>
					<clipitem frameBlend="FALSE" id="clipitem-telop-416">
						<file id="file-2"/>
						<name>！</name>
						<rate>
							<timebase>59</timebase>
							<ntsc>TRUE</ntsc>
						</rate>
						<rate>
							<timebase>59</timebase>
							<ntsc>TRUE</ntsc>
						</rate>
						<duration>60</duration>
						<start>3802</start>
						<end>3862</end>
						<in>0</in>
						<out>60</out>
					</clipitem>
					<clipitem frameBlend="FALSE" id="clipitem-telop-424">
						<file id="file-2"/>
						<name>！</name>
						<rate>
							<timebase>59</timebase>
							<ntsc>TRUE</ntsc>
						</rate>
						<rate>
							<timebase>59</timebase>
							<ntsc>TRUE</ntsc>
						</rate>
						<duration>60</duration>
						<start>3862</start>
						<end>3922</end>
						<in>0</in>
						<out>60</out>
					</clipitem>
					<clipitem frameBlend="FALSE" id="clipitem-telop-432">
						<file id="file-2"/>
						<name>てか 格好すげぇな</name>
						<rate>
							<timebase>59</timebase>
							<ntsc>TRUE</ntsc>
						</rate>
						<rate>
							<timebase>59</timebase>
							<ntsc>TRUE</ntsc>
						</rate>
						<duration>120</duration>
						<start>4018</start>
						<end>4138</end>
						<in>0</in>
						<out>120</out>
					</clipitem>
					<clipitem frameBlend="FALSE" id="clipitem-telop-446">
						<file id="file-2"/>
						<name>！</name>
						<rate>
							<timebase>59</timebase>
							<ntsc>TRUE</ntsc>
						</rate>
						<rate>
							<timebase>59</timebase>
							<ntsc>TRUE</ntsc>
						</rate>
						<duration>66</duration>
						<start>4216</start>
						<end>4282</end>
						<in>0</in>
						<out>66</out>
					</clipitem>
					<clipitem frameBlend="FALSE" id="clipitem-telop-455">
						<file id="file-2"/>
						<name>！</name>
						<rate>
							<timebase>59</timebase>
							<ntsc>TRUE</ntsc>
						</rate>
						<rate>
							<timebase>59</timebase>
							<ntsc>TRUE</ntsc>
						</rate>
						<duration>60</duration>
						<start>4294</start>
						<end>4354</end>
						<in>0</in>
						<out>60</out>
					</clipitem>
					<clipitem frameBlend="FALSE" id="clipitem-telop-464">
						<file id="file-2"/>
						<name>！</name>
						<rate>
							<timebase>59</timebase>
							<ntsc>TRUE</ntsc>
						</rate>
						<rate>
							<timebase>59</timebase>
							<ntsc>TRUE</ntsc>
						</rate>
						<duration>60</duration>
						<start>4366</start>
						<end>4426</end>
						<in>0</in>
						<out>60</out>
					</clipitem>
					<clipitem frameBlend="FALSE" id="clipitem-telop-473">
						<file id="file-2"/>
						<name>！</name>
						<rate>
							<timebase>59</timebase>
							<ntsc>TRUE</ntsc>
						</rate>
						<rate>
							<timebase>59</timebase>
							<ntsc>TRUE</ntsc>
						</rate>
						<duration>60</duration>
						<start>4426</start>
						<end>4486</end>
						<in>0</in>
						<out>60</out>
					</clipitem>
					<clipitem frameBlend="FALSE" id="clipitem-telop-484">
						<file id="file-2"/>
						<name>！</name>
						<rate>
							<timebase>59</timebase>
							<ntsc>TRUE</ntsc>
						</rate>
						<rate>
							<timebase>59</timebase>
							<ntsc>TRUE</ntsc>
						</rate>
						<duration>66</duration>
						<start>4492</start>
						<end>4558</end>
						<in>0</in>
						<out>66</out>
					</clipitem>
					<clipitem frameBlend="FALSE" id="clipitem-telop-491">
						<file id="file-2"/>
						<name>！</name>
						<rate>
							<timebase>59</timebase>
							<ntsc>TRUE</ntsc>
						</rate>
						<rate>
							<timebase>59</timebase>
							<ntsc>TRUE</ntsc>
						</rate>
						<duration>60</duration>
						<start>4564</start>
						<end>4624</end>
						<in>0</in>
						<out>60</out>
					</clipitem>
					<clipitem frameBlend="FALSE" id="clipitem-telop-499">
						<file id="file-2"/>
						<name>！</name>
						<rate>
							<timebase>59</timebase>
							<ntsc>TRUE</ntsc>
						</rate>
						<rate>
							<timebase>59</timebase>
							<ntsc>TRUE</ntsc>
						</rate>
						<duration>66</duration>
						<start>4624</start>
						<end>4690</end>
						<in>0</in>
						<out>66</out>
					</clipitem>
					<clipitem frameBlend="FALSE" id="clipitem-telop-505">
						<file id="file-2"/>
						<name>！</name>
						<rate>
							<timebase>59</timebase>
							<ntsc>TRUE</ntsc>
						</rate>
						<rate>
							<timebase>59</timebase>
							<ntsc>TRUE</ntsc>
						</rate>
						<duration>60</duration>
						<start>4696</start>
						<end>4756</end>
						<in>0</in>
						<out>60</out>
					</clipitem>
					<clipitem frameBlend="FALSE" id="clipitem-telop-512">
						<file id="file-2"/>
						<name>！</name>
						<rate>
							<timebase>59</timebase>
							<ntsc>TRUE</ntsc>
						</rate>
						<rate>
							<timebase>59</timebase>
							<ntsc>TRUE</ntsc>
						</rate>
						<duration>60</duration>
						<start>4756</start>
						<end>4816</end>
						<in>0</in>
						<out>60</out>
					</clipitem>
					<clipitem frameBlend="FALSE" id="clipitem-telop-517">
						<file id="file-2"/>
						<name>！</name>
						<rate>
							<timebase>59</timebase>
							<ntsc>TRUE</ntsc>
						</rate>
						<rate>
							<timebase>59</timebase>
							<ntsc>TRUE</ntsc>
						</rate>
						<duration>60</duration>
						<start>4816</start>
						<end>4876</end>
						<in>0</in>
						<out>60</out>
					</clipitem>
					<clipitem frameBlend="FALSE" id="clipitem-telop-528">
						<file id="file-2"/>
						<name>こびもこび</name>
						<rate>
							<timebase>59</timebase>
							<ntsc>TRUE</ntsc>
						</rate>
						<rate>
							<timebase>59</timebase>
							<ntsc>TRUE</ntsc>
						</rate>
						<duration>180</duration>
						<start>4918</start>
						<end>5098</end>
						<in>0</in>
						<out>180</out>
					</clipitem>
					<clipitem frameBlend="FALSE" id="clipitem-telop-547">
						<file id="file-2"/>
						<name>！</name>
						<rate>
							<timebase>59</timebase>
							<ntsc>TRUE</ntsc>
						</rate>
						<rate>
							<timebase>59</timebase>
							<ntsc>TRUE</ntsc>
						</rate>
						<duration>60</duration>
						<start>5098</start>
						<end>5158</end>
						<in>0</in>
						<out>60</out>
					</clipitem>
					<clipitem frameBlend="FALSE" id="clipitem-telop-557">
						<file id="file-2"/>
						<name>！</name>
						<rate>
							<timebase>59</timebase>
							<ntsc>TRUE</ntsc>
						</rate>
						<rate>
							<timebase>59</timebase>
							<ntsc>TRUE</ntsc>
						</rate>
						<duration>60</duration>
						<start>5182</start>
						<end>5242</end>
						<in>0</in>
						<out>60</out>
					</clipitem>
					<clipitem frameBlend="FALSE" id="clipitem-telop-562">
						<file id="file-2"/>
						<name>！</name>
						<rate>
							<timebase>59</timebase>
							<ntsc>TRUE</ntsc>
						</rate>
						<rate>
							<timebase>59</timebase>
							<ntsc>TRUE</ntsc>
						</rate>
						<duration>60</duration>
						<start>5254</start>
						<end>5314</end>
						<in>0</in>
						<out>60</out>
					</clipitem>
					<clipitem frameBlend="FALSE" id="clipitem-telop-572">
						<file id="file-2"/>
						<name>！</name>
						<rate>
							<timebase>59</timebase>
							<ntsc>TRUE</ntsc>
						</rate>
						<rate>
							<timebase>59</timebase>
							<ntsc>TRUE</ntsc>
						</rate>
						<duration>60</duration>
						<start>5314</start>
						<end>5374</end>
						<in>0</in>
						<out>60</out>
					</clipitem>
					<clipitem frameBlend="FALSE" id="clipitem-telop-580">
						<file id="file-2"/>
						<name>！</name>
						<rate>
							<timebase>59</timebase>
							<ntsc>TRUE</ntsc>
						</rate>
						<rate>
							<timebase>59</timebase>
							<ntsc>TRUE</ntsc>
						</rate>
						<duration>60</duration>
						<start>5446</start>
						<end>5506</end>
						<in>0</in>
						<out>60</out>
					</clipitem>
					<clipitem frameBlend="FALSE" id="clipitem-telop-584">
						<file id="file-2"/>
						<name>！</name>
						<rate>
							<timebase>59</timebase>
							<ntsc>TRUE</ntsc>
						</rate>
						<rate>
							<timebase>59</timebase>
							<ntsc>TRUE</ntsc>
						</rate>
						<duration>60</duration>
						<start>5512</start>
						<end>5572</end>
						<in>0</in>
						<out>60</out>
					</clipitem>
					<clipitem frameBlend="FALSE" id="clipitem-telop-596">
						<file id="file-2"/>
						<name>！</name>
						<rate>
							<timebase>59</timebase>
							<ntsc>TRUE</ntsc>
						</rate>
						<rate>
							<timebase>59</timebase>
							<ntsc>TRUE</ntsc>
						</rate>
						<duration>66</duration>
						<start>5572</start>
						<end>5638</end>
						<in>0</in>
						<out>66</out>
					</clipitem>
					<clipitem frameBlend="FALSE" id="clipitem-telop-606">
						<file id="file-2"/>
						<name>！</name>
						<rate>
							<timebase>59</timebase>
							<ntsc>TRUE</ntsc>
						</rate>
						<rate>
							<timebase>59</timebase>
							<ntsc>TRUE</ntsc>
						</rate>
						<duration>66</duration>
						<start>5638</start>
						<end>5704</end>
						<in>0</in>
						<out>66</out>
					</clipitem>
					<clipitem frameBlend="FALSE" id="clipitem-telop-613">
						<file id="file-2"/>
						<name>！</name>
						<rate>
							<timebase>59</timebase>
							<ntsc>TRUE</ntsc>
						</rate>
						<rate>
							<timebase>59</timebase>
							<ntsc>TRUE</ntsc>
						</rate>
						<duration>60</duration>
						<start>5728</start>
						<end>5788</end>
						<in>0</in>
						<out>60</out>
					</clipitem>
					<clipitem frameBlend="FALSE" id="clipitem-telop-620">
						<file id="file-2"/>
						<name>！</name>
						<rate>
							<timebase>59</timebase>
							<ntsc>TRUE</ntsc>
						</rate>
						<rate>
							<timebase>59</timebase>
							<ntsc>TRUE</ntsc>
						</rate>
						<duration>60</duration>
						<start>5788</start>
						<end>5848</end>
						<in>0</in>
						<out>60</out>
					</clipitem>
					<clipitem frameBlend="FALSE" id="clipitem-telop-635">
						<file id="file-2"/>
						<name>！</name>
						<rate>
							<timebase>59</timebase>
							<ntsc>TRUE</ntsc>
						</rate>
						<rate>
							<timebase>59</timebase>
							<ntsc>TRUE</ntsc>
						</rate>
						<duration>60</duration>
						<start>5902</start>
						<end>5962</end>
						<in>0</in>
						<out>60</out>
					</clipitem>
					<clipitem frameBlend="FALSE" id="clipitem-telop-643">
						<file id="file-2"/>
						<name>！</name>
						<rate>
							<timebase>59</timebase>
							<ntsc>TRUE</ntsc>
						</rate>
						<rate>
							<timebase>59</timebase>
							<ntsc>TRUE</ntsc>
						</rate>
						<duration>60</duration>
						<start>5986</start>
						<end>6046</end>
						<in>0</in>
						<out>60</out>
					</clipitem>
					<clipitem frameBlend="FALSE" id="clipitem-telop-654">
						<file id="file-2"/>
						<name>！</name>
						<rate>
							<timebase>59</timebase>
							<ntsc>TRUE</ntsc>
						</rate>
						<rate>
							<timebase>59</timebase>
							<ntsc>TRUE</ntsc>
						</rate>
						<duration>60</duration>
						<start>6076</start>
						<end>6136</end>
						<in>0</in>
						<out>60</out>
					</clipitem>
					<clipitem frameBlend="FALSE" id="clipitem-telop-664">
						<file id="file-2"/>
						<name>！</name>
						<rate>
							<timebase>59</timebase>
							<ntsc>TRUE</ntsc>
						</rate>
						<rate>
							<timebase>59</timebase>
							<ntsc>TRUE</ntsc>
						</rate>
						<duration>60</duration>
						<start>6142</start>
						<end>6202</end>
						<in>0</in>
						<out>60</out>
					</clipitem>
					<clipitem frameBlend="FALSE" id="clipitem-telop-671">
						<file id="file-2"/>
						<name>！</name>
						<rate>
							<timebase>59</timebase>
							<ntsc>TRUE</ntsc>
						</rate>
						<rate>
							<timebase>59</timebase>
							<ntsc>TRUE</ntsc>
						</rate>
						<duration>60</duration>
						<start>6208</start>
						<end>6268</end>
						<in>0</in>
						<out>60</out>
					</clipitem>
					<clipitem frameBlend="FALSE" id="clipitem-telop-680">
						<file id="file-2"/>
						<name>！</name>
						<rate>
							<timebase>59</timebase>
							<ntsc>TRUE</ntsc>
						</rate>
						<rate>
							<timebase>59</timebase>
							<ntsc>TRUE</ntsc>
						</rate>
						<duration>60</duration>
						<start>6274</start>
						<end>6334</end>
						<in>0</in>
						<out>60</out>
					</clipitem>
					<clipitem frameBlend="FALSE" id="clipitem-telop-691">
						<file id="file-2"/>
						<name>！</name>
						<rate>
							<timebase>59</timebase>
							<ntsc>TRUE</ntsc>
						</rate>
						<rate>
							<timebase>59</timebase>
							<ntsc>TRUE</ntsc>
						</rate>
						<duration>60</duration>
						<start>6340</start>
						<end>6400</end>
						<in>0</in>
						<out>60</out>
					</clipitem>
					<clipitem frameBlend="FALSE" id="clipitem-telop-700">
						<file id="file-2"/>
						<name>！</name>
						<rate>
							<timebase>59</timebase>
							<ntsc>TRUE</ntsc>
						</rate>
						<rate>
							<timebase>59</timebase>
							<ntsc>TRUE</ntsc>
						</rate>
						<duration>60</duration>
						<start>6400</start>
						<end>6460</end>
						<in>0</in>
						<out>60</out>
					</clipitem>
					<clipitem frameBlend="FALSE" id="clipitem-telop-705">
						<file id="file-2"/>
						<name>！</name>
						<rate>
							<timebase>59</timebase>
							<ntsc>TRUE</ntsc>
						</rate>
						<rate>
							<timebase>59</timebase>
							<ntsc>TRUE</ntsc>
						</rate>
						<duration>60</duration>
						<start>6466</start>
						<end>6526</end>
						<in>0</in>
						<out>60</out>
					</clipitem>
					<clipitem frameBlend="FALSE" id="clipitem-telop-713">
						<file id="file-2"/>
						<name>！</name>
						<rate>
							<timebase>59</timebase>
							<ntsc>TRUE</ntsc>
						</rate>
						<rate>
							<timebase>59</timebase>
							<ntsc>TRUE</ntsc>
						</rate>
						<duration>66</duration>
						<start>6550</start>
						<end>6616</end>
						<in>0</in>
						<out>66</out>
					</clipitem>
					<clipitem frameBlend="FALSE" id="clipitem-telop-721">
						<file id="file-2"/>
						<name>！</name>
						<rate>
							<timebase>59</timebase>
							<ntsc>TRUE</ntsc>
						</rate>
						<rate>
							<timebase>59</timebase>
							<ntsc>TRUE</ntsc>
						</rate>
						<duration>60</duration>
						<start>6640</start>
						<end>6700</end>
						<in>0</in>
						<out>60</out>
					</clipitem>
					<clipitem frameBlend="FALSE" id="clipitem-telop-728">
						<file id="file-2"/>
						<name>！</name>
						<rate>
							<timebase>59</timebase>
							<ntsc>TRUE</ntsc>
						</rate>
						<rate>
							<timebase>59</timebase>
							<ntsc>TRUE</ntsc>
						</rate>
						<duration>60</duration>
						<start>6760</start>
						<end>6820</end>
						<in>0</in>
						<out>60</out>
					</clipitem>
					<clipitem frameBlend="FALSE" id="clipitem-telop-738">
						<file id="file-2"/>
						<name>！</name>
						<rate>
							<timebase>59</timebase>
							<ntsc>TRUE</ntsc>
						</rate>
						<rate>
							<timebase>59</timebase>
							<ntsc>TRUE</ntsc>
						</rate>
						<duration>66</duration>
						<start>6880</start>
						<end>6946</end>
						<in>0</in>
						<out>66</out>
					</clipitem>
					<clipitem frameBlend="FALSE" id="clipitem-telop-748">
						<file id="file-2"/>
						<name>！</name>
						<rate>
							<timebase>59</timebase>
							<ntsc>TRUE</ntsc>
						</rate>
						<rate>
							<timebase>59</timebase>
							<ntsc>TRUE</ntsc>
						</rate>
						<duration>60</duration>
						<start>6946</start>
						<end>7006</end>
						<in>0</in>
						<out>60</out>
					</clipitem>
					<clipitem frameBlend="FALSE" id="clipitem-telop-757">
						<file id="file-2"/>
						<name>！</name>
						<rate>
							<timebase>59</timebase>
							<ntsc>TRUE</ntsc>
						</rate>
						<rate>
							<timebase>59</timebase>
							<ntsc>TRUE</ntsc>
						</rate>
						<duration>18</duration>
						<start>7042</start>
						<end>7060</end>
						<in>0</in>
						<out>18</out>
					</clipitem>
				</track>
				<track>
					<clipitem frameBlend="FALSE" id="clipitem-telop-6">
						<file id="file-2"/>
						<name>！</name>
						<rate>
							<timebase>59</timebase>
							<ntsc>TRUE</ntsc>
						</rate>
						<rate>
							<timebase>59</timebase>
							<ntsc>TRUE</ntsc>
						</rate>
						<duration>66</duration>
						<start>71</start>
						<end>137</end>
						<in>0</in>
						<out>66</out>
					</clipitem>
					<clipitem frameBlend="FALSE" id="clipitem-telop-14">
						<file id="file-2"/>
						<name>！</name>
						<rate>
							<timebase>59</timebase>
							<ntsc>TRUE</ntsc>
						</rate>
						<rate>
							<timebase>59</timebase>
							<ntsc>TRUE</ntsc>
						</rate>
						<duration>60</duration>
						<start>143</start>
						<end>203</end>
						<in>0</in>
						<out>60</out>
					</clipitem>
					<clipitem frameBlend="FALSE" id="clipitem-telop-21">
						<file id="file-2"/>
						<name>！</name>
						<rate>
							<timebase>59</timebase>
							<ntsc>TRUE</ntsc>
						</rate>
						<rate>
							<timebase>59</timebase>
							<ntsc>TRUE</ntsc>
						</rate>
						<duration>60</duration>
						<start>245</start>
						<end>305</end>
						<in>0</in>
						<out>60</out>
					</clipitem>
					<clipitem frameBlend="FALSE" id="clipitem-telop-29">
						<file id="file-2"/>
						<name>！</name>
						<rate>
							<timebase>59</timebase>
							<ntsc>TRUE</ntsc>
						</rate>
						<rate>
							<timebase>59</timebase>
							<ntsc>TRUE</ntsc>
						</rate>
						<duration>60</duration>
						<start>311</start>
						<end>371</end>
						<in>0</in>
						<out>60</out>
					</clipitem>
					<clipitem frameBlend="FALSE" id="clipitem-telop-37">
						<file id="file-2"/>
						<name>！</name>
						<rate>
							<timebase>59</timebase>
							<ntsc>TRUE</ntsc>
						</rate>
						<rate>
							<timebase>59</timebase>
							<ntsc>TRUE</ntsc>
						</rate>
						<duration>66</duration>
						<start>383</start>
						<end>449</end>
						<in>0</in>
						<out>66</out>
					</clipitem>
					<clipitem frameBlend="FALSE" id="clipitem-telop-45">
						<file id="file-2"/>
						<name>！</name>
						<rate>
							<timebase>59</timebase>
							<ntsc>TRUE</ntsc>
						</rate>
						<rate>
							<timebase>59</timebase>
							<ntsc>TRUE</ntsc>
						</rate>
						<duration>60</duration>
						<start>473</start>
						<end>533</end>
						<in>0</in>
						<out>60</out>
					</clipitem>
					<clipitem frameBlend="FALSE" id="clipitem-telop-55">
						<file id="file-2"/>
						<name>！</name>
						<rate>
							<timebase>59</timebase>
							<ntsc>TRUE</ntsc>
						</rate>
						<rate>
							<timebase>59</timebase>
							<ntsc>TRUE</ntsc>
						</rate>
						<duration>60</duration>
						<start>545</start>
						<end>605</end>
						<in>0</in>
						<out>60</out>
					</clipitem>
					<clipitem frameBlend="FALSE" id="clipitem-telop-64">
						<file id="file-2"/>
						<name>！</name>
						<rate>
							<timebase>59</timebase>
							<ntsc>TRUE</ntsc>
						</rate>
						<rate>
							<timebase>59</timebase>
							<ntsc>TRUE</ntsc>
						</rate>
						<duration>60</duration>
						<start>605</start>
						<end>665</end>
						<in>0</in>
						<out>60</out>
					</clipitem>
					<clipitem frameBlend="FALSE" id="clipitem-telop-73">
						<file id="file-2"/>
						<name>！</name>
						<rate>
							<timebase>59</timebase>
							<ntsc>TRUE</ntsc>
						</rate>
						<rate>
							<timebase>59</timebase>
							<ntsc>TRUE</ntsc>
						</rate>
						<duration>60</duration>
						<start>671</start>
						<end>731</end>
						<in>0</in>
						<out>60</out>
					</clipitem>
					<clipitem frameBlend="FALSE" id="clipitem-telop-81">
						<file id="file-2"/>
						<name>！</name>
						<rate>
							<timebase>59</timebase>
							<ntsc>TRUE</ntsc>
						</rate>
						<rate>
							<timebase>59</timebase>
							<ntsc>TRUE</ntsc>
						</rate>
						<duration>60</duration>
						<start>743</start>
						<end>803</end>
						<in>0</in>
						<out>60</out>
					</clipitem>
					<clipitem frameBlend="FALSE" id="clipitem-telop-90">
						<file id="file-2"/>
						<name>！</name>
						<rate>
							<timebase>59</timebase>
							<ntsc>TRUE</ntsc>
						</rate>
						<rate>
							<timebase>59</timebase>
							<ntsc>TRUE</ntsc>
						</rate>
						<duration>60</duration>
						<start>815</start>
						<end>875</end>
						<in>0</in>
						<out>60</out>
					</clipitem>
					<clipitem frameBlend="FALSE" id="clipitem-telop-100">
						<file id="file-2"/>
						<name>！</name>
						<rate>
							<timebase>59</timebase>
							<ntsc>TRUE</ntsc>
						</rate>
						<rate>
							<timebase>59</timebase>
							<ntsc>TRUE</ntsc>
						</rate>
						<duration>60</duration>
						<start>875</start>
						<end>935</end>
						<in>0</in>
						<out>60</out>
					</clipitem>
					<clipitem frameBlend="FALSE" id="clipitem-telop-110">
						<file id="file-2"/>
						<name>！</name>
						<rate>
							<timebase>59</timebase>
							<ntsc>TRUE</ntsc>
						</rate>
						<rate>
							<timebase>59</timebase>
							<ntsc>TRUE</ntsc>
						</rate>
						<duration>66</duration>
						<start>935</start>
						<end>1001</end>
						<in>0</in>
						<out>66</out>
					</clipitem>
					<clipitem frameBlend="FALSE" id="clipitem-telop-126">
						<file id="file-2"/>
						<name>！</name>
						<rate>
							<timebase>59</timebase>
							<ntsc>TRUE</ntsc>
						</rate>
						<rate>
							<timebase>59</timebase>
							<ntsc>TRUE</ntsc>
						</rate>
						<duration>60</duration>
						<start>1025</start>
						<end>1085</end>
						<in>0</in>
						<out>60</out>
					</clipitem>
					<clipitem frameBlend="FALSE" id="clipitem-telop-138">
						<file id="file-2"/>
						<name>！</name>
						<rate>
							<timebase>59</timebase>
							<ntsc>TRUE</ntsc>
						</rate>
						<rate>
							<timebase>59</timebase>
							<ntsc>TRUE</ntsc>
						</rate>
						<duration>60</duration>
						<start>1115</start>
						<end>1175</end>
						<in>0</in>
						<out>60</out>
					</clipitem>
					<clipitem frameBlend="FALSE" id="clipitem-telop-144">
						<file id="file-2"/>
						<name>！</name>
						<rate>
							<timebase>59</timebase>
							<ntsc>TRUE</ntsc>
						</rate>
						<rate>
							<timebase>59</timebase>
							<ntsc>TRUE</ntsc>
						</rate>
						<duration>60</duration>
						<start>1187</start>
						<end>1247</end>
						<in>0</in>
						<out>60</out>
					</clipitem>
					<clipitem frameBlend="FALSE" id="clipitem-telop-151">
						<file id="file-2"/>
						<name>！</name>
						<rate>
							<timebase>59</timebase>
							<ntsc>TRUE</ntsc>
						</rate>
						<rate>
							<timebase>59</timebase>
							<ntsc>TRUE</ntsc>
						</rate>
						<duration>60</duration>
						<start>1259</start>
						<end>1319</end>
						<in>0</in>
						<out>60</out>
					</clipitem>
					<clipitem frameBlend="FALSE" id="clipitem-telop-161">
						<file id="file-2"/>
						<name>！</name>
						<rate>
							<timebase>59</timebase>
							<ntsc>TRUE</ntsc>
						</rate>
						<rate>
							<timebase>59</timebase>
							<ntsc>TRUE</ntsc>
						</rate>
						<duration>66</duration>
						<start>1355</start>
						<end>1421</end>
						<in>0</in>
						<out>66</out>
					</clipitem>
					<clipitem frameBlend="FALSE" id="clipitem-telop-170">
						<file id="file-2"/>
						<name>！</name>
						<rate>
							<timebase>59</timebase>
							<ntsc>TRUE</ntsc>
						</rate>
						<rate>
							<timebase>59</timebase>
							<ntsc>TRUE</ntsc>
						</rate>
						<duration>60</duration>
						<start>1427</start>
						<end>1487</end>
						<in>0</in>
						<out>60</out>
					</clipitem>
					<clipitem frameBlend="FALSE" id="clipitem-telop-180">
						<file id="file-2"/>
						<name>！</name>
						<rate>
							<timebase>59</timebase>
							<ntsc>TRUE</ntsc>
						</rate>
						<rate>
							<timebase>59</timebase>
							<ntsc>TRUE</ntsc>
						</rate>
						<duration>60</duration>
						<start>1517</start>
						<end>1577</end>
						<in>0</in>
						<out>60</out>
					</clipitem>
					<clipitem frameBlend="FALSE" id="clipitem-telop-188">
						<file id="file-2"/>
						<name>！</name>
						<rate>
							<timebase>59</timebase>
							<ntsc>TRUE</ntsc>
						</rate>
						<rate>
							<timebase>59</timebase>
							<ntsc>TRUE</ntsc>
						</rate>
						<duration>66</duration>
						<start>1601</start>
						<end>1667</end>
						<in>0</in>
						<out>66</out>
					</clipitem>
					<clipitem frameBlend="FALSE" id="clipitem-telop-201">
						<file id="file-2"/>
						<name>！</name>
						<rate>
							<timebase>59</timebase>
							<ntsc>TRUE</ntsc>
						</rate>
						<rate>
							<timebase>59</timebase>
							<ntsc>TRUE</ntsc>
						</rate>
						<duration>66</duration>
						<start>1703</start>
						<end>1769</end>
						<in>0</in>
						<out>66</out>
					</clipitem>
					<clipitem frameBlend="FALSE" id="clipitem-telop-208">
						<file id="file-2"/>
						<name>！</name>
						<rate>
							<timebase>59</timebase>
							<ntsc>TRUE</ntsc>
						</rate>
						<rate>
							<timebase>59</timebase>
							<ntsc>TRUE</ntsc>
						</rate>
						<duration>66</duration>
						<start>1769</start>
						<end>1835</end>
						<in>0</in>
						<out>66</out>
					</clipitem>
					<clipitem frameBlend="FALSE" id="clipitem-telop-219">
						<file id="file-2"/>
						<name>！</name>
						<rate>
							<timebase>59</timebase>
							<ntsc>TRUE</ntsc>
						</rate>
						<rate>
							<timebase>59</timebase>
							<ntsc>TRUE</ntsc>
						</rate>
						<duration>60</duration>
						<start>1835</start>
						<end>1895</end>
						<in>0</in>
						<out>60</out>
					</clipitem>
					<clipitem frameBlend="FALSE" id="clipitem-telop-225">
						<file id="file-2"/>
						<name>！</name>
						<rate>
							<timebase>59</timebase>
							<ntsc>TRUE</ntsc>
						</rate>
						<rate>
							<timebase>59</timebase>
							<ntsc>TRUE</ntsc>
						</rate>
						<duration>60</duration>
						<start>1901</start>
						<end>1961</end>
						<in>0</in>
						<out>60</out>
					</clipitem>
					<clipitem frameBlend="FALSE" id="clipitem-telop-234">
						<file id="file-2"/>
						<name>！</name>
						<rate>
							<timebase>59</timebase>
							<ntsc>TRUE</ntsc>
						</rate>
						<rate>
							<timebase>59</timebase>
							<ntsc>TRUE</ntsc>
						</rate>
						<duration>60</duration>
						<start>1967</start>
						<end>2027</end>
						<in>0</in>
						<out>60</out>
					</clipitem>
					<clipitem frameBlend="FALSE" id="clipitem-telop-248">
						<file id="file-2"/>
						<name>！</name>
						<rate>
							<timebase>59</timebase>
							<ntsc>TRUE</ntsc>
						</rate>
						<rate>
							<timebase>59</timebase>
							<ntsc>TRUE</ntsc>
						</rate>
						<duration>66</duration>
						<start>2177</start>
						<end>2243</end>
						<in>0</in>
						<out>66</out>
					</clipitem>
					<clipitem frameBlend="FALSE" id="clipitem-telop-257">
						<file id="file-2"/>
						<name>！</name>
						<rate>
							<timebase>59</timebase>
							<ntsc>TRUE</ntsc>
						</rate>
						<rate>
							<timebase>59</timebase>
							<ntsc>TRUE</ntsc>
						</rate>
						<duration>60</duration>
						<start>2321</start>
						<end>2381</end>
						<in>0</in>
						<out>60</out>
					</clipitem>
					<clipitem frameBlend="FALSE" id="clipitem-telop-266">
						<file id="file-2"/>
						<name>！</name>
						<rate>
							<timebase>59</timebase>
							<ntsc>TRUE</ntsc>
						</rate>
						<rate>
							<timebase>59</timebase>
							<ntsc>TRUE</ntsc>
						</rate>
						<duration>60</duration>
						<start>2447</start>
						<end>2507</end>
						<in>0</in>
						<out>60</out>
					</clipitem>
					<clipitem frameBlend="FALSE" id="clipitem-telop-274">
						<file id="file-2"/>
						<name>！</name>
						<rate>
							<timebase>59</timebase>
							<ntsc>TRUE</ntsc>
						</rate>
						<rate>
							<timebase>59</timebase>
							<ntsc>TRUE</ntsc>
						</rate>
						<duration>60</duration>
						<start>2537</start>
						<end>2597</end>
						<in>0</in>
						<out>60</out>
					</clipitem>
					<clipitem frameBlend="FALSE" id="clipitem-telop-282">
						<file id="file-2"/>
						<name>！</name>
						<rate>
							<timebase>59</timebase>
							<ntsc>TRUE</ntsc>
						</rate>
						<rate>
							<timebase>59</timebase>
							<ntsc>TRUE</ntsc>
						</rate>
						<duration>60</duration>
						<start>2615</start>
						<end>2675</end>
						<in>0</in>
						<out>60</out>
					</clipitem>
					<clipitem frameBlend="FALSE" id="clipitem-telop-291">
						<file id="file-2"/>
						<name>！</name>
						<rate>
							<timebase>59</timebase>
							<ntsc>TRUE</ntsc>
						</rate>
						<rate>
							<timebase>59</timebase>
							<ntsc>TRUE</ntsc>
						</rate>
						<duration>60</duration>
						<start>2681</start>
						<end>2741</end>
						<in>0</in>
						<out>60</out>
					</clipitem>
					<clipitem frameBlend="FALSE" id="clipitem-telop-298">
						<file id="file-2"/>
						<name>！</name>
						<rate>
							<timebase>59</timebase>
							<ntsc>TRUE</ntsc>
						</rate>
						<rate>
							<timebase>59</timebase>
							<ntsc>TRUE</ntsc>
						</rate>
						<duration>66</duration>
						<start>2747</start>
						<end>2813</end>
						<in>0</in>
						<out>66</out>
					</clipitem>
					<clipitem frameBlend="FALSE" id="clipitem-telop-306">
						<file id="file-2"/>
						<name>！</name>
						<rate>
							<timebase>59</timebase>
							<ntsc>TRUE</ntsc>
						</rate>
						<rate>
							<timebase>59</timebase>
							<ntsc>TRUE</ntsc>
						</rate>
						<duration>66</duration>
						<start>2813</start>
						<end>2879</end>
						<in>0</in>
						<out>66</out>
					</clipitem>
					<clipitem frameBlend="FALSE" id="clipitem-telop-316">
						<file id="file-2"/>
						<name>！</name>
						<rate>
							<timebase>59</timebase>
							<ntsc>TRUE</ntsc>
						</rate>
						<rate>
							<timebase>59</timebase>
							<ntsc>TRUE</ntsc>
						</rate>
						<duration>60</duration>
						<start>2915</start>
						<end>2975</end>
						<in>0</in>
						<out>60</out>
					</clipitem>
					<clipitem frameBlend="FALSE" id="clipitem-telop-326">
						<file id="file-2"/>
						<name>！</name>
						<rate>
							<timebase>59</timebase>
							<ntsc>TRUE</ntsc>
						</rate>
						<rate>
							<timebase>59</timebase>
							<ntsc>TRUE</ntsc>
						</rate>
						<duration>60</duration>
						<start>3005</start>
						<end>3065</end>
						<in>0</in>
						<out>60</out>
					</clipitem>
					<clipitem frameBlend="FALSE" id="clipitem-telop-338">
						<file id="file-2"/>
						<name>！</name>
						<rate>
							<timebase>59</timebase>
							<ntsc>TRUE</ntsc>
						</rate>
						<rate>
							<timebase>59</timebase>
							<ntsc>TRUE</ntsc>
						</rate>
						<duration>60</duration>
						<start>3125</start>
						<end>3185</end>
						<in>0</in>
						<out>60</out>
					</clipitem>
					<clipitem frameBlend="FALSE" id="clipitem-telop-347">
						<file id="file-2"/>
						<name>！</name>
						<rate>
							<timebase>59</timebase>
							<ntsc>TRUE</ntsc>
						</rate>
						<rate>
							<timebase>59</timebase>
							<ntsc>TRUE</ntsc>
						</rate>
						<duration>60</duration>
						<start>3203</start>
						<end>3263</end>
						<in>0</in>
						<out>60</out>
					</clipitem>
					<clipitem frameBlend="FALSE" id="clipitem-telop-359">
						<file id="file-2"/>
						<name>！</name>
						<rate>
							<timebase>59</timebase>
							<ntsc>TRUE</ntsc>
						</rate>
						<rate>
							<timebase>59</timebase>
							<ntsc>TRUE</ntsc>
						</rate>
						<duration>60</duration>
						<start>3293</start>
						<end>3353</end>
						<in>0</in>
						<out>60</out>
					</clipitem>
					<clipitem frameBlend="FALSE" id="clipitem-telop-367">
						<file id="file-2"/>
						<name>！</name>
						<rate>
							<timebase>59</timebase>
							<ntsc>TRUE</ntsc>
						</rate>
						<rate>
							<timebase>59</timebase>
							<ntsc>TRUE</ntsc>
						</rate>
						<duration>60</duration>
						<start>3359</start>
						<end>3419</end>
						<in>0</in>
						<out>60</out>
					</clipitem>
					<clipitem frameBlend="FALSE" id="clipitem-telop-374">
						<file id="file-2"/>
						<name>！</name>
						<rate>
							<timebase>59</timebase>
							<ntsc>TRUE</ntsc>
						</rate>
						<rate>
							<timebase>59</timebase>
							<ntsc>TRUE</ntsc>
						</rate>
						<duration>66</duration>
						<start>3425</start>
						<end>3491</end>
						<in>0</in>
						<out>66</out>
					</clipitem>
					<clipitem frameBlend="FALSE" id="clipitem-telop-386">
						<file id="file-2"/>
						<name>！</name>
						<rate>
							<timebase>59</timebase>
							<ntsc>TRUE</ntsc>
						</rate>
						<rate>
							<timebase>59</timebase>
							<ntsc>TRUE</ntsc>
						</rate>
						<duration>60</duration>
						<start>3544</start>
						<end>3604</end>
						<in>0</in>
						<out>60</out>
					</clipitem>
					<clipitem frameBlend="FALSE" id="clipitem-telop-391">
						<file id="file-2"/>
						<name>！</name>
						<rate>
							<timebase>59</timebase>
							<ntsc>TRUE</ntsc>
						</rate>
						<rate>
							<timebase>59</timebase>
							<ntsc>TRUE</ntsc>
						</rate>
						<duration>60</duration>
						<start>3616</start>
						<end>3676</end>
						<in>0</in>
						<out>60</out>
					</clipitem>
					<clipitem frameBlend="FALSE" id="clipitem-telop-401">
						<file id="file-2"/>
						<name>！</name>
						<rate>
							<timebase>59</timebase>
							<ntsc>TRUE</ntsc>
						</rate>
						<rate>
							<timebase>59</timebase>
							<ntsc>TRUE</ntsc>
						</rate>
						<duration>60</duration>
						<start>3700</start>
						<end>3760</end>
						<in>0</in>
						<out>60</out>
					</clipitem>
					<clipitem frameBlend="FALSE" id="clipitem-telop-412">
						<file id="file-2"/>
						<name>！</name>
						<rate>
							<timebase>59</timebase>
							<ntsc>TRUE</ntsc>
						</rate>
						<rate>
							<timebase>59</timebase>
							<ntsc>TRUE</ntsc>
						</rate>
						<duration>66</duration>
						<start>3760</start>
						<end>3826</end>
						<in>0</in>
						<out>66</out>
					</clipitem>
					<clipitem frameBlend="FALSE" id="clipitem-telop-421">
						<file id="file-2"/>
						<name>！</name>
						<rate>
							<timebase>59</timebase>
							<ntsc>TRUE</ntsc>
						</rate>
						<rate>
							<timebase>59</timebase>
							<ntsc>TRUE</ntsc>
						</rate>
						<duration>60</duration>
						<start>3844</start>
						<end>3904</end>
						<in>0</in>
						<out>60</out>
					</clipitem>
					<clipitem frameBlend="FALSE" id="clipitem-telop-436">
						<file id="file-2"/>
						<name>！</name>
						<rate>
							<timebase>59</timebase>
							<ntsc>TRUE</ntsc>
						</rate>
						<rate>
							<timebase>59</timebase>
							<ntsc>TRUE</ntsc>
						</rate>
						<duration>60</duration>
						<start>4060</start>
						<end>4120</end>
						<in>0</in>
						<out>60</out>
					</clipitem>
					<clipitem frameBlend="FALSE" id="clipitem-telop-447">
						<file id="file-2"/>
						<name>！</name>
						<rate>
							<timebase>59</timebase>
							<ntsc>TRUE</ntsc>
						</rate>
						<rate>
							<timebase>59</timebase>
							<ntsc>TRUE</ntsc>
						</rate>
						<duration>60</duration>
						<start>4222</start>
						<end>4282</end>
						<in>0</in>
						<out>60</out>
					</clipitem>
					<clipitem frameBlend="FALSE" id="clipitem-telop-456">
						<file id="file-2"/>
						<name>！</name>
						<rate>
							<timebase>59</timebase>
							<ntsc>TRUE</ntsc>
						</rate>
						<rate>
							<timebase>59</timebase>
							<ntsc>TRUE</ntsc>
						</rate>
						<duration>60</duration>
						<start>4300</start>
						<end>4360</end>
						<in>0</in>
						<out>60</out>
					</clipitem>
					<clipitem frameBlend="FALSE" id="clipitem-telop-465">
						<file id="file-2"/>
						<name>！</name>
						<rate>
							<timebase>59</timebase>
							<ntsc>TRUE</ntsc>
						</rate>
						<rate>
							<timebase>59</timebase>
							<ntsc>TRUE</ntsc>
						</rate>
						<duration>60</duration>
						<start>4372</start>
						<end>4432</end>
						<in>0</in>
						<out>60</out>
					</clipitem>
					<clipitem frameBlend="FALSE" id="clipitem-telop-474">
						<file id="file-2"/>
						<name>！</name>
						<rate>
							<timebase>59</timebase>
							<ntsc>TRUE</ntsc>
						</rate>
						<rate>
							<timebase>59</timebase>
							<ntsc>TRUE</ntsc>
						</rate>
						<duration>60</duration>
						<start>4432</start>
						<end>4492</end>
						<in>0</in>
						<out>60</out>
					</clipitem>
					<clipitem frameBlend="FALSE" id="clipitem-telop-486">
						<file id="file-2"/>
						<name>！</name>
						<rate>
							<timebase>59</timebase>
							<ntsc>TRUE</ntsc>
						</rate>
						<rate>
							<timebase>59</timebase>
							<ntsc>TRUE</ntsc>
						</rate>
						<duration>66</duration>
						<start>4498</start>
						<end>4564</end>
						<in>0</in>
						<out>66</out>
					</clipitem>
					<clipitem frameBlend="FALSE" id="clipitem-telop-492">
						<file id="file-2"/>
						<name>！</name>
						<rate>
							<timebase>59</timebase>
							<ntsc>TRUE</ntsc>
						</rate>
						<rate>
							<timebase>59</timebase>
							<ntsc>TRUE</ntsc>
						</rate>
						<duration>66</duration>
						<start>4564</start>
						<end>4630</end>
						<in>0</in>
						<out>66</out>
					</clipitem>
					<clipitem frameBlend="FALSE" id="clipitem-telop-500">
						<file id="file-2"/>
						<name>！</name>
						<rate>
							<timebase>59</timebase>
							<ntsc>TRUE</ntsc>
						</rate>
						<rate>
							<timebase>59</timebase>
							<ntsc>TRUE</ntsc>
						</rate>
						<duration>60</duration>
						<start>4636</start>
						<end>4696</end>
						<in>0</in>
						<out>60</out>
					</clipitem>
					<clipitem frameBlend="FALSE" id="clipitem-telop-506">
						<file id="file-2"/>
						<name>！</name>
						<rate>
							<timebase>59</timebase>
							<ntsc>TRUE</ntsc>
						</rate>
						<rate>
							<timebase>59</timebase>
							<ntsc>TRUE</ntsc>
						</rate>
						<duration>60</duration>
						<start>4702</start>
						<end>4762</end>
						<in>0</in>
						<out>60</out>
					</clipitem>
					<clipitem frameBlend="FALSE" id="clipitem-telop-513">
						<file id="file-2"/>
						<name>！</name>
						<rate>
							<timebase>59</timebase>
							<ntsc>TRUE</ntsc>
						</rate>
						<rate>
							<timebase>59</timebase>
							<ntsc>TRUE</ntsc>
						</rate>
						<duration>60</duration>
						<start>4768</start>
						<end>4828</end>
						<in>0</in>
						<out>60</out>
					</clipitem>
					<clipitem frameBlend="FALSE" id="clipitem-telop-519">
						<file id="file-2"/>
						<name>！</name>
						<rate>
							<timebase>59</timebase>
							<ntsc>TRUE</ntsc>
						</rate>
						<rate>
							<timebase>59</timebase>
							<ntsc>TRUE</ntsc>
						</rate>
						<duration>60</duration>
						<start>4828</start>
						<end>4888</end>
						<in>0</in>
						<out>60</out>
					</clipitem>
					<clipitem frameBlend="FALSE" id="clipitem-telop-529">
						<file id="file-2"/>
						<name>！</name>
						<rate>
							<timebase>59</timebase>
							<ntsc>TRUE</ntsc>
						</rate>
						<rate>
							<timebase>59</timebase>
							<ntsc>TRUE</ntsc>
						</rate>
						<duration>60</duration>
						<start>4918</start>
						<end>4978</end>
						<in>0</in>
						<out>60</out>
					</clipitem>
					<clipitem frameBlend="FALSE" id="clipitem-telop-536">
						<file id="file-2"/>
						<name>！</name>
						<rate>
							<timebase>59</timebase>
							<ntsc>TRUE</ntsc>
						</rate>
						<rate>
							<timebase>59</timebase>
							<ntsc>TRUE</ntsc>
						</rate>
						<duration>60</duration>
						<start>4996</start>
						<end>5056</end>
						<in>0</in>
						<out>60</out>
					</clipitem>
					<clipitem frameBlend="FALSE" id="clipitem-telop-548">
						<file id="file-2"/>
						<name>！</name>
						<rate>
							<timebase>59</timebase>
							<ntsc>TRUE</ntsc>
						</rate>
						<rate>
							<timebase>59</timebase>
							<ntsc>TRUE</ntsc>
						</rate>
						<duration>60</duration>
						<start>5104</start>
						<end>5164</end>
						<in>0</in>
						<out>60</out>
					</clipitem>
					<clipitem frameBlend="FALSE" id="clipitem-telop-559">
						<file id="file-2"/>
						<name>！</name>
						<rate>
							<timebase>59</timebase>
							<ntsc>TRUE</ntsc>
						</rate>
						<rate>
							<timebase>59</timebase>
							<ntsc>TRUE</ntsc>
						</rate>
						<duration>60</duration>
						<start>5212</start>
						<end>5272</end>
						<in>0</in>
						<out>60</out>
					</clipitem>
					<clipitem frameBlend="FALSE" id="clipitem-telop-565">
						<file id="file-2"/>
						<name>！</name>
						<rate>
							<timebase>59</timebase>
							<ntsc>TRUE</ntsc>
						</rate>
						<rate>
							<timebase>59</timebase>
							<ntsc>TRUE</ntsc>
						</rate>
						<duration>60</duration>
						<start>5272</start>
						<end>5332</end>
						<in>0</in>
						<out>60</out>
					</clipitem>
					<clipitem frameBlend="FALSE" id="clipitem-telop-574">
						<file id="file-2"/>
						<name>！</name>
						<rate>
							<timebase>59</timebase>
							<ntsc>TRUE</ntsc>
						</rate>
						<rate>
							<timebase>59</timebase>
							<ntsc>TRUE</ntsc>
						</rate>
						<duration>66</duration>
						<start>5338</start>
						<end>5404</end>
						<in>0</in>
						<out>66</out>
					</clipitem>
					<clipitem frameBlend="FALSE" id="clipitem-telop-585">
						<file id="file-2"/>
						<name>！</name>
						<rate>
							<timebase>59</timebase>
							<ntsc>TRUE</ntsc>
						</rate>
						<rate>
							<timebase>59</timebase>
							<ntsc>TRUE</ntsc>
						</rate>
						<duration>66</duration>
						<start>5512</start>
						<end>5578</end>
						<in>0</in>
						<out>66</out>
					</clipitem>
					<clipitem frameBlend="FALSE" id="clipitem-telop-597">
						<file id="file-2"/>
						<name>！</name>
						<rate>
							<timebase>59</timebase>
							<ntsc>TRUE</ntsc>
						</rate>
						<rate>
							<timebase>59</timebase>
							<ntsc>TRUE</ntsc>
						</rate>
						<duration>66</duration>
						<start>5578</start>
						<end>5644</end>
						<in>0</in>
						<out>66</out>
					</clipitem>
					<clipitem frameBlend="FALSE" id="clipitem-telop-607">
						<file id="file-2"/>
						<name>！</name>
						<rate>
							<timebase>59</timebase>
							<ntsc>TRUE</ntsc>
						</rate>
						<rate>
							<timebase>59</timebase>
							<ntsc>TRUE</ntsc>
						</rate>
						<duration>66</duration>
						<start>5644</start>
						<end>5710</end>
						<in>0</in>
						<out>66</out>
					</clipitem>
					<clipitem frameBlend="FALSE" id="clipitem-telop-615">
						<file id="file-2"/>
						<name>！</name>
						<rate>
							<timebase>59</timebase>
							<ntsc>TRUE</ntsc>
						</rate>
						<rate>
							<timebase>59</timebase>
							<ntsc>TRUE</ntsc>
						</rate>
						<duration>60</duration>
						<start>5740</start>
						<end>5800</end>
						<in>0</in>
						<out>60</out>
					</clipitem>
					<clipitem frameBlend="FALSE" id="clipitem-telop-624">
						<file id="file-2"/>
						<name>！</name>
						<rate>
							<timebase>59</timebase>
							<ntsc>TRUE</ntsc>
						</rate>
						<rate>
							<timebase>59</timebase>
							<ntsc>TRUE</ntsc>
						</rate>
						<duration>60</duration>
						<start>5806</start>
						<end>5866</end>
						<in>0</in>
						<out>60</out>
					</clipitem>
					<clipitem frameBlend="FALSE" id="clipitem-telop-636">
						<file id="file-2"/>
						<name>！</name>
						<rate>
							<timebase>59</timebase>
							<ntsc>TRUE</ntsc>
						</rate>
						<rate>
							<timebase>59</timebase>
							<ntsc>TRUE</ntsc>
						</rate>
						<duration>66</duration>
						<start>5902</start>
						<end>5968</end>
						<in>0</in>
						<out>66</out>
					</clipitem>
					<clipitem frameBlend="FALSE" id="clipitem-telop-645">
						<file id="file-2"/>
						<name>！</name>
						<rate>
							<timebase>59</timebase>
							<ntsc>TRUE</ntsc>
						</rate>
						<rate>
							<timebase>59</timebase>
							<ntsc>TRUE</ntsc>
						</rate>
						<duration>60</duration>
						<start>5992</start>
						<end>6052</end>
						<in>0</in>
						<out>60</out>
					</clipitem>
					<clipitem frameBlend="FALSE" id="clipitem-telop-655">
						<file id="file-2"/>
						<name>！</name>
						<rate>
							<timebase>59</timebase>
							<ntsc>TRUE</ntsc>
						</rate>
						<rate>
							<timebase>59</timebase>
							<ntsc>TRUE</ntsc>
						</rate>
						<duration>60</duration>
						<start>6088</start>
						<end>6148</end>
						<in>0</in>
						<out>60</out>
					</clipitem>
					<clipitem frameBlend="FALSE" id="clipitem-telop-665">
						<file id="file-2"/>
						<name>！</name>
						<rate>
							<timebase>59</timebase>
							<ntsc>TRUE</ntsc>
						</rate>
						<rate>
							<timebase>59</timebase>
							<ntsc>TRUE</ntsc>
						</rate>
						<duration>60</duration>
						<start>6154</start>
						<end>6214</end>
						<in>0</in>
						<out>60</out>
					</clipitem>
					<clipitem frameBlend="FALSE" id="clipitem-telop-672">
						<file id="file-2"/>
						<name>！</name>
						<rate>
							<timebase>59</timebase>
							<ntsc>TRUE</ntsc>
						</rate>
						<rate>
							<timebase>59</timebase>
							<ntsc>TRUE</ntsc>
						</rate>
						<duration>60</duration>
						<start>6220</start>
						<end>6280</end>
						<in>0</in>
						<out>60</out>
					</clipitem>
					<clipitem frameBlend="FALSE" id="clipitem-telop-681">
						<file id="file-2"/>
						<name>！</name>
						<rate>
							<timebase>59</timebase>
							<ntsc>TRUE</ntsc>
						</rate>
						<rate>
							<timebase>59</timebase>
							<ntsc>TRUE</ntsc>
						</rate>
						<duration>60</duration>
						<start>6280</start>
						<end>6340</end>
						<in>0</in>
						<out>60</out>
					</clipitem>
					<clipitem frameBlend="FALSE" id="clipitem-telop-692">
						<file id="file-2"/>
						<name>！</name>
						<rate>
							<timebase>59</timebase>
							<ntsc>TRUE</ntsc>
						</rate>
						<rate>
							<timebase>59</timebase>
							<ntsc>TRUE</ntsc>
						</rate>
						<duration>60</duration>
						<start>6340</start>
						<end>6400</end>
						<in>0</in>
						<out>60</out>
					</clipitem>
					<clipitem frameBlend="FALSE" id="clipitem-telop-706">
						<file id="file-2"/>
						<name>！</name>
						<rate>
							<timebase>59</timebase>
							<ntsc>TRUE</ntsc>
						</rate>
						<rate>
							<timebase>59</timebase>
							<ntsc>TRUE</ntsc>
						</rate>
						<duration>66</duration>
						<start>6466</start>
						<end>6532</end>
						<in>0</in>
						<out>66</out>
					</clipitem>
					<clipitem frameBlend="FALSE" id="clipitem-telop-714">
						<file id="file-2"/>
						<name>！</name>
						<rate>
							<timebase>59</timebase>
							<ntsc>TRUE</ntsc>
						</rate>
						<rate>
							<timebase>59</timebase>
							<ntsc>TRUE</ntsc>
						</rate>
						<duration>66</duration>
						<start>6556</start>
						<end>6622</end>
						<in>0</in>
						<out>66</out>
					</clipitem>
					<clipitem frameBlend="FALSE" id="clipitem-telop-722">
						<file id="file-2"/>
						<name>！</name>
						<rate>
							<timebase>59</timebase>
							<ntsc>TRUE</ntsc>
						</rate>
						<rate>
							<timebase>59</timebase>
							<ntsc>TRUE</ntsc>
						</rate>
						<duration>60</duration>
						<start>6646</start>
						<end>6706</end>
						<in>0</in>
						<out>60</out>
					</clipitem>
					<clipitem frameBlend="FALSE" id="clipitem-telop-730">
						<file id="file-2"/>
						<name>！</name>
						<rate>
							<timebase>59</timebase>
							<ntsc>TRUE</ntsc>
						</rate>
						<rate>
							<timebase>59</timebase>
							<ntsc>TRUE</ntsc>
						</rate>
						<duration>60</duration>
						<start>6772</start>
						<end>6832</end>
						<in>0</in>
						<out>60</out>
					</clipitem>
					<clipitem frameBlend="FALSE" id="clipitem-telop-739">
						<file id="file-2"/>
						<name>！</name>
						<rate>
							<timebase>59</timebase>
							<ntsc>TRUE</ntsc>
						</rate>
						<rate>
							<timebase>59</timebase>
							<ntsc>TRUE</ntsc>
						</rate>
						<duration>60</duration>
						<start>6892</start>
						<end>6952</end>
						<in>0</in>
						<out>60</out>
					</clipitem>
					<clipitem frameBlend="FALSE" id="clipitem-telop-751">
						<file id="file-2"/>
						<name>！</name>
						<rate>
							<timebase>59</timebase>
							<ntsc>TRUE</ntsc>
						</rate>
						<rate>
							<timebase>59</timebase>
							<ntsc>TRUE</ntsc>
						</rate>
						<duration>60</duration>
						<start>6976</start>
						<end>7036</end>
						<in>0</in>
						<out>60</out>
					</clipitem>
					<clipitem frameBlend="FALSE" id="clipitem-telop-758">
						<file id="file-2"/>
						<name>！</name>
						<rate>
							<timebase>59</timebase>
							<ntsc>TRUE</ntsc>
						</rate>
						<rate>
							<timebase>59</timebase>
							<ntsc>TRUE</ntsc>
						</rate>
						<duration>6</duration>
						<start>7054</start>
						<end>7060</end>
						<in>0</in>
						<out>6</out>
					</clipitem>
				</track>
				<track>
					<clipitem frameBlend="FALSE" id="clipitem-telop-7">
						<file id="file-2"/>
						<name>！</name>
						<rate>
							<timebase>59</timebase>
							<ntsc>TRUE</ntsc>
						</rate>
						<rate>
							<timebase>59</timebase>
							<ntsc>TRUE</ntsc>
						</rate>
						<duration>60</duration>
						<start>89</start>
						<end>149</end>
						<in>0</in>
						<out>60</out>
					</clipitem>
					<clipitem frameBlend="FALSE" id="clipitem-telop-15">
						<file id="file-2"/>
						<name>！</name>
						<rate>
							<timebase>59</timebase>
							<ntsc>TRUE</ntsc>
						</rate>
						<rate>
							<timebase>59</timebase>
							<ntsc>TRUE</ntsc>
						</rate>
						<duration>60</duration>
						<start>149</start>
						<end>209</end>
						<in>0</in>
						<out>60</out>
					</clipitem>
					<clipitem frameBlend="FALSE" id="clipitem-telop-22">
						<file id="file-2"/>
						<name>！</name>
						<rate>
							<timebase>59</timebase>
							<ntsc>TRUE</ntsc>
						</rate>
						<rate>
							<timebase>59</timebase>
							<ntsc>TRUE</ntsc>
						</rate>
						<duration>60</duration>
						<start>251</start>
						<end>311</end>
						<in>0</in>
						<out>60</out>
					</clipitem>
					<clipitem frameBlend="FALSE" id="clipitem-telop-30">
						<file id="file-2"/>
						<name>！</name>
						<rate>
							<timebase>59</timebase>
							<ntsc>TRUE</ntsc>
						</rate>
						<rate>
							<timebase>59</timebase>
							<ntsc>TRUE</ntsc>
						</rate>
						<duration>60</duration>
						<start>323</start>
						<end>383</end>
						<in>0</in>
						<out>60</out>
					</clipitem>
					<clipitem frameBlend="FALSE" id="clipitem-telop-40">
						<file id="file-2"/>
						<name>！</name>
						<rate>
							<timebase>59</timebase>
							<ntsc>TRUE</ntsc>
						</rate>
						<rate>
							<timebase>59</timebase>
							<ntsc>TRUE</ntsc>
						</rate>
						<duration>60</duration>
						<start>413</start>
						<end>473</end>
						<in>0</in>
						<out>60</out>
					</clipitem>
					<clipitem frameBlend="FALSE" id="clipitem-telop-46">
						<file id="file-2"/>
						<name>！</name>
						<rate>
							<timebase>59</timebase>
							<ntsc>TRUE</ntsc>
						</rate>
						<rate>
							<timebase>59</timebase>
							<ntsc>TRUE</ntsc>
						</rate>
						<duration>60</duration>
						<start>485</start>
						<end>545</end>
						<in>0</in>
						<out>60</out>
					</clipitem>
					<clipitem frameBlend="FALSE" id="clipitem-telop-56">
						<file id="file-2"/>
						<name>！</name>
						<rate>
							<timebase>59</timebase>
							<ntsc>TRUE</ntsc>
						</rate>
						<rate>
							<timebase>59</timebase>
							<ntsc>TRUE</ntsc>
						</rate>
						<duration>60</duration>
						<start>551</start>
						<end>611</end>
						<in>0</in>
						<out>60</out>
					</clipitem>
					<clipitem frameBlend="FALSE" id="clipitem-telop-65">
						<file id="file-2"/>
						<name>！</name>
						<rate>
							<timebase>59</timebase>
							<ntsc>TRUE</ntsc>
						</rate>
						<rate>
							<timebase>59</timebase>
							<ntsc>TRUE</ntsc>
						</rate>
						<duration>66</duration>
						<start>617</start>
						<end>683</end>
						<in>0</in>
						<out>66</out>
					</clipitem>
					<clipitem frameBlend="FALSE" id="clipitem-telop-77">
						<file id="file-2"/>
						<name>！</name>
						<rate>
							<timebase>59</timebase>
							<ntsc>TRUE</ntsc>
						</rate>
						<rate>
							<timebase>59</timebase>
							<ntsc>TRUE</ntsc>
						</rate>
						<duration>60</duration>
						<start>707</start>
						<end>767</end>
						<in>0</in>
						<out>60</out>
					</clipitem>
					<clipitem frameBlend="FALSE" id="clipitem-telop-86">
						<file id="file-2"/>
						<name>！</name>
						<rate>
							<timebase>59</timebase>
							<ntsc>TRUE</ntsc>
						</rate>
						<rate>
							<timebase>59</timebase>
							<ntsc>TRUE</ntsc>
						</rate>
						<duration>60</duration>
						<start>791</start>
						<end>851</end>
						<in>0</in>
						<out>60</out>
					</clipitem>
					<clipitem frameBlend="FALSE" id="clipitem-telop-97">
						<file id="file-2"/>
						<name>！</name>
						<rate>
							<timebase>59</timebase>
							<ntsc>TRUE</ntsc>
						</rate>
						<rate>
							<timebase>59</timebase>
							<ntsc>TRUE</ntsc>
						</rate>
						<duration>60</duration>
						<start>851</start>
						<end>911</end>
						<in>0</in>
						<out>60</out>
					</clipitem>
					<clipitem frameBlend="FALSE" id="clipitem-telop-107">
						<file id="file-2"/>
						<name>！</name>
						<rate>
							<timebase>59</timebase>
							<ntsc>TRUE</ntsc>
						</rate>
						<rate>
							<timebase>59</timebase>
							<ntsc>TRUE</ntsc>
						</rate>
						<duration>66</duration>
						<start>911</start>
						<end>977</end>
						<in>0</in>
						<out>66</out>
					</clipitem>
					<clipitem frameBlend="FALSE" id="clipitem-telop-117">
						<file id="file-2"/>
						<name>！</name>
						<rate>
							<timebase>59</timebase>
							<ntsc>TRUE</ntsc>
						</rate>
						<rate>
							<timebase>59</timebase>
							<ntsc>TRUE</ntsc>
						</rate>
						<duration>60</duration>
						<start>977</start>
						<end>1037</end>
						<in>0</in>
						<out>60</out>
					</clipitem>
					<clipitem frameBlend="FALSE" id="clipitem-telop-129">
						<file id="file-2"/>
						<name>！</name>
						<rate>
							<timebase>59</timebase>
							<ntsc>TRUE</ntsc>
						</rate>
						<rate>
							<timebase>59</timebase>
							<ntsc>TRUE</ntsc>
						</rate>
						<duration>60</duration>
						<start>1037</start>
						<end>1097</end>
						<in>0</in>
						<out>60</out>
					</clipitem>
					<clipitem frameBlend="FALSE" id="clipitem-telop-142">
						<file id="file-2"/>
						<name>！</name>
						<rate>
							<timebase>59</timebase>
							<ntsc>TRUE</ntsc>
						</rate>
						<rate>
							<timebase>59</timebase>
							<ntsc>TRUE</ntsc>
						</rate>
						<duration>66</duration>
						<start>1169</start>
						<end>1235</end>
						<in>0</in>
						<out>66</out>
					</clipitem>
					<clipitem frameBlend="FALSE" id="clipitem-telop-152">
						<file id="file-2"/>
						<name>！</name>
						<rate>
							<timebase>59</timebase>
							<ntsc>TRUE</ntsc>
						</rate>
						<rate>
							<timebase>59</timebase>
							<ntsc>TRUE</ntsc>
						</rate>
						<duration>60</duration>
						<start>1265</start>
						<end>1325</end>
						<in>0</in>
						<out>60</out>
					</clipitem>
					<clipitem frameBlend="FALSE" id="clipitem-telop-162">
						<file id="file-2"/>
						<name>！</name>
						<rate>
							<timebase>59</timebase>
							<ntsc>TRUE</ntsc>
						</rate>
						<rate>
							<timebase>59</timebase>
							<ntsc>TRUE</ntsc>
						</rate>
						<duration>60</duration>
						<start>1367</start>
						<end>1427</end>
						<in>0</in>
						<out>60</out>
					</clipitem>
					<clipitem frameBlend="FALSE" id="clipitem-telop-171">
						<file id="file-2"/>
						<name>！</name>
						<rate>
							<timebase>59</timebase>
							<ntsc>TRUE</ntsc>
						</rate>
						<rate>
							<timebase>59</timebase>
							<ntsc>TRUE</ntsc>
						</rate>
						<duration>60</duration>
						<start>1433</start>
						<end>1493</end>
						<in>0</in>
						<out>60</out>
					</clipitem>
					<clipitem frameBlend="FALSE" id="clipitem-telop-181">
						<file id="file-2"/>
						<name>！</name>
						<rate>
							<timebase>59</timebase>
							<ntsc>TRUE</ntsc>
						</rate>
						<rate>
							<timebase>59</timebase>
							<ntsc>TRUE</ntsc>
						</rate>
						<duration>60</duration>
						<start>1529</start>
						<end>1589</end>
						<in>0</in>
						<out>60</out>
					</clipitem>
					<clipitem frameBlend="FALSE" id="clipitem-telop-190">
						<file id="file-2"/>
						<name>！</name>
						<rate>
							<timebase>59</timebase>
							<ntsc>TRUE</ntsc>
						</rate>
						<rate>
							<timebase>59</timebase>
							<ntsc>TRUE</ntsc>
						</rate>
						<duration>60</duration>
						<start>1613</start>
						<end>1673</end>
						<in>0</in>
						<out>60</out>
					</clipitem>
					<clipitem frameBlend="FALSE" id="clipitem-telop-204">
						<file id="file-2"/>
						<name>！</name>
						<rate>
							<timebase>59</timebase>
							<ntsc>TRUE</ntsc>
						</rate>
						<rate>
							<timebase>59</timebase>
							<ntsc>TRUE</ntsc>
						</rate>
						<duration>66</duration>
						<start>1733</start>
						<end>1799</end>
						<in>0</in>
						<out>66</out>
					</clipitem>
					<clipitem frameBlend="FALSE" id="clipitem-telop-213">
						<file id="file-2"/>
						<name>！</name>
						<rate>
							<timebase>59</timebase>
							<ntsc>TRUE</ntsc>
						</rate>
						<rate>
							<timebase>59</timebase>
							<ntsc>TRUE</ntsc>
						</rate>
						<duration>60</duration>
						<start>1799</start>
						<end>1859</end>
						<in>0</in>
						<out>60</out>
					</clipitem>
					<clipitem frameBlend="FALSE" id="clipitem-telop-226">
						<file id="file-2"/>
						<name>！</name>
						<rate>
							<timebase>59</timebase>
							<ntsc>TRUE</ntsc>
						</rate>
						<rate>
							<timebase>59</timebase>
							<ntsc>TRUE</ntsc>
						</rate>
						<duration>60</duration>
						<start>1907</start>
						<end>1967</end>
						<in>0</in>
						<out>60</out>
					</clipitem>
					<clipitem frameBlend="FALSE" id="clipitem-telop-235">
						<file id="file-2"/>
						<name>！</name>
						<rate>
							<timebase>59</timebase>
							<ntsc>TRUE</ntsc>
						</rate>
						<rate>
							<timebase>59</timebase>
							<ntsc>TRUE</ntsc>
						</rate>
						<duration>60</duration>
						<start>1973</start>
						<end>2033</end>
						<in>0</in>
						<out>60</out>
					</clipitem>
					<clipitem frameBlend="FALSE" id="clipitem-telop-249">
						<file id="file-2"/>
						<name>！</name>
						<rate>
							<timebase>59</timebase>
							<ntsc>TRUE</ntsc>
						</rate>
						<rate>
							<timebase>59</timebase>
							<ntsc>TRUE</ntsc>
						</rate>
						<duration>60</duration>
						<start>2183</start>
						<end>2243</end>
						<in>0</in>
						<out>60</out>
					</clipitem>
					<clipitem frameBlend="FALSE" id="clipitem-telop-258">
						<file id="file-2"/>
						<name>！</name>
						<rate>
							<timebase>59</timebase>
							<ntsc>TRUE</ntsc>
						</rate>
						<rate>
							<timebase>59</timebase>
							<ntsc>TRUE</ntsc>
						</rate>
						<duration>60</duration>
						<start>2327</start>
						<end>2387</end>
						<in>0</in>
						<out>60</out>
					</clipitem>
					<clipitem frameBlend="FALSE" id="clipitem-telop-267">
						<file id="file-2"/>
						<name>！</name>
						<rate>
							<timebase>59</timebase>
							<ntsc>TRUE</ntsc>
						</rate>
						<rate>
							<timebase>59</timebase>
							<ntsc>TRUE</ntsc>
						</rate>
						<duration>60</duration>
						<start>2453</start>
						<end>2513</end>
						<in>0</in>
						<out>60</out>
					</clipitem>
					<clipitem frameBlend="FALSE" id="clipitem-telop-275">
						<file id="file-2"/>
						<name>！</name>
						<rate>
							<timebase>59</timebase>
							<ntsc>TRUE</ntsc>
						</rate>
						<rate>
							<timebase>59</timebase>
							<ntsc>TRUE</ntsc>
						</rate>
						<duration>60</duration>
						<start>2555</start>
						<end>2615</end>
						<in>0</in>
						<out>60</out>
					</clipitem>
					<clipitem frameBlend="FALSE" id="clipitem-telop-284">
						<file id="file-2"/>
						<name>！</name>
						<rate>
							<timebase>59</timebase>
							<ntsc>TRUE</ntsc>
						</rate>
						<rate>
							<timebase>59</timebase>
							<ntsc>TRUE</ntsc>
						</rate>
						<duration>66</duration>
						<start>2627</start>
						<end>2693</end>
						<in>0</in>
						<out>66</out>
					</clipitem>
					<clipitem frameBlend="FALSE" id="clipitem-telop-293">
						<file id="file-2"/>
						<name>！</name>
						<rate>
							<timebase>59</timebase>
							<ntsc>TRUE</ntsc>
						</rate>
						<rate>
							<timebase>59</timebase>
							<ntsc>TRUE</ntsc>
						</rate>
						<duration>60</duration>
						<start>2699</start>
						<end>2759</end>
						<in>0</in>
						<out>60</out>
					</clipitem>
					<clipitem frameBlend="FALSE" id="clipitem-telop-300">
						<file id="file-2"/>
						<name>！</name>
						<rate>
							<timebase>59</timebase>
							<ntsc>TRUE</ntsc>
						</rate>
						<rate>
							<timebase>59</timebase>
							<ntsc>TRUE</ntsc>
						</rate>
						<duration>60</duration>
						<start>2765</start>
						<end>2825</end>
						<in>0</in>
						<out>60</out>
					</clipitem>
					<clipitem frameBlend="FALSE" id="clipitem-telop-308">
						<file id="file-2"/>
						<name>！</name>
						<rate>
							<timebase>59</timebase>
							<ntsc>TRUE</ntsc>
						</rate>
						<rate>
							<timebase>59</timebase>
							<ntsc>TRUE</ntsc>
						</rate>
						<duration>66</duration>
						<start>2831</start>
						<end>2897</end>
						<in>0</in>
						<out>66</out>
					</clipitem>
					<clipitem frameBlend="FALSE" id="clipitem-telop-320">
						<file id="file-2"/>
						<name>！</name>
						<rate>
							<timebase>59</timebase>
							<ntsc>TRUE</ntsc>
						</rate>
						<rate>
							<timebase>59</timebase>
							<ntsc>TRUE</ntsc>
						</rate>
						<duration>60</duration>
						<start>2951</start>
						<end>3011</end>
						<in>0</in>
						<out>60</out>
					</clipitem>
					<clipitem frameBlend="FALSE" id="clipitem-telop-328">
						<file id="file-2"/>
						<name>！</name>
						<rate>
							<timebase>59</timebase>
							<ntsc>TRUE</ntsc>
						</rate>
						<rate>
							<timebase>59</timebase>
							<ntsc>TRUE</ntsc>
						</rate>
						<duration>66</duration>
						<start>3023</start>
						<end>3089</end>
						<in>0</in>
						<out>66</out>
					</clipitem>
					<clipitem frameBlend="FALSE" id="clipitem-telop-339">
						<file id="file-2"/>
						<name>！</name>
						<rate>
							<timebase>59</timebase>
							<ntsc>TRUE</ntsc>
						</rate>
						<rate>
							<timebase>59</timebase>
							<ntsc>TRUE</ntsc>
						</rate>
						<duration>66</duration>
						<start>3125</start>
						<end>3191</end>
						<in>0</in>
						<out>66</out>
					</clipitem>
					<clipitem frameBlend="FALSE" id="clipitem-telop-348">
						<file id="file-2"/>
						<name>！</name>
						<rate>
							<timebase>59</timebase>
							<ntsc>TRUE</ntsc>
						</rate>
						<rate>
							<timebase>59</timebase>
							<ntsc>TRUE</ntsc>
						</rate>
						<duration>60</duration>
						<start>3209</start>
						<end>3269</end>
						<in>0</in>
						<out>60</out>
					</clipitem>
					<clipitem frameBlend="FALSE" id="clipitem-telop-360">
						<file id="file-2"/>
						<name>なんなん行きます?</name>
						<rate>
							<timebase>59</timebase>
							<ntsc>TRUE</ntsc>
						</rate>
						<rate>
							<timebase>59</timebase>
							<ntsc>TRUE</ntsc>
						</rate>
						<duration>120</duration>
						<start>3299</start>
						<end>3419</end>
						<in>0</in>
						<out>120</out>
					</clipitem>
					<clipitem frameBlend="FALSE" id="clipitem-telop-378">
						<file id="file-2"/>
						<name>！</name>
						<rate>
							<timebase>59</timebase>
							<ntsc>TRUE</ntsc>
						</rate>
						<rate>
							<timebase>59</timebase>
							<ntsc>TRUE</ntsc>
						</rate>
						<duration>60</duration>
						<start>3467</start>
						<end>3527</end>
						<in>0</in>
						<out>60</out>
					</clipitem>
					<clipitem frameBlend="FALSE" id="clipitem-telop-392">
						<file id="file-2"/>
						<name>！</name>
						<rate>
							<timebase>59</timebase>
							<ntsc>TRUE</ntsc>
						</rate>
						<rate>
							<timebase>59</timebase>
							<ntsc>TRUE</ntsc>
						</rate>
						<duration>60</duration>
						<start>3616</start>
						<end>3676</end>
						<in>0</in>
						<out>60</out>
					</clipitem>
					<clipitem frameBlend="FALSE" id="clipitem-telop-403">
						<file id="file-2"/>
						<name>！</name>
						<rate>
							<timebase>59</timebase>
							<ntsc>TRUE</ntsc>
						</rate>
						<rate>
							<timebase>59</timebase>
							<ntsc>TRUE</ntsc>
						</rate>
						<duration>60</duration>
						<start>3712</start>
						<end>3772</end>
						<in>0</in>
						<out>60</out>
					</clipitem>
					<clipitem frameBlend="FALSE" id="clipitem-telop-417">
						<file id="file-2"/>
						<name>！</name>
						<rate>
							<timebase>59</timebase>
							<ntsc>TRUE</ntsc>
						</rate>
						<rate>
							<timebase>59</timebase>
							<ntsc>TRUE</ntsc>
						</rate>
						<duration>60</duration>
						<start>3808</start>
						<end>3868</end>
						<in>0</in>
						<out>60</out>
					</clipitem>
					<clipitem frameBlend="FALSE" id="clipitem-telop-426">
						<file id="file-2"/>
						<name>！</name>
						<rate>
							<timebase>59</timebase>
							<ntsc>TRUE</ntsc>
						</rate>
						<rate>
							<timebase>59</timebase>
							<ntsc>TRUE</ntsc>
						</rate>
						<duration>60</duration>
						<start>3880</start>
						<end>3940</end>
						<in>0</in>
						<out>60</out>
					</clipitem>
					<clipitem frameBlend="FALSE" id="clipitem-telop-439">
						<file id="file-2"/>
						<name>！</name>
						<rate>
							<timebase>59</timebase>
							<ntsc>TRUE</ntsc>
						</rate>
						<rate>
							<timebase>59</timebase>
							<ntsc>TRUE</ntsc>
						</rate>
						<duration>60</duration>
						<start>4102</start>
						<end>4162</end>
						<in>0</in>
						<out>60</out>
					</clipitem>
					<clipitem frameBlend="FALSE" id="clipitem-telop-449">
						<file id="file-2"/>
						<name>！</name>
						<rate>
							<timebase>59</timebase>
							<ntsc>TRUE</ntsc>
						</rate>
						<rate>
							<timebase>59</timebase>
							<ntsc>TRUE</ntsc>
						</rate>
						<duration>60</duration>
						<start>4234</start>
						<end>4294</end>
						<in>0</in>
						<out>60</out>
					</clipitem>
					<clipitem frameBlend="FALSE" id="clipitem-telop-457">
						<file id="file-2"/>
						<name>！</name>
						<rate>
							<timebase>59</timebase>
							<ntsc>TRUE</ntsc>
						</rate>
						<rate>
							<timebase>59</timebase>
							<ntsc>TRUE</ntsc>
						</rate>
						<duration>60</duration>
						<start>4300</start>
						<end>4360</end>
						<in>0</in>
						<out>60</out>
					</clipitem>
					<clipitem frameBlend="FALSE" id="clipitem-telop-466">
						<file id="file-2"/>
						<name>！</name>
						<rate>
							<timebase>59</timebase>
							<ntsc>TRUE</ntsc>
						</rate>
						<rate>
							<timebase>59</timebase>
							<ntsc>TRUE</ntsc>
						</rate>
						<duration>60</duration>
						<start>4378</start>
						<end>4438</end>
						<in>0</in>
						<out>60</out>
					</clipitem>
					<clipitem frameBlend="FALSE" id="clipitem-telop-475">
						<file id="file-2"/>
						<name>！</name>
						<rate>
							<timebase>59</timebase>
							<ntsc>TRUE</ntsc>
						</rate>
						<rate>
							<timebase>59</timebase>
							<ntsc>TRUE</ntsc>
						</rate>
						<duration>60</duration>
						<start>4444</start>
						<end>4504</end>
						<in>0</in>
						<out>60</out>
					</clipitem>
					<clipitem frameBlend="FALSE" id="clipitem-telop-487">
						<file id="file-2"/>
						<name>！</name>
						<rate>
							<timebase>59</timebase>
							<ntsc>TRUE</ntsc>
						</rate>
						<rate>
							<timebase>59</timebase>
							<ntsc>TRUE</ntsc>
						</rate>
						<duration>60</duration>
						<start>4504</start>
						<end>4564</end>
						<in>0</in>
						<out>60</out>
					</clipitem>
					<clipitem frameBlend="FALSE" id="clipitem-telop-493">
						<file id="file-2"/>
						<name>！</name>
						<rate>
							<timebase>59</timebase>
							<ntsc>TRUE</ntsc>
						</rate>
						<rate>
							<timebase>59</timebase>
							<ntsc>TRUE</ntsc>
						</rate>
						<duration>60</duration>
						<start>4582</start>
						<end>4642</end>
						<in>0</in>
						<out>60</out>
					</clipitem>
					<clipitem frameBlend="FALSE" id="clipitem-telop-507">
						<file id="file-2"/>
						<name>！</name>
						<rate>
							<timebase>59</timebase>
							<ntsc>TRUE</ntsc>
						</rate>
						<rate>
							<timebase>59</timebase>
							<ntsc>TRUE</ntsc>
						</rate>
						<duration>60</duration>
						<start>4708</start>
						<end>4768</end>
						<in>0</in>
						<out>60</out>
					</clipitem>
					<clipitem frameBlend="FALSE" id="clipitem-telop-518">
						<file id="file-2"/>
						<name>！</name>
						<rate>
							<timebase>59</timebase>
							<ntsc>TRUE</ntsc>
						</rate>
						<rate>
							<timebase>59</timebase>
							<ntsc>TRUE</ntsc>
						</rate>
						<duration>60</duration>
						<start>4822</start>
						<end>4882</end>
						<in>0</in>
						<out>60</out>
					</clipitem>
					<clipitem frameBlend="FALSE" id="clipitem-telop-530">
						<file id="file-2"/>
						<name>！</name>
						<rate>
							<timebase>59</timebase>
							<ntsc>TRUE</ntsc>
						</rate>
						<rate>
							<timebase>59</timebase>
							<ntsc>TRUE</ntsc>
						</rate>
						<duration>60</duration>
						<start>4924</start>
						<end>4984</end>
						<in>0</in>
						<out>60</out>
					</clipitem>
					<clipitem frameBlend="FALSE" id="clipitem-telop-539">
						<file id="file-2"/>
						<name>！</name>
						<rate>
							<timebase>59</timebase>
							<ntsc>TRUE</ntsc>
						</rate>
						<rate>
							<timebase>59</timebase>
							<ntsc>TRUE</ntsc>
						</rate>
						<duration>60</duration>
						<start>5026</start>
						<end>5086</end>
						<in>0</in>
						<out>60</out>
					</clipitem>
					<clipitem frameBlend="FALSE" id="clipitem-telop-549">
						<file id="file-2"/>
						<name>！</name>
						<rate>
							<timebase>59</timebase>
							<ntsc>TRUE</ntsc>
						</rate>
						<rate>
							<timebase>59</timebase>
							<ntsc>TRUE</ntsc>
						</rate>
						<duration>60</duration>
						<start>5104</start>
						<end>5164</end>
						<in>0</in>
						<out>60</out>
					</clipitem>
					<clipitem frameBlend="FALSE" id="clipitem-telop-564">
						<file id="file-2"/>
						<name>！</name>
						<rate>
							<timebase>59</timebase>
							<ntsc>TRUE</ntsc>
						</rate>
						<rate>
							<timebase>59</timebase>
							<ntsc>TRUE</ntsc>
						</rate>
						<duration>60</duration>
						<start>5266</start>
						<end>5326</end>
						<in>0</in>
						<out>60</out>
					</clipitem>
					<clipitem frameBlend="FALSE" id="clipitem-telop-575">
						<file id="file-2"/>
						<name>！</name>
						<rate>
							<timebase>59</timebase>
							<ntsc>TRUE</ntsc>
						</rate>
						<rate>
							<timebase>59</timebase>
							<ntsc>TRUE</ntsc>
						</rate>
						<duration>60</duration>
						<start>5350</start>
						<end>5410</end>
						<in>0</in>
						<out>60</out>
					</clipitem>
					<clipitem frameBlend="FALSE" id="clipitem-telop-587">
						<file id="file-2"/>
						<name>！</name>
						<rate>
							<timebase>59</timebase>
							<ntsc>TRUE</ntsc>
						</rate>
						<rate>
							<timebase>59</timebase>
							<ntsc>TRUE</ntsc>
						</rate>
						<duration>60</duration>
						<start>5524</start>
						<end>5584</end>
						<in>0</in>
						<out>60</out>
					</clipitem>
					<clipitem frameBlend="FALSE" id="clipitem-telop-598">
						<file id="file-2"/>
						<name>w</name>
						<rate>
							<timebase>59</timebase>
							<ntsc>TRUE</ntsc>
						</rate>
						<rate>
							<timebase>59</timebase>
							<ntsc>TRUE</ntsc>
						</rate>
						<duration>24</duration>
						<start>5584</start>
						<end>5608</end>
						<in>0</in>
						<out>24</out>
					</clipitem>
					<clipitem frameBlend="FALSE" id="clipitem-telop-602">
						<file id="file-2"/>
						<name>！</name>
						<rate>
							<timebase>59</timebase>
							<ntsc>TRUE</ntsc>
						</rate>
						<rate>
							<timebase>59</timebase>
							<ntsc>TRUE</ntsc>
						</rate>
						<duration>60</duration>
						<start>5614</start>
						<end>5674</end>
						<in>0</in>
						<out>60</out>
					</clipitem>
					<clipitem frameBlend="FALSE" id="clipitem-telop-617">
						<file id="file-2"/>
						<name>！</name>
						<rate>
							<timebase>59</timebase>
							<ntsc>TRUE</ntsc>
						</rate>
						<rate>
							<timebase>59</timebase>
							<ntsc>TRUE</ntsc>
						</rate>
						<duration>60</duration>
						<start>5764</start>
						<end>5824</end>
						<in>0</in>
						<out>60</out>
					</clipitem>
					<clipitem frameBlend="FALSE" id="clipitem-telop-630">
						<file id="file-2"/>
						<name>！</name>
						<rate>
							<timebase>59</timebase>
							<ntsc>TRUE</ntsc>
						</rate>
						<rate>
							<timebase>59</timebase>
							<ntsc>TRUE</ntsc>
						</rate>
						<duration>66</duration>
						<start>5830</start>
						<end>5896</end>
						<in>0</in>
						<out>66</out>
					</clipitem>
					<clipitem frameBlend="FALSE" id="clipitem-telop-637">
						<file id="file-2"/>
						<name>！</name>
						<rate>
							<timebase>59</timebase>
							<ntsc>TRUE</ntsc>
						</rate>
						<rate>
							<timebase>59</timebase>
							<ntsc>TRUE</ntsc>
						</rate>
						<duration>60</duration>
						<start>5920</start>
						<end>5980</end>
						<in>0</in>
						<out>60</out>
					</clipitem>
					<clipitem frameBlend="FALSE" id="clipitem-telop-647">
						<file id="file-2"/>
						<name>！</name>
						<rate>
							<timebase>59</timebase>
							<ntsc>TRUE</ntsc>
						</rate>
						<rate>
							<timebase>59</timebase>
							<ntsc>TRUE</ntsc>
						</rate>
						<duration>60</duration>
						<start>6010</start>
						<end>6070</end>
						<in>0</in>
						<out>60</out>
					</clipitem>
					<clipitem frameBlend="FALSE" id="clipitem-telop-656">
						<file id="file-2"/>
						<name>！</name>
						<rate>
							<timebase>59</timebase>
							<ntsc>TRUE</ntsc>
						</rate>
						<rate>
							<timebase>59</timebase>
							<ntsc>TRUE</ntsc>
						</rate>
						<duration>60</duration>
						<start>6088</start>
						<end>6148</end>
						<in>0</in>
						<out>60</out>
					</clipitem>
					<clipitem frameBlend="FALSE" id="clipitem-telop-668">
						<file id="file-2"/>
						<name>！</name>
						<rate>
							<timebase>59</timebase>
							<ntsc>TRUE</ntsc>
						</rate>
						<rate>
							<timebase>59</timebase>
							<ntsc>TRUE</ntsc>
						</rate>
						<duration>66</duration>
						<start>6172</start>
						<end>6238</end>
						<in>0</in>
						<out>66</out>
					</clipitem>
					<clipitem frameBlend="FALSE" id="clipitem-telop-676">
						<file id="file-2"/>
						<name>w</name>
						<rate>
							<timebase>59</timebase>
							<ntsc>TRUE</ntsc>
						</rate>
						<rate>
							<timebase>59</timebase>
							<ntsc>TRUE</ntsc>
						</rate>
						<duration>24</duration>
						<start>6238</start>
						<end>6262</end>
						<in>0</in>
						<out>24</out>
					</clipitem>
					<clipitem frameBlend="FALSE" id="clipitem-telop-682">
						<file id="file-2"/>
						<name>！</name>
						<rate>
							<timebase>59</timebase>
							<ntsc>TRUE</ntsc>
						</rate>
						<rate>
							<timebase>59</timebase>
							<ntsc>TRUE</ntsc>
						</rate>
						<duration>60</duration>
						<start>6280</start>
						<end>6340</end>
						<in>0</in>
						<out>60</out>
					</clipitem>
					<clipitem frameBlend="FALSE" id="clipitem-telop-695">
						<file id="file-2"/>
						<name>！</name>
						<rate>
							<timebase>59</timebase>
							<ntsc>TRUE</ntsc>
						</rate>
						<rate>
							<timebase>59</timebase>
							<ntsc>TRUE</ntsc>
						</rate>
						<duration>60</duration>
						<start>6370</start>
						<end>6430</end>
						<in>0</in>
						<out>60</out>
					</clipitem>
					<clipitem frameBlend="FALSE" id="clipitem-telop-707">
						<file id="file-2"/>
						<name>！</name>
						<rate>
							<timebase>59</timebase>
							<ntsc>TRUE</ntsc>
						</rate>
						<rate>
							<timebase>59</timebase>
							<ntsc>TRUE</ntsc>
						</rate>
						<duration>60</duration>
						<start>6472</start>
						<end>6532</end>
						<in>0</in>
						<out>60</out>
					</clipitem>
					<clipitem frameBlend="FALSE" id="clipitem-telop-715">
						<file id="file-2"/>
						<name>！</name>
						<rate>
							<timebase>59</timebase>
							<ntsc>TRUE</ntsc>
						</rate>
						<rate>
							<timebase>59</timebase>
							<ntsc>TRUE</ntsc>
						</rate>
						<duration>60</duration>
						<start>6568</start>
						<end>6628</end>
						<in>0</in>
						<out>60</out>
					</clipitem>
					<clipitem frameBlend="FALSE" id="clipitem-telop-732">
						<file id="file-2"/>
						<name>！</name>
						<rate>
							<timebase>59</timebase>
							<ntsc>TRUE</ntsc>
						</rate>
						<rate>
							<timebase>59</timebase>
							<ntsc>TRUE</ntsc>
						</rate>
						<duration>66</duration>
						<start>6802</start>
						<end>6868</end>
						<in>0</in>
						<out>66</out>
					</clipitem>
					<clipitem frameBlend="FALSE" id="clipitem-telop-743">
						<file id="file-2"/>
						<name>！</name>
						<rate>
							<timebase>59</timebase>
							<ntsc>TRUE</ntsc>
						</rate>
						<rate>
							<timebase>59</timebase>
							<ntsc>TRUE</ntsc>
						</rate>
						<duration>60</duration>
						<start>6916</start>
						<end>6976</end>
						<in>0</in>
						<out>60</out>
					</clipitem>
					<clipitem frameBlend="FALSE" id="clipitem-telop-752">
						<file id="file-2"/>
						<name>！</name>
						<rate>
							<timebase>59</timebase>
							<ntsc>TRUE</ntsc>
						</rate>
						<rate>
							<timebase>59</timebase>
							<ntsc>TRUE</ntsc>
						</rate>
						<duration>60</duration>
						<start>6988</start>
						<end>7048</end>
						<in>0</in>
						<out>60</out>
					</clipitem>
				</track>
				<track>
					<clipitem frameBlend="FALSE" id="clipitem-telop-8">
						<file id="file-2"/>
						<name>！</name>
						<rate>
							<timebase>59</timebase>
							<ntsc>TRUE</ntsc>
						</rate>
						<rate>
							<timebase>59</timebase>
							<ntsc>TRUE</ntsc>
						</rate>
						<duration>60</duration>
						<start>89</start>
						<end>149</end>
						<in>0</in>
						<out>60</out>
					</clipitem>
					<clipitem frameBlend="FALSE" id="clipitem-telop-16">
						<file id="file-2"/>
						<name>！</name>
						<rate>
							<timebase>59</timebase>
							<ntsc>TRUE</ntsc>
						</rate>
						<rate>
							<timebase>59</timebase>
							<ntsc>TRUE</ntsc>
						</rate>
						<duration>60</duration>
						<start>155</start>
						<end>215</end>
						<in>0</in>
						<out>60</out>
					</clipitem>
					<clipitem frameBlend="FALSE" id="clipitem-telop-23">
						<file id="file-2"/>
						<name>！</name>
						<rate>
							<timebase>59</timebase>
							<ntsc>TRUE</ntsc>
						</rate>
						<rate>
							<timebase>59</timebase>
							<ntsc>TRUE</ntsc>
						</rate>
						<duration>60</duration>
						<start>263</start>
						<end>323</end>
						<in>0</in>
						<out>60</out>
					</clipitem>
					<clipitem frameBlend="FALSE" id="clipitem-telop-31">
						<file id="file-2"/>
						<name>！</name>
						<rate>
							<timebase>59</timebase>
							<ntsc>TRUE</ntsc>
						</rate>
						<rate>
							<timebase>59</timebase>
							<ntsc>TRUE</ntsc>
						</rate>
						<duration>66</duration>
						<start>323</start>
						<end>389</end>
						<in>0</in>
						<out>66</out>
					</clipitem>
					<clipitem frameBlend="FALSE" id="clipitem-telop-47">
						<file id="file-2"/>
						<name>！</name>
						<rate>
							<timebase>59</timebase>
							<ntsc>TRUE</ntsc>
						</rate>
						<rate>
							<timebase>59</timebase>
							<ntsc>TRUE</ntsc>
						</rate>
						<duration>60</duration>
						<start>485</start>
						<end>545</end>
						<in>0</in>
						<out>60</out>
					</clipitem>
					<clipitem frameBlend="FALSE" id="clipitem-telop-59">
						<file id="file-2"/>
						<name>！</name>
						<rate>
							<timebase>59</timebase>
							<ntsc>TRUE</ntsc>
						</rate>
						<rate>
							<timebase>59</timebase>
							<ntsc>TRUE</ntsc>
						</rate>
						<duration>60</duration>
						<start>581</start>
						<end>641</end>
						<in>0</in>
						<out>60</out>
					</clipitem>
					<clipitem frameBlend="FALSE" id="clipitem-telop-68">
						<file id="file-2"/>
						<name>！</name>
						<rate>
							<timebase>59</timebase>
							<ntsc>TRUE</ntsc>
						</rate>
						<rate>
							<timebase>59</timebase>
							<ntsc>TRUE</ntsc>
						</rate>
						<duration>60</duration>
						<start>641</start>
						<end>701</end>
						<in>0</in>
						<out>60</out>
					</clipitem>
					<clipitem frameBlend="FALSE" id="clipitem-telop-79">
						<file id="file-2"/>
						<name>！</name>
						<rate>
							<timebase>59</timebase>
							<ntsc>TRUE</ntsc>
						</rate>
						<rate>
							<timebase>59</timebase>
							<ntsc>TRUE</ntsc>
						</rate>
						<duration>60</duration>
						<start>719</start>
						<end>779</end>
						<in>0</in>
						<out>60</out>
					</clipitem>
					<clipitem frameBlend="FALSE" id="clipitem-telop-87">
						<file id="file-2"/>
						<name>！</name>
						<rate>
							<timebase>59</timebase>
							<ntsc>TRUE</ntsc>
						</rate>
						<rate>
							<timebase>59</timebase>
							<ntsc>TRUE</ntsc>
						</rate>
						<duration>60</duration>
						<start>791</start>
						<end>851</end>
						<in>0</in>
						<out>60</out>
					</clipitem>
					<clipitem frameBlend="FALSE" id="clipitem-telop-99">
						<file id="file-2"/>
						<name>！</name>
						<rate>
							<timebase>59</timebase>
							<ntsc>TRUE</ntsc>
						</rate>
						<rate>
							<timebase>59</timebase>
							<ntsc>TRUE</ntsc>
						</rate>
						<duration>60</duration>
						<start>869</start>
						<end>929</end>
						<in>0</in>
						<out>60</out>
					</clipitem>
					<clipitem frameBlend="FALSE" id="clipitem-telop-109">
						<file id="file-2"/>
						<name>！</name>
						<rate>
							<timebase>59</timebase>
							<ntsc>TRUE</ntsc>
						</rate>
						<rate>
							<timebase>59</timebase>
							<ntsc>TRUE</ntsc>
						</rate>
						<duration>66</duration>
						<start>929</start>
						<end>995</end>
						<in>0</in>
						<out>66</out>
					</clipitem>
					<clipitem frameBlend="FALSE" id="clipitem-telop-123">
						<file id="file-2"/>
						<name>！</name>
						<rate>
							<timebase>59</timebase>
							<ntsc>TRUE</ntsc>
						</rate>
						<rate>
							<timebase>59</timebase>
							<ntsc>TRUE</ntsc>
						</rate>
						<duration>60</duration>
						<start>995</start>
						<end>1055</end>
						<in>0</in>
						<out>60</out>
					</clipitem>
					<clipitem frameBlend="FALSE" id="clipitem-telop-131">
						<file id="file-2"/>
						<name>！</name>
						<rate>
							<timebase>59</timebase>
							<ntsc>TRUE</ntsc>
						</rate>
						<rate>
							<timebase>59</timebase>
							<ntsc>TRUE</ntsc>
						</rate>
						<duration>60</duration>
						<start>1061</start>
						<end>1121</end>
						<in>0</in>
						<out>60</out>
					</clipitem>
					<clipitem frameBlend="FALSE" id="clipitem-telop-145">
						<file id="file-2"/>
						<name>！</name>
						<rate>
							<timebase>59</timebase>
							<ntsc>TRUE</ntsc>
						</rate>
						<rate>
							<timebase>59</timebase>
							<ntsc>TRUE</ntsc>
						</rate>
						<duration>60</duration>
						<start>1193</start>
						<end>1253</end>
						<in>0</in>
						<out>60</out>
					</clipitem>
					<clipitem frameBlend="FALSE" id="clipitem-telop-155">
						<file id="file-2"/>
						<name>！</name>
						<rate>
							<timebase>59</timebase>
							<ntsc>TRUE</ntsc>
						</rate>
						<rate>
							<timebase>59</timebase>
							<ntsc>TRUE</ntsc>
						</rate>
						<duration>60</duration>
						<start>1295</start>
						<end>1355</end>
						<in>0</in>
						<out>60</out>
					</clipitem>
					<clipitem frameBlend="FALSE" id="clipitem-telop-163">
						<file id="file-2"/>
						<name>！</name>
						<rate>
							<timebase>59</timebase>
							<ntsc>TRUE</ntsc>
						</rate>
						<rate>
							<timebase>59</timebase>
							<ntsc>TRUE</ntsc>
						</rate>
						<duration>60</duration>
						<start>1373</start>
						<end>1433</end>
						<in>0</in>
						<out>60</out>
					</clipitem>
					<clipitem frameBlend="FALSE" id="clipitem-telop-174">
						<file id="file-2"/>
						<name>！</name>
						<rate>
							<timebase>59</timebase>
							<ntsc>TRUE</ntsc>
						</rate>
						<rate>
							<timebase>59</timebase>
							<ntsc>TRUE</ntsc>
						</rate>
						<duration>60</duration>
						<start>1451</start>
						<end>1511</end>
						<in>0</in>
						<out>60</out>
					</clipitem>
					<clipitem frameBlend="FALSE" id="clipitem-telop-184">
						<file id="file-2"/>
						<name>！</name>
						<rate>
							<timebase>59</timebase>
							<ntsc>TRUE</ntsc>
						</rate>
						<rate>
							<timebase>59</timebase>
							<ntsc>TRUE</ntsc>
						</rate>
						<duration>60</duration>
						<start>1553</start>
						<end>1613</end>
						<in>0</in>
						<out>60</out>
					</clipitem>
					<clipitem frameBlend="FALSE" id="clipitem-telop-192">
						<file id="file-2"/>
						<name>！</name>
						<rate>
							<timebase>59</timebase>
							<ntsc>TRUE</ntsc>
						</rate>
						<rate>
							<timebase>59</timebase>
							<ntsc>TRUE</ntsc>
						</rate>
						<duration>66</duration>
						<start>1625</start>
						<end>1691</end>
						<in>0</in>
						<out>66</out>
					</clipitem>
					<clipitem frameBlend="FALSE" id="clipitem-telop-205">
						<file id="file-2"/>
						<name>！</name>
						<rate>
							<timebase>59</timebase>
							<ntsc>TRUE</ntsc>
						</rate>
						<rate>
							<timebase>59</timebase>
							<ntsc>TRUE</ntsc>
						</rate>
						<duration>60</duration>
						<start>1739</start>
						<end>1799</end>
						<in>0</in>
						<out>60</out>
					</clipitem>
					<clipitem frameBlend="FALSE" id="clipitem-telop-215">
						<file id="file-2"/>
						<name>！</name>
						<rate>
							<timebase>59</timebase>
							<ntsc>TRUE</ntsc>
						</rate>
						<rate>
							<timebase>59</timebase>
							<ntsc>TRUE</ntsc>
						</rate>
						<duration>60</duration>
						<start>1817</start>
						<end>1877</end>
						<in>0</in>
						<out>60</out>
					</clipitem>
					<clipitem frameBlend="FALSE" id="clipitem-telop-227">
						<file id="file-2"/>
						<name>！</name>
						<rate>
							<timebase>59</timebase>
							<ntsc>TRUE</ntsc>
						</rate>
						<rate>
							<timebase>59</timebase>
							<ntsc>TRUE</ntsc>
						</rate>
						<duration>60</duration>
						<start>1913</start>
						<end>1973</end>
						<in>0</in>
						<out>60</out>
					</clipitem>
					<clipitem frameBlend="FALSE" id="clipitem-telop-237">
						<file id="file-2"/>
						<name>！</name>
						<rate>
							<timebase>59</timebase>
							<ntsc>TRUE</ntsc>
						</rate>
						<rate>
							<timebase>59</timebase>
							<ntsc>TRUE</ntsc>
						</rate>
						<duration>60</duration>
						<start>1991</start>
						<end>2051</end>
						<in>0</in>
						<out>60</out>
					</clipitem>
					<clipitem frameBlend="FALSE" id="clipitem-telop-250">
						<file id="file-2"/>
						<name>！</name>
						<rate>
							<timebase>59</timebase>
							<ntsc>TRUE</ntsc>
						</rate>
						<rate>
							<timebase>59</timebase>
							<ntsc>TRUE</ntsc>
						</rate>
						<duration>60</duration>
						<start>2195</start>
						<end>2255</end>
						<in>0</in>
						<out>60</out>
					</clipitem>
					<clipitem frameBlend="FALSE" id="clipitem-telop-268">
						<file id="file-2"/>
						<name>！</name>
						<rate>
							<timebase>59</timebase>
							<ntsc>TRUE</ntsc>
						</rate>
						<rate>
							<timebase>59</timebase>
							<ntsc>TRUE</ntsc>
						</rate>
						<duration>60</duration>
						<start>2453</start>
						<end>2513</end>
						<in>0</in>
						<out>60</out>
					</clipitem>
					<clipitem frameBlend="FALSE" id="clipitem-telop-277">
						<file id="file-2"/>
						<name>！</name>
						<rate>
							<timebase>59</timebase>
							<ntsc>TRUE</ntsc>
						</rate>
						<rate>
							<timebase>59</timebase>
							<ntsc>TRUE</ntsc>
						</rate>
						<duration>66</duration>
						<start>2561</start>
						<end>2627</end>
						<in>0</in>
						<out>66</out>
					</clipitem>
					<clipitem frameBlend="FALSE" id="clipitem-telop-285">
						<file id="file-2"/>
						<name>！</name>
						<rate>
							<timebase>59</timebase>
							<ntsc>TRUE</ntsc>
						</rate>
						<rate>
							<timebase>59</timebase>
							<ntsc>TRUE</ntsc>
						</rate>
						<duration>60</duration>
						<start>2633</start>
						<end>2693</end>
						<in>0</in>
						<out>60</out>
					</clipitem>
					<clipitem frameBlend="FALSE" id="clipitem-telop-297">
						<file id="file-2"/>
						<name>！</name>
						<rate>
							<timebase>59</timebase>
							<ntsc>TRUE</ntsc>
						</rate>
						<rate>
							<timebase>59</timebase>
							<ntsc>TRUE</ntsc>
						</rate>
						<duration>66</duration>
						<start>2735</start>
						<end>2801</end>
						<in>0</in>
						<out>66</out>
					</clipitem>
					<clipitem frameBlend="FALSE" id="clipitem-telop-309">
						<file id="file-2"/>
						<name>！</name>
						<rate>
							<timebase>59</timebase>
							<ntsc>TRUE</ntsc>
						</rate>
						<rate>
							<timebase>59</timebase>
							<ntsc>TRUE</ntsc>
						</rate>
						<duration>66</duration>
						<start>2837</start>
						<end>2903</end>
						<in>0</in>
						<out>66</out>
					</clipitem>
					<clipitem frameBlend="FALSE" id="clipitem-telop-321">
						<file id="file-2"/>
						<name>！</name>
						<rate>
							<timebase>59</timebase>
							<ntsc>TRUE</ntsc>
						</rate>
						<rate>
							<timebase>59</timebase>
							<ntsc>TRUE</ntsc>
						</rate>
						<duration>60</duration>
						<start>2963</start>
						<end>3023</end>
						<in>0</in>
						<out>60</out>
					</clipitem>
					<clipitem frameBlend="FALSE" id="clipitem-telop-329">
						<file id="file-2"/>
						<name>w</name>
						<rate>
							<timebase>59</timebase>
							<ntsc>TRUE</ntsc>
						</rate>
						<rate>
							<timebase>59</timebase>
							<ntsc>TRUE</ntsc>
						</rate>
						<duration>24</duration>
						<start>3035</start>
						<end>3059</end>
						<in>0</in>
						<out>24</out>
					</clipitem>
					<clipitem frameBlend="FALSE" id="clipitem-telop-340">
						<file id="file-2"/>
						<name>！</name>
						<rate>
							<timebase>59</timebase>
							<ntsc>TRUE</ntsc>
						</rate>
						<rate>
							<timebase>59</timebase>
							<ntsc>TRUE</ntsc>
						</rate>
						<duration>60</duration>
						<start>3137</start>
						<end>3197</end>
						<in>0</in>
						<out>60</out>
					</clipitem>
					<clipitem frameBlend="FALSE" id="clipitem-telop-349">
						<file id="file-2"/>
						<name>！</name>
						<rate>
							<timebase>59</timebase>
							<ntsc>TRUE</ntsc>
						</rate>
						<rate>
							<timebase>59</timebase>
							<ntsc>TRUE</ntsc>
						</rate>
						<duration>60</duration>
						<start>3215</start>
						<end>3275</end>
						<in>0</in>
						<out>60</out>
					</clipitem>
					<clipitem frameBlend="FALSE" id="clipitem-telop-364">
						<file id="file-2"/>
						<name>！</name>
						<rate>
							<timebase>59</timebase>
							<ntsc>TRUE</ntsc>
						</rate>
						<rate>
							<timebase>59</timebase>
							<ntsc>TRUE</ntsc>
						</rate>
						<duration>60</duration>
						<start>3335</start>
						<end>3395</end>
						<in>0</in>
						<out>60</out>
					</clipitem>
					<clipitem frameBlend="FALSE" id="clipitem-telop-371">
						<file id="file-2"/>
						<name>！</name>
						<rate>
							<timebase>59</timebase>
							<ntsc>TRUE</ntsc>
						</rate>
						<rate>
							<timebase>59</timebase>
							<ntsc>TRUE</ntsc>
						</rate>
						<duration>66</duration>
						<start>3395</start>
						<end>3461</end>
						<in>0</in>
						<out>66</out>
					</clipitem>
					<clipitem frameBlend="FALSE" id="clipitem-telop-379">
						<file id="file-2"/>
						<name>！</name>
						<rate>
							<timebase>59</timebase>
							<ntsc>TRUE</ntsc>
						</rate>
						<rate>
							<timebase>59</timebase>
							<ntsc>TRUE</ntsc>
						</rate>
						<duration>59</duration>
						<start>3479</start>
						<end>3538</end>
						<in>0</in>
						<out>59</out>
					</clipitem>
					<clipitem frameBlend="FALSE" id="clipitem-telop-393">
						<file id="file-2"/>
						<name>！</name>
						<rate>
							<timebase>59</timebase>
							<ntsc>TRUE</ntsc>
						</rate>
						<rate>
							<timebase>59</timebase>
							<ntsc>TRUE</ntsc>
						</rate>
						<duration>60</duration>
						<start>3622</start>
						<end>3682</end>
						<in>0</in>
						<out>60</out>
					</clipitem>
					<clipitem frameBlend="FALSE" id="clipitem-telop-404">
						<file id="file-2"/>
						<name>！</name>
						<rate>
							<timebase>59</timebase>
							<ntsc>TRUE</ntsc>
						</rate>
						<rate>
							<timebase>59</timebase>
							<ntsc>TRUE</ntsc>
						</rate>
						<duration>60</duration>
						<start>3718</start>
						<end>3778</end>
						<in>0</in>
						<out>60</out>
					</clipitem>
					<clipitem frameBlend="FALSE" id="clipitem-telop-418">
						<file id="file-2"/>
						<name>！</name>
						<rate>
							<timebase>59</timebase>
							<ntsc>TRUE</ntsc>
						</rate>
						<rate>
							<timebase>59</timebase>
							<ntsc>TRUE</ntsc>
						</rate>
						<duration>60</duration>
						<start>3808</start>
						<end>3868</end>
						<in>0</in>
						<out>60</out>
					</clipitem>
					<clipitem frameBlend="FALSE" id="clipitem-telop-450">
						<file id="file-2"/>
						<name>！</name>
						<rate>
							<timebase>59</timebase>
							<ntsc>TRUE</ntsc>
						</rate>
						<rate>
							<timebase>59</timebase>
							<ntsc>TRUE</ntsc>
						</rate>
						<duration>66</duration>
						<start>4234</start>
						<end>4300</end>
						<in>0</in>
						<out>66</out>
					</clipitem>
					<clipitem frameBlend="FALSE" id="clipitem-telop-458">
						<file id="file-2"/>
						<name>！</name>
						<rate>
							<timebase>59</timebase>
							<ntsc>TRUE</ntsc>
						</rate>
						<rate>
							<timebase>59</timebase>
							<ntsc>TRUE</ntsc>
						</rate>
						<duration>60</duration>
						<start>4312</start>
						<end>4372</end>
						<in>0</in>
						<out>60</out>
					</clipitem>
					<clipitem frameBlend="FALSE" id="clipitem-telop-469">
						<file id="file-2"/>
						<name>！</name>
						<rate>
							<timebase>59</timebase>
							<ntsc>TRUE</ntsc>
						</rate>
						<rate>
							<timebase>59</timebase>
							<ntsc>TRUE</ntsc>
						</rate>
						<duration>60</duration>
						<start>4402</start>
						<end>4462</end>
						<in>0</in>
						<out>60</out>
					</clipitem>
					<clipitem frameBlend="FALSE" id="clipitem-telop-481">
						<file id="file-2"/>
						<name>！</name>
						<rate>
							<timebase>59</timebase>
							<ntsc>TRUE</ntsc>
						</rate>
						<rate>
							<timebase>59</timebase>
							<ntsc>TRUE</ntsc>
						</rate>
						<duration>60</duration>
						<start>4468</start>
						<end>4528</end>
						<in>0</in>
						<out>60</out>
					</clipitem>
					<clipitem frameBlend="FALSE" id="clipitem-telop-494">
						<file id="file-2"/>
						<name>！</name>
						<rate>
							<timebase>59</timebase>
							<ntsc>TRUE</ntsc>
						</rate>
						<rate>
							<timebase>59</timebase>
							<ntsc>TRUE</ntsc>
						</rate>
						<duration>60</duration>
						<start>4582</start>
						<end>4642</end>
						<in>0</in>
						<out>60</out>
					</clipitem>
					<clipitem frameBlend="FALSE" id="clipitem-telop-510">
						<file id="file-2"/>
						<name>！</name>
						<rate>
							<timebase>59</timebase>
							<ntsc>TRUE</ntsc>
						</rate>
						<rate>
							<timebase>59</timebase>
							<ntsc>TRUE</ntsc>
						</rate>
						<duration>60</duration>
						<start>4732</start>
						<end>4792</end>
						<in>0</in>
						<out>60</out>
					</clipitem>
					<clipitem frameBlend="FALSE" id="clipitem-telop-520">
						<file id="file-2"/>
						<name>！</name>
						<rate>
							<timebase>59</timebase>
							<ntsc>TRUE</ntsc>
						</rate>
						<rate>
							<timebase>59</timebase>
							<ntsc>TRUE</ntsc>
						</rate>
						<duration>60</duration>
						<start>4828</start>
						<end>4888</end>
						<in>0</in>
						<out>60</out>
					</clipitem>
					<clipitem frameBlend="FALSE" id="clipitem-telop-540">
						<file id="file-2"/>
						<name>！</name>
						<rate>
							<timebase>59</timebase>
							<ntsc>TRUE</ntsc>
						</rate>
						<rate>
							<timebase>59</timebase>
							<ntsc>TRUE</ntsc>
						</rate>
						<duration>60</duration>
						<start>5038</start>
						<end>5098</end>
						<in>0</in>
						<out>60</out>
					</clipitem>
					<clipitem frameBlend="FALSE" id="clipitem-telop-550">
						<file id="file-2"/>
						<name>！</name>
						<rate>
							<timebase>59</timebase>
							<ntsc>TRUE</ntsc>
						</rate>
						<rate>
							<timebase>59</timebase>
							<ntsc>TRUE</ntsc>
						</rate>
						<duration>66</duration>
						<start>5110</start>
						<end>5176</end>
						<in>0</in>
						<out>66</out>
					</clipitem>
					<clipitem frameBlend="FALSE" id="clipitem-telop-567">
						<file id="file-2"/>
						<name>！</name>
						<rate>
							<timebase>59</timebase>
							<ntsc>TRUE</ntsc>
						</rate>
						<rate>
							<timebase>59</timebase>
							<ntsc>TRUE</ntsc>
						</rate>
						<duration>60</duration>
						<start>5278</start>
						<end>5338</end>
						<in>0</in>
						<out>60</out>
					</clipitem>
					<clipitem frameBlend="FALSE" id="clipitem-telop-588">
						<file id="file-2"/>
						<name>！</name>
						<rate>
							<timebase>59</timebase>
							<ntsc>TRUE</ntsc>
						</rate>
						<rate>
							<timebase>59</timebase>
							<ntsc>TRUE</ntsc>
						</rate>
						<duration>60</duration>
						<start>5530</start>
						<end>5590</end>
						<in>0</in>
						<out>60</out>
					</clipitem>
					<clipitem frameBlend="FALSE" id="clipitem-telop-599">
						<file id="file-2"/>
						<name>！</name>
						<rate>
							<timebase>59</timebase>
							<ntsc>TRUE</ntsc>
						</rate>
						<rate>
							<timebase>59</timebase>
							<ntsc>TRUE</ntsc>
						</rate>
						<duration>60</duration>
						<start>5590</start>
						<end>5650</end>
						<in>0</in>
						<out>60</out>
					</clipitem>
					<clipitem frameBlend="FALSE" id="clipitem-telop-608">
						<file id="file-2"/>
						<name>！</name>
						<rate>
							<timebase>59</timebase>
							<ntsc>TRUE</ntsc>
						</rate>
						<rate>
							<timebase>59</timebase>
							<ntsc>TRUE</ntsc>
						</rate>
						<duration>60</duration>
						<start>5650</start>
						<end>5710</end>
						<in>0</in>
						<out>60</out>
					</clipitem>
					<clipitem frameBlend="FALSE" id="clipitem-telop-618">
						<file id="file-2"/>
						<name>！</name>
						<rate>
							<timebase>59</timebase>
							<ntsc>TRUE</ntsc>
						</rate>
						<rate>
							<timebase>59</timebase>
							<ntsc>TRUE</ntsc>
						</rate>
						<duration>66</duration>
						<start>5770</start>
						<end>5836</end>
						<in>0</in>
						<out>66</out>
					</clipitem>
					<clipitem frameBlend="FALSE" id="clipitem-telop-639">
						<file id="file-2"/>
						<name>！</name>
						<rate>
							<timebase>59</timebase>
							<ntsc>TRUE</ntsc>
						</rate>
						<rate>
							<timebase>59</timebase>
							<ntsc>TRUE</ntsc>
						</rate>
						<duration>66</duration>
						<start>5938</start>
						<end>6004</end>
						<in>0</in>
						<out>66</out>
					</clipitem>
					<clipitem frameBlend="FALSE" id="clipitem-telop-648">
						<file id="file-2"/>
						<name>！</name>
						<rate>
							<timebase>59</timebase>
							<ntsc>TRUE</ntsc>
						</rate>
						<rate>
							<timebase>59</timebase>
							<ntsc>TRUE</ntsc>
						</rate>
						<duration>60</duration>
						<start>6016</start>
						<end>6076</end>
						<in>0</in>
						<out>60</out>
					</clipitem>
					<clipitem frameBlend="FALSE" id="clipitem-telop-657">
						<file id="file-2"/>
						<name>！</name>
						<rate>
							<timebase>59</timebase>
							<ntsc>TRUE</ntsc>
						</rate>
						<rate>
							<timebase>59</timebase>
							<ntsc>TRUE</ntsc>
						</rate>
						<duration>66</duration>
						<start>6088</start>
						<end>6154</end>
						<in>0</in>
						<out>66</out>
					</clipitem>
					<clipitem frameBlend="FALSE" id="clipitem-telop-669">
						<file id="file-2"/>
						<name>！</name>
						<rate>
							<timebase>59</timebase>
							<ntsc>TRUE</ntsc>
						</rate>
						<rate>
							<timebase>59</timebase>
							<ntsc>TRUE</ntsc>
						</rate>
						<duration>66</duration>
						<start>6178</start>
						<end>6244</end>
						<in>0</in>
						<out>66</out>
					</clipitem>
					<clipitem frameBlend="FALSE" id="clipitem-telop-678">
						<file id="file-2"/>
						<name>！</name>
						<rate>
							<timebase>59</timebase>
							<ntsc>TRUE</ntsc>
						</rate>
						<rate>
							<timebase>59</timebase>
							<ntsc>TRUE</ntsc>
						</rate>
						<duration>60</duration>
						<start>6244</start>
						<end>6304</end>
						<in>0</in>
						<out>60</out>
					</clipitem>
					<clipitem frameBlend="FALSE" id="clipitem-telop-688">
						<file id="file-2"/>
						<name>！</name>
						<rate>
							<timebase>59</timebase>
							<ntsc>TRUE</ntsc>
						</rate>
						<rate>
							<timebase>59</timebase>
							<ntsc>TRUE</ntsc>
						</rate>
						<duration>66</duration>
						<start>6304</start>
						<end>6370</end>
						<in>0</in>
						<out>66</out>
					</clipitem>
					<clipitem frameBlend="FALSE" id="clipitem-telop-696">
						<file id="file-2"/>
						<name>！</name>
						<rate>
							<timebase>59</timebase>
							<ntsc>TRUE</ntsc>
						</rate>
						<rate>
							<timebase>59</timebase>
							<ntsc>TRUE</ntsc>
						</rate>
						<duration>60</duration>
						<start>6370</start>
						<end>6430</end>
						<in>0</in>
						<out>60</out>
					</clipitem>
					<clipitem frameBlend="FALSE" id="clipitem-telop-716">
						<file id="file-2"/>
						<name>！</name>
						<rate>
							<timebase>59</timebase>
							<ntsc>TRUE</ntsc>
						</rate>
						<rate>
							<timebase>59</timebase>
							<ntsc>TRUE</ntsc>
						</rate>
						<duration>60</duration>
						<start>6574</start>
						<end>6634</end>
						<in>0</in>
						<out>60</out>
					</clipitem>
					<clipitem frameBlend="FALSE" id="clipitem-telop-734">
						<file id="file-2"/>
						<name>！</name>
						<rate>
							<timebase>59</timebase>
							<ntsc>TRUE</ntsc>
						</rate>
						<rate>
							<timebase>59</timebase>
							<ntsc>TRUE</ntsc>
						</rate>
						<duration>60</duration>
						<start>6814</start>
						<end>6874</end>
						<in>0</in>
						<out>60</out>
					</clipitem>
					<clipitem frameBlend="FALSE" id="clipitem-telop-744">
						<file id="file-2"/>
						<name>！</name>
						<rate>
							<timebase>59</timebase>
							<ntsc>TRUE</ntsc>
						</rate>
						<rate>
							<timebase>59</timebase>
							<ntsc>TRUE</ntsc>
						</rate>
						<duration>60</duration>
						<start>6922</start>
						<end>6982</end>
						<in>0</in>
						<out>60</out>
					</clipitem>
				</track>
				<track>
					<clipitem frameBlend="FALSE" id="clipitem-telop-9">
						<file id="file-2"/>
						<name>！</name>
						<rate>
							<timebase>59</timebase>
							<ntsc>TRUE</ntsc>
						</rate>
						<rate>
							<timebase>59</timebase>
							<ntsc>TRUE</ntsc>
						</rate>
						<duration>60</duration>
						<start>107</start>
						<end>167</end>
						<in>0</in>
						<out>60</out>
					</clipitem>
					<clipitem frameBlend="FALSE" id="clipitem-telop-24">
						<file id="file-2"/>
						<name>！</name>
						<rate>
							<timebase>59</timebase>
							<ntsc>TRUE</ntsc>
						</rate>
						<rate>
							<timebase>59</timebase>
							<ntsc>TRUE</ntsc>
						</rate>
						<duration>66</duration>
						<start>263</start>
						<end>329</end>
						<in>0</in>
						<out>66</out>
					</clipitem>
					<clipitem frameBlend="FALSE" id="clipitem-telop-50">
						<file id="file-2"/>
						<name>！</name>
						<rate>
							<timebase>59</timebase>
							<ntsc>TRUE</ntsc>
						</rate>
						<rate>
							<timebase>59</timebase>
							<ntsc>TRUE</ntsc>
						</rate>
						<duration>60</duration>
						<start>509</start>
						<end>569</end>
						<in>0</in>
						<out>60</out>
					</clipitem>
					<clipitem frameBlend="FALSE" id="clipitem-telop-60">
						<file id="file-2"/>
						<name>！</name>
						<rate>
							<timebase>59</timebase>
							<ntsc>TRUE</ntsc>
						</rate>
						<rate>
							<timebase>59</timebase>
							<ntsc>TRUE</ntsc>
						</rate>
						<duration>60</duration>
						<start>587</start>
						<end>647</end>
						<in>0</in>
						<out>60</out>
					</clipitem>
					<clipitem frameBlend="FALSE" id="clipitem-telop-69">
						<file id="file-2"/>
						<name>！</name>
						<rate>
							<timebase>59</timebase>
							<ntsc>TRUE</ntsc>
						</rate>
						<rate>
							<timebase>59</timebase>
							<ntsc>TRUE</ntsc>
						</rate>
						<duration>60</duration>
						<start>647</start>
						<end>707</end>
						<in>0</in>
						<out>60</out>
					</clipitem>
					<clipitem frameBlend="FALSE" id="clipitem-telop-82">
						<file id="file-2"/>
						<name>！</name>
						<rate>
							<timebase>59</timebase>
							<ntsc>TRUE</ntsc>
						</rate>
						<rate>
							<timebase>59</timebase>
							<ntsc>TRUE</ntsc>
						</rate>
						<duration>60</duration>
						<start>749</start>
						<end>809</end>
						<in>0</in>
						<out>60</out>
					</clipitem>
					<clipitem frameBlend="FALSE" id="clipitem-telop-92">
						<file id="file-2"/>
						<name>！</name>
						<rate>
							<timebase>59</timebase>
							<ntsc>TRUE</ntsc>
						</rate>
						<rate>
							<timebase>59</timebase>
							<ntsc>TRUE</ntsc>
						</rate>
						<duration>60</duration>
						<start>827</start>
						<end>887</end>
						<in>0</in>
						<out>60</out>
					</clipitem>
					<clipitem frameBlend="FALSE" id="clipitem-telop-105">
						<file id="file-2"/>
						<name>！</name>
						<rate>
							<timebase>59</timebase>
							<ntsc>TRUE</ntsc>
						</rate>
						<rate>
							<timebase>59</timebase>
							<ntsc>TRUE</ntsc>
						</rate>
						<duration>66</duration>
						<start>899</start>
						<end>965</end>
						<in>0</in>
						<out>66</out>
					</clipitem>
					<clipitem frameBlend="FALSE" id="clipitem-telop-115">
						<file id="file-2"/>
						<name>！</name>
						<rate>
							<timebase>59</timebase>
							<ntsc>TRUE</ntsc>
						</rate>
						<rate>
							<timebase>59</timebase>
							<ntsc>TRUE</ntsc>
						</rate>
						<duration>60</duration>
						<start>965</start>
						<end>1025</end>
						<in>0</in>
						<out>60</out>
					</clipitem>
					<clipitem frameBlend="FALSE" id="clipitem-telop-128">
						<file id="file-2"/>
						<name>！</name>
						<rate>
							<timebase>59</timebase>
							<ntsc>TRUE</ntsc>
						</rate>
						<rate>
							<timebase>59</timebase>
							<ntsc>TRUE</ntsc>
						</rate>
						<duration>66</duration>
						<start>1031</start>
						<end>1097</end>
						<in>0</in>
						<out>66</out>
					</clipitem>
					<clipitem frameBlend="FALSE" id="clipitem-telop-156">
						<file id="file-2"/>
						<name>！</name>
						<rate>
							<timebase>59</timebase>
							<ntsc>TRUE</ntsc>
						</rate>
						<rate>
							<timebase>59</timebase>
							<ntsc>TRUE</ntsc>
						</rate>
						<duration>60</duration>
						<start>1301</start>
						<end>1361</end>
						<in>0</in>
						<out>60</out>
					</clipitem>
					<clipitem frameBlend="FALSE" id="clipitem-telop-165">
						<file id="file-2"/>
						<name>！</name>
						<rate>
							<timebase>59</timebase>
							<ntsc>TRUE</ntsc>
						</rate>
						<rate>
							<timebase>59</timebase>
							<ntsc>TRUE</ntsc>
						</rate>
						<duration>60</duration>
						<start>1385</start>
						<end>1445</end>
						<in>0</in>
						<out>60</out>
					</clipitem>
					<clipitem frameBlend="FALSE" id="clipitem-telop-176">
						<file id="file-2"/>
						<name>！</name>
						<rate>
							<timebase>59</timebase>
							<ntsc>TRUE</ntsc>
						</rate>
						<rate>
							<timebase>59</timebase>
							<ntsc>TRUE</ntsc>
						</rate>
						<duration>60</duration>
						<start>1475</start>
						<end>1535</end>
						<in>0</in>
						<out>60</out>
					</clipitem>
					<clipitem frameBlend="FALSE" id="clipitem-telop-194">
						<file id="file-2"/>
						<name>！</name>
						<rate>
							<timebase>59</timebase>
							<ntsc>TRUE</ntsc>
						</rate>
						<rate>
							<timebase>59</timebase>
							<ntsc>TRUE</ntsc>
						</rate>
						<duration>60</duration>
						<start>1637</start>
						<end>1697</end>
						<in>0</in>
						<out>60</out>
					</clipitem>
					<clipitem frameBlend="FALSE" id="clipitem-telop-209">
						<file id="file-2"/>
						<name>！</name>
						<rate>
							<timebase>59</timebase>
							<ntsc>TRUE</ntsc>
						</rate>
						<rate>
							<timebase>59</timebase>
							<ntsc>TRUE</ntsc>
						</rate>
						<duration>66</duration>
						<start>1775</start>
						<end>1841</end>
						<in>0</in>
						<out>66</out>
					</clipitem>
					<clipitem frameBlend="FALSE" id="clipitem-telop-228">
						<file id="file-2"/>
						<name>！</name>
						<rate>
							<timebase>59</timebase>
							<ntsc>TRUE</ntsc>
						</rate>
						<rate>
							<timebase>59</timebase>
							<ntsc>TRUE</ntsc>
						</rate>
						<duration>66</duration>
						<start>1919</start>
						<end>1985</end>
						<in>0</in>
						<out>66</out>
					</clipitem>
					<clipitem frameBlend="FALSE" id="clipitem-telop-251">
						<file id="file-2"/>
						<name>！</name>
						<rate>
							<timebase>59</timebase>
							<ntsc>TRUE</ntsc>
						</rate>
						<rate>
							<timebase>59</timebase>
							<ntsc>TRUE</ntsc>
						</rate>
						<duration>60</duration>
						<start>2201</start>
						<end>2261</end>
						<in>0</in>
						<out>60</out>
					</clipitem>
					<clipitem frameBlend="FALSE" id="clipitem-telop-269">
						<file id="file-2"/>
						<name>！</name>
						<rate>
							<timebase>59</timebase>
							<ntsc>TRUE</ntsc>
						</rate>
						<rate>
							<timebase>59</timebase>
							<ntsc>TRUE</ntsc>
						</rate>
						<duration>60</duration>
						<start>2453</start>
						<end>2513</end>
						<in>0</in>
						<out>60</out>
					</clipitem>
					<clipitem frameBlend="FALSE" id="clipitem-telop-278">
						<file id="file-2"/>
						<name>！</name>
						<rate>
							<timebase>59</timebase>
							<ntsc>TRUE</ntsc>
						</rate>
						<rate>
							<timebase>59</timebase>
							<ntsc>TRUE</ntsc>
						</rate>
						<duration>60</duration>
						<start>2567</start>
						<end>2627</end>
						<in>0</in>
						<out>60</out>
					</clipitem>
					<clipitem frameBlend="FALSE" id="clipitem-telop-288">
						<file id="file-2"/>
						<name>！</name>
						<rate>
							<timebase>59</timebase>
							<ntsc>TRUE</ntsc>
						</rate>
						<rate>
							<timebase>59</timebase>
							<ntsc>TRUE</ntsc>
						</rate>
						<duration>66</duration>
						<start>2645</start>
						<end>2711</end>
						<in>0</in>
						<out>66</out>
					</clipitem>
					<clipitem frameBlend="FALSE" id="clipitem-telop-301">
						<file id="file-2"/>
						<name>！</name>
						<rate>
							<timebase>59</timebase>
							<ntsc>TRUE</ntsc>
						</rate>
						<rate>
							<timebase>59</timebase>
							<ntsc>TRUE</ntsc>
						</rate>
						<duration>60</duration>
						<start>2771</start>
						<end>2831</end>
						<in>0</in>
						<out>60</out>
					</clipitem>
					<clipitem frameBlend="FALSE" id="clipitem-telop-310">
						<file id="file-2"/>
						<name>！</name>
						<rate>
							<timebase>59</timebase>
							<ntsc>TRUE</ntsc>
						</rate>
						<rate>
							<timebase>59</timebase>
							<ntsc>TRUE</ntsc>
						</rate>
						<duration>60</duration>
						<start>2849</start>
						<end>2909</end>
						<in>0</in>
						<out>60</out>
					</clipitem>
					<clipitem frameBlend="FALSE" id="clipitem-telop-330">
						<file id="file-2"/>
						<name>！</name>
						<rate>
							<timebase>59</timebase>
							<ntsc>TRUE</ntsc>
						</rate>
						<rate>
							<timebase>59</timebase>
							<ntsc>TRUE</ntsc>
						</rate>
						<duration>60</duration>
						<start>3035</start>
						<end>3095</end>
						<in>0</in>
						<out>60</out>
					</clipitem>
					<clipitem frameBlend="FALSE" id="clipitem-telop-341">
						<file id="file-2"/>
						<name>！</name>
						<rate>
							<timebase>59</timebase>
							<ntsc>TRUE</ntsc>
						</rate>
						<rate>
							<timebase>59</timebase>
							<ntsc>TRUE</ntsc>
						</rate>
						<duration>60</duration>
						<start>3149</start>
						<end>3209</end>
						<in>0</in>
						<out>60</out>
					</clipitem>
					<clipitem frameBlend="FALSE" id="clipitem-telop-351">
						<file id="file-2"/>
						<name>！</name>
						<rate>
							<timebase>59</timebase>
							<ntsc>TRUE</ntsc>
						</rate>
						<rate>
							<timebase>59</timebase>
							<ntsc>TRUE</ntsc>
						</rate>
						<duration>60</duration>
						<start>3227</start>
						<end>3287</end>
						<in>0</in>
						<out>60</out>
					</clipitem>
					<clipitem frameBlend="FALSE" id="clipitem-telop-380">
						<file id="file-2"/>
						<name>！</name>
						<rate>
							<timebase>59</timebase>
							<ntsc>TRUE</ntsc>
						</rate>
						<rate>
							<timebase>59</timebase>
							<ntsc>TRUE</ntsc>
						</rate>
						<duration>65</duration>
						<start>3479</start>
						<end>3544</end>
						<in>0</in>
						<out>65</out>
					</clipitem>
					<clipitem frameBlend="FALSE" id="clipitem-telop-394">
						<file id="file-2"/>
						<name>！</name>
						<rate>
							<timebase>59</timebase>
							<ntsc>TRUE</ntsc>
						</rate>
						<rate>
							<timebase>59</timebase>
							<ntsc>TRUE</ntsc>
						</rate>
						<duration>60</duration>
						<start>3622</start>
						<end>3682</end>
						<in>0</in>
						<out>60</out>
					</clipitem>
					<clipitem frameBlend="FALSE" id="clipitem-telop-405">
						<file id="file-2"/>
						<name>！</name>
						<rate>
							<timebase>59</timebase>
							<ntsc>TRUE</ntsc>
						</rate>
						<rate>
							<timebase>59</timebase>
							<ntsc>TRUE</ntsc>
						</rate>
						<duration>60</duration>
						<start>3718</start>
						<end>3778</end>
						<in>0</in>
						<out>60</out>
					</clipitem>
					<clipitem frameBlend="FALSE" id="clipitem-telop-422">
						<file id="file-2"/>
						<name>！</name>
						<rate>
							<timebase>59</timebase>
							<ntsc>TRUE</ntsc>
						</rate>
						<rate>
							<timebase>59</timebase>
							<ntsc>TRUE</ntsc>
						</rate>
						<duration>60</duration>
						<start>3850</start>
						<end>3910</end>
						<in>0</in>
						<out>60</out>
					</clipitem>
					<clipitem frameBlend="FALSE" id="clipitem-telop-452">
						<file id="file-2"/>
						<name>！</name>
						<rate>
							<timebase>59</timebase>
							<ntsc>TRUE</ntsc>
						</rate>
						<rate>
							<timebase>59</timebase>
							<ntsc>TRUE</ntsc>
						</rate>
						<duration>60</duration>
						<start>4264</start>
						<end>4324</end>
						<in>0</in>
						<out>60</out>
					</clipitem>
					<clipitem frameBlend="FALSE" id="clipitem-telop-462">
						<file id="file-2"/>
						<name>！</name>
						<rate>
							<timebase>59</timebase>
							<ntsc>TRUE</ntsc>
						</rate>
						<rate>
							<timebase>59</timebase>
							<ntsc>TRUE</ntsc>
						</rate>
						<duration>60</duration>
						<start>4336</start>
						<end>4396</end>
						<in>0</in>
						<out>60</out>
					</clipitem>
					<clipitem frameBlend="FALSE" id="clipitem-telop-470">
						<file id="file-2"/>
						<name>！</name>
						<rate>
							<timebase>59</timebase>
							<ntsc>TRUE</ntsc>
						</rate>
						<rate>
							<timebase>59</timebase>
							<ntsc>TRUE</ntsc>
						</rate>
						<duration>60</duration>
						<start>4408</start>
						<end>4468</end>
						<in>0</in>
						<out>60</out>
					</clipitem>
					<clipitem frameBlend="FALSE" id="clipitem-telop-482">
						<file id="file-2"/>
						<name>！</name>
						<rate>
							<timebase>59</timebase>
							<ntsc>TRUE</ntsc>
						</rate>
						<rate>
							<timebase>59</timebase>
							<ntsc>TRUE</ntsc>
						</rate>
						<duration>60</duration>
						<start>4474</start>
						<end>4534</end>
						<in>0</in>
						<out>60</out>
					</clipitem>
					<clipitem frameBlend="FALSE" id="clipitem-telop-496">
						<file id="file-2"/>
						<name>！</name>
						<rate>
							<timebase>59</timebase>
							<ntsc>TRUE</ntsc>
						</rate>
						<rate>
							<timebase>59</timebase>
							<ntsc>TRUE</ntsc>
						</rate>
						<duration>60</duration>
						<start>4594</start>
						<end>4654</end>
						<in>0</in>
						<out>60</out>
					</clipitem>
					<clipitem frameBlend="FALSE" id="clipitem-telop-521">
						<file id="file-2"/>
						<name>！</name>
						<rate>
							<timebase>59</timebase>
							<ntsc>TRUE</ntsc>
						</rate>
						<rate>
							<timebase>59</timebase>
							<ntsc>TRUE</ntsc>
						</rate>
						<duration>60</duration>
						<start>4840</start>
						<end>4900</end>
						<in>0</in>
						<out>60</out>
					</clipitem>
					<clipitem frameBlend="FALSE" id="clipitem-telop-541">
						<file id="file-2"/>
						<name>！</name>
						<rate>
							<timebase>59</timebase>
							<ntsc>TRUE</ntsc>
						</rate>
						<rate>
							<timebase>59</timebase>
							<ntsc>TRUE</ntsc>
						</rate>
						<duration>60</duration>
						<start>5044</start>
						<end>5104</end>
						<in>0</in>
						<out>60</out>
					</clipitem>
					<clipitem frameBlend="FALSE" id="clipitem-telop-553">
						<file id="file-2"/>
						<name>！</name>
						<rate>
							<timebase>59</timebase>
							<ntsc>TRUE</ntsc>
						</rate>
						<rate>
							<timebase>59</timebase>
							<ntsc>TRUE</ntsc>
						</rate>
						<duration>60</duration>
						<start>5134</start>
						<end>5194</end>
						<in>0</in>
						<out>60</out>
					</clipitem>
					<clipitem frameBlend="FALSE" id="clipitem-telop-569">
						<file id="file-2"/>
						<name>！</name>
						<rate>
							<timebase>59</timebase>
							<ntsc>TRUE</ntsc>
						</rate>
						<rate>
							<timebase>59</timebase>
							<ntsc>TRUE</ntsc>
						</rate>
						<duration>60</duration>
						<start>5296</start>
						<end>5356</end>
						<in>0</in>
						<out>60</out>
					</clipitem>
					<clipitem frameBlend="FALSE" id="clipitem-telop-589">
						<file id="file-2"/>
						<name>w</name>
						<rate>
							<timebase>59</timebase>
							<ntsc>TRUE</ntsc>
						</rate>
						<rate>
							<timebase>59</timebase>
							<ntsc>TRUE</ntsc>
						</rate>
						<duration>24</duration>
						<start>5542</start>
						<end>5566</end>
						<in>0</in>
						<out>24</out>
					</clipitem>
					<clipitem frameBlend="FALSE" id="clipitem-telop-601">
						<file id="file-2"/>
						<name>！</name>
						<rate>
							<timebase>59</timebase>
							<ntsc>TRUE</ntsc>
						</rate>
						<rate>
							<timebase>59</timebase>
							<ntsc>TRUE</ntsc>
						</rate>
						<duration>60</duration>
						<start>5602</start>
						<end>5662</end>
						<in>0</in>
						<out>60</out>
					</clipitem>
					<clipitem frameBlend="FALSE" id="clipitem-telop-621">
						<file id="file-2"/>
						<name>！</name>
						<rate>
							<timebase>59</timebase>
							<ntsc>TRUE</ntsc>
						</rate>
						<rate>
							<timebase>59</timebase>
							<ntsc>TRUE</ntsc>
						</rate>
						<duration>60</duration>
						<start>5788</start>
						<end>5848</end>
						<in>0</in>
						<out>60</out>
					</clipitem>
					<clipitem frameBlend="FALSE" id="clipitem-telop-640">
						<file id="file-2"/>
						<name>！</name>
						<rate>
							<timebase>59</timebase>
							<ntsc>TRUE</ntsc>
						</rate>
						<rate>
							<timebase>59</timebase>
							<ntsc>TRUE</ntsc>
						</rate>
						<duration>66</duration>
						<start>5944</start>
						<end>6010</end>
						<in>0</in>
						<out>66</out>
					</clipitem>
					<clipitem frameBlend="FALSE" id="clipitem-telop-649">
						<file id="file-2"/>
						<name>！</name>
						<rate>
							<timebase>59</timebase>
							<ntsc>TRUE</ntsc>
						</rate>
						<rate>
							<timebase>59</timebase>
							<ntsc>TRUE</ntsc>
						</rate>
						<duration>66</duration>
						<start>6016</start>
						<end>6082</end>
						<in>0</in>
						<out>66</out>
					</clipitem>
					<clipitem frameBlend="FALSE" id="clipitem-telop-660">
						<file id="file-2"/>
						<name>！</name>
						<rate>
							<timebase>59</timebase>
							<ntsc>TRUE</ntsc>
						</rate>
						<rate>
							<timebase>59</timebase>
							<ntsc>TRUE</ntsc>
						</rate>
						<duration>66</duration>
						<start>6112</start>
						<end>6178</end>
						<in>0</in>
						<out>66</out>
					</clipitem>
					<clipitem frameBlend="FALSE" id="clipitem-telop-675">
						<file id="file-2"/>
						<name>！</name>
						<rate>
							<timebase>59</timebase>
							<ntsc>TRUE</ntsc>
						</rate>
						<rate>
							<timebase>59</timebase>
							<ntsc>TRUE</ntsc>
						</rate>
						<duration>60</duration>
						<start>6232</start>
						<end>6292</end>
						<in>0</in>
						<out>60</out>
					</clipitem>
					<clipitem frameBlend="FALSE" id="clipitem-telop-686">
						<file id="file-2"/>
						<name>！</name>
						<rate>
							<timebase>59</timebase>
							<ntsc>TRUE</ntsc>
						</rate>
						<rate>
							<timebase>59</timebase>
							<ntsc>TRUE</ntsc>
						</rate>
						<duration>60</duration>
						<start>6298</start>
						<end>6358</end>
						<in>0</in>
						<out>60</out>
					</clipitem>
					<clipitem frameBlend="FALSE" id="clipitem-telop-697">
						<file id="file-2"/>
						<name>！</name>
						<rate>
							<timebase>59</timebase>
							<ntsc>TRUE</ntsc>
						</rate>
						<rate>
							<timebase>59</timebase>
							<ntsc>TRUE</ntsc>
						</rate>
						<duration>66</duration>
						<start>6370</start>
						<end>6436</end>
						<in>0</in>
						<out>66</out>
					</clipitem>
					<clipitem frameBlend="FALSE" id="clipitem-telop-717">
						<file id="file-2"/>
						<name>！</name>
						<rate>
							<timebase>59</timebase>
							<ntsc>TRUE</ntsc>
						</rate>
						<rate>
							<timebase>59</timebase>
							<ntsc>TRUE</ntsc>
						</rate>
						<duration>66</duration>
						<start>6580</start>
						<end>6646</end>
						<in>0</in>
						<out>66</out>
					</clipitem>
					<clipitem frameBlend="FALSE" id="clipitem-telop-745">
						<file id="file-2"/>
						<name>！</name>
						<rate>
							<timebase>59</timebase>
							<ntsc>TRUE</ntsc>
						</rate>
						<rate>
							<timebase>59</timebase>
							<ntsc>TRUE</ntsc>
						</rate>
						<duration>66</duration>
						<start>6922</start>
						<end>6988</end>
						<in>0</in>
						<out>66</out>
					</clipitem>
				</track>
				<track>
					<clipitem frameBlend="FALSE" id="clipitem-telop-51">
						<file id="file-2"/>
						<name>！</name>
						<rate>
							<timebase>59</timebase>
							<ntsc>TRUE</ntsc>
						</rate>
						<rate>
							<timebase>59</timebase>
							<ntsc>TRUE</ntsc>
						</rate>
						<duration>60</duration>
						<start>515</start>
						<end>575</end>
						<in>0</in>
						<out>60</out>
					</clipitem>
					<clipitem frameBlend="FALSE" id="clipitem-telop-62">
						<file id="file-2"/>
						<name>！</name>
						<rate>
							<timebase>59</timebase>
							<ntsc>TRUE</ntsc>
						</rate>
						<rate>
							<timebase>59</timebase>
							<ntsc>TRUE</ntsc>
						</rate>
						<duration>66</duration>
						<start>593</start>
						<end>659</end>
						<in>0</in>
						<out>66</out>
					</clipitem>
					<clipitem frameBlend="FALSE" id="clipitem-telop-74">
						<file id="file-2"/>
						<name>！</name>
						<rate>
							<timebase>59</timebase>
							<ntsc>TRUE</ntsc>
						</rate>
						<rate>
							<timebase>59</timebase>
							<ntsc>TRUE</ntsc>
						</rate>
						<duration>66</duration>
						<start>677</start>
						<end>743</end>
						<in>0</in>
						<out>66</out>
					</clipitem>
					<clipitem frameBlend="FALSE" id="clipitem-telop-88">
						<file id="file-2"/>
						<name>！</name>
						<rate>
							<timebase>59</timebase>
							<ntsc>TRUE</ntsc>
						</rate>
						<rate>
							<timebase>59</timebase>
							<ntsc>TRUE</ntsc>
						</rate>
						<duration>60</duration>
						<start>797</start>
						<end>857</end>
						<in>0</in>
						<out>60</out>
					</clipitem>
					<clipitem frameBlend="FALSE" id="clipitem-telop-101">
						<file id="file-2"/>
						<name>！</name>
						<rate>
							<timebase>59</timebase>
							<ntsc>TRUE</ntsc>
						</rate>
						<rate>
							<timebase>59</timebase>
							<ntsc>TRUE</ntsc>
						</rate>
						<duration>60</duration>
						<start>875</start>
						<end>935</end>
						<in>0</in>
						<out>60</out>
					</clipitem>
					<clipitem frameBlend="FALSE" id="clipitem-telop-111">
						<file id="file-2"/>
						<name>！</name>
						<rate>
							<timebase>59</timebase>
							<ntsc>TRUE</ntsc>
						</rate>
						<rate>
							<timebase>59</timebase>
							<ntsc>TRUE</ntsc>
						</rate>
						<duration>60</duration>
						<start>941</start>
						<end>1001</end>
						<in>0</in>
						<out>60</out>
					</clipitem>
					<clipitem frameBlend="FALSE" id="clipitem-telop-133">
						<file id="file-2"/>
						<name>！</name>
						<rate>
							<timebase>59</timebase>
							<ntsc>TRUE</ntsc>
						</rate>
						<rate>
							<timebase>59</timebase>
							<ntsc>TRUE</ntsc>
						</rate>
						<duration>60</duration>
						<start>1073</start>
						<end>1133</end>
						<in>0</in>
						<out>60</out>
					</clipitem>
					<clipitem frameBlend="FALSE" id="clipitem-telop-166">
						<file id="file-2"/>
						<name>！</name>
						<rate>
							<timebase>59</timebase>
							<ntsc>TRUE</ntsc>
						</rate>
						<rate>
							<timebase>59</timebase>
							<ntsc>TRUE</ntsc>
						</rate>
						<duration>66</duration>
						<start>1385</start>
						<end>1451</end>
						<in>0</in>
						<out>66</out>
					</clipitem>
					<clipitem frameBlend="FALSE" id="clipitem-telop-195">
						<file id="file-2"/>
						<name>！</name>
						<rate>
							<timebase>59</timebase>
							<ntsc>TRUE</ntsc>
						</rate>
						<rate>
							<timebase>59</timebase>
							<ntsc>TRUE</ntsc>
						</rate>
						<duration>60</duration>
						<start>1649</start>
						<end>1709</end>
						<in>0</in>
						<out>60</out>
					</clipitem>
					<clipitem frameBlend="FALSE" id="clipitem-telop-210">
						<file id="file-2"/>
						<name>！</name>
						<rate>
							<timebase>59</timebase>
							<ntsc>TRUE</ntsc>
						</rate>
						<rate>
							<timebase>59</timebase>
							<ntsc>TRUE</ntsc>
						</rate>
						<duration>60</duration>
						<start>1781</start>
						<end>1841</end>
						<in>0</in>
						<out>60</out>
					</clipitem>
					<clipitem frameBlend="FALSE" id="clipitem-telop-229">
						<file id="file-2"/>
						<name>！</name>
						<rate>
							<timebase>59</timebase>
							<ntsc>TRUE</ntsc>
						</rate>
						<rate>
							<timebase>59</timebase>
							<ntsc>TRUE</ntsc>
						</rate>
						<duration>60</duration>
						<start>1931</start>
						<end>1991</end>
						<in>0</in>
						<out>60</out>
					</clipitem>
					<clipitem frameBlend="FALSE" id="clipitem-telop-302">
						<file id="file-2"/>
						<name>！</name>
						<rate>
							<timebase>59</timebase>
							<ntsc>TRUE</ntsc>
						</rate>
						<rate>
							<timebase>59</timebase>
							<ntsc>TRUE</ntsc>
						</rate>
						<duration>60</duration>
						<start>2783</start>
						<end>2843</end>
						<in>0</in>
						<out>60</out>
					</clipitem>
					<clipitem frameBlend="FALSE" id="clipitem-telop-331">
						<file id="file-2"/>
						<name>！</name>
						<rate>
							<timebase>59</timebase>
							<ntsc>TRUE</ntsc>
						</rate>
						<rate>
							<timebase>59</timebase>
							<ntsc>TRUE</ntsc>
						</rate>
						<duration>60</duration>
						<start>3041</start>
						<end>3101</end>
						<in>0</in>
						<out>60</out>
					</clipitem>
					<clipitem frameBlend="FALSE" id="clipitem-telop-342">
						<file id="file-2"/>
						<name>！</name>
						<rate>
							<timebase>59</timebase>
							<ntsc>TRUE</ntsc>
						</rate>
						<rate>
							<timebase>59</timebase>
							<ntsc>TRUE</ntsc>
						</rate>
						<duration>66</duration>
						<start>3149</start>
						<end>3215</end>
						<in>0</in>
						<out>66</out>
					</clipitem>
					<clipitem frameBlend="FALSE" id="clipitem-telop-352">
						<file id="file-2"/>
						<name>！</name>
						<rate>
							<timebase>59</timebase>
							<ntsc>TRUE</ntsc>
						</rate>
						<rate>
							<timebase>59</timebase>
							<ntsc>TRUE</ntsc>
						</rate>
						<duration>60</duration>
						<start>3233</start>
						<end>3293</end>
						<in>0</in>
						<out>60</out>
					</clipitem>
					<clipitem frameBlend="FALSE" id="clipitem-telop-397">
						<file id="file-2"/>
						<name>！</name>
						<rate>
							<timebase>59</timebase>
							<ntsc>TRUE</ntsc>
						</rate>
						<rate>
							<timebase>59</timebase>
							<ntsc>TRUE</ntsc>
						</rate>
						<duration>66</duration>
						<start>3652</start>
						<end>3718</end>
						<in>0</in>
						<out>66</out>
					</clipitem>
					<clipitem frameBlend="FALSE" id="clipitem-telop-406">
						<file id="file-2"/>
						<name>！</name>
						<rate>
							<timebase>59</timebase>
							<ntsc>TRUE</ntsc>
						</rate>
						<rate>
							<timebase>59</timebase>
							<ntsc>TRUE</ntsc>
						</rate>
						<duration>60</duration>
						<start>3730</start>
						<end>3790</end>
						<in>0</in>
						<out>60</out>
					</clipitem>
					<clipitem frameBlend="FALSE" id="clipitem-telop-472">
						<file id="file-2"/>
						<name>！</name>
						<rate>
							<timebase>59</timebase>
							<ntsc>TRUE</ntsc>
						</rate>
						<rate>
							<timebase>59</timebase>
							<ntsc>TRUE</ntsc>
						</rate>
						<duration>66</duration>
						<start>4420</start>
						<end>4486</end>
						<in>0</in>
						<out>66</out>
					</clipitem>
					<clipitem frameBlend="FALSE" id="clipitem-telop-522">
						<file id="file-2"/>
						<name>！</name>
						<rate>
							<timebase>59</timebase>
							<ntsc>TRUE</ntsc>
						</rate>
						<rate>
							<timebase>59</timebase>
							<ntsc>TRUE</ntsc>
						</rate>
						<duration>60</duration>
						<start>4846</start>
						<end>4906</end>
						<in>0</in>
						<out>60</out>
					</clipitem>
					<clipitem frameBlend="FALSE" id="clipitem-telop-542">
						<file id="file-2"/>
						<name>！</name>
						<rate>
							<timebase>59</timebase>
							<ntsc>TRUE</ntsc>
						</rate>
						<rate>
							<timebase>59</timebase>
							<ntsc>TRUE</ntsc>
						</rate>
						<duration>60</duration>
						<start>5044</start>
						<end>5104</end>
						<in>0</in>
						<out>60</out>
					</clipitem>
					<clipitem frameBlend="FALSE" id="clipitem-telop-554">
						<file id="file-2"/>
						<name>！</name>
						<rate>
							<timebase>59</timebase>
							<ntsc>TRUE</ntsc>
						</rate>
						<rate>
							<timebase>59</timebase>
							<ntsc>TRUE</ntsc>
						</rate>
						<duration>66</duration>
						<start>5140</start>
						<end>5206</end>
						<in>0</in>
						<out>66</out>
					</clipitem>
					<clipitem frameBlend="FALSE" id="clipitem-telop-570">
						<file id="file-2"/>
						<name>！</name>
						<rate>
							<timebase>59</timebase>
							<ntsc>TRUE</ntsc>
						</rate>
						<rate>
							<timebase>59</timebase>
							<ntsc>TRUE</ntsc>
						</rate>
						<duration>66</duration>
						<start>5296</start>
						<end>5362</end>
						<in>0</in>
						<out>66</out>
					</clipitem>
					<clipitem frameBlend="FALSE" id="clipitem-telop-590">
						<file id="file-2"/>
						<name>！</name>
						<rate>
							<timebase>59</timebase>
							<ntsc>TRUE</ntsc>
						</rate>
						<rate>
							<timebase>59</timebase>
							<ntsc>TRUE</ntsc>
						</rate>
						<duration>60</duration>
						<start>5542</start>
						<end>5602</end>
						<in>0</in>
						<out>60</out>
					</clipitem>
					<clipitem frameBlend="FALSE" id="clipitem-telop-603">
						<file id="file-2"/>
						<name>！</name>
						<rate>
							<timebase>59</timebase>
							<ntsc>TRUE</ntsc>
						</rate>
						<rate>
							<timebase>59</timebase>
							<ntsc>TRUE</ntsc>
						</rate>
						<duration>66</duration>
						<start>5620</start>
						<end>5686</end>
						<in>0</in>
						<out>66</out>
					</clipitem>
					<clipitem frameBlend="FALSE" id="clipitem-telop-622">
						<file id="file-2"/>
						<name>！</name>
						<rate>
							<timebase>59</timebase>
							<ntsc>TRUE</ntsc>
						</rate>
						<rate>
							<timebase>59</timebase>
							<ntsc>TRUE</ntsc>
						</rate>
						<duration>60</duration>
						<start>5794</start>
						<end>5854</end>
						<in>0</in>
						<out>60</out>
					</clipitem>
					<clipitem frameBlend="FALSE" id="clipitem-telop-651">
						<file id="file-2"/>
						<name>！</name>
						<rate>
							<timebase>59</timebase>
							<ntsc>TRUE</ntsc>
						</rate>
						<rate>
							<timebase>59</timebase>
							<ntsc>TRUE</ntsc>
						</rate>
						<duration>60</duration>
						<start>6034</start>
						<end>6094</end>
						<in>0</in>
						<out>60</out>
					</clipitem>
					<clipitem frameBlend="FALSE" id="clipitem-telop-663">
						<file id="file-2"/>
						<name>！</name>
						<rate>
							<timebase>59</timebase>
							<ntsc>TRUE</ntsc>
						</rate>
						<rate>
							<timebase>59</timebase>
							<ntsc>TRUE</ntsc>
						</rate>
						<duration>60</duration>
						<start>6130</start>
						<end>6190</end>
						<in>0</in>
						<out>60</out>
					</clipitem>
					<clipitem frameBlend="FALSE" id="clipitem-telop-677">
						<file id="file-2"/>
						<name>！</name>
						<rate>
							<timebase>59</timebase>
							<ntsc>TRUE</ntsc>
						</rate>
						<rate>
							<timebase>59</timebase>
							<ntsc>TRUE</ntsc>
						</rate>
						<duration>66</duration>
						<start>6238</start>
						<end>6304</end>
						<in>0</in>
						<out>66</out>
					</clipitem>
					<clipitem frameBlend="FALSE" id="clipitem-telop-689">
						<file id="file-2"/>
						<name>！</name>
						<rate>
							<timebase>59</timebase>
							<ntsc>TRUE</ntsc>
						</rate>
						<rate>
							<timebase>59</timebase>
							<ntsc>TRUE</ntsc>
						</rate>
						<duration>60</duration>
						<start>6322</start>
						<end>6382</end>
						<in>0</in>
						<out>60</out>
					</clipitem>
					<clipitem frameBlend="FALSE" id="clipitem-telop-698">
						<file id="file-2"/>
						<name>！</name>
						<rate>
							<timebase>59</timebase>
							<ntsc>TRUE</ntsc>
						</rate>
						<rate>
							<timebase>59</timebase>
							<ntsc>TRUE</ntsc>
						</rate>
						<duration>60</duration>
						<start>6388</start>
						<end>6448</end>
						<in>0</in>
						<out>60</out>
					</clipitem>
					<clipitem frameBlend="FALSE" id="clipitem-telop-746">
						<file id="file-2"/>
						<name>！</name>
						<rate>
							<timebase>59</timebase>
							<ntsc>TRUE</ntsc>
						</rate>
						<rate>
							<timebase>59</timebase>
							<ntsc>TRUE</ntsc>
						</rate>
						<duration>60</duration>
						<start>6928</start>
						<end>6988</end>
						<in>0</in>
						<out>60</out>
					</clipitem>
				</track>
				<track>
					<clipitem frameBlend="FALSE" id="clipitem-telop-95">
						<file id="file-2"/>
						<name>！</name>
						<rate>
							<timebase>59</timebase>
							<ntsc>TRUE</ntsc>
						</rate>
						<rate>
							<timebase>59</timebase>
							<ntsc>TRUE</ntsc>
						</rate>
						<duration>60</duration>
						<start>845</start>
						<end>905</end>
						<in>0</in>
						<out>60</out>
					</clipitem>
					<clipitem frameBlend="FALSE" id="clipitem-telop-114">
						<file id="file-2"/>
						<name>！</name>
						<rate>
							<timebase>59</timebase>
							<ntsc>TRUE</ntsc>
						</rate>
						<rate>
							<timebase>59</timebase>
							<ntsc>TRUE</ntsc>
						</rate>
						<duration>60</duration>
						<start>959</start>
						<end>1019</end>
						<in>0</in>
						<out>60</out>
					</clipitem>
					<clipitem frameBlend="FALSE" id="clipitem-telop-134">
						<file id="file-2"/>
						<name>！</name>
						<rate>
							<timebase>59</timebase>
							<ntsc>TRUE</ntsc>
						</rate>
						<rate>
							<timebase>59</timebase>
							<ntsc>TRUE</ntsc>
						</rate>
						<duration>60</duration>
						<start>1073</start>
						<end>1133</end>
						<in>0</in>
						<out>60</out>
					</clipitem>
					<clipitem frameBlend="FALSE" id="clipitem-telop-216">
						<file id="file-2"/>
						<name>！</name>
						<rate>
							<timebase>59</timebase>
							<ntsc>TRUE</ntsc>
						</rate>
						<rate>
							<timebase>59</timebase>
							<ntsc>TRUE</ntsc>
						</rate>
						<duration>66</duration>
						<start>1817</start>
						<end>1883</end>
						<in>0</in>
						<out>66</out>
					</clipitem>
					<clipitem frameBlend="FALSE" id="clipitem-telop-353">
						<file id="file-2"/>
						<name>！</name>
						<rate>
							<timebase>59</timebase>
							<ntsc>TRUE</ntsc>
						</rate>
						<rate>
							<timebase>59</timebase>
							<ntsc>TRUE</ntsc>
						</rate>
						<duration>66</duration>
						<start>3233</start>
						<end>3299</end>
						<in>0</in>
						<out>66</out>
					</clipitem>
					<clipitem frameBlend="FALSE" id="clipitem-telop-409">
						<file id="file-2"/>
						<name>！</name>
						<rate>
							<timebase>59</timebase>
							<ntsc>TRUE</ntsc>
						</rate>
						<rate>
							<timebase>59</timebase>
							<ntsc>TRUE</ntsc>
						</rate>
						<duration>66</duration>
						<start>3742</start>
						<end>3808</end>
						<in>0</in>
						<out>66</out>
					</clipitem>
					<clipitem frameBlend="FALSE" id="clipitem-telop-477">
						<file id="file-2"/>
						<name>！</name>
						<rate>
							<timebase>59</timebase>
							<ntsc>TRUE</ntsc>
						</rate>
						<rate>
							<timebase>59</timebase>
							<ntsc>TRUE</ntsc>
						</rate>
						<duration>66</duration>
						<start>4450</start>
						<end>4516</end>
						<in>0</in>
						<out>66</out>
					</clipitem>
					<clipitem frameBlend="FALSE" id="clipitem-telop-523">
						<file id="file-2"/>
						<name>！</name>
						<rate>
							<timebase>59</timebase>
							<ntsc>TRUE</ntsc>
						</rate>
						<rate>
							<timebase>59</timebase>
							<ntsc>TRUE</ntsc>
						</rate>
						<duration>66</duration>
						<start>4846</start>
						<end>4912</end>
						<in>0</in>
						<out>66</out>
					</clipitem>
					<clipitem frameBlend="FALSE" id="clipitem-telop-591">
						<file id="file-2"/>
						<name>！</name>
						<rate>
							<timebase>59</timebase>
							<ntsc>TRUE</ntsc>
						</rate>
						<rate>
							<timebase>59</timebase>
							<ntsc>TRUE</ntsc>
						</rate>
						<duration>60</duration>
						<start>5554</start>
						<end>5614</end>
						<in>0</in>
						<out>60</out>
					</clipitem>
					<clipitem frameBlend="FALSE" id="clipitem-telop-625">
						<file id="file-2"/>
						<name>！</name>
						<rate>
							<timebase>59</timebase>
							<ntsc>TRUE</ntsc>
						</rate>
						<rate>
							<timebase>59</timebase>
							<ntsc>TRUE</ntsc>
						</rate>
						<duration>66</duration>
						<start>5806</start>
						<end>5872</end>
						<in>0</in>
						<out>66</out>
					</clipitem>
					<clipitem frameBlend="FALSE" id="clipitem-telop-687">
						<file id="file-2"/>
						<name>！</name>
						<rate>
							<timebase>59</timebase>
							<ntsc>TRUE</ntsc>
						</rate>
						<rate>
							<timebase>59</timebase>
							<ntsc>TRUE</ntsc>
						</rate>
						<duration>60</duration>
						<start>6298</start>
						<end>6358</end>
						<in>0</in>
						<out>60</out>
					</clipitem>
				</track>
				<track>
					<clipitem frameBlend="FALSE" id="clipitem-telop-96">
						<file id="file-2"/>
						<name>！</name>
						<rate>
							<timebase>59</timebase>
							<ntsc>TRUE</ntsc>
						</rate>
						<rate>
							<timebase>59</timebase>
							<ntsc>TRUE</ntsc>
						</rate>
						<duration>66</duration>
						<start>845</start>
						<end>911</end>
						<in>0</in>
						<out>66</out>
					</clipitem>
					<clipitem frameBlend="FALSE" id="clipitem-telop-118">
						<file id="file-2"/>
						<name>！</name>
						<rate>
							<timebase>59</timebase>
							<ntsc>TRUE</ntsc>
						</rate>
						<rate>
							<timebase>59</timebase>
							<ntsc>TRUE</ntsc>
						</rate>
						<duration>66</duration>
						<start>977</start>
						<end>1043</end>
						<in>0</in>
						<out>66</out>
					</clipitem>
					<clipitem frameBlend="FALSE" id="clipitem-telop-217">
						<file id="file-2"/>
						<name>！</name>
						<rate>
							<timebase>59</timebase>
							<ntsc>TRUE</ntsc>
						</rate>
						<rate>
							<timebase>59</timebase>
							<ntsc>TRUE</ntsc>
						</rate>
						<duration>66</duration>
						<start>1823</start>
						<end>1889</end>
						<in>0</in>
						<out>66</out>
					</clipitem>
					<clipitem frameBlend="FALSE" id="clipitem-telop-410">
						<file id="file-2"/>
						<name>！</name>
						<rate>
							<timebase>59</timebase>
							<ntsc>TRUE</ntsc>
						</rate>
						<rate>
							<timebase>59</timebase>
							<ntsc>TRUE</ntsc>
						</rate>
						<duration>66</duration>
						<start>3748</start>
						<end>3814</end>
						<in>0</in>
						<out>66</out>
					</clipitem>
					<clipitem frameBlend="FALSE" id="clipitem-telop-479">
						<file id="file-2"/>
						<name>！</name>
						<rate>
							<timebase>59</timebase>
							<ntsc>TRUE</ntsc>
						</rate>
						<rate>
							<timebase>59</timebase>
							<ntsc>TRUE</ntsc>
						</rate>
						<duration>60</duration>
						<start>4456</start>
						<end>4516</end>
						<in>0</in>
						<out>60</out>
					</clipitem>
					<clipitem frameBlend="FALSE" id="clipitem-telop-592">
						<file id="file-2"/>
						<name>w</name>
						<rate>
							<timebase>59</timebase>
							<ntsc>TRUE</ntsc>
						</rate>
						<rate>
							<timebase>59</timebase>
							<ntsc>TRUE</ntsc>
						</rate>
						<duration>30</duration>
						<start>5554</start>
						<end>5584</end>
						<in>0</in>
						<out>30</out>
					</clipitem>
					<clipitem frameBlend="FALSE" id="clipitem-telop-626">
						<file id="file-2"/>
						<name>！</name>
						<rate>
							<timebase>59</timebase>
							<ntsc>TRUE</ntsc>
						</rate>
						<rate>
							<timebase>59</timebase>
							<ntsc>TRUE</ntsc>
						</rate>
						<duration>60</duration>
						<start>5812</start>
						<end>5872</end>
						<in>0</in>
						<out>60</out>
					</clipitem>
				</track>
				<track>
					<clipitem frameBlend="FALSE" id="clipitem-telop-120">
						<file id="file-2"/>
						<name>！</name>
						<rate>
							<timebase>59</timebase>
							<ntsc>TRUE</ntsc>
						</rate>
						<rate>
							<timebase>59</timebase>
							<ntsc>TRUE</ntsc>
						</rate>
						<duration>66</duration>
						<start>983</start>
						<end>1049</end>
						<in>0</in>
						<out>66</out>
					</clipitem>
					<clipitem frameBlend="FALSE" id="clipitem-telop-220">
						<file id="file-2"/>
						<name>！</name>
						<rate>
							<timebase>59</timebase>
							<ntsc>TRUE</ntsc>
						</rate>
						<rate>
							<timebase>59</timebase>
							<ntsc>TRUE</ntsc>
						</rate>
						<duration>66</duration>
						<start>1835</start>
						<end>1901</end>
						<in>0</in>
						<out>66</out>
					</clipitem>
					<clipitem frameBlend="FALSE" id="clipitem-telop-480">
						<file id="file-2"/>
						<name>！</name>
						<rate>
							<timebase>59</timebase>
							<ntsc>TRUE</ntsc>
						</rate>
						<rate>
							<timebase>59</timebase>
							<ntsc>TRUE</ntsc>
						</rate>
						<duration>66</duration>
						<start>4456</start>
						<end>4522</end>
						<in>0</in>
						<out>66</out>
					</clipitem>
					<clipitem frameBlend="FALSE" id="clipitem-telop-627">
						<file id="file-2"/>
						<name>！</name>
						<rate>
							<timebase>59</timebase>
							<ntsc>TRUE</ntsc>
						</rate>
						<rate>
							<timebase>59</timebase>
							<ntsc>TRUE</ntsc>
						</rate>
						<duration>60</duration>
						<start>5818</start>
						<end>5878</end>
						<in>0</in>
						<out>60</out>
					</clipitem>
				</track>
				<track>
					<clipitem frameBlend="FALSE" id="clipitem-telop-121">
						<file id="file-2"/>
						<name>！</name>
						<rate>
							<timebase>59</timebase>
							<ntsc>TRUE</ntsc>
						</rate>
						<rate>
							<timebase>59</timebase>
							<ntsc>TRUE</ntsc>
						</rate>
						<duration>60</duration>
						<start>989</start>
						<end>1049</end>
						<in>0</in>
						<out>60</out>
					</clipitem>
					<clipitem frameBlend="FALSE" id="clipitem-telop-628">
						<file id="file-2"/>
						<name>！</name>
						<rate>
							<timebase>59</timebase>
							<ntsc>TRUE</ntsc>
						</rate>
						<rate>
							<timebase>59</timebase>
							<ntsc>TRUE</ntsc>
						</rate>
						<duration>60</duration>
						<start>5818</start>
						<end>5878</end>
						<in>0</in>
						<out>60</out>
					</clipitem>
				</track>
				<track>
					<clipitem frameBlend="FALSE" id="clipitem-telop-122">
						<file id="file-2"/>
						<name>！</name>
						<rate>
							<timebase>59</timebase>
							<ntsc>TRUE</ntsc>
						</rate>
						<rate>
							<timebase>59</timebase>
							<ntsc>TRUE</ntsc>
						</rate>
						<duration>66</duration>
						<start>989</start>
						<end>1055</end>
						<in>0</in>
						<out>66</out>
					</clipitem>
				</track>
			</video>
			<audio>
				<track>
					<clipitem frameBlend="FALSE" id="audioclip-1">
						<file id="file-1"/>
						<name>bandicam 2025-06-02 00-01-10-144 - Audio</name>
						<rate>
							<timebase>59</timebase>
							<ntsc>TRUE</ntsc>
						</rate>
						<rate>
							<timebase>59</timebase>
							<ntsc>TRUE</ntsc>
						</rate>
						<duration>809</duration>
						<start>0</start>
						<end>809</end>
						<in>0</in>
						<out>809</out>
					</clipitem>
					<clipitem frameBlend="FALSE" id="audioclip-2">
						<file id="file-1"/>
						<name>bandicam 2025-06-02 00-01-10-144 - Audio</name>
						<rate>
							<timebase>59</timebase>
							<ntsc>TRUE</ntsc>
						</rate>
						<rate>
							<timebase>59</timebase>
							<ntsc>TRUE</ntsc>
						</rate>
						<duration>18</duration>
						<start>809</start>
						<end>827</end>
						<in>905</in>
						<out>923</out>
					</clipitem>
					<clipitem frameBlend="FALSE" id="audioclip-3">
						<file id="file-1"/>
						<name>bandicam 2025-06-02 00-01-10-144 - Audio</name>
						<rate>
							<timebase>59</timebase>
							<ntsc>TRUE</ntsc>
						</rate>
						<rate>
							<timebase>59</timebase>
							<ntsc>TRUE</ntsc>
						</rate>
						<duration>6083</duration>
						<start>827</start>
						<end>6910</end>
						<in>983</in>
						<out>7066</out>
					</clipitem>
				</track>
			</audio>
		</media>
	</sequence>
</xmeml>