<?xml version="1.0" ?>
<xmeml version="4">
    <project>
        <name>bandicam 2025-06-02 00-01-10-144</name>
        <children>
            <sequence id="sequence-1">
                <name>bandicam 2025-06-02 00-01-10-144</name>
                <duration>14276</duration>
                <rate>
                    <timebase>60</timebase>
                    <ntsc>TRUE</ntsc>
                </rate>
                <media>
                    <video>
                        <format/>
                        				<track TL.SQTrackShy="0" TL.SQTrackExpandedHeight="25" TL.SQTrackExpanded="0" MZ.TrackTargeted="0">
					<clipitem frameBlend="FALSE" id="clipitem-1">
					                                <file id="file-1">
					                                    <pathurl>file://localhost/D%3A/%E5%88%87%E3%82%8A%E6%8A%9C%E3%81%8D/2025-6/2025-6-02/bandicam%202025-06-02%2000-01-10-144.mp4</pathurl>
					                                    <name>bandicam%202025-06-02%2000-01-10-144.mp4</name>
					                                    <rate>
					                                        <timebase>60</timebase>
					                                        <ntsc>TRUE</ntsc>
					                                    </rate>
					                                    <duration>7071</duration>
					                                    <timecode>
					                                        <rate>
					                                            <timebase>60</timebase>
					                                            <ntsc>TRUE</ntsc>
					                                        </rate>
					                                        <string>00:00:00:00</string>
					                                        <frame>0</frame>
					                                        <displayformat>NDF</displayformat>
					                                    </timecode>
					                                    <media>
					                                        <video/>
					                                        <audio/>
					                                    </media>
					                                </file>
					                                <name>bandicam 2025-06-02 00-01-10-144</name>
					                                <rate>
					                                    <timebase>60</timebase>
					                                    <ntsc>TRUE</ntsc>
					                                </rate>
					                                <rate>
					                                    <timebase>60</timebase>
					                                    <ntsc>TRUE</ntsc>
					                                </rate>
					                                <duration>809</duration>
					                                <start>0</start>
					                                <end>809</end>
					                                <in>0</in>
					                                <out>809</out>
					                            </clipitem>
					<clipitem frameBlend="FALSE" id="clipitem-2">
					                                <file id="file-1"/>
					                                <name>bandicam 2025-06-02 00-01-10-144</name>
					                                <rate>
					                                    <timebase>60</timebase>
					                                    <ntsc>TRUE</ntsc>
					                                </rate>
					                                <rate>
					                                    <timebase>60</timebase>
					                                    <ntsc>TRUE</ntsc>
					                                </rate>
					                                <duration>18</duration>
					                                <start>809</start>
					                                <end>827</end>
					                                <in>905</in>
					                                <out>923</out>
					                            </clipitem>
					<clipitem frameBlend="FALSE" id="clipitem-3">
					                                <file id="file-1"/>
					                                <name>bandicam 2025-06-02 00-01-10-144</name>
					                                <rate>
					                                    <timebase>60</timebase>
					                                    <ntsc>TRUE</ntsc>
					                                </rate>
					                                <rate>
					                                    <timebase>60</timebase>
					                                    <ntsc>TRUE</ntsc>
					                                </rate>
					                                <duration>6083</duration>
					                                <start>827</start>
					                                <end>6910</end>
					                                <in>983</in>
					                                <out>7066</out>
					                            </clipitem>
					<clipitem frameBlend="FALSE" id="clipitem-4">
					                                <file id="file-1"/>
					                                <name>bandicam 2025-06-02 00-01-10-144</name>
					                                <rate>
					                                    <timebase>60</timebase>
					                                    <ntsc>TRUE</ntsc>
					                                </rate>
					                                <rate>
					                                    <timebase>60</timebase>
					                                    <ntsc>TRUE</ntsc>
					                                </rate>
					                                <duration>36</duration>
					                                <start>6910</start>
					                                <end>6946</end>
					                                <in>1031</in>
					                                <out>1067</out>
					                            </clipitem>
					<clipitem frameBlend="FALSE" id="clipitem-5">
					                                <file id="file-1"/>
					                                <name>bandicam 2025-06-02 00-01-10-144</name>
					                                <rate>
					                                    <timebase>60</timebase>
					                                    <ntsc>TRUE</ntsc>
					                                </rate>
					                                <rate>
					                                    <timebase>60</timebase>
					                                    <ntsc>TRUE</ntsc>
					                                </rate>
					                                <duration>6</duration>
					                                <start>6946</start>
					                                <end>6952</end>
					                                <in>1085</in>
					                                <out>1091</out>
					                            </clipitem>
					<clipitem frameBlend="FALSE" id="clipitem-6">
					                                <file id="file-1"/>
					                                <name>bandicam 2025-06-02 00-01-10-144</name>
					                                <rate>
					                                    <timebase>60</timebase>
					                                    <ntsc>TRUE</ntsc>
					                                </rate>
					                                <rate>
					                                    <timebase>60</timebase>
					                                    <ntsc>TRUE</ntsc>
					                                </rate>
					                                <duration>48</duration>
					                                <start>6952</start>
					                                <end>7000</end>
					                                <in>1109</in>
					                                <out>1157</out>
					                            </clipitem>
					<clipitem frameBlend="FALSE" id="clipitem-7">
					                                <file id="file-1"/>
					                                <name>bandicam 2025-06-02 00-01-10-144</name>
					                                <rate>
					                                    <timebase>60</timebase>
					                                    <ntsc>TRUE</ntsc>
					                                </rate>
					                                <rate>
					                                    <timebase>60</timebase>
					                                    <ntsc>TRUE</ntsc>
					                                </rate>
					                                <duration>0</duration>
					                                <start>7000</start>
					                                <end>7000</end>
					                                <in>1319</in>
					                                <out>1319</out>
					                            </clipitem>
					<clipitem frameBlend="FALSE" id="clipitem-8">
					                                <file id="file-1"/>
					                                <name>bandicam 2025-06-02 00-01-10-144</name>
					                                <rate>
					                                    <timebase>60</timebase>
					                                    <ntsc>TRUE</ntsc>
					                                </rate>
					                                <rate>
					                                    <timebase>60</timebase>
					                                    <ntsc>TRUE</ntsc>
					                                </rate>
					                                <duration>24</duration>
					                                <start>7000</start>
					                                <end>7024</end>
					                                <in>1349</in>
					                                <out>1373</out>
					                            </clipitem>
					<clipitem frameBlend="FALSE" id="clipitem-9">
					                                <file id="file-1"/>
					                                <name>bandicam 2025-06-02 00-01-10-144</name>
					                                <rate>
					                                    <timebase>60</timebase>
					                                    <ntsc>TRUE</ntsc>
					                                </rate>
					                                <rate>
					                                    <timebase>60</timebase>
					                                    <ntsc>TRUE</ntsc>
					                                </rate>
					                                <duration>48</duration>
					                                <start>7024</start>
					                                <end>7072</end>
					                                <in>1397</in>
					                                <out>1445</out>
					                            </clipitem>
					<clipitem frameBlend="FALSE" id="clipitem-10">
					                                <file id="file-1"/>
					                                <name>bandicam 2025-06-02 00-01-10-144</name>
					                                <rate>
					                                    <timebase>60</timebase>
					                                    <ntsc>TRUE</ntsc>
					                                </rate>
					                                <rate>
					                                    <timebase>60</timebase>
					                                    <ntsc>TRUE</ntsc>
					                                </rate>
					                                <duration>192</duration>
					                                <start>7072</start>
					                                <end>7264</end>
					                                <in>1457</in>
					                                <out>1649</out>
					                            </clipitem>
					<clipitem frameBlend="FALSE" id="clipitem-11">
					                                <file id="file-1"/>
					                                <name>bandicam 2025-06-02 00-01-10-144</name>
					                                <rate>
					                                    <timebase>60</timebase>
					                                    <ntsc>TRUE</ntsc>
					                                </rate>
					                                <rate>
					                                    <timebase>60</timebase>
					                                    <ntsc>TRUE</ntsc>
					                                </rate>
					                                <duration>60</duration>
					                                <start>7264</start>
					                                <end>7324</end>
					                                <in>1697</in>
					                                <out>1757</out>
					                            </clipitem>
					<clipitem frameBlend="FALSE" id="clipitem-12">
					                                <file id="file-1"/>
					                                <name>bandicam 2025-06-02 00-01-10-144</name>
					                                <rate>
					                                    <timebase>60</timebase>
					                                    <ntsc>TRUE</ntsc>
					                                </rate>
					                                <rate>
					                                    <timebase>60</timebase>
					                                    <ntsc>TRUE</ntsc>
					                                </rate>
					                                <duration>90</duration>
					                                <start>7324</start>
					                                <end>7414</end>
					                                <in>1847</in>
					                                <out>1937</out>
					                            </clipitem>
					<clipitem frameBlend="FALSE" id="clipitem-13">
					                                <file id="file-1"/>
					                                <name>bandicam 2025-06-02 00-01-10-144</name>
					                                <rate>
					                                    <timebase>60</timebase>
					                                    <ntsc>TRUE</ntsc>
					                                </rate>
					                                <rate>
					                                    <timebase>60</timebase>
					                                    <ntsc>TRUE</ntsc>
					                                </rate>
					                                <duration>126</duration>
					                                <start>7414</start>
					                                <end>7540</end>
					                                <in>1961</in>
					                                <out>2087</out>
					                            </clipitem>
					<clipitem frameBlend="FALSE" id="clipitem-14">
					                                <file id="file-1"/>
					                                <name>bandicam 2025-06-02 00-01-10-144</name>
					                                <rate>
					                                    <timebase>60</timebase>
					                                    <ntsc>TRUE</ntsc>
					                                </rate>
					                                <rate>
					                                    <timebase>60</timebase>
					                                    <ntsc>TRUE</ntsc>
					                                </rate>
					                                <duration>30</duration>
					                                <start>7540</start>
					                                <end>7570</end>
					                                <in>2219</in>
					                                <out>2249</out>
					                            </clipitem>
					<clipitem frameBlend="FALSE" id="clipitem-15">
					                                <file id="file-1"/>
					                                <name>bandicam 2025-06-02 00-01-10-144</name>
					                                <rate>
					                                    <timebase>60</timebase>
					                                    <ntsc>TRUE</ntsc>
					                                </rate>
					                                <rate>
					                                    <timebase>60</timebase>
					                                    <ntsc>TRUE</ntsc>
					                                </rate>
					                                <duration>24</duration>
					                                <start>7570</start>
					                                <end>7594</end>
					                                <in>2267</in>
					                                <out>2291</out>
					                            </clipitem>
					<clipitem frameBlend="FALSE" id="clipitem-16">
					                                <file id="file-1"/>
					                                <name>bandicam 2025-06-02 00-01-10-144</name>
					                                <rate>
					                                    <timebase>60</timebase>
					                                    <ntsc>TRUE</ntsc>
					                                </rate>
					                                <rate>
					                                    <timebase>60</timebase>
					                                    <ntsc>TRUE</ntsc>
					                                </rate>
					                                <duration>48</duration>
					                                <start>7594</start>
					                                <end>7642</end>
					                                <in>2327</in>
					                                <out>2375</out>
					                            </clipitem>
					<clipitem frameBlend="FALSE" id="clipitem-17">
					                                <file id="file-1"/>
					                                <name>bandicam 2025-06-02 00-01-10-144</name>
					                                <rate>
					                                    <timebase>60</timebase>
					                                    <ntsc>TRUE</ntsc>
					                                </rate>
					                                <rate>
					                                    <timebase>60</timebase>
					                                    <ntsc>TRUE</ntsc>
					                                </rate>
					                                <duration>36</duration>
					                                <start>7642</start>
					                                <end>7678</end>
					                                <in>2405</in>
					                                <out>2441</out>
					                            </clipitem>
					<clipitem frameBlend="FALSE" id="clipitem-18">
					                                <file id="file-1"/>
					                                <name>bandicam 2025-06-02 00-01-10-144</name>
					                                <rate>
					                                    <timebase>60</timebase>
					                                    <ntsc>TRUE</ntsc>
					                                </rate>
					                                <rate>
					                                    <timebase>60</timebase>
					                                    <ntsc>TRUE</ntsc>
					                                </rate>
					                                <duration>18</duration>
					                                <start>7678</start>
					                                <end>7696</end>
					                                <in>2477</in>
					                                <out>2495</out>
					                            </clipitem>
					<clipitem frameBlend="FALSE" id="clipitem-19">
					                                <file id="file-1"/>
					                                <name>bandicam 2025-06-02 00-01-10-144</name>
					                                <rate>
					                                    <timebase>60</timebase>
					                                    <ntsc>TRUE</ntsc>
					                                </rate>
					                                <rate>
					                                    <timebase>60</timebase>
					                                    <ntsc>TRUE</ntsc>
					                                </rate>
					                                <duration>54</duration>
					                                <start>7696</start>
					                                <end>7750</end>
					                                <in>2531</in>
					                                <out>2585</out>
					                            </clipitem>
					<clipitem frameBlend="FALSE" id="clipitem-20">
					                                <file id="file-1"/>
					                                <name>bandicam 2025-06-02 00-01-10-144</name>
					                                <rate>
					                                    <timebase>60</timebase>
					                                    <ntsc>TRUE</ntsc>
					                                </rate>
					                                <rate>
					                                    <timebase>60</timebase>
					                                    <ntsc>TRUE</ntsc>
					                                </rate>
					                                <duration>96</duration>
					                                <start>7750</start>
					                                <end>7846</end>
					                                <in>2639</in>
					                                <out>2735</out>
					                            </clipitem>
					<clipitem frameBlend="FALSE" id="clipitem-21">
					                                <file id="file-1"/>
					                                <name>bandicam 2025-06-02 00-01-10-144</name>
					                                <rate>
					                                    <timebase>60</timebase>
					                                    <ntsc>TRUE</ntsc>
					                                </rate>
					                                <rate>
					                                    <timebase>60</timebase>
					                                    <ntsc>TRUE</ntsc>
					                                </rate>
					                                <duration>917</duration>
					                                <start>7846</start>
					                                <end>8763</end>
					                                <in>2759</in>
					                                <out>3676</out>
					                            </clipitem>
					<clipitem frameBlend="FALSE" id="clipitem-22">
					                                <file id="file-1"/>
					                                <name>bandicam 2025-06-02 00-01-10-144</name>
					                                <rate>
					                                    <timebase>60</timebase>
					                                    <ntsc>TRUE</ntsc>
					                                </rate>
					                                <rate>
					                                    <timebase>60</timebase>
					                                    <ntsc>TRUE</ntsc>
					                                </rate>
					                                <duration>42</duration>
					                                <start>8763</start>
					                                <end>8805</end>
					                                <in>3706</in>
					                                <out>3748</out>
					                            </clipitem>
					<clipitem frameBlend="FALSE" id="clipitem-23">
					                                <file id="file-1"/>
					                                <name>bandicam 2025-06-02 00-01-10-144</name>
					                                <rate>
					                                    <timebase>60</timebase>
					                                    <ntsc>TRUE</ntsc>
					                                </rate>
					                                <rate>
					                                    <timebase>60</timebase>
					                                    <ntsc>TRUE</ntsc>
					                                </rate>
					                                <duration>66</duration>
					                                <start>8805</start>
					                                <end>8871</end>
					                                <in>3778</in>
					                                <out>3844</out>
					                            </clipitem>
					<clipitem frameBlend="FALSE" id="clipitem-24">
					                                <file id="file-1"/>
					                                <name>bandicam 2025-06-02 00-01-10-144</name>
					                                <rate>
					                                    <timebase>60</timebase>
					                                    <ntsc>TRUE</ntsc>
					                                </rate>
					                                <rate>
					                                    <timebase>60</timebase>
					                                    <ntsc>TRUE</ntsc>
					                                </rate>
					                                <duration>120</duration>
					                                <start>8871</start>
					                                <end>8991</end>
					                                <in>3874</in>
					                                <out>3994</out>
					                            </clipitem>
					<clipitem frameBlend="FALSE" id="clipitem-25">
					                                <file id="file-1"/>
					                                <name>bandicam 2025-06-02 00-01-10-144</name>
					                                <rate>
					                                    <timebase>60</timebase>
					                                    <ntsc>TRUE</ntsc>
					                                </rate>
					                                <rate>
					                                    <timebase>60</timebase>
					                                    <ntsc>TRUE</ntsc>
					                                </rate>
					                                <duration>36</duration>
					                                <start>8991</start>
					                                <end>9027</end>
					                                <in>4012</in>
					                                <out>4048</out>
					                            </clipitem>
					<clipitem frameBlend="FALSE" id="clipitem-26">
					                                <file id="file-1"/>
					                                <name>bandicam 2025-06-02 00-01-10-144</name>
					                                <rate>
					                                    <timebase>60</timebase>
					                                    <ntsc>TRUE</ntsc>
					                                </rate>
					                                <rate>
					                                    <timebase>60</timebase>
					                                    <ntsc>TRUE</ntsc>
					                                </rate>
					                                <duration>228</duration>
					                                <start>9027</start>
					                                <end>9255</end>
					                                <in>4066</in>
					                                <out>4294</out>
					                            </clipitem>
					<clipitem frameBlend="FALSE" id="clipitem-27">
					                                <file id="file-1"/>
					                                <name>bandicam 2025-06-02 00-01-10-144</name>
					                                <rate>
					                                    <timebase>60</timebase>
					                                    <ntsc>TRUE</ntsc>
					                                </rate>
					                                <rate>
					                                    <timebase>60</timebase>
					                                    <ntsc>TRUE</ntsc>
					                                </rate>
					                                <duration>12</duration>
					                                <start>9255</start>
					                                <end>9267</end>
					                                <in>4330</in>
					                                <out>4342</out>
					                            </clipitem>
					<clipitem frameBlend="FALSE" id="clipitem-28">
					                                <file id="file-1"/>
					                                <name>bandicam 2025-06-02 00-01-10-144</name>
					                                <rate>
					                                    <timebase>60</timebase>
					                                    <ntsc>TRUE</ntsc>
					                                </rate>
					                                <rate>
					                                    <timebase>60</timebase>
					                                    <ntsc>TRUE</ntsc>
					                                </rate>
					                                <duration>342</duration>
					                                <start>9267</start>
					                                <end>9609</end>
					                                <in>4414</in>
					                                <out>4756</out>
					                            </clipitem>
					<clipitem frameBlend="FALSE" id="clipitem-29">
					                                <file id="file-1"/>
					                                <name>bandicam 2025-06-02 00-01-10-144</name>
					                                <rate>
					                                    <timebase>60</timebase>
					                                    <ntsc>TRUE</ntsc>
					                                </rate>
					                                <rate>
					                                    <timebase>60</timebase>
					                                    <ntsc>TRUE</ntsc>
					                                </rate>
					                                <duration>18</duration>
					                                <start>9609</start>
					                                <end>9627</end>
					                                <in>4786</in>
					                                <out>4804</out>
					                            </clipitem>
					<clipitem frameBlend="FALSE" id="clipitem-30">
					                                <file id="file-1"/>
					                                <name>bandicam 2025-06-02 00-01-10-144</name>
					                                <rate>
					                                    <timebase>60</timebase>
					                                    <ntsc>TRUE</ntsc>
					                                </rate>
					                                <rate>
					                                    <timebase>60</timebase>
					                                    <ntsc>TRUE</ntsc>
					                                </rate>
					                                <duration>18</duration>
					                                <start>9627</start>
					                                <end>9645</end>
					                                <in>4834</in>
					                                <out>4852</out>
					                            </clipitem>
					<clipitem frameBlend="FALSE" id="clipitem-31">
					                                <file id="file-1"/>
					                                <name>bandicam 2025-06-02 00-01-10-144</name>
					                                <rate>
					                                    <timebase>60</timebase>
					                                    <ntsc>TRUE</ntsc>
					                                </rate>
					                                <rate>
					                                    <timebase>60</timebase>
					                                    <ntsc>TRUE</ntsc>
					                                </rate>
					                                <duration>198</duration>
					                                <start>9645</start>
					                                <end>9843</end>
					                                <in>4870</in>
					                                <out>5068</out>
					                            </clipitem>
					<clipitem frameBlend="FALSE" id="clipitem-32">
					                                <file id="file-1"/>
					                                <name>bandicam 2025-06-02 00-01-10-144</name>
					                                <rate>
					                                    <timebase>60</timebase>
					                                    <ntsc>TRUE</ntsc>
					                                </rate>
					                                <rate>
					                                    <timebase>60</timebase>
					                                    <ntsc>TRUE</ntsc>
					                                </rate>
					                                <duration>6</duration>
					                                <start>9843</start>
					                                <end>9849</end>
					                                <in>5086</in>
					                                <out>5092</out>
					                            </clipitem>
					<clipitem frameBlend="FALSE" id="clipitem-33">
					                                <file id="file-1"/>
					                                <name>bandicam 2025-06-02 00-01-10-144</name>
					                                <rate>
					                                    <timebase>60</timebase>
					                                    <ntsc>TRUE</ntsc>
					                                </rate>
					                                <rate>
					                                    <timebase>60</timebase>
					                                    <ntsc>TRUE</ntsc>
					                                </rate>
					                                <duration>786</duration>
					                                <start>9849</start>
					                                <end>10635</end>
					                                <in>5140</in>
					                                <out>5926</out>
					                            </clipitem>
					<clipitem frameBlend="FALSE" id="clipitem-34">
					                                <file id="file-1"/>
					                                <name>bandicam 2025-06-02 00-01-10-144</name>
					                                <rate>
					                                    <timebase>60</timebase>
					                                    <ntsc>TRUE</ntsc>
					                                </rate>
					                                <rate>
					                                    <timebase>60</timebase>
					                                    <ntsc>TRUE</ntsc>
					                                </rate>
					                                <duration>120</duration>
					                                <start>10635</start>
					                                <end>10755</end>
					                                <in>5944</in>
					                                <out>6064</out>
					                            </clipitem>
					<clipitem frameBlend="FALSE" id="clipitem-35">
					                                <file id="file-1"/>
					                                <name>bandicam 2025-06-02 00-01-10-144</name>
					                                <rate>
					                                    <timebase>60</timebase>
					                                    <ntsc>TRUE</ntsc>
					                                </rate>
					                                <rate>
					                                    <timebase>60</timebase>
					                                    <ntsc>TRUE</ntsc>
					                                </rate>
					                                <duration>324</duration>
					                                <start>10755</start>
					                                <end>11079</end>
					                                <in>6088</in>
					                                <out>6412</out>
					                            </clipitem>
					<clipitem frameBlend="FALSE" id="clipitem-36">
					                                <file id="file-1"/>
					                                <name>bandicam 2025-06-02 00-01-10-144</name>
					                                <rate>
					                                    <timebase>60</timebase>
					                                    <ntsc>TRUE</ntsc>
					                                </rate>
					                                <rate>
					                                    <timebase>60</timebase>
					                                    <ntsc>TRUE</ntsc>
					                                </rate>
					                                <duration>108</duration>
					                                <start>11079</start>
					                                <end>11187</end>
					                                <in>6442</in>
					                                <out>6550</out>
					                            </clipitem>
					<clipitem frameBlend="FALSE" id="clipitem-37">
					                                <file id="file-1"/>
					                                <name>bandicam 2025-06-02 00-01-10-144</name>
					                                <rate>
					                                    <timebase>60</timebase>
					                                    <ntsc>TRUE</ntsc>
					                                </rate>
					                                <rate>
					                                    <timebase>60</timebase>
					                                    <ntsc>TRUE</ntsc>
					                                </rate>
					                                <duration>0</duration>
					                                <start>11187</start>
					                                <end>11187</end>
					                                <in>6610</in>
					                                <out>6610</out>
					                            </clipitem>
					<clipitem frameBlend="FALSE" id="clipitem-38">
					                                <file id="file-1"/>
					                                <name>bandicam 2025-06-02 00-01-10-144</name>
					                                <rate>
					                                    <timebase>60</timebase>
					                                    <ntsc>TRUE</ntsc>
					                                </rate>
					                                <rate>
					                                    <timebase>60</timebase>
					                                    <ntsc>TRUE</ntsc>
					                                </rate>
					                                <duration>228</duration>
					                                <start>11187</start>
					                                <end>11415</end>
					                                <in>6634</in>
					                                <out>6862</out>
					                            </clipitem>
					<clipitem frameBlend="FALSE" id="clipitem-39">
					                                <file id="file-1"/>
					                                <name>bandicam 2025-06-02 00-01-10-144</name>
					                                <rate>
					                                    <timebase>60</timebase>
					                                    <ntsc>TRUE</ntsc>
					                                </rate>
					                                <rate>
					                                    <timebase>60</timebase>
					                                    <ntsc>TRUE</ntsc>
					                                </rate>
					                                <duration>36</duration>
					                                <start>11415</start>
					                                <end>11451</end>
					                                <in>6874</in>
					                                <out>6910</out>
					                            </clipitem>
					<clipitem frameBlend="FALSE" id="clipitem-40">
					                                <file id="file-1"/>
					                                <name>bandicam 2025-06-02 00-01-10-144</name>
					                                <rate>
					                                    <timebase>60</timebase>
					                                    <ntsc>TRUE</ntsc>
					                                </rate>
					                                <rate>
					                                    <timebase>60</timebase>
					                                    <ntsc>TRUE</ntsc>
					                                </rate>
					                                <duration>30</duration>
					                                <start>11451</start>
					                                <end>11481</end>
					                                <in>6964</in>
					                                <out>6994</out>
					                            </clipitem>
					<clipitem frameBlend="FALSE" id="clipitem-41">
					                                <file id="file-1"/>
					                                <name>bandicam 2025-06-02 00-01-10-144</name>
					                                <rate>
					                                    <timebase>60</timebase>
					                                    <ntsc>TRUE</ntsc>
					                                </rate>
					                                <rate>
					                                    <timebase>60</timebase>
					                                    <ntsc>TRUE</ntsc>
					                                </rate>
					                                <duration>24</duration>
					                                <start>11481</start>
					                                <end>11505</end>
					                                <in>1469</in>
					                                <out>1493</out>
					                            </clipitem>
					<clipitem frameBlend="FALSE" id="clipitem-42">
					                                <file id="file-1"/>
					                                <name>bandicam 2025-06-02 00-01-10-144</name>
					                                <rate>
					                                    <timebase>60</timebase>
					                                    <ntsc>TRUE</ntsc>
					                                </rate>
					                                <rate>
					                                    <timebase>60</timebase>
					                                    <ntsc>TRUE</ntsc>
					                                </rate>
					                                <duration>72</duration>
					                                <start>11505</start>
					                                <end>11577</end>
					                                <in>1517</in>
					                                <out>1589</out>
					                            </clipitem>
					<clipitem frameBlend="FALSE" id="clipitem-43">
					                                <file id="file-1"/>
					                                <name>bandicam 2025-06-02 00-01-10-144</name>
					                                <rate>
					                                    <timebase>60</timebase>
					                                    <ntsc>TRUE</ntsc>
					                                </rate>
					                                <rate>
					                                    <timebase>60</timebase>
					                                    <ntsc>TRUE</ntsc>
					                                </rate>
					                                <duration>0</duration>
					                                <start>11577</start>
					                                <end>11577</end>
					                                <in>1619</in>
					                                <out>1619</out>
					                            </clipitem>
					<clipitem frameBlend="FALSE" id="clipitem-44">
					                                <file id="file-1"/>
					                                <name>bandicam 2025-06-02 00-01-10-144</name>
					                                <rate>
					                                    <timebase>60</timebase>
					                                    <ntsc>TRUE</ntsc>
					                                </rate>
					                                <rate>
					                                    <timebase>60</timebase>
					                                    <ntsc>TRUE</ntsc>
					                                </rate>
					                                <duration>54</duration>
					                                <start>11577</start>
					                                <end>11631</end>
					                                <in>1871</in>
					                                <out>1925</out>
					                            </clipitem>
					<clipitem frameBlend="FALSE" id="clipitem-45">
					                                <file id="file-1"/>
					                                <name>bandicam 2025-06-02 00-01-10-144</name>
					                                <rate>
					                                    <timebase>60</timebase>
					                                    <ntsc>TRUE</ntsc>
					                                </rate>
					                                <rate>
					                                    <timebase>60</timebase>
					                                    <ntsc>TRUE</ntsc>
					                                </rate>
					                                <duration>72</duration>
					                                <start>11631</start>
					                                <end>11703</end>
					                                <in>1997</in>
					                                <out>2069</out>
					                            </clipitem>
					<clipitem frameBlend="FALSE" id="clipitem-46">
					                                <file id="file-1"/>
					                                <name>bandicam 2025-06-02 00-01-10-144</name>
					                                <rate>
					                                    <timebase>60</timebase>
					                                    <ntsc>TRUE</ntsc>
					                                </rate>
					                                <rate>
					                                    <timebase>60</timebase>
					                                    <ntsc>TRUE</ntsc>
					                                </rate>
					                                <duration>6</duration>
					                                <start>11703</start>
					                                <end>11709</end>
					                                <in>2231</in>
					                                <out>2237</out>
					                            </clipitem>
					<clipitem frameBlend="FALSE" id="clipitem-47">
					                                <file id="file-1"/>
					                                <name>bandicam 2025-06-02 00-01-10-144</name>
					                                <rate>
					                                    <timebase>60</timebase>
					                                    <ntsc>TRUE</ntsc>
					                                </rate>
					                                <rate>
					                                    <timebase>60</timebase>
					                                    <ntsc>TRUE</ntsc>
					                                </rate>
					                                <duration>18</duration>
					                                <start>11709</start>
					                                <end>11727</end>
					                                <in>2561</in>
					                                <out>2579</out>
					                            </clipitem>
					<clipitem frameBlend="FALSE" id="clipitem-48">
					                                <file id="file-1"/>
					                                <name>bandicam 2025-06-02 00-01-10-144</name>
					                                <rate>
					                                    <timebase>60</timebase>
					                                    <ntsc>TRUE</ntsc>
					                                </rate>
					                                <rate>
					                                    <timebase>60</timebase>
					                                    <ntsc>TRUE</ntsc>
					                                </rate>
					                                <duration>18</duration>
					                                <start>11727</start>
					                                <end>11745</end>
					                                <in>2663</in>
					                                <out>2681</out>
					                            </clipitem>
					<clipitem frameBlend="FALSE" id="clipitem-49">
					                                <file id="file-1"/>
					                                <name>bandicam 2025-06-02 00-01-10-144</name>
					                                <rate>
					                                    <timebase>60</timebase>
					                                    <ntsc>TRUE</ntsc>
					                                </rate>
					                                <rate>
					                                    <timebase>60</timebase>
					                                    <ntsc>TRUE</ntsc>
					                                </rate>
					                                <duration>12</duration>
					                                <start>11745</start>
					                                <end>11757</end>
					                                <in>2699</in>
					                                <out>2711</out>
					                            </clipitem>
					<clipitem frameBlend="FALSE" id="clipitem-50">
					                                <file id="file-1"/>
					                                <name>bandicam 2025-06-02 00-01-10-144</name>
					                                <rate>
					                                    <timebase>60</timebase>
					                                    <ntsc>TRUE</ntsc>
					                                </rate>
					                                <rate>
					                                    <timebase>60</timebase>
					                                    <ntsc>TRUE</ntsc>
					                                </rate>
					                                <duration>552</duration>
					                                <start>11757</start>
					                                <end>12309</end>
					                                <in>2771</in>
					                                <out>3323</out>
					                            </clipitem>
					<clipitem frameBlend="FALSE" id="clipitem-51">
					                                <file id="file-1"/>
					                                <name>bandicam 2025-06-02 00-01-10-144</name>
					                                <rate>
					                                    <timebase>60</timebase>
					                                    <ntsc>TRUE</ntsc>
					                                </rate>
					                                <rate>
					                                    <timebase>60</timebase>
					                                    <ntsc>TRUE</ntsc>
					                                </rate>
					                                <duration>18</duration>
					                                <start>12309</start>
					                                <end>12327</end>
					                                <in>3341</in>
					                                <out>3359</out>
					                            </clipitem>
					<clipitem frameBlend="FALSE" id="clipitem-52">
					                                <file id="file-1"/>
					                                <name>bandicam 2025-06-02 00-01-10-144</name>
					                                <rate>
					                                    <timebase>60</timebase>
					                                    <ntsc>TRUE</ntsc>
					                                </rate>
					                                <rate>
					                                    <timebase>60</timebase>
					                                    <ntsc>TRUE</ntsc>
					                                </rate>
					                                <duration>215</duration>
					                                <start>12327</start>
					                                <end>12542</end>
					                                <in>3389</in>
					                                <out>3604</out>
					                            </clipitem>
					<clipitem frameBlend="FALSE" id="clipitem-53">
					                                <file id="file-1"/>
					                                <name>bandicam 2025-06-02 00-01-10-144</name>
					                                <rate>
					                                    <timebase>60</timebase>
					                                    <ntsc>TRUE</ntsc>
					                                </rate>
					                                <rate>
					                                    <timebase>60</timebase>
					                                    <ntsc>TRUE</ntsc>
					                                </rate>
					                                <duration>54</duration>
					                                <start>12542</start>
					                                <end>12596</end>
					                                <in>3616</in>
					                                <out>3670</out>
					                            </clipitem>
					<clipitem frameBlend="FALSE" id="clipitem-54">
					                                <file id="file-1"/>
					                                <name>bandicam 2025-06-02 00-01-10-144</name>
					                                <rate>
					                                    <timebase>60</timebase>
					                                    <ntsc>TRUE</ntsc>
					                                </rate>
					                                <rate>
					                                    <timebase>60</timebase>
					                                    <ntsc>TRUE</ntsc>
					                                </rate>
					                                <duration>30</duration>
					                                <start>12596</start>
					                                <end>12626</end>
					                                <in>3784</in>
					                                <out>3814</out>
					                            </clipitem>
					<clipitem frameBlend="FALSE" id="clipitem-55">
					                                <file id="file-1"/>
					                                <name>bandicam 2025-06-02 00-01-10-144</name>
					                                <rate>
					                                    <timebase>60</timebase>
					                                    <ntsc>TRUE</ntsc>
					                                </rate>
					                                <rate>
					                                    <timebase>60</timebase>
					                                    <ntsc>TRUE</ntsc>
					                                </rate>
					                                <duration>18</duration>
					                                <start>12626</start>
					                                <end>12644</end>
					                                <in>3910</in>
					                                <out>3928</out>
					                            </clipitem>
					<clipitem frameBlend="FALSE" id="clipitem-56">
					                                <file id="file-1"/>
					                                <name>bandicam 2025-06-02 00-01-10-144</name>
					                                <rate>
					                                    <timebase>60</timebase>
					                                    <ntsc>TRUE</ntsc>
					                                </rate>
					                                <rate>
					                                    <timebase>60</timebase>
					                                    <ntsc>TRUE</ntsc>
					                                </rate>
					                                <duration>174</duration>
					                                <start>12644</start>
					                                <end>12818</end>
					                                <in>4078</in>
					                                <out>4252</out>
					                            </clipitem>
					<clipitem frameBlend="FALSE" id="clipitem-57">
					                                <file id="file-1"/>
					                                <name>bandicam 2025-06-02 00-01-10-144</name>
					                                <rate>
					                                    <timebase>60</timebase>
					                                    <ntsc>TRUE</ntsc>
					                                </rate>
					                                <rate>
					                                    <timebase>60</timebase>
					                                    <ntsc>TRUE</ntsc>
					                                </rate>
					                                <duration>72</duration>
					                                <start>12818</start>
					                                <end>12890</end>
					                                <in>4432</in>
					                                <out>4504</out>
					                            </clipitem>
					<clipitem frameBlend="FALSE" id="clipitem-58">
					                                <file id="file-1"/>
					                                <name>bandicam 2025-06-02 00-01-10-144</name>
					                                <rate>
					                                    <timebase>60</timebase>
					                                    <ntsc>TRUE</ntsc>
					                                </rate>
					                                <rate>
					                                    <timebase>60</timebase>
					                                    <ntsc>TRUE</ntsc>
					                                </rate>
					                                <duration>60</duration>
					                                <start>12890</start>
					                                <end>12950</end>
					                                <in>4540</in>
					                                <out>4600</out>
					                            </clipitem>
					<clipitem frameBlend="FALSE" id="clipitem-59">
					                                <file id="file-1"/>
					                                <name>bandicam 2025-06-02 00-01-10-144</name>
					                                <rate>
					                                    <timebase>60</timebase>
					                                    <ntsc>TRUE</ntsc>
					                                </rate>
					                                <rate>
					                                    <timebase>60</timebase>
					                                    <ntsc>TRUE</ntsc>
					                                </rate>
					                                <duration>18</duration>
					                                <start>12950</start>
					                                <end>12968</end>
					                                <in>4648</in>
					                                <out>4666</out>
					                            </clipitem>
					<clipitem frameBlend="FALSE" id="clipitem-60">
					                                <file id="file-1"/>
					                                <name>bandicam 2025-06-02 00-01-10-144</name>
					                                <rate>
					                                    <timebase>60</timebase>
					                                    <ntsc>TRUE</ntsc>
					                                </rate>
					                                <rate>
					                                    <timebase>60</timebase>
					                                    <ntsc>TRUE</ntsc>
					                                </rate>
					                                <duration>36</duration>
					                                <start>12968</start>
					                                <end>13004</end>
					                                <in>4708</in>
					                                <out>4744</out>
					                            </clipitem>
					<clipitem frameBlend="FALSE" id="clipitem-61">
					                                <file id="file-1"/>
					                                <name>bandicam 2025-06-02 00-01-10-144</name>
					                                <rate>
					                                    <timebase>60</timebase>
					                                    <ntsc>TRUE</ntsc>
					                                </rate>
					                                <rate>
					                                    <timebase>60</timebase>
					                                    <ntsc>TRUE</ntsc>
					                                </rate>
					                                <duration>18</duration>
					                                <start>13004</start>
					                                <end>13022</end>
					                                <in>4882</in>
					                                <out>4900</out>
					                            </clipitem>
					<clipitem frameBlend="FALSE" id="clipitem-62">
					                                <file id="file-1"/>
					                                <name>bandicam 2025-06-02 00-01-10-144</name>
					                                <rate>
					                                    <timebase>60</timebase>
					                                    <ntsc>TRUE</ntsc>
					                                </rate>
					                                <rate>
					                                    <timebase>60</timebase>
					                                    <ntsc>TRUE</ntsc>
					                                </rate>
					                                <duration>96</duration>
					                                <start>13022</start>
					                                <end>13118</end>
					                                <in>4954</in>
					                                <out>5050</out>
					                            </clipitem>
					<clipitem frameBlend="FALSE" id="clipitem-63">
					                                <file id="file-1"/>
					                                <name>bandicam 2025-06-02 00-01-10-144</name>
					                                <rate>
					                                    <timebase>60</timebase>
					                                    <ntsc>TRUE</ntsc>
					                                </rate>
					                                <rate>
					                                    <timebase>60</timebase>
					                                    <ntsc>TRUE</ntsc>
					                                </rate>
					                                <duration>0</duration>
					                                <start>13118</start>
					                                <end>13118</end>
					                                <in>5152</in>
					                                <out>5152</out>
					                            </clipitem>
					<clipitem frameBlend="FALSE" id="clipitem-64">
					                                <file id="file-1"/>
					                                <name>bandicam 2025-06-02 00-01-10-144</name>
					                                <rate>
					                                    <timebase>60</timebase>
					                                    <ntsc>TRUE</ntsc>
					                                </rate>
					                                <rate>
					                                    <timebase>60</timebase>
					                                    <ntsc>TRUE</ntsc>
					                                </rate>
					                                <duration>216</duration>
					                                <start>13118</start>
					                                <end>13334</end>
					                                <in>5182</in>
					                                <out>5398</out>
					                            </clipitem>
					<clipitem frameBlend="FALSE" id="clipitem-65">
					                                <file id="file-1"/>
					                                <name>bandicam 2025-06-02 00-01-10-144</name>
					                                <rate>
					                                    <timebase>60</timebase>
					                                    <ntsc>TRUE</ntsc>
					                                </rate>
					                                <rate>
					                                    <timebase>60</timebase>
					                                    <ntsc>TRUE</ntsc>
					                                </rate>
					                                <duration>324</duration>
					                                <start>13334</start>
					                                <end>13658</end>
					                                <in>5440</in>
					                                <out>5764</out>
					                            </clipitem>
					<clipitem frameBlend="FALSE" id="clipitem-66">
					                                <file id="file-1"/>
					                                <name>bandicam 2025-06-02 00-01-10-144</name>
					                                <rate>
					                                    <timebase>60</timebase>
					                                    <ntsc>TRUE</ntsc>
					                                </rate>
					                                <rate>
					                                    <timebase>60</timebase>
					                                    <ntsc>TRUE</ntsc>
					                                </rate>
					                                <duration>24</duration>
					                                <start>13658</start>
					                                <end>13682</end>
					                                <in>5782</in>
					                                <out>5806</out>
					                            </clipitem>
					<clipitem frameBlend="FALSE" id="clipitem-67">
					                                <file id="file-1"/>
					                                <name>bandicam 2025-06-02 00-01-10-144</name>
					                                <rate>
					                                    <timebase>60</timebase>
					                                    <ntsc>TRUE</ntsc>
					                                </rate>
					                                <rate>
					                                    <timebase>60</timebase>
					                                    <ntsc>TRUE</ntsc>
					                                </rate>
					                                <duration>6</duration>
					                                <start>13682</start>
					                                <end>13688</end>
					                                <in>5842</in>
					                                <out>5848</out>
					                            </clipitem>
					<clipitem frameBlend="FALSE" id="clipitem-68">
					                                <file id="file-1"/>
					                                <name>bandicam 2025-06-02 00-01-10-144</name>
					                                <rate>
					                                    <timebase>60</timebase>
					                                    <ntsc>TRUE</ntsc>
					                                </rate>
					                                <rate>
					                                    <timebase>60</timebase>
					                                    <ntsc>TRUE</ntsc>
					                                </rate>
					                                <duration>36</duration>
					                                <start>13688</start>
					                                <end>13724</end>
					                                <in>5878</in>
					                                <out>5914</out>
					                            </clipitem>
					<clipitem frameBlend="FALSE" id="clipitem-69">
					                                <file id="file-1"/>
					                                <name>bandicam 2025-06-02 00-01-10-144</name>
					                                <rate>
					                                    <timebase>60</timebase>
					                                    <ntsc>TRUE</ntsc>
					                                </rate>
					                                <rate>
					                                    <timebase>60</timebase>
					                                    <ntsc>TRUE</ntsc>
					                                </rate>
					                                <duration>72</duration>
					                                <start>13724</start>
					                                <end>13796</end>
					                                <in>5956</in>
					                                <out>6028</out>
					                            </clipitem>
					<clipitem frameBlend="FALSE" id="clipitem-70">
					                                <file id="file-1"/>
					                                <name>bandicam 2025-06-02 00-01-10-144</name>
					                                <rate>
					                                    <timebase>60</timebase>
					                                    <ntsc>TRUE</ntsc>
					                                </rate>
					                                <rate>
					                                    <timebase>60</timebase>
					                                    <ntsc>TRUE</ntsc>
					                                </rate>
					                                <duration>102</duration>
					                                <start>13796</start>
					                                <end>13898</end>
					                                <in>6100</in>
					                                <out>6202</out>
					                            </clipitem>
					<clipitem frameBlend="FALSE" id="clipitem-71">
					                                <file id="file-1"/>
					                                <name>bandicam 2025-06-02 00-01-10-144</name>
					                                <rate>
					                                    <timebase>60</timebase>
					                                    <ntsc>TRUE</ntsc>
					                                </rate>
					                                <rate>
					                                    <timebase>60</timebase>
					                                    <ntsc>TRUE</ntsc>
					                                </rate>
					                                <duration>24</duration>
					                                <start>13898</start>
					                                <end>13922</end>
					                                <in>6226</in>
					                                <out>6250</out>
					                            </clipitem>
					<clipitem frameBlend="FALSE" id="clipitem-72">
					                                <file id="file-1"/>
					                                <name>bandicam 2025-06-02 00-01-10-144</name>
					                                <rate>
					                                    <timebase>60</timebase>
					                                    <ntsc>TRUE</ntsc>
					                                </rate>
					                                <rate>
					                                    <timebase>60</timebase>
					                                    <ntsc>TRUE</ntsc>
					                                </rate>
					                                <duration>132</duration>
					                                <start>13922</start>
					                                <end>14054</end>
					                                <in>6274</in>
					                                <out>6406</out>
					                            </clipitem>
					<clipitem frameBlend="FALSE" id="clipitem-73">
					                                <file id="file-1"/>
					                                <name>bandicam 2025-06-02 00-01-10-144</name>
					                                <rate>
					                                    <timebase>60</timebase>
					                                    <ntsc>TRUE</ntsc>
					                                </rate>
					                                <rate>
					                                    <timebase>60</timebase>
					                                    <ntsc>TRUE</ntsc>
					                                </rate>
					                                <duration>12</duration>
					                                <start>14054</start>
					                                <end>14066</end>
					                                <in>6526</in>
					                                <out>6538</out>
					                            </clipitem>
					<clipitem frameBlend="FALSE" id="clipitem-74">
					                                <file id="file-1"/>
					                                <name>bandicam 2025-06-02 00-01-10-144</name>
					                                <rate>
					                                    <timebase>60</timebase>
					                                    <ntsc>TRUE</ntsc>
					                                </rate>
					                                <rate>
					                                    <timebase>60</timebase>
					                                    <ntsc>TRUE</ntsc>
					                                </rate>
					                                <duration>72</duration>
					                                <start>14066</start>
					                                <end>14138</end>
					                                <in>6652</in>
					                                <out>6724</out>
					                            </clipitem>
					<clipitem frameBlend="FALSE" id="clipitem-75">
					                                <file id="file-1"/>
					                                <name>bandicam 2025-06-02 00-01-10-144</name>
					                                <rate>
					                                    <timebase>60</timebase>
					                                    <ntsc>TRUE</ntsc>
					                                </rate>
					                                <rate>
					                                    <timebase>60</timebase>
					                                    <ntsc>TRUE</ntsc>
					                                </rate>
					                                <duration>72</duration>
					                                <start>14138</start>
					                                <end>14210</end>
					                                <in>6754</in>
					                                <out>6826</out>
					                            </clipitem>
					<clipitem frameBlend="FALSE" id="clipitem-76">
					                                <file id="file-1"/>
					                                <name>bandicam 2025-06-02 00-01-10-144</name>
					                                <rate>
					                                    <timebase>60</timebase>
					                                    <ntsc>TRUE</ntsc>
					                                </rate>
					                                <rate>
					                                    <timebase>60</timebase>
					                                    <ntsc>TRUE</ntsc>
					                                </rate>
					                                <duration>18</duration>
					                                <start>14210</start>
					                                <end>14228</end>
					                                <in>2783</in>
					                                <out>2801</out>
					                            </clipitem>
					<clipitem frameBlend="FALSE" id="clipitem-77">
					                                <file id="file-1"/>
					                                <name>bandicam 2025-06-02 00-01-10-144</name>
					                                <rate>
					                                    <timebase>60</timebase>
					                                    <ntsc>TRUE</ntsc>
					                                </rate>
					                                <rate>
					                                    <timebase>60</timebase>
					                                    <ntsc>TRUE</ntsc>
					                                </rate>
					                                <duration>6</duration>
					                                <start>14228</start>
					                                <end>14234</end>
					                                <in>2885</in>
					                                <out>2891</out>
					                            </clipitem>
					<clipitem frameBlend="FALSE" id="clipitem-78">
					                                <file id="file-1"/>
					                                <name>bandicam 2025-06-02 00-01-10-144</name>
					                                <rate>
					                                    <timebase>60</timebase>
					                                    <ntsc>TRUE</ntsc>
					                                </rate>
					                                <rate>
					                                    <timebase>60</timebase>
					                                    <ntsc>TRUE</ntsc>
					                                </rate>
					                                <duration>18</duration>
					                                <start>14234</start>
					                                <end>14252</end>
					                                <in>2969</in>
					                                <out>2987</out>
					                            </clipitem>
					<clipitem frameBlend="FALSE" id="clipitem-79">
					                                <file id="file-1"/>
					                                <name>bandicam 2025-06-02 00-01-10-144</name>
					                                <rate>
					                                    <timebase>60</timebase>
					                                    <ntsc>TRUE</ntsc>
					                                </rate>
					                                <rate>
					                                    <timebase>60</timebase>
					                                    <ntsc>TRUE</ntsc>
					                                </rate>
					                                <duration>6</duration>
					                                <start>14252</start>
					                                <end>14258</end>
					                                <in>4096</in>
					                                <out>4102</out>
					                            </clipitem>
					<clipitem frameBlend="FALSE" id="clipitem-80">
					                                <file id="file-1"/>
					                                <name>bandicam 2025-06-02 00-01-10-144</name>
					                                <rate>
					                                    <timebase>60</timebase>
					                                    <ntsc>TRUE</ntsc>
					                                </rate>
					                                <rate>
					                                    <timebase>60</timebase>
					                                    <ntsc>TRUE</ntsc>
					                                </rate>
					                                <duration>0</duration>
					                                <start>14258</start>
					                                <end>14258</end>
					                                <in>4132</in>
					                                <out>4132</out>
					                            </clipitem>
					<clipitem frameBlend="FALSE" id="clipitem-81">
					                                <file id="file-1"/>
					                                <name>bandicam 2025-06-02 00-01-10-144</name>
					                                <rate>
					                                    <timebase>60</timebase>
					                                    <ntsc>TRUE</ntsc>
					                                </rate>
					                                <rate>
					                                    <timebase>60</timebase>
					                                    <ntsc>TRUE</ntsc>
					                                </rate>
					                                <duration>6</duration>
					                                <start>14258</start>
					                                <end>14264</end>
					                                <in>5578</in>
					                                <out>5584</out>
					                            </clipitem>
					<clipitem frameBlend="FALSE" id="clipitem-82">
					                                <file id="file-1"/>
					                                <name>bandicam 2025-06-02 00-01-10-144</name>
					                                <rate>
					                                    <timebase>60</timebase>
					                                    <ntsc>TRUE</ntsc>
					                                </rate>
					                                <rate>
					                                    <timebase>60</timebase>
					                                    <ntsc>TRUE</ntsc>
					                                </rate>
					                                <duration>12</duration>
					                                <start>14264</start>
					                                <end>14276</end>
					                                <in>5644</in>
					                                <out>5656</out>
					                            </clipitem>
					<enabled>TRUE</enabled>
					<locked>FALSE</locked>
				</track>
				<track TL.SQTrackShy="0" TL.SQTrackExpandedHeight="25" TL.SQTrackExpanded="0" MZ.TrackTargeted="0">
					<clipitem frameBlend="FALSE" id="clipitem-83">
					<masterclipid>masterclip-3</masterclipid>
					<name></name>
					<enabled>TRUE</enabled>
					<duration>2582774</duration>
					<rate>
					
					                                    <timebase>60</timebase>
					                                    <ntsc>TRUE</ntsc>
					                                
					</rate>
					<start>0</start>
					<end>359</end>
					<in>0</in>
					<out>359</out>
					<pproTicksIn>914456774963789</pproTicksIn>
					<pproTicksOut>914677708529577</pproTicksOut>
					<alphatype>straight</alphatype>
					<pixelaspectratio>square</pixelaspectratio>
					<anamorphic>FALSE</anamorphic>
					<file id="file-2">
					<name></name>
					<mediaSource>GraphicAndType</mediaSource>
					<rate>
					<timebase>60</timebase>
					<ntsc>TRUE</ntsc>
					</rate>
					<timecode>
					<rate>
					<timebase>60</timebase>
					<ntsc>TRUE</ntsc>
					</rate>
					<string>00:00:00:00</string>
					<frame>0</frame>
					<displayformat>NDF</displayformat>
					</timecode>
					<media>
					<video>
					<samplecharacteristics>
					<rate>
					<timebase>60</timebase>
					<ntsc>TRUE</ntsc>
					</rate>
					<width>1080</width>
					<height>1920</height>
					<anamorphic>FALSE</anamorphic>
					<pixelaspectratio>square</pixelaspectratio>
					<fielddominance>none</fielddominance>
					</samplecharacteristics>
					</video>
					</media>
					</file>
					<filter>
					<effect>
					<name>  </name>
					<effectid>GraphicAndType</effectid>
					<effectcategory>graphic</effectcategory>
					<effecttype>filter</effecttype>
					<mediatype>video</mediatype>
					<pproBypass>false</pproBypass>
					<parameter authoringApp="PremierePro">
					<parameterid>1</parameterid>
					<name></name>
					<hash>025b1101-ead6-0ca2-1feb-caf3000001fc</hash>
					<value>5AEAAAAAAABEMyIRDAAAAAAABgAKAAQABgAAAGQAAAAAAF4ASAAQAAwARABAADwAOAAAAAAAAAAAADQAMwAsAAAAKAAkACAAAAAAAAAAAAAAAAAAHAAAAAAAGgAAAAAAAAAUAAAAAAAAAAAAAAAAAAAAAAAAAAgAAAAAABsABwBeAAAAAAAAAUAAAABQAAAAbAAAAAIAAAAAAAEAAQAAAAAAQEEAAMBAAABAQAAAyEIAAAABIAAAAAIAAAACAAAAAAA2QwCASkTw/v//9P7///j+//8S////AAAAAAEAAAAEAAAAEQAAAEhHUFNvZWlLYWt1cG9wdGFpAAAAAQAAAAwAAAAIAAwABAAIAAgAAAAIAAAAUAAAAA0AAADjgarjgpPjgYsg5YWIgpMAAAA2ACQAAAAgABwAAAAAABsAFAAAAAAAAAAAAAAAAAAAAAAAAAAAABAAAAAAAAAADAAAAAgABAA2AAAAAgAAABwAAAAcAAAAHAAAAAAAIEEAAAABaAAAAE3PAEOw////tP///wEAAAAUAAAAEAAaAAgABwAMAAAAEAAUABAAAAAAAAABHAAAAAAAoEEcAAAAAgAAAAAACgAIAAUABgAHAAoAAAAADAD//P///wQABAAEAAAACAAIAAYABwAIAAAAAAAMAA==</value>
					</parameter>
					<parameter authoringApp="PremierePro">
					<parameterid>2</parameterid>
					<name></name>
					<IsTimeVarying>false</IsTimeVarying>
					<ParameterControlType>11</ParameterControlType>
					<LowerBound>false</LowerBound>
					<UpperBound>false</UpperBound>
					<value>-91445760000000000,false,0,0,0,0,0,0</value>
					</parameter>
					<parameter authoringApp="PremierePro">
					<parameterid>3</parameterid>
					<name></name>
					<IsTimeVarying>false</IsTimeVarying>
					<value>-91445760000000000,0.5:0.5,0,0,0,0,0,0,5,4,0,0,0,0</value>
					</parameter>
					<parameter authoringApp="PremierePro">
					<parameterid>4</parameterid>
					<name></name>
					<IsTimeVarying>false</IsTimeVarying>
					<ParameterControlType>2</ParameterControlType>
					<LowerBound>0</LowerBound>
					<UpperBound>4000</UpperBound>
					<value>-91445760000000000,100.,0,0,0,0,0,0</value>
					</parameter>
					<parameter authoringApp="PremierePro">
					<parameterid>8</parameterid>
					<name></name>
					<IsTimeVarying>false</IsTimeVarying>
					<ParameterControlType>2</ParameterControlType>
					<LowerBound>0</LowerBound>
					<UpperBound>100</UpperBound>
					<value>-91445760000000000,100.,0,0,0,0,0,0</value>
					</parameter>
					</effect>
					</filter>
					<logginginfo>
					<description></description>
					<scene></scene>
					<shottake></shottake>
					<lognote></lognote>
					<good></good>
					<originalvideofilename></originalvideofilename>
					<originalaudiofilename></originalaudiofilename>
					</logginginfo>
					<colorinfo>
					<lut></lut>
					<lut1></lut1>
					<asc_sop></asc_sop>
					<asc_sat></asc_sat>
					<lut2></lut2>
					</colorinfo>
					<labels>
					</labels>
					</clipitem>
					<clipitem frameBlend="FALSE" id="clipitem-84">
					<masterclipid>masterclip-4</masterclipid>
					<name></name>
					<enabled>TRUE</enabled>
					<duration>2582774</duration>
					<rate>
					
					                                    <timebase>60</timebase>
					                                    <ntsc>TRUE</ntsc>
					                                
					</rate>
					<start>359</start>
					<end>539</end>
					<in>359</in>
					<out>539</out>
					<pproTicksIn>914456774963789</pproTicksIn>
					<pproTicksOut>914677708529577</pproTicksOut>
					<alphatype>straight</alphatype>
					<pixelaspectratio>square</pixelaspectratio>
					<anamorphic>FALSE</anamorphic>
					<file id="file-3">
					<name></name>
					<mediaSource>GraphicAndType</mediaSource>
					<rate>
					<timebase>60</timebase>
					<ntsc>TRUE</ntsc>
					</rate>
					<timecode>
					<rate>
					<timebase>60</timebase>
					<ntsc>TRUE</ntsc>
					</rate>
					<string>00:00:00:00</string>
					<frame>0</frame>
					<displayformat>NDF</displayformat>
					</timecode>
					<media>
					<video>
					<samplecharacteristics>
					<rate>
					<timebase>60</timebase>
					<ntsc>TRUE</ntsc>
					</rate>
					<width>1080</width>
					<height>1920</height>
					<anamorphic>FALSE</anamorphic>
					<pixelaspectratio>square</pixelaspectratio>
					<fielddominance>none</fielddominance>
					</samplecharacteristics>
					</video>
					</media>
					</file>
					<filter>
					<effect>
					<name>  </name>
					<effectid>GraphicAndType</effectid>
					<effectcategory>graphic</effectcategory>
					<effecttype>filter</effecttype>
					<mediatype>video</mediatype>
					<pproBypass>false</pproBypass>
					<parameter authoringApp="PremierePro">
					<parameterid>1</parameterid>
					<name></name>
					<hash>025b1101-ead6-0ca2-1feb-caf3000001fc</hash>
					<value>5AEAAAAAAABEMyIRDAAAAAAABgAKAAQABgAAAGQAAAAAAF4ASAAQAAwARABAADwAOAAAAAAAAAAAADQAMwAsAAAAKAAkACAAAAAAAAAAAAAAAAAAHAAAAAAAGgAAAAAAAAAUAAAAAAAAAAAAAAAAAAAAAAAAAAgAAAAAABsABwBeAAAAAAAAAUAAAABQAAAAbAAAAAIAAAAAAAEAAQAAAAAAQEEAAMBAAABAQAAAyEIAAAABIAAAAAIAAAACAAAAAAA2QwCASkTw/v//9P7///j+//8S////AAAAAAEAAAAEAAAAEQAAAEhHUFNvZWlLYWt1cG9wdGFpAAAAAQAAAAwAAAAIAAwABAAIAAgAAAAIAAAAUAAAAA4AAADjgYLjgowg44KC44GXIJMAAAA2ACQAAAAgABwAAAAAABsAFAAAAAAAAAAAAAAAAAAAAAAAAAAAABAAAAAAAAAADAAAAAgABAA2AAAAAgAAABwAAAAcAAAAHAAAAAAAIEEAAAABaAAAAE3PAEOw////tP///wEAAAAUAAAAEAAaAAgABwAMAAAAEAAUABAAAAAAAAABHAAAAAAAoEEcAAAAAgAAAAAACgAIAAUABgAHAAoAAAAADAD//P///wQABAAEAAAACAAIAAYABwAIAAAAAAAMAA==</value>
					</parameter>
					<parameter authoringApp="PremierePro">
					<parameterid>2</parameterid>
					<name></name>
					<IsTimeVarying>false</IsTimeVarying>
					<ParameterControlType>11</ParameterControlType>
					<LowerBound>false</LowerBound>
					<UpperBound>false</UpperBound>
					<value>-91445760000000000,false,0,0,0,0,0,0</value>
					</parameter>
					<parameter authoringApp="PremierePro">
					<parameterid>3</parameterid>
					<name></name>
					<IsTimeVarying>false</IsTimeVarying>
					<value>-91445760000000000,0.5:0.5,0,0,0,0,0,0,5,4,0,0,0,0</value>
					</parameter>
					<parameter authoringApp="PremierePro">
					<parameterid>4</parameterid>
					<name></name>
					<IsTimeVarying>false</IsTimeVarying>
					<ParameterControlType>2</ParameterControlType>
					<LowerBound>0</LowerBound>
					<UpperBound>4000</UpperBound>
					<value>-91445760000000000,100.,0,0,0,0,0,0</value>
					</parameter>
					<parameter authoringApp="PremierePro">
					<parameterid>8</parameterid>
					<name></name>
					<IsTimeVarying>false</IsTimeVarying>
					<ParameterControlType>2</ParameterControlType>
					<LowerBound>0</LowerBound>
					<UpperBound>100</UpperBound>
					<value>-91445760000000000,100.,0,0,0,0,0,0</value>
					</parameter>
					</effect>
					</filter>
					<logginginfo>
					<description></description>
					<scene></scene>
					<shottake></shottake>
					<lognote></lognote>
					<good></good>
					<originalvideofilename></originalvideofilename>
					<originalaudiofilename></originalaudiofilename>
					</logginginfo>
					<colorinfo>
					<lut></lut>
					<lut1></lut1>
					<asc_sop></asc_sop>
					<asc_sat></asc_sat>
					<lut2></lut2>
					</colorinfo>
					<labels>
					</labels>
					</clipitem>
					<clipitem frameBlend="FALSE" id="clipitem-85">
					<masterclipid>masterclip-5</masterclipid>
					<name></name>
					<enabled>TRUE</enabled>
					<duration>2582774</duration>
					<rate>
					
					                                    <timebase>60</timebase>
					                                    <ntsc>TRUE</ntsc>
					                                
					</rate>
					<start>539</start>
					<end>659</end>
					<in>539</in>
					<out>659</out>
					<pproTicksIn>914456774963789</pproTicksIn>
					<pproTicksOut>914677708529577</pproTicksOut>
					<alphatype>straight</alphatype>
					<pixelaspectratio>square</pixelaspectratio>
					<anamorphic>FALSE</anamorphic>
					<file id="file-4">
					<name></name>
					<mediaSource>GraphicAndType</mediaSource>
					<rate>
					<timebase>60</timebase>
					<ntsc>TRUE</ntsc>
					</rate>
					<timecode>
					<rate>
					<timebase>60</timebase>
					<ntsc>TRUE</ntsc>
					</rate>
					<string>00:00:00:00</string>
					<frame>0</frame>
					<displayformat>NDF</displayformat>
					</timecode>
					<media>
					<video>
					<samplecharacteristics>
					<rate>
					<timebase>60</timebase>
					<ntsc>TRUE</ntsc>
					</rate>
					<width>1080</width>
					<height>1920</height>
					<anamorphic>FALSE</anamorphic>
					<pixelaspectratio>square</pixelaspectratio>
					<fielddominance>none</fielddominance>
					</samplecharacteristics>
					</video>
					</media>
					</file>
					<filter>
					<effect>
					<name> </name>
					<effectid>GraphicAndType</effectid>
					<effectcategory>graphic</effectcategory>
					<effecttype>filter</effecttype>
					<mediatype>video</mediatype>
					<pproBypass>false</pproBypass>
					<parameter authoringApp="PremierePro">
					<parameterid>1</parameterid>
					<name></name>
					<hash>025b1101-ead6-0ca2-1feb-caf3000001fc</hash>
					<value>5AEAAAAAAABEMyIRDAAAAAAABgAKAAQABgAAAGQAAAAAAF4ASAAQAAwARABAADwAOAAAAAAAAAAAADQAMwAsAAAAKAAkACAAAAAAAAAAAAAAAAAAHAAAAAAAGgAAAAAAAAAUAAAAAAAAAAAAAAAAAAAAAAAAAAgAAAAAABsABwBeAAAAAAAAAUAAAABQAAAAbAAAAAIAAAAAAAEAAQAAAAAAQEEAAMBAAABAQAAAyEIAAAABIAAAAAIAAAACAAAAAAA2QwCASkTw/v//9P7///j+//8S////AAAAAAEAAAAEAAAAEQAAAEhHUFNvZWlLYWt1cG9wdGFpAAAAAQAAAAwAAAAIAAwABAAIAAgAAAAIAAAAUAAAAA8AAADjgZ3jgYYg44Gd44GGAAAAAAA2ACQAAAAgABwAAAAAABsAFAAAAAAAAAAAAAAAAAAAAAAAAAAAABAAAAAAAAAADAAAAAgABAA2AAAAAgAAABwAAAAcAAAAHAAAAAAAIEEAAAABaAAAAE3PAEOw////tP///wEAAAAUAAAAEAAaAAgABwAMAAAAEAAUABAAAAAAAAABHAAAAAAAoEEcAAAAAgAAAAAACgAIAAUABgAHAAoAAAAADAD//P///wQABAAEAAAACAAIAAYABwAIAAAAAAAMAA==</value>
					</parameter>
					<parameter authoringApp="PremierePro">
					<parameterid>2</parameterid>
					<name></name>
					<IsTimeVarying>false</IsTimeVarying>
					<ParameterControlType>11</ParameterControlType>
					<LowerBound>false</LowerBound>
					<UpperBound>false</UpperBound>
					<value>-91445760000000000,false,0,0,0,0,0,0</value>
					</parameter>
					<parameter authoringApp="PremierePro">
					<parameterid>3</parameterid>
					<name></name>
					<IsTimeVarying>false</IsTimeVarying>
					<value>-91445760000000000,0.5:0.5,0,0,0,0,0,0,5,4,0,0,0,0</value>
					</parameter>
					<parameter authoringApp="PremierePro">
					<parameterid>4</parameterid>
					<name></name>
					<IsTimeVarying>false</IsTimeVarying>
					<ParameterControlType>2</ParameterControlType>
					<LowerBound>0</LowerBound>
					<UpperBound>4000</UpperBound>
					<value>-91445760000000000,100.,0,0,0,0,0,0</value>
					</parameter>
					<parameter authoringApp="PremierePro">
					<parameterid>8</parameterid>
					<name></name>
					<IsTimeVarying>false</IsTimeVarying>
					<ParameterControlType>2</ParameterControlType>
					<LowerBound>0</LowerBound>
					<UpperBound>100</UpperBound>
					<value>-91445760000000000,100.,0,0,0,0,0,0</value>
					</parameter>
					</effect>
					</filter>
					<logginginfo>
					<description></description>
					<scene></scene>
					<shottake></shottake>
					<lognote></lognote>
					<good></good>
					<originalvideofilename></originalvideofilename>
					<originalaudiofilename></originalaudiofilename>
					</logginginfo>
					<colorinfo>
					<lut></lut>
					<lut1></lut1>
					<asc_sop></asc_sop>
					<asc_sat></asc_sat>
					<lut2></lut2>
					</colorinfo>
					<labels>
					</labels>
					</clipitem>
					<clipitem frameBlend="FALSE" id="clipitem-86">
					<masterclipid>masterclip-6</masterclipid>
					<name></name>
					<enabled>TRUE</enabled>
					<duration>2582774</duration>
					<rate>
					
					                                    <timebase>60</timebase>
					                                    <ntsc>TRUE</ntsc>
					                                
					</rate>
					<start>659</start>
					<end>899</end>
					<in>659</in>
					<out>899</out>
					<pproTicksIn>914456774963789</pproTicksIn>
					<pproTicksOut>914677708529577</pproTicksOut>
					<alphatype>straight</alphatype>
					<pixelaspectratio>square</pixelaspectratio>
					<anamorphic>FALSE</anamorphic>
					<file id="file-5">
					<name></name>
					<mediaSource>GraphicAndType</mediaSource>
					<rate>
					<timebase>60</timebase>
					<ntsc>TRUE</ntsc>
					</rate>
					<timecode>
					<rate>
					<timebase>60</timebase>
					<ntsc>TRUE</ntsc>
					</rate>
					<string>00:00:00:00</string>
					<frame>0</frame>
					<displayformat>NDF</displayformat>
					</timecode>
					<media>
					<video>
					<samplecharacteristics>
					<rate>
					<timebase>60</timebase>
					<ntsc>TRUE</ntsc>
					</rate>
					<width>1080</width>
					<height>1920</height>
					<anamorphic>FALSE</anamorphic>
					<pixelaspectratio>square</pixelaspectratio>
					<fielddominance>none</fielddominance>
					</samplecharacteristics>
					</video>
					</media>
					</file>
					<filter>
					<effect>
					<name> </name>
					<effectid>GraphicAndType</effectid>
					<effectcategory>graphic</effectcategory>
					<effecttype>filter</effecttype>
					<mediatype>video</mediatype>
					<pproBypass>false</pproBypass>
					<parameter authoringApp="PremierePro">
					<parameterid>1</parameterid>
					<name></name>
					<hash>025b1101-ead6-0ca2-1feb-caf3000001fc</hash>
					<value>5AEAAAAAAABEMyIRDAAAAAAABgAKAAQABgAAAGQAAAAAAF4ASAAQAAwARABAADwAOAAAAAAAAAAAADQAMwAsAAAAKAAkACAAAAAAAAAAAAAAAAAAHAAAAAAAGgAAAAAAAAAUAAAAAAAAAAAAAAAAAAAAAAAAAAgAAAAAABsABwBeAAAAAAAAAUAAAABQAAAAbAAAAAIAAAAAAAEAAQAAAAAAQEEAAMBAAABAQAAAyEIAAAABIAAAAAIAAAACAAAAAAA2QwCASkTw/v//9P7///j+//8S////AAAAAAEAAAAEAAAAEQAAAEhHUFNvZWlLYWt1cG9wdGFpAAAAAQAAAAwAAAAIAAwABAAIAAgAAAAIAAAAUAAAAA8AAADlhYjjgavpo7Lpo5/lupcAAAA2ACQAAAAgABwAAAAAABsAFAAAAAAAAAAAAAAAAAAAAAAAAAAAABAAAAAAAAAADAAAAAgABAA2AAAAAgAAABwAAAAcAAAAHAAAAAAAIEEAAAABaAAAAE3PAEOw////tP///wEAAAAUAAAAEAAaAAgABwAMAAAAEAAUABAAAAAAAAABHAAAAAAAoEEcAAAAAgAAAAAACgAIAAUABgAHAAoAAAAADAD//P///wQABAAEAAAACAAIAAYABwAIAAAAAAAMAA==</value>
					</parameter>
					<parameter authoringApp="PremierePro">
					<parameterid>2</parameterid>
					<name></name>
					<IsTimeVarying>false</IsTimeVarying>
					<ParameterControlType>11</ParameterControlType>
					<LowerBound>false</LowerBound>
					<UpperBound>false</UpperBound>
					<value>-91445760000000000,false,0,0,0,0,0,0</value>
					</parameter>
					<parameter authoringApp="PremierePro">
					<parameterid>3</parameterid>
					<name></name>
					<IsTimeVarying>false</IsTimeVarying>
					<value>-91445760000000000,0.5:0.5,0,0,0,0,0,0,5,4,0,0,0,0</value>
					</parameter>
					<parameter authoringApp="PremierePro">
					<parameterid>4</parameterid>
					<name></name>
					<IsTimeVarying>false</IsTimeVarying>
					<ParameterControlType>2</ParameterControlType>
					<LowerBound>0</LowerBound>
					<UpperBound>4000</UpperBound>
					<value>-91445760000000000,100.,0,0,0,0,0,0</value>
					</parameter>
					<parameter authoringApp="PremierePro">
					<parameterid>8</parameterid>
					<name></name>
					<IsTimeVarying>false</IsTimeVarying>
					<ParameterControlType>2</ParameterControlType>
					<LowerBound>0</LowerBound>
					<UpperBound>100</UpperBound>
					<value>-91445760000000000,100.,0,0,0,0,0,0</value>
					</parameter>
					</effect>
					</filter>
					<logginginfo>
					<description></description>
					<scene></scene>
					<shottake></shottake>
					<lognote></lognote>
					<good></good>
					<originalvideofilename></originalvideofilename>
					<originalaudiofilename></originalaudiofilename>
					</logginginfo>
					<colorinfo>
					<lut></lut>
					<lut1></lut1>
					<asc_sop></asc_sop>
					<asc_sat></asc_sat>
					<lut2></lut2>
					</colorinfo>
					<labels>
					</labels>
					</clipitem>
					<clipitem frameBlend="FALSE" id="clipitem-87">
					<masterclipid>masterclip-7</masterclipid>
					<name></name>
					<enabled>TRUE</enabled>
					<duration>2582774</duration>
					<rate>
					
					                                    <timebase>60</timebase>
					                                    <ntsc>TRUE</ntsc>
					                                
					</rate>
					<start>899</start>
					<end>1259</end>
					<in>899</in>
					<out>1259</out>
					<pproTicksIn>914456774963789</pproTicksIn>
					<pproTicksOut>914677708529577</pproTicksOut>
					<alphatype>straight</alphatype>
					<pixelaspectratio>square</pixelaspectratio>
					<anamorphic>FALSE</anamorphic>
					<file id="file-6">
					<name></name>
					<mediaSource>GraphicAndType</mediaSource>
					<rate>
					<timebase>60</timebase>
					<ntsc>TRUE</ntsc>
					</rate>
					<timecode>
					<rate>
					<timebase>60</timebase>
					<ntsc>TRUE</ntsc>
					</rate>
					<string>00:00:00:00</string>
					<frame>0</frame>
					<displayformat>NDF</displayformat>
					</timecode>
					<media>
					<video>
					<samplecharacteristics>
					<rate>
					<timebase>60</timebase>
					<ntsc>TRUE</ntsc>
					</rate>
					<width>1080</width>
					<height>1920</height>
					<anamorphic>FALSE</anamorphic>
					<pixelaspectratio>square</pixelaspectratio>
					<fielddominance>none</fielddominance>
					</samplecharacteristics>
					</video>
					</media>
					</file>
					<filter>
					<effect>
					<name>  </name>
					<effectid>GraphicAndType</effectid>
					<effectcategory>graphic</effectcategory>
					<effecttype>filter</effecttype>
					<mediatype>video</mediatype>
					<pproBypass>false</pproBypass>
					<parameter authoringApp="PremierePro">
					<parameterid>1</parameterid>
					<name></name>
					<hash>025b1101-ead6-0ca2-1feb-caf3000001fc</hash>
					<value>5AEAAAAAAABEMyIRDAAAAAAABgAKAAQABgAAAGQAAAAAAF4ASAAQAAwARABAADwAOAAAAAAAAAAAADQAMwAsAAAAKAAkACAAAAAAAAAAAAAAAAAAHAAAAAAAGgAAAAAAAAAUAAAAAAAAAAAAAAAAAAAAAAAAAAgAAAAAABsABwBeAAAAAAAAAUAAAABQAAAAbAAAAAIAAAAAAAEAAQAAAAAAQEEAAMBAAABAQAAAyEIAAAABIAAAAAIAAAACAAAAAAA2QwCASkTw/v//9P7///j+//8S////AAAAAAEAAAAEAAAAEQAAAEhHUFNvZWlLYWt1cG9wdGFpAAAAAQAAAAwAAAAIAAwABAAIAAgAAAAIAAAAUAAAAA0AAADjgZXjgaPjgY0g44OagpMAAAA2ACQAAAAgABwAAAAAABsAFAAAAAAAAAAAAAAAAAAAAAAAAAAAABAAAAAAAAAADAAAAAgABAA2AAAAAgAAABwAAAAcAAAAHAAAAAAAIEEAAAABaAAAAE3PAEOw////tP///wEAAAAUAAAAEAAaAAgABwAMAAAAEAAUABAAAAAAAAABHAAAAAAAoEEcAAAAAgAAAAAACgAIAAUABgAHAAoAAAAADAD//P///wQABAAEAAAACAAIAAYABwAIAAAAAAAMAA==</value>
					</parameter>
					<parameter authoringApp="PremierePro">
					<parameterid>2</parameterid>
					<name></name>
					<IsTimeVarying>false</IsTimeVarying>
					<ParameterControlType>11</ParameterControlType>
					<LowerBound>false</LowerBound>
					<UpperBound>false</UpperBound>
					<value>-91445760000000000,false,0,0,0,0,0,0</value>
					</parameter>
					<parameter authoringApp="PremierePro">
					<parameterid>3</parameterid>
					<name></name>
					<IsTimeVarying>false</IsTimeVarying>
					<value>-91445760000000000,0.5:0.5,0,0,0,0,0,0,5,4,0,0,0,0</value>
					</parameter>
					<parameter authoringApp="PremierePro">
					<parameterid>4</parameterid>
					<name></name>
					<IsTimeVarying>false</IsTimeVarying>
					<ParameterControlType>2</ParameterControlType>
					<LowerBound>0</LowerBound>
					<UpperBound>4000</UpperBound>
					<value>-91445760000000000,100.,0,0,0,0,0,0</value>
					</parameter>
					<parameter authoringApp="PremierePro">
					<parameterid>8</parameterid>
					<name></name>
					<IsTimeVarying>false</IsTimeVarying>
					<ParameterControlType>2</ParameterControlType>
					<LowerBound>0</LowerBound>
					<UpperBound>100</UpperBound>
					<value>-91445760000000000,100.,0,0,0,0,0,0</value>
					</parameter>
					</effect>
					</filter>
					<logginginfo>
					<description></description>
					<scene></scene>
					<shottake></shottake>
					<lognote></lognote>
					<good></good>
					<originalvideofilename></originalvideofilename>
					<originalaudiofilename></originalaudiofilename>
					</logginginfo>
					<colorinfo>
					<lut></lut>
					<lut1></lut1>
					<asc_sop></asc_sop>
					<asc_sat></asc_sat>
					<lut2></lut2>
					</colorinfo>
					<labels>
					</labels>
					</clipitem>
					<clipitem frameBlend="FALSE" id="clipitem-88">
					<masterclipid>masterclip-8</masterclipid>
					<name></name>
					<enabled>TRUE</enabled>
					<duration>2582774</duration>
					<rate>
					
					                                    <timebase>60</timebase>
					                                    <ntsc>TRUE</ntsc>
					                                
					</rate>
					<start>1259</start>
					<end>1439</end>
					<in>1259</in>
					<out>1439</out>
					<pproTicksIn>914456774963789</pproTicksIn>
					<pproTicksOut>914677708529577</pproTicksOut>
					<alphatype>straight</alphatype>
					<pixelaspectratio>square</pixelaspectratio>
					<anamorphic>FALSE</anamorphic>
					<file id="file-7">
					<name></name>
					<mediaSource>GraphicAndType</mediaSource>
					<rate>
					<timebase>60</timebase>
					<ntsc>TRUE</ntsc>
					</rate>
					<timecode>
					<rate>
					<timebase>60</timebase>
					<ntsc>TRUE</ntsc>
					</rate>
					<string>00:00:00:00</string>
					<frame>0</frame>
					<displayformat>NDF</displayformat>
					</timecode>
					<media>
					<video>
					<samplecharacteristics>
					<rate>
					<timebase>60</timebase>
					<ntsc>TRUE</ntsc>
					</rate>
					<width>1080</width>
					<height>1920</height>
					<anamorphic>FALSE</anamorphic>
					<pixelaspectratio>square</pixelaspectratio>
					<fielddominance>none</fielddominance>
					</samplecharacteristics>
					</video>
					</media>
					</file>
					<filter>
					<effect>
					<name>    </name>
					<effectid>GraphicAndType</effectid>
					<effectcategory>graphic</effectcategory>
					<effecttype>filter</effecttype>
					<mediatype>video</mediatype>
					<pproBypass>false</pproBypass>
					<parameter authoringApp="PremierePro">
					<parameterid>1</parameterid>
					<name></name>
					<hash>025b1101-ead6-0ca2-1feb-caf3000001fc</hash>
					<value>5AEAAAAAAABEMyIRDAAAAAAABgAKAAQABgAAAGQAAAAAAF4ASAAQAAwARABAADwAOAAAAAAAAAAAADQAMwAsAAAAKAAkACAAAAAAAAAAAAAAAAAAHAAAAAAAGgAAAAAAAAAUAAAAAAAAAAAAAAAAAAAAAAAAAAgAAAAAABsABwBeAAAAAAAAAUAAAABQAAAAbAAAAAIAAAAAAAEAAQAAAAAAQEEAAMBAAABAQAAAyEIAAAABIAAAAAIAAAACAAAAAAA2QwCASkTw/v//9P7///j+//8S////AAAAAAEAAAAEAAAAEQAAAEhHUFNvZWlLYWt1cG9wdGFpAAAAAQAAAAwAAAAIAAwABAAIAAgAAAAIAAAAUAAAAA4AAADjgb7jgYIg44Gn44KCIJMAAAA2ACQAAAAgABwAAAAAABsAFAAAAAAAAAAAAAAAAAAAAAAAAAAAABAAAAAAAAAADAAAAAgABAA2AAAAAgAAABwAAAAcAAAAHAAAAAAAIEEAAAABaAAAAE3PAEOw////tP///wEAAAAUAAAAEAAaAAgABwAMAAAAEAAUABAAAAAAAAABHAAAAAAAoEEcAAAAAgAAAAAACgAIAAUABgAHAAoAAAAADAD//P///wQABAAEAAAACAAIAAYABwAIAAAAAAAMAA==</value>
					</parameter>
					<parameter authoringApp="PremierePro">
					<parameterid>2</parameterid>
					<name></name>
					<IsTimeVarying>false</IsTimeVarying>
					<ParameterControlType>11</ParameterControlType>
					<LowerBound>false</LowerBound>
					<UpperBound>false</UpperBound>
					<value>-91445760000000000,false,0,0,0,0,0,0</value>
					</parameter>
					<parameter authoringApp="PremierePro">
					<parameterid>3</parameterid>
					<name></name>
					<IsTimeVarying>false</IsTimeVarying>
					<value>-91445760000000000,0.5:0.5,0,0,0,0,0,0,5,4,0,0,0,0</value>
					</parameter>
					<parameter authoringApp="PremierePro">
					<parameterid>4</parameterid>
					<name></name>
					<IsTimeVarying>false</IsTimeVarying>
					<ParameterControlType>2</ParameterControlType>
					<LowerBound>0</LowerBound>
					<UpperBound>4000</UpperBound>
					<value>-91445760000000000,100.,0,0,0,0,0,0</value>
					</parameter>
					<parameter authoringApp="PremierePro">
					<parameterid>8</parameterid>
					<name></name>
					<IsTimeVarying>false</IsTimeVarying>
					<ParameterControlType>2</ParameterControlType>
					<LowerBound>0</LowerBound>
					<UpperBound>100</UpperBound>
					<value>-91445760000000000,100.,0,0,0,0,0,0</value>
					</parameter>
					</effect>
					</filter>
					<logginginfo>
					<description></description>
					<scene></scene>
					<shottake></shottake>
					<lognote></lognote>
					<good></good>
					<originalvideofilename></originalvideofilename>
					<originalaudiofilename></originalaudiofilename>
					</logginginfo>
					<colorinfo>
					<lut></lut>
					<lut1></lut1>
					<asc_sop></asc_sop>
					<asc_sat></asc_sat>
					<lut2></lut2>
					</colorinfo>
					<labels>
					</labels>
					</clipitem>
					<clipitem frameBlend="FALSE" id="clipitem-89">
					<masterclipid>masterclip-9</masterclipid>
					<name></name>
					<enabled>TRUE</enabled>
					<duration>2582774</duration>
					<rate>
					
					                                    <timebase>60</timebase>
					                                    <ntsc>TRUE</ntsc>
					                                
					</rate>
					<start>1439</start>
					<end>1679</end>
					<in>1439</in>
					<out>1679</out>
					<pproTicksIn>914456774963789</pproTicksIn>
					<pproTicksOut>914677708529577</pproTicksOut>
					<alphatype>straight</alphatype>
					<pixelaspectratio>square</pixelaspectratio>
					<anamorphic>FALSE</anamorphic>
					<file id="file-8">
					<name></name>
					<mediaSource>GraphicAndType</mediaSource>
					<rate>
					<timebase>60</timebase>
					<ntsc>TRUE</ntsc>
					</rate>
					<timecode>
					<rate>
					<timebase>60</timebase>
					<ntsc>TRUE</ntsc>
					</rate>
					<string>00:00:00:00</string>
					<frame>0</frame>
					<displayformat>NDF</displayformat>
					</timecode>
					<media>
					<video>
					<samplecharacteristics>
					<rate>
					<timebase>60</timebase>
					<ntsc>TRUE</ntsc>
					</rate>
					<width>1080</width>
					<height>1920</height>
					<anamorphic>FALSE</anamorphic>
					<pixelaspectratio>square</pixelaspectratio>
					<fielddominance>none</fielddominance>
					</samplecharacteristics>
					</video>
					</media>
					</file>
					<filter>
					<effect>
					<name> 1</name>
					<effectid>GraphicAndType</effectid>
					<effectcategory>graphic</effectcategory>
					<effecttype>filter</effecttype>
					<mediatype>video</mediatype>
					<pproBypass>false</pproBypass>
					<parameter authoringApp="PremierePro">
					<parameterid>1</parameterid>
					<name></name>
					<hash>025b1101-ead6-0ca2-1feb-caf3000001fc</hash>
					<value>5AEAAAAAAABEMyIRDAAAAAAABgAKAAQABgAAAGQAAAAAAF4ASAAQAAwARABAADwAOAAAAAAAAAAAADQAMwAsAAAAKAAkACAAAAAAAAAAAAAAAAAAHAAAAAAAGgAAAAAAAAAUAAAAAAAAAAAAAAAAAAAAAAAAAAgAAAAAABsABwBeAAAAAAAAAUAAAABQAAAAbAAAAAIAAAAAAAEAAQAAAAAAQEEAAMBAAABAQAAAyEIAAAABIAAAAAIAAAACAAAAAAA2QwCASkTw/v//9P7///j+//8S////AAAAAAEAAAAEAAAAEQAAAEhHUFNvZWlLYWt1cG9wdGFpAAAAAQAAAAwAAAAIAAwABAAIAAgAAAAIAAAAUAAAAA0AAADjgZjjgoPjgYIg6YCGgpMAAAA2ACQAAAAgABwAAAAAABsAFAAAAAAAAAAAAAAAAAAAAAAAAAAAABAAAAAAAAAADAAAAAgABAA2AAAAAgAAABwAAAAcAAAAHAAAAAAAIEEAAAABaAAAAE3PAEOw////tP///wEAAAAUAAAAEAAaAAgABwAMAAAAEAAUABAAAAAAAAABHAAAAAAAoEEcAAAAAgAAAAAACgAIAAUABgAHAAoAAAAADAD//P///wQABAAEAAAACAAIAAYABwAIAAAAAAAMAA==</value>
					</parameter>
					<parameter authoringApp="PremierePro">
					<parameterid>2</parameterid>
					<name></name>
					<IsTimeVarying>false</IsTimeVarying>
					<ParameterControlType>11</ParameterControlType>
					<LowerBound>false</LowerBound>
					<UpperBound>false</UpperBound>
					<value>-91445760000000000,false,0,0,0,0,0,0</value>
					</parameter>
					<parameter authoringApp="PremierePro">
					<parameterid>3</parameterid>
					<name></name>
					<IsTimeVarying>false</IsTimeVarying>
					<value>-91445760000000000,0.5:0.5,0,0,0,0,0,0,5,4,0,0,0,0</value>
					</parameter>
					<parameter authoringApp="PremierePro">
					<parameterid>4</parameterid>
					<name></name>
					<IsTimeVarying>false</IsTimeVarying>
					<ParameterControlType>2</ParameterControlType>
					<LowerBound>0</LowerBound>
					<UpperBound>4000</UpperBound>
					<value>-91445760000000000,100.,0,0,0,0,0,0</value>
					</parameter>
					<parameter authoringApp="PremierePro">
					<parameterid>8</parameterid>
					<name></name>
					<IsTimeVarying>false</IsTimeVarying>
					<ParameterControlType>2</ParameterControlType>
					<LowerBound>0</LowerBound>
					<UpperBound>100</UpperBound>
					<value>-91445760000000000,100.,0,0,0,0,0,0</value>
					</parameter>
					</effect>
					</filter>
					<logginginfo>
					<description></description>
					<scene></scene>
					<shottake></shottake>
					<lognote></lognote>
					<good></good>
					<originalvideofilename></originalvideofilename>
					<originalaudiofilename></originalaudiofilename>
					</logginginfo>
					<colorinfo>
					<lut></lut>
					<lut1></lut1>
					<asc_sop></asc_sop>
					<asc_sat></asc_sat>
					<lut2></lut2>
					</colorinfo>
					<labels>
					</labels>
					</clipitem>
					<clipitem frameBlend="FALSE" id="clipitem-90">
					<masterclipid>masterclip-10</masterclipid>
					<name></name>
					<enabled>TRUE</enabled>
					<duration>2582774</duration>
					<rate>
					
					                                    <timebase>60</timebase>
					                                    <ntsc>TRUE</ntsc>
					                                
					</rate>
					<start>1679</start>
					<end>1979</end>
					<in>1679</in>
					<out>1979</out>
					<pproTicksIn>914456774963789</pproTicksIn>
					<pproTicksOut>914677708529577</pproTicksOut>
					<alphatype>straight</alphatype>
					<pixelaspectratio>square</pixelaspectratio>
					<anamorphic>FALSE</anamorphic>
					<file id="file-9">
					<name></name>
					<mediaSource>GraphicAndType</mediaSource>
					<rate>
					<timebase>60</timebase>
					<ntsc>TRUE</ntsc>
					</rate>
					<timecode>
					<rate>
					<timebase>60</timebase>
					<ntsc>TRUE</ntsc>
					</rate>
					<string>00:00:00:00</string>
					<frame>0</frame>
					<displayformat>NDF</displayformat>
					</timecode>
					<media>
					<video>
					<samplecharacteristics>
					<rate>
					<timebase>60</timebase>
					<ntsc>TRUE</ntsc>
					</rate>
					<width>1080</width>
					<height>1920</height>
					<anamorphic>FALSE</anamorphic>
					<pixelaspectratio>square</pixelaspectratio>
					<fielddominance>none</fielddominance>
					</samplecharacteristics>
					</video>
					</media>
					</file>
					<filter>
					<effect>
					<name>1 1</name>
					<effectid>GraphicAndType</effectid>
					<effectcategory>graphic</effectcategory>
					<effecttype>filter</effecttype>
					<mediatype>video</mediatype>
					<pproBypass>false</pproBypass>
					<parameter authoringApp="PremierePro">
					<parameterid>1</parameterid>
					<name></name>
					<hash>025b1101-ead6-0ca2-1feb-caf3000001fc</hash>
					<value>5AEAAAAAAABEMyIRDAAAAAAABgAKAAQABgAAAGQAAAAAAF4ASAAQAAwARABAADwAOAAAAAAAAAAAADQAMwAsAAAAKAAkACAAAAAAAAAAAAAAAAAAHAAAAAAAGgAAAAAAAAAUAAAAAAAAAAAAAAAAAAAAAAAAAAgAAAAAABsABwBeAAAAAAAAAUAAAABQAAAAbAAAAAIAAAAAAAEAAQAAAAAAQEEAAMBAAABAQAAAyEIAAAABIAAAAAIAAAACAAAAAAA2QwCASkTw/v//9P7///j+//8S////AAAAAAEAAAAEAAAAEQAAAEhHUFNvZWlLYWt1cG9wdGFpAAAAAQAAAAwAAAAIAAwABAAIAAgAAAAIAAAAUAAAAA4AAAAx5Lq655uuIOecn+OBrpMAAAA2ACQAAAAgABwAAAAAABsAFAAAAAAAAAAAAAAAAAAAAAAAAAAAABAAAAAAAAAADAAAAAgABAA2AAAAAgAAABwAAAAcAAAAHAAAAAAAIEEAAAABaAAAAE3PAEOw////tP///wEAAAAUAAAAEAAaAAgABwAMAAAAEAAUABAAAAAAAAABHAAAAAAAoEEcAAAAAgAAAAAACgAIAAUABgAHAAoAAAAADAD//P///wQABAAEAAAACAAIAAYABwAIAAAAAAAMAA==</value>
					</parameter>
					<parameter authoringApp="PremierePro">
					<parameterid>2</parameterid>
					<name></name>
					<IsTimeVarying>false</IsTimeVarying>
					<ParameterControlType>11</ParameterControlType>
					<LowerBound>false</LowerBound>
					<UpperBound>false</UpperBound>
					<value>-91445760000000000,false,0,0,0,0,0,0</value>
					</parameter>
					<parameter authoringApp="PremierePro">
					<parameterid>3</parameterid>
					<name></name>
					<IsTimeVarying>false</IsTimeVarying>
					<value>-91445760000000000,0.5:0.5,0,0,0,0,0,0,5,4,0,0,0,0</value>
					</parameter>
					<parameter authoringApp="PremierePro">
					<parameterid>4</parameterid>
					<name></name>
					<IsTimeVarying>false</IsTimeVarying>
					<ParameterControlType>2</ParameterControlType>
					<LowerBound>0</LowerBound>
					<UpperBound>4000</UpperBound>
					<value>-91445760000000000,100.,0,0,0,0,0,0</value>
					</parameter>
					<parameter authoringApp="PremierePro">
					<parameterid>8</parameterid>
					<name></name>
					<IsTimeVarying>false</IsTimeVarying>
					<ParameterControlType>2</ParameterControlType>
					<LowerBound>0</LowerBound>
					<UpperBound>100</UpperBound>
					<value>-91445760000000000,100.,0,0,0,0,0,0</value>
					</parameter>
					</effect>
					</filter>
					<logginginfo>
					<description></description>
					<scene></scene>
					<shottake></shottake>
					<lognote></lognote>
					<good></good>
					<originalvideofilename></originalvideofilename>
					<originalaudiofilename></originalaudiofilename>
					</logginginfo>
					<colorinfo>
					<lut></lut>
					<lut1></lut1>
					<asc_sop></asc_sop>
					<asc_sat></asc_sat>
					<lut2></lut2>
					</colorinfo>
					<labels>
					</labels>
					</clipitem>
					<clipitem frameBlend="FALSE" id="clipitem-91">
					<masterclipid>masterclip-11</masterclipid>
					<name></name>
					<enabled>TRUE</enabled>
					<duration>2582774</duration>
					<rate>
					
					                                    <timebase>60</timebase>
					                                    <ntsc>TRUE</ntsc>
					                                
					</rate>
					<start>1979</start>
					<end>2099</end>
					<in>1979</in>
					<out>2099</out>
					<pproTicksIn>914456774963789</pproTicksIn>
					<pproTicksOut>914677708529577</pproTicksOut>
					<alphatype>straight</alphatype>
					<pixelaspectratio>square</pixelaspectratio>
					<anamorphic>FALSE</anamorphic>
					<file id="file-10">
					<name></name>
					<mediaSource>GraphicAndType</mediaSource>
					<rate>
					<timebase>60</timebase>
					<ntsc>TRUE</ntsc>
					</rate>
					<timecode>
					<rate>
					<timebase>60</timebase>
					<ntsc>TRUE</ntsc>
					</rate>
					<string>00:00:00:00</string>
					<frame>0</frame>
					<displayformat>NDF</displayformat>
					</timecode>
					<media>
					<video>
					<samplecharacteristics>
					<rate>
					<timebase>60</timebase>
					<ntsc>TRUE</ntsc>
					</rate>
					<width>1080</width>
					<height>1920</height>
					<anamorphic>FALSE</anamorphic>
					<pixelaspectratio>square</pixelaspectratio>
					<fielddominance>none</fielddominance>
					</samplecharacteristics>
					</video>
					</media>
					</file>
					<filter>
					<effect>
					<name>  </name>
					<effectid>GraphicAndType</effectid>
					<effectcategory>graphic</effectcategory>
					<effecttype>filter</effecttype>
					<mediatype>video</mediatype>
					<pproBypass>false</pproBypass>
					<parameter authoringApp="PremierePro">
					<parameterid>1</parameterid>
					<name></name>
					<hash>025b1101-ead6-0ca2-1feb-caf3000001fc</hash>
					<value>5AEAAAAAAABEMyIRDAAAAAAABgAKAAQABgAAAGQAAAAAAF4ASAAQAAwARABAADwAOAAAAAAAAAAAADQAMwAsAAAAKAAkACAAAAAAAAAAAAAAAAAAHAAAAAAAGgAAAAAAAAAUAAAAAAAAAAAAAAAAAAAAAAAAAAgAAAAAABsABwBeAAAAAAAAAUAAAABQAAAAbAAAAAIAAAAAAAEAAQAAAAAAQEEAAMBAAABAQAAAyEIAAAABIAAAAAIAAAACAAAAAAA2QwCASkTw/v//9P7///j+//8S////AAAAAAEAAAAEAAAAEQAAAEhHUFNvZWlLYWt1cG9wdGFpAAAAAQAAAAwAAAAIAAwABAAIAAgAAAAIAAAAUAAAAA8AAADjganjgYbjgYvjgarjgYEAAAA2ACQAAAAgABwAAAAAABsAFAAAAAAAAAAAAAAAAAAAAAAAAAAAABAAAAAAAAAADAAAAAgABAA2AAAAAgAAABwAAAAcAAAAHAAAAAAAIEEAAAABaAAAAE3PAEOw////tP///wEAAAAUAAAAEAAaAAgABwAMAAAAEAAUABAAAAAAAAABHAAAAAAAoEEcAAAAAgAAAAAACgAIAAUABgAHAAoAAAAADAD//P///wQABAAEAAAACAAIAAYABwAIAAAAAAAMAA==</value>
					</parameter>
					<parameter authoringApp="PremierePro">
					<parameterid>2</parameterid>
					<name></name>
					<IsTimeVarying>false</IsTimeVarying>
					<ParameterControlType>11</ParameterControlType>
					<LowerBound>false</LowerBound>
					<UpperBound>false</UpperBound>
					<value>-91445760000000000,false,0,0,0,0,0,0</value>
					</parameter>
					<parameter authoringApp="PremierePro">
					<parameterid>3</parameterid>
					<name></name>
					<IsTimeVarying>false</IsTimeVarying>
					<value>-91445760000000000,0.5:0.5,0,0,0,0,0,0,5,4,0,0,0,0</value>
					</parameter>
					<parameter authoringApp="PremierePro">
					<parameterid>4</parameterid>
					<name></name>
					<IsTimeVarying>false</IsTimeVarying>
					<ParameterControlType>2</ParameterControlType>
					<LowerBound>0</LowerBound>
					<UpperBound>4000</UpperBound>
					<value>-91445760000000000,100.,0,0,0,0,0,0</value>
					</parameter>
					<parameter authoringApp="PremierePro">
					<parameterid>8</parameterid>
					<name></name>
					<IsTimeVarying>false</IsTimeVarying>
					<ParameterControlType>2</ParameterControlType>
					<LowerBound>0</LowerBound>
					<UpperBound>100</UpperBound>
					<value>-91445760000000000,100.,0,0,0,0,0,0</value>
					</parameter>
					</effect>
					</filter>
					<logginginfo>
					<description></description>
					<scene></scene>
					<shottake></shottake>
					<lognote></lognote>
					<good></good>
					<originalvideofilename></originalvideofilename>
					<originalaudiofilename></originalaudiofilename>
					</logginginfo>
					<colorinfo>
					<lut></lut>
					<lut1></lut1>
					<asc_sop></asc_sop>
					<asc_sat></asc_sat>
					<lut2></lut2>
					</colorinfo>
					<labels>
					</labels>
					</clipitem>
					<clipitem frameBlend="FALSE" id="clipitem-92">
					<masterclipid>masterclip-12</masterclipid>
					<name></name>
					<enabled>TRUE</enabled>
					<duration>2582774</duration>
					<rate>
					
					                                    <timebase>60</timebase>
					                                    <ntsc>TRUE</ntsc>
					                                
					</rate>
					<start>2099</start>
					<end>2399</end>
					<in>2099</in>
					<out>2399</out>
					<pproTicksIn>914456774963789</pproTicksIn>
					<pproTicksOut>914677708529577</pproTicksOut>
					<alphatype>straight</alphatype>
					<pixelaspectratio>square</pixelaspectratio>
					<anamorphic>FALSE</anamorphic>
					<file id="file-11">
					<name></name>
					<mediaSource>GraphicAndType</mediaSource>
					<rate>
					<timebase>60</timebase>
					<ntsc>TRUE</ntsc>
					</rate>
					<timecode>
					<rate>
					<timebase>60</timebase>
					<ntsc>TRUE</ntsc>
					</rate>
					<string>00:00:00:00</string>
					<frame>0</frame>
					<displayformat>NDF</displayformat>
					</timecode>
					<media>
					<video>
					<samplecharacteristics>
					<rate>
					<timebase>60</timebase>
					<ntsc>TRUE</ntsc>
					</rate>
					<width>1080</width>
					<height>1920</height>
					<anamorphic>FALSE</anamorphic>
					<pixelaspectratio>square</pixelaspectratio>
					<fielddominance>none</fielddominance>
					</samplecharacteristics>
					</video>
					</media>
					</file>
					<filter>
					<effect>
					<name> </name>
					<effectid>GraphicAndType</effectid>
					<effectcategory>graphic</effectcategory>
					<effecttype>filter</effecttype>
					<mediatype>video</mediatype>
					<pproBypass>false</pproBypass>
					<parameter authoringApp="PremierePro">
					<parameterid>1</parameterid>
					<name></name>
					<hash>025b1101-ead6-0ca2-1feb-caf3000001fc</hash>
					<value>5AEAAAAAAABEMyIRDAAAAAAABgAKAAQABgAAAGQAAAAAAF4ASAAQAAwARABAADwAOAAAAAAAAAAAADQAMwAsAAAAKAAkACAAAAAAAAAAAAAAAAAAHAAAAAAAGgAAAAAAAAAUAAAAAAAAAAAAAAAAAAAAAAAAAAgAAAAAABsABwBeAAAAAAAAAUAAAABQAAAAbAAAAAIAAAAAAAEAAQAAAAAAQEEAAMBAAABAQAAAyEIAAAABIAAAAAIAAAACAAAAAAA2QwCASkTw/v//9P7///j+//8S////AAAAAAEAAAAEAAAAEQAAAEhHUFNvZWlLYWt1cG9wdGFpAAAAAQAAAAwAAAAIAAwABAAIAAgAAAAIAAAAUAAAAA0AAADoh6rnhLbjgYsg44KqgpMAAAA2ACQAAAAgABwAAAAAABsAFAAAAAAAAAAAAAAAAAAAAAAAAAAAABAAAAAAAAAADAAAAAgABAA2AAAAAgAAABwAAAAcAAAAHAAAAAAAIEEAAAABaAAAAE3PAEOw////tP///wEAAAAUAAAAEAAaAAgABwAMAAAAEAAUABAAAAAAAAABHAAAAAAAoEEcAAAAAgAAAAAACgAIAAUABgAHAAoAAAAADAD//P///wQABAAEAAAACAAIAAYABwAIAAAAAAAMAA==</value>
					</parameter>
					<parameter authoringApp="PremierePro">
					<parameterid>2</parameterid>
					<name></name>
					<IsTimeVarying>false</IsTimeVarying>
					<ParameterControlType>11</ParameterControlType>
					<LowerBound>false</LowerBound>
					<UpperBound>false</UpperBound>
					<value>-91445760000000000,false,0,0,0,0,0,0</value>
					</parameter>
					<parameter authoringApp="PremierePro">
					<parameterid>3</parameterid>
					<name></name>
					<IsTimeVarying>false</IsTimeVarying>
					<value>-91445760000000000,0.5:0.5,0,0,0,0,0,0,5,4,0,0,0,0</value>
					</parameter>
					<parameter authoringApp="PremierePro">
					<parameterid>4</parameterid>
					<name></name>
					<IsTimeVarying>false</IsTimeVarying>
					<ParameterControlType>2</ParameterControlType>
					<LowerBound>0</LowerBound>
					<UpperBound>4000</UpperBound>
					<value>-91445760000000000,100.,0,0,0,0,0,0</value>
					</parameter>
					<parameter authoringApp="PremierePro">
					<parameterid>8</parameterid>
					<name></name>
					<IsTimeVarying>false</IsTimeVarying>
					<ParameterControlType>2</ParameterControlType>
					<LowerBound>0</LowerBound>
					<UpperBound>100</UpperBound>
					<value>-91445760000000000,100.,0,0,0,0,0,0</value>
					</parameter>
					</effect>
					</filter>
					<logginginfo>
					<description></description>
					<scene></scene>
					<shottake></shottake>
					<lognote></lognote>
					<good></good>
					<originalvideofilename></originalvideofilename>
					<originalaudiofilename></originalaudiofilename>
					</logginginfo>
					<colorinfo>
					<lut></lut>
					<lut1></lut1>
					<asc_sop></asc_sop>
					<asc_sat></asc_sat>
					<lut2></lut2>
					</colorinfo>
					<labels>
					</labels>
					</clipitem>
					<clipitem frameBlend="FALSE" id="clipitem-93">
					<masterclipid>masterclip-13</masterclipid>
					<name></name>
					<enabled>TRUE</enabled>
					<duration>2582774</duration>
					<rate>
					
					                                    <timebase>60</timebase>
					                                    <ntsc>TRUE</ntsc>
					                                
					</rate>
					<start>2399</start>
					<end>2639</end>
					<in>2399</in>
					<out>2639</out>
					<pproTicksIn>914456774963789</pproTicksIn>
					<pproTicksOut>914677708529577</pproTicksOut>
					<alphatype>straight</alphatype>
					<pixelaspectratio>square</pixelaspectratio>
					<anamorphic>FALSE</anamorphic>
					<file id="file-12">
					<name></name>
					<mediaSource>GraphicAndType</mediaSource>
					<rate>
					<timebase>60</timebase>
					<ntsc>TRUE</ntsc>
					</rate>
					<timecode>
					<rate>
					<timebase>60</timebase>
					<ntsc>TRUE</ntsc>
					</rate>
					<string>00:00:00:00</string>
					<frame>0</frame>
					<displayformat>NDF</displayformat>
					</timecode>
					<media>
					<video>
					<samplecharacteristics>
					<rate>
					<timebase>60</timebase>
					<ntsc>TRUE</ntsc>
					</rate>
					<width>1080</width>
					<height>1920</height>
					<anamorphic>FALSE</anamorphic>
					<pixelaspectratio>square</pixelaspectratio>
					<fielddominance>none</fielddominance>
					</samplecharacteristics>
					</video>
					</media>
					</file>
					<filter>
					<effect>
					<name>   </name>
					<effectid>GraphicAndType</effectid>
					<effectcategory>graphic</effectcategory>
					<effecttype>filter</effecttype>
					<mediatype>video</mediatype>
					<pproBypass>false</pproBypass>
					<parameter authoringApp="PremierePro">
					<parameterid>1</parameterid>
					<name></name>
					<hash>025b1101-ead6-0ca2-1feb-caf3000001fc</hash>
					<value>5AEAAAAAAABEMyIRDAAAAAAABgAKAAQABgAAAGQAAAAAAF4ASAAQAAwARABAADwAOAAAAAAAAAAAADQAMwAsAAAAKAAkACAAAAAAAAAAAAAAAAAAHAAAAAAAGgAAAAAAAAAUAAAAAAAAAAAAAAAAAAAAAAAAAAgAAAAAABsABwBeAAAAAAAAAUAAAABQAAAAbAAAAAIAAAAAAAEAAQAAAAAAQEEAAMBAAABAQAAAyEIAAAABIAAAAAIAAAACAAAAAAA2QwCASkTw/v//9P7///j+//8S////AAAAAAEAAAAEAAAAEQAAAEhHUFNvZWlLYWt1cG9wdGFpAAAAAQAAAAwAAAAIAAwABAAIAAgAAAAIAAAAUAAAAA0AAADjgqrjgrnjgrnjg6EggpMAAAA2ACQAAAAgABwAAAAAABsAFAAAAAAAAAAAAAAAAAAAAAAAAAAAABAAAAAAAAAADAAAAAgABAA2AAAAAgAAABwAAAAcAAAAHAAAAAAAIEEAAAABaAAAAE3PAEOw////tP///wEAAAAUAAAAEAAaAAgABwAMAAAAEAAUABAAAAAAAAABHAAAAAAAoEEcAAAAAgAAAAAACgAIAAUABgAHAAoAAAAADAD//P///wQABAAEAAAACAAIAAYABwAIAAAAAAAMAA==</value>
					</parameter>
					<parameter authoringApp="PremierePro">
					<parameterid>2</parameterid>
					<name></name>
					<IsTimeVarying>false</IsTimeVarying>
					<ParameterControlType>11</ParameterControlType>
					<LowerBound>false</LowerBound>
					<UpperBound>false</UpperBound>
					<value>-91445760000000000,false,0,0,0,0,0,0</value>
					</parameter>
					<parameter authoringApp="PremierePro">
					<parameterid>3</parameterid>
					<name></name>
					<IsTimeVarying>false</IsTimeVarying>
					<value>-91445760000000000,0.5:0.5,0,0,0,0,0,0,5,4,0,0,0,0</value>
					</parameter>
					<parameter authoringApp="PremierePro">
					<parameterid>4</parameterid>
					<name></name>
					<IsTimeVarying>false</IsTimeVarying>
					<ParameterControlType>2</ParameterControlType>
					<LowerBound>0</LowerBound>
					<UpperBound>4000</UpperBound>
					<value>-91445760000000000,100.,0,0,0,0,0,0</value>
					</parameter>
					<parameter authoringApp="PremierePro">
					<parameterid>8</parameterid>
					<name></name>
					<IsTimeVarying>false</IsTimeVarying>
					<ParameterControlType>2</ParameterControlType>
					<LowerBound>0</LowerBound>
					<UpperBound>100</UpperBound>
					<value>-91445760000000000,100.,0,0,0,0,0,0</value>
					</parameter>
					</effect>
					</filter>
					<logginginfo>
					<description></description>
					<scene></scene>
					<shottake></shottake>
					<lognote></lognote>
					<good></good>
					<originalvideofilename></originalvideofilename>
					<originalaudiofilename></originalaudiofilename>
					</logginginfo>
					<colorinfo>
					<lut></lut>
					<lut1></lut1>
					<asc_sop></asc_sop>
					<asc_sat></asc_sat>
					<lut2></lut2>
					</colorinfo>
					<labels>
					</labels>
					</clipitem>
					<clipitem frameBlend="FALSE" id="clipitem-94">
					<masterclipid>masterclip-14</masterclipid>
					<name></name>
					<enabled>TRUE</enabled>
					<duration>2582774</duration>
					<rate>
					
					                                    <timebase>60</timebase>
					                                    <ntsc>TRUE</ntsc>
					                                
					</rate>
					<start>2639</start>
					<end>2879</end>
					<in>2639</in>
					<out>2879</out>
					<pproTicksIn>914456774963789</pproTicksIn>
					<pproTicksOut>914677708529577</pproTicksOut>
					<alphatype>straight</alphatype>
					<pixelaspectratio>square</pixelaspectratio>
					<anamorphic>FALSE</anamorphic>
					<file id="file-13">
					<name></name>
					<mediaSource>GraphicAndType</mediaSource>
					<rate>
					<timebase>60</timebase>
					<ntsc>TRUE</ntsc>
					</rate>
					<timecode>
					<rate>
					<timebase>60</timebase>
					<ntsc>TRUE</ntsc>
					</rate>
					<string>00:00:00:00</string>
					<frame>0</frame>
					<displayformat>NDF</displayformat>
					</timecode>
					<media>
					<video>
					<samplecharacteristics>
					<rate>
					<timebase>60</timebase>
					<ntsc>TRUE</ntsc>
					</rate>
					<width>1080</width>
					<height>1920</height>
					<anamorphic>FALSE</anamorphic>
					<pixelaspectratio>square</pixelaspectratio>
					<fielddominance>none</fielddominance>
					</samplecharacteristics>
					</video>
					</media>
					</file>
					<filter>
					<effect>
					<name>  1</name>
					<effectid>GraphicAndType</effectid>
					<effectcategory>graphic</effectcategory>
					<effecttype>filter</effecttype>
					<mediatype>video</mediatype>
					<pproBypass>false</pproBypass>
					<parameter authoringApp="PremierePro">
					<parameterid>1</parameterid>
					<name></name>
					<hash>025b1101-ead6-0ca2-1feb-caf3000001fc</hash>
					<value>5AEAAAAAAABEMyIRDAAAAAAABgAKAAQABgAAAGQAAAAAAF4ASAAQAAwARABAADwAOAAAAAAAAAAAADQAMwAsAAAAKAAkACAAAAAAAAAAAAAAAAAAHAAAAAAAGgAAAAAAAAAUAAAAAAAAAAAAAAAAAAAAAAAAAAgAAAAAABsABwBeAAAAAAAAAUAAAABQAAAAbAAAAAIAAAAAAAEAAQAAAAAAQEEAAMBAAABAQAAAyEIAAAABIAAAAAIAAAACAAAAAAA2QwCASkTw/v//9P7///j+//8S////AAAAAAEAAAAEAAAAEQAAAEhHUFNvZWlLYWt1cG9wdGFpAAAAAQAAAAwAAAAIAAwABAAIAAgAAAAIAAAAUAAAAA0AAADjga/jgYQg44GY44KDgpMAAAA2ACQAAAAgABwAAAAAABsAFAAAAAAAAAAAAAAAAAAAAAAAAAAAABAAAAAAAAAADAAAAAgABAA2AAAAAgAAABwAAAAcAAAAHAAAAAAAIEEAAAABaAAAAE3PAEOw////tP///wEAAAAUAAAAEAAaAAgABwAMAAAAEAAUABAAAAAAAAABHAAAAAAAoEEcAAAAAgAAAAAACgAIAAUABgAHAAoAAAAADAD//P///wQABAAEAAAACAAIAAYABwAIAAAAAAAMAA==</value>
					</parameter>
					<parameter authoringApp="PremierePro">
					<parameterid>2</parameterid>
					<name></name>
					<IsTimeVarying>false</IsTimeVarying>
					<ParameterControlType>11</ParameterControlType>
					<LowerBound>false</LowerBound>
					<UpperBound>false</UpperBound>
					<value>-91445760000000000,false,0,0,0,0,0,0</value>
					</parameter>
					<parameter authoringApp="PremierePro">
					<parameterid>3</parameterid>
					<name></name>
					<IsTimeVarying>false</IsTimeVarying>
					<value>-91445760000000000,0.5:0.5,0,0,0,0,0,0,5,4,0,0,0,0</value>
					</parameter>
					<parameter authoringApp="PremierePro">
					<parameterid>4</parameterid>
					<name></name>
					<IsTimeVarying>false</IsTimeVarying>
					<ParameterControlType>2</ParameterControlType>
					<LowerBound>0</LowerBound>
					<UpperBound>4000</UpperBound>
					<value>-91445760000000000,100.,0,0,0,0,0,0</value>
					</parameter>
					<parameter authoringApp="PremierePro">
					<parameterid>8</parameterid>
					<name></name>
					<IsTimeVarying>false</IsTimeVarying>
					<ParameterControlType>2</ParameterControlType>
					<LowerBound>0</LowerBound>
					<UpperBound>100</UpperBound>
					<value>-91445760000000000,100.,0,0,0,0,0,0</value>
					</parameter>
					</effect>
					</filter>
					<logginginfo>
					<description></description>
					<scene></scene>
					<shottake></shottake>
					<lognote></lognote>
					<good></good>
					<originalvideofilename></originalvideofilename>
					<originalaudiofilename></originalaudiofilename>
					</logginginfo>
					<colorinfo>
					<lut></lut>
					<lut1></lut1>
					<asc_sop></asc_sop>
					<asc_sat></asc_sat>
					<lut2></lut2>
					</colorinfo>
					<labels>
					</labels>
					</clipitem>
					<clipitem frameBlend="FALSE" id="clipitem-95">
					<masterclipid>masterclip-15</masterclipid>
					<name></name>
					<enabled>TRUE</enabled>
					<duration>2582774</duration>
					<rate>
					
					                                    <timebase>60</timebase>
					                                    <ntsc>TRUE</ntsc>
					                                
					</rate>
					<start>2879</start>
					<end>2999</end>
					<in>2879</in>
					<out>2999</out>
					<pproTicksIn>914456774963789</pproTicksIn>
					<pproTicksOut>914677708529577</pproTicksOut>
					<alphatype>straight</alphatype>
					<pixelaspectratio>square</pixelaspectratio>
					<anamorphic>FALSE</anamorphic>
					<file id="file-14">
					<name></name>
					<mediaSource>GraphicAndType</mediaSource>
					<rate>
					<timebase>60</timebase>
					<ntsc>TRUE</ntsc>
					</rate>
					<timecode>
					<rate>
					<timebase>60</timebase>
					<ntsc>TRUE</ntsc>
					</rate>
					<string>00:00:00:00</string>
					<frame>0</frame>
					<displayformat>NDF</displayformat>
					</timecode>
					<media>
					<video>
					<samplecharacteristics>
					<rate>
					<timebase>60</timebase>
					<ntsc>TRUE</ntsc>
					</rate>
					<width>1080</width>
					<height>1920</height>
					<anamorphic>FALSE</anamorphic>
					<pixelaspectratio>square</pixelaspectratio>
					<fielddominance>none</fielddominance>
					</samplecharacteristics>
					</video>
					</media>
					</file>
					<filter>
					<effect>
					<name>1   </name>
					<effectid>GraphicAndType</effectid>
					<effectcategory>graphic</effectcategory>
					<effecttype>filter</effecttype>
					<mediatype>video</mediatype>
					<pproBypass>false</pproBypass>
					<parameter authoringApp="PremierePro">
					<parameterid>1</parameterid>
					<name></name>
					<hash>025b1101-ead6-0ca2-1feb-caf3000001fc</hash>
					<value>5AEAAAAAAABEMyIRDAAAAAAABgAKAAQABgAAAGQAAAAAAF4ASAAQAAwARABAADwAOAAAAAAAAAAAADQAMwAsAAAAKAAkACAAAAAAAAAAAAAAAAAAHAAAAAAAGgAAAAAAAAAUAAAAAAAAAAAAAAAAAAAAAAAAAAgAAAAAABsABwBeAAAAAAAAAUAAAABQAAAAbAAAAAIAAAAAAAEAAQAAAAAAQEEAAMBAAABAQAAAyEIAAAABIAAAAAIAAAACAAAAAAA2QwCASkTw/v//9P7///j+//8S////AAAAAAEAAAAEAAAAEQAAAEhHUFNvZWlLYWt1cG9wdGFpAAAAAQAAAAwAAAAIAAwABAAIAAgAAAAIAAAAUAAAAA4AAAAx5Y+344Os44OI44O8IJMAAAA2ACQAAAAgABwAAAAAABsAFAAAAAAAAAAAAAAAAAAAAAAAAAAAABAAAAAAAAAADAAAAAgABAA2AAAAAgAAABwAAAAcAAAAHAAAAAAAIEEAAAABaAAAAE3PAEOw////tP///wEAAAAUAAAAEAAaAAgABwAMAAAAEAAUABAAAAAAAAABHAAAAAAAoEEcAAAAAgAAAAAACgAIAAUABgAHAAoAAAAADAD//P///wQABAAEAAAACAAIAAYABwAIAAAAAAAMAA==</value>
					</parameter>
					<parameter authoringApp="PremierePro">
					<parameterid>2</parameterid>
					<name></name>
					<IsTimeVarying>false</IsTimeVarying>
					<ParameterControlType>11</ParameterControlType>
					<LowerBound>false</LowerBound>
					<UpperBound>false</UpperBound>
					<value>-91445760000000000,false,0,0,0,0,0,0</value>
					</parameter>
					<parameter authoringApp="PremierePro">
					<parameterid>3</parameterid>
					<name></name>
					<IsTimeVarying>false</IsTimeVarying>
					<value>-91445760000000000,0.5:0.5,0,0,0,0,0,0,5,4,0,0,0,0</value>
					</parameter>
					<parameter authoringApp="PremierePro">
					<parameterid>4</parameterid>
					<name></name>
					<IsTimeVarying>false</IsTimeVarying>
					<ParameterControlType>2</ParameterControlType>
					<LowerBound>0</LowerBound>
					<UpperBound>4000</UpperBound>
					<value>-91445760000000000,100.,0,0,0,0,0,0</value>
					</parameter>
					<parameter authoringApp="PremierePro">
					<parameterid>8</parameterid>
					<name></name>
					<IsTimeVarying>false</IsTimeVarying>
					<ParameterControlType>2</ParameterControlType>
					<LowerBound>0</LowerBound>
					<UpperBound>100</UpperBound>
					<value>-91445760000000000,100.,0,0,0,0,0,0</value>
					</parameter>
					</effect>
					</filter>
					<logginginfo>
					<description></description>
					<scene></scene>
					<shottake></shottake>
					<lognote></lognote>
					<good></good>
					<originalvideofilename></originalvideofilename>
					<originalaudiofilename></originalaudiofilename>
					</logginginfo>
					<colorinfo>
					<lut></lut>
					<lut1></lut1>
					<asc_sop></asc_sop>
					<asc_sat></asc_sat>
					<lut2></lut2>
					</colorinfo>
					<labels>
					</labels>
					</clipitem>
					<clipitem frameBlend="FALSE" id="clipitem-96">
					<masterclipid>masterclip-16</masterclipid>
					<name></name>
					<enabled>TRUE</enabled>
					<duration>2582774</duration>
					<rate>
					
					                                    <timebase>60</timebase>
					                                    <ntsc>TRUE</ntsc>
					                                
					</rate>
					<start>2999</start>
					<end>3239</end>
					<in>2999</in>
					<out>3239</out>
					<pproTicksIn>914456774963789</pproTicksIn>
					<pproTicksOut>914677708529577</pproTicksOut>
					<alphatype>straight</alphatype>
					<pixelaspectratio>square</pixelaspectratio>
					<anamorphic>FALSE</anamorphic>
					<file id="file-15">
					<name></name>
					<mediaSource>GraphicAndType</mediaSource>
					<rate>
					<timebase>60</timebase>
					<ntsc>TRUE</ntsc>
					</rate>
					<timecode>
					<rate>
					<timebase>60</timebase>
					<ntsc>TRUE</ntsc>
					</rate>
					<string>00:00:00:00</string>
					<frame>0</frame>
					<displayformat>NDF</displayformat>
					</timecode>
					<media>
					<video>
					<samplecharacteristics>
					<rate>
					<timebase>60</timebase>
					<ntsc>TRUE</ntsc>
					</rate>
					<width>1080</width>
					<height>1920</height>
					<anamorphic>FALSE</anamorphic>
					<pixelaspectratio>square</pixelaspectratio>
					<fielddominance>none</fielddominance>
					</samplecharacteristics>
					</video>
					</media>
					</file>
					<filter>
					<effect>
					<name>1</name>
					<effectid>GraphicAndType</effectid>
					<effectcategory>graphic</effectcategory>
					<effecttype>filter</effecttype>
					<mediatype>video</mediatype>
					<pproBypass>false</pproBypass>
					<parameter authoringApp="PremierePro">
					<parameterid>1</parameterid>
					<name></name>
					<hash>025b1101-ead6-0ca2-1feb-caf3000001fc</hash>
					<value>5AEAAAAAAABEMyIRDAAAAAAABgAKAAQABgAAAGQAAAAAAF4ASAAQAAwARABAADwAOAAAAAAAAAAAADQAMwAsAAAAKAAkACAAAAAAAAAAAAAAAAAAHAAAAAAAGgAAAAAAAAAUAAAAAAAAAAAAAAAAAAAAAAAAAAgAAAAAABsABwBeAAAAAAAAAUAAAABQAAAAbAAAAAIAAAAAAAEAAQAAAAAAQEEAAMBAAABAQAAAyEIAAAABIAAAAAIAAAACAAAAAAA2QwCASkTw/v//9P7///j+//8S////AAAAAAEAAAAEAAAAEQAAAEhHUFNvZWlLYWt1cG9wdGFpAAAAAQAAAAwAAAAIAAwABAAIAAgAAAAIAAAAUAAAAA8AAADjg57jg6njgqvjgrnjgqoAAAA2ACQAAAAgABwAAAAAABsAFAAAAAAAAAAAAAAAAAAAAAAAAAAAABAAAAAAAAAADAAAAAgABAA2AAAAAgAAABwAAAAcAAAAHAAAAAAAIEEAAAABaAAAAE3PAEOw////tP///wEAAAAUAAAAEAAaAAgABwAMAAAAEAAUABAAAAAAAAABHAAAAAAAoEEcAAAAAgAAAAAACgAIAAUABgAHAAoAAAAADAD//P///wQABAAEAAAACAAIAAYABwAIAAAAAAAMAA==</value>
					</parameter>
					<parameter authoringApp="PremierePro">
					<parameterid>2</parameterid>
					<name></name>
					<IsTimeVarying>false</IsTimeVarying>
					<ParameterControlType>11</ParameterControlType>
					<LowerBound>false</LowerBound>
					<UpperBound>false</UpperBound>
					<value>-91445760000000000,false,0,0,0,0,0,0</value>
					</parameter>
					<parameter authoringApp="PremierePro">
					<parameterid>3</parameterid>
					<name></name>
					<IsTimeVarying>false</IsTimeVarying>
					<value>-91445760000000000,0.5:0.5,0,0,0,0,0,0,5,4,0,0,0,0</value>
					</parameter>
					<parameter authoringApp="PremierePro">
					<parameterid>4</parameterid>
					<name></name>
					<IsTimeVarying>false</IsTimeVarying>
					<ParameterControlType>2</ParameterControlType>
					<LowerBound>0</LowerBound>
					<UpperBound>4000</UpperBound>
					<value>-91445760000000000,100.,0,0,0,0,0,0</value>
					</parameter>
					<parameter authoringApp="PremierePro">
					<parameterid>8</parameterid>
					<name></name>
					<IsTimeVarying>false</IsTimeVarying>
					<ParameterControlType>2</ParameterControlType>
					<LowerBound>0</LowerBound>
					<UpperBound>100</UpperBound>
					<value>-91445760000000000,100.,0,0,0,0,0,0</value>
					</parameter>
					</effect>
					</filter>
					<logginginfo>
					<description></description>
					<scene></scene>
					<shottake></shottake>
					<lognote></lognote>
					<good></good>
					<originalvideofilename></originalvideofilename>
					<originalaudiofilename></originalaudiofilename>
					</logginginfo>
					<colorinfo>
					<lut></lut>
					<lut1></lut1>
					<asc_sop></asc_sop>
					<asc_sat></asc_sat>
					<lut2></lut2>
					</colorinfo>
					<labels>
					</labels>
					</clipitem>
					<clipitem frameBlend="FALSE" id="clipitem-440">
					<masterclipid>masterclip-360</masterclipid>
					<name></name>
					<enabled>TRUE</enabled>
					<duration>2582774</duration>
					<rate>
					
					                                    <timebase>60</timebase>
					                                    <ntsc>TRUE</ntsc>
					                                
					</rate>
					<start>3245</start>
					<end>3305</end>
					<in>3245</in>
					<out>3305</out>
					<pproTicksIn>914456774963789</pproTicksIn>
					<pproTicksOut>914677708529577</pproTicksOut>
					<alphatype>straight</alphatype>
					<pixelaspectratio>square</pixelaspectratio>
					<anamorphic>FALSE</anamorphic>
					<file id="file-359">
					<name></name>
					<mediaSource>GraphicAndType</mediaSource>
					<rate>
					<timebase>60</timebase>
					<ntsc>TRUE</ntsc>
					</rate>
					<timecode>
					<rate>
					<timebase>60</timebase>
					<ntsc>TRUE</ntsc>
					</rate>
					<string>00:00:00:00</string>
					<frame>0</frame>
					<displayformat>NDF</displayformat>
					</timecode>
					<media>
					<video>
					<samplecharacteristics>
					<rate>
					<timebase>60</timebase>
					<ntsc>TRUE</ntsc>
					</rate>
					<width>1080</width>
					<height>1920</height>
					<anamorphic>FALSE</anamorphic>
					<pixelaspectratio>square</pixelaspectratio>
					<fielddominance>none</fielddominance>
					</samplecharacteristics>
					</video>
					</media>
					</file>
					<filter>
					<effect>
					<name></name>
					<effectid>GraphicAndType</effectid>
					<effectcategory>graphic</effectcategory>
					<effecttype>filter</effecttype>
					<mediatype>video</mediatype>
					<pproBypass>false</pproBypass>
					<parameter authoringApp="PremierePro">
					<parameterid>1</parameterid>
					<name></name>
					<hash>025b1101-ead6-0ca2-1feb-caf3000001fc</hash>
					<value>5AEAAAAAAABEMyIRDAAAAAAABgAKAAQABgAAAGQAAAAAAF4ASAAQAAwARABAADwAOAAAAAAAAAAAADQAMwAsAAAAKAAkACAAAAAAAAAAAAAAAAAAHAAAAAAAGgAAAAAAAAAUAAAAAAAAAAAAAAAAAAAAAAAAAAgAAAAAABsABwBeAAAAAAAAAUAAAABQAAAAbAAAAAIAAAAAAAEAAQAAAAAAQEEAAMBAAABAQAAAyEIAAAABIAAAAAIAAAACAAAAAAA2QwCASkTw/v//9P7///j+//8S////AAAAAAEAAAAEAAAAEQAAAEhHUFNvZWlLYWt1cG9wdGFpAAAAAQAAAAwAAAAIAAwABAAIAAgAAAAIAAAAUAAAAA8AAADvvIEAAAAAAAAAAAAAAAAAAAA2ACQAAAAgABwAAAAAABsAFAAAAAAAAAAAAAAAAAAAAAAAAAAAABAAAAAAAAAADAAAAAgABAA2AAAAAgAAABwAAAAcAAAAHAAAAAAAIEEAAAABaAAAAE3PAEOw////tP///wEAAAAUAAAAEAAaAAgABwAMAAAAEAAUABAAAAAAAAABHAAAAAAAoEEcAAAAAgAAAAAACgAIAAUABgAHAAoAAAAADAD//P///wQABAAEAAAACAAIAAYABwAIAAAAAAAMAA==</value>
					</parameter>
					<parameter authoringApp="PremierePro">
					<parameterid>2</parameterid>
					<name></name>
					<IsTimeVarying>false</IsTimeVarying>
					<ParameterControlType>11</ParameterControlType>
					<LowerBound>false</LowerBound>
					<UpperBound>false</UpperBound>
					<value>-91445760000000000,false,0,0,0,0,0,0</value>
					</parameter>
					<parameter authoringApp="PremierePro">
					<parameterid>3</parameterid>
					<name></name>
					<IsTimeVarying>false</IsTimeVarying>
					<value>-91445760000000000,0.5:0.5,0,0,0,0,0,0,5,4,0,0,0,0</value>
					</parameter>
					<parameter authoringApp="PremierePro">
					<parameterid>4</parameterid>
					<name></name>
					<IsTimeVarying>false</IsTimeVarying>
					<ParameterControlType>2</ParameterControlType>
					<LowerBound>0</LowerBound>
					<UpperBound>4000</UpperBound>
					<value>-91445760000000000,100.,0,0,0,0,0,0</value>
					</parameter>
					<parameter authoringApp="PremierePro">
					<parameterid>8</parameterid>
					<name></name>
					<IsTimeVarying>false</IsTimeVarying>
					<ParameterControlType>2</ParameterControlType>
					<LowerBound>0</LowerBound>
					<UpperBound>100</UpperBound>
					<value>-91445760000000000,100.,0,0,0,0,0,0</value>
					</parameter>
					</effect>
					</filter>
					<logginginfo>
					<description></description>
					<scene></scene>
					<shottake></shottake>
					<lognote></lognote>
					<good></good>
					<originalvideofilename></originalvideofilename>
					<originalaudiofilename></originalaudiofilename>
					</logginginfo>
					<colorinfo>
					<lut></lut>
					<lut1></lut1>
					<asc_sop></asc_sop>
					<asc_sat></asc_sat>
					<lut2></lut2>
					</colorinfo>
					<labels>
					</labels>
					</clipitem>
					<clipitem frameBlend="FALSE" id="clipitem-446">
					<masterclipid>masterclip-366</masterclipid>
					<name></name>
					<enabled>TRUE</enabled>
					<duration>2582774</duration>
					<rate>
					
					                                    <timebase>60</timebase>
					                                    <ntsc>TRUE</ntsc>
					                                
					</rate>
					<start>3305</start>
					<end>3365</end>
					<in>3305</in>
					<out>3365</out>
					<pproTicksIn>914456774963789</pproTicksIn>
					<pproTicksOut>914677708529577</pproTicksOut>
					<alphatype>straight</alphatype>
					<pixelaspectratio>square</pixelaspectratio>
					<anamorphic>FALSE</anamorphic>
					<file id="file-365">
					<name></name>
					<mediaSource>GraphicAndType</mediaSource>
					<rate>
					<timebase>60</timebase>
					<ntsc>TRUE</ntsc>
					</rate>
					<timecode>
					<rate>
					<timebase>60</timebase>
					<ntsc>TRUE</ntsc>
					</rate>
					<string>00:00:00:00</string>
					<frame>0</frame>
					<displayformat>NDF</displayformat>
					</timecode>
					<media>
					<video>
					<samplecharacteristics>
					<rate>
					<timebase>60</timebase>
					<ntsc>TRUE</ntsc>
					</rate>
					<width>1080</width>
					<height>1920</height>
					<anamorphic>FALSE</anamorphic>
					<pixelaspectratio>square</pixelaspectratio>
					<fielddominance>none</fielddominance>
					</samplecharacteristics>
					</video>
					</media>
					</file>
					<filter>
					<effect>
					<name></name>
					<effectid>GraphicAndType</effectid>
					<effectcategory>graphic</effectcategory>
					<effecttype>filter</effecttype>
					<mediatype>video</mediatype>
					<pproBypass>false</pproBypass>
					<parameter authoringApp="PremierePro">
					<parameterid>1</parameterid>
					<name></name>
					<hash>025b1101-ead6-0ca2-1feb-caf3000001fc</hash>
					<value>5AEAAAAAAABEMyIRDAAAAAAABgAKAAQABgAAAGQAAAAAAF4ASAAQAAwARABAADwAOAAAAAAAAAAAADQAMwAsAAAAKAAkACAAAAAAAAAAAAAAAAAAHAAAAAAAGgAAAAAAAAAUAAAAAAAAAAAAAAAAAAAAAAAAAAgAAAAAABsABwBeAAAAAAAAAUAAAABQAAAAbAAAAAIAAAAAAAEAAQAAAAAAQEEAAMBAAABAQAAAyEIAAAABIAAAAAIAAAACAAAAAAA2QwCASkTw/v//9P7///j+//8S////AAAAAAEAAAAEAAAAEQAAAEhHUFNvZWlLYWt1cG9wdGFpAAAAAQAAAAwAAAAIAAwABAAIAAgAAAAIAAAAUAAAAA8AAADvvIEAAAAAAAAAAAAAAAAAAAA2ACQAAAAgABwAAAAAABsAFAAAAAAAAAAAAAAAAAAAAAAAAAAAABAAAAAAAAAADAAAAAgABAA2AAAAAgAAABwAAAAcAAAAHAAAAAAAIEEAAAABaAAAAE3PAEOw////tP///wEAAAAUAAAAEAAaAAgABwAMAAAAEAAUABAAAAAAAAABHAAAAAAAoEEcAAAAAgAAAAAACgAIAAUABgAHAAoAAAAADAD//P///wQABAAEAAAACAAIAAYABwAIAAAAAAAMAA==</value>
					</parameter>
					<parameter authoringApp="PremierePro">
					<parameterid>2</parameterid>
					<name></name>
					<IsTimeVarying>false</IsTimeVarying>
					<ParameterControlType>11</ParameterControlType>
					<LowerBound>false</LowerBound>
					<UpperBound>false</UpperBound>
					<value>-91445760000000000,false,0,0,0,0,0,0</value>
					</parameter>
					<parameter authoringApp="PremierePro">
					<parameterid>3</parameterid>
					<name></name>
					<IsTimeVarying>false</IsTimeVarying>
					<value>-91445760000000000,0.5:0.5,0,0,0,0,0,0,5,4,0,0,0,0</value>
					</parameter>
					<parameter authoringApp="PremierePro">
					<parameterid>4</parameterid>
					<name></name>
					<IsTimeVarying>false</IsTimeVarying>
					<ParameterControlType>2</ParameterControlType>
					<LowerBound>0</LowerBound>
					<UpperBound>4000</UpperBound>
					<value>-91445760000000000,100.,0,0,0,0,0,0</value>
					</parameter>
					<parameter authoringApp="PremierePro">
					<parameterid>8</parameterid>
					<name></name>
					<IsTimeVarying>false</IsTimeVarying>
					<ParameterControlType>2</ParameterControlType>
					<LowerBound>0</LowerBound>
					<UpperBound>100</UpperBound>
					<value>-91445760000000000,100.,0,0,0,0,0,0</value>
					</parameter>
					</effect>
					</filter>
					<logginginfo>
					<description></description>
					<scene></scene>
					<shottake></shottake>
					<lognote></lognote>
					<good></good>
					<originalvideofilename></originalvideofilename>
					<originalaudiofilename></originalaudiofilename>
					</logginginfo>
					<colorinfo>
					<lut></lut>
					<lut1></lut1>
					<asc_sop></asc_sop>
					<asc_sat></asc_sat>
					<lut2></lut2>
					</colorinfo>
					<labels>
					</labels>
					</clipitem>
					<clipitem frameBlend="FALSE" id="clipitem-453">
					<masterclipid>masterclip-373</masterclipid>
					<name></name>
					<enabled>TRUE</enabled>
					<duration>2582774</duration>
					<rate>
					
					                                    <timebase>60</timebase>
					                                    <ntsc>TRUE</ntsc>
					                                
					</rate>
					<start>3377</start>
					<end>3437</end>
					<in>3377</in>
					<out>3437</out>
					<pproTicksIn>914456774963789</pproTicksIn>
					<pproTicksOut>914677708529577</pproTicksOut>
					<alphatype>straight</alphatype>
					<pixelaspectratio>square</pixelaspectratio>
					<anamorphic>FALSE</anamorphic>
					<file id="file-372">
					<name></name>
					<mediaSource>GraphicAndType</mediaSource>
					<rate>
					<timebase>60</timebase>
					<ntsc>TRUE</ntsc>
					</rate>
					<timecode>
					<rate>
					<timebase>60</timebase>
					<ntsc>TRUE</ntsc>
					</rate>
					<string>00:00:00:00</string>
					<frame>0</frame>
					<displayformat>NDF</displayformat>
					</timecode>
					<media>
					<video>
					<samplecharacteristics>
					<rate>
					<timebase>60</timebase>
					<ntsc>TRUE</ntsc>
					</rate>
					<width>1080</width>
					<height>1920</height>
					<anamorphic>FALSE</anamorphic>
					<pixelaspectratio>square</pixelaspectratio>
					<fielddominance>none</fielddominance>
					</samplecharacteristics>
					</video>
					</media>
					</file>
					<filter>
					<effect>
					<name></name>
					<effectid>GraphicAndType</effectid>
					<effectcategory>graphic</effectcategory>
					<effecttype>filter</effecttype>
					<mediatype>video</mediatype>
					<pproBypass>false</pproBypass>
					<parameter authoringApp="PremierePro">
					<parameterid>1</parameterid>
					<name></name>
					<hash>025b1101-ead6-0ca2-1feb-caf3000001fc</hash>
					<value>5AEAAAAAAABEMyIRDAAAAAAABgAKAAQABgAAAGQAAAAAAF4ASAAQAAwARABAADwAOAAAAAAAAAAAADQAMwAsAAAAKAAkACAAAAAAAAAAAAAAAAAAHAAAAAAAGgAAAAAAAAAUAAAAAAAAAAAAAAAAAAAAAAAAAAgAAAAAABsABwBeAAAAAAAAAUAAAABQAAAAbAAAAAIAAAAAAAEAAQAAAAAAQEEAAMBAAABAQAAAyEIAAAABIAAAAAIAAAACAAAAAAA2QwCASkTw/v//9P7///j+//8S////AAAAAAEAAAAEAAAAEQAAAEhHUFNvZWlLYWt1cG9wdGFpAAAAAQAAAAwAAAAIAAwABAAIAAgAAAAIAAAAUAAAAA8AAADvvIEAAAAAAAAAAAAAAAAAAAA2ACQAAAAgABwAAAAAABsAFAAAAAAAAAAAAAAAAAAAAAAAAAAAABAAAAAAAAAADAAAAAgABAA2AAAAAgAAABwAAAAcAAAAHAAAAAAAIEEAAAABaAAAAE3PAEOw////tP///wEAAAAUAAAAEAAaAAgABwAMAAAAEAAUABAAAAAAAAABHAAAAAAAoEEcAAAAAgAAAAAACgAIAAUABgAHAAoAAAAADAD//P///wQABAAEAAAACAAIAAYABwAIAAAAAAAMAA==</value>
					</parameter>
					<parameter authoringApp="PremierePro">
					<parameterid>2</parameterid>
					<name></name>
					<IsTimeVarying>false</IsTimeVarying>
					<ParameterControlType>11</ParameterControlType>
					<LowerBound>false</LowerBound>
					<UpperBound>false</UpperBound>
					<value>-91445760000000000,false,0,0,0,0,0,0</value>
					</parameter>
					<parameter authoringApp="PremierePro">
					<parameterid>3</parameterid>
					<name></name>
					<IsTimeVarying>false</IsTimeVarying>
					<value>-91445760000000000,0.5:0.5,0,0,0,0,0,0,5,4,0,0,0,0</value>
					</parameter>
					<parameter authoringApp="PremierePro">
					<parameterid>4</parameterid>
					<name></name>
					<IsTimeVarying>false</IsTimeVarying>
					<ParameterControlType>2</ParameterControlType>
					<LowerBound>0</LowerBound>
					<UpperBound>4000</UpperBound>
					<value>-91445760000000000,100.,0,0,0,0,0,0</value>
					</parameter>
					<parameter authoringApp="PremierePro">
					<parameterid>8</parameterid>
					<name></name>
					<IsTimeVarying>false</IsTimeVarying>
					<ParameterControlType>2</ParameterControlType>
					<LowerBound>0</LowerBound>
					<UpperBound>100</UpperBound>
					<value>-91445760000000000,100.,0,0,0,0,0,0</value>
					</parameter>
					</effect>
					</filter>
					<logginginfo>
					<description></description>
					<scene></scene>
					<shottake></shottake>
					<lognote></lognote>
					<good></good>
					<originalvideofilename></originalvideofilename>
					<originalaudiofilename></originalaudiofilename>
					</logginginfo>
					<colorinfo>
					<lut></lut>
					<lut1></lut1>
					<asc_sop></asc_sop>
					<asc_sat></asc_sat>
					<lut2></lut2>
					</colorinfo>
					<labels>
					</labels>
					</clipitem>
					<clipitem frameBlend="FALSE" id="clipitem-459">
					<masterclipid>masterclip-379</masterclipid>
					<name></name>
					<enabled>TRUE</enabled>
					<duration>2582774</duration>
					<rate>
					
					                                    <timebase>60</timebase>
					                                    <ntsc>TRUE</ntsc>
					                                
					</rate>
					<start>3437</start>
					<end>3497</end>
					<in>3437</in>
					<out>3497</out>
					<pproTicksIn>914456774963789</pproTicksIn>
					<pproTicksOut>914677708529577</pproTicksOut>
					<alphatype>straight</alphatype>
					<pixelaspectratio>square</pixelaspectratio>
					<anamorphic>FALSE</anamorphic>
					<file id="file-378">
					<name></name>
					<mediaSource>GraphicAndType</mediaSource>
					<rate>
					<timebase>60</timebase>
					<ntsc>TRUE</ntsc>
					</rate>
					<timecode>
					<rate>
					<timebase>60</timebase>
					<ntsc>TRUE</ntsc>
					</rate>
					<string>00:00:00:00</string>
					<frame>0</frame>
					<displayformat>NDF</displayformat>
					</timecode>
					<media>
					<video>
					<samplecharacteristics>
					<rate>
					<timebase>60</timebase>
					<ntsc>TRUE</ntsc>
					</rate>
					<width>1080</width>
					<height>1920</height>
					<anamorphic>FALSE</anamorphic>
					<pixelaspectratio>square</pixelaspectratio>
					<fielddominance>none</fielddominance>
					</samplecharacteristics>
					</video>
					</media>
					</file>
					<filter>
					<effect>
					<name></name>
					<effectid>GraphicAndType</effectid>
					<effectcategory>graphic</effectcategory>
					<effecttype>filter</effecttype>
					<mediatype>video</mediatype>
					<pproBypass>false</pproBypass>
					<parameter authoringApp="PremierePro">
					<parameterid>1</parameterid>
					<name></name>
					<hash>025b1101-ead6-0ca2-1feb-caf3000001fc</hash>
					<value>5AEAAAAAAABEMyIRDAAAAAAABgAKAAQABgAAAGQAAAAAAF4ASAAQAAwARABAADwAOAAAAAAAAAAAADQAMwAsAAAAKAAkACAAAAAAAAAAAAAAAAAAHAAAAAAAGgAAAAAAAAAUAAAAAAAAAAAAAAAAAAAAAAAAAAgAAAAAABsABwBeAAAAAAAAAUAAAABQAAAAbAAAAAIAAAAAAAEAAQAAAAAAQEEAAMBAAABAQAAAyEIAAAABIAAAAAIAAAACAAAAAAA2QwCASkTw/v//9P7///j+//8S////AAAAAAEAAAAEAAAAEQAAAEhHUFNvZWlLYWt1cG9wdGFpAAAAAQAAAAwAAAAIAAwABAAIAAgAAAAIAAAAUAAAAA8AAADvvIEAAAAAAAAAAAAAAAAAAAA2ACQAAAAgABwAAAAAABsAFAAAAAAAAAAAAAAAAAAAAAAAAAAAABAAAAAAAAAADAAAAAgABAA2AAAAAgAAABwAAAAcAAAAHAAAAAAAIEEAAAABaAAAAE3PAEOw////tP///wEAAAAUAAAAEAAaAAgABwAMAAAAEAAUABAAAAAAAAABHAAAAAAAoEEcAAAAAgAAAAAACgAIAAUABgAHAAoAAAAADAD//P///wQABAAEAAAACAAIAAYABwAIAAAAAAAMAA==</value>
					</parameter>
					<parameter authoringApp="PremierePro">
					<parameterid>2</parameterid>
					<name></name>
					<IsTimeVarying>false</IsTimeVarying>
					<ParameterControlType>11</ParameterControlType>
					<LowerBound>false</LowerBound>
					<UpperBound>false</UpperBound>
					<value>-91445760000000000,false,0,0,0,0,0,0</value>
					</parameter>
					<parameter authoringApp="PremierePro">
					<parameterid>3</parameterid>
					<name></name>
					<IsTimeVarying>false</IsTimeVarying>
					<value>-91445760000000000,0.5:0.5,0,0,0,0,0,0,5,4,0,0,0,0</value>
					</parameter>
					<parameter authoringApp="PremierePro">
					<parameterid>4</parameterid>
					<name></name>
					<IsTimeVarying>false</IsTimeVarying>
					<ParameterControlType>2</ParameterControlType>
					<LowerBound>0</LowerBound>
					<UpperBound>4000</UpperBound>
					<value>-91445760000000000,100.,0,0,0,0,0,0</value>
					</parameter>
					<parameter authoringApp="PremierePro">
					<parameterid>8</parameterid>
					<name></name>
					<IsTimeVarying>false</IsTimeVarying>
					<ParameterControlType>2</ParameterControlType>
					<LowerBound>0</LowerBound>
					<UpperBound>100</UpperBound>
					<value>-91445760000000000,100.,0,0,0,0,0,0</value>
					</parameter>
					</effect>
					</filter>
					<logginginfo>
					<description></description>
					<scene></scene>
					<shottake></shottake>
					<lognote></lognote>
					<good></good>
					<originalvideofilename></originalvideofilename>
					<originalaudiofilename></originalaudiofilename>
					</logginginfo>
					<colorinfo>
					<lut></lut>
					<lut1></lut1>
					<asc_sop></asc_sop>
					<asc_sat></asc_sat>
					<lut2></lut2>
					</colorinfo>
					<labels>
					</labels>
					</clipitem>
					<clipitem frameBlend="FALSE" id="clipitem-465">
					<masterclipid>masterclip-385</masterclipid>
					<name></name>
					<enabled>TRUE</enabled>
					<duration>2582774</duration>
					<rate>
					
					                                    <timebase>60</timebase>
					                                    <ntsc>TRUE</ntsc>
					                                
					</rate>
					<start>3503</start>
					<end>3562</end>
					<in>3503</in>
					<out>3562</out>
					<pproTicksIn>914456774963789</pproTicksIn>
					<pproTicksOut>914677708529577</pproTicksOut>
					<alphatype>straight</alphatype>
					<pixelaspectratio>square</pixelaspectratio>
					<anamorphic>FALSE</anamorphic>
					<file id="file-384">
					<name></name>
					<mediaSource>GraphicAndType</mediaSource>
					<rate>
					<timebase>60</timebase>
					<ntsc>TRUE</ntsc>
					</rate>
					<timecode>
					<rate>
					<timebase>60</timebase>
					<ntsc>TRUE</ntsc>
					</rate>
					<string>00:00:00:00</string>
					<frame>0</frame>
					<displayformat>NDF</displayformat>
					</timecode>
					<media>
					<video>
					<samplecharacteristics>
					<rate>
					<timebase>60</timebase>
					<ntsc>TRUE</ntsc>
					</rate>
					<width>1080</width>
					<height>1920</height>
					<anamorphic>FALSE</anamorphic>
					<pixelaspectratio>square</pixelaspectratio>
					<fielddominance>none</fielddominance>
					</samplecharacteristics>
					</video>
					</media>
					</file>
					<filter>
					<effect>
					<name></name>
					<effectid>GraphicAndType</effectid>
					<effectcategory>graphic</effectcategory>
					<effecttype>filter</effecttype>
					<mediatype>video</mediatype>
					<pproBypass>false</pproBypass>
					<parameter authoringApp="PremierePro">
					<parameterid>1</parameterid>
					<name></name>
					<hash>025b1101-ead6-0ca2-1feb-caf3000001fc</hash>
					<value>5AEAAAAAAABEMyIRDAAAAAAABgAKAAQABgAAAGQAAAAAAF4ASAAQAAwARABAADwAOAAAAAAAAAAAADQAMwAsAAAAKAAkACAAAAAAAAAAAAAAAAAAHAAAAAAAGgAAAAAAAAAUAAAAAAAAAAAAAAAAAAAAAAAAAAgAAAAAABsABwBeAAAAAAAAAUAAAABQAAAAbAAAAAIAAAAAAAEAAQAAAAAAQEEAAMBAAABAQAAAyEIAAAABIAAAAAIAAAACAAAAAAA2QwCASkTw/v//9P7///j+//8S////AAAAAAEAAAAEAAAAEQAAAEhHUFNvZWlLYWt1cG9wdGFpAAAAAQAAAAwAAAAIAAwABAAIAAgAAAAIAAAAUAAAAA8AAADvvIEAAAAAAAAAAAAAAAAAAAA2ACQAAAAgABwAAAAAABsAFAAAAAAAAAAAAAAAAAAAAAAAAAAAABAAAAAAAAAADAAAAAgABAA2AAAAAgAAABwAAAAcAAAAHAAAAAAAIEEAAAABaAAAAE3PAEOw////tP///wEAAAAUAAAAEAAaAAgABwAMAAAAEAAUABAAAAAAAAABHAAAAAAAoEEcAAAAAgAAAAAACgAIAAUABgAHAAoAAAAADAD//P///wQABAAEAAAACAAIAAYABwAIAAAAAAAMAA==</value>
					</parameter>
					<parameter authoringApp="PremierePro">
					<parameterid>2</parameterid>
					<name></name>
					<IsTimeVarying>false</IsTimeVarying>
					<ParameterControlType>11</ParameterControlType>
					<LowerBound>false</LowerBound>
					<UpperBound>false</UpperBound>
					<value>-91445760000000000,false,0,0,0,0,0,0</value>
					</parameter>
					<parameter authoringApp="PremierePro">
					<parameterid>3</parameterid>
					<name></name>
					<IsTimeVarying>false</IsTimeVarying>
					<value>-91445760000000000,0.5:0.5,0,0,0,0,0,0,5,4,0,0,0,0</value>
					</parameter>
					<parameter authoringApp="PremierePro">
					<parameterid>4</parameterid>
					<name></name>
					<IsTimeVarying>false</IsTimeVarying>
					<ParameterControlType>2</ParameterControlType>
					<LowerBound>0</LowerBound>
					<UpperBound>4000</UpperBound>
					<value>-91445760000000000,100.,0,0,0,0,0,0</value>
					</parameter>
					<parameter authoringApp="PremierePro">
					<parameterid>8</parameterid>
					<name></name>
					<IsTimeVarying>false</IsTimeVarying>
					<ParameterControlType>2</ParameterControlType>
					<LowerBound>0</LowerBound>
					<UpperBound>100</UpperBound>
					<value>-91445760000000000,100.,0,0,0,0,0,0</value>
					</parameter>
					</effect>
					</filter>
					<logginginfo>
					<description></description>
					<scene></scene>
					<shottake></shottake>
					<lognote></lognote>
					<good></good>
					<originalvideofilename></originalvideofilename>
					<originalaudiofilename></originalaudiofilename>
					</logginginfo>
					<colorinfo>
					<lut></lut>
					<lut1></lut1>
					<asc_sop></asc_sop>
					<asc_sat></asc_sat>
					<lut2></lut2>
					</colorinfo>
					<labels>
					</labels>
					</clipitem>
					<clipitem frameBlend="FALSE" id="clipitem-470">
					<masterclipid>masterclip-390</masterclipid>
					<name></name>
					<enabled>TRUE</enabled>
					<duration>2582774</duration>
					<rate>
					
					                                    <timebase>60</timebase>
					                                    <ntsc>TRUE</ntsc>
					                                
					</rate>
					<start>3562</start>
					<end>3628</end>
					<in>3562</in>
					<out>3628</out>
					<pproTicksIn>914456774963789</pproTicksIn>
					<pproTicksOut>914677708529577</pproTicksOut>
					<alphatype>straight</alphatype>
					<pixelaspectratio>square</pixelaspectratio>
					<anamorphic>FALSE</anamorphic>
					<file id="file-389">
					<name></name>
					<mediaSource>GraphicAndType</mediaSource>
					<rate>
					<timebase>60</timebase>
					<ntsc>TRUE</ntsc>
					</rate>
					<timecode>
					<rate>
					<timebase>60</timebase>
					<ntsc>TRUE</ntsc>
					</rate>
					<string>00:00:00:00</string>
					<frame>0</frame>
					<displayformat>NDF</displayformat>
					</timecode>
					<media>
					<video>
					<samplecharacteristics>
					<rate>
					<timebase>60</timebase>
					<ntsc>TRUE</ntsc>
					</rate>
					<width>1080</width>
					<height>1920</height>
					<anamorphic>FALSE</anamorphic>
					<pixelaspectratio>square</pixelaspectratio>
					<fielddominance>none</fielddominance>
					</samplecharacteristics>
					</video>
					</media>
					</file>
					<filter>
					<effect>
					<name></name>
					<effectid>GraphicAndType</effectid>
					<effectcategory>graphic</effectcategory>
					<effecttype>filter</effecttype>
					<mediatype>video</mediatype>
					<pproBypass>false</pproBypass>
					<parameter authoringApp="PremierePro">
					<parameterid>1</parameterid>
					<name></name>
					<hash>025b1101-ead6-0ca2-1feb-caf3000001fc</hash>
					<value>5AEAAAAAAABEMyIRDAAAAAAABgAKAAQABgAAAGQAAAAAAF4ASAAQAAwARABAADwAOAAAAAAAAAAAADQAMwAsAAAAKAAkACAAAAAAAAAAAAAAAAAAHAAAAAAAGgAAAAAAAAAUAAAAAAAAAAAAAAAAAAAAAAAAAAgAAAAAABsABwBeAAAAAAAAAUAAAABQAAAAbAAAAAIAAAAAAAEAAQAAAAAAQEEAAMBAAABAQAAAyEIAAAABIAAAAAIAAAACAAAAAAA2QwCASkTw/v//9P7///j+//8S////AAAAAAEAAAAEAAAAEQAAAEhHUFNvZWlLYWt1cG9wdGFpAAAAAQAAAAwAAAAIAAwABAAIAAgAAAAIAAAAUAAAAA8AAADvvIEAAAAAAAAAAAAAAAAAAAA2ACQAAAAgABwAAAAAABsAFAAAAAAAAAAAAAAAAAAAAAAAAAAAABAAAAAAAAAADAAAAAgABAA2AAAAAgAAABwAAAAcAAAAHAAAAAAAIEEAAAABaAAAAE3PAEOw////tP///wEAAAAUAAAAEAAaAAgABwAMAAAAEAAUABAAAAAAAAABHAAAAAAAoEEcAAAAAgAAAAAACgAIAAUABgAHAAoAAAAADAD//P///wQABAAEAAAACAAIAAYABwAIAAAAAAAMAA==</value>
					</parameter>
					<parameter authoringApp="PremierePro">
					<parameterid>2</parameterid>
					<name></name>
					<IsTimeVarying>false</IsTimeVarying>
					<ParameterControlType>11</ParameterControlType>
					<LowerBound>false</LowerBound>
					<UpperBound>false</UpperBound>
					<value>-91445760000000000,false,0,0,0,0,0,0</value>
					</parameter>
					<parameter authoringApp="PremierePro">
					<parameterid>3</parameterid>
					<name></name>
					<IsTimeVarying>false</IsTimeVarying>
					<value>-91445760000000000,0.5:0.5,0,0,0,0,0,0,5,4,0,0,0,0</value>
					</parameter>
					<parameter authoringApp="PremierePro">
					<parameterid>4</parameterid>
					<name></name>
					<IsTimeVarying>false</IsTimeVarying>
					<ParameterControlType>2</ParameterControlType>
					<LowerBound>0</LowerBound>
					<UpperBound>4000</UpperBound>
					<value>-91445760000000000,100.,0,0,0,0,0,0</value>
					</parameter>
					<parameter authoringApp="PremierePro">
					<parameterid>8</parameterid>
					<name></name>
					<IsTimeVarying>false</IsTimeVarying>
					<ParameterControlType>2</ParameterControlType>
					<LowerBound>0</LowerBound>
					<UpperBound>100</UpperBound>
					<value>-91445760000000000,100.,0,0,0,0,0,0</value>
					</parameter>
					</effect>
					</filter>
					<logginginfo>
					<description></description>
					<scene></scene>
					<shottake></shottake>
					<lognote></lognote>
					<good></good>
					<originalvideofilename></originalvideofilename>
					<originalaudiofilename></originalaudiofilename>
					</logginginfo>
					<colorinfo>
					<lut></lut>
					<lut1></lut1>
					<asc_sop></asc_sop>
					<asc_sat></asc_sat>
					<lut2></lut2>
					</colorinfo>
					<labels>
					</labels>
					</clipitem>
					<clipitem id="clipitem-475"/>
					                        </track>
					                        <track TL.SQTrackShy="0" TL.SQTrackExpandedHeight="25" TL.SQTrackExpanded="0" MZ.TrackTargeted="0">
					<clipitem frameBlend="FALSE" id="clipitem-476">
					<masterclipid>masterclip-396</masterclipid>
					<name></name>
					<enabled>TRUE</enabled>
					<duration>2582774</duration>
					<rate>
					
					                                    <timebase>60</timebase>
					                                    <ntsc>TRUE</ntsc>
					                                
					</rate>
					<start>3628</start>
					<end>3688</end>
					<in>3628</in>
					<out>3688</out>
					<pproTicksIn>914456774963789</pproTicksIn>
					<pproTicksOut>914677708529577</pproTicksOut>
					<alphatype>straight</alphatype>
					<pixelaspectratio>square</pixelaspectratio>
					<anamorphic>FALSE</anamorphic>
					<file id="file-395">
					<name></name>
					<mediaSource>GraphicAndType</mediaSource>
					<rate>
					<timebase>60</timebase>
					<ntsc>TRUE</ntsc>
					</rate>
					<timecode>
					<rate>
					<timebase>60</timebase>
					<ntsc>TRUE</ntsc>
					</rate>
					<string>00:00:00:00</string>
					<frame>0</frame>
					<displayformat>NDF</displayformat>
					</timecode>
					<media>
					<video>
					<samplecharacteristics>
					<rate>
					<timebase>60</timebase>
					<ntsc>TRUE</ntsc>
					</rate>
					<width>1080</width>
					<height>1920</height>
					<anamorphic>FALSE</anamorphic>
					<pixelaspectratio>square</pixelaspectratio>
					<fielddominance>none</fielddominance>
					</samplecharacteristics>
					</video>
					</media>
					</file>
					<filter>
					<effect>
					<name></name>
					<effectid>GraphicAndType</effectid>
					<effectcategory>graphic</effectcategory>
					<effecttype>filter</effecttype>
					<mediatype>video</mediatype>
					<pproBypass>false</pproBypass>
					<parameter authoringApp="PremierePro">
					<parameterid>1</parameterid>
					<name></name>
					<hash>025b1101-ead6-0ca2-1feb-caf3000001fc</hash>
					<value>5AEAAAAAAABEMyIRDAAAAAAABgAKAAQABgAAAGQAAAAAAF4ASAAQAAwARABAADwAOAAAAAAAAAAAADQAMwAsAAAAKAAkACAAAAAAAAAAAAAAAAAAHAAAAAAAGgAAAAAAAAAUAAAAAAAAAAAAAAAAAAAAAAAAAAgAAAAAABsABwBeAAAAAAAAAUAAAABQAAAAbAAAAAIAAAAAAAEAAQAAAAAAQEEAAMBAAABAQAAAyEIAAAABIAAAAAIAAAACAAAAAAA2QwCASkTw/v//9P7///j+//8S////AAAAAAEAAAAEAAAAEQAAAEhHUFNvZWlLYWt1cG9wdGFpAAAAAQAAAAwAAAAIAAwABAAIAAgAAAAIAAAAUAAAAA8AAADvvIEAAAAAAAAAAAAAAAAAAAA2ACQAAAAgABwAAAAAABsAFAAAAAAAAAAAAAAAAAAAAAAAAAAAABAAAAAAAAAADAAAAAgABAA2AAAAAgAAABwAAAAcAAAAHAAAAAAAIEEAAAABaAAAAE3PAEOw////tP///wEAAAAUAAAAEAAaAAgABwAMAAAAEAAUABAAAAAAAAABHAAAAAAAoEEcAAAAAgAAAAAACgAIAAUABgAHAAoAAAAADAD//P///wQABAAEAAAACAAIAAYABwAIAAAAAAAMAA==</value>
					</parameter>
					<parameter authoringApp="PremierePro">
					<parameterid>2</parameterid>
					<name></name>
					<IsTimeVarying>false</IsTimeVarying>
					<ParameterControlType>11</ParameterControlType>
					<LowerBound>false</LowerBound>
					<UpperBound>false</UpperBound>
					<value>-91445760000000000,false,0,0,0,0,0,0</value>
					</parameter>
					<parameter authoringApp="PremierePro">
					<parameterid>3</parameterid>
					<name></name>
					<IsTimeVarying>false</IsTimeVarying>
					<value>-91445760000000000,0.5:0.5,0,0,0,0,0,0,5,4,0,0,0,0</value>
					</parameter>
					<parameter authoringApp="PremierePro">
					<parameterid>4</parameterid>
					<name></name>
					<IsTimeVarying>false</IsTimeVarying>
					<ParameterControlType>2</ParameterControlType>
					<LowerBound>0</LowerBound>
					<UpperBound>4000</UpperBound>
					<value>-91445760000000000,100.,0,0,0,0,0,0</value>
					</parameter>
					<parameter authoringApp="PremierePro">
					<parameterid>8</parameterid>
					<name></name>
					<IsTimeVarying>false</IsTimeVarying>
					<ParameterControlType>2</ParameterControlType>
					<LowerBound>0</LowerBound>
					<UpperBound>100</UpperBound>
					<value>-91445760000000000,100.,0,0,0,0,0,0</value>
					</parameter>
					</effect>
					</filter>
					<logginginfo>
					<description></description>
					<scene></scene>
					<shottake></shottake>
					<lognote></lognote>
					<good></good>
					<originalvideofilename></originalvideofilename>
					<originalaudiofilename></originalaudiofilename>
					</logginginfo>
					<colorinfo>
					<lut></lut>
					<lut1></lut1>
					<asc_sop></asc_sop>
					<asc_sat></asc_sat>
					<lut2></lut2>
					</colorinfo>
					<labels>
					</labels>
					</clipitem>
					<clipitem frameBlend="FALSE" id="clipitem-481">
					<masterclipid>masterclip-401</masterclipid>
					<name></name>
					<enabled>TRUE</enabled>
					<duration>2582774</duration>
					<rate>
					
					                                    <timebase>60</timebase>
					                                    <ntsc>TRUE</ntsc>
					                                
					</rate>
					<start>3694</start>
					<end>3754</end>
					<in>3694</in>
					<out>3754</out>
					<pproTicksIn>914456774963789</pproTicksIn>
					<pproTicksOut>914677708529577</pproTicksOut>
					<alphatype>straight</alphatype>
					<pixelaspectratio>square</pixelaspectratio>
					<anamorphic>FALSE</anamorphic>
					<file id="file-400">
					<name></name>
					<mediaSource>GraphicAndType</mediaSource>
					<rate>
					<timebase>60</timebase>
					<ntsc>TRUE</ntsc>
					</rate>
					<timecode>
					<rate>
					<timebase>60</timebase>
					<ntsc>TRUE</ntsc>
					</rate>
					<string>00:00:00:00</string>
					<frame>0</frame>
					<displayformat>NDF</displayformat>
					</timecode>
					<media>
					<video>
					<samplecharacteristics>
					<rate>
					<timebase>60</timebase>
					<ntsc>TRUE</ntsc>
					</rate>
					<width>1080</width>
					<height>1920</height>
					<anamorphic>FALSE</anamorphic>
					<pixelaspectratio>square</pixelaspectratio>
					<fielddominance>none</fielddominance>
					</samplecharacteristics>
					</video>
					</media>
					</file>
					<filter>
					<effect>
					<name></name>
					<effectid>GraphicAndType</effectid>
					<effectcategory>graphic</effectcategory>
					<effecttype>filter</effecttype>
					<mediatype>video</mediatype>
					<pproBypass>false</pproBypass>
					<parameter authoringApp="PremierePro">
					<parameterid>1</parameterid>
					<name></name>
					<hash>025b1101-ead6-0ca2-1feb-caf3000001fc</hash>
					<value>5AEAAAAAAABEMyIRDAAAAAAABgAKAAQABgAAAGQAAAAAAF4ASAAQAAwARABAADwAOAAAAAAAAAAAADQAMwAsAAAAKAAkACAAAAAAAAAAAAAAAAAAHAAAAAAAGgAAAAAAAAAUAAAAAAAAAAAAAAAAAAAAAAAAAAgAAAAAABsABwBeAAAAAAAAAUAAAABQAAAAbAAAAAIAAAAAAAEAAQAAAAAAQEEAAMBAAABAQAAAyEIAAAABIAAAAAIAAAACAAAAAAA2QwCASkTw/v//9P7///j+//8S////AAAAAAEAAAAEAAAAEQAAAEhHUFNvZWlLYWt1cG9wdGFpAAAAAQAAAAwAAAAIAAwABAAIAAgAAAAIAAAAUAAAAA8AAADvvIEAAAAAAAAAAAAAAAAAAAA2ACQAAAAgABwAAAAAABsAFAAAAAAAAAAAAAAAAAAAAAAAAAAAABAAAAAAAAAADAAAAAgABAA2AAAAAgAAABwAAAAcAAAAHAAAAAAAIEEAAAABaAAAAE3PAEOw////tP///wEAAAAUAAAAEAAaAAgABwAMAAAAEAAUABAAAAAAAAABHAAAAAAAoEEcAAAAAgAAAAAACgAIAAUABgAHAAoAAAAADAD//P///wQABAAEAAAACAAIAAYABwAIAAAAAAAMAA==</value>
					</parameter>
					<parameter authoringApp="PremierePro">
					<parameterid>2</parameterid>
					<name></name>
					<IsTimeVarying>false</IsTimeVarying>
					<ParameterControlType>11</ParameterControlType>
					<LowerBound>false</LowerBound>
					<UpperBound>false</UpperBound>
					<value>-91445760000000000,false,0,0,0,0,0,0</value>
					</parameter>
					<parameter authoringApp="PremierePro">
					<parameterid>3</parameterid>
					<name></name>
					<IsTimeVarying>false</IsTimeVarying>
					<value>-91445760000000000,0.5:0.5,0,0,0,0,0,0,5,4,0,0,0,0</value>
					</parameter>
					<parameter authoringApp="PremierePro">
					<parameterid>4</parameterid>
					<name></name>
					<IsTimeVarying>false</IsTimeVarying>
					<ParameterControlType>2</ParameterControlType>
					<LowerBound>0</LowerBound>
					<UpperBound>4000</UpperBound>
					<value>-91445760000000000,100.,0,0,0,0,0,0</value>
					</parameter>
					<parameter authoringApp="PremierePro">
					<parameterid>8</parameterid>
					<name></name>
					<IsTimeVarying>false</IsTimeVarying>
					<ParameterControlType>2</ParameterControlType>
					<LowerBound>0</LowerBound>
					<UpperBound>100</UpperBound>
					<value>-91445760000000000,100.,0,0,0,0,0,0</value>
					</parameter>
					</effect>
					</filter>
					<logginginfo>
					<description></description>
					<scene></scene>
					<shottake></shottake>
					<lognote></lognote>
					<good></good>
					<originalvideofilename></originalvideofilename>
					<originalaudiofilename></originalaudiofilename>
					</logginginfo>
					<colorinfo>
					<lut></lut>
					<lut1></lut1>
					<asc_sop></asc_sop>
					<asc_sat></asc_sat>
					<lut2></lut2>
					</colorinfo>
					<labels>
					</labels>
					</clipitem>
					<clipitem frameBlend="FALSE" id="clipitem-490">
					<masterclipid>masterclip-410</masterclipid>
					<name></name>
					<enabled>TRUE</enabled>
					<duration>2582774</duration>
					<rate>
					
					                                    <timebase>60</timebase>
					                                    <ntsc>TRUE</ntsc>
					                                
					</rate>
					<start>3760</start>
					<end>3820</end>
					<in>3760</in>
					<out>3820</out>
					<pproTicksIn>914456774963789</pproTicksIn>
					<pproTicksOut>914677708529577</pproTicksOut>
					<alphatype>straight</alphatype>
					<pixelaspectratio>square</pixelaspectratio>
					<anamorphic>FALSE</anamorphic>
					<file id="file-409">
					<name></name>
					<mediaSource>GraphicAndType</mediaSource>
					<rate>
					<timebase>60</timebase>
					<ntsc>TRUE</ntsc>
					</rate>
					<timecode>
					<rate>
					<timebase>60</timebase>
					<ntsc>TRUE</ntsc>
					</rate>
					<string>00:00:00:00</string>
					<frame>0</frame>
					<displayformat>NDF</displayformat>
					</timecode>
					<media>
					<video>
					<samplecharacteristics>
					<rate>
					<timebase>60</timebase>
					<ntsc>TRUE</ntsc>
					</rate>
					<width>1080</width>
					<height>1920</height>
					<anamorphic>FALSE</anamorphic>
					<pixelaspectratio>square</pixelaspectratio>
					<fielddominance>none</fielddominance>
					</samplecharacteristics>
					</video>
					</media>
					</file>
					<filter>
					<effect>
					<name></name>
					<effectid>GraphicAndType</effectid>
					<effectcategory>graphic</effectcategory>
					<effecttype>filter</effecttype>
					<mediatype>video</mediatype>
					<pproBypass>false</pproBypass>
					<parameter authoringApp="PremierePro">
					<parameterid>1</parameterid>
					<name></name>
					<hash>025b1101-ead6-0ca2-1feb-caf3000001fc</hash>
					<value>5AEAAAAAAABEMyIRDAAAAAAABgAKAAQABgAAAGQAAAAAAF4ASAAQAAwARABAADwAOAAAAAAAAAAAADQAMwAsAAAAKAAkACAAAAAAAAAAAAAAAAAAHAAAAAAAGgAAAAAAAAAUAAAAAAAAAAAAAAAAAAAAAAAAAAgAAAAAABsABwBeAAAAAAAAAUAAAABQAAAAbAAAAAIAAAAAAAEAAQAAAAAAQEEAAMBAAABAQAAAyEIAAAABIAAAAAIAAAACAAAAAAA2QwCASkTw/v//9P7///j+//8S////AAAAAAEAAAAEAAAAEQAAAEhHUFNvZWlLYWt1cG9wdGFpAAAAAQAAAAwAAAAIAAwABAAIAAgAAAAIAAAAUAAAAA8AAADvvIEAAAAAAAAAAAAAAAAAAAA2ACQAAAAgABwAAAAAABsAFAAAAAAAAAAAAAAAAAAAAAAAAAAAABAAAAAAAAAADAAAAAgABAA2AAAAAgAAABwAAAAcAAAAHAAAAAAAIEEAAAABaAAAAE3PAEOw////tP///wEAAAAUAAAAEAAaAAgABwAMAAAAEAAUABAAAAAAAAABHAAAAAAAoEEcAAAAAgAAAAAACgAIAAUABgAHAAoAAAAADAD//P///wQABAAEAAAACAAIAAYABwAIAAAAAAAMAA==</value>
					</parameter>
					<parameter authoringApp="PremierePro">
					<parameterid>2</parameterid>
					<name></name>
					<IsTimeVarying>false</IsTimeVarying>
					<ParameterControlType>11</ParameterControlType>
					<LowerBound>false</LowerBound>
					<UpperBound>false</UpperBound>
					<value>-91445760000000000,false,0,0,0,0,0,0</value>
					</parameter>
					<parameter authoringApp="PremierePro">
					<parameterid>3</parameterid>
					<name></name>
					<IsTimeVarying>false</IsTimeVarying>
					<value>-91445760000000000,0.5:0.5,0,0,0,0,0,0,5,4,0,0,0,0</value>
					</parameter>
					<parameter authoringApp="PremierePro">
					<parameterid>4</parameterid>
					<name></name>
					<IsTimeVarying>false</IsTimeVarying>
					<ParameterControlType>2</ParameterControlType>
					<LowerBound>0</LowerBound>
					<UpperBound>4000</UpperBound>
					<value>-91445760000000000,100.,0,0,0,0,0,0</value>
					</parameter>
					<parameter authoringApp="PremierePro">
					<parameterid>8</parameterid>
					<name></name>
					<IsTimeVarying>false</IsTimeVarying>
					<ParameterControlType>2</ParameterControlType>
					<LowerBound>0</LowerBound>
					<UpperBound>100</UpperBound>
					<value>-91445760000000000,100.,0,0,0,0,0,0</value>
					</parameter>
					</effect>
					</filter>
					<logginginfo>
					<description></description>
					<scene></scene>
					<shottake></shottake>
					<lognote></lognote>
					<good></good>
					<originalvideofilename></originalvideofilename>
					<originalaudiofilename></originalaudiofilename>
					</logginginfo>
					<colorinfo>
					<lut></lut>
					<lut1></lut1>
					<asc_sop></asc_sop>
					<asc_sat></asc_sat>
					<lut2></lut2>
					</colorinfo>
					<labels>
					</labels>
					</clipitem>
					<clipitem id="clipitem-495"/>
					                        </track>
					                        <track TL.SQTrackShy="0" TL.SQTrackExpandedHeight="25" TL.SQTrackExpanded="0" MZ.TrackTargeted="0">
					<clipitem frameBlend="FALSE" id="clipitem-496">
					<masterclipid>masterclip-416</masterclipid>
					<name></name>
					<enabled>TRUE</enabled>
					<duration>2582774</duration>
					<rate>
					
					                                    <timebase>60</timebase>
					                                    <ntsc>TRUE</ntsc>
					                                
					</rate>
					<start>3820</start>
					<end>3880</end>
					<in>3820</in>
					<out>3880</out>
					<pproTicksIn>914456774963789</pproTicksIn>
					<pproTicksOut>914677708529577</pproTicksOut>
					<alphatype>straight</alphatype>
					<pixelaspectratio>square</pixelaspectratio>
					<anamorphic>FALSE</anamorphic>
					<file id="file-415">
					<name></name>
					<mediaSource>GraphicAndType</mediaSource>
					<rate>
					<timebase>60</timebase>
					<ntsc>TRUE</ntsc>
					</rate>
					<timecode>
					<rate>
					<timebase>60</timebase>
					<ntsc>TRUE</ntsc>
					</rate>
					<string>00:00:00:00</string>
					<frame>0</frame>
					<displayformat>NDF</displayformat>
					</timecode>
					<media>
					<video>
					<samplecharacteristics>
					<rate>
					<timebase>60</timebase>
					<ntsc>TRUE</ntsc>
					</rate>
					<width>1080</width>
					<height>1920</height>
					<anamorphic>FALSE</anamorphic>
					<pixelaspectratio>square</pixelaspectratio>
					<fielddominance>none</fielddominance>
					</samplecharacteristics>
					</video>
					</media>
					</file>
					<filter>
					<effect>
					<name></name>
					<effectid>GraphicAndType</effectid>
					<effectcategory>graphic</effectcategory>
					<effecttype>filter</effecttype>
					<mediatype>video</mediatype>
					<pproBypass>false</pproBypass>
					<parameter authoringApp="PremierePro">
					<parameterid>1</parameterid>
					<name></name>
					<hash>025b1101-ead6-0ca2-1feb-caf3000001fc</hash>
					<value>5AEAAAAAAABEMyIRDAAAAAAABgAKAAQABgAAAGQAAAAAAF4ASAAQAAwARABAADwAOAAAAAAAAAAAADQAMwAsAAAAKAAkACAAAAAAAAAAAAAAAAAAHAAAAAAAGgAAAAAAAAAUAAAAAAAAAAAAAAAAAAAAAAAAAAgAAAAAABsABwBeAAAAAAAAAUAAAABQAAAAbAAAAAIAAAAAAAEAAQAAAAAAQEEAAMBAAABAQAAAyEIAAAABIAAAAAIAAAACAAAAAAA2QwCASkTw/v//9P7///j+//8S////AAAAAAEAAAAEAAAAEQAAAEhHUFNvZWlLYWt1cG9wdGFpAAAAAQAAAAwAAAAIAAwABAAIAAgAAAAIAAAAUAAAAA8AAADvvIEAAAAAAAAAAAAAAAAAAAA2ACQAAAAgABwAAAAAABsAFAAAAAAAAAAAAAAAAAAAAAAAAAAAABAAAAAAAAAADAAAAAgABAA2AAAAAgAAABwAAAAcAAAAHAAAAAAAIEEAAAABaAAAAE3PAEOw////tP///wEAAAAUAAAAEAAaAAgABwAMAAAAEAAUABAAAAAAAAABHAAAAAAAoEEcAAAAAgAAAAAACgAIAAUABgAHAAoAAAAADAD//P///wQABAAEAAAACAAIAAYABwAIAAAAAAAMAA==</value>
					</parameter>
					<parameter authoringApp="PremierePro">
					<parameterid>2</parameterid>
					<name></name>
					<IsTimeVarying>false</IsTimeVarying>
					<ParameterControlType>11</ParameterControlType>
					<LowerBound>false</LowerBound>
					<UpperBound>false</UpperBound>
					<value>-91445760000000000,false,0,0,0,0,0,0</value>
					</parameter>
					<parameter authoringApp="PremierePro">
					<parameterid>3</parameterid>
					<name></name>
					<IsTimeVarying>false</IsTimeVarying>
					<value>-91445760000000000,0.5:0.5,0,0,0,0,0,0,5,4,0,0,0,0</value>
					</parameter>
					<parameter authoringApp="PremierePro">
					<parameterid>4</parameterid>
					<name></name>
					<IsTimeVarying>false</IsTimeVarying>
					<ParameterControlType>2</ParameterControlType>
					<LowerBound>0</LowerBound>
					<UpperBound>4000</UpperBound>
					<value>-91445760000000000,100.,0,0,0,0,0,0</value>
					</parameter>
					<parameter authoringApp="PremierePro">
					<parameterid>8</parameterid>
					<name></name>
					<IsTimeVarying>false</IsTimeVarying>
					<ParameterControlType>2</ParameterControlType>
					<LowerBound>0</LowerBound>
					<UpperBound>100</UpperBound>
					<value>-91445760000000000,100.,0,0,0,0,0,0</value>
					</parameter>
					</effect>
					</filter>
					<logginginfo>
					<description></description>
					<scene></scene>
					<shottake></shottake>
					<lognote></lognote>
					<good></good>
					<originalvideofilename></originalvideofilename>
					<originalaudiofilename></originalaudiofilename>
					</logginginfo>
					<colorinfo>
					<lut></lut>
					<lut1></lut1>
					<asc_sop></asc_sop>
					<asc_sat></asc_sat>
					<lut2></lut2>
					</colorinfo>
					<labels>
					</labels>
					</clipitem>
					<clipitem frameBlend="FALSE" id="clipitem-502">
					<masterclipid>masterclip-422</masterclipid>
					<name></name>
					<enabled>TRUE</enabled>
					<duration>2582774</duration>
					<rate>
					
					                                    <timebase>60</timebase>
					                                    <ntsc>TRUE</ntsc>
					                                
					</rate>
					<start>3880</start>
					<end>3940</end>
					<in>3880</in>
					<out>3940</out>
					<pproTicksIn>914456774963789</pproTicksIn>
					<pproTicksOut>914677708529577</pproTicksOut>
					<alphatype>straight</alphatype>
					<pixelaspectratio>square</pixelaspectratio>
					<anamorphic>FALSE</anamorphic>
					<file id="file-421">
					<name></name>
					<mediaSource>GraphicAndType</mediaSource>
					<rate>
					<timebase>60</timebase>
					<ntsc>TRUE</ntsc>
					</rate>
					<timecode>
					<rate>
					<timebase>60</timebase>
					<ntsc>TRUE</ntsc>
					</rate>
					<string>00:00:00:00</string>
					<frame>0</frame>
					<displayformat>NDF</displayformat>
					</timecode>
					<media>
					<video>
					<samplecharacteristics>
					<rate>
					<timebase>60</timebase>
					<ntsc>TRUE</ntsc>
					</rate>
					<width>1080</width>
					<height>1920</height>
					<anamorphic>FALSE</anamorphic>
					<pixelaspectratio>square</pixelaspectratio>
					<fielddominance>none</fielddominance>
					</samplecharacteristics>
					</video>
					</media>
					</file>
					<filter>
					<effect>
					<name></name>
					<effectid>GraphicAndType</effectid>
					<effectcategory>graphic</effectcategory>
					<effecttype>filter</effecttype>
					<mediatype>video</mediatype>
					<pproBypass>false</pproBypass>
					<parameter authoringApp="PremierePro">
					<parameterid>1</parameterid>
					<name></name>
					<hash>025b1101-ead6-0ca2-1feb-caf3000001fc</hash>
					<value>5AEAAAAAAABEMyIRDAAAAAAABgAKAAQABgAAAGQAAAAAAF4ASAAQAAwARABAADwAOAAAAAAAAAAAADQAMwAsAAAAKAAkACAAAAAAAAAAAAAAAAAAHAAAAAAAGgAAAAAAAAAUAAAAAAAAAAAAAAAAAAAAAAAAAAgAAAAAABsABwBeAAAAAAAAAUAAAABQAAAAbAAAAAIAAAAAAAEAAQAAAAAAQEEAAMBAAABAQAAAyEIAAAABIAAAAAIAAAACAAAAAAA2QwCASkTw/v//9P7///j+//8S////AAAAAAEAAAAEAAAAEQAAAEhHUFNvZWlLYWt1cG9wdGFpAAAAAQAAAAwAAAAIAAwABAAIAAgAAAAIAAAAUAAAAA8AAADvvIEAAAAAAAAAAAAAAAAAAAA2ACQAAAAgABwAAAAAABsAFAAAAAAAAAAAAAAAAAAAAAAAAAAAABAAAAAAAAAADAAAAAgABAA2AAAAAgAAABwAAAAcAAAAHAAAAAAAIEEAAAABaAAAAE3PAEOw////tP///wEAAAAUAAAAEAAaAAgABwAMAAAAEAAUABAAAAAAAAABHAAAAAAAoEEcAAAAAgAAAAAACgAIAAUABgAHAAoAAAAADAD//P///wQABAAEAAAACAAIAAYABwAIAAAAAAAMAA==</value>
					</parameter>
					<parameter authoringApp="PremierePro">
					<parameterid>2</parameterid>
					<name></name>
					<IsTimeVarying>false</IsTimeVarying>
					<ParameterControlType>11</ParameterControlType>
					<LowerBound>false</LowerBound>
					<UpperBound>false</UpperBound>
					<value>-91445760000000000,false,0,0,0,0,0,0</value>
					</parameter>
					<parameter authoringApp="PremierePro">
					<parameterid>3</parameterid>
					<name></name>
					<IsTimeVarying>false</IsTimeVarying>
					<value>-91445760000000000,0.5:0.5,0,0,0,0,0,0,5,4,0,0,0,0</value>
					</parameter>
					<parameter authoringApp="PremierePro">
					<parameterid>4</parameterid>
					<name></name>
					<IsTimeVarying>false</IsTimeVarying>
					<ParameterControlType>2</ParameterControlType>
					<LowerBound>0</LowerBound>
					<UpperBound>4000</UpperBound>
					<value>-91445760000000000,100.,0,0,0,0,0,0</value>
					</parameter>
					<parameter authoringApp="PremierePro">
					<parameterid>8</parameterid>
					<name></name>
					<IsTimeVarying>false</IsTimeVarying>
					<ParameterControlType>2</ParameterControlType>
					<LowerBound>0</LowerBound>
					<UpperBound>100</UpperBound>
					<value>-91445760000000000,100.,0,0,0,0,0,0</value>
					</parameter>
					</effect>
					</filter>
					<logginginfo>
					<description></description>
					<scene></scene>
					<shottake></shottake>
					<lognote></lognote>
					<good></good>
					<originalvideofilename></originalvideofilename>
					<originalaudiofilename></originalaudiofilename>
					</logginginfo>
					<colorinfo>
					<lut></lut>
					<lut1></lut1>
					<asc_sop></asc_sop>
					<asc_sat></asc_sat>
					<lut2></lut2>
					</colorinfo>
					<labels>
					</labels>
					</clipitem>
					<clipitem frameBlend="FALSE" id="clipitem-504">
					<masterclipid>masterclip-424</masterclipid>
					<name></name>
					<enabled>TRUE</enabled>
					<duration>2582774</duration>
					<rate>
					
					                                    <timebase>60</timebase>
					                                    <ntsc>TRUE</ntsc>
					                                
					</rate>
					<start>3964</start>
					<end>4024</end>
					<in>3964</in>
					<out>4024</out>
					<pproTicksIn>914456774963789</pproTicksIn>
					<pproTicksOut>914677708529577</pproTicksOut>
					<alphatype>straight</alphatype>
					<pixelaspectratio>square</pixelaspectratio>
					<anamorphic>FALSE</anamorphic>
					<file id="file-423">
					<name></name>
					<mediaSource>GraphicAndType</mediaSource>
					<rate>
					<timebase>60</timebase>
					<ntsc>TRUE</ntsc>
					</rate>
					<timecode>
					<rate>
					<timebase>60</timebase>
					<ntsc>TRUE</ntsc>
					</rate>
					<string>00:00:00:00</string>
					<frame>0</frame>
					<displayformat>NDF</displayformat>
					</timecode>
					<media>
					<video>
					<samplecharacteristics>
					<rate>
					<timebase>60</timebase>
					<ntsc>TRUE</ntsc>
					</rate>
					<width>1080</width>
					<height>1920</height>
					<anamorphic>FALSE</anamorphic>
					<pixelaspectratio>square</pixelaspectratio>
					<fielddominance>none</fielddominance>
					</samplecharacteristics>
					</video>
					</media>
					</file>
					<filter>
					<effect>
					<name></name>
					<effectid>GraphicAndType</effectid>
					<effectcategory>graphic</effectcategory>
					<effecttype>filter</effecttype>
					<mediatype>video</mediatype>
					<pproBypass>false</pproBypass>
					<parameter authoringApp="PremierePro">
					<parameterid>1</parameterid>
					<name></name>
					<hash>025b1101-ead6-0ca2-1feb-caf3000001fc</hash>
					<value>5AEAAAAAAABEMyIRDAAAAAAABgAKAAQABgAAAGQAAAAAAF4ASAAQAAwARABAADwAOAAAAAAAAAAAADQAMwAsAAAAKAAkACAAAAAAAAAAAAAAAAAAHAAAAAAAGgAAAAAAAAAUAAAAAAAAAAAAAAAAAAAAAAAAAAgAAAAAABsABwBeAAAAAAAAAUAAAABQAAAAbAAAAAIAAAAAAAEAAQAAAAAAQEEAAMBAAABAQAAAyEIAAAABIAAAAAIAAAACAAAAAAA2QwCASkTw/v//9P7///j+//8S////AAAAAAEAAAAEAAAAEQAAAEhHUFNvZWlLYWt1cG9wdGFpAAAAAQAAAAwAAAAIAAwABAAIAAgAAAAIAAAAUAAAAA8AAADvvIEAAAAAAAAAAAAAAAAAAAA2ACQAAAAgABwAAAAAABsAFAAAAAAAAAAAAAAAAAAAAAAAAAAAABAAAAAAAAAADAAAAAgABAA2AAAAAgAAABwAAAAcAAAAHAAAAAAAIEEAAAABaAAAAE3PAEOw////tP///wEAAAAUAAAAEAAaAAgABwAMAAAAEAAUABAAAAAAAAABHAAAAAAAoEEcAAAAAgAAAAAACgAIAAUABgAHAAoAAAAADAD//P///wQABAAEAAAACAAIAAYABwAIAAAAAAAMAA==</value>
					</parameter>
					<parameter authoringApp="PremierePro">
					<parameterid>2</parameterid>
					<name></name>
					<IsTimeVarying>false</IsTimeVarying>
					<ParameterControlType>11</ParameterControlType>
					<LowerBound>false</LowerBound>
					<UpperBound>false</UpperBound>
					<value>-91445760000000000,false,0,0,0,0,0,0</value>
					</parameter>
					<parameter authoringApp="PremierePro">
					<parameterid>3</parameterid>
					<name></name>
					<IsTimeVarying>false</IsTimeVarying>
					<value>-91445760000000000,0.5:0.5,0,0,0,0,0,0,5,4,0,0,0,0</value>
					</parameter>
					<parameter authoringApp="PremierePro">
					<parameterid>4</parameterid>
					<name></name>
					<IsTimeVarying>false</IsTimeVarying>
					<ParameterControlType>2</ParameterControlType>
					<LowerBound>0</LowerBound>
					<UpperBound>4000</UpperBound>
					<value>-91445760000000000,100.,0,0,0,0,0,0</value>
					</parameter>
					<parameter authoringApp="PremierePro">
					<parameterid>8</parameterid>
					<name></name>
					<IsTimeVarying>false</IsTimeVarying>
					<ParameterControlType>2</ParameterControlType>
					<LowerBound>0</LowerBound>
					<UpperBound>100</UpperBound>
					<value>-91445760000000000,100.,0,0,0,0,0,0</value>
					</parameter>
					</effect>
					</filter>
					<logginginfo>
					<description></description>
					<scene></scene>
					<shottake></shottake>
					<lognote></lognote>
					<good></good>
					<originalvideofilename></originalvideofilename>
					<originalaudiofilename></originalaudiofilename>
					</logginginfo>
					<colorinfo>
					<lut></lut>
					<lut1></lut1>
					<asc_sop></asc_sop>
					<asc_sat></asc_sat>
					<lut2></lut2>
					</colorinfo>
					<labels>
					</labels>
					</clipitem>
					<clipitem frameBlend="FALSE" id="clipitem-508">
					<masterclipid>masterclip-428</masterclipid>
					<name></name>
					<enabled>TRUE</enabled>
					<duration>2582774</duration>
					<rate>
					
					                                    <timebase>60</timebase>
					                                    <ntsc>TRUE</ntsc>
					                                
					</rate>
					<start>4024</start>
					<end>4084</end>
					<in>4024</in>
					<out>4084</out>
					<pproTicksIn>914456774963789</pproTicksIn>
					<pproTicksOut>914677708529577</pproTicksOut>
					<alphatype>straight</alphatype>
					<pixelaspectratio>square</pixelaspectratio>
					<anamorphic>FALSE</anamorphic>
					<file id="file-427">
					<name></name>
					<mediaSource>GraphicAndType</mediaSource>
					<rate>
					<timebase>60</timebase>
					<ntsc>TRUE</ntsc>
					</rate>
					<timecode>
					<rate>
					<timebase>60</timebase>
					<ntsc>TRUE</ntsc>
					</rate>
					<string>00:00:00:00</string>
					<frame>0</frame>
					<displayformat>NDF</displayformat>
					</timecode>
					<media>
					<video>
					<samplecharacteristics>
					<rate>
					<timebase>60</timebase>
					<ntsc>TRUE</ntsc>
					</rate>
					<width>1080</width>
					<height>1920</height>
					<anamorphic>FALSE</anamorphic>
					<pixelaspectratio>square</pixelaspectratio>
					<fielddominance>none</fielddominance>
					</samplecharacteristics>
					</video>
					</media>
					</file>
					<filter>
					<effect>
					<name></name>
					<effectid>GraphicAndType</effectid>
					<effectcategory>graphic</effectcategory>
					<effecttype>filter</effecttype>
					<mediatype>video</mediatype>
					<pproBypass>false</pproBypass>
					<parameter authoringApp="PremierePro">
					<parameterid>1</parameterid>
					<name></name>
					<hash>025b1101-ead6-0ca2-1feb-caf3000001fc</hash>
					<value>5AEAAAAAAABEMyIRDAAAAAAABgAKAAQABgAAAGQAAAAAAF4ASAAQAAwARABAADwAOAAAAAAAAAAAADQAMwAsAAAAKAAkACAAAAAAAAAAAAAAAAAAHAAAAAAAGgAAAAAAAAAUAAAAAAAAAAAAAAAAAAAAAAAAAAgAAAAAABsABwBeAAAAAAAAAUAAAABQAAAAbAAAAAIAAAAAAAEAAQAAAAAAQEEAAMBAAABAQAAAyEIAAAABIAAAAAIAAAACAAAAAAA2QwCASkTw/v//9P7///j+//8S////AAAAAAEAAAAEAAAAEQAAAEhHUFNvZWlLYWt1cG9wdGFpAAAAAQAAAAwAAAAIAAwABAAIAAgAAAAIAAAAUAAAAA8AAADvvIEAAAAAAAAAAAAAAAAAAAA2ACQAAAAgABwAAAAAABsAFAAAAAAAAAAAAAAAAAAAAAAAAAAAABAAAAAAAAAADAAAAAgABAA2AAAAAgAAABwAAAAcAAAAHAAAAAAAIEEAAAABaAAAAE3PAEOw////tP///wEAAAAUAAAAEAAaAAgABwAMAAAAEAAUABAAAAAAAAABHAAAAAAAoEEcAAAAAgAAAAAACgAIAAUABgAHAAoAAAAADAD//P///wQABAAEAAAACAAIAAYABwAIAAAAAAAMAA==</value>
					</parameter>
					<parameter authoringApp="PremierePro">
					<parameterid>2</parameterid>
					<name></name>
					<IsTimeVarying>false</IsTimeVarying>
					<ParameterControlType>11</ParameterControlType>
					<LowerBound>false</LowerBound>
					<UpperBound>false</UpperBound>
					<value>-91445760000000000,false,0,0,0,0,0,0</value>
					</parameter>
					<parameter authoringApp="PremierePro">
					<parameterid>3</parameterid>
					<name></name>
					<IsTimeVarying>false</IsTimeVarying>
					<value>-91445760000000000,0.5:0.5,0,0,0,0,0,0,5,4,0,0,0,0</value>
					</parameter>
					<parameter authoringApp="PremierePro">
					<parameterid>4</parameterid>
					<name></name>
					<IsTimeVarying>false</IsTimeVarying>
					<ParameterControlType>2</ParameterControlType>
					<LowerBound>0</LowerBound>
					<UpperBound>4000</UpperBound>
					<value>-91445760000000000,100.,0,0,0,0,0,0</value>
					</parameter>
					<parameter authoringApp="PremierePro">
					<parameterid>8</parameterid>
					<name></name>
					<IsTimeVarying>false</IsTimeVarying>
					<ParameterControlType>2</ParameterControlType>
					<LowerBound>0</LowerBound>
					<UpperBound>100</UpperBound>
					<value>-91445760000000000,100.,0,0,0,0,0,0</value>
					</parameter>
					</effect>
					</filter>
					<logginginfo>
					<description></description>
					<scene></scene>
					<shottake></shottake>
					<lognote></lognote>
					<good></good>
					<originalvideofilename></originalvideofilename>
					<originalaudiofilename></originalaudiofilename>
					</logginginfo>
					<colorinfo>
					<lut></lut>
					<lut1></lut1>
					<asc_sop></asc_sop>
					<asc_sat></asc_sat>
					<lut2></lut2>
					</colorinfo>
					<labels>
					</labels>
					</clipitem>
					<clipitem frameBlend="FALSE" id="clipitem-512">
					<masterclipid>masterclip-432</masterclipid>
					<name></name>
					<enabled>TRUE</enabled>
					<duration>2582774</duration>
					<rate>
					
					                                    <timebase>60</timebase>
					                                    <ntsc>TRUE</ntsc>
					                                
					</rate>
					<start>4084</start>
					<end>4144</end>
					<in>4084</in>
					<out>4144</out>
					<pproTicksIn>914456774963789</pproTicksIn>
					<pproTicksOut>914677708529577</pproTicksOut>
					<alphatype>straight</alphatype>
					<pixelaspectratio>square</pixelaspectratio>
					<anamorphic>FALSE</anamorphic>
					<file id="file-431">
					<name></name>
					<mediaSource>GraphicAndType</mediaSource>
					<rate>
					<timebase>60</timebase>
					<ntsc>TRUE</ntsc>
					</rate>
					<timecode>
					<rate>
					<timebase>60</timebase>
					<ntsc>TRUE</ntsc>
					</rate>
					<string>00:00:00:00</string>
					<frame>0</frame>
					<displayformat>NDF</displayformat>
					</timecode>
					<media>
					<video>
					<samplecharacteristics>
					<rate>
					<timebase>60</timebase>
					<ntsc>TRUE</ntsc>
					</rate>
					<width>1080</width>
					<height>1920</height>
					<anamorphic>FALSE</anamorphic>
					<pixelaspectratio>square</pixelaspectratio>
					<fielddominance>none</fielddominance>
					</samplecharacteristics>
					</video>
					</media>
					</file>
					<filter>
					<effect>
					<name></name>
					<effectid>GraphicAndType</effectid>
					<effectcategory>graphic</effectcategory>
					<effecttype>filter</effecttype>
					<mediatype>video</mediatype>
					<pproBypass>false</pproBypass>
					<parameter authoringApp="PremierePro">
					<parameterid>1</parameterid>
					<name></name>
					<hash>025b1101-ead6-0ca2-1feb-caf3000001fc</hash>
					<value>5AEAAAAAAABEMyIRDAAAAAAABgAKAAQABgAAAGQAAAAAAF4ASAAQAAwARABAADwAOAAAAAAAAAAAADQAMwAsAAAAKAAkACAAAAAAAAAAAAAAAAAAHAAAAAAAGgAAAAAAAAAUAAAAAAAAAAAAAAAAAAAAAAAAAAgAAAAAABsABwBeAAAAAAAAAUAAAABQAAAAbAAAAAIAAAAAAAEAAQAAAAAAQEEAAMBAAABAQAAAyEIAAAABIAAAAAIAAAACAAAAAAA2QwCASkTw/v//9P7///j+//8S////AAAAAAEAAAAEAAAAEQAAAEhHUFNvZWlLYWt1cG9wdGFpAAAAAQAAAAwAAAAIAAwABAAIAAgAAAAIAAAAUAAAAA8AAADvvIEAAAAAAAAAAAAAAAAAAAA2ACQAAAAgABwAAAAAABsAFAAAAAAAAAAAAAAAAAAAAAAAAAAAABAAAAAAAAAADAAAAAgABAA2AAAAAgAAABwAAAAcAAAAHAAAAAAAIEEAAAABaAAAAE3PAEOw////tP///wEAAAAUAAAAEAAaAAgABwAMAAAAEAAUABAAAAAAAAABHAAAAAAAoEEcAAAAAgAAAAAACgAIAAUABgAHAAoAAAAADAD//P///wQABAAEAAAACAAIAAYABwAIAAAAAAAMAA==</value>
					</parameter>
					<parameter authoringApp="PremierePro">
					<parameterid>2</parameterid>
					<name></name>
					<IsTimeVarying>false</IsTimeVarying>
					<ParameterControlType>11</ParameterControlType>
					<LowerBound>false</LowerBound>
					<UpperBound>false</UpperBound>
					<value>-91445760000000000,false,0,0,0,0,0,0</value>
					</parameter>
					<parameter authoringApp="PremierePro">
					<parameterid>3</parameterid>
					<name></name>
					<IsTimeVarying>false</IsTimeVarying>
					<value>-91445760000000000,0.5:0.5,0,0,0,0,0,0,5,4,0,0,0,0</value>
					</parameter>
					<parameter authoringApp="PremierePro">
					<parameterid>4</parameterid>
					<name></name>
					<IsTimeVarying>false</IsTimeVarying>
					<ParameterControlType>2</ParameterControlType>
					<LowerBound>0</LowerBound>
					<UpperBound>4000</UpperBound>
					<value>-91445760000000000,100.,0,0,0,0,0,0</value>
					</parameter>
					<parameter authoringApp="PremierePro">
					<parameterid>8</parameterid>
					<name></name>
					<IsTimeVarying>false</IsTimeVarying>
					<ParameterControlType>2</ParameterControlType>
					<LowerBound>0</LowerBound>
					<UpperBound>100</UpperBound>
					<value>-91445760000000000,100.,0,0,0,0,0,0</value>
					</parameter>
					</effect>
					</filter>
					<logginginfo>
					<description></description>
					<scene></scene>
					<shottake></shottake>
					<lognote></lognote>
					<good></good>
					<originalvideofilename></originalvideofilename>
					<originalaudiofilename></originalaudiofilename>
					</logginginfo>
					<colorinfo>
					<lut></lut>
					<lut1></lut1>
					<asc_sop></asc_sop>
					<asc_sat></asc_sat>
					<lut2></lut2>
					</colorinfo>
					<labels>
					</labels>
					</clipitem>
					<clipitem frameBlend="FALSE" id="clipitem-516">
					<masterclipid>masterclip-436</masterclipid>
					<name></name>
					<enabled>TRUE</enabled>
					<duration>2582774</duration>
					<rate>
					
					                                    <timebase>60</timebase>
					                                    <ntsc>TRUE</ntsc>
					                                
					</rate>
					<start>4162</start>
					<end>4228</end>
					<in>4162</in>
					<out>4228</out>
					<pproTicksIn>914456774963789</pproTicksIn>
					<pproTicksOut>914677708529577</pproTicksOut>
					<alphatype>straight</alphatype>
					<pixelaspectratio>square</pixelaspectratio>
					<anamorphic>FALSE</anamorphic>
					<file id="file-435">
					<name></name>
					<mediaSource>GraphicAndType</mediaSource>
					<rate>
					<timebase>60</timebase>
					<ntsc>TRUE</ntsc>
					</rate>
					<timecode>
					<rate>
					<timebase>60</timebase>
					<ntsc>TRUE</ntsc>
					</rate>
					<string>00:00:00:00</string>
					<frame>0</frame>
					<displayformat>NDF</displayformat>
					</timecode>
					<media>
					<video>
					<samplecharacteristics>
					<rate>
					<timebase>60</timebase>
					<ntsc>TRUE</ntsc>
					</rate>
					<width>1080</width>
					<height>1920</height>
					<anamorphic>FALSE</anamorphic>
					<pixelaspectratio>square</pixelaspectratio>
					<fielddominance>none</fielddominance>
					</samplecharacteristics>
					</video>
					</media>
					</file>
					<filter>
					<effect>
					<name></name>
					<effectid>GraphicAndType</effectid>
					<effectcategory>graphic</effectcategory>
					<effecttype>filter</effecttype>
					<mediatype>video</mediatype>
					<pproBypass>false</pproBypass>
					<parameter authoringApp="PremierePro">
					<parameterid>1</parameterid>
					<name></name>
					<hash>025b1101-ead6-0ca2-1feb-caf3000001fc</hash>
					<value>5AEAAAAAAABEMyIRDAAAAAAABgAKAAQABgAAAGQAAAAAAF4ASAAQAAwARABAADwAOAAAAAAAAAAAADQAMwAsAAAAKAAkACAAAAAAAAAAAAAAAAAAHAAAAAAAGgAAAAAAAAAUAAAAAAAAAAAAAAAAAAAAAAAAAAgAAAAAABsABwBeAAAAAAAAAUAAAABQAAAAbAAAAAIAAAAAAAEAAQAAAAAAQEEAAMBAAABAQAAAyEIAAAABIAAAAAIAAAACAAAAAAA2QwCASkTw/v//9P7///j+//8S////AAAAAAEAAAAEAAAAEQAAAEhHUFNvZWlLYWt1cG9wdGFpAAAAAQAAAAwAAAAIAAwABAAIAAgAAAAIAAAAUAAAAA8AAADvvIEAAAAAAAAAAAAAAAAAAAA2ACQAAAAgABwAAAAAABsAFAAAAAAAAAAAAAAAAAAAAAAAAAAAABAAAAAAAAAADAAAAAgABAA2AAAAAgAAABwAAAAcAAAAHAAAAAAAIEEAAAABaAAAAE3PAEOw////tP///wEAAAAUAAAAEAAaAAgABwAMAAAAEAAUABAAAAAAAAABHAAAAAAAoEEcAAAAAgAAAAAACgAIAAUABgAHAAoAAAAADAD//P///wQABAAEAAAACAAIAAYABwAIAAAAAAAMAA==</value>
					</parameter>
					<parameter authoringApp="PremierePro">
					<parameterid>2</parameterid>
					<name></name>
					<IsTimeVarying>false</IsTimeVarying>
					<ParameterControlType>11</ParameterControlType>
					<LowerBound>false</LowerBound>
					<UpperBound>false</UpperBound>
					<value>-91445760000000000,false,0,0,0,0,0,0</value>
					</parameter>
					<parameter authoringApp="PremierePro">
					<parameterid>3</parameterid>
					<name></name>
					<IsTimeVarying>false</IsTimeVarying>
					<value>-91445760000000000,0.5:0.5,0,0,0,0,0,0,5,4,0,0,0,0</value>
					</parameter>
					<parameter authoringApp="PremierePro">
					<parameterid>4</parameterid>
					<name></name>
					<IsTimeVarying>false</IsTimeVarying>
					<ParameterControlType>2</ParameterControlType>
					<LowerBound>0</LowerBound>
					<UpperBound>4000</UpperBound>
					<value>-91445760000000000,100.,0,0,0,0,0,0</value>
					</parameter>
					<parameter authoringApp="PremierePro">
					<parameterid>8</parameterid>
					<name></name>
					<IsTimeVarying>false</IsTimeVarying>
					<ParameterControlType>2</ParameterControlType>
					<LowerBound>0</LowerBound>
					<UpperBound>100</UpperBound>
					<value>-91445760000000000,100.,0,0,0,0,0,0</value>
					</parameter>
					</effect>
					</filter>
					<logginginfo>
					<description></description>
					<scene></scene>
					<shottake></shottake>
					<lognote></lognote>
					<good></good>
					<originalvideofilename></originalvideofilename>
					<originalaudiofilename></originalaudiofilename>
					</logginginfo>
					<colorinfo>
					<lut></lut>
					<lut1></lut1>
					<asc_sop></asc_sop>
					<asc_sat></asc_sat>
					<lut2></lut2>
					</colorinfo>
					<labels>
					</labels>
					</clipitem>
					<clipitem frameBlend="FALSE" id="clipitem-521">
					<masterclipid>masterclip-441</masterclipid>
					<name></name>
					<enabled>TRUE</enabled>
					<duration>2582774</duration>
					<rate>
					
					                                    <timebase>60</timebase>
					                                    <ntsc>TRUE</ntsc>
					                                
					</rate>
					<start>4228</start>
					<end>4288</end>
					<in>4228</in>
					<out>4288</out>
					<pproTicksIn>914456774963789</pproTicksIn>
					<pproTicksOut>914677708529577</pproTicksOut>
					<alphatype>straight</alphatype>
					<pixelaspectratio>square</pixelaspectratio>
					<anamorphic>FALSE</anamorphic>
					<file id="file-440">
					<name></name>
					<mediaSource>GraphicAndType</mediaSource>
					<rate>
					<timebase>60</timebase>
					<ntsc>TRUE</ntsc>
					</rate>
					<timecode>
					<rate>
					<timebase>60</timebase>
					<ntsc>TRUE</ntsc>
					</rate>
					<string>00:00:00:00</string>
					<frame>0</frame>
					<displayformat>NDF</displayformat>
					</timecode>
					<media>
					<video>
					<samplecharacteristics>
					<rate>
					<timebase>60</timebase>
					<ntsc>TRUE</ntsc>
					</rate>
					<width>1080</width>
					<height>1920</height>
					<anamorphic>FALSE</anamorphic>
					<pixelaspectratio>square</pixelaspectratio>
					<fielddominance>none</fielddominance>
					</samplecharacteristics>
					</video>
					</media>
					</file>
					<filter>
					<effect>
					<name></name>
					<effectid>GraphicAndType</effectid>
					<effectcategory>graphic</effectcategory>
					<effecttype>filter</effecttype>
					<mediatype>video</mediatype>
					<pproBypass>false</pproBypass>
					<parameter authoringApp="PremierePro">
					<parameterid>1</parameterid>
					<name></name>
					<hash>025b1101-ead6-0ca2-1feb-caf3000001fc</hash>
					<value>5AEAAAAAAABEMyIRDAAAAAAABgAKAAQABgAAAGQAAAAAAF4ASAAQAAwARABAADwAOAAAAAAAAAAAADQAMwAsAAAAKAAkACAAAAAAAAAAAAAAAAAAHAAAAAAAGgAAAAAAAAAUAAAAAAAAAAAAAAAAAAAAAAAAAAgAAAAAABsABwBeAAAAAAAAAUAAAABQAAAAbAAAAAIAAAAAAAEAAQAAAAAAQEEAAMBAAABAQAAAyEIAAAABIAAAAAIAAAACAAAAAAA2QwCASkTw/v//9P7///j+//8S////AAAAAAEAAAAEAAAAEQAAAEhHUFNvZWlLYWt1cG9wdGFpAAAAAQAAAAwAAAAIAAwABAAIAAgAAAAIAAAAUAAAAA8AAADvvIEAAAAAAAAAAAAAAAAAAAA2ACQAAAAgABwAAAAAABsAFAAAAAAAAAAAAAAAAAAAAAAAAAAAABAAAAAAAAAADAAAAAgABAA2AAAAAgAAABwAAAAcAAAAHAAAAAAAIEEAAAABaAAAAE3PAEOw////tP///wEAAAAUAAAAEAAaAAgABwAMAAAAEAAUABAAAAAAAAABHAAAAAAAoEEcAAAAAgAAAAAACgAIAAUABgAHAAoAAAAADAD//P///wQABAAEAAAACAAIAAYABwAIAAAAAAAMAA==</value>
					</parameter>
					<parameter authoringApp="PremierePro">
					<parameterid>2</parameterid>
					<name></name>
					<IsTimeVarying>false</IsTimeVarying>
					<ParameterControlType>11</ParameterControlType>
					<LowerBound>false</LowerBound>
					<UpperBound>false</UpperBound>
					<value>-91445760000000000,false,0,0,0,0,0,0</value>
					</parameter>
					<parameter authoringApp="PremierePro">
					<parameterid>3</parameterid>
					<name></name>
					<IsTimeVarying>false</IsTimeVarying>
					<value>-91445760000000000,0.5:0.5,0,0,0,0,0,0,5,4,0,0,0,0</value>
					</parameter>
					<parameter authoringApp="PremierePro">
					<parameterid>4</parameterid>
					<name></name>
					<IsTimeVarying>false</IsTimeVarying>
					<ParameterControlType>2</ParameterControlType>
					<LowerBound>0</LowerBound>
					<UpperBound>4000</UpperBound>
					<value>-91445760000000000,100.,0,0,0,0,0,0</value>
					</parameter>
					<parameter authoringApp="PremierePro">
					<parameterid>8</parameterid>
					<name></name>
					<IsTimeVarying>false</IsTimeVarying>
					<ParameterControlType>2</ParameterControlType>
					<LowerBound>0</LowerBound>
					<UpperBound>100</UpperBound>
					<value>-91445760000000000,100.,0,0,0,0,0,0</value>
					</parameter>
					</effect>
					</filter>
					<logginginfo>
					<description></description>
					<scene></scene>
					<shottake></shottake>
					<lognote></lognote>
					<good></good>
					<originalvideofilename></originalvideofilename>
					<originalaudiofilename></originalaudiofilename>
					</logginginfo>
					<colorinfo>
					<lut></lut>
					<lut1></lut1>
					<asc_sop></asc_sop>
					<asc_sat></asc_sat>
					<lut2></lut2>
					</colorinfo>
					<labels>
					</labels>
					</clipitem>
					<clipitem frameBlend="FALSE" id="clipitem-527">
					<masterclipid>masterclip-447</masterclipid>
					<name></name>
					<enabled>TRUE</enabled>
					<duration>2582774</duration>
					<rate>
					
					                                    <timebase>60</timebase>
					                                    <ntsc>TRUE</ntsc>
					                                
					</rate>
					<start>4288</start>
					<end>4348</end>
					<in>4288</in>
					<out>4348</out>
					<pproTicksIn>914456774963789</pproTicksIn>
					<pproTicksOut>914677708529577</pproTicksOut>
					<alphatype>straight</alphatype>
					<pixelaspectratio>square</pixelaspectratio>
					<anamorphic>FALSE</anamorphic>
					<file id="file-446">
					<name></name>
					<mediaSource>GraphicAndType</mediaSource>
					<rate>
					<timebase>60</timebase>
					<ntsc>TRUE</ntsc>
					</rate>
					<timecode>
					<rate>
					<timebase>60</timebase>
					<ntsc>TRUE</ntsc>
					</rate>
					<string>00:00:00:00</string>
					<frame>0</frame>
					<displayformat>NDF</displayformat>
					</timecode>
					<media>
					<video>
					<samplecharacteristics>
					<rate>
					<timebase>60</timebase>
					<ntsc>TRUE</ntsc>
					</rate>
					<width>1080</width>
					<height>1920</height>
					<anamorphic>FALSE</anamorphic>
					<pixelaspectratio>square</pixelaspectratio>
					<fielddominance>none</fielddominance>
					</samplecharacteristics>
					</video>
					</media>
					</file>
					<filter>
					<effect>
					<name></name>
					<effectid>GraphicAndType</effectid>
					<effectcategory>graphic</effectcategory>
					<effecttype>filter</effecttype>
					<mediatype>video</mediatype>
					<pproBypass>false</pproBypass>
					<parameter authoringApp="PremierePro">
					<parameterid>1</parameterid>
					<name></name>
					<hash>025b1101-ead6-0ca2-1feb-caf3000001fc</hash>
					<value>5AEAAAAAAABEMyIRDAAAAAAABgAKAAQABgAAAGQAAAAAAF4ASAAQAAwARABAADwAOAAAAAAAAAAAADQAMwAsAAAAKAAkACAAAAAAAAAAAAAAAAAAHAAAAAAAGgAAAAAAAAAUAAAAAAAAAAAAAAAAAAAAAAAAAAgAAAAAABsABwBeAAAAAAAAAUAAAABQAAAAbAAAAAIAAAAAAAEAAQAAAAAAQEEAAMBAAABAQAAAyEIAAAABIAAAAAIAAAACAAAAAAA2QwCASkTw/v//9P7///j+//8S////AAAAAAEAAAAEAAAAEQAAAEhHUFNvZWlLYWt1cG9wdGFpAAAAAQAAAAwAAAAIAAwABAAIAAgAAAAIAAAAUAAAAA8AAADvvIEAAAAAAAAAAAAAAAAAAAA2ACQAAAAgABwAAAAAABsAFAAAAAAAAAAAAAAAAAAAAAAAAAAAABAAAAAAAAAADAAAAAgABAA2AAAAAgAAABwAAAAcAAAAHAAAAAAAIEEAAAABaAAAAE3PAEOw////tP///wEAAAAUAAAAEAAaAAgABwAMAAAAEAAUABAAAAAAAAABHAAAAAAAoEEcAAAAAgAAAAAACgAIAAUABgAHAAoAAAAADAD//P///wQABAAEAAAACAAIAAYABwAIAAAAAAAMAA==</value>
					</parameter>
					<parameter authoringApp="PremierePro">
					<parameterid>2</parameterid>
					<name></name>
					<IsTimeVarying>false</IsTimeVarying>
					<ParameterControlType>11</ParameterControlType>
					<LowerBound>false</LowerBound>
					<UpperBound>false</UpperBound>
					<value>-91445760000000000,false,0,0,0,0,0,0</value>
					</parameter>
					<parameter authoringApp="PremierePro">
					<parameterid>3</parameterid>
					<name></name>
					<IsTimeVarying>false</IsTimeVarying>
					<value>-91445760000000000,0.5:0.5,0,0,0,0,0,0,5,4,0,0,0,0</value>
					</parameter>
					<parameter authoringApp="PremierePro">
					<parameterid>4</parameterid>
					<name></name>
					<IsTimeVarying>false</IsTimeVarying>
					<ParameterControlType>2</ParameterControlType>
					<LowerBound>0</LowerBound>
					<UpperBound>4000</UpperBound>
					<value>-91445760000000000,100.,0,0,0,0,0,0</value>
					</parameter>
					<parameter authoringApp="PremierePro">
					<parameterid>8</parameterid>
					<name></name>
					<IsTimeVarying>false</IsTimeVarying>
					<ParameterControlType>2</ParameterControlType>
					<LowerBound>0</LowerBound>
					<UpperBound>100</UpperBound>
					<value>-91445760000000000,100.,0,0,0,0,0,0</value>
					</parameter>
					</effect>
					</filter>
					<logginginfo>
					<description></description>
					<scene></scene>
					<shottake></shottake>
					<lognote></lognote>
					<good></good>
					<originalvideofilename></originalvideofilename>
					<originalaudiofilename></originalaudiofilename>
					</logginginfo>
					<colorinfo>
					<lut></lut>
					<lut1></lut1>
					<asc_sop></asc_sop>
					<asc_sat></asc_sat>
					<lut2></lut2>
					</colorinfo>
					<labels>
					</labels>
					</clipitem>
					<clipitem id="clipitem-532"/>
					                        </track>
					                        <track TL.SQTrackShy="0" TL.SQTrackExpandedHeight="25" TL.SQTrackExpanded="0" MZ.TrackTargeted="0">
					<clipitem frameBlend="FALSE" id="clipitem-533">
					<masterclipid>masterclip-453</masterclipid>
					<name></name>
					<enabled>TRUE</enabled>
					<duration>2582774</duration>
					<rate>
					
					                                    <timebase>60</timebase>
					                                    <ntsc>TRUE</ntsc>
					                                
					</rate>
					<start>4348</start>
					<end>4414</end>
					<in>4348</in>
					<out>4414</out>
					<pproTicksIn>914456774963789</pproTicksIn>
					<pproTicksOut>914677708529577</pproTicksOut>
					<alphatype>straight</alphatype>
					<pixelaspectratio>square</pixelaspectratio>
					<anamorphic>FALSE</anamorphic>
					<file id="file-452">
					<name></name>
					<mediaSource>GraphicAndType</mediaSource>
					<rate>
					<timebase>60</timebase>
					<ntsc>TRUE</ntsc>
					</rate>
					<timecode>
					<rate>
					<timebase>60</timebase>
					<ntsc>TRUE</ntsc>
					</rate>
					<string>00:00:00:00</string>
					<frame>0</frame>
					<displayformat>NDF</displayformat>
					</timecode>
					<media>
					<video>
					<samplecharacteristics>
					<rate>
					<timebase>60</timebase>
					<ntsc>TRUE</ntsc>
					</rate>
					<width>1080</width>
					<height>1920</height>
					<anamorphic>FALSE</anamorphic>
					<pixelaspectratio>square</pixelaspectratio>
					<fielddominance>none</fielddominance>
					</samplecharacteristics>
					</video>
					</media>
					</file>
					<filter>
					<effect>
					<name></name>
					<effectid>GraphicAndType</effectid>
					<effectcategory>graphic</effectcategory>
					<effecttype>filter</effecttype>
					<mediatype>video</mediatype>
					<pproBypass>false</pproBypass>
					<parameter authoringApp="PremierePro">
					<parameterid>1</parameterid>
					<name></name>
					<hash>025b1101-ead6-0ca2-1feb-caf3000001fc</hash>
					<value>5AEAAAAAAABEMyIRDAAAAAAABgAKAAQABgAAAGQAAAAAAF4ASAAQAAwARABAADwAOAAAAAAAAAAAADQAMwAsAAAAKAAkACAAAAAAAAAAAAAAAAAAHAAAAAAAGgAAAAAAAAAUAAAAAAAAAAAAAAAAAAAAAAAAAAgAAAAAABsABwBeAAAAAAAAAUAAAABQAAAAbAAAAAIAAAAAAAEAAQAAAAAAQEEAAMBAAABAQAAAyEIAAAABIAAAAAIAAAACAAAAAAA2QwCASkTw/v//9P7///j+//8S////AAAAAAEAAAAEAAAAEQAAAEhHUFNvZWlLYWt1cG9wdGFpAAAAAQAAAAwAAAAIAAwABAAIAAgAAAAIAAAAUAAAAA8AAADvvIEAAAAAAAAAAAAAAAAAAAA2ACQAAAAgABwAAAAAABsAFAAAAAAAAAAAAAAAAAAAAAAAAAAAABAAAAAAAAAADAAAAAgABAA2AAAAAgAAABwAAAAcAAAAHAAAAAAAIEEAAAABaAAAAE3PAEOw////tP///wEAAAAUAAAAEAAaAAgABwAMAAAAEAAUABAAAAAAAAABHAAAAAAAoEEcAAAAAgAAAAAACgAIAAUABgAHAAoAAAAADAD//P///wQABAAEAAAACAAIAAYABwAIAAAAAAAMAA==</value>
					</parameter>
					<parameter authoringApp="PremierePro">
					<parameterid>2</parameterid>
					<name></name>
					<IsTimeVarying>false</IsTimeVarying>
					<ParameterControlType>11</ParameterControlType>
					<LowerBound>false</LowerBound>
					<UpperBound>false</UpperBound>
					<value>-91445760000000000,false,0,0,0,0,0,0</value>
					</parameter>
					<parameter authoringApp="PremierePro">
					<parameterid>3</parameterid>
					<name></name>
					<IsTimeVarying>false</IsTimeVarying>
					<value>-91445760000000000,0.5:0.5,0,0,0,0,0,0,5,4,0,0,0,0</value>
					</parameter>
					<parameter authoringApp="PremierePro">
					<parameterid>4</parameterid>
					<name></name>
					<IsTimeVarying>false</IsTimeVarying>
					<ParameterControlType>2</ParameterControlType>
					<LowerBound>0</LowerBound>
					<UpperBound>4000</UpperBound>
					<value>-91445760000000000,100.,0,0,0,0,0,0</value>
					</parameter>
					<parameter authoringApp="PremierePro">
					<parameterid>8</parameterid>
					<name></name>
					<IsTimeVarying>false</IsTimeVarying>
					<ParameterControlType>2</ParameterControlType>
					<LowerBound>0</LowerBound>
					<UpperBound>100</UpperBound>
					<value>-91445760000000000,100.,0,0,0,0,0,0</value>
					</parameter>
					</effect>
					</filter>
					<logginginfo>
					<description></description>
					<scene></scene>
					<shottake></shottake>
					<lognote></lognote>
					<good></good>
					<originalvideofilename></originalvideofilename>
					<originalaudiofilename></originalaudiofilename>
					</logginginfo>
					<colorinfo>
					<lut></lut>
					<lut1></lut1>
					<asc_sop></asc_sop>
					<asc_sat></asc_sat>
					<lut2></lut2>
					</colorinfo>
					<labels>
					</labels>
					</clipitem>
					<clipitem frameBlend="FALSE" id="clipitem-541">
					<masterclipid>masterclip-461</masterclipid>
					<name></name>
					<enabled>TRUE</enabled>
					<duration>2582774</duration>
					<rate>
					
					                                    <timebase>60</timebase>
					                                    <ntsc>TRUE</ntsc>
					                                
					</rate>
					<start>4414</start>
					<end>4480</end>
					<in>4414</in>
					<out>4480</out>
					<pproTicksIn>914456774963789</pproTicksIn>
					<pproTicksOut>914677708529577</pproTicksOut>
					<alphatype>straight</alphatype>
					<pixelaspectratio>square</pixelaspectratio>
					<anamorphic>FALSE</anamorphic>
					<file id="file-460">
					<name></name>
					<mediaSource>GraphicAndType</mediaSource>
					<rate>
					<timebase>60</timebase>
					<ntsc>TRUE</ntsc>
					</rate>
					<timecode>
					<rate>
					<timebase>60</timebase>
					<ntsc>TRUE</ntsc>
					</rate>
					<string>00:00:00:00</string>
					<frame>0</frame>
					<displayformat>NDF</displayformat>
					</timecode>
					<media>
					<video>
					<samplecharacteristics>
					<rate>
					<timebase>60</timebase>
					<ntsc>TRUE</ntsc>
					</rate>
					<width>1080</width>
					<height>1920</height>
					<anamorphic>FALSE</anamorphic>
					<pixelaspectratio>square</pixelaspectratio>
					<fielddominance>none</fielddominance>
					</samplecharacteristics>
					</video>
					</media>
					</file>
					<filter>
					<effect>
					<name></name>
					<effectid>GraphicAndType</effectid>
					<effectcategory>graphic</effectcategory>
					<effecttype>filter</effecttype>
					<mediatype>video</mediatype>
					<pproBypass>false</pproBypass>
					<parameter authoringApp="PremierePro">
					<parameterid>1</parameterid>
					<name></name>
					<hash>025b1101-ead6-0ca2-1feb-caf3000001fc</hash>
					<value>5AEAAAAAAABEMyIRDAAAAAAABgAKAAQABgAAAGQAAAAAAF4ASAAQAAwARABAADwAOAAAAAAAAAAAADQAMwAsAAAAKAAkACAAAAAAAAAAAAAAAAAAHAAAAAAAGgAAAAAAAAAUAAAAAAAAAAAAAAAAAAAAAAAAAAgAAAAAABsABwBeAAAAAAAAAUAAAABQAAAAbAAAAAIAAAAAAAEAAQAAAAAAQEEAAMBAAABAQAAAyEIAAAABIAAAAAIAAAACAAAAAAA2QwCASkTw/v//9P7///j+//8S////AAAAAAEAAAAEAAAAEQAAAEhHUFNvZWlLYWt1cG9wdGFpAAAAAQAAAAwAAAAIAAwABAAIAAgAAAAIAAAAUAAAAA8AAADvvIEAAAAAAAAAAAAAAAAAAAA2ACQAAAAgABwAAAAAABsAFAAAAAAAAAAAAAAAAAAAAAAAAAAAABAAAAAAAAAADAAAAAgABAA2AAAAAgAAABwAAAAcAAAAHAAAAAAAIEEAAAABaAAAAE3PAEOw////tP///wEAAAAUAAAAEAAaAAgABwAMAAAAEAAUABAAAAAAAAABHAAAAAAAoEEcAAAAAgAAAAAACgAIAAUABgAHAAoAAAAADAD//P///wQABAAEAAAACAAIAAYABwAIAAAAAAAMAA==</value>
					</parameter>
					<parameter authoringApp="PremierePro">
					<parameterid>2</parameterid>
					<name></name>
					<IsTimeVarying>false</IsTimeVarying>
					<ParameterControlType>11</ParameterControlType>
					<LowerBound>false</LowerBound>
					<UpperBound>false</UpperBound>
					<value>-91445760000000000,false,0,0,0,0,0,0</value>
					</parameter>
					<parameter authoringApp="PremierePro">
					<parameterid>3</parameterid>
					<name></name>
					<IsTimeVarying>false</IsTimeVarying>
					<value>-91445760000000000,0.5:0.5,0,0,0,0,0,0,5,4,0,0,0,0</value>
					</parameter>
					<parameter authoringApp="PremierePro">
					<parameterid>4</parameterid>
					<name></name>
					<IsTimeVarying>false</IsTimeVarying>
					<ParameterControlType>2</ParameterControlType>
					<LowerBound>0</LowerBound>
					<UpperBound>4000</UpperBound>
					<value>-91445760000000000,100.,0,0,0,0,0,0</value>
					</parameter>
					<parameter authoringApp="PremierePro">
					<parameterid>8</parameterid>
					<name></name>
					<IsTimeVarying>false</IsTimeVarying>
					<ParameterControlType>2</ParameterControlType>
					<LowerBound>0</LowerBound>
					<UpperBound>100</UpperBound>
					<value>-91445760000000000,100.,0,0,0,0,0,0</value>
					</parameter>
					</effect>
					</filter>
					<logginginfo>
					<description></description>
					<scene></scene>
					<shottake></shottake>
					<lognote></lognote>
					<good></good>
					<originalvideofilename></originalvideofilename>
					<originalaudiofilename></originalaudiofilename>
					</logginginfo>
					<colorinfo>
					<lut></lut>
					<lut1></lut1>
					<asc_sop></asc_sop>
					<asc_sat></asc_sat>
					<lut2></lut2>
					</colorinfo>
					<labels>
					</labels>
					</clipitem>
					<clipitem frameBlend="FALSE" id="clipitem-552">
					<masterclipid>masterclip-472</masterclipid>
					<name></name>
					<enabled>TRUE</enabled>
					<duration>2582774</duration>
					<rate>
					
					                                    <timebase>60</timebase>
					                                    <ntsc>TRUE</ntsc>
					                                
					</rate>
					<start>4486</start>
					<end>4552</end>
					<in>4486</in>
					<out>4552</out>
					<pproTicksIn>914456774963789</pproTicksIn>
					<pproTicksOut>914677708529577</pproTicksOut>
					<alphatype>straight</alphatype>
					<pixelaspectratio>square</pixelaspectratio>
					<anamorphic>FALSE</anamorphic>
					<file id="file-471">
					<name></name>
					<mediaSource>GraphicAndType</mediaSource>
					<rate>
					<timebase>60</timebase>
					<ntsc>TRUE</ntsc>
					</rate>
					<timecode>
					<rate>
					<timebase>60</timebase>
					<ntsc>TRUE</ntsc>
					</rate>
					<string>00:00:00:00</string>
					<frame>0</frame>
					<displayformat>NDF</displayformat>
					</timecode>
					<media>
					<video>
					<samplecharacteristics>
					<rate>
					<timebase>60</timebase>
					<ntsc>TRUE</ntsc>
					</rate>
					<width>1080</width>
					<height>1920</height>
					<anamorphic>FALSE</anamorphic>
					<pixelaspectratio>square</pixelaspectratio>
					<fielddominance>none</fielddominance>
					</samplecharacteristics>
					</video>
					</media>
					</file>
					<filter>
					<effect>
					<name></name>
					<effectid>GraphicAndType</effectid>
					<effectcategory>graphic</effectcategory>
					<effecttype>filter</effecttype>
					<mediatype>video</mediatype>
					<pproBypass>false</pproBypass>
					<parameter authoringApp="PremierePro">
					<parameterid>1</parameterid>
					<name></name>
					<hash>025b1101-ead6-0ca2-1feb-caf3000001fc</hash>
					<value>5AEAAAAAAABEMyIRDAAAAAAABgAKAAQABgAAAGQAAAAAAF4ASAAQAAwARABAADwAOAAAAAAAAAAAADQAMwAsAAAAKAAkACAAAAAAAAAAAAAAAAAAHAAAAAAAGgAAAAAAAAAUAAAAAAAAAAAAAAAAAAAAAAAAAAgAAAAAABsABwBeAAAAAAAAAUAAAABQAAAAbAAAAAIAAAAAAAEAAQAAAAAAQEEAAMBAAABAQAAAyEIAAAABIAAAAAIAAAACAAAAAAA2QwCASkTw/v//9P7///j+//8S////AAAAAAEAAAAEAAAAEQAAAEhHUFNvZWlLYWt1cG9wdGFpAAAAAQAAAAwAAAAIAAwABAAIAAgAAAAIAAAAUAAAAA8AAADvvIEAAAAAAAAAAAAAAAAAAAA2ACQAAAAgABwAAAAAABsAFAAAAAAAAAAAAAAAAAAAAAAAAAAAABAAAAAAAAAADAAAAAgABAA2AAAAAgAAABwAAAAcAAAAHAAAAAAAIEEAAAABaAAAAE3PAEOw////tP///wEAAAAUAAAAEAAaAAgABwAMAAAAEAAUABAAAAAAAAABHAAAAAAAoEEcAAAAAgAAAAAACgAIAAUABgAHAAoAAAAADAD//P///wQABAAEAAAACAAIAAYABwAIAAAAAAAMAA==</value>
					</parameter>
					<parameter authoringApp="PremierePro">
					<parameterid>2</parameterid>
					<name></name>
					<IsTimeVarying>false</IsTimeVarying>
					<ParameterControlType>11</ParameterControlType>
					<LowerBound>false</LowerBound>
					<UpperBound>false</UpperBound>
					<value>-91445760000000000,false,0,0,0,0,0,0</value>
					</parameter>
					<parameter authoringApp="PremierePro">
					<parameterid>3</parameterid>
					<name></name>
					<IsTimeVarying>false</IsTimeVarying>
					<value>-91445760000000000,0.5:0.5,0,0,0,0,0,0,5,4,0,0,0,0</value>
					</parameter>
					<parameter authoringApp="PremierePro">
					<parameterid>4</parameterid>
					<name></name>
					<IsTimeVarying>false</IsTimeVarying>
					<ParameterControlType>2</ParameterControlType>
					<LowerBound>0</LowerBound>
					<UpperBound>4000</UpperBound>
					<value>-91445760000000000,100.,0,0,0,0,0,0</value>
					</parameter>
					<parameter authoringApp="PremierePro">
					<parameterid>8</parameterid>
					<name></name>
					<IsTimeVarying>false</IsTimeVarying>
					<ParameterControlType>2</ParameterControlType>
					<LowerBound>0</LowerBound>
					<UpperBound>100</UpperBound>
					<value>-91445760000000000,100.,0,0,0,0,0,0</value>
					</parameter>
					</effect>
					</filter>
					<logginginfo>
					<description></description>
					<scene></scene>
					<shottake></shottake>
					<lognote></lognote>
					<good></good>
					<originalvideofilename></originalvideofilename>
					<originalaudiofilename></originalaudiofilename>
					</logginginfo>
					<colorinfo>
					<lut></lut>
					<lut1></lut1>
					<asc_sop></asc_sop>
					<asc_sat></asc_sat>
					<lut2></lut2>
					</colorinfo>
					<labels>
					</labels>
					</clipitem>
					<clipitem frameBlend="FALSE" id="clipitem-558">
					<masterclipid>masterclip-478</masterclipid>
					<name></name>
					<enabled>TRUE</enabled>
					<duration>2582774</duration>
					<rate>
					
					                                    <timebase>60</timebase>
					                                    <ntsc>TRUE</ntsc>
					                                
					</rate>
					<start>4552</start>
					<end>4612</end>
					<in>4552</in>
					<out>4612</out>
					<pproTicksIn>914456774963789</pproTicksIn>
					<pproTicksOut>914677708529577</pproTicksOut>
					<alphatype>straight</alphatype>
					<pixelaspectratio>square</pixelaspectratio>
					<anamorphic>FALSE</anamorphic>
					<file id="file-477">
					<name></name>
					<mediaSource>GraphicAndType</mediaSource>
					<rate>
					<timebase>60</timebase>
					<ntsc>TRUE</ntsc>
					</rate>
					<timecode>
					<rate>
					<timebase>60</timebase>
					<ntsc>TRUE</ntsc>
					</rate>
					<string>00:00:00:00</string>
					<frame>0</frame>
					<displayformat>NDF</displayformat>
					</timecode>
					<media>
					<video>
					<samplecharacteristics>
					<rate>
					<timebase>60</timebase>
					<ntsc>TRUE</ntsc>
					</rate>
					<width>1080</width>
					<height>1920</height>
					<anamorphic>FALSE</anamorphic>
					<pixelaspectratio>square</pixelaspectratio>
					<fielddominance>none</fielddominance>
					</samplecharacteristics>
					</video>
					</media>
					</file>
					<filter>
					<effect>
					<name></name>
					<effectid>GraphicAndType</effectid>
					<effectcategory>graphic</effectcategory>
					<effecttype>filter</effecttype>
					<mediatype>video</mediatype>
					<pproBypass>false</pproBypass>
					<parameter authoringApp="PremierePro">
					<parameterid>1</parameterid>
					<name></name>
					<hash>025b1101-ead6-0ca2-1feb-caf3000001fc</hash>
					<value>5AEAAAAAAABEMyIRDAAAAAAABgAKAAQABgAAAGQAAAAAAF4ASAAQAAwARABAADwAOAAAAAAAAAAAADQAMwAsAAAAKAAkACAAAAAAAAAAAAAAAAAAHAAAAAAAGgAAAAAAAAAUAAAAAAAAAAAAAAAAAAAAAAAAAAgAAAAAABsABwBeAAAAAAAAAUAAAABQAAAAbAAAAAIAAAAAAAEAAQAAAAAAQEEAAMBAAABAQAAAyEIAAAABIAAAAAIAAAACAAAAAAA2QwCASkTw/v//9P7///j+//8S////AAAAAAEAAAAEAAAAEQAAAEhHUFNvZWlLYWt1cG9wdGFpAAAAAQAAAAwAAAAIAAwABAAIAAgAAAAIAAAAUAAAAA8AAADvvIEAAAAAAAAAAAAAAAAAAAA2ACQAAAAgABwAAAAAABsAFAAAAAAAAAAAAAAAAAAAAAAAAAAAABAAAAAAAAAADAAAAAgABAA2AAAAAgAAABwAAAAcAAAAHAAAAAAAIEEAAAABaAAAAE3PAEOw////tP///wEAAAAUAAAAEAAaAAgABwAMAAAAEAAUABAAAAAAAAABHAAAAAAAoEEcAAAAAgAAAAAACgAIAAUABgAHAAoAAAAADAD//P///wQABAAEAAAACAAIAAYABwAIAAAAAAAMAA==</value>
					</parameter>
					<parameter authoringApp="PremierePro">
					<parameterid>2</parameterid>
					<name></name>
					<IsTimeVarying>false</IsTimeVarying>
					<ParameterControlType>11</ParameterControlType>
					<LowerBound>false</LowerBound>
					<UpperBound>false</UpperBound>
					<value>-91445760000000000,false,0,0,0,0,0,0</value>
					</parameter>
					<parameter authoringApp="PremierePro">
					<parameterid>3</parameterid>
					<name></name>
					<IsTimeVarying>false</IsTimeVarying>
					<value>-91445760000000000,0.5:0.5,0,0,0,0,0,0,5,4,0,0,0,0</value>
					</parameter>
					<parameter authoringApp="PremierePro">
					<parameterid>4</parameterid>
					<name></name>
					<IsTimeVarying>false</IsTimeVarying>
					<ParameterControlType>2</ParameterControlType>
					<LowerBound>0</LowerBound>
					<UpperBound>4000</UpperBound>
					<value>-91445760000000000,100.,0,0,0,0,0,0</value>
					</parameter>
					<parameter authoringApp="PremierePro">
					<parameterid>8</parameterid>
					<name></name>
					<IsTimeVarying>false</IsTimeVarying>
					<ParameterControlType>2</ParameterControlType>
					<LowerBound>0</LowerBound>
					<UpperBound>100</UpperBound>
					<value>-91445760000000000,100.,0,0,0,0,0,0</value>
					</parameter>
					</effect>
					</filter>
					<logginginfo>
					<description></description>
					<scene></scene>
					<shottake></shottake>
					<lognote></lognote>
					<good></good>
					<originalvideofilename></originalvideofilename>
					<originalaudiofilename></originalaudiofilename>
					</logginginfo>
					<colorinfo>
					<lut></lut>
					<lut1></lut1>
					<asc_sop></asc_sop>
					<asc_sat></asc_sat>
					<lut2></lut2>
					</colorinfo>
					<labels>
					</labels>
					</clipitem>
					<clipitem frameBlend="FALSE" id="clipitem-564">
					<masterclipid>masterclip-484</masterclipid>
					<name></name>
					<enabled>TRUE</enabled>
					<duration>2582774</duration>
					<rate>
					
					                                    <timebase>60</timebase>
					                                    <ntsc>TRUE</ntsc>
					                                
					</rate>
					<start>4612</start>
					<end>4672</end>
					<in>4612</in>
					<out>4672</out>
					<pproTicksIn>914456774963789</pproTicksIn>
					<pproTicksOut>914677708529577</pproTicksOut>
					<alphatype>straight</alphatype>
					<pixelaspectratio>square</pixelaspectratio>
					<anamorphic>FALSE</anamorphic>
					<file id="file-483">
					<name></name>
					<mediaSource>GraphicAndType</mediaSource>
					<rate>
					<timebase>60</timebase>
					<ntsc>TRUE</ntsc>
					</rate>
					<timecode>
					<rate>
					<timebase>60</timebase>
					<ntsc>TRUE</ntsc>
					</rate>
					<string>00:00:00:00</string>
					<frame>0</frame>
					<displayformat>NDF</displayformat>
					</timecode>
					<media>
					<video>
					<samplecharacteristics>
					<rate>
					<timebase>60</timebase>
					<ntsc>TRUE</ntsc>
					</rate>
					<width>1080</width>
					<height>1920</height>
					<anamorphic>FALSE</anamorphic>
					<pixelaspectratio>square</pixelaspectratio>
					<fielddominance>none</fielddominance>
					</samplecharacteristics>
					</video>
					</media>
					</file>
					<filter>
					<effect>
					<name></name>
					<effectid>GraphicAndType</effectid>
					<effectcategory>graphic</effectcategory>
					<effecttype>filter</effecttype>
					<mediatype>video</mediatype>
					<pproBypass>false</pproBypass>
					<parameter authoringApp="PremierePro">
					<parameterid>1</parameterid>
					<name></name>
					<hash>025b1101-ead6-0ca2-1feb-caf3000001fc</hash>
					<value>5AEAAAAAAABEMyIRDAAAAAAABgAKAAQABgAAAGQAAAAAAF4ASAAQAAwARABAADwAOAAAAAAAAAAAADQAMwAsAAAAKAAkACAAAAAAAAAAAAAAAAAAHAAAAAAAGgAAAAAAAAAUAAAAAAAAAAAAAAAAAAAAAAAAAAgAAAAAABsABwBeAAAAAAAAAUAAAABQAAAAbAAAAAIAAAAAAAEAAQAAAAAAQEEAAMBAAABAQAAAyEIAAAABIAAAAAIAAAACAAAAAAA2QwCASkTw/v//9P7///j+//8S////AAAAAAEAAAAEAAAAEQAAAEhHUFNvZWlLYWt1cG9wdGFpAAAAAQAAAAwAAAAIAAwABAAIAAgAAAAIAAAAUAAAAA8AAADvvIEAAAAAAAAAAAAAAAAAAAA2ACQAAAAgABwAAAAAABsAFAAAAAAAAAAAAAAAAAAAAAAAAAAAABAAAAAAAAAADAAAAAgABAA2AAAAAgAAABwAAAAcAAAAHAAAAAAAIEEAAAABaAAAAE3PAEOw////tP///wEAAAAUAAAAEAAaAAgABwAMAAAAEAAUABAAAAAAAAABHAAAAAAAoEEcAAAAAgAAAAAACgAIAAUABgAHAAoAAAAADAD//P///wQABAAEAAAACAAIAAYABwAIAAAAAAAMAA==</value>
					</parameter>
					<parameter authoringApp="PremierePro">
					<parameterid>2</parameterid>
					<name></name>
					<IsTimeVarying>false</IsTimeVarying>
					<ParameterControlType>11</ParameterControlType>
					<LowerBound>false</LowerBound>
					<UpperBound>false</UpperBound>
					<value>-91445760000000000,false,0,0,0,0,0,0</value>
					</parameter>
					<parameter authoringApp="PremierePro">
					<parameterid>3</parameterid>
					<name></name>
					<IsTimeVarying>false</IsTimeVarying>
					<value>-91445760000000000,0.5:0.5,0,0,0,0,0,0,5,4,0,0,0,0</value>
					</parameter>
					<parameter authoringApp="PremierePro">
					<parameterid>4</parameterid>
					<name></name>
					<IsTimeVarying>false</IsTimeVarying>
					<ParameterControlType>2</ParameterControlType>
					<LowerBound>0</LowerBound>
					<UpperBound>4000</UpperBound>
					<value>-91445760000000000,100.,0,0,0,0,0,0</value>
					</parameter>
					<parameter authoringApp="PremierePro">
					<parameterid>8</parameterid>
					<name></name>
					<IsTimeVarying>false</IsTimeVarying>
					<ParameterControlType>2</ParameterControlType>
					<LowerBound>0</LowerBound>
					<UpperBound>100</UpperBound>
					<value>-91445760000000000,100.,0,0,0,0,0,0</value>
					</parameter>
					</effect>
					</filter>
					<logginginfo>
					<description></description>
					<scene></scene>
					<shottake></shottake>
					<lognote></lognote>
					<good></good>
					<originalvideofilename></originalvideofilename>
					<originalaudiofilename></originalaudiofilename>
					</logginginfo>
					<colorinfo>
					<lut></lut>
					<lut1></lut1>
					<asc_sop></asc_sop>
					<asc_sat></asc_sat>
					<lut2></lut2>
					</colorinfo>
					<labels>
					</labels>
					</clipitem>
					<clipitem frameBlend="FALSE" id="clipitem-105">
					<masterclipid>masterclip-25</masterclipid>
					<name></name>
					<enabled>TRUE</enabled>
					<duration>2582774</duration>
					<rate>
					
					                                    <timebase>60</timebase>
					                                    <ntsc>TRUE</ntsc>
					                                
					</rate>
					<start>4678</start>
					<end>4858</end>
					<in>4678</in>
					<out>4858</out>
					<pproTicksIn>914456774963789</pproTicksIn>
					<pproTicksOut>914677708529577</pproTicksOut>
					<alphatype>straight</alphatype>
					<pixelaspectratio>square</pixelaspectratio>
					<anamorphic>FALSE</anamorphic>
					<file id="file-24">
					<name></name>
					<mediaSource>GraphicAndType</mediaSource>
					<rate>
					<timebase>60</timebase>
					<ntsc>TRUE</ntsc>
					</rate>
					<timecode>
					<rate>
					<timebase>60</timebase>
					<ntsc>TRUE</ntsc>
					</rate>
					<string>00:00:00:00</string>
					<frame>0</frame>
					<displayformat>NDF</displayformat>
					</timecode>
					<media>
					<video>
					<samplecharacteristics>
					<rate>
					<timebase>60</timebase>
					<ntsc>TRUE</ntsc>
					</rate>
					<width>1080</width>
					<height>1920</height>
					<anamorphic>FALSE</anamorphic>
					<pixelaspectratio>square</pixelaspectratio>
					<fielddominance>none</fielddominance>
					</samplecharacteristics>
					</video>
					</media>
					</file>
					<filter>
					<effect>
					<name> </name>
					<effectid>GraphicAndType</effectid>
					<effectcategory>graphic</effectcategory>
					<effecttype>filter</effecttype>
					<mediatype>video</mediatype>
					<pproBypass>false</pproBypass>
					<parameter authoringApp="PremierePro">
					<parameterid>1</parameterid>
					<name></name>
					<hash>025b1101-ead6-0ca2-1feb-caf3000001fc</hash>
					<value>5AEAAAAAAABEMyIRDAAAAAAABgAKAAQABgAAAGQAAAAAAF4ASAAQAAwARABAADwAOAAAAAAAAAAAADQAMwAsAAAAKAAkACAAAAAAAAAAAAAAAAAAHAAAAAAAGgAAAAAAAAAUAAAAAAAAAAAAAAAAAAAAAAAAAAgAAAAAABsABwBeAAAAAAAAAUAAAABQAAAAbAAAAAIAAAAAAAEAAQAAAAAAQEEAAMBAAABAQAAAyEIAAAABIAAAAAIAAAACAAAAAAA2QwCASkTw/v//9P7///j+//8S////AAAAAAEAAAAEAAAAEQAAAEhHUFNvZWlLYWt1cG9wdGFpAAAAAQAAAAwAAAAIAAwABAAIAAgAAAAIAAAAUAAAAA8AAADjgbXjgorjgaPjgZPjgbMAAAA2ACQAAAAgABwAAAAAABsAFAAAAAAAAAAAAAAAAAAAAAAAAAAAABAAAAAAAAAADAAAAAgABAA2AAAAAgAAABwAAAAcAAAAHAAAAAAAIEEAAAABaAAAAE3PAEOw////tP///wEAAAAUAAAAEAAaAAgABwAMAAAAEAAUABAAAAAAAAABHAAAAAAAoEEcAAAAAgAAAAAACgAIAAUABgAHAAoAAAAADAD//P///wQABAAEAAAACAAIAAYABwAIAAAAAAAMAA==</value>
					</parameter>
					<parameter authoringApp="PremierePro">
					<parameterid>2</parameterid>
					<name></name>
					<IsTimeVarying>false</IsTimeVarying>
					<ParameterControlType>11</ParameterControlType>
					<LowerBound>false</LowerBound>
					<UpperBound>false</UpperBound>
					<value>-91445760000000000,false,0,0,0,0,0,0</value>
					</parameter>
					<parameter authoringApp="PremierePro">
					<parameterid>3</parameterid>
					<name></name>
					<IsTimeVarying>false</IsTimeVarying>
					<value>-91445760000000000,0.5:0.5,0,0,0,0,0,0,5,4,0,0,0,0</value>
					</parameter>
					<parameter authoringApp="PremierePro">
					<parameterid>4</parameterid>
					<name></name>
					<IsTimeVarying>false</IsTimeVarying>
					<ParameterControlType>2</ParameterControlType>
					<LowerBound>0</LowerBound>
					<UpperBound>4000</UpperBound>
					<value>-91445760000000000,100.,0,0,0,0,0,0</value>
					</parameter>
					<parameter authoringApp="PremierePro">
					<parameterid>8</parameterid>
					<name></name>
					<IsTimeVarying>false</IsTimeVarying>
					<ParameterControlType>2</ParameterControlType>
					<LowerBound>0</LowerBound>
					<UpperBound>100</UpperBound>
					<value>-91445760000000000,100.,0,0,0,0,0,0</value>
					</parameter>
					</effect>
					</filter>
					<logginginfo>
					<description></description>
					<scene></scene>
					<shottake></shottake>
					<lognote></lognote>
					<good></good>
					<originalvideofilename></originalvideofilename>
					<originalaudiofilename></originalaudiofilename>
					</logginginfo>
					<colorinfo>
					<lut></lut>
					<lut1></lut1>
					<asc_sop></asc_sop>
					<asc_sat></asc_sat>
					<lut2></lut2>
					</colorinfo>
					<labels>
					</labels>
					</clipitem>
					<clipitem frameBlend="FALSE" id="clipitem-587">
					<masterclipid>masterclip-507</masterclipid>
					<name></name>
					<enabled>TRUE</enabled>
					<duration>2582774</duration>
					<rate>
					
					                                    <timebase>60</timebase>
					                                    <ntsc>TRUE</ntsc>
					                                
					</rate>
					<start>4864</start>
					<end>4930</end>
					<in>4864</in>
					<out>4930</out>
					<pproTicksIn>914456774963789</pproTicksIn>
					<pproTicksOut>914677708529577</pproTicksOut>
					<alphatype>straight</alphatype>
					<pixelaspectratio>square</pixelaspectratio>
					<anamorphic>FALSE</anamorphic>
					<file id="file-506">
					<name></name>
					<mediaSource>GraphicAndType</mediaSource>
					<rate>
					<timebase>60</timebase>
					<ntsc>TRUE</ntsc>
					</rate>
					<timecode>
					<rate>
					<timebase>60</timebase>
					<ntsc>TRUE</ntsc>
					</rate>
					<string>00:00:00:00</string>
					<frame>0</frame>
					<displayformat>NDF</displayformat>
					</timecode>
					<media>
					<video>
					<samplecharacteristics>
					<rate>
					<timebase>60</timebase>
					<ntsc>TRUE</ntsc>
					</rate>
					<width>1080</width>
					<height>1920</height>
					<anamorphic>FALSE</anamorphic>
					<pixelaspectratio>square</pixelaspectratio>
					<fielddominance>none</fielddominance>
					</samplecharacteristics>
					</video>
					</media>
					</file>
					<filter>
					<effect>
					<name></name>
					<effectid>GraphicAndType</effectid>
					<effectcategory>graphic</effectcategory>
					<effecttype>filter</effecttype>
					<mediatype>video</mediatype>
					<pproBypass>false</pproBypass>
					<parameter authoringApp="PremierePro">
					<parameterid>1</parameterid>
					<name></name>
					<hash>025b1101-ead6-0ca2-1feb-caf3000001fc</hash>
					<value>5AEAAAAAAABEMyIRDAAAAAAABgAKAAQABgAAAGQAAAAAAF4ASAAQAAwARABAADwAOAAAAAAAAAAAADQAMwAsAAAAKAAkACAAAAAAAAAAAAAAAAAAHAAAAAAAGgAAAAAAAAAUAAAAAAAAAAAAAAAAAAAAAAAAAAgAAAAAABsABwBeAAAAAAAAAUAAAABQAAAAbAAAAAIAAAAAAAEAAQAAAAAAQEEAAMBAAABAQAAAyEIAAAABIAAAAAIAAAACAAAAAAA2QwCASkTw/v//9P7///j+//8S////AAAAAAEAAAAEAAAAEQAAAEhHUFNvZWlLYWt1cG9wdGFpAAAAAQAAAAwAAAAIAAwABAAIAAgAAAAIAAAAUAAAAA8AAADvvIEAAAAAAAAAAAAAAAAAAAA2ACQAAAAgABwAAAAAABsAFAAAAAAAAAAAAAAAAAAAAAAAAAAAABAAAAAAAAAADAAAAAgABAA2AAAAAgAAABwAAAAcAAAAHAAAAAAAIEEAAAABaAAAAE3PAEOw////tP///wEAAAAUAAAAEAAaAAgABwAMAAAAEAAUABAAAAAAAAABHAAAAAAAoEEcAAAAAgAAAAAACgAIAAUABgAHAAoAAAAADAD//P///wQABAAEAAAACAAIAAYABwAIAAAAAAAMAA==</value>
					</parameter>
					<parameter authoringApp="PremierePro">
					<parameterid>2</parameterid>
					<name></name>
					<IsTimeVarying>false</IsTimeVarying>
					<ParameterControlType>11</ParameterControlType>
					<LowerBound>false</LowerBound>
					<UpperBound>false</UpperBound>
					<value>-91445760000000000,false,0,0,0,0,0,0</value>
					</parameter>
					<parameter authoringApp="PremierePro">
					<parameterid>3</parameterid>
					<name></name>
					<IsTimeVarying>false</IsTimeVarying>
					<value>-91445760000000000,0.5:0.5,0,0,0,0,0,0,5,4,0,0,0,0</value>
					</parameter>
					<parameter authoringApp="PremierePro">
					<parameterid>4</parameterid>
					<name></name>
					<IsTimeVarying>false</IsTimeVarying>
					<ParameterControlType>2</ParameterControlType>
					<LowerBound>0</LowerBound>
					<UpperBound>4000</UpperBound>
					<value>-91445760000000000,100.,0,0,0,0,0,0</value>
					</parameter>
					<parameter authoringApp="PremierePro">
					<parameterid>8</parameterid>
					<name></name>
					<IsTimeVarying>false</IsTimeVarying>
					<ParameterControlType>2</ParameterControlType>
					<LowerBound>0</LowerBound>
					<UpperBound>100</UpperBound>
					<value>-91445760000000000,100.,0,0,0,0,0,0</value>
					</parameter>
					</effect>
					</filter>
					<logginginfo>
					<description></description>
					<scene></scene>
					<shottake></shottake>
					<lognote></lognote>
					<good></good>
					<originalvideofilename></originalvideofilename>
					<originalaudiofilename></originalaudiofilename>
					</logginginfo>
					<colorinfo>
					<lut></lut>
					<lut1></lut1>
					<asc_sop></asc_sop>
					<asc_sat></asc_sat>
					<lut2></lut2>
					</colorinfo>
					<labels>
					</labels>
					</clipitem>
					<clipitem frameBlend="FALSE" id="clipitem-593">
					<masterclipid>masterclip-513</masterclipid>
					<name></name>
					<enabled>TRUE</enabled>
					<duration>2582774</duration>
					<rate>
					
					                                    <timebase>60</timebase>
					                                    <ntsc>TRUE</ntsc>
					                                
					</rate>
					<start>4930</start>
					<end>4990</end>
					<in>4930</in>
					<out>4990</out>
					<pproTicksIn>914456774963789</pproTicksIn>
					<pproTicksOut>914677708529577</pproTicksOut>
					<alphatype>straight</alphatype>
					<pixelaspectratio>square</pixelaspectratio>
					<anamorphic>FALSE</anamorphic>
					<file id="file-512">
					<name></name>
					<mediaSource>GraphicAndType</mediaSource>
					<rate>
					<timebase>60</timebase>
					<ntsc>TRUE</ntsc>
					</rate>
					<timecode>
					<rate>
					<timebase>60</timebase>
					<ntsc>TRUE</ntsc>
					</rate>
					<string>00:00:00:00</string>
					<frame>0</frame>
					<displayformat>NDF</displayformat>
					</timecode>
					<media>
					<video>
					<samplecharacteristics>
					<rate>
					<timebase>60</timebase>
					<ntsc>TRUE</ntsc>
					</rate>
					<width>1080</width>
					<height>1920</height>
					<anamorphic>FALSE</anamorphic>
					<pixelaspectratio>square</pixelaspectratio>
					<fielddominance>none</fielddominance>
					</samplecharacteristics>
					</video>
					</media>
					</file>
					<filter>
					<effect>
					<name></name>
					<effectid>GraphicAndType</effectid>
					<effectcategory>graphic</effectcategory>
					<effecttype>filter</effecttype>
					<mediatype>video</mediatype>
					<pproBypass>false</pproBypass>
					<parameter authoringApp="PremierePro">
					<parameterid>1</parameterid>
					<name></name>
					<hash>025b1101-ead6-0ca2-1feb-caf3000001fc</hash>
					<value>5AEAAAAAAABEMyIRDAAAAAAABgAKAAQABgAAAGQAAAAAAF4ASAAQAAwARABAADwAOAAAAAAAAAAAADQAMwAsAAAAKAAkACAAAAAAAAAAAAAAAAAAHAAAAAAAGgAAAAAAAAAUAAAAAAAAAAAAAAAAAAAAAAAAAAgAAAAAABsABwBeAAAAAAAAAUAAAABQAAAAbAAAAAIAAAAAAAEAAQAAAAAAQEEAAMBAAABAQAAAyEIAAAABIAAAAAIAAAACAAAAAAA2QwCASkTw/v//9P7///j+//8S////AAAAAAEAAAAEAAAAEQAAAEhHUFNvZWlLYWt1cG9wdGFpAAAAAQAAAAwAAAAIAAwABAAIAAgAAAAIAAAAUAAAAA8AAADvvIEAAAAAAAAAAAAAAAAAAAA2ACQAAAAgABwAAAAAABsAFAAAAAAAAAAAAAAAAAAAAAAAAAAAABAAAAAAAAAADAAAAAgABAA2AAAAAgAAABwAAAAcAAAAHAAAAAAAIEEAAAABaAAAAE3PAEOw////tP///wEAAAAUAAAAEAAaAAgABwAMAAAAEAAUABAAAAAAAAABHAAAAAAAoEEcAAAAAgAAAAAACgAIAAUABgAHAAoAAAAADAD//P///wQABAAEAAAACAAIAAYABwAIAAAAAAAMAA==</value>
					</parameter>
					<parameter authoringApp="PremierePro">
					<parameterid>2</parameterid>
					<name></name>
					<IsTimeVarying>false</IsTimeVarying>
					<ParameterControlType>11</ParameterControlType>
					<LowerBound>false</LowerBound>
					<UpperBound>false</UpperBound>
					<value>-91445760000000000,false,0,0,0,0,0,0</value>
					</parameter>
					<parameter authoringApp="PremierePro">
					<parameterid>3</parameterid>
					<name></name>
					<IsTimeVarying>false</IsTimeVarying>
					<value>-91445760000000000,0.5:0.5,0,0,0,0,0,0,5,4,0,0,0,0</value>
					</parameter>
					<parameter authoringApp="PremierePro">
					<parameterid>4</parameterid>
					<name></name>
					<IsTimeVarying>false</IsTimeVarying>
					<ParameterControlType>2</ParameterControlType>
					<LowerBound>0</LowerBound>
					<UpperBound>4000</UpperBound>
					<value>-91445760000000000,100.,0,0,0,0,0,0</value>
					</parameter>
					<parameter authoringApp="PremierePro">
					<parameterid>8</parameterid>
					<name></name>
					<IsTimeVarying>false</IsTimeVarying>
					<ParameterControlType>2</ParameterControlType>
					<LowerBound>0</LowerBound>
					<UpperBound>100</UpperBound>
					<value>-91445760000000000,100.,0,0,0,0,0,0</value>
					</parameter>
					</effect>
					</filter>
					<logginginfo>
					<description></description>
					<scene></scene>
					<shottake></shottake>
					<lognote></lognote>
					<good></good>
					<originalvideofilename></originalvideofilename>
					<originalaudiofilename></originalaudiofilename>
					</logginginfo>
					<colorinfo>
					<lut></lut>
					<lut1></lut1>
					<asc_sop></asc_sop>
					<asc_sat></asc_sat>
					<lut2></lut2>
					</colorinfo>
					<labels>
					</labels>
					</clipitem>
					<clipitem frameBlend="FALSE" id="clipitem-597">
					<masterclipid>masterclip-517</masterclipid>
					<name></name>
					<enabled>TRUE</enabled>
					<duration>2582774</duration>
					<rate>
					
					                                    <timebase>60</timebase>
					                                    <ntsc>TRUE</ntsc>
					                                
					</rate>
					<start>4990</start>
					<end>5050</end>
					<in>4990</in>
					<out>5050</out>
					<pproTicksIn>914456774963789</pproTicksIn>
					<pproTicksOut>914677708529577</pproTicksOut>
					<alphatype>straight</alphatype>
					<pixelaspectratio>square</pixelaspectratio>
					<anamorphic>FALSE</anamorphic>
					<file id="file-516">
					<name></name>
					<mediaSource>GraphicAndType</mediaSource>
					<rate>
					<timebase>60</timebase>
					<ntsc>TRUE</ntsc>
					</rate>
					<timecode>
					<rate>
					<timebase>60</timebase>
					<ntsc>TRUE</ntsc>
					</rate>
					<string>00:00:00:00</string>
					<frame>0</frame>
					<displayformat>NDF</displayformat>
					</timecode>
					<media>
					<video>
					<samplecharacteristics>
					<rate>
					<timebase>60</timebase>
					<ntsc>TRUE</ntsc>
					</rate>
					<width>1080</width>
					<height>1920</height>
					<anamorphic>FALSE</anamorphic>
					<pixelaspectratio>square</pixelaspectratio>
					<fielddominance>none</fielddominance>
					</samplecharacteristics>
					</video>
					</media>
					</file>
					<filter>
					<effect>
					<name></name>
					<effectid>GraphicAndType</effectid>
					<effectcategory>graphic</effectcategory>
					<effecttype>filter</effecttype>
					<mediatype>video</mediatype>
					<pproBypass>false</pproBypass>
					<parameter authoringApp="PremierePro">
					<parameterid>1</parameterid>
					<name></name>
					<hash>025b1101-ead6-0ca2-1feb-caf3000001fc</hash>
					<value>5AEAAAAAAABEMyIRDAAAAAAABgAKAAQABgAAAGQAAAAAAF4ASAAQAAwARABAADwAOAAAAAAAAAAAADQAMwAsAAAAKAAkACAAAAAAAAAAAAAAAAAAHAAAAAAAGgAAAAAAAAAUAAAAAAAAAAAAAAAAAAAAAAAAAAgAAAAAABsABwBeAAAAAAAAAUAAAABQAAAAbAAAAAIAAAAAAAEAAQAAAAAAQEEAAMBAAABAQAAAyEIAAAABIAAAAAIAAAACAAAAAAA2QwCASkTw/v//9P7///j+//8S////AAAAAAEAAAAEAAAAEQAAAEhHUFNvZWlLYWt1cG9wdGFpAAAAAQAAAAwAAAAIAAwABAAIAAgAAAAIAAAAUAAAAA8AAADvvIEAAAAAAAAAAAAAAAAAAAA2ACQAAAAgABwAAAAAABsAFAAAAAAAAAAAAAAAAAAAAAAAAAAAABAAAAAAAAAADAAAAAgABAA2AAAAAgAAABwAAAAcAAAAHAAAAAAAIEEAAAABaAAAAE3PAEOw////tP///wEAAAAUAAAAEAAaAAgABwAMAAAAEAAUABAAAAAAAAABHAAAAAAAoEEcAAAAAgAAAAAACgAIAAUABgAHAAoAAAAADAD//P///wQABAAEAAAACAAIAAYABwAIAAAAAAAMAA==</value>
					</parameter>
					<parameter authoringApp="PremierePro">
					<parameterid>2</parameterid>
					<name></name>
					<IsTimeVarying>false</IsTimeVarying>
					<ParameterControlType>11</ParameterControlType>
					<LowerBound>false</LowerBound>
					<UpperBound>false</UpperBound>
					<value>-91445760000000000,false,0,0,0,0,0,0</value>
					</parameter>
					<parameter authoringApp="PremierePro">
					<parameterid>3</parameterid>
					<name></name>
					<IsTimeVarying>false</IsTimeVarying>
					<value>-91445760000000000,0.5:0.5,0,0,0,0,0,0,5,4,0,0,0,0</value>
					</parameter>
					<parameter authoringApp="PremierePro">
					<parameterid>4</parameterid>
					<name></name>
					<IsTimeVarying>false</IsTimeVarying>
					<ParameterControlType>2</ParameterControlType>
					<LowerBound>0</LowerBound>
					<UpperBound>4000</UpperBound>
					<value>-91445760000000000,100.,0,0,0,0,0,0</value>
					</parameter>
					<parameter authoringApp="PremierePro">
					<parameterid>8</parameterid>
					<name></name>
					<IsTimeVarying>false</IsTimeVarying>
					<ParameterControlType>2</ParameterControlType>
					<LowerBound>0</LowerBound>
					<UpperBound>100</UpperBound>
					<value>-91445760000000000,100.,0,0,0,0,0,0</value>
					</parameter>
					</effect>
					</filter>
					<logginginfo>
					<description></description>
					<scene></scene>
					<shottake></shottake>
					<lognote></lognote>
					<good></good>
					<originalvideofilename></originalvideofilename>
					<originalaudiofilename></originalaudiofilename>
					</logginginfo>
					<colorinfo>
					<lut></lut>
					<lut1></lut1>
					<asc_sop></asc_sop>
					<asc_sat></asc_sat>
					<lut2></lut2>
					</colorinfo>
					<labels>
					</labels>
					</clipitem>
					<clipitem id="clipitem-602"/>
					                        </track>
					                        <track TL.SQTrackShy="0" TL.SQTrackExpandedHeight="25" TL.SQTrackExpanded="0" MZ.TrackTargeted="0">
					<clipitem frameBlend="FALSE" id="clipitem-603">
					<masterclipid>masterclip-523</masterclipid>
					<name></name>
					<enabled>TRUE</enabled>
					<duration>2582774</duration>
					<rate>
					
					                                    <timebase>60</timebase>
					                                    <ntsc>TRUE</ntsc>
					                                
					</rate>
					<start>5050</start>
					<end>5116</end>
					<in>5050</in>
					<out>5116</out>
					<pproTicksIn>914456774963789</pproTicksIn>
					<pproTicksOut>914677708529577</pproTicksOut>
					<alphatype>straight</alphatype>
					<pixelaspectratio>square</pixelaspectratio>
					<anamorphic>FALSE</anamorphic>
					<file id="file-522">
					<name></name>
					<mediaSource>GraphicAndType</mediaSource>
					<rate>
					<timebase>60</timebase>
					<ntsc>TRUE</ntsc>
					</rate>
					<timecode>
					<rate>
					<timebase>60</timebase>
					<ntsc>TRUE</ntsc>
					</rate>
					<string>00:00:00:00</string>
					<frame>0</frame>
					<displayformat>NDF</displayformat>
					</timecode>
					<media>
					<video>
					<samplecharacteristics>
					<rate>
					<timebase>60</timebase>
					<ntsc>TRUE</ntsc>
					</rate>
					<width>1080</width>
					<height>1920</height>
					<anamorphic>FALSE</anamorphic>
					<pixelaspectratio>square</pixelaspectratio>
					<fielddominance>none</fielddominance>
					</samplecharacteristics>
					</video>
					</media>
					</file>
					<filter>
					<effect>
					<name></name>
					<effectid>GraphicAndType</effectid>
					<effectcategory>graphic</effectcategory>
					<effecttype>filter</effecttype>
					<mediatype>video</mediatype>
					<pproBypass>false</pproBypass>
					<parameter authoringApp="PremierePro">
					<parameterid>1</parameterid>
					<name></name>
					<hash>025b1101-ead6-0ca2-1feb-caf3000001fc</hash>
					<value>5AEAAAAAAABEMyIRDAAAAAAABgAKAAQABgAAAGQAAAAAAF4ASAAQAAwARABAADwAOAAAAAAAAAAAADQAMwAsAAAAKAAkACAAAAAAAAAAAAAAAAAAHAAAAAAAGgAAAAAAAAAUAAAAAAAAAAAAAAAAAAAAAAAAAAgAAAAAABsABwBeAAAAAAAAAUAAAABQAAAAbAAAAAIAAAAAAAEAAQAAAAAAQEEAAMBAAABAQAAAyEIAAAABIAAAAAIAAAACAAAAAAA2QwCASkTw/v//9P7///j+//8S////AAAAAAEAAAAEAAAAEQAAAEhHUFNvZWlLYWt1cG9wdGFpAAAAAQAAAAwAAAAIAAwABAAIAAgAAAAIAAAAUAAAAA8AAADvvIEAAAAAAAAAAAAAAAAAAAA2ACQAAAAgABwAAAAAABsAFAAAAAAAAAAAAAAAAAAAAAAAAAAAABAAAAAAAAAADAAAAAgABAA2AAAAAgAAABwAAAAcAAAAHAAAAAAAIEEAAAABaAAAAE3PAEOw////tP///wEAAAAUAAAAEAAaAAgABwAMAAAAEAAUABAAAAAAAAABHAAAAAAAoEEcAAAAAgAAAAAACgAIAAUABgAHAAoAAAAADAD//P///wQABAAEAAAACAAIAAYABwAIAAAAAAAMAA==</value>
					</parameter>
					<parameter authoringApp="PremierePro">
					<parameterid>2</parameterid>
					<name></name>
					<IsTimeVarying>false</IsTimeVarying>
					<ParameterControlType>11</ParameterControlType>
					<LowerBound>false</LowerBound>
					<UpperBound>false</UpperBound>
					<value>-91445760000000000,false,0,0,0,0,0,0</value>
					</parameter>
					<parameter authoringApp="PremierePro">
					<parameterid>3</parameterid>
					<name></name>
					<IsTimeVarying>false</IsTimeVarying>
					<value>-91445760000000000,0.5:0.5,0,0,0,0,0,0,5,4,0,0,0,0</value>
					</parameter>
					<parameter authoringApp="PremierePro">
					<parameterid>4</parameterid>
					<name></name>
					<IsTimeVarying>false</IsTimeVarying>
					<ParameterControlType>2</ParameterControlType>
					<LowerBound>0</LowerBound>
					<UpperBound>4000</UpperBound>
					<value>-91445760000000000,100.,0,0,0,0,0,0</value>
					</parameter>
					<parameter authoringApp="PremierePro">
					<parameterid>8</parameterid>
					<name></name>
					<IsTimeVarying>false</IsTimeVarying>
					<ParameterControlType>2</ParameterControlType>
					<LowerBound>0</LowerBound>
					<UpperBound>100</UpperBound>
					<value>-91445760000000000,100.,0,0,0,0,0,0</value>
					</parameter>
					</effect>
					</filter>
					<logginginfo>
					<description></description>
					<scene></scene>
					<shottake></shottake>
					<lognote></lognote>
					<good></good>
					<originalvideofilename></originalvideofilename>
					<originalaudiofilename></originalaudiofilename>
					</logginginfo>
					<colorinfo>
					<lut></lut>
					<lut1></lut1>
					<asc_sop></asc_sop>
					<asc_sat></asc_sat>
					<lut2></lut2>
					</colorinfo>
					<labels>
					</labels>
					</clipitem>
					<clipitem frameBlend="FALSE" id="clipitem-609">
					<masterclipid>masterclip-529</masterclipid>
					<name></name>
					<enabled>TRUE</enabled>
					<duration>2582774</duration>
					<rate>
					
					                                    <timebase>60</timebase>
					                                    <ntsc>TRUE</ntsc>
					                                
					</rate>
					<start>5122</start>
					<end>5182</end>
					<in>5122</in>
					<out>5182</out>
					<pproTicksIn>914456774963789</pproTicksIn>
					<pproTicksOut>914677708529577</pproTicksOut>
					<alphatype>straight</alphatype>
					<pixelaspectratio>square</pixelaspectratio>
					<anamorphic>FALSE</anamorphic>
					<file id="file-528">
					<name></name>
					<mediaSource>GraphicAndType</mediaSource>
					<rate>
					<timebase>60</timebase>
					<ntsc>TRUE</ntsc>
					</rate>
					<timecode>
					<rate>
					<timebase>60</timebase>
					<ntsc>TRUE</ntsc>
					</rate>
					<string>00:00:00:00</string>
					<frame>0</frame>
					<displayformat>NDF</displayformat>
					</timecode>
					<media>
					<video>
					<samplecharacteristics>
					<rate>
					<timebase>60</timebase>
					<ntsc>TRUE</ntsc>
					</rate>
					<width>1080</width>
					<height>1920</height>
					<anamorphic>FALSE</anamorphic>
					<pixelaspectratio>square</pixelaspectratio>
					<fielddominance>none</fielddominance>
					</samplecharacteristics>
					</video>
					</media>
					</file>
					<filter>
					<effect>
					<name></name>
					<effectid>GraphicAndType</effectid>
					<effectcategory>graphic</effectcategory>
					<effecttype>filter</effecttype>
					<mediatype>video</mediatype>
					<pproBypass>false</pproBypass>
					<parameter authoringApp="PremierePro">
					<parameterid>1</parameterid>
					<name></name>
					<hash>025b1101-ead6-0ca2-1feb-caf3000001fc</hash>
					<value>5AEAAAAAAABEMyIRDAAAAAAABgAKAAQABgAAAGQAAAAAAF4ASAAQAAwARABAADwAOAAAAAAAAAAAADQAMwAsAAAAKAAkACAAAAAAAAAAAAAAAAAAHAAAAAAAGgAAAAAAAAAUAAAAAAAAAAAAAAAAAAAAAAAAAAgAAAAAABsABwBeAAAAAAAAAUAAAABQAAAAbAAAAAIAAAAAAAEAAQAAAAAAQEEAAMBAAABAQAAAyEIAAAABIAAAAAIAAAACAAAAAAA2QwCASkTw/v//9P7///j+//8S////AAAAAAEAAAAEAAAAEQAAAEhHUFNvZWlLYWt1cG9wdGFpAAAAAQAAAAwAAAAIAAwABAAIAAgAAAAIAAAAUAAAAA8AAADvvIEAAAAAAAAAAAAAAAAAAAA2ACQAAAAgABwAAAAAABsAFAAAAAAAAAAAAAAAAAAAAAAAAAAAABAAAAAAAAAADAAAAAgABAA2AAAAAgAAABwAAAAcAAAAHAAAAAAAIEEAAAABaAAAAE3PAEOw////tP///wEAAAAUAAAAEAAaAAgABwAMAAAAEAAUABAAAAAAAAABHAAAAAAAoEEcAAAAAgAAAAAACgAIAAUABgAHAAoAAAAADAD//P///wQABAAEAAAACAAIAAYABwAIAAAAAAAMAA==</value>
					</parameter>
					<parameter authoringApp="PremierePro">
					<parameterid>2</parameterid>
					<name></name>
					<IsTimeVarying>false</IsTimeVarying>
					<ParameterControlType>11</ParameterControlType>
					<LowerBound>false</LowerBound>
					<UpperBound>false</UpperBound>
					<value>-91445760000000000,false,0,0,0,0,0,0</value>
					</parameter>
					<parameter authoringApp="PremierePro">
					<parameterid>3</parameterid>
					<name></name>
					<IsTimeVarying>false</IsTimeVarying>
					<value>-91445760000000000,0.5:0.5,0,0,0,0,0,0,5,4,0,0,0,0</value>
					</parameter>
					<parameter authoringApp="PremierePro">
					<parameterid>4</parameterid>
					<name></name>
					<IsTimeVarying>false</IsTimeVarying>
					<ParameterControlType>2</ParameterControlType>
					<LowerBound>0</LowerBound>
					<UpperBound>4000</UpperBound>
					<value>-91445760000000000,100.,0,0,0,0,0,0</value>
					</parameter>
					<parameter authoringApp="PremierePro">
					<parameterid>8</parameterid>
					<name></name>
					<IsTimeVarying>false</IsTimeVarying>
					<ParameterControlType>2</ParameterControlType>
					<LowerBound>0</LowerBound>
					<UpperBound>100</UpperBound>
					<value>-91445760000000000,100.,0,0,0,0,0,0</value>
					</parameter>
					</effect>
					</filter>
					<logginginfo>
					<description></description>
					<scene></scene>
					<shottake></shottake>
					<lognote></lognote>
					<good></good>
					<originalvideofilename></originalvideofilename>
					<originalaudiofilename></originalaudiofilename>
					</logginginfo>
					<colorinfo>
					<lut></lut>
					<lut1></lut1>
					<asc_sop></asc_sop>
					<asc_sat></asc_sat>
					<lut2></lut2>
					</colorinfo>
					<labels>
					</labels>
					</clipitem>
					<clipitem frameBlend="FALSE" id="clipitem-614">
					<masterclipid>masterclip-534</masterclipid>
					<name></name>
					<enabled>TRUE</enabled>
					<duration>2582774</duration>
					<rate>
					
					                                    <timebase>60</timebase>
					                                    <ntsc>TRUE</ntsc>
					                                
					</rate>
					<start>5182</start>
					<end>5242</end>
					<in>5182</in>
					<out>5242</out>
					<pproTicksIn>914456774963789</pproTicksIn>
					<pproTicksOut>914677708529577</pproTicksOut>
					<alphatype>straight</alphatype>
					<pixelaspectratio>square</pixelaspectratio>
					<anamorphic>FALSE</anamorphic>
					<file id="file-533">
					<name></name>
					<mediaSource>GraphicAndType</mediaSource>
					<rate>
					<timebase>60</timebase>
					<ntsc>TRUE</ntsc>
					</rate>
					<timecode>
					<rate>
					<timebase>60</timebase>
					<ntsc>TRUE</ntsc>
					</rate>
					<string>00:00:00:00</string>
					<frame>0</frame>
					<displayformat>NDF</displayformat>
					</timecode>
					<media>
					<video>
					<samplecharacteristics>
					<rate>
					<timebase>60</timebase>
					<ntsc>TRUE</ntsc>
					</rate>
					<width>1080</width>
					<height>1920</height>
					<anamorphic>FALSE</anamorphic>
					<pixelaspectratio>square</pixelaspectratio>
					<fielddominance>none</fielddominance>
					</samplecharacteristics>
					</video>
					</media>
					</file>
					<filter>
					<effect>
					<name></name>
					<effectid>GraphicAndType</effectid>
					<effectcategory>graphic</effectcategory>
					<effecttype>filter</effecttype>
					<mediatype>video</mediatype>
					<pproBypass>false</pproBypass>
					<parameter authoringApp="PremierePro">
					<parameterid>1</parameterid>
					<name></name>
					<hash>025b1101-ead6-0ca2-1feb-caf3000001fc</hash>
					<value>5AEAAAAAAABEMyIRDAAAAAAABgAKAAQABgAAAGQAAAAAAF4ASAAQAAwARABAADwAOAAAAAAAAAAAADQAMwAsAAAAKAAkACAAAAAAAAAAAAAAAAAAHAAAAAAAGgAAAAAAAAAUAAAAAAAAAAAAAAAAAAAAAAAAAAgAAAAAABsABwBeAAAAAAAAAUAAAABQAAAAbAAAAAIAAAAAAAEAAQAAAAAAQEEAAMBAAABAQAAAyEIAAAABIAAAAAIAAAACAAAAAAA2QwCASkTw/v//9P7///j+//8S////AAAAAAEAAAAEAAAAEQAAAEhHUFNvZWlLYWt1cG9wdGFpAAAAAQAAAAwAAAAIAAwABAAIAAgAAAAIAAAAUAAAAA8AAADvvIEAAAAAAAAAAAAAAAAAAAA2ACQAAAAgABwAAAAAABsAFAAAAAAAAAAAAAAAAAAAAAAAAAAAABAAAAAAAAAADAAAAAgABAA2AAAAAgAAABwAAAAcAAAAHAAAAAAAIEEAAAABaAAAAE3PAEOw////tP///wEAAAAUAAAAEAAaAAgABwAMAAAAEAAUABAAAAAAAAABHAAAAAAAoEEcAAAAAgAAAAAACgAIAAUABgAHAAoAAAAADAD//P///wQABAAEAAAACAAIAAYABwAIAAAAAAAMAA==</value>
					</parameter>
					<parameter authoringApp="PremierePro">
					<parameterid>2</parameterid>
					<name></name>
					<IsTimeVarying>false</IsTimeVarying>
					<ParameterControlType>11</ParameterControlType>
					<LowerBound>false</LowerBound>
					<UpperBound>false</UpperBound>
					<value>-91445760000000000,false,0,0,0,0,0,0</value>
					</parameter>
					<parameter authoringApp="PremierePro">
					<parameterid>3</parameterid>
					<name></name>
					<IsTimeVarying>false</IsTimeVarying>
					<value>-91445760000000000,0.5:0.5,0,0,0,0,0,0,5,4,0,0,0,0</value>
					</parameter>
					<parameter authoringApp="PremierePro">
					<parameterid>4</parameterid>
					<name></name>
					<IsTimeVarying>false</IsTimeVarying>
					<ParameterControlType>2</ParameterControlType>
					<LowerBound>0</LowerBound>
					<UpperBound>4000</UpperBound>
					<value>-91445760000000000,100.,0,0,0,0,0,0</value>
					</parameter>
					<parameter authoringApp="PremierePro">
					<parameterid>8</parameterid>
					<name></name>
					<IsTimeVarying>false</IsTimeVarying>
					<ParameterControlType>2</ParameterControlType>
					<LowerBound>0</LowerBound>
					<UpperBound>100</UpperBound>
					<value>-91445760000000000,100.,0,0,0,0,0,0</value>
					</parameter>
					</effect>
					</filter>
					<logginginfo>
					<description></description>
					<scene></scene>
					<shottake></shottake>
					<lognote></lognote>
					<good></good>
					<originalvideofilename></originalvideofilename>
					<originalaudiofilename></originalaudiofilename>
					</logginginfo>
					<colorinfo>
					<lut></lut>
					<lut1></lut1>
					<asc_sop></asc_sop>
					<asc_sat></asc_sat>
					<lut2></lut2>
					</colorinfo>
					<labels>
					</labels>
					</clipitem>
					<clipitem frameBlend="FALSE" id="clipitem-618">
					<masterclipid>masterclip-538</masterclipid>
					<name></name>
					<enabled>TRUE</enabled>
					<duration>2582774</duration>
					<rate>
					
					                                    <timebase>60</timebase>
					                                    <ntsc>TRUE</ntsc>
					                                
					</rate>
					<start>5242</start>
					<end>5302</end>
					<in>5242</in>
					<out>5302</out>
					<pproTicksIn>914456774963789</pproTicksIn>
					<pproTicksOut>914677708529577</pproTicksOut>
					<alphatype>straight</alphatype>
					<pixelaspectratio>square</pixelaspectratio>
					<anamorphic>FALSE</anamorphic>
					<file id="file-537">
					<name></name>
					<mediaSource>GraphicAndType</mediaSource>
					<rate>
					<timebase>60</timebase>
					<ntsc>TRUE</ntsc>
					</rate>
					<timecode>
					<rate>
					<timebase>60</timebase>
					<ntsc>TRUE</ntsc>
					</rate>
					<string>00:00:00:00</string>
					<frame>0</frame>
					<displayformat>NDF</displayformat>
					</timecode>
					<media>
					<video>
					<samplecharacteristics>
					<rate>
					<timebase>60</timebase>
					<ntsc>TRUE</ntsc>
					</rate>
					<width>1080</width>
					<height>1920</height>
					<anamorphic>FALSE</anamorphic>
					<pixelaspectratio>square</pixelaspectratio>
					<fielddominance>none</fielddominance>
					</samplecharacteristics>
					</video>
					</media>
					</file>
					<filter>
					<effect>
					<name></name>
					<effectid>GraphicAndType</effectid>
					<effectcategory>graphic</effectcategory>
					<effecttype>filter</effecttype>
					<mediatype>video</mediatype>
					<pproBypass>false</pproBypass>
					<parameter authoringApp="PremierePro">
					<parameterid>1</parameterid>
					<name></name>
					<hash>025b1101-ead6-0ca2-1feb-caf3000001fc</hash>
					<value>5AEAAAAAAABEMyIRDAAAAAAABgAKAAQABgAAAGQAAAAAAF4ASAAQAAwARABAADwAOAAAAAAAAAAAADQAMwAsAAAAKAAkACAAAAAAAAAAAAAAAAAAHAAAAAAAGgAAAAAAAAAUAAAAAAAAAAAAAAAAAAAAAAAAAAgAAAAAABsABwBeAAAAAAAAAUAAAABQAAAAbAAAAAIAAAAAAAEAAQAAAAAAQEEAAMBAAABAQAAAyEIAAAABIAAAAAIAAAACAAAAAAA2QwCASkTw/v//9P7///j+//8S////AAAAAAEAAAAEAAAAEQAAAEhHUFNvZWlLYWt1cG9wdGFpAAAAAQAAAAwAAAAIAAwABAAIAAgAAAAIAAAAUAAAAA8AAADvvIEAAAAAAAAAAAAAAAAAAAA2ACQAAAAgABwAAAAAABsAFAAAAAAAAAAAAAAAAAAAAAAAAAAAABAAAAAAAAAADAAAAAgABAA2AAAAAgAAABwAAAAcAAAAHAAAAAAAIEEAAAABaAAAAE3PAEOw////tP///wEAAAAUAAAAEAAaAAgABwAMAAAAEAAUABAAAAAAAAABHAAAAAAAoEEcAAAAAgAAAAAACgAIAAUABgAHAAoAAAAADAD//P///wQABAAEAAAACAAIAAYABwAIAAAAAAAMAA==</value>
					</parameter>
					<parameter authoringApp="PremierePro">
					<parameterid>2</parameterid>
					<name></name>
					<IsTimeVarying>false</IsTimeVarying>
					<ParameterControlType>11</ParameterControlType>
					<LowerBound>false</LowerBound>
					<UpperBound>false</UpperBound>
					<value>-91445760000000000,false,0,0,0,0,0,0</value>
					</parameter>
					<parameter authoringApp="PremierePro">
					<parameterid>3</parameterid>
					<name></name>
					<IsTimeVarying>false</IsTimeVarying>
					<value>-91445760000000000,0.5:0.5,0,0,0,0,0,0,5,4,0,0,0,0</value>
					</parameter>
					<parameter authoringApp="PremierePro">
					<parameterid>4</parameterid>
					<name></name>
					<IsTimeVarying>false</IsTimeVarying>
					<ParameterControlType>2</ParameterControlType>
					<LowerBound>0</LowerBound>
					<UpperBound>4000</UpperBound>
					<value>-91445760000000000,100.,0,0,0,0,0,0</value>
					</parameter>
					<parameter authoringApp="PremierePro">
					<parameterid>8</parameterid>
					<name></name>
					<IsTimeVarying>false</IsTimeVarying>
					<ParameterControlType>2</ParameterControlType>
					<LowerBound>0</LowerBound>
					<UpperBound>100</UpperBound>
					<value>-91445760000000000,100.,0,0,0,0,0,0</value>
					</parameter>
					</effect>
					</filter>
					<logginginfo>
					<description></description>
					<scene></scene>
					<shottake></shottake>
					<lognote></lognote>
					<good></good>
					<originalvideofilename></originalvideofilename>
					<originalaudiofilename></originalaudiofilename>
					</logginginfo>
					<colorinfo>
					<lut></lut>
					<lut1></lut1>
					<asc_sop></asc_sop>
					<asc_sat></asc_sat>
					<lut2></lut2>
					</colorinfo>
					<labels>
					</labels>
					</clipitem>
					<clipitem frameBlend="FALSE" id="clipitem-626">
					<masterclipid>masterclip-546</masterclipid>
					<name></name>
					<enabled>TRUE</enabled>
					<duration>2582774</duration>
					<rate>
					
					                                    <timebase>60</timebase>
					                                    <ntsc>TRUE</ntsc>
					                                
					</rate>
					<start>5302</start>
					<end>5362</end>
					<in>5302</in>
					<out>5362</out>
					<pproTicksIn>914456774963789</pproTicksIn>
					<pproTicksOut>914677708529577</pproTicksOut>
					<alphatype>straight</alphatype>
					<pixelaspectratio>square</pixelaspectratio>
					<anamorphic>FALSE</anamorphic>
					<file id="file-545">
					<name></name>
					<mediaSource>GraphicAndType</mediaSource>
					<rate>
					<timebase>60</timebase>
					<ntsc>TRUE</ntsc>
					</rate>
					<timecode>
					<rate>
					<timebase>60</timebase>
					<ntsc>TRUE</ntsc>
					</rate>
					<string>00:00:00:00</string>
					<frame>0</frame>
					<displayformat>NDF</displayformat>
					</timecode>
					<media>
					<video>
					<samplecharacteristics>
					<rate>
					<timebase>60</timebase>
					<ntsc>TRUE</ntsc>
					</rate>
					<width>1080</width>
					<height>1920</height>
					<anamorphic>FALSE</anamorphic>
					<pixelaspectratio>square</pixelaspectratio>
					<fielddominance>none</fielddominance>
					</samplecharacteristics>
					</video>
					</media>
					</file>
					<filter>
					<effect>
					<name></name>
					<effectid>GraphicAndType</effectid>
					<effectcategory>graphic</effectcategory>
					<effecttype>filter</effecttype>
					<mediatype>video</mediatype>
					<pproBypass>false</pproBypass>
					<parameter authoringApp="PremierePro">
					<parameterid>1</parameterid>
					<name></name>
					<hash>025b1101-ead6-0ca2-1feb-caf3000001fc</hash>
					<value>5AEAAAAAAABEMyIRDAAAAAAABgAKAAQABgAAAGQAAAAAAF4ASAAQAAwARABAADwAOAAAAAAAAAAAADQAMwAsAAAAKAAkACAAAAAAAAAAAAAAAAAAHAAAAAAAGgAAAAAAAAAUAAAAAAAAAAAAAAAAAAAAAAAAAAgAAAAAABsABwBeAAAAAAAAAUAAAABQAAAAbAAAAAIAAAAAAAEAAQAAAAAAQEEAAMBAAABAQAAAyEIAAAABIAAAAAIAAAACAAAAAAA2QwCASkTw/v//9P7///j+//8S////AAAAAAEAAAAEAAAAEQAAAEhHUFNvZWlLYWt1cG9wdGFpAAAAAQAAAAwAAAAIAAwABAAIAAgAAAAIAAAAUAAAAA8AAADvvIEAAAAAAAAAAAAAAAAAAAA2ACQAAAAgABwAAAAAABsAFAAAAAAAAAAAAAAAAAAAAAAAAAAAABAAAAAAAAAADAAAAAgABAA2AAAAAgAAABwAAAAcAAAAHAAAAAAAIEEAAAABaAAAAE3PAEOw////tP///wEAAAAUAAAAEAAaAAgABwAMAAAAEAAUABAAAAAAAAABHAAAAAAAoEEcAAAAAgAAAAAACgAIAAUABgAHAAoAAAAADAD//P///wQABAAEAAAACAAIAAYABwAIAAAAAAAMAA==</value>
					</parameter>
					<parameter authoringApp="PremierePro">
					<parameterid>2</parameterid>
					<name></name>
					<IsTimeVarying>false</IsTimeVarying>
					<ParameterControlType>11</ParameterControlType>
					<LowerBound>false</LowerBound>
					<UpperBound>false</UpperBound>
					<value>-91445760000000000,false,0,0,0,0,0,0</value>
					</parameter>
					<parameter authoringApp="PremierePro">
					<parameterid>3</parameterid>
					<name></name>
					<IsTimeVarying>false</IsTimeVarying>
					<value>-91445760000000000,0.5:0.5,0,0,0,0,0,0,5,4,0,0,0,0</value>
					</parameter>
					<parameter authoringApp="PremierePro">
					<parameterid>4</parameterid>
					<name></name>
					<IsTimeVarying>false</IsTimeVarying>
					<ParameterControlType>2</ParameterControlType>
					<LowerBound>0</LowerBound>
					<UpperBound>4000</UpperBound>
					<value>-91445760000000000,100.,0,0,0,0,0,0</value>
					</parameter>
					<parameter authoringApp="PremierePro">
					<parameterid>8</parameterid>
					<name></name>
					<IsTimeVarying>false</IsTimeVarying>
					<ParameterControlType>2</ParameterControlType>
					<LowerBound>0</LowerBound>
					<UpperBound>100</UpperBound>
					<value>-91445760000000000,100.,0,0,0,0,0,0</value>
					</parameter>
					</effect>
					</filter>
					<logginginfo>
					<description></description>
					<scene></scene>
					<shottake></shottake>
					<lognote></lognote>
					<good></good>
					<originalvideofilename></originalvideofilename>
					<originalaudiofilename></originalaudiofilename>
					</logginginfo>
					<colorinfo>
					<lut></lut>
					<lut1></lut1>
					<asc_sop></asc_sop>
					<asc_sat></asc_sat>
					<lut2></lut2>
					</colorinfo>
					<labels>
					</labels>
					</clipitem>
					<clipitem frameBlend="FALSE" id="clipitem-631">
					<masterclipid>masterclip-551</masterclipid>
					<name></name>
					<enabled>TRUE</enabled>
					<duration>2582774</duration>
					<rate>
					
					                                    <timebase>60</timebase>
					                                    <ntsc>TRUE</ntsc>
					                                
					</rate>
					<start>5362</start>
					<end>5422</end>
					<in>5362</in>
					<out>5422</out>
					<pproTicksIn>914456774963789</pproTicksIn>
					<pproTicksOut>914677708529577</pproTicksOut>
					<alphatype>straight</alphatype>
					<pixelaspectratio>square</pixelaspectratio>
					<anamorphic>FALSE</anamorphic>
					<file id="file-550">
					<name></name>
					<mediaSource>GraphicAndType</mediaSource>
					<rate>
					<timebase>60</timebase>
					<ntsc>TRUE</ntsc>
					</rate>
					<timecode>
					<rate>
					<timebase>60</timebase>
					<ntsc>TRUE</ntsc>
					</rate>
					<string>00:00:00:00</string>
					<frame>0</frame>
					<displayformat>NDF</displayformat>
					</timecode>
					<media>
					<video>
					<samplecharacteristics>
					<rate>
					<timebase>60</timebase>
					<ntsc>TRUE</ntsc>
					</rate>
					<width>1080</width>
					<height>1920</height>
					<anamorphic>FALSE</anamorphic>
					<pixelaspectratio>square</pixelaspectratio>
					<fielddominance>none</fielddominance>
					</samplecharacteristics>
					</video>
					</media>
					</file>
					<filter>
					<effect>
					<name></name>
					<effectid>GraphicAndType</effectid>
					<effectcategory>graphic</effectcategory>
					<effecttype>filter</effecttype>
					<mediatype>video</mediatype>
					<pproBypass>false</pproBypass>
					<parameter authoringApp="PremierePro">
					<parameterid>1</parameterid>
					<name></name>
					<hash>025b1101-ead6-0ca2-1feb-caf3000001fc</hash>
					<value>5AEAAAAAAABEMyIRDAAAAAAABgAKAAQABgAAAGQAAAAAAF4ASAAQAAwARABAADwAOAAAAAAAAAAAADQAMwAsAAAAKAAkACAAAAAAAAAAAAAAAAAAHAAAAAAAGgAAAAAAAAAUAAAAAAAAAAAAAAAAAAAAAAAAAAgAAAAAABsABwBeAAAAAAAAAUAAAABQAAAAbAAAAAIAAAAAAAEAAQAAAAAAQEEAAMBAAABAQAAAyEIAAAABIAAAAAIAAAACAAAAAAA2QwCASkTw/v//9P7///j+//8S////AAAAAAEAAAAEAAAAEQAAAEhHUFNvZWlLYWt1cG9wdGFpAAAAAQAAAAwAAAAIAAwABAAIAAgAAAAIAAAAUAAAAA8AAADvvIEAAAAAAAAAAAAAAAAAAAA2ACQAAAAgABwAAAAAABsAFAAAAAAAAAAAAAAAAAAAAAAAAAAAABAAAAAAAAAADAAAAAgABAA2AAAAAgAAABwAAAAcAAAAHAAAAAAAIEEAAAABaAAAAE3PAEOw////tP///wEAAAAUAAAAEAAaAAgABwAMAAAAEAAUABAAAAAAAAABHAAAAAAAoEEcAAAAAgAAAAAACgAIAAUABgAHAAoAAAAADAD//P///wQABAAEAAAACAAIAAYABwAIAAAAAAAMAA==</value>
					</parameter>
					<parameter authoringApp="PremierePro">
					<parameterid>2</parameterid>
					<name></name>
					<IsTimeVarying>false</IsTimeVarying>
					<ParameterControlType>11</ParameterControlType>
					<LowerBound>false</LowerBound>
					<UpperBound>false</UpperBound>
					<value>-91445760000000000,false,0,0,0,0,0,0</value>
					</parameter>
					<parameter authoringApp="PremierePro">
					<parameterid>3</parameterid>
					<name></name>
					<IsTimeVarying>false</IsTimeVarying>
					<value>-91445760000000000,0.5:0.5,0,0,0,0,0,0,5,4,0,0,0,0</value>
					</parameter>
					<parameter authoringApp="PremierePro">
					<parameterid>4</parameterid>
					<name></name>
					<IsTimeVarying>false</IsTimeVarying>
					<ParameterControlType>2</ParameterControlType>
					<LowerBound>0</LowerBound>
					<UpperBound>4000</UpperBound>
					<value>-91445760000000000,100.,0,0,0,0,0,0</value>
					</parameter>
					<parameter authoringApp="PremierePro">
					<parameterid>8</parameterid>
					<name></name>
					<IsTimeVarying>false</IsTimeVarying>
					<ParameterControlType>2</ParameterControlType>
					<LowerBound>0</LowerBound>
					<UpperBound>100</UpperBound>
					<value>-91445760000000000,100.,0,0,0,0,0,0</value>
					</parameter>
					</effect>
					</filter>
					<logginginfo>
					<description></description>
					<scene></scene>
					<shottake></shottake>
					<lognote></lognote>
					<good></good>
					<originalvideofilename></originalvideofilename>
					<originalaudiofilename></originalaudiofilename>
					</logginginfo>
					<colorinfo>
					<lut></lut>
					<lut1></lut1>
					<asc_sop></asc_sop>
					<asc_sat></asc_sat>
					<lut2></lut2>
					</colorinfo>
					<labels>
					</labels>
					</clipitem>
					<clipitem frameBlend="FALSE" id="clipitem-633">
					<masterclipid>masterclip-553</masterclipid>
					<name></name>
					<enabled>TRUE</enabled>
					<duration>2582774</duration>
					<rate>
					
					                                    <timebase>60</timebase>
					                                    <ntsc>TRUE</ntsc>
					                                
					</rate>
					<start>5434</start>
					<end>5500</end>
					<in>5434</in>
					<out>5500</out>
					<pproTicksIn>914456774963789</pproTicksIn>
					<pproTicksOut>914677708529577</pproTicksOut>
					<alphatype>straight</alphatype>
					<pixelaspectratio>square</pixelaspectratio>
					<anamorphic>FALSE</anamorphic>
					<file id="file-552">
					<name></name>
					<mediaSource>GraphicAndType</mediaSource>
					<rate>
					<timebase>60</timebase>
					<ntsc>TRUE</ntsc>
					</rate>
					<timecode>
					<rate>
					<timebase>60</timebase>
					<ntsc>TRUE</ntsc>
					</rate>
					<string>00:00:00:00</string>
					<frame>0</frame>
					<displayformat>NDF</displayformat>
					</timecode>
					<media>
					<video>
					<samplecharacteristics>
					<rate>
					<timebase>60</timebase>
					<ntsc>TRUE</ntsc>
					</rate>
					<width>1080</width>
					<height>1920</height>
					<anamorphic>FALSE</anamorphic>
					<pixelaspectratio>square</pixelaspectratio>
					<fielddominance>none</fielddominance>
					</samplecharacteristics>
					</video>
					</media>
					</file>
					<filter>
					<effect>
					<name></name>
					<effectid>GraphicAndType</effectid>
					<effectcategory>graphic</effectcategory>
					<effecttype>filter</effecttype>
					<mediatype>video</mediatype>
					<pproBypass>false</pproBypass>
					<parameter authoringApp="PremierePro">
					<parameterid>1</parameterid>
					<name></name>
					<hash>025b1101-ead6-0ca2-1feb-caf3000001fc</hash>
					<value>5AEAAAAAAABEMyIRDAAAAAAABgAKAAQABgAAAGQAAAAAAF4ASAAQAAwARABAADwAOAAAAAAAAAAAADQAMwAsAAAAKAAkACAAAAAAAAAAAAAAAAAAHAAAAAAAGgAAAAAAAAAUAAAAAAAAAAAAAAAAAAAAAAAAAAgAAAAAABsABwBeAAAAAAAAAUAAAABQAAAAbAAAAAIAAAAAAAEAAQAAAAAAQEEAAMBAAABAQAAAyEIAAAABIAAAAAIAAAACAAAAAAA2QwCASkTw/v//9P7///j+//8S////AAAAAAEAAAAEAAAAEQAAAEhHUFNvZWlLYWt1cG9wdGFpAAAAAQAAAAwAAAAIAAwABAAIAAgAAAAIAAAAUAAAAA8AAADvvIEAAAAAAAAAAAAAAAAAAAA2ACQAAAAgABwAAAAAABsAFAAAAAAAAAAAAAAAAAAAAAAAAAAAABAAAAAAAAAADAAAAAgABAA2AAAAAgAAABwAAAAcAAAAHAAAAAAAIEEAAAABaAAAAE3PAEOw////tP///wEAAAAUAAAAEAAaAAgABwAMAAAAEAAUABAAAAAAAAABHAAAAAAAoEEcAAAAAgAAAAAACgAIAAUABgAHAAoAAAAADAD//P///wQABAAEAAAACAAIAAYABwAIAAAAAAAMAA==</value>
					</parameter>
					<parameter authoringApp="PremierePro">
					<parameterid>2</parameterid>
					<name></name>
					<IsTimeVarying>false</IsTimeVarying>
					<ParameterControlType>11</ParameterControlType>
					<LowerBound>false</LowerBound>
					<UpperBound>false</UpperBound>
					<value>-91445760000000000,false,0,0,0,0,0,0</value>
					</parameter>
					<parameter authoringApp="PremierePro">
					<parameterid>3</parameterid>
					<name></name>
					<IsTimeVarying>false</IsTimeVarying>
					<value>-91445760000000000,0.5:0.5,0,0,0,0,0,0,5,4,0,0,0,0</value>
					</parameter>
					<parameter authoringApp="PremierePro">
					<parameterid>4</parameterid>
					<name></name>
					<IsTimeVarying>false</IsTimeVarying>
					<ParameterControlType>2</ParameterControlType>
					<LowerBound>0</LowerBound>
					<UpperBound>4000</UpperBound>
					<value>-91445760000000000,100.,0,0,0,0,0,0</value>
					</parameter>
					<parameter authoringApp="PremierePro">
					<parameterid>8</parameterid>
					<name></name>
					<IsTimeVarying>false</IsTimeVarying>
					<ParameterControlType>2</ParameterControlType>
					<LowerBound>0</LowerBound>
					<UpperBound>100</UpperBound>
					<value>-91445760000000000,100.,0,0,0,0,0,0</value>
					</parameter>
					</effect>
					</filter>
					<logginginfo>
					<description></description>
					<scene></scene>
					<shottake></shottake>
					<lognote></lognote>
					<good></good>
					<originalvideofilename></originalvideofilename>
					<originalaudiofilename></originalaudiofilename>
					</logginginfo>
					<colorinfo>
					<lut></lut>
					<lut1></lut1>
					<asc_sop></asc_sop>
					<asc_sat></asc_sat>
					<lut2></lut2>
					</colorinfo>
					<labels>
					</labels>
					</clipitem>
					<clipitem frameBlend="FALSE" id="clipitem-636">
					<masterclipid>masterclip-556</masterclipid>
					<name></name>
					<enabled>TRUE</enabled>
					<duration>2582774</duration>
					<rate>
					
					                                    <timebase>60</timebase>
					                                    <ntsc>TRUE</ntsc>
					                                
					</rate>
					<start>5500</start>
					<end>5560</end>
					<in>5500</in>
					<out>5560</out>
					<pproTicksIn>914456774963789</pproTicksIn>
					<pproTicksOut>914677708529577</pproTicksOut>
					<alphatype>straight</alphatype>
					<pixelaspectratio>square</pixelaspectratio>
					<anamorphic>FALSE</anamorphic>
					<file id="file-555">
					<name></name>
					<mediaSource>GraphicAndType</mediaSource>
					<rate>
					<timebase>60</timebase>
					<ntsc>TRUE</ntsc>
					</rate>
					<timecode>
					<rate>
					<timebase>60</timebase>
					<ntsc>TRUE</ntsc>
					</rate>
					<string>00:00:00:00</string>
					<frame>0</frame>
					<displayformat>NDF</displayformat>
					</timecode>
					<media>
					<video>
					<samplecharacteristics>
					<rate>
					<timebase>60</timebase>
					<ntsc>TRUE</ntsc>
					</rate>
					<width>1080</width>
					<height>1920</height>
					<anamorphic>FALSE</anamorphic>
					<pixelaspectratio>square</pixelaspectratio>
					<fielddominance>none</fielddominance>
					</samplecharacteristics>
					</video>
					</media>
					</file>
					<filter>
					<effect>
					<name></name>
					<effectid>GraphicAndType</effectid>
					<effectcategory>graphic</effectcategory>
					<effecttype>filter</effecttype>
					<mediatype>video</mediatype>
					<pproBypass>false</pproBypass>
					<parameter authoringApp="PremierePro">
					<parameterid>1</parameterid>
					<name></name>
					<hash>025b1101-ead6-0ca2-1feb-caf3000001fc</hash>
					<value>5AEAAAAAAABEMyIRDAAAAAAABgAKAAQABgAAAGQAAAAAAF4ASAAQAAwARABAADwAOAAAAAAAAAAAADQAMwAsAAAAKAAkACAAAAAAAAAAAAAAAAAAHAAAAAAAGgAAAAAAAAAUAAAAAAAAAAAAAAAAAAAAAAAAAAgAAAAAABsABwBeAAAAAAAAAUAAAABQAAAAbAAAAAIAAAAAAAEAAQAAAAAAQEEAAMBAAABAQAAAyEIAAAABIAAAAAIAAAACAAAAAAA2QwCASkTw/v//9P7///j+//8S////AAAAAAEAAAAEAAAAEQAAAEhHUFNvZWlLYWt1cG9wdGFpAAAAAQAAAAwAAAAIAAwABAAIAAgAAAAIAAAAUAAAAA8AAADvvIEAAAAAAAAAAAAAAAAAAAA2ACQAAAAgABwAAAAAABsAFAAAAAAAAAAAAAAAAAAAAAAAAAAAABAAAAAAAAAADAAAAAgABAA2AAAAAgAAABwAAAAcAAAAHAAAAAAAIEEAAAABaAAAAE3PAEOw////tP///wEAAAAUAAAAEAAaAAgABwAMAAAAEAAUABAAAAAAAAABHAAAAAAAoEEcAAAAAgAAAAAACgAIAAUABgAHAAoAAAAADAD//P///wQABAAEAAAACAAIAAYABwAIAAAAAAAMAA==</value>
					</parameter>
					<parameter authoringApp="PremierePro">
					<parameterid>2</parameterid>
					<name></name>
					<IsTimeVarying>false</IsTimeVarying>
					<ParameterControlType>11</ParameterControlType>
					<LowerBound>false</LowerBound>
					<UpperBound>false</UpperBound>
					<value>-91445760000000000,false,0,0,0,0,0,0</value>
					</parameter>
					<parameter authoringApp="PremierePro">
					<parameterid>3</parameterid>
					<name></name>
					<IsTimeVarying>false</IsTimeVarying>
					<value>-91445760000000000,0.5:0.5,0,0,0,0,0,0,5,4,0,0,0,0</value>
					</parameter>
					<parameter authoringApp="PremierePro">
					<parameterid>4</parameterid>
					<name></name>
					<IsTimeVarying>false</IsTimeVarying>
					<ParameterControlType>2</ParameterControlType>
					<LowerBound>0</LowerBound>
					<UpperBound>4000</UpperBound>
					<value>-91445760000000000,100.,0,0,0,0,0,0</value>
					</parameter>
					<parameter authoringApp="PremierePro">
					<parameterid>8</parameterid>
					<name></name>
					<IsTimeVarying>false</IsTimeVarying>
					<ParameterControlType>2</ParameterControlType>
					<LowerBound>0</LowerBound>
					<UpperBound>100</UpperBound>
					<value>-91445760000000000,100.,0,0,0,0,0,0</value>
					</parameter>
					</effect>
					</filter>
					<logginginfo>
					<description></description>
					<scene></scene>
					<shottake></shottake>
					<lognote></lognote>
					<good></good>
					<originalvideofilename></originalvideofilename>
					<originalaudiofilename></originalaudiofilename>
					</logginginfo>
					<colorinfo>
					<lut></lut>
					<lut1></lut1>
					<asc_sop></asc_sop>
					<asc_sat></asc_sat>
					<lut2></lut2>
					</colorinfo>
					<labels>
					</labels>
					</clipitem>
					<clipitem frameBlend="FALSE" id="clipitem-646">
					<masterclipid>masterclip-566</masterclipid>
					<name></name>
					<enabled>TRUE</enabled>
					<duration>2582774</duration>
					<rate>
					
					                                    <timebase>60</timebase>
					                                    <ntsc>TRUE</ntsc>
					                                
					</rate>
					<start>5566</start>
					<end>5626</end>
					<in>5566</in>
					<out>5626</out>
					<pproTicksIn>914456774963789</pproTicksIn>
					<pproTicksOut>914677708529577</pproTicksOut>
					<alphatype>straight</alphatype>
					<pixelaspectratio>square</pixelaspectratio>
					<anamorphic>FALSE</anamorphic>
					<file id="file-565">
					<name></name>
					<mediaSource>GraphicAndType</mediaSource>
					<rate>
					<timebase>60</timebase>
					<ntsc>TRUE</ntsc>
					</rate>
					<timecode>
					<rate>
					<timebase>60</timebase>
					<ntsc>TRUE</ntsc>
					</rate>
					<string>00:00:00:00</string>
					<frame>0</frame>
					<displayformat>NDF</displayformat>
					</timecode>
					<media>
					<video>
					<samplecharacteristics>
					<rate>
					<timebase>60</timebase>
					<ntsc>TRUE</ntsc>
					</rate>
					<width>1080</width>
					<height>1920</height>
					<anamorphic>FALSE</anamorphic>
					<pixelaspectratio>square</pixelaspectratio>
					<fielddominance>none</fielddominance>
					</samplecharacteristics>
					</video>
					</media>
					</file>
					<filter>
					<effect>
					<name></name>
					<effectid>GraphicAndType</effectid>
					<effectcategory>graphic</effectcategory>
					<effecttype>filter</effecttype>
					<mediatype>video</mediatype>
					<pproBypass>false</pproBypass>
					<parameter authoringApp="PremierePro">
					<parameterid>1</parameterid>
					<name></name>
					<hash>025b1101-ead6-0ca2-1feb-caf3000001fc</hash>
					<value>5AEAAAAAAABEMyIRDAAAAAAABgAKAAQABgAAAGQAAAAAAF4ASAAQAAwARABAADwAOAAAAAAAAAAAADQAMwAsAAAAKAAkACAAAAAAAAAAAAAAAAAAHAAAAAAAGgAAAAAAAAAUAAAAAAAAAAAAAAAAAAAAAAAAAAgAAAAAABsABwBeAAAAAAAAAUAAAABQAAAAbAAAAAIAAAAAAAEAAQAAAAAAQEEAAMBAAABAQAAAyEIAAAABIAAAAAIAAAACAAAAAAA2QwCASkTw/v//9P7///j+//8S////AAAAAAEAAAAEAAAAEQAAAEhHUFNvZWlLYWt1cG9wdGFpAAAAAQAAAAwAAAAIAAwABAAIAAgAAAAIAAAAUAAAAA8AAADvvIEAAAAAAAAAAAAAAAAAAAA2ACQAAAAgABwAAAAAABsAFAAAAAAAAAAAAAAAAAAAAAAAAAAAABAAAAAAAAAADAAAAAgABAA2AAAAAgAAABwAAAAcAAAAHAAAAAAAIEEAAAABaAAAAE3PAEOw////tP///wEAAAAUAAAAEAAaAAgABwAMAAAAEAAUABAAAAAAAAABHAAAAAAAoEEcAAAAAgAAAAAACgAIAAUABgAHAAoAAAAADAD//P///wQABAAEAAAACAAIAAYABwAIAAAAAAAMAA==</value>
					</parameter>
					<parameter authoringApp="PremierePro">
					<parameterid>2</parameterid>
					<name></name>
					<IsTimeVarying>false</IsTimeVarying>
					<ParameterControlType>11</ParameterControlType>
					<LowerBound>false</LowerBound>
					<UpperBound>false</UpperBound>
					<value>-91445760000000000,false,0,0,0,0,0,0</value>
					</parameter>
					<parameter authoringApp="PremierePro">
					<parameterid>3</parameterid>
					<name></name>
					<IsTimeVarying>false</IsTimeVarying>
					<value>-91445760000000000,0.5:0.5,0,0,0,0,0,0,5,4,0,0,0,0</value>
					</parameter>
					<parameter authoringApp="PremierePro">
					<parameterid>4</parameterid>
					<name></name>
					<IsTimeVarying>false</IsTimeVarying>
					<ParameterControlType>2</ParameterControlType>
					<LowerBound>0</LowerBound>
					<UpperBound>4000</UpperBound>
					<value>-91445760000000000,100.,0,0,0,0,0,0</value>
					</parameter>
					<parameter authoringApp="PremierePro">
					<parameterid>8</parameterid>
					<name></name>
					<IsTimeVarying>false</IsTimeVarying>
					<ParameterControlType>2</ParameterControlType>
					<LowerBound>0</LowerBound>
					<UpperBound>100</UpperBound>
					<value>-91445760000000000,100.,0,0,0,0,0,0</value>
					</parameter>
					</effect>
					</filter>
					<logginginfo>
					<description></description>
					<scene></scene>
					<shottake></shottake>
					<lognote></lognote>
					<good></good>
					<originalvideofilename></originalvideofilename>
					<originalaudiofilename></originalaudiofilename>
					</logginginfo>
					<colorinfo>
					<lut></lut>
					<lut1></lut1>
					<asc_sop></asc_sop>
					<asc_sat></asc_sat>
					<lut2></lut2>
					</colorinfo>
					<labels>
					</labels>
					</clipitem>
					<clipitem frameBlend="FALSE" id="clipitem-657">
					<masterclipid>masterclip-577</masterclipid>
					<name></name>
					<enabled>TRUE</enabled>
					<duration>2582774</duration>
					<rate>
					
					                                    <timebase>60</timebase>
					                                    <ntsc>TRUE</ntsc>
					                                
					</rate>
					<start>5626</start>
					<end>5686</end>
					<in>5626</in>
					<out>5686</out>
					<pproTicksIn>914456774963789</pproTicksIn>
					<pproTicksOut>914677708529577</pproTicksOut>
					<alphatype>straight</alphatype>
					<pixelaspectratio>square</pixelaspectratio>
					<anamorphic>FALSE</anamorphic>
					<file id="file-576">
					<name></name>
					<mediaSource>GraphicAndType</mediaSource>
					<rate>
					<timebase>60</timebase>
					<ntsc>TRUE</ntsc>
					</rate>
					<timecode>
					<rate>
					<timebase>60</timebase>
					<ntsc>TRUE</ntsc>
					</rate>
					<string>00:00:00:00</string>
					<frame>0</frame>
					<displayformat>NDF</displayformat>
					</timecode>
					<media>
					<video>
					<samplecharacteristics>
					<rate>
					<timebase>60</timebase>
					<ntsc>TRUE</ntsc>
					</rate>
					<width>1080</width>
					<height>1920</height>
					<anamorphic>FALSE</anamorphic>
					<pixelaspectratio>square</pixelaspectratio>
					<fielddominance>none</fielddominance>
					</samplecharacteristics>
					</video>
					</media>
					</file>
					<filter>
					<effect>
					<name></name>
					<effectid>GraphicAndType</effectid>
					<effectcategory>graphic</effectcategory>
					<effecttype>filter</effecttype>
					<mediatype>video</mediatype>
					<pproBypass>false</pproBypass>
					<parameter authoringApp="PremierePro">
					<parameterid>1</parameterid>
					<name></name>
					<hash>025b1101-ead6-0ca2-1feb-caf3000001fc</hash>
					<value>5AEAAAAAAABEMyIRDAAAAAAABgAKAAQABgAAAGQAAAAAAF4ASAAQAAwARABAADwAOAAAAAAAAAAAADQAMwAsAAAAKAAkACAAAAAAAAAAAAAAAAAAHAAAAAAAGgAAAAAAAAAUAAAAAAAAAAAAAAAAAAAAAAAAAAgAAAAAABsABwBeAAAAAAAAAUAAAABQAAAAbAAAAAIAAAAAAAEAAQAAAAAAQEEAAMBAAABAQAAAyEIAAAABIAAAAAIAAAACAAAAAAA2QwCASkTw/v//9P7///j+//8S////AAAAAAEAAAAEAAAAEQAAAEhHUFNvZWlLYWt1cG9wdGFpAAAAAQAAAAwAAAAIAAwABAAIAAgAAAAIAAAAUAAAAA8AAADvvIEAAAAAAAAAAAAAAAAAAAA2ACQAAAAgABwAAAAAABsAFAAAAAAAAAAAAAAAAAAAAAAAAAAAABAAAAAAAAAADAAAAAgABAA2AAAAAgAAABwAAAAcAAAAHAAAAAAAIEEAAAABaAAAAE3PAEOw////tP///wEAAAAUAAAAEAAaAAgABwAMAAAAEAAUABAAAAAAAAABHAAAAAAAoEEcAAAAAgAAAAAACgAIAAUABgAHAAoAAAAADAD//P///wQABAAEAAAACAAIAAYABwAIAAAAAAAMAA==</value>
					</parameter>
					<parameter authoringApp="PremierePro">
					<parameterid>2</parameterid>
					<name></name>
					<IsTimeVarying>false</IsTimeVarying>
					<ParameterControlType>11</ParameterControlType>
					<LowerBound>false</LowerBound>
					<UpperBound>false</UpperBound>
					<value>-91445760000000000,false,0,0,0,0,0,0</value>
					</parameter>
					<parameter authoringApp="PremierePro">
					<parameterid>3</parameterid>
					<name></name>
					<IsTimeVarying>false</IsTimeVarying>
					<value>-91445760000000000,0.5:0.5,0,0,0,0,0,0,5,4,0,0,0,0</value>
					</parameter>
					<parameter authoringApp="PremierePro">
					<parameterid>4</parameterid>
					<name></name>
					<IsTimeVarying>false</IsTimeVarying>
					<ParameterControlType>2</ParameterControlType>
					<LowerBound>0</LowerBound>
					<UpperBound>4000</UpperBound>
					<value>-91445760000000000,100.,0,0,0,0,0,0</value>
					</parameter>
					<parameter authoringApp="PremierePro">
					<parameterid>8</parameterid>
					<name></name>
					<IsTimeVarying>false</IsTimeVarying>
					<ParameterControlType>2</ParameterControlType>
					<LowerBound>0</LowerBound>
					<UpperBound>100</UpperBound>
					<value>-91445760000000000,100.,0,0,0,0,0,0</value>
					</parameter>
					</effect>
					</filter>
					<logginginfo>
					<description></description>
					<scene></scene>
					<shottake></shottake>
					<lognote></lognote>
					<good></good>
					<originalvideofilename></originalvideofilename>
					<originalaudiofilename></originalaudiofilename>
					</logginginfo>
					<colorinfo>
					<lut></lut>
					<lut1></lut1>
					<asc_sop></asc_sop>
					<asc_sat></asc_sat>
					<lut2></lut2>
					</colorinfo>
					<labels>
					</labels>
					</clipitem>
					<clipitem frameBlend="FALSE" id="clipitem-110">
					<masterclipid>masterclip-30</masterclipid>
					<name></name>
					<enabled>TRUE</enabled>
					<duration>2582774</duration>
					<rate>
					
					                                    <timebase>60</timebase>
					                                    <ntsc>TRUE</ntsc>
					                                
					</rate>
					<start>5698</start>
					<end>5878</end>
					<in>5698</in>
					<out>5878</out>
					<pproTicksIn>914456774963789</pproTicksIn>
					<pproTicksOut>914677708529577</pproTicksOut>
					<alphatype>straight</alphatype>
					<pixelaspectratio>square</pixelaspectratio>
					<anamorphic>FALSE</anamorphic>
					<file id="file-29">
					<name></name>
					<mediaSource>GraphicAndType</mediaSource>
					<rate>
					<timebase>60</timebase>
					<ntsc>TRUE</ntsc>
					</rate>
					<timecode>
					<rate>
					<timebase>60</timebase>
					<ntsc>TRUE</ntsc>
					</rate>
					<string>00:00:00:00</string>
					<frame>0</frame>
					<displayformat>NDF</displayformat>
					</timecode>
					<media>
					<video>
					<samplecharacteristics>
					<rate>
					<timebase>60</timebase>
					<ntsc>TRUE</ntsc>
					</rate>
					<width>1080</width>
					<height>1920</height>
					<anamorphic>FALSE</anamorphic>
					<pixelaspectratio>square</pixelaspectratio>
					<fielddominance>none</fielddominance>
					</samplecharacteristics>
					</video>
					</media>
					</file>
					<filter>
					<effect>
					<name></name>
					<effectid>GraphicAndType</effectid>
					<effectcategory>graphic</effectcategory>
					<effecttype>filter</effecttype>
					<mediatype>video</mediatype>
					<pproBypass>false</pproBypass>
					<parameter authoringApp="PremierePro">
					<parameterid>1</parameterid>
					<name></name>
					<hash>025b1101-ead6-0ca2-1feb-caf3000001fc</hash>
					<value>5AEAAAAAAABEMyIRDAAAAAAABgAKAAQABgAAAGQAAAAAAF4ASAAQAAwARABAADwAOAAAAAAAAAAAADQAMwAsAAAAKAAkACAAAAAAAAAAAAAAAAAAHAAAAAAAGgAAAAAAAAAUAAAAAAAAAAAAAAAAAAAAAAAAAAgAAAAAABsABwBeAAAAAAAAAUAAAABQAAAAbAAAAAIAAAAAAAEAAQAAAAAAQEEAAMBAAABAQAAAyEIAAAABIAAAAAIAAAACAAAAAAA2QwCASkTw/v//9P7///j+//8S////AAAAAAEAAAAEAAAAEQAAAEhHUFNvZWlLYWt1cG9wdGFpAAAAAQAAAAwAAAAIAAwABAAIAAgAAAAIAAAAUAAAAA8AAADjg6Hjg4vjg6Xjg7zjgagAAAA2ACQAAAAgABwAAAAAABsAFAAAAAAAAAAAAAAAAAAAAAAAAAAAABAAAAAAAAAADAAAAAgABAA2AAAAAgAAABwAAAAcAAAAHAAAAAAAIEEAAAABaAAAAE3PAEOw////tP///wEAAAAUAAAAEAAaAAgABwAMAAAAEAAUABAAAAAAAAABHAAAAAAAoEEcAAAAAgAAAAAACgAIAAUABgAHAAoAAAAADAD//P///wQABAAEAAAACAAIAAYABwAIAAAAAAAMAA==</value>
					</parameter>
					<parameter authoringApp="PremierePro">
					<parameterid>2</parameterid>
					<name></name>
					<IsTimeVarying>false</IsTimeVarying>
					<ParameterControlType>11</ParameterControlType>
					<LowerBound>false</LowerBound>
					<UpperBound>false</UpperBound>
					<value>-91445760000000000,false,0,0,0,0,0,0</value>
					</parameter>
					<parameter authoringApp="PremierePro">
					<parameterid>3</parameterid>
					<name></name>
					<IsTimeVarying>false</IsTimeVarying>
					<value>-91445760000000000,0.5:0.5,0,0,0,0,0,0,5,4,0,0,0,0</value>
					</parameter>
					<parameter authoringApp="PremierePro">
					<parameterid>4</parameterid>
					<name></name>
					<IsTimeVarying>false</IsTimeVarying>
					<ParameterControlType>2</ParameterControlType>
					<LowerBound>0</LowerBound>
					<UpperBound>4000</UpperBound>
					<value>-91445760000000000,100.,0,0,0,0,0,0</value>
					</parameter>
					<parameter authoringApp="PremierePro">
					<parameterid>8</parameterid>
					<name></name>
					<IsTimeVarying>false</IsTimeVarying>
					<ParameterControlType>2</ParameterControlType>
					<LowerBound>0</LowerBound>
					<UpperBound>100</UpperBound>
					<value>-91445760000000000,100.,0,0,0,0,0,0</value>
					</parameter>
					</effect>
					</filter>
					<logginginfo>
					<description></description>
					<scene></scene>
					<shottake></shottake>
					<lognote></lognote>
					<good></good>
					<originalvideofilename></originalvideofilename>
					<originalaudiofilename></originalaudiofilename>
					</logginginfo>
					<colorinfo>
					<lut></lut>
					<lut1></lut1>
					<asc_sop></asc_sop>
					<asc_sat></asc_sat>
					<lut2></lut2>
					</colorinfo>
					<labels>
					</labels>
					</clipitem>
					<clipitem frameBlend="FALSE" id="clipitem-111">
					<masterclipid>masterclip-31</masterclipid>
					<name></name>
					<enabled>TRUE</enabled>
					<duration>2582774</duration>
					<rate>
					
					                                    <timebase>60</timebase>
					                                    <ntsc>TRUE</ntsc>
					                                
					</rate>
					<start>5878</start>
					<end>5998</end>
					<in>5878</in>
					<out>5998</out>
					<pproTicksIn>914456774963789</pproTicksIn>
					<pproTicksOut>914677708529577</pproTicksOut>
					<alphatype>straight</alphatype>
					<pixelaspectratio>square</pixelaspectratio>
					<anamorphic>FALSE</anamorphic>
					<file id="file-30">
					<name></name>
					<mediaSource>GraphicAndType</mediaSource>
					<rate>
					<timebase>60</timebase>
					<ntsc>TRUE</ntsc>
					</rate>
					<timecode>
					<rate>
					<timebase>60</timebase>
					<ntsc>TRUE</ntsc>
					</rate>
					<string>00:00:00:00</string>
					<frame>0</frame>
					<displayformat>NDF</displayformat>
					</timecode>
					<media>
					<video>
					<samplecharacteristics>
					<rate>
					<timebase>60</timebase>
					<ntsc>TRUE</ntsc>
					</rate>
					<width>1080</width>
					<height>1920</height>
					<anamorphic>FALSE</anamorphic>
					<pixelaspectratio>square</pixelaspectratio>
					<fielddominance>none</fielddominance>
					</samplecharacteristics>
					</video>
					</media>
					</file>
					<filter>
					<effect>
					<name></name>
					<effectid>GraphicAndType</effectid>
					<effectcategory>graphic</effectcategory>
					<effecttype>filter</effecttype>
					<mediatype>video</mediatype>
					<pproBypass>false</pproBypass>
					<parameter authoringApp="PremierePro">
					<parameterid>1</parameterid>
					<name></name>
					<hash>025b1101-ead6-0ca2-1feb-caf3000001fc</hash>
					<value>5AEAAAAAAABEMyIRDAAAAAAABgAKAAQABgAAAGQAAAAAAF4ASAAQAAwARABAADwAOAAAAAAAAAAAADQAMwAsAAAAKAAkACAAAAAAAAAAAAAAAAAAHAAAAAAAGgAAAAAAAAAUAAAAAAAAAAAAAAAAAAAAAAAAAAgAAAAAABsABwBeAAAAAAAAAUAAAABQAAAAbAAAAAIAAAAAAAEAAQAAAAAAQEEAAMBAAABAQAAAyEIAAAABIAAAAAIAAAACAAAAAAA2QwCASkTw/v//9P7///j+//8S////AAAAAAEAAAAEAAAAEQAAAEhHUFNvZWlLYWt1cG9wdGFpAAAAAQAAAAwAAAAIAAwABAAIAAgAAAAIAAAAUAAAAA8AAADjgYrjgZPjgbPjgZfjgagAAAA2ACQAAAAgABwAAAAAABsAFAAAAAAAAAAAAAAAAAAAAAAAAAAAABAAAAAAAAAADAAAAAgABAA2AAAAAgAAABwAAAAcAAAAHAAAAAAAIEEAAAABaAAAAE3PAEOw////tP///wEAAAAUAAAAEAAaAAgABwAMAAAAEAAUABAAAAAAAAABHAAAAAAAoEEcAAAAAgAAAAAACgAIAAUABgAHAAoAAAAADAD//P///wQABAAEAAAACAAIAAYABwAIAAAAAAAMAA==</value>
					</parameter>
					<parameter authoringApp="PremierePro">
					<parameterid>2</parameterid>
					<name></name>
					<IsTimeVarying>false</IsTimeVarying>
					<ParameterControlType>11</ParameterControlType>
					<LowerBound>false</LowerBound>
					<UpperBound>false</UpperBound>
					<value>-91445760000000000,false,0,0,0,0,0,0</value>
					</parameter>
					<parameter authoringApp="PremierePro">
					<parameterid>3</parameterid>
					<name></name>
					<IsTimeVarying>false</IsTimeVarying>
					<value>-91445760000000000,0.5:0.5,0,0,0,0,0,0,5,4,0,0,0,0</value>
					</parameter>
					<parameter authoringApp="PremierePro">
					<parameterid>4</parameterid>
					<name></name>
					<IsTimeVarying>false</IsTimeVarying>
					<ParameterControlType>2</ParameterControlType>
					<LowerBound>0</LowerBound>
					<UpperBound>4000</UpperBound>
					<value>-91445760000000000,100.,0,0,0,0,0,0</value>
					</parameter>
					<parameter authoringApp="PremierePro">
					<parameterid>8</parameterid>
					<name></name>
					<IsTimeVarying>false</IsTimeVarying>
					<ParameterControlType>2</ParameterControlType>
					<LowerBound>0</LowerBound>
					<UpperBound>100</UpperBound>
					<value>-91445760000000000,100.,0,0,0,0,0,0</value>
					</parameter>
					</effect>
					</filter>
					<logginginfo>
					<description></description>
					<scene></scene>
					<shottake></shottake>
					<lognote></lognote>
					<good></good>
					<originalvideofilename></originalvideofilename>
					<originalaudiofilename></originalaudiofilename>
					</logginginfo>
					<colorinfo>
					<lut></lut>
					<lut1></lut1>
					<asc_sop></asc_sop>
					<asc_sat></asc_sat>
					<lut2></lut2>
					</colorinfo>
					<labels>
					</labels>
					</clipitem>
					<clipitem frameBlend="FALSE" id="clipitem-112">
					<masterclipid>masterclip-32</masterclipid>
					<name></name>
					<enabled>TRUE</enabled>
					<duration>2582774</duration>
					<rate>
					
					                                    <timebase>60</timebase>
					                                    <ntsc>TRUE</ntsc>
					                                
					</rate>
					<start>5998</start>
					<end>6118</end>
					<in>5998</in>
					<out>6118</out>
					<pproTicksIn>914456774963789</pproTicksIn>
					<pproTicksOut>914677708529577</pproTicksOut>
					<alphatype>straight</alphatype>
					<pixelaspectratio>square</pixelaspectratio>
					<anamorphic>FALSE</anamorphic>
					<file id="file-31">
					<name></name>
					<mediaSource>GraphicAndType</mediaSource>
					<rate>
					<timebase>60</timebase>
					<ntsc>TRUE</ntsc>
					</rate>
					<timecode>
					<rate>
					<timebase>60</timebase>
					<ntsc>TRUE</ntsc>
					</rate>
					<string>00:00:00:00</string>
					<frame>0</frame>
					<displayformat>NDF</displayformat>
					</timecode>
					<media>
					<video>
					<samplecharacteristics>
					<rate>
					<timebase>60</timebase>
					<ntsc>TRUE</ntsc>
					</rate>
					<width>1080</width>
					<height>1920</height>
					<anamorphic>FALSE</anamorphic>
					<pixelaspectratio>square</pixelaspectratio>
					<fielddominance>none</fielddominance>
					</samplecharacteristics>
					</video>
					</media>
					</file>
					<filter>
					<effect>
					<name></name>
					<effectid>GraphicAndType</effectid>
					<effectcategory>graphic</effectcategory>
					<effecttype>filter</effecttype>
					<mediatype>video</mediatype>
					<pproBypass>false</pproBypass>
					<parameter authoringApp="PremierePro">
					<parameterid>1</parameterid>
					<name></name>
					<hash>025b1101-ead6-0ca2-1feb-caf3000001fc</hash>
					<value>5AEAAAAAAABEMyIRDAAAAAAABgAKAAQABgAAAGQAAAAAAF4ASAAQAAwARABAADwAOAAAAAAAAAAAADQAMwAsAAAAKAAkACAAAAAAAAAAAAAAAAAAHAAAAAAAGgAAAAAAAAAUAAAAAAAAAAAAAAAAAAAAAAAAAAgAAAAAABsABwBeAAAAAAAAAUAAAABQAAAAbAAAAAIAAAAAAAEAAQAAAAAAQEEAAMBAAABAQAAAyEIAAAABIAAAAAIAAAACAAAAAAA2QwCASkTw/v//9P7///j+//8S////AAAAAAEAAAAEAAAAEQAAAEhHUFNvZWlLYWt1cG9wdGFpAAAAAQAAAAwAAAAIAAwABAAIAAgAAAAIAAAAUAAAAA8AAADjgYrjgZPjgbPjgaDjga0AAAA2ACQAAAAgABwAAAAAABsAFAAAAAAAAAAAAAAAAAAAAAAAAAAAABAAAAAAAAAADAAAAAgABAA2AAAAAgAAABwAAAAcAAAAHAAAAAAAIEEAAAABaAAAAE3PAEOw////tP///wEAAAAUAAAAEAAaAAgABwAMAAAAEAAUABAAAAAAAAABHAAAAAAAoEEcAAAAAgAAAAAACgAIAAUABgAHAAoAAAAADAD//P///wQABAAEAAAACAAIAAYABwAIAAAAAAAMAA==</value>
					</parameter>
					<parameter authoringApp="PremierePro">
					<parameterid>2</parameterid>
					<name></name>
					<IsTimeVarying>false</IsTimeVarying>
					<ParameterControlType>11</ParameterControlType>
					<LowerBound>false</LowerBound>
					<UpperBound>false</UpperBound>
					<value>-91445760000000000,false,0,0,0,0,0,0</value>
					</parameter>
					<parameter authoringApp="PremierePro">
					<parameterid>3</parameterid>
					<name></name>
					<IsTimeVarying>false</IsTimeVarying>
					<value>-91445760000000000,0.5:0.5,0,0,0,0,0,0,5,4,0,0,0,0</value>
					</parameter>
					<parameter authoringApp="PremierePro">
					<parameterid>4</parameterid>
					<name></name>
					<IsTimeVarying>false</IsTimeVarying>
					<ParameterControlType>2</ParameterControlType>
					<LowerBound>0</LowerBound>
					<UpperBound>4000</UpperBound>
					<value>-91445760000000000,100.,0,0,0,0,0,0</value>
					</parameter>
					<parameter authoringApp="PremierePro">
					<parameterid>8</parameterid>
					<name></name>
					<IsTimeVarying>false</IsTimeVarying>
					<ParameterControlType>2</ParameterControlType>
					<LowerBound>0</LowerBound>
					<UpperBound>100</UpperBound>
					<value>-91445760000000000,100.,0,0,0,0,0,0</value>
					</parameter>
					</effect>
					</filter>
					<logginginfo>
					<description></description>
					<scene></scene>
					<shottake></shottake>
					<lognote></lognote>
					<good></good>
					<originalvideofilename></originalvideofilename>
					<originalaudiofilename></originalaudiofilename>
					</logginginfo>
					<colorinfo>
					<lut></lut>
					<lut1></lut1>
					<asc_sop></asc_sop>
					<asc_sat></asc_sat>
					<lut2></lut2>
					</colorinfo>
					<labels>
					</labels>
					</clipitem>
					<clipitem frameBlend="FALSE" id="clipitem-113">
					<masterclipid>masterclip-33</masterclipid>
					<name></name>
					<enabled>TRUE</enabled>
					<duration>2582774</duration>
					<rate>
					
					                                    <timebase>60</timebase>
					                                    <ntsc>TRUE</ntsc>
					                                
					</rate>
					<start>6118</start>
					<end>6298</end>
					<in>6118</in>
					<out>6298</out>
					<pproTicksIn>914456774963789</pproTicksIn>
					<pproTicksOut>914677708529577</pproTicksOut>
					<alphatype>straight</alphatype>
					<pixelaspectratio>square</pixelaspectratio>
					<anamorphic>FALSE</anamorphic>
					<file id="file-32">
					<name></name>
					<mediaSource>GraphicAndType</mediaSource>
					<rate>
					<timebase>60</timebase>
					<ntsc>TRUE</ntsc>
					</rate>
					<timecode>
					<rate>
					<timebase>60</timebase>
					<ntsc>TRUE</ntsc>
					</rate>
					<string>00:00:00:00</string>
					<frame>0</frame>
					<displayformat>NDF</displayformat>
					</timecode>
					<media>
					<video>
					<samplecharacteristics>
					<rate>
					<timebase>60</timebase>
					<ntsc>TRUE</ntsc>
					</rate>
					<width>1080</width>
					<height>1920</height>
					<anamorphic>FALSE</anamorphic>
					<pixelaspectratio>square</pixelaspectratio>
					<fielddominance>none</fielddominance>
					</samplecharacteristics>
					</video>
					</media>
					</file>
					<filter>
					<effect>
					<name>  ?</name>
					<effectid>GraphicAndType</effectid>
					<effectcategory>graphic</effectcategory>
					<effecttype>filter</effecttype>
					<mediatype>video</mediatype>
					<pproBypass>false</pproBypass>
					<parameter authoringApp="PremierePro">
					<parameterid>1</parameterid>
					<name></name>
					<hash>025b1101-ead6-0ca2-1feb-caf3000001fc</hash>
					<value>5AEAAAAAAABEMyIRDAAAAAAABgAKAAQABgAAAGQAAAAAAF4ASAAQAAwARABAADwAOAAAAAAAAAAAADQAMwAsAAAAKAAkACAAAAAAAAAAAAAAAAAAHAAAAAAAGgAAAAAAAAAUAAAAAAAAAAAAAAAAAAAAAAAAAAgAAAAAABsABwBeAAAAAAAAAUAAAABQAAAAbAAAAAIAAAAAAAEAAQAAAAAAQEEAAMBAAABAQAAAyEIAAAABIAAAAAIAAAACAAAAAAA2QwCASkTw/v//9P7///j+//8S////AAAAAAEAAAAEAAAAEQAAAEhHUFNvZWlLYWt1cG9wdGFpAAAAAQAAAAwAAAAIAAwABAAIAAgAAAAIAAAAUAAAAA0AAADjgZPjgozntZDmp4sggpMAAAA2ACQAAAAgABwAAAAAABsAFAAAAAAAAAAAAAAAAAAAAAAAAAAAABAAAAAAAAAADAAAAAgABAA2AAAAAgAAABwAAAAcAAAAHAAAAAAAIEEAAAABaAAAAE3PAEOw////tP///wEAAAAUAAAAEAAaAAgABwAMAAAAEAAUABAAAAAAAAABHAAAAAAAoEEcAAAAAgAAAAAACgAIAAUABgAHAAoAAAAADAD//P///wQABAAEAAAACAAIAAYABwAIAAAAAAAMAA==</value>
					</parameter>
					<parameter authoringApp="PremierePro">
					<parameterid>2</parameterid>
					<name></name>
					<IsTimeVarying>false</IsTimeVarying>
					<ParameterControlType>11</ParameterControlType>
					<LowerBound>false</LowerBound>
					<UpperBound>false</UpperBound>
					<value>-91445760000000000,false,0,0,0,0,0,0</value>
					</parameter>
					<parameter authoringApp="PremierePro">
					<parameterid>3</parameterid>
					<name></name>
					<IsTimeVarying>false</IsTimeVarying>
					<value>-91445760000000000,0.5:0.5,0,0,0,0,0,0,5,4,0,0,0,0</value>
					</parameter>
					<parameter authoringApp="PremierePro">
					<parameterid>4</parameterid>
					<name></name>
					<IsTimeVarying>false</IsTimeVarying>
					<ParameterControlType>2</ParameterControlType>
					<LowerBound>0</LowerBound>
					<UpperBound>4000</UpperBound>
					<value>-91445760000000000,100.,0,0,0,0,0,0</value>
					</parameter>
					<parameter authoringApp="PremierePro">
					<parameterid>8</parameterid>
					<name></name>
					<IsTimeVarying>false</IsTimeVarying>
					<ParameterControlType>2</ParameterControlType>
					<LowerBound>0</LowerBound>
					<UpperBound>100</UpperBound>
					<value>-91445760000000000,100.,0,0,0,0,0,0</value>
					</parameter>
					</effect>
					</filter>
					<logginginfo>
					<description></description>
					<scene></scene>
					<shottake></shottake>
					<lognote></lognote>
					<good></good>
					<originalvideofilename></originalvideofilename>
					<originalaudiofilename></originalaudiofilename>
					</logginginfo>
					<colorinfo>
					<lut></lut>
					<lut1></lut1>
					<asc_sop></asc_sop>
					<asc_sat></asc_sat>
					<lut2></lut2>
					</colorinfo>
					<labels>
					</labels>
					</clipitem>
					<clipitem frameBlend="FALSE" id="clipitem-114">
					<masterclipid>masterclip-34</masterclipid>
					<name></name>
					<enabled>TRUE</enabled>
					<duration>2582774</duration>
					<rate>
					
					                                    <timebase>60</timebase>
					                                    <ntsc>TRUE</ntsc>
					                                
					</rate>
					<start>6298</start>
					<end>6418</end>
					<in>6298</in>
					<out>6418</out>
					<pproTicksIn>914456774963789</pproTicksIn>
					<pproTicksOut>914677708529577</pproTicksOut>
					<alphatype>straight</alphatype>
					<pixelaspectratio>square</pixelaspectratio>
					<anamorphic>FALSE</anamorphic>
					<file id="file-33">
					<name></name>
					<mediaSource>GraphicAndType</mediaSource>
					<rate>
					<timebase>60</timebase>
					<ntsc>TRUE</ntsc>
					</rate>
					<timecode>
					<rate>
					<timebase>60</timebase>
					<ntsc>TRUE</ntsc>
					</rate>
					<string>00:00:00:00</string>
					<frame>0</frame>
					<displayformat>NDF</displayformat>
					</timecode>
					<media>
					<video>
					<samplecharacteristics>
					<rate>
					<timebase>60</timebase>
					<ntsc>TRUE</ntsc>
					</rate>
					<width>1080</width>
					<height>1920</height>
					<anamorphic>FALSE</anamorphic>
					<pixelaspectratio>square</pixelaspectratio>
					<fielddominance>none</fielddominance>
					</samplecharacteristics>
					</video>
					</media>
					</file>
					<filter>
					<effect>
					<name> </name>
					<effectid>GraphicAndType</effectid>
					<effectcategory>graphic</effectcategory>
					<effecttype>filter</effecttype>
					<mediatype>video</mediatype>
					<pproBypass>false</pproBypass>
					<parameter authoringApp="PremierePro">
					<parameterid>1</parameterid>
					<name></name>
					<hash>025b1101-ead6-0ca2-1feb-caf3000001fc</hash>
					<value>5AEAAAAAAABEMyIRDAAAAAAABgAKAAQABgAAAGQAAAAAAF4ASAAQAAwARABAADwAOAAAAAAAAAAAADQAMwAsAAAAKAAkACAAAAAAAAAAAAAAAAAAHAAAAAAAGgAAAAAAAAAUAAAAAAAAAAAAAAAAAAAAAAAAAAgAAAAAABsABwBeAAAAAAAAAUAAAABQAAAAbAAAAAIAAAAAAAEAAQAAAAAAQEEAAMBAAABAQAAAyEIAAAABIAAAAAIAAAACAAAAAAA2QwCASkTw/v//9P7///j+//8S////AAAAAAEAAAAEAAAAEQAAAEhHUFNvZWlLYWt1cG9wdGFpAAAAAQAAAAwAAAAIAAwABAAIAAgAAAAIAAAAUAAAAA0AAADlhajnhLYg44K544O8gpMAAAA2ACQAAAAgABwAAAAAABsAFAAAAAAAAAAAAAAAAAAAAAAAAAAAABAAAAAAAAAADAAAAAgABAA2AAAAAgAAABwAAAAcAAAAHAAAAAAAIEEAAAABaAAAAE3PAEOw////tP///wEAAAAUAAAAEAAaAAgABwAMAAAAEAAUABAAAAAAAAABHAAAAAAAoEEcAAAAAgAAAAAACgAIAAUABgAHAAoAAAAADAD//P///wQABAAEAAAACAAIAAYABwAIAAAAAAAMAA==</value>
					</parameter>
					<parameter authoringApp="PremierePro">
					<parameterid>2</parameterid>
					<name></name>
					<IsTimeVarying>false</IsTimeVarying>
					<ParameterControlType>11</ParameterControlType>
					<LowerBound>false</LowerBound>
					<UpperBound>false</UpperBound>
					<value>-91445760000000000,false,0,0,0,0,0,0</value>
					</parameter>
					<parameter authoringApp="PremierePro">
					<parameterid>3</parameterid>
					<name></name>
					<IsTimeVarying>false</IsTimeVarying>
					<value>-91445760000000000,0.5:0.5,0,0,0,0,0,0,5,4,0,0,0,0</value>
					</parameter>
					<parameter authoringApp="PremierePro">
					<parameterid>4</parameterid>
					<name></name>
					<IsTimeVarying>false</IsTimeVarying>
					<ParameterControlType>2</ParameterControlType>
					<LowerBound>0</LowerBound>
					<UpperBound>4000</UpperBound>
					<value>-91445760000000000,100.,0,0,0,0,0,0</value>
					</parameter>
					<parameter authoringApp="PremierePro">
					<parameterid>8</parameterid>
					<name></name>
					<IsTimeVarying>false</IsTimeVarying>
					<ParameterControlType>2</ParameterControlType>
					<LowerBound>0</LowerBound>
					<UpperBound>100</UpperBound>
					<value>-91445760000000000,100.,0,0,0,0,0,0</value>
					</parameter>
					</effect>
					</filter>
					<logginginfo>
					<description></description>
					<scene></scene>
					<shottake></shottake>
					<lognote></lognote>
					<good></good>
					<originalvideofilename></originalvideofilename>
					<originalaudiofilename></originalaudiofilename>
					</logginginfo>
					<colorinfo>
					<lut></lut>
					<lut1></lut1>
					<asc_sop></asc_sop>
					<asc_sat></asc_sat>
					<lut2></lut2>
					</colorinfo>
					<labels>
					</labels>
					</clipitem>
					<clipitem frameBlend="FALSE" id="clipitem-115">
					<masterclipid>masterclip-35</masterclipid>
					<name></name>
					<enabled>TRUE</enabled>
					<duration>2582774</duration>
					<rate>
					
					                                    <timebase>60</timebase>
					                                    <ntsc>TRUE</ntsc>
					                                
					</rate>
					<start>6418</start>
					<end>6538</end>
					<in>6418</in>
					<out>6538</out>
					<pproTicksIn>914456774963789</pproTicksIn>
					<pproTicksOut>914677708529577</pproTicksOut>
					<alphatype>straight</alphatype>
					<pixelaspectratio>square</pixelaspectratio>
					<anamorphic>FALSE</anamorphic>
					<file id="file-34">
					<name></name>
					<mediaSource>GraphicAndType</mediaSource>
					<rate>
					<timebase>60</timebase>
					<ntsc>TRUE</ntsc>
					</rate>
					<timecode>
					<rate>
					<timebase>60</timebase>
					<ntsc>TRUE</ntsc>
					</rate>
					<string>00:00:00:00</string>
					<frame>0</frame>
					<displayformat>NDF</displayformat>
					</timecode>
					<media>
					<video>
					<samplecharacteristics>
					<rate>
					<timebase>60</timebase>
					<ntsc>TRUE</ntsc>
					</rate>
					<width>1080</width>
					<height>1920</height>
					<anamorphic>FALSE</anamorphic>
					<pixelaspectratio>square</pixelaspectratio>
					<fielddominance>none</fielddominance>
					</samplecharacteristics>
					</video>
					</media>
					</file>
					<filter>
					<effect>
					<name></name>
					<effectid>GraphicAndType</effectid>
					<effectcategory>graphic</effectcategory>
					<effecttype>filter</effecttype>
					<mediatype>video</mediatype>
					<pproBypass>false</pproBypass>
					<parameter authoringApp="PremierePro">
					<parameterid>1</parameterid>
					<name></name>
					<hash>025b1101-ead6-0ca2-1feb-caf3000001fc</hash>
					<value>5AEAAAAAAABEMyIRDAAAAAAABgAKAAQABgAAAGQAAAAAAF4ASAAQAAwARABAADwAOAAAAAAAAAAAADQAMwAsAAAAKAAkACAAAAAAAAAAAAAAAAAAHAAAAAAAGgAAAAAAAAAUAAAAAAAAAAAAAAAAAAAAAAAAAAgAAAAAABsABwBeAAAAAAAAAUAAAABQAAAAbAAAAAIAAAAAAAEAAQAAAAAAQEEAAMBAAABAQAAAyEIAAAABIAAAAAIAAAACAAAAAAA2QwCASkTw/v//9P7///j+//8S////AAAAAAEAAAAEAAAAEQAAAEhHUFNvZWlLYWt1cG9wdGFpAAAAAQAAAAwAAAAIAAwABAAIAAgAAAAIAAAAUAAAAA8AAADjgrnjg7zjg5Hjg7zjgacAAAA2ACQAAAAgABwAAAAAABsAFAAAAAAAAAAAAAAAAAAAAAAAAAAAABAAAAAAAAAADAAAAAgABAA2AAAAAgAAABwAAAAcAAAAHAAAAAAAIEEAAAABaAAAAE3PAEOw////tP///wEAAAAUAAAAEAAaAAgABwAMAAAAEAAUABAAAAAAAAABHAAAAAAAoEEcAAAAAgAAAAAACgAIAAUABgAHAAoAAAAADAD//P///wQABAAEAAAACAAIAAYABwAIAAAAAAAMAA==</value>
					</parameter>
					<parameter authoringApp="PremierePro">
					<parameterid>2</parameterid>
					<name></name>
					<IsTimeVarying>false</IsTimeVarying>
					<ParameterControlType>11</ParameterControlType>
					<LowerBound>false</LowerBound>
					<UpperBound>false</UpperBound>
					<value>-91445760000000000,false,0,0,0,0,0,0</value>
					</parameter>
					<parameter authoringApp="PremierePro">
					<parameterid>3</parameterid>
					<name></name>
					<IsTimeVarying>false</IsTimeVarying>
					<value>-91445760000000000,0.5:0.5,0,0,0,0,0,0,5,4,0,0,0,0</value>
					</parameter>
					<parameter authoringApp="PremierePro">
					<parameterid>4</parameterid>
					<name></name>
					<IsTimeVarying>false</IsTimeVarying>
					<ParameterControlType>2</ParameterControlType>
					<LowerBound>0</LowerBound>
					<UpperBound>4000</UpperBound>
					<value>-91445760000000000,100.,0,0,0,0,0,0</value>
					</parameter>
					<parameter authoringApp="PremierePro">
					<parameterid>8</parameterid>
					<name></name>
					<IsTimeVarying>false</IsTimeVarying>
					<ParameterControlType>2</ParameterControlType>
					<LowerBound>0</LowerBound>
					<UpperBound>100</UpperBound>
					<value>-91445760000000000,100.,0,0,0,0,0,0</value>
					</parameter>
					</effect>
					</filter>
					<logginginfo>
					<description></description>
					<scene></scene>
					<shottake></shottake>
					<lognote></lognote>
					<good></good>
					<originalvideofilename></originalvideofilename>
					<originalaudiofilename></originalaudiofilename>
					</logginginfo>
					<colorinfo>
					<lut></lut>
					<lut1></lut1>
					<asc_sop></asc_sop>
					<asc_sat></asc_sat>
					<lut2></lut2>
					</colorinfo>
					<labels>
					</labels>
					</clipitem>
					<clipitem frameBlend="FALSE" id="clipitem-116">
					<masterclipid>masterclip-36</masterclipid>
					<name></name>
					<enabled>TRUE</enabled>
					<duration>2582774</duration>
					<rate>
					
					                                    <timebase>60</timebase>
					                                    <ntsc>TRUE</ntsc>
					                                
					</rate>
					<start>6538</start>
					<end>6718</end>
					<in>6538</in>
					<out>6718</out>
					<pproTicksIn>914456774963789</pproTicksIn>
					<pproTicksOut>914677708529577</pproTicksOut>
					<alphatype>straight</alphatype>
					<pixelaspectratio>square</pixelaspectratio>
					<anamorphic>FALSE</anamorphic>
					<file id="file-35">
					<name></name>
					<mediaSource>GraphicAndType</mediaSource>
					<rate>
					<timebase>60</timebase>
					<ntsc>TRUE</ntsc>
					</rate>
					<timecode>
					<rate>
					<timebase>60</timebase>
					<ntsc>TRUE</ntsc>
					</rate>
					<string>00:00:00:00</string>
					<frame>0</frame>
					<displayformat>NDF</displayformat>
					</timecode>
					<media>
					<video>
					<samplecharacteristics>
					<rate>
					<timebase>60</timebase>
					<ntsc>TRUE</ntsc>
					</rate>
					<width>1080</width>
					<height>1920</height>
					<anamorphic>FALSE</anamorphic>
					<pixelaspectratio>square</pixelaspectratio>
					<fielddominance>none</fielddominance>
					</samplecharacteristics>
					</video>
					</media>
					</file>
					<filter>
					<effect>
					<name></name>
					<effectid>GraphicAndType</effectid>
					<effectcategory>graphic</effectcategory>
					<effecttype>filter</effecttype>
					<mediatype>video</mediatype>
					<pproBypass>false</pproBypass>
					<parameter authoringApp="PremierePro">
					<parameterid>1</parameterid>
					<name></name>
					<hash>025b1101-ead6-0ca2-1feb-caf3000001fc</hash>
					<value>5AEAAAAAAABEMyIRDAAAAAAABgAKAAQABgAAAGQAAAAAAF4ASAAQAAwARABAADwAOAAAAAAAAAAAADQAMwAsAAAAKAAkACAAAAAAAAAAAAAAAAAAHAAAAAAAGgAAAAAAAAAUAAAAAAAAAAAAAAAAAAAAAAAAAAgAAAAAABsABwBeAAAAAAAAAUAAAABQAAAAbAAAAAIAAAAAAAEAAQAAAAAAQEEAAMBAAABAQAAAyEIAAAABIAAAAAIAAAACAAAAAAA2QwCASkTw/v//9P7///j+//8S////AAAAAAEAAAAEAAAAEQAAAEhHUFNvZWlLYWt1cG9wdGFpAAAAAQAAAAwAAAAIAAwABAAIAAgAAAAIAAAAUAAAAA8AAADjgrnjg7zjg5Hjg7zjgacAAAA2ACQAAAAgABwAAAAAABsAFAAAAAAAAAAAAAAAAAAAAAAAAAAAABAAAAAAAAAADAAAAAgABAA2AAAAAgAAABwAAAAcAAAAHAAAAAAAIEEAAAABaAAAAE3PAEOw////tP///wEAAAAUAAAAEAAaAAgABwAMAAAAEAAUABAAAAAAAAABHAAAAAAAoEEcAAAAAgAAAAAACgAIAAUABgAHAAoAAAAADAD//P///wQABAAEAAAACAAIAAYABwAIAAAAAAAMAA==</value>
					</parameter>
					<parameter authoringApp="PremierePro">
					<parameterid>2</parameterid>
					<name></name>
					<IsTimeVarying>false</IsTimeVarying>
					<ParameterControlType>11</ParameterControlType>
					<LowerBound>false</LowerBound>
					<UpperBound>false</UpperBound>
					<value>-91445760000000000,false,0,0,0,0,0,0</value>
					</parameter>
					<parameter authoringApp="PremierePro">
					<parameterid>3</parameterid>
					<name></name>
					<IsTimeVarying>false</IsTimeVarying>
					<value>-91445760000000000,0.5:0.5,0,0,0,0,0,0,5,4,0,0,0,0</value>
					</parameter>
					<parameter authoringApp="PremierePro">
					<parameterid>4</parameterid>
					<name></name>
					<IsTimeVarying>false</IsTimeVarying>
					<ParameterControlType>2</ParameterControlType>
					<LowerBound>0</LowerBound>
					<UpperBound>4000</UpperBound>
					<value>-91445760000000000,100.,0,0,0,0,0,0</value>
					</parameter>
					<parameter authoringApp="PremierePro">
					<parameterid>8</parameterid>
					<name></name>
					<IsTimeVarying>false</IsTimeVarying>
					<ParameterControlType>2</ParameterControlType>
					<LowerBound>0</LowerBound>
					<UpperBound>100</UpperBound>
					<value>-91445760000000000,100.,0,0,0,0,0,0</value>
					</parameter>
					</effect>
					</filter>
					<logginginfo>
					<description></description>
					<scene></scene>
					<shottake></shottake>
					<lognote></lognote>
					<good></good>
					<originalvideofilename></originalvideofilename>
					<originalaudiofilename></originalaudiofilename>
					</logginginfo>
					<colorinfo>
					<lut></lut>
					<lut1></lut1>
					<asc_sop></asc_sop>
					<asc_sat></asc_sat>
					<lut2></lut2>
					</colorinfo>
					<labels>
					</labels>
					</clipitem>
					<clipitem frameBlend="FALSE" id="clipitem-117">
					<masterclipid>masterclip-37</masterclipid>
					<name></name>
					<enabled>TRUE</enabled>
					<duration>2582774</duration>
					<rate>
					
					                                    <timebase>60</timebase>
					                                    <ntsc>TRUE</ntsc>
					                                
					</rate>
					<start>6718</start>
					<end>6898</end>
					<in>6718</in>
					<out>6898</out>
					<pproTicksIn>914456774963789</pproTicksIn>
					<pproTicksOut>914677708529577</pproTicksOut>
					<alphatype>straight</alphatype>
					<pixelaspectratio>square</pixelaspectratio>
					<anamorphic>FALSE</anamorphic>
					<file id="file-36">
					<name></name>
					<mediaSource>GraphicAndType</mediaSource>
					<rate>
					<timebase>60</timebase>
					<ntsc>TRUE</ntsc>
					</rate>
					<timecode>
					<rate>
					<timebase>60</timebase>
					<ntsc>TRUE</ntsc>
					</rate>
					<string>00:00:00:00</string>
					<frame>0</frame>
					<displayformat>NDF</displayformat>
					</timecode>
					<media>
					<video>
					<samplecharacteristics>
					<rate>
					<timebase>60</timebase>
					<ntsc>TRUE</ntsc>
					</rate>
					<width>1080</width>
					<height>1920</height>
					<anamorphic>FALSE</anamorphic>
					<pixelaspectratio>square</pixelaspectratio>
					<fielddominance>none</fielddominance>
					</samplecharacteristics>
					</video>
					</media>
					</file>
					<filter>
					<effect>
					<name></name>
					<effectid>GraphicAndType</effectid>
					<effectcategory>graphic</effectcategory>
					<effecttype>filter</effecttype>
					<mediatype>video</mediatype>
					<pproBypass>false</pproBypass>
					<parameter authoringApp="PremierePro">
					<parameterid>1</parameterid>
					<name></name>
					<hash>025b1101-ead6-0ca2-1feb-caf3000001fc</hash>
					<value>5AEAAAAAAABEMyIRDAAAAAAABgAKAAQABgAAAGQAAAAAAF4ASAAQAAwARABAADwAOAAAAAAAAAAAADQAMwAsAAAAKAAkACAAAAAAAAAAAAAAAAAAHAAAAAAAGgAAAAAAAAAUAAAAAAAAAAAAAAAAAAAAAAAAAAgAAAAAABsABwBeAAAAAAAAAUAAAABQAAAAbAAAAAIAAAAAAAEAAQAAAAAAQEEAAMBAAABAQAAAyEIAAAABIAAAAAIAAAACAAAAAAA2QwCASkTw/v//9P7///j+//8S////AAAAAAEAAAAEAAAAEQAAAEhHUFNvZWlLYWt1cG9wdGFpAAAAAQAAAAwAAAAIAAwABAAIAAgAAAAIAAAAUAAAAA8AAADjgrnjg7zjg5Hjg7zjgYwAAAA2ACQAAAAgABwAAAAAABsAFAAAAAAAAAAAAAAAAAAAAAAAAAAAABAAAAAAAAAADAAAAAgABAA2AAAAAgAAABwAAAAcAAAAHAAAAAAAIEEAAAABaAAAAE3PAEOw////tP///wEAAAAUAAAAEAAaAAgABwAMAAAAEAAUABAAAAAAAAABHAAAAAAAoEEcAAAAAgAAAAAACgAIAAUABgAHAAoAAAAADAD//P///wQABAAEAAAACAAIAAYABwAIAAAAAAAMAA==</value>
					</parameter>
					<parameter authoringApp="PremierePro">
					<parameterid>2</parameterid>
					<name></name>
					<IsTimeVarying>false</IsTimeVarying>
					<ParameterControlType>11</ParameterControlType>
					<LowerBound>false</LowerBound>
					<UpperBound>false</UpperBound>
					<value>-91445760000000000,false,0,0,0,0,0,0</value>
					</parameter>
					<parameter authoringApp="PremierePro">
					<parameterid>3</parameterid>
					<name></name>
					<IsTimeVarying>false</IsTimeVarying>
					<value>-91445760000000000,0.5:0.5,0,0,0,0,0,0,5,4,0,0,0,0</value>
					</parameter>
					<parameter authoringApp="PremierePro">
					<parameterid>4</parameterid>
					<name></name>
					<IsTimeVarying>false</IsTimeVarying>
					<ParameterControlType>2</ParameterControlType>
					<LowerBound>0</LowerBound>
					<UpperBound>4000</UpperBound>
					<value>-91445760000000000,100.,0,0,0,0,0,0</value>
					</parameter>
					<parameter authoringApp="PremierePro">
					<parameterid>8</parameterid>
					<name></name>
					<IsTimeVarying>false</IsTimeVarying>
					<ParameterControlType>2</ParameterControlType>
					<LowerBound>0</LowerBound>
					<UpperBound>100</UpperBound>
					<value>-91445760000000000,100.,0,0,0,0,0,0</value>
					</parameter>
					</effect>
					</filter>
					<logginginfo>
					<description></description>
					<scene></scene>
					<shottake></shottake>
					<lognote></lognote>
					<good></good>
					<originalvideofilename></originalvideofilename>
					<originalaudiofilename></originalaudiofilename>
					</logginginfo>
					<colorinfo>
					<lut></lut>
					<lut1></lut1>
					<asc_sop></asc_sop>
					<asc_sat></asc_sat>
					<lut2></lut2>
					</colorinfo>
					<labels>
					</labels>
					</clipitem>
					<clipitem frameBlend="FALSE" id="clipitem-118">
					<masterclipid>masterclip-38</masterclipid>
					<name></name>
					<enabled>TRUE</enabled>
					<duration>2582774</duration>
					<rate>
					
					                                    <timebase>60</timebase>
					                                    <ntsc>TRUE</ntsc>
					                                
					</rate>
					<start>6898</start>
					<end>7018</end>
					<in>6898</in>
					<out>7018</out>
					<pproTicksIn>914456774963789</pproTicksIn>
					<pproTicksOut>914677708529577</pproTicksOut>
					<alphatype>straight</alphatype>
					<pixelaspectratio>square</pixelaspectratio>
					<anamorphic>FALSE</anamorphic>
					<file id="file-37">
					<name></name>
					<mediaSource>GraphicAndType</mediaSource>
					<rate>
					<timebase>60</timebase>
					<ntsc>TRUE</ntsc>
					</rate>
					<timecode>
					<rate>
					<timebase>60</timebase>
					<ntsc>TRUE</ntsc>
					</rate>
					<string>00:00:00:00</string>
					<frame>0</frame>
					<displayformat>NDF</displayformat>
					</timecode>
					<media>
					<video>
					<samplecharacteristics>
					<rate>
					<timebase>60</timebase>
					<ntsc>TRUE</ntsc>
					</rate>
					<width>1080</width>
					<height>1920</height>
					<anamorphic>FALSE</anamorphic>
					<pixelaspectratio>square</pixelaspectratio>
					<fielddominance>none</fielddominance>
					</samplecharacteristics>
					</video>
					</media>
					</file>
					<filter>
					<effect>
					<name></name>
					<effectid>GraphicAndType</effectid>
					<effectcategory>graphic</effectcategory>
					<effecttype>filter</effecttype>
					<mediatype>video</mediatype>
					<pproBypass>false</pproBypass>
					<parameter authoringApp="PremierePro">
					<parameterid>1</parameterid>
					<name></name>
					<hash>025b1101-ead6-0ca2-1feb-caf3000001fc</hash>
					<value>5AEAAAAAAABEMyIRDAAAAAAABgAKAAQABgAAAGQAAAAAAF4ASAAQAAwARABAADwAOAAAAAAAAAAAADQAMwAsAAAAKAAkACAAAAAAAAAAAAAAAAAAHAAAAAAAGgAAAAAAAAAUAAAAAAAAAAAAAAAAAAAAAAAAAAgAAAAAABsABwBeAAAAAAAAAUAAAABQAAAAbAAAAAIAAAAAAAEAAQAAAAAAQEEAAMBAAABAQAAAyEIAAAABIAAAAAIAAAACAAAAAAA2QwCASkTw/v//9P7///j+//8S////AAAAAAEAAAAEAAAAEQAAAEhHUFNvZWlLYWt1cG9wdGFpAAAAAQAAAAwAAAAIAAwABAAIAAgAAAAIAAAAUAAAAA8AAADjg5Hjg7zjga7lpKflpIkAAAA2ACQAAAAgABwAAAAAABsAFAAAAAAAAAAAAAAAAAAAAAAAAAAAABAAAAAAAAAADAAAAAgABAA2AAAAAgAAABwAAAAcAAAAHAAAAAAAIEEAAAABaAAAAE3PAEOw////tP///wEAAAAUAAAAEAAaAAgABwAMAAAAEAAUABAAAAAAAAABHAAAAAAAoEEcAAAAAgAAAAAACgAIAAUABgAHAAoAAAAADAD//P///wQABAAEAAAACAAIAAYABwAIAAAAAAAMAA==</value>
					</parameter>
					<parameter authoringApp="PremierePro">
					<parameterid>2</parameterid>
					<name></name>
					<IsTimeVarying>false</IsTimeVarying>
					<ParameterControlType>11</ParameterControlType>
					<LowerBound>false</LowerBound>
					<UpperBound>false</UpperBound>
					<value>-91445760000000000,false,0,0,0,0,0,0</value>
					</parameter>
					<parameter authoringApp="PremierePro">
					<parameterid>3</parameterid>
					<name></name>
					<IsTimeVarying>false</IsTimeVarying>
					<value>-91445760000000000,0.5:0.5,0,0,0,0,0,0,5,4,0,0,0,0</value>
					</parameter>
					<parameter authoringApp="PremierePro">
					<parameterid>4</parameterid>
					<name></name>
					<IsTimeVarying>false</IsTimeVarying>
					<ParameterControlType>2</ParameterControlType>
					<LowerBound>0</LowerBound>
					<UpperBound>4000</UpperBound>
					<value>-91445760000000000,100.,0,0,0,0,0,0</value>
					</parameter>
					<parameter authoringApp="PremierePro">
					<parameterid>8</parameterid>
					<name></name>
					<IsTimeVarying>false</IsTimeVarying>
					<ParameterControlType>2</ParameterControlType>
					<LowerBound>0</LowerBound>
					<UpperBound>100</UpperBound>
					<value>-91445760000000000,100.,0,0,0,0,0,0</value>
					</parameter>
					</effect>
					</filter>
					<logginginfo>
					<description></description>
					<scene></scene>
					<shottake></shottake>
					<lognote></lognote>
					<good></good>
					<originalvideofilename></originalvideofilename>
					<originalaudiofilename></originalaudiofilename>
					</logginginfo>
					<colorinfo>
					<lut></lut>
					<lut1></lut1>
					<asc_sop></asc_sop>
					<asc_sat></asc_sat>
					<lut2></lut2>
					</colorinfo>
					<labels>
					</labels>
					</clipitem>
					<clipitem frameBlend="FALSE" id="clipitem-119">
					<masterclipid>masterclip-39</masterclipid>
					<name></name>
					<enabled>TRUE</enabled>
					<duration>2582774</duration>
					<rate>
					
					                                    <timebase>60</timebase>
					                                    <ntsc>TRUE</ntsc>
					                                
					</rate>
					<start>7018</start>
					<end>7197</end>
					<in>7018</in>
					<out>7197</out>
					<pproTicksIn>914456774963789</pproTicksIn>
					<pproTicksOut>914677708529577</pproTicksOut>
					<alphatype>straight</alphatype>
					<pixelaspectratio>square</pixelaspectratio>
					<anamorphic>FALSE</anamorphic>
					<file id="file-38">
					<name></name>
					<mediaSource>GraphicAndType</mediaSource>
					<rate>
					<timebase>60</timebase>
					<ntsc>TRUE</ntsc>
					</rate>
					<timecode>
					<rate>
					<timebase>60</timebase>
					<ntsc>TRUE</ntsc>
					</rate>
					<string>00:00:00:00</string>
					<frame>0</frame>
					<displayformat>NDF</displayformat>
					</timecode>
					<media>
					<video>
					<samplecharacteristics>
					<rate>
					<timebase>60</timebase>
					<ntsc>TRUE</ntsc>
					</rate>
					<width>1080</width>
					<height>1920</height>
					<anamorphic>FALSE</anamorphic>
					<pixelaspectratio>square</pixelaspectratio>
					<fielddominance>none</fielddominance>
					</samplecharacteristics>
					</video>
					</media>
					</file>
					<filter>
					<effect>
					<name>1</name>
					<effectid>GraphicAndType</effectid>
					<effectcategory>graphic</effectcategory>
					<effecttype>filter</effecttype>
					<mediatype>video</mediatype>
					<pproBypass>false</pproBypass>
					<parameter authoringApp="PremierePro">
					<parameterid>1</parameterid>
					<name></name>
					<hash>025b1101-ead6-0ca2-1feb-caf3000001fc</hash>
					<value>5AEAAAAAAABEMyIRDAAAAAAABgAKAAQABgAAAGQAAAAAAF4ASAAQAAwARABAADwAOAAAAAAAAAAAADQAMwAsAAAAKAAkACAAAAAAAAAAAAAAAAAAHAAAAAAAGgAAAAAAAAAUAAAAAAAAAAAAAAAAAAAAAAAAAAgAAAAAABsABwBeAAAAAAAAAUAAAABQAAAAbAAAAAIAAAAAAAEAAQAAAAAAQEEAAMBAAABAQAAAyEIAAAABIAAAAAIAAAACAAAAAAA2QwCASkTw/v//9P7///j+//8S////AAAAAAEAAAAEAAAAEQAAAEhHUFNvZWlLYWt1cG9wdGFpAAAAAQAAAAwAAAAIAAwABAAIAAgAAAAIAAAAUAAAAA8AAADjg57jg6njgqvjgrnjgqoAAAA2ACQAAAAgABwAAAAAABsAFAAAAAAAAAAAAAAAAAAAAAAAAAAAABAAAAAAAAAADAAAAAgABAA2AAAAAgAAABwAAAAcAAAAHAAAAAAAIEEAAAABaAAAAE3PAEOw////tP///wEAAAAUAAAAEAAaAAgABwAMAAAAEAAUABAAAAAAAAABHAAAAAAAoEEcAAAAAgAAAAAACgAIAAUABgAHAAoAAAAADAD//P///wQABAAEAAAACAAIAAYABwAIAAAAAAAMAA==</value>
					</parameter>
					<parameter authoringApp="PremierePro">
					<parameterid>2</parameterid>
					<name></name>
					<IsTimeVarying>false</IsTimeVarying>
					<ParameterControlType>11</ParameterControlType>
					<LowerBound>false</LowerBound>
					<UpperBound>false</UpperBound>
					<value>-91445760000000000,false,0,0,0,0,0,0</value>
					</parameter>
					<parameter authoringApp="PremierePro">
					<parameterid>3</parameterid>
					<name></name>
					<IsTimeVarying>false</IsTimeVarying>
					<value>-91445760000000000,0.5:0.5,0,0,0,0,0,0,5,4,0,0,0,0</value>
					</parameter>
					<parameter authoringApp="PremierePro">
					<parameterid>4</parameterid>
					<name></name>
					<IsTimeVarying>false</IsTimeVarying>
					<ParameterControlType>2</ParameterControlType>
					<LowerBound>0</LowerBound>
					<UpperBound>4000</UpperBound>
					<value>-91445760000000000,100.,0,0,0,0,0,0</value>
					</parameter>
					<parameter authoringApp="PremierePro">
					<parameterid>8</parameterid>
					<name></name>
					<IsTimeVarying>false</IsTimeVarying>
					<ParameterControlType>2</ParameterControlType>
					<LowerBound>0</LowerBound>
					<UpperBound>100</UpperBound>
					<value>-91445760000000000,100.,0,0,0,0,0,0</value>
					</parameter>
					</effect>
					</filter>
					<logginginfo>
					<description></description>
					<scene></scene>
					<shottake></shottake>
					<lognote></lognote>
					<good></good>
					<originalvideofilename></originalvideofilename>
					<originalaudiofilename></originalaudiofilename>
					</logginginfo>
					<colorinfo>
					<lut></lut>
					<lut1></lut1>
					<asc_sop></asc_sop>
					<asc_sat></asc_sat>
					<lut2></lut2>
					</colorinfo>
					<labels>
					</labels>
					</clipitem>
					<enabled>TRUE</enabled>
					<locked>FALSE</locked>
				</track>
				<track TL.SQTrackShy="0" TL.SQTrackExpandedHeight="25" TL.SQTrackExpanded="0" MZ.TrackTargeted="0">
					<clipitem frameBlend="FALSE" id="clipitem-120">
					<masterclipid>masterclip-40</masterclipid>
					<name></name>
					<enabled>TRUE</enabled>
					<duration>2582774</duration>
					<rate>
					
					                                    <timebase>60</timebase>
					                                    <ntsc>TRUE</ntsc>
					                                
					</rate>
					<start>47</start>
					<end>113</end>
					<in>47</in>
					<out>113</out>
					<pproTicksIn>914456774963789</pproTicksIn>
					<pproTicksOut>914677708529577</pproTicksOut>
					<alphatype>straight</alphatype>
					<pixelaspectratio>square</pixelaspectratio>
					<anamorphic>FALSE</anamorphic>
					<file id="file-39">
					<name></name>
					<mediaSource>GraphicAndType</mediaSource>
					<rate>
					<timebase>60</timebase>
					<ntsc>TRUE</ntsc>
					</rate>
					<timecode>
					<rate>
					<timebase>60</timebase>
					<ntsc>TRUE</ntsc>
					</rate>
					<string>00:00:00:00</string>
					<frame>0</frame>
					<displayformat>NDF</displayformat>
					</timecode>
					<media>
					<video>
					<samplecharacteristics>
					<rate>
					<timebase>60</timebase>
					<ntsc>TRUE</ntsc>
					</rate>
					<width>1080</width>
					<height>1920</height>
					<anamorphic>FALSE</anamorphic>
					<pixelaspectratio>square</pixelaspectratio>
					<fielddominance>none</fielddominance>
					</samplecharacteristics>
					</video>
					</media>
					</file>
					<filter>
					<effect>
					<name></name>
					<effectid>GraphicAndType</effectid>
					<effectcategory>graphic</effectcategory>
					<effecttype>filter</effecttype>
					<mediatype>video</mediatype>
					<pproBypass>false</pproBypass>
					<parameter authoringApp="PremierePro">
					<parameterid>1</parameterid>
					<name></name>
					<hash>025b1101-ead6-0ca2-1feb-caf3000001fc</hash>
					<value>5AEAAAAAAABEMyIRDAAAAAAABgAKAAQABgAAAGQAAAAAAF4ASAAQAAwARABAADwAOAAAAAAAAAAAADQAMwAsAAAAKAAkACAAAAAAAAAAAAAAAAAAHAAAAAAAGgAAAAAAAAAUAAAAAAAAAAAAAAAAAAAAAAAAAAgAAAAAABsABwBeAAAAAAAAAUAAAABQAAAAbAAAAAIAAAAAAAEAAQAAAAAAQEEAAMBAAABAQAAAyEIAAAABIAAAAAIAAAACAAAAAAA2QwCASkTw/v//9P7///j+//8S////AAAAAAEAAAAEAAAAEQAAAEhHUFNvZWlLYWt1cG9wdGFpAAAAAQAAAAwAAAAIAAwABAAIAAgAAAAIAAAAUAAAAA8AAADvvIEAAAAAAAAAAAAAAAAAAAA2ACQAAAAgABwAAAAAABsAFAAAAAAAAAAAAAAAAAAAAAAAAAAAABAAAAAAAAAADAAAAAgABAA2AAAAAgAAABwAAAAcAAAAHAAAAAAAIEEAAAABaAAAAE3PAEOw////tP///wEAAAAUAAAAEAAaAAgABwAMAAAAEAAUABAAAAAAAAABHAAAAAAAoEEcAAAAAgAAAAAACgAIAAUABgAHAAoAAAAADAD//P///wQABAAEAAAACAAIAAYABwAIAAAAAAAMAA==</value>
					</parameter>
					<parameter authoringApp="PremierePro">
					<parameterid>2</parameterid>
					<name></name>
					<IsTimeVarying>false</IsTimeVarying>
					<ParameterControlType>11</ParameterControlType>
					<LowerBound>false</LowerBound>
					<UpperBound>false</UpperBound>
					<value>-91445760000000000,false,0,0,0,0,0,0</value>
					</parameter>
					<parameter authoringApp="PremierePro">
					<parameterid>3</parameterid>
					<name></name>
					<IsTimeVarying>false</IsTimeVarying>
					<value>-91445760000000000,0.5:0.5,0,0,0,0,0,0,5,4,0,0,0,0</value>
					</parameter>
					<parameter authoringApp="PremierePro">
					<parameterid>4</parameterid>
					<name></name>
					<IsTimeVarying>false</IsTimeVarying>
					<ParameterControlType>2</ParameterControlType>
					<LowerBound>0</LowerBound>
					<UpperBound>4000</UpperBound>
					<value>-91445760000000000,100.,0,0,0,0,0,0</value>
					</parameter>
					<parameter authoringApp="PremierePro">
					<parameterid>8</parameterid>
					<name></name>
					<IsTimeVarying>false</IsTimeVarying>
					<ParameterControlType>2</ParameterControlType>
					<LowerBound>0</LowerBound>
					<UpperBound>100</UpperBound>
					<value>-91445760000000000,100.,0,0,0,0,0,0</value>
					</parameter>
					</effect>
					</filter>
					<logginginfo>
					<description></description>
					<scene></scene>
					<shottake></shottake>
					<lognote></lognote>
					<good></good>
					<originalvideofilename></originalvideofilename>
					<originalaudiofilename></originalaudiofilename>
					</logginginfo>
					<colorinfo>
					<lut></lut>
					<lut1></lut1>
					<asc_sop></asc_sop>
					<asc_sat></asc_sat>
					<lut2></lut2>
					</colorinfo>
					<labels>
					</labels>
					</clipitem>
					<clipitem frameBlend="FALSE" id="clipitem-127">
					<masterclipid>masterclip-47</masterclipid>
					<name></name>
					<enabled>TRUE</enabled>
					<duration>2582774</duration>
					<rate>
					
					                                    <timebase>60</timebase>
					                                    <ntsc>TRUE</ntsc>
					                                
					</rate>
					<start>113</start>
					<end>173</end>
					<in>113</in>
					<out>173</out>
					<pproTicksIn>914456774963789</pproTicksIn>
					<pproTicksOut>914677708529577</pproTicksOut>
					<alphatype>straight</alphatype>
					<pixelaspectratio>square</pixelaspectratio>
					<anamorphic>FALSE</anamorphic>
					<file id="file-46">
					<name></name>
					<mediaSource>GraphicAndType</mediaSource>
					<rate>
					<timebase>60</timebase>
					<ntsc>TRUE</ntsc>
					</rate>
					<timecode>
					<rate>
					<timebase>60</timebase>
					<ntsc>TRUE</ntsc>
					</rate>
					<string>00:00:00:00</string>
					<frame>0</frame>
					<displayformat>NDF</displayformat>
					</timecode>
					<media>
					<video>
					<samplecharacteristics>
					<rate>
					<timebase>60</timebase>
					<ntsc>TRUE</ntsc>
					</rate>
					<width>1080</width>
					<height>1920</height>
					<anamorphic>FALSE</anamorphic>
					<pixelaspectratio>square</pixelaspectratio>
					<fielddominance>none</fielddominance>
					</samplecharacteristics>
					</video>
					</media>
					</file>
					<filter>
					<effect>
					<name></name>
					<effectid>GraphicAndType</effectid>
					<effectcategory>graphic</effectcategory>
					<effecttype>filter</effecttype>
					<mediatype>video</mediatype>
					<pproBypass>false</pproBypass>
					<parameter authoringApp="PremierePro">
					<parameterid>1</parameterid>
					<name></name>
					<hash>025b1101-ead6-0ca2-1feb-caf3000001fc</hash>
					<value>5AEAAAAAAABEMyIRDAAAAAAABgAKAAQABgAAAGQAAAAAAF4ASAAQAAwARABAADwAOAAAAAAAAAAAADQAMwAsAAAAKAAkACAAAAAAAAAAAAAAAAAAHAAAAAAAGgAAAAAAAAAUAAAAAAAAAAAAAAAAAAAAAAAAAAgAAAAAABsABwBeAAAAAAAAAUAAAABQAAAAbAAAAAIAAAAAAAEAAQAAAAAAQEEAAMBAAABAQAAAyEIAAAABIAAAAAIAAAACAAAAAAA2QwCASkTw/v//9P7///j+//8S////AAAAAAEAAAAEAAAAEQAAAEhHUFNvZWlLYWt1cG9wdGFpAAAAAQAAAAwAAAAIAAwABAAIAAgAAAAIAAAAUAAAAA8AAADvvIEAAAAAAAAAAAAAAAAAAAA2ACQAAAAgABwAAAAAABsAFAAAAAAAAAAAAAAAAAAAAAAAAAAAABAAAAAAAAAADAAAAAgABAA2AAAAAgAAABwAAAAcAAAAHAAAAAAAIEEAAAABaAAAAE3PAEOw////tP///wEAAAAUAAAAEAAaAAgABwAMAAAAEAAUABAAAAAAAAABHAAAAAAAoEEcAAAAAgAAAAAACgAIAAUABgAHAAoAAAAADAD//P///wQABAAEAAAACAAIAAYABwAIAAAAAAAMAA==</value>
					</parameter>
					<parameter authoringApp="PremierePro">
					<parameterid>2</parameterid>
					<name></name>
					<IsTimeVarying>false</IsTimeVarying>
					<ParameterControlType>11</ParameterControlType>
					<LowerBound>false</LowerBound>
					<UpperBound>false</UpperBound>
					<value>-91445760000000000,false,0,0,0,0,0,0</value>
					</parameter>
					<parameter authoringApp="PremierePro">
					<parameterid>3</parameterid>
					<name></name>
					<IsTimeVarying>false</IsTimeVarying>
					<value>-91445760000000000,0.5:0.5,0,0,0,0,0,0,5,4,0,0,0,0</value>
					</parameter>
					<parameter authoringApp="PremierePro">
					<parameterid>4</parameterid>
					<name></name>
					<IsTimeVarying>false</IsTimeVarying>
					<ParameterControlType>2</ParameterControlType>
					<LowerBound>0</LowerBound>
					<UpperBound>4000</UpperBound>
					<value>-91445760000000000,100.,0,0,0,0,0,0</value>
					</parameter>
					<parameter authoringApp="PremierePro">
					<parameterid>8</parameterid>
					<name></name>
					<IsTimeVarying>false</IsTimeVarying>
					<ParameterControlType>2</ParameterControlType>
					<LowerBound>0</LowerBound>
					<UpperBound>100</UpperBound>
					<value>-91445760000000000,100.,0,0,0,0,0,0</value>
					</parameter>
					</effect>
					</filter>
					<logginginfo>
					<description></description>
					<scene></scene>
					<shottake></shottake>
					<lognote></lognote>
					<good></good>
					<originalvideofilename></originalvideofilename>
					<originalaudiofilename></originalaudiofilename>
					</logginginfo>
					<colorinfo>
					<lut></lut>
					<lut1></lut1>
					<asc_sop></asc_sop>
					<asc_sat></asc_sat>
					<lut2></lut2>
					</colorinfo>
					<labels>
					</labels>
					</clipitem>
					<clipitem frameBlend="FALSE" id="clipitem-134">
					<masterclipid>masterclip-54</masterclipid>
					<name></name>
					<enabled>TRUE</enabled>
					<duration>2582774</duration>
					<rate>
					
					                                    <timebase>60</timebase>
					                                    <ntsc>TRUE</ntsc>
					                                
					</rate>
					<start>209</start>
					<end>269</end>
					<in>209</in>
					<out>269</out>
					<pproTicksIn>914456774963789</pproTicksIn>
					<pproTicksOut>914677708529577</pproTicksOut>
					<alphatype>straight</alphatype>
					<pixelaspectratio>square</pixelaspectratio>
					<anamorphic>FALSE</anamorphic>
					<file id="file-53">
					<name></name>
					<mediaSource>GraphicAndType</mediaSource>
					<rate>
					<timebase>60</timebase>
					<ntsc>TRUE</ntsc>
					</rate>
					<timecode>
					<rate>
					<timebase>60</timebase>
					<ntsc>TRUE</ntsc>
					</rate>
					<string>00:00:00:00</string>
					<frame>0</frame>
					<displayformat>NDF</displayformat>
					</timecode>
					<media>
					<video>
					<samplecharacteristics>
					<rate>
					<timebase>60</timebase>
					<ntsc>TRUE</ntsc>
					</rate>
					<width>1080</width>
					<height>1920</height>
					<anamorphic>FALSE</anamorphic>
					<pixelaspectratio>square</pixelaspectratio>
					<fielddominance>none</fielddominance>
					</samplecharacteristics>
					</video>
					</media>
					</file>
					<filter>
					<effect>
					<name></name>
					<effectid>GraphicAndType</effectid>
					<effectcategory>graphic</effectcategory>
					<effecttype>filter</effecttype>
					<mediatype>video</mediatype>
					<pproBypass>false</pproBypass>
					<parameter authoringApp="PremierePro">
					<parameterid>1</parameterid>
					<name></name>
					<hash>025b1101-ead6-0ca2-1feb-caf3000001fc</hash>
					<value>5AEAAAAAAABEMyIRDAAAAAAABgAKAAQABgAAAGQAAAAAAF4ASAAQAAwARABAADwAOAAAAAAAAAAAADQAMwAsAAAAKAAkACAAAAAAAAAAAAAAAAAAHAAAAAAAGgAAAAAAAAAUAAAAAAAAAAAAAAAAAAAAAAAAAAgAAAAAABsABwBeAAAAAAAAAUAAAABQAAAAbAAAAAIAAAAAAAEAAQAAAAAAQEEAAMBAAABAQAAAyEIAAAABIAAAAAIAAAACAAAAAAA2QwCASkTw/v//9P7///j+//8S////AAAAAAEAAAAEAAAAEQAAAEhHUFNvZWlLYWt1cG9wdGFpAAAAAQAAAAwAAAAIAAwABAAIAAgAAAAIAAAAUAAAAA8AAADvvIEAAAAAAAAAAAAAAAAAAAA2ACQAAAAgABwAAAAAABsAFAAAAAAAAAAAAAAAAAAAAAAAAAAAABAAAAAAAAAADAAAAAgABAA2AAAAAgAAABwAAAAcAAAAHAAAAAAAIEEAAAABaAAAAE3PAEOw////tP///wEAAAAUAAAAEAAaAAgABwAMAAAAEAAUABAAAAAAAAABHAAAAAAAoEEcAAAAAgAAAAAACgAIAAUABgAHAAoAAAAADAD//P///wQABAAEAAAACAAIAAYABwAIAAAAAAAMAA==</value>
					</parameter>
					<parameter authoringApp="PremierePro">
					<parameterid>2</parameterid>
					<name></name>
					<IsTimeVarying>false</IsTimeVarying>
					<ParameterControlType>11</ParameterControlType>
					<LowerBound>false</LowerBound>
					<UpperBound>false</UpperBound>
					<value>-91445760000000000,false,0,0,0,0,0,0</value>
					</parameter>
					<parameter authoringApp="PremierePro">
					<parameterid>3</parameterid>
					<name></name>
					<IsTimeVarying>false</IsTimeVarying>
					<value>-91445760000000000,0.5:0.5,0,0,0,0,0,0,5,4,0,0,0,0</value>
					</parameter>
					<parameter authoringApp="PremierePro">
					<parameterid>4</parameterid>
					<name></name>
					<IsTimeVarying>false</IsTimeVarying>
					<ParameterControlType>2</ParameterControlType>
					<LowerBound>0</LowerBound>
					<UpperBound>4000</UpperBound>
					<value>-91445760000000000,100.,0,0,0,0,0,0</value>
					</parameter>
					<parameter authoringApp="PremierePro">
					<parameterid>8</parameterid>
					<name></name>
					<IsTimeVarying>false</IsTimeVarying>
					<ParameterControlType>2</ParameterControlType>
					<LowerBound>0</LowerBound>
					<UpperBound>100</UpperBound>
					<value>-91445760000000000,100.,0,0,0,0,0,0</value>
					</parameter>
					</effect>
					</filter>
					<logginginfo>
					<description></description>
					<scene></scene>
					<shottake></shottake>
					<lognote></lognote>
					<good></good>
					<originalvideofilename></originalvideofilename>
					<originalaudiofilename></originalaudiofilename>
					</logginginfo>
					<colorinfo>
					<lut></lut>
					<lut1></lut1>
					<asc_sop></asc_sop>
					<asc_sat></asc_sat>
					<lut2></lut2>
					</colorinfo>
					<labels>
					</labels>
					</clipitem>
					<clipitem frameBlend="FALSE" id="clipitem-142">
					<masterclipid>masterclip-62</masterclipid>
					<name></name>
					<enabled>TRUE</enabled>
					<duration>2582774</duration>
					<rate>
					
					                                    <timebase>60</timebase>
					                                    <ntsc>TRUE</ntsc>
					                                
					</rate>
					<start>269</start>
					<end>329</end>
					<in>269</in>
					<out>329</out>
					<pproTicksIn>914456774963789</pproTicksIn>
					<pproTicksOut>914677708529577</pproTicksOut>
					<alphatype>straight</alphatype>
					<pixelaspectratio>square</pixelaspectratio>
					<anamorphic>FALSE</anamorphic>
					<file id="file-61">
					<name></name>
					<mediaSource>GraphicAndType</mediaSource>
					<rate>
					<timebase>60</timebase>
					<ntsc>TRUE</ntsc>
					</rate>
					<timecode>
					<rate>
					<timebase>60</timebase>
					<ntsc>TRUE</ntsc>
					</rate>
					<string>00:00:00:00</string>
					<frame>0</frame>
					<displayformat>NDF</displayformat>
					</timecode>
					<media>
					<video>
					<samplecharacteristics>
					<rate>
					<timebase>60</timebase>
					<ntsc>TRUE</ntsc>
					</rate>
					<width>1080</width>
					<height>1920</height>
					<anamorphic>FALSE</anamorphic>
					<pixelaspectratio>square</pixelaspectratio>
					<fielddominance>none</fielddominance>
					</samplecharacteristics>
					</video>
					</media>
					</file>
					<filter>
					<effect>
					<name></name>
					<effectid>GraphicAndType</effectid>
					<effectcategory>graphic</effectcategory>
					<effecttype>filter</effecttype>
					<mediatype>video</mediatype>
					<pproBypass>false</pproBypass>
					<parameter authoringApp="PremierePro">
					<parameterid>1</parameterid>
					<name></name>
					<hash>025b1101-ead6-0ca2-1feb-caf3000001fc</hash>
					<value>5AEAAAAAAABEMyIRDAAAAAAABgAKAAQABgAAAGQAAAAAAF4ASAAQAAwARABAADwAOAAAAAAAAAAAADQAMwAsAAAAKAAkACAAAAAAAAAAAAAAAAAAHAAAAAAAGgAAAAAAAAAUAAAAAAAAAAAAAAAAAAAAAAAAAAgAAAAAABsABwBeAAAAAAAAAUAAAABQAAAAbAAAAAIAAAAAAAEAAQAAAAAAQEEAAMBAAABAQAAAyEIAAAABIAAAAAIAAAACAAAAAAA2QwCASkTw/v//9P7///j+//8S////AAAAAAEAAAAEAAAAEQAAAEhHUFNvZWlLYWt1cG9wdGFpAAAAAQAAAAwAAAAIAAwABAAIAAgAAAAIAAAAUAAAAA8AAADvvIEAAAAAAAAAAAAAAAAAAAA2ACQAAAAgABwAAAAAABsAFAAAAAAAAAAAAAAAAAAAAAAAAAAAABAAAAAAAAAADAAAAAgABAA2AAAAAgAAABwAAAAcAAAAHAAAAAAAIEEAAAABaAAAAE3PAEOw////tP///wEAAAAUAAAAEAAaAAgABwAMAAAAEAAUABAAAAAAAAABHAAAAAAAoEEcAAAAAgAAAAAACgAIAAUABgAHAAoAAAAADAD//P///wQABAAEAAAACAAIAAYABwAIAAAAAAAMAA==</value>
					</parameter>
					<parameter authoringApp="PremierePro">
					<parameterid>2</parameterid>
					<name></name>
					<IsTimeVarying>false</IsTimeVarying>
					<ParameterControlType>11</ParameterControlType>
					<LowerBound>false</LowerBound>
					<UpperBound>false</UpperBound>
					<value>-91445760000000000,false,0,0,0,0,0,0</value>
					</parameter>
					<parameter authoringApp="PremierePro">
					<parameterid>3</parameterid>
					<name></name>
					<IsTimeVarying>false</IsTimeVarying>
					<value>-91445760000000000,0.5:0.5,0,0,0,0,0,0,5,4,0,0,0,0</value>
					</parameter>
					<parameter authoringApp="PremierePro">
					<parameterid>4</parameterid>
					<name></name>
					<IsTimeVarying>false</IsTimeVarying>
					<ParameterControlType>2</ParameterControlType>
					<LowerBound>0</LowerBound>
					<UpperBound>4000</UpperBound>
					<value>-91445760000000000,100.,0,0,0,0,0,0</value>
					</parameter>
					<parameter authoringApp="PremierePro">
					<parameterid>8</parameterid>
					<name></name>
					<IsTimeVarying>false</IsTimeVarying>
					<ParameterControlType>2</ParameterControlType>
					<LowerBound>0</LowerBound>
					<UpperBound>100</UpperBound>
					<value>-91445760000000000,100.,0,0,0,0,0,0</value>
					</parameter>
					</effect>
					</filter>
					<logginginfo>
					<description></description>
					<scene></scene>
					<shottake></shottake>
					<lognote></lognote>
					<good></good>
					<originalvideofilename></originalvideofilename>
					<originalaudiofilename></originalaudiofilename>
					</logginginfo>
					<colorinfo>
					<lut></lut>
					<lut1></lut1>
					<asc_sop></asc_sop>
					<asc_sat></asc_sat>
					<lut2></lut2>
					</colorinfo>
					<labels>
					</labels>
					</clipitem>
					<clipitem frameBlend="FALSE" id="clipitem-148">
					<masterclipid>masterclip-68</masterclipid>
					<name></name>
					<enabled>TRUE</enabled>
					<duration>2582774</duration>
					<rate>
					
					                                    <timebase>60</timebase>
					                                    <ntsc>TRUE</ntsc>
					                                
					</rate>
					<start>329</start>
					<end>389</end>
					<in>329</in>
					<out>389</out>
					<pproTicksIn>914456774963789</pproTicksIn>
					<pproTicksOut>914677708529577</pproTicksOut>
					<alphatype>straight</alphatype>
					<pixelaspectratio>square</pixelaspectratio>
					<anamorphic>FALSE</anamorphic>
					<file id="file-67">
					<name></name>
					<mediaSource>GraphicAndType</mediaSource>
					<rate>
					<timebase>60</timebase>
					<ntsc>TRUE</ntsc>
					</rate>
					<timecode>
					<rate>
					<timebase>60</timebase>
					<ntsc>TRUE</ntsc>
					</rate>
					<string>00:00:00:00</string>
					<frame>0</frame>
					<displayformat>NDF</displayformat>
					</timecode>
					<media>
					<video>
					<samplecharacteristics>
					<rate>
					<timebase>60</timebase>
					<ntsc>TRUE</ntsc>
					</rate>
					<width>1080</width>
					<height>1920</height>
					<anamorphic>FALSE</anamorphic>
					<pixelaspectratio>square</pixelaspectratio>
					<fielddominance>none</fielddominance>
					</samplecharacteristics>
					</video>
					</media>
					</file>
					<filter>
					<effect>
					<name></name>
					<effectid>GraphicAndType</effectid>
					<effectcategory>graphic</effectcategory>
					<effecttype>filter</effecttype>
					<mediatype>video</mediatype>
					<pproBypass>false</pproBypass>
					<parameter authoringApp="PremierePro">
					<parameterid>1</parameterid>
					<name></name>
					<hash>025b1101-ead6-0ca2-1feb-caf3000001fc</hash>
					<value>5AEAAAAAAABEMyIRDAAAAAAABgAKAAQABgAAAGQAAAAAAF4ASAAQAAwARABAADwAOAAAAAAAAAAAADQAMwAsAAAAKAAkACAAAAAAAAAAAAAAAAAAHAAAAAAAGgAAAAAAAAAUAAAAAAAAAAAAAAAAAAAAAAAAAAgAAAAAABsABwBeAAAAAAAAAUAAAABQAAAAbAAAAAIAAAAAAAEAAQAAAAAAQEEAAMBAAABAQAAAyEIAAAABIAAAAAIAAAACAAAAAAA2QwCASkTw/v//9P7///j+//8S////AAAAAAEAAAAEAAAAEQAAAEhHUFNvZWlLYWt1cG9wdGFpAAAAAQAAAAwAAAAIAAwABAAIAAgAAAAIAAAAUAAAAA8AAADvvIEAAAAAAAAAAAAAAAAAAAA2ACQAAAAgABwAAAAAABsAFAAAAAAAAAAAAAAAAAAAAAAAAAAAABAAAAAAAAAADAAAAAgABAA2AAAAAgAAABwAAAAcAAAAHAAAAAAAIEEAAAABaAAAAE3PAEOw////tP///wEAAAAUAAAAEAAaAAgABwAMAAAAEAAUABAAAAAAAAABHAAAAAAAoEEcAAAAAgAAAAAACgAIAAUABgAHAAoAAAAADAD//P///wQABAAEAAAACAAIAAYABwAIAAAAAAAMAA==</value>
					</parameter>
					<parameter authoringApp="PremierePro">
					<parameterid>2</parameterid>
					<name></name>
					<IsTimeVarying>false</IsTimeVarying>
					<ParameterControlType>11</ParameterControlType>
					<LowerBound>false</LowerBound>
					<UpperBound>false</UpperBound>
					<value>-91445760000000000,false,0,0,0,0,0,0</value>
					</parameter>
					<parameter authoringApp="PremierePro">
					<parameterid>3</parameterid>
					<name></name>
					<IsTimeVarying>false</IsTimeVarying>
					<value>-91445760000000000,0.5:0.5,0,0,0,0,0,0,5,4,0,0,0,0</value>
					</parameter>
					<parameter authoringApp="PremierePro">
					<parameterid>4</parameterid>
					<name></name>
					<IsTimeVarying>false</IsTimeVarying>
					<ParameterControlType>2</ParameterControlType>
					<LowerBound>0</LowerBound>
					<UpperBound>4000</UpperBound>
					<value>-91445760000000000,100.,0,0,0,0,0,0</value>
					</parameter>
					<parameter authoringApp="PremierePro">
					<parameterid>8</parameterid>
					<name></name>
					<IsTimeVarying>false</IsTimeVarying>
					<ParameterControlType>2</ParameterControlType>
					<LowerBound>0</LowerBound>
					<UpperBound>100</UpperBound>
					<value>-91445760000000000,100.,0,0,0,0,0,0</value>
					</parameter>
					</effect>
					</filter>
					<logginginfo>
					<description></description>
					<scene></scene>
					<shottake></shottake>
					<lognote></lognote>
					<good></good>
					<originalvideofilename></originalvideofilename>
					<originalaudiofilename></originalaudiofilename>
					</logginginfo>
					<colorinfo>
					<lut></lut>
					<lut1></lut1>
					<asc_sop></asc_sop>
					<asc_sat></asc_sat>
					<lut2></lut2>
					</colorinfo>
					<labels>
					</labels>
					</clipitem>
					<clipitem frameBlend="FALSE" id="clipitem-153">
					<masterclipid>masterclip-73</masterclipid>
					<name></name>
					<enabled>TRUE</enabled>
					<duration>2582774</duration>
					<rate>
					
					                                    <timebase>60</timebase>
					                                    <ntsc>TRUE</ntsc>
					                                
					</rate>
					<start>389</start>
					<end>449</end>
					<in>389</in>
					<out>449</out>
					<pproTicksIn>914456774963789</pproTicksIn>
					<pproTicksOut>914677708529577</pproTicksOut>
					<alphatype>straight</alphatype>
					<pixelaspectratio>square</pixelaspectratio>
					<anamorphic>FALSE</anamorphic>
					<file id="file-72">
					<name></name>
					<mediaSource>GraphicAndType</mediaSource>
					<rate>
					<timebase>60</timebase>
					<ntsc>TRUE</ntsc>
					</rate>
					<timecode>
					<rate>
					<timebase>60</timebase>
					<ntsc>TRUE</ntsc>
					</rate>
					<string>00:00:00:00</string>
					<frame>0</frame>
					<displayformat>NDF</displayformat>
					</timecode>
					<media>
					<video>
					<samplecharacteristics>
					<rate>
					<timebase>60</timebase>
					<ntsc>TRUE</ntsc>
					</rate>
					<width>1080</width>
					<height>1920</height>
					<anamorphic>FALSE</anamorphic>
					<pixelaspectratio>square</pixelaspectratio>
					<fielddominance>none</fielddominance>
					</samplecharacteristics>
					</video>
					</media>
					</file>
					<filter>
					<effect>
					<name></name>
					<effectid>GraphicAndType</effectid>
					<effectcategory>graphic</effectcategory>
					<effecttype>filter</effecttype>
					<mediatype>video</mediatype>
					<pproBypass>false</pproBypass>
					<parameter authoringApp="PremierePro">
					<parameterid>1</parameterid>
					<name></name>
					<hash>025b1101-ead6-0ca2-1feb-caf3000001fc</hash>
					<value>5AEAAAAAAABEMyIRDAAAAAAABgAKAAQABgAAAGQAAAAAAF4ASAAQAAwARABAADwAOAAAAAAAAAAAADQAMwAsAAAAKAAkACAAAAAAAAAAAAAAAAAAHAAAAAAAGgAAAAAAAAAUAAAAAAAAAAAAAAAAAAAAAAAAAAgAAAAAABsABwBeAAAAAAAAAUAAAABQAAAAbAAAAAIAAAAAAAEAAQAAAAAAQEEAAMBAAABAQAAAyEIAAAABIAAAAAIAAAACAAAAAAA2QwCASkTw/v//9P7///j+//8S////AAAAAAEAAAAEAAAAEQAAAEhHUFNvZWlLYWt1cG9wdGFpAAAAAQAAAAwAAAAIAAwABAAIAAgAAAAIAAAAUAAAAA8AAADvvIEAAAAAAAAAAAAAAAAAAAA2ACQAAAAgABwAAAAAABsAFAAAAAAAAAAAAAAAAAAAAAAAAAAAABAAAAAAAAAADAAAAAgABAA2AAAAAgAAABwAAAAcAAAAHAAAAAAAIEEAAAABaAAAAE3PAEOw////tP///wEAAAAUAAAAEAAaAAgABwAMAAAAEAAUABAAAAAAAAABHAAAAAAAoEEcAAAAAgAAAAAACgAIAAUABgAHAAoAAAAADAD//P///wQABAAEAAAACAAIAAYABwAIAAAAAAAMAA==</value>
					</parameter>
					<parameter authoringApp="PremierePro">
					<parameterid>2</parameterid>
					<name></name>
					<IsTimeVarying>false</IsTimeVarying>
					<ParameterControlType>11</ParameterControlType>
					<LowerBound>false</LowerBound>
					<UpperBound>false</UpperBound>
					<value>-91445760000000000,false,0,0,0,0,0,0</value>
					</parameter>
					<parameter authoringApp="PremierePro">
					<parameterid>3</parameterid>
					<name></name>
					<IsTimeVarying>false</IsTimeVarying>
					<value>-91445760000000000,0.5:0.5,0,0,0,0,0,0,5,4,0,0,0,0</value>
					</parameter>
					<parameter authoringApp="PremierePro">
					<parameterid>4</parameterid>
					<name></name>
					<IsTimeVarying>false</IsTimeVarying>
					<ParameterControlType>2</ParameterControlType>
					<LowerBound>0</LowerBound>
					<UpperBound>4000</UpperBound>
					<value>-91445760000000000,100.,0,0,0,0,0,0</value>
					</parameter>
					<parameter authoringApp="PremierePro">
					<parameterid>8</parameterid>
					<name></name>
					<IsTimeVarying>false</IsTimeVarying>
					<ParameterControlType>2</ParameterControlType>
					<LowerBound>0</LowerBound>
					<UpperBound>100</UpperBound>
					<value>-91445760000000000,100.,0,0,0,0,0,0</value>
					</parameter>
					</effect>
					</filter>
					<logginginfo>
					<description></description>
					<scene></scene>
					<shottake></shottake>
					<lognote></lognote>
					<good></good>
					<originalvideofilename></originalvideofilename>
					<originalaudiofilename></originalaudiofilename>
					</logginginfo>
					<colorinfo>
					<lut></lut>
					<lut1></lut1>
					<asc_sop></asc_sop>
					<asc_sat></asc_sat>
					<lut2></lut2>
					</colorinfo>
					<labels>
					</labels>
					</clipitem>
					<clipitem frameBlend="FALSE" id="clipitem-158">
					<masterclipid>masterclip-78</masterclipid>
					<name></name>
					<enabled>TRUE</enabled>
					<duration>2582774</duration>
					<rate>
					
					                                    <timebase>60</timebase>
					                                    <ntsc>TRUE</ntsc>
					                                
					</rate>
					<start>455</start>
					<end>521</end>
					<in>455</in>
					<out>521</out>
					<pproTicksIn>914456774963789</pproTicksIn>
					<pproTicksOut>914677708529577</pproTicksOut>
					<alphatype>straight</alphatype>
					<pixelaspectratio>square</pixelaspectratio>
					<anamorphic>FALSE</anamorphic>
					<file id="file-77">
					<name></name>
					<mediaSource>GraphicAndType</mediaSource>
					<rate>
					<timebase>60</timebase>
					<ntsc>TRUE</ntsc>
					</rate>
					<timecode>
					<rate>
					<timebase>60</timebase>
					<ntsc>TRUE</ntsc>
					</rate>
					<string>00:00:00:00</string>
					<frame>0</frame>
					<displayformat>NDF</displayformat>
					</timecode>
					<media>
					<video>
					<samplecharacteristics>
					<rate>
					<timebase>60</timebase>
					<ntsc>TRUE</ntsc>
					</rate>
					<width>1080</width>
					<height>1920</height>
					<anamorphic>FALSE</anamorphic>
					<pixelaspectratio>square</pixelaspectratio>
					<fielddominance>none</fielddominance>
					</samplecharacteristics>
					</video>
					</media>
					</file>
					<filter>
					<effect>
					<name></name>
					<effectid>GraphicAndType</effectid>
					<effectcategory>graphic</effectcategory>
					<effecttype>filter</effecttype>
					<mediatype>video</mediatype>
					<pproBypass>false</pproBypass>
					<parameter authoringApp="PremierePro">
					<parameterid>1</parameterid>
					<name></name>
					<hash>025b1101-ead6-0ca2-1feb-caf3000001fc</hash>
					<value>5AEAAAAAAABEMyIRDAAAAAAABgAKAAQABgAAAGQAAAAAAF4ASAAQAAwARABAADwAOAAAAAAAAAAAADQAMwAsAAAAKAAkACAAAAAAAAAAAAAAAAAAHAAAAAAAGgAAAAAAAAAUAAAAAAAAAAAAAAAAAAAAAAAAAAgAAAAAABsABwBeAAAAAAAAAUAAAABQAAAAbAAAAAIAAAAAAAEAAQAAAAAAQEEAAMBAAABAQAAAyEIAAAABIAAAAAIAAAACAAAAAAA2QwCASkTw/v//9P7///j+//8S////AAAAAAEAAAAEAAAAEQAAAEhHUFNvZWlLYWt1cG9wdGFpAAAAAQAAAAwAAAAIAAwABAAIAAgAAAAIAAAAUAAAAA8AAADvvIEAAAAAAAAAAAAAAAAAAAA2ACQAAAAgABwAAAAAABsAFAAAAAAAAAAAAAAAAAAAAAAAAAAAABAAAAAAAAAADAAAAAgABAA2AAAAAgAAABwAAAAcAAAAHAAAAAAAIEEAAAABaAAAAE3PAEOw////tP///wEAAAAUAAAAEAAaAAgABwAMAAAAEAAUABAAAAAAAAABHAAAAAAAoEEcAAAAAgAAAAAACgAIAAUABgAHAAoAAAAADAD//P///wQABAAEAAAACAAIAAYABwAIAAAAAAAMAA==</value>
					</parameter>
					<parameter authoringApp="PremierePro">
					<parameterid>2</parameterid>
					<name></name>
					<IsTimeVarying>false</IsTimeVarying>
					<ParameterControlType>11</ParameterControlType>
					<LowerBound>false</LowerBound>
					<UpperBound>false</UpperBound>
					<value>-91445760000000000,false,0,0,0,0,0,0</value>
					</parameter>
					<parameter authoringApp="PremierePro">
					<parameterid>3</parameterid>
					<name></name>
					<IsTimeVarying>false</IsTimeVarying>
					<value>-91445760000000000,0.5:0.5,0,0,0,0,0,0,5,4,0,0,0,0</value>
					</parameter>
					<parameter authoringApp="PremierePro">
					<parameterid>4</parameterid>
					<name></name>
					<IsTimeVarying>false</IsTimeVarying>
					<ParameterControlType>2</ParameterControlType>
					<LowerBound>0</LowerBound>
					<UpperBound>4000</UpperBound>
					<value>-91445760000000000,100.,0,0,0,0,0,0</value>
					</parameter>
					<parameter authoringApp="PremierePro">
					<parameterid>8</parameterid>
					<name></name>
					<IsTimeVarying>false</IsTimeVarying>
					<ParameterControlType>2</ParameterControlType>
					<LowerBound>0</LowerBound>
					<UpperBound>100</UpperBound>
					<value>-91445760000000000,100.,0,0,0,0,0,0</value>
					</parameter>
					</effect>
					</filter>
					<logginginfo>
					<description></description>
					<scene></scene>
					<shottake></shottake>
					<lognote></lognote>
					<good></good>
					<originalvideofilename></originalvideofilename>
					<originalaudiofilename></originalaudiofilename>
					</logginginfo>
					<colorinfo>
					<lut></lut>
					<lut1></lut1>
					<asc_sop></asc_sop>
					<asc_sat></asc_sat>
					<lut2></lut2>
					</colorinfo>
					<labels>
					</labels>
					</clipitem>
					<clipitem frameBlend="FALSE" id="clipitem-165">
					<masterclipid>masterclip-85</masterclipid>
					<name></name>
					<enabled>TRUE</enabled>
					<duration>2582774</duration>
					<rate>
					
					                                    <timebase>60</timebase>
					                                    <ntsc>TRUE</ntsc>
					                                
					</rate>
					<start>533</start>
					<end>593</end>
					<in>533</in>
					<out>593</out>
					<pproTicksIn>914456774963789</pproTicksIn>
					<pproTicksOut>914677708529577</pproTicksOut>
					<alphatype>straight</alphatype>
					<pixelaspectratio>square</pixelaspectratio>
					<anamorphic>FALSE</anamorphic>
					<file id="file-84">
					<name></name>
					<mediaSource>GraphicAndType</mediaSource>
					<rate>
					<timebase>60</timebase>
					<ntsc>TRUE</ntsc>
					</rate>
					<timecode>
					<rate>
					<timebase>60</timebase>
					<ntsc>TRUE</ntsc>
					</rate>
					<string>00:00:00:00</string>
					<frame>0</frame>
					<displayformat>NDF</displayformat>
					</timecode>
					<media>
					<video>
					<samplecharacteristics>
					<rate>
					<timebase>60</timebase>
					<ntsc>TRUE</ntsc>
					</rate>
					<width>1080</width>
					<height>1920</height>
					<anamorphic>FALSE</anamorphic>
					<pixelaspectratio>square</pixelaspectratio>
					<fielddominance>none</fielddominance>
					</samplecharacteristics>
					</video>
					</media>
					</file>
					<filter>
					<effect>
					<name></name>
					<effectid>GraphicAndType</effectid>
					<effectcategory>graphic</effectcategory>
					<effecttype>filter</effecttype>
					<mediatype>video</mediatype>
					<pproBypass>false</pproBypass>
					<parameter authoringApp="PremierePro">
					<parameterid>1</parameterid>
					<name></name>
					<hash>025b1101-ead6-0ca2-1feb-caf3000001fc</hash>
					<value>5AEAAAAAAABEMyIRDAAAAAAABgAKAAQABgAAAGQAAAAAAF4ASAAQAAwARABAADwAOAAAAAAAAAAAADQAMwAsAAAAKAAkACAAAAAAAAAAAAAAAAAAHAAAAAAAGgAAAAAAAAAUAAAAAAAAAAAAAAAAAAAAAAAAAAgAAAAAABsABwBeAAAAAAAAAUAAAABQAAAAbAAAAAIAAAAAAAEAAQAAAAAAQEEAAMBAAABAQAAAyEIAAAABIAAAAAIAAAACAAAAAAA2QwCASkTw/v//9P7///j+//8S////AAAAAAEAAAAEAAAAEQAAAEhHUFNvZWlLYWt1cG9wdGFpAAAAAQAAAAwAAAAIAAwABAAIAAgAAAAIAAAAUAAAAA8AAADvvIEAAAAAAAAAAAAAAAAAAAA2ACQAAAAgABwAAAAAABsAFAAAAAAAAAAAAAAAAAAAAAAAAAAAABAAAAAAAAAADAAAAAgABAA2AAAAAgAAABwAAAAcAAAAHAAAAAAAIEEAAAABaAAAAE3PAEOw////tP///wEAAAAUAAAAEAAaAAgABwAMAAAAEAAUABAAAAAAAAABHAAAAAAAoEEcAAAAAgAAAAAACgAIAAUABgAHAAoAAAAADAD//P///wQABAAEAAAACAAIAAYABwAIAAAAAAAMAA==</value>
					</parameter>
					<parameter authoringApp="PremierePro">
					<parameterid>2</parameterid>
					<name></name>
					<IsTimeVarying>false</IsTimeVarying>
					<ParameterControlType>11</ParameterControlType>
					<LowerBound>false</LowerBound>
					<UpperBound>false</UpperBound>
					<value>-91445760000000000,false,0,0,0,0,0,0</value>
					</parameter>
					<parameter authoringApp="PremierePro">
					<parameterid>3</parameterid>
					<name></name>
					<IsTimeVarying>false</IsTimeVarying>
					<value>-91445760000000000,0.5:0.5,0,0,0,0,0,0,5,4,0,0,0,0</value>
					</parameter>
					<parameter authoringApp="PremierePro">
					<parameterid>4</parameterid>
					<name></name>
					<IsTimeVarying>false</IsTimeVarying>
					<ParameterControlType>2</ParameterControlType>
					<LowerBound>0</LowerBound>
					<UpperBound>4000</UpperBound>
					<value>-91445760000000000,100.,0,0,0,0,0,0</value>
					</parameter>
					<parameter authoringApp="PremierePro">
					<parameterid>8</parameterid>
					<name></name>
					<IsTimeVarying>false</IsTimeVarying>
					<ParameterControlType>2</ParameterControlType>
					<LowerBound>0</LowerBound>
					<UpperBound>100</UpperBound>
					<value>-91445760000000000,100.,0,0,0,0,0,0</value>
					</parameter>
					</effect>
					</filter>
					<logginginfo>
					<description></description>
					<scene></scene>
					<shottake></shottake>
					<lognote></lognote>
					<good></good>
					<originalvideofilename></originalvideofilename>
					<originalaudiofilename></originalaudiofilename>
					</logginginfo>
					<colorinfo>
					<lut></lut>
					<lut1></lut1>
					<asc_sop></asc_sop>
					<asc_sat></asc_sat>
					<lut2></lut2>
					</colorinfo>
					<labels>
					</labels>
					</clipitem>
					<clipitem frameBlend="FALSE" id="clipitem-173">
					<masterclipid>masterclip-93</masterclipid>
					<name></name>
					<enabled>TRUE</enabled>
					<duration>2582774</duration>
					<rate>
					
					                                    <timebase>60</timebase>
					                                    <ntsc>TRUE</ntsc>
					                                
					</rate>
					<start>593</start>
					<end>653</end>
					<in>593</in>
					<out>653</out>
					<pproTicksIn>914456774963789</pproTicksIn>
					<pproTicksOut>914677708529577</pproTicksOut>
					<alphatype>straight</alphatype>
					<pixelaspectratio>square</pixelaspectratio>
					<anamorphic>FALSE</anamorphic>
					<file id="file-92">
					<name></name>
					<mediaSource>GraphicAndType</mediaSource>
					<rate>
					<timebase>60</timebase>
					<ntsc>TRUE</ntsc>
					</rate>
					<timecode>
					<rate>
					<timebase>60</timebase>
					<ntsc>TRUE</ntsc>
					</rate>
					<string>00:00:00:00</string>
					<frame>0</frame>
					<displayformat>NDF</displayformat>
					</timecode>
					<media>
					<video>
					<samplecharacteristics>
					<rate>
					<timebase>60</timebase>
					<ntsc>TRUE</ntsc>
					</rate>
					<width>1080</width>
					<height>1920</height>
					<anamorphic>FALSE</anamorphic>
					<pixelaspectratio>square</pixelaspectratio>
					<fielddominance>none</fielddominance>
					</samplecharacteristics>
					</video>
					</media>
					</file>
					<filter>
					<effect>
					<name></name>
					<effectid>GraphicAndType</effectid>
					<effectcategory>graphic</effectcategory>
					<effecttype>filter</effecttype>
					<mediatype>video</mediatype>
					<pproBypass>false</pproBypass>
					<parameter authoringApp="PremierePro">
					<parameterid>1</parameterid>
					<name></name>
					<hash>025b1101-ead6-0ca2-1feb-caf3000001fc</hash>
					<value>5AEAAAAAAABEMyIRDAAAAAAABgAKAAQABgAAAGQAAAAAAF4ASAAQAAwARABAADwAOAAAAAAAAAAAADQAMwAsAAAAKAAkACAAAAAAAAAAAAAAAAAAHAAAAAAAGgAAAAAAAAAUAAAAAAAAAAAAAAAAAAAAAAAAAAgAAAAAABsABwBeAAAAAAAAAUAAAABQAAAAbAAAAAIAAAAAAAEAAQAAAAAAQEEAAMBAAABAQAAAyEIAAAABIAAAAAIAAAACAAAAAAA2QwCASkTw/v//9P7///j+//8S////AAAAAAEAAAAEAAAAEQAAAEhHUFNvZWlLYWt1cG9wdGFpAAAAAQAAAAwAAAAIAAwABAAIAAgAAAAIAAAAUAAAAA8AAADvvIEAAAAAAAAAAAAAAAAAAAA2ACQAAAAgABwAAAAAABsAFAAAAAAAAAAAAAAAAAAAAAAAAAAAABAAAAAAAAAADAAAAAgABAA2AAAAAgAAABwAAAAcAAAAHAAAAAAAIEEAAAABaAAAAE3PAEOw////tP///wEAAAAUAAAAEAAaAAgABwAMAAAAEAAUABAAAAAAAAABHAAAAAAAoEEcAAAAAgAAAAAACgAIAAUABgAHAAoAAAAADAD//P///wQABAAEAAAACAAIAAYABwAIAAAAAAAMAA==</value>
					</parameter>
					<parameter authoringApp="PremierePro">
					<parameterid>2</parameterid>
					<name></name>
					<IsTimeVarying>false</IsTimeVarying>
					<ParameterControlType>11</ParameterControlType>
					<LowerBound>false</LowerBound>
					<UpperBound>false</UpperBound>
					<value>-91445760000000000,false,0,0,0,0,0,0</value>
					</parameter>
					<parameter authoringApp="PremierePro">
					<parameterid>3</parameterid>
					<name></name>
					<IsTimeVarying>false</IsTimeVarying>
					<value>-91445760000000000,0.5:0.5,0,0,0,0,0,0,5,4,0,0,0,0</value>
					</parameter>
					<parameter authoringApp="PremierePro">
					<parameterid>4</parameterid>
					<name></name>
					<IsTimeVarying>false</IsTimeVarying>
					<ParameterControlType>2</ParameterControlType>
					<LowerBound>0</LowerBound>
					<UpperBound>4000</UpperBound>
					<value>-91445760000000000,100.,0,0,0,0,0,0</value>
					</parameter>
					<parameter authoringApp="PremierePro">
					<parameterid>8</parameterid>
					<name></name>
					<IsTimeVarying>false</IsTimeVarying>
					<ParameterControlType>2</ParameterControlType>
					<LowerBound>0</LowerBound>
					<UpperBound>100</UpperBound>
					<value>-91445760000000000,100.,0,0,0,0,0,0</value>
					</parameter>
					</effect>
					</filter>
					<logginginfo>
					<description></description>
					<scene></scene>
					<shottake></shottake>
					<lognote></lognote>
					<good></good>
					<originalvideofilename></originalvideofilename>
					<originalaudiofilename></originalaudiofilename>
					</logginginfo>
					<colorinfo>
					<lut></lut>
					<lut1></lut1>
					<asc_sop></asc_sop>
					<asc_sat></asc_sat>
					<lut2></lut2>
					</colorinfo>
					<labels>
					</labels>
					</clipitem>
					<clipitem frameBlend="FALSE" id="clipitem-182">
					<masterclipid>masterclip-102</masterclipid>
					<name></name>
					<enabled>TRUE</enabled>
					<duration>2582774</duration>
					<rate>
					
					                                    <timebase>60</timebase>
					                                    <ntsc>TRUE</ntsc>
					                                
					</rate>
					<start>653</start>
					<end>713</end>
					<in>653</in>
					<out>713</out>
					<pproTicksIn>914456774963789</pproTicksIn>
					<pproTicksOut>914677708529577</pproTicksOut>
					<alphatype>straight</alphatype>
					<pixelaspectratio>square</pixelaspectratio>
					<anamorphic>FALSE</anamorphic>
					<file id="file-101">
					<name></name>
					<mediaSource>GraphicAndType</mediaSource>
					<rate>
					<timebase>60</timebase>
					<ntsc>TRUE</ntsc>
					</rate>
					<timecode>
					<rate>
					<timebase>60</timebase>
					<ntsc>TRUE</ntsc>
					</rate>
					<string>00:00:00:00</string>
					<frame>0</frame>
					<displayformat>NDF</displayformat>
					</timecode>
					<media>
					<video>
					<samplecharacteristics>
					<rate>
					<timebase>60</timebase>
					<ntsc>TRUE</ntsc>
					</rate>
					<width>1080</width>
					<height>1920</height>
					<anamorphic>FALSE</anamorphic>
					<pixelaspectratio>square</pixelaspectratio>
					<fielddominance>none</fielddominance>
					</samplecharacteristics>
					</video>
					</media>
					</file>
					<filter>
					<effect>
					<name></name>
					<effectid>GraphicAndType</effectid>
					<effectcategory>graphic</effectcategory>
					<effecttype>filter</effecttype>
					<mediatype>video</mediatype>
					<pproBypass>false</pproBypass>
					<parameter authoringApp="PremierePro">
					<parameterid>1</parameterid>
					<name></name>
					<hash>025b1101-ead6-0ca2-1feb-caf3000001fc</hash>
					<value>5AEAAAAAAABEMyIRDAAAAAAABgAKAAQABgAAAGQAAAAAAF4ASAAQAAwARABAADwAOAAAAAAAAAAAADQAMwAsAAAAKAAkACAAAAAAAAAAAAAAAAAAHAAAAAAAGgAAAAAAAAAUAAAAAAAAAAAAAAAAAAAAAAAAAAgAAAAAABsABwBeAAAAAAAAAUAAAABQAAAAbAAAAAIAAAAAAAEAAQAAAAAAQEEAAMBAAABAQAAAyEIAAAABIAAAAAIAAAACAAAAAAA2QwCASkTw/v//9P7///j+//8S////AAAAAAEAAAAEAAAAEQAAAEhHUFNvZWlLYWt1cG9wdGFpAAAAAQAAAAwAAAAIAAwABAAIAAgAAAAIAAAAUAAAAA8AAADvvIEAAAAAAAAAAAAAAAAAAAA2ACQAAAAgABwAAAAAABsAFAAAAAAAAAAAAAAAAAAAAAAAAAAAABAAAAAAAAAADAAAAAgABAA2AAAAAgAAABwAAAAcAAAAHAAAAAAAIEEAAAABaAAAAE3PAEOw////tP///wEAAAAUAAAAEAAaAAgABwAMAAAAEAAUABAAAAAAAAABHAAAAAAAoEEcAAAAAgAAAAAACgAIAAUABgAHAAoAAAAADAD//P///wQABAAEAAAACAAIAAYABwAIAAAAAAAMAA==</value>
					</parameter>
					<parameter authoringApp="PremierePro">
					<parameterid>2</parameterid>
					<name></name>
					<IsTimeVarying>false</IsTimeVarying>
					<ParameterControlType>11</ParameterControlType>
					<LowerBound>false</LowerBound>
					<UpperBound>false</UpperBound>
					<value>-91445760000000000,false,0,0,0,0,0,0</value>
					</parameter>
					<parameter authoringApp="PremierePro">
					<parameterid>3</parameterid>
					<name></name>
					<IsTimeVarying>false</IsTimeVarying>
					<value>-91445760000000000,0.5:0.5,0,0,0,0,0,0,5,4,0,0,0,0</value>
					</parameter>
					<parameter authoringApp="PremierePro">
					<parameterid>4</parameterid>
					<name></name>
					<IsTimeVarying>false</IsTimeVarying>
					<ParameterControlType>2</ParameterControlType>
					<LowerBound>0</LowerBound>
					<UpperBound>4000</UpperBound>
					<value>-91445760000000000,100.,0,0,0,0,0,0</value>
					</parameter>
					<parameter authoringApp="PremierePro">
					<parameterid>8</parameterid>
					<name></name>
					<IsTimeVarying>false</IsTimeVarying>
					<ParameterControlType>2</ParameterControlType>
					<LowerBound>0</LowerBound>
					<UpperBound>100</UpperBound>
					<value>-91445760000000000,100.,0,0,0,0,0,0</value>
					</parameter>
					</effect>
					</filter>
					<logginginfo>
					<description></description>
					<scene></scene>
					<shottake></shottake>
					<lognote></lognote>
					<good></good>
					<originalvideofilename></originalvideofilename>
					<originalaudiofilename></originalaudiofilename>
					</logginginfo>
					<colorinfo>
					<lut></lut>
					<lut1></lut1>
					<asc_sop></asc_sop>
					<asc_sat></asc_sat>
					<lut2></lut2>
					</colorinfo>
					<labels>
					</labels>
					</clipitem>
					<clipitem frameBlend="FALSE" id="clipitem-189">
					<masterclipid>masterclip-109</masterclipid>
					<name></name>
					<enabled>TRUE</enabled>
					<duration>2582774</duration>
					<rate>
					
					                                    <timebase>60</timebase>
					                                    <ntsc>TRUE</ntsc>
					                                
					</rate>
					<start>713</start>
					<end>779</end>
					<in>713</in>
					<out>779</out>
					<pproTicksIn>914456774963789</pproTicksIn>
					<pproTicksOut>914677708529577</pproTicksOut>
					<alphatype>straight</alphatype>
					<pixelaspectratio>square</pixelaspectratio>
					<anamorphic>FALSE</anamorphic>
					<file id="file-108">
					<name></name>
					<mediaSource>GraphicAndType</mediaSource>
					<rate>
					<timebase>60</timebase>
					<ntsc>TRUE</ntsc>
					</rate>
					<timecode>
					<rate>
					<timebase>60</timebase>
					<ntsc>TRUE</ntsc>
					</rate>
					<string>00:00:00:00</string>
					<frame>0</frame>
					<displayformat>NDF</displayformat>
					</timecode>
					<media>
					<video>
					<samplecharacteristics>
					<rate>
					<timebase>60</timebase>
					<ntsc>TRUE</ntsc>
					</rate>
					<width>1080</width>
					<height>1920</height>
					<anamorphic>FALSE</anamorphic>
					<pixelaspectratio>square</pixelaspectratio>
					<fielddominance>none</fielddominance>
					</samplecharacteristics>
					</video>
					</media>
					</file>
					<filter>
					<effect>
					<name></name>
					<effectid>GraphicAndType</effectid>
					<effectcategory>graphic</effectcategory>
					<effecttype>filter</effecttype>
					<mediatype>video</mediatype>
					<pproBypass>false</pproBypass>
					<parameter authoringApp="PremierePro">
					<parameterid>1</parameterid>
					<name></name>
					<hash>025b1101-ead6-0ca2-1feb-caf3000001fc</hash>
					<value>5AEAAAAAAABEMyIRDAAAAAAABgAKAAQABgAAAGQAAAAAAF4ASAAQAAwARABAADwAOAAAAAAAAAAAADQAMwAsAAAAKAAkACAAAAAAAAAAAAAAAAAAHAAAAAAAGgAAAAAAAAAUAAAAAAAAAAAAAAAAAAAAAAAAAAgAAAAAABsABwBeAAAAAAAAAUAAAABQAAAAbAAAAAIAAAAAAAEAAQAAAAAAQEEAAMBAAABAQAAAyEIAAAABIAAAAAIAAAACAAAAAAA2QwCASkTw/v//9P7///j+//8S////AAAAAAEAAAAEAAAAEQAAAEhHUFNvZWlLYWt1cG9wdGFpAAAAAQAAAAwAAAAIAAwABAAIAAgAAAAIAAAAUAAAAA8AAADvvIEAAAAAAAAAAAAAAAAAAAA2ACQAAAAgABwAAAAAABsAFAAAAAAAAAAAAAAAAAAAAAAAAAAAABAAAAAAAAAADAAAAAgABAA2AAAAAgAAABwAAAAcAAAAHAAAAAAAIEEAAAABaAAAAE3PAEOw////tP///wEAAAAUAAAAEAAaAAgABwAMAAAAEAAUABAAAAAAAAABHAAAAAAAoEEcAAAAAgAAAAAACgAIAAUABgAHAAoAAAAADAD//P///wQABAAEAAAACAAIAAYABwAIAAAAAAAMAA==</value>
					</parameter>
					<parameter authoringApp="PremierePro">
					<parameterid>2</parameterid>
					<name></name>
					<IsTimeVarying>false</IsTimeVarying>
					<ParameterControlType>11</ParameterControlType>
					<LowerBound>false</LowerBound>
					<UpperBound>false</UpperBound>
					<value>-91445760000000000,false,0,0,0,0,0,0</value>
					</parameter>
					<parameter authoringApp="PremierePro">
					<parameterid>3</parameterid>
					<name></name>
					<IsTimeVarying>false</IsTimeVarying>
					<value>-91445760000000000,0.5:0.5,0,0,0,0,0,0,5,4,0,0,0,0</value>
					</parameter>
					<parameter authoringApp="PremierePro">
					<parameterid>4</parameterid>
					<name></name>
					<IsTimeVarying>false</IsTimeVarying>
					<ParameterControlType>2</ParameterControlType>
					<LowerBound>0</LowerBound>
					<UpperBound>4000</UpperBound>
					<value>-91445760000000000,100.,0,0,0,0,0,0</value>
					</parameter>
					<parameter authoringApp="PremierePro">
					<parameterid>8</parameterid>
					<name></name>
					<IsTimeVarying>false</IsTimeVarying>
					<ParameterControlType>2</ParameterControlType>
					<LowerBound>0</LowerBound>
					<UpperBound>100</UpperBound>
					<value>-91445760000000000,100.,0,0,0,0,0,0</value>
					</parameter>
					</effect>
					</filter>
					<logginginfo>
					<description></description>
					<scene></scene>
					<shottake></shottake>
					<lognote></lognote>
					<good></good>
					<originalvideofilename></originalvideofilename>
					<originalaudiofilename></originalaudiofilename>
					</logginginfo>
					<colorinfo>
					<lut></lut>
					<lut1></lut1>
					<asc_sop></asc_sop>
					<asc_sat></asc_sat>
					<lut2></lut2>
					</colorinfo>
					<labels>
					</labels>
					</clipitem>
					<clipitem frameBlend="FALSE" id="clipitem-195">
					<masterclipid>masterclip-115</masterclipid>
					<name></name>
					<enabled>TRUE</enabled>
					<duration>2582774</duration>
					<rate>
					
					                                    <timebase>60</timebase>
					                                    <ntsc>TRUE</ntsc>
					                                
					</rate>
					<start>779</start>
					<end>839</end>
					<in>779</in>
					<out>839</out>
					<pproTicksIn>914456774963789</pproTicksIn>
					<pproTicksOut>914677708529577</pproTicksOut>
					<alphatype>straight</alphatype>
					<pixelaspectratio>square</pixelaspectratio>
					<anamorphic>FALSE</anamorphic>
					<file id="file-114">
					<name></name>
					<mediaSource>GraphicAndType</mediaSource>
					<rate>
					<timebase>60</timebase>
					<ntsc>TRUE</ntsc>
					</rate>
					<timecode>
					<rate>
					<timebase>60</timebase>
					<ntsc>TRUE</ntsc>
					</rate>
					<string>00:00:00:00</string>
					<frame>0</frame>
					<displayformat>NDF</displayformat>
					</timecode>
					<media>
					<video>
					<samplecharacteristics>
					<rate>
					<timebase>60</timebase>
					<ntsc>TRUE</ntsc>
					</rate>
					<width>1080</width>
					<height>1920</height>
					<anamorphic>FALSE</anamorphic>
					<pixelaspectratio>square</pixelaspectratio>
					<fielddominance>none</fielddominance>
					</samplecharacteristics>
					</video>
					</media>
					</file>
					<filter>
					<effect>
					<name></name>
					<effectid>GraphicAndType</effectid>
					<effectcategory>graphic</effectcategory>
					<effecttype>filter</effecttype>
					<mediatype>video</mediatype>
					<pproBypass>false</pproBypass>
					<parameter authoringApp="PremierePro">
					<parameterid>1</parameterid>
					<name></name>
					<hash>025b1101-ead6-0ca2-1feb-caf3000001fc</hash>
					<value>5AEAAAAAAABEMyIRDAAAAAAABgAKAAQABgAAAGQAAAAAAF4ASAAQAAwARABAADwAOAAAAAAAAAAAADQAMwAsAAAAKAAkACAAAAAAAAAAAAAAAAAAHAAAAAAAGgAAAAAAAAAUAAAAAAAAAAAAAAAAAAAAAAAAAAgAAAAAABsABwBeAAAAAAAAAUAAAABQAAAAbAAAAAIAAAAAAAEAAQAAAAAAQEEAAMBAAABAQAAAyEIAAAABIAAAAAIAAAACAAAAAAA2QwCASkTw/v//9P7///j+//8S////AAAAAAEAAAAEAAAAEQAAAEhHUFNvZWlLYWt1cG9wdGFpAAAAAQAAAAwAAAAIAAwABAAIAAgAAAAIAAAAUAAAAA8AAADvvIEAAAAAAAAAAAAAAAAAAAA2ACQAAAAgABwAAAAAABsAFAAAAAAAAAAAAAAAAAAAAAAAAAAAABAAAAAAAAAADAAAAAgABAA2AAAAAgAAABwAAAAcAAAAHAAAAAAAIEEAAAABaAAAAE3PAEOw////tP///wEAAAAUAAAAEAAaAAgABwAMAAAAEAAUABAAAAAAAAABHAAAAAAAoEEcAAAAAgAAAAAACgAIAAUABgAHAAoAAAAADAD//P///wQABAAEAAAACAAIAAYABwAIAAAAAAAMAA==</value>
					</parameter>
					<parameter authoringApp="PremierePro">
					<parameterid>2</parameterid>
					<name></name>
					<IsTimeVarying>false</IsTimeVarying>
					<ParameterControlType>11</ParameterControlType>
					<LowerBound>false</LowerBound>
					<UpperBound>false</UpperBound>
					<value>-91445760000000000,false,0,0,0,0,0,0</value>
					</parameter>
					<parameter authoringApp="PremierePro">
					<parameterid>3</parameterid>
					<name></name>
					<IsTimeVarying>false</IsTimeVarying>
					<value>-91445760000000000,0.5:0.5,0,0,0,0,0,0,5,4,0,0,0,0</value>
					</parameter>
					<parameter authoringApp="PremierePro">
					<parameterid>4</parameterid>
					<name></name>
					<IsTimeVarying>false</IsTimeVarying>
					<ParameterControlType>2</ParameterControlType>
					<LowerBound>0</LowerBound>
					<UpperBound>4000</UpperBound>
					<value>-91445760000000000,100.,0,0,0,0,0,0</value>
					</parameter>
					<parameter authoringApp="PremierePro">
					<parameterid>8</parameterid>
					<name></name>
					<IsTimeVarying>false</IsTimeVarying>
					<ParameterControlType>2</ParameterControlType>
					<LowerBound>0</LowerBound>
					<UpperBound>100</UpperBound>
					<value>-91445760000000000,100.,0,0,0,0,0,0</value>
					</parameter>
					</effect>
					</filter>
					<logginginfo>
					<description></description>
					<scene></scene>
					<shottake></shottake>
					<lognote></lognote>
					<good></good>
					<originalvideofilename></originalvideofilename>
					<originalaudiofilename></originalaudiofilename>
					</logginginfo>
					<colorinfo>
					<lut></lut>
					<lut1></lut1>
					<asc_sop></asc_sop>
					<asc_sat></asc_sat>
					<lut2></lut2>
					</colorinfo>
					<labels>
					</labels>
					</clipitem>
					<clipitem frameBlend="FALSE" id="clipitem-203">
					<masterclipid>masterclip-123</masterclipid>
					<name></name>
					<enabled>TRUE</enabled>
					<duration>2582774</duration>
					<rate>
					
					                                    <timebase>60</timebase>
					                                    <ntsc>TRUE</ntsc>
					                                
					</rate>
					<start>845</start>
					<end>905</end>
					<in>845</in>
					<out>905</out>
					<pproTicksIn>914456774963789</pproTicksIn>
					<pproTicksOut>914677708529577</pproTicksOut>
					<alphatype>straight</alphatype>
					<pixelaspectratio>square</pixelaspectratio>
					<anamorphic>FALSE</anamorphic>
					<file id="file-122">
					<name></name>
					<mediaSource>GraphicAndType</mediaSource>
					<rate>
					<timebase>60</timebase>
					<ntsc>TRUE</ntsc>
					</rate>
					<timecode>
					<rate>
					<timebase>60</timebase>
					<ntsc>TRUE</ntsc>
					</rate>
					<string>00:00:00:00</string>
					<frame>0</frame>
					<displayformat>NDF</displayformat>
					</timecode>
					<media>
					<video>
					<samplecharacteristics>
					<rate>
					<timebase>60</timebase>
					<ntsc>TRUE</ntsc>
					</rate>
					<width>1080</width>
					<height>1920</height>
					<anamorphic>FALSE</anamorphic>
					<pixelaspectratio>square</pixelaspectratio>
					<fielddominance>none</fielddominance>
					</samplecharacteristics>
					</video>
					</media>
					</file>
					<filter>
					<effect>
					<name></name>
					<effectid>GraphicAndType</effectid>
					<effectcategory>graphic</effectcategory>
					<effecttype>filter</effecttype>
					<mediatype>video</mediatype>
					<pproBypass>false</pproBypass>
					<parameter authoringApp="PremierePro">
					<parameterid>1</parameterid>
					<name></name>
					<hash>025b1101-ead6-0ca2-1feb-caf3000001fc</hash>
					<value>5AEAAAAAAABEMyIRDAAAAAAABgAKAAQABgAAAGQAAAAAAF4ASAAQAAwARABAADwAOAAAAAAAAAAAADQAMwAsAAAAKAAkACAAAAAAAAAAAAAAAAAAHAAAAAAAGgAAAAAAAAAUAAAAAAAAAAAAAAAAAAAAAAAAAAgAAAAAABsABwBeAAAAAAAAAUAAAABQAAAAbAAAAAIAAAAAAAEAAQAAAAAAQEEAAMBAAABAQAAAyEIAAAABIAAAAAIAAAACAAAAAAA2QwCASkTw/v//9P7///j+//8S////AAAAAAEAAAAEAAAAEQAAAEhHUFNvZWlLYWt1cG9wdGFpAAAAAQAAAAwAAAAIAAwABAAIAAgAAAAIAAAAUAAAAA8AAADvvIEAAAAAAAAAAAAAAAAAAAA2ACQAAAAgABwAAAAAABsAFAAAAAAAAAAAAAAAAAAAAAAAAAAAABAAAAAAAAAADAAAAAgABAA2AAAAAgAAABwAAAAcAAAAHAAAAAAAIEEAAAABaAAAAE3PAEOw////tP///wEAAAAUAAAAEAAaAAgABwAMAAAAEAAUABAAAAAAAAABHAAAAAAAoEEcAAAAAgAAAAAACgAIAAUABgAHAAoAAAAADAD//P///wQABAAEAAAACAAIAAYABwAIAAAAAAAMAA==</value>
					</parameter>
					<parameter authoringApp="PremierePro">
					<parameterid>2</parameterid>
					<name></name>
					<IsTimeVarying>false</IsTimeVarying>
					<ParameterControlType>11</ParameterControlType>
					<LowerBound>false</LowerBound>
					<UpperBound>false</UpperBound>
					<value>-91445760000000000,false,0,0,0,0,0,0</value>
					</parameter>
					<parameter authoringApp="PremierePro">
					<parameterid>3</parameterid>
					<name></name>
					<IsTimeVarying>false</IsTimeVarying>
					<value>-91445760000000000,0.5:0.5,0,0,0,0,0,0,5,4,0,0,0,0</value>
					</parameter>
					<parameter authoringApp="PremierePro">
					<parameterid>4</parameterid>
					<name></name>
					<IsTimeVarying>false</IsTimeVarying>
					<ParameterControlType>2</ParameterControlType>
					<LowerBound>0</LowerBound>
					<UpperBound>4000</UpperBound>
					<value>-91445760000000000,100.,0,0,0,0,0,0</value>
					</parameter>
					<parameter authoringApp="PremierePro">
					<parameterid>8</parameterid>
					<name></name>
					<IsTimeVarying>false</IsTimeVarying>
					<ParameterControlType>2</ParameterControlType>
					<LowerBound>0</LowerBound>
					<UpperBound>100</UpperBound>
					<value>-91445760000000000,100.,0,0,0,0,0,0</value>
					</parameter>
					</effect>
					</filter>
					<logginginfo>
					<description></description>
					<scene></scene>
					<shottake></shottake>
					<lognote></lognote>
					<good></good>
					<originalvideofilename></originalvideofilename>
					<originalaudiofilename></originalaudiofilename>
					</logginginfo>
					<colorinfo>
					<lut></lut>
					<lut1></lut1>
					<asc_sop></asc_sop>
					<asc_sat></asc_sat>
					<lut2></lut2>
					</colorinfo>
					<labels>
					</labels>
					</clipitem>
					<clipitem frameBlend="FALSE" id="clipitem-212">
					<masterclipid>masterclip-132</masterclipid>
					<name></name>
					<enabled>TRUE</enabled>
					<duration>2582774</duration>
					<rate>
					
					                                    <timebase>60</timebase>
					                                    <ntsc>TRUE</ntsc>
					                                
					</rate>
					<start>911</start>
					<end>971</end>
					<in>911</in>
					<out>971</out>
					<pproTicksIn>914456774963789</pproTicksIn>
					<pproTicksOut>914677708529577</pproTicksOut>
					<alphatype>straight</alphatype>
					<pixelaspectratio>square</pixelaspectratio>
					<anamorphic>FALSE</anamorphic>
					<file id="file-131">
					<name></name>
					<mediaSource>GraphicAndType</mediaSource>
					<rate>
					<timebase>60</timebase>
					<ntsc>TRUE</ntsc>
					</rate>
					<timecode>
					<rate>
					<timebase>60</timebase>
					<ntsc>TRUE</ntsc>
					</rate>
					<string>00:00:00:00</string>
					<frame>0</frame>
					<displayformat>NDF</displayformat>
					</timecode>
					<media>
					<video>
					<samplecharacteristics>
					<rate>
					<timebase>60</timebase>
					<ntsc>TRUE</ntsc>
					</rate>
					<width>1080</width>
					<height>1920</height>
					<anamorphic>FALSE</anamorphic>
					<pixelaspectratio>square</pixelaspectratio>
					<fielddominance>none</fielddominance>
					</samplecharacteristics>
					</video>
					</media>
					</file>
					<filter>
					<effect>
					<name></name>
					<effectid>GraphicAndType</effectid>
					<effectcategory>graphic</effectcategory>
					<effecttype>filter</effecttype>
					<mediatype>video</mediatype>
					<pproBypass>false</pproBypass>
					<parameter authoringApp="PremierePro">
					<parameterid>1</parameterid>
					<name></name>
					<hash>025b1101-ead6-0ca2-1feb-caf3000001fc</hash>
					<value>5AEAAAAAAABEMyIRDAAAAAAABgAKAAQABgAAAGQAAAAAAF4ASAAQAAwARABAADwAOAAAAAAAAAAAADQAMwAsAAAAKAAkACAAAAAAAAAAAAAAAAAAHAAAAAAAGgAAAAAAAAAUAAAAAAAAAAAAAAAAAAAAAAAAAAgAAAAAABsABwBeAAAAAAAAAUAAAABQAAAAbAAAAAIAAAAAAAEAAQAAAAAAQEEAAMBAAABAQAAAyEIAAAABIAAAAAIAAAACAAAAAAA2QwCASkTw/v//9P7///j+//8S////AAAAAAEAAAAEAAAAEQAAAEhHUFNvZWlLYWt1cG9wdGFpAAAAAQAAAAwAAAAIAAwABAAIAAgAAAAIAAAAUAAAAA8AAADvvIEAAAAAAAAAAAAAAAAAAAA2ACQAAAAgABwAAAAAABsAFAAAAAAAAAAAAAAAAAAAAAAAAAAAABAAAAAAAAAADAAAAAgABAA2AAAAAgAAABwAAAAcAAAAHAAAAAAAIEEAAAABaAAAAE3PAEOw////tP///wEAAAAUAAAAEAAaAAgABwAMAAAAEAAUABAAAAAAAAABHAAAAAAAoEEcAAAAAgAAAAAACgAIAAUABgAHAAoAAAAADAD//P///wQABAAEAAAACAAIAAYABwAIAAAAAAAMAA==</value>
					</parameter>
					<parameter authoringApp="PremierePro">
					<parameterid>2</parameterid>
					<name></name>
					<IsTimeVarying>false</IsTimeVarying>
					<ParameterControlType>11</ParameterControlType>
					<LowerBound>false</LowerBound>
					<UpperBound>false</UpperBound>
					<value>-91445760000000000,false,0,0,0,0,0,0</value>
					</parameter>
					<parameter authoringApp="PremierePro">
					<parameterid>3</parameterid>
					<name></name>
					<IsTimeVarying>false</IsTimeVarying>
					<value>-91445760000000000,0.5:0.5,0,0,0,0,0,0,5,4,0,0,0,0</value>
					</parameter>
					<parameter authoringApp="PremierePro">
					<parameterid>4</parameterid>
					<name></name>
					<IsTimeVarying>false</IsTimeVarying>
					<ParameterControlType>2</ParameterControlType>
					<LowerBound>0</LowerBound>
					<UpperBound>4000</UpperBound>
					<value>-91445760000000000,100.,0,0,0,0,0,0</value>
					</parameter>
					<parameter authoringApp="PremierePro">
					<parameterid>8</parameterid>
					<name></name>
					<IsTimeVarying>false</IsTimeVarying>
					<ParameterControlType>2</ParameterControlType>
					<LowerBound>0</LowerBound>
					<UpperBound>100</UpperBound>
					<value>-91445760000000000,100.,0,0,0,0,0,0</value>
					</parameter>
					</effect>
					</filter>
					<logginginfo>
					<description></description>
					<scene></scene>
					<shottake></shottake>
					<lognote></lognote>
					<good></good>
					<originalvideofilename></originalvideofilename>
					<originalaudiofilename></originalaudiofilename>
					</logginginfo>
					<colorinfo>
					<lut></lut>
					<lut1></lut1>
					<asc_sop></asc_sop>
					<asc_sat></asc_sat>
					<lut2></lut2>
					</colorinfo>
					<labels>
					</labels>
					</clipitem>
					<clipitem frameBlend="FALSE" id="clipitem-222">
					<masterclipid>masterclip-142</masterclipid>
					<name></name>
					<enabled>TRUE</enabled>
					<duration>2582774</duration>
					<rate>
					
					                                    <timebase>60</timebase>
					                                    <ntsc>TRUE</ntsc>
					                                
					</rate>
					<start>971</start>
					<end>1031</end>
					<in>971</in>
					<out>1031</out>
					<pproTicksIn>914456774963789</pproTicksIn>
					<pproTicksOut>914677708529577</pproTicksOut>
					<alphatype>straight</alphatype>
					<pixelaspectratio>square</pixelaspectratio>
					<anamorphic>FALSE</anamorphic>
					<file id="file-141">
					<name></name>
					<mediaSource>GraphicAndType</mediaSource>
					<rate>
					<timebase>60</timebase>
					<ntsc>TRUE</ntsc>
					</rate>
					<timecode>
					<rate>
					<timebase>60</timebase>
					<ntsc>TRUE</ntsc>
					</rate>
					<string>00:00:00:00</string>
					<frame>0</frame>
					<displayformat>NDF</displayformat>
					</timecode>
					<media>
					<video>
					<samplecharacteristics>
					<rate>
					<timebase>60</timebase>
					<ntsc>TRUE</ntsc>
					</rate>
					<width>1080</width>
					<height>1920</height>
					<anamorphic>FALSE</anamorphic>
					<pixelaspectratio>square</pixelaspectratio>
					<fielddominance>none</fielddominance>
					</samplecharacteristics>
					</video>
					</media>
					</file>
					<filter>
					<effect>
					<name></name>
					<effectid>GraphicAndType</effectid>
					<effectcategory>graphic</effectcategory>
					<effecttype>filter</effecttype>
					<mediatype>video</mediatype>
					<pproBypass>false</pproBypass>
					<parameter authoringApp="PremierePro">
					<parameterid>1</parameterid>
					<name></name>
					<hash>025b1101-ead6-0ca2-1feb-caf3000001fc</hash>
					<value>5AEAAAAAAABEMyIRDAAAAAAABgAKAAQABgAAAGQAAAAAAF4ASAAQAAwARABAADwAOAAAAAAAAAAAADQAMwAsAAAAKAAkACAAAAAAAAAAAAAAAAAAHAAAAAAAGgAAAAAAAAAUAAAAAAAAAAAAAAAAAAAAAAAAAAgAAAAAABsABwBeAAAAAAAAAUAAAABQAAAAbAAAAAIAAAAAAAEAAQAAAAAAQEEAAMBAAABAQAAAyEIAAAABIAAAAAIAAAACAAAAAAA2QwCASkTw/v//9P7///j+//8S////AAAAAAEAAAAEAAAAEQAAAEhHUFNvZWlLYWt1cG9wdGFpAAAAAQAAAAwAAAAIAAwABAAIAAgAAAAIAAAAUAAAAA8AAADvvIEAAAAAAAAAAAAAAAAAAAA2ACQAAAAgABwAAAAAABsAFAAAAAAAAAAAAAAAAAAAAAAAAAAAABAAAAAAAAAADAAAAAgABAA2AAAAAgAAABwAAAAcAAAAHAAAAAAAIEEAAAABaAAAAE3PAEOw////tP///wEAAAAUAAAAEAAaAAgABwAMAAAAEAAUABAAAAAAAAABHAAAAAAAoEEcAAAAAgAAAAAACgAIAAUABgAHAAoAAAAADAD//P///wQABAAEAAAACAAIAAYABwAIAAAAAAAMAA==</value>
					</parameter>
					<parameter authoringApp="PremierePro">
					<parameterid>2</parameterid>
					<name></name>
					<IsTimeVarying>false</IsTimeVarying>
					<ParameterControlType>11</ParameterControlType>
					<LowerBound>false</LowerBound>
					<UpperBound>false</UpperBound>
					<value>-91445760000000000,false,0,0,0,0,0,0</value>
					</parameter>
					<parameter authoringApp="PremierePro">
					<parameterid>3</parameterid>
					<name></name>
					<IsTimeVarying>false</IsTimeVarying>
					<value>-91445760000000000,0.5:0.5,0,0,0,0,0,0,5,4,0,0,0,0</value>
					</parameter>
					<parameter authoringApp="PremierePro">
					<parameterid>4</parameterid>
					<name></name>
					<IsTimeVarying>false</IsTimeVarying>
					<ParameterControlType>2</ParameterControlType>
					<LowerBound>0</LowerBound>
					<UpperBound>4000</UpperBound>
					<value>-91445760000000000,100.,0,0,0,0,0,0</value>
					</parameter>
					<parameter authoringApp="PremierePro">
					<parameterid>8</parameterid>
					<name></name>
					<IsTimeVarying>false</IsTimeVarying>
					<ParameterControlType>2</ParameterControlType>
					<LowerBound>0</LowerBound>
					<UpperBound>100</UpperBound>
					<value>-91445760000000000,100.,0,0,0,0,0,0</value>
					</parameter>
					</effect>
					</filter>
					<logginginfo>
					<description></description>
					<scene></scene>
					<shottake></shottake>
					<lognote></lognote>
					<good></good>
					<originalvideofilename></originalvideofilename>
					<originalaudiofilename></originalaudiofilename>
					</logginginfo>
					<colorinfo>
					<lut></lut>
					<lut1></lut1>
					<asc_sop></asc_sop>
					<asc_sat></asc_sat>
					<lut2></lut2>
					</colorinfo>
					<labels>
					</labels>
					</clipitem>
					<clipitem frameBlend="FALSE" id="clipitem-233">
					<masterclipid>masterclip-153</masterclipid>
					<name></name>
					<enabled>TRUE</enabled>
					<duration>2582774</duration>
					<rate>
					
					                                    <timebase>60</timebase>
					                                    <ntsc>TRUE</ntsc>
					                                
					</rate>
					<start>1031</start>
					<end>1091</end>
					<in>1031</in>
					<out>1091</out>
					<pproTicksIn>914456774963789</pproTicksIn>
					<pproTicksOut>914677708529577</pproTicksOut>
					<alphatype>straight</alphatype>
					<pixelaspectratio>square</pixelaspectratio>
					<anamorphic>FALSE</anamorphic>
					<file id="file-152">
					<name></name>
					<mediaSource>GraphicAndType</mediaSource>
					<rate>
					<timebase>60</timebase>
					<ntsc>TRUE</ntsc>
					</rate>
					<timecode>
					<rate>
					<timebase>60</timebase>
					<ntsc>TRUE</ntsc>
					</rate>
					<string>00:00:00:00</string>
					<frame>0</frame>
					<displayformat>NDF</displayformat>
					</timecode>
					<media>
					<video>
					<samplecharacteristics>
					<rate>
					<timebase>60</timebase>
					<ntsc>TRUE</ntsc>
					</rate>
					<width>1080</width>
					<height>1920</height>
					<anamorphic>FALSE</anamorphic>
					<pixelaspectratio>square</pixelaspectratio>
					<fielddominance>none</fielddominance>
					</samplecharacteristics>
					</video>
					</media>
					</file>
					<filter>
					<effect>
					<name></name>
					<effectid>GraphicAndType</effectid>
					<effectcategory>graphic</effectcategory>
					<effecttype>filter</effecttype>
					<mediatype>video</mediatype>
					<pproBypass>false</pproBypass>
					<parameter authoringApp="PremierePro">
					<parameterid>1</parameterid>
					<name></name>
					<hash>025b1101-ead6-0ca2-1feb-caf3000001fc</hash>
					<value>5AEAAAAAAABEMyIRDAAAAAAABgAKAAQABgAAAGQAAAAAAF4ASAAQAAwARABAADwAOAAAAAAAAAAAADQAMwAsAAAAKAAkACAAAAAAAAAAAAAAAAAAHAAAAAAAGgAAAAAAAAAUAAAAAAAAAAAAAAAAAAAAAAAAAAgAAAAAABsABwBeAAAAAAAAAUAAAABQAAAAbAAAAAIAAAAAAAEAAQAAAAAAQEEAAMBAAABAQAAAyEIAAAABIAAAAAIAAAACAAAAAAA2QwCASkTw/v//9P7///j+//8S////AAAAAAEAAAAEAAAAEQAAAEhHUFNvZWlLYWt1cG9wdGFpAAAAAQAAAAwAAAAIAAwABAAIAAgAAAAIAAAAUAAAAA8AAADvvIEAAAAAAAAAAAAAAAAAAAA2ACQAAAAgABwAAAAAABsAFAAAAAAAAAAAAAAAAAAAAAAAAAAAABAAAAAAAAAADAAAAAgABAA2AAAAAgAAABwAAAAcAAAAHAAAAAAAIEEAAAABaAAAAE3PAEOw////tP///wEAAAAUAAAAEAAaAAgABwAMAAAAEAAUABAAAAAAAAABHAAAAAAAoEEcAAAAAgAAAAAACgAIAAUABgAHAAoAAAAADAD//P///wQABAAEAAAACAAIAAYABwAIAAAAAAAMAA==</value>
					</parameter>
					<parameter authoringApp="PremierePro">
					<parameterid>2</parameterid>
					<name></name>
					<IsTimeVarying>false</IsTimeVarying>
					<ParameterControlType>11</ParameterControlType>
					<LowerBound>false</LowerBound>
					<UpperBound>false</UpperBound>
					<value>-91445760000000000,false,0,0,0,0,0,0</value>
					</parameter>
					<parameter authoringApp="PremierePro">
					<parameterid>3</parameterid>
					<name></name>
					<IsTimeVarying>false</IsTimeVarying>
					<value>-91445760000000000,0.5:0.5,0,0,0,0,0,0,5,4,0,0,0,0</value>
					</parameter>
					<parameter authoringApp="PremierePro">
					<parameterid>4</parameterid>
					<name></name>
					<IsTimeVarying>false</IsTimeVarying>
					<ParameterControlType>2</ParameterControlType>
					<LowerBound>0</LowerBound>
					<UpperBound>4000</UpperBound>
					<value>-91445760000000000,100.,0,0,0,0,0,0</value>
					</parameter>
					<parameter authoringApp="PremierePro">
					<parameterid>8</parameterid>
					<name></name>
					<IsTimeVarying>false</IsTimeVarying>
					<ParameterControlType>2</ParameterControlType>
					<LowerBound>0</LowerBound>
					<UpperBound>100</UpperBound>
					<value>-91445760000000000,100.,0,0,0,0,0,0</value>
					</parameter>
					</effect>
					</filter>
					<logginginfo>
					<description></description>
					<scene></scene>
					<shottake></shottake>
					<lognote></lognote>
					<good></good>
					<originalvideofilename></originalvideofilename>
					<originalaudiofilename></originalaudiofilename>
					</logginginfo>
					<colorinfo>
					<lut></lut>
					<lut1></lut1>
					<asc_sop></asc_sop>
					<asc_sat></asc_sat>
					<lut2></lut2>
					</colorinfo>
					<labels>
					</labels>
					</clipitem>
					<clipitem frameBlend="FALSE" id="clipitem-241">
					<masterclipid>masterclip-161</masterclipid>
					<name></name>
					<enabled>TRUE</enabled>
					<duration>2582774</duration>
					<rate>
					
					                                    <timebase>60</timebase>
					                                    <ntsc>TRUE</ntsc>
					                                
					</rate>
					<start>1097</start>
					<end>1157</end>
					<in>1097</in>
					<out>1157</out>
					<pproTicksIn>914456774963789</pproTicksIn>
					<pproTicksOut>914677708529577</pproTicksOut>
					<alphatype>straight</alphatype>
					<pixelaspectratio>square</pixelaspectratio>
					<anamorphic>FALSE</anamorphic>
					<file id="file-160">
					<name></name>
					<mediaSource>GraphicAndType</mediaSource>
					<rate>
					<timebase>60</timebase>
					<ntsc>TRUE</ntsc>
					</rate>
					<timecode>
					<rate>
					<timebase>60</timebase>
					<ntsc>TRUE</ntsc>
					</rate>
					<string>00:00:00:00</string>
					<frame>0</frame>
					<displayformat>NDF</displayformat>
					</timecode>
					<media>
					<video>
					<samplecharacteristics>
					<rate>
					<timebase>60</timebase>
					<ntsc>TRUE</ntsc>
					</rate>
					<width>1080</width>
					<height>1920</height>
					<anamorphic>FALSE</anamorphic>
					<pixelaspectratio>square</pixelaspectratio>
					<fielddominance>none</fielddominance>
					</samplecharacteristics>
					</video>
					</media>
					</file>
					<filter>
					<effect>
					<name></name>
					<effectid>GraphicAndType</effectid>
					<effectcategory>graphic</effectcategory>
					<effecttype>filter</effecttype>
					<mediatype>video</mediatype>
					<pproBypass>false</pproBypass>
					<parameter authoringApp="PremierePro">
					<parameterid>1</parameterid>
					<name></name>
					<hash>025b1101-ead6-0ca2-1feb-caf3000001fc</hash>
					<value>5AEAAAAAAABEMyIRDAAAAAAABgAKAAQABgAAAGQAAAAAAF4ASAAQAAwARABAADwAOAAAAAAAAAAAADQAMwAsAAAAKAAkACAAAAAAAAAAAAAAAAAAHAAAAAAAGgAAAAAAAAAUAAAAAAAAAAAAAAAAAAAAAAAAAAgAAAAAABsABwBeAAAAAAAAAUAAAABQAAAAbAAAAAIAAAAAAAEAAQAAAAAAQEEAAMBAAABAQAAAyEIAAAABIAAAAAIAAAACAAAAAAA2QwCASkTw/v//9P7///j+//8S////AAAAAAEAAAAEAAAAEQAAAEhHUFNvZWlLYWt1cG9wdGFpAAAAAQAAAAwAAAAIAAwABAAIAAgAAAAIAAAAUAAAAA8AAADvvIEAAAAAAAAAAAAAAAAAAAA2ACQAAAAgABwAAAAAABsAFAAAAAAAAAAAAAAAAAAAAAAAAAAAABAAAAAAAAAADAAAAAgABAA2AAAAAgAAABwAAAAcAAAAHAAAAAAAIEEAAAABaAAAAE3PAEOw////tP///wEAAAAUAAAAEAAaAAgABwAMAAAAEAAUABAAAAAAAAABHAAAAAAAoEEcAAAAAgAAAAAACgAIAAUABgAHAAoAAAAADAD//P///wQABAAEAAAACAAIAAYABwAIAAAAAAAMAA==</value>
					</parameter>
					<parameter authoringApp="PremierePro">
					<parameterid>2</parameterid>
					<name></name>
					<IsTimeVarying>false</IsTimeVarying>
					<ParameterControlType>11</ParameterControlType>
					<LowerBound>false</LowerBound>
					<UpperBound>false</UpperBound>
					<value>-91445760000000000,false,0,0,0,0,0,0</value>
					</parameter>
					<parameter authoringApp="PremierePro">
					<parameterid>3</parameterid>
					<name></name>
					<IsTimeVarying>false</IsTimeVarying>
					<value>-91445760000000000,0.5:0.5,0,0,0,0,0,0,5,4,0,0,0,0</value>
					</parameter>
					<parameter authoringApp="PremierePro">
					<parameterid>4</parameterid>
					<name></name>
					<IsTimeVarying>false</IsTimeVarying>
					<ParameterControlType>2</ParameterControlType>
					<LowerBound>0</LowerBound>
					<UpperBound>4000</UpperBound>
					<value>-91445760000000000,100.,0,0,0,0,0,0</value>
					</parameter>
					<parameter authoringApp="PremierePro">
					<parameterid>8</parameterid>
					<name></name>
					<IsTimeVarying>false</IsTimeVarying>
					<ParameterControlType>2</ParameterControlType>
					<LowerBound>0</LowerBound>
					<UpperBound>100</UpperBound>
					<value>-91445760000000000,100.,0,0,0,0,0,0</value>
					</parameter>
					</effect>
					</filter>
					<logginginfo>
					<description></description>
					<scene></scene>
					<shottake></shottake>
					<lognote></lognote>
					<good></good>
					<originalvideofilename></originalvideofilename>
					<originalaudiofilename></originalaudiofilename>
					</logginginfo>
					<colorinfo>
					<lut></lut>
					<lut1></lut1>
					<asc_sop></asc_sop>
					<asc_sat></asc_sat>
					<lut2></lut2>
					</colorinfo>
					<labels>
					</labels>
					</clipitem>
					<clipitem id="clipitem-244"/>
					                        </track>
					                        <track TL.SQTrackShy="0" TL.SQTrackExpandedHeight="25" TL.SQTrackExpanded="0" MZ.TrackTargeted="0">
					<clipitem frameBlend="FALSE" id="clipitem-245">
					<masterclipid>masterclip-165</masterclipid>
					<name></name>
					<enabled>TRUE</enabled>
					<duration>2582774</duration>
					<rate>
					
					                                    <timebase>60</timebase>
					                                    <ntsc>TRUE</ntsc>
					                                
					</rate>
					<start>1157</start>
					<end>1223</end>
					<in>1157</in>
					<out>1223</out>
					<pproTicksIn>914456774963789</pproTicksIn>
					<pproTicksOut>914677708529577</pproTicksOut>
					<alphatype>straight</alphatype>
					<pixelaspectratio>square</pixelaspectratio>
					<anamorphic>FALSE</anamorphic>
					<file id="file-164">
					<name></name>
					<mediaSource>GraphicAndType</mediaSource>
					<rate>
					<timebase>60</timebase>
					<ntsc>TRUE</ntsc>
					</rate>
					<timecode>
					<rate>
					<timebase>60</timebase>
					<ntsc>TRUE</ntsc>
					</rate>
					<string>00:00:00:00</string>
					<frame>0</frame>
					<displayformat>NDF</displayformat>
					</timecode>
					<media>
					<video>
					<samplecharacteristics>
					<rate>
					<timebase>60</timebase>
					<ntsc>TRUE</ntsc>
					</rate>
					<width>1080</width>
					<height>1920</height>
					<anamorphic>FALSE</anamorphic>
					<pixelaspectratio>square</pixelaspectratio>
					<fielddominance>none</fielddominance>
					</samplecharacteristics>
					</video>
					</media>
					</file>
					<filter>
					<effect>
					<name></name>
					<effectid>GraphicAndType</effectid>
					<effectcategory>graphic</effectcategory>
					<effecttype>filter</effecttype>
					<mediatype>video</mediatype>
					<pproBypass>false</pproBypass>
					<parameter authoringApp="PremierePro">
					<parameterid>1</parameterid>
					<name></name>
					<hash>025b1101-ead6-0ca2-1feb-caf3000001fc</hash>
					<value>5AEAAAAAAABEMyIRDAAAAAAABgAKAAQABgAAAGQAAAAAAF4ASAAQAAwARABAADwAOAAAAAAAAAAAADQAMwAsAAAAKAAkACAAAAAAAAAAAAAAAAAAHAAAAAAAGgAAAAAAAAAUAAAAAAAAAAAAAAAAAAAAAAAAAAgAAAAAABsABwBeAAAAAAAAAUAAAABQAAAAbAAAAAIAAAAAAAEAAQAAAAAAQEEAAMBAAABAQAAAyEIAAAABIAAAAAIAAAACAAAAAAA2QwCASkTw/v//9P7///j+//8S////AAAAAAEAAAAEAAAAEQAAAEhHUFNvZWlLYWt1cG9wdGFpAAAAAQAAAAwAAAAIAAwABAAIAAgAAAAIAAAAUAAAAA8AAADvvIEAAAAAAAAAAAAAAAAAAAA2ACQAAAAgABwAAAAAABsAFAAAAAAAAAAAAAAAAAAAAAAAAAAAABAAAAAAAAAADAAAAAgABAA2AAAAAgAAABwAAAAcAAAAHAAAAAAAIEEAAAABaAAAAE3PAEOw////tP///wEAAAAUAAAAEAAaAAgABwAMAAAAEAAUABAAAAAAAAABHAAAAAAAoEEcAAAAAgAAAAAACgAIAAUABgAHAAoAAAAADAD//P///wQABAAEAAAACAAIAAYABwAIAAAAAAAMAA==</value>
					</parameter>
					<parameter authoringApp="PremierePro">
					<parameterid>2</parameterid>
					<name></name>
					<IsTimeVarying>false</IsTimeVarying>
					<ParameterControlType>11</ParameterControlType>
					<LowerBound>false</LowerBound>
					<UpperBound>false</UpperBound>
					<value>-91445760000000000,false,0,0,0,0,0,0</value>
					</parameter>
					<parameter authoringApp="PremierePro">
					<parameterid>3</parameterid>
					<name></name>
					<IsTimeVarying>false</IsTimeVarying>
					<value>-91445760000000000,0.5:0.5,0,0,0,0,0,0,5,4,0,0,0,0</value>
					</parameter>
					<parameter authoringApp="PremierePro">
					<parameterid>4</parameterid>
					<name></name>
					<IsTimeVarying>false</IsTimeVarying>
					<ParameterControlType>2</ParameterControlType>
					<LowerBound>0</LowerBound>
					<UpperBound>4000</UpperBound>
					<value>-91445760000000000,100.,0,0,0,0,0,0</value>
					</parameter>
					<parameter authoringApp="PremierePro">
					<parameterid>8</parameterid>
					<name></name>
					<IsTimeVarying>false</IsTimeVarying>
					<ParameterControlType>2</ParameterControlType>
					<LowerBound>0</LowerBound>
					<UpperBound>100</UpperBound>
					<value>-91445760000000000,100.,0,0,0,0,0,0</value>
					</parameter>
					</effect>
					</filter>
					<logginginfo>
					<description></description>
					<scene></scene>
					<shottake></shottake>
					<lognote></lognote>
					<good></good>
					<originalvideofilename></originalvideofilename>
					<originalaudiofilename></originalaudiofilename>
					</logginginfo>
					<colorinfo>
					<lut></lut>
					<lut1></lut1>
					<asc_sop></asc_sop>
					<asc_sat></asc_sat>
					<lut2></lut2>
					</colorinfo>
					<labels>
					</labels>
					</clipitem>
					<clipitem frameBlend="FALSE" id="clipitem-252">
					<masterclipid>masterclip-172</masterclipid>
					<name></name>
					<enabled>TRUE</enabled>
					<duration>2582774</duration>
					<rate>
					
					                                    <timebase>60</timebase>
					                                    <ntsc>TRUE</ntsc>
					                                
					</rate>
					<start>1247</start>
					<end>1307</end>
					<in>1247</in>
					<out>1307</out>
					<pproTicksIn>914456774963789</pproTicksIn>
					<pproTicksOut>914677708529577</pproTicksOut>
					<alphatype>straight</alphatype>
					<pixelaspectratio>square</pixelaspectratio>
					<anamorphic>FALSE</anamorphic>
					<file id="file-171">
					<name></name>
					<mediaSource>GraphicAndType</mediaSource>
					<rate>
					<timebase>60</timebase>
					<ntsc>TRUE</ntsc>
					</rate>
					<timecode>
					<rate>
					<timebase>60</timebase>
					<ntsc>TRUE</ntsc>
					</rate>
					<string>00:00:00:00</string>
					<frame>0</frame>
					<displayformat>NDF</displayformat>
					</timecode>
					<media>
					<video>
					<samplecharacteristics>
					<rate>
					<timebase>60</timebase>
					<ntsc>TRUE</ntsc>
					</rate>
					<width>1080</width>
					<height>1920</height>
					<anamorphic>FALSE</anamorphic>
					<pixelaspectratio>square</pixelaspectratio>
					<fielddominance>none</fielddominance>
					</samplecharacteristics>
					</video>
					</media>
					</file>
					<filter>
					<effect>
					<name></name>
					<effectid>GraphicAndType</effectid>
					<effectcategory>graphic</effectcategory>
					<effecttype>filter</effecttype>
					<mediatype>video</mediatype>
					<pproBypass>false</pproBypass>
					<parameter authoringApp="PremierePro">
					<parameterid>1</parameterid>
					<name></name>
					<hash>025b1101-ead6-0ca2-1feb-caf3000001fc</hash>
					<value>5AEAAAAAAABEMyIRDAAAAAAABgAKAAQABgAAAGQAAAAAAF4ASAAQAAwARABAADwAOAAAAAAAAAAAADQAMwAsAAAAKAAkACAAAAAAAAAAAAAAAAAAHAAAAAAAGgAAAAAAAAAUAAAAAAAAAAAAAAAAAAAAAAAAAAgAAAAAABsABwBeAAAAAAAAAUAAAABQAAAAbAAAAAIAAAAAAAEAAQAAAAAAQEEAAMBAAABAQAAAyEIAAAABIAAAAAIAAAACAAAAAAA2QwCASkTw/v//9P7///j+//8S////AAAAAAEAAAAEAAAAEQAAAEhHUFNvZWlLYWt1cG9wdGFpAAAAAQAAAAwAAAAIAAwABAAIAAgAAAAIAAAAUAAAAA8AAADvvIEAAAAAAAAAAAAAAAAAAAA2ACQAAAAgABwAAAAAABsAFAAAAAAAAAAAAAAAAAAAAAAAAAAAABAAAAAAAAAADAAAAAgABAA2AAAAAgAAABwAAAAcAAAAHAAAAAAAIEEAAAABaAAAAE3PAEOw////tP///wEAAAAUAAAAEAAaAAgABwAMAAAAEAAUABAAAAAAAAABHAAAAAAAoEEcAAAAAgAAAAAACgAIAAUABgAHAAoAAAAADAD//P///wQABAAEAAAACAAIAAYABwAIAAAAAAAMAA==</value>
					</parameter>
					<parameter authoringApp="PremierePro">
					<parameterid>2</parameterid>
					<name></name>
					<IsTimeVarying>false</IsTimeVarying>
					<ParameterControlType>11</ParameterControlType>
					<LowerBound>false</LowerBound>
					<UpperBound>false</UpperBound>
					<value>-91445760000000000,false,0,0,0,0,0,0</value>
					</parameter>
					<parameter authoringApp="PremierePro">
					<parameterid>3</parameterid>
					<name></name>
					<IsTimeVarying>false</IsTimeVarying>
					<value>-91445760000000000,0.5:0.5,0,0,0,0,0,0,5,4,0,0,0,0</value>
					</parameter>
					<parameter authoringApp="PremierePro">
					<parameterid>4</parameterid>
					<name></name>
					<IsTimeVarying>false</IsTimeVarying>
					<ParameterControlType>2</ParameterControlType>
					<LowerBound>0</LowerBound>
					<UpperBound>4000</UpperBound>
					<value>-91445760000000000,100.,0,0,0,0,0,0</value>
					</parameter>
					<parameter authoringApp="PremierePro">
					<parameterid>8</parameterid>
					<name></name>
					<IsTimeVarying>false</IsTimeVarying>
					<ParameterControlType>2</ParameterControlType>
					<LowerBound>0</LowerBound>
					<UpperBound>100</UpperBound>
					<value>-91445760000000000,100.,0,0,0,0,0,0</value>
					</parameter>
					</effect>
					</filter>
					<logginginfo>
					<description></description>
					<scene></scene>
					<shottake></shottake>
					<lognote></lognote>
					<good></good>
					<originalvideofilename></originalvideofilename>
					<originalaudiofilename></originalaudiofilename>
					</logginginfo>
					<colorinfo>
					<lut></lut>
					<lut1></lut1>
					<asc_sop></asc_sop>
					<asc_sat></asc_sat>
					<lut2></lut2>
					</colorinfo>
					<labels>
					</labels>
					</clipitem>
					<clipitem frameBlend="FALSE" id="clipitem-260">
					<masterclipid>masterclip-180</masterclipid>
					<name></name>
					<enabled>TRUE</enabled>
					<duration>2582774</duration>
					<rate>
					
					                                    <timebase>60</timebase>
					                                    <ntsc>TRUE</ntsc>
					                                
					</rate>
					<start>1313</start>
					<end>1379</end>
					<in>1313</in>
					<out>1379</out>
					<pproTicksIn>914456774963789</pproTicksIn>
					<pproTicksOut>914677708529577</pproTicksOut>
					<alphatype>straight</alphatype>
					<pixelaspectratio>square</pixelaspectratio>
					<anamorphic>FALSE</anamorphic>
					<file id="file-179">
					<name></name>
					<mediaSource>GraphicAndType</mediaSource>
					<rate>
					<timebase>60</timebase>
					<ntsc>TRUE</ntsc>
					</rate>
					<timecode>
					<rate>
					<timebase>60</timebase>
					<ntsc>TRUE</ntsc>
					</rate>
					<string>00:00:00:00</string>
					<frame>0</frame>
					<displayformat>NDF</displayformat>
					</timecode>
					<media>
					<video>
					<samplecharacteristics>
					<rate>
					<timebase>60</timebase>
					<ntsc>TRUE</ntsc>
					</rate>
					<width>1080</width>
					<height>1920</height>
					<anamorphic>FALSE</anamorphic>
					<pixelaspectratio>square</pixelaspectratio>
					<fielddominance>none</fielddominance>
					</samplecharacteristics>
					</video>
					</media>
					</file>
					<filter>
					<effect>
					<name></name>
					<effectid>GraphicAndType</effectid>
					<effectcategory>graphic</effectcategory>
					<effecttype>filter</effecttype>
					<mediatype>video</mediatype>
					<pproBypass>false</pproBypass>
					<parameter authoringApp="PremierePro">
					<parameterid>1</parameterid>
					<name></name>
					<hash>025b1101-ead6-0ca2-1feb-caf3000001fc</hash>
					<value>5AEAAAAAAABEMyIRDAAAAAAABgAKAAQABgAAAGQAAAAAAF4ASAAQAAwARABAADwAOAAAAAAAAAAAADQAMwAsAAAAKAAkACAAAAAAAAAAAAAAAAAAHAAAAAAAGgAAAAAAAAAUAAAAAAAAAAAAAAAAAAAAAAAAAAgAAAAAABsABwBeAAAAAAAAAUAAAABQAAAAbAAAAAIAAAAAAAEAAQAAAAAAQEEAAMBAAABAQAAAyEIAAAABIAAAAAIAAAACAAAAAAA2QwCASkTw/v//9P7///j+//8S////AAAAAAEAAAAEAAAAEQAAAEhHUFNvZWlLYWt1cG9wdGFpAAAAAQAAAAwAAAAIAAwABAAIAAgAAAAIAAAAUAAAAA8AAADvvIEAAAAAAAAAAAAAAAAAAAA2ACQAAAAgABwAAAAAABsAFAAAAAAAAAAAAAAAAAAAAAAAAAAAABAAAAAAAAAADAAAAAgABAA2AAAAAgAAABwAAAAcAAAAHAAAAAAAIEEAAAABaAAAAE3PAEOw////tP///wEAAAAUAAAAEAAaAAgABwAMAAAAEAAUABAAAAAAAAABHAAAAAAAoEEcAAAAAgAAAAAACgAIAAUABgAHAAoAAAAADAD//P///wQABAAEAAAACAAIAAYABwAIAAAAAAAMAA==</value>
					</parameter>
					<parameter authoringApp="PremierePro">
					<parameterid>2</parameterid>
					<name></name>
					<IsTimeVarying>false</IsTimeVarying>
					<ParameterControlType>11</ParameterControlType>
					<LowerBound>false</LowerBound>
					<UpperBound>false</UpperBound>
					<value>-91445760000000000,false,0,0,0,0,0,0</value>
					</parameter>
					<parameter authoringApp="PremierePro">
					<parameterid>3</parameterid>
					<name></name>
					<IsTimeVarying>false</IsTimeVarying>
					<value>-91445760000000000,0.5:0.5,0,0,0,0,0,0,5,4,0,0,0,0</value>
					</parameter>
					<parameter authoringApp="PremierePro">
					<parameterid>4</parameterid>
					<name></name>
					<IsTimeVarying>false</IsTimeVarying>
					<ParameterControlType>2</ParameterControlType>
					<LowerBound>0</LowerBound>
					<UpperBound>4000</UpperBound>
					<value>-91445760000000000,100.,0,0,0,0,0,0</value>
					</parameter>
					<parameter authoringApp="PremierePro">
					<parameterid>8</parameterid>
					<name></name>
					<IsTimeVarying>false</IsTimeVarying>
					<ParameterControlType>2</ParameterControlType>
					<LowerBound>0</LowerBound>
					<UpperBound>100</UpperBound>
					<value>-91445760000000000,100.,0,0,0,0,0,0</value>
					</parameter>
					</effect>
					</filter>
					<logginginfo>
					<description></description>
					<scene></scene>
					<shottake></shottake>
					<lognote></lognote>
					<good></good>
					<originalvideofilename></originalvideofilename>
					<originalaudiofilename></originalaudiofilename>
					</logginginfo>
					<colorinfo>
					<lut></lut>
					<lut1></lut1>
					<asc_sop></asc_sop>
					<asc_sat></asc_sat>
					<lut2></lut2>
					</colorinfo>
					<labels>
					</labels>
					</clipitem>
					<clipitem frameBlend="FALSE" id="clipitem-267">
					<masterclipid>masterclip-187</masterclipid>
					<name></name>
					<enabled>TRUE</enabled>
					<duration>2582774</duration>
					<rate>
					
					                                    <timebase>60</timebase>
					                                    <ntsc>TRUE</ntsc>
					                                
					</rate>
					<start>1385</start>
					<end>1445</end>
					<in>1385</in>
					<out>1445</out>
					<pproTicksIn>914456774963789</pproTicksIn>
					<pproTicksOut>914677708529577</pproTicksOut>
					<alphatype>straight</alphatype>
					<pixelaspectratio>square</pixelaspectratio>
					<anamorphic>FALSE</anamorphic>
					<file id="file-186">
					<name></name>
					<mediaSource>GraphicAndType</mediaSource>
					<rate>
					<timebase>60</timebase>
					<ntsc>TRUE</ntsc>
					</rate>
					<timecode>
					<rate>
					<timebase>60</timebase>
					<ntsc>TRUE</ntsc>
					</rate>
					<string>00:00:00:00</string>
					<frame>0</frame>
					<displayformat>NDF</displayformat>
					</timecode>
					<media>
					<video>
					<samplecharacteristics>
					<rate>
					<timebase>60</timebase>
					<ntsc>TRUE</ntsc>
					</rate>
					<width>1080</width>
					<height>1920</height>
					<anamorphic>FALSE</anamorphic>
					<pixelaspectratio>square</pixelaspectratio>
					<fielddominance>none</fielddominance>
					</samplecharacteristics>
					</video>
					</media>
					</file>
					<filter>
					<effect>
					<name></name>
					<effectid>GraphicAndType</effectid>
					<effectcategory>graphic</effectcategory>
					<effecttype>filter</effecttype>
					<mediatype>video</mediatype>
					<pproBypass>false</pproBypass>
					<parameter authoringApp="PremierePro">
					<parameterid>1</parameterid>
					<name></name>
					<hash>025b1101-ead6-0ca2-1feb-caf3000001fc</hash>
					<value>5AEAAAAAAABEMyIRDAAAAAAABgAKAAQABgAAAGQAAAAAAF4ASAAQAAwARABAADwAOAAAAAAAAAAAADQAMwAsAAAAKAAkACAAAAAAAAAAAAAAAAAAHAAAAAAAGgAAAAAAAAAUAAAAAAAAAAAAAAAAAAAAAAAAAAgAAAAAABsABwBeAAAAAAAAAUAAAABQAAAAbAAAAAIAAAAAAAEAAQAAAAAAQEEAAMBAAABAQAAAyEIAAAABIAAAAAIAAAACAAAAAAA2QwCASkTw/v//9P7///j+//8S////AAAAAAEAAAAEAAAAEQAAAEhHUFNvZWlLYWt1cG9wdGFpAAAAAQAAAAwAAAAIAAwABAAIAAgAAAAIAAAAUAAAAA8AAADvvIEAAAAAAAAAAAAAAAAAAAA2ACQAAAAgABwAAAAAABsAFAAAAAAAAAAAAAAAAAAAAAAAAAAAABAAAAAAAAAADAAAAAgABAA2AAAAAgAAABwAAAAcAAAAHAAAAAAAIEEAAAABaAAAAE3PAEOw////tP///wEAAAAUAAAAEAAaAAgABwAMAAAAEAAUABAAAAAAAAABHAAAAAAAoEEcAAAAAgAAAAAACgAIAAUABgAHAAoAAAAADAD//P///wQABAAEAAAACAAIAAYABwAIAAAAAAAMAA==</value>
					</parameter>
					<parameter authoringApp="PremierePro">
					<parameterid>2</parameterid>
					<name></name>
					<IsTimeVarying>false</IsTimeVarying>
					<ParameterControlType>11</ParameterControlType>
					<LowerBound>false</LowerBound>
					<UpperBound>false</UpperBound>
					<value>-91445760000000000,false,0,0,0,0,0,0</value>
					</parameter>
					<parameter authoringApp="PremierePro">
					<parameterid>3</parameterid>
					<name></name>
					<IsTimeVarying>false</IsTimeVarying>
					<value>-91445760000000000,0.5:0.5,0,0,0,0,0,0,5,4,0,0,0,0</value>
					</parameter>
					<parameter authoringApp="PremierePro">
					<parameterid>4</parameterid>
					<name></name>
					<IsTimeVarying>false</IsTimeVarying>
					<ParameterControlType>2</ParameterControlType>
					<LowerBound>0</LowerBound>
					<UpperBound>4000</UpperBound>
					<value>-91445760000000000,100.,0,0,0,0,0,0</value>
					</parameter>
					<parameter authoringApp="PremierePro">
					<parameterid>8</parameterid>
					<name></name>
					<IsTimeVarying>false</IsTimeVarying>
					<ParameterControlType>2</ParameterControlType>
					<LowerBound>0</LowerBound>
					<UpperBound>100</UpperBound>
					<value>-91445760000000000,100.,0,0,0,0,0,0</value>
					</parameter>
					</effect>
					</filter>
					<logginginfo>
					<description></description>
					<scene></scene>
					<shottake></shottake>
					<lognote></lognote>
					<good></good>
					<originalvideofilename></originalvideofilename>
					<originalaudiofilename></originalaudiofilename>
					</logginginfo>
					<colorinfo>
					<lut></lut>
					<lut1></lut1>
					<asc_sop></asc_sop>
					<asc_sat></asc_sat>
					<lut2></lut2>
					</colorinfo>
					<labels>
					</labels>
					</clipitem>
					<clipitem frameBlend="FALSE" id="clipitem-274">
					<masterclipid>masterclip-194</masterclipid>
					<name></name>
					<enabled>TRUE</enabled>
					<duration>2582774</duration>
					<rate>
					
					                                    <timebase>60</timebase>
					                                    <ntsc>TRUE</ntsc>
					                                
					</rate>
					<start>1445</start>
					<end>1505</end>
					<in>1445</in>
					<out>1505</out>
					<pproTicksIn>914456774963789</pproTicksIn>
					<pproTicksOut>914677708529577</pproTicksOut>
					<alphatype>straight</alphatype>
					<pixelaspectratio>square</pixelaspectratio>
					<anamorphic>FALSE</anamorphic>
					<file id="file-193">
					<name></name>
					<mediaSource>GraphicAndType</mediaSource>
					<rate>
					<timebase>60</timebase>
					<ntsc>TRUE</ntsc>
					</rate>
					<timecode>
					<rate>
					<timebase>60</timebase>
					<ntsc>TRUE</ntsc>
					</rate>
					<string>00:00:00:00</string>
					<frame>0</frame>
					<displayformat>NDF</displayformat>
					</timecode>
					<media>
					<video>
					<samplecharacteristics>
					<rate>
					<timebase>60</timebase>
					<ntsc>TRUE</ntsc>
					</rate>
					<width>1080</width>
					<height>1920</height>
					<anamorphic>FALSE</anamorphic>
					<pixelaspectratio>square</pixelaspectratio>
					<fielddominance>none</fielddominance>
					</samplecharacteristics>
					</video>
					</media>
					</file>
					<filter>
					<effect>
					<name></name>
					<effectid>GraphicAndType</effectid>
					<effectcategory>graphic</effectcategory>
					<effecttype>filter</effecttype>
					<mediatype>video</mediatype>
					<pproBypass>false</pproBypass>
					<parameter authoringApp="PremierePro">
					<parameterid>1</parameterid>
					<name></name>
					<hash>025b1101-ead6-0ca2-1feb-caf3000001fc</hash>
					<value>5AEAAAAAAABEMyIRDAAAAAAABgAKAAQABgAAAGQAAAAAAF4ASAAQAAwARABAADwAOAAAAAAAAAAAADQAMwAsAAAAKAAkACAAAAAAAAAAAAAAAAAAHAAAAAAAGgAAAAAAAAAUAAAAAAAAAAAAAAAAAAAAAAAAAAgAAAAAABsABwBeAAAAAAAAAUAAAABQAAAAbAAAAAIAAAAAAAEAAQAAAAAAQEEAAMBAAABAQAAAyEIAAAABIAAAAAIAAAACAAAAAAA2QwCASkTw/v//9P7///j+//8S////AAAAAAEAAAAEAAAAEQAAAEhHUFNvZWlLYWt1cG9wdGFpAAAAAQAAAAwAAAAIAAwABAAIAAgAAAAIAAAAUAAAAA8AAADvvIEAAAAAAAAAAAAAAAAAAAA2ACQAAAAgABwAAAAAABsAFAAAAAAAAAAAAAAAAAAAAAAAAAAAABAAAAAAAAAADAAAAAgABAA2AAAAAgAAABwAAAAcAAAAHAAAAAAAIEEAAAABaAAAAE3PAEOw////tP///wEAAAAUAAAAEAAaAAgABwAMAAAAEAAUABAAAAAAAAABHAAAAAAAoEEcAAAAAgAAAAAACgAIAAUABgAHAAoAAAAADAD//P///wQABAAEAAAACAAIAAYABwAIAAAAAAAMAA==</value>
					</parameter>
					<parameter authoringApp="PremierePro">
					<parameterid>2</parameterid>
					<name></name>
					<IsTimeVarying>false</IsTimeVarying>
					<ParameterControlType>11</ParameterControlType>
					<LowerBound>false</LowerBound>
					<UpperBound>false</UpperBound>
					<value>-91445760000000000,false,0,0,0,0,0,0</value>
					</parameter>
					<parameter authoringApp="PremierePro">
					<parameterid>3</parameterid>
					<name></name>
					<IsTimeVarying>false</IsTimeVarying>
					<value>-91445760000000000,0.5:0.5,0,0,0,0,0,0,5,4,0,0,0,0</value>
					</parameter>
					<parameter authoringApp="PremierePro">
					<parameterid>4</parameterid>
					<name></name>
					<IsTimeVarying>false</IsTimeVarying>
					<ParameterControlType>2</ParameterControlType>
					<LowerBound>0</LowerBound>
					<UpperBound>4000</UpperBound>
					<value>-91445760000000000,100.,0,0,0,0,0,0</value>
					</parameter>
					<parameter authoringApp="PremierePro">
					<parameterid>8</parameterid>
					<name></name>
					<IsTimeVarying>false</IsTimeVarying>
					<ParameterControlType>2</ParameterControlType>
					<LowerBound>0</LowerBound>
					<UpperBound>100</UpperBound>
					<value>-91445760000000000,100.,0,0,0,0,0,0</value>
					</parameter>
					</effect>
					</filter>
					<logginginfo>
					<description></description>
					<scene></scene>
					<shottake></shottake>
					<lognote></lognote>
					<good></good>
					<originalvideofilename></originalvideofilename>
					<originalaudiofilename></originalaudiofilename>
					</logginginfo>
					<colorinfo>
					<lut></lut>
					<lut1></lut1>
					<asc_sop></asc_sop>
					<asc_sat></asc_sat>
					<lut2></lut2>
					</colorinfo>
					<labels>
					</labels>
					</clipitem>
					<clipitem frameBlend="FALSE" id="clipitem-279">
					<masterclipid>masterclip-199</masterclipid>
					<name></name>
					<enabled>TRUE</enabled>
					<duration>2582774</duration>
					<rate>
					
					                                    <timebase>60</timebase>
					                                    <ntsc>TRUE</ntsc>
					                                
					</rate>
					<start>1505</start>
					<end>1565</end>
					<in>1505</in>
					<out>1565</out>
					<pproTicksIn>914456774963789</pproTicksIn>
					<pproTicksOut>914677708529577</pproTicksOut>
					<alphatype>straight</alphatype>
					<pixelaspectratio>square</pixelaspectratio>
					<anamorphic>FALSE</anamorphic>
					<file id="file-198">
					<name></name>
					<mediaSource>GraphicAndType</mediaSource>
					<rate>
					<timebase>60</timebase>
					<ntsc>TRUE</ntsc>
					</rate>
					<timecode>
					<rate>
					<timebase>60</timebase>
					<ntsc>TRUE</ntsc>
					</rate>
					<string>00:00:00:00</string>
					<frame>0</frame>
					<displayformat>NDF</displayformat>
					</timecode>
					<media>
					<video>
					<samplecharacteristics>
					<rate>
					<timebase>60</timebase>
					<ntsc>TRUE</ntsc>
					</rate>
					<width>1080</width>
					<height>1920</height>
					<anamorphic>FALSE</anamorphic>
					<pixelaspectratio>square</pixelaspectratio>
					<fielddominance>none</fielddominance>
					</samplecharacteristics>
					</video>
					</media>
					</file>
					<filter>
					<effect>
					<name></name>
					<effectid>GraphicAndType</effectid>
					<effectcategory>graphic</effectcategory>
					<effecttype>filter</effecttype>
					<mediatype>video</mediatype>
					<pproBypass>false</pproBypass>
					<parameter authoringApp="PremierePro">
					<parameterid>1</parameterid>
					<name></name>
					<hash>025b1101-ead6-0ca2-1feb-caf3000001fc</hash>
					<value>5AEAAAAAAABEMyIRDAAAAAAABgAKAAQABgAAAGQAAAAAAF4ASAAQAAwARABAADwAOAAAAAAAAAAAADQAMwAsAAAAKAAkACAAAAAAAAAAAAAAAAAAHAAAAAAAGgAAAAAAAAAUAAAAAAAAAAAAAAAAAAAAAAAAAAgAAAAAABsABwBeAAAAAAAAAUAAAABQAAAAbAAAAAIAAAAAAAEAAQAAAAAAQEEAAMBAAABAQAAAyEIAAAABIAAAAAIAAAACAAAAAAA2QwCASkTw/v//9P7///j+//8S////AAAAAAEAAAAEAAAAEQAAAEhHUFNvZWlLYWt1cG9wdGFpAAAAAQAAAAwAAAAIAAwABAAIAAgAAAAIAAAAUAAAAA8AAADvvIEAAAAAAAAAAAAAAAAAAAA2ACQAAAAgABwAAAAAABsAFAAAAAAAAAAAAAAAAAAAAAAAAAAAABAAAAAAAAAADAAAAAgABAA2AAAAAgAAABwAAAAcAAAAHAAAAAAAIEEAAAABaAAAAE3PAEOw////tP///wEAAAAUAAAAEAAaAAgABwAMAAAAEAAUABAAAAAAAAABHAAAAAAAoEEcAAAAAgAAAAAACgAIAAUABgAHAAoAAAAADAD//P///wQABAAEAAAACAAIAAYABwAIAAAAAAAMAA==</value>
					</parameter>
					<parameter authoringApp="PremierePro">
					<parameterid>2</parameterid>
					<name></name>
					<IsTimeVarying>false</IsTimeVarying>
					<ParameterControlType>11</ParameterControlType>
					<LowerBound>false</LowerBound>
					<UpperBound>false</UpperBound>
					<value>-91445760000000000,false,0,0,0,0,0,0</value>
					</parameter>
					<parameter authoringApp="PremierePro">
					<parameterid>3</parameterid>
					<name></name>
					<IsTimeVarying>false</IsTimeVarying>
					<value>-91445760000000000,0.5:0.5,0,0,0,0,0,0,5,4,0,0,0,0</value>
					</parameter>
					<parameter authoringApp="PremierePro">
					<parameterid>4</parameterid>
					<name></name>
					<IsTimeVarying>false</IsTimeVarying>
					<ParameterControlType>2</ParameterControlType>
					<LowerBound>0</LowerBound>
					<UpperBound>4000</UpperBound>
					<value>-91445760000000000,100.,0,0,0,0,0,0</value>
					</parameter>
					<parameter authoringApp="PremierePro">
					<parameterid>8</parameterid>
					<name></name>
					<IsTimeVarying>false</IsTimeVarying>
					<ParameterControlType>2</ParameterControlType>
					<LowerBound>0</LowerBound>
					<UpperBound>100</UpperBound>
					<value>-91445760000000000,100.,0,0,0,0,0,0</value>
					</parameter>
					</effect>
					</filter>
					<logginginfo>
					<description></description>
					<scene></scene>
					<shottake></shottake>
					<lognote></lognote>
					<good></good>
					<originalvideofilename></originalvideofilename>
					<originalaudiofilename></originalaudiofilename>
					</logginginfo>
					<colorinfo>
					<lut></lut>
					<lut1></lut1>
					<asc_sop></asc_sop>
					<asc_sat></asc_sat>
					<lut2></lut2>
					</colorinfo>
					<labels>
					</labels>
					</clipitem>
					<clipitem frameBlend="FALSE" id="clipitem-286">
					<masterclipid>masterclip-206</masterclipid>
					<name></name>
					<enabled>TRUE</enabled>
					<duration>2582774</duration>
					<rate>
					
					                                    <timebase>60</timebase>
					                                    <ntsc>TRUE</ntsc>
					                                
					</rate>
					<start>1571</start>
					<end>1631</end>
					<in>1571</in>
					<out>1631</out>
					<pproTicksIn>914456774963789</pproTicksIn>
					<pproTicksOut>914677708529577</pproTicksOut>
					<alphatype>straight</alphatype>
					<pixelaspectratio>square</pixelaspectratio>
					<anamorphic>FALSE</anamorphic>
					<file id="file-205">
					<name></name>
					<mediaSource>GraphicAndType</mediaSource>
					<rate>
					<timebase>60</timebase>
					<ntsc>TRUE</ntsc>
					</rate>
					<timecode>
					<rate>
					<timebase>60</timebase>
					<ntsc>TRUE</ntsc>
					</rate>
					<string>00:00:00:00</string>
					<frame>0</frame>
					<displayformat>NDF</displayformat>
					</timecode>
					<media>
					<video>
					<samplecharacteristics>
					<rate>
					<timebase>60</timebase>
					<ntsc>TRUE</ntsc>
					</rate>
					<width>1080</width>
					<height>1920</height>
					<anamorphic>FALSE</anamorphic>
					<pixelaspectratio>square</pixelaspectratio>
					<fielddominance>none</fielddominance>
					</samplecharacteristics>
					</video>
					</media>
					</file>
					<filter>
					<effect>
					<name></name>
					<effectid>GraphicAndType</effectid>
					<effectcategory>graphic</effectcategory>
					<effecttype>filter</effecttype>
					<mediatype>video</mediatype>
					<pproBypass>false</pproBypass>
					<parameter authoringApp="PremierePro">
					<parameterid>1</parameterid>
					<name></name>
					<hash>025b1101-ead6-0ca2-1feb-caf3000001fc</hash>
					<value>5AEAAAAAAABEMyIRDAAAAAAABgAKAAQABgAAAGQAAAAAAF4ASAAQAAwARABAADwAOAAAAAAAAAAAADQAMwAsAAAAKAAkACAAAAAAAAAAAAAAAAAAHAAAAAAAGgAAAAAAAAAUAAAAAAAAAAAAAAAAAAAAAAAAAAgAAAAAABsABwBeAAAAAAAAAUAAAABQAAAAbAAAAAIAAAAAAAEAAQAAAAAAQEEAAMBAAABAQAAAyEIAAAABIAAAAAIAAAACAAAAAAA2QwCASkTw/v//9P7///j+//8S////AAAAAAEAAAAEAAAAEQAAAEhHUFNvZWlLYWt1cG9wdGFpAAAAAQAAAAwAAAAIAAwABAAIAAgAAAAIAAAAUAAAAA8AAADvvIEAAAAAAAAAAAAAAAAAAAA2ACQAAAAgABwAAAAAABsAFAAAAAAAAAAAAAAAAAAAAAAAAAAAABAAAAAAAAAADAAAAAgABAA2AAAAAgAAABwAAAAcAAAAHAAAAAAAIEEAAAABaAAAAE3PAEOw////tP///wEAAAAUAAAAEAAaAAgABwAMAAAAEAAUABAAAAAAAAABHAAAAAAAoEEcAAAAAgAAAAAACgAIAAUABgAHAAoAAAAADAD//P///wQABAAEAAAACAAIAAYABwAIAAAAAAAMAA==</value>
					</parameter>
					<parameter authoringApp="PremierePro">
					<parameterid>2</parameterid>
					<name></name>
					<IsTimeVarying>false</IsTimeVarying>
					<ParameterControlType>11</ParameterControlType>
					<LowerBound>false</LowerBound>
					<UpperBound>false</UpperBound>
					<value>-91445760000000000,false,0,0,0,0,0,0</value>
					</parameter>
					<parameter authoringApp="PremierePro">
					<parameterid>3</parameterid>
					<name></name>
					<IsTimeVarying>false</IsTimeVarying>
					<value>-91445760000000000,0.5:0.5,0,0,0,0,0,0,5,4,0,0,0,0</value>
					</parameter>
					<parameter authoringApp="PremierePro">
					<parameterid>4</parameterid>
					<name></name>
					<IsTimeVarying>false</IsTimeVarying>
					<ParameterControlType>2</ParameterControlType>
					<LowerBound>0</LowerBound>
					<UpperBound>4000</UpperBound>
					<value>-91445760000000000,100.,0,0,0,0,0,0</value>
					</parameter>
					<parameter authoringApp="PremierePro">
					<parameterid>8</parameterid>
					<name></name>
					<IsTimeVarying>false</IsTimeVarying>
					<ParameterControlType>2</ParameterControlType>
					<LowerBound>0</LowerBound>
					<UpperBound>100</UpperBound>
					<value>-91445760000000000,100.,0,0,0,0,0,0</value>
					</parameter>
					</effect>
					</filter>
					<logginginfo>
					<description></description>
					<scene></scene>
					<shottake></shottake>
					<lognote></lognote>
					<good></good>
					<originalvideofilename></originalvideofilename>
					<originalaudiofilename></originalaudiofilename>
					</logginginfo>
					<colorinfo>
					<lut></lut>
					<lut1></lut1>
					<asc_sop></asc_sop>
					<asc_sat></asc_sat>
					<lut2></lut2>
					</colorinfo>
					<labels>
					</labels>
					</clipitem>
					<clipitem frameBlend="FALSE" id="clipitem-293">
					<masterclipid>masterclip-213</masterclipid>
					<name></name>
					<enabled>TRUE</enabled>
					<duration>2582774</duration>
					<rate>
					
					                                    <timebase>60</timebase>
					                                    <ntsc>TRUE</ntsc>
					                                
					</rate>
					<start>1637</start>
					<end>1697</end>
					<in>1637</in>
					<out>1697</out>
					<pproTicksIn>914456774963789</pproTicksIn>
					<pproTicksOut>914677708529577</pproTicksOut>
					<alphatype>straight</alphatype>
					<pixelaspectratio>square</pixelaspectratio>
					<anamorphic>FALSE</anamorphic>
					<file id="file-212">
					<name></name>
					<mediaSource>GraphicAndType</mediaSource>
					<rate>
					<timebase>60</timebase>
					<ntsc>TRUE</ntsc>
					</rate>
					<timecode>
					<rate>
					<timebase>60</timebase>
					<ntsc>TRUE</ntsc>
					</rate>
					<string>00:00:00:00</string>
					<frame>0</frame>
					<displayformat>NDF</displayformat>
					</timecode>
					<media>
					<video>
					<samplecharacteristics>
					<rate>
					<timebase>60</timebase>
					<ntsc>TRUE</ntsc>
					</rate>
					<width>1080</width>
					<height>1920</height>
					<anamorphic>FALSE</anamorphic>
					<pixelaspectratio>square</pixelaspectratio>
					<fielddominance>none</fielddominance>
					</samplecharacteristics>
					</video>
					</media>
					</file>
					<filter>
					<effect>
					<name></name>
					<effectid>GraphicAndType</effectid>
					<effectcategory>graphic</effectcategory>
					<effecttype>filter</effecttype>
					<mediatype>video</mediatype>
					<pproBypass>false</pproBypass>
					<parameter authoringApp="PremierePro">
					<parameterid>1</parameterid>
					<name></name>
					<hash>025b1101-ead6-0ca2-1feb-caf3000001fc</hash>
					<value>5AEAAAAAAABEMyIRDAAAAAAABgAKAAQABgAAAGQAAAAAAF4ASAAQAAwARABAADwAOAAAAAAAAAAAADQAMwAsAAAAKAAkACAAAAAAAAAAAAAAAAAAHAAAAAAAGgAAAAAAAAAUAAAAAAAAAAAAAAAAAAAAAAAAAAgAAAAAABsABwBeAAAAAAAAAUAAAABQAAAAbAAAAAIAAAAAAAEAAQAAAAAAQEEAAMBAAABAQAAAyEIAAAABIAAAAAIAAAACAAAAAAA2QwCASkTw/v//9P7///j+//8S////AAAAAAEAAAAEAAAAEQAAAEhHUFNvZWlLYWt1cG9wdGFpAAAAAQAAAAwAAAAIAAwABAAIAAgAAAAIAAAAUAAAAA8AAADvvIEAAAAAAAAAAAAAAAAAAAA2ACQAAAAgABwAAAAAABsAFAAAAAAAAAAAAAAAAAAAAAAAAAAAABAAAAAAAAAADAAAAAgABAA2AAAAAgAAABwAAAAcAAAAHAAAAAAAIEEAAAABaAAAAE3PAEOw////tP///wEAAAAUAAAAEAAaAAgABwAMAAAAEAAUABAAAAAAAAABHAAAAAAAoEEcAAAAAgAAAAAACgAIAAUABgAHAAoAAAAADAD//P///wQABAAEAAAACAAIAAYABwAIAAAAAAAMAA==</value>
					</parameter>
					<parameter authoringApp="PremierePro">
					<parameterid>2</parameterid>
					<name></name>
					<IsTimeVarying>false</IsTimeVarying>
					<ParameterControlType>11</ParameterControlType>
					<LowerBound>false</LowerBound>
					<UpperBound>false</UpperBound>
					<value>-91445760000000000,false,0,0,0,0,0,0</value>
					</parameter>
					<parameter authoringApp="PremierePro">
					<parameterid>3</parameterid>
					<name></name>
					<IsTimeVarying>false</IsTimeVarying>
					<value>-91445760000000000,0.5:0.5,0,0,0,0,0,0,5,4,0,0,0,0</value>
					</parameter>
					<parameter authoringApp="PremierePro">
					<parameterid>4</parameterid>
					<name></name>
					<IsTimeVarying>false</IsTimeVarying>
					<ParameterControlType>2</ParameterControlType>
					<LowerBound>0</LowerBound>
					<UpperBound>4000</UpperBound>
					<value>-91445760000000000,100.,0,0,0,0,0,0</value>
					</parameter>
					<parameter authoringApp="PremierePro">
					<parameterid>8</parameterid>
					<name></name>
					<IsTimeVarying>false</IsTimeVarying>
					<ParameterControlType>2</ParameterControlType>
					<LowerBound>0</LowerBound>
					<UpperBound>100</UpperBound>
					<value>-91445760000000000,100.,0,0,0,0,0,0</value>
					</parameter>
					</effect>
					</filter>
					<logginginfo>
					<description></description>
					<scene></scene>
					<shottake></shottake>
					<lognote></lognote>
					<good></good>
					<originalvideofilename></originalvideofilename>
					<originalaudiofilename></originalaudiofilename>
					</logginginfo>
					<colorinfo>
					<lut></lut>
					<lut1></lut1>
					<asc_sop></asc_sop>
					<asc_sat></asc_sat>
					<lut2></lut2>
					</colorinfo>
					<labels>
					</labels>
					</clipitem>
					<clipitem frameBlend="FALSE" id="clipitem-298">
					<masterclipid>masterclip-218</masterclipid>
					<name></name>
					<enabled>TRUE</enabled>
					<duration>2582774</duration>
					<rate>
					
					                                    <timebase>60</timebase>
					                                    <ntsc>TRUE</ntsc>
					                                
					</rate>
					<start>1703</start>
					<end>1763</end>
					<in>1703</in>
					<out>1763</out>
					<pproTicksIn>914456774963789</pproTicksIn>
					<pproTicksOut>914677708529577</pproTicksOut>
					<alphatype>straight</alphatype>
					<pixelaspectratio>square</pixelaspectratio>
					<anamorphic>FALSE</anamorphic>
					<file id="file-217">
					<name></name>
					<mediaSource>GraphicAndType</mediaSource>
					<rate>
					<timebase>60</timebase>
					<ntsc>TRUE</ntsc>
					</rate>
					<timecode>
					<rate>
					<timebase>60</timebase>
					<ntsc>TRUE</ntsc>
					</rate>
					<string>00:00:00:00</string>
					<frame>0</frame>
					<displayformat>NDF</displayformat>
					</timecode>
					<media>
					<video>
					<samplecharacteristics>
					<rate>
					<timebase>60</timebase>
					<ntsc>TRUE</ntsc>
					</rate>
					<width>1080</width>
					<height>1920</height>
					<anamorphic>FALSE</anamorphic>
					<pixelaspectratio>square</pixelaspectratio>
					<fielddominance>none</fielddominance>
					</samplecharacteristics>
					</video>
					</media>
					</file>
					<filter>
					<effect>
					<name></name>
					<effectid>GraphicAndType</effectid>
					<effectcategory>graphic</effectcategory>
					<effecttype>filter</effecttype>
					<mediatype>video</mediatype>
					<pproBypass>false</pproBypass>
					<parameter authoringApp="PremierePro">
					<parameterid>1</parameterid>
					<name></name>
					<hash>025b1101-ead6-0ca2-1feb-caf3000001fc</hash>
					<value>5AEAAAAAAABEMyIRDAAAAAAABgAKAAQABgAAAGQAAAAAAF4ASAAQAAwARABAADwAOAAAAAAAAAAAADQAMwAsAAAAKAAkACAAAAAAAAAAAAAAAAAAHAAAAAAAGgAAAAAAAAAUAAAAAAAAAAAAAAAAAAAAAAAAAAgAAAAAABsABwBeAAAAAAAAAUAAAABQAAAAbAAAAAIAAAAAAAEAAQAAAAAAQEEAAMBAAABAQAAAyEIAAAABIAAAAAIAAAACAAAAAAA2QwCASkTw/v//9P7///j+//8S////AAAAAAEAAAAEAAAAEQAAAEhHUFNvZWlLYWt1cG9wdGFpAAAAAQAAAAwAAAAIAAwABAAIAAgAAAAIAAAAUAAAAA8AAADvvIEAAAAAAAAAAAAAAAAAAAA2ACQAAAAgABwAAAAAABsAFAAAAAAAAAAAAAAAAAAAAAAAAAAAABAAAAAAAAAADAAAAAgABAA2AAAAAgAAABwAAAAcAAAAHAAAAAAAIEEAAAABaAAAAE3PAEOw////tP///wEAAAAUAAAAEAAaAAgABwAMAAAAEAAUABAAAAAAAAABHAAAAAAAoEEcAAAAAgAAAAAACgAIAAUABgAHAAoAAAAADAD//P///wQABAAEAAAACAAIAAYABwAIAAAAAAAMAA==</value>
					</parameter>
					<parameter authoringApp="PremierePro">
					<parameterid>2</parameterid>
					<name></name>
					<IsTimeVarying>false</IsTimeVarying>
					<ParameterControlType>11</ParameterControlType>
					<LowerBound>false</LowerBound>
					<UpperBound>false</UpperBound>
					<value>-91445760000000000,false,0,0,0,0,0,0</value>
					</parameter>
					<parameter authoringApp="PremierePro">
					<parameterid>3</parameterid>
					<name></name>
					<IsTimeVarying>false</IsTimeVarying>
					<value>-91445760000000000,0.5:0.5,0,0,0,0,0,0,5,4,0,0,0,0</value>
					</parameter>
					<parameter authoringApp="PremierePro">
					<parameterid>4</parameterid>
					<name></name>
					<IsTimeVarying>false</IsTimeVarying>
					<ParameterControlType>2</ParameterControlType>
					<LowerBound>0</LowerBound>
					<UpperBound>4000</UpperBound>
					<value>-91445760000000000,100.,0,0,0,0,0,0</value>
					</parameter>
					<parameter authoringApp="PremierePro">
					<parameterid>8</parameterid>
					<name></name>
					<IsTimeVarying>false</IsTimeVarying>
					<ParameterControlType>2</ParameterControlType>
					<LowerBound>0</LowerBound>
					<UpperBound>100</UpperBound>
					<value>-91445760000000000,100.,0,0,0,0,0,0</value>
					</parameter>
					</effect>
					</filter>
					<logginginfo>
					<description></description>
					<scene></scene>
					<shottake></shottake>
					<lognote></lognote>
					<good></good>
					<originalvideofilename></originalvideofilename>
					<originalaudiofilename></originalaudiofilename>
					</logginginfo>
					<colorinfo>
					<lut></lut>
					<lut1></lut1>
					<asc_sop></asc_sop>
					<asc_sat></asc_sat>
					<lut2></lut2>
					</colorinfo>
					<labels>
					</labels>
					</clipitem>
					<clipitem frameBlend="FALSE" id="clipitem-305">
					<masterclipid>masterclip-225</masterclipid>
					<name></name>
					<enabled>TRUE</enabled>
					<duration>2582774</duration>
					<rate>
					
					                                    <timebase>60</timebase>
					                                    <ntsc>TRUE</ntsc>
					                                
					</rate>
					<start>1769</start>
					<end>1829</end>
					<in>1769</in>
					<out>1829</out>
					<pproTicksIn>914456774963789</pproTicksIn>
					<pproTicksOut>914677708529577</pproTicksOut>
					<alphatype>straight</alphatype>
					<pixelaspectratio>square</pixelaspectratio>
					<anamorphic>FALSE</anamorphic>
					<file id="file-224">
					<name></name>
					<mediaSource>GraphicAndType</mediaSource>
					<rate>
					<timebase>60</timebase>
					<ntsc>TRUE</ntsc>
					</rate>
					<timecode>
					<rate>
					<timebase>60</timebase>
					<ntsc>TRUE</ntsc>
					</rate>
					<string>00:00:00:00</string>
					<frame>0</frame>
					<displayformat>NDF</displayformat>
					</timecode>
					<media>
					<video>
					<samplecharacteristics>
					<rate>
					<timebase>60</timebase>
					<ntsc>TRUE</ntsc>
					</rate>
					<width>1080</width>
					<height>1920</height>
					<anamorphic>FALSE</anamorphic>
					<pixelaspectratio>square</pixelaspectratio>
					<fielddominance>none</fielddominance>
					</samplecharacteristics>
					</video>
					</media>
					</file>
					<filter>
					<effect>
					<name></name>
					<effectid>GraphicAndType</effectid>
					<effectcategory>graphic</effectcategory>
					<effecttype>filter</effecttype>
					<mediatype>video</mediatype>
					<pproBypass>false</pproBypass>
					<parameter authoringApp="PremierePro">
					<parameterid>1</parameterid>
					<name></name>
					<hash>025b1101-ead6-0ca2-1feb-caf3000001fc</hash>
					<value>5AEAAAAAAABEMyIRDAAAAAAABgAKAAQABgAAAGQAAAAAAF4ASAAQAAwARABAADwAOAAAAAAAAAAAADQAMwAsAAAAKAAkACAAAAAAAAAAAAAAAAAAHAAAAAAAGgAAAAAAAAAUAAAAAAAAAAAAAAAAAAAAAAAAAAgAAAAAABsABwBeAAAAAAAAAUAAAABQAAAAbAAAAAIAAAAAAAEAAQAAAAAAQEEAAMBAAABAQAAAyEIAAAABIAAAAAIAAAACAAAAAAA2QwCASkTw/v//9P7///j+//8S////AAAAAAEAAAAEAAAAEQAAAEhHUFNvZWlLYWt1cG9wdGFpAAAAAQAAAAwAAAAIAAwABAAIAAgAAAAIAAAAUAAAAA8AAADvvIEAAAAAAAAAAAAAAAAAAAA2ACQAAAAgABwAAAAAABsAFAAAAAAAAAAAAAAAAAAAAAAAAAAAABAAAAAAAAAADAAAAAgABAA2AAAAAgAAABwAAAAcAAAAHAAAAAAAIEEAAAABaAAAAE3PAEOw////tP///wEAAAAUAAAAEAAaAAgABwAMAAAAEAAUABAAAAAAAAABHAAAAAAAoEEcAAAAAgAAAAAACgAIAAUABgAHAAoAAAAADAD//P///wQABAAEAAAACAAIAAYABwAIAAAAAAAMAA==</value>
					</parameter>
					<parameter authoringApp="PremierePro">
					<parameterid>2</parameterid>
					<name></name>
					<IsTimeVarying>false</IsTimeVarying>
					<ParameterControlType>11</ParameterControlType>
					<LowerBound>false</LowerBound>
					<UpperBound>false</UpperBound>
					<value>-91445760000000000,false,0,0,0,0,0,0</value>
					</parameter>
					<parameter authoringApp="PremierePro">
					<parameterid>3</parameterid>
					<name></name>
					<IsTimeVarying>false</IsTimeVarying>
					<value>-91445760000000000,0.5:0.5,0,0,0,0,0,0,5,4,0,0,0,0</value>
					</parameter>
					<parameter authoringApp="PremierePro">
					<parameterid>4</parameterid>
					<name></name>
					<IsTimeVarying>false</IsTimeVarying>
					<ParameterControlType>2</ParameterControlType>
					<LowerBound>0</LowerBound>
					<UpperBound>4000</UpperBound>
					<value>-91445760000000000,100.,0,0,0,0,0,0</value>
					</parameter>
					<parameter authoringApp="PremierePro">
					<parameterid>8</parameterid>
					<name></name>
					<IsTimeVarying>false</IsTimeVarying>
					<ParameterControlType>2</ParameterControlType>
					<LowerBound>0</LowerBound>
					<UpperBound>100</UpperBound>
					<value>-91445760000000000,100.,0,0,0,0,0,0</value>
					</parameter>
					</effect>
					</filter>
					<logginginfo>
					<description></description>
					<scene></scene>
					<shottake></shottake>
					<lognote></lognote>
					<good></good>
					<originalvideofilename></originalvideofilename>
					<originalaudiofilename></originalaudiofilename>
					</logginginfo>
					<colorinfo>
					<lut></lut>
					<lut1></lut1>
					<asc_sop></asc_sop>
					<asc_sat></asc_sat>
					<lut2></lut2>
					</colorinfo>
					<labels>
					</labels>
					</clipitem>
					<clipitem frameBlend="FALSE" id="clipitem-316">
					<masterclipid>masterclip-236</masterclipid>
					<name></name>
					<enabled>TRUE</enabled>
					<duration>2582774</duration>
					<rate>
					
					                                    <timebase>60</timebase>
					                                    <ntsc>TRUE</ntsc>
					                                
					</rate>
					<start>1829</start>
					<end>1895</end>
					<in>1829</in>
					<out>1895</out>
					<pproTicksIn>914456774963789</pproTicksIn>
					<pproTicksOut>914677708529577</pproTicksOut>
					<alphatype>straight</alphatype>
					<pixelaspectratio>square</pixelaspectratio>
					<anamorphic>FALSE</anamorphic>
					<file id="file-235">
					<name></name>
					<mediaSource>GraphicAndType</mediaSource>
					<rate>
					<timebase>60</timebase>
					<ntsc>TRUE</ntsc>
					</rate>
					<timecode>
					<rate>
					<timebase>60</timebase>
					<ntsc>TRUE</ntsc>
					</rate>
					<string>00:00:00:00</string>
					<frame>0</frame>
					<displayformat>NDF</displayformat>
					</timecode>
					<media>
					<video>
					<samplecharacteristics>
					<rate>
					<timebase>60</timebase>
					<ntsc>TRUE</ntsc>
					</rate>
					<width>1080</width>
					<height>1920</height>
					<anamorphic>FALSE</anamorphic>
					<pixelaspectratio>square</pixelaspectratio>
					<fielddominance>none</fielddominance>
					</samplecharacteristics>
					</video>
					</media>
					</file>
					<filter>
					<effect>
					<name></name>
					<effectid>GraphicAndType</effectid>
					<effectcategory>graphic</effectcategory>
					<effecttype>filter</effecttype>
					<mediatype>video</mediatype>
					<pproBypass>false</pproBypass>
					<parameter authoringApp="PremierePro">
					<parameterid>1</parameterid>
					<name></name>
					<hash>025b1101-ead6-0ca2-1feb-caf3000001fc</hash>
					<value>5AEAAAAAAABEMyIRDAAAAAAABgAKAAQABgAAAGQAAAAAAF4ASAAQAAwARABAADwAOAAAAAAAAAAAADQAMwAsAAAAKAAkACAAAAAAAAAAAAAAAAAAHAAAAAAAGgAAAAAAAAAUAAAAAAAAAAAAAAAAAAAAAAAAAAgAAAAAABsABwBeAAAAAAAAAUAAAABQAAAAbAAAAAIAAAAAAAEAAQAAAAAAQEEAAMBAAABAQAAAyEIAAAABIAAAAAIAAAACAAAAAAA2QwCASkTw/v//9P7///j+//8S////AAAAAAEAAAAEAAAAEQAAAEhHUFNvZWlLYWt1cG9wdGFpAAAAAQAAAAwAAAAIAAwABAAIAAgAAAAIAAAAUAAAAA8AAADvvIEAAAAAAAAAAAAAAAAAAAA2ACQAAAAgABwAAAAAABsAFAAAAAAAAAAAAAAAAAAAAAAAAAAAABAAAAAAAAAADAAAAAgABAA2AAAAAgAAABwAAAAcAAAAHAAAAAAAIEEAAAABaAAAAE3PAEOw////tP///wEAAAAUAAAAEAAaAAgABwAMAAAAEAAUABAAAAAAAAABHAAAAAAAoEEcAAAAAgAAAAAACgAIAAUABgAHAAoAAAAADAD//P///wQABAAEAAAACAAIAAYABwAIAAAAAAAMAA==</value>
					</parameter>
					<parameter authoringApp="PremierePro">
					<parameterid>2</parameterid>
					<name></name>
					<IsTimeVarying>false</IsTimeVarying>
					<ParameterControlType>11</ParameterControlType>
					<LowerBound>false</LowerBound>
					<UpperBound>false</UpperBound>
					<value>-91445760000000000,false,0,0,0,0,0,0</value>
					</parameter>
					<parameter authoringApp="PremierePro">
					<parameterid>3</parameterid>
					<name></name>
					<IsTimeVarying>false</IsTimeVarying>
					<value>-91445760000000000,0.5:0.5,0,0,0,0,0,0,5,4,0,0,0,0</value>
					</parameter>
					<parameter authoringApp="PremierePro">
					<parameterid>4</parameterid>
					<name></name>
					<IsTimeVarying>false</IsTimeVarying>
					<ParameterControlType>2</ParameterControlType>
					<LowerBound>0</LowerBound>
					<UpperBound>4000</UpperBound>
					<value>-91445760000000000,100.,0,0,0,0,0,0</value>
					</parameter>
					<parameter authoringApp="PremierePro">
					<parameterid>8</parameterid>
					<name></name>
					<IsTimeVarying>false</IsTimeVarying>
					<ParameterControlType>2</ParameterControlType>
					<LowerBound>0</LowerBound>
					<UpperBound>100</UpperBound>
					<value>-91445760000000000,100.,0,0,0,0,0,0</value>
					</parameter>
					</effect>
					</filter>
					<logginginfo>
					<description></description>
					<scene></scene>
					<shottake></shottake>
					<lognote></lognote>
					<good></good>
					<originalvideofilename></originalvideofilename>
					<originalaudiofilename></originalaudiofilename>
					</logginginfo>
					<colorinfo>
					<lut></lut>
					<lut1></lut1>
					<asc_sop></asc_sop>
					<asc_sat></asc_sat>
					<lut2></lut2>
					</colorinfo>
					<labels>
					</labels>
					</clipitem>
					<clipitem id="clipitem-320"/>
					                        </track>
					                        <track TL.SQTrackShy="0" TL.SQTrackExpandedHeight="25" TL.SQTrackExpanded="0" MZ.TrackTargeted="0">
					<clipitem frameBlend="FALSE" id="clipitem-321">
					<masterclipid>masterclip-241</masterclipid>
					<name></name>
					<enabled>TRUE</enabled>
					<duration>2582774</duration>
					<rate>
					
					                                    <timebase>60</timebase>
					                                    <ntsc>TRUE</ntsc>
					                                
					</rate>
					<start>1895</start>
					<end>1955</end>
					<in>1895</in>
					<out>1955</out>
					<pproTicksIn>914456774963789</pproTicksIn>
					<pproTicksOut>914677708529577</pproTicksOut>
					<alphatype>straight</alphatype>
					<pixelaspectratio>square</pixelaspectratio>
					<anamorphic>FALSE</anamorphic>
					<file id="file-240">
					<name></name>
					<mediaSource>GraphicAndType</mediaSource>
					<rate>
					<timebase>60</timebase>
					<ntsc>TRUE</ntsc>
					</rate>
					<timecode>
					<rate>
					<timebase>60</timebase>
					<ntsc>TRUE</ntsc>
					</rate>
					<string>00:00:00:00</string>
					<frame>0</frame>
					<displayformat>NDF</displayformat>
					</timecode>
					<media>
					<video>
					<samplecharacteristics>
					<rate>
					<timebase>60</timebase>
					<ntsc>TRUE</ntsc>
					</rate>
					<width>1080</width>
					<height>1920</height>
					<anamorphic>FALSE</anamorphic>
					<pixelaspectratio>square</pixelaspectratio>
					<fielddominance>none</fielddominance>
					</samplecharacteristics>
					</video>
					</media>
					</file>
					<filter>
					<effect>
					<name></name>
					<effectid>GraphicAndType</effectid>
					<effectcategory>graphic</effectcategory>
					<effecttype>filter</effecttype>
					<mediatype>video</mediatype>
					<pproBypass>false</pproBypass>
					<parameter authoringApp="PremierePro">
					<parameterid>1</parameterid>
					<name></name>
					<hash>025b1101-ead6-0ca2-1feb-caf3000001fc</hash>
					<value>5AEAAAAAAABEMyIRDAAAAAAABgAKAAQABgAAAGQAAAAAAF4ASAAQAAwARABAADwAOAAAAAAAAAAAADQAMwAsAAAAKAAkACAAAAAAAAAAAAAAAAAAHAAAAAAAGgAAAAAAAAAUAAAAAAAAAAAAAAAAAAAAAAAAAAgAAAAAABsABwBeAAAAAAAAAUAAAABQAAAAbAAAAAIAAAAAAAEAAQAAAAAAQEEAAMBAAABAQAAAyEIAAAABIAAAAAIAAAACAAAAAAA2QwCASkTw/v//9P7///j+//8S////AAAAAAEAAAAEAAAAEQAAAEhHUFNvZWlLYWt1cG9wdGFpAAAAAQAAAAwAAAAIAAwABAAIAAgAAAAIAAAAUAAAAA8AAADvvIEAAAAAAAAAAAAAAAAAAAA2ACQAAAAgABwAAAAAABsAFAAAAAAAAAAAAAAAAAAAAAAAAAAAABAAAAAAAAAADAAAAAgABAA2AAAAAgAAABwAAAAcAAAAHAAAAAAAIEEAAAABaAAAAE3PAEOw////tP///wEAAAAUAAAAEAAaAAgABwAMAAAAEAAUABAAAAAAAAABHAAAAAAAoEEcAAAAAgAAAAAACgAIAAUABgAHAAoAAAAADAD//P///wQABAAEAAAACAAIAAYABwAIAAAAAAAMAA==</value>
					</parameter>
					<parameter authoringApp="PremierePro">
					<parameterid>2</parameterid>
					<name></name>
					<IsTimeVarying>false</IsTimeVarying>
					<ParameterControlType>11</ParameterControlType>
					<LowerBound>false</LowerBound>
					<UpperBound>false</UpperBound>
					<value>-91445760000000000,false,0,0,0,0,0,0</value>
					</parameter>
					<parameter authoringApp="PremierePro">
					<parameterid>3</parameterid>
					<name></name>
					<IsTimeVarying>false</IsTimeVarying>
					<value>-91445760000000000,0.5:0.5,0,0,0,0,0,0,5,4,0,0,0,0</value>
					</parameter>
					<parameter authoringApp="PremierePro">
					<parameterid>4</parameterid>
					<name></name>
					<IsTimeVarying>false</IsTimeVarying>
					<ParameterControlType>2</ParameterControlType>
					<LowerBound>0</LowerBound>
					<UpperBound>4000</UpperBound>
					<value>-91445760000000000,100.,0,0,0,0,0,0</value>
					</parameter>
					<parameter authoringApp="PremierePro">
					<parameterid>8</parameterid>
					<name></name>
					<IsTimeVarying>false</IsTimeVarying>
					<ParameterControlType>2</ParameterControlType>
					<LowerBound>0</LowerBound>
					<UpperBound>100</UpperBound>
					<value>-91445760000000000,100.,0,0,0,0,0,0</value>
					</parameter>
					</effect>
					</filter>
					<logginginfo>
					<description></description>
					<scene></scene>
					<shottake></shottake>
					<lognote></lognote>
					<good></good>
					<originalvideofilename></originalvideofilename>
					<originalaudiofilename></originalaudiofilename>
					</logginginfo>
					<colorinfo>
					<lut></lut>
					<lut1></lut1>
					<asc_sop></asc_sop>
					<asc_sat></asc_sat>
					<lut2></lut2>
					</colorinfo>
					<labels>
					</labels>
					</clipitem>
					<clipitem frameBlend="FALSE" id="clipitem-330">
					<masterclipid>masterclip-250</masterclipid>
					<name></name>
					<enabled>TRUE</enabled>
					<duration>2582774</duration>
					<rate>
					
					                                    <timebase>60</timebase>
					                                    <ntsc>TRUE</ntsc>
					                                
					</rate>
					<start>1955</start>
					<end>2015</end>
					<in>1955</in>
					<out>2015</out>
					<pproTicksIn>914456774963789</pproTicksIn>
					<pproTicksOut>914677708529577</pproTicksOut>
					<alphatype>straight</alphatype>
					<pixelaspectratio>square</pixelaspectratio>
					<anamorphic>FALSE</anamorphic>
					<file id="file-249">
					<name></name>
					<mediaSource>GraphicAndType</mediaSource>
					<rate>
					<timebase>60</timebase>
					<ntsc>TRUE</ntsc>
					</rate>
					<timecode>
					<rate>
					<timebase>60</timebase>
					<ntsc>TRUE</ntsc>
					</rate>
					<string>00:00:00:00</string>
					<frame>0</frame>
					<displayformat>NDF</displayformat>
					</timecode>
					<media>
					<video>
					<samplecharacteristics>
					<rate>
					<timebase>60</timebase>
					<ntsc>TRUE</ntsc>
					</rate>
					<width>1080</width>
					<height>1920</height>
					<anamorphic>FALSE</anamorphic>
					<pixelaspectratio>square</pixelaspectratio>
					<fielddominance>none</fielddominance>
					</samplecharacteristics>
					</video>
					</media>
					</file>
					<filter>
					<effect>
					<name></name>
					<effectid>GraphicAndType</effectid>
					<effectcategory>graphic</effectcategory>
					<effecttype>filter</effecttype>
					<mediatype>video</mediatype>
					<pproBypass>false</pproBypass>
					<parameter authoringApp="PremierePro">
					<parameterid>1</parameterid>
					<name></name>
					<hash>025b1101-ead6-0ca2-1feb-caf3000001fc</hash>
					<value>5AEAAAAAAABEMyIRDAAAAAAABgAKAAQABgAAAGQAAAAAAF4ASAAQAAwARABAADwAOAAAAAAAAAAAADQAMwAsAAAAKAAkACAAAAAAAAAAAAAAAAAAHAAAAAAAGgAAAAAAAAAUAAAAAAAAAAAAAAAAAAAAAAAAAAgAAAAAABsABwBeAAAAAAAAAUAAAABQAAAAbAAAAAIAAAAAAAEAAQAAAAAAQEEAAMBAAABAQAAAyEIAAAABIAAAAAIAAAACAAAAAAA2QwCASkTw/v//9P7///j+//8S////AAAAAAEAAAAEAAAAEQAAAEhHUFNvZWlLYWt1cG9wdGFpAAAAAQAAAAwAAAAIAAwABAAIAAgAAAAIAAAAUAAAAA8AAADvvIEAAAAAAAAAAAAAAAAAAAA2ACQAAAAgABwAAAAAABsAFAAAAAAAAAAAAAAAAAAAAAAAAAAAABAAAAAAAAAADAAAAAgABAA2AAAAAgAAABwAAAAcAAAAHAAAAAAAIEEAAAABaAAAAE3PAEOw////tP///wEAAAAUAAAAEAAaAAgABwAMAAAAEAAUABAAAAAAAAABHAAAAAAAoEEcAAAAAgAAAAAACgAIAAUABgAHAAoAAAAADAD//P///wQABAAEAAAACAAIAAYABwAIAAAAAAAMAA==</value>
					</parameter>
					<parameter authoringApp="PremierePro">
					<parameterid>2</parameterid>
					<name></name>
					<IsTimeVarying>false</IsTimeVarying>
					<ParameterControlType>11</ParameterControlType>
					<LowerBound>false</LowerBound>
					<UpperBound>false</UpperBound>
					<value>-91445760000000000,false,0,0,0,0,0,0</value>
					</parameter>
					<parameter authoringApp="PremierePro">
					<parameterid>3</parameterid>
					<name></name>
					<IsTimeVarying>false</IsTimeVarying>
					<value>-91445760000000000,0.5:0.5,0,0,0,0,0,0,5,4,0,0,0,0</value>
					</parameter>
					<parameter authoringApp="PremierePro">
					<parameterid>4</parameterid>
					<name></name>
					<IsTimeVarying>false</IsTimeVarying>
					<ParameterControlType>2</ParameterControlType>
					<LowerBound>0</LowerBound>
					<UpperBound>4000</UpperBound>
					<value>-91445760000000000,100.,0,0,0,0,0,0</value>
					</parameter>
					<parameter authoringApp="PremierePro">
					<parameterid>8</parameterid>
					<name></name>
					<IsTimeVarying>false</IsTimeVarying>
					<ParameterControlType>2</ParameterControlType>
					<LowerBound>0</LowerBound>
					<UpperBound>100</UpperBound>
					<value>-91445760000000000,100.,0,0,0,0,0,0</value>
					</parameter>
					</effect>
					</filter>
					<logginginfo>
					<description></description>
					<scene></scene>
					<shottake></shottake>
					<lognote></lognote>
					<good></good>
					<originalvideofilename></originalvideofilename>
					<originalaudiofilename></originalaudiofilename>
					</logginginfo>
					<colorinfo>
					<lut></lut>
					<lut1></lut1>
					<asc_sop></asc_sop>
					<asc_sat></asc_sat>
					<lut2></lut2>
					</colorinfo>
					<labels>
					</labels>
					</clipitem>
					<clipitem frameBlend="FALSE" id="clipitem-335">
					<masterclipid>masterclip-255</masterclipid>
					<name></name>
					<enabled>TRUE</enabled>
					<duration>2582774</duration>
					<rate>
					
					                                    <timebase>60</timebase>
					                                    <ntsc>TRUE</ntsc>
					                                
					</rate>
					<start>2021</start>
					<end>2087</end>
					<in>2021</in>
					<out>2087</out>
					<pproTicksIn>914456774963789</pproTicksIn>
					<pproTicksOut>914677708529577</pproTicksOut>
					<alphatype>straight</alphatype>
					<pixelaspectratio>square</pixelaspectratio>
					<anamorphic>FALSE</anamorphic>
					<file id="file-254">
					<name></name>
					<mediaSource>GraphicAndType</mediaSource>
					<rate>
					<timebase>60</timebase>
					<ntsc>TRUE</ntsc>
					</rate>
					<timecode>
					<rate>
					<timebase>60</timebase>
					<ntsc>TRUE</ntsc>
					</rate>
					<string>00:00:00:00</string>
					<frame>0</frame>
					<displayformat>NDF</displayformat>
					</timecode>
					<media>
					<video>
					<samplecharacteristics>
					<rate>
					<timebase>60</timebase>
					<ntsc>TRUE</ntsc>
					</rate>
					<width>1080</width>
					<height>1920</height>
					<anamorphic>FALSE</anamorphic>
					<pixelaspectratio>square</pixelaspectratio>
					<fielddominance>none</fielddominance>
					</samplecharacteristics>
					</video>
					</media>
					</file>
					<filter>
					<effect>
					<name></name>
					<effectid>GraphicAndType</effectid>
					<effectcategory>graphic</effectcategory>
					<effecttype>filter</effecttype>
					<mediatype>video</mediatype>
					<pproBypass>false</pproBypass>
					<parameter authoringApp="PremierePro">
					<parameterid>1</parameterid>
					<name></name>
					<hash>025b1101-ead6-0ca2-1feb-caf3000001fc</hash>
					<value>5AEAAAAAAABEMyIRDAAAAAAABgAKAAQABgAAAGQAAAAAAF4ASAAQAAwARABAADwAOAAAAAAAAAAAADQAMwAsAAAAKAAkACAAAAAAAAAAAAAAAAAAHAAAAAAAGgAAAAAAAAAUAAAAAAAAAAAAAAAAAAAAAAAAAAgAAAAAABsABwBeAAAAAAAAAUAAAABQAAAAbAAAAAIAAAAAAAEAAQAAAAAAQEEAAMBAAABAQAAAyEIAAAABIAAAAAIAAAACAAAAAAA2QwCASkTw/v//9P7///j+//8S////AAAAAAEAAAAEAAAAEQAAAEhHUFNvZWlLYWt1cG9wdGFpAAAAAQAAAAwAAAAIAAwABAAIAAgAAAAIAAAAUAAAAA8AAADvvIEAAAAAAAAAAAAAAAAAAAA2ACQAAAAgABwAAAAAABsAFAAAAAAAAAAAAAAAAAAAAAAAAAAAABAAAAAAAAAADAAAAAgABAA2AAAAAgAAABwAAAAcAAAAHAAAAAAAIEEAAAABaAAAAE3PAEOw////tP///wEAAAAUAAAAEAAaAAgABwAMAAAAEAAUABAAAAAAAAABHAAAAAAAoEEcAAAAAgAAAAAACgAIAAUABgAHAAoAAAAADAD//P///wQABAAEAAAACAAIAAYABwAIAAAAAAAMAA==</value>
					</parameter>
					<parameter authoringApp="PremierePro">
					<parameterid>2</parameterid>
					<name></name>
					<IsTimeVarying>false</IsTimeVarying>
					<ParameterControlType>11</ParameterControlType>
					<LowerBound>false</LowerBound>
					<UpperBound>false</UpperBound>
					<value>-91445760000000000,false,0,0,0,0,0,0</value>
					</parameter>
					<parameter authoringApp="PremierePro">
					<parameterid>3</parameterid>
					<name></name>
					<IsTimeVarying>false</IsTimeVarying>
					<value>-91445760000000000,0.5:0.5,0,0,0,0,0,0,5,4,0,0,0,0</value>
					</parameter>
					<parameter authoringApp="PremierePro">
					<parameterid>4</parameterid>
					<name></name>
					<IsTimeVarying>false</IsTimeVarying>
					<ParameterControlType>2</ParameterControlType>
					<LowerBound>0</LowerBound>
					<UpperBound>4000</UpperBound>
					<value>-91445760000000000,100.,0,0,0,0,0,0</value>
					</parameter>
					<parameter authoringApp="PremierePro">
					<parameterid>8</parameterid>
					<name></name>
					<IsTimeVarying>false</IsTimeVarying>
					<ParameterControlType>2</ParameterControlType>
					<LowerBound>0</LowerBound>
					<UpperBound>100</UpperBound>
					<value>-91445760000000000,100.,0,0,0,0,0,0</value>
					</parameter>
					</effect>
					</filter>
					<logginginfo>
					<description></description>
					<scene></scene>
					<shottake></shottake>
					<lognote></lognote>
					<good></good>
					<originalvideofilename></originalvideofilename>
					<originalaudiofilename></originalaudiofilename>
					</logginginfo>
					<colorinfo>
					<lut></lut>
					<lut1></lut1>
					<asc_sop></asc_sop>
					<asc_sat></asc_sat>
					<lut2></lut2>
					</colorinfo>
					<labels>
					</labels>
					</clipitem>
					<clipitem frameBlend="FALSE" id="clipitem-338">
					<masterclipid>masterclip-258</masterclipid>
					<name></name>
					<enabled>TRUE</enabled>
					<duration>2582774</duration>
					<rate>
					
					                                    <timebase>60</timebase>
					                                    <ntsc>TRUE</ntsc>
					                                
					</rate>
					<start>2087</start>
					<end>2147</end>
					<in>2087</in>
					<out>2147</out>
					<pproTicksIn>914456774963789</pproTicksIn>
					<pproTicksOut>914677708529577</pproTicksOut>
					<alphatype>straight</alphatype>
					<pixelaspectratio>square</pixelaspectratio>
					<anamorphic>FALSE</anamorphic>
					<file id="file-257">
					<name></name>
					<mediaSource>GraphicAndType</mediaSource>
					<rate>
					<timebase>60</timebase>
					<ntsc>TRUE</ntsc>
					</rate>
					<timecode>
					<rate>
					<timebase>60</timebase>
					<ntsc>TRUE</ntsc>
					</rate>
					<string>00:00:00:00</string>
					<frame>0</frame>
					<displayformat>NDF</displayformat>
					</timecode>
					<media>
					<video>
					<samplecharacteristics>
					<rate>
					<timebase>60</timebase>
					<ntsc>TRUE</ntsc>
					</rate>
					<width>1080</width>
					<height>1920</height>
					<anamorphic>FALSE</anamorphic>
					<pixelaspectratio>square</pixelaspectratio>
					<fielddominance>none</fielddominance>
					</samplecharacteristics>
					</video>
					</media>
					</file>
					<filter>
					<effect>
					<name></name>
					<effectid>GraphicAndType</effectid>
					<effectcategory>graphic</effectcategory>
					<effecttype>filter</effecttype>
					<mediatype>video</mediatype>
					<pproBypass>false</pproBypass>
					<parameter authoringApp="PremierePro">
					<parameterid>1</parameterid>
					<name></name>
					<hash>025b1101-ead6-0ca2-1feb-caf3000001fc</hash>
					<value>5AEAAAAAAABEMyIRDAAAAAAABgAKAAQABgAAAGQAAAAAAF4ASAAQAAwARABAADwAOAAAAAAAAAAAADQAMwAsAAAAKAAkACAAAAAAAAAAAAAAAAAAHAAAAAAAGgAAAAAAAAAUAAAAAAAAAAAAAAAAAAAAAAAAAAgAAAAAABsABwBeAAAAAAAAAUAAAABQAAAAbAAAAAIAAAAAAAEAAQAAAAAAQEEAAMBAAABAQAAAyEIAAAABIAAAAAIAAAACAAAAAAA2QwCASkTw/v//9P7///j+//8S////AAAAAAEAAAAEAAAAEQAAAEhHUFNvZWlLYWt1cG9wdGFpAAAAAQAAAAwAAAAIAAwABAAIAAgAAAAIAAAAUAAAAA8AAADvvIEAAAAAAAAAAAAAAAAAAAA2ACQAAAAgABwAAAAAABsAFAAAAAAAAAAAAAAAAAAAAAAAAAAAABAAAAAAAAAADAAAAAgABAA2AAAAAgAAABwAAAAcAAAAHAAAAAAAIEEAAAABaAAAAE3PAEOw////tP///wEAAAAUAAAAEAAaAAgABwAMAAAAEAAUABAAAAAAAAABHAAAAAAAoEEcAAAAAgAAAAAACgAIAAUABgAHAAoAAAAADAD//P///wQABAAEAAAACAAIAAYABwAIAAAAAAAMAA==</value>
					</parameter>
					<parameter authoringApp="PremierePro">
					<parameterid>2</parameterid>
					<name></name>
					<IsTimeVarying>false</IsTimeVarying>
					<ParameterControlType>11</ParameterControlType>
					<LowerBound>false</LowerBound>
					<UpperBound>false</UpperBound>
					<value>-91445760000000000,false,0,0,0,0,0,0</value>
					</parameter>
					<parameter authoringApp="PremierePro">
					<parameterid>3</parameterid>
					<name></name>
					<IsTimeVarying>false</IsTimeVarying>
					<value>-91445760000000000,0.5:0.5,0,0,0,0,0,0,5,4,0,0,0,0</value>
					</parameter>
					<parameter authoringApp="PremierePro">
					<parameterid>4</parameterid>
					<name></name>
					<IsTimeVarying>false</IsTimeVarying>
					<ParameterControlType>2</ParameterControlType>
					<LowerBound>0</LowerBound>
					<UpperBound>4000</UpperBound>
					<value>-91445760000000000,100.,0,0,0,0,0,0</value>
					</parameter>
					<parameter authoringApp="PremierePro">
					<parameterid>8</parameterid>
					<name></name>
					<IsTimeVarying>false</IsTimeVarying>
					<ParameterControlType>2</ParameterControlType>
					<LowerBound>0</LowerBound>
					<UpperBound>100</UpperBound>
					<value>-91445760000000000,100.,0,0,0,0,0,0</value>
					</parameter>
					</effect>
					</filter>
					<logginginfo>
					<description></description>
					<scene></scene>
					<shottake></shottake>
					<lognote></lognote>
					<good></good>
					<originalvideofilename></originalvideofilename>
					<originalaudiofilename></originalaudiofilename>
					</logginginfo>
					<colorinfo>
					<lut></lut>
					<lut1></lut1>
					<asc_sop></asc_sop>
					<asc_sat></asc_sat>
					<lut2></lut2>
					</colorinfo>
					<labels>
					</labels>
					</clipitem>
					<clipitem frameBlend="FALSE" id="clipitem-339">
					<masterclipid>masterclip-259</masterclipid>
					<name></name>
					<enabled>TRUE</enabled>
					<duration>2582774</duration>
					<rate>
					
					                                    <timebase>60</timebase>
					                                    <ntsc>TRUE</ntsc>
					                                
					</rate>
					<start>2147</start>
					<end>2207</end>
					<in>2147</in>
					<out>2207</out>
					<pproTicksIn>914456774963789</pproTicksIn>
					<pproTicksOut>914677708529577</pproTicksOut>
					<alphatype>straight</alphatype>
					<pixelaspectratio>square</pixelaspectratio>
					<anamorphic>FALSE</anamorphic>
					<file id="file-258">
					<name></name>
					<mediaSource>GraphicAndType</mediaSource>
					<rate>
					<timebase>60</timebase>
					<ntsc>TRUE</ntsc>
					</rate>
					<timecode>
					<rate>
					<timebase>60</timebase>
					<ntsc>TRUE</ntsc>
					</rate>
					<string>00:00:00:00</string>
					<frame>0</frame>
					<displayformat>NDF</displayformat>
					</timecode>
					<media>
					<video>
					<samplecharacteristics>
					<rate>
					<timebase>60</timebase>
					<ntsc>TRUE</ntsc>
					</rate>
					<width>1080</width>
					<height>1920</height>
					<anamorphic>FALSE</anamorphic>
					<pixelaspectratio>square</pixelaspectratio>
					<fielddominance>none</fielddominance>
					</samplecharacteristics>
					</video>
					</media>
					</file>
					<filter>
					<effect>
					<name></name>
					<effectid>GraphicAndType</effectid>
					<effectcategory>graphic</effectcategory>
					<effecttype>filter</effecttype>
					<mediatype>video</mediatype>
					<pproBypass>false</pproBypass>
					<parameter authoringApp="PremierePro">
					<parameterid>1</parameterid>
					<name></name>
					<hash>025b1101-ead6-0ca2-1feb-caf3000001fc</hash>
					<value>5AEAAAAAAABEMyIRDAAAAAAABgAKAAQABgAAAGQAAAAAAF4ASAAQAAwARABAADwAOAAAAAAAAAAAADQAMwAsAAAAKAAkACAAAAAAAAAAAAAAAAAAHAAAAAAAGgAAAAAAAAAUAAAAAAAAAAAAAAAAAAAAAAAAAAgAAAAAABsABwBeAAAAAAAAAUAAAABQAAAAbAAAAAIAAAAAAAEAAQAAAAAAQEEAAMBAAABAQAAAyEIAAAABIAAAAAIAAAACAAAAAAA2QwCASkTw/v//9P7///j+//8S////AAAAAAEAAAAEAAAAEQAAAEhHUFNvZWlLYWt1cG9wdGFpAAAAAQAAAAwAAAAIAAwABAAIAAgAAAAIAAAAUAAAAA8AAADvvIEAAAAAAAAAAAAAAAAAAAA2ACQAAAAgABwAAAAAABsAFAAAAAAAAAAAAAAAAAAAAAAAAAAAABAAAAAAAAAADAAAAAgABAA2AAAAAgAAABwAAAAcAAAAHAAAAAAAIEEAAAABaAAAAE3PAEOw////tP///wEAAAAUAAAAEAAaAAgABwAMAAAAEAAUABAAAAAAAAABHAAAAAAAoEEcAAAAAgAAAAAACgAIAAUABgAHAAoAAAAADAD//P///wQABAAEAAAACAAIAAYABwAIAAAAAAAMAA==</value>
					</parameter>
					<parameter authoringApp="PremierePro">
					<parameterid>2</parameterid>
					<name></name>
					<IsTimeVarying>false</IsTimeVarying>
					<ParameterControlType>11</ParameterControlType>
					<LowerBound>false</LowerBound>
					<UpperBound>false</UpperBound>
					<value>-91445760000000000,false,0,0,0,0,0,0</value>
					</parameter>
					<parameter authoringApp="PremierePro">
					<parameterid>3</parameterid>
					<name></name>
					<IsTimeVarying>false</IsTimeVarying>
					<value>-91445760000000000,0.5:0.5,0,0,0,0,0,0,5,4,0,0,0,0</value>
					</parameter>
					<parameter authoringApp="PremierePro">
					<parameterid>4</parameterid>
					<name></name>
					<IsTimeVarying>false</IsTimeVarying>
					<ParameterControlType>2</ParameterControlType>
					<LowerBound>0</LowerBound>
					<UpperBound>4000</UpperBound>
					<value>-91445760000000000,100.,0,0,0,0,0,0</value>
					</parameter>
					<parameter authoringApp="PremierePro">
					<parameterid>8</parameterid>
					<name></name>
					<IsTimeVarying>false</IsTimeVarying>
					<ParameterControlType>2</ParameterControlType>
					<LowerBound>0</LowerBound>
					<UpperBound>100</UpperBound>
					<value>-91445760000000000,100.,0,0,0,0,0,0</value>
					</parameter>
					</effect>
					</filter>
					<logginginfo>
					<description></description>
					<scene></scene>
					<shottake></shottake>
					<lognote></lognote>
					<good></good>
					<originalvideofilename></originalvideofilename>
					<originalaudiofilename></originalaudiofilename>
					</logginginfo>
					<colorinfo>
					<lut></lut>
					<lut1></lut1>
					<asc_sop></asc_sop>
					<asc_sat></asc_sat>
					<lut2></lut2>
					</colorinfo>
					<labels>
					</labels>
					</clipitem>
					<clipitem frameBlend="FALSE" id="clipitem-347">
					<masterclipid>masterclip-267</masterclipid>
					<name></name>
					<enabled>TRUE</enabled>
					<duration>2582774</duration>
					<rate>
					
					                                    <timebase>60</timebase>
					                                    <ntsc>TRUE</ntsc>
					                                
					</rate>
					<start>2207</start>
					<end>2267</end>
					<in>2207</in>
					<out>2267</out>
					<pproTicksIn>914456774963789</pproTicksIn>
					<pproTicksOut>914677708529577</pproTicksOut>
					<alphatype>straight</alphatype>
					<pixelaspectratio>square</pixelaspectratio>
					<anamorphic>FALSE</anamorphic>
					<file id="file-266">
					<name></name>
					<mediaSource>GraphicAndType</mediaSource>
					<rate>
					<timebase>60</timebase>
					<ntsc>TRUE</ntsc>
					</rate>
					<timecode>
					<rate>
					<timebase>60</timebase>
					<ntsc>TRUE</ntsc>
					</rate>
					<string>00:00:00:00</string>
					<frame>0</frame>
					<displayformat>NDF</displayformat>
					</timecode>
					<media>
					<video>
					<samplecharacteristics>
					<rate>
					<timebase>60</timebase>
					<ntsc>TRUE</ntsc>
					</rate>
					<width>1080</width>
					<height>1920</height>
					<anamorphic>FALSE</anamorphic>
					<pixelaspectratio>square</pixelaspectratio>
					<fielddominance>none</fielddominance>
					</samplecharacteristics>
					</video>
					</media>
					</file>
					<filter>
					<effect>
					<name></name>
					<effectid>GraphicAndType</effectid>
					<effectcategory>graphic</effectcategory>
					<effecttype>filter</effecttype>
					<mediatype>video</mediatype>
					<pproBypass>false</pproBypass>
					<parameter authoringApp="PremierePro">
					<parameterid>1</parameterid>
					<name></name>
					<hash>025b1101-ead6-0ca2-1feb-caf3000001fc</hash>
					<value>5AEAAAAAAABEMyIRDAAAAAAABgAKAAQABgAAAGQAAAAAAF4ASAAQAAwARABAADwAOAAAAAAAAAAAADQAMwAsAAAAKAAkACAAAAAAAAAAAAAAAAAAHAAAAAAAGgAAAAAAAAAUAAAAAAAAAAAAAAAAAAAAAAAAAAgAAAAAABsABwBeAAAAAAAAAUAAAABQAAAAbAAAAAIAAAAAAAEAAQAAAAAAQEEAAMBAAABAQAAAyEIAAAABIAAAAAIAAAACAAAAAAA2QwCASkTw/v//9P7///j+//8S////AAAAAAEAAAAEAAAAEQAAAEhHUFNvZWlLYWt1cG9wdGFpAAAAAQAAAAwAAAAIAAwABAAIAAgAAAAIAAAAUAAAAA8AAADvvIEAAAAAAAAAAAAAAAAAAAA2ACQAAAAgABwAAAAAABsAFAAAAAAAAAAAAAAAAAAAAAAAAAAAABAAAAAAAAAADAAAAAgABAA2AAAAAgAAABwAAAAcAAAAHAAAAAAAIEEAAAABaAAAAE3PAEOw////tP///wEAAAAUAAAAEAAaAAgABwAMAAAAEAAUABAAAAAAAAABHAAAAAAAoEEcAAAAAgAAAAAACgAIAAUABgAHAAoAAAAADAD//P///wQABAAEAAAACAAIAAYABwAIAAAAAAAMAA==</value>
					</parameter>
					<parameter authoringApp="PremierePro">
					<parameterid>2</parameterid>
					<name></name>
					<IsTimeVarying>false</IsTimeVarying>
					<ParameterControlType>11</ParameterControlType>
					<LowerBound>false</LowerBound>
					<UpperBound>false</UpperBound>
					<value>-91445760000000000,false,0,0,0,0,0,0</value>
					</parameter>
					<parameter authoringApp="PremierePro">
					<parameterid>3</parameterid>
					<name></name>
					<IsTimeVarying>false</IsTimeVarying>
					<value>-91445760000000000,0.5:0.5,0,0,0,0,0,0,5,4,0,0,0,0</value>
					</parameter>
					<parameter authoringApp="PremierePro">
					<parameterid>4</parameterid>
					<name></name>
					<IsTimeVarying>false</IsTimeVarying>
					<ParameterControlType>2</ParameterControlType>
					<LowerBound>0</LowerBound>
					<UpperBound>4000</UpperBound>
					<value>-91445760000000000,100.,0,0,0,0,0,0</value>
					</parameter>
					<parameter authoringApp="PremierePro">
					<parameterid>8</parameterid>
					<name></name>
					<IsTimeVarying>false</IsTimeVarying>
					<ParameterControlType>2</ParameterControlType>
					<LowerBound>0</LowerBound>
					<UpperBound>100</UpperBound>
					<value>-91445760000000000,100.,0,0,0,0,0,0</value>
					</parameter>
					</effect>
					</filter>
					<logginginfo>
					<description></description>
					<scene></scene>
					<shottake></shottake>
					<lognote></lognote>
					<good></good>
					<originalvideofilename></originalvideofilename>
					<originalaudiofilename></originalaudiofilename>
					</logginginfo>
					<colorinfo>
					<lut></lut>
					<lut1></lut1>
					<asc_sop></asc_sop>
					<asc_sat></asc_sat>
					<lut2></lut2>
					</colorinfo>
					<labels>
					</labels>
					</clipitem>
					<clipitem frameBlend="FALSE" id="clipitem-348">
					<masterclipid>masterclip-268</masterclipid>
					<name></name>
					<enabled>TRUE</enabled>
					<duration>2582774</duration>
					<rate>
					
					                                    <timebase>60</timebase>
					                                    <ntsc>TRUE</ntsc>
					                                
					</rate>
					<start>2297</start>
					<end>2357</end>
					<in>2297</in>
					<out>2357</out>
					<pproTicksIn>914456774963789</pproTicksIn>
					<pproTicksOut>914677708529577</pproTicksOut>
					<alphatype>straight</alphatype>
					<pixelaspectratio>square</pixelaspectratio>
					<anamorphic>FALSE</anamorphic>
					<file id="file-267">
					<name></name>
					<mediaSource>GraphicAndType</mediaSource>
					<rate>
					<timebase>60</timebase>
					<ntsc>TRUE</ntsc>
					</rate>
					<timecode>
					<rate>
					<timebase>60</timebase>
					<ntsc>TRUE</ntsc>
					</rate>
					<string>00:00:00:00</string>
					<frame>0</frame>
					<displayformat>NDF</displayformat>
					</timecode>
					<media>
					<video>
					<samplecharacteristics>
					<rate>
					<timebase>60</timebase>
					<ntsc>TRUE</ntsc>
					</rate>
					<width>1080</width>
					<height>1920</height>
					<anamorphic>FALSE</anamorphic>
					<pixelaspectratio>square</pixelaspectratio>
					<fielddominance>none</fielddominance>
					</samplecharacteristics>
					</video>
					</media>
					</file>
					<filter>
					<effect>
					<name></name>
					<effectid>GraphicAndType</effectid>
					<effectcategory>graphic</effectcategory>
					<effecttype>filter</effecttype>
					<mediatype>video</mediatype>
					<pproBypass>false</pproBypass>
					<parameter authoringApp="PremierePro">
					<parameterid>1</parameterid>
					<name></name>
					<hash>025b1101-ead6-0ca2-1feb-caf3000001fc</hash>
					<value>5AEAAAAAAABEMyIRDAAAAAAABgAKAAQABgAAAGQAAAAAAF4ASAAQAAwARABAADwAOAAAAAAAAAAAADQAMwAsAAAAKAAkACAAAAAAAAAAAAAAAAAAHAAAAAAAGgAAAAAAAAAUAAAAAAAAAAAAAAAAAAAAAAAAAAgAAAAAABsABwBeAAAAAAAAAUAAAABQAAAAbAAAAAIAAAAAAAEAAQAAAAAAQEEAAMBAAABAQAAAyEIAAAABIAAAAAIAAAACAAAAAAA2QwCASkTw/v//9P7///j+//8S////AAAAAAEAAAAEAAAAEQAAAEhHUFNvZWlLYWt1cG9wdGFpAAAAAQAAAAwAAAAIAAwABAAIAAgAAAAIAAAAUAAAAA8AAADvvIEAAAAAAAAAAAAAAAAAAAA2ACQAAAAgABwAAAAAABsAFAAAAAAAAAAAAAAAAAAAAAAAAAAAABAAAAAAAAAADAAAAAgABAA2AAAAAgAAABwAAAAcAAAAHAAAAAAAIEEAAAABaAAAAE3PAEOw////tP///wEAAAAUAAAAEAAaAAgABwAMAAAAEAAUABAAAAAAAAABHAAAAAAAoEEcAAAAAgAAAAAACgAIAAUABgAHAAoAAAAADAD//P///wQABAAEAAAACAAIAAYABwAIAAAAAAAMAA==</value>
					</parameter>
					<parameter authoringApp="PremierePro">
					<parameterid>2</parameterid>
					<name></name>
					<IsTimeVarying>false</IsTimeVarying>
					<ParameterControlType>11</ParameterControlType>
					<LowerBound>false</LowerBound>
					<UpperBound>false</UpperBound>
					<value>-91445760000000000,false,0,0,0,0,0,0</value>
					</parameter>
					<parameter authoringApp="PremierePro">
					<parameterid>3</parameterid>
					<name></name>
					<IsTimeVarying>false</IsTimeVarying>
					<value>-91445760000000000,0.5:0.5,0,0,0,0,0,0,5,4,0,0,0,0</value>
					</parameter>
					<parameter authoringApp="PremierePro">
					<parameterid>4</parameterid>
					<name></name>
					<IsTimeVarying>false</IsTimeVarying>
					<ParameterControlType>2</ParameterControlType>
					<LowerBound>0</LowerBound>
					<UpperBound>4000</UpperBound>
					<value>-91445760000000000,100.,0,0,0,0,0,0</value>
					</parameter>
					<parameter authoringApp="PremierePro">
					<parameterid>8</parameterid>
					<name></name>
					<IsTimeVarying>false</IsTimeVarying>
					<ParameterControlType>2</ParameterControlType>
					<LowerBound>0</LowerBound>
					<UpperBound>100</UpperBound>
					<value>-91445760000000000,100.,0,0,0,0,0,0</value>
					</parameter>
					</effect>
					</filter>
					<logginginfo>
					<description></description>
					<scene></scene>
					<shottake></shottake>
					<lognote></lognote>
					<good></good>
					<originalvideofilename></originalvideofilename>
					<originalaudiofilename></originalaudiofilename>
					</logginginfo>
					<colorinfo>
					<lut></lut>
					<lut1></lut1>
					<asc_sop></asc_sop>
					<asc_sat></asc_sat>
					<lut2></lut2>
					</colorinfo>
					<labels>
					</labels>
					</clipitem>
					<clipitem frameBlend="FALSE" id="clipitem-354">
					<masterclipid>masterclip-274</masterclipid>
					<name></name>
					<enabled>TRUE</enabled>
					<duration>2582774</duration>
					<rate>
					
					                                    <timebase>60</timebase>
					                                    <ntsc>TRUE</ntsc>
					                                
					</rate>
					<start>2363</start>
					<end>2423</end>
					<in>2363</in>
					<out>2423</out>
					<pproTicksIn>914456774963789</pproTicksIn>
					<pproTicksOut>914677708529577</pproTicksOut>
					<alphatype>straight</alphatype>
					<pixelaspectratio>square</pixelaspectratio>
					<anamorphic>FALSE</anamorphic>
					<file id="file-273">
					<name></name>
					<mediaSource>GraphicAndType</mediaSource>
					<rate>
					<timebase>60</timebase>
					<ntsc>TRUE</ntsc>
					</rate>
					<timecode>
					<rate>
					<timebase>60</timebase>
					<ntsc>TRUE</ntsc>
					</rate>
					<string>00:00:00:00</string>
					<frame>0</frame>
					<displayformat>NDF</displayformat>
					</timecode>
					<media>
					<video>
					<samplecharacteristics>
					<rate>
					<timebase>60</timebase>
					<ntsc>TRUE</ntsc>
					</rate>
					<width>1080</width>
					<height>1920</height>
					<anamorphic>FALSE</anamorphic>
					<pixelaspectratio>square</pixelaspectratio>
					<fielddominance>none</fielddominance>
					</samplecharacteristics>
					</video>
					</media>
					</file>
					<filter>
					<effect>
					<name></name>
					<effectid>GraphicAndType</effectid>
					<effectcategory>graphic</effectcategory>
					<effecttype>filter</effecttype>
					<mediatype>video</mediatype>
					<pproBypass>false</pproBypass>
					<parameter authoringApp="PremierePro">
					<parameterid>1</parameterid>
					<name></name>
					<hash>025b1101-ead6-0ca2-1feb-caf3000001fc</hash>
					<value>5AEAAAAAAABEMyIRDAAAAAAABgAKAAQABgAAAGQAAAAAAF4ASAAQAAwARABAADwAOAAAAAAAAAAAADQAMwAsAAAAKAAkACAAAAAAAAAAAAAAAAAAHAAAAAAAGgAAAAAAAAAUAAAAAAAAAAAAAAAAAAAAAAAAAAgAAAAAABsABwBeAAAAAAAAAUAAAABQAAAAbAAAAAIAAAAAAAEAAQAAAAAAQEEAAMBAAABAQAAAyEIAAAABIAAAAAIAAAACAAAAAAA2QwCASkTw/v//9P7///j+//8S////AAAAAAEAAAAEAAAAEQAAAEhHUFNvZWlLYWt1cG9wdGFpAAAAAQAAAAwAAAAIAAwABAAIAAgAAAAIAAAAUAAAAA8AAADvvIEAAAAAAAAAAAAAAAAAAAA2ACQAAAAgABwAAAAAABsAFAAAAAAAAAAAAAAAAAAAAAAAAAAAABAAAAAAAAAADAAAAAgABAA2AAAAAgAAABwAAAAcAAAAHAAAAAAAIEEAAAABaAAAAE3PAEOw////tP///wEAAAAUAAAAEAAaAAgABwAMAAAAEAAUABAAAAAAAAABHAAAAAAAoEEcAAAAAgAAAAAACgAIAAUABgAHAAoAAAAADAD//P///wQABAAEAAAACAAIAAYABwAIAAAAAAAMAA==</value>
					</parameter>
					<parameter authoringApp="PremierePro">
					<parameterid>2</parameterid>
					<name></name>
					<IsTimeVarying>false</IsTimeVarying>
					<ParameterControlType>11</ParameterControlType>
					<LowerBound>false</LowerBound>
					<UpperBound>false</UpperBound>
					<value>-91445760000000000,false,0,0,0,0,0,0</value>
					</parameter>
					<parameter authoringApp="PremierePro">
					<parameterid>3</parameterid>
					<name></name>
					<IsTimeVarying>false</IsTimeVarying>
					<value>-91445760000000000,0.5:0.5,0,0,0,0,0,0,5,4,0,0,0,0</value>
					</parameter>
					<parameter authoringApp="PremierePro">
					<parameterid>4</parameterid>
					<name></name>
					<IsTimeVarying>false</IsTimeVarying>
					<ParameterControlType>2</ParameterControlType>
					<LowerBound>0</LowerBound>
					<UpperBound>4000</UpperBound>
					<value>-91445760000000000,100.,0,0,0,0,0,0</value>
					</parameter>
					<parameter authoringApp="PremierePro">
					<parameterid>8</parameterid>
					<name></name>
					<IsTimeVarying>false</IsTimeVarying>
					<ParameterControlType>2</ParameterControlType>
					<LowerBound>0</LowerBound>
					<UpperBound>100</UpperBound>
					<value>-91445760000000000,100.,0,0,0,0,0,0</value>
					</parameter>
					</effect>
					</filter>
					<logginginfo>
					<description></description>
					<scene></scene>
					<shottake></shottake>
					<lognote></lognote>
					<good></good>
					<originalvideofilename></originalvideofilename>
					<originalaudiofilename></originalaudiofilename>
					</logginginfo>
					<colorinfo>
					<lut></lut>
					<lut1></lut1>
					<asc_sop></asc_sop>
					<asc_sat></asc_sat>
					<lut2></lut2>
					</colorinfo>
					<labels>
					</labels>
					</clipitem>
					<clipitem frameBlend="FALSE" id="clipitem-358">
					<masterclipid>masterclip-278</masterclipid>
					<name></name>
					<enabled>TRUE</enabled>
					<duration>2582774</duration>
					<rate>
					
					                                    <timebase>60</timebase>
					                                    <ntsc>TRUE</ntsc>
					                                
					</rate>
					<start>2423</start>
					<end>2483</end>
					<in>2423</in>
					<out>2483</out>
					<pproTicksIn>914456774963789</pproTicksIn>
					<pproTicksOut>914677708529577</pproTicksOut>
					<alphatype>straight</alphatype>
					<pixelaspectratio>square</pixelaspectratio>
					<anamorphic>FALSE</anamorphic>
					<file id="file-277">
					<name></name>
					<mediaSource>GraphicAndType</mediaSource>
					<rate>
					<timebase>60</timebase>
					<ntsc>TRUE</ntsc>
					</rate>
					<timecode>
					<rate>
					<timebase>60</timebase>
					<ntsc>TRUE</ntsc>
					</rate>
					<string>00:00:00:00</string>
					<frame>0</frame>
					<displayformat>NDF</displayformat>
					</timecode>
					<media>
					<video>
					<samplecharacteristics>
					<rate>
					<timebase>60</timebase>
					<ntsc>TRUE</ntsc>
					</rate>
					<width>1080</width>
					<height>1920</height>
					<anamorphic>FALSE</anamorphic>
					<pixelaspectratio>square</pixelaspectratio>
					<fielddominance>none</fielddominance>
					</samplecharacteristics>
					</video>
					</media>
					</file>
					<filter>
					<effect>
					<name></name>
					<effectid>GraphicAndType</effectid>
					<effectcategory>graphic</effectcategory>
					<effecttype>filter</effecttype>
					<mediatype>video</mediatype>
					<pproBypass>false</pproBypass>
					<parameter authoringApp="PremierePro">
					<parameterid>1</parameterid>
					<name></name>
					<hash>025b1101-ead6-0ca2-1feb-caf3000001fc</hash>
					<value>5AEAAAAAAABEMyIRDAAAAAAABgAKAAQABgAAAGQAAAAAAF4ASAAQAAwARABAADwAOAAAAAAAAAAAADQAMwAsAAAAKAAkACAAAAAAAAAAAAAAAAAAHAAAAAAAGgAAAAAAAAAUAAAAAAAAAAAAAAAAAAAAAAAAAAgAAAAAABsABwBeAAAAAAAAAUAAAABQAAAAbAAAAAIAAAAAAAEAAQAAAAAAQEEAAMBAAABAQAAAyEIAAAABIAAAAAIAAAACAAAAAAA2QwCASkTw/v//9P7///j+//8S////AAAAAAEAAAAEAAAAEQAAAEhHUFNvZWlLYWt1cG9wdGFpAAAAAQAAAAwAAAAIAAwABAAIAAgAAAAIAAAAUAAAAA8AAADvvIEAAAAAAAAAAAAAAAAAAAA2ACQAAAAgABwAAAAAABsAFAAAAAAAAAAAAAAAAAAAAAAAAAAAABAAAAAAAAAADAAAAAgABAA2AAAAAgAAABwAAAAcAAAAHAAAAAAAIEEAAAABaAAAAE3PAEOw////tP///wEAAAAUAAAAEAAaAAgABwAMAAAAEAAUABAAAAAAAAABHAAAAAAAoEEcAAAAAgAAAAAACgAIAAUABgAHAAoAAAAADAD//P///wQABAAEAAAACAAIAAYABwAIAAAAAAAMAA==</value>
					</parameter>
					<parameter authoringApp="PremierePro">
					<parameterid>2</parameterid>
					<name></name>
					<IsTimeVarying>false</IsTimeVarying>
					<ParameterControlType>11</ParameterControlType>
					<LowerBound>false</LowerBound>
					<UpperBound>false</UpperBound>
					<value>-91445760000000000,false,0,0,0,0,0,0</value>
					</parameter>
					<parameter authoringApp="PremierePro">
					<parameterid>3</parameterid>
					<name></name>
					<IsTimeVarying>false</IsTimeVarying>
					<value>-91445760000000000,0.5:0.5,0,0,0,0,0,0,5,4,0,0,0,0</value>
					</parameter>
					<parameter authoringApp="PremierePro">
					<parameterid>4</parameterid>
					<name></name>
					<IsTimeVarying>false</IsTimeVarying>
					<ParameterControlType>2</ParameterControlType>
					<LowerBound>0</LowerBound>
					<UpperBound>4000</UpperBound>
					<value>-91445760000000000,100.,0,0,0,0,0,0</value>
					</parameter>
					<parameter authoringApp="PremierePro">
					<parameterid>8</parameterid>
					<name></name>
					<IsTimeVarying>false</IsTimeVarying>
					<ParameterControlType>2</ParameterControlType>
					<LowerBound>0</LowerBound>
					<UpperBound>100</UpperBound>
					<value>-91445760000000000,100.,0,0,0,0,0,0</value>
					</parameter>
					</effect>
					</filter>
					<logginginfo>
					<description></description>
					<scene></scene>
					<shottake></shottake>
					<lognote></lognote>
					<good></good>
					<originalvideofilename></originalvideofilename>
					<originalaudiofilename></originalaudiofilename>
					</logginginfo>
					<colorinfo>
					<lut></lut>
					<lut1></lut1>
					<asc_sop></asc_sop>
					<asc_sat></asc_sat>
					<lut2></lut2>
					</colorinfo>
					<labels>
					</labels>
					</clipitem>
					<clipitem id="clipitem-361"/>
					                        </track>
					                        <track>
					                            <clipitem id="clipitem-361"/>
					                        </track>
					                        <track TL.SQTrackShy="0" TL.SQTrackExpandedHeight="25" TL.SQTrackExpanded="0" MZ.TrackTargeted="0">
					<clipitem frameBlend="FALSE" id="clipitem-362">
					<masterclipid>masterclip-282</masterclipid>
					<name></name>
					<enabled>TRUE</enabled>
					<duration>2582774</duration>
					<rate>
					
					                                    <timebase>60</timebase>
					                                    <ntsc>TRUE</ntsc>
					                                
					</rate>
					<start>2501</start>
					<end>2561</end>
					<in>2501</in>
					<out>2561</out>
					<pproTicksIn>914456774963789</pproTicksIn>
					<pproTicksOut>914677708529577</pproTicksOut>
					<alphatype>straight</alphatype>
					<pixelaspectratio>square</pixelaspectratio>
					<anamorphic>FALSE</anamorphic>
					<file id="file-281">
					<name></name>
					<mediaSource>GraphicAndType</mediaSource>
					<rate>
					<timebase>60</timebase>
					<ntsc>TRUE</ntsc>
					</rate>
					<timecode>
					<rate>
					<timebase>60</timebase>
					<ntsc>TRUE</ntsc>
					</rate>
					<string>00:00:00:00</string>
					<frame>0</frame>
					<displayformat>NDF</displayformat>
					</timecode>
					<media>
					<video>
					<samplecharacteristics>
					<rate>
					<timebase>60</timebase>
					<ntsc>TRUE</ntsc>
					</rate>
					<width>1080</width>
					<height>1920</height>
					<anamorphic>FALSE</anamorphic>
					<pixelaspectratio>square</pixelaspectratio>
					<fielddominance>none</fielddominance>
					</samplecharacteristics>
					</video>
					</media>
					</file>
					<filter>
					<effect>
					<name></name>
					<effectid>GraphicAndType</effectid>
					<effectcategory>graphic</effectcategory>
					<effecttype>filter</effecttype>
					<mediatype>video</mediatype>
					<pproBypass>false</pproBypass>
					<parameter authoringApp="PremierePro">
					<parameterid>1</parameterid>
					<name></name>
					<hash>025b1101-ead6-0ca2-1feb-caf3000001fc</hash>
					<value>5AEAAAAAAABEMyIRDAAAAAAABgAKAAQABgAAAGQAAAAAAF4ASAAQAAwARABAADwAOAAAAAAAAAAAADQAMwAsAAAAKAAkACAAAAAAAAAAAAAAAAAAHAAAAAAAGgAAAAAAAAAUAAAAAAAAAAAAAAAAAAAAAAAAAAgAAAAAABsABwBeAAAAAAAAAUAAAABQAAAAbAAAAAIAAAAAAAEAAQAAAAAAQEEAAMBAAABAQAAAyEIAAAABIAAAAAIAAAACAAAAAAA2QwCASkTw/v//9P7///j+//8S////AAAAAAEAAAAEAAAAEQAAAEhHUFNvZWlLYWt1cG9wdGFpAAAAAQAAAAwAAAAIAAwABAAIAAgAAAAIAAAAUAAAAA8AAADvvIEAAAAAAAAAAAAAAAAAAAA2ACQAAAAgABwAAAAAABsAFAAAAAAAAAAAAAAAAAAAAAAAAAAAABAAAAAAAAAADAAAAAgABAA2AAAAAgAAABwAAAAcAAAAHAAAAAAAIEEAAAABaAAAAE3PAEOw////tP///wEAAAAUAAAAEAAaAAgABwAMAAAAEAAUABAAAAAAAAABHAAAAAAAoEEcAAAAAgAAAAAACgAIAAUABgAHAAoAAAAADAD//P///wQABAAEAAAACAAIAAYABwAIAAAAAAAMAA==</value>
					</parameter>
					<parameter authoringApp="PremierePro">
					<parameterid>2</parameterid>
					<name></name>
					<IsTimeVarying>false</IsTimeVarying>
					<ParameterControlType>11</ParameterControlType>
					<LowerBound>false</LowerBound>
					<UpperBound>false</UpperBound>
					<value>-91445760000000000,false,0,0,0,0,0,0</value>
					</parameter>
					<parameter authoringApp="PremierePro">
					<parameterid>3</parameterid>
					<name></name>
					<IsTimeVarying>false</IsTimeVarying>
					<value>-91445760000000000,0.5:0.5,0,0,0,0,0,0,5,4,0,0,0,0</value>
					</parameter>
					<parameter authoringApp="PremierePro">
					<parameterid>4</parameterid>
					<name></name>
					<IsTimeVarying>false</IsTimeVarying>
					<ParameterControlType>2</ParameterControlType>
					<LowerBound>0</LowerBound>
					<UpperBound>4000</UpperBound>
					<value>-91445760000000000,100.,0,0,0,0,0,0</value>
					</parameter>
					<parameter authoringApp="PremierePro">
					<parameterid>8</parameterid>
					<name></name>
					<IsTimeVarying>false</IsTimeVarying>
					<ParameterControlType>2</ParameterControlType>
					<LowerBound>0</LowerBound>
					<UpperBound>100</UpperBound>
					<value>-91445760000000000,100.,0,0,0,0,0,0</value>
					</parameter>
					</effect>
					</filter>
					<logginginfo>
					<description></description>
					<scene></scene>
					<shottake></shottake>
					<lognote></lognote>
					<good></good>
					<originalvideofilename></originalvideofilename>
					<originalaudiofilename></originalaudiofilename>
					</logginginfo>
					<colorinfo>
					<lut></lut>
					<lut1></lut1>
					<asc_sop></asc_sop>
					<asc_sat></asc_sat>
					<lut2></lut2>
					</colorinfo>
					<labels>
					</labels>
					</clipitem>
					<clipitem frameBlend="FALSE" id="clipitem-368">
					<masterclipid>masterclip-288</masterclipid>
					<name></name>
					<enabled>TRUE</enabled>
					<duration>2582774</duration>
					<rate>
					
					                                    <timebase>60</timebase>
					                                    <ntsc>TRUE</ntsc>
					                                
					</rate>
					<start>2561</start>
					<end>2621</end>
					<in>2561</in>
					<out>2621</out>
					<pproTicksIn>914456774963789</pproTicksIn>
					<pproTicksOut>914677708529577</pproTicksOut>
					<alphatype>straight</alphatype>
					<pixelaspectratio>square</pixelaspectratio>
					<anamorphic>FALSE</anamorphic>
					<file id="file-287">
					<name></name>
					<mediaSource>GraphicAndType</mediaSource>
					<rate>
					<timebase>60</timebase>
					<ntsc>TRUE</ntsc>
					</rate>
					<timecode>
					<rate>
					<timebase>60</timebase>
					<ntsc>TRUE</ntsc>
					</rate>
					<string>00:00:00:00</string>
					<frame>0</frame>
					<displayformat>NDF</displayformat>
					</timecode>
					<media>
					<video>
					<samplecharacteristics>
					<rate>
					<timebase>60</timebase>
					<ntsc>TRUE</ntsc>
					</rate>
					<width>1080</width>
					<height>1920</height>
					<anamorphic>FALSE</anamorphic>
					<pixelaspectratio>square</pixelaspectratio>
					<fielddominance>none</fielddominance>
					</samplecharacteristics>
					</video>
					</media>
					</file>
					<filter>
					<effect>
					<name></name>
					<effectid>GraphicAndType</effectid>
					<effectcategory>graphic</effectcategory>
					<effecttype>filter</effecttype>
					<mediatype>video</mediatype>
					<pproBypass>false</pproBypass>
					<parameter authoringApp="PremierePro">
					<parameterid>1</parameterid>
					<name></name>
					<hash>025b1101-ead6-0ca2-1feb-caf3000001fc</hash>
					<value>5AEAAAAAAABEMyIRDAAAAAAABgAKAAQABgAAAGQAAAAAAF4ASAAQAAwARABAADwAOAAAAAAAAAAAADQAMwAsAAAAKAAkACAAAAAAAAAAAAAAAAAAHAAAAAAAGgAAAAAAAAAUAAAAAAAAAAAAAAAAAAAAAAAAAAgAAAAAABsABwBeAAAAAAAAAUAAAABQAAAAbAAAAAIAAAAAAAEAAQAAAAAAQEEAAMBAAABAQAAAyEIAAAABIAAAAAIAAAACAAAAAAA2QwCASkTw/v//9P7///j+//8S////AAAAAAEAAAAEAAAAEQAAAEhHUFNvZWlLYWt1cG9wdGFpAAAAAQAAAAwAAAAIAAwABAAIAAgAAAAIAAAAUAAAAA8AAADvvIEAAAAAAAAAAAAAAAAAAAA2ACQAAAAgABwAAAAAABsAFAAAAAAAAAAAAAAAAAAAAAAAAAAAABAAAAAAAAAADAAAAAgABAA2AAAAAgAAABwAAAAcAAAAHAAAAAAAIEEAAAABaAAAAE3PAEOw////tP///wEAAAAUAAAAEAAaAAgABwAMAAAAEAAUABAAAAAAAAABHAAAAAAAoEEcAAAAAgAAAAAACgAIAAUABgAHAAoAAAAADAD//P///wQABAAEAAAACAAIAAYABwAIAAAAAAAMAA==</value>
					</parameter>
					<parameter authoringApp="PremierePro">
					<parameterid>2</parameterid>
					<name></name>
					<IsTimeVarying>false</IsTimeVarying>
					<ParameterControlType>11</ParameterControlType>
					<LowerBound>false</LowerBound>
					<UpperBound>false</UpperBound>
					<value>-91445760000000000,false,0,0,0,0,0,0</value>
					</parameter>
					<parameter authoringApp="PremierePro">
					<parameterid>3</parameterid>
					<name></name>
					<IsTimeVarying>false</IsTimeVarying>
					<value>-91445760000000000,0.5:0.5,0,0,0,0,0,0,5,4,0,0,0,0</value>
					</parameter>
					<parameter authoringApp="PremierePro">
					<parameterid>4</parameterid>
					<name></name>
					<IsTimeVarying>false</IsTimeVarying>
					<ParameterControlType>2</ParameterControlType>
					<LowerBound>0</LowerBound>
					<UpperBound>4000</UpperBound>
					<value>-91445760000000000,100.,0,0,0,0,0,0</value>
					</parameter>
					<parameter authoringApp="PremierePro">
					<parameterid>8</parameterid>
					<name></name>
					<IsTimeVarying>false</IsTimeVarying>
					<ParameterControlType>2</ParameterControlType>
					<LowerBound>0</LowerBound>
					<UpperBound>100</UpperBound>
					<value>-91445760000000000,100.,0,0,0,0,0,0</value>
					</parameter>
					</effect>
					</filter>
					<logginginfo>
					<description></description>
					<scene></scene>
					<shottake></shottake>
					<lognote></lognote>
					<good></good>
					<originalvideofilename></originalvideofilename>
					<originalaudiofilename></originalaudiofilename>
					</logginginfo>
					<colorinfo>
					<lut></lut>
					<lut1></lut1>
					<asc_sop></asc_sop>
					<asc_sat></asc_sat>
					<lut2></lut2>
					</colorinfo>
					<labels>
					</labels>
					</clipitem>
					<clipitem frameBlend="FALSE" id="clipitem-374">
					<masterclipid>masterclip-294</masterclipid>
					<name></name>
					<enabled>TRUE</enabled>
					<duration>2582774</duration>
					<rate>
					
					                                    <timebase>60</timebase>
					                                    <ntsc>TRUE</ntsc>
					                                
					</rate>
					<start>2627</start>
					<end>2687</end>
					<in>2627</in>
					<out>2687</out>
					<pproTicksIn>914456774963789</pproTicksIn>
					<pproTicksOut>914677708529577</pproTicksOut>
					<alphatype>straight</alphatype>
					<pixelaspectratio>square</pixelaspectratio>
					<anamorphic>FALSE</anamorphic>
					<file id="file-293">
					<name></name>
					<mediaSource>GraphicAndType</mediaSource>
					<rate>
					<timebase>60</timebase>
					<ntsc>TRUE</ntsc>
					</rate>
					<timecode>
					<rate>
					<timebase>60</timebase>
					<ntsc>TRUE</ntsc>
					</rate>
					<string>00:00:00:00</string>
					<frame>0</frame>
					<displayformat>NDF</displayformat>
					</timecode>
					<media>
					<video>
					<samplecharacteristics>
					<rate>
					<timebase>60</timebase>
					<ntsc>TRUE</ntsc>
					</rate>
					<width>1080</width>
					<height>1920</height>
					<anamorphic>FALSE</anamorphic>
					<pixelaspectratio>square</pixelaspectratio>
					<fielddominance>none</fielddominance>
					</samplecharacteristics>
					</video>
					</media>
					</file>
					<filter>
					<effect>
					<name></name>
					<effectid>GraphicAndType</effectid>
					<effectcategory>graphic</effectcategory>
					<effecttype>filter</effecttype>
					<mediatype>video</mediatype>
					<pproBypass>false</pproBypass>
					<parameter authoringApp="PremierePro">
					<parameterid>1</parameterid>
					<name></name>
					<hash>025b1101-ead6-0ca2-1feb-caf3000001fc</hash>
					<value>5AEAAAAAAABEMyIRDAAAAAAABgAKAAQABgAAAGQAAAAAAF4ASAAQAAwARABAADwAOAAAAAAAAAAAADQAMwAsAAAAKAAkACAAAAAAAAAAAAAAAAAAHAAAAAAAGgAAAAAAAAAUAAAAAAAAAAAAAAAAAAAAAAAAAAgAAAAAABsABwBeAAAAAAAAAUAAAABQAAAAbAAAAAIAAAAAAAEAAQAAAAAAQEEAAMBAAABAQAAAyEIAAAABIAAAAAIAAAACAAAAAAA2QwCASkTw/v//9P7///j+//8S////AAAAAAEAAAAEAAAAEQAAAEhHUFNvZWlLYWt1cG9wdGFpAAAAAQAAAAwAAAAIAAwABAAIAAgAAAAIAAAAUAAAAA8AAADvvIEAAAAAAAAAAAAAAAAAAAA2ACQAAAAgABwAAAAAABsAFAAAAAAAAAAAAAAAAAAAAAAAAAAAABAAAAAAAAAADAAAAAgABAA2AAAAAgAAABwAAAAcAAAAHAAAAAAAIEEAAAABaAAAAE3PAEOw////tP///wEAAAAUAAAAEAAaAAgABwAMAAAAEAAUABAAAAAAAAABHAAAAAAAoEEcAAAAAgAAAAAACgAIAAUABgAHAAoAAAAADAD//P///wQABAAEAAAACAAIAAYABwAIAAAAAAAMAA==</value>
					</parameter>
					<parameter authoringApp="PremierePro">
					<parameterid>2</parameterid>
					<name></name>
					<IsTimeVarying>false</IsTimeVarying>
					<ParameterControlType>11</ParameterControlType>
					<LowerBound>false</LowerBound>
					<UpperBound>false</UpperBound>
					<value>-91445760000000000,false,0,0,0,0,0,0</value>
					</parameter>
					<parameter authoringApp="PremierePro">
					<parameterid>3</parameterid>
					<name></name>
					<IsTimeVarying>false</IsTimeVarying>
					<value>-91445760000000000,0.5:0.5,0,0,0,0,0,0,5,4,0,0,0,0</value>
					</parameter>
					<parameter authoringApp="PremierePro">
					<parameterid>4</parameterid>
					<name></name>
					<IsTimeVarying>false</IsTimeVarying>
					<ParameterControlType>2</ParameterControlType>
					<LowerBound>0</LowerBound>
					<UpperBound>4000</UpperBound>
					<value>-91445760000000000,100.,0,0,0,0,0,0</value>
					</parameter>
					<parameter authoringApp="PremierePro">
					<parameterid>8</parameterid>
					<name></name>
					<IsTimeVarying>false</IsTimeVarying>
					<ParameterControlType>2</ParameterControlType>
					<LowerBound>0</LowerBound>
					<UpperBound>100</UpperBound>
					<value>-91445760000000000,100.,0,0,0,0,0,0</value>
					</parameter>
					</effect>
					</filter>
					<logginginfo>
					<description></description>
					<scene></scene>
					<shottake></shottake>
					<lognote></lognote>
					<good></good>
					<originalvideofilename></originalvideofilename>
					<originalaudiofilename></originalaudiofilename>
					</logginginfo>
					<colorinfo>
					<lut></lut>
					<lut1></lut1>
					<asc_sop></asc_sop>
					<asc_sat></asc_sat>
					<lut2></lut2>
					</colorinfo>
					<labels>
					</labels>
					</clipitem>
					<clipitem frameBlend="FALSE" id="clipitem-382">
					<masterclipid>masterclip-302</masterclipid>
					<name></name>
					<enabled>TRUE</enabled>
					<duration>2582774</duration>
					<rate>
					
					                                    <timebase>60</timebase>
					                                    <ntsc>TRUE</ntsc>
					                                
					</rate>
					<start>2693</start>
					<end>2753</end>
					<in>2693</in>
					<out>2753</out>
					<pproTicksIn>914456774963789</pproTicksIn>
					<pproTicksOut>914677708529577</pproTicksOut>
					<alphatype>straight</alphatype>
					<pixelaspectratio>square</pixelaspectratio>
					<anamorphic>FALSE</anamorphic>
					<file id="file-301">
					<name></name>
					<mediaSource>GraphicAndType</mediaSource>
					<rate>
					<timebase>60</timebase>
					<ntsc>TRUE</ntsc>
					</rate>
					<timecode>
					<rate>
					<timebase>60</timebase>
					<ntsc>TRUE</ntsc>
					</rate>
					<string>00:00:00:00</string>
					<frame>0</frame>
					<displayformat>NDF</displayformat>
					</timecode>
					<media>
					<video>
					<samplecharacteristics>
					<rate>
					<timebase>60</timebase>
					<ntsc>TRUE</ntsc>
					</rate>
					<width>1080</width>
					<height>1920</height>
					<anamorphic>FALSE</anamorphic>
					<pixelaspectratio>square</pixelaspectratio>
					<fielddominance>none</fielddominance>
					</samplecharacteristics>
					</video>
					</media>
					</file>
					<filter>
					<effect>
					<name></name>
					<effectid>GraphicAndType</effectid>
					<effectcategory>graphic</effectcategory>
					<effecttype>filter</effecttype>
					<mediatype>video</mediatype>
					<pproBypass>false</pproBypass>
					<parameter authoringApp="PremierePro">
					<parameterid>1</parameterid>
					<name></name>
					<hash>025b1101-ead6-0ca2-1feb-caf3000001fc</hash>
					<value>5AEAAAAAAABEMyIRDAAAAAAABgAKAAQABgAAAGQAAAAAAF4ASAAQAAwARABAADwAOAAAAAAAAAAAADQAMwAsAAAAKAAkACAAAAAAAAAAAAAAAAAAHAAAAAAAGgAAAAAAAAAUAAAAAAAAAAAAAAAAAAAAAAAAAAgAAAAAABsABwBeAAAAAAAAAUAAAABQAAAAbAAAAAIAAAAAAAEAAQAAAAAAQEEAAMBAAABAQAAAyEIAAAABIAAAAAIAAAACAAAAAAA2QwCASkTw/v//9P7///j+//8S////AAAAAAEAAAAEAAAAEQAAAEhHUFNvZWlLYWt1cG9wdGFpAAAAAQAAAAwAAAAIAAwABAAIAAgAAAAIAAAAUAAAAA8AAADvvIEAAAAAAAAAAAAAAAAAAAA2ACQAAAAgABwAAAAAABsAFAAAAAAAAAAAAAAAAAAAAAAAAAAAABAAAAAAAAAADAAAAAgABAA2AAAAAgAAABwAAAAcAAAAHAAAAAAAIEEAAAABaAAAAE3PAEOw////tP///wEAAAAUAAAAEAAaAAgABwAMAAAAEAAUABAAAAAAAAABHAAAAAAAoEEcAAAAAgAAAAAACgAIAAUABgAHAAoAAAAADAD//P///wQABAAEAAAACAAIAAYABwAIAAAAAAAMAA==</value>
					</parameter>
					<parameter authoringApp="PremierePro">
					<parameterid>2</parameterid>
					<name></name>
					<IsTimeVarying>false</IsTimeVarying>
					<ParameterControlType>11</ParameterControlType>
					<LowerBound>false</LowerBound>
					<UpperBound>false</UpperBound>
					<value>-91445760000000000,false,0,0,0,0,0,0</value>
					</parameter>
					<parameter authoringApp="PremierePro">
					<parameterid>3</parameterid>
					<name></name>
					<IsTimeVarying>false</IsTimeVarying>
					<value>-91445760000000000,0.5:0.5,0,0,0,0,0,0,5,4,0,0,0,0</value>
					</parameter>
					<parameter authoringApp="PremierePro">
					<parameterid>4</parameterid>
					<name></name>
					<IsTimeVarying>false</IsTimeVarying>
					<ParameterControlType>2</ParameterControlType>
					<LowerBound>0</LowerBound>
					<UpperBound>4000</UpperBound>
					<value>-91445760000000000,100.,0,0,0,0,0,0</value>
					</parameter>
					<parameter authoringApp="PremierePro">
					<parameterid>8</parameterid>
					<name></name>
					<IsTimeVarying>false</IsTimeVarying>
					<ParameterControlType>2</ParameterControlType>
					<LowerBound>0</LowerBound>
					<UpperBound>100</UpperBound>
					<value>-91445760000000000,100.,0,0,0,0,0,0</value>
					</parameter>
					</effect>
					</filter>
					<logginginfo>
					<description></description>
					<scene></scene>
					<shottake></shottake>
					<lognote></lognote>
					<good></good>
					<originalvideofilename></originalvideofilename>
					<originalaudiofilename></originalaudiofilename>
					</logginginfo>
					<colorinfo>
					<lut></lut>
					<lut1></lut1>
					<asc_sop></asc_sop>
					<asc_sat></asc_sat>
					<lut2></lut2>
					</colorinfo>
					<labels>
					</labels>
					</clipitem>
					<clipitem frameBlend="FALSE" id="clipitem-389">
					<masterclipid>masterclip-309</masterclipid>
					<name></name>
					<enabled>TRUE</enabled>
					<duration>2582774</duration>
					<rate>
					
					                                    <timebase>60</timebase>
					                                    <ntsc>TRUE</ntsc>
					                                
					</rate>
					<start>2759</start>
					<end>2819</end>
					<in>2759</in>
					<out>2819</out>
					<pproTicksIn>914456774963789</pproTicksIn>
					<pproTicksOut>914677708529577</pproTicksOut>
					<alphatype>straight</alphatype>
					<pixelaspectratio>square</pixelaspectratio>
					<anamorphic>FALSE</anamorphic>
					<file id="file-308">
					<name></name>
					<mediaSource>GraphicAndType</mediaSource>
					<rate>
					<timebase>60</timebase>
					<ntsc>TRUE</ntsc>
					</rate>
					<timecode>
					<rate>
					<timebase>60</timebase>
					<ntsc>TRUE</ntsc>
					</rate>
					<string>00:00:00:00</string>
					<frame>0</frame>
					<displayformat>NDF</displayformat>
					</timecode>
					<media>
					<video>
					<samplecharacteristics>
					<rate>
					<timebase>60</timebase>
					<ntsc>TRUE</ntsc>
					</rate>
					<width>1080</width>
					<height>1920</height>
					<anamorphic>FALSE</anamorphic>
					<pixelaspectratio>square</pixelaspectratio>
					<fielddominance>none</fielddominance>
					</samplecharacteristics>
					</video>
					</media>
					</file>
					<filter>
					<effect>
					<name></name>
					<effectid>GraphicAndType</effectid>
					<effectcategory>graphic</effectcategory>
					<effecttype>filter</effecttype>
					<mediatype>video</mediatype>
					<pproBypass>false</pproBypass>
					<parameter authoringApp="PremierePro">
					<parameterid>1</parameterid>
					<name></name>
					<hash>025b1101-ead6-0ca2-1feb-caf3000001fc</hash>
					<value>5AEAAAAAAABEMyIRDAAAAAAABgAKAAQABgAAAGQAAAAAAF4ASAAQAAwARABAADwAOAAAAAAAAAAAADQAMwAsAAAAKAAkACAAAAAAAAAAAAAAAAAAHAAAAAAAGgAAAAAAAAAUAAAAAAAAAAAAAAAAAAAAAAAAAAgAAAAAABsABwBeAAAAAAAAAUAAAABQAAAAbAAAAAIAAAAAAAEAAQAAAAAAQEEAAMBAAABAQAAAyEIAAAABIAAAAAIAAAACAAAAAAA2QwCASkTw/v//9P7///j+//8S////AAAAAAEAAAAEAAAAEQAAAEhHUFNvZWlLYWt1cG9wdGFpAAAAAQAAAAwAAAAIAAwABAAIAAgAAAAIAAAAUAAAAA8AAADvvIEAAAAAAAAAAAAAAAAAAAA2ACQAAAAgABwAAAAAABsAFAAAAAAAAAAAAAAAAAAAAAAAAAAAABAAAAAAAAAADAAAAAgABAA2AAAAAgAAABwAAAAcAAAAHAAAAAAAIEEAAAABaAAAAE3PAEOw////tP///wEAAAAUAAAAEAAaAAgABwAMAAAAEAAUABAAAAAAAAABHAAAAAAAoEEcAAAAAgAAAAAACgAIAAUABgAHAAoAAAAADAD//P///wQABAAEAAAACAAIAAYABwAIAAAAAAAMAA==</value>
					</parameter>
					<parameter authoringApp="PremierePro">
					<parameterid>2</parameterid>
					<name></name>
					<IsTimeVarying>false</IsTimeVarying>
					<ParameterControlType>11</ParameterControlType>
					<LowerBound>false</LowerBound>
					<UpperBound>false</UpperBound>
					<value>-91445760000000000,false,0,0,0,0,0,0</value>
					</parameter>
					<parameter authoringApp="PremierePro">
					<parameterid>3</parameterid>
					<name></name>
					<IsTimeVarying>false</IsTimeVarying>
					<value>-91445760000000000,0.5:0.5,0,0,0,0,0,0,5,4,0,0,0,0</value>
					</parameter>
					<parameter authoringApp="PremierePro">
					<parameterid>4</parameterid>
					<name></name>
					<IsTimeVarying>false</IsTimeVarying>
					<ParameterControlType>2</ParameterControlType>
					<LowerBound>0</LowerBound>
					<UpperBound>4000</UpperBound>
					<value>-91445760000000000,100.,0,0,0,0,0,0</value>
					</parameter>
					<parameter authoringApp="PremierePro">
					<parameterid>8</parameterid>
					<name></name>
					<IsTimeVarying>false</IsTimeVarying>
					<ParameterControlType>2</ParameterControlType>
					<LowerBound>0</LowerBound>
					<UpperBound>100</UpperBound>
					<value>-91445760000000000,100.,0,0,0,0,0,0</value>
					</parameter>
					</effect>
					</filter>
					<logginginfo>
					<description></description>
					<scene></scene>
					<shottake></shottake>
					<lognote></lognote>
					<good></good>
					<originalvideofilename></originalvideofilename>
					<originalaudiofilename></originalaudiofilename>
					</logginginfo>
					<colorinfo>
					<lut></lut>
					<lut1></lut1>
					<asc_sop></asc_sop>
					<asc_sat></asc_sat>
					<lut2></lut2>
					</colorinfo>
					<labels>
					</labels>
					</clipitem>
					<clipitem frameBlend="FALSE" id="clipitem-397">
					<masterclipid>masterclip-317</masterclipid>
					<name></name>
					<enabled>TRUE</enabled>
					<duration>2582774</duration>
					<rate>
					
					                                    <timebase>60</timebase>
					                                    <ntsc>TRUE</ntsc>
					                                
					</rate>
					<start>2819</start>
					<end>2885</end>
					<in>2819</in>
					<out>2885</out>
					<pproTicksIn>914456774963789</pproTicksIn>
					<pproTicksOut>914677708529577</pproTicksOut>
					<alphatype>straight</alphatype>
					<pixelaspectratio>square</pixelaspectratio>
					<anamorphic>FALSE</anamorphic>
					<file id="file-316">
					<name></name>
					<mediaSource>GraphicAndType</mediaSource>
					<rate>
					<timebase>60</timebase>
					<ntsc>TRUE</ntsc>
					</rate>
					<timecode>
					<rate>
					<timebase>60</timebase>
					<ntsc>TRUE</ntsc>
					</rate>
					<string>00:00:00:00</string>
					<frame>0</frame>
					<displayformat>NDF</displayformat>
					</timecode>
					<media>
					<video>
					<samplecharacteristics>
					<rate>
					<timebase>60</timebase>
					<ntsc>TRUE</ntsc>
					</rate>
					<width>1080</width>
					<height>1920</height>
					<anamorphic>FALSE</anamorphic>
					<pixelaspectratio>square</pixelaspectratio>
					<fielddominance>none</fielddominance>
					</samplecharacteristics>
					</video>
					</media>
					</file>
					<filter>
					<effect>
					<name></name>
					<effectid>GraphicAndType</effectid>
					<effectcategory>graphic</effectcategory>
					<effecttype>filter</effecttype>
					<mediatype>video</mediatype>
					<pproBypass>false</pproBypass>
					<parameter authoringApp="PremierePro">
					<parameterid>1</parameterid>
					<name></name>
					<hash>025b1101-ead6-0ca2-1feb-caf3000001fc</hash>
					<value>5AEAAAAAAABEMyIRDAAAAAAABgAKAAQABgAAAGQAAAAAAF4ASAAQAAwARABAADwAOAAAAAAAAAAAADQAMwAsAAAAKAAkACAAAAAAAAAAAAAAAAAAHAAAAAAAGgAAAAAAAAAUAAAAAAAAAAAAAAAAAAAAAAAAAAgAAAAAABsABwBeAAAAAAAAAUAAAABQAAAAbAAAAAIAAAAAAAEAAQAAAAAAQEEAAMBAAABAQAAAyEIAAAABIAAAAAIAAAACAAAAAAA2QwCASkTw/v//9P7///j+//8S////AAAAAAEAAAAEAAAAEQAAAEhHUFNvZWlLYWt1cG9wdGFpAAAAAQAAAAwAAAAIAAwABAAIAAgAAAAIAAAAUAAAAA8AAADvvIEAAAAAAAAAAAAAAAAAAAA2ACQAAAAgABwAAAAAABsAFAAAAAAAAAAAAAAAAAAAAAAAAAAAABAAAAAAAAAADAAAAAgABAA2AAAAAgAAABwAAAAcAAAAHAAAAAAAIEEAAAABaAAAAE3PAEOw////tP///wEAAAAUAAAAEAAaAAgABwAMAAAAEAAUABAAAAAAAAABHAAAAAAAoEEcAAAAAgAAAAAACgAIAAUABgAHAAoAAAAADAD//P///wQABAAEAAAACAAIAAYABwAIAAAAAAAMAA==</value>
					</parameter>
					<parameter authoringApp="PremierePro">
					<parameterid>2</parameterid>
					<name></name>
					<IsTimeVarying>false</IsTimeVarying>
					<ParameterControlType>11</ParameterControlType>
					<LowerBound>false</LowerBound>
					<UpperBound>false</UpperBound>
					<value>-91445760000000000,false,0,0,0,0,0,0</value>
					</parameter>
					<parameter authoringApp="PremierePro">
					<parameterid>3</parameterid>
					<name></name>
					<IsTimeVarying>false</IsTimeVarying>
					<value>-91445760000000000,0.5:0.5,0,0,0,0,0,0,5,4,0,0,0,0</value>
					</parameter>
					<parameter authoringApp="PremierePro">
					<parameterid>4</parameterid>
					<name></name>
					<IsTimeVarying>false</IsTimeVarying>
					<ParameterControlType>2</ParameterControlType>
					<LowerBound>0</LowerBound>
					<UpperBound>4000</UpperBound>
					<value>-91445760000000000,100.,0,0,0,0,0,0</value>
					</parameter>
					<parameter authoringApp="PremierePro">
					<parameterid>8</parameterid>
					<name></name>
					<IsTimeVarying>false</IsTimeVarying>
					<ParameterControlType>2</ParameterControlType>
					<LowerBound>0</LowerBound>
					<UpperBound>100</UpperBound>
					<value>-91445760000000000,100.,0,0,0,0,0,0</value>
					</parameter>
					</effect>
					</filter>
					<logginginfo>
					<description></description>
					<scene></scene>
					<shottake></shottake>
					<lognote></lognote>
					<good></good>
					<originalvideofilename></originalvideofilename>
					<originalaudiofilename></originalaudiofilename>
					</logginginfo>
					<colorinfo>
					<lut></lut>
					<lut1></lut1>
					<asc_sop></asc_sop>
					<asc_sat></asc_sat>
					<lut2></lut2>
					</colorinfo>
					<labels>
					</labels>
					</clipitem>
					<clipitem frameBlend="FALSE" id="clipitem-403">
					<masterclipid>masterclip-323</masterclipid>
					<name></name>
					<enabled>TRUE</enabled>
					<duration>2582774</duration>
					<rate>
					
					                                    <timebase>60</timebase>
					                                    <ntsc>TRUE</ntsc>
					                                
					</rate>
					<start>2885</start>
					<end>2945</end>
					<in>2885</in>
					<out>2945</out>
					<pproTicksIn>914456774963789</pproTicksIn>
					<pproTicksOut>914677708529577</pproTicksOut>
					<alphatype>straight</alphatype>
					<pixelaspectratio>square</pixelaspectratio>
					<anamorphic>FALSE</anamorphic>
					<file id="file-322">
					<name></name>
					<mediaSource>GraphicAndType</mediaSource>
					<rate>
					<timebase>60</timebase>
					<ntsc>TRUE</ntsc>
					</rate>
					<timecode>
					<rate>
					<timebase>60</timebase>
					<ntsc>TRUE</ntsc>
					</rate>
					<string>00:00:00:00</string>
					<frame>0</frame>
					<displayformat>NDF</displayformat>
					</timecode>
					<media>
					<video>
					<samplecharacteristics>
					<rate>
					<timebase>60</timebase>
					<ntsc>TRUE</ntsc>
					</rate>
					<width>1080</width>
					<height>1920</height>
					<anamorphic>FALSE</anamorphic>
					<pixelaspectratio>square</pixelaspectratio>
					<fielddominance>none</fielddominance>
					</samplecharacteristics>
					</video>
					</media>
					</file>
					<filter>
					<effect>
					<name></name>
					<effectid>GraphicAndType</effectid>
					<effectcategory>graphic</effectcategory>
					<effecttype>filter</effecttype>
					<mediatype>video</mediatype>
					<pproBypass>false</pproBypass>
					<parameter authoringApp="PremierePro">
					<parameterid>1</parameterid>
					<name></name>
					<hash>025b1101-ead6-0ca2-1feb-caf3000001fc</hash>
					<value>5AEAAAAAAABEMyIRDAAAAAAABgAKAAQABgAAAGQAAAAAAF4ASAAQAAwARABAADwAOAAAAAAAAAAAADQAMwAsAAAAKAAkACAAAAAAAAAAAAAAAAAAHAAAAAAAGgAAAAAAAAAUAAAAAAAAAAAAAAAAAAAAAAAAAAgAAAAAABsABwBeAAAAAAAAAUAAAABQAAAAbAAAAAIAAAAAAAEAAQAAAAAAQEEAAMBAAABAQAAAyEIAAAABIAAAAAIAAAACAAAAAAA2QwCASkTw/v//9P7///j+//8S////AAAAAAEAAAAEAAAAEQAAAEhHUFNvZWlLYWt1cG9wdGFpAAAAAQAAAAwAAAAIAAwABAAIAAgAAAAIAAAAUAAAAA8AAADvvIEAAAAAAAAAAAAAAAAAAAA2ACQAAAAgABwAAAAAABsAFAAAAAAAAAAAAAAAAAAAAAAAAAAAABAAAAAAAAAADAAAAAgABAA2AAAAAgAAABwAAAAcAAAAHAAAAAAAIEEAAAABaAAAAE3PAEOw////tP///wEAAAAUAAAAEAAaAAgABwAMAAAAEAAUABAAAAAAAAABHAAAAAAAoEEcAAAAAgAAAAAACgAIAAUABgAHAAoAAAAADAD//P///wQABAAEAAAACAAIAAYABwAIAAAAAAAMAA==</value>
					</parameter>
					<parameter authoringApp="PremierePro">
					<parameterid>2</parameterid>
					<name></name>
					<IsTimeVarying>false</IsTimeVarying>
					<ParameterControlType>11</ParameterControlType>
					<LowerBound>false</LowerBound>
					<UpperBound>false</UpperBound>
					<value>-91445760000000000,false,0,0,0,0,0,0</value>
					</parameter>
					<parameter authoringApp="PremierePro">
					<parameterid>3</parameterid>
					<name></name>
					<IsTimeVarying>false</IsTimeVarying>
					<value>-91445760000000000,0.5:0.5,0,0,0,0,0,0,5,4,0,0,0,0</value>
					</parameter>
					<parameter authoringApp="PremierePro">
					<parameterid>4</parameterid>
					<name></name>
					<IsTimeVarying>false</IsTimeVarying>
					<ParameterControlType>2</ParameterControlType>
					<LowerBound>0</LowerBound>
					<UpperBound>4000</UpperBound>
					<value>-91445760000000000,100.,0,0,0,0,0,0</value>
					</parameter>
					<parameter authoringApp="PremierePro">
					<parameterid>8</parameterid>
					<name></name>
					<IsTimeVarying>false</IsTimeVarying>
					<ParameterControlType>2</ParameterControlType>
					<LowerBound>0</LowerBound>
					<UpperBound>100</UpperBound>
					<value>-91445760000000000,100.,0,0,0,0,0,0</value>
					</parameter>
					</effect>
					</filter>
					<logginginfo>
					<description></description>
					<scene></scene>
					<shottake></shottake>
					<lognote></lognote>
					<good></good>
					<originalvideofilename></originalvideofilename>
					<originalaudiofilename></originalaudiofilename>
					</logginginfo>
					<colorinfo>
					<lut></lut>
					<lut1></lut1>
					<asc_sop></asc_sop>
					<asc_sat></asc_sat>
					<lut2></lut2>
					</colorinfo>
					<labels>
					</labels>
					</clipitem>
					<clipitem frameBlend="FALSE" id="clipitem-408">
					<masterclipid>masterclip-328</masterclipid>
					<name></name>
					<enabled>TRUE</enabled>
					<duration>2582774</duration>
					<rate>
					
					                                    <timebase>60</timebase>
					                                    <ntsc>TRUE</ntsc>
					                                
					</rate>
					<start>2951</start>
					<end>3011</end>
					<in>2951</in>
					<out>3011</out>
					<pproTicksIn>914456774963789</pproTicksIn>
					<pproTicksOut>914677708529577</pproTicksOut>
					<alphatype>straight</alphatype>
					<pixelaspectratio>square</pixelaspectratio>
					<anamorphic>FALSE</anamorphic>
					<file id="file-327">
					<name></name>
					<mediaSource>GraphicAndType</mediaSource>
					<rate>
					<timebase>60</timebase>
					<ntsc>TRUE</ntsc>
					</rate>
					<timecode>
					<rate>
					<timebase>60</timebase>
					<ntsc>TRUE</ntsc>
					</rate>
					<string>00:00:00:00</string>
					<frame>0</frame>
					<displayformat>NDF</displayformat>
					</timecode>
					<media>
					<video>
					<samplecharacteristics>
					<rate>
					<timebase>60</timebase>
					<ntsc>TRUE</ntsc>
					</rate>
					<width>1080</width>
					<height>1920</height>
					<anamorphic>FALSE</anamorphic>
					<pixelaspectratio>square</pixelaspectratio>
					<fielddominance>none</fielddominance>
					</samplecharacteristics>
					</video>
					</media>
					</file>
					<filter>
					<effect>
					<name></name>
					<effectid>GraphicAndType</effectid>
					<effectcategory>graphic</effectcategory>
					<effecttype>filter</effecttype>
					<mediatype>video</mediatype>
					<pproBypass>false</pproBypass>
					<parameter authoringApp="PremierePro">
					<parameterid>1</parameterid>
					<name></name>
					<hash>025b1101-ead6-0ca2-1feb-caf3000001fc</hash>
					<value>5AEAAAAAAABEMyIRDAAAAAAABgAKAAQABgAAAGQAAAAAAF4ASAAQAAwARABAADwAOAAAAAAAAAAAADQAMwAsAAAAKAAkACAAAAAAAAAAAAAAAAAAHAAAAAAAGgAAAAAAAAAUAAAAAAAAAAAAAAAAAAAAAAAAAAgAAAAAABsABwBeAAAAAAAAAUAAAABQAAAAbAAAAAIAAAAAAAEAAQAAAAAAQEEAAMBAAABAQAAAyEIAAAABIAAAAAIAAAACAAAAAAA2QwCASkTw/v//9P7///j+//8S////AAAAAAEAAAAEAAAAEQAAAEhHUFNvZWlLYWt1cG9wdGFpAAAAAQAAAAwAAAAIAAwABAAIAAgAAAAIAAAAUAAAAA8AAADvvIEAAAAAAAAAAAAAAAAAAAA2ACQAAAAgABwAAAAAABsAFAAAAAAAAAAAAAAAAAAAAAAAAAAAABAAAAAAAAAADAAAAAgABAA2AAAAAgAAABwAAAAcAAAAHAAAAAAAIEEAAAABaAAAAE3PAEOw////tP///wEAAAAUAAAAEAAaAAgABwAMAAAAEAAUABAAAAAAAAABHAAAAAAAoEEcAAAAAgAAAAAACgAIAAUABgAHAAoAAAAADAD//P///wQABAAEAAAACAAIAAYABwAIAAAAAAAMAA==</value>
					</parameter>
					<parameter authoringApp="PremierePro">
					<parameterid>2</parameterid>
					<name></name>
					<IsTimeVarying>false</IsTimeVarying>
					<ParameterControlType>11</ParameterControlType>
					<LowerBound>false</LowerBound>
					<UpperBound>false</UpperBound>
					<value>-91445760000000000,false,0,0,0,0,0,0</value>
					</parameter>
					<parameter authoringApp="PremierePro">
					<parameterid>3</parameterid>
					<name></name>
					<IsTimeVarying>false</IsTimeVarying>
					<value>-91445760000000000,0.5:0.5,0,0,0,0,0,0,5,4,0,0,0,0</value>
					</parameter>
					<parameter authoringApp="PremierePro">
					<parameterid>4</parameterid>
					<name></name>
					<IsTimeVarying>false</IsTimeVarying>
					<ParameterControlType>2</ParameterControlType>
					<LowerBound>0</LowerBound>
					<UpperBound>4000</UpperBound>
					<value>-91445760000000000,100.,0,0,0,0,0,0</value>
					</parameter>
					<parameter authoringApp="PremierePro">
					<parameterid>8</parameterid>
					<name></name>
					<IsTimeVarying>false</IsTimeVarying>
					<ParameterControlType>2</ParameterControlType>
					<LowerBound>0</LowerBound>
					<UpperBound>100</UpperBound>
					<value>-91445760000000000,100.,0,0,0,0,0,0</value>
					</parameter>
					</effect>
					</filter>
					<logginginfo>
					<description></description>
					<scene></scene>
					<shottake></shottake>
					<lognote></lognote>
					<good></good>
					<originalvideofilename></originalvideofilename>
					<originalaudiofilename></originalaudiofilename>
					</logginginfo>
					<colorinfo>
					<lut></lut>
					<lut1></lut1>
					<asc_sop></asc_sop>
					<asc_sat></asc_sat>
					<lut2></lut2>
					</colorinfo>
					<labels>
					</labels>
					</clipitem>
					<clipitem frameBlend="FALSE" id="clipitem-414">
					<masterclipid>masterclip-334</masterclipid>
					<name></name>
					<enabled>TRUE</enabled>
					<duration>2582774</duration>
					<rate>
					
					                                    <timebase>60</timebase>
					                                    <ntsc>TRUE</ntsc>
					                                
					</rate>
					<start>3017</start>
					<end>3077</end>
					<in>3017</in>
					<out>3077</out>
					<pproTicksIn>914456774963789</pproTicksIn>
					<pproTicksOut>914677708529577</pproTicksOut>
					<alphatype>straight</alphatype>
					<pixelaspectratio>square</pixelaspectratio>
					<anamorphic>FALSE</anamorphic>
					<file id="file-333">
					<name></name>
					<mediaSource>GraphicAndType</mediaSource>
					<rate>
					<timebase>60</timebase>
					<ntsc>TRUE</ntsc>
					</rate>
					<timecode>
					<rate>
					<timebase>60</timebase>
					<ntsc>TRUE</ntsc>
					</rate>
					<string>00:00:00:00</string>
					<frame>0</frame>
					<displayformat>NDF</displayformat>
					</timecode>
					<media>
					<video>
					<samplecharacteristics>
					<rate>
					<timebase>60</timebase>
					<ntsc>TRUE</ntsc>
					</rate>
					<width>1080</width>
					<height>1920</height>
					<anamorphic>FALSE</anamorphic>
					<pixelaspectratio>square</pixelaspectratio>
					<fielddominance>none</fielddominance>
					</samplecharacteristics>
					</video>
					</media>
					</file>
					<filter>
					<effect>
					<name></name>
					<effectid>GraphicAndType</effectid>
					<effectcategory>graphic</effectcategory>
					<effecttype>filter</effecttype>
					<mediatype>video</mediatype>
					<pproBypass>false</pproBypass>
					<parameter authoringApp="PremierePro">
					<parameterid>1</parameterid>
					<name></name>
					<hash>025b1101-ead6-0ca2-1feb-caf3000001fc</hash>
					<value>5AEAAAAAAABEMyIRDAAAAAAABgAKAAQABgAAAGQAAAAAAF4ASAAQAAwARABAADwAOAAAAAAAAAAAADQAMwAsAAAAKAAkACAAAAAAAAAAAAAAAAAAHAAAAAAAGgAAAAAAAAAUAAAAAAAAAAAAAAAAAAAAAAAAAAgAAAAAABsABwBeAAAAAAAAAUAAAABQAAAAbAAAAAIAAAAAAAEAAQAAAAAAQEEAAMBAAABAQAAAyEIAAAABIAAAAAIAAAACAAAAAAA2QwCASkTw/v//9P7///j+//8S////AAAAAAEAAAAEAAAAEQAAAEhHUFNvZWlLYWt1cG9wdGFpAAAAAQAAAAwAAAAIAAwABAAIAAgAAAAIAAAAUAAAAA8AAADvvIEAAAAAAAAAAAAAAAAAAAA2ACQAAAAgABwAAAAAABsAFAAAAAAAAAAAAAAAAAAAAAAAAAAAABAAAAAAAAAADAAAAAgABAA2AAAAAgAAABwAAAAcAAAAHAAAAAAAIEEAAAABaAAAAE3PAEOw////tP///wEAAAAUAAAAEAAaAAgABwAMAAAAEAAUABAAAAAAAAABHAAAAAAAoEEcAAAAAgAAAAAACgAIAAUABgAHAAoAAAAADAD//P///wQABAAEAAAACAAIAAYABwAIAAAAAAAMAA==</value>
					</parameter>
					<parameter authoringApp="PremierePro">
					<parameterid>2</parameterid>
					<name></name>
					<IsTimeVarying>false</IsTimeVarying>
					<ParameterControlType>11</ParameterControlType>
					<LowerBound>false</LowerBound>
					<UpperBound>false</UpperBound>
					<value>-91445760000000000,false,0,0,0,0,0,0</value>
					</parameter>
					<parameter authoringApp="PremierePro">
					<parameterid>3</parameterid>
					<name></name>
					<IsTimeVarying>false</IsTimeVarying>
					<value>-91445760000000000,0.5:0.5,0,0,0,0,0,0,5,4,0,0,0,0</value>
					</parameter>
					<parameter authoringApp="PremierePro">
					<parameterid>4</parameterid>
					<name></name>
					<IsTimeVarying>false</IsTimeVarying>
					<ParameterControlType>2</ParameterControlType>
					<LowerBound>0</LowerBound>
					<UpperBound>4000</UpperBound>
					<value>-91445760000000000,100.,0,0,0,0,0,0</value>
					</parameter>
					<parameter authoringApp="PremierePro">
					<parameterid>8</parameterid>
					<name></name>
					<IsTimeVarying>false</IsTimeVarying>
					<ParameterControlType>2</ParameterControlType>
					<LowerBound>0</LowerBound>
					<UpperBound>100</UpperBound>
					<value>-91445760000000000,100.,0,0,0,0,0,0</value>
					</parameter>
					</effect>
					</filter>
					<logginginfo>
					<description></description>
					<scene></scene>
					<shottake></shottake>
					<lognote></lognote>
					<good></good>
					<originalvideofilename></originalvideofilename>
					<originalaudiofilename></originalaudiofilename>
					</logginginfo>
					<colorinfo>
					<lut></lut>
					<lut1></lut1>
					<asc_sop></asc_sop>
					<asc_sat></asc_sat>
					<lut2></lut2>
					</colorinfo>
					<labels>
					</labels>
					</clipitem>
					<clipitem frameBlend="FALSE" id="clipitem-421">
					<masterclipid>masterclip-341</masterclipid>
					<name></name>
					<enabled>TRUE</enabled>
					<duration>2582774</duration>
					<rate>
					
					                                    <timebase>60</timebase>
					                                    <ntsc>TRUE</ntsc>
					                                
					</rate>
					<start>3095</start>
					<end>3155</end>
					<in>3095</in>
					<out>3155</out>
					<pproTicksIn>914456774963789</pproTicksIn>
					<pproTicksOut>914677708529577</pproTicksOut>
					<alphatype>straight</alphatype>
					<pixelaspectratio>square</pixelaspectratio>
					<anamorphic>FALSE</anamorphic>
					<file id="file-340">
					<name></name>
					<mediaSource>GraphicAndType</mediaSource>
					<rate>
					<timebase>60</timebase>
					<ntsc>TRUE</ntsc>
					</rate>
					<timecode>
					<rate>
					<timebase>60</timebase>
					<ntsc>TRUE</ntsc>
					</rate>
					<string>00:00:00:00</string>
					<frame>0</frame>
					<displayformat>NDF</displayformat>
					</timecode>
					<media>
					<video>
					<samplecharacteristics>
					<rate>
					<timebase>60</timebase>
					<ntsc>TRUE</ntsc>
					</rate>
					<width>1080</width>
					<height>1920</height>
					<anamorphic>FALSE</anamorphic>
					<pixelaspectratio>square</pixelaspectratio>
					<fielddominance>none</fielddominance>
					</samplecharacteristics>
					</video>
					</media>
					</file>
					<filter>
					<effect>
					<name></name>
					<effectid>GraphicAndType</effectid>
					<effectcategory>graphic</effectcategory>
					<effecttype>filter</effecttype>
					<mediatype>video</mediatype>
					<pproBypass>false</pproBypass>
					<parameter authoringApp="PremierePro">
					<parameterid>1</parameterid>
					<name></name>
					<hash>025b1101-ead6-0ca2-1feb-caf3000001fc</hash>
					<value>5AEAAAAAAABEMyIRDAAAAAAABgAKAAQABgAAAGQAAAAAAF4ASAAQAAwARABAADwAOAAAAAAAAAAAADQAMwAsAAAAKAAkACAAAAAAAAAAAAAAAAAAHAAAAAAAGgAAAAAAAAAUAAAAAAAAAAAAAAAAAAAAAAAAAAgAAAAAABsABwBeAAAAAAAAAUAAAABQAAAAbAAAAAIAAAAAAAEAAQAAAAAAQEEAAMBAAABAQAAAyEIAAAABIAAAAAIAAAACAAAAAAA2QwCASkTw/v//9P7///j+//8S////AAAAAAEAAAAEAAAAEQAAAEhHUFNvZWlLYWt1cG9wdGFpAAAAAQAAAAwAAAAIAAwABAAIAAgAAAAIAAAAUAAAAA8AAADvvIEAAAAAAAAAAAAAAAAAAAA2ACQAAAAgABwAAAAAABsAFAAAAAAAAAAAAAAAAAAAAAAAAAAAABAAAAAAAAAADAAAAAgABAA2AAAAAgAAABwAAAAcAAAAHAAAAAAAIEEAAAABaAAAAE3PAEOw////tP///wEAAAAUAAAAEAAaAAgABwAMAAAAEAAUABAAAAAAAAABHAAAAAAAoEEcAAAAAgAAAAAACgAIAAUABgAHAAoAAAAADAD//P///wQABAAEAAAACAAIAAYABwAIAAAAAAAMAA==</value>
					</parameter>
					<parameter authoringApp="PremierePro">
					<parameterid>2</parameterid>
					<name></name>
					<IsTimeVarying>false</IsTimeVarying>
					<ParameterControlType>11</ParameterControlType>
					<LowerBound>false</LowerBound>
					<UpperBound>false</UpperBound>
					<value>-91445760000000000,false,0,0,0,0,0,0</value>
					</parameter>
					<parameter authoringApp="PremierePro">
					<parameterid>3</parameterid>
					<name></name>
					<IsTimeVarying>false</IsTimeVarying>
					<value>-91445760000000000,0.5:0.5,0,0,0,0,0,0,5,4,0,0,0,0</value>
					</parameter>
					<parameter authoringApp="PremierePro">
					<parameterid>4</parameterid>
					<name></name>
					<IsTimeVarying>false</IsTimeVarying>
					<ParameterControlType>2</ParameterControlType>
					<LowerBound>0</LowerBound>
					<UpperBound>4000</UpperBound>
					<value>-91445760000000000,100.,0,0,0,0,0,0</value>
					</parameter>
					<parameter authoringApp="PremierePro">
					<parameterid>8</parameterid>
					<name></name>
					<IsTimeVarying>false</IsTimeVarying>
					<ParameterControlType>2</ParameterControlType>
					<LowerBound>0</LowerBound>
					<UpperBound>100</UpperBound>
					<value>-91445760000000000,100.,0,0,0,0,0,0</value>
					</parameter>
					</effect>
					</filter>
					<logginginfo>
					<description></description>
					<scene></scene>
					<shottake></shottake>
					<lognote></lognote>
					<good></good>
					<originalvideofilename></originalvideofilename>
					<originalaudiofilename></originalaudiofilename>
					</logginginfo>
					<colorinfo>
					<lut></lut>
					<lut1></lut1>
					<asc_sop></asc_sop>
					<asc_sat></asc_sat>
					<lut2></lut2>
					</colorinfo>
					<labels>
					</labels>
					</clipitem>
					<clipitem frameBlend="FALSE" id="clipitem-429">
					<masterclipid>masterclip-349</masterclipid>
					<name></name>
					<enabled>TRUE</enabled>
					<duration>2582774</duration>
					<rate>
					
					                                    <timebase>60</timebase>
					                                    <ntsc>TRUE</ntsc>
					                                
					</rate>
					<start>3161</start>
					<end>3221</end>
					<in>3161</in>
					<out>3221</out>
					<pproTicksIn>914456774963789</pproTicksIn>
					<pproTicksOut>914677708529577</pproTicksOut>
					<alphatype>straight</alphatype>
					<pixelaspectratio>square</pixelaspectratio>
					<anamorphic>FALSE</anamorphic>
					<file id="file-348">
					<name></name>
					<mediaSource>GraphicAndType</mediaSource>
					<rate>
					<timebase>60</timebase>
					<ntsc>TRUE</ntsc>
					</rate>
					<timecode>
					<rate>
					<timebase>60</timebase>
					<ntsc>TRUE</ntsc>
					</rate>
					<string>00:00:00:00</string>
					<frame>0</frame>
					<displayformat>NDF</displayformat>
					</timecode>
					<media>
					<video>
					<samplecharacteristics>
					<rate>
					<timebase>60</timebase>
					<ntsc>TRUE</ntsc>
					</rate>
					<width>1080</width>
					<height>1920</height>
					<anamorphic>FALSE</anamorphic>
					<pixelaspectratio>square</pixelaspectratio>
					<fielddominance>none</fielddominance>
					</samplecharacteristics>
					</video>
					</media>
					</file>
					<filter>
					<effect>
					<name></name>
					<effectid>GraphicAndType</effectid>
					<effectcategory>graphic</effectcategory>
					<effecttype>filter</effecttype>
					<mediatype>video</mediatype>
					<pproBypass>false</pproBypass>
					<parameter authoringApp="PremierePro">
					<parameterid>1</parameterid>
					<name></name>
					<hash>025b1101-ead6-0ca2-1feb-caf3000001fc</hash>
					<value>5AEAAAAAAABEMyIRDAAAAAAABgAKAAQABgAAAGQAAAAAAF4ASAAQAAwARABAADwAOAAAAAAAAAAAADQAMwAsAAAAKAAkACAAAAAAAAAAAAAAAAAAHAAAAAAAGgAAAAAAAAAUAAAAAAAAAAAAAAAAAAAAAAAAAAgAAAAAABsABwBeAAAAAAAAAUAAAABQAAAAbAAAAAIAAAAAAAEAAQAAAAAAQEEAAMBAAABAQAAAyEIAAAABIAAAAAIAAAACAAAAAAA2QwCASkTw/v//9P7///j+//8S////AAAAAAEAAAAEAAAAEQAAAEhHUFNvZWlLYWt1cG9wdGFpAAAAAQAAAAwAAAAIAAwABAAIAAgAAAAIAAAAUAAAAA8AAADvvIEAAAAAAAAAAAAAAAAAAAA2ACQAAAAgABwAAAAAABsAFAAAAAAAAAAAAAAAAAAAAAAAAAAAABAAAAAAAAAADAAAAAgABAA2AAAAAgAAABwAAAAcAAAAHAAAAAAAIEEAAAABaAAAAE3PAEOw////tP///wEAAAAUAAAAEAAaAAgABwAMAAAAEAAUABAAAAAAAAABHAAAAAAAoEEcAAAAAgAAAAAACgAIAAUABgAHAAoAAAAADAD//P///wQABAAEAAAACAAIAAYABwAIAAAAAAAMAA==</value>
					</parameter>
					<parameter authoringApp="PremierePro">
					<parameterid>2</parameterid>
					<name></name>
					<IsTimeVarying>false</IsTimeVarying>
					<ParameterControlType>11</ParameterControlType>
					<LowerBound>false</LowerBound>
					<UpperBound>false</UpperBound>
					<value>-91445760000000000,false,0,0,0,0,0,0</value>
					</parameter>
					<parameter authoringApp="PremierePro">
					<parameterid>3</parameterid>
					<name></name>
					<IsTimeVarying>false</IsTimeVarying>
					<value>-91445760000000000,0.5:0.5,0,0,0,0,0,0,5,4,0,0,0,0</value>
					</parameter>
					<parameter authoringApp="PremierePro">
					<parameterid>4</parameterid>
					<name></name>
					<IsTimeVarying>false</IsTimeVarying>
					<ParameterControlType>2</ParameterControlType>
					<LowerBound>0</LowerBound>
					<UpperBound>4000</UpperBound>
					<value>-91445760000000000,100.,0,0,0,0,0,0</value>
					</parameter>
					<parameter authoringApp="PremierePro">
					<parameterid>8</parameterid>
					<name></name>
					<IsTimeVarying>false</IsTimeVarying>
					<ParameterControlType>2</ParameterControlType>
					<LowerBound>0</LowerBound>
					<UpperBound>100</UpperBound>
					<value>-91445760000000000,100.,0,0,0,0,0,0</value>
					</parameter>
					</effect>
					</filter>
					<logginginfo>
					<description></description>
					<scene></scene>
					<shottake></shottake>
					<lognote></lognote>
					<good></good>
					<originalvideofilename></originalvideofilename>
					<originalaudiofilename></originalaudiofilename>
					</logginginfo>
					<colorinfo>
					<lut></lut>
					<lut1></lut1>
					<asc_sop></asc_sop>
					<asc_sat></asc_sat>
					<lut2></lut2>
					</colorinfo>
					<labels>
					</labels>
					</clipitem>
					<clipitem frameBlend="FALSE" id="clipitem-436">
					<masterclipid>masterclip-356</masterclipid>
					<name></name>
					<enabled>TRUE</enabled>
					<duration>2582774</duration>
					<rate>
					
					                                    <timebase>60</timebase>
					                                    <ntsc>TRUE</ntsc>
					                                
					</rate>
					<start>3221</start>
					<end>3281</end>
					<in>3221</in>
					<out>3281</out>
					<pproTicksIn>914456774963789</pproTicksIn>
					<pproTicksOut>914677708529577</pproTicksOut>
					<alphatype>straight</alphatype>
					<pixelaspectratio>square</pixelaspectratio>
					<anamorphic>FALSE</anamorphic>
					<file id="file-355">
					<name></name>
					<mediaSource>GraphicAndType</mediaSource>
					<rate>
					<timebase>60</timebase>
					<ntsc>TRUE</ntsc>
					</rate>
					<timecode>
					<rate>
					<timebase>60</timebase>
					<ntsc>TRUE</ntsc>
					</rate>
					<string>00:00:00:00</string>
					<frame>0</frame>
					<displayformat>NDF</displayformat>
					</timecode>
					<media>
					<video>
					<samplecharacteristics>
					<rate>
					<timebase>60</timebase>
					<ntsc>TRUE</ntsc>
					</rate>
					<width>1080</width>
					<height>1920</height>
					<anamorphic>FALSE</anamorphic>
					<pixelaspectratio>square</pixelaspectratio>
					<fielddominance>none</fielddominance>
					</samplecharacteristics>
					</video>
					</media>
					</file>
					<filter>
					<effect>
					<name></name>
					<effectid>GraphicAndType</effectid>
					<effectcategory>graphic</effectcategory>
					<effecttype>filter</effecttype>
					<mediatype>video</mediatype>
					<pproBypass>false</pproBypass>
					<parameter authoringApp="PremierePro">
					<parameterid>1</parameterid>
					<name></name>
					<hash>025b1101-ead6-0ca2-1feb-caf3000001fc</hash>
					<value>5AEAAAAAAABEMyIRDAAAAAAABgAKAAQABgAAAGQAAAAAAF4ASAAQAAwARABAADwAOAAAAAAAAAAAADQAMwAsAAAAKAAkACAAAAAAAAAAAAAAAAAAHAAAAAAAGgAAAAAAAAAUAAAAAAAAAAAAAAAAAAAAAAAAAAgAAAAAABsABwBeAAAAAAAAAUAAAABQAAAAbAAAAAIAAAAAAAEAAQAAAAAAQEEAAMBAAABAQAAAyEIAAAABIAAAAAIAAAACAAAAAAA2QwCASkTw/v//9P7///j+//8S////AAAAAAEAAAAEAAAAEQAAAEhHUFNvZWlLYWt1cG9wdGFpAAAAAQAAAAwAAAAIAAwABAAIAAgAAAAIAAAAUAAAAA8AAADvvIEAAAAAAAAAAAAAAAAAAAA2ACQAAAAgABwAAAAAABsAFAAAAAAAAAAAAAAAAAAAAAAAAAAAABAAAAAAAAAADAAAAAgABAA2AAAAAgAAABwAAAAcAAAAHAAAAAAAIEEAAAABaAAAAE3PAEOw////tP///wEAAAAUAAAAEAAaAAgABwAMAAAAEAAUABAAAAAAAAABHAAAAAAAoEEcAAAAAgAAAAAACgAIAAUABgAHAAoAAAAADAD//P///wQABAAEAAAACAAIAAYABwAIAAAAAAAMAA==</value>
					</parameter>
					<parameter authoringApp="PremierePro">
					<parameterid>2</parameterid>
					<name></name>
					<IsTimeVarying>false</IsTimeVarying>
					<ParameterControlType>11</ParameterControlType>
					<LowerBound>false</LowerBound>
					<UpperBound>false</UpperBound>
					<value>-91445760000000000,false,0,0,0,0,0,0</value>
					</parameter>
					<parameter authoringApp="PremierePro">
					<parameterid>3</parameterid>
					<name></name>
					<IsTimeVarying>false</IsTimeVarying>
					<value>-91445760000000000,0.5:0.5,0,0,0,0,0,0,5,4,0,0,0,0</value>
					</parameter>
					<parameter authoringApp="PremierePro">
					<parameterid>4</parameterid>
					<name></name>
					<IsTimeVarying>false</IsTimeVarying>
					<ParameterControlType>2</ParameterControlType>
					<LowerBound>0</LowerBound>
					<UpperBound>4000</UpperBound>
					<value>-91445760000000000,100.,0,0,0,0,0,0</value>
					</parameter>
					<parameter authoringApp="PremierePro">
					<parameterid>8</parameterid>
					<name></name>
					<IsTimeVarying>false</IsTimeVarying>
					<ParameterControlType>2</ParameterControlType>
					<LowerBound>0</LowerBound>
					<UpperBound>100</UpperBound>
					<value>-91445760000000000,100.,0,0,0,0,0,0</value>
					</parameter>
					</effect>
					</filter>
					<logginginfo>
					<description></description>
					<scene></scene>
					<shottake></shottake>
					<lognote></lognote>
					<good></good>
					<originalvideofilename></originalvideofilename>
					<originalaudiofilename></originalaudiofilename>
					</logginginfo>
					<colorinfo>
					<lut></lut>
					<lut1></lut1>
					<asc_sop></asc_sop>
					<asc_sat></asc_sat>
					<lut2></lut2>
					</colorinfo>
					<labels>
					</labels>
					</clipitem>
					<clipitem frameBlend="FALSE" id="clipitem-444">
					<masterclipid>masterclip-364</masterclipid>
					<name></name>
					<enabled>TRUE</enabled>
					<duration>2582774</duration>
					<rate>
					
					                                    <timebase>60</timebase>
					                                    <ntsc>TRUE</ntsc>
					                                
					</rate>
					<start>3287</start>
					<end>3347</end>
					<in>3287</in>
					<out>3347</out>
					<pproTicksIn>914456774963789</pproTicksIn>
					<pproTicksOut>914677708529577</pproTicksOut>
					<alphatype>straight</alphatype>
					<pixelaspectratio>square</pixelaspectratio>
					<anamorphic>FALSE</anamorphic>
					<file id="file-363">
					<name></name>
					<mediaSource>GraphicAndType</mediaSource>
					<rate>
					<timebase>60</timebase>
					<ntsc>TRUE</ntsc>
					</rate>
					<timecode>
					<rate>
					<timebase>60</timebase>
					<ntsc>TRUE</ntsc>
					</rate>
					<string>00:00:00:00</string>
					<frame>0</frame>
					<displayformat>NDF</displayformat>
					</timecode>
					<media>
					<video>
					<samplecharacteristics>
					<rate>
					<timebase>60</timebase>
					<ntsc>TRUE</ntsc>
					</rate>
					<width>1080</width>
					<height>1920</height>
					<anamorphic>FALSE</anamorphic>
					<pixelaspectratio>square</pixelaspectratio>
					<fielddominance>none</fielddominance>
					</samplecharacteristics>
					</video>
					</media>
					</file>
					<filter>
					<effect>
					<name></name>
					<effectid>GraphicAndType</effectid>
					<effectcategory>graphic</effectcategory>
					<effecttype>filter</effecttype>
					<mediatype>video</mediatype>
					<pproBypass>false</pproBypass>
					<parameter authoringApp="PremierePro">
					<parameterid>1</parameterid>
					<name></name>
					<hash>025b1101-ead6-0ca2-1feb-caf3000001fc</hash>
					<value>5AEAAAAAAABEMyIRDAAAAAAABgAKAAQABgAAAGQAAAAAAF4ASAAQAAwARABAADwAOAAAAAAAAAAAADQAMwAsAAAAKAAkACAAAAAAAAAAAAAAAAAAHAAAAAAAGgAAAAAAAAAUAAAAAAAAAAAAAAAAAAAAAAAAAAgAAAAAABsABwBeAAAAAAAAAUAAAABQAAAAbAAAAAIAAAAAAAEAAQAAAAAAQEEAAMBAAABAQAAAyEIAAAABIAAAAAIAAAACAAAAAAA2QwCASkTw/v//9P7///j+//8S////AAAAAAEAAAAEAAAAEQAAAEhHUFNvZWlLYWt1cG9wdGFpAAAAAQAAAAwAAAAIAAwABAAIAAgAAAAIAAAAUAAAAA8AAADvvIEAAAAAAAAAAAAAAAAAAAA2ACQAAAAgABwAAAAAABsAFAAAAAAAAAAAAAAAAAAAAAAAAAAAABAAAAAAAAAADAAAAAgABAA2AAAAAgAAABwAAAAcAAAAHAAAAAAAIEEAAAABaAAAAE3PAEOw////tP///wEAAAAUAAAAEAAaAAgABwAMAAAAEAAUABAAAAAAAAABHAAAAAAAoEEcAAAAAgAAAAAACgAIAAUABgAHAAoAAAAADAD//P///wQABAAEAAAACAAIAAYABwAIAAAAAAAMAA==</value>
					</parameter>
					<parameter authoringApp="PremierePro">
					<parameterid>2</parameterid>
					<name></name>
					<IsTimeVarying>false</IsTimeVarying>
					<ParameterControlType>11</ParameterControlType>
					<LowerBound>false</LowerBound>
					<UpperBound>false</UpperBound>
					<value>-91445760000000000,false,0,0,0,0,0,0</value>
					</parameter>
					<parameter authoringApp="PremierePro">
					<parameterid>3</parameterid>
					<name></name>
					<IsTimeVarying>false</IsTimeVarying>
					<value>-91445760000000000,0.5:0.5,0,0,0,0,0,0,5,4,0,0,0,0</value>
					</parameter>
					<parameter authoringApp="PremierePro">
					<parameterid>4</parameterid>
					<name></name>
					<IsTimeVarying>false</IsTimeVarying>
					<ParameterControlType>2</ParameterControlType>
					<LowerBound>0</LowerBound>
					<UpperBound>4000</UpperBound>
					<value>-91445760000000000,100.,0,0,0,0,0,0</value>
					</parameter>
					<parameter authoringApp="PremierePro">
					<parameterid>8</parameterid>
					<name></name>
					<IsTimeVarying>false</IsTimeVarying>
					<ParameterControlType>2</ParameterControlType>
					<LowerBound>0</LowerBound>
					<UpperBound>100</UpperBound>
					<value>-91445760000000000,100.,0,0,0,0,0,0</value>
					</parameter>
					</effect>
					</filter>
					<logginginfo>
					<description></description>
					<scene></scene>
					<shottake></shottake>
					<lognote></lognote>
					<good></good>
					<originalvideofilename></originalvideofilename>
					<originalaudiofilename></originalaudiofilename>
					</logginginfo>
					<colorinfo>
					<lut></lut>
					<lut1></lut1>
					<asc_sop></asc_sop>
					<asc_sat></asc_sat>
					<lut2></lut2>
					</colorinfo>
					<labels>
					</labels>
					</clipitem>
					<clipitem frameBlend="FALSE" id="clipitem-451">
					<masterclipid>masterclip-371</masterclipid>
					<name></name>
					<enabled>TRUE</enabled>
					<duration>2582774</duration>
					<rate>
					
					                                    <timebase>60</timebase>
					                                    <ntsc>TRUE</ntsc>
					                                
					</rate>
					<start>3347</start>
					<end>3407</end>
					<in>3347</in>
					<out>3407</out>
					<pproTicksIn>914456774963789</pproTicksIn>
					<pproTicksOut>914677708529577</pproTicksOut>
					<alphatype>straight</alphatype>
					<pixelaspectratio>square</pixelaspectratio>
					<anamorphic>FALSE</anamorphic>
					<file id="file-370">
					<name></name>
					<mediaSource>GraphicAndType</mediaSource>
					<rate>
					<timebase>60</timebase>
					<ntsc>TRUE</ntsc>
					</rate>
					<timecode>
					<rate>
					<timebase>60</timebase>
					<ntsc>TRUE</ntsc>
					</rate>
					<string>00:00:00:00</string>
					<frame>0</frame>
					<displayformat>NDF</displayformat>
					</timecode>
					<media>
					<video>
					<samplecharacteristics>
					<rate>
					<timebase>60</timebase>
					<ntsc>TRUE</ntsc>
					</rate>
					<width>1080</width>
					<height>1920</height>
					<anamorphic>FALSE</anamorphic>
					<pixelaspectratio>square</pixelaspectratio>
					<fielddominance>none</fielddominance>
					</samplecharacteristics>
					</video>
					</media>
					</file>
					<filter>
					<effect>
					<name></name>
					<effectid>GraphicAndType</effectid>
					<effectcategory>graphic</effectcategory>
					<effecttype>filter</effecttype>
					<mediatype>video</mediatype>
					<pproBypass>false</pproBypass>
					<parameter authoringApp="PremierePro">
					<parameterid>1</parameterid>
					<name></name>
					<hash>025b1101-ead6-0ca2-1feb-caf3000001fc</hash>
					<value>5AEAAAAAAABEMyIRDAAAAAAABgAKAAQABgAAAGQAAAAAAF4ASAAQAAwARABAADwAOAAAAAAAAAAAADQAMwAsAAAAKAAkACAAAAAAAAAAAAAAAAAAHAAAAAAAGgAAAAAAAAAUAAAAAAAAAAAAAAAAAAAAAAAAAAgAAAAAABsABwBeAAAAAAAAAUAAAABQAAAAbAAAAAIAAAAAAAEAAQAAAAAAQEEAAMBAAABAQAAAyEIAAAABIAAAAAIAAAACAAAAAAA2QwCASkTw/v//9P7///j+//8S////AAAAAAEAAAAEAAAAEQAAAEhHUFNvZWlLYWt1cG9wdGFpAAAAAQAAAAwAAAAIAAwABAAIAAgAAAAIAAAAUAAAAA8AAADvvIEAAAAAAAAAAAAAAAAAAAA2ACQAAAAgABwAAAAAABsAFAAAAAAAAAAAAAAAAAAAAAAAAAAAABAAAAAAAAAADAAAAAgABAA2AAAAAgAAABwAAAAcAAAAHAAAAAAAIEEAAAABaAAAAE3PAEOw////tP///wEAAAAUAAAAEAAaAAgABwAMAAAAEAAUABAAAAAAAAABHAAAAAAAoEEcAAAAAgAAAAAACgAIAAUABgAHAAoAAAAADAD//P///wQABAAEAAAACAAIAAYABwAIAAAAAAAMAA==</value>
					</parameter>
					<parameter authoringApp="PremierePro">
					<parameterid>2</parameterid>
					<name></name>
					<IsTimeVarying>false</IsTimeVarying>
					<ParameterControlType>11</ParameterControlType>
					<LowerBound>false</LowerBound>
					<UpperBound>false</UpperBound>
					<value>-91445760000000000,false,0,0,0,0,0,0</value>
					</parameter>
					<parameter authoringApp="PremierePro">
					<parameterid>3</parameterid>
					<name></name>
					<IsTimeVarying>false</IsTimeVarying>
					<value>-91445760000000000,0.5:0.5,0,0,0,0,0,0,5,4,0,0,0,0</value>
					</parameter>
					<parameter authoringApp="PremierePro">
					<parameterid>4</parameterid>
					<name></name>
					<IsTimeVarying>false</IsTimeVarying>
					<ParameterControlType>2</ParameterControlType>
					<LowerBound>0</LowerBound>
					<UpperBound>4000</UpperBound>
					<value>-91445760000000000,100.,0,0,0,0,0,0</value>
					</parameter>
					<parameter authoringApp="PremierePro">
					<parameterid>8</parameterid>
					<name></name>
					<IsTimeVarying>false</IsTimeVarying>
					<ParameterControlType>2</ParameterControlType>
					<LowerBound>0</LowerBound>
					<UpperBound>100</UpperBound>
					<value>-91445760000000000,100.,0,0,0,0,0,0</value>
					</parameter>
					</effect>
					</filter>
					<logginginfo>
					<description></description>
					<scene></scene>
					<shottake></shottake>
					<lognote></lognote>
					<good></good>
					<originalvideofilename></originalvideofilename>
					<originalaudiofilename></originalaudiofilename>
					</logginginfo>
					<colorinfo>
					<lut></lut>
					<lut1></lut1>
					<asc_sop></asc_sop>
					<asc_sat></asc_sat>
					<lut2></lut2>
					</colorinfo>
					<labels>
					</labels>
					</clipitem>
					<clipitem frameBlend="FALSE" id="clipitem-98">
					<masterclipid>masterclip-18</masterclipid>
					<name></name>
					<enabled>TRUE</enabled>
					<duration>2582774</duration>
					<rate>
					
					                                    <timebase>60</timebase>
					                                    <ntsc>TRUE</ntsc>
					                                
					</rate>
					<start>3419</start>
					<end>3538</end>
					<in>3419</in>
					<out>3538</out>
					<pproTicksIn>914456774963789</pproTicksIn>
					<pproTicksOut>914677708529577</pproTicksOut>
					<alphatype>straight</alphatype>
					<pixelaspectratio>square</pixelaspectratio>
					<anamorphic>FALSE</anamorphic>
					<file id="file-17">
					<name></name>
					<mediaSource>GraphicAndType</mediaSource>
					<rate>
					<timebase>60</timebase>
					<ntsc>TRUE</ntsc>
					</rate>
					<timecode>
					<rate>
					<timebase>60</timebase>
					<ntsc>TRUE</ntsc>
					</rate>
					<string>00:00:00:00</string>
					<frame>0</frame>
					<displayformat>NDF</displayformat>
					</timecode>
					<media>
					<video>
					<samplecharacteristics>
					<rate>
					<timebase>60</timebase>
					<ntsc>TRUE</ntsc>
					</rate>
					<width>1080</width>
					<height>1920</height>
					<anamorphic>FALSE</anamorphic>
					<pixelaspectratio>square</pixelaspectratio>
					<fielddominance>none</fielddominance>
					</samplecharacteristics>
					</video>
					</media>
					</file>
					<filter>
					<effect>
					<name>5</name>
					<effectid>GraphicAndType</effectid>
					<effectcategory>graphic</effectcategory>
					<effecttype>filter</effecttype>
					<mediatype>video</mediatype>
					<pproBypass>false</pproBypass>
					<parameter authoringApp="PremierePro">
					<parameterid>1</parameterid>
					<name></name>
					<hash>025b1101-ead6-0ca2-1feb-caf3000001fc</hash>
					<value>5AEAAAAAAABEMyIRDAAAAAAABgAKAAQABgAAAGQAAAAAAF4ASAAQAAwARABAADwAOAAAAAAAAAAAADQAMwAsAAAAKAAkACAAAAAAAAAAAAAAAAAAHAAAAAAAGgAAAAAAAAAUAAAAAAAAAAAAAAAAAAAAAAAAAAgAAAAAABsABwBeAAAAAAAAAUAAAABQAAAAbAAAAAIAAAAAAAEAAQAAAAAAQEEAAMBAAABAQAAAyEIAAAABIAAAAAIAAAACAAAAAAA2QwCASkTw/v//9P7///j+//8S////AAAAAAEAAAAEAAAAEQAAAEhHUFNvZWlLYWt1cG9wdGFpAAAAAQAAAAwAAAAIAAwABAAIAAgAAAAIAAAAUAAAAA8AAAA15Y+344GnAAAAAAAAAAAAAAA2ACQAAAAgABwAAAAAABsAFAAAAAAAAAAAAAAAAAAAAAAAAAAAABAAAAAAAAAADAAAAAgABAA2AAAAAgAAABwAAAAcAAAAHAAAAAAAIEEAAAABaAAAAE3PAEOw////tP///wEAAAAUAAAAEAAaAAgABwAMAAAAEAAUABAAAAAAAAABHAAAAAAAoEEcAAAAAgAAAAAACgAIAAUABgAHAAoAAAAADAD//P///wQABAAEAAAACAAIAAYABwAIAAAAAAAMAA==</value>
					</parameter>
					<parameter authoringApp="PremierePro">
					<parameterid>2</parameterid>
					<name></name>
					<IsTimeVarying>false</IsTimeVarying>
					<ParameterControlType>11</ParameterControlType>
					<LowerBound>false</LowerBound>
					<UpperBound>false</UpperBound>
					<value>-91445760000000000,false,0,0,0,0,0,0</value>
					</parameter>
					<parameter authoringApp="PremierePro">
					<parameterid>3</parameterid>
					<name></name>
					<IsTimeVarying>false</IsTimeVarying>
					<value>-91445760000000000,0.5:0.5,0,0,0,0,0,0,5,4,0,0,0,0</value>
					</parameter>
					<parameter authoringApp="PremierePro">
					<parameterid>4</parameterid>
					<name></name>
					<IsTimeVarying>false</IsTimeVarying>
					<ParameterControlType>2</ParameterControlType>
					<LowerBound>0</LowerBound>
					<UpperBound>4000</UpperBound>
					<value>-91445760000000000,100.,0,0,0,0,0,0</value>
					</parameter>
					<parameter authoringApp="PremierePro">
					<parameterid>8</parameterid>
					<name></name>
					<IsTimeVarying>false</IsTimeVarying>
					<ParameterControlType>2</ParameterControlType>
					<LowerBound>0</LowerBound>
					<UpperBound>100</UpperBound>
					<value>-91445760000000000,100.,0,0,0,0,0,0</value>
					</parameter>
					</effect>
					</filter>
					<logginginfo>
					<description></description>
					<scene></scene>
					<shottake></shottake>
					<lognote></lognote>
					<good></good>
					<originalvideofilename></originalvideofilename>
					<originalaudiofilename></originalaudiofilename>
					</logginginfo>
					<colorinfo>
					<lut></lut>
					<lut1></lut1>
					<asc_sop></asc_sop>
					<asc_sat></asc_sat>
					<lut2></lut2>
					</colorinfo>
					<labels>
					</labels>
					</clipitem>
					<clipitem frameBlend="FALSE" id="clipitem-99">
					<masterclipid>masterclip-19</masterclipid>
					<name></name>
					<enabled>TRUE</enabled>
					<duration>2582774</duration>
					<rate>
					
					                                    <timebase>60</timebase>
					                                    <ntsc>TRUE</ntsc>
					                                
					</rate>
					<start>3538</start>
					<end>3778</end>
					<in>3538</in>
					<out>3778</out>
					<pproTicksIn>914456774963789</pproTicksIn>
					<pproTicksOut>914677708529577</pproTicksOut>
					<alphatype>straight</alphatype>
					<pixelaspectratio>square</pixelaspectratio>
					<anamorphic>FALSE</anamorphic>
					<file id="file-18">
					<name></name>
					<mediaSource>GraphicAndType</mediaSource>
					<rate>
					<timebase>60</timebase>
					<ntsc>TRUE</ntsc>
					</rate>
					<timecode>
					<rate>
					<timebase>60</timebase>
					<ntsc>TRUE</ntsc>
					</rate>
					<string>00:00:00:00</string>
					<frame>0</frame>
					<displayformat>NDF</displayformat>
					</timecode>
					<media>
					<video>
					<samplecharacteristics>
					<rate>
					<timebase>60</timebase>
					<ntsc>TRUE</ntsc>
					</rate>
					<width>1080</width>
					<height>1920</height>
					<anamorphic>FALSE</anamorphic>
					<pixelaspectratio>square</pixelaspectratio>
					<fielddominance>none</fielddominance>
					</samplecharacteristics>
					</video>
					</media>
					</file>
					<filter>
					<effect>
					<name>5 1</name>
					<effectid>GraphicAndType</effectid>
					<effectcategory>graphic</effectcategory>
					<effecttype>filter</effecttype>
					<mediatype>video</mediatype>
					<pproBypass>false</pproBypass>
					<parameter authoringApp="PremierePro">
					<parameterid>1</parameterid>
					<name></name>
					<hash>025b1101-ead6-0ca2-1feb-caf3000001fc</hash>
					<value>5AEAAAAAAABEMyIRDAAAAAAABgAKAAQABgAAAGQAAAAAAF4ASAAQAAwARABAADwAOAAAAAAAAAAAADQAMwAsAAAAKAAkACAAAAAAAAAAAAAAAAAAHAAAAAAAGgAAAAAAAAAUAAAAAAAAAAAAAAAAAAAAAAAAAAgAAAAAABsABwBeAAAAAAAAAUAAAABQAAAAbAAAAAIAAAAAAAEAAQAAAAAAQEEAAMBAAABAQAAAyEIAAAABIAAAAAIAAAACAAAAAAA2QwCASkTw/v//9P7///j+//8S////AAAAAAEAAAAEAAAAEQAAAEhHUFNvZWlLYWt1cG9wdGFpAAAAAQAAAAwAAAAIAAwABAAIAAgAAAAIAAAAUAAAAA8AAADjg6njg5Hjg7PjgrHjg7wAAAA2ACQAAAAgABwAAAAAABsAFAAAAAAAAAAAAAAAAAAAAAAAAAAAABAAAAAAAAAADAAAAAgABAA2AAAAAgAAABwAAAAcAAAAHAAAAAAAIEEAAAABaAAAAE3PAEOw////tP///wEAAAAUAAAAEAAaAAgABwAMAAAAEAAUABAAAAAAAAABHAAAAAAAoEEcAAAAAgAAAAAACgAIAAUABgAHAAoAAAAADAD//P///wQABAAEAAAACAAIAAYABwAIAAAAAAAMAA==</value>
					</parameter>
					<parameter authoringApp="PremierePro">
					<parameterid>2</parameterid>
					<name></name>
					<IsTimeVarying>false</IsTimeVarying>
					<ParameterControlType>11</ParameterControlType>
					<LowerBound>false</LowerBound>
					<UpperBound>false</UpperBound>
					<value>-91445760000000000,false,0,0,0,0,0,0</value>
					</parameter>
					<parameter authoringApp="PremierePro">
					<parameterid>3</parameterid>
					<name></name>
					<IsTimeVarying>false</IsTimeVarying>
					<value>-91445760000000000,0.5:0.5,0,0,0,0,0,0,5,4,0,0,0,0</value>
					</parameter>
					<parameter authoringApp="PremierePro">
					<parameterid>4</parameterid>
					<name></name>
					<IsTimeVarying>false</IsTimeVarying>
					<ParameterControlType>2</ParameterControlType>
					<LowerBound>0</LowerBound>
					<UpperBound>4000</UpperBound>
					<value>-91445760000000000,100.,0,0,0,0,0,0</value>
					</parameter>
					<parameter authoringApp="PremierePro">
					<parameterid>8</parameterid>
					<name></name>
					<IsTimeVarying>false</IsTimeVarying>
					<ParameterControlType>2</ParameterControlType>
					<LowerBound>0</LowerBound>
					<UpperBound>100</UpperBound>
					<value>-91445760000000000,100.,0,0,0,0,0,0</value>
					</parameter>
					</effect>
					</filter>
					<logginginfo>
					<description></description>
					<scene></scene>
					<shottake></shottake>
					<lognote></lognote>
					<good></good>
					<originalvideofilename></originalvideofilename>
					<originalaudiofilename></originalaudiofilename>
					</logginginfo>
					<colorinfo>
					<lut></lut>
					<lut1></lut1>
					<asc_sop></asc_sop>
					<asc_sat></asc_sat>
					<lut2></lut2>
					</colorinfo>
					<labels>
					</labels>
					</clipitem>
					<clipitem frameBlend="FALSE" id="clipitem-100">
					<masterclipid>masterclip-20</masterclipid>
					<name></name>
					<enabled>TRUE</enabled>
					<duration>2582774</duration>
					<rate>
					
					                                    <timebase>60</timebase>
					                                    <ntsc>TRUE</ntsc>
					                                
					</rate>
					<start>3778</start>
					<end>3898</end>
					<in>3778</in>
					<out>3898</out>
					<pproTicksIn>914456774963789</pproTicksIn>
					<pproTicksOut>914677708529577</pproTicksOut>
					<alphatype>straight</alphatype>
					<pixelaspectratio>square</pixelaspectratio>
					<anamorphic>FALSE</anamorphic>
					<file id="file-19">
					<name></name>
					<mediaSource>GraphicAndType</mediaSource>
					<rate>
					<timebase>60</timebase>
					<ntsc>TRUE</ntsc>
					</rate>
					<timecode>
					<rate>
					<timebase>60</timebase>
					<ntsc>TRUE</ntsc>
					</rate>
					<string>00:00:00:00</string>
					<frame>0</frame>
					<displayformat>NDF</displayformat>
					</timecode>
					<media>
					<video>
					<samplecharacteristics>
					<rate>
					<timebase>60</timebase>
					<ntsc>TRUE</ntsc>
					</rate>
					<width>1080</width>
					<height>1920</height>
					<anamorphic>FALSE</anamorphic>
					<pixelaspectratio>square</pixelaspectratio>
					<fielddominance>none</fielddominance>
					</samplecharacteristics>
					</video>
					</media>
					</file>
					<filter>
					<effect>
					<name></name>
					<effectid>GraphicAndType</effectid>
					<effectcategory>graphic</effectcategory>
					<effecttype>filter</effecttype>
					<mediatype>video</mediatype>
					<pproBypass>false</pproBypass>
					<parameter authoringApp="PremierePro">
					<parameterid>1</parameterid>
					<name></name>
					<hash>025b1101-ead6-0ca2-1feb-caf3000001fc</hash>
					<value>5AEAAAAAAABEMyIRDAAAAAAABgAKAAQABgAAAGQAAAAAAF4ASAAQAAwARABAADwAOAAAAAAAAAAAADQAMwAsAAAAKAAkACAAAAAAAAAAAAAAAAAAHAAAAAAAGgAAAAAAAAAUAAAAAAAAAAAAAAAAAAAAAAAAAAgAAAAAABsABwBeAAAAAAAAAUAAAABQAAAAbAAAAAIAAAAAAAEAAQAAAAAAQEEAAMBAAABAQAAAyEIAAAABIAAAAAIAAAACAAAAAAA2QwCASkTw/v//9P7///j+//8S////AAAAAAEAAAAEAAAAEQAAAEhHUFNvZWlLYWt1cG9wdGFpAAAAAQAAAAwAAAAIAAwABAAIAAgAAAAIAAAAUAAAAA8AAADjga/jgYQAAAAAAAAAAAAAAAA2ACQAAAAgABwAAAAAABsAFAAAAAAAAAAAAAAAAAAAAAAAAAAAABAAAAAAAAAADAAAAAgABAA2AAAAAgAAABwAAAAcAAAAHAAAAAAAIEEAAAABaAAAAE3PAEOw////tP///wEAAAAUAAAAEAAaAAgABwAMAAAAEAAUABAAAAAAAAABHAAAAAAAoEEcAAAAAgAAAAAACgAIAAUABgAHAAoAAAAADAD//P///wQABAAEAAAACAAIAAYABwAIAAAAAAAMAA==</value>
					</parameter>
					<parameter authoringApp="PremierePro">
					<parameterid>2</parameterid>
					<name></name>
					<IsTimeVarying>false</IsTimeVarying>
					<ParameterControlType>11</ParameterControlType>
					<LowerBound>false</LowerBound>
					<UpperBound>false</UpperBound>
					<value>-91445760000000000,false,0,0,0,0,0,0</value>
					</parameter>
					<parameter authoringApp="PremierePro">
					<parameterid>3</parameterid>
					<name></name>
					<IsTimeVarying>false</IsTimeVarying>
					<value>-91445760000000000,0.5:0.5,0,0,0,0,0,0,5,4,0,0,0,0</value>
					</parameter>
					<parameter authoringApp="PremierePro">
					<parameterid>4</parameterid>
					<name></name>
					<IsTimeVarying>false</IsTimeVarying>
					<ParameterControlType>2</ParameterControlType>
					<LowerBound>0</LowerBound>
					<UpperBound>4000</UpperBound>
					<value>-91445760000000000,100.,0,0,0,0,0,0</value>
					</parameter>
					<parameter authoringApp="PremierePro">
					<parameterid>8</parameterid>
					<name></name>
					<IsTimeVarying>false</IsTimeVarying>
					<ParameterControlType>2</ParameterControlType>
					<LowerBound>0</LowerBound>
					<UpperBound>100</UpperBound>
					<value>-91445760000000000,100.,0,0,0,0,0,0</value>
					</parameter>
					</effect>
					</filter>
					<logginginfo>
					<description></description>
					<scene></scene>
					<shottake></shottake>
					<lognote></lognote>
					<good></good>
					<originalvideofilename></originalvideofilename>
					<originalaudiofilename></originalaudiofilename>
					</logginginfo>
					<colorinfo>
					<lut></lut>
					<lut1></lut1>
					<asc_sop></asc_sop>
					<asc_sat></asc_sat>
					<lut2></lut2>
					</colorinfo>
					<labels>
					</labels>
					</clipitem>
					<clipitem id="clipitem-502"/>
					                        </track>
					                        <track TL.SQTrackShy="0" TL.SQTrackExpandedHeight="25" TL.SQTrackExpanded="0" MZ.TrackTargeted="0">
					<clipitem frameBlend="FALSE" id="clipitem-503">
					<masterclipid>masterclip-423</masterclipid>
					<name></name>
					<enabled>TRUE</enabled>
					<duration>2582774</duration>
					<rate>
					
					                                    <timebase>60</timebase>
					                                    <ntsc>TRUE</ntsc>
					                                
					</rate>
					<start>3934</start>
					<end>4000</end>
					<in>3934</in>
					<out>4000</out>
					<pproTicksIn>914456774963789</pproTicksIn>
					<pproTicksOut>914677708529577</pproTicksOut>
					<alphatype>straight</alphatype>
					<pixelaspectratio>square</pixelaspectratio>
					<anamorphic>FALSE</anamorphic>
					<file id="file-422">
					<name></name>
					<mediaSource>GraphicAndType</mediaSource>
					<rate>
					<timebase>60</timebase>
					<ntsc>TRUE</ntsc>
					</rate>
					<timecode>
					<rate>
					<timebase>60</timebase>
					<ntsc>TRUE</ntsc>
					</rate>
					<string>00:00:00:00</string>
					<frame>0</frame>
					<displayformat>NDF</displayformat>
					</timecode>
					<media>
					<video>
					<samplecharacteristics>
					<rate>
					<timebase>60</timebase>
					<ntsc>TRUE</ntsc>
					</rate>
					<width>1080</width>
					<height>1920</height>
					<anamorphic>FALSE</anamorphic>
					<pixelaspectratio>square</pixelaspectratio>
					<fielddominance>none</fielddominance>
					</samplecharacteristics>
					</video>
					</media>
					</file>
					<filter>
					<effect>
					<name></name>
					<effectid>GraphicAndType</effectid>
					<effectcategory>graphic</effectcategory>
					<effecttype>filter</effecttype>
					<mediatype>video</mediatype>
					<pproBypass>false</pproBypass>
					<parameter authoringApp="PremierePro">
					<parameterid>1</parameterid>
					<name></name>
					<hash>025b1101-ead6-0ca2-1feb-caf3000001fc</hash>
					<value>5AEAAAAAAABEMyIRDAAAAAAABgAKAAQABgAAAGQAAAAAAF4ASAAQAAwARABAADwAOAAAAAAAAAAAADQAMwAsAAAAKAAkACAAAAAAAAAAAAAAAAAAHAAAAAAAGgAAAAAAAAAUAAAAAAAAAAAAAAAAAAAAAAAAAAgAAAAAABsABwBeAAAAAAAAAUAAAABQAAAAbAAAAAIAAAAAAAEAAQAAAAAAQEEAAMBAAABAQAAAyEIAAAABIAAAAAIAAAACAAAAAAA2QwCASkTw/v//9P7///j+//8S////AAAAAAEAAAAEAAAAEQAAAEhHUFNvZWlLYWt1cG9wdGFpAAAAAQAAAAwAAAAIAAwABAAIAAgAAAAIAAAAUAAAAA8AAADvvIEAAAAAAAAAAAAAAAAAAAA2ACQAAAAgABwAAAAAABsAFAAAAAAAAAAAAAAAAAAAAAAAAAAAABAAAAAAAAAADAAAAAgABAA2AAAAAgAAABwAAAAcAAAAHAAAAAAAIEEAAAABaAAAAE3PAEOw////tP///wEAAAAUAAAAEAAaAAgABwAMAAAAEAAUABAAAAAAAAABHAAAAAAAoEEcAAAAAgAAAAAACgAIAAUABgAHAAoAAAAADAD//P///wQABAAEAAAACAAIAAYABwAIAAAAAAAMAA==</value>
					</parameter>
					<parameter authoringApp="PremierePro">
					<parameterid>2</parameterid>
					<name></name>
					<IsTimeVarying>false</IsTimeVarying>
					<ParameterControlType>11</ParameterControlType>
					<LowerBound>false</LowerBound>
					<UpperBound>false</UpperBound>
					<value>-91445760000000000,false,0,0,0,0,0,0</value>
					</parameter>
					<parameter authoringApp="PremierePro">
					<parameterid>3</parameterid>
					<name></name>
					<IsTimeVarying>false</IsTimeVarying>
					<value>-91445760000000000,0.5:0.5,0,0,0,0,0,0,5,4,0,0,0,0</value>
					</parameter>
					<parameter authoringApp="PremierePro">
					<parameterid>4</parameterid>
					<name></name>
					<IsTimeVarying>false</IsTimeVarying>
					<ParameterControlType>2</ParameterControlType>
					<LowerBound>0</LowerBound>
					<UpperBound>4000</UpperBound>
					<value>-91445760000000000,100.,0,0,0,0,0,0</value>
					</parameter>
					<parameter authoringApp="PremierePro">
					<parameterid>8</parameterid>
					<name></name>
					<IsTimeVarying>false</IsTimeVarying>
					<ParameterControlType>2</ParameterControlType>
					<LowerBound>0</LowerBound>
					<UpperBound>100</UpperBound>
					<value>-91445760000000000,100.,0,0,0,0,0,0</value>
					</parameter>
					</effect>
					</filter>
					<logginginfo>
					<description></description>
					<scene></scene>
					<shottake></shottake>
					<lognote></lognote>
					<good></good>
					<originalvideofilename></originalvideofilename>
					<originalaudiofilename></originalaudiofilename>
					</logginginfo>
					<colorinfo>
					<lut></lut>
					<lut1></lut1>
					<asc_sop></asc_sop>
					<asc_sat></asc_sat>
					<lut2></lut2>
					</colorinfo>
					<labels>
					</labels>
					</clipitem>
					<clipitem frameBlend="FALSE" id="clipitem-507">
					<masterclipid>masterclip-427</masterclipid>
					<name></name>
					<enabled>TRUE</enabled>
					<duration>2582774</duration>
					<rate>
					
					                                    <timebase>60</timebase>
					                                    <ntsc>TRUE</ntsc>
					                                
					</rate>
					<start>4012</start>
					<end>4072</end>
					<in>4012</in>
					<out>4072</out>
					<pproTicksIn>914456774963789</pproTicksIn>
					<pproTicksOut>914677708529577</pproTicksOut>
					<alphatype>straight</alphatype>
					<pixelaspectratio>square</pixelaspectratio>
					<anamorphic>FALSE</anamorphic>
					<file id="file-426">
					<name></name>
					<mediaSource>GraphicAndType</mediaSource>
					<rate>
					<timebase>60</timebase>
					<ntsc>TRUE</ntsc>
					</rate>
					<timecode>
					<rate>
					<timebase>60</timebase>
					<ntsc>TRUE</ntsc>
					</rate>
					<string>00:00:00:00</string>
					<frame>0</frame>
					<displayformat>NDF</displayformat>
					</timecode>
					<media>
					<video>
					<samplecharacteristics>
					<rate>
					<timebase>60</timebase>
					<ntsc>TRUE</ntsc>
					</rate>
					<width>1080</width>
					<height>1920</height>
					<anamorphic>FALSE</anamorphic>
					<pixelaspectratio>square</pixelaspectratio>
					<fielddominance>none</fielddominance>
					</samplecharacteristics>
					</video>
					</media>
					</file>
					<filter>
					<effect>
					<name></name>
					<effectid>GraphicAndType</effectid>
					<effectcategory>graphic</effectcategory>
					<effecttype>filter</effecttype>
					<mediatype>video</mediatype>
					<pproBypass>false</pproBypass>
					<parameter authoringApp="PremierePro">
					<parameterid>1</parameterid>
					<name></name>
					<hash>025b1101-ead6-0ca2-1feb-caf3000001fc</hash>
					<value>5AEAAAAAAABEMyIRDAAAAAAABgAKAAQABgAAAGQAAAAAAF4ASAAQAAwARABAADwAOAAAAAAAAAAAADQAMwAsAAAAKAAkACAAAAAAAAAAAAAAAAAAHAAAAAAAGgAAAAAAAAAUAAAAAAAAAAAAAAAAAAAAAAAAAAgAAAAAABsABwBeAAAAAAAAAUAAAABQAAAAbAAAAAIAAAAAAAEAAQAAAAAAQEEAAMBAAABAQAAAyEIAAAABIAAAAAIAAAACAAAAAAA2QwCASkTw/v//9P7///j+//8S////AAAAAAEAAAAEAAAAEQAAAEhHUFNvZWlLYWt1cG9wdGFpAAAAAQAAAAwAAAAIAAwABAAIAAgAAAAIAAAAUAAAAA8AAADvvIEAAAAAAAAAAAAAAAAAAAA2ACQAAAAgABwAAAAAABsAFAAAAAAAAAAAAAAAAAAAAAAAAAAAABAAAAAAAAAADAAAAAgABAA2AAAAAgAAABwAAAAcAAAAHAAAAAAAIEEAAAABaAAAAE3PAEOw////tP///wEAAAAUAAAAEAAaAAgABwAMAAAAEAAUABAAAAAAAAABHAAAAAAAoEEcAAAAAgAAAAAACgAIAAUABgAHAAoAAAAADAD//P///wQABAAEAAAACAAIAAYABwAIAAAAAAAMAA==</value>
					</parameter>
					<parameter authoringApp="PremierePro">
					<parameterid>2</parameterid>
					<name></name>
					<IsTimeVarying>false</IsTimeVarying>
					<ParameterControlType>11</ParameterControlType>
					<LowerBound>false</LowerBound>
					<UpperBound>false</UpperBound>
					<value>-91445760000000000,false,0,0,0,0,0,0</value>
					</parameter>
					<parameter authoringApp="PremierePro">
					<parameterid>3</parameterid>
					<name></name>
					<IsTimeVarying>false</IsTimeVarying>
					<value>-91445760000000000,0.5:0.5,0,0,0,0,0,0,5,4,0,0,0,0</value>
					</parameter>
					<parameter authoringApp="PremierePro">
					<parameterid>4</parameterid>
					<name></name>
					<IsTimeVarying>false</IsTimeVarying>
					<ParameterControlType>2</ParameterControlType>
					<LowerBound>0</LowerBound>
					<UpperBound>4000</UpperBound>
					<value>-91445760000000000,100.,0,0,0,0,0,0</value>
					</parameter>
					<parameter authoringApp="PremierePro">
					<parameterid>8</parameterid>
					<name></name>
					<IsTimeVarying>false</IsTimeVarying>
					<ParameterControlType>2</ParameterControlType>
					<LowerBound>0</LowerBound>
					<UpperBound>100</UpperBound>
					<value>-91445760000000000,100.,0,0,0,0,0,0</value>
					</parameter>
					</effect>
					</filter>
					<logginginfo>
					<description></description>
					<scene></scene>
					<shottake></shottake>
					<lognote></lognote>
					<good></good>
					<originalvideofilename></originalvideofilename>
					<originalaudiofilename></originalaudiofilename>
					</logginginfo>
					<colorinfo>
					<lut></lut>
					<lut1></lut1>
					<asc_sop></asc_sop>
					<asc_sat></asc_sat>
					<lut2></lut2>
					</colorinfo>
					<labels>
					</labels>
					</clipitem>
					<clipitem id="clipitem-510"/>
					                        </track>
					                        <track TL.SQTrackShy="0" TL.SQTrackExpandedHeight="25" TL.SQTrackExpanded="0" MZ.TrackTargeted="0">
					<clipitem frameBlend="FALSE" id="clipitem-511">
					<masterclipid>masterclip-431</masterclipid>
					<name></name>
					<enabled>TRUE</enabled>
					<duration>2582774</duration>
					<rate>
					
					                                    <timebase>60</timebase>
					                                    <ntsc>TRUE</ntsc>
					                                
					</rate>
					<start>4078</start>
					<end>4138</end>
					<in>4078</in>
					<out>4138</out>
					<pproTicksIn>914456774963789</pproTicksIn>
					<pproTicksOut>914677708529577</pproTicksOut>
					<alphatype>straight</alphatype>
					<pixelaspectratio>square</pixelaspectratio>
					<anamorphic>FALSE</anamorphic>
					<file id="file-430">
					<name></name>
					<mediaSource>GraphicAndType</mediaSource>
					<rate>
					<timebase>60</timebase>
					<ntsc>TRUE</ntsc>
					</rate>
					<timecode>
					<rate>
					<timebase>60</timebase>
					<ntsc>TRUE</ntsc>
					</rate>
					<string>00:00:00:00</string>
					<frame>0</frame>
					<displayformat>NDF</displayformat>
					</timecode>
					<media>
					<video>
					<samplecharacteristics>
					<rate>
					<timebase>60</timebase>
					<ntsc>TRUE</ntsc>
					</rate>
					<width>1080</width>
					<height>1920</height>
					<anamorphic>FALSE</anamorphic>
					<pixelaspectratio>square</pixelaspectratio>
					<fielddominance>none</fielddominance>
					</samplecharacteristics>
					</video>
					</media>
					</file>
					<filter>
					<effect>
					<name></name>
					<effectid>GraphicAndType</effectid>
					<effectcategory>graphic</effectcategory>
					<effecttype>filter</effecttype>
					<mediatype>video</mediatype>
					<pproBypass>false</pproBypass>
					<parameter authoringApp="PremierePro">
					<parameterid>1</parameterid>
					<name></name>
					<hash>025b1101-ead6-0ca2-1feb-caf3000001fc</hash>
					<value>5AEAAAAAAABEMyIRDAAAAAAABgAKAAQABgAAAGQAAAAAAF4ASAAQAAwARABAADwAOAAAAAAAAAAAADQAMwAsAAAAKAAkACAAAAAAAAAAAAAAAAAAHAAAAAAAGgAAAAAAAAAUAAAAAAAAAAAAAAAAAAAAAAAAAAgAAAAAABsABwBeAAAAAAAAAUAAAABQAAAAbAAAAAIAAAAAAAEAAQAAAAAAQEEAAMBAAABAQAAAyEIAAAABIAAAAAIAAAACAAAAAAA2QwCASkTw/v//9P7///j+//8S////AAAAAAEAAAAEAAAAEQAAAEhHUFNvZWlLYWt1cG9wdGFpAAAAAQAAAAwAAAAIAAwABAAIAAgAAAAIAAAAUAAAAA8AAADvvIEAAAAAAAAAAAAAAAAAAAA2ACQAAAAgABwAAAAAABsAFAAAAAAAAAAAAAAAAAAAAAAAAAAAABAAAAAAAAAADAAAAAgABAA2AAAAAgAAABwAAAAcAAAAHAAAAAAAIEEAAAABaAAAAE3PAEOw////tP///wEAAAAUAAAAEAAaAAgABwAMAAAAEAAUABAAAAAAAAABHAAAAAAAoEEcAAAAAgAAAAAACgAIAAUABgAHAAoAAAAADAD//P///wQABAAEAAAACAAIAAYABwAIAAAAAAAMAA==</value>
					</parameter>
					<parameter authoringApp="PremierePro">
					<parameterid>2</parameterid>
					<name></name>
					<IsTimeVarying>false</IsTimeVarying>
					<ParameterControlType>11</ParameterControlType>
					<LowerBound>false</LowerBound>
					<UpperBound>false</UpperBound>
					<value>-91445760000000000,false,0,0,0,0,0,0</value>
					</parameter>
					<parameter authoringApp="PremierePro">
					<parameterid>3</parameterid>
					<name></name>
					<IsTimeVarying>false</IsTimeVarying>
					<value>-91445760000000000,0.5:0.5,0,0,0,0,0,0,5,4,0,0,0,0</value>
					</parameter>
					<parameter authoringApp="PremierePro">
					<parameterid>4</parameterid>
					<name></name>
					<IsTimeVarying>false</IsTimeVarying>
					<ParameterControlType>2</ParameterControlType>
					<LowerBound>0</LowerBound>
					<UpperBound>4000</UpperBound>
					<value>-91445760000000000,100.,0,0,0,0,0,0</value>
					</parameter>
					<parameter authoringApp="PremierePro">
					<parameterid>8</parameterid>
					<name></name>
					<IsTimeVarying>false</IsTimeVarying>
					<ParameterControlType>2</ParameterControlType>
					<LowerBound>0</LowerBound>
					<UpperBound>100</UpperBound>
					<value>-91445760000000000,100.,0,0,0,0,0,0</value>
					</parameter>
					</effect>
					</filter>
					<logginginfo>
					<description></description>
					<scene></scene>
					<shottake></shottake>
					<lognote></lognote>
					<good></good>
					<originalvideofilename></originalvideofilename>
					<originalaudiofilename></originalaudiofilename>
					</logginginfo>
					<colorinfo>
					<lut></lut>
					<lut1></lut1>
					<asc_sop></asc_sop>
					<asc_sat></asc_sat>
					<lut2></lut2>
					</colorinfo>
					<labels>
					</labels>
					</clipitem>
					<clipitem frameBlend="FALSE" id="clipitem-102">
					<masterclipid>masterclip-22</masterclipid>
					<name></name>
					<enabled>TRUE</enabled>
					<duration>2582774</duration>
					<rate>
					
					                                    <timebase>60</timebase>
					                                    <ntsc>TRUE</ntsc>
					                                
					</rate>
					<start>4138</start>
					<end>4318</end>
					<in>4138</in>
					<out>4318</out>
					<pproTicksIn>914456774963789</pproTicksIn>
					<pproTicksOut>914677708529577</pproTicksOut>
					<alphatype>straight</alphatype>
					<pixelaspectratio>square</pixelaspectratio>
					<anamorphic>FALSE</anamorphic>
					<file id="file-21">
					<name></name>
					<mediaSource>GraphicAndType</mediaSource>
					<rate>
					<timebase>60</timebase>
					<ntsc>TRUE</ntsc>
					</rate>
					<timecode>
					<rate>
					<timebase>60</timebase>
					<ntsc>TRUE</ntsc>
					</rate>
					<string>00:00:00:00</string>
					<frame>0</frame>
					<displayformat>NDF</displayformat>
					</timecode>
					<media>
					<video>
					<samplecharacteristics>
					<rate>
					<timebase>60</timebase>
					<ntsc>TRUE</ntsc>
					</rate>
					<width>1080</width>
					<height>1920</height>
					<anamorphic>FALSE</anamorphic>
					<pixelaspectratio>square</pixelaspectratio>
					<fielddominance>none</fielddominance>
					</samplecharacteristics>
					</video>
					</media>
					</file>
					<filter>
					<effect>
					<name> </name>
					<effectid>GraphicAndType</effectid>
					<effectcategory>graphic</effectcategory>
					<effecttype>filter</effecttype>
					<mediatype>video</mediatype>
					<pproBypass>false</pproBypass>
					<parameter authoringApp="PremierePro">
					<parameterid>1</parameterid>
					<name></name>
					<hash>025b1101-ead6-0ca2-1feb-caf3000001fc</hash>
					<value>5AEAAAAAAABEMyIRDAAAAAAABgAKAAQABgAAAGQAAAAAAF4ASAAQAAwARABAADwAOAAAAAAAAAAAADQAMwAsAAAAKAAkACAAAAAAAAAAAAAAAAAAHAAAAAAAGgAAAAAAAAAUAAAAAAAAAAAAAAAAAAAAAAAAAAgAAAAAABsABwBeAAAAAAAAAUAAAABQAAAAbAAAAAIAAAAAAAEAAQAAAAAAQEEAAMBAAABAQAAAyEIAAAABIAAAAAIAAAACAAAAAAA2QwCASkTw/v//9P7///j+//8S////AAAAAAEAAAAEAAAAEQAAAEhHUFNvZWlLYWt1cG9wdGFpAAAAAQAAAAwAAAAIAAwABAAIAAgAAAAIAAAAUAAAAA8AAADmnZDmlpnjgYzpo5/jgbkAAAA2ACQAAAAgABwAAAAAABsAFAAAAAAAAAAAAAAAAAAAAAAAAAAAABAAAAAAAAAADAAAAAgABAA2AAAAAgAAABwAAAAcAAAAHAAAAAAAIEEAAAABaAAAAE3PAEOw////tP///wEAAAAUAAAAEAAaAAgABwAMAAAAEAAUABAAAAAAAAABHAAAAAAAoEEcAAAAAgAAAAAACgAIAAUABgAHAAoAAAAADAD//P///wQABAAEAAAACAAIAAYABwAIAAAAAAAMAA==</value>
					</parameter>
					<parameter authoringApp="PremierePro">
					<parameterid>2</parameterid>
					<name></name>
					<IsTimeVarying>false</IsTimeVarying>
					<ParameterControlType>11</ParameterControlType>
					<LowerBound>false</LowerBound>
					<UpperBound>false</UpperBound>
					<value>-91445760000000000,false,0,0,0,0,0,0</value>
					</parameter>
					<parameter authoringApp="PremierePro">
					<parameterid>3</parameterid>
					<name></name>
					<IsTimeVarying>false</IsTimeVarying>
					<value>-91445760000000000,0.5:0.5,0,0,0,0,0,0,5,4,0,0,0,0</value>
					</parameter>
					<parameter authoringApp="PremierePro">
					<parameterid>4</parameterid>
					<name></name>
					<IsTimeVarying>false</IsTimeVarying>
					<ParameterControlType>2</ParameterControlType>
					<LowerBound>0</LowerBound>
					<UpperBound>4000</UpperBound>
					<value>-91445760000000000,100.,0,0,0,0,0,0</value>
					</parameter>
					<parameter authoringApp="PremierePro">
					<parameterid>8</parameterid>
					<name></name>
					<IsTimeVarying>false</IsTimeVarying>
					<ParameterControlType>2</ParameterControlType>
					<LowerBound>0</LowerBound>
					<UpperBound>100</UpperBound>
					<value>-91445760000000000,100.,0,0,0,0,0,0</value>
					</parameter>
					</effect>
					</filter>
					<logginginfo>
					<description></description>
					<scene></scene>
					<shottake></shottake>
					<lognote></lognote>
					<good></good>
					<originalvideofilename></originalvideofilename>
					<originalaudiofilename></originalaudiofilename>
					</logginginfo>
					<colorinfo>
					<lut></lut>
					<lut1></lut1>
					<asc_sop></asc_sop>
					<asc_sat></asc_sat>
					<lut2></lut2>
					</colorinfo>
					<labels>
					</labels>
					</clipitem>
					<clipitem frameBlend="FALSE" id="clipitem-103">
					<masterclipid>masterclip-23</masterclipid>
					<name></name>
					<enabled>TRUE</enabled>
					<duration>2582774</duration>
					<rate>
					
					                                    <timebase>60</timebase>
					                                    <ntsc>TRUE</ntsc>
					                                
					</rate>
					<start>4318</start>
					<end>4498</end>
					<in>4318</in>
					<out>4498</out>
					<pproTicksIn>914456774963789</pproTicksIn>
					<pproTicksOut>914677708529577</pproTicksOut>
					<alphatype>straight</alphatype>
					<pixelaspectratio>square</pixelaspectratio>
					<anamorphic>FALSE</anamorphic>
					<file id="file-22">
					<name></name>
					<mediaSource>GraphicAndType</mediaSource>
					<rate>
					<timebase>60</timebase>
					<ntsc>TRUE</ntsc>
					</rate>
					<timecode>
					<rate>
					<timebase>60</timebase>
					<ntsc>TRUE</ntsc>
					</rate>
					<string>00:00:00:00</string>
					<frame>0</frame>
					<displayformat>NDF</displayformat>
					</timecode>
					<media>
					<video>
					<samplecharacteristics>
					<rate>
					<timebase>60</timebase>
					<ntsc>TRUE</ntsc>
					</rate>
					<width>1080</width>
					<height>1920</height>
					<anamorphic>FALSE</anamorphic>
					<pixelaspectratio>square</pixelaspectratio>
					<fielddominance>none</fielddominance>
					</samplecharacteristics>
					</video>
					</media>
					</file>
					<filter>
					<effect>
					<name>   </name>
					<effectid>GraphicAndType</effectid>
					<effectcategory>graphic</effectcategory>
					<effecttype>filter</effecttype>
					<mediatype>video</mediatype>
					<pproBypass>false</pproBypass>
					<parameter authoringApp="PremierePro">
					<parameterid>1</parameterid>
					<name></name>
					<hash>025b1101-ead6-0ca2-1feb-caf3000001fc</hash>
					<value>5AEAAAAAAABEMyIRDAAAAAAABgAKAAQABgAAAGQAAAAAAF4ASAAQAAwARABAADwAOAAAAAAAAAAAADQAMwAsAAAAKAAkACAAAAAAAAAAAAAAAAAAHAAAAAAAGgAAAAAAAAAUAAAAAAAAAAAAAAAAAAAAAAAAAAgAAAAAABsABwBeAAAAAAAAAUAAAABQAAAAbAAAAAIAAAAAAAEAAQAAAAAAQEEAAMBAAABAQAAAyEIAAAABIAAAAAIAAAACAAAAAAA2QwCASkTw/v//9P7///j+//8S////AAAAAAEAAAAEAAAAEQAAAEhHUFNvZWlLYWt1cG9wdGFpAAAAAQAAAAwAAAAIAAwABAAIAAgAAAAIAAAAUAAAAA4AAADjga0g44Gq44KT44GLIJMAAAA2ACQAAAAgABwAAAAAABsAFAAAAAAAAAAAAAAAAAAAAAAAAAAAABAAAAAAAAAADAAAAAgABAA2AAAAAgAAABwAAAAcAAAAHAAAAAAAIEEAAAABaAAAAE3PAEOw////tP///wEAAAAUAAAAEAAaAAgABwAMAAAAEAAUABAAAAAAAAABHAAAAAAAoEEcAAAAAgAAAAAACgAIAAUABgAHAAoAAAAADAD//P///wQABAAEAAAACAAIAAYABwAIAAAAAAAMAA==</value>
					</parameter>
					<parameter authoringApp="PremierePro">
					<parameterid>2</parameterid>
					<name></name>
					<IsTimeVarying>false</IsTimeVarying>
					<ParameterControlType>11</ParameterControlType>
					<LowerBound>false</LowerBound>
					<UpperBound>false</UpperBound>
					<value>-91445760000000000,false,0,0,0,0,0,0</value>
					</parameter>
					<parameter authoringApp="PremierePro">
					<parameterid>3</parameterid>
					<name></name>
					<IsTimeVarying>false</IsTimeVarying>
					<value>-91445760000000000,0.5:0.5,0,0,0,0,0,0,5,4,0,0,0,0</value>
					</parameter>
					<parameter authoringApp="PremierePro">
					<parameterid>4</parameterid>
					<name></name>
					<IsTimeVarying>false</IsTimeVarying>
					<ParameterControlType>2</ParameterControlType>
					<LowerBound>0</LowerBound>
					<UpperBound>4000</UpperBound>
					<value>-91445760000000000,100.,0,0,0,0,0,0</value>
					</parameter>
					<parameter authoringApp="PremierePro">
					<parameterid>8</parameterid>
					<name></name>
					<IsTimeVarying>false</IsTimeVarying>
					<ParameterControlType>2</ParameterControlType>
					<LowerBound>0</LowerBound>
					<UpperBound>100</UpperBound>
					<value>-91445760000000000,100.,0,0,0,0,0,0</value>
					</parameter>
					</effect>
					</filter>
					<logginginfo>
					<description></description>
					<scene></scene>
					<shottake></shottake>
					<lognote></lognote>
					<good></good>
					<originalvideofilename></originalvideofilename>
					<originalaudiofilename></originalaudiofilename>
					</logginginfo>
					<colorinfo>
					<lut></lut>
					<lut1></lut1>
					<asc_sop></asc_sop>
					<asc_sat></asc_sat>
					<lut2></lut2>
					</colorinfo>
					<labels>
					</labels>
					</clipitem>
					<clipitem frameBlend="FALSE" id="clipitem-104">
					<masterclipid>masterclip-24</masterclipid>
					<name></name>
					<enabled>TRUE</enabled>
					<duration>2582774</duration>
					<rate>
					
					                                    <timebase>60</timebase>
					                                    <ntsc>TRUE</ntsc>
					                                
					</rate>
					<start>4498</start>
					<end>4678</end>
					<in>4498</in>
					<out>4678</out>
					<pproTicksIn>914456774963789</pproTicksIn>
					<pproTicksOut>914677708529577</pproTicksOut>
					<alphatype>straight</alphatype>
					<pixelaspectratio>square</pixelaspectratio>
					<anamorphic>FALSE</anamorphic>
					<file id="file-23">
					<name></name>
					<mediaSource>GraphicAndType</mediaSource>
					<rate>
					<timebase>60</timebase>
					<ntsc>TRUE</ntsc>
					</rate>
					<timecode>
					<rate>
					<timebase>60</timebase>
					<ntsc>TRUE</ntsc>
					</rate>
					<string>00:00:00:00</string>
					<frame>0</frame>
					<displayformat>NDF</displayformat>
					</timecode>
					<media>
					<video>
					<samplecharacteristics>
					<rate>
					<timebase>60</timebase>
					<ntsc>TRUE</ntsc>
					</rate>
					<width>1080</width>
					<height>1920</height>
					<anamorphic>FALSE</anamorphic>
					<pixelaspectratio>square</pixelaspectratio>
					<fielddominance>none</fielddominance>
					</samplecharacteristics>
					</video>
					</media>
					</file>
					<filter>
					<effect>
					<name>   </name>
					<effectid>GraphicAndType</effectid>
					<effectcategory>graphic</effectcategory>
					<effecttype>filter</effecttype>
					<mediatype>video</mediatype>
					<pproBypass>false</pproBypass>
					<parameter authoringApp="PremierePro">
					<parameterid>1</parameterid>
					<name></name>
					<hash>025b1101-ead6-0ca2-1feb-caf3000001fc</hash>
					<value>5AEAAAAAAABEMyIRDAAAAAAABgAKAAQABgAAAGQAAAAAAF4ASAAQAAwARABAADwAOAAAAAAAAAAAADQAMwAsAAAAKAAkACAAAAAAAAAAAAAAAAAAHAAAAAAAGgAAAAAAAAAUAAAAAAAAAAAAAAAAAAAAAAAAAAgAAAAAABsABwBeAAAAAAAAAUAAAABQAAAAbAAAAAIAAAAAAAEAAQAAAAAAQEEAAMBAAABAQAAAyEIAAAABIAAAAAIAAAACAAAAAAA2QwCASkTw/v//9P7///j+//8S////AAAAAAEAAAAEAAAAEQAAAEhHUFNvZWlLYWt1cG9wdGFpAAAAAQAAAAwAAAAIAAwABAAIAAgAAAAIAAAAUAAAAA8AAADjg57jgrjjgafjgZPjgb8AAAA2ACQAAAAgABwAAAAAABsAFAAAAAAAAAAAAAAAAAAAAAAAAAAAABAAAAAAAAAADAAAAAgABAA2AAAAAgAAABwAAAAcAAAAHAAAAAAAIEEAAAABaAAAAE3PAEOw////tP///wEAAAAUAAAAEAAaAAgABwAMAAAAEAAUABAAAAAAAAABHAAAAAAAoEEcAAAAAgAAAAAACgAIAAUABgAHAAoAAAAADAD//P///wQABAAEAAAACAAIAAYABwAIAAAAAAAMAA==</value>
					</parameter>
					<parameter authoringApp="PremierePro">
					<parameterid>2</parameterid>
					<name></name>
					<IsTimeVarying>false</IsTimeVarying>
					<ParameterControlType>11</ParameterControlType>
					<LowerBound>false</LowerBound>
					<UpperBound>false</UpperBound>
					<value>-91445760000000000,false,0,0,0,0,0,0</value>
					</parameter>
					<parameter authoringApp="PremierePro">
					<parameterid>3</parameterid>
					<name></name>
					<IsTimeVarying>false</IsTimeVarying>
					<value>-91445760000000000,0.5:0.5,0,0,0,0,0,0,5,4,0,0,0,0</value>
					</parameter>
					<parameter authoringApp="PremierePro">
					<parameterid>4</parameterid>
					<name></name>
					<IsTimeVarying>false</IsTimeVarying>
					<ParameterControlType>2</ParameterControlType>
					<LowerBound>0</LowerBound>
					<UpperBound>4000</UpperBound>
					<value>-91445760000000000,100.,0,0,0,0,0,0</value>
					</parameter>
					<parameter authoringApp="PremierePro">
					<parameterid>8</parameterid>
					<name></name>
					<IsTimeVarying>false</IsTimeVarying>
					<ParameterControlType>2</ParameterControlType>
					<LowerBound>0</LowerBound>
					<UpperBound>100</UpperBound>
					<value>-91445760000000000,100.,0,0,0,0,0,0</value>
					</parameter>
					</effect>
					</filter>
					<logginginfo>
					<description></description>
					<scene></scene>
					<shottake></shottake>
					<lognote></lognote>
					<good></good>
					<originalvideofilename></originalvideofilename>
					<originalaudiofilename></originalaudiofilename>
					</logginginfo>
					<colorinfo>
					<lut></lut>
					<lut1></lut1>
					<asc_sop></asc_sop>
					<asc_sat></asc_sat>
					<lut2></lut2>
					</colorinfo>
					<labels>
					</labels>
					</clipitem>
					<clipitem frameBlend="FALSE" id="clipitem-569">
					<masterclipid>masterclip-489</masterclipid>
					<name></name>
					<enabled>TRUE</enabled>
					<duration>2582774</duration>
					<rate>
					
					                                    <timebase>60</timebase>
					                                    <ntsc>TRUE</ntsc>
					                                
					</rate>
					<start>4684</start>
					<end>4750</end>
					<in>4684</in>
					<out>4750</out>
					<pproTicksIn>914456774963789</pproTicksIn>
					<pproTicksOut>914677708529577</pproTicksOut>
					<alphatype>straight</alphatype>
					<pixelaspectratio>square</pixelaspectratio>
					<anamorphic>FALSE</anamorphic>
					<file id="file-488">
					<name></name>
					<mediaSource>GraphicAndType</mediaSource>
					<rate>
					<timebase>60</timebase>
					<ntsc>TRUE</ntsc>
					</rate>
					<timecode>
					<rate>
					<timebase>60</timebase>
					<ntsc>TRUE</ntsc>
					</rate>
					<string>00:00:00:00</string>
					<frame>0</frame>
					<displayformat>NDF</displayformat>
					</timecode>
					<media>
					<video>
					<samplecharacteristics>
					<rate>
					<timebase>60</timebase>
					<ntsc>TRUE</ntsc>
					</rate>
					<width>1080</width>
					<height>1920</height>
					<anamorphic>FALSE</anamorphic>
					<pixelaspectratio>square</pixelaspectratio>
					<fielddominance>none</fielddominance>
					</samplecharacteristics>
					</video>
					</media>
					</file>
					<filter>
					<effect>
					<name></name>
					<effectid>GraphicAndType</effectid>
					<effectcategory>graphic</effectcategory>
					<effecttype>filter</effecttype>
					<mediatype>video</mediatype>
					<pproBypass>false</pproBypass>
					<parameter authoringApp="PremierePro">
					<parameterid>1</parameterid>
					<name></name>
					<hash>025b1101-ead6-0ca2-1feb-caf3000001fc</hash>
					<value>5AEAAAAAAABEMyIRDAAAAAAABgAKAAQABgAAAGQAAAAAAF4ASAAQAAwARABAADwAOAAAAAAAAAAAADQAMwAsAAAAKAAkACAAAAAAAAAAAAAAAAAAHAAAAAAAGgAAAAAAAAAUAAAAAAAAAAAAAAAAAAAAAAAAAAgAAAAAABsABwBeAAAAAAAAAUAAAABQAAAAbAAAAAIAAAAAAAEAAQAAAAAAQEEAAMBAAABAQAAAyEIAAAABIAAAAAIAAAACAAAAAAA2QwCASkTw/v//9P7///j+//8S////AAAAAAEAAAAEAAAAEQAAAEhHUFNvZWlLYWt1cG9wdGFpAAAAAQAAAAwAAAAIAAwABAAIAAgAAAAIAAAAUAAAAA8AAADvvIEAAAAAAAAAAAAAAAAAAAA2ACQAAAAgABwAAAAAABsAFAAAAAAAAAAAAAAAAAAAAAAAAAAAABAAAAAAAAAADAAAAAgABAA2AAAAAgAAABwAAAAcAAAAHAAAAAAAIEEAAAABaAAAAE3PAEOw////tP///wEAAAAUAAAAEAAaAAgABwAMAAAAEAAUABAAAAAAAAABHAAAAAAAoEEcAAAAAgAAAAAACgAIAAUABgAHAAoAAAAADAD//P///wQABAAEAAAACAAIAAYABwAIAAAAAAAMAA==</value>
					</parameter>
					<parameter authoringApp="PremierePro">
					<parameterid>2</parameterid>
					<name></name>
					<IsTimeVarying>false</IsTimeVarying>
					<ParameterControlType>11</ParameterControlType>
					<LowerBound>false</LowerBound>
					<UpperBound>false</UpperBound>
					<value>-91445760000000000,false,0,0,0,0,0,0</value>
					</parameter>
					<parameter authoringApp="PremierePro">
					<parameterid>3</parameterid>
					<name></name>
					<IsTimeVarying>false</IsTimeVarying>
					<value>-91445760000000000,0.5:0.5,0,0,0,0,0,0,5,4,0,0,0,0</value>
					</parameter>
					<parameter authoringApp="PremierePro">
					<parameterid>4</parameterid>
					<name></name>
					<IsTimeVarying>false</IsTimeVarying>
					<ParameterControlType>2</ParameterControlType>
					<LowerBound>0</LowerBound>
					<UpperBound>4000</UpperBound>
					<value>-91445760000000000,100.,0,0,0,0,0,0</value>
					</parameter>
					<parameter authoringApp="PremierePro">
					<parameterid>8</parameterid>
					<name></name>
					<IsTimeVarying>false</IsTimeVarying>
					<ParameterControlType>2</ParameterControlType>
					<LowerBound>0</LowerBound>
					<UpperBound>100</UpperBound>
					<value>-91445760000000000,100.,0,0,0,0,0,0</value>
					</parameter>
					</effect>
					</filter>
					<logginginfo>
					<description></description>
					<scene></scene>
					<shottake></shottake>
					<lognote></lognote>
					<good></good>
					<originalvideofilename></originalvideofilename>
					<originalaudiofilename></originalaudiofilename>
					</logginginfo>
					<colorinfo>
					<lut></lut>
					<lut1></lut1>
					<asc_sop></asc_sop>
					<asc_sat></asc_sat>
					<lut2></lut2>
					</colorinfo>
					<labels>
					</labels>
					</clipitem>
					<clipitem frameBlend="FALSE" id="clipitem-575">
					<masterclipid>masterclip-495</masterclipid>
					<name></name>
					<enabled>TRUE</enabled>
					<duration>2582774</duration>
					<rate>
					
					                                    <timebase>60</timebase>
					                                    <ntsc>TRUE</ntsc>
					                                
					</rate>
					<start>4750</start>
					<end>4810</end>
					<in>4750</in>
					<out>4810</out>
					<pproTicksIn>914456774963789</pproTicksIn>
					<pproTicksOut>914677708529577</pproTicksOut>
					<alphatype>straight</alphatype>
					<pixelaspectratio>square</pixelaspectratio>
					<anamorphic>FALSE</anamorphic>
					<file id="file-494">
					<name></name>
					<mediaSource>GraphicAndType</mediaSource>
					<rate>
					<timebase>60</timebase>
					<ntsc>TRUE</ntsc>
					</rate>
					<timecode>
					<rate>
					<timebase>60</timebase>
					<ntsc>TRUE</ntsc>
					</rate>
					<string>00:00:00:00</string>
					<frame>0</frame>
					<displayformat>NDF</displayformat>
					</timecode>
					<media>
					<video>
					<samplecharacteristics>
					<rate>
					<timebase>60</timebase>
					<ntsc>TRUE</ntsc>
					</rate>
					<width>1080</width>
					<height>1920</height>
					<anamorphic>FALSE</anamorphic>
					<pixelaspectratio>square</pixelaspectratio>
					<fielddominance>none</fielddominance>
					</samplecharacteristics>
					</video>
					</media>
					</file>
					<filter>
					<effect>
					<name></name>
					<effectid>GraphicAndType</effectid>
					<effectcategory>graphic</effectcategory>
					<effecttype>filter</effecttype>
					<mediatype>video</mediatype>
					<pproBypass>false</pproBypass>
					<parameter authoringApp="PremierePro">
					<parameterid>1</parameterid>
					<name></name>
					<hash>025b1101-ead6-0ca2-1feb-caf3000001fc</hash>
					<value>5AEAAAAAAABEMyIRDAAAAAAABgAKAAQABgAAAGQAAAAAAF4ASAAQAAwARABAADwAOAAAAAAAAAAAADQAMwAsAAAAKAAkACAAAAAAAAAAAAAAAAAAHAAAAAAAGgAAAAAAAAAUAAAAAAAAAAAAAAAAAAAAAAAAAAgAAAAAABsABwBeAAAAAAAAAUAAAABQAAAAbAAAAAIAAAAAAAEAAQAAAAAAQEEAAMBAAABAQAAAyEIAAAABIAAAAAIAAAACAAAAAAA2QwCASkTw/v//9P7///j+//8S////AAAAAAEAAAAEAAAAEQAAAEhHUFNvZWlLYWt1cG9wdGFpAAAAAQAAAAwAAAAIAAwABAAIAAgAAAAIAAAAUAAAAA8AAADvvIEAAAAAAAAAAAAAAAAAAAA2ACQAAAAgABwAAAAAABsAFAAAAAAAAAAAAAAAAAAAAAAAAAAAABAAAAAAAAAADAAAAAgABAA2AAAAAgAAABwAAAAcAAAAHAAAAAAAIEEAAAABaAAAAE3PAEOw////tP///wEAAAAUAAAAEAAaAAgABwAMAAAAEAAUABAAAAAAAAABHAAAAAAAoEEcAAAAAgAAAAAACgAIAAUABgAHAAoAAAAADAD//P///wQABAAEAAAACAAIAAYABwAIAAAAAAAMAA==</value>
					</parameter>
					<parameter authoringApp="PremierePro">
					<parameterid>2</parameterid>
					<name></name>
					<IsTimeVarying>false</IsTimeVarying>
					<ParameterControlType>11</ParameterControlType>
					<LowerBound>false</LowerBound>
					<UpperBound>false</UpperBound>
					<value>-91445760000000000,false,0,0,0,0,0,0</value>
					</parameter>
					<parameter authoringApp="PremierePro">
					<parameterid>3</parameterid>
					<name></name>
					<IsTimeVarying>false</IsTimeVarying>
					<value>-91445760000000000,0.5:0.5,0,0,0,0,0,0,5,4,0,0,0,0</value>
					</parameter>
					<parameter authoringApp="PremierePro">
					<parameterid>4</parameterid>
					<name></name>
					<IsTimeVarying>false</IsTimeVarying>
					<ParameterControlType>2</ParameterControlType>
					<LowerBound>0</LowerBound>
					<UpperBound>4000</UpperBound>
					<value>-91445760000000000,100.,0,0,0,0,0,0</value>
					</parameter>
					<parameter authoringApp="PremierePro">
					<parameterid>8</parameterid>
					<name></name>
					<IsTimeVarying>false</IsTimeVarying>
					<ParameterControlType>2</ParameterControlType>
					<LowerBound>0</LowerBound>
					<UpperBound>100</UpperBound>
					<value>-91445760000000000,100.,0,0,0,0,0,0</value>
					</parameter>
					</effect>
					</filter>
					<logginginfo>
					<description></description>
					<scene></scene>
					<shottake></shottake>
					<lognote></lognote>
					<good></good>
					<originalvideofilename></originalvideofilename>
					<originalaudiofilename></originalaudiofilename>
					</logginginfo>
					<colorinfo>
					<lut></lut>
					<lut1></lut1>
					<asc_sop></asc_sop>
					<asc_sat></asc_sat>
					<lut2></lut2>
					</colorinfo>
					<labels>
					</labels>
					</clipitem>
					<clipitem frameBlend="FALSE" id="clipitem-580">
					<masterclipid>masterclip-500</masterclipid>
					<name></name>
					<enabled>TRUE</enabled>
					<duration>2582774</duration>
					<rate>
					
					                                    <timebase>60</timebase>
					                                    <ntsc>TRUE</ntsc>
					                                
					</rate>
					<start>4810</start>
					<end>4870</end>
					<in>4810</in>
					<out>4870</out>
					<pproTicksIn>914456774963789</pproTicksIn>
					<pproTicksOut>914677708529577</pproTicksOut>
					<alphatype>straight</alphatype>
					<pixelaspectratio>square</pixelaspectratio>
					<anamorphic>FALSE</anamorphic>
					<file id="file-499">
					<name></name>
					<mediaSource>GraphicAndType</mediaSource>
					<rate>
					<timebase>60</timebase>
					<ntsc>TRUE</ntsc>
					</rate>
					<timecode>
					<rate>
					<timebase>60</timebase>
					<ntsc>TRUE</ntsc>
					</rate>
					<string>00:00:00:00</string>
					<frame>0</frame>
					<displayformat>NDF</displayformat>
					</timecode>
					<media>
					<video>
					<samplecharacteristics>
					<rate>
					<timebase>60</timebase>
					<ntsc>TRUE</ntsc>
					</rate>
					<width>1080</width>
					<height>1920</height>
					<anamorphic>FALSE</anamorphic>
					<pixelaspectratio>square</pixelaspectratio>
					<fielddominance>none</fielddominance>
					</samplecharacteristics>
					</video>
					</media>
					</file>
					<filter>
					<effect>
					<name></name>
					<effectid>GraphicAndType</effectid>
					<effectcategory>graphic</effectcategory>
					<effecttype>filter</effecttype>
					<mediatype>video</mediatype>
					<pproBypass>false</pproBypass>
					<parameter authoringApp="PremierePro">
					<parameterid>1</parameterid>
					<name></name>
					<hash>025b1101-ead6-0ca2-1feb-caf3000001fc</hash>
					<value>5AEAAAAAAABEMyIRDAAAAAAABgAKAAQABgAAAGQAAAAAAF4ASAAQAAwARABAADwAOAAAAAAAAAAAADQAMwAsAAAAKAAkACAAAAAAAAAAAAAAAAAAHAAAAAAAGgAAAAAAAAAUAAAAAAAAAAAAAAAAAAAAAAAAAAgAAAAAABsABwBeAAAAAAAAAUAAAABQAAAAbAAAAAIAAAAAAAEAAQAAAAAAQEEAAMBAAABAQAAAyEIAAAABIAAAAAIAAAACAAAAAAA2QwCASkTw/v//9P7///j+//8S////AAAAAAEAAAAEAAAAEQAAAEhHUFNvZWlLYWt1cG9wdGFpAAAAAQAAAAwAAAAIAAwABAAIAAgAAAAIAAAAUAAAAA8AAADvvIEAAAAAAAAAAAAAAAAAAAA2ACQAAAAgABwAAAAAABsAFAAAAAAAAAAAAAAAAAAAAAAAAAAAABAAAAAAAAAADAAAAAgABAA2AAAAAgAAABwAAAAcAAAAHAAAAAAAIEEAAAABaAAAAE3PAEOw////tP///wEAAAAUAAAAEAAaAAgABwAMAAAAEAAUABAAAAAAAAABHAAAAAAAoEEcAAAAAgAAAAAACgAIAAUABgAHAAoAAAAADAD//P///wQABAAEAAAACAAIAAYABwAIAAAAAAAMAA==</value>
					</parameter>
					<parameter authoringApp="PremierePro">
					<parameterid>2</parameterid>
					<name></name>
					<IsTimeVarying>false</IsTimeVarying>
					<ParameterControlType>11</ParameterControlType>
					<LowerBound>false</LowerBound>
					<UpperBound>false</UpperBound>
					<value>-91445760000000000,false,0,0,0,0,0,0</value>
					</parameter>
					<parameter authoringApp="PremierePro">
					<parameterid>3</parameterid>
					<name></name>
					<IsTimeVarying>false</IsTimeVarying>
					<value>-91445760000000000,0.5:0.5,0,0,0,0,0,0,5,4,0,0,0,0</value>
					</parameter>
					<parameter authoringApp="PremierePro">
					<parameterid>4</parameterid>
					<name></name>
					<IsTimeVarying>false</IsTimeVarying>
					<ParameterControlType>2</ParameterControlType>
					<LowerBound>0</LowerBound>
					<UpperBound>4000</UpperBound>
					<value>-91445760000000000,100.,0,0,0,0,0,0</value>
					</parameter>
					<parameter authoringApp="PremierePro">
					<parameterid>8</parameterid>
					<name></name>
					<IsTimeVarying>false</IsTimeVarying>
					<ParameterControlType>2</ParameterControlType>
					<LowerBound>0</LowerBound>
					<UpperBound>100</UpperBound>
					<value>-91445760000000000,100.,0,0,0,0,0,0</value>
					</parameter>
					</effect>
					</filter>
					<logginginfo>
					<description></description>
					<scene></scene>
					<shottake></shottake>
					<lognote></lognote>
					<good></good>
					<originalvideofilename></originalvideofilename>
					<originalaudiofilename></originalaudiofilename>
					</logginginfo>
					<colorinfo>
					<lut></lut>
					<lut1></lut1>
					<asc_sop></asc_sop>
					<asc_sat></asc_sat>
					<lut2></lut2>
					</colorinfo>
					<labels>
					</labels>
					</clipitem>
					<clipitem frameBlend="FALSE" id="clipitem-588">
					<masterclipid>masterclip-508</masterclipid>
					<name></name>
					<enabled>TRUE</enabled>
					<duration>2582774</duration>
					<rate>
					
					                                    <timebase>60</timebase>
					                                    <ntsc>TRUE</ntsc>
					                                
					</rate>
					<start>4870</start>
					<end>4936</end>
					<in>4870</in>
					<out>4936</out>
					<pproTicksIn>914456774963789</pproTicksIn>
					<pproTicksOut>914677708529577</pproTicksOut>
					<alphatype>straight</alphatype>
					<pixelaspectratio>square</pixelaspectratio>
					<anamorphic>FALSE</anamorphic>
					<file id="file-507">
					<name></name>
					<mediaSource>GraphicAndType</mediaSource>
					<rate>
					<timebase>60</timebase>
					<ntsc>TRUE</ntsc>
					</rate>
					<timecode>
					<rate>
					<timebase>60</timebase>
					<ntsc>TRUE</ntsc>
					</rate>
					<string>00:00:00:00</string>
					<frame>0</frame>
					<displayformat>NDF</displayformat>
					</timecode>
					<media>
					<video>
					<samplecharacteristics>
					<rate>
					<timebase>60</timebase>
					<ntsc>TRUE</ntsc>
					</rate>
					<width>1080</width>
					<height>1920</height>
					<anamorphic>FALSE</anamorphic>
					<pixelaspectratio>square</pixelaspectratio>
					<fielddominance>none</fielddominance>
					</samplecharacteristics>
					</video>
					</media>
					</file>
					<filter>
					<effect>
					<name></name>
					<effectid>GraphicAndType</effectid>
					<effectcategory>graphic</effectcategory>
					<effecttype>filter</effecttype>
					<mediatype>video</mediatype>
					<pproBypass>false</pproBypass>
					<parameter authoringApp="PremierePro">
					<parameterid>1</parameterid>
					<name></name>
					<hash>025b1101-ead6-0ca2-1feb-caf3000001fc</hash>
					<value>5AEAAAAAAABEMyIRDAAAAAAABgAKAAQABgAAAGQAAAAAAF4ASAAQAAwARABAADwAOAAAAAAAAAAAADQAMwAsAAAAKAAkACAAAAAAAAAAAAAAAAAAHAAAAAAAGgAAAAAAAAAUAAAAAAAAAAAAAAAAAAAAAAAAAAgAAAAAABsABwBeAAAAAAAAAUAAAABQAAAAbAAAAAIAAAAAAAEAAQAAAAAAQEEAAMBAAABAQAAAyEIAAAABIAAAAAIAAAACAAAAAAA2QwCASkTw/v//9P7///j+//8S////AAAAAAEAAAAEAAAAEQAAAEhHUFNvZWlLYWt1cG9wdGFpAAAAAQAAAAwAAAAIAAwABAAIAAgAAAAIAAAAUAAAAA8AAADvvIEAAAAAAAAAAAAAAAAAAAA2ACQAAAAgABwAAAAAABsAFAAAAAAAAAAAAAAAAAAAAAAAAAAAABAAAAAAAAAADAAAAAgABAA2AAAAAgAAABwAAAAcAAAAHAAAAAAAIEEAAAABaAAAAE3PAEOw////tP///wEAAAAUAAAAEAAaAAgABwAMAAAAEAAUABAAAAAAAAABHAAAAAAAoEEcAAAAAgAAAAAACgAIAAUABgAHAAoAAAAADAD//P///wQABAAEAAAACAAIAAYABwAIAAAAAAAMAA==</value>
					</parameter>
					<parameter authoringApp="PremierePro">
					<parameterid>2</parameterid>
					<name></name>
					<IsTimeVarying>false</IsTimeVarying>
					<ParameterControlType>11</ParameterControlType>
					<LowerBound>false</LowerBound>
					<UpperBound>false</UpperBound>
					<value>-91445760000000000,false,0,0,0,0,0,0</value>
					</parameter>
					<parameter authoringApp="PremierePro">
					<parameterid>3</parameterid>
					<name></name>
					<IsTimeVarying>false</IsTimeVarying>
					<value>-91445760000000000,0.5:0.5,0,0,0,0,0,0,5,4,0,0,0,0</value>
					</parameter>
					<parameter authoringApp="PremierePro">
					<parameterid>4</parameterid>
					<name></name>
					<IsTimeVarying>false</IsTimeVarying>
					<ParameterControlType>2</ParameterControlType>
					<LowerBound>0</LowerBound>
					<UpperBound>4000</UpperBound>
					<value>-91445760000000000,100.,0,0,0,0,0,0</value>
					</parameter>
					<parameter authoringApp="PremierePro">
					<parameterid>8</parameterid>
					<name></name>
					<IsTimeVarying>false</IsTimeVarying>
					<ParameterControlType>2</ParameterControlType>
					<LowerBound>0</LowerBound>
					<UpperBound>100</UpperBound>
					<value>-91445760000000000,100.,0,0,0,0,0,0</value>
					</parameter>
					</effect>
					</filter>
					<logginginfo>
					<description></description>
					<scene></scene>
					<shottake></shottake>
					<lognote></lognote>
					<good></good>
					<originalvideofilename></originalvideofilename>
					<originalaudiofilename></originalaudiofilename>
					</logginginfo>
					<colorinfo>
					<lut></lut>
					<lut1></lut1>
					<asc_sop></asc_sop>
					<asc_sat></asc_sat>
					<lut2></lut2>
					</colorinfo>
					<labels>
					</labels>
					</clipitem>
					<clipitem frameBlend="FALSE" id="clipitem-594">
					<masterclipid>masterclip-514</masterclipid>
					<name></name>
					<enabled>TRUE</enabled>
					<duration>2582774</duration>
					<rate>
					
					                                    <timebase>60</timebase>
					                                    <ntsc>TRUE</ntsc>
					                                
					</rate>
					<start>4942</start>
					<end>5002</end>
					<in>4942</in>
					<out>5002</out>
					<pproTicksIn>914456774963789</pproTicksIn>
					<pproTicksOut>914677708529577</pproTicksOut>
					<alphatype>straight</alphatype>
					<pixelaspectratio>square</pixelaspectratio>
					<anamorphic>FALSE</anamorphic>
					<file id="file-513">
					<name></name>
					<mediaSource>GraphicAndType</mediaSource>
					<rate>
					<timebase>60</timebase>
					<ntsc>TRUE</ntsc>
					</rate>
					<timecode>
					<rate>
					<timebase>60</timebase>
					<ntsc>TRUE</ntsc>
					</rate>
					<string>00:00:00:00</string>
					<frame>0</frame>
					<displayformat>NDF</displayformat>
					</timecode>
					<media>
					<video>
					<samplecharacteristics>
					<rate>
					<timebase>60</timebase>
					<ntsc>TRUE</ntsc>
					</rate>
					<width>1080</width>
					<height>1920</height>
					<anamorphic>FALSE</anamorphic>
					<pixelaspectratio>square</pixelaspectratio>
					<fielddominance>none</fielddominance>
					</samplecharacteristics>
					</video>
					</media>
					</file>
					<filter>
					<effect>
					<name></name>
					<effectid>GraphicAndType</effectid>
					<effectcategory>graphic</effectcategory>
					<effecttype>filter</effecttype>
					<mediatype>video</mediatype>
					<pproBypass>false</pproBypass>
					<parameter authoringApp="PremierePro">
					<parameterid>1</parameterid>
					<name></name>
					<hash>025b1101-ead6-0ca2-1feb-caf3000001fc</hash>
					<value>5AEAAAAAAABEMyIRDAAAAAAABgAKAAQABgAAAGQAAAAAAF4ASAAQAAwARABAADwAOAAAAAAAAAAAADQAMwAsAAAAKAAkACAAAAAAAAAAAAAAAAAAHAAAAAAAGgAAAAAAAAAUAAAAAAAAAAAAAAAAAAAAAAAAAAgAAAAAABsABwBeAAAAAAAAAUAAAABQAAAAbAAAAAIAAAAAAAEAAQAAAAAAQEEAAMBAAABAQAAAyEIAAAABIAAAAAIAAAACAAAAAAA2QwCASkTw/v//9P7///j+//8S////AAAAAAEAAAAEAAAAEQAAAEhHUFNvZWlLYWt1cG9wdGFpAAAAAQAAAAwAAAAIAAwABAAIAAgAAAAIAAAAUAAAAA8AAADvvIEAAAAAAAAAAAAAAAAAAAA2ACQAAAAgABwAAAAAABsAFAAAAAAAAAAAAAAAAAAAAAAAAAAAABAAAAAAAAAADAAAAAgABAA2AAAAAgAAABwAAAAcAAAAHAAAAAAAIEEAAAABaAAAAE3PAEOw////tP///wEAAAAUAAAAEAAaAAgABwAMAAAAEAAUABAAAAAAAAABHAAAAAAAoEEcAAAAAgAAAAAACgAIAAUABgAHAAoAAAAADAD//P///wQABAAEAAAACAAIAAYABwAIAAAAAAAMAA==</value>
					</parameter>
					<parameter authoringApp="PremierePro">
					<parameterid>2</parameterid>
					<name></name>
					<IsTimeVarying>false</IsTimeVarying>
					<ParameterControlType>11</ParameterControlType>
					<LowerBound>false</LowerBound>
					<UpperBound>false</UpperBound>
					<value>-91445760000000000,false,0,0,0,0,0,0</value>
					</parameter>
					<parameter authoringApp="PremierePro">
					<parameterid>3</parameterid>
					<name></name>
					<IsTimeVarying>false</IsTimeVarying>
					<value>-91445760000000000,0.5:0.5,0,0,0,0,0,0,5,4,0,0,0,0</value>
					</parameter>
					<parameter authoringApp="PremierePro">
					<parameterid>4</parameterid>
					<name></name>
					<IsTimeVarying>false</IsTimeVarying>
					<ParameterControlType>2</ParameterControlType>
					<LowerBound>0</LowerBound>
					<UpperBound>4000</UpperBound>
					<value>-91445760000000000,100.,0,0,0,0,0,0</value>
					</parameter>
					<parameter authoringApp="PremierePro">
					<parameterid>8</parameterid>
					<name></name>
					<IsTimeVarying>false</IsTimeVarying>
					<ParameterControlType>2</ParameterControlType>
					<LowerBound>0</LowerBound>
					<UpperBound>100</UpperBound>
					<value>-91445760000000000,100.,0,0,0,0,0,0</value>
					</parameter>
					</effect>
					</filter>
					<logginginfo>
					<description></description>
					<scene></scene>
					<shottake></shottake>
					<lognote></lognote>
					<good></good>
					<originalvideofilename></originalvideofilename>
					<originalaudiofilename></originalaudiofilename>
					</logginginfo>
					<colorinfo>
					<lut></lut>
					<lut1></lut1>
					<asc_sop></asc_sop>
					<asc_sat></asc_sat>
					<lut2></lut2>
					</colorinfo>
					<labels>
					</labels>
					</clipitem>
					<clipitem frameBlend="FALSE" id="clipitem-599">
					<masterclipid>masterclip-519</masterclipid>
					<name></name>
					<enabled>TRUE</enabled>
					<duration>2582774</duration>
					<rate>
					
					                                    <timebase>60</timebase>
					                                    <ntsc>TRUE</ntsc>
					                                
					</rate>
					<start>5008</start>
					<end>5068</end>
					<in>5008</in>
					<out>5068</out>
					<pproTicksIn>914456774963789</pproTicksIn>
					<pproTicksOut>914677708529577</pproTicksOut>
					<alphatype>straight</alphatype>
					<pixelaspectratio>square</pixelaspectratio>
					<anamorphic>FALSE</anamorphic>
					<file id="file-518">
					<name></name>
					<mediaSource>GraphicAndType</mediaSource>
					<rate>
					<timebase>60</timebase>
					<ntsc>TRUE</ntsc>
					</rate>
					<timecode>
					<rate>
					<timebase>60</timebase>
					<ntsc>TRUE</ntsc>
					</rate>
					<string>00:00:00:00</string>
					<frame>0</frame>
					<displayformat>NDF</displayformat>
					</timecode>
					<media>
					<video>
					<samplecharacteristics>
					<rate>
					<timebase>60</timebase>
					<ntsc>TRUE</ntsc>
					</rate>
					<width>1080</width>
					<height>1920</height>
					<anamorphic>FALSE</anamorphic>
					<pixelaspectratio>square</pixelaspectratio>
					<fielddominance>none</fielddominance>
					</samplecharacteristics>
					</video>
					</media>
					</file>
					<filter>
					<effect>
					<name></name>
					<effectid>GraphicAndType</effectid>
					<effectcategory>graphic</effectcategory>
					<effecttype>filter</effecttype>
					<mediatype>video</mediatype>
					<pproBypass>false</pproBypass>
					<parameter authoringApp="PremierePro">
					<parameterid>1</parameterid>
					<name></name>
					<hash>025b1101-ead6-0ca2-1feb-caf3000001fc</hash>
					<value>5AEAAAAAAABEMyIRDAAAAAAABgAKAAQABgAAAGQAAAAAAF4ASAAQAAwARABAADwAOAAAAAAAAAAAADQAMwAsAAAAKAAkACAAAAAAAAAAAAAAAAAAHAAAAAAAGgAAAAAAAAAUAAAAAAAAAAAAAAAAAAAAAAAAAAgAAAAAABsABwBeAAAAAAAAAUAAAABQAAAAbAAAAAIAAAAAAAEAAQAAAAAAQEEAAMBAAABAQAAAyEIAAAABIAAAAAIAAAACAAAAAAA2QwCASkTw/v//9P7///j+//8S////AAAAAAEAAAAEAAAAEQAAAEhHUFNvZWlLYWt1cG9wdGFpAAAAAQAAAAwAAAAIAAwABAAIAAgAAAAIAAAAUAAAAA8AAADvvIEAAAAAAAAAAAAAAAAAAAA2ACQAAAAgABwAAAAAABsAFAAAAAAAAAAAAAAAAAAAAAAAAAAAABAAAAAAAAAADAAAAAgABAA2AAAAAgAAABwAAAAcAAAAHAAAAAAAIEEAAAABaAAAAE3PAEOw////tP///wEAAAAUAAAAEAAaAAgABwAMAAAAEAAUABAAAAAAAAABHAAAAAAAoEEcAAAAAgAAAAAACgAIAAUABgAHAAoAAAAADAD//P///wQABAAEAAAACAAIAAYABwAIAAAAAAAMAA==</value>
					</parameter>
					<parameter authoringApp="PremierePro">
					<parameterid>2</parameterid>
					<name></name>
					<IsTimeVarying>false</IsTimeVarying>
					<ParameterControlType>11</ParameterControlType>
					<LowerBound>false</LowerBound>
					<UpperBound>false</UpperBound>
					<value>-91445760000000000,false,0,0,0,0,0,0</value>
					</parameter>
					<parameter authoringApp="PremierePro">
					<parameterid>3</parameterid>
					<name></name>
					<IsTimeVarying>false</IsTimeVarying>
					<value>-91445760000000000,0.5:0.5,0,0,0,0,0,0,5,4,0,0,0,0</value>
					</parameter>
					<parameter authoringApp="PremierePro">
					<parameterid>4</parameterid>
					<name></name>
					<IsTimeVarying>false</IsTimeVarying>
					<ParameterControlType>2</ParameterControlType>
					<LowerBound>0</LowerBound>
					<UpperBound>4000</UpperBound>
					<value>-91445760000000000,100.,0,0,0,0,0,0</value>
					</parameter>
					<parameter authoringApp="PremierePro">
					<parameterid>8</parameterid>
					<name></name>
					<IsTimeVarying>false</IsTimeVarying>
					<ParameterControlType>2</ParameterControlType>
					<LowerBound>0</LowerBound>
					<UpperBound>100</UpperBound>
					<value>-91445760000000000,100.,0,0,0,0,0,0</value>
					</parameter>
					</effect>
					</filter>
					<logginginfo>
					<description></description>
					<scene></scene>
					<shottake></shottake>
					<lognote></lognote>
					<good></good>
					<originalvideofilename></originalvideofilename>
					<originalaudiofilename></originalaudiofilename>
					</logginginfo>
					<colorinfo>
					<lut></lut>
					<lut1></lut1>
					<asc_sop></asc_sop>
					<asc_sat></asc_sat>
					<lut2></lut2>
					</colorinfo>
					<labels>
					</labels>
					</clipitem>
					<clipitem frameBlend="FALSE" id="clipitem-605">
					<masterclipid>masterclip-525</masterclipid>
					<name></name>
					<enabled>TRUE</enabled>
					<duration>2582774</duration>
					<rate>
					
					                                    <timebase>60</timebase>
					                                    <ntsc>TRUE</ntsc>
					                                
					</rate>
					<start>5092</start>
					<end>5152</end>
					<in>5092</in>
					<out>5152</out>
					<pproTicksIn>914456774963789</pproTicksIn>
					<pproTicksOut>914677708529577</pproTicksOut>
					<alphatype>straight</alphatype>
					<pixelaspectratio>square</pixelaspectratio>
					<anamorphic>FALSE</anamorphic>
					<file id="file-524">
					<name></name>
					<mediaSource>GraphicAndType</mediaSource>
					<rate>
					<timebase>60</timebase>
					<ntsc>TRUE</ntsc>
					</rate>
					<timecode>
					<rate>
					<timebase>60</timebase>
					<ntsc>TRUE</ntsc>
					</rate>
					<string>00:00:00:00</string>
					<frame>0</frame>
					<displayformat>NDF</displayformat>
					</timecode>
					<media>
					<video>
					<samplecharacteristics>
					<rate>
					<timebase>60</timebase>
					<ntsc>TRUE</ntsc>
					</rate>
					<width>1080</width>
					<height>1920</height>
					<anamorphic>FALSE</anamorphic>
					<pixelaspectratio>square</pixelaspectratio>
					<fielddominance>none</fielddominance>
					</samplecharacteristics>
					</video>
					</media>
					</file>
					<filter>
					<effect>
					<name></name>
					<effectid>GraphicAndType</effectid>
					<effectcategory>graphic</effectcategory>
					<effecttype>filter</effecttype>
					<mediatype>video</mediatype>
					<pproBypass>false</pproBypass>
					<parameter authoringApp="PremierePro">
					<parameterid>1</parameterid>
					<name></name>
					<hash>025b1101-ead6-0ca2-1feb-caf3000001fc</hash>
					<value>5AEAAAAAAABEMyIRDAAAAAAABgAKAAQABgAAAGQAAAAAAF4ASAAQAAwARABAADwAOAAAAAAAAAAAADQAMwAsAAAAKAAkACAAAAAAAAAAAAAAAAAAHAAAAAAAGgAAAAAAAAAUAAAAAAAAAAAAAAAAAAAAAAAAAAgAAAAAABsABwBeAAAAAAAAAUAAAABQAAAAbAAAAAIAAAAAAAEAAQAAAAAAQEEAAMBAAABAQAAAyEIAAAABIAAAAAIAAAACAAAAAAA2QwCASkTw/v//9P7///j+//8S////AAAAAAEAAAAEAAAAEQAAAEhHUFNvZWlLYWt1cG9wdGFpAAAAAQAAAAwAAAAIAAwABAAIAAgAAAAIAAAAUAAAAA8AAADvvIEAAAAAAAAAAAAAAAAAAAA2ACQAAAAgABwAAAAAABsAFAAAAAAAAAAAAAAAAAAAAAAAAAAAABAAAAAAAAAADAAAAAgABAA2AAAAAgAAABwAAAAcAAAAHAAAAAAAIEEAAAABaAAAAE3PAEOw////tP///wEAAAAUAAAAEAAaAAgABwAMAAAAEAAUABAAAAAAAAABHAAAAAAAoEEcAAAAAgAAAAAACgAIAAUABgAHAAoAAAAADAD//P///wQABAAEAAAACAAIAAYABwAIAAAAAAAMAA==</value>
					</parameter>
					<parameter authoringApp="PremierePro">
					<parameterid>2</parameterid>
					<name></name>
					<IsTimeVarying>false</IsTimeVarying>
					<ParameterControlType>11</ParameterControlType>
					<LowerBound>false</LowerBound>
					<UpperBound>false</UpperBound>
					<value>-91445760000000000,false,0,0,0,0,0,0</value>
					</parameter>
					<parameter authoringApp="PremierePro">
					<parameterid>3</parameterid>
					<name></name>
					<IsTimeVarying>false</IsTimeVarying>
					<value>-91445760000000000,0.5:0.5,0,0,0,0,0,0,5,4,0,0,0,0</value>
					</parameter>
					<parameter authoringApp="PremierePro">
					<parameterid>4</parameterid>
					<name></name>
					<IsTimeVarying>false</IsTimeVarying>
					<ParameterControlType>2</ParameterControlType>
					<LowerBound>0</LowerBound>
					<UpperBound>4000</UpperBound>
					<value>-91445760000000000,100.,0,0,0,0,0,0</value>
					</parameter>
					<parameter authoringApp="PremierePro">
					<parameterid>8</parameterid>
					<name></name>
					<IsTimeVarying>false</IsTimeVarying>
					<ParameterControlType>2</ParameterControlType>
					<LowerBound>0</LowerBound>
					<UpperBound>100</UpperBound>
					<value>-91445760000000000,100.,0,0,0,0,0,0</value>
					</parameter>
					</effect>
					</filter>
					<logginginfo>
					<description></description>
					<scene></scene>
					<shottake></shottake>
					<lognote></lognote>
					<good></good>
					<originalvideofilename></originalvideofilename>
					<originalaudiofilename></originalaudiofilename>
					</logginginfo>
					<colorinfo>
					<lut></lut>
					<lut1></lut1>
					<asc_sop></asc_sop>
					<asc_sat></asc_sat>
					<lut2></lut2>
					</colorinfo>
					<labels>
					</labels>
					</clipitem>
					<clipitem frameBlend="FALSE" id="clipitem-613">
					<masterclipid>masterclip-533</masterclipid>
					<name></name>
					<enabled>TRUE</enabled>
					<duration>2582774</duration>
					<rate>
					
					                                    <timebase>60</timebase>
					                                    <ntsc>TRUE</ntsc>
					                                
					</rate>
					<start>5164</start>
					<end>5224</end>
					<in>5164</in>
					<out>5224</out>
					<pproTicksIn>914456774963789</pproTicksIn>
					<pproTicksOut>914677708529577</pproTicksOut>
					<alphatype>straight</alphatype>
					<pixelaspectratio>square</pixelaspectratio>
					<anamorphic>FALSE</anamorphic>
					<file id="file-532">
					<name></name>
					<mediaSource>GraphicAndType</mediaSource>
					<rate>
					<timebase>60</timebase>
					<ntsc>TRUE</ntsc>
					</rate>
					<timecode>
					<rate>
					<timebase>60</timebase>
					<ntsc>TRUE</ntsc>
					</rate>
					<string>00:00:00:00</string>
					<frame>0</frame>
					<displayformat>NDF</displayformat>
					</timecode>
					<media>
					<video>
					<samplecharacteristics>
					<rate>
					<timebase>60</timebase>
					<ntsc>TRUE</ntsc>
					</rate>
					<width>1080</width>
					<height>1920</height>
					<anamorphic>FALSE</anamorphic>
					<pixelaspectratio>square</pixelaspectratio>
					<fielddominance>none</fielddominance>
					</samplecharacteristics>
					</video>
					</media>
					</file>
					<filter>
					<effect>
					<name></name>
					<effectid>GraphicAndType</effectid>
					<effectcategory>graphic</effectcategory>
					<effecttype>filter</effecttype>
					<mediatype>video</mediatype>
					<pproBypass>false</pproBypass>
					<parameter authoringApp="PremierePro">
					<parameterid>1</parameterid>
					<name></name>
					<hash>025b1101-ead6-0ca2-1feb-caf3000001fc</hash>
					<value>5AEAAAAAAABEMyIRDAAAAAAABgAKAAQABgAAAGQAAAAAAF4ASAAQAAwARABAADwAOAAAAAAAAAAAADQAMwAsAAAAKAAkACAAAAAAAAAAAAAAAAAAHAAAAAAAGgAAAAAAAAAUAAAAAAAAAAAAAAAAAAAAAAAAAAgAAAAAABsABwBeAAAAAAAAAUAAAABQAAAAbAAAAAIAAAAAAAEAAQAAAAAAQEEAAMBAAABAQAAAyEIAAAABIAAAAAIAAAACAAAAAAA2QwCASkTw/v//9P7///j+//8S////AAAAAAEAAAAEAAAAEQAAAEhHUFNvZWlLYWt1cG9wdGFpAAAAAQAAAAwAAAAIAAwABAAIAAgAAAAIAAAAUAAAAA8AAADvvIEAAAAAAAAAAAAAAAAAAAA2ACQAAAAgABwAAAAAABsAFAAAAAAAAAAAAAAAAAAAAAAAAAAAABAAAAAAAAAADAAAAAgABAA2AAAAAgAAABwAAAAcAAAAHAAAAAAAIEEAAAABaAAAAE3PAEOw////tP///wEAAAAUAAAAEAAaAAgABwAMAAAAEAAUABAAAAAAAAABHAAAAAAAoEEcAAAAAgAAAAAACgAIAAUABgAHAAoAAAAADAD//P///wQABAAEAAAACAAIAAYABwAIAAAAAAAMAA==</value>
					</parameter>
					<parameter authoringApp="PremierePro">
					<parameterid>2</parameterid>
					<name></name>
					<IsTimeVarying>false</IsTimeVarying>
					<ParameterControlType>11</ParameterControlType>
					<LowerBound>false</LowerBound>
					<UpperBound>false</UpperBound>
					<value>-91445760000000000,false,0,0,0,0,0,0</value>
					</parameter>
					<parameter authoringApp="PremierePro">
					<parameterid>3</parameterid>
					<name></name>
					<IsTimeVarying>false</IsTimeVarying>
					<value>-91445760000000000,0.5:0.5,0,0,0,0,0,0,5,4,0,0,0,0</value>
					</parameter>
					<parameter authoringApp="PremierePro">
					<parameterid>4</parameterid>
					<name></name>
					<IsTimeVarying>false</IsTimeVarying>
					<ParameterControlType>2</ParameterControlType>
					<LowerBound>0</LowerBound>
					<UpperBound>4000</UpperBound>
					<value>-91445760000000000,100.,0,0,0,0,0,0</value>
					</parameter>
					<parameter authoringApp="PremierePro">
					<parameterid>8</parameterid>
					<name></name>
					<IsTimeVarying>false</IsTimeVarying>
					<ParameterControlType>2</ParameterControlType>
					<LowerBound>0</LowerBound>
					<UpperBound>100</UpperBound>
					<value>-91445760000000000,100.,0,0,0,0,0,0</value>
					</parameter>
					</effect>
					</filter>
					<logginginfo>
					<description></description>
					<scene></scene>
					<shottake></shottake>
					<lognote></lognote>
					<good></good>
					<originalvideofilename></originalvideofilename>
					<originalaudiofilename></originalaudiofilename>
					</logginginfo>
					<colorinfo>
					<lut></lut>
					<lut1></lut1>
					<asc_sop></asc_sop>
					<asc_sat></asc_sat>
					<lut2></lut2>
					</colorinfo>
					<labels>
					</labels>
					</clipitem>
					<clipitem frameBlend="FALSE" id="clipitem-617">
					<masterclipid>masterclip-537</masterclipid>
					<name></name>
					<enabled>TRUE</enabled>
					<duration>2582774</duration>
					<rate>
					
					                                    <timebase>60</timebase>
					                                    <ntsc>TRUE</ntsc>
					                                
					</rate>
					<start>5236</start>
					<end>5296</end>
					<in>5236</in>
					<out>5296</out>
					<pproTicksIn>914456774963789</pproTicksIn>
					<pproTicksOut>914677708529577</pproTicksOut>
					<alphatype>straight</alphatype>
					<pixelaspectratio>square</pixelaspectratio>
					<anamorphic>FALSE</anamorphic>
					<file id="file-536">
					<name></name>
					<mediaSource>GraphicAndType</mediaSource>
					<rate>
					<timebase>60</timebase>
					<ntsc>TRUE</ntsc>
					</rate>
					<timecode>
					<rate>
					<timebase>60</timebase>
					<ntsc>TRUE</ntsc>
					</rate>
					<string>00:00:00:00</string>
					<frame>0</frame>
					<displayformat>NDF</displayformat>
					</timecode>
					<media>
					<video>
					<samplecharacteristics>
					<rate>
					<timebase>60</timebase>
					<ntsc>TRUE</ntsc>
					</rate>
					<width>1080</width>
					<height>1920</height>
					<anamorphic>FALSE</anamorphic>
					<pixelaspectratio>square</pixelaspectratio>
					<fielddominance>none</fielddominance>
					</samplecharacteristics>
					</video>
					</media>
					</file>
					<filter>
					<effect>
					<name></name>
					<effectid>GraphicAndType</effectid>
					<effectcategory>graphic</effectcategory>
					<effecttype>filter</effecttype>
					<mediatype>video</mediatype>
					<pproBypass>false</pproBypass>
					<parameter authoringApp="PremierePro">
					<parameterid>1</parameterid>
					<name></name>
					<hash>025b1101-ead6-0ca2-1feb-caf3000001fc</hash>
					<value>5AEAAAAAAABEMyIRDAAAAAAABgAKAAQABgAAAGQAAAAAAF4ASAAQAAwARABAADwAOAAAAAAAAAAAADQAMwAsAAAAKAAkACAAAAAAAAAAAAAAAAAAHAAAAAAAGgAAAAAAAAAUAAAAAAAAAAAAAAAAAAAAAAAAAAgAAAAAABsABwBeAAAAAAAAAUAAAABQAAAAbAAAAAIAAAAAAAEAAQAAAAAAQEEAAMBAAABAQAAAyEIAAAABIAAAAAIAAAACAAAAAAA2QwCASkTw/v//9P7///j+//8S////AAAAAAEAAAAEAAAAEQAAAEhHUFNvZWlLYWt1cG9wdGFpAAAAAQAAAAwAAAAIAAwABAAIAAgAAAAIAAAAUAAAAA8AAADvvIEAAAAAAAAAAAAAAAAAAAA2ACQAAAAgABwAAAAAABsAFAAAAAAAAAAAAAAAAAAAAAAAAAAAABAAAAAAAAAADAAAAAgABAA2AAAAAgAAABwAAAAcAAAAHAAAAAAAIEEAAAABaAAAAE3PAEOw////tP///wEAAAAUAAAAEAAaAAgABwAMAAAAEAAUABAAAAAAAAABHAAAAAAAoEEcAAAAAgAAAAAACgAIAAUABgAHAAoAAAAADAD//P///wQABAAEAAAACAAIAAYABwAIAAAAAAAMAA==</value>
					</parameter>
					<parameter authoringApp="PremierePro">
					<parameterid>2</parameterid>
					<name></name>
					<IsTimeVarying>false</IsTimeVarying>
					<ParameterControlType>11</ParameterControlType>
					<LowerBound>false</LowerBound>
					<UpperBound>false</UpperBound>
					<value>-91445760000000000,false,0,0,0,0,0,0</value>
					</parameter>
					<parameter authoringApp="PremierePro">
					<parameterid>3</parameterid>
					<name></name>
					<IsTimeVarying>false</IsTimeVarying>
					<value>-91445760000000000,0.5:0.5,0,0,0,0,0,0,5,4,0,0,0,0</value>
					</parameter>
					<parameter authoringApp="PremierePro">
					<parameterid>4</parameterid>
					<name></name>
					<IsTimeVarying>false</IsTimeVarying>
					<ParameterControlType>2</ParameterControlType>
					<LowerBound>0</LowerBound>
					<UpperBound>4000</UpperBound>
					<value>-91445760000000000,100.,0,0,0,0,0,0</value>
					</parameter>
					<parameter authoringApp="PremierePro">
					<parameterid>8</parameterid>
					<name></name>
					<IsTimeVarying>false</IsTimeVarying>
					<ParameterControlType>2</ParameterControlType>
					<LowerBound>0</LowerBound>
					<UpperBound>100</UpperBound>
					<value>-91445760000000000,100.,0,0,0,0,0,0</value>
					</parameter>
					</effect>
					</filter>
					<logginginfo>
					<description></description>
					<scene></scene>
					<shottake></shottake>
					<lognote></lognote>
					<good></good>
					<originalvideofilename></originalvideofilename>
					<originalaudiofilename></originalaudiofilename>
					</logginginfo>
					<colorinfo>
					<lut></lut>
					<lut1></lut1>
					<asc_sop></asc_sop>
					<asc_sat></asc_sat>
					<lut2></lut2>
					</colorinfo>
					<labels>
					</labels>
					</clipitem>
					<clipitem frameBlend="FALSE" id="clipitem-624">
					<masterclipid>masterclip-544</masterclipid>
					<name></name>
					<enabled>TRUE</enabled>
					<duration>2582774</duration>
					<rate>
					
					                                    <timebase>60</timebase>
					                                    <ntsc>TRUE</ntsc>
					                                
					</rate>
					<start>5296</start>
					<end>5356</end>
					<in>5296</in>
					<out>5356</out>
					<pproTicksIn>914456774963789</pproTicksIn>
					<pproTicksOut>914677708529577</pproTicksOut>
					<alphatype>straight</alphatype>
					<pixelaspectratio>square</pixelaspectratio>
					<anamorphic>FALSE</anamorphic>
					<file id="file-543">
					<name></name>
					<mediaSource>GraphicAndType</mediaSource>
					<rate>
					<timebase>60</timebase>
					<ntsc>TRUE</ntsc>
					</rate>
					<timecode>
					<rate>
					<timebase>60</timebase>
					<ntsc>TRUE</ntsc>
					</rate>
					<string>00:00:00:00</string>
					<frame>0</frame>
					<displayformat>NDF</displayformat>
					</timecode>
					<media>
					<video>
					<samplecharacteristics>
					<rate>
					<timebase>60</timebase>
					<ntsc>TRUE</ntsc>
					</rate>
					<width>1080</width>
					<height>1920</height>
					<anamorphic>FALSE</anamorphic>
					<pixelaspectratio>square</pixelaspectratio>
					<fielddominance>none</fielddominance>
					</samplecharacteristics>
					</video>
					</media>
					</file>
					<filter>
					<effect>
					<name></name>
					<effectid>GraphicAndType</effectid>
					<effectcategory>graphic</effectcategory>
					<effecttype>filter</effecttype>
					<mediatype>video</mediatype>
					<pproBypass>false</pproBypass>
					<parameter authoringApp="PremierePro">
					<parameterid>1</parameterid>
					<name></name>
					<hash>025b1101-ead6-0ca2-1feb-caf3000001fc</hash>
					<value>5AEAAAAAAABEMyIRDAAAAAAABgAKAAQABgAAAGQAAAAAAF4ASAAQAAwARABAADwAOAAAAAAAAAAAADQAMwAsAAAAKAAkACAAAAAAAAAAAAAAAAAAHAAAAAAAGgAAAAAAAAAUAAAAAAAAAAAAAAAAAAAAAAAAAAgAAAAAABsABwBeAAAAAAAAAUAAAABQAAAAbAAAAAIAAAAAAAEAAQAAAAAAQEEAAMBAAABAQAAAyEIAAAABIAAAAAIAAAACAAAAAAA2QwCASkTw/v//9P7///j+//8S////AAAAAAEAAAAEAAAAEQAAAEhHUFNvZWlLYWt1cG9wdGFpAAAAAQAAAAwAAAAIAAwABAAIAAgAAAAIAAAAUAAAAA8AAADvvIEAAAAAAAAAAAAAAAAAAAA2ACQAAAAgABwAAAAAABsAFAAAAAAAAAAAAAAAAAAAAAAAAAAAABAAAAAAAAAADAAAAAgABAA2AAAAAgAAABwAAAAcAAAAHAAAAAAAIEEAAAABaAAAAE3PAEOw////tP///wEAAAAUAAAAEAAaAAgABwAMAAAAEAAUABAAAAAAAAABHAAAAAAAoEEcAAAAAgAAAAAACgAIAAUABgAHAAoAAAAADAD//P///wQABAAEAAAACAAIAAYABwAIAAAAAAAMAA==</value>
					</parameter>
					<parameter authoringApp="PremierePro">
					<parameterid>2</parameterid>
					<name></name>
					<IsTimeVarying>false</IsTimeVarying>
					<ParameterControlType>11</ParameterControlType>
					<LowerBound>false</LowerBound>
					<UpperBound>false</UpperBound>
					<value>-91445760000000000,false,0,0,0,0,0,0</value>
					</parameter>
					<parameter authoringApp="PremierePro">
					<parameterid>3</parameterid>
					<name></name>
					<IsTimeVarying>false</IsTimeVarying>
					<value>-91445760000000000,0.5:0.5,0,0,0,0,0,0,5,4,0,0,0,0</value>
					</parameter>
					<parameter authoringApp="PremierePro">
					<parameterid>4</parameterid>
					<name></name>
					<IsTimeVarying>false</IsTimeVarying>
					<ParameterControlType>2</ParameterControlType>
					<LowerBound>0</LowerBound>
					<UpperBound>4000</UpperBound>
					<value>-91445760000000000,100.,0,0,0,0,0,0</value>
					</parameter>
					<parameter authoringApp="PremierePro">
					<parameterid>8</parameterid>
					<name></name>
					<IsTimeVarying>false</IsTimeVarying>
					<ParameterControlType>2</ParameterControlType>
					<LowerBound>0</LowerBound>
					<UpperBound>100</UpperBound>
					<value>-91445760000000000,100.,0,0,0,0,0,0</value>
					</parameter>
					</effect>
					</filter>
					<logginginfo>
					<description></description>
					<scene></scene>
					<shottake></shottake>
					<lognote></lognote>
					<good></good>
					<originalvideofilename></originalvideofilename>
					<originalaudiofilename></originalaudiofilename>
					</logginginfo>
					<colorinfo>
					<lut></lut>
					<lut1></lut1>
					<asc_sop></asc_sop>
					<asc_sat></asc_sat>
					<lut2></lut2>
					</colorinfo>
					<labels>
					</labels>
					</clipitem>
					<clipitem frameBlend="FALSE" id="clipitem-632">
					<masterclipid>masterclip-552</masterclipid>
					<name></name>
					<enabled>TRUE</enabled>
					<duration>2582774</duration>
					<rate>
					
					                                    <timebase>60</timebase>
					                                    <ntsc>TRUE</ntsc>
					                                
					</rate>
					<start>5398</start>
					<end>5458</end>
					<in>5398</in>
					<out>5458</out>
					<pproTicksIn>914456774963789</pproTicksIn>
					<pproTicksOut>914677708529577</pproTicksOut>
					<alphatype>straight</alphatype>
					<pixelaspectratio>square</pixelaspectratio>
					<anamorphic>FALSE</anamorphic>
					<file id="file-551">
					<name></name>
					<mediaSource>GraphicAndType</mediaSource>
					<rate>
					<timebase>60</timebase>
					<ntsc>TRUE</ntsc>
					</rate>
					<timecode>
					<rate>
					<timebase>60</timebase>
					<ntsc>TRUE</ntsc>
					</rate>
					<string>00:00:00:00</string>
					<frame>0</frame>
					<displayformat>NDF</displayformat>
					</timecode>
					<media>
					<video>
					<samplecharacteristics>
					<rate>
					<timebase>60</timebase>
					<ntsc>TRUE</ntsc>
					</rate>
					<width>1080</width>
					<height>1920</height>
					<anamorphic>FALSE</anamorphic>
					<pixelaspectratio>square</pixelaspectratio>
					<fielddominance>none</fielddominance>
					</samplecharacteristics>
					</video>
					</media>
					</file>
					<filter>
					<effect>
					<name></name>
					<effectid>GraphicAndType</effectid>
					<effectcategory>graphic</effectcategory>
					<effecttype>filter</effecttype>
					<mediatype>video</mediatype>
					<pproBypass>false</pproBypass>
					<parameter authoringApp="PremierePro">
					<parameterid>1</parameterid>
					<name></name>
					<hash>025b1101-ead6-0ca2-1feb-caf3000001fc</hash>
					<value>5AEAAAAAAABEMyIRDAAAAAAABgAKAAQABgAAAGQAAAAAAF4ASAAQAAwARABAADwAOAAAAAAAAAAAADQAMwAsAAAAKAAkACAAAAAAAAAAAAAAAAAAHAAAAAAAGgAAAAAAAAAUAAAAAAAAAAAAAAAAAAAAAAAAAAgAAAAAABsABwBeAAAAAAAAAUAAAABQAAAAbAAAAAIAAAAAAAEAAQAAAAAAQEEAAMBAAABAQAAAyEIAAAABIAAAAAIAAAACAAAAAAA2QwCASkTw/v//9P7///j+//8S////AAAAAAEAAAAEAAAAEQAAAEhHUFNvZWlLYWt1cG9wdGFpAAAAAQAAAAwAAAAIAAwABAAIAAgAAAAIAAAAUAAAAA8AAADvvIEAAAAAAAAAAAAAAAAAAAA2ACQAAAAgABwAAAAAABsAFAAAAAAAAAAAAAAAAAAAAAAAAAAAABAAAAAAAAAADAAAAAgABAA2AAAAAgAAABwAAAAcAAAAHAAAAAAAIEEAAAABaAAAAE3PAEOw////tP///wEAAAAUAAAAEAAaAAgABwAMAAAAEAAUABAAAAAAAAABHAAAAAAAoEEcAAAAAgAAAAAACgAIAAUABgAHAAoAAAAADAD//P///wQABAAEAAAACAAIAAYABwAIAAAAAAAMAA==</value>
					</parameter>
					<parameter authoringApp="PremierePro">
					<parameterid>2</parameterid>
					<name></name>
					<IsTimeVarying>false</IsTimeVarying>
					<ParameterControlType>11</ParameterControlType>
					<LowerBound>false</LowerBound>
					<UpperBound>false</UpperBound>
					<value>-91445760000000000,false,0,0,0,0,0,0</value>
					</parameter>
					<parameter authoringApp="PremierePro">
					<parameterid>3</parameterid>
					<name></name>
					<IsTimeVarying>false</IsTimeVarying>
					<value>-91445760000000000,0.5:0.5,0,0,0,0,0,0,5,4,0,0,0,0</value>
					</parameter>
					<parameter authoringApp="PremierePro">
					<parameterid>4</parameterid>
					<name></name>
					<IsTimeVarying>false</IsTimeVarying>
					<ParameterControlType>2</ParameterControlType>
					<LowerBound>0</LowerBound>
					<UpperBound>4000</UpperBound>
					<value>-91445760000000000,100.,0,0,0,0,0,0</value>
					</parameter>
					<parameter authoringApp="PremierePro">
					<parameterid>8</parameterid>
					<name></name>
					<IsTimeVarying>false</IsTimeVarying>
					<ParameterControlType>2</ParameterControlType>
					<LowerBound>0</LowerBound>
					<UpperBound>100</UpperBound>
					<value>-91445760000000000,100.,0,0,0,0,0,0</value>
					</parameter>
					</effect>
					</filter>
					<logginginfo>
					<description></description>
					<scene></scene>
					<shottake></shottake>
					<lognote></lognote>
					<good></good>
					<originalvideofilename></originalvideofilename>
					<originalaudiofilename></originalaudiofilename>
					</logginginfo>
					<colorinfo>
					<lut></lut>
					<lut1></lut1>
					<asc_sop></asc_sop>
					<asc_sat></asc_sat>
					<lut2></lut2>
					</colorinfo>
					<labels>
					</labels>
					</clipitem>
					<clipitem id="clipitem-636"/>
					                        </track>
					                        <track TL.SQTrackShy="0" TL.SQTrackExpandedHeight="25" TL.SQTrackExpanded="0" MZ.TrackTargeted="0">
					<clipitem frameBlend="FALSE" id="clipitem-637">
					<masterclipid>masterclip-557</masterclipid>
					<name></name>
					<enabled>TRUE</enabled>
					<duration>2582774</duration>
					<rate>
					
					                                    <timebase>60</timebase>
					                                    <ntsc>TRUE</ntsc>
					                                
					</rate>
					<start>5500</start>
					<end>5566</end>
					<in>5500</in>
					<out>5566</out>
					<pproTicksIn>914456774963789</pproTicksIn>
					<pproTicksOut>914677708529577</pproTicksOut>
					<alphatype>straight</alphatype>
					<pixelaspectratio>square</pixelaspectratio>
					<anamorphic>FALSE</anamorphic>
					<file id="file-556">
					<name></name>
					<mediaSource>GraphicAndType</mediaSource>
					<rate>
					<timebase>60</timebase>
					<ntsc>TRUE</ntsc>
					</rate>
					<timecode>
					<rate>
					<timebase>60</timebase>
					<ntsc>TRUE</ntsc>
					</rate>
					<string>00:00:00:00</string>
					<frame>0</frame>
					<displayformat>NDF</displayformat>
					</timecode>
					<media>
					<video>
					<samplecharacteristics>
					<rate>
					<timebase>60</timebase>
					<ntsc>TRUE</ntsc>
					</rate>
					<width>1080</width>
					<height>1920</height>
					<anamorphic>FALSE</anamorphic>
					<pixelaspectratio>square</pixelaspectratio>
					<fielddominance>none</fielddominance>
					</samplecharacteristics>
					</video>
					</media>
					</file>
					<filter>
					<effect>
					<name></name>
					<effectid>GraphicAndType</effectid>
					<effectcategory>graphic</effectcategory>
					<effecttype>filter</effecttype>
					<mediatype>video</mediatype>
					<pproBypass>false</pproBypass>
					<parameter authoringApp="PremierePro">
					<parameterid>1</parameterid>
					<name></name>
					<hash>025b1101-ead6-0ca2-1feb-caf3000001fc</hash>
					<value>5AEAAAAAAABEMyIRDAAAAAAABgAKAAQABgAAAGQAAAAAAF4ASAAQAAwARABAADwAOAAAAAAAAAAAADQAMwAsAAAAKAAkACAAAAAAAAAAAAAAAAAAHAAAAAAAGgAAAAAAAAAUAAAAAAAAAAAAAAAAAAAAAAAAAAgAAAAAABsABwBeAAAAAAAAAUAAAABQAAAAbAAAAAIAAAAAAAEAAQAAAAAAQEEAAMBAAABAQAAAyEIAAAABIAAAAAIAAAACAAAAAAA2QwCASkTw/v//9P7///j+//8S////AAAAAAEAAAAEAAAAEQAAAEhHUFNvZWlLYWt1cG9wdGFpAAAAAQAAAAwAAAAIAAwABAAIAAgAAAAIAAAAUAAAAA8AAADvvIEAAAAAAAAAAAAAAAAAAAA2ACQAAAAgABwAAAAAABsAFAAAAAAAAAAAAAAAAAAAAAAAAAAAABAAAAAAAAAADAAAAAgABAA2AAAAAgAAABwAAAAcAAAAHAAAAAAAIEEAAAABaAAAAE3PAEOw////tP///wEAAAAUAAAAEAAaAAgABwAMAAAAEAAUABAAAAAAAAABHAAAAAAAoEEcAAAAAgAAAAAACgAIAAUABgAHAAoAAAAADAD//P///wQABAAEAAAACAAIAAYABwAIAAAAAAAMAA==</value>
					</parameter>
					<parameter authoringApp="PremierePro">
					<parameterid>2</parameterid>
					<name></name>
					<IsTimeVarying>false</IsTimeVarying>
					<ParameterControlType>11</ParameterControlType>
					<LowerBound>false</LowerBound>
					<UpperBound>false</UpperBound>
					<value>-91445760000000000,false,0,0,0,0,0,0</value>
					</parameter>
					<parameter authoringApp="PremierePro">
					<parameterid>3</parameterid>
					<name></name>
					<IsTimeVarying>false</IsTimeVarying>
					<value>-91445760000000000,0.5:0.5,0,0,0,0,0,0,5,4,0,0,0,0</value>
					</parameter>
					<parameter authoringApp="PremierePro">
					<parameterid>4</parameterid>
					<name></name>
					<IsTimeVarying>false</IsTimeVarying>
					<ParameterControlType>2</ParameterControlType>
					<LowerBound>0</LowerBound>
					<UpperBound>4000</UpperBound>
					<value>-91445760000000000,100.,0,0,0,0,0,0</value>
					</parameter>
					<parameter authoringApp="PremierePro">
					<parameterid>8</parameterid>
					<name></name>
					<IsTimeVarying>false</IsTimeVarying>
					<ParameterControlType>2</ParameterControlType>
					<LowerBound>0</LowerBound>
					<UpperBound>100</UpperBound>
					<value>-91445760000000000,100.,0,0,0,0,0,0</value>
					</parameter>
					</effect>
					</filter>
					<logginginfo>
					<description></description>
					<scene></scene>
					<shottake></shottake>
					<lognote></lognote>
					<good></good>
					<originalvideofilename></originalvideofilename>
					<originalaudiofilename></originalaudiofilename>
					</logginginfo>
					<colorinfo>
					<lut></lut>
					<lut1></lut1>
					<asc_sop></asc_sop>
					<asc_sat></asc_sat>
					<lut2></lut2>
					</colorinfo>
					<labels>
					</labels>
					</clipitem>
					<clipitem frameBlend="FALSE" id="clipitem-647">
					<masterclipid>masterclip-567</masterclipid>
					<name></name>
					<enabled>TRUE</enabled>
					<duration>2582774</duration>
					<rate>
					
					                                    <timebase>60</timebase>
					                                    <ntsc>TRUE</ntsc>
					                                
					</rate>
					<start>5566</start>
					<end>5596</end>
					<in>5566</in>
					<out>5596</out>
					<pproTicksIn>914456774963789</pproTicksIn>
					<pproTicksOut>914677708529577</pproTicksOut>
					<alphatype>straight</alphatype>
					<pixelaspectratio>square</pixelaspectratio>
					<anamorphic>FALSE</anamorphic>
					<file id="file-566">
					<name></name>
					<mediaSource>GraphicAndType</mediaSource>
					<rate>
					<timebase>60</timebase>
					<ntsc>TRUE</ntsc>
					</rate>
					<timecode>
					<rate>
					<timebase>60</timebase>
					<ntsc>TRUE</ntsc>
					</rate>
					<string>00:00:00:00</string>
					<frame>0</frame>
					<displayformat>NDF</displayformat>
					</timecode>
					<media>
					<video>
					<samplecharacteristics>
					<rate>
					<timebase>60</timebase>
					<ntsc>TRUE</ntsc>
					</rate>
					<width>1080</width>
					<height>1920</height>
					<anamorphic>FALSE</anamorphic>
					<pixelaspectratio>square</pixelaspectratio>
					<fielddominance>none</fielddominance>
					</samplecharacteristics>
					</video>
					</media>
					</file>
					<filter>
					<effect>
					<name>w</name>
					<effectid>GraphicAndType</effectid>
					<effectcategory>graphic</effectcategory>
					<effecttype>filter</effecttype>
					<mediatype>video</mediatype>
					<pproBypass>false</pproBypass>
					<parameter authoringApp="PremierePro">
					<parameterid>1</parameterid>
					<name></name>
					<hash>025b1101-ead6-0ca2-1feb-caf3000001fc</hash>
					<value>5AEAAAAAAABEMyIRDAAAAAAABgAKAAQABgAAAGQAAAAAAF4ASAAQAAwARABAADwAOAAAAAAAAAAAADQAMwAsAAAAKAAkACAAAAAAAAAAAAAAAAAAHAAAAAAAGgAAAAAAAAAUAAAAAAAAAAAAAAAAAAAAAAAAAAgAAAAAABsABwBeAAAAAAAAAUAAAABQAAAAbAAAAAIAAAAAAAEAAQAAAAAAQEEAAMBAAABAQAAAyEIAAAABIAAAAAIAAAACAAAAAAA2QwCASkTw/v//9P7///j+//8S////AAAAAAEAAAAEAAAAEQAAAEhHUFNvZWlLYWt1cG9wdGFpAAAAAQAAAAwAAAAIAAwABAAIAAgAAAAIAAAAUAAAAA8AAAB3AAAAAAAAAAAAAAAAAAAAAAA2ACQAAAAgABwAAAAAABsAFAAAAAAAAAAAAAAAAAAAAAAAAAAAABAAAAAAAAAADAAAAAgABAA2AAAAAgAAABwAAAAcAAAAHAAAAAAAIEEAAAABaAAAAE3PAEOw////tP///wEAAAAUAAAAEAAaAAgABwAMAAAAEAAUABAAAAAAAAABHAAAAAAAoEEcAAAAAgAAAAAACgAIAAUABgAHAAoAAAAADAD//P///wQABAAEAAAACAAIAAYABwAIAAAAAAAMAA==</value>
					</parameter>
					<parameter authoringApp="PremierePro">
					<parameterid>2</parameterid>
					<name></name>
					<IsTimeVarying>false</IsTimeVarying>
					<ParameterControlType>11</ParameterControlType>
					<LowerBound>false</LowerBound>
					<UpperBound>false</UpperBound>
					<value>-91445760000000000,false,0,0,0,0,0,0</value>
					</parameter>
					<parameter authoringApp="PremierePro">
					<parameterid>3</parameterid>
					<name></name>
					<IsTimeVarying>false</IsTimeVarying>
					<value>-91445760000000000,0.5:0.5,0,0,0,0,0,0,5,4,0,0,0,0</value>
					</parameter>
					<parameter authoringApp="PremierePro">
					<parameterid>4</parameterid>
					<name></name>
					<IsTimeVarying>false</IsTimeVarying>
					<ParameterControlType>2</ParameterControlType>
					<LowerBound>0</LowerBound>
					<UpperBound>4000</UpperBound>
					<value>-91445760000000000,100.,0,0,0,0,0,0</value>
					</parameter>
					<parameter authoringApp="PremierePro">
					<parameterid>8</parameterid>
					<name></name>
					<IsTimeVarying>false</IsTimeVarying>
					<ParameterControlType>2</ParameterControlType>
					<LowerBound>0</LowerBound>
					<UpperBound>100</UpperBound>
					<value>-91445760000000000,100.,0,0,0,0,0,0</value>
					</parameter>
					</effect>
					</filter>
					<logginginfo>
					<description></description>
					<scene></scene>
					<shottake></shottake>
					<lognote></lognote>
					<good></good>
					<originalvideofilename></originalvideofilename>
					<originalaudiofilename></originalaudiofilename>
					</logginginfo>
					<colorinfo>
					<lut></lut>
					<lut1></lut1>
					<asc_sop></asc_sop>
					<asc_sat></asc_sat>
					<lut2></lut2>
					</colorinfo>
					<labels>
					</labels>
					</clipitem>
					<clipitem frameBlend="FALSE" id="clipitem-653">
					<masterclipid>masterclip-573</masterclipid>
					<name></name>
					<enabled>TRUE</enabled>
					<duration>2582774</duration>
					<rate>
					
					                                    <timebase>60</timebase>
					                                    <ntsc>TRUE</ntsc>
					                                
					</rate>
					<start>5596</start>
					<end>5656</end>
					<in>5596</in>
					<out>5656</out>
					<pproTicksIn>914456774963789</pproTicksIn>
					<pproTicksOut>914677708529577</pproTicksOut>
					<alphatype>straight</alphatype>
					<pixelaspectratio>square</pixelaspectratio>
					<anamorphic>FALSE</anamorphic>
					<file id="file-572">
					<name></name>
					<mediaSource>GraphicAndType</mediaSource>
					<rate>
					<timebase>60</timebase>
					<ntsc>TRUE</ntsc>
					</rate>
					<timecode>
					<rate>
					<timebase>60</timebase>
					<ntsc>TRUE</ntsc>
					</rate>
					<string>00:00:00:00</string>
					<frame>0</frame>
					<displayformat>NDF</displayformat>
					</timecode>
					<media>
					<video>
					<samplecharacteristics>
					<rate>
					<timebase>60</timebase>
					<ntsc>TRUE</ntsc>
					</rate>
					<width>1080</width>
					<height>1920</height>
					<anamorphic>FALSE</anamorphic>
					<pixelaspectratio>square</pixelaspectratio>
					<fielddominance>none</fielddominance>
					</samplecharacteristics>
					</video>
					</media>
					</file>
					<filter>
					<effect>
					<name></name>
					<effectid>GraphicAndType</effectid>
					<effectcategory>graphic</effectcategory>
					<effecttype>filter</effecttype>
					<mediatype>video</mediatype>
					<pproBypass>false</pproBypass>
					<parameter authoringApp="PremierePro">
					<parameterid>1</parameterid>
					<name></name>
					<hash>025b1101-ead6-0ca2-1feb-caf3000001fc</hash>
					<value>5AEAAAAAAABEMyIRDAAAAAAABgAKAAQABgAAAGQAAAAAAF4ASAAQAAwARABAADwAOAAAAAAAAAAAADQAMwAsAAAAKAAkACAAAAAAAAAAAAAAAAAAHAAAAAAAGgAAAAAAAAAUAAAAAAAAAAAAAAAAAAAAAAAAAAgAAAAAABsABwBeAAAAAAAAAUAAAABQAAAAbAAAAAIAAAAAAAEAAQAAAAAAQEEAAMBAAABAQAAAyEIAAAABIAAAAAIAAAACAAAAAAA2QwCASkTw/v//9P7///j+//8S////AAAAAAEAAAAEAAAAEQAAAEhHUFNvZWlLYWt1cG9wdGFpAAAAAQAAAAwAAAAIAAwABAAIAAgAAAAIAAAAUAAAAA8AAADvvIEAAAAAAAAAAAAAAAAAAAA2ACQAAAAgABwAAAAAABsAFAAAAAAAAAAAAAAAAAAAAAAAAAAAABAAAAAAAAAADAAAAAgABAA2AAAAAgAAABwAAAAcAAAAHAAAAAAAIEEAAAABaAAAAE3PAEOw////tP///wEAAAAUAAAAEAAaAAgABwAMAAAAEAAUABAAAAAAAAABHAAAAAAAoEEcAAAAAgAAAAAACgAIAAUABgAHAAoAAAAADAD//P///wQABAAEAAAACAAIAAYABwAIAAAAAAAMAA==</value>
					</parameter>
					<parameter authoringApp="PremierePro">
					<parameterid>2</parameterid>
					<name></name>
					<IsTimeVarying>false</IsTimeVarying>
					<ParameterControlType>11</ParameterControlType>
					<LowerBound>false</LowerBound>
					<UpperBound>false</UpperBound>
					<value>-91445760000000000,false,0,0,0,0,0,0</value>
					</parameter>
					<parameter authoringApp="PremierePro">
					<parameterid>3</parameterid>
					<name></name>
					<IsTimeVarying>false</IsTimeVarying>
					<value>-91445760000000000,0.5:0.5,0,0,0,0,0,0,5,4,0,0,0,0</value>
					</parameter>
					<parameter authoringApp="PremierePro">
					<parameterid>4</parameterid>
					<name></name>
					<IsTimeVarying>false</IsTimeVarying>
					<ParameterControlType>2</ParameterControlType>
					<LowerBound>0</LowerBound>
					<UpperBound>4000</UpperBound>
					<value>-91445760000000000,100.,0,0,0,0,0,0</value>
					</parameter>
					<parameter authoringApp="PremierePro">
					<parameterid>8</parameterid>
					<name></name>
					<IsTimeVarying>false</IsTimeVarying>
					<ParameterControlType>2</ParameterControlType>
					<LowerBound>0</LowerBound>
					<UpperBound>100</UpperBound>
					<value>-91445760000000000,100.,0,0,0,0,0,0</value>
					</parameter>
					</effect>
					</filter>
					<logginginfo>
					<description></description>
					<scene></scene>
					<shottake></shottake>
					<lognote></lognote>
					<good></good>
					<originalvideofilename></originalvideofilename>
					<originalaudiofilename></originalaudiofilename>
					</logginginfo>
					<colorinfo>
					<lut></lut>
					<lut1></lut1>
					<asc_sop></asc_sop>
					<asc_sat></asc_sat>
					<lut2></lut2>
					</colorinfo>
					<labels>
					</labels>
					</clipitem>
					<clipitem frameBlend="FALSE" id="clipitem-662">
					<masterclipid>masterclip-582</masterclipid>
					<name></name>
					<enabled>TRUE</enabled>
					<duration>2582774</duration>
					<rate>
					
					                                    <timebase>60</timebase>
					                                    <ntsc>TRUE</ntsc>
					                                
					</rate>
					<start>5674</start>
					<end>5734</end>
					<in>5674</in>
					<out>5734</out>
					<pproTicksIn>914456774963789</pproTicksIn>
					<pproTicksOut>914677708529577</pproTicksOut>
					<alphatype>straight</alphatype>
					<pixelaspectratio>square</pixelaspectratio>
					<anamorphic>FALSE</anamorphic>
					<file id="file-581">
					<name></name>
					<mediaSource>GraphicAndType</mediaSource>
					<rate>
					<timebase>60</timebase>
					<ntsc>TRUE</ntsc>
					</rate>
					<timecode>
					<rate>
					<timebase>60</timebase>
					<ntsc>TRUE</ntsc>
					</rate>
					<string>00:00:00:00</string>
					<frame>0</frame>
					<displayformat>NDF</displayformat>
					</timecode>
					<media>
					<video>
					<samplecharacteristics>
					<rate>
					<timebase>60</timebase>
					<ntsc>TRUE</ntsc>
					</rate>
					<width>1080</width>
					<height>1920</height>
					<anamorphic>FALSE</anamorphic>
					<pixelaspectratio>square</pixelaspectratio>
					<fielddominance>none</fielddominance>
					</samplecharacteristics>
					</video>
					</media>
					</file>
					<filter>
					<effect>
					<name></name>
					<effectid>GraphicAndType</effectid>
					<effectcategory>graphic</effectcategory>
					<effecttype>filter</effecttype>
					<mediatype>video</mediatype>
					<pproBypass>false</pproBypass>
					<parameter authoringApp="PremierePro">
					<parameterid>1</parameterid>
					<name></name>
					<hash>025b1101-ead6-0ca2-1feb-caf3000001fc</hash>
					<value>5AEAAAAAAABEMyIRDAAAAAAABgAKAAQABgAAAGQAAAAAAF4ASAAQAAwARABAADwAOAAAAAAAAAAAADQAMwAsAAAAKAAkACAAAAAAAAAAAAAAAAAAHAAAAAAAGgAAAAAAAAAUAAAAAAAAAAAAAAAAAAAAAAAAAAgAAAAAABsABwBeAAAAAAAAAUAAAABQAAAAbAAAAAIAAAAAAAEAAQAAAAAAQEEAAMBAAABAQAAAyEIAAAABIAAAAAIAAAACAAAAAAA2QwCASkTw/v//9P7///j+//8S////AAAAAAEAAAAEAAAAEQAAAEhHUFNvZWlLYWt1cG9wdGFpAAAAAQAAAAwAAAAIAAwABAAIAAgAAAAIAAAAUAAAAA8AAADvvIEAAAAAAAAAAAAAAAAAAAA2ACQAAAAgABwAAAAAABsAFAAAAAAAAAAAAAAAAAAAAAAAAAAAABAAAAAAAAAADAAAAAgABAA2AAAAAgAAABwAAAAcAAAAHAAAAAAAIEEAAAABaAAAAE3PAEOw////tP///wEAAAAUAAAAEAAaAAgABwAMAAAAEAAUABAAAAAAAAABHAAAAAAAoEEcAAAAAgAAAAAACgAIAAUABgAHAAoAAAAADAD//P///wQABAAEAAAACAAIAAYABwAIAAAAAAAMAA==</value>
					</parameter>
					<parameter authoringApp="PremierePro">
					<parameterid>2</parameterid>
					<name></name>
					<IsTimeVarying>false</IsTimeVarying>
					<ParameterControlType>11</ParameterControlType>
					<LowerBound>false</LowerBound>
					<UpperBound>false</UpperBound>
					<value>-91445760000000000,false,0,0,0,0,0,0</value>
					</parameter>
					<parameter authoringApp="PremierePro">
					<parameterid>3</parameterid>
					<name></name>
					<IsTimeVarying>false</IsTimeVarying>
					<value>-91445760000000000,0.5:0.5,0,0,0,0,0,0,5,4,0,0,0,0</value>
					</parameter>
					<parameter authoringApp="PremierePro">
					<parameterid>4</parameterid>
					<name></name>
					<IsTimeVarying>false</IsTimeVarying>
					<ParameterControlType>2</ParameterControlType>
					<LowerBound>0</LowerBound>
					<UpperBound>4000</UpperBound>
					<value>-91445760000000000,100.,0,0,0,0,0,0</value>
					</parameter>
					<parameter authoringApp="PremierePro">
					<parameterid>8</parameterid>
					<name></name>
					<IsTimeVarying>false</IsTimeVarying>
					<ParameterControlType>2</ParameterControlType>
					<LowerBound>0</LowerBound>
					<UpperBound>100</UpperBound>
					<value>-91445760000000000,100.,0,0,0,0,0,0</value>
					</parameter>
					</effect>
					</filter>
					<logginginfo>
					<description></description>
					<scene></scene>
					<shottake></shottake>
					<lognote></lognote>
					<good></good>
					<originalvideofilename></originalvideofilename>
					<originalaudiofilename></originalaudiofilename>
					</logginginfo>
					<colorinfo>
					<lut></lut>
					<lut1></lut1>
					<asc_sop></asc_sop>
					<asc_sat></asc_sat>
					<lut2></lut2>
					</colorinfo>
					<labels>
					</labels>
					</clipitem>
					<clipitem frameBlend="FALSE" id="clipitem-666">
					<masterclipid>masterclip-586</masterclipid>
					<name></name>
					<enabled>TRUE</enabled>
					<duration>2582774</duration>
					<rate>
					
					                                    <timebase>60</timebase>
					                                    <ntsc>TRUE</ntsc>
					                                
					</rate>
					<start>5740</start>
					<end>5800</end>
					<in>5740</in>
					<out>5800</out>
					<pproTicksIn>914456774963789</pproTicksIn>
					<pproTicksOut>914677708529577</pproTicksOut>
					<alphatype>straight</alphatype>
					<pixelaspectratio>square</pixelaspectratio>
					<anamorphic>FALSE</anamorphic>
					<file id="file-585">
					<name></name>
					<mediaSource>GraphicAndType</mediaSource>
					<rate>
					<timebase>60</timebase>
					<ntsc>TRUE</ntsc>
					</rate>
					<timecode>
					<rate>
					<timebase>60</timebase>
					<ntsc>TRUE</ntsc>
					</rate>
					<string>00:00:00:00</string>
					<frame>0</frame>
					<displayformat>NDF</displayformat>
					</timecode>
					<media>
					<video>
					<samplecharacteristics>
					<rate>
					<timebase>60</timebase>
					<ntsc>TRUE</ntsc>
					</rate>
					<width>1080</width>
					<height>1920</height>
					<anamorphic>FALSE</anamorphic>
					<pixelaspectratio>square</pixelaspectratio>
					<fielddominance>none</fielddominance>
					</samplecharacteristics>
					</video>
					</media>
					</file>
					<filter>
					<effect>
					<name></name>
					<effectid>GraphicAndType</effectid>
					<effectcategory>graphic</effectcategory>
					<effecttype>filter</effecttype>
					<mediatype>video</mediatype>
					<pproBypass>false</pproBypass>
					<parameter authoringApp="PremierePro">
					<parameterid>1</parameterid>
					<name></name>
					<hash>025b1101-ead6-0ca2-1feb-caf3000001fc</hash>
					<value>5AEAAAAAAABEMyIRDAAAAAAABgAKAAQABgAAAGQAAAAAAF4ASAAQAAwARABAADwAOAAAAAAAAAAAADQAMwAsAAAAKAAkACAAAAAAAAAAAAAAAAAAHAAAAAAAGgAAAAAAAAAUAAAAAAAAAAAAAAAAAAAAAAAAAAgAAAAAABsABwBeAAAAAAAAAUAAAABQAAAAbAAAAAIAAAAAAAEAAQAAAAAAQEEAAMBAAABAQAAAyEIAAAABIAAAAAIAAAACAAAAAAA2QwCASkTw/v//9P7///j+//8S////AAAAAAEAAAAEAAAAEQAAAEhHUFNvZWlLYWt1cG9wdGFpAAAAAQAAAAwAAAAIAAwABAAIAAgAAAAIAAAAUAAAAA8AAADvvIEAAAAAAAAAAAAAAAAAAAA2ACQAAAAgABwAAAAAABsAFAAAAAAAAAAAAAAAAAAAAAAAAAAAABAAAAAAAAAADAAAAAgABAA2AAAAAgAAABwAAAAcAAAAHAAAAAAAIEEAAAABaAAAAE3PAEOw////tP///wEAAAAUAAAAEAAaAAgABwAMAAAAEAAUABAAAAAAAAABHAAAAAAAoEEcAAAAAgAAAAAACgAIAAUABgAHAAoAAAAADAD//P///wQABAAEAAAACAAIAAYABwAIAAAAAAAMAA==</value>
					</parameter>
					<parameter authoringApp="PremierePro">
					<parameterid>2</parameterid>
					<name></name>
					<IsTimeVarying>false</IsTimeVarying>
					<ParameterControlType>11</ParameterControlType>
					<LowerBound>false</LowerBound>
					<UpperBound>false</UpperBound>
					<value>-91445760000000000,false,0,0,0,0,0,0</value>
					</parameter>
					<parameter authoringApp="PremierePro">
					<parameterid>3</parameterid>
					<name></name>
					<IsTimeVarying>false</IsTimeVarying>
					<value>-91445760000000000,0.5:0.5,0,0,0,0,0,0,5,4,0,0,0,0</value>
					</parameter>
					<parameter authoringApp="PremierePro">
					<parameterid>4</parameterid>
					<name></name>
					<IsTimeVarying>false</IsTimeVarying>
					<ParameterControlType>2</ParameterControlType>
					<LowerBound>0</LowerBound>
					<UpperBound>4000</UpperBound>
					<value>-91445760000000000,100.,0,0,0,0,0,0</value>
					</parameter>
					<parameter authoringApp="PremierePro">
					<parameterid>8</parameterid>
					<name></name>
					<IsTimeVarying>false</IsTimeVarying>
					<ParameterControlType>2</ParameterControlType>
					<LowerBound>0</LowerBound>
					<UpperBound>100</UpperBound>
					<value>-91445760000000000,100.,0,0,0,0,0,0</value>
					</parameter>
					</effect>
					</filter>
					<logginginfo>
					<description></description>
					<scene></scene>
					<shottake></shottake>
					<lognote></lognote>
					<good></good>
					<originalvideofilename></originalvideofilename>
					<originalaudiofilename></originalaudiofilename>
					</logginginfo>
					<colorinfo>
					<lut></lut>
					<lut1></lut1>
					<asc_sop></asc_sop>
					<asc_sat></asc_sat>
					<lut2></lut2>
					</colorinfo>
					<labels>
					</labels>
					</clipitem>
					<clipitem frameBlend="FALSE" id="clipitem-672">
					<masterclipid>masterclip-592</masterclipid>
					<name></name>
					<enabled>TRUE</enabled>
					<duration>2582774</duration>
					<rate>
					
					                                    <timebase>60</timebase>
					                                    <ntsc>TRUE</ntsc>
					                                
					</rate>
					<start>5800</start>
					<end>5860</end>
					<in>5800</in>
					<out>5860</out>
					<pproTicksIn>914456774963789</pproTicksIn>
					<pproTicksOut>914677708529577</pproTicksOut>
					<alphatype>straight</alphatype>
					<pixelaspectratio>square</pixelaspectratio>
					<anamorphic>FALSE</anamorphic>
					<file id="file-591">
					<name></name>
					<mediaSource>GraphicAndType</mediaSource>
					<rate>
					<timebase>60</timebase>
					<ntsc>TRUE</ntsc>
					</rate>
					<timecode>
					<rate>
					<timebase>60</timebase>
					<ntsc>TRUE</ntsc>
					</rate>
					<string>00:00:00:00</string>
					<frame>0</frame>
					<displayformat>NDF</displayformat>
					</timecode>
					<media>
					<video>
					<samplecharacteristics>
					<rate>
					<timebase>60</timebase>
					<ntsc>TRUE</ntsc>
					</rate>
					<width>1080</width>
					<height>1920</height>
					<anamorphic>FALSE</anamorphic>
					<pixelaspectratio>square</pixelaspectratio>
					<fielddominance>none</fielddominance>
					</samplecharacteristics>
					</video>
					</media>
					</file>
					<filter>
					<effect>
					<name></name>
					<effectid>GraphicAndType</effectid>
					<effectcategory>graphic</effectcategory>
					<effecttype>filter</effecttype>
					<mediatype>video</mediatype>
					<pproBypass>false</pproBypass>
					<parameter authoringApp="PremierePro">
					<parameterid>1</parameterid>
					<name></name>
					<hash>025b1101-ead6-0ca2-1feb-caf3000001fc</hash>
					<value>5AEAAAAAAABEMyIRDAAAAAAABgAKAAQABgAAAGQAAAAAAF4ASAAQAAwARABAADwAOAAAAAAAAAAAADQAMwAsAAAAKAAkACAAAAAAAAAAAAAAAAAAHAAAAAAAGgAAAAAAAAAUAAAAAAAAAAAAAAAAAAAAAAAAAAgAAAAAABsABwBeAAAAAAAAAUAAAABQAAAAbAAAAAIAAAAAAAEAAQAAAAAAQEEAAMBAAABAQAAAyEIAAAABIAAAAAIAAAACAAAAAAA2QwCASkTw/v//9P7///j+//8S////AAAAAAEAAAAEAAAAEQAAAEhHUFNvZWlLYWt1cG9wdGFpAAAAAQAAAAwAAAAIAAwABAAIAAgAAAAIAAAAUAAAAA8AAADvvIEAAAAAAAAAAAAAAAAAAAA2ACQAAAAgABwAAAAAABsAFAAAAAAAAAAAAAAAAAAAAAAAAAAAABAAAAAAAAAADAAAAAgABAA2AAAAAgAAABwAAAAcAAAAHAAAAAAAIEEAAAABaAAAAE3PAEOw////tP///wEAAAAUAAAAEAAaAAgABwAMAAAAEAAUABAAAAAAAAABHAAAAAAAoEEcAAAAAgAAAAAACgAIAAUABgAHAAoAAAAADAD//P///wQABAAEAAAACAAIAAYABwAIAAAAAAAMAA==</value>
					</parameter>
					<parameter authoringApp="PremierePro">
					<parameterid>2</parameterid>
					<name></name>
					<IsTimeVarying>false</IsTimeVarying>
					<ParameterControlType>11</ParameterControlType>
					<LowerBound>false</LowerBound>
					<UpperBound>false</UpperBound>
					<value>-91445760000000000,false,0,0,0,0,0,0</value>
					</parameter>
					<parameter authoringApp="PremierePro">
					<parameterid>3</parameterid>
					<name></name>
					<IsTimeVarying>false</IsTimeVarying>
					<value>-91445760000000000,0.5:0.5,0,0,0,0,0,0,5,4,0,0,0,0</value>
					</parameter>
					<parameter authoringApp="PremierePro">
					<parameterid>4</parameterid>
					<name></name>
					<IsTimeVarying>false</IsTimeVarying>
					<ParameterControlType>2</ParameterControlType>
					<LowerBound>0</LowerBound>
					<UpperBound>4000</UpperBound>
					<value>-91445760000000000,100.,0,0,0,0,0,0</value>
					</parameter>
					<parameter authoringApp="PremierePro">
					<parameterid>8</parameterid>
					<name></name>
					<IsTimeVarying>false</IsTimeVarying>
					<ParameterControlType>2</ParameterControlType>
					<LowerBound>0</LowerBound>
					<UpperBound>100</UpperBound>
					<value>-91445760000000000,100.,0,0,0,0,0,0</value>
					</parameter>
					</effect>
					</filter>
					<logginginfo>
					<description></description>
					<scene></scene>
					<shottake></shottake>
					<lognote></lognote>
					<good></good>
					<originalvideofilename></originalvideofilename>
					<originalaudiofilename></originalaudiofilename>
					</logginginfo>
					<colorinfo>
					<lut></lut>
					<lut1></lut1>
					<asc_sop></asc_sop>
					<asc_sat></asc_sat>
					<lut2></lut2>
					</colorinfo>
					<labels>
					</labels>
					</clipitem>
					<clipitem frameBlend="FALSE" id="clipitem-679">
					<masterclipid>masterclip-599</masterclipid>
					<name></name>
					<enabled>TRUE</enabled>
					<duration>2582774</duration>
					<rate>
					
					                                    <timebase>60</timebase>
					                                    <ntsc>TRUE</ntsc>
					                                
					</rate>
					<start>5860</start>
					<end>5926</end>
					<in>5860</in>
					<out>5926</out>
					<pproTicksIn>914456774963789</pproTicksIn>
					<pproTicksOut>914677708529577</pproTicksOut>
					<alphatype>straight</alphatype>
					<pixelaspectratio>square</pixelaspectratio>
					<anamorphic>FALSE</anamorphic>
					<file id="file-598">
					<name></name>
					<mediaSource>GraphicAndType</mediaSource>
					<rate>
					<timebase>60</timebase>
					<ntsc>TRUE</ntsc>
					</rate>
					<timecode>
					<rate>
					<timebase>60</timebase>
					<ntsc>TRUE</ntsc>
					</rate>
					<string>00:00:00:00</string>
					<frame>0</frame>
					<displayformat>NDF</displayformat>
					</timecode>
					<media>
					<video>
					<samplecharacteristics>
					<rate>
					<timebase>60</timebase>
					<ntsc>TRUE</ntsc>
					</rate>
					<width>1080</width>
					<height>1920</height>
					<anamorphic>FALSE</anamorphic>
					<pixelaspectratio>square</pixelaspectratio>
					<fielddominance>none</fielddominance>
					</samplecharacteristics>
					</video>
					</media>
					</file>
					<filter>
					<effect>
					<name></name>
					<effectid>GraphicAndType</effectid>
					<effectcategory>graphic</effectcategory>
					<effecttype>filter</effecttype>
					<mediatype>video</mediatype>
					<pproBypass>false</pproBypass>
					<parameter authoringApp="PremierePro">
					<parameterid>1</parameterid>
					<name></name>
					<hash>025b1101-ead6-0ca2-1feb-caf3000001fc</hash>
					<value>5AEAAAAAAABEMyIRDAAAAAAABgAKAAQABgAAAGQAAAAAAF4ASAAQAAwARABAADwAOAAAAAAAAAAAADQAMwAsAAAAKAAkACAAAAAAAAAAAAAAAAAAHAAAAAAAGgAAAAAAAAAUAAAAAAAAAAAAAAAAAAAAAAAAAAgAAAAAABsABwBeAAAAAAAAAUAAAABQAAAAbAAAAAIAAAAAAAEAAQAAAAAAQEEAAMBAAABAQAAAyEIAAAABIAAAAAIAAAACAAAAAAA2QwCASkTw/v//9P7///j+//8S////AAAAAAEAAAAEAAAAEQAAAEhHUFNvZWlLYWt1cG9wdGFpAAAAAQAAAAwAAAAIAAwABAAIAAgAAAAIAAAAUAAAAA8AAADvvIEAAAAAAAAAAAAAAAAAAAA2ACQAAAAgABwAAAAAABsAFAAAAAAAAAAAAAAAAAAAAAAAAAAAABAAAAAAAAAADAAAAAgABAA2AAAAAgAAABwAAAAcAAAAHAAAAAAAIEEAAAABaAAAAE3PAEOw////tP///wEAAAAUAAAAEAAaAAgABwAMAAAAEAAUABAAAAAAAAABHAAAAAAAoEEcAAAAAgAAAAAACgAIAAUABgAHAAoAAAAADAD//P///wQABAAEAAAACAAIAAYABwAIAAAAAAAMAA==</value>
					</parameter>
					<parameter authoringApp="PremierePro">
					<parameterid>2</parameterid>
					<name></name>
					<IsTimeVarying>false</IsTimeVarying>
					<ParameterControlType>11</ParameterControlType>
					<LowerBound>false</LowerBound>
					<UpperBound>false</UpperBound>
					<value>-91445760000000000,false,0,0,0,0,0,0</value>
					</parameter>
					<parameter authoringApp="PremierePro">
					<parameterid>3</parameterid>
					<name></name>
					<IsTimeVarying>false</IsTimeVarying>
					<value>-91445760000000000,0.5:0.5,0,0,0,0,0,0,5,4,0,0,0,0</value>
					</parameter>
					<parameter authoringApp="PremierePro">
					<parameterid>4</parameterid>
					<name></name>
					<IsTimeVarying>false</IsTimeVarying>
					<ParameterControlType>2</ParameterControlType>
					<LowerBound>0</LowerBound>
					<UpperBound>4000</UpperBound>
					<value>-91445760000000000,100.,0,0,0,0,0,0</value>
					</parameter>
					<parameter authoringApp="PremierePro">
					<parameterid>8</parameterid>
					<name></name>
					<IsTimeVarying>false</IsTimeVarying>
					<ParameterControlType>2</ParameterControlType>
					<LowerBound>0</LowerBound>
					<UpperBound>100</UpperBound>
					<value>-91445760000000000,100.,0,0,0,0,0,0</value>
					</parameter>
					</effect>
					</filter>
					<logginginfo>
					<description></description>
					<scene></scene>
					<shottake></shottake>
					<lognote></lognote>
					<good></good>
					<originalvideofilename></originalvideofilename>
					<originalaudiofilename></originalaudiofilename>
					</logginginfo>
					<colorinfo>
					<lut></lut>
					<lut1></lut1>
					<asc_sop></asc_sop>
					<asc_sat></asc_sat>
					<lut2></lut2>
					</colorinfo>
					<labels>
					</labels>
					</clipitem>
					<clipitem frameBlend="FALSE" id="clipitem-684">
					<masterclipid>masterclip-604</masterclipid>
					<name></name>
					<enabled>TRUE</enabled>
					<duration>2582774</duration>
					<rate>
					
					                                    <timebase>60</timebase>
					                                    <ntsc>TRUE</ntsc>
					                                
					</rate>
					<start>5932</start>
					<end>5992</end>
					<in>5932</in>
					<out>5992</out>
					<pproTicksIn>914456774963789</pproTicksIn>
					<pproTicksOut>914677708529577</pproTicksOut>
					<alphatype>straight</alphatype>
					<pixelaspectratio>square</pixelaspectratio>
					<anamorphic>FALSE</anamorphic>
					<file id="file-603">
					<name></name>
					<mediaSource>GraphicAndType</mediaSource>
					<rate>
					<timebase>60</timebase>
					<ntsc>TRUE</ntsc>
					</rate>
					<timecode>
					<rate>
					<timebase>60</timebase>
					<ntsc>TRUE</ntsc>
					</rate>
					<string>00:00:00:00</string>
					<frame>0</frame>
					<displayformat>NDF</displayformat>
					</timecode>
					<media>
					<video>
					<samplecharacteristics>
					<rate>
					<timebase>60</timebase>
					<ntsc>TRUE</ntsc>
					</rate>
					<width>1080</width>
					<height>1920</height>
					<anamorphic>FALSE</anamorphic>
					<pixelaspectratio>square</pixelaspectratio>
					<fielddominance>none</fielddominance>
					</samplecharacteristics>
					</video>
					</media>
					</file>
					<filter>
					<effect>
					<name></name>
					<effectid>GraphicAndType</effectid>
					<effectcategory>graphic</effectcategory>
					<effecttype>filter</effecttype>
					<mediatype>video</mediatype>
					<pproBypass>false</pproBypass>
					<parameter authoringApp="PremierePro">
					<parameterid>1</parameterid>
					<name></name>
					<hash>025b1101-ead6-0ca2-1feb-caf3000001fc</hash>
					<value>5AEAAAAAAABEMyIRDAAAAAAABgAKAAQABgAAAGQAAAAAAF4ASAAQAAwARABAADwAOAAAAAAAAAAAADQAMwAsAAAAKAAkACAAAAAAAAAAAAAAAAAAHAAAAAAAGgAAAAAAAAAUAAAAAAAAAAAAAAAAAAAAAAAAAAgAAAAAABsABwBeAAAAAAAAAUAAAABQAAAAbAAAAAIAAAAAAAEAAQAAAAAAQEEAAMBAAABAQAAAyEIAAAABIAAAAAIAAAACAAAAAAA2QwCASkTw/v//9P7///j+//8S////AAAAAAEAAAAEAAAAEQAAAEhHUFNvZWlLYWt1cG9wdGFpAAAAAQAAAAwAAAAIAAwABAAIAAgAAAAIAAAAUAAAAA8AAADvvIEAAAAAAAAAAAAAAAAAAAA2ACQAAAAgABwAAAAAABsAFAAAAAAAAAAAAAAAAAAAAAAAAAAAABAAAAAAAAAADAAAAAgABAA2AAAAAgAAABwAAAAcAAAAHAAAAAAAIEEAAAABaAAAAE3PAEOw////tP///wEAAAAUAAAAEAAaAAgABwAMAAAAEAAUABAAAAAAAAABHAAAAAAAoEEcAAAAAgAAAAAACgAIAAUABgAHAAoAAAAADAD//P///wQABAAEAAAACAAIAAYABwAIAAAAAAAMAA==</value>
					</parameter>
					<parameter authoringApp="PremierePro">
					<parameterid>2</parameterid>
					<name></name>
					<IsTimeVarying>false</IsTimeVarying>
					<ParameterControlType>11</ParameterControlType>
					<LowerBound>false</LowerBound>
					<UpperBound>false</UpperBound>
					<value>-91445760000000000,false,0,0,0,0,0,0</value>
					</parameter>
					<parameter authoringApp="PremierePro">
					<parameterid>3</parameterid>
					<name></name>
					<IsTimeVarying>false</IsTimeVarying>
					<value>-91445760000000000,0.5:0.5,0,0,0,0,0,0,5,4,0,0,0,0</value>
					</parameter>
					<parameter authoringApp="PremierePro">
					<parameterid>4</parameterid>
					<name></name>
					<IsTimeVarying>false</IsTimeVarying>
					<ParameterControlType>2</ParameterControlType>
					<LowerBound>0</LowerBound>
					<UpperBound>4000</UpperBound>
					<value>-91445760000000000,100.,0,0,0,0,0,0</value>
					</parameter>
					<parameter authoringApp="PremierePro">
					<parameterid>8</parameterid>
					<name></name>
					<IsTimeVarying>false</IsTimeVarying>
					<ParameterControlType>2</ParameterControlType>
					<LowerBound>0</LowerBound>
					<UpperBound>100</UpperBound>
					<value>-91445760000000000,100.,0,0,0,0,0,0</value>
					</parameter>
					</effect>
					</filter>
					<logginginfo>
					<description></description>
					<scene></scene>
					<shottake></shottake>
					<lognote></lognote>
					<good></good>
					<originalvideofilename></originalvideofilename>
					<originalaudiofilename></originalaudiofilename>
					</logginginfo>
					<colorinfo>
					<lut></lut>
					<lut1></lut1>
					<asc_sop></asc_sop>
					<asc_sat></asc_sat>
					<lut2></lut2>
					</colorinfo>
					<labels>
					</labels>
					</clipitem>
					<clipitem frameBlend="FALSE" id="clipitem-690">
					<masterclipid>masterclip-610</masterclipid>
					<name></name>
					<enabled>TRUE</enabled>
					<duration>2582774</duration>
					<rate>
					
					                                    <timebase>60</timebase>
					                                    <ntsc>TRUE</ntsc>
					                                
					</rate>
					<start>5992</start>
					<end>6052</end>
					<in>5992</in>
					<out>6052</out>
					<pproTicksIn>914456774963789</pproTicksIn>
					<pproTicksOut>914677708529577</pproTicksOut>
					<alphatype>straight</alphatype>
					<pixelaspectratio>square</pixelaspectratio>
					<anamorphic>FALSE</anamorphic>
					<file id="file-609">
					<name></name>
					<mediaSource>GraphicAndType</mediaSource>
					<rate>
					<timebase>60</timebase>
					<ntsc>TRUE</ntsc>
					</rate>
					<timecode>
					<rate>
					<timebase>60</timebase>
					<ntsc>TRUE</ntsc>
					</rate>
					<string>00:00:00:00</string>
					<frame>0</frame>
					<displayformat>NDF</displayformat>
					</timecode>
					<media>
					<video>
					<samplecharacteristics>
					<rate>
					<timebase>60</timebase>
					<ntsc>TRUE</ntsc>
					</rate>
					<width>1080</width>
					<height>1920</height>
					<anamorphic>FALSE</anamorphic>
					<pixelaspectratio>square</pixelaspectratio>
					<fielddominance>none</fielddominance>
					</samplecharacteristics>
					</video>
					</media>
					</file>
					<filter>
					<effect>
					<name></name>
					<effectid>GraphicAndType</effectid>
					<effectcategory>graphic</effectcategory>
					<effecttype>filter</effecttype>
					<mediatype>video</mediatype>
					<pproBypass>false</pproBypass>
					<parameter authoringApp="PremierePro">
					<parameterid>1</parameterid>
					<name></name>
					<hash>025b1101-ead6-0ca2-1feb-caf3000001fc</hash>
					<value>5AEAAAAAAABEMyIRDAAAAAAABgAKAAQABgAAAGQAAAAAAF4ASAAQAAwARABAADwAOAAAAAAAAAAAADQAMwAsAAAAKAAkACAAAAAAAAAAAAAAAAAAHAAAAAAAGgAAAAAAAAAUAAAAAAAAAAAAAAAAAAAAAAAAAAgAAAAAABsABwBeAAAAAAAAAUAAAABQAAAAbAAAAAIAAAAAAAEAAQAAAAAAQEEAAMBAAABAQAAAyEIAAAABIAAAAAIAAAACAAAAAAA2QwCASkTw/v//9P7///j+//8S////AAAAAAEAAAAEAAAAEQAAAEhHUFNvZWlLYWt1cG9wdGFpAAAAAQAAAAwAAAAIAAwABAAIAAgAAAAIAAAAUAAAAA8AAADvvIEAAAAAAAAAAAAAAAAAAAA2ACQAAAAgABwAAAAAABsAFAAAAAAAAAAAAAAAAAAAAAAAAAAAABAAAAAAAAAADAAAAAgABAA2AAAAAgAAABwAAAAcAAAAHAAAAAAAIEEAAAABaAAAAE3PAEOw////tP///wEAAAAUAAAAEAAaAAgABwAMAAAAEAAUABAAAAAAAAABHAAAAAAAoEEcAAAAAgAAAAAACgAIAAUABgAHAAoAAAAADAD//P///wQABAAEAAAACAAIAAYABwAIAAAAAAAMAA==</value>
					</parameter>
					<parameter authoringApp="PremierePro">
					<parameterid>2</parameterid>
					<name></name>
					<IsTimeVarying>false</IsTimeVarying>
					<ParameterControlType>11</ParameterControlType>
					<LowerBound>false</LowerBound>
					<UpperBound>false</UpperBound>
					<value>-91445760000000000,false,0,0,0,0,0,0</value>
					</parameter>
					<parameter authoringApp="PremierePro">
					<parameterid>3</parameterid>
					<name></name>
					<IsTimeVarying>false</IsTimeVarying>
					<value>-91445760000000000,0.5:0.5,0,0,0,0,0,0,5,4,0,0,0,0</value>
					</parameter>
					<parameter authoringApp="PremierePro">
					<parameterid>4</parameterid>
					<name></name>
					<IsTimeVarying>false</IsTimeVarying>
					<ParameterControlType>2</ParameterControlType>
					<LowerBound>0</LowerBound>
					<UpperBound>4000</UpperBound>
					<value>-91445760000000000,100.,0,0,0,0,0,0</value>
					</parameter>
					<parameter authoringApp="PremierePro">
					<parameterid>8</parameterid>
					<name></name>
					<IsTimeVarying>false</IsTimeVarying>
					<ParameterControlType>2</ParameterControlType>
					<LowerBound>0</LowerBound>
					<UpperBound>100</UpperBound>
					<value>-91445760000000000,100.,0,0,0,0,0,0</value>
					</parameter>
					</effect>
					</filter>
					<logginginfo>
					<description></description>
					<scene></scene>
					<shottake></shottake>
					<lognote></lognote>
					<good></good>
					<originalvideofilename></originalvideofilename>
					<originalaudiofilename></originalaudiofilename>
					</logginginfo>
					<colorinfo>
					<lut></lut>
					<lut1></lut1>
					<asc_sop></asc_sop>
					<asc_sat></asc_sat>
					<lut2></lut2>
					</colorinfo>
					<labels>
					</labels>
					</clipitem>
					<clipitem frameBlend="FALSE" id="clipitem-697">
					<masterclipid>masterclip-617</masterclipid>
					<name></name>
					<enabled>TRUE</enabled>
					<duration>2582774</duration>
					<rate>
					
					                                    <timebase>60</timebase>
					                                    <ntsc>TRUE</ntsc>
					                                
					</rate>
					<start>6058</start>
					<end>6118</end>
					<in>6058</in>
					<out>6118</out>
					<pproTicksIn>914456774963789</pproTicksIn>
					<pproTicksOut>914677708529577</pproTicksOut>
					<alphatype>straight</alphatype>
					<pixelaspectratio>square</pixelaspectratio>
					<anamorphic>FALSE</anamorphic>
					<file id="file-616">
					<name></name>
					<mediaSource>GraphicAndType</mediaSource>
					<rate>
					<timebase>60</timebase>
					<ntsc>TRUE</ntsc>
					</rate>
					<timecode>
					<rate>
					<timebase>60</timebase>
					<ntsc>TRUE</ntsc>
					</rate>
					<string>00:00:00:00</string>
					<frame>0</frame>
					<displayformat>NDF</displayformat>
					</timecode>
					<media>
					<video>
					<samplecharacteristics>
					<rate>
					<timebase>60</timebase>
					<ntsc>TRUE</ntsc>
					</rate>
					<width>1080</width>
					<height>1920</height>
					<anamorphic>FALSE</anamorphic>
					<pixelaspectratio>square</pixelaspectratio>
					<fielddominance>none</fielddominance>
					</samplecharacteristics>
					</video>
					</media>
					</file>
					<filter>
					<effect>
					<name></name>
					<effectid>GraphicAndType</effectid>
					<effectcategory>graphic</effectcategory>
					<effecttype>filter</effecttype>
					<mediatype>video</mediatype>
					<pproBypass>false</pproBypass>
					<parameter authoringApp="PremierePro">
					<parameterid>1</parameterid>
					<name></name>
					<hash>025b1101-ead6-0ca2-1feb-caf3000001fc</hash>
					<value>5AEAAAAAAABEMyIRDAAAAAAABgAKAAQABgAAAGQAAAAAAF4ASAAQAAwARABAADwAOAAAAAAAAAAAADQAMwAsAAAAKAAkACAAAAAAAAAAAAAAAAAAHAAAAAAAGgAAAAAAAAAUAAAAAAAAAAAAAAAAAAAAAAAAAAgAAAAAABsABwBeAAAAAAAAAUAAAABQAAAAbAAAAAIAAAAAAAEAAQAAAAAAQEEAAMBAAABAQAAAyEIAAAABIAAAAAIAAAACAAAAAAA2QwCASkTw/v//9P7///j+//8S////AAAAAAEAAAAEAAAAEQAAAEhHUFNvZWlLYWt1cG9wdGFpAAAAAQAAAAwAAAAIAAwABAAIAAgAAAAIAAAAUAAAAA8AAADvvIEAAAAAAAAAAAAAAAAAAAA2ACQAAAAgABwAAAAAABsAFAAAAAAAAAAAAAAAAAAAAAAAAAAAABAAAAAAAAAADAAAAAgABAA2AAAAAgAAABwAAAAcAAAAHAAAAAAAIEEAAAABaAAAAE3PAEOw////tP///wEAAAAUAAAAEAAaAAgABwAMAAAAEAAUABAAAAAAAAABHAAAAAAAoEEcAAAAAgAAAAAACgAIAAUABgAHAAoAAAAADAD//P///wQABAAEAAAACAAIAAYABwAIAAAAAAAMAA==</value>
					</parameter>
					<parameter authoringApp="PremierePro">
					<parameterid>2</parameterid>
					<name></name>
					<IsTimeVarying>false</IsTimeVarying>
					<ParameterControlType>11</ParameterControlType>
					<LowerBound>false</LowerBound>
					<UpperBound>false</UpperBound>
					<value>-91445760000000000,false,0,0,0,0,0,0</value>
					</parameter>
					<parameter authoringApp="PremierePro">
					<parameterid>3</parameterid>
					<name></name>
					<IsTimeVarying>false</IsTimeVarying>
					<value>-91445760000000000,0.5:0.5,0,0,0,0,0,0,5,4,0,0,0,0</value>
					</parameter>
					<parameter authoringApp="PremierePro">
					<parameterid>4</parameterid>
					<name></name>
					<IsTimeVarying>false</IsTimeVarying>
					<ParameterControlType>2</ParameterControlType>
					<LowerBound>0</LowerBound>
					<UpperBound>4000</UpperBound>
					<value>-91445760000000000,100.,0,0,0,0,0,0</value>
					</parameter>
					<parameter authoringApp="PremierePro">
					<parameterid>8</parameterid>
					<name></name>
					<IsTimeVarying>false</IsTimeVarying>
					<ParameterControlType>2</ParameterControlType>
					<LowerBound>0</LowerBound>
					<UpperBound>100</UpperBound>
					<value>-91445760000000000,100.,0,0,0,0,0,0</value>
					</parameter>
					</effect>
					</filter>
					<logginginfo>
					<description></description>
					<scene></scene>
					<shottake></shottake>
					<lognote></lognote>
					<good></good>
					<originalvideofilename></originalvideofilename>
					<originalaudiofilename></originalaudiofilename>
					</logginginfo>
					<colorinfo>
					<lut></lut>
					<lut1></lut1>
					<asc_sop></asc_sop>
					<asc_sat></asc_sat>
					<lut2></lut2>
					</colorinfo>
					<labels>
					</labels>
					</clipitem>
					<clipitem frameBlend="FALSE" id="clipitem-704">
					<masterclipid>masterclip-624</masterclipid>
					<name></name>
					<enabled>TRUE</enabled>
					<duration>2582774</duration>
					<rate>
					
					                                    <timebase>60</timebase>
					                                    <ntsc>TRUE</ntsc>
					                                
					</rate>
					<start>6124</start>
					<end>6184</end>
					<in>6124</in>
					<out>6184</out>
					<pproTicksIn>914456774963789</pproTicksIn>
					<pproTicksOut>914677708529577</pproTicksOut>
					<alphatype>straight</alphatype>
					<pixelaspectratio>square</pixelaspectratio>
					<anamorphic>FALSE</anamorphic>
					<file id="file-623">
					<name></name>
					<mediaSource>GraphicAndType</mediaSource>
					<rate>
					<timebase>60</timebase>
					<ntsc>TRUE</ntsc>
					</rate>
					<timecode>
					<rate>
					<timebase>60</timebase>
					<ntsc>TRUE</ntsc>
					</rate>
					<string>00:00:00:00</string>
					<frame>0</frame>
					<displayformat>NDF</displayformat>
					</timecode>
					<media>
					<video>
					<samplecharacteristics>
					<rate>
					<timebase>60</timebase>
					<ntsc>TRUE</ntsc>
					</rate>
					<width>1080</width>
					<height>1920</height>
					<anamorphic>FALSE</anamorphic>
					<pixelaspectratio>square</pixelaspectratio>
					<fielddominance>none</fielddominance>
					</samplecharacteristics>
					</video>
					</media>
					</file>
					<filter>
					<effect>
					<name></name>
					<effectid>GraphicAndType</effectid>
					<effectcategory>graphic</effectcategory>
					<effecttype>filter</effecttype>
					<mediatype>video</mediatype>
					<pproBypass>false</pproBypass>
					<parameter authoringApp="PremierePro">
					<parameterid>1</parameterid>
					<name></name>
					<hash>025b1101-ead6-0ca2-1feb-caf3000001fc</hash>
					<value>5AEAAAAAAABEMyIRDAAAAAAABgAKAAQABgAAAGQAAAAAAF4ASAAQAAwARABAADwAOAAAAAAAAAAAADQAMwAsAAAAKAAkACAAAAAAAAAAAAAAAAAAHAAAAAAAGgAAAAAAAAAUAAAAAAAAAAAAAAAAAAAAAAAAAAgAAAAAABsABwBeAAAAAAAAAUAAAABQAAAAbAAAAAIAAAAAAAEAAQAAAAAAQEEAAMBAAABAQAAAyEIAAAABIAAAAAIAAAACAAAAAAA2QwCASkTw/v//9P7///j+//8S////AAAAAAEAAAAEAAAAEQAAAEhHUFNvZWlLYWt1cG9wdGFpAAAAAQAAAAwAAAAIAAwABAAIAAgAAAAIAAAAUAAAAA8AAADvvIEAAAAAAAAAAAAAAAAAAAA2ACQAAAAgABwAAAAAABsAFAAAAAAAAAAAAAAAAAAAAAAAAAAAABAAAAAAAAAADAAAAAgABAA2AAAAAgAAABwAAAAcAAAAHAAAAAAAIEEAAAABaAAAAE3PAEOw////tP///wEAAAAUAAAAEAAaAAgABwAMAAAAEAAUABAAAAAAAAABHAAAAAAAoEEcAAAAAgAAAAAACgAIAAUABgAHAAoAAAAADAD//P///wQABAAEAAAACAAIAAYABwAIAAAAAAAMAA==</value>
					</parameter>
					<parameter authoringApp="PremierePro">
					<parameterid>2</parameterid>
					<name></name>
					<IsTimeVarying>false</IsTimeVarying>
					<ParameterControlType>11</ParameterControlType>
					<LowerBound>false</LowerBound>
					<UpperBound>false</UpperBound>
					<value>-91445760000000000,false,0,0,0,0,0,0</value>
					</parameter>
					<parameter authoringApp="PremierePro">
					<parameterid>3</parameterid>
					<name></name>
					<IsTimeVarying>false</IsTimeVarying>
					<value>-91445760000000000,0.5:0.5,0,0,0,0,0,0,5,4,0,0,0,0</value>
					</parameter>
					<parameter authoringApp="PremierePro">
					<parameterid>4</parameterid>
					<name></name>
					<IsTimeVarying>false</IsTimeVarying>
					<ParameterControlType>2</ParameterControlType>
					<LowerBound>0</LowerBound>
					<UpperBound>4000</UpperBound>
					<value>-91445760000000000,100.,0,0,0,0,0,0</value>
					</parameter>
					<parameter authoringApp="PremierePro">
					<parameterid>8</parameterid>
					<name></name>
					<IsTimeVarying>false</IsTimeVarying>
					<ParameterControlType>2</ParameterControlType>
					<LowerBound>0</LowerBound>
					<UpperBound>100</UpperBound>
					<value>-91445760000000000,100.,0,0,0,0,0,0</value>
					</parameter>
					</effect>
					</filter>
					<logginginfo>
					<description></description>
					<scene></scene>
					<shottake></shottake>
					<lognote></lognote>
					<good></good>
					<originalvideofilename></originalvideofilename>
					<originalaudiofilename></originalaudiofilename>
					</logginginfo>
					<colorinfo>
					<lut></lut>
					<lut1></lut1>
					<asc_sop></asc_sop>
					<asc_sat></asc_sat>
					<lut2></lut2>
					</colorinfo>
					<labels>
					</labels>
					</clipitem>
					<clipitem frameBlend="FALSE" id="clipitem-712">
					<masterclipid>masterclip-632</masterclipid>
					<name></name>
					<enabled>TRUE</enabled>
					<duration>2582774</duration>
					<rate>
					
					                                    <timebase>60</timebase>
					                                    <ntsc>TRUE</ntsc>
					                                
					</rate>
					<start>6190</start>
					<end>6250</end>
					<in>6190</in>
					<out>6250</out>
					<pproTicksIn>914456774963789</pproTicksIn>
					<pproTicksOut>914677708529577</pproTicksOut>
					<alphatype>straight</alphatype>
					<pixelaspectratio>square</pixelaspectratio>
					<anamorphic>FALSE</anamorphic>
					<file id="file-631">
					<name></name>
					<mediaSource>GraphicAndType</mediaSource>
					<rate>
					<timebase>60</timebase>
					<ntsc>TRUE</ntsc>
					</rate>
					<timecode>
					<rate>
					<timebase>60</timebase>
					<ntsc>TRUE</ntsc>
					</rate>
					<string>00:00:00:00</string>
					<frame>0</frame>
					<displayformat>NDF</displayformat>
					</timecode>
					<media>
					<video>
					<samplecharacteristics>
					<rate>
					<timebase>60</timebase>
					<ntsc>TRUE</ntsc>
					</rate>
					<width>1080</width>
					<height>1920</height>
					<anamorphic>FALSE</anamorphic>
					<pixelaspectratio>square</pixelaspectratio>
					<fielddominance>none</fielddominance>
					</samplecharacteristics>
					</video>
					</media>
					</file>
					<filter>
					<effect>
					<name></name>
					<effectid>GraphicAndType</effectid>
					<effectcategory>graphic</effectcategory>
					<effecttype>filter</effecttype>
					<mediatype>video</mediatype>
					<pproBypass>false</pproBypass>
					<parameter authoringApp="PremierePro">
					<parameterid>1</parameterid>
					<name></name>
					<hash>025b1101-ead6-0ca2-1feb-caf3000001fc</hash>
					<value>5AEAAAAAAABEMyIRDAAAAAAABgAKAAQABgAAAGQAAAAAAF4ASAAQAAwARABAADwAOAAAAAAAAAAAADQAMwAsAAAAKAAkACAAAAAAAAAAAAAAAAAAHAAAAAAAGgAAAAAAAAAUAAAAAAAAAAAAAAAAAAAAAAAAAAgAAAAAABsABwBeAAAAAAAAAUAAAABQAAAAbAAAAAIAAAAAAAEAAQAAAAAAQEEAAMBAAABAQAAAyEIAAAABIAAAAAIAAAACAAAAAAA2QwCASkTw/v//9P7///j+//8S////AAAAAAEAAAAEAAAAEQAAAEhHUFNvZWlLYWt1cG9wdGFpAAAAAQAAAAwAAAAIAAwABAAIAAgAAAAIAAAAUAAAAA8AAADvvIEAAAAAAAAAAAAAAAAAAAA2ACQAAAAgABwAAAAAABsAFAAAAAAAAAAAAAAAAAAAAAAAAAAAABAAAAAAAAAADAAAAAgABAA2AAAAAgAAABwAAAAcAAAAHAAAAAAAIEEAAAABaAAAAE3PAEOw////tP///wEAAAAUAAAAEAAaAAgABwAMAAAAEAAUABAAAAAAAAABHAAAAAAAoEEcAAAAAgAAAAAACgAIAAUABgAHAAoAAAAADAD//P///wQABAAEAAAACAAIAAYABwAIAAAAAAAMAA==</value>
					</parameter>
					<parameter authoringApp="PremierePro">
					<parameterid>2</parameterid>
					<name></name>
					<IsTimeVarying>false</IsTimeVarying>
					<ParameterControlType>11</ParameterControlType>
					<LowerBound>false</LowerBound>
					<UpperBound>false</UpperBound>
					<value>-91445760000000000,false,0,0,0,0,0,0</value>
					</parameter>
					<parameter authoringApp="PremierePro">
					<parameterid>3</parameterid>
					<name></name>
					<IsTimeVarying>false</IsTimeVarying>
					<value>-91445760000000000,0.5:0.5,0,0,0,0,0,0,5,4,0,0,0,0</value>
					</parameter>
					<parameter authoringApp="PremierePro">
					<parameterid>4</parameterid>
					<name></name>
					<IsTimeVarying>false</IsTimeVarying>
					<ParameterControlType>2</ParameterControlType>
					<LowerBound>0</LowerBound>
					<UpperBound>4000</UpperBound>
					<value>-91445760000000000,100.,0,0,0,0,0,0</value>
					</parameter>
					<parameter authoringApp="PremierePro">
					<parameterid>8</parameterid>
					<name></name>
					<IsTimeVarying>false</IsTimeVarying>
					<ParameterControlType>2</ParameterControlType>
					<LowerBound>0</LowerBound>
					<UpperBound>100</UpperBound>
					<value>-91445760000000000,100.,0,0,0,0,0,0</value>
					</parameter>
					</effect>
					</filter>
					<logginginfo>
					<description></description>
					<scene></scene>
					<shottake></shottake>
					<lognote></lognote>
					<good></good>
					<originalvideofilename></originalvideofilename>
					<originalaudiofilename></originalaudiofilename>
					</logginginfo>
					<colorinfo>
					<lut></lut>
					<lut1></lut1>
					<asc_sop></asc_sop>
					<asc_sat></asc_sat>
					<lut2></lut2>
					</colorinfo>
					<labels>
					</labels>
					</clipitem>
					<clipitem frameBlend="FALSE" id="clipitem-720">
					<masterclipid>masterclip-640</masterclipid>
					<name></name>
					<enabled>TRUE</enabled>
					<duration>2582774</duration>
					<rate>
					
					                                    <timebase>60</timebase>
					                                    <ntsc>TRUE</ntsc>
					                                
					</rate>
					<start>6268</start>
					<end>6328</end>
					<in>6268</in>
					<out>6328</out>
					<pproTicksIn>914456774963789</pproTicksIn>
					<pproTicksOut>914677708529577</pproTicksOut>
					<alphatype>straight</alphatype>
					<pixelaspectratio>square</pixelaspectratio>
					<anamorphic>FALSE</anamorphic>
					<file id="file-639">
					<name></name>
					<mediaSource>GraphicAndType</mediaSource>
					<rate>
					<timebase>60</timebase>
					<ntsc>TRUE</ntsc>
					</rate>
					<timecode>
					<rate>
					<timebase>60</timebase>
					<ntsc>TRUE</ntsc>
					</rate>
					<string>00:00:00:00</string>
					<frame>0</frame>
					<displayformat>NDF</displayformat>
					</timecode>
					<media>
					<video>
					<samplecharacteristics>
					<rate>
					<timebase>60</timebase>
					<ntsc>TRUE</ntsc>
					</rate>
					<width>1080</width>
					<height>1920</height>
					<anamorphic>FALSE</anamorphic>
					<pixelaspectratio>square</pixelaspectratio>
					<fielddominance>none</fielddominance>
					</samplecharacteristics>
					</video>
					</media>
					</file>
					<filter>
					<effect>
					<name></name>
					<effectid>GraphicAndType</effectid>
					<effectcategory>graphic</effectcategory>
					<effecttype>filter</effecttype>
					<mediatype>video</mediatype>
					<pproBypass>false</pproBypass>
					<parameter authoringApp="PremierePro">
					<parameterid>1</parameterid>
					<name></name>
					<hash>025b1101-ead6-0ca2-1feb-caf3000001fc</hash>
					<value>5AEAAAAAAABEMyIRDAAAAAAABgAKAAQABgAAAGQAAAAAAF4ASAAQAAwARABAADwAOAAAAAAAAAAAADQAMwAsAAAAKAAkACAAAAAAAAAAAAAAAAAAHAAAAAAAGgAAAAAAAAAUAAAAAAAAAAAAAAAAAAAAAAAAAAgAAAAAABsABwBeAAAAAAAAAUAAAABQAAAAbAAAAAIAAAAAAAEAAQAAAAAAQEEAAMBAAABAQAAAyEIAAAABIAAAAAIAAAACAAAAAAA2QwCASkTw/v//9P7///j+//8S////AAAAAAEAAAAEAAAAEQAAAEhHUFNvZWlLYWt1cG9wdGFpAAAAAQAAAAwAAAAIAAwABAAIAAgAAAAIAAAAUAAAAA8AAADvvIEAAAAAAAAAAAAAAAAAAAA2ACQAAAAgABwAAAAAABsAFAAAAAAAAAAAAAAAAAAAAAAAAAAAABAAAAAAAAAADAAAAAgABAA2AAAAAgAAABwAAAAcAAAAHAAAAAAAIEEAAAABaAAAAE3PAEOw////tP///wEAAAAUAAAAEAAaAAgABwAMAAAAEAAUABAAAAAAAAABHAAAAAAAoEEcAAAAAgAAAAAACgAIAAUABgAHAAoAAAAADAD//P///wQABAAEAAAACAAIAAYABwAIAAAAAAAMAA==</value>
					</parameter>
					<parameter authoringApp="PremierePro">
					<parameterid>2</parameterid>
					<name></name>
					<IsTimeVarying>false</IsTimeVarying>
					<ParameterControlType>11</ParameterControlType>
					<LowerBound>false</LowerBound>
					<UpperBound>false</UpperBound>
					<value>-91445760000000000,false,0,0,0,0,0,0</value>
					</parameter>
					<parameter authoringApp="PremierePro">
					<parameterid>3</parameterid>
					<name></name>
					<IsTimeVarying>false</IsTimeVarying>
					<value>-91445760000000000,0.5:0.5,0,0,0,0,0,0,5,4,0,0,0,0</value>
					</parameter>
					<parameter authoringApp="PremierePro">
					<parameterid>4</parameterid>
					<name></name>
					<IsTimeVarying>false</IsTimeVarying>
					<ParameterControlType>2</ParameterControlType>
					<LowerBound>0</LowerBound>
					<UpperBound>4000</UpperBound>
					<value>-91445760000000000,100.,0,0,0,0,0,0</value>
					</parameter>
					<parameter authoringApp="PremierePro">
					<parameterid>8</parameterid>
					<name></name>
					<IsTimeVarying>false</IsTimeVarying>
					<ParameterControlType>2</ParameterControlType>
					<LowerBound>0</LowerBound>
					<UpperBound>100</UpperBound>
					<value>-91445760000000000,100.,0,0,0,0,0,0</value>
					</parameter>
					</effect>
					</filter>
					<logginginfo>
					<description></description>
					<scene></scene>
					<shottake></shottake>
					<lognote></lognote>
					<good></good>
					<originalvideofilename></originalvideofilename>
					<originalaudiofilename></originalaudiofilename>
					</logginginfo>
					<colorinfo>
					<lut></lut>
					<lut1></lut1>
					<asc_sop></asc_sop>
					<asc_sat></asc_sat>
					<lut2></lut2>
					</colorinfo>
					<labels>
					</labels>
					</clipitem>
					<clipitem frameBlend="FALSE" id="clipitem-728">
					<masterclipid>masterclip-648</masterclipid>
					<name></name>
					<enabled>TRUE</enabled>
					<duration>2582774</duration>
					<rate>
					
					                                    <timebase>60</timebase>
					                                    <ntsc>TRUE</ntsc>
					                                
					</rate>
					<start>6334</start>
					<end>6394</end>
					<in>6334</in>
					<out>6394</out>
					<pproTicksIn>914456774963789</pproTicksIn>
					<pproTicksOut>914677708529577</pproTicksOut>
					<alphatype>straight</alphatype>
					<pixelaspectratio>square</pixelaspectratio>
					<anamorphic>FALSE</anamorphic>
					<file id="file-647">
					<name></name>
					<mediaSource>GraphicAndType</mediaSource>
					<rate>
					<timebase>60</timebase>
					<ntsc>TRUE</ntsc>
					</rate>
					<timecode>
					<rate>
					<timebase>60</timebase>
					<ntsc>TRUE</ntsc>
					</rate>
					<string>00:00:00:00</string>
					<frame>0</frame>
					<displayformat>NDF</displayformat>
					</timecode>
					<media>
					<video>
					<samplecharacteristics>
					<rate>
					<timebase>60</timebase>
					<ntsc>TRUE</ntsc>
					</rate>
					<width>1080</width>
					<height>1920</height>
					<anamorphic>FALSE</anamorphic>
					<pixelaspectratio>square</pixelaspectratio>
					<fielddominance>none</fielddominance>
					</samplecharacteristics>
					</video>
					</media>
					</file>
					<filter>
					<effect>
					<name></name>
					<effectid>GraphicAndType</effectid>
					<effectcategory>graphic</effectcategory>
					<effecttype>filter</effecttype>
					<mediatype>video</mediatype>
					<pproBypass>false</pproBypass>
					<parameter authoringApp="PremierePro">
					<parameterid>1</parameterid>
					<name></name>
					<hash>025b1101-ead6-0ca2-1feb-caf3000001fc</hash>
					<value>5AEAAAAAAABEMyIRDAAAAAAABgAKAAQABgAAAGQAAAAAAF4ASAAQAAwARABAADwAOAAAAAAAAAAAADQAMwAsAAAAKAAkACAAAAAAAAAAAAAAAAAAHAAAAAAAGgAAAAAAAAAUAAAAAAAAAAAAAAAAAAAAAAAAAAgAAAAAABsABwBeAAAAAAAAAUAAAABQAAAAbAAAAAIAAAAAAAEAAQAAAAAAQEEAAMBAAABAQAAAyEIAAAABIAAAAAIAAAACAAAAAAA2QwCASkTw/v//9P7///j+//8S////AAAAAAEAAAAEAAAAEQAAAEhHUFNvZWlLYWt1cG9wdGFpAAAAAQAAAAwAAAAIAAwABAAIAAgAAAAIAAAAUAAAAA8AAADvvIEAAAAAAAAAAAAAAAAAAAA2ACQAAAAgABwAAAAAABsAFAAAAAAAAAAAAAAAAAAAAAAAAAAAABAAAAAAAAAADAAAAAgABAA2AAAAAgAAABwAAAAcAAAAHAAAAAAAIEEAAAABaAAAAE3PAEOw////tP///wEAAAAUAAAAEAAaAAgABwAMAAAAEAAUABAAAAAAAAABHAAAAAAAoEEcAAAAAgAAAAAACgAIAAUABgAHAAoAAAAADAD//P///wQABAAEAAAACAAIAAYABwAIAAAAAAAMAA==</value>
					</parameter>
					<parameter authoringApp="PremierePro">
					<parameterid>2</parameterid>
					<name></name>
					<IsTimeVarying>false</IsTimeVarying>
					<ParameterControlType>11</ParameterControlType>
					<LowerBound>false</LowerBound>
					<UpperBound>false</UpperBound>
					<value>-91445760000000000,false,0,0,0,0,0,0</value>
					</parameter>
					<parameter authoringApp="PremierePro">
					<parameterid>3</parameterid>
					<name></name>
					<IsTimeVarying>false</IsTimeVarying>
					<value>-91445760000000000,0.5:0.5,0,0,0,0,0,0,5,4,0,0,0,0</value>
					</parameter>
					<parameter authoringApp="PremierePro">
					<parameterid>4</parameterid>
					<name></name>
					<IsTimeVarying>false</IsTimeVarying>
					<ParameterControlType>2</ParameterControlType>
					<LowerBound>0</LowerBound>
					<UpperBound>4000</UpperBound>
					<value>-91445760000000000,100.,0,0,0,0,0,0</value>
					</parameter>
					<parameter authoringApp="PremierePro">
					<parameterid>8</parameterid>
					<name></name>
					<IsTimeVarying>false</IsTimeVarying>
					<ParameterControlType>2</ParameterControlType>
					<LowerBound>0</LowerBound>
					<UpperBound>100</UpperBound>
					<value>-91445760000000000,100.,0,0,0,0,0,0</value>
					</parameter>
					</effect>
					</filter>
					<logginginfo>
					<description></description>
					<scene></scene>
					<shottake></shottake>
					<lognote></lognote>
					<good></good>
					<originalvideofilename></originalvideofilename>
					<originalaudiofilename></originalaudiofilename>
					</logginginfo>
					<colorinfo>
					<lut></lut>
					<lut1></lut1>
					<asc_sop></asc_sop>
					<asc_sat></asc_sat>
					<lut2></lut2>
					</colorinfo>
					<labels>
					</labels>
					</clipitem>
					<clipitem frameBlend="FALSE" id="clipitem-735">
					<masterclipid>masterclip-655</masterclipid>
					<name></name>
					<enabled>TRUE</enabled>
					<duration>2582774</duration>
					<rate>
					
					                                    <timebase>60</timebase>
					                                    <ntsc>TRUE</ntsc>
					                                
					</rate>
					<start>6394</start>
					<end>6454</end>
					<in>6394</in>
					<out>6454</out>
					<pproTicksIn>914456774963789</pproTicksIn>
					<pproTicksOut>914677708529577</pproTicksOut>
					<alphatype>straight</alphatype>
					<pixelaspectratio>square</pixelaspectratio>
					<anamorphic>FALSE</anamorphic>
					<file id="file-654">
					<name></name>
					<mediaSource>GraphicAndType</mediaSource>
					<rate>
					<timebase>60</timebase>
					<ntsc>TRUE</ntsc>
					</rate>
					<timecode>
					<rate>
					<timebase>60</timebase>
					<ntsc>TRUE</ntsc>
					</rate>
					<string>00:00:00:00</string>
					<frame>0</frame>
					<displayformat>NDF</displayformat>
					</timecode>
					<media>
					<video>
					<samplecharacteristics>
					<rate>
					<timebase>60</timebase>
					<ntsc>TRUE</ntsc>
					</rate>
					<width>1080</width>
					<height>1920</height>
					<anamorphic>FALSE</anamorphic>
					<pixelaspectratio>square</pixelaspectratio>
					<fielddominance>none</fielddominance>
					</samplecharacteristics>
					</video>
					</media>
					</file>
					<filter>
					<effect>
					<name></name>
					<effectid>GraphicAndType</effectid>
					<effectcategory>graphic</effectcategory>
					<effecttype>filter</effecttype>
					<mediatype>video</mediatype>
					<pproBypass>false</pproBypass>
					<parameter authoringApp="PremierePro">
					<parameterid>1</parameterid>
					<name></name>
					<hash>025b1101-ead6-0ca2-1feb-caf3000001fc</hash>
					<value>5AEAAAAAAABEMyIRDAAAAAAABgAKAAQABgAAAGQAAAAAAF4ASAAQAAwARABAADwAOAAAAAAAAAAAADQAMwAsAAAAKAAkACAAAAAAAAAAAAAAAAAAHAAAAAAAGgAAAAAAAAAUAAAAAAAAAAAAAAAAAAAAAAAAAAgAAAAAABsABwBeAAAAAAAAAUAAAABQAAAAbAAAAAIAAAAAAAEAAQAAAAAAQEEAAMBAAABAQAAAyEIAAAABIAAAAAIAAAACAAAAAAA2QwCASkTw/v//9P7///j+//8S////AAAAAAEAAAAEAAAAEQAAAEhHUFNvZWlLYWt1cG9wdGFpAAAAAQAAAAwAAAAIAAwABAAIAAgAAAAIAAAAUAAAAA8AAADvvIEAAAAAAAAAAAAAAAAAAAA2ACQAAAAgABwAAAAAABsAFAAAAAAAAAAAAAAAAAAAAAAAAAAAABAAAAAAAAAADAAAAAgABAA2AAAAAgAAABwAAAAcAAAAHAAAAAAAIEEAAAABaAAAAE3PAEOw////tP///wEAAAAUAAAAEAAaAAgABwAMAAAAEAAUABAAAAAAAAABHAAAAAAAoEEcAAAAAgAAAAAACgAIAAUABgAHAAoAAAAADAD//P///wQABAAEAAAACAAIAAYABwAIAAAAAAAMAA==</value>
					</parameter>
					<parameter authoringApp="PremierePro">
					<parameterid>2</parameterid>
					<name></name>
					<IsTimeVarying>false</IsTimeVarying>
					<ParameterControlType>11</ParameterControlType>
					<LowerBound>false</LowerBound>
					<UpperBound>false</UpperBound>
					<value>-91445760000000000,false,0,0,0,0,0,0</value>
					</parameter>
					<parameter authoringApp="PremierePro">
					<parameterid>3</parameterid>
					<name></name>
					<IsTimeVarying>false</IsTimeVarying>
					<value>-91445760000000000,0.5:0.5,0,0,0,0,0,0,5,4,0,0,0,0</value>
					</parameter>
					<parameter authoringApp="PremierePro">
					<parameterid>4</parameterid>
					<name></name>
					<IsTimeVarying>false</IsTimeVarying>
					<ParameterControlType>2</ParameterControlType>
					<LowerBound>0</LowerBound>
					<UpperBound>4000</UpperBound>
					<value>-91445760000000000,100.,0,0,0,0,0,0</value>
					</parameter>
					<parameter authoringApp="PremierePro">
					<parameterid>8</parameterid>
					<name></name>
					<IsTimeVarying>false</IsTimeVarying>
					<ParameterControlType>2</ParameterControlType>
					<LowerBound>0</LowerBound>
					<UpperBound>100</UpperBound>
					<value>-91445760000000000,100.,0,0,0,0,0,0</value>
					</parameter>
					</effect>
					</filter>
					<logginginfo>
					<description></description>
					<scene></scene>
					<shottake></shottake>
					<lognote></lognote>
					<good></good>
					<originalvideofilename></originalvideofilename>
					<originalaudiofilename></originalaudiofilename>
					</logginginfo>
					<colorinfo>
					<lut></lut>
					<lut1></lut1>
					<asc_sop></asc_sop>
					<asc_sat></asc_sat>
					<lut2></lut2>
					</colorinfo>
					<labels>
					</labels>
					</clipitem>
					<clipitem frameBlend="FALSE" id="clipitem-739">
					<masterclipid>masterclip-659</masterclipid>
					<name></name>
					<enabled>TRUE</enabled>
					<duration>2582774</duration>
					<rate>
					
					                                    <timebase>60</timebase>
					                                    <ntsc>TRUE</ntsc>
					                                
					</rate>
					<start>6454</start>
					<end>6514</end>
					<in>6454</in>
					<out>6514</out>
					<pproTicksIn>914456774963789</pproTicksIn>
					<pproTicksOut>914677708529577</pproTicksOut>
					<alphatype>straight</alphatype>
					<pixelaspectratio>square</pixelaspectratio>
					<anamorphic>FALSE</anamorphic>
					<file id="file-658">
					<name></name>
					<mediaSource>GraphicAndType</mediaSource>
					<rate>
					<timebase>60</timebase>
					<ntsc>TRUE</ntsc>
					</rate>
					<timecode>
					<rate>
					<timebase>60</timebase>
					<ntsc>TRUE</ntsc>
					</rate>
					<string>00:00:00:00</string>
					<frame>0</frame>
					<displayformat>NDF</displayformat>
					</timecode>
					<media>
					<video>
					<samplecharacteristics>
					<rate>
					<timebase>60</timebase>
					<ntsc>TRUE</ntsc>
					</rate>
					<width>1080</width>
					<height>1920</height>
					<anamorphic>FALSE</anamorphic>
					<pixelaspectratio>square</pixelaspectratio>
					<fielddominance>none</fielddominance>
					</samplecharacteristics>
					</video>
					</media>
					</file>
					<filter>
					<effect>
					<name></name>
					<effectid>GraphicAndType</effectid>
					<effectcategory>graphic</effectcategory>
					<effecttype>filter</effecttype>
					<mediatype>video</mediatype>
					<pproBypass>false</pproBypass>
					<parameter authoringApp="PremierePro">
					<parameterid>1</parameterid>
					<name></name>
					<hash>025b1101-ead6-0ca2-1feb-caf3000001fc</hash>
					<value>5AEAAAAAAABEMyIRDAAAAAAABgAKAAQABgAAAGQAAAAAAF4ASAAQAAwARABAADwAOAAAAAAAAAAAADQAMwAsAAAAKAAkACAAAAAAAAAAAAAAAAAAHAAAAAAAGgAAAAAAAAAUAAAAAAAAAAAAAAAAAAAAAAAAAAgAAAAAABsABwBeAAAAAAAAAUAAAABQAAAAbAAAAAIAAAAAAAEAAQAAAAAAQEEAAMBAAABAQAAAyEIAAAABIAAAAAIAAAACAAAAAAA2QwCASkTw/v//9P7///j+//8S////AAAAAAEAAAAEAAAAEQAAAEhHUFNvZWlLYWt1cG9wdGFpAAAAAQAAAAwAAAAIAAwABAAIAAgAAAAIAAAAUAAAAA8AAADvvIEAAAAAAAAAAAAAAAAAAAA2ACQAAAAgABwAAAAAABsAFAAAAAAAAAAAAAAAAAAAAAAAAAAAABAAAAAAAAAADAAAAAgABAA2AAAAAgAAABwAAAAcAAAAHAAAAAAAIEEAAAABaAAAAE3PAEOw////tP///wEAAAAUAAAAEAAaAAgABwAMAAAAEAAUABAAAAAAAAABHAAAAAAAoEEcAAAAAgAAAAAACgAIAAUABgAHAAoAAAAADAD//P///wQABAAEAAAACAAIAAYABwAIAAAAAAAMAA==</value>
					</parameter>
					<parameter authoringApp="PremierePro">
					<parameterid>2</parameterid>
					<name></name>
					<IsTimeVarying>false</IsTimeVarying>
					<ParameterControlType>11</ParameterControlType>
					<LowerBound>false</LowerBound>
					<UpperBound>false</UpperBound>
					<value>-91445760000000000,false,0,0,0,0,0,0</value>
					</parameter>
					<parameter authoringApp="PremierePro">
					<parameterid>3</parameterid>
					<name></name>
					<IsTimeVarying>false</IsTimeVarying>
					<value>-91445760000000000,0.5:0.5,0,0,0,0,0,0,5,4,0,0,0,0</value>
					</parameter>
					<parameter authoringApp="PremierePro">
					<parameterid>4</parameterid>
					<name></name>
					<IsTimeVarying>false</IsTimeVarying>
					<ParameterControlType>2</ParameterControlType>
					<LowerBound>0</LowerBound>
					<UpperBound>4000</UpperBound>
					<value>-91445760000000000,100.,0,0,0,0,0,0</value>
					</parameter>
					<parameter authoringApp="PremierePro">
					<parameterid>8</parameterid>
					<name></name>
					<IsTimeVarying>false</IsTimeVarying>
					<ParameterControlType>2</ParameterControlType>
					<LowerBound>0</LowerBound>
					<UpperBound>100</UpperBound>
					<value>-91445760000000000,100.,0,0,0,0,0,0</value>
					</parameter>
					</effect>
					</filter>
					<logginginfo>
					<description></description>
					<scene></scene>
					<shottake></shottake>
					<lognote></lognote>
					<good></good>
					<originalvideofilename></originalvideofilename>
					<originalaudiofilename></originalaudiofilename>
					</logginginfo>
					<colorinfo>
					<lut></lut>
					<lut1></lut1>
					<asc_sop></asc_sop>
					<asc_sat></asc_sat>
					<lut2></lut2>
					</colorinfo>
					<labels>
					</labels>
					</clipitem>
					<clipitem frameBlend="FALSE" id="clipitem-744">
					<masterclipid>masterclip-664</masterclipid>
					<name></name>
					<enabled>TRUE</enabled>
					<duration>2582774</duration>
					<rate>
					
					                                    <timebase>60</timebase>
					                                    <ntsc>TRUE</ntsc>
					                                
					</rate>
					<start>6526</start>
					<end>6592</end>
					<in>6526</in>
					<out>6592</out>
					<pproTicksIn>914456774963789</pproTicksIn>
					<pproTicksOut>914677708529577</pproTicksOut>
					<alphatype>straight</alphatype>
					<pixelaspectratio>square</pixelaspectratio>
					<anamorphic>FALSE</anamorphic>
					<file id="file-663">
					<name></name>
					<mediaSource>GraphicAndType</mediaSource>
					<rate>
					<timebase>60</timebase>
					<ntsc>TRUE</ntsc>
					</rate>
					<timecode>
					<rate>
					<timebase>60</timebase>
					<ntsc>TRUE</ntsc>
					</rate>
					<string>00:00:00:00</string>
					<frame>0</frame>
					<displayformat>NDF</displayformat>
					</timecode>
					<media>
					<video>
					<samplecharacteristics>
					<rate>
					<timebase>60</timebase>
					<ntsc>TRUE</ntsc>
					</rate>
					<width>1080</width>
					<height>1920</height>
					<anamorphic>FALSE</anamorphic>
					<pixelaspectratio>square</pixelaspectratio>
					<fielddominance>none</fielddominance>
					</samplecharacteristics>
					</video>
					</media>
					</file>
					<filter>
					<effect>
					<name></name>
					<effectid>GraphicAndType</effectid>
					<effectcategory>graphic</effectcategory>
					<effecttype>filter</effecttype>
					<mediatype>video</mediatype>
					<pproBypass>false</pproBypass>
					<parameter authoringApp="PremierePro">
					<parameterid>1</parameterid>
					<name></name>
					<hash>025b1101-ead6-0ca2-1feb-caf3000001fc</hash>
					<value>5AEAAAAAAABEMyIRDAAAAAAABgAKAAQABgAAAGQAAAAAAF4ASAAQAAwARABAADwAOAAAAAAAAAAAADQAMwAsAAAAKAAkACAAAAAAAAAAAAAAAAAAHAAAAAAAGgAAAAAAAAAUAAAAAAAAAAAAAAAAAAAAAAAAAAgAAAAAABsABwBeAAAAAAAAAUAAAABQAAAAbAAAAAIAAAAAAAEAAQAAAAAAQEEAAMBAAABAQAAAyEIAAAABIAAAAAIAAAACAAAAAAA2QwCASkTw/v//9P7///j+//8S////AAAAAAEAAAAEAAAAEQAAAEhHUFNvZWlLYWt1cG9wdGFpAAAAAQAAAAwAAAAIAAwABAAIAAgAAAAIAAAAUAAAAA8AAADvvIEAAAAAAAAAAAAAAAAAAAA2ACQAAAAgABwAAAAAABsAFAAAAAAAAAAAAAAAAAAAAAAAAAAAABAAAAAAAAAADAAAAAgABAA2AAAAAgAAABwAAAAcAAAAHAAAAAAAIEEAAAABaAAAAE3PAEOw////tP///wEAAAAUAAAAEAAaAAgABwAMAAAAEAAUABAAAAAAAAABHAAAAAAAoEEcAAAAAgAAAAAACgAIAAUABgAHAAoAAAAADAD//P///wQABAAEAAAACAAIAAYABwAIAAAAAAAMAA==</value>
					</parameter>
					<parameter authoringApp="PremierePro">
					<parameterid>2</parameterid>
					<name></name>
					<IsTimeVarying>false</IsTimeVarying>
					<ParameterControlType>11</ParameterControlType>
					<LowerBound>false</LowerBound>
					<UpperBound>false</UpperBound>
					<value>-91445760000000000,false,0,0,0,0,0,0</value>
					</parameter>
					<parameter authoringApp="PremierePro">
					<parameterid>3</parameterid>
					<name></name>
					<IsTimeVarying>false</IsTimeVarying>
					<value>-91445760000000000,0.5:0.5,0,0,0,0,0,0,5,4,0,0,0,0</value>
					</parameter>
					<parameter authoringApp="PremierePro">
					<parameterid>4</parameterid>
					<name></name>
					<IsTimeVarying>false</IsTimeVarying>
					<ParameterControlType>2</ParameterControlType>
					<LowerBound>0</LowerBound>
					<UpperBound>4000</UpperBound>
					<value>-91445760000000000,100.,0,0,0,0,0,0</value>
					</parameter>
					<parameter authoringApp="PremierePro">
					<parameterid>8</parameterid>
					<name></name>
					<IsTimeVarying>false</IsTimeVarying>
					<ParameterControlType>2</ParameterControlType>
					<LowerBound>0</LowerBound>
					<UpperBound>100</UpperBound>
					<value>-91445760000000000,100.,0,0,0,0,0,0</value>
					</parameter>
					</effect>
					</filter>
					<logginginfo>
					<description></description>
					<scene></scene>
					<shottake></shottake>
					<lognote></lognote>
					<good></good>
					<originalvideofilename></originalvideofilename>
					<originalaudiofilename></originalaudiofilename>
					</logginginfo>
					<colorinfo>
					<lut></lut>
					<lut1></lut1>
					<asc_sop></asc_sop>
					<asc_sat></asc_sat>
					<lut2></lut2>
					</colorinfo>
					<labels>
					</labels>
					</clipitem>
					<clipitem frameBlend="FALSE" id="clipitem-752">
					<masterclipid>masterclip-672</masterclipid>
					<name></name>
					<enabled>TRUE</enabled>
					<duration>2582774</duration>
					<rate>
					
					                                    <timebase>60</timebase>
					                                    <ntsc>TRUE</ntsc>
					                                
					</rate>
					<start>6598</start>
					<end>6664</end>
					<in>6598</in>
					<out>6664</out>
					<pproTicksIn>914456774963789</pproTicksIn>
					<pproTicksOut>914677708529577</pproTicksOut>
					<alphatype>straight</alphatype>
					<pixelaspectratio>square</pixelaspectratio>
					<anamorphic>FALSE</anamorphic>
					<file id="file-671">
					<name></name>
					<mediaSource>GraphicAndType</mediaSource>
					<rate>
					<timebase>60</timebase>
					<ntsc>TRUE</ntsc>
					</rate>
					<timecode>
					<rate>
					<timebase>60</timebase>
					<ntsc>TRUE</ntsc>
					</rate>
					<string>00:00:00:00</string>
					<frame>0</frame>
					<displayformat>NDF</displayformat>
					</timecode>
					<media>
					<video>
					<samplecharacteristics>
					<rate>
					<timebase>60</timebase>
					<ntsc>TRUE</ntsc>
					</rate>
					<width>1080</width>
					<height>1920</height>
					<anamorphic>FALSE</anamorphic>
					<pixelaspectratio>square</pixelaspectratio>
					<fielddominance>none</fielddominance>
					</samplecharacteristics>
					</video>
					</media>
					</file>
					<filter>
					<effect>
					<name></name>
					<effectid>GraphicAndType</effectid>
					<effectcategory>graphic</effectcategory>
					<effecttype>filter</effecttype>
					<mediatype>video</mediatype>
					<pproBypass>false</pproBypass>
					<parameter authoringApp="PremierePro">
					<parameterid>1</parameterid>
					<name></name>
					<hash>025b1101-ead6-0ca2-1feb-caf3000001fc</hash>
					<value>5AEAAAAAAABEMyIRDAAAAAAABgAKAAQABgAAAGQAAAAAAF4ASAAQAAwARABAADwAOAAAAAAAAAAAADQAMwAsAAAAKAAkACAAAAAAAAAAAAAAAAAAHAAAAAAAGgAAAAAAAAAUAAAAAAAAAAAAAAAAAAAAAAAAAAgAAAAAABsABwBeAAAAAAAAAUAAAABQAAAAbAAAAAIAAAAAAAEAAQAAAAAAQEEAAMBAAABAQAAAyEIAAAABIAAAAAIAAAACAAAAAAA2QwCASkTw/v//9P7///j+//8S////AAAAAAEAAAAEAAAAEQAAAEhHUFNvZWlLYWt1cG9wdGFpAAAAAQAAAAwAAAAIAAwABAAIAAgAAAAIAAAAUAAAAA8AAADvvIEAAAAAAAAAAAAAAAAAAAA2ACQAAAAgABwAAAAAABsAFAAAAAAAAAAAAAAAAAAAAAAAAAAAABAAAAAAAAAADAAAAAgABAA2AAAAAgAAABwAAAAcAAAAHAAAAAAAIEEAAAABaAAAAE3PAEOw////tP///wEAAAAUAAAAEAAaAAgABwAMAAAAEAAUABAAAAAAAAABHAAAAAAAoEEcAAAAAgAAAAAACgAIAAUABgAHAAoAAAAADAD//P///wQABAAEAAAACAAIAAYABwAIAAAAAAAMAA==</value>
					</parameter>
					<parameter authoringApp="PremierePro">
					<parameterid>2</parameterid>
					<name></name>
					<IsTimeVarying>false</IsTimeVarying>
					<ParameterControlType>11</ParameterControlType>
					<LowerBound>false</LowerBound>
					<UpperBound>false</UpperBound>
					<value>-91445760000000000,false,0,0,0,0,0,0</value>
					</parameter>
					<parameter authoringApp="PremierePro">
					<parameterid>3</parameterid>
					<name></name>
					<IsTimeVarying>false</IsTimeVarying>
					<value>-91445760000000000,0.5:0.5,0,0,0,0,0,0,5,4,0,0,0,0</value>
					</parameter>
					<parameter authoringApp="PremierePro">
					<parameterid>4</parameterid>
					<name></name>
					<IsTimeVarying>false</IsTimeVarying>
					<ParameterControlType>2</ParameterControlType>
					<LowerBound>0</LowerBound>
					<UpperBound>4000</UpperBound>
					<value>-91445760000000000,100.,0,0,0,0,0,0</value>
					</parameter>
					<parameter authoringApp="PremierePro">
					<parameterid>8</parameterid>
					<name></name>
					<IsTimeVarying>false</IsTimeVarying>
					<ParameterControlType>2</ParameterControlType>
					<LowerBound>0</LowerBound>
					<UpperBound>100</UpperBound>
					<value>-91445760000000000,100.,0,0,0,0,0,0</value>
					</parameter>
					</effect>
					</filter>
					<logginginfo>
					<description></description>
					<scene></scene>
					<shottake></shottake>
					<lognote></lognote>
					<good></good>
					<originalvideofilename></originalvideofilename>
					<originalaudiofilename></originalaudiofilename>
					</logginginfo>
					<colorinfo>
					<lut></lut>
					<lut1></lut1>
					<asc_sop></asc_sop>
					<asc_sat></asc_sat>
					<lut2></lut2>
					</colorinfo>
					<labels>
					</labels>
					</clipitem>
					<clipitem frameBlend="FALSE" id="clipitem-757">
					<masterclipid>masterclip-677</masterclipid>
					<name></name>
					<enabled>TRUE</enabled>
					<duration>2582774</duration>
					<rate>
					
					                                    <timebase>60</timebase>
					                                    <ntsc>TRUE</ntsc>
					                                
					</rate>
					<start>6682</start>
					<end>6748</end>
					<in>6682</in>
					<out>6748</out>
					<pproTicksIn>914456774963789</pproTicksIn>
					<pproTicksOut>914677708529577</pproTicksOut>
					<alphatype>straight</alphatype>
					<pixelaspectratio>square</pixelaspectratio>
					<anamorphic>FALSE</anamorphic>
					<file id="file-676">
					<name></name>
					<mediaSource>GraphicAndType</mediaSource>
					<rate>
					<timebase>60</timebase>
					<ntsc>TRUE</ntsc>
					</rate>
					<timecode>
					<rate>
					<timebase>60</timebase>
					<ntsc>TRUE</ntsc>
					</rate>
					<string>00:00:00:00</string>
					<frame>0</frame>
					<displayformat>NDF</displayformat>
					</timecode>
					<media>
					<video>
					<samplecharacteristics>
					<rate>
					<timebase>60</timebase>
					<ntsc>TRUE</ntsc>
					</rate>
					<width>1080</width>
					<height>1920</height>
					<anamorphic>FALSE</anamorphic>
					<pixelaspectratio>square</pixelaspectratio>
					<fielddominance>none</fielddominance>
					</samplecharacteristics>
					</video>
					</media>
					</file>
					<filter>
					<effect>
					<name></name>
					<effectid>GraphicAndType</effectid>
					<effectcategory>graphic</effectcategory>
					<effecttype>filter</effecttype>
					<mediatype>video</mediatype>
					<pproBypass>false</pproBypass>
					<parameter authoringApp="PremierePro">
					<parameterid>1</parameterid>
					<name></name>
					<hash>025b1101-ead6-0ca2-1feb-caf3000001fc</hash>
					<value>5AEAAAAAAABEMyIRDAAAAAAABgAKAAQABgAAAGQAAAAAAF4ASAAQAAwARABAADwAOAAAAAAAAAAAADQAMwAsAAAAKAAkACAAAAAAAAAAAAAAAAAAHAAAAAAAGgAAAAAAAAAUAAAAAAAAAAAAAAAAAAAAAAAAAAgAAAAAABsABwBeAAAAAAAAAUAAAABQAAAAbAAAAAIAAAAAAAEAAQAAAAAAQEEAAMBAAABAQAAAyEIAAAABIAAAAAIAAAACAAAAAAA2QwCASkTw/v//9P7///j+//8S////AAAAAAEAAAAEAAAAEQAAAEhHUFNvZWlLYWt1cG9wdGFpAAAAAQAAAAwAAAAIAAwABAAIAAgAAAAIAAAAUAAAAA8AAADvvIEAAAAAAAAAAAAAAAAAAAA2ACQAAAAgABwAAAAAABsAFAAAAAAAAAAAAAAAAAAAAAAAAAAAABAAAAAAAAAADAAAAAgABAA2AAAAAgAAABwAAAAcAAAAHAAAAAAAIEEAAAABaAAAAE3PAEOw////tP///wEAAAAUAAAAEAAaAAgABwAMAAAAEAAUABAAAAAAAAABHAAAAAAAoEEcAAAAAgAAAAAACgAIAAUABgAHAAoAAAAADAD//P///wQABAAEAAAACAAIAAYABwAIAAAAAAAMAA==</value>
					</parameter>
					<parameter authoringApp="PremierePro">
					<parameterid>2</parameterid>
					<name></name>
					<IsTimeVarying>false</IsTimeVarying>
					<ParameterControlType>11</ParameterControlType>
					<LowerBound>false</LowerBound>
					<UpperBound>false</UpperBound>
					<value>-91445760000000000,false,0,0,0,0,0,0</value>
					</parameter>
					<parameter authoringApp="PremierePro">
					<parameterid>3</parameterid>
					<name></name>
					<IsTimeVarying>false</IsTimeVarying>
					<value>-91445760000000000,0.5:0.5,0,0,0,0,0,0,5,4,0,0,0,0</value>
					</parameter>
					<parameter authoringApp="PremierePro">
					<parameterid>4</parameterid>
					<name></name>
					<IsTimeVarying>false</IsTimeVarying>
					<ParameterControlType>2</ParameterControlType>
					<LowerBound>0</LowerBound>
					<UpperBound>4000</UpperBound>
					<value>-91445760000000000,100.,0,0,0,0,0,0</value>
					</parameter>
					<parameter authoringApp="PremierePro">
					<parameterid>8</parameterid>
					<name></name>
					<IsTimeVarying>false</IsTimeVarying>
					<ParameterControlType>2</ParameterControlType>
					<LowerBound>0</LowerBound>
					<UpperBound>100</UpperBound>
					<value>-91445760000000000,100.,0,0,0,0,0,0</value>
					</parameter>
					</effect>
					</filter>
					<logginginfo>
					<description></description>
					<scene></scene>
					<shottake></shottake>
					<lognote></lognote>
					<good></good>
					<originalvideofilename></originalvideofilename>
					<originalaudiofilename></originalaudiofilename>
					</logginginfo>
					<colorinfo>
					<lut></lut>
					<lut1></lut1>
					<asc_sop></asc_sop>
					<asc_sat></asc_sat>
					<lut2></lut2>
					</colorinfo>
					<labels>
					</labels>
					</clipitem>
					<clipitem frameBlend="FALSE" id="clipitem-760">
					<masterclipid>masterclip-680</masterclipid>
					<name></name>
					<enabled>TRUE</enabled>
					<duration>2582774</duration>
					<rate>
					
					                                    <timebase>60</timebase>
					                                    <ntsc>TRUE</ntsc>
					                                
					</rate>
					<start>6748</start>
					<end>6814</end>
					<in>6748</in>
					<out>6814</out>
					<pproTicksIn>914456774963789</pproTicksIn>
					<pproTicksOut>914677708529577</pproTicksOut>
					<alphatype>straight</alphatype>
					<pixelaspectratio>square</pixelaspectratio>
					<anamorphic>FALSE</anamorphic>
					<file id="file-679">
					<name></name>
					<mediaSource>GraphicAndType</mediaSource>
					<rate>
					<timebase>60</timebase>
					<ntsc>TRUE</ntsc>
					</rate>
					<timecode>
					<rate>
					<timebase>60</timebase>
					<ntsc>TRUE</ntsc>
					</rate>
					<string>00:00:00:00</string>
					<frame>0</frame>
					<displayformat>NDF</displayformat>
					</timecode>
					<media>
					<video>
					<samplecharacteristics>
					<rate>
					<timebase>60</timebase>
					<ntsc>TRUE</ntsc>
					</rate>
					<width>1080</width>
					<height>1920</height>
					<anamorphic>FALSE</anamorphic>
					<pixelaspectratio>square</pixelaspectratio>
					<fielddominance>none</fielddominance>
					</samplecharacteristics>
					</video>
					</media>
					</file>
					<filter>
					<effect>
					<name></name>
					<effectid>GraphicAndType</effectid>
					<effectcategory>graphic</effectcategory>
					<effecttype>filter</effecttype>
					<mediatype>video</mediatype>
					<pproBypass>false</pproBypass>
					<parameter authoringApp="PremierePro">
					<parameterid>1</parameterid>
					<name></name>
					<hash>025b1101-ead6-0ca2-1feb-caf3000001fc</hash>
					<value>5AEAAAAAAABEMyIRDAAAAAAABgAKAAQABgAAAGQAAAAAAF4ASAAQAAwARABAADwAOAAAAAAAAAAAADQAMwAsAAAAKAAkACAAAAAAAAAAAAAAAAAAHAAAAAAAGgAAAAAAAAAUAAAAAAAAAAAAAAAAAAAAAAAAAAgAAAAAABsABwBeAAAAAAAAAUAAAABQAAAAbAAAAAIAAAAAAAEAAQAAAAAAQEEAAMBAAABAQAAAyEIAAAABIAAAAAIAAAACAAAAAAA2QwCASkTw/v//9P7///j+//8S////AAAAAAEAAAAEAAAAEQAAAEhHUFNvZWlLYWt1cG9wdGFpAAAAAQAAAAwAAAAIAAwABAAIAAgAAAAIAAAAUAAAAA8AAADvvIEAAAAAAAAAAAAAAAAAAAA2ACQAAAAgABwAAAAAABsAFAAAAAAAAAAAAAAAAAAAAAAAAAAAABAAAAAAAAAADAAAAAgABAA2AAAAAgAAABwAAAAcAAAAHAAAAAAAIEEAAAABaAAAAE3PAEOw////tP///wEAAAAUAAAAEAAaAAgABwAMAAAAEAAUABAAAAAAAAABHAAAAAAAoEEcAAAAAgAAAAAACgAIAAUABgAHAAoAAAAADAD//P///wQABAAEAAAACAAIAAYABwAIAAAAAAAMAA==</value>
					</parameter>
					<parameter authoringApp="PremierePro">
					<parameterid>2</parameterid>
					<name></name>
					<IsTimeVarying>false</IsTimeVarying>
					<ParameterControlType>11</ParameterControlType>
					<LowerBound>false</LowerBound>
					<UpperBound>false</UpperBound>
					<value>-91445760000000000,false,0,0,0,0,0,0</value>
					</parameter>
					<parameter authoringApp="PremierePro">
					<parameterid>3</parameterid>
					<name></name>
					<IsTimeVarying>false</IsTimeVarying>
					<value>-91445760000000000,0.5:0.5,0,0,0,0,0,0,5,4,0,0,0,0</value>
					</parameter>
					<parameter authoringApp="PremierePro">
					<parameterid>4</parameterid>
					<name></name>
					<IsTimeVarying>false</IsTimeVarying>
					<ParameterControlType>2</ParameterControlType>
					<LowerBound>0</LowerBound>
					<UpperBound>4000</UpperBound>
					<value>-91445760000000000,100.,0,0,0,0,0,0</value>
					</parameter>
					<parameter authoringApp="PremierePro">
					<parameterid>8</parameterid>
					<name></name>
					<IsTimeVarying>false</IsTimeVarying>
					<ParameterControlType>2</ParameterControlType>
					<LowerBound>0</LowerBound>
					<UpperBound>100</UpperBound>
					<value>-91445760000000000,100.,0,0,0,0,0,0</value>
					</parameter>
					</effect>
					</filter>
					<logginginfo>
					<description></description>
					<scene></scene>
					<shottake></shottake>
					<lognote></lognote>
					<good></good>
					<originalvideofilename></originalvideofilename>
					<originalaudiofilename></originalaudiofilename>
					</logginginfo>
					<colorinfo>
					<lut></lut>
					<lut1></lut1>
					<asc_sop></asc_sop>
					<asc_sat></asc_sat>
					<lut2></lut2>
					</colorinfo>
					<labels>
					</labels>
					</clipitem>
					<clipitem frameBlend="FALSE" id="clipitem-766">
					<masterclipid>masterclip-686</masterclipid>
					<name></name>
					<enabled>TRUE</enabled>
					<duration>2582774</duration>
					<rate>
					
					                                    <timebase>60</timebase>
					                                    <ntsc>TRUE</ntsc>
					                                
					</rate>
					<start>6814</start>
					<end>6874</end>
					<in>6814</in>
					<out>6874</out>
					<pproTicksIn>914456774963789</pproTicksIn>
					<pproTicksOut>914677708529577</pproTicksOut>
					<alphatype>straight</alphatype>
					<pixelaspectratio>square</pixelaspectratio>
					<anamorphic>FALSE</anamorphic>
					<file id="file-685">
					<name></name>
					<mediaSource>GraphicAndType</mediaSource>
					<rate>
					<timebase>60</timebase>
					<ntsc>TRUE</ntsc>
					</rate>
					<timecode>
					<rate>
					<timebase>60</timebase>
					<ntsc>TRUE</ntsc>
					</rate>
					<string>00:00:00:00</string>
					<frame>0</frame>
					<displayformat>NDF</displayformat>
					</timecode>
					<media>
					<video>
					<samplecharacteristics>
					<rate>
					<timebase>60</timebase>
					<ntsc>TRUE</ntsc>
					</rate>
					<width>1080</width>
					<height>1920</height>
					<anamorphic>FALSE</anamorphic>
					<pixelaspectratio>square</pixelaspectratio>
					<fielddominance>none</fielddominance>
					</samplecharacteristics>
					</video>
					</media>
					</file>
					<filter>
					<effect>
					<name></name>
					<effectid>GraphicAndType</effectid>
					<effectcategory>graphic</effectcategory>
					<effecttype>filter</effecttype>
					<mediatype>video</mediatype>
					<pproBypass>false</pproBypass>
					<parameter authoringApp="PremierePro">
					<parameterid>1</parameterid>
					<name></name>
					<hash>025b1101-ead6-0ca2-1feb-caf3000001fc</hash>
					<value>5AEAAAAAAABEMyIRDAAAAAAABgAKAAQABgAAAGQAAAAAAF4ASAAQAAwARABAADwAOAAAAAAAAAAAADQAMwAsAAAAKAAkACAAAAAAAAAAAAAAAAAAHAAAAAAAGgAAAAAAAAAUAAAAAAAAAAAAAAAAAAAAAAAAAAgAAAAAABsABwBeAAAAAAAAAUAAAABQAAAAbAAAAAIAAAAAAAEAAQAAAAAAQEEAAMBAAABAQAAAyEIAAAABIAAAAAIAAAACAAAAAAA2QwCASkTw/v//9P7///j+//8S////AAAAAAEAAAAEAAAAEQAAAEhHUFNvZWlLYWt1cG9wdGFpAAAAAQAAAAwAAAAIAAwABAAIAAgAAAAIAAAAUAAAAA8AAADvvIEAAAAAAAAAAAAAAAAAAAA2ACQAAAAgABwAAAAAABsAFAAAAAAAAAAAAAAAAAAAAAAAAAAAABAAAAAAAAAADAAAAAgABAA2AAAAAgAAABwAAAAcAAAAHAAAAAAAIEEAAAABaAAAAE3PAEOw////tP///wEAAAAUAAAAEAAaAAgABwAMAAAAEAAUABAAAAAAAAABHAAAAAAAoEEcAAAAAgAAAAAACgAIAAUABgAHAAoAAAAADAD//P///wQABAAEAAAACAAIAAYABwAIAAAAAAAMAA==</value>
					</parameter>
					<parameter authoringApp="PremierePro">
					<parameterid>2</parameterid>
					<name></name>
					<IsTimeVarying>false</IsTimeVarying>
					<ParameterControlType>11</ParameterControlType>
					<LowerBound>false</LowerBound>
					<UpperBound>false</UpperBound>
					<value>-91445760000000000,false,0,0,0,0,0,0</value>
					</parameter>
					<parameter authoringApp="PremierePro">
					<parameterid>3</parameterid>
					<name></name>
					<IsTimeVarying>false</IsTimeVarying>
					<value>-91445760000000000,0.5:0.5,0,0,0,0,0,0,5,4,0,0,0,0</value>
					</parameter>
					<parameter authoringApp="PremierePro">
					<parameterid>4</parameterid>
					<name></name>
					<IsTimeVarying>false</IsTimeVarying>
					<ParameterControlType>2</ParameterControlType>
					<LowerBound>0</LowerBound>
					<UpperBound>4000</UpperBound>
					<value>-91445760000000000,100.,0,0,0,0,0,0</value>
					</parameter>
					<parameter authoringApp="PremierePro">
					<parameterid>8</parameterid>
					<name></name>
					<IsTimeVarying>false</IsTimeVarying>
					<ParameterControlType>2</ParameterControlType>
					<LowerBound>0</LowerBound>
					<UpperBound>100</UpperBound>
					<value>-91445760000000000,100.,0,0,0,0,0,0</value>
					</parameter>
					</effect>
					</filter>
					<logginginfo>
					<description></description>
					<scene></scene>
					<shottake></shottake>
					<lognote></lognote>
					<good></good>
					<originalvideofilename></originalvideofilename>
					<originalaudiofilename></originalaudiofilename>
					</logginginfo>
					<colorinfo>
					<lut></lut>
					<lut1></lut1>
					<asc_sop></asc_sop>
					<asc_sat></asc_sat>
					<lut2></lut2>
					</colorinfo>
					<labels>
					</labels>
					</clipitem>
					<clipitem frameBlend="FALSE" id="clipitem-769">
					<masterclipid>masterclip-689</masterclipid>
					<name></name>
					<enabled>TRUE</enabled>
					<duration>2582774</duration>
					<rate>
					
					                                    <timebase>60</timebase>
					                                    <ntsc>TRUE</ntsc>
					                                
					</rate>
					<start>6874</start>
					<end>6934</end>
					<in>6874</in>
					<out>6934</out>
					<pproTicksIn>914456774963789</pproTicksIn>
					<pproTicksOut>914677708529577</pproTicksOut>
					<alphatype>straight</alphatype>
					<pixelaspectratio>square</pixelaspectratio>
					<anamorphic>FALSE</anamorphic>
					<file id="file-688">
					<name></name>
					<mediaSource>GraphicAndType</mediaSource>
					<rate>
					<timebase>60</timebase>
					<ntsc>TRUE</ntsc>
					</rate>
					<timecode>
					<rate>
					<timebase>60</timebase>
					<ntsc>TRUE</ntsc>
					</rate>
					<string>00:00:00:00</string>
					<frame>0</frame>
					<displayformat>NDF</displayformat>
					</timecode>
					<media>
					<video>
					<samplecharacteristics>
					<rate>
					<timebase>60</timebase>
					<ntsc>TRUE</ntsc>
					</rate>
					<width>1080</width>
					<height>1920</height>
					<anamorphic>FALSE</anamorphic>
					<pixelaspectratio>square</pixelaspectratio>
					<fielddominance>none</fielddominance>
					</samplecharacteristics>
					</video>
					</media>
					</file>
					<filter>
					<effect>
					<name></name>
					<effectid>GraphicAndType</effectid>
					<effectcategory>graphic</effectcategory>
					<effecttype>filter</effecttype>
					<mediatype>video</mediatype>
					<pproBypass>false</pproBypass>
					<parameter authoringApp="PremierePro">
					<parameterid>1</parameterid>
					<name></name>
					<hash>025b1101-ead6-0ca2-1feb-caf3000001fc</hash>
					<value>5AEAAAAAAABEMyIRDAAAAAAABgAKAAQABgAAAGQAAAAAAF4ASAAQAAwARABAADwAOAAAAAAAAAAAADQAMwAsAAAAKAAkACAAAAAAAAAAAAAAAAAAHAAAAAAAGgAAAAAAAAAUAAAAAAAAAAAAAAAAAAAAAAAAAAgAAAAAABsABwBeAAAAAAAAAUAAAABQAAAAbAAAAAIAAAAAAAEAAQAAAAAAQEEAAMBAAABAQAAAyEIAAAABIAAAAAIAAAACAAAAAAA2QwCASkTw/v//9P7///j+//8S////AAAAAAEAAAAEAAAAEQAAAEhHUFNvZWlLYWt1cG9wdGFpAAAAAQAAAAwAAAAIAAwABAAIAAgAAAAIAAAAUAAAAA8AAADvvIEAAAAAAAAAAAAAAAAAAAA2ACQAAAAgABwAAAAAABsAFAAAAAAAAAAAAAAAAAAAAAAAAAAAABAAAAAAAAAADAAAAAgABAA2AAAAAgAAABwAAAAcAAAAHAAAAAAAIEEAAAABaAAAAE3PAEOw////tP///wEAAAAUAAAAEAAaAAgABwAMAAAAEAAUABAAAAAAAAABHAAAAAAAoEEcAAAAAgAAAAAACgAIAAUABgAHAAoAAAAADAD//P///wQABAAEAAAACAAIAAYABwAIAAAAAAAMAA==</value>
					</parameter>
					<parameter authoringApp="PremierePro">
					<parameterid>2</parameterid>
					<name></name>
					<IsTimeVarying>false</IsTimeVarying>
					<ParameterControlType>11</ParameterControlType>
					<LowerBound>false</LowerBound>
					<UpperBound>false</UpperBound>
					<value>-91445760000000000,false,0,0,0,0,0,0</value>
					</parameter>
					<parameter authoringApp="PremierePro">
					<parameterid>3</parameterid>
					<name></name>
					<IsTimeVarying>false</IsTimeVarying>
					<value>-91445760000000000,0.5:0.5,0,0,0,0,0,0,5,4,0,0,0,0</value>
					</parameter>
					<parameter authoringApp="PremierePro">
					<parameterid>4</parameterid>
					<name></name>
					<IsTimeVarying>false</IsTimeVarying>
					<ParameterControlType>2</ParameterControlType>
					<LowerBound>0</LowerBound>
					<UpperBound>4000</UpperBound>
					<value>-91445760000000000,100.,0,0,0,0,0,0</value>
					</parameter>
					<parameter authoringApp="PremierePro">
					<parameterid>8</parameterid>
					<name></name>
					<IsTimeVarying>false</IsTimeVarying>
					<ParameterControlType>2</ParameterControlType>
					<LowerBound>0</LowerBound>
					<UpperBound>100</UpperBound>
					<value>-91445760000000000,100.,0,0,0,0,0,0</value>
					</parameter>
					</effect>
					</filter>
					<logginginfo>
					<description></description>
					<scene></scene>
					<shottake></shottake>
					<lognote></lognote>
					<good></good>
					<originalvideofilename></originalvideofilename>
					<originalaudiofilename></originalaudiofilename>
					</logginginfo>
					<colorinfo>
					<lut></lut>
					<lut1></lut1>
					<asc_sop></asc_sop>
					<asc_sat></asc_sat>
					<lut2></lut2>
					</colorinfo>
					<labels>
					</labels>
					</clipitem>
					<clipitem frameBlend="FALSE" id="clipitem-778">
					<masterclipid>masterclip-698</masterclipid>
					<name></name>
					<enabled>TRUE</enabled>
					<duration>2582774</duration>
					<rate>
					
					                                    <timebase>60</timebase>
					                                    <ntsc>TRUE</ntsc>
					                                
					</rate>
					<start>6940</start>
					<end>7006</end>
					<in>6940</in>
					<out>7006</out>
					<pproTicksIn>914456774963789</pproTicksIn>
					<pproTicksOut>914677708529577</pproTicksOut>
					<alphatype>straight</alphatype>
					<pixelaspectratio>square</pixelaspectratio>
					<anamorphic>FALSE</anamorphic>
					<file id="file-697">
					<name></name>
					<mediaSource>GraphicAndType</mediaSource>
					<rate>
					<timebase>60</timebase>
					<ntsc>TRUE</ntsc>
					</rate>
					<timecode>
					<rate>
					<timebase>60</timebase>
					<ntsc>TRUE</ntsc>
					</rate>
					<string>00:00:00:00</string>
					<frame>0</frame>
					<displayformat>NDF</displayformat>
					</timecode>
					<media>
					<video>
					<samplecharacteristics>
					<rate>
					<timebase>60</timebase>
					<ntsc>TRUE</ntsc>
					</rate>
					<width>1080</width>
					<height>1920</height>
					<anamorphic>FALSE</anamorphic>
					<pixelaspectratio>square</pixelaspectratio>
					<fielddominance>none</fielddominance>
					</samplecharacteristics>
					</video>
					</media>
					</file>
					<filter>
					<effect>
					<name></name>
					<effectid>GraphicAndType</effectid>
					<effectcategory>graphic</effectcategory>
					<effecttype>filter</effecttype>
					<mediatype>video</mediatype>
					<pproBypass>false</pproBypass>
					<parameter authoringApp="PremierePro">
					<parameterid>1</parameterid>
					<name></name>
					<hash>025b1101-ead6-0ca2-1feb-caf3000001fc</hash>
					<value>5AEAAAAAAABEMyIRDAAAAAAABgAKAAQABgAAAGQAAAAAAF4ASAAQAAwARABAADwAOAAAAAAAAAAAADQAMwAsAAAAKAAkACAAAAAAAAAAAAAAAAAAHAAAAAAAGgAAAAAAAAAUAAAAAAAAAAAAAAAAAAAAAAAAAAgAAAAAABsABwBeAAAAAAAAAUAAAABQAAAAbAAAAAIAAAAAAAEAAQAAAAAAQEEAAMBAAABAQAAAyEIAAAABIAAAAAIAAAACAAAAAAA2QwCASkTw/v//9P7///j+//8S////AAAAAAEAAAAEAAAAEQAAAEhHUFNvZWlLYWt1cG9wdGFpAAAAAQAAAAwAAAAIAAwABAAIAAgAAAAIAAAAUAAAAA8AAADvvIEAAAAAAAAAAAAAAAAAAAA2ACQAAAAgABwAAAAAABsAFAAAAAAAAAAAAAAAAAAAAAAAAAAAABAAAAAAAAAADAAAAAgABAA2AAAAAgAAABwAAAAcAAAAHAAAAAAAIEEAAAABaAAAAE3PAEOw////tP///wEAAAAUAAAAEAAaAAgABwAMAAAAEAAUABAAAAAAAAABHAAAAAAAoEEcAAAAAgAAAAAACgAIAAUABgAHAAoAAAAADAD//P///wQABAAEAAAACAAIAAYABwAIAAAAAAAMAA==</value>
					</parameter>
					<parameter authoringApp="PremierePro">
					<parameterid>2</parameterid>
					<name></name>
					<IsTimeVarying>false</IsTimeVarying>
					<ParameterControlType>11</ParameterControlType>
					<LowerBound>false</LowerBound>
					<UpperBound>false</UpperBound>
					<value>-91445760000000000,false,0,0,0,0,0,0</value>
					</parameter>
					<parameter authoringApp="PremierePro">
					<parameterid>3</parameterid>
					<name></name>
					<IsTimeVarying>false</IsTimeVarying>
					<value>-91445760000000000,0.5:0.5,0,0,0,0,0,0,5,4,0,0,0,0</value>
					</parameter>
					<parameter authoringApp="PremierePro">
					<parameterid>4</parameterid>
					<name></name>
					<IsTimeVarying>false</IsTimeVarying>
					<ParameterControlType>2</ParameterControlType>
					<LowerBound>0</LowerBound>
					<UpperBound>4000</UpperBound>
					<value>-91445760000000000,100.,0,0,0,0,0,0</value>
					</parameter>
					<parameter authoringApp="PremierePro">
					<parameterid>8</parameterid>
					<name></name>
					<IsTimeVarying>false</IsTimeVarying>
					<ParameterControlType>2</ParameterControlType>
					<LowerBound>0</LowerBound>
					<UpperBound>100</UpperBound>
					<value>-91445760000000000,100.,0,0,0,0,0,0</value>
					</parameter>
					</effect>
					</filter>
					<logginginfo>
					<description></description>
					<scene></scene>
					<shottake></shottake>
					<lognote></lognote>
					<good></good>
					<originalvideofilename></originalvideofilename>
					<originalaudiofilename></originalaudiofilename>
					</logginginfo>
					<colorinfo>
					<lut></lut>
					<lut1></lut1>
					<asc_sop></asc_sop>
					<asc_sat></asc_sat>
					<lut2></lut2>
					</colorinfo>
					<labels>
					</labels>
					</clipitem>
					<clipitem frameBlend="FALSE" id="clipitem-784">
					<masterclipid>masterclip-704</masterclipid>
					<name></name>
					<enabled>TRUE</enabled>
					<duration>2582774</duration>
					<rate>
					
					                                    <timebase>60</timebase>
					                                    <ntsc>TRUE</ntsc>
					                                
					</rate>
					<start>7006</start>
					<end>7060</end>
					<in>7006</in>
					<out>7060</out>
					<pproTicksIn>914456774963789</pproTicksIn>
					<pproTicksOut>914677708529577</pproTicksOut>
					<alphatype>straight</alphatype>
					<pixelaspectratio>square</pixelaspectratio>
					<anamorphic>FALSE</anamorphic>
					<file id="file-703">
					<name></name>
					<mediaSource>GraphicAndType</mediaSource>
					<rate>
					<timebase>60</timebase>
					<ntsc>TRUE</ntsc>
					</rate>
					<timecode>
					<rate>
					<timebase>60</timebase>
					<ntsc>TRUE</ntsc>
					</rate>
					<string>00:00:00:00</string>
					<frame>0</frame>
					<displayformat>NDF</displayformat>
					</timecode>
					<media>
					<video>
					<samplecharacteristics>
					<rate>
					<timebase>60</timebase>
					<ntsc>TRUE</ntsc>
					</rate>
					<width>1080</width>
					<height>1920</height>
					<anamorphic>FALSE</anamorphic>
					<pixelaspectratio>square</pixelaspectratio>
					<fielddominance>none</fielddominance>
					</samplecharacteristics>
					</video>
					</media>
					</file>
					<filter>
					<effect>
					<name></name>
					<effectid>GraphicAndType</effectid>
					<effectcategory>graphic</effectcategory>
					<effecttype>filter</effecttype>
					<mediatype>video</mediatype>
					<pproBypass>false</pproBypass>
					<parameter authoringApp="PremierePro">
					<parameterid>1</parameterid>
					<name></name>
					<hash>025b1101-ead6-0ca2-1feb-caf3000001fc</hash>
					<value>5AEAAAAAAABEMyIRDAAAAAAABgAKAAQABgAAAGQAAAAAAF4ASAAQAAwARABAADwAOAAAAAAAAAAAADQAMwAsAAAAKAAkACAAAAAAAAAAAAAAAAAAHAAAAAAAGgAAAAAAAAAUAAAAAAAAAAAAAAAAAAAAAAAAAAgAAAAAABsABwBeAAAAAAAAAUAAAABQAAAAbAAAAAIAAAAAAAEAAQAAAAAAQEEAAMBAAABAQAAAyEIAAAABIAAAAAIAAAACAAAAAAA2QwCASkTw/v//9P7///j+//8S////AAAAAAEAAAAEAAAAEQAAAEhHUFNvZWlLYWt1cG9wdGFpAAAAAQAAAAwAAAAIAAwABAAIAAgAAAAIAAAAUAAAAA8AAADvvIEAAAAAAAAAAAAAAAAAAAA2ACQAAAAgABwAAAAAABsAFAAAAAAAAAAAAAAAAAAAAAAAAAAAABAAAAAAAAAADAAAAAgABAA2AAAAAgAAABwAAAAcAAAAHAAAAAAAIEEAAAABaAAAAE3PAEOw////tP///wEAAAAUAAAAEAAaAAgABwAMAAAAEAAUABAAAAAAAAABHAAAAAAAoEEcAAAAAgAAAAAACgAIAAUABgAHAAoAAAAADAD//P///wQABAAEAAAACAAIAAYABwAIAAAAAAAMAA==</value>
					</parameter>
					<parameter authoringApp="PremierePro">
					<parameterid>2</parameterid>
					<name></name>
					<IsTimeVarying>false</IsTimeVarying>
					<ParameterControlType>11</ParameterControlType>
					<LowerBound>false</LowerBound>
					<UpperBound>false</UpperBound>
					<value>-91445760000000000,false,0,0,0,0,0,0</value>
					</parameter>
					<parameter authoringApp="PremierePro">
					<parameterid>3</parameterid>
					<name></name>
					<IsTimeVarying>false</IsTimeVarying>
					<value>-91445760000000000,0.5:0.5,0,0,0,0,0,0,5,4,0,0,0,0</value>
					</parameter>
					<parameter authoringApp="PremierePro">
					<parameterid>4</parameterid>
					<name></name>
					<IsTimeVarying>false</IsTimeVarying>
					<ParameterControlType>2</ParameterControlType>
					<LowerBound>0</LowerBound>
					<UpperBound>4000</UpperBound>
					<value>-91445760000000000,100.,0,0,0,0,0,0</value>
					</parameter>
					<parameter authoringApp="PremierePro">
					<parameterid>8</parameterid>
					<name></name>
					<IsTimeVarying>false</IsTimeVarying>
					<ParameterControlType>2</ParameterControlType>
					<LowerBound>0</LowerBound>
					<UpperBound>100</UpperBound>
					<value>-91445760000000000,100.,0,0,0,0,0,0</value>
					</parameter>
					</effect>
					</filter>
					<logginginfo>
					<description></description>
					<scene></scene>
					<shottake></shottake>
					<lognote></lognote>
					<good></good>
					<originalvideofilename></originalvideofilename>
					<originalaudiofilename></originalaudiofilename>
					</logginginfo>
					<colorinfo>
					<lut></lut>
					<lut1></lut1>
					<asc_sop></asc_sop>
					<asc_sat></asc_sat>
					<lut2></lut2>
					</colorinfo>
					<labels>
					</labels>
					</clipitem>
					<enabled>TRUE</enabled>
					<locked>FALSE</locked>
				</track>
				<track TL.SQTrackShy="0" TL.SQTrackExpandedHeight="25" TL.SQTrackExpanded="0" MZ.TrackTargeted="0">
					<clipitem frameBlend="FALSE" id="clipitem-121">
					<masterclipid>masterclip-41</masterclipid>
					<name></name>
					<enabled>TRUE</enabled>
					<duration>2582774</duration>
					<rate>
					
					                                    <timebase>60</timebase>
					                                    <ntsc>TRUE</ntsc>
					                                
					</rate>
					<start>53</start>
					<end>113</end>
					<in>53</in>
					<out>113</out>
					<pproTicksIn>914456774963789</pproTicksIn>
					<pproTicksOut>914677708529577</pproTicksOut>
					<alphatype>straight</alphatype>
					<pixelaspectratio>square</pixelaspectratio>
					<anamorphic>FALSE</anamorphic>
					<file id="file-40">
					<name></name>
					<mediaSource>GraphicAndType</mediaSource>
					<rate>
					<timebase>60</timebase>
					<ntsc>TRUE</ntsc>
					</rate>
					<timecode>
					<rate>
					<timebase>60</timebase>
					<ntsc>TRUE</ntsc>
					</rate>
					<string>00:00:00:00</string>
					<frame>0</frame>
					<displayformat>NDF</displayformat>
					</timecode>
					<media>
					<video>
					<samplecharacteristics>
					<rate>
					<timebase>60</timebase>
					<ntsc>TRUE</ntsc>
					</rate>
					<width>1080</width>
					<height>1920</height>
					<anamorphic>FALSE</anamorphic>
					<pixelaspectratio>square</pixelaspectratio>
					<fielddominance>none</fielddominance>
					</samplecharacteristics>
					</video>
					</media>
					</file>
					<filter>
					<effect>
					<name></name>
					<effectid>GraphicAndType</effectid>
					<effectcategory>graphic</effectcategory>
					<effecttype>filter</effecttype>
					<mediatype>video</mediatype>
					<pproBypass>false</pproBypass>
					<parameter authoringApp="PremierePro">
					<parameterid>1</parameterid>
					<name></name>
					<hash>025b1101-ead6-0ca2-1feb-caf3000001fc</hash>
					<value>5AEAAAAAAABEMyIRDAAAAAAABgAKAAQABgAAAGQAAAAAAF4ASAAQAAwARABAADwAOAAAAAAAAAAAADQAMwAsAAAAKAAkACAAAAAAAAAAAAAAAAAAHAAAAAAAGgAAAAAAAAAUAAAAAAAAAAAAAAAAAAAAAAAAAAgAAAAAABsABwBeAAAAAAAAAUAAAABQAAAAbAAAAAIAAAAAAAEAAQAAAAAAQEEAAMBAAABAQAAAyEIAAAABIAAAAAIAAAACAAAAAAA2QwCASkTw/v//9P7///j+//8S////AAAAAAEAAAAEAAAAEQAAAEhHUFNvZWlLYWt1cG9wdGFpAAAAAQAAAAwAAAAIAAwABAAIAAgAAAAIAAAAUAAAAA8AAADvvIEAAAAAAAAAAAAAAAAAAAA2ACQAAAAgABwAAAAAABsAFAAAAAAAAAAAAAAAAAAAAAAAAAAAABAAAAAAAAAADAAAAAgABAA2AAAAAgAAABwAAAAcAAAAHAAAAAAAIEEAAAABaAAAAE3PAEOw////tP///wEAAAAUAAAAEAAaAAgABwAMAAAAEAAUABAAAAAAAAABHAAAAAAAoEEcAAAAAgAAAAAACgAIAAUABgAHAAoAAAAADAD//P///wQABAAEAAAACAAIAAYABwAIAAAAAAAMAA==</value>
					</parameter>
					<parameter authoringApp="PremierePro">
					<parameterid>2</parameterid>
					<name></name>
					<IsTimeVarying>false</IsTimeVarying>
					<ParameterControlType>11</ParameterControlType>
					<LowerBound>false</LowerBound>
					<UpperBound>false</UpperBound>
					<value>-91445760000000000,false,0,0,0,0,0,0</value>
					</parameter>
					<parameter authoringApp="PremierePro">
					<parameterid>3</parameterid>
					<name></name>
					<IsTimeVarying>false</IsTimeVarying>
					<value>-91445760000000000,0.5:0.5,0,0,0,0,0,0,5,4,0,0,0,0</value>
					</parameter>
					<parameter authoringApp="PremierePro">
					<parameterid>4</parameterid>
					<name></name>
					<IsTimeVarying>false</IsTimeVarying>
					<ParameterControlType>2</ParameterControlType>
					<LowerBound>0</LowerBound>
					<UpperBound>4000</UpperBound>
					<value>-91445760000000000,100.,0,0,0,0,0,0</value>
					</parameter>
					<parameter authoringApp="PremierePro">
					<parameterid>8</parameterid>
					<name></name>
					<IsTimeVarying>false</IsTimeVarying>
					<ParameterControlType>2</ParameterControlType>
					<LowerBound>0</LowerBound>
					<UpperBound>100</UpperBound>
					<value>-91445760000000000,100.,0,0,0,0,0,0</value>
					</parameter>
					</effect>
					</filter>
					<logginginfo>
					<description></description>
					<scene></scene>
					<shottake></shottake>
					<lognote></lognote>
					<good></good>
					<originalvideofilename></originalvideofilename>
					<originalaudiofilename></originalaudiofilename>
					</logginginfo>
					<colorinfo>
					<lut></lut>
					<lut1></lut1>
					<asc_sop></asc_sop>
					<asc_sat></asc_sat>
					<lut2></lut2>
					</colorinfo>
					<labels>
					</labels>
					</clipitem>
					<clipitem frameBlend="FALSE" id="clipitem-128">
					<masterclipid>masterclip-48</masterclipid>
					<name></name>
					<enabled>TRUE</enabled>
					<duration>2582774</duration>
					<rate>
					
					                                    <timebase>60</timebase>
					                                    <ntsc>TRUE</ntsc>
					                                
					</rate>
					<start>119</start>
					<end>185</end>
					<in>119</in>
					<out>185</out>
					<pproTicksIn>914456774963789</pproTicksIn>
					<pproTicksOut>914677708529577</pproTicksOut>
					<alphatype>straight</alphatype>
					<pixelaspectratio>square</pixelaspectratio>
					<anamorphic>FALSE</anamorphic>
					<file id="file-47">
					<name></name>
					<mediaSource>GraphicAndType</mediaSource>
					<rate>
					<timebase>60</timebase>
					<ntsc>TRUE</ntsc>
					</rate>
					<timecode>
					<rate>
					<timebase>60</timebase>
					<ntsc>TRUE</ntsc>
					</rate>
					<string>00:00:00:00</string>
					<frame>0</frame>
					<displayformat>NDF</displayformat>
					</timecode>
					<media>
					<video>
					<samplecharacteristics>
					<rate>
					<timebase>60</timebase>
					<ntsc>TRUE</ntsc>
					</rate>
					<width>1080</width>
					<height>1920</height>
					<anamorphic>FALSE</anamorphic>
					<pixelaspectratio>square</pixelaspectratio>
					<fielddominance>none</fielddominance>
					</samplecharacteristics>
					</video>
					</media>
					</file>
					<filter>
					<effect>
					<name></name>
					<effectid>GraphicAndType</effectid>
					<effectcategory>graphic</effectcategory>
					<effecttype>filter</effecttype>
					<mediatype>video</mediatype>
					<pproBypass>false</pproBypass>
					<parameter authoringApp="PremierePro">
					<parameterid>1</parameterid>
					<name></name>
					<hash>025b1101-ead6-0ca2-1feb-caf3000001fc</hash>
					<value>5AEAAAAAAABEMyIRDAAAAAAABgAKAAQABgAAAGQAAAAAAF4ASAAQAAwARABAADwAOAAAAAAAAAAAADQAMwAsAAAAKAAkACAAAAAAAAAAAAAAAAAAHAAAAAAAGgAAAAAAAAAUAAAAAAAAAAAAAAAAAAAAAAAAAAgAAAAAABsABwBeAAAAAAAAAUAAAABQAAAAbAAAAAIAAAAAAAEAAQAAAAAAQEEAAMBAAABAQAAAyEIAAAABIAAAAAIAAAACAAAAAAA2QwCASkTw/v//9P7///j+//8S////AAAAAAEAAAAEAAAAEQAAAEhHUFNvZWlLYWt1cG9wdGFpAAAAAQAAAAwAAAAIAAwABAAIAAgAAAAIAAAAUAAAAA8AAADvvIEAAAAAAAAAAAAAAAAAAAA2ACQAAAAgABwAAAAAABsAFAAAAAAAAAAAAAAAAAAAAAAAAAAAABAAAAAAAAAADAAAAAgABAA2AAAAAgAAABwAAAAcAAAAHAAAAAAAIEEAAAABaAAAAE3PAEOw////tP///wEAAAAUAAAAEAAaAAgABwAMAAAAEAAUABAAAAAAAAABHAAAAAAAoEEcAAAAAgAAAAAACgAIAAUABgAHAAoAAAAADAD//P///wQABAAEAAAACAAIAAYABwAIAAAAAAAMAA==</value>
					</parameter>
					<parameter authoringApp="PremierePro">
					<parameterid>2</parameterid>
					<name></name>
					<IsTimeVarying>false</IsTimeVarying>
					<ParameterControlType>11</ParameterControlType>
					<LowerBound>false</LowerBound>
					<UpperBound>false</UpperBound>
					<value>-91445760000000000,false,0,0,0,0,0,0</value>
					</parameter>
					<parameter authoringApp="PremierePro">
					<parameterid>3</parameterid>
					<name></name>
					<IsTimeVarying>false</IsTimeVarying>
					<value>-91445760000000000,0.5:0.5,0,0,0,0,0,0,5,4,0,0,0,0</value>
					</parameter>
					<parameter authoringApp="PremierePro">
					<parameterid>4</parameterid>
					<name></name>
					<IsTimeVarying>false</IsTimeVarying>
					<ParameterControlType>2</ParameterControlType>
					<LowerBound>0</LowerBound>
					<UpperBound>4000</UpperBound>
					<value>-91445760000000000,100.,0,0,0,0,0,0</value>
					</parameter>
					<parameter authoringApp="PremierePro">
					<parameterid>8</parameterid>
					<name></name>
					<IsTimeVarying>false</IsTimeVarying>
					<ParameterControlType>2</ParameterControlType>
					<LowerBound>0</LowerBound>
					<UpperBound>100</UpperBound>
					<value>-91445760000000000,100.,0,0,0,0,0,0</value>
					</parameter>
					</effect>
					</filter>
					<logginginfo>
					<description></description>
					<scene></scene>
					<shottake></shottake>
					<lognote></lognote>
					<good></good>
					<originalvideofilename></originalvideofilename>
					<originalaudiofilename></originalaudiofilename>
					</logginginfo>
					<colorinfo>
					<lut></lut>
					<lut1></lut1>
					<asc_sop></asc_sop>
					<asc_sat></asc_sat>
					<lut2></lut2>
					</colorinfo>
					<labels>
					</labels>
					</clipitem>
					<clipitem frameBlend="FALSE" id="clipitem-135">
					<masterclipid>masterclip-55</masterclipid>
					<name></name>
					<enabled>TRUE</enabled>
					<duration>2582774</duration>
					<rate>
					
					                                    <timebase>60</timebase>
					                                    <ntsc>TRUE</ntsc>
					                                
					</rate>
					<start>215</start>
					<end>275</end>
					<in>215</in>
					<out>275</out>
					<pproTicksIn>914456774963789</pproTicksIn>
					<pproTicksOut>914677708529577</pproTicksOut>
					<alphatype>straight</alphatype>
					<pixelaspectratio>square</pixelaspectratio>
					<anamorphic>FALSE</anamorphic>
					<file id="file-54">
					<name></name>
					<mediaSource>GraphicAndType</mediaSource>
					<rate>
					<timebase>60</timebase>
					<ntsc>TRUE</ntsc>
					</rate>
					<timecode>
					<rate>
					<timebase>60</timebase>
					<ntsc>TRUE</ntsc>
					</rate>
					<string>00:00:00:00</string>
					<frame>0</frame>
					<displayformat>NDF</displayformat>
					</timecode>
					<media>
					<video>
					<samplecharacteristics>
					<rate>
					<timebase>60</timebase>
					<ntsc>TRUE</ntsc>
					</rate>
					<width>1080</width>
					<height>1920</height>
					<anamorphic>FALSE</anamorphic>
					<pixelaspectratio>square</pixelaspectratio>
					<fielddominance>none</fielddominance>
					</samplecharacteristics>
					</video>
					</media>
					</file>
					<filter>
					<effect>
					<name></name>
					<effectid>GraphicAndType</effectid>
					<effectcategory>graphic</effectcategory>
					<effecttype>filter</effecttype>
					<mediatype>video</mediatype>
					<pproBypass>false</pproBypass>
					<parameter authoringApp="PremierePro">
					<parameterid>1</parameterid>
					<name></name>
					<hash>025b1101-ead6-0ca2-1feb-caf3000001fc</hash>
					<value>5AEAAAAAAABEMyIRDAAAAAAABgAKAAQABgAAAGQAAAAAAF4ASAAQAAwARABAADwAOAAAAAAAAAAAADQAMwAsAAAAKAAkACAAAAAAAAAAAAAAAAAAHAAAAAAAGgAAAAAAAAAUAAAAAAAAAAAAAAAAAAAAAAAAAAgAAAAAABsABwBeAAAAAAAAAUAAAABQAAAAbAAAAAIAAAAAAAEAAQAAAAAAQEEAAMBAAABAQAAAyEIAAAABIAAAAAIAAAACAAAAAAA2QwCASkTw/v//9P7///j+//8S////AAAAAAEAAAAEAAAAEQAAAEhHUFNvZWlLYWt1cG9wdGFpAAAAAQAAAAwAAAAIAAwABAAIAAgAAAAIAAAAUAAAAA8AAADvvIEAAAAAAAAAAAAAAAAAAAA2ACQAAAAgABwAAAAAABsAFAAAAAAAAAAAAAAAAAAAAAAAAAAAABAAAAAAAAAADAAAAAgABAA2AAAAAgAAABwAAAAcAAAAHAAAAAAAIEEAAAABaAAAAE3PAEOw////tP///wEAAAAUAAAAEAAaAAgABwAMAAAAEAAUABAAAAAAAAABHAAAAAAAoEEcAAAAAgAAAAAACgAIAAUABgAHAAoAAAAADAD//P///wQABAAEAAAACAAIAAYABwAIAAAAAAAMAA==</value>
					</parameter>
					<parameter authoringApp="PremierePro">
					<parameterid>2</parameterid>
					<name></name>
					<IsTimeVarying>false</IsTimeVarying>
					<ParameterControlType>11</ParameterControlType>
					<LowerBound>false</LowerBound>
					<UpperBound>false</UpperBound>
					<value>-91445760000000000,false,0,0,0,0,0,0</value>
					</parameter>
					<parameter authoringApp="PremierePro">
					<parameterid>3</parameterid>
					<name></name>
					<IsTimeVarying>false</IsTimeVarying>
					<value>-91445760000000000,0.5:0.5,0,0,0,0,0,0,5,4,0,0,0,0</value>
					</parameter>
					<parameter authoringApp="PremierePro">
					<parameterid>4</parameterid>
					<name></name>
					<IsTimeVarying>false</IsTimeVarying>
					<ParameterControlType>2</ParameterControlType>
					<LowerBound>0</LowerBound>
					<UpperBound>4000</UpperBound>
					<value>-91445760000000000,100.,0,0,0,0,0,0</value>
					</parameter>
					<parameter authoringApp="PremierePro">
					<parameterid>8</parameterid>
					<name></name>
					<IsTimeVarying>false</IsTimeVarying>
					<ParameterControlType>2</ParameterControlType>
					<LowerBound>0</LowerBound>
					<UpperBound>100</UpperBound>
					<value>-91445760000000000,100.,0,0,0,0,0,0</value>
					</parameter>
					</effect>
					</filter>
					<logginginfo>
					<description></description>
					<scene></scene>
					<shottake></shottake>
					<lognote></lognote>
					<good></good>
					<originalvideofilename></originalvideofilename>
					<originalaudiofilename></originalaudiofilename>
					</logginginfo>
					<colorinfo>
					<lut></lut>
					<lut1></lut1>
					<asc_sop></asc_sop>
					<asc_sat></asc_sat>
					<lut2></lut2>
					</colorinfo>
					<labels>
					</labels>
					</clipitem>
					<clipitem frameBlend="FALSE" id="clipitem-143">
					<masterclipid>masterclip-63</masterclipid>
					<name></name>
					<enabled>TRUE</enabled>
					<duration>2582774</duration>
					<rate>
					
					                                    <timebase>60</timebase>
					                                    <ntsc>TRUE</ntsc>
					                                
					</rate>
					<start>275</start>
					<end>341</end>
					<in>275</in>
					<out>341</out>
					<pproTicksIn>914456774963789</pproTicksIn>
					<pproTicksOut>914677708529577</pproTicksOut>
					<alphatype>straight</alphatype>
					<pixelaspectratio>square</pixelaspectratio>
					<anamorphic>FALSE</anamorphic>
					<file id="file-62">
					<name></name>
					<mediaSource>GraphicAndType</mediaSource>
					<rate>
					<timebase>60</timebase>
					<ntsc>TRUE</ntsc>
					</rate>
					<timecode>
					<rate>
					<timebase>60</timebase>
					<ntsc>TRUE</ntsc>
					</rate>
					<string>00:00:00:00</string>
					<frame>0</frame>
					<displayformat>NDF</displayformat>
					</timecode>
					<media>
					<video>
					<samplecharacteristics>
					<rate>
					<timebase>60</timebase>
					<ntsc>TRUE</ntsc>
					</rate>
					<width>1080</width>
					<height>1920</height>
					<anamorphic>FALSE</anamorphic>
					<pixelaspectratio>square</pixelaspectratio>
					<fielddominance>none</fielddominance>
					</samplecharacteristics>
					</video>
					</media>
					</file>
					<filter>
					<effect>
					<name></name>
					<effectid>GraphicAndType</effectid>
					<effectcategory>graphic</effectcategory>
					<effecttype>filter</effecttype>
					<mediatype>video</mediatype>
					<pproBypass>false</pproBypass>
					<parameter authoringApp="PremierePro">
					<parameterid>1</parameterid>
					<name></name>
					<hash>025b1101-ead6-0ca2-1feb-caf3000001fc</hash>
					<value>5AEAAAAAAABEMyIRDAAAAAAABgAKAAQABgAAAGQAAAAAAF4ASAAQAAwARABAADwAOAAAAAAAAAAAADQAMwAsAAAAKAAkACAAAAAAAAAAAAAAAAAAHAAAAAAAGgAAAAAAAAAUAAAAAAAAAAAAAAAAAAAAAAAAAAgAAAAAABsABwBeAAAAAAAAAUAAAABQAAAAbAAAAAIAAAAAAAEAAQAAAAAAQEEAAMBAAABAQAAAyEIAAAABIAAAAAIAAAACAAAAAAA2QwCASkTw/v//9P7///j+//8S////AAAAAAEAAAAEAAAAEQAAAEhHUFNvZWlLYWt1cG9wdGFpAAAAAQAAAAwAAAAIAAwABAAIAAgAAAAIAAAAUAAAAA8AAADvvIEAAAAAAAAAAAAAAAAAAAA2ACQAAAAgABwAAAAAABsAFAAAAAAAAAAAAAAAAAAAAAAAAAAAABAAAAAAAAAADAAAAAgABAA2AAAAAgAAABwAAAAcAAAAHAAAAAAAIEEAAAABaAAAAE3PAEOw////tP///wEAAAAUAAAAEAAaAAgABwAMAAAAEAAUABAAAAAAAAABHAAAAAAAoEEcAAAAAgAAAAAACgAIAAUABgAHAAoAAAAADAD//P///wQABAAEAAAACAAIAAYABwAIAAAAAAAMAA==</value>
					</parameter>
					<parameter authoringApp="PremierePro">
					<parameterid>2</parameterid>
					<name></name>
					<IsTimeVarying>false</IsTimeVarying>
					<ParameterControlType>11</ParameterControlType>
					<LowerBound>false</LowerBound>
					<UpperBound>false</UpperBound>
					<value>-91445760000000000,false,0,0,0,0,0,0</value>
					</parameter>
					<parameter authoringApp="PremierePro">
					<parameterid>3</parameterid>
					<name></name>
					<IsTimeVarying>false</IsTimeVarying>
					<value>-91445760000000000,0.5:0.5,0,0,0,0,0,0,5,4,0,0,0,0</value>
					</parameter>
					<parameter authoringApp="PremierePro">
					<parameterid>4</parameterid>
					<name></name>
					<IsTimeVarying>false</IsTimeVarying>
					<ParameterControlType>2</ParameterControlType>
					<LowerBound>0</LowerBound>
					<UpperBound>4000</UpperBound>
					<value>-91445760000000000,100.,0,0,0,0,0,0</value>
					</parameter>
					<parameter authoringApp="PremierePro">
					<parameterid>8</parameterid>
					<name></name>
					<IsTimeVarying>false</IsTimeVarying>
					<ParameterControlType>2</ParameterControlType>
					<LowerBound>0</LowerBound>
					<UpperBound>100</UpperBound>
					<value>-91445760000000000,100.,0,0,0,0,0,0</value>
					</parameter>
					</effect>
					</filter>
					<logginginfo>
					<description></description>
					<scene></scene>
					<shottake></shottake>
					<lognote></lognote>
					<good></good>
					<originalvideofilename></originalvideofilename>
					<originalaudiofilename></originalaudiofilename>
					</logginginfo>
					<colorinfo>
					<lut></lut>
					<lut1></lut1>
					<asc_sop></asc_sop>
					<asc_sat></asc_sat>
					<lut2></lut2>
					</colorinfo>
					<labels>
					</labels>
					</clipitem>
					<clipitem frameBlend="FALSE" id="clipitem-149">
					<masterclipid>masterclip-69</masterclipid>
					<name></name>
					<enabled>TRUE</enabled>
					<duration>2582774</duration>
					<rate>
					
					                                    <timebase>60</timebase>
					                                    <ntsc>TRUE</ntsc>
					                                
					</rate>
					<start>341</start>
					<end>407</end>
					<in>341</in>
					<out>407</out>
					<pproTicksIn>914456774963789</pproTicksIn>
					<pproTicksOut>914677708529577</pproTicksOut>
					<alphatype>straight</alphatype>
					<pixelaspectratio>square</pixelaspectratio>
					<anamorphic>FALSE</anamorphic>
					<file id="file-68">
					<name></name>
					<mediaSource>GraphicAndType</mediaSource>
					<rate>
					<timebase>60</timebase>
					<ntsc>TRUE</ntsc>
					</rate>
					<timecode>
					<rate>
					<timebase>60</timebase>
					<ntsc>TRUE</ntsc>
					</rate>
					<string>00:00:00:00</string>
					<frame>0</frame>
					<displayformat>NDF</displayformat>
					</timecode>
					<media>
					<video>
					<samplecharacteristics>
					<rate>
					<timebase>60</timebase>
					<ntsc>TRUE</ntsc>
					</rate>
					<width>1080</width>
					<height>1920</height>
					<anamorphic>FALSE</anamorphic>
					<pixelaspectratio>square</pixelaspectratio>
					<fielddominance>none</fielddominance>
					</samplecharacteristics>
					</video>
					</media>
					</file>
					<filter>
					<effect>
					<name></name>
					<effectid>GraphicAndType</effectid>
					<effectcategory>graphic</effectcategory>
					<effecttype>filter</effecttype>
					<mediatype>video</mediatype>
					<pproBypass>false</pproBypass>
					<parameter authoringApp="PremierePro">
					<parameterid>1</parameterid>
					<name></name>
					<hash>025b1101-ead6-0ca2-1feb-caf3000001fc</hash>
					<value>5AEAAAAAAABEMyIRDAAAAAAABgAKAAQABgAAAGQAAAAAAF4ASAAQAAwARABAADwAOAAAAAAAAAAAADQAMwAsAAAAKAAkACAAAAAAAAAAAAAAAAAAHAAAAAAAGgAAAAAAAAAUAAAAAAAAAAAAAAAAAAAAAAAAAAgAAAAAABsABwBeAAAAAAAAAUAAAABQAAAAbAAAAAIAAAAAAAEAAQAAAAAAQEEAAMBAAABAQAAAyEIAAAABIAAAAAIAAAACAAAAAAA2QwCASkTw/v//9P7///j+//8S////AAAAAAEAAAAEAAAAEQAAAEhHUFNvZWlLYWt1cG9wdGFpAAAAAQAAAAwAAAAIAAwABAAIAAgAAAAIAAAAUAAAAA8AAADvvIEAAAAAAAAAAAAAAAAAAAA2ACQAAAAgABwAAAAAABsAFAAAAAAAAAAAAAAAAAAAAAAAAAAAABAAAAAAAAAADAAAAAgABAA2AAAAAgAAABwAAAAcAAAAHAAAAAAAIEEAAAABaAAAAE3PAEOw////tP///wEAAAAUAAAAEAAaAAgABwAMAAAAEAAUABAAAAAAAAABHAAAAAAAoEEcAAAAAgAAAAAACgAIAAUABgAHAAoAAAAADAD//P///wQABAAEAAAACAAIAAYABwAIAAAAAAAMAA==</value>
					</parameter>
					<parameter authoringApp="PremierePro">
					<parameterid>2</parameterid>
					<name></name>
					<IsTimeVarying>false</IsTimeVarying>
					<ParameterControlType>11</ParameterControlType>
					<LowerBound>false</LowerBound>
					<UpperBound>false</UpperBound>
					<value>-91445760000000000,false,0,0,0,0,0,0</value>
					</parameter>
					<parameter authoringApp="PremierePro">
					<parameterid>3</parameterid>
					<name></name>
					<IsTimeVarying>false</IsTimeVarying>
					<value>-91445760000000000,0.5:0.5,0,0,0,0,0,0,5,4,0,0,0,0</value>
					</parameter>
					<parameter authoringApp="PremierePro">
					<parameterid>4</parameterid>
					<name></name>
					<IsTimeVarying>false</IsTimeVarying>
					<ParameterControlType>2</ParameterControlType>
					<LowerBound>0</LowerBound>
					<UpperBound>4000</UpperBound>
					<value>-91445760000000000,100.,0,0,0,0,0,0</value>
					</parameter>
					<parameter authoringApp="PremierePro">
					<parameterid>8</parameterid>
					<name></name>
					<IsTimeVarying>false</IsTimeVarying>
					<ParameterControlType>2</ParameterControlType>
					<LowerBound>0</LowerBound>
					<UpperBound>100</UpperBound>
					<value>-91445760000000000,100.,0,0,0,0,0,0</value>
					</parameter>
					</effect>
					</filter>
					<logginginfo>
					<description></description>
					<scene></scene>
					<shottake></shottake>
					<lognote></lognote>
					<good></good>
					<originalvideofilename></originalvideofilename>
					<originalaudiofilename></originalaudiofilename>
					</logginginfo>
					<colorinfo>
					<lut></lut>
					<lut1></lut1>
					<asc_sop></asc_sop>
					<asc_sat></asc_sat>
					<lut2></lut2>
					</colorinfo>
					<labels>
					</labels>
					</clipitem>
					<clipitem frameBlend="FALSE" id="clipitem-154">
					<masterclipid>masterclip-74</masterclipid>
					<name></name>
					<enabled>TRUE</enabled>
					<duration>2582774</duration>
					<rate>
					
					                                    <timebase>60</timebase>
					                                    <ntsc>TRUE</ntsc>
					                                
					</rate>
					<start>407</start>
					<end>473</end>
					<in>407</in>
					<out>473</out>
					<pproTicksIn>914456774963789</pproTicksIn>
					<pproTicksOut>914677708529577</pproTicksOut>
					<alphatype>straight</alphatype>
					<pixelaspectratio>square</pixelaspectratio>
					<anamorphic>FALSE</anamorphic>
					<file id="file-73">
					<name></name>
					<mediaSource>GraphicAndType</mediaSource>
					<rate>
					<timebase>60</timebase>
					<ntsc>TRUE</ntsc>
					</rate>
					<timecode>
					<rate>
					<timebase>60</timebase>
					<ntsc>TRUE</ntsc>
					</rate>
					<string>00:00:00:00</string>
					<frame>0</frame>
					<displayformat>NDF</displayformat>
					</timecode>
					<media>
					<video>
					<samplecharacteristics>
					<rate>
					<timebase>60</timebase>
					<ntsc>TRUE</ntsc>
					</rate>
					<width>1080</width>
					<height>1920</height>
					<anamorphic>FALSE</anamorphic>
					<pixelaspectratio>square</pixelaspectratio>
					<fielddominance>none</fielddominance>
					</samplecharacteristics>
					</video>
					</media>
					</file>
					<filter>
					<effect>
					<name></name>
					<effectid>GraphicAndType</effectid>
					<effectcategory>graphic</effectcategory>
					<effecttype>filter</effecttype>
					<mediatype>video</mediatype>
					<pproBypass>false</pproBypass>
					<parameter authoringApp="PremierePro">
					<parameterid>1</parameterid>
					<name></name>
					<hash>025b1101-ead6-0ca2-1feb-caf3000001fc</hash>
					<value>5AEAAAAAAABEMyIRDAAAAAAABgAKAAQABgAAAGQAAAAAAF4ASAAQAAwARABAADwAOAAAAAAAAAAAADQAMwAsAAAAKAAkACAAAAAAAAAAAAAAAAAAHAAAAAAAGgAAAAAAAAAUAAAAAAAAAAAAAAAAAAAAAAAAAAgAAAAAABsABwBeAAAAAAAAAUAAAABQAAAAbAAAAAIAAAAAAAEAAQAAAAAAQEEAAMBAAABAQAAAyEIAAAABIAAAAAIAAAACAAAAAAA2QwCASkTw/v//9P7///j+//8S////AAAAAAEAAAAEAAAAEQAAAEhHUFNvZWlLYWt1cG9wdGFpAAAAAQAAAAwAAAAIAAwABAAIAAgAAAAIAAAAUAAAAA8AAADvvIEAAAAAAAAAAAAAAAAAAAA2ACQAAAAgABwAAAAAABsAFAAAAAAAAAAAAAAAAAAAAAAAAAAAABAAAAAAAAAADAAAAAgABAA2AAAAAgAAABwAAAAcAAAAHAAAAAAAIEEAAAABaAAAAE3PAEOw////tP///wEAAAAUAAAAEAAaAAgABwAMAAAAEAAUABAAAAAAAAABHAAAAAAAoEEcAAAAAgAAAAAACgAIAAUABgAHAAoAAAAADAD//P///wQABAAEAAAACAAIAAYABwAIAAAAAAAMAA==</value>
					</parameter>
					<parameter authoringApp="PremierePro">
					<parameterid>2</parameterid>
					<name></name>
					<IsTimeVarying>false</IsTimeVarying>
					<ParameterControlType>11</ParameterControlType>
					<LowerBound>false</LowerBound>
					<UpperBound>false</UpperBound>
					<value>-91445760000000000,false,0,0,0,0,0,0</value>
					</parameter>
					<parameter authoringApp="PremierePro">
					<parameterid>3</parameterid>
					<name></name>
					<IsTimeVarying>false</IsTimeVarying>
					<value>-91445760000000000,0.5:0.5,0,0,0,0,0,0,5,4,0,0,0,0</value>
					</parameter>
					<parameter authoringApp="PremierePro">
					<parameterid>4</parameterid>
					<name></name>
					<IsTimeVarying>false</IsTimeVarying>
					<ParameterControlType>2</ParameterControlType>
					<LowerBound>0</LowerBound>
					<UpperBound>4000</UpperBound>
					<value>-91445760000000000,100.,0,0,0,0,0,0</value>
					</parameter>
					<parameter authoringApp="PremierePro">
					<parameterid>8</parameterid>
					<name></name>
					<IsTimeVarying>false</IsTimeVarying>
					<ParameterControlType>2</ParameterControlType>
					<LowerBound>0</LowerBound>
					<UpperBound>100</UpperBound>
					<value>-91445760000000000,100.,0,0,0,0,0,0</value>
					</parameter>
					</effect>
					</filter>
					<logginginfo>
					<description></description>
					<scene></scene>
					<shottake></shottake>
					<lognote></lognote>
					<good></good>
					<originalvideofilename></originalvideofilename>
					<originalaudiofilename></originalaudiofilename>
					</logginginfo>
					<colorinfo>
					<lut></lut>
					<lut1></lut1>
					<asc_sop></asc_sop>
					<asc_sat></asc_sat>
					<lut2></lut2>
					</colorinfo>
					<labels>
					</labels>
					</clipitem>
					<clipitem frameBlend="FALSE" id="clipitem-159">
					<masterclipid>masterclip-79</masterclipid>
					<name></name>
					<enabled>TRUE</enabled>
					<duration>2582774</duration>
					<rate>
					
					                                    <timebase>60</timebase>
					                                    <ntsc>TRUE</ntsc>
					                                
					</rate>
					<start>473</start>
					<end>533</end>
					<in>473</in>
					<out>533</out>
					<pproTicksIn>914456774963789</pproTicksIn>
					<pproTicksOut>914677708529577</pproTicksOut>
					<alphatype>straight</alphatype>
					<pixelaspectratio>square</pixelaspectratio>
					<anamorphic>FALSE</anamorphic>
					<file id="file-78">
					<name></name>
					<mediaSource>GraphicAndType</mediaSource>
					<rate>
					<timebase>60</timebase>
					<ntsc>TRUE</ntsc>
					</rate>
					<timecode>
					<rate>
					<timebase>60</timebase>
					<ntsc>TRUE</ntsc>
					</rate>
					<string>00:00:00:00</string>
					<frame>0</frame>
					<displayformat>NDF</displayformat>
					</timecode>
					<media>
					<video>
					<samplecharacteristics>
					<rate>
					<timebase>60</timebase>
					<ntsc>TRUE</ntsc>
					</rate>
					<width>1080</width>
					<height>1920</height>
					<anamorphic>FALSE</anamorphic>
					<pixelaspectratio>square</pixelaspectratio>
					<fielddominance>none</fielddominance>
					</samplecharacteristics>
					</video>
					</media>
					</file>
					<filter>
					<effect>
					<name></name>
					<effectid>GraphicAndType</effectid>
					<effectcategory>graphic</effectcategory>
					<effecttype>filter</effecttype>
					<mediatype>video</mediatype>
					<pproBypass>false</pproBypass>
					<parameter authoringApp="PremierePro">
					<parameterid>1</parameterid>
					<name></name>
					<hash>025b1101-ead6-0ca2-1feb-caf3000001fc</hash>
					<value>5AEAAAAAAABEMyIRDAAAAAAABgAKAAQABgAAAGQAAAAAAF4ASAAQAAwARABAADwAOAAAAAAAAAAAADQAMwAsAAAAKAAkACAAAAAAAAAAAAAAAAAAHAAAAAAAGgAAAAAAAAAUAAAAAAAAAAAAAAAAAAAAAAAAAAgAAAAAABsABwBeAAAAAAAAAUAAAABQAAAAbAAAAAIAAAAAAAEAAQAAAAAAQEEAAMBAAABAQAAAyEIAAAABIAAAAAIAAAACAAAAAAA2QwCASkTw/v//9P7///j+//8S////AAAAAAEAAAAEAAAAEQAAAEhHUFNvZWlLYWt1cG9wdGFpAAAAAQAAAAwAAAAIAAwABAAIAAgAAAAIAAAAUAAAAA8AAADvvIEAAAAAAAAAAAAAAAAAAAA2ACQAAAAgABwAAAAAABsAFAAAAAAAAAAAAAAAAAAAAAAAAAAAABAAAAAAAAAADAAAAAgABAA2AAAAAgAAABwAAAAcAAAAHAAAAAAAIEEAAAABaAAAAE3PAEOw////tP///wEAAAAUAAAAEAAaAAgABwAMAAAAEAAUABAAAAAAAAABHAAAAAAAoEEcAAAAAgAAAAAACgAIAAUABgAHAAoAAAAADAD//P///wQABAAEAAAACAAIAAYABwAIAAAAAAAMAA==</value>
					</parameter>
					<parameter authoringApp="PremierePro">
					<parameterid>2</parameterid>
					<name></name>
					<IsTimeVarying>false</IsTimeVarying>
					<ParameterControlType>11</ParameterControlType>
					<LowerBound>false</LowerBound>
					<UpperBound>false</UpperBound>
					<value>-91445760000000000,false,0,0,0,0,0,0</value>
					</parameter>
					<parameter authoringApp="PremierePro">
					<parameterid>3</parameterid>
					<name></name>
					<IsTimeVarying>false</IsTimeVarying>
					<value>-91445760000000000,0.5:0.5,0,0,0,0,0,0,5,4,0,0,0,0</value>
					</parameter>
					<parameter authoringApp="PremierePro">
					<parameterid>4</parameterid>
					<name></name>
					<IsTimeVarying>false</IsTimeVarying>
					<ParameterControlType>2</ParameterControlType>
					<LowerBound>0</LowerBound>
					<UpperBound>4000</UpperBound>
					<value>-91445760000000000,100.,0,0,0,0,0,0</value>
					</parameter>
					<parameter authoringApp="PremierePro">
					<parameterid>8</parameterid>
					<name></name>
					<IsTimeVarying>false</IsTimeVarying>
					<ParameterControlType>2</ParameterControlType>
					<LowerBound>0</LowerBound>
					<UpperBound>100</UpperBound>
					<value>-91445760000000000,100.,0,0,0,0,0,0</value>
					</parameter>
					</effect>
					</filter>
					<logginginfo>
					<description></description>
					<scene></scene>
					<shottake></shottake>
					<lognote></lognote>
					<good></good>
					<originalvideofilename></originalvideofilename>
					<originalaudiofilename></originalaudiofilename>
					</logginginfo>
					<colorinfo>
					<lut></lut>
					<lut1></lut1>
					<asc_sop></asc_sop>
					<asc_sat></asc_sat>
					<lut2></lut2>
					</colorinfo>
					<labels>
					</labels>
					</clipitem>
					<clipitem frameBlend="FALSE" id="clipitem-166">
					<masterclipid>masterclip-86</masterclipid>
					<name></name>
					<enabled>TRUE</enabled>
					<duration>2582774</duration>
					<rate>
					
					                                    <timebase>60</timebase>
					                                    <ntsc>TRUE</ntsc>
					                                
					</rate>
					<start>533</start>
					<end>599</end>
					<in>533</in>
					<out>599</out>
					<pproTicksIn>914456774963789</pproTicksIn>
					<pproTicksOut>914677708529577</pproTicksOut>
					<alphatype>straight</alphatype>
					<pixelaspectratio>square</pixelaspectratio>
					<anamorphic>FALSE</anamorphic>
					<file id="file-85">
					<name></name>
					<mediaSource>GraphicAndType</mediaSource>
					<rate>
					<timebase>60</timebase>
					<ntsc>TRUE</ntsc>
					</rate>
					<timecode>
					<rate>
					<timebase>60</timebase>
					<ntsc>TRUE</ntsc>
					</rate>
					<string>00:00:00:00</string>
					<frame>0</frame>
					<displayformat>NDF</displayformat>
					</timecode>
					<media>
					<video>
					<samplecharacteristics>
					<rate>
					<timebase>60</timebase>
					<ntsc>TRUE</ntsc>
					</rate>
					<width>1080</width>
					<height>1920</height>
					<anamorphic>FALSE</anamorphic>
					<pixelaspectratio>square</pixelaspectratio>
					<fielddominance>none</fielddominance>
					</samplecharacteristics>
					</video>
					</media>
					</file>
					<filter>
					<effect>
					<name></name>
					<effectid>GraphicAndType</effectid>
					<effectcategory>graphic</effectcategory>
					<effecttype>filter</effecttype>
					<mediatype>video</mediatype>
					<pproBypass>false</pproBypass>
					<parameter authoringApp="PremierePro">
					<parameterid>1</parameterid>
					<name></name>
					<hash>025b1101-ead6-0ca2-1feb-caf3000001fc</hash>
					<value>5AEAAAAAAABEMyIRDAAAAAAABgAKAAQABgAAAGQAAAAAAF4ASAAQAAwARABAADwAOAAAAAAAAAAAADQAMwAsAAAAKAAkACAAAAAAAAAAAAAAAAAAHAAAAAAAGgAAAAAAAAAUAAAAAAAAAAAAAAAAAAAAAAAAAAgAAAAAABsABwBeAAAAAAAAAUAAAABQAAAAbAAAAAIAAAAAAAEAAQAAAAAAQEEAAMBAAABAQAAAyEIAAAABIAAAAAIAAAACAAAAAAA2QwCASkTw/v//9P7///j+//8S////AAAAAAEAAAAEAAAAEQAAAEhHUFNvZWlLYWt1cG9wdGFpAAAAAQAAAAwAAAAIAAwABAAIAAgAAAAIAAAAUAAAAA8AAADvvIEAAAAAAAAAAAAAAAAAAAA2ACQAAAAgABwAAAAAABsAFAAAAAAAAAAAAAAAAAAAAAAAAAAAABAAAAAAAAAADAAAAAgABAA2AAAAAgAAABwAAAAcAAAAHAAAAAAAIEEAAAABaAAAAE3PAEOw////tP///wEAAAAUAAAAEAAaAAgABwAMAAAAEAAUABAAAAAAAAABHAAAAAAAoEEcAAAAAgAAAAAACgAIAAUABgAHAAoAAAAADAD//P///wQABAAEAAAACAAIAAYABwAIAAAAAAAMAA==</value>
					</parameter>
					<parameter authoringApp="PremierePro">
					<parameterid>2</parameterid>
					<name></name>
					<IsTimeVarying>false</IsTimeVarying>
					<ParameterControlType>11</ParameterControlType>
					<LowerBound>false</LowerBound>
					<UpperBound>false</UpperBound>
					<value>-91445760000000000,false,0,0,0,0,0,0</value>
					</parameter>
					<parameter authoringApp="PremierePro">
					<parameterid>3</parameterid>
					<name></name>
					<IsTimeVarying>false</IsTimeVarying>
					<value>-91445760000000000,0.5:0.5,0,0,0,0,0,0,5,4,0,0,0,0</value>
					</parameter>
					<parameter authoringApp="PremierePro">
					<parameterid>4</parameterid>
					<name></name>
					<IsTimeVarying>false</IsTimeVarying>
					<ParameterControlType>2</ParameterControlType>
					<LowerBound>0</LowerBound>
					<UpperBound>4000</UpperBound>
					<value>-91445760000000000,100.,0,0,0,0,0,0</value>
					</parameter>
					<parameter authoringApp="PremierePro">
					<parameterid>8</parameterid>
					<name></name>
					<IsTimeVarying>false</IsTimeVarying>
					<ParameterControlType>2</ParameterControlType>
					<LowerBound>0</LowerBound>
					<UpperBound>100</UpperBound>
					<value>-91445760000000000,100.,0,0,0,0,0,0</value>
					</parameter>
					</effect>
					</filter>
					<logginginfo>
					<description></description>
					<scene></scene>
					<shottake></shottake>
					<lognote></lognote>
					<good></good>
					<originalvideofilename></originalvideofilename>
					<originalaudiofilename></originalaudiofilename>
					</logginginfo>
					<colorinfo>
					<lut></lut>
					<lut1></lut1>
					<asc_sop></asc_sop>
					<asc_sat></asc_sat>
					<lut2></lut2>
					</colorinfo>
					<labels>
					</labels>
					</clipitem>
					<clipitem frameBlend="FALSE" id="clipitem-175">
					<masterclipid>masterclip-95</masterclipid>
					<name></name>
					<enabled>TRUE</enabled>
					<duration>2582774</duration>
					<rate>
					
					                                    <timebase>60</timebase>
					                                    <ntsc>TRUE</ntsc>
					                                
					</rate>
					<start>599</start>
					<end>659</end>
					<in>599</in>
					<out>659</out>
					<pproTicksIn>914456774963789</pproTicksIn>
					<pproTicksOut>914677708529577</pproTicksOut>
					<alphatype>straight</alphatype>
					<pixelaspectratio>square</pixelaspectratio>
					<anamorphic>FALSE</anamorphic>
					<file id="file-94">
					<name></name>
					<mediaSource>GraphicAndType</mediaSource>
					<rate>
					<timebase>60</timebase>
					<ntsc>TRUE</ntsc>
					</rate>
					<timecode>
					<rate>
					<timebase>60</timebase>
					<ntsc>TRUE</ntsc>
					</rate>
					<string>00:00:00:00</string>
					<frame>0</frame>
					<displayformat>NDF</displayformat>
					</timecode>
					<media>
					<video>
					<samplecharacteristics>
					<rate>
					<timebase>60</timebase>
					<ntsc>TRUE</ntsc>
					</rate>
					<width>1080</width>
					<height>1920</height>
					<anamorphic>FALSE</anamorphic>
					<pixelaspectratio>square</pixelaspectratio>
					<fielddominance>none</fielddominance>
					</samplecharacteristics>
					</video>
					</media>
					</file>
					<filter>
					<effect>
					<name></name>
					<effectid>GraphicAndType</effectid>
					<effectcategory>graphic</effectcategory>
					<effecttype>filter</effecttype>
					<mediatype>video</mediatype>
					<pproBypass>false</pproBypass>
					<parameter authoringApp="PremierePro">
					<parameterid>1</parameterid>
					<name></name>
					<hash>025b1101-ead6-0ca2-1feb-caf3000001fc</hash>
					<value>5AEAAAAAAABEMyIRDAAAAAAABgAKAAQABgAAAGQAAAAAAF4ASAAQAAwARABAADwAOAAAAAAAAAAAADQAMwAsAAAAKAAkACAAAAAAAAAAAAAAAAAAHAAAAAAAGgAAAAAAAAAUAAAAAAAAAAAAAAAAAAAAAAAAAAgAAAAAABsABwBeAAAAAAAAAUAAAABQAAAAbAAAAAIAAAAAAAEAAQAAAAAAQEEAAMBAAABAQAAAyEIAAAABIAAAAAIAAAACAAAAAAA2QwCASkTw/v//9P7///j+//8S////AAAAAAEAAAAEAAAAEQAAAEhHUFNvZWlLYWt1cG9wdGFpAAAAAQAAAAwAAAAIAAwABAAIAAgAAAAIAAAAUAAAAA8AAADvvIEAAAAAAAAAAAAAAAAAAAA2ACQAAAAgABwAAAAAABsAFAAAAAAAAAAAAAAAAAAAAAAAAAAAABAAAAAAAAAADAAAAAgABAA2AAAAAgAAABwAAAAcAAAAHAAAAAAAIEEAAAABaAAAAE3PAEOw////tP///wEAAAAUAAAAEAAaAAgABwAMAAAAEAAUABAAAAAAAAABHAAAAAAAoEEcAAAAAgAAAAAACgAIAAUABgAHAAoAAAAADAD//P///wQABAAEAAAACAAIAAYABwAIAAAAAAAMAA==</value>
					</parameter>
					<parameter authoringApp="PremierePro">
					<parameterid>2</parameterid>
					<name></name>
					<IsTimeVarying>false</IsTimeVarying>
					<ParameterControlType>11</ParameterControlType>
					<LowerBound>false</LowerBound>
					<UpperBound>false</UpperBound>
					<value>-91445760000000000,false,0,0,0,0,0,0</value>
					</parameter>
					<parameter authoringApp="PremierePro">
					<parameterid>3</parameterid>
					<name></name>
					<IsTimeVarying>false</IsTimeVarying>
					<value>-91445760000000000,0.5:0.5,0,0,0,0,0,0,5,4,0,0,0,0</value>
					</parameter>
					<parameter authoringApp="PremierePro">
					<parameterid>4</parameterid>
					<name></name>
					<IsTimeVarying>false</IsTimeVarying>
					<ParameterControlType>2</ParameterControlType>
					<LowerBound>0</LowerBound>
					<UpperBound>4000</UpperBound>
					<value>-91445760000000000,100.,0,0,0,0,0,0</value>
					</parameter>
					<parameter authoringApp="PremierePro">
					<parameterid>8</parameterid>
					<name></name>
					<IsTimeVarying>false</IsTimeVarying>
					<ParameterControlType>2</ParameterControlType>
					<LowerBound>0</LowerBound>
					<UpperBound>100</UpperBound>
					<value>-91445760000000000,100.,0,0,0,0,0,0</value>
					</parameter>
					</effect>
					</filter>
					<logginginfo>
					<description></description>
					<scene></scene>
					<shottake></shottake>
					<lognote></lognote>
					<good></good>
					<originalvideofilename></originalvideofilename>
					<originalaudiofilename></originalaudiofilename>
					</logginginfo>
					<colorinfo>
					<lut></lut>
					<lut1></lut1>
					<asc_sop></asc_sop>
					<asc_sat></asc_sat>
					<lut2></lut2>
					</colorinfo>
					<labels>
					</labels>
					</clipitem>
					<clipitem frameBlend="FALSE" id="clipitem-183">
					<masterclipid>masterclip-103</masterclipid>
					<name></name>
					<enabled>TRUE</enabled>
					<duration>2582774</duration>
					<rate>
					
					                                    <timebase>60</timebase>
					                                    <ntsc>TRUE</ntsc>
					                                
					</rate>
					<start>665</start>
					<end>725</end>
					<in>665</in>
					<out>725</out>
					<pproTicksIn>914456774963789</pproTicksIn>
					<pproTicksOut>914677708529577</pproTicksOut>
					<alphatype>straight</alphatype>
					<pixelaspectratio>square</pixelaspectratio>
					<anamorphic>FALSE</anamorphic>
					<file id="file-102">
					<name></name>
					<mediaSource>GraphicAndType</mediaSource>
					<rate>
					<timebase>60</timebase>
					<ntsc>TRUE</ntsc>
					</rate>
					<timecode>
					<rate>
					<timebase>60</timebase>
					<ntsc>TRUE</ntsc>
					</rate>
					<string>00:00:00:00</string>
					<frame>0</frame>
					<displayformat>NDF</displayformat>
					</timecode>
					<media>
					<video>
					<samplecharacteristics>
					<rate>
					<timebase>60</timebase>
					<ntsc>TRUE</ntsc>
					</rate>
					<width>1080</width>
					<height>1920</height>
					<anamorphic>FALSE</anamorphic>
					<pixelaspectratio>square</pixelaspectratio>
					<fielddominance>none</fielddominance>
					</samplecharacteristics>
					</video>
					</media>
					</file>
					<filter>
					<effect>
					<name></name>
					<effectid>GraphicAndType</effectid>
					<effectcategory>graphic</effectcategory>
					<effecttype>filter</effecttype>
					<mediatype>video</mediatype>
					<pproBypass>false</pproBypass>
					<parameter authoringApp="PremierePro">
					<parameterid>1</parameterid>
					<name></name>
					<hash>025b1101-ead6-0ca2-1feb-caf3000001fc</hash>
					<value>5AEAAAAAAABEMyIRDAAAAAAABgAKAAQABgAAAGQAAAAAAF4ASAAQAAwARABAADwAOAAAAAAAAAAAADQAMwAsAAAAKAAkACAAAAAAAAAAAAAAAAAAHAAAAAAAGgAAAAAAAAAUAAAAAAAAAAAAAAAAAAAAAAAAAAgAAAAAABsABwBeAAAAAAAAAUAAAABQAAAAbAAAAAIAAAAAAAEAAQAAAAAAQEEAAMBAAABAQAAAyEIAAAABIAAAAAIAAAACAAAAAAA2QwCASkTw/v//9P7///j+//8S////AAAAAAEAAAAEAAAAEQAAAEhHUFNvZWlLYWt1cG9wdGFpAAAAAQAAAAwAAAAIAAwABAAIAAgAAAAIAAAAUAAAAA8AAADvvIEAAAAAAAAAAAAAAAAAAAA2ACQAAAAgABwAAAAAABsAFAAAAAAAAAAAAAAAAAAAAAAAAAAAABAAAAAAAAAADAAAAAgABAA2AAAAAgAAABwAAAAcAAAAHAAAAAAAIEEAAAABaAAAAE3PAEOw////tP///wEAAAAUAAAAEAAaAAgABwAMAAAAEAAUABAAAAAAAAABHAAAAAAAoEEcAAAAAgAAAAAACgAIAAUABgAHAAoAAAAADAD//P///wQABAAEAAAACAAIAAYABwAIAAAAAAAMAA==</value>
					</parameter>
					<parameter authoringApp="PremierePro">
					<parameterid>2</parameterid>
					<name></name>
					<IsTimeVarying>false</IsTimeVarying>
					<ParameterControlType>11</ParameterControlType>
					<LowerBound>false</LowerBound>
					<UpperBound>false</UpperBound>
					<value>-91445760000000000,false,0,0,0,0,0,0</value>
					</parameter>
					<parameter authoringApp="PremierePro">
					<parameterid>3</parameterid>
					<name></name>
					<IsTimeVarying>false</IsTimeVarying>
					<value>-91445760000000000,0.5:0.5,0,0,0,0,0,0,5,4,0,0,0,0</value>
					</parameter>
					<parameter authoringApp="PremierePro">
					<parameterid>4</parameterid>
					<name></name>
					<IsTimeVarying>false</IsTimeVarying>
					<ParameterControlType>2</ParameterControlType>
					<LowerBound>0</LowerBound>
					<UpperBound>4000</UpperBound>
					<value>-91445760000000000,100.,0,0,0,0,0,0</value>
					</parameter>
					<parameter authoringApp="PremierePro">
					<parameterid>8</parameterid>
					<name></name>
					<IsTimeVarying>false</IsTimeVarying>
					<ParameterControlType>2</ParameterControlType>
					<LowerBound>0</LowerBound>
					<UpperBound>100</UpperBound>
					<value>-91445760000000000,100.,0,0,0,0,0,0</value>
					</parameter>
					</effect>
					</filter>
					<logginginfo>
					<description></description>
					<scene></scene>
					<shottake></shottake>
					<lognote></lognote>
					<good></good>
					<originalvideofilename></originalvideofilename>
					<originalaudiofilename></originalaudiofilename>
					</logginginfo>
					<colorinfo>
					<lut></lut>
					<lut1></lut1>
					<asc_sop></asc_sop>
					<asc_sat></asc_sat>
					<lut2></lut2>
					</colorinfo>
					<labels>
					</labels>
					</clipitem>
					<clipitem frameBlend="FALSE" id="clipitem-191">
					<masterclipid>masterclip-111</masterclipid>
					<name></name>
					<enabled>TRUE</enabled>
					<duration>2582774</duration>
					<rate>
					
					                                    <timebase>60</timebase>
					                                    <ntsc>TRUE</ntsc>
					                                
					</rate>
					<start>743</start>
					<end>803</end>
					<in>743</in>
					<out>803</out>
					<pproTicksIn>914456774963789</pproTicksIn>
					<pproTicksOut>914677708529577</pproTicksOut>
					<alphatype>straight</alphatype>
					<pixelaspectratio>square</pixelaspectratio>
					<anamorphic>FALSE</anamorphic>
					<file id="file-110">
					<name></name>
					<mediaSource>GraphicAndType</mediaSource>
					<rate>
					<timebase>60</timebase>
					<ntsc>TRUE</ntsc>
					</rate>
					<timecode>
					<rate>
					<timebase>60</timebase>
					<ntsc>TRUE</ntsc>
					</rate>
					<string>00:00:00:00</string>
					<frame>0</frame>
					<displayformat>NDF</displayformat>
					</timecode>
					<media>
					<video>
					<samplecharacteristics>
					<rate>
					<timebase>60</timebase>
					<ntsc>TRUE</ntsc>
					</rate>
					<width>1080</width>
					<height>1920</height>
					<anamorphic>FALSE</anamorphic>
					<pixelaspectratio>square</pixelaspectratio>
					<fielddominance>none</fielddominance>
					</samplecharacteristics>
					</video>
					</media>
					</file>
					<filter>
					<effect>
					<name></name>
					<effectid>GraphicAndType</effectid>
					<effectcategory>graphic</effectcategory>
					<effecttype>filter</effecttype>
					<mediatype>video</mediatype>
					<pproBypass>false</pproBypass>
					<parameter authoringApp="PremierePro">
					<parameterid>1</parameterid>
					<name></name>
					<hash>025b1101-ead6-0ca2-1feb-caf3000001fc</hash>
					<value>5AEAAAAAAABEMyIRDAAAAAAABgAKAAQABgAAAGQAAAAAAF4ASAAQAAwARABAADwAOAAAAAAAAAAAADQAMwAsAAAAKAAkACAAAAAAAAAAAAAAAAAAHAAAAAAAGgAAAAAAAAAUAAAAAAAAAAAAAAAAAAAAAAAAAAgAAAAAABsABwBeAAAAAAAAAUAAAABQAAAAbAAAAAIAAAAAAAEAAQAAAAAAQEEAAMBAAABAQAAAyEIAAAABIAAAAAIAAAACAAAAAAA2QwCASkTw/v//9P7///j+//8S////AAAAAAEAAAAEAAAAEQAAAEhHUFNvZWlLYWt1cG9wdGFpAAAAAQAAAAwAAAAIAAwABAAIAAgAAAAIAAAAUAAAAA8AAADvvIEAAAAAAAAAAAAAAAAAAAA2ACQAAAAgABwAAAAAABsAFAAAAAAAAAAAAAAAAAAAAAAAAAAAABAAAAAAAAAADAAAAAgABAA2AAAAAgAAABwAAAAcAAAAHAAAAAAAIEEAAAABaAAAAE3PAEOw////tP///wEAAAAUAAAAEAAaAAgABwAMAAAAEAAUABAAAAAAAAABHAAAAAAAoEEcAAAAAgAAAAAACgAIAAUABgAHAAoAAAAADAD//P///wQABAAEAAAACAAIAAYABwAIAAAAAAAMAA==</value>
					</parameter>
					<parameter authoringApp="PremierePro">
					<parameterid>2</parameterid>
					<name></name>
					<IsTimeVarying>false</IsTimeVarying>
					<ParameterControlType>11</ParameterControlType>
					<LowerBound>false</LowerBound>
					<UpperBound>false</UpperBound>
					<value>-91445760000000000,false,0,0,0,0,0,0</value>
					</parameter>
					<parameter authoringApp="PremierePro">
					<parameterid>3</parameterid>
					<name></name>
					<IsTimeVarying>false</IsTimeVarying>
					<value>-91445760000000000,0.5:0.5,0,0,0,0,0,0,5,4,0,0,0,0</value>
					</parameter>
					<parameter authoringApp="PremierePro">
					<parameterid>4</parameterid>
					<name></name>
					<IsTimeVarying>false</IsTimeVarying>
					<ParameterControlType>2</ParameterControlType>
					<LowerBound>0</LowerBound>
					<UpperBound>4000</UpperBound>
					<value>-91445760000000000,100.,0,0,0,0,0,0</value>
					</parameter>
					<parameter authoringApp="PremierePro">
					<parameterid>8</parameterid>
					<name></name>
					<IsTimeVarying>false</IsTimeVarying>
					<ParameterControlType>2</ParameterControlType>
					<LowerBound>0</LowerBound>
					<UpperBound>100</UpperBound>
					<value>-91445760000000000,100.,0,0,0,0,0,0</value>
					</parameter>
					</effect>
					</filter>
					<logginginfo>
					<description></description>
					<scene></scene>
					<shottake></shottake>
					<lognote></lognote>
					<good></good>
					<originalvideofilename></originalvideofilename>
					<originalaudiofilename></originalaudiofilename>
					</logginginfo>
					<colorinfo>
					<lut></lut>
					<lut1></lut1>
					<asc_sop></asc_sop>
					<asc_sat></asc_sat>
					<lut2></lut2>
					</colorinfo>
					<labels>
					</labels>
					</clipitem>
					<clipitem frameBlend="FALSE" id="clipitem-198">
					<masterclipid>masterclip-118</masterclipid>
					<name></name>
					<enabled>TRUE</enabled>
					<duration>2582774</duration>
					<rate>
					
					                                    <timebase>60</timebase>
					                                    <ntsc>TRUE</ntsc>
					                                
					</rate>
					<start>803</start>
					<end>863</end>
					<in>803</in>
					<out>863</out>
					<pproTicksIn>914456774963789</pproTicksIn>
					<pproTicksOut>914677708529577</pproTicksOut>
					<alphatype>straight</alphatype>
					<pixelaspectratio>square</pixelaspectratio>
					<anamorphic>FALSE</anamorphic>
					<file id="file-117">
					<name></name>
					<mediaSource>GraphicAndType</mediaSource>
					<rate>
					<timebase>60</timebase>
					<ntsc>TRUE</ntsc>
					</rate>
					<timecode>
					<rate>
					<timebase>60</timebase>
					<ntsc>TRUE</ntsc>
					</rate>
					<string>00:00:00:00</string>
					<frame>0</frame>
					<displayformat>NDF</displayformat>
					</timecode>
					<media>
					<video>
					<samplecharacteristics>
					<rate>
					<timebase>60</timebase>
					<ntsc>TRUE</ntsc>
					</rate>
					<width>1080</width>
					<height>1920</height>
					<anamorphic>FALSE</anamorphic>
					<pixelaspectratio>square</pixelaspectratio>
					<fielddominance>none</fielddominance>
					</samplecharacteristics>
					</video>
					</media>
					</file>
					<filter>
					<effect>
					<name></name>
					<effectid>GraphicAndType</effectid>
					<effectcategory>graphic</effectcategory>
					<effecttype>filter</effecttype>
					<mediatype>video</mediatype>
					<pproBypass>false</pproBypass>
					<parameter authoringApp="PremierePro">
					<parameterid>1</parameterid>
					<name></name>
					<hash>025b1101-ead6-0ca2-1feb-caf3000001fc</hash>
					<value>5AEAAAAAAABEMyIRDAAAAAAABgAKAAQABgAAAGQAAAAAAF4ASAAQAAwARABAADwAOAAAAAAAAAAAADQAMwAsAAAAKAAkACAAAAAAAAAAAAAAAAAAHAAAAAAAGgAAAAAAAAAUAAAAAAAAAAAAAAAAAAAAAAAAAAgAAAAAABsABwBeAAAAAAAAAUAAAABQAAAAbAAAAAIAAAAAAAEAAQAAAAAAQEEAAMBAAABAQAAAyEIAAAABIAAAAAIAAAACAAAAAAA2QwCASkTw/v//9P7///j+//8S////AAAAAAEAAAAEAAAAEQAAAEhHUFNvZWlLYWt1cG9wdGFpAAAAAQAAAAwAAAAIAAwABAAIAAgAAAAIAAAAUAAAAA8AAADvvIEAAAAAAAAAAAAAAAAAAAA2ACQAAAAgABwAAAAAABsAFAAAAAAAAAAAAAAAAAAAAAAAAAAAABAAAAAAAAAADAAAAAgABAA2AAAAAgAAABwAAAAcAAAAHAAAAAAAIEEAAAABaAAAAE3PAEOw////tP///wEAAAAUAAAAEAAaAAgABwAMAAAAEAAUABAAAAAAAAABHAAAAAAAoEEcAAAAAgAAAAAACgAIAAUABgAHAAoAAAAADAD//P///wQABAAEAAAACAAIAAYABwAIAAAAAAAMAA==</value>
					</parameter>
					<parameter authoringApp="PremierePro">
					<parameterid>2</parameterid>
					<name></name>
					<IsTimeVarying>false</IsTimeVarying>
					<ParameterControlType>11</ParameterControlType>
					<LowerBound>false</LowerBound>
					<UpperBound>false</UpperBound>
					<value>-91445760000000000,false,0,0,0,0,0,0</value>
					</parameter>
					<parameter authoringApp="PremierePro">
					<parameterid>3</parameterid>
					<name></name>
					<IsTimeVarying>false</IsTimeVarying>
					<value>-91445760000000000,0.5:0.5,0,0,0,0,0,0,5,4,0,0,0,0</value>
					</parameter>
					<parameter authoringApp="PremierePro">
					<parameterid>4</parameterid>
					<name></name>
					<IsTimeVarying>false</IsTimeVarying>
					<ParameterControlType>2</ParameterControlType>
					<LowerBound>0</LowerBound>
					<UpperBound>4000</UpperBound>
					<value>-91445760000000000,100.,0,0,0,0,0,0</value>
					</parameter>
					<parameter authoringApp="PremierePro">
					<parameterid>8</parameterid>
					<name></name>
					<IsTimeVarying>false</IsTimeVarying>
					<ParameterControlType>2</ParameterControlType>
					<LowerBound>0</LowerBound>
					<UpperBound>100</UpperBound>
					<value>-91445760000000000,100.,0,0,0,0,0,0</value>
					</parameter>
					</effect>
					</filter>
					<logginginfo>
					<description></description>
					<scene></scene>
					<shottake></shottake>
					<lognote></lognote>
					<good></good>
					<originalvideofilename></originalvideofilename>
					<originalaudiofilename></originalaudiofilename>
					</logginginfo>
					<colorinfo>
					<lut></lut>
					<lut1></lut1>
					<asc_sop></asc_sop>
					<asc_sat></asc_sat>
					<lut2></lut2>
					</colorinfo>
					<labels>
					</labels>
					</clipitem>
					<clipitem frameBlend="FALSE" id="clipitem-206">
					<masterclipid>masterclip-126</masterclipid>
					<name></name>
					<enabled>TRUE</enabled>
					<duration>2582774</duration>
					<rate>
					
					                                    <timebase>60</timebase>
					                                    <ntsc>TRUE</ntsc>
					                                
					</rate>
					<start>863</start>
					<end>923</end>
					<in>863</in>
					<out>923</out>
					<pproTicksIn>914456774963789</pproTicksIn>
					<pproTicksOut>914677708529577</pproTicksOut>
					<alphatype>straight</alphatype>
					<pixelaspectratio>square</pixelaspectratio>
					<anamorphic>FALSE</anamorphic>
					<file id="file-125">
					<name></name>
					<mediaSource>GraphicAndType</mediaSource>
					<rate>
					<timebase>60</timebase>
					<ntsc>TRUE</ntsc>
					</rate>
					<timecode>
					<rate>
					<timebase>60</timebase>
					<ntsc>TRUE</ntsc>
					</rate>
					<string>00:00:00:00</string>
					<frame>0</frame>
					<displayformat>NDF</displayformat>
					</timecode>
					<media>
					<video>
					<samplecharacteristics>
					<rate>
					<timebase>60</timebase>
					<ntsc>TRUE</ntsc>
					</rate>
					<width>1080</width>
					<height>1920</height>
					<anamorphic>FALSE</anamorphic>
					<pixelaspectratio>square</pixelaspectratio>
					<fielddominance>none</fielddominance>
					</samplecharacteristics>
					</video>
					</media>
					</file>
					<filter>
					<effect>
					<name></name>
					<effectid>GraphicAndType</effectid>
					<effectcategory>graphic</effectcategory>
					<effecttype>filter</effecttype>
					<mediatype>video</mediatype>
					<pproBypass>false</pproBypass>
					<parameter authoringApp="PremierePro">
					<parameterid>1</parameterid>
					<name></name>
					<hash>025b1101-ead6-0ca2-1feb-caf3000001fc</hash>
					<value>5AEAAAAAAABEMyIRDAAAAAAABgAKAAQABgAAAGQAAAAAAF4ASAAQAAwARABAADwAOAAAAAAAAAAAADQAMwAsAAAAKAAkACAAAAAAAAAAAAAAAAAAHAAAAAAAGgAAAAAAAAAUAAAAAAAAAAAAAAAAAAAAAAAAAAgAAAAAABsABwBeAAAAAAAAAUAAAABQAAAAbAAAAAIAAAAAAAEAAQAAAAAAQEEAAMBAAABAQAAAyEIAAAABIAAAAAIAAAACAAAAAAA2QwCASkTw/v//9P7///j+//8S////AAAAAAEAAAAEAAAAEQAAAEhHUFNvZWlLYWt1cG9wdGFpAAAAAQAAAAwAAAAIAAwABAAIAAgAAAAIAAAAUAAAAA8AAADvvIEAAAAAAAAAAAAAAAAAAAA2ACQAAAAgABwAAAAAABsAFAAAAAAAAAAAAAAAAAAAAAAAAAAAABAAAAAAAAAADAAAAAgABAA2AAAAAgAAABwAAAAcAAAAHAAAAAAAIEEAAAABaAAAAE3PAEOw////tP///wEAAAAUAAAAEAAaAAgABwAMAAAAEAAUABAAAAAAAAABHAAAAAAAoEEcAAAAAgAAAAAACgAIAAUABgAHAAoAAAAADAD//P///wQABAAEAAAACAAIAAYABwAIAAAAAAAMAA==</value>
					</parameter>
					<parameter authoringApp="PremierePro">
					<parameterid>2</parameterid>
					<name></name>
					<IsTimeVarying>false</IsTimeVarying>
					<ParameterControlType>11</ParameterControlType>
					<LowerBound>false</LowerBound>
					<UpperBound>false</UpperBound>
					<value>-91445760000000000,false,0,0,0,0,0,0</value>
					</parameter>
					<parameter authoringApp="PremierePro">
					<parameterid>3</parameterid>
					<name></name>
					<IsTimeVarying>false</IsTimeVarying>
					<value>-91445760000000000,0.5:0.5,0,0,0,0,0,0,5,4,0,0,0,0</value>
					</parameter>
					<parameter authoringApp="PremierePro">
					<parameterid>4</parameterid>
					<name></name>
					<IsTimeVarying>false</IsTimeVarying>
					<ParameterControlType>2</ParameterControlType>
					<LowerBound>0</LowerBound>
					<UpperBound>4000</UpperBound>
					<value>-91445760000000000,100.,0,0,0,0,0,0</value>
					</parameter>
					<parameter authoringApp="PremierePro">
					<parameterid>8</parameterid>
					<name></name>
					<IsTimeVarying>false</IsTimeVarying>
					<ParameterControlType>2</ParameterControlType>
					<LowerBound>0</LowerBound>
					<UpperBound>100</UpperBound>
					<value>-91445760000000000,100.,0,0,0,0,0,0</value>
					</parameter>
					</effect>
					</filter>
					<logginginfo>
					<description></description>
					<scene></scene>
					<shottake></shottake>
					<lognote></lognote>
					<good></good>
					<originalvideofilename></originalvideofilename>
					<originalaudiofilename></originalaudiofilename>
					</logginginfo>
					<colorinfo>
					<lut></lut>
					<lut1></lut1>
					<asc_sop></asc_sop>
					<asc_sat></asc_sat>
					<lut2></lut2>
					</colorinfo>
					<labels>
					</labels>
					</clipitem>
					<clipitem frameBlend="FALSE" id="clipitem-214">
					<masterclipid>masterclip-134</masterclipid>
					<name></name>
					<enabled>TRUE</enabled>
					<duration>2582774</duration>
					<rate>
					
					                                    <timebase>60</timebase>
					                                    <ntsc>TRUE</ntsc>
					                                
					</rate>
					<start>923</start>
					<end>983</end>
					<in>923</in>
					<out>983</out>
					<pproTicksIn>914456774963789</pproTicksIn>
					<pproTicksOut>914677708529577</pproTicksOut>
					<alphatype>straight</alphatype>
					<pixelaspectratio>square</pixelaspectratio>
					<anamorphic>FALSE</anamorphic>
					<file id="file-133">
					<name></name>
					<mediaSource>GraphicAndType</mediaSource>
					<rate>
					<timebase>60</timebase>
					<ntsc>TRUE</ntsc>
					</rate>
					<timecode>
					<rate>
					<timebase>60</timebase>
					<ntsc>TRUE</ntsc>
					</rate>
					<string>00:00:00:00</string>
					<frame>0</frame>
					<displayformat>NDF</displayformat>
					</timecode>
					<media>
					<video>
					<samplecharacteristics>
					<rate>
					<timebase>60</timebase>
					<ntsc>TRUE</ntsc>
					</rate>
					<width>1080</width>
					<height>1920</height>
					<anamorphic>FALSE</anamorphic>
					<pixelaspectratio>square</pixelaspectratio>
					<fielddominance>none</fielddominance>
					</samplecharacteristics>
					</video>
					</media>
					</file>
					<filter>
					<effect>
					<name></name>
					<effectid>GraphicAndType</effectid>
					<effectcategory>graphic</effectcategory>
					<effecttype>filter</effecttype>
					<mediatype>video</mediatype>
					<pproBypass>false</pproBypass>
					<parameter authoringApp="PremierePro">
					<parameterid>1</parameterid>
					<name></name>
					<hash>025b1101-ead6-0ca2-1feb-caf3000001fc</hash>
					<value>5AEAAAAAAABEMyIRDAAAAAAABgAKAAQABgAAAGQAAAAAAF4ASAAQAAwARABAADwAOAAAAAAAAAAAADQAMwAsAAAAKAAkACAAAAAAAAAAAAAAAAAAHAAAAAAAGgAAAAAAAAAUAAAAAAAAAAAAAAAAAAAAAAAAAAgAAAAAABsABwBeAAAAAAAAAUAAAABQAAAAbAAAAAIAAAAAAAEAAQAAAAAAQEEAAMBAAABAQAAAyEIAAAABIAAAAAIAAAACAAAAAAA2QwCASkTw/v//9P7///j+//8S////AAAAAAEAAAAEAAAAEQAAAEhHUFNvZWlLYWt1cG9wdGFpAAAAAQAAAAwAAAAIAAwABAAIAAgAAAAIAAAAUAAAAA8AAADvvIEAAAAAAAAAAAAAAAAAAAA2ACQAAAAgABwAAAAAABsAFAAAAAAAAAAAAAAAAAAAAAAAAAAAABAAAAAAAAAADAAAAAgABAA2AAAAAgAAABwAAAAcAAAAHAAAAAAAIEEAAAABaAAAAE3PAEOw////tP///wEAAAAUAAAAEAAaAAgABwAMAAAAEAAUABAAAAAAAAABHAAAAAAAoEEcAAAAAgAAAAAACgAIAAUABgAHAAoAAAAADAD//P///wQABAAEAAAACAAIAAYABwAIAAAAAAAMAA==</value>
					</parameter>
					<parameter authoringApp="PremierePro">
					<parameterid>2</parameterid>
					<name></name>
					<IsTimeVarying>false</IsTimeVarying>
					<ParameterControlType>11</ParameterControlType>
					<LowerBound>false</LowerBound>
					<UpperBound>false</UpperBound>
					<value>-91445760000000000,false,0,0,0,0,0,0</value>
					</parameter>
					<parameter authoringApp="PremierePro">
					<parameterid>3</parameterid>
					<name></name>
					<IsTimeVarying>false</IsTimeVarying>
					<value>-91445760000000000,0.5:0.5,0,0,0,0,0,0,5,4,0,0,0,0</value>
					</parameter>
					<parameter authoringApp="PremierePro">
					<parameterid>4</parameterid>
					<name></name>
					<IsTimeVarying>false</IsTimeVarying>
					<ParameterControlType>2</ParameterControlType>
					<LowerBound>0</LowerBound>
					<UpperBound>4000</UpperBound>
					<value>-91445760000000000,100.,0,0,0,0,0,0</value>
					</parameter>
					<parameter authoringApp="PremierePro">
					<parameterid>8</parameterid>
					<name></name>
					<IsTimeVarying>false</IsTimeVarying>
					<ParameterControlType>2</ParameterControlType>
					<LowerBound>0</LowerBound>
					<UpperBound>100</UpperBound>
					<value>-91445760000000000,100.,0,0,0,0,0,0</value>
					</parameter>
					</effect>
					</filter>
					<logginginfo>
					<description></description>
					<scene></scene>
					<shottake></shottake>
					<lognote></lognote>
					<good></good>
					<originalvideofilename></originalvideofilename>
					<originalaudiofilename></originalaudiofilename>
					</logginginfo>
					<colorinfo>
					<lut></lut>
					<lut1></lut1>
					<asc_sop></asc_sop>
					<asc_sat></asc_sat>
					<lut2></lut2>
					</colorinfo>
					<labels>
					</labels>
					</clipitem>
					<clipitem frameBlend="FALSE" id="clipitem-225">
					<masterclipid>masterclip-145</masterclipid>
					<name></name>
					<enabled>TRUE</enabled>
					<duration>2582774</duration>
					<rate>
					
					                                    <timebase>60</timebase>
					                                    <ntsc>TRUE</ntsc>
					                                
					</rate>
					<start>983</start>
					<end>1043</end>
					<in>983</in>
					<out>1043</out>
					<pproTicksIn>914456774963789</pproTicksIn>
					<pproTicksOut>914677708529577</pproTicksOut>
					<alphatype>straight</alphatype>
					<pixelaspectratio>square</pixelaspectratio>
					<anamorphic>FALSE</anamorphic>
					<file id="file-144">
					<name></name>
					<mediaSource>GraphicAndType</mediaSource>
					<rate>
					<timebase>60</timebase>
					<ntsc>TRUE</ntsc>
					</rate>
					<timecode>
					<rate>
					<timebase>60</timebase>
					<ntsc>TRUE</ntsc>
					</rate>
					<string>00:00:00:00</string>
					<frame>0</frame>
					<displayformat>NDF</displayformat>
					</timecode>
					<media>
					<video>
					<samplecharacteristics>
					<rate>
					<timebase>60</timebase>
					<ntsc>TRUE</ntsc>
					</rate>
					<width>1080</width>
					<height>1920</height>
					<anamorphic>FALSE</anamorphic>
					<pixelaspectratio>square</pixelaspectratio>
					<fielddominance>none</fielddominance>
					</samplecharacteristics>
					</video>
					</media>
					</file>
					<filter>
					<effect>
					<name></name>
					<effectid>GraphicAndType</effectid>
					<effectcategory>graphic</effectcategory>
					<effecttype>filter</effecttype>
					<mediatype>video</mediatype>
					<pproBypass>false</pproBypass>
					<parameter authoringApp="PremierePro">
					<parameterid>1</parameterid>
					<name></name>
					<hash>025b1101-ead6-0ca2-1feb-caf3000001fc</hash>
					<value>5AEAAAAAAABEMyIRDAAAAAAABgAKAAQABgAAAGQAAAAAAF4ASAAQAAwARABAADwAOAAAAAAAAAAAADQAMwAsAAAAKAAkACAAAAAAAAAAAAAAAAAAHAAAAAAAGgAAAAAAAAAUAAAAAAAAAAAAAAAAAAAAAAAAAAgAAAAAABsABwBeAAAAAAAAAUAAAABQAAAAbAAAAAIAAAAAAAEAAQAAAAAAQEEAAMBAAABAQAAAyEIAAAABIAAAAAIAAAACAAAAAAA2QwCASkTw/v//9P7///j+//8S////AAAAAAEAAAAEAAAAEQAAAEhHUFNvZWlLYWt1cG9wdGFpAAAAAQAAAAwAAAAIAAwABAAIAAgAAAAIAAAAUAAAAA8AAADvvIEAAAAAAAAAAAAAAAAAAAA2ACQAAAAgABwAAAAAABsAFAAAAAAAAAAAAAAAAAAAAAAAAAAAABAAAAAAAAAADAAAAAgABAA2AAAAAgAAABwAAAAcAAAAHAAAAAAAIEEAAAABaAAAAE3PAEOw////tP///wEAAAAUAAAAEAAaAAgABwAMAAAAEAAUABAAAAAAAAABHAAAAAAAoEEcAAAAAgAAAAAACgAIAAUABgAHAAoAAAAADAD//P///wQABAAEAAAACAAIAAYABwAIAAAAAAAMAA==</value>
					</parameter>
					<parameter authoringApp="PremierePro">
					<parameterid>2</parameterid>
					<name></name>
					<IsTimeVarying>false</IsTimeVarying>
					<ParameterControlType>11</ParameterControlType>
					<LowerBound>false</LowerBound>
					<UpperBound>false</UpperBound>
					<value>-91445760000000000,false,0,0,0,0,0,0</value>
					</parameter>
					<parameter authoringApp="PremierePro">
					<parameterid>3</parameterid>
					<name></name>
					<IsTimeVarying>false</IsTimeVarying>
					<value>-91445760000000000,0.5:0.5,0,0,0,0,0,0,5,4,0,0,0,0</value>
					</parameter>
					<parameter authoringApp="PremierePro">
					<parameterid>4</parameterid>
					<name></name>
					<IsTimeVarying>false</IsTimeVarying>
					<ParameterControlType>2</ParameterControlType>
					<LowerBound>0</LowerBound>
					<UpperBound>4000</UpperBound>
					<value>-91445760000000000,100.,0,0,0,0,0,0</value>
					</parameter>
					<parameter authoringApp="PremierePro">
					<parameterid>8</parameterid>
					<name></name>
					<IsTimeVarying>false</IsTimeVarying>
					<ParameterControlType>2</ParameterControlType>
					<LowerBound>0</LowerBound>
					<UpperBound>100</UpperBound>
					<value>-91445760000000000,100.,0,0,0,0,0,0</value>
					</parameter>
					</effect>
					</filter>
					<logginginfo>
					<description></description>
					<scene></scene>
					<shottake></shottake>
					<lognote></lognote>
					<good></good>
					<originalvideofilename></originalvideofilename>
					<originalaudiofilename></originalaudiofilename>
					</logginginfo>
					<colorinfo>
					<lut></lut>
					<lut1></lut1>
					<asc_sop></asc_sop>
					<asc_sat></asc_sat>
					<lut2></lut2>
					</colorinfo>
					<labels>
					</labels>
					</clipitem>
					<clipitem frameBlend="FALSE" id="clipitem-236">
					<masterclipid>masterclip-156</masterclipid>
					<name></name>
					<enabled>TRUE</enabled>
					<duration>2582774</duration>
					<rate>
					
					                                    <timebase>60</timebase>
					                                    <ntsc>TRUE</ntsc>
					                                
					</rate>
					<start>1043</start>
					<end>1109</end>
					<in>1043</in>
					<out>1109</out>
					<pproTicksIn>914456774963789</pproTicksIn>
					<pproTicksOut>914677708529577</pproTicksOut>
					<alphatype>straight</alphatype>
					<pixelaspectratio>square</pixelaspectratio>
					<anamorphic>FALSE</anamorphic>
					<file id="file-155">
					<name></name>
					<mediaSource>GraphicAndType</mediaSource>
					<rate>
					<timebase>60</timebase>
					<ntsc>TRUE</ntsc>
					</rate>
					<timecode>
					<rate>
					<timebase>60</timebase>
					<ntsc>TRUE</ntsc>
					</rate>
					<string>00:00:00:00</string>
					<frame>0</frame>
					<displayformat>NDF</displayformat>
					</timecode>
					<media>
					<video>
					<samplecharacteristics>
					<rate>
					<timebase>60</timebase>
					<ntsc>TRUE</ntsc>
					</rate>
					<width>1080</width>
					<height>1920</height>
					<anamorphic>FALSE</anamorphic>
					<pixelaspectratio>square</pixelaspectratio>
					<fielddominance>none</fielddominance>
					</samplecharacteristics>
					</video>
					</media>
					</file>
					<filter>
					<effect>
					<name></name>
					<effectid>GraphicAndType</effectid>
					<effectcategory>graphic</effectcategory>
					<effecttype>filter</effecttype>
					<mediatype>video</mediatype>
					<pproBypass>false</pproBypass>
					<parameter authoringApp="PremierePro">
					<parameterid>1</parameterid>
					<name></name>
					<hash>025b1101-ead6-0ca2-1feb-caf3000001fc</hash>
					<value>5AEAAAAAAABEMyIRDAAAAAAABgAKAAQABgAAAGQAAAAAAF4ASAAQAAwARABAADwAOAAAAAAAAAAAADQAMwAsAAAAKAAkACAAAAAAAAAAAAAAAAAAHAAAAAAAGgAAAAAAAAAUAAAAAAAAAAAAAAAAAAAAAAAAAAgAAAAAABsABwBeAAAAAAAAAUAAAABQAAAAbAAAAAIAAAAAAAEAAQAAAAAAQEEAAMBAAABAQAAAyEIAAAABIAAAAAIAAAACAAAAAAA2QwCASkTw/v//9P7///j+//8S////AAAAAAEAAAAEAAAAEQAAAEhHUFNvZWlLYWt1cG9wdGFpAAAAAQAAAAwAAAAIAAwABAAIAAgAAAAIAAAAUAAAAA8AAADvvIEAAAAAAAAAAAAAAAAAAAA2ACQAAAAgABwAAAAAABsAFAAAAAAAAAAAAAAAAAAAAAAAAAAAABAAAAAAAAAADAAAAAgABAA2AAAAAgAAABwAAAAcAAAAHAAAAAAAIEEAAAABaAAAAE3PAEOw////tP///wEAAAAUAAAAEAAaAAgABwAMAAAAEAAUABAAAAAAAAABHAAAAAAAoEEcAAAAAgAAAAAACgAIAAUABgAHAAoAAAAADAD//P///wQABAAEAAAACAAIAAYABwAIAAAAAAAMAA==</value>
					</parameter>
					<parameter authoringApp="PremierePro">
					<parameterid>2</parameterid>
					<name></name>
					<IsTimeVarying>false</IsTimeVarying>
					<ParameterControlType>11</ParameterControlType>
					<LowerBound>false</LowerBound>
					<UpperBound>false</UpperBound>
					<value>-91445760000000000,false,0,0,0,0,0,0</value>
					</parameter>
					<parameter authoringApp="PremierePro">
					<parameterid>3</parameterid>
					<name></name>
					<IsTimeVarying>false</IsTimeVarying>
					<value>-91445760000000000,0.5:0.5,0,0,0,0,0,0,5,4,0,0,0,0</value>
					</parameter>
					<parameter authoringApp="PremierePro">
					<parameterid>4</parameterid>
					<name></name>
					<IsTimeVarying>false</IsTimeVarying>
					<ParameterControlType>2</ParameterControlType>
					<LowerBound>0</LowerBound>
					<UpperBound>4000</UpperBound>
					<value>-91445760000000000,100.,0,0,0,0,0,0</value>
					</parameter>
					<parameter authoringApp="PremierePro">
					<parameterid>8</parameterid>
					<name></name>
					<IsTimeVarying>false</IsTimeVarying>
					<ParameterControlType>2</ParameterControlType>
					<LowerBound>0</LowerBound>
					<UpperBound>100</UpperBound>
					<value>-91445760000000000,100.,0,0,0,0,0,0</value>
					</parameter>
					</effect>
					</filter>
					<logginginfo>
					<description></description>
					<scene></scene>
					<shottake></shottake>
					<lognote></lognote>
					<good></good>
					<originalvideofilename></originalvideofilename>
					<originalaudiofilename></originalaudiofilename>
					</logginginfo>
					<colorinfo>
					<lut></lut>
					<lut1></lut1>
					<asc_sop></asc_sop>
					<asc_sat></asc_sat>
					<lut2></lut2>
					</colorinfo>
					<labels>
					</labels>
					</clipitem>
					<clipitem frameBlend="FALSE" id="clipitem-242">
					<masterclipid>masterclip-162</masterclipid>
					<name></name>
					<enabled>TRUE</enabled>
					<duration>2582774</duration>
					<rate>
					
					                                    <timebase>60</timebase>
					                                    <ntsc>TRUE</ntsc>
					                                
					</rate>
					<start>1109</start>
					<end>1175</end>
					<in>1109</in>
					<out>1175</out>
					<pproTicksIn>914456774963789</pproTicksIn>
					<pproTicksOut>914677708529577</pproTicksOut>
					<alphatype>straight</alphatype>
					<pixelaspectratio>square</pixelaspectratio>
					<anamorphic>FALSE</anamorphic>
					<file id="file-161">
					<name></name>
					<mediaSource>GraphicAndType</mediaSource>
					<rate>
					<timebase>60</timebase>
					<ntsc>TRUE</ntsc>
					</rate>
					<timecode>
					<rate>
					<timebase>60</timebase>
					<ntsc>TRUE</ntsc>
					</rate>
					<string>00:00:00:00</string>
					<frame>0</frame>
					<displayformat>NDF</displayformat>
					</timecode>
					<media>
					<video>
					<samplecharacteristics>
					<rate>
					<timebase>60</timebase>
					<ntsc>TRUE</ntsc>
					</rate>
					<width>1080</width>
					<height>1920</height>
					<anamorphic>FALSE</anamorphic>
					<pixelaspectratio>square</pixelaspectratio>
					<fielddominance>none</fielddominance>
					</samplecharacteristics>
					</video>
					</media>
					</file>
					<filter>
					<effect>
					<name></name>
					<effectid>GraphicAndType</effectid>
					<effectcategory>graphic</effectcategory>
					<effecttype>filter</effecttype>
					<mediatype>video</mediatype>
					<pproBypass>false</pproBypass>
					<parameter authoringApp="PremierePro">
					<parameterid>1</parameterid>
					<name></name>
					<hash>025b1101-ead6-0ca2-1feb-caf3000001fc</hash>
					<value>5AEAAAAAAABEMyIRDAAAAAAABgAKAAQABgAAAGQAAAAAAF4ASAAQAAwARABAADwAOAAAAAAAAAAAADQAMwAsAAAAKAAkACAAAAAAAAAAAAAAAAAAHAAAAAAAGgAAAAAAAAAUAAAAAAAAAAAAAAAAAAAAAAAAAAgAAAAAABsABwBeAAAAAAAAAUAAAABQAAAAbAAAAAIAAAAAAAEAAQAAAAAAQEEAAMBAAABAQAAAyEIAAAABIAAAAAIAAAACAAAAAAA2QwCASkTw/v//9P7///j+//8S////AAAAAAEAAAAEAAAAEQAAAEhHUFNvZWlLYWt1cG9wdGFpAAAAAQAAAAwAAAAIAAwABAAIAAgAAAAIAAAAUAAAAA8AAADvvIEAAAAAAAAAAAAAAAAAAAA2ACQAAAAgABwAAAAAABsAFAAAAAAAAAAAAAAAAAAAAAAAAAAAABAAAAAAAAAADAAAAAgABAA2AAAAAgAAABwAAAAcAAAAHAAAAAAAIEEAAAABaAAAAE3PAEOw////tP///wEAAAAUAAAAEAAaAAgABwAMAAAAEAAUABAAAAAAAAABHAAAAAAAoEEcAAAAAgAAAAAACgAIAAUABgAHAAoAAAAADAD//P///wQABAAEAAAACAAIAAYABwAIAAAAAAAMAA==</value>
					</parameter>
					<parameter authoringApp="PremierePro">
					<parameterid>2</parameterid>
					<name></name>
					<IsTimeVarying>false</IsTimeVarying>
					<ParameterControlType>11</ParameterControlType>
					<LowerBound>false</LowerBound>
					<UpperBound>false</UpperBound>
					<value>-91445760000000000,false,0,0,0,0,0,0</value>
					</parameter>
					<parameter authoringApp="PremierePro">
					<parameterid>3</parameterid>
					<name></name>
					<IsTimeVarying>false</IsTimeVarying>
					<value>-91445760000000000,0.5:0.5,0,0,0,0,0,0,5,4,0,0,0,0</value>
					</parameter>
					<parameter authoringApp="PremierePro">
					<parameterid>4</parameterid>
					<name></name>
					<IsTimeVarying>false</IsTimeVarying>
					<ParameterControlType>2</ParameterControlType>
					<LowerBound>0</LowerBound>
					<UpperBound>4000</UpperBound>
					<value>-91445760000000000,100.,0,0,0,0,0,0</value>
					</parameter>
					<parameter authoringApp="PremierePro">
					<parameterid>8</parameterid>
					<name></name>
					<IsTimeVarying>false</IsTimeVarying>
					<ParameterControlType>2</ParameterControlType>
					<LowerBound>0</LowerBound>
					<UpperBound>100</UpperBound>
					<value>-91445760000000000,100.,0,0,0,0,0,0</value>
					</parameter>
					</effect>
					</filter>
					<logginginfo>
					<description></description>
					<scene></scene>
					<shottake></shottake>
					<lognote></lognote>
					<good></good>
					<originalvideofilename></originalvideofilename>
					<originalaudiofilename></originalaudiofilename>
					</logginginfo>
					<colorinfo>
					<lut></lut>
					<lut1></lut1>
					<asc_sop></asc_sop>
					<asc_sat></asc_sat>
					<lut2></lut2>
					</colorinfo>
					<labels>
					</labels>
					</clipitem>
					<clipitem frameBlend="FALSE" id="clipitem-247">
					<masterclipid>masterclip-167</masterclipid>
					<name></name>
					<enabled>TRUE</enabled>
					<duration>2582774</duration>
					<rate>
					
					                                    <timebase>60</timebase>
					                                    <ntsc>TRUE</ntsc>
					                                
					</rate>
					<start>1181</start>
					<end>1241</end>
					<in>1181</in>
					<out>1241</out>
					<pproTicksIn>914456774963789</pproTicksIn>
					<pproTicksOut>914677708529577</pproTicksOut>
					<alphatype>straight</alphatype>
					<pixelaspectratio>square</pixelaspectratio>
					<anamorphic>FALSE</anamorphic>
					<file id="file-166">
					<name></name>
					<mediaSource>GraphicAndType</mediaSource>
					<rate>
					<timebase>60</timebase>
					<ntsc>TRUE</ntsc>
					</rate>
					<timecode>
					<rate>
					<timebase>60</timebase>
					<ntsc>TRUE</ntsc>
					</rate>
					<string>00:00:00:00</string>
					<frame>0</frame>
					<displayformat>NDF</displayformat>
					</timecode>
					<media>
					<video>
					<samplecharacteristics>
					<rate>
					<timebase>60</timebase>
					<ntsc>TRUE</ntsc>
					</rate>
					<width>1080</width>
					<height>1920</height>
					<anamorphic>FALSE</anamorphic>
					<pixelaspectratio>square</pixelaspectratio>
					<fielddominance>none</fielddominance>
					</samplecharacteristics>
					</video>
					</media>
					</file>
					<filter>
					<effect>
					<name></name>
					<effectid>GraphicAndType</effectid>
					<effectcategory>graphic</effectcategory>
					<effecttype>filter</effecttype>
					<mediatype>video</mediatype>
					<pproBypass>false</pproBypass>
					<parameter authoringApp="PremierePro">
					<parameterid>1</parameterid>
					<name></name>
					<hash>025b1101-ead6-0ca2-1feb-caf3000001fc</hash>
					<value>5AEAAAAAAABEMyIRDAAAAAAABgAKAAQABgAAAGQAAAAAAF4ASAAQAAwARABAADwAOAAAAAAAAAAAADQAMwAsAAAAKAAkACAAAAAAAAAAAAAAAAAAHAAAAAAAGgAAAAAAAAAUAAAAAAAAAAAAAAAAAAAAAAAAAAgAAAAAABsABwBeAAAAAAAAAUAAAABQAAAAbAAAAAIAAAAAAAEAAQAAAAAAQEEAAMBAAABAQAAAyEIAAAABIAAAAAIAAAACAAAAAAA2QwCASkTw/v//9P7///j+//8S////AAAAAAEAAAAEAAAAEQAAAEhHUFNvZWlLYWt1cG9wdGFpAAAAAQAAAAwAAAAIAAwABAAIAAgAAAAIAAAAUAAAAA8AAADvvIEAAAAAAAAAAAAAAAAAAAA2ACQAAAAgABwAAAAAABsAFAAAAAAAAAAAAAAAAAAAAAAAAAAAABAAAAAAAAAADAAAAAgABAA2AAAAAgAAABwAAAAcAAAAHAAAAAAAIEEAAAABaAAAAE3PAEOw////tP///wEAAAAUAAAAEAAaAAgABwAMAAAAEAAUABAAAAAAAAABHAAAAAAAoEEcAAAAAgAAAAAACgAIAAUABgAHAAoAAAAADAD//P///wQABAAEAAAACAAIAAYABwAIAAAAAAAMAA==</value>
					</parameter>
					<parameter authoringApp="PremierePro">
					<parameterid>2</parameterid>
					<name></name>
					<IsTimeVarying>false</IsTimeVarying>
					<ParameterControlType>11</ParameterControlType>
					<LowerBound>false</LowerBound>
					<UpperBound>false</UpperBound>
					<value>-91445760000000000,false,0,0,0,0,0,0</value>
					</parameter>
					<parameter authoringApp="PremierePro">
					<parameterid>3</parameterid>
					<name></name>
					<IsTimeVarying>false</IsTimeVarying>
					<value>-91445760000000000,0.5:0.5,0,0,0,0,0,0,5,4,0,0,0,0</value>
					</parameter>
					<parameter authoringApp="PremierePro">
					<parameterid>4</parameterid>
					<name></name>
					<IsTimeVarying>false</IsTimeVarying>
					<ParameterControlType>2</ParameterControlType>
					<LowerBound>0</LowerBound>
					<UpperBound>4000</UpperBound>
					<value>-91445760000000000,100.,0,0,0,0,0,0</value>
					</parameter>
					<parameter authoringApp="PremierePro">
					<parameterid>8</parameterid>
					<name></name>
					<IsTimeVarying>false</IsTimeVarying>
					<ParameterControlType>2</ParameterControlType>
					<LowerBound>0</LowerBound>
					<UpperBound>100</UpperBound>
					<value>-91445760000000000,100.,0,0,0,0,0,0</value>
					</parameter>
					</effect>
					</filter>
					<logginginfo>
					<description></description>
					<scene></scene>
					<shottake></shottake>
					<lognote></lognote>
					<good></good>
					<originalvideofilename></originalvideofilename>
					<originalaudiofilename></originalaudiofilename>
					</logginginfo>
					<colorinfo>
					<lut></lut>
					<lut1></lut1>
					<asc_sop></asc_sop>
					<asc_sat></asc_sat>
					<lut2></lut2>
					</colorinfo>
					<labels>
					</labels>
					</clipitem>
					<clipitem frameBlend="FALSE" id="clipitem-253">
					<masterclipid>masterclip-173</masterclipid>
					<name></name>
					<enabled>TRUE</enabled>
					<duration>2582774</duration>
					<rate>
					
					                                    <timebase>60</timebase>
					                                    <ntsc>TRUE</ntsc>
					                                
					</rate>
					<start>1253</start>
					<end>1313</end>
					<in>1253</in>
					<out>1313</out>
					<pproTicksIn>914456774963789</pproTicksIn>
					<pproTicksOut>914677708529577</pproTicksOut>
					<alphatype>straight</alphatype>
					<pixelaspectratio>square</pixelaspectratio>
					<anamorphic>FALSE</anamorphic>
					<file id="file-172">
					<name></name>
					<mediaSource>GraphicAndType</mediaSource>
					<rate>
					<timebase>60</timebase>
					<ntsc>TRUE</ntsc>
					</rate>
					<timecode>
					<rate>
					<timebase>60</timebase>
					<ntsc>TRUE</ntsc>
					</rate>
					<string>00:00:00:00</string>
					<frame>0</frame>
					<displayformat>NDF</displayformat>
					</timecode>
					<media>
					<video>
					<samplecharacteristics>
					<rate>
					<timebase>60</timebase>
					<ntsc>TRUE</ntsc>
					</rate>
					<width>1080</width>
					<height>1920</height>
					<anamorphic>FALSE</anamorphic>
					<pixelaspectratio>square</pixelaspectratio>
					<fielddominance>none</fielddominance>
					</samplecharacteristics>
					</video>
					</media>
					</file>
					<filter>
					<effect>
					<name></name>
					<effectid>GraphicAndType</effectid>
					<effectcategory>graphic</effectcategory>
					<effecttype>filter</effecttype>
					<mediatype>video</mediatype>
					<pproBypass>false</pproBypass>
					<parameter authoringApp="PremierePro">
					<parameterid>1</parameterid>
					<name></name>
					<hash>025b1101-ead6-0ca2-1feb-caf3000001fc</hash>
					<value>5AEAAAAAAABEMyIRDAAAAAAABgAKAAQABgAAAGQAAAAAAF4ASAAQAAwARABAADwAOAAAAAAAAAAAADQAMwAsAAAAKAAkACAAAAAAAAAAAAAAAAAAHAAAAAAAGgAAAAAAAAAUAAAAAAAAAAAAAAAAAAAAAAAAAAgAAAAAABsABwBeAAAAAAAAAUAAAABQAAAAbAAAAAIAAAAAAAEAAQAAAAAAQEEAAMBAAABAQAAAyEIAAAABIAAAAAIAAAACAAAAAAA2QwCASkTw/v//9P7///j+//8S////AAAAAAEAAAAEAAAAEQAAAEhHUFNvZWlLYWt1cG9wdGFpAAAAAQAAAAwAAAAIAAwABAAIAAgAAAAIAAAAUAAAAA8AAADvvIEAAAAAAAAAAAAAAAAAAAA2ACQAAAAgABwAAAAAABsAFAAAAAAAAAAAAAAAAAAAAAAAAAAAABAAAAAAAAAADAAAAAgABAA2AAAAAgAAABwAAAAcAAAAHAAAAAAAIEEAAAABaAAAAE3PAEOw////tP///wEAAAAUAAAAEAAaAAgABwAMAAAAEAAUABAAAAAAAAABHAAAAAAAoEEcAAAAAgAAAAAACgAIAAUABgAHAAoAAAAADAD//P///wQABAAEAAAACAAIAAYABwAIAAAAAAAMAA==</value>
					</parameter>
					<parameter authoringApp="PremierePro">
					<parameterid>2</parameterid>
					<name></name>
					<IsTimeVarying>false</IsTimeVarying>
					<ParameterControlType>11</ParameterControlType>
					<LowerBound>false</LowerBound>
					<UpperBound>false</UpperBound>
					<value>-91445760000000000,false,0,0,0,0,0,0</value>
					</parameter>
					<parameter authoringApp="PremierePro">
					<parameterid>3</parameterid>
					<name></name>
					<IsTimeVarying>false</IsTimeVarying>
					<value>-91445760000000000,0.5:0.5,0,0,0,0,0,0,5,4,0,0,0,0</value>
					</parameter>
					<parameter authoringApp="PremierePro">
					<parameterid>4</parameterid>
					<name></name>
					<IsTimeVarying>false</IsTimeVarying>
					<ParameterControlType>2</ParameterControlType>
					<LowerBound>0</LowerBound>
					<UpperBound>4000</UpperBound>
					<value>-91445760000000000,100.,0,0,0,0,0,0</value>
					</parameter>
					<parameter authoringApp="PremierePro">
					<parameterid>8</parameterid>
					<name></name>
					<IsTimeVarying>false</IsTimeVarying>
					<ParameterControlType>2</ParameterControlType>
					<LowerBound>0</LowerBound>
					<UpperBound>100</UpperBound>
					<value>-91445760000000000,100.,0,0,0,0,0,0</value>
					</parameter>
					</effect>
					</filter>
					<logginginfo>
					<description></description>
					<scene></scene>
					<shottake></shottake>
					<lognote></lognote>
					<good></good>
					<originalvideofilename></originalvideofilename>
					<originalaudiofilename></originalaudiofilename>
					</logginginfo>
					<colorinfo>
					<lut></lut>
					<lut1></lut1>
					<asc_sop></asc_sop>
					<asc_sat></asc_sat>
					<lut2></lut2>
					</colorinfo>
					<labels>
					</labels>
					</clipitem>
					<clipitem frameBlend="FALSE" id="clipitem-261">
					<masterclipid>masterclip-181</masterclipid>
					<name></name>
					<enabled>TRUE</enabled>
					<duration>2582774</duration>
					<rate>
					
					                                    <timebase>60</timebase>
					                                    <ntsc>TRUE</ntsc>
					                                
					</rate>
					<start>1331</start>
					<end>1391</end>
					<in>1331</in>
					<out>1391</out>
					<pproTicksIn>914456774963789</pproTicksIn>
					<pproTicksOut>914677708529577</pproTicksOut>
					<alphatype>straight</alphatype>
					<pixelaspectratio>square</pixelaspectratio>
					<anamorphic>FALSE</anamorphic>
					<file id="file-180">
					<name></name>
					<mediaSource>GraphicAndType</mediaSource>
					<rate>
					<timebase>60</timebase>
					<ntsc>TRUE</ntsc>
					</rate>
					<timecode>
					<rate>
					<timebase>60</timebase>
					<ntsc>TRUE</ntsc>
					</rate>
					<string>00:00:00:00</string>
					<frame>0</frame>
					<displayformat>NDF</displayformat>
					</timecode>
					<media>
					<video>
					<samplecharacteristics>
					<rate>
					<timebase>60</timebase>
					<ntsc>TRUE</ntsc>
					</rate>
					<width>1080</width>
					<height>1920</height>
					<anamorphic>FALSE</anamorphic>
					<pixelaspectratio>square</pixelaspectratio>
					<fielddominance>none</fielddominance>
					</samplecharacteristics>
					</video>
					</media>
					</file>
					<filter>
					<effect>
					<name></name>
					<effectid>GraphicAndType</effectid>
					<effectcategory>graphic</effectcategory>
					<effecttype>filter</effecttype>
					<mediatype>video</mediatype>
					<pproBypass>false</pproBypass>
					<parameter authoringApp="PremierePro">
					<parameterid>1</parameterid>
					<name></name>
					<hash>025b1101-ead6-0ca2-1feb-caf3000001fc</hash>
					<value>5AEAAAAAAABEMyIRDAAAAAAABgAKAAQABgAAAGQAAAAAAF4ASAAQAAwARABAADwAOAAAAAAAAAAAADQAMwAsAAAAKAAkACAAAAAAAAAAAAAAAAAAHAAAAAAAGgAAAAAAAAAUAAAAAAAAAAAAAAAAAAAAAAAAAAgAAAAAABsABwBeAAAAAAAAAUAAAABQAAAAbAAAAAIAAAAAAAEAAQAAAAAAQEEAAMBAAABAQAAAyEIAAAABIAAAAAIAAAACAAAAAAA2QwCASkTw/v//9P7///j+//8S////AAAAAAEAAAAEAAAAEQAAAEhHUFNvZWlLYWt1cG9wdGFpAAAAAQAAAAwAAAAIAAwABAAIAAgAAAAIAAAAUAAAAA8AAADvvIEAAAAAAAAAAAAAAAAAAAA2ACQAAAAgABwAAAAAABsAFAAAAAAAAAAAAAAAAAAAAAAAAAAAABAAAAAAAAAADAAAAAgABAA2AAAAAgAAABwAAAAcAAAAHAAAAAAAIEEAAAABaAAAAE3PAEOw////tP///wEAAAAUAAAAEAAaAAgABwAMAAAAEAAUABAAAAAAAAABHAAAAAAAoEEcAAAAAgAAAAAACgAIAAUABgAHAAoAAAAADAD//P///wQABAAEAAAACAAIAAYABwAIAAAAAAAMAA==</value>
					</parameter>
					<parameter authoringApp="PremierePro">
					<parameterid>2</parameterid>
					<name></name>
					<IsTimeVarying>false</IsTimeVarying>
					<ParameterControlType>11</ParameterControlType>
					<LowerBound>false</LowerBound>
					<UpperBound>false</UpperBound>
					<value>-91445760000000000,false,0,0,0,0,0,0</value>
					</parameter>
					<parameter authoringApp="PremierePro">
					<parameterid>3</parameterid>
					<name></name>
					<IsTimeVarying>false</IsTimeVarying>
					<value>-91445760000000000,0.5:0.5,0,0,0,0,0,0,5,4,0,0,0,0</value>
					</parameter>
					<parameter authoringApp="PremierePro">
					<parameterid>4</parameterid>
					<name></name>
					<IsTimeVarying>false</IsTimeVarying>
					<ParameterControlType>2</ParameterControlType>
					<LowerBound>0</LowerBound>
					<UpperBound>4000</UpperBound>
					<value>-91445760000000000,100.,0,0,0,0,0,0</value>
					</parameter>
					<parameter authoringApp="PremierePro">
					<parameterid>8</parameterid>
					<name></name>
					<IsTimeVarying>false</IsTimeVarying>
					<ParameterControlType>2</ParameterControlType>
					<LowerBound>0</LowerBound>
					<UpperBound>100</UpperBound>
					<value>-91445760000000000,100.,0,0,0,0,0,0</value>
					</parameter>
					</effect>
					</filter>
					<logginginfo>
					<description></description>
					<scene></scene>
					<shottake></shottake>
					<lognote></lognote>
					<good></good>
					<originalvideofilename></originalvideofilename>
					<originalaudiofilename></originalaudiofilename>
					</logginginfo>
					<colorinfo>
					<lut></lut>
					<lut1></lut1>
					<asc_sop></asc_sop>
					<asc_sat></asc_sat>
					<lut2></lut2>
					</colorinfo>
					<labels>
					</labels>
					</clipitem>
					<clipitem frameBlend="FALSE" id="clipitem-269">
					<masterclipid>masterclip-189</masterclipid>
					<name></name>
					<enabled>TRUE</enabled>
					<duration>2582774</duration>
					<rate>
					
					                                    <timebase>60</timebase>
					                                    <ntsc>TRUE</ntsc>
					                                
					</rate>
					<start>1403</start>
					<end>1463</end>
					<in>1403</in>
					<out>1463</out>
					<pproTicksIn>914456774963789</pproTicksIn>
					<pproTicksOut>914677708529577</pproTicksOut>
					<alphatype>straight</alphatype>
					<pixelaspectratio>square</pixelaspectratio>
					<anamorphic>FALSE</anamorphic>
					<file id="file-188">
					<name></name>
					<mediaSource>GraphicAndType</mediaSource>
					<rate>
					<timebase>60</timebase>
					<ntsc>TRUE</ntsc>
					</rate>
					<timecode>
					<rate>
					<timebase>60</timebase>
					<ntsc>TRUE</ntsc>
					</rate>
					<string>00:00:00:00</string>
					<frame>0</frame>
					<displayformat>NDF</displayformat>
					</timecode>
					<media>
					<video>
					<samplecharacteristics>
					<rate>
					<timebase>60</timebase>
					<ntsc>TRUE</ntsc>
					</rate>
					<width>1080</width>
					<height>1920</height>
					<anamorphic>FALSE</anamorphic>
					<pixelaspectratio>square</pixelaspectratio>
					<fielddominance>none</fielddominance>
					</samplecharacteristics>
					</video>
					</media>
					</file>
					<filter>
					<effect>
					<name></name>
					<effectid>GraphicAndType</effectid>
					<effectcategory>graphic</effectcategory>
					<effecttype>filter</effecttype>
					<mediatype>video</mediatype>
					<pproBypass>false</pproBypass>
					<parameter authoringApp="PremierePro">
					<parameterid>1</parameterid>
					<name></name>
					<hash>025b1101-ead6-0ca2-1feb-caf3000001fc</hash>
					<value>5AEAAAAAAABEMyIRDAAAAAAABgAKAAQABgAAAGQAAAAAAF4ASAAQAAwARABAADwAOAAAAAAAAAAAADQAMwAsAAAAKAAkACAAAAAAAAAAAAAAAAAAHAAAAAAAGgAAAAAAAAAUAAAAAAAAAAAAAAAAAAAAAAAAAAgAAAAAABsABwBeAAAAAAAAAUAAAABQAAAAbAAAAAIAAAAAAAEAAQAAAAAAQEEAAMBAAABAQAAAyEIAAAABIAAAAAIAAAACAAAAAAA2QwCASkTw/v//9P7///j+//8S////AAAAAAEAAAAEAAAAEQAAAEhHUFNvZWlLYWt1cG9wdGFpAAAAAQAAAAwAAAAIAAwABAAIAAgAAAAIAAAAUAAAAA8AAADvvIEAAAAAAAAAAAAAAAAAAAA2ACQAAAAgABwAAAAAABsAFAAAAAAAAAAAAAAAAAAAAAAAAAAAABAAAAAAAAAADAAAAAgABAA2AAAAAgAAABwAAAAcAAAAHAAAAAAAIEEAAAABaAAAAE3PAEOw////tP///wEAAAAUAAAAEAAaAAgABwAMAAAAEAAUABAAAAAAAAABHAAAAAAAoEEcAAAAAgAAAAAACgAIAAUABgAHAAoAAAAADAD//P///wQABAAEAAAACAAIAAYABwAIAAAAAAAMAA==</value>
					</parameter>
					<parameter authoringApp="PremierePro">
					<parameterid>2</parameterid>
					<name></name>
					<IsTimeVarying>false</IsTimeVarying>
					<ParameterControlType>11</ParameterControlType>
					<LowerBound>false</LowerBound>
					<UpperBound>false</UpperBound>
					<value>-91445760000000000,false,0,0,0,0,0,0</value>
					</parameter>
					<parameter authoringApp="PremierePro">
					<parameterid>3</parameterid>
					<name></name>
					<IsTimeVarying>false</IsTimeVarying>
					<value>-91445760000000000,0.5:0.5,0,0,0,0,0,0,5,4,0,0,0,0</value>
					</parameter>
					<parameter authoringApp="PremierePro">
					<parameterid>4</parameterid>
					<name></name>
					<IsTimeVarying>false</IsTimeVarying>
					<ParameterControlType>2</ParameterControlType>
					<LowerBound>0</LowerBound>
					<UpperBound>4000</UpperBound>
					<value>-91445760000000000,100.,0,0,0,0,0,0</value>
					</parameter>
					<parameter authoringApp="PremierePro">
					<parameterid>8</parameterid>
					<name></name>
					<IsTimeVarying>false</IsTimeVarying>
					<ParameterControlType>2</ParameterControlType>
					<LowerBound>0</LowerBound>
					<UpperBound>100</UpperBound>
					<value>-91445760000000000,100.,0,0,0,0,0,0</value>
					</parameter>
					</effect>
					</filter>
					<logginginfo>
					<description></description>
					<scene></scene>
					<shottake></shottake>
					<lognote></lognote>
					<good></good>
					<originalvideofilename></originalvideofilename>
					<originalaudiofilename></originalaudiofilename>
					</logginginfo>
					<colorinfo>
					<lut></lut>
					<lut1></lut1>
					<asc_sop></asc_sop>
					<asc_sat></asc_sat>
					<lut2></lut2>
					</colorinfo>
					<labels>
					</labels>
					</clipitem>
					<clipitem frameBlend="FALSE" id="clipitem-276">
					<masterclipid>masterclip-196</masterclipid>
					<name></name>
					<enabled>TRUE</enabled>
					<duration>2582774</duration>
					<rate>
					
					                                    <timebase>60</timebase>
					                                    <ntsc>TRUE</ntsc>
					                                
					</rate>
					<start>1475</start>
					<end>1535</end>
					<in>1475</in>
					<out>1535</out>
					<pproTicksIn>914456774963789</pproTicksIn>
					<pproTicksOut>914677708529577</pproTicksOut>
					<alphatype>straight</alphatype>
					<pixelaspectratio>square</pixelaspectratio>
					<anamorphic>FALSE</anamorphic>
					<file id="file-195">
					<name></name>
					<mediaSource>GraphicAndType</mediaSource>
					<rate>
					<timebase>60</timebase>
					<ntsc>TRUE</ntsc>
					</rate>
					<timecode>
					<rate>
					<timebase>60</timebase>
					<ntsc>TRUE</ntsc>
					</rate>
					<string>00:00:00:00</string>
					<frame>0</frame>
					<displayformat>NDF</displayformat>
					</timecode>
					<media>
					<video>
					<samplecharacteristics>
					<rate>
					<timebase>60</timebase>
					<ntsc>TRUE</ntsc>
					</rate>
					<width>1080</width>
					<height>1920</height>
					<anamorphic>FALSE</anamorphic>
					<pixelaspectratio>square</pixelaspectratio>
					<fielddominance>none</fielddominance>
					</samplecharacteristics>
					</video>
					</media>
					</file>
					<filter>
					<effect>
					<name></name>
					<effectid>GraphicAndType</effectid>
					<effectcategory>graphic</effectcategory>
					<effecttype>filter</effecttype>
					<mediatype>video</mediatype>
					<pproBypass>false</pproBypass>
					<parameter authoringApp="PremierePro">
					<parameterid>1</parameterid>
					<name></name>
					<hash>025b1101-ead6-0ca2-1feb-caf3000001fc</hash>
					<value>5AEAAAAAAABEMyIRDAAAAAAABgAKAAQABgAAAGQAAAAAAF4ASAAQAAwARABAADwAOAAAAAAAAAAAADQAMwAsAAAAKAAkACAAAAAAAAAAAAAAAAAAHAAAAAAAGgAAAAAAAAAUAAAAAAAAAAAAAAAAAAAAAAAAAAgAAAAAABsABwBeAAAAAAAAAUAAAABQAAAAbAAAAAIAAAAAAAEAAQAAAAAAQEEAAMBAAABAQAAAyEIAAAABIAAAAAIAAAACAAAAAAA2QwCASkTw/v//9P7///j+//8S////AAAAAAEAAAAEAAAAEQAAAEhHUFNvZWlLYWt1cG9wdGFpAAAAAQAAAAwAAAAIAAwABAAIAAgAAAAIAAAAUAAAAA8AAADvvIEAAAAAAAAAAAAAAAAAAAA2ACQAAAAgABwAAAAAABsAFAAAAAAAAAAAAAAAAAAAAAAAAAAAABAAAAAAAAAADAAAAAgABAA2AAAAAgAAABwAAAAcAAAAHAAAAAAAIEEAAAABaAAAAE3PAEOw////tP///wEAAAAUAAAAEAAaAAgABwAMAAAAEAAUABAAAAAAAAABHAAAAAAAoEEcAAAAAgAAAAAACgAIAAUABgAHAAoAAAAADAD//P///wQABAAEAAAACAAIAAYABwAIAAAAAAAMAA==</value>
					</parameter>
					<parameter authoringApp="PremierePro">
					<parameterid>2</parameterid>
					<name></name>
					<IsTimeVarying>false</IsTimeVarying>
					<ParameterControlType>11</ParameterControlType>
					<LowerBound>false</LowerBound>
					<UpperBound>false</UpperBound>
					<value>-91445760000000000,false,0,0,0,0,0,0</value>
					</parameter>
					<parameter authoringApp="PremierePro">
					<parameterid>3</parameterid>
					<name></name>
					<IsTimeVarying>false</IsTimeVarying>
					<value>-91445760000000000,0.5:0.5,0,0,0,0,0,0,5,4,0,0,0,0</value>
					</parameter>
					<parameter authoringApp="PremierePro">
					<parameterid>4</parameterid>
					<name></name>
					<IsTimeVarying>false</IsTimeVarying>
					<ParameterControlType>2</ParameterControlType>
					<LowerBound>0</LowerBound>
					<UpperBound>4000</UpperBound>
					<value>-91445760000000000,100.,0,0,0,0,0,0</value>
					</parameter>
					<parameter authoringApp="PremierePro">
					<parameterid>8</parameterid>
					<name></name>
					<IsTimeVarying>false</IsTimeVarying>
					<ParameterControlType>2</ParameterControlType>
					<LowerBound>0</LowerBound>
					<UpperBound>100</UpperBound>
					<value>-91445760000000000,100.,0,0,0,0,0,0</value>
					</parameter>
					</effect>
					</filter>
					<logginginfo>
					<description></description>
					<scene></scene>
					<shottake></shottake>
					<lognote></lognote>
					<good></good>
					<originalvideofilename></originalvideofilename>
					<originalaudiofilename></originalaudiofilename>
					</logginginfo>
					<colorinfo>
					<lut></lut>
					<lut1></lut1>
					<asc_sop></asc_sop>
					<asc_sat></asc_sat>
					<lut2></lut2>
					</colorinfo>
					<labels>
					</labels>
					</clipitem>
					<clipitem frameBlend="FALSE" id="clipitem-282">
					<masterclipid>masterclip-202</masterclipid>
					<name></name>
					<enabled>TRUE</enabled>
					<duration>2582774</duration>
					<rate>
					
					                                    <timebase>60</timebase>
					                                    <ntsc>TRUE</ntsc>
					                                
					</rate>
					<start>1535</start>
					<end>1595</end>
					<in>1535</in>
					<out>1595</out>
					<pproTicksIn>914456774963789</pproTicksIn>
					<pproTicksOut>914677708529577</pproTicksOut>
					<alphatype>straight</alphatype>
					<pixelaspectratio>square</pixelaspectratio>
					<anamorphic>FALSE</anamorphic>
					<file id="file-201">
					<name></name>
					<mediaSource>GraphicAndType</mediaSource>
					<rate>
					<timebase>60</timebase>
					<ntsc>TRUE</ntsc>
					</rate>
					<timecode>
					<rate>
					<timebase>60</timebase>
					<ntsc>TRUE</ntsc>
					</rate>
					<string>00:00:00:00</string>
					<frame>0</frame>
					<displayformat>NDF</displayformat>
					</timecode>
					<media>
					<video>
					<samplecharacteristics>
					<rate>
					<timebase>60</timebase>
					<ntsc>TRUE</ntsc>
					</rate>
					<width>1080</width>
					<height>1920</height>
					<anamorphic>FALSE</anamorphic>
					<pixelaspectratio>square</pixelaspectratio>
					<fielddominance>none</fielddominance>
					</samplecharacteristics>
					</video>
					</media>
					</file>
					<filter>
					<effect>
					<name></name>
					<effectid>GraphicAndType</effectid>
					<effectcategory>graphic</effectcategory>
					<effecttype>filter</effecttype>
					<mediatype>video</mediatype>
					<pproBypass>false</pproBypass>
					<parameter authoringApp="PremierePro">
					<parameterid>1</parameterid>
					<name></name>
					<hash>025b1101-ead6-0ca2-1feb-caf3000001fc</hash>
					<value>5AEAAAAAAABEMyIRDAAAAAAABgAKAAQABgAAAGQAAAAAAF4ASAAQAAwARABAADwAOAAAAAAAAAAAADQAMwAsAAAAKAAkACAAAAAAAAAAAAAAAAAAHAAAAAAAGgAAAAAAAAAUAAAAAAAAAAAAAAAAAAAAAAAAAAgAAAAAABsABwBeAAAAAAAAAUAAAABQAAAAbAAAAAIAAAAAAAEAAQAAAAAAQEEAAMBAAABAQAAAyEIAAAABIAAAAAIAAAACAAAAAAA2QwCASkTw/v//9P7///j+//8S////AAAAAAEAAAAEAAAAEQAAAEhHUFNvZWlLYWt1cG9wdGFpAAAAAQAAAAwAAAAIAAwABAAIAAgAAAAIAAAAUAAAAA8AAADvvIEAAAAAAAAAAAAAAAAAAAA2ACQAAAAgABwAAAAAABsAFAAAAAAAAAAAAAAAAAAAAAAAAAAAABAAAAAAAAAADAAAAAgABAA2AAAAAgAAABwAAAAcAAAAHAAAAAAAIEEAAAABaAAAAE3PAEOw////tP///wEAAAAUAAAAEAAaAAgABwAMAAAAEAAUABAAAAAAAAABHAAAAAAAoEEcAAAAAgAAAAAACgAIAAUABgAHAAoAAAAADAD//P///wQABAAEAAAACAAIAAYABwAIAAAAAAAMAA==</value>
					</parameter>
					<parameter authoringApp="PremierePro">
					<parameterid>2</parameterid>
					<name></name>
					<IsTimeVarying>false</IsTimeVarying>
					<ParameterControlType>11</ParameterControlType>
					<LowerBound>false</LowerBound>
					<UpperBound>false</UpperBound>
					<value>-91445760000000000,false,0,0,0,0,0,0</value>
					</parameter>
					<parameter authoringApp="PremierePro">
					<parameterid>3</parameterid>
					<name></name>
					<IsTimeVarying>false</IsTimeVarying>
					<value>-91445760000000000,0.5:0.5,0,0,0,0,0,0,5,4,0,0,0,0</value>
					</parameter>
					<parameter authoringApp="PremierePro">
					<parameterid>4</parameterid>
					<name></name>
					<IsTimeVarying>false</IsTimeVarying>
					<ParameterControlType>2</ParameterControlType>
					<LowerBound>0</LowerBound>
					<UpperBound>4000</UpperBound>
					<value>-91445760000000000,100.,0,0,0,0,0,0</value>
					</parameter>
					<parameter authoringApp="PremierePro">
					<parameterid>8</parameterid>
					<name></name>
					<IsTimeVarying>false</IsTimeVarying>
					<ParameterControlType>2</ParameterControlType>
					<LowerBound>0</LowerBound>
					<UpperBound>100</UpperBound>
					<value>-91445760000000000,100.,0,0,0,0,0,0</value>
					</parameter>
					</effect>
					</filter>
					<logginginfo>
					<description></description>
					<scene></scene>
					<shottake></shottake>
					<lognote></lognote>
					<good></good>
					<originalvideofilename></originalvideofilename>
					<originalaudiofilename></originalaudiofilename>
					</logginginfo>
					<colorinfo>
					<lut></lut>
					<lut1></lut1>
					<asc_sop></asc_sop>
					<asc_sat></asc_sat>
					<lut2></lut2>
					</colorinfo>
					<labels>
					</labels>
					</clipitem>
					<clipitem frameBlend="FALSE" id="clipitem-287">
					<masterclipid>masterclip-207</masterclipid>
					<name></name>
					<enabled>TRUE</enabled>
					<duration>2582774</duration>
					<rate>
					
					                                    <timebase>60</timebase>
					                                    <ntsc>TRUE</ntsc>
					                                
					</rate>
					<start>1601</start>
					<end>1661</end>
					<in>1601</in>
					<out>1661</out>
					<pproTicksIn>914456774963789</pproTicksIn>
					<pproTicksOut>914677708529577</pproTicksOut>
					<alphatype>straight</alphatype>
					<pixelaspectratio>square</pixelaspectratio>
					<anamorphic>FALSE</anamorphic>
					<file id="file-206">
					<name></name>
					<mediaSource>GraphicAndType</mediaSource>
					<rate>
					<timebase>60</timebase>
					<ntsc>TRUE</ntsc>
					</rate>
					<timecode>
					<rate>
					<timebase>60</timebase>
					<ntsc>TRUE</ntsc>
					</rate>
					<string>00:00:00:00</string>
					<frame>0</frame>
					<displayformat>NDF</displayformat>
					</timecode>
					<media>
					<video>
					<samplecharacteristics>
					<rate>
					<timebase>60</timebase>
					<ntsc>TRUE</ntsc>
					</rate>
					<width>1080</width>
					<height>1920</height>
					<anamorphic>FALSE</anamorphic>
					<pixelaspectratio>square</pixelaspectratio>
					<fielddominance>none</fielddominance>
					</samplecharacteristics>
					</video>
					</media>
					</file>
					<filter>
					<effect>
					<name></name>
					<effectid>GraphicAndType</effectid>
					<effectcategory>graphic</effectcategory>
					<effecttype>filter</effecttype>
					<mediatype>video</mediatype>
					<pproBypass>false</pproBypass>
					<parameter authoringApp="PremierePro">
					<parameterid>1</parameterid>
					<name></name>
					<hash>025b1101-ead6-0ca2-1feb-caf3000001fc</hash>
					<value>5AEAAAAAAABEMyIRDAAAAAAABgAKAAQABgAAAGQAAAAAAF4ASAAQAAwARABAADwAOAAAAAAAAAAAADQAMwAsAAAAKAAkACAAAAAAAAAAAAAAAAAAHAAAAAAAGgAAAAAAAAAUAAAAAAAAAAAAAAAAAAAAAAAAAAgAAAAAABsABwBeAAAAAAAAAUAAAABQAAAAbAAAAAIAAAAAAAEAAQAAAAAAQEEAAMBAAABAQAAAyEIAAAABIAAAAAIAAAACAAAAAAA2QwCASkTw/v//9P7///j+//8S////AAAAAAEAAAAEAAAAEQAAAEhHUFNvZWlLYWt1cG9wdGFpAAAAAQAAAAwAAAAIAAwABAAIAAgAAAAIAAAAUAAAAA8AAADvvIEAAAAAAAAAAAAAAAAAAAA2ACQAAAAgABwAAAAAABsAFAAAAAAAAAAAAAAAAAAAAAAAAAAAABAAAAAAAAAADAAAAAgABAA2AAAAAgAAABwAAAAcAAAAHAAAAAAAIEEAAAABaAAAAE3PAEOw////tP///wEAAAAUAAAAEAAaAAgABwAMAAAAEAAUABAAAAAAAAABHAAAAAAAoEEcAAAAAgAAAAAACgAIAAUABgAHAAoAAAAADAD//P///wQABAAEAAAACAAIAAYABwAIAAAAAAAMAA==</value>
					</parameter>
					<parameter authoringApp="PremierePro">
					<parameterid>2</parameterid>
					<name></name>
					<IsTimeVarying>false</IsTimeVarying>
					<ParameterControlType>11</ParameterControlType>
					<LowerBound>false</LowerBound>
					<UpperBound>false</UpperBound>
					<value>-91445760000000000,false,0,0,0,0,0,0</value>
					</parameter>
					<parameter authoringApp="PremierePro">
					<parameterid>3</parameterid>
					<name></name>
					<IsTimeVarying>false</IsTimeVarying>
					<value>-91445760000000000,0.5:0.5,0,0,0,0,0,0,5,4,0,0,0,0</value>
					</parameter>
					<parameter authoringApp="PremierePro">
					<parameterid>4</parameterid>
					<name></name>
					<IsTimeVarying>false</IsTimeVarying>
					<ParameterControlType>2</ParameterControlType>
					<LowerBound>0</LowerBound>
					<UpperBound>4000</UpperBound>
					<value>-91445760000000000,100.,0,0,0,0,0,0</value>
					</parameter>
					<parameter authoringApp="PremierePro">
					<parameterid>8</parameterid>
					<name></name>
					<IsTimeVarying>false</IsTimeVarying>
					<ParameterControlType>2</ParameterControlType>
					<LowerBound>0</LowerBound>
					<UpperBound>100</UpperBound>
					<value>-91445760000000000,100.,0,0,0,0,0,0</value>
					</parameter>
					</effect>
					</filter>
					<logginginfo>
					<description></description>
					<scene></scene>
					<shottake></shottake>
					<lognote></lognote>
					<good></good>
					<originalvideofilename></originalvideofilename>
					<originalaudiofilename></originalaudiofilename>
					</logginginfo>
					<colorinfo>
					<lut></lut>
					<lut1></lut1>
					<asc_sop></asc_sop>
					<asc_sat></asc_sat>
					<lut2></lut2>
					</colorinfo>
					<labels>
					</labels>
					</clipitem>
					<clipitem frameBlend="FALSE" id="clipitem-295">
					<masterclipid>masterclip-215</masterclipid>
					<name></name>
					<enabled>TRUE</enabled>
					<duration>2582774</duration>
					<rate>
					
					                                    <timebase>60</timebase>
					                                    <ntsc>TRUE</ntsc>
					                                
					</rate>
					<start>1661</start>
					<end>1721</end>
					<in>1661</in>
					<out>1721</out>
					<pproTicksIn>914456774963789</pproTicksIn>
					<pproTicksOut>914677708529577</pproTicksOut>
					<alphatype>straight</alphatype>
					<pixelaspectratio>square</pixelaspectratio>
					<anamorphic>FALSE</anamorphic>
					<file id="file-214">
					<name></name>
					<mediaSource>GraphicAndType</mediaSource>
					<rate>
					<timebase>60</timebase>
					<ntsc>TRUE</ntsc>
					</rate>
					<timecode>
					<rate>
					<timebase>60</timebase>
					<ntsc>TRUE</ntsc>
					</rate>
					<string>00:00:00:00</string>
					<frame>0</frame>
					<displayformat>NDF</displayformat>
					</timecode>
					<media>
					<video>
					<samplecharacteristics>
					<rate>
					<timebase>60</timebase>
					<ntsc>TRUE</ntsc>
					</rate>
					<width>1080</width>
					<height>1920</height>
					<anamorphic>FALSE</anamorphic>
					<pixelaspectratio>square</pixelaspectratio>
					<fielddominance>none</fielddominance>
					</samplecharacteristics>
					</video>
					</media>
					</file>
					<filter>
					<effect>
					<name></name>
					<effectid>GraphicAndType</effectid>
					<effectcategory>graphic</effectcategory>
					<effecttype>filter</effecttype>
					<mediatype>video</mediatype>
					<pproBypass>false</pproBypass>
					<parameter authoringApp="PremierePro">
					<parameterid>1</parameterid>
					<name></name>
					<hash>025b1101-ead6-0ca2-1feb-caf3000001fc</hash>
					<value>5AEAAAAAAABEMyIRDAAAAAAABgAKAAQABgAAAGQAAAAAAF4ASAAQAAwARABAADwAOAAAAAAAAAAAADQAMwAsAAAAKAAkACAAAAAAAAAAAAAAAAAAHAAAAAAAGgAAAAAAAAAUAAAAAAAAAAAAAAAAAAAAAAAAAAgAAAAAABsABwBeAAAAAAAAAUAAAABQAAAAbAAAAAIAAAAAAAEAAQAAAAAAQEEAAMBAAABAQAAAyEIAAAABIAAAAAIAAAACAAAAAAA2QwCASkTw/v//9P7///j+//8S////AAAAAAEAAAAEAAAAEQAAAEhHUFNvZWlLYWt1cG9wdGFpAAAAAQAAAAwAAAAIAAwABAAIAAgAAAAIAAAAUAAAAA8AAADvvIEAAAAAAAAAAAAAAAAAAAA2ACQAAAAgABwAAAAAABsAFAAAAAAAAAAAAAAAAAAAAAAAAAAAABAAAAAAAAAADAAAAAgABAA2AAAAAgAAABwAAAAcAAAAHAAAAAAAIEEAAAABaAAAAE3PAEOw////tP///wEAAAAUAAAAEAAaAAgABwAMAAAAEAAUABAAAAAAAAABHAAAAAAAoEEcAAAAAgAAAAAACgAIAAUABgAHAAoAAAAADAD//P///wQABAAEAAAACAAIAAYABwAIAAAAAAAMAA==</value>
					</parameter>
					<parameter authoringApp="PremierePro">
					<parameterid>2</parameterid>
					<name></name>
					<IsTimeVarying>false</IsTimeVarying>
					<ParameterControlType>11</ParameterControlType>
					<LowerBound>false</LowerBound>
					<UpperBound>false</UpperBound>
					<value>-91445760000000000,false,0,0,0,0,0,0</value>
					</parameter>
					<parameter authoringApp="PremierePro">
					<parameterid>3</parameterid>
					<name></name>
					<IsTimeVarying>false</IsTimeVarying>
					<value>-91445760000000000,0.5:0.5,0,0,0,0,0,0,5,4,0,0,0,0</value>
					</parameter>
					<parameter authoringApp="PremierePro">
					<parameterid>4</parameterid>
					<name></name>
					<IsTimeVarying>false</IsTimeVarying>
					<ParameterControlType>2</ParameterControlType>
					<LowerBound>0</LowerBound>
					<UpperBound>4000</UpperBound>
					<value>-91445760000000000,100.,0,0,0,0,0,0</value>
					</parameter>
					<parameter authoringApp="PremierePro">
					<parameterid>8</parameterid>
					<name></name>
					<IsTimeVarying>false</IsTimeVarying>
					<ParameterControlType>2</ParameterControlType>
					<LowerBound>0</LowerBound>
					<UpperBound>100</UpperBound>
					<value>-91445760000000000,100.,0,0,0,0,0,0</value>
					</parameter>
					</effect>
					</filter>
					<logginginfo>
					<description></description>
					<scene></scene>
					<shottake></shottake>
					<lognote></lognote>
					<good></good>
					<originalvideofilename></originalvideofilename>
					<originalaudiofilename></originalaudiofilename>
					</logginginfo>
					<colorinfo>
					<lut></lut>
					<lut1></lut1>
					<asc_sop></asc_sop>
					<asc_sat></asc_sat>
					<lut2></lut2>
					</colorinfo>
					<labels>
					</labels>
					</clipitem>
					<clipitem frameBlend="FALSE" id="clipitem-300">
					<masterclipid>masterclip-220</masterclipid>
					<name></name>
					<enabled>TRUE</enabled>
					<duration>2582774</duration>
					<rate>
					
					                                    <timebase>60</timebase>
					                                    <ntsc>TRUE</ntsc>
					                                
					</rate>
					<start>1727</start>
					<end>1787</end>
					<in>1727</in>
					<out>1787</out>
					<pproTicksIn>914456774963789</pproTicksIn>
					<pproTicksOut>914677708529577</pproTicksOut>
					<alphatype>straight</alphatype>
					<pixelaspectratio>square</pixelaspectratio>
					<anamorphic>FALSE</anamorphic>
					<file id="file-219">
					<name></name>
					<mediaSource>GraphicAndType</mediaSource>
					<rate>
					<timebase>60</timebase>
					<ntsc>TRUE</ntsc>
					</rate>
					<timecode>
					<rate>
					<timebase>60</timebase>
					<ntsc>TRUE</ntsc>
					</rate>
					<string>00:00:00:00</string>
					<frame>0</frame>
					<displayformat>NDF</displayformat>
					</timecode>
					<media>
					<video>
					<samplecharacteristics>
					<rate>
					<timebase>60</timebase>
					<ntsc>TRUE</ntsc>
					</rate>
					<width>1080</width>
					<height>1920</height>
					<anamorphic>FALSE</anamorphic>
					<pixelaspectratio>square</pixelaspectratio>
					<fielddominance>none</fielddominance>
					</samplecharacteristics>
					</video>
					</media>
					</file>
					<filter>
					<effect>
					<name></name>
					<effectid>GraphicAndType</effectid>
					<effectcategory>graphic</effectcategory>
					<effecttype>filter</effecttype>
					<mediatype>video</mediatype>
					<pproBypass>false</pproBypass>
					<parameter authoringApp="PremierePro">
					<parameterid>1</parameterid>
					<name></name>
					<hash>025b1101-ead6-0ca2-1feb-caf3000001fc</hash>
					<value>5AEAAAAAAABEMyIRDAAAAAAABgAKAAQABgAAAGQAAAAAAF4ASAAQAAwARABAADwAOAAAAAAAAAAAADQAMwAsAAAAKAAkACAAAAAAAAAAAAAAAAAAHAAAAAAAGgAAAAAAAAAUAAAAAAAAAAAAAAAAAAAAAAAAAAgAAAAAABsABwBeAAAAAAAAAUAAAABQAAAAbAAAAAIAAAAAAAEAAQAAAAAAQEEAAMBAAABAQAAAyEIAAAABIAAAAAIAAAACAAAAAAA2QwCASkTw/v//9P7///j+//8S////AAAAAAEAAAAEAAAAEQAAAEhHUFNvZWlLYWt1cG9wdGFpAAAAAQAAAAwAAAAIAAwABAAIAAgAAAAIAAAAUAAAAA8AAADvvIEAAAAAAAAAAAAAAAAAAAA2ACQAAAAgABwAAAAAABsAFAAAAAAAAAAAAAAAAAAAAAAAAAAAABAAAAAAAAAADAAAAAgABAA2AAAAAgAAABwAAAAcAAAAHAAAAAAAIEEAAAABaAAAAE3PAEOw////tP///wEAAAAUAAAAEAAaAAgABwAMAAAAEAAUABAAAAAAAAABHAAAAAAAoEEcAAAAAgAAAAAACgAIAAUABgAHAAoAAAAADAD//P///wQABAAEAAAACAAIAAYABwAIAAAAAAAMAA==</value>
					</parameter>
					<parameter authoringApp="PremierePro">
					<parameterid>2</parameterid>
					<name></name>
					<IsTimeVarying>false</IsTimeVarying>
					<ParameterControlType>11</ParameterControlType>
					<LowerBound>false</LowerBound>
					<UpperBound>false</UpperBound>
					<value>-91445760000000000,false,0,0,0,0,0,0</value>
					</parameter>
					<parameter authoringApp="PremierePro">
					<parameterid>3</parameterid>
					<name></name>
					<IsTimeVarying>false</IsTimeVarying>
					<value>-91445760000000000,0.5:0.5,0,0,0,0,0,0,5,4,0,0,0,0</value>
					</parameter>
					<parameter authoringApp="PremierePro">
					<parameterid>4</parameterid>
					<name></name>
					<IsTimeVarying>false</IsTimeVarying>
					<ParameterControlType>2</ParameterControlType>
					<LowerBound>0</LowerBound>
					<UpperBound>4000</UpperBound>
					<value>-91445760000000000,100.,0,0,0,0,0,0</value>
					</parameter>
					<parameter authoringApp="PremierePro">
					<parameterid>8</parameterid>
					<name></name>
					<IsTimeVarying>false</IsTimeVarying>
					<ParameterControlType>2</ParameterControlType>
					<LowerBound>0</LowerBound>
					<UpperBound>100</UpperBound>
					<value>-91445760000000000,100.,0,0,0,0,0,0</value>
					</parameter>
					</effect>
					</filter>
					<logginginfo>
					<description></description>
					<scene></scene>
					<shottake></shottake>
					<lognote></lognote>
					<good></good>
					<originalvideofilename></originalvideofilename>
					<originalaudiofilename></originalaudiofilename>
					</logginginfo>
					<colorinfo>
					<lut></lut>
					<lut1></lut1>
					<asc_sop></asc_sop>
					<asc_sat></asc_sat>
					<lut2></lut2>
					</colorinfo>
					<labels>
					</labels>
					</clipitem>
					<clipitem frameBlend="FALSE" id="clipitem-309">
					<masterclipid>masterclip-229</masterclipid>
					<name></name>
					<enabled>TRUE</enabled>
					<duration>2582774</duration>
					<rate>
					
					                                    <timebase>60</timebase>
					                                    <ntsc>TRUE</ntsc>
					                                
					</rate>
					<start>1787</start>
					<end>1847</end>
					<in>1787</in>
					<out>1847</out>
					<pproTicksIn>914456774963789</pproTicksIn>
					<pproTicksOut>914677708529577</pproTicksOut>
					<alphatype>straight</alphatype>
					<pixelaspectratio>square</pixelaspectratio>
					<anamorphic>FALSE</anamorphic>
					<file id="file-228">
					<name></name>
					<mediaSource>GraphicAndType</mediaSource>
					<rate>
					<timebase>60</timebase>
					<ntsc>TRUE</ntsc>
					</rate>
					<timecode>
					<rate>
					<timebase>60</timebase>
					<ntsc>TRUE</ntsc>
					</rate>
					<string>00:00:00:00</string>
					<frame>0</frame>
					<displayformat>NDF</displayformat>
					</timecode>
					<media>
					<video>
					<samplecharacteristics>
					<rate>
					<timebase>60</timebase>
					<ntsc>TRUE</ntsc>
					</rate>
					<width>1080</width>
					<height>1920</height>
					<anamorphic>FALSE</anamorphic>
					<pixelaspectratio>square</pixelaspectratio>
					<fielddominance>none</fielddominance>
					</samplecharacteristics>
					</video>
					</media>
					</file>
					<filter>
					<effect>
					<name></name>
					<effectid>GraphicAndType</effectid>
					<effectcategory>graphic</effectcategory>
					<effecttype>filter</effecttype>
					<mediatype>video</mediatype>
					<pproBypass>false</pproBypass>
					<parameter authoringApp="PremierePro">
					<parameterid>1</parameterid>
					<name></name>
					<hash>025b1101-ead6-0ca2-1feb-caf3000001fc</hash>
					<value>5AEAAAAAAABEMyIRDAAAAAAABgAKAAQABgAAAGQAAAAAAF4ASAAQAAwARABAADwAOAAAAAAAAAAAADQAMwAsAAAAKAAkACAAAAAAAAAAAAAAAAAAHAAAAAAAGgAAAAAAAAAUAAAAAAAAAAAAAAAAAAAAAAAAAAgAAAAAABsABwBeAAAAAAAAAUAAAABQAAAAbAAAAAIAAAAAAAEAAQAAAAAAQEEAAMBAAABAQAAAyEIAAAABIAAAAAIAAAACAAAAAAA2QwCASkTw/v//9P7///j+//8S////AAAAAAEAAAAEAAAAEQAAAEhHUFNvZWlLYWt1cG9wdGFpAAAAAQAAAAwAAAAIAAwABAAIAAgAAAAIAAAAUAAAAA8AAADvvIEAAAAAAAAAAAAAAAAAAAA2ACQAAAAgABwAAAAAABsAFAAAAAAAAAAAAAAAAAAAAAAAAAAAABAAAAAAAAAADAAAAAgABAA2AAAAAgAAABwAAAAcAAAAHAAAAAAAIEEAAAABaAAAAE3PAEOw////tP///wEAAAAUAAAAEAAaAAgABwAMAAAAEAAUABAAAAAAAAABHAAAAAAAoEEcAAAAAgAAAAAACgAIAAUABgAHAAoAAAAADAD//P///wQABAAEAAAACAAIAAYABwAIAAAAAAAMAA==</value>
					</parameter>
					<parameter authoringApp="PremierePro">
					<parameterid>2</parameterid>
					<name></name>
					<IsTimeVarying>false</IsTimeVarying>
					<ParameterControlType>11</ParameterControlType>
					<LowerBound>false</LowerBound>
					<UpperBound>false</UpperBound>
					<value>-91445760000000000,false,0,0,0,0,0,0</value>
					</parameter>
					<parameter authoringApp="PremierePro">
					<parameterid>3</parameterid>
					<name></name>
					<IsTimeVarying>false</IsTimeVarying>
					<value>-91445760000000000,0.5:0.5,0,0,0,0,0,0,5,4,0,0,0,0</value>
					</parameter>
					<parameter authoringApp="PremierePro">
					<parameterid>4</parameterid>
					<name></name>
					<IsTimeVarying>false</IsTimeVarying>
					<ParameterControlType>2</ParameterControlType>
					<LowerBound>0</LowerBound>
					<UpperBound>4000</UpperBound>
					<value>-91445760000000000,100.,0,0,0,0,0,0</value>
					</parameter>
					<parameter authoringApp="PremierePro">
					<parameterid>8</parameterid>
					<name></name>
					<IsTimeVarying>false</IsTimeVarying>
					<ParameterControlType>2</ParameterControlType>
					<LowerBound>0</LowerBound>
					<UpperBound>100</UpperBound>
					<value>-91445760000000000,100.,0,0,0,0,0,0</value>
					</parameter>
					</effect>
					</filter>
					<logginginfo>
					<description></description>
					<scene></scene>
					<shottake></shottake>
					<lognote></lognote>
					<good></good>
					<originalvideofilename></originalvideofilename>
					<originalaudiofilename></originalaudiofilename>
					</logginginfo>
					<colorinfo>
					<lut></lut>
					<lut1></lut1>
					<asc_sop></asc_sop>
					<asc_sat></asc_sat>
					<lut2></lut2>
					</colorinfo>
					<labels>
					</labels>
					</clipitem>
					<clipitem frameBlend="FALSE" id="clipitem-319">
					<masterclipid>masterclip-239</masterclipid>
					<name></name>
					<enabled>TRUE</enabled>
					<duration>2582774</duration>
					<rate>
					
					                                    <timebase>60</timebase>
					                                    <ntsc>TRUE</ntsc>
					                                
					</rate>
					<start>1877</start>
					<end>1937</end>
					<in>1877</in>
					<out>1937</out>
					<pproTicksIn>914456774963789</pproTicksIn>
					<pproTicksOut>914677708529577</pproTicksOut>
					<alphatype>straight</alphatype>
					<pixelaspectratio>square</pixelaspectratio>
					<anamorphic>FALSE</anamorphic>
					<file id="file-238">
					<name></name>
					<mediaSource>GraphicAndType</mediaSource>
					<rate>
					<timebase>60</timebase>
					<ntsc>TRUE</ntsc>
					</rate>
					<timecode>
					<rate>
					<timebase>60</timebase>
					<ntsc>TRUE</ntsc>
					</rate>
					<string>00:00:00:00</string>
					<frame>0</frame>
					<displayformat>NDF</displayformat>
					</timecode>
					<media>
					<video>
					<samplecharacteristics>
					<rate>
					<timebase>60</timebase>
					<ntsc>TRUE</ntsc>
					</rate>
					<width>1080</width>
					<height>1920</height>
					<anamorphic>FALSE</anamorphic>
					<pixelaspectratio>square</pixelaspectratio>
					<fielddominance>none</fielddominance>
					</samplecharacteristics>
					</video>
					</media>
					</file>
					<filter>
					<effect>
					<name></name>
					<effectid>GraphicAndType</effectid>
					<effectcategory>graphic</effectcategory>
					<effecttype>filter</effecttype>
					<mediatype>video</mediatype>
					<pproBypass>false</pproBypass>
					<parameter authoringApp="PremierePro">
					<parameterid>1</parameterid>
					<name></name>
					<hash>025b1101-ead6-0ca2-1feb-caf3000001fc</hash>
					<value>5AEAAAAAAABEMyIRDAAAAAAABgAKAAQABgAAAGQAAAAAAF4ASAAQAAwARABAADwAOAAAAAAAAAAAADQAMwAsAAAAKAAkACAAAAAAAAAAAAAAAAAAHAAAAAAAGgAAAAAAAAAUAAAAAAAAAAAAAAAAAAAAAAAAAAgAAAAAABsABwBeAAAAAAAAAUAAAABQAAAAbAAAAAIAAAAAAAEAAQAAAAAAQEEAAMBAAABAQAAAyEIAAAABIAAAAAIAAAACAAAAAAA2QwCASkTw/v//9P7///j+//8S////AAAAAAEAAAAEAAAAEQAAAEhHUFNvZWlLYWt1cG9wdGFpAAAAAQAAAAwAAAAIAAwABAAIAAgAAAAIAAAAUAAAAA8AAADvvIEAAAAAAAAAAAAAAAAAAAA2ACQAAAAgABwAAAAAABsAFAAAAAAAAAAAAAAAAAAAAAAAAAAAABAAAAAAAAAADAAAAAgABAA2AAAAAgAAABwAAAAcAAAAHAAAAAAAIEEAAAABaAAAAE3PAEOw////tP///wEAAAAUAAAAEAAaAAgABwAMAAAAEAAUABAAAAAAAAABHAAAAAAAoEEcAAAAAgAAAAAACgAIAAUABgAHAAoAAAAADAD//P///wQABAAEAAAACAAIAAYABwAIAAAAAAAMAA==</value>
					</parameter>
					<parameter authoringApp="PremierePro">
					<parameterid>2</parameterid>
					<name></name>
					<IsTimeVarying>false</IsTimeVarying>
					<ParameterControlType>11</ParameterControlType>
					<LowerBound>false</LowerBound>
					<UpperBound>false</UpperBound>
					<value>-91445760000000000,false,0,0,0,0,0,0</value>
					</parameter>
					<parameter authoringApp="PremierePro">
					<parameterid>3</parameterid>
					<name></name>
					<IsTimeVarying>false</IsTimeVarying>
					<value>-91445760000000000,0.5:0.5,0,0,0,0,0,0,5,4,0,0,0,0</value>
					</parameter>
					<parameter authoringApp="PremierePro">
					<parameterid>4</parameterid>
					<name></name>
					<IsTimeVarying>false</IsTimeVarying>
					<ParameterControlType>2</ParameterControlType>
					<LowerBound>0</LowerBound>
					<UpperBound>4000</UpperBound>
					<value>-91445760000000000,100.,0,0,0,0,0,0</value>
					</parameter>
					<parameter authoringApp="PremierePro">
					<parameterid>8</parameterid>
					<name></name>
					<IsTimeVarying>false</IsTimeVarying>
					<ParameterControlType>2</ParameterControlType>
					<LowerBound>0</LowerBound>
					<UpperBound>100</UpperBound>
					<value>-91445760000000000,100.,0,0,0,0,0,0</value>
					</parameter>
					</effect>
					</filter>
					<logginginfo>
					<description></description>
					<scene></scene>
					<shottake></shottake>
					<lognote></lognote>
					<good></good>
					<originalvideofilename></originalvideofilename>
					<originalaudiofilename></originalaudiofilename>
					</logginginfo>
					<colorinfo>
					<lut></lut>
					<lut1></lut1>
					<asc_sop></asc_sop>
					<asc_sat></asc_sat>
					<lut2></lut2>
					</colorinfo>
					<labels>
					</labels>
					</clipitem>
					<clipitem frameBlend="FALSE" id="clipitem-327">
					<masterclipid>masterclip-247</masterclipid>
					<name></name>
					<enabled>TRUE</enabled>
					<duration>2582774</duration>
					<rate>
					
					                                    <timebase>60</timebase>
					                                    <ntsc>TRUE</ntsc>
					                                
					</rate>
					<start>1937</start>
					<end>2003</end>
					<in>1937</in>
					<out>2003</out>
					<pproTicksIn>914456774963789</pproTicksIn>
					<pproTicksOut>914677708529577</pproTicksOut>
					<alphatype>straight</alphatype>
					<pixelaspectratio>square</pixelaspectratio>
					<anamorphic>FALSE</anamorphic>
					<file id="file-246">
					<name></name>
					<mediaSource>GraphicAndType</mediaSource>
					<rate>
					<timebase>60</timebase>
					<ntsc>TRUE</ntsc>
					</rate>
					<timecode>
					<rate>
					<timebase>60</timebase>
					<ntsc>TRUE</ntsc>
					</rate>
					<string>00:00:00:00</string>
					<frame>0</frame>
					<displayformat>NDF</displayformat>
					</timecode>
					<media>
					<video>
					<samplecharacteristics>
					<rate>
					<timebase>60</timebase>
					<ntsc>TRUE</ntsc>
					</rate>
					<width>1080</width>
					<height>1920</height>
					<anamorphic>FALSE</anamorphic>
					<pixelaspectratio>square</pixelaspectratio>
					<fielddominance>none</fielddominance>
					</samplecharacteristics>
					</video>
					</media>
					</file>
					<filter>
					<effect>
					<name></name>
					<effectid>GraphicAndType</effectid>
					<effectcategory>graphic</effectcategory>
					<effecttype>filter</effecttype>
					<mediatype>video</mediatype>
					<pproBypass>false</pproBypass>
					<parameter authoringApp="PremierePro">
					<parameterid>1</parameterid>
					<name></name>
					<hash>025b1101-ead6-0ca2-1feb-caf3000001fc</hash>
					<value>5AEAAAAAAABEMyIRDAAAAAAABgAKAAQABgAAAGQAAAAAAF4ASAAQAAwARABAADwAOAAAAAAAAAAAADQAMwAsAAAAKAAkACAAAAAAAAAAAAAAAAAAHAAAAAAAGgAAAAAAAAAUAAAAAAAAAAAAAAAAAAAAAAAAAAgAAAAAABsABwBeAAAAAAAAAUAAAABQAAAAbAAAAAIAAAAAAAEAAQAAAAAAQEEAAMBAAABAQAAAyEIAAAABIAAAAAIAAAACAAAAAAA2QwCASkTw/v//9P7///j+//8S////AAAAAAEAAAAEAAAAEQAAAEhHUFNvZWlLYWt1cG9wdGFpAAAAAQAAAAwAAAAIAAwABAAIAAgAAAAIAAAAUAAAAA8AAADvvIEAAAAAAAAAAAAAAAAAAAA2ACQAAAAgABwAAAAAABsAFAAAAAAAAAAAAAAAAAAAAAAAAAAAABAAAAAAAAAADAAAAAgABAA2AAAAAgAAABwAAAAcAAAAHAAAAAAAIEEAAAABaAAAAE3PAEOw////tP///wEAAAAUAAAAEAAaAAgABwAMAAAAEAAUABAAAAAAAAABHAAAAAAAoEEcAAAAAgAAAAAACgAIAAUABgAHAAoAAAAADAD//P///wQABAAEAAAACAAIAAYABwAIAAAAAAAMAA==</value>
					</parameter>
					<parameter authoringApp="PremierePro">
					<parameterid>2</parameterid>
					<name></name>
					<IsTimeVarying>false</IsTimeVarying>
					<ParameterControlType>11</ParameterControlType>
					<LowerBound>false</LowerBound>
					<UpperBound>false</UpperBound>
					<value>-91445760000000000,false,0,0,0,0,0,0</value>
					</parameter>
					<parameter authoringApp="PremierePro">
					<parameterid>3</parameterid>
					<name></name>
					<IsTimeVarying>false</IsTimeVarying>
					<value>-91445760000000000,0.5:0.5,0,0,0,0,0,0,5,4,0,0,0,0</value>
					</parameter>
					<parameter authoringApp="PremierePro">
					<parameterid>4</parameterid>
					<name></name>
					<IsTimeVarying>false</IsTimeVarying>
					<ParameterControlType>2</ParameterControlType>
					<LowerBound>0</LowerBound>
					<UpperBound>4000</UpperBound>
					<value>-91445760000000000,100.,0,0,0,0,0,0</value>
					</parameter>
					<parameter authoringApp="PremierePro">
					<parameterid>8</parameterid>
					<name></name>
					<IsTimeVarying>false</IsTimeVarying>
					<ParameterControlType>2</ParameterControlType>
					<LowerBound>0</LowerBound>
					<UpperBound>100</UpperBound>
					<value>-91445760000000000,100.,0,0,0,0,0,0</value>
					</parameter>
					</effect>
					</filter>
					<logginginfo>
					<description></description>
					<scene></scene>
					<shottake></shottake>
					<lognote></lognote>
					<good></good>
					<originalvideofilename></originalvideofilename>
					<originalaudiofilename></originalaudiofilename>
					</logginginfo>
					<colorinfo>
					<lut></lut>
					<lut1></lut1>
					<asc_sop></asc_sop>
					<asc_sat></asc_sat>
					<lut2></lut2>
					</colorinfo>
					<labels>
					</labels>
					</clipitem>
					<clipitem frameBlend="FALSE" id="clipitem-334">
					<masterclipid>masterclip-254</masterclipid>
					<name></name>
					<enabled>TRUE</enabled>
					<duration>2582774</duration>
					<rate>
					
					                                    <timebase>60</timebase>
					                                    <ntsc>TRUE</ntsc>
					                                
					</rate>
					<start>2009</start>
					<end>2069</end>
					<in>2009</in>
					<out>2069</out>
					<pproTicksIn>914456774963789</pproTicksIn>
					<pproTicksOut>914677708529577</pproTicksOut>
					<alphatype>straight</alphatype>
					<pixelaspectratio>square</pixelaspectratio>
					<anamorphic>FALSE</anamorphic>
					<file id="file-253">
					<name></name>
					<mediaSource>GraphicAndType</mediaSource>
					<rate>
					<timebase>60</timebase>
					<ntsc>TRUE</ntsc>
					</rate>
					<timecode>
					<rate>
					<timebase>60</timebase>
					<ntsc>TRUE</ntsc>
					</rate>
					<string>00:00:00:00</string>
					<frame>0</frame>
					<displayformat>NDF</displayformat>
					</timecode>
					<media>
					<video>
					<samplecharacteristics>
					<rate>
					<timebase>60</timebase>
					<ntsc>TRUE</ntsc>
					</rate>
					<width>1080</width>
					<height>1920</height>
					<anamorphic>FALSE</anamorphic>
					<pixelaspectratio>square</pixelaspectratio>
					<fielddominance>none</fielddominance>
					</samplecharacteristics>
					</video>
					</media>
					</file>
					<filter>
					<effect>
					<name></name>
					<effectid>GraphicAndType</effectid>
					<effectcategory>graphic</effectcategory>
					<effecttype>filter</effecttype>
					<mediatype>video</mediatype>
					<pproBypass>false</pproBypass>
					<parameter authoringApp="PremierePro">
					<parameterid>1</parameterid>
					<name></name>
					<hash>025b1101-ead6-0ca2-1feb-caf3000001fc</hash>
					<value>5AEAAAAAAABEMyIRDAAAAAAABgAKAAQABgAAAGQAAAAAAF4ASAAQAAwARABAADwAOAAAAAAAAAAAADQAMwAsAAAAKAAkACAAAAAAAAAAAAAAAAAAHAAAAAAAGgAAAAAAAAAUAAAAAAAAAAAAAAAAAAAAAAAAAAgAAAAAABsABwBeAAAAAAAAAUAAAABQAAAAbAAAAAIAAAAAAAEAAQAAAAAAQEEAAMBAAABAQAAAyEIAAAABIAAAAAIAAAACAAAAAAA2QwCASkTw/v//9P7///j+//8S////AAAAAAEAAAAEAAAAEQAAAEhHUFNvZWlLYWt1cG9wdGFpAAAAAQAAAAwAAAAIAAwABAAIAAgAAAAIAAAAUAAAAA8AAADvvIEAAAAAAAAAAAAAAAAAAAA2ACQAAAAgABwAAAAAABsAFAAAAAAAAAAAAAAAAAAAAAAAAAAAABAAAAAAAAAADAAAAAgABAA2AAAAAgAAABwAAAAcAAAAHAAAAAAAIEEAAAABaAAAAE3PAEOw////tP///wEAAAAUAAAAEAAaAAgABwAMAAAAEAAUABAAAAAAAAABHAAAAAAAoEEcAAAAAgAAAAAACgAIAAUABgAHAAoAAAAADAD//P///wQABAAEAAAACAAIAAYABwAIAAAAAAAMAA==</value>
					</parameter>
					<parameter authoringApp="PremierePro">
					<parameterid>2</parameterid>
					<name></name>
					<IsTimeVarying>false</IsTimeVarying>
					<ParameterControlType>11</ParameterControlType>
					<LowerBound>false</LowerBound>
					<UpperBound>false</UpperBound>
					<value>-91445760000000000,false,0,0,0,0,0,0</value>
					</parameter>
					<parameter authoringApp="PremierePro">
					<parameterid>3</parameterid>
					<name></name>
					<IsTimeVarying>false</IsTimeVarying>
					<value>-91445760000000000,0.5:0.5,0,0,0,0,0,0,5,4,0,0,0,0</value>
					</parameter>
					<parameter authoringApp="PremierePro">
					<parameterid>4</parameterid>
					<name></name>
					<IsTimeVarying>false</IsTimeVarying>
					<ParameterControlType>2</ParameterControlType>
					<LowerBound>0</LowerBound>
					<UpperBound>4000</UpperBound>
					<value>-91445760000000000,100.,0,0,0,0,0,0</value>
					</parameter>
					<parameter authoringApp="PremierePro">
					<parameterid>8</parameterid>
					<name></name>
					<IsTimeVarying>false</IsTimeVarying>
					<ParameterControlType>2</ParameterControlType>
					<LowerBound>0</LowerBound>
					<UpperBound>100</UpperBound>
					<value>-91445760000000000,100.,0,0,0,0,0,0</value>
					</parameter>
					</effect>
					</filter>
					<logginginfo>
					<description></description>
					<scene></scene>
					<shottake></shottake>
					<lognote></lognote>
					<good></good>
					<originalvideofilename></originalvideofilename>
					<originalaudiofilename></originalaudiofilename>
					</logginginfo>
					<colorinfo>
					<lut></lut>
					<lut1></lut1>
					<asc_sop></asc_sop>
					<asc_sat></asc_sat>
					<lut2></lut2>
					</colorinfo>
					<labels>
					</labels>
					</clipitem>
					<clipitem frameBlend="FALSE" id="clipitem-340">
					<masterclipid>masterclip-260</masterclipid>
					<name></name>
					<enabled>TRUE</enabled>
					<duration>2582774</duration>
					<rate>
					
					                                    <timebase>60</timebase>
					                                    <ntsc>TRUE</ntsc>
					                                
					</rate>
					<start>2153</start>
					<end>2213</end>
					<in>2153</in>
					<out>2213</out>
					<pproTicksIn>914456774963789</pproTicksIn>
					<pproTicksOut>914677708529577</pproTicksOut>
					<alphatype>straight</alphatype>
					<pixelaspectratio>square</pixelaspectratio>
					<anamorphic>FALSE</anamorphic>
					<file id="file-259">
					<name></name>
					<mediaSource>GraphicAndType</mediaSource>
					<rate>
					<timebase>60</timebase>
					<ntsc>TRUE</ntsc>
					</rate>
					<timecode>
					<rate>
					<timebase>60</timebase>
					<ntsc>TRUE</ntsc>
					</rate>
					<string>00:00:00:00</string>
					<frame>0</frame>
					<displayformat>NDF</displayformat>
					</timecode>
					<media>
					<video>
					<samplecharacteristics>
					<rate>
					<timebase>60</timebase>
					<ntsc>TRUE</ntsc>
					</rate>
					<width>1080</width>
					<height>1920</height>
					<anamorphic>FALSE</anamorphic>
					<pixelaspectratio>square</pixelaspectratio>
					<fielddominance>none</fielddominance>
					</samplecharacteristics>
					</video>
					</media>
					</file>
					<filter>
					<effect>
					<name></name>
					<effectid>GraphicAndType</effectid>
					<effectcategory>graphic</effectcategory>
					<effecttype>filter</effecttype>
					<mediatype>video</mediatype>
					<pproBypass>false</pproBypass>
					<parameter authoringApp="PremierePro">
					<parameterid>1</parameterid>
					<name></name>
					<hash>025b1101-ead6-0ca2-1feb-caf3000001fc</hash>
					<value>5AEAAAAAAABEMyIRDAAAAAAABgAKAAQABgAAAGQAAAAAAF4ASAAQAAwARABAADwAOAAAAAAAAAAAADQAMwAsAAAAKAAkACAAAAAAAAAAAAAAAAAAHAAAAAAAGgAAAAAAAAAUAAAAAAAAAAAAAAAAAAAAAAAAAAgAAAAAABsABwBeAAAAAAAAAUAAAABQAAAAbAAAAAIAAAAAAAEAAQAAAAAAQEEAAMBAAABAQAAAyEIAAAABIAAAAAIAAAACAAAAAAA2QwCASkTw/v//9P7///j+//8S////AAAAAAEAAAAEAAAAEQAAAEhHUFNvZWlLYWt1cG9wdGFpAAAAAQAAAAwAAAAIAAwABAAIAAgAAAAIAAAAUAAAAA8AAADvvIEAAAAAAAAAAAAAAAAAAAA2ACQAAAAgABwAAAAAABsAFAAAAAAAAAAAAAAAAAAAAAAAAAAAABAAAAAAAAAADAAAAAgABAA2AAAAAgAAABwAAAAcAAAAHAAAAAAAIEEAAAABaAAAAE3PAEOw////tP///wEAAAAUAAAAEAAaAAgABwAMAAAAEAAUABAAAAAAAAABHAAAAAAAoEEcAAAAAgAAAAAACgAIAAUABgAHAAoAAAAADAD//P///wQABAAEAAAACAAIAAYABwAIAAAAAAAMAA==</value>
					</parameter>
					<parameter authoringApp="PremierePro">
					<parameterid>2</parameterid>
					<name></name>
					<IsTimeVarying>false</IsTimeVarying>
					<ParameterControlType>11</ParameterControlType>
					<LowerBound>false</LowerBound>
					<UpperBound>false</UpperBound>
					<value>-91445760000000000,false,0,0,0,0,0,0</value>
					</parameter>
					<parameter authoringApp="PremierePro">
					<parameterid>3</parameterid>
					<name></name>
					<IsTimeVarying>false</IsTimeVarying>
					<value>-91445760000000000,0.5:0.5,0,0,0,0,0,0,5,4,0,0,0,0</value>
					</parameter>
					<parameter authoringApp="PremierePro">
					<parameterid>4</parameterid>
					<name></name>
					<IsTimeVarying>false</IsTimeVarying>
					<ParameterControlType>2</ParameterControlType>
					<LowerBound>0</LowerBound>
					<UpperBound>4000</UpperBound>
					<value>-91445760000000000,100.,0,0,0,0,0,0</value>
					</parameter>
					<parameter authoringApp="PremierePro">
					<parameterid>8</parameterid>
					<name></name>
					<IsTimeVarying>false</IsTimeVarying>
					<ParameterControlType>2</ParameterControlType>
					<LowerBound>0</LowerBound>
					<UpperBound>100</UpperBound>
					<value>-91445760000000000,100.,0,0,0,0,0,0</value>
					</parameter>
					</effect>
					</filter>
					<logginginfo>
					<description></description>
					<scene></scene>
					<shottake></shottake>
					<lognote></lognote>
					<good></good>
					<originalvideofilename></originalvideofilename>
					<originalaudiofilename></originalaudiofilename>
					</logginginfo>
					<colorinfo>
					<lut></lut>
					<lut1></lut1>
					<asc_sop></asc_sop>
					<asc_sat></asc_sat>
					<lut2></lut2>
					</colorinfo>
					<labels>
					</labels>
					</clipitem>
					<clipitem frameBlend="FALSE" id="clipitem-349">
					<masterclipid>masterclip-269</masterclipid>
					<name></name>
					<enabled>TRUE</enabled>
					<duration>2582774</duration>
					<rate>
					
					                                    <timebase>60</timebase>
					                                    <ntsc>TRUE</ntsc>
					                                
					</rate>
					<start>2303</start>
					<end>2363</end>
					<in>2303</in>
					<out>2363</out>
					<pproTicksIn>914456774963789</pproTicksIn>
					<pproTicksOut>914677708529577</pproTicksOut>
					<alphatype>straight</alphatype>
					<pixelaspectratio>square</pixelaspectratio>
					<anamorphic>FALSE</anamorphic>
					<file id="file-268">
					<name></name>
					<mediaSource>GraphicAndType</mediaSource>
					<rate>
					<timebase>60</timebase>
					<ntsc>TRUE</ntsc>
					</rate>
					<timecode>
					<rate>
					<timebase>60</timebase>
					<ntsc>TRUE</ntsc>
					</rate>
					<string>00:00:00:00</string>
					<frame>0</frame>
					<displayformat>NDF</displayformat>
					</timecode>
					<media>
					<video>
					<samplecharacteristics>
					<rate>
					<timebase>60</timebase>
					<ntsc>TRUE</ntsc>
					</rate>
					<width>1080</width>
					<height>1920</height>
					<anamorphic>FALSE</anamorphic>
					<pixelaspectratio>square</pixelaspectratio>
					<fielddominance>none</fielddominance>
					</samplecharacteristics>
					</video>
					</media>
					</file>
					<filter>
					<effect>
					<name></name>
					<effectid>GraphicAndType</effectid>
					<effectcategory>graphic</effectcategory>
					<effecttype>filter</effecttype>
					<mediatype>video</mediatype>
					<pproBypass>false</pproBypass>
					<parameter authoringApp="PremierePro">
					<parameterid>1</parameterid>
					<name></name>
					<hash>025b1101-ead6-0ca2-1feb-caf3000001fc</hash>
					<value>5AEAAAAAAABEMyIRDAAAAAAABgAKAAQABgAAAGQAAAAAAF4ASAAQAAwARABAADwAOAAAAAAAAAAAADQAMwAsAAAAKAAkACAAAAAAAAAAAAAAAAAAHAAAAAAAGgAAAAAAAAAUAAAAAAAAAAAAAAAAAAAAAAAAAAgAAAAAABsABwBeAAAAAAAAAUAAAABQAAAAbAAAAAIAAAAAAAEAAQAAAAAAQEEAAMBAAABAQAAAyEIAAAABIAAAAAIAAAACAAAAAAA2QwCASkTw/v//9P7///j+//8S////AAAAAAEAAAAEAAAAEQAAAEhHUFNvZWlLYWt1cG9wdGFpAAAAAQAAAAwAAAAIAAwABAAIAAgAAAAIAAAAUAAAAA8AAADvvIEAAAAAAAAAAAAAAAAAAAA2ACQAAAAgABwAAAAAABsAFAAAAAAAAAAAAAAAAAAAAAAAAAAAABAAAAAAAAAADAAAAAgABAA2AAAAAgAAABwAAAAcAAAAHAAAAAAAIEEAAAABaAAAAE3PAEOw////tP///wEAAAAUAAAAEAAaAAgABwAMAAAAEAAUABAAAAAAAAABHAAAAAAAoEEcAAAAAgAAAAAACgAIAAUABgAHAAoAAAAADAD//P///wQABAAEAAAACAAIAAYABwAIAAAAAAAMAA==</value>
					</parameter>
					<parameter authoringApp="PremierePro">
					<parameterid>2</parameterid>
					<name></name>
					<IsTimeVarying>false</IsTimeVarying>
					<ParameterControlType>11</ParameterControlType>
					<LowerBound>false</LowerBound>
					<UpperBound>false</UpperBound>
					<value>-91445760000000000,false,0,0,0,0,0,0</value>
					</parameter>
					<parameter authoringApp="PremierePro">
					<parameterid>3</parameterid>
					<name></name>
					<IsTimeVarying>false</IsTimeVarying>
					<value>-91445760000000000,0.5:0.5,0,0,0,0,0,0,5,4,0,0,0,0</value>
					</parameter>
					<parameter authoringApp="PremierePro">
					<parameterid>4</parameterid>
					<name></name>
					<IsTimeVarying>false</IsTimeVarying>
					<ParameterControlType>2</ParameterControlType>
					<LowerBound>0</LowerBound>
					<UpperBound>4000</UpperBound>
					<value>-91445760000000000,100.,0,0,0,0,0,0</value>
					</parameter>
					<parameter authoringApp="PremierePro">
					<parameterid>8</parameterid>
					<name></name>
					<IsTimeVarying>false</IsTimeVarying>
					<ParameterControlType>2</ParameterControlType>
					<LowerBound>0</LowerBound>
					<UpperBound>100</UpperBound>
					<value>-91445760000000000,100.,0,0,0,0,0,0</value>
					</parameter>
					</effect>
					</filter>
					<logginginfo>
					<description></description>
					<scene></scene>
					<shottake></shottake>
					<lognote></lognote>
					<good></good>
					<originalvideofilename></originalvideofilename>
					<originalaudiofilename></originalaudiofilename>
					</logginginfo>
					<colorinfo>
					<lut></lut>
					<lut1></lut1>
					<asc_sop></asc_sop>
					<asc_sat></asc_sat>
					<lut2></lut2>
					</colorinfo>
					<labels>
					</labels>
					</clipitem>
					<clipitem frameBlend="FALSE" id="clipitem-355">
					<masterclipid>masterclip-275</masterclipid>
					<name></name>
					<enabled>TRUE</enabled>
					<duration>2582774</duration>
					<rate>
					
					                                    <timebase>60</timebase>
					                                    <ntsc>TRUE</ntsc>
					                                
					</rate>
					<start>2369</start>
					<end>2435</end>
					<in>2369</in>
					<out>2435</out>
					<pproTicksIn>914456774963789</pproTicksIn>
					<pproTicksOut>914677708529577</pproTicksOut>
					<alphatype>straight</alphatype>
					<pixelaspectratio>square</pixelaspectratio>
					<anamorphic>FALSE</anamorphic>
					<file id="file-274">
					<name></name>
					<mediaSource>GraphicAndType</mediaSource>
					<rate>
					<timebase>60</timebase>
					<ntsc>TRUE</ntsc>
					</rate>
					<timecode>
					<rate>
					<timebase>60</timebase>
					<ntsc>TRUE</ntsc>
					</rate>
					<string>00:00:00:00</string>
					<frame>0</frame>
					<displayformat>NDF</displayformat>
					</timecode>
					<media>
					<video>
					<samplecharacteristics>
					<rate>
					<timebase>60</timebase>
					<ntsc>TRUE</ntsc>
					</rate>
					<width>1080</width>
					<height>1920</height>
					<anamorphic>FALSE</anamorphic>
					<pixelaspectratio>square</pixelaspectratio>
					<fielddominance>none</fielddominance>
					</samplecharacteristics>
					</video>
					</media>
					</file>
					<filter>
					<effect>
					<name></name>
					<effectid>GraphicAndType</effectid>
					<effectcategory>graphic</effectcategory>
					<effecttype>filter</effecttype>
					<mediatype>video</mediatype>
					<pproBypass>false</pproBypass>
					<parameter authoringApp="PremierePro">
					<parameterid>1</parameterid>
					<name></name>
					<hash>025b1101-ead6-0ca2-1feb-caf3000001fc</hash>
					<value>5AEAAAAAAABEMyIRDAAAAAAABgAKAAQABgAAAGQAAAAAAF4ASAAQAAwARABAADwAOAAAAAAAAAAAADQAMwAsAAAAKAAkACAAAAAAAAAAAAAAAAAAHAAAAAAAGgAAAAAAAAAUAAAAAAAAAAAAAAAAAAAAAAAAAAgAAAAAABsABwBeAAAAAAAAAUAAAABQAAAAbAAAAAIAAAAAAAEAAQAAAAAAQEEAAMBAAABAQAAAyEIAAAABIAAAAAIAAAACAAAAAAA2QwCASkTw/v//9P7///j+//8S////AAAAAAEAAAAEAAAAEQAAAEhHUFNvZWlLYWt1cG9wdGFpAAAAAQAAAAwAAAAIAAwABAAIAAgAAAAIAAAAUAAAAA8AAADvvIEAAAAAAAAAAAAAAAAAAAA2ACQAAAAgABwAAAAAABsAFAAAAAAAAAAAAAAAAAAAAAAAAAAAABAAAAAAAAAADAAAAAgABAA2AAAAAgAAABwAAAAcAAAAHAAAAAAAIEEAAAABaAAAAE3PAEOw////tP///wEAAAAUAAAAEAAaAAgABwAMAAAAEAAUABAAAAAAAAABHAAAAAAAoEEcAAAAAgAAAAAACgAIAAUABgAHAAoAAAAADAD//P///wQABAAEAAAACAAIAAYABwAIAAAAAAAMAA==</value>
					</parameter>
					<parameter authoringApp="PremierePro">
					<parameterid>2</parameterid>
					<name></name>
					<IsTimeVarying>false</IsTimeVarying>
					<ParameterControlType>11</ParameterControlType>
					<LowerBound>false</LowerBound>
					<UpperBound>false</UpperBound>
					<value>-91445760000000000,false,0,0,0,0,0,0</value>
					</parameter>
					<parameter authoringApp="PremierePro">
					<parameterid>3</parameterid>
					<name></name>
					<IsTimeVarying>false</IsTimeVarying>
					<value>-91445760000000000,0.5:0.5,0,0,0,0,0,0,5,4,0,0,0,0</value>
					</parameter>
					<parameter authoringApp="PremierePro">
					<parameterid>4</parameterid>
					<name></name>
					<IsTimeVarying>false</IsTimeVarying>
					<ParameterControlType>2</ParameterControlType>
					<LowerBound>0</LowerBound>
					<UpperBound>4000</UpperBound>
					<value>-91445760000000000,100.,0,0,0,0,0,0</value>
					</parameter>
					<parameter authoringApp="PremierePro">
					<parameterid>8</parameterid>
					<name></name>
					<IsTimeVarying>false</IsTimeVarying>
					<ParameterControlType>2</ParameterControlType>
					<LowerBound>0</LowerBound>
					<UpperBound>100</UpperBound>
					<value>-91445760000000000,100.,0,0,0,0,0,0</value>
					</parameter>
					</effect>
					</filter>
					<logginginfo>
					<description></description>
					<scene></scene>
					<shottake></shottake>
					<lognote></lognote>
					<good></good>
					<originalvideofilename></originalvideofilename>
					<originalaudiofilename></originalaudiofilename>
					</logginginfo>
					<colorinfo>
					<lut></lut>
					<lut1></lut1>
					<asc_sop></asc_sop>
					<asc_sat></asc_sat>
					<lut2></lut2>
					</colorinfo>
					<labels>
					</labels>
					</clipitem>
					<clipitem frameBlend="FALSE" id="clipitem-359">
					<masterclipid>masterclip-279</masterclipid>
					<name></name>
					<enabled>TRUE</enabled>
					<duration>2582774</duration>
					<rate>
					
					                                    <timebase>60</timebase>
					                                    <ntsc>TRUE</ntsc>
					                                
					</rate>
					<start>2435</start>
					<end>2495</end>
					<in>2435</in>
					<out>2495</out>
					<pproTicksIn>914456774963789</pproTicksIn>
					<pproTicksOut>914677708529577</pproTicksOut>
					<alphatype>straight</alphatype>
					<pixelaspectratio>square</pixelaspectratio>
					<anamorphic>FALSE</anamorphic>
					<file id="file-278">
					<name></name>
					<mediaSource>GraphicAndType</mediaSource>
					<rate>
					<timebase>60</timebase>
					<ntsc>TRUE</ntsc>
					</rate>
					<timecode>
					<rate>
					<timebase>60</timebase>
					<ntsc>TRUE</ntsc>
					</rate>
					<string>00:00:00:00</string>
					<frame>0</frame>
					<displayformat>NDF</displayformat>
					</timecode>
					<media>
					<video>
					<samplecharacteristics>
					<rate>
					<timebase>60</timebase>
					<ntsc>TRUE</ntsc>
					</rate>
					<width>1080</width>
					<height>1920</height>
					<anamorphic>FALSE</anamorphic>
					<pixelaspectratio>square</pixelaspectratio>
					<fielddominance>none</fielddominance>
					</samplecharacteristics>
					</video>
					</media>
					</file>
					<filter>
					<effect>
					<name></name>
					<effectid>GraphicAndType</effectid>
					<effectcategory>graphic</effectcategory>
					<effecttype>filter</effecttype>
					<mediatype>video</mediatype>
					<pproBypass>false</pproBypass>
					<parameter authoringApp="PremierePro">
					<parameterid>1</parameterid>
					<name></name>
					<hash>025b1101-ead6-0ca2-1feb-caf3000001fc</hash>
					<value>5AEAAAAAAABEMyIRDAAAAAAABgAKAAQABgAAAGQAAAAAAF4ASAAQAAwARABAADwAOAAAAAAAAAAAADQAMwAsAAAAKAAkACAAAAAAAAAAAAAAAAAAHAAAAAAAGgAAAAAAAAAUAAAAAAAAAAAAAAAAAAAAAAAAAAgAAAAAABsABwBeAAAAAAAAAUAAAABQAAAAbAAAAAIAAAAAAAEAAQAAAAAAQEEAAMBAAABAQAAAyEIAAAABIAAAAAIAAAACAAAAAAA2QwCASkTw/v//9P7///j+//8S////AAAAAAEAAAAEAAAAEQAAAEhHUFNvZWlLYWt1cG9wdGFpAAAAAQAAAAwAAAAIAAwABAAIAAgAAAAIAAAAUAAAAA8AAADvvIEAAAAAAAAAAAAAAAAAAAA2ACQAAAAgABwAAAAAABsAFAAAAAAAAAAAAAAAAAAAAAAAAAAAABAAAAAAAAAADAAAAAgABAA2AAAAAgAAABwAAAAcAAAAHAAAAAAAIEEAAAABaAAAAE3PAEOw////tP///wEAAAAUAAAAEAAaAAgABwAMAAAAEAAUABAAAAAAAAABHAAAAAAAoEEcAAAAAgAAAAAACgAIAAUABgAHAAoAAAAADAD//P///wQABAAEAAAACAAIAAYABwAIAAAAAAAMAA==</value>
					</parameter>
					<parameter authoringApp="PremierePro">
					<parameterid>2</parameterid>
					<name></name>
					<IsTimeVarying>false</IsTimeVarying>
					<ParameterControlType>11</ParameterControlType>
					<LowerBound>false</LowerBound>
					<UpperBound>false</UpperBound>
					<value>-91445760000000000,false,0,0,0,0,0,0</value>
					</parameter>
					<parameter authoringApp="PremierePro">
					<parameterid>3</parameterid>
					<name></name>
					<IsTimeVarying>false</IsTimeVarying>
					<value>-91445760000000000,0.5:0.5,0,0,0,0,0,0,5,4,0,0,0,0</value>
					</parameter>
					<parameter authoringApp="PremierePro">
					<parameterid>4</parameterid>
					<name></name>
					<IsTimeVarying>false</IsTimeVarying>
					<ParameterControlType>2</ParameterControlType>
					<LowerBound>0</LowerBound>
					<UpperBound>4000</UpperBound>
					<value>-91445760000000000,100.,0,0,0,0,0,0</value>
					</parameter>
					<parameter authoringApp="PremierePro">
					<parameterid>8</parameterid>
					<name></name>
					<IsTimeVarying>false</IsTimeVarying>
					<ParameterControlType>2</ParameterControlType>
					<LowerBound>0</LowerBound>
					<UpperBound>100</UpperBound>
					<value>-91445760000000000,100.,0,0,0,0,0,0</value>
					</parameter>
					</effect>
					</filter>
					<logginginfo>
					<description></description>
					<scene></scene>
					<shottake></shottake>
					<lognote></lognote>
					<good></good>
					<originalvideofilename></originalvideofilename>
					<originalaudiofilename></originalaudiofilename>
					</logginginfo>
					<colorinfo>
					<lut></lut>
					<lut1></lut1>
					<asc_sop></asc_sop>
					<asc_sat></asc_sat>
					<lut2></lut2>
					</colorinfo>
					<labels>
					</labels>
					</clipitem>
					<clipitem frameBlend="FALSE" id="clipitem-363">
					<masterclipid>masterclip-283</masterclipid>
					<name></name>
					<enabled>TRUE</enabled>
					<duration>2582774</duration>
					<rate>
					
					                                    <timebase>60</timebase>
					                                    <ntsc>TRUE</ntsc>
					                                
					</rate>
					<start>2513</start>
					<end>2573</end>
					<in>2513</in>
					<out>2573</out>
					<pproTicksIn>914456774963789</pproTicksIn>
					<pproTicksOut>914677708529577</pproTicksOut>
					<alphatype>straight</alphatype>
					<pixelaspectratio>square</pixelaspectratio>
					<anamorphic>FALSE</anamorphic>
					<file id="file-282">
					<name></name>
					<mediaSource>GraphicAndType</mediaSource>
					<rate>
					<timebase>60</timebase>
					<ntsc>TRUE</ntsc>
					</rate>
					<timecode>
					<rate>
					<timebase>60</timebase>
					<ntsc>TRUE</ntsc>
					</rate>
					<string>00:00:00:00</string>
					<frame>0</frame>
					<displayformat>NDF</displayformat>
					</timecode>
					<media>
					<video>
					<samplecharacteristics>
					<rate>
					<timebase>60</timebase>
					<ntsc>TRUE</ntsc>
					</rate>
					<width>1080</width>
					<height>1920</height>
					<anamorphic>FALSE</anamorphic>
					<pixelaspectratio>square</pixelaspectratio>
					<fielddominance>none</fielddominance>
					</samplecharacteristics>
					</video>
					</media>
					</file>
					<filter>
					<effect>
					<name></name>
					<effectid>GraphicAndType</effectid>
					<effectcategory>graphic</effectcategory>
					<effecttype>filter</effecttype>
					<mediatype>video</mediatype>
					<pproBypass>false</pproBypass>
					<parameter authoringApp="PremierePro">
					<parameterid>1</parameterid>
					<name></name>
					<hash>025b1101-ead6-0ca2-1feb-caf3000001fc</hash>
					<value>5AEAAAAAAABEMyIRDAAAAAAABgAKAAQABgAAAGQAAAAAAF4ASAAQAAwARABAADwAOAAAAAAAAAAAADQAMwAsAAAAKAAkACAAAAAAAAAAAAAAAAAAHAAAAAAAGgAAAAAAAAAUAAAAAAAAAAAAAAAAAAAAAAAAAAgAAAAAABsABwBeAAAAAAAAAUAAAABQAAAAbAAAAAIAAAAAAAEAAQAAAAAAQEEAAMBAAABAQAAAyEIAAAABIAAAAAIAAAACAAAAAAA2QwCASkTw/v//9P7///j+//8S////AAAAAAEAAAAEAAAAEQAAAEhHUFNvZWlLYWt1cG9wdGFpAAAAAQAAAAwAAAAIAAwABAAIAAgAAAAIAAAAUAAAAA8AAADvvIEAAAAAAAAAAAAAAAAAAAA2ACQAAAAgABwAAAAAABsAFAAAAAAAAAAAAAAAAAAAAAAAAAAAABAAAAAAAAAADAAAAAgABAA2AAAAAgAAABwAAAAcAAAAHAAAAAAAIEEAAAABaAAAAE3PAEOw////tP///wEAAAAUAAAAEAAaAAgABwAMAAAAEAAUABAAAAAAAAABHAAAAAAAoEEcAAAAAgAAAAAACgAIAAUABgAHAAoAAAAADAD//P///wQABAAEAAAACAAIAAYABwAIAAAAAAAMAA==</value>
					</parameter>
					<parameter authoringApp="PremierePro">
					<parameterid>2</parameterid>
					<name></name>
					<IsTimeVarying>false</IsTimeVarying>
					<ParameterControlType>11</ParameterControlType>
					<LowerBound>false</LowerBound>
					<UpperBound>false</UpperBound>
					<value>-91445760000000000,false,0,0,0,0,0,0</value>
					</parameter>
					<parameter authoringApp="PremierePro">
					<parameterid>3</parameterid>
					<name></name>
					<IsTimeVarying>false</IsTimeVarying>
					<value>-91445760000000000,0.5:0.5,0,0,0,0,0,0,5,4,0,0,0,0</value>
					</parameter>
					<parameter authoringApp="PremierePro">
					<parameterid>4</parameterid>
					<name></name>
					<IsTimeVarying>false</IsTimeVarying>
					<ParameterControlType>2</ParameterControlType>
					<LowerBound>0</LowerBound>
					<UpperBound>4000</UpperBound>
					<value>-91445760000000000,100.,0,0,0,0,0,0</value>
					</parameter>
					<parameter authoringApp="PremierePro">
					<parameterid>8</parameterid>
					<name></name>
					<IsTimeVarying>false</IsTimeVarying>
					<ParameterControlType>2</ParameterControlType>
					<LowerBound>0</LowerBound>
					<UpperBound>100</UpperBound>
					<value>-91445760000000000,100.,0,0,0,0,0,0</value>
					</parameter>
					</effect>
					</filter>
					<logginginfo>
					<description></description>
					<scene></scene>
					<shottake></shottake>
					<lognote></lognote>
					<good></good>
					<originalvideofilename></originalvideofilename>
					<originalaudiofilename></originalaudiofilename>
					</logginginfo>
					<colorinfo>
					<lut></lut>
					<lut1></lut1>
					<asc_sop></asc_sop>
					<asc_sat></asc_sat>
					<lut2></lut2>
					</colorinfo>
					<labels>
					</labels>
					</clipitem>
					<clipitem frameBlend="FALSE" id="clipitem-371">
					<masterclipid>masterclip-291</masterclipid>
					<name></name>
					<enabled>TRUE</enabled>
					<duration>2582774</duration>
					<rate>
					
					                                    <timebase>60</timebase>
					                                    <ntsc>TRUE</ntsc>
					                                
					</rate>
					<start>2579</start>
					<end>2639</end>
					<in>2579</in>
					<out>2639</out>
					<pproTicksIn>914456774963789</pproTicksIn>
					<pproTicksOut>914677708529577</pproTicksOut>
					<alphatype>straight</alphatype>
					<pixelaspectratio>square</pixelaspectratio>
					<anamorphic>FALSE</anamorphic>
					<file id="file-290">
					<name></name>
					<mediaSource>GraphicAndType</mediaSource>
					<rate>
					<timebase>60</timebase>
					<ntsc>TRUE</ntsc>
					</rate>
					<timecode>
					<rate>
					<timebase>60</timebase>
					<ntsc>TRUE</ntsc>
					</rate>
					<string>00:00:00:00</string>
					<frame>0</frame>
					<displayformat>NDF</displayformat>
					</timecode>
					<media>
					<video>
					<samplecharacteristics>
					<rate>
					<timebase>60</timebase>
					<ntsc>TRUE</ntsc>
					</rate>
					<width>1080</width>
					<height>1920</height>
					<anamorphic>FALSE</anamorphic>
					<pixelaspectratio>square</pixelaspectratio>
					<fielddominance>none</fielddominance>
					</samplecharacteristics>
					</video>
					</media>
					</file>
					<filter>
					<effect>
					<name></name>
					<effectid>GraphicAndType</effectid>
					<effectcategory>graphic</effectcategory>
					<effecttype>filter</effecttype>
					<mediatype>video</mediatype>
					<pproBypass>false</pproBypass>
					<parameter authoringApp="PremierePro">
					<parameterid>1</parameterid>
					<name></name>
					<hash>025b1101-ead6-0ca2-1feb-caf3000001fc</hash>
					<value>5AEAAAAAAABEMyIRDAAAAAAABgAKAAQABgAAAGQAAAAAAF4ASAAQAAwARABAADwAOAAAAAAAAAAAADQAMwAsAAAAKAAkACAAAAAAAAAAAAAAAAAAHAAAAAAAGgAAAAAAAAAUAAAAAAAAAAAAAAAAAAAAAAAAAAgAAAAAABsABwBeAAAAAAAAAUAAAABQAAAAbAAAAAIAAAAAAAEAAQAAAAAAQEEAAMBAAABAQAAAyEIAAAABIAAAAAIAAAACAAAAAAA2QwCASkTw/v//9P7///j+//8S////AAAAAAEAAAAEAAAAEQAAAEhHUFNvZWlLYWt1cG9wdGFpAAAAAQAAAAwAAAAIAAwABAAIAAgAAAAIAAAAUAAAAA8AAADvvIEAAAAAAAAAAAAAAAAAAAA2ACQAAAAgABwAAAAAABsAFAAAAAAAAAAAAAAAAAAAAAAAAAAAABAAAAAAAAAADAAAAAgABAA2AAAAAgAAABwAAAAcAAAAHAAAAAAAIEEAAAABaAAAAE3PAEOw////tP///wEAAAAUAAAAEAAaAAgABwAMAAAAEAAUABAAAAAAAAABHAAAAAAAoEEcAAAAAgAAAAAACgAIAAUABgAHAAoAAAAADAD//P///wQABAAEAAAACAAIAAYABwAIAAAAAAAMAA==</value>
					</parameter>
					<parameter authoringApp="PremierePro">
					<parameterid>2</parameterid>
					<name></name>
					<IsTimeVarying>false</IsTimeVarying>
					<ParameterControlType>11</ParameterControlType>
					<LowerBound>false</LowerBound>
					<UpperBound>false</UpperBound>
					<value>-91445760000000000,false,0,0,0,0,0,0</value>
					</parameter>
					<parameter authoringApp="PremierePro">
					<parameterid>3</parameterid>
					<name></name>
					<IsTimeVarying>false</IsTimeVarying>
					<value>-91445760000000000,0.5:0.5,0,0,0,0,0,0,5,4,0,0,0,0</value>
					</parameter>
					<parameter authoringApp="PremierePro">
					<parameterid>4</parameterid>
					<name></name>
					<IsTimeVarying>false</IsTimeVarying>
					<ParameterControlType>2</ParameterControlType>
					<LowerBound>0</LowerBound>
					<UpperBound>4000</UpperBound>
					<value>-91445760000000000,100.,0,0,0,0,0,0</value>
					</parameter>
					<parameter authoringApp="PremierePro">
					<parameterid>8</parameterid>
					<name></name>
					<IsTimeVarying>false</IsTimeVarying>
					<ParameterControlType>2</ParameterControlType>
					<LowerBound>0</LowerBound>
					<UpperBound>100</UpperBound>
					<value>-91445760000000000,100.,0,0,0,0,0,0</value>
					</parameter>
					</effect>
					</filter>
					<logginginfo>
					<description></description>
					<scene></scene>
					<shottake></shottake>
					<lognote></lognote>
					<good></good>
					<originalvideofilename></originalvideofilename>
					<originalaudiofilename></originalaudiofilename>
					</logginginfo>
					<colorinfo>
					<lut></lut>
					<lut1></lut1>
					<asc_sop></asc_sop>
					<asc_sat></asc_sat>
					<lut2></lut2>
					</colorinfo>
					<labels>
					</labels>
					</clipitem>
					<clipitem frameBlend="FALSE" id="clipitem-377">
					<masterclipid>masterclip-297</masterclipid>
					<name></name>
					<enabled>TRUE</enabled>
					<duration>2582774</duration>
					<rate>
					
					                                    <timebase>60</timebase>
					                                    <ntsc>TRUE</ntsc>
					                                
					</rate>
					<start>2645</start>
					<end>2705</end>
					<in>2645</in>
					<out>2705</out>
					<pproTicksIn>914456774963789</pproTicksIn>
					<pproTicksOut>914677708529577</pproTicksOut>
					<alphatype>straight</alphatype>
					<pixelaspectratio>square</pixelaspectratio>
					<anamorphic>FALSE</anamorphic>
					<file id="file-296">
					<name></name>
					<mediaSource>GraphicAndType</mediaSource>
					<rate>
					<timebase>60</timebase>
					<ntsc>TRUE</ntsc>
					</rate>
					<timecode>
					<rate>
					<timebase>60</timebase>
					<ntsc>TRUE</ntsc>
					</rate>
					<string>00:00:00:00</string>
					<frame>0</frame>
					<displayformat>NDF</displayformat>
					</timecode>
					<media>
					<video>
					<samplecharacteristics>
					<rate>
					<timebase>60</timebase>
					<ntsc>TRUE</ntsc>
					</rate>
					<width>1080</width>
					<height>1920</height>
					<anamorphic>FALSE</anamorphic>
					<pixelaspectratio>square</pixelaspectratio>
					<fielddominance>none</fielddominance>
					</samplecharacteristics>
					</video>
					</media>
					</file>
					<filter>
					<effect>
					<name></name>
					<effectid>GraphicAndType</effectid>
					<effectcategory>graphic</effectcategory>
					<effecttype>filter</effecttype>
					<mediatype>video</mediatype>
					<pproBypass>false</pproBypass>
					<parameter authoringApp="PremierePro">
					<parameterid>1</parameterid>
					<name></name>
					<hash>025b1101-ead6-0ca2-1feb-caf3000001fc</hash>
					<value>5AEAAAAAAABEMyIRDAAAAAAABgAKAAQABgAAAGQAAAAAAF4ASAAQAAwARABAADwAOAAAAAAAAAAAADQAMwAsAAAAKAAkACAAAAAAAAAAAAAAAAAAHAAAAAAAGgAAAAAAAAAUAAAAAAAAAAAAAAAAAAAAAAAAAAgAAAAAABsABwBeAAAAAAAAAUAAAABQAAAAbAAAAAIAAAAAAAEAAQAAAAAAQEEAAMBAAABAQAAAyEIAAAABIAAAAAIAAAACAAAAAAA2QwCASkTw/v//9P7///j+//8S////AAAAAAEAAAAEAAAAEQAAAEhHUFNvZWlLYWt1cG9wdGFpAAAAAQAAAAwAAAAIAAwABAAIAAgAAAAIAAAAUAAAAA8AAADvvIEAAAAAAAAAAAAAAAAAAAA2ACQAAAAgABwAAAAAABsAFAAAAAAAAAAAAAAAAAAAAAAAAAAAABAAAAAAAAAADAAAAAgABAA2AAAAAgAAABwAAAAcAAAAHAAAAAAAIEEAAAABaAAAAE3PAEOw////tP///wEAAAAUAAAAEAAaAAgABwAMAAAAEAAUABAAAAAAAAABHAAAAAAAoEEcAAAAAgAAAAAACgAIAAUABgAHAAoAAAAADAD//P///wQABAAEAAAACAAIAAYABwAIAAAAAAAMAA==</value>
					</parameter>
					<parameter authoringApp="PremierePro">
					<parameterid>2</parameterid>
					<name></name>
					<IsTimeVarying>false</IsTimeVarying>
					<ParameterControlType>11</ParameterControlType>
					<LowerBound>false</LowerBound>
					<UpperBound>false</UpperBound>
					<value>-91445760000000000,false,0,0,0,0,0,0</value>
					</parameter>
					<parameter authoringApp="PremierePro">
					<parameterid>3</parameterid>
					<name></name>
					<IsTimeVarying>false</IsTimeVarying>
					<value>-91445760000000000,0.5:0.5,0,0,0,0,0,0,5,4,0,0,0,0</value>
					</parameter>
					<parameter authoringApp="PremierePro">
					<parameterid>4</parameterid>
					<name></name>
					<IsTimeVarying>false</IsTimeVarying>
					<ParameterControlType>2</ParameterControlType>
					<LowerBound>0</LowerBound>
					<UpperBound>4000</UpperBound>
					<value>-91445760000000000,100.,0,0,0,0,0,0</value>
					</parameter>
					<parameter authoringApp="PremierePro">
					<parameterid>8</parameterid>
					<name></name>
					<IsTimeVarying>false</IsTimeVarying>
					<ParameterControlType>2</ParameterControlType>
					<LowerBound>0</LowerBound>
					<UpperBound>100</UpperBound>
					<value>-91445760000000000,100.,0,0,0,0,0,0</value>
					</parameter>
					</effect>
					</filter>
					<logginginfo>
					<description></description>
					<scene></scene>
					<shottake></shottake>
					<lognote></lognote>
					<good></good>
					<originalvideofilename></originalvideofilename>
					<originalaudiofilename></originalaudiofilename>
					</logginginfo>
					<colorinfo>
					<lut></lut>
					<lut1></lut1>
					<asc_sop></asc_sop>
					<asc_sat></asc_sat>
					<lut2></lut2>
					</colorinfo>
					<labels>
					</labels>
					</clipitem>
					<clipitem frameBlend="FALSE" id="clipitem-384">
					<masterclipid>masterclip-304</masterclipid>
					<name></name>
					<enabled>TRUE</enabled>
					<duration>2582774</duration>
					<rate>
					
					                                    <timebase>60</timebase>
					                                    <ntsc>TRUE</ntsc>
					                                
					</rate>
					<start>2723</start>
					<end>2789</end>
					<in>2723</in>
					<out>2789</out>
					<pproTicksIn>914456774963789</pproTicksIn>
					<pproTicksOut>914677708529577</pproTicksOut>
					<alphatype>straight</alphatype>
					<pixelaspectratio>square</pixelaspectratio>
					<anamorphic>FALSE</anamorphic>
					<file id="file-303">
					<name></name>
					<mediaSource>GraphicAndType</mediaSource>
					<rate>
					<timebase>60</timebase>
					<ntsc>TRUE</ntsc>
					</rate>
					<timecode>
					<rate>
					<timebase>60</timebase>
					<ntsc>TRUE</ntsc>
					</rate>
					<string>00:00:00:00</string>
					<frame>0</frame>
					<displayformat>NDF</displayformat>
					</timecode>
					<media>
					<video>
					<samplecharacteristics>
					<rate>
					<timebase>60</timebase>
					<ntsc>TRUE</ntsc>
					</rate>
					<width>1080</width>
					<height>1920</height>
					<anamorphic>FALSE</anamorphic>
					<pixelaspectratio>square</pixelaspectratio>
					<fielddominance>none</fielddominance>
					</samplecharacteristics>
					</video>
					</media>
					</file>
					<filter>
					<effect>
					<name></name>
					<effectid>GraphicAndType</effectid>
					<effectcategory>graphic</effectcategory>
					<effecttype>filter</effecttype>
					<mediatype>video</mediatype>
					<pproBypass>false</pproBypass>
					<parameter authoringApp="PremierePro">
					<parameterid>1</parameterid>
					<name></name>
					<hash>025b1101-ead6-0ca2-1feb-caf3000001fc</hash>
					<value>5AEAAAAAAABEMyIRDAAAAAAABgAKAAQABgAAAGQAAAAAAF4ASAAQAAwARABAADwAOAAAAAAAAAAAADQAMwAsAAAAKAAkACAAAAAAAAAAAAAAAAAAHAAAAAAAGgAAAAAAAAAUAAAAAAAAAAAAAAAAAAAAAAAAAAgAAAAAABsABwBeAAAAAAAAAUAAAABQAAAAbAAAAAIAAAAAAAEAAQAAAAAAQEEAAMBAAABAQAAAyEIAAAABIAAAAAIAAAACAAAAAAA2QwCASkTw/v//9P7///j+//8S////AAAAAAEAAAAEAAAAEQAAAEhHUFNvZWlLYWt1cG9wdGFpAAAAAQAAAAwAAAAIAAwABAAIAAgAAAAIAAAAUAAAAA8AAADvvIEAAAAAAAAAAAAAAAAAAAA2ACQAAAAgABwAAAAAABsAFAAAAAAAAAAAAAAAAAAAAAAAAAAAABAAAAAAAAAADAAAAAgABAA2AAAAAgAAABwAAAAcAAAAHAAAAAAAIEEAAAABaAAAAE3PAEOw////tP///wEAAAAUAAAAEAAaAAgABwAMAAAAEAAUABAAAAAAAAABHAAAAAAAoEEcAAAAAgAAAAAACgAIAAUABgAHAAoAAAAADAD//P///wQABAAEAAAACAAIAAYABwAIAAAAAAAMAA==</value>
					</parameter>
					<parameter authoringApp="PremierePro">
					<parameterid>2</parameterid>
					<name></name>
					<IsTimeVarying>false</IsTimeVarying>
					<ParameterControlType>11</ParameterControlType>
					<LowerBound>false</LowerBound>
					<UpperBound>false</UpperBound>
					<value>-91445760000000000,false,0,0,0,0,0,0</value>
					</parameter>
					<parameter authoringApp="PremierePro">
					<parameterid>3</parameterid>
					<name></name>
					<IsTimeVarying>false</IsTimeVarying>
					<value>-91445760000000000,0.5:0.5,0,0,0,0,0,0,5,4,0,0,0,0</value>
					</parameter>
					<parameter authoringApp="PremierePro">
					<parameterid>4</parameterid>
					<name></name>
					<IsTimeVarying>false</IsTimeVarying>
					<ParameterControlType>2</ParameterControlType>
					<LowerBound>0</LowerBound>
					<UpperBound>4000</UpperBound>
					<value>-91445760000000000,100.,0,0,0,0,0,0</value>
					</parameter>
					<parameter authoringApp="PremierePro">
					<parameterid>8</parameterid>
					<name></name>
					<IsTimeVarying>false</IsTimeVarying>
					<ParameterControlType>2</ParameterControlType>
					<LowerBound>0</LowerBound>
					<UpperBound>100</UpperBound>
					<value>-91445760000000000,100.,0,0,0,0,0,0</value>
					</parameter>
					</effect>
					</filter>
					<logginginfo>
					<description></description>
					<scene></scene>
					<shottake></shottake>
					<lognote></lognote>
					<good></good>
					<originalvideofilename></originalvideofilename>
					<originalaudiofilename></originalaudiofilename>
					</logginginfo>
					<colorinfo>
					<lut></lut>
					<lut1></lut1>
					<asc_sop></asc_sop>
					<asc_sat></asc_sat>
					<lut2></lut2>
					</colorinfo>
					<labels>
					</labels>
					</clipitem>
					<clipitem frameBlend="FALSE" id="clipitem-393">
					<masterclipid>masterclip-313</masterclipid>
					<name></name>
					<enabled>TRUE</enabled>
					<duration>2582774</duration>
					<rate>
					
					                                    <timebase>60</timebase>
					                                    <ntsc>TRUE</ntsc>
					                                
					</rate>
					<start>2789</start>
					<end>2855</end>
					<in>2789</in>
					<out>2855</out>
					<pproTicksIn>914456774963789</pproTicksIn>
					<pproTicksOut>914677708529577</pproTicksOut>
					<alphatype>straight</alphatype>
					<pixelaspectratio>square</pixelaspectratio>
					<anamorphic>FALSE</anamorphic>
					<file id="file-312">
					<name></name>
					<mediaSource>GraphicAndType</mediaSource>
					<rate>
					<timebase>60</timebase>
					<ntsc>TRUE</ntsc>
					</rate>
					<timecode>
					<rate>
					<timebase>60</timebase>
					<ntsc>TRUE</ntsc>
					</rate>
					<string>00:00:00:00</string>
					<frame>0</frame>
					<displayformat>NDF</displayformat>
					</timecode>
					<media>
					<video>
					<samplecharacteristics>
					<rate>
					<timebase>60</timebase>
					<ntsc>TRUE</ntsc>
					</rate>
					<width>1080</width>
					<height>1920</height>
					<anamorphic>FALSE</anamorphic>
					<pixelaspectratio>square</pixelaspectratio>
					<fielddominance>none</fielddominance>
					</samplecharacteristics>
					</video>
					</media>
					</file>
					<filter>
					<effect>
					<name></name>
					<effectid>GraphicAndType</effectid>
					<effectcategory>graphic</effectcategory>
					<effecttype>filter</effecttype>
					<mediatype>video</mediatype>
					<pproBypass>false</pproBypass>
					<parameter authoringApp="PremierePro">
					<parameterid>1</parameterid>
					<name></name>
					<hash>025b1101-ead6-0ca2-1feb-caf3000001fc</hash>
					<value>5AEAAAAAAABEMyIRDAAAAAAABgAKAAQABgAAAGQAAAAAAF4ASAAQAAwARABAADwAOAAAAAAAAAAAADQAMwAsAAAAKAAkACAAAAAAAAAAAAAAAAAAHAAAAAAAGgAAAAAAAAAUAAAAAAAAAAAAAAAAAAAAAAAAAAgAAAAAABsABwBeAAAAAAAAAUAAAABQAAAAbAAAAAIAAAAAAAEAAQAAAAAAQEEAAMBAAABAQAAAyEIAAAABIAAAAAIAAAACAAAAAAA2QwCASkTw/v//9P7///j+//8S////AAAAAAEAAAAEAAAAEQAAAEhHUFNvZWlLYWt1cG9wdGFpAAAAAQAAAAwAAAAIAAwABAAIAAgAAAAIAAAAUAAAAA8AAADvvIEAAAAAAAAAAAAAAAAAAAA2ACQAAAAgABwAAAAAABsAFAAAAAAAAAAAAAAAAAAAAAAAAAAAABAAAAAAAAAADAAAAAgABAA2AAAAAgAAABwAAAAcAAAAHAAAAAAAIEEAAAABaAAAAE3PAEOw////tP///wEAAAAUAAAAEAAaAAgABwAMAAAAEAAUABAAAAAAAAABHAAAAAAAoEEcAAAAAgAAAAAACgAIAAUABgAHAAoAAAAADAD//P///wQABAAEAAAACAAIAAYABwAIAAAAAAAMAA==</value>
					</parameter>
					<parameter authoringApp="PremierePro">
					<parameterid>2</parameterid>
					<name></name>
					<IsTimeVarying>false</IsTimeVarying>
					<ParameterControlType>11</ParameterControlType>
					<LowerBound>false</LowerBound>
					<UpperBound>false</UpperBound>
					<value>-91445760000000000,false,0,0,0,0,0,0</value>
					</parameter>
					<parameter authoringApp="PremierePro">
					<parameterid>3</parameterid>
					<name></name>
					<IsTimeVarying>false</IsTimeVarying>
					<value>-91445760000000000,0.5:0.5,0,0,0,0,0,0,5,4,0,0,0,0</value>
					</parameter>
					<parameter authoringApp="PremierePro">
					<parameterid>4</parameterid>
					<name></name>
					<IsTimeVarying>false</IsTimeVarying>
					<ParameterControlType>2</ParameterControlType>
					<LowerBound>0</LowerBound>
					<UpperBound>4000</UpperBound>
					<value>-91445760000000000,100.,0,0,0,0,0,0</value>
					</parameter>
					<parameter authoringApp="PremierePro">
					<parameterid>8</parameterid>
					<name></name>
					<IsTimeVarying>false</IsTimeVarying>
					<ParameterControlType>2</ParameterControlType>
					<LowerBound>0</LowerBound>
					<UpperBound>100</UpperBound>
					<value>-91445760000000000,100.,0,0,0,0,0,0</value>
					</parameter>
					</effect>
					</filter>
					<logginginfo>
					<description></description>
					<scene></scene>
					<shottake></shottake>
					<lognote></lognote>
					<good></good>
					<originalvideofilename></originalvideofilename>
					<originalaudiofilename></originalaudiofilename>
					</logginginfo>
					<colorinfo>
					<lut></lut>
					<lut1></lut1>
					<asc_sop></asc_sop>
					<asc_sat></asc_sat>
					<lut2></lut2>
					</colorinfo>
					<labels>
					</labels>
					</clipitem>
					<clipitem frameBlend="FALSE" id="clipitem-401">
					<masterclipid>masterclip-321</masterclipid>
					<name></name>
					<enabled>TRUE</enabled>
					<duration>2582774</duration>
					<rate>
					
					                                    <timebase>60</timebase>
					                                    <ntsc>TRUE</ntsc>
					                                
					</rate>
					<start>2855</start>
					<end>2921</end>
					<in>2855</in>
					<out>2921</out>
					<pproTicksIn>914456774963789</pproTicksIn>
					<pproTicksOut>914677708529577</pproTicksOut>
					<alphatype>straight</alphatype>
					<pixelaspectratio>square</pixelaspectratio>
					<anamorphic>FALSE</anamorphic>
					<file id="file-320">
					<name></name>
					<mediaSource>GraphicAndType</mediaSource>
					<rate>
					<timebase>60</timebase>
					<ntsc>TRUE</ntsc>
					</rate>
					<timecode>
					<rate>
					<timebase>60</timebase>
					<ntsc>TRUE</ntsc>
					</rate>
					<string>00:00:00:00</string>
					<frame>0</frame>
					<displayformat>NDF</displayformat>
					</timecode>
					<media>
					<video>
					<samplecharacteristics>
					<rate>
					<timebase>60</timebase>
					<ntsc>TRUE</ntsc>
					</rate>
					<width>1080</width>
					<height>1920</height>
					<anamorphic>FALSE</anamorphic>
					<pixelaspectratio>square</pixelaspectratio>
					<fielddominance>none</fielddominance>
					</samplecharacteristics>
					</video>
					</media>
					</file>
					<filter>
					<effect>
					<name></name>
					<effectid>GraphicAndType</effectid>
					<effectcategory>graphic</effectcategory>
					<effecttype>filter</effecttype>
					<mediatype>video</mediatype>
					<pproBypass>false</pproBypass>
					<parameter authoringApp="PremierePro">
					<parameterid>1</parameterid>
					<name></name>
					<hash>025b1101-ead6-0ca2-1feb-caf3000001fc</hash>
					<value>5AEAAAAAAABEMyIRDAAAAAAABgAKAAQABgAAAGQAAAAAAF4ASAAQAAwARABAADwAOAAAAAAAAAAAADQAMwAsAAAAKAAkACAAAAAAAAAAAAAAAAAAHAAAAAAAGgAAAAAAAAAUAAAAAAAAAAAAAAAAAAAAAAAAAAgAAAAAABsABwBeAAAAAAAAAUAAAABQAAAAbAAAAAIAAAAAAAEAAQAAAAAAQEEAAMBAAABAQAAAyEIAAAABIAAAAAIAAAACAAAAAAA2QwCASkTw/v//9P7///j+//8S////AAAAAAEAAAAEAAAAEQAAAEhHUFNvZWlLYWt1cG9wdGFpAAAAAQAAAAwAAAAIAAwABAAIAAgAAAAIAAAAUAAAAA8AAADvvIEAAAAAAAAAAAAAAAAAAAA2ACQAAAAgABwAAAAAABsAFAAAAAAAAAAAAAAAAAAAAAAAAAAAABAAAAAAAAAADAAAAAgABAA2AAAAAgAAABwAAAAcAAAAHAAAAAAAIEEAAAABaAAAAE3PAEOw////tP///wEAAAAUAAAAEAAaAAgABwAMAAAAEAAUABAAAAAAAAABHAAAAAAAoEEcAAAAAgAAAAAACgAIAAUABgAHAAoAAAAADAD//P///wQABAAEAAAACAAIAAYABwAIAAAAAAAMAA==</value>
					</parameter>
					<parameter authoringApp="PremierePro">
					<parameterid>2</parameterid>
					<name></name>
					<IsTimeVarying>false</IsTimeVarying>
					<ParameterControlType>11</ParameterControlType>
					<LowerBound>false</LowerBound>
					<UpperBound>false</UpperBound>
					<value>-91445760000000000,false,0,0,0,0,0,0</value>
					</parameter>
					<parameter authoringApp="PremierePro">
					<parameterid>3</parameterid>
					<name></name>
					<IsTimeVarying>false</IsTimeVarying>
					<value>-91445760000000000,0.5:0.5,0,0,0,0,0,0,5,4,0,0,0,0</value>
					</parameter>
					<parameter authoringApp="PremierePro">
					<parameterid>4</parameterid>
					<name></name>
					<IsTimeVarying>false</IsTimeVarying>
					<ParameterControlType>2</ParameterControlType>
					<LowerBound>0</LowerBound>
					<UpperBound>4000</UpperBound>
					<value>-91445760000000000,100.,0,0,0,0,0,0</value>
					</parameter>
					<parameter authoringApp="PremierePro">
					<parameterid>8</parameterid>
					<name></name>
					<IsTimeVarying>false</IsTimeVarying>
					<ParameterControlType>2</ParameterControlType>
					<LowerBound>0</LowerBound>
					<UpperBound>100</UpperBound>
					<value>-91445760000000000,100.,0,0,0,0,0,0</value>
					</parameter>
					</effect>
					</filter>
					<logginginfo>
					<description></description>
					<scene></scene>
					<shottake></shottake>
					<lognote></lognote>
					<good></good>
					<originalvideofilename></originalvideofilename>
					<originalaudiofilename></originalaudiofilename>
					</logginginfo>
					<colorinfo>
					<lut></lut>
					<lut1></lut1>
					<asc_sop></asc_sop>
					<asc_sat></asc_sat>
					<lut2></lut2>
					</colorinfo>
					<labels>
					</labels>
					</clipitem>
					<clipitem frameBlend="FALSE" id="clipitem-406">
					<masterclipid>masterclip-326</masterclipid>
					<name></name>
					<enabled>TRUE</enabled>
					<duration>2582774</duration>
					<rate>
					
					                                    <timebase>60</timebase>
					                                    <ntsc>TRUE</ntsc>
					                                
					</rate>
					<start>2921</start>
					<end>2981</end>
					<in>2921</in>
					<out>2981</out>
					<pproTicksIn>914456774963789</pproTicksIn>
					<pproTicksOut>914677708529577</pproTicksOut>
					<alphatype>straight</alphatype>
					<pixelaspectratio>square</pixelaspectratio>
					<anamorphic>FALSE</anamorphic>
					<file id="file-325">
					<name></name>
					<mediaSource>GraphicAndType</mediaSource>
					<rate>
					<timebase>60</timebase>
					<ntsc>TRUE</ntsc>
					</rate>
					<timecode>
					<rate>
					<timebase>60</timebase>
					<ntsc>TRUE</ntsc>
					</rate>
					<string>00:00:00:00</string>
					<frame>0</frame>
					<displayformat>NDF</displayformat>
					</timecode>
					<media>
					<video>
					<samplecharacteristics>
					<rate>
					<timebase>60</timebase>
					<ntsc>TRUE</ntsc>
					</rate>
					<width>1080</width>
					<height>1920</height>
					<anamorphic>FALSE</anamorphic>
					<pixelaspectratio>square</pixelaspectratio>
					<fielddominance>none</fielddominance>
					</samplecharacteristics>
					</video>
					</media>
					</file>
					<filter>
					<effect>
					<name></name>
					<effectid>GraphicAndType</effectid>
					<effectcategory>graphic</effectcategory>
					<effecttype>filter</effecttype>
					<mediatype>video</mediatype>
					<pproBypass>false</pproBypass>
					<parameter authoringApp="PremierePro">
					<parameterid>1</parameterid>
					<name></name>
					<hash>025b1101-ead6-0ca2-1feb-caf3000001fc</hash>
					<value>5AEAAAAAAABEMyIRDAAAAAAABgAKAAQABgAAAGQAAAAAAF4ASAAQAAwARABAADwAOAAAAAAAAAAAADQAMwAsAAAAKAAkACAAAAAAAAAAAAAAAAAAHAAAAAAAGgAAAAAAAAAUAAAAAAAAAAAAAAAAAAAAAAAAAAgAAAAAABsABwBeAAAAAAAAAUAAAABQAAAAbAAAAAIAAAAAAAEAAQAAAAAAQEEAAMBAAABAQAAAyEIAAAABIAAAAAIAAAACAAAAAAA2QwCASkTw/v//9P7///j+//8S////AAAAAAEAAAAEAAAAEQAAAEhHUFNvZWlLYWt1cG9wdGFpAAAAAQAAAAwAAAAIAAwABAAIAAgAAAAIAAAAUAAAAA8AAADvvIEAAAAAAAAAAAAAAAAAAAA2ACQAAAAgABwAAAAAABsAFAAAAAAAAAAAAAAAAAAAAAAAAAAAABAAAAAAAAAADAAAAAgABAA2AAAAAgAAABwAAAAcAAAAHAAAAAAAIEEAAAABaAAAAE3PAEOw////tP///wEAAAAUAAAAEAAaAAgABwAMAAAAEAAUABAAAAAAAAABHAAAAAAAoEEcAAAAAgAAAAAACgAIAAUABgAHAAoAAAAADAD//P///wQABAAEAAAACAAIAAYABwAIAAAAAAAMAA==</value>
					</parameter>
					<parameter authoringApp="PremierePro">
					<parameterid>2</parameterid>
					<name></name>
					<IsTimeVarying>false</IsTimeVarying>
					<ParameterControlType>11</ParameterControlType>
					<LowerBound>false</LowerBound>
					<UpperBound>false</UpperBound>
					<value>-91445760000000000,false,0,0,0,0,0,0</value>
					</parameter>
					<parameter authoringApp="PremierePro">
					<parameterid>3</parameterid>
					<name></name>
					<IsTimeVarying>false</IsTimeVarying>
					<value>-91445760000000000,0.5:0.5,0,0,0,0,0,0,5,4,0,0,0,0</value>
					</parameter>
					<parameter authoringApp="PremierePro">
					<parameterid>4</parameterid>
					<name></name>
					<IsTimeVarying>false</IsTimeVarying>
					<ParameterControlType>2</ParameterControlType>
					<LowerBound>0</LowerBound>
					<UpperBound>4000</UpperBound>
					<value>-91445760000000000,100.,0,0,0,0,0,0</value>
					</parameter>
					<parameter authoringApp="PremierePro">
					<parameterid>8</parameterid>
					<name></name>
					<IsTimeVarying>false</IsTimeVarying>
					<ParameterControlType>2</ParameterControlType>
					<LowerBound>0</LowerBound>
					<UpperBound>100</UpperBound>
					<value>-91445760000000000,100.,0,0,0,0,0,0</value>
					</parameter>
					</effect>
					</filter>
					<logginginfo>
					<description></description>
					<scene></scene>
					<shottake></shottake>
					<lognote></lognote>
					<good></good>
					<originalvideofilename></originalvideofilename>
					<originalaudiofilename></originalaudiofilename>
					</logginginfo>
					<colorinfo>
					<lut></lut>
					<lut1></lut1>
					<asc_sop></asc_sop>
					<asc_sat></asc_sat>
					<lut2></lut2>
					</colorinfo>
					<labels>
					</labels>
					</clipitem>
					<clipitem frameBlend="FALSE" id="clipitem-410">
					<masterclipid>masterclip-330</masterclipid>
					<name></name>
					<enabled>TRUE</enabled>
					<duration>2582774</duration>
					<rate>
					
					                                    <timebase>60</timebase>
					                                    <ntsc>TRUE</ntsc>
					                                
					</rate>
					<start>2981</start>
					<end>3047</end>
					<in>2981</in>
					<out>3047</out>
					<pproTicksIn>914456774963789</pproTicksIn>
					<pproTicksOut>914677708529577</pproTicksOut>
					<alphatype>straight</alphatype>
					<pixelaspectratio>square</pixelaspectratio>
					<anamorphic>FALSE</anamorphic>
					<file id="file-329">
					<name></name>
					<mediaSource>GraphicAndType</mediaSource>
					<rate>
					<timebase>60</timebase>
					<ntsc>TRUE</ntsc>
					</rate>
					<timecode>
					<rate>
					<timebase>60</timebase>
					<ntsc>TRUE</ntsc>
					</rate>
					<string>00:00:00:00</string>
					<frame>0</frame>
					<displayformat>NDF</displayformat>
					</timecode>
					<media>
					<video>
					<samplecharacteristics>
					<rate>
					<timebase>60</timebase>
					<ntsc>TRUE</ntsc>
					</rate>
					<width>1080</width>
					<height>1920</height>
					<anamorphic>FALSE</anamorphic>
					<pixelaspectratio>square</pixelaspectratio>
					<fielddominance>none</fielddominance>
					</samplecharacteristics>
					</video>
					</media>
					</file>
					<filter>
					<effect>
					<name></name>
					<effectid>GraphicAndType</effectid>
					<effectcategory>graphic</effectcategory>
					<effecttype>filter</effecttype>
					<mediatype>video</mediatype>
					<pproBypass>false</pproBypass>
					<parameter authoringApp="PremierePro">
					<parameterid>1</parameterid>
					<name></name>
					<hash>025b1101-ead6-0ca2-1feb-caf3000001fc</hash>
					<value>5AEAAAAAAABEMyIRDAAAAAAABgAKAAQABgAAAGQAAAAAAF4ASAAQAAwARABAADwAOAAAAAAAAAAAADQAMwAsAAAAKAAkACAAAAAAAAAAAAAAAAAAHAAAAAAAGgAAAAAAAAAUAAAAAAAAAAAAAAAAAAAAAAAAAAgAAAAAABsABwBeAAAAAAAAAUAAAABQAAAAbAAAAAIAAAAAAAEAAQAAAAAAQEEAAMBAAABAQAAAyEIAAAABIAAAAAIAAAACAAAAAAA2QwCASkTw/v//9P7///j+//8S////AAAAAAEAAAAEAAAAEQAAAEhHUFNvZWlLYWt1cG9wdGFpAAAAAQAAAAwAAAAIAAwABAAIAAgAAAAIAAAAUAAAAA8AAADvvIEAAAAAAAAAAAAAAAAAAAA2ACQAAAAgABwAAAAAABsAFAAAAAAAAAAAAAAAAAAAAAAAAAAAABAAAAAAAAAADAAAAAgABAA2AAAAAgAAABwAAAAcAAAAHAAAAAAAIEEAAAABaAAAAE3PAEOw////tP///wEAAAAUAAAAEAAaAAgABwAMAAAAEAAUABAAAAAAAAABHAAAAAAAoEEcAAAAAgAAAAAACgAIAAUABgAHAAoAAAAADAD//P///wQABAAEAAAACAAIAAYABwAIAAAAAAAMAA==</value>
					</parameter>
					<parameter authoringApp="PremierePro">
					<parameterid>2</parameterid>
					<name></name>
					<IsTimeVarying>false</IsTimeVarying>
					<ParameterControlType>11</ParameterControlType>
					<LowerBound>false</LowerBound>
					<UpperBound>false</UpperBound>
					<value>-91445760000000000,false,0,0,0,0,0,0</value>
					</parameter>
					<parameter authoringApp="PremierePro">
					<parameterid>3</parameterid>
					<name></name>
					<IsTimeVarying>false</IsTimeVarying>
					<value>-91445760000000000,0.5:0.5,0,0,0,0,0,0,5,4,0,0,0,0</value>
					</parameter>
					<parameter authoringApp="PremierePro">
					<parameterid>4</parameterid>
					<name></name>
					<IsTimeVarying>false</IsTimeVarying>
					<ParameterControlType>2</ParameterControlType>
					<LowerBound>0</LowerBound>
					<UpperBound>4000</UpperBound>
					<value>-91445760000000000,100.,0,0,0,0,0,0</value>
					</parameter>
					<parameter authoringApp="PremierePro">
					<parameterid>8</parameterid>
					<name></name>
					<IsTimeVarying>false</IsTimeVarying>
					<ParameterControlType>2</ParameterControlType>
					<LowerBound>0</LowerBound>
					<UpperBound>100</UpperBound>
					<value>-91445760000000000,100.,0,0,0,0,0,0</value>
					</parameter>
					</effect>
					</filter>
					<logginginfo>
					<description></description>
					<scene></scene>
					<shottake></shottake>
					<lognote></lognote>
					<good></good>
					<originalvideofilename></originalvideofilename>
					<originalaudiofilename></originalaudiofilename>
					</logginginfo>
					<colorinfo>
					<lut></lut>
					<lut1></lut1>
					<asc_sop></asc_sop>
					<asc_sat></asc_sat>
					<lut2></lut2>
					</colorinfo>
					<labels>
					</labels>
					</clipitem>
					<clipitem frameBlend="FALSE" id="clipitem-419">
					<masterclipid>masterclip-339</masterclipid>
					<name></name>
					<enabled>TRUE</enabled>
					<duration>2582774</duration>
					<rate>
					
					                                    <timebase>60</timebase>
					                                    <ntsc>TRUE</ntsc>
					                                
					</rate>
					<start>3047</start>
					<end>3077</end>
					<in>3047</in>
					<out>3077</out>
					<pproTicksIn>914456774963789</pproTicksIn>
					<pproTicksOut>914677708529577</pproTicksOut>
					<alphatype>straight</alphatype>
					<pixelaspectratio>square</pixelaspectratio>
					<anamorphic>FALSE</anamorphic>
					<file id="file-338">
					<name></name>
					<mediaSource>GraphicAndType</mediaSource>
					<rate>
					<timebase>60</timebase>
					<ntsc>TRUE</ntsc>
					</rate>
					<timecode>
					<rate>
					<timebase>60</timebase>
					<ntsc>TRUE</ntsc>
					</rate>
					<string>00:00:00:00</string>
					<frame>0</frame>
					<displayformat>NDF</displayformat>
					</timecode>
					<media>
					<video>
					<samplecharacteristics>
					<rate>
					<timebase>60</timebase>
					<ntsc>TRUE</ntsc>
					</rate>
					<width>1080</width>
					<height>1920</height>
					<anamorphic>FALSE</anamorphic>
					<pixelaspectratio>square</pixelaspectratio>
					<fielddominance>none</fielddominance>
					</samplecharacteristics>
					</video>
					</media>
					</file>
					<filter>
					<effect>
					<name>w</name>
					<effectid>GraphicAndType</effectid>
					<effectcategory>graphic</effectcategory>
					<effecttype>filter</effecttype>
					<mediatype>video</mediatype>
					<pproBypass>false</pproBypass>
					<parameter authoringApp="PremierePro">
					<parameterid>1</parameterid>
					<name></name>
					<hash>025b1101-ead6-0ca2-1feb-caf3000001fc</hash>
					<value>5AEAAAAAAABEMyIRDAAAAAAABgAKAAQABgAAAGQAAAAAAF4ASAAQAAwARABAADwAOAAAAAAAAAAAADQAMwAsAAAAKAAkACAAAAAAAAAAAAAAAAAAHAAAAAAAGgAAAAAAAAAUAAAAAAAAAAAAAAAAAAAAAAAAAAgAAAAAABsABwBeAAAAAAAAAUAAAABQAAAAbAAAAAIAAAAAAAEAAQAAAAAAQEEAAMBAAABAQAAAyEIAAAABIAAAAAIAAAACAAAAAAA2QwCASkTw/v//9P7///j+//8S////AAAAAAEAAAAEAAAAEQAAAEhHUFNvZWlLYWt1cG9wdGFpAAAAAQAAAAwAAAAIAAwABAAIAAgAAAAIAAAAUAAAAA8AAAB3AAAAAAAAAAAAAAAAAAAAAAA2ACQAAAAgABwAAAAAABsAFAAAAAAAAAAAAAAAAAAAAAAAAAAAABAAAAAAAAAADAAAAAgABAA2AAAAAgAAABwAAAAcAAAAHAAAAAAAIEEAAAABaAAAAE3PAEOw////tP///wEAAAAUAAAAEAAaAAgABwAMAAAAEAAUABAAAAAAAAABHAAAAAAAoEEcAAAAAgAAAAAACgAIAAUABgAHAAoAAAAADAD//P///wQABAAEAAAACAAIAAYABwAIAAAAAAAMAA==</value>
					</parameter>
					<parameter authoringApp="PremierePro">
					<parameterid>2</parameterid>
					<name></name>
					<IsTimeVarying>false</IsTimeVarying>
					<ParameterControlType>11</ParameterControlType>
					<LowerBound>false</LowerBound>
					<UpperBound>false</UpperBound>
					<value>-91445760000000000,false,0,0,0,0,0,0</value>
					</parameter>
					<parameter authoringApp="PremierePro">
					<parameterid>3</parameterid>
					<name></name>
					<IsTimeVarying>false</IsTimeVarying>
					<value>-91445760000000000,0.5:0.5,0,0,0,0,0,0,5,4,0,0,0,0</value>
					</parameter>
					<parameter authoringApp="PremierePro">
					<parameterid>4</parameterid>
					<name></name>
					<IsTimeVarying>false</IsTimeVarying>
					<ParameterControlType>2</ParameterControlType>
					<LowerBound>0</LowerBound>
					<UpperBound>4000</UpperBound>
					<value>-91445760000000000,100.,0,0,0,0,0,0</value>
					</parameter>
					<parameter authoringApp="PremierePro">
					<parameterid>8</parameterid>
					<name></name>
					<IsTimeVarying>false</IsTimeVarying>
					<ParameterControlType>2</ParameterControlType>
					<LowerBound>0</LowerBound>
					<UpperBound>100</UpperBound>
					<value>-91445760000000000,100.,0,0,0,0,0,0</value>
					</parameter>
					</effect>
					</filter>
					<logginginfo>
					<description></description>
					<scene></scene>
					<shottake></shottake>
					<lognote></lognote>
					<good></good>
					<originalvideofilename></originalvideofilename>
					<originalaudiofilename></originalaudiofilename>
					</logginginfo>
					<colorinfo>
					<lut></lut>
					<lut1></lut1>
					<asc_sop></asc_sop>
					<asc_sat></asc_sat>
					<lut2></lut2>
					</colorinfo>
					<labels>
					</labels>
					</clipitem>
					<clipitem frameBlend="FALSE" id="clipitem-422">
					<masterclipid>masterclip-342</masterclipid>
					<name></name>
					<enabled>TRUE</enabled>
					<duration>2582774</duration>
					<rate>
					
					                                    <timebase>60</timebase>
					                                    <ntsc>TRUE</ntsc>
					                                
					</rate>
					<start>3113</start>
					<end>3173</end>
					<in>3113</in>
					<out>3173</out>
					<pproTicksIn>914456774963789</pproTicksIn>
					<pproTicksOut>914677708529577</pproTicksOut>
					<alphatype>straight</alphatype>
					<pixelaspectratio>square</pixelaspectratio>
					<anamorphic>FALSE</anamorphic>
					<file id="file-341">
					<name></name>
					<mediaSource>GraphicAndType</mediaSource>
					<rate>
					<timebase>60</timebase>
					<ntsc>TRUE</ntsc>
					</rate>
					<timecode>
					<rate>
					<timebase>60</timebase>
					<ntsc>TRUE</ntsc>
					</rate>
					<string>00:00:00:00</string>
					<frame>0</frame>
					<displayformat>NDF</displayformat>
					</timecode>
					<media>
					<video>
					<samplecharacteristics>
					<rate>
					<timebase>60</timebase>
					<ntsc>TRUE</ntsc>
					</rate>
					<width>1080</width>
					<height>1920</height>
					<anamorphic>FALSE</anamorphic>
					<pixelaspectratio>square</pixelaspectratio>
					<fielddominance>none</fielddominance>
					</samplecharacteristics>
					</video>
					</media>
					</file>
					<filter>
					<effect>
					<name></name>
					<effectid>GraphicAndType</effectid>
					<effectcategory>graphic</effectcategory>
					<effecttype>filter</effecttype>
					<mediatype>video</mediatype>
					<pproBypass>false</pproBypass>
					<parameter authoringApp="PremierePro">
					<parameterid>1</parameterid>
					<name></name>
					<hash>025b1101-ead6-0ca2-1feb-caf3000001fc</hash>
					<value>5AEAAAAAAABEMyIRDAAAAAAABgAKAAQABgAAAGQAAAAAAF4ASAAQAAwARABAADwAOAAAAAAAAAAAADQAMwAsAAAAKAAkACAAAAAAAAAAAAAAAAAAHAAAAAAAGgAAAAAAAAAUAAAAAAAAAAAAAAAAAAAAAAAAAAgAAAAAABsABwBeAAAAAAAAAUAAAABQAAAAbAAAAAIAAAAAAAEAAQAAAAAAQEEAAMBAAABAQAAAyEIAAAABIAAAAAIAAAACAAAAAAA2QwCASkTw/v//9P7///j+//8S////AAAAAAEAAAAEAAAAEQAAAEhHUFNvZWlLYWt1cG9wdGFpAAAAAQAAAAwAAAAIAAwABAAIAAgAAAAIAAAAUAAAAA8AAADvvIEAAAAAAAAAAAAAAAAAAAA2ACQAAAAgABwAAAAAABsAFAAAAAAAAAAAAAAAAAAAAAAAAAAAABAAAAAAAAAADAAAAAgABAA2AAAAAgAAABwAAAAcAAAAHAAAAAAAIEEAAAABaAAAAE3PAEOw////tP///wEAAAAUAAAAEAAaAAgABwAMAAAAEAAUABAAAAAAAAABHAAAAAAAoEEcAAAAAgAAAAAACgAIAAUABgAHAAoAAAAADAD//P///wQABAAEAAAACAAIAAYABwAIAAAAAAAMAA==</value>
					</parameter>
					<parameter authoringApp="PremierePro">
					<parameterid>2</parameterid>
					<name></name>
					<IsTimeVarying>false</IsTimeVarying>
					<ParameterControlType>11</ParameterControlType>
					<LowerBound>false</LowerBound>
					<UpperBound>false</UpperBound>
					<value>-91445760000000000,false,0,0,0,0,0,0</value>
					</parameter>
					<parameter authoringApp="PremierePro">
					<parameterid>3</parameterid>
					<name></name>
					<IsTimeVarying>false</IsTimeVarying>
					<value>-91445760000000000,0.5:0.5,0,0,0,0,0,0,5,4,0,0,0,0</value>
					</parameter>
					<parameter authoringApp="PremierePro">
					<parameterid>4</parameterid>
					<name></name>
					<IsTimeVarying>false</IsTimeVarying>
					<ParameterControlType>2</ParameterControlType>
					<LowerBound>0</LowerBound>
					<UpperBound>4000</UpperBound>
					<value>-91445760000000000,100.,0,0,0,0,0,0</value>
					</parameter>
					<parameter authoringApp="PremierePro">
					<parameterid>8</parameterid>
					<name></name>
					<IsTimeVarying>false</IsTimeVarying>
					<ParameterControlType>2</ParameterControlType>
					<LowerBound>0</LowerBound>
					<UpperBound>100</UpperBound>
					<value>-91445760000000000,100.,0,0,0,0,0,0</value>
					</parameter>
					</effect>
					</filter>
					<logginginfo>
					<description></description>
					<scene></scene>
					<shottake></shottake>
					<lognote></lognote>
					<good></good>
					<originalvideofilename></originalvideofilename>
					<originalaudiofilename></originalaudiofilename>
					</logginginfo>
					<colorinfo>
					<lut></lut>
					<lut1></lut1>
					<asc_sop></asc_sop>
					<asc_sat></asc_sat>
					<lut2></lut2>
					</colorinfo>
					<labels>
					</labels>
					</clipitem>
					<clipitem frameBlend="FALSE" id="clipitem-430">
					<masterclipid>masterclip-350</masterclipid>
					<name></name>
					<enabled>TRUE</enabled>
					<duration>2582774</duration>
					<rate>
					
					                                    <timebase>60</timebase>
					                                    <ntsc>TRUE</ntsc>
					                                
					</rate>
					<start>3179</start>
					<end>3239</end>
					<in>3179</in>
					<out>3239</out>
					<pproTicksIn>914456774963789</pproTicksIn>
					<pproTicksOut>914677708529577</pproTicksOut>
					<alphatype>straight</alphatype>
					<pixelaspectratio>square</pixelaspectratio>
					<anamorphic>FALSE</anamorphic>
					<file id="file-349">
					<name></name>
					<mediaSource>GraphicAndType</mediaSource>
					<rate>
					<timebase>60</timebase>
					<ntsc>TRUE</ntsc>
					</rate>
					<timecode>
					<rate>
					<timebase>60</timebase>
					<ntsc>TRUE</ntsc>
					</rate>
					<string>00:00:00:00</string>
					<frame>0</frame>
					<displayformat>NDF</displayformat>
					</timecode>
					<media>
					<video>
					<samplecharacteristics>
					<rate>
					<timebase>60</timebase>
					<ntsc>TRUE</ntsc>
					</rate>
					<width>1080</width>
					<height>1920</height>
					<anamorphic>FALSE</anamorphic>
					<pixelaspectratio>square</pixelaspectratio>
					<fielddominance>none</fielddominance>
					</samplecharacteristics>
					</video>
					</media>
					</file>
					<filter>
					<effect>
					<name></name>
					<effectid>GraphicAndType</effectid>
					<effectcategory>graphic</effectcategory>
					<effecttype>filter</effecttype>
					<mediatype>video</mediatype>
					<pproBypass>false</pproBypass>
					<parameter authoringApp="PremierePro">
					<parameterid>1</parameterid>
					<name></name>
					<hash>025b1101-ead6-0ca2-1feb-caf3000001fc</hash>
					<value>5AEAAAAAAABEMyIRDAAAAAAABgAKAAQABgAAAGQAAAAAAF4ASAAQAAwARABAADwAOAAAAAAAAAAAADQAMwAsAAAAKAAkACAAAAAAAAAAAAAAAAAAHAAAAAAAGgAAAAAAAAAUAAAAAAAAAAAAAAAAAAAAAAAAAAgAAAAAABsABwBeAAAAAAAAAUAAAABQAAAAbAAAAAIAAAAAAAEAAQAAAAAAQEEAAMBAAABAQAAAyEIAAAABIAAAAAIAAAACAAAAAAA2QwCASkTw/v//9P7///j+//8S////AAAAAAEAAAAEAAAAEQAAAEhHUFNvZWlLYWt1cG9wdGFpAAAAAQAAAAwAAAAIAAwABAAIAAgAAAAIAAAAUAAAAA8AAADvvIEAAAAAAAAAAAAAAAAAAAA2ACQAAAAgABwAAAAAABsAFAAAAAAAAAAAAAAAAAAAAAAAAAAAABAAAAAAAAAADAAAAAgABAA2AAAAAgAAABwAAAAcAAAAHAAAAAAAIEEAAAABaAAAAE3PAEOw////tP///wEAAAAUAAAAEAAaAAgABwAMAAAAEAAUABAAAAAAAAABHAAAAAAAoEEcAAAAAgAAAAAACgAIAAUABgAHAAoAAAAADAD//P///wQABAAEAAAACAAIAAYABwAIAAAAAAAMAA==</value>
					</parameter>
					<parameter authoringApp="PremierePro">
					<parameterid>2</parameterid>
					<name></name>
					<IsTimeVarying>false</IsTimeVarying>
					<ParameterControlType>11</ParameterControlType>
					<LowerBound>false</LowerBound>
					<UpperBound>false</UpperBound>
					<value>-91445760000000000,false,0,0,0,0,0,0</value>
					</parameter>
					<parameter authoringApp="PremierePro">
					<parameterid>3</parameterid>
					<name></name>
					<IsTimeVarying>false</IsTimeVarying>
					<value>-91445760000000000,0.5:0.5,0,0,0,0,0,0,5,4,0,0,0,0</value>
					</parameter>
					<parameter authoringApp="PremierePro">
					<parameterid>4</parameterid>
					<name></name>
					<IsTimeVarying>false</IsTimeVarying>
					<ParameterControlType>2</ParameterControlType>
					<LowerBound>0</LowerBound>
					<UpperBound>4000</UpperBound>
					<value>-91445760000000000,100.,0,0,0,0,0,0</value>
					</parameter>
					<parameter authoringApp="PremierePro">
					<parameterid>8</parameterid>
					<name></name>
					<IsTimeVarying>false</IsTimeVarying>
					<ParameterControlType>2</ParameterControlType>
					<LowerBound>0</LowerBound>
					<UpperBound>100</UpperBound>
					<value>-91445760000000000,100.,0,0,0,0,0,0</value>
					</parameter>
					</effect>
					</filter>
					<logginginfo>
					<description></description>
					<scene></scene>
					<shottake></shottake>
					<lognote></lognote>
					<good></good>
					<originalvideofilename></originalvideofilename>
					<originalaudiofilename></originalaudiofilename>
					</logginginfo>
					<colorinfo>
					<lut></lut>
					<lut1></lut1>
					<asc_sop></asc_sop>
					<asc_sat></asc_sat>
					<lut2></lut2>
					</colorinfo>
					<labels>
					</labels>
					</clipitem>
					<clipitem frameBlend="FALSE" id="clipitem-441">
					<masterclipid>masterclip-361</masterclipid>
					<name></name>
					<enabled>TRUE</enabled>
					<duration>2582774</duration>
					<rate>
					
					                                    <timebase>60</timebase>
					                                    <ntsc>TRUE</ntsc>
					                                
					</rate>
					<start>3251</start>
					<end>3311</end>
					<in>3251</in>
					<out>3311</out>
					<pproTicksIn>914456774963789</pproTicksIn>
					<pproTicksOut>914677708529577</pproTicksOut>
					<alphatype>straight</alphatype>
					<pixelaspectratio>square</pixelaspectratio>
					<anamorphic>FALSE</anamorphic>
					<file id="file-360">
					<name></name>
					<mediaSource>GraphicAndType</mediaSource>
					<rate>
					<timebase>60</timebase>
					<ntsc>TRUE</ntsc>
					</rate>
					<timecode>
					<rate>
					<timebase>60</timebase>
					<ntsc>TRUE</ntsc>
					</rate>
					<string>00:00:00:00</string>
					<frame>0</frame>
					<displayformat>NDF</displayformat>
					</timecode>
					<media>
					<video>
					<samplecharacteristics>
					<rate>
					<timebase>60</timebase>
					<ntsc>TRUE</ntsc>
					</rate>
					<width>1080</width>
					<height>1920</height>
					<anamorphic>FALSE</anamorphic>
					<pixelaspectratio>square</pixelaspectratio>
					<fielddominance>none</fielddominance>
					</samplecharacteristics>
					</video>
					</media>
					</file>
					<filter>
					<effect>
					<name></name>
					<effectid>GraphicAndType</effectid>
					<effectcategory>graphic</effectcategory>
					<effecttype>filter</effecttype>
					<mediatype>video</mediatype>
					<pproBypass>false</pproBypass>
					<parameter authoringApp="PremierePro">
					<parameterid>1</parameterid>
					<name></name>
					<hash>025b1101-ead6-0ca2-1feb-caf3000001fc</hash>
					<value>5AEAAAAAAABEMyIRDAAAAAAABgAKAAQABgAAAGQAAAAAAF4ASAAQAAwARABAADwAOAAAAAAAAAAAADQAMwAsAAAAKAAkACAAAAAAAAAAAAAAAAAAHAAAAAAAGgAAAAAAAAAUAAAAAAAAAAAAAAAAAAAAAAAAAAgAAAAAABsABwBeAAAAAAAAAUAAAABQAAAAbAAAAAIAAAAAAAEAAQAAAAAAQEEAAMBAAABAQAAAyEIAAAABIAAAAAIAAAACAAAAAAA2QwCASkTw/v//9P7///j+//8S////AAAAAAEAAAAEAAAAEQAAAEhHUFNvZWlLYWt1cG9wdGFpAAAAAQAAAAwAAAAIAAwABAAIAAgAAAAIAAAAUAAAAA8AAADvvIEAAAAAAAAAAAAAAAAAAAA2ACQAAAAgABwAAAAAABsAFAAAAAAAAAAAAAAAAAAAAAAAAAAAABAAAAAAAAAADAAAAAgABAA2AAAAAgAAABwAAAAcAAAAHAAAAAAAIEEAAAABaAAAAE3PAEOw////tP///wEAAAAUAAAAEAAaAAgABwAMAAAAEAAUABAAAAAAAAABHAAAAAAAoEEcAAAAAgAAAAAACgAIAAUABgAHAAoAAAAADAD//P///wQABAAEAAAACAAIAAYABwAIAAAAAAAMAA==</value>
					</parameter>
					<parameter authoringApp="PremierePro">
					<parameterid>2</parameterid>
					<name></name>
					<IsTimeVarying>false</IsTimeVarying>
					<ParameterControlType>11</ParameterControlType>
					<LowerBound>false</LowerBound>
					<UpperBound>false</UpperBound>
					<value>-91445760000000000,false,0,0,0,0,0,0</value>
					</parameter>
					<parameter authoringApp="PremierePro">
					<parameterid>3</parameterid>
					<name></name>
					<IsTimeVarying>false</IsTimeVarying>
					<value>-91445760000000000,0.5:0.5,0,0,0,0,0,0,5,4,0,0,0,0</value>
					</parameter>
					<parameter authoringApp="PremierePro">
					<parameterid>4</parameterid>
					<name></name>
					<IsTimeVarying>false</IsTimeVarying>
					<ParameterControlType>2</ParameterControlType>
					<LowerBound>0</LowerBound>
					<UpperBound>4000</UpperBound>
					<value>-91445760000000000,100.,0,0,0,0,0,0</value>
					</parameter>
					<parameter authoringApp="PremierePro">
					<parameterid>8</parameterid>
					<name></name>
					<IsTimeVarying>false</IsTimeVarying>
					<ParameterControlType>2</ParameterControlType>
					<LowerBound>0</LowerBound>
					<UpperBound>100</UpperBound>
					<value>-91445760000000000,100.,0,0,0,0,0,0</value>
					</parameter>
					</effect>
					</filter>
					<logginginfo>
					<description></description>
					<scene></scene>
					<shottake></shottake>
					<lognote></lognote>
					<good></good>
					<originalvideofilename></originalvideofilename>
					<originalaudiofilename></originalaudiofilename>
					</logginginfo>
					<colorinfo>
					<lut></lut>
					<lut1></lut1>
					<asc_sop></asc_sop>
					<asc_sat></asc_sat>
					<lut2></lut2>
					</colorinfo>
					<labels>
					</labels>
					</clipitem>
					<clipitem frameBlend="FALSE" id="clipitem-447">
					<masterclipid>masterclip-367</masterclipid>
					<name></name>
					<enabled>TRUE</enabled>
					<duration>2582774</duration>
					<rate>
					
					                                    <timebase>60</timebase>
					                                    <ntsc>TRUE</ntsc>
					                                
					</rate>
					<start>3317</start>
					<end>3377</end>
					<in>3317</in>
					<out>3377</out>
					<pproTicksIn>914456774963789</pproTicksIn>
					<pproTicksOut>914677708529577</pproTicksOut>
					<alphatype>straight</alphatype>
					<pixelaspectratio>square</pixelaspectratio>
					<anamorphic>FALSE</anamorphic>
					<file id="file-366">
					<name></name>
					<mediaSource>GraphicAndType</mediaSource>
					<rate>
					<timebase>60</timebase>
					<ntsc>TRUE</ntsc>
					</rate>
					<timecode>
					<rate>
					<timebase>60</timebase>
					<ntsc>TRUE</ntsc>
					</rate>
					<string>00:00:00:00</string>
					<frame>0</frame>
					<displayformat>NDF</displayformat>
					</timecode>
					<media>
					<video>
					<samplecharacteristics>
					<rate>
					<timebase>60</timebase>
					<ntsc>TRUE</ntsc>
					</rate>
					<width>1080</width>
					<height>1920</height>
					<anamorphic>FALSE</anamorphic>
					<pixelaspectratio>square</pixelaspectratio>
					<fielddominance>none</fielddominance>
					</samplecharacteristics>
					</video>
					</media>
					</file>
					<filter>
					<effect>
					<name></name>
					<effectid>GraphicAndType</effectid>
					<effectcategory>graphic</effectcategory>
					<effecttype>filter</effecttype>
					<mediatype>video</mediatype>
					<pproBypass>false</pproBypass>
					<parameter authoringApp="PremierePro">
					<parameterid>1</parameterid>
					<name></name>
					<hash>025b1101-ead6-0ca2-1feb-caf3000001fc</hash>
					<value>5AEAAAAAAABEMyIRDAAAAAAABgAKAAQABgAAAGQAAAAAAF4ASAAQAAwARABAADwAOAAAAAAAAAAAADQAMwAsAAAAKAAkACAAAAAAAAAAAAAAAAAAHAAAAAAAGgAAAAAAAAAUAAAAAAAAAAAAAAAAAAAAAAAAAAgAAAAAABsABwBeAAAAAAAAAUAAAABQAAAAbAAAAAIAAAAAAAEAAQAAAAAAQEEAAMBAAABAQAAAyEIAAAABIAAAAAIAAAACAAAAAAA2QwCASkTw/v//9P7///j+//8S////AAAAAAEAAAAEAAAAEQAAAEhHUFNvZWlLYWt1cG9wdGFpAAAAAQAAAAwAAAAIAAwABAAIAAgAAAAIAAAAUAAAAA8AAADvvIEAAAAAAAAAAAAAAAAAAAA2ACQAAAAgABwAAAAAABsAFAAAAAAAAAAAAAAAAAAAAAAAAAAAABAAAAAAAAAADAAAAAgABAA2AAAAAgAAABwAAAAcAAAAHAAAAAAAIEEAAAABaAAAAE3PAEOw////tP///wEAAAAUAAAAEAAaAAgABwAMAAAAEAAUABAAAAAAAAABHAAAAAAAoEEcAAAAAgAAAAAACgAIAAUABgAHAAoAAAAADAD//P///wQABAAEAAAACAAIAAYABwAIAAAAAAAMAA==</value>
					</parameter>
					<parameter authoringApp="PremierePro">
					<parameterid>2</parameterid>
					<name></name>
					<IsTimeVarying>false</IsTimeVarying>
					<ParameterControlType>11</ParameterControlType>
					<LowerBound>false</LowerBound>
					<UpperBound>false</UpperBound>
					<value>-91445760000000000,false,0,0,0,0,0,0</value>
					</parameter>
					<parameter authoringApp="PremierePro">
					<parameterid>3</parameterid>
					<name></name>
					<IsTimeVarying>false</IsTimeVarying>
					<value>-91445760000000000,0.5:0.5,0,0,0,0,0,0,5,4,0,0,0,0</value>
					</parameter>
					<parameter authoringApp="PremierePro">
					<parameterid>4</parameterid>
					<name></name>
					<IsTimeVarying>false</IsTimeVarying>
					<ParameterControlType>2</ParameterControlType>
					<LowerBound>0</LowerBound>
					<UpperBound>4000</UpperBound>
					<value>-91445760000000000,100.,0,0,0,0,0,0</value>
					</parameter>
					<parameter authoringApp="PremierePro">
					<parameterid>8</parameterid>
					<name></name>
					<IsTimeVarying>false</IsTimeVarying>
					<ParameterControlType>2</ParameterControlType>
					<LowerBound>0</LowerBound>
					<UpperBound>100</UpperBound>
					<value>-91445760000000000,100.,0,0,0,0,0,0</value>
					</parameter>
					</effect>
					</filter>
					<logginginfo>
					<description></description>
					<scene></scene>
					<shottake></shottake>
					<lognote></lognote>
					<good></good>
					<originalvideofilename></originalvideofilename>
					<originalaudiofilename></originalaudiofilename>
					</logginginfo>
					<colorinfo>
					<lut></lut>
					<lut1></lut1>
					<asc_sop></asc_sop>
					<asc_sat></asc_sat>
					<lut2></lut2>
					</colorinfo>
					<labels>
					</labels>
					</clipitem>
					<clipitem frameBlend="FALSE" id="clipitem-454">
					<masterclipid>masterclip-374</masterclipid>
					<name></name>
					<enabled>TRUE</enabled>
					<duration>2582774</duration>
					<rate>
					
					                                    <timebase>60</timebase>
					                                    <ntsc>TRUE</ntsc>
					                                
					</rate>
					<start>3383</start>
					<end>3443</end>
					<in>3383</in>
					<out>3443</out>
					<pproTicksIn>914456774963789</pproTicksIn>
					<pproTicksOut>914677708529577</pproTicksOut>
					<alphatype>straight</alphatype>
					<pixelaspectratio>square</pixelaspectratio>
					<anamorphic>FALSE</anamorphic>
					<file id="file-373">
					<name></name>
					<mediaSource>GraphicAndType</mediaSource>
					<rate>
					<timebase>60</timebase>
					<ntsc>TRUE</ntsc>
					</rate>
					<timecode>
					<rate>
					<timebase>60</timebase>
					<ntsc>TRUE</ntsc>
					</rate>
					<string>00:00:00:00</string>
					<frame>0</frame>
					<displayformat>NDF</displayformat>
					</timecode>
					<media>
					<video>
					<samplecharacteristics>
					<rate>
					<timebase>60</timebase>
					<ntsc>TRUE</ntsc>
					</rate>
					<width>1080</width>
					<height>1920</height>
					<anamorphic>FALSE</anamorphic>
					<pixelaspectratio>square</pixelaspectratio>
					<fielddominance>none</fielddominance>
					</samplecharacteristics>
					</video>
					</media>
					</file>
					<filter>
					<effect>
					<name></name>
					<effectid>GraphicAndType</effectid>
					<effectcategory>graphic</effectcategory>
					<effecttype>filter</effecttype>
					<mediatype>video</mediatype>
					<pproBypass>false</pproBypass>
					<parameter authoringApp="PremierePro">
					<parameterid>1</parameterid>
					<name></name>
					<hash>025b1101-ead6-0ca2-1feb-caf3000001fc</hash>
					<value>5AEAAAAAAABEMyIRDAAAAAAABgAKAAQABgAAAGQAAAAAAF4ASAAQAAwARABAADwAOAAAAAAAAAAAADQAMwAsAAAAKAAkACAAAAAAAAAAAAAAAAAAHAAAAAAAGgAAAAAAAAAUAAAAAAAAAAAAAAAAAAAAAAAAAAgAAAAAABsABwBeAAAAAAAAAUAAAABQAAAAbAAAAAIAAAAAAAEAAQAAAAAAQEEAAMBAAABAQAAAyEIAAAABIAAAAAIAAAACAAAAAAA2QwCASkTw/v//9P7///j+//8S////AAAAAAEAAAAEAAAAEQAAAEhHUFNvZWlLYWt1cG9wdGFpAAAAAQAAAAwAAAAIAAwABAAIAAgAAAAIAAAAUAAAAA8AAADvvIEAAAAAAAAAAAAAAAAAAAA2ACQAAAAgABwAAAAAABsAFAAAAAAAAAAAAAAAAAAAAAAAAAAAABAAAAAAAAAADAAAAAgABAA2AAAAAgAAABwAAAAcAAAAHAAAAAAAIEEAAAABaAAAAE3PAEOw////tP///wEAAAAUAAAAEAAaAAgABwAMAAAAEAAUABAAAAAAAAABHAAAAAAAoEEcAAAAAgAAAAAACgAIAAUABgAHAAoAAAAADAD//P///wQABAAEAAAACAAIAAYABwAIAAAAAAAMAA==</value>
					</parameter>
					<parameter authoringApp="PremierePro">
					<parameterid>2</parameterid>
					<name></name>
					<IsTimeVarying>false</IsTimeVarying>
					<ParameterControlType>11</ParameterControlType>
					<LowerBound>false</LowerBound>
					<UpperBound>false</UpperBound>
					<value>-91445760000000000,false,0,0,0,0,0,0</value>
					</parameter>
					<parameter authoringApp="PremierePro">
					<parameterid>3</parameterid>
					<name></name>
					<IsTimeVarying>false</IsTimeVarying>
					<value>-91445760000000000,0.5:0.5,0,0,0,0,0,0,5,4,0,0,0,0</value>
					</parameter>
					<parameter authoringApp="PremierePro">
					<parameterid>4</parameterid>
					<name></name>
					<IsTimeVarying>false</IsTimeVarying>
					<ParameterControlType>2</ParameterControlType>
					<LowerBound>0</LowerBound>
					<UpperBound>4000</UpperBound>
					<value>-91445760000000000,100.,0,0,0,0,0,0</value>
					</parameter>
					<parameter authoringApp="PremierePro">
					<parameterid>8</parameterid>
					<name></name>
					<IsTimeVarying>false</IsTimeVarying>
					<ParameterControlType>2</ParameterControlType>
					<LowerBound>0</LowerBound>
					<UpperBound>100</UpperBound>
					<value>-91445760000000000,100.,0,0,0,0,0,0</value>
					</parameter>
					</effect>
					</filter>
					<logginginfo>
					<description></description>
					<scene></scene>
					<shottake></shottake>
					<lognote></lognote>
					<good></good>
					<originalvideofilename></originalvideofilename>
					<originalaudiofilename></originalaudiofilename>
					</logginginfo>
					<colorinfo>
					<lut></lut>
					<lut1></lut1>
					<asc_sop></asc_sop>
					<asc_sat></asc_sat>
					<lut2></lut2>
					</colorinfo>
					<labels>
					</labels>
					</clipitem>
					<clipitem frameBlend="FALSE" id="clipitem-460">
					<masterclipid>masterclip-380</masterclipid>
					<name></name>
					<enabled>TRUE</enabled>
					<duration>2582774</duration>
					<rate>
					
					                                    <timebase>60</timebase>
					                                    <ntsc>TRUE</ntsc>
					                                
					</rate>
					<start>3449</start>
					<end>3509</end>
					<in>3449</in>
					<out>3509</out>
					<pproTicksIn>914456774963789</pproTicksIn>
					<pproTicksOut>914677708529577</pproTicksOut>
					<alphatype>straight</alphatype>
					<pixelaspectratio>square</pixelaspectratio>
					<anamorphic>FALSE</anamorphic>
					<file id="file-379">
					<name></name>
					<mediaSource>GraphicAndType</mediaSource>
					<rate>
					<timebase>60</timebase>
					<ntsc>TRUE</ntsc>
					</rate>
					<timecode>
					<rate>
					<timebase>60</timebase>
					<ntsc>TRUE</ntsc>
					</rate>
					<string>00:00:00:00</string>
					<frame>0</frame>
					<displayformat>NDF</displayformat>
					</timecode>
					<media>
					<video>
					<samplecharacteristics>
					<rate>
					<timebase>60</timebase>
					<ntsc>TRUE</ntsc>
					</rate>
					<width>1080</width>
					<height>1920</height>
					<anamorphic>FALSE</anamorphic>
					<pixelaspectratio>square</pixelaspectratio>
					<fielddominance>none</fielddominance>
					</samplecharacteristics>
					</video>
					</media>
					</file>
					<filter>
					<effect>
					<name></name>
					<effectid>GraphicAndType</effectid>
					<effectcategory>graphic</effectcategory>
					<effecttype>filter</effecttype>
					<mediatype>video</mediatype>
					<pproBypass>false</pproBypass>
					<parameter authoringApp="PremierePro">
					<parameterid>1</parameterid>
					<name></name>
					<hash>025b1101-ead6-0ca2-1feb-caf3000001fc</hash>
					<value>5AEAAAAAAABEMyIRDAAAAAAABgAKAAQABgAAAGQAAAAAAF4ASAAQAAwARABAADwAOAAAAAAAAAAAADQAMwAsAAAAKAAkACAAAAAAAAAAAAAAAAAAHAAAAAAAGgAAAAAAAAAUAAAAAAAAAAAAAAAAAAAAAAAAAAgAAAAAABsABwBeAAAAAAAAAUAAAABQAAAAbAAAAAIAAAAAAAEAAQAAAAAAQEEAAMBAAABAQAAAyEIAAAABIAAAAAIAAAACAAAAAAA2QwCASkTw/v//9P7///j+//8S////AAAAAAEAAAAEAAAAEQAAAEhHUFNvZWlLYWt1cG9wdGFpAAAAAQAAAAwAAAAIAAwABAAIAAgAAAAIAAAAUAAAAA8AAADvvIEAAAAAAAAAAAAAAAAAAAA2ACQAAAAgABwAAAAAABsAFAAAAAAAAAAAAAAAAAAAAAAAAAAAABAAAAAAAAAADAAAAAgABAA2AAAAAgAAABwAAAAcAAAAHAAAAAAAIEEAAAABaAAAAE3PAEOw////tP///wEAAAAUAAAAEAAaAAgABwAMAAAAEAAUABAAAAAAAAABHAAAAAAAoEEcAAAAAgAAAAAACgAIAAUABgAHAAoAAAAADAD//P///wQABAAEAAAACAAIAAYABwAIAAAAAAAMAA==</value>
					</parameter>
					<parameter authoringApp="PremierePro">
					<parameterid>2</parameterid>
					<name></name>
					<IsTimeVarying>false</IsTimeVarying>
					<ParameterControlType>11</ParameterControlType>
					<LowerBound>false</LowerBound>
					<UpperBound>false</UpperBound>
					<value>-91445760000000000,false,0,0,0,0,0,0</value>
					</parameter>
					<parameter authoringApp="PremierePro">
					<parameterid>3</parameterid>
					<name></name>
					<IsTimeVarying>false</IsTimeVarying>
					<value>-91445760000000000,0.5:0.5,0,0,0,0,0,0,5,4,0,0,0,0</value>
					</parameter>
					<parameter authoringApp="PremierePro">
					<parameterid>4</parameterid>
					<name></name>
					<IsTimeVarying>false</IsTimeVarying>
					<ParameterControlType>2</ParameterControlType>
					<LowerBound>0</LowerBound>
					<UpperBound>4000</UpperBound>
					<value>-91445760000000000,100.,0,0,0,0,0,0</value>
					</parameter>
					<parameter authoringApp="PremierePro">
					<parameterid>8</parameterid>
					<name></name>
					<IsTimeVarying>false</IsTimeVarying>
					<ParameterControlType>2</ParameterControlType>
					<LowerBound>0</LowerBound>
					<UpperBound>100</UpperBound>
					<value>-91445760000000000,100.,0,0,0,0,0,0</value>
					</parameter>
					</effect>
					</filter>
					<logginginfo>
					<description></description>
					<scene></scene>
					<shottake></shottake>
					<lognote></lognote>
					<good></good>
					<originalvideofilename></originalvideofilename>
					<originalaudiofilename></originalaudiofilename>
					</logginginfo>
					<colorinfo>
					<lut></lut>
					<lut1></lut1>
					<asc_sop></asc_sop>
					<asc_sat></asc_sat>
					<lut2></lut2>
					</colorinfo>
					<labels>
					</labels>
					</clipitem>
					<clipitem frameBlend="FALSE" id="clipitem-466">
					<masterclipid>masterclip-386</masterclipid>
					<name></name>
					<enabled>TRUE</enabled>
					<duration>2582774</duration>
					<rate>
					
					                                    <timebase>60</timebase>
					                                    <ntsc>TRUE</ntsc>
					                                
					</rate>
					<start>3509</start>
					<end>3568</end>
					<in>3509</in>
					<out>3568</out>
					<pproTicksIn>914456774963789</pproTicksIn>
					<pproTicksOut>914677708529577</pproTicksOut>
					<alphatype>straight</alphatype>
					<pixelaspectratio>square</pixelaspectratio>
					<anamorphic>FALSE</anamorphic>
					<file id="file-385">
					<name></name>
					<mediaSource>GraphicAndType</mediaSource>
					<rate>
					<timebase>60</timebase>
					<ntsc>TRUE</ntsc>
					</rate>
					<timecode>
					<rate>
					<timebase>60</timebase>
					<ntsc>TRUE</ntsc>
					</rate>
					<string>00:00:00:00</string>
					<frame>0</frame>
					<displayformat>NDF</displayformat>
					</timecode>
					<media>
					<video>
					<samplecharacteristics>
					<rate>
					<timebase>60</timebase>
					<ntsc>TRUE</ntsc>
					</rate>
					<width>1080</width>
					<height>1920</height>
					<anamorphic>FALSE</anamorphic>
					<pixelaspectratio>square</pixelaspectratio>
					<fielddominance>none</fielddominance>
					</samplecharacteristics>
					</video>
					</media>
					</file>
					<filter>
					<effect>
					<name></name>
					<effectid>GraphicAndType</effectid>
					<effectcategory>graphic</effectcategory>
					<effecttype>filter</effecttype>
					<mediatype>video</mediatype>
					<pproBypass>false</pproBypass>
					<parameter authoringApp="PremierePro">
					<parameterid>1</parameterid>
					<name></name>
					<hash>025b1101-ead6-0ca2-1feb-caf3000001fc</hash>
					<value>5AEAAAAAAABEMyIRDAAAAAAABgAKAAQABgAAAGQAAAAAAF4ASAAQAAwARABAADwAOAAAAAAAAAAAADQAMwAsAAAAKAAkACAAAAAAAAAAAAAAAAAAHAAAAAAAGgAAAAAAAAAUAAAAAAAAAAAAAAAAAAAAAAAAAAgAAAAAABsABwBeAAAAAAAAAUAAAABQAAAAbAAAAAIAAAAAAAEAAQAAAAAAQEEAAMBAAABAQAAAyEIAAAABIAAAAAIAAAACAAAAAAA2QwCASkTw/v//9P7///j+//8S////AAAAAAEAAAAEAAAAEQAAAEhHUFNvZWlLYWt1cG9wdGFpAAAAAQAAAAwAAAAIAAwABAAIAAgAAAAIAAAAUAAAAA8AAADvvIEAAAAAAAAAAAAAAAAAAAA2ACQAAAAgABwAAAAAABsAFAAAAAAAAAAAAAAAAAAAAAAAAAAAABAAAAAAAAAADAAAAAgABAA2AAAAAgAAABwAAAAcAAAAHAAAAAAAIEEAAAABaAAAAE3PAEOw////tP///wEAAAAUAAAAEAAaAAgABwAMAAAAEAAUABAAAAAAAAABHAAAAAAAoEEcAAAAAgAAAAAACgAIAAUABgAHAAoAAAAADAD//P///wQABAAEAAAACAAIAAYABwAIAAAAAAAMAA==</value>
					</parameter>
					<parameter authoringApp="PremierePro">
					<parameterid>2</parameterid>
					<name></name>
					<IsTimeVarying>false</IsTimeVarying>
					<ParameterControlType>11</ParameterControlType>
					<LowerBound>false</LowerBound>
					<UpperBound>false</UpperBound>
					<value>-91445760000000000,false,0,0,0,0,0,0</value>
					</parameter>
					<parameter authoringApp="PremierePro">
					<parameterid>3</parameterid>
					<name></name>
					<IsTimeVarying>false</IsTimeVarying>
					<value>-91445760000000000,0.5:0.5,0,0,0,0,0,0,5,4,0,0,0,0</value>
					</parameter>
					<parameter authoringApp="PremierePro">
					<parameterid>4</parameterid>
					<name></name>
					<IsTimeVarying>false</IsTimeVarying>
					<ParameterControlType>2</ParameterControlType>
					<LowerBound>0</LowerBound>
					<UpperBound>4000</UpperBound>
					<value>-91445760000000000,100.,0,0,0,0,0,0</value>
					</parameter>
					<parameter authoringApp="PremierePro">
					<parameterid>8</parameterid>
					<name></name>
					<IsTimeVarying>false</IsTimeVarying>
					<ParameterControlType>2</ParameterControlType>
					<LowerBound>0</LowerBound>
					<UpperBound>100</UpperBound>
					<value>-91445760000000000,100.,0,0,0,0,0,0</value>
					</parameter>
					</effect>
					</filter>
					<logginginfo>
					<description></description>
					<scene></scene>
					<shottake></shottake>
					<lognote></lognote>
					<good></good>
					<originalvideofilename></originalvideofilename>
					<originalaudiofilename></originalaudiofilename>
					</logginginfo>
					<colorinfo>
					<lut></lut>
					<lut1></lut1>
					<asc_sop></asc_sop>
					<asc_sat></asc_sat>
					<lut2></lut2>
					</colorinfo>
					<labels>
					</labels>
					</clipitem>
					<clipitem frameBlend="FALSE" id="clipitem-471">
					<masterclipid>masterclip-391</masterclipid>
					<name></name>
					<enabled>TRUE</enabled>
					<duration>2582774</duration>
					<rate>
					
					                                    <timebase>60</timebase>
					                                    <ntsc>TRUE</ntsc>
					                                
					</rate>
					<start>3580</start>
					<end>3640</end>
					<in>3580</in>
					<out>3640</out>
					<pproTicksIn>914456774963789</pproTicksIn>
					<pproTicksOut>914677708529577</pproTicksOut>
					<alphatype>straight</alphatype>
					<pixelaspectratio>square</pixelaspectratio>
					<anamorphic>FALSE</anamorphic>
					<file id="file-390">
					<name></name>
					<mediaSource>GraphicAndType</mediaSource>
					<rate>
					<timebase>60</timebase>
					<ntsc>TRUE</ntsc>
					</rate>
					<timecode>
					<rate>
					<timebase>60</timebase>
					<ntsc>TRUE</ntsc>
					</rate>
					<string>00:00:00:00</string>
					<frame>0</frame>
					<displayformat>NDF</displayformat>
					</timecode>
					<media>
					<video>
					<samplecharacteristics>
					<rate>
					<timebase>60</timebase>
					<ntsc>TRUE</ntsc>
					</rate>
					<width>1080</width>
					<height>1920</height>
					<anamorphic>FALSE</anamorphic>
					<pixelaspectratio>square</pixelaspectratio>
					<fielddominance>none</fielddominance>
					</samplecharacteristics>
					</video>
					</media>
					</file>
					<filter>
					<effect>
					<name></name>
					<effectid>GraphicAndType</effectid>
					<effectcategory>graphic</effectcategory>
					<effecttype>filter</effecttype>
					<mediatype>video</mediatype>
					<pproBypass>false</pproBypass>
					<parameter authoringApp="PremierePro">
					<parameterid>1</parameterid>
					<name></name>
					<hash>025b1101-ead6-0ca2-1feb-caf3000001fc</hash>
					<value>5AEAAAAAAABEMyIRDAAAAAAABgAKAAQABgAAAGQAAAAAAF4ASAAQAAwARABAADwAOAAAAAAAAAAAADQAMwAsAAAAKAAkACAAAAAAAAAAAAAAAAAAHAAAAAAAGgAAAAAAAAAUAAAAAAAAAAAAAAAAAAAAAAAAAAgAAAAAABsABwBeAAAAAAAAAUAAAABQAAAAbAAAAAIAAAAAAAEAAQAAAAAAQEEAAMBAAABAQAAAyEIAAAABIAAAAAIAAAACAAAAAAA2QwCASkTw/v//9P7///j+//8S////AAAAAAEAAAAEAAAAEQAAAEhHUFNvZWlLYWt1cG9wdGFpAAAAAQAAAAwAAAAIAAwABAAIAAgAAAAIAAAAUAAAAA8AAADvvIEAAAAAAAAAAAAAAAAAAAA2ACQAAAAgABwAAAAAABsAFAAAAAAAAAAAAAAAAAAAAAAAAAAAABAAAAAAAAAADAAAAAgABAA2AAAAAgAAABwAAAAcAAAAHAAAAAAAIEEAAAABaAAAAE3PAEOw////tP///wEAAAAUAAAAEAAaAAgABwAMAAAAEAAUABAAAAAAAAABHAAAAAAAoEEcAAAAAgAAAAAACgAIAAUABgAHAAoAAAAADAD//P///wQABAAEAAAACAAIAAYABwAIAAAAAAAMAA==</value>
					</parameter>
					<parameter authoringApp="PremierePro">
					<parameterid>2</parameterid>
					<name></name>
					<IsTimeVarying>false</IsTimeVarying>
					<ParameterControlType>11</ParameterControlType>
					<LowerBound>false</LowerBound>
					<UpperBound>false</UpperBound>
					<value>-91445760000000000,false,0,0,0,0,0,0</value>
					</parameter>
					<parameter authoringApp="PremierePro">
					<parameterid>3</parameterid>
					<name></name>
					<IsTimeVarying>false</IsTimeVarying>
					<value>-91445760000000000,0.5:0.5,0,0,0,0,0,0,5,4,0,0,0,0</value>
					</parameter>
					<parameter authoringApp="PremierePro">
					<parameterid>4</parameterid>
					<name></name>
					<IsTimeVarying>false</IsTimeVarying>
					<ParameterControlType>2</ParameterControlType>
					<LowerBound>0</LowerBound>
					<UpperBound>4000</UpperBound>
					<value>-91445760000000000,100.,0,0,0,0,0,0</value>
					</parameter>
					<parameter authoringApp="PremierePro">
					<parameterid>8</parameterid>
					<name></name>
					<IsTimeVarying>false</IsTimeVarying>
					<ParameterControlType>2</ParameterControlType>
					<LowerBound>0</LowerBound>
					<UpperBound>100</UpperBound>
					<value>-91445760000000000,100.,0,0,0,0,0,0</value>
					</parameter>
					</effect>
					</filter>
					<logginginfo>
					<description></description>
					<scene></scene>
					<shottake></shottake>
					<lognote></lognote>
					<good></good>
					<originalvideofilename></originalvideofilename>
					<originalaudiofilename></originalaudiofilename>
					</logginginfo>
					<colorinfo>
					<lut></lut>
					<lut1></lut1>
					<asc_sop></asc_sop>
					<asc_sat></asc_sat>
					<lut2></lut2>
					</colorinfo>
					<labels>
					</labels>
					</clipitem>
					<clipitem frameBlend="FALSE" id="clipitem-477">
					<masterclipid>masterclip-397</masterclipid>
					<name></name>
					<enabled>TRUE</enabled>
					<duration>2582774</duration>
					<rate>
					
					                                    <timebase>60</timebase>
					                                    <ntsc>TRUE</ntsc>
					                                
					</rate>
					<start>3640</start>
					<end>3706</end>
					<in>3640</in>
					<out>3706</out>
					<pproTicksIn>914456774963789</pproTicksIn>
					<pproTicksOut>914677708529577</pproTicksOut>
					<alphatype>straight</alphatype>
					<pixelaspectratio>square</pixelaspectratio>
					<anamorphic>FALSE</anamorphic>
					<file id="file-396">
					<name></name>
					<mediaSource>GraphicAndType</mediaSource>
					<rate>
					<timebase>60</timebase>
					<ntsc>TRUE</ntsc>
					</rate>
					<timecode>
					<rate>
					<timebase>60</timebase>
					<ntsc>TRUE</ntsc>
					</rate>
					<string>00:00:00:00</string>
					<frame>0</frame>
					<displayformat>NDF</displayformat>
					</timecode>
					<media>
					<video>
					<samplecharacteristics>
					<rate>
					<timebase>60</timebase>
					<ntsc>TRUE</ntsc>
					</rate>
					<width>1080</width>
					<height>1920</height>
					<anamorphic>FALSE</anamorphic>
					<pixelaspectratio>square</pixelaspectratio>
					<fielddominance>none</fielddominance>
					</samplecharacteristics>
					</video>
					</media>
					</file>
					<filter>
					<effect>
					<name></name>
					<effectid>GraphicAndType</effectid>
					<effectcategory>graphic</effectcategory>
					<effecttype>filter</effecttype>
					<mediatype>video</mediatype>
					<pproBypass>false</pproBypass>
					<parameter authoringApp="PremierePro">
					<parameterid>1</parameterid>
					<name></name>
					<hash>025b1101-ead6-0ca2-1feb-caf3000001fc</hash>
					<value>5AEAAAAAAABEMyIRDAAAAAAABgAKAAQABgAAAGQAAAAAAF4ASAAQAAwARABAADwAOAAAAAAAAAAAADQAMwAsAAAAKAAkACAAAAAAAAAAAAAAAAAAHAAAAAAAGgAAAAAAAAAUAAAAAAAAAAAAAAAAAAAAAAAAAAgAAAAAABsABwBeAAAAAAAAAUAAAABQAAAAbAAAAAIAAAAAAAEAAQAAAAAAQEEAAMBAAABAQAAAyEIAAAABIAAAAAIAAAACAAAAAAA2QwCASkTw/v//9P7///j+//8S////AAAAAAEAAAAEAAAAEQAAAEhHUFNvZWlLYWt1cG9wdGFpAAAAAQAAAAwAAAAIAAwABAAIAAgAAAAIAAAAUAAAAA8AAADvvIEAAAAAAAAAAAAAAAAAAAA2ACQAAAAgABwAAAAAABsAFAAAAAAAAAAAAAAAAAAAAAAAAAAAABAAAAAAAAAADAAAAAgABAA2AAAAAgAAABwAAAAcAAAAHAAAAAAAIEEAAAABaAAAAE3PAEOw////tP///wEAAAAUAAAAEAAaAAgABwAMAAAAEAAUABAAAAAAAAABHAAAAAAAoEEcAAAAAgAAAAAACgAIAAUABgAHAAoAAAAADAD//P///wQABAAEAAAACAAIAAYABwAIAAAAAAAMAA==</value>
					</parameter>
					<parameter authoringApp="PremierePro">
					<parameterid>2</parameterid>
					<name></name>
					<IsTimeVarying>false</IsTimeVarying>
					<ParameterControlType>11</ParameterControlType>
					<LowerBound>false</LowerBound>
					<UpperBound>false</UpperBound>
					<value>-91445760000000000,false,0,0,0,0,0,0</value>
					</parameter>
					<parameter authoringApp="PremierePro">
					<parameterid>3</parameterid>
					<name></name>
					<IsTimeVarying>false</IsTimeVarying>
					<value>-91445760000000000,0.5:0.5,0,0,0,0,0,0,5,4,0,0,0,0</value>
					</parameter>
					<parameter authoringApp="PremierePro">
					<parameterid>4</parameterid>
					<name></name>
					<IsTimeVarying>false</IsTimeVarying>
					<ParameterControlType>2</ParameterControlType>
					<LowerBound>0</LowerBound>
					<UpperBound>4000</UpperBound>
					<value>-91445760000000000,100.,0,0,0,0,0,0</value>
					</parameter>
					<parameter authoringApp="PremierePro">
					<parameterid>8</parameterid>
					<name></name>
					<IsTimeVarying>false</IsTimeVarying>
					<ParameterControlType>2</ParameterControlType>
					<LowerBound>0</LowerBound>
					<UpperBound>100</UpperBound>
					<value>-91445760000000000,100.,0,0,0,0,0,0</value>
					</parameter>
					</effect>
					</filter>
					<logginginfo>
					<description></description>
					<scene></scene>
					<shottake></shottake>
					<lognote></lognote>
					<good></good>
					<originalvideofilename></originalvideofilename>
					<originalaudiofilename></originalaudiofilename>
					</logginginfo>
					<colorinfo>
					<lut></lut>
					<lut1></lut1>
					<asc_sop></asc_sop>
					<asc_sat></asc_sat>
					<lut2></lut2>
					</colorinfo>
					<labels>
					</labels>
					</clipitem>
					<clipitem frameBlend="FALSE" id="clipitem-483">
					<masterclipid>masterclip-403</masterclipid>
					<name></name>
					<enabled>TRUE</enabled>
					<duration>2582774</duration>
					<rate>
					
					                                    <timebase>60</timebase>
					                                    <ntsc>TRUE</ntsc>
					                                
					</rate>
					<start>3712</start>
					<end>3772</end>
					<in>3712</in>
					<out>3772</out>
					<pproTicksIn>914456774963789</pproTicksIn>
					<pproTicksOut>914677708529577</pproTicksOut>
					<alphatype>straight</alphatype>
					<pixelaspectratio>square</pixelaspectratio>
					<anamorphic>FALSE</anamorphic>
					<file id="file-402">
					<name></name>
					<mediaSource>GraphicAndType</mediaSource>
					<rate>
					<timebase>60</timebase>
					<ntsc>TRUE</ntsc>
					</rate>
					<timecode>
					<rate>
					<timebase>60</timebase>
					<ntsc>TRUE</ntsc>
					</rate>
					<string>00:00:00:00</string>
					<frame>0</frame>
					<displayformat>NDF</displayformat>
					</timecode>
					<media>
					<video>
					<samplecharacteristics>
					<rate>
					<timebase>60</timebase>
					<ntsc>TRUE</ntsc>
					</rate>
					<width>1080</width>
					<height>1920</height>
					<anamorphic>FALSE</anamorphic>
					<pixelaspectratio>square</pixelaspectratio>
					<fielddominance>none</fielddominance>
					</samplecharacteristics>
					</video>
					</media>
					</file>
					<filter>
					<effect>
					<name></name>
					<effectid>GraphicAndType</effectid>
					<effectcategory>graphic</effectcategory>
					<effecttype>filter</effecttype>
					<mediatype>video</mediatype>
					<pproBypass>false</pproBypass>
					<parameter authoringApp="PremierePro">
					<parameterid>1</parameterid>
					<name></name>
					<hash>025b1101-ead6-0ca2-1feb-caf3000001fc</hash>
					<value>5AEAAAAAAABEMyIRDAAAAAAABgAKAAQABgAAAGQAAAAAAF4ASAAQAAwARABAADwAOAAAAAAAAAAAADQAMwAsAAAAKAAkACAAAAAAAAAAAAAAAAAAHAAAAAAAGgAAAAAAAAAUAAAAAAAAAAAAAAAAAAAAAAAAAAgAAAAAABsABwBeAAAAAAAAAUAAAABQAAAAbAAAAAIAAAAAAAEAAQAAAAAAQEEAAMBAAABAQAAAyEIAAAABIAAAAAIAAAACAAAAAAA2QwCASkTw/v//9P7///j+//8S////AAAAAAEAAAAEAAAAEQAAAEhHUFNvZWlLYWt1cG9wdGFpAAAAAQAAAAwAAAAIAAwABAAIAAgAAAAIAAAAUAAAAA8AAADvvIEAAAAAAAAAAAAAAAAAAAA2ACQAAAAgABwAAAAAABsAFAAAAAAAAAAAAAAAAAAAAAAAAAAAABAAAAAAAAAADAAAAAgABAA2AAAAAgAAABwAAAAcAAAAHAAAAAAAIEEAAAABaAAAAE3PAEOw////tP///wEAAAAUAAAAEAAaAAgABwAMAAAAEAAUABAAAAAAAAABHAAAAAAAoEEcAAAAAgAAAAAACgAIAAUABgAHAAoAAAAADAD//P///wQABAAEAAAACAAIAAYABwAIAAAAAAAMAA==</value>
					</parameter>
					<parameter authoringApp="PremierePro">
					<parameterid>2</parameterid>
					<name></name>
					<IsTimeVarying>false</IsTimeVarying>
					<ParameterControlType>11</ParameterControlType>
					<LowerBound>false</LowerBound>
					<UpperBound>false</UpperBound>
					<value>-91445760000000000,false,0,0,0,0,0,0</value>
					</parameter>
					<parameter authoringApp="PremierePro">
					<parameterid>3</parameterid>
					<name></name>
					<IsTimeVarying>false</IsTimeVarying>
					<value>-91445760000000000,0.5:0.5,0,0,0,0,0,0,5,4,0,0,0,0</value>
					</parameter>
					<parameter authoringApp="PremierePro">
					<parameterid>4</parameterid>
					<name></name>
					<IsTimeVarying>false</IsTimeVarying>
					<ParameterControlType>2</ParameterControlType>
					<LowerBound>0</LowerBound>
					<UpperBound>4000</UpperBound>
					<value>-91445760000000000,100.,0,0,0,0,0,0</value>
					</parameter>
					<parameter authoringApp="PremierePro">
					<parameterid>8</parameterid>
					<name></name>
					<IsTimeVarying>false</IsTimeVarying>
					<ParameterControlType>2</ParameterControlType>
					<LowerBound>0</LowerBound>
					<UpperBound>100</UpperBound>
					<value>-91445760000000000,100.,0,0,0,0,0,0</value>
					</parameter>
					</effect>
					</filter>
					<logginginfo>
					<description></description>
					<scene></scene>
					<shottake></shottake>
					<lognote></lognote>
					<good></good>
					<originalvideofilename></originalvideofilename>
					<originalaudiofilename></originalaudiofilename>
					</logginginfo>
					<colorinfo>
					<lut></lut>
					<lut1></lut1>
					<asc_sop></asc_sop>
					<asc_sat></asc_sat>
					<lut2></lut2>
					</colorinfo>
					<labels>
					</labels>
					</clipitem>
					<clipitem frameBlend="FALSE" id="clipitem-492">
					<masterclipid>masterclip-412</masterclipid>
					<name></name>
					<enabled>TRUE</enabled>
					<duration>2582774</duration>
					<rate>
					
					                                    <timebase>60</timebase>
					                                    <ntsc>TRUE</ntsc>
					                                
					</rate>
					<start>3772</start>
					<end>3832</end>
					<in>3772</in>
					<out>3832</out>
					<pproTicksIn>914456774963789</pproTicksIn>
					<pproTicksOut>914677708529577</pproTicksOut>
					<alphatype>straight</alphatype>
					<pixelaspectratio>square</pixelaspectratio>
					<anamorphic>FALSE</anamorphic>
					<file id="file-411">
					<name></name>
					<mediaSource>GraphicAndType</mediaSource>
					<rate>
					<timebase>60</timebase>
					<ntsc>TRUE</ntsc>
					</rate>
					<timecode>
					<rate>
					<timebase>60</timebase>
					<ntsc>TRUE</ntsc>
					</rate>
					<string>00:00:00:00</string>
					<frame>0</frame>
					<displayformat>NDF</displayformat>
					</timecode>
					<media>
					<video>
					<samplecharacteristics>
					<rate>
					<timebase>60</timebase>
					<ntsc>TRUE</ntsc>
					</rate>
					<width>1080</width>
					<height>1920</height>
					<anamorphic>FALSE</anamorphic>
					<pixelaspectratio>square</pixelaspectratio>
					<fielddominance>none</fielddominance>
					</samplecharacteristics>
					</video>
					</media>
					</file>
					<filter>
					<effect>
					<name></name>
					<effectid>GraphicAndType</effectid>
					<effectcategory>graphic</effectcategory>
					<effecttype>filter</effecttype>
					<mediatype>video</mediatype>
					<pproBypass>false</pproBypass>
					<parameter authoringApp="PremierePro">
					<parameterid>1</parameterid>
					<name></name>
					<hash>025b1101-ead6-0ca2-1feb-caf3000001fc</hash>
					<value>5AEAAAAAAABEMyIRDAAAAAAABgAKAAQABgAAAGQAAAAAAF4ASAAQAAwARABAADwAOAAAAAAAAAAAADQAMwAsAAAAKAAkACAAAAAAAAAAAAAAAAAAHAAAAAAAGgAAAAAAAAAUAAAAAAAAAAAAAAAAAAAAAAAAAAgAAAAAABsABwBeAAAAAAAAAUAAAABQAAAAbAAAAAIAAAAAAAEAAQAAAAAAQEEAAMBAAABAQAAAyEIAAAABIAAAAAIAAAACAAAAAAA2QwCASkTw/v//9P7///j+//8S////AAAAAAEAAAAEAAAAEQAAAEhHUFNvZWlLYWt1cG9wdGFpAAAAAQAAAAwAAAAIAAwABAAIAAgAAAAIAAAAUAAAAA8AAADvvIEAAAAAAAAAAAAAAAAAAAA2ACQAAAAgABwAAAAAABsAFAAAAAAAAAAAAAAAAAAAAAAAAAAAABAAAAAAAAAADAAAAAgABAA2AAAAAgAAABwAAAAcAAAAHAAAAAAAIEEAAAABaAAAAE3PAEOw////tP///wEAAAAUAAAAEAAaAAgABwAMAAAAEAAUABAAAAAAAAABHAAAAAAAoEEcAAAAAgAAAAAACgAIAAUABgAHAAoAAAAADAD//P///wQABAAEAAAACAAIAAYABwAIAAAAAAAMAA==</value>
					</parameter>
					<parameter authoringApp="PremierePro">
					<parameterid>2</parameterid>
					<name></name>
					<IsTimeVarying>false</IsTimeVarying>
					<ParameterControlType>11</ParameterControlType>
					<LowerBound>false</LowerBound>
					<UpperBound>false</UpperBound>
					<value>-91445760000000000,false,0,0,0,0,0,0</value>
					</parameter>
					<parameter authoringApp="PremierePro">
					<parameterid>3</parameterid>
					<name></name>
					<IsTimeVarying>false</IsTimeVarying>
					<value>-91445760000000000,0.5:0.5,0,0,0,0,0,0,5,4,0,0,0,0</value>
					</parameter>
					<parameter authoringApp="PremierePro">
					<parameterid>4</parameterid>
					<name></name>
					<IsTimeVarying>false</IsTimeVarying>
					<ParameterControlType>2</ParameterControlType>
					<LowerBound>0</LowerBound>
					<UpperBound>4000</UpperBound>
					<value>-91445760000000000,100.,0,0,0,0,0,0</value>
					</parameter>
					<parameter authoringApp="PremierePro">
					<parameterid>8</parameterid>
					<name></name>
					<IsTimeVarying>false</IsTimeVarying>
					<ParameterControlType>2</ParameterControlType>
					<LowerBound>0</LowerBound>
					<UpperBound>100</UpperBound>
					<value>-91445760000000000,100.,0,0,0,0,0,0</value>
					</parameter>
					</effect>
					</filter>
					<logginginfo>
					<description></description>
					<scene></scene>
					<shottake></shottake>
					<lognote></lognote>
					<good></good>
					<originalvideofilename></originalvideofilename>
					<originalaudiofilename></originalaudiofilename>
					</logginginfo>
					<colorinfo>
					<lut></lut>
					<lut1></lut1>
					<asc_sop></asc_sop>
					<asc_sat></asc_sat>
					<lut2></lut2>
					</colorinfo>
					<labels>
					</labels>
					</clipitem>
					<clipitem frameBlend="FALSE" id="clipitem-497">
					<masterclipid>masterclip-417</masterclipid>
					<name></name>
					<enabled>TRUE</enabled>
					<duration>2582774</duration>
					<rate>
					
					                                    <timebase>60</timebase>
					                                    <ntsc>TRUE</ntsc>
					                                
					</rate>
					<start>3838</start>
					<end>3898</end>
					<in>3838</in>
					<out>3898</out>
					<pproTicksIn>914456774963789</pproTicksIn>
					<pproTicksOut>914677708529577</pproTicksOut>
					<alphatype>straight</alphatype>
					<pixelaspectratio>square</pixelaspectratio>
					<anamorphic>FALSE</anamorphic>
					<file id="file-416">
					<name></name>
					<mediaSource>GraphicAndType</mediaSource>
					<rate>
					<timebase>60</timebase>
					<ntsc>TRUE</ntsc>
					</rate>
					<timecode>
					<rate>
					<timebase>60</timebase>
					<ntsc>TRUE</ntsc>
					</rate>
					<string>00:00:00:00</string>
					<frame>0</frame>
					<displayformat>NDF</displayformat>
					</timecode>
					<media>
					<video>
					<samplecharacteristics>
					<rate>
					<timebase>60</timebase>
					<ntsc>TRUE</ntsc>
					</rate>
					<width>1080</width>
					<height>1920</height>
					<anamorphic>FALSE</anamorphic>
					<pixelaspectratio>square</pixelaspectratio>
					<fielddominance>none</fielddominance>
					</samplecharacteristics>
					</video>
					</media>
					</file>
					<filter>
					<effect>
					<name></name>
					<effectid>GraphicAndType</effectid>
					<effectcategory>graphic</effectcategory>
					<effecttype>filter</effecttype>
					<mediatype>video</mediatype>
					<pproBypass>false</pproBypass>
					<parameter authoringApp="PremierePro">
					<parameterid>1</parameterid>
					<name></name>
					<hash>025b1101-ead6-0ca2-1feb-caf3000001fc</hash>
					<value>5AEAAAAAAABEMyIRDAAAAAAABgAKAAQABgAAAGQAAAAAAF4ASAAQAAwARABAADwAOAAAAAAAAAAAADQAMwAsAAAAKAAkACAAAAAAAAAAAAAAAAAAHAAAAAAAGgAAAAAAAAAUAAAAAAAAAAAAAAAAAAAAAAAAAAgAAAAAABsABwBeAAAAAAAAAUAAAABQAAAAbAAAAAIAAAAAAAEAAQAAAAAAQEEAAMBAAABAQAAAyEIAAAABIAAAAAIAAAACAAAAAAA2QwCASkTw/v//9P7///j+//8S////AAAAAAEAAAAEAAAAEQAAAEhHUFNvZWlLYWt1cG9wdGFpAAAAAQAAAAwAAAAIAAwABAAIAAgAAAAIAAAAUAAAAA8AAADvvIEAAAAAAAAAAAAAAAAAAAA2ACQAAAAgABwAAAAAABsAFAAAAAAAAAAAAAAAAAAAAAAAAAAAABAAAAAAAAAADAAAAAgABAA2AAAAAgAAABwAAAAcAAAAHAAAAAAAIEEAAAABaAAAAE3PAEOw////tP///wEAAAAUAAAAEAAaAAgABwAMAAAAEAAUABAAAAAAAAABHAAAAAAAoEEcAAAAAgAAAAAACgAIAAUABgAHAAoAAAAADAD//P///wQABAAEAAAACAAIAAYABwAIAAAAAAAMAA==</value>
					</parameter>
					<parameter authoringApp="PremierePro">
					<parameterid>2</parameterid>
					<name></name>
					<IsTimeVarying>false</IsTimeVarying>
					<ParameterControlType>11</ParameterControlType>
					<LowerBound>false</LowerBound>
					<UpperBound>false</UpperBound>
					<value>-91445760000000000,false,0,0,0,0,0,0</value>
					</parameter>
					<parameter authoringApp="PremierePro">
					<parameterid>3</parameterid>
					<name></name>
					<IsTimeVarying>false</IsTimeVarying>
					<value>-91445760000000000,0.5:0.5,0,0,0,0,0,0,5,4,0,0,0,0</value>
					</parameter>
					<parameter authoringApp="PremierePro">
					<parameterid>4</parameterid>
					<name></name>
					<IsTimeVarying>false</IsTimeVarying>
					<ParameterControlType>2</ParameterControlType>
					<LowerBound>0</LowerBound>
					<UpperBound>4000</UpperBound>
					<value>-91445760000000000,100.,0,0,0,0,0,0</value>
					</parameter>
					<parameter authoringApp="PremierePro">
					<parameterid>8</parameterid>
					<name></name>
					<IsTimeVarying>false</IsTimeVarying>
					<ParameterControlType>2</ParameterControlType>
					<LowerBound>0</LowerBound>
					<UpperBound>100</UpperBound>
					<value>-91445760000000000,100.,0,0,0,0,0,0</value>
					</parameter>
					</effect>
					</filter>
					<logginginfo>
					<description></description>
					<scene></scene>
					<shottake></shottake>
					<lognote></lognote>
					<good></good>
					<originalvideofilename></originalvideofilename>
					<originalaudiofilename></originalaudiofilename>
					</logginginfo>
					<colorinfo>
					<lut></lut>
					<lut1></lut1>
					<asc_sop></asc_sop>
					<asc_sat></asc_sat>
					<lut2></lut2>
					</colorinfo>
					<labels>
					</labels>
					</clipitem>
					<clipitem frameBlend="FALSE" id="clipitem-505">
					<masterclipid>masterclip-425</masterclipid>
					<name></name>
					<enabled>TRUE</enabled>
					<duration>2582774</duration>
					<rate>
					
					                                    <timebase>60</timebase>
					                                    <ntsc>TRUE</ntsc>
					                                
					</rate>
					<start>3970</start>
					<end>4030</end>
					<in>3970</in>
					<out>4030</out>
					<pproTicksIn>914456774963789</pproTicksIn>
					<pproTicksOut>914677708529577</pproTicksOut>
					<alphatype>straight</alphatype>
					<pixelaspectratio>square</pixelaspectratio>
					<anamorphic>FALSE</anamorphic>
					<file id="file-424">
					<name></name>
					<mediaSource>GraphicAndType</mediaSource>
					<rate>
					<timebase>60</timebase>
					<ntsc>TRUE</ntsc>
					</rate>
					<timecode>
					<rate>
					<timebase>60</timebase>
					<ntsc>TRUE</ntsc>
					</rate>
					<string>00:00:00:00</string>
					<frame>0</frame>
					<displayformat>NDF</displayformat>
					</timecode>
					<media>
					<video>
					<samplecharacteristics>
					<rate>
					<timebase>60</timebase>
					<ntsc>TRUE</ntsc>
					</rate>
					<width>1080</width>
					<height>1920</height>
					<anamorphic>FALSE</anamorphic>
					<pixelaspectratio>square</pixelaspectratio>
					<fielddominance>none</fielddominance>
					</samplecharacteristics>
					</video>
					</media>
					</file>
					<filter>
					<effect>
					<name></name>
					<effectid>GraphicAndType</effectid>
					<effectcategory>graphic</effectcategory>
					<effecttype>filter</effecttype>
					<mediatype>video</mediatype>
					<pproBypass>false</pproBypass>
					<parameter authoringApp="PremierePro">
					<parameterid>1</parameterid>
					<name></name>
					<hash>025b1101-ead6-0ca2-1feb-caf3000001fc</hash>
					<value>5AEAAAAAAABEMyIRDAAAAAAABgAKAAQABgAAAGQAAAAAAF4ASAAQAAwARABAADwAOAAAAAAAAAAAADQAMwAsAAAAKAAkACAAAAAAAAAAAAAAAAAAHAAAAAAAGgAAAAAAAAAUAAAAAAAAAAAAAAAAAAAAAAAAAAgAAAAAABsABwBeAAAAAAAAAUAAAABQAAAAbAAAAAIAAAAAAAEAAQAAAAAAQEEAAMBAAABAQAAAyEIAAAABIAAAAAIAAAACAAAAAAA2QwCASkTw/v//9P7///j+//8S////AAAAAAEAAAAEAAAAEQAAAEhHUFNvZWlLYWt1cG9wdGFpAAAAAQAAAAwAAAAIAAwABAAIAAgAAAAIAAAAUAAAAA8AAADvvIEAAAAAAAAAAAAAAAAAAAA2ACQAAAAgABwAAAAAABsAFAAAAAAAAAAAAAAAAAAAAAAAAAAAABAAAAAAAAAADAAAAAgABAA2AAAAAgAAABwAAAAcAAAAHAAAAAAAIEEAAAABaAAAAE3PAEOw////tP///wEAAAAUAAAAEAAaAAgABwAMAAAAEAAUABAAAAAAAAABHAAAAAAAoEEcAAAAAgAAAAAACgAIAAUABgAHAAoAAAAADAD//P///wQABAAEAAAACAAIAAYABwAIAAAAAAAMAA==</value>
					</parameter>
					<parameter authoringApp="PremierePro">
					<parameterid>2</parameterid>
					<name></name>
					<IsTimeVarying>false</IsTimeVarying>
					<ParameterControlType>11</ParameterControlType>
					<LowerBound>false</LowerBound>
					<UpperBound>false</UpperBound>
					<value>-91445760000000000,false,0,0,0,0,0,0</value>
					</parameter>
					<parameter authoringApp="PremierePro">
					<parameterid>3</parameterid>
					<name></name>
					<IsTimeVarying>false</IsTimeVarying>
					<value>-91445760000000000,0.5:0.5,0,0,0,0,0,0,5,4,0,0,0,0</value>
					</parameter>
					<parameter authoringApp="PremierePro">
					<parameterid>4</parameterid>
					<name></name>
					<IsTimeVarying>false</IsTimeVarying>
					<ParameterControlType>2</ParameterControlType>
					<LowerBound>0</LowerBound>
					<UpperBound>4000</UpperBound>
					<value>-91445760000000000,100.,0,0,0,0,0,0</value>
					</parameter>
					<parameter authoringApp="PremierePro">
					<parameterid>8</parameterid>
					<name></name>
					<IsTimeVarying>false</IsTimeVarying>
					<ParameterControlType>2</ParameterControlType>
					<LowerBound>0</LowerBound>
					<UpperBound>100</UpperBound>
					<value>-91445760000000000,100.,0,0,0,0,0,0</value>
					</parameter>
					</effect>
					</filter>
					<logginginfo>
					<description></description>
					<scene></scene>
					<shottake></shottake>
					<lognote></lognote>
					<good></good>
					<originalvideofilename></originalvideofilename>
					<originalaudiofilename></originalaudiofilename>
					</logginginfo>
					<colorinfo>
					<lut></lut>
					<lut1></lut1>
					<asc_sop></asc_sop>
					<asc_sat></asc_sat>
					<lut2></lut2>
					</colorinfo>
					<labels>
					</labels>
					</clipitem>
					<clipitem frameBlend="FALSE" id="clipitem-509">
					<masterclipid>masterclip-429</masterclipid>
					<name></name>
					<enabled>TRUE</enabled>
					<duration>2582774</duration>
					<rate>
					
					                                    <timebase>60</timebase>
					                                    <ntsc>TRUE</ntsc>
					                                
					</rate>
					<start>4048</start>
					<end>4108</end>
					<in>4048</in>
					<out>4108</out>
					<pproTicksIn>914456774963789</pproTicksIn>
					<pproTicksOut>914677708529577</pproTicksOut>
					<alphatype>straight</alphatype>
					<pixelaspectratio>square</pixelaspectratio>
					<anamorphic>FALSE</anamorphic>
					<file id="file-428">
					<name></name>
					<mediaSource>GraphicAndType</mediaSource>
					<rate>
					<timebase>60</timebase>
					<ntsc>TRUE</ntsc>
					</rate>
					<timecode>
					<rate>
					<timebase>60</timebase>
					<ntsc>TRUE</ntsc>
					</rate>
					<string>00:00:00:00</string>
					<frame>0</frame>
					<displayformat>NDF</displayformat>
					</timecode>
					<media>
					<video>
					<samplecharacteristics>
					<rate>
					<timebase>60</timebase>
					<ntsc>TRUE</ntsc>
					</rate>
					<width>1080</width>
					<height>1920</height>
					<anamorphic>FALSE</anamorphic>
					<pixelaspectratio>square</pixelaspectratio>
					<fielddominance>none</fielddominance>
					</samplecharacteristics>
					</video>
					</media>
					</file>
					<filter>
					<effect>
					<name></name>
					<effectid>GraphicAndType</effectid>
					<effectcategory>graphic</effectcategory>
					<effecttype>filter</effecttype>
					<mediatype>video</mediatype>
					<pproBypass>false</pproBypass>
					<parameter authoringApp="PremierePro">
					<parameterid>1</parameterid>
					<name></name>
					<hash>025b1101-ead6-0ca2-1feb-caf3000001fc</hash>
					<value>5AEAAAAAAABEMyIRDAAAAAAABgAKAAQABgAAAGQAAAAAAF4ASAAQAAwARABAADwAOAAAAAAAAAAAADQAMwAsAAAAKAAkACAAAAAAAAAAAAAAAAAAHAAAAAAAGgAAAAAAAAAUAAAAAAAAAAAAAAAAAAAAAAAAAAgAAAAAABsABwBeAAAAAAAAAUAAAABQAAAAbAAAAAIAAAAAAAEAAQAAAAAAQEEAAMBAAABAQAAAyEIAAAABIAAAAAIAAAACAAAAAAA2QwCASkTw/v//9P7///j+//8S////AAAAAAEAAAAEAAAAEQAAAEhHUFNvZWlLYWt1cG9wdGFpAAAAAQAAAAwAAAAIAAwABAAIAAgAAAAIAAAAUAAAAA8AAADvvIEAAAAAAAAAAAAAAAAAAAA2ACQAAAAgABwAAAAAABsAFAAAAAAAAAAAAAAAAAAAAAAAAAAAABAAAAAAAAAADAAAAAgABAA2AAAAAgAAABwAAAAcAAAAHAAAAAAAIEEAAAABaAAAAE3PAEOw////tP///wEAAAAUAAAAEAAaAAgABwAMAAAAEAAUABAAAAAAAAABHAAAAAAAoEEcAAAAAgAAAAAACgAIAAUABgAHAAoAAAAADAD//P///wQABAAEAAAACAAIAAYABwAIAAAAAAAMAA==</value>
					</parameter>
					<parameter authoringApp="PremierePro">
					<parameterid>2</parameterid>
					<name></name>
					<IsTimeVarying>false</IsTimeVarying>
					<ParameterControlType>11</ParameterControlType>
					<LowerBound>false</LowerBound>
					<UpperBound>false</UpperBound>
					<value>-91445760000000000,false,0,0,0,0,0,0</value>
					</parameter>
					<parameter authoringApp="PremierePro">
					<parameterid>3</parameterid>
					<name></name>
					<IsTimeVarying>false</IsTimeVarying>
					<value>-91445760000000000,0.5:0.5,0,0,0,0,0,0,5,4,0,0,0,0</value>
					</parameter>
					<parameter authoringApp="PremierePro">
					<parameterid>4</parameterid>
					<name></name>
					<IsTimeVarying>false</IsTimeVarying>
					<ParameterControlType>2</ParameterControlType>
					<LowerBound>0</LowerBound>
					<UpperBound>4000</UpperBound>
					<value>-91445760000000000,100.,0,0,0,0,0,0</value>
					</parameter>
					<parameter authoringApp="PremierePro">
					<parameterid>8</parameterid>
					<name></name>
					<IsTimeVarying>false</IsTimeVarying>
					<ParameterControlType>2</ParameterControlType>
					<LowerBound>0</LowerBound>
					<UpperBound>100</UpperBound>
					<value>-91445760000000000,100.,0,0,0,0,0,0</value>
					</parameter>
					</effect>
					</filter>
					<logginginfo>
					<description></description>
					<scene></scene>
					<shottake></shottake>
					<lognote></lognote>
					<good></good>
					<originalvideofilename></originalvideofilename>
					<originalaudiofilename></originalaudiofilename>
					</logginginfo>
					<colorinfo>
					<lut></lut>
					<lut1></lut1>
					<asc_sop></asc_sop>
					<asc_sat></asc_sat>
					<lut2></lut2>
					</colorinfo>
					<labels>
					</labels>
					</clipitem>
					<clipitem frameBlend="FALSE" id="clipitem-514">
					<masterclipid>masterclip-434</masterclipid>
					<name></name>
					<enabled>TRUE</enabled>
					<duration>2582774</duration>
					<rate>
					
					                                    <timebase>60</timebase>
					                                    <ntsc>TRUE</ntsc>
					                                
					</rate>
					<start>4114</start>
					<end>4174</end>
					<in>4114</in>
					<out>4174</out>
					<pproTicksIn>914456774963789</pproTicksIn>
					<pproTicksOut>914677708529577</pproTicksOut>
					<alphatype>straight</alphatype>
					<pixelaspectratio>square</pixelaspectratio>
					<anamorphic>FALSE</anamorphic>
					<file id="file-433">
					<name></name>
					<mediaSource>GraphicAndType</mediaSource>
					<rate>
					<timebase>60</timebase>
					<ntsc>TRUE</ntsc>
					</rate>
					<timecode>
					<rate>
					<timebase>60</timebase>
					<ntsc>TRUE</ntsc>
					</rate>
					<string>00:00:00:00</string>
					<frame>0</frame>
					<displayformat>NDF</displayformat>
					</timecode>
					<media>
					<video>
					<samplecharacteristics>
					<rate>
					<timebase>60</timebase>
					<ntsc>TRUE</ntsc>
					</rate>
					<width>1080</width>
					<height>1920</height>
					<anamorphic>FALSE</anamorphic>
					<pixelaspectratio>square</pixelaspectratio>
					<fielddominance>none</fielddominance>
					</samplecharacteristics>
					</video>
					</media>
					</file>
					<filter>
					<effect>
					<name></name>
					<effectid>GraphicAndType</effectid>
					<effectcategory>graphic</effectcategory>
					<effecttype>filter</effecttype>
					<mediatype>video</mediatype>
					<pproBypass>false</pproBypass>
					<parameter authoringApp="PremierePro">
					<parameterid>1</parameterid>
					<name></name>
					<hash>025b1101-ead6-0ca2-1feb-caf3000001fc</hash>
					<value>5AEAAAAAAABEMyIRDAAAAAAABgAKAAQABgAAAGQAAAAAAF4ASAAQAAwARABAADwAOAAAAAAAAAAAADQAMwAsAAAAKAAkACAAAAAAAAAAAAAAAAAAHAAAAAAAGgAAAAAAAAAUAAAAAAAAAAAAAAAAAAAAAAAAAAgAAAAAABsABwBeAAAAAAAAAUAAAABQAAAAbAAAAAIAAAAAAAEAAQAAAAAAQEEAAMBAAABAQAAAyEIAAAABIAAAAAIAAAACAAAAAAA2QwCASkTw/v//9P7///j+//8S////AAAAAAEAAAAEAAAAEQAAAEhHUFNvZWlLYWt1cG9wdGFpAAAAAQAAAAwAAAAIAAwABAAIAAgAAAAIAAAAUAAAAA8AAADvvIEAAAAAAAAAAAAAAAAAAAA2ACQAAAAgABwAAAAAABsAFAAAAAAAAAAAAAAAAAAAAAAAAAAAABAAAAAAAAAADAAAAAgABAA2AAAAAgAAABwAAAAcAAAAHAAAAAAAIEEAAAABaAAAAE3PAEOw////tP///wEAAAAUAAAAEAAaAAgABwAMAAAAEAAUABAAAAAAAAABHAAAAAAAoEEcAAAAAgAAAAAACgAIAAUABgAHAAoAAAAADAD//P///wQABAAEAAAACAAIAAYABwAIAAAAAAAMAA==</value>
					</parameter>
					<parameter authoringApp="PremierePro">
					<parameterid>2</parameterid>
					<name></name>
					<IsTimeVarying>false</IsTimeVarying>
					<ParameterControlType>11</ParameterControlType>
					<LowerBound>false</LowerBound>
					<UpperBound>false</UpperBound>
					<value>-91445760000000000,false,0,0,0,0,0,0</value>
					</parameter>
					<parameter authoringApp="PremierePro">
					<parameterid>3</parameterid>
					<name></name>
					<IsTimeVarying>false</IsTimeVarying>
					<value>-91445760000000000,0.5:0.5,0,0,0,0,0,0,5,4,0,0,0,0</value>
					</parameter>
					<parameter authoringApp="PremierePro">
					<parameterid>4</parameterid>
					<name></name>
					<IsTimeVarying>false</IsTimeVarying>
					<ParameterControlType>2</ParameterControlType>
					<LowerBound>0</LowerBound>
					<UpperBound>4000</UpperBound>
					<value>-91445760000000000,100.,0,0,0,0,0,0</value>
					</parameter>
					<parameter authoringApp="PremierePro">
					<parameterid>8</parameterid>
					<name></name>
					<IsTimeVarying>false</IsTimeVarying>
					<ParameterControlType>2</ParameterControlType>
					<LowerBound>0</LowerBound>
					<UpperBound>100</UpperBound>
					<value>-91445760000000000,100.,0,0,0,0,0,0</value>
					</parameter>
					</effect>
					</filter>
					<logginginfo>
					<description></description>
					<scene></scene>
					<shottake></shottake>
					<lognote></lognote>
					<good></good>
					<originalvideofilename></originalvideofilename>
					<originalaudiofilename></originalaudiofilename>
					</logginginfo>
					<colorinfo>
					<lut></lut>
					<lut1></lut1>
					<asc_sop></asc_sop>
					<asc_sat></asc_sat>
					<lut2></lut2>
					</colorinfo>
					<labels>
					</labels>
					</clipitem>
					<clipitem frameBlend="FALSE" id="clipitem-517">
					<masterclipid>masterclip-437</masterclipid>
					<name></name>
					<enabled>TRUE</enabled>
					<duration>2582774</duration>
					<rate>
					
					                                    <timebase>60</timebase>
					                                    <ntsc>TRUE</ntsc>
					                                
					</rate>
					<start>4180</start>
					<end>4240</end>
					<in>4180</in>
					<out>4240</out>
					<pproTicksIn>914456774963789</pproTicksIn>
					<pproTicksOut>914677708529577</pproTicksOut>
					<alphatype>straight</alphatype>
					<pixelaspectratio>square</pixelaspectratio>
					<anamorphic>FALSE</anamorphic>
					<file id="file-436">
					<name></name>
					<mediaSource>GraphicAndType</mediaSource>
					<rate>
					<timebase>60</timebase>
					<ntsc>TRUE</ntsc>
					</rate>
					<timecode>
					<rate>
					<timebase>60</timebase>
					<ntsc>TRUE</ntsc>
					</rate>
					<string>00:00:00:00</string>
					<frame>0</frame>
					<displayformat>NDF</displayformat>
					</timecode>
					<media>
					<video>
					<samplecharacteristics>
					<rate>
					<timebase>60</timebase>
					<ntsc>TRUE</ntsc>
					</rate>
					<width>1080</width>
					<height>1920</height>
					<anamorphic>FALSE</anamorphic>
					<pixelaspectratio>square</pixelaspectratio>
					<fielddominance>none</fielddominance>
					</samplecharacteristics>
					</video>
					</media>
					</file>
					<filter>
					<effect>
					<name></name>
					<effectid>GraphicAndType</effectid>
					<effectcategory>graphic</effectcategory>
					<effecttype>filter</effecttype>
					<mediatype>video</mediatype>
					<pproBypass>false</pproBypass>
					<parameter authoringApp="PremierePro">
					<parameterid>1</parameterid>
					<name></name>
					<hash>025b1101-ead6-0ca2-1feb-caf3000001fc</hash>
					<value>5AEAAAAAAABEMyIRDAAAAAAABgAKAAQABgAAAGQAAAAAAF4ASAAQAAwARABAADwAOAAAAAAAAAAAADQAMwAsAAAAKAAkACAAAAAAAAAAAAAAAAAAHAAAAAAAGgAAAAAAAAAUAAAAAAAAAAAAAAAAAAAAAAAAAAgAAAAAABsABwBeAAAAAAAAAUAAAABQAAAAbAAAAAIAAAAAAAEAAQAAAAAAQEEAAMBAAABAQAAAyEIAAAABIAAAAAIAAAACAAAAAAA2QwCASkTw/v//9P7///j+//8S////AAAAAAEAAAAEAAAAEQAAAEhHUFNvZWlLYWt1cG9wdGFpAAAAAQAAAAwAAAAIAAwABAAIAAgAAAAIAAAAUAAAAA8AAADvvIEAAAAAAAAAAAAAAAAAAAA2ACQAAAAgABwAAAAAABsAFAAAAAAAAAAAAAAAAAAAAAAAAAAAABAAAAAAAAAADAAAAAgABAA2AAAAAgAAABwAAAAcAAAAHAAAAAAAIEEAAAABaAAAAE3PAEOw////tP///wEAAAAUAAAAEAAaAAgABwAMAAAAEAAUABAAAAAAAAABHAAAAAAAoEEcAAAAAgAAAAAACgAIAAUABgAHAAoAAAAADAD//P///wQABAAEAAAACAAIAAYABwAIAAAAAAAMAA==</value>
					</parameter>
					<parameter authoringApp="PremierePro">
					<parameterid>2</parameterid>
					<name></name>
					<IsTimeVarying>false</IsTimeVarying>
					<ParameterControlType>11</ParameterControlType>
					<LowerBound>false</LowerBound>
					<UpperBound>false</UpperBound>
					<value>-91445760000000000,false,0,0,0,0,0,0</value>
					</parameter>
					<parameter authoringApp="PremierePro">
					<parameterid>3</parameterid>
					<name></name>
					<IsTimeVarying>false</IsTimeVarying>
					<value>-91445760000000000,0.5:0.5,0,0,0,0,0,0,5,4,0,0,0,0</value>
					</parameter>
					<parameter authoringApp="PremierePro">
					<parameterid>4</parameterid>
					<name></name>
					<IsTimeVarying>false</IsTimeVarying>
					<ParameterControlType>2</ParameterControlType>
					<LowerBound>0</LowerBound>
					<UpperBound>4000</UpperBound>
					<value>-91445760000000000,100.,0,0,0,0,0,0</value>
					</parameter>
					<parameter authoringApp="PremierePro">
					<parameterid>8</parameterid>
					<name></name>
					<IsTimeVarying>false</IsTimeVarying>
					<ParameterControlType>2</ParameterControlType>
					<LowerBound>0</LowerBound>
					<UpperBound>100</UpperBound>
					<value>-91445760000000000,100.,0,0,0,0,0,0</value>
					</parameter>
					</effect>
					</filter>
					<logginginfo>
					<description></description>
					<scene></scene>
					<shottake></shottake>
					<lognote></lognote>
					<good></good>
					<originalvideofilename></originalvideofilename>
					<originalaudiofilename></originalaudiofilename>
					</logginginfo>
					<colorinfo>
					<lut></lut>
					<lut1></lut1>
					<asc_sop></asc_sop>
					<asc_sat></asc_sat>
					<lut2></lut2>
					</colorinfo>
					<labels>
					</labels>
					</clipitem>
					<clipitem frameBlend="FALSE" id="clipitem-524">
					<masterclipid>masterclip-444</masterclipid>
					<name></name>
					<enabled>TRUE</enabled>
					<duration>2582774</duration>
					<rate>
					
					                                    <timebase>60</timebase>
					                                    <ntsc>TRUE</ntsc>
					                                
					</rate>
					<start>4258</start>
					<end>4318</end>
					<in>4258</in>
					<out>4318</out>
					<pproTicksIn>914456774963789</pproTicksIn>
					<pproTicksOut>914677708529577</pproTicksOut>
					<alphatype>straight</alphatype>
					<pixelaspectratio>square</pixelaspectratio>
					<anamorphic>FALSE</anamorphic>
					<file id="file-443">
					<name></name>
					<mediaSource>GraphicAndType</mediaSource>
					<rate>
					<timebase>60</timebase>
					<ntsc>TRUE</ntsc>
					</rate>
					<timecode>
					<rate>
					<timebase>60</timebase>
					<ntsc>TRUE</ntsc>
					</rate>
					<string>00:00:00:00</string>
					<frame>0</frame>
					<displayformat>NDF</displayformat>
					</timecode>
					<media>
					<video>
					<samplecharacteristics>
					<rate>
					<timebase>60</timebase>
					<ntsc>TRUE</ntsc>
					</rate>
					<width>1080</width>
					<height>1920</height>
					<anamorphic>FALSE</anamorphic>
					<pixelaspectratio>square</pixelaspectratio>
					<fielddominance>none</fielddominance>
					</samplecharacteristics>
					</video>
					</media>
					</file>
					<filter>
					<effect>
					<name></name>
					<effectid>GraphicAndType</effectid>
					<effectcategory>graphic</effectcategory>
					<effecttype>filter</effecttype>
					<mediatype>video</mediatype>
					<pproBypass>false</pproBypass>
					<parameter authoringApp="PremierePro">
					<parameterid>1</parameterid>
					<name></name>
					<hash>025b1101-ead6-0ca2-1feb-caf3000001fc</hash>
					<value>5AEAAAAAAABEMyIRDAAAAAAABgAKAAQABgAAAGQAAAAAAF4ASAAQAAwARABAADwAOAAAAAAAAAAAADQAMwAsAAAAKAAkACAAAAAAAAAAAAAAAAAAHAAAAAAAGgAAAAAAAAAUAAAAAAAAAAAAAAAAAAAAAAAAAAgAAAAAABsABwBeAAAAAAAAAUAAAABQAAAAbAAAAAIAAAAAAAEAAQAAAAAAQEEAAMBAAABAQAAAyEIAAAABIAAAAAIAAAACAAAAAAA2QwCASkTw/v//9P7///j+//8S////AAAAAAEAAAAEAAAAEQAAAEhHUFNvZWlLYWt1cG9wdGFpAAAAAQAAAAwAAAAIAAwABAAIAAgAAAAIAAAAUAAAAA8AAADvvIEAAAAAAAAAAAAAAAAAAAA2ACQAAAAgABwAAAAAABsAFAAAAAAAAAAAAAAAAAAAAAAAAAAAABAAAAAAAAAADAAAAAgABAA2AAAAAgAAABwAAAAcAAAAHAAAAAAAIEEAAAABaAAAAE3PAEOw////tP///wEAAAAUAAAAEAAaAAgABwAMAAAAEAAUABAAAAAAAAABHAAAAAAAoEEcAAAAAgAAAAAACgAIAAUABgAHAAoAAAAADAD//P///wQABAAEAAAACAAIAAYABwAIAAAAAAAMAA==</value>
					</parameter>
					<parameter authoringApp="PremierePro">
					<parameterid>2</parameterid>
					<name></name>
					<IsTimeVarying>false</IsTimeVarying>
					<ParameterControlType>11</ParameterControlType>
					<LowerBound>false</LowerBound>
					<UpperBound>false</UpperBound>
					<value>-91445760000000000,false,0,0,0,0,0,0</value>
					</parameter>
					<parameter authoringApp="PremierePro">
					<parameterid>3</parameterid>
					<name></name>
					<IsTimeVarying>false</IsTimeVarying>
					<value>-91445760000000000,0.5:0.5,0,0,0,0,0,0,5,4,0,0,0,0</value>
					</parameter>
					<parameter authoringApp="PremierePro">
					<parameterid>4</parameterid>
					<name></name>
					<IsTimeVarying>false</IsTimeVarying>
					<ParameterControlType>2</ParameterControlType>
					<LowerBound>0</LowerBound>
					<UpperBound>4000</UpperBound>
					<value>-91445760000000000,100.,0,0,0,0,0,0</value>
					</parameter>
					<parameter authoringApp="PremierePro">
					<parameterid>8</parameterid>
					<name></name>
					<IsTimeVarying>false</IsTimeVarying>
					<ParameterControlType>2</ParameterControlType>
					<LowerBound>0</LowerBound>
					<UpperBound>100</UpperBound>
					<value>-91445760000000000,100.,0,0,0,0,0,0</value>
					</parameter>
					</effect>
					</filter>
					<logginginfo>
					<description></description>
					<scene></scene>
					<shottake></shottake>
					<lognote></lognote>
					<good></good>
					<originalvideofilename></originalvideofilename>
					<originalaudiofilename></originalaudiofilename>
					</logginginfo>
					<colorinfo>
					<lut></lut>
					<lut1></lut1>
					<asc_sop></asc_sop>
					<asc_sat></asc_sat>
					<lut2></lut2>
					</colorinfo>
					<labels>
					</labels>
					</clipitem>
					<clipitem frameBlend="FALSE" id="clipitem-531">
					<masterclipid>masterclip-451</masterclipid>
					<name></name>
					<enabled>TRUE</enabled>
					<duration>2582774</duration>
					<rate>
					
					                                    <timebase>60</timebase>
					                                    <ntsc>TRUE</ntsc>
					                                
					</rate>
					<start>4318</start>
					<end>4384</end>
					<in>4318</in>
					<out>4384</out>
					<pproTicksIn>914456774963789</pproTicksIn>
					<pproTicksOut>914677708529577</pproTicksOut>
					<alphatype>straight</alphatype>
					<pixelaspectratio>square</pixelaspectratio>
					<anamorphic>FALSE</anamorphic>
					<file id="file-450">
					<name></name>
					<mediaSource>GraphicAndType</mediaSource>
					<rate>
					<timebase>60</timebase>
					<ntsc>TRUE</ntsc>
					</rate>
					<timecode>
					<rate>
					<timebase>60</timebase>
					<ntsc>TRUE</ntsc>
					</rate>
					<string>00:00:00:00</string>
					<frame>0</frame>
					<displayformat>NDF</displayformat>
					</timecode>
					<media>
					<video>
					<samplecharacteristics>
					<rate>
					<timebase>60</timebase>
					<ntsc>TRUE</ntsc>
					</rate>
					<width>1080</width>
					<height>1920</height>
					<anamorphic>FALSE</anamorphic>
					<pixelaspectratio>square</pixelaspectratio>
					<fielddominance>none</fielddominance>
					</samplecharacteristics>
					</video>
					</media>
					</file>
					<filter>
					<effect>
					<name></name>
					<effectid>GraphicAndType</effectid>
					<effectcategory>graphic</effectcategory>
					<effecttype>filter</effecttype>
					<mediatype>video</mediatype>
					<pproBypass>false</pproBypass>
					<parameter authoringApp="PremierePro">
					<parameterid>1</parameterid>
					<name></name>
					<hash>025b1101-ead6-0ca2-1feb-caf3000001fc</hash>
					<value>5AEAAAAAAABEMyIRDAAAAAAABgAKAAQABgAAAGQAAAAAAF4ASAAQAAwARABAADwAOAAAAAAAAAAAADQAMwAsAAAAKAAkACAAAAAAAAAAAAAAAAAAHAAAAAAAGgAAAAAAAAAUAAAAAAAAAAAAAAAAAAAAAAAAAAgAAAAAABsABwBeAAAAAAAAAUAAAABQAAAAbAAAAAIAAAAAAAEAAQAAAAAAQEEAAMBAAABAQAAAyEIAAAABIAAAAAIAAAACAAAAAAA2QwCASkTw/v//9P7///j+//8S////AAAAAAEAAAAEAAAAEQAAAEhHUFNvZWlLYWt1cG9wdGFpAAAAAQAAAAwAAAAIAAwABAAIAAgAAAAIAAAAUAAAAA8AAADvvIEAAAAAAAAAAAAAAAAAAAA2ACQAAAAgABwAAAAAABsAFAAAAAAAAAAAAAAAAAAAAAAAAAAAABAAAAAAAAAADAAAAAgABAA2AAAAAgAAABwAAAAcAAAAHAAAAAAAIEEAAAABaAAAAE3PAEOw////tP///wEAAAAUAAAAEAAaAAgABwAMAAAAEAAUABAAAAAAAAABHAAAAAAAoEEcAAAAAgAAAAAACgAIAAUABgAHAAoAAAAADAD//P///wQABAAEAAAACAAIAAYABwAIAAAAAAAMAA==</value>
					</parameter>
					<parameter authoringApp="PremierePro">
					<parameterid>2</parameterid>
					<name></name>
					<IsTimeVarying>false</IsTimeVarying>
					<ParameterControlType>11</ParameterControlType>
					<LowerBound>false</LowerBound>
					<UpperBound>false</UpperBound>
					<value>-91445760000000000,false,0,0,0,0,0,0</value>
					</parameter>
					<parameter authoringApp="PremierePro">
					<parameterid>3</parameterid>
					<name></name>
					<IsTimeVarying>false</IsTimeVarying>
					<value>-91445760000000000,0.5:0.5,0,0,0,0,0,0,5,4,0,0,0,0</value>
					</parameter>
					<parameter authoringApp="PremierePro">
					<parameterid>4</parameterid>
					<name></name>
					<IsTimeVarying>false</IsTimeVarying>
					<ParameterControlType>2</ParameterControlType>
					<LowerBound>0</LowerBound>
					<UpperBound>4000</UpperBound>
					<value>-91445760000000000,100.,0,0,0,0,0,0</value>
					</parameter>
					<parameter authoringApp="PremierePro">
					<parameterid>8</parameterid>
					<name></name>
					<IsTimeVarying>false</IsTimeVarying>
					<ParameterControlType>2</ParameterControlType>
					<LowerBound>0</LowerBound>
					<UpperBound>100</UpperBound>
					<value>-91445760000000000,100.,0,0,0,0,0,0</value>
					</parameter>
					</effect>
					</filter>
					<logginginfo>
					<description></description>
					<scene></scene>
					<shottake></shottake>
					<lognote></lognote>
					<good></good>
					<originalvideofilename></originalvideofilename>
					<originalaudiofilename></originalaudiofilename>
					</logginginfo>
					<colorinfo>
					<lut></lut>
					<lut1></lut1>
					<asc_sop></asc_sop>
					<asc_sat></asc_sat>
					<lut2></lut2>
					</colorinfo>
					<labels>
					</labels>
					</clipitem>
					<clipitem frameBlend="FALSE" id="clipitem-537">
					<masterclipid>masterclip-457</masterclipid>
					<name></name>
					<enabled>TRUE</enabled>
					<duration>2582774</duration>
					<rate>
					
					                                    <timebase>60</timebase>
					                                    <ntsc>TRUE</ntsc>
					                                
					</rate>
					<start>4390</start>
					<end>4450</end>
					<in>4390</in>
					<out>4450</out>
					<pproTicksIn>914456774963789</pproTicksIn>
					<pproTicksOut>914677708529577</pproTicksOut>
					<alphatype>straight</alphatype>
					<pixelaspectratio>square</pixelaspectratio>
					<anamorphic>FALSE</anamorphic>
					<file id="file-456">
					<name></name>
					<mediaSource>GraphicAndType</mediaSource>
					<rate>
					<timebase>60</timebase>
					<ntsc>TRUE</ntsc>
					</rate>
					<timecode>
					<rate>
					<timebase>60</timebase>
					<ntsc>TRUE</ntsc>
					</rate>
					<string>00:00:00:00</string>
					<frame>0</frame>
					<displayformat>NDF</displayformat>
					</timecode>
					<media>
					<video>
					<samplecharacteristics>
					<rate>
					<timebase>60</timebase>
					<ntsc>TRUE</ntsc>
					</rate>
					<width>1080</width>
					<height>1920</height>
					<anamorphic>FALSE</anamorphic>
					<pixelaspectratio>square</pixelaspectratio>
					<fielddominance>none</fielddominance>
					</samplecharacteristics>
					</video>
					</media>
					</file>
					<filter>
					<effect>
					<name></name>
					<effectid>GraphicAndType</effectid>
					<effectcategory>graphic</effectcategory>
					<effecttype>filter</effecttype>
					<mediatype>video</mediatype>
					<pproBypass>false</pproBypass>
					<parameter authoringApp="PremierePro">
					<parameterid>1</parameterid>
					<name></name>
					<hash>025b1101-ead6-0ca2-1feb-caf3000001fc</hash>
					<value>5AEAAAAAAABEMyIRDAAAAAAABgAKAAQABgAAAGQAAAAAAF4ASAAQAAwARABAADwAOAAAAAAAAAAAADQAMwAsAAAAKAAkACAAAAAAAAAAAAAAAAAAHAAAAAAAGgAAAAAAAAAUAAAAAAAAAAAAAAAAAAAAAAAAAAgAAAAAABsABwBeAAAAAAAAAUAAAABQAAAAbAAAAAIAAAAAAAEAAQAAAAAAQEEAAMBAAABAQAAAyEIAAAABIAAAAAIAAAACAAAAAAA2QwCASkTw/v//9P7///j+//8S////AAAAAAEAAAAEAAAAEQAAAEhHUFNvZWlLYWt1cG9wdGFpAAAAAQAAAAwAAAAIAAwABAAIAAgAAAAIAAAAUAAAAA8AAADvvIEAAAAAAAAAAAAAAAAAAAA2ACQAAAAgABwAAAAAABsAFAAAAAAAAAAAAAAAAAAAAAAAAAAAABAAAAAAAAAADAAAAAgABAA2AAAAAgAAABwAAAAcAAAAHAAAAAAAIEEAAAABaAAAAE3PAEOw////tP///wEAAAAUAAAAEAAaAAgABwAMAAAAEAAUABAAAAAAAAABHAAAAAAAoEEcAAAAAgAAAAAACgAIAAUABgAHAAoAAAAADAD//P///wQABAAEAAAACAAIAAYABwAIAAAAAAAMAA==</value>
					</parameter>
					<parameter authoringApp="PremierePro">
					<parameterid>2</parameterid>
					<name></name>
					<IsTimeVarying>false</IsTimeVarying>
					<ParameterControlType>11</ParameterControlType>
					<LowerBound>false</LowerBound>
					<UpperBound>false</UpperBound>
					<value>-91445760000000000,false,0,0,0,0,0,0</value>
					</parameter>
					<parameter authoringApp="PremierePro">
					<parameterid>3</parameterid>
					<name></name>
					<IsTimeVarying>false</IsTimeVarying>
					<value>-91445760000000000,0.5:0.5,0,0,0,0,0,0,5,4,0,0,0,0</value>
					</parameter>
					<parameter authoringApp="PremierePro">
					<parameterid>4</parameterid>
					<name></name>
					<IsTimeVarying>false</IsTimeVarying>
					<ParameterControlType>2</ParameterControlType>
					<LowerBound>0</LowerBound>
					<UpperBound>4000</UpperBound>
					<value>-91445760000000000,100.,0,0,0,0,0,0</value>
					</parameter>
					<parameter authoringApp="PremierePro">
					<parameterid>8</parameterid>
					<name></name>
					<IsTimeVarying>false</IsTimeVarying>
					<ParameterControlType>2</ParameterControlType>
					<LowerBound>0</LowerBound>
					<UpperBound>100</UpperBound>
					<value>-91445760000000000,100.,0,0,0,0,0,0</value>
					</parameter>
					</effect>
					</filter>
					<logginginfo>
					<description></description>
					<scene></scene>
					<shottake></shottake>
					<lognote></lognote>
					<good></good>
					<originalvideofilename></originalvideofilename>
					<originalaudiofilename></originalaudiofilename>
					</logginginfo>
					<colorinfo>
					<lut></lut>
					<lut1></lut1>
					<asc_sop></asc_sop>
					<asc_sat></asc_sat>
					<lut2></lut2>
					</colorinfo>
					<labels>
					</labels>
					</clipitem>
					<clipitem frameBlend="FALSE" id="clipitem-546">
					<masterclipid>masterclip-466</masterclipid>
					<name></name>
					<enabled>TRUE</enabled>
					<duration>2582774</duration>
					<rate>
					
					                                    <timebase>60</timebase>
					                                    <ntsc>TRUE</ntsc>
					                                
					</rate>
					<start>4450</start>
					<end>4510</end>
					<in>4450</in>
					<out>4510</out>
					<pproTicksIn>914456774963789</pproTicksIn>
					<pproTicksOut>914677708529577</pproTicksOut>
					<alphatype>straight</alphatype>
					<pixelaspectratio>square</pixelaspectratio>
					<anamorphic>FALSE</anamorphic>
					<file id="file-465">
					<name></name>
					<mediaSource>GraphicAndType</mediaSource>
					<rate>
					<timebase>60</timebase>
					<ntsc>TRUE</ntsc>
					</rate>
					<timecode>
					<rate>
					<timebase>60</timebase>
					<ntsc>TRUE</ntsc>
					</rate>
					<string>00:00:00:00</string>
					<frame>0</frame>
					<displayformat>NDF</displayformat>
					</timecode>
					<media>
					<video>
					<samplecharacteristics>
					<rate>
					<timebase>60</timebase>
					<ntsc>TRUE</ntsc>
					</rate>
					<width>1080</width>
					<height>1920</height>
					<anamorphic>FALSE</anamorphic>
					<pixelaspectratio>square</pixelaspectratio>
					<fielddominance>none</fielddominance>
					</samplecharacteristics>
					</video>
					</media>
					</file>
					<filter>
					<effect>
					<name></name>
					<effectid>GraphicAndType</effectid>
					<effectcategory>graphic</effectcategory>
					<effecttype>filter</effecttype>
					<mediatype>video</mediatype>
					<pproBypass>false</pproBypass>
					<parameter authoringApp="PremierePro">
					<parameterid>1</parameterid>
					<name></name>
					<hash>025b1101-ead6-0ca2-1feb-caf3000001fc</hash>
					<value>5AEAAAAAAABEMyIRDAAAAAAABgAKAAQABgAAAGQAAAAAAF4ASAAQAAwARABAADwAOAAAAAAAAAAAADQAMwAsAAAAKAAkACAAAAAAAAAAAAAAAAAAHAAAAAAAGgAAAAAAAAAUAAAAAAAAAAAAAAAAAAAAAAAAAAgAAAAAABsABwBeAAAAAAAAAUAAAABQAAAAbAAAAAIAAAAAAAEAAQAAAAAAQEEAAMBAAABAQAAAyEIAAAABIAAAAAIAAAACAAAAAAA2QwCASkTw/v//9P7///j+//8S////AAAAAAEAAAAEAAAAEQAAAEhHUFNvZWlLYWt1cG9wdGFpAAAAAQAAAAwAAAAIAAwABAAIAAgAAAAIAAAAUAAAAA8AAADvvIEAAAAAAAAAAAAAAAAAAAA2ACQAAAAgABwAAAAAABsAFAAAAAAAAAAAAAAAAAAAAAAAAAAAABAAAAAAAAAADAAAAAgABAA2AAAAAgAAABwAAAAcAAAAHAAAAAAAIEEAAAABaAAAAE3PAEOw////tP///wEAAAAUAAAAEAAaAAgABwAMAAAAEAAUABAAAAAAAAABHAAAAAAAoEEcAAAAAgAAAAAACgAIAAUABgAHAAoAAAAADAD//P///wQABAAEAAAACAAIAAYABwAIAAAAAAAMAA==</value>
					</parameter>
					<parameter authoringApp="PremierePro">
					<parameterid>2</parameterid>
					<name></name>
					<IsTimeVarying>false</IsTimeVarying>
					<ParameterControlType>11</ParameterControlType>
					<LowerBound>false</LowerBound>
					<UpperBound>false</UpperBound>
					<value>-91445760000000000,false,0,0,0,0,0,0</value>
					</parameter>
					<parameter authoringApp="PremierePro">
					<parameterid>3</parameterid>
					<name></name>
					<IsTimeVarying>false</IsTimeVarying>
					<value>-91445760000000000,0.5:0.5,0,0,0,0,0,0,5,4,0,0,0,0</value>
					</parameter>
					<parameter authoringApp="PremierePro">
					<parameterid>4</parameterid>
					<name></name>
					<IsTimeVarying>false</IsTimeVarying>
					<ParameterControlType>2</ParameterControlType>
					<LowerBound>0</LowerBound>
					<UpperBound>4000</UpperBound>
					<value>-91445760000000000,100.,0,0,0,0,0,0</value>
					</parameter>
					<parameter authoringApp="PremierePro">
					<parameterid>8</parameterid>
					<name></name>
					<IsTimeVarying>false</IsTimeVarying>
					<ParameterControlType>2</ParameterControlType>
					<LowerBound>0</LowerBound>
					<UpperBound>100</UpperBound>
					<value>-91445760000000000,100.,0,0,0,0,0,0</value>
					</parameter>
					</effect>
					</filter>
					<logginginfo>
					<description></description>
					<scene></scene>
					<shottake></shottake>
					<lognote></lognote>
					<good></good>
					<originalvideofilename></originalvideofilename>
					<originalaudiofilename></originalaudiofilename>
					</logginginfo>
					<colorinfo>
					<lut></lut>
					<lut1></lut1>
					<asc_sop></asc_sop>
					<asc_sat></asc_sat>
					<lut2></lut2>
					</colorinfo>
					<labels>
					</labels>
					</clipitem>
					<clipitem frameBlend="FALSE" id="clipitem-556">
					<masterclipid>masterclip-476</masterclipid>
					<name></name>
					<enabled>TRUE</enabled>
					<duration>2582774</duration>
					<rate>
					
					                                    <timebase>60</timebase>
					                                    <ntsc>TRUE</ntsc>
					                                
					</rate>
					<start>4534</start>
					<end>4594</end>
					<in>4534</in>
					<out>4594</out>
					<pproTicksIn>914456774963789</pproTicksIn>
					<pproTicksOut>914677708529577</pproTicksOut>
					<alphatype>straight</alphatype>
					<pixelaspectratio>square</pixelaspectratio>
					<anamorphic>FALSE</anamorphic>
					<file id="file-475">
					<name></name>
					<mediaSource>GraphicAndType</mediaSource>
					<rate>
					<timebase>60</timebase>
					<ntsc>TRUE</ntsc>
					</rate>
					<timecode>
					<rate>
					<timebase>60</timebase>
					<ntsc>TRUE</ntsc>
					</rate>
					<string>00:00:00:00</string>
					<frame>0</frame>
					<displayformat>NDF</displayformat>
					</timecode>
					<media>
					<video>
					<samplecharacteristics>
					<rate>
					<timebase>60</timebase>
					<ntsc>TRUE</ntsc>
					</rate>
					<width>1080</width>
					<height>1920</height>
					<anamorphic>FALSE</anamorphic>
					<pixelaspectratio>square</pixelaspectratio>
					<fielddominance>none</fielddominance>
					</samplecharacteristics>
					</video>
					</media>
					</file>
					<filter>
					<effect>
					<name></name>
					<effectid>GraphicAndType</effectid>
					<effectcategory>graphic</effectcategory>
					<effecttype>filter</effecttype>
					<mediatype>video</mediatype>
					<pproBypass>false</pproBypass>
					<parameter authoringApp="PremierePro">
					<parameterid>1</parameterid>
					<name></name>
					<hash>025b1101-ead6-0ca2-1feb-caf3000001fc</hash>
					<value>5AEAAAAAAABEMyIRDAAAAAAABgAKAAQABgAAAGQAAAAAAF4ASAAQAAwARABAADwAOAAAAAAAAAAAADQAMwAsAAAAKAAkACAAAAAAAAAAAAAAAAAAHAAAAAAAGgAAAAAAAAAUAAAAAAAAAAAAAAAAAAAAAAAAAAgAAAAAABsABwBeAAAAAAAAAUAAAABQAAAAbAAAAAIAAAAAAAEAAQAAAAAAQEEAAMBAAABAQAAAyEIAAAABIAAAAAIAAAACAAAAAAA2QwCASkTw/v//9P7///j+//8S////AAAAAAEAAAAEAAAAEQAAAEhHUFNvZWlLYWt1cG9wdGFpAAAAAQAAAAwAAAAIAAwABAAIAAgAAAAIAAAAUAAAAA8AAADvvIEAAAAAAAAAAAAAAAAAAAA2ACQAAAAgABwAAAAAABsAFAAAAAAAAAAAAAAAAAAAAAAAAAAAABAAAAAAAAAADAAAAAgABAA2AAAAAgAAABwAAAAcAAAAHAAAAAAAIEEAAAABaAAAAE3PAEOw////tP///wEAAAAUAAAAEAAaAAgABwAMAAAAEAAUABAAAAAAAAABHAAAAAAAoEEcAAAAAgAAAAAACgAIAAUABgAHAAoAAAAADAD//P///wQABAAEAAAACAAIAAYABwAIAAAAAAAMAA==</value>
					</parameter>
					<parameter authoringApp="PremierePro">
					<parameterid>2</parameterid>
					<name></name>
					<IsTimeVarying>false</IsTimeVarying>
					<ParameterControlType>11</ParameterControlType>
					<LowerBound>false</LowerBound>
					<UpperBound>false</UpperBound>
					<value>-91445760000000000,false,0,0,0,0,0,0</value>
					</parameter>
					<parameter authoringApp="PremierePro">
					<parameterid>3</parameterid>
					<name></name>
					<IsTimeVarying>false</IsTimeVarying>
					<value>-91445760000000000,0.5:0.5,0,0,0,0,0,0,5,4,0,0,0,0</value>
					</parameter>
					<parameter authoringApp="PremierePro">
					<parameterid>4</parameterid>
					<name></name>
					<IsTimeVarying>false</IsTimeVarying>
					<ParameterControlType>2</ParameterControlType>
					<LowerBound>0</LowerBound>
					<UpperBound>4000</UpperBound>
					<value>-91445760000000000,100.,0,0,0,0,0,0</value>
					</parameter>
					<parameter authoringApp="PremierePro">
					<parameterid>8</parameterid>
					<name></name>
					<IsTimeVarying>false</IsTimeVarying>
					<ParameterControlType>2</ParameterControlType>
					<LowerBound>0</LowerBound>
					<UpperBound>100</UpperBound>
					<value>-91445760000000000,100.,0,0,0,0,0,0</value>
					</parameter>
					</effect>
					</filter>
					<logginginfo>
					<description></description>
					<scene></scene>
					<shottake></shottake>
					<lognote></lognote>
					<good></good>
					<originalvideofilename></originalvideofilename>
					<originalaudiofilename></originalaudiofilename>
					</logginginfo>
					<colorinfo>
					<lut></lut>
					<lut1></lut1>
					<asc_sop></asc_sop>
					<asc_sat></asc_sat>
					<lut2></lut2>
					</colorinfo>
					<labels>
					</labels>
					</clipitem>
					<clipitem id="clipitem-561"/>
					                        </track>
					                        <track TL.SQTrackShy="0" TL.SQTrackExpandedHeight="25" TL.SQTrackExpanded="0" MZ.TrackTargeted="0">
					<clipitem frameBlend="FALSE" id="clipitem-562">
					<masterclipid>masterclip-482</masterclipid>
					<name></name>
					<enabled>TRUE</enabled>
					<duration>2582774</duration>
					<rate>
					
					                                    <timebase>60</timebase>
					                                    <ntsc>TRUE</ntsc>
					                                
					</rate>
					<start>4594</start>
					<end>4654</end>
					<in>4594</in>
					<out>4654</out>
					<pproTicksIn>914456774963789</pproTicksIn>
					<pproTicksOut>914677708529577</pproTicksOut>
					<alphatype>straight</alphatype>
					<pixelaspectratio>square</pixelaspectratio>
					<anamorphic>FALSE</anamorphic>
					<file id="file-481">
					<name></name>
					<mediaSource>GraphicAndType</mediaSource>
					<rate>
					<timebase>60</timebase>
					<ntsc>TRUE</ntsc>
					</rate>
					<timecode>
					<rate>
					<timebase>60</timebase>
					<ntsc>TRUE</ntsc>
					</rate>
					<string>00:00:00:00</string>
					<frame>0</frame>
					<displayformat>NDF</displayformat>
					</timecode>
					<media>
					<video>
					<samplecharacteristics>
					<rate>
					<timebase>60</timebase>
					<ntsc>TRUE</ntsc>
					</rate>
					<width>1080</width>
					<height>1920</height>
					<anamorphic>FALSE</anamorphic>
					<pixelaspectratio>square</pixelaspectratio>
					<fielddominance>none</fielddominance>
					</samplecharacteristics>
					</video>
					</media>
					</file>
					<filter>
					<effect>
					<name></name>
					<effectid>GraphicAndType</effectid>
					<effectcategory>graphic</effectcategory>
					<effecttype>filter</effecttype>
					<mediatype>video</mediatype>
					<pproBypass>false</pproBypass>
					<parameter authoringApp="PremierePro">
					<parameterid>1</parameterid>
					<name></name>
					<hash>025b1101-ead6-0ca2-1feb-caf3000001fc</hash>
					<value>5AEAAAAAAABEMyIRDAAAAAAABgAKAAQABgAAAGQAAAAAAF4ASAAQAAwARABAADwAOAAAAAAAAAAAADQAMwAsAAAAKAAkACAAAAAAAAAAAAAAAAAAHAAAAAAAGgAAAAAAAAAUAAAAAAAAAAAAAAAAAAAAAAAAAAgAAAAAABsABwBeAAAAAAAAAUAAAABQAAAAbAAAAAIAAAAAAAEAAQAAAAAAQEEAAMBAAABAQAAAyEIAAAABIAAAAAIAAAACAAAAAAA2QwCASkTw/v//9P7///j+//8S////AAAAAAEAAAAEAAAAEQAAAEhHUFNvZWlLYWt1cG9wdGFpAAAAAQAAAAwAAAAIAAwABAAIAAgAAAAIAAAAUAAAAA8AAADvvIEAAAAAAAAAAAAAAAAAAAA2ACQAAAAgABwAAAAAABsAFAAAAAAAAAAAAAAAAAAAAAAAAAAAABAAAAAAAAAADAAAAAgABAA2AAAAAgAAABwAAAAcAAAAHAAAAAAAIEEAAAABaAAAAE3PAEOw////tP///wEAAAAUAAAAEAAaAAgABwAMAAAAEAAUABAAAAAAAAABHAAAAAAAoEEcAAAAAgAAAAAACgAIAAUABgAHAAoAAAAADAD//P///wQABAAEAAAACAAIAAYABwAIAAAAAAAMAA==</value>
					</parameter>
					<parameter authoringApp="PremierePro">
					<parameterid>2</parameterid>
					<name></name>
					<IsTimeVarying>false</IsTimeVarying>
					<ParameterControlType>11</ParameterControlType>
					<LowerBound>false</LowerBound>
					<UpperBound>false</UpperBound>
					<value>-91445760000000000,false,0,0,0,0,0,0</value>
					</parameter>
					<parameter authoringApp="PremierePro">
					<parameterid>3</parameterid>
					<name></name>
					<IsTimeVarying>false</IsTimeVarying>
					<value>-91445760000000000,0.5:0.5,0,0,0,0,0,0,5,4,0,0,0,0</value>
					</parameter>
					<parameter authoringApp="PremierePro">
					<parameterid>4</parameterid>
					<name></name>
					<IsTimeVarying>false</IsTimeVarying>
					<ParameterControlType>2</ParameterControlType>
					<LowerBound>0</LowerBound>
					<UpperBound>4000</UpperBound>
					<value>-91445760000000000,100.,0,0,0,0,0,0</value>
					</parameter>
					<parameter authoringApp="PremierePro">
					<parameterid>8</parameterid>
					<name></name>
					<IsTimeVarying>false</IsTimeVarying>
					<ParameterControlType>2</ParameterControlType>
					<LowerBound>0</LowerBound>
					<UpperBound>100</UpperBound>
					<value>-91445760000000000,100.,0,0,0,0,0,0</value>
					</parameter>
					</effect>
					</filter>
					<logginginfo>
					<description></description>
					<scene></scene>
					<shottake></shottake>
					<lognote></lognote>
					<good></good>
					<originalvideofilename></originalvideofilename>
					<originalaudiofilename></originalaudiofilename>
					</logginginfo>
					<colorinfo>
					<lut></lut>
					<lut1></lut1>
					<asc_sop></asc_sop>
					<asc_sat></asc_sat>
					<lut2></lut2>
					</colorinfo>
					<labels>
					</labels>
					</clipitem>
					<clipitem frameBlend="FALSE" id="clipitem-567">
					<masterclipid>masterclip-487</masterclipid>
					<name></name>
					<enabled>TRUE</enabled>
					<duration>2582774</duration>
					<rate>
					
					                                    <timebase>60</timebase>
					                                    <ntsc>TRUE</ntsc>
					                                
					</rate>
					<start>4654</start>
					<end>4720</end>
					<in>4654</in>
					<out>4720</out>
					<pproTicksIn>914456774963789</pproTicksIn>
					<pproTicksOut>914677708529577</pproTicksOut>
					<alphatype>straight</alphatype>
					<pixelaspectratio>square</pixelaspectratio>
					<anamorphic>FALSE</anamorphic>
					<file id="file-486">
					<name></name>
					<mediaSource>GraphicAndType</mediaSource>
					<rate>
					<timebase>60</timebase>
					<ntsc>TRUE</ntsc>
					</rate>
					<timecode>
					<rate>
					<timebase>60</timebase>
					<ntsc>TRUE</ntsc>
					</rate>
					<string>00:00:00:00</string>
					<frame>0</frame>
					<displayformat>NDF</displayformat>
					</timecode>
					<media>
					<video>
					<samplecharacteristics>
					<rate>
					<timebase>60</timebase>
					<ntsc>TRUE</ntsc>
					</rate>
					<width>1080</width>
					<height>1920</height>
					<anamorphic>FALSE</anamorphic>
					<pixelaspectratio>square</pixelaspectratio>
					<fielddominance>none</fielddominance>
					</samplecharacteristics>
					</video>
					</media>
					</file>
					<filter>
					<effect>
					<name></name>
					<effectid>GraphicAndType</effectid>
					<effectcategory>graphic</effectcategory>
					<effecttype>filter</effecttype>
					<mediatype>video</mediatype>
					<pproBypass>false</pproBypass>
					<parameter authoringApp="PremierePro">
					<parameterid>1</parameterid>
					<name></name>
					<hash>025b1101-ead6-0ca2-1feb-caf3000001fc</hash>
					<value>5AEAAAAAAABEMyIRDAAAAAAABgAKAAQABgAAAGQAAAAAAF4ASAAQAAwARABAADwAOAAAAAAAAAAAADQAMwAsAAAAKAAkACAAAAAAAAAAAAAAAAAAHAAAAAAAGgAAAAAAAAAUAAAAAAAAAAAAAAAAAAAAAAAAAAgAAAAAABsABwBeAAAAAAAAAUAAAABQAAAAbAAAAAIAAAAAAAEAAQAAAAAAQEEAAMBAAABAQAAAyEIAAAABIAAAAAIAAAACAAAAAAA2QwCASkTw/v//9P7///j+//8S////AAAAAAEAAAAEAAAAEQAAAEhHUFNvZWlLYWt1cG9wdGFpAAAAAQAAAAwAAAAIAAwABAAIAAgAAAAIAAAAUAAAAA8AAADvvIEAAAAAAAAAAAAAAAAAAAA2ACQAAAAgABwAAAAAABsAFAAAAAAAAAAAAAAAAAAAAAAAAAAAABAAAAAAAAAADAAAAAgABAA2AAAAAgAAABwAAAAcAAAAHAAAAAAAIEEAAAABaAAAAE3PAEOw////tP///wEAAAAUAAAAEAAaAAgABwAMAAAAEAAUABAAAAAAAAABHAAAAAAAoEEcAAAAAgAAAAAACgAIAAUABgAHAAoAAAAADAD//P///wQABAAEAAAACAAIAAYABwAIAAAAAAAMAA==</value>
					</parameter>
					<parameter authoringApp="PremierePro">
					<parameterid>2</parameterid>
					<name></name>
					<IsTimeVarying>false</IsTimeVarying>
					<ParameterControlType>11</ParameterControlType>
					<LowerBound>false</LowerBound>
					<UpperBound>false</UpperBound>
					<value>-91445760000000000,false,0,0,0,0,0,0</value>
					</parameter>
					<parameter authoringApp="PremierePro">
					<parameterid>3</parameterid>
					<name></name>
					<IsTimeVarying>false</IsTimeVarying>
					<value>-91445760000000000,0.5:0.5,0,0,0,0,0,0,5,4,0,0,0,0</value>
					</parameter>
					<parameter authoringApp="PremierePro">
					<parameterid>4</parameterid>
					<name></name>
					<IsTimeVarying>false</IsTimeVarying>
					<ParameterControlType>2</ParameterControlType>
					<LowerBound>0</LowerBound>
					<UpperBound>4000</UpperBound>
					<value>-91445760000000000,100.,0,0,0,0,0,0</value>
					</parameter>
					<parameter authoringApp="PremierePro">
					<parameterid>8</parameterid>
					<name></name>
					<IsTimeVarying>false</IsTimeVarying>
					<ParameterControlType>2</ParameterControlType>
					<LowerBound>0</LowerBound>
					<UpperBound>100</UpperBound>
					<value>-91445760000000000,100.,0,0,0,0,0,0</value>
					</parameter>
					</effect>
					</filter>
					<logginginfo>
					<description></description>
					<scene></scene>
					<shottake></shottake>
					<lognote></lognote>
					<good></good>
					<originalvideofilename></originalvideofilename>
					<originalaudiofilename></originalaudiofilename>
					</logginginfo>
					<colorinfo>
					<lut></lut>
					<lut1></lut1>
					<asc_sop></asc_sop>
					<asc_sat></asc_sat>
					<lut2></lut2>
					</colorinfo>
					<labels>
					</labels>
					</clipitem>
					<clipitem frameBlend="FALSE" id="clipitem-573">
					<masterclipid>masterclip-493</masterclipid>
					<name></name>
					<enabled>TRUE</enabled>
					<duration>2582774</duration>
					<rate>
					
					                                    <timebase>60</timebase>
					                                    <ntsc>TRUE</ntsc>
					                                
					</rate>
					<start>4726</start>
					<end>4786</end>
					<in>4726</in>
					<out>4786</out>
					<pproTicksIn>914456774963789</pproTicksIn>
					<pproTicksOut>914677708529577</pproTicksOut>
					<alphatype>straight</alphatype>
					<pixelaspectratio>square</pixelaspectratio>
					<anamorphic>FALSE</anamorphic>
					<file id="file-492">
					<name></name>
					<mediaSource>GraphicAndType</mediaSource>
					<rate>
					<timebase>60</timebase>
					<ntsc>TRUE</ntsc>
					</rate>
					<timecode>
					<rate>
					<timebase>60</timebase>
					<ntsc>TRUE</ntsc>
					</rate>
					<string>00:00:00:00</string>
					<frame>0</frame>
					<displayformat>NDF</displayformat>
					</timecode>
					<media>
					<video>
					<samplecharacteristics>
					<rate>
					<timebase>60</timebase>
					<ntsc>TRUE</ntsc>
					</rate>
					<width>1080</width>
					<height>1920</height>
					<anamorphic>FALSE</anamorphic>
					<pixelaspectratio>square</pixelaspectratio>
					<fielddominance>none</fielddominance>
					</samplecharacteristics>
					</video>
					</media>
					</file>
					<filter>
					<effect>
					<name></name>
					<effectid>GraphicAndType</effectid>
					<effectcategory>graphic</effectcategory>
					<effecttype>filter</effecttype>
					<mediatype>video</mediatype>
					<pproBypass>false</pproBypass>
					<parameter authoringApp="PremierePro">
					<parameterid>1</parameterid>
					<name></name>
					<hash>025b1101-ead6-0ca2-1feb-caf3000001fc</hash>
					<value>5AEAAAAAAABEMyIRDAAAAAAABgAKAAQABgAAAGQAAAAAAF4ASAAQAAwARABAADwAOAAAAAAAAAAAADQAMwAsAAAAKAAkACAAAAAAAAAAAAAAAAAAHAAAAAAAGgAAAAAAAAAUAAAAAAAAAAAAAAAAAAAAAAAAAAgAAAAAABsABwBeAAAAAAAAAUAAAABQAAAAbAAAAAIAAAAAAAEAAQAAAAAAQEEAAMBAAABAQAAAyEIAAAABIAAAAAIAAAACAAAAAAA2QwCASkTw/v//9P7///j+//8S////AAAAAAEAAAAEAAAAEQAAAEhHUFNvZWlLYWt1cG9wdGFpAAAAAQAAAAwAAAAIAAwABAAIAAgAAAAIAAAAUAAAAA8AAADvvIEAAAAAAAAAAAAAAAAAAAA2ACQAAAAgABwAAAAAABsAFAAAAAAAAAAAAAAAAAAAAAAAAAAAABAAAAAAAAAADAAAAAgABAA2AAAAAgAAABwAAAAcAAAAHAAAAAAAIEEAAAABaAAAAE3PAEOw////tP///wEAAAAUAAAAEAAaAAgABwAMAAAAEAAUABAAAAAAAAABHAAAAAAAoEEcAAAAAgAAAAAACgAIAAUABgAHAAoAAAAADAD//P///wQABAAEAAAACAAIAAYABwAIAAAAAAAMAA==</value>
					</parameter>
					<parameter authoringApp="PremierePro">
					<parameterid>2</parameterid>
					<name></name>
					<IsTimeVarying>false</IsTimeVarying>
					<ParameterControlType>11</ParameterControlType>
					<LowerBound>false</LowerBound>
					<UpperBound>false</UpperBound>
					<value>-91445760000000000,false,0,0,0,0,0,0</value>
					</parameter>
					<parameter authoringApp="PremierePro">
					<parameterid>3</parameterid>
					<name></name>
					<IsTimeVarying>false</IsTimeVarying>
					<value>-91445760000000000,0.5:0.5,0,0,0,0,0,0,5,4,0,0,0,0</value>
					</parameter>
					<parameter authoringApp="PremierePro">
					<parameterid>4</parameterid>
					<name></name>
					<IsTimeVarying>false</IsTimeVarying>
					<ParameterControlType>2</ParameterControlType>
					<LowerBound>0</LowerBound>
					<UpperBound>4000</UpperBound>
					<value>-91445760000000000,100.,0,0,0,0,0,0</value>
					</parameter>
					<parameter authoringApp="PremierePro">
					<parameterid>8</parameterid>
					<name></name>
					<IsTimeVarying>false</IsTimeVarying>
					<ParameterControlType>2</ParameterControlType>
					<LowerBound>0</LowerBound>
					<UpperBound>100</UpperBound>
					<value>-91445760000000000,100.,0,0,0,0,0,0</value>
					</parameter>
					</effect>
					</filter>
					<logginginfo>
					<description></description>
					<scene></scene>
					<shottake></shottake>
					<lognote></lognote>
					<good></good>
					<originalvideofilename></originalvideofilename>
					<originalaudiofilename></originalaudiofilename>
					</logginginfo>
					<colorinfo>
					<lut></lut>
					<lut1></lut1>
					<asc_sop></asc_sop>
					<asc_sat></asc_sat>
					<lut2></lut2>
					</colorinfo>
					<labels>
					</labels>
					</clipitem>
					<clipitem frameBlend="FALSE" id="clipitem-578">
					<masterclipid>masterclip-498</masterclipid>
					<name></name>
					<enabled>TRUE</enabled>
					<duration>2582774</duration>
					<rate>
					
					                                    <timebase>60</timebase>
					                                    <ntsc>TRUE</ntsc>
					                                
					</rate>
					<start>4792</start>
					<end>4852</end>
					<in>4792</in>
					<out>4852</out>
					<pproTicksIn>914456774963789</pproTicksIn>
					<pproTicksOut>914677708529577</pproTicksOut>
					<alphatype>straight</alphatype>
					<pixelaspectratio>square</pixelaspectratio>
					<anamorphic>FALSE</anamorphic>
					<file id="file-497">
					<name></name>
					<mediaSource>GraphicAndType</mediaSource>
					<rate>
					<timebase>60</timebase>
					<ntsc>TRUE</ntsc>
					</rate>
					<timecode>
					<rate>
					<timebase>60</timebase>
					<ntsc>TRUE</ntsc>
					</rate>
					<string>00:00:00:00</string>
					<frame>0</frame>
					<displayformat>NDF</displayformat>
					</timecode>
					<media>
					<video>
					<samplecharacteristics>
					<rate>
					<timebase>60</timebase>
					<ntsc>TRUE</ntsc>
					</rate>
					<width>1080</width>
					<height>1920</height>
					<anamorphic>FALSE</anamorphic>
					<pixelaspectratio>square</pixelaspectratio>
					<fielddominance>none</fielddominance>
					</samplecharacteristics>
					</video>
					</media>
					</file>
					<filter>
					<effect>
					<name></name>
					<effectid>GraphicAndType</effectid>
					<effectcategory>graphic</effectcategory>
					<effecttype>filter</effecttype>
					<mediatype>video</mediatype>
					<pproBypass>false</pproBypass>
					<parameter authoringApp="PremierePro">
					<parameterid>1</parameterid>
					<name></name>
					<hash>025b1101-ead6-0ca2-1feb-caf3000001fc</hash>
					<value>5AEAAAAAAABEMyIRDAAAAAAABgAKAAQABgAAAGQAAAAAAF4ASAAQAAwARABAADwAOAAAAAAAAAAAADQAMwAsAAAAKAAkACAAAAAAAAAAAAAAAAAAHAAAAAAAGgAAAAAAAAAUAAAAAAAAAAAAAAAAAAAAAAAAAAgAAAAAABsABwBeAAAAAAAAAUAAAABQAAAAbAAAAAIAAAAAAAEAAQAAAAAAQEEAAMBAAABAQAAAyEIAAAABIAAAAAIAAAACAAAAAAA2QwCASkTw/v//9P7///j+//8S////AAAAAAEAAAAEAAAAEQAAAEhHUFNvZWlLYWt1cG9wdGFpAAAAAQAAAAwAAAAIAAwABAAIAAgAAAAIAAAAUAAAAA8AAADvvIEAAAAAAAAAAAAAAAAAAAA2ACQAAAAgABwAAAAAABsAFAAAAAAAAAAAAAAAAAAAAAAAAAAAABAAAAAAAAAADAAAAAgABAA2AAAAAgAAABwAAAAcAAAAHAAAAAAAIEEAAAABaAAAAE3PAEOw////tP///wEAAAAUAAAAEAAaAAgABwAMAAAAEAAUABAAAAAAAAABHAAAAAAAoEEcAAAAAgAAAAAACgAIAAUABgAHAAoAAAAADAD//P///wQABAAEAAAACAAIAAYABwAIAAAAAAAMAA==</value>
					</parameter>
					<parameter authoringApp="PremierePro">
					<parameterid>2</parameterid>
					<name></name>
					<IsTimeVarying>false</IsTimeVarying>
					<ParameterControlType>11</ParameterControlType>
					<LowerBound>false</LowerBound>
					<UpperBound>false</UpperBound>
					<value>-91445760000000000,false,0,0,0,0,0,0</value>
					</parameter>
					<parameter authoringApp="PremierePro">
					<parameterid>3</parameterid>
					<name></name>
					<IsTimeVarying>false</IsTimeVarying>
					<value>-91445760000000000,0.5:0.5,0,0,0,0,0,0,5,4,0,0,0,0</value>
					</parameter>
					<parameter authoringApp="PremierePro">
					<parameterid>4</parameterid>
					<name></name>
					<IsTimeVarying>false</IsTimeVarying>
					<ParameterControlType>2</ParameterControlType>
					<LowerBound>0</LowerBound>
					<UpperBound>4000</UpperBound>
					<value>-91445760000000000,100.,0,0,0,0,0,0</value>
					</parameter>
					<parameter authoringApp="PremierePro">
					<parameterid>8</parameterid>
					<name></name>
					<IsTimeVarying>false</IsTimeVarying>
					<ParameterControlType>2</ParameterControlType>
					<LowerBound>0</LowerBound>
					<UpperBound>100</UpperBound>
					<value>-91445760000000000,100.,0,0,0,0,0,0</value>
					</parameter>
					</effect>
					</filter>
					<logginginfo>
					<description></description>
					<scene></scene>
					<shottake></shottake>
					<lognote></lognote>
					<good></good>
					<originalvideofilename></originalvideofilename>
					<originalaudiofilename></originalaudiofilename>
					</logginginfo>
					<colorinfo>
					<lut></lut>
					<lut1></lut1>
					<asc_sop></asc_sop>
					<asc_sat></asc_sat>
					<lut2></lut2>
					</colorinfo>
					<labels>
					</labels>
					</clipitem>
					<clipitem frameBlend="FALSE" id="clipitem-589">
					<masterclipid>masterclip-509</masterclipid>
					<name></name>
					<enabled>TRUE</enabled>
					<duration>2582774</duration>
					<rate>
					
					                                    <timebase>60</timebase>
					                                    <ntsc>TRUE</ntsc>
					                                
					</rate>
					<start>4888</start>
					<end>4948</end>
					<in>4888</in>
					<out>4948</out>
					<pproTicksIn>914456774963789</pproTicksIn>
					<pproTicksOut>914677708529577</pproTicksOut>
					<alphatype>straight</alphatype>
					<pixelaspectratio>square</pixelaspectratio>
					<anamorphic>FALSE</anamorphic>
					<file id="file-508">
					<name></name>
					<mediaSource>GraphicAndType</mediaSource>
					<rate>
					<timebase>60</timebase>
					<ntsc>TRUE</ntsc>
					</rate>
					<timecode>
					<rate>
					<timebase>60</timebase>
					<ntsc>TRUE</ntsc>
					</rate>
					<string>00:00:00:00</string>
					<frame>0</frame>
					<displayformat>NDF</displayformat>
					</timecode>
					<media>
					<video>
					<samplecharacteristics>
					<rate>
					<timebase>60</timebase>
					<ntsc>TRUE</ntsc>
					</rate>
					<width>1080</width>
					<height>1920</height>
					<anamorphic>FALSE</anamorphic>
					<pixelaspectratio>square</pixelaspectratio>
					<fielddominance>none</fielddominance>
					</samplecharacteristics>
					</video>
					</media>
					</file>
					<filter>
					<effect>
					<name></name>
					<effectid>GraphicAndType</effectid>
					<effectcategory>graphic</effectcategory>
					<effecttype>filter</effecttype>
					<mediatype>video</mediatype>
					<pproBypass>false</pproBypass>
					<parameter authoringApp="PremierePro">
					<parameterid>1</parameterid>
					<name></name>
					<hash>025b1101-ead6-0ca2-1feb-caf3000001fc</hash>
					<value>5AEAAAAAAABEMyIRDAAAAAAABgAKAAQABgAAAGQAAAAAAF4ASAAQAAwARABAADwAOAAAAAAAAAAAADQAMwAsAAAAKAAkACAAAAAAAAAAAAAAAAAAHAAAAAAAGgAAAAAAAAAUAAAAAAAAAAAAAAAAAAAAAAAAAAgAAAAAABsABwBeAAAAAAAAAUAAAABQAAAAbAAAAAIAAAAAAAEAAQAAAAAAQEEAAMBAAABAQAAAyEIAAAABIAAAAAIAAAACAAAAAAA2QwCASkTw/v//9P7///j+//8S////AAAAAAEAAAAEAAAAEQAAAEhHUFNvZWlLYWt1cG9wdGFpAAAAAQAAAAwAAAAIAAwABAAIAAgAAAAIAAAAUAAAAA8AAADvvIEAAAAAAAAAAAAAAAAAAAA2ACQAAAAgABwAAAAAABsAFAAAAAAAAAAAAAAAAAAAAAAAAAAAABAAAAAAAAAADAAAAAgABAA2AAAAAgAAABwAAAAcAAAAHAAAAAAAIEEAAAABaAAAAE3PAEOw////tP///wEAAAAUAAAAEAAaAAgABwAMAAAAEAAUABAAAAAAAAABHAAAAAAAoEEcAAAAAgAAAAAACgAIAAUABgAHAAoAAAAADAD//P///wQABAAEAAAACAAIAAYABwAIAAAAAAAMAA==</value>
					</parameter>
					<parameter authoringApp="PremierePro">
					<parameterid>2</parameterid>
					<name></name>
					<IsTimeVarying>false</IsTimeVarying>
					<ParameterControlType>11</ParameterControlType>
					<LowerBound>false</LowerBound>
					<UpperBound>false</UpperBound>
					<value>-91445760000000000,false,0,0,0,0,0,0</value>
					</parameter>
					<parameter authoringApp="PremierePro">
					<parameterid>3</parameterid>
					<name></name>
					<IsTimeVarying>false</IsTimeVarying>
					<value>-91445760000000000,0.5:0.5,0,0,0,0,0,0,5,4,0,0,0,0</value>
					</parameter>
					<parameter authoringApp="PremierePro">
					<parameterid>4</parameterid>
					<name></name>
					<IsTimeVarying>false</IsTimeVarying>
					<ParameterControlType>2</ParameterControlType>
					<LowerBound>0</LowerBound>
					<UpperBound>4000</UpperBound>
					<value>-91445760000000000,100.,0,0,0,0,0,0</value>
					</parameter>
					<parameter authoringApp="PremierePro">
					<parameterid>8</parameterid>
					<name></name>
					<IsTimeVarying>false</IsTimeVarying>
					<ParameterControlType>2</ParameterControlType>
					<LowerBound>0</LowerBound>
					<UpperBound>100</UpperBound>
					<value>-91445760000000000,100.,0,0,0,0,0,0</value>
					</parameter>
					</effect>
					</filter>
					<logginginfo>
					<description></description>
					<scene></scene>
					<shottake></shottake>
					<lognote></lognote>
					<good></good>
					<originalvideofilename></originalvideofilename>
					<originalaudiofilename></originalaudiofilename>
					</logginginfo>
					<colorinfo>
					<lut></lut>
					<lut1></lut1>
					<asc_sop></asc_sop>
					<asc_sat></asc_sat>
					<lut2></lut2>
					</colorinfo>
					<labels>
					</labels>
					</clipitem>
					<clipitem frameBlend="FALSE" id="clipitem-595">
					<masterclipid>masterclip-515</masterclipid>
					<name></name>
					<enabled>TRUE</enabled>
					<duration>2582774</duration>
					<rate>
					
					                                    <timebase>60</timebase>
					                                    <ntsc>TRUE</ntsc>
					                                
					</rate>
					<start>4966</start>
					<end>5026</end>
					<in>4966</in>
					<out>5026</out>
					<pproTicksIn>914456774963789</pproTicksIn>
					<pproTicksOut>914677708529577</pproTicksOut>
					<alphatype>straight</alphatype>
					<pixelaspectratio>square</pixelaspectratio>
					<anamorphic>FALSE</anamorphic>
					<file id="file-514">
					<name></name>
					<mediaSource>GraphicAndType</mediaSource>
					<rate>
					<timebase>60</timebase>
					<ntsc>TRUE</ntsc>
					</rate>
					<timecode>
					<rate>
					<timebase>60</timebase>
					<ntsc>TRUE</ntsc>
					</rate>
					<string>00:00:00:00</string>
					<frame>0</frame>
					<displayformat>NDF</displayformat>
					</timecode>
					<media>
					<video>
					<samplecharacteristics>
					<rate>
					<timebase>60</timebase>
					<ntsc>TRUE</ntsc>
					</rate>
					<width>1080</width>
					<height>1920</height>
					<anamorphic>FALSE</anamorphic>
					<pixelaspectratio>square</pixelaspectratio>
					<fielddominance>none</fielddominance>
					</samplecharacteristics>
					</video>
					</media>
					</file>
					<filter>
					<effect>
					<name></name>
					<effectid>GraphicAndType</effectid>
					<effectcategory>graphic</effectcategory>
					<effecttype>filter</effecttype>
					<mediatype>video</mediatype>
					<pproBypass>false</pproBypass>
					<parameter authoringApp="PremierePro">
					<parameterid>1</parameterid>
					<name></name>
					<hash>025b1101-ead6-0ca2-1feb-caf3000001fc</hash>
					<value>5AEAAAAAAABEMyIRDAAAAAAABgAKAAQABgAAAGQAAAAAAF4ASAAQAAwARABAADwAOAAAAAAAAAAAADQAMwAsAAAAKAAkACAAAAAAAAAAAAAAAAAAHAAAAAAAGgAAAAAAAAAUAAAAAAAAAAAAAAAAAAAAAAAAAAgAAAAAABsABwBeAAAAAAAAAUAAAABQAAAAbAAAAAIAAAAAAAEAAQAAAAAAQEEAAMBAAABAQAAAyEIAAAABIAAAAAIAAAACAAAAAAA2QwCASkTw/v//9P7///j+//8S////AAAAAAEAAAAEAAAAEQAAAEhHUFNvZWlLYWt1cG9wdGFpAAAAAQAAAAwAAAAIAAwABAAIAAgAAAAIAAAAUAAAAA8AAADvvIEAAAAAAAAAAAAAAAAAAAA2ACQAAAAgABwAAAAAABsAFAAAAAAAAAAAAAAAAAAAAAAAAAAAABAAAAAAAAAADAAAAAgABAA2AAAAAgAAABwAAAAcAAAAHAAAAAAAIEEAAAABaAAAAE3PAEOw////tP///wEAAAAUAAAAEAAaAAgABwAMAAAAEAAUABAAAAAAAAABHAAAAAAAoEEcAAAAAgAAAAAACgAIAAUABgAHAAoAAAAADAD//P///wQABAAEAAAACAAIAAYABwAIAAAAAAAMAA==</value>
					</parameter>
					<parameter authoringApp="PremierePro">
					<parameterid>2</parameterid>
					<name></name>
					<IsTimeVarying>false</IsTimeVarying>
					<ParameterControlType>11</ParameterControlType>
					<LowerBound>false</LowerBound>
					<UpperBound>false</UpperBound>
					<value>-91445760000000000,false,0,0,0,0,0,0</value>
					</parameter>
					<parameter authoringApp="PremierePro">
					<parameterid>3</parameterid>
					<name></name>
					<IsTimeVarying>false</IsTimeVarying>
					<value>-91445760000000000,0.5:0.5,0,0,0,0,0,0,5,4,0,0,0,0</value>
					</parameter>
					<parameter authoringApp="PremierePro">
					<parameterid>4</parameterid>
					<name></name>
					<IsTimeVarying>false</IsTimeVarying>
					<ParameterControlType>2</ParameterControlType>
					<LowerBound>0</LowerBound>
					<UpperBound>4000</UpperBound>
					<value>-91445760000000000,100.,0,0,0,0,0,0</value>
					</parameter>
					<parameter authoringApp="PremierePro">
					<parameterid>8</parameterid>
					<name></name>
					<IsTimeVarying>false</IsTimeVarying>
					<ParameterControlType>2</ParameterControlType>
					<LowerBound>0</LowerBound>
					<UpperBound>100</UpperBound>
					<value>-91445760000000000,100.,0,0,0,0,0,0</value>
					</parameter>
					</effect>
					</filter>
					<logginginfo>
					<description></description>
					<scene></scene>
					<shottake></shottake>
					<lognote></lognote>
					<good></good>
					<originalvideofilename></originalvideofilename>
					<originalaudiofilename></originalaudiofilename>
					</logginginfo>
					<colorinfo>
					<lut></lut>
					<lut1></lut1>
					<asc_sop></asc_sop>
					<asc_sat></asc_sat>
					<lut2></lut2>
					</colorinfo>
					<labels>
					</labels>
					</clipitem>
					<clipitem frameBlend="FALSE" id="clipitem-600">
					<masterclipid>masterclip-520</masterclipid>
					<name></name>
					<enabled>TRUE</enabled>
					<duration>2582774</duration>
					<rate>
					
					                                    <timebase>60</timebase>
					                                    <ntsc>TRUE</ntsc>
					                                
					</rate>
					<start>5026</start>
					<end>5086</end>
					<in>5026</in>
					<out>5086</out>
					<pproTicksIn>914456774963789</pproTicksIn>
					<pproTicksOut>914677708529577</pproTicksOut>
					<alphatype>straight</alphatype>
					<pixelaspectratio>square</pixelaspectratio>
					<anamorphic>FALSE</anamorphic>
					<file id="file-519">
					<name></name>
					<mediaSource>GraphicAndType</mediaSource>
					<rate>
					<timebase>60</timebase>
					<ntsc>TRUE</ntsc>
					</rate>
					<timecode>
					<rate>
					<timebase>60</timebase>
					<ntsc>TRUE</ntsc>
					</rate>
					<string>00:00:00:00</string>
					<frame>0</frame>
					<displayformat>NDF</displayformat>
					</timecode>
					<media>
					<video>
					<samplecharacteristics>
					<rate>
					<timebase>60</timebase>
					<ntsc>TRUE</ntsc>
					</rate>
					<width>1080</width>
					<height>1920</height>
					<anamorphic>FALSE</anamorphic>
					<pixelaspectratio>square</pixelaspectratio>
					<fielddominance>none</fielddominance>
					</samplecharacteristics>
					</video>
					</media>
					</file>
					<filter>
					<effect>
					<name></name>
					<effectid>GraphicAndType</effectid>
					<effectcategory>graphic</effectcategory>
					<effecttype>filter</effecttype>
					<mediatype>video</mediatype>
					<pproBypass>false</pproBypass>
					<parameter authoringApp="PremierePro">
					<parameterid>1</parameterid>
					<name></name>
					<hash>025b1101-ead6-0ca2-1feb-caf3000001fc</hash>
					<value>5AEAAAAAAABEMyIRDAAAAAAABgAKAAQABgAAAGQAAAAAAF4ASAAQAAwARABAADwAOAAAAAAAAAAAADQAMwAsAAAAKAAkACAAAAAAAAAAAAAAAAAAHAAAAAAAGgAAAAAAAAAUAAAAAAAAAAAAAAAAAAAAAAAAAAgAAAAAABsABwBeAAAAAAAAAUAAAABQAAAAbAAAAAIAAAAAAAEAAQAAAAAAQEEAAMBAAABAQAAAyEIAAAABIAAAAAIAAAACAAAAAAA2QwCASkTw/v//9P7///j+//8S////AAAAAAEAAAAEAAAAEQAAAEhHUFNvZWlLYWt1cG9wdGFpAAAAAQAAAAwAAAAIAAwABAAIAAgAAAAIAAAAUAAAAA8AAADvvIEAAAAAAAAAAAAAAAAAAAA2ACQAAAAgABwAAAAAABsAFAAAAAAAAAAAAAAAAAAAAAAAAAAAABAAAAAAAAAADAAAAAgABAA2AAAAAgAAABwAAAAcAAAAHAAAAAAAIEEAAAABaAAAAE3PAEOw////tP///wEAAAAUAAAAEAAaAAgABwAMAAAAEAAUABAAAAAAAAABHAAAAAAAoEEcAAAAAgAAAAAACgAIAAUABgAHAAoAAAAADAD//P///wQABAAEAAAACAAIAAYABwAIAAAAAAAMAA==</value>
					</parameter>
					<parameter authoringApp="PremierePro">
					<parameterid>2</parameterid>
					<name></name>
					<IsTimeVarying>false</IsTimeVarying>
					<ParameterControlType>11</ParameterControlType>
					<LowerBound>false</LowerBound>
					<UpperBound>false</UpperBound>
					<value>-91445760000000000,false,0,0,0,0,0,0</value>
					</parameter>
					<parameter authoringApp="PremierePro">
					<parameterid>3</parameterid>
					<name></name>
					<IsTimeVarying>false</IsTimeVarying>
					<value>-91445760000000000,0.5:0.5,0,0,0,0,0,0,5,4,0,0,0,0</value>
					</parameter>
					<parameter authoringApp="PremierePro">
					<parameterid>4</parameterid>
					<name></name>
					<IsTimeVarying>false</IsTimeVarying>
					<ParameterControlType>2</ParameterControlType>
					<LowerBound>0</LowerBound>
					<UpperBound>4000</UpperBound>
					<value>-91445760000000000,100.,0,0,0,0,0,0</value>
					</parameter>
					<parameter authoringApp="PremierePro">
					<parameterid>8</parameterid>
					<name></name>
					<IsTimeVarying>false</IsTimeVarying>
					<ParameterControlType>2</ParameterControlType>
					<LowerBound>0</LowerBound>
					<UpperBound>100</UpperBound>
					<value>-91445760000000000,100.,0,0,0,0,0,0</value>
					</parameter>
					</effect>
					</filter>
					<logginginfo>
					<description></description>
					<scene></scene>
					<shottake></shottake>
					<lognote></lognote>
					<good></good>
					<originalvideofilename></originalvideofilename>
					<originalaudiofilename></originalaudiofilename>
					</logginginfo>
					<colorinfo>
					<lut></lut>
					<lut1></lut1>
					<asc_sop></asc_sop>
					<asc_sat></asc_sat>
					<lut2></lut2>
					</colorinfo>
					<labels>
					</labels>
					</clipitem>
					<clipitem frameBlend="FALSE" id="clipitem-107">
					<masterclipid>masterclip-27</masterclipid>
					<name></name>
					<enabled>TRUE</enabled>
					<duration>2582774</duration>
					<rate>
					
					                                    <timebase>60</timebase>
					                                    <ntsc>TRUE</ntsc>
					                                
					</rate>
					<start>5098</start>
					<end>5278</end>
					<in>5098</in>
					<out>5278</out>
					<pproTicksIn>914456774963789</pproTicksIn>
					<pproTicksOut>914677708529577</pproTicksOut>
					<alphatype>straight</alphatype>
					<pixelaspectratio>square</pixelaspectratio>
					<anamorphic>FALSE</anamorphic>
					<file id="file-26">
					<name></name>
					<mediaSource>GraphicAndType</mediaSource>
					<rate>
					<timebase>60</timebase>
					<ntsc>TRUE</ntsc>
					</rate>
					<timecode>
					<rate>
					<timebase>60</timebase>
					<ntsc>TRUE</ntsc>
					</rate>
					<string>00:00:00:00</string>
					<frame>0</frame>
					<displayformat>NDF</displayformat>
					</timecode>
					<media>
					<video>
					<samplecharacteristics>
					<rate>
					<timebase>60</timebase>
					<ntsc>TRUE</ntsc>
					</rate>
					<width>1080</width>
					<height>1920</height>
					<anamorphic>FALSE</anamorphic>
					<pixelaspectratio>square</pixelaspectratio>
					<fielddominance>none</fielddominance>
					</samplecharacteristics>
					</video>
					</media>
					</file>
					<filter>
					<effect>
					<name></name>
					<effectid>GraphicAndType</effectid>
					<effectcategory>graphic</effectcategory>
					<effecttype>filter</effecttype>
					<mediatype>video</mediatype>
					<pproBypass>false</pproBypass>
					<parameter authoringApp="PremierePro">
					<parameterid>1</parameterid>
					<name></name>
					<hash>025b1101-ead6-0ca2-1feb-caf3000001fc</hash>
					<value>5AEAAAAAAABEMyIRDAAAAAAABgAKAAQABgAAAGQAAAAAAF4ASAAQAAwARABAADwAOAAAAAAAAAAAADQAMwAsAAAAKAAkACAAAAAAAAAAAAAAAAAAHAAAAAAAGgAAAAAAAAAUAAAAAAAAAAAAAAAAAAAAAAAAAAgAAAAAABsABwBeAAAAAAAAAUAAAABQAAAAbAAAAAIAAAAAAAEAAQAAAAAAQEEAAMBAAABAQAAAyEIAAAABIAAAAAIAAAACAAAAAAA2QwCASkTw/v//9P7///j+//8S////AAAAAAEAAAAEAAAAEQAAAEhHUFNvZWlLYWt1cG9wdGFpAAAAAQAAAAwAAAAIAAwABAAIAAgAAAAIAAAAUAAAAA8AAADlhajlipvjgarjgpPjgaAAAAA2ACQAAAAgABwAAAAAABsAFAAAAAAAAAAAAAAAAAAAAAAAAAAAABAAAAAAAAAADAAAAAgABAA2AAAAAgAAABwAAAAcAAAAHAAAAAAAIEEAAAABaAAAAE3PAEOw////tP///wEAAAAUAAAAEAAaAAgABwAMAAAAEAAUABAAAAAAAAABHAAAAAAAoEEcAAAAAgAAAAAACgAIAAUABgAHAAoAAAAADAD//P///wQABAAEAAAACAAIAAYABwAIAAAAAAAMAA==</value>
					</parameter>
					<parameter authoringApp="PremierePro">
					<parameterid>2</parameterid>
					<name></name>
					<IsTimeVarying>false</IsTimeVarying>
					<ParameterControlType>11</ParameterControlType>
					<LowerBound>false</LowerBound>
					<UpperBound>false</UpperBound>
					<value>-91445760000000000,false,0,0,0,0,0,0</value>
					</parameter>
					<parameter authoringApp="PremierePro">
					<parameterid>3</parameterid>
					<name></name>
					<IsTimeVarying>false</IsTimeVarying>
					<value>-91445760000000000,0.5:0.5,0,0,0,0,0,0,5,4,0,0,0,0</value>
					</parameter>
					<parameter authoringApp="PremierePro">
					<parameterid>4</parameterid>
					<name></name>
					<IsTimeVarying>false</IsTimeVarying>
					<ParameterControlType>2</ParameterControlType>
					<LowerBound>0</LowerBound>
					<UpperBound>4000</UpperBound>
					<value>-91445760000000000,100.,0,0,0,0,0,0</value>
					</parameter>
					<parameter authoringApp="PremierePro">
					<parameterid>8</parameterid>
					<name></name>
					<IsTimeVarying>false</IsTimeVarying>
					<ParameterControlType>2</ParameterControlType>
					<LowerBound>0</LowerBound>
					<UpperBound>100</UpperBound>
					<value>-91445760000000000,100.,0,0,0,0,0,0</value>
					</parameter>
					</effect>
					</filter>
					<logginginfo>
					<description></description>
					<scene></scene>
					<shottake></shottake>
					<lognote></lognote>
					<good></good>
					<originalvideofilename></originalvideofilename>
					<originalaudiofilename></originalaudiofilename>
					</logginginfo>
					<colorinfo>
					<lut></lut>
					<lut1></lut1>
					<asc_sop></asc_sop>
					<asc_sat></asc_sat>
					<lut2></lut2>
					</colorinfo>
					<labels>
					</labels>
					</clipitem>
					<clipitem frameBlend="FALSE" id="clipitem-108">
					<masterclipid>masterclip-28</masterclipid>
					<name></name>
					<enabled>TRUE</enabled>
					<duration>2582774</duration>
					<rate>
					
					                                    <timebase>60</timebase>
					                                    <ntsc>TRUE</ntsc>
					                                
					</rate>
					<start>5278</start>
					<end>5518</end>
					<in>5278</in>
					<out>5518</out>
					<pproTicksIn>914456774963789</pproTicksIn>
					<pproTicksOut>914677708529577</pproTicksOut>
					<alphatype>straight</alphatype>
					<pixelaspectratio>square</pixelaspectratio>
					<anamorphic>FALSE</anamorphic>
					<file id="file-27">
					<name></name>
					<mediaSource>GraphicAndType</mediaSource>
					<rate>
					<timebase>60</timebase>
					<ntsc>TRUE</ntsc>
					</rate>
					<timecode>
					<rate>
					<timebase>60</timebase>
					<ntsc>TRUE</ntsc>
					</rate>
					<string>00:00:00:00</string>
					<frame>0</frame>
					<displayformat>NDF</displayformat>
					</timecode>
					<media>
					<video>
					<samplecharacteristics>
					<rate>
					<timebase>60</timebase>
					<ntsc>TRUE</ntsc>
					</rate>
					<width>1080</width>
					<height>1920</height>
					<anamorphic>FALSE</anamorphic>
					<pixelaspectratio>square</pixelaspectratio>
					<fielddominance>none</fielddominance>
					</samplecharacteristics>
					</video>
					</media>
					</file>
					<filter>
					<effect>
					<name> </name>
					<effectid>GraphicAndType</effectid>
					<effectcategory>graphic</effectcategory>
					<effecttype>filter</effecttype>
					<mediatype>video</mediatype>
					<pproBypass>false</pproBypass>
					<parameter authoringApp="PremierePro">
					<parameterid>1</parameterid>
					<name></name>
					<hash>025b1101-ead6-0ca2-1feb-caf3000001fc</hash>
					<value>5AEAAAAAAABEMyIRDAAAAAAABgAKAAQABgAAAGQAAAAAAF4ASAAQAAwARABAADwAOAAAAAAAAAAAADQAMwAsAAAAKAAkACAAAAAAAAAAAAAAAAAAHAAAAAAAGgAAAAAAAAAUAAAAAAAAAAAAAAAAAAAAAAAAAAgAAAAAABsABwBeAAAAAAAAAUAAAABQAAAAbAAAAAIAAAAAAAEAAQAAAAAAQEEAAMBAAABAQAAAyEIAAAABIAAAAAIAAAACAAAAAAA2QwCASkTw/v//9P7///j+//8S////AAAAAAEAAAAEAAAAEQAAAEhHUFNvZWlLYWt1cG9wdGFpAAAAAQAAAAwAAAAIAAwABAAIAAgAAAAIAAAAUAAAAA0AAADlhajlipvjgacg44ORgpMAAAA2ACQAAAAgABwAAAAAABsAFAAAAAAAAAAAAAAAAAAAAAAAAAAAABAAAAAAAAAADAAAAAgABAA2AAAAAgAAABwAAAAcAAAAHAAAAAAAIEEAAAABaAAAAE3PAEOw////tP///wEAAAAUAAAAEAAaAAgABwAMAAAAEAAUABAAAAAAAAABHAAAAAAAoEEcAAAAAgAAAAAACgAIAAUABgAHAAoAAAAADAD//P///wQABAAEAAAACAAIAAYABwAIAAAAAAAMAA==</value>
					</parameter>
					<parameter authoringApp="PremierePro">
					<parameterid>2</parameterid>
					<name></name>
					<IsTimeVarying>false</IsTimeVarying>
					<ParameterControlType>11</ParameterControlType>
					<LowerBound>false</LowerBound>
					<UpperBound>false</UpperBound>
					<value>-91445760000000000,false,0,0,0,0,0,0</value>
					</parameter>
					<parameter authoringApp="PremierePro">
					<parameterid>3</parameterid>
					<name></name>
					<IsTimeVarying>false</IsTimeVarying>
					<value>-91445760000000000,0.5:0.5,0,0,0,0,0,0,5,4,0,0,0,0</value>
					</parameter>
					<parameter authoringApp="PremierePro">
					<parameterid>4</parameterid>
					<name></name>
					<IsTimeVarying>false</IsTimeVarying>
					<ParameterControlType>2</ParameterControlType>
					<LowerBound>0</LowerBound>
					<UpperBound>4000</UpperBound>
					<value>-91445760000000000,100.,0,0,0,0,0,0</value>
					</parameter>
					<parameter authoringApp="PremierePro">
					<parameterid>8</parameterid>
					<name></name>
					<IsTimeVarying>false</IsTimeVarying>
					<ParameterControlType>2</ParameterControlType>
					<LowerBound>0</LowerBound>
					<UpperBound>100</UpperBound>
					<value>-91445760000000000,100.,0,0,0,0,0,0</value>
					</parameter>
					</effect>
					</filter>
					<logginginfo>
					<description></description>
					<scene></scene>
					<shottake></shottake>
					<lognote></lognote>
					<good></good>
					<originalvideofilename></originalvideofilename>
					<originalaudiofilename></originalaudiofilename>
					</logginginfo>
					<colorinfo>
					<lut></lut>
					<lut1></lut1>
					<asc_sop></asc_sop>
					<asc_sat></asc_sat>
					<lut2></lut2>
					</colorinfo>
					<labels>
					</labels>
					</clipitem>
					<clipitem frameBlend="FALSE" id="clipitem-109">
					<masterclipid>masterclip-29</masterclipid>
					<name></name>
					<enabled>TRUE</enabled>
					<duration>2582774</duration>
					<rate>
					
					                                    <timebase>60</timebase>
					                                    <ntsc>TRUE</ntsc>
					                                
					</rate>
					<start>5518</start>
					<end>5698</end>
					<in>5518</in>
					<out>5698</out>
					<pproTicksIn>914456774963789</pproTicksIn>
					<pproTicksOut>914677708529577</pproTicksOut>
					<alphatype>straight</alphatype>
					<pixelaspectratio>square</pixelaspectratio>
					<anamorphic>FALSE</anamorphic>
					<file id="file-28">
					<name></name>
					<mediaSource>GraphicAndType</mediaSource>
					<rate>
					<timebase>60</timebase>
					<ntsc>TRUE</ntsc>
					</rate>
					<timecode>
					<rate>
					<timebase>60</timebase>
					<ntsc>TRUE</ntsc>
					</rate>
					<string>00:00:00:00</string>
					<frame>0</frame>
					<displayformat>NDF</displayformat>
					</timecode>
					<media>
					<video>
					<samplecharacteristics>
					<rate>
					<timebase>60</timebase>
					<ntsc>TRUE</ntsc>
					</rate>
					<width>1080</width>
					<height>1920</height>
					<anamorphic>FALSE</anamorphic>
					<pixelaspectratio>square</pixelaspectratio>
					<fielddominance>none</fielddominance>
					</samplecharacteristics>
					</video>
					</media>
					</file>
					<filter>
					<effect>
					<name></name>
					<effectid>GraphicAndType</effectid>
					<effectcategory>graphic</effectcategory>
					<effecttype>filter</effecttype>
					<mediatype>video</mediatype>
					<pproBypass>false</pproBypass>
					<parameter authoringApp="PremierePro">
					<parameterid>1</parameterid>
					<name></name>
					<hash>025b1101-ead6-0ca2-1feb-caf3000001fc</hash>
					<value>5AEAAAAAAABEMyIRDAAAAAAABgAKAAQABgAAAGQAAAAAAF4ASAAQAAwARABAADwAOAAAAAAAAAAAADQAMwAsAAAAKAAkACAAAAAAAAAAAAAAAAAAHAAAAAAAGgAAAAAAAAAUAAAAAAAAAAAAAAAAAAAAAAAAAAgAAAAAABsABwBeAAAAAAAAAUAAAABQAAAAbAAAAAIAAAAAAAEAAQAAAAAAQEEAAMBAAABAQAAAyEIAAAABIAAAAAIAAAACAAAAAAA2QwCASkTw/v//9P7///j+//8S////AAAAAAEAAAAEAAAAEQAAAEhHUFNvZWlLYWt1cG9wdGFpAAAAAQAAAAwAAAAIAAwABAAIAAgAAAAIAAAAUAAAAA8AAADjg5Hjg7zjgYznm67mjIcAAAA2ACQAAAAgABwAAAAAABsAFAAAAAAAAAAAAAAAAAAAAAAAAAAAABAAAAAAAAAADAAAAAgABAA2AAAAAgAAABwAAAAcAAAAHAAAAAAAIEEAAAABaAAAAE3PAEOw////tP///wEAAAAUAAAAEAAaAAgABwAMAAAAEAAUABAAAAAAAAABHAAAAAAAoEEcAAAAAgAAAAAACgAIAAUABgAHAAoAAAAADAD//P///wQABAAEAAAACAAIAAYABwAIAAAAAAAMAA==</value>
					</parameter>
					<parameter authoringApp="PremierePro">
					<parameterid>2</parameterid>
					<name></name>
					<IsTimeVarying>false</IsTimeVarying>
					<ParameterControlType>11</ParameterControlType>
					<LowerBound>false</LowerBound>
					<UpperBound>false</UpperBound>
					<value>-91445760000000000,false,0,0,0,0,0,0</value>
					</parameter>
					<parameter authoringApp="PremierePro">
					<parameterid>3</parameterid>
					<name></name>
					<IsTimeVarying>false</IsTimeVarying>
					<value>-91445760000000000,0.5:0.5,0,0,0,0,0,0,5,4,0,0,0,0</value>
					</parameter>
					<parameter authoringApp="PremierePro">
					<parameterid>4</parameterid>
					<name></name>
					<IsTimeVarying>false</IsTimeVarying>
					<ParameterControlType>2</ParameterControlType>
					<LowerBound>0</LowerBound>
					<UpperBound>4000</UpperBound>
					<value>-91445760000000000,100.,0,0,0,0,0,0</value>
					</parameter>
					<parameter authoringApp="PremierePro">
					<parameterid>8</parameterid>
					<name></name>
					<IsTimeVarying>false</IsTimeVarying>
					<ParameterControlType>2</ParameterControlType>
					<LowerBound>0</LowerBound>
					<UpperBound>100</UpperBound>
					<value>-91445760000000000,100.,0,0,0,0,0,0</value>
					</parameter>
					</effect>
					</filter>
					<logginginfo>
					<description></description>
					<scene></scene>
					<shottake></shottake>
					<lognote></lognote>
					<good></good>
					<originalvideofilename></originalvideofilename>
					<originalaudiofilename></originalaudiofilename>
					</logginginfo>
					<colorinfo>
					<lut></lut>
					<lut1></lut1>
					<asc_sop></asc_sop>
					<asc_sat></asc_sat>
					<lut2></lut2>
					</colorinfo>
					<labels>
					</labels>
					</clipitem>
					<clipitem frameBlend="FALSE" id="clipitem-663">
					<masterclipid>masterclip-583</masterclipid>
					<name></name>
					<enabled>TRUE</enabled>
					<duration>2582774</duration>
					<rate>
					
					                                    <timebase>60</timebase>
					                                    <ntsc>TRUE</ntsc>
					                                
					</rate>
					<start>5698</start>
					<end>5758</end>
					<in>5698</in>
					<out>5758</out>
					<pproTicksIn>914456774963789</pproTicksIn>
					<pproTicksOut>914677708529577</pproTicksOut>
					<alphatype>straight</alphatype>
					<pixelaspectratio>square</pixelaspectratio>
					<anamorphic>FALSE</anamorphic>
					<file id="file-582">
					<name></name>
					<mediaSource>GraphicAndType</mediaSource>
					<rate>
					<timebase>60</timebase>
					<ntsc>TRUE</ntsc>
					</rate>
					<timecode>
					<rate>
					<timebase>60</timebase>
					<ntsc>TRUE</ntsc>
					</rate>
					<string>00:00:00:00</string>
					<frame>0</frame>
					<displayformat>NDF</displayformat>
					</timecode>
					<media>
					<video>
					<samplecharacteristics>
					<rate>
					<timebase>60</timebase>
					<ntsc>TRUE</ntsc>
					</rate>
					<width>1080</width>
					<height>1920</height>
					<anamorphic>FALSE</anamorphic>
					<pixelaspectratio>square</pixelaspectratio>
					<fielddominance>none</fielddominance>
					</samplecharacteristics>
					</video>
					</media>
					</file>
					<filter>
					<effect>
					<name></name>
					<effectid>GraphicAndType</effectid>
					<effectcategory>graphic</effectcategory>
					<effecttype>filter</effecttype>
					<mediatype>video</mediatype>
					<pproBypass>false</pproBypass>
					<parameter authoringApp="PremierePro">
					<parameterid>1</parameterid>
					<name></name>
					<hash>025b1101-ead6-0ca2-1feb-caf3000001fc</hash>
					<value>5AEAAAAAAABEMyIRDAAAAAAABgAKAAQABgAAAGQAAAAAAF4ASAAQAAwARABAADwAOAAAAAAAAAAAADQAMwAsAAAAKAAkACAAAAAAAAAAAAAAAAAAHAAAAAAAGgAAAAAAAAAUAAAAAAAAAAAAAAAAAAAAAAAAAAgAAAAAABsABwBeAAAAAAAAAUAAAABQAAAAbAAAAAIAAAAAAAEAAQAAAAAAQEEAAMBAAABAQAAAyEIAAAABIAAAAAIAAAACAAAAAAA2QwCASkTw/v//9P7///j+//8S////AAAAAAEAAAAEAAAAEQAAAEhHUFNvZWlLYWt1cG9wdGFpAAAAAQAAAAwAAAAIAAwABAAIAAgAAAAIAAAAUAAAAA8AAADvvIEAAAAAAAAAAAAAAAAAAAA2ACQAAAAgABwAAAAAABsAFAAAAAAAAAAAAAAAAAAAAAAAAAAAABAAAAAAAAAADAAAAAgABAA2AAAAAgAAABwAAAAcAAAAHAAAAAAAIEEAAAABaAAAAE3PAEOw////tP///wEAAAAUAAAAEAAaAAgABwAMAAAAEAAUABAAAAAAAAABHAAAAAAAoEEcAAAAAgAAAAAACgAIAAUABgAHAAoAAAAADAD//P///wQABAAEAAAACAAIAAYABwAIAAAAAAAMAA==</value>
					</parameter>
					<parameter authoringApp="PremierePro">
					<parameterid>2</parameterid>
					<name></name>
					<IsTimeVarying>false</IsTimeVarying>
					<ParameterControlType>11</ParameterControlType>
					<LowerBound>false</LowerBound>
					<UpperBound>false</UpperBound>
					<value>-91445760000000000,false,0,0,0,0,0,0</value>
					</parameter>
					<parameter authoringApp="PremierePro">
					<parameterid>3</parameterid>
					<name></name>
					<IsTimeVarying>false</IsTimeVarying>
					<value>-91445760000000000,0.5:0.5,0,0,0,0,0,0,5,4,0,0,0,0</value>
					</parameter>
					<parameter authoringApp="PremierePro">
					<parameterid>4</parameterid>
					<name></name>
					<IsTimeVarying>false</IsTimeVarying>
					<ParameterControlType>2</ParameterControlType>
					<LowerBound>0</LowerBound>
					<UpperBound>4000</UpperBound>
					<value>-91445760000000000,100.,0,0,0,0,0,0</value>
					</parameter>
					<parameter authoringApp="PremierePro">
					<parameterid>8</parameterid>
					<name></name>
					<IsTimeVarying>false</IsTimeVarying>
					<ParameterControlType>2</ParameterControlType>
					<LowerBound>0</LowerBound>
					<UpperBound>100</UpperBound>
					<value>-91445760000000000,100.,0,0,0,0,0,0</value>
					</parameter>
					</effect>
					</filter>
					<logginginfo>
					<description></description>
					<scene></scene>
					<shottake></shottake>
					<lognote></lognote>
					<good></good>
					<originalvideofilename></originalvideofilename>
					<originalaudiofilename></originalaudiofilename>
					</logginginfo>
					<colorinfo>
					<lut></lut>
					<lut1></lut1>
					<asc_sop></asc_sop>
					<asc_sat></asc_sat>
					<lut2></lut2>
					</colorinfo>
					<labels>
					</labels>
					</clipitem>
					<clipitem id="clipitem-666"/>
					                        </track>
					                        <track TL.SQTrackShy="0" TL.SQTrackExpandedHeight="25" TL.SQTrackExpanded="0" MZ.TrackTargeted="0">
					<clipitem frameBlend="FALSE" id="clipitem-667">
					<masterclipid>masterclip-587</masterclipid>
					<name></name>
					<enabled>TRUE</enabled>
					<duration>2582774</duration>
					<rate>
					
					                                    <timebase>60</timebase>
					                                    <ntsc>TRUE</ntsc>
					                                
					</rate>
					<start>5764</start>
					<end>5824</end>
					<in>5764</in>
					<out>5824</out>
					<pproTicksIn>914456774963789</pproTicksIn>
					<pproTicksOut>914677708529577</pproTicksOut>
					<alphatype>straight</alphatype>
					<pixelaspectratio>square</pixelaspectratio>
					<anamorphic>FALSE</anamorphic>
					<file id="file-586">
					<name></name>
					<mediaSource>GraphicAndType</mediaSource>
					<rate>
					<timebase>60</timebase>
					<ntsc>TRUE</ntsc>
					</rate>
					<timecode>
					<rate>
					<timebase>60</timebase>
					<ntsc>TRUE</ntsc>
					</rate>
					<string>00:00:00:00</string>
					<frame>0</frame>
					<displayformat>NDF</displayformat>
					</timecode>
					<media>
					<video>
					<samplecharacteristics>
					<rate>
					<timebase>60</timebase>
					<ntsc>TRUE</ntsc>
					</rate>
					<width>1080</width>
					<height>1920</height>
					<anamorphic>FALSE</anamorphic>
					<pixelaspectratio>square</pixelaspectratio>
					<fielddominance>none</fielddominance>
					</samplecharacteristics>
					</video>
					</media>
					</file>
					<filter>
					<effect>
					<name></name>
					<effectid>GraphicAndType</effectid>
					<effectcategory>graphic</effectcategory>
					<effecttype>filter</effecttype>
					<mediatype>video</mediatype>
					<pproBypass>false</pproBypass>
					<parameter authoringApp="PremierePro">
					<parameterid>1</parameterid>
					<name></name>
					<hash>025b1101-ead6-0ca2-1feb-caf3000001fc</hash>
					<value>5AEAAAAAAABEMyIRDAAAAAAABgAKAAQABgAAAGQAAAAAAF4ASAAQAAwARABAADwAOAAAAAAAAAAAADQAMwAsAAAAKAAkACAAAAAAAAAAAAAAAAAAHAAAAAAAGgAAAAAAAAAUAAAAAAAAAAAAAAAAAAAAAAAAAAgAAAAAABsABwBeAAAAAAAAAUAAAABQAAAAbAAAAAIAAAAAAAEAAQAAAAAAQEEAAMBAAABAQAAAyEIAAAABIAAAAAIAAAACAAAAAAA2QwCASkTw/v//9P7///j+//8S////AAAAAAEAAAAEAAAAEQAAAEhHUFNvZWlLYWt1cG9wdGFpAAAAAQAAAAwAAAAIAAwABAAIAAgAAAAIAAAAUAAAAA8AAADvvIEAAAAAAAAAAAAAAAAAAAA2ACQAAAAgABwAAAAAABsAFAAAAAAAAAAAAAAAAAAAAAAAAAAAABAAAAAAAAAADAAAAAgABAA2AAAAAgAAABwAAAAcAAAAHAAAAAAAIEEAAAABaAAAAE3PAEOw////tP///wEAAAAUAAAAEAAaAAgABwAMAAAAEAAUABAAAAAAAAABHAAAAAAAoEEcAAAAAgAAAAAACgAIAAUABgAHAAoAAAAADAD//P///wQABAAEAAAACAAIAAYABwAIAAAAAAAMAA==</value>
					</parameter>
					<parameter authoringApp="PremierePro">
					<parameterid>2</parameterid>
					<name></name>
					<IsTimeVarying>false</IsTimeVarying>
					<ParameterControlType>11</ParameterControlType>
					<LowerBound>false</LowerBound>
					<UpperBound>false</UpperBound>
					<value>-91445760000000000,false,0,0,0,0,0,0</value>
					</parameter>
					<parameter authoringApp="PremierePro">
					<parameterid>3</parameterid>
					<name></name>
					<IsTimeVarying>false</IsTimeVarying>
					<value>-91445760000000000,0.5:0.5,0,0,0,0,0,0,5,4,0,0,0,0</value>
					</parameter>
					<parameter authoringApp="PremierePro">
					<parameterid>4</parameterid>
					<name></name>
					<IsTimeVarying>false</IsTimeVarying>
					<ParameterControlType>2</ParameterControlType>
					<LowerBound>0</LowerBound>
					<UpperBound>4000</UpperBound>
					<value>-91445760000000000,100.,0,0,0,0,0,0</value>
					</parameter>
					<parameter authoringApp="PremierePro">
					<parameterid>8</parameterid>
					<name></name>
					<IsTimeVarying>false</IsTimeVarying>
					<ParameterControlType>2</ParameterControlType>
					<LowerBound>0</LowerBound>
					<UpperBound>100</UpperBound>
					<value>-91445760000000000,100.,0,0,0,0,0,0</value>
					</parameter>
					</effect>
					</filter>
					<logginginfo>
					<description></description>
					<scene></scene>
					<shottake></shottake>
					<lognote></lognote>
					<good></good>
					<originalvideofilename></originalvideofilename>
					<originalaudiofilename></originalaudiofilename>
					</logginginfo>
					<colorinfo>
					<lut></lut>
					<lut1></lut1>
					<asc_sop></asc_sop>
					<asc_sat></asc_sat>
					<lut2></lut2>
					</colorinfo>
					<labels>
					</labels>
					</clipitem>
					<clipitem id="clipitem-676"/>
					                        </track>
					                        <track TL.SQTrackShy="0" TL.SQTrackExpandedHeight="25" TL.SQTrackExpanded="0" MZ.TrackTargeted="0">
					<clipitem frameBlend="FALSE" id="clipitem-677">
					<masterclipid>masterclip-597</masterclipid>
					<name></name>
					<enabled>TRUE</enabled>
					<duration>2582774</duration>
					<rate>
					
					                                    <timebase>60</timebase>
					                                    <ntsc>TRUE</ntsc>
					                                
					</rate>
					<start>5830</start>
					<end>5890</end>
					<in>5830</in>
					<out>5890</out>
					<pproTicksIn>914456774963789</pproTicksIn>
					<pproTicksOut>914677708529577</pproTicksOut>
					<alphatype>straight</alphatype>
					<pixelaspectratio>square</pixelaspectratio>
					<anamorphic>FALSE</anamorphic>
					<file id="file-596">
					<name></name>
					<mediaSource>GraphicAndType</mediaSource>
					<rate>
					<timebase>60</timebase>
					<ntsc>TRUE</ntsc>
					</rate>
					<timecode>
					<rate>
					<timebase>60</timebase>
					<ntsc>TRUE</ntsc>
					</rate>
					<string>00:00:00:00</string>
					<frame>0</frame>
					<displayformat>NDF</displayformat>
					</timecode>
					<media>
					<video>
					<samplecharacteristics>
					<rate>
					<timebase>60</timebase>
					<ntsc>TRUE</ntsc>
					</rate>
					<width>1080</width>
					<height>1920</height>
					<anamorphic>FALSE</anamorphic>
					<pixelaspectratio>square</pixelaspectratio>
					<fielddominance>none</fielddominance>
					</samplecharacteristics>
					</video>
					</media>
					</file>
					<filter>
					<effect>
					<name></name>
					<effectid>GraphicAndType</effectid>
					<effectcategory>graphic</effectcategory>
					<effecttype>filter</effecttype>
					<mediatype>video</mediatype>
					<pproBypass>false</pproBypass>
					<parameter authoringApp="PremierePro">
					<parameterid>1</parameterid>
					<name></name>
					<hash>025b1101-ead6-0ca2-1feb-caf3000001fc</hash>
					<value>5AEAAAAAAABEMyIRDAAAAAAABgAKAAQABgAAAGQAAAAAAF4ASAAQAAwARABAADwAOAAAAAAAAAAAADQAMwAsAAAAKAAkACAAAAAAAAAAAAAAAAAAHAAAAAAAGgAAAAAAAAAUAAAAAAAAAAAAAAAAAAAAAAAAAAgAAAAAABsABwBeAAAAAAAAAUAAAABQAAAAbAAAAAIAAAAAAAEAAQAAAAAAQEEAAMBAAABAQAAAyEIAAAABIAAAAAIAAAACAAAAAAA2QwCASkTw/v//9P7///j+//8S////AAAAAAEAAAAEAAAAEQAAAEhHUFNvZWlLYWt1cG9wdGFpAAAAAQAAAAwAAAAIAAwABAAIAAgAAAAIAAAAUAAAAA8AAADvvIEAAAAAAAAAAAAAAAAAAAA2ACQAAAAgABwAAAAAABsAFAAAAAAAAAAAAAAAAAAAAAAAAAAAABAAAAAAAAAADAAAAAgABAA2AAAAAgAAABwAAAAcAAAAHAAAAAAAIEEAAAABaAAAAE3PAEOw////tP///wEAAAAUAAAAEAAaAAgABwAMAAAAEAAUABAAAAAAAAABHAAAAAAAoEEcAAAAAgAAAAAACgAIAAUABgAHAAoAAAAADAD//P///wQABAAEAAAACAAIAAYABwAIAAAAAAAMAA==</value>
					</parameter>
					<parameter authoringApp="PremierePro">
					<parameterid>2</parameterid>
					<name></name>
					<IsTimeVarying>false</IsTimeVarying>
					<ParameterControlType>11</ParameterControlType>
					<LowerBound>false</LowerBound>
					<UpperBound>false</UpperBound>
					<value>-91445760000000000,false,0,0,0,0,0,0</value>
					</parameter>
					<parameter authoringApp="PremierePro">
					<parameterid>3</parameterid>
					<name></name>
					<IsTimeVarying>false</IsTimeVarying>
					<value>-91445760000000000,0.5:0.5,0,0,0,0,0,0,5,4,0,0,0,0</value>
					</parameter>
					<parameter authoringApp="PremierePro">
					<parameterid>4</parameterid>
					<name></name>
					<IsTimeVarying>false</IsTimeVarying>
					<ParameterControlType>2</ParameterControlType>
					<LowerBound>0</LowerBound>
					<UpperBound>4000</UpperBound>
					<value>-91445760000000000,100.,0,0,0,0,0,0</value>
					</parameter>
					<parameter authoringApp="PremierePro">
					<parameterid>8</parameterid>
					<name></name>
					<IsTimeVarying>false</IsTimeVarying>
					<ParameterControlType>2</ParameterControlType>
					<LowerBound>0</LowerBound>
					<UpperBound>100</UpperBound>
					<value>-91445760000000000,100.,0,0,0,0,0,0</value>
					</parameter>
					</effect>
					</filter>
					<logginginfo>
					<description></description>
					<scene></scene>
					<shottake></shottake>
					<lognote></lognote>
					<good></good>
					<originalvideofilename></originalvideofilename>
					<originalaudiofilename></originalaudiofilename>
					</logginginfo>
					<colorinfo>
					<lut></lut>
					<lut1></lut1>
					<asc_sop></asc_sop>
					<asc_sat></asc_sat>
					<lut2></lut2>
					</colorinfo>
					<labels>
					</labels>
					</clipitem>
					<clipitem frameBlend="FALSE" id="clipitem-680">
					<masterclipid>masterclip-600</masterclipid>
					<name></name>
					<enabled>TRUE</enabled>
					<duration>2582774</duration>
					<rate>
					
					                                    <timebase>60</timebase>
					                                    <ntsc>TRUE</ntsc>
					                                
					</rate>
					<start>5896</start>
					<end>5956</end>
					<in>5896</in>
					<out>5956</out>
					<pproTicksIn>914456774963789</pproTicksIn>
					<pproTicksOut>914677708529577</pproTicksOut>
					<alphatype>straight</alphatype>
					<pixelaspectratio>square</pixelaspectratio>
					<anamorphic>FALSE</anamorphic>
					<file id="file-599">
					<name></name>
					<mediaSource>GraphicAndType</mediaSource>
					<rate>
					<timebase>60</timebase>
					<ntsc>TRUE</ntsc>
					</rate>
					<timecode>
					<rate>
					<timebase>60</timebase>
					<ntsc>TRUE</ntsc>
					</rate>
					<string>00:00:00:00</string>
					<frame>0</frame>
					<displayformat>NDF</displayformat>
					</timecode>
					<media>
					<video>
					<samplecharacteristics>
					<rate>
					<timebase>60</timebase>
					<ntsc>TRUE</ntsc>
					</rate>
					<width>1080</width>
					<height>1920</height>
					<anamorphic>FALSE</anamorphic>
					<pixelaspectratio>square</pixelaspectratio>
					<fielddominance>none</fielddominance>
					</samplecharacteristics>
					</video>
					</media>
					</file>
					<filter>
					<effect>
					<name></name>
					<effectid>GraphicAndType</effectid>
					<effectcategory>graphic</effectcategory>
					<effecttype>filter</effecttype>
					<mediatype>video</mediatype>
					<pproBypass>false</pproBypass>
					<parameter authoringApp="PremierePro">
					<parameterid>1</parameterid>
					<name></name>
					<hash>025b1101-ead6-0ca2-1feb-caf3000001fc</hash>
					<value>5AEAAAAAAABEMyIRDAAAAAAABgAKAAQABgAAAGQAAAAAAF4ASAAQAAwARABAADwAOAAAAAAAAAAAADQAMwAsAAAAKAAkACAAAAAAAAAAAAAAAAAAHAAAAAAAGgAAAAAAAAAUAAAAAAAAAAAAAAAAAAAAAAAAAAgAAAAAABsABwBeAAAAAAAAAUAAAABQAAAAbAAAAAIAAAAAAAEAAQAAAAAAQEEAAMBAAABAQAAAyEIAAAABIAAAAAIAAAACAAAAAAA2QwCASkTw/v//9P7///j+//8S////AAAAAAEAAAAEAAAAEQAAAEhHUFNvZWlLYWt1cG9wdGFpAAAAAQAAAAwAAAAIAAwABAAIAAgAAAAIAAAAUAAAAA8AAADvvIEAAAAAAAAAAAAAAAAAAAA2ACQAAAAgABwAAAAAABsAFAAAAAAAAAAAAAAAAAAAAAAAAAAAABAAAAAAAAAADAAAAAgABAA2AAAAAgAAABwAAAAcAAAAHAAAAAAAIEEAAAABaAAAAE3PAEOw////tP///wEAAAAUAAAAEAAaAAgABwAMAAAAEAAUABAAAAAAAAABHAAAAAAAoEEcAAAAAgAAAAAACgAIAAUABgAHAAoAAAAADAD//P///wQABAAEAAAACAAIAAYABwAIAAAAAAAMAA==</value>
					</parameter>
					<parameter authoringApp="PremierePro">
					<parameterid>2</parameterid>
					<name></name>
					<IsTimeVarying>false</IsTimeVarying>
					<ParameterControlType>11</ParameterControlType>
					<LowerBound>false</LowerBound>
					<UpperBound>false</UpperBound>
					<value>-91445760000000000,false,0,0,0,0,0,0</value>
					</parameter>
					<parameter authoringApp="PremierePro">
					<parameterid>3</parameterid>
					<name></name>
					<IsTimeVarying>false</IsTimeVarying>
					<value>-91445760000000000,0.5:0.5,0,0,0,0,0,0,5,4,0,0,0,0</value>
					</parameter>
					<parameter authoringApp="PremierePro">
					<parameterid>4</parameterid>
					<name></name>
					<IsTimeVarying>false</IsTimeVarying>
					<ParameterControlType>2</ParameterControlType>
					<LowerBound>0</LowerBound>
					<UpperBound>4000</UpperBound>
					<value>-91445760000000000,100.,0,0,0,0,0,0</value>
					</parameter>
					<parameter authoringApp="PremierePro">
					<parameterid>8</parameterid>
					<name></name>
					<IsTimeVarying>false</IsTimeVarying>
					<ParameterControlType>2</ParameterControlType>
					<LowerBound>0</LowerBound>
					<UpperBound>100</UpperBound>
					<value>-91445760000000000,100.,0,0,0,0,0,0</value>
					</parameter>
					</effect>
					</filter>
					<logginginfo>
					<description></description>
					<scene></scene>
					<shottake></shottake>
					<lognote></lognote>
					<good></good>
					<originalvideofilename></originalvideofilename>
					<originalaudiofilename></originalaudiofilename>
					</logginginfo>
					<colorinfo>
					<lut></lut>
					<lut1></lut1>
					<asc_sop></asc_sop>
					<asc_sat></asc_sat>
					<lut2></lut2>
					</colorinfo>
					<labels>
					</labels>
					</clipitem>
					<clipitem frameBlend="FALSE" id="clipitem-687">
					<masterclipid>masterclip-607</masterclipid>
					<name></name>
					<enabled>TRUE</enabled>
					<duration>2582774</duration>
					<rate>
					
					                                    <timebase>60</timebase>
					                                    <ntsc>TRUE</ntsc>
					                                
					</rate>
					<start>5968</start>
					<end>6028</end>
					<in>5968</in>
					<out>6028</out>
					<pproTicksIn>914456774963789</pproTicksIn>
					<pproTicksOut>914677708529577</pproTicksOut>
					<alphatype>straight</alphatype>
					<pixelaspectratio>square</pixelaspectratio>
					<anamorphic>FALSE</anamorphic>
					<file id="file-606">
					<name></name>
					<mediaSource>GraphicAndType</mediaSource>
					<rate>
					<timebase>60</timebase>
					<ntsc>TRUE</ntsc>
					</rate>
					<timecode>
					<rate>
					<timebase>60</timebase>
					<ntsc>TRUE</ntsc>
					</rate>
					<string>00:00:00:00</string>
					<frame>0</frame>
					<displayformat>NDF</displayformat>
					</timecode>
					<media>
					<video>
					<samplecharacteristics>
					<rate>
					<timebase>60</timebase>
					<ntsc>TRUE</ntsc>
					</rate>
					<width>1080</width>
					<height>1920</height>
					<anamorphic>FALSE</anamorphic>
					<pixelaspectratio>square</pixelaspectratio>
					<fielddominance>none</fielddominance>
					</samplecharacteristics>
					</video>
					</media>
					</file>
					<filter>
					<effect>
					<name></name>
					<effectid>GraphicAndType</effectid>
					<effectcategory>graphic</effectcategory>
					<effecttype>filter</effecttype>
					<mediatype>video</mediatype>
					<pproBypass>false</pproBypass>
					<parameter authoringApp="PremierePro">
					<parameterid>1</parameterid>
					<name></name>
					<hash>025b1101-ead6-0ca2-1feb-caf3000001fc</hash>
					<value>5AEAAAAAAABEMyIRDAAAAAAABgAKAAQABgAAAGQAAAAAAF4ASAAQAAwARABAADwAOAAAAAAAAAAAADQAMwAsAAAAKAAkACAAAAAAAAAAAAAAAAAAHAAAAAAAGgAAAAAAAAAUAAAAAAAAAAAAAAAAAAAAAAAAAAgAAAAAABsABwBeAAAAAAAAAUAAAABQAAAAbAAAAAIAAAAAAAEAAQAAAAAAQEEAAMBAAABAQAAAyEIAAAABIAAAAAIAAAACAAAAAAA2QwCASkTw/v//9P7///j+//8S////AAAAAAEAAAAEAAAAEQAAAEhHUFNvZWlLYWt1cG9wdGFpAAAAAQAAAAwAAAAIAAwABAAIAAgAAAAIAAAAUAAAAA8AAADvvIEAAAAAAAAAAAAAAAAAAAA2ACQAAAAgABwAAAAAABsAFAAAAAAAAAAAAAAAAAAAAAAAAAAAABAAAAAAAAAADAAAAAgABAA2AAAAAgAAABwAAAAcAAAAHAAAAAAAIEEAAAABaAAAAE3PAEOw////tP///wEAAAAUAAAAEAAaAAgABwAMAAAAEAAUABAAAAAAAAABHAAAAAAAoEEcAAAAAgAAAAAACgAIAAUABgAHAAoAAAAADAD//P///wQABAAEAAAACAAIAAYABwAIAAAAAAAMAA==</value>
					</parameter>
					<parameter authoringApp="PremierePro">
					<parameterid>2</parameterid>
					<name></name>
					<IsTimeVarying>false</IsTimeVarying>
					<ParameterControlType>11</ParameterControlType>
					<LowerBound>false</LowerBound>
					<UpperBound>false</UpperBound>
					<value>-91445760000000000,false,0,0,0,0,0,0</value>
					</parameter>
					<parameter authoringApp="PremierePro">
					<parameterid>3</parameterid>
					<name></name>
					<IsTimeVarying>false</IsTimeVarying>
					<value>-91445760000000000,0.5:0.5,0,0,0,0,0,0,5,4,0,0,0,0</value>
					</parameter>
					<parameter authoringApp="PremierePro">
					<parameterid>4</parameterid>
					<name></name>
					<IsTimeVarying>false</IsTimeVarying>
					<ParameterControlType>2</ParameterControlType>
					<LowerBound>0</LowerBound>
					<UpperBound>4000</UpperBound>
					<value>-91445760000000000,100.,0,0,0,0,0,0</value>
					</parameter>
					<parameter authoringApp="PremierePro">
					<parameterid>8</parameterid>
					<name></name>
					<IsTimeVarying>false</IsTimeVarying>
					<ParameterControlType>2</ParameterControlType>
					<LowerBound>0</LowerBound>
					<UpperBound>100</UpperBound>
					<value>-91445760000000000,100.,0,0,0,0,0,0</value>
					</parameter>
					</effect>
					</filter>
					<logginginfo>
					<description></description>
					<scene></scene>
					<shottake></shottake>
					<lognote></lognote>
					<good></good>
					<originalvideofilename></originalvideofilename>
					<originalaudiofilename></originalaudiofilename>
					</logginginfo>
					<colorinfo>
					<lut></lut>
					<lut1></lut1>
					<asc_sop></asc_sop>
					<asc_sat></asc_sat>
					<lut2></lut2>
					</colorinfo>
					<labels>
					</labels>
					</clipitem>
					<clipitem frameBlend="FALSE" id="clipitem-694">
					<masterclipid>masterclip-614</masterclipid>
					<name></name>
					<enabled>TRUE</enabled>
					<duration>2582774</duration>
					<rate>
					
					                                    <timebase>60</timebase>
					                                    <ntsc>TRUE</ntsc>
					                                
					</rate>
					<start>6028</start>
					<end>6094</end>
					<in>6028</in>
					<out>6094</out>
					<pproTicksIn>914456774963789</pproTicksIn>
					<pproTicksOut>914677708529577</pproTicksOut>
					<alphatype>straight</alphatype>
					<pixelaspectratio>square</pixelaspectratio>
					<anamorphic>FALSE</anamorphic>
					<file id="file-613">
					<name></name>
					<mediaSource>GraphicAndType</mediaSource>
					<rate>
					<timebase>60</timebase>
					<ntsc>TRUE</ntsc>
					</rate>
					<timecode>
					<rate>
					<timebase>60</timebase>
					<ntsc>TRUE</ntsc>
					</rate>
					<string>00:00:00:00</string>
					<frame>0</frame>
					<displayformat>NDF</displayformat>
					</timecode>
					<media>
					<video>
					<samplecharacteristics>
					<rate>
					<timebase>60</timebase>
					<ntsc>TRUE</ntsc>
					</rate>
					<width>1080</width>
					<height>1920</height>
					<anamorphic>FALSE</anamorphic>
					<pixelaspectratio>square</pixelaspectratio>
					<fielddominance>none</fielddominance>
					</samplecharacteristics>
					</video>
					</media>
					</file>
					<filter>
					<effect>
					<name></name>
					<effectid>GraphicAndType</effectid>
					<effectcategory>graphic</effectcategory>
					<effecttype>filter</effecttype>
					<mediatype>video</mediatype>
					<pproBypass>false</pproBypass>
					<parameter authoringApp="PremierePro">
					<parameterid>1</parameterid>
					<name></name>
					<hash>025b1101-ead6-0ca2-1feb-caf3000001fc</hash>
					<value>5AEAAAAAAABEMyIRDAAAAAAABgAKAAQABgAAAGQAAAAAAF4ASAAQAAwARABAADwAOAAAAAAAAAAAADQAMwAsAAAAKAAkACAAAAAAAAAAAAAAAAAAHAAAAAAAGgAAAAAAAAAUAAAAAAAAAAAAAAAAAAAAAAAAAAgAAAAAABsABwBeAAAAAAAAAUAAAABQAAAAbAAAAAIAAAAAAAEAAQAAAAAAQEEAAMBAAABAQAAAyEIAAAABIAAAAAIAAAACAAAAAAA2QwCASkTw/v//9P7///j+//8S////AAAAAAEAAAAEAAAAEQAAAEhHUFNvZWlLYWt1cG9wdGFpAAAAAQAAAAwAAAAIAAwABAAIAAgAAAAIAAAAUAAAAA8AAADvvIEAAAAAAAAAAAAAAAAAAAA2ACQAAAAgABwAAAAAABsAFAAAAAAAAAAAAAAAAAAAAAAAAAAAABAAAAAAAAAADAAAAAgABAA2AAAAAgAAABwAAAAcAAAAHAAAAAAAIEEAAAABaAAAAE3PAEOw////tP///wEAAAAUAAAAEAAaAAgABwAMAAAAEAAUABAAAAAAAAABHAAAAAAAoEEcAAAAAgAAAAAACgAIAAUABgAHAAoAAAAADAD//P///wQABAAEAAAACAAIAAYABwAIAAAAAAAMAA==</value>
					</parameter>
					<parameter authoringApp="PremierePro">
					<parameterid>2</parameterid>
					<name></name>
					<IsTimeVarying>false</IsTimeVarying>
					<ParameterControlType>11</ParameterControlType>
					<LowerBound>false</LowerBound>
					<UpperBound>false</UpperBound>
					<value>-91445760000000000,false,0,0,0,0,0,0</value>
					</parameter>
					<parameter authoringApp="PremierePro">
					<parameterid>3</parameterid>
					<name></name>
					<IsTimeVarying>false</IsTimeVarying>
					<value>-91445760000000000,0.5:0.5,0,0,0,0,0,0,5,4,0,0,0,0</value>
					</parameter>
					<parameter authoringApp="PremierePro">
					<parameterid>4</parameterid>
					<name></name>
					<IsTimeVarying>false</IsTimeVarying>
					<ParameterControlType>2</ParameterControlType>
					<LowerBound>0</LowerBound>
					<UpperBound>4000</UpperBound>
					<value>-91445760000000000,100.,0,0,0,0,0,0</value>
					</parameter>
					<parameter authoringApp="PremierePro">
					<parameterid>8</parameterid>
					<name></name>
					<IsTimeVarying>false</IsTimeVarying>
					<ParameterControlType>2</ParameterControlType>
					<LowerBound>0</LowerBound>
					<UpperBound>100</UpperBound>
					<value>-91445760000000000,100.,0,0,0,0,0,0</value>
					</parameter>
					</effect>
					</filter>
					<logginginfo>
					<description></description>
					<scene></scene>
					<shottake></shottake>
					<lognote></lognote>
					<good></good>
					<originalvideofilename></originalvideofilename>
					<originalaudiofilename></originalaudiofilename>
					</logginginfo>
					<colorinfo>
					<lut></lut>
					<lut1></lut1>
					<asc_sop></asc_sop>
					<asc_sat></asc_sat>
					<lut2></lut2>
					</colorinfo>
					<labels>
					</labels>
					</clipitem>
					<clipitem frameBlend="FALSE" id="clipitem-701">
					<masterclipid>masterclip-621</masterclipid>
					<name></name>
					<enabled>TRUE</enabled>
					<duration>2582774</duration>
					<rate>
					
					                                    <timebase>60</timebase>
					                                    <ntsc>TRUE</ntsc>
					                                
					</rate>
					<start>6100</start>
					<end>6160</end>
					<in>6100</in>
					<out>6160</out>
					<pproTicksIn>914456774963789</pproTicksIn>
					<pproTicksOut>914677708529577</pproTicksOut>
					<alphatype>straight</alphatype>
					<pixelaspectratio>square</pixelaspectratio>
					<anamorphic>FALSE</anamorphic>
					<file id="file-620">
					<name></name>
					<mediaSource>GraphicAndType</mediaSource>
					<rate>
					<timebase>60</timebase>
					<ntsc>TRUE</ntsc>
					</rate>
					<timecode>
					<rate>
					<timebase>60</timebase>
					<ntsc>TRUE</ntsc>
					</rate>
					<string>00:00:00:00</string>
					<frame>0</frame>
					<displayformat>NDF</displayformat>
					</timecode>
					<media>
					<video>
					<samplecharacteristics>
					<rate>
					<timebase>60</timebase>
					<ntsc>TRUE</ntsc>
					</rate>
					<width>1080</width>
					<height>1920</height>
					<anamorphic>FALSE</anamorphic>
					<pixelaspectratio>square</pixelaspectratio>
					<fielddominance>none</fielddominance>
					</samplecharacteristics>
					</video>
					</media>
					</file>
					<filter>
					<effect>
					<name></name>
					<effectid>GraphicAndType</effectid>
					<effectcategory>graphic</effectcategory>
					<effecttype>filter</effecttype>
					<mediatype>video</mediatype>
					<pproBypass>false</pproBypass>
					<parameter authoringApp="PremierePro">
					<parameterid>1</parameterid>
					<name></name>
					<hash>025b1101-ead6-0ca2-1feb-caf3000001fc</hash>
					<value>5AEAAAAAAABEMyIRDAAAAAAABgAKAAQABgAAAGQAAAAAAF4ASAAQAAwARABAADwAOAAAAAAAAAAAADQAMwAsAAAAKAAkACAAAAAAAAAAAAAAAAAAHAAAAAAAGgAAAAAAAAAUAAAAAAAAAAAAAAAAAAAAAAAAAAgAAAAAABsABwBeAAAAAAAAAUAAAABQAAAAbAAAAAIAAAAAAAEAAQAAAAAAQEEAAMBAAABAQAAAyEIAAAABIAAAAAIAAAACAAAAAAA2QwCASkTw/v//9P7///j+//8S////AAAAAAEAAAAEAAAAEQAAAEhHUFNvZWlLYWt1cG9wdGFpAAAAAQAAAAwAAAAIAAwABAAIAAgAAAAIAAAAUAAAAA8AAADvvIEAAAAAAAAAAAAAAAAAAAA2ACQAAAAgABwAAAAAABsAFAAAAAAAAAAAAAAAAAAAAAAAAAAAABAAAAAAAAAADAAAAAgABAA2AAAAAgAAABwAAAAcAAAAHAAAAAAAIEEAAAABaAAAAE3PAEOw////tP///wEAAAAUAAAAEAAaAAgABwAMAAAAEAAUABAAAAAAAAABHAAAAAAAoEEcAAAAAgAAAAAACgAIAAUABgAHAAoAAAAADAD//P///wQABAAEAAAACAAIAAYABwAIAAAAAAAMAA==</value>
					</parameter>
					<parameter authoringApp="PremierePro">
					<parameterid>2</parameterid>
					<name></name>
					<IsTimeVarying>false</IsTimeVarying>
					<ParameterControlType>11</ParameterControlType>
					<LowerBound>false</LowerBound>
					<UpperBound>false</UpperBound>
					<value>-91445760000000000,false,0,0,0,0,0,0</value>
					</parameter>
					<parameter authoringApp="PremierePro">
					<parameterid>3</parameterid>
					<name></name>
					<IsTimeVarying>false</IsTimeVarying>
					<value>-91445760000000000,0.5:0.5,0,0,0,0,0,0,5,4,0,0,0,0</value>
					</parameter>
					<parameter authoringApp="PremierePro">
					<parameterid>4</parameterid>
					<name></name>
					<IsTimeVarying>false</IsTimeVarying>
					<ParameterControlType>2</ParameterControlType>
					<LowerBound>0</LowerBound>
					<UpperBound>4000</UpperBound>
					<value>-91445760000000000,100.,0,0,0,0,0,0</value>
					</parameter>
					<parameter authoringApp="PremierePro">
					<parameterid>8</parameterid>
					<name></name>
					<IsTimeVarying>false</IsTimeVarying>
					<ParameterControlType>2</ParameterControlType>
					<LowerBound>0</LowerBound>
					<UpperBound>100</UpperBound>
					<value>-91445760000000000,100.,0,0,0,0,0,0</value>
					</parameter>
					</effect>
					</filter>
					<logginginfo>
					<description></description>
					<scene></scene>
					<shottake></shottake>
					<lognote></lognote>
					<good></good>
					<originalvideofilename></originalvideofilename>
					<originalaudiofilename></originalaudiofilename>
					</logginginfo>
					<colorinfo>
					<lut></lut>
					<lut1></lut1>
					<asc_sop></asc_sop>
					<asc_sat></asc_sat>
					<lut2></lut2>
					</colorinfo>
					<labels>
					</labels>
					</clipitem>
					<clipitem frameBlend="FALSE" id="clipitem-708">
					<masterclipid>masterclip-628</masterclipid>
					<name></name>
					<enabled>TRUE</enabled>
					<duration>2582774</duration>
					<rate>
					
					                                    <timebase>60</timebase>
					                                    <ntsc>TRUE</ntsc>
					                                
					</rate>
					<start>6166</start>
					<end>6226</end>
					<in>6166</in>
					<out>6226</out>
					<pproTicksIn>914456774963789</pproTicksIn>
					<pproTicksOut>914677708529577</pproTicksOut>
					<alphatype>straight</alphatype>
					<pixelaspectratio>square</pixelaspectratio>
					<anamorphic>FALSE</anamorphic>
					<file id="file-627">
					<name></name>
					<mediaSource>GraphicAndType</mediaSource>
					<rate>
					<timebase>60</timebase>
					<ntsc>TRUE</ntsc>
					</rate>
					<timecode>
					<rate>
					<timebase>60</timebase>
					<ntsc>TRUE</ntsc>
					</rate>
					<string>00:00:00:00</string>
					<frame>0</frame>
					<displayformat>NDF</displayformat>
					</timecode>
					<media>
					<video>
					<samplecharacteristics>
					<rate>
					<timebase>60</timebase>
					<ntsc>TRUE</ntsc>
					</rate>
					<width>1080</width>
					<height>1920</height>
					<anamorphic>FALSE</anamorphic>
					<pixelaspectratio>square</pixelaspectratio>
					<fielddominance>none</fielddominance>
					</samplecharacteristics>
					</video>
					</media>
					</file>
					<filter>
					<effect>
					<name></name>
					<effectid>GraphicAndType</effectid>
					<effectcategory>graphic</effectcategory>
					<effecttype>filter</effecttype>
					<mediatype>video</mediatype>
					<pproBypass>false</pproBypass>
					<parameter authoringApp="PremierePro">
					<parameterid>1</parameterid>
					<name></name>
					<hash>025b1101-ead6-0ca2-1feb-caf3000001fc</hash>
					<value>5AEAAAAAAABEMyIRDAAAAAAABgAKAAQABgAAAGQAAAAAAF4ASAAQAAwARABAADwAOAAAAAAAAAAAADQAMwAsAAAAKAAkACAAAAAAAAAAAAAAAAAAHAAAAAAAGgAAAAAAAAAUAAAAAAAAAAAAAAAAAAAAAAAAAAgAAAAAABsABwBeAAAAAAAAAUAAAABQAAAAbAAAAAIAAAAAAAEAAQAAAAAAQEEAAMBAAABAQAAAyEIAAAABIAAAAAIAAAACAAAAAAA2QwCASkTw/v//9P7///j+//8S////AAAAAAEAAAAEAAAAEQAAAEhHUFNvZWlLYWt1cG9wdGFpAAAAAQAAAAwAAAAIAAwABAAIAAgAAAAIAAAAUAAAAA8AAADvvIEAAAAAAAAAAAAAAAAAAAA2ACQAAAAgABwAAAAAABsAFAAAAAAAAAAAAAAAAAAAAAAAAAAAABAAAAAAAAAADAAAAAgABAA2AAAAAgAAABwAAAAcAAAAHAAAAAAAIEEAAAABaAAAAE3PAEOw////tP///wEAAAAUAAAAEAAaAAgABwAMAAAAEAAUABAAAAAAAAABHAAAAAAAoEEcAAAAAgAAAAAACgAIAAUABgAHAAoAAAAADAD//P///wQABAAEAAAACAAIAAYABwAIAAAAAAAMAA==</value>
					</parameter>
					<parameter authoringApp="PremierePro">
					<parameterid>2</parameterid>
					<name></name>
					<IsTimeVarying>false</IsTimeVarying>
					<ParameterControlType>11</ParameterControlType>
					<LowerBound>false</LowerBound>
					<UpperBound>false</UpperBound>
					<value>-91445760000000000,false,0,0,0,0,0,0</value>
					</parameter>
					<parameter authoringApp="PremierePro">
					<parameterid>3</parameterid>
					<name></name>
					<IsTimeVarying>false</IsTimeVarying>
					<value>-91445760000000000,0.5:0.5,0,0,0,0,0,0,5,4,0,0,0,0</value>
					</parameter>
					<parameter authoringApp="PremierePro">
					<parameterid>4</parameterid>
					<name></name>
					<IsTimeVarying>false</IsTimeVarying>
					<ParameterControlType>2</ParameterControlType>
					<LowerBound>0</LowerBound>
					<UpperBound>4000</UpperBound>
					<value>-91445760000000000,100.,0,0,0,0,0,0</value>
					</parameter>
					<parameter authoringApp="PremierePro">
					<parameterid>8</parameterid>
					<name></name>
					<IsTimeVarying>false</IsTimeVarying>
					<ParameterControlType>2</ParameterControlType>
					<LowerBound>0</LowerBound>
					<UpperBound>100</UpperBound>
					<value>-91445760000000000,100.,0,0,0,0,0,0</value>
					</parameter>
					</effect>
					</filter>
					<logginginfo>
					<description></description>
					<scene></scene>
					<shottake></shottake>
					<lognote></lognote>
					<good></good>
					<originalvideofilename></originalvideofilename>
					<originalaudiofilename></originalaudiofilename>
					</logginginfo>
					<colorinfo>
					<lut></lut>
					<lut1></lut1>
					<asc_sop></asc_sop>
					<asc_sat></asc_sat>
					<lut2></lut2>
					</colorinfo>
					<labels>
					</labels>
					</clipitem>
					<clipitem frameBlend="FALSE" id="clipitem-715">
					<masterclipid>masterclip-635</masterclipid>
					<name></name>
					<enabled>TRUE</enabled>
					<duration>2582774</duration>
					<rate>
					
					                                    <timebase>60</timebase>
					                                    <ntsc>TRUE</ntsc>
					                                
					</rate>
					<start>6226</start>
					<end>6286</end>
					<in>6226</in>
					<out>6286</out>
					<pproTicksIn>914456774963789</pproTicksIn>
					<pproTicksOut>914677708529577</pproTicksOut>
					<alphatype>straight</alphatype>
					<pixelaspectratio>square</pixelaspectratio>
					<anamorphic>FALSE</anamorphic>
					<file id="file-634">
					<name></name>
					<mediaSource>GraphicAndType</mediaSource>
					<rate>
					<timebase>60</timebase>
					<ntsc>TRUE</ntsc>
					</rate>
					<timecode>
					<rate>
					<timebase>60</timebase>
					<ntsc>TRUE</ntsc>
					</rate>
					<string>00:00:00:00</string>
					<frame>0</frame>
					<displayformat>NDF</displayformat>
					</timecode>
					<media>
					<video>
					<samplecharacteristics>
					<rate>
					<timebase>60</timebase>
					<ntsc>TRUE</ntsc>
					</rate>
					<width>1080</width>
					<height>1920</height>
					<anamorphic>FALSE</anamorphic>
					<pixelaspectratio>square</pixelaspectratio>
					<fielddominance>none</fielddominance>
					</samplecharacteristics>
					</video>
					</media>
					</file>
					<filter>
					<effect>
					<name></name>
					<effectid>GraphicAndType</effectid>
					<effectcategory>graphic</effectcategory>
					<effecttype>filter</effecttype>
					<mediatype>video</mediatype>
					<pproBypass>false</pproBypass>
					<parameter authoringApp="PremierePro">
					<parameterid>1</parameterid>
					<name></name>
					<hash>025b1101-ead6-0ca2-1feb-caf3000001fc</hash>
					<value>5AEAAAAAAABEMyIRDAAAAAAABgAKAAQABgAAAGQAAAAAAF4ASAAQAAwARABAADwAOAAAAAAAAAAAADQAMwAsAAAAKAAkACAAAAAAAAAAAAAAAAAAHAAAAAAAGgAAAAAAAAAUAAAAAAAAAAAAAAAAAAAAAAAAAAgAAAAAABsABwBeAAAAAAAAAUAAAABQAAAAbAAAAAIAAAAAAAEAAQAAAAAAQEEAAMBAAABAQAAAyEIAAAABIAAAAAIAAAACAAAAAAA2QwCASkTw/v//9P7///j+//8S////AAAAAAEAAAAEAAAAEQAAAEhHUFNvZWlLYWt1cG9wdGFpAAAAAQAAAAwAAAAIAAwABAAIAAgAAAAIAAAAUAAAAA8AAADvvIEAAAAAAAAAAAAAAAAAAAA2ACQAAAAgABwAAAAAABsAFAAAAAAAAAAAAAAAAAAAAAAAAAAAABAAAAAAAAAADAAAAAgABAA2AAAAAgAAABwAAAAcAAAAHAAAAAAAIEEAAAABaAAAAE3PAEOw////tP///wEAAAAUAAAAEAAaAAgABwAMAAAAEAAUABAAAAAAAAABHAAAAAAAoEEcAAAAAgAAAAAACgAIAAUABgAHAAoAAAAADAD//P///wQABAAEAAAACAAIAAYABwAIAAAAAAAMAA==</value>
					</parameter>
					<parameter authoringApp="PremierePro">
					<parameterid>2</parameterid>
					<name></name>
					<IsTimeVarying>false</IsTimeVarying>
					<ParameterControlType>11</ParameterControlType>
					<LowerBound>false</LowerBound>
					<UpperBound>false</UpperBound>
					<value>-91445760000000000,false,0,0,0,0,0,0</value>
					</parameter>
					<parameter authoringApp="PremierePro">
					<parameterid>3</parameterid>
					<name></name>
					<IsTimeVarying>false</IsTimeVarying>
					<value>-91445760000000000,0.5:0.5,0,0,0,0,0,0,5,4,0,0,0,0</value>
					</parameter>
					<parameter authoringApp="PremierePro">
					<parameterid>4</parameterid>
					<name></name>
					<IsTimeVarying>false</IsTimeVarying>
					<ParameterControlType>2</ParameterControlType>
					<LowerBound>0</LowerBound>
					<UpperBound>4000</UpperBound>
					<value>-91445760000000000,100.,0,0,0,0,0,0</value>
					</parameter>
					<parameter authoringApp="PremierePro">
					<parameterid>8</parameterid>
					<name></name>
					<IsTimeVarying>false</IsTimeVarying>
					<ParameterControlType>2</ParameterControlType>
					<LowerBound>0</LowerBound>
					<UpperBound>100</UpperBound>
					<value>-91445760000000000,100.,0,0,0,0,0,0</value>
					</parameter>
					</effect>
					</filter>
					<logginginfo>
					<description></description>
					<scene></scene>
					<shottake></shottake>
					<lognote></lognote>
					<good></good>
					<originalvideofilename></originalvideofilename>
					<originalaudiofilename></originalaudiofilename>
					</logginginfo>
					<colorinfo>
					<lut></lut>
					<lut1></lut1>
					<asc_sop></asc_sop>
					<asc_sat></asc_sat>
					<lut2></lut2>
					</colorinfo>
					<labels>
					</labels>
					</clipitem>
					<clipitem id="clipitem-722"/>
					                        </track>
					                        <track TL.SQTrackShy="0" TL.SQTrackExpandedHeight="25" TL.SQTrackExpanded="0" MZ.TrackTargeted="0">
					<clipitem frameBlend="FALSE" id="clipitem-723">
					<masterclipid>masterclip-643</masterclipid>
					<name></name>
					<enabled>TRUE</enabled>
					<duration>2582774</duration>
					<rate>
					
					                                    <timebase>60</timebase>
					                                    <ntsc>TRUE</ntsc>
					                                
					</rate>
					<start>6286</start>
					<end>6346</end>
					<in>6286</in>
					<out>6346</out>
					<pproTicksIn>914456774963789</pproTicksIn>
					<pproTicksOut>914677708529577</pproTicksOut>
					<alphatype>straight</alphatype>
					<pixelaspectratio>square</pixelaspectratio>
					<anamorphic>FALSE</anamorphic>
					<file id="file-642">
					<name></name>
					<mediaSource>GraphicAndType</mediaSource>
					<rate>
					<timebase>60</timebase>
					<ntsc>TRUE</ntsc>
					</rate>
					<timecode>
					<rate>
					<timebase>60</timebase>
					<ntsc>TRUE</ntsc>
					</rate>
					<string>00:00:00:00</string>
					<frame>0</frame>
					<displayformat>NDF</displayformat>
					</timecode>
					<media>
					<video>
					<samplecharacteristics>
					<rate>
					<timebase>60</timebase>
					<ntsc>TRUE</ntsc>
					</rate>
					<width>1080</width>
					<height>1920</height>
					<anamorphic>FALSE</anamorphic>
					<pixelaspectratio>square</pixelaspectratio>
					<fielddominance>none</fielddominance>
					</samplecharacteristics>
					</video>
					</media>
					</file>
					<filter>
					<effect>
					<name></name>
					<effectid>GraphicAndType</effectid>
					<effectcategory>graphic</effectcategory>
					<effecttype>filter</effecttype>
					<mediatype>video</mediatype>
					<pproBypass>false</pproBypass>
					<parameter authoringApp="PremierePro">
					<parameterid>1</parameterid>
					<name></name>
					<hash>025b1101-ead6-0ca2-1feb-caf3000001fc</hash>
					<value>5AEAAAAAAABEMyIRDAAAAAAABgAKAAQABgAAAGQAAAAAAF4ASAAQAAwARABAADwAOAAAAAAAAAAAADQAMwAsAAAAKAAkACAAAAAAAAAAAAAAAAAAHAAAAAAAGgAAAAAAAAAUAAAAAAAAAAAAAAAAAAAAAAAAAAgAAAAAABsABwBeAAAAAAAAAUAAAABQAAAAbAAAAAIAAAAAAAEAAQAAAAAAQEEAAMBAAABAQAAAyEIAAAABIAAAAAIAAAACAAAAAAA2QwCASkTw/v//9P7///j+//8S////AAAAAAEAAAAEAAAAEQAAAEhHUFNvZWlLYWt1cG9wdGFpAAAAAQAAAAwAAAAIAAwABAAIAAgAAAAIAAAAUAAAAA8AAADvvIEAAAAAAAAAAAAAAAAAAAA2ACQAAAAgABwAAAAAABsAFAAAAAAAAAAAAAAAAAAAAAAAAAAAABAAAAAAAAAADAAAAAgABAA2AAAAAgAAABwAAAAcAAAAHAAAAAAAIEEAAAABaAAAAE3PAEOw////tP///wEAAAAUAAAAEAAaAAgABwAMAAAAEAAUABAAAAAAAAABHAAAAAAAoEEcAAAAAgAAAAAACgAIAAUABgAHAAoAAAAADAD//P///wQABAAEAAAACAAIAAYABwAIAAAAAAAMAA==</value>
					</parameter>
					<parameter authoringApp="PremierePro">
					<parameterid>2</parameterid>
					<name></name>
					<IsTimeVarying>false</IsTimeVarying>
					<ParameterControlType>11</ParameterControlType>
					<LowerBound>false</LowerBound>
					<UpperBound>false</UpperBound>
					<value>-91445760000000000,false,0,0,0,0,0,0</value>
					</parameter>
					<parameter authoringApp="PremierePro">
					<parameterid>3</parameterid>
					<name></name>
					<IsTimeVarying>false</IsTimeVarying>
					<value>-91445760000000000,0.5:0.5,0,0,0,0,0,0,5,4,0,0,0,0</value>
					</parameter>
					<parameter authoringApp="PremierePro">
					<parameterid>4</parameterid>
					<name></name>
					<IsTimeVarying>false</IsTimeVarying>
					<ParameterControlType>2</ParameterControlType>
					<LowerBound>0</LowerBound>
					<UpperBound>4000</UpperBound>
					<value>-91445760000000000,100.,0,0,0,0,0,0</value>
					</parameter>
					<parameter authoringApp="PremierePro">
					<parameterid>8</parameterid>
					<name></name>
					<IsTimeVarying>false</IsTimeVarying>
					<ParameterControlType>2</ParameterControlType>
					<LowerBound>0</LowerBound>
					<UpperBound>100</UpperBound>
					<value>-91445760000000000,100.,0,0,0,0,0,0</value>
					</parameter>
					</effect>
					</filter>
					<logginginfo>
					<description></description>
					<scene></scene>
					<shottake></shottake>
					<lognote></lognote>
					<good></good>
					<originalvideofilename></originalvideofilename>
					<originalaudiofilename></originalaudiofilename>
					</logginginfo>
					<colorinfo>
					<lut></lut>
					<lut1></lut1>
					<asc_sop></asc_sop>
					<asc_sat></asc_sat>
					<lut2></lut2>
					</colorinfo>
					<labels>
					</labels>
					</clipitem>
					<clipitem id="clipitem-729"/>
					                        </track>
					                        <track TL.SQTrackShy="0" TL.SQTrackExpandedHeight="25" TL.SQTrackExpanded="0" MZ.TrackTargeted="0">
					<clipitem frameBlend="FALSE" id="clipitem-730">
					<masterclipid>masterclip-650</masterclipid>
					<name></name>
					<enabled>TRUE</enabled>
					<duration>2582774</duration>
					<rate>
					
					                                    <timebase>60</timebase>
					                                    <ntsc>TRUE</ntsc>
					                                
					</rate>
					<start>6352</start>
					<end>6412</end>
					<in>6352</in>
					<out>6412</out>
					<pproTicksIn>914456774963789</pproTicksIn>
					<pproTicksOut>914677708529577</pproTicksOut>
					<alphatype>straight</alphatype>
					<pixelaspectratio>square</pixelaspectratio>
					<anamorphic>FALSE</anamorphic>
					<file id="file-649">
					<name></name>
					<mediaSource>GraphicAndType</mediaSource>
					<rate>
					<timebase>60</timebase>
					<ntsc>TRUE</ntsc>
					</rate>
					<timecode>
					<rate>
					<timebase>60</timebase>
					<ntsc>TRUE</ntsc>
					</rate>
					<string>00:00:00:00</string>
					<frame>0</frame>
					<displayformat>NDF</displayformat>
					</timecode>
					<media>
					<video>
					<samplecharacteristics>
					<rate>
					<timebase>60</timebase>
					<ntsc>TRUE</ntsc>
					</rate>
					<width>1080</width>
					<height>1920</height>
					<anamorphic>FALSE</anamorphic>
					<pixelaspectratio>square</pixelaspectratio>
					<fielddominance>none</fielddominance>
					</samplecharacteristics>
					</video>
					</media>
					</file>
					<filter>
					<effect>
					<name></name>
					<effectid>GraphicAndType</effectid>
					<effectcategory>graphic</effectcategory>
					<effecttype>filter</effecttype>
					<mediatype>video</mediatype>
					<pproBypass>false</pproBypass>
					<parameter authoringApp="PremierePro">
					<parameterid>1</parameterid>
					<name></name>
					<hash>025b1101-ead6-0ca2-1feb-caf3000001fc</hash>
					<value>5AEAAAAAAABEMyIRDAAAAAAABgAKAAQABgAAAGQAAAAAAF4ASAAQAAwARABAADwAOAAAAAAAAAAAADQAMwAsAAAAKAAkACAAAAAAAAAAAAAAAAAAHAAAAAAAGgAAAAAAAAAUAAAAAAAAAAAAAAAAAAAAAAAAAAgAAAAAABsABwBeAAAAAAAAAUAAAABQAAAAbAAAAAIAAAAAAAEAAQAAAAAAQEEAAMBAAABAQAAAyEIAAAABIAAAAAIAAAACAAAAAAA2QwCASkTw/v//9P7///j+//8S////AAAAAAEAAAAEAAAAEQAAAEhHUFNvZWlLYWt1cG9wdGFpAAAAAQAAAAwAAAAIAAwABAAIAAgAAAAIAAAAUAAAAA8AAADvvIEAAAAAAAAAAAAAAAAAAAA2ACQAAAAgABwAAAAAABsAFAAAAAAAAAAAAAAAAAAAAAAAAAAAABAAAAAAAAAADAAAAAgABAA2AAAAAgAAABwAAAAcAAAAHAAAAAAAIEEAAAABaAAAAE3PAEOw////tP///wEAAAAUAAAAEAAaAAgABwAMAAAAEAAUABAAAAAAAAABHAAAAAAAoEEcAAAAAgAAAAAACgAIAAUABgAHAAoAAAAADAD//P///wQABAAEAAAACAAIAAYABwAIAAAAAAAMAA==</value>
					</parameter>
					<parameter authoringApp="PremierePro">
					<parameterid>2</parameterid>
					<name></name>
					<IsTimeVarying>false</IsTimeVarying>
					<ParameterControlType>11</ParameterControlType>
					<LowerBound>false</LowerBound>
					<UpperBound>false</UpperBound>
					<value>-91445760000000000,false,0,0,0,0,0,0</value>
					</parameter>
					<parameter authoringApp="PremierePro">
					<parameterid>3</parameterid>
					<name></name>
					<IsTimeVarying>false</IsTimeVarying>
					<value>-91445760000000000,0.5:0.5,0,0,0,0,0,0,5,4,0,0,0,0</value>
					</parameter>
					<parameter authoringApp="PremierePro">
					<parameterid>4</parameterid>
					<name></name>
					<IsTimeVarying>false</IsTimeVarying>
					<ParameterControlType>2</ParameterControlType>
					<LowerBound>0</LowerBound>
					<UpperBound>4000</UpperBound>
					<value>-91445760000000000,100.,0,0,0,0,0,0</value>
					</parameter>
					<parameter authoringApp="PremierePro">
					<parameterid>8</parameterid>
					<name></name>
					<IsTimeVarying>false</IsTimeVarying>
					<ParameterControlType>2</ParameterControlType>
					<LowerBound>0</LowerBound>
					<UpperBound>100</UpperBound>
					<value>-91445760000000000,100.,0,0,0,0,0,0</value>
					</parameter>
					</effect>
					</filter>
					<logginginfo>
					<description></description>
					<scene></scene>
					<shottake></shottake>
					<lognote></lognote>
					<good></good>
					<originalvideofilename></originalvideofilename>
					<originalaudiofilename></originalaudiofilename>
					</logginginfo>
					<colorinfo>
					<lut></lut>
					<lut1></lut1>
					<asc_sop></asc_sop>
					<asc_sat></asc_sat>
					<lut2></lut2>
					</colorinfo>
					<labels>
					</labels>
					</clipitem>
					<clipitem frameBlend="FALSE" id="clipitem-737">
					<masterclipid>masterclip-657</masterclipid>
					<name></name>
					<enabled>TRUE</enabled>
					<duration>2582774</duration>
					<rate>
					
					                                    <timebase>60</timebase>
					                                    <ntsc>TRUE</ntsc>
					                                
					</rate>
					<start>6412</start>
					<end>6478</end>
					<in>6412</in>
					<out>6478</out>
					<pproTicksIn>914456774963789</pproTicksIn>
					<pproTicksOut>914677708529577</pproTicksOut>
					<alphatype>straight</alphatype>
					<pixelaspectratio>square</pixelaspectratio>
					<anamorphic>FALSE</anamorphic>
					<file id="file-656">
					<name></name>
					<mediaSource>GraphicAndType</mediaSource>
					<rate>
					<timebase>60</timebase>
					<ntsc>TRUE</ntsc>
					</rate>
					<timecode>
					<rate>
					<timebase>60</timebase>
					<ntsc>TRUE</ntsc>
					</rate>
					<string>00:00:00:00</string>
					<frame>0</frame>
					<displayformat>NDF</displayformat>
					</timecode>
					<media>
					<video>
					<samplecharacteristics>
					<rate>
					<timebase>60</timebase>
					<ntsc>TRUE</ntsc>
					</rate>
					<width>1080</width>
					<height>1920</height>
					<anamorphic>FALSE</anamorphic>
					<pixelaspectratio>square</pixelaspectratio>
					<fielddominance>none</fielddominance>
					</samplecharacteristics>
					</video>
					</media>
					</file>
					<filter>
					<effect>
					<name></name>
					<effectid>GraphicAndType</effectid>
					<effectcategory>graphic</effectcategory>
					<effecttype>filter</effecttype>
					<mediatype>video</mediatype>
					<pproBypass>false</pproBypass>
					<parameter authoringApp="PremierePro">
					<parameterid>1</parameterid>
					<name></name>
					<hash>025b1101-ead6-0ca2-1feb-caf3000001fc</hash>
					<value>5AEAAAAAAABEMyIRDAAAAAAABgAKAAQABgAAAGQAAAAAAF4ASAAQAAwARABAADwAOAAAAAAAAAAAADQAMwAsAAAAKAAkACAAAAAAAAAAAAAAAAAAHAAAAAAAGgAAAAAAAAAUAAAAAAAAAAAAAAAAAAAAAAAAAAgAAAAAABsABwBeAAAAAAAAAUAAAABQAAAAbAAAAAIAAAAAAAEAAQAAAAAAQEEAAMBAAABAQAAAyEIAAAABIAAAAAIAAAACAAAAAAA2QwCASkTw/v//9P7///j+//8S////AAAAAAEAAAAEAAAAEQAAAEhHUFNvZWlLYWt1cG9wdGFpAAAAAQAAAAwAAAAIAAwABAAIAAgAAAAIAAAAUAAAAA8AAADvvIEAAAAAAAAAAAAAAAAAAAA2ACQAAAAgABwAAAAAABsAFAAAAAAAAAAAAAAAAAAAAAAAAAAAABAAAAAAAAAADAAAAAgABAA2AAAAAgAAABwAAAAcAAAAHAAAAAAAIEEAAAABaAAAAE3PAEOw////tP///wEAAAAUAAAAEAAaAAgABwAMAAAAEAAUABAAAAAAAAABHAAAAAAAoEEcAAAAAgAAAAAACgAIAAUABgAHAAoAAAAADAD//P///wQABAAEAAAACAAIAAYABwAIAAAAAAAMAA==</value>
					</parameter>
					<parameter authoringApp="PremierePro">
					<parameterid>2</parameterid>
					<name></name>
					<IsTimeVarying>false</IsTimeVarying>
					<ParameterControlType>11</ParameterControlType>
					<LowerBound>false</LowerBound>
					<UpperBound>false</UpperBound>
					<value>-91445760000000000,false,0,0,0,0,0,0</value>
					</parameter>
					<parameter authoringApp="PremierePro">
					<parameterid>3</parameterid>
					<name></name>
					<IsTimeVarying>false</IsTimeVarying>
					<value>-91445760000000000,0.5:0.5,0,0,0,0,0,0,5,4,0,0,0,0</value>
					</parameter>
					<parameter authoringApp="PremierePro">
					<parameterid>4</parameterid>
					<name></name>
					<IsTimeVarying>false</IsTimeVarying>
					<ParameterControlType>2</ParameterControlType>
					<LowerBound>0</LowerBound>
					<UpperBound>4000</UpperBound>
					<value>-91445760000000000,100.,0,0,0,0,0,0</value>
					</parameter>
					<parameter authoringApp="PremierePro">
					<parameterid>8</parameterid>
					<name></name>
					<IsTimeVarying>false</IsTimeVarying>
					<ParameterControlType>2</ParameterControlType>
					<LowerBound>0</LowerBound>
					<UpperBound>100</UpperBound>
					<value>-91445760000000000,100.,0,0,0,0,0,0</value>
					</parameter>
					</effect>
					</filter>
					<logginginfo>
					<description></description>
					<scene></scene>
					<shottake></shottake>
					<lognote></lognote>
					<good></good>
					<originalvideofilename></originalvideofilename>
					<originalaudiofilename></originalaudiofilename>
					</logginginfo>
					<colorinfo>
					<lut></lut>
					<lut1></lut1>
					<asc_sop></asc_sop>
					<asc_sat></asc_sat>
					<lut2></lut2>
					</colorinfo>
					<labels>
					</labels>
					</clipitem>
					<clipitem frameBlend="FALSE" id="clipitem-743">
					<masterclipid>masterclip-663</masterclipid>
					<name></name>
					<enabled>TRUE</enabled>
					<duration>2582774</duration>
					<rate>
					
					                                    <timebase>60</timebase>
					                                    <ntsc>TRUE</ntsc>
					                                
					</rate>
					<start>6478</start>
					<end>6538</end>
					<in>6478</in>
					<out>6538</out>
					<pproTicksIn>914456774963789</pproTicksIn>
					<pproTicksOut>914677708529577</pproTicksOut>
					<alphatype>straight</alphatype>
					<pixelaspectratio>square</pixelaspectratio>
					<anamorphic>FALSE</anamorphic>
					<file id="file-662">
					<name></name>
					<mediaSource>GraphicAndType</mediaSource>
					<rate>
					<timebase>60</timebase>
					<ntsc>TRUE</ntsc>
					</rate>
					<timecode>
					<rate>
					<timebase>60</timebase>
					<ntsc>TRUE</ntsc>
					</rate>
					<string>00:00:00:00</string>
					<frame>0</frame>
					<displayformat>NDF</displayformat>
					</timecode>
					<media>
					<video>
					<samplecharacteristics>
					<rate>
					<timebase>60</timebase>
					<ntsc>TRUE</ntsc>
					</rate>
					<width>1080</width>
					<height>1920</height>
					<anamorphic>FALSE</anamorphic>
					<pixelaspectratio>square</pixelaspectratio>
					<fielddominance>none</fielddominance>
					</samplecharacteristics>
					</video>
					</media>
					</file>
					<filter>
					<effect>
					<name></name>
					<effectid>GraphicAndType</effectid>
					<effectcategory>graphic</effectcategory>
					<effecttype>filter</effecttype>
					<mediatype>video</mediatype>
					<pproBypass>false</pproBypass>
					<parameter authoringApp="PremierePro">
					<parameterid>1</parameterid>
					<name></name>
					<hash>025b1101-ead6-0ca2-1feb-caf3000001fc</hash>
					<value>5AEAAAAAAABEMyIRDAAAAAAABgAKAAQABgAAAGQAAAAAAF4ASAAQAAwARABAADwAOAAAAAAAAAAAADQAMwAsAAAAKAAkACAAAAAAAAAAAAAAAAAAHAAAAAAAGgAAAAAAAAAUAAAAAAAAAAAAAAAAAAAAAAAAAAgAAAAAABsABwBeAAAAAAAAAUAAAABQAAAAbAAAAAIAAAAAAAEAAQAAAAAAQEEAAMBAAABAQAAAyEIAAAABIAAAAAIAAAACAAAAAAA2QwCASkTw/v//9P7///j+//8S////AAAAAAEAAAAEAAAAEQAAAEhHUFNvZWlLYWt1cG9wdGFpAAAAAQAAAAwAAAAIAAwABAAIAAgAAAAIAAAAUAAAAA8AAADvvIEAAAAAAAAAAAAAAAAAAAA2ACQAAAAgABwAAAAAABsAFAAAAAAAAAAAAAAAAAAAAAAAAAAAABAAAAAAAAAADAAAAAgABAA2AAAAAgAAABwAAAAcAAAAHAAAAAAAIEEAAAABaAAAAE3PAEOw////tP///wEAAAAUAAAAEAAaAAgABwAMAAAAEAAUABAAAAAAAAABHAAAAAAAoEEcAAAAAgAAAAAACgAIAAUABgAHAAoAAAAADAD//P///wQABAAEAAAACAAIAAYABwAIAAAAAAAMAA==</value>
					</parameter>
					<parameter authoringApp="PremierePro">
					<parameterid>2</parameterid>
					<name></name>
					<IsTimeVarying>false</IsTimeVarying>
					<ParameterControlType>11</ParameterControlType>
					<LowerBound>false</LowerBound>
					<UpperBound>false</UpperBound>
					<value>-91445760000000000,false,0,0,0,0,0,0</value>
					</parameter>
					<parameter authoringApp="PremierePro">
					<parameterid>3</parameterid>
					<name></name>
					<IsTimeVarying>false</IsTimeVarying>
					<value>-91445760000000000,0.5:0.5,0,0,0,0,0,0,5,4,0,0,0,0</value>
					</parameter>
					<parameter authoringApp="PremierePro">
					<parameterid>4</parameterid>
					<name></name>
					<IsTimeVarying>false</IsTimeVarying>
					<ParameterControlType>2</ParameterControlType>
					<LowerBound>0</LowerBound>
					<UpperBound>4000</UpperBound>
					<value>-91445760000000000,100.,0,0,0,0,0,0</value>
					</parameter>
					<parameter authoringApp="PremierePro">
					<parameterid>8</parameterid>
					<name></name>
					<IsTimeVarying>false</IsTimeVarying>
					<ParameterControlType>2</ParameterControlType>
					<LowerBound>0</LowerBound>
					<UpperBound>100</UpperBound>
					<value>-91445760000000000,100.,0,0,0,0,0,0</value>
					</parameter>
					</effect>
					</filter>
					<logginginfo>
					<description></description>
					<scene></scene>
					<shottake></shottake>
					<lognote></lognote>
					<good></good>
					<originalvideofilename></originalvideofilename>
					<originalaudiofilename></originalaudiofilename>
					</logginginfo>
					<colorinfo>
					<lut></lut>
					<lut1></lut1>
					<asc_sop></asc_sop>
					<asc_sat></asc_sat>
					<lut2></lut2>
					</colorinfo>
					<labels>
					</labels>
					</clipitem>
					<clipitem frameBlend="FALSE" id="clipitem-746">
					<masterclipid>masterclip-666</masterclipid>
					<name></name>
					<enabled>TRUE</enabled>
					<duration>2582774</duration>
					<rate>
					
					                                    <timebase>60</timebase>
					                                    <ntsc>TRUE</ntsc>
					                                
					</rate>
					<start>6544</start>
					<end>6604</end>
					<in>6544</in>
					<out>6604</out>
					<pproTicksIn>914456774963789</pproTicksIn>
					<pproTicksOut>914677708529577</pproTicksOut>
					<alphatype>straight</alphatype>
					<pixelaspectratio>square</pixelaspectratio>
					<anamorphic>FALSE</anamorphic>
					<file id="file-665">
					<name></name>
					<mediaSource>GraphicAndType</mediaSource>
					<rate>
					<timebase>60</timebase>
					<ntsc>TRUE</ntsc>
					</rate>
					<timecode>
					<rate>
					<timebase>60</timebase>
					<ntsc>TRUE</ntsc>
					</rate>
					<string>00:00:00:00</string>
					<frame>0</frame>
					<displayformat>NDF</displayformat>
					</timecode>
					<media>
					<video>
					<samplecharacteristics>
					<rate>
					<timebase>60</timebase>
					<ntsc>TRUE</ntsc>
					</rate>
					<width>1080</width>
					<height>1920</height>
					<anamorphic>FALSE</anamorphic>
					<pixelaspectratio>square</pixelaspectratio>
					<fielddominance>none</fielddominance>
					</samplecharacteristics>
					</video>
					</media>
					</file>
					<filter>
					<effect>
					<name></name>
					<effectid>GraphicAndType</effectid>
					<effectcategory>graphic</effectcategory>
					<effecttype>filter</effecttype>
					<mediatype>video</mediatype>
					<pproBypass>false</pproBypass>
					<parameter authoringApp="PremierePro">
					<parameterid>1</parameterid>
					<name></name>
					<hash>025b1101-ead6-0ca2-1feb-caf3000001fc</hash>
					<value>5AEAAAAAAABEMyIRDAAAAAAABgAKAAQABgAAAGQAAAAAAF4ASAAQAAwARABAADwAOAAAAAAAAAAAADQAMwAsAAAAKAAkACAAAAAAAAAAAAAAAAAAHAAAAAAAGgAAAAAAAAAUAAAAAAAAAAAAAAAAAAAAAAAAAAgAAAAAABsABwBeAAAAAAAAAUAAAABQAAAAbAAAAAIAAAAAAAEAAQAAAAAAQEEAAMBAAABAQAAAyEIAAAABIAAAAAIAAAACAAAAAAA2QwCASkTw/v//9P7///j+//8S////AAAAAAEAAAAEAAAAEQAAAEhHUFNvZWlLYWt1cG9wdGFpAAAAAQAAAAwAAAAIAAwABAAIAAgAAAAIAAAAUAAAAA8AAADvvIEAAAAAAAAAAAAAAAAAAAA2ACQAAAAgABwAAAAAABsAFAAAAAAAAAAAAAAAAAAAAAAAAAAAABAAAAAAAAAADAAAAAgABAA2AAAAAgAAABwAAAAcAAAAHAAAAAAAIEEAAAABaAAAAE3PAEOw////tP///wEAAAAUAAAAEAAaAAgABwAMAAAAEAAUABAAAAAAAAABHAAAAAAAoEEcAAAAAgAAAAAACgAIAAUABgAHAAoAAAAADAD//P///wQABAAEAAAACAAIAAYABwAIAAAAAAAMAA==</value>
					</parameter>
					<parameter authoringApp="PremierePro">
					<parameterid>2</parameterid>
					<name></name>
					<IsTimeVarying>false</IsTimeVarying>
					<ParameterControlType>11</ParameterControlType>
					<LowerBound>false</LowerBound>
					<UpperBound>false</UpperBound>
					<value>-91445760000000000,false,0,0,0,0,0,0</value>
					</parameter>
					<parameter authoringApp="PremierePro">
					<parameterid>3</parameterid>
					<name></name>
					<IsTimeVarying>false</IsTimeVarying>
					<value>-91445760000000000,0.5:0.5,0,0,0,0,0,0,5,4,0,0,0,0</value>
					</parameter>
					<parameter authoringApp="PremierePro">
					<parameterid>4</parameterid>
					<name></name>
					<IsTimeVarying>false</IsTimeVarying>
					<ParameterControlType>2</ParameterControlType>
					<LowerBound>0</LowerBound>
					<UpperBound>4000</UpperBound>
					<value>-91445760000000000,100.,0,0,0,0,0,0</value>
					</parameter>
					<parameter authoringApp="PremierePro">
					<parameterid>8</parameterid>
					<name></name>
					<IsTimeVarying>false</IsTimeVarying>
					<ParameterControlType>2</ParameterControlType>
					<LowerBound>0</LowerBound>
					<UpperBound>100</UpperBound>
					<value>-91445760000000000,100.,0,0,0,0,0,0</value>
					</parameter>
					</effect>
					</filter>
					<logginginfo>
					<description></description>
					<scene></scene>
					<shottake></shottake>
					<lognote></lognote>
					<good></good>
					<originalvideofilename></originalvideofilename>
					<originalaudiofilename></originalaudiofilename>
					</logginginfo>
					<colorinfo>
					<lut></lut>
					<lut1></lut1>
					<asc_sop></asc_sop>
					<asc_sat></asc_sat>
					<lut2></lut2>
					</colorinfo>
					<labels>
					</labels>
					</clipitem>
					<clipitem frameBlend="FALSE" id="clipitem-753">
					<masterclipid>masterclip-673</masterclipid>
					<name></name>
					<enabled>TRUE</enabled>
					<duration>2582774</duration>
					<rate>
					
					                                    <timebase>60</timebase>
					                                    <ntsc>TRUE</ntsc>
					                                
					</rate>
					<start>6604</start>
					<end>6664</end>
					<in>6604</in>
					<out>6664</out>
					<pproTicksIn>914456774963789</pproTicksIn>
					<pproTicksOut>914677708529577</pproTicksOut>
					<alphatype>straight</alphatype>
					<pixelaspectratio>square</pixelaspectratio>
					<anamorphic>FALSE</anamorphic>
					<file id="file-672">
					<name></name>
					<mediaSource>GraphicAndType</mediaSource>
					<rate>
					<timebase>60</timebase>
					<ntsc>TRUE</ntsc>
					</rate>
					<timecode>
					<rate>
					<timebase>60</timebase>
					<ntsc>TRUE</ntsc>
					</rate>
					<string>00:00:00:00</string>
					<frame>0</frame>
					<displayformat>NDF</displayformat>
					</timecode>
					<media>
					<video>
					<samplecharacteristics>
					<rate>
					<timebase>60</timebase>
					<ntsc>TRUE</ntsc>
					</rate>
					<width>1080</width>
					<height>1920</height>
					<anamorphic>FALSE</anamorphic>
					<pixelaspectratio>square</pixelaspectratio>
					<fielddominance>none</fielddominance>
					</samplecharacteristics>
					</video>
					</media>
					</file>
					<filter>
					<effect>
					<name></name>
					<effectid>GraphicAndType</effectid>
					<effectcategory>graphic</effectcategory>
					<effecttype>filter</effecttype>
					<mediatype>video</mediatype>
					<pproBypass>false</pproBypass>
					<parameter authoringApp="PremierePro">
					<parameterid>1</parameterid>
					<name></name>
					<hash>025b1101-ead6-0ca2-1feb-caf3000001fc</hash>
					<value>5AEAAAAAAABEMyIRDAAAAAAABgAKAAQABgAAAGQAAAAAAF4ASAAQAAwARABAADwAOAAAAAAAAAAAADQAMwAsAAAAKAAkACAAAAAAAAAAAAAAAAAAHAAAAAAAGgAAAAAAAAAUAAAAAAAAAAAAAAAAAAAAAAAAAAgAAAAAABsABwBeAAAAAAAAAUAAAABQAAAAbAAAAAIAAAAAAAEAAQAAAAAAQEEAAMBAAABAQAAAyEIAAAABIAAAAAIAAAACAAAAAAA2QwCASkTw/v//9P7///j+//8S////AAAAAAEAAAAEAAAAEQAAAEhHUFNvZWlLYWt1cG9wdGFpAAAAAQAAAAwAAAAIAAwABAAIAAgAAAAIAAAAUAAAAA8AAADvvIEAAAAAAAAAAAAAAAAAAAA2ACQAAAAgABwAAAAAABsAFAAAAAAAAAAAAAAAAAAAAAAAAAAAABAAAAAAAAAADAAAAAgABAA2AAAAAgAAABwAAAAcAAAAHAAAAAAAIEEAAAABaAAAAE3PAEOw////tP///wEAAAAUAAAAEAAaAAgABwAMAAAAEAAUABAAAAAAAAABHAAAAAAAoEEcAAAAAgAAAAAACgAIAAUABgAHAAoAAAAADAD//P///wQABAAEAAAACAAIAAYABwAIAAAAAAAMAA==</value>
					</parameter>
					<parameter authoringApp="PremierePro">
					<parameterid>2</parameterid>
					<name></name>
					<IsTimeVarying>false</IsTimeVarying>
					<ParameterControlType>11</ParameterControlType>
					<LowerBound>false</LowerBound>
					<UpperBound>false</UpperBound>
					<value>-91445760000000000,false,0,0,0,0,0,0</value>
					</parameter>
					<parameter authoringApp="PremierePro">
					<parameterid>3</parameterid>
					<name></name>
					<IsTimeVarying>false</IsTimeVarying>
					<value>-91445760000000000,0.5:0.5,0,0,0,0,0,0,5,4,0,0,0,0</value>
					</parameter>
					<parameter authoringApp="PremierePro">
					<parameterid>4</parameterid>
					<name></name>
					<IsTimeVarying>false</IsTimeVarying>
					<ParameterControlType>2</ParameterControlType>
					<LowerBound>0</LowerBound>
					<UpperBound>4000</UpperBound>
					<value>-91445760000000000,100.,0,0,0,0,0,0</value>
					</parameter>
					<parameter authoringApp="PremierePro">
					<parameterid>8</parameterid>
					<name></name>
					<IsTimeVarying>false</IsTimeVarying>
					<ParameterControlType>2</ParameterControlType>
					<LowerBound>0</LowerBound>
					<UpperBound>100</UpperBound>
					<value>-91445760000000000,100.,0,0,0,0,0,0</value>
					</parameter>
					</effect>
					</filter>
					<logginginfo>
					<description></description>
					<scene></scene>
					<shottake></shottake>
					<lognote></lognote>
					<good></good>
					<originalvideofilename></originalvideofilename>
					<originalaudiofilename></originalaudiofilename>
					</logginginfo>
					<colorinfo>
					<lut></lut>
					<lut1></lut1>
					<asc_sop></asc_sop>
					<asc_sat></asc_sat>
					<lut2></lut2>
					</colorinfo>
					<labels>
					</labels>
					</clipitem>
					<clipitem frameBlend="FALSE" id="clipitem-758">
					<masterclipid>masterclip-678</masterclipid>
					<name></name>
					<enabled>TRUE</enabled>
					<duration>2582774</duration>
					<rate>
					
					                                    <timebase>60</timebase>
					                                    <ntsc>TRUE</ntsc>
					                                
					</rate>
					<start>6706</start>
					<end>6766</end>
					<in>6706</in>
					<out>6766</out>
					<pproTicksIn>914456774963789</pproTicksIn>
					<pproTicksOut>914677708529577</pproTicksOut>
					<alphatype>straight</alphatype>
					<pixelaspectratio>square</pixelaspectratio>
					<anamorphic>FALSE</anamorphic>
					<file id="file-677">
					<name></name>
					<mediaSource>GraphicAndType</mediaSource>
					<rate>
					<timebase>60</timebase>
					<ntsc>TRUE</ntsc>
					</rate>
					<timecode>
					<rate>
					<timebase>60</timebase>
					<ntsc>TRUE</ntsc>
					</rate>
					<string>00:00:00:00</string>
					<frame>0</frame>
					<displayformat>NDF</displayformat>
					</timecode>
					<media>
					<video>
					<samplecharacteristics>
					<rate>
					<timebase>60</timebase>
					<ntsc>TRUE</ntsc>
					</rate>
					<width>1080</width>
					<height>1920</height>
					<anamorphic>FALSE</anamorphic>
					<pixelaspectratio>square</pixelaspectratio>
					<fielddominance>none</fielddominance>
					</samplecharacteristics>
					</video>
					</media>
					</file>
					<filter>
					<effect>
					<name></name>
					<effectid>GraphicAndType</effectid>
					<effectcategory>graphic</effectcategory>
					<effecttype>filter</effecttype>
					<mediatype>video</mediatype>
					<pproBypass>false</pproBypass>
					<parameter authoringApp="PremierePro">
					<parameterid>1</parameterid>
					<name></name>
					<hash>025b1101-ead6-0ca2-1feb-caf3000001fc</hash>
					<value>5AEAAAAAAABEMyIRDAAAAAAABgAKAAQABgAAAGQAAAAAAF4ASAAQAAwARABAADwAOAAAAAAAAAAAADQAMwAsAAAAKAAkACAAAAAAAAAAAAAAAAAAHAAAAAAAGgAAAAAAAAAUAAAAAAAAAAAAAAAAAAAAAAAAAAgAAAAAABsABwBeAAAAAAAAAUAAAABQAAAAbAAAAAIAAAAAAAEAAQAAAAAAQEEAAMBAAABAQAAAyEIAAAABIAAAAAIAAAACAAAAAAA2QwCASkTw/v//9P7///j+//8S////AAAAAAEAAAAEAAAAEQAAAEhHUFNvZWlLYWt1cG9wdGFpAAAAAQAAAAwAAAAIAAwABAAIAAgAAAAIAAAAUAAAAA8AAADvvIEAAAAAAAAAAAAAAAAAAAA2ACQAAAAgABwAAAAAABsAFAAAAAAAAAAAAAAAAAAAAAAAAAAAABAAAAAAAAAADAAAAAgABAA2AAAAAgAAABwAAAAcAAAAHAAAAAAAIEEAAAABaAAAAE3PAEOw////tP///wEAAAAUAAAAEAAaAAgABwAMAAAAEAAUABAAAAAAAAABHAAAAAAAoEEcAAAAAgAAAAAACgAIAAUABgAHAAoAAAAADAD//P///wQABAAEAAAACAAIAAYABwAIAAAAAAAMAA==</value>
					</parameter>
					<parameter authoringApp="PremierePro">
					<parameterid>2</parameterid>
					<name></name>
					<IsTimeVarying>false</IsTimeVarying>
					<ParameterControlType>11</ParameterControlType>
					<LowerBound>false</LowerBound>
					<UpperBound>false</UpperBound>
					<value>-91445760000000000,false,0,0,0,0,0,0</value>
					</parameter>
					<parameter authoringApp="PremierePro">
					<parameterid>3</parameterid>
					<name></name>
					<IsTimeVarying>false</IsTimeVarying>
					<value>-91445760000000000,0.5:0.5,0,0,0,0,0,0,5,4,0,0,0,0</value>
					</parameter>
					<parameter authoringApp="PremierePro">
					<parameterid>4</parameterid>
					<name></name>
					<IsTimeVarying>false</IsTimeVarying>
					<ParameterControlType>2</ParameterControlType>
					<LowerBound>0</LowerBound>
					<UpperBound>4000</UpperBound>
					<value>-91445760000000000,100.,0,0,0,0,0,0</value>
					</parameter>
					<parameter authoringApp="PremierePro">
					<parameterid>8</parameterid>
					<name></name>
					<IsTimeVarying>false</IsTimeVarying>
					<ParameterControlType>2</ParameterControlType>
					<LowerBound>0</LowerBound>
					<UpperBound>100</UpperBound>
					<value>-91445760000000000,100.,0,0,0,0,0,0</value>
					</parameter>
					</effect>
					</filter>
					<logginginfo>
					<description></description>
					<scene></scene>
					<shottake></shottake>
					<lognote></lognote>
					<good></good>
					<originalvideofilename></originalvideofilename>
					<originalaudiofilename></originalaudiofilename>
					</logginginfo>
					<colorinfo>
					<lut></lut>
					<lut1></lut1>
					<asc_sop></asc_sop>
					<asc_sat></asc_sat>
					<lut2></lut2>
					</colorinfo>
					<labels>
					</labels>
					</clipitem>
					<clipitem frameBlend="FALSE" id="clipitem-762">
					<masterclipid>masterclip-682</masterclipid>
					<name></name>
					<enabled>TRUE</enabled>
					<duration>2582774</duration>
					<rate>
					
					                                    <timebase>60</timebase>
					                                    <ntsc>TRUE</ntsc>
					                                
					</rate>
					<start>6766</start>
					<end>6826</end>
					<in>6766</in>
					<out>6826</out>
					<pproTicksIn>914456774963789</pproTicksIn>
					<pproTicksOut>914677708529577</pproTicksOut>
					<alphatype>straight</alphatype>
					<pixelaspectratio>square</pixelaspectratio>
					<anamorphic>FALSE</anamorphic>
					<file id="file-681">
					<name></name>
					<mediaSource>GraphicAndType</mediaSource>
					<rate>
					<timebase>60</timebase>
					<ntsc>TRUE</ntsc>
					</rate>
					<timecode>
					<rate>
					<timebase>60</timebase>
					<ntsc>TRUE</ntsc>
					</rate>
					<string>00:00:00:00</string>
					<frame>0</frame>
					<displayformat>NDF</displayformat>
					</timecode>
					<media>
					<video>
					<samplecharacteristics>
					<rate>
					<timebase>60</timebase>
					<ntsc>TRUE</ntsc>
					</rate>
					<width>1080</width>
					<height>1920</height>
					<anamorphic>FALSE</anamorphic>
					<pixelaspectratio>square</pixelaspectratio>
					<fielddominance>none</fielddominance>
					</samplecharacteristics>
					</video>
					</media>
					</file>
					<filter>
					<effect>
					<name></name>
					<effectid>GraphicAndType</effectid>
					<effectcategory>graphic</effectcategory>
					<effecttype>filter</effecttype>
					<mediatype>video</mediatype>
					<pproBypass>false</pproBypass>
					<parameter authoringApp="PremierePro">
					<parameterid>1</parameterid>
					<name></name>
					<hash>025b1101-ead6-0ca2-1feb-caf3000001fc</hash>
					<value>5AEAAAAAAABEMyIRDAAAAAAABgAKAAQABgAAAGQAAAAAAF4ASAAQAAwARABAADwAOAAAAAAAAAAAADQAMwAsAAAAKAAkACAAAAAAAAAAAAAAAAAAHAAAAAAAGgAAAAAAAAAUAAAAAAAAAAAAAAAAAAAAAAAAAAgAAAAAABsABwBeAAAAAAAAAUAAAABQAAAAbAAAAAIAAAAAAAEAAQAAAAAAQEEAAMBAAABAQAAAyEIAAAABIAAAAAIAAAACAAAAAAA2QwCASkTw/v//9P7///j+//8S////AAAAAAEAAAAEAAAAEQAAAEhHUFNvZWlLYWt1cG9wdGFpAAAAAQAAAAwAAAAIAAwABAAIAAgAAAAIAAAAUAAAAA8AAADvvIEAAAAAAAAAAAAAAAAAAAA2ACQAAAAgABwAAAAAABsAFAAAAAAAAAAAAAAAAAAAAAAAAAAAABAAAAAAAAAADAAAAAgABAA2AAAAAgAAABwAAAAcAAAAHAAAAAAAIEEAAAABaAAAAE3PAEOw////tP///wEAAAAUAAAAEAAaAAgABwAMAAAAEAAUABAAAAAAAAABHAAAAAAAoEEcAAAAAgAAAAAACgAIAAUABgAHAAoAAAAADAD//P///wQABAAEAAAACAAIAAYABwAIAAAAAAAMAA==</value>
					</parameter>
					<parameter authoringApp="PremierePro">
					<parameterid>2</parameterid>
					<name></name>
					<IsTimeVarying>false</IsTimeVarying>
					<ParameterControlType>11</ParameterControlType>
					<LowerBound>false</LowerBound>
					<UpperBound>false</UpperBound>
					<value>-91445760000000000,false,0,0,0,0,0,0</value>
					</parameter>
					<parameter authoringApp="PremierePro">
					<parameterid>3</parameterid>
					<name></name>
					<IsTimeVarying>false</IsTimeVarying>
					<value>-91445760000000000,0.5:0.5,0,0,0,0,0,0,5,4,0,0,0,0</value>
					</parameter>
					<parameter authoringApp="PremierePro">
					<parameterid>4</parameterid>
					<name></name>
					<IsTimeVarying>false</IsTimeVarying>
					<ParameterControlType>2</ParameterControlType>
					<LowerBound>0</LowerBound>
					<UpperBound>4000</UpperBound>
					<value>-91445760000000000,100.,0,0,0,0,0,0</value>
					</parameter>
					<parameter authoringApp="PremierePro">
					<parameterid>8</parameterid>
					<name></name>
					<IsTimeVarying>false</IsTimeVarying>
					<ParameterControlType>2</ParameterControlType>
					<LowerBound>0</LowerBound>
					<UpperBound>100</UpperBound>
					<value>-91445760000000000,100.,0,0,0,0,0,0</value>
					</parameter>
					</effect>
					</filter>
					<logginginfo>
					<description></description>
					<scene></scene>
					<shottake></shottake>
					<lognote></lognote>
					<good></good>
					<originalvideofilename></originalvideofilename>
					<originalaudiofilename></originalaudiofilename>
					</logginginfo>
					<colorinfo>
					<lut></lut>
					<lut1></lut1>
					<asc_sop></asc_sop>
					<asc_sat></asc_sat>
					<lut2></lut2>
					</colorinfo>
					<labels>
					</labels>
					</clipitem>
					<clipitem id="clipitem-766"/>
					                        </track>
					                        <track TL.SQTrackShy="0" TL.SQTrackExpandedHeight="25" TL.SQTrackExpanded="0" MZ.TrackTargeted="0">
					<clipitem frameBlend="FALSE" id="clipitem-767">
					<masterclipid>masterclip-687</masterclipid>
					<name></name>
					<enabled>TRUE</enabled>
					<duration>2582774</duration>
					<rate>
					
					                                    <timebase>60</timebase>
					                                    <ntsc>TRUE</ntsc>
					                                
					</rate>
					<start>6832</start>
					<end>6898</end>
					<in>6832</in>
					<out>6898</out>
					<pproTicksIn>914456774963789</pproTicksIn>
					<pproTicksOut>914677708529577</pproTicksOut>
					<alphatype>straight</alphatype>
					<pixelaspectratio>square</pixelaspectratio>
					<anamorphic>FALSE</anamorphic>
					<file id="file-686">
					<name></name>
					<mediaSource>GraphicAndType</mediaSource>
					<rate>
					<timebase>60</timebase>
					<ntsc>TRUE</ntsc>
					</rate>
					<timecode>
					<rate>
					<timebase>60</timebase>
					<ntsc>TRUE</ntsc>
					</rate>
					<string>00:00:00:00</string>
					<frame>0</frame>
					<displayformat>NDF</displayformat>
					</timecode>
					<media>
					<video>
					<samplecharacteristics>
					<rate>
					<timebase>60</timebase>
					<ntsc>TRUE</ntsc>
					</rate>
					<width>1080</width>
					<height>1920</height>
					<anamorphic>FALSE</anamorphic>
					<pixelaspectratio>square</pixelaspectratio>
					<fielddominance>none</fielddominance>
					</samplecharacteristics>
					</video>
					</media>
					</file>
					<filter>
					<effect>
					<name></name>
					<effectid>GraphicAndType</effectid>
					<effectcategory>graphic</effectcategory>
					<effecttype>filter</effecttype>
					<mediatype>video</mediatype>
					<pproBypass>false</pproBypass>
					<parameter authoringApp="PremierePro">
					<parameterid>1</parameterid>
					<name></name>
					<hash>025b1101-ead6-0ca2-1feb-caf3000001fc</hash>
					<value>5AEAAAAAAABEMyIRDAAAAAAABgAKAAQABgAAAGQAAAAAAF4ASAAQAAwARABAADwAOAAAAAAAAAAAADQAMwAsAAAAKAAkACAAAAAAAAAAAAAAAAAAHAAAAAAAGgAAAAAAAAAUAAAAAAAAAAAAAAAAAAAAAAAAAAgAAAAAABsABwBeAAAAAAAAAUAAAABQAAAAbAAAAAIAAAAAAAEAAQAAAAAAQEEAAMBAAABAQAAAyEIAAAABIAAAAAIAAAACAAAAAAA2QwCASkTw/v//9P7///j+//8S////AAAAAAEAAAAEAAAAEQAAAEhHUFNvZWlLYWt1cG9wdGFpAAAAAQAAAAwAAAAIAAwABAAIAAgAAAAIAAAAUAAAAA8AAADvvIEAAAAAAAAAAAAAAAAAAAA2ACQAAAAgABwAAAAAABsAFAAAAAAAAAAAAAAAAAAAAAAAAAAAABAAAAAAAAAADAAAAAgABAA2AAAAAgAAABwAAAAcAAAAHAAAAAAAIEEAAAABaAAAAE3PAEOw////tP///wEAAAAUAAAAEAAaAAgABwAMAAAAEAAUABAAAAAAAAABHAAAAAAAoEEcAAAAAgAAAAAACgAIAAUABgAHAAoAAAAADAD//P///wQABAAEAAAACAAIAAYABwAIAAAAAAAMAA==</value>
					</parameter>
					<parameter authoringApp="PremierePro">
					<parameterid>2</parameterid>
					<name></name>
					<IsTimeVarying>false</IsTimeVarying>
					<ParameterControlType>11</ParameterControlType>
					<LowerBound>false</LowerBound>
					<UpperBound>false</UpperBound>
					<value>-91445760000000000,false,0,0,0,0,0,0</value>
					</parameter>
					<parameter authoringApp="PremierePro">
					<parameterid>3</parameterid>
					<name></name>
					<IsTimeVarying>false</IsTimeVarying>
					<value>-91445760000000000,0.5:0.5,0,0,0,0,0,0,5,4,0,0,0,0</value>
					</parameter>
					<parameter authoringApp="PremierePro">
					<parameterid>4</parameterid>
					<name></name>
					<IsTimeVarying>false</IsTimeVarying>
					<ParameterControlType>2</ParameterControlType>
					<LowerBound>0</LowerBound>
					<UpperBound>4000</UpperBound>
					<value>-91445760000000000,100.,0,0,0,0,0,0</value>
					</parameter>
					<parameter authoringApp="PremierePro">
					<parameterid>8</parameterid>
					<name></name>
					<IsTimeVarying>false</IsTimeVarying>
					<ParameterControlType>2</ParameterControlType>
					<LowerBound>0</LowerBound>
					<UpperBound>100</UpperBound>
					<value>-91445760000000000,100.,0,0,0,0,0,0</value>
					</parameter>
					</effect>
					</filter>
					<logginginfo>
					<description></description>
					<scene></scene>
					<shottake></shottake>
					<lognote></lognote>
					<good></good>
					<originalvideofilename></originalvideofilename>
					<originalaudiofilename></originalaudiofilename>
					</logginginfo>
					<colorinfo>
					<lut></lut>
					<lut1></lut1>
					<asc_sop></asc_sop>
					<asc_sat></asc_sat>
					<lut2></lut2>
					</colorinfo>
					<labels>
					</labels>
					</clipitem>
					<clipitem frameBlend="FALSE" id="clipitem-772">
					<masterclipid>masterclip-692</masterclipid>
					<name></name>
					<enabled>TRUE</enabled>
					<duration>2582774</duration>
					<rate>
					
					                                    <timebase>60</timebase>
					                                    <ntsc>TRUE</ntsc>
					                                
					</rate>
					<start>6898</start>
					<end>6958</end>
					<in>6898</in>
					<out>6958</out>
					<pproTicksIn>914456774963789</pproTicksIn>
					<pproTicksOut>914677708529577</pproTicksOut>
					<alphatype>straight</alphatype>
					<pixelaspectratio>square</pixelaspectratio>
					<anamorphic>FALSE</anamorphic>
					<file id="file-691">
					<name></name>
					<mediaSource>GraphicAndType</mediaSource>
					<rate>
					<timebase>60</timebase>
					<ntsc>TRUE</ntsc>
					</rate>
					<timecode>
					<rate>
					<timebase>60</timebase>
					<ntsc>TRUE</ntsc>
					</rate>
					<string>00:00:00:00</string>
					<frame>0</frame>
					<displayformat>NDF</displayformat>
					</timecode>
					<media>
					<video>
					<samplecharacteristics>
					<rate>
					<timebase>60</timebase>
					<ntsc>TRUE</ntsc>
					</rate>
					<width>1080</width>
					<height>1920</height>
					<anamorphic>FALSE</anamorphic>
					<pixelaspectratio>square</pixelaspectratio>
					<fielddominance>none</fielddominance>
					</samplecharacteristics>
					</video>
					</media>
					</file>
					<filter>
					<effect>
					<name></name>
					<effectid>GraphicAndType</effectid>
					<effectcategory>graphic</effectcategory>
					<effecttype>filter</effecttype>
					<mediatype>video</mediatype>
					<pproBypass>false</pproBypass>
					<parameter authoringApp="PremierePro">
					<parameterid>1</parameterid>
					<name></name>
					<hash>025b1101-ead6-0ca2-1feb-caf3000001fc</hash>
					<value>5AEAAAAAAABEMyIRDAAAAAAABgAKAAQABgAAAGQAAAAAAF4ASAAQAAwARABAADwAOAAAAAAAAAAAADQAMwAsAAAAKAAkACAAAAAAAAAAAAAAAAAAHAAAAAAAGgAAAAAAAAAUAAAAAAAAAAAAAAAAAAAAAAAAAAgAAAAAABsABwBeAAAAAAAAAUAAAABQAAAAbAAAAAIAAAAAAAEAAQAAAAAAQEEAAMBAAABAQAAAyEIAAAABIAAAAAIAAAACAAAAAAA2QwCASkTw/v//9P7///j+//8S////AAAAAAEAAAAEAAAAEQAAAEhHUFNvZWlLYWt1cG9wdGFpAAAAAQAAAAwAAAAIAAwABAAIAAgAAAAIAAAAUAAAAA8AAADvvIEAAAAAAAAAAAAAAAAAAAA2ACQAAAAgABwAAAAAABsAFAAAAAAAAAAAAAAAAAAAAAAAAAAAABAAAAAAAAAADAAAAAgABAA2AAAAAgAAABwAAAAcAAAAHAAAAAAAIEEAAAABaAAAAE3PAEOw////tP///wEAAAAUAAAAEAAaAAgABwAMAAAAEAAUABAAAAAAAAABHAAAAAAAoEEcAAAAAgAAAAAACgAIAAUABgAHAAoAAAAADAD//P///wQABAAEAAAACAAIAAYABwAIAAAAAAAMAA==</value>
					</parameter>
					<parameter authoringApp="PremierePro">
					<parameterid>2</parameterid>
					<name></name>
					<IsTimeVarying>false</IsTimeVarying>
					<ParameterControlType>11</ParameterControlType>
					<LowerBound>false</LowerBound>
					<UpperBound>false</UpperBound>
					<value>-91445760000000000,false,0,0,0,0,0,0</value>
					</parameter>
					<parameter authoringApp="PremierePro">
					<parameterid>3</parameterid>
					<name></name>
					<IsTimeVarying>false</IsTimeVarying>
					<value>-91445760000000000,0.5:0.5,0,0,0,0,0,0,5,4,0,0,0,0</value>
					</parameter>
					<parameter authoringApp="PremierePro">
					<parameterid>4</parameterid>
					<name></name>
					<IsTimeVarying>false</IsTimeVarying>
					<ParameterControlType>2</ParameterControlType>
					<LowerBound>0</LowerBound>
					<UpperBound>4000</UpperBound>
					<value>-91445760000000000,100.,0,0,0,0,0,0</value>
					</parameter>
					<parameter authoringApp="PremierePro">
					<parameterid>8</parameterid>
					<name></name>
					<IsTimeVarying>false</IsTimeVarying>
					<ParameterControlType>2</ParameterControlType>
					<LowerBound>0</LowerBound>
					<UpperBound>100</UpperBound>
					<value>-91445760000000000,100.,0,0,0,0,0,0</value>
					</parameter>
					</effect>
					</filter>
					<logginginfo>
					<description></description>
					<scene></scene>
					<shottake></shottake>
					<lognote></lognote>
					<good></good>
					<originalvideofilename></originalvideofilename>
					<originalaudiofilename></originalaudiofilename>
					</logginginfo>
					<colorinfo>
					<lut></lut>
					<lut1></lut1>
					<asc_sop></asc_sop>
					<asc_sat></asc_sat>
					<lut2></lut2>
					</colorinfo>
					<labels>
					</labels>
					</clipitem>
					<clipitem frameBlend="FALSE" id="clipitem-780">
					<masterclipid>masterclip-700</masterclipid>
					<name></name>
					<enabled>TRUE</enabled>
					<duration>2582774</duration>
					<rate>
					
					                                    <timebase>60</timebase>
					                                    <ntsc>TRUE</ntsc>
					                                
					</rate>
					<start>6958</start>
					<end>7018</end>
					<in>6958</in>
					<out>7018</out>
					<pproTicksIn>914456774963789</pproTicksIn>
					<pproTicksOut>914677708529577</pproTicksOut>
					<alphatype>straight</alphatype>
					<pixelaspectratio>square</pixelaspectratio>
					<anamorphic>FALSE</anamorphic>
					<file id="file-699">
					<name></name>
					<mediaSource>GraphicAndType</mediaSource>
					<rate>
					<timebase>60</timebase>
					<ntsc>TRUE</ntsc>
					</rate>
					<timecode>
					<rate>
					<timebase>60</timebase>
					<ntsc>TRUE</ntsc>
					</rate>
					<string>00:00:00:00</string>
					<frame>0</frame>
					<displayformat>NDF</displayformat>
					</timecode>
					<media>
					<video>
					<samplecharacteristics>
					<rate>
					<timebase>60</timebase>
					<ntsc>TRUE</ntsc>
					</rate>
					<width>1080</width>
					<height>1920</height>
					<anamorphic>FALSE</anamorphic>
					<pixelaspectratio>square</pixelaspectratio>
					<fielddominance>none</fielddominance>
					</samplecharacteristics>
					</video>
					</media>
					</file>
					<filter>
					<effect>
					<name></name>
					<effectid>GraphicAndType</effectid>
					<effectcategory>graphic</effectcategory>
					<effecttype>filter</effecttype>
					<mediatype>video</mediatype>
					<pproBypass>false</pproBypass>
					<parameter authoringApp="PremierePro">
					<parameterid>1</parameterid>
					<name></name>
					<hash>025b1101-ead6-0ca2-1feb-caf3000001fc</hash>
					<value>5AEAAAAAAABEMyIRDAAAAAAABgAKAAQABgAAAGQAAAAAAF4ASAAQAAwARABAADwAOAAAAAAAAAAAADQAMwAsAAAAKAAkACAAAAAAAAAAAAAAAAAAHAAAAAAAGgAAAAAAAAAUAAAAAAAAAAAAAAAAAAAAAAAAAAgAAAAAABsABwBeAAAAAAAAAUAAAABQAAAAbAAAAAIAAAAAAAEAAQAAAAAAQEEAAMBAAABAQAAAyEIAAAABIAAAAAIAAAACAAAAAAA2QwCASkTw/v//9P7///j+//8S////AAAAAAEAAAAEAAAAEQAAAEhHUFNvZWlLYWt1cG9wdGFpAAAAAQAAAAwAAAAIAAwABAAIAAgAAAAIAAAAUAAAAA8AAADvvIEAAAAAAAAAAAAAAAAAAAA2ACQAAAAgABwAAAAAABsAFAAAAAAAAAAAAAAAAAAAAAAAAAAAABAAAAAAAAAADAAAAAgABAA2AAAAAgAAABwAAAAcAAAAHAAAAAAAIEEAAAABaAAAAE3PAEOw////tP///wEAAAAUAAAAEAAaAAgABwAMAAAAEAAUABAAAAAAAAABHAAAAAAAoEEcAAAAAgAAAAAACgAIAAUABgAHAAoAAAAADAD//P///wQABAAEAAAACAAIAAYABwAIAAAAAAAMAA==</value>
					</parameter>
					<parameter authoringApp="PremierePro">
					<parameterid>2</parameterid>
					<name></name>
					<IsTimeVarying>false</IsTimeVarying>
					<ParameterControlType>11</ParameterControlType>
					<LowerBound>false</LowerBound>
					<UpperBound>false</UpperBound>
					<value>-91445760000000000,false,0,0,0,0,0,0</value>
					</parameter>
					<parameter authoringApp="PremierePro">
					<parameterid>3</parameterid>
					<name></name>
					<IsTimeVarying>false</IsTimeVarying>
					<value>-91445760000000000,0.5:0.5,0,0,0,0,0,0,5,4,0,0,0,0</value>
					</parameter>
					<parameter authoringApp="PremierePro">
					<parameterid>4</parameterid>
					<name></name>
					<IsTimeVarying>false</IsTimeVarying>
					<ParameterControlType>2</ParameterControlType>
					<LowerBound>0</LowerBound>
					<UpperBound>4000</UpperBound>
					<value>-91445760000000000,100.,0,0,0,0,0,0</value>
					</parameter>
					<parameter authoringApp="PremierePro">
					<parameterid>8</parameterid>
					<name></name>
					<IsTimeVarying>false</IsTimeVarying>
					<ParameterControlType>2</ParameterControlType>
					<LowerBound>0</LowerBound>
					<UpperBound>100</UpperBound>
					<value>-91445760000000000,100.,0,0,0,0,0,0</value>
					</parameter>
					</effect>
					</filter>
					<logginginfo>
					<description></description>
					<scene></scene>
					<shottake></shottake>
					<lognote></lognote>
					<good></good>
					<originalvideofilename></originalvideofilename>
					<originalaudiofilename></originalaudiofilename>
					</logginginfo>
					<colorinfo>
					<lut></lut>
					<lut1></lut1>
					<asc_sop></asc_sop>
					<asc_sat></asc_sat>
					<lut2></lut2>
					</colorinfo>
					<labels>
					</labels>
					</clipitem>
					<clipitem frameBlend="FALSE" id="clipitem-785">
					<masterclipid>masterclip-705</masterclipid>
					<name></name>
					<enabled>TRUE</enabled>
					<duration>2582774</duration>
					<rate>
					
					                                    <timebase>60</timebase>
					                                    <ntsc>TRUE</ntsc>
					                                
					</rate>
					<start>7036</start>
					<end>7060</end>
					<in>7036</in>
					<out>7060</out>
					<pproTicksIn>914456774963789</pproTicksIn>
					<pproTicksOut>914677708529577</pproTicksOut>
					<alphatype>straight</alphatype>
					<pixelaspectratio>square</pixelaspectratio>
					<anamorphic>FALSE</anamorphic>
					<file id="file-704">
					<name></name>
					<mediaSource>GraphicAndType</mediaSource>
					<rate>
					<timebase>60</timebase>
					<ntsc>TRUE</ntsc>
					</rate>
					<timecode>
					<rate>
					<timebase>60</timebase>
					<ntsc>TRUE</ntsc>
					</rate>
					<string>00:00:00:00</string>
					<frame>0</frame>
					<displayformat>NDF</displayformat>
					</timecode>
					<media>
					<video>
					<samplecharacteristics>
					<rate>
					<timebase>60</timebase>
					<ntsc>TRUE</ntsc>
					</rate>
					<width>1080</width>
					<height>1920</height>
					<anamorphic>FALSE</anamorphic>
					<pixelaspectratio>square</pixelaspectratio>
					<fielddominance>none</fielddominance>
					</samplecharacteristics>
					</video>
					</media>
					</file>
					<filter>
					<effect>
					<name></name>
					<effectid>GraphicAndType</effectid>
					<effectcategory>graphic</effectcategory>
					<effecttype>filter</effecttype>
					<mediatype>video</mediatype>
					<pproBypass>false</pproBypass>
					<parameter authoringApp="PremierePro">
					<parameterid>1</parameterid>
					<name></name>
					<hash>025b1101-ead6-0ca2-1feb-caf3000001fc</hash>
					<value>5AEAAAAAAABEMyIRDAAAAAAABgAKAAQABgAAAGQAAAAAAF4ASAAQAAwARABAADwAOAAAAAAAAAAAADQAMwAsAAAAKAAkACAAAAAAAAAAAAAAAAAAHAAAAAAAGgAAAAAAAAAUAAAAAAAAAAAAAAAAAAAAAAAAAAgAAAAAABsABwBeAAAAAAAAAUAAAABQAAAAbAAAAAIAAAAAAAEAAQAAAAAAQEEAAMBAAABAQAAAyEIAAAABIAAAAAIAAAACAAAAAAA2QwCASkTw/v//9P7///j+//8S////AAAAAAEAAAAEAAAAEQAAAEhHUFNvZWlLYWt1cG9wdGFpAAAAAQAAAAwAAAAIAAwABAAIAAgAAAAIAAAAUAAAAA8AAADvvIEAAAAAAAAAAAAAAAAAAAA2ACQAAAAgABwAAAAAABsAFAAAAAAAAAAAAAAAAAAAAAAAAAAAABAAAAAAAAAADAAAAAgABAA2AAAAAgAAABwAAAAcAAAAHAAAAAAAIEEAAAABaAAAAE3PAEOw////tP///wEAAAAUAAAAEAAaAAgABwAMAAAAEAAUABAAAAAAAAABHAAAAAAAoEEcAAAAAgAAAAAACgAIAAUABgAHAAoAAAAADAD//P///wQABAAEAAAACAAIAAYABwAIAAAAAAAMAA==</value>
					</parameter>
					<parameter authoringApp="PremierePro">
					<parameterid>2</parameterid>
					<name></name>
					<IsTimeVarying>false</IsTimeVarying>
					<ParameterControlType>11</ParameterControlType>
					<LowerBound>false</LowerBound>
					<UpperBound>false</UpperBound>
					<value>-91445760000000000,false,0,0,0,0,0,0</value>
					</parameter>
					<parameter authoringApp="PremierePro">
					<parameterid>3</parameterid>
					<name></name>
					<IsTimeVarying>false</IsTimeVarying>
					<value>-91445760000000000,0.5:0.5,0,0,0,0,0,0,5,4,0,0,0,0</value>
					</parameter>
					<parameter authoringApp="PremierePro">
					<parameterid>4</parameterid>
					<name></name>
					<IsTimeVarying>false</IsTimeVarying>
					<ParameterControlType>2</ParameterControlType>
					<LowerBound>0</LowerBound>
					<UpperBound>4000</UpperBound>
					<value>-91445760000000000,100.,0,0,0,0,0,0</value>
					</parameter>
					<parameter authoringApp="PremierePro">
					<parameterid>8</parameterid>
					<name></name>
					<IsTimeVarying>false</IsTimeVarying>
					<ParameterControlType>2</ParameterControlType>
					<LowerBound>0</LowerBound>
					<UpperBound>100</UpperBound>
					<value>-91445760000000000,100.,0,0,0,0,0,0</value>
					</parameter>
					</effect>
					</filter>
					<logginginfo>
					<description></description>
					<scene></scene>
					<shottake></shottake>
					<lognote></lognote>
					<good></good>
					<originalvideofilename></originalvideofilename>
					<originalaudiofilename></originalaudiofilename>
					</logginginfo>
					<colorinfo>
					<lut></lut>
					<lut1></lut1>
					<asc_sop></asc_sop>
					<asc_sat></asc_sat>
					<lut2></lut2>
					</colorinfo>
					<labels>
					</labels>
					</clipitem>
					<enabled>TRUE</enabled>
					<locked>FALSE</locked>
				</track>
				<track TL.SQTrackShy="0" TL.SQTrackExpandedHeight="25" TL.SQTrackExpanded="0" MZ.TrackTargeted="0">
					<clipitem frameBlend="FALSE" id="clipitem-122">
					<masterclipid>masterclip-42</masterclipid>
					<name></name>
					<enabled>TRUE</enabled>
					<duration>2582774</duration>
					<rate>
					
					                                    <timebase>60</timebase>
					                                    <ntsc>TRUE</ntsc>
					                                
					</rate>
					<start>59</start>
					<end>119</end>
					<in>59</in>
					<out>119</out>
					<pproTicksIn>914456774963789</pproTicksIn>
					<pproTicksOut>914677708529577</pproTicksOut>
					<alphatype>straight</alphatype>
					<pixelaspectratio>square</pixelaspectratio>
					<anamorphic>FALSE</anamorphic>
					<file id="file-41">
					<name></name>
					<mediaSource>GraphicAndType</mediaSource>
					<rate>
					<timebase>60</timebase>
					<ntsc>TRUE</ntsc>
					</rate>
					<timecode>
					<rate>
					<timebase>60</timebase>
					<ntsc>TRUE</ntsc>
					</rate>
					<string>00:00:00:00</string>
					<frame>0</frame>
					<displayformat>NDF</displayformat>
					</timecode>
					<media>
					<video>
					<samplecharacteristics>
					<rate>
					<timebase>60</timebase>
					<ntsc>TRUE</ntsc>
					</rate>
					<width>1080</width>
					<height>1920</height>
					<anamorphic>FALSE</anamorphic>
					<pixelaspectratio>square</pixelaspectratio>
					<fielddominance>none</fielddominance>
					</samplecharacteristics>
					</video>
					</media>
					</file>
					<filter>
					<effect>
					<name></name>
					<effectid>GraphicAndType</effectid>
					<effectcategory>graphic</effectcategory>
					<effecttype>filter</effecttype>
					<mediatype>video</mediatype>
					<pproBypass>false</pproBypass>
					<parameter authoringApp="PremierePro">
					<parameterid>1</parameterid>
					<name></name>
					<hash>025b1101-ead6-0ca2-1feb-caf3000001fc</hash>
					<value>5AEAAAAAAABEMyIRDAAAAAAABgAKAAQABgAAAGQAAAAAAF4ASAAQAAwARABAADwAOAAAAAAAAAAAADQAMwAsAAAAKAAkACAAAAAAAAAAAAAAAAAAHAAAAAAAGgAAAAAAAAAUAAAAAAAAAAAAAAAAAAAAAAAAAAgAAAAAABsABwBeAAAAAAAAAUAAAABQAAAAbAAAAAIAAAAAAAEAAQAAAAAAQEEAAMBAAABAQAAAyEIAAAABIAAAAAIAAAACAAAAAAA2QwCASkTw/v//9P7///j+//8S////AAAAAAEAAAAEAAAAEQAAAEhHUFNvZWlLYWt1cG9wdGFpAAAAAQAAAAwAAAAIAAwABAAIAAgAAAAIAAAAUAAAAA8AAADvvIEAAAAAAAAAAAAAAAAAAAA2ACQAAAAgABwAAAAAABsAFAAAAAAAAAAAAAAAAAAAAAAAAAAAABAAAAAAAAAADAAAAAgABAA2AAAAAgAAABwAAAAcAAAAHAAAAAAAIEEAAAABaAAAAE3PAEOw////tP///wEAAAAUAAAAEAAaAAgABwAMAAAAEAAUABAAAAAAAAABHAAAAAAAoEEcAAAAAgAAAAAACgAIAAUABgAHAAoAAAAADAD//P///wQABAAEAAAACAAIAAYABwAIAAAAAAAMAA==</value>
					</parameter>
					<parameter authoringApp="PremierePro">
					<parameterid>2</parameterid>
					<name></name>
					<IsTimeVarying>false</IsTimeVarying>
					<ParameterControlType>11</ParameterControlType>
					<LowerBound>false</LowerBound>
					<UpperBound>false</UpperBound>
					<value>-91445760000000000,false,0,0,0,0,0,0</value>
					</parameter>
					<parameter authoringApp="PremierePro">
					<parameterid>3</parameterid>
					<name></name>
					<IsTimeVarying>false</IsTimeVarying>
					<value>-91445760000000000,0.5:0.5,0,0,0,0,0,0,5,4,0,0,0,0</value>
					</parameter>
					<parameter authoringApp="PremierePro">
					<parameterid>4</parameterid>
					<name></name>
					<IsTimeVarying>false</IsTimeVarying>
					<ParameterControlType>2</ParameterControlType>
					<LowerBound>0</LowerBound>
					<UpperBound>4000</UpperBound>
					<value>-91445760000000000,100.,0,0,0,0,0,0</value>
					</parameter>
					<parameter authoringApp="PremierePro">
					<parameterid>8</parameterid>
					<name></name>
					<IsTimeVarying>false</IsTimeVarying>
					<ParameterControlType>2</ParameterControlType>
					<LowerBound>0</LowerBound>
					<UpperBound>100</UpperBound>
					<value>-91445760000000000,100.,0,0,0,0,0,0</value>
					</parameter>
					</effect>
					</filter>
					<logginginfo>
					<description></description>
					<scene></scene>
					<shottake></shottake>
					<lognote></lognote>
					<good></good>
					<originalvideofilename></originalvideofilename>
					<originalaudiofilename></originalaudiofilename>
					</logginginfo>
					<colorinfo>
					<lut></lut>
					<lut1></lut1>
					<asc_sop></asc_sop>
					<asc_sat></asc_sat>
					<lut2></lut2>
					</colorinfo>
					<labels>
					</labels>
					</clipitem>
					<clipitem frameBlend="FALSE" id="clipitem-129">
					<masterclipid>masterclip-49</masterclipid>
					<name></name>
					<enabled>TRUE</enabled>
					<duration>2582774</duration>
					<rate>
					
					                                    <timebase>60</timebase>
					                                    <ntsc>TRUE</ntsc>
					                                
					</rate>
					<start>131</start>
					<end>191</end>
					<in>131</in>
					<out>191</out>
					<pproTicksIn>914456774963789</pproTicksIn>
					<pproTicksOut>914677708529577</pproTicksOut>
					<alphatype>straight</alphatype>
					<pixelaspectratio>square</pixelaspectratio>
					<anamorphic>FALSE</anamorphic>
					<file id="file-48">
					<name></name>
					<mediaSource>GraphicAndType</mediaSource>
					<rate>
					<timebase>60</timebase>
					<ntsc>TRUE</ntsc>
					</rate>
					<timecode>
					<rate>
					<timebase>60</timebase>
					<ntsc>TRUE</ntsc>
					</rate>
					<string>00:00:00:00</string>
					<frame>0</frame>
					<displayformat>NDF</displayformat>
					</timecode>
					<media>
					<video>
					<samplecharacteristics>
					<rate>
					<timebase>60</timebase>
					<ntsc>TRUE</ntsc>
					</rate>
					<width>1080</width>
					<height>1920</height>
					<anamorphic>FALSE</anamorphic>
					<pixelaspectratio>square</pixelaspectratio>
					<fielddominance>none</fielddominance>
					</samplecharacteristics>
					</video>
					</media>
					</file>
					<filter>
					<effect>
					<name></name>
					<effectid>GraphicAndType</effectid>
					<effectcategory>graphic</effectcategory>
					<effecttype>filter</effecttype>
					<mediatype>video</mediatype>
					<pproBypass>false</pproBypass>
					<parameter authoringApp="PremierePro">
					<parameterid>1</parameterid>
					<name></name>
					<hash>025b1101-ead6-0ca2-1feb-caf3000001fc</hash>
					<value>5AEAAAAAAABEMyIRDAAAAAAABgAKAAQABgAAAGQAAAAAAF4ASAAQAAwARABAADwAOAAAAAAAAAAAADQAMwAsAAAAKAAkACAAAAAAAAAAAAAAAAAAHAAAAAAAGgAAAAAAAAAUAAAAAAAAAAAAAAAAAAAAAAAAAAgAAAAAABsABwBeAAAAAAAAAUAAAABQAAAAbAAAAAIAAAAAAAEAAQAAAAAAQEEAAMBAAABAQAAAyEIAAAABIAAAAAIAAAACAAAAAAA2QwCASkTw/v//9P7///j+//8S////AAAAAAEAAAAEAAAAEQAAAEhHUFNvZWlLYWt1cG9wdGFpAAAAAQAAAAwAAAAIAAwABAAIAAgAAAAIAAAAUAAAAA8AAADvvIEAAAAAAAAAAAAAAAAAAAA2ACQAAAAgABwAAAAAABsAFAAAAAAAAAAAAAAAAAAAAAAAAAAAABAAAAAAAAAADAAAAAgABAA2AAAAAgAAABwAAAAcAAAAHAAAAAAAIEEAAAABaAAAAE3PAEOw////tP///wEAAAAUAAAAEAAaAAgABwAMAAAAEAAUABAAAAAAAAABHAAAAAAAoEEcAAAAAgAAAAAACgAIAAUABgAHAAoAAAAADAD//P///wQABAAEAAAACAAIAAYABwAIAAAAAAAMAA==</value>
					</parameter>
					<parameter authoringApp="PremierePro">
					<parameterid>2</parameterid>
					<name></name>
					<IsTimeVarying>false</IsTimeVarying>
					<ParameterControlType>11</ParameterControlType>
					<LowerBound>false</LowerBound>
					<UpperBound>false</UpperBound>
					<value>-91445760000000000,false,0,0,0,0,0,0</value>
					</parameter>
					<parameter authoringApp="PremierePro">
					<parameterid>3</parameterid>
					<name></name>
					<IsTimeVarying>false</IsTimeVarying>
					<value>-91445760000000000,0.5:0.5,0,0,0,0,0,0,5,4,0,0,0,0</value>
					</parameter>
					<parameter authoringApp="PremierePro">
					<parameterid>4</parameterid>
					<name></name>
					<IsTimeVarying>false</IsTimeVarying>
					<ParameterControlType>2</ParameterControlType>
					<LowerBound>0</LowerBound>
					<UpperBound>4000</UpperBound>
					<value>-91445760000000000,100.,0,0,0,0,0,0</value>
					</parameter>
					<parameter authoringApp="PremierePro">
					<parameterid>8</parameterid>
					<name></name>
					<IsTimeVarying>false</IsTimeVarying>
					<ParameterControlType>2</ParameterControlType>
					<LowerBound>0</LowerBound>
					<UpperBound>100</UpperBound>
					<value>-91445760000000000,100.,0,0,0,0,0,0</value>
					</parameter>
					</effect>
					</filter>
					<logginginfo>
					<description></description>
					<scene></scene>
					<shottake></shottake>
					<lognote></lognote>
					<good></good>
					<originalvideofilename></originalvideofilename>
					<originalaudiofilename></originalaudiofilename>
					</logginginfo>
					<colorinfo>
					<lut></lut>
					<lut1></lut1>
					<asc_sop></asc_sop>
					<asc_sat></asc_sat>
					<lut2></lut2>
					</colorinfo>
					<labels>
					</labels>
					</clipitem>
					<clipitem frameBlend="FALSE" id="clipitem-136">
					<masterclipid>masterclip-56</masterclipid>
					<name></name>
					<enabled>TRUE</enabled>
					<duration>2582774</duration>
					<rate>
					
					                                    <timebase>60</timebase>
					                                    <ntsc>TRUE</ntsc>
					                                
					</rate>
					<start>233</start>
					<end>299</end>
					<in>233</in>
					<out>299</out>
					<pproTicksIn>914456774963789</pproTicksIn>
					<pproTicksOut>914677708529577</pproTicksOut>
					<alphatype>straight</alphatype>
					<pixelaspectratio>square</pixelaspectratio>
					<anamorphic>FALSE</anamorphic>
					<file id="file-55">
					<name></name>
					<mediaSource>GraphicAndType</mediaSource>
					<rate>
					<timebase>60</timebase>
					<ntsc>TRUE</ntsc>
					</rate>
					<timecode>
					<rate>
					<timebase>60</timebase>
					<ntsc>TRUE</ntsc>
					</rate>
					<string>00:00:00:00</string>
					<frame>0</frame>
					<displayformat>NDF</displayformat>
					</timecode>
					<media>
					<video>
					<samplecharacteristics>
					<rate>
					<timebase>60</timebase>
					<ntsc>TRUE</ntsc>
					</rate>
					<width>1080</width>
					<height>1920</height>
					<anamorphic>FALSE</anamorphic>
					<pixelaspectratio>square</pixelaspectratio>
					<fielddominance>none</fielddominance>
					</samplecharacteristics>
					</video>
					</media>
					</file>
					<filter>
					<effect>
					<name></name>
					<effectid>GraphicAndType</effectid>
					<effectcategory>graphic</effectcategory>
					<effecttype>filter</effecttype>
					<mediatype>video</mediatype>
					<pproBypass>false</pproBypass>
					<parameter authoringApp="PremierePro">
					<parameterid>1</parameterid>
					<name></name>
					<hash>025b1101-ead6-0ca2-1feb-caf3000001fc</hash>
					<value>5AEAAAAAAABEMyIRDAAAAAAABgAKAAQABgAAAGQAAAAAAF4ASAAQAAwARABAADwAOAAAAAAAAAAAADQAMwAsAAAAKAAkACAAAAAAAAAAAAAAAAAAHAAAAAAAGgAAAAAAAAAUAAAAAAAAAAAAAAAAAAAAAAAAAAgAAAAAABsABwBeAAAAAAAAAUAAAABQAAAAbAAAAAIAAAAAAAEAAQAAAAAAQEEAAMBAAABAQAAAyEIAAAABIAAAAAIAAAACAAAAAAA2QwCASkTw/v//9P7///j+//8S////AAAAAAEAAAAEAAAAEQAAAEhHUFNvZWlLYWt1cG9wdGFpAAAAAQAAAAwAAAAIAAwABAAIAAgAAAAIAAAAUAAAAA8AAADvvIEAAAAAAAAAAAAAAAAAAAA2ACQAAAAgABwAAAAAABsAFAAAAAAAAAAAAAAAAAAAAAAAAAAAABAAAAAAAAAADAAAAAgABAA2AAAAAgAAABwAAAAcAAAAHAAAAAAAIEEAAAABaAAAAE3PAEOw////tP///wEAAAAUAAAAEAAaAAgABwAMAAAAEAAUABAAAAAAAAABHAAAAAAAoEEcAAAAAgAAAAAACgAIAAUABgAHAAoAAAAADAD//P///wQABAAEAAAACAAIAAYABwAIAAAAAAAMAA==</value>
					</parameter>
					<parameter authoringApp="PremierePro">
					<parameterid>2</parameterid>
					<name></name>
					<IsTimeVarying>false</IsTimeVarying>
					<ParameterControlType>11</ParameterControlType>
					<LowerBound>false</LowerBound>
					<UpperBound>false</UpperBound>
					<value>-91445760000000000,false,0,0,0,0,0,0</value>
					</parameter>
					<parameter authoringApp="PremierePro">
					<parameterid>3</parameterid>
					<name></name>
					<IsTimeVarying>false</IsTimeVarying>
					<value>-91445760000000000,0.5:0.5,0,0,0,0,0,0,5,4,0,0,0,0</value>
					</parameter>
					<parameter authoringApp="PremierePro">
					<parameterid>4</parameterid>
					<name></name>
					<IsTimeVarying>false</IsTimeVarying>
					<ParameterControlType>2</ParameterControlType>
					<LowerBound>0</LowerBound>
					<UpperBound>4000</UpperBound>
					<value>-91445760000000000,100.,0,0,0,0,0,0</value>
					</parameter>
					<parameter authoringApp="PremierePro">
					<parameterid>8</parameterid>
					<name></name>
					<IsTimeVarying>false</IsTimeVarying>
					<ParameterControlType>2</ParameterControlType>
					<LowerBound>0</LowerBound>
					<UpperBound>100</UpperBound>
					<value>-91445760000000000,100.,0,0,0,0,0,0</value>
					</parameter>
					</effect>
					</filter>
					<logginginfo>
					<description></description>
					<scene></scene>
					<shottake></shottake>
					<lognote></lognote>
					<good></good>
					<originalvideofilename></originalvideofilename>
					<originalaudiofilename></originalaudiofilename>
					</logginginfo>
					<colorinfo>
					<lut></lut>
					<lut1></lut1>
					<asc_sop></asc_sop>
					<asc_sat></asc_sat>
					<lut2></lut2>
					</colorinfo>
					<labels>
					</labels>
					</clipitem>
					<clipitem frameBlend="FALSE" id="clipitem-144">
					<masterclipid>masterclip-64</masterclipid>
					<name></name>
					<enabled>TRUE</enabled>
					<duration>2582774</duration>
					<rate>
					
					                                    <timebase>60</timebase>
					                                    <ntsc>TRUE</ntsc>
					                                
					</rate>
					<start>299</start>
					<end>359</end>
					<in>299</in>
					<out>359</out>
					<pproTicksIn>914456774963789</pproTicksIn>
					<pproTicksOut>914677708529577</pproTicksOut>
					<alphatype>straight</alphatype>
					<pixelaspectratio>square</pixelaspectratio>
					<anamorphic>FALSE</anamorphic>
					<file id="file-63">
					<name></name>
					<mediaSource>GraphicAndType</mediaSource>
					<rate>
					<timebase>60</timebase>
					<ntsc>TRUE</ntsc>
					</rate>
					<timecode>
					<rate>
					<timebase>60</timebase>
					<ntsc>TRUE</ntsc>
					</rate>
					<string>00:00:00:00</string>
					<frame>0</frame>
					<displayformat>NDF</displayformat>
					</timecode>
					<media>
					<video>
					<samplecharacteristics>
					<rate>
					<timebase>60</timebase>
					<ntsc>TRUE</ntsc>
					</rate>
					<width>1080</width>
					<height>1920</height>
					<anamorphic>FALSE</anamorphic>
					<pixelaspectratio>square</pixelaspectratio>
					<fielddominance>none</fielddominance>
					</samplecharacteristics>
					</video>
					</media>
					</file>
					<filter>
					<effect>
					<name></name>
					<effectid>GraphicAndType</effectid>
					<effectcategory>graphic</effectcategory>
					<effecttype>filter</effecttype>
					<mediatype>video</mediatype>
					<pproBypass>false</pproBypass>
					<parameter authoringApp="PremierePro">
					<parameterid>1</parameterid>
					<name></name>
					<hash>025b1101-ead6-0ca2-1feb-caf3000001fc</hash>
					<value>5AEAAAAAAABEMyIRDAAAAAAABgAKAAQABgAAAGQAAAAAAF4ASAAQAAwARABAADwAOAAAAAAAAAAAADQAMwAsAAAAKAAkACAAAAAAAAAAAAAAAAAAHAAAAAAAGgAAAAAAAAAUAAAAAAAAAAAAAAAAAAAAAAAAAAgAAAAAABsABwBeAAAAAAAAAUAAAABQAAAAbAAAAAIAAAAAAAEAAQAAAAAAQEEAAMBAAABAQAAAyEIAAAABIAAAAAIAAAACAAAAAAA2QwCASkTw/v//9P7///j+//8S////AAAAAAEAAAAEAAAAEQAAAEhHUFNvZWlLYWt1cG9wdGFpAAAAAQAAAAwAAAAIAAwABAAIAAgAAAAIAAAAUAAAAA8AAADvvIEAAAAAAAAAAAAAAAAAAAA2ACQAAAAgABwAAAAAABsAFAAAAAAAAAAAAAAAAAAAAAAAAAAAABAAAAAAAAAADAAAAAgABAA2AAAAAgAAABwAAAAcAAAAHAAAAAAAIEEAAAABaAAAAE3PAEOw////tP///wEAAAAUAAAAEAAaAAgABwAMAAAAEAAUABAAAAAAAAABHAAAAAAAoEEcAAAAAgAAAAAACgAIAAUABgAHAAoAAAAADAD//P///wQABAAEAAAACAAIAAYABwAIAAAAAAAMAA==</value>
					</parameter>
					<parameter authoringApp="PremierePro">
					<parameterid>2</parameterid>
					<name></name>
					<IsTimeVarying>false</IsTimeVarying>
					<ParameterControlType>11</ParameterControlType>
					<LowerBound>false</LowerBound>
					<UpperBound>false</UpperBound>
					<value>-91445760000000000,false,0,0,0,0,0,0</value>
					</parameter>
					<parameter authoringApp="PremierePro">
					<parameterid>3</parameterid>
					<name></name>
					<IsTimeVarying>false</IsTimeVarying>
					<value>-91445760000000000,0.5:0.5,0,0,0,0,0,0,5,4,0,0,0,0</value>
					</parameter>
					<parameter authoringApp="PremierePro">
					<parameterid>4</parameterid>
					<name></name>
					<IsTimeVarying>false</IsTimeVarying>
					<ParameterControlType>2</ParameterControlType>
					<LowerBound>0</LowerBound>
					<UpperBound>4000</UpperBound>
					<value>-91445760000000000,100.,0,0,0,0,0,0</value>
					</parameter>
					<parameter authoringApp="PremierePro">
					<parameterid>8</parameterid>
					<name></name>
					<IsTimeVarying>false</IsTimeVarying>
					<ParameterControlType>2</ParameterControlType>
					<LowerBound>0</LowerBound>
					<UpperBound>100</UpperBound>
					<value>-91445760000000000,100.,0,0,0,0,0,0</value>
					</parameter>
					</effect>
					</filter>
					<logginginfo>
					<description></description>
					<scene></scene>
					<shottake></shottake>
					<lognote></lognote>
					<good></good>
					<originalvideofilename></originalvideofilename>
					<originalaudiofilename></originalaudiofilename>
					</logginginfo>
					<colorinfo>
					<lut></lut>
					<lut1></lut1>
					<asc_sop></asc_sop>
					<asc_sat></asc_sat>
					<lut2></lut2>
					</colorinfo>
					<labels>
					</labels>
					</clipitem>
					<clipitem frameBlend="FALSE" id="clipitem-150">
					<masterclipid>masterclip-70</masterclipid>
					<name></name>
					<enabled>TRUE</enabled>
					<duration>2582774</duration>
					<rate>
					
					                                    <timebase>60</timebase>
					                                    <ntsc>TRUE</ntsc>
					                                
					</rate>
					<start>365</start>
					<end>425</end>
					<in>365</in>
					<out>425</out>
					<pproTicksIn>914456774963789</pproTicksIn>
					<pproTicksOut>914677708529577</pproTicksOut>
					<alphatype>straight</alphatype>
					<pixelaspectratio>square</pixelaspectratio>
					<anamorphic>FALSE</anamorphic>
					<file id="file-69">
					<name></name>
					<mediaSource>GraphicAndType</mediaSource>
					<rate>
					<timebase>60</timebase>
					<ntsc>TRUE</ntsc>
					</rate>
					<timecode>
					<rate>
					<timebase>60</timebase>
					<ntsc>TRUE</ntsc>
					</rate>
					<string>00:00:00:00</string>
					<frame>0</frame>
					<displayformat>NDF</displayformat>
					</timecode>
					<media>
					<video>
					<samplecharacteristics>
					<rate>
					<timebase>60</timebase>
					<ntsc>TRUE</ntsc>
					</rate>
					<width>1080</width>
					<height>1920</height>
					<anamorphic>FALSE</anamorphic>
					<pixelaspectratio>square</pixelaspectratio>
					<fielddominance>none</fielddominance>
					</samplecharacteristics>
					</video>
					</media>
					</file>
					<filter>
					<effect>
					<name></name>
					<effectid>GraphicAndType</effectid>
					<effectcategory>graphic</effectcategory>
					<effecttype>filter</effecttype>
					<mediatype>video</mediatype>
					<pproBypass>false</pproBypass>
					<parameter authoringApp="PremierePro">
					<parameterid>1</parameterid>
					<name></name>
					<hash>025b1101-ead6-0ca2-1feb-caf3000001fc</hash>
					<value>5AEAAAAAAABEMyIRDAAAAAAABgAKAAQABgAAAGQAAAAAAF4ASAAQAAwARABAADwAOAAAAAAAAAAAADQAMwAsAAAAKAAkACAAAAAAAAAAAAAAAAAAHAAAAAAAGgAAAAAAAAAUAAAAAAAAAAAAAAAAAAAAAAAAAAgAAAAAABsABwBeAAAAAAAAAUAAAABQAAAAbAAAAAIAAAAAAAEAAQAAAAAAQEEAAMBAAABAQAAAyEIAAAABIAAAAAIAAAACAAAAAAA2QwCASkTw/v//9P7///j+//8S////AAAAAAEAAAAEAAAAEQAAAEhHUFNvZWlLYWt1cG9wdGFpAAAAAQAAAAwAAAAIAAwABAAIAAgAAAAIAAAAUAAAAA8AAADvvIEAAAAAAAAAAAAAAAAAAAA2ACQAAAAgABwAAAAAABsAFAAAAAAAAAAAAAAAAAAAAAAAAAAAABAAAAAAAAAADAAAAAgABAA2AAAAAgAAABwAAAAcAAAAHAAAAAAAIEEAAAABaAAAAE3PAEOw////tP///wEAAAAUAAAAEAAaAAgABwAMAAAAEAAUABAAAAAAAAABHAAAAAAAoEEcAAAAAgAAAAAACgAIAAUABgAHAAoAAAAADAD//P///wQABAAEAAAACAAIAAYABwAIAAAAAAAMAA==</value>
					</parameter>
					<parameter authoringApp="PremierePro">
					<parameterid>2</parameterid>
					<name></name>
					<IsTimeVarying>false</IsTimeVarying>
					<ParameterControlType>11</ParameterControlType>
					<LowerBound>false</LowerBound>
					<UpperBound>false</UpperBound>
					<value>-91445760000000000,false,0,0,0,0,0,0</value>
					</parameter>
					<parameter authoringApp="PremierePro">
					<parameterid>3</parameterid>
					<name></name>
					<IsTimeVarying>false</IsTimeVarying>
					<value>-91445760000000000,0.5:0.5,0,0,0,0,0,0,5,4,0,0,0,0</value>
					</parameter>
					<parameter authoringApp="PremierePro">
					<parameterid>4</parameterid>
					<name></name>
					<IsTimeVarying>false</IsTimeVarying>
					<ParameterControlType>2</ParameterControlType>
					<LowerBound>0</LowerBound>
					<UpperBound>4000</UpperBound>
					<value>-91445760000000000,100.,0,0,0,0,0,0</value>
					</parameter>
					<parameter authoringApp="PremierePro">
					<parameterid>8</parameterid>
					<name></name>
					<IsTimeVarying>false</IsTimeVarying>
					<ParameterControlType>2</ParameterControlType>
					<LowerBound>0</LowerBound>
					<UpperBound>100</UpperBound>
					<value>-91445760000000000,100.,0,0,0,0,0,0</value>
					</parameter>
					</effect>
					</filter>
					<logginginfo>
					<description></description>
					<scene></scene>
					<shottake></shottake>
					<lognote></lognote>
					<good></good>
					<originalvideofilename></originalvideofilename>
					<originalaudiofilename></originalaudiofilename>
					</logginginfo>
					<colorinfo>
					<lut></lut>
					<lut1></lut1>
					<asc_sop></asc_sop>
					<asc_sat></asc_sat>
					<lut2></lut2>
					</colorinfo>
					<labels>
					</labels>
					</clipitem>
					<clipitem frameBlend="FALSE" id="clipitem-156">
					<masterclipid>masterclip-76</masterclipid>
					<name></name>
					<enabled>TRUE</enabled>
					<duration>2582774</duration>
					<rate>
					
					                                    <timebase>60</timebase>
					                                    <ntsc>TRUE</ntsc>
					                                
					</rate>
					<start>437</start>
					<end>497</end>
					<in>437</in>
					<out>497</out>
					<pproTicksIn>914456774963789</pproTicksIn>
					<pproTicksOut>914677708529577</pproTicksOut>
					<alphatype>straight</alphatype>
					<pixelaspectratio>square</pixelaspectratio>
					<anamorphic>FALSE</anamorphic>
					<file id="file-75">
					<name></name>
					<mediaSource>GraphicAndType</mediaSource>
					<rate>
					<timebase>60</timebase>
					<ntsc>TRUE</ntsc>
					</rate>
					<timecode>
					<rate>
					<timebase>60</timebase>
					<ntsc>TRUE</ntsc>
					</rate>
					<string>00:00:00:00</string>
					<frame>0</frame>
					<displayformat>NDF</displayformat>
					</timecode>
					<media>
					<video>
					<samplecharacteristics>
					<rate>
					<timebase>60</timebase>
					<ntsc>TRUE</ntsc>
					</rate>
					<width>1080</width>
					<height>1920</height>
					<anamorphic>FALSE</anamorphic>
					<pixelaspectratio>square</pixelaspectratio>
					<fielddominance>none</fielddominance>
					</samplecharacteristics>
					</video>
					</media>
					</file>
					<filter>
					<effect>
					<name></name>
					<effectid>GraphicAndType</effectid>
					<effectcategory>graphic</effectcategory>
					<effecttype>filter</effecttype>
					<mediatype>video</mediatype>
					<pproBypass>false</pproBypass>
					<parameter authoringApp="PremierePro">
					<parameterid>1</parameterid>
					<name></name>
					<hash>025b1101-ead6-0ca2-1feb-caf3000001fc</hash>
					<value>5AEAAAAAAABEMyIRDAAAAAAABgAKAAQABgAAAGQAAAAAAF4ASAAQAAwARABAADwAOAAAAAAAAAAAADQAMwAsAAAAKAAkACAAAAAAAAAAAAAAAAAAHAAAAAAAGgAAAAAAAAAUAAAAAAAAAAAAAAAAAAAAAAAAAAgAAAAAABsABwBeAAAAAAAAAUAAAABQAAAAbAAAAAIAAAAAAAEAAQAAAAAAQEEAAMBAAABAQAAAyEIAAAABIAAAAAIAAAACAAAAAAA2QwCASkTw/v//9P7///j+//8S////AAAAAAEAAAAEAAAAEQAAAEhHUFNvZWlLYWt1cG9wdGFpAAAAAQAAAAwAAAAIAAwABAAIAAgAAAAIAAAAUAAAAA8AAADvvIEAAAAAAAAAAAAAAAAAAAA2ACQAAAAgABwAAAAAABsAFAAAAAAAAAAAAAAAAAAAAAAAAAAAABAAAAAAAAAADAAAAAgABAA2AAAAAgAAABwAAAAcAAAAHAAAAAAAIEEAAAABaAAAAE3PAEOw////tP///wEAAAAUAAAAEAAaAAgABwAMAAAAEAAUABAAAAAAAAABHAAAAAAAoEEcAAAAAgAAAAAACgAIAAUABgAHAAoAAAAADAD//P///wQABAAEAAAACAAIAAYABwAIAAAAAAAMAA==</value>
					</parameter>
					<parameter authoringApp="PremierePro">
					<parameterid>2</parameterid>
					<name></name>
					<IsTimeVarying>false</IsTimeVarying>
					<ParameterControlType>11</ParameterControlType>
					<LowerBound>false</LowerBound>
					<UpperBound>false</UpperBound>
					<value>-91445760000000000,false,0,0,0,0,0,0</value>
					</parameter>
					<parameter authoringApp="PremierePro">
					<parameterid>3</parameterid>
					<name></name>
					<IsTimeVarying>false</IsTimeVarying>
					<value>-91445760000000000,0.5:0.5,0,0,0,0,0,0,5,4,0,0,0,0</value>
					</parameter>
					<parameter authoringApp="PremierePro">
					<parameterid>4</parameterid>
					<name></name>
					<IsTimeVarying>false</IsTimeVarying>
					<ParameterControlType>2</ParameterControlType>
					<LowerBound>0</LowerBound>
					<UpperBound>4000</UpperBound>
					<value>-91445760000000000,100.,0,0,0,0,0,0</value>
					</parameter>
					<parameter authoringApp="PremierePro">
					<parameterid>8</parameterid>
					<name></name>
					<IsTimeVarying>false</IsTimeVarying>
					<ParameterControlType>2</ParameterControlType>
					<LowerBound>0</LowerBound>
					<UpperBound>100</UpperBound>
					<value>-91445760000000000,100.,0,0,0,0,0,0</value>
					</parameter>
					</effect>
					</filter>
					<logginginfo>
					<description></description>
					<scene></scene>
					<shottake></shottake>
					<lognote></lognote>
					<good></good>
					<originalvideofilename></originalvideofilename>
					<originalaudiofilename></originalaudiofilename>
					</logginginfo>
					<colorinfo>
					<lut></lut>
					<lut1></lut1>
					<asc_sop></asc_sop>
					<asc_sat></asc_sat>
					<lut2></lut2>
					</colorinfo>
					<labels>
					</labels>
					</clipitem>
					<clipitem id="clipitem-160"/>
					                        </track>
					                        <track TL.SQTrackShy="0" TL.SQTrackExpandedHeight="25" TL.SQTrackExpanded="0" MZ.TrackTargeted="0">
					<clipitem frameBlend="FALSE" id="clipitem-161">
					<masterclipid>masterclip-81</masterclipid>
					<name></name>
					<enabled>TRUE</enabled>
					<duration>2582774</duration>
					<rate>
					
					                                    <timebase>60</timebase>
					                                    <ntsc>TRUE</ntsc>
					                                
					</rate>
					<start>497</start>
					<end>557</end>
					<in>497</in>
					<out>557</out>
					<pproTicksIn>914456774963789</pproTicksIn>
					<pproTicksOut>914677708529577</pproTicksOut>
					<alphatype>straight</alphatype>
					<pixelaspectratio>square</pixelaspectratio>
					<anamorphic>FALSE</anamorphic>
					<file id="file-80">
					<name></name>
					<mediaSource>GraphicAndType</mediaSource>
					<rate>
					<timebase>60</timebase>
					<ntsc>TRUE</ntsc>
					</rate>
					<timecode>
					<rate>
					<timebase>60</timebase>
					<ntsc>TRUE</ntsc>
					</rate>
					<string>00:00:00:00</string>
					<frame>0</frame>
					<displayformat>NDF</displayformat>
					</timecode>
					<media>
					<video>
					<samplecharacteristics>
					<rate>
					<timebase>60</timebase>
					<ntsc>TRUE</ntsc>
					</rate>
					<width>1080</width>
					<height>1920</height>
					<anamorphic>FALSE</anamorphic>
					<pixelaspectratio>square</pixelaspectratio>
					<fielddominance>none</fielddominance>
					</samplecharacteristics>
					</video>
					</media>
					</file>
					<filter>
					<effect>
					<name></name>
					<effectid>GraphicAndType</effectid>
					<effectcategory>graphic</effectcategory>
					<effecttype>filter</effecttype>
					<mediatype>video</mediatype>
					<pproBypass>false</pproBypass>
					<parameter authoringApp="PremierePro">
					<parameterid>1</parameterid>
					<name></name>
					<hash>025b1101-ead6-0ca2-1feb-caf3000001fc</hash>
					<value>5AEAAAAAAABEMyIRDAAAAAAABgAKAAQABgAAAGQAAAAAAF4ASAAQAAwARABAADwAOAAAAAAAAAAAADQAMwAsAAAAKAAkACAAAAAAAAAAAAAAAAAAHAAAAAAAGgAAAAAAAAAUAAAAAAAAAAAAAAAAAAAAAAAAAAgAAAAAABsABwBeAAAAAAAAAUAAAABQAAAAbAAAAAIAAAAAAAEAAQAAAAAAQEEAAMBAAABAQAAAyEIAAAABIAAAAAIAAAACAAAAAAA2QwCASkTw/v//9P7///j+//8S////AAAAAAEAAAAEAAAAEQAAAEhHUFNvZWlLYWt1cG9wdGFpAAAAAQAAAAwAAAAIAAwABAAIAAgAAAAIAAAAUAAAAA8AAADvvIEAAAAAAAAAAAAAAAAAAAA2ACQAAAAgABwAAAAAABsAFAAAAAAAAAAAAAAAAAAAAAAAAAAAABAAAAAAAAAADAAAAAgABAA2AAAAAgAAABwAAAAcAAAAHAAAAAAAIEEAAAABaAAAAE3PAEOw////tP///wEAAAAUAAAAEAAaAAgABwAMAAAAEAAUABAAAAAAAAABHAAAAAAAoEEcAAAAAgAAAAAACgAIAAUABgAHAAoAAAAADAD//P///wQABAAEAAAACAAIAAYABwAIAAAAAAAMAA==</value>
					</parameter>
					<parameter authoringApp="PremierePro">
					<parameterid>2</parameterid>
					<name></name>
					<IsTimeVarying>false</IsTimeVarying>
					<ParameterControlType>11</ParameterControlType>
					<LowerBound>false</LowerBound>
					<UpperBound>false</UpperBound>
					<value>-91445760000000000,false,0,0,0,0,0,0</value>
					</parameter>
					<parameter authoringApp="PremierePro">
					<parameterid>3</parameterid>
					<name></name>
					<IsTimeVarying>false</IsTimeVarying>
					<value>-91445760000000000,0.5:0.5,0,0,0,0,0,0,5,4,0,0,0,0</value>
					</parameter>
					<parameter authoringApp="PremierePro">
					<parameterid>4</parameterid>
					<name></name>
					<IsTimeVarying>false</IsTimeVarying>
					<ParameterControlType>2</ParameterControlType>
					<LowerBound>0</LowerBound>
					<UpperBound>4000</UpperBound>
					<value>-91445760000000000,100.,0,0,0,0,0,0</value>
					</parameter>
					<parameter authoringApp="PremierePro">
					<parameterid>8</parameterid>
					<name></name>
					<IsTimeVarying>false</IsTimeVarying>
					<ParameterControlType>2</ParameterControlType>
					<LowerBound>0</LowerBound>
					<UpperBound>100</UpperBound>
					<value>-91445760000000000,100.,0,0,0,0,0,0</value>
					</parameter>
					</effect>
					</filter>
					<logginginfo>
					<description></description>
					<scene></scene>
					<shottake></shottake>
					<lognote></lognote>
					<good></good>
					<originalvideofilename></originalvideofilename>
					<originalaudiofilename></originalaudiofilename>
					</logginginfo>
					<colorinfo>
					<lut></lut>
					<lut1></lut1>
					<asc_sop></asc_sop>
					<asc_sat></asc_sat>
					<lut2></lut2>
					</colorinfo>
					<labels>
					</labels>
					</clipitem>
					<clipitem frameBlend="FALSE" id="clipitem-169">
					<masterclipid>masterclip-89</masterclipid>
					<name></name>
					<enabled>TRUE</enabled>
					<duration>2582774</duration>
					<rate>
					
					                                    <timebase>60</timebase>
					                                    <ntsc>TRUE</ntsc>
					                                
					</rate>
					<start>563</start>
					<end>623</end>
					<in>563</in>
					<out>623</out>
					<pproTicksIn>914456774963789</pproTicksIn>
					<pproTicksOut>914677708529577</pproTicksOut>
					<alphatype>straight</alphatype>
					<pixelaspectratio>square</pixelaspectratio>
					<anamorphic>FALSE</anamorphic>
					<file id="file-88">
					<name></name>
					<mediaSource>GraphicAndType</mediaSource>
					<rate>
					<timebase>60</timebase>
					<ntsc>TRUE</ntsc>
					</rate>
					<timecode>
					<rate>
					<timebase>60</timebase>
					<ntsc>TRUE</ntsc>
					</rate>
					<string>00:00:00:00</string>
					<frame>0</frame>
					<displayformat>NDF</displayformat>
					</timecode>
					<media>
					<video>
					<samplecharacteristics>
					<rate>
					<timebase>60</timebase>
					<ntsc>TRUE</ntsc>
					</rate>
					<width>1080</width>
					<height>1920</height>
					<anamorphic>FALSE</anamorphic>
					<pixelaspectratio>square</pixelaspectratio>
					<fielddominance>none</fielddominance>
					</samplecharacteristics>
					</video>
					</media>
					</file>
					<filter>
					<effect>
					<name></name>
					<effectid>GraphicAndType</effectid>
					<effectcategory>graphic</effectcategory>
					<effecttype>filter</effecttype>
					<mediatype>video</mediatype>
					<pproBypass>false</pproBypass>
					<parameter authoringApp="PremierePro">
					<parameterid>1</parameterid>
					<name></name>
					<hash>025b1101-ead6-0ca2-1feb-caf3000001fc</hash>
					<value>5AEAAAAAAABEMyIRDAAAAAAABgAKAAQABgAAAGQAAAAAAF4ASAAQAAwARABAADwAOAAAAAAAAAAAADQAMwAsAAAAKAAkACAAAAAAAAAAAAAAAAAAHAAAAAAAGgAAAAAAAAAUAAAAAAAAAAAAAAAAAAAAAAAAAAgAAAAAABsABwBeAAAAAAAAAUAAAABQAAAAbAAAAAIAAAAAAAEAAQAAAAAAQEEAAMBAAABAQAAAyEIAAAABIAAAAAIAAAACAAAAAAA2QwCASkTw/v//9P7///j+//8S////AAAAAAEAAAAEAAAAEQAAAEhHUFNvZWlLYWt1cG9wdGFpAAAAAQAAAAwAAAAIAAwABAAIAAgAAAAIAAAAUAAAAA8AAADvvIEAAAAAAAAAAAAAAAAAAAA2ACQAAAAgABwAAAAAABsAFAAAAAAAAAAAAAAAAAAAAAAAAAAAABAAAAAAAAAADAAAAAgABAA2AAAAAgAAABwAAAAcAAAAHAAAAAAAIEEAAAABaAAAAE3PAEOw////tP///wEAAAAUAAAAEAAaAAgABwAMAAAAEAAUABAAAAAAAAABHAAAAAAAoEEcAAAAAgAAAAAACgAIAAUABgAHAAoAAAAADAD//P///wQABAAEAAAACAAIAAYABwAIAAAAAAAMAA==</value>
					</parameter>
					<parameter authoringApp="PremierePro">
					<parameterid>2</parameterid>
					<name></name>
					<IsTimeVarying>false</IsTimeVarying>
					<ParameterControlType>11</ParameterControlType>
					<LowerBound>false</LowerBound>
					<UpperBound>false</UpperBound>
					<value>-91445760000000000,false,0,0,0,0,0,0</value>
					</parameter>
					<parameter authoringApp="PremierePro">
					<parameterid>3</parameterid>
					<name></name>
					<IsTimeVarying>false</IsTimeVarying>
					<value>-91445760000000000,0.5:0.5,0,0,0,0,0,0,5,4,0,0,0,0</value>
					</parameter>
					<parameter authoringApp="PremierePro">
					<parameterid>4</parameterid>
					<name></name>
					<IsTimeVarying>false</IsTimeVarying>
					<ParameterControlType>2</ParameterControlType>
					<LowerBound>0</LowerBound>
					<UpperBound>4000</UpperBound>
					<value>-91445760000000000,100.,0,0,0,0,0,0</value>
					</parameter>
					<parameter authoringApp="PremierePro">
					<parameterid>8</parameterid>
					<name></name>
					<IsTimeVarying>false</IsTimeVarying>
					<ParameterControlType>2</ParameterControlType>
					<LowerBound>0</LowerBound>
					<UpperBound>100</UpperBound>
					<value>-91445760000000000,100.,0,0,0,0,0,0</value>
					</parameter>
					</effect>
					</filter>
					<logginginfo>
					<description></description>
					<scene></scene>
					<shottake></shottake>
					<lognote></lognote>
					<good></good>
					<originalvideofilename></originalvideofilename>
					<originalaudiofilename></originalaudiofilename>
					</logginginfo>
					<colorinfo>
					<lut></lut>
					<lut1></lut1>
					<asc_sop></asc_sop>
					<asc_sat></asc_sat>
					<lut2></lut2>
					</colorinfo>
					<labels>
					</labels>
					</clipitem>
					<clipitem frameBlend="FALSE" id="clipitem-178">
					<masterclipid>masterclip-98</masterclipid>
					<name></name>
					<enabled>TRUE</enabled>
					<duration>2582774</duration>
					<rate>
					
					                                    <timebase>60</timebase>
					                                    <ntsc>TRUE</ntsc>
					                                
					</rate>
					<start>623</start>
					<end>683</end>
					<in>623</in>
					<out>683</out>
					<pproTicksIn>914456774963789</pproTicksIn>
					<pproTicksOut>914677708529577</pproTicksOut>
					<alphatype>straight</alphatype>
					<pixelaspectratio>square</pixelaspectratio>
					<anamorphic>FALSE</anamorphic>
					<file id="file-97">
					<name></name>
					<mediaSource>GraphicAndType</mediaSource>
					<rate>
					<timebase>60</timebase>
					<ntsc>TRUE</ntsc>
					</rate>
					<timecode>
					<rate>
					<timebase>60</timebase>
					<ntsc>TRUE</ntsc>
					</rate>
					<string>00:00:00:00</string>
					<frame>0</frame>
					<displayformat>NDF</displayformat>
					</timecode>
					<media>
					<video>
					<samplecharacteristics>
					<rate>
					<timebase>60</timebase>
					<ntsc>TRUE</ntsc>
					</rate>
					<width>1080</width>
					<height>1920</height>
					<anamorphic>FALSE</anamorphic>
					<pixelaspectratio>square</pixelaspectratio>
					<fielddominance>none</fielddominance>
					</samplecharacteristics>
					</video>
					</media>
					</file>
					<filter>
					<effect>
					<name></name>
					<effectid>GraphicAndType</effectid>
					<effectcategory>graphic</effectcategory>
					<effecttype>filter</effecttype>
					<mediatype>video</mediatype>
					<pproBypass>false</pproBypass>
					<parameter authoringApp="PremierePro">
					<parameterid>1</parameterid>
					<name></name>
					<hash>025b1101-ead6-0ca2-1feb-caf3000001fc</hash>
					<value>5AEAAAAAAABEMyIRDAAAAAAABgAKAAQABgAAAGQAAAAAAF4ASAAQAAwARABAADwAOAAAAAAAAAAAADQAMwAsAAAAKAAkACAAAAAAAAAAAAAAAAAAHAAAAAAAGgAAAAAAAAAUAAAAAAAAAAAAAAAAAAAAAAAAAAgAAAAAABsABwBeAAAAAAAAAUAAAABQAAAAbAAAAAIAAAAAAAEAAQAAAAAAQEEAAMBAAABAQAAAyEIAAAABIAAAAAIAAAACAAAAAAA2QwCASkTw/v//9P7///j+//8S////AAAAAAEAAAAEAAAAEQAAAEhHUFNvZWlLYWt1cG9wdGFpAAAAAQAAAAwAAAAIAAwABAAIAAgAAAAIAAAAUAAAAA8AAADvvIEAAAAAAAAAAAAAAAAAAAA2ACQAAAAgABwAAAAAABsAFAAAAAAAAAAAAAAAAAAAAAAAAAAAABAAAAAAAAAADAAAAAgABAA2AAAAAgAAABwAAAAcAAAAHAAAAAAAIEEAAAABaAAAAE3PAEOw////tP///wEAAAAUAAAAEAAaAAgABwAMAAAAEAAUABAAAAAAAAABHAAAAAAAoEEcAAAAAgAAAAAACgAIAAUABgAHAAoAAAAADAD//P///wQABAAEAAAACAAIAAYABwAIAAAAAAAMAA==</value>
					</parameter>
					<parameter authoringApp="PremierePro">
					<parameterid>2</parameterid>
					<name></name>
					<IsTimeVarying>false</IsTimeVarying>
					<ParameterControlType>11</ParameterControlType>
					<LowerBound>false</LowerBound>
					<UpperBound>false</UpperBound>
					<value>-91445760000000000,false,0,0,0,0,0,0</value>
					</parameter>
					<parameter authoringApp="PremierePro">
					<parameterid>3</parameterid>
					<name></name>
					<IsTimeVarying>false</IsTimeVarying>
					<value>-91445760000000000,0.5:0.5,0,0,0,0,0,0,5,4,0,0,0,0</value>
					</parameter>
					<parameter authoringApp="PremierePro">
					<parameterid>4</parameterid>
					<name></name>
					<IsTimeVarying>false</IsTimeVarying>
					<ParameterControlType>2</ParameterControlType>
					<LowerBound>0</LowerBound>
					<UpperBound>4000</UpperBound>
					<value>-91445760000000000,100.,0,0,0,0,0,0</value>
					</parameter>
					<parameter authoringApp="PremierePro">
					<parameterid>8</parameterid>
					<name></name>
					<IsTimeVarying>false</IsTimeVarying>
					<ParameterControlType>2</ParameterControlType>
					<LowerBound>0</LowerBound>
					<UpperBound>100</UpperBound>
					<value>-91445760000000000,100.,0,0,0,0,0,0</value>
					</parameter>
					</effect>
					</filter>
					<logginginfo>
					<description></description>
					<scene></scene>
					<shottake></shottake>
					<lognote></lognote>
					<good></good>
					<originalvideofilename></originalvideofilename>
					<originalaudiofilename></originalaudiofilename>
					</logginginfo>
					<colorinfo>
					<lut></lut>
					<lut1></lut1>
					<asc_sop></asc_sop>
					<asc_sat></asc_sat>
					<lut2></lut2>
					</colorinfo>
					<labels>
					</labels>
					</clipitem>
					<clipitem frameBlend="FALSE" id="clipitem-186">
					<masterclipid>masterclip-106</masterclipid>
					<name></name>
					<enabled>TRUE</enabled>
					<duration>2582774</duration>
					<rate>
					
					                                    <timebase>60</timebase>
					                                    <ntsc>TRUE</ntsc>
					                                
					</rate>
					<start>689</start>
					<end>755</end>
					<in>689</in>
					<out>755</out>
					<pproTicksIn>914456774963789</pproTicksIn>
					<pproTicksOut>914677708529577</pproTicksOut>
					<alphatype>straight</alphatype>
					<pixelaspectratio>square</pixelaspectratio>
					<anamorphic>FALSE</anamorphic>
					<file id="file-105">
					<name></name>
					<mediaSource>GraphicAndType</mediaSource>
					<rate>
					<timebase>60</timebase>
					<ntsc>TRUE</ntsc>
					</rate>
					<timecode>
					<rate>
					<timebase>60</timebase>
					<ntsc>TRUE</ntsc>
					</rate>
					<string>00:00:00:00</string>
					<frame>0</frame>
					<displayformat>NDF</displayformat>
					</timecode>
					<media>
					<video>
					<samplecharacteristics>
					<rate>
					<timebase>60</timebase>
					<ntsc>TRUE</ntsc>
					</rate>
					<width>1080</width>
					<height>1920</height>
					<anamorphic>FALSE</anamorphic>
					<pixelaspectratio>square</pixelaspectratio>
					<fielddominance>none</fielddominance>
					</samplecharacteristics>
					</video>
					</media>
					</file>
					<filter>
					<effect>
					<name></name>
					<effectid>GraphicAndType</effectid>
					<effectcategory>graphic</effectcategory>
					<effecttype>filter</effecttype>
					<mediatype>video</mediatype>
					<pproBypass>false</pproBypass>
					<parameter authoringApp="PremierePro">
					<parameterid>1</parameterid>
					<name></name>
					<hash>025b1101-ead6-0ca2-1feb-caf3000001fc</hash>
					<value>5AEAAAAAAABEMyIRDAAAAAAABgAKAAQABgAAAGQAAAAAAF4ASAAQAAwARABAADwAOAAAAAAAAAAAADQAMwAsAAAAKAAkACAAAAAAAAAAAAAAAAAAHAAAAAAAGgAAAAAAAAAUAAAAAAAAAAAAAAAAAAAAAAAAAAgAAAAAABsABwBeAAAAAAAAAUAAAABQAAAAbAAAAAIAAAAAAAEAAQAAAAAAQEEAAMBAAABAQAAAyEIAAAABIAAAAAIAAAACAAAAAAA2QwCASkTw/v//9P7///j+//8S////AAAAAAEAAAAEAAAAEQAAAEhHUFNvZWlLYWt1cG9wdGFpAAAAAQAAAAwAAAAIAAwABAAIAAgAAAAIAAAAUAAAAA8AAADvvIEAAAAAAAAAAAAAAAAAAAA2ACQAAAAgABwAAAAAABsAFAAAAAAAAAAAAAAAAAAAAAAAAAAAABAAAAAAAAAADAAAAAgABAA2AAAAAgAAABwAAAAcAAAAHAAAAAAAIEEAAAABaAAAAE3PAEOw////tP///wEAAAAUAAAAEAAaAAgABwAMAAAAEAAUABAAAAAAAAABHAAAAAAAoEEcAAAAAgAAAAAACgAIAAUABgAHAAoAAAAADAD//P///wQABAAEAAAACAAIAAYABwAIAAAAAAAMAA==</value>
					</parameter>
					<parameter authoringApp="PremierePro">
					<parameterid>2</parameterid>
					<name></name>
					<IsTimeVarying>false</IsTimeVarying>
					<ParameterControlType>11</ParameterControlType>
					<LowerBound>false</LowerBound>
					<UpperBound>false</UpperBound>
					<value>-91445760000000000,false,0,0,0,0,0,0</value>
					</parameter>
					<parameter authoringApp="PremierePro">
					<parameterid>3</parameterid>
					<name></name>
					<IsTimeVarying>false</IsTimeVarying>
					<value>-91445760000000000,0.5:0.5,0,0,0,0,0,0,5,4,0,0,0,0</value>
					</parameter>
					<parameter authoringApp="PremierePro">
					<parameterid>4</parameterid>
					<name></name>
					<IsTimeVarying>false</IsTimeVarying>
					<ParameterControlType>2</ParameterControlType>
					<LowerBound>0</LowerBound>
					<UpperBound>4000</UpperBound>
					<value>-91445760000000000,100.,0,0,0,0,0,0</value>
					</parameter>
					<parameter authoringApp="PremierePro">
					<parameterid>8</parameterid>
					<name></name>
					<IsTimeVarying>false</IsTimeVarying>
					<ParameterControlType>2</ParameterControlType>
					<LowerBound>0</LowerBound>
					<UpperBound>100</UpperBound>
					<value>-91445760000000000,100.,0,0,0,0,0,0</value>
					</parameter>
					</effect>
					</filter>
					<logginginfo>
					<description></description>
					<scene></scene>
					<shottake></shottake>
					<lognote></lognote>
					<good></good>
					<originalvideofilename></originalvideofilename>
					<originalaudiofilename></originalaudiofilename>
					</logginginfo>
					<colorinfo>
					<lut></lut>
					<lut1></lut1>
					<asc_sop></asc_sop>
					<asc_sat></asc_sat>
					<lut2></lut2>
					</colorinfo>
					<labels>
					</labels>
					</clipitem>
					<clipitem frameBlend="FALSE" id="clipitem-193">
					<masterclipid>masterclip-113</masterclipid>
					<name></name>
					<enabled>TRUE</enabled>
					<duration>2582774</duration>
					<rate>
					
					                                    <timebase>60</timebase>
					                                    <ntsc>TRUE</ntsc>
					                                
					</rate>
					<start>761</start>
					<end>821</end>
					<in>761</in>
					<out>821</out>
					<pproTicksIn>914456774963789</pproTicksIn>
					<pproTicksOut>914677708529577</pproTicksOut>
					<alphatype>straight</alphatype>
					<pixelaspectratio>square</pixelaspectratio>
					<anamorphic>FALSE</anamorphic>
					<file id="file-112">
					<name></name>
					<mediaSource>GraphicAndType</mediaSource>
					<rate>
					<timebase>60</timebase>
					<ntsc>TRUE</ntsc>
					</rate>
					<timecode>
					<rate>
					<timebase>60</timebase>
					<ntsc>TRUE</ntsc>
					</rate>
					<string>00:00:00:00</string>
					<frame>0</frame>
					<displayformat>NDF</displayformat>
					</timecode>
					<media>
					<video>
					<samplecharacteristics>
					<rate>
					<timebase>60</timebase>
					<ntsc>TRUE</ntsc>
					</rate>
					<width>1080</width>
					<height>1920</height>
					<anamorphic>FALSE</anamorphic>
					<pixelaspectratio>square</pixelaspectratio>
					<fielddominance>none</fielddominance>
					</samplecharacteristics>
					</video>
					</media>
					</file>
					<filter>
					<effect>
					<name></name>
					<effectid>GraphicAndType</effectid>
					<effectcategory>graphic</effectcategory>
					<effecttype>filter</effecttype>
					<mediatype>video</mediatype>
					<pproBypass>false</pproBypass>
					<parameter authoringApp="PremierePro">
					<parameterid>1</parameterid>
					<name></name>
					<hash>025b1101-ead6-0ca2-1feb-caf3000001fc</hash>
					<value>5AEAAAAAAABEMyIRDAAAAAAABgAKAAQABgAAAGQAAAAAAF4ASAAQAAwARABAADwAOAAAAAAAAAAAADQAMwAsAAAAKAAkACAAAAAAAAAAAAAAAAAAHAAAAAAAGgAAAAAAAAAUAAAAAAAAAAAAAAAAAAAAAAAAAAgAAAAAABsABwBeAAAAAAAAAUAAAABQAAAAbAAAAAIAAAAAAAEAAQAAAAAAQEEAAMBAAABAQAAAyEIAAAABIAAAAAIAAAACAAAAAAA2QwCASkTw/v//9P7///j+//8S////AAAAAAEAAAAEAAAAEQAAAEhHUFNvZWlLYWt1cG9wdGFpAAAAAQAAAAwAAAAIAAwABAAIAAgAAAAIAAAAUAAAAA8AAADvvIEAAAAAAAAAAAAAAAAAAAA2ACQAAAAgABwAAAAAABsAFAAAAAAAAAAAAAAAAAAAAAAAAAAAABAAAAAAAAAADAAAAAgABAA2AAAAAgAAABwAAAAcAAAAHAAAAAAAIEEAAAABaAAAAE3PAEOw////tP///wEAAAAUAAAAEAAaAAgABwAMAAAAEAAUABAAAAAAAAABHAAAAAAAoEEcAAAAAgAAAAAACgAIAAUABgAHAAoAAAAADAD//P///wQABAAEAAAACAAIAAYABwAIAAAAAAAMAA==</value>
					</parameter>
					<parameter authoringApp="PremierePro">
					<parameterid>2</parameterid>
					<name></name>
					<IsTimeVarying>false</IsTimeVarying>
					<ParameterControlType>11</ParameterControlType>
					<LowerBound>false</LowerBound>
					<UpperBound>false</UpperBound>
					<value>-91445760000000000,false,0,0,0,0,0,0</value>
					</parameter>
					<parameter authoringApp="PremierePro">
					<parameterid>3</parameterid>
					<name></name>
					<IsTimeVarying>false</IsTimeVarying>
					<value>-91445760000000000,0.5:0.5,0,0,0,0,0,0,5,4,0,0,0,0</value>
					</parameter>
					<parameter authoringApp="PremierePro">
					<parameterid>4</parameterid>
					<name></name>
					<IsTimeVarying>false</IsTimeVarying>
					<ParameterControlType>2</ParameterControlType>
					<LowerBound>0</LowerBound>
					<UpperBound>4000</UpperBound>
					<value>-91445760000000000,100.,0,0,0,0,0,0</value>
					</parameter>
					<parameter authoringApp="PremierePro">
					<parameterid>8</parameterid>
					<name></name>
					<IsTimeVarying>false</IsTimeVarying>
					<ParameterControlType>2</ParameterControlType>
					<LowerBound>0</LowerBound>
					<UpperBound>100</UpperBound>
					<value>-91445760000000000,100.,0,0,0,0,0,0</value>
					</parameter>
					</effect>
					</filter>
					<logginginfo>
					<description></description>
					<scene></scene>
					<shottake></shottake>
					<lognote></lognote>
					<good></good>
					<originalvideofilename></originalvideofilename>
					<originalaudiofilename></originalaudiofilename>
					</logginginfo>
					<colorinfo>
					<lut></lut>
					<lut1></lut1>
					<asc_sop></asc_sop>
					<asc_sat></asc_sat>
					<lut2></lut2>
					</colorinfo>
					<labels>
					</labels>
					</clipitem>
					<clipitem frameBlend="FALSE" id="clipitem-200">
					<masterclipid>masterclip-120</masterclipid>
					<name></name>
					<enabled>TRUE</enabled>
					<duration>2582774</duration>
					<rate>
					
					                                    <timebase>60</timebase>
					                                    <ntsc>TRUE</ntsc>
					                                
					</rate>
					<start>821</start>
					<end>887</end>
					<in>821</in>
					<out>887</out>
					<pproTicksIn>914456774963789</pproTicksIn>
					<pproTicksOut>914677708529577</pproTicksOut>
					<alphatype>straight</alphatype>
					<pixelaspectratio>square</pixelaspectratio>
					<anamorphic>FALSE</anamorphic>
					<file id="file-119">
					<name></name>
					<mediaSource>GraphicAndType</mediaSource>
					<rate>
					<timebase>60</timebase>
					<ntsc>TRUE</ntsc>
					</rate>
					<timecode>
					<rate>
					<timebase>60</timebase>
					<ntsc>TRUE</ntsc>
					</rate>
					<string>00:00:00:00</string>
					<frame>0</frame>
					<displayformat>NDF</displayformat>
					</timecode>
					<media>
					<video>
					<samplecharacteristics>
					<rate>
					<timebase>60</timebase>
					<ntsc>TRUE</ntsc>
					</rate>
					<width>1080</width>
					<height>1920</height>
					<anamorphic>FALSE</anamorphic>
					<pixelaspectratio>square</pixelaspectratio>
					<fielddominance>none</fielddominance>
					</samplecharacteristics>
					</video>
					</media>
					</file>
					<filter>
					<effect>
					<name></name>
					<effectid>GraphicAndType</effectid>
					<effectcategory>graphic</effectcategory>
					<effecttype>filter</effecttype>
					<mediatype>video</mediatype>
					<pproBypass>false</pproBypass>
					<parameter authoringApp="PremierePro">
					<parameterid>1</parameterid>
					<name></name>
					<hash>025b1101-ead6-0ca2-1feb-caf3000001fc</hash>
					<value>5AEAAAAAAABEMyIRDAAAAAAABgAKAAQABgAAAGQAAAAAAF4ASAAQAAwARABAADwAOAAAAAAAAAAAADQAMwAsAAAAKAAkACAAAAAAAAAAAAAAAAAAHAAAAAAAGgAAAAAAAAAUAAAAAAAAAAAAAAAAAAAAAAAAAAgAAAAAABsABwBeAAAAAAAAAUAAAABQAAAAbAAAAAIAAAAAAAEAAQAAAAAAQEEAAMBAAABAQAAAyEIAAAABIAAAAAIAAAACAAAAAAA2QwCASkTw/v//9P7///j+//8S////AAAAAAEAAAAEAAAAEQAAAEhHUFNvZWlLYWt1cG9wdGFpAAAAAQAAAAwAAAAIAAwABAAIAAgAAAAIAAAAUAAAAA8AAADvvIEAAAAAAAAAAAAAAAAAAAA2ACQAAAAgABwAAAAAABsAFAAAAAAAAAAAAAAAAAAAAAAAAAAAABAAAAAAAAAADAAAAAgABAA2AAAAAgAAABwAAAAcAAAAHAAAAAAAIEEAAAABaAAAAE3PAEOw////tP///wEAAAAUAAAAEAAaAAgABwAMAAAAEAAUABAAAAAAAAABHAAAAAAAoEEcAAAAAgAAAAAACgAIAAUABgAHAAoAAAAADAD//P///wQABAAEAAAACAAIAAYABwAIAAAAAAAMAA==</value>
					</parameter>
					<parameter authoringApp="PremierePro">
					<parameterid>2</parameterid>
					<name></name>
					<IsTimeVarying>false</IsTimeVarying>
					<ParameterControlType>11</ParameterControlType>
					<LowerBound>false</LowerBound>
					<UpperBound>false</UpperBound>
					<value>-91445760000000000,false,0,0,0,0,0,0</value>
					</parameter>
					<parameter authoringApp="PremierePro">
					<parameterid>3</parameterid>
					<name></name>
					<IsTimeVarying>false</IsTimeVarying>
					<value>-91445760000000000,0.5:0.5,0,0,0,0,0,0,5,4,0,0,0,0</value>
					</parameter>
					<parameter authoringApp="PremierePro">
					<parameterid>4</parameterid>
					<name></name>
					<IsTimeVarying>false</IsTimeVarying>
					<ParameterControlType>2</ParameterControlType>
					<LowerBound>0</LowerBound>
					<UpperBound>4000</UpperBound>
					<value>-91445760000000000,100.,0,0,0,0,0,0</value>
					</parameter>
					<parameter authoringApp="PremierePro">
					<parameterid>8</parameterid>
					<name></name>
					<IsTimeVarying>false</IsTimeVarying>
					<ParameterControlType>2</ParameterControlType>
					<LowerBound>0</LowerBound>
					<UpperBound>100</UpperBound>
					<value>-91445760000000000,100.,0,0,0,0,0,0</value>
					</parameter>
					</effect>
					</filter>
					<logginginfo>
					<description></description>
					<scene></scene>
					<shottake></shottake>
					<lognote></lognote>
					<good></good>
					<originalvideofilename></originalvideofilename>
					<originalaudiofilename></originalaudiofilename>
					</logginginfo>
					<colorinfo>
					<lut></lut>
					<lut1></lut1>
					<asc_sop></asc_sop>
					<asc_sat></asc_sat>
					<lut2></lut2>
					</colorinfo>
					<labels>
					</labels>
					</clipitem>
					<clipitem id="clipitem-208"/>
					                        </track>
					                        <track TL.SQTrackShy="0" TL.SQTrackExpandedHeight="25" TL.SQTrackExpanded="0" MZ.TrackTargeted="0">
					<clipitem frameBlend="FALSE" id="clipitem-209">
					<masterclipid>masterclip-129</masterclipid>
					<name></name>
					<enabled>TRUE</enabled>
					<duration>2582774</duration>
					<rate>
					
					                                    <timebase>60</timebase>
					                                    <ntsc>TRUE</ntsc>
					                                
					</rate>
					<start>887</start>
					<end>947</end>
					<in>887</in>
					<out>947</out>
					<pproTicksIn>914456774963789</pproTicksIn>
					<pproTicksOut>914677708529577</pproTicksOut>
					<alphatype>straight</alphatype>
					<pixelaspectratio>square</pixelaspectratio>
					<anamorphic>FALSE</anamorphic>
					<file id="file-128">
					<name></name>
					<mediaSource>GraphicAndType</mediaSource>
					<rate>
					<timebase>60</timebase>
					<ntsc>TRUE</ntsc>
					</rate>
					<timecode>
					<rate>
					<timebase>60</timebase>
					<ntsc>TRUE</ntsc>
					</rate>
					<string>00:00:00:00</string>
					<frame>0</frame>
					<displayformat>NDF</displayformat>
					</timecode>
					<media>
					<video>
					<samplecharacteristics>
					<rate>
					<timebase>60</timebase>
					<ntsc>TRUE</ntsc>
					</rate>
					<width>1080</width>
					<height>1920</height>
					<anamorphic>FALSE</anamorphic>
					<pixelaspectratio>square</pixelaspectratio>
					<fielddominance>none</fielddominance>
					</samplecharacteristics>
					</video>
					</media>
					</file>
					<filter>
					<effect>
					<name></name>
					<effectid>GraphicAndType</effectid>
					<effectcategory>graphic</effectcategory>
					<effecttype>filter</effecttype>
					<mediatype>video</mediatype>
					<pproBypass>false</pproBypass>
					<parameter authoringApp="PremierePro">
					<parameterid>1</parameterid>
					<name></name>
					<hash>025b1101-ead6-0ca2-1feb-caf3000001fc</hash>
					<value>5AEAAAAAAABEMyIRDAAAAAAABgAKAAQABgAAAGQAAAAAAF4ASAAQAAwARABAADwAOAAAAAAAAAAAADQAMwAsAAAAKAAkACAAAAAAAAAAAAAAAAAAHAAAAAAAGgAAAAAAAAAUAAAAAAAAAAAAAAAAAAAAAAAAAAgAAAAAABsABwBeAAAAAAAAAUAAAABQAAAAbAAAAAIAAAAAAAEAAQAAAAAAQEEAAMBAAABAQAAAyEIAAAABIAAAAAIAAAACAAAAAAA2QwCASkTw/v//9P7///j+//8S////AAAAAAEAAAAEAAAAEQAAAEhHUFNvZWlLYWt1cG9wdGFpAAAAAQAAAAwAAAAIAAwABAAIAAgAAAAIAAAAUAAAAA8AAADvvIEAAAAAAAAAAAAAAAAAAAA2ACQAAAAgABwAAAAAABsAFAAAAAAAAAAAAAAAAAAAAAAAAAAAABAAAAAAAAAADAAAAAgABAA2AAAAAgAAABwAAAAcAAAAHAAAAAAAIEEAAAABaAAAAE3PAEOw////tP///wEAAAAUAAAAEAAaAAgABwAMAAAAEAAUABAAAAAAAAABHAAAAAAAoEEcAAAAAgAAAAAACgAIAAUABgAHAAoAAAAADAD//P///wQABAAEAAAACAAIAAYABwAIAAAAAAAMAA==</value>
					</parameter>
					<parameter authoringApp="PremierePro">
					<parameterid>2</parameterid>
					<name></name>
					<IsTimeVarying>false</IsTimeVarying>
					<ParameterControlType>11</ParameterControlType>
					<LowerBound>false</LowerBound>
					<UpperBound>false</UpperBound>
					<value>-91445760000000000,false,0,0,0,0,0,0</value>
					</parameter>
					<parameter authoringApp="PremierePro">
					<parameterid>3</parameterid>
					<name></name>
					<IsTimeVarying>false</IsTimeVarying>
					<value>-91445760000000000,0.5:0.5,0,0,0,0,0,0,5,4,0,0,0,0</value>
					</parameter>
					<parameter authoringApp="PremierePro">
					<parameterid>4</parameterid>
					<name></name>
					<IsTimeVarying>false</IsTimeVarying>
					<ParameterControlType>2</ParameterControlType>
					<LowerBound>0</LowerBound>
					<UpperBound>4000</UpperBound>
					<value>-91445760000000000,100.,0,0,0,0,0,0</value>
					</parameter>
					<parameter authoringApp="PremierePro">
					<parameterid>8</parameterid>
					<name></name>
					<IsTimeVarying>false</IsTimeVarying>
					<ParameterControlType>2</ParameterControlType>
					<LowerBound>0</LowerBound>
					<UpperBound>100</UpperBound>
					<value>-91445760000000000,100.,0,0,0,0,0,0</value>
					</parameter>
					</effect>
					</filter>
					<logginginfo>
					<description></description>
					<scene></scene>
					<shottake></shottake>
					<lognote></lognote>
					<good></good>
					<originalvideofilename></originalvideofilename>
					<originalaudiofilename></originalaudiofilename>
					</logginginfo>
					<colorinfo>
					<lut></lut>
					<lut1></lut1>
					<asc_sop></asc_sop>
					<asc_sat></asc_sat>
					<lut2></lut2>
					</colorinfo>
					<labels>
					</labels>
					</clipitem>
					<clipitem frameBlend="FALSE" id="clipitem-218">
					<masterclipid>masterclip-138</masterclipid>
					<name></name>
					<enabled>TRUE</enabled>
					<duration>2582774</duration>
					<rate>
					
					                                    <timebase>60</timebase>
					                                    <ntsc>TRUE</ntsc>
					                                
					</rate>
					<start>947</start>
					<end>1007</end>
					<in>947</in>
					<out>1007</out>
					<pproTicksIn>914456774963789</pproTicksIn>
					<pproTicksOut>914677708529577</pproTicksOut>
					<alphatype>straight</alphatype>
					<pixelaspectratio>square</pixelaspectratio>
					<anamorphic>FALSE</anamorphic>
					<file id="file-137">
					<name></name>
					<mediaSource>GraphicAndType</mediaSource>
					<rate>
					<timebase>60</timebase>
					<ntsc>TRUE</ntsc>
					</rate>
					<timecode>
					<rate>
					<timebase>60</timebase>
					<ntsc>TRUE</ntsc>
					</rate>
					<string>00:00:00:00</string>
					<frame>0</frame>
					<displayformat>NDF</displayformat>
					</timecode>
					<media>
					<video>
					<samplecharacteristics>
					<rate>
					<timebase>60</timebase>
					<ntsc>TRUE</ntsc>
					</rate>
					<width>1080</width>
					<height>1920</height>
					<anamorphic>FALSE</anamorphic>
					<pixelaspectratio>square</pixelaspectratio>
					<fielddominance>none</fielddominance>
					</samplecharacteristics>
					</video>
					</media>
					</file>
					<filter>
					<effect>
					<name></name>
					<effectid>GraphicAndType</effectid>
					<effectcategory>graphic</effectcategory>
					<effecttype>filter</effecttype>
					<mediatype>video</mediatype>
					<pproBypass>false</pproBypass>
					<parameter authoringApp="PremierePro">
					<parameterid>1</parameterid>
					<name></name>
					<hash>025b1101-ead6-0ca2-1feb-caf3000001fc</hash>
					<value>5AEAAAAAAABEMyIRDAAAAAAABgAKAAQABgAAAGQAAAAAAF4ASAAQAAwARABAADwAOAAAAAAAAAAAADQAMwAsAAAAKAAkACAAAAAAAAAAAAAAAAAAHAAAAAAAGgAAAAAAAAAUAAAAAAAAAAAAAAAAAAAAAAAAAAgAAAAAABsABwBeAAAAAAAAAUAAAABQAAAAbAAAAAIAAAAAAAEAAQAAAAAAQEEAAMBAAABAQAAAyEIAAAABIAAAAAIAAAACAAAAAAA2QwCASkTw/v//9P7///j+//8S////AAAAAAEAAAAEAAAAEQAAAEhHUFNvZWlLYWt1cG9wdGFpAAAAAQAAAAwAAAAIAAwABAAIAAgAAAAIAAAAUAAAAA8AAADvvIEAAAAAAAAAAAAAAAAAAAA2ACQAAAAgABwAAAAAABsAFAAAAAAAAAAAAAAAAAAAAAAAAAAAABAAAAAAAAAADAAAAAgABAA2AAAAAgAAABwAAAAcAAAAHAAAAAAAIEEAAAABaAAAAE3PAEOw////tP///wEAAAAUAAAAEAAaAAgABwAMAAAAEAAUABAAAAAAAAABHAAAAAAAoEEcAAAAAgAAAAAACgAIAAUABgAHAAoAAAAADAD//P///wQABAAEAAAACAAIAAYABwAIAAAAAAAMAA==</value>
					</parameter>
					<parameter authoringApp="PremierePro">
					<parameterid>2</parameterid>
					<name></name>
					<IsTimeVarying>false</IsTimeVarying>
					<ParameterControlType>11</ParameterControlType>
					<LowerBound>false</LowerBound>
					<UpperBound>false</UpperBound>
					<value>-91445760000000000,false,0,0,0,0,0,0</value>
					</parameter>
					<parameter authoringApp="PremierePro">
					<parameterid>3</parameterid>
					<name></name>
					<IsTimeVarying>false</IsTimeVarying>
					<value>-91445760000000000,0.5:0.5,0,0,0,0,0,0,5,4,0,0,0,0</value>
					</parameter>
					<parameter authoringApp="PremierePro">
					<parameterid>4</parameterid>
					<name></name>
					<IsTimeVarying>false</IsTimeVarying>
					<ParameterControlType>2</ParameterControlType>
					<LowerBound>0</LowerBound>
					<UpperBound>4000</UpperBound>
					<value>-91445760000000000,100.,0,0,0,0,0,0</value>
					</parameter>
					<parameter authoringApp="PremierePro">
					<parameterid>8</parameterid>
					<name></name>
					<IsTimeVarying>false</IsTimeVarying>
					<ParameterControlType>2</ParameterControlType>
					<LowerBound>0</LowerBound>
					<UpperBound>100</UpperBound>
					<value>-91445760000000000,100.,0,0,0,0,0,0</value>
					</parameter>
					</effect>
					</filter>
					<logginginfo>
					<description></description>
					<scene></scene>
					<shottake></shottake>
					<lognote></lognote>
					<good></good>
					<originalvideofilename></originalvideofilename>
					<originalaudiofilename></originalaudiofilename>
					</logginginfo>
					<colorinfo>
					<lut></lut>
					<lut1></lut1>
					<asc_sop></asc_sop>
					<asc_sat></asc_sat>
					<lut2></lut2>
					</colorinfo>
					<labels>
					</labels>
					</clipitem>
					<clipitem frameBlend="FALSE" id="clipitem-230">
					<masterclipid>masterclip-150</masterclipid>
					<name></name>
					<enabled>TRUE</enabled>
					<duration>2582774</duration>
					<rate>
					
					                                    <timebase>60</timebase>
					                                    <ntsc>TRUE</ntsc>
					                                
					</rate>
					<start>1007</start>
					<end>1067</end>
					<in>1007</in>
					<out>1067</out>
					<pproTicksIn>914456774963789</pproTicksIn>
					<pproTicksOut>914677708529577</pproTicksOut>
					<alphatype>straight</alphatype>
					<pixelaspectratio>square</pixelaspectratio>
					<anamorphic>FALSE</anamorphic>
					<file id="file-149">
					<name></name>
					<mediaSource>GraphicAndType</mediaSource>
					<rate>
					<timebase>60</timebase>
					<ntsc>TRUE</ntsc>
					</rate>
					<timecode>
					<rate>
					<timebase>60</timebase>
					<ntsc>TRUE</ntsc>
					</rate>
					<string>00:00:00:00</string>
					<frame>0</frame>
					<displayformat>NDF</displayformat>
					</timecode>
					<media>
					<video>
					<samplecharacteristics>
					<rate>
					<timebase>60</timebase>
					<ntsc>TRUE</ntsc>
					</rate>
					<width>1080</width>
					<height>1920</height>
					<anamorphic>FALSE</anamorphic>
					<pixelaspectratio>square</pixelaspectratio>
					<fielddominance>none</fielddominance>
					</samplecharacteristics>
					</video>
					</media>
					</file>
					<filter>
					<effect>
					<name></name>
					<effectid>GraphicAndType</effectid>
					<effectcategory>graphic</effectcategory>
					<effecttype>filter</effecttype>
					<mediatype>video</mediatype>
					<pproBypass>false</pproBypass>
					<parameter authoringApp="PremierePro">
					<parameterid>1</parameterid>
					<name></name>
					<hash>025b1101-ead6-0ca2-1feb-caf3000001fc</hash>
					<value>5AEAAAAAAABEMyIRDAAAAAAABgAKAAQABgAAAGQAAAAAAF4ASAAQAAwARABAADwAOAAAAAAAAAAAADQAMwAsAAAAKAAkACAAAAAAAAAAAAAAAAAAHAAAAAAAGgAAAAAAAAAUAAAAAAAAAAAAAAAAAAAAAAAAAAgAAAAAABsABwBeAAAAAAAAAUAAAABQAAAAbAAAAAIAAAAAAAEAAQAAAAAAQEEAAMBAAABAQAAAyEIAAAABIAAAAAIAAAACAAAAAAA2QwCASkTw/v//9P7///j+//8S////AAAAAAEAAAAEAAAAEQAAAEhHUFNvZWlLYWt1cG9wdGFpAAAAAQAAAAwAAAAIAAwABAAIAAgAAAAIAAAAUAAAAA8AAADvvIEAAAAAAAAAAAAAAAAAAAA2ACQAAAAgABwAAAAAABsAFAAAAAAAAAAAAAAAAAAAAAAAAAAAABAAAAAAAAAADAAAAAgABAA2AAAAAgAAABwAAAAcAAAAHAAAAAAAIEEAAAABaAAAAE3PAEOw////tP///wEAAAAUAAAAEAAaAAgABwAMAAAAEAAUABAAAAAAAAABHAAAAAAAoEEcAAAAAgAAAAAACgAIAAUABgAHAAoAAAAADAD//P///wQABAAEAAAACAAIAAYABwAIAAAAAAAMAA==</value>
					</parameter>
					<parameter authoringApp="PremierePro">
					<parameterid>2</parameterid>
					<name></name>
					<IsTimeVarying>false</IsTimeVarying>
					<ParameterControlType>11</ParameterControlType>
					<LowerBound>false</LowerBound>
					<UpperBound>false</UpperBound>
					<value>-91445760000000000,false,0,0,0,0,0,0</value>
					</parameter>
					<parameter authoringApp="PremierePro">
					<parameterid>3</parameterid>
					<name></name>
					<IsTimeVarying>false</IsTimeVarying>
					<value>-91445760000000000,0.5:0.5,0,0,0,0,0,0,5,4,0,0,0,0</value>
					</parameter>
					<parameter authoringApp="PremierePro">
					<parameterid>4</parameterid>
					<name></name>
					<IsTimeVarying>false</IsTimeVarying>
					<ParameterControlType>2</ParameterControlType>
					<LowerBound>0</LowerBound>
					<UpperBound>4000</UpperBound>
					<value>-91445760000000000,100.,0,0,0,0,0,0</value>
					</parameter>
					<parameter authoringApp="PremierePro">
					<parameterid>8</parameterid>
					<name></name>
					<IsTimeVarying>false</IsTimeVarying>
					<ParameterControlType>2</ParameterControlType>
					<LowerBound>0</LowerBound>
					<UpperBound>100</UpperBound>
					<value>-91445760000000000,100.,0,0,0,0,0,0</value>
					</parameter>
					</effect>
					</filter>
					<logginginfo>
					<description></description>
					<scene></scene>
					<shottake></shottake>
					<lognote></lognote>
					<good></good>
					<originalvideofilename></originalvideofilename>
					<originalaudiofilename></originalaudiofilename>
					</logginginfo>
					<colorinfo>
					<lut></lut>
					<lut1></lut1>
					<asc_sop></asc_sop>
					<asc_sat></asc_sat>
					<lut2></lut2>
					</colorinfo>
					<labels>
					</labels>
					</clipitem>
					<clipitem frameBlend="FALSE" id="clipitem-238">
					<masterclipid>masterclip-158</masterclipid>
					<name></name>
					<enabled>TRUE</enabled>
					<duration>2582774</duration>
					<rate>
					
					                                    <timebase>60</timebase>
					                                    <ntsc>TRUE</ntsc>
					                                
					</rate>
					<start>1067</start>
					<end>1127</end>
					<in>1067</in>
					<out>1127</out>
					<pproTicksIn>914456774963789</pproTicksIn>
					<pproTicksOut>914677708529577</pproTicksOut>
					<alphatype>straight</alphatype>
					<pixelaspectratio>square</pixelaspectratio>
					<anamorphic>FALSE</anamorphic>
					<file id="file-157">
					<name></name>
					<mediaSource>GraphicAndType</mediaSource>
					<rate>
					<timebase>60</timebase>
					<ntsc>TRUE</ntsc>
					</rate>
					<timecode>
					<rate>
					<timebase>60</timebase>
					<ntsc>TRUE</ntsc>
					</rate>
					<string>00:00:00:00</string>
					<frame>0</frame>
					<displayformat>NDF</displayformat>
					</timecode>
					<media>
					<video>
					<samplecharacteristics>
					<rate>
					<timebase>60</timebase>
					<ntsc>TRUE</ntsc>
					</rate>
					<width>1080</width>
					<height>1920</height>
					<anamorphic>FALSE</anamorphic>
					<pixelaspectratio>square</pixelaspectratio>
					<fielddominance>none</fielddominance>
					</samplecharacteristics>
					</video>
					</media>
					</file>
					<filter>
					<effect>
					<name></name>
					<effectid>GraphicAndType</effectid>
					<effectcategory>graphic</effectcategory>
					<effecttype>filter</effecttype>
					<mediatype>video</mediatype>
					<pproBypass>false</pproBypass>
					<parameter authoringApp="PremierePro">
					<parameterid>1</parameterid>
					<name></name>
					<hash>025b1101-ead6-0ca2-1feb-caf3000001fc</hash>
					<value>5AEAAAAAAABEMyIRDAAAAAAABgAKAAQABgAAAGQAAAAAAF4ASAAQAAwARABAADwAOAAAAAAAAAAAADQAMwAsAAAAKAAkACAAAAAAAAAAAAAAAAAAHAAAAAAAGgAAAAAAAAAUAAAAAAAAAAAAAAAAAAAAAAAAAAgAAAAAABsABwBeAAAAAAAAAUAAAABQAAAAbAAAAAIAAAAAAAEAAQAAAAAAQEEAAMBAAABAQAAAyEIAAAABIAAAAAIAAAACAAAAAAA2QwCASkTw/v//9P7///j+//8S////AAAAAAEAAAAEAAAAEQAAAEhHUFNvZWlLYWt1cG9wdGFpAAAAAQAAAAwAAAAIAAwABAAIAAgAAAAIAAAAUAAAAA8AAADvvIEAAAAAAAAAAAAAAAAAAAA2ACQAAAAgABwAAAAAABsAFAAAAAAAAAAAAAAAAAAAAAAAAAAAABAAAAAAAAAADAAAAAgABAA2AAAAAgAAABwAAAAcAAAAHAAAAAAAIEEAAAABaAAAAE3PAEOw////tP///wEAAAAUAAAAEAAaAAgABwAMAAAAEAAUABAAAAAAAAABHAAAAAAAoEEcAAAAAgAAAAAACgAIAAUABgAHAAoAAAAADAD//P///wQABAAEAAAACAAIAAYABwAIAAAAAAAMAA==</value>
					</parameter>
					<parameter authoringApp="PremierePro">
					<parameterid>2</parameterid>
					<name></name>
					<IsTimeVarying>false</IsTimeVarying>
					<ParameterControlType>11</ParameterControlType>
					<LowerBound>false</LowerBound>
					<UpperBound>false</UpperBound>
					<value>-91445760000000000,false,0,0,0,0,0,0</value>
					</parameter>
					<parameter authoringApp="PremierePro">
					<parameterid>3</parameterid>
					<name></name>
					<IsTimeVarying>false</IsTimeVarying>
					<value>-91445760000000000,0.5:0.5,0,0,0,0,0,0,5,4,0,0,0,0</value>
					</parameter>
					<parameter authoringApp="PremierePro">
					<parameterid>4</parameterid>
					<name></name>
					<IsTimeVarying>false</IsTimeVarying>
					<ParameterControlType>2</ParameterControlType>
					<LowerBound>0</LowerBound>
					<UpperBound>4000</UpperBound>
					<value>-91445760000000000,100.,0,0,0,0,0,0</value>
					</parameter>
					<parameter authoringApp="PremierePro">
					<parameterid>8</parameterid>
					<name></name>
					<IsTimeVarying>false</IsTimeVarying>
					<ParameterControlType>2</ParameterControlType>
					<LowerBound>0</LowerBound>
					<UpperBound>100</UpperBound>
					<value>-91445760000000000,100.,0,0,0,0,0,0</value>
					</parameter>
					</effect>
					</filter>
					<logginginfo>
					<description></description>
					<scene></scene>
					<shottake></shottake>
					<lognote></lognote>
					<good></good>
					<originalvideofilename></originalvideofilename>
					<originalaudiofilename></originalaudiofilename>
					</logginginfo>
					<colorinfo>
					<lut></lut>
					<lut1></lut1>
					<asc_sop></asc_sop>
					<asc_sat></asc_sat>
					<lut2></lut2>
					</colorinfo>
					<labels>
					</labels>
					</clipitem>
					<clipitem frameBlend="FALSE" id="clipitem-244">
					<masterclipid>masterclip-164</masterclipid>
					<name></name>
					<enabled>TRUE</enabled>
					<duration>2582774</duration>
					<rate>
					
					                                    <timebase>60</timebase>
					                                    <ntsc>TRUE</ntsc>
					                                
					</rate>
					<start>1151</start>
					<end>1211</end>
					<in>1151</in>
					<out>1211</out>
					<pproTicksIn>914456774963789</pproTicksIn>
					<pproTicksOut>914677708529577</pproTicksOut>
					<alphatype>straight</alphatype>
					<pixelaspectratio>square</pixelaspectratio>
					<anamorphic>FALSE</anamorphic>
					<file id="file-163">
					<name></name>
					<mediaSource>GraphicAndType</mediaSource>
					<rate>
					<timebase>60</timebase>
					<ntsc>TRUE</ntsc>
					</rate>
					<timecode>
					<rate>
					<timebase>60</timebase>
					<ntsc>TRUE</ntsc>
					</rate>
					<string>00:00:00:00</string>
					<frame>0</frame>
					<displayformat>NDF</displayformat>
					</timecode>
					<media>
					<video>
					<samplecharacteristics>
					<rate>
					<timebase>60</timebase>
					<ntsc>TRUE</ntsc>
					</rate>
					<width>1080</width>
					<height>1920</height>
					<anamorphic>FALSE</anamorphic>
					<pixelaspectratio>square</pixelaspectratio>
					<fielddominance>none</fielddominance>
					</samplecharacteristics>
					</video>
					</media>
					</file>
					<filter>
					<effect>
					<name></name>
					<effectid>GraphicAndType</effectid>
					<effectcategory>graphic</effectcategory>
					<effecttype>filter</effecttype>
					<mediatype>video</mediatype>
					<pproBypass>false</pproBypass>
					<parameter authoringApp="PremierePro">
					<parameterid>1</parameterid>
					<name></name>
					<hash>025b1101-ead6-0ca2-1feb-caf3000001fc</hash>
					<value>5AEAAAAAAABEMyIRDAAAAAAABgAKAAQABgAAAGQAAAAAAF4ASAAQAAwARABAADwAOAAAAAAAAAAAADQAMwAsAAAAKAAkACAAAAAAAAAAAAAAAAAAHAAAAAAAGgAAAAAAAAAUAAAAAAAAAAAAAAAAAAAAAAAAAAgAAAAAABsABwBeAAAAAAAAAUAAAABQAAAAbAAAAAIAAAAAAAEAAQAAAAAAQEEAAMBAAABAQAAAyEIAAAABIAAAAAIAAAACAAAAAAA2QwCASkTw/v//9P7///j+//8S////AAAAAAEAAAAEAAAAEQAAAEhHUFNvZWlLYWt1cG9wdGFpAAAAAQAAAAwAAAAIAAwABAAIAAgAAAAIAAAAUAAAAA8AAADvvIEAAAAAAAAAAAAAAAAAAAA2ACQAAAAgABwAAAAAABsAFAAAAAAAAAAAAAAAAAAAAAAAAAAAABAAAAAAAAAADAAAAAgABAA2AAAAAgAAABwAAAAcAAAAHAAAAAAAIEEAAAABaAAAAE3PAEOw////tP///wEAAAAUAAAAEAAaAAgABwAMAAAAEAAUABAAAAAAAAABHAAAAAAAoEEcAAAAAgAAAAAACgAIAAUABgAHAAoAAAAADAD//P///wQABAAEAAAACAAIAAYABwAIAAAAAAAMAA==</value>
					</parameter>
					<parameter authoringApp="PremierePro">
					<parameterid>2</parameterid>
					<name></name>
					<IsTimeVarying>false</IsTimeVarying>
					<ParameterControlType>11</ParameterControlType>
					<LowerBound>false</LowerBound>
					<UpperBound>false</UpperBound>
					<value>-91445760000000000,false,0,0,0,0,0,0</value>
					</parameter>
					<parameter authoringApp="PremierePro">
					<parameterid>3</parameterid>
					<name></name>
					<IsTimeVarying>false</IsTimeVarying>
					<value>-91445760000000000,0.5:0.5,0,0,0,0,0,0,5,4,0,0,0,0</value>
					</parameter>
					<parameter authoringApp="PremierePro">
					<parameterid>4</parameterid>
					<name></name>
					<IsTimeVarying>false</IsTimeVarying>
					<ParameterControlType>2</ParameterControlType>
					<LowerBound>0</LowerBound>
					<UpperBound>4000</UpperBound>
					<value>-91445760000000000,100.,0,0,0,0,0,0</value>
					</parameter>
					<parameter authoringApp="PremierePro">
					<parameterid>8</parameterid>
					<name></name>
					<IsTimeVarying>false</IsTimeVarying>
					<ParameterControlType>2</ParameterControlType>
					<LowerBound>0</LowerBound>
					<UpperBound>100</UpperBound>
					<value>-91445760000000000,100.,0,0,0,0,0,0</value>
					</parameter>
					</effect>
					</filter>
					<logginginfo>
					<description></description>
					<scene></scene>
					<shottake></shottake>
					<lognote></lognote>
					<good></good>
					<originalvideofilename></originalvideofilename>
					<originalaudiofilename></originalaudiofilename>
					</logginginfo>
					<colorinfo>
					<lut></lut>
					<lut1></lut1>
					<asc_sop></asc_sop>
					<asc_sat></asc_sat>
					<lut2></lut2>
					</colorinfo>
					<labels>
					</labels>
					</clipitem>
					<clipitem frameBlend="FALSE" id="clipitem-250">
					<masterclipid>masterclip-170</masterclipid>
					<name></name>
					<enabled>TRUE</enabled>
					<duration>2582774</duration>
					<rate>
					
					                                    <timebase>60</timebase>
					                                    <ntsc>TRUE</ntsc>
					                                
					</rate>
					<start>1211</start>
					<end>1271</end>
					<in>1211</in>
					<out>1271</out>
					<pproTicksIn>914456774963789</pproTicksIn>
					<pproTicksOut>914677708529577</pproTicksOut>
					<alphatype>straight</alphatype>
					<pixelaspectratio>square</pixelaspectratio>
					<anamorphic>FALSE</anamorphic>
					<file id="file-169">
					<name></name>
					<mediaSource>GraphicAndType</mediaSource>
					<rate>
					<timebase>60</timebase>
					<ntsc>TRUE</ntsc>
					</rate>
					<timecode>
					<rate>
					<timebase>60</timebase>
					<ntsc>TRUE</ntsc>
					</rate>
					<string>00:00:00:00</string>
					<frame>0</frame>
					<displayformat>NDF</displayformat>
					</timecode>
					<media>
					<video>
					<samplecharacteristics>
					<rate>
					<timebase>60</timebase>
					<ntsc>TRUE</ntsc>
					</rate>
					<width>1080</width>
					<height>1920</height>
					<anamorphic>FALSE</anamorphic>
					<pixelaspectratio>square</pixelaspectratio>
					<fielddominance>none</fielddominance>
					</samplecharacteristics>
					</video>
					</media>
					</file>
					<filter>
					<effect>
					<name></name>
					<effectid>GraphicAndType</effectid>
					<effectcategory>graphic</effectcategory>
					<effecttype>filter</effecttype>
					<mediatype>video</mediatype>
					<pproBypass>false</pproBypass>
					<parameter authoringApp="PremierePro">
					<parameterid>1</parameterid>
					<name></name>
					<hash>025b1101-ead6-0ca2-1feb-caf3000001fc</hash>
					<value>5AEAAAAAAABEMyIRDAAAAAAABgAKAAQABgAAAGQAAAAAAF4ASAAQAAwARABAADwAOAAAAAAAAAAAADQAMwAsAAAAKAAkACAAAAAAAAAAAAAAAAAAHAAAAAAAGgAAAAAAAAAUAAAAAAAAAAAAAAAAAAAAAAAAAAgAAAAAABsABwBeAAAAAAAAAUAAAABQAAAAbAAAAAIAAAAAAAEAAQAAAAAAQEEAAMBAAABAQAAAyEIAAAABIAAAAAIAAAACAAAAAAA2QwCASkTw/v//9P7///j+//8S////AAAAAAEAAAAEAAAAEQAAAEhHUFNvZWlLYWt1cG9wdGFpAAAAAQAAAAwAAAAIAAwABAAIAAgAAAAIAAAAUAAAAA8AAADvvIEAAAAAAAAAAAAAAAAAAAA2ACQAAAAgABwAAAAAABsAFAAAAAAAAAAAAAAAAAAAAAAAAAAAABAAAAAAAAAADAAAAAgABAA2AAAAAgAAABwAAAAcAAAAHAAAAAAAIEEAAAABaAAAAE3PAEOw////tP///wEAAAAUAAAAEAAaAAgABwAMAAAAEAAUABAAAAAAAAABHAAAAAAAoEEcAAAAAgAAAAAACgAIAAUABgAHAAoAAAAADAD//P///wQABAAEAAAACAAIAAYABwAIAAAAAAAMAA==</value>
					</parameter>
					<parameter authoringApp="PremierePro">
					<parameterid>2</parameterid>
					<name></name>
					<IsTimeVarying>false</IsTimeVarying>
					<ParameterControlType>11</ParameterControlType>
					<LowerBound>false</LowerBound>
					<UpperBound>false</UpperBound>
					<value>-91445760000000000,false,0,0,0,0,0,0</value>
					</parameter>
					<parameter authoringApp="PremierePro">
					<parameterid>3</parameterid>
					<name></name>
					<IsTimeVarying>false</IsTimeVarying>
					<value>-91445760000000000,0.5:0.5,0,0,0,0,0,0,5,4,0,0,0,0</value>
					</parameter>
					<parameter authoringApp="PremierePro">
					<parameterid>4</parameterid>
					<name></name>
					<IsTimeVarying>false</IsTimeVarying>
					<ParameterControlType>2</ParameterControlType>
					<LowerBound>0</LowerBound>
					<UpperBound>4000</UpperBound>
					<value>-91445760000000000,100.,0,0,0,0,0,0</value>
					</parameter>
					<parameter authoringApp="PremierePro">
					<parameterid>8</parameterid>
					<name></name>
					<IsTimeVarying>false</IsTimeVarying>
					<ParameterControlType>2</ParameterControlType>
					<LowerBound>0</LowerBound>
					<UpperBound>100</UpperBound>
					<value>-91445760000000000,100.,0,0,0,0,0,0</value>
					</parameter>
					</effect>
					</filter>
					<logginginfo>
					<description></description>
					<scene></scene>
					<shottake></shottake>
					<lognote></lognote>
					<good></good>
					<originalvideofilename></originalvideofilename>
					<originalaudiofilename></originalaudiofilename>
					</logginginfo>
					<colorinfo>
					<lut></lut>
					<lut1></lut1>
					<asc_sop></asc_sop>
					<asc_sat></asc_sat>
					<lut2></lut2>
					</colorinfo>
					<labels>
					</labels>
					</clipitem>
					<clipitem frameBlend="FALSE" id="clipitem-256">
					<masterclipid>masterclip-176</masterclipid>
					<name></name>
					<enabled>TRUE</enabled>
					<duration>2582774</duration>
					<rate>
					
					                                    <timebase>60</timebase>
					                                    <ntsc>TRUE</ntsc>
					                                
					</rate>
					<start>1277</start>
					<end>1343</end>
					<in>1277</in>
					<out>1343</out>
					<pproTicksIn>914456774963789</pproTicksIn>
					<pproTicksOut>914677708529577</pproTicksOut>
					<alphatype>straight</alphatype>
					<pixelaspectratio>square</pixelaspectratio>
					<anamorphic>FALSE</anamorphic>
					<file id="file-175">
					<name></name>
					<mediaSource>GraphicAndType</mediaSource>
					<rate>
					<timebase>60</timebase>
					<ntsc>TRUE</ntsc>
					</rate>
					<timecode>
					<rate>
					<timebase>60</timebase>
					<ntsc>TRUE</ntsc>
					</rate>
					<string>00:00:00:00</string>
					<frame>0</frame>
					<displayformat>NDF</displayformat>
					</timecode>
					<media>
					<video>
					<samplecharacteristics>
					<rate>
					<timebase>60</timebase>
					<ntsc>TRUE</ntsc>
					</rate>
					<width>1080</width>
					<height>1920</height>
					<anamorphic>FALSE</anamorphic>
					<pixelaspectratio>square</pixelaspectratio>
					<fielddominance>none</fielddominance>
					</samplecharacteristics>
					</video>
					</media>
					</file>
					<filter>
					<effect>
					<name></name>
					<effectid>GraphicAndType</effectid>
					<effectcategory>graphic</effectcategory>
					<effecttype>filter</effecttype>
					<mediatype>video</mediatype>
					<pproBypass>false</pproBypass>
					<parameter authoringApp="PremierePro">
					<parameterid>1</parameterid>
					<name></name>
					<hash>025b1101-ead6-0ca2-1feb-caf3000001fc</hash>
					<value>5AEAAAAAAABEMyIRDAAAAAAABgAKAAQABgAAAGQAAAAAAF4ASAAQAAwARABAADwAOAAAAAAAAAAAADQAMwAsAAAAKAAkACAAAAAAAAAAAAAAAAAAHAAAAAAAGgAAAAAAAAAUAAAAAAAAAAAAAAAAAAAAAAAAAAgAAAAAABsABwBeAAAAAAAAAUAAAABQAAAAbAAAAAIAAAAAAAEAAQAAAAAAQEEAAMBAAABAQAAAyEIAAAABIAAAAAIAAAACAAAAAAA2QwCASkTw/v//9P7///j+//8S////AAAAAAEAAAAEAAAAEQAAAEhHUFNvZWlLYWt1cG9wdGFpAAAAAQAAAAwAAAAIAAwABAAIAAgAAAAIAAAAUAAAAA8AAADvvIEAAAAAAAAAAAAAAAAAAAA2ACQAAAAgABwAAAAAABsAFAAAAAAAAAAAAAAAAAAAAAAAAAAAABAAAAAAAAAADAAAAAgABAA2AAAAAgAAABwAAAAcAAAAHAAAAAAAIEEAAAABaAAAAE3PAEOw////tP///wEAAAAUAAAAEAAaAAgABwAMAAAAEAAUABAAAAAAAAABHAAAAAAAoEEcAAAAAgAAAAAACgAIAAUABgAHAAoAAAAADAD//P///wQABAAEAAAACAAIAAYABwAIAAAAAAAMAA==</value>
					</parameter>
					<parameter authoringApp="PremierePro">
					<parameterid>2</parameterid>
					<name></name>
					<IsTimeVarying>false</IsTimeVarying>
					<ParameterControlType>11</ParameterControlType>
					<LowerBound>false</LowerBound>
					<UpperBound>false</UpperBound>
					<value>-91445760000000000,false,0,0,0,0,0,0</value>
					</parameter>
					<parameter authoringApp="PremierePro">
					<parameterid>3</parameterid>
					<name></name>
					<IsTimeVarying>false</IsTimeVarying>
					<value>-91445760000000000,0.5:0.5,0,0,0,0,0,0,5,4,0,0,0,0</value>
					</parameter>
					<parameter authoringApp="PremierePro">
					<parameterid>4</parameterid>
					<name></name>
					<IsTimeVarying>false</IsTimeVarying>
					<ParameterControlType>2</ParameterControlType>
					<LowerBound>0</LowerBound>
					<UpperBound>4000</UpperBound>
					<value>-91445760000000000,100.,0,0,0,0,0,0</value>
					</parameter>
					<parameter authoringApp="PremierePro">
					<parameterid>8</parameterid>
					<name></name>
					<IsTimeVarying>false</IsTimeVarying>
					<ParameterControlType>2</ParameterControlType>
					<LowerBound>0</LowerBound>
					<UpperBound>100</UpperBound>
					<value>-91445760000000000,100.,0,0,0,0,0,0</value>
					</parameter>
					</effect>
					</filter>
					<logginginfo>
					<description></description>
					<scene></scene>
					<shottake></shottake>
					<lognote></lognote>
					<good></good>
					<originalvideofilename></originalvideofilename>
					<originalaudiofilename></originalaudiofilename>
					</logginginfo>
					<colorinfo>
					<lut></lut>
					<lut1></lut1>
					<asc_sop></asc_sop>
					<asc_sat></asc_sat>
					<lut2></lut2>
					</colorinfo>
					<labels>
					</labels>
					</clipitem>
					<clipitem frameBlend="FALSE" id="clipitem-262">
					<masterclipid>masterclip-182</masterclipid>
					<name></name>
					<enabled>TRUE</enabled>
					<duration>2582774</duration>
					<rate>
					
					                                    <timebase>60</timebase>
					                                    <ntsc>TRUE</ntsc>
					                                
					</rate>
					<start>1343</start>
					<end>1403</end>
					<in>1343</in>
					<out>1403</out>
					<pproTicksIn>914456774963789</pproTicksIn>
					<pproTicksOut>914677708529577</pproTicksOut>
					<alphatype>straight</alphatype>
					<pixelaspectratio>square</pixelaspectratio>
					<anamorphic>FALSE</anamorphic>
					<file id="file-181">
					<name></name>
					<mediaSource>GraphicAndType</mediaSource>
					<rate>
					<timebase>60</timebase>
					<ntsc>TRUE</ntsc>
					</rate>
					<timecode>
					<rate>
					<timebase>60</timebase>
					<ntsc>TRUE</ntsc>
					</rate>
					<string>00:00:00:00</string>
					<frame>0</frame>
					<displayformat>NDF</displayformat>
					</timecode>
					<media>
					<video>
					<samplecharacteristics>
					<rate>
					<timebase>60</timebase>
					<ntsc>TRUE</ntsc>
					</rate>
					<width>1080</width>
					<height>1920</height>
					<anamorphic>FALSE</anamorphic>
					<pixelaspectratio>square</pixelaspectratio>
					<fielddominance>none</fielddominance>
					</samplecharacteristics>
					</video>
					</media>
					</file>
					<filter>
					<effect>
					<name></name>
					<effectid>GraphicAndType</effectid>
					<effectcategory>graphic</effectcategory>
					<effecttype>filter</effecttype>
					<mediatype>video</mediatype>
					<pproBypass>false</pproBypass>
					<parameter authoringApp="PremierePro">
					<parameterid>1</parameterid>
					<name></name>
					<hash>025b1101-ead6-0ca2-1feb-caf3000001fc</hash>
					<value>5AEAAAAAAABEMyIRDAAAAAAABgAKAAQABgAAAGQAAAAAAF4ASAAQAAwARABAADwAOAAAAAAAAAAAADQAMwAsAAAAKAAkACAAAAAAAAAAAAAAAAAAHAAAAAAAGgAAAAAAAAAUAAAAAAAAAAAAAAAAAAAAAAAAAAgAAAAAABsABwBeAAAAAAAAAUAAAABQAAAAbAAAAAIAAAAAAAEAAQAAAAAAQEEAAMBAAABAQAAAyEIAAAABIAAAAAIAAAACAAAAAAA2QwCASkTw/v//9P7///j+//8S////AAAAAAEAAAAEAAAAEQAAAEhHUFNvZWlLYWt1cG9wdGFpAAAAAQAAAAwAAAAIAAwABAAIAAgAAAAIAAAAUAAAAA8AAADvvIEAAAAAAAAAAAAAAAAAAAA2ACQAAAAgABwAAAAAABsAFAAAAAAAAAAAAAAAAAAAAAAAAAAAABAAAAAAAAAADAAAAAgABAA2AAAAAgAAABwAAAAcAAAAHAAAAAAAIEEAAAABaAAAAE3PAEOw////tP///wEAAAAUAAAAEAAaAAgABwAMAAAAEAAUABAAAAAAAAABHAAAAAAAoEEcAAAAAgAAAAAACgAIAAUABgAHAAoAAAAADAD//P///wQABAAEAAAACAAIAAYABwAIAAAAAAAMAA==</value>
					</parameter>
					<parameter authoringApp="PremierePro">
					<parameterid>2</parameterid>
					<name></name>
					<IsTimeVarying>false</IsTimeVarying>
					<ParameterControlType>11</ParameterControlType>
					<LowerBound>false</LowerBound>
					<UpperBound>false</UpperBound>
					<value>-91445760000000000,false,0,0,0,0,0,0</value>
					</parameter>
					<parameter authoringApp="PremierePro">
					<parameterid>3</parameterid>
					<name></name>
					<IsTimeVarying>false</IsTimeVarying>
					<value>-91445760000000000,0.5:0.5,0,0,0,0,0,0,5,4,0,0,0,0</value>
					</parameter>
					<parameter authoringApp="PremierePro">
					<parameterid>4</parameterid>
					<name></name>
					<IsTimeVarying>false</IsTimeVarying>
					<ParameterControlType>2</ParameterControlType>
					<LowerBound>0</LowerBound>
					<UpperBound>4000</UpperBound>
					<value>-91445760000000000,100.,0,0,0,0,0,0</value>
					</parameter>
					<parameter authoringApp="PremierePro">
					<parameterid>8</parameterid>
					<name></name>
					<IsTimeVarying>false</IsTimeVarying>
					<ParameterControlType>2</ParameterControlType>
					<LowerBound>0</LowerBound>
					<UpperBound>100</UpperBound>
					<value>-91445760000000000,100.,0,0,0,0,0,0</value>
					</parameter>
					</effect>
					</filter>
					<logginginfo>
					<description></description>
					<scene></scene>
					<shottake></shottake>
					<lognote></lognote>
					<good></good>
					<originalvideofilename></originalvideofilename>
					<originalaudiofilename></originalaudiofilename>
					</logginginfo>
					<colorinfo>
					<lut></lut>
					<lut1></lut1>
					<asc_sop></asc_sop>
					<asc_sat></asc_sat>
					<lut2></lut2>
					</colorinfo>
					<labels>
					</labels>
					</clipitem>
					<clipitem frameBlend="FALSE" id="clipitem-270">
					<masterclipid>masterclip-190</masterclipid>
					<name></name>
					<enabled>TRUE</enabled>
					<duration>2582774</duration>
					<rate>
					
					                                    <timebase>60</timebase>
					                                    <ntsc>TRUE</ntsc>
					                                
					</rate>
					<start>1415</start>
					<end>1481</end>
					<in>1415</in>
					<out>1481</out>
					<pproTicksIn>914456774963789</pproTicksIn>
					<pproTicksOut>914677708529577</pproTicksOut>
					<alphatype>straight</alphatype>
					<pixelaspectratio>square</pixelaspectratio>
					<anamorphic>FALSE</anamorphic>
					<file id="file-189">
					<name></name>
					<mediaSource>GraphicAndType</mediaSource>
					<rate>
					<timebase>60</timebase>
					<ntsc>TRUE</ntsc>
					</rate>
					<timecode>
					<rate>
					<timebase>60</timebase>
					<ntsc>TRUE</ntsc>
					</rate>
					<string>00:00:00:00</string>
					<frame>0</frame>
					<displayformat>NDF</displayformat>
					</timecode>
					<media>
					<video>
					<samplecharacteristics>
					<rate>
					<timebase>60</timebase>
					<ntsc>TRUE</ntsc>
					</rate>
					<width>1080</width>
					<height>1920</height>
					<anamorphic>FALSE</anamorphic>
					<pixelaspectratio>square</pixelaspectratio>
					<fielddominance>none</fielddominance>
					</samplecharacteristics>
					</video>
					</media>
					</file>
					<filter>
					<effect>
					<name></name>
					<effectid>GraphicAndType</effectid>
					<effectcategory>graphic</effectcategory>
					<effecttype>filter</effecttype>
					<mediatype>video</mediatype>
					<pproBypass>false</pproBypass>
					<parameter authoringApp="PremierePro">
					<parameterid>1</parameterid>
					<name></name>
					<hash>025b1101-ead6-0ca2-1feb-caf3000001fc</hash>
					<value>5AEAAAAAAABEMyIRDAAAAAAABgAKAAQABgAAAGQAAAAAAF4ASAAQAAwARABAADwAOAAAAAAAAAAAADQAMwAsAAAAKAAkACAAAAAAAAAAAAAAAAAAHAAAAAAAGgAAAAAAAAAUAAAAAAAAAAAAAAAAAAAAAAAAAAgAAAAAABsABwBeAAAAAAAAAUAAAABQAAAAbAAAAAIAAAAAAAEAAQAAAAAAQEEAAMBAAABAQAAAyEIAAAABIAAAAAIAAAACAAAAAAA2QwCASkTw/v//9P7///j+//8S////AAAAAAEAAAAEAAAAEQAAAEhHUFNvZWlLYWt1cG9wdGFpAAAAAQAAAAwAAAAIAAwABAAIAAgAAAAIAAAAUAAAAA8AAADvvIEAAAAAAAAAAAAAAAAAAAA2ACQAAAAgABwAAAAAABsAFAAAAAAAAAAAAAAAAAAAAAAAAAAAABAAAAAAAAAADAAAAAgABAA2AAAAAgAAABwAAAAcAAAAHAAAAAAAIEEAAAABaAAAAE3PAEOw////tP///wEAAAAUAAAAEAAaAAgABwAMAAAAEAAUABAAAAAAAAABHAAAAAAAoEEcAAAAAgAAAAAACgAIAAUABgAHAAoAAAAADAD//P///wQABAAEAAAACAAIAAYABwAIAAAAAAAMAA==</value>
					</parameter>
					<parameter authoringApp="PremierePro">
					<parameterid>2</parameterid>
					<name></name>
					<IsTimeVarying>false</IsTimeVarying>
					<ParameterControlType>11</ParameterControlType>
					<LowerBound>false</LowerBound>
					<UpperBound>false</UpperBound>
					<value>-91445760000000000,false,0,0,0,0,0,0</value>
					</parameter>
					<parameter authoringApp="PremierePro">
					<parameterid>3</parameterid>
					<name></name>
					<IsTimeVarying>false</IsTimeVarying>
					<value>-91445760000000000,0.5:0.5,0,0,0,0,0,0,5,4,0,0,0,0</value>
					</parameter>
					<parameter authoringApp="PremierePro">
					<parameterid>4</parameterid>
					<name></name>
					<IsTimeVarying>false</IsTimeVarying>
					<ParameterControlType>2</ParameterControlType>
					<LowerBound>0</LowerBound>
					<UpperBound>4000</UpperBound>
					<value>-91445760000000000,100.,0,0,0,0,0,0</value>
					</parameter>
					<parameter authoringApp="PremierePro">
					<parameterid>8</parameterid>
					<name></name>
					<IsTimeVarying>false</IsTimeVarying>
					<ParameterControlType>2</ParameterControlType>
					<LowerBound>0</LowerBound>
					<UpperBound>100</UpperBound>
					<value>-91445760000000000,100.,0,0,0,0,0,0</value>
					</parameter>
					</effect>
					</filter>
					<logginginfo>
					<description></description>
					<scene></scene>
					<shottake></shottake>
					<lognote></lognote>
					<good></good>
					<originalvideofilename></originalvideofilename>
					<originalaudiofilename></originalaudiofilename>
					</logginginfo>
					<colorinfo>
					<lut></lut>
					<lut1></lut1>
					<asc_sop></asc_sop>
					<asc_sat></asc_sat>
					<lut2></lut2>
					</colorinfo>
					<labels>
					</labels>
					</clipitem>
					<clipitem id="clipitem-276"/>
					                        </track>
					                        <track TL.SQTrackShy="0" TL.SQTrackExpandedHeight="25" TL.SQTrackExpanded="0" MZ.TrackTargeted="0">
					<clipitem frameBlend="FALSE" id="clipitem-277">
					<masterclipid>masterclip-197</masterclipid>
					<name></name>
					<enabled>TRUE</enabled>
					<duration>2582774</duration>
					<rate>
					
					                                    <timebase>60</timebase>
					                                    <ntsc>TRUE</ntsc>
					                                
					</rate>
					<start>1481</start>
					<end>1547</end>
					<in>1481</in>
					<out>1547</out>
					<pproTicksIn>914456774963789</pproTicksIn>
					<pproTicksOut>914677708529577</pproTicksOut>
					<alphatype>straight</alphatype>
					<pixelaspectratio>square</pixelaspectratio>
					<anamorphic>FALSE</anamorphic>
					<file id="file-196">
					<name></name>
					<mediaSource>GraphicAndType</mediaSource>
					<rate>
					<timebase>60</timebase>
					<ntsc>TRUE</ntsc>
					</rate>
					<timecode>
					<rate>
					<timebase>60</timebase>
					<ntsc>TRUE</ntsc>
					</rate>
					<string>00:00:00:00</string>
					<frame>0</frame>
					<displayformat>NDF</displayformat>
					</timecode>
					<media>
					<video>
					<samplecharacteristics>
					<rate>
					<timebase>60</timebase>
					<ntsc>TRUE</ntsc>
					</rate>
					<width>1080</width>
					<height>1920</height>
					<anamorphic>FALSE</anamorphic>
					<pixelaspectratio>square</pixelaspectratio>
					<fielddominance>none</fielddominance>
					</samplecharacteristics>
					</video>
					</media>
					</file>
					<filter>
					<effect>
					<name></name>
					<effectid>GraphicAndType</effectid>
					<effectcategory>graphic</effectcategory>
					<effecttype>filter</effecttype>
					<mediatype>video</mediatype>
					<pproBypass>false</pproBypass>
					<parameter authoringApp="PremierePro">
					<parameterid>1</parameterid>
					<name></name>
					<hash>025b1101-ead6-0ca2-1feb-caf3000001fc</hash>
					<value>5AEAAAAAAABEMyIRDAAAAAAABgAKAAQABgAAAGQAAAAAAF4ASAAQAAwARABAADwAOAAAAAAAAAAAADQAMwAsAAAAKAAkACAAAAAAAAAAAAAAAAAAHAAAAAAAGgAAAAAAAAAUAAAAAAAAAAAAAAAAAAAAAAAAAAgAAAAAABsABwBeAAAAAAAAAUAAAABQAAAAbAAAAAIAAAAAAAEAAQAAAAAAQEEAAMBAAABAQAAAyEIAAAABIAAAAAIAAAACAAAAAAA2QwCASkTw/v//9P7///j+//8S////AAAAAAEAAAAEAAAAEQAAAEhHUFNvZWlLYWt1cG9wdGFpAAAAAQAAAAwAAAAIAAwABAAIAAgAAAAIAAAAUAAAAA8AAADvvIEAAAAAAAAAAAAAAAAAAAA2ACQAAAAgABwAAAAAABsAFAAAAAAAAAAAAAAAAAAAAAAAAAAAABAAAAAAAAAADAAAAAgABAA2AAAAAgAAABwAAAAcAAAAHAAAAAAAIEEAAAABaAAAAE3PAEOw////tP///wEAAAAUAAAAEAAaAAgABwAMAAAAEAAUABAAAAAAAAABHAAAAAAAoEEcAAAAAgAAAAAACgAIAAUABgAHAAoAAAAADAD//P///wQABAAEAAAACAAIAAYABwAIAAAAAAAMAA==</value>
					</parameter>
					<parameter authoringApp="PremierePro">
					<parameterid>2</parameterid>
					<name></name>
					<IsTimeVarying>false</IsTimeVarying>
					<ParameterControlType>11</ParameterControlType>
					<LowerBound>false</LowerBound>
					<UpperBound>false</UpperBound>
					<value>-91445760000000000,false,0,0,0,0,0,0</value>
					</parameter>
					<parameter authoringApp="PremierePro">
					<parameterid>3</parameterid>
					<name></name>
					<IsTimeVarying>false</IsTimeVarying>
					<value>-91445760000000000,0.5:0.5,0,0,0,0,0,0,5,4,0,0,0,0</value>
					</parameter>
					<parameter authoringApp="PremierePro">
					<parameterid>4</parameterid>
					<name></name>
					<IsTimeVarying>false</IsTimeVarying>
					<ParameterControlType>2</ParameterControlType>
					<LowerBound>0</LowerBound>
					<UpperBound>4000</UpperBound>
					<value>-91445760000000000,100.,0,0,0,0,0,0</value>
					</parameter>
					<parameter authoringApp="PremierePro">
					<parameterid>8</parameterid>
					<name></name>
					<IsTimeVarying>false</IsTimeVarying>
					<ParameterControlType>2</ParameterControlType>
					<LowerBound>0</LowerBound>
					<UpperBound>100</UpperBound>
					<value>-91445760000000000,100.,0,0,0,0,0,0</value>
					</parameter>
					</effect>
					</filter>
					<logginginfo>
					<description></description>
					<scene></scene>
					<shottake></shottake>
					<lognote></lognote>
					<good></good>
					<originalvideofilename></originalvideofilename>
					<originalaudiofilename></originalaudiofilename>
					</logginginfo>
					<colorinfo>
					<lut></lut>
					<lut1></lut1>
					<asc_sop></asc_sop>
					<asc_sat></asc_sat>
					<lut2></lut2>
					</colorinfo>
					<labels>
					</labels>
					</clipitem>
					<clipitem frameBlend="FALSE" id="clipitem-283">
					<masterclipid>masterclip-203</masterclipid>
					<name></name>
					<enabled>TRUE</enabled>
					<duration>2582774</duration>
					<rate>
					
					                                    <timebase>60</timebase>
					                                    <ntsc>TRUE</ntsc>
					                                
					</rate>
					<start>1547</start>
					<end>1607</end>
					<in>1547</in>
					<out>1607</out>
					<pproTicksIn>914456774963789</pproTicksIn>
					<pproTicksOut>914677708529577</pproTicksOut>
					<alphatype>straight</alphatype>
					<pixelaspectratio>square</pixelaspectratio>
					<anamorphic>FALSE</anamorphic>
					<file id="file-202">
					<name></name>
					<mediaSource>GraphicAndType</mediaSource>
					<rate>
					<timebase>60</timebase>
					<ntsc>TRUE</ntsc>
					</rate>
					<timecode>
					<rate>
					<timebase>60</timebase>
					<ntsc>TRUE</ntsc>
					</rate>
					<string>00:00:00:00</string>
					<frame>0</frame>
					<displayformat>NDF</displayformat>
					</timecode>
					<media>
					<video>
					<samplecharacteristics>
					<rate>
					<timebase>60</timebase>
					<ntsc>TRUE</ntsc>
					</rate>
					<width>1080</width>
					<height>1920</height>
					<anamorphic>FALSE</anamorphic>
					<pixelaspectratio>square</pixelaspectratio>
					<fielddominance>none</fielddominance>
					</samplecharacteristics>
					</video>
					</media>
					</file>
					<filter>
					<effect>
					<name></name>
					<effectid>GraphicAndType</effectid>
					<effectcategory>graphic</effectcategory>
					<effecttype>filter</effecttype>
					<mediatype>video</mediatype>
					<pproBypass>false</pproBypass>
					<parameter authoringApp="PremierePro">
					<parameterid>1</parameterid>
					<name></name>
					<hash>025b1101-ead6-0ca2-1feb-caf3000001fc</hash>
					<value>5AEAAAAAAABEMyIRDAAAAAAABgAKAAQABgAAAGQAAAAAAF4ASAAQAAwARABAADwAOAAAAAAAAAAAADQAMwAsAAAAKAAkACAAAAAAAAAAAAAAAAAAHAAAAAAAGgAAAAAAAAAUAAAAAAAAAAAAAAAAAAAAAAAAAAgAAAAAABsABwBeAAAAAAAAAUAAAABQAAAAbAAAAAIAAAAAAAEAAQAAAAAAQEEAAMBAAABAQAAAyEIAAAABIAAAAAIAAAACAAAAAAA2QwCASkTw/v//9P7///j+//8S////AAAAAAEAAAAEAAAAEQAAAEhHUFNvZWlLYWt1cG9wdGFpAAAAAQAAAAwAAAAIAAwABAAIAAgAAAAIAAAAUAAAAA8AAADvvIEAAAAAAAAAAAAAAAAAAAA2ACQAAAAgABwAAAAAABsAFAAAAAAAAAAAAAAAAAAAAAAAAAAAABAAAAAAAAAADAAAAAgABAA2AAAAAgAAABwAAAAcAAAAHAAAAAAAIEEAAAABaAAAAE3PAEOw////tP///wEAAAAUAAAAEAAaAAgABwAMAAAAEAAUABAAAAAAAAABHAAAAAAAoEEcAAAAAgAAAAAACgAIAAUABgAHAAoAAAAADAD//P///wQABAAEAAAACAAIAAYABwAIAAAAAAAMAA==</value>
					</parameter>
					<parameter authoringApp="PremierePro">
					<parameterid>2</parameterid>
					<name></name>
					<IsTimeVarying>false</IsTimeVarying>
					<ParameterControlType>11</ParameterControlType>
					<LowerBound>false</LowerBound>
					<UpperBound>false</UpperBound>
					<value>-91445760000000000,false,0,0,0,0,0,0</value>
					</parameter>
					<parameter authoringApp="PremierePro">
					<parameterid>3</parameterid>
					<name></name>
					<IsTimeVarying>false</IsTimeVarying>
					<value>-91445760000000000,0.5:0.5,0,0,0,0,0,0,5,4,0,0,0,0</value>
					</parameter>
					<parameter authoringApp="PremierePro">
					<parameterid>4</parameterid>
					<name></name>
					<IsTimeVarying>false</IsTimeVarying>
					<ParameterControlType>2</ParameterControlType>
					<LowerBound>0</LowerBound>
					<UpperBound>4000</UpperBound>
					<value>-91445760000000000,100.,0,0,0,0,0,0</value>
					</parameter>
					<parameter authoringApp="PremierePro">
					<parameterid>8</parameterid>
					<name></name>
					<IsTimeVarying>false</IsTimeVarying>
					<ParameterControlType>2</ParameterControlType>
					<LowerBound>0</LowerBound>
					<UpperBound>100</UpperBound>
					<value>-91445760000000000,100.,0,0,0,0,0,0</value>
					</parameter>
					</effect>
					</filter>
					<logginginfo>
					<description></description>
					<scene></scene>
					<shottake></shottake>
					<lognote></lognote>
					<good></good>
					<originalvideofilename></originalvideofilename>
					<originalaudiofilename></originalaudiofilename>
					</logginginfo>
					<colorinfo>
					<lut></lut>
					<lut1></lut1>
					<asc_sop></asc_sop>
					<asc_sat></asc_sat>
					<lut2></lut2>
					</colorinfo>
					<labels>
					</labels>
					</clipitem>
					<clipitem frameBlend="FALSE" id="clipitem-289">
					<masterclipid>masterclip-209</masterclipid>
					<name></name>
					<enabled>TRUE</enabled>
					<duration>2582774</duration>
					<rate>
					
					                                    <timebase>60</timebase>
					                                    <ntsc>TRUE</ntsc>
					                                
					</rate>
					<start>1607</start>
					<end>1667</end>
					<in>1607</in>
					<out>1667</out>
					<pproTicksIn>914456774963789</pproTicksIn>
					<pproTicksOut>914677708529577</pproTicksOut>
					<alphatype>straight</alphatype>
					<pixelaspectratio>square</pixelaspectratio>
					<anamorphic>FALSE</anamorphic>
					<file id="file-208">
					<name></name>
					<mediaSource>GraphicAndType</mediaSource>
					<rate>
					<timebase>60</timebase>
					<ntsc>TRUE</ntsc>
					</rate>
					<timecode>
					<rate>
					<timebase>60</timebase>
					<ntsc>TRUE</ntsc>
					</rate>
					<string>00:00:00:00</string>
					<frame>0</frame>
					<displayformat>NDF</displayformat>
					</timecode>
					<media>
					<video>
					<samplecharacteristics>
					<rate>
					<timebase>60</timebase>
					<ntsc>TRUE</ntsc>
					</rate>
					<width>1080</width>
					<height>1920</height>
					<anamorphic>FALSE</anamorphic>
					<pixelaspectratio>square</pixelaspectratio>
					<fielddominance>none</fielddominance>
					</samplecharacteristics>
					</video>
					</media>
					</file>
					<filter>
					<effect>
					<name></name>
					<effectid>GraphicAndType</effectid>
					<effectcategory>graphic</effectcategory>
					<effecttype>filter</effecttype>
					<mediatype>video</mediatype>
					<pproBypass>false</pproBypass>
					<parameter authoringApp="PremierePro">
					<parameterid>1</parameterid>
					<name></name>
					<hash>025b1101-ead6-0ca2-1feb-caf3000001fc</hash>
					<value>5AEAAAAAAABEMyIRDAAAAAAABgAKAAQABgAAAGQAAAAAAF4ASAAQAAwARABAADwAOAAAAAAAAAAAADQAMwAsAAAAKAAkACAAAAAAAAAAAAAAAAAAHAAAAAAAGgAAAAAAAAAUAAAAAAAAAAAAAAAAAAAAAAAAAAgAAAAAABsABwBeAAAAAAAAAUAAAABQAAAAbAAAAAIAAAAAAAEAAQAAAAAAQEEAAMBAAABAQAAAyEIAAAABIAAAAAIAAAACAAAAAAA2QwCASkTw/v//9P7///j+//8S////AAAAAAEAAAAEAAAAEQAAAEhHUFNvZWlLYWt1cG9wdGFpAAAAAQAAAAwAAAAIAAwABAAIAAgAAAAIAAAAUAAAAA8AAADvvIEAAAAAAAAAAAAAAAAAAAA2ACQAAAAgABwAAAAAABsAFAAAAAAAAAAAAAAAAAAAAAAAAAAAABAAAAAAAAAADAAAAAgABAA2AAAAAgAAABwAAAAcAAAAHAAAAAAAIEEAAAABaAAAAE3PAEOw////tP///wEAAAAUAAAAEAAaAAgABwAMAAAAEAAUABAAAAAAAAABHAAAAAAAoEEcAAAAAgAAAAAACgAIAAUABgAHAAoAAAAADAD//P///wQABAAEAAAACAAIAAYABwAIAAAAAAAMAA==</value>
					</parameter>
					<parameter authoringApp="PremierePro">
					<parameterid>2</parameterid>
					<name></name>
					<IsTimeVarying>false</IsTimeVarying>
					<ParameterControlType>11</ParameterControlType>
					<LowerBound>false</LowerBound>
					<UpperBound>false</UpperBound>
					<value>-91445760000000000,false,0,0,0,0,0,0</value>
					</parameter>
					<parameter authoringApp="PremierePro">
					<parameterid>3</parameterid>
					<name></name>
					<IsTimeVarying>false</IsTimeVarying>
					<value>-91445760000000000,0.5:0.5,0,0,0,0,0,0,5,4,0,0,0,0</value>
					</parameter>
					<parameter authoringApp="PremierePro">
					<parameterid>4</parameterid>
					<name></name>
					<IsTimeVarying>false</IsTimeVarying>
					<ParameterControlType>2</ParameterControlType>
					<LowerBound>0</LowerBound>
					<UpperBound>4000</UpperBound>
					<value>-91445760000000000,100.,0,0,0,0,0,0</value>
					</parameter>
					<parameter authoringApp="PremierePro">
					<parameterid>8</parameterid>
					<name></name>
					<IsTimeVarying>false</IsTimeVarying>
					<ParameterControlType>2</ParameterControlType>
					<LowerBound>0</LowerBound>
					<UpperBound>100</UpperBound>
					<value>-91445760000000000,100.,0,0,0,0,0,0</value>
					</parameter>
					</effect>
					</filter>
					<logginginfo>
					<description></description>
					<scene></scene>
					<shottake></shottake>
					<lognote></lognote>
					<good></good>
					<originalvideofilename></originalvideofilename>
					<originalaudiofilename></originalaudiofilename>
					</logginginfo>
					<colorinfo>
					<lut></lut>
					<lut1></lut1>
					<asc_sop></asc_sop>
					<asc_sat></asc_sat>
					<lut2></lut2>
					</colorinfo>
					<labels>
					</labels>
					</clipitem>
					<clipitem frameBlend="FALSE" id="clipitem-296">
					<masterclipid>masterclip-216</masterclipid>
					<name></name>
					<enabled>TRUE</enabled>
					<duration>2582774</duration>
					<rate>
					
					                                    <timebase>60</timebase>
					                                    <ntsc>TRUE</ntsc>
					                                
					</rate>
					<start>1673</start>
					<end>1733</end>
					<in>1673</in>
					<out>1733</out>
					<pproTicksIn>914456774963789</pproTicksIn>
					<pproTicksOut>914677708529577</pproTicksOut>
					<alphatype>straight</alphatype>
					<pixelaspectratio>square</pixelaspectratio>
					<anamorphic>FALSE</anamorphic>
					<file id="file-215">
					<name></name>
					<mediaSource>GraphicAndType</mediaSource>
					<rate>
					<timebase>60</timebase>
					<ntsc>TRUE</ntsc>
					</rate>
					<timecode>
					<rate>
					<timebase>60</timebase>
					<ntsc>TRUE</ntsc>
					</rate>
					<string>00:00:00:00</string>
					<frame>0</frame>
					<displayformat>NDF</displayformat>
					</timecode>
					<media>
					<video>
					<samplecharacteristics>
					<rate>
					<timebase>60</timebase>
					<ntsc>TRUE</ntsc>
					</rate>
					<width>1080</width>
					<height>1920</height>
					<anamorphic>FALSE</anamorphic>
					<pixelaspectratio>square</pixelaspectratio>
					<fielddominance>none</fielddominance>
					</samplecharacteristics>
					</video>
					</media>
					</file>
					<filter>
					<effect>
					<name></name>
					<effectid>GraphicAndType</effectid>
					<effectcategory>graphic</effectcategory>
					<effecttype>filter</effecttype>
					<mediatype>video</mediatype>
					<pproBypass>false</pproBypass>
					<parameter authoringApp="PremierePro">
					<parameterid>1</parameterid>
					<name></name>
					<hash>025b1101-ead6-0ca2-1feb-caf3000001fc</hash>
					<value>5AEAAAAAAABEMyIRDAAAAAAABgAKAAQABgAAAGQAAAAAAF4ASAAQAAwARABAADwAOAAAAAAAAAAAADQAMwAsAAAAKAAkACAAAAAAAAAAAAAAAAAAHAAAAAAAGgAAAAAAAAAUAAAAAAAAAAAAAAAAAAAAAAAAAAgAAAAAABsABwBeAAAAAAAAAUAAAABQAAAAbAAAAAIAAAAAAAEAAQAAAAAAQEEAAMBAAABAQAAAyEIAAAABIAAAAAIAAAACAAAAAAA2QwCASkTw/v//9P7///j+//8S////AAAAAAEAAAAEAAAAEQAAAEhHUFNvZWlLYWt1cG9wdGFpAAAAAQAAAAwAAAAIAAwABAAIAAgAAAAIAAAAUAAAAA8AAADvvIEAAAAAAAAAAAAAAAAAAAA2ACQAAAAgABwAAAAAABsAFAAAAAAAAAAAAAAAAAAAAAAAAAAAABAAAAAAAAAADAAAAAgABAA2AAAAAgAAABwAAAAcAAAAHAAAAAAAIEEAAAABaAAAAE3PAEOw////tP///wEAAAAUAAAAEAAaAAgABwAMAAAAEAAUABAAAAAAAAABHAAAAAAAoEEcAAAAAgAAAAAACgAIAAUABgAHAAoAAAAADAD//P///wQABAAEAAAACAAIAAYABwAIAAAAAAAMAA==</value>
					</parameter>
					<parameter authoringApp="PremierePro">
					<parameterid>2</parameterid>
					<name></name>
					<IsTimeVarying>false</IsTimeVarying>
					<ParameterControlType>11</ParameterControlType>
					<LowerBound>false</LowerBound>
					<UpperBound>false</UpperBound>
					<value>-91445760000000000,false,0,0,0,0,0,0</value>
					</parameter>
					<parameter authoringApp="PremierePro">
					<parameterid>3</parameterid>
					<name></name>
					<IsTimeVarying>false</IsTimeVarying>
					<value>-91445760000000000,0.5:0.5,0,0,0,0,0,0,5,4,0,0,0,0</value>
					</parameter>
					<parameter authoringApp="PremierePro">
					<parameterid>4</parameterid>
					<name></name>
					<IsTimeVarying>false</IsTimeVarying>
					<ParameterControlType>2</ParameterControlType>
					<LowerBound>0</LowerBound>
					<UpperBound>4000</UpperBound>
					<value>-91445760000000000,100.,0,0,0,0,0,0</value>
					</parameter>
					<parameter authoringApp="PremierePro">
					<parameterid>8</parameterid>
					<name></name>
					<IsTimeVarying>false</IsTimeVarying>
					<ParameterControlType>2</ParameterControlType>
					<LowerBound>0</LowerBound>
					<UpperBound>100</UpperBound>
					<value>-91445760000000000,100.,0,0,0,0,0,0</value>
					</parameter>
					</effect>
					</filter>
					<logginginfo>
					<description></description>
					<scene></scene>
					<shottake></shottake>
					<lognote></lognote>
					<good></good>
					<originalvideofilename></originalvideofilename>
					<originalaudiofilename></originalaudiofilename>
					</logginginfo>
					<colorinfo>
					<lut></lut>
					<lut1></lut1>
					<asc_sop></asc_sop>
					<asc_sat></asc_sat>
					<lut2></lut2>
					</colorinfo>
					<labels>
					</labels>
					</clipitem>
					<clipitem frameBlend="FALSE" id="clipitem-301">
					<masterclipid>masterclip-221</masterclipid>
					<name></name>
					<enabled>TRUE</enabled>
					<duration>2582774</duration>
					<rate>
					
					                                    <timebase>60</timebase>
					                                    <ntsc>TRUE</ntsc>
					                                
					</rate>
					<start>1733</start>
					<end>1793</end>
					<in>1733</in>
					<out>1793</out>
					<pproTicksIn>914456774963789</pproTicksIn>
					<pproTicksOut>914677708529577</pproTicksOut>
					<alphatype>straight</alphatype>
					<pixelaspectratio>square</pixelaspectratio>
					<anamorphic>FALSE</anamorphic>
					<file id="file-220">
					<name></name>
					<mediaSource>GraphicAndType</mediaSource>
					<rate>
					<timebase>60</timebase>
					<ntsc>TRUE</ntsc>
					</rate>
					<timecode>
					<rate>
					<timebase>60</timebase>
					<ntsc>TRUE</ntsc>
					</rate>
					<string>00:00:00:00</string>
					<frame>0</frame>
					<displayformat>NDF</displayformat>
					</timecode>
					<media>
					<video>
					<samplecharacteristics>
					<rate>
					<timebase>60</timebase>
					<ntsc>TRUE</ntsc>
					</rate>
					<width>1080</width>
					<height>1920</height>
					<anamorphic>FALSE</anamorphic>
					<pixelaspectratio>square</pixelaspectratio>
					<fielddominance>none</fielddominance>
					</samplecharacteristics>
					</video>
					</media>
					</file>
					<filter>
					<effect>
					<name></name>
					<effectid>GraphicAndType</effectid>
					<effectcategory>graphic</effectcategory>
					<effecttype>filter</effecttype>
					<mediatype>video</mediatype>
					<pproBypass>false</pproBypass>
					<parameter authoringApp="PremierePro">
					<parameterid>1</parameterid>
					<name></name>
					<hash>025b1101-ead6-0ca2-1feb-caf3000001fc</hash>
					<value>5AEAAAAAAABEMyIRDAAAAAAABgAKAAQABgAAAGQAAAAAAF4ASAAQAAwARABAADwAOAAAAAAAAAAAADQAMwAsAAAAKAAkACAAAAAAAAAAAAAAAAAAHAAAAAAAGgAAAAAAAAAUAAAAAAAAAAAAAAAAAAAAAAAAAAgAAAAAABsABwBeAAAAAAAAAUAAAABQAAAAbAAAAAIAAAAAAAEAAQAAAAAAQEEAAMBAAABAQAAAyEIAAAABIAAAAAIAAAACAAAAAAA2QwCASkTw/v//9P7///j+//8S////AAAAAAEAAAAEAAAAEQAAAEhHUFNvZWlLYWt1cG9wdGFpAAAAAQAAAAwAAAAIAAwABAAIAAgAAAAIAAAAUAAAAA8AAADvvIEAAAAAAAAAAAAAAAAAAAA2ACQAAAAgABwAAAAAABsAFAAAAAAAAAAAAAAAAAAAAAAAAAAAABAAAAAAAAAADAAAAAgABAA2AAAAAgAAABwAAAAcAAAAHAAAAAAAIEEAAAABaAAAAE3PAEOw////tP///wEAAAAUAAAAEAAaAAgABwAMAAAAEAAUABAAAAAAAAABHAAAAAAAoEEcAAAAAgAAAAAACgAIAAUABgAHAAoAAAAADAD//P///wQABAAEAAAACAAIAAYABwAIAAAAAAAMAA==</value>
					</parameter>
					<parameter authoringApp="PremierePro">
					<parameterid>2</parameterid>
					<name></name>
					<IsTimeVarying>false</IsTimeVarying>
					<ParameterControlType>11</ParameterControlType>
					<LowerBound>false</LowerBound>
					<UpperBound>false</UpperBound>
					<value>-91445760000000000,false,0,0,0,0,0,0</value>
					</parameter>
					<parameter authoringApp="PremierePro">
					<parameterid>3</parameterid>
					<name></name>
					<IsTimeVarying>false</IsTimeVarying>
					<value>-91445760000000000,0.5:0.5,0,0,0,0,0,0,5,4,0,0,0,0</value>
					</parameter>
					<parameter authoringApp="PremierePro">
					<parameterid>4</parameterid>
					<name></name>
					<IsTimeVarying>false</IsTimeVarying>
					<ParameterControlType>2</ParameterControlType>
					<LowerBound>0</LowerBound>
					<UpperBound>4000</UpperBound>
					<value>-91445760000000000,100.,0,0,0,0,0,0</value>
					</parameter>
					<parameter authoringApp="PremierePro">
					<parameterid>8</parameterid>
					<name></name>
					<IsTimeVarying>false</IsTimeVarying>
					<ParameterControlType>2</ParameterControlType>
					<LowerBound>0</LowerBound>
					<UpperBound>100</UpperBound>
					<value>-91445760000000000,100.,0,0,0,0,0,0</value>
					</parameter>
					</effect>
					</filter>
					<logginginfo>
					<description></description>
					<scene></scene>
					<shottake></shottake>
					<lognote></lognote>
					<good></good>
					<originalvideofilename></originalvideofilename>
					<originalaudiofilename></originalaudiofilename>
					</logginginfo>
					<colorinfo>
					<lut></lut>
					<lut1></lut1>
					<asc_sop></asc_sop>
					<asc_sat></asc_sat>
					<lut2></lut2>
					</colorinfo>
					<labels>
					</labels>
					</clipitem>
					<clipitem frameBlend="FALSE" id="clipitem-310">
					<masterclipid>masterclip-230</masterclipid>
					<name></name>
					<enabled>TRUE</enabled>
					<duration>2582774</duration>
					<rate>
					
					                                    <timebase>60</timebase>
					                                    <ntsc>TRUE</ntsc>
					                                
					</rate>
					<start>1793</start>
					<end>1853</end>
					<in>1793</in>
					<out>1853</out>
					<pproTicksIn>914456774963789</pproTicksIn>
					<pproTicksOut>914677708529577</pproTicksOut>
					<alphatype>straight</alphatype>
					<pixelaspectratio>square</pixelaspectratio>
					<anamorphic>FALSE</anamorphic>
					<file id="file-229">
					<name></name>
					<mediaSource>GraphicAndType</mediaSource>
					<rate>
					<timebase>60</timebase>
					<ntsc>TRUE</ntsc>
					</rate>
					<timecode>
					<rate>
					<timebase>60</timebase>
					<ntsc>TRUE</ntsc>
					</rate>
					<string>00:00:00:00</string>
					<frame>0</frame>
					<displayformat>NDF</displayformat>
					</timecode>
					<media>
					<video>
					<samplecharacteristics>
					<rate>
					<timebase>60</timebase>
					<ntsc>TRUE</ntsc>
					</rate>
					<width>1080</width>
					<height>1920</height>
					<anamorphic>FALSE</anamorphic>
					<pixelaspectratio>square</pixelaspectratio>
					<fielddominance>none</fielddominance>
					</samplecharacteristics>
					</video>
					</media>
					</file>
					<filter>
					<effect>
					<name></name>
					<effectid>GraphicAndType</effectid>
					<effectcategory>graphic</effectcategory>
					<effecttype>filter</effecttype>
					<mediatype>video</mediatype>
					<pproBypass>false</pproBypass>
					<parameter authoringApp="PremierePro">
					<parameterid>1</parameterid>
					<name></name>
					<hash>025b1101-ead6-0ca2-1feb-caf3000001fc</hash>
					<value>5AEAAAAAAABEMyIRDAAAAAAABgAKAAQABgAAAGQAAAAAAF4ASAAQAAwARABAADwAOAAAAAAAAAAAADQAMwAsAAAAKAAkACAAAAAAAAAAAAAAAAAAHAAAAAAAGgAAAAAAAAAUAAAAAAAAAAAAAAAAAAAAAAAAAAgAAAAAABsABwBeAAAAAAAAAUAAAABQAAAAbAAAAAIAAAAAAAEAAQAAAAAAQEEAAMBAAABAQAAAyEIAAAABIAAAAAIAAAACAAAAAAA2QwCASkTw/v//9P7///j+//8S////AAAAAAEAAAAEAAAAEQAAAEhHUFNvZWlLYWt1cG9wdGFpAAAAAQAAAAwAAAAIAAwABAAIAAgAAAAIAAAAUAAAAA8AAADvvIEAAAAAAAAAAAAAAAAAAAA2ACQAAAAgABwAAAAAABsAFAAAAAAAAAAAAAAAAAAAAAAAAAAAABAAAAAAAAAADAAAAAgABAA2AAAAAgAAABwAAAAcAAAAHAAAAAAAIEEAAAABaAAAAE3PAEOw////tP///wEAAAAUAAAAEAAaAAgABwAMAAAAEAAUABAAAAAAAAABHAAAAAAAoEEcAAAAAgAAAAAACgAIAAUABgAHAAoAAAAADAD//P///wQABAAEAAAACAAIAAYABwAIAAAAAAAMAA==</value>
					</parameter>
					<parameter authoringApp="PremierePro">
					<parameterid>2</parameterid>
					<name></name>
					<IsTimeVarying>false</IsTimeVarying>
					<ParameterControlType>11</ParameterControlType>
					<LowerBound>false</LowerBound>
					<UpperBound>false</UpperBound>
					<value>-91445760000000000,false,0,0,0,0,0,0</value>
					</parameter>
					<parameter authoringApp="PremierePro">
					<parameterid>3</parameterid>
					<name></name>
					<IsTimeVarying>false</IsTimeVarying>
					<value>-91445760000000000,0.5:0.5,0,0,0,0,0,0,5,4,0,0,0,0</value>
					</parameter>
					<parameter authoringApp="PremierePro">
					<parameterid>4</parameterid>
					<name></name>
					<IsTimeVarying>false</IsTimeVarying>
					<ParameterControlType>2</ParameterControlType>
					<LowerBound>0</LowerBound>
					<UpperBound>4000</UpperBound>
					<value>-91445760000000000,100.,0,0,0,0,0,0</value>
					</parameter>
					<parameter authoringApp="PremierePro">
					<parameterid>8</parameterid>
					<name></name>
					<IsTimeVarying>false</IsTimeVarying>
					<ParameterControlType>2</ParameterControlType>
					<LowerBound>0</LowerBound>
					<UpperBound>100</UpperBound>
					<value>-91445760000000000,100.,0,0,0,0,0,0</value>
					</parameter>
					</effect>
					</filter>
					<logginginfo>
					<description></description>
					<scene></scene>
					<shottake></shottake>
					<lognote></lognote>
					<good></good>
					<originalvideofilename></originalvideofilename>
					<originalaudiofilename></originalaudiofilename>
					</logginginfo>
					<colorinfo>
					<lut></lut>
					<lut1></lut1>
					<asc_sop></asc_sop>
					<asc_sat></asc_sat>
					<lut2></lut2>
					</colorinfo>
					<labels>
					</labels>
					</clipitem>
					<clipitem frameBlend="FALSE" id="clipitem-320">
					<masterclipid>masterclip-240</masterclipid>
					<name></name>
					<enabled>TRUE</enabled>
					<duration>2582774</duration>
					<rate>
					
					                                    <timebase>60</timebase>
					                                    <ntsc>TRUE</ntsc>
					                                
					</rate>
					<start>1883</start>
					<end>1943</end>
					<in>1883</in>
					<out>1943</out>
					<pproTicksIn>914456774963789</pproTicksIn>
					<pproTicksOut>914677708529577</pproTicksOut>
					<alphatype>straight</alphatype>
					<pixelaspectratio>square</pixelaspectratio>
					<anamorphic>FALSE</anamorphic>
					<file id="file-239">
					<name></name>
					<mediaSource>GraphicAndType</mediaSource>
					<rate>
					<timebase>60</timebase>
					<ntsc>TRUE</ntsc>
					</rate>
					<timecode>
					<rate>
					<timebase>60</timebase>
					<ntsc>TRUE</ntsc>
					</rate>
					<string>00:00:00:00</string>
					<frame>0</frame>
					<displayformat>NDF</displayformat>
					</timecode>
					<media>
					<video>
					<samplecharacteristics>
					<rate>
					<timebase>60</timebase>
					<ntsc>TRUE</ntsc>
					</rate>
					<width>1080</width>
					<height>1920</height>
					<anamorphic>FALSE</anamorphic>
					<pixelaspectratio>square</pixelaspectratio>
					<fielddominance>none</fielddominance>
					</samplecharacteristics>
					</video>
					</media>
					</file>
					<filter>
					<effect>
					<name></name>
					<effectid>GraphicAndType</effectid>
					<effectcategory>graphic</effectcategory>
					<effecttype>filter</effecttype>
					<mediatype>video</mediatype>
					<pproBypass>false</pproBypass>
					<parameter authoringApp="PremierePro">
					<parameterid>1</parameterid>
					<name></name>
					<hash>025b1101-ead6-0ca2-1feb-caf3000001fc</hash>
					<value>5AEAAAAAAABEMyIRDAAAAAAABgAKAAQABgAAAGQAAAAAAF4ASAAQAAwARABAADwAOAAAAAAAAAAAADQAMwAsAAAAKAAkACAAAAAAAAAAAAAAAAAAHAAAAAAAGgAAAAAAAAAUAAAAAAAAAAAAAAAAAAAAAAAAAAgAAAAAABsABwBeAAAAAAAAAUAAAABQAAAAbAAAAAIAAAAAAAEAAQAAAAAAQEEAAMBAAABAQAAAyEIAAAABIAAAAAIAAAACAAAAAAA2QwCASkTw/v//9P7///j+//8S////AAAAAAEAAAAEAAAAEQAAAEhHUFNvZWlLYWt1cG9wdGFpAAAAAQAAAAwAAAAIAAwABAAIAAgAAAAIAAAAUAAAAA8AAADvvIEAAAAAAAAAAAAAAAAAAAA2ACQAAAAgABwAAAAAABsAFAAAAAAAAAAAAAAAAAAAAAAAAAAAABAAAAAAAAAADAAAAAgABAA2AAAAAgAAABwAAAAcAAAAHAAAAAAAIEEAAAABaAAAAE3PAEOw////tP///wEAAAAUAAAAEAAaAAgABwAMAAAAEAAUABAAAAAAAAABHAAAAAAAoEEcAAAAAgAAAAAACgAIAAUABgAHAAoAAAAADAD//P///wQABAAEAAAACAAIAAYABwAIAAAAAAAMAA==</value>
					</parameter>
					<parameter authoringApp="PremierePro">
					<parameterid>2</parameterid>
					<name></name>
					<IsTimeVarying>false</IsTimeVarying>
					<ParameterControlType>11</ParameterControlType>
					<LowerBound>false</LowerBound>
					<UpperBound>false</UpperBound>
					<value>-91445760000000000,false,0,0,0,0,0,0</value>
					</parameter>
					<parameter authoringApp="PremierePro">
					<parameterid>3</parameterid>
					<name></name>
					<IsTimeVarying>false</IsTimeVarying>
					<value>-91445760000000000,0.5:0.5,0,0,0,0,0,0,5,4,0,0,0,0</value>
					</parameter>
					<parameter authoringApp="PremierePro">
					<parameterid>4</parameterid>
					<name></name>
					<IsTimeVarying>false</IsTimeVarying>
					<ParameterControlType>2</ParameterControlType>
					<LowerBound>0</LowerBound>
					<UpperBound>4000</UpperBound>
					<value>-91445760000000000,100.,0,0,0,0,0,0</value>
					</parameter>
					<parameter authoringApp="PremierePro">
					<parameterid>8</parameterid>
					<name></name>
					<IsTimeVarying>false</IsTimeVarying>
					<ParameterControlType>2</ParameterControlType>
					<LowerBound>0</LowerBound>
					<UpperBound>100</UpperBound>
					<value>-91445760000000000,100.,0,0,0,0,0,0</value>
					</parameter>
					</effect>
					</filter>
					<logginginfo>
					<description></description>
					<scene></scene>
					<shottake></shottake>
					<lognote></lognote>
					<good></good>
					<originalvideofilename></originalvideofilename>
					<originalaudiofilename></originalaudiofilename>
					</logginginfo>
					<colorinfo>
					<lut></lut>
					<lut1></lut1>
					<asc_sop></asc_sop>
					<asc_sat></asc_sat>
					<lut2></lut2>
					</colorinfo>
					<labels>
					</labels>
					</clipitem>
					<clipitem frameBlend="FALSE" id="clipitem-328">
					<masterclipid>masterclip-248</masterclipid>
					<name></name>
					<enabled>TRUE</enabled>
					<duration>2582774</duration>
					<rate>
					
					                                    <timebase>60</timebase>
					                                    <ntsc>TRUE</ntsc>
					                                
					</rate>
					<start>1943</start>
					<end>2003</end>
					<in>1943</in>
					<out>2003</out>
					<pproTicksIn>914456774963789</pproTicksIn>
					<pproTicksOut>914677708529577</pproTicksOut>
					<alphatype>straight</alphatype>
					<pixelaspectratio>square</pixelaspectratio>
					<anamorphic>FALSE</anamorphic>
					<file id="file-247">
					<name></name>
					<mediaSource>GraphicAndType</mediaSource>
					<rate>
					<timebase>60</timebase>
					<ntsc>TRUE</ntsc>
					</rate>
					<timecode>
					<rate>
					<timebase>60</timebase>
					<ntsc>TRUE</ntsc>
					</rate>
					<string>00:00:00:00</string>
					<frame>0</frame>
					<displayformat>NDF</displayformat>
					</timecode>
					<media>
					<video>
					<samplecharacteristics>
					<rate>
					<timebase>60</timebase>
					<ntsc>TRUE</ntsc>
					</rate>
					<width>1080</width>
					<height>1920</height>
					<anamorphic>FALSE</anamorphic>
					<pixelaspectratio>square</pixelaspectratio>
					<fielddominance>none</fielddominance>
					</samplecharacteristics>
					</video>
					</media>
					</file>
					<filter>
					<effect>
					<name></name>
					<effectid>GraphicAndType</effectid>
					<effectcategory>graphic</effectcategory>
					<effecttype>filter</effecttype>
					<mediatype>video</mediatype>
					<pproBypass>false</pproBypass>
					<parameter authoringApp="PremierePro">
					<parameterid>1</parameterid>
					<name></name>
					<hash>025b1101-ead6-0ca2-1feb-caf3000001fc</hash>
					<value>5AEAAAAAAABEMyIRDAAAAAAABgAKAAQABgAAAGQAAAAAAF4ASAAQAAwARABAADwAOAAAAAAAAAAAADQAMwAsAAAAKAAkACAAAAAAAAAAAAAAAAAAHAAAAAAAGgAAAAAAAAAUAAAAAAAAAAAAAAAAAAAAAAAAAAgAAAAAABsABwBeAAAAAAAAAUAAAABQAAAAbAAAAAIAAAAAAAEAAQAAAAAAQEEAAMBAAABAQAAAyEIAAAABIAAAAAIAAAACAAAAAAA2QwCASkTw/v//9P7///j+//8S////AAAAAAEAAAAEAAAAEQAAAEhHUFNvZWlLYWt1cG9wdGFpAAAAAQAAAAwAAAAIAAwABAAIAAgAAAAIAAAAUAAAAA8AAADvvIEAAAAAAAAAAAAAAAAAAAA2ACQAAAAgABwAAAAAABsAFAAAAAAAAAAAAAAAAAAAAAAAAAAAABAAAAAAAAAADAAAAAgABAA2AAAAAgAAABwAAAAcAAAAHAAAAAAAIEEAAAABaAAAAE3PAEOw////tP///wEAAAAUAAAAEAAaAAgABwAMAAAAEAAUABAAAAAAAAABHAAAAAAAoEEcAAAAAgAAAAAACgAIAAUABgAHAAoAAAAADAD//P///wQABAAEAAAACAAIAAYABwAIAAAAAAAMAA==</value>
					</parameter>
					<parameter authoringApp="PremierePro">
					<parameterid>2</parameterid>
					<name></name>
					<IsTimeVarying>false</IsTimeVarying>
					<ParameterControlType>11</ParameterControlType>
					<LowerBound>false</LowerBound>
					<UpperBound>false</UpperBound>
					<value>-91445760000000000,false,0,0,0,0,0,0</value>
					</parameter>
					<parameter authoringApp="PremierePro">
					<parameterid>3</parameterid>
					<name></name>
					<IsTimeVarying>false</IsTimeVarying>
					<value>-91445760000000000,0.5:0.5,0,0,0,0,0,0,5,4,0,0,0,0</value>
					</parameter>
					<parameter authoringApp="PremierePro">
					<parameterid>4</parameterid>
					<name></name>
					<IsTimeVarying>false</IsTimeVarying>
					<ParameterControlType>2</ParameterControlType>
					<LowerBound>0</LowerBound>
					<UpperBound>4000</UpperBound>
					<value>-91445760000000000,100.,0,0,0,0,0,0</value>
					</parameter>
					<parameter authoringApp="PremierePro">
					<parameterid>8</parameterid>
					<name></name>
					<IsTimeVarying>false</IsTimeVarying>
					<ParameterControlType>2</ParameterControlType>
					<LowerBound>0</LowerBound>
					<UpperBound>100</UpperBound>
					<value>-91445760000000000,100.,0,0,0,0,0,0</value>
					</parameter>
					</effect>
					</filter>
					<logginginfo>
					<description></description>
					<scene></scene>
					<shottake></shottake>
					<lognote></lognote>
					<good></good>
					<originalvideofilename></originalvideofilename>
					<originalaudiofilename></originalaudiofilename>
					</logginginfo>
					<colorinfo>
					<lut></lut>
					<lut1></lut1>
					<asc_sop></asc_sop>
					<asc_sat></asc_sat>
					<lut2></lut2>
					</colorinfo>
					<labels>
					</labels>
					</clipitem>
					<clipitem frameBlend="FALSE" id="clipitem-336">
					<masterclipid>masterclip-256</masterclipid>
					<name></name>
					<enabled>TRUE</enabled>
					<duration>2582774</duration>
					<rate>
					
					                                    <timebase>60</timebase>
					                                    <ntsc>TRUE</ntsc>
					                                
					</rate>
					<start>2039</start>
					<end>2105</end>
					<in>2039</in>
					<out>2105</out>
					<pproTicksIn>914456774963789</pproTicksIn>
					<pproTicksOut>914677708529577</pproTicksOut>
					<alphatype>straight</alphatype>
					<pixelaspectratio>square</pixelaspectratio>
					<anamorphic>FALSE</anamorphic>
					<file id="file-255">
					<name></name>
					<mediaSource>GraphicAndType</mediaSource>
					<rate>
					<timebase>60</timebase>
					<ntsc>TRUE</ntsc>
					</rate>
					<timecode>
					<rate>
					<timebase>60</timebase>
					<ntsc>TRUE</ntsc>
					</rate>
					<string>00:00:00:00</string>
					<frame>0</frame>
					<displayformat>NDF</displayformat>
					</timecode>
					<media>
					<video>
					<samplecharacteristics>
					<rate>
					<timebase>60</timebase>
					<ntsc>TRUE</ntsc>
					</rate>
					<width>1080</width>
					<height>1920</height>
					<anamorphic>FALSE</anamorphic>
					<pixelaspectratio>square</pixelaspectratio>
					<fielddominance>none</fielddominance>
					</samplecharacteristics>
					</video>
					</media>
					</file>
					<filter>
					<effect>
					<name></name>
					<effectid>GraphicAndType</effectid>
					<effectcategory>graphic</effectcategory>
					<effecttype>filter</effecttype>
					<mediatype>video</mediatype>
					<pproBypass>false</pproBypass>
					<parameter authoringApp="PremierePro">
					<parameterid>1</parameterid>
					<name></name>
					<hash>025b1101-ead6-0ca2-1feb-caf3000001fc</hash>
					<value>5AEAAAAAAABEMyIRDAAAAAAABgAKAAQABgAAAGQAAAAAAF4ASAAQAAwARABAADwAOAAAAAAAAAAAADQAMwAsAAAAKAAkACAAAAAAAAAAAAAAAAAAHAAAAAAAGgAAAAAAAAAUAAAAAAAAAAAAAAAAAAAAAAAAAAgAAAAAABsABwBeAAAAAAAAAUAAAABQAAAAbAAAAAIAAAAAAAEAAQAAAAAAQEEAAMBAAABAQAAAyEIAAAABIAAAAAIAAAACAAAAAAA2QwCASkTw/v//9P7///j+//8S////AAAAAAEAAAAEAAAAEQAAAEhHUFNvZWlLYWt1cG9wdGFpAAAAAQAAAAwAAAAIAAwABAAIAAgAAAAIAAAAUAAAAA8AAADvvIEAAAAAAAAAAAAAAAAAAAA2ACQAAAAgABwAAAAAABsAFAAAAAAAAAAAAAAAAAAAAAAAAAAAABAAAAAAAAAADAAAAAgABAA2AAAAAgAAABwAAAAcAAAAHAAAAAAAIEEAAAABaAAAAE3PAEOw////tP///wEAAAAUAAAAEAAaAAgABwAMAAAAEAAUABAAAAAAAAABHAAAAAAAoEEcAAAAAgAAAAAACgAIAAUABgAHAAoAAAAADAD//P///wQABAAEAAAACAAIAAYABwAIAAAAAAAMAA==</value>
					</parameter>
					<parameter authoringApp="PremierePro">
					<parameterid>2</parameterid>
					<name></name>
					<IsTimeVarying>false</IsTimeVarying>
					<ParameterControlType>11</ParameterControlType>
					<LowerBound>false</LowerBound>
					<UpperBound>false</UpperBound>
					<value>-91445760000000000,false,0,0,0,0,0,0</value>
					</parameter>
					<parameter authoringApp="PremierePro">
					<parameterid>3</parameterid>
					<name></name>
					<IsTimeVarying>false</IsTimeVarying>
					<value>-91445760000000000,0.5:0.5,0,0,0,0,0,0,5,4,0,0,0,0</value>
					</parameter>
					<parameter authoringApp="PremierePro">
					<parameterid>4</parameterid>
					<name></name>
					<IsTimeVarying>false</IsTimeVarying>
					<ParameterControlType>2</ParameterControlType>
					<LowerBound>0</LowerBound>
					<UpperBound>4000</UpperBound>
					<value>-91445760000000000,100.,0,0,0,0,0,0</value>
					</parameter>
					<parameter authoringApp="PremierePro">
					<parameterid>8</parameterid>
					<name></name>
					<IsTimeVarying>false</IsTimeVarying>
					<ParameterControlType>2</ParameterControlType>
					<LowerBound>0</LowerBound>
					<UpperBound>100</UpperBound>
					<value>-91445760000000000,100.,0,0,0,0,0,0</value>
					</parameter>
					</effect>
					</filter>
					<logginginfo>
					<description></description>
					<scene></scene>
					<shottake></shottake>
					<lognote></lognote>
					<good></good>
					<originalvideofilename></originalvideofilename>
					<originalaudiofilename></originalaudiofilename>
					</logginginfo>
					<colorinfo>
					<lut></lut>
					<lut1></lut1>
					<asc_sop></asc_sop>
					<asc_sat></asc_sat>
					<lut2></lut2>
					</colorinfo>
					<labels>
					</labels>
					</clipitem>
					<clipitem frameBlend="FALSE" id="clipitem-341">
					<masterclipid>masterclip-261</masterclipid>
					<name></name>
					<enabled>TRUE</enabled>
					<duration>2582774</duration>
					<rate>
					
					                                    <timebase>60</timebase>
					                                    <ntsc>TRUE</ntsc>
					                                
					</rate>
					<start>2165</start>
					<end>2225</end>
					<in>2165</in>
					<out>2225</out>
					<pproTicksIn>914456774963789</pproTicksIn>
					<pproTicksOut>914677708529577</pproTicksOut>
					<alphatype>straight</alphatype>
					<pixelaspectratio>square</pixelaspectratio>
					<anamorphic>FALSE</anamorphic>
					<file id="file-260">
					<name></name>
					<mediaSource>GraphicAndType</mediaSource>
					<rate>
					<timebase>60</timebase>
					<ntsc>TRUE</ntsc>
					</rate>
					<timecode>
					<rate>
					<timebase>60</timebase>
					<ntsc>TRUE</ntsc>
					</rate>
					<string>00:00:00:00</string>
					<frame>0</frame>
					<displayformat>NDF</displayformat>
					</timecode>
					<media>
					<video>
					<samplecharacteristics>
					<rate>
					<timebase>60</timebase>
					<ntsc>TRUE</ntsc>
					</rate>
					<width>1080</width>
					<height>1920</height>
					<anamorphic>FALSE</anamorphic>
					<pixelaspectratio>square</pixelaspectratio>
					<fielddominance>none</fielddominance>
					</samplecharacteristics>
					</video>
					</media>
					</file>
					<filter>
					<effect>
					<name></name>
					<effectid>GraphicAndType</effectid>
					<effectcategory>graphic</effectcategory>
					<effecttype>filter</effecttype>
					<mediatype>video</mediatype>
					<pproBypass>false</pproBypass>
					<parameter authoringApp="PremierePro">
					<parameterid>1</parameterid>
					<name></name>
					<hash>025b1101-ead6-0ca2-1feb-caf3000001fc</hash>
					<value>5AEAAAAAAABEMyIRDAAAAAAABgAKAAQABgAAAGQAAAAAAF4ASAAQAAwARABAADwAOAAAAAAAAAAAADQAMwAsAAAAKAAkACAAAAAAAAAAAAAAAAAAHAAAAAAAGgAAAAAAAAAUAAAAAAAAAAAAAAAAAAAAAAAAAAgAAAAAABsABwBeAAAAAAAAAUAAAABQAAAAbAAAAAIAAAAAAAEAAQAAAAAAQEEAAMBAAABAQAAAyEIAAAABIAAAAAIAAAACAAAAAAA2QwCASkTw/v//9P7///j+//8S////AAAAAAEAAAAEAAAAEQAAAEhHUFNvZWlLYWt1cG9wdGFpAAAAAQAAAAwAAAAIAAwABAAIAAgAAAAIAAAAUAAAAA8AAADvvIEAAAAAAAAAAAAAAAAAAAA2ACQAAAAgABwAAAAAABsAFAAAAAAAAAAAAAAAAAAAAAAAAAAAABAAAAAAAAAADAAAAAgABAA2AAAAAgAAABwAAAAcAAAAHAAAAAAAIEEAAAABaAAAAE3PAEOw////tP///wEAAAAUAAAAEAAaAAgABwAMAAAAEAAUABAAAAAAAAABHAAAAAAAoEEcAAAAAgAAAAAACgAIAAUABgAHAAoAAAAADAD//P///wQABAAEAAAACAAIAAYABwAIAAAAAAAMAA==</value>
					</parameter>
					<parameter authoringApp="PremierePro">
					<parameterid>2</parameterid>
					<name></name>
					<IsTimeVarying>false</IsTimeVarying>
					<ParameterControlType>11</ParameterControlType>
					<LowerBound>false</LowerBound>
					<UpperBound>false</UpperBound>
					<value>-91445760000000000,false,0,0,0,0,0,0</value>
					</parameter>
					<parameter authoringApp="PremierePro">
					<parameterid>3</parameterid>
					<name></name>
					<IsTimeVarying>false</IsTimeVarying>
					<value>-91445760000000000,0.5:0.5,0,0,0,0,0,0,5,4,0,0,0,0</value>
					</parameter>
					<parameter authoringApp="PremierePro">
					<parameterid>4</parameterid>
					<name></name>
					<IsTimeVarying>false</IsTimeVarying>
					<ParameterControlType>2</ParameterControlType>
					<LowerBound>0</LowerBound>
					<UpperBound>4000</UpperBound>
					<value>-91445760000000000,100.,0,0,0,0,0,0</value>
					</parameter>
					<parameter authoringApp="PremierePro">
					<parameterid>8</parameterid>
					<name></name>
					<IsTimeVarying>false</IsTimeVarying>
					<ParameterControlType>2</ParameterControlType>
					<LowerBound>0</LowerBound>
					<UpperBound>100</UpperBound>
					<value>-91445760000000000,100.,0,0,0,0,0,0</value>
					</parameter>
					</effect>
					</filter>
					<logginginfo>
					<description></description>
					<scene></scene>
					<shottake></shottake>
					<lognote></lognote>
					<good></good>
					<originalvideofilename></originalvideofilename>
					<originalaudiofilename></originalaudiofilename>
					</logginginfo>
					<colorinfo>
					<lut></lut>
					<lut1></lut1>
					<asc_sop></asc_sop>
					<asc_sat></asc_sat>
					<lut2></lut2>
					</colorinfo>
					<labels>
					</labels>
					</clipitem>
					<clipitem frameBlend="FALSE" id="clipitem-350">
					<masterclipid>masterclip-270</masterclipid>
					<name></name>
					<enabled>TRUE</enabled>
					<duration>2582774</duration>
					<rate>
					
					                                    <timebase>60</timebase>
					                                    <ntsc>TRUE</ntsc>
					                                
					</rate>
					<start>2309</start>
					<end>2369</end>
					<in>2309</in>
					<out>2369</out>
					<pproTicksIn>914456774963789</pproTicksIn>
					<pproTicksOut>914677708529577</pproTicksOut>
					<alphatype>straight</alphatype>
					<pixelaspectratio>square</pixelaspectratio>
					<anamorphic>FALSE</anamorphic>
					<file id="file-269">
					<name></name>
					<mediaSource>GraphicAndType</mediaSource>
					<rate>
					<timebase>60</timebase>
					<ntsc>TRUE</ntsc>
					</rate>
					<timecode>
					<rate>
					<timebase>60</timebase>
					<ntsc>TRUE</ntsc>
					</rate>
					<string>00:00:00:00</string>
					<frame>0</frame>
					<displayformat>NDF</displayformat>
					</timecode>
					<media>
					<video>
					<samplecharacteristics>
					<rate>
					<timebase>60</timebase>
					<ntsc>TRUE</ntsc>
					</rate>
					<width>1080</width>
					<height>1920</height>
					<anamorphic>FALSE</anamorphic>
					<pixelaspectratio>square</pixelaspectratio>
					<fielddominance>none</fielddominance>
					</samplecharacteristics>
					</video>
					</media>
					</file>
					<filter>
					<effect>
					<name></name>
					<effectid>GraphicAndType</effectid>
					<effectcategory>graphic</effectcategory>
					<effecttype>filter</effecttype>
					<mediatype>video</mediatype>
					<pproBypass>false</pproBypass>
					<parameter authoringApp="PremierePro">
					<parameterid>1</parameterid>
					<name></name>
					<hash>025b1101-ead6-0ca2-1feb-caf3000001fc</hash>
					<value>5AEAAAAAAABEMyIRDAAAAAAABgAKAAQABgAAAGQAAAAAAF4ASAAQAAwARABAADwAOAAAAAAAAAAAADQAMwAsAAAAKAAkACAAAAAAAAAAAAAAAAAAHAAAAAAAGgAAAAAAAAAUAAAAAAAAAAAAAAAAAAAAAAAAAAgAAAAAABsABwBeAAAAAAAAAUAAAABQAAAAbAAAAAIAAAAAAAEAAQAAAAAAQEEAAMBAAABAQAAAyEIAAAABIAAAAAIAAAACAAAAAAA2QwCASkTw/v//9P7///j+//8S////AAAAAAEAAAAEAAAAEQAAAEhHUFNvZWlLYWt1cG9wdGFpAAAAAQAAAAwAAAAIAAwABAAIAAgAAAAIAAAAUAAAAA8AAADvvIEAAAAAAAAAAAAAAAAAAAA2ACQAAAAgABwAAAAAABsAFAAAAAAAAAAAAAAAAAAAAAAAAAAAABAAAAAAAAAADAAAAAgABAA2AAAAAgAAABwAAAAcAAAAHAAAAAAAIEEAAAABaAAAAE3PAEOw////tP///wEAAAAUAAAAEAAaAAgABwAMAAAAEAAUABAAAAAAAAABHAAAAAAAoEEcAAAAAgAAAAAACgAIAAUABgAHAAoAAAAADAD//P///wQABAAEAAAACAAIAAYABwAIAAAAAAAMAA==</value>
					</parameter>
					<parameter authoringApp="PremierePro">
					<parameterid>2</parameterid>
					<name></name>
					<IsTimeVarying>false</IsTimeVarying>
					<ParameterControlType>11</ParameterControlType>
					<LowerBound>false</LowerBound>
					<UpperBound>false</UpperBound>
					<value>-91445760000000000,false,0,0,0,0,0,0</value>
					</parameter>
					<parameter authoringApp="PremierePro">
					<parameterid>3</parameterid>
					<name></name>
					<IsTimeVarying>false</IsTimeVarying>
					<value>-91445760000000000,0.5:0.5,0,0,0,0,0,0,5,4,0,0,0,0</value>
					</parameter>
					<parameter authoringApp="PremierePro">
					<parameterid>4</parameterid>
					<name></name>
					<IsTimeVarying>false</IsTimeVarying>
					<ParameterControlType>2</ParameterControlType>
					<LowerBound>0</LowerBound>
					<UpperBound>4000</UpperBound>
					<value>-91445760000000000,100.,0,0,0,0,0,0</value>
					</parameter>
					<parameter authoringApp="PremierePro">
					<parameterid>8</parameterid>
					<name></name>
					<IsTimeVarying>false</IsTimeVarying>
					<ParameterControlType>2</ParameterControlType>
					<LowerBound>0</LowerBound>
					<UpperBound>100</UpperBound>
					<value>-91445760000000000,100.,0,0,0,0,0,0</value>
					</parameter>
					</effect>
					</filter>
					<logginginfo>
					<description></description>
					<scene></scene>
					<shottake></shottake>
					<lognote></lognote>
					<good></good>
					<originalvideofilename></originalvideofilename>
					<originalaudiofilename></originalaudiofilename>
					</logginginfo>
					<colorinfo>
					<lut></lut>
					<lut1></lut1>
					<asc_sop></asc_sop>
					<asc_sat></asc_sat>
					<lut2></lut2>
					</colorinfo>
					<labels>
					</labels>
					</clipitem>
					<clipitem frameBlend="FALSE" id="clipitem-356">
					<masterclipid>masterclip-276</masterclipid>
					<name></name>
					<enabled>TRUE</enabled>
					<duration>2582774</duration>
					<rate>
					
					                                    <timebase>60</timebase>
					                                    <ntsc>TRUE</ntsc>
					                                
					</rate>
					<start>2399</start>
					<end>2465</end>
					<in>2399</in>
					<out>2465</out>
					<pproTicksIn>914456774963789</pproTicksIn>
					<pproTicksOut>914677708529577</pproTicksOut>
					<alphatype>straight</alphatype>
					<pixelaspectratio>square</pixelaspectratio>
					<anamorphic>FALSE</anamorphic>
					<file id="file-275">
					<name></name>
					<mediaSource>GraphicAndType</mediaSource>
					<rate>
					<timebase>60</timebase>
					<ntsc>TRUE</ntsc>
					</rate>
					<timecode>
					<rate>
					<timebase>60</timebase>
					<ntsc>TRUE</ntsc>
					</rate>
					<string>00:00:00:00</string>
					<frame>0</frame>
					<displayformat>NDF</displayformat>
					</timecode>
					<media>
					<video>
					<samplecharacteristics>
					<rate>
					<timebase>60</timebase>
					<ntsc>TRUE</ntsc>
					</rate>
					<width>1080</width>
					<height>1920</height>
					<anamorphic>FALSE</anamorphic>
					<pixelaspectratio>square</pixelaspectratio>
					<fielddominance>none</fielddominance>
					</samplecharacteristics>
					</video>
					</media>
					</file>
					<filter>
					<effect>
					<name></name>
					<effectid>GraphicAndType</effectid>
					<effectcategory>graphic</effectcategory>
					<effecttype>filter</effecttype>
					<mediatype>video</mediatype>
					<pproBypass>false</pproBypass>
					<parameter authoringApp="PremierePro">
					<parameterid>1</parameterid>
					<name></name>
					<hash>025b1101-ead6-0ca2-1feb-caf3000001fc</hash>
					<value>5AEAAAAAAABEMyIRDAAAAAAABgAKAAQABgAAAGQAAAAAAF4ASAAQAAwARABAADwAOAAAAAAAAAAAADQAMwAsAAAAKAAkACAAAAAAAAAAAAAAAAAAHAAAAAAAGgAAAAAAAAAUAAAAAAAAAAAAAAAAAAAAAAAAAAgAAAAAABsABwBeAAAAAAAAAUAAAABQAAAAbAAAAAIAAAAAAAEAAQAAAAAAQEEAAMBAAABAQAAAyEIAAAABIAAAAAIAAAACAAAAAAA2QwCASkTw/v//9P7///j+//8S////AAAAAAEAAAAEAAAAEQAAAEhHUFNvZWlLYWt1cG9wdGFpAAAAAQAAAAwAAAAIAAwABAAIAAgAAAAIAAAAUAAAAA8AAADvvIEAAAAAAAAAAAAAAAAAAAA2ACQAAAAgABwAAAAAABsAFAAAAAAAAAAAAAAAAAAAAAAAAAAAABAAAAAAAAAADAAAAAgABAA2AAAAAgAAABwAAAAcAAAAHAAAAAAAIEEAAAABaAAAAE3PAEOw////tP///wEAAAAUAAAAEAAaAAgABwAMAAAAEAAUABAAAAAAAAABHAAAAAAAoEEcAAAAAgAAAAAACgAIAAUABgAHAAoAAAAADAD//P///wQABAAEAAAACAAIAAYABwAIAAAAAAAMAA==</value>
					</parameter>
					<parameter authoringApp="PremierePro">
					<parameterid>2</parameterid>
					<name></name>
					<IsTimeVarying>false</IsTimeVarying>
					<ParameterControlType>11</ParameterControlType>
					<LowerBound>false</LowerBound>
					<UpperBound>false</UpperBound>
					<value>-91445760000000000,false,0,0,0,0,0,0</value>
					</parameter>
					<parameter authoringApp="PremierePro">
					<parameterid>3</parameterid>
					<name></name>
					<IsTimeVarying>false</IsTimeVarying>
					<value>-91445760000000000,0.5:0.5,0,0,0,0,0,0,5,4,0,0,0,0</value>
					</parameter>
					<parameter authoringApp="PremierePro">
					<parameterid>4</parameterid>
					<name></name>
					<IsTimeVarying>false</IsTimeVarying>
					<ParameterControlType>2</ParameterControlType>
					<LowerBound>0</LowerBound>
					<UpperBound>4000</UpperBound>
					<value>-91445760000000000,100.,0,0,0,0,0,0</value>
					</parameter>
					<parameter authoringApp="PremierePro">
					<parameterid>8</parameterid>
					<name></name>
					<IsTimeVarying>false</IsTimeVarying>
					<ParameterControlType>2</ParameterControlType>
					<LowerBound>0</LowerBound>
					<UpperBound>100</UpperBound>
					<value>-91445760000000000,100.,0,0,0,0,0,0</value>
					</parameter>
					</effect>
					</filter>
					<logginginfo>
					<description></description>
					<scene></scene>
					<shottake></shottake>
					<lognote></lognote>
					<good></good>
					<originalvideofilename></originalvideofilename>
					<originalaudiofilename></originalaudiofilename>
					</logginginfo>
					<colorinfo>
					<lut></lut>
					<lut1></lut1>
					<asc_sop></asc_sop>
					<asc_sat></asc_sat>
					<lut2></lut2>
					</colorinfo>
					<labels>
					</labels>
					</clipitem>
					<clipitem frameBlend="FALSE" id="clipitem-364">
					<masterclipid>masterclip-284</masterclipid>
					<name></name>
					<enabled>TRUE</enabled>
					<duration>2582774</duration>
					<rate>
					
					                                    <timebase>60</timebase>
					                                    <ntsc>TRUE</ntsc>
					                                
					</rate>
					<start>2513</start>
					<end>2579</end>
					<in>2513</in>
					<out>2579</out>
					<pproTicksIn>914456774963789</pproTicksIn>
					<pproTicksOut>914677708529577</pproTicksOut>
					<alphatype>straight</alphatype>
					<pixelaspectratio>square</pixelaspectratio>
					<anamorphic>FALSE</anamorphic>
					<file id="file-283">
					<name></name>
					<mediaSource>GraphicAndType</mediaSource>
					<rate>
					<timebase>60</timebase>
					<ntsc>TRUE</ntsc>
					</rate>
					<timecode>
					<rate>
					<timebase>60</timebase>
					<ntsc>TRUE</ntsc>
					</rate>
					<string>00:00:00:00</string>
					<frame>0</frame>
					<displayformat>NDF</displayformat>
					</timecode>
					<media>
					<video>
					<samplecharacteristics>
					<rate>
					<timebase>60</timebase>
					<ntsc>TRUE</ntsc>
					</rate>
					<width>1080</width>
					<height>1920</height>
					<anamorphic>FALSE</anamorphic>
					<pixelaspectratio>square</pixelaspectratio>
					<fielddominance>none</fielddominance>
					</samplecharacteristics>
					</video>
					</media>
					</file>
					<filter>
					<effect>
					<name></name>
					<effectid>GraphicAndType</effectid>
					<effectcategory>graphic</effectcategory>
					<effecttype>filter</effecttype>
					<mediatype>video</mediatype>
					<pproBypass>false</pproBypass>
					<parameter authoringApp="PremierePro">
					<parameterid>1</parameterid>
					<name></name>
					<hash>025b1101-ead6-0ca2-1feb-caf3000001fc</hash>
					<value>5AEAAAAAAABEMyIRDAAAAAAABgAKAAQABgAAAGQAAAAAAF4ASAAQAAwARABAADwAOAAAAAAAAAAAADQAMwAsAAAAKAAkACAAAAAAAAAAAAAAAAAAHAAAAAAAGgAAAAAAAAAUAAAAAAAAAAAAAAAAAAAAAAAAAAgAAAAAABsABwBeAAAAAAAAAUAAAABQAAAAbAAAAAIAAAAAAAEAAQAAAAAAQEEAAMBAAABAQAAAyEIAAAABIAAAAAIAAAACAAAAAAA2QwCASkTw/v//9P7///j+//8S////AAAAAAEAAAAEAAAAEQAAAEhHUFNvZWlLYWt1cG9wdGFpAAAAAQAAAAwAAAAIAAwABAAIAAgAAAAIAAAAUAAAAA8AAADvvIEAAAAAAAAAAAAAAAAAAAA2ACQAAAAgABwAAAAAABsAFAAAAAAAAAAAAAAAAAAAAAAAAAAAABAAAAAAAAAADAAAAAgABAA2AAAAAgAAABwAAAAcAAAAHAAAAAAAIEEAAAABaAAAAE3PAEOw////tP///wEAAAAUAAAAEAAaAAgABwAMAAAAEAAUABAAAAAAAAABHAAAAAAAoEEcAAAAAgAAAAAACgAIAAUABgAHAAoAAAAADAD//P///wQABAAEAAAACAAIAAYABwAIAAAAAAAMAA==</value>
					</parameter>
					<parameter authoringApp="PremierePro">
					<parameterid>2</parameterid>
					<name></name>
					<IsTimeVarying>false</IsTimeVarying>
					<ParameterControlType>11</ParameterControlType>
					<LowerBound>false</LowerBound>
					<UpperBound>false</UpperBound>
					<value>-91445760000000000,false,0,0,0,0,0,0</value>
					</parameter>
					<parameter authoringApp="PremierePro">
					<parameterid>3</parameterid>
					<name></name>
					<IsTimeVarying>false</IsTimeVarying>
					<value>-91445760000000000,0.5:0.5,0,0,0,0,0,0,5,4,0,0,0,0</value>
					</parameter>
					<parameter authoringApp="PremierePro">
					<parameterid>4</parameterid>
					<name></name>
					<IsTimeVarying>false</IsTimeVarying>
					<ParameterControlType>2</ParameterControlType>
					<LowerBound>0</LowerBound>
					<UpperBound>4000</UpperBound>
					<value>-91445760000000000,100.,0,0,0,0,0,0</value>
					</parameter>
					<parameter authoringApp="PremierePro">
					<parameterid>8</parameterid>
					<name></name>
					<IsTimeVarying>false</IsTimeVarying>
					<ParameterControlType>2</ParameterControlType>
					<LowerBound>0</LowerBound>
					<UpperBound>100</UpperBound>
					<value>-91445760000000000,100.,0,0,0,0,0,0</value>
					</parameter>
					</effect>
					</filter>
					<logginginfo>
					<description></description>
					<scene></scene>
					<shottake></shottake>
					<lognote></lognote>
					<good></good>
					<originalvideofilename></originalvideofilename>
					<originalaudiofilename></originalaudiofilename>
					</logginginfo>
					<colorinfo>
					<lut></lut>
					<lut1></lut1>
					<asc_sop></asc_sop>
					<asc_sat></asc_sat>
					<lut2></lut2>
					</colorinfo>
					<labels>
					</labels>
					</clipitem>
					<clipitem frameBlend="FALSE" id="clipitem-372">
					<masterclipid>masterclip-292</masterclipid>
					<name></name>
					<enabled>TRUE</enabled>
					<duration>2582774</duration>
					<rate>
					
					                                    <timebase>60</timebase>
					                                    <ntsc>TRUE</ntsc>
					                                
					</rate>
					<start>2591</start>
					<end>2651</end>
					<in>2591</in>
					<out>2651</out>
					<pproTicksIn>914456774963789</pproTicksIn>
					<pproTicksOut>914677708529577</pproTicksOut>
					<alphatype>straight</alphatype>
					<pixelaspectratio>square</pixelaspectratio>
					<anamorphic>FALSE</anamorphic>
					<file id="file-291">
					<name></name>
					<mediaSource>GraphicAndType</mediaSource>
					<rate>
					<timebase>60</timebase>
					<ntsc>TRUE</ntsc>
					</rate>
					<timecode>
					<rate>
					<timebase>60</timebase>
					<ntsc>TRUE</ntsc>
					</rate>
					<string>00:00:00:00</string>
					<frame>0</frame>
					<displayformat>NDF</displayformat>
					</timecode>
					<media>
					<video>
					<samplecharacteristics>
					<rate>
					<timebase>60</timebase>
					<ntsc>TRUE</ntsc>
					</rate>
					<width>1080</width>
					<height>1920</height>
					<anamorphic>FALSE</anamorphic>
					<pixelaspectratio>square</pixelaspectratio>
					<fielddominance>none</fielddominance>
					</samplecharacteristics>
					</video>
					</media>
					</file>
					<filter>
					<effect>
					<name></name>
					<effectid>GraphicAndType</effectid>
					<effectcategory>graphic</effectcategory>
					<effecttype>filter</effecttype>
					<mediatype>video</mediatype>
					<pproBypass>false</pproBypass>
					<parameter authoringApp="PremierePro">
					<parameterid>1</parameterid>
					<name></name>
					<hash>025b1101-ead6-0ca2-1feb-caf3000001fc</hash>
					<value>5AEAAAAAAABEMyIRDAAAAAAABgAKAAQABgAAAGQAAAAAAF4ASAAQAAwARABAADwAOAAAAAAAAAAAADQAMwAsAAAAKAAkACAAAAAAAAAAAAAAAAAAHAAAAAAAGgAAAAAAAAAUAAAAAAAAAAAAAAAAAAAAAAAAAAgAAAAAABsABwBeAAAAAAAAAUAAAABQAAAAbAAAAAIAAAAAAAEAAQAAAAAAQEEAAMBAAABAQAAAyEIAAAABIAAAAAIAAAACAAAAAAA2QwCASkTw/v//9P7///j+//8S////AAAAAAEAAAAEAAAAEQAAAEhHUFNvZWlLYWt1cG9wdGFpAAAAAQAAAAwAAAAIAAwABAAIAAgAAAAIAAAAUAAAAA8AAADvvIEAAAAAAAAAAAAAAAAAAAA2ACQAAAAgABwAAAAAABsAFAAAAAAAAAAAAAAAAAAAAAAAAAAAABAAAAAAAAAADAAAAAgABAA2AAAAAgAAABwAAAAcAAAAHAAAAAAAIEEAAAABaAAAAE3PAEOw////tP///wEAAAAUAAAAEAAaAAgABwAMAAAAEAAUABAAAAAAAAABHAAAAAAAoEEcAAAAAgAAAAAACgAIAAUABgAHAAoAAAAADAD//P///wQABAAEAAAACAAIAAYABwAIAAAAAAAMAA==</value>
					</parameter>
					<parameter authoringApp="PremierePro">
					<parameterid>2</parameterid>
					<name></name>
					<IsTimeVarying>false</IsTimeVarying>
					<ParameterControlType>11</ParameterControlType>
					<LowerBound>false</LowerBound>
					<UpperBound>false</UpperBound>
					<value>-91445760000000000,false,0,0,0,0,0,0</value>
					</parameter>
					<parameter authoringApp="PremierePro">
					<parameterid>3</parameterid>
					<name></name>
					<IsTimeVarying>false</IsTimeVarying>
					<value>-91445760000000000,0.5:0.5,0,0,0,0,0,0,5,4,0,0,0,0</value>
					</parameter>
					<parameter authoringApp="PremierePro">
					<parameterid>4</parameterid>
					<name></name>
					<IsTimeVarying>false</IsTimeVarying>
					<ParameterControlType>2</ParameterControlType>
					<LowerBound>0</LowerBound>
					<UpperBound>4000</UpperBound>
					<value>-91445760000000000,100.,0,0,0,0,0,0</value>
					</parameter>
					<parameter authoringApp="PremierePro">
					<parameterid>8</parameterid>
					<name></name>
					<IsTimeVarying>false</IsTimeVarying>
					<ParameterControlType>2</ParameterControlType>
					<LowerBound>0</LowerBound>
					<UpperBound>100</UpperBound>
					<value>-91445760000000000,100.,0,0,0,0,0,0</value>
					</parameter>
					</effect>
					</filter>
					<logginginfo>
					<description></description>
					<scene></scene>
					<shottake></shottake>
					<lognote></lognote>
					<good></good>
					<originalvideofilename></originalvideofilename>
					<originalaudiofilename></originalaudiofilename>
					</logginginfo>
					<colorinfo>
					<lut></lut>
					<lut1></lut1>
					<asc_sop></asc_sop>
					<asc_sat></asc_sat>
					<lut2></lut2>
					</colorinfo>
					<labels>
					</labels>
					</clipitem>
					<clipitem frameBlend="FALSE" id="clipitem-379">
					<masterclipid>masterclip-299</masterclipid>
					<name></name>
					<enabled>TRUE</enabled>
					<duration>2582774</duration>
					<rate>
					
					                                    <timebase>60</timebase>
					                                    <ntsc>TRUE</ntsc>
					                                
					</rate>
					<start>2669</start>
					<end>2729</end>
					<in>2669</in>
					<out>2729</out>
					<pproTicksIn>914456774963789</pproTicksIn>
					<pproTicksOut>914677708529577</pproTicksOut>
					<alphatype>straight</alphatype>
					<pixelaspectratio>square</pixelaspectratio>
					<anamorphic>FALSE</anamorphic>
					<file id="file-298">
					<name></name>
					<mediaSource>GraphicAndType</mediaSource>
					<rate>
					<timebase>60</timebase>
					<ntsc>TRUE</ntsc>
					</rate>
					<timecode>
					<rate>
					<timebase>60</timebase>
					<ntsc>TRUE</ntsc>
					</rate>
					<string>00:00:00:00</string>
					<frame>0</frame>
					<displayformat>NDF</displayformat>
					</timecode>
					<media>
					<video>
					<samplecharacteristics>
					<rate>
					<timebase>60</timebase>
					<ntsc>TRUE</ntsc>
					</rate>
					<width>1080</width>
					<height>1920</height>
					<anamorphic>FALSE</anamorphic>
					<pixelaspectratio>square</pixelaspectratio>
					<fielddominance>none</fielddominance>
					</samplecharacteristics>
					</video>
					</media>
					</file>
					<filter>
					<effect>
					<name></name>
					<effectid>GraphicAndType</effectid>
					<effectcategory>graphic</effectcategory>
					<effecttype>filter</effecttype>
					<mediatype>video</mediatype>
					<pproBypass>false</pproBypass>
					<parameter authoringApp="PremierePro">
					<parameterid>1</parameterid>
					<name></name>
					<hash>025b1101-ead6-0ca2-1feb-caf3000001fc</hash>
					<value>5AEAAAAAAABEMyIRDAAAAAAABgAKAAQABgAAAGQAAAAAAF4ASAAQAAwARABAADwAOAAAAAAAAAAAADQAMwAsAAAAKAAkACAAAAAAAAAAAAAAAAAAHAAAAAAAGgAAAAAAAAAUAAAAAAAAAAAAAAAAAAAAAAAAAAgAAAAAABsABwBeAAAAAAAAAUAAAABQAAAAbAAAAAIAAAAAAAEAAQAAAAAAQEEAAMBAAABAQAAAyEIAAAABIAAAAAIAAAACAAAAAAA2QwCASkTw/v//9P7///j+//8S////AAAAAAEAAAAEAAAAEQAAAEhHUFNvZWlLYWt1cG9wdGFpAAAAAQAAAAwAAAAIAAwABAAIAAgAAAAIAAAAUAAAAA8AAADvvIEAAAAAAAAAAAAAAAAAAAA2ACQAAAAgABwAAAAAABsAFAAAAAAAAAAAAAAAAAAAAAAAAAAAABAAAAAAAAAADAAAAAgABAA2AAAAAgAAABwAAAAcAAAAHAAAAAAAIEEAAAABaAAAAE3PAEOw////tP///wEAAAAUAAAAEAAaAAgABwAMAAAAEAAUABAAAAAAAAABHAAAAAAAoEEcAAAAAgAAAAAACgAIAAUABgAHAAoAAAAADAD//P///wQABAAEAAAACAAIAAYABwAIAAAAAAAMAA==</value>
					</parameter>
					<parameter authoringApp="PremierePro">
					<parameterid>2</parameterid>
					<name></name>
					<IsTimeVarying>false</IsTimeVarying>
					<ParameterControlType>11</ParameterControlType>
					<LowerBound>false</LowerBound>
					<UpperBound>false</UpperBound>
					<value>-91445760000000000,false,0,0,0,0,0,0</value>
					</parameter>
					<parameter authoringApp="PremierePro">
					<parameterid>3</parameterid>
					<name></name>
					<IsTimeVarying>false</IsTimeVarying>
					<value>-91445760000000000,0.5:0.5,0,0,0,0,0,0,5,4,0,0,0,0</value>
					</parameter>
					<parameter authoringApp="PremierePro">
					<parameterid>4</parameterid>
					<name></name>
					<IsTimeVarying>false</IsTimeVarying>
					<ParameterControlType>2</ParameterControlType>
					<LowerBound>0</LowerBound>
					<UpperBound>4000</UpperBound>
					<value>-91445760000000000,100.,0,0,0,0,0,0</value>
					</parameter>
					<parameter authoringApp="PremierePro">
					<parameterid>8</parameterid>
					<name></name>
					<IsTimeVarying>false</IsTimeVarying>
					<ParameterControlType>2</ParameterControlType>
					<LowerBound>0</LowerBound>
					<UpperBound>100</UpperBound>
					<value>-91445760000000000,100.,0,0,0,0,0,0</value>
					</parameter>
					</effect>
					</filter>
					<logginginfo>
					<description></description>
					<scene></scene>
					<shottake></shottake>
					<lognote></lognote>
					<good></good>
					<originalvideofilename></originalvideofilename>
					<originalaudiofilename></originalaudiofilename>
					</logginginfo>
					<colorinfo>
					<lut></lut>
					<lut1></lut1>
					<asc_sop></asc_sop>
					<asc_sat></asc_sat>
					<lut2></lut2>
					</colorinfo>
					<labels>
					</labels>
					</clipitem>
					<clipitem frameBlend="FALSE" id="clipitem-385">
					<masterclipid>masterclip-305</masterclipid>
					<name></name>
					<enabled>TRUE</enabled>
					<duration>2582774</duration>
					<rate>
					
					                                    <timebase>60</timebase>
					                                    <ntsc>TRUE</ntsc>
					                                
					</rate>
					<start>2729</start>
					<end>2789</end>
					<in>2729</in>
					<out>2789</out>
					<pproTicksIn>914456774963789</pproTicksIn>
					<pproTicksOut>914677708529577</pproTicksOut>
					<alphatype>straight</alphatype>
					<pixelaspectratio>square</pixelaspectratio>
					<anamorphic>FALSE</anamorphic>
					<file id="file-304">
					<name></name>
					<mediaSource>GraphicAndType</mediaSource>
					<rate>
					<timebase>60</timebase>
					<ntsc>TRUE</ntsc>
					</rate>
					<timecode>
					<rate>
					<timebase>60</timebase>
					<ntsc>TRUE</ntsc>
					</rate>
					<string>00:00:00:00</string>
					<frame>0</frame>
					<displayformat>NDF</displayformat>
					</timecode>
					<media>
					<video>
					<samplecharacteristics>
					<rate>
					<timebase>60</timebase>
					<ntsc>TRUE</ntsc>
					</rate>
					<width>1080</width>
					<height>1920</height>
					<anamorphic>FALSE</anamorphic>
					<pixelaspectratio>square</pixelaspectratio>
					<fielddominance>none</fielddominance>
					</samplecharacteristics>
					</video>
					</media>
					</file>
					<filter>
					<effect>
					<name></name>
					<effectid>GraphicAndType</effectid>
					<effectcategory>graphic</effectcategory>
					<effecttype>filter</effecttype>
					<mediatype>video</mediatype>
					<pproBypass>false</pproBypass>
					<parameter authoringApp="PremierePro">
					<parameterid>1</parameterid>
					<name></name>
					<hash>025b1101-ead6-0ca2-1feb-caf3000001fc</hash>
					<value>5AEAAAAAAABEMyIRDAAAAAAABgAKAAQABgAAAGQAAAAAAF4ASAAQAAwARABAADwAOAAAAAAAAAAAADQAMwAsAAAAKAAkACAAAAAAAAAAAAAAAAAAHAAAAAAAGgAAAAAAAAAUAAAAAAAAAAAAAAAAAAAAAAAAAAgAAAAAABsABwBeAAAAAAAAAUAAAABQAAAAbAAAAAIAAAAAAAEAAQAAAAAAQEEAAMBAAABAQAAAyEIAAAABIAAAAAIAAAACAAAAAAA2QwCASkTw/v//9P7///j+//8S////AAAAAAEAAAAEAAAAEQAAAEhHUFNvZWlLYWt1cG9wdGFpAAAAAQAAAAwAAAAIAAwABAAIAAgAAAAIAAAAUAAAAA8AAADvvIEAAAAAAAAAAAAAAAAAAAA2ACQAAAAgABwAAAAAABsAFAAAAAAAAAAAAAAAAAAAAAAAAAAAABAAAAAAAAAADAAAAAgABAA2AAAAAgAAABwAAAAcAAAAHAAAAAAAIEEAAAABaAAAAE3PAEOw////tP///wEAAAAUAAAAEAAaAAgABwAMAAAAEAAUABAAAAAAAAABHAAAAAAAoEEcAAAAAgAAAAAACgAIAAUABgAHAAoAAAAADAD//P///wQABAAEAAAACAAIAAYABwAIAAAAAAAMAA==</value>
					</parameter>
					<parameter authoringApp="PremierePro">
					<parameterid>2</parameterid>
					<name></name>
					<IsTimeVarying>false</IsTimeVarying>
					<ParameterControlType>11</ParameterControlType>
					<LowerBound>false</LowerBound>
					<UpperBound>false</UpperBound>
					<value>-91445760000000000,false,0,0,0,0,0,0</value>
					</parameter>
					<parameter authoringApp="PremierePro">
					<parameterid>3</parameterid>
					<name></name>
					<IsTimeVarying>false</IsTimeVarying>
					<value>-91445760000000000,0.5:0.5,0,0,0,0,0,0,5,4,0,0,0,0</value>
					</parameter>
					<parameter authoringApp="PremierePro">
					<parameterid>4</parameterid>
					<name></name>
					<IsTimeVarying>false</IsTimeVarying>
					<ParameterControlType>2</ParameterControlType>
					<LowerBound>0</LowerBound>
					<UpperBound>4000</UpperBound>
					<value>-91445760000000000,100.,0,0,0,0,0,0</value>
					</parameter>
					<parameter authoringApp="PremierePro">
					<parameterid>8</parameterid>
					<name></name>
					<IsTimeVarying>false</IsTimeVarying>
					<ParameterControlType>2</ParameterControlType>
					<LowerBound>0</LowerBound>
					<UpperBound>100</UpperBound>
					<value>-91445760000000000,100.,0,0,0,0,0,0</value>
					</parameter>
					</effect>
					</filter>
					<logginginfo>
					<description></description>
					<scene></scene>
					<shottake></shottake>
					<lognote></lognote>
					<good></good>
					<originalvideofilename></originalvideofilename>
					<originalaudiofilename></originalaudiofilename>
					</logginginfo>
					<colorinfo>
					<lut></lut>
					<lut1></lut1>
					<asc_sop></asc_sop>
					<asc_sat></asc_sat>
					<lut2></lut2>
					</colorinfo>
					<labels>
					</labels>
					</clipitem>
					<clipitem frameBlend="FALSE" id="clipitem-394">
					<masterclipid>masterclip-314</masterclipid>
					<name></name>
					<enabled>TRUE</enabled>
					<duration>2582774</duration>
					<rate>
					
					                                    <timebase>60</timebase>
					                                    <ntsc>TRUE</ntsc>
					                                
					</rate>
					<start>2795</start>
					<end>2855</end>
					<in>2795</in>
					<out>2855</out>
					<pproTicksIn>914456774963789</pproTicksIn>
					<pproTicksOut>914677708529577</pproTicksOut>
					<alphatype>straight</alphatype>
					<pixelaspectratio>square</pixelaspectratio>
					<anamorphic>FALSE</anamorphic>
					<file id="file-313">
					<name></name>
					<mediaSource>GraphicAndType</mediaSource>
					<rate>
					<timebase>60</timebase>
					<ntsc>TRUE</ntsc>
					</rate>
					<timecode>
					<rate>
					<timebase>60</timebase>
					<ntsc>TRUE</ntsc>
					</rate>
					<string>00:00:00:00</string>
					<frame>0</frame>
					<displayformat>NDF</displayformat>
					</timecode>
					<media>
					<video>
					<samplecharacteristics>
					<rate>
					<timebase>60</timebase>
					<ntsc>TRUE</ntsc>
					</rate>
					<width>1080</width>
					<height>1920</height>
					<anamorphic>FALSE</anamorphic>
					<pixelaspectratio>square</pixelaspectratio>
					<fielddominance>none</fielddominance>
					</samplecharacteristics>
					</video>
					</media>
					</file>
					<filter>
					<effect>
					<name></name>
					<effectid>GraphicAndType</effectid>
					<effectcategory>graphic</effectcategory>
					<effecttype>filter</effecttype>
					<mediatype>video</mediatype>
					<pproBypass>false</pproBypass>
					<parameter authoringApp="PremierePro">
					<parameterid>1</parameterid>
					<name></name>
					<hash>025b1101-ead6-0ca2-1feb-caf3000001fc</hash>
					<value>5AEAAAAAAABEMyIRDAAAAAAABgAKAAQABgAAAGQAAAAAAF4ASAAQAAwARABAADwAOAAAAAAAAAAAADQAMwAsAAAAKAAkACAAAAAAAAAAAAAAAAAAHAAAAAAAGgAAAAAAAAAUAAAAAAAAAAAAAAAAAAAAAAAAAAgAAAAAABsABwBeAAAAAAAAAUAAAABQAAAAbAAAAAIAAAAAAAEAAQAAAAAAQEEAAMBAAABAQAAAyEIAAAABIAAAAAIAAAACAAAAAAA2QwCASkTw/v//9P7///j+//8S////AAAAAAEAAAAEAAAAEQAAAEhHUFNvZWlLYWt1cG9wdGFpAAAAAQAAAAwAAAAIAAwABAAIAAgAAAAIAAAAUAAAAA8AAADvvIEAAAAAAAAAAAAAAAAAAAA2ACQAAAAgABwAAAAAABsAFAAAAAAAAAAAAAAAAAAAAAAAAAAAABAAAAAAAAAADAAAAAgABAA2AAAAAgAAABwAAAAcAAAAHAAAAAAAIEEAAAABaAAAAE3PAEOw////tP///wEAAAAUAAAAEAAaAAgABwAMAAAAEAAUABAAAAAAAAABHAAAAAAAoEEcAAAAAgAAAAAACgAIAAUABgAHAAoAAAAADAD//P///wQABAAEAAAACAAIAAYABwAIAAAAAAAMAA==</value>
					</parameter>
					<parameter authoringApp="PremierePro">
					<parameterid>2</parameterid>
					<name></name>
					<IsTimeVarying>false</IsTimeVarying>
					<ParameterControlType>11</ParameterControlType>
					<LowerBound>false</LowerBound>
					<UpperBound>false</UpperBound>
					<value>-91445760000000000,false,0,0,0,0,0,0</value>
					</parameter>
					<parameter authoringApp="PremierePro">
					<parameterid>3</parameterid>
					<name></name>
					<IsTimeVarying>false</IsTimeVarying>
					<value>-91445760000000000,0.5:0.5,0,0,0,0,0,0,5,4,0,0,0,0</value>
					</parameter>
					<parameter authoringApp="PremierePro">
					<parameterid>4</parameterid>
					<name></name>
					<IsTimeVarying>false</IsTimeVarying>
					<ParameterControlType>2</ParameterControlType>
					<LowerBound>0</LowerBound>
					<UpperBound>4000</UpperBound>
					<value>-91445760000000000,100.,0,0,0,0,0,0</value>
					</parameter>
					<parameter authoringApp="PremierePro">
					<parameterid>8</parameterid>
					<name></name>
					<IsTimeVarying>false</IsTimeVarying>
					<ParameterControlType>2</ParameterControlType>
					<LowerBound>0</LowerBound>
					<UpperBound>100</UpperBound>
					<value>-91445760000000000,100.,0,0,0,0,0,0</value>
					</parameter>
					</effect>
					</filter>
					<logginginfo>
					<description></description>
					<scene></scene>
					<shottake></shottake>
					<lognote></lognote>
					<good></good>
					<originalvideofilename></originalvideofilename>
					<originalaudiofilename></originalaudiofilename>
					</logginginfo>
					<colorinfo>
					<lut></lut>
					<lut1></lut1>
					<asc_sop></asc_sop>
					<asc_sat></asc_sat>
					<lut2></lut2>
					</colorinfo>
					<labels>
					</labels>
					</clipitem>
					<clipitem frameBlend="FALSE" id="clipitem-402">
					<masterclipid>masterclip-322</masterclipid>
					<name></name>
					<enabled>TRUE</enabled>
					<duration>2582774</duration>
					<rate>
					
					                                    <timebase>60</timebase>
					                                    <ntsc>TRUE</ntsc>
					                                
					</rate>
					<start>2867</start>
					<end>2927</end>
					<in>2867</in>
					<out>2927</out>
					<pproTicksIn>914456774963789</pproTicksIn>
					<pproTicksOut>914677708529577</pproTicksOut>
					<alphatype>straight</alphatype>
					<pixelaspectratio>square</pixelaspectratio>
					<anamorphic>FALSE</anamorphic>
					<file id="file-321">
					<name></name>
					<mediaSource>GraphicAndType</mediaSource>
					<rate>
					<timebase>60</timebase>
					<ntsc>TRUE</ntsc>
					</rate>
					<timecode>
					<rate>
					<timebase>60</timebase>
					<ntsc>TRUE</ntsc>
					</rate>
					<string>00:00:00:00</string>
					<frame>0</frame>
					<displayformat>NDF</displayformat>
					</timecode>
					<media>
					<video>
					<samplecharacteristics>
					<rate>
					<timebase>60</timebase>
					<ntsc>TRUE</ntsc>
					</rate>
					<width>1080</width>
					<height>1920</height>
					<anamorphic>FALSE</anamorphic>
					<pixelaspectratio>square</pixelaspectratio>
					<fielddominance>none</fielddominance>
					</samplecharacteristics>
					</video>
					</media>
					</file>
					<filter>
					<effect>
					<name></name>
					<effectid>GraphicAndType</effectid>
					<effectcategory>graphic</effectcategory>
					<effecttype>filter</effecttype>
					<mediatype>video</mediatype>
					<pproBypass>false</pproBypass>
					<parameter authoringApp="PremierePro">
					<parameterid>1</parameterid>
					<name></name>
					<hash>025b1101-ead6-0ca2-1feb-caf3000001fc</hash>
					<value>5AEAAAAAAABEMyIRDAAAAAAABgAKAAQABgAAAGQAAAAAAF4ASAAQAAwARABAADwAOAAAAAAAAAAAADQAMwAsAAAAKAAkACAAAAAAAAAAAAAAAAAAHAAAAAAAGgAAAAAAAAAUAAAAAAAAAAAAAAAAAAAAAAAAAAgAAAAAABsABwBeAAAAAAAAAUAAAABQAAAAbAAAAAIAAAAAAAEAAQAAAAAAQEEAAMBAAABAQAAAyEIAAAABIAAAAAIAAAACAAAAAAA2QwCASkTw/v//9P7///j+//8S////AAAAAAEAAAAEAAAAEQAAAEhHUFNvZWlLYWt1cG9wdGFpAAAAAQAAAAwAAAAIAAwABAAIAAgAAAAIAAAAUAAAAA8AAADvvIEAAAAAAAAAAAAAAAAAAAA2ACQAAAAgABwAAAAAABsAFAAAAAAAAAAAAAAAAAAAAAAAAAAAABAAAAAAAAAADAAAAAgABAA2AAAAAgAAABwAAAAcAAAAHAAAAAAAIEEAAAABaAAAAE3PAEOw////tP///wEAAAAUAAAAEAAaAAgABwAMAAAAEAAUABAAAAAAAAABHAAAAAAAoEEcAAAAAgAAAAAACgAIAAUABgAHAAoAAAAADAD//P///wQABAAEAAAACAAIAAYABwAIAAAAAAAMAA==</value>
					</parameter>
					<parameter authoringApp="PremierePro">
					<parameterid>2</parameterid>
					<name></name>
					<IsTimeVarying>false</IsTimeVarying>
					<ParameterControlType>11</ParameterControlType>
					<LowerBound>false</LowerBound>
					<UpperBound>false</UpperBound>
					<value>-91445760000000000,false,0,0,0,0,0,0</value>
					</parameter>
					<parameter authoringApp="PremierePro">
					<parameterid>3</parameterid>
					<name></name>
					<IsTimeVarying>false</IsTimeVarying>
					<value>-91445760000000000,0.5:0.5,0,0,0,0,0,0,5,4,0,0,0,0</value>
					</parameter>
					<parameter authoringApp="PremierePro">
					<parameterid>4</parameterid>
					<name></name>
					<IsTimeVarying>false</IsTimeVarying>
					<ParameterControlType>2</ParameterControlType>
					<LowerBound>0</LowerBound>
					<UpperBound>4000</UpperBound>
					<value>-91445760000000000,100.,0,0,0,0,0,0</value>
					</parameter>
					<parameter authoringApp="PremierePro">
					<parameterid>8</parameterid>
					<name></name>
					<IsTimeVarying>false</IsTimeVarying>
					<ParameterControlType>2</ParameterControlType>
					<LowerBound>0</LowerBound>
					<UpperBound>100</UpperBound>
					<value>-91445760000000000,100.,0,0,0,0,0,0</value>
					</parameter>
					</effect>
					</filter>
					<logginginfo>
					<description></description>
					<scene></scene>
					<shottake></shottake>
					<lognote></lognote>
					<good></good>
					<originalvideofilename></originalvideofilename>
					<originalaudiofilename></originalaudiofilename>
					</logginginfo>
					<colorinfo>
					<lut></lut>
					<lut1></lut1>
					<asc_sop></asc_sop>
					<asc_sat></asc_sat>
					<lut2></lut2>
					</colorinfo>
					<labels>
					</labels>
					</clipitem>
					<clipitem frameBlend="FALSE" id="clipitem-407">
					<masterclipid>masterclip-327</masterclipid>
					<name></name>
					<enabled>TRUE</enabled>
					<duration>2582774</duration>
					<rate>
					
					                                    <timebase>60</timebase>
					                                    <ntsc>TRUE</ntsc>
					                                
					</rate>
					<start>2939</start>
					<end>2999</end>
					<in>2939</in>
					<out>2999</out>
					<pproTicksIn>914456774963789</pproTicksIn>
					<pproTicksOut>914677708529577</pproTicksOut>
					<alphatype>straight</alphatype>
					<pixelaspectratio>square</pixelaspectratio>
					<anamorphic>FALSE</anamorphic>
					<file id="file-326">
					<name></name>
					<mediaSource>GraphicAndType</mediaSource>
					<rate>
					<timebase>60</timebase>
					<ntsc>TRUE</ntsc>
					</rate>
					<timecode>
					<rate>
					<timebase>60</timebase>
					<ntsc>TRUE</ntsc>
					</rate>
					<string>00:00:00:00</string>
					<frame>0</frame>
					<displayformat>NDF</displayformat>
					</timecode>
					<media>
					<video>
					<samplecharacteristics>
					<rate>
					<timebase>60</timebase>
					<ntsc>TRUE</ntsc>
					</rate>
					<width>1080</width>
					<height>1920</height>
					<anamorphic>FALSE</anamorphic>
					<pixelaspectratio>square</pixelaspectratio>
					<fielddominance>none</fielddominance>
					</samplecharacteristics>
					</video>
					</media>
					</file>
					<filter>
					<effect>
					<name></name>
					<effectid>GraphicAndType</effectid>
					<effectcategory>graphic</effectcategory>
					<effecttype>filter</effecttype>
					<mediatype>video</mediatype>
					<pproBypass>false</pproBypass>
					<parameter authoringApp="PremierePro">
					<parameterid>1</parameterid>
					<name></name>
					<hash>025b1101-ead6-0ca2-1feb-caf3000001fc</hash>
					<value>5AEAAAAAAABEMyIRDAAAAAAABgAKAAQABgAAAGQAAAAAAF4ASAAQAAwARABAADwAOAAAAAAAAAAAADQAMwAsAAAAKAAkACAAAAAAAAAAAAAAAAAAHAAAAAAAGgAAAAAAAAAUAAAAAAAAAAAAAAAAAAAAAAAAAAgAAAAAABsABwBeAAAAAAAAAUAAAABQAAAAbAAAAAIAAAAAAAEAAQAAAAAAQEEAAMBAAABAQAAAyEIAAAABIAAAAAIAAAACAAAAAAA2QwCASkTw/v//9P7///j+//8S////AAAAAAEAAAAEAAAAEQAAAEhHUFNvZWlLYWt1cG9wdGFpAAAAAQAAAAwAAAAIAAwABAAIAAgAAAAIAAAAUAAAAA8AAADvvIEAAAAAAAAAAAAAAAAAAAA2ACQAAAAgABwAAAAAABsAFAAAAAAAAAAAAAAAAAAAAAAAAAAAABAAAAAAAAAADAAAAAgABAA2AAAAAgAAABwAAAAcAAAAHAAAAAAAIEEAAAABaAAAAE3PAEOw////tP///wEAAAAUAAAAEAAaAAgABwAMAAAAEAAUABAAAAAAAAABHAAAAAAAoEEcAAAAAgAAAAAACgAIAAUABgAHAAoAAAAADAD//P///wQABAAEAAAACAAIAAYABwAIAAAAAAAMAA==</value>
					</parameter>
					<parameter authoringApp="PremierePro">
					<parameterid>2</parameterid>
					<name></name>
					<IsTimeVarying>false</IsTimeVarying>
					<ParameterControlType>11</ParameterControlType>
					<LowerBound>false</LowerBound>
					<UpperBound>false</UpperBound>
					<value>-91445760000000000,false,0,0,0,0,0,0</value>
					</parameter>
					<parameter authoringApp="PremierePro">
					<parameterid>3</parameterid>
					<name></name>
					<IsTimeVarying>false</IsTimeVarying>
					<value>-91445760000000000,0.5:0.5,0,0,0,0,0,0,5,4,0,0,0,0</value>
					</parameter>
					<parameter authoringApp="PremierePro">
					<parameterid>4</parameterid>
					<name></name>
					<IsTimeVarying>false</IsTimeVarying>
					<ParameterControlType>2</ParameterControlType>
					<LowerBound>0</LowerBound>
					<UpperBound>4000</UpperBound>
					<value>-91445760000000000,100.,0,0,0,0,0,0</value>
					</parameter>
					<parameter authoringApp="PremierePro">
					<parameterid>8</parameterid>
					<name></name>
					<IsTimeVarying>false</IsTimeVarying>
					<ParameterControlType>2</ParameterControlType>
					<LowerBound>0</LowerBound>
					<UpperBound>100</UpperBound>
					<value>-91445760000000000,100.,0,0,0,0,0,0</value>
					</parameter>
					</effect>
					</filter>
					<logginginfo>
					<description></description>
					<scene></scene>
					<shottake></shottake>
					<lognote></lognote>
					<good></good>
					<originalvideofilename></originalvideofilename>
					<originalaudiofilename></originalaudiofilename>
					</logginginfo>
					<colorinfo>
					<lut></lut>
					<lut1></lut1>
					<asc_sop></asc_sop>
					<asc_sat></asc_sat>
					<lut2></lut2>
					</colorinfo>
					<labels>
					</labels>
					</clipitem>
					<clipitem frameBlend="FALSE" id="clipitem-412">
					<masterclipid>masterclip-332</masterclipid>
					<name></name>
					<enabled>TRUE</enabled>
					<duration>2582774</duration>
					<rate>
					
					                                    <timebase>60</timebase>
					                                    <ntsc>TRUE</ntsc>
					                                
					</rate>
					<start>2999</start>
					<end>3059</end>
					<in>2999</in>
					<out>3059</out>
					<pproTicksIn>914456774963789</pproTicksIn>
					<pproTicksOut>914677708529577</pproTicksOut>
					<alphatype>straight</alphatype>
					<pixelaspectratio>square</pixelaspectratio>
					<anamorphic>FALSE</anamorphic>
					<file id="file-331">
					<name></name>
					<mediaSource>GraphicAndType</mediaSource>
					<rate>
					<timebase>60</timebase>
					<ntsc>TRUE</ntsc>
					</rate>
					<timecode>
					<rate>
					<timebase>60</timebase>
					<ntsc>TRUE</ntsc>
					</rate>
					<string>00:00:00:00</string>
					<frame>0</frame>
					<displayformat>NDF</displayformat>
					</timecode>
					<media>
					<video>
					<samplecharacteristics>
					<rate>
					<timebase>60</timebase>
					<ntsc>TRUE</ntsc>
					</rate>
					<width>1080</width>
					<height>1920</height>
					<anamorphic>FALSE</anamorphic>
					<pixelaspectratio>square</pixelaspectratio>
					<fielddominance>none</fielddominance>
					</samplecharacteristics>
					</video>
					</media>
					</file>
					<filter>
					<effect>
					<name></name>
					<effectid>GraphicAndType</effectid>
					<effectcategory>graphic</effectcategory>
					<effecttype>filter</effecttype>
					<mediatype>video</mediatype>
					<pproBypass>false</pproBypass>
					<parameter authoringApp="PremierePro">
					<parameterid>1</parameterid>
					<name></name>
					<hash>025b1101-ead6-0ca2-1feb-caf3000001fc</hash>
					<value>5AEAAAAAAABEMyIRDAAAAAAABgAKAAQABgAAAGQAAAAAAF4ASAAQAAwARABAADwAOAAAAAAAAAAAADQAMwAsAAAAKAAkACAAAAAAAAAAAAAAAAAAHAAAAAAAGgAAAAAAAAAUAAAAAAAAAAAAAAAAAAAAAAAAAAgAAAAAABsABwBeAAAAAAAAAUAAAABQAAAAbAAAAAIAAAAAAAEAAQAAAAAAQEEAAMBAAABAQAAAyEIAAAABIAAAAAIAAAACAAAAAAA2QwCASkTw/v//9P7///j+//8S////AAAAAAEAAAAEAAAAEQAAAEhHUFNvZWlLYWt1cG9wdGFpAAAAAQAAAAwAAAAIAAwABAAIAAgAAAAIAAAAUAAAAA8AAADvvIEAAAAAAAAAAAAAAAAAAAA2ACQAAAAgABwAAAAAABsAFAAAAAAAAAAAAAAAAAAAAAAAAAAAABAAAAAAAAAADAAAAAgABAA2AAAAAgAAABwAAAAcAAAAHAAAAAAAIEEAAAABaAAAAE3PAEOw////tP///wEAAAAUAAAAEAAaAAgABwAMAAAAEAAUABAAAAAAAAABHAAAAAAAoEEcAAAAAgAAAAAACgAIAAUABgAHAAoAAAAADAD//P///wQABAAEAAAACAAIAAYABwAIAAAAAAAMAA==</value>
					</parameter>
					<parameter authoringApp="PremierePro">
					<parameterid>2</parameterid>
					<name></name>
					<IsTimeVarying>false</IsTimeVarying>
					<ParameterControlType>11</ParameterControlType>
					<LowerBound>false</LowerBound>
					<UpperBound>false</UpperBound>
					<value>-91445760000000000,false,0,0,0,0,0,0</value>
					</parameter>
					<parameter authoringApp="PremierePro">
					<parameterid>3</parameterid>
					<name></name>
					<IsTimeVarying>false</IsTimeVarying>
					<value>-91445760000000000,0.5:0.5,0,0,0,0,0,0,5,4,0,0,0,0</value>
					</parameter>
					<parameter authoringApp="PremierePro">
					<parameterid>4</parameterid>
					<name></name>
					<IsTimeVarying>false</IsTimeVarying>
					<ParameterControlType>2</ParameterControlType>
					<LowerBound>0</LowerBound>
					<UpperBound>4000</UpperBound>
					<value>-91445760000000000,100.,0,0,0,0,0,0</value>
					</parameter>
					<parameter authoringApp="PremierePro">
					<parameterid>8</parameterid>
					<name></name>
					<IsTimeVarying>false</IsTimeVarying>
					<ParameterControlType>2</ParameterControlType>
					<LowerBound>0</LowerBound>
					<UpperBound>100</UpperBound>
					<value>-91445760000000000,100.,0,0,0,0,0,0</value>
					</parameter>
					</effect>
					</filter>
					<logginginfo>
					<description></description>
					<scene></scene>
					<shottake></shottake>
					<lognote></lognote>
					<good></good>
					<originalvideofilename></originalvideofilename>
					<originalaudiofilename></originalaudiofilename>
					</logginginfo>
					<colorinfo>
					<lut></lut>
					<lut1></lut1>
					<asc_sop></asc_sop>
					<asc_sat></asc_sat>
					<lut2></lut2>
					</colorinfo>
					<labels>
					</labels>
					</clipitem>
					<clipitem frameBlend="FALSE" id="clipitem-420">
					<masterclipid>masterclip-340</masterclipid>
					<name></name>
					<enabled>TRUE</enabled>
					<duration>2582774</duration>
					<rate>
					
					                                    <timebase>60</timebase>
					                                    <ntsc>TRUE</ntsc>
					                                
					</rate>
					<start>3059</start>
					<end>3119</end>
					<in>3059</in>
					<out>3119</out>
					<pproTicksIn>914456774963789</pproTicksIn>
					<pproTicksOut>914677708529577</pproTicksOut>
					<alphatype>straight</alphatype>
					<pixelaspectratio>square</pixelaspectratio>
					<anamorphic>FALSE</anamorphic>
					<file id="file-339">
					<name></name>
					<mediaSource>GraphicAndType</mediaSource>
					<rate>
					<timebase>60</timebase>
					<ntsc>TRUE</ntsc>
					</rate>
					<timecode>
					<rate>
					<timebase>60</timebase>
					<ntsc>TRUE</ntsc>
					</rate>
					<string>00:00:00:00</string>
					<frame>0</frame>
					<displayformat>NDF</displayformat>
					</timecode>
					<media>
					<video>
					<samplecharacteristics>
					<rate>
					<timebase>60</timebase>
					<ntsc>TRUE</ntsc>
					</rate>
					<width>1080</width>
					<height>1920</height>
					<anamorphic>FALSE</anamorphic>
					<pixelaspectratio>square</pixelaspectratio>
					<fielddominance>none</fielddominance>
					</samplecharacteristics>
					</video>
					</media>
					</file>
					<filter>
					<effect>
					<name></name>
					<effectid>GraphicAndType</effectid>
					<effectcategory>graphic</effectcategory>
					<effecttype>filter</effecttype>
					<mediatype>video</mediatype>
					<pproBypass>false</pproBypass>
					<parameter authoringApp="PremierePro">
					<parameterid>1</parameterid>
					<name></name>
					<hash>025b1101-ead6-0ca2-1feb-caf3000001fc</hash>
					<value>5AEAAAAAAABEMyIRDAAAAAAABgAKAAQABgAAAGQAAAAAAF4ASAAQAAwARABAADwAOAAAAAAAAAAAADQAMwAsAAAAKAAkACAAAAAAAAAAAAAAAAAAHAAAAAAAGgAAAAAAAAAUAAAAAAAAAAAAAAAAAAAAAAAAAAgAAAAAABsABwBeAAAAAAAAAUAAAABQAAAAbAAAAAIAAAAAAAEAAQAAAAAAQEEAAMBAAABAQAAAyEIAAAABIAAAAAIAAAACAAAAAAA2QwCASkTw/v//9P7///j+//8S////AAAAAAEAAAAEAAAAEQAAAEhHUFNvZWlLYWt1cG9wdGFpAAAAAQAAAAwAAAAIAAwABAAIAAgAAAAIAAAAUAAAAA8AAADvvIEAAAAAAAAAAAAAAAAAAAA2ACQAAAAgABwAAAAAABsAFAAAAAAAAAAAAAAAAAAAAAAAAAAAABAAAAAAAAAADAAAAAgABAA2AAAAAgAAABwAAAAcAAAAHAAAAAAAIEEAAAABaAAAAE3PAEOw////tP///wEAAAAUAAAAEAAaAAgABwAMAAAAEAAUABAAAAAAAAABHAAAAAAAoEEcAAAAAgAAAAAACgAIAAUABgAHAAoAAAAADAD//P///wQABAAEAAAACAAIAAYABwAIAAAAAAAMAA==</value>
					</parameter>
					<parameter authoringApp="PremierePro">
					<parameterid>2</parameterid>
					<name></name>
					<IsTimeVarying>false</IsTimeVarying>
					<ParameterControlType>11</ParameterControlType>
					<LowerBound>false</LowerBound>
					<UpperBound>false</UpperBound>
					<value>-91445760000000000,false,0,0,0,0,0,0</value>
					</parameter>
					<parameter authoringApp="PremierePro">
					<parameterid>3</parameterid>
					<name></name>
					<IsTimeVarying>false</IsTimeVarying>
					<value>-91445760000000000,0.5:0.5,0,0,0,0,0,0,5,4,0,0,0,0</value>
					</parameter>
					<parameter authoringApp="PremierePro">
					<parameterid>4</parameterid>
					<name></name>
					<IsTimeVarying>false</IsTimeVarying>
					<ParameterControlType>2</ParameterControlType>
					<LowerBound>0</LowerBound>
					<UpperBound>4000</UpperBound>
					<value>-91445760000000000,100.,0,0,0,0,0,0</value>
					</parameter>
					<parameter authoringApp="PremierePro">
					<parameterid>8</parameterid>
					<name></name>
					<IsTimeVarying>false</IsTimeVarying>
					<ParameterControlType>2</ParameterControlType>
					<LowerBound>0</LowerBound>
					<UpperBound>100</UpperBound>
					<value>-91445760000000000,100.,0,0,0,0,0,0</value>
					</parameter>
					</effect>
					</filter>
					<logginginfo>
					<description></description>
					<scene></scene>
					<shottake></shottake>
					<lognote></lognote>
					<good></good>
					<originalvideofilename></originalvideofilename>
					<originalaudiofilename></originalaudiofilename>
					</logginginfo>
					<colorinfo>
					<lut></lut>
					<lut1></lut1>
					<asc_sop></asc_sop>
					<asc_sat></asc_sat>
					<lut2></lut2>
					</colorinfo>
					<labels>
					</labels>
					</clipitem>
					<clipitem frameBlend="FALSE" id="clipitem-423">
					<masterclipid>masterclip-343</masterclipid>
					<name></name>
					<enabled>TRUE</enabled>
					<duration>2582774</duration>
					<rate>
					
					                                    <timebase>60</timebase>
					                                    <ntsc>TRUE</ntsc>
					                                
					</rate>
					<start>3119</start>
					<end>3179</end>
					<in>3119</in>
					<out>3179</out>
					<pproTicksIn>914456774963789</pproTicksIn>
					<pproTicksOut>914677708529577</pproTicksOut>
					<alphatype>straight</alphatype>
					<pixelaspectratio>square</pixelaspectratio>
					<anamorphic>FALSE</anamorphic>
					<file id="file-342">
					<name></name>
					<mediaSource>GraphicAndType</mediaSource>
					<rate>
					<timebase>60</timebase>
					<ntsc>TRUE</ntsc>
					</rate>
					<timecode>
					<rate>
					<timebase>60</timebase>
					<ntsc>TRUE</ntsc>
					</rate>
					<string>00:00:00:00</string>
					<frame>0</frame>
					<displayformat>NDF</displayformat>
					</timecode>
					<media>
					<video>
					<samplecharacteristics>
					<rate>
					<timebase>60</timebase>
					<ntsc>TRUE</ntsc>
					</rate>
					<width>1080</width>
					<height>1920</height>
					<anamorphic>FALSE</anamorphic>
					<pixelaspectratio>square</pixelaspectratio>
					<fielddominance>none</fielddominance>
					</samplecharacteristics>
					</video>
					</media>
					</file>
					<filter>
					<effect>
					<name></name>
					<effectid>GraphicAndType</effectid>
					<effectcategory>graphic</effectcategory>
					<effecttype>filter</effecttype>
					<mediatype>video</mediatype>
					<pproBypass>false</pproBypass>
					<parameter authoringApp="PremierePro">
					<parameterid>1</parameterid>
					<name></name>
					<hash>025b1101-ead6-0ca2-1feb-caf3000001fc</hash>
					<value>5AEAAAAAAABEMyIRDAAAAAAABgAKAAQABgAAAGQAAAAAAF4ASAAQAAwARABAADwAOAAAAAAAAAAAADQAMwAsAAAAKAAkACAAAAAAAAAAAAAAAAAAHAAAAAAAGgAAAAAAAAAUAAAAAAAAAAAAAAAAAAAAAAAAAAgAAAAAABsABwBeAAAAAAAAAUAAAABQAAAAbAAAAAIAAAAAAAEAAQAAAAAAQEEAAMBAAABAQAAAyEIAAAABIAAAAAIAAAACAAAAAAA2QwCASkTw/v//9P7///j+//8S////AAAAAAEAAAAEAAAAEQAAAEhHUFNvZWlLYWt1cG9wdGFpAAAAAQAAAAwAAAAIAAwABAAIAAgAAAAIAAAAUAAAAA8AAADvvIEAAAAAAAAAAAAAAAAAAAA2ACQAAAAgABwAAAAAABsAFAAAAAAAAAAAAAAAAAAAAAAAAAAAABAAAAAAAAAADAAAAAgABAA2AAAAAgAAABwAAAAcAAAAHAAAAAAAIEEAAAABaAAAAE3PAEOw////tP///wEAAAAUAAAAEAAaAAgABwAMAAAAEAAUABAAAAAAAAABHAAAAAAAoEEcAAAAAgAAAAAACgAIAAUABgAHAAoAAAAADAD//P///wQABAAEAAAACAAIAAYABwAIAAAAAAAMAA==</value>
					</parameter>
					<parameter authoringApp="PremierePro">
					<parameterid>2</parameterid>
					<name></name>
					<IsTimeVarying>false</IsTimeVarying>
					<ParameterControlType>11</ParameterControlType>
					<LowerBound>false</LowerBound>
					<UpperBound>false</UpperBound>
					<value>-91445760000000000,false,0,0,0,0,0,0</value>
					</parameter>
					<parameter authoringApp="PremierePro">
					<parameterid>3</parameterid>
					<name></name>
					<IsTimeVarying>false</IsTimeVarying>
					<value>-91445760000000000,0.5:0.5,0,0,0,0,0,0,5,4,0,0,0,0</value>
					</parameter>
					<parameter authoringApp="PremierePro">
					<parameterid>4</parameterid>
					<name></name>
					<IsTimeVarying>false</IsTimeVarying>
					<ParameterControlType>2</ParameterControlType>
					<LowerBound>0</LowerBound>
					<UpperBound>4000</UpperBound>
					<value>-91445760000000000,100.,0,0,0,0,0,0</value>
					</parameter>
					<parameter authoringApp="PremierePro">
					<parameterid>8</parameterid>
					<name></name>
					<IsTimeVarying>false</IsTimeVarying>
					<ParameterControlType>2</ParameterControlType>
					<LowerBound>0</LowerBound>
					<UpperBound>100</UpperBound>
					<value>-91445760000000000,100.,0,0,0,0,0,0</value>
					</parameter>
					</effect>
					</filter>
					<logginginfo>
					<description></description>
					<scene></scene>
					<shottake></shottake>
					<lognote></lognote>
					<good></good>
					<originalvideofilename></originalvideofilename>
					<originalaudiofilename></originalaudiofilename>
					</logginginfo>
					<colorinfo>
					<lut></lut>
					<lut1></lut1>
					<asc_sop></asc_sop>
					<asc_sat></asc_sat>
					<lut2></lut2>
					</colorinfo>
					<labels>
					</labels>
					</clipitem>
					<clipitem frameBlend="FALSE" id="clipitem-431">
					<masterclipid>masterclip-351</masterclipid>
					<name></name>
					<enabled>TRUE</enabled>
					<duration>2582774</duration>
					<rate>
					
					                                    <timebase>60</timebase>
					                                    <ntsc>TRUE</ntsc>
					                                
					</rate>
					<start>3185</start>
					<end>3251</end>
					<in>3185</in>
					<out>3251</out>
					<pproTicksIn>914456774963789</pproTicksIn>
					<pproTicksOut>914677708529577</pproTicksOut>
					<alphatype>straight</alphatype>
					<pixelaspectratio>square</pixelaspectratio>
					<anamorphic>FALSE</anamorphic>
					<file id="file-350">
					<name></name>
					<mediaSource>GraphicAndType</mediaSource>
					<rate>
					<timebase>60</timebase>
					<ntsc>TRUE</ntsc>
					</rate>
					<timecode>
					<rate>
					<timebase>60</timebase>
					<ntsc>TRUE</ntsc>
					</rate>
					<string>00:00:00:00</string>
					<frame>0</frame>
					<displayformat>NDF</displayformat>
					</timecode>
					<media>
					<video>
					<samplecharacteristics>
					<rate>
					<timebase>60</timebase>
					<ntsc>TRUE</ntsc>
					</rate>
					<width>1080</width>
					<height>1920</height>
					<anamorphic>FALSE</anamorphic>
					<pixelaspectratio>square</pixelaspectratio>
					<fielddominance>none</fielddominance>
					</samplecharacteristics>
					</video>
					</media>
					</file>
					<filter>
					<effect>
					<name></name>
					<effectid>GraphicAndType</effectid>
					<effectcategory>graphic</effectcategory>
					<effecttype>filter</effecttype>
					<mediatype>video</mediatype>
					<pproBypass>false</pproBypass>
					<parameter authoringApp="PremierePro">
					<parameterid>1</parameterid>
					<name></name>
					<hash>025b1101-ead6-0ca2-1feb-caf3000001fc</hash>
					<value>5AEAAAAAAABEMyIRDAAAAAAABgAKAAQABgAAAGQAAAAAAF4ASAAQAAwARABAADwAOAAAAAAAAAAAADQAMwAsAAAAKAAkACAAAAAAAAAAAAAAAAAAHAAAAAAAGgAAAAAAAAAUAAAAAAAAAAAAAAAAAAAAAAAAAAgAAAAAABsABwBeAAAAAAAAAUAAAABQAAAAbAAAAAIAAAAAAAEAAQAAAAAAQEEAAMBAAABAQAAAyEIAAAABIAAAAAIAAAACAAAAAAA2QwCASkTw/v//9P7///j+//8S////AAAAAAEAAAAEAAAAEQAAAEhHUFNvZWlLYWt1cG9wdGFpAAAAAQAAAAwAAAAIAAwABAAIAAgAAAAIAAAAUAAAAA8AAADvvIEAAAAAAAAAAAAAAAAAAAA2ACQAAAAgABwAAAAAABsAFAAAAAAAAAAAAAAAAAAAAAAAAAAAABAAAAAAAAAADAAAAAgABAA2AAAAAgAAABwAAAAcAAAAHAAAAAAAIEEAAAABaAAAAE3PAEOw////tP///wEAAAAUAAAAEAAaAAgABwAMAAAAEAAUABAAAAAAAAABHAAAAAAAoEEcAAAAAgAAAAAACgAIAAUABgAHAAoAAAAADAD//P///wQABAAEAAAACAAIAAYABwAIAAAAAAAMAA==</value>
					</parameter>
					<parameter authoringApp="PremierePro">
					<parameterid>2</parameterid>
					<name></name>
					<IsTimeVarying>false</IsTimeVarying>
					<ParameterControlType>11</ParameterControlType>
					<LowerBound>false</LowerBound>
					<UpperBound>false</UpperBound>
					<value>-91445760000000000,false,0,0,0,0,0,0</value>
					</parameter>
					<parameter authoringApp="PremierePro">
					<parameterid>3</parameterid>
					<name></name>
					<IsTimeVarying>false</IsTimeVarying>
					<value>-91445760000000000,0.5:0.5,0,0,0,0,0,0,5,4,0,0,0,0</value>
					</parameter>
					<parameter authoringApp="PremierePro">
					<parameterid>4</parameterid>
					<name></name>
					<IsTimeVarying>false</IsTimeVarying>
					<ParameterControlType>2</ParameterControlType>
					<LowerBound>0</LowerBound>
					<UpperBound>4000</UpperBound>
					<value>-91445760000000000,100.,0,0,0,0,0,0</value>
					</parameter>
					<parameter authoringApp="PremierePro">
					<parameterid>8</parameterid>
					<name></name>
					<IsTimeVarying>false</IsTimeVarying>
					<ParameterControlType>2</ParameterControlType>
					<LowerBound>0</LowerBound>
					<UpperBound>100</UpperBound>
					<value>-91445760000000000,100.,0,0,0,0,0,0</value>
					</parameter>
					</effect>
					</filter>
					<logginginfo>
					<description></description>
					<scene></scene>
					<shottake></shottake>
					<lognote></lognote>
					<good></good>
					<originalvideofilename></originalvideofilename>
					<originalaudiofilename></originalaudiofilename>
					</logginginfo>
					<colorinfo>
					<lut></lut>
					<lut1></lut1>
					<asc_sop></asc_sop>
					<asc_sat></asc_sat>
					<lut2></lut2>
					</colorinfo>
					<labels>
					</labels>
					</clipitem>
					<clipitem frameBlend="FALSE" id="clipitem-442">
					<masterclipid>masterclip-362</masterclipid>
					<name></name>
					<enabled>TRUE</enabled>
					<duration>2582774</duration>
					<rate>
					
					                                    <timebase>60</timebase>
					                                    <ntsc>TRUE</ntsc>
					                                
					</rate>
					<start>3263</start>
					<end>3323</end>
					<in>3263</in>
					<out>3323</out>
					<pproTicksIn>914456774963789</pproTicksIn>
					<pproTicksOut>914677708529577</pproTicksOut>
					<alphatype>straight</alphatype>
					<pixelaspectratio>square</pixelaspectratio>
					<anamorphic>FALSE</anamorphic>
					<file id="file-361">
					<name></name>
					<mediaSource>GraphicAndType</mediaSource>
					<rate>
					<timebase>60</timebase>
					<ntsc>TRUE</ntsc>
					</rate>
					<timecode>
					<rate>
					<timebase>60</timebase>
					<ntsc>TRUE</ntsc>
					</rate>
					<string>00:00:00:00</string>
					<frame>0</frame>
					<displayformat>NDF</displayformat>
					</timecode>
					<media>
					<video>
					<samplecharacteristics>
					<rate>
					<timebase>60</timebase>
					<ntsc>TRUE</ntsc>
					</rate>
					<width>1080</width>
					<height>1920</height>
					<anamorphic>FALSE</anamorphic>
					<pixelaspectratio>square</pixelaspectratio>
					<fielddominance>none</fielddominance>
					</samplecharacteristics>
					</video>
					</media>
					</file>
					<filter>
					<effect>
					<name></name>
					<effectid>GraphicAndType</effectid>
					<effectcategory>graphic</effectcategory>
					<effecttype>filter</effecttype>
					<mediatype>video</mediatype>
					<pproBypass>false</pproBypass>
					<parameter authoringApp="PremierePro">
					<parameterid>1</parameterid>
					<name></name>
					<hash>025b1101-ead6-0ca2-1feb-caf3000001fc</hash>
					<value>5AEAAAAAAABEMyIRDAAAAAAABgAKAAQABgAAAGQAAAAAAF4ASAAQAAwARABAADwAOAAAAAAAAAAAADQAMwAsAAAAKAAkACAAAAAAAAAAAAAAAAAAHAAAAAAAGgAAAAAAAAAUAAAAAAAAAAAAAAAAAAAAAAAAAAgAAAAAABsABwBeAAAAAAAAAUAAAABQAAAAbAAAAAIAAAAAAAEAAQAAAAAAQEEAAMBAAABAQAAAyEIAAAABIAAAAAIAAAACAAAAAAA2QwCASkTw/v//9P7///j+//8S////AAAAAAEAAAAEAAAAEQAAAEhHUFNvZWlLYWt1cG9wdGFpAAAAAQAAAAwAAAAIAAwABAAIAAgAAAAIAAAAUAAAAA8AAADvvIEAAAAAAAAAAAAAAAAAAAA2ACQAAAAgABwAAAAAABsAFAAAAAAAAAAAAAAAAAAAAAAAAAAAABAAAAAAAAAADAAAAAgABAA2AAAAAgAAABwAAAAcAAAAHAAAAAAAIEEAAAABaAAAAE3PAEOw////tP///wEAAAAUAAAAEAAaAAgABwAMAAAAEAAUABAAAAAAAAABHAAAAAAAoEEcAAAAAgAAAAAACgAIAAUABgAHAAoAAAAADAD//P///wQABAAEAAAACAAIAAYABwAIAAAAAAAMAA==</value>
					</parameter>
					<parameter authoringApp="PremierePro">
					<parameterid>2</parameterid>
					<name></name>
					<IsTimeVarying>false</IsTimeVarying>
					<ParameterControlType>11</ParameterControlType>
					<LowerBound>false</LowerBound>
					<UpperBound>false</UpperBound>
					<value>-91445760000000000,false,0,0,0,0,0,0</value>
					</parameter>
					<parameter authoringApp="PremierePro">
					<parameterid>3</parameterid>
					<name></name>
					<IsTimeVarying>false</IsTimeVarying>
					<value>-91445760000000000,0.5:0.5,0,0,0,0,0,0,5,4,0,0,0,0</value>
					</parameter>
					<parameter authoringApp="PremierePro">
					<parameterid>4</parameterid>
					<name></name>
					<IsTimeVarying>false</IsTimeVarying>
					<ParameterControlType>2</ParameterControlType>
					<LowerBound>0</LowerBound>
					<UpperBound>4000</UpperBound>
					<value>-91445760000000000,100.,0,0,0,0,0,0</value>
					</parameter>
					<parameter authoringApp="PremierePro">
					<parameterid>8</parameterid>
					<name></name>
					<IsTimeVarying>false</IsTimeVarying>
					<ParameterControlType>2</ParameterControlType>
					<LowerBound>0</LowerBound>
					<UpperBound>100</UpperBound>
					<value>-91445760000000000,100.,0,0,0,0,0,0</value>
					</parameter>
					</effect>
					</filter>
					<logginginfo>
					<description></description>
					<scene></scene>
					<shottake></shottake>
					<lognote></lognote>
					<good></good>
					<originalvideofilename></originalvideofilename>
					<originalaudiofilename></originalaudiofilename>
					</logginginfo>
					<colorinfo>
					<lut></lut>
					<lut1></lut1>
					<asc_sop></asc_sop>
					<asc_sat></asc_sat>
					<lut2></lut2>
					</colorinfo>
					<labels>
					</labels>
					</clipitem>
					<clipitem frameBlend="FALSE" id="clipitem-448">
					<masterclipid>masterclip-368</masterclipid>
					<name></name>
					<enabled>TRUE</enabled>
					<duration>2582774</duration>
					<rate>
					
					                                    <timebase>60</timebase>
					                                    <ntsc>TRUE</ntsc>
					                                
					</rate>
					<start>3329</start>
					<end>3389</end>
					<in>3329</in>
					<out>3389</out>
					<pproTicksIn>914456774963789</pproTicksIn>
					<pproTicksOut>914677708529577</pproTicksOut>
					<alphatype>straight</alphatype>
					<pixelaspectratio>square</pixelaspectratio>
					<anamorphic>FALSE</anamorphic>
					<file id="file-367">
					<name></name>
					<mediaSource>GraphicAndType</mediaSource>
					<rate>
					<timebase>60</timebase>
					<ntsc>TRUE</ntsc>
					</rate>
					<timecode>
					<rate>
					<timebase>60</timebase>
					<ntsc>TRUE</ntsc>
					</rate>
					<string>00:00:00:00</string>
					<frame>0</frame>
					<displayformat>NDF</displayformat>
					</timecode>
					<media>
					<video>
					<samplecharacteristics>
					<rate>
					<timebase>60</timebase>
					<ntsc>TRUE</ntsc>
					</rate>
					<width>1080</width>
					<height>1920</height>
					<anamorphic>FALSE</anamorphic>
					<pixelaspectratio>square</pixelaspectratio>
					<fielddominance>none</fielddominance>
					</samplecharacteristics>
					</video>
					</media>
					</file>
					<filter>
					<effect>
					<name></name>
					<effectid>GraphicAndType</effectid>
					<effectcategory>graphic</effectcategory>
					<effecttype>filter</effecttype>
					<mediatype>video</mediatype>
					<pproBypass>false</pproBypass>
					<parameter authoringApp="PremierePro">
					<parameterid>1</parameterid>
					<name></name>
					<hash>025b1101-ead6-0ca2-1feb-caf3000001fc</hash>
					<value>5AEAAAAAAABEMyIRDAAAAAAABgAKAAQABgAAAGQAAAAAAF4ASAAQAAwARABAADwAOAAAAAAAAAAAADQAMwAsAAAAKAAkACAAAAAAAAAAAAAAAAAAHAAAAAAAGgAAAAAAAAAUAAAAAAAAAAAAAAAAAAAAAAAAAAgAAAAAABsABwBeAAAAAAAAAUAAAABQAAAAbAAAAAIAAAAAAAEAAQAAAAAAQEEAAMBAAABAQAAAyEIAAAABIAAAAAIAAAACAAAAAAA2QwCASkTw/v//9P7///j+//8S////AAAAAAEAAAAEAAAAEQAAAEhHUFNvZWlLYWt1cG9wdGFpAAAAAQAAAAwAAAAIAAwABAAIAAgAAAAIAAAAUAAAAA8AAADvvIEAAAAAAAAAAAAAAAAAAAA2ACQAAAAgABwAAAAAABsAFAAAAAAAAAAAAAAAAAAAAAAAAAAAABAAAAAAAAAADAAAAAgABAA2AAAAAgAAABwAAAAcAAAAHAAAAAAAIEEAAAABaAAAAE3PAEOw////tP///wEAAAAUAAAAEAAaAAgABwAMAAAAEAAUABAAAAAAAAABHAAAAAAAoEEcAAAAAgAAAAAACgAIAAUABgAHAAoAAAAADAD//P///wQABAAEAAAACAAIAAYABwAIAAAAAAAMAA==</value>
					</parameter>
					<parameter authoringApp="PremierePro">
					<parameterid>2</parameterid>
					<name></name>
					<IsTimeVarying>false</IsTimeVarying>
					<ParameterControlType>11</ParameterControlType>
					<LowerBound>false</LowerBound>
					<UpperBound>false</UpperBound>
					<value>-91445760000000000,false,0,0,0,0,0,0</value>
					</parameter>
					<parameter authoringApp="PremierePro">
					<parameterid>3</parameterid>
					<name></name>
					<IsTimeVarying>false</IsTimeVarying>
					<value>-91445760000000000,0.5:0.5,0,0,0,0,0,0,5,4,0,0,0,0</value>
					</parameter>
					<parameter authoringApp="PremierePro">
					<parameterid>4</parameterid>
					<name></name>
					<IsTimeVarying>false</IsTimeVarying>
					<ParameterControlType>2</ParameterControlType>
					<LowerBound>0</LowerBound>
					<UpperBound>4000</UpperBound>
					<value>-91445760000000000,100.,0,0,0,0,0,0</value>
					</parameter>
					<parameter authoringApp="PremierePro">
					<parameterid>8</parameterid>
					<name></name>
					<IsTimeVarying>false</IsTimeVarying>
					<ParameterControlType>2</ParameterControlType>
					<LowerBound>0</LowerBound>
					<UpperBound>100</UpperBound>
					<value>-91445760000000000,100.,0,0,0,0,0,0</value>
					</parameter>
					</effect>
					</filter>
					<logginginfo>
					<description></description>
					<scene></scene>
					<shottake></shottake>
					<lognote></lognote>
					<good></good>
					<originalvideofilename></originalvideofilename>
					<originalaudiofilename></originalaudiofilename>
					</logginginfo>
					<colorinfo>
					<lut></lut>
					<lut1></lut1>
					<asc_sop></asc_sop>
					<asc_sat></asc_sat>
					<lut2></lut2>
					</colorinfo>
					<labels>
					</labels>
					</clipitem>
					<clipitem frameBlend="FALSE" id="clipitem-455">
					<masterclipid>masterclip-375</masterclipid>
					<name></name>
					<enabled>TRUE</enabled>
					<duration>2582774</duration>
					<rate>
					
					                                    <timebase>60</timebase>
					                                    <ntsc>TRUE</ntsc>
					                                
					</rate>
					<start>3389</start>
					<end>3449</end>
					<in>3389</in>
					<out>3449</out>
					<pproTicksIn>914456774963789</pproTicksIn>
					<pproTicksOut>914677708529577</pproTicksOut>
					<alphatype>straight</alphatype>
					<pixelaspectratio>square</pixelaspectratio>
					<anamorphic>FALSE</anamorphic>
					<file id="file-374">
					<name></name>
					<mediaSource>GraphicAndType</mediaSource>
					<rate>
					<timebase>60</timebase>
					<ntsc>TRUE</ntsc>
					</rate>
					<timecode>
					<rate>
					<timebase>60</timebase>
					<ntsc>TRUE</ntsc>
					</rate>
					<string>00:00:00:00</string>
					<frame>0</frame>
					<displayformat>NDF</displayformat>
					</timecode>
					<media>
					<video>
					<samplecharacteristics>
					<rate>
					<timebase>60</timebase>
					<ntsc>TRUE</ntsc>
					</rate>
					<width>1080</width>
					<height>1920</height>
					<anamorphic>FALSE</anamorphic>
					<pixelaspectratio>square</pixelaspectratio>
					<fielddominance>none</fielddominance>
					</samplecharacteristics>
					</video>
					</media>
					</file>
					<filter>
					<effect>
					<name></name>
					<effectid>GraphicAndType</effectid>
					<effectcategory>graphic</effectcategory>
					<effecttype>filter</effecttype>
					<mediatype>video</mediatype>
					<pproBypass>false</pproBypass>
					<parameter authoringApp="PremierePro">
					<parameterid>1</parameterid>
					<name></name>
					<hash>025b1101-ead6-0ca2-1feb-caf3000001fc</hash>
					<value>5AEAAAAAAABEMyIRDAAAAAAABgAKAAQABgAAAGQAAAAAAF4ASAAQAAwARABAADwAOAAAAAAAAAAAADQAMwAsAAAAKAAkACAAAAAAAAAAAAAAAAAAHAAAAAAAGgAAAAAAAAAUAAAAAAAAAAAAAAAAAAAAAAAAAAgAAAAAABsABwBeAAAAAAAAAUAAAABQAAAAbAAAAAIAAAAAAAEAAQAAAAAAQEEAAMBAAABAQAAAyEIAAAABIAAAAAIAAAACAAAAAAA2QwCASkTw/v//9P7///j+//8S////AAAAAAEAAAAEAAAAEQAAAEhHUFNvZWlLYWt1cG9wdGFpAAAAAQAAAAwAAAAIAAwABAAIAAgAAAAIAAAAUAAAAA8AAADvvIEAAAAAAAAAAAAAAAAAAAA2ACQAAAAgABwAAAAAABsAFAAAAAAAAAAAAAAAAAAAAAAAAAAAABAAAAAAAAAADAAAAAgABAA2AAAAAgAAABwAAAAcAAAAHAAAAAAAIEEAAAABaAAAAE3PAEOw////tP///wEAAAAUAAAAEAAaAAgABwAMAAAAEAAUABAAAAAAAAABHAAAAAAAoEEcAAAAAgAAAAAACgAIAAUABgAHAAoAAAAADAD//P///wQABAAEAAAACAAIAAYABwAIAAAAAAAMAA==</value>
					</parameter>
					<parameter authoringApp="PremierePro">
					<parameterid>2</parameterid>
					<name></name>
					<IsTimeVarying>false</IsTimeVarying>
					<ParameterControlType>11</ParameterControlType>
					<LowerBound>false</LowerBound>
					<UpperBound>false</UpperBound>
					<value>-91445760000000000,false,0,0,0,0,0,0</value>
					</parameter>
					<parameter authoringApp="PremierePro">
					<parameterid>3</parameterid>
					<name></name>
					<IsTimeVarying>false</IsTimeVarying>
					<value>-91445760000000000,0.5:0.5,0,0,0,0,0,0,5,4,0,0,0,0</value>
					</parameter>
					<parameter authoringApp="PremierePro">
					<parameterid>4</parameterid>
					<name></name>
					<IsTimeVarying>false</IsTimeVarying>
					<ParameterControlType>2</ParameterControlType>
					<LowerBound>0</LowerBound>
					<UpperBound>4000</UpperBound>
					<value>-91445760000000000,100.,0,0,0,0,0,0</value>
					</parameter>
					<parameter authoringApp="PremierePro">
					<parameterid>8</parameterid>
					<name></name>
					<IsTimeVarying>false</IsTimeVarying>
					<ParameterControlType>2</ParameterControlType>
					<LowerBound>0</LowerBound>
					<UpperBound>100</UpperBound>
					<value>-91445760000000000,100.,0,0,0,0,0,0</value>
					</parameter>
					</effect>
					</filter>
					<logginginfo>
					<description></description>
					<scene></scene>
					<shottake></shottake>
					<lognote></lognote>
					<good></good>
					<originalvideofilename></originalvideofilename>
					<originalaudiofilename></originalaudiofilename>
					</logginginfo>
					<colorinfo>
					<lut></lut>
					<lut1></lut1>
					<asc_sop></asc_sop>
					<asc_sat></asc_sat>
					<lut2></lut2>
					</colorinfo>
					<labels>
					</labels>
					</clipitem>
					<clipitem frameBlend="FALSE" id="clipitem-461">
					<masterclipid>masterclip-381</masterclipid>
					<name></name>
					<enabled>TRUE</enabled>
					<duration>2582774</duration>
					<rate>
					
					                                    <timebase>60</timebase>
					                                    <ntsc>TRUE</ntsc>
					                                
					</rate>
					<start>3455</start>
					<end>3515</end>
					<in>3455</in>
					<out>3515</out>
					<pproTicksIn>914456774963789</pproTicksIn>
					<pproTicksOut>914677708529577</pproTicksOut>
					<alphatype>straight</alphatype>
					<pixelaspectratio>square</pixelaspectratio>
					<anamorphic>FALSE</anamorphic>
					<file id="file-380">
					<name></name>
					<mediaSource>GraphicAndType</mediaSource>
					<rate>
					<timebase>60</timebase>
					<ntsc>TRUE</ntsc>
					</rate>
					<timecode>
					<rate>
					<timebase>60</timebase>
					<ntsc>TRUE</ntsc>
					</rate>
					<string>00:00:00:00</string>
					<frame>0</frame>
					<displayformat>NDF</displayformat>
					</timecode>
					<media>
					<video>
					<samplecharacteristics>
					<rate>
					<timebase>60</timebase>
					<ntsc>TRUE</ntsc>
					</rate>
					<width>1080</width>
					<height>1920</height>
					<anamorphic>FALSE</anamorphic>
					<pixelaspectratio>square</pixelaspectratio>
					<fielddominance>none</fielddominance>
					</samplecharacteristics>
					</video>
					</media>
					</file>
					<filter>
					<effect>
					<name></name>
					<effectid>GraphicAndType</effectid>
					<effectcategory>graphic</effectcategory>
					<effecttype>filter</effecttype>
					<mediatype>video</mediatype>
					<pproBypass>false</pproBypass>
					<parameter authoringApp="PremierePro">
					<parameterid>1</parameterid>
					<name></name>
					<hash>025b1101-ead6-0ca2-1feb-caf3000001fc</hash>
					<value>5AEAAAAAAABEMyIRDAAAAAAABgAKAAQABgAAAGQAAAAAAF4ASAAQAAwARABAADwAOAAAAAAAAAAAADQAMwAsAAAAKAAkACAAAAAAAAAAAAAAAAAAHAAAAAAAGgAAAAAAAAAUAAAAAAAAAAAAAAAAAAAAAAAAAAgAAAAAABsABwBeAAAAAAAAAUAAAABQAAAAbAAAAAIAAAAAAAEAAQAAAAAAQEEAAMBAAABAQAAAyEIAAAABIAAAAAIAAAACAAAAAAA2QwCASkTw/v//9P7///j+//8S////AAAAAAEAAAAEAAAAEQAAAEhHUFNvZWlLYWt1cG9wdGFpAAAAAQAAAAwAAAAIAAwABAAIAAgAAAAIAAAAUAAAAA8AAADvvIEAAAAAAAAAAAAAAAAAAAA2ACQAAAAgABwAAAAAABsAFAAAAAAAAAAAAAAAAAAAAAAAAAAAABAAAAAAAAAADAAAAAgABAA2AAAAAgAAABwAAAAcAAAAHAAAAAAAIEEAAAABaAAAAE3PAEOw////tP///wEAAAAUAAAAEAAaAAgABwAMAAAAEAAUABAAAAAAAAABHAAAAAAAoEEcAAAAAgAAAAAACgAIAAUABgAHAAoAAAAADAD//P///wQABAAEAAAACAAIAAYABwAIAAAAAAAMAA==</value>
					</parameter>
					<parameter authoringApp="PremierePro">
					<parameterid>2</parameterid>
					<name></name>
					<IsTimeVarying>false</IsTimeVarying>
					<ParameterControlType>11</ParameterControlType>
					<LowerBound>false</LowerBound>
					<UpperBound>false</UpperBound>
					<value>-91445760000000000,false,0,0,0,0,0,0</value>
					</parameter>
					<parameter authoringApp="PremierePro">
					<parameterid>3</parameterid>
					<name></name>
					<IsTimeVarying>false</IsTimeVarying>
					<value>-91445760000000000,0.5:0.5,0,0,0,0,0,0,5,4,0,0,0,0</value>
					</parameter>
					<parameter authoringApp="PremierePro">
					<parameterid>4</parameterid>
					<name></name>
					<IsTimeVarying>false</IsTimeVarying>
					<ParameterControlType>2</ParameterControlType>
					<LowerBound>0</LowerBound>
					<UpperBound>4000</UpperBound>
					<value>-91445760000000000,100.,0,0,0,0,0,0</value>
					</parameter>
					<parameter authoringApp="PremierePro">
					<parameterid>8</parameterid>
					<name></name>
					<IsTimeVarying>false</IsTimeVarying>
					<ParameterControlType>2</ParameterControlType>
					<LowerBound>0</LowerBound>
					<UpperBound>100</UpperBound>
					<value>-91445760000000000,100.,0,0,0,0,0,0</value>
					</parameter>
					</effect>
					</filter>
					<logginginfo>
					<description></description>
					<scene></scene>
					<shottake></shottake>
					<lognote></lognote>
					<good></good>
					<originalvideofilename></originalvideofilename>
					<originalaudiofilename></originalaudiofilename>
					</logginginfo>
					<colorinfo>
					<lut></lut>
					<lut1></lut1>
					<asc_sop></asc_sop>
					<asc_sat></asc_sat>
					<lut2></lut2>
					</colorinfo>
					<labels>
					</labels>
					</clipitem>
					<clipitem frameBlend="FALSE" id="clipitem-467">
					<masterclipid>masterclip-387</masterclipid>
					<name></name>
					<enabled>TRUE</enabled>
					<duration>2582774</duration>
					<rate>
					
					                                    <timebase>60</timebase>
					                                    <ntsc>TRUE</ntsc>
					                                
					</rate>
					<start>3521</start>
					<end>3580</end>
					<in>3521</in>
					<out>3580</out>
					<pproTicksIn>914456774963789</pproTicksIn>
					<pproTicksOut>914677708529577</pproTicksOut>
					<alphatype>straight</alphatype>
					<pixelaspectratio>square</pixelaspectratio>
					<anamorphic>FALSE</anamorphic>
					<file id="file-386">
					<name></name>
					<mediaSource>GraphicAndType</mediaSource>
					<rate>
					<timebase>60</timebase>
					<ntsc>TRUE</ntsc>
					</rate>
					<timecode>
					<rate>
					<timebase>60</timebase>
					<ntsc>TRUE</ntsc>
					</rate>
					<string>00:00:00:00</string>
					<frame>0</frame>
					<displayformat>NDF</displayformat>
					</timecode>
					<media>
					<video>
					<samplecharacteristics>
					<rate>
					<timebase>60</timebase>
					<ntsc>TRUE</ntsc>
					</rate>
					<width>1080</width>
					<height>1920</height>
					<anamorphic>FALSE</anamorphic>
					<pixelaspectratio>square</pixelaspectratio>
					<fielddominance>none</fielddominance>
					</samplecharacteristics>
					</video>
					</media>
					</file>
					<filter>
					<effect>
					<name></name>
					<effectid>GraphicAndType</effectid>
					<effectcategory>graphic</effectcategory>
					<effecttype>filter</effecttype>
					<mediatype>video</mediatype>
					<pproBypass>false</pproBypass>
					<parameter authoringApp="PremierePro">
					<parameterid>1</parameterid>
					<name></name>
					<hash>025b1101-ead6-0ca2-1feb-caf3000001fc</hash>
					<value>5AEAAAAAAABEMyIRDAAAAAAABgAKAAQABgAAAGQAAAAAAF4ASAAQAAwARABAADwAOAAAAAAAAAAAADQAMwAsAAAAKAAkACAAAAAAAAAAAAAAAAAAHAAAAAAAGgAAAAAAAAAUAAAAAAAAAAAAAAAAAAAAAAAAAAgAAAAAABsABwBeAAAAAAAAAUAAAABQAAAAbAAAAAIAAAAAAAEAAQAAAAAAQEEAAMBAAABAQAAAyEIAAAABIAAAAAIAAAACAAAAAAA2QwCASkTw/v//9P7///j+//8S////AAAAAAEAAAAEAAAAEQAAAEhHUFNvZWlLYWt1cG9wdGFpAAAAAQAAAAwAAAAIAAwABAAIAAgAAAAIAAAAUAAAAA8AAADvvIEAAAAAAAAAAAAAAAAAAAA2ACQAAAAgABwAAAAAABsAFAAAAAAAAAAAAAAAAAAAAAAAAAAAABAAAAAAAAAADAAAAAgABAA2AAAAAgAAABwAAAAcAAAAHAAAAAAAIEEAAAABaAAAAE3PAEOw////tP///wEAAAAUAAAAEAAaAAgABwAMAAAAEAAUABAAAAAAAAABHAAAAAAAoEEcAAAAAgAAAAAACgAIAAUABgAHAAoAAAAADAD//P///wQABAAEAAAACAAIAAYABwAIAAAAAAAMAA==</value>
					</parameter>
					<parameter authoringApp="PremierePro">
					<parameterid>2</parameterid>
					<name></name>
					<IsTimeVarying>false</IsTimeVarying>
					<ParameterControlType>11</ParameterControlType>
					<LowerBound>false</LowerBound>
					<UpperBound>false</UpperBound>
					<value>-91445760000000000,false,0,0,0,0,0,0</value>
					</parameter>
					<parameter authoringApp="PremierePro">
					<parameterid>3</parameterid>
					<name></name>
					<IsTimeVarying>false</IsTimeVarying>
					<value>-91445760000000000,0.5:0.5,0,0,0,0,0,0,5,4,0,0,0,0</value>
					</parameter>
					<parameter authoringApp="PremierePro">
					<parameterid>4</parameterid>
					<name></name>
					<IsTimeVarying>false</IsTimeVarying>
					<ParameterControlType>2</ParameterControlType>
					<LowerBound>0</LowerBound>
					<UpperBound>4000</UpperBound>
					<value>-91445760000000000,100.,0,0,0,0,0,0</value>
					</parameter>
					<parameter authoringApp="PremierePro">
					<parameterid>8</parameterid>
					<name></name>
					<IsTimeVarying>false</IsTimeVarying>
					<ParameterControlType>2</ParameterControlType>
					<LowerBound>0</LowerBound>
					<UpperBound>100</UpperBound>
					<value>-91445760000000000,100.,0,0,0,0,0,0</value>
					</parameter>
					</effect>
					</filter>
					<logginginfo>
					<description></description>
					<scene></scene>
					<shottake></shottake>
					<lognote></lognote>
					<good></good>
					<originalvideofilename></originalvideofilename>
					<originalaudiofilename></originalaudiofilename>
					</logginginfo>
					<colorinfo>
					<lut></lut>
					<lut1></lut1>
					<asc_sop></asc_sop>
					<asc_sat></asc_sat>
					<lut2></lut2>
					</colorinfo>
					<labels>
					</labels>
					</clipitem>
					<clipitem frameBlend="FALSE" id="clipitem-472">
					<masterclipid>masterclip-392</masterclipid>
					<name></name>
					<enabled>TRUE</enabled>
					<duration>2582774</duration>
					<rate>
					
					                                    <timebase>60</timebase>
					                                    <ntsc>TRUE</ntsc>
					                                
					</rate>
					<start>3604</start>
					<end>3664</end>
					<in>3604</in>
					<out>3664</out>
					<pproTicksIn>914456774963789</pproTicksIn>
					<pproTicksOut>914677708529577</pproTicksOut>
					<alphatype>straight</alphatype>
					<pixelaspectratio>square</pixelaspectratio>
					<anamorphic>FALSE</anamorphic>
					<file id="file-391">
					<name></name>
					<mediaSource>GraphicAndType</mediaSource>
					<rate>
					<timebase>60</timebase>
					<ntsc>TRUE</ntsc>
					</rate>
					<timecode>
					<rate>
					<timebase>60</timebase>
					<ntsc>TRUE</ntsc>
					</rate>
					<string>00:00:00:00</string>
					<frame>0</frame>
					<displayformat>NDF</displayformat>
					</timecode>
					<media>
					<video>
					<samplecharacteristics>
					<rate>
					<timebase>60</timebase>
					<ntsc>TRUE</ntsc>
					</rate>
					<width>1080</width>
					<height>1920</height>
					<anamorphic>FALSE</anamorphic>
					<pixelaspectratio>square</pixelaspectratio>
					<fielddominance>none</fielddominance>
					</samplecharacteristics>
					</video>
					</media>
					</file>
					<filter>
					<effect>
					<name></name>
					<effectid>GraphicAndType</effectid>
					<effectcategory>graphic</effectcategory>
					<effecttype>filter</effecttype>
					<mediatype>video</mediatype>
					<pproBypass>false</pproBypass>
					<parameter authoringApp="PremierePro">
					<parameterid>1</parameterid>
					<name></name>
					<hash>025b1101-ead6-0ca2-1feb-caf3000001fc</hash>
					<value>5AEAAAAAAABEMyIRDAAAAAAABgAKAAQABgAAAGQAAAAAAF4ASAAQAAwARABAADwAOAAAAAAAAAAAADQAMwAsAAAAKAAkACAAAAAAAAAAAAAAAAAAHAAAAAAAGgAAAAAAAAAUAAAAAAAAAAAAAAAAAAAAAAAAAAgAAAAAABsABwBeAAAAAAAAAUAAAABQAAAAbAAAAAIAAAAAAAEAAQAAAAAAQEEAAMBAAABAQAAAyEIAAAABIAAAAAIAAAACAAAAAAA2QwCASkTw/v//9P7///j+//8S////AAAAAAEAAAAEAAAAEQAAAEhHUFNvZWlLYWt1cG9wdGFpAAAAAQAAAAwAAAAIAAwABAAIAAgAAAAIAAAAUAAAAA8AAADvvIEAAAAAAAAAAAAAAAAAAAA2ACQAAAAgABwAAAAAABsAFAAAAAAAAAAAAAAAAAAAAAAAAAAAABAAAAAAAAAADAAAAAgABAA2AAAAAgAAABwAAAAcAAAAHAAAAAAAIEEAAAABaAAAAE3PAEOw////tP///wEAAAAUAAAAEAAaAAgABwAMAAAAEAAUABAAAAAAAAABHAAAAAAAoEEcAAAAAgAAAAAACgAIAAUABgAHAAoAAAAADAD//P///wQABAAEAAAACAAIAAYABwAIAAAAAAAMAA==</value>
					</parameter>
					<parameter authoringApp="PremierePro">
					<parameterid>2</parameterid>
					<name></name>
					<IsTimeVarying>false</IsTimeVarying>
					<ParameterControlType>11</ParameterControlType>
					<LowerBound>false</LowerBound>
					<UpperBound>false</UpperBound>
					<value>-91445760000000000,false,0,0,0,0,0,0</value>
					</parameter>
					<parameter authoringApp="PremierePro">
					<parameterid>3</parameterid>
					<name></name>
					<IsTimeVarying>false</IsTimeVarying>
					<value>-91445760000000000,0.5:0.5,0,0,0,0,0,0,5,4,0,0,0,0</value>
					</parameter>
					<parameter authoringApp="PremierePro">
					<parameterid>4</parameterid>
					<name></name>
					<IsTimeVarying>false</IsTimeVarying>
					<ParameterControlType>2</ParameterControlType>
					<LowerBound>0</LowerBound>
					<UpperBound>4000</UpperBound>
					<value>-91445760000000000,100.,0,0,0,0,0,0</value>
					</parameter>
					<parameter authoringApp="PremierePro">
					<parameterid>8</parameterid>
					<name></name>
					<IsTimeVarying>false</IsTimeVarying>
					<ParameterControlType>2</ParameterControlType>
					<LowerBound>0</LowerBound>
					<UpperBound>100</UpperBound>
					<value>-91445760000000000,100.,0,0,0,0,0,0</value>
					</parameter>
					</effect>
					</filter>
					<logginginfo>
					<description></description>
					<scene></scene>
					<shottake></shottake>
					<lognote></lognote>
					<good></good>
					<originalvideofilename></originalvideofilename>
					<originalaudiofilename></originalaudiofilename>
					</logginginfo>
					<colorinfo>
					<lut></lut>
					<lut1></lut1>
					<asc_sop></asc_sop>
					<asc_sat></asc_sat>
					<lut2></lut2>
					</colorinfo>
					<labels>
					</labels>
					</clipitem>
					<clipitem frameBlend="FALSE" id="clipitem-479">
					<masterclipid>masterclip-399</masterclipid>
					<name></name>
					<enabled>TRUE</enabled>
					<duration>2582774</duration>
					<rate>
					
					                                    <timebase>60</timebase>
					                                    <ntsc>TRUE</ntsc>
					                                
					</rate>
					<start>3670</start>
					<end>3736</end>
					<in>3670</in>
					<out>3736</out>
					<pproTicksIn>914456774963789</pproTicksIn>
					<pproTicksOut>914677708529577</pproTicksOut>
					<alphatype>straight</alphatype>
					<pixelaspectratio>square</pixelaspectratio>
					<anamorphic>FALSE</anamorphic>
					<file id="file-398">
					<name></name>
					<mediaSource>GraphicAndType</mediaSource>
					<rate>
					<timebase>60</timebase>
					<ntsc>TRUE</ntsc>
					</rate>
					<timecode>
					<rate>
					<timebase>60</timebase>
					<ntsc>TRUE</ntsc>
					</rate>
					<string>00:00:00:00</string>
					<frame>0</frame>
					<displayformat>NDF</displayformat>
					</timecode>
					<media>
					<video>
					<samplecharacteristics>
					<rate>
					<timebase>60</timebase>
					<ntsc>TRUE</ntsc>
					</rate>
					<width>1080</width>
					<height>1920</height>
					<anamorphic>FALSE</anamorphic>
					<pixelaspectratio>square</pixelaspectratio>
					<fielddominance>none</fielddominance>
					</samplecharacteristics>
					</video>
					</media>
					</file>
					<filter>
					<effect>
					<name></name>
					<effectid>GraphicAndType</effectid>
					<effectcategory>graphic</effectcategory>
					<effecttype>filter</effecttype>
					<mediatype>video</mediatype>
					<pproBypass>false</pproBypass>
					<parameter authoringApp="PremierePro">
					<parameterid>1</parameterid>
					<name></name>
					<hash>025b1101-ead6-0ca2-1feb-caf3000001fc</hash>
					<value>5AEAAAAAAABEMyIRDAAAAAAABgAKAAQABgAAAGQAAAAAAF4ASAAQAAwARABAADwAOAAAAAAAAAAAADQAMwAsAAAAKAAkACAAAAAAAAAAAAAAAAAAHAAAAAAAGgAAAAAAAAAUAAAAAAAAAAAAAAAAAAAAAAAAAAgAAAAAABsABwBeAAAAAAAAAUAAAABQAAAAbAAAAAIAAAAAAAEAAQAAAAAAQEEAAMBAAABAQAAAyEIAAAABIAAAAAIAAAACAAAAAAA2QwCASkTw/v//9P7///j+//8S////AAAAAAEAAAAEAAAAEQAAAEhHUFNvZWlLYWt1cG9wdGFpAAAAAQAAAAwAAAAIAAwABAAIAAgAAAAIAAAAUAAAAA8AAADvvIEAAAAAAAAAAAAAAAAAAAA2ACQAAAAgABwAAAAAABsAFAAAAAAAAAAAAAAAAAAAAAAAAAAAABAAAAAAAAAADAAAAAgABAA2AAAAAgAAABwAAAAcAAAAHAAAAAAAIEEAAAABaAAAAE3PAEOw////tP///wEAAAAUAAAAEAAaAAgABwAMAAAAEAAUABAAAAAAAAABHAAAAAAAoEEcAAAAAgAAAAAACgAIAAUABgAHAAoAAAAADAD//P///wQABAAEAAAACAAIAAYABwAIAAAAAAAMAA==</value>
					</parameter>
					<parameter authoringApp="PremierePro">
					<parameterid>2</parameterid>
					<name></name>
					<IsTimeVarying>false</IsTimeVarying>
					<ParameterControlType>11</ParameterControlType>
					<LowerBound>false</LowerBound>
					<UpperBound>false</UpperBound>
					<value>-91445760000000000,false,0,0,0,0,0,0</value>
					</parameter>
					<parameter authoringApp="PremierePro">
					<parameterid>3</parameterid>
					<name></name>
					<IsTimeVarying>false</IsTimeVarying>
					<value>-91445760000000000,0.5:0.5,0,0,0,0,0,0,5,4,0,0,0,0</value>
					</parameter>
					<parameter authoringApp="PremierePro">
					<parameterid>4</parameterid>
					<name></name>
					<IsTimeVarying>false</IsTimeVarying>
					<ParameterControlType>2</ParameterControlType>
					<LowerBound>0</LowerBound>
					<UpperBound>4000</UpperBound>
					<value>-91445760000000000,100.,0,0,0,0,0,0</value>
					</parameter>
					<parameter authoringApp="PremierePro">
					<parameterid>8</parameterid>
					<name></name>
					<IsTimeVarying>false</IsTimeVarying>
					<ParameterControlType>2</ParameterControlType>
					<LowerBound>0</LowerBound>
					<UpperBound>100</UpperBound>
					<value>-91445760000000000,100.,0,0,0,0,0,0</value>
					</parameter>
					</effect>
					</filter>
					<logginginfo>
					<description></description>
					<scene></scene>
					<shottake></shottake>
					<lognote></lognote>
					<good></good>
					<originalvideofilename></originalvideofilename>
					<originalaudiofilename></originalaudiofilename>
					</logginginfo>
					<colorinfo>
					<lut></lut>
					<lut1></lut1>
					<asc_sop></asc_sop>
					<asc_sat></asc_sat>
					<lut2></lut2>
					</colorinfo>
					<labels>
					</labels>
					</clipitem>
					<clipitem frameBlend="FALSE" id="clipitem-486">
					<masterclipid>masterclip-406</masterclipid>
					<name></name>
					<enabled>TRUE</enabled>
					<duration>2582774</duration>
					<rate>
					
					                                    <timebase>60</timebase>
					                                    <ntsc>TRUE</ntsc>
					                                
					</rate>
					<start>3736</start>
					<end>3796</end>
					<in>3736</in>
					<out>3796</out>
					<pproTicksIn>914456774963789</pproTicksIn>
					<pproTicksOut>914677708529577</pproTicksOut>
					<alphatype>straight</alphatype>
					<pixelaspectratio>square</pixelaspectratio>
					<anamorphic>FALSE</anamorphic>
					<file id="file-405">
					<name></name>
					<mediaSource>GraphicAndType</mediaSource>
					<rate>
					<timebase>60</timebase>
					<ntsc>TRUE</ntsc>
					</rate>
					<timecode>
					<rate>
					<timebase>60</timebase>
					<ntsc>TRUE</ntsc>
					</rate>
					<string>00:00:00:00</string>
					<frame>0</frame>
					<displayformat>NDF</displayformat>
					</timecode>
					<media>
					<video>
					<samplecharacteristics>
					<rate>
					<timebase>60</timebase>
					<ntsc>TRUE</ntsc>
					</rate>
					<width>1080</width>
					<height>1920</height>
					<anamorphic>FALSE</anamorphic>
					<pixelaspectratio>square</pixelaspectratio>
					<fielddominance>none</fielddominance>
					</samplecharacteristics>
					</video>
					</media>
					</file>
					<filter>
					<effect>
					<name></name>
					<effectid>GraphicAndType</effectid>
					<effectcategory>graphic</effectcategory>
					<effecttype>filter</effecttype>
					<mediatype>video</mediatype>
					<pproBypass>false</pproBypass>
					<parameter authoringApp="PremierePro">
					<parameterid>1</parameterid>
					<name></name>
					<hash>025b1101-ead6-0ca2-1feb-caf3000001fc</hash>
					<value>5AEAAAAAAABEMyIRDAAAAAAABgAKAAQABgAAAGQAAAAAAF4ASAAQAAwARABAADwAOAAAAAAAAAAAADQAMwAsAAAAKAAkACAAAAAAAAAAAAAAAAAAHAAAAAAAGgAAAAAAAAAUAAAAAAAAAAAAAAAAAAAAAAAAAAgAAAAAABsABwBeAAAAAAAAAUAAAABQAAAAbAAAAAIAAAAAAAEAAQAAAAAAQEEAAMBAAABAQAAAyEIAAAABIAAAAAIAAAACAAAAAAA2QwCASkTw/v//9P7///j+//8S////AAAAAAEAAAAEAAAAEQAAAEhHUFNvZWlLYWt1cG9wdGFpAAAAAQAAAAwAAAAIAAwABAAIAAgAAAAIAAAAUAAAAA8AAADvvIEAAAAAAAAAAAAAAAAAAAA2ACQAAAAgABwAAAAAABsAFAAAAAAAAAAAAAAAAAAAAAAAAAAAABAAAAAAAAAADAAAAAgABAA2AAAAAgAAABwAAAAcAAAAHAAAAAAAIEEAAAABaAAAAE3PAEOw////tP///wEAAAAUAAAAEAAaAAgABwAMAAAAEAAUABAAAAAAAAABHAAAAAAAoEEcAAAAAgAAAAAACgAIAAUABgAHAAoAAAAADAD//P///wQABAAEAAAACAAIAAYABwAIAAAAAAAMAA==</value>
					</parameter>
					<parameter authoringApp="PremierePro">
					<parameterid>2</parameterid>
					<name></name>
					<IsTimeVarying>false</IsTimeVarying>
					<ParameterControlType>11</ParameterControlType>
					<LowerBound>false</LowerBound>
					<UpperBound>false</UpperBound>
					<value>-91445760000000000,false,0,0,0,0,0,0</value>
					</parameter>
					<parameter authoringApp="PremierePro">
					<parameterid>3</parameterid>
					<name></name>
					<IsTimeVarying>false</IsTimeVarying>
					<value>-91445760000000000,0.5:0.5,0,0,0,0,0,0,5,4,0,0,0,0</value>
					</parameter>
					<parameter authoringApp="PremierePro">
					<parameterid>4</parameterid>
					<name></name>
					<IsTimeVarying>false</IsTimeVarying>
					<ParameterControlType>2</ParameterControlType>
					<LowerBound>0</LowerBound>
					<UpperBound>4000</UpperBound>
					<value>-91445760000000000,100.,0,0,0,0,0,0</value>
					</parameter>
					<parameter authoringApp="PremierePro">
					<parameterid>8</parameterid>
					<name></name>
					<IsTimeVarying>false</IsTimeVarying>
					<ParameterControlType>2</ParameterControlType>
					<LowerBound>0</LowerBound>
					<UpperBound>100</UpperBound>
					<value>-91445760000000000,100.,0,0,0,0,0,0</value>
					</parameter>
					</effect>
					</filter>
					<logginginfo>
					<description></description>
					<scene></scene>
					<shottake></shottake>
					<lognote></lognote>
					<good></good>
					<originalvideofilename></originalvideofilename>
					<originalaudiofilename></originalaudiofilename>
					</logginginfo>
					<colorinfo>
					<lut></lut>
					<lut1></lut1>
					<asc_sop></asc_sop>
					<asc_sat></asc_sat>
					<lut2></lut2>
					</colorinfo>
					<labels>
					</labels>
					</clipitem>
					<clipitem frameBlend="FALSE" id="clipitem-493">
					<masterclipid>masterclip-413</masterclipid>
					<name></name>
					<enabled>TRUE</enabled>
					<duration>2582774</duration>
					<rate>
					
					                                    <timebase>60</timebase>
					                                    <ntsc>TRUE</ntsc>
					                                
					</rate>
					<start>3796</start>
					<end>3856</end>
					<in>3796</in>
					<out>3856</out>
					<pproTicksIn>914456774963789</pproTicksIn>
					<pproTicksOut>914677708529577</pproTicksOut>
					<alphatype>straight</alphatype>
					<pixelaspectratio>square</pixelaspectratio>
					<anamorphic>FALSE</anamorphic>
					<file id="file-412">
					<name></name>
					<mediaSource>GraphicAndType</mediaSource>
					<rate>
					<timebase>60</timebase>
					<ntsc>TRUE</ntsc>
					</rate>
					<timecode>
					<rate>
					<timebase>60</timebase>
					<ntsc>TRUE</ntsc>
					</rate>
					<string>00:00:00:00</string>
					<frame>0</frame>
					<displayformat>NDF</displayformat>
					</timecode>
					<media>
					<video>
					<samplecharacteristics>
					<rate>
					<timebase>60</timebase>
					<ntsc>TRUE</ntsc>
					</rate>
					<width>1080</width>
					<height>1920</height>
					<anamorphic>FALSE</anamorphic>
					<pixelaspectratio>square</pixelaspectratio>
					<fielddominance>none</fielddominance>
					</samplecharacteristics>
					</video>
					</media>
					</file>
					<filter>
					<effect>
					<name></name>
					<effectid>GraphicAndType</effectid>
					<effectcategory>graphic</effectcategory>
					<effecttype>filter</effecttype>
					<mediatype>video</mediatype>
					<pproBypass>false</pproBypass>
					<parameter authoringApp="PremierePro">
					<parameterid>1</parameterid>
					<name></name>
					<hash>025b1101-ead6-0ca2-1feb-caf3000001fc</hash>
					<value>5AEAAAAAAABEMyIRDAAAAAAABgAKAAQABgAAAGQAAAAAAF4ASAAQAAwARABAADwAOAAAAAAAAAAAADQAMwAsAAAAKAAkACAAAAAAAAAAAAAAAAAAHAAAAAAAGgAAAAAAAAAUAAAAAAAAAAAAAAAAAAAAAAAAAAgAAAAAABsABwBeAAAAAAAAAUAAAABQAAAAbAAAAAIAAAAAAAEAAQAAAAAAQEEAAMBAAABAQAAAyEIAAAABIAAAAAIAAAACAAAAAAA2QwCASkTw/v//9P7///j+//8S////AAAAAAEAAAAEAAAAEQAAAEhHUFNvZWlLYWt1cG9wdGFpAAAAAQAAAAwAAAAIAAwABAAIAAgAAAAIAAAAUAAAAA8AAADvvIEAAAAAAAAAAAAAAAAAAAA2ACQAAAAgABwAAAAAABsAFAAAAAAAAAAAAAAAAAAAAAAAAAAAABAAAAAAAAAADAAAAAgABAA2AAAAAgAAABwAAAAcAAAAHAAAAAAAIEEAAAABaAAAAE3PAEOw////tP///wEAAAAUAAAAEAAaAAgABwAMAAAAEAAUABAAAAAAAAABHAAAAAAAoEEcAAAAAgAAAAAACgAIAAUABgAHAAoAAAAADAD//P///wQABAAEAAAACAAIAAYABwAIAAAAAAAMAA==</value>
					</parameter>
					<parameter authoringApp="PremierePro">
					<parameterid>2</parameterid>
					<name></name>
					<IsTimeVarying>false</IsTimeVarying>
					<ParameterControlType>11</ParameterControlType>
					<LowerBound>false</LowerBound>
					<UpperBound>false</UpperBound>
					<value>-91445760000000000,false,0,0,0,0,0,0</value>
					</parameter>
					<parameter authoringApp="PremierePro">
					<parameterid>3</parameterid>
					<name></name>
					<IsTimeVarying>false</IsTimeVarying>
					<value>-91445760000000000,0.5:0.5,0,0,0,0,0,0,5,4,0,0,0,0</value>
					</parameter>
					<parameter authoringApp="PremierePro">
					<parameterid>4</parameterid>
					<name></name>
					<IsTimeVarying>false</IsTimeVarying>
					<ParameterControlType>2</ParameterControlType>
					<LowerBound>0</LowerBound>
					<UpperBound>4000</UpperBound>
					<value>-91445760000000000,100.,0,0,0,0,0,0</value>
					</parameter>
					<parameter authoringApp="PremierePro">
					<parameterid>8</parameterid>
					<name></name>
					<IsTimeVarying>false</IsTimeVarying>
					<ParameterControlType>2</ParameterControlType>
					<LowerBound>0</LowerBound>
					<UpperBound>100</UpperBound>
					<value>-91445760000000000,100.,0,0,0,0,0,0</value>
					</parameter>
					</effect>
					</filter>
					<logginginfo>
					<description></description>
					<scene></scene>
					<shottake></shottake>
					<lognote></lognote>
					<good></good>
					<originalvideofilename></originalvideofilename>
					<originalaudiofilename></originalaudiofilename>
					</logginginfo>
					<colorinfo>
					<lut></lut>
					<lut1></lut1>
					<asc_sop></asc_sop>
					<asc_sat></asc_sat>
					<lut2></lut2>
					</colorinfo>
					<labels>
					</labels>
					</clipitem>
					<clipitem frameBlend="FALSE" id="clipitem-500">
					<masterclipid>masterclip-420</masterclipid>
					<name></name>
					<enabled>TRUE</enabled>
					<duration>2582774</duration>
					<rate>
					
					                                    <timebase>60</timebase>
					                                    <ntsc>TRUE</ntsc>
					                                
					</rate>
					<start>3856</start>
					<end>3916</end>
					<in>3856</in>
					<out>3916</out>
					<pproTicksIn>914456774963789</pproTicksIn>
					<pproTicksOut>914677708529577</pproTicksOut>
					<alphatype>straight</alphatype>
					<pixelaspectratio>square</pixelaspectratio>
					<anamorphic>FALSE</anamorphic>
					<file id="file-419">
					<name></name>
					<mediaSource>GraphicAndType</mediaSource>
					<rate>
					<timebase>60</timebase>
					<ntsc>TRUE</ntsc>
					</rate>
					<timecode>
					<rate>
					<timebase>60</timebase>
					<ntsc>TRUE</ntsc>
					</rate>
					<string>00:00:00:00</string>
					<frame>0</frame>
					<displayformat>NDF</displayformat>
					</timecode>
					<media>
					<video>
					<samplecharacteristics>
					<rate>
					<timebase>60</timebase>
					<ntsc>TRUE</ntsc>
					</rate>
					<width>1080</width>
					<height>1920</height>
					<anamorphic>FALSE</anamorphic>
					<pixelaspectratio>square</pixelaspectratio>
					<fielddominance>none</fielddominance>
					</samplecharacteristics>
					</video>
					</media>
					</file>
					<filter>
					<effect>
					<name></name>
					<effectid>GraphicAndType</effectid>
					<effectcategory>graphic</effectcategory>
					<effecttype>filter</effecttype>
					<mediatype>video</mediatype>
					<pproBypass>false</pproBypass>
					<parameter authoringApp="PremierePro">
					<parameterid>1</parameterid>
					<name></name>
					<hash>025b1101-ead6-0ca2-1feb-caf3000001fc</hash>
					<value>5AEAAAAAAABEMyIRDAAAAAAABgAKAAQABgAAAGQAAAAAAF4ASAAQAAwARABAADwAOAAAAAAAAAAAADQAMwAsAAAAKAAkACAAAAAAAAAAAAAAAAAAHAAAAAAAGgAAAAAAAAAUAAAAAAAAAAAAAAAAAAAAAAAAAAgAAAAAABsABwBeAAAAAAAAAUAAAABQAAAAbAAAAAIAAAAAAAEAAQAAAAAAQEEAAMBAAABAQAAAyEIAAAABIAAAAAIAAAACAAAAAAA2QwCASkTw/v//9P7///j+//8S////AAAAAAEAAAAEAAAAEQAAAEhHUFNvZWlLYWt1cG9wdGFpAAAAAQAAAAwAAAAIAAwABAAIAAgAAAAIAAAAUAAAAA8AAADvvIEAAAAAAAAAAAAAAAAAAAA2ACQAAAAgABwAAAAAABsAFAAAAAAAAAAAAAAAAAAAAAAAAAAAABAAAAAAAAAADAAAAAgABAA2AAAAAgAAABwAAAAcAAAAHAAAAAAAIEEAAAABaAAAAE3PAEOw////tP///wEAAAAUAAAAEAAaAAgABwAMAAAAEAAUABAAAAAAAAABHAAAAAAAoEEcAAAAAgAAAAAACgAIAAUABgAHAAoAAAAADAD//P///wQABAAEAAAACAAIAAYABwAIAAAAAAAMAA==</value>
					</parameter>
					<parameter authoringApp="PremierePro">
					<parameterid>2</parameterid>
					<name></name>
					<IsTimeVarying>false</IsTimeVarying>
					<ParameterControlType>11</ParameterControlType>
					<LowerBound>false</LowerBound>
					<UpperBound>false</UpperBound>
					<value>-91445760000000000,false,0,0,0,0,0,0</value>
					</parameter>
					<parameter authoringApp="PremierePro">
					<parameterid>3</parameterid>
					<name></name>
					<IsTimeVarying>false</IsTimeVarying>
					<value>-91445760000000000,0.5:0.5,0,0,0,0,0,0,5,4,0,0,0,0</value>
					</parameter>
					<parameter authoringApp="PremierePro">
					<parameterid>4</parameterid>
					<name></name>
					<IsTimeVarying>false</IsTimeVarying>
					<ParameterControlType>2</ParameterControlType>
					<LowerBound>0</LowerBound>
					<UpperBound>4000</UpperBound>
					<value>-91445760000000000,100.,0,0,0,0,0,0</value>
					</parameter>
					<parameter authoringApp="PremierePro">
					<parameterid>8</parameterid>
					<name></name>
					<IsTimeVarying>false</IsTimeVarying>
					<ParameterControlType>2</ParameterControlType>
					<LowerBound>0</LowerBound>
					<UpperBound>100</UpperBound>
					<value>-91445760000000000,100.,0,0,0,0,0,0</value>
					</parameter>
					</effect>
					</filter>
					<logginginfo>
					<description></description>
					<scene></scene>
					<shottake></shottake>
					<lognote></lognote>
					<good></good>
					<originalvideofilename></originalvideofilename>
					<originalaudiofilename></originalaudiofilename>
					</logginginfo>
					<colorinfo>
					<lut></lut>
					<lut1></lut1>
					<asc_sop></asc_sop>
					<asc_sat></asc_sat>
					<lut2></lut2>
					</colorinfo>
					<labels>
					</labels>
					</clipitem>
					<clipitem frameBlend="FALSE" id="clipitem-506">
					<masterclipid>masterclip-426</masterclipid>
					<name></name>
					<enabled>TRUE</enabled>
					<duration>2582774</duration>
					<rate>
					
					                                    <timebase>60</timebase>
					                                    <ntsc>TRUE</ntsc>
					                                
					</rate>
					<start>3982</start>
					<end>4048</end>
					<in>3982</in>
					<out>4048</out>
					<pproTicksIn>914456774963789</pproTicksIn>
					<pproTicksOut>914677708529577</pproTicksOut>
					<alphatype>straight</alphatype>
					<pixelaspectratio>square</pixelaspectratio>
					<anamorphic>FALSE</anamorphic>
					<file id="file-425">
					<name></name>
					<mediaSource>GraphicAndType</mediaSource>
					<rate>
					<timebase>60</timebase>
					<ntsc>TRUE</ntsc>
					</rate>
					<timecode>
					<rate>
					<timebase>60</timebase>
					<ntsc>TRUE</ntsc>
					</rate>
					<string>00:00:00:00</string>
					<frame>0</frame>
					<displayformat>NDF</displayformat>
					</timecode>
					<media>
					<video>
					<samplecharacteristics>
					<rate>
					<timebase>60</timebase>
					<ntsc>TRUE</ntsc>
					</rate>
					<width>1080</width>
					<height>1920</height>
					<anamorphic>FALSE</anamorphic>
					<pixelaspectratio>square</pixelaspectratio>
					<fielddominance>none</fielddominance>
					</samplecharacteristics>
					</video>
					</media>
					</file>
					<filter>
					<effect>
					<name></name>
					<effectid>GraphicAndType</effectid>
					<effectcategory>graphic</effectcategory>
					<effecttype>filter</effecttype>
					<mediatype>video</mediatype>
					<pproBypass>false</pproBypass>
					<parameter authoringApp="PremierePro">
					<parameterid>1</parameterid>
					<name></name>
					<hash>025b1101-ead6-0ca2-1feb-caf3000001fc</hash>
					<value>5AEAAAAAAABEMyIRDAAAAAAABgAKAAQABgAAAGQAAAAAAF4ASAAQAAwARABAADwAOAAAAAAAAAAAADQAMwAsAAAAKAAkACAAAAAAAAAAAAAAAAAAHAAAAAAAGgAAAAAAAAAUAAAAAAAAAAAAAAAAAAAAAAAAAAgAAAAAABsABwBeAAAAAAAAAUAAAABQAAAAbAAAAAIAAAAAAAEAAQAAAAAAQEEAAMBAAABAQAAAyEIAAAABIAAAAAIAAAACAAAAAAA2QwCASkTw/v//9P7///j+//8S////AAAAAAEAAAAEAAAAEQAAAEhHUFNvZWlLYWt1cG9wdGFpAAAAAQAAAAwAAAAIAAwABAAIAAgAAAAIAAAAUAAAAA8AAADvvIEAAAAAAAAAAAAAAAAAAAA2ACQAAAAgABwAAAAAABsAFAAAAAAAAAAAAAAAAAAAAAAAAAAAABAAAAAAAAAADAAAAAgABAA2AAAAAgAAABwAAAAcAAAAHAAAAAAAIEEAAAABaAAAAE3PAEOw////tP///wEAAAAUAAAAEAAaAAgABwAMAAAAEAAUABAAAAAAAAABHAAAAAAAoEEcAAAAAgAAAAAACgAIAAUABgAHAAoAAAAADAD//P///wQABAAEAAAACAAIAAYABwAIAAAAAAAMAA==</value>
					</parameter>
					<parameter authoringApp="PremierePro">
					<parameterid>2</parameterid>
					<name></name>
					<IsTimeVarying>false</IsTimeVarying>
					<ParameterControlType>11</ParameterControlType>
					<LowerBound>false</LowerBound>
					<UpperBound>false</UpperBound>
					<value>-91445760000000000,false,0,0,0,0,0,0</value>
					</parameter>
					<parameter authoringApp="PremierePro">
					<parameterid>3</parameterid>
					<name></name>
					<IsTimeVarying>false</IsTimeVarying>
					<value>-91445760000000000,0.5:0.5,0,0,0,0,0,0,5,4,0,0,0,0</value>
					</parameter>
					<parameter authoringApp="PremierePro">
					<parameterid>4</parameterid>
					<name></name>
					<IsTimeVarying>false</IsTimeVarying>
					<ParameterControlType>2</ParameterControlType>
					<LowerBound>0</LowerBound>
					<UpperBound>4000</UpperBound>
					<value>-91445760000000000,100.,0,0,0,0,0,0</value>
					</parameter>
					<parameter authoringApp="PremierePro">
					<parameterid>8</parameterid>
					<name></name>
					<IsTimeVarying>false</IsTimeVarying>
					<ParameterControlType>2</ParameterControlType>
					<LowerBound>0</LowerBound>
					<UpperBound>100</UpperBound>
					<value>-91445760000000000,100.,0,0,0,0,0,0</value>
					</parameter>
					</effect>
					</filter>
					<logginginfo>
					<description></description>
					<scene></scene>
					<shottake></shottake>
					<lognote></lognote>
					<good></good>
					<originalvideofilename></originalvideofilename>
					<originalaudiofilename></originalaudiofilename>
					</logginginfo>
					<colorinfo>
					<lut></lut>
					<lut1></lut1>
					<asc_sop></asc_sop>
					<asc_sat></asc_sat>
					<lut2></lut2>
					</colorinfo>
					<labels>
					</labels>
					</clipitem>
					<clipitem frameBlend="FALSE" id="clipitem-510">
					<masterclipid>masterclip-430</masterclipid>
					<name></name>
					<enabled>TRUE</enabled>
					<duration>2582774</duration>
					<rate>
					
					                                    <timebase>60</timebase>
					                                    <ntsc>TRUE</ntsc>
					                                
					</rate>
					<start>4060</start>
					<end>4120</end>
					<in>4060</in>
					<out>4120</out>
					<pproTicksIn>914456774963789</pproTicksIn>
					<pproTicksOut>914677708529577</pproTicksOut>
					<alphatype>straight</alphatype>
					<pixelaspectratio>square</pixelaspectratio>
					<anamorphic>FALSE</anamorphic>
					<file id="file-429">
					<name></name>
					<mediaSource>GraphicAndType</mediaSource>
					<rate>
					<timebase>60</timebase>
					<ntsc>TRUE</ntsc>
					</rate>
					<timecode>
					<rate>
					<timebase>60</timebase>
					<ntsc>TRUE</ntsc>
					</rate>
					<string>00:00:00:00</string>
					<frame>0</frame>
					<displayformat>NDF</displayformat>
					</timecode>
					<media>
					<video>
					<samplecharacteristics>
					<rate>
					<timebase>60</timebase>
					<ntsc>TRUE</ntsc>
					</rate>
					<width>1080</width>
					<height>1920</height>
					<anamorphic>FALSE</anamorphic>
					<pixelaspectratio>square</pixelaspectratio>
					<fielddominance>none</fielddominance>
					</samplecharacteristics>
					</video>
					</media>
					</file>
					<filter>
					<effect>
					<name></name>
					<effectid>GraphicAndType</effectid>
					<effectcategory>graphic</effectcategory>
					<effecttype>filter</effecttype>
					<mediatype>video</mediatype>
					<pproBypass>false</pproBypass>
					<parameter authoringApp="PremierePro">
					<parameterid>1</parameterid>
					<name></name>
					<hash>025b1101-ead6-0ca2-1feb-caf3000001fc</hash>
					<value>5AEAAAAAAABEMyIRDAAAAAAABgAKAAQABgAAAGQAAAAAAF4ASAAQAAwARABAADwAOAAAAAAAAAAAADQAMwAsAAAAKAAkACAAAAAAAAAAAAAAAAAAHAAAAAAAGgAAAAAAAAAUAAAAAAAAAAAAAAAAAAAAAAAAAAgAAAAAABsABwBeAAAAAAAAAUAAAABQAAAAbAAAAAIAAAAAAAEAAQAAAAAAQEEAAMBAAABAQAAAyEIAAAABIAAAAAIAAAACAAAAAAA2QwCASkTw/v//9P7///j+//8S////AAAAAAEAAAAEAAAAEQAAAEhHUFNvZWlLYWt1cG9wdGFpAAAAAQAAAAwAAAAIAAwABAAIAAgAAAAIAAAAUAAAAA8AAADvvIEAAAAAAAAAAAAAAAAAAAA2ACQAAAAgABwAAAAAABsAFAAAAAAAAAAAAAAAAAAAAAAAAAAAABAAAAAAAAAADAAAAAgABAA2AAAAAgAAABwAAAAcAAAAHAAAAAAAIEEAAAABaAAAAE3PAEOw////tP///wEAAAAUAAAAEAAaAAgABwAMAAAAEAAUABAAAAAAAAABHAAAAAAAoEEcAAAAAgAAAAAACgAIAAUABgAHAAoAAAAADAD//P///wQABAAEAAAACAAIAAYABwAIAAAAAAAMAA==</value>
					</parameter>
					<parameter authoringApp="PremierePro">
					<parameterid>2</parameterid>
					<name></name>
					<IsTimeVarying>false</IsTimeVarying>
					<ParameterControlType>11</ParameterControlType>
					<LowerBound>false</LowerBound>
					<UpperBound>false</UpperBound>
					<value>-91445760000000000,false,0,0,0,0,0,0</value>
					</parameter>
					<parameter authoringApp="PremierePro">
					<parameterid>3</parameterid>
					<name></name>
					<IsTimeVarying>false</IsTimeVarying>
					<value>-91445760000000000,0.5:0.5,0,0,0,0,0,0,5,4,0,0,0,0</value>
					</parameter>
					<parameter authoringApp="PremierePro">
					<parameterid>4</parameterid>
					<name></name>
					<IsTimeVarying>false</IsTimeVarying>
					<ParameterControlType>2</ParameterControlType>
					<LowerBound>0</LowerBound>
					<UpperBound>4000</UpperBound>
					<value>-91445760000000000,100.,0,0,0,0,0,0</value>
					</parameter>
					<parameter authoringApp="PremierePro">
					<parameterid>8</parameterid>
					<name></name>
					<IsTimeVarying>false</IsTimeVarying>
					<ParameterControlType>2</ParameterControlType>
					<LowerBound>0</LowerBound>
					<UpperBound>100</UpperBound>
					<value>-91445760000000000,100.,0,0,0,0,0,0</value>
					</parameter>
					</effect>
					</filter>
					<logginginfo>
					<description></description>
					<scene></scene>
					<shottake></shottake>
					<lognote></lognote>
					<good></good>
					<originalvideofilename></originalvideofilename>
					<originalaudiofilename></originalaudiofilename>
					</logginginfo>
					<colorinfo>
					<lut></lut>
					<lut1></lut1>
					<asc_sop></asc_sop>
					<asc_sat></asc_sat>
					<lut2></lut2>
					</colorinfo>
					<labels>
					</labels>
					</clipitem>
					<clipitem frameBlend="FALSE" id="clipitem-515">
					<masterclipid>masterclip-435</masterclipid>
					<name></name>
					<enabled>TRUE</enabled>
					<duration>2582774</duration>
					<rate>
					
					                                    <timebase>60</timebase>
					                                    <ntsc>TRUE</ntsc>
					                                
					</rate>
					<start>4138</start>
					<end>4198</end>
					<in>4138</in>
					<out>4198</out>
					<pproTicksIn>914456774963789</pproTicksIn>
					<pproTicksOut>914677708529577</pproTicksOut>
					<alphatype>straight</alphatype>
					<pixelaspectratio>square</pixelaspectratio>
					<anamorphic>FALSE</anamorphic>
					<file id="file-434">
					<name></name>
					<mediaSource>GraphicAndType</mediaSource>
					<rate>
					<timebase>60</timebase>
					<ntsc>TRUE</ntsc>
					</rate>
					<timecode>
					<rate>
					<timebase>60</timebase>
					<ntsc>TRUE</ntsc>
					</rate>
					<string>00:00:00:00</string>
					<frame>0</frame>
					<displayformat>NDF</displayformat>
					</timecode>
					<media>
					<video>
					<samplecharacteristics>
					<rate>
					<timebase>60</timebase>
					<ntsc>TRUE</ntsc>
					</rate>
					<width>1080</width>
					<height>1920</height>
					<anamorphic>FALSE</anamorphic>
					<pixelaspectratio>square</pixelaspectratio>
					<fielddominance>none</fielddominance>
					</samplecharacteristics>
					</video>
					</media>
					</file>
					<filter>
					<effect>
					<name></name>
					<effectid>GraphicAndType</effectid>
					<effectcategory>graphic</effectcategory>
					<effecttype>filter</effecttype>
					<mediatype>video</mediatype>
					<pproBypass>false</pproBypass>
					<parameter authoringApp="PremierePro">
					<parameterid>1</parameterid>
					<name></name>
					<hash>025b1101-ead6-0ca2-1feb-caf3000001fc</hash>
					<value>5AEAAAAAAABEMyIRDAAAAAAABgAKAAQABgAAAGQAAAAAAF4ASAAQAAwARABAADwAOAAAAAAAAAAAADQAMwAsAAAAKAAkACAAAAAAAAAAAAAAAAAAHAAAAAAAGgAAAAAAAAAUAAAAAAAAAAAAAAAAAAAAAAAAAAgAAAAAABsABwBeAAAAAAAAAUAAAABQAAAAbAAAAAIAAAAAAAEAAQAAAAAAQEEAAMBAAABAQAAAyEIAAAABIAAAAAIAAAACAAAAAAA2QwCASkTw/v//9P7///j+//8S////AAAAAAEAAAAEAAAAEQAAAEhHUFNvZWlLYWt1cG9wdGFpAAAAAQAAAAwAAAAIAAwABAAIAAgAAAAIAAAAUAAAAA8AAADvvIEAAAAAAAAAAAAAAAAAAAA2ACQAAAAgABwAAAAAABsAFAAAAAAAAAAAAAAAAAAAAAAAAAAAABAAAAAAAAAADAAAAAgABAA2AAAAAgAAABwAAAAcAAAAHAAAAAAAIEEAAAABaAAAAE3PAEOw////tP///wEAAAAUAAAAEAAaAAgABwAMAAAAEAAUABAAAAAAAAABHAAAAAAAoEEcAAAAAgAAAAAACgAIAAUABgAHAAoAAAAADAD//P///wQABAAEAAAACAAIAAYABwAIAAAAAAAMAA==</value>
					</parameter>
					<parameter authoringApp="PremierePro">
					<parameterid>2</parameterid>
					<name></name>
					<IsTimeVarying>false</IsTimeVarying>
					<ParameterControlType>11</ParameterControlType>
					<LowerBound>false</LowerBound>
					<UpperBound>false</UpperBound>
					<value>-91445760000000000,false,0,0,0,0,0,0</value>
					</parameter>
					<parameter authoringApp="PremierePro">
					<parameterid>3</parameterid>
					<name></name>
					<IsTimeVarying>false</IsTimeVarying>
					<value>-91445760000000000,0.5:0.5,0,0,0,0,0,0,5,4,0,0,0,0</value>
					</parameter>
					<parameter authoringApp="PremierePro">
					<parameterid>4</parameterid>
					<name></name>
					<IsTimeVarying>false</IsTimeVarying>
					<ParameterControlType>2</ParameterControlType>
					<LowerBound>0</LowerBound>
					<UpperBound>4000</UpperBound>
					<value>-91445760000000000,100.,0,0,0,0,0,0</value>
					</parameter>
					<parameter authoringApp="PremierePro">
					<parameterid>8</parameterid>
					<name></name>
					<IsTimeVarying>false</IsTimeVarying>
					<ParameterControlType>2</ParameterControlType>
					<LowerBound>0</LowerBound>
					<UpperBound>100</UpperBound>
					<value>-91445760000000000,100.,0,0,0,0,0,0</value>
					</parameter>
					</effect>
					</filter>
					<logginginfo>
					<description></description>
					<scene></scene>
					<shottake></shottake>
					<lognote></lognote>
					<good></good>
					<originalvideofilename></originalvideofilename>
					<originalaudiofilename></originalaudiofilename>
					</logginginfo>
					<colorinfo>
					<lut></lut>
					<lut1></lut1>
					<asc_sop></asc_sop>
					<asc_sat></asc_sat>
					<lut2></lut2>
					</colorinfo>
					<labels>
					</labels>
					</clipitem>
					<clipitem frameBlend="FALSE" id="clipitem-518">
					<masterclipid>masterclip-438</masterclipid>
					<name></name>
					<enabled>TRUE</enabled>
					<duration>2582774</duration>
					<rate>
					
					                                    <timebase>60</timebase>
					                                    <ntsc>TRUE</ntsc>
					                                
					</rate>
					<start>4210</start>
					<end>4270</end>
					<in>4210</in>
					<out>4270</out>
					<pproTicksIn>914456774963789</pproTicksIn>
					<pproTicksOut>914677708529577</pproTicksOut>
					<alphatype>straight</alphatype>
					<pixelaspectratio>square</pixelaspectratio>
					<anamorphic>FALSE</anamorphic>
					<file id="file-437">
					<name></name>
					<mediaSource>GraphicAndType</mediaSource>
					<rate>
					<timebase>60</timebase>
					<ntsc>TRUE</ntsc>
					</rate>
					<timecode>
					<rate>
					<timebase>60</timebase>
					<ntsc>TRUE</ntsc>
					</rate>
					<string>00:00:00:00</string>
					<frame>0</frame>
					<displayformat>NDF</displayformat>
					</timecode>
					<media>
					<video>
					<samplecharacteristics>
					<rate>
					<timebase>60</timebase>
					<ntsc>TRUE</ntsc>
					</rate>
					<width>1080</width>
					<height>1920</height>
					<anamorphic>FALSE</anamorphic>
					<pixelaspectratio>square</pixelaspectratio>
					<fielddominance>none</fielddominance>
					</samplecharacteristics>
					</video>
					</media>
					</file>
					<filter>
					<effect>
					<name></name>
					<effectid>GraphicAndType</effectid>
					<effectcategory>graphic</effectcategory>
					<effecttype>filter</effecttype>
					<mediatype>video</mediatype>
					<pproBypass>false</pproBypass>
					<parameter authoringApp="PremierePro">
					<parameterid>1</parameterid>
					<name></name>
					<hash>025b1101-ead6-0ca2-1feb-caf3000001fc</hash>
					<value>5AEAAAAAAABEMyIRDAAAAAAABgAKAAQABgAAAGQAAAAAAF4ASAAQAAwARABAADwAOAAAAAAAAAAAADQAMwAsAAAAKAAkACAAAAAAAAAAAAAAAAAAHAAAAAAAGgAAAAAAAAAUAAAAAAAAAAAAAAAAAAAAAAAAAAgAAAAAABsABwBeAAAAAAAAAUAAAABQAAAAbAAAAAIAAAAAAAEAAQAAAAAAQEEAAMBAAABAQAAAyEIAAAABIAAAAAIAAAACAAAAAAA2QwCASkTw/v//9P7///j+//8S////AAAAAAEAAAAEAAAAEQAAAEhHUFNvZWlLYWt1cG9wdGFpAAAAAQAAAAwAAAAIAAwABAAIAAgAAAAIAAAAUAAAAA8AAADvvIEAAAAAAAAAAAAAAAAAAAA2ACQAAAAgABwAAAAAABsAFAAAAAAAAAAAAAAAAAAAAAAAAAAAABAAAAAAAAAADAAAAAgABAA2AAAAAgAAABwAAAAcAAAAHAAAAAAAIEEAAAABaAAAAE3PAEOw////tP///wEAAAAUAAAAEAAaAAgABwAMAAAAEAAUABAAAAAAAAABHAAAAAAAoEEcAAAAAgAAAAAACgAIAAUABgAHAAoAAAAADAD//P///wQABAAEAAAACAAIAAYABwAIAAAAAAAMAA==</value>
					</parameter>
					<parameter authoringApp="PremierePro">
					<parameterid>2</parameterid>
					<name></name>
					<IsTimeVarying>false</IsTimeVarying>
					<ParameterControlType>11</ParameterControlType>
					<LowerBound>false</LowerBound>
					<UpperBound>false</UpperBound>
					<value>-91445760000000000,false,0,0,0,0,0,0</value>
					</parameter>
					<parameter authoringApp="PremierePro">
					<parameterid>3</parameterid>
					<name></name>
					<IsTimeVarying>false</IsTimeVarying>
					<value>-91445760000000000,0.5:0.5,0,0,0,0,0,0,5,4,0,0,0,0</value>
					</parameter>
					<parameter authoringApp="PremierePro">
					<parameterid>4</parameterid>
					<name></name>
					<IsTimeVarying>false</IsTimeVarying>
					<ParameterControlType>2</ParameterControlType>
					<LowerBound>0</LowerBound>
					<UpperBound>4000</UpperBound>
					<value>-91445760000000000,100.,0,0,0,0,0,0</value>
					</parameter>
					<parameter authoringApp="PremierePro">
					<parameterid>8</parameterid>
					<name></name>
					<IsTimeVarying>false</IsTimeVarying>
					<ParameterControlType>2</ParameterControlType>
					<LowerBound>0</LowerBound>
					<UpperBound>100</UpperBound>
					<value>-91445760000000000,100.,0,0,0,0,0,0</value>
					</parameter>
					</effect>
					</filter>
					<logginginfo>
					<description></description>
					<scene></scene>
					<shottake></shottake>
					<lognote></lognote>
					<good></good>
					<originalvideofilename></originalvideofilename>
					<originalaudiofilename></originalaudiofilename>
					</logginginfo>
					<colorinfo>
					<lut></lut>
					<lut1></lut1>
					<asc_sop></asc_sop>
					<asc_sat></asc_sat>
					<lut2></lut2>
					</colorinfo>
					<labels>
					</labels>
					</clipitem>
					<clipitem frameBlend="FALSE" id="clipitem-526">
					<masterclipid>masterclip-446</masterclipid>
					<name></name>
					<enabled>TRUE</enabled>
					<duration>2582774</duration>
					<rate>
					
					                                    <timebase>60</timebase>
					                                    <ntsc>TRUE</ntsc>
					                                
					</rate>
					<start>4270</start>
					<end>4330</end>
					<in>4270</in>
					<out>4330</out>
					<pproTicksIn>914456774963789</pproTicksIn>
					<pproTicksOut>914677708529577</pproTicksOut>
					<alphatype>straight</alphatype>
					<pixelaspectratio>square</pixelaspectratio>
					<anamorphic>FALSE</anamorphic>
					<file id="file-445">
					<name></name>
					<mediaSource>GraphicAndType</mediaSource>
					<rate>
					<timebase>60</timebase>
					<ntsc>TRUE</ntsc>
					</rate>
					<timecode>
					<rate>
					<timebase>60</timebase>
					<ntsc>TRUE</ntsc>
					</rate>
					<string>00:00:00:00</string>
					<frame>0</frame>
					<displayformat>NDF</displayformat>
					</timecode>
					<media>
					<video>
					<samplecharacteristics>
					<rate>
					<timebase>60</timebase>
					<ntsc>TRUE</ntsc>
					</rate>
					<width>1080</width>
					<height>1920</height>
					<anamorphic>FALSE</anamorphic>
					<pixelaspectratio>square</pixelaspectratio>
					<fielddominance>none</fielddominance>
					</samplecharacteristics>
					</video>
					</media>
					</file>
					<filter>
					<effect>
					<name></name>
					<effectid>GraphicAndType</effectid>
					<effectcategory>graphic</effectcategory>
					<effecttype>filter</effecttype>
					<mediatype>video</mediatype>
					<pproBypass>false</pproBypass>
					<parameter authoringApp="PremierePro">
					<parameterid>1</parameterid>
					<name></name>
					<hash>025b1101-ead6-0ca2-1feb-caf3000001fc</hash>
					<value>5AEAAAAAAABEMyIRDAAAAAAABgAKAAQABgAAAGQAAAAAAF4ASAAQAAwARABAADwAOAAAAAAAAAAAADQAMwAsAAAAKAAkACAAAAAAAAAAAAAAAAAAHAAAAAAAGgAAAAAAAAAUAAAAAAAAAAAAAAAAAAAAAAAAAAgAAAAAABsABwBeAAAAAAAAAUAAAABQAAAAbAAAAAIAAAAAAAEAAQAAAAAAQEEAAMBAAABAQAAAyEIAAAABIAAAAAIAAAACAAAAAAA2QwCASkTw/v//9P7///j+//8S////AAAAAAEAAAAEAAAAEQAAAEhHUFNvZWlLYWt1cG9wdGFpAAAAAQAAAAwAAAAIAAwABAAIAAgAAAAIAAAAUAAAAA8AAADvvIEAAAAAAAAAAAAAAAAAAAA2ACQAAAAgABwAAAAAABsAFAAAAAAAAAAAAAAAAAAAAAAAAAAAABAAAAAAAAAADAAAAAgABAA2AAAAAgAAABwAAAAcAAAAHAAAAAAAIEEAAAABaAAAAE3PAEOw////tP///wEAAAAUAAAAEAAaAAgABwAMAAAAEAAUABAAAAAAAAABHAAAAAAAoEEcAAAAAgAAAAAACgAIAAUABgAHAAoAAAAADAD//P///wQABAAEAAAACAAIAAYABwAIAAAAAAAMAA==</value>
					</parameter>
					<parameter authoringApp="PremierePro">
					<parameterid>2</parameterid>
					<name></name>
					<IsTimeVarying>false</IsTimeVarying>
					<ParameterControlType>11</ParameterControlType>
					<LowerBound>false</LowerBound>
					<UpperBound>false</UpperBound>
					<value>-91445760000000000,false,0,0,0,0,0,0</value>
					</parameter>
					<parameter authoringApp="PremierePro">
					<parameterid>3</parameterid>
					<name></name>
					<IsTimeVarying>false</IsTimeVarying>
					<value>-91445760000000000,0.5:0.5,0,0,0,0,0,0,5,4,0,0,0,0</value>
					</parameter>
					<parameter authoringApp="PremierePro">
					<parameterid>4</parameterid>
					<name></name>
					<IsTimeVarying>false</IsTimeVarying>
					<ParameterControlType>2</ParameterControlType>
					<LowerBound>0</LowerBound>
					<UpperBound>4000</UpperBound>
					<value>-91445760000000000,100.,0,0,0,0,0,0</value>
					</parameter>
					<parameter authoringApp="PremierePro">
					<parameterid>8</parameterid>
					<name></name>
					<IsTimeVarying>false</IsTimeVarying>
					<ParameterControlType>2</ParameterControlType>
					<LowerBound>0</LowerBound>
					<UpperBound>100</UpperBound>
					<value>-91445760000000000,100.,0,0,0,0,0,0</value>
					</parameter>
					</effect>
					</filter>
					<logginginfo>
					<description></description>
					<scene></scene>
					<shottake></shottake>
					<lognote></lognote>
					<good></good>
					<originalvideofilename></originalvideofilename>
					<originalaudiofilename></originalaudiofilename>
					</logginginfo>
					<colorinfo>
					<lut></lut>
					<lut1></lut1>
					<asc_sop></asc_sop>
					<asc_sat></asc_sat>
					<lut2></lut2>
					</colorinfo>
					<labels>
					</labels>
					</clipitem>
					<clipitem frameBlend="FALSE" id="clipitem-532">
					<masterclipid>masterclip-452</masterclipid>
					<name></name>
					<enabled>TRUE</enabled>
					<duration>2582774</duration>
					<rate>
					
					                                    <timebase>60</timebase>
					                                    <ntsc>TRUE</ntsc>
					                                
					</rate>
					<start>4336</start>
					<end>4396</end>
					<in>4336</in>
					<out>4396</out>
					<pproTicksIn>914456774963789</pproTicksIn>
					<pproTicksOut>914677708529577</pproTicksOut>
					<alphatype>straight</alphatype>
					<pixelaspectratio>square</pixelaspectratio>
					<anamorphic>FALSE</anamorphic>
					<file id="file-451">
					<name></name>
					<mediaSource>GraphicAndType</mediaSource>
					<rate>
					<timebase>60</timebase>
					<ntsc>TRUE</ntsc>
					</rate>
					<timecode>
					<rate>
					<timebase>60</timebase>
					<ntsc>TRUE</ntsc>
					</rate>
					<string>00:00:00:00</string>
					<frame>0</frame>
					<displayformat>NDF</displayformat>
					</timecode>
					<media>
					<video>
					<samplecharacteristics>
					<rate>
					<timebase>60</timebase>
					<ntsc>TRUE</ntsc>
					</rate>
					<width>1080</width>
					<height>1920</height>
					<anamorphic>FALSE</anamorphic>
					<pixelaspectratio>square</pixelaspectratio>
					<fielddominance>none</fielddominance>
					</samplecharacteristics>
					</video>
					</media>
					</file>
					<filter>
					<effect>
					<name></name>
					<effectid>GraphicAndType</effectid>
					<effectcategory>graphic</effectcategory>
					<effecttype>filter</effecttype>
					<mediatype>video</mediatype>
					<pproBypass>false</pproBypass>
					<parameter authoringApp="PremierePro">
					<parameterid>1</parameterid>
					<name></name>
					<hash>025b1101-ead6-0ca2-1feb-caf3000001fc</hash>
					<value>5AEAAAAAAABEMyIRDAAAAAAABgAKAAQABgAAAGQAAAAAAF4ASAAQAAwARABAADwAOAAAAAAAAAAAADQAMwAsAAAAKAAkACAAAAAAAAAAAAAAAAAAHAAAAAAAGgAAAAAAAAAUAAAAAAAAAAAAAAAAAAAAAAAAAAgAAAAAABsABwBeAAAAAAAAAUAAAABQAAAAbAAAAAIAAAAAAAEAAQAAAAAAQEEAAMBAAABAQAAAyEIAAAABIAAAAAIAAAACAAAAAAA2QwCASkTw/v//9P7///j+//8S////AAAAAAEAAAAEAAAAEQAAAEhHUFNvZWlLYWt1cG9wdGFpAAAAAQAAAAwAAAAIAAwABAAIAAgAAAAIAAAAUAAAAA8AAADvvIEAAAAAAAAAAAAAAAAAAAA2ACQAAAAgABwAAAAAABsAFAAAAAAAAAAAAAAAAAAAAAAAAAAAABAAAAAAAAAADAAAAAgABAA2AAAAAgAAABwAAAAcAAAAHAAAAAAAIEEAAAABaAAAAE3PAEOw////tP///wEAAAAUAAAAEAAaAAgABwAMAAAAEAAUABAAAAAAAAABHAAAAAAAoEEcAAAAAgAAAAAACgAIAAUABgAHAAoAAAAADAD//P///wQABAAEAAAACAAIAAYABwAIAAAAAAAMAA==</value>
					</parameter>
					<parameter authoringApp="PremierePro">
					<parameterid>2</parameterid>
					<name></name>
					<IsTimeVarying>false</IsTimeVarying>
					<ParameterControlType>11</ParameterControlType>
					<LowerBound>false</LowerBound>
					<UpperBound>false</UpperBound>
					<value>-91445760000000000,false,0,0,0,0,0,0</value>
					</parameter>
					<parameter authoringApp="PremierePro">
					<parameterid>3</parameterid>
					<name></name>
					<IsTimeVarying>false</IsTimeVarying>
					<value>-91445760000000000,0.5:0.5,0,0,0,0,0,0,5,4,0,0,0,0</value>
					</parameter>
					<parameter authoringApp="PremierePro">
					<parameterid>4</parameterid>
					<name></name>
					<IsTimeVarying>false</IsTimeVarying>
					<ParameterControlType>2</ParameterControlType>
					<LowerBound>0</LowerBound>
					<UpperBound>4000</UpperBound>
					<value>-91445760000000000,100.,0,0,0,0,0,0</value>
					</parameter>
					<parameter authoringApp="PremierePro">
					<parameterid>8</parameterid>
					<name></name>
					<IsTimeVarying>false</IsTimeVarying>
					<ParameterControlType>2</ParameterControlType>
					<LowerBound>0</LowerBound>
					<UpperBound>100</UpperBound>
					<value>-91445760000000000,100.,0,0,0,0,0,0</value>
					</parameter>
					</effect>
					</filter>
					<logginginfo>
					<description></description>
					<scene></scene>
					<shottake></shottake>
					<lognote></lognote>
					<good></good>
					<originalvideofilename></originalvideofilename>
					<originalaudiofilename></originalaudiofilename>
					</logginginfo>
					<colorinfo>
					<lut></lut>
					<lut1></lut1>
					<asc_sop></asc_sop>
					<asc_sat></asc_sat>
					<lut2></lut2>
					</colorinfo>
					<labels>
					</labels>
					</clipitem>
					<clipitem frameBlend="FALSE" id="clipitem-538">
					<masterclipid>masterclip-458</masterclipid>
					<name></name>
					<enabled>TRUE</enabled>
					<duration>2582774</duration>
					<rate>
					
					                                    <timebase>60</timebase>
					                                    <ntsc>TRUE</ntsc>
					                                
					</rate>
					<start>4396</start>
					<end>4456</end>
					<in>4396</in>
					<out>4456</out>
					<pproTicksIn>914456774963789</pproTicksIn>
					<pproTicksOut>914677708529577</pproTicksOut>
					<alphatype>straight</alphatype>
					<pixelaspectratio>square</pixelaspectratio>
					<anamorphic>FALSE</anamorphic>
					<file id="file-457">
					<name></name>
					<mediaSource>GraphicAndType</mediaSource>
					<rate>
					<timebase>60</timebase>
					<ntsc>TRUE</ntsc>
					</rate>
					<timecode>
					<rate>
					<timebase>60</timebase>
					<ntsc>TRUE</ntsc>
					</rate>
					<string>00:00:00:00</string>
					<frame>0</frame>
					<displayformat>NDF</displayformat>
					</timecode>
					<media>
					<video>
					<samplecharacteristics>
					<rate>
					<timebase>60</timebase>
					<ntsc>TRUE</ntsc>
					</rate>
					<width>1080</width>
					<height>1920</height>
					<anamorphic>FALSE</anamorphic>
					<pixelaspectratio>square</pixelaspectratio>
					<fielddominance>none</fielddominance>
					</samplecharacteristics>
					</video>
					</media>
					</file>
					<filter>
					<effect>
					<name></name>
					<effectid>GraphicAndType</effectid>
					<effectcategory>graphic</effectcategory>
					<effecttype>filter</effecttype>
					<mediatype>video</mediatype>
					<pproBypass>false</pproBypass>
					<parameter authoringApp="PremierePro">
					<parameterid>1</parameterid>
					<name></name>
					<hash>025b1101-ead6-0ca2-1feb-caf3000001fc</hash>
					<value>5AEAAAAAAABEMyIRDAAAAAAABgAKAAQABgAAAGQAAAAAAF4ASAAQAAwARABAADwAOAAAAAAAAAAAADQAMwAsAAAAKAAkACAAAAAAAAAAAAAAAAAAHAAAAAAAGgAAAAAAAAAUAAAAAAAAAAAAAAAAAAAAAAAAAAgAAAAAABsABwBeAAAAAAAAAUAAAABQAAAAbAAAAAIAAAAAAAEAAQAAAAAAQEEAAMBAAABAQAAAyEIAAAABIAAAAAIAAAACAAAAAAA2QwCASkTw/v//9P7///j+//8S////AAAAAAEAAAAEAAAAEQAAAEhHUFNvZWlLYWt1cG9wdGFpAAAAAQAAAAwAAAAIAAwABAAIAAgAAAAIAAAAUAAAAA8AAADvvIEAAAAAAAAAAAAAAAAAAAA2ACQAAAAgABwAAAAAABsAFAAAAAAAAAAAAAAAAAAAAAAAAAAAABAAAAAAAAAADAAAAAgABAA2AAAAAgAAABwAAAAcAAAAHAAAAAAAIEEAAAABaAAAAE3PAEOw////tP///wEAAAAUAAAAEAAaAAgABwAMAAAAEAAUABAAAAAAAAABHAAAAAAAoEEcAAAAAgAAAAAACgAIAAUABgAHAAoAAAAADAD//P///wQABAAEAAAACAAIAAYABwAIAAAAAAAMAA==</value>
					</parameter>
					<parameter authoringApp="PremierePro">
					<parameterid>2</parameterid>
					<name></name>
					<IsTimeVarying>false</IsTimeVarying>
					<ParameterControlType>11</ParameterControlType>
					<LowerBound>false</LowerBound>
					<UpperBound>false</UpperBound>
					<value>-91445760000000000,false,0,0,0,0,0,0</value>
					</parameter>
					<parameter authoringApp="PremierePro">
					<parameterid>3</parameterid>
					<name></name>
					<IsTimeVarying>false</IsTimeVarying>
					<value>-91445760000000000,0.5:0.5,0,0,0,0,0,0,5,4,0,0,0,0</value>
					</parameter>
					<parameter authoringApp="PremierePro">
					<parameterid>4</parameterid>
					<name></name>
					<IsTimeVarying>false</IsTimeVarying>
					<ParameterControlType>2</ParameterControlType>
					<LowerBound>0</LowerBound>
					<UpperBound>4000</UpperBound>
					<value>-91445760000000000,100.,0,0,0,0,0,0</value>
					</parameter>
					<parameter authoringApp="PremierePro">
					<parameterid>8</parameterid>
					<name></name>
					<IsTimeVarying>false</IsTimeVarying>
					<ParameterControlType>2</ParameterControlType>
					<LowerBound>0</LowerBound>
					<UpperBound>100</UpperBound>
					<value>-91445760000000000,100.,0,0,0,0,0,0</value>
					</parameter>
					</effect>
					</filter>
					<logginginfo>
					<description></description>
					<scene></scene>
					<shottake></shottake>
					<lognote></lognote>
					<good></good>
					<originalvideofilename></originalvideofilename>
					<originalaudiofilename></originalaudiofilename>
					</logginginfo>
					<colorinfo>
					<lut></lut>
					<lut1></lut1>
					<asc_sop></asc_sop>
					<asc_sat></asc_sat>
					<lut2></lut2>
					</colorinfo>
					<labels>
					</labels>
					</clipitem>
					<clipitem frameBlend="FALSE" id="clipitem-548">
					<masterclipid>masterclip-468</masterclipid>
					<name></name>
					<enabled>TRUE</enabled>
					<duration>2582774</duration>
					<rate>
					
					                                    <timebase>60</timebase>
					                                    <ntsc>TRUE</ntsc>
					                                
					</rate>
					<start>4456</start>
					<end>4516</end>
					<in>4456</in>
					<out>4516</out>
					<pproTicksIn>914456774963789</pproTicksIn>
					<pproTicksOut>914677708529577</pproTicksOut>
					<alphatype>straight</alphatype>
					<pixelaspectratio>square</pixelaspectratio>
					<anamorphic>FALSE</anamorphic>
					<file id="file-467">
					<name></name>
					<mediaSource>GraphicAndType</mediaSource>
					<rate>
					<timebase>60</timebase>
					<ntsc>TRUE</ntsc>
					</rate>
					<timecode>
					<rate>
					<timebase>60</timebase>
					<ntsc>TRUE</ntsc>
					</rate>
					<string>00:00:00:00</string>
					<frame>0</frame>
					<displayformat>NDF</displayformat>
					</timecode>
					<media>
					<video>
					<samplecharacteristics>
					<rate>
					<timebase>60</timebase>
					<ntsc>TRUE</ntsc>
					</rate>
					<width>1080</width>
					<height>1920</height>
					<anamorphic>FALSE</anamorphic>
					<pixelaspectratio>square</pixelaspectratio>
					<fielddominance>none</fielddominance>
					</samplecharacteristics>
					</video>
					</media>
					</file>
					<filter>
					<effect>
					<name></name>
					<effectid>GraphicAndType</effectid>
					<effectcategory>graphic</effectcategory>
					<effecttype>filter</effecttype>
					<mediatype>video</mediatype>
					<pproBypass>false</pproBypass>
					<parameter authoringApp="PremierePro">
					<parameterid>1</parameterid>
					<name></name>
					<hash>025b1101-ead6-0ca2-1feb-caf3000001fc</hash>
					<value>5AEAAAAAAABEMyIRDAAAAAAABgAKAAQABgAAAGQAAAAAAF4ASAAQAAwARABAADwAOAAAAAAAAAAAADQAMwAsAAAAKAAkACAAAAAAAAAAAAAAAAAAHAAAAAAAGgAAAAAAAAAUAAAAAAAAAAAAAAAAAAAAAAAAAAgAAAAAABsABwBeAAAAAAAAAUAAAABQAAAAbAAAAAIAAAAAAAEAAQAAAAAAQEEAAMBAAABAQAAAyEIAAAABIAAAAAIAAAACAAAAAAA2QwCASkTw/v//9P7///j+//8S////AAAAAAEAAAAEAAAAEQAAAEhHUFNvZWlLYWt1cG9wdGFpAAAAAQAAAAwAAAAIAAwABAAIAAgAAAAIAAAAUAAAAA8AAADvvIEAAAAAAAAAAAAAAAAAAAA2ACQAAAAgABwAAAAAABsAFAAAAAAAAAAAAAAAAAAAAAAAAAAAABAAAAAAAAAADAAAAAgABAA2AAAAAgAAABwAAAAcAAAAHAAAAAAAIEEAAAABaAAAAE3PAEOw////tP///wEAAAAUAAAAEAAaAAgABwAMAAAAEAAUABAAAAAAAAABHAAAAAAAoEEcAAAAAgAAAAAACgAIAAUABgAHAAoAAAAADAD//P///wQABAAEAAAACAAIAAYABwAIAAAAAAAMAA==</value>
					</parameter>
					<parameter authoringApp="PremierePro">
					<parameterid>2</parameterid>
					<name></name>
					<IsTimeVarying>false</IsTimeVarying>
					<ParameterControlType>11</ParameterControlType>
					<LowerBound>false</LowerBound>
					<UpperBound>false</UpperBound>
					<value>-91445760000000000,false,0,0,0,0,0,0</value>
					</parameter>
					<parameter authoringApp="PremierePro">
					<parameterid>3</parameterid>
					<name></name>
					<IsTimeVarying>false</IsTimeVarying>
					<value>-91445760000000000,0.5:0.5,0,0,0,0,0,0,5,4,0,0,0,0</value>
					</parameter>
					<parameter authoringApp="PremierePro">
					<parameterid>4</parameterid>
					<name></name>
					<IsTimeVarying>false</IsTimeVarying>
					<ParameterControlType>2</ParameterControlType>
					<LowerBound>0</LowerBound>
					<UpperBound>4000</UpperBound>
					<value>-91445760000000000,100.,0,0,0,0,0,0</value>
					</parameter>
					<parameter authoringApp="PremierePro">
					<parameterid>8</parameterid>
					<name></name>
					<IsTimeVarying>false</IsTimeVarying>
					<ParameterControlType>2</ParameterControlType>
					<LowerBound>0</LowerBound>
					<UpperBound>100</UpperBound>
					<value>-91445760000000000,100.,0,0,0,0,0,0</value>
					</parameter>
					</effect>
					</filter>
					<logginginfo>
					<description></description>
					<scene></scene>
					<shottake></shottake>
					<lognote></lognote>
					<good></good>
					<originalvideofilename></originalvideofilename>
					<originalaudiofilename></originalaudiofilename>
					</logginginfo>
					<colorinfo>
					<lut></lut>
					<lut1></lut1>
					<asc_sop></asc_sop>
					<asc_sat></asc_sat>
					<lut2></lut2>
					</colorinfo>
					<labels>
					</labels>
					</clipitem>
					<clipitem frameBlend="FALSE" id="clipitem-557">
					<masterclipid>masterclip-477</masterclipid>
					<name></name>
					<enabled>TRUE</enabled>
					<duration>2582774</duration>
					<rate>
					
					                                    <timebase>60</timebase>
					                                    <ntsc>TRUE</ntsc>
					                                
					</rate>
					<start>4546</start>
					<end>4606</end>
					<in>4546</in>
					<out>4606</out>
					<pproTicksIn>914456774963789</pproTicksIn>
					<pproTicksOut>914677708529577</pproTicksOut>
					<alphatype>straight</alphatype>
					<pixelaspectratio>square</pixelaspectratio>
					<anamorphic>FALSE</anamorphic>
					<file id="file-476">
					<name></name>
					<mediaSource>GraphicAndType</mediaSource>
					<rate>
					<timebase>60</timebase>
					<ntsc>TRUE</ntsc>
					</rate>
					<timecode>
					<rate>
					<timebase>60</timebase>
					<ntsc>TRUE</ntsc>
					</rate>
					<string>00:00:00:00</string>
					<frame>0</frame>
					<displayformat>NDF</displayformat>
					</timecode>
					<media>
					<video>
					<samplecharacteristics>
					<rate>
					<timebase>60</timebase>
					<ntsc>TRUE</ntsc>
					</rate>
					<width>1080</width>
					<height>1920</height>
					<anamorphic>FALSE</anamorphic>
					<pixelaspectratio>square</pixelaspectratio>
					<fielddominance>none</fielddominance>
					</samplecharacteristics>
					</video>
					</media>
					</file>
					<filter>
					<effect>
					<name></name>
					<effectid>GraphicAndType</effectid>
					<effectcategory>graphic</effectcategory>
					<effecttype>filter</effecttype>
					<mediatype>video</mediatype>
					<pproBypass>false</pproBypass>
					<parameter authoringApp="PremierePro">
					<parameterid>1</parameterid>
					<name></name>
					<hash>025b1101-ead6-0ca2-1feb-caf3000001fc</hash>
					<value>5AEAAAAAAABEMyIRDAAAAAAABgAKAAQABgAAAGQAAAAAAF4ASAAQAAwARABAADwAOAAAAAAAAAAAADQAMwAsAAAAKAAkACAAAAAAAAAAAAAAAAAAHAAAAAAAGgAAAAAAAAAUAAAAAAAAAAAAAAAAAAAAAAAAAAgAAAAAABsABwBeAAAAAAAAAUAAAABQAAAAbAAAAAIAAAAAAAEAAQAAAAAAQEEAAMBAAABAQAAAyEIAAAABIAAAAAIAAAACAAAAAAA2QwCASkTw/v//9P7///j+//8S////AAAAAAEAAAAEAAAAEQAAAEhHUFNvZWlLYWt1cG9wdGFpAAAAAQAAAAwAAAAIAAwABAAIAAgAAAAIAAAAUAAAAA8AAADvvIEAAAAAAAAAAAAAAAAAAAA2ACQAAAAgABwAAAAAABsAFAAAAAAAAAAAAAAAAAAAAAAAAAAAABAAAAAAAAAADAAAAAgABAA2AAAAAgAAABwAAAAcAAAAHAAAAAAAIEEAAAABaAAAAE3PAEOw////tP///wEAAAAUAAAAEAAaAAgABwAMAAAAEAAUABAAAAAAAAABHAAAAAAAoEEcAAAAAgAAAAAACgAIAAUABgAHAAoAAAAADAD//P///wQABAAEAAAACAAIAAYABwAIAAAAAAAMAA==</value>
					</parameter>
					<parameter authoringApp="PremierePro">
					<parameterid>2</parameterid>
					<name></name>
					<IsTimeVarying>false</IsTimeVarying>
					<ParameterControlType>11</ParameterControlType>
					<LowerBound>false</LowerBound>
					<UpperBound>false</UpperBound>
					<value>-91445760000000000,false,0,0,0,0,0,0</value>
					</parameter>
					<parameter authoringApp="PremierePro">
					<parameterid>3</parameterid>
					<name></name>
					<IsTimeVarying>false</IsTimeVarying>
					<value>-91445760000000000,0.5:0.5,0,0,0,0,0,0,5,4,0,0,0,0</value>
					</parameter>
					<parameter authoringApp="PremierePro">
					<parameterid>4</parameterid>
					<name></name>
					<IsTimeVarying>false</IsTimeVarying>
					<ParameterControlType>2</ParameterControlType>
					<LowerBound>0</LowerBound>
					<UpperBound>4000</UpperBound>
					<value>-91445760000000000,100.,0,0,0,0,0,0</value>
					</parameter>
					<parameter authoringApp="PremierePro">
					<parameterid>8</parameterid>
					<name></name>
					<IsTimeVarying>false</IsTimeVarying>
					<ParameterControlType>2</ParameterControlType>
					<LowerBound>0</LowerBound>
					<UpperBound>100</UpperBound>
					<value>-91445760000000000,100.,0,0,0,0,0,0</value>
					</parameter>
					</effect>
					</filter>
					<logginginfo>
					<description></description>
					<scene></scene>
					<shottake></shottake>
					<lognote></lognote>
					<good></good>
					<originalvideofilename></originalvideofilename>
					<originalaudiofilename></originalaudiofilename>
					</logginginfo>
					<colorinfo>
					<lut></lut>
					<lut1></lut1>
					<asc_sop></asc_sop>
					<asc_sat></asc_sat>
					<lut2></lut2>
					</colorinfo>
					<labels>
					</labels>
					</clipitem>
					<clipitem id="clipitem-562"/>
					                        </track>
					                        <track TL.SQTrackShy="0" TL.SQTrackExpandedHeight="25" TL.SQTrackExpanded="0" MZ.TrackTargeted="0">
					<clipitem frameBlend="FALSE" id="clipitem-563">
					<masterclipid>masterclip-483</masterclipid>
					<name></name>
					<enabled>TRUE</enabled>
					<duration>2582774</duration>
					<rate>
					
					                                    <timebase>60</timebase>
					                                    <ntsc>TRUE</ntsc>
					                                
					</rate>
					<start>4606</start>
					<end>4666</end>
					<in>4606</in>
					<out>4666</out>
					<pproTicksIn>914456774963789</pproTicksIn>
					<pproTicksOut>914677708529577</pproTicksOut>
					<alphatype>straight</alphatype>
					<pixelaspectratio>square</pixelaspectratio>
					<anamorphic>FALSE</anamorphic>
					<file id="file-482">
					<name></name>
					<mediaSource>GraphicAndType</mediaSource>
					<rate>
					<timebase>60</timebase>
					<ntsc>TRUE</ntsc>
					</rate>
					<timecode>
					<rate>
					<timebase>60</timebase>
					<ntsc>TRUE</ntsc>
					</rate>
					<string>00:00:00:00</string>
					<frame>0</frame>
					<displayformat>NDF</displayformat>
					</timecode>
					<media>
					<video>
					<samplecharacteristics>
					<rate>
					<timebase>60</timebase>
					<ntsc>TRUE</ntsc>
					</rate>
					<width>1080</width>
					<height>1920</height>
					<anamorphic>FALSE</anamorphic>
					<pixelaspectratio>square</pixelaspectratio>
					<fielddominance>none</fielddominance>
					</samplecharacteristics>
					</video>
					</media>
					</file>
					<filter>
					<effect>
					<name></name>
					<effectid>GraphicAndType</effectid>
					<effectcategory>graphic</effectcategory>
					<effecttype>filter</effecttype>
					<mediatype>video</mediatype>
					<pproBypass>false</pproBypass>
					<parameter authoringApp="PremierePro">
					<parameterid>1</parameterid>
					<name></name>
					<hash>025b1101-ead6-0ca2-1feb-caf3000001fc</hash>
					<value>5AEAAAAAAABEMyIRDAAAAAAABgAKAAQABgAAAGQAAAAAAF4ASAAQAAwARABAADwAOAAAAAAAAAAAADQAMwAsAAAAKAAkACAAAAAAAAAAAAAAAAAAHAAAAAAAGgAAAAAAAAAUAAAAAAAAAAAAAAAAAAAAAAAAAAgAAAAAABsABwBeAAAAAAAAAUAAAABQAAAAbAAAAAIAAAAAAAEAAQAAAAAAQEEAAMBAAABAQAAAyEIAAAABIAAAAAIAAAACAAAAAAA2QwCASkTw/v//9P7///j+//8S////AAAAAAEAAAAEAAAAEQAAAEhHUFNvZWlLYWt1cG9wdGFpAAAAAQAAAAwAAAAIAAwABAAIAAgAAAAIAAAAUAAAAA8AAADvvIEAAAAAAAAAAAAAAAAAAAA2ACQAAAAgABwAAAAAABsAFAAAAAAAAAAAAAAAAAAAAAAAAAAAABAAAAAAAAAADAAAAAgABAA2AAAAAgAAABwAAAAcAAAAHAAAAAAAIEEAAAABaAAAAE3PAEOw////tP///wEAAAAUAAAAEAAaAAgABwAMAAAAEAAUABAAAAAAAAABHAAAAAAAoEEcAAAAAgAAAAAACgAIAAUABgAHAAoAAAAADAD//P///wQABAAEAAAACAAIAAYABwAIAAAAAAAMAA==</value>
					</parameter>
					<parameter authoringApp="PremierePro">
					<parameterid>2</parameterid>
					<name></name>
					<IsTimeVarying>false</IsTimeVarying>
					<ParameterControlType>11</ParameterControlType>
					<LowerBound>false</LowerBound>
					<UpperBound>false</UpperBound>
					<value>-91445760000000000,false,0,0,0,0,0,0</value>
					</parameter>
					<parameter authoringApp="PremierePro">
					<parameterid>3</parameterid>
					<name></name>
					<IsTimeVarying>false</IsTimeVarying>
					<value>-91445760000000000,0.5:0.5,0,0,0,0,0,0,5,4,0,0,0,0</value>
					</parameter>
					<parameter authoringApp="PremierePro">
					<parameterid>4</parameterid>
					<name></name>
					<IsTimeVarying>false</IsTimeVarying>
					<ParameterControlType>2</ParameterControlType>
					<LowerBound>0</LowerBound>
					<UpperBound>4000</UpperBound>
					<value>-91445760000000000,100.,0,0,0,0,0,0</value>
					</parameter>
					<parameter authoringApp="PremierePro">
					<parameterid>8</parameterid>
					<name></name>
					<IsTimeVarying>false</IsTimeVarying>
					<ParameterControlType>2</ParameterControlType>
					<LowerBound>0</LowerBound>
					<UpperBound>100</UpperBound>
					<value>-91445760000000000,100.,0,0,0,0,0,0</value>
					</parameter>
					</effect>
					</filter>
					<logginginfo>
					<description></description>
					<scene></scene>
					<shottake></shottake>
					<lognote></lognote>
					<good></good>
					<originalvideofilename></originalvideofilename>
					<originalaudiofilename></originalaudiofilename>
					</logginginfo>
					<colorinfo>
					<lut></lut>
					<lut1></lut1>
					<asc_sop></asc_sop>
					<asc_sat></asc_sat>
					<lut2></lut2>
					</colorinfo>
					<labels>
					</labels>
					</clipitem>
					<clipitem frameBlend="FALSE" id="clipitem-568">
					<masterclipid>masterclip-488</masterclipid>
					<name></name>
					<enabled>TRUE</enabled>
					<duration>2582774</duration>
					<rate>
					
					                                    <timebase>60</timebase>
					                                    <ntsc>TRUE</ntsc>
					                                
					</rate>
					<start>4666</start>
					<end>4726</end>
					<in>4666</in>
					<out>4726</out>
					<pproTicksIn>914456774963789</pproTicksIn>
					<pproTicksOut>914677708529577</pproTicksOut>
					<alphatype>straight</alphatype>
					<pixelaspectratio>square</pixelaspectratio>
					<anamorphic>FALSE</anamorphic>
					<file id="file-487">
					<name></name>
					<mediaSource>GraphicAndType</mediaSource>
					<rate>
					<timebase>60</timebase>
					<ntsc>TRUE</ntsc>
					</rate>
					<timecode>
					<rate>
					<timebase>60</timebase>
					<ntsc>TRUE</ntsc>
					</rate>
					<string>00:00:00:00</string>
					<frame>0</frame>
					<displayformat>NDF</displayformat>
					</timecode>
					<media>
					<video>
					<samplecharacteristics>
					<rate>
					<timebase>60</timebase>
					<ntsc>TRUE</ntsc>
					</rate>
					<width>1080</width>
					<height>1920</height>
					<anamorphic>FALSE</anamorphic>
					<pixelaspectratio>square</pixelaspectratio>
					<fielddominance>none</fielddominance>
					</samplecharacteristics>
					</video>
					</media>
					</file>
					<filter>
					<effect>
					<name></name>
					<effectid>GraphicAndType</effectid>
					<effectcategory>graphic</effectcategory>
					<effecttype>filter</effecttype>
					<mediatype>video</mediatype>
					<pproBypass>false</pproBypass>
					<parameter authoringApp="PremierePro">
					<parameterid>1</parameterid>
					<name></name>
					<hash>025b1101-ead6-0ca2-1feb-caf3000001fc</hash>
					<value>5AEAAAAAAABEMyIRDAAAAAAABgAKAAQABgAAAGQAAAAAAF4ASAAQAAwARABAADwAOAAAAAAAAAAAADQAMwAsAAAAKAAkACAAAAAAAAAAAAAAAAAAHAAAAAAAGgAAAAAAAAAUAAAAAAAAAAAAAAAAAAAAAAAAAAgAAAAAABsABwBeAAAAAAAAAUAAAABQAAAAbAAAAAIAAAAAAAEAAQAAAAAAQEEAAMBAAABAQAAAyEIAAAABIAAAAAIAAAACAAAAAAA2QwCASkTw/v//9P7///j+//8S////AAAAAAEAAAAEAAAAEQAAAEhHUFNvZWlLYWt1cG9wdGFpAAAAAQAAAAwAAAAIAAwABAAIAAgAAAAIAAAAUAAAAA8AAADvvIEAAAAAAAAAAAAAAAAAAAA2ACQAAAAgABwAAAAAABsAFAAAAAAAAAAAAAAAAAAAAAAAAAAAABAAAAAAAAAADAAAAAgABAA2AAAAAgAAABwAAAAcAAAAHAAAAAAAIEEAAAABaAAAAE3PAEOw////tP///wEAAAAUAAAAEAAaAAgABwAMAAAAEAAUABAAAAAAAAABHAAAAAAAoEEcAAAAAgAAAAAACgAIAAUABgAHAAoAAAAADAD//P///wQABAAEAAAACAAIAAYABwAIAAAAAAAMAA==</value>
					</parameter>
					<parameter authoringApp="PremierePro">
					<parameterid>2</parameterid>
					<name></name>
					<IsTimeVarying>false</IsTimeVarying>
					<ParameterControlType>11</ParameterControlType>
					<LowerBound>false</LowerBound>
					<UpperBound>false</UpperBound>
					<value>-91445760000000000,false,0,0,0,0,0,0</value>
					</parameter>
					<parameter authoringApp="PremierePro">
					<parameterid>3</parameterid>
					<name></name>
					<IsTimeVarying>false</IsTimeVarying>
					<value>-91445760000000000,0.5:0.5,0,0,0,0,0,0,5,4,0,0,0,0</value>
					</parameter>
					<parameter authoringApp="PremierePro">
					<parameterid>4</parameterid>
					<name></name>
					<IsTimeVarying>false</IsTimeVarying>
					<ParameterControlType>2</ParameterControlType>
					<LowerBound>0</LowerBound>
					<UpperBound>4000</UpperBound>
					<value>-91445760000000000,100.,0,0,0,0,0,0</value>
					</parameter>
					<parameter authoringApp="PremierePro">
					<parameterid>8</parameterid>
					<name></name>
					<IsTimeVarying>false</IsTimeVarying>
					<ParameterControlType>2</ParameterControlType>
					<LowerBound>0</LowerBound>
					<UpperBound>100</UpperBound>
					<value>-91445760000000000,100.,0,0,0,0,0,0</value>
					</parameter>
					</effect>
					</filter>
					<logginginfo>
					<description></description>
					<scene></scene>
					<shottake></shottake>
					<lognote></lognote>
					<good></good>
					<originalvideofilename></originalvideofilename>
					<originalaudiofilename></originalaudiofilename>
					</logginginfo>
					<colorinfo>
					<lut></lut>
					<lut1></lut1>
					<asc_sop></asc_sop>
					<asc_sat></asc_sat>
					<lut2></lut2>
					</colorinfo>
					<labels>
					</labels>
					</clipitem>
					<clipitem id="clipitem-573"/>
					                        </track>
					                        <track TL.SQTrackShy="0" TL.SQTrackExpandedHeight="25" TL.SQTrackExpanded="0" MZ.TrackTargeted="0">
					<clipitem frameBlend="FALSE" id="clipitem-574">
					<masterclipid>masterclip-494</masterclipid>
					<name></name>
					<enabled>TRUE</enabled>
					<duration>2582774</duration>
					<rate>
					
					                                    <timebase>60</timebase>
					                                    <ntsc>TRUE</ntsc>
					                                
					</rate>
					<start>4732</start>
					<end>4792</end>
					<in>4732</in>
					<out>4792</out>
					<pproTicksIn>914456774963789</pproTicksIn>
					<pproTicksOut>914677708529577</pproTicksOut>
					<alphatype>straight</alphatype>
					<pixelaspectratio>square</pixelaspectratio>
					<anamorphic>FALSE</anamorphic>
					<file id="file-493">
					<name></name>
					<mediaSource>GraphicAndType</mediaSource>
					<rate>
					<timebase>60</timebase>
					<ntsc>TRUE</ntsc>
					</rate>
					<timecode>
					<rate>
					<timebase>60</timebase>
					<ntsc>TRUE</ntsc>
					</rate>
					<string>00:00:00:00</string>
					<frame>0</frame>
					<displayformat>NDF</displayformat>
					</timecode>
					<media>
					<video>
					<samplecharacteristics>
					<rate>
					<timebase>60</timebase>
					<ntsc>TRUE</ntsc>
					</rate>
					<width>1080</width>
					<height>1920</height>
					<anamorphic>FALSE</anamorphic>
					<pixelaspectratio>square</pixelaspectratio>
					<fielddominance>none</fielddominance>
					</samplecharacteristics>
					</video>
					</media>
					</file>
					<filter>
					<effect>
					<name></name>
					<effectid>GraphicAndType</effectid>
					<effectcategory>graphic</effectcategory>
					<effecttype>filter</effecttype>
					<mediatype>video</mediatype>
					<pproBypass>false</pproBypass>
					<parameter authoringApp="PremierePro">
					<parameterid>1</parameterid>
					<name></name>
					<hash>025b1101-ead6-0ca2-1feb-caf3000001fc</hash>
					<value>5AEAAAAAAABEMyIRDAAAAAAABgAKAAQABgAAAGQAAAAAAF4ASAAQAAwARABAADwAOAAAAAAAAAAAADQAMwAsAAAAKAAkACAAAAAAAAAAAAAAAAAAHAAAAAAAGgAAAAAAAAAUAAAAAAAAAAAAAAAAAAAAAAAAAAgAAAAAABsABwBeAAAAAAAAAUAAAABQAAAAbAAAAAIAAAAAAAEAAQAAAAAAQEEAAMBAAABAQAAAyEIAAAABIAAAAAIAAAACAAAAAAA2QwCASkTw/v//9P7///j+//8S////AAAAAAEAAAAEAAAAEQAAAEhHUFNvZWlLYWt1cG9wdGFpAAAAAQAAAAwAAAAIAAwABAAIAAgAAAAIAAAAUAAAAA8AAADvvIEAAAAAAAAAAAAAAAAAAAA2ACQAAAAgABwAAAAAABsAFAAAAAAAAAAAAAAAAAAAAAAAAAAAABAAAAAAAAAADAAAAAgABAA2AAAAAgAAABwAAAAcAAAAHAAAAAAAIEEAAAABaAAAAE3PAEOw////tP///wEAAAAUAAAAEAAaAAgABwAMAAAAEAAUABAAAAAAAAABHAAAAAAAoEEcAAAAAgAAAAAACgAIAAUABgAHAAoAAAAADAD//P///wQABAAEAAAACAAIAAYABwAIAAAAAAAMAA==</value>
					</parameter>
					<parameter authoringApp="PremierePro">
					<parameterid>2</parameterid>
					<name></name>
					<IsTimeVarying>false</IsTimeVarying>
					<ParameterControlType>11</ParameterControlType>
					<LowerBound>false</LowerBound>
					<UpperBound>false</UpperBound>
					<value>-91445760000000000,false,0,0,0,0,0,0</value>
					</parameter>
					<parameter authoringApp="PremierePro">
					<parameterid>3</parameterid>
					<name></name>
					<IsTimeVarying>false</IsTimeVarying>
					<value>-91445760000000000,0.5:0.5,0,0,0,0,0,0,5,4,0,0,0,0</value>
					</parameter>
					<parameter authoringApp="PremierePro">
					<parameterid>4</parameterid>
					<name></name>
					<IsTimeVarying>false</IsTimeVarying>
					<ParameterControlType>2</ParameterControlType>
					<LowerBound>0</LowerBound>
					<UpperBound>4000</UpperBound>
					<value>-91445760000000000,100.,0,0,0,0,0,0</value>
					</parameter>
					<parameter authoringApp="PremierePro">
					<parameterid>8</parameterid>
					<name></name>
					<IsTimeVarying>false</IsTimeVarying>
					<ParameterControlType>2</ParameterControlType>
					<LowerBound>0</LowerBound>
					<UpperBound>100</UpperBound>
					<value>-91445760000000000,100.,0,0,0,0,0,0</value>
					</parameter>
					</effect>
					</filter>
					<logginginfo>
					<description></description>
					<scene></scene>
					<shottake></shottake>
					<lognote></lognote>
					<good></good>
					<originalvideofilename></originalvideofilename>
					<originalaudiofilename></originalaudiofilename>
					</logginginfo>
					<colorinfo>
					<lut></lut>
					<lut1></lut1>
					<asc_sop></asc_sop>
					<asc_sat></asc_sat>
					<lut2></lut2>
					</colorinfo>
					<labels>
					</labels>
					</clipitem>
					<clipitem frameBlend="FALSE" id="clipitem-579">
					<masterclipid>masterclip-499</masterclipid>
					<name></name>
					<enabled>TRUE</enabled>
					<duration>2582774</duration>
					<rate>
					
					                                    <timebase>60</timebase>
					                                    <ntsc>TRUE</ntsc>
					                                
					</rate>
					<start>4798</start>
					<end>4864</end>
					<in>4798</in>
					<out>4864</out>
					<pproTicksIn>914456774963789</pproTicksIn>
					<pproTicksOut>914677708529577</pproTicksOut>
					<alphatype>straight</alphatype>
					<pixelaspectratio>square</pixelaspectratio>
					<anamorphic>FALSE</anamorphic>
					<file id="file-498">
					<name></name>
					<mediaSource>GraphicAndType</mediaSource>
					<rate>
					<timebase>60</timebase>
					<ntsc>TRUE</ntsc>
					</rate>
					<timecode>
					<rate>
					<timebase>60</timebase>
					<ntsc>TRUE</ntsc>
					</rate>
					<string>00:00:00:00</string>
					<frame>0</frame>
					<displayformat>NDF</displayformat>
					</timecode>
					<media>
					<video>
					<samplecharacteristics>
					<rate>
					<timebase>60</timebase>
					<ntsc>TRUE</ntsc>
					</rate>
					<width>1080</width>
					<height>1920</height>
					<anamorphic>FALSE</anamorphic>
					<pixelaspectratio>square</pixelaspectratio>
					<fielddominance>none</fielddominance>
					</samplecharacteristics>
					</video>
					</media>
					</file>
					<filter>
					<effect>
					<name></name>
					<effectid>GraphicAndType</effectid>
					<effectcategory>graphic</effectcategory>
					<effecttype>filter</effecttype>
					<mediatype>video</mediatype>
					<pproBypass>false</pproBypass>
					<parameter authoringApp="PremierePro">
					<parameterid>1</parameterid>
					<name></name>
					<hash>025b1101-ead6-0ca2-1feb-caf3000001fc</hash>
					<value>5AEAAAAAAABEMyIRDAAAAAAABgAKAAQABgAAAGQAAAAAAF4ASAAQAAwARABAADwAOAAAAAAAAAAAADQAMwAsAAAAKAAkACAAAAAAAAAAAAAAAAAAHAAAAAAAGgAAAAAAAAAUAAAAAAAAAAAAAAAAAAAAAAAAAAgAAAAAABsABwBeAAAAAAAAAUAAAABQAAAAbAAAAAIAAAAAAAEAAQAAAAAAQEEAAMBAAABAQAAAyEIAAAABIAAAAAIAAAACAAAAAAA2QwCASkTw/v//9P7///j+//8S////AAAAAAEAAAAEAAAAEQAAAEhHUFNvZWlLYWt1cG9wdGFpAAAAAQAAAAwAAAAIAAwABAAIAAgAAAAIAAAAUAAAAA8AAADvvIEAAAAAAAAAAAAAAAAAAAA2ACQAAAAgABwAAAAAABsAFAAAAAAAAAAAAAAAAAAAAAAAAAAAABAAAAAAAAAADAAAAAgABAA2AAAAAgAAABwAAAAcAAAAHAAAAAAAIEEAAAABaAAAAE3PAEOw////tP///wEAAAAUAAAAEAAaAAgABwAMAAAAEAAUABAAAAAAAAABHAAAAAAAoEEcAAAAAgAAAAAACgAIAAUABgAHAAoAAAAADAD//P///wQABAAEAAAACAAIAAYABwAIAAAAAAAMAA==</value>
					</parameter>
					<parameter authoringApp="PremierePro">
					<parameterid>2</parameterid>
					<name></name>
					<IsTimeVarying>false</IsTimeVarying>
					<ParameterControlType>11</ParameterControlType>
					<LowerBound>false</LowerBound>
					<UpperBound>false</UpperBound>
					<value>-91445760000000000,false,0,0,0,0,0,0</value>
					</parameter>
					<parameter authoringApp="PremierePro">
					<parameterid>3</parameterid>
					<name></name>
					<IsTimeVarying>false</IsTimeVarying>
					<value>-91445760000000000,0.5:0.5,0,0,0,0,0,0,5,4,0,0,0,0</value>
					</parameter>
					<parameter authoringApp="PremierePro">
					<parameterid>4</parameterid>
					<name></name>
					<IsTimeVarying>false</IsTimeVarying>
					<ParameterControlType>2</ParameterControlType>
					<LowerBound>0</LowerBound>
					<UpperBound>4000</UpperBound>
					<value>-91445760000000000,100.,0,0,0,0,0,0</value>
					</parameter>
					<parameter authoringApp="PremierePro">
					<parameterid>8</parameterid>
					<name></name>
					<IsTimeVarying>false</IsTimeVarying>
					<ParameterControlType>2</ParameterControlType>
					<LowerBound>0</LowerBound>
					<UpperBound>100</UpperBound>
					<value>-91445760000000000,100.,0,0,0,0,0,0</value>
					</parameter>
					</effect>
					</filter>
					<logginginfo>
					<description></description>
					<scene></scene>
					<shottake></shottake>
					<lognote></lognote>
					<good></good>
					<originalvideofilename></originalvideofilename>
					<originalaudiofilename></originalaudiofilename>
					</logginginfo>
					<colorinfo>
					<lut></lut>
					<lut1></lut1>
					<asc_sop></asc_sop>
					<asc_sat></asc_sat>
					<lut2></lut2>
					</colorinfo>
					<labels>
					</labels>
					</clipitem>
					<clipitem frameBlend="FALSE" id="clipitem-590">
					<masterclipid>masterclip-510</masterclipid>
					<name></name>
					<enabled>TRUE</enabled>
					<duration>2582774</duration>
					<rate>
					
					                                    <timebase>60</timebase>
					                                    <ntsc>TRUE</ntsc>
					                                
					</rate>
					<start>4912</start>
					<end>4972</end>
					<in>4912</in>
					<out>4972</out>
					<pproTicksIn>914456774963789</pproTicksIn>
					<pproTicksOut>914677708529577</pproTicksOut>
					<alphatype>straight</alphatype>
					<pixelaspectratio>square</pixelaspectratio>
					<anamorphic>FALSE</anamorphic>
					<file id="file-509">
					<name></name>
					<mediaSource>GraphicAndType</mediaSource>
					<rate>
					<timebase>60</timebase>
					<ntsc>TRUE</ntsc>
					</rate>
					<timecode>
					<rate>
					<timebase>60</timebase>
					<ntsc>TRUE</ntsc>
					</rate>
					<string>00:00:00:00</string>
					<frame>0</frame>
					<displayformat>NDF</displayformat>
					</timecode>
					<media>
					<video>
					<samplecharacteristics>
					<rate>
					<timebase>60</timebase>
					<ntsc>TRUE</ntsc>
					</rate>
					<width>1080</width>
					<height>1920</height>
					<anamorphic>FALSE</anamorphic>
					<pixelaspectratio>square</pixelaspectratio>
					<fielddominance>none</fielddominance>
					</samplecharacteristics>
					</video>
					</media>
					</file>
					<filter>
					<effect>
					<name></name>
					<effectid>GraphicAndType</effectid>
					<effectcategory>graphic</effectcategory>
					<effecttype>filter</effecttype>
					<mediatype>video</mediatype>
					<pproBypass>false</pproBypass>
					<parameter authoringApp="PremierePro">
					<parameterid>1</parameterid>
					<name></name>
					<hash>025b1101-ead6-0ca2-1feb-caf3000001fc</hash>
					<value>5AEAAAAAAABEMyIRDAAAAAAABgAKAAQABgAAAGQAAAAAAF4ASAAQAAwARABAADwAOAAAAAAAAAAAADQAMwAsAAAAKAAkACAAAAAAAAAAAAAAAAAAHAAAAAAAGgAAAAAAAAAUAAAAAAAAAAAAAAAAAAAAAAAAAAgAAAAAABsABwBeAAAAAAAAAUAAAABQAAAAbAAAAAIAAAAAAAEAAQAAAAAAQEEAAMBAAABAQAAAyEIAAAABIAAAAAIAAAACAAAAAAA2QwCASkTw/v//9P7///j+//8S////AAAAAAEAAAAEAAAAEQAAAEhHUFNvZWlLYWt1cG9wdGFpAAAAAQAAAAwAAAAIAAwABAAIAAgAAAAIAAAAUAAAAA8AAADvvIEAAAAAAAAAAAAAAAAAAAA2ACQAAAAgABwAAAAAABsAFAAAAAAAAAAAAAAAAAAAAAAAAAAAABAAAAAAAAAADAAAAAgABAA2AAAAAgAAABwAAAAcAAAAHAAAAAAAIEEAAAABaAAAAE3PAEOw////tP///wEAAAAUAAAAEAAaAAgABwAMAAAAEAAUABAAAAAAAAABHAAAAAAAoEEcAAAAAgAAAAAACgAIAAUABgAHAAoAAAAADAD//P///wQABAAEAAAACAAIAAYABwAIAAAAAAAMAA==</value>
					</parameter>
					<parameter authoringApp="PremierePro">
					<parameterid>2</parameterid>
					<name></name>
					<IsTimeVarying>false</IsTimeVarying>
					<ParameterControlType>11</ParameterControlType>
					<LowerBound>false</LowerBound>
					<UpperBound>false</UpperBound>
					<value>-91445760000000000,false,0,0,0,0,0,0</value>
					</parameter>
					<parameter authoringApp="PremierePro">
					<parameterid>3</parameterid>
					<name></name>
					<IsTimeVarying>false</IsTimeVarying>
					<value>-91445760000000000,0.5:0.5,0,0,0,0,0,0,5,4,0,0,0,0</value>
					</parameter>
					<parameter authoringApp="PremierePro">
					<parameterid>4</parameterid>
					<name></name>
					<IsTimeVarying>false</IsTimeVarying>
					<ParameterControlType>2</ParameterControlType>
					<LowerBound>0</LowerBound>
					<UpperBound>4000</UpperBound>
					<value>-91445760000000000,100.,0,0,0,0,0,0</value>
					</parameter>
					<parameter authoringApp="PremierePro">
					<parameterid>8</parameterid>
					<name></name>
					<IsTimeVarying>false</IsTimeVarying>
					<ParameterControlType>2</ParameterControlType>
					<LowerBound>0</LowerBound>
					<UpperBound>100</UpperBound>
					<value>-91445760000000000,100.,0,0,0,0,0,0</value>
					</parameter>
					</effect>
					</filter>
					<logginginfo>
					<description></description>
					<scene></scene>
					<shottake></shottake>
					<lognote></lognote>
					<good></good>
					<originalvideofilename></originalvideofilename>
					<originalaudiofilename></originalaudiofilename>
					</logginginfo>
					<colorinfo>
					<lut></lut>
					<lut1></lut1>
					<asc_sop></asc_sop>
					<asc_sat></asc_sat>
					<lut2></lut2>
					</colorinfo>
					<labels>
					</labels>
					</clipitem>
					<clipitem frameBlend="FALSE" id="clipitem-596">
					<masterclipid>masterclip-516</masterclipid>
					<name></name>
					<enabled>TRUE</enabled>
					<duration>2582774</duration>
					<rate>
					
					                                    <timebase>60</timebase>
					                                    <ntsc>TRUE</ntsc>
					                                
					</rate>
					<start>4984</start>
					<end>5050</end>
					<in>4984</in>
					<out>5050</out>
					<pproTicksIn>914456774963789</pproTicksIn>
					<pproTicksOut>914677708529577</pproTicksOut>
					<alphatype>straight</alphatype>
					<pixelaspectratio>square</pixelaspectratio>
					<anamorphic>FALSE</anamorphic>
					<file id="file-515">
					<name></name>
					<mediaSource>GraphicAndType</mediaSource>
					<rate>
					<timebase>60</timebase>
					<ntsc>TRUE</ntsc>
					</rate>
					<timecode>
					<rate>
					<timebase>60</timebase>
					<ntsc>TRUE</ntsc>
					</rate>
					<string>00:00:00:00</string>
					<frame>0</frame>
					<displayformat>NDF</displayformat>
					</timecode>
					<media>
					<video>
					<samplecharacteristics>
					<rate>
					<timebase>60</timebase>
					<ntsc>TRUE</ntsc>
					</rate>
					<width>1080</width>
					<height>1920</height>
					<anamorphic>FALSE</anamorphic>
					<pixelaspectratio>square</pixelaspectratio>
					<fielddominance>none</fielddominance>
					</samplecharacteristics>
					</video>
					</media>
					</file>
					<filter>
					<effect>
					<name></name>
					<effectid>GraphicAndType</effectid>
					<effectcategory>graphic</effectcategory>
					<effecttype>filter</effecttype>
					<mediatype>video</mediatype>
					<pproBypass>false</pproBypass>
					<parameter authoringApp="PremierePro">
					<parameterid>1</parameterid>
					<name></name>
					<hash>025b1101-ead6-0ca2-1feb-caf3000001fc</hash>
					<value>5AEAAAAAAABEMyIRDAAAAAAABgAKAAQABgAAAGQAAAAAAF4ASAAQAAwARABAADwAOAAAAAAAAAAAADQAMwAsAAAAKAAkACAAAAAAAAAAAAAAAAAAHAAAAAAAGgAAAAAAAAAUAAAAAAAAAAAAAAAAAAAAAAAAAAgAAAAAABsABwBeAAAAAAAAAUAAAABQAAAAbAAAAAIAAAAAAAEAAQAAAAAAQEEAAMBAAABAQAAAyEIAAAABIAAAAAIAAAACAAAAAAA2QwCASkTw/v//9P7///j+//8S////AAAAAAEAAAAEAAAAEQAAAEhHUFNvZWlLYWt1cG9wdGFpAAAAAQAAAAwAAAAIAAwABAAIAAgAAAAIAAAAUAAAAA8AAADvvIEAAAAAAAAAAAAAAAAAAAA2ACQAAAAgABwAAAAAABsAFAAAAAAAAAAAAAAAAAAAAAAAAAAAABAAAAAAAAAADAAAAAgABAA2AAAAAgAAABwAAAAcAAAAHAAAAAAAIEEAAAABaAAAAE3PAEOw////tP///wEAAAAUAAAAEAAaAAgABwAMAAAAEAAUABAAAAAAAAABHAAAAAAAoEEcAAAAAgAAAAAACgAIAAUABgAHAAoAAAAADAD//P///wQABAAEAAAACAAIAAYABwAIAAAAAAAMAA==</value>
					</parameter>
					<parameter authoringApp="PremierePro">
					<parameterid>2</parameterid>
					<name></name>
					<IsTimeVarying>false</IsTimeVarying>
					<ParameterControlType>11</ParameterControlType>
					<LowerBound>false</LowerBound>
					<UpperBound>false</UpperBound>
					<value>-91445760000000000,false,0,0,0,0,0,0</value>
					</parameter>
					<parameter authoringApp="PremierePro">
					<parameterid>3</parameterid>
					<name></name>
					<IsTimeVarying>false</IsTimeVarying>
					<value>-91445760000000000,0.5:0.5,0,0,0,0,0,0,5,4,0,0,0,0</value>
					</parameter>
					<parameter authoringApp="PremierePro">
					<parameterid>4</parameterid>
					<name></name>
					<IsTimeVarying>false</IsTimeVarying>
					<ParameterControlType>2</ParameterControlType>
					<LowerBound>0</LowerBound>
					<UpperBound>4000</UpperBound>
					<value>-91445760000000000,100.,0,0,0,0,0,0</value>
					</parameter>
					<parameter authoringApp="PremierePro">
					<parameterid>8</parameterid>
					<name></name>
					<IsTimeVarying>false</IsTimeVarying>
					<ParameterControlType>2</ParameterControlType>
					<LowerBound>0</LowerBound>
					<UpperBound>100</UpperBound>
					<value>-91445760000000000,100.,0,0,0,0,0,0</value>
					</parameter>
					</effect>
					</filter>
					<logginginfo>
					<description></description>
					<scene></scene>
					<shottake></shottake>
					<lognote></lognote>
					<good></good>
					<originalvideofilename></originalvideofilename>
					<originalaudiofilename></originalaudiofilename>
					</logginginfo>
					<colorinfo>
					<lut></lut>
					<lut1></lut1>
					<asc_sop></asc_sop>
					<asc_sat></asc_sat>
					<lut2></lut2>
					</colorinfo>
					<labels>
					</labels>
					</clipitem>
					<clipitem frameBlend="FALSE" id="clipitem-604">
					<masterclipid>masterclip-524</masterclipid>
					<name></name>
					<enabled>TRUE</enabled>
					<duration>2582774</duration>
					<rate>
					
					                                    <timebase>60</timebase>
					                                    <ntsc>TRUE</ntsc>
					                                
					</rate>
					<start>5056</start>
					<end>5116</end>
					<in>5056</in>
					<out>5116</out>
					<pproTicksIn>914456774963789</pproTicksIn>
					<pproTicksOut>914677708529577</pproTicksOut>
					<alphatype>straight</alphatype>
					<pixelaspectratio>square</pixelaspectratio>
					<anamorphic>FALSE</anamorphic>
					<file id="file-523">
					<name></name>
					<mediaSource>GraphicAndType</mediaSource>
					<rate>
					<timebase>60</timebase>
					<ntsc>TRUE</ntsc>
					</rate>
					<timecode>
					<rate>
					<timebase>60</timebase>
					<ntsc>TRUE</ntsc>
					</rate>
					<string>00:00:00:00</string>
					<frame>0</frame>
					<displayformat>NDF</displayformat>
					</timecode>
					<media>
					<video>
					<samplecharacteristics>
					<rate>
					<timebase>60</timebase>
					<ntsc>TRUE</ntsc>
					</rate>
					<width>1080</width>
					<height>1920</height>
					<anamorphic>FALSE</anamorphic>
					<pixelaspectratio>square</pixelaspectratio>
					<fielddominance>none</fielddominance>
					</samplecharacteristics>
					</video>
					</media>
					</file>
					<filter>
					<effect>
					<name></name>
					<effectid>GraphicAndType</effectid>
					<effectcategory>graphic</effectcategory>
					<effecttype>filter</effecttype>
					<mediatype>video</mediatype>
					<pproBypass>false</pproBypass>
					<parameter authoringApp="PremierePro">
					<parameterid>1</parameterid>
					<name></name>
					<hash>025b1101-ead6-0ca2-1feb-caf3000001fc</hash>
					<value>5AEAAAAAAABEMyIRDAAAAAAABgAKAAQABgAAAGQAAAAAAF4ASAAQAAwARABAADwAOAAAAAAAAAAAADQAMwAsAAAAKAAkACAAAAAAAAAAAAAAAAAAHAAAAAAAGgAAAAAAAAAUAAAAAAAAAAAAAAAAAAAAAAAAAAgAAAAAABsABwBeAAAAAAAAAUAAAABQAAAAbAAAAAIAAAAAAAEAAQAAAAAAQEEAAMBAAABAQAAAyEIAAAABIAAAAAIAAAACAAAAAAA2QwCASkTw/v//9P7///j+//8S////AAAAAAEAAAAEAAAAEQAAAEhHUFNvZWlLYWt1cG9wdGFpAAAAAQAAAAwAAAAIAAwABAAIAAgAAAAIAAAAUAAAAA8AAADvvIEAAAAAAAAAAAAAAAAAAAA2ACQAAAAgABwAAAAAABsAFAAAAAAAAAAAAAAAAAAAAAAAAAAAABAAAAAAAAAADAAAAAgABAA2AAAAAgAAABwAAAAcAAAAHAAAAAAAIEEAAAABaAAAAE3PAEOw////tP///wEAAAAUAAAAEAAaAAgABwAMAAAAEAAUABAAAAAAAAABHAAAAAAAoEEcAAAAAgAAAAAACgAIAAUABgAHAAoAAAAADAD//P///wQABAAEAAAACAAIAAYABwAIAAAAAAAMAA==</value>
					</parameter>
					<parameter authoringApp="PremierePro">
					<parameterid>2</parameterid>
					<name></name>
					<IsTimeVarying>false</IsTimeVarying>
					<ParameterControlType>11</ParameterControlType>
					<LowerBound>false</LowerBound>
					<UpperBound>false</UpperBound>
					<value>-91445760000000000,false,0,0,0,0,0,0</value>
					</parameter>
					<parameter authoringApp="PremierePro">
					<parameterid>3</parameterid>
					<name></name>
					<IsTimeVarying>false</IsTimeVarying>
					<value>-91445760000000000,0.5:0.5,0,0,0,0,0,0,5,4,0,0,0,0</value>
					</parameter>
					<parameter authoringApp="PremierePro">
					<parameterid>4</parameterid>
					<name></name>
					<IsTimeVarying>false</IsTimeVarying>
					<ParameterControlType>2</ParameterControlType>
					<LowerBound>0</LowerBound>
					<UpperBound>4000</UpperBound>
					<value>-91445760000000000,100.,0,0,0,0,0,0</value>
					</parameter>
					<parameter authoringApp="PremierePro">
					<parameterid>8</parameterid>
					<name></name>
					<IsTimeVarying>false</IsTimeVarying>
					<ParameterControlType>2</ParameterControlType>
					<LowerBound>0</LowerBound>
					<UpperBound>100</UpperBound>
					<value>-91445760000000000,100.,0,0,0,0,0,0</value>
					</parameter>
					</effect>
					</filter>
					<logginginfo>
					<description></description>
					<scene></scene>
					<shottake></shottake>
					<lognote></lognote>
					<good></good>
					<originalvideofilename></originalvideofilename>
					<originalaudiofilename></originalaudiofilename>
					</logginginfo>
					<colorinfo>
					<lut></lut>
					<lut1></lut1>
					<asc_sop></asc_sop>
					<asc_sat></asc_sat>
					<lut2></lut2>
					</colorinfo>
					<labels>
					</labels>
					</clipitem>
					<clipitem frameBlend="FALSE" id="clipitem-610">
					<masterclipid>masterclip-530</masterclipid>
					<name></name>
					<enabled>TRUE</enabled>
					<duration>2582774</duration>
					<rate>
					
					                                    <timebase>60</timebase>
					                                    <ntsc>TRUE</ntsc>
					                                
					</rate>
					<start>5128</start>
					<end>5188</end>
					<in>5128</in>
					<out>5188</out>
					<pproTicksIn>914456774963789</pproTicksIn>
					<pproTicksOut>914677708529577</pproTicksOut>
					<alphatype>straight</alphatype>
					<pixelaspectratio>square</pixelaspectratio>
					<anamorphic>FALSE</anamorphic>
					<file id="file-529">
					<name></name>
					<mediaSource>GraphicAndType</mediaSource>
					<rate>
					<timebase>60</timebase>
					<ntsc>TRUE</ntsc>
					</rate>
					<timecode>
					<rate>
					<timebase>60</timebase>
					<ntsc>TRUE</ntsc>
					</rate>
					<string>00:00:00:00</string>
					<frame>0</frame>
					<displayformat>NDF</displayformat>
					</timecode>
					<media>
					<video>
					<samplecharacteristics>
					<rate>
					<timebase>60</timebase>
					<ntsc>TRUE</ntsc>
					</rate>
					<width>1080</width>
					<height>1920</height>
					<anamorphic>FALSE</anamorphic>
					<pixelaspectratio>square</pixelaspectratio>
					<fielddominance>none</fielddominance>
					</samplecharacteristics>
					</video>
					</media>
					</file>
					<filter>
					<effect>
					<name></name>
					<effectid>GraphicAndType</effectid>
					<effectcategory>graphic</effectcategory>
					<effecttype>filter</effecttype>
					<mediatype>video</mediatype>
					<pproBypass>false</pproBypass>
					<parameter authoringApp="PremierePro">
					<parameterid>1</parameterid>
					<name></name>
					<hash>025b1101-ead6-0ca2-1feb-caf3000001fc</hash>
					<value>5AEAAAAAAABEMyIRDAAAAAAABgAKAAQABgAAAGQAAAAAAF4ASAAQAAwARABAADwAOAAAAAAAAAAAADQAMwAsAAAAKAAkACAAAAAAAAAAAAAAAAAAHAAAAAAAGgAAAAAAAAAUAAAAAAAAAAAAAAAAAAAAAAAAAAgAAAAAABsABwBeAAAAAAAAAUAAAABQAAAAbAAAAAIAAAAAAAEAAQAAAAAAQEEAAMBAAABAQAAAyEIAAAABIAAAAAIAAAACAAAAAAA2QwCASkTw/v//9P7///j+//8S////AAAAAAEAAAAEAAAAEQAAAEhHUFNvZWlLYWt1cG9wdGFpAAAAAQAAAAwAAAAIAAwABAAIAAgAAAAIAAAAUAAAAA8AAADvvIEAAAAAAAAAAAAAAAAAAAA2ACQAAAAgABwAAAAAABsAFAAAAAAAAAAAAAAAAAAAAAAAAAAAABAAAAAAAAAADAAAAAgABAA2AAAAAgAAABwAAAAcAAAAHAAAAAAAIEEAAAABaAAAAE3PAEOw////tP///wEAAAAUAAAAEAAaAAgABwAMAAAAEAAUABAAAAAAAAABHAAAAAAAoEEcAAAAAgAAAAAACgAIAAUABgAHAAoAAAAADAD//P///wQABAAEAAAACAAIAAYABwAIAAAAAAAMAA==</value>
					</parameter>
					<parameter authoringApp="PremierePro">
					<parameterid>2</parameterid>
					<name></name>
					<IsTimeVarying>false</IsTimeVarying>
					<ParameterControlType>11</ParameterControlType>
					<LowerBound>false</LowerBound>
					<UpperBound>false</UpperBound>
					<value>-91445760000000000,false,0,0,0,0,0,0</value>
					</parameter>
					<parameter authoringApp="PremierePro">
					<parameterid>3</parameterid>
					<name></name>
					<IsTimeVarying>false</IsTimeVarying>
					<value>-91445760000000000,0.5:0.5,0,0,0,0,0,0,5,4,0,0,0,0</value>
					</parameter>
					<parameter authoringApp="PremierePro">
					<parameterid>4</parameterid>
					<name></name>
					<IsTimeVarying>false</IsTimeVarying>
					<ParameterControlType>2</ParameterControlType>
					<LowerBound>0</LowerBound>
					<UpperBound>4000</UpperBound>
					<value>-91445760000000000,100.,0,0,0,0,0,0</value>
					</parameter>
					<parameter authoringApp="PremierePro">
					<parameterid>8</parameterid>
					<name></name>
					<IsTimeVarying>false</IsTimeVarying>
					<ParameterControlType>2</ParameterControlType>
					<LowerBound>0</LowerBound>
					<UpperBound>100</UpperBound>
					<value>-91445760000000000,100.,0,0,0,0,0,0</value>
					</parameter>
					</effect>
					</filter>
					<logginginfo>
					<description></description>
					<scene></scene>
					<shottake></shottake>
					<lognote></lognote>
					<good></good>
					<originalvideofilename></originalvideofilename>
					<originalaudiofilename></originalaudiofilename>
					</logginginfo>
					<colorinfo>
					<lut></lut>
					<lut1></lut1>
					<asc_sop></asc_sop>
					<asc_sat></asc_sat>
					<lut2></lut2>
					</colorinfo>
					<labels>
					</labels>
					</clipitem>
					<clipitem id="clipitem-614"/>
					                        </track>
					                        <track TL.SQTrackShy="0" TL.SQTrackExpandedHeight="25" TL.SQTrackExpanded="0" MZ.TrackTargeted="0">
					<clipitem frameBlend="FALSE" id="clipitem-615">
					<masterclipid>masterclip-535</masterclipid>
					<name></name>
					<enabled>TRUE</enabled>
					<duration>2582774</duration>
					<rate>
					
					                                    <timebase>60</timebase>
					                                    <ntsc>TRUE</ntsc>
					                                
					</rate>
					<start>5200</start>
					<end>5260</end>
					<in>5200</in>
					<out>5260</out>
					<pproTicksIn>914456774963789</pproTicksIn>
					<pproTicksOut>914677708529577</pproTicksOut>
					<alphatype>straight</alphatype>
					<pixelaspectratio>square</pixelaspectratio>
					<anamorphic>FALSE</anamorphic>
					<file id="file-534">
					<name></name>
					<mediaSource>GraphicAndType</mediaSource>
					<rate>
					<timebase>60</timebase>
					<ntsc>TRUE</ntsc>
					</rate>
					<timecode>
					<rate>
					<timebase>60</timebase>
					<ntsc>TRUE</ntsc>
					</rate>
					<string>00:00:00:00</string>
					<frame>0</frame>
					<displayformat>NDF</displayformat>
					</timecode>
					<media>
					<video>
					<samplecharacteristics>
					<rate>
					<timebase>60</timebase>
					<ntsc>TRUE</ntsc>
					</rate>
					<width>1080</width>
					<height>1920</height>
					<anamorphic>FALSE</anamorphic>
					<pixelaspectratio>square</pixelaspectratio>
					<fielddominance>none</fielddominance>
					</samplecharacteristics>
					</video>
					</media>
					</file>
					<filter>
					<effect>
					<name></name>
					<effectid>GraphicAndType</effectid>
					<effectcategory>graphic</effectcategory>
					<effecttype>filter</effecttype>
					<mediatype>video</mediatype>
					<pproBypass>false</pproBypass>
					<parameter authoringApp="PremierePro">
					<parameterid>1</parameterid>
					<name></name>
					<hash>025b1101-ead6-0ca2-1feb-caf3000001fc</hash>
					<value>5AEAAAAAAABEMyIRDAAAAAAABgAKAAQABgAAAGQAAAAAAF4ASAAQAAwARABAADwAOAAAAAAAAAAAADQAMwAsAAAAKAAkACAAAAAAAAAAAAAAAAAAHAAAAAAAGgAAAAAAAAAUAAAAAAAAAAAAAAAAAAAAAAAAAAgAAAAAABsABwBeAAAAAAAAAUAAAABQAAAAbAAAAAIAAAAAAAEAAQAAAAAAQEEAAMBAAABAQAAAyEIAAAABIAAAAAIAAAACAAAAAAA2QwCASkTw/v//9P7///j+//8S////AAAAAAEAAAAEAAAAEQAAAEhHUFNvZWlLYWt1cG9wdGFpAAAAAQAAAAwAAAAIAAwABAAIAAgAAAAIAAAAUAAAAA8AAADvvIEAAAAAAAAAAAAAAAAAAAA2ACQAAAAgABwAAAAAABsAFAAAAAAAAAAAAAAAAAAAAAAAAAAAABAAAAAAAAAADAAAAAgABAA2AAAAAgAAABwAAAAcAAAAHAAAAAAAIEEAAAABaAAAAE3PAEOw////tP///wEAAAAUAAAAEAAaAAgABwAMAAAAEAAUABAAAAAAAAABHAAAAAAAoEEcAAAAAgAAAAAACgAIAAUABgAHAAoAAAAADAD//P///wQABAAEAAAACAAIAAYABwAIAAAAAAAMAA==</value>
					</parameter>
					<parameter authoringApp="PremierePro">
					<parameterid>2</parameterid>
					<name></name>
					<IsTimeVarying>false</IsTimeVarying>
					<ParameterControlType>11</ParameterControlType>
					<LowerBound>false</LowerBound>
					<UpperBound>false</UpperBound>
					<value>-91445760000000000,false,0,0,0,0,0,0</value>
					</parameter>
					<parameter authoringApp="PremierePro">
					<parameterid>3</parameterid>
					<name></name>
					<IsTimeVarying>false</IsTimeVarying>
					<value>-91445760000000000,0.5:0.5,0,0,0,0,0,0,5,4,0,0,0,0</value>
					</parameter>
					<parameter authoringApp="PremierePro">
					<parameterid>4</parameterid>
					<name></name>
					<IsTimeVarying>false</IsTimeVarying>
					<ParameterControlType>2</ParameterControlType>
					<LowerBound>0</LowerBound>
					<UpperBound>4000</UpperBound>
					<value>-91445760000000000,100.,0,0,0,0,0,0</value>
					</parameter>
					<parameter authoringApp="PremierePro">
					<parameterid>8</parameterid>
					<name></name>
					<IsTimeVarying>false</IsTimeVarying>
					<ParameterControlType>2</ParameterControlType>
					<LowerBound>0</LowerBound>
					<UpperBound>100</UpperBound>
					<value>-91445760000000000,100.,0,0,0,0,0,0</value>
					</parameter>
					</effect>
					</filter>
					<logginginfo>
					<description></description>
					<scene></scene>
					<shottake></shottake>
					<lognote></lognote>
					<good></good>
					<originalvideofilename></originalvideofilename>
					<originalaudiofilename></originalaudiofilename>
					</logginginfo>
					<colorinfo>
					<lut></lut>
					<lut1></lut1>
					<asc_sop></asc_sop>
					<asc_sat></asc_sat>
					<lut2></lut2>
					</colorinfo>
					<labels>
					</labels>
					</clipitem>
					<clipitem frameBlend="FALSE" id="clipitem-620">
					<masterclipid>masterclip-540</masterclipid>
					<name></name>
					<enabled>TRUE</enabled>
					<duration>2582774</duration>
					<rate>
					
					                                    <timebase>60</timebase>
					                                    <ntsc>TRUE</ntsc>
					                                
					</rate>
					<start>5260</start>
					<end>5320</end>
					<in>5260</in>
					<out>5320</out>
					<pproTicksIn>914456774963789</pproTicksIn>
					<pproTicksOut>914677708529577</pproTicksOut>
					<alphatype>straight</alphatype>
					<pixelaspectratio>square</pixelaspectratio>
					<anamorphic>FALSE</anamorphic>
					<file id="file-539">
					<name></name>
					<mediaSource>GraphicAndType</mediaSource>
					<rate>
					<timebase>60</timebase>
					<ntsc>TRUE</ntsc>
					</rate>
					<timecode>
					<rate>
					<timebase>60</timebase>
					<ntsc>TRUE</ntsc>
					</rate>
					<string>00:00:00:00</string>
					<frame>0</frame>
					<displayformat>NDF</displayformat>
					</timecode>
					<media>
					<video>
					<samplecharacteristics>
					<rate>
					<timebase>60</timebase>
					<ntsc>TRUE</ntsc>
					</rate>
					<width>1080</width>
					<height>1920</height>
					<anamorphic>FALSE</anamorphic>
					<pixelaspectratio>square</pixelaspectratio>
					<fielddominance>none</fielddominance>
					</samplecharacteristics>
					</video>
					</media>
					</file>
					<filter>
					<effect>
					<name></name>
					<effectid>GraphicAndType</effectid>
					<effectcategory>graphic</effectcategory>
					<effecttype>filter</effecttype>
					<mediatype>video</mediatype>
					<pproBypass>false</pproBypass>
					<parameter authoringApp="PremierePro">
					<parameterid>1</parameterid>
					<name></name>
					<hash>025b1101-ead6-0ca2-1feb-caf3000001fc</hash>
					<value>5AEAAAAAAABEMyIRDAAAAAAABgAKAAQABgAAAGQAAAAAAF4ASAAQAAwARABAADwAOAAAAAAAAAAAADQAMwAsAAAAKAAkACAAAAAAAAAAAAAAAAAAHAAAAAAAGgAAAAAAAAAUAAAAAAAAAAAAAAAAAAAAAAAAAAgAAAAAABsABwBeAAAAAAAAAUAAAABQAAAAbAAAAAIAAAAAAAEAAQAAAAAAQEEAAMBAAABAQAAAyEIAAAABIAAAAAIAAAACAAAAAAA2QwCASkTw/v//9P7///j+//8S////AAAAAAEAAAAEAAAAEQAAAEhHUFNvZWlLYWt1cG9wdGFpAAAAAQAAAAwAAAAIAAwABAAIAAgAAAAIAAAAUAAAAA8AAADvvIEAAAAAAAAAAAAAAAAAAAA2ACQAAAAgABwAAAAAABsAFAAAAAAAAAAAAAAAAAAAAAAAAAAAABAAAAAAAAAADAAAAAgABAA2AAAAAgAAABwAAAAcAAAAHAAAAAAAIEEAAAABaAAAAE3PAEOw////tP///wEAAAAUAAAAEAAaAAgABwAMAAAAEAAUABAAAAAAAAABHAAAAAAAoEEcAAAAAgAAAAAACgAIAAUABgAHAAoAAAAADAD//P///wQABAAEAAAACAAIAAYABwAIAAAAAAAMAA==</value>
					</parameter>
					<parameter authoringApp="PremierePro">
					<parameterid>2</parameterid>
					<name></name>
					<IsTimeVarying>false</IsTimeVarying>
					<ParameterControlType>11</ParameterControlType>
					<LowerBound>false</LowerBound>
					<UpperBound>false</UpperBound>
					<value>-91445760000000000,false,0,0,0,0,0,0</value>
					</parameter>
					<parameter authoringApp="PremierePro">
					<parameterid>3</parameterid>
					<name></name>
					<IsTimeVarying>false</IsTimeVarying>
					<value>-91445760000000000,0.5:0.5,0,0,0,0,0,0,5,4,0,0,0,0</value>
					</parameter>
					<parameter authoringApp="PremierePro">
					<parameterid>4</parameterid>
					<name></name>
					<IsTimeVarying>false</IsTimeVarying>
					<ParameterControlType>2</ParameterControlType>
					<LowerBound>0</LowerBound>
					<UpperBound>4000</UpperBound>
					<value>-91445760000000000,100.,0,0,0,0,0,0</value>
					</parameter>
					<parameter authoringApp="PremierePro">
					<parameterid>8</parameterid>
					<name></name>
					<IsTimeVarying>false</IsTimeVarying>
					<ParameterControlType>2</ParameterControlType>
					<LowerBound>0</LowerBound>
					<UpperBound>100</UpperBound>
					<value>-91445760000000000,100.,0,0,0,0,0,0</value>
					</parameter>
					</effect>
					</filter>
					<logginginfo>
					<description></description>
					<scene></scene>
					<shottake></shottake>
					<lognote></lognote>
					<good></good>
					<originalvideofilename></originalvideofilename>
					<originalaudiofilename></originalaudiofilename>
					</logginginfo>
					<colorinfo>
					<lut></lut>
					<lut1></lut1>
					<asc_sop></asc_sop>
					<asc_sat></asc_sat>
					<lut2></lut2>
					</colorinfo>
					<labels>
					</labels>
					</clipitem>
					<clipitem frameBlend="FALSE" id="clipitem-628">
					<masterclipid>masterclip-548</masterclipid>
					<name></name>
					<enabled>TRUE</enabled>
					<duration>2582774</duration>
					<rate>
					
					                                    <timebase>60</timebase>
					                                    <ntsc>TRUE</ntsc>
					                                
					</rate>
					<start>5320</start>
					<end>5380</end>
					<in>5320</in>
					<out>5380</out>
					<pproTicksIn>914456774963789</pproTicksIn>
					<pproTicksOut>914677708529577</pproTicksOut>
					<alphatype>straight</alphatype>
					<pixelaspectratio>square</pixelaspectratio>
					<anamorphic>FALSE</anamorphic>
					<file id="file-547">
					<name></name>
					<mediaSource>GraphicAndType</mediaSource>
					<rate>
					<timebase>60</timebase>
					<ntsc>TRUE</ntsc>
					</rate>
					<timecode>
					<rate>
					<timebase>60</timebase>
					<ntsc>TRUE</ntsc>
					</rate>
					<string>00:00:00:00</string>
					<frame>0</frame>
					<displayformat>NDF</displayformat>
					</timecode>
					<media>
					<video>
					<samplecharacteristics>
					<rate>
					<timebase>60</timebase>
					<ntsc>TRUE</ntsc>
					</rate>
					<width>1080</width>
					<height>1920</height>
					<anamorphic>FALSE</anamorphic>
					<pixelaspectratio>square</pixelaspectratio>
					<fielddominance>none</fielddominance>
					</samplecharacteristics>
					</video>
					</media>
					</file>
					<filter>
					<effect>
					<name></name>
					<effectid>GraphicAndType</effectid>
					<effectcategory>graphic</effectcategory>
					<effecttype>filter</effecttype>
					<mediatype>video</mediatype>
					<pproBypass>false</pproBypass>
					<parameter authoringApp="PremierePro">
					<parameterid>1</parameterid>
					<name></name>
					<hash>025b1101-ead6-0ca2-1feb-caf3000001fc</hash>
					<value>5AEAAAAAAABEMyIRDAAAAAAABgAKAAQABgAAAGQAAAAAAF4ASAAQAAwARABAADwAOAAAAAAAAAAAADQAMwAsAAAAKAAkACAAAAAAAAAAAAAAAAAAHAAAAAAAGgAAAAAAAAAUAAAAAAAAAAAAAAAAAAAAAAAAAAgAAAAAABsABwBeAAAAAAAAAUAAAABQAAAAbAAAAAIAAAAAAAEAAQAAAAAAQEEAAMBAAABAQAAAyEIAAAABIAAAAAIAAAACAAAAAAA2QwCASkTw/v//9P7///j+//8S////AAAAAAEAAAAEAAAAEQAAAEhHUFNvZWlLYWt1cG9wdGFpAAAAAQAAAAwAAAAIAAwABAAIAAgAAAAIAAAAUAAAAA8AAADvvIEAAAAAAAAAAAAAAAAAAAA2ACQAAAAgABwAAAAAABsAFAAAAAAAAAAAAAAAAAAAAAAAAAAAABAAAAAAAAAADAAAAAgABAA2AAAAAgAAABwAAAAcAAAAHAAAAAAAIEEAAAABaAAAAE3PAEOw////tP///wEAAAAUAAAAEAAaAAgABwAMAAAAEAAUABAAAAAAAAABHAAAAAAAoEEcAAAAAgAAAAAACgAIAAUABgAHAAoAAAAADAD//P///wQABAAEAAAACAAIAAYABwAIAAAAAAAMAA==</value>
					</parameter>
					<parameter authoringApp="PremierePro">
					<parameterid>2</parameterid>
					<name></name>
					<IsTimeVarying>false</IsTimeVarying>
					<ParameterControlType>11</ParameterControlType>
					<LowerBound>false</LowerBound>
					<UpperBound>false</UpperBound>
					<value>-91445760000000000,false,0,0,0,0,0,0</value>
					</parameter>
					<parameter authoringApp="PremierePro">
					<parameterid>3</parameterid>
					<name></name>
					<IsTimeVarying>false</IsTimeVarying>
					<value>-91445760000000000,0.5:0.5,0,0,0,0,0,0,5,4,0,0,0,0</value>
					</parameter>
					<parameter authoringApp="PremierePro">
					<parameterid>4</parameterid>
					<name></name>
					<IsTimeVarying>false</IsTimeVarying>
					<ParameterControlType>2</ParameterControlType>
					<LowerBound>0</LowerBound>
					<UpperBound>4000</UpperBound>
					<value>-91445760000000000,100.,0,0,0,0,0,0</value>
					</parameter>
					<parameter authoringApp="PremierePro">
					<parameterid>8</parameterid>
					<name></name>
					<IsTimeVarying>false</IsTimeVarying>
					<ParameterControlType>2</ParameterControlType>
					<LowerBound>0</LowerBound>
					<UpperBound>100</UpperBound>
					<value>-91445760000000000,100.,0,0,0,0,0,0</value>
					</parameter>
					</effect>
					</filter>
					<logginginfo>
					<description></description>
					<scene></scene>
					<shottake></shottake>
					<lognote></lognote>
					<good></good>
					<originalvideofilename></originalvideofilename>
					<originalaudiofilename></originalaudiofilename>
					</logginginfo>
					<colorinfo>
					<lut></lut>
					<lut1></lut1>
					<asc_sop></asc_sop>
					<asc_sat></asc_sat>
					<lut2></lut2>
					</colorinfo>
					<labels>
					</labels>
					</clipitem>
					<clipitem frameBlend="FALSE" id="clipitem-634">
					<masterclipid>masterclip-554</masterclipid>
					<name></name>
					<enabled>TRUE</enabled>
					<duration>2582774</duration>
					<rate>
					
					                                    <timebase>60</timebase>
					                                    <ntsc>TRUE</ntsc>
					                                
					</rate>
					<start>5440</start>
					<end>5500</end>
					<in>5440</in>
					<out>5500</out>
					<pproTicksIn>914456774963789</pproTicksIn>
					<pproTicksOut>914677708529577</pproTicksOut>
					<alphatype>straight</alphatype>
					<pixelaspectratio>square</pixelaspectratio>
					<anamorphic>FALSE</anamorphic>
					<file id="file-553">
					<name></name>
					<mediaSource>GraphicAndType</mediaSource>
					<rate>
					<timebase>60</timebase>
					<ntsc>TRUE</ntsc>
					</rate>
					<timecode>
					<rate>
					<timebase>60</timebase>
					<ntsc>TRUE</ntsc>
					</rate>
					<string>00:00:00:00</string>
					<frame>0</frame>
					<displayformat>NDF</displayformat>
					</timecode>
					<media>
					<video>
					<samplecharacteristics>
					<rate>
					<timebase>60</timebase>
					<ntsc>TRUE</ntsc>
					</rate>
					<width>1080</width>
					<height>1920</height>
					<anamorphic>FALSE</anamorphic>
					<pixelaspectratio>square</pixelaspectratio>
					<fielddominance>none</fielddominance>
					</samplecharacteristics>
					</video>
					</media>
					</file>
					<filter>
					<effect>
					<name></name>
					<effectid>GraphicAndType</effectid>
					<effectcategory>graphic</effectcategory>
					<effecttype>filter</effecttype>
					<mediatype>video</mediatype>
					<pproBypass>false</pproBypass>
					<parameter authoringApp="PremierePro">
					<parameterid>1</parameterid>
					<name></name>
					<hash>025b1101-ead6-0ca2-1feb-caf3000001fc</hash>
					<value>5AEAAAAAAABEMyIRDAAAAAAABgAKAAQABgAAAGQAAAAAAF4ASAAQAAwARABAADwAOAAAAAAAAAAAADQAMwAsAAAAKAAkACAAAAAAAAAAAAAAAAAAHAAAAAAAGgAAAAAAAAAUAAAAAAAAAAAAAAAAAAAAAAAAAAgAAAAAABsABwBeAAAAAAAAAUAAAABQAAAAbAAAAAIAAAAAAAEAAQAAAAAAQEEAAMBAAABAQAAAyEIAAAABIAAAAAIAAAACAAAAAAA2QwCASkTw/v//9P7///j+//8S////AAAAAAEAAAAEAAAAEQAAAEhHUFNvZWlLYWt1cG9wdGFpAAAAAQAAAAwAAAAIAAwABAAIAAgAAAAIAAAAUAAAAA8AAADvvIEAAAAAAAAAAAAAAAAAAAA2ACQAAAAgABwAAAAAABsAFAAAAAAAAAAAAAAAAAAAAAAAAAAAABAAAAAAAAAADAAAAAgABAA2AAAAAgAAABwAAAAcAAAAHAAAAAAAIEEAAAABaAAAAE3PAEOw////tP///wEAAAAUAAAAEAAaAAgABwAMAAAAEAAUABAAAAAAAAABHAAAAAAAoEEcAAAAAgAAAAAACgAIAAUABgAHAAoAAAAADAD//P///wQABAAEAAAACAAIAAYABwAIAAAAAAAMAA==</value>
					</parameter>
					<parameter authoringApp="PremierePro">
					<parameterid>2</parameterid>
					<name></name>
					<IsTimeVarying>false</IsTimeVarying>
					<ParameterControlType>11</ParameterControlType>
					<LowerBound>false</LowerBound>
					<UpperBound>false</UpperBound>
					<value>-91445760000000000,false,0,0,0,0,0,0</value>
					</parameter>
					<parameter authoringApp="PremierePro">
					<parameterid>3</parameterid>
					<name></name>
					<IsTimeVarying>false</IsTimeVarying>
					<value>-91445760000000000,0.5:0.5,0,0,0,0,0,0,5,4,0,0,0,0</value>
					</parameter>
					<parameter authoringApp="PremierePro">
					<parameterid>4</parameterid>
					<name></name>
					<IsTimeVarying>false</IsTimeVarying>
					<ParameterControlType>2</ParameterControlType>
					<LowerBound>0</LowerBound>
					<UpperBound>4000</UpperBound>
					<value>-91445760000000000,100.,0,0,0,0,0,0</value>
					</parameter>
					<parameter authoringApp="PremierePro">
					<parameterid>8</parameterid>
					<name></name>
					<IsTimeVarying>false</IsTimeVarying>
					<ParameterControlType>2</ParameterControlType>
					<LowerBound>0</LowerBound>
					<UpperBound>100</UpperBound>
					<value>-91445760000000000,100.,0,0,0,0,0,0</value>
					</parameter>
					</effect>
					</filter>
					<logginginfo>
					<description></description>
					<scene></scene>
					<shottake></shottake>
					<lognote></lognote>
					<good></good>
					<originalvideofilename></originalvideofilename>
					<originalaudiofilename></originalaudiofilename>
					</logginginfo>
					<colorinfo>
					<lut></lut>
					<lut1></lut1>
					<asc_sop></asc_sop>
					<asc_sat></asc_sat>
					<lut2></lut2>
					</colorinfo>
					<labels>
					</labels>
					</clipitem>
					<clipitem frameBlend="FALSE" id="clipitem-638">
					<masterclipid>masterclip-558</masterclipid>
					<name></name>
					<enabled>TRUE</enabled>
					<duration>2582774</duration>
					<rate>
					
					                                    <timebase>60</timebase>
					                                    <ntsc>TRUE</ntsc>
					                                
					</rate>
					<start>5512</start>
					<end>5572</end>
					<in>5512</in>
					<out>5572</out>
					<pproTicksIn>914456774963789</pproTicksIn>
					<pproTicksOut>914677708529577</pproTicksOut>
					<alphatype>straight</alphatype>
					<pixelaspectratio>square</pixelaspectratio>
					<anamorphic>FALSE</anamorphic>
					<file id="file-557">
					<name></name>
					<mediaSource>GraphicAndType</mediaSource>
					<rate>
					<timebase>60</timebase>
					<ntsc>TRUE</ntsc>
					</rate>
					<timecode>
					<rate>
					<timebase>60</timebase>
					<ntsc>TRUE</ntsc>
					</rate>
					<string>00:00:00:00</string>
					<frame>0</frame>
					<displayformat>NDF</displayformat>
					</timecode>
					<media>
					<video>
					<samplecharacteristics>
					<rate>
					<timebase>60</timebase>
					<ntsc>TRUE</ntsc>
					</rate>
					<width>1080</width>
					<height>1920</height>
					<anamorphic>FALSE</anamorphic>
					<pixelaspectratio>square</pixelaspectratio>
					<fielddominance>none</fielddominance>
					</samplecharacteristics>
					</video>
					</media>
					</file>
					<filter>
					<effect>
					<name></name>
					<effectid>GraphicAndType</effectid>
					<effectcategory>graphic</effectcategory>
					<effecttype>filter</effecttype>
					<mediatype>video</mediatype>
					<pproBypass>false</pproBypass>
					<parameter authoringApp="PremierePro">
					<parameterid>1</parameterid>
					<name></name>
					<hash>025b1101-ead6-0ca2-1feb-caf3000001fc</hash>
					<value>5AEAAAAAAABEMyIRDAAAAAAABgAKAAQABgAAAGQAAAAAAF4ASAAQAAwARABAADwAOAAAAAAAAAAAADQAMwAsAAAAKAAkACAAAAAAAAAAAAAAAAAAHAAAAAAAGgAAAAAAAAAUAAAAAAAAAAAAAAAAAAAAAAAAAAgAAAAAABsABwBeAAAAAAAAAUAAAABQAAAAbAAAAAIAAAAAAAEAAQAAAAAAQEEAAMBAAABAQAAAyEIAAAABIAAAAAIAAAACAAAAAAA2QwCASkTw/v//9P7///j+//8S////AAAAAAEAAAAEAAAAEQAAAEhHUFNvZWlLYWt1cG9wdGFpAAAAAQAAAAwAAAAIAAwABAAIAAgAAAAIAAAAUAAAAA8AAADvvIEAAAAAAAAAAAAAAAAAAAA2ACQAAAAgABwAAAAAABsAFAAAAAAAAAAAAAAAAAAAAAAAAAAAABAAAAAAAAAADAAAAAgABAA2AAAAAgAAABwAAAAcAAAAHAAAAAAAIEEAAAABaAAAAE3PAEOw////tP///wEAAAAUAAAAEAAaAAgABwAMAAAAEAAUABAAAAAAAAABHAAAAAAAoEEcAAAAAgAAAAAACgAIAAUABgAHAAoAAAAADAD//P///wQABAAEAAAACAAIAAYABwAIAAAAAAAMAA==</value>
					</parameter>
					<parameter authoringApp="PremierePro">
					<parameterid>2</parameterid>
					<name></name>
					<IsTimeVarying>false</IsTimeVarying>
					<ParameterControlType>11</ParameterControlType>
					<LowerBound>false</LowerBound>
					<UpperBound>false</UpperBound>
					<value>-91445760000000000,false,0,0,0,0,0,0</value>
					</parameter>
					<parameter authoringApp="PremierePro">
					<parameterid>3</parameterid>
					<name></name>
					<IsTimeVarying>false</IsTimeVarying>
					<value>-91445760000000000,0.5:0.5,0,0,0,0,0,0,5,4,0,0,0,0</value>
					</parameter>
					<parameter authoringApp="PremierePro">
					<parameterid>4</parameterid>
					<name></name>
					<IsTimeVarying>false</IsTimeVarying>
					<ParameterControlType>2</ParameterControlType>
					<LowerBound>0</LowerBound>
					<UpperBound>4000</UpperBound>
					<value>-91445760000000000,100.,0,0,0,0,0,0</value>
					</parameter>
					<parameter authoringApp="PremierePro">
					<parameterid>8</parameterid>
					<name></name>
					<IsTimeVarying>false</IsTimeVarying>
					<ParameterControlType>2</ParameterControlType>
					<LowerBound>0</LowerBound>
					<UpperBound>100</UpperBound>
					<value>-91445760000000000,100.,0,0,0,0,0,0</value>
					</parameter>
					</effect>
					</filter>
					<logginginfo>
					<description></description>
					<scene></scene>
					<shottake></shottake>
					<lognote></lognote>
					<good></good>
					<originalvideofilename></originalvideofilename>
					<originalaudiofilename></originalaudiofilename>
					</logginginfo>
					<colorinfo>
					<lut></lut>
					<lut1></lut1>
					<asc_sop></asc_sop>
					<asc_sat></asc_sat>
					<lut2></lut2>
					</colorinfo>
					<labels>
					</labels>
					</clipitem>
					<clipitem frameBlend="FALSE" id="clipitem-649">
					<masterclipid>masterclip-569</masterclipid>
					<name></name>
					<enabled>TRUE</enabled>
					<duration>2582774</duration>
					<rate>
					
					                                    <timebase>60</timebase>
					                                    <ntsc>TRUE</ntsc>
					                                
					</rate>
					<start>5572</start>
					<end>5638</end>
					<in>5572</in>
					<out>5638</out>
					<pproTicksIn>914456774963789</pproTicksIn>
					<pproTicksOut>914677708529577</pproTicksOut>
					<alphatype>straight</alphatype>
					<pixelaspectratio>square</pixelaspectratio>
					<anamorphic>FALSE</anamorphic>
					<file id="file-568">
					<name></name>
					<mediaSource>GraphicAndType</mediaSource>
					<rate>
					<timebase>60</timebase>
					<ntsc>TRUE</ntsc>
					</rate>
					<timecode>
					<rate>
					<timebase>60</timebase>
					<ntsc>TRUE</ntsc>
					</rate>
					<string>00:00:00:00</string>
					<frame>0</frame>
					<displayformat>NDF</displayformat>
					</timecode>
					<media>
					<video>
					<samplecharacteristics>
					<rate>
					<timebase>60</timebase>
					<ntsc>TRUE</ntsc>
					</rate>
					<width>1080</width>
					<height>1920</height>
					<anamorphic>FALSE</anamorphic>
					<pixelaspectratio>square</pixelaspectratio>
					<fielddominance>none</fielddominance>
					</samplecharacteristics>
					</video>
					</media>
					</file>
					<filter>
					<effect>
					<name></name>
					<effectid>GraphicAndType</effectid>
					<effectcategory>graphic</effectcategory>
					<effecttype>filter</effecttype>
					<mediatype>video</mediatype>
					<pproBypass>false</pproBypass>
					<parameter authoringApp="PremierePro">
					<parameterid>1</parameterid>
					<name></name>
					<hash>025b1101-ead6-0ca2-1feb-caf3000001fc</hash>
					<value>5AEAAAAAAABEMyIRDAAAAAAABgAKAAQABgAAAGQAAAAAAF4ASAAQAAwARABAADwAOAAAAAAAAAAAADQAMwAsAAAAKAAkACAAAAAAAAAAAAAAAAAAHAAAAAAAGgAAAAAAAAAUAAAAAAAAAAAAAAAAAAAAAAAAAAgAAAAAABsABwBeAAAAAAAAAUAAAABQAAAAbAAAAAIAAAAAAAEAAQAAAAAAQEEAAMBAAABAQAAAyEIAAAABIAAAAAIAAAACAAAAAAA2QwCASkTw/v//9P7///j+//8S////AAAAAAEAAAAEAAAAEQAAAEhHUFNvZWlLYWt1cG9wdGFpAAAAAQAAAAwAAAAIAAwABAAIAAgAAAAIAAAAUAAAAA8AAADvvIEAAAAAAAAAAAAAAAAAAAA2ACQAAAAgABwAAAAAABsAFAAAAAAAAAAAAAAAAAAAAAAAAAAAABAAAAAAAAAADAAAAAgABAA2AAAAAgAAABwAAAAcAAAAHAAAAAAAIEEAAAABaAAAAE3PAEOw////tP///wEAAAAUAAAAEAAaAAgABwAMAAAAEAAUABAAAAAAAAABHAAAAAAAoEEcAAAAAgAAAAAACgAIAAUABgAHAAoAAAAADAD//P///wQABAAEAAAACAAIAAYABwAIAAAAAAAMAA==</value>
					</parameter>
					<parameter authoringApp="PremierePro">
					<parameterid>2</parameterid>
					<name></name>
					<IsTimeVarying>false</IsTimeVarying>
					<ParameterControlType>11</ParameterControlType>
					<LowerBound>false</LowerBound>
					<UpperBound>false</UpperBound>
					<value>-91445760000000000,false,0,0,0,0,0,0</value>
					</parameter>
					<parameter authoringApp="PremierePro">
					<parameterid>3</parameterid>
					<name></name>
					<IsTimeVarying>false</IsTimeVarying>
					<value>-91445760000000000,0.5:0.5,0,0,0,0,0,0,5,4,0,0,0,0</value>
					</parameter>
					<parameter authoringApp="PremierePro">
					<parameterid>4</parameterid>
					<name></name>
					<IsTimeVarying>false</IsTimeVarying>
					<ParameterControlType>2</ParameterControlType>
					<LowerBound>0</LowerBound>
					<UpperBound>4000</UpperBound>
					<value>-91445760000000000,100.,0,0,0,0,0,0</value>
					</parameter>
					<parameter authoringApp="PremierePro">
					<parameterid>8</parameterid>
					<name></name>
					<IsTimeVarying>false</IsTimeVarying>
					<ParameterControlType>2</ParameterControlType>
					<LowerBound>0</LowerBound>
					<UpperBound>100</UpperBound>
					<value>-91445760000000000,100.,0,0,0,0,0,0</value>
					</parameter>
					</effect>
					</filter>
					<logginginfo>
					<description></description>
					<scene></scene>
					<shottake></shottake>
					<lognote></lognote>
					<good></good>
					<originalvideofilename></originalvideofilename>
					<originalaudiofilename></originalaudiofilename>
					</logginginfo>
					<colorinfo>
					<lut></lut>
					<lut1></lut1>
					<asc_sop></asc_sop>
					<asc_sat></asc_sat>
					<lut2></lut2>
					</colorinfo>
					<labels>
					</labels>
					</clipitem>
					<clipitem frameBlend="FALSE" id="clipitem-659">
					<masterclipid>masterclip-579</masterclipid>
					<name></name>
					<enabled>TRUE</enabled>
					<duration>2582774</duration>
					<rate>
					
					                                    <timebase>60</timebase>
					                                    <ntsc>TRUE</ntsc>
					                                
					</rate>
					<start>5638</start>
					<end>5704</end>
					<in>5638</in>
					<out>5704</out>
					<pproTicksIn>914456774963789</pproTicksIn>
					<pproTicksOut>914677708529577</pproTicksOut>
					<alphatype>straight</alphatype>
					<pixelaspectratio>square</pixelaspectratio>
					<anamorphic>FALSE</anamorphic>
					<file id="file-578">
					<name></name>
					<mediaSource>GraphicAndType</mediaSource>
					<rate>
					<timebase>60</timebase>
					<ntsc>TRUE</ntsc>
					</rate>
					<timecode>
					<rate>
					<timebase>60</timebase>
					<ntsc>TRUE</ntsc>
					</rate>
					<string>00:00:00:00</string>
					<frame>0</frame>
					<displayformat>NDF</displayformat>
					</timecode>
					<media>
					<video>
					<samplecharacteristics>
					<rate>
					<timebase>60</timebase>
					<ntsc>TRUE</ntsc>
					</rate>
					<width>1080</width>
					<height>1920</height>
					<anamorphic>FALSE</anamorphic>
					<pixelaspectratio>square</pixelaspectratio>
					<fielddominance>none</fielddominance>
					</samplecharacteristics>
					</video>
					</media>
					</file>
					<filter>
					<effect>
					<name></name>
					<effectid>GraphicAndType</effectid>
					<effectcategory>graphic</effectcategory>
					<effecttype>filter</effecttype>
					<mediatype>video</mediatype>
					<pproBypass>false</pproBypass>
					<parameter authoringApp="PremierePro">
					<parameterid>1</parameterid>
					<name></name>
					<hash>025b1101-ead6-0ca2-1feb-caf3000001fc</hash>
					<value>5AEAAAAAAABEMyIRDAAAAAAABgAKAAQABgAAAGQAAAAAAF4ASAAQAAwARABAADwAOAAAAAAAAAAAADQAMwAsAAAAKAAkACAAAAAAAAAAAAAAAAAAHAAAAAAAGgAAAAAAAAAUAAAAAAAAAAAAAAAAAAAAAAAAAAgAAAAAABsABwBeAAAAAAAAAUAAAABQAAAAbAAAAAIAAAAAAAEAAQAAAAAAQEEAAMBAAABAQAAAyEIAAAABIAAAAAIAAAACAAAAAAA2QwCASkTw/v//9P7///j+//8S////AAAAAAEAAAAEAAAAEQAAAEhHUFNvZWlLYWt1cG9wdGFpAAAAAQAAAAwAAAAIAAwABAAIAAgAAAAIAAAAUAAAAA8AAADvvIEAAAAAAAAAAAAAAAAAAAA2ACQAAAAgABwAAAAAABsAFAAAAAAAAAAAAAAAAAAAAAAAAAAAABAAAAAAAAAADAAAAAgABAA2AAAAAgAAABwAAAAcAAAAHAAAAAAAIEEAAAABaAAAAE3PAEOw////tP///wEAAAAUAAAAEAAaAAgABwAMAAAAEAAUABAAAAAAAAABHAAAAAAAoEEcAAAAAgAAAAAACgAIAAUABgAHAAoAAAAADAD//P///wQABAAEAAAACAAIAAYABwAIAAAAAAAMAA==</value>
					</parameter>
					<parameter authoringApp="PremierePro">
					<parameterid>2</parameterid>
					<name></name>
					<IsTimeVarying>false</IsTimeVarying>
					<ParameterControlType>11</ParameterControlType>
					<LowerBound>false</LowerBound>
					<UpperBound>false</UpperBound>
					<value>-91445760000000000,false,0,0,0,0,0,0</value>
					</parameter>
					<parameter authoringApp="PremierePro">
					<parameterid>3</parameterid>
					<name></name>
					<IsTimeVarying>false</IsTimeVarying>
					<value>-91445760000000000,0.5:0.5,0,0,0,0,0,0,5,4,0,0,0,0</value>
					</parameter>
					<parameter authoringApp="PremierePro">
					<parameterid>4</parameterid>
					<name></name>
					<IsTimeVarying>false</IsTimeVarying>
					<ParameterControlType>2</ParameterControlType>
					<LowerBound>0</LowerBound>
					<UpperBound>4000</UpperBound>
					<value>-91445760000000000,100.,0,0,0,0,0,0</value>
					</parameter>
					<parameter authoringApp="PremierePro">
					<parameterid>8</parameterid>
					<name></name>
					<IsTimeVarying>false</IsTimeVarying>
					<ParameterControlType>2</ParameterControlType>
					<LowerBound>0</LowerBound>
					<UpperBound>100</UpperBound>
					<value>-91445760000000000,100.,0,0,0,0,0,0</value>
					</parameter>
					</effect>
					</filter>
					<logginginfo>
					<description></description>
					<scene></scene>
					<shottake></shottake>
					<lognote></lognote>
					<good></good>
					<originalvideofilename></originalvideofilename>
					<originalaudiofilename></originalaudiofilename>
					</logginginfo>
					<colorinfo>
					<lut></lut>
					<lut1></lut1>
					<asc_sop></asc_sop>
					<asc_sat></asc_sat>
					<lut2></lut2>
					</colorinfo>
					<labels>
					</labels>
					</clipitem>
					<clipitem frameBlend="FALSE" id="clipitem-664">
					<masterclipid>masterclip-584</masterclipid>
					<name></name>
					<enabled>TRUE</enabled>
					<duration>2582774</duration>
					<rate>
					
					                                    <timebase>60</timebase>
					                                    <ntsc>TRUE</ntsc>
					                                
					</rate>
					<start>5716</start>
					<end>5782</end>
					<in>5716</in>
					<out>5782</out>
					<pproTicksIn>914456774963789</pproTicksIn>
					<pproTicksOut>914677708529577</pproTicksOut>
					<alphatype>straight</alphatype>
					<pixelaspectratio>square</pixelaspectratio>
					<anamorphic>FALSE</anamorphic>
					<file id="file-583">
					<name></name>
					<mediaSource>GraphicAndType</mediaSource>
					<rate>
					<timebase>60</timebase>
					<ntsc>TRUE</ntsc>
					</rate>
					<timecode>
					<rate>
					<timebase>60</timebase>
					<ntsc>TRUE</ntsc>
					</rate>
					<string>00:00:00:00</string>
					<frame>0</frame>
					<displayformat>NDF</displayformat>
					</timecode>
					<media>
					<video>
					<samplecharacteristics>
					<rate>
					<timebase>60</timebase>
					<ntsc>TRUE</ntsc>
					</rate>
					<width>1080</width>
					<height>1920</height>
					<anamorphic>FALSE</anamorphic>
					<pixelaspectratio>square</pixelaspectratio>
					<fielddominance>none</fielddominance>
					</samplecharacteristics>
					</video>
					</media>
					</file>
					<filter>
					<effect>
					<name></name>
					<effectid>GraphicAndType</effectid>
					<effectcategory>graphic</effectcategory>
					<effecttype>filter</effecttype>
					<mediatype>video</mediatype>
					<pproBypass>false</pproBypass>
					<parameter authoringApp="PremierePro">
					<parameterid>1</parameterid>
					<name></name>
					<hash>025b1101-ead6-0ca2-1feb-caf3000001fc</hash>
					<value>5AEAAAAAAABEMyIRDAAAAAAABgAKAAQABgAAAGQAAAAAAF4ASAAQAAwARABAADwAOAAAAAAAAAAAADQAMwAsAAAAKAAkACAAAAAAAAAAAAAAAAAAHAAAAAAAGgAAAAAAAAAUAAAAAAAAAAAAAAAAAAAAAAAAAAgAAAAAABsABwBeAAAAAAAAAUAAAABQAAAAbAAAAAIAAAAAAAEAAQAAAAAAQEEAAMBAAABAQAAAyEIAAAABIAAAAAIAAAACAAAAAAA2QwCASkTw/v//9P7///j+//8S////AAAAAAEAAAAEAAAAEQAAAEhHUFNvZWlLYWt1cG9wdGFpAAAAAQAAAAwAAAAIAAwABAAIAAgAAAAIAAAAUAAAAA8AAADvvIEAAAAAAAAAAAAAAAAAAAA2ACQAAAAgABwAAAAAABsAFAAAAAAAAAAAAAAAAAAAAAAAAAAAABAAAAAAAAAADAAAAAgABAA2AAAAAgAAABwAAAAcAAAAHAAAAAAAIEEAAAABaAAAAE3PAEOw////tP///wEAAAAUAAAAEAAaAAgABwAMAAAAEAAUABAAAAAAAAABHAAAAAAAoEEcAAAAAgAAAAAACgAIAAUABgAHAAoAAAAADAD//P///wQABAAEAAAACAAIAAYABwAIAAAAAAAMAA==</value>
					</parameter>
					<parameter authoringApp="PremierePro">
					<parameterid>2</parameterid>
					<name></name>
					<IsTimeVarying>false</IsTimeVarying>
					<ParameterControlType>11</ParameterControlType>
					<LowerBound>false</LowerBound>
					<UpperBound>false</UpperBound>
					<value>-91445760000000000,false,0,0,0,0,0,0</value>
					</parameter>
					<parameter authoringApp="PremierePro">
					<parameterid>3</parameterid>
					<name></name>
					<IsTimeVarying>false</IsTimeVarying>
					<value>-91445760000000000,0.5:0.5,0,0,0,0,0,0,5,4,0,0,0,0</value>
					</parameter>
					<parameter authoringApp="PremierePro">
					<parameterid>4</parameterid>
					<name></name>
					<IsTimeVarying>false</IsTimeVarying>
					<ParameterControlType>2</ParameterControlType>
					<LowerBound>0</LowerBound>
					<UpperBound>4000</UpperBound>
					<value>-91445760000000000,100.,0,0,0,0,0,0</value>
					</parameter>
					<parameter authoringApp="PremierePro">
					<parameterid>8</parameterid>
					<name></name>
					<IsTimeVarying>false</IsTimeVarying>
					<ParameterControlType>2</ParameterControlType>
					<LowerBound>0</LowerBound>
					<UpperBound>100</UpperBound>
					<value>-91445760000000000,100.,0,0,0,0,0,0</value>
					</parameter>
					</effect>
					</filter>
					<logginginfo>
					<description></description>
					<scene></scene>
					<shottake></shottake>
					<lognote></lognote>
					<good></good>
					<originalvideofilename></originalvideofilename>
					<originalaudiofilename></originalaudiofilename>
					</logginginfo>
					<colorinfo>
					<lut></lut>
					<lut1></lut1>
					<asc_sop></asc_sop>
					<asc_sat></asc_sat>
					<lut2></lut2>
					</colorinfo>
					<labels>
					</labels>
					</clipitem>
					<clipitem frameBlend="FALSE" id="clipitem-669">
					<masterclipid>masterclip-589</masterclipid>
					<name></name>
					<enabled>TRUE</enabled>
					<duration>2582774</duration>
					<rate>
					
					                                    <timebase>60</timebase>
					                                    <ntsc>TRUE</ntsc>
					                                
					</rate>
					<start>5782</start>
					<end>5842</end>
					<in>5782</in>
					<out>5842</out>
					<pproTicksIn>914456774963789</pproTicksIn>
					<pproTicksOut>914677708529577</pproTicksOut>
					<alphatype>straight</alphatype>
					<pixelaspectratio>square</pixelaspectratio>
					<anamorphic>FALSE</anamorphic>
					<file id="file-588">
					<name></name>
					<mediaSource>GraphicAndType</mediaSource>
					<rate>
					<timebase>60</timebase>
					<ntsc>TRUE</ntsc>
					</rate>
					<timecode>
					<rate>
					<timebase>60</timebase>
					<ntsc>TRUE</ntsc>
					</rate>
					<string>00:00:00:00</string>
					<frame>0</frame>
					<displayformat>NDF</displayformat>
					</timecode>
					<media>
					<video>
					<samplecharacteristics>
					<rate>
					<timebase>60</timebase>
					<ntsc>TRUE</ntsc>
					</rate>
					<width>1080</width>
					<height>1920</height>
					<anamorphic>FALSE</anamorphic>
					<pixelaspectratio>square</pixelaspectratio>
					<fielddominance>none</fielddominance>
					</samplecharacteristics>
					</video>
					</media>
					</file>
					<filter>
					<effect>
					<name></name>
					<effectid>GraphicAndType</effectid>
					<effectcategory>graphic</effectcategory>
					<effecttype>filter</effecttype>
					<mediatype>video</mediatype>
					<pproBypass>false</pproBypass>
					<parameter authoringApp="PremierePro">
					<parameterid>1</parameterid>
					<name></name>
					<hash>025b1101-ead6-0ca2-1feb-caf3000001fc</hash>
					<value>5AEAAAAAAABEMyIRDAAAAAAABgAKAAQABgAAAGQAAAAAAF4ASAAQAAwARABAADwAOAAAAAAAAAAAADQAMwAsAAAAKAAkACAAAAAAAAAAAAAAAAAAHAAAAAAAGgAAAAAAAAAUAAAAAAAAAAAAAAAAAAAAAAAAAAgAAAAAABsABwBeAAAAAAAAAUAAAABQAAAAbAAAAAIAAAAAAAEAAQAAAAAAQEEAAMBAAABAQAAAyEIAAAABIAAAAAIAAAACAAAAAAA2QwCASkTw/v//9P7///j+//8S////AAAAAAEAAAAEAAAAEQAAAEhHUFNvZWlLYWt1cG9wdGFpAAAAAQAAAAwAAAAIAAwABAAIAAgAAAAIAAAAUAAAAA8AAADvvIEAAAAAAAAAAAAAAAAAAAA2ACQAAAAgABwAAAAAABsAFAAAAAAAAAAAAAAAAAAAAAAAAAAAABAAAAAAAAAADAAAAAgABAA2AAAAAgAAABwAAAAcAAAAHAAAAAAAIEEAAAABaAAAAE3PAEOw////tP///wEAAAAUAAAAEAAaAAgABwAMAAAAEAAUABAAAAAAAAABHAAAAAAAoEEcAAAAAgAAAAAACgAIAAUABgAHAAoAAAAADAD//P///wQABAAEAAAACAAIAAYABwAIAAAAAAAMAA==</value>
					</parameter>
					<parameter authoringApp="PremierePro">
					<parameterid>2</parameterid>
					<name></name>
					<IsTimeVarying>false</IsTimeVarying>
					<ParameterControlType>11</ParameterControlType>
					<LowerBound>false</LowerBound>
					<UpperBound>false</UpperBound>
					<value>-91445760000000000,false,0,0,0,0,0,0</value>
					</parameter>
					<parameter authoringApp="PremierePro">
					<parameterid>3</parameterid>
					<name></name>
					<IsTimeVarying>false</IsTimeVarying>
					<value>-91445760000000000,0.5:0.5,0,0,0,0,0,0,5,4,0,0,0,0</value>
					</parameter>
					<parameter authoringApp="PremierePro">
					<parameterid>4</parameterid>
					<name></name>
					<IsTimeVarying>false</IsTimeVarying>
					<ParameterControlType>2</ParameterControlType>
					<LowerBound>0</LowerBound>
					<UpperBound>4000</UpperBound>
					<value>-91445760000000000,100.,0,0,0,0,0,0</value>
					</parameter>
					<parameter authoringApp="PremierePro">
					<parameterid>8</parameterid>
					<name></name>
					<IsTimeVarying>false</IsTimeVarying>
					<ParameterControlType>2</ParameterControlType>
					<LowerBound>0</LowerBound>
					<UpperBound>100</UpperBound>
					<value>-91445760000000000,100.,0,0,0,0,0,0</value>
					</parameter>
					</effect>
					</filter>
					<logginginfo>
					<description></description>
					<scene></scene>
					<shottake></shottake>
					<lognote></lognote>
					<good></good>
					<originalvideofilename></originalvideofilename>
					<originalaudiofilename></originalaudiofilename>
					</logginginfo>
					<colorinfo>
					<lut></lut>
					<lut1></lut1>
					<asc_sop></asc_sop>
					<asc_sat></asc_sat>
					<lut2></lut2>
					</colorinfo>
					<labels>
					</labels>
					</clipitem>
					<clipitem id="clipitem-680"/>
					                        </track>
					                        <track TL.SQTrackShy="0" TL.SQTrackExpandedHeight="25" TL.SQTrackExpanded="0" MZ.TrackTargeted="0">
					<clipitem frameBlend="FALSE" id="clipitem-681">
					<masterclipid>masterclip-601</masterclipid>
					<name></name>
					<enabled>TRUE</enabled>
					<duration>2582774</duration>
					<rate>
					
					                                    <timebase>60</timebase>
					                                    <ntsc>TRUE</ntsc>
					                                
					</rate>
					<start>5902</start>
					<end>5962</end>
					<in>5902</in>
					<out>5962</out>
					<pproTicksIn>914456774963789</pproTicksIn>
					<pproTicksOut>914677708529577</pproTicksOut>
					<alphatype>straight</alphatype>
					<pixelaspectratio>square</pixelaspectratio>
					<anamorphic>FALSE</anamorphic>
					<file id="file-600">
					<name></name>
					<mediaSource>GraphicAndType</mediaSource>
					<rate>
					<timebase>60</timebase>
					<ntsc>TRUE</ntsc>
					</rate>
					<timecode>
					<rate>
					<timebase>60</timebase>
					<ntsc>TRUE</ntsc>
					</rate>
					<string>00:00:00:00</string>
					<frame>0</frame>
					<displayformat>NDF</displayformat>
					</timecode>
					<media>
					<video>
					<samplecharacteristics>
					<rate>
					<timebase>60</timebase>
					<ntsc>TRUE</ntsc>
					</rate>
					<width>1080</width>
					<height>1920</height>
					<anamorphic>FALSE</anamorphic>
					<pixelaspectratio>square</pixelaspectratio>
					<fielddominance>none</fielddominance>
					</samplecharacteristics>
					</video>
					</media>
					</file>
					<filter>
					<effect>
					<name></name>
					<effectid>GraphicAndType</effectid>
					<effectcategory>graphic</effectcategory>
					<effecttype>filter</effecttype>
					<mediatype>video</mediatype>
					<pproBypass>false</pproBypass>
					<parameter authoringApp="PremierePro">
					<parameterid>1</parameterid>
					<name></name>
					<hash>025b1101-ead6-0ca2-1feb-caf3000001fc</hash>
					<value>5AEAAAAAAABEMyIRDAAAAAAABgAKAAQABgAAAGQAAAAAAF4ASAAQAAwARABAADwAOAAAAAAAAAAAADQAMwAsAAAAKAAkACAAAAAAAAAAAAAAAAAAHAAAAAAAGgAAAAAAAAAUAAAAAAAAAAAAAAAAAAAAAAAAAAgAAAAAABsABwBeAAAAAAAAAUAAAABQAAAAbAAAAAIAAAAAAAEAAQAAAAAAQEEAAMBAAABAQAAAyEIAAAABIAAAAAIAAAACAAAAAAA2QwCASkTw/v//9P7///j+//8S////AAAAAAEAAAAEAAAAEQAAAEhHUFNvZWlLYWt1cG9wdGFpAAAAAQAAAAwAAAAIAAwABAAIAAgAAAAIAAAAUAAAAA8AAADvvIEAAAAAAAAAAAAAAAAAAAA2ACQAAAAgABwAAAAAABsAFAAAAAAAAAAAAAAAAAAAAAAAAAAAABAAAAAAAAAADAAAAAgABAA2AAAAAgAAABwAAAAcAAAAHAAAAAAAIEEAAAABaAAAAE3PAEOw////tP///wEAAAAUAAAAEAAaAAgABwAMAAAAEAAUABAAAAAAAAABHAAAAAAAoEEcAAAAAgAAAAAACgAIAAUABgAHAAoAAAAADAD//P///wQABAAEAAAACAAIAAYABwAIAAAAAAAMAA==</value>
					</parameter>
					<parameter authoringApp="PremierePro">
					<parameterid>2</parameterid>
					<name></name>
					<IsTimeVarying>false</IsTimeVarying>
					<ParameterControlType>11</ParameterControlType>
					<LowerBound>false</LowerBound>
					<UpperBound>false</UpperBound>
					<value>-91445760000000000,false,0,0,0,0,0,0</value>
					</parameter>
					<parameter authoringApp="PremierePro">
					<parameterid>3</parameterid>
					<name></name>
					<IsTimeVarying>false</IsTimeVarying>
					<value>-91445760000000000,0.5:0.5,0,0,0,0,0,0,5,4,0,0,0,0</value>
					</parameter>
					<parameter authoringApp="PremierePro">
					<parameterid>4</parameterid>
					<name></name>
					<IsTimeVarying>false</IsTimeVarying>
					<ParameterControlType>2</ParameterControlType>
					<LowerBound>0</LowerBound>
					<UpperBound>4000</UpperBound>
					<value>-91445760000000000,100.,0,0,0,0,0,0</value>
					</parameter>
					<parameter authoringApp="PremierePro">
					<parameterid>8</parameterid>
					<name></name>
					<IsTimeVarying>false</IsTimeVarying>
					<ParameterControlType>2</ParameterControlType>
					<LowerBound>0</LowerBound>
					<UpperBound>100</UpperBound>
					<value>-91445760000000000,100.,0,0,0,0,0,0</value>
					</parameter>
					</effect>
					</filter>
					<logginginfo>
					<description></description>
					<scene></scene>
					<shottake></shottake>
					<lognote></lognote>
					<good></good>
					<originalvideofilename></originalvideofilename>
					<originalaudiofilename></originalaudiofilename>
					</logginginfo>
					<colorinfo>
					<lut></lut>
					<lut1></lut1>
					<asc_sop></asc_sop>
					<asc_sat></asc_sat>
					<lut2></lut2>
					</colorinfo>
					<labels>
					</labels>
					</clipitem>
					<clipitem frameBlend="FALSE" id="clipitem-688">
					<masterclipid>masterclip-608</masterclipid>
					<name></name>
					<enabled>TRUE</enabled>
					<duration>2582774</duration>
					<rate>
					
					                                    <timebase>60</timebase>
					                                    <ntsc>TRUE</ntsc>
					                                
					</rate>
					<start>5980</start>
					<end>6040</end>
					<in>5980</in>
					<out>6040</out>
					<pproTicksIn>914456774963789</pproTicksIn>
					<pproTicksOut>914677708529577</pproTicksOut>
					<alphatype>straight</alphatype>
					<pixelaspectratio>square</pixelaspectratio>
					<anamorphic>FALSE</anamorphic>
					<file id="file-607">
					<name></name>
					<mediaSource>GraphicAndType</mediaSource>
					<rate>
					<timebase>60</timebase>
					<ntsc>TRUE</ntsc>
					</rate>
					<timecode>
					<rate>
					<timebase>60</timebase>
					<ntsc>TRUE</ntsc>
					</rate>
					<string>00:00:00:00</string>
					<frame>0</frame>
					<displayformat>NDF</displayformat>
					</timecode>
					<media>
					<video>
					<samplecharacteristics>
					<rate>
					<timebase>60</timebase>
					<ntsc>TRUE</ntsc>
					</rate>
					<width>1080</width>
					<height>1920</height>
					<anamorphic>FALSE</anamorphic>
					<pixelaspectratio>square</pixelaspectratio>
					<fielddominance>none</fielddominance>
					</samplecharacteristics>
					</video>
					</media>
					</file>
					<filter>
					<effect>
					<name></name>
					<effectid>GraphicAndType</effectid>
					<effectcategory>graphic</effectcategory>
					<effecttype>filter</effecttype>
					<mediatype>video</mediatype>
					<pproBypass>false</pproBypass>
					<parameter authoringApp="PremierePro">
					<parameterid>1</parameterid>
					<name></name>
					<hash>025b1101-ead6-0ca2-1feb-caf3000001fc</hash>
					<value>5AEAAAAAAABEMyIRDAAAAAAABgAKAAQABgAAAGQAAAAAAF4ASAAQAAwARABAADwAOAAAAAAAAAAAADQAMwAsAAAAKAAkACAAAAAAAAAAAAAAAAAAHAAAAAAAGgAAAAAAAAAUAAAAAAAAAAAAAAAAAAAAAAAAAAgAAAAAABsABwBeAAAAAAAAAUAAAABQAAAAbAAAAAIAAAAAAAEAAQAAAAAAQEEAAMBAAABAQAAAyEIAAAABIAAAAAIAAAACAAAAAAA2QwCASkTw/v//9P7///j+//8S////AAAAAAEAAAAEAAAAEQAAAEhHUFNvZWlLYWt1cG9wdGFpAAAAAQAAAAwAAAAIAAwABAAIAAgAAAAIAAAAUAAAAA8AAADvvIEAAAAAAAAAAAAAAAAAAAA2ACQAAAAgABwAAAAAABsAFAAAAAAAAAAAAAAAAAAAAAAAAAAAABAAAAAAAAAADAAAAAgABAA2AAAAAgAAABwAAAAcAAAAHAAAAAAAIEEAAAABaAAAAE3PAEOw////tP///wEAAAAUAAAAEAAaAAgABwAMAAAAEAAUABAAAAAAAAABHAAAAAAAoEEcAAAAAgAAAAAACgAIAAUABgAHAAoAAAAADAD//P///wQABAAEAAAACAAIAAYABwAIAAAAAAAMAA==</value>
					</parameter>
					<parameter authoringApp="PremierePro">
					<parameterid>2</parameterid>
					<name></name>
					<IsTimeVarying>false</IsTimeVarying>
					<ParameterControlType>11</ParameterControlType>
					<LowerBound>false</LowerBound>
					<UpperBound>false</UpperBound>
					<value>-91445760000000000,false,0,0,0,0,0,0</value>
					</parameter>
					<parameter authoringApp="PremierePro">
					<parameterid>3</parameterid>
					<name></name>
					<IsTimeVarying>false</IsTimeVarying>
					<value>-91445760000000000,0.5:0.5,0,0,0,0,0,0,5,4,0,0,0,0</value>
					</parameter>
					<parameter authoringApp="PremierePro">
					<parameterid>4</parameterid>
					<name></name>
					<IsTimeVarying>false</IsTimeVarying>
					<ParameterControlType>2</ParameterControlType>
					<LowerBound>0</LowerBound>
					<UpperBound>4000</UpperBound>
					<value>-91445760000000000,100.,0,0,0,0,0,0</value>
					</parameter>
					<parameter authoringApp="PremierePro">
					<parameterid>8</parameterid>
					<name></name>
					<IsTimeVarying>false</IsTimeVarying>
					<ParameterControlType>2</ParameterControlType>
					<LowerBound>0</LowerBound>
					<UpperBound>100</UpperBound>
					<value>-91445760000000000,100.,0,0,0,0,0,0</value>
					</parameter>
					</effect>
					</filter>
					<logginginfo>
					<description></description>
					<scene></scene>
					<shottake></shottake>
					<lognote></lognote>
					<good></good>
					<originalvideofilename></originalvideofilename>
					<originalaudiofilename></originalaudiofilename>
					</logginginfo>
					<colorinfo>
					<lut></lut>
					<lut1></lut1>
					<asc_sop></asc_sop>
					<asc_sat></asc_sat>
					<lut2></lut2>
					</colorinfo>
					<labels>
					</labels>
					</clipitem>
					<clipitem frameBlend="FALSE" id="clipitem-696">
					<masterclipid>masterclip-616</masterclipid>
					<name></name>
					<enabled>TRUE</enabled>
					<duration>2582774</duration>
					<rate>
					
					                                    <timebase>60</timebase>
					                                    <ntsc>TRUE</ntsc>
					                                
					</rate>
					<start>6040</start>
					<end>6100</end>
					<in>6040</in>
					<out>6100</out>
					<pproTicksIn>914456774963789</pproTicksIn>
					<pproTicksOut>914677708529577</pproTicksOut>
					<alphatype>straight</alphatype>
					<pixelaspectratio>square</pixelaspectratio>
					<anamorphic>FALSE</anamorphic>
					<file id="file-615">
					<name></name>
					<mediaSource>GraphicAndType</mediaSource>
					<rate>
					<timebase>60</timebase>
					<ntsc>TRUE</ntsc>
					</rate>
					<timecode>
					<rate>
					<timebase>60</timebase>
					<ntsc>TRUE</ntsc>
					</rate>
					<string>00:00:00:00</string>
					<frame>0</frame>
					<displayformat>NDF</displayformat>
					</timecode>
					<media>
					<video>
					<samplecharacteristics>
					<rate>
					<timebase>60</timebase>
					<ntsc>TRUE</ntsc>
					</rate>
					<width>1080</width>
					<height>1920</height>
					<anamorphic>FALSE</anamorphic>
					<pixelaspectratio>square</pixelaspectratio>
					<fielddominance>none</fielddominance>
					</samplecharacteristics>
					</video>
					</media>
					</file>
					<filter>
					<effect>
					<name></name>
					<effectid>GraphicAndType</effectid>
					<effectcategory>graphic</effectcategory>
					<effecttype>filter</effecttype>
					<mediatype>video</mediatype>
					<pproBypass>false</pproBypass>
					<parameter authoringApp="PremierePro">
					<parameterid>1</parameterid>
					<name></name>
					<hash>025b1101-ead6-0ca2-1feb-caf3000001fc</hash>
					<value>5AEAAAAAAABEMyIRDAAAAAAABgAKAAQABgAAAGQAAAAAAF4ASAAQAAwARABAADwAOAAAAAAAAAAAADQAMwAsAAAAKAAkACAAAAAAAAAAAAAAAAAAHAAAAAAAGgAAAAAAAAAUAAAAAAAAAAAAAAAAAAAAAAAAAAgAAAAAABsABwBeAAAAAAAAAUAAAABQAAAAbAAAAAIAAAAAAAEAAQAAAAAAQEEAAMBAAABAQAAAyEIAAAABIAAAAAIAAAACAAAAAAA2QwCASkTw/v//9P7///j+//8S////AAAAAAEAAAAEAAAAEQAAAEhHUFNvZWlLYWt1cG9wdGFpAAAAAQAAAAwAAAAIAAwABAAIAAgAAAAIAAAAUAAAAA8AAADvvIEAAAAAAAAAAAAAAAAAAAA2ACQAAAAgABwAAAAAABsAFAAAAAAAAAAAAAAAAAAAAAAAAAAAABAAAAAAAAAADAAAAAgABAA2AAAAAgAAABwAAAAcAAAAHAAAAAAAIEEAAAABaAAAAE3PAEOw////tP///wEAAAAUAAAAEAAaAAgABwAMAAAAEAAUABAAAAAAAAABHAAAAAAAoEEcAAAAAgAAAAAACgAIAAUABgAHAAoAAAAADAD//P///wQABAAEAAAACAAIAAYABwAIAAAAAAAMAA==</value>
					</parameter>
					<parameter authoringApp="PremierePro">
					<parameterid>2</parameterid>
					<name></name>
					<IsTimeVarying>false</IsTimeVarying>
					<ParameterControlType>11</ParameterControlType>
					<LowerBound>false</LowerBound>
					<UpperBound>false</UpperBound>
					<value>-91445760000000000,false,0,0,0,0,0,0</value>
					</parameter>
					<parameter authoringApp="PremierePro">
					<parameterid>3</parameterid>
					<name></name>
					<IsTimeVarying>false</IsTimeVarying>
					<value>-91445760000000000,0.5:0.5,0,0,0,0,0,0,5,4,0,0,0,0</value>
					</parameter>
					<parameter authoringApp="PremierePro">
					<parameterid>4</parameterid>
					<name></name>
					<IsTimeVarying>false</IsTimeVarying>
					<ParameterControlType>2</ParameterControlType>
					<LowerBound>0</LowerBound>
					<UpperBound>4000</UpperBound>
					<value>-91445760000000000,100.,0,0,0,0,0,0</value>
					</parameter>
					<parameter authoringApp="PremierePro">
					<parameterid>8</parameterid>
					<name></name>
					<IsTimeVarying>false</IsTimeVarying>
					<ParameterControlType>2</ParameterControlType>
					<LowerBound>0</LowerBound>
					<UpperBound>100</UpperBound>
					<value>-91445760000000000,100.,0,0,0,0,0,0</value>
					</parameter>
					</effect>
					</filter>
					<logginginfo>
					<description></description>
					<scene></scene>
					<shottake></shottake>
					<lognote></lognote>
					<good></good>
					<originalvideofilename></originalvideofilename>
					<originalaudiofilename></originalaudiofilename>
					</logginginfo>
					<colorinfo>
					<lut></lut>
					<lut1></lut1>
					<asc_sop></asc_sop>
					<asc_sat></asc_sat>
					<lut2></lut2>
					</colorinfo>
					<labels>
					</labels>
					</clipitem>
					<clipitem frameBlend="FALSE" id="clipitem-702">
					<masterclipid>masterclip-622</masterclipid>
					<name></name>
					<enabled>TRUE</enabled>
					<duration>2582774</duration>
					<rate>
					
					                                    <timebase>60</timebase>
					                                    <ntsc>TRUE</ntsc>
					                                
					</rate>
					<start>6106</start>
					<end>6166</end>
					<in>6106</in>
					<out>6166</out>
					<pproTicksIn>914456774963789</pproTicksIn>
					<pproTicksOut>914677708529577</pproTicksOut>
					<alphatype>straight</alphatype>
					<pixelaspectratio>square</pixelaspectratio>
					<anamorphic>FALSE</anamorphic>
					<file id="file-621">
					<name></name>
					<mediaSource>GraphicAndType</mediaSource>
					<rate>
					<timebase>60</timebase>
					<ntsc>TRUE</ntsc>
					</rate>
					<timecode>
					<rate>
					<timebase>60</timebase>
					<ntsc>TRUE</ntsc>
					</rate>
					<string>00:00:00:00</string>
					<frame>0</frame>
					<displayformat>NDF</displayformat>
					</timecode>
					<media>
					<video>
					<samplecharacteristics>
					<rate>
					<timebase>60</timebase>
					<ntsc>TRUE</ntsc>
					</rate>
					<width>1080</width>
					<height>1920</height>
					<anamorphic>FALSE</anamorphic>
					<pixelaspectratio>square</pixelaspectratio>
					<fielddominance>none</fielddominance>
					</samplecharacteristics>
					</video>
					</media>
					</file>
					<filter>
					<effect>
					<name></name>
					<effectid>GraphicAndType</effectid>
					<effectcategory>graphic</effectcategory>
					<effecttype>filter</effecttype>
					<mediatype>video</mediatype>
					<pproBypass>false</pproBypass>
					<parameter authoringApp="PremierePro">
					<parameterid>1</parameterid>
					<name></name>
					<hash>025b1101-ead6-0ca2-1feb-caf3000001fc</hash>
					<value>5AEAAAAAAABEMyIRDAAAAAAABgAKAAQABgAAAGQAAAAAAF4ASAAQAAwARABAADwAOAAAAAAAAAAAADQAMwAsAAAAKAAkACAAAAAAAAAAAAAAAAAAHAAAAAAAGgAAAAAAAAAUAAAAAAAAAAAAAAAAAAAAAAAAAAgAAAAAABsABwBeAAAAAAAAAUAAAABQAAAAbAAAAAIAAAAAAAEAAQAAAAAAQEEAAMBAAABAQAAAyEIAAAABIAAAAAIAAAACAAAAAAA2QwCASkTw/v//9P7///j+//8S////AAAAAAEAAAAEAAAAEQAAAEhHUFNvZWlLYWt1cG9wdGFpAAAAAQAAAAwAAAAIAAwABAAIAAgAAAAIAAAAUAAAAA8AAADvvIEAAAAAAAAAAAAAAAAAAAA2ACQAAAAgABwAAAAAABsAFAAAAAAAAAAAAAAAAAAAAAAAAAAAABAAAAAAAAAADAAAAAgABAA2AAAAAgAAABwAAAAcAAAAHAAAAAAAIEEAAAABaAAAAE3PAEOw////tP///wEAAAAUAAAAEAAaAAgABwAMAAAAEAAUABAAAAAAAAABHAAAAAAAoEEcAAAAAgAAAAAACgAIAAUABgAHAAoAAAAADAD//P///wQABAAEAAAACAAIAAYABwAIAAAAAAAMAA==</value>
					</parameter>
					<parameter authoringApp="PremierePro">
					<parameterid>2</parameterid>
					<name></name>
					<IsTimeVarying>false</IsTimeVarying>
					<ParameterControlType>11</ParameterControlType>
					<LowerBound>false</LowerBound>
					<UpperBound>false</UpperBound>
					<value>-91445760000000000,false,0,0,0,0,0,0</value>
					</parameter>
					<parameter authoringApp="PremierePro">
					<parameterid>3</parameterid>
					<name></name>
					<IsTimeVarying>false</IsTimeVarying>
					<value>-91445760000000000,0.5:0.5,0,0,0,0,0,0,5,4,0,0,0,0</value>
					</parameter>
					<parameter authoringApp="PremierePro">
					<parameterid>4</parameterid>
					<name></name>
					<IsTimeVarying>false</IsTimeVarying>
					<ParameterControlType>2</ParameterControlType>
					<LowerBound>0</LowerBound>
					<UpperBound>4000</UpperBound>
					<value>-91445760000000000,100.,0,0,0,0,0,0</value>
					</parameter>
					<parameter authoringApp="PremierePro">
					<parameterid>8</parameterid>
					<name></name>
					<IsTimeVarying>false</IsTimeVarying>
					<ParameterControlType>2</ParameterControlType>
					<LowerBound>0</LowerBound>
					<UpperBound>100</UpperBound>
					<value>-91445760000000000,100.,0,0,0,0,0,0</value>
					</parameter>
					</effect>
					</filter>
					<logginginfo>
					<description></description>
					<scene></scene>
					<shottake></shottake>
					<lognote></lognote>
					<good></good>
					<originalvideofilename></originalvideofilename>
					<originalaudiofilename></originalaudiofilename>
					</logginginfo>
					<colorinfo>
					<lut></lut>
					<lut1></lut1>
					<asc_sop></asc_sop>
					<asc_sat></asc_sat>
					<lut2></lut2>
					</colorinfo>
					<labels>
					</labels>
					</clipitem>
					<clipitem frameBlend="FALSE" id="clipitem-709">
					<masterclipid>masterclip-629</masterclipid>
					<name></name>
					<enabled>TRUE</enabled>
					<duration>2582774</duration>
					<rate>
					
					                                    <timebase>60</timebase>
					                                    <ntsc>TRUE</ntsc>
					                                
					</rate>
					<start>6172</start>
					<end>6232</end>
					<in>6172</in>
					<out>6232</out>
					<pproTicksIn>914456774963789</pproTicksIn>
					<pproTicksOut>914677708529577</pproTicksOut>
					<alphatype>straight</alphatype>
					<pixelaspectratio>square</pixelaspectratio>
					<anamorphic>FALSE</anamorphic>
					<file id="file-628">
					<name></name>
					<mediaSource>GraphicAndType</mediaSource>
					<rate>
					<timebase>60</timebase>
					<ntsc>TRUE</ntsc>
					</rate>
					<timecode>
					<rate>
					<timebase>60</timebase>
					<ntsc>TRUE</ntsc>
					</rate>
					<string>00:00:00:00</string>
					<frame>0</frame>
					<displayformat>NDF</displayformat>
					</timecode>
					<media>
					<video>
					<samplecharacteristics>
					<rate>
					<timebase>60</timebase>
					<ntsc>TRUE</ntsc>
					</rate>
					<width>1080</width>
					<height>1920</height>
					<anamorphic>FALSE</anamorphic>
					<pixelaspectratio>square</pixelaspectratio>
					<fielddominance>none</fielddominance>
					</samplecharacteristics>
					</video>
					</media>
					</file>
					<filter>
					<effect>
					<name></name>
					<effectid>GraphicAndType</effectid>
					<effectcategory>graphic</effectcategory>
					<effecttype>filter</effecttype>
					<mediatype>video</mediatype>
					<pproBypass>false</pproBypass>
					<parameter authoringApp="PremierePro">
					<parameterid>1</parameterid>
					<name></name>
					<hash>025b1101-ead6-0ca2-1feb-caf3000001fc</hash>
					<value>5AEAAAAAAABEMyIRDAAAAAAABgAKAAQABgAAAGQAAAAAAF4ASAAQAAwARABAADwAOAAAAAAAAAAAADQAMwAsAAAAKAAkACAAAAAAAAAAAAAAAAAAHAAAAAAAGgAAAAAAAAAUAAAAAAAAAAAAAAAAAAAAAAAAAAgAAAAAABsABwBeAAAAAAAAAUAAAABQAAAAbAAAAAIAAAAAAAEAAQAAAAAAQEEAAMBAAABAQAAAyEIAAAABIAAAAAIAAAACAAAAAAA2QwCASkTw/v//9P7///j+//8S////AAAAAAEAAAAEAAAAEQAAAEhHUFNvZWlLYWt1cG9wdGFpAAAAAQAAAAwAAAAIAAwABAAIAAgAAAAIAAAAUAAAAA8AAADvvIEAAAAAAAAAAAAAAAAAAAA2ACQAAAAgABwAAAAAABsAFAAAAAAAAAAAAAAAAAAAAAAAAAAAABAAAAAAAAAADAAAAAgABAA2AAAAAgAAABwAAAAcAAAAHAAAAAAAIEEAAAABaAAAAE3PAEOw////tP///wEAAAAUAAAAEAAaAAgABwAMAAAAEAAUABAAAAAAAAABHAAAAAAAoEEcAAAAAgAAAAAACgAIAAUABgAHAAoAAAAADAD//P///wQABAAEAAAACAAIAAYABwAIAAAAAAAMAA==</value>
					</parameter>
					<parameter authoringApp="PremierePro">
					<parameterid>2</parameterid>
					<name></name>
					<IsTimeVarying>false</IsTimeVarying>
					<ParameterControlType>11</ParameterControlType>
					<LowerBound>false</LowerBound>
					<UpperBound>false</UpperBound>
					<value>-91445760000000000,false,0,0,0,0,0,0</value>
					</parameter>
					<parameter authoringApp="PremierePro">
					<parameterid>3</parameterid>
					<name></name>
					<IsTimeVarying>false</IsTimeVarying>
					<value>-91445760000000000,0.5:0.5,0,0,0,0,0,0,5,4,0,0,0,0</value>
					</parameter>
					<parameter authoringApp="PremierePro">
					<parameterid>4</parameterid>
					<name></name>
					<IsTimeVarying>false</IsTimeVarying>
					<ParameterControlType>2</ParameterControlType>
					<LowerBound>0</LowerBound>
					<UpperBound>4000</UpperBound>
					<value>-91445760000000000,100.,0,0,0,0,0,0</value>
					</parameter>
					<parameter authoringApp="PremierePro">
					<parameterid>8</parameterid>
					<name></name>
					<IsTimeVarying>false</IsTimeVarying>
					<ParameterControlType>2</ParameterControlType>
					<LowerBound>0</LowerBound>
					<UpperBound>100</UpperBound>
					<value>-91445760000000000,100.,0,0,0,0,0,0</value>
					</parameter>
					</effect>
					</filter>
					<logginginfo>
					<description></description>
					<scene></scene>
					<shottake></shottake>
					<lognote></lognote>
					<good></good>
					<originalvideofilename></originalvideofilename>
					<originalaudiofilename></originalaudiofilename>
					</logginginfo>
					<colorinfo>
					<lut></lut>
					<lut1></lut1>
					<asc_sop></asc_sop>
					<asc_sat></asc_sat>
					<lut2></lut2>
					</colorinfo>
					<labels>
					</labels>
					</clipitem>
					<clipitem frameBlend="FALSE" id="clipitem-716">
					<masterclipid>masterclip-636</masterclipid>
					<name></name>
					<enabled>TRUE</enabled>
					<duration>2582774</duration>
					<rate>
					
					                                    <timebase>60</timebase>
					                                    <ntsc>TRUE</ntsc>
					                                
					</rate>
					<start>6232</start>
					<end>6292</end>
					<in>6232</in>
					<out>6292</out>
					<pproTicksIn>914456774963789</pproTicksIn>
					<pproTicksOut>914677708529577</pproTicksOut>
					<alphatype>straight</alphatype>
					<pixelaspectratio>square</pixelaspectratio>
					<anamorphic>FALSE</anamorphic>
					<file id="file-635">
					<name></name>
					<mediaSource>GraphicAndType</mediaSource>
					<rate>
					<timebase>60</timebase>
					<ntsc>TRUE</ntsc>
					</rate>
					<timecode>
					<rate>
					<timebase>60</timebase>
					<ntsc>TRUE</ntsc>
					</rate>
					<string>00:00:00:00</string>
					<frame>0</frame>
					<displayformat>NDF</displayformat>
					</timecode>
					<media>
					<video>
					<samplecharacteristics>
					<rate>
					<timebase>60</timebase>
					<ntsc>TRUE</ntsc>
					</rate>
					<width>1080</width>
					<height>1920</height>
					<anamorphic>FALSE</anamorphic>
					<pixelaspectratio>square</pixelaspectratio>
					<fielddominance>none</fielddominance>
					</samplecharacteristics>
					</video>
					</media>
					</file>
					<filter>
					<effect>
					<name></name>
					<effectid>GraphicAndType</effectid>
					<effectcategory>graphic</effectcategory>
					<effecttype>filter</effecttype>
					<mediatype>video</mediatype>
					<pproBypass>false</pproBypass>
					<parameter authoringApp="PremierePro">
					<parameterid>1</parameterid>
					<name></name>
					<hash>025b1101-ead6-0ca2-1feb-caf3000001fc</hash>
					<value>5AEAAAAAAABEMyIRDAAAAAAABgAKAAQABgAAAGQAAAAAAF4ASAAQAAwARABAADwAOAAAAAAAAAAAADQAMwAsAAAAKAAkACAAAAAAAAAAAAAAAAAAHAAAAAAAGgAAAAAAAAAUAAAAAAAAAAAAAAAAAAAAAAAAAAgAAAAAABsABwBeAAAAAAAAAUAAAABQAAAAbAAAAAIAAAAAAAEAAQAAAAAAQEEAAMBAAABAQAAAyEIAAAABIAAAAAIAAAACAAAAAAA2QwCASkTw/v//9P7///j+//8S////AAAAAAEAAAAEAAAAEQAAAEhHUFNvZWlLYWt1cG9wdGFpAAAAAQAAAAwAAAAIAAwABAAIAAgAAAAIAAAAUAAAAA8AAADvvIEAAAAAAAAAAAAAAAAAAAA2ACQAAAAgABwAAAAAABsAFAAAAAAAAAAAAAAAAAAAAAAAAAAAABAAAAAAAAAADAAAAAgABAA2AAAAAgAAABwAAAAcAAAAHAAAAAAAIEEAAAABaAAAAE3PAEOw////tP///wEAAAAUAAAAEAAaAAgABwAMAAAAEAAUABAAAAAAAAABHAAAAAAAoEEcAAAAAgAAAAAACgAIAAUABgAHAAoAAAAADAD//P///wQABAAEAAAACAAIAAYABwAIAAAAAAAMAA==</value>
					</parameter>
					<parameter authoringApp="PremierePro">
					<parameterid>2</parameterid>
					<name></name>
					<IsTimeVarying>false</IsTimeVarying>
					<ParameterControlType>11</ParameterControlType>
					<LowerBound>false</LowerBound>
					<UpperBound>false</UpperBound>
					<value>-91445760000000000,false,0,0,0,0,0,0</value>
					</parameter>
					<parameter authoringApp="PremierePro">
					<parameterid>3</parameterid>
					<name></name>
					<IsTimeVarying>false</IsTimeVarying>
					<value>-91445760000000000,0.5:0.5,0,0,0,0,0,0,5,4,0,0,0,0</value>
					</parameter>
					<parameter authoringApp="PremierePro">
					<parameterid>4</parameterid>
					<name></name>
					<IsTimeVarying>false</IsTimeVarying>
					<ParameterControlType>2</ParameterControlType>
					<LowerBound>0</LowerBound>
					<UpperBound>4000</UpperBound>
					<value>-91445760000000000,100.,0,0,0,0,0,0</value>
					</parameter>
					<parameter authoringApp="PremierePro">
					<parameterid>8</parameterid>
					<name></name>
					<IsTimeVarying>false</IsTimeVarying>
					<ParameterControlType>2</ParameterControlType>
					<LowerBound>0</LowerBound>
					<UpperBound>100</UpperBound>
					<value>-91445760000000000,100.,0,0,0,0,0,0</value>
					</parameter>
					</effect>
					</filter>
					<logginginfo>
					<description></description>
					<scene></scene>
					<shottake></shottake>
					<lognote></lognote>
					<good></good>
					<originalvideofilename></originalvideofilename>
					<originalaudiofilename></originalaudiofilename>
					</logginginfo>
					<colorinfo>
					<lut></lut>
					<lut1></lut1>
					<asc_sop></asc_sop>
					<asc_sat></asc_sat>
					<lut2></lut2>
					</colorinfo>
					<labels>
					</labels>
					</clipitem>
					<clipitem frameBlend="FALSE" id="clipitem-724">
					<masterclipid>masterclip-644</masterclipid>
					<name></name>
					<enabled>TRUE</enabled>
					<duration>2582774</duration>
					<rate>
					
					                                    <timebase>60</timebase>
					                                    <ntsc>TRUE</ntsc>
					                                
					</rate>
					<start>6292</start>
					<end>6358</end>
					<in>6292</in>
					<out>6358</out>
					<pproTicksIn>914456774963789</pproTicksIn>
					<pproTicksOut>914677708529577</pproTicksOut>
					<alphatype>straight</alphatype>
					<pixelaspectratio>square</pixelaspectratio>
					<anamorphic>FALSE</anamorphic>
					<file id="file-643">
					<name></name>
					<mediaSource>GraphicAndType</mediaSource>
					<rate>
					<timebase>60</timebase>
					<ntsc>TRUE</ntsc>
					</rate>
					<timecode>
					<rate>
					<timebase>60</timebase>
					<ntsc>TRUE</ntsc>
					</rate>
					<string>00:00:00:00</string>
					<frame>0</frame>
					<displayformat>NDF</displayformat>
					</timecode>
					<media>
					<video>
					<samplecharacteristics>
					<rate>
					<timebase>60</timebase>
					<ntsc>TRUE</ntsc>
					</rate>
					<width>1080</width>
					<height>1920</height>
					<anamorphic>FALSE</anamorphic>
					<pixelaspectratio>square</pixelaspectratio>
					<fielddominance>none</fielddominance>
					</samplecharacteristics>
					</video>
					</media>
					</file>
					<filter>
					<effect>
					<name></name>
					<effectid>GraphicAndType</effectid>
					<effectcategory>graphic</effectcategory>
					<effecttype>filter</effecttype>
					<mediatype>video</mediatype>
					<pproBypass>false</pproBypass>
					<parameter authoringApp="PremierePro">
					<parameterid>1</parameterid>
					<name></name>
					<hash>025b1101-ead6-0ca2-1feb-caf3000001fc</hash>
					<value>5AEAAAAAAABEMyIRDAAAAAAABgAKAAQABgAAAGQAAAAAAF4ASAAQAAwARABAADwAOAAAAAAAAAAAADQAMwAsAAAAKAAkACAAAAAAAAAAAAAAAAAAHAAAAAAAGgAAAAAAAAAUAAAAAAAAAAAAAAAAAAAAAAAAAAgAAAAAABsABwBeAAAAAAAAAUAAAABQAAAAbAAAAAIAAAAAAAEAAQAAAAAAQEEAAMBAAABAQAAAyEIAAAABIAAAAAIAAAACAAAAAAA2QwCASkTw/v//9P7///j+//8S////AAAAAAEAAAAEAAAAEQAAAEhHUFNvZWlLYWt1cG9wdGFpAAAAAQAAAAwAAAAIAAwABAAIAAgAAAAIAAAAUAAAAA8AAADvvIEAAAAAAAAAAAAAAAAAAAA2ACQAAAAgABwAAAAAABsAFAAAAAAAAAAAAAAAAAAAAAAAAAAAABAAAAAAAAAADAAAAAgABAA2AAAAAgAAABwAAAAcAAAAHAAAAAAAIEEAAAABaAAAAE3PAEOw////tP///wEAAAAUAAAAEAAaAAgABwAMAAAAEAAUABAAAAAAAAABHAAAAAAAoEEcAAAAAgAAAAAACgAIAAUABgAHAAoAAAAADAD//P///wQABAAEAAAACAAIAAYABwAIAAAAAAAMAA==</value>
					</parameter>
					<parameter authoringApp="PremierePro">
					<parameterid>2</parameterid>
					<name></name>
					<IsTimeVarying>false</IsTimeVarying>
					<ParameterControlType>11</ParameterControlType>
					<LowerBound>false</LowerBound>
					<UpperBound>false</UpperBound>
					<value>-91445760000000000,false,0,0,0,0,0,0</value>
					</parameter>
					<parameter authoringApp="PremierePro">
					<parameterid>3</parameterid>
					<name></name>
					<IsTimeVarying>false</IsTimeVarying>
					<value>-91445760000000000,0.5:0.5,0,0,0,0,0,0,5,4,0,0,0,0</value>
					</parameter>
					<parameter authoringApp="PremierePro">
					<parameterid>4</parameterid>
					<name></name>
					<IsTimeVarying>false</IsTimeVarying>
					<ParameterControlType>2</ParameterControlType>
					<LowerBound>0</LowerBound>
					<UpperBound>4000</UpperBound>
					<value>-91445760000000000,100.,0,0,0,0,0,0</value>
					</parameter>
					<parameter authoringApp="PremierePro">
					<parameterid>8</parameterid>
					<name></name>
					<IsTimeVarying>false</IsTimeVarying>
					<ParameterControlType>2</ParameterControlType>
					<LowerBound>0</LowerBound>
					<UpperBound>100</UpperBound>
					<value>-91445760000000000,100.,0,0,0,0,0,0</value>
					</parameter>
					</effect>
					</filter>
					<logginginfo>
					<description></description>
					<scene></scene>
					<shottake></shottake>
					<lognote></lognote>
					<good></good>
					<originalvideofilename></originalvideofilename>
					<originalaudiofilename></originalaudiofilename>
					</logginginfo>
					<colorinfo>
					<lut></lut>
					<lut1></lut1>
					<asc_sop></asc_sop>
					<asc_sat></asc_sat>
					<lut2></lut2>
					</colorinfo>
					<labels>
					</labels>
					</clipitem>
					<clipitem frameBlend="FALSE" id="clipitem-731">
					<masterclipid>masterclip-651</masterclipid>
					<name></name>
					<enabled>TRUE</enabled>
					<duration>2582774</duration>
					<rate>
					
					                                    <timebase>60</timebase>
					                                    <ntsc>TRUE</ntsc>
					                                
					</rate>
					<start>6358</start>
					<end>6418</end>
					<in>6358</in>
					<out>6418</out>
					<pproTicksIn>914456774963789</pproTicksIn>
					<pproTicksOut>914677708529577</pproTicksOut>
					<alphatype>straight</alphatype>
					<pixelaspectratio>square</pixelaspectratio>
					<anamorphic>FALSE</anamorphic>
					<file id="file-650">
					<name></name>
					<mediaSource>GraphicAndType</mediaSource>
					<rate>
					<timebase>60</timebase>
					<ntsc>TRUE</ntsc>
					</rate>
					<timecode>
					<rate>
					<timebase>60</timebase>
					<ntsc>TRUE</ntsc>
					</rate>
					<string>00:00:00:00</string>
					<frame>0</frame>
					<displayformat>NDF</displayformat>
					</timecode>
					<media>
					<video>
					<samplecharacteristics>
					<rate>
					<timebase>60</timebase>
					<ntsc>TRUE</ntsc>
					</rate>
					<width>1080</width>
					<height>1920</height>
					<anamorphic>FALSE</anamorphic>
					<pixelaspectratio>square</pixelaspectratio>
					<fielddominance>none</fielddominance>
					</samplecharacteristics>
					</video>
					</media>
					</file>
					<filter>
					<effect>
					<name></name>
					<effectid>GraphicAndType</effectid>
					<effectcategory>graphic</effectcategory>
					<effecttype>filter</effecttype>
					<mediatype>video</mediatype>
					<pproBypass>false</pproBypass>
					<parameter authoringApp="PremierePro">
					<parameterid>1</parameterid>
					<name></name>
					<hash>025b1101-ead6-0ca2-1feb-caf3000001fc</hash>
					<value>5AEAAAAAAABEMyIRDAAAAAAABgAKAAQABgAAAGQAAAAAAF4ASAAQAAwARABAADwAOAAAAAAAAAAAADQAMwAsAAAAKAAkACAAAAAAAAAAAAAAAAAAHAAAAAAAGgAAAAAAAAAUAAAAAAAAAAAAAAAAAAAAAAAAAAgAAAAAABsABwBeAAAAAAAAAUAAAABQAAAAbAAAAAIAAAAAAAEAAQAAAAAAQEEAAMBAAABAQAAAyEIAAAABIAAAAAIAAAACAAAAAAA2QwCASkTw/v//9P7///j+//8S////AAAAAAEAAAAEAAAAEQAAAEhHUFNvZWlLYWt1cG9wdGFpAAAAAQAAAAwAAAAIAAwABAAIAAgAAAAIAAAAUAAAAA8AAADvvIEAAAAAAAAAAAAAAAAAAAA2ACQAAAAgABwAAAAAABsAFAAAAAAAAAAAAAAAAAAAAAAAAAAAABAAAAAAAAAADAAAAAgABAA2AAAAAgAAABwAAAAcAAAAHAAAAAAAIEEAAAABaAAAAE3PAEOw////tP///wEAAAAUAAAAEAAaAAgABwAMAAAAEAAUABAAAAAAAAABHAAAAAAAoEEcAAAAAgAAAAAACgAIAAUABgAHAAoAAAAADAD//P///wQABAAEAAAACAAIAAYABwAIAAAAAAAMAA==</value>
					</parameter>
					<parameter authoringApp="PremierePro">
					<parameterid>2</parameterid>
					<name></name>
					<IsTimeVarying>false</IsTimeVarying>
					<ParameterControlType>11</ParameterControlType>
					<LowerBound>false</LowerBound>
					<UpperBound>false</UpperBound>
					<value>-91445760000000000,false,0,0,0,0,0,0</value>
					</parameter>
					<parameter authoringApp="PremierePro">
					<parameterid>3</parameterid>
					<name></name>
					<IsTimeVarying>false</IsTimeVarying>
					<value>-91445760000000000,0.5:0.5,0,0,0,0,0,0,5,4,0,0,0,0</value>
					</parameter>
					<parameter authoringApp="PremierePro">
					<parameterid>4</parameterid>
					<name></name>
					<IsTimeVarying>false</IsTimeVarying>
					<ParameterControlType>2</ParameterControlType>
					<LowerBound>0</LowerBound>
					<UpperBound>4000</UpperBound>
					<value>-91445760000000000,100.,0,0,0,0,0,0</value>
					</parameter>
					<parameter authoringApp="PremierePro">
					<parameterid>8</parameterid>
					<name></name>
					<IsTimeVarying>false</IsTimeVarying>
					<ParameterControlType>2</ParameterControlType>
					<LowerBound>0</LowerBound>
					<UpperBound>100</UpperBound>
					<value>-91445760000000000,100.,0,0,0,0,0,0</value>
					</parameter>
					</effect>
					</filter>
					<logginginfo>
					<description></description>
					<scene></scene>
					<shottake></shottake>
					<lognote></lognote>
					<good></good>
					<originalvideofilename></originalvideofilename>
					<originalaudiofilename></originalaudiofilename>
					</logginginfo>
					<colorinfo>
					<lut></lut>
					<lut1></lut1>
					<asc_sop></asc_sop>
					<asc_sat></asc_sat>
					<lut2></lut2>
					</colorinfo>
					<labels>
					</labels>
					</clipitem>
					<clipitem frameBlend="FALSE" id="clipitem-738">
					<masterclipid>masterclip-658</masterclipid>
					<name></name>
					<enabled>TRUE</enabled>
					<duration>2582774</duration>
					<rate>
					
					                                    <timebase>60</timebase>
					                                    <ntsc>TRUE</ntsc>
					                                
					</rate>
					<start>6442</start>
					<end>6508</end>
					<in>6442</in>
					<out>6508</out>
					<pproTicksIn>914456774963789</pproTicksIn>
					<pproTicksOut>914677708529577</pproTicksOut>
					<alphatype>straight</alphatype>
					<pixelaspectratio>square</pixelaspectratio>
					<anamorphic>FALSE</anamorphic>
					<file id="file-657">
					<name></name>
					<mediaSource>GraphicAndType</mediaSource>
					<rate>
					<timebase>60</timebase>
					<ntsc>TRUE</ntsc>
					</rate>
					<timecode>
					<rate>
					<timebase>60</timebase>
					<ntsc>TRUE</ntsc>
					</rate>
					<string>00:00:00:00</string>
					<frame>0</frame>
					<displayformat>NDF</displayformat>
					</timecode>
					<media>
					<video>
					<samplecharacteristics>
					<rate>
					<timebase>60</timebase>
					<ntsc>TRUE</ntsc>
					</rate>
					<width>1080</width>
					<height>1920</height>
					<anamorphic>FALSE</anamorphic>
					<pixelaspectratio>square</pixelaspectratio>
					<fielddominance>none</fielddominance>
					</samplecharacteristics>
					</video>
					</media>
					</file>
					<filter>
					<effect>
					<name></name>
					<effectid>GraphicAndType</effectid>
					<effectcategory>graphic</effectcategory>
					<effecttype>filter</effecttype>
					<mediatype>video</mediatype>
					<pproBypass>false</pproBypass>
					<parameter authoringApp="PremierePro">
					<parameterid>1</parameterid>
					<name></name>
					<hash>025b1101-ead6-0ca2-1feb-caf3000001fc</hash>
					<value>5AEAAAAAAABEMyIRDAAAAAAABgAKAAQABgAAAGQAAAAAAF4ASAAQAAwARABAADwAOAAAAAAAAAAAADQAMwAsAAAAKAAkACAAAAAAAAAAAAAAAAAAHAAAAAAAGgAAAAAAAAAUAAAAAAAAAAAAAAAAAAAAAAAAAAgAAAAAABsABwBeAAAAAAAAAUAAAABQAAAAbAAAAAIAAAAAAAEAAQAAAAAAQEEAAMBAAABAQAAAyEIAAAABIAAAAAIAAAACAAAAAAA2QwCASkTw/v//9P7///j+//8S////AAAAAAEAAAAEAAAAEQAAAEhHUFNvZWlLYWt1cG9wdGFpAAAAAQAAAAwAAAAIAAwABAAIAAgAAAAIAAAAUAAAAA8AAADvvIEAAAAAAAAAAAAAAAAAAAA2ACQAAAAgABwAAAAAABsAFAAAAAAAAAAAAAAAAAAAAAAAAAAAABAAAAAAAAAADAAAAAgABAA2AAAAAgAAABwAAAAcAAAAHAAAAAAAIEEAAAABaAAAAE3PAEOw////tP///wEAAAAUAAAAEAAaAAgABwAMAAAAEAAUABAAAAAAAAABHAAAAAAAoEEcAAAAAgAAAAAACgAIAAUABgAHAAoAAAAADAD//P///wQABAAEAAAACAAIAAYABwAIAAAAAAAMAA==</value>
					</parameter>
					<parameter authoringApp="PremierePro">
					<parameterid>2</parameterid>
					<name></name>
					<IsTimeVarying>false</IsTimeVarying>
					<ParameterControlType>11</ParameterControlType>
					<LowerBound>false</LowerBound>
					<UpperBound>false</UpperBound>
					<value>-91445760000000000,false,0,0,0,0,0,0</value>
					</parameter>
					<parameter authoringApp="PremierePro">
					<parameterid>3</parameterid>
					<name></name>
					<IsTimeVarying>false</IsTimeVarying>
					<value>-91445760000000000,0.5:0.5,0,0,0,0,0,0,5,4,0,0,0,0</value>
					</parameter>
					<parameter authoringApp="PremierePro">
					<parameterid>4</parameterid>
					<name></name>
					<IsTimeVarying>false</IsTimeVarying>
					<ParameterControlType>2</ParameterControlType>
					<LowerBound>0</LowerBound>
					<UpperBound>4000</UpperBound>
					<value>-91445760000000000,100.,0,0,0,0,0,0</value>
					</parameter>
					<parameter authoringApp="PremierePro">
					<parameterid>8</parameterid>
					<name></name>
					<IsTimeVarying>false</IsTimeVarying>
					<ParameterControlType>2</ParameterControlType>
					<LowerBound>0</LowerBound>
					<UpperBound>100</UpperBound>
					<value>-91445760000000000,100.,0,0,0,0,0,0</value>
					</parameter>
					</effect>
					</filter>
					<logginginfo>
					<description></description>
					<scene></scene>
					<shottake></shottake>
					<lognote></lognote>
					<good></good>
					<originalvideofilename></originalvideofilename>
					<originalaudiofilename></originalaudiofilename>
					</logginginfo>
					<colorinfo>
					<lut></lut>
					<lut1></lut1>
					<asc_sop></asc_sop>
					<asc_sat></asc_sat>
					<lut2></lut2>
					</colorinfo>
					<labels>
					</labels>
					</clipitem>
					<clipitem frameBlend="FALSE" id="clipitem-745">
					<masterclipid>masterclip-665</masterclipid>
					<name></name>
					<enabled>TRUE</enabled>
					<duration>2582774</duration>
					<rate>
					
					                                    <timebase>60</timebase>
					                                    <ntsc>TRUE</ntsc>
					                                
					</rate>
					<start>6532</start>
					<end>6592</end>
					<in>6532</in>
					<out>6592</out>
					<pproTicksIn>914456774963789</pproTicksIn>
					<pproTicksOut>914677708529577</pproTicksOut>
					<alphatype>straight</alphatype>
					<pixelaspectratio>square</pixelaspectratio>
					<anamorphic>FALSE</anamorphic>
					<file id="file-664">
					<name></name>
					<mediaSource>GraphicAndType</mediaSource>
					<rate>
					<timebase>60</timebase>
					<ntsc>TRUE</ntsc>
					</rate>
					<timecode>
					<rate>
					<timebase>60</timebase>
					<ntsc>TRUE</ntsc>
					</rate>
					<string>00:00:00:00</string>
					<frame>0</frame>
					<displayformat>NDF</displayformat>
					</timecode>
					<media>
					<video>
					<samplecharacteristics>
					<rate>
					<timebase>60</timebase>
					<ntsc>TRUE</ntsc>
					</rate>
					<width>1080</width>
					<height>1920</height>
					<anamorphic>FALSE</anamorphic>
					<pixelaspectratio>square</pixelaspectratio>
					<fielddominance>none</fielddominance>
					</samplecharacteristics>
					</video>
					</media>
					</file>
					<filter>
					<effect>
					<name></name>
					<effectid>GraphicAndType</effectid>
					<effectcategory>graphic</effectcategory>
					<effecttype>filter</effecttype>
					<mediatype>video</mediatype>
					<pproBypass>false</pproBypass>
					<parameter authoringApp="PremierePro">
					<parameterid>1</parameterid>
					<name></name>
					<hash>025b1101-ead6-0ca2-1feb-caf3000001fc</hash>
					<value>5AEAAAAAAABEMyIRDAAAAAAABgAKAAQABgAAAGQAAAAAAF4ASAAQAAwARABAADwAOAAAAAAAAAAAADQAMwAsAAAAKAAkACAAAAAAAAAAAAAAAAAAHAAAAAAAGgAAAAAAAAAUAAAAAAAAAAAAAAAAAAAAAAAAAAgAAAAAABsABwBeAAAAAAAAAUAAAABQAAAAbAAAAAIAAAAAAAEAAQAAAAAAQEEAAMBAAABAQAAAyEIAAAABIAAAAAIAAAACAAAAAAA2QwCASkTw/v//9P7///j+//8S////AAAAAAEAAAAEAAAAEQAAAEhHUFNvZWlLYWt1cG9wdGFpAAAAAQAAAAwAAAAIAAwABAAIAAgAAAAIAAAAUAAAAA8AAADvvIEAAAAAAAAAAAAAAAAAAAA2ACQAAAAgABwAAAAAABsAFAAAAAAAAAAAAAAAAAAAAAAAAAAAABAAAAAAAAAADAAAAAgABAA2AAAAAgAAABwAAAAcAAAAHAAAAAAAIEEAAAABaAAAAE3PAEOw////tP///wEAAAAUAAAAEAAaAAgABwAMAAAAEAAUABAAAAAAAAABHAAAAAAAoEEcAAAAAgAAAAAACgAIAAUABgAHAAoAAAAADAD//P///wQABAAEAAAACAAIAAYABwAIAAAAAAAMAA==</value>
					</parameter>
					<parameter authoringApp="PremierePro">
					<parameterid>2</parameterid>
					<name></name>
					<IsTimeVarying>false</IsTimeVarying>
					<ParameterControlType>11</ParameterControlType>
					<LowerBound>false</LowerBound>
					<UpperBound>false</UpperBound>
					<value>-91445760000000000,false,0,0,0,0,0,0</value>
					</parameter>
					<parameter authoringApp="PremierePro">
					<parameterid>3</parameterid>
					<name></name>
					<IsTimeVarying>false</IsTimeVarying>
					<value>-91445760000000000,0.5:0.5,0,0,0,0,0,0,5,4,0,0,0,0</value>
					</parameter>
					<parameter authoringApp="PremierePro">
					<parameterid>4</parameterid>
					<name></name>
					<IsTimeVarying>false</IsTimeVarying>
					<ParameterControlType>2</ParameterControlType>
					<LowerBound>0</LowerBound>
					<UpperBound>4000</UpperBound>
					<value>-91445760000000000,100.,0,0,0,0,0,0</value>
					</parameter>
					<parameter authoringApp="PremierePro">
					<parameterid>8</parameterid>
					<name></name>
					<IsTimeVarying>false</IsTimeVarying>
					<ParameterControlType>2</ParameterControlType>
					<LowerBound>0</LowerBound>
					<UpperBound>100</UpperBound>
					<value>-91445760000000000,100.,0,0,0,0,0,0</value>
					</parameter>
					</effect>
					</filter>
					<logginginfo>
					<description></description>
					<scene></scene>
					<shottake></shottake>
					<lognote></lognote>
					<good></good>
					<originalvideofilename></originalvideofilename>
					<originalaudiofilename></originalaudiofilename>
					</logginginfo>
					<colorinfo>
					<lut></lut>
					<lut1></lut1>
					<asc_sop></asc_sop>
					<asc_sat></asc_sat>
					<lut2></lut2>
					</colorinfo>
					<labels>
					</labels>
					</clipitem>
					<clipitem frameBlend="FALSE" id="clipitem-754">
					<masterclipid>masterclip-674</masterclipid>
					<name></name>
					<enabled>TRUE</enabled>
					<duration>2582774</duration>
					<rate>
					
					                                    <timebase>60</timebase>
					                                    <ntsc>TRUE</ntsc>
					                                
					</rate>
					<start>6616</start>
					<end>6682</end>
					<in>6616</in>
					<out>6682</out>
					<pproTicksIn>914456774963789</pproTicksIn>
					<pproTicksOut>914677708529577</pproTicksOut>
					<alphatype>straight</alphatype>
					<pixelaspectratio>square</pixelaspectratio>
					<anamorphic>FALSE</anamorphic>
					<file id="file-673">
					<name></name>
					<mediaSource>GraphicAndType</mediaSource>
					<rate>
					<timebase>60</timebase>
					<ntsc>TRUE</ntsc>
					</rate>
					<timecode>
					<rate>
					<timebase>60</timebase>
					<ntsc>TRUE</ntsc>
					</rate>
					<string>00:00:00:00</string>
					<frame>0</frame>
					<displayformat>NDF</displayformat>
					</timecode>
					<media>
					<video>
					<samplecharacteristics>
					<rate>
					<timebase>60</timebase>
					<ntsc>TRUE</ntsc>
					</rate>
					<width>1080</width>
					<height>1920</height>
					<anamorphic>FALSE</anamorphic>
					<pixelaspectratio>square</pixelaspectratio>
					<fielddominance>none</fielddominance>
					</samplecharacteristics>
					</video>
					</media>
					</file>
					<filter>
					<effect>
					<name></name>
					<effectid>GraphicAndType</effectid>
					<effectcategory>graphic</effectcategory>
					<effecttype>filter</effecttype>
					<mediatype>video</mediatype>
					<pproBypass>false</pproBypass>
					<parameter authoringApp="PremierePro">
					<parameterid>1</parameterid>
					<name></name>
					<hash>025b1101-ead6-0ca2-1feb-caf3000001fc</hash>
					<value>5AEAAAAAAABEMyIRDAAAAAAABgAKAAQABgAAAGQAAAAAAF4ASAAQAAwARABAADwAOAAAAAAAAAAAADQAMwAsAAAAKAAkACAAAAAAAAAAAAAAAAAAHAAAAAAAGgAAAAAAAAAUAAAAAAAAAAAAAAAAAAAAAAAAAAgAAAAAABsABwBeAAAAAAAAAUAAAABQAAAAbAAAAAIAAAAAAAEAAQAAAAAAQEEAAMBAAABAQAAAyEIAAAABIAAAAAIAAAACAAAAAAA2QwCASkTw/v//9P7///j+//8S////AAAAAAEAAAAEAAAAEQAAAEhHUFNvZWlLYWt1cG9wdGFpAAAAAQAAAAwAAAAIAAwABAAIAAgAAAAIAAAAUAAAAA8AAADvvIEAAAAAAAAAAAAAAAAAAAA2ACQAAAAgABwAAAAAABsAFAAAAAAAAAAAAAAAAAAAAAAAAAAAABAAAAAAAAAADAAAAAgABAA2AAAAAgAAABwAAAAcAAAAHAAAAAAAIEEAAAABaAAAAE3PAEOw////tP///wEAAAAUAAAAEAAaAAgABwAMAAAAEAAUABAAAAAAAAABHAAAAAAAoEEcAAAAAgAAAAAACgAIAAUABgAHAAoAAAAADAD//P///wQABAAEAAAACAAIAAYABwAIAAAAAAAMAA==</value>
					</parameter>
					<parameter authoringApp="PremierePro">
					<parameterid>2</parameterid>
					<name></name>
					<IsTimeVarying>false</IsTimeVarying>
					<ParameterControlType>11</ParameterControlType>
					<LowerBound>false</LowerBound>
					<UpperBound>false</UpperBound>
					<value>-91445760000000000,false,0,0,0,0,0,0</value>
					</parameter>
					<parameter authoringApp="PremierePro">
					<parameterid>3</parameterid>
					<name></name>
					<IsTimeVarying>false</IsTimeVarying>
					<value>-91445760000000000,0.5:0.5,0,0,0,0,0,0,5,4,0,0,0,0</value>
					</parameter>
					<parameter authoringApp="PremierePro">
					<parameterid>4</parameterid>
					<name></name>
					<IsTimeVarying>false</IsTimeVarying>
					<ParameterControlType>2</ParameterControlType>
					<LowerBound>0</LowerBound>
					<UpperBound>4000</UpperBound>
					<value>-91445760000000000,100.,0,0,0,0,0,0</value>
					</parameter>
					<parameter authoringApp="PremierePro">
					<parameterid>8</parameterid>
					<name></name>
					<IsTimeVarying>false</IsTimeVarying>
					<ParameterControlType>2</ParameterControlType>
					<LowerBound>0</LowerBound>
					<UpperBound>100</UpperBound>
					<value>-91445760000000000,100.,0,0,0,0,0,0</value>
					</parameter>
					</effect>
					</filter>
					<logginginfo>
					<description></description>
					<scene></scene>
					<shottake></shottake>
					<lognote></lognote>
					<good></good>
					<originalvideofilename></originalvideofilename>
					<originalaudiofilename></originalaudiofilename>
					</logginginfo>
					<colorinfo>
					<lut></lut>
					<lut1></lut1>
					<asc_sop></asc_sop>
					<asc_sat></asc_sat>
					<lut2></lut2>
					</colorinfo>
					<labels>
					</labels>
					</clipitem>
					<clipitem frameBlend="FALSE" id="clipitem-759">
					<masterclipid>masterclip-679</masterclipid>
					<name></name>
					<enabled>TRUE</enabled>
					<duration>2582774</duration>
					<rate>
					
					                                    <timebase>60</timebase>
					                                    <ntsc>TRUE</ntsc>
					                                
					</rate>
					<start>6724</start>
					<end>6784</end>
					<in>6724</in>
					<out>6784</out>
					<pproTicksIn>914456774963789</pproTicksIn>
					<pproTicksOut>914677708529577</pproTicksOut>
					<alphatype>straight</alphatype>
					<pixelaspectratio>square</pixelaspectratio>
					<anamorphic>FALSE</anamorphic>
					<file id="file-678">
					<name></name>
					<mediaSource>GraphicAndType</mediaSource>
					<rate>
					<timebase>60</timebase>
					<ntsc>TRUE</ntsc>
					</rate>
					<timecode>
					<rate>
					<timebase>60</timebase>
					<ntsc>TRUE</ntsc>
					</rate>
					<string>00:00:00:00</string>
					<frame>0</frame>
					<displayformat>NDF</displayformat>
					</timecode>
					<media>
					<video>
					<samplecharacteristics>
					<rate>
					<timebase>60</timebase>
					<ntsc>TRUE</ntsc>
					</rate>
					<width>1080</width>
					<height>1920</height>
					<anamorphic>FALSE</anamorphic>
					<pixelaspectratio>square</pixelaspectratio>
					<fielddominance>none</fielddominance>
					</samplecharacteristics>
					</video>
					</media>
					</file>
					<filter>
					<effect>
					<name></name>
					<effectid>GraphicAndType</effectid>
					<effectcategory>graphic</effectcategory>
					<effecttype>filter</effecttype>
					<mediatype>video</mediatype>
					<pproBypass>false</pproBypass>
					<parameter authoringApp="PremierePro">
					<parameterid>1</parameterid>
					<name></name>
					<hash>025b1101-ead6-0ca2-1feb-caf3000001fc</hash>
					<value>5AEAAAAAAABEMyIRDAAAAAAABgAKAAQABgAAAGQAAAAAAF4ASAAQAAwARABAADwAOAAAAAAAAAAAADQAMwAsAAAAKAAkACAAAAAAAAAAAAAAAAAAHAAAAAAAGgAAAAAAAAAUAAAAAAAAAAAAAAAAAAAAAAAAAAgAAAAAABsABwBeAAAAAAAAAUAAAABQAAAAbAAAAAIAAAAAAAEAAQAAAAAAQEEAAMBAAABAQAAAyEIAAAABIAAAAAIAAAACAAAAAAA2QwCASkTw/v//9P7///j+//8S////AAAAAAEAAAAEAAAAEQAAAEhHUFNvZWlLYWt1cG9wdGFpAAAAAQAAAAwAAAAIAAwABAAIAAgAAAAIAAAAUAAAAA8AAADvvIEAAAAAAAAAAAAAAAAAAAA2ACQAAAAgABwAAAAAABsAFAAAAAAAAAAAAAAAAAAAAAAAAAAAABAAAAAAAAAADAAAAAgABAA2AAAAAgAAABwAAAAcAAAAHAAAAAAAIEEAAAABaAAAAE3PAEOw////tP///wEAAAAUAAAAEAAaAAgABwAMAAAAEAAUABAAAAAAAAABHAAAAAAAoEEcAAAAAgAAAAAACgAIAAUABgAHAAoAAAAADAD//P///wQABAAEAAAACAAIAAYABwAIAAAAAAAMAA==</value>
					</parameter>
					<parameter authoringApp="PremierePro">
					<parameterid>2</parameterid>
					<name></name>
					<IsTimeVarying>false</IsTimeVarying>
					<ParameterControlType>11</ParameterControlType>
					<LowerBound>false</LowerBound>
					<UpperBound>false</UpperBound>
					<value>-91445760000000000,false,0,0,0,0,0,0</value>
					</parameter>
					<parameter authoringApp="PremierePro">
					<parameterid>3</parameterid>
					<name></name>
					<IsTimeVarying>false</IsTimeVarying>
					<value>-91445760000000000,0.5:0.5,0,0,0,0,0,0,5,4,0,0,0,0</value>
					</parameter>
					<parameter authoringApp="PremierePro">
					<parameterid>4</parameterid>
					<name></name>
					<IsTimeVarying>false</IsTimeVarying>
					<ParameterControlType>2</ParameterControlType>
					<LowerBound>0</LowerBound>
					<UpperBound>4000</UpperBound>
					<value>-91445760000000000,100.,0,0,0,0,0,0</value>
					</parameter>
					<parameter authoringApp="PremierePro">
					<parameterid>8</parameterid>
					<name></name>
					<IsTimeVarying>false</IsTimeVarying>
					<ParameterControlType>2</ParameterControlType>
					<LowerBound>0</LowerBound>
					<UpperBound>100</UpperBound>
					<value>-91445760000000000,100.,0,0,0,0,0,0</value>
					</parameter>
					</effect>
					</filter>
					<logginginfo>
					<description></description>
					<scene></scene>
					<shottake></shottake>
					<lognote></lognote>
					<good></good>
					<originalvideofilename></originalvideofilename>
					<originalaudiofilename></originalaudiofilename>
					</logginginfo>
					<colorinfo>
					<lut></lut>
					<lut1></lut1>
					<asc_sop></asc_sop>
					<asc_sat></asc_sat>
					<lut2></lut2>
					</colorinfo>
					<labels>
					</labels>
					</clipitem>
					<clipitem frameBlend="FALSE" id="clipitem-764">
					<masterclipid>masterclip-684</masterclipid>
					<name></name>
					<enabled>TRUE</enabled>
					<duration>2582774</duration>
					<rate>
					
					                                    <timebase>60</timebase>
					                                    <ntsc>TRUE</ntsc>
					                                
					</rate>
					<start>6784</start>
					<end>6844</end>
					<in>6784</in>
					<out>6844</out>
					<pproTicksIn>914456774963789</pproTicksIn>
					<pproTicksOut>914677708529577</pproTicksOut>
					<alphatype>straight</alphatype>
					<pixelaspectratio>square</pixelaspectratio>
					<anamorphic>FALSE</anamorphic>
					<file id="file-683">
					<name></name>
					<mediaSource>GraphicAndType</mediaSource>
					<rate>
					<timebase>60</timebase>
					<ntsc>TRUE</ntsc>
					</rate>
					<timecode>
					<rate>
					<timebase>60</timebase>
					<ntsc>TRUE</ntsc>
					</rate>
					<string>00:00:00:00</string>
					<frame>0</frame>
					<displayformat>NDF</displayformat>
					</timecode>
					<media>
					<video>
					<samplecharacteristics>
					<rate>
					<timebase>60</timebase>
					<ntsc>TRUE</ntsc>
					</rate>
					<width>1080</width>
					<height>1920</height>
					<anamorphic>FALSE</anamorphic>
					<pixelaspectratio>square</pixelaspectratio>
					<fielddominance>none</fielddominance>
					</samplecharacteristics>
					</video>
					</media>
					</file>
					<filter>
					<effect>
					<name></name>
					<effectid>GraphicAndType</effectid>
					<effectcategory>graphic</effectcategory>
					<effecttype>filter</effecttype>
					<mediatype>video</mediatype>
					<pproBypass>false</pproBypass>
					<parameter authoringApp="PremierePro">
					<parameterid>1</parameterid>
					<name></name>
					<hash>025b1101-ead6-0ca2-1feb-caf3000001fc</hash>
					<value>5AEAAAAAAABEMyIRDAAAAAAABgAKAAQABgAAAGQAAAAAAF4ASAAQAAwARABAADwAOAAAAAAAAAAAADQAMwAsAAAAKAAkACAAAAAAAAAAAAAAAAAAHAAAAAAAGgAAAAAAAAAUAAAAAAAAAAAAAAAAAAAAAAAAAAgAAAAAABsABwBeAAAAAAAAAUAAAABQAAAAbAAAAAIAAAAAAAEAAQAAAAAAQEEAAMBAAABAQAAAyEIAAAABIAAAAAIAAAACAAAAAAA2QwCASkTw/v//9P7///j+//8S////AAAAAAEAAAAEAAAAEQAAAEhHUFNvZWlLYWt1cG9wdGFpAAAAAQAAAAwAAAAIAAwABAAIAAgAAAAIAAAAUAAAAA8AAADvvIEAAAAAAAAAAAAAAAAAAAA2ACQAAAAgABwAAAAAABsAFAAAAAAAAAAAAAAAAAAAAAAAAAAAABAAAAAAAAAADAAAAAgABAA2AAAAAgAAABwAAAAcAAAAHAAAAAAAIEEAAAABaAAAAE3PAEOw////tP///wEAAAAUAAAAEAAaAAgABwAMAAAAEAAUABAAAAAAAAABHAAAAAAAoEEcAAAAAgAAAAAACgAIAAUABgAHAAoAAAAADAD//P///wQABAAEAAAACAAIAAYABwAIAAAAAAAMAA==</value>
					</parameter>
					<parameter authoringApp="PremierePro">
					<parameterid>2</parameterid>
					<name></name>
					<IsTimeVarying>false</IsTimeVarying>
					<ParameterControlType>11</ParameterControlType>
					<LowerBound>false</LowerBound>
					<UpperBound>false</UpperBound>
					<value>-91445760000000000,false,0,0,0,0,0,0</value>
					</parameter>
					<parameter authoringApp="PremierePro">
					<parameterid>3</parameterid>
					<name></name>
					<IsTimeVarying>false</IsTimeVarying>
					<value>-91445760000000000,0.5:0.5,0,0,0,0,0,0,5,4,0,0,0,0</value>
					</parameter>
					<parameter authoringApp="PremierePro">
					<parameterid>4</parameterid>
					<name></name>
					<IsTimeVarying>false</IsTimeVarying>
					<ParameterControlType>2</ParameterControlType>
					<LowerBound>0</LowerBound>
					<UpperBound>4000</UpperBound>
					<value>-91445760000000000,100.,0,0,0,0,0,0</value>
					</parameter>
					<parameter authoringApp="PremierePro">
					<parameterid>8</parameterid>
					<name></name>
					<IsTimeVarying>false</IsTimeVarying>
					<ParameterControlType>2</ParameterControlType>
					<LowerBound>0</LowerBound>
					<UpperBound>100</UpperBound>
					<value>-91445760000000000,100.,0,0,0,0,0,0</value>
					</parameter>
					</effect>
					</filter>
					<logginginfo>
					<description></description>
					<scene></scene>
					<shottake></shottake>
					<lognote></lognote>
					<good></good>
					<originalvideofilename></originalvideofilename>
					<originalaudiofilename></originalaudiofilename>
					</logginginfo>
					<colorinfo>
					<lut></lut>
					<lut1></lut1>
					<asc_sop></asc_sop>
					<asc_sat></asc_sat>
					<lut2></lut2>
					</colorinfo>
					<labels>
					</labels>
					</clipitem>
					<clipitem frameBlend="FALSE" id="clipitem-768">
					<masterclipid>masterclip-688</masterclipid>
					<name></name>
					<enabled>TRUE</enabled>
					<duration>2582774</duration>
					<rate>
					
					                                    <timebase>60</timebase>
					                                    <ntsc>TRUE</ntsc>
					                                
					</rate>
					<start>6844</start>
					<end>6904</end>
					<in>6844</in>
					<out>6904</out>
					<pproTicksIn>914456774963789</pproTicksIn>
					<pproTicksOut>914677708529577</pproTicksOut>
					<alphatype>straight</alphatype>
					<pixelaspectratio>square</pixelaspectratio>
					<anamorphic>FALSE</anamorphic>
					<file id="file-687">
					<name></name>
					<mediaSource>GraphicAndType</mediaSource>
					<rate>
					<timebase>60</timebase>
					<ntsc>TRUE</ntsc>
					</rate>
					<timecode>
					<rate>
					<timebase>60</timebase>
					<ntsc>TRUE</ntsc>
					</rate>
					<string>00:00:00:00</string>
					<frame>0</frame>
					<displayformat>NDF</displayformat>
					</timecode>
					<media>
					<video>
					<samplecharacteristics>
					<rate>
					<timebase>60</timebase>
					<ntsc>TRUE</ntsc>
					</rate>
					<width>1080</width>
					<height>1920</height>
					<anamorphic>FALSE</anamorphic>
					<pixelaspectratio>square</pixelaspectratio>
					<fielddominance>none</fielddominance>
					</samplecharacteristics>
					</video>
					</media>
					</file>
					<filter>
					<effect>
					<name></name>
					<effectid>GraphicAndType</effectid>
					<effectcategory>graphic</effectcategory>
					<effecttype>filter</effecttype>
					<mediatype>video</mediatype>
					<pproBypass>false</pproBypass>
					<parameter authoringApp="PremierePro">
					<parameterid>1</parameterid>
					<name></name>
					<hash>025b1101-ead6-0ca2-1feb-caf3000001fc</hash>
					<value>5AEAAAAAAABEMyIRDAAAAAAABgAKAAQABgAAAGQAAAAAAF4ASAAQAAwARABAADwAOAAAAAAAAAAAADQAMwAsAAAAKAAkACAAAAAAAAAAAAAAAAAAHAAAAAAAGgAAAAAAAAAUAAAAAAAAAAAAAAAAAAAAAAAAAAgAAAAAABsABwBeAAAAAAAAAUAAAABQAAAAbAAAAAIAAAAAAAEAAQAAAAAAQEEAAMBAAABAQAAAyEIAAAABIAAAAAIAAAACAAAAAAA2QwCASkTw/v//9P7///j+//8S////AAAAAAEAAAAEAAAAEQAAAEhHUFNvZWlLYWt1cG9wdGFpAAAAAQAAAAwAAAAIAAwABAAIAAgAAAAIAAAAUAAAAA8AAADvvIEAAAAAAAAAAAAAAAAAAAA2ACQAAAAgABwAAAAAABsAFAAAAAAAAAAAAAAAAAAAAAAAAAAAABAAAAAAAAAADAAAAAgABAA2AAAAAgAAABwAAAAcAAAAHAAAAAAAIEEAAAABaAAAAE3PAEOw////tP///wEAAAAUAAAAEAAaAAgABwAMAAAAEAAUABAAAAAAAAABHAAAAAAAoEEcAAAAAgAAAAAACgAIAAUABgAHAAoAAAAADAD//P///wQABAAEAAAACAAIAAYABwAIAAAAAAAMAA==</value>
					</parameter>
					<parameter authoringApp="PremierePro">
					<parameterid>2</parameterid>
					<name></name>
					<IsTimeVarying>false</IsTimeVarying>
					<ParameterControlType>11</ParameterControlType>
					<LowerBound>false</LowerBound>
					<UpperBound>false</UpperBound>
					<value>-91445760000000000,false,0,0,0,0,0,0</value>
					</parameter>
					<parameter authoringApp="PremierePro">
					<parameterid>3</parameterid>
					<name></name>
					<IsTimeVarying>false</IsTimeVarying>
					<value>-91445760000000000,0.5:0.5,0,0,0,0,0,0,5,4,0,0,0,0</value>
					</parameter>
					<parameter authoringApp="PremierePro">
					<parameterid>4</parameterid>
					<name></name>
					<IsTimeVarying>false</IsTimeVarying>
					<ParameterControlType>2</ParameterControlType>
					<LowerBound>0</LowerBound>
					<UpperBound>4000</UpperBound>
					<value>-91445760000000000,100.,0,0,0,0,0,0</value>
					</parameter>
					<parameter authoringApp="PremierePro">
					<parameterid>8</parameterid>
					<name></name>
					<IsTimeVarying>false</IsTimeVarying>
					<ParameterControlType>2</ParameterControlType>
					<LowerBound>0</LowerBound>
					<UpperBound>100</UpperBound>
					<value>-91445760000000000,100.,0,0,0,0,0,0</value>
					</parameter>
					</effect>
					</filter>
					<logginginfo>
					<description></description>
					<scene></scene>
					<shottake></shottake>
					<lognote></lognote>
					<good></good>
					<originalvideofilename></originalvideofilename>
					<originalaudiofilename></originalaudiofilename>
					</logginginfo>
					<colorinfo>
					<lut></lut>
					<lut1></lut1>
					<asc_sop></asc_sop>
					<asc_sat></asc_sat>
					<lut2></lut2>
					</colorinfo>
					<labels>
					</labels>
					</clipitem>
					<clipitem frameBlend="FALSE" id="clipitem-773">
					<masterclipid>masterclip-693</masterclipid>
					<name></name>
					<enabled>TRUE</enabled>
					<duration>2582774</duration>
					<rate>
					
					                                    <timebase>60</timebase>
					                                    <ntsc>TRUE</ntsc>
					                                
					</rate>
					<start>6910</start>
					<end>6970</end>
					<in>6910</in>
					<out>6970</out>
					<pproTicksIn>914456774963789</pproTicksIn>
					<pproTicksOut>914677708529577</pproTicksOut>
					<alphatype>straight</alphatype>
					<pixelaspectratio>square</pixelaspectratio>
					<anamorphic>FALSE</anamorphic>
					<file id="file-692">
					<name></name>
					<mediaSource>GraphicAndType</mediaSource>
					<rate>
					<timebase>60</timebase>
					<ntsc>TRUE</ntsc>
					</rate>
					<timecode>
					<rate>
					<timebase>60</timebase>
					<ntsc>TRUE</ntsc>
					</rate>
					<string>00:00:00:00</string>
					<frame>0</frame>
					<displayformat>NDF</displayformat>
					</timecode>
					<media>
					<video>
					<samplecharacteristics>
					<rate>
					<timebase>60</timebase>
					<ntsc>TRUE</ntsc>
					</rate>
					<width>1080</width>
					<height>1920</height>
					<anamorphic>FALSE</anamorphic>
					<pixelaspectratio>square</pixelaspectratio>
					<fielddominance>none</fielddominance>
					</samplecharacteristics>
					</video>
					</media>
					</file>
					<filter>
					<effect>
					<name></name>
					<effectid>GraphicAndType</effectid>
					<effectcategory>graphic</effectcategory>
					<effecttype>filter</effecttype>
					<mediatype>video</mediatype>
					<pproBypass>false</pproBypass>
					<parameter authoringApp="PremierePro">
					<parameterid>1</parameterid>
					<name></name>
					<hash>025b1101-ead6-0ca2-1feb-caf3000001fc</hash>
					<value>5AEAAAAAAABEMyIRDAAAAAAABgAKAAQABgAAAGQAAAAAAF4ASAAQAAwARABAADwAOAAAAAAAAAAAADQAMwAsAAAAKAAkACAAAAAAAAAAAAAAAAAAHAAAAAAAGgAAAAAAAAAUAAAAAAAAAAAAAAAAAAAAAAAAAAgAAAAAABsABwBeAAAAAAAAAUAAAABQAAAAbAAAAAIAAAAAAAEAAQAAAAAAQEEAAMBAAABAQAAAyEIAAAABIAAAAAIAAAACAAAAAAA2QwCASkTw/v//9P7///j+//8S////AAAAAAEAAAAEAAAAEQAAAEhHUFNvZWlLYWt1cG9wdGFpAAAAAQAAAAwAAAAIAAwABAAIAAgAAAAIAAAAUAAAAA8AAADvvIEAAAAAAAAAAAAAAAAAAAA2ACQAAAAgABwAAAAAABsAFAAAAAAAAAAAAAAAAAAAAAAAAAAAABAAAAAAAAAADAAAAAgABAA2AAAAAgAAABwAAAAcAAAAHAAAAAAAIEEAAAABaAAAAE3PAEOw////tP///wEAAAAUAAAAEAAaAAgABwAMAAAAEAAUABAAAAAAAAABHAAAAAAAoEEcAAAAAgAAAAAACgAIAAUABgAHAAoAAAAADAD//P///wQABAAEAAAACAAIAAYABwAIAAAAAAAMAA==</value>
					</parameter>
					<parameter authoringApp="PremierePro">
					<parameterid>2</parameterid>
					<name></name>
					<IsTimeVarying>false</IsTimeVarying>
					<ParameterControlType>11</ParameterControlType>
					<LowerBound>false</LowerBound>
					<UpperBound>false</UpperBound>
					<value>-91445760000000000,false,0,0,0,0,0,0</value>
					</parameter>
					<parameter authoringApp="PremierePro">
					<parameterid>3</parameterid>
					<name></name>
					<IsTimeVarying>false</IsTimeVarying>
					<value>-91445760000000000,0.5:0.5,0,0,0,0,0,0,5,4,0,0,0,0</value>
					</parameter>
					<parameter authoringApp="PremierePro">
					<parameterid>4</parameterid>
					<name></name>
					<IsTimeVarying>false</IsTimeVarying>
					<ParameterControlType>2</ParameterControlType>
					<LowerBound>0</LowerBound>
					<UpperBound>4000</UpperBound>
					<value>-91445760000000000,100.,0,0,0,0,0,0</value>
					</parameter>
					<parameter authoringApp="PremierePro">
					<parameterid>8</parameterid>
					<name></name>
					<IsTimeVarying>false</IsTimeVarying>
					<ParameterControlType>2</ParameterControlType>
					<LowerBound>0</LowerBound>
					<UpperBound>100</UpperBound>
					<value>-91445760000000000,100.,0,0,0,0,0,0</value>
					</parameter>
					</effect>
					</filter>
					<logginginfo>
					<description></description>
					<scene></scene>
					<shottake></shottake>
					<lognote></lognote>
					<good></good>
					<originalvideofilename></originalvideofilename>
					<originalaudiofilename></originalaudiofilename>
					</logginginfo>
					<colorinfo>
					<lut></lut>
					<lut1></lut1>
					<asc_sop></asc_sop>
					<asc_sat></asc_sat>
					<lut2></lut2>
					</colorinfo>
					<labels>
					</labels>
					</clipitem>
					<clipitem frameBlend="FALSE" id="clipitem-781">
					<masterclipid>masterclip-701</masterclipid>
					<name></name>
					<enabled>TRUE</enabled>
					<duration>2582774</duration>
					<rate>
					
					                                    <timebase>60</timebase>
					                                    <ntsc>TRUE</ntsc>
					                                
					</rate>
					<start>6970</start>
					<end>7030</end>
					<in>6970</in>
					<out>7030</out>
					<pproTicksIn>914456774963789</pproTicksIn>
					<pproTicksOut>914677708529577</pproTicksOut>
					<alphatype>straight</alphatype>
					<pixelaspectratio>square</pixelaspectratio>
					<anamorphic>FALSE</anamorphic>
					<file id="file-700">
					<name></name>
					<mediaSource>GraphicAndType</mediaSource>
					<rate>
					<timebase>60</timebase>
					<ntsc>TRUE</ntsc>
					</rate>
					<timecode>
					<rate>
					<timebase>60</timebase>
					<ntsc>TRUE</ntsc>
					</rate>
					<string>00:00:00:00</string>
					<frame>0</frame>
					<displayformat>NDF</displayformat>
					</timecode>
					<media>
					<video>
					<samplecharacteristics>
					<rate>
					<timebase>60</timebase>
					<ntsc>TRUE</ntsc>
					</rate>
					<width>1080</width>
					<height>1920</height>
					<anamorphic>FALSE</anamorphic>
					<pixelaspectratio>square</pixelaspectratio>
					<fielddominance>none</fielddominance>
					</samplecharacteristics>
					</video>
					</media>
					</file>
					<filter>
					<effect>
					<name></name>
					<effectid>GraphicAndType</effectid>
					<effectcategory>graphic</effectcategory>
					<effecttype>filter</effecttype>
					<mediatype>video</mediatype>
					<pproBypass>false</pproBypass>
					<parameter authoringApp="PremierePro">
					<parameterid>1</parameterid>
					<name></name>
					<hash>025b1101-ead6-0ca2-1feb-caf3000001fc</hash>
					<value>5AEAAAAAAABEMyIRDAAAAAAABgAKAAQABgAAAGQAAAAAAF4ASAAQAAwARABAADwAOAAAAAAAAAAAADQAMwAsAAAAKAAkACAAAAAAAAAAAAAAAAAAHAAAAAAAGgAAAAAAAAAUAAAAAAAAAAAAAAAAAAAAAAAAAAgAAAAAABsABwBeAAAAAAAAAUAAAABQAAAAbAAAAAIAAAAAAAEAAQAAAAAAQEEAAMBAAABAQAAAyEIAAAABIAAAAAIAAAACAAAAAAA2QwCASkTw/v//9P7///j+//8S////AAAAAAEAAAAEAAAAEQAAAEhHUFNvZWlLYWt1cG9wdGFpAAAAAQAAAAwAAAAIAAwABAAIAAgAAAAIAAAAUAAAAA8AAADvvIEAAAAAAAAAAAAAAAAAAAA2ACQAAAAgABwAAAAAABsAFAAAAAAAAAAAAAAAAAAAAAAAAAAAABAAAAAAAAAADAAAAAgABAA2AAAAAgAAABwAAAAcAAAAHAAAAAAAIEEAAAABaAAAAE3PAEOw////tP///wEAAAAUAAAAEAAaAAgABwAMAAAAEAAUABAAAAAAAAABHAAAAAAAoEEcAAAAAgAAAAAACgAIAAUABgAHAAoAAAAADAD//P///wQABAAEAAAACAAIAAYABwAIAAAAAAAMAA==</value>
					</parameter>
					<parameter authoringApp="PremierePro">
					<parameterid>2</parameterid>
					<name></name>
					<IsTimeVarying>false</IsTimeVarying>
					<ParameterControlType>11</ParameterControlType>
					<LowerBound>false</LowerBound>
					<UpperBound>false</UpperBound>
					<value>-91445760000000000,false,0,0,0,0,0,0</value>
					</parameter>
					<parameter authoringApp="PremierePro">
					<parameterid>3</parameterid>
					<name></name>
					<IsTimeVarying>false</IsTimeVarying>
					<value>-91445760000000000,0.5:0.5,0,0,0,0,0,0,5,4,0,0,0,0</value>
					</parameter>
					<parameter authoringApp="PremierePro">
					<parameterid>4</parameterid>
					<name></name>
					<IsTimeVarying>false</IsTimeVarying>
					<ParameterControlType>2</ParameterControlType>
					<LowerBound>0</LowerBound>
					<UpperBound>4000</UpperBound>
					<value>-91445760000000000,100.,0,0,0,0,0,0</value>
					</parameter>
					<parameter authoringApp="PremierePro">
					<parameterid>8</parameterid>
					<name></name>
					<IsTimeVarying>false</IsTimeVarying>
					<ParameterControlType>2</ParameterControlType>
					<LowerBound>0</LowerBound>
					<UpperBound>100</UpperBound>
					<value>-91445760000000000,100.,0,0,0,0,0,0</value>
					</parameter>
					</effect>
					</filter>
					<logginginfo>
					<description></description>
					<scene></scene>
					<shottake></shottake>
					<lognote></lognote>
					<good></good>
					<originalvideofilename></originalvideofilename>
					<originalaudiofilename></originalaudiofilename>
					</logginginfo>
					<colorinfo>
					<lut></lut>
					<lut1></lut1>
					<asc_sop></asc_sop>
					<asc_sat></asc_sat>
					<lut2></lut2>
					</colorinfo>
					<labels>
					</labels>
					</clipitem>
					<clipitem id="clipitem-785"/>
					                        </track>
					                        <track TL.SQTrackShy="0" TL.SQTrackExpandedHeight="25" TL.SQTrackExpanded="0" MZ.TrackTargeted="0">
					<clipitem frameBlend="FALSE" id="clipitem-786">
					<masterclipid>masterclip-706</masterclipid>
					<name></name>
					<enabled>TRUE</enabled>
					<duration>2582774</duration>
					<rate>
					
					                                    <timebase>60</timebase>
					                                    <ntsc>TRUE</ntsc>
					                                
					</rate>
					<start>7042</start>
					<end>7060</end>
					<in>7042</in>
					<out>7060</out>
					<pproTicksIn>914456774963789</pproTicksIn>
					<pproTicksOut>914677708529577</pproTicksOut>
					<alphatype>straight</alphatype>
					<pixelaspectratio>square</pixelaspectratio>
					<anamorphic>FALSE</anamorphic>
					<file id="file-705">
					<name></name>
					<mediaSource>GraphicAndType</mediaSource>
					<rate>
					<timebase>60</timebase>
					<ntsc>TRUE</ntsc>
					</rate>
					<timecode>
					<rate>
					<timebase>60</timebase>
					<ntsc>TRUE</ntsc>
					</rate>
					<string>00:00:00:00</string>
					<frame>0</frame>
					<displayformat>NDF</displayformat>
					</timecode>
					<media>
					<video>
					<samplecharacteristics>
					<rate>
					<timebase>60</timebase>
					<ntsc>TRUE</ntsc>
					</rate>
					<width>1080</width>
					<height>1920</height>
					<anamorphic>FALSE</anamorphic>
					<pixelaspectratio>square</pixelaspectratio>
					<fielddominance>none</fielddominance>
					</samplecharacteristics>
					</video>
					</media>
					</file>
					<filter>
					<effect>
					<name></name>
					<effectid>GraphicAndType</effectid>
					<effectcategory>graphic</effectcategory>
					<effecttype>filter</effecttype>
					<mediatype>video</mediatype>
					<pproBypass>false</pproBypass>
					<parameter authoringApp="PremierePro">
					<parameterid>1</parameterid>
					<name></name>
					<hash>025b1101-ead6-0ca2-1feb-caf3000001fc</hash>
					<value>5AEAAAAAAABEMyIRDAAAAAAABgAKAAQABgAAAGQAAAAAAF4ASAAQAAwARABAADwAOAAAAAAAAAAAADQAMwAsAAAAKAAkACAAAAAAAAAAAAAAAAAAHAAAAAAAGgAAAAAAAAAUAAAAAAAAAAAAAAAAAAAAAAAAAAgAAAAAABsABwBeAAAAAAAAAUAAAABQAAAAbAAAAAIAAAAAAAEAAQAAAAAAQEEAAMBAAABAQAAAyEIAAAABIAAAAAIAAAACAAAAAAA2QwCASkTw/v//9P7///j+//8S////AAAAAAEAAAAEAAAAEQAAAEhHUFNvZWlLYWt1cG9wdGFpAAAAAQAAAAwAAAAIAAwABAAIAAgAAAAIAAAAUAAAAA8AAADvvIEAAAAAAAAAAAAAAAAAAAA2ACQAAAAgABwAAAAAABsAFAAAAAAAAAAAAAAAAAAAAAAAAAAAABAAAAAAAAAADAAAAAgABAA2AAAAAgAAABwAAAAcAAAAHAAAAAAAIEEAAAABaAAAAE3PAEOw////tP///wEAAAAUAAAAEAAaAAgABwAMAAAAEAAUABAAAAAAAAABHAAAAAAAoEEcAAAAAgAAAAAACgAIAAUABgAHAAoAAAAADAD//P///wQABAAEAAAACAAIAAYABwAIAAAAAAAMAA==</value>
					</parameter>
					<parameter authoringApp="PremierePro">
					<parameterid>2</parameterid>
					<name></name>
					<IsTimeVarying>false</IsTimeVarying>
					<ParameterControlType>11</ParameterControlType>
					<LowerBound>false</LowerBound>
					<UpperBound>false</UpperBound>
					<value>-91445760000000000,false,0,0,0,0,0,0</value>
					</parameter>
					<parameter authoringApp="PremierePro">
					<parameterid>3</parameterid>
					<name></name>
					<IsTimeVarying>false</IsTimeVarying>
					<value>-91445760000000000,0.5:0.5,0,0,0,0,0,0,5,4,0,0,0,0</value>
					</parameter>
					<parameter authoringApp="PremierePro">
					<parameterid>4</parameterid>
					<name></name>
					<IsTimeVarying>false</IsTimeVarying>
					<ParameterControlType>2</ParameterControlType>
					<LowerBound>0</LowerBound>
					<UpperBound>4000</UpperBound>
					<value>-91445760000000000,100.,0,0,0,0,0,0</value>
					</parameter>
					<parameter authoringApp="PremierePro">
					<parameterid>8</parameterid>
					<name></name>
					<IsTimeVarying>false</IsTimeVarying>
					<ParameterControlType>2</ParameterControlType>
					<LowerBound>0</LowerBound>
					<UpperBound>100</UpperBound>
					<value>-91445760000000000,100.,0,0,0,0,0,0</value>
					</parameter>
					</effect>
					</filter>
					<logginginfo>
					<description></description>
					<scene></scene>
					<shottake></shottake>
					<lognote></lognote>
					<good></good>
					<originalvideofilename></originalvideofilename>
					<originalaudiofilename></originalaudiofilename>
					</logginginfo>
					<colorinfo>
					<lut></lut>
					<lut1></lut1>
					<asc_sop></asc_sop>
					<asc_sat></asc_sat>
					<lut2></lut2>
					</colorinfo>
					<labels>
					</labels>
					</clipitem>
					<enabled>TRUE</enabled>
					<locked>FALSE</locked>
				</track>
				<track TL.SQTrackShy="0" TL.SQTrackExpandedHeight="25" TL.SQTrackExpanded="0" MZ.TrackTargeted="0">
					<clipitem frameBlend="FALSE" id="clipitem-123">
					<masterclipid>masterclip-43</masterclipid>
					<name></name>
					<enabled>TRUE</enabled>
					<duration>2582774</duration>
					<rate>
					
					                                    <timebase>60</timebase>
					                                    <ntsc>TRUE</ntsc>
					                                
					</rate>
					<start>65</start>
					<end>125</end>
					<in>65</in>
					<out>125</out>
					<pproTicksIn>914456774963789</pproTicksIn>
					<pproTicksOut>914677708529577</pproTicksOut>
					<alphatype>straight</alphatype>
					<pixelaspectratio>square</pixelaspectratio>
					<anamorphic>FALSE</anamorphic>
					<file id="file-42">
					<name></name>
					<mediaSource>GraphicAndType</mediaSource>
					<rate>
					<timebase>60</timebase>
					<ntsc>TRUE</ntsc>
					</rate>
					<timecode>
					<rate>
					<timebase>60</timebase>
					<ntsc>TRUE</ntsc>
					</rate>
					<string>00:00:00:00</string>
					<frame>0</frame>
					<displayformat>NDF</displayformat>
					</timecode>
					<media>
					<video>
					<samplecharacteristics>
					<rate>
					<timebase>60</timebase>
					<ntsc>TRUE</ntsc>
					</rate>
					<width>1080</width>
					<height>1920</height>
					<anamorphic>FALSE</anamorphic>
					<pixelaspectratio>square</pixelaspectratio>
					<fielddominance>none</fielddominance>
					</samplecharacteristics>
					</video>
					</media>
					</file>
					<filter>
					<effect>
					<name></name>
					<effectid>GraphicAndType</effectid>
					<effectcategory>graphic</effectcategory>
					<effecttype>filter</effecttype>
					<mediatype>video</mediatype>
					<pproBypass>false</pproBypass>
					<parameter authoringApp="PremierePro">
					<parameterid>1</parameterid>
					<name></name>
					<hash>025b1101-ead6-0ca2-1feb-caf3000001fc</hash>
					<value>5AEAAAAAAABEMyIRDAAAAAAABgAKAAQABgAAAGQAAAAAAF4ASAAQAAwARABAADwAOAAAAAAAAAAAADQAMwAsAAAAKAAkACAAAAAAAAAAAAAAAAAAHAAAAAAAGgAAAAAAAAAUAAAAAAAAAAAAAAAAAAAAAAAAAAgAAAAAABsABwBeAAAAAAAAAUAAAABQAAAAbAAAAAIAAAAAAAEAAQAAAAAAQEEAAMBAAABAQAAAyEIAAAABIAAAAAIAAAACAAAAAAA2QwCASkTw/v//9P7///j+//8S////AAAAAAEAAAAEAAAAEQAAAEhHUFNvZWlLYWt1cG9wdGFpAAAAAQAAAAwAAAAIAAwABAAIAAgAAAAIAAAAUAAAAA8AAADvvIEAAAAAAAAAAAAAAAAAAAA2ACQAAAAgABwAAAAAABsAFAAAAAAAAAAAAAAAAAAAAAAAAAAAABAAAAAAAAAADAAAAAgABAA2AAAAAgAAABwAAAAcAAAAHAAAAAAAIEEAAAABaAAAAE3PAEOw////tP///wEAAAAUAAAAEAAaAAgABwAMAAAAEAAUABAAAAAAAAABHAAAAAAAoEEcAAAAAgAAAAAACgAIAAUABgAHAAoAAAAADAD//P///wQABAAEAAAACAAIAAYABwAIAAAAAAAMAA==</value>
					</parameter>
					<parameter authoringApp="PremierePro">
					<parameterid>2</parameterid>
					<name></name>
					<IsTimeVarying>false</IsTimeVarying>
					<ParameterControlType>11</ParameterControlType>
					<LowerBound>false</LowerBound>
					<UpperBound>false</UpperBound>
					<value>-91445760000000000,false,0,0,0,0,0,0</value>
					</parameter>
					<parameter authoringApp="PremierePro">
					<parameterid>3</parameterid>
					<name></name>
					<IsTimeVarying>false</IsTimeVarying>
					<value>-91445760000000000,0.5:0.5,0,0,0,0,0,0,5,4,0,0,0,0</value>
					</parameter>
					<parameter authoringApp="PremierePro">
					<parameterid>4</parameterid>
					<name></name>
					<IsTimeVarying>false</IsTimeVarying>
					<ParameterControlType>2</ParameterControlType>
					<LowerBound>0</LowerBound>
					<UpperBound>4000</UpperBound>
					<value>-91445760000000000,100.,0,0,0,0,0,0</value>
					</parameter>
					<parameter authoringApp="PremierePro">
					<parameterid>8</parameterid>
					<name></name>
					<IsTimeVarying>false</IsTimeVarying>
					<ParameterControlType>2</ParameterControlType>
					<LowerBound>0</LowerBound>
					<UpperBound>100</UpperBound>
					<value>-91445760000000000,100.,0,0,0,0,0,0</value>
					</parameter>
					</effect>
					</filter>
					<logginginfo>
					<description></description>
					<scene></scene>
					<shottake></shottake>
					<lognote></lognote>
					<good></good>
					<originalvideofilename></originalvideofilename>
					<originalaudiofilename></originalaudiofilename>
					</logginginfo>
					<colorinfo>
					<lut></lut>
					<lut1></lut1>
					<asc_sop></asc_sop>
					<asc_sat></asc_sat>
					<lut2></lut2>
					</colorinfo>
					<labels>
					</labels>
					</clipitem>
					<clipitem frameBlend="FALSE" id="clipitem-130">
					<masterclipid>masterclip-50</masterclipid>
					<name></name>
					<enabled>TRUE</enabled>
					<duration>2582774</duration>
					<rate>
					
					                                    <timebase>60</timebase>
					                                    <ntsc>TRUE</ntsc>
					                                
					</rate>
					<start>137</start>
					<end>197</end>
					<in>137</in>
					<out>197</out>
					<pproTicksIn>914456774963789</pproTicksIn>
					<pproTicksOut>914677708529577</pproTicksOut>
					<alphatype>straight</alphatype>
					<pixelaspectratio>square</pixelaspectratio>
					<anamorphic>FALSE</anamorphic>
					<file id="file-49">
					<name></name>
					<mediaSource>GraphicAndType</mediaSource>
					<rate>
					<timebase>60</timebase>
					<ntsc>TRUE</ntsc>
					</rate>
					<timecode>
					<rate>
					<timebase>60</timebase>
					<ntsc>TRUE</ntsc>
					</rate>
					<string>00:00:00:00</string>
					<frame>0</frame>
					<displayformat>NDF</displayformat>
					</timecode>
					<media>
					<video>
					<samplecharacteristics>
					<rate>
					<timebase>60</timebase>
					<ntsc>TRUE</ntsc>
					</rate>
					<width>1080</width>
					<height>1920</height>
					<anamorphic>FALSE</anamorphic>
					<pixelaspectratio>square</pixelaspectratio>
					<fielddominance>none</fielddominance>
					</samplecharacteristics>
					</video>
					</media>
					</file>
					<filter>
					<effect>
					<name></name>
					<effectid>GraphicAndType</effectid>
					<effectcategory>graphic</effectcategory>
					<effecttype>filter</effecttype>
					<mediatype>video</mediatype>
					<pproBypass>false</pproBypass>
					<parameter authoringApp="PremierePro">
					<parameterid>1</parameterid>
					<name></name>
					<hash>025b1101-ead6-0ca2-1feb-caf3000001fc</hash>
					<value>5AEAAAAAAABEMyIRDAAAAAAABgAKAAQABgAAAGQAAAAAAF4ASAAQAAwARABAADwAOAAAAAAAAAAAADQAMwAsAAAAKAAkACAAAAAAAAAAAAAAAAAAHAAAAAAAGgAAAAAAAAAUAAAAAAAAAAAAAAAAAAAAAAAAAAgAAAAAABsABwBeAAAAAAAAAUAAAABQAAAAbAAAAAIAAAAAAAEAAQAAAAAAQEEAAMBAAABAQAAAyEIAAAABIAAAAAIAAAACAAAAAAA2QwCASkTw/v//9P7///j+//8S////AAAAAAEAAAAEAAAAEQAAAEhHUFNvZWlLYWt1cG9wdGFpAAAAAQAAAAwAAAAIAAwABAAIAAgAAAAIAAAAUAAAAA8AAADvvIEAAAAAAAAAAAAAAAAAAAA2ACQAAAAgABwAAAAAABsAFAAAAAAAAAAAAAAAAAAAAAAAAAAAABAAAAAAAAAADAAAAAgABAA2AAAAAgAAABwAAAAcAAAAHAAAAAAAIEEAAAABaAAAAE3PAEOw////tP///wEAAAAUAAAAEAAaAAgABwAMAAAAEAAUABAAAAAAAAABHAAAAAAAoEEcAAAAAgAAAAAACgAIAAUABgAHAAoAAAAADAD//P///wQABAAEAAAACAAIAAYABwAIAAAAAAAMAA==</value>
					</parameter>
					<parameter authoringApp="PremierePro">
					<parameterid>2</parameterid>
					<name></name>
					<IsTimeVarying>false</IsTimeVarying>
					<ParameterControlType>11</ParameterControlType>
					<LowerBound>false</LowerBound>
					<UpperBound>false</UpperBound>
					<value>-91445760000000000,false,0,0,0,0,0,0</value>
					</parameter>
					<parameter authoringApp="PremierePro">
					<parameterid>3</parameterid>
					<name></name>
					<IsTimeVarying>false</IsTimeVarying>
					<value>-91445760000000000,0.5:0.5,0,0,0,0,0,0,5,4,0,0,0,0</value>
					</parameter>
					<parameter authoringApp="PremierePro">
					<parameterid>4</parameterid>
					<name></name>
					<IsTimeVarying>false</IsTimeVarying>
					<ParameterControlType>2</ParameterControlType>
					<LowerBound>0</LowerBound>
					<UpperBound>4000</UpperBound>
					<value>-91445760000000000,100.,0,0,0,0,0,0</value>
					</parameter>
					<parameter authoringApp="PremierePro">
					<parameterid>8</parameterid>
					<name></name>
					<IsTimeVarying>false</IsTimeVarying>
					<ParameterControlType>2</ParameterControlType>
					<LowerBound>0</LowerBound>
					<UpperBound>100</UpperBound>
					<value>-91445760000000000,100.,0,0,0,0,0,0</value>
					</parameter>
					</effect>
					</filter>
					<logginginfo>
					<description></description>
					<scene></scene>
					<shottake></shottake>
					<lognote></lognote>
					<good></good>
					<originalvideofilename></originalvideofilename>
					<originalaudiofilename></originalaudiofilename>
					</logginginfo>
					<colorinfo>
					<lut></lut>
					<lut1></lut1>
					<asc_sop></asc_sop>
					<asc_sat></asc_sat>
					<lut2></lut2>
					</colorinfo>
					<labels>
					</labels>
					</clipitem>
					<clipitem frameBlend="FALSE" id="clipitem-137">
					<masterclipid>masterclip-57</masterclipid>
					<name></name>
					<enabled>TRUE</enabled>
					<duration>2582774</duration>
					<rate>
					
					                                    <timebase>60</timebase>
					                                    <ntsc>TRUE</ntsc>
					                                
					</rate>
					<start>239</start>
					<end>299</end>
					<in>239</in>
					<out>299</out>
					<pproTicksIn>914456774963789</pproTicksIn>
					<pproTicksOut>914677708529577</pproTicksOut>
					<alphatype>straight</alphatype>
					<pixelaspectratio>square</pixelaspectratio>
					<anamorphic>FALSE</anamorphic>
					<file id="file-56">
					<name></name>
					<mediaSource>GraphicAndType</mediaSource>
					<rate>
					<timebase>60</timebase>
					<ntsc>TRUE</ntsc>
					</rate>
					<timecode>
					<rate>
					<timebase>60</timebase>
					<ntsc>TRUE</ntsc>
					</rate>
					<string>00:00:00:00</string>
					<frame>0</frame>
					<displayformat>NDF</displayformat>
					</timecode>
					<media>
					<video>
					<samplecharacteristics>
					<rate>
					<timebase>60</timebase>
					<ntsc>TRUE</ntsc>
					</rate>
					<width>1080</width>
					<height>1920</height>
					<anamorphic>FALSE</anamorphic>
					<pixelaspectratio>square</pixelaspectratio>
					<fielddominance>none</fielddominance>
					</samplecharacteristics>
					</video>
					</media>
					</file>
					<filter>
					<effect>
					<name></name>
					<effectid>GraphicAndType</effectid>
					<effectcategory>graphic</effectcategory>
					<effecttype>filter</effecttype>
					<mediatype>video</mediatype>
					<pproBypass>false</pproBypass>
					<parameter authoringApp="PremierePro">
					<parameterid>1</parameterid>
					<name></name>
					<hash>025b1101-ead6-0ca2-1feb-caf3000001fc</hash>
					<value>5AEAAAAAAABEMyIRDAAAAAAABgAKAAQABgAAAGQAAAAAAF4ASAAQAAwARABAADwAOAAAAAAAAAAAADQAMwAsAAAAKAAkACAAAAAAAAAAAAAAAAAAHAAAAAAAGgAAAAAAAAAUAAAAAAAAAAAAAAAAAAAAAAAAAAgAAAAAABsABwBeAAAAAAAAAUAAAABQAAAAbAAAAAIAAAAAAAEAAQAAAAAAQEEAAMBAAABAQAAAyEIAAAABIAAAAAIAAAACAAAAAAA2QwCASkTw/v//9P7///j+//8S////AAAAAAEAAAAEAAAAEQAAAEhHUFNvZWlLYWt1cG9wdGFpAAAAAQAAAAwAAAAIAAwABAAIAAgAAAAIAAAAUAAAAA8AAADvvIEAAAAAAAAAAAAAAAAAAAA2ACQAAAAgABwAAAAAABsAFAAAAAAAAAAAAAAAAAAAAAAAAAAAABAAAAAAAAAADAAAAAgABAA2AAAAAgAAABwAAAAcAAAAHAAAAAAAIEEAAAABaAAAAE3PAEOw////tP///wEAAAAUAAAAEAAaAAgABwAMAAAAEAAUABAAAAAAAAABHAAAAAAAoEEcAAAAAgAAAAAACgAIAAUABgAHAAoAAAAADAD//P///wQABAAEAAAACAAIAAYABwAIAAAAAAAMAA==</value>
					</parameter>
					<parameter authoringApp="PremierePro">
					<parameterid>2</parameterid>
					<name></name>
					<IsTimeVarying>false</IsTimeVarying>
					<ParameterControlType>11</ParameterControlType>
					<LowerBound>false</LowerBound>
					<UpperBound>false</UpperBound>
					<value>-91445760000000000,false,0,0,0,0,0,0</value>
					</parameter>
					<parameter authoringApp="PremierePro">
					<parameterid>3</parameterid>
					<name></name>
					<IsTimeVarying>false</IsTimeVarying>
					<value>-91445760000000000,0.5:0.5,0,0,0,0,0,0,5,4,0,0,0,0</value>
					</parameter>
					<parameter authoringApp="PremierePro">
					<parameterid>4</parameterid>
					<name></name>
					<IsTimeVarying>false</IsTimeVarying>
					<ParameterControlType>2</ParameterControlType>
					<LowerBound>0</LowerBound>
					<UpperBound>4000</UpperBound>
					<value>-91445760000000000,100.,0,0,0,0,0,0</value>
					</parameter>
					<parameter authoringApp="PremierePro">
					<parameterid>8</parameterid>
					<name></name>
					<IsTimeVarying>false</IsTimeVarying>
					<ParameterControlType>2</ParameterControlType>
					<LowerBound>0</LowerBound>
					<UpperBound>100</UpperBound>
					<value>-91445760000000000,100.,0,0,0,0,0,0</value>
					</parameter>
					</effect>
					</filter>
					<logginginfo>
					<description></description>
					<scene></scene>
					<shottake></shottake>
					<lognote></lognote>
					<good></good>
					<originalvideofilename></originalvideofilename>
					<originalaudiofilename></originalaudiofilename>
					</logginginfo>
					<colorinfo>
					<lut></lut>
					<lut1></lut1>
					<asc_sop></asc_sop>
					<asc_sat></asc_sat>
					<lut2></lut2>
					</colorinfo>
					<labels>
					</labels>
					</clipitem>
					<clipitem id="clipitem-144"/>
					                        </track>
					                        <track TL.SQTrackShy="0" TL.SQTrackExpandedHeight="25" TL.SQTrackExpanded="0" MZ.TrackTargeted="0">
					<clipitem frameBlend="FALSE" id="clipitem-145">
					<masterclipid>masterclip-65</masterclipid>
					<name></name>
					<enabled>TRUE</enabled>
					<duration>2582774</duration>
					<rate>
					
					                                    <timebase>60</timebase>
					                                    <ntsc>TRUE</ntsc>
					                                
					</rate>
					<start>311</start>
					<end>371</end>
					<in>311</in>
					<out>371</out>
					<pproTicksIn>914456774963789</pproTicksIn>
					<pproTicksOut>914677708529577</pproTicksOut>
					<alphatype>straight</alphatype>
					<pixelaspectratio>square</pixelaspectratio>
					<anamorphic>FALSE</anamorphic>
					<file id="file-64">
					<name></name>
					<mediaSource>GraphicAndType</mediaSource>
					<rate>
					<timebase>60</timebase>
					<ntsc>TRUE</ntsc>
					</rate>
					<timecode>
					<rate>
					<timebase>60</timebase>
					<ntsc>TRUE</ntsc>
					</rate>
					<string>00:00:00:00</string>
					<frame>0</frame>
					<displayformat>NDF</displayformat>
					</timecode>
					<media>
					<video>
					<samplecharacteristics>
					<rate>
					<timebase>60</timebase>
					<ntsc>TRUE</ntsc>
					</rate>
					<width>1080</width>
					<height>1920</height>
					<anamorphic>FALSE</anamorphic>
					<pixelaspectratio>square</pixelaspectratio>
					<fielddominance>none</fielddominance>
					</samplecharacteristics>
					</video>
					</media>
					</file>
					<filter>
					<effect>
					<name></name>
					<effectid>GraphicAndType</effectid>
					<effectcategory>graphic</effectcategory>
					<effecttype>filter</effecttype>
					<mediatype>video</mediatype>
					<pproBypass>false</pproBypass>
					<parameter authoringApp="PremierePro">
					<parameterid>1</parameterid>
					<name></name>
					<hash>025b1101-ead6-0ca2-1feb-caf3000001fc</hash>
					<value>5AEAAAAAAABEMyIRDAAAAAAABgAKAAQABgAAAGQAAAAAAF4ASAAQAAwARABAADwAOAAAAAAAAAAAADQAMwAsAAAAKAAkACAAAAAAAAAAAAAAAAAAHAAAAAAAGgAAAAAAAAAUAAAAAAAAAAAAAAAAAAAAAAAAAAgAAAAAABsABwBeAAAAAAAAAUAAAABQAAAAbAAAAAIAAAAAAAEAAQAAAAAAQEEAAMBAAABAQAAAyEIAAAABIAAAAAIAAAACAAAAAAA2QwCASkTw/v//9P7///j+//8S////AAAAAAEAAAAEAAAAEQAAAEhHUFNvZWlLYWt1cG9wdGFpAAAAAQAAAAwAAAAIAAwABAAIAAgAAAAIAAAAUAAAAA8AAADvvIEAAAAAAAAAAAAAAAAAAAA2ACQAAAAgABwAAAAAABsAFAAAAAAAAAAAAAAAAAAAAAAAAAAAABAAAAAAAAAADAAAAAgABAA2AAAAAgAAABwAAAAcAAAAHAAAAAAAIEEAAAABaAAAAE3PAEOw////tP///wEAAAAUAAAAEAAaAAgABwAMAAAAEAAUABAAAAAAAAABHAAAAAAAoEEcAAAAAgAAAAAACgAIAAUABgAHAAoAAAAADAD//P///wQABAAEAAAACAAIAAYABwAIAAAAAAAMAA==</value>
					</parameter>
					<parameter authoringApp="PremierePro">
					<parameterid>2</parameterid>
					<name></name>
					<IsTimeVarying>false</IsTimeVarying>
					<ParameterControlType>11</ParameterControlType>
					<LowerBound>false</LowerBound>
					<UpperBound>false</UpperBound>
					<value>-91445760000000000,false,0,0,0,0,0,0</value>
					</parameter>
					<parameter authoringApp="PremierePro">
					<parameterid>3</parameterid>
					<name></name>
					<IsTimeVarying>false</IsTimeVarying>
					<value>-91445760000000000,0.5:0.5,0,0,0,0,0,0,5,4,0,0,0,0</value>
					</parameter>
					<parameter authoringApp="PremierePro">
					<parameterid>4</parameterid>
					<name></name>
					<IsTimeVarying>false</IsTimeVarying>
					<ParameterControlType>2</ParameterControlType>
					<LowerBound>0</LowerBound>
					<UpperBound>4000</UpperBound>
					<value>-91445760000000000,100.,0,0,0,0,0,0</value>
					</parameter>
					<parameter authoringApp="PremierePro">
					<parameterid>8</parameterid>
					<name></name>
					<IsTimeVarying>false</IsTimeVarying>
					<ParameterControlType>2</ParameterControlType>
					<LowerBound>0</LowerBound>
					<UpperBound>100</UpperBound>
					<value>-91445760000000000,100.,0,0,0,0,0,0</value>
					</parameter>
					</effect>
					</filter>
					<logginginfo>
					<description></description>
					<scene></scene>
					<shottake></shottake>
					<lognote></lognote>
					<good></good>
					<originalvideofilename></originalvideofilename>
					<originalaudiofilename></originalaudiofilename>
					</logginginfo>
					<colorinfo>
					<lut></lut>
					<lut1></lut1>
					<asc_sop></asc_sop>
					<asc_sat></asc_sat>
					<lut2></lut2>
					</colorinfo>
					<labels>
					</labels>
					</clipitem>
					<clipitem frameBlend="FALSE" id="clipitem-151">
					<masterclipid>masterclip-71</masterclipid>
					<name></name>
					<enabled>TRUE</enabled>
					<duration>2582774</duration>
					<rate>
					
					                                    <timebase>60</timebase>
					                                    <ntsc>TRUE</ntsc>
					                                
					</rate>
					<start>377</start>
					<end>443</end>
					<in>377</in>
					<out>443</out>
					<pproTicksIn>914456774963789</pproTicksIn>
					<pproTicksOut>914677708529577</pproTicksOut>
					<alphatype>straight</alphatype>
					<pixelaspectratio>square</pixelaspectratio>
					<anamorphic>FALSE</anamorphic>
					<file id="file-70">
					<name></name>
					<mediaSource>GraphicAndType</mediaSource>
					<rate>
					<timebase>60</timebase>
					<ntsc>TRUE</ntsc>
					</rate>
					<timecode>
					<rate>
					<timebase>60</timebase>
					<ntsc>TRUE</ntsc>
					</rate>
					<string>00:00:00:00</string>
					<frame>0</frame>
					<displayformat>NDF</displayformat>
					</timecode>
					<media>
					<video>
					<samplecharacteristics>
					<rate>
					<timebase>60</timebase>
					<ntsc>TRUE</ntsc>
					</rate>
					<width>1080</width>
					<height>1920</height>
					<anamorphic>FALSE</anamorphic>
					<pixelaspectratio>square</pixelaspectratio>
					<fielddominance>none</fielddominance>
					</samplecharacteristics>
					</video>
					</media>
					</file>
					<filter>
					<effect>
					<name></name>
					<effectid>GraphicAndType</effectid>
					<effectcategory>graphic</effectcategory>
					<effecttype>filter</effecttype>
					<mediatype>video</mediatype>
					<pproBypass>false</pproBypass>
					<parameter authoringApp="PremierePro">
					<parameterid>1</parameterid>
					<name></name>
					<hash>025b1101-ead6-0ca2-1feb-caf3000001fc</hash>
					<value>5AEAAAAAAABEMyIRDAAAAAAABgAKAAQABgAAAGQAAAAAAF4ASAAQAAwARABAADwAOAAAAAAAAAAAADQAMwAsAAAAKAAkACAAAAAAAAAAAAAAAAAAHAAAAAAAGgAAAAAAAAAUAAAAAAAAAAAAAAAAAAAAAAAAAAgAAAAAABsABwBeAAAAAAAAAUAAAABQAAAAbAAAAAIAAAAAAAEAAQAAAAAAQEEAAMBAAABAQAAAyEIAAAABIAAAAAIAAAACAAAAAAA2QwCASkTw/v//9P7///j+//8S////AAAAAAEAAAAEAAAAEQAAAEhHUFNvZWlLYWt1cG9wdGFpAAAAAQAAAAwAAAAIAAwABAAIAAgAAAAIAAAAUAAAAA8AAADvvIEAAAAAAAAAAAAAAAAAAAA2ACQAAAAgABwAAAAAABsAFAAAAAAAAAAAAAAAAAAAAAAAAAAAABAAAAAAAAAADAAAAAgABAA2AAAAAgAAABwAAAAcAAAAHAAAAAAAIEEAAAABaAAAAE3PAEOw////tP///wEAAAAUAAAAEAAaAAgABwAMAAAAEAAUABAAAAAAAAABHAAAAAAAoEEcAAAAAgAAAAAACgAIAAUABgAHAAoAAAAADAD//P///wQABAAEAAAACAAIAAYABwAIAAAAAAAMAA==</value>
					</parameter>
					<parameter authoringApp="PremierePro">
					<parameterid>2</parameterid>
					<name></name>
					<IsTimeVarying>false</IsTimeVarying>
					<ParameterControlType>11</ParameterControlType>
					<LowerBound>false</LowerBound>
					<UpperBound>false</UpperBound>
					<value>-91445760000000000,false,0,0,0,0,0,0</value>
					</parameter>
					<parameter authoringApp="PremierePro">
					<parameterid>3</parameterid>
					<name></name>
					<IsTimeVarying>false</IsTimeVarying>
					<value>-91445760000000000,0.5:0.5,0,0,0,0,0,0,5,4,0,0,0,0</value>
					</parameter>
					<parameter authoringApp="PremierePro">
					<parameterid>4</parameterid>
					<name></name>
					<IsTimeVarying>false</IsTimeVarying>
					<ParameterControlType>2</ParameterControlType>
					<LowerBound>0</LowerBound>
					<UpperBound>4000</UpperBound>
					<value>-91445760000000000,100.,0,0,0,0,0,0</value>
					</parameter>
					<parameter authoringApp="PremierePro">
					<parameterid>8</parameterid>
					<name></name>
					<IsTimeVarying>false</IsTimeVarying>
					<ParameterControlType>2</ParameterControlType>
					<LowerBound>0</LowerBound>
					<UpperBound>100</UpperBound>
					<value>-91445760000000000,100.,0,0,0,0,0,0</value>
					</parameter>
					</effect>
					</filter>
					<logginginfo>
					<description></description>
					<scene></scene>
					<shottake></shottake>
					<lognote></lognote>
					<good></good>
					<originalvideofilename></originalvideofilename>
					<originalaudiofilename></originalaudiofilename>
					</logginginfo>
					<colorinfo>
					<lut></lut>
					<lut1></lut1>
					<asc_sop></asc_sop>
					<asc_sat></asc_sat>
					<lut2></lut2>
					</colorinfo>
					<labels>
					</labels>
					</clipitem>
					<clipitem frameBlend="FALSE" id="clipitem-157">
					<masterclipid>masterclip-77</masterclipid>
					<name></name>
					<enabled>TRUE</enabled>
					<duration>2582774</duration>
					<rate>
					
					                                    <timebase>60</timebase>
					                                    <ntsc>TRUE</ntsc>
					                                
					</rate>
					<start>443</start>
					<end>503</end>
					<in>443</in>
					<out>503</out>
					<pproTicksIn>914456774963789</pproTicksIn>
					<pproTicksOut>914677708529577</pproTicksOut>
					<alphatype>straight</alphatype>
					<pixelaspectratio>square</pixelaspectratio>
					<anamorphic>FALSE</anamorphic>
					<file id="file-76">
					<name></name>
					<mediaSource>GraphicAndType</mediaSource>
					<rate>
					<timebase>60</timebase>
					<ntsc>TRUE</ntsc>
					</rate>
					<timecode>
					<rate>
					<timebase>60</timebase>
					<ntsc>TRUE</ntsc>
					</rate>
					<string>00:00:00:00</string>
					<frame>0</frame>
					<displayformat>NDF</displayformat>
					</timecode>
					<media>
					<video>
					<samplecharacteristics>
					<rate>
					<timebase>60</timebase>
					<ntsc>TRUE</ntsc>
					</rate>
					<width>1080</width>
					<height>1920</height>
					<anamorphic>FALSE</anamorphic>
					<pixelaspectratio>square</pixelaspectratio>
					<fielddominance>none</fielddominance>
					</samplecharacteristics>
					</video>
					</media>
					</file>
					<filter>
					<effect>
					<name></name>
					<effectid>GraphicAndType</effectid>
					<effectcategory>graphic</effectcategory>
					<effecttype>filter</effecttype>
					<mediatype>video</mediatype>
					<pproBypass>false</pproBypass>
					<parameter authoringApp="PremierePro">
					<parameterid>1</parameterid>
					<name></name>
					<hash>025b1101-ead6-0ca2-1feb-caf3000001fc</hash>
					<value>5AEAAAAAAABEMyIRDAAAAAAABgAKAAQABgAAAGQAAAAAAF4ASAAQAAwARABAADwAOAAAAAAAAAAAADQAMwAsAAAAKAAkACAAAAAAAAAAAAAAAAAAHAAAAAAAGgAAAAAAAAAUAAAAAAAAAAAAAAAAAAAAAAAAAAgAAAAAABsABwBeAAAAAAAAAUAAAABQAAAAbAAAAAIAAAAAAAEAAQAAAAAAQEEAAMBAAABAQAAAyEIAAAABIAAAAAIAAAACAAAAAAA2QwCASkTw/v//9P7///j+//8S////AAAAAAEAAAAEAAAAEQAAAEhHUFNvZWlLYWt1cG9wdGFpAAAAAQAAAAwAAAAIAAwABAAIAAgAAAAIAAAAUAAAAA8AAADvvIEAAAAAAAAAAAAAAAAAAAA2ACQAAAAgABwAAAAAABsAFAAAAAAAAAAAAAAAAAAAAAAAAAAAABAAAAAAAAAADAAAAAgABAA2AAAAAgAAABwAAAAcAAAAHAAAAAAAIEEAAAABaAAAAE3PAEOw////tP///wEAAAAUAAAAEAAaAAgABwAMAAAAEAAUABAAAAAAAAABHAAAAAAAoEEcAAAAAgAAAAAACgAIAAUABgAHAAoAAAAADAD//P///wQABAAEAAAACAAIAAYABwAIAAAAAAAMAA==</value>
					</parameter>
					<parameter authoringApp="PremierePro">
					<parameterid>2</parameterid>
					<name></name>
					<IsTimeVarying>false</IsTimeVarying>
					<ParameterControlType>11</ParameterControlType>
					<LowerBound>false</LowerBound>
					<UpperBound>false</UpperBound>
					<value>-91445760000000000,false,0,0,0,0,0,0</value>
					</parameter>
					<parameter authoringApp="PremierePro">
					<parameterid>3</parameterid>
					<name></name>
					<IsTimeVarying>false</IsTimeVarying>
					<value>-91445760000000000,0.5:0.5,0,0,0,0,0,0,5,4,0,0,0,0</value>
					</parameter>
					<parameter authoringApp="PremierePro">
					<parameterid>4</parameterid>
					<name></name>
					<IsTimeVarying>false</IsTimeVarying>
					<ParameterControlType>2</ParameterControlType>
					<LowerBound>0</LowerBound>
					<UpperBound>4000</UpperBound>
					<value>-91445760000000000,100.,0,0,0,0,0,0</value>
					</parameter>
					<parameter authoringApp="PremierePro">
					<parameterid>8</parameterid>
					<name></name>
					<IsTimeVarying>false</IsTimeVarying>
					<ParameterControlType>2</ParameterControlType>
					<LowerBound>0</LowerBound>
					<UpperBound>100</UpperBound>
					<value>-91445760000000000,100.,0,0,0,0,0,0</value>
					</parameter>
					</effect>
					</filter>
					<logginginfo>
					<description></description>
					<scene></scene>
					<shottake></shottake>
					<lognote></lognote>
					<good></good>
					<originalvideofilename></originalvideofilename>
					<originalaudiofilename></originalaudiofilename>
					</logginginfo>
					<colorinfo>
					<lut></lut>
					<lut1></lut1>
					<asc_sop></asc_sop>
					<asc_sat></asc_sat>
					<lut2></lut2>
					</colorinfo>
					<labels>
					</labels>
					</clipitem>
					<clipitem frameBlend="FALSE" id="clipitem-162">
					<masterclipid>masterclip-82</masterclipid>
					<name></name>
					<enabled>TRUE</enabled>
					<duration>2582774</duration>
					<rate>
					
					                                    <timebase>60</timebase>
					                                    <ntsc>TRUE</ntsc>
					                                
					</rate>
					<start>503</start>
					<end>563</end>
					<in>503</in>
					<out>563</out>
					<pproTicksIn>914456774963789</pproTicksIn>
					<pproTicksOut>914677708529577</pproTicksOut>
					<alphatype>straight</alphatype>
					<pixelaspectratio>square</pixelaspectratio>
					<anamorphic>FALSE</anamorphic>
					<file id="file-81">
					<name></name>
					<mediaSource>GraphicAndType</mediaSource>
					<rate>
					<timebase>60</timebase>
					<ntsc>TRUE</ntsc>
					</rate>
					<timecode>
					<rate>
					<timebase>60</timebase>
					<ntsc>TRUE</ntsc>
					</rate>
					<string>00:00:00:00</string>
					<frame>0</frame>
					<displayformat>NDF</displayformat>
					</timecode>
					<media>
					<video>
					<samplecharacteristics>
					<rate>
					<timebase>60</timebase>
					<ntsc>TRUE</ntsc>
					</rate>
					<width>1080</width>
					<height>1920</height>
					<anamorphic>FALSE</anamorphic>
					<pixelaspectratio>square</pixelaspectratio>
					<fielddominance>none</fielddominance>
					</samplecharacteristics>
					</video>
					</media>
					</file>
					<filter>
					<effect>
					<name></name>
					<effectid>GraphicAndType</effectid>
					<effectcategory>graphic</effectcategory>
					<effecttype>filter</effecttype>
					<mediatype>video</mediatype>
					<pproBypass>false</pproBypass>
					<parameter authoringApp="PremierePro">
					<parameterid>1</parameterid>
					<name></name>
					<hash>025b1101-ead6-0ca2-1feb-caf3000001fc</hash>
					<value>5AEAAAAAAABEMyIRDAAAAAAABgAKAAQABgAAAGQAAAAAAF4ASAAQAAwARABAADwAOAAAAAAAAAAAADQAMwAsAAAAKAAkACAAAAAAAAAAAAAAAAAAHAAAAAAAGgAAAAAAAAAUAAAAAAAAAAAAAAAAAAAAAAAAAAgAAAAAABsABwBeAAAAAAAAAUAAAABQAAAAbAAAAAIAAAAAAAEAAQAAAAAAQEEAAMBAAABAQAAAyEIAAAABIAAAAAIAAAACAAAAAAA2QwCASkTw/v//9P7///j+//8S////AAAAAAEAAAAEAAAAEQAAAEhHUFNvZWlLYWt1cG9wdGFpAAAAAQAAAAwAAAAIAAwABAAIAAgAAAAIAAAAUAAAAA8AAADvvIEAAAAAAAAAAAAAAAAAAAA2ACQAAAAgABwAAAAAABsAFAAAAAAAAAAAAAAAAAAAAAAAAAAAABAAAAAAAAAADAAAAAgABAA2AAAAAgAAABwAAAAcAAAAHAAAAAAAIEEAAAABaAAAAE3PAEOw////tP///wEAAAAUAAAAEAAaAAgABwAMAAAAEAAUABAAAAAAAAABHAAAAAAAoEEcAAAAAgAAAAAACgAIAAUABgAHAAoAAAAADAD//P///wQABAAEAAAACAAIAAYABwAIAAAAAAAMAA==</value>
					</parameter>
					<parameter authoringApp="PremierePro">
					<parameterid>2</parameterid>
					<name></name>
					<IsTimeVarying>false</IsTimeVarying>
					<ParameterControlType>11</ParameterControlType>
					<LowerBound>false</LowerBound>
					<UpperBound>false</UpperBound>
					<value>-91445760000000000,false,0,0,0,0,0,0</value>
					</parameter>
					<parameter authoringApp="PremierePro">
					<parameterid>3</parameterid>
					<name></name>
					<IsTimeVarying>false</IsTimeVarying>
					<value>-91445760000000000,0.5:0.5,0,0,0,0,0,0,5,4,0,0,0,0</value>
					</parameter>
					<parameter authoringApp="PremierePro">
					<parameterid>4</parameterid>
					<name></name>
					<IsTimeVarying>false</IsTimeVarying>
					<ParameterControlType>2</ParameterControlType>
					<LowerBound>0</LowerBound>
					<UpperBound>4000</UpperBound>
					<value>-91445760000000000,100.,0,0,0,0,0,0</value>
					</parameter>
					<parameter authoringApp="PremierePro">
					<parameterid>8</parameterid>
					<name></name>
					<IsTimeVarying>false</IsTimeVarying>
					<ParameterControlType>2</ParameterControlType>
					<LowerBound>0</LowerBound>
					<UpperBound>100</UpperBound>
					<value>-91445760000000000,100.,0,0,0,0,0,0</value>
					</parameter>
					</effect>
					</filter>
					<logginginfo>
					<description></description>
					<scene></scene>
					<shottake></shottake>
					<lognote></lognote>
					<good></good>
					<originalvideofilename></originalvideofilename>
					<originalaudiofilename></originalaudiofilename>
					</logginginfo>
					<colorinfo>
					<lut></lut>
					<lut1></lut1>
					<asc_sop></asc_sop>
					<asc_sat></asc_sat>
					<lut2></lut2>
					</colorinfo>
					<labels>
					</labels>
					</clipitem>
					<clipitem frameBlend="FALSE" id="clipitem-170">
					<masterclipid>masterclip-90</masterclipid>
					<name></name>
					<enabled>TRUE</enabled>
					<duration>2582774</duration>
					<rate>
					
					                                    <timebase>60</timebase>
					                                    <ntsc>TRUE</ntsc>
					                                
					</rate>
					<start>575</start>
					<end>635</end>
					<in>575</in>
					<out>635</out>
					<pproTicksIn>914456774963789</pproTicksIn>
					<pproTicksOut>914677708529577</pproTicksOut>
					<alphatype>straight</alphatype>
					<pixelaspectratio>square</pixelaspectratio>
					<anamorphic>FALSE</anamorphic>
					<file id="file-89">
					<name></name>
					<mediaSource>GraphicAndType</mediaSource>
					<rate>
					<timebase>60</timebase>
					<ntsc>TRUE</ntsc>
					</rate>
					<timecode>
					<rate>
					<timebase>60</timebase>
					<ntsc>TRUE</ntsc>
					</rate>
					<string>00:00:00:00</string>
					<frame>0</frame>
					<displayformat>NDF</displayformat>
					</timecode>
					<media>
					<video>
					<samplecharacteristics>
					<rate>
					<timebase>60</timebase>
					<ntsc>TRUE</ntsc>
					</rate>
					<width>1080</width>
					<height>1920</height>
					<anamorphic>FALSE</anamorphic>
					<pixelaspectratio>square</pixelaspectratio>
					<fielddominance>none</fielddominance>
					</samplecharacteristics>
					</video>
					</media>
					</file>
					<filter>
					<effect>
					<name></name>
					<effectid>GraphicAndType</effectid>
					<effectcategory>graphic</effectcategory>
					<effecttype>filter</effecttype>
					<mediatype>video</mediatype>
					<pproBypass>false</pproBypass>
					<parameter authoringApp="PremierePro">
					<parameterid>1</parameterid>
					<name></name>
					<hash>025b1101-ead6-0ca2-1feb-caf3000001fc</hash>
					<value>5AEAAAAAAABEMyIRDAAAAAAABgAKAAQABgAAAGQAAAAAAF4ASAAQAAwARABAADwAOAAAAAAAAAAAADQAMwAsAAAAKAAkACAAAAAAAAAAAAAAAAAAHAAAAAAAGgAAAAAAAAAUAAAAAAAAAAAAAAAAAAAAAAAAAAgAAAAAABsABwBeAAAAAAAAAUAAAABQAAAAbAAAAAIAAAAAAAEAAQAAAAAAQEEAAMBAAABAQAAAyEIAAAABIAAAAAIAAAACAAAAAAA2QwCASkTw/v//9P7///j+//8S////AAAAAAEAAAAEAAAAEQAAAEhHUFNvZWlLYWt1cG9wdGFpAAAAAQAAAAwAAAAIAAwABAAIAAgAAAAIAAAAUAAAAA8AAADvvIEAAAAAAAAAAAAAAAAAAAA2ACQAAAAgABwAAAAAABsAFAAAAAAAAAAAAAAAAAAAAAAAAAAAABAAAAAAAAAADAAAAAgABAA2AAAAAgAAABwAAAAcAAAAHAAAAAAAIEEAAAABaAAAAE3PAEOw////tP///wEAAAAUAAAAEAAaAAgABwAMAAAAEAAUABAAAAAAAAABHAAAAAAAoEEcAAAAAgAAAAAACgAIAAUABgAHAAoAAAAADAD//P///wQABAAEAAAACAAIAAYABwAIAAAAAAAMAA==</value>
					</parameter>
					<parameter authoringApp="PremierePro">
					<parameterid>2</parameterid>
					<name></name>
					<IsTimeVarying>false</IsTimeVarying>
					<ParameterControlType>11</ParameterControlType>
					<LowerBound>false</LowerBound>
					<UpperBound>false</UpperBound>
					<value>-91445760000000000,false,0,0,0,0,0,0</value>
					</parameter>
					<parameter authoringApp="PremierePro">
					<parameterid>3</parameterid>
					<name></name>
					<IsTimeVarying>false</IsTimeVarying>
					<value>-91445760000000000,0.5:0.5,0,0,0,0,0,0,5,4,0,0,0,0</value>
					</parameter>
					<parameter authoringApp="PremierePro">
					<parameterid>4</parameterid>
					<name></name>
					<IsTimeVarying>false</IsTimeVarying>
					<ParameterControlType>2</ParameterControlType>
					<LowerBound>0</LowerBound>
					<UpperBound>4000</UpperBound>
					<value>-91445760000000000,100.,0,0,0,0,0,0</value>
					</parameter>
					<parameter authoringApp="PremierePro">
					<parameterid>8</parameterid>
					<name></name>
					<IsTimeVarying>false</IsTimeVarying>
					<ParameterControlType>2</ParameterControlType>
					<LowerBound>0</LowerBound>
					<UpperBound>100</UpperBound>
					<value>-91445760000000000,100.,0,0,0,0,0,0</value>
					</parameter>
					</effect>
					</filter>
					<logginginfo>
					<description></description>
					<scene></scene>
					<shottake></shottake>
					<lognote></lognote>
					<good></good>
					<originalvideofilename></originalvideofilename>
					<originalaudiofilename></originalaudiofilename>
					</logginginfo>
					<colorinfo>
					<lut></lut>
					<lut1></lut1>
					<asc_sop></asc_sop>
					<asc_sat></asc_sat>
					<lut2></lut2>
					</colorinfo>
					<labels>
					</labels>
					</clipitem>
					<clipitem frameBlend="FALSE" id="clipitem-179">
					<masterclipid>masterclip-99</masterclipid>
					<name></name>
					<enabled>TRUE</enabled>
					<duration>2582774</duration>
					<rate>
					
					                                    <timebase>60</timebase>
					                                    <ntsc>TRUE</ntsc>
					                                
					</rate>
					<start>635</start>
					<end>701</end>
					<in>635</in>
					<out>701</out>
					<pproTicksIn>914456774963789</pproTicksIn>
					<pproTicksOut>914677708529577</pproTicksOut>
					<alphatype>straight</alphatype>
					<pixelaspectratio>square</pixelaspectratio>
					<anamorphic>FALSE</anamorphic>
					<file id="file-98">
					<name></name>
					<mediaSource>GraphicAndType</mediaSource>
					<rate>
					<timebase>60</timebase>
					<ntsc>TRUE</ntsc>
					</rate>
					<timecode>
					<rate>
					<timebase>60</timebase>
					<ntsc>TRUE</ntsc>
					</rate>
					<string>00:00:00:00</string>
					<frame>0</frame>
					<displayformat>NDF</displayformat>
					</timecode>
					<media>
					<video>
					<samplecharacteristics>
					<rate>
					<timebase>60</timebase>
					<ntsc>TRUE</ntsc>
					</rate>
					<width>1080</width>
					<height>1920</height>
					<anamorphic>FALSE</anamorphic>
					<pixelaspectratio>square</pixelaspectratio>
					<fielddominance>none</fielddominance>
					</samplecharacteristics>
					</video>
					</media>
					</file>
					<filter>
					<effect>
					<name></name>
					<effectid>GraphicAndType</effectid>
					<effectcategory>graphic</effectcategory>
					<effecttype>filter</effecttype>
					<mediatype>video</mediatype>
					<pproBypass>false</pproBypass>
					<parameter authoringApp="PremierePro">
					<parameterid>1</parameterid>
					<name></name>
					<hash>025b1101-ead6-0ca2-1feb-caf3000001fc</hash>
					<value>5AEAAAAAAABEMyIRDAAAAAAABgAKAAQABgAAAGQAAAAAAF4ASAAQAAwARABAADwAOAAAAAAAAAAAADQAMwAsAAAAKAAkACAAAAAAAAAAAAAAAAAAHAAAAAAAGgAAAAAAAAAUAAAAAAAAAAAAAAAAAAAAAAAAAAgAAAAAABsABwBeAAAAAAAAAUAAAABQAAAAbAAAAAIAAAAAAAEAAQAAAAAAQEEAAMBAAABAQAAAyEIAAAABIAAAAAIAAAACAAAAAAA2QwCASkTw/v//9P7///j+//8S////AAAAAAEAAAAEAAAAEQAAAEhHUFNvZWlLYWt1cG9wdGFpAAAAAQAAAAwAAAAIAAwABAAIAAgAAAAIAAAAUAAAAA8AAADvvIEAAAAAAAAAAAAAAAAAAAA2ACQAAAAgABwAAAAAABsAFAAAAAAAAAAAAAAAAAAAAAAAAAAAABAAAAAAAAAADAAAAAgABAA2AAAAAgAAABwAAAAcAAAAHAAAAAAAIEEAAAABaAAAAE3PAEOw////tP///wEAAAAUAAAAEAAaAAgABwAMAAAAEAAUABAAAAAAAAABHAAAAAAAoEEcAAAAAgAAAAAACgAIAAUABgAHAAoAAAAADAD//P///wQABAAEAAAACAAIAAYABwAIAAAAAAAMAA==</value>
					</parameter>
					<parameter authoringApp="PremierePro">
					<parameterid>2</parameterid>
					<name></name>
					<IsTimeVarying>false</IsTimeVarying>
					<ParameterControlType>11</ParameterControlType>
					<LowerBound>false</LowerBound>
					<UpperBound>false</UpperBound>
					<value>-91445760000000000,false,0,0,0,0,0,0</value>
					</parameter>
					<parameter authoringApp="PremierePro">
					<parameterid>3</parameterid>
					<name></name>
					<IsTimeVarying>false</IsTimeVarying>
					<value>-91445760000000000,0.5:0.5,0,0,0,0,0,0,5,4,0,0,0,0</value>
					</parameter>
					<parameter authoringApp="PremierePro">
					<parameterid>4</parameterid>
					<name></name>
					<IsTimeVarying>false</IsTimeVarying>
					<ParameterControlType>2</ParameterControlType>
					<LowerBound>0</LowerBound>
					<UpperBound>4000</UpperBound>
					<value>-91445760000000000,100.,0,0,0,0,0,0</value>
					</parameter>
					<parameter authoringApp="PremierePro">
					<parameterid>8</parameterid>
					<name></name>
					<IsTimeVarying>false</IsTimeVarying>
					<ParameterControlType>2</ParameterControlType>
					<LowerBound>0</LowerBound>
					<UpperBound>100</UpperBound>
					<value>-91445760000000000,100.,0,0,0,0,0,0</value>
					</parameter>
					</effect>
					</filter>
					<logginginfo>
					<description></description>
					<scene></scene>
					<shottake></shottake>
					<lognote></lognote>
					<good></good>
					<originalvideofilename></originalvideofilename>
					<originalaudiofilename></originalaudiofilename>
					</logginginfo>
					<colorinfo>
					<lut></lut>
					<lut1></lut1>
					<asc_sop></asc_sop>
					<asc_sat></asc_sat>
					<lut2></lut2>
					</colorinfo>
					<labels>
					</labels>
					</clipitem>
					<clipitem frameBlend="FALSE" id="clipitem-187">
					<masterclipid>masterclip-107</masterclipid>
					<name></name>
					<enabled>TRUE</enabled>
					<duration>2582774</duration>
					<rate>
					
					                                    <timebase>60</timebase>
					                                    <ntsc>TRUE</ntsc>
					                                
					</rate>
					<start>701</start>
					<end>761</end>
					<in>701</in>
					<out>761</out>
					<pproTicksIn>914456774963789</pproTicksIn>
					<pproTicksOut>914677708529577</pproTicksOut>
					<alphatype>straight</alphatype>
					<pixelaspectratio>square</pixelaspectratio>
					<anamorphic>FALSE</anamorphic>
					<file id="file-106">
					<name></name>
					<mediaSource>GraphicAndType</mediaSource>
					<rate>
					<timebase>60</timebase>
					<ntsc>TRUE</ntsc>
					</rate>
					<timecode>
					<rate>
					<timebase>60</timebase>
					<ntsc>TRUE</ntsc>
					</rate>
					<string>00:00:00:00</string>
					<frame>0</frame>
					<displayformat>NDF</displayformat>
					</timecode>
					<media>
					<video>
					<samplecharacteristics>
					<rate>
					<timebase>60</timebase>
					<ntsc>TRUE</ntsc>
					</rate>
					<width>1080</width>
					<height>1920</height>
					<anamorphic>FALSE</anamorphic>
					<pixelaspectratio>square</pixelaspectratio>
					<fielddominance>none</fielddominance>
					</samplecharacteristics>
					</video>
					</media>
					</file>
					<filter>
					<effect>
					<name></name>
					<effectid>GraphicAndType</effectid>
					<effectcategory>graphic</effectcategory>
					<effecttype>filter</effecttype>
					<mediatype>video</mediatype>
					<pproBypass>false</pproBypass>
					<parameter authoringApp="PremierePro">
					<parameterid>1</parameterid>
					<name></name>
					<hash>025b1101-ead6-0ca2-1feb-caf3000001fc</hash>
					<value>5AEAAAAAAABEMyIRDAAAAAAABgAKAAQABgAAAGQAAAAAAF4ASAAQAAwARABAADwAOAAAAAAAAAAAADQAMwAsAAAAKAAkACAAAAAAAAAAAAAAAAAAHAAAAAAAGgAAAAAAAAAUAAAAAAAAAAAAAAAAAAAAAAAAAAgAAAAAABsABwBeAAAAAAAAAUAAAABQAAAAbAAAAAIAAAAAAAEAAQAAAAAAQEEAAMBAAABAQAAAyEIAAAABIAAAAAIAAAACAAAAAAA2QwCASkTw/v//9P7///j+//8S////AAAAAAEAAAAEAAAAEQAAAEhHUFNvZWlLYWt1cG9wdGFpAAAAAQAAAAwAAAAIAAwABAAIAAgAAAAIAAAAUAAAAA8AAADvvIEAAAAAAAAAAAAAAAAAAAA2ACQAAAAgABwAAAAAABsAFAAAAAAAAAAAAAAAAAAAAAAAAAAAABAAAAAAAAAADAAAAAgABAA2AAAAAgAAABwAAAAcAAAAHAAAAAAAIEEAAAABaAAAAE3PAEOw////tP///wEAAAAUAAAAEAAaAAgABwAMAAAAEAAUABAAAAAAAAABHAAAAAAAoEEcAAAAAgAAAAAACgAIAAUABgAHAAoAAAAADAD//P///wQABAAEAAAACAAIAAYABwAIAAAAAAAMAA==</value>
					</parameter>
					<parameter authoringApp="PremierePro">
					<parameterid>2</parameterid>
					<name></name>
					<IsTimeVarying>false</IsTimeVarying>
					<ParameterControlType>11</ParameterControlType>
					<LowerBound>false</LowerBound>
					<UpperBound>false</UpperBound>
					<value>-91445760000000000,false,0,0,0,0,0,0</value>
					</parameter>
					<parameter authoringApp="PremierePro">
					<parameterid>3</parameterid>
					<name></name>
					<IsTimeVarying>false</IsTimeVarying>
					<value>-91445760000000000,0.5:0.5,0,0,0,0,0,0,5,4,0,0,0,0</value>
					</parameter>
					<parameter authoringApp="PremierePro">
					<parameterid>4</parameterid>
					<name></name>
					<IsTimeVarying>false</IsTimeVarying>
					<ParameterControlType>2</ParameterControlType>
					<LowerBound>0</LowerBound>
					<UpperBound>4000</UpperBound>
					<value>-91445760000000000,100.,0,0,0,0,0,0</value>
					</parameter>
					<parameter authoringApp="PremierePro">
					<parameterid>8</parameterid>
					<name></name>
					<IsTimeVarying>false</IsTimeVarying>
					<ParameterControlType>2</ParameterControlType>
					<LowerBound>0</LowerBound>
					<UpperBound>100</UpperBound>
					<value>-91445760000000000,100.,0,0,0,0,0,0</value>
					</parameter>
					</effect>
					</filter>
					<logginginfo>
					<description></description>
					<scene></scene>
					<shottake></shottake>
					<lognote></lognote>
					<good></good>
					<originalvideofilename></originalvideofilename>
					<originalaudiofilename></originalaudiofilename>
					</logginginfo>
					<colorinfo>
					<lut></lut>
					<lut1></lut1>
					<asc_sop></asc_sop>
					<asc_sat></asc_sat>
					<lut2></lut2>
					</colorinfo>
					<labels>
					</labels>
					</clipitem>
					<clipitem frameBlend="FALSE" id="clipitem-194">
					<masterclipid>masterclip-114</masterclipid>
					<name></name>
					<enabled>TRUE</enabled>
					<duration>2582774</duration>
					<rate>
					
					                                    <timebase>60</timebase>
					                                    <ntsc>TRUE</ntsc>
					                                
					</rate>
					<start>773</start>
					<end>833</end>
					<in>773</in>
					<out>833</out>
					<pproTicksIn>914456774963789</pproTicksIn>
					<pproTicksOut>914677708529577</pproTicksOut>
					<alphatype>straight</alphatype>
					<pixelaspectratio>square</pixelaspectratio>
					<anamorphic>FALSE</anamorphic>
					<file id="file-113">
					<name></name>
					<mediaSource>GraphicAndType</mediaSource>
					<rate>
					<timebase>60</timebase>
					<ntsc>TRUE</ntsc>
					</rate>
					<timecode>
					<rate>
					<timebase>60</timebase>
					<ntsc>TRUE</ntsc>
					</rate>
					<string>00:00:00:00</string>
					<frame>0</frame>
					<displayformat>NDF</displayformat>
					</timecode>
					<media>
					<video>
					<samplecharacteristics>
					<rate>
					<timebase>60</timebase>
					<ntsc>TRUE</ntsc>
					</rate>
					<width>1080</width>
					<height>1920</height>
					<anamorphic>FALSE</anamorphic>
					<pixelaspectratio>square</pixelaspectratio>
					<fielddominance>none</fielddominance>
					</samplecharacteristics>
					</video>
					</media>
					</file>
					<filter>
					<effect>
					<name></name>
					<effectid>GraphicAndType</effectid>
					<effectcategory>graphic</effectcategory>
					<effecttype>filter</effecttype>
					<mediatype>video</mediatype>
					<pproBypass>false</pproBypass>
					<parameter authoringApp="PremierePro">
					<parameterid>1</parameterid>
					<name></name>
					<hash>025b1101-ead6-0ca2-1feb-caf3000001fc</hash>
					<value>5AEAAAAAAABEMyIRDAAAAAAABgAKAAQABgAAAGQAAAAAAF4ASAAQAAwARABAADwAOAAAAAAAAAAAADQAMwAsAAAAKAAkACAAAAAAAAAAAAAAAAAAHAAAAAAAGgAAAAAAAAAUAAAAAAAAAAAAAAAAAAAAAAAAAAgAAAAAABsABwBeAAAAAAAAAUAAAABQAAAAbAAAAAIAAAAAAAEAAQAAAAAAQEEAAMBAAABAQAAAyEIAAAABIAAAAAIAAAACAAAAAAA2QwCASkTw/v//9P7///j+//8S////AAAAAAEAAAAEAAAAEQAAAEhHUFNvZWlLYWt1cG9wdGFpAAAAAQAAAAwAAAAIAAwABAAIAAgAAAAIAAAAUAAAAA8AAADvvIEAAAAAAAAAAAAAAAAAAAA2ACQAAAAgABwAAAAAABsAFAAAAAAAAAAAAAAAAAAAAAAAAAAAABAAAAAAAAAADAAAAAgABAA2AAAAAgAAABwAAAAcAAAAHAAAAAAAIEEAAAABaAAAAE3PAEOw////tP///wEAAAAUAAAAEAAaAAgABwAMAAAAEAAUABAAAAAAAAABHAAAAAAAoEEcAAAAAgAAAAAACgAIAAUABgAHAAoAAAAADAD//P///wQABAAEAAAACAAIAAYABwAIAAAAAAAMAA==</value>
					</parameter>
					<parameter authoringApp="PremierePro">
					<parameterid>2</parameterid>
					<name></name>
					<IsTimeVarying>false</IsTimeVarying>
					<ParameterControlType>11</ParameterControlType>
					<LowerBound>false</LowerBound>
					<UpperBound>false</UpperBound>
					<value>-91445760000000000,false,0,0,0,0,0,0</value>
					</parameter>
					<parameter authoringApp="PremierePro">
					<parameterid>3</parameterid>
					<name></name>
					<IsTimeVarying>false</IsTimeVarying>
					<value>-91445760000000000,0.5:0.5,0,0,0,0,0,0,5,4,0,0,0,0</value>
					</parameter>
					<parameter authoringApp="PremierePro">
					<parameterid>4</parameterid>
					<name></name>
					<IsTimeVarying>false</IsTimeVarying>
					<ParameterControlType>2</ParameterControlType>
					<LowerBound>0</LowerBound>
					<UpperBound>4000</UpperBound>
					<value>-91445760000000000,100.,0,0,0,0,0,0</value>
					</parameter>
					<parameter authoringApp="PremierePro">
					<parameterid>8</parameterid>
					<name></name>
					<IsTimeVarying>false</IsTimeVarying>
					<ParameterControlType>2</ParameterControlType>
					<LowerBound>0</LowerBound>
					<UpperBound>100</UpperBound>
					<value>-91445760000000000,100.,0,0,0,0,0,0</value>
					</parameter>
					</effect>
					</filter>
					<logginginfo>
					<description></description>
					<scene></scene>
					<shottake></shottake>
					<lognote></lognote>
					<good></good>
					<originalvideofilename></originalvideofilename>
					<originalaudiofilename></originalaudiofilename>
					</logginginfo>
					<colorinfo>
					<lut></lut>
					<lut1></lut1>
					<asc_sop></asc_sop>
					<asc_sat></asc_sat>
					<lut2></lut2>
					</colorinfo>
					<labels>
					</labels>
					</clipitem>
					<clipitem frameBlend="FALSE" id="clipitem-202">
					<masterclipid>masterclip-122</masterclipid>
					<name></name>
					<enabled>TRUE</enabled>
					<duration>2582774</duration>
					<rate>
					
					                                    <timebase>60</timebase>
					                                    <ntsc>TRUE</ntsc>
					                                
					</rate>
					<start>833</start>
					<end>893</end>
					<in>833</in>
					<out>893</out>
					<pproTicksIn>914456774963789</pproTicksIn>
					<pproTicksOut>914677708529577</pproTicksOut>
					<alphatype>straight</alphatype>
					<pixelaspectratio>square</pixelaspectratio>
					<anamorphic>FALSE</anamorphic>
					<file id="file-121">
					<name></name>
					<mediaSource>GraphicAndType</mediaSource>
					<rate>
					<timebase>60</timebase>
					<ntsc>TRUE</ntsc>
					</rate>
					<timecode>
					<rate>
					<timebase>60</timebase>
					<ntsc>TRUE</ntsc>
					</rate>
					<string>00:00:00:00</string>
					<frame>0</frame>
					<displayformat>NDF</displayformat>
					</timecode>
					<media>
					<video>
					<samplecharacteristics>
					<rate>
					<timebase>60</timebase>
					<ntsc>TRUE</ntsc>
					</rate>
					<width>1080</width>
					<height>1920</height>
					<anamorphic>FALSE</anamorphic>
					<pixelaspectratio>square</pixelaspectratio>
					<fielddominance>none</fielddominance>
					</samplecharacteristics>
					</video>
					</media>
					</file>
					<filter>
					<effect>
					<name></name>
					<effectid>GraphicAndType</effectid>
					<effectcategory>graphic</effectcategory>
					<effecttype>filter</effecttype>
					<mediatype>video</mediatype>
					<pproBypass>false</pproBypass>
					<parameter authoringApp="PremierePro">
					<parameterid>1</parameterid>
					<name></name>
					<hash>025b1101-ead6-0ca2-1feb-caf3000001fc</hash>
					<value>5AEAAAAAAABEMyIRDAAAAAAABgAKAAQABgAAAGQAAAAAAF4ASAAQAAwARABAADwAOAAAAAAAAAAAADQAMwAsAAAAKAAkACAAAAAAAAAAAAAAAAAAHAAAAAAAGgAAAAAAAAAUAAAAAAAAAAAAAAAAAAAAAAAAAAgAAAAAABsABwBeAAAAAAAAAUAAAABQAAAAbAAAAAIAAAAAAAEAAQAAAAAAQEEAAMBAAABAQAAAyEIAAAABIAAAAAIAAAACAAAAAAA2QwCASkTw/v//9P7///j+//8S////AAAAAAEAAAAEAAAAEQAAAEhHUFNvZWlLYWt1cG9wdGFpAAAAAQAAAAwAAAAIAAwABAAIAAgAAAAIAAAAUAAAAA8AAADvvIEAAAAAAAAAAAAAAAAAAAA2ACQAAAAgABwAAAAAABsAFAAAAAAAAAAAAAAAAAAAAAAAAAAAABAAAAAAAAAADAAAAAgABAA2AAAAAgAAABwAAAAcAAAAHAAAAAAAIEEAAAABaAAAAE3PAEOw////tP///wEAAAAUAAAAEAAaAAgABwAMAAAAEAAUABAAAAAAAAABHAAAAAAAoEEcAAAAAgAAAAAACgAIAAUABgAHAAoAAAAADAD//P///wQABAAEAAAACAAIAAYABwAIAAAAAAAMAA==</value>
					</parameter>
					<parameter authoringApp="PremierePro">
					<parameterid>2</parameterid>
					<name></name>
					<IsTimeVarying>false</IsTimeVarying>
					<ParameterControlType>11</ParameterControlType>
					<LowerBound>false</LowerBound>
					<UpperBound>false</UpperBound>
					<value>-91445760000000000,false,0,0,0,0,0,0</value>
					</parameter>
					<parameter authoringApp="PremierePro">
					<parameterid>3</parameterid>
					<name></name>
					<IsTimeVarying>false</IsTimeVarying>
					<value>-91445760000000000,0.5:0.5,0,0,0,0,0,0,5,4,0,0,0,0</value>
					</parameter>
					<parameter authoringApp="PremierePro">
					<parameterid>4</parameterid>
					<name></name>
					<IsTimeVarying>false</IsTimeVarying>
					<ParameterControlType>2</ParameterControlType>
					<LowerBound>0</LowerBound>
					<UpperBound>4000</UpperBound>
					<value>-91445760000000000,100.,0,0,0,0,0,0</value>
					</parameter>
					<parameter authoringApp="PremierePro">
					<parameterid>8</parameterid>
					<name></name>
					<IsTimeVarying>false</IsTimeVarying>
					<ParameterControlType>2</ParameterControlType>
					<LowerBound>0</LowerBound>
					<UpperBound>100</UpperBound>
					<value>-91445760000000000,100.,0,0,0,0,0,0</value>
					</parameter>
					</effect>
					</filter>
					<logginginfo>
					<description></description>
					<scene></scene>
					<shottake></shottake>
					<lognote></lognote>
					<good></good>
					<originalvideofilename></originalvideofilename>
					<originalaudiofilename></originalaudiofilename>
					</logginginfo>
					<colorinfo>
					<lut></lut>
					<lut1></lut1>
					<asc_sop></asc_sop>
					<asc_sat></asc_sat>
					<lut2></lut2>
					</colorinfo>
					<labels>
					</labels>
					</clipitem>
					<clipitem frameBlend="FALSE" id="clipitem-210">
					<masterclipid>masterclip-130</masterclipid>
					<name></name>
					<enabled>TRUE</enabled>
					<duration>2582774</duration>
					<rate>
					
					                                    <timebase>60</timebase>
					                                    <ntsc>TRUE</ntsc>
					                                
					</rate>
					<start>893</start>
					<end>953</end>
					<in>893</in>
					<out>953</out>
					<pproTicksIn>914456774963789</pproTicksIn>
					<pproTicksOut>914677708529577</pproTicksOut>
					<alphatype>straight</alphatype>
					<pixelaspectratio>square</pixelaspectratio>
					<anamorphic>FALSE</anamorphic>
					<file id="file-129">
					<name></name>
					<mediaSource>GraphicAndType</mediaSource>
					<rate>
					<timebase>60</timebase>
					<ntsc>TRUE</ntsc>
					</rate>
					<timecode>
					<rate>
					<timebase>60</timebase>
					<ntsc>TRUE</ntsc>
					</rate>
					<string>00:00:00:00</string>
					<frame>0</frame>
					<displayformat>NDF</displayformat>
					</timecode>
					<media>
					<video>
					<samplecharacteristics>
					<rate>
					<timebase>60</timebase>
					<ntsc>TRUE</ntsc>
					</rate>
					<width>1080</width>
					<height>1920</height>
					<anamorphic>FALSE</anamorphic>
					<pixelaspectratio>square</pixelaspectratio>
					<fielddominance>none</fielddominance>
					</samplecharacteristics>
					</video>
					</media>
					</file>
					<filter>
					<effect>
					<name></name>
					<effectid>GraphicAndType</effectid>
					<effectcategory>graphic</effectcategory>
					<effecttype>filter</effecttype>
					<mediatype>video</mediatype>
					<pproBypass>false</pproBypass>
					<parameter authoringApp="PremierePro">
					<parameterid>1</parameterid>
					<name></name>
					<hash>025b1101-ead6-0ca2-1feb-caf3000001fc</hash>
					<value>5AEAAAAAAABEMyIRDAAAAAAABgAKAAQABgAAAGQAAAAAAF4ASAAQAAwARABAADwAOAAAAAAAAAAAADQAMwAsAAAAKAAkACAAAAAAAAAAAAAAAAAAHAAAAAAAGgAAAAAAAAAUAAAAAAAAAAAAAAAAAAAAAAAAAAgAAAAAABsABwBeAAAAAAAAAUAAAABQAAAAbAAAAAIAAAAAAAEAAQAAAAAAQEEAAMBAAABAQAAAyEIAAAABIAAAAAIAAAACAAAAAAA2QwCASkTw/v//9P7///j+//8S////AAAAAAEAAAAEAAAAEQAAAEhHUFNvZWlLYWt1cG9wdGFpAAAAAQAAAAwAAAAIAAwABAAIAAgAAAAIAAAAUAAAAA8AAADvvIEAAAAAAAAAAAAAAAAAAAA2ACQAAAAgABwAAAAAABsAFAAAAAAAAAAAAAAAAAAAAAAAAAAAABAAAAAAAAAADAAAAAgABAA2AAAAAgAAABwAAAAcAAAAHAAAAAAAIEEAAAABaAAAAE3PAEOw////tP///wEAAAAUAAAAEAAaAAgABwAMAAAAEAAUABAAAAAAAAABHAAAAAAAoEEcAAAAAgAAAAAACgAIAAUABgAHAAoAAAAADAD//P///wQABAAEAAAACAAIAAYABwAIAAAAAAAMAA==</value>
					</parameter>
					<parameter authoringApp="PremierePro">
					<parameterid>2</parameterid>
					<name></name>
					<IsTimeVarying>false</IsTimeVarying>
					<ParameterControlType>11</ParameterControlType>
					<LowerBound>false</LowerBound>
					<UpperBound>false</UpperBound>
					<value>-91445760000000000,false,0,0,0,0,0,0</value>
					</parameter>
					<parameter authoringApp="PremierePro">
					<parameterid>3</parameterid>
					<name></name>
					<IsTimeVarying>false</IsTimeVarying>
					<value>-91445760000000000,0.5:0.5,0,0,0,0,0,0,5,4,0,0,0,0</value>
					</parameter>
					<parameter authoringApp="PremierePro">
					<parameterid>4</parameterid>
					<name></name>
					<IsTimeVarying>false</IsTimeVarying>
					<ParameterControlType>2</ParameterControlType>
					<LowerBound>0</LowerBound>
					<UpperBound>4000</UpperBound>
					<value>-91445760000000000,100.,0,0,0,0,0,0</value>
					</parameter>
					<parameter authoringApp="PremierePro">
					<parameterid>8</parameterid>
					<name></name>
					<IsTimeVarying>false</IsTimeVarying>
					<ParameterControlType>2</ParameterControlType>
					<LowerBound>0</LowerBound>
					<UpperBound>100</UpperBound>
					<value>-91445760000000000,100.,0,0,0,0,0,0</value>
					</parameter>
					</effect>
					</filter>
					<logginginfo>
					<description></description>
					<scene></scene>
					<shottake></shottake>
					<lognote></lognote>
					<good></good>
					<originalvideofilename></originalvideofilename>
					<originalaudiofilename></originalaudiofilename>
					</logginginfo>
					<colorinfo>
					<lut></lut>
					<lut1></lut1>
					<asc_sop></asc_sop>
					<asc_sat></asc_sat>
					<lut2></lut2>
					</colorinfo>
					<labels>
					</labels>
					</clipitem>
					<clipitem frameBlend="FALSE" id="clipitem-219">
					<masterclipid>masterclip-139</masterclipid>
					<name></name>
					<enabled>TRUE</enabled>
					<duration>2582774</duration>
					<rate>
					
					                                    <timebase>60</timebase>
					                                    <ntsc>TRUE</ntsc>
					                                
					</rate>
					<start>953</start>
					<end>1013</end>
					<in>953</in>
					<out>1013</out>
					<pproTicksIn>914456774963789</pproTicksIn>
					<pproTicksOut>914677708529577</pproTicksOut>
					<alphatype>straight</alphatype>
					<pixelaspectratio>square</pixelaspectratio>
					<anamorphic>FALSE</anamorphic>
					<file id="file-138">
					<name></name>
					<mediaSource>GraphicAndType</mediaSource>
					<rate>
					<timebase>60</timebase>
					<ntsc>TRUE</ntsc>
					</rate>
					<timecode>
					<rate>
					<timebase>60</timebase>
					<ntsc>TRUE</ntsc>
					</rate>
					<string>00:00:00:00</string>
					<frame>0</frame>
					<displayformat>NDF</displayformat>
					</timecode>
					<media>
					<video>
					<samplecharacteristics>
					<rate>
					<timebase>60</timebase>
					<ntsc>TRUE</ntsc>
					</rate>
					<width>1080</width>
					<height>1920</height>
					<anamorphic>FALSE</anamorphic>
					<pixelaspectratio>square</pixelaspectratio>
					<fielddominance>none</fielddominance>
					</samplecharacteristics>
					</video>
					</media>
					</file>
					<filter>
					<effect>
					<name></name>
					<effectid>GraphicAndType</effectid>
					<effectcategory>graphic</effectcategory>
					<effecttype>filter</effecttype>
					<mediatype>video</mediatype>
					<pproBypass>false</pproBypass>
					<parameter authoringApp="PremierePro">
					<parameterid>1</parameterid>
					<name></name>
					<hash>025b1101-ead6-0ca2-1feb-caf3000001fc</hash>
					<value>5AEAAAAAAABEMyIRDAAAAAAABgAKAAQABgAAAGQAAAAAAF4ASAAQAAwARABAADwAOAAAAAAAAAAAADQAMwAsAAAAKAAkACAAAAAAAAAAAAAAAAAAHAAAAAAAGgAAAAAAAAAUAAAAAAAAAAAAAAAAAAAAAAAAAAgAAAAAABsABwBeAAAAAAAAAUAAAABQAAAAbAAAAAIAAAAAAAEAAQAAAAAAQEEAAMBAAABAQAAAyEIAAAABIAAAAAIAAAACAAAAAAA2QwCASkTw/v//9P7///j+//8S////AAAAAAEAAAAEAAAAEQAAAEhHUFNvZWlLYWt1cG9wdGFpAAAAAQAAAAwAAAAIAAwABAAIAAgAAAAIAAAAUAAAAA8AAADvvIEAAAAAAAAAAAAAAAAAAAA2ACQAAAAgABwAAAAAABsAFAAAAAAAAAAAAAAAAAAAAAAAAAAAABAAAAAAAAAADAAAAAgABAA2AAAAAgAAABwAAAAcAAAAHAAAAAAAIEEAAAABaAAAAE3PAEOw////tP///wEAAAAUAAAAEAAaAAgABwAMAAAAEAAUABAAAAAAAAABHAAAAAAAoEEcAAAAAgAAAAAACgAIAAUABgAHAAoAAAAADAD//P///wQABAAEAAAACAAIAAYABwAIAAAAAAAMAA==</value>
					</parameter>
					<parameter authoringApp="PremierePro">
					<parameterid>2</parameterid>
					<name></name>
					<IsTimeVarying>false</IsTimeVarying>
					<ParameterControlType>11</ParameterControlType>
					<LowerBound>false</LowerBound>
					<UpperBound>false</UpperBound>
					<value>-91445760000000000,false,0,0,0,0,0,0</value>
					</parameter>
					<parameter authoringApp="PremierePro">
					<parameterid>3</parameterid>
					<name></name>
					<IsTimeVarying>false</IsTimeVarying>
					<value>-91445760000000000,0.5:0.5,0,0,0,0,0,0,5,4,0,0,0,0</value>
					</parameter>
					<parameter authoringApp="PremierePro">
					<parameterid>4</parameterid>
					<name></name>
					<IsTimeVarying>false</IsTimeVarying>
					<ParameterControlType>2</ParameterControlType>
					<LowerBound>0</LowerBound>
					<UpperBound>4000</UpperBound>
					<value>-91445760000000000,100.,0,0,0,0,0,0</value>
					</parameter>
					<parameter authoringApp="PremierePro">
					<parameterid>8</parameterid>
					<name></name>
					<IsTimeVarying>false</IsTimeVarying>
					<ParameterControlType>2</ParameterControlType>
					<LowerBound>0</LowerBound>
					<UpperBound>100</UpperBound>
					<value>-91445760000000000,100.,0,0,0,0,0,0</value>
					</parameter>
					</effect>
					</filter>
					<logginginfo>
					<description></description>
					<scene></scene>
					<shottake></shottake>
					<lognote></lognote>
					<good></good>
					<originalvideofilename></originalvideofilename>
					<originalaudiofilename></originalaudiofilename>
					</logginginfo>
					<colorinfo>
					<lut></lut>
					<lut1></lut1>
					<asc_sop></asc_sop>
					<asc_sat></asc_sat>
					<lut2></lut2>
					</colorinfo>
					<labels>
					</labels>
					</clipitem>
					<clipitem frameBlend="FALSE" id="clipitem-231">
					<masterclipid>masterclip-151</masterclipid>
					<name></name>
					<enabled>TRUE</enabled>
					<duration>2582774</duration>
					<rate>
					
					                                    <timebase>60</timebase>
					                                    <ntsc>TRUE</ntsc>
					                                
					</rate>
					<start>1019</start>
					<end>1079</end>
					<in>1019</in>
					<out>1079</out>
					<pproTicksIn>914456774963789</pproTicksIn>
					<pproTicksOut>914677708529577</pproTicksOut>
					<alphatype>straight</alphatype>
					<pixelaspectratio>square</pixelaspectratio>
					<anamorphic>FALSE</anamorphic>
					<file id="file-150">
					<name></name>
					<mediaSource>GraphicAndType</mediaSource>
					<rate>
					<timebase>60</timebase>
					<ntsc>TRUE</ntsc>
					</rate>
					<timecode>
					<rate>
					<timebase>60</timebase>
					<ntsc>TRUE</ntsc>
					</rate>
					<string>00:00:00:00</string>
					<frame>0</frame>
					<displayformat>NDF</displayformat>
					</timecode>
					<media>
					<video>
					<samplecharacteristics>
					<rate>
					<timebase>60</timebase>
					<ntsc>TRUE</ntsc>
					</rate>
					<width>1080</width>
					<height>1920</height>
					<anamorphic>FALSE</anamorphic>
					<pixelaspectratio>square</pixelaspectratio>
					<fielddominance>none</fielddominance>
					</samplecharacteristics>
					</video>
					</media>
					</file>
					<filter>
					<effect>
					<name></name>
					<effectid>GraphicAndType</effectid>
					<effectcategory>graphic</effectcategory>
					<effecttype>filter</effecttype>
					<mediatype>video</mediatype>
					<pproBypass>false</pproBypass>
					<parameter authoringApp="PremierePro">
					<parameterid>1</parameterid>
					<name></name>
					<hash>025b1101-ead6-0ca2-1feb-caf3000001fc</hash>
					<value>5AEAAAAAAABEMyIRDAAAAAAABgAKAAQABgAAAGQAAAAAAF4ASAAQAAwARABAADwAOAAAAAAAAAAAADQAMwAsAAAAKAAkACAAAAAAAAAAAAAAAAAAHAAAAAAAGgAAAAAAAAAUAAAAAAAAAAAAAAAAAAAAAAAAAAgAAAAAABsABwBeAAAAAAAAAUAAAABQAAAAbAAAAAIAAAAAAAEAAQAAAAAAQEEAAMBAAABAQAAAyEIAAAABIAAAAAIAAAACAAAAAAA2QwCASkTw/v//9P7///j+//8S////AAAAAAEAAAAEAAAAEQAAAEhHUFNvZWlLYWt1cG9wdGFpAAAAAQAAAAwAAAAIAAwABAAIAAgAAAAIAAAAUAAAAA8AAADvvIEAAAAAAAAAAAAAAAAAAAA2ACQAAAAgABwAAAAAABsAFAAAAAAAAAAAAAAAAAAAAAAAAAAAABAAAAAAAAAADAAAAAgABAA2AAAAAgAAABwAAAAcAAAAHAAAAAAAIEEAAAABaAAAAE3PAEOw////tP///wEAAAAUAAAAEAAaAAgABwAMAAAAEAAUABAAAAAAAAABHAAAAAAAoEEcAAAAAgAAAAAACgAIAAUABgAHAAoAAAAADAD//P///wQABAAEAAAACAAIAAYABwAIAAAAAAAMAA==</value>
					</parameter>
					<parameter authoringApp="PremierePro">
					<parameterid>2</parameterid>
					<name></name>
					<IsTimeVarying>false</IsTimeVarying>
					<ParameterControlType>11</ParameterControlType>
					<LowerBound>false</LowerBound>
					<UpperBound>false</UpperBound>
					<value>-91445760000000000,false,0,0,0,0,0,0</value>
					</parameter>
					<parameter authoringApp="PremierePro">
					<parameterid>3</parameterid>
					<name></name>
					<IsTimeVarying>false</IsTimeVarying>
					<value>-91445760000000000,0.5:0.5,0,0,0,0,0,0,5,4,0,0,0,0</value>
					</parameter>
					<parameter authoringApp="PremierePro">
					<parameterid>4</parameterid>
					<name></name>
					<IsTimeVarying>false</IsTimeVarying>
					<ParameterControlType>2</ParameterControlType>
					<LowerBound>0</LowerBound>
					<UpperBound>4000</UpperBound>
					<value>-91445760000000000,100.,0,0,0,0,0,0</value>
					</parameter>
					<parameter authoringApp="PremierePro">
					<parameterid>8</parameterid>
					<name></name>
					<IsTimeVarying>false</IsTimeVarying>
					<ParameterControlType>2</ParameterControlType>
					<LowerBound>0</LowerBound>
					<UpperBound>100</UpperBound>
					<value>-91445760000000000,100.,0,0,0,0,0,0</value>
					</parameter>
					</effect>
					</filter>
					<logginginfo>
					<description></description>
					<scene></scene>
					<shottake></shottake>
					<lognote></lognote>
					<good></good>
					<originalvideofilename></originalvideofilename>
					<originalaudiofilename></originalaudiofilename>
					</logginginfo>
					<colorinfo>
					<lut></lut>
					<lut1></lut1>
					<asc_sop></asc_sop>
					<asc_sat></asc_sat>
					<lut2></lut2>
					</colorinfo>
					<labels>
					</labels>
					</clipitem>
					<clipitem id="clipitem-239"/>
					                        </track>
					                        <track TL.SQTrackShy="0" TL.SQTrackExpandedHeight="25" TL.SQTrackExpanded="0" MZ.TrackTargeted="0">
					<clipitem frameBlend="FALSE" id="clipitem-240">
					<masterclipid>masterclip-160</masterclipid>
					<name></name>
					<enabled>TRUE</enabled>
					<duration>2582774</duration>
					<rate>
					
					                                    <timebase>60</timebase>
					                                    <ntsc>TRUE</ntsc>
					                                
					</rate>
					<start>1085</start>
					<end>1145</end>
					<in>1085</in>
					<out>1145</out>
					<pproTicksIn>914456774963789</pproTicksIn>
					<pproTicksOut>914677708529577</pproTicksOut>
					<alphatype>straight</alphatype>
					<pixelaspectratio>square</pixelaspectratio>
					<anamorphic>FALSE</anamorphic>
					<file id="file-159">
					<name></name>
					<mediaSource>GraphicAndType</mediaSource>
					<rate>
					<timebase>60</timebase>
					<ntsc>TRUE</ntsc>
					</rate>
					<timecode>
					<rate>
					<timebase>60</timebase>
					<ntsc>TRUE</ntsc>
					</rate>
					<string>00:00:00:00</string>
					<frame>0</frame>
					<displayformat>NDF</displayformat>
					</timecode>
					<media>
					<video>
					<samplecharacteristics>
					<rate>
					<timebase>60</timebase>
					<ntsc>TRUE</ntsc>
					</rate>
					<width>1080</width>
					<height>1920</height>
					<anamorphic>FALSE</anamorphic>
					<pixelaspectratio>square</pixelaspectratio>
					<fielddominance>none</fielddominance>
					</samplecharacteristics>
					</video>
					</media>
					</file>
					<filter>
					<effect>
					<name></name>
					<effectid>GraphicAndType</effectid>
					<effectcategory>graphic</effectcategory>
					<effecttype>filter</effecttype>
					<mediatype>video</mediatype>
					<pproBypass>false</pproBypass>
					<parameter authoringApp="PremierePro">
					<parameterid>1</parameterid>
					<name></name>
					<hash>025b1101-ead6-0ca2-1feb-caf3000001fc</hash>
					<value>5AEAAAAAAABEMyIRDAAAAAAABgAKAAQABgAAAGQAAAAAAF4ASAAQAAwARABAADwAOAAAAAAAAAAAADQAMwAsAAAAKAAkACAAAAAAAAAAAAAAAAAAHAAAAAAAGgAAAAAAAAAUAAAAAAAAAAAAAAAAAAAAAAAAAAgAAAAAABsABwBeAAAAAAAAAUAAAABQAAAAbAAAAAIAAAAAAAEAAQAAAAAAQEEAAMBAAABAQAAAyEIAAAABIAAAAAIAAAACAAAAAAA2QwCASkTw/v//9P7///j+//8S////AAAAAAEAAAAEAAAAEQAAAEhHUFNvZWlLYWt1cG9wdGFpAAAAAQAAAAwAAAAIAAwABAAIAAgAAAAIAAAAUAAAAA8AAADvvIEAAAAAAAAAAAAAAAAAAAA2ACQAAAAgABwAAAAAABsAFAAAAAAAAAAAAAAAAAAAAAAAAAAAABAAAAAAAAAADAAAAAgABAA2AAAAAgAAABwAAAAcAAAAHAAAAAAAIEEAAAABaAAAAE3PAEOw////tP///wEAAAAUAAAAEAAaAAgABwAMAAAAEAAUABAAAAAAAAABHAAAAAAAoEEcAAAAAgAAAAAACgAIAAUABgAHAAoAAAAADAD//P///wQABAAEAAAACAAIAAYABwAIAAAAAAAMAA==</value>
					</parameter>
					<parameter authoringApp="PremierePro">
					<parameterid>2</parameterid>
					<name></name>
					<IsTimeVarying>false</IsTimeVarying>
					<ParameterControlType>11</ParameterControlType>
					<LowerBound>false</LowerBound>
					<UpperBound>false</UpperBound>
					<value>-91445760000000000,false,0,0,0,0,0,0</value>
					</parameter>
					<parameter authoringApp="PremierePro">
					<parameterid>3</parameterid>
					<name></name>
					<IsTimeVarying>false</IsTimeVarying>
					<value>-91445760000000000,0.5:0.5,0,0,0,0,0,0,5,4,0,0,0,0</value>
					</parameter>
					<parameter authoringApp="PremierePro">
					<parameterid>4</parameterid>
					<name></name>
					<IsTimeVarying>false</IsTimeVarying>
					<ParameterControlType>2</ParameterControlType>
					<LowerBound>0</LowerBound>
					<UpperBound>4000</UpperBound>
					<value>-91445760000000000,100.,0,0,0,0,0,0</value>
					</parameter>
					<parameter authoringApp="PremierePro">
					<parameterid>8</parameterid>
					<name></name>
					<IsTimeVarying>false</IsTimeVarying>
					<ParameterControlType>2</ParameterControlType>
					<LowerBound>0</LowerBound>
					<UpperBound>100</UpperBound>
					<value>-91445760000000000,100.,0,0,0,0,0,0</value>
					</parameter>
					</effect>
					</filter>
					<logginginfo>
					<description></description>
					<scene></scene>
					<shottake></shottake>
					<lognote></lognote>
					<good></good>
					<originalvideofilename></originalvideofilename>
					<originalaudiofilename></originalaudiofilename>
					</logginginfo>
					<colorinfo>
					<lut></lut>
					<lut1></lut1>
					<asc_sop></asc_sop>
					<asc_sat></asc_sat>
					<lut2></lut2>
					</colorinfo>
					<labels>
					</labels>
					</clipitem>
					<clipitem frameBlend="FALSE" id="clipitem-246">
					<masterclipid>masterclip-166</masterclipid>
					<name></name>
					<enabled>TRUE</enabled>
					<duration>2582774</duration>
					<rate>
					
					                                    <timebase>60</timebase>
					                                    <ntsc>TRUE</ntsc>
					                                
					</rate>
					<start>1169</start>
					<end>1235</end>
					<in>1169</in>
					<out>1235</out>
					<pproTicksIn>914456774963789</pproTicksIn>
					<pproTicksOut>914677708529577</pproTicksOut>
					<alphatype>straight</alphatype>
					<pixelaspectratio>square</pixelaspectratio>
					<anamorphic>FALSE</anamorphic>
					<file id="file-165">
					<name></name>
					<mediaSource>GraphicAndType</mediaSource>
					<rate>
					<timebase>60</timebase>
					<ntsc>TRUE</ntsc>
					</rate>
					<timecode>
					<rate>
					<timebase>60</timebase>
					<ntsc>TRUE</ntsc>
					</rate>
					<string>00:00:00:00</string>
					<frame>0</frame>
					<displayformat>NDF</displayformat>
					</timecode>
					<media>
					<video>
					<samplecharacteristics>
					<rate>
					<timebase>60</timebase>
					<ntsc>TRUE</ntsc>
					</rate>
					<width>1080</width>
					<height>1920</height>
					<anamorphic>FALSE</anamorphic>
					<pixelaspectratio>square</pixelaspectratio>
					<fielddominance>none</fielddominance>
					</samplecharacteristics>
					</video>
					</media>
					</file>
					<filter>
					<effect>
					<name></name>
					<effectid>GraphicAndType</effectid>
					<effectcategory>graphic</effectcategory>
					<effecttype>filter</effecttype>
					<mediatype>video</mediatype>
					<pproBypass>false</pproBypass>
					<parameter authoringApp="PremierePro">
					<parameterid>1</parameterid>
					<name></name>
					<hash>025b1101-ead6-0ca2-1feb-caf3000001fc</hash>
					<value>5AEAAAAAAABEMyIRDAAAAAAABgAKAAQABgAAAGQAAAAAAF4ASAAQAAwARABAADwAOAAAAAAAAAAAADQAMwAsAAAAKAAkACAAAAAAAAAAAAAAAAAAHAAAAAAAGgAAAAAAAAAUAAAAAAAAAAAAAAAAAAAAAAAAAAgAAAAAABsABwBeAAAAAAAAAUAAAABQAAAAbAAAAAIAAAAAAAEAAQAAAAAAQEEAAMBAAABAQAAAyEIAAAABIAAAAAIAAAACAAAAAAA2QwCASkTw/v//9P7///j+//8S////AAAAAAEAAAAEAAAAEQAAAEhHUFNvZWlLYWt1cG9wdGFpAAAAAQAAAAwAAAAIAAwABAAIAAgAAAAIAAAAUAAAAA8AAADvvIEAAAAAAAAAAAAAAAAAAAA2ACQAAAAgABwAAAAAABsAFAAAAAAAAAAAAAAAAAAAAAAAAAAAABAAAAAAAAAADAAAAAgABAA2AAAAAgAAABwAAAAcAAAAHAAAAAAAIEEAAAABaAAAAE3PAEOw////tP///wEAAAAUAAAAEAAaAAgABwAMAAAAEAAUABAAAAAAAAABHAAAAAAAoEEcAAAAAgAAAAAACgAIAAUABgAHAAoAAAAADAD//P///wQABAAEAAAACAAIAAYABwAIAAAAAAAMAA==</value>
					</parameter>
					<parameter authoringApp="PremierePro">
					<parameterid>2</parameterid>
					<name></name>
					<IsTimeVarying>false</IsTimeVarying>
					<ParameterControlType>11</ParameterControlType>
					<LowerBound>false</LowerBound>
					<UpperBound>false</UpperBound>
					<value>-91445760000000000,false,0,0,0,0,0,0</value>
					</parameter>
					<parameter authoringApp="PremierePro">
					<parameterid>3</parameterid>
					<name></name>
					<IsTimeVarying>false</IsTimeVarying>
					<value>-91445760000000000,0.5:0.5,0,0,0,0,0,0,5,4,0,0,0,0</value>
					</parameter>
					<parameter authoringApp="PremierePro">
					<parameterid>4</parameterid>
					<name></name>
					<IsTimeVarying>false</IsTimeVarying>
					<ParameterControlType>2</ParameterControlType>
					<LowerBound>0</LowerBound>
					<UpperBound>4000</UpperBound>
					<value>-91445760000000000,100.,0,0,0,0,0,0</value>
					</parameter>
					<parameter authoringApp="PremierePro">
					<parameterid>8</parameterid>
					<name></name>
					<IsTimeVarying>false</IsTimeVarying>
					<ParameterControlType>2</ParameterControlType>
					<LowerBound>0</LowerBound>
					<UpperBound>100</UpperBound>
					<value>-91445760000000000,100.,0,0,0,0,0,0</value>
					</parameter>
					</effect>
					</filter>
					<logginginfo>
					<description></description>
					<scene></scene>
					<shottake></shottake>
					<lognote></lognote>
					<good></good>
					<originalvideofilename></originalvideofilename>
					<originalaudiofilename></originalaudiofilename>
					</logginginfo>
					<colorinfo>
					<lut></lut>
					<lut1></lut1>
					<asc_sop></asc_sop>
					<asc_sat></asc_sat>
					<lut2></lut2>
					</colorinfo>
					<labels>
					</labels>
					</clipitem>
					<clipitem frameBlend="FALSE" id="clipitem-254">
					<masterclipid>masterclip-174</masterclipid>
					<name></name>
					<enabled>TRUE</enabled>
					<duration>2582774</duration>
					<rate>
					
					                                    <timebase>60</timebase>
					                                    <ntsc>TRUE</ntsc>
					                                
					</rate>
					<start>1259</start>
					<end>1319</end>
					<in>1259</in>
					<out>1319</out>
					<pproTicksIn>914456774963789</pproTicksIn>
					<pproTicksOut>914677708529577</pproTicksOut>
					<alphatype>straight</alphatype>
					<pixelaspectratio>square</pixelaspectratio>
					<anamorphic>FALSE</anamorphic>
					<file id="file-173">
					<name></name>
					<mediaSource>GraphicAndType</mediaSource>
					<rate>
					<timebase>60</timebase>
					<ntsc>TRUE</ntsc>
					</rate>
					<timecode>
					<rate>
					<timebase>60</timebase>
					<ntsc>TRUE</ntsc>
					</rate>
					<string>00:00:00:00</string>
					<frame>0</frame>
					<displayformat>NDF</displayformat>
					</timecode>
					<media>
					<video>
					<samplecharacteristics>
					<rate>
					<timebase>60</timebase>
					<ntsc>TRUE</ntsc>
					</rate>
					<width>1080</width>
					<height>1920</height>
					<anamorphic>FALSE</anamorphic>
					<pixelaspectratio>square</pixelaspectratio>
					<fielddominance>none</fielddominance>
					</samplecharacteristics>
					</video>
					</media>
					</file>
					<filter>
					<effect>
					<name></name>
					<effectid>GraphicAndType</effectid>
					<effectcategory>graphic</effectcategory>
					<effecttype>filter</effecttype>
					<mediatype>video</mediatype>
					<pproBypass>false</pproBypass>
					<parameter authoringApp="PremierePro">
					<parameterid>1</parameterid>
					<name></name>
					<hash>025b1101-ead6-0ca2-1feb-caf3000001fc</hash>
					<value>5AEAAAAAAABEMyIRDAAAAAAABgAKAAQABgAAAGQAAAAAAF4ASAAQAAwARABAADwAOAAAAAAAAAAAADQAMwAsAAAAKAAkACAAAAAAAAAAAAAAAAAAHAAAAAAAGgAAAAAAAAAUAAAAAAAAAAAAAAAAAAAAAAAAAAgAAAAAABsABwBeAAAAAAAAAUAAAABQAAAAbAAAAAIAAAAAAAEAAQAAAAAAQEEAAMBAAABAQAAAyEIAAAABIAAAAAIAAAACAAAAAAA2QwCASkTw/v//9P7///j+//8S////AAAAAAEAAAAEAAAAEQAAAEhHUFNvZWlLYWt1cG9wdGFpAAAAAQAAAAwAAAAIAAwABAAIAAgAAAAIAAAAUAAAAA8AAADvvIEAAAAAAAAAAAAAAAAAAAA2ACQAAAAgABwAAAAAABsAFAAAAAAAAAAAAAAAAAAAAAAAAAAAABAAAAAAAAAADAAAAAgABAA2AAAAAgAAABwAAAAcAAAAHAAAAAAAIEEAAAABaAAAAE3PAEOw////tP///wEAAAAUAAAAEAAaAAgABwAMAAAAEAAUABAAAAAAAAABHAAAAAAAoEEcAAAAAgAAAAAACgAIAAUABgAHAAoAAAAADAD//P///wQABAAEAAAACAAIAAYABwAIAAAAAAAMAA==</value>
					</parameter>
					<parameter authoringApp="PremierePro">
					<parameterid>2</parameterid>
					<name></name>
					<IsTimeVarying>false</IsTimeVarying>
					<ParameterControlType>11</ParameterControlType>
					<LowerBound>false</LowerBound>
					<UpperBound>false</UpperBound>
					<value>-91445760000000000,false,0,0,0,0,0,0</value>
					</parameter>
					<parameter authoringApp="PremierePro">
					<parameterid>3</parameterid>
					<name></name>
					<IsTimeVarying>false</IsTimeVarying>
					<value>-91445760000000000,0.5:0.5,0,0,0,0,0,0,5,4,0,0,0,0</value>
					</parameter>
					<parameter authoringApp="PremierePro">
					<parameterid>4</parameterid>
					<name></name>
					<IsTimeVarying>false</IsTimeVarying>
					<ParameterControlType>2</ParameterControlType>
					<LowerBound>0</LowerBound>
					<UpperBound>4000</UpperBound>
					<value>-91445760000000000,100.,0,0,0,0,0,0</value>
					</parameter>
					<parameter authoringApp="PremierePro">
					<parameterid>8</parameterid>
					<name></name>
					<IsTimeVarying>false</IsTimeVarying>
					<ParameterControlType>2</ParameterControlType>
					<LowerBound>0</LowerBound>
					<UpperBound>100</UpperBound>
					<value>-91445760000000000,100.,0,0,0,0,0,0</value>
					</parameter>
					</effect>
					</filter>
					<logginginfo>
					<description></description>
					<scene></scene>
					<shottake></shottake>
					<lognote></lognote>
					<good></good>
					<originalvideofilename></originalvideofilename>
					<originalaudiofilename></originalaudiofilename>
					</logginginfo>
					<colorinfo>
					<lut></lut>
					<lut1></lut1>
					<asc_sop></asc_sop>
					<asc_sat></asc_sat>
					<lut2></lut2>
					</colorinfo>
					<labels>
					</labels>
					</clipitem>
					<clipitem frameBlend="FALSE" id="clipitem-263">
					<masterclipid>masterclip-183</masterclipid>
					<name></name>
					<enabled>TRUE</enabled>
					<duration>2582774</duration>
					<rate>
					
					                                    <timebase>60</timebase>
					                                    <ntsc>TRUE</ntsc>
					                                
					</rate>
					<start>1355</start>
					<end>1415</end>
					<in>1355</in>
					<out>1415</out>
					<pproTicksIn>914456774963789</pproTicksIn>
					<pproTicksOut>914677708529577</pproTicksOut>
					<alphatype>straight</alphatype>
					<pixelaspectratio>square</pixelaspectratio>
					<anamorphic>FALSE</anamorphic>
					<file id="file-182">
					<name></name>
					<mediaSource>GraphicAndType</mediaSource>
					<rate>
					<timebase>60</timebase>
					<ntsc>TRUE</ntsc>
					</rate>
					<timecode>
					<rate>
					<timebase>60</timebase>
					<ntsc>TRUE</ntsc>
					</rate>
					<string>00:00:00:00</string>
					<frame>0</frame>
					<displayformat>NDF</displayformat>
					</timecode>
					<media>
					<video>
					<samplecharacteristics>
					<rate>
					<timebase>60</timebase>
					<ntsc>TRUE</ntsc>
					</rate>
					<width>1080</width>
					<height>1920</height>
					<anamorphic>FALSE</anamorphic>
					<pixelaspectratio>square</pixelaspectratio>
					<fielddominance>none</fielddominance>
					</samplecharacteristics>
					</video>
					</media>
					</file>
					<filter>
					<effect>
					<name></name>
					<effectid>GraphicAndType</effectid>
					<effectcategory>graphic</effectcategory>
					<effecttype>filter</effecttype>
					<mediatype>video</mediatype>
					<pproBypass>false</pproBypass>
					<parameter authoringApp="PremierePro">
					<parameterid>1</parameterid>
					<name></name>
					<hash>025b1101-ead6-0ca2-1feb-caf3000001fc</hash>
					<value>5AEAAAAAAABEMyIRDAAAAAAABgAKAAQABgAAAGQAAAAAAF4ASAAQAAwARABAADwAOAAAAAAAAAAAADQAMwAsAAAAKAAkACAAAAAAAAAAAAAAAAAAHAAAAAAAGgAAAAAAAAAUAAAAAAAAAAAAAAAAAAAAAAAAAAgAAAAAABsABwBeAAAAAAAAAUAAAABQAAAAbAAAAAIAAAAAAAEAAQAAAAAAQEEAAMBAAABAQAAAyEIAAAABIAAAAAIAAAACAAAAAAA2QwCASkTw/v//9P7///j+//8S////AAAAAAEAAAAEAAAAEQAAAEhHUFNvZWlLYWt1cG9wdGFpAAAAAQAAAAwAAAAIAAwABAAIAAgAAAAIAAAAUAAAAA8AAADvvIEAAAAAAAAAAAAAAAAAAAA2ACQAAAAgABwAAAAAABsAFAAAAAAAAAAAAAAAAAAAAAAAAAAAABAAAAAAAAAADAAAAAgABAA2AAAAAgAAABwAAAAcAAAAHAAAAAAAIEEAAAABaAAAAE3PAEOw////tP///wEAAAAUAAAAEAAaAAgABwAMAAAAEAAUABAAAAAAAAABHAAAAAAAoEEcAAAAAgAAAAAACgAIAAUABgAHAAoAAAAADAD//P///wQABAAEAAAACAAIAAYABwAIAAAAAAAMAA==</value>
					</parameter>
					<parameter authoringApp="PremierePro">
					<parameterid>2</parameterid>
					<name></name>
					<IsTimeVarying>false</IsTimeVarying>
					<ParameterControlType>11</ParameterControlType>
					<LowerBound>false</LowerBound>
					<UpperBound>false</UpperBound>
					<value>-91445760000000000,false,0,0,0,0,0,0</value>
					</parameter>
					<parameter authoringApp="PremierePro">
					<parameterid>3</parameterid>
					<name></name>
					<IsTimeVarying>false</IsTimeVarying>
					<value>-91445760000000000,0.5:0.5,0,0,0,0,0,0,5,4,0,0,0,0</value>
					</parameter>
					<parameter authoringApp="PremierePro">
					<parameterid>4</parameterid>
					<name></name>
					<IsTimeVarying>false</IsTimeVarying>
					<ParameterControlType>2</ParameterControlType>
					<LowerBound>0</LowerBound>
					<UpperBound>4000</UpperBound>
					<value>-91445760000000000,100.,0,0,0,0,0,0</value>
					</parameter>
					<parameter authoringApp="PremierePro">
					<parameterid>8</parameterid>
					<name></name>
					<IsTimeVarying>false</IsTimeVarying>
					<ParameterControlType>2</ParameterControlType>
					<LowerBound>0</LowerBound>
					<UpperBound>100</UpperBound>
					<value>-91445760000000000,100.,0,0,0,0,0,0</value>
					</parameter>
					</effect>
					</filter>
					<logginginfo>
					<description></description>
					<scene></scene>
					<shottake></shottake>
					<lognote></lognote>
					<good></good>
					<originalvideofilename></originalvideofilename>
					<originalaudiofilename></originalaudiofilename>
					</logginginfo>
					<colorinfo>
					<lut></lut>
					<lut1></lut1>
					<asc_sop></asc_sop>
					<asc_sat></asc_sat>
					<lut2></lut2>
					</colorinfo>
					<labels>
					</labels>
					</clipitem>
					<clipitem frameBlend="FALSE" id="clipitem-271">
					<masterclipid>masterclip-191</masterclipid>
					<name></name>
					<enabled>TRUE</enabled>
					<duration>2582774</duration>
					<rate>
					
					                                    <timebase>60</timebase>
					                                    <ntsc>TRUE</ntsc>
					                                
					</rate>
					<start>1421</start>
					<end>1481</end>
					<in>1421</in>
					<out>1481</out>
					<pproTicksIn>914456774963789</pproTicksIn>
					<pproTicksOut>914677708529577</pproTicksOut>
					<alphatype>straight</alphatype>
					<pixelaspectratio>square</pixelaspectratio>
					<anamorphic>FALSE</anamorphic>
					<file id="file-190">
					<name></name>
					<mediaSource>GraphicAndType</mediaSource>
					<rate>
					<timebase>60</timebase>
					<ntsc>TRUE</ntsc>
					</rate>
					<timecode>
					<rate>
					<timebase>60</timebase>
					<ntsc>TRUE</ntsc>
					</rate>
					<string>00:00:00:00</string>
					<frame>0</frame>
					<displayformat>NDF</displayformat>
					</timecode>
					<media>
					<video>
					<samplecharacteristics>
					<rate>
					<timebase>60</timebase>
					<ntsc>TRUE</ntsc>
					</rate>
					<width>1080</width>
					<height>1920</height>
					<anamorphic>FALSE</anamorphic>
					<pixelaspectratio>square</pixelaspectratio>
					<fielddominance>none</fielddominance>
					</samplecharacteristics>
					</video>
					</media>
					</file>
					<filter>
					<effect>
					<name></name>
					<effectid>GraphicAndType</effectid>
					<effectcategory>graphic</effectcategory>
					<effecttype>filter</effecttype>
					<mediatype>video</mediatype>
					<pproBypass>false</pproBypass>
					<parameter authoringApp="PremierePro">
					<parameterid>1</parameterid>
					<name></name>
					<hash>025b1101-ead6-0ca2-1feb-caf3000001fc</hash>
					<value>5AEAAAAAAABEMyIRDAAAAAAABgAKAAQABgAAAGQAAAAAAF4ASAAQAAwARABAADwAOAAAAAAAAAAAADQAMwAsAAAAKAAkACAAAAAAAAAAAAAAAAAAHAAAAAAAGgAAAAAAAAAUAAAAAAAAAAAAAAAAAAAAAAAAAAgAAAAAABsABwBeAAAAAAAAAUAAAABQAAAAbAAAAAIAAAAAAAEAAQAAAAAAQEEAAMBAAABAQAAAyEIAAAABIAAAAAIAAAACAAAAAAA2QwCASkTw/v//9P7///j+//8S////AAAAAAEAAAAEAAAAEQAAAEhHUFNvZWlLYWt1cG9wdGFpAAAAAQAAAAwAAAAIAAwABAAIAAgAAAAIAAAAUAAAAA8AAADvvIEAAAAAAAAAAAAAAAAAAAA2ACQAAAAgABwAAAAAABsAFAAAAAAAAAAAAAAAAAAAAAAAAAAAABAAAAAAAAAADAAAAAgABAA2AAAAAgAAABwAAAAcAAAAHAAAAAAAIEEAAAABaAAAAE3PAEOw////tP///wEAAAAUAAAAEAAaAAgABwAMAAAAEAAUABAAAAAAAAABHAAAAAAAoEEcAAAAAgAAAAAACgAIAAUABgAHAAoAAAAADAD//P///wQABAAEAAAACAAIAAYABwAIAAAAAAAMAA==</value>
					</parameter>
					<parameter authoringApp="PremierePro">
					<parameterid>2</parameterid>
					<name></name>
					<IsTimeVarying>false</IsTimeVarying>
					<ParameterControlType>11</ParameterControlType>
					<LowerBound>false</LowerBound>
					<UpperBound>false</UpperBound>
					<value>-91445760000000000,false,0,0,0,0,0,0</value>
					</parameter>
					<parameter authoringApp="PremierePro">
					<parameterid>3</parameterid>
					<name></name>
					<IsTimeVarying>false</IsTimeVarying>
					<value>-91445760000000000,0.5:0.5,0,0,0,0,0,0,5,4,0,0,0,0</value>
					</parameter>
					<parameter authoringApp="PremierePro">
					<parameterid>4</parameterid>
					<name></name>
					<IsTimeVarying>false</IsTimeVarying>
					<ParameterControlType>2</ParameterControlType>
					<LowerBound>0</LowerBound>
					<UpperBound>4000</UpperBound>
					<value>-91445760000000000,100.,0,0,0,0,0,0</value>
					</parameter>
					<parameter authoringApp="PremierePro">
					<parameterid>8</parameterid>
					<name></name>
					<IsTimeVarying>false</IsTimeVarying>
					<ParameterControlType>2</ParameterControlType>
					<LowerBound>0</LowerBound>
					<UpperBound>100</UpperBound>
					<value>-91445760000000000,100.,0,0,0,0,0,0</value>
					</parameter>
					</effect>
					</filter>
					<logginginfo>
					<description></description>
					<scene></scene>
					<shottake></shottake>
					<lognote></lognote>
					<good></good>
					<originalvideofilename></originalvideofilename>
					<originalaudiofilename></originalaudiofilename>
					</logginginfo>
					<colorinfo>
					<lut></lut>
					<lut1></lut1>
					<asc_sop></asc_sop>
					<asc_sat></asc_sat>
					<lut2></lut2>
					</colorinfo>
					<labels>
					</labels>
					</clipitem>
					<clipitem frameBlend="FALSE" id="clipitem-278">
					<masterclipid>masterclip-198</masterclipid>
					<name></name>
					<enabled>TRUE</enabled>
					<duration>2582774</duration>
					<rate>
					
					                                    <timebase>60</timebase>
					                                    <ntsc>TRUE</ntsc>
					                                
					</rate>
					<start>1499</start>
					<end>1559</end>
					<in>1499</in>
					<out>1559</out>
					<pproTicksIn>914456774963789</pproTicksIn>
					<pproTicksOut>914677708529577</pproTicksOut>
					<alphatype>straight</alphatype>
					<pixelaspectratio>square</pixelaspectratio>
					<anamorphic>FALSE</anamorphic>
					<file id="file-197">
					<name></name>
					<mediaSource>GraphicAndType</mediaSource>
					<rate>
					<timebase>60</timebase>
					<ntsc>TRUE</ntsc>
					</rate>
					<timecode>
					<rate>
					<timebase>60</timebase>
					<ntsc>TRUE</ntsc>
					</rate>
					<string>00:00:00:00</string>
					<frame>0</frame>
					<displayformat>NDF</displayformat>
					</timecode>
					<media>
					<video>
					<samplecharacteristics>
					<rate>
					<timebase>60</timebase>
					<ntsc>TRUE</ntsc>
					</rate>
					<width>1080</width>
					<height>1920</height>
					<anamorphic>FALSE</anamorphic>
					<pixelaspectratio>square</pixelaspectratio>
					<fielddominance>none</fielddominance>
					</samplecharacteristics>
					</video>
					</media>
					</file>
					<filter>
					<effect>
					<name></name>
					<effectid>GraphicAndType</effectid>
					<effectcategory>graphic</effectcategory>
					<effecttype>filter</effecttype>
					<mediatype>video</mediatype>
					<pproBypass>false</pproBypass>
					<parameter authoringApp="PremierePro">
					<parameterid>1</parameterid>
					<name></name>
					<hash>025b1101-ead6-0ca2-1feb-caf3000001fc</hash>
					<value>5AEAAAAAAABEMyIRDAAAAAAABgAKAAQABgAAAGQAAAAAAF4ASAAQAAwARABAADwAOAAAAAAAAAAAADQAMwAsAAAAKAAkACAAAAAAAAAAAAAAAAAAHAAAAAAAGgAAAAAAAAAUAAAAAAAAAAAAAAAAAAAAAAAAAAgAAAAAABsABwBeAAAAAAAAAUAAAABQAAAAbAAAAAIAAAAAAAEAAQAAAAAAQEEAAMBAAABAQAAAyEIAAAABIAAAAAIAAAACAAAAAAA2QwCASkTw/v//9P7///j+//8S////AAAAAAEAAAAEAAAAEQAAAEhHUFNvZWlLYWt1cG9wdGFpAAAAAQAAAAwAAAAIAAwABAAIAAgAAAAIAAAAUAAAAA8AAADvvIEAAAAAAAAAAAAAAAAAAAA2ACQAAAAgABwAAAAAABsAFAAAAAAAAAAAAAAAAAAAAAAAAAAAABAAAAAAAAAADAAAAAgABAA2AAAAAgAAABwAAAAcAAAAHAAAAAAAIEEAAAABaAAAAE3PAEOw////tP///wEAAAAUAAAAEAAaAAgABwAMAAAAEAAUABAAAAAAAAABHAAAAAAAoEEcAAAAAgAAAAAACgAIAAUABgAHAAoAAAAADAD//P///wQABAAEAAAACAAIAAYABwAIAAAAAAAMAA==</value>
					</parameter>
					<parameter authoringApp="PremierePro">
					<parameterid>2</parameterid>
					<name></name>
					<IsTimeVarying>false</IsTimeVarying>
					<ParameterControlType>11</ParameterControlType>
					<LowerBound>false</LowerBound>
					<UpperBound>false</UpperBound>
					<value>-91445760000000000,false,0,0,0,0,0,0</value>
					</parameter>
					<parameter authoringApp="PremierePro">
					<parameterid>3</parameterid>
					<name></name>
					<IsTimeVarying>false</IsTimeVarying>
					<value>-91445760000000000,0.5:0.5,0,0,0,0,0,0,5,4,0,0,0,0</value>
					</parameter>
					<parameter authoringApp="PremierePro">
					<parameterid>4</parameterid>
					<name></name>
					<IsTimeVarying>false</IsTimeVarying>
					<ParameterControlType>2</ParameterControlType>
					<LowerBound>0</LowerBound>
					<UpperBound>4000</UpperBound>
					<value>-91445760000000000,100.,0,0,0,0,0,0</value>
					</parameter>
					<parameter authoringApp="PremierePro">
					<parameterid>8</parameterid>
					<name></name>
					<IsTimeVarying>false</IsTimeVarying>
					<ParameterControlType>2</ParameterControlType>
					<LowerBound>0</LowerBound>
					<UpperBound>100</UpperBound>
					<value>-91445760000000000,100.,0,0,0,0,0,0</value>
					</parameter>
					</effect>
					</filter>
					<logginginfo>
					<description></description>
					<scene></scene>
					<shottake></shottake>
					<lognote></lognote>
					<good></good>
					<originalvideofilename></originalvideofilename>
					<originalaudiofilename></originalaudiofilename>
					</logginginfo>
					<colorinfo>
					<lut></lut>
					<lut1></lut1>
					<asc_sop></asc_sop>
					<asc_sat></asc_sat>
					<lut2></lut2>
					</colorinfo>
					<labels>
					</labels>
					</clipitem>
					<clipitem frameBlend="FALSE" id="clipitem-285">
					<masterclipid>masterclip-205</masterclipid>
					<name></name>
					<enabled>TRUE</enabled>
					<duration>2582774</duration>
					<rate>
					
					                                    <timebase>60</timebase>
					                                    <ntsc>TRUE</ntsc>
					                                
					</rate>
					<start>1559</start>
					<end>1619</end>
					<in>1559</in>
					<out>1619</out>
					<pproTicksIn>914456774963789</pproTicksIn>
					<pproTicksOut>914677708529577</pproTicksOut>
					<alphatype>straight</alphatype>
					<pixelaspectratio>square</pixelaspectratio>
					<anamorphic>FALSE</anamorphic>
					<file id="file-204">
					<name></name>
					<mediaSource>GraphicAndType</mediaSource>
					<rate>
					<timebase>60</timebase>
					<ntsc>TRUE</ntsc>
					</rate>
					<timecode>
					<rate>
					<timebase>60</timebase>
					<ntsc>TRUE</ntsc>
					</rate>
					<string>00:00:00:00</string>
					<frame>0</frame>
					<displayformat>NDF</displayformat>
					</timecode>
					<media>
					<video>
					<samplecharacteristics>
					<rate>
					<timebase>60</timebase>
					<ntsc>TRUE</ntsc>
					</rate>
					<width>1080</width>
					<height>1920</height>
					<anamorphic>FALSE</anamorphic>
					<pixelaspectratio>square</pixelaspectratio>
					<fielddominance>none</fielddominance>
					</samplecharacteristics>
					</video>
					</media>
					</file>
					<filter>
					<effect>
					<name></name>
					<effectid>GraphicAndType</effectid>
					<effectcategory>graphic</effectcategory>
					<effecttype>filter</effecttype>
					<mediatype>video</mediatype>
					<pproBypass>false</pproBypass>
					<parameter authoringApp="PremierePro">
					<parameterid>1</parameterid>
					<name></name>
					<hash>025b1101-ead6-0ca2-1feb-caf3000001fc</hash>
					<value>5AEAAAAAAABEMyIRDAAAAAAABgAKAAQABgAAAGQAAAAAAF4ASAAQAAwARABAADwAOAAAAAAAAAAAADQAMwAsAAAAKAAkACAAAAAAAAAAAAAAAAAAHAAAAAAAGgAAAAAAAAAUAAAAAAAAAAAAAAAAAAAAAAAAAAgAAAAAABsABwBeAAAAAAAAAUAAAABQAAAAbAAAAAIAAAAAAAEAAQAAAAAAQEEAAMBAAABAQAAAyEIAAAABIAAAAAIAAAACAAAAAAA2QwCASkTw/v//9P7///j+//8S////AAAAAAEAAAAEAAAAEQAAAEhHUFNvZWlLYWt1cG9wdGFpAAAAAQAAAAwAAAAIAAwABAAIAAgAAAAIAAAAUAAAAA8AAADvvIEAAAAAAAAAAAAAAAAAAAA2ACQAAAAgABwAAAAAABsAFAAAAAAAAAAAAAAAAAAAAAAAAAAAABAAAAAAAAAADAAAAAgABAA2AAAAAgAAABwAAAAcAAAAHAAAAAAAIEEAAAABaAAAAE3PAEOw////tP///wEAAAAUAAAAEAAaAAgABwAMAAAAEAAUABAAAAAAAAABHAAAAAAAoEEcAAAAAgAAAAAACgAIAAUABgAHAAoAAAAADAD//P///wQABAAEAAAACAAIAAYABwAIAAAAAAAMAA==</value>
					</parameter>
					<parameter authoringApp="PremierePro">
					<parameterid>2</parameterid>
					<name></name>
					<IsTimeVarying>false</IsTimeVarying>
					<ParameterControlType>11</ParameterControlType>
					<LowerBound>false</LowerBound>
					<UpperBound>false</UpperBound>
					<value>-91445760000000000,false,0,0,0,0,0,0</value>
					</parameter>
					<parameter authoringApp="PremierePro">
					<parameterid>3</parameterid>
					<name></name>
					<IsTimeVarying>false</IsTimeVarying>
					<value>-91445760000000000,0.5:0.5,0,0,0,0,0,0,5,4,0,0,0,0</value>
					</parameter>
					<parameter authoringApp="PremierePro">
					<parameterid>4</parameterid>
					<name></name>
					<IsTimeVarying>false</IsTimeVarying>
					<ParameterControlType>2</ParameterControlType>
					<LowerBound>0</LowerBound>
					<UpperBound>4000</UpperBound>
					<value>-91445760000000000,100.,0,0,0,0,0,0</value>
					</parameter>
					<parameter authoringApp="PremierePro">
					<parameterid>8</parameterid>
					<name></name>
					<IsTimeVarying>false</IsTimeVarying>
					<ParameterControlType>2</ParameterControlType>
					<LowerBound>0</LowerBound>
					<UpperBound>100</UpperBound>
					<value>-91445760000000000,100.,0,0,0,0,0,0</value>
					</parameter>
					</effect>
					</filter>
					<logginginfo>
					<description></description>
					<scene></scene>
					<shottake></shottake>
					<lognote></lognote>
					<good></good>
					<originalvideofilename></originalvideofilename>
					<originalaudiofilename></originalaudiofilename>
					</logginginfo>
					<colorinfo>
					<lut></lut>
					<lut1></lut1>
					<asc_sop></asc_sop>
					<asc_sat></asc_sat>
					<lut2></lut2>
					</colorinfo>
					<labels>
					</labels>
					</clipitem>
					<clipitem frameBlend="FALSE" id="clipitem-291">
					<masterclipid>masterclip-211</masterclipid>
					<name></name>
					<enabled>TRUE</enabled>
					<duration>2582774</duration>
					<rate>
					
					                                    <timebase>60</timebase>
					                                    <ntsc>TRUE</ntsc>
					                                
					</rate>
					<start>1619</start>
					<end>1679</end>
					<in>1619</in>
					<out>1679</out>
					<pproTicksIn>914456774963789</pproTicksIn>
					<pproTicksOut>914677708529577</pproTicksOut>
					<alphatype>straight</alphatype>
					<pixelaspectratio>square</pixelaspectratio>
					<anamorphic>FALSE</anamorphic>
					<file id="file-210">
					<name></name>
					<mediaSource>GraphicAndType</mediaSource>
					<rate>
					<timebase>60</timebase>
					<ntsc>TRUE</ntsc>
					</rate>
					<timecode>
					<rate>
					<timebase>60</timebase>
					<ntsc>TRUE</ntsc>
					</rate>
					<string>00:00:00:00</string>
					<frame>0</frame>
					<displayformat>NDF</displayformat>
					</timecode>
					<media>
					<video>
					<samplecharacteristics>
					<rate>
					<timebase>60</timebase>
					<ntsc>TRUE</ntsc>
					</rate>
					<width>1080</width>
					<height>1920</height>
					<anamorphic>FALSE</anamorphic>
					<pixelaspectratio>square</pixelaspectratio>
					<fielddominance>none</fielddominance>
					</samplecharacteristics>
					</video>
					</media>
					</file>
					<filter>
					<effect>
					<name></name>
					<effectid>GraphicAndType</effectid>
					<effectcategory>graphic</effectcategory>
					<effecttype>filter</effecttype>
					<mediatype>video</mediatype>
					<pproBypass>false</pproBypass>
					<parameter authoringApp="PremierePro">
					<parameterid>1</parameterid>
					<name></name>
					<hash>025b1101-ead6-0ca2-1feb-caf3000001fc</hash>
					<value>5AEAAAAAAABEMyIRDAAAAAAABgAKAAQABgAAAGQAAAAAAF4ASAAQAAwARABAADwAOAAAAAAAAAAAADQAMwAsAAAAKAAkACAAAAAAAAAAAAAAAAAAHAAAAAAAGgAAAAAAAAAUAAAAAAAAAAAAAAAAAAAAAAAAAAgAAAAAABsABwBeAAAAAAAAAUAAAABQAAAAbAAAAAIAAAAAAAEAAQAAAAAAQEEAAMBAAABAQAAAyEIAAAABIAAAAAIAAAACAAAAAAA2QwCASkTw/v//9P7///j+//8S////AAAAAAEAAAAEAAAAEQAAAEhHUFNvZWlLYWt1cG9wdGFpAAAAAQAAAAwAAAAIAAwABAAIAAgAAAAIAAAAUAAAAA8AAADvvIEAAAAAAAAAAAAAAAAAAAA2ACQAAAAgABwAAAAAABsAFAAAAAAAAAAAAAAAAAAAAAAAAAAAABAAAAAAAAAADAAAAAgABAA2AAAAAgAAABwAAAAcAAAAHAAAAAAAIEEAAAABaAAAAE3PAEOw////tP///wEAAAAUAAAAEAAaAAgABwAMAAAAEAAUABAAAAAAAAABHAAAAAAAoEEcAAAAAgAAAAAACgAIAAUABgAHAAoAAAAADAD//P///wQABAAEAAAACAAIAAYABwAIAAAAAAAMAA==</value>
					</parameter>
					<parameter authoringApp="PremierePro">
					<parameterid>2</parameterid>
					<name></name>
					<IsTimeVarying>false</IsTimeVarying>
					<ParameterControlType>11</ParameterControlType>
					<LowerBound>false</LowerBound>
					<UpperBound>false</UpperBound>
					<value>-91445760000000000,false,0,0,0,0,0,0</value>
					</parameter>
					<parameter authoringApp="PremierePro">
					<parameterid>3</parameterid>
					<name></name>
					<IsTimeVarying>false</IsTimeVarying>
					<value>-91445760000000000,0.5:0.5,0,0,0,0,0,0,5,4,0,0,0,0</value>
					</parameter>
					<parameter authoringApp="PremierePro">
					<parameterid>4</parameterid>
					<name></name>
					<IsTimeVarying>false</IsTimeVarying>
					<ParameterControlType>2</ParameterControlType>
					<LowerBound>0</LowerBound>
					<UpperBound>4000</UpperBound>
					<value>-91445760000000000,100.,0,0,0,0,0,0</value>
					</parameter>
					<parameter authoringApp="PremierePro">
					<parameterid>8</parameterid>
					<name></name>
					<IsTimeVarying>false</IsTimeVarying>
					<ParameterControlType>2</ParameterControlType>
					<LowerBound>0</LowerBound>
					<UpperBound>100</UpperBound>
					<value>-91445760000000000,100.,0,0,0,0,0,0</value>
					</parameter>
					</effect>
					</filter>
					<logginginfo>
					<description></description>
					<scene></scene>
					<shottake></shottake>
					<lognote></lognote>
					<good></good>
					<originalvideofilename></originalvideofilename>
					<originalaudiofilename></originalaudiofilename>
					</logginginfo>
					<colorinfo>
					<lut></lut>
					<lut1></lut1>
					<asc_sop></asc_sop>
					<asc_sat></asc_sat>
					<lut2></lut2>
					</colorinfo>
					<labels>
					</labels>
					</clipitem>
					<clipitem frameBlend="FALSE" id="clipitem-297">
					<masterclipid>masterclip-217</masterclipid>
					<name></name>
					<enabled>TRUE</enabled>
					<duration>2582774</duration>
					<rate>
					
					                                    <timebase>60</timebase>
					                                    <ntsc>TRUE</ntsc>
					                                
					</rate>
					<start>1685</start>
					<end>1745</end>
					<in>1685</in>
					<out>1745</out>
					<pproTicksIn>914456774963789</pproTicksIn>
					<pproTicksOut>914677708529577</pproTicksOut>
					<alphatype>straight</alphatype>
					<pixelaspectratio>square</pixelaspectratio>
					<anamorphic>FALSE</anamorphic>
					<file id="file-216">
					<name></name>
					<mediaSource>GraphicAndType</mediaSource>
					<rate>
					<timebase>60</timebase>
					<ntsc>TRUE</ntsc>
					</rate>
					<timecode>
					<rate>
					<timebase>60</timebase>
					<ntsc>TRUE</ntsc>
					</rate>
					<string>00:00:00:00</string>
					<frame>0</frame>
					<displayformat>NDF</displayformat>
					</timecode>
					<media>
					<video>
					<samplecharacteristics>
					<rate>
					<timebase>60</timebase>
					<ntsc>TRUE</ntsc>
					</rate>
					<width>1080</width>
					<height>1920</height>
					<anamorphic>FALSE</anamorphic>
					<pixelaspectratio>square</pixelaspectratio>
					<fielddominance>none</fielddominance>
					</samplecharacteristics>
					</video>
					</media>
					</file>
					<filter>
					<effect>
					<name></name>
					<effectid>GraphicAndType</effectid>
					<effectcategory>graphic</effectcategory>
					<effecttype>filter</effecttype>
					<mediatype>video</mediatype>
					<pproBypass>false</pproBypass>
					<parameter authoringApp="PremierePro">
					<parameterid>1</parameterid>
					<name></name>
					<hash>025b1101-ead6-0ca2-1feb-caf3000001fc</hash>
					<value>5AEAAAAAAABEMyIRDAAAAAAABgAKAAQABgAAAGQAAAAAAF4ASAAQAAwARABAADwAOAAAAAAAAAAAADQAMwAsAAAAKAAkACAAAAAAAAAAAAAAAAAAHAAAAAAAGgAAAAAAAAAUAAAAAAAAAAAAAAAAAAAAAAAAAAgAAAAAABsABwBeAAAAAAAAAUAAAABQAAAAbAAAAAIAAAAAAAEAAQAAAAAAQEEAAMBAAABAQAAAyEIAAAABIAAAAAIAAAACAAAAAAA2QwCASkTw/v//9P7///j+//8S////AAAAAAEAAAAEAAAAEQAAAEhHUFNvZWlLYWt1cG9wdGFpAAAAAQAAAAwAAAAIAAwABAAIAAgAAAAIAAAAUAAAAA8AAADvvIEAAAAAAAAAAAAAAAAAAAA2ACQAAAAgABwAAAAAABsAFAAAAAAAAAAAAAAAAAAAAAAAAAAAABAAAAAAAAAADAAAAAgABAA2AAAAAgAAABwAAAAcAAAAHAAAAAAAIEEAAAABaAAAAE3PAEOw////tP///wEAAAAUAAAAEAAaAAgABwAMAAAAEAAUABAAAAAAAAABHAAAAAAAoEEcAAAAAgAAAAAACgAIAAUABgAHAAoAAAAADAD//P///wQABAAEAAAACAAIAAYABwAIAAAAAAAMAA==</value>
					</parameter>
					<parameter authoringApp="PremierePro">
					<parameterid>2</parameterid>
					<name></name>
					<IsTimeVarying>false</IsTimeVarying>
					<ParameterControlType>11</ParameterControlType>
					<LowerBound>false</LowerBound>
					<UpperBound>false</UpperBound>
					<value>-91445760000000000,false,0,0,0,0,0,0</value>
					</parameter>
					<parameter authoringApp="PremierePro">
					<parameterid>3</parameterid>
					<name></name>
					<IsTimeVarying>false</IsTimeVarying>
					<value>-91445760000000000,0.5:0.5,0,0,0,0,0,0,5,4,0,0,0,0</value>
					</parameter>
					<parameter authoringApp="PremierePro">
					<parameterid>4</parameterid>
					<name></name>
					<IsTimeVarying>false</IsTimeVarying>
					<ParameterControlType>2</ParameterControlType>
					<LowerBound>0</LowerBound>
					<UpperBound>4000</UpperBound>
					<value>-91445760000000000,100.,0,0,0,0,0,0</value>
					</parameter>
					<parameter authoringApp="PremierePro">
					<parameterid>8</parameterid>
					<name></name>
					<IsTimeVarying>false</IsTimeVarying>
					<ParameterControlType>2</ParameterControlType>
					<LowerBound>0</LowerBound>
					<UpperBound>100</UpperBound>
					<value>-91445760000000000,100.,0,0,0,0,0,0</value>
					</parameter>
					</effect>
					</filter>
					<logginginfo>
					<description></description>
					<scene></scene>
					<shottake></shottake>
					<lognote></lognote>
					<good></good>
					<originalvideofilename></originalvideofilename>
					<originalaudiofilename></originalaudiofilename>
					</logginginfo>
					<colorinfo>
					<lut></lut>
					<lut1></lut1>
					<asc_sop></asc_sop>
					<asc_sat></asc_sat>
					<lut2></lut2>
					</colorinfo>
					<labels>
					</labels>
					</clipitem>
					<clipitem frameBlend="FALSE" id="clipitem-304">
					<masterclipid>masterclip-224</masterclipid>
					<name></name>
					<enabled>TRUE</enabled>
					<duration>2582774</duration>
					<rate>
					
					                                    <timebase>60</timebase>
					                                    <ntsc>TRUE</ntsc>
					                                
					</rate>
					<start>1751</start>
					<end>1811</end>
					<in>1751</in>
					<out>1811</out>
					<pproTicksIn>914456774963789</pproTicksIn>
					<pproTicksOut>914677708529577</pproTicksOut>
					<alphatype>straight</alphatype>
					<pixelaspectratio>square</pixelaspectratio>
					<anamorphic>FALSE</anamorphic>
					<file id="file-223">
					<name></name>
					<mediaSource>GraphicAndType</mediaSource>
					<rate>
					<timebase>60</timebase>
					<ntsc>TRUE</ntsc>
					</rate>
					<timecode>
					<rate>
					<timebase>60</timebase>
					<ntsc>TRUE</ntsc>
					</rate>
					<string>00:00:00:00</string>
					<frame>0</frame>
					<displayformat>NDF</displayformat>
					</timecode>
					<media>
					<video>
					<samplecharacteristics>
					<rate>
					<timebase>60</timebase>
					<ntsc>TRUE</ntsc>
					</rate>
					<width>1080</width>
					<height>1920</height>
					<anamorphic>FALSE</anamorphic>
					<pixelaspectratio>square</pixelaspectratio>
					<fielddominance>none</fielddominance>
					</samplecharacteristics>
					</video>
					</media>
					</file>
					<filter>
					<effect>
					<name></name>
					<effectid>GraphicAndType</effectid>
					<effectcategory>graphic</effectcategory>
					<effecttype>filter</effecttype>
					<mediatype>video</mediatype>
					<pproBypass>false</pproBypass>
					<parameter authoringApp="PremierePro">
					<parameterid>1</parameterid>
					<name></name>
					<hash>025b1101-ead6-0ca2-1feb-caf3000001fc</hash>
					<value>5AEAAAAAAABEMyIRDAAAAAAABgAKAAQABgAAAGQAAAAAAF4ASAAQAAwARABAADwAOAAAAAAAAAAAADQAMwAsAAAAKAAkACAAAAAAAAAAAAAAAAAAHAAAAAAAGgAAAAAAAAAUAAAAAAAAAAAAAAAAAAAAAAAAAAgAAAAAABsABwBeAAAAAAAAAUAAAABQAAAAbAAAAAIAAAAAAAEAAQAAAAAAQEEAAMBAAABAQAAAyEIAAAABIAAAAAIAAAACAAAAAAA2QwCASkTw/v//9P7///j+//8S////AAAAAAEAAAAEAAAAEQAAAEhHUFNvZWlLYWt1cG9wdGFpAAAAAQAAAAwAAAAIAAwABAAIAAgAAAAIAAAAUAAAAA8AAADvvIEAAAAAAAAAAAAAAAAAAAA2ACQAAAAgABwAAAAAABsAFAAAAAAAAAAAAAAAAAAAAAAAAAAAABAAAAAAAAAADAAAAAgABAA2AAAAAgAAABwAAAAcAAAAHAAAAAAAIEEAAAABaAAAAE3PAEOw////tP///wEAAAAUAAAAEAAaAAgABwAMAAAAEAAUABAAAAAAAAABHAAAAAAAoEEcAAAAAgAAAAAACgAIAAUABgAHAAoAAAAADAD//P///wQABAAEAAAACAAIAAYABwAIAAAAAAAMAA==</value>
					</parameter>
					<parameter authoringApp="PremierePro">
					<parameterid>2</parameterid>
					<name></name>
					<IsTimeVarying>false</IsTimeVarying>
					<ParameterControlType>11</ParameterControlType>
					<LowerBound>false</LowerBound>
					<UpperBound>false</UpperBound>
					<value>-91445760000000000,false,0,0,0,0,0,0</value>
					</parameter>
					<parameter authoringApp="PremierePro">
					<parameterid>3</parameterid>
					<name></name>
					<IsTimeVarying>false</IsTimeVarying>
					<value>-91445760000000000,0.5:0.5,0,0,0,0,0,0,5,4,0,0,0,0</value>
					</parameter>
					<parameter authoringApp="PremierePro">
					<parameterid>4</parameterid>
					<name></name>
					<IsTimeVarying>false</IsTimeVarying>
					<ParameterControlType>2</ParameterControlType>
					<LowerBound>0</LowerBound>
					<UpperBound>4000</UpperBound>
					<value>-91445760000000000,100.,0,0,0,0,0,0</value>
					</parameter>
					<parameter authoringApp="PremierePro">
					<parameterid>8</parameterid>
					<name></name>
					<IsTimeVarying>false</IsTimeVarying>
					<ParameterControlType>2</ParameterControlType>
					<LowerBound>0</LowerBound>
					<UpperBound>100</UpperBound>
					<value>-91445760000000000,100.,0,0,0,0,0,0</value>
					</parameter>
					</effect>
					</filter>
					<logginginfo>
					<description></description>
					<scene></scene>
					<shottake></shottake>
					<lognote></lognote>
					<good></good>
					<originalvideofilename></originalvideofilename>
					<originalaudiofilename></originalaudiofilename>
					</logginginfo>
					<colorinfo>
					<lut></lut>
					<lut1></lut1>
					<asc_sop></asc_sop>
					<asc_sat></asc_sat>
					<lut2></lut2>
					</colorinfo>
					<labels>
					</labels>
					</clipitem>
					<clipitem frameBlend="FALSE" id="clipitem-312">
					<masterclipid>masterclip-232</masterclipid>
					<name></name>
					<enabled>TRUE</enabled>
					<duration>2582774</duration>
					<rate>
					
					                                    <timebase>60</timebase>
					                                    <ntsc>TRUE</ntsc>
					                                
					</rate>
					<start>1811</start>
					<end>1871</end>
					<in>1811</in>
					<out>1871</out>
					<pproTicksIn>914456774963789</pproTicksIn>
					<pproTicksOut>914677708529577</pproTicksOut>
					<alphatype>straight</alphatype>
					<pixelaspectratio>square</pixelaspectratio>
					<anamorphic>FALSE</anamorphic>
					<file id="file-231">
					<name></name>
					<mediaSource>GraphicAndType</mediaSource>
					<rate>
					<timebase>60</timebase>
					<ntsc>TRUE</ntsc>
					</rate>
					<timecode>
					<rate>
					<timebase>60</timebase>
					<ntsc>TRUE</ntsc>
					</rate>
					<string>00:00:00:00</string>
					<frame>0</frame>
					<displayformat>NDF</displayformat>
					</timecode>
					<media>
					<video>
					<samplecharacteristics>
					<rate>
					<timebase>60</timebase>
					<ntsc>TRUE</ntsc>
					</rate>
					<width>1080</width>
					<height>1920</height>
					<anamorphic>FALSE</anamorphic>
					<pixelaspectratio>square</pixelaspectratio>
					<fielddominance>none</fielddominance>
					</samplecharacteristics>
					</video>
					</media>
					</file>
					<filter>
					<effect>
					<name></name>
					<effectid>GraphicAndType</effectid>
					<effectcategory>graphic</effectcategory>
					<effecttype>filter</effecttype>
					<mediatype>video</mediatype>
					<pproBypass>false</pproBypass>
					<parameter authoringApp="PremierePro">
					<parameterid>1</parameterid>
					<name></name>
					<hash>025b1101-ead6-0ca2-1feb-caf3000001fc</hash>
					<value>5AEAAAAAAABEMyIRDAAAAAAABgAKAAQABgAAAGQAAAAAAF4ASAAQAAwARABAADwAOAAAAAAAAAAAADQAMwAsAAAAKAAkACAAAAAAAAAAAAAAAAAAHAAAAAAAGgAAAAAAAAAUAAAAAAAAAAAAAAAAAAAAAAAAAAgAAAAAABsABwBeAAAAAAAAAUAAAABQAAAAbAAAAAIAAAAAAAEAAQAAAAAAQEEAAMBAAABAQAAAyEIAAAABIAAAAAIAAAACAAAAAAA2QwCASkTw/v//9P7///j+//8S////AAAAAAEAAAAEAAAAEQAAAEhHUFNvZWlLYWt1cG9wdGFpAAAAAQAAAAwAAAAIAAwABAAIAAgAAAAIAAAAUAAAAA8AAADvvIEAAAAAAAAAAAAAAAAAAAA2ACQAAAAgABwAAAAAABsAFAAAAAAAAAAAAAAAAAAAAAAAAAAAABAAAAAAAAAADAAAAAgABAA2AAAAAgAAABwAAAAcAAAAHAAAAAAAIEEAAAABaAAAAE3PAEOw////tP///wEAAAAUAAAAEAAaAAgABwAMAAAAEAAUABAAAAAAAAABHAAAAAAAoEEcAAAAAgAAAAAACgAIAAUABgAHAAoAAAAADAD//P///wQABAAEAAAACAAIAAYABwAIAAAAAAAMAA==</value>
					</parameter>
					<parameter authoringApp="PremierePro">
					<parameterid>2</parameterid>
					<name></name>
					<IsTimeVarying>false</IsTimeVarying>
					<ParameterControlType>11</ParameterControlType>
					<LowerBound>false</LowerBound>
					<UpperBound>false</UpperBound>
					<value>-91445760000000000,false,0,0,0,0,0,0</value>
					</parameter>
					<parameter authoringApp="PremierePro">
					<parameterid>3</parameterid>
					<name></name>
					<IsTimeVarying>false</IsTimeVarying>
					<value>-91445760000000000,0.5:0.5,0,0,0,0,0,0,5,4,0,0,0,0</value>
					</parameter>
					<parameter authoringApp="PremierePro">
					<parameterid>4</parameterid>
					<name></name>
					<IsTimeVarying>false</IsTimeVarying>
					<ParameterControlType>2</ParameterControlType>
					<LowerBound>0</LowerBound>
					<UpperBound>4000</UpperBound>
					<value>-91445760000000000,100.,0,0,0,0,0,0</value>
					</parameter>
					<parameter authoringApp="PremierePro">
					<parameterid>8</parameterid>
					<name></name>
					<IsTimeVarying>false</IsTimeVarying>
					<ParameterControlType>2</ParameterControlType>
					<LowerBound>0</LowerBound>
					<UpperBound>100</UpperBound>
					<value>-91445760000000000,100.,0,0,0,0,0,0</value>
					</parameter>
					</effect>
					</filter>
					<logginginfo>
					<description></description>
					<scene></scene>
					<shottake></shottake>
					<lognote></lognote>
					<good></good>
					<originalvideofilename></originalvideofilename>
					<originalaudiofilename></originalaudiofilename>
					</logginginfo>
					<colorinfo>
					<lut></lut>
					<lut1></lut1>
					<asc_sop></asc_sop>
					<asc_sat></asc_sat>
					<lut2></lut2>
					</colorinfo>
					<labels>
					</labels>
					</clipitem>
					<clipitem frameBlend="FALSE" id="clipitem-322">
					<masterclipid>masterclip-242</masterclipid>
					<name></name>
					<enabled>TRUE</enabled>
					<duration>2582774</duration>
					<rate>
					
					                                    <timebase>60</timebase>
					                                    <ntsc>TRUE</ntsc>
					                                
					</rate>
					<start>1901</start>
					<end>1961</end>
					<in>1901</in>
					<out>1961</out>
					<pproTicksIn>914456774963789</pproTicksIn>
					<pproTicksOut>914677708529577</pproTicksOut>
					<alphatype>straight</alphatype>
					<pixelaspectratio>square</pixelaspectratio>
					<anamorphic>FALSE</anamorphic>
					<file id="file-241">
					<name></name>
					<mediaSource>GraphicAndType</mediaSource>
					<rate>
					<timebase>60</timebase>
					<ntsc>TRUE</ntsc>
					</rate>
					<timecode>
					<rate>
					<timebase>60</timebase>
					<ntsc>TRUE</ntsc>
					</rate>
					<string>00:00:00:00</string>
					<frame>0</frame>
					<displayformat>NDF</displayformat>
					</timecode>
					<media>
					<video>
					<samplecharacteristics>
					<rate>
					<timebase>60</timebase>
					<ntsc>TRUE</ntsc>
					</rate>
					<width>1080</width>
					<height>1920</height>
					<anamorphic>FALSE</anamorphic>
					<pixelaspectratio>square</pixelaspectratio>
					<fielddominance>none</fielddominance>
					</samplecharacteristics>
					</video>
					</media>
					</file>
					<filter>
					<effect>
					<name></name>
					<effectid>GraphicAndType</effectid>
					<effectcategory>graphic</effectcategory>
					<effecttype>filter</effecttype>
					<mediatype>video</mediatype>
					<pproBypass>false</pproBypass>
					<parameter authoringApp="PremierePro">
					<parameterid>1</parameterid>
					<name></name>
					<hash>025b1101-ead6-0ca2-1feb-caf3000001fc</hash>
					<value>5AEAAAAAAABEMyIRDAAAAAAABgAKAAQABgAAAGQAAAAAAF4ASAAQAAwARABAADwAOAAAAAAAAAAAADQAMwAsAAAAKAAkACAAAAAAAAAAAAAAAAAAHAAAAAAAGgAAAAAAAAAUAAAAAAAAAAAAAAAAAAAAAAAAAAgAAAAAABsABwBeAAAAAAAAAUAAAABQAAAAbAAAAAIAAAAAAAEAAQAAAAAAQEEAAMBAAABAQAAAyEIAAAABIAAAAAIAAAACAAAAAAA2QwCASkTw/v//9P7///j+//8S////AAAAAAEAAAAEAAAAEQAAAEhHUFNvZWlLYWt1cG9wdGFpAAAAAQAAAAwAAAAIAAwABAAIAAgAAAAIAAAAUAAAAA8AAADvvIEAAAAAAAAAAAAAAAAAAAA2ACQAAAAgABwAAAAAABsAFAAAAAAAAAAAAAAAAAAAAAAAAAAAABAAAAAAAAAADAAAAAgABAA2AAAAAgAAABwAAAAcAAAAHAAAAAAAIEEAAAABaAAAAE3PAEOw////tP///wEAAAAUAAAAEAAaAAgABwAMAAAAEAAUABAAAAAAAAABHAAAAAAAoEEcAAAAAgAAAAAACgAIAAUABgAHAAoAAAAADAD//P///wQABAAEAAAACAAIAAYABwAIAAAAAAAMAA==</value>
					</parameter>
					<parameter authoringApp="PremierePro">
					<parameterid>2</parameterid>
					<name></name>
					<IsTimeVarying>false</IsTimeVarying>
					<ParameterControlType>11</ParameterControlType>
					<LowerBound>false</LowerBound>
					<UpperBound>false</UpperBound>
					<value>-91445760000000000,false,0,0,0,0,0,0</value>
					</parameter>
					<parameter authoringApp="PremierePro">
					<parameterid>3</parameterid>
					<name></name>
					<IsTimeVarying>false</IsTimeVarying>
					<value>-91445760000000000,0.5:0.5,0,0,0,0,0,0,5,4,0,0,0,0</value>
					</parameter>
					<parameter authoringApp="PremierePro">
					<parameterid>4</parameterid>
					<name></name>
					<IsTimeVarying>false</IsTimeVarying>
					<ParameterControlType>2</ParameterControlType>
					<LowerBound>0</LowerBound>
					<UpperBound>4000</UpperBound>
					<value>-91445760000000000,100.,0,0,0,0,0,0</value>
					</parameter>
					<parameter authoringApp="PremierePro">
					<parameterid>8</parameterid>
					<name></name>
					<IsTimeVarying>false</IsTimeVarying>
					<ParameterControlType>2</ParameterControlType>
					<LowerBound>0</LowerBound>
					<UpperBound>100</UpperBound>
					<value>-91445760000000000,100.,0,0,0,0,0,0</value>
					</parameter>
					</effect>
					</filter>
					<logginginfo>
					<description></description>
					<scene></scene>
					<shottake></shottake>
					<lognote></lognote>
					<good></good>
					<originalvideofilename></originalvideofilename>
					<originalaudiofilename></originalaudiofilename>
					</logginginfo>
					<colorinfo>
					<lut></lut>
					<lut1></lut1>
					<asc_sop></asc_sop>
					<asc_sat></asc_sat>
					<lut2></lut2>
					</colorinfo>
					<labels>
					</labels>
					</clipitem>
					<clipitem frameBlend="FALSE" id="clipitem-331">
					<masterclipid>masterclip-251</masterclipid>
					<name></name>
					<enabled>TRUE</enabled>
					<duration>2582774</duration>
					<rate>
					
					                                    <timebase>60</timebase>
					                                    <ntsc>TRUE</ntsc>
					                                
					</rate>
					<start>1967</start>
					<end>2027</end>
					<in>1967</in>
					<out>2027</out>
					<pproTicksIn>914456774963789</pproTicksIn>
					<pproTicksOut>914677708529577</pproTicksOut>
					<alphatype>straight</alphatype>
					<pixelaspectratio>square</pixelaspectratio>
					<anamorphic>FALSE</anamorphic>
					<file id="file-250">
					<name></name>
					<mediaSource>GraphicAndType</mediaSource>
					<rate>
					<timebase>60</timebase>
					<ntsc>TRUE</ntsc>
					</rate>
					<timecode>
					<rate>
					<timebase>60</timebase>
					<ntsc>TRUE</ntsc>
					</rate>
					<string>00:00:00:00</string>
					<frame>0</frame>
					<displayformat>NDF</displayformat>
					</timecode>
					<media>
					<video>
					<samplecharacteristics>
					<rate>
					<timebase>60</timebase>
					<ntsc>TRUE</ntsc>
					</rate>
					<width>1080</width>
					<height>1920</height>
					<anamorphic>FALSE</anamorphic>
					<pixelaspectratio>square</pixelaspectratio>
					<fielddominance>none</fielddominance>
					</samplecharacteristics>
					</video>
					</media>
					</file>
					<filter>
					<effect>
					<name></name>
					<effectid>GraphicAndType</effectid>
					<effectcategory>graphic</effectcategory>
					<effecttype>filter</effecttype>
					<mediatype>video</mediatype>
					<pproBypass>false</pproBypass>
					<parameter authoringApp="PremierePro">
					<parameterid>1</parameterid>
					<name></name>
					<hash>025b1101-ead6-0ca2-1feb-caf3000001fc</hash>
					<value>5AEAAAAAAABEMyIRDAAAAAAABgAKAAQABgAAAGQAAAAAAF4ASAAQAAwARABAADwAOAAAAAAAAAAAADQAMwAsAAAAKAAkACAAAAAAAAAAAAAAAAAAHAAAAAAAGgAAAAAAAAAUAAAAAAAAAAAAAAAAAAAAAAAAAAgAAAAAABsABwBeAAAAAAAAAUAAAABQAAAAbAAAAAIAAAAAAAEAAQAAAAAAQEEAAMBAAABAQAAAyEIAAAABIAAAAAIAAAACAAAAAAA2QwCASkTw/v//9P7///j+//8S////AAAAAAEAAAAEAAAAEQAAAEhHUFNvZWlLYWt1cG9wdGFpAAAAAQAAAAwAAAAIAAwABAAIAAgAAAAIAAAAUAAAAA8AAADvvIEAAAAAAAAAAAAAAAAAAAA2ACQAAAAgABwAAAAAABsAFAAAAAAAAAAAAAAAAAAAAAAAAAAAABAAAAAAAAAADAAAAAgABAA2AAAAAgAAABwAAAAcAAAAHAAAAAAAIEEAAAABaAAAAE3PAEOw////tP///wEAAAAUAAAAEAAaAAgABwAMAAAAEAAUABAAAAAAAAABHAAAAAAAoEEcAAAAAgAAAAAACgAIAAUABgAHAAoAAAAADAD//P///wQABAAEAAAACAAIAAYABwAIAAAAAAAMAA==</value>
					</parameter>
					<parameter authoringApp="PremierePro">
					<parameterid>2</parameterid>
					<name></name>
					<IsTimeVarying>false</IsTimeVarying>
					<ParameterControlType>11</ParameterControlType>
					<LowerBound>false</LowerBound>
					<UpperBound>false</UpperBound>
					<value>-91445760000000000,false,0,0,0,0,0,0</value>
					</parameter>
					<parameter authoringApp="PremierePro">
					<parameterid>3</parameterid>
					<name></name>
					<IsTimeVarying>false</IsTimeVarying>
					<value>-91445760000000000,0.5:0.5,0,0,0,0,0,0,5,4,0,0,0,0</value>
					</parameter>
					<parameter authoringApp="PremierePro">
					<parameterid>4</parameterid>
					<name></name>
					<IsTimeVarying>false</IsTimeVarying>
					<ParameterControlType>2</ParameterControlType>
					<LowerBound>0</LowerBound>
					<UpperBound>4000</UpperBound>
					<value>-91445760000000000,100.,0,0,0,0,0,0</value>
					</parameter>
					<parameter authoringApp="PremierePro">
					<parameterid>8</parameterid>
					<name></name>
					<IsTimeVarying>false</IsTimeVarying>
					<ParameterControlType>2</ParameterControlType>
					<LowerBound>0</LowerBound>
					<UpperBound>100</UpperBound>
					<value>-91445760000000000,100.,0,0,0,0,0,0</value>
					</parameter>
					</effect>
					</filter>
					<logginginfo>
					<description></description>
					<scene></scene>
					<shottake></shottake>
					<lognote></lognote>
					<good></good>
					<originalvideofilename></originalvideofilename>
					<originalaudiofilename></originalaudiofilename>
					</logginginfo>
					<colorinfo>
					<lut></lut>
					<lut1></lut1>
					<asc_sop></asc_sop>
					<asc_sat></asc_sat>
					<lut2></lut2>
					</colorinfo>
					<labels>
					</labels>
					</clipitem>
					<clipitem frameBlend="FALSE" id="clipitem-337">
					<masterclipid>masterclip-257</masterclipid>
					<name></name>
					<enabled>TRUE</enabled>
					<duration>2582774</duration>
					<rate>
					
					                                    <timebase>60</timebase>
					                                    <ntsc>TRUE</ntsc>
					                                
					</rate>
					<start>2063</start>
					<end>2123</end>
					<in>2063</in>
					<out>2123</out>
					<pproTicksIn>914456774963789</pproTicksIn>
					<pproTicksOut>914677708529577</pproTicksOut>
					<alphatype>straight</alphatype>
					<pixelaspectratio>square</pixelaspectratio>
					<anamorphic>FALSE</anamorphic>
					<file id="file-256">
					<name></name>
					<mediaSource>GraphicAndType</mediaSource>
					<rate>
					<timebase>60</timebase>
					<ntsc>TRUE</ntsc>
					</rate>
					<timecode>
					<rate>
					<timebase>60</timebase>
					<ntsc>TRUE</ntsc>
					</rate>
					<string>00:00:00:00</string>
					<frame>0</frame>
					<displayformat>NDF</displayformat>
					</timecode>
					<media>
					<video>
					<samplecharacteristics>
					<rate>
					<timebase>60</timebase>
					<ntsc>TRUE</ntsc>
					</rate>
					<width>1080</width>
					<height>1920</height>
					<anamorphic>FALSE</anamorphic>
					<pixelaspectratio>square</pixelaspectratio>
					<fielddominance>none</fielddominance>
					</samplecharacteristics>
					</video>
					</media>
					</file>
					<filter>
					<effect>
					<name></name>
					<effectid>GraphicAndType</effectid>
					<effectcategory>graphic</effectcategory>
					<effecttype>filter</effecttype>
					<mediatype>video</mediatype>
					<pproBypass>false</pproBypass>
					<parameter authoringApp="PremierePro">
					<parameterid>1</parameterid>
					<name></name>
					<hash>025b1101-ead6-0ca2-1feb-caf3000001fc</hash>
					<value>5AEAAAAAAABEMyIRDAAAAAAABgAKAAQABgAAAGQAAAAAAF4ASAAQAAwARABAADwAOAAAAAAAAAAAADQAMwAsAAAAKAAkACAAAAAAAAAAAAAAAAAAHAAAAAAAGgAAAAAAAAAUAAAAAAAAAAAAAAAAAAAAAAAAAAgAAAAAABsABwBeAAAAAAAAAUAAAABQAAAAbAAAAAIAAAAAAAEAAQAAAAAAQEEAAMBAAABAQAAAyEIAAAABIAAAAAIAAAACAAAAAAA2QwCASkTw/v//9P7///j+//8S////AAAAAAEAAAAEAAAAEQAAAEhHUFNvZWlLYWt1cG9wdGFpAAAAAQAAAAwAAAAIAAwABAAIAAgAAAAIAAAAUAAAAA8AAADvvIEAAAAAAAAAAAAAAAAAAAA2ACQAAAAgABwAAAAAABsAFAAAAAAAAAAAAAAAAAAAAAAAAAAAABAAAAAAAAAADAAAAAgABAA2AAAAAgAAABwAAAAcAAAAHAAAAAAAIEEAAAABaAAAAE3PAEOw////tP///wEAAAAUAAAAEAAaAAgABwAMAAAAEAAUABAAAAAAAAABHAAAAAAAoEEcAAAAAgAAAAAACgAIAAUABgAHAAoAAAAADAD//P///wQABAAEAAAACAAIAAYABwAIAAAAAAAMAA==</value>
					</parameter>
					<parameter authoringApp="PremierePro">
					<parameterid>2</parameterid>
					<name></name>
					<IsTimeVarying>false</IsTimeVarying>
					<ParameterControlType>11</ParameterControlType>
					<LowerBound>false</LowerBound>
					<UpperBound>false</UpperBound>
					<value>-91445760000000000,false,0,0,0,0,0,0</value>
					</parameter>
					<parameter authoringApp="PremierePro">
					<parameterid>3</parameterid>
					<name></name>
					<IsTimeVarying>false</IsTimeVarying>
					<value>-91445760000000000,0.5:0.5,0,0,0,0,0,0,5,4,0,0,0,0</value>
					</parameter>
					<parameter authoringApp="PremierePro">
					<parameterid>4</parameterid>
					<name></name>
					<IsTimeVarying>false</IsTimeVarying>
					<ParameterControlType>2</ParameterControlType>
					<LowerBound>0</LowerBound>
					<UpperBound>4000</UpperBound>
					<value>-91445760000000000,100.,0,0,0,0,0,0</value>
					</parameter>
					<parameter authoringApp="PremierePro">
					<parameterid>8</parameterid>
					<name></name>
					<IsTimeVarying>false</IsTimeVarying>
					<ParameterControlType>2</ParameterControlType>
					<LowerBound>0</LowerBound>
					<UpperBound>100</UpperBound>
					<value>-91445760000000000,100.,0,0,0,0,0,0</value>
					</parameter>
					</effect>
					</filter>
					<logginginfo>
					<description></description>
					<scene></scene>
					<shottake></shottake>
					<lognote></lognote>
					<good></good>
					<originalvideofilename></originalvideofilename>
					<originalaudiofilename></originalaudiofilename>
					</logginginfo>
					<colorinfo>
					<lut></lut>
					<lut1></lut1>
					<asc_sop></asc_sop>
					<asc_sat></asc_sat>
					<lut2></lut2>
					</colorinfo>
					<labels>
					</labels>
					</clipitem>
					<clipitem frameBlend="FALSE" id="clipitem-342">
					<masterclipid>masterclip-262</masterclipid>
					<name></name>
					<enabled>TRUE</enabled>
					<duration>2582774</duration>
					<rate>
					
					                                    <timebase>60</timebase>
					                                    <ntsc>TRUE</ntsc>
					                                
					</rate>
					<start>2171</start>
					<end>2231</end>
					<in>2171</in>
					<out>2231</out>
					<pproTicksIn>914456774963789</pproTicksIn>
					<pproTicksOut>914677708529577</pproTicksOut>
					<alphatype>straight</alphatype>
					<pixelaspectratio>square</pixelaspectratio>
					<anamorphic>FALSE</anamorphic>
					<file id="file-261">
					<name></name>
					<mediaSource>GraphicAndType</mediaSource>
					<rate>
					<timebase>60</timebase>
					<ntsc>TRUE</ntsc>
					</rate>
					<timecode>
					<rate>
					<timebase>60</timebase>
					<ntsc>TRUE</ntsc>
					</rate>
					<string>00:00:00:00</string>
					<frame>0</frame>
					<displayformat>NDF</displayformat>
					</timecode>
					<media>
					<video>
					<samplecharacteristics>
					<rate>
					<timebase>60</timebase>
					<ntsc>TRUE</ntsc>
					</rate>
					<width>1080</width>
					<height>1920</height>
					<anamorphic>FALSE</anamorphic>
					<pixelaspectratio>square</pixelaspectratio>
					<fielddominance>none</fielddominance>
					</samplecharacteristics>
					</video>
					</media>
					</file>
					<filter>
					<effect>
					<name></name>
					<effectid>GraphicAndType</effectid>
					<effectcategory>graphic</effectcategory>
					<effecttype>filter</effecttype>
					<mediatype>video</mediatype>
					<pproBypass>false</pproBypass>
					<parameter authoringApp="PremierePro">
					<parameterid>1</parameterid>
					<name></name>
					<hash>025b1101-ead6-0ca2-1feb-caf3000001fc</hash>
					<value>5AEAAAAAAABEMyIRDAAAAAAABgAKAAQABgAAAGQAAAAAAF4ASAAQAAwARABAADwAOAAAAAAAAAAAADQAMwAsAAAAKAAkACAAAAAAAAAAAAAAAAAAHAAAAAAAGgAAAAAAAAAUAAAAAAAAAAAAAAAAAAAAAAAAAAgAAAAAABsABwBeAAAAAAAAAUAAAABQAAAAbAAAAAIAAAAAAAEAAQAAAAAAQEEAAMBAAABAQAAAyEIAAAABIAAAAAIAAAACAAAAAAA2QwCASkTw/v//9P7///j+//8S////AAAAAAEAAAAEAAAAEQAAAEhHUFNvZWlLYWt1cG9wdGFpAAAAAQAAAAwAAAAIAAwABAAIAAgAAAAIAAAAUAAAAA8AAADvvIEAAAAAAAAAAAAAAAAAAAA2ACQAAAAgABwAAAAAABsAFAAAAAAAAAAAAAAAAAAAAAAAAAAAABAAAAAAAAAADAAAAAgABAA2AAAAAgAAABwAAAAcAAAAHAAAAAAAIEEAAAABaAAAAE3PAEOw////tP///wEAAAAUAAAAEAAaAAgABwAMAAAAEAAUABAAAAAAAAABHAAAAAAAoEEcAAAAAgAAAAAACgAIAAUABgAHAAoAAAAADAD//P///wQABAAEAAAACAAIAAYABwAIAAAAAAAMAA==</value>
					</parameter>
					<parameter authoringApp="PremierePro">
					<parameterid>2</parameterid>
					<name></name>
					<IsTimeVarying>false</IsTimeVarying>
					<ParameterControlType>11</ParameterControlType>
					<LowerBound>false</LowerBound>
					<UpperBound>false</UpperBound>
					<value>-91445760000000000,false,0,0,0,0,0,0</value>
					</parameter>
					<parameter authoringApp="PremierePro">
					<parameterid>3</parameterid>
					<name></name>
					<IsTimeVarying>false</IsTimeVarying>
					<value>-91445760000000000,0.5:0.5,0,0,0,0,0,0,5,4,0,0,0,0</value>
					</parameter>
					<parameter authoringApp="PremierePro">
					<parameterid>4</parameterid>
					<name></name>
					<IsTimeVarying>false</IsTimeVarying>
					<ParameterControlType>2</ParameterControlType>
					<LowerBound>0</LowerBound>
					<UpperBound>4000</UpperBound>
					<value>-91445760000000000,100.,0,0,0,0,0,0</value>
					</parameter>
					<parameter authoringApp="PremierePro">
					<parameterid>8</parameterid>
					<name></name>
					<IsTimeVarying>false</IsTimeVarying>
					<ParameterControlType>2</ParameterControlType>
					<LowerBound>0</LowerBound>
					<UpperBound>100</UpperBound>
					<value>-91445760000000000,100.,0,0,0,0,0,0</value>
					</parameter>
					</effect>
					</filter>
					<logginginfo>
					<description></description>
					<scene></scene>
					<shottake></shottake>
					<lognote></lognote>
					<good></good>
					<originalvideofilename></originalvideofilename>
					<originalaudiofilename></originalaudiofilename>
					</logginginfo>
					<colorinfo>
					<lut></lut>
					<lut1></lut1>
					<asc_sop></asc_sop>
					<asc_sat></asc_sat>
					<lut2></lut2>
					</colorinfo>
					<labels>
					</labels>
					</clipitem>
					<clipitem frameBlend="FALSE" id="clipitem-351">
					<masterclipid>masterclip-271</masterclipid>
					<name></name>
					<enabled>TRUE</enabled>
					<duration>2582774</duration>
					<rate>
					
					                                    <timebase>60</timebase>
					                                    <ntsc>TRUE</ntsc>
					                                
					</rate>
					<start>2315</start>
					<end>2375</end>
					<in>2315</in>
					<out>2375</out>
					<pproTicksIn>914456774963789</pproTicksIn>
					<pproTicksOut>914677708529577</pproTicksOut>
					<alphatype>straight</alphatype>
					<pixelaspectratio>square</pixelaspectratio>
					<anamorphic>FALSE</anamorphic>
					<file id="file-270">
					<name></name>
					<mediaSource>GraphicAndType</mediaSource>
					<rate>
					<timebase>60</timebase>
					<ntsc>TRUE</ntsc>
					</rate>
					<timecode>
					<rate>
					<timebase>60</timebase>
					<ntsc>TRUE</ntsc>
					</rate>
					<string>00:00:00:00</string>
					<frame>0</frame>
					<displayformat>NDF</displayformat>
					</timecode>
					<media>
					<video>
					<samplecharacteristics>
					<rate>
					<timebase>60</timebase>
					<ntsc>TRUE</ntsc>
					</rate>
					<width>1080</width>
					<height>1920</height>
					<anamorphic>FALSE</anamorphic>
					<pixelaspectratio>square</pixelaspectratio>
					<fielddominance>none</fielddominance>
					</samplecharacteristics>
					</video>
					</media>
					</file>
					<filter>
					<effect>
					<name></name>
					<effectid>GraphicAndType</effectid>
					<effectcategory>graphic</effectcategory>
					<effecttype>filter</effecttype>
					<mediatype>video</mediatype>
					<pproBypass>false</pproBypass>
					<parameter authoringApp="PremierePro">
					<parameterid>1</parameterid>
					<name></name>
					<hash>025b1101-ead6-0ca2-1feb-caf3000001fc</hash>
					<value>5AEAAAAAAABEMyIRDAAAAAAABgAKAAQABgAAAGQAAAAAAF4ASAAQAAwARABAADwAOAAAAAAAAAAAADQAMwAsAAAAKAAkACAAAAAAAAAAAAAAAAAAHAAAAAAAGgAAAAAAAAAUAAAAAAAAAAAAAAAAAAAAAAAAAAgAAAAAABsABwBeAAAAAAAAAUAAAABQAAAAbAAAAAIAAAAAAAEAAQAAAAAAQEEAAMBAAABAQAAAyEIAAAABIAAAAAIAAAACAAAAAAA2QwCASkTw/v//9P7///j+//8S////AAAAAAEAAAAEAAAAEQAAAEhHUFNvZWlLYWt1cG9wdGFpAAAAAQAAAAwAAAAIAAwABAAIAAgAAAAIAAAAUAAAAA8AAADvvIEAAAAAAAAAAAAAAAAAAAA2ACQAAAAgABwAAAAAABsAFAAAAAAAAAAAAAAAAAAAAAAAAAAAABAAAAAAAAAADAAAAAgABAA2AAAAAgAAABwAAAAcAAAAHAAAAAAAIEEAAAABaAAAAE3PAEOw////tP///wEAAAAUAAAAEAAaAAgABwAMAAAAEAAUABAAAAAAAAABHAAAAAAAoEEcAAAAAgAAAAAACgAIAAUABgAHAAoAAAAADAD//P///wQABAAEAAAACAAIAAYABwAIAAAAAAAMAA==</value>
					</parameter>
					<parameter authoringApp="PremierePro">
					<parameterid>2</parameterid>
					<name></name>
					<IsTimeVarying>false</IsTimeVarying>
					<ParameterControlType>11</ParameterControlType>
					<LowerBound>false</LowerBound>
					<UpperBound>false</UpperBound>
					<value>-91445760000000000,false,0,0,0,0,0,0</value>
					</parameter>
					<parameter authoringApp="PremierePro">
					<parameterid>3</parameterid>
					<name></name>
					<IsTimeVarying>false</IsTimeVarying>
					<value>-91445760000000000,0.5:0.5,0,0,0,0,0,0,5,4,0,0,0,0</value>
					</parameter>
					<parameter authoringApp="PremierePro">
					<parameterid>4</parameterid>
					<name></name>
					<IsTimeVarying>false</IsTimeVarying>
					<ParameterControlType>2</ParameterControlType>
					<LowerBound>0</LowerBound>
					<UpperBound>4000</UpperBound>
					<value>-91445760000000000,100.,0,0,0,0,0,0</value>
					</parameter>
					<parameter authoringApp="PremierePro">
					<parameterid>8</parameterid>
					<name></name>
					<IsTimeVarying>false</IsTimeVarying>
					<ParameterControlType>2</ParameterControlType>
					<LowerBound>0</LowerBound>
					<UpperBound>100</UpperBound>
					<value>-91445760000000000,100.,0,0,0,0,0,0</value>
					</parameter>
					</effect>
					</filter>
					<logginginfo>
					<description></description>
					<scene></scene>
					<shottake></shottake>
					<lognote></lognote>
					<good></good>
					<originalvideofilename></originalvideofilename>
					<originalaudiofilename></originalaudiofilename>
					</logginginfo>
					<colorinfo>
					<lut></lut>
					<lut1></lut1>
					<asc_sop></asc_sop>
					<asc_sat></asc_sat>
					<lut2></lut2>
					</colorinfo>
					<labels>
					</labels>
					</clipitem>
					<clipitem frameBlend="FALSE" id="clipitem-357">
					<masterclipid>masterclip-277</masterclipid>
					<name></name>
					<enabled>TRUE</enabled>
					<duration>2582774</duration>
					<rate>
					
					                                    <timebase>60</timebase>
					                                    <ntsc>TRUE</ntsc>
					                                
					</rate>
					<start>2405</start>
					<end>2465</end>
					<in>2405</in>
					<out>2465</out>
					<pproTicksIn>914456774963789</pproTicksIn>
					<pproTicksOut>914677708529577</pproTicksOut>
					<alphatype>straight</alphatype>
					<pixelaspectratio>square</pixelaspectratio>
					<anamorphic>FALSE</anamorphic>
					<file id="file-276">
					<name></name>
					<mediaSource>GraphicAndType</mediaSource>
					<rate>
					<timebase>60</timebase>
					<ntsc>TRUE</ntsc>
					</rate>
					<timecode>
					<rate>
					<timebase>60</timebase>
					<ntsc>TRUE</ntsc>
					</rate>
					<string>00:00:00:00</string>
					<frame>0</frame>
					<displayformat>NDF</displayformat>
					</timecode>
					<media>
					<video>
					<samplecharacteristics>
					<rate>
					<timebase>60</timebase>
					<ntsc>TRUE</ntsc>
					</rate>
					<width>1080</width>
					<height>1920</height>
					<anamorphic>FALSE</anamorphic>
					<pixelaspectratio>square</pixelaspectratio>
					<fielddominance>none</fielddominance>
					</samplecharacteristics>
					</video>
					</media>
					</file>
					<filter>
					<effect>
					<name></name>
					<effectid>GraphicAndType</effectid>
					<effectcategory>graphic</effectcategory>
					<effecttype>filter</effecttype>
					<mediatype>video</mediatype>
					<pproBypass>false</pproBypass>
					<parameter authoringApp="PremierePro">
					<parameterid>1</parameterid>
					<name></name>
					<hash>025b1101-ead6-0ca2-1feb-caf3000001fc</hash>
					<value>5AEAAAAAAABEMyIRDAAAAAAABgAKAAQABgAAAGQAAAAAAF4ASAAQAAwARABAADwAOAAAAAAAAAAAADQAMwAsAAAAKAAkACAAAAAAAAAAAAAAAAAAHAAAAAAAGgAAAAAAAAAUAAAAAAAAAAAAAAAAAAAAAAAAAAgAAAAAABsABwBeAAAAAAAAAUAAAABQAAAAbAAAAAIAAAAAAAEAAQAAAAAAQEEAAMBAAABAQAAAyEIAAAABIAAAAAIAAAACAAAAAAA2QwCASkTw/v//9P7///j+//8S////AAAAAAEAAAAEAAAAEQAAAEhHUFNvZWlLYWt1cG9wdGFpAAAAAQAAAAwAAAAIAAwABAAIAAgAAAAIAAAAUAAAAA8AAADvvIEAAAAAAAAAAAAAAAAAAAA2ACQAAAAgABwAAAAAABsAFAAAAAAAAAAAAAAAAAAAAAAAAAAAABAAAAAAAAAADAAAAAgABAA2AAAAAgAAABwAAAAcAAAAHAAAAAAAIEEAAAABaAAAAE3PAEOw////tP///wEAAAAUAAAAEAAaAAgABwAMAAAAEAAUABAAAAAAAAABHAAAAAAAoEEcAAAAAgAAAAAACgAIAAUABgAHAAoAAAAADAD//P///wQABAAEAAAACAAIAAYABwAIAAAAAAAMAA==</value>
					</parameter>
					<parameter authoringApp="PremierePro">
					<parameterid>2</parameterid>
					<name></name>
					<IsTimeVarying>false</IsTimeVarying>
					<ParameterControlType>11</ParameterControlType>
					<LowerBound>false</LowerBound>
					<UpperBound>false</UpperBound>
					<value>-91445760000000000,false,0,0,0,0,0,0</value>
					</parameter>
					<parameter authoringApp="PremierePro">
					<parameterid>3</parameterid>
					<name></name>
					<IsTimeVarying>false</IsTimeVarying>
					<value>-91445760000000000,0.5:0.5,0,0,0,0,0,0,5,4,0,0,0,0</value>
					</parameter>
					<parameter authoringApp="PremierePro">
					<parameterid>4</parameterid>
					<name></name>
					<IsTimeVarying>false</IsTimeVarying>
					<ParameterControlType>2</ParameterControlType>
					<LowerBound>0</LowerBound>
					<UpperBound>4000</UpperBound>
					<value>-91445760000000000,100.,0,0,0,0,0,0</value>
					</parameter>
					<parameter authoringApp="PremierePro">
					<parameterid>8</parameterid>
					<name></name>
					<IsTimeVarying>false</IsTimeVarying>
					<ParameterControlType>2</ParameterControlType>
					<LowerBound>0</LowerBound>
					<UpperBound>100</UpperBound>
					<value>-91445760000000000,100.,0,0,0,0,0,0</value>
					</parameter>
					</effect>
					</filter>
					<logginginfo>
					<description></description>
					<scene></scene>
					<shottake></shottake>
					<lognote></lognote>
					<good></good>
					<originalvideofilename></originalvideofilename>
					<originalaudiofilename></originalaudiofilename>
					</logginginfo>
					<colorinfo>
					<lut></lut>
					<lut1></lut1>
					<asc_sop></asc_sop>
					<asc_sat></asc_sat>
					<lut2></lut2>
					</colorinfo>
					<labels>
					</labels>
					</clipitem>
					<clipitem frameBlend="FALSE" id="clipitem-365">
					<masterclipid>masterclip-285</masterclipid>
					<name></name>
					<enabled>TRUE</enabled>
					<duration>2582774</duration>
					<rate>
					
					                                    <timebase>60</timebase>
					                                    <ntsc>TRUE</ntsc>
					                                
					</rate>
					<start>2525</start>
					<end>2585</end>
					<in>2525</in>
					<out>2585</out>
					<pproTicksIn>914456774963789</pproTicksIn>
					<pproTicksOut>914677708529577</pproTicksOut>
					<alphatype>straight</alphatype>
					<pixelaspectratio>square</pixelaspectratio>
					<anamorphic>FALSE</anamorphic>
					<file id="file-284">
					<name></name>
					<mediaSource>GraphicAndType</mediaSource>
					<rate>
					<timebase>60</timebase>
					<ntsc>TRUE</ntsc>
					</rate>
					<timecode>
					<rate>
					<timebase>60</timebase>
					<ntsc>TRUE</ntsc>
					</rate>
					<string>00:00:00:00</string>
					<frame>0</frame>
					<displayformat>NDF</displayformat>
					</timecode>
					<media>
					<video>
					<samplecharacteristics>
					<rate>
					<timebase>60</timebase>
					<ntsc>TRUE</ntsc>
					</rate>
					<width>1080</width>
					<height>1920</height>
					<anamorphic>FALSE</anamorphic>
					<pixelaspectratio>square</pixelaspectratio>
					<fielddominance>none</fielddominance>
					</samplecharacteristics>
					</video>
					</media>
					</file>
					<filter>
					<effect>
					<name></name>
					<effectid>GraphicAndType</effectid>
					<effectcategory>graphic</effectcategory>
					<effecttype>filter</effecttype>
					<mediatype>video</mediatype>
					<pproBypass>false</pproBypass>
					<parameter authoringApp="PremierePro">
					<parameterid>1</parameterid>
					<name></name>
					<hash>025b1101-ead6-0ca2-1feb-caf3000001fc</hash>
					<value>5AEAAAAAAABEMyIRDAAAAAAABgAKAAQABgAAAGQAAAAAAF4ASAAQAAwARABAADwAOAAAAAAAAAAAADQAMwAsAAAAKAAkACAAAAAAAAAAAAAAAAAAHAAAAAAAGgAAAAAAAAAUAAAAAAAAAAAAAAAAAAAAAAAAAAgAAAAAABsABwBeAAAAAAAAAUAAAABQAAAAbAAAAAIAAAAAAAEAAQAAAAAAQEEAAMBAAABAQAAAyEIAAAABIAAAAAIAAAACAAAAAAA2QwCASkTw/v//9P7///j+//8S////AAAAAAEAAAAEAAAAEQAAAEhHUFNvZWlLYWt1cG9wdGFpAAAAAQAAAAwAAAAIAAwABAAIAAgAAAAIAAAAUAAAAA8AAADvvIEAAAAAAAAAAAAAAAAAAAA2ACQAAAAgABwAAAAAABsAFAAAAAAAAAAAAAAAAAAAAAAAAAAAABAAAAAAAAAADAAAAAgABAA2AAAAAgAAABwAAAAcAAAAHAAAAAAAIEEAAAABaAAAAE3PAEOw////tP///wEAAAAUAAAAEAAaAAgABwAMAAAAEAAUABAAAAAAAAABHAAAAAAAoEEcAAAAAgAAAAAACgAIAAUABgAHAAoAAAAADAD//P///wQABAAEAAAACAAIAAYABwAIAAAAAAAMAA==</value>
					</parameter>
					<parameter authoringApp="PremierePro">
					<parameterid>2</parameterid>
					<name></name>
					<IsTimeVarying>false</IsTimeVarying>
					<ParameterControlType>11</ParameterControlType>
					<LowerBound>false</LowerBound>
					<UpperBound>false</UpperBound>
					<value>-91445760000000000,false,0,0,0,0,0,0</value>
					</parameter>
					<parameter authoringApp="PremierePro">
					<parameterid>3</parameterid>
					<name></name>
					<IsTimeVarying>false</IsTimeVarying>
					<value>-91445760000000000,0.5:0.5,0,0,0,0,0,0,5,4,0,0,0,0</value>
					</parameter>
					<parameter authoringApp="PremierePro">
					<parameterid>4</parameterid>
					<name></name>
					<IsTimeVarying>false</IsTimeVarying>
					<ParameterControlType>2</ParameterControlType>
					<LowerBound>0</LowerBound>
					<UpperBound>4000</UpperBound>
					<value>-91445760000000000,100.,0,0,0,0,0,0</value>
					</parameter>
					<parameter authoringApp="PremierePro">
					<parameterid>8</parameterid>
					<name></name>
					<IsTimeVarying>false</IsTimeVarying>
					<ParameterControlType>2</ParameterControlType>
					<LowerBound>0</LowerBound>
					<UpperBound>100</UpperBound>
					<value>-91445760000000000,100.,0,0,0,0,0,0</value>
					</parameter>
					</effect>
					</filter>
					<logginginfo>
					<description></description>
					<scene></scene>
					<shottake></shottake>
					<lognote></lognote>
					<good></good>
					<originalvideofilename></originalvideofilename>
					<originalaudiofilename></originalaudiofilename>
					</logginginfo>
					<colorinfo>
					<lut></lut>
					<lut1></lut1>
					<asc_sop></asc_sop>
					<asc_sat></asc_sat>
					<lut2></lut2>
					</colorinfo>
					<labels>
					</labels>
					</clipitem>
					<clipitem id="clipitem-372"/>
					                        </track>
					                        <track TL.SQTrackShy="0" TL.SQTrackExpandedHeight="25" TL.SQTrackExpanded="0" MZ.TrackTargeted="0">
					<clipitem frameBlend="FALSE" id="clipitem-373">
					<masterclipid>masterclip-293</masterclipid>
					<name></name>
					<enabled>TRUE</enabled>
					<duration>2582774</duration>
					<rate>
					
					                                    <timebase>60</timebase>
					                                    <ntsc>TRUE</ntsc>
					                                
					</rate>
					<start>2615</start>
					<end>2675</end>
					<in>2615</in>
					<out>2675</out>
					<pproTicksIn>914456774963789</pproTicksIn>
					<pproTicksOut>914677708529577</pproTicksOut>
					<alphatype>straight</alphatype>
					<pixelaspectratio>square</pixelaspectratio>
					<anamorphic>FALSE</anamorphic>
					<file id="file-292">
					<name></name>
					<mediaSource>GraphicAndType</mediaSource>
					<rate>
					<timebase>60</timebase>
					<ntsc>TRUE</ntsc>
					</rate>
					<timecode>
					<rate>
					<timebase>60</timebase>
					<ntsc>TRUE</ntsc>
					</rate>
					<string>00:00:00:00</string>
					<frame>0</frame>
					<displayformat>NDF</displayformat>
					</timecode>
					<media>
					<video>
					<samplecharacteristics>
					<rate>
					<timebase>60</timebase>
					<ntsc>TRUE</ntsc>
					</rate>
					<width>1080</width>
					<height>1920</height>
					<anamorphic>FALSE</anamorphic>
					<pixelaspectratio>square</pixelaspectratio>
					<fielddominance>none</fielddominance>
					</samplecharacteristics>
					</video>
					</media>
					</file>
					<filter>
					<effect>
					<name></name>
					<effectid>GraphicAndType</effectid>
					<effectcategory>graphic</effectcategory>
					<effecttype>filter</effecttype>
					<mediatype>video</mediatype>
					<pproBypass>false</pproBypass>
					<parameter authoringApp="PremierePro">
					<parameterid>1</parameterid>
					<name></name>
					<hash>025b1101-ead6-0ca2-1feb-caf3000001fc</hash>
					<value>5AEAAAAAAABEMyIRDAAAAAAABgAKAAQABgAAAGQAAAAAAF4ASAAQAAwARABAADwAOAAAAAAAAAAAADQAMwAsAAAAKAAkACAAAAAAAAAAAAAAAAAAHAAAAAAAGgAAAAAAAAAUAAAAAAAAAAAAAAAAAAAAAAAAAAgAAAAAABsABwBeAAAAAAAAAUAAAABQAAAAbAAAAAIAAAAAAAEAAQAAAAAAQEEAAMBAAABAQAAAyEIAAAABIAAAAAIAAAACAAAAAAA2QwCASkTw/v//9P7///j+//8S////AAAAAAEAAAAEAAAAEQAAAEhHUFNvZWlLYWt1cG9wdGFpAAAAAQAAAAwAAAAIAAwABAAIAAgAAAAIAAAAUAAAAA8AAADvvIEAAAAAAAAAAAAAAAAAAAA2ACQAAAAgABwAAAAAABsAFAAAAAAAAAAAAAAAAAAAAAAAAAAAABAAAAAAAAAADAAAAAgABAA2AAAAAgAAABwAAAAcAAAAHAAAAAAAIEEAAAABaAAAAE3PAEOw////tP///wEAAAAUAAAAEAAaAAgABwAMAAAAEAAUABAAAAAAAAABHAAAAAAAoEEcAAAAAgAAAAAACgAIAAUABgAHAAoAAAAADAD//P///wQABAAEAAAACAAIAAYABwAIAAAAAAAMAA==</value>
					</parameter>
					<parameter authoringApp="PremierePro">
					<parameterid>2</parameterid>
					<name></name>
					<IsTimeVarying>false</IsTimeVarying>
					<ParameterControlType>11</ParameterControlType>
					<LowerBound>false</LowerBound>
					<UpperBound>false</UpperBound>
					<value>-91445760000000000,false,0,0,0,0,0,0</value>
					</parameter>
					<parameter authoringApp="PremierePro">
					<parameterid>3</parameterid>
					<name></name>
					<IsTimeVarying>false</IsTimeVarying>
					<value>-91445760000000000,0.5:0.5,0,0,0,0,0,0,5,4,0,0,0,0</value>
					</parameter>
					<parameter authoringApp="PremierePro">
					<parameterid>4</parameterid>
					<name></name>
					<IsTimeVarying>false</IsTimeVarying>
					<ParameterControlType>2</ParameterControlType>
					<LowerBound>0</LowerBound>
					<UpperBound>4000</UpperBound>
					<value>-91445760000000000,100.,0,0,0,0,0,0</value>
					</parameter>
					<parameter authoringApp="PremierePro">
					<parameterid>8</parameterid>
					<name></name>
					<IsTimeVarying>false</IsTimeVarying>
					<ParameterControlType>2</ParameterControlType>
					<LowerBound>0</LowerBound>
					<UpperBound>100</UpperBound>
					<value>-91445760000000000,100.,0,0,0,0,0,0</value>
					</parameter>
					</effect>
					</filter>
					<logginginfo>
					<description></description>
					<scene></scene>
					<shottake></shottake>
					<lognote></lognote>
					<good></good>
					<originalvideofilename></originalvideofilename>
					<originalaudiofilename></originalaudiofilename>
					</logginginfo>
					<colorinfo>
					<lut></lut>
					<lut1></lut1>
					<asc_sop></asc_sop>
					<asc_sat></asc_sat>
					<lut2></lut2>
					</colorinfo>
					<labels>
					</labels>
					</clipitem>
					<clipitem frameBlend="FALSE" id="clipitem-381">
					<masterclipid>masterclip-301</masterclipid>
					<name></name>
					<enabled>TRUE</enabled>
					<duration>2582774</duration>
					<rate>
					
					                                    <timebase>60</timebase>
					                                    <ntsc>TRUE</ntsc>
					                                
					</rate>
					<start>2681</start>
					<end>2741</end>
					<in>2681</in>
					<out>2741</out>
					<pproTicksIn>914456774963789</pproTicksIn>
					<pproTicksOut>914677708529577</pproTicksOut>
					<alphatype>straight</alphatype>
					<pixelaspectratio>square</pixelaspectratio>
					<anamorphic>FALSE</anamorphic>
					<file id="file-300">
					<name></name>
					<mediaSource>GraphicAndType</mediaSource>
					<rate>
					<timebase>60</timebase>
					<ntsc>TRUE</ntsc>
					</rate>
					<timecode>
					<rate>
					<timebase>60</timebase>
					<ntsc>TRUE</ntsc>
					</rate>
					<string>00:00:00:00</string>
					<frame>0</frame>
					<displayformat>NDF</displayformat>
					</timecode>
					<media>
					<video>
					<samplecharacteristics>
					<rate>
					<timebase>60</timebase>
					<ntsc>TRUE</ntsc>
					</rate>
					<width>1080</width>
					<height>1920</height>
					<anamorphic>FALSE</anamorphic>
					<pixelaspectratio>square</pixelaspectratio>
					<fielddominance>none</fielddominance>
					</samplecharacteristics>
					</video>
					</media>
					</file>
					<filter>
					<effect>
					<name></name>
					<effectid>GraphicAndType</effectid>
					<effectcategory>graphic</effectcategory>
					<effecttype>filter</effecttype>
					<mediatype>video</mediatype>
					<pproBypass>false</pproBypass>
					<parameter authoringApp="PremierePro">
					<parameterid>1</parameterid>
					<name></name>
					<hash>025b1101-ead6-0ca2-1feb-caf3000001fc</hash>
					<value>5AEAAAAAAABEMyIRDAAAAAAABgAKAAQABgAAAGQAAAAAAF4ASAAQAAwARABAADwAOAAAAAAAAAAAADQAMwAsAAAAKAAkACAAAAAAAAAAAAAAAAAAHAAAAAAAGgAAAAAAAAAUAAAAAAAAAAAAAAAAAAAAAAAAAAgAAAAAABsABwBeAAAAAAAAAUAAAABQAAAAbAAAAAIAAAAAAAEAAQAAAAAAQEEAAMBAAABAQAAAyEIAAAABIAAAAAIAAAACAAAAAAA2QwCASkTw/v//9P7///j+//8S////AAAAAAEAAAAEAAAAEQAAAEhHUFNvZWlLYWt1cG9wdGFpAAAAAQAAAAwAAAAIAAwABAAIAAgAAAAIAAAAUAAAAA8AAADvvIEAAAAAAAAAAAAAAAAAAAA2ACQAAAAgABwAAAAAABsAFAAAAAAAAAAAAAAAAAAAAAAAAAAAABAAAAAAAAAADAAAAAgABAA2AAAAAgAAABwAAAAcAAAAHAAAAAAAIEEAAAABaAAAAE3PAEOw////tP///wEAAAAUAAAAEAAaAAgABwAMAAAAEAAUABAAAAAAAAABHAAAAAAAoEEcAAAAAgAAAAAACgAIAAUABgAHAAoAAAAADAD//P///wQABAAEAAAACAAIAAYABwAIAAAAAAAMAA==</value>
					</parameter>
					<parameter authoringApp="PremierePro">
					<parameterid>2</parameterid>
					<name></name>
					<IsTimeVarying>false</IsTimeVarying>
					<ParameterControlType>11</ParameterControlType>
					<LowerBound>false</LowerBound>
					<UpperBound>false</UpperBound>
					<value>-91445760000000000,false,0,0,0,0,0,0</value>
					</parameter>
					<parameter authoringApp="PremierePro">
					<parameterid>3</parameterid>
					<name></name>
					<IsTimeVarying>false</IsTimeVarying>
					<value>-91445760000000000,0.5:0.5,0,0,0,0,0,0,5,4,0,0,0,0</value>
					</parameter>
					<parameter authoringApp="PremierePro">
					<parameterid>4</parameterid>
					<name></name>
					<IsTimeVarying>false</IsTimeVarying>
					<ParameterControlType>2</ParameterControlType>
					<LowerBound>0</LowerBound>
					<UpperBound>4000</UpperBound>
					<value>-91445760000000000,100.,0,0,0,0,0,0</value>
					</parameter>
					<parameter authoringApp="PremierePro">
					<parameterid>8</parameterid>
					<name></name>
					<IsTimeVarying>false</IsTimeVarying>
					<ParameterControlType>2</ParameterControlType>
					<LowerBound>0</LowerBound>
					<UpperBound>100</UpperBound>
					<value>-91445760000000000,100.,0,0,0,0,0,0</value>
					</parameter>
					</effect>
					</filter>
					<logginginfo>
					<description></description>
					<scene></scene>
					<shottake></shottake>
					<lognote></lognote>
					<good></good>
					<originalvideofilename></originalvideofilename>
					<originalaudiofilename></originalaudiofilename>
					</logginginfo>
					<colorinfo>
					<lut></lut>
					<lut1></lut1>
					<asc_sop></asc_sop>
					<asc_sat></asc_sat>
					<lut2></lut2>
					</colorinfo>
					<labels>
					</labels>
					</clipitem>
					<clipitem frameBlend="FALSE" id="clipitem-388">
					<masterclipid>masterclip-308</masterclipid>
					<name></name>
					<enabled>TRUE</enabled>
					<duration>2582774</duration>
					<rate>
					
					                                    <timebase>60</timebase>
					                                    <ntsc>TRUE</ntsc>
					                                
					</rate>
					<start>2747</start>
					<end>2813</end>
					<in>2747</in>
					<out>2813</out>
					<pproTicksIn>914456774963789</pproTicksIn>
					<pproTicksOut>914677708529577</pproTicksOut>
					<alphatype>straight</alphatype>
					<pixelaspectratio>square</pixelaspectratio>
					<anamorphic>FALSE</anamorphic>
					<file id="file-307">
					<name></name>
					<mediaSource>GraphicAndType</mediaSource>
					<rate>
					<timebase>60</timebase>
					<ntsc>TRUE</ntsc>
					</rate>
					<timecode>
					<rate>
					<timebase>60</timebase>
					<ntsc>TRUE</ntsc>
					</rate>
					<string>00:00:00:00</string>
					<frame>0</frame>
					<displayformat>NDF</displayformat>
					</timecode>
					<media>
					<video>
					<samplecharacteristics>
					<rate>
					<timebase>60</timebase>
					<ntsc>TRUE</ntsc>
					</rate>
					<width>1080</width>
					<height>1920</height>
					<anamorphic>FALSE</anamorphic>
					<pixelaspectratio>square</pixelaspectratio>
					<fielddominance>none</fielddominance>
					</samplecharacteristics>
					</video>
					</media>
					</file>
					<filter>
					<effect>
					<name></name>
					<effectid>GraphicAndType</effectid>
					<effectcategory>graphic</effectcategory>
					<effecttype>filter</effecttype>
					<mediatype>video</mediatype>
					<pproBypass>false</pproBypass>
					<parameter authoringApp="PremierePro">
					<parameterid>1</parameterid>
					<name></name>
					<hash>025b1101-ead6-0ca2-1feb-caf3000001fc</hash>
					<value>5AEAAAAAAABEMyIRDAAAAAAABgAKAAQABgAAAGQAAAAAAF4ASAAQAAwARABAADwAOAAAAAAAAAAAADQAMwAsAAAAKAAkACAAAAAAAAAAAAAAAAAAHAAAAAAAGgAAAAAAAAAUAAAAAAAAAAAAAAAAAAAAAAAAAAgAAAAAABsABwBeAAAAAAAAAUAAAABQAAAAbAAAAAIAAAAAAAEAAQAAAAAAQEEAAMBAAABAQAAAyEIAAAABIAAAAAIAAAACAAAAAAA2QwCASkTw/v//9P7///j+//8S////AAAAAAEAAAAEAAAAEQAAAEhHUFNvZWlLYWt1cG9wdGFpAAAAAQAAAAwAAAAIAAwABAAIAAgAAAAIAAAAUAAAAA8AAADvvIEAAAAAAAAAAAAAAAAAAAA2ACQAAAAgABwAAAAAABsAFAAAAAAAAAAAAAAAAAAAAAAAAAAAABAAAAAAAAAADAAAAAgABAA2AAAAAgAAABwAAAAcAAAAHAAAAAAAIEEAAAABaAAAAE3PAEOw////tP///wEAAAAUAAAAEAAaAAgABwAMAAAAEAAUABAAAAAAAAABHAAAAAAAoEEcAAAAAgAAAAAACgAIAAUABgAHAAoAAAAADAD//P///wQABAAEAAAACAAIAAYABwAIAAAAAAAMAA==</value>
					</parameter>
					<parameter authoringApp="PremierePro">
					<parameterid>2</parameterid>
					<name></name>
					<IsTimeVarying>false</IsTimeVarying>
					<ParameterControlType>11</ParameterControlType>
					<LowerBound>false</LowerBound>
					<UpperBound>false</UpperBound>
					<value>-91445760000000000,false,0,0,0,0,0,0</value>
					</parameter>
					<parameter authoringApp="PremierePro">
					<parameterid>3</parameterid>
					<name></name>
					<IsTimeVarying>false</IsTimeVarying>
					<value>-91445760000000000,0.5:0.5,0,0,0,0,0,0,5,4,0,0,0,0</value>
					</parameter>
					<parameter authoringApp="PremierePro">
					<parameterid>4</parameterid>
					<name></name>
					<IsTimeVarying>false</IsTimeVarying>
					<ParameterControlType>2</ParameterControlType>
					<LowerBound>0</LowerBound>
					<UpperBound>4000</UpperBound>
					<value>-91445760000000000,100.,0,0,0,0,0,0</value>
					</parameter>
					<parameter authoringApp="PremierePro">
					<parameterid>8</parameterid>
					<name></name>
					<IsTimeVarying>false</IsTimeVarying>
					<ParameterControlType>2</ParameterControlType>
					<LowerBound>0</LowerBound>
					<UpperBound>100</UpperBound>
					<value>-91445760000000000,100.,0,0,0,0,0,0</value>
					</parameter>
					</effect>
					</filter>
					<logginginfo>
					<description></description>
					<scene></scene>
					<shottake></shottake>
					<lognote></lognote>
					<good></good>
					<originalvideofilename></originalvideofilename>
					<originalaudiofilename></originalaudiofilename>
					</logginginfo>
					<colorinfo>
					<lut></lut>
					<lut1></lut1>
					<asc_sop></asc_sop>
					<asc_sat></asc_sat>
					<lut2></lut2>
					</colorinfo>
					<labels>
					</labels>
					</clipitem>
					<clipitem frameBlend="FALSE" id="clipitem-396">
					<masterclipid>masterclip-316</masterclipid>
					<name></name>
					<enabled>TRUE</enabled>
					<duration>2582774</duration>
					<rate>
					
					                                    <timebase>60</timebase>
					                                    <ntsc>TRUE</ntsc>
					                                
					</rate>
					<start>2813</start>
					<end>2879</end>
					<in>2813</in>
					<out>2879</out>
					<pproTicksIn>914456774963789</pproTicksIn>
					<pproTicksOut>914677708529577</pproTicksOut>
					<alphatype>straight</alphatype>
					<pixelaspectratio>square</pixelaspectratio>
					<anamorphic>FALSE</anamorphic>
					<file id="file-315">
					<name></name>
					<mediaSource>GraphicAndType</mediaSource>
					<rate>
					<timebase>60</timebase>
					<ntsc>TRUE</ntsc>
					</rate>
					<timecode>
					<rate>
					<timebase>60</timebase>
					<ntsc>TRUE</ntsc>
					</rate>
					<string>00:00:00:00</string>
					<frame>0</frame>
					<displayformat>NDF</displayformat>
					</timecode>
					<media>
					<video>
					<samplecharacteristics>
					<rate>
					<timebase>60</timebase>
					<ntsc>TRUE</ntsc>
					</rate>
					<width>1080</width>
					<height>1920</height>
					<anamorphic>FALSE</anamorphic>
					<pixelaspectratio>square</pixelaspectratio>
					<fielddominance>none</fielddominance>
					</samplecharacteristics>
					</video>
					</media>
					</file>
					<filter>
					<effect>
					<name></name>
					<effectid>GraphicAndType</effectid>
					<effectcategory>graphic</effectcategory>
					<effecttype>filter</effecttype>
					<mediatype>video</mediatype>
					<pproBypass>false</pproBypass>
					<parameter authoringApp="PremierePro">
					<parameterid>1</parameterid>
					<name></name>
					<hash>025b1101-ead6-0ca2-1feb-caf3000001fc</hash>
					<value>5AEAAAAAAABEMyIRDAAAAAAABgAKAAQABgAAAGQAAAAAAF4ASAAQAAwARABAADwAOAAAAAAAAAAAADQAMwAsAAAAKAAkACAAAAAAAAAAAAAAAAAAHAAAAAAAGgAAAAAAAAAUAAAAAAAAAAAAAAAAAAAAAAAAAAgAAAAAABsABwBeAAAAAAAAAUAAAABQAAAAbAAAAAIAAAAAAAEAAQAAAAAAQEEAAMBAAABAQAAAyEIAAAABIAAAAAIAAAACAAAAAAA2QwCASkTw/v//9P7///j+//8S////AAAAAAEAAAAEAAAAEQAAAEhHUFNvZWlLYWt1cG9wdGFpAAAAAQAAAAwAAAAIAAwABAAIAAgAAAAIAAAAUAAAAA8AAADvvIEAAAAAAAAAAAAAAAAAAAA2ACQAAAAgABwAAAAAABsAFAAAAAAAAAAAAAAAAAAAAAAAAAAAABAAAAAAAAAADAAAAAgABAA2AAAAAgAAABwAAAAcAAAAHAAAAAAAIEEAAAABaAAAAE3PAEOw////tP///wEAAAAUAAAAEAAaAAgABwAMAAAAEAAUABAAAAAAAAABHAAAAAAAoEEcAAAAAgAAAAAACgAIAAUABgAHAAoAAAAADAD//P///wQABAAEAAAACAAIAAYABwAIAAAAAAAMAA==</value>
					</parameter>
					<parameter authoringApp="PremierePro">
					<parameterid>2</parameterid>
					<name></name>
					<IsTimeVarying>false</IsTimeVarying>
					<ParameterControlType>11</ParameterControlType>
					<LowerBound>false</LowerBound>
					<UpperBound>false</UpperBound>
					<value>-91445760000000000,false,0,0,0,0,0,0</value>
					</parameter>
					<parameter authoringApp="PremierePro">
					<parameterid>3</parameterid>
					<name></name>
					<IsTimeVarying>false</IsTimeVarying>
					<value>-91445760000000000,0.5:0.5,0,0,0,0,0,0,5,4,0,0,0,0</value>
					</parameter>
					<parameter authoringApp="PremierePro">
					<parameterid>4</parameterid>
					<name></name>
					<IsTimeVarying>false</IsTimeVarying>
					<ParameterControlType>2</ParameterControlType>
					<LowerBound>0</LowerBound>
					<UpperBound>4000</UpperBound>
					<value>-91445760000000000,100.,0,0,0,0,0,0</value>
					</parameter>
					<parameter authoringApp="PremierePro">
					<parameterid>8</parameterid>
					<name></name>
					<IsTimeVarying>false</IsTimeVarying>
					<ParameterControlType>2</ParameterControlType>
					<LowerBound>0</LowerBound>
					<UpperBound>100</UpperBound>
					<value>-91445760000000000,100.,0,0,0,0,0,0</value>
					</parameter>
					</effect>
					</filter>
					<logginginfo>
					<description></description>
					<scene></scene>
					<shottake></shottake>
					<lognote></lognote>
					<good></good>
					<originalvideofilename></originalvideofilename>
					<originalaudiofilename></originalaudiofilename>
					</logginginfo>
					<colorinfo>
					<lut></lut>
					<lut1></lut1>
					<asc_sop></asc_sop>
					<asc_sat></asc_sat>
					<lut2></lut2>
					</colorinfo>
					<labels>
					</labels>
					</clipitem>
					<clipitem frameBlend="FALSE" id="clipitem-404">
					<masterclipid>masterclip-324</masterclipid>
					<name></name>
					<enabled>TRUE</enabled>
					<duration>2582774</duration>
					<rate>
					
					                                    <timebase>60</timebase>
					                                    <ntsc>TRUE</ntsc>
					                                
					</rate>
					<start>2909</start>
					<end>2969</end>
					<in>2909</in>
					<out>2969</out>
					<pproTicksIn>914456774963789</pproTicksIn>
					<pproTicksOut>914677708529577</pproTicksOut>
					<alphatype>straight</alphatype>
					<pixelaspectratio>square</pixelaspectratio>
					<anamorphic>FALSE</anamorphic>
					<file id="file-323">
					<name></name>
					<mediaSource>GraphicAndType</mediaSource>
					<rate>
					<timebase>60</timebase>
					<ntsc>TRUE</ntsc>
					</rate>
					<timecode>
					<rate>
					<timebase>60</timebase>
					<ntsc>TRUE</ntsc>
					</rate>
					<string>00:00:00:00</string>
					<frame>0</frame>
					<displayformat>NDF</displayformat>
					</timecode>
					<media>
					<video>
					<samplecharacteristics>
					<rate>
					<timebase>60</timebase>
					<ntsc>TRUE</ntsc>
					</rate>
					<width>1080</width>
					<height>1920</height>
					<anamorphic>FALSE</anamorphic>
					<pixelaspectratio>square</pixelaspectratio>
					<fielddominance>none</fielddominance>
					</samplecharacteristics>
					</video>
					</media>
					</file>
					<filter>
					<effect>
					<name></name>
					<effectid>GraphicAndType</effectid>
					<effectcategory>graphic</effectcategory>
					<effecttype>filter</effecttype>
					<mediatype>video</mediatype>
					<pproBypass>false</pproBypass>
					<parameter authoringApp="PremierePro">
					<parameterid>1</parameterid>
					<name></name>
					<hash>025b1101-ead6-0ca2-1feb-caf3000001fc</hash>
					<value>5AEAAAAAAABEMyIRDAAAAAAABgAKAAQABgAAAGQAAAAAAF4ASAAQAAwARABAADwAOAAAAAAAAAAAADQAMwAsAAAAKAAkACAAAAAAAAAAAAAAAAAAHAAAAAAAGgAAAAAAAAAUAAAAAAAAAAAAAAAAAAAAAAAAAAgAAAAAABsABwBeAAAAAAAAAUAAAABQAAAAbAAAAAIAAAAAAAEAAQAAAAAAQEEAAMBAAABAQAAAyEIAAAABIAAAAAIAAAACAAAAAAA2QwCASkTw/v//9P7///j+//8S////AAAAAAEAAAAEAAAAEQAAAEhHUFNvZWlLYWt1cG9wdGFpAAAAAQAAAAwAAAAIAAwABAAIAAgAAAAIAAAAUAAAAA8AAADvvIEAAAAAAAAAAAAAAAAAAAA2ACQAAAAgABwAAAAAABsAFAAAAAAAAAAAAAAAAAAAAAAAAAAAABAAAAAAAAAADAAAAAgABAA2AAAAAgAAABwAAAAcAAAAHAAAAAAAIEEAAAABaAAAAE3PAEOw////tP///wEAAAAUAAAAEAAaAAgABwAMAAAAEAAUABAAAAAAAAABHAAAAAAAoEEcAAAAAgAAAAAACgAIAAUABgAHAAoAAAAADAD//P///wQABAAEAAAACAAIAAYABwAIAAAAAAAMAA==</value>
					</parameter>
					<parameter authoringApp="PremierePro">
					<parameterid>2</parameterid>
					<name></name>
					<IsTimeVarying>false</IsTimeVarying>
					<ParameterControlType>11</ParameterControlType>
					<LowerBound>false</LowerBound>
					<UpperBound>false</UpperBound>
					<value>-91445760000000000,false,0,0,0,0,0,0</value>
					</parameter>
					<parameter authoringApp="PremierePro">
					<parameterid>3</parameterid>
					<name></name>
					<IsTimeVarying>false</IsTimeVarying>
					<value>-91445760000000000,0.5:0.5,0,0,0,0,0,0,5,4,0,0,0,0</value>
					</parameter>
					<parameter authoringApp="PremierePro">
					<parameterid>4</parameterid>
					<name></name>
					<IsTimeVarying>false</IsTimeVarying>
					<ParameterControlType>2</ParameterControlType>
					<LowerBound>0</LowerBound>
					<UpperBound>4000</UpperBound>
					<value>-91445760000000000,100.,0,0,0,0,0,0</value>
					</parameter>
					<parameter authoringApp="PremierePro">
					<parameterid>8</parameterid>
					<name></name>
					<IsTimeVarying>false</IsTimeVarying>
					<ParameterControlType>2</ParameterControlType>
					<LowerBound>0</LowerBound>
					<UpperBound>100</UpperBound>
					<value>-91445760000000000,100.,0,0,0,0,0,0</value>
					</parameter>
					</effect>
					</filter>
					<logginginfo>
					<description></description>
					<scene></scene>
					<shottake></shottake>
					<lognote></lognote>
					<good></good>
					<originalvideofilename></originalvideofilename>
					<originalaudiofilename></originalaudiofilename>
					</logginginfo>
					<colorinfo>
					<lut></lut>
					<lut1></lut1>
					<asc_sop></asc_sop>
					<asc_sat></asc_sat>
					<lut2></lut2>
					</colorinfo>
					<labels>
					</labels>
					</clipitem>
					<clipitem frameBlend="FALSE" id="clipitem-411">
					<masterclipid>masterclip-331</masterclipid>
					<name></name>
					<enabled>TRUE</enabled>
					<duration>2582774</duration>
					<rate>
					
					                                    <timebase>60</timebase>
					                                    <ntsc>TRUE</ntsc>
					                                
					</rate>
					<start>2987</start>
					<end>3047</end>
					<in>2987</in>
					<out>3047</out>
					<pproTicksIn>914456774963789</pproTicksIn>
					<pproTicksOut>914677708529577</pproTicksOut>
					<alphatype>straight</alphatype>
					<pixelaspectratio>square</pixelaspectratio>
					<anamorphic>FALSE</anamorphic>
					<file id="file-330">
					<name></name>
					<mediaSource>GraphicAndType</mediaSource>
					<rate>
					<timebase>60</timebase>
					<ntsc>TRUE</ntsc>
					</rate>
					<timecode>
					<rate>
					<timebase>60</timebase>
					<ntsc>TRUE</ntsc>
					</rate>
					<string>00:00:00:00</string>
					<frame>0</frame>
					<displayformat>NDF</displayformat>
					</timecode>
					<media>
					<video>
					<samplecharacteristics>
					<rate>
					<timebase>60</timebase>
					<ntsc>TRUE</ntsc>
					</rate>
					<width>1080</width>
					<height>1920</height>
					<anamorphic>FALSE</anamorphic>
					<pixelaspectratio>square</pixelaspectratio>
					<fielddominance>none</fielddominance>
					</samplecharacteristics>
					</video>
					</media>
					</file>
					<filter>
					<effect>
					<name></name>
					<effectid>GraphicAndType</effectid>
					<effectcategory>graphic</effectcategory>
					<effecttype>filter</effecttype>
					<mediatype>video</mediatype>
					<pproBypass>false</pproBypass>
					<parameter authoringApp="PremierePro">
					<parameterid>1</parameterid>
					<name></name>
					<hash>025b1101-ead6-0ca2-1feb-caf3000001fc</hash>
					<value>5AEAAAAAAABEMyIRDAAAAAAABgAKAAQABgAAAGQAAAAAAF4ASAAQAAwARABAADwAOAAAAAAAAAAAADQAMwAsAAAAKAAkACAAAAAAAAAAAAAAAAAAHAAAAAAAGgAAAAAAAAAUAAAAAAAAAAAAAAAAAAAAAAAAAAgAAAAAABsABwBeAAAAAAAAAUAAAABQAAAAbAAAAAIAAAAAAAEAAQAAAAAAQEEAAMBAAABAQAAAyEIAAAABIAAAAAIAAAACAAAAAAA2QwCASkTw/v//9P7///j+//8S////AAAAAAEAAAAEAAAAEQAAAEhHUFNvZWlLYWt1cG9wdGFpAAAAAQAAAAwAAAAIAAwABAAIAAgAAAAIAAAAUAAAAA8AAADvvIEAAAAAAAAAAAAAAAAAAAA2ACQAAAAgABwAAAAAABsAFAAAAAAAAAAAAAAAAAAAAAAAAAAAABAAAAAAAAAADAAAAAgABAA2AAAAAgAAABwAAAAcAAAAHAAAAAAAIEEAAAABaAAAAE3PAEOw////tP///wEAAAAUAAAAEAAaAAgABwAMAAAAEAAUABAAAAAAAAABHAAAAAAAoEEcAAAAAgAAAAAACgAIAAUABgAHAAoAAAAADAD//P///wQABAAEAAAACAAIAAYABwAIAAAAAAAMAA==</value>
					</parameter>
					<parameter authoringApp="PremierePro">
					<parameterid>2</parameterid>
					<name></name>
					<IsTimeVarying>false</IsTimeVarying>
					<ParameterControlType>11</ParameterControlType>
					<LowerBound>false</LowerBound>
					<UpperBound>false</UpperBound>
					<value>-91445760000000000,false,0,0,0,0,0,0</value>
					</parameter>
					<parameter authoringApp="PremierePro">
					<parameterid>3</parameterid>
					<name></name>
					<IsTimeVarying>false</IsTimeVarying>
					<value>-91445760000000000,0.5:0.5,0,0,0,0,0,0,5,4,0,0,0,0</value>
					</parameter>
					<parameter authoringApp="PremierePro">
					<parameterid>4</parameterid>
					<name></name>
					<IsTimeVarying>false</IsTimeVarying>
					<ParameterControlType>2</ParameterControlType>
					<LowerBound>0</LowerBound>
					<UpperBound>4000</UpperBound>
					<value>-91445760000000000,100.,0,0,0,0,0,0</value>
					</parameter>
					<parameter authoringApp="PremierePro">
					<parameterid>8</parameterid>
					<name></name>
					<IsTimeVarying>false</IsTimeVarying>
					<ParameterControlType>2</ParameterControlType>
					<LowerBound>0</LowerBound>
					<UpperBound>100</UpperBound>
					<value>-91445760000000000,100.,0,0,0,0,0,0</value>
					</parameter>
					</effect>
					</filter>
					<logginginfo>
					<description></description>
					<scene></scene>
					<shottake></shottake>
					<lognote></lognote>
					<good></good>
					<originalvideofilename></originalvideofilename>
					<originalaudiofilename></originalaudiofilename>
					</logginginfo>
					<colorinfo>
					<lut></lut>
					<lut1></lut1>
					<asc_sop></asc_sop>
					<asc_sat></asc_sat>
					<lut2></lut2>
					</colorinfo>
					<labels>
					</labels>
					</clipitem>
					<clipitem frameBlend="FALSE" id="clipitem-424">
					<masterclipid>masterclip-344</masterclipid>
					<name></name>
					<enabled>TRUE</enabled>
					<duration>2582774</duration>
					<rate>
					
					                                    <timebase>60</timebase>
					                                    <ntsc>TRUE</ntsc>
					                                
					</rate>
					<start>3125</start>
					<end>3185</end>
					<in>3125</in>
					<out>3185</out>
					<pproTicksIn>914456774963789</pproTicksIn>
					<pproTicksOut>914677708529577</pproTicksOut>
					<alphatype>straight</alphatype>
					<pixelaspectratio>square</pixelaspectratio>
					<anamorphic>FALSE</anamorphic>
					<file id="file-343">
					<name></name>
					<mediaSource>GraphicAndType</mediaSource>
					<rate>
					<timebase>60</timebase>
					<ntsc>TRUE</ntsc>
					</rate>
					<timecode>
					<rate>
					<timebase>60</timebase>
					<ntsc>TRUE</ntsc>
					</rate>
					<string>00:00:00:00</string>
					<frame>0</frame>
					<displayformat>NDF</displayformat>
					</timecode>
					<media>
					<video>
					<samplecharacteristics>
					<rate>
					<timebase>60</timebase>
					<ntsc>TRUE</ntsc>
					</rate>
					<width>1080</width>
					<height>1920</height>
					<anamorphic>FALSE</anamorphic>
					<pixelaspectratio>square</pixelaspectratio>
					<fielddominance>none</fielddominance>
					</samplecharacteristics>
					</video>
					</media>
					</file>
					<filter>
					<effect>
					<name></name>
					<effectid>GraphicAndType</effectid>
					<effectcategory>graphic</effectcategory>
					<effecttype>filter</effecttype>
					<mediatype>video</mediatype>
					<pproBypass>false</pproBypass>
					<parameter authoringApp="PremierePro">
					<parameterid>1</parameterid>
					<name></name>
					<hash>025b1101-ead6-0ca2-1feb-caf3000001fc</hash>
					<value>5AEAAAAAAABEMyIRDAAAAAAABgAKAAQABgAAAGQAAAAAAF4ASAAQAAwARABAADwAOAAAAAAAAAAAADQAMwAsAAAAKAAkACAAAAAAAAAAAAAAAAAAHAAAAAAAGgAAAAAAAAAUAAAAAAAAAAAAAAAAAAAAAAAAAAgAAAAAABsABwBeAAAAAAAAAUAAAABQAAAAbAAAAAIAAAAAAAEAAQAAAAAAQEEAAMBAAABAQAAAyEIAAAABIAAAAAIAAAACAAAAAAA2QwCASkTw/v//9P7///j+//8S////AAAAAAEAAAAEAAAAEQAAAEhHUFNvZWlLYWt1cG9wdGFpAAAAAQAAAAwAAAAIAAwABAAIAAgAAAAIAAAAUAAAAA8AAADvvIEAAAAAAAAAAAAAAAAAAAA2ACQAAAAgABwAAAAAABsAFAAAAAAAAAAAAAAAAAAAAAAAAAAAABAAAAAAAAAADAAAAAgABAA2AAAAAgAAABwAAAAcAAAAHAAAAAAAIEEAAAABaAAAAE3PAEOw////tP///wEAAAAUAAAAEAAaAAgABwAMAAAAEAAUABAAAAAAAAABHAAAAAAAoEEcAAAAAgAAAAAACgAIAAUABgAHAAoAAAAADAD//P///wQABAAEAAAACAAIAAYABwAIAAAAAAAMAA==</value>
					</parameter>
					<parameter authoringApp="PremierePro">
					<parameterid>2</parameterid>
					<name></name>
					<IsTimeVarying>false</IsTimeVarying>
					<ParameterControlType>11</ParameterControlType>
					<LowerBound>false</LowerBound>
					<UpperBound>false</UpperBound>
					<value>-91445760000000000,false,0,0,0,0,0,0</value>
					</parameter>
					<parameter authoringApp="PremierePro">
					<parameterid>3</parameterid>
					<name></name>
					<IsTimeVarying>false</IsTimeVarying>
					<value>-91445760000000000,0.5:0.5,0,0,0,0,0,0,5,4,0,0,0,0</value>
					</parameter>
					<parameter authoringApp="PremierePro">
					<parameterid>4</parameterid>
					<name></name>
					<IsTimeVarying>false</IsTimeVarying>
					<ParameterControlType>2</ParameterControlType>
					<LowerBound>0</LowerBound>
					<UpperBound>4000</UpperBound>
					<value>-91445760000000000,100.,0,0,0,0,0,0</value>
					</parameter>
					<parameter authoringApp="PremierePro">
					<parameterid>8</parameterid>
					<name></name>
					<IsTimeVarying>false</IsTimeVarying>
					<ParameterControlType>2</ParameterControlType>
					<LowerBound>0</LowerBound>
					<UpperBound>100</UpperBound>
					<value>-91445760000000000,100.,0,0,0,0,0,0</value>
					</parameter>
					</effect>
					</filter>
					<logginginfo>
					<description></description>
					<scene></scene>
					<shottake></shottake>
					<lognote></lognote>
					<good></good>
					<originalvideofilename></originalvideofilename>
					<originalaudiofilename></originalaudiofilename>
					</logginginfo>
					<colorinfo>
					<lut></lut>
					<lut1></lut1>
					<asc_sop></asc_sop>
					<asc_sat></asc_sat>
					<lut2></lut2>
					</colorinfo>
					<labels>
					</labels>
					</clipitem>
					<clipitem frameBlend="FALSE" id="clipitem-432">
					<masterclipid>masterclip-352</masterclipid>
					<name></name>
					<enabled>TRUE</enabled>
					<duration>2582774</duration>
					<rate>
					
					                                    <timebase>60</timebase>
					                                    <ntsc>TRUE</ntsc>
					                                
					</rate>
					<start>3197</start>
					<end>3263</end>
					<in>3197</in>
					<out>3263</out>
					<pproTicksIn>914456774963789</pproTicksIn>
					<pproTicksOut>914677708529577</pproTicksOut>
					<alphatype>straight</alphatype>
					<pixelaspectratio>square</pixelaspectratio>
					<anamorphic>FALSE</anamorphic>
					<file id="file-351">
					<name></name>
					<mediaSource>GraphicAndType</mediaSource>
					<rate>
					<timebase>60</timebase>
					<ntsc>TRUE</ntsc>
					</rate>
					<timecode>
					<rate>
					<timebase>60</timebase>
					<ntsc>TRUE</ntsc>
					</rate>
					<string>00:00:00:00</string>
					<frame>0</frame>
					<displayformat>NDF</displayformat>
					</timecode>
					<media>
					<video>
					<samplecharacteristics>
					<rate>
					<timebase>60</timebase>
					<ntsc>TRUE</ntsc>
					</rate>
					<width>1080</width>
					<height>1920</height>
					<anamorphic>FALSE</anamorphic>
					<pixelaspectratio>square</pixelaspectratio>
					<fielddominance>none</fielddominance>
					</samplecharacteristics>
					</video>
					</media>
					</file>
					<filter>
					<effect>
					<name></name>
					<effectid>GraphicAndType</effectid>
					<effectcategory>graphic</effectcategory>
					<effecttype>filter</effecttype>
					<mediatype>video</mediatype>
					<pproBypass>false</pproBypass>
					<parameter authoringApp="PremierePro">
					<parameterid>1</parameterid>
					<name></name>
					<hash>025b1101-ead6-0ca2-1feb-caf3000001fc</hash>
					<value>5AEAAAAAAABEMyIRDAAAAAAABgAKAAQABgAAAGQAAAAAAF4ASAAQAAwARABAADwAOAAAAAAAAAAAADQAMwAsAAAAKAAkACAAAAAAAAAAAAAAAAAAHAAAAAAAGgAAAAAAAAAUAAAAAAAAAAAAAAAAAAAAAAAAAAgAAAAAABsABwBeAAAAAAAAAUAAAABQAAAAbAAAAAIAAAAAAAEAAQAAAAAAQEEAAMBAAABAQAAAyEIAAAABIAAAAAIAAAACAAAAAAA2QwCASkTw/v//9P7///j+//8S////AAAAAAEAAAAEAAAAEQAAAEhHUFNvZWlLYWt1cG9wdGFpAAAAAQAAAAwAAAAIAAwABAAIAAgAAAAIAAAAUAAAAA8AAADvvIEAAAAAAAAAAAAAAAAAAAA2ACQAAAAgABwAAAAAABsAFAAAAAAAAAAAAAAAAAAAAAAAAAAAABAAAAAAAAAADAAAAAgABAA2AAAAAgAAABwAAAAcAAAAHAAAAAAAIEEAAAABaAAAAE3PAEOw////tP///wEAAAAUAAAAEAAaAAgABwAMAAAAEAAUABAAAAAAAAABHAAAAAAAoEEcAAAAAgAAAAAACgAIAAUABgAHAAoAAAAADAD//P///wQABAAEAAAACAAIAAYABwAIAAAAAAAMAA==</value>
					</parameter>
					<parameter authoringApp="PremierePro">
					<parameterid>2</parameterid>
					<name></name>
					<IsTimeVarying>false</IsTimeVarying>
					<ParameterControlType>11</ParameterControlType>
					<LowerBound>false</LowerBound>
					<UpperBound>false</UpperBound>
					<value>-91445760000000000,false,0,0,0,0,0,0</value>
					</parameter>
					<parameter authoringApp="PremierePro">
					<parameterid>3</parameterid>
					<name></name>
					<IsTimeVarying>false</IsTimeVarying>
					<value>-91445760000000000,0.5:0.5,0,0,0,0,0,0,5,4,0,0,0,0</value>
					</parameter>
					<parameter authoringApp="PremierePro">
					<parameterid>4</parameterid>
					<name></name>
					<IsTimeVarying>false</IsTimeVarying>
					<ParameterControlType>2</ParameterControlType>
					<LowerBound>0</LowerBound>
					<UpperBound>4000</UpperBound>
					<value>-91445760000000000,100.,0,0,0,0,0,0</value>
					</parameter>
					<parameter authoringApp="PremierePro">
					<parameterid>8</parameterid>
					<name></name>
					<IsTimeVarying>false</IsTimeVarying>
					<ParameterControlType>2</ParameterControlType>
					<LowerBound>0</LowerBound>
					<UpperBound>100</UpperBound>
					<value>-91445760000000000,100.,0,0,0,0,0,0</value>
					</parameter>
					</effect>
					</filter>
					<logginginfo>
					<description></description>
					<scene></scene>
					<shottake></shottake>
					<lognote></lognote>
					<good></good>
					<originalvideofilename></originalvideofilename>
					<originalaudiofilename></originalaudiofilename>
					</logginginfo>
					<colorinfo>
					<lut></lut>
					<lut1></lut1>
					<asc_sop></asc_sop>
					<asc_sat></asc_sat>
					<lut2></lut2>
					</colorinfo>
					<labels>
					</labels>
					</clipitem>
					<clipitem frameBlend="FALSE" id="clipitem-443">
					<masterclipid>masterclip-363</masterclipid>
					<name></name>
					<enabled>TRUE</enabled>
					<duration>2582774</duration>
					<rate>
					
					                                    <timebase>60</timebase>
					                                    <ntsc>TRUE</ntsc>
					                                
					</rate>
					<start>3275</start>
					<end>3341</end>
					<in>3275</in>
					<out>3341</out>
					<pproTicksIn>914456774963789</pproTicksIn>
					<pproTicksOut>914677708529577</pproTicksOut>
					<alphatype>straight</alphatype>
					<pixelaspectratio>square</pixelaspectratio>
					<anamorphic>FALSE</anamorphic>
					<file id="file-362">
					<name></name>
					<mediaSource>GraphicAndType</mediaSource>
					<rate>
					<timebase>60</timebase>
					<ntsc>TRUE</ntsc>
					</rate>
					<timecode>
					<rate>
					<timebase>60</timebase>
					<ntsc>TRUE</ntsc>
					</rate>
					<string>00:00:00:00</string>
					<frame>0</frame>
					<displayformat>NDF</displayformat>
					</timecode>
					<media>
					<video>
					<samplecharacteristics>
					<rate>
					<timebase>60</timebase>
					<ntsc>TRUE</ntsc>
					</rate>
					<width>1080</width>
					<height>1920</height>
					<anamorphic>FALSE</anamorphic>
					<pixelaspectratio>square</pixelaspectratio>
					<fielddominance>none</fielddominance>
					</samplecharacteristics>
					</video>
					</media>
					</file>
					<filter>
					<effect>
					<name></name>
					<effectid>GraphicAndType</effectid>
					<effectcategory>graphic</effectcategory>
					<effecttype>filter</effecttype>
					<mediatype>video</mediatype>
					<pproBypass>false</pproBypass>
					<parameter authoringApp="PremierePro">
					<parameterid>1</parameterid>
					<name></name>
					<hash>025b1101-ead6-0ca2-1feb-caf3000001fc</hash>
					<value>5AEAAAAAAABEMyIRDAAAAAAABgAKAAQABgAAAGQAAAAAAF4ASAAQAAwARABAADwAOAAAAAAAAAAAADQAMwAsAAAAKAAkACAAAAAAAAAAAAAAAAAAHAAAAAAAGgAAAAAAAAAUAAAAAAAAAAAAAAAAAAAAAAAAAAgAAAAAABsABwBeAAAAAAAAAUAAAABQAAAAbAAAAAIAAAAAAAEAAQAAAAAAQEEAAMBAAABAQAAAyEIAAAABIAAAAAIAAAACAAAAAAA2QwCASkTw/v//9P7///j+//8S////AAAAAAEAAAAEAAAAEQAAAEhHUFNvZWlLYWt1cG9wdGFpAAAAAQAAAAwAAAAIAAwABAAIAAgAAAAIAAAAUAAAAA8AAADvvIEAAAAAAAAAAAAAAAAAAAA2ACQAAAAgABwAAAAAABsAFAAAAAAAAAAAAAAAAAAAAAAAAAAAABAAAAAAAAAADAAAAAgABAA2AAAAAgAAABwAAAAcAAAAHAAAAAAAIEEAAAABaAAAAE3PAEOw////tP///wEAAAAUAAAAEAAaAAgABwAMAAAAEAAUABAAAAAAAAABHAAAAAAAoEEcAAAAAgAAAAAACgAIAAUABgAHAAoAAAAADAD//P///wQABAAEAAAACAAIAAYABwAIAAAAAAAMAA==</value>
					</parameter>
					<parameter authoringApp="PremierePro">
					<parameterid>2</parameterid>
					<name></name>
					<IsTimeVarying>false</IsTimeVarying>
					<ParameterControlType>11</ParameterControlType>
					<LowerBound>false</LowerBound>
					<UpperBound>false</UpperBound>
					<value>-91445760000000000,false,0,0,0,0,0,0</value>
					</parameter>
					<parameter authoringApp="PremierePro">
					<parameterid>3</parameterid>
					<name></name>
					<IsTimeVarying>false</IsTimeVarying>
					<value>-91445760000000000,0.5:0.5,0,0,0,0,0,0,5,4,0,0,0,0</value>
					</parameter>
					<parameter authoringApp="PremierePro">
					<parameterid>4</parameterid>
					<name></name>
					<IsTimeVarying>false</IsTimeVarying>
					<ParameterControlType>2</ParameterControlType>
					<LowerBound>0</LowerBound>
					<UpperBound>4000</UpperBound>
					<value>-91445760000000000,100.,0,0,0,0,0,0</value>
					</parameter>
					<parameter authoringApp="PremierePro">
					<parameterid>8</parameterid>
					<name></name>
					<IsTimeVarying>false</IsTimeVarying>
					<ParameterControlType>2</ParameterControlType>
					<LowerBound>0</LowerBound>
					<UpperBound>100</UpperBound>
					<value>-91445760000000000,100.,0,0,0,0,0,0</value>
					</parameter>
					</effect>
					</filter>
					<logginginfo>
					<description></description>
					<scene></scene>
					<shottake></shottake>
					<lognote></lognote>
					<good></good>
					<originalvideofilename></originalvideofilename>
					<originalaudiofilename></originalaudiofilename>
					</logginginfo>
					<colorinfo>
					<lut></lut>
					<lut1></lut1>
					<asc_sop></asc_sop>
					<asc_sat></asc_sat>
					<lut2></lut2>
					</colorinfo>
					<labels>
					</labels>
					</clipitem>
					<clipitem frameBlend="FALSE" id="clipitem-450">
					<masterclipid>masterclip-370</masterclipid>
					<name></name>
					<enabled>TRUE</enabled>
					<duration>2582774</duration>
					<rate>
					
					                                    <timebase>60</timebase>
					                                    <ntsc>TRUE</ntsc>
					                                
					</rate>
					<start>3341</start>
					<end>3407</end>
					<in>3341</in>
					<out>3407</out>
					<pproTicksIn>914456774963789</pproTicksIn>
					<pproTicksOut>914677708529577</pproTicksOut>
					<alphatype>straight</alphatype>
					<pixelaspectratio>square</pixelaspectratio>
					<anamorphic>FALSE</anamorphic>
					<file id="file-369">
					<name></name>
					<mediaSource>GraphicAndType</mediaSource>
					<rate>
					<timebase>60</timebase>
					<ntsc>TRUE</ntsc>
					</rate>
					<timecode>
					<rate>
					<timebase>60</timebase>
					<ntsc>TRUE</ntsc>
					</rate>
					<string>00:00:00:00</string>
					<frame>0</frame>
					<displayformat>NDF</displayformat>
					</timecode>
					<media>
					<video>
					<samplecharacteristics>
					<rate>
					<timebase>60</timebase>
					<ntsc>TRUE</ntsc>
					</rate>
					<width>1080</width>
					<height>1920</height>
					<anamorphic>FALSE</anamorphic>
					<pixelaspectratio>square</pixelaspectratio>
					<fielddominance>none</fielddominance>
					</samplecharacteristics>
					</video>
					</media>
					</file>
					<filter>
					<effect>
					<name></name>
					<effectid>GraphicAndType</effectid>
					<effectcategory>graphic</effectcategory>
					<effecttype>filter</effecttype>
					<mediatype>video</mediatype>
					<pproBypass>false</pproBypass>
					<parameter authoringApp="PremierePro">
					<parameterid>1</parameterid>
					<name></name>
					<hash>025b1101-ead6-0ca2-1feb-caf3000001fc</hash>
					<value>5AEAAAAAAABEMyIRDAAAAAAABgAKAAQABgAAAGQAAAAAAF4ASAAQAAwARABAADwAOAAAAAAAAAAAADQAMwAsAAAAKAAkACAAAAAAAAAAAAAAAAAAHAAAAAAAGgAAAAAAAAAUAAAAAAAAAAAAAAAAAAAAAAAAAAgAAAAAABsABwBeAAAAAAAAAUAAAABQAAAAbAAAAAIAAAAAAAEAAQAAAAAAQEEAAMBAAABAQAAAyEIAAAABIAAAAAIAAAACAAAAAAA2QwCASkTw/v//9P7///j+//8S////AAAAAAEAAAAEAAAAEQAAAEhHUFNvZWlLYWt1cG9wdGFpAAAAAQAAAAwAAAAIAAwABAAIAAgAAAAIAAAAUAAAAA8AAADvvIEAAAAAAAAAAAAAAAAAAAA2ACQAAAAgABwAAAAAABsAFAAAAAAAAAAAAAAAAAAAAAAAAAAAABAAAAAAAAAADAAAAAgABAA2AAAAAgAAABwAAAAcAAAAHAAAAAAAIEEAAAABaAAAAE3PAEOw////tP///wEAAAAUAAAAEAAaAAgABwAMAAAAEAAUABAAAAAAAAABHAAAAAAAoEEcAAAAAgAAAAAACgAIAAUABgAHAAoAAAAADAD//P///wQABAAEAAAACAAIAAYABwAIAAAAAAAMAA==</value>
					</parameter>
					<parameter authoringApp="PremierePro">
					<parameterid>2</parameterid>
					<name></name>
					<IsTimeVarying>false</IsTimeVarying>
					<ParameterControlType>11</ParameterControlType>
					<LowerBound>false</LowerBound>
					<UpperBound>false</UpperBound>
					<value>-91445760000000000,false,0,0,0,0,0,0</value>
					</parameter>
					<parameter authoringApp="PremierePro">
					<parameterid>3</parameterid>
					<name></name>
					<IsTimeVarying>false</IsTimeVarying>
					<value>-91445760000000000,0.5:0.5,0,0,0,0,0,0,5,4,0,0,0,0</value>
					</parameter>
					<parameter authoringApp="PremierePro">
					<parameterid>4</parameterid>
					<name></name>
					<IsTimeVarying>false</IsTimeVarying>
					<ParameterControlType>2</ParameterControlType>
					<LowerBound>0</LowerBound>
					<UpperBound>4000</UpperBound>
					<value>-91445760000000000,100.,0,0,0,0,0,0</value>
					</parameter>
					<parameter authoringApp="PremierePro">
					<parameterid>8</parameterid>
					<name></name>
					<IsTimeVarying>false</IsTimeVarying>
					<ParameterControlType>2</ParameterControlType>
					<LowerBound>0</LowerBound>
					<UpperBound>100</UpperBound>
					<value>-91445760000000000,100.,0,0,0,0,0,0</value>
					</parameter>
					</effect>
					</filter>
					<logginginfo>
					<description></description>
					<scene></scene>
					<shottake></shottake>
					<lognote></lognote>
					<good></good>
					<originalvideofilename></originalvideofilename>
					<originalaudiofilename></originalaudiofilename>
					</logginginfo>
					<colorinfo>
					<lut></lut>
					<lut1></lut1>
					<asc_sop></asc_sop>
					<asc_sat></asc_sat>
					<lut2></lut2>
					</colorinfo>
					<labels>
					</labels>
					</clipitem>
					<clipitem frameBlend="FALSE" id="clipitem-457">
					<masterclipid>masterclip-377</masterclipid>
					<name></name>
					<enabled>TRUE</enabled>
					<duration>2582774</duration>
					<rate>
					
					                                    <timebase>60</timebase>
					                                    <ntsc>TRUE</ntsc>
					                                
					</rate>
					<start>3425</start>
					<end>3485</end>
					<in>3425</in>
					<out>3485</out>
					<pproTicksIn>914456774963789</pproTicksIn>
					<pproTicksOut>914677708529577</pproTicksOut>
					<alphatype>straight</alphatype>
					<pixelaspectratio>square</pixelaspectratio>
					<anamorphic>FALSE</anamorphic>
					<file id="file-376">
					<name></name>
					<mediaSource>GraphicAndType</mediaSource>
					<rate>
					<timebase>60</timebase>
					<ntsc>TRUE</ntsc>
					</rate>
					<timecode>
					<rate>
					<timebase>60</timebase>
					<ntsc>TRUE</ntsc>
					</rate>
					<string>00:00:00:00</string>
					<frame>0</frame>
					<displayformat>NDF</displayformat>
					</timecode>
					<media>
					<video>
					<samplecharacteristics>
					<rate>
					<timebase>60</timebase>
					<ntsc>TRUE</ntsc>
					</rate>
					<width>1080</width>
					<height>1920</height>
					<anamorphic>FALSE</anamorphic>
					<pixelaspectratio>square</pixelaspectratio>
					<fielddominance>none</fielddominance>
					</samplecharacteristics>
					</video>
					</media>
					</file>
					<filter>
					<effect>
					<name></name>
					<effectid>GraphicAndType</effectid>
					<effectcategory>graphic</effectcategory>
					<effecttype>filter</effecttype>
					<mediatype>video</mediatype>
					<pproBypass>false</pproBypass>
					<parameter authoringApp="PremierePro">
					<parameterid>1</parameterid>
					<name></name>
					<hash>025b1101-ead6-0ca2-1feb-caf3000001fc</hash>
					<value>5AEAAAAAAABEMyIRDAAAAAAABgAKAAQABgAAAGQAAAAAAF4ASAAQAAwARABAADwAOAAAAAAAAAAAADQAMwAsAAAAKAAkACAAAAAAAAAAAAAAAAAAHAAAAAAAGgAAAAAAAAAUAAAAAAAAAAAAAAAAAAAAAAAAAAgAAAAAABsABwBeAAAAAAAAAUAAAABQAAAAbAAAAAIAAAAAAAEAAQAAAAAAQEEAAMBAAABAQAAAyEIAAAABIAAAAAIAAAACAAAAAAA2QwCASkTw/v//9P7///j+//8S////AAAAAAEAAAAEAAAAEQAAAEhHUFNvZWlLYWt1cG9wdGFpAAAAAQAAAAwAAAAIAAwABAAIAAgAAAAIAAAAUAAAAA8AAADvvIEAAAAAAAAAAAAAAAAAAAA2ACQAAAAgABwAAAAAABsAFAAAAAAAAAAAAAAAAAAAAAAAAAAAABAAAAAAAAAADAAAAAgABAA2AAAAAgAAABwAAAAcAAAAHAAAAAAAIEEAAAABaAAAAE3PAEOw////tP///wEAAAAUAAAAEAAaAAgABwAMAAAAEAAUABAAAAAAAAABHAAAAAAAoEEcAAAAAgAAAAAACgAIAAUABgAHAAoAAAAADAD//P///wQABAAEAAAACAAIAAYABwAIAAAAAAAMAA==</value>
					</parameter>
					<parameter authoringApp="PremierePro">
					<parameterid>2</parameterid>
					<name></name>
					<IsTimeVarying>false</IsTimeVarying>
					<ParameterControlType>11</ParameterControlType>
					<LowerBound>false</LowerBound>
					<UpperBound>false</UpperBound>
					<value>-91445760000000000,false,0,0,0,0,0,0</value>
					</parameter>
					<parameter authoringApp="PremierePro">
					<parameterid>3</parameterid>
					<name></name>
					<IsTimeVarying>false</IsTimeVarying>
					<value>-91445760000000000,0.5:0.5,0,0,0,0,0,0,5,4,0,0,0,0</value>
					</parameter>
					<parameter authoringApp="PremierePro">
					<parameterid>4</parameterid>
					<name></name>
					<IsTimeVarying>false</IsTimeVarying>
					<ParameterControlType>2</ParameterControlType>
					<LowerBound>0</LowerBound>
					<UpperBound>4000</UpperBound>
					<value>-91445760000000000,100.,0,0,0,0,0,0</value>
					</parameter>
					<parameter authoringApp="PremierePro">
					<parameterid>8</parameterid>
					<name></name>
					<IsTimeVarying>false</IsTimeVarying>
					<ParameterControlType>2</ParameterControlType>
					<LowerBound>0</LowerBound>
					<UpperBound>100</UpperBound>
					<value>-91445760000000000,100.,0,0,0,0,0,0</value>
					</parameter>
					</effect>
					</filter>
					<logginginfo>
					<description></description>
					<scene></scene>
					<shottake></shottake>
					<lognote></lognote>
					<good></good>
					<originalvideofilename></originalvideofilename>
					<originalaudiofilename></originalaudiofilename>
					</logginginfo>
					<colorinfo>
					<lut></lut>
					<lut1></lut1>
					<asc_sop></asc_sop>
					<asc_sat></asc_sat>
					<lut2></lut2>
					</colorinfo>
					<labels>
					</labels>
					</clipitem>
					<clipitem frameBlend="FALSE" id="clipitem-468">
					<masterclipid>masterclip-388</masterclipid>
					<name></name>
					<enabled>TRUE</enabled>
					<duration>2582774</duration>
					<rate>
					
					                                    <timebase>60</timebase>
					                                    <ntsc>TRUE</ntsc>
					                                
					</rate>
					<start>3538</start>
					<end>3598</end>
					<in>3538</in>
					<out>3598</out>
					<pproTicksIn>914456774963789</pproTicksIn>
					<pproTicksOut>914677708529577</pproTicksOut>
					<alphatype>straight</alphatype>
					<pixelaspectratio>square</pixelaspectratio>
					<anamorphic>FALSE</anamorphic>
					<file id="file-387">
					<name></name>
					<mediaSource>GraphicAndType</mediaSource>
					<rate>
					<timebase>60</timebase>
					<ntsc>TRUE</ntsc>
					</rate>
					<timecode>
					<rate>
					<timebase>60</timebase>
					<ntsc>TRUE</ntsc>
					</rate>
					<string>00:00:00:00</string>
					<frame>0</frame>
					<displayformat>NDF</displayformat>
					</timecode>
					<media>
					<video>
					<samplecharacteristics>
					<rate>
					<timebase>60</timebase>
					<ntsc>TRUE</ntsc>
					</rate>
					<width>1080</width>
					<height>1920</height>
					<anamorphic>FALSE</anamorphic>
					<pixelaspectratio>square</pixelaspectratio>
					<fielddominance>none</fielddominance>
					</samplecharacteristics>
					</video>
					</media>
					</file>
					<filter>
					<effect>
					<name></name>
					<effectid>GraphicAndType</effectid>
					<effectcategory>graphic</effectcategory>
					<effecttype>filter</effecttype>
					<mediatype>video</mediatype>
					<pproBypass>false</pproBypass>
					<parameter authoringApp="PremierePro">
					<parameterid>1</parameterid>
					<name></name>
					<hash>025b1101-ead6-0ca2-1feb-caf3000001fc</hash>
					<value>5AEAAAAAAABEMyIRDAAAAAAABgAKAAQABgAAAGQAAAAAAF4ASAAQAAwARABAADwAOAAAAAAAAAAAADQAMwAsAAAAKAAkACAAAAAAAAAAAAAAAAAAHAAAAAAAGgAAAAAAAAAUAAAAAAAAAAAAAAAAAAAAAAAAAAgAAAAAABsABwBeAAAAAAAAAUAAAABQAAAAbAAAAAIAAAAAAAEAAQAAAAAAQEEAAMBAAABAQAAAyEIAAAABIAAAAAIAAAACAAAAAAA2QwCASkTw/v//9P7///j+//8S////AAAAAAEAAAAEAAAAEQAAAEhHUFNvZWlLYWt1cG9wdGFpAAAAAQAAAAwAAAAIAAwABAAIAAgAAAAIAAAAUAAAAA8AAADvvIEAAAAAAAAAAAAAAAAAAAA2ACQAAAAgABwAAAAAABsAFAAAAAAAAAAAAAAAAAAAAAAAAAAAABAAAAAAAAAADAAAAAgABAA2AAAAAgAAABwAAAAcAAAAHAAAAAAAIEEAAAABaAAAAE3PAEOw////tP///wEAAAAUAAAAEAAaAAgABwAMAAAAEAAUABAAAAAAAAABHAAAAAAAoEEcAAAAAgAAAAAACgAIAAUABgAHAAoAAAAADAD//P///wQABAAEAAAACAAIAAYABwAIAAAAAAAMAA==</value>
					</parameter>
					<parameter authoringApp="PremierePro">
					<parameterid>2</parameterid>
					<name></name>
					<IsTimeVarying>false</IsTimeVarying>
					<ParameterControlType>11</ParameterControlType>
					<LowerBound>false</LowerBound>
					<UpperBound>false</UpperBound>
					<value>-91445760000000000,false,0,0,0,0,0,0</value>
					</parameter>
					<parameter authoringApp="PremierePro">
					<parameterid>3</parameterid>
					<name></name>
					<IsTimeVarying>false</IsTimeVarying>
					<value>-91445760000000000,0.5:0.5,0,0,0,0,0,0,5,4,0,0,0,0</value>
					</parameter>
					<parameter authoringApp="PremierePro">
					<parameterid>4</parameterid>
					<name></name>
					<IsTimeVarying>false</IsTimeVarying>
					<ParameterControlType>2</ParameterControlType>
					<LowerBound>0</LowerBound>
					<UpperBound>4000</UpperBound>
					<value>-91445760000000000,100.,0,0,0,0,0,0</value>
					</parameter>
					<parameter authoringApp="PremierePro">
					<parameterid>8</parameterid>
					<name></name>
					<IsTimeVarying>false</IsTimeVarying>
					<ParameterControlType>2</ParameterControlType>
					<LowerBound>0</LowerBound>
					<UpperBound>100</UpperBound>
					<value>-91445760000000000,100.,0,0,0,0,0,0</value>
					</parameter>
					</effect>
					</filter>
					<logginginfo>
					<description></description>
					<scene></scene>
					<shottake></shottake>
					<lognote></lognote>
					<good></good>
					<originalvideofilename></originalvideofilename>
					<originalaudiofilename></originalaudiofilename>
					</logginginfo>
					<colorinfo>
					<lut></lut>
					<lut1></lut1>
					<asc_sop></asc_sop>
					<asc_sat></asc_sat>
					<lut2></lut2>
					</colorinfo>
					<labels>
					</labels>
					</clipitem>
					<clipitem frameBlend="FALSE" id="clipitem-473">
					<masterclipid>masterclip-393</masterclipid>
					<name></name>
					<enabled>TRUE</enabled>
					<duration>2582774</duration>
					<rate>
					
					                                    <timebase>60</timebase>
					                                    <ntsc>TRUE</ntsc>
					                                
					</rate>
					<start>3610</start>
					<end>3670</end>
					<in>3610</in>
					<out>3670</out>
					<pproTicksIn>914456774963789</pproTicksIn>
					<pproTicksOut>914677708529577</pproTicksOut>
					<alphatype>straight</alphatype>
					<pixelaspectratio>square</pixelaspectratio>
					<anamorphic>FALSE</anamorphic>
					<file id="file-392">
					<name></name>
					<mediaSource>GraphicAndType</mediaSource>
					<rate>
					<timebase>60</timebase>
					<ntsc>TRUE</ntsc>
					</rate>
					<timecode>
					<rate>
					<timebase>60</timebase>
					<ntsc>TRUE</ntsc>
					</rate>
					<string>00:00:00:00</string>
					<frame>0</frame>
					<displayformat>NDF</displayformat>
					</timecode>
					<media>
					<video>
					<samplecharacteristics>
					<rate>
					<timebase>60</timebase>
					<ntsc>TRUE</ntsc>
					</rate>
					<width>1080</width>
					<height>1920</height>
					<anamorphic>FALSE</anamorphic>
					<pixelaspectratio>square</pixelaspectratio>
					<fielddominance>none</fielddominance>
					</samplecharacteristics>
					</video>
					</media>
					</file>
					<filter>
					<effect>
					<name></name>
					<effectid>GraphicAndType</effectid>
					<effectcategory>graphic</effectcategory>
					<effecttype>filter</effecttype>
					<mediatype>video</mediatype>
					<pproBypass>false</pproBypass>
					<parameter authoringApp="PremierePro">
					<parameterid>1</parameterid>
					<name></name>
					<hash>025b1101-ead6-0ca2-1feb-caf3000001fc</hash>
					<value>5AEAAAAAAABEMyIRDAAAAAAABgAKAAQABgAAAGQAAAAAAF4ASAAQAAwARABAADwAOAAAAAAAAAAAADQAMwAsAAAAKAAkACAAAAAAAAAAAAAAAAAAHAAAAAAAGgAAAAAAAAAUAAAAAAAAAAAAAAAAAAAAAAAAAAgAAAAAABsABwBeAAAAAAAAAUAAAABQAAAAbAAAAAIAAAAAAAEAAQAAAAAAQEEAAMBAAABAQAAAyEIAAAABIAAAAAIAAAACAAAAAAA2QwCASkTw/v//9P7///j+//8S////AAAAAAEAAAAEAAAAEQAAAEhHUFNvZWlLYWt1cG9wdGFpAAAAAQAAAAwAAAAIAAwABAAIAAgAAAAIAAAAUAAAAA8AAADvvIEAAAAAAAAAAAAAAAAAAAA2ACQAAAAgABwAAAAAABsAFAAAAAAAAAAAAAAAAAAAAAAAAAAAABAAAAAAAAAADAAAAAgABAA2AAAAAgAAABwAAAAcAAAAHAAAAAAAIEEAAAABaAAAAE3PAEOw////tP///wEAAAAUAAAAEAAaAAgABwAMAAAAEAAUABAAAAAAAAABHAAAAAAAoEEcAAAAAgAAAAAACgAIAAUABgAHAAoAAAAADAD//P///wQABAAEAAAACAAIAAYABwAIAAAAAAAMAA==</value>
					</parameter>
					<parameter authoringApp="PremierePro">
					<parameterid>2</parameterid>
					<name></name>
					<IsTimeVarying>false</IsTimeVarying>
					<ParameterControlType>11</ParameterControlType>
					<LowerBound>false</LowerBound>
					<UpperBound>false</UpperBound>
					<value>-91445760000000000,false,0,0,0,0,0,0</value>
					</parameter>
					<parameter authoringApp="PremierePro">
					<parameterid>3</parameterid>
					<name></name>
					<IsTimeVarying>false</IsTimeVarying>
					<value>-91445760000000000,0.5:0.5,0,0,0,0,0,0,5,4,0,0,0,0</value>
					</parameter>
					<parameter authoringApp="PremierePro">
					<parameterid>4</parameterid>
					<name></name>
					<IsTimeVarying>false</IsTimeVarying>
					<ParameterControlType>2</ParameterControlType>
					<LowerBound>0</LowerBound>
					<UpperBound>4000</UpperBound>
					<value>-91445760000000000,100.,0,0,0,0,0,0</value>
					</parameter>
					<parameter authoringApp="PremierePro">
					<parameterid>8</parameterid>
					<name></name>
					<IsTimeVarying>false</IsTimeVarying>
					<ParameterControlType>2</ParameterControlType>
					<LowerBound>0</LowerBound>
					<UpperBound>100</UpperBound>
					<value>-91445760000000000,100.,0,0,0,0,0,0</value>
					</parameter>
					</effect>
					</filter>
					<logginginfo>
					<description></description>
					<scene></scene>
					<shottake></shottake>
					<lognote></lognote>
					<good></good>
					<originalvideofilename></originalvideofilename>
					<originalaudiofilename></originalaudiofilename>
					</logginginfo>
					<colorinfo>
					<lut></lut>
					<lut1></lut1>
					<asc_sop></asc_sop>
					<asc_sat></asc_sat>
					<lut2></lut2>
					</colorinfo>
					<labels>
					</labels>
					</clipitem>
					<clipitem frameBlend="FALSE" id="clipitem-480">
					<masterclipid>masterclip-400</masterclipid>
					<name></name>
					<enabled>TRUE</enabled>
					<duration>2582774</duration>
					<rate>
					
					                                    <timebase>60</timebase>
					                                    <ntsc>TRUE</ntsc>
					                                
					</rate>
					<start>3682</start>
					<end>3742</end>
					<in>3682</in>
					<out>3742</out>
					<pproTicksIn>914456774963789</pproTicksIn>
					<pproTicksOut>914677708529577</pproTicksOut>
					<alphatype>straight</alphatype>
					<pixelaspectratio>square</pixelaspectratio>
					<anamorphic>FALSE</anamorphic>
					<file id="file-399">
					<name></name>
					<mediaSource>GraphicAndType</mediaSource>
					<rate>
					<timebase>60</timebase>
					<ntsc>TRUE</ntsc>
					</rate>
					<timecode>
					<rate>
					<timebase>60</timebase>
					<ntsc>TRUE</ntsc>
					</rate>
					<string>00:00:00:00</string>
					<frame>0</frame>
					<displayformat>NDF</displayformat>
					</timecode>
					<media>
					<video>
					<samplecharacteristics>
					<rate>
					<timebase>60</timebase>
					<ntsc>TRUE</ntsc>
					</rate>
					<width>1080</width>
					<height>1920</height>
					<anamorphic>FALSE</anamorphic>
					<pixelaspectratio>square</pixelaspectratio>
					<fielddominance>none</fielddominance>
					</samplecharacteristics>
					</video>
					</media>
					</file>
					<filter>
					<effect>
					<name></name>
					<effectid>GraphicAndType</effectid>
					<effectcategory>graphic</effectcategory>
					<effecttype>filter</effecttype>
					<mediatype>video</mediatype>
					<pproBypass>false</pproBypass>
					<parameter authoringApp="PremierePro">
					<parameterid>1</parameterid>
					<name></name>
					<hash>025b1101-ead6-0ca2-1feb-caf3000001fc</hash>
					<value>5AEAAAAAAABEMyIRDAAAAAAABgAKAAQABgAAAGQAAAAAAF4ASAAQAAwARABAADwAOAAAAAAAAAAAADQAMwAsAAAAKAAkACAAAAAAAAAAAAAAAAAAHAAAAAAAGgAAAAAAAAAUAAAAAAAAAAAAAAAAAAAAAAAAAAgAAAAAABsABwBeAAAAAAAAAUAAAABQAAAAbAAAAAIAAAAAAAEAAQAAAAAAQEEAAMBAAABAQAAAyEIAAAABIAAAAAIAAAACAAAAAAA2QwCASkTw/v//9P7///j+//8S////AAAAAAEAAAAEAAAAEQAAAEhHUFNvZWlLYWt1cG9wdGFpAAAAAQAAAAwAAAAIAAwABAAIAAgAAAAIAAAAUAAAAA8AAADvvIEAAAAAAAAAAAAAAAAAAAA2ACQAAAAgABwAAAAAABsAFAAAAAAAAAAAAAAAAAAAAAAAAAAAABAAAAAAAAAADAAAAAgABAA2AAAAAgAAABwAAAAcAAAAHAAAAAAAIEEAAAABaAAAAE3PAEOw////tP///wEAAAAUAAAAEAAaAAgABwAMAAAAEAAUABAAAAAAAAABHAAAAAAAoEEcAAAAAgAAAAAACgAIAAUABgAHAAoAAAAADAD//P///wQABAAEAAAACAAIAAYABwAIAAAAAAAMAA==</value>
					</parameter>
					<parameter authoringApp="PremierePro">
					<parameterid>2</parameterid>
					<name></name>
					<IsTimeVarying>false</IsTimeVarying>
					<ParameterControlType>11</ParameterControlType>
					<LowerBound>false</LowerBound>
					<UpperBound>false</UpperBound>
					<value>-91445760000000000,false,0,0,0,0,0,0</value>
					</parameter>
					<parameter authoringApp="PremierePro">
					<parameterid>3</parameterid>
					<name></name>
					<IsTimeVarying>false</IsTimeVarying>
					<value>-91445760000000000,0.5:0.5,0,0,0,0,0,0,5,4,0,0,0,0</value>
					</parameter>
					<parameter authoringApp="PremierePro">
					<parameterid>4</parameterid>
					<name></name>
					<IsTimeVarying>false</IsTimeVarying>
					<ParameterControlType>2</ParameterControlType>
					<LowerBound>0</LowerBound>
					<UpperBound>4000</UpperBound>
					<value>-91445760000000000,100.,0,0,0,0,0,0</value>
					</parameter>
					<parameter authoringApp="PremierePro">
					<parameterid>8</parameterid>
					<name></name>
					<IsTimeVarying>false</IsTimeVarying>
					<ParameterControlType>2</ParameterControlType>
					<LowerBound>0</LowerBound>
					<UpperBound>100</UpperBound>
					<value>-91445760000000000,100.,0,0,0,0,0,0</value>
					</parameter>
					</effect>
					</filter>
					<logginginfo>
					<description></description>
					<scene></scene>
					<shottake></shottake>
					<lognote></lognote>
					<good></good>
					<originalvideofilename></originalvideofilename>
					<originalaudiofilename></originalaudiofilename>
					</logginginfo>
					<colorinfo>
					<lut></lut>
					<lut1></lut1>
					<asc_sop></asc_sop>
					<asc_sat></asc_sat>
					<lut2></lut2>
					</colorinfo>
					<labels>
					</labels>
					</clipitem>
					<clipitem frameBlend="FALSE" id="clipitem-487">
					<masterclipid>masterclip-407</masterclipid>
					<name></name>
					<enabled>TRUE</enabled>
					<duration>2582774</duration>
					<rate>
					
					                                    <timebase>60</timebase>
					                                    <ntsc>TRUE</ntsc>
					                                
					</rate>
					<start>3742</start>
					<end>3802</end>
					<in>3742</in>
					<out>3802</out>
					<pproTicksIn>914456774963789</pproTicksIn>
					<pproTicksOut>914677708529577</pproTicksOut>
					<alphatype>straight</alphatype>
					<pixelaspectratio>square</pixelaspectratio>
					<anamorphic>FALSE</anamorphic>
					<file id="file-406">
					<name></name>
					<mediaSource>GraphicAndType</mediaSource>
					<rate>
					<timebase>60</timebase>
					<ntsc>TRUE</ntsc>
					</rate>
					<timecode>
					<rate>
					<timebase>60</timebase>
					<ntsc>TRUE</ntsc>
					</rate>
					<string>00:00:00:00</string>
					<frame>0</frame>
					<displayformat>NDF</displayformat>
					</timecode>
					<media>
					<video>
					<samplecharacteristics>
					<rate>
					<timebase>60</timebase>
					<ntsc>TRUE</ntsc>
					</rate>
					<width>1080</width>
					<height>1920</height>
					<anamorphic>FALSE</anamorphic>
					<pixelaspectratio>square</pixelaspectratio>
					<fielddominance>none</fielddominance>
					</samplecharacteristics>
					</video>
					</media>
					</file>
					<filter>
					<effect>
					<name></name>
					<effectid>GraphicAndType</effectid>
					<effectcategory>graphic</effectcategory>
					<effecttype>filter</effecttype>
					<mediatype>video</mediatype>
					<pproBypass>false</pproBypass>
					<parameter authoringApp="PremierePro">
					<parameterid>1</parameterid>
					<name></name>
					<hash>025b1101-ead6-0ca2-1feb-caf3000001fc</hash>
					<value>5AEAAAAAAABEMyIRDAAAAAAABgAKAAQABgAAAGQAAAAAAF4ASAAQAAwARABAADwAOAAAAAAAAAAAADQAMwAsAAAAKAAkACAAAAAAAAAAAAAAAAAAHAAAAAAAGgAAAAAAAAAUAAAAAAAAAAAAAAAAAAAAAAAAAAgAAAAAABsABwBeAAAAAAAAAUAAAABQAAAAbAAAAAIAAAAAAAEAAQAAAAAAQEEAAMBAAABAQAAAyEIAAAABIAAAAAIAAAACAAAAAAA2QwCASkTw/v//9P7///j+//8S////AAAAAAEAAAAEAAAAEQAAAEhHUFNvZWlLYWt1cG9wdGFpAAAAAQAAAAwAAAAIAAwABAAIAAgAAAAIAAAAUAAAAA8AAADvvIEAAAAAAAAAAAAAAAAAAAA2ACQAAAAgABwAAAAAABsAFAAAAAAAAAAAAAAAAAAAAAAAAAAAABAAAAAAAAAADAAAAAgABAA2AAAAAgAAABwAAAAcAAAAHAAAAAAAIEEAAAABaAAAAE3PAEOw////tP///wEAAAAUAAAAEAAaAAgABwAMAAAAEAAUABAAAAAAAAABHAAAAAAAoEEcAAAAAgAAAAAACgAIAAUABgAHAAoAAAAADAD//P///wQABAAEAAAACAAIAAYABwAIAAAAAAAMAA==</value>
					</parameter>
					<parameter authoringApp="PremierePro">
					<parameterid>2</parameterid>
					<name></name>
					<IsTimeVarying>false</IsTimeVarying>
					<ParameterControlType>11</ParameterControlType>
					<LowerBound>false</LowerBound>
					<UpperBound>false</UpperBound>
					<value>-91445760000000000,false,0,0,0,0,0,0</value>
					</parameter>
					<parameter authoringApp="PremierePro">
					<parameterid>3</parameterid>
					<name></name>
					<IsTimeVarying>false</IsTimeVarying>
					<value>-91445760000000000,0.5:0.5,0,0,0,0,0,0,5,4,0,0,0,0</value>
					</parameter>
					<parameter authoringApp="PremierePro">
					<parameterid>4</parameterid>
					<name></name>
					<IsTimeVarying>false</IsTimeVarying>
					<ParameterControlType>2</ParameterControlType>
					<LowerBound>0</LowerBound>
					<UpperBound>4000</UpperBound>
					<value>-91445760000000000,100.,0,0,0,0,0,0</value>
					</parameter>
					<parameter authoringApp="PremierePro">
					<parameterid>8</parameterid>
					<name></name>
					<IsTimeVarying>false</IsTimeVarying>
					<ParameterControlType>2</ParameterControlType>
					<LowerBound>0</LowerBound>
					<UpperBound>100</UpperBound>
					<value>-91445760000000000,100.,0,0,0,0,0,0</value>
					</parameter>
					</effect>
					</filter>
					<logginginfo>
					<description></description>
					<scene></scene>
					<shottake></shottake>
					<lognote></lognote>
					<good></good>
					<originalvideofilename></originalvideofilename>
					<originalaudiofilename></originalaudiofilename>
					</logginginfo>
					<colorinfo>
					<lut></lut>
					<lut1></lut1>
					<asc_sop></asc_sop>
					<asc_sat></asc_sat>
					<lut2></lut2>
					</colorinfo>
					<labels>
					</labels>
					</clipitem>
					<clipitem frameBlend="FALSE" id="clipitem-494">
					<masterclipid>masterclip-414</masterclipid>
					<name></name>
					<enabled>TRUE</enabled>
					<duration>2582774</duration>
					<rate>
					
					                                    <timebase>60</timebase>
					                                    <ntsc>TRUE</ntsc>
					                                
					</rate>
					<start>3802</start>
					<end>3862</end>
					<in>3802</in>
					<out>3862</out>
					<pproTicksIn>914456774963789</pproTicksIn>
					<pproTicksOut>914677708529577</pproTicksOut>
					<alphatype>straight</alphatype>
					<pixelaspectratio>square</pixelaspectratio>
					<anamorphic>FALSE</anamorphic>
					<file id="file-413">
					<name></name>
					<mediaSource>GraphicAndType</mediaSource>
					<rate>
					<timebase>60</timebase>
					<ntsc>TRUE</ntsc>
					</rate>
					<timecode>
					<rate>
					<timebase>60</timebase>
					<ntsc>TRUE</ntsc>
					</rate>
					<string>00:00:00:00</string>
					<frame>0</frame>
					<displayformat>NDF</displayformat>
					</timecode>
					<media>
					<video>
					<samplecharacteristics>
					<rate>
					<timebase>60</timebase>
					<ntsc>TRUE</ntsc>
					</rate>
					<width>1080</width>
					<height>1920</height>
					<anamorphic>FALSE</anamorphic>
					<pixelaspectratio>square</pixelaspectratio>
					<fielddominance>none</fielddominance>
					</samplecharacteristics>
					</video>
					</media>
					</file>
					<filter>
					<effect>
					<name></name>
					<effectid>GraphicAndType</effectid>
					<effectcategory>graphic</effectcategory>
					<effecttype>filter</effecttype>
					<mediatype>video</mediatype>
					<pproBypass>false</pproBypass>
					<parameter authoringApp="PremierePro">
					<parameterid>1</parameterid>
					<name></name>
					<hash>025b1101-ead6-0ca2-1feb-caf3000001fc</hash>
					<value>5AEAAAAAAABEMyIRDAAAAAAABgAKAAQABgAAAGQAAAAAAF4ASAAQAAwARABAADwAOAAAAAAAAAAAADQAMwAsAAAAKAAkACAAAAAAAAAAAAAAAAAAHAAAAAAAGgAAAAAAAAAUAAAAAAAAAAAAAAAAAAAAAAAAAAgAAAAAABsABwBeAAAAAAAAAUAAAABQAAAAbAAAAAIAAAAAAAEAAQAAAAAAQEEAAMBAAABAQAAAyEIAAAABIAAAAAIAAAACAAAAAAA2QwCASkTw/v//9P7///j+//8S////AAAAAAEAAAAEAAAAEQAAAEhHUFNvZWlLYWt1cG9wdGFpAAAAAQAAAAwAAAAIAAwABAAIAAgAAAAIAAAAUAAAAA8AAADvvIEAAAAAAAAAAAAAAAAAAAA2ACQAAAAgABwAAAAAABsAFAAAAAAAAAAAAAAAAAAAAAAAAAAAABAAAAAAAAAADAAAAAgABAA2AAAAAgAAABwAAAAcAAAAHAAAAAAAIEEAAAABaAAAAE3PAEOw////tP///wEAAAAUAAAAEAAaAAgABwAMAAAAEAAUABAAAAAAAAABHAAAAAAAoEEcAAAAAgAAAAAACgAIAAUABgAHAAoAAAAADAD//P///wQABAAEAAAACAAIAAYABwAIAAAAAAAMAA==</value>
					</parameter>
					<parameter authoringApp="PremierePro">
					<parameterid>2</parameterid>
					<name></name>
					<IsTimeVarying>false</IsTimeVarying>
					<ParameterControlType>11</ParameterControlType>
					<LowerBound>false</LowerBound>
					<UpperBound>false</UpperBound>
					<value>-91445760000000000,false,0,0,0,0,0,0</value>
					</parameter>
					<parameter authoringApp="PremierePro">
					<parameterid>3</parameterid>
					<name></name>
					<IsTimeVarying>false</IsTimeVarying>
					<value>-91445760000000000,0.5:0.5,0,0,0,0,0,0,5,4,0,0,0,0</value>
					</parameter>
					<parameter authoringApp="PremierePro">
					<parameterid>4</parameterid>
					<name></name>
					<IsTimeVarying>false</IsTimeVarying>
					<ParameterControlType>2</ParameterControlType>
					<LowerBound>0</LowerBound>
					<UpperBound>4000</UpperBound>
					<value>-91445760000000000,100.,0,0,0,0,0,0</value>
					</parameter>
					<parameter authoringApp="PremierePro">
					<parameterid>8</parameterid>
					<name></name>
					<IsTimeVarying>false</IsTimeVarying>
					<ParameterControlType>2</ParameterControlType>
					<LowerBound>0</LowerBound>
					<UpperBound>100</UpperBound>
					<value>-91445760000000000,100.,0,0,0,0,0,0</value>
					</parameter>
					</effect>
					</filter>
					<logginginfo>
					<description></description>
					<scene></scene>
					<shottake></shottake>
					<lognote></lognote>
					<good></good>
					<originalvideofilename></originalvideofilename>
					<originalaudiofilename></originalaudiofilename>
					</logginginfo>
					<colorinfo>
					<lut></lut>
					<lut1></lut1>
					<asc_sop></asc_sop>
					<asc_sat></asc_sat>
					<lut2></lut2>
					</colorinfo>
					<labels>
					</labels>
					</clipitem>
					<clipitem frameBlend="FALSE" id="clipitem-501">
					<masterclipid>masterclip-421</masterclipid>
					<name></name>
					<enabled>TRUE</enabled>
					<duration>2582774</duration>
					<rate>
					
					                                    <timebase>60</timebase>
					                                    <ntsc>TRUE</ntsc>
					                                
					</rate>
					<start>3862</start>
					<end>3922</end>
					<in>3862</in>
					<out>3922</out>
					<pproTicksIn>914456774963789</pproTicksIn>
					<pproTicksOut>914677708529577</pproTicksOut>
					<alphatype>straight</alphatype>
					<pixelaspectratio>square</pixelaspectratio>
					<anamorphic>FALSE</anamorphic>
					<file id="file-420">
					<name></name>
					<mediaSource>GraphicAndType</mediaSource>
					<rate>
					<timebase>60</timebase>
					<ntsc>TRUE</ntsc>
					</rate>
					<timecode>
					<rate>
					<timebase>60</timebase>
					<ntsc>TRUE</ntsc>
					</rate>
					<string>00:00:00:00</string>
					<frame>0</frame>
					<displayformat>NDF</displayformat>
					</timecode>
					<media>
					<video>
					<samplecharacteristics>
					<rate>
					<timebase>60</timebase>
					<ntsc>TRUE</ntsc>
					</rate>
					<width>1080</width>
					<height>1920</height>
					<anamorphic>FALSE</anamorphic>
					<pixelaspectratio>square</pixelaspectratio>
					<fielddominance>none</fielddominance>
					</samplecharacteristics>
					</video>
					</media>
					</file>
					<filter>
					<effect>
					<name></name>
					<effectid>GraphicAndType</effectid>
					<effectcategory>graphic</effectcategory>
					<effecttype>filter</effecttype>
					<mediatype>video</mediatype>
					<pproBypass>false</pproBypass>
					<parameter authoringApp="PremierePro">
					<parameterid>1</parameterid>
					<name></name>
					<hash>025b1101-ead6-0ca2-1feb-caf3000001fc</hash>
					<value>5AEAAAAAAABEMyIRDAAAAAAABgAKAAQABgAAAGQAAAAAAF4ASAAQAAwARABAADwAOAAAAAAAAAAAADQAMwAsAAAAKAAkACAAAAAAAAAAAAAAAAAAHAAAAAAAGgAAAAAAAAAUAAAAAAAAAAAAAAAAAAAAAAAAAAgAAAAAABsABwBeAAAAAAAAAUAAAABQAAAAbAAAAAIAAAAAAAEAAQAAAAAAQEEAAMBAAABAQAAAyEIAAAABIAAAAAIAAAACAAAAAAA2QwCASkTw/v//9P7///j+//8S////AAAAAAEAAAAEAAAAEQAAAEhHUFNvZWlLYWt1cG9wdGFpAAAAAQAAAAwAAAAIAAwABAAIAAgAAAAIAAAAUAAAAA8AAADvvIEAAAAAAAAAAAAAAAAAAAA2ACQAAAAgABwAAAAAABsAFAAAAAAAAAAAAAAAAAAAAAAAAAAAABAAAAAAAAAADAAAAAgABAA2AAAAAgAAABwAAAAcAAAAHAAAAAAAIEEAAAABaAAAAE3PAEOw////tP///wEAAAAUAAAAEAAaAAgABwAMAAAAEAAUABAAAAAAAAABHAAAAAAAoEEcAAAAAgAAAAAACgAIAAUABgAHAAoAAAAADAD//P///wQABAAEAAAACAAIAAYABwAIAAAAAAAMAA==</value>
					</parameter>
					<parameter authoringApp="PremierePro">
					<parameterid>2</parameterid>
					<name></name>
					<IsTimeVarying>false</IsTimeVarying>
					<ParameterControlType>11</ParameterControlType>
					<LowerBound>false</LowerBound>
					<UpperBound>false</UpperBound>
					<value>-91445760000000000,false,0,0,0,0,0,0</value>
					</parameter>
					<parameter authoringApp="PremierePro">
					<parameterid>3</parameterid>
					<name></name>
					<IsTimeVarying>false</IsTimeVarying>
					<value>-91445760000000000,0.5:0.5,0,0,0,0,0,0,5,4,0,0,0,0</value>
					</parameter>
					<parameter authoringApp="PremierePro">
					<parameterid>4</parameterid>
					<name></name>
					<IsTimeVarying>false</IsTimeVarying>
					<ParameterControlType>2</ParameterControlType>
					<LowerBound>0</LowerBound>
					<UpperBound>4000</UpperBound>
					<value>-91445760000000000,100.,0,0,0,0,0,0</value>
					</parameter>
					<parameter authoringApp="PremierePro">
					<parameterid>8</parameterid>
					<name></name>
					<IsTimeVarying>false</IsTimeVarying>
					<ParameterControlType>2</ParameterControlType>
					<LowerBound>0</LowerBound>
					<UpperBound>100</UpperBound>
					<value>-91445760000000000,100.,0,0,0,0,0,0</value>
					</parameter>
					</effect>
					</filter>
					<logginginfo>
					<description></description>
					<scene></scene>
					<shottake></shottake>
					<lognote></lognote>
					<good></good>
					<originalvideofilename></originalvideofilename>
					<originalaudiofilename></originalaudiofilename>
					</logginginfo>
					<colorinfo>
					<lut></lut>
					<lut1></lut1>
					<asc_sop></asc_sop>
					<asc_sat></asc_sat>
					<lut2></lut2>
					</colorinfo>
					<labels>
					</labels>
					</clipitem>
					<clipitem frameBlend="FALSE" id="clipitem-101">
					<masterclipid>masterclip-21</masterclipid>
					<name></name>
					<enabled>TRUE</enabled>
					<duration>2582774</duration>
					<rate>
					
					                                    <timebase>60</timebase>
					                                    <ntsc>TRUE</ntsc>
					                                
					</rate>
					<start>4018</start>
					<end>4138</end>
					<in>4018</in>
					<out>4138</out>
					<pproTicksIn>914456774963789</pproTicksIn>
					<pproTicksOut>914677708529577</pproTicksOut>
					<alphatype>straight</alphatype>
					<pixelaspectratio>square</pixelaspectratio>
					<anamorphic>FALSE</anamorphic>
					<file id="file-20">
					<name></name>
					<mediaSource>GraphicAndType</mediaSource>
					<rate>
					<timebase>60</timebase>
					<ntsc>TRUE</ntsc>
					</rate>
					<timecode>
					<rate>
					<timebase>60</timebase>
					<ntsc>TRUE</ntsc>
					</rate>
					<string>00:00:00:00</string>
					<frame>0</frame>
					<displayformat>NDF</displayformat>
					</timecode>
					<media>
					<video>
					<samplecharacteristics>
					<rate>
					<timebase>60</timebase>
					<ntsc>TRUE</ntsc>
					</rate>
					<width>1080</width>
					<height>1920</height>
					<anamorphic>FALSE</anamorphic>
					<pixelaspectratio>square</pixelaspectratio>
					<fielddominance>none</fielddominance>
					</samplecharacteristics>
					</video>
					</media>
					</file>
					<filter>
					<effect>
					<name> </name>
					<effectid>GraphicAndType</effectid>
					<effectcategory>graphic</effectcategory>
					<effecttype>filter</effecttype>
					<mediatype>video</mediatype>
					<pproBypass>false</pproBypass>
					<parameter authoringApp="PremierePro">
					<parameterid>1</parameterid>
					<name></name>
					<hash>025b1101-ead6-0ca2-1feb-caf3000001fc</hash>
					<value>5AEAAAAAAABEMyIRDAAAAAAABgAKAAQABgAAAGQAAAAAAF4ASAAQAAwARABAADwAOAAAAAAAAAAAADQAMwAsAAAAKAAkACAAAAAAAAAAAAAAAAAAHAAAAAAAGgAAAAAAAAAUAAAAAAAAAAAAAAAAAAAAAAAAAAgAAAAAABsABwBeAAAAAAAAAUAAAABQAAAAbAAAAAIAAAAAAAEAAQAAAAAAQEEAAMBAAABAQAAAyEIAAAABIAAAAAIAAAACAAAAAAA2QwCASkTw/v//9P7///j+//8S////AAAAAAEAAAAEAAAAEQAAAEhHUFNvZWlLYWt1cG9wdGFpAAAAAQAAAAwAAAAIAAwABAAIAAgAAAAIAAAAUAAAAA0AAADjgabjgYsg5qC85aW9gpMAAAA2ACQAAAAgABwAAAAAABsAFAAAAAAAAAAAAAAAAAAAAAAAAAAAABAAAAAAAAAADAAAAAgABAA2AAAAAgAAABwAAAAcAAAAHAAAAAAAIEEAAAABaAAAAE3PAEOw////tP///wEAAAAUAAAAEAAaAAgABwAMAAAAEAAUABAAAAAAAAABHAAAAAAAoEEcAAAAAgAAAAAACgAIAAUABgAHAAoAAAAADAD//P///wQABAAEAAAACAAIAAYABwAIAAAAAAAMAA==</value>
					</parameter>
					<parameter authoringApp="PremierePro">
					<parameterid>2</parameterid>
					<name></name>
					<IsTimeVarying>false</IsTimeVarying>
					<ParameterControlType>11</ParameterControlType>
					<LowerBound>false</LowerBound>
					<UpperBound>false</UpperBound>
					<value>-91445760000000000,false,0,0,0,0,0,0</value>
					</parameter>
					<parameter authoringApp="PremierePro">
					<parameterid>3</parameterid>
					<name></name>
					<IsTimeVarying>false</IsTimeVarying>
					<value>-91445760000000000,0.5:0.5,0,0,0,0,0,0,5,4,0,0,0,0</value>
					</parameter>
					<parameter authoringApp="PremierePro">
					<parameterid>4</parameterid>
					<name></name>
					<IsTimeVarying>false</IsTimeVarying>
					<ParameterControlType>2</ParameterControlType>
					<LowerBound>0</LowerBound>
					<UpperBound>4000</UpperBound>
					<value>-91445760000000000,100.,0,0,0,0,0,0</value>
					</parameter>
					<parameter authoringApp="PremierePro">
					<parameterid>8</parameterid>
					<name></name>
					<IsTimeVarying>false</IsTimeVarying>
					<ParameterControlType>2</ParameterControlType>
					<LowerBound>0</LowerBound>
					<UpperBound>100</UpperBound>
					<value>-91445760000000000,100.,0,0,0,0,0,0</value>
					</parameter>
					</effect>
					</filter>
					<logginginfo>
					<description></description>
					<scene></scene>
					<shottake></shottake>
					<lognote></lognote>
					<good></good>
					<originalvideofilename></originalvideofilename>
					<originalaudiofilename></originalaudiofilename>
					</logginginfo>
					<colorinfo>
					<lut></lut>
					<lut1></lut1>
					<asc_sop></asc_sop>
					<asc_sat></asc_sat>
					<lut2></lut2>
					</colorinfo>
					<labels>
					</labels>
					</clipitem>
					<clipitem frameBlend="FALSE" id="clipitem-519">
					<masterclipid>masterclip-439</masterclipid>
					<name></name>
					<enabled>TRUE</enabled>
					<duration>2582774</duration>
					<rate>
					
					                                    <timebase>60</timebase>
					                                    <ntsc>TRUE</ntsc>
					                                
					</rate>
					<start>4216</start>
					<end>4282</end>
					<in>4216</in>
					<out>4282</out>
					<pproTicksIn>914456774963789</pproTicksIn>
					<pproTicksOut>914677708529577</pproTicksOut>
					<alphatype>straight</alphatype>
					<pixelaspectratio>square</pixelaspectratio>
					<anamorphic>FALSE</anamorphic>
					<file id="file-438">
					<name></name>
					<mediaSource>GraphicAndType</mediaSource>
					<rate>
					<timebase>60</timebase>
					<ntsc>TRUE</ntsc>
					</rate>
					<timecode>
					<rate>
					<timebase>60</timebase>
					<ntsc>TRUE</ntsc>
					</rate>
					<string>00:00:00:00</string>
					<frame>0</frame>
					<displayformat>NDF</displayformat>
					</timecode>
					<media>
					<video>
					<samplecharacteristics>
					<rate>
					<timebase>60</timebase>
					<ntsc>TRUE</ntsc>
					</rate>
					<width>1080</width>
					<height>1920</height>
					<anamorphic>FALSE</anamorphic>
					<pixelaspectratio>square</pixelaspectratio>
					<fielddominance>none</fielddominance>
					</samplecharacteristics>
					</video>
					</media>
					</file>
					<filter>
					<effect>
					<name></name>
					<effectid>GraphicAndType</effectid>
					<effectcategory>graphic</effectcategory>
					<effecttype>filter</effecttype>
					<mediatype>video</mediatype>
					<pproBypass>false</pproBypass>
					<parameter authoringApp="PremierePro">
					<parameterid>1</parameterid>
					<name></name>
					<hash>025b1101-ead6-0ca2-1feb-caf3000001fc</hash>
					<value>5AEAAAAAAABEMyIRDAAAAAAABgAKAAQABgAAAGQAAAAAAF4ASAAQAAwARABAADwAOAAAAAAAAAAAADQAMwAsAAAAKAAkACAAAAAAAAAAAAAAAAAAHAAAAAAAGgAAAAAAAAAUAAAAAAAAAAAAAAAAAAAAAAAAAAgAAAAAABsABwBeAAAAAAAAAUAAAABQAAAAbAAAAAIAAAAAAAEAAQAAAAAAQEEAAMBAAABAQAAAyEIAAAABIAAAAAIAAAACAAAAAAA2QwCASkTw/v//9P7///j+//8S////AAAAAAEAAAAEAAAAEQAAAEhHUFNvZWlLYWt1cG9wdGFpAAAAAQAAAAwAAAAIAAwABAAIAAgAAAAIAAAAUAAAAA8AAADvvIEAAAAAAAAAAAAAAAAAAAA2ACQAAAAgABwAAAAAABsAFAAAAAAAAAAAAAAAAAAAAAAAAAAAABAAAAAAAAAADAAAAAgABAA2AAAAAgAAABwAAAAcAAAAHAAAAAAAIEEAAAABaAAAAE3PAEOw////tP///wEAAAAUAAAAEAAaAAgABwAMAAAAEAAUABAAAAAAAAABHAAAAAAAoEEcAAAAAgAAAAAACgAIAAUABgAHAAoAAAAADAD//P///wQABAAEAAAACAAIAAYABwAIAAAAAAAMAA==</value>
					</parameter>
					<parameter authoringApp="PremierePro">
					<parameterid>2</parameterid>
					<name></name>
					<IsTimeVarying>false</IsTimeVarying>
					<ParameterControlType>11</ParameterControlType>
					<LowerBound>false</LowerBound>
					<UpperBound>false</UpperBound>
					<value>-91445760000000000,false,0,0,0,0,0,0</value>
					</parameter>
					<parameter authoringApp="PremierePro">
					<parameterid>3</parameterid>
					<name></name>
					<IsTimeVarying>false</IsTimeVarying>
					<value>-91445760000000000,0.5:0.5,0,0,0,0,0,0,5,4,0,0,0,0</value>
					</parameter>
					<parameter authoringApp="PremierePro">
					<parameterid>4</parameterid>
					<name></name>
					<IsTimeVarying>false</IsTimeVarying>
					<ParameterControlType>2</ParameterControlType>
					<LowerBound>0</LowerBound>
					<UpperBound>4000</UpperBound>
					<value>-91445760000000000,100.,0,0,0,0,0,0</value>
					</parameter>
					<parameter authoringApp="PremierePro">
					<parameterid>8</parameterid>
					<name></name>
					<IsTimeVarying>false</IsTimeVarying>
					<ParameterControlType>2</ParameterControlType>
					<LowerBound>0</LowerBound>
					<UpperBound>100</UpperBound>
					<value>-91445760000000000,100.,0,0,0,0,0,0</value>
					</parameter>
					</effect>
					</filter>
					<logginginfo>
					<description></description>
					<scene></scene>
					<shottake></shottake>
					<lognote></lognote>
					<good></good>
					<originalvideofilename></originalvideofilename>
					<originalaudiofilename></originalaudiofilename>
					</logginginfo>
					<colorinfo>
					<lut></lut>
					<lut1></lut1>
					<asc_sop></asc_sop>
					<asc_sat></asc_sat>
					<lut2></lut2>
					</colorinfo>
					<labels>
					</labels>
					</clipitem>
					<clipitem frameBlend="FALSE" id="clipitem-528">
					<masterclipid>masterclip-448</masterclipid>
					<name></name>
					<enabled>TRUE</enabled>
					<duration>2582774</duration>
					<rate>
					
					                                    <timebase>60</timebase>
					                                    <ntsc>TRUE</ntsc>
					                                
					</rate>
					<start>4294</start>
					<end>4354</end>
					<in>4294</in>
					<out>4354</out>
					<pproTicksIn>914456774963789</pproTicksIn>
					<pproTicksOut>914677708529577</pproTicksOut>
					<alphatype>straight</alphatype>
					<pixelaspectratio>square</pixelaspectratio>
					<anamorphic>FALSE</anamorphic>
					<file id="file-447">
					<name></name>
					<mediaSource>GraphicAndType</mediaSource>
					<rate>
					<timebase>60</timebase>
					<ntsc>TRUE</ntsc>
					</rate>
					<timecode>
					<rate>
					<timebase>60</timebase>
					<ntsc>TRUE</ntsc>
					</rate>
					<string>00:00:00:00</string>
					<frame>0</frame>
					<displayformat>NDF</displayformat>
					</timecode>
					<media>
					<video>
					<samplecharacteristics>
					<rate>
					<timebase>60</timebase>
					<ntsc>TRUE</ntsc>
					</rate>
					<width>1080</width>
					<height>1920</height>
					<anamorphic>FALSE</anamorphic>
					<pixelaspectratio>square</pixelaspectratio>
					<fielddominance>none</fielddominance>
					</samplecharacteristics>
					</video>
					</media>
					</file>
					<filter>
					<effect>
					<name></name>
					<effectid>GraphicAndType</effectid>
					<effectcategory>graphic</effectcategory>
					<effecttype>filter</effecttype>
					<mediatype>video</mediatype>
					<pproBypass>false</pproBypass>
					<parameter authoringApp="PremierePro">
					<parameterid>1</parameterid>
					<name></name>
					<hash>025b1101-ead6-0ca2-1feb-caf3000001fc</hash>
					<value>5AEAAAAAAABEMyIRDAAAAAAABgAKAAQABgAAAGQAAAAAAF4ASAAQAAwARABAADwAOAAAAAAAAAAAADQAMwAsAAAAKAAkACAAAAAAAAAAAAAAAAAAHAAAAAAAGgAAAAAAAAAUAAAAAAAAAAAAAAAAAAAAAAAAAAgAAAAAABsABwBeAAAAAAAAAUAAAABQAAAAbAAAAAIAAAAAAAEAAQAAAAAAQEEAAMBAAABAQAAAyEIAAAABIAAAAAIAAAACAAAAAAA2QwCASkTw/v//9P7///j+//8S////AAAAAAEAAAAEAAAAEQAAAEhHUFNvZWlLYWt1cG9wdGFpAAAAAQAAAAwAAAAIAAwABAAIAAgAAAAIAAAAUAAAAA8AAADvvIEAAAAAAAAAAAAAAAAAAAA2ACQAAAAgABwAAAAAABsAFAAAAAAAAAAAAAAAAAAAAAAAAAAAABAAAAAAAAAADAAAAAgABAA2AAAAAgAAABwAAAAcAAAAHAAAAAAAIEEAAAABaAAAAE3PAEOw////tP///wEAAAAUAAAAEAAaAAgABwAMAAAAEAAUABAAAAAAAAABHAAAAAAAoEEcAAAAAgAAAAAACgAIAAUABgAHAAoAAAAADAD//P///wQABAAEAAAACAAIAAYABwAIAAAAAAAMAA==</value>
					</parameter>
					<parameter authoringApp="PremierePro">
					<parameterid>2</parameterid>
					<name></name>
					<IsTimeVarying>false</IsTimeVarying>
					<ParameterControlType>11</ParameterControlType>
					<LowerBound>false</LowerBound>
					<UpperBound>false</UpperBound>
					<value>-91445760000000000,false,0,0,0,0,0,0</value>
					</parameter>
					<parameter authoringApp="PremierePro">
					<parameterid>3</parameterid>
					<name></name>
					<IsTimeVarying>false</IsTimeVarying>
					<value>-91445760000000000,0.5:0.5,0,0,0,0,0,0,5,4,0,0,0,0</value>
					</parameter>
					<parameter authoringApp="PremierePro">
					<parameterid>4</parameterid>
					<name></name>
					<IsTimeVarying>false</IsTimeVarying>
					<ParameterControlType>2</ParameterControlType>
					<LowerBound>0</LowerBound>
					<UpperBound>4000</UpperBound>
					<value>-91445760000000000,100.,0,0,0,0,0,0</value>
					</parameter>
					<parameter authoringApp="PremierePro">
					<parameterid>8</parameterid>
					<name></name>
					<IsTimeVarying>false</IsTimeVarying>
					<ParameterControlType>2</ParameterControlType>
					<LowerBound>0</LowerBound>
					<UpperBound>100</UpperBound>
					<value>-91445760000000000,100.,0,0,0,0,0,0</value>
					</parameter>
					</effect>
					</filter>
					<logginginfo>
					<description></description>
					<scene></scene>
					<shottake></shottake>
					<lognote></lognote>
					<good></good>
					<originalvideofilename></originalvideofilename>
					<originalaudiofilename></originalaudiofilename>
					</logginginfo>
					<colorinfo>
					<lut></lut>
					<lut1></lut1>
					<asc_sop></asc_sop>
					<asc_sat></asc_sat>
					<lut2></lut2>
					</colorinfo>
					<labels>
					</labels>
					</clipitem>
					<clipitem frameBlend="FALSE" id="clipitem-534">
					<masterclipid>masterclip-454</masterclipid>
					<name></name>
					<enabled>TRUE</enabled>
					<duration>2582774</duration>
					<rate>
					
					                                    <timebase>60</timebase>
					                                    <ntsc>TRUE</ntsc>
					                                
					</rate>
					<start>4366</start>
					<end>4426</end>
					<in>4366</in>
					<out>4426</out>
					<pproTicksIn>914456774963789</pproTicksIn>
					<pproTicksOut>914677708529577</pproTicksOut>
					<alphatype>straight</alphatype>
					<pixelaspectratio>square</pixelaspectratio>
					<anamorphic>FALSE</anamorphic>
					<file id="file-453">
					<name></name>
					<mediaSource>GraphicAndType</mediaSource>
					<rate>
					<timebase>60</timebase>
					<ntsc>TRUE</ntsc>
					</rate>
					<timecode>
					<rate>
					<timebase>60</timebase>
					<ntsc>TRUE</ntsc>
					</rate>
					<string>00:00:00:00</string>
					<frame>0</frame>
					<displayformat>NDF</displayformat>
					</timecode>
					<media>
					<video>
					<samplecharacteristics>
					<rate>
					<timebase>60</timebase>
					<ntsc>TRUE</ntsc>
					</rate>
					<width>1080</width>
					<height>1920</height>
					<anamorphic>FALSE</anamorphic>
					<pixelaspectratio>square</pixelaspectratio>
					<fielddominance>none</fielddominance>
					</samplecharacteristics>
					</video>
					</media>
					</file>
					<filter>
					<effect>
					<name></name>
					<effectid>GraphicAndType</effectid>
					<effectcategory>graphic</effectcategory>
					<effecttype>filter</effecttype>
					<mediatype>video</mediatype>
					<pproBypass>false</pproBypass>
					<parameter authoringApp="PremierePro">
					<parameterid>1</parameterid>
					<name></name>
					<hash>025b1101-ead6-0ca2-1feb-caf3000001fc</hash>
					<value>5AEAAAAAAABEMyIRDAAAAAAABgAKAAQABgAAAGQAAAAAAF4ASAAQAAwARABAADwAOAAAAAAAAAAAADQAMwAsAAAAKAAkACAAAAAAAAAAAAAAAAAAHAAAAAAAGgAAAAAAAAAUAAAAAAAAAAAAAAAAAAAAAAAAAAgAAAAAABsABwBeAAAAAAAAAUAAAABQAAAAbAAAAAIAAAAAAAEAAQAAAAAAQEEAAMBAAABAQAAAyEIAAAABIAAAAAIAAAACAAAAAAA2QwCASkTw/v//9P7///j+//8S////AAAAAAEAAAAEAAAAEQAAAEhHUFNvZWlLYWt1cG9wdGFpAAAAAQAAAAwAAAAIAAwABAAIAAgAAAAIAAAAUAAAAA8AAADvvIEAAAAAAAAAAAAAAAAAAAA2ACQAAAAgABwAAAAAABsAFAAAAAAAAAAAAAAAAAAAAAAAAAAAABAAAAAAAAAADAAAAAgABAA2AAAAAgAAABwAAAAcAAAAHAAAAAAAIEEAAAABaAAAAE3PAEOw////tP///wEAAAAUAAAAEAAaAAgABwAMAAAAEAAUABAAAAAAAAABHAAAAAAAoEEcAAAAAgAAAAAACgAIAAUABgAHAAoAAAAADAD//P///wQABAAEAAAACAAIAAYABwAIAAAAAAAMAA==</value>
					</parameter>
					<parameter authoringApp="PremierePro">
					<parameterid>2</parameterid>
					<name></name>
					<IsTimeVarying>false</IsTimeVarying>
					<ParameterControlType>11</ParameterControlType>
					<LowerBound>false</LowerBound>
					<UpperBound>false</UpperBound>
					<value>-91445760000000000,false,0,0,0,0,0,0</value>
					</parameter>
					<parameter authoringApp="PremierePro">
					<parameterid>3</parameterid>
					<name></name>
					<IsTimeVarying>false</IsTimeVarying>
					<value>-91445760000000000,0.5:0.5,0,0,0,0,0,0,5,4,0,0,0,0</value>
					</parameter>
					<parameter authoringApp="PremierePro">
					<parameterid>4</parameterid>
					<name></name>
					<IsTimeVarying>false</IsTimeVarying>
					<ParameterControlType>2</ParameterControlType>
					<LowerBound>0</LowerBound>
					<UpperBound>4000</UpperBound>
					<value>-91445760000000000,100.,0,0,0,0,0,0</value>
					</parameter>
					<parameter authoringApp="PremierePro">
					<parameterid>8</parameterid>
					<name></name>
					<IsTimeVarying>false</IsTimeVarying>
					<ParameterControlType>2</ParameterControlType>
					<LowerBound>0</LowerBound>
					<UpperBound>100</UpperBound>
					<value>-91445760000000000,100.,0,0,0,0,0,0</value>
					</parameter>
					</effect>
					</filter>
					<logginginfo>
					<description></description>
					<scene></scene>
					<shottake></shottake>
					<lognote></lognote>
					<good></good>
					<originalvideofilename></originalvideofilename>
					<originalaudiofilename></originalaudiofilename>
					</logginginfo>
					<colorinfo>
					<lut></lut>
					<lut1></lut1>
					<asc_sop></asc_sop>
					<asc_sat></asc_sat>
					<lut2></lut2>
					</colorinfo>
					<labels>
					</labels>
					</clipitem>
					<clipitem frameBlend="FALSE" id="clipitem-543">
					<masterclipid>masterclip-463</masterclipid>
					<name></name>
					<enabled>TRUE</enabled>
					<duration>2582774</duration>
					<rate>
					
					                                    <timebase>60</timebase>
					                                    <ntsc>TRUE</ntsc>
					                                
					</rate>
					<start>4426</start>
					<end>4486</end>
					<in>4426</in>
					<out>4486</out>
					<pproTicksIn>914456774963789</pproTicksIn>
					<pproTicksOut>914677708529577</pproTicksOut>
					<alphatype>straight</alphatype>
					<pixelaspectratio>square</pixelaspectratio>
					<anamorphic>FALSE</anamorphic>
					<file id="file-462">
					<name></name>
					<mediaSource>GraphicAndType</mediaSource>
					<rate>
					<timebase>60</timebase>
					<ntsc>TRUE</ntsc>
					</rate>
					<timecode>
					<rate>
					<timebase>60</timebase>
					<ntsc>TRUE</ntsc>
					</rate>
					<string>00:00:00:00</string>
					<frame>0</frame>
					<displayformat>NDF</displayformat>
					</timecode>
					<media>
					<video>
					<samplecharacteristics>
					<rate>
					<timebase>60</timebase>
					<ntsc>TRUE</ntsc>
					</rate>
					<width>1080</width>
					<height>1920</height>
					<anamorphic>FALSE</anamorphic>
					<pixelaspectratio>square</pixelaspectratio>
					<fielddominance>none</fielddominance>
					</samplecharacteristics>
					</video>
					</media>
					</file>
					<filter>
					<effect>
					<name></name>
					<effectid>GraphicAndType</effectid>
					<effectcategory>graphic</effectcategory>
					<effecttype>filter</effecttype>
					<mediatype>video</mediatype>
					<pproBypass>false</pproBypass>
					<parameter authoringApp="PremierePro">
					<parameterid>1</parameterid>
					<name></name>
					<hash>025b1101-ead6-0ca2-1feb-caf3000001fc</hash>
					<value>5AEAAAAAAABEMyIRDAAAAAAABgAKAAQABgAAAGQAAAAAAF4ASAAQAAwARABAADwAOAAAAAAAAAAAADQAMwAsAAAAKAAkACAAAAAAAAAAAAAAAAAAHAAAAAAAGgAAAAAAAAAUAAAAAAAAAAAAAAAAAAAAAAAAAAgAAAAAABsABwBeAAAAAAAAAUAAAABQAAAAbAAAAAIAAAAAAAEAAQAAAAAAQEEAAMBAAABAQAAAyEIAAAABIAAAAAIAAAACAAAAAAA2QwCASkTw/v//9P7///j+//8S////AAAAAAEAAAAEAAAAEQAAAEhHUFNvZWlLYWt1cG9wdGFpAAAAAQAAAAwAAAAIAAwABAAIAAgAAAAIAAAAUAAAAA8AAADvvIEAAAAAAAAAAAAAAAAAAAA2ACQAAAAgABwAAAAAABsAFAAAAAAAAAAAAAAAAAAAAAAAAAAAABAAAAAAAAAADAAAAAgABAA2AAAAAgAAABwAAAAcAAAAHAAAAAAAIEEAAAABaAAAAE3PAEOw////tP///wEAAAAUAAAAEAAaAAgABwAMAAAAEAAUABAAAAAAAAABHAAAAAAAoEEcAAAAAgAAAAAACgAIAAUABgAHAAoAAAAADAD//P///wQABAAEAAAACAAIAAYABwAIAAAAAAAMAA==</value>
					</parameter>
					<parameter authoringApp="PremierePro">
					<parameterid>2</parameterid>
					<name></name>
					<IsTimeVarying>false</IsTimeVarying>
					<ParameterControlType>11</ParameterControlType>
					<LowerBound>false</LowerBound>
					<UpperBound>false</UpperBound>
					<value>-91445760000000000,false,0,0,0,0,0,0</value>
					</parameter>
					<parameter authoringApp="PremierePro">
					<parameterid>3</parameterid>
					<name></name>
					<IsTimeVarying>false</IsTimeVarying>
					<value>-91445760000000000,0.5:0.5,0,0,0,0,0,0,5,4,0,0,0,0</value>
					</parameter>
					<parameter authoringApp="PremierePro">
					<parameterid>4</parameterid>
					<name></name>
					<IsTimeVarying>false</IsTimeVarying>
					<ParameterControlType>2</ParameterControlType>
					<LowerBound>0</LowerBound>
					<UpperBound>4000</UpperBound>
					<value>-91445760000000000,100.,0,0,0,0,0,0</value>
					</parameter>
					<parameter authoringApp="PremierePro">
					<parameterid>8</parameterid>
					<name></name>
					<IsTimeVarying>false</IsTimeVarying>
					<ParameterControlType>2</ParameterControlType>
					<LowerBound>0</LowerBound>
					<UpperBound>100</UpperBound>
					<value>-91445760000000000,100.,0,0,0,0,0,0</value>
					</parameter>
					</effect>
					</filter>
					<logginginfo>
					<description></description>
					<scene></scene>
					<shottake></shottake>
					<lognote></lognote>
					<good></good>
					<originalvideofilename></originalvideofilename>
					<originalaudiofilename></originalaudiofilename>
					</logginginfo>
					<colorinfo>
					<lut></lut>
					<lut1></lut1>
					<asc_sop></asc_sop>
					<asc_sat></asc_sat>
					<lut2></lut2>
					</colorinfo>
					<labels>
					</labels>
					</clipitem>
					<clipitem frameBlend="FALSE" id="clipitem-553">
					<masterclipid>masterclip-473</masterclipid>
					<name></name>
					<enabled>TRUE</enabled>
					<duration>2582774</duration>
					<rate>
					
					                                    <timebase>60</timebase>
					                                    <ntsc>TRUE</ntsc>
					                                
					</rate>
					<start>4492</start>
					<end>4558</end>
					<in>4492</in>
					<out>4558</out>
					<pproTicksIn>914456774963789</pproTicksIn>
					<pproTicksOut>914677708529577</pproTicksOut>
					<alphatype>straight</alphatype>
					<pixelaspectratio>square</pixelaspectratio>
					<anamorphic>FALSE</anamorphic>
					<file id="file-472">
					<name></name>
					<mediaSource>GraphicAndType</mediaSource>
					<rate>
					<timebase>60</timebase>
					<ntsc>TRUE</ntsc>
					</rate>
					<timecode>
					<rate>
					<timebase>60</timebase>
					<ntsc>TRUE</ntsc>
					</rate>
					<string>00:00:00:00</string>
					<frame>0</frame>
					<displayformat>NDF</displayformat>
					</timecode>
					<media>
					<video>
					<samplecharacteristics>
					<rate>
					<timebase>60</timebase>
					<ntsc>TRUE</ntsc>
					</rate>
					<width>1080</width>
					<height>1920</height>
					<anamorphic>FALSE</anamorphic>
					<pixelaspectratio>square</pixelaspectratio>
					<fielddominance>none</fielddominance>
					</samplecharacteristics>
					</video>
					</media>
					</file>
					<filter>
					<effect>
					<name></name>
					<effectid>GraphicAndType</effectid>
					<effectcategory>graphic</effectcategory>
					<effecttype>filter</effecttype>
					<mediatype>video</mediatype>
					<pproBypass>false</pproBypass>
					<parameter authoringApp="PremierePro">
					<parameterid>1</parameterid>
					<name></name>
					<hash>025b1101-ead6-0ca2-1feb-caf3000001fc</hash>
					<value>5AEAAAAAAABEMyIRDAAAAAAABgAKAAQABgAAAGQAAAAAAF4ASAAQAAwARABAADwAOAAAAAAAAAAAADQAMwAsAAAAKAAkACAAAAAAAAAAAAAAAAAAHAAAAAAAGgAAAAAAAAAUAAAAAAAAAAAAAAAAAAAAAAAAAAgAAAAAABsABwBeAAAAAAAAAUAAAABQAAAAbAAAAAIAAAAAAAEAAQAAAAAAQEEAAMBAAABAQAAAyEIAAAABIAAAAAIAAAACAAAAAAA2QwCASkTw/v//9P7///j+//8S////AAAAAAEAAAAEAAAAEQAAAEhHUFNvZWlLYWt1cG9wdGFpAAAAAQAAAAwAAAAIAAwABAAIAAgAAAAIAAAAUAAAAA8AAADvvIEAAAAAAAAAAAAAAAAAAAA2ACQAAAAgABwAAAAAABsAFAAAAAAAAAAAAAAAAAAAAAAAAAAAABAAAAAAAAAADAAAAAgABAA2AAAAAgAAABwAAAAcAAAAHAAAAAAAIEEAAAABaAAAAE3PAEOw////tP///wEAAAAUAAAAEAAaAAgABwAMAAAAEAAUABAAAAAAAAABHAAAAAAAoEEcAAAAAgAAAAAACgAIAAUABgAHAAoAAAAADAD//P///wQABAAEAAAACAAIAAYABwAIAAAAAAAMAA==</value>
					</parameter>
					<parameter authoringApp="PremierePro">
					<parameterid>2</parameterid>
					<name></name>
					<IsTimeVarying>false</IsTimeVarying>
					<ParameterControlType>11</ParameterControlType>
					<LowerBound>false</LowerBound>
					<UpperBound>false</UpperBound>
					<value>-91445760000000000,false,0,0,0,0,0,0</value>
					</parameter>
					<parameter authoringApp="PremierePro">
					<parameterid>3</parameterid>
					<name></name>
					<IsTimeVarying>false</IsTimeVarying>
					<value>-91445760000000000,0.5:0.5,0,0,0,0,0,0,5,4,0,0,0,0</value>
					</parameter>
					<parameter authoringApp="PremierePro">
					<parameterid>4</parameterid>
					<name></name>
					<IsTimeVarying>false</IsTimeVarying>
					<ParameterControlType>2</ParameterControlType>
					<LowerBound>0</LowerBound>
					<UpperBound>4000</UpperBound>
					<value>-91445760000000000,100.,0,0,0,0,0,0</value>
					</parameter>
					<parameter authoringApp="PremierePro">
					<parameterid>8</parameterid>
					<name></name>
					<IsTimeVarying>false</IsTimeVarying>
					<ParameterControlType>2</ParameterControlType>
					<LowerBound>0</LowerBound>
					<UpperBound>100</UpperBound>
					<value>-91445760000000000,100.,0,0,0,0,0,0</value>
					</parameter>
					</effect>
					</filter>
					<logginginfo>
					<description></description>
					<scene></scene>
					<shottake></shottake>
					<lognote></lognote>
					<good></good>
					<originalvideofilename></originalvideofilename>
					<originalaudiofilename></originalaudiofilename>
					</logginginfo>
					<colorinfo>
					<lut></lut>
					<lut1></lut1>
					<asc_sop></asc_sop>
					<asc_sat></asc_sat>
					<lut2></lut2>
					</colorinfo>
					<labels>
					</labels>
					</clipitem>
					<clipitem frameBlend="FALSE" id="clipitem-559">
					<masterclipid>masterclip-479</masterclipid>
					<name></name>
					<enabled>TRUE</enabled>
					<duration>2582774</duration>
					<rate>
					
					                                    <timebase>60</timebase>
					                                    <ntsc>TRUE</ntsc>
					                                
					</rate>
					<start>4564</start>
					<end>4624</end>
					<in>4564</in>
					<out>4624</out>
					<pproTicksIn>914456774963789</pproTicksIn>
					<pproTicksOut>914677708529577</pproTicksOut>
					<alphatype>straight</alphatype>
					<pixelaspectratio>square</pixelaspectratio>
					<anamorphic>FALSE</anamorphic>
					<file id="file-478">
					<name></name>
					<mediaSource>GraphicAndType</mediaSource>
					<rate>
					<timebase>60</timebase>
					<ntsc>TRUE</ntsc>
					</rate>
					<timecode>
					<rate>
					<timebase>60</timebase>
					<ntsc>TRUE</ntsc>
					</rate>
					<string>00:00:00:00</string>
					<frame>0</frame>
					<displayformat>NDF</displayformat>
					</timecode>
					<media>
					<video>
					<samplecharacteristics>
					<rate>
					<timebase>60</timebase>
					<ntsc>TRUE</ntsc>
					</rate>
					<width>1080</width>
					<height>1920</height>
					<anamorphic>FALSE</anamorphic>
					<pixelaspectratio>square</pixelaspectratio>
					<fielddominance>none</fielddominance>
					</samplecharacteristics>
					</video>
					</media>
					</file>
					<filter>
					<effect>
					<name></name>
					<effectid>GraphicAndType</effectid>
					<effectcategory>graphic</effectcategory>
					<effecttype>filter</effecttype>
					<mediatype>video</mediatype>
					<pproBypass>false</pproBypass>
					<parameter authoringApp="PremierePro">
					<parameterid>1</parameterid>
					<name></name>
					<hash>025b1101-ead6-0ca2-1feb-caf3000001fc</hash>
					<value>5AEAAAAAAABEMyIRDAAAAAAABgAKAAQABgAAAGQAAAAAAF4ASAAQAAwARABAADwAOAAAAAAAAAAAADQAMwAsAAAAKAAkACAAAAAAAAAAAAAAAAAAHAAAAAAAGgAAAAAAAAAUAAAAAAAAAAAAAAAAAAAAAAAAAAgAAAAAABsABwBeAAAAAAAAAUAAAABQAAAAbAAAAAIAAAAAAAEAAQAAAAAAQEEAAMBAAABAQAAAyEIAAAABIAAAAAIAAAACAAAAAAA2QwCASkTw/v//9P7///j+//8S////AAAAAAEAAAAEAAAAEQAAAEhHUFNvZWlLYWt1cG9wdGFpAAAAAQAAAAwAAAAIAAwABAAIAAgAAAAIAAAAUAAAAA8AAADvvIEAAAAAAAAAAAAAAAAAAAA2ACQAAAAgABwAAAAAABsAFAAAAAAAAAAAAAAAAAAAAAAAAAAAABAAAAAAAAAADAAAAAgABAA2AAAAAgAAABwAAAAcAAAAHAAAAAAAIEEAAAABaAAAAE3PAEOw////tP///wEAAAAUAAAAEAAaAAgABwAMAAAAEAAUABAAAAAAAAABHAAAAAAAoEEcAAAAAgAAAAAACgAIAAUABgAHAAoAAAAADAD//P///wQABAAEAAAACAAIAAYABwAIAAAAAAAMAA==</value>
					</parameter>
					<parameter authoringApp="PremierePro">
					<parameterid>2</parameterid>
					<name></name>
					<IsTimeVarying>false</IsTimeVarying>
					<ParameterControlType>11</ParameterControlType>
					<LowerBound>false</LowerBound>
					<UpperBound>false</UpperBound>
					<value>-91445760000000000,false,0,0,0,0,0,0</value>
					</parameter>
					<parameter authoringApp="PremierePro">
					<parameterid>3</parameterid>
					<name></name>
					<IsTimeVarying>false</IsTimeVarying>
					<value>-91445760000000000,0.5:0.5,0,0,0,0,0,0,5,4,0,0,0,0</value>
					</parameter>
					<parameter authoringApp="PremierePro">
					<parameterid>4</parameterid>
					<name></name>
					<IsTimeVarying>false</IsTimeVarying>
					<ParameterControlType>2</ParameterControlType>
					<LowerBound>0</LowerBound>
					<UpperBound>4000</UpperBound>
					<value>-91445760000000000,100.,0,0,0,0,0,0</value>
					</parameter>
					<parameter authoringApp="PremierePro">
					<parameterid>8</parameterid>
					<name></name>
					<IsTimeVarying>false</IsTimeVarying>
					<ParameterControlType>2</ParameterControlType>
					<LowerBound>0</LowerBound>
					<UpperBound>100</UpperBound>
					<value>-91445760000000000,100.,0,0,0,0,0,0</value>
					</parameter>
					</effect>
					</filter>
					<logginginfo>
					<description></description>
					<scene></scene>
					<shottake></shottake>
					<lognote></lognote>
					<good></good>
					<originalvideofilename></originalvideofilename>
					<originalaudiofilename></originalaudiofilename>
					</logginginfo>
					<colorinfo>
					<lut></lut>
					<lut1></lut1>
					<asc_sop></asc_sop>
					<asc_sat></asc_sat>
					<lut2></lut2>
					</colorinfo>
					<labels>
					</labels>
					</clipitem>
					<clipitem frameBlend="FALSE" id="clipitem-565">
					<masterclipid>masterclip-485</masterclipid>
					<name></name>
					<enabled>TRUE</enabled>
					<duration>2582774</duration>
					<rate>
					
					                                    <timebase>60</timebase>
					                                    <ntsc>TRUE</ntsc>
					                                
					</rate>
					<start>4624</start>
					<end>4690</end>
					<in>4624</in>
					<out>4690</out>
					<pproTicksIn>914456774963789</pproTicksIn>
					<pproTicksOut>914677708529577</pproTicksOut>
					<alphatype>straight</alphatype>
					<pixelaspectratio>square</pixelaspectratio>
					<anamorphic>FALSE</anamorphic>
					<file id="file-484">
					<name></name>
					<mediaSource>GraphicAndType</mediaSource>
					<rate>
					<timebase>60</timebase>
					<ntsc>TRUE</ntsc>
					</rate>
					<timecode>
					<rate>
					<timebase>60</timebase>
					<ntsc>TRUE</ntsc>
					</rate>
					<string>00:00:00:00</string>
					<frame>0</frame>
					<displayformat>NDF</displayformat>
					</timecode>
					<media>
					<video>
					<samplecharacteristics>
					<rate>
					<timebase>60</timebase>
					<ntsc>TRUE</ntsc>
					</rate>
					<width>1080</width>
					<height>1920</height>
					<anamorphic>FALSE</anamorphic>
					<pixelaspectratio>square</pixelaspectratio>
					<fielddominance>none</fielddominance>
					</samplecharacteristics>
					</video>
					</media>
					</file>
					<filter>
					<effect>
					<name></name>
					<effectid>GraphicAndType</effectid>
					<effectcategory>graphic</effectcategory>
					<effecttype>filter</effecttype>
					<mediatype>video</mediatype>
					<pproBypass>false</pproBypass>
					<parameter authoringApp="PremierePro">
					<parameterid>1</parameterid>
					<name></name>
					<hash>025b1101-ead6-0ca2-1feb-caf3000001fc</hash>
					<value>5AEAAAAAAABEMyIRDAAAAAAABgAKAAQABgAAAGQAAAAAAF4ASAAQAAwARABAADwAOAAAAAAAAAAAADQAMwAsAAAAKAAkACAAAAAAAAAAAAAAAAAAHAAAAAAAGgAAAAAAAAAUAAAAAAAAAAAAAAAAAAAAAAAAAAgAAAAAABsABwBeAAAAAAAAAUAAAABQAAAAbAAAAAIAAAAAAAEAAQAAAAAAQEEAAMBAAABAQAAAyEIAAAABIAAAAAIAAAACAAAAAAA2QwCASkTw/v//9P7///j+//8S////AAAAAAEAAAAEAAAAEQAAAEhHUFNvZWlLYWt1cG9wdGFpAAAAAQAAAAwAAAAIAAwABAAIAAgAAAAIAAAAUAAAAA8AAADvvIEAAAAAAAAAAAAAAAAAAAA2ACQAAAAgABwAAAAAABsAFAAAAAAAAAAAAAAAAAAAAAAAAAAAABAAAAAAAAAADAAAAAgABAA2AAAAAgAAABwAAAAcAAAAHAAAAAAAIEEAAAABaAAAAE3PAEOw////tP///wEAAAAUAAAAEAAaAAgABwAMAAAAEAAUABAAAAAAAAABHAAAAAAAoEEcAAAAAgAAAAAACgAIAAUABgAHAAoAAAAADAD//P///wQABAAEAAAACAAIAAYABwAIAAAAAAAMAA==</value>
					</parameter>
					<parameter authoringApp="PremierePro">
					<parameterid>2</parameterid>
					<name></name>
					<IsTimeVarying>false</IsTimeVarying>
					<ParameterControlType>11</ParameterControlType>
					<LowerBound>false</LowerBound>
					<UpperBound>false</UpperBound>
					<value>-91445760000000000,false,0,0,0,0,0,0</value>
					</parameter>
					<parameter authoringApp="PremierePro">
					<parameterid>3</parameterid>
					<name></name>
					<IsTimeVarying>false</IsTimeVarying>
					<value>-91445760000000000,0.5:0.5,0,0,0,0,0,0,5,4,0,0,0,0</value>
					</parameter>
					<parameter authoringApp="PremierePro">
					<parameterid>4</parameterid>
					<name></name>
					<IsTimeVarying>false</IsTimeVarying>
					<ParameterControlType>2</ParameterControlType>
					<LowerBound>0</LowerBound>
					<UpperBound>4000</UpperBound>
					<value>-91445760000000000,100.,0,0,0,0,0,0</value>
					</parameter>
					<parameter authoringApp="PremierePro">
					<parameterid>8</parameterid>
					<name></name>
					<IsTimeVarying>false</IsTimeVarying>
					<ParameterControlType>2</ParameterControlType>
					<LowerBound>0</LowerBound>
					<UpperBound>100</UpperBound>
					<value>-91445760000000000,100.,0,0,0,0,0,0</value>
					</parameter>
					</effect>
					</filter>
					<logginginfo>
					<description></description>
					<scene></scene>
					<shottake></shottake>
					<lognote></lognote>
					<good></good>
					<originalvideofilename></originalvideofilename>
					<originalaudiofilename></originalaudiofilename>
					</logginginfo>
					<colorinfo>
					<lut></lut>
					<lut1></lut1>
					<asc_sop></asc_sop>
					<asc_sat></asc_sat>
					<lut2></lut2>
					</colorinfo>
					<labels>
					</labels>
					</clipitem>
					<clipitem frameBlend="FALSE" id="clipitem-570">
					<masterclipid>masterclip-490</masterclipid>
					<name></name>
					<enabled>TRUE</enabled>
					<duration>2582774</duration>
					<rate>
					
					                                    <timebase>60</timebase>
					                                    <ntsc>TRUE</ntsc>
					                                
					</rate>
					<start>4696</start>
					<end>4756</end>
					<in>4696</in>
					<out>4756</out>
					<pproTicksIn>914456774963789</pproTicksIn>
					<pproTicksOut>914677708529577</pproTicksOut>
					<alphatype>straight</alphatype>
					<pixelaspectratio>square</pixelaspectratio>
					<anamorphic>FALSE</anamorphic>
					<file id="file-489">
					<name></name>
					<mediaSource>GraphicAndType</mediaSource>
					<rate>
					<timebase>60</timebase>
					<ntsc>TRUE</ntsc>
					</rate>
					<timecode>
					<rate>
					<timebase>60</timebase>
					<ntsc>TRUE</ntsc>
					</rate>
					<string>00:00:00:00</string>
					<frame>0</frame>
					<displayformat>NDF</displayformat>
					</timecode>
					<media>
					<video>
					<samplecharacteristics>
					<rate>
					<timebase>60</timebase>
					<ntsc>TRUE</ntsc>
					</rate>
					<width>1080</width>
					<height>1920</height>
					<anamorphic>FALSE</anamorphic>
					<pixelaspectratio>square</pixelaspectratio>
					<fielddominance>none</fielddominance>
					</samplecharacteristics>
					</video>
					</media>
					</file>
					<filter>
					<effect>
					<name></name>
					<effectid>GraphicAndType</effectid>
					<effectcategory>graphic</effectcategory>
					<effecttype>filter</effecttype>
					<mediatype>video</mediatype>
					<pproBypass>false</pproBypass>
					<parameter authoringApp="PremierePro">
					<parameterid>1</parameterid>
					<name></name>
					<hash>025b1101-ead6-0ca2-1feb-caf3000001fc</hash>
					<value>5AEAAAAAAABEMyIRDAAAAAAABgAKAAQABgAAAGQAAAAAAF4ASAAQAAwARABAADwAOAAAAAAAAAAAADQAMwAsAAAAKAAkACAAAAAAAAAAAAAAAAAAHAAAAAAAGgAAAAAAAAAUAAAAAAAAAAAAAAAAAAAAAAAAAAgAAAAAABsABwBeAAAAAAAAAUAAAABQAAAAbAAAAAIAAAAAAAEAAQAAAAAAQEEAAMBAAABAQAAAyEIAAAABIAAAAAIAAAACAAAAAAA2QwCASkTw/v//9P7///j+//8S////AAAAAAEAAAAEAAAAEQAAAEhHUFNvZWlLYWt1cG9wdGFpAAAAAQAAAAwAAAAIAAwABAAIAAgAAAAIAAAAUAAAAA8AAADvvIEAAAAAAAAAAAAAAAAAAAA2ACQAAAAgABwAAAAAABsAFAAAAAAAAAAAAAAAAAAAAAAAAAAAABAAAAAAAAAADAAAAAgABAA2AAAAAgAAABwAAAAcAAAAHAAAAAAAIEEAAAABaAAAAE3PAEOw////tP///wEAAAAUAAAAEAAaAAgABwAMAAAAEAAUABAAAAAAAAABHAAAAAAAoEEcAAAAAgAAAAAACgAIAAUABgAHAAoAAAAADAD//P///wQABAAEAAAACAAIAAYABwAIAAAAAAAMAA==</value>
					</parameter>
					<parameter authoringApp="PremierePro">
					<parameterid>2</parameterid>
					<name></name>
					<IsTimeVarying>false</IsTimeVarying>
					<ParameterControlType>11</ParameterControlType>
					<LowerBound>false</LowerBound>
					<UpperBound>false</UpperBound>
					<value>-91445760000000000,false,0,0,0,0,0,0</value>
					</parameter>
					<parameter authoringApp="PremierePro">
					<parameterid>3</parameterid>
					<name></name>
					<IsTimeVarying>false</IsTimeVarying>
					<value>-91445760000000000,0.5:0.5,0,0,0,0,0,0,5,4,0,0,0,0</value>
					</parameter>
					<parameter authoringApp="PremierePro">
					<parameterid>4</parameterid>
					<name></name>
					<IsTimeVarying>false</IsTimeVarying>
					<ParameterControlType>2</ParameterControlType>
					<LowerBound>0</LowerBound>
					<UpperBound>4000</UpperBound>
					<value>-91445760000000000,100.,0,0,0,0,0,0</value>
					</parameter>
					<parameter authoringApp="PremierePro">
					<parameterid>8</parameterid>
					<name></name>
					<IsTimeVarying>false</IsTimeVarying>
					<ParameterControlType>2</ParameterControlType>
					<LowerBound>0</LowerBound>
					<UpperBound>100</UpperBound>
					<value>-91445760000000000,100.,0,0,0,0,0,0</value>
					</parameter>
					</effect>
					</filter>
					<logginginfo>
					<description></description>
					<scene></scene>
					<shottake></shottake>
					<lognote></lognote>
					<good></good>
					<originalvideofilename></originalvideofilename>
					<originalaudiofilename></originalaudiofilename>
					</logginginfo>
					<colorinfo>
					<lut></lut>
					<lut1></lut1>
					<asc_sop></asc_sop>
					<asc_sat></asc_sat>
					<lut2></lut2>
					</colorinfo>
					<labels>
					</labels>
					</clipitem>
					<clipitem frameBlend="FALSE" id="clipitem-576">
					<masterclipid>masterclip-496</masterclipid>
					<name></name>
					<enabled>TRUE</enabled>
					<duration>2582774</duration>
					<rate>
					
					                                    <timebase>60</timebase>
					                                    <ntsc>TRUE</ntsc>
					                                
					</rate>
					<start>4756</start>
					<end>4816</end>
					<in>4756</in>
					<out>4816</out>
					<pproTicksIn>914456774963789</pproTicksIn>
					<pproTicksOut>914677708529577</pproTicksOut>
					<alphatype>straight</alphatype>
					<pixelaspectratio>square</pixelaspectratio>
					<anamorphic>FALSE</anamorphic>
					<file id="file-495">
					<name></name>
					<mediaSource>GraphicAndType</mediaSource>
					<rate>
					<timebase>60</timebase>
					<ntsc>TRUE</ntsc>
					</rate>
					<timecode>
					<rate>
					<timebase>60</timebase>
					<ntsc>TRUE</ntsc>
					</rate>
					<string>00:00:00:00</string>
					<frame>0</frame>
					<displayformat>NDF</displayformat>
					</timecode>
					<media>
					<video>
					<samplecharacteristics>
					<rate>
					<timebase>60</timebase>
					<ntsc>TRUE</ntsc>
					</rate>
					<width>1080</width>
					<height>1920</height>
					<anamorphic>FALSE</anamorphic>
					<pixelaspectratio>square</pixelaspectratio>
					<fielddominance>none</fielddominance>
					</samplecharacteristics>
					</video>
					</media>
					</file>
					<filter>
					<effect>
					<name></name>
					<effectid>GraphicAndType</effectid>
					<effectcategory>graphic</effectcategory>
					<effecttype>filter</effecttype>
					<mediatype>video</mediatype>
					<pproBypass>false</pproBypass>
					<parameter authoringApp="PremierePro">
					<parameterid>1</parameterid>
					<name></name>
					<hash>025b1101-ead6-0ca2-1feb-caf3000001fc</hash>
					<value>5AEAAAAAAABEMyIRDAAAAAAABgAKAAQABgAAAGQAAAAAAF4ASAAQAAwARABAADwAOAAAAAAAAAAAADQAMwAsAAAAKAAkACAAAAAAAAAAAAAAAAAAHAAAAAAAGgAAAAAAAAAUAAAAAAAAAAAAAAAAAAAAAAAAAAgAAAAAABsABwBeAAAAAAAAAUAAAABQAAAAbAAAAAIAAAAAAAEAAQAAAAAAQEEAAMBAAABAQAAAyEIAAAABIAAAAAIAAAACAAAAAAA2QwCASkTw/v//9P7///j+//8S////AAAAAAEAAAAEAAAAEQAAAEhHUFNvZWlLYWt1cG9wdGFpAAAAAQAAAAwAAAAIAAwABAAIAAgAAAAIAAAAUAAAAA8AAADvvIEAAAAAAAAAAAAAAAAAAAA2ACQAAAAgABwAAAAAABsAFAAAAAAAAAAAAAAAAAAAAAAAAAAAABAAAAAAAAAADAAAAAgABAA2AAAAAgAAABwAAAAcAAAAHAAAAAAAIEEAAAABaAAAAE3PAEOw////tP///wEAAAAUAAAAEAAaAAgABwAMAAAAEAAUABAAAAAAAAABHAAAAAAAoEEcAAAAAgAAAAAACgAIAAUABgAHAAoAAAAADAD//P///wQABAAEAAAACAAIAAYABwAIAAAAAAAMAA==</value>
					</parameter>
					<parameter authoringApp="PremierePro">
					<parameterid>2</parameterid>
					<name></name>
					<IsTimeVarying>false</IsTimeVarying>
					<ParameterControlType>11</ParameterControlType>
					<LowerBound>false</LowerBound>
					<UpperBound>false</UpperBound>
					<value>-91445760000000000,false,0,0,0,0,0,0</value>
					</parameter>
					<parameter authoringApp="PremierePro">
					<parameterid>3</parameterid>
					<name></name>
					<IsTimeVarying>false</IsTimeVarying>
					<value>-91445760000000000,0.5:0.5,0,0,0,0,0,0,5,4,0,0,0,0</value>
					</parameter>
					<parameter authoringApp="PremierePro">
					<parameterid>4</parameterid>
					<name></name>
					<IsTimeVarying>false</IsTimeVarying>
					<ParameterControlType>2</ParameterControlType>
					<LowerBound>0</LowerBound>
					<UpperBound>4000</UpperBound>
					<value>-91445760000000000,100.,0,0,0,0,0,0</value>
					</parameter>
					<parameter authoringApp="PremierePro">
					<parameterid>8</parameterid>
					<name></name>
					<IsTimeVarying>false</IsTimeVarying>
					<ParameterControlType>2</ParameterControlType>
					<LowerBound>0</LowerBound>
					<UpperBound>100</UpperBound>
					<value>-91445760000000000,100.,0,0,0,0,0,0</value>
					</parameter>
					</effect>
					</filter>
					<logginginfo>
					<description></description>
					<scene></scene>
					<shottake></shottake>
					<lognote></lognote>
					<good></good>
					<originalvideofilename></originalvideofilename>
					<originalaudiofilename></originalaudiofilename>
					</logginginfo>
					<colorinfo>
					<lut></lut>
					<lut1></lut1>
					<asc_sop></asc_sop>
					<asc_sat></asc_sat>
					<lut2></lut2>
					</colorinfo>
					<labels>
					</labels>
					</clipitem>
					<clipitem frameBlend="FALSE" id="clipitem-581">
					<masterclipid>masterclip-501</masterclipid>
					<name></name>
					<enabled>TRUE</enabled>
					<duration>2582774</duration>
					<rate>
					
					                                    <timebase>60</timebase>
					                                    <ntsc>TRUE</ntsc>
					                                
					</rate>
					<start>4816</start>
					<end>4876</end>
					<in>4816</in>
					<out>4876</out>
					<pproTicksIn>914456774963789</pproTicksIn>
					<pproTicksOut>914677708529577</pproTicksOut>
					<alphatype>straight</alphatype>
					<pixelaspectratio>square</pixelaspectratio>
					<anamorphic>FALSE</anamorphic>
					<file id="file-500">
					<name></name>
					<mediaSource>GraphicAndType</mediaSource>
					<rate>
					<timebase>60</timebase>
					<ntsc>TRUE</ntsc>
					</rate>
					<timecode>
					<rate>
					<timebase>60</timebase>
					<ntsc>TRUE</ntsc>
					</rate>
					<string>00:00:00:00</string>
					<frame>0</frame>
					<displayformat>NDF</displayformat>
					</timecode>
					<media>
					<video>
					<samplecharacteristics>
					<rate>
					<timebase>60</timebase>
					<ntsc>TRUE</ntsc>
					</rate>
					<width>1080</width>
					<height>1920</height>
					<anamorphic>FALSE</anamorphic>
					<pixelaspectratio>square</pixelaspectratio>
					<fielddominance>none</fielddominance>
					</samplecharacteristics>
					</video>
					</media>
					</file>
					<filter>
					<effect>
					<name></name>
					<effectid>GraphicAndType</effectid>
					<effectcategory>graphic</effectcategory>
					<effecttype>filter</effecttype>
					<mediatype>video</mediatype>
					<pproBypass>false</pproBypass>
					<parameter authoringApp="PremierePro">
					<parameterid>1</parameterid>
					<name></name>
					<hash>025b1101-ead6-0ca2-1feb-caf3000001fc</hash>
					<value>5AEAAAAAAABEMyIRDAAAAAAABgAKAAQABgAAAGQAAAAAAF4ASAAQAAwARABAADwAOAAAAAAAAAAAADQAMwAsAAAAKAAkACAAAAAAAAAAAAAAAAAAHAAAAAAAGgAAAAAAAAAUAAAAAAAAAAAAAAAAAAAAAAAAAAgAAAAAABsABwBeAAAAAAAAAUAAAABQAAAAbAAAAAIAAAAAAAEAAQAAAAAAQEEAAMBAAABAQAAAyEIAAAABIAAAAAIAAAACAAAAAAA2QwCASkTw/v//9P7///j+//8S////AAAAAAEAAAAEAAAAEQAAAEhHUFNvZWlLYWt1cG9wdGFpAAAAAQAAAAwAAAAIAAwABAAIAAgAAAAIAAAAUAAAAA8AAADvvIEAAAAAAAAAAAAAAAAAAAA2ACQAAAAgABwAAAAAABsAFAAAAAAAAAAAAAAAAAAAAAAAAAAAABAAAAAAAAAADAAAAAgABAA2AAAAAgAAABwAAAAcAAAAHAAAAAAAIEEAAAABaAAAAE3PAEOw////tP///wEAAAAUAAAAEAAaAAgABwAMAAAAEAAUABAAAAAAAAABHAAAAAAAoEEcAAAAAgAAAAAACgAIAAUABgAHAAoAAAAADAD//P///wQABAAEAAAACAAIAAYABwAIAAAAAAAMAA==</value>
					</parameter>
					<parameter authoringApp="PremierePro">
					<parameterid>2</parameterid>
					<name></name>
					<IsTimeVarying>false</IsTimeVarying>
					<ParameterControlType>11</ParameterControlType>
					<LowerBound>false</LowerBound>
					<UpperBound>false</UpperBound>
					<value>-91445760000000000,false,0,0,0,0,0,0</value>
					</parameter>
					<parameter authoringApp="PremierePro">
					<parameterid>3</parameterid>
					<name></name>
					<IsTimeVarying>false</IsTimeVarying>
					<value>-91445760000000000,0.5:0.5,0,0,0,0,0,0,5,4,0,0,0,0</value>
					</parameter>
					<parameter authoringApp="PremierePro">
					<parameterid>4</parameterid>
					<name></name>
					<IsTimeVarying>false</IsTimeVarying>
					<ParameterControlType>2</ParameterControlType>
					<LowerBound>0</LowerBound>
					<UpperBound>4000</UpperBound>
					<value>-91445760000000000,100.,0,0,0,0,0,0</value>
					</parameter>
					<parameter authoringApp="PremierePro">
					<parameterid>8</parameterid>
					<name></name>
					<IsTimeVarying>false</IsTimeVarying>
					<ParameterControlType>2</ParameterControlType>
					<LowerBound>0</LowerBound>
					<UpperBound>100</UpperBound>
					<value>-91445760000000000,100.,0,0,0,0,0,0</value>
					</parameter>
					</effect>
					</filter>
					<logginginfo>
					<description></description>
					<scene></scene>
					<shottake></shottake>
					<lognote></lognote>
					<good></good>
					<originalvideofilename></originalvideofilename>
					<originalaudiofilename></originalaudiofilename>
					</logginginfo>
					<colorinfo>
					<lut></lut>
					<lut1></lut1>
					<asc_sop></asc_sop>
					<asc_sat></asc_sat>
					<lut2></lut2>
					</colorinfo>
					<labels>
					</labels>
					</clipitem>
					<clipitem frameBlend="FALSE" id="clipitem-106">
					<masterclipid>masterclip-26</masterclipid>
					<name></name>
					<enabled>TRUE</enabled>
					<duration>2582774</duration>
					<rate>
					
					                                    <timebase>60</timebase>
					                                    <ntsc>TRUE</ntsc>
					                                
					</rate>
					<start>4918</start>
					<end>5098</end>
					<in>4918</in>
					<out>5098</out>
					<pproTicksIn>914456774963789</pproTicksIn>
					<pproTicksOut>914677708529577</pproTicksOut>
					<alphatype>straight</alphatype>
					<pixelaspectratio>square</pixelaspectratio>
					<anamorphic>FALSE</anamorphic>
					<file id="file-25">
					<name></name>
					<mediaSource>GraphicAndType</mediaSource>
					<rate>
					<timebase>60</timebase>
					<ntsc>TRUE</ntsc>
					</rate>
					<timecode>
					<rate>
					<timebase>60</timebase>
					<ntsc>TRUE</ntsc>
					</rate>
					<string>00:00:00:00</string>
					<frame>0</frame>
					<displayformat>NDF</displayformat>
					</timecode>
					<media>
					<video>
					<samplecharacteristics>
					<rate>
					<timebase>60</timebase>
					<ntsc>TRUE</ntsc>
					</rate>
					<width>1080</width>
					<height>1920</height>
					<anamorphic>FALSE</anamorphic>
					<pixelaspectratio>square</pixelaspectratio>
					<fielddominance>none</fielddominance>
					</samplecharacteristics>
					</video>
					</media>
					</file>
					<filter>
					<effect>
					<name></name>
					<effectid>GraphicAndType</effectid>
					<effectcategory>graphic</effectcategory>
					<effecttype>filter</effecttype>
					<mediatype>video</mediatype>
					<pproBypass>false</pproBypass>
					<parameter authoringApp="PremierePro">
					<parameterid>1</parameterid>
					<name></name>
					<hash>025b1101-ead6-0ca2-1feb-caf3000001fc</hash>
					<value>5AEAAAAAAABEMyIRDAAAAAAABgAKAAQABgAAAGQAAAAAAF4ASAAQAAwARABAADwAOAAAAAAAAAAAADQAMwAsAAAAKAAkACAAAAAAAAAAAAAAAAAAHAAAAAAAGgAAAAAAAAAUAAAAAAAAAAAAAAAAAAAAAAAAAAgAAAAAABsABwBeAAAAAAAAAUAAAABQAAAAbAAAAAIAAAAAAAEAAQAAAAAAQEEAAMBAAABAQAAAyEIAAAABIAAAAAIAAAACAAAAAAA2QwCASkTw/v//9P7///j+//8S////AAAAAAEAAAAEAAAAEQAAAEhHUFNvZWlLYWt1cG9wdGFpAAAAAQAAAAwAAAAIAAwABAAIAAgAAAAIAAAAUAAAAA8AAADjgZPjgbPjgoLjgZPjgbMAAAA2ACQAAAAgABwAAAAAABsAFAAAAAAAAAAAAAAAAAAAAAAAAAAAABAAAAAAAAAADAAAAAgABAA2AAAAAgAAABwAAAAcAAAAHAAAAAAAIEEAAAABaAAAAE3PAEOw////tP///wEAAAAUAAAAEAAaAAgABwAMAAAAEAAUABAAAAAAAAABHAAAAAAAoEEcAAAAAgAAAAAACgAIAAUABgAHAAoAAAAADAD//P///wQABAAEAAAACAAIAAYABwAIAAAAAAAMAA==</value>
					</parameter>
					<parameter authoringApp="PremierePro">
					<parameterid>2</parameterid>
					<name></name>
					<IsTimeVarying>false</IsTimeVarying>
					<ParameterControlType>11</ParameterControlType>
					<LowerBound>false</LowerBound>
					<UpperBound>false</UpperBound>
					<value>-91445760000000000,false,0,0,0,0,0,0</value>
					</parameter>
					<parameter authoringApp="PremierePro">
					<parameterid>3</parameterid>
					<name></name>
					<IsTimeVarying>false</IsTimeVarying>
					<value>-91445760000000000,0.5:0.5,0,0,0,0,0,0,5,4,0,0,0,0</value>
					</parameter>
					<parameter authoringApp="PremierePro">
					<parameterid>4</parameterid>
					<name></name>
					<IsTimeVarying>false</IsTimeVarying>
					<ParameterControlType>2</ParameterControlType>
					<LowerBound>0</LowerBound>
					<UpperBound>4000</UpperBound>
					<value>-91445760000000000,100.,0,0,0,0,0,0</value>
					</parameter>
					<parameter authoringApp="PremierePro">
					<parameterid>8</parameterid>
					<name></name>
					<IsTimeVarying>false</IsTimeVarying>
					<ParameterControlType>2</ParameterControlType>
					<LowerBound>0</LowerBound>
					<UpperBound>100</UpperBound>
					<value>-91445760000000000,100.,0,0,0,0,0,0</value>
					</parameter>
					</effect>
					</filter>
					<logginginfo>
					<description></description>
					<scene></scene>
					<shottake></shottake>
					<lognote></lognote>
					<good></good>
					<originalvideofilename></originalvideofilename>
					<originalaudiofilename></originalaudiofilename>
					</logginginfo>
					<colorinfo>
					<lut></lut>
					<lut1></lut1>
					<asc_sop></asc_sop>
					<asc_sat></asc_sat>
					<lut2></lut2>
					</colorinfo>
					<labels>
					</labels>
					</clipitem>
					<clipitem frameBlend="FALSE" id="clipitem-606">
					<masterclipid>masterclip-526</masterclipid>
					<name></name>
					<enabled>TRUE</enabled>
					<duration>2582774</duration>
					<rate>
					
					                                    <timebase>60</timebase>
					                                    <ntsc>TRUE</ntsc>
					                                
					</rate>
					<start>5098</start>
					<end>5158</end>
					<in>5098</in>
					<out>5158</out>
					<pproTicksIn>914456774963789</pproTicksIn>
					<pproTicksOut>914677708529577</pproTicksOut>
					<alphatype>straight</alphatype>
					<pixelaspectratio>square</pixelaspectratio>
					<anamorphic>FALSE</anamorphic>
					<file id="file-525">
					<name></name>
					<mediaSource>GraphicAndType</mediaSource>
					<rate>
					<timebase>60</timebase>
					<ntsc>TRUE</ntsc>
					</rate>
					<timecode>
					<rate>
					<timebase>60</timebase>
					<ntsc>TRUE</ntsc>
					</rate>
					<string>00:00:00:00</string>
					<frame>0</frame>
					<displayformat>NDF</displayformat>
					</timecode>
					<media>
					<video>
					<samplecharacteristics>
					<rate>
					<timebase>60</timebase>
					<ntsc>TRUE</ntsc>
					</rate>
					<width>1080</width>
					<height>1920</height>
					<anamorphic>FALSE</anamorphic>
					<pixelaspectratio>square</pixelaspectratio>
					<fielddominance>none</fielddominance>
					</samplecharacteristics>
					</video>
					</media>
					</file>
					<filter>
					<effect>
					<name></name>
					<effectid>GraphicAndType</effectid>
					<effectcategory>graphic</effectcategory>
					<effecttype>filter</effecttype>
					<mediatype>video</mediatype>
					<pproBypass>false</pproBypass>
					<parameter authoringApp="PremierePro">
					<parameterid>1</parameterid>
					<name></name>
					<hash>025b1101-ead6-0ca2-1feb-caf3000001fc</hash>
					<value>5AEAAAAAAABEMyIRDAAAAAAABgAKAAQABgAAAGQAAAAAAF4ASAAQAAwARABAADwAOAAAAAAAAAAAADQAMwAsAAAAKAAkACAAAAAAAAAAAAAAAAAAHAAAAAAAGgAAAAAAAAAUAAAAAAAAAAAAAAAAAAAAAAAAAAgAAAAAABsABwBeAAAAAAAAAUAAAABQAAAAbAAAAAIAAAAAAAEAAQAAAAAAQEEAAMBAAABAQAAAyEIAAAABIAAAAAIAAAACAAAAAAA2QwCASkTw/v//9P7///j+//8S////AAAAAAEAAAAEAAAAEQAAAEhHUFNvZWlLYWt1cG9wdGFpAAAAAQAAAAwAAAAIAAwABAAIAAgAAAAIAAAAUAAAAA8AAADvvIEAAAAAAAAAAAAAAAAAAAA2ACQAAAAgABwAAAAAABsAFAAAAAAAAAAAAAAAAAAAAAAAAAAAABAAAAAAAAAADAAAAAgABAA2AAAAAgAAABwAAAAcAAAAHAAAAAAAIEEAAAABaAAAAE3PAEOw////tP///wEAAAAUAAAAEAAaAAgABwAMAAAAEAAUABAAAAAAAAABHAAAAAAAoEEcAAAAAgAAAAAACgAIAAUABgAHAAoAAAAADAD//P///wQABAAEAAAACAAIAAYABwAIAAAAAAAMAA==</value>
					</parameter>
					<parameter authoringApp="PremierePro">
					<parameterid>2</parameterid>
					<name></name>
					<IsTimeVarying>false</IsTimeVarying>
					<ParameterControlType>11</ParameterControlType>
					<LowerBound>false</LowerBound>
					<UpperBound>false</UpperBound>
					<value>-91445760000000000,false,0,0,0,0,0,0</value>
					</parameter>
					<parameter authoringApp="PremierePro">
					<parameterid>3</parameterid>
					<name></name>
					<IsTimeVarying>false</IsTimeVarying>
					<value>-91445760000000000,0.5:0.5,0,0,0,0,0,0,5,4,0,0,0,0</value>
					</parameter>
					<parameter authoringApp="PremierePro">
					<parameterid>4</parameterid>
					<name></name>
					<IsTimeVarying>false</IsTimeVarying>
					<ParameterControlType>2</ParameterControlType>
					<LowerBound>0</LowerBound>
					<UpperBound>4000</UpperBound>
					<value>-91445760000000000,100.,0,0,0,0,0,0</value>
					</parameter>
					<parameter authoringApp="PremierePro">
					<parameterid>8</parameterid>
					<name></name>
					<IsTimeVarying>false</IsTimeVarying>
					<ParameterControlType>2</ParameterControlType>
					<LowerBound>0</LowerBound>
					<UpperBound>100</UpperBound>
					<value>-91445760000000000,100.,0,0,0,0,0,0</value>
					</parameter>
					</effect>
					</filter>
					<logginginfo>
					<description></description>
					<scene></scene>
					<shottake></shottake>
					<lognote></lognote>
					<good></good>
					<originalvideofilename></originalvideofilename>
					<originalaudiofilename></originalaudiofilename>
					</logginginfo>
					<colorinfo>
					<lut></lut>
					<lut1></lut1>
					<asc_sop></asc_sop>
					<asc_sat></asc_sat>
					<lut2></lut2>
					</colorinfo>
					<labels>
					</labels>
					</clipitem>
					<clipitem frameBlend="FALSE" id="clipitem-616">
					<masterclipid>masterclip-536</masterclipid>
					<name></name>
					<enabled>TRUE</enabled>
					<duration>2582774</duration>
					<rate>
					
					                                    <timebase>60</timebase>
					                                    <ntsc>TRUE</ntsc>
					                                
					</rate>
					<start>5212</start>
					<end>5272</end>
					<in>5212</in>
					<out>5272</out>
					<pproTicksIn>914456774963789</pproTicksIn>
					<pproTicksOut>914677708529577</pproTicksOut>
					<alphatype>straight</alphatype>
					<pixelaspectratio>square</pixelaspectratio>
					<anamorphic>FALSE</anamorphic>
					<file id="file-535">
					<name></name>
					<mediaSource>GraphicAndType</mediaSource>
					<rate>
					<timebase>60</timebase>
					<ntsc>TRUE</ntsc>
					</rate>
					<timecode>
					<rate>
					<timebase>60</timebase>
					<ntsc>TRUE</ntsc>
					</rate>
					<string>00:00:00:00</string>
					<frame>0</frame>
					<displayformat>NDF</displayformat>
					</timecode>
					<media>
					<video>
					<samplecharacteristics>
					<rate>
					<timebase>60</timebase>
					<ntsc>TRUE</ntsc>
					</rate>
					<width>1080</width>
					<height>1920</height>
					<anamorphic>FALSE</anamorphic>
					<pixelaspectratio>square</pixelaspectratio>
					<fielddominance>none</fielddominance>
					</samplecharacteristics>
					</video>
					</media>
					</file>
					<filter>
					<effect>
					<name></name>
					<effectid>GraphicAndType</effectid>
					<effectcategory>graphic</effectcategory>
					<effecttype>filter</effecttype>
					<mediatype>video</mediatype>
					<pproBypass>false</pproBypass>
					<parameter authoringApp="PremierePro">
					<parameterid>1</parameterid>
					<name></name>
					<hash>025b1101-ead6-0ca2-1feb-caf3000001fc</hash>
					<value>5AEAAAAAAABEMyIRDAAAAAAABgAKAAQABgAAAGQAAAAAAF4ASAAQAAwARABAADwAOAAAAAAAAAAAADQAMwAsAAAAKAAkACAAAAAAAAAAAAAAAAAAHAAAAAAAGgAAAAAAAAAUAAAAAAAAAAAAAAAAAAAAAAAAAAgAAAAAABsABwBeAAAAAAAAAUAAAABQAAAAbAAAAAIAAAAAAAEAAQAAAAAAQEEAAMBAAABAQAAAyEIAAAABIAAAAAIAAAACAAAAAAA2QwCASkTw/v//9P7///j+//8S////AAAAAAEAAAAEAAAAEQAAAEhHUFNvZWlLYWt1cG9wdGFpAAAAAQAAAAwAAAAIAAwABAAIAAgAAAAIAAAAUAAAAA8AAADvvIEAAAAAAAAAAAAAAAAAAAA2ACQAAAAgABwAAAAAABsAFAAAAAAAAAAAAAAAAAAAAAAAAAAAABAAAAAAAAAADAAAAAgABAA2AAAAAgAAABwAAAAcAAAAHAAAAAAAIEEAAAABaAAAAE3PAEOw////tP///wEAAAAUAAAAEAAaAAgABwAMAAAAEAAUABAAAAAAAAABHAAAAAAAoEEcAAAAAgAAAAAACgAIAAUABgAHAAoAAAAADAD//P///wQABAAEAAAACAAIAAYABwAIAAAAAAAMAA==</value>
					</parameter>
					<parameter authoringApp="PremierePro">
					<parameterid>2</parameterid>
					<name></name>
					<IsTimeVarying>false</IsTimeVarying>
					<ParameterControlType>11</ParameterControlType>
					<LowerBound>false</LowerBound>
					<UpperBound>false</UpperBound>
					<value>-91445760000000000,false,0,0,0,0,0,0</value>
					</parameter>
					<parameter authoringApp="PremierePro">
					<parameterid>3</parameterid>
					<name></name>
					<IsTimeVarying>false</IsTimeVarying>
					<value>-91445760000000000,0.5:0.5,0,0,0,0,0,0,5,4,0,0,0,0</value>
					</parameter>
					<parameter authoringApp="PremierePro">
					<parameterid>4</parameterid>
					<name></name>
					<IsTimeVarying>false</IsTimeVarying>
					<ParameterControlType>2</ParameterControlType>
					<LowerBound>0</LowerBound>
					<UpperBound>4000</UpperBound>
					<value>-91445760000000000,100.,0,0,0,0,0,0</value>
					</parameter>
					<parameter authoringApp="PremierePro">
					<parameterid>8</parameterid>
					<name></name>
					<IsTimeVarying>false</IsTimeVarying>
					<ParameterControlType>2</ParameterControlType>
					<LowerBound>0</LowerBound>
					<UpperBound>100</UpperBound>
					<value>-91445760000000000,100.,0,0,0,0,0,0</value>
					</parameter>
					</effect>
					</filter>
					<logginginfo>
					<description></description>
					<scene></scene>
					<shottake></shottake>
					<lognote></lognote>
					<good></good>
					<originalvideofilename></originalvideofilename>
					<originalaudiofilename></originalaudiofilename>
					</logginginfo>
					<colorinfo>
					<lut></lut>
					<lut1></lut1>
					<asc_sop></asc_sop>
					<asc_sat></asc_sat>
					<lut2></lut2>
					</colorinfo>
					<labels>
					</labels>
					</clipitem>
					<clipitem frameBlend="FALSE" id="clipitem-622">
					<masterclipid>masterclip-542</masterclipid>
					<name></name>
					<enabled>TRUE</enabled>
					<duration>2582774</duration>
					<rate>
					
					                                    <timebase>60</timebase>
					                                    <ntsc>TRUE</ntsc>
					                                
					</rate>
					<start>5272</start>
					<end>5332</end>
					<in>5272</in>
					<out>5332</out>
					<pproTicksIn>914456774963789</pproTicksIn>
					<pproTicksOut>914677708529577</pproTicksOut>
					<alphatype>straight</alphatype>
					<pixelaspectratio>square</pixelaspectratio>
					<anamorphic>FALSE</anamorphic>
					<file id="file-541">
					<name></name>
					<mediaSource>GraphicAndType</mediaSource>
					<rate>
					<timebase>60</timebase>
					<ntsc>TRUE</ntsc>
					</rate>
					<timecode>
					<rate>
					<timebase>60</timebase>
					<ntsc>TRUE</ntsc>
					</rate>
					<string>00:00:00:00</string>
					<frame>0</frame>
					<displayformat>NDF</displayformat>
					</timecode>
					<media>
					<video>
					<samplecharacteristics>
					<rate>
					<timebase>60</timebase>
					<ntsc>TRUE</ntsc>
					</rate>
					<width>1080</width>
					<height>1920</height>
					<anamorphic>FALSE</anamorphic>
					<pixelaspectratio>square</pixelaspectratio>
					<fielddominance>none</fielddominance>
					</samplecharacteristics>
					</video>
					</media>
					</file>
					<filter>
					<effect>
					<name></name>
					<effectid>GraphicAndType</effectid>
					<effectcategory>graphic</effectcategory>
					<effecttype>filter</effecttype>
					<mediatype>video</mediatype>
					<pproBypass>false</pproBypass>
					<parameter authoringApp="PremierePro">
					<parameterid>1</parameterid>
					<name></name>
					<hash>025b1101-ead6-0ca2-1feb-caf3000001fc</hash>
					<value>5AEAAAAAAABEMyIRDAAAAAAABgAKAAQABgAAAGQAAAAAAF4ASAAQAAwARABAADwAOAAAAAAAAAAAADQAMwAsAAAAKAAkACAAAAAAAAAAAAAAAAAAHAAAAAAAGgAAAAAAAAAUAAAAAAAAAAAAAAAAAAAAAAAAAAgAAAAAABsABwBeAAAAAAAAAUAAAABQAAAAbAAAAAIAAAAAAAEAAQAAAAAAQEEAAMBAAABAQAAAyEIAAAABIAAAAAIAAAACAAAAAAA2QwCASkTw/v//9P7///j+//8S////AAAAAAEAAAAEAAAAEQAAAEhHUFNvZWlLYWt1cG9wdGFpAAAAAQAAAAwAAAAIAAwABAAIAAgAAAAIAAAAUAAAAA8AAADvvIEAAAAAAAAAAAAAAAAAAAA2ACQAAAAgABwAAAAAABsAFAAAAAAAAAAAAAAAAAAAAAAAAAAAABAAAAAAAAAADAAAAAgABAA2AAAAAgAAABwAAAAcAAAAHAAAAAAAIEEAAAABaAAAAE3PAEOw////tP///wEAAAAUAAAAEAAaAAgABwAMAAAAEAAUABAAAAAAAAABHAAAAAAAoEEcAAAAAgAAAAAACgAIAAUABgAHAAoAAAAADAD//P///wQABAAEAAAACAAIAAYABwAIAAAAAAAMAA==</value>
					</parameter>
					<parameter authoringApp="PremierePro">
					<parameterid>2</parameterid>
					<name></name>
					<IsTimeVarying>false</IsTimeVarying>
					<ParameterControlType>11</ParameterControlType>
					<LowerBound>false</LowerBound>
					<UpperBound>false</UpperBound>
					<value>-91445760000000000,false,0,0,0,0,0,0</value>
					</parameter>
					<parameter authoringApp="PremierePro">
					<parameterid>3</parameterid>
					<name></name>
					<IsTimeVarying>false</IsTimeVarying>
					<value>-91445760000000000,0.5:0.5,0,0,0,0,0,0,5,4,0,0,0,0</value>
					</parameter>
					<parameter authoringApp="PremierePro">
					<parameterid>4</parameterid>
					<name></name>
					<IsTimeVarying>false</IsTimeVarying>
					<ParameterControlType>2</ParameterControlType>
					<LowerBound>0</LowerBound>
					<UpperBound>4000</UpperBound>
					<value>-91445760000000000,100.,0,0,0,0,0,0</value>
					</parameter>
					<parameter authoringApp="PremierePro">
					<parameterid>8</parameterid>
					<name></name>
					<IsTimeVarying>false</IsTimeVarying>
					<ParameterControlType>2</ParameterControlType>
					<LowerBound>0</LowerBound>
					<UpperBound>100</UpperBound>
					<value>-91445760000000000,100.,0,0,0,0,0,0</value>
					</parameter>
					</effect>
					</filter>
					<logginginfo>
					<description></description>
					<scene></scene>
					<shottake></shottake>
					<lognote></lognote>
					<good></good>
					<originalvideofilename></originalvideofilename>
					<originalaudiofilename></originalaudiofilename>
					</logginginfo>
					<colorinfo>
					<lut></lut>
					<lut1></lut1>
					<asc_sop></asc_sop>
					<asc_sat></asc_sat>
					<lut2></lut2>
					</colorinfo>
					<labels>
					</labels>
					</clipitem>
					<clipitem frameBlend="FALSE" id="clipitem-629">
					<masterclipid>masterclip-549</masterclipid>
					<name></name>
					<enabled>TRUE</enabled>
					<duration>2582774</duration>
					<rate>
					
					                                    <timebase>60</timebase>
					                                    <ntsc>TRUE</ntsc>
					                                
					</rate>
					<start>5338</start>
					<end>5404</end>
					<in>5338</in>
					<out>5404</out>
					<pproTicksIn>914456774963789</pproTicksIn>
					<pproTicksOut>914677708529577</pproTicksOut>
					<alphatype>straight</alphatype>
					<pixelaspectratio>square</pixelaspectratio>
					<anamorphic>FALSE</anamorphic>
					<file id="file-548">
					<name></name>
					<mediaSource>GraphicAndType</mediaSource>
					<rate>
					<timebase>60</timebase>
					<ntsc>TRUE</ntsc>
					</rate>
					<timecode>
					<rate>
					<timebase>60</timebase>
					<ntsc>TRUE</ntsc>
					</rate>
					<string>00:00:00:00</string>
					<frame>0</frame>
					<displayformat>NDF</displayformat>
					</timecode>
					<media>
					<video>
					<samplecharacteristics>
					<rate>
					<timebase>60</timebase>
					<ntsc>TRUE</ntsc>
					</rate>
					<width>1080</width>
					<height>1920</height>
					<anamorphic>FALSE</anamorphic>
					<pixelaspectratio>square</pixelaspectratio>
					<fielddominance>none</fielddominance>
					</samplecharacteristics>
					</video>
					</media>
					</file>
					<filter>
					<effect>
					<name></name>
					<effectid>GraphicAndType</effectid>
					<effectcategory>graphic</effectcategory>
					<effecttype>filter</effecttype>
					<mediatype>video</mediatype>
					<pproBypass>false</pproBypass>
					<parameter authoringApp="PremierePro">
					<parameterid>1</parameterid>
					<name></name>
					<hash>025b1101-ead6-0ca2-1feb-caf3000001fc</hash>
					<value>5AEAAAAAAABEMyIRDAAAAAAABgAKAAQABgAAAGQAAAAAAF4ASAAQAAwARABAADwAOAAAAAAAAAAAADQAMwAsAAAAKAAkACAAAAAAAAAAAAAAAAAAHAAAAAAAGgAAAAAAAAAUAAAAAAAAAAAAAAAAAAAAAAAAAAgAAAAAABsABwBeAAAAAAAAAUAAAABQAAAAbAAAAAIAAAAAAAEAAQAAAAAAQEEAAMBAAABAQAAAyEIAAAABIAAAAAIAAAACAAAAAAA2QwCASkTw/v//9P7///j+//8S////AAAAAAEAAAAEAAAAEQAAAEhHUFNvZWlLYWt1cG9wdGFpAAAAAQAAAAwAAAAIAAwABAAIAAgAAAAIAAAAUAAAAA8AAADvvIEAAAAAAAAAAAAAAAAAAAA2ACQAAAAgABwAAAAAABsAFAAAAAAAAAAAAAAAAAAAAAAAAAAAABAAAAAAAAAADAAAAAgABAA2AAAAAgAAABwAAAAcAAAAHAAAAAAAIEEAAAABaAAAAE3PAEOw////tP///wEAAAAUAAAAEAAaAAgABwAMAAAAEAAUABAAAAAAAAABHAAAAAAAoEEcAAAAAgAAAAAACgAIAAUABgAHAAoAAAAADAD//P///wQABAAEAAAACAAIAAYABwAIAAAAAAAMAA==</value>
					</parameter>
					<parameter authoringApp="PremierePro">
					<parameterid>2</parameterid>
					<name></name>
					<IsTimeVarying>false</IsTimeVarying>
					<ParameterControlType>11</ParameterControlType>
					<LowerBound>false</LowerBound>
					<UpperBound>false</UpperBound>
					<value>-91445760000000000,false,0,0,0,0,0,0</value>
					</parameter>
					<parameter authoringApp="PremierePro">
					<parameterid>3</parameterid>
					<name></name>
					<IsTimeVarying>false</IsTimeVarying>
					<value>-91445760000000000,0.5:0.5,0,0,0,0,0,0,5,4,0,0,0,0</value>
					</parameter>
					<parameter authoringApp="PremierePro">
					<parameterid>4</parameterid>
					<name></name>
					<IsTimeVarying>false</IsTimeVarying>
					<ParameterControlType>2</ParameterControlType>
					<LowerBound>0</LowerBound>
					<UpperBound>4000</UpperBound>
					<value>-91445760000000000,100.,0,0,0,0,0,0</value>
					</parameter>
					<parameter authoringApp="PremierePro">
					<parameterid>8</parameterid>
					<name></name>
					<IsTimeVarying>false</IsTimeVarying>
					<ParameterControlType>2</ParameterControlType>
					<LowerBound>0</LowerBound>
					<UpperBound>100</UpperBound>
					<value>-91445760000000000,100.,0,0,0,0,0,0</value>
					</parameter>
					</effect>
					</filter>
					<logginginfo>
					<description></description>
					<scene></scene>
					<shottake></shottake>
					<lognote></lognote>
					<good></good>
					<originalvideofilename></originalvideofilename>
					<originalaudiofilename></originalaudiofilename>
					</logginginfo>
					<colorinfo>
					<lut></lut>
					<lut1></lut1>
					<asc_sop></asc_sop>
					<asc_sat></asc_sat>
					<lut2></lut2>
					</colorinfo>
					<labels>
					</labels>
					</clipitem>
					<clipitem frameBlend="FALSE" id="clipitem-635">
					<masterclipid>masterclip-555</masterclipid>
					<name></name>
					<enabled>TRUE</enabled>
					<duration>2582774</duration>
					<rate>
					
					                                    <timebase>60</timebase>
					                                    <ntsc>TRUE</ntsc>
					                                
					</rate>
					<start>5446</start>
					<end>5506</end>
					<in>5446</in>
					<out>5506</out>
					<pproTicksIn>914456774963789</pproTicksIn>
					<pproTicksOut>914677708529577</pproTicksOut>
					<alphatype>straight</alphatype>
					<pixelaspectratio>square</pixelaspectratio>
					<anamorphic>FALSE</anamorphic>
					<file id="file-554">
					<name></name>
					<mediaSource>GraphicAndType</mediaSource>
					<rate>
					<timebase>60</timebase>
					<ntsc>TRUE</ntsc>
					</rate>
					<timecode>
					<rate>
					<timebase>60</timebase>
					<ntsc>TRUE</ntsc>
					</rate>
					<string>00:00:00:00</string>
					<frame>0</frame>
					<displayformat>NDF</displayformat>
					</timecode>
					<media>
					<video>
					<samplecharacteristics>
					<rate>
					<timebase>60</timebase>
					<ntsc>TRUE</ntsc>
					</rate>
					<width>1080</width>
					<height>1920</height>
					<anamorphic>FALSE</anamorphic>
					<pixelaspectratio>square</pixelaspectratio>
					<fielddominance>none</fielddominance>
					</samplecharacteristics>
					</video>
					</media>
					</file>
					<filter>
					<effect>
					<name></name>
					<effectid>GraphicAndType</effectid>
					<effectcategory>graphic</effectcategory>
					<effecttype>filter</effecttype>
					<mediatype>video</mediatype>
					<pproBypass>false</pproBypass>
					<parameter authoringApp="PremierePro">
					<parameterid>1</parameterid>
					<name></name>
					<hash>025b1101-ead6-0ca2-1feb-caf3000001fc</hash>
					<value>5AEAAAAAAABEMyIRDAAAAAAABgAKAAQABgAAAGQAAAAAAF4ASAAQAAwARABAADwAOAAAAAAAAAAAADQAMwAsAAAAKAAkACAAAAAAAAAAAAAAAAAAHAAAAAAAGgAAAAAAAAAUAAAAAAAAAAAAAAAAAAAAAAAAAAgAAAAAABsABwBeAAAAAAAAAUAAAABQAAAAbAAAAAIAAAAAAAEAAQAAAAAAQEEAAMBAAABAQAAAyEIAAAABIAAAAAIAAAACAAAAAAA2QwCASkTw/v//9P7///j+//8S////AAAAAAEAAAAEAAAAEQAAAEhHUFNvZWlLYWt1cG9wdGFpAAAAAQAAAAwAAAAIAAwABAAIAAgAAAAIAAAAUAAAAA8AAADvvIEAAAAAAAAAAAAAAAAAAAA2ACQAAAAgABwAAAAAABsAFAAAAAAAAAAAAAAAAAAAAAAAAAAAABAAAAAAAAAADAAAAAgABAA2AAAAAgAAABwAAAAcAAAAHAAAAAAAIEEAAAABaAAAAE3PAEOw////tP///wEAAAAUAAAAEAAaAAgABwAMAAAAEAAUABAAAAAAAAABHAAAAAAAoEEcAAAAAgAAAAAACgAIAAUABgAHAAoAAAAADAD//P///wQABAAEAAAACAAIAAYABwAIAAAAAAAMAA==</value>
					</parameter>
					<parameter authoringApp="PremierePro">
					<parameterid>2</parameterid>
					<name></name>
					<IsTimeVarying>false</IsTimeVarying>
					<ParameterControlType>11</ParameterControlType>
					<LowerBound>false</LowerBound>
					<UpperBound>false</UpperBound>
					<value>-91445760000000000,false,0,0,0,0,0,0</value>
					</parameter>
					<parameter authoringApp="PremierePro">
					<parameterid>3</parameterid>
					<name></name>
					<IsTimeVarying>false</IsTimeVarying>
					<value>-91445760000000000,0.5:0.5,0,0,0,0,0,0,5,4,0,0,0,0</value>
					</parameter>
					<parameter authoringApp="PremierePro">
					<parameterid>4</parameterid>
					<name></name>
					<IsTimeVarying>false</IsTimeVarying>
					<ParameterControlType>2</ParameterControlType>
					<LowerBound>0</LowerBound>
					<UpperBound>4000</UpperBound>
					<value>-91445760000000000,100.,0,0,0,0,0,0</value>
					</parameter>
					<parameter authoringApp="PremierePro">
					<parameterid>8</parameterid>
					<name></name>
					<IsTimeVarying>false</IsTimeVarying>
					<ParameterControlType>2</ParameterControlType>
					<LowerBound>0</LowerBound>
					<UpperBound>100</UpperBound>
					<value>-91445760000000000,100.,0,0,0,0,0,0</value>
					</parameter>
					</effect>
					</filter>
					<logginginfo>
					<description></description>
					<scene></scene>
					<shottake></shottake>
					<lognote></lognote>
					<good></good>
					<originalvideofilename></originalvideofilename>
					<originalaudiofilename></originalaudiofilename>
					</logginginfo>
					<colorinfo>
					<lut></lut>
					<lut1></lut1>
					<asc_sop></asc_sop>
					<asc_sat></asc_sat>
					<lut2></lut2>
					</colorinfo>
					<labels>
					</labels>
					</clipitem>
					<clipitem frameBlend="FALSE" id="clipitem-639">
					<masterclipid>masterclip-559</masterclipid>
					<name></name>
					<enabled>TRUE</enabled>
					<duration>2582774</duration>
					<rate>
					
					                                    <timebase>60</timebase>
					                                    <ntsc>TRUE</ntsc>
					                                
					</rate>
					<start>5512</start>
					<end>5578</end>
					<in>5512</in>
					<out>5578</out>
					<pproTicksIn>914456774963789</pproTicksIn>
					<pproTicksOut>914677708529577</pproTicksOut>
					<alphatype>straight</alphatype>
					<pixelaspectratio>square</pixelaspectratio>
					<anamorphic>FALSE</anamorphic>
					<file id="file-558">
					<name></name>
					<mediaSource>GraphicAndType</mediaSource>
					<rate>
					<timebase>60</timebase>
					<ntsc>TRUE</ntsc>
					</rate>
					<timecode>
					<rate>
					<timebase>60</timebase>
					<ntsc>TRUE</ntsc>
					</rate>
					<string>00:00:00:00</string>
					<frame>0</frame>
					<displayformat>NDF</displayformat>
					</timecode>
					<media>
					<video>
					<samplecharacteristics>
					<rate>
					<timebase>60</timebase>
					<ntsc>TRUE</ntsc>
					</rate>
					<width>1080</width>
					<height>1920</height>
					<anamorphic>FALSE</anamorphic>
					<pixelaspectratio>square</pixelaspectratio>
					<fielddominance>none</fielddominance>
					</samplecharacteristics>
					</video>
					</media>
					</file>
					<filter>
					<effect>
					<name></name>
					<effectid>GraphicAndType</effectid>
					<effectcategory>graphic</effectcategory>
					<effecttype>filter</effecttype>
					<mediatype>video</mediatype>
					<pproBypass>false</pproBypass>
					<parameter authoringApp="PremierePro">
					<parameterid>1</parameterid>
					<name></name>
					<hash>025b1101-ead6-0ca2-1feb-caf3000001fc</hash>
					<value>5AEAAAAAAABEMyIRDAAAAAAABgAKAAQABgAAAGQAAAAAAF4ASAAQAAwARABAADwAOAAAAAAAAAAAADQAMwAsAAAAKAAkACAAAAAAAAAAAAAAAAAAHAAAAAAAGgAAAAAAAAAUAAAAAAAAAAAAAAAAAAAAAAAAAAgAAAAAABsABwBeAAAAAAAAAUAAAABQAAAAbAAAAAIAAAAAAAEAAQAAAAAAQEEAAMBAAABAQAAAyEIAAAABIAAAAAIAAAACAAAAAAA2QwCASkTw/v//9P7///j+//8S////AAAAAAEAAAAEAAAAEQAAAEhHUFNvZWlLYWt1cG9wdGFpAAAAAQAAAAwAAAAIAAwABAAIAAgAAAAIAAAAUAAAAA8AAADvvIEAAAAAAAAAAAAAAAAAAAA2ACQAAAAgABwAAAAAABsAFAAAAAAAAAAAAAAAAAAAAAAAAAAAABAAAAAAAAAADAAAAAgABAA2AAAAAgAAABwAAAAcAAAAHAAAAAAAIEEAAAABaAAAAE3PAEOw////tP///wEAAAAUAAAAEAAaAAgABwAMAAAAEAAUABAAAAAAAAABHAAAAAAAoEEcAAAAAgAAAAAACgAIAAUABgAHAAoAAAAADAD//P///wQABAAEAAAACAAIAAYABwAIAAAAAAAMAA==</value>
					</parameter>
					<parameter authoringApp="PremierePro">
					<parameterid>2</parameterid>
					<name></name>
					<IsTimeVarying>false</IsTimeVarying>
					<ParameterControlType>11</ParameterControlType>
					<LowerBound>false</LowerBound>
					<UpperBound>false</UpperBound>
					<value>-91445760000000000,false,0,0,0,0,0,0</value>
					</parameter>
					<parameter authoringApp="PremierePro">
					<parameterid>3</parameterid>
					<name></name>
					<IsTimeVarying>false</IsTimeVarying>
					<value>-91445760000000000,0.5:0.5,0,0,0,0,0,0,5,4,0,0,0,0</value>
					</parameter>
					<parameter authoringApp="PremierePro">
					<parameterid>4</parameterid>
					<name></name>
					<IsTimeVarying>false</IsTimeVarying>
					<ParameterControlType>2</ParameterControlType>
					<LowerBound>0</LowerBound>
					<UpperBound>4000</UpperBound>
					<value>-91445760000000000,100.,0,0,0,0,0,0</value>
					</parameter>
					<parameter authoringApp="PremierePro">
					<parameterid>8</parameterid>
					<name></name>
					<IsTimeVarying>false</IsTimeVarying>
					<ParameterControlType>2</ParameterControlType>
					<LowerBound>0</LowerBound>
					<UpperBound>100</UpperBound>
					<value>-91445760000000000,100.,0,0,0,0,0,0</value>
					</parameter>
					</effect>
					</filter>
					<logginginfo>
					<description></description>
					<scene></scene>
					<shottake></shottake>
					<lognote></lognote>
					<good></good>
					<originalvideofilename></originalvideofilename>
					<originalaudiofilename></originalaudiofilename>
					</logginginfo>
					<colorinfo>
					<lut></lut>
					<lut1></lut1>
					<asc_sop></asc_sop>
					<asc_sat></asc_sat>
					<lut2></lut2>
					</colorinfo>
					<labels>
					</labels>
					</clipitem>
					<clipitem frameBlend="FALSE" id="clipitem-650">
					<masterclipid>masterclip-570</masterclipid>
					<name></name>
					<enabled>TRUE</enabled>
					<duration>2582774</duration>
					<rate>
					
					                                    <timebase>60</timebase>
					                                    <ntsc>TRUE</ntsc>
					                                
					</rate>
					<start>5578</start>
					<end>5644</end>
					<in>5578</in>
					<out>5644</out>
					<pproTicksIn>914456774963789</pproTicksIn>
					<pproTicksOut>914677708529577</pproTicksOut>
					<alphatype>straight</alphatype>
					<pixelaspectratio>square</pixelaspectratio>
					<anamorphic>FALSE</anamorphic>
					<file id="file-569">
					<name></name>
					<mediaSource>GraphicAndType</mediaSource>
					<rate>
					<timebase>60</timebase>
					<ntsc>TRUE</ntsc>
					</rate>
					<timecode>
					<rate>
					<timebase>60</timebase>
					<ntsc>TRUE</ntsc>
					</rate>
					<string>00:00:00:00</string>
					<frame>0</frame>
					<displayformat>NDF</displayformat>
					</timecode>
					<media>
					<video>
					<samplecharacteristics>
					<rate>
					<timebase>60</timebase>
					<ntsc>TRUE</ntsc>
					</rate>
					<width>1080</width>
					<height>1920</height>
					<anamorphic>FALSE</anamorphic>
					<pixelaspectratio>square</pixelaspectratio>
					<fielddominance>none</fielddominance>
					</samplecharacteristics>
					</video>
					</media>
					</file>
					<filter>
					<effect>
					<name></name>
					<effectid>GraphicAndType</effectid>
					<effectcategory>graphic</effectcategory>
					<effecttype>filter</effecttype>
					<mediatype>video</mediatype>
					<pproBypass>false</pproBypass>
					<parameter authoringApp="PremierePro">
					<parameterid>1</parameterid>
					<name></name>
					<hash>025b1101-ead6-0ca2-1feb-caf3000001fc</hash>
					<value>5AEAAAAAAABEMyIRDAAAAAAABgAKAAQABgAAAGQAAAAAAF4ASAAQAAwARABAADwAOAAAAAAAAAAAADQAMwAsAAAAKAAkACAAAAAAAAAAAAAAAAAAHAAAAAAAGgAAAAAAAAAUAAAAAAAAAAAAAAAAAAAAAAAAAAgAAAAAABsABwBeAAAAAAAAAUAAAABQAAAAbAAAAAIAAAAAAAEAAQAAAAAAQEEAAMBAAABAQAAAyEIAAAABIAAAAAIAAAACAAAAAAA2QwCASkTw/v//9P7///j+//8S////AAAAAAEAAAAEAAAAEQAAAEhHUFNvZWlLYWt1cG9wdGFpAAAAAQAAAAwAAAAIAAwABAAIAAgAAAAIAAAAUAAAAA8AAADvvIEAAAAAAAAAAAAAAAAAAAA2ACQAAAAgABwAAAAAABsAFAAAAAAAAAAAAAAAAAAAAAAAAAAAABAAAAAAAAAADAAAAAgABAA2AAAAAgAAABwAAAAcAAAAHAAAAAAAIEEAAAABaAAAAE3PAEOw////tP///wEAAAAUAAAAEAAaAAgABwAMAAAAEAAUABAAAAAAAAABHAAAAAAAoEEcAAAAAgAAAAAACgAIAAUABgAHAAoAAAAADAD//P///wQABAAEAAAACAAIAAYABwAIAAAAAAAMAA==</value>
					</parameter>
					<parameter authoringApp="PremierePro">
					<parameterid>2</parameterid>
					<name></name>
					<IsTimeVarying>false</IsTimeVarying>
					<ParameterControlType>11</ParameterControlType>
					<LowerBound>false</LowerBound>
					<UpperBound>false</UpperBound>
					<value>-91445760000000000,false,0,0,0,0,0,0</value>
					</parameter>
					<parameter authoringApp="PremierePro">
					<parameterid>3</parameterid>
					<name></name>
					<IsTimeVarying>false</IsTimeVarying>
					<value>-91445760000000000,0.5:0.5,0,0,0,0,0,0,5,4,0,0,0,0</value>
					</parameter>
					<parameter authoringApp="PremierePro">
					<parameterid>4</parameterid>
					<name></name>
					<IsTimeVarying>false</IsTimeVarying>
					<ParameterControlType>2</ParameterControlType>
					<LowerBound>0</LowerBound>
					<UpperBound>4000</UpperBound>
					<value>-91445760000000000,100.,0,0,0,0,0,0</value>
					</parameter>
					<parameter authoringApp="PremierePro">
					<parameterid>8</parameterid>
					<name></name>
					<IsTimeVarying>false</IsTimeVarying>
					<ParameterControlType>2</ParameterControlType>
					<LowerBound>0</LowerBound>
					<UpperBound>100</UpperBound>
					<value>-91445760000000000,100.,0,0,0,0,0,0</value>
					</parameter>
					</effect>
					</filter>
					<logginginfo>
					<description></description>
					<scene></scene>
					<shottake></shottake>
					<lognote></lognote>
					<good></good>
					<originalvideofilename></originalvideofilename>
					<originalaudiofilename></originalaudiofilename>
					</logginginfo>
					<colorinfo>
					<lut></lut>
					<lut1></lut1>
					<asc_sop></asc_sop>
					<asc_sat></asc_sat>
					<lut2></lut2>
					</colorinfo>
					<labels>
					</labels>
					</clipitem>
					<clipitem frameBlend="FALSE" id="clipitem-660">
					<masterclipid>masterclip-580</masterclipid>
					<name></name>
					<enabled>TRUE</enabled>
					<duration>2582774</duration>
					<rate>
					
					                                    <timebase>60</timebase>
					                                    <ntsc>TRUE</ntsc>
					                                
					</rate>
					<start>5644</start>
					<end>5710</end>
					<in>5644</in>
					<out>5710</out>
					<pproTicksIn>914456774963789</pproTicksIn>
					<pproTicksOut>914677708529577</pproTicksOut>
					<alphatype>straight</alphatype>
					<pixelaspectratio>square</pixelaspectratio>
					<anamorphic>FALSE</anamorphic>
					<file id="file-579">
					<name></name>
					<mediaSource>GraphicAndType</mediaSource>
					<rate>
					<timebase>60</timebase>
					<ntsc>TRUE</ntsc>
					</rate>
					<timecode>
					<rate>
					<timebase>60</timebase>
					<ntsc>TRUE</ntsc>
					</rate>
					<string>00:00:00:00</string>
					<frame>0</frame>
					<displayformat>NDF</displayformat>
					</timecode>
					<media>
					<video>
					<samplecharacteristics>
					<rate>
					<timebase>60</timebase>
					<ntsc>TRUE</ntsc>
					</rate>
					<width>1080</width>
					<height>1920</height>
					<anamorphic>FALSE</anamorphic>
					<pixelaspectratio>square</pixelaspectratio>
					<fielddominance>none</fielddominance>
					</samplecharacteristics>
					</video>
					</media>
					</file>
					<filter>
					<effect>
					<name></name>
					<effectid>GraphicAndType</effectid>
					<effectcategory>graphic</effectcategory>
					<effecttype>filter</effecttype>
					<mediatype>video</mediatype>
					<pproBypass>false</pproBypass>
					<parameter authoringApp="PremierePro">
					<parameterid>1</parameterid>
					<name></name>
					<hash>025b1101-ead6-0ca2-1feb-caf3000001fc</hash>
					<value>5AEAAAAAAABEMyIRDAAAAAAABgAKAAQABgAAAGQAAAAAAF4ASAAQAAwARABAADwAOAAAAAAAAAAAADQAMwAsAAAAKAAkACAAAAAAAAAAAAAAAAAAHAAAAAAAGgAAAAAAAAAUAAAAAAAAAAAAAAAAAAAAAAAAAAgAAAAAABsABwBeAAAAAAAAAUAAAABQAAAAbAAAAAIAAAAAAAEAAQAAAAAAQEEAAMBAAABAQAAAyEIAAAABIAAAAAIAAAACAAAAAAA2QwCASkTw/v//9P7///j+//8S////AAAAAAEAAAAEAAAAEQAAAEhHUFNvZWlLYWt1cG9wdGFpAAAAAQAAAAwAAAAIAAwABAAIAAgAAAAIAAAAUAAAAA8AAADvvIEAAAAAAAAAAAAAAAAAAAA2ACQAAAAgABwAAAAAABsAFAAAAAAAAAAAAAAAAAAAAAAAAAAAABAAAAAAAAAADAAAAAgABAA2AAAAAgAAABwAAAAcAAAAHAAAAAAAIEEAAAABaAAAAE3PAEOw////tP///wEAAAAUAAAAEAAaAAgABwAMAAAAEAAUABAAAAAAAAABHAAAAAAAoEEcAAAAAgAAAAAACgAIAAUABgAHAAoAAAAADAD//P///wQABAAEAAAACAAIAAYABwAIAAAAAAAMAA==</value>
					</parameter>
					<parameter authoringApp="PremierePro">
					<parameterid>2</parameterid>
					<name></name>
					<IsTimeVarying>false</IsTimeVarying>
					<ParameterControlType>11</ParameterControlType>
					<LowerBound>false</LowerBound>
					<UpperBound>false</UpperBound>
					<value>-91445760000000000,false,0,0,0,0,0,0</value>
					</parameter>
					<parameter authoringApp="PremierePro">
					<parameterid>3</parameterid>
					<name></name>
					<IsTimeVarying>false</IsTimeVarying>
					<value>-91445760000000000,0.5:0.5,0,0,0,0,0,0,5,4,0,0,0,0</value>
					</parameter>
					<parameter authoringApp="PremierePro">
					<parameterid>4</parameterid>
					<name></name>
					<IsTimeVarying>false</IsTimeVarying>
					<ParameterControlType>2</ParameterControlType>
					<LowerBound>0</LowerBound>
					<UpperBound>4000</UpperBound>
					<value>-91445760000000000,100.,0,0,0,0,0,0</value>
					</parameter>
					<parameter authoringApp="PremierePro">
					<parameterid>8</parameterid>
					<name></name>
					<IsTimeVarying>false</IsTimeVarying>
					<ParameterControlType>2</ParameterControlType>
					<LowerBound>0</LowerBound>
					<UpperBound>100</UpperBound>
					<value>-91445760000000000,100.,0,0,0,0,0,0</value>
					</parameter>
					</effect>
					</filter>
					<logginginfo>
					<description></description>
					<scene></scene>
					<shottake></shottake>
					<lognote></lognote>
					<good></good>
					<originalvideofilename></originalvideofilename>
					<originalaudiofilename></originalaudiofilename>
					</logginginfo>
					<colorinfo>
					<lut></lut>
					<lut1></lut1>
					<asc_sop></asc_sop>
					<asc_sat></asc_sat>
					<lut2></lut2>
					</colorinfo>
					<labels>
					</labels>
					</clipitem>
					<clipitem frameBlend="FALSE" id="clipitem-665">
					<masterclipid>masterclip-585</masterclipid>
					<name></name>
					<enabled>TRUE</enabled>
					<duration>2582774</duration>
					<rate>
					
					                                    <timebase>60</timebase>
					                                    <ntsc>TRUE</ntsc>
					                                
					</rate>
					<start>5728</start>
					<end>5788</end>
					<in>5728</in>
					<out>5788</out>
					<pproTicksIn>914456774963789</pproTicksIn>
					<pproTicksOut>914677708529577</pproTicksOut>
					<alphatype>straight</alphatype>
					<pixelaspectratio>square</pixelaspectratio>
					<anamorphic>FALSE</anamorphic>
					<file id="file-584">
					<name></name>
					<mediaSource>GraphicAndType</mediaSource>
					<rate>
					<timebase>60</timebase>
					<ntsc>TRUE</ntsc>
					</rate>
					<timecode>
					<rate>
					<timebase>60</timebase>
					<ntsc>TRUE</ntsc>
					</rate>
					<string>00:00:00:00</string>
					<frame>0</frame>
					<displayformat>NDF</displayformat>
					</timecode>
					<media>
					<video>
					<samplecharacteristics>
					<rate>
					<timebase>60</timebase>
					<ntsc>TRUE</ntsc>
					</rate>
					<width>1080</width>
					<height>1920</height>
					<anamorphic>FALSE</anamorphic>
					<pixelaspectratio>square</pixelaspectratio>
					<fielddominance>none</fielddominance>
					</samplecharacteristics>
					</video>
					</media>
					</file>
					<filter>
					<effect>
					<name></name>
					<effectid>GraphicAndType</effectid>
					<effectcategory>graphic</effectcategory>
					<effecttype>filter</effecttype>
					<mediatype>video</mediatype>
					<pproBypass>false</pproBypass>
					<parameter authoringApp="PremierePro">
					<parameterid>1</parameterid>
					<name></name>
					<hash>025b1101-ead6-0ca2-1feb-caf3000001fc</hash>
					<value>5AEAAAAAAABEMyIRDAAAAAAABgAKAAQABgAAAGQAAAAAAF4ASAAQAAwARABAADwAOAAAAAAAAAAAADQAMwAsAAAAKAAkACAAAAAAAAAAAAAAAAAAHAAAAAAAGgAAAAAAAAAUAAAAAAAAAAAAAAAAAAAAAAAAAAgAAAAAABsABwBeAAAAAAAAAUAAAABQAAAAbAAAAAIAAAAAAAEAAQAAAAAAQEEAAMBAAABAQAAAyEIAAAABIAAAAAIAAAACAAAAAAA2QwCASkTw/v//9P7///j+//8S////AAAAAAEAAAAEAAAAEQAAAEhHUFNvZWlLYWt1cG9wdGFpAAAAAQAAAAwAAAAIAAwABAAIAAgAAAAIAAAAUAAAAA8AAADvvIEAAAAAAAAAAAAAAAAAAAA2ACQAAAAgABwAAAAAABsAFAAAAAAAAAAAAAAAAAAAAAAAAAAAABAAAAAAAAAADAAAAAgABAA2AAAAAgAAABwAAAAcAAAAHAAAAAAAIEEAAAABaAAAAE3PAEOw////tP///wEAAAAUAAAAEAAaAAgABwAMAAAAEAAUABAAAAAAAAABHAAAAAAAoEEcAAAAAgAAAAAACgAIAAUABgAHAAoAAAAADAD//P///wQABAAEAAAACAAIAAYABwAIAAAAAAAMAA==</value>
					</parameter>
					<parameter authoringApp="PremierePro">
					<parameterid>2</parameterid>
					<name></name>
					<IsTimeVarying>false</IsTimeVarying>
					<ParameterControlType>11</ParameterControlType>
					<LowerBound>false</LowerBound>
					<UpperBound>false</UpperBound>
					<value>-91445760000000000,false,0,0,0,0,0,0</value>
					</parameter>
					<parameter authoringApp="PremierePro">
					<parameterid>3</parameterid>
					<name></name>
					<IsTimeVarying>false</IsTimeVarying>
					<value>-91445760000000000,0.5:0.5,0,0,0,0,0,0,5,4,0,0,0,0</value>
					</parameter>
					<parameter authoringApp="PremierePro">
					<parameterid>4</parameterid>
					<name></name>
					<IsTimeVarying>false</IsTimeVarying>
					<ParameterControlType>2</ParameterControlType>
					<LowerBound>0</LowerBound>
					<UpperBound>4000</UpperBound>
					<value>-91445760000000000,100.,0,0,0,0,0,0</value>
					</parameter>
					<parameter authoringApp="PremierePro">
					<parameterid>8</parameterid>
					<name></name>
					<IsTimeVarying>false</IsTimeVarying>
					<ParameterControlType>2</ParameterControlType>
					<LowerBound>0</LowerBound>
					<UpperBound>100</UpperBound>
					<value>-91445760000000000,100.,0,0,0,0,0,0</value>
					</parameter>
					</effect>
					</filter>
					<logginginfo>
					<description></description>
					<scene></scene>
					<shottake></shottake>
					<lognote></lognote>
					<good></good>
					<originalvideofilename></originalvideofilename>
					<originalaudiofilename></originalaudiofilename>
					</logginginfo>
					<colorinfo>
					<lut></lut>
					<lut1></lut1>
					<asc_sop></asc_sop>
					<asc_sat></asc_sat>
					<lut2></lut2>
					</colorinfo>
					<labels>
					</labels>
					</clipitem>
					<clipitem frameBlend="FALSE" id="clipitem-670">
					<masterclipid>masterclip-590</masterclipid>
					<name></name>
					<enabled>TRUE</enabled>
					<duration>2582774</duration>
					<rate>
					
					                                    <timebase>60</timebase>
					                                    <ntsc>TRUE</ntsc>
					                                
					</rate>
					<start>5788</start>
					<end>5848</end>
					<in>5788</in>
					<out>5848</out>
					<pproTicksIn>914456774963789</pproTicksIn>
					<pproTicksOut>914677708529577</pproTicksOut>
					<alphatype>straight</alphatype>
					<pixelaspectratio>square</pixelaspectratio>
					<anamorphic>FALSE</anamorphic>
					<file id="file-589">
					<name></name>
					<mediaSource>GraphicAndType</mediaSource>
					<rate>
					<timebase>60</timebase>
					<ntsc>TRUE</ntsc>
					</rate>
					<timecode>
					<rate>
					<timebase>60</timebase>
					<ntsc>TRUE</ntsc>
					</rate>
					<string>00:00:00:00</string>
					<frame>0</frame>
					<displayformat>NDF</displayformat>
					</timecode>
					<media>
					<video>
					<samplecharacteristics>
					<rate>
					<timebase>60</timebase>
					<ntsc>TRUE</ntsc>
					</rate>
					<width>1080</width>
					<height>1920</height>
					<anamorphic>FALSE</anamorphic>
					<pixelaspectratio>square</pixelaspectratio>
					<fielddominance>none</fielddominance>
					</samplecharacteristics>
					</video>
					</media>
					</file>
					<filter>
					<effect>
					<name></name>
					<effectid>GraphicAndType</effectid>
					<effectcategory>graphic</effectcategory>
					<effecttype>filter</effecttype>
					<mediatype>video</mediatype>
					<pproBypass>false</pproBypass>
					<parameter authoringApp="PremierePro">
					<parameterid>1</parameterid>
					<name></name>
					<hash>025b1101-ead6-0ca2-1feb-caf3000001fc</hash>
					<value>5AEAAAAAAABEMyIRDAAAAAAABgAKAAQABgAAAGQAAAAAAF4ASAAQAAwARABAADwAOAAAAAAAAAAAADQAMwAsAAAAKAAkACAAAAAAAAAAAAAAAAAAHAAAAAAAGgAAAAAAAAAUAAAAAAAAAAAAAAAAAAAAAAAAAAgAAAAAABsABwBeAAAAAAAAAUAAAABQAAAAbAAAAAIAAAAAAAEAAQAAAAAAQEEAAMBAAABAQAAAyEIAAAABIAAAAAIAAAACAAAAAAA2QwCASkTw/v//9P7///j+//8S////AAAAAAEAAAAEAAAAEQAAAEhHUFNvZWlLYWt1cG9wdGFpAAAAAQAAAAwAAAAIAAwABAAIAAgAAAAIAAAAUAAAAA8AAADvvIEAAAAAAAAAAAAAAAAAAAA2ACQAAAAgABwAAAAAABsAFAAAAAAAAAAAAAAAAAAAAAAAAAAAABAAAAAAAAAADAAAAAgABAA2AAAAAgAAABwAAAAcAAAAHAAAAAAAIEEAAAABaAAAAE3PAEOw////tP///wEAAAAUAAAAEAAaAAgABwAMAAAAEAAUABAAAAAAAAABHAAAAAAAoEEcAAAAAgAAAAAACgAIAAUABgAHAAoAAAAADAD//P///wQABAAEAAAACAAIAAYABwAIAAAAAAAMAA==</value>
					</parameter>
					<parameter authoringApp="PremierePro">
					<parameterid>2</parameterid>
					<name></name>
					<IsTimeVarying>false</IsTimeVarying>
					<ParameterControlType>11</ParameterControlType>
					<LowerBound>false</LowerBound>
					<UpperBound>false</UpperBound>
					<value>-91445760000000000,false,0,0,0,0,0,0</value>
					</parameter>
					<parameter authoringApp="PremierePro">
					<parameterid>3</parameterid>
					<name></name>
					<IsTimeVarying>false</IsTimeVarying>
					<value>-91445760000000000,0.5:0.5,0,0,0,0,0,0,5,4,0,0,0,0</value>
					</parameter>
					<parameter authoringApp="PremierePro">
					<parameterid>4</parameterid>
					<name></name>
					<IsTimeVarying>false</IsTimeVarying>
					<ParameterControlType>2</ParameterControlType>
					<LowerBound>0</LowerBound>
					<UpperBound>4000</UpperBound>
					<value>-91445760000000000,100.,0,0,0,0,0,0</value>
					</parameter>
					<parameter authoringApp="PremierePro">
					<parameterid>8</parameterid>
					<name></name>
					<IsTimeVarying>false</IsTimeVarying>
					<ParameterControlType>2</ParameterControlType>
					<LowerBound>0</LowerBound>
					<UpperBound>100</UpperBound>
					<value>-91445760000000000,100.,0,0,0,0,0,0</value>
					</parameter>
					</effect>
					</filter>
					<logginginfo>
					<description></description>
					<scene></scene>
					<shottake></shottake>
					<lognote></lognote>
					<good></good>
					<originalvideofilename></originalvideofilename>
					<originalaudiofilename></originalaudiofilename>
					</logginginfo>
					<colorinfo>
					<lut></lut>
					<lut1></lut1>
					<asc_sop></asc_sop>
					<asc_sat></asc_sat>
					<lut2></lut2>
					</colorinfo>
					<labels>
					</labels>
					</clipitem>
					<clipitem frameBlend="FALSE" id="clipitem-682">
					<masterclipid>masterclip-602</masterclipid>
					<name></name>
					<enabled>TRUE</enabled>
					<duration>2582774</duration>
					<rate>
					
					                                    <timebase>60</timebase>
					                                    <ntsc>TRUE</ntsc>
					                                
					</rate>
					<start>5902</start>
					<end>5968</end>
					<in>5902</in>
					<out>5968</out>
					<pproTicksIn>914456774963789</pproTicksIn>
					<pproTicksOut>914677708529577</pproTicksOut>
					<alphatype>straight</alphatype>
					<pixelaspectratio>square</pixelaspectratio>
					<anamorphic>FALSE</anamorphic>
					<file id="file-601">
					<name></name>
					<mediaSource>GraphicAndType</mediaSource>
					<rate>
					<timebase>60</timebase>
					<ntsc>TRUE</ntsc>
					</rate>
					<timecode>
					<rate>
					<timebase>60</timebase>
					<ntsc>TRUE</ntsc>
					</rate>
					<string>00:00:00:00</string>
					<frame>0</frame>
					<displayformat>NDF</displayformat>
					</timecode>
					<media>
					<video>
					<samplecharacteristics>
					<rate>
					<timebase>60</timebase>
					<ntsc>TRUE</ntsc>
					</rate>
					<width>1080</width>
					<height>1920</height>
					<anamorphic>FALSE</anamorphic>
					<pixelaspectratio>square</pixelaspectratio>
					<fielddominance>none</fielddominance>
					</samplecharacteristics>
					</video>
					</media>
					</file>
					<filter>
					<effect>
					<name></name>
					<effectid>GraphicAndType</effectid>
					<effectcategory>graphic</effectcategory>
					<effecttype>filter</effecttype>
					<mediatype>video</mediatype>
					<pproBypass>false</pproBypass>
					<parameter authoringApp="PremierePro">
					<parameterid>1</parameterid>
					<name></name>
					<hash>025b1101-ead6-0ca2-1feb-caf3000001fc</hash>
					<value>5AEAAAAAAABEMyIRDAAAAAAABgAKAAQABgAAAGQAAAAAAF4ASAAQAAwARABAADwAOAAAAAAAAAAAADQAMwAsAAAAKAAkACAAAAAAAAAAAAAAAAAAHAAAAAAAGgAAAAAAAAAUAAAAAAAAAAAAAAAAAAAAAAAAAAgAAAAAABsABwBeAAAAAAAAAUAAAABQAAAAbAAAAAIAAAAAAAEAAQAAAAAAQEEAAMBAAABAQAAAyEIAAAABIAAAAAIAAAACAAAAAAA2QwCASkTw/v//9P7///j+//8S////AAAAAAEAAAAEAAAAEQAAAEhHUFNvZWlLYWt1cG9wdGFpAAAAAQAAAAwAAAAIAAwABAAIAAgAAAAIAAAAUAAAAA8AAADvvIEAAAAAAAAAAAAAAAAAAAA2ACQAAAAgABwAAAAAABsAFAAAAAAAAAAAAAAAAAAAAAAAAAAAABAAAAAAAAAADAAAAAgABAA2AAAAAgAAABwAAAAcAAAAHAAAAAAAIEEAAAABaAAAAE3PAEOw////tP///wEAAAAUAAAAEAAaAAgABwAMAAAAEAAUABAAAAAAAAABHAAAAAAAoEEcAAAAAgAAAAAACgAIAAUABgAHAAoAAAAADAD//P///wQABAAEAAAACAAIAAYABwAIAAAAAAAMAA==</value>
					</parameter>
					<parameter authoringApp="PremierePro">
					<parameterid>2</parameterid>
					<name></name>
					<IsTimeVarying>false</IsTimeVarying>
					<ParameterControlType>11</ParameterControlType>
					<LowerBound>false</LowerBound>
					<UpperBound>false</UpperBound>
					<value>-91445760000000000,false,0,0,0,0,0,0</value>
					</parameter>
					<parameter authoringApp="PremierePro">
					<parameterid>3</parameterid>
					<name></name>
					<IsTimeVarying>false</IsTimeVarying>
					<value>-91445760000000000,0.5:0.5,0,0,0,0,0,0,5,4,0,0,0,0</value>
					</parameter>
					<parameter authoringApp="PremierePro">
					<parameterid>4</parameterid>
					<name></name>
					<IsTimeVarying>false</IsTimeVarying>
					<ParameterControlType>2</ParameterControlType>
					<LowerBound>0</LowerBound>
					<UpperBound>4000</UpperBound>
					<value>-91445760000000000,100.,0,0,0,0,0,0</value>
					</parameter>
					<parameter authoringApp="PremierePro">
					<parameterid>8</parameterid>
					<name></name>
					<IsTimeVarying>false</IsTimeVarying>
					<ParameterControlType>2</ParameterControlType>
					<LowerBound>0</LowerBound>
					<UpperBound>100</UpperBound>
					<value>-91445760000000000,100.,0,0,0,0,0,0</value>
					</parameter>
					</effect>
					</filter>
					<logginginfo>
					<description></description>
					<scene></scene>
					<shottake></shottake>
					<lognote></lognote>
					<good></good>
					<originalvideofilename></originalvideofilename>
					<originalaudiofilename></originalaudiofilename>
					</logginginfo>
					<colorinfo>
					<lut></lut>
					<lut1></lut1>
					<asc_sop></asc_sop>
					<asc_sat></asc_sat>
					<lut2></lut2>
					</colorinfo>
					<labels>
					</labels>
					</clipitem>
					<clipitem frameBlend="FALSE" id="clipitem-689">
					<masterclipid>masterclip-609</masterclipid>
					<name></name>
					<enabled>TRUE</enabled>
					<duration>2582774</duration>
					<rate>
					
					                                    <timebase>60</timebase>
					                                    <ntsc>TRUE</ntsc>
					                                
					</rate>
					<start>5986</start>
					<end>6046</end>
					<in>5986</in>
					<out>6046</out>
					<pproTicksIn>914456774963789</pproTicksIn>
					<pproTicksOut>914677708529577</pproTicksOut>
					<alphatype>straight</alphatype>
					<pixelaspectratio>square</pixelaspectratio>
					<anamorphic>FALSE</anamorphic>
					<file id="file-608">
					<name></name>
					<mediaSource>GraphicAndType</mediaSource>
					<rate>
					<timebase>60</timebase>
					<ntsc>TRUE</ntsc>
					</rate>
					<timecode>
					<rate>
					<timebase>60</timebase>
					<ntsc>TRUE</ntsc>
					</rate>
					<string>00:00:00:00</string>
					<frame>0</frame>
					<displayformat>NDF</displayformat>
					</timecode>
					<media>
					<video>
					<samplecharacteristics>
					<rate>
					<timebase>60</timebase>
					<ntsc>TRUE</ntsc>
					</rate>
					<width>1080</width>
					<height>1920</height>
					<anamorphic>FALSE</anamorphic>
					<pixelaspectratio>square</pixelaspectratio>
					<fielddominance>none</fielddominance>
					</samplecharacteristics>
					</video>
					</media>
					</file>
					<filter>
					<effect>
					<name></name>
					<effectid>GraphicAndType</effectid>
					<effectcategory>graphic</effectcategory>
					<effecttype>filter</effecttype>
					<mediatype>video</mediatype>
					<pproBypass>false</pproBypass>
					<parameter authoringApp="PremierePro">
					<parameterid>1</parameterid>
					<name></name>
					<hash>025b1101-ead6-0ca2-1feb-caf3000001fc</hash>
					<value>5AEAAAAAAABEMyIRDAAAAAAABgAKAAQABgAAAGQAAAAAAF4ASAAQAAwARABAADwAOAAAAAAAAAAAADQAMwAsAAAAKAAkACAAAAAAAAAAAAAAAAAAHAAAAAAAGgAAAAAAAAAUAAAAAAAAAAAAAAAAAAAAAAAAAAgAAAAAABsABwBeAAAAAAAAAUAAAABQAAAAbAAAAAIAAAAAAAEAAQAAAAAAQEEAAMBAAABAQAAAyEIAAAABIAAAAAIAAAACAAAAAAA2QwCASkTw/v//9P7///j+//8S////AAAAAAEAAAAEAAAAEQAAAEhHUFNvZWlLYWt1cG9wdGFpAAAAAQAAAAwAAAAIAAwABAAIAAgAAAAIAAAAUAAAAA8AAADvvIEAAAAAAAAAAAAAAAAAAAA2ACQAAAAgABwAAAAAABsAFAAAAAAAAAAAAAAAAAAAAAAAAAAAABAAAAAAAAAADAAAAAgABAA2AAAAAgAAABwAAAAcAAAAHAAAAAAAIEEAAAABaAAAAE3PAEOw////tP///wEAAAAUAAAAEAAaAAgABwAMAAAAEAAUABAAAAAAAAABHAAAAAAAoEEcAAAAAgAAAAAACgAIAAUABgAHAAoAAAAADAD//P///wQABAAEAAAACAAIAAYABwAIAAAAAAAMAA==</value>
					</parameter>
					<parameter authoringApp="PremierePro">
					<parameterid>2</parameterid>
					<name></name>
					<IsTimeVarying>false</IsTimeVarying>
					<ParameterControlType>11</ParameterControlType>
					<LowerBound>false</LowerBound>
					<UpperBound>false</UpperBound>
					<value>-91445760000000000,false,0,0,0,0,0,0</value>
					</parameter>
					<parameter authoringApp="PremierePro">
					<parameterid>3</parameterid>
					<name></name>
					<IsTimeVarying>false</IsTimeVarying>
					<value>-91445760000000000,0.5:0.5,0,0,0,0,0,0,5,4,0,0,0,0</value>
					</parameter>
					<parameter authoringApp="PremierePro">
					<parameterid>4</parameterid>
					<name></name>
					<IsTimeVarying>false</IsTimeVarying>
					<ParameterControlType>2</ParameterControlType>
					<LowerBound>0</LowerBound>
					<UpperBound>4000</UpperBound>
					<value>-91445760000000000,100.,0,0,0,0,0,0</value>
					</parameter>
					<parameter authoringApp="PremierePro">
					<parameterid>8</parameterid>
					<name></name>
					<IsTimeVarying>false</IsTimeVarying>
					<ParameterControlType>2</ParameterControlType>
					<LowerBound>0</LowerBound>
					<UpperBound>100</UpperBound>
					<value>-91445760000000000,100.,0,0,0,0,0,0</value>
					</parameter>
					</effect>
					</filter>
					<logginginfo>
					<description></description>
					<scene></scene>
					<shottake></shottake>
					<lognote></lognote>
					<good></good>
					<originalvideofilename></originalvideofilename>
					<originalaudiofilename></originalaudiofilename>
					</logginginfo>
					<colorinfo>
					<lut></lut>
					<lut1></lut1>
					<asc_sop></asc_sop>
					<asc_sat></asc_sat>
					<lut2></lut2>
					</colorinfo>
					<labels>
					</labels>
					</clipitem>
					<clipitem frameBlend="FALSE" id="clipitem-698">
					<masterclipid>masterclip-618</masterclipid>
					<name></name>
					<enabled>TRUE</enabled>
					<duration>2582774</duration>
					<rate>
					
					                                    <timebase>60</timebase>
					                                    <ntsc>TRUE</ntsc>
					                                
					</rate>
					<start>6076</start>
					<end>6136</end>
					<in>6076</in>
					<out>6136</out>
					<pproTicksIn>914456774963789</pproTicksIn>
					<pproTicksOut>914677708529577</pproTicksOut>
					<alphatype>straight</alphatype>
					<pixelaspectratio>square</pixelaspectratio>
					<anamorphic>FALSE</anamorphic>
					<file id="file-617">
					<name></name>
					<mediaSource>GraphicAndType</mediaSource>
					<rate>
					<timebase>60</timebase>
					<ntsc>TRUE</ntsc>
					</rate>
					<timecode>
					<rate>
					<timebase>60</timebase>
					<ntsc>TRUE</ntsc>
					</rate>
					<string>00:00:00:00</string>
					<frame>0</frame>
					<displayformat>NDF</displayformat>
					</timecode>
					<media>
					<video>
					<samplecharacteristics>
					<rate>
					<timebase>60</timebase>
					<ntsc>TRUE</ntsc>
					</rate>
					<width>1080</width>
					<height>1920</height>
					<anamorphic>FALSE</anamorphic>
					<pixelaspectratio>square</pixelaspectratio>
					<fielddominance>none</fielddominance>
					</samplecharacteristics>
					</video>
					</media>
					</file>
					<filter>
					<effect>
					<name></name>
					<effectid>GraphicAndType</effectid>
					<effectcategory>graphic</effectcategory>
					<effecttype>filter</effecttype>
					<mediatype>video</mediatype>
					<pproBypass>false</pproBypass>
					<parameter authoringApp="PremierePro">
					<parameterid>1</parameterid>
					<name></name>
					<hash>025b1101-ead6-0ca2-1feb-caf3000001fc</hash>
					<value>5AEAAAAAAABEMyIRDAAAAAAABgAKAAQABgAAAGQAAAAAAF4ASAAQAAwARABAADwAOAAAAAAAAAAAADQAMwAsAAAAKAAkACAAAAAAAAAAAAAAAAAAHAAAAAAAGgAAAAAAAAAUAAAAAAAAAAAAAAAAAAAAAAAAAAgAAAAAABsABwBeAAAAAAAAAUAAAABQAAAAbAAAAAIAAAAAAAEAAQAAAAAAQEEAAMBAAABAQAAAyEIAAAABIAAAAAIAAAACAAAAAAA2QwCASkTw/v//9P7///j+//8S////AAAAAAEAAAAEAAAAEQAAAEhHUFNvZWlLYWt1cG9wdGFpAAAAAQAAAAwAAAAIAAwABAAIAAgAAAAIAAAAUAAAAA8AAADvvIEAAAAAAAAAAAAAAAAAAAA2ACQAAAAgABwAAAAAABsAFAAAAAAAAAAAAAAAAAAAAAAAAAAAABAAAAAAAAAADAAAAAgABAA2AAAAAgAAABwAAAAcAAAAHAAAAAAAIEEAAAABaAAAAE3PAEOw////tP///wEAAAAUAAAAEAAaAAgABwAMAAAAEAAUABAAAAAAAAABHAAAAAAAoEEcAAAAAgAAAAAACgAIAAUABgAHAAoAAAAADAD//P///wQABAAEAAAACAAIAAYABwAIAAAAAAAMAA==</value>
					</parameter>
					<parameter authoringApp="PremierePro">
					<parameterid>2</parameterid>
					<name></name>
					<IsTimeVarying>false</IsTimeVarying>
					<ParameterControlType>11</ParameterControlType>
					<LowerBound>false</LowerBound>
					<UpperBound>false</UpperBound>
					<value>-91445760000000000,false,0,0,0,0,0,0</value>
					</parameter>
					<parameter authoringApp="PremierePro">
					<parameterid>3</parameterid>
					<name></name>
					<IsTimeVarying>false</IsTimeVarying>
					<value>-91445760000000000,0.5:0.5,0,0,0,0,0,0,5,4,0,0,0,0</value>
					</parameter>
					<parameter authoringApp="PremierePro">
					<parameterid>4</parameterid>
					<name></name>
					<IsTimeVarying>false</IsTimeVarying>
					<ParameterControlType>2</ParameterControlType>
					<LowerBound>0</LowerBound>
					<UpperBound>4000</UpperBound>
					<value>-91445760000000000,100.,0,0,0,0,0,0</value>
					</parameter>
					<parameter authoringApp="PremierePro">
					<parameterid>8</parameterid>
					<name></name>
					<IsTimeVarying>false</IsTimeVarying>
					<ParameterControlType>2</ParameterControlType>
					<LowerBound>0</LowerBound>
					<UpperBound>100</UpperBound>
					<value>-91445760000000000,100.,0,0,0,0,0,0</value>
					</parameter>
					</effect>
					</filter>
					<logginginfo>
					<description></description>
					<scene></scene>
					<shottake></shottake>
					<lognote></lognote>
					<good></good>
					<originalvideofilename></originalvideofilename>
					<originalaudiofilename></originalaudiofilename>
					</logginginfo>
					<colorinfo>
					<lut></lut>
					<lut1></lut1>
					<asc_sop></asc_sop>
					<asc_sat></asc_sat>
					<lut2></lut2>
					</colorinfo>
					<labels>
					</labels>
					</clipitem>
					<clipitem frameBlend="FALSE" id="clipitem-706">
					<masterclipid>masterclip-626</masterclipid>
					<name></name>
					<enabled>TRUE</enabled>
					<duration>2582774</duration>
					<rate>
					
					                                    <timebase>60</timebase>
					                                    <ntsc>TRUE</ntsc>
					                                
					</rate>
					<start>6142</start>
					<end>6202</end>
					<in>6142</in>
					<out>6202</out>
					<pproTicksIn>914456774963789</pproTicksIn>
					<pproTicksOut>914677708529577</pproTicksOut>
					<alphatype>straight</alphatype>
					<pixelaspectratio>square</pixelaspectratio>
					<anamorphic>FALSE</anamorphic>
					<file id="file-625">
					<name></name>
					<mediaSource>GraphicAndType</mediaSource>
					<rate>
					<timebase>60</timebase>
					<ntsc>TRUE</ntsc>
					</rate>
					<timecode>
					<rate>
					<timebase>60</timebase>
					<ntsc>TRUE</ntsc>
					</rate>
					<string>00:00:00:00</string>
					<frame>0</frame>
					<displayformat>NDF</displayformat>
					</timecode>
					<media>
					<video>
					<samplecharacteristics>
					<rate>
					<timebase>60</timebase>
					<ntsc>TRUE</ntsc>
					</rate>
					<width>1080</width>
					<height>1920</height>
					<anamorphic>FALSE</anamorphic>
					<pixelaspectratio>square</pixelaspectratio>
					<fielddominance>none</fielddominance>
					</samplecharacteristics>
					</video>
					</media>
					</file>
					<filter>
					<effect>
					<name></name>
					<effectid>GraphicAndType</effectid>
					<effectcategory>graphic</effectcategory>
					<effecttype>filter</effecttype>
					<mediatype>video</mediatype>
					<pproBypass>false</pproBypass>
					<parameter authoringApp="PremierePro">
					<parameterid>1</parameterid>
					<name></name>
					<hash>025b1101-ead6-0ca2-1feb-caf3000001fc</hash>
					<value>5AEAAAAAAABEMyIRDAAAAAAABgAKAAQABgAAAGQAAAAAAF4ASAAQAAwARABAADwAOAAAAAAAAAAAADQAMwAsAAAAKAAkACAAAAAAAAAAAAAAAAAAHAAAAAAAGgAAAAAAAAAUAAAAAAAAAAAAAAAAAAAAAAAAAAgAAAAAABsABwBeAAAAAAAAAUAAAABQAAAAbAAAAAIAAAAAAAEAAQAAAAAAQEEAAMBAAABAQAAAyEIAAAABIAAAAAIAAAACAAAAAAA2QwCASkTw/v//9P7///j+//8S////AAAAAAEAAAAEAAAAEQAAAEhHUFNvZWlLYWt1cG9wdGFpAAAAAQAAAAwAAAAIAAwABAAIAAgAAAAIAAAAUAAAAA8AAADvvIEAAAAAAAAAAAAAAAAAAAA2ACQAAAAgABwAAAAAABsAFAAAAAAAAAAAAAAAAAAAAAAAAAAAABAAAAAAAAAADAAAAAgABAA2AAAAAgAAABwAAAAcAAAAHAAAAAAAIEEAAAABaAAAAE3PAEOw////tP///wEAAAAUAAAAEAAaAAgABwAMAAAAEAAUABAAAAAAAAABHAAAAAAAoEEcAAAAAgAAAAAACgAIAAUABgAHAAoAAAAADAD//P///wQABAAEAAAACAAIAAYABwAIAAAAAAAMAA==</value>
					</parameter>
					<parameter authoringApp="PremierePro">
					<parameterid>2</parameterid>
					<name></name>
					<IsTimeVarying>false</IsTimeVarying>
					<ParameterControlType>11</ParameterControlType>
					<LowerBound>false</LowerBound>
					<UpperBound>false</UpperBound>
					<value>-91445760000000000,false,0,0,0,0,0,0</value>
					</parameter>
					<parameter authoringApp="PremierePro">
					<parameterid>3</parameterid>
					<name></name>
					<IsTimeVarying>false</IsTimeVarying>
					<value>-91445760000000000,0.5:0.5,0,0,0,0,0,0,5,4,0,0,0,0</value>
					</parameter>
					<parameter authoringApp="PremierePro">
					<parameterid>4</parameterid>
					<name></name>
					<IsTimeVarying>false</IsTimeVarying>
					<ParameterControlType>2</ParameterControlType>
					<LowerBound>0</LowerBound>
					<UpperBound>4000</UpperBound>
					<value>-91445760000000000,100.,0,0,0,0,0,0</value>
					</parameter>
					<parameter authoringApp="PremierePro">
					<parameterid>8</parameterid>
					<name></name>
					<IsTimeVarying>false</IsTimeVarying>
					<ParameterControlType>2</ParameterControlType>
					<LowerBound>0</LowerBound>
					<UpperBound>100</UpperBound>
					<value>-91445760000000000,100.,0,0,0,0,0,0</value>
					</parameter>
					</effect>
					</filter>
					<logginginfo>
					<description></description>
					<scene></scene>
					<shottake></shottake>
					<lognote></lognote>
					<good></good>
					<originalvideofilename></originalvideofilename>
					<originalaudiofilename></originalaudiofilename>
					</logginginfo>
					<colorinfo>
					<lut></lut>
					<lut1></lut1>
					<asc_sop></asc_sop>
					<asc_sat></asc_sat>
					<lut2></lut2>
					</colorinfo>
					<labels>
					</labels>
					</clipitem>
					<clipitem frameBlend="FALSE" id="clipitem-713">
					<masterclipid>masterclip-633</masterclipid>
					<name></name>
					<enabled>TRUE</enabled>
					<duration>2582774</duration>
					<rate>
					
					                                    <timebase>60</timebase>
					                                    <ntsc>TRUE</ntsc>
					                                
					</rate>
					<start>6208</start>
					<end>6268</end>
					<in>6208</in>
					<out>6268</out>
					<pproTicksIn>914456774963789</pproTicksIn>
					<pproTicksOut>914677708529577</pproTicksOut>
					<alphatype>straight</alphatype>
					<pixelaspectratio>square</pixelaspectratio>
					<anamorphic>FALSE</anamorphic>
					<file id="file-632">
					<name></name>
					<mediaSource>GraphicAndType</mediaSource>
					<rate>
					<timebase>60</timebase>
					<ntsc>TRUE</ntsc>
					</rate>
					<timecode>
					<rate>
					<timebase>60</timebase>
					<ntsc>TRUE</ntsc>
					</rate>
					<string>00:00:00:00</string>
					<frame>0</frame>
					<displayformat>NDF</displayformat>
					</timecode>
					<media>
					<video>
					<samplecharacteristics>
					<rate>
					<timebase>60</timebase>
					<ntsc>TRUE</ntsc>
					</rate>
					<width>1080</width>
					<height>1920</height>
					<anamorphic>FALSE</anamorphic>
					<pixelaspectratio>square</pixelaspectratio>
					<fielddominance>none</fielddominance>
					</samplecharacteristics>
					</video>
					</media>
					</file>
					<filter>
					<effect>
					<name></name>
					<effectid>GraphicAndType</effectid>
					<effectcategory>graphic</effectcategory>
					<effecttype>filter</effecttype>
					<mediatype>video</mediatype>
					<pproBypass>false</pproBypass>
					<parameter authoringApp="PremierePro">
					<parameterid>1</parameterid>
					<name></name>
					<hash>025b1101-ead6-0ca2-1feb-caf3000001fc</hash>
					<value>5AEAAAAAAABEMyIRDAAAAAAABgAKAAQABgAAAGQAAAAAAF4ASAAQAAwARABAADwAOAAAAAAAAAAAADQAMwAsAAAAKAAkACAAAAAAAAAAAAAAAAAAHAAAAAAAGgAAAAAAAAAUAAAAAAAAAAAAAAAAAAAAAAAAAAgAAAAAABsABwBeAAAAAAAAAUAAAABQAAAAbAAAAAIAAAAAAAEAAQAAAAAAQEEAAMBAAABAQAAAyEIAAAABIAAAAAIAAAACAAAAAAA2QwCASkTw/v//9P7///j+//8S////AAAAAAEAAAAEAAAAEQAAAEhHUFNvZWlLYWt1cG9wdGFpAAAAAQAAAAwAAAAIAAwABAAIAAgAAAAIAAAAUAAAAA8AAADvvIEAAAAAAAAAAAAAAAAAAAA2ACQAAAAgABwAAAAAABsAFAAAAAAAAAAAAAAAAAAAAAAAAAAAABAAAAAAAAAADAAAAAgABAA2AAAAAgAAABwAAAAcAAAAHAAAAAAAIEEAAAABaAAAAE3PAEOw////tP///wEAAAAUAAAAEAAaAAgABwAMAAAAEAAUABAAAAAAAAABHAAAAAAAoEEcAAAAAgAAAAAACgAIAAUABgAHAAoAAAAADAD//P///wQABAAEAAAACAAIAAYABwAIAAAAAAAMAA==</value>
					</parameter>
					<parameter authoringApp="PremierePro">
					<parameterid>2</parameterid>
					<name></name>
					<IsTimeVarying>false</IsTimeVarying>
					<ParameterControlType>11</ParameterControlType>
					<LowerBound>false</LowerBound>
					<UpperBound>false</UpperBound>
					<value>-91445760000000000,false,0,0,0,0,0,0</value>
					</parameter>
					<parameter authoringApp="PremierePro">
					<parameterid>3</parameterid>
					<name></name>
					<IsTimeVarying>false</IsTimeVarying>
					<value>-91445760000000000,0.5:0.5,0,0,0,0,0,0,5,4,0,0,0,0</value>
					</parameter>
					<parameter authoringApp="PremierePro">
					<parameterid>4</parameterid>
					<name></name>
					<IsTimeVarying>false</IsTimeVarying>
					<ParameterControlType>2</ParameterControlType>
					<LowerBound>0</LowerBound>
					<UpperBound>4000</UpperBound>
					<value>-91445760000000000,100.,0,0,0,0,0,0</value>
					</parameter>
					<parameter authoringApp="PremierePro">
					<parameterid>8</parameterid>
					<name></name>
					<IsTimeVarying>false</IsTimeVarying>
					<ParameterControlType>2</ParameterControlType>
					<LowerBound>0</LowerBound>
					<UpperBound>100</UpperBound>
					<value>-91445760000000000,100.,0,0,0,0,0,0</value>
					</parameter>
					</effect>
					</filter>
					<logginginfo>
					<description></description>
					<scene></scene>
					<shottake></shottake>
					<lognote></lognote>
					<good></good>
					<originalvideofilename></originalvideofilename>
					<originalaudiofilename></originalaudiofilename>
					</logginginfo>
					<colorinfo>
					<lut></lut>
					<lut1></lut1>
					<asc_sop></asc_sop>
					<asc_sat></asc_sat>
					<lut2></lut2>
					</colorinfo>
					<labels>
					</labels>
					</clipitem>
					<clipitem frameBlend="FALSE" id="clipitem-721">
					<masterclipid>masterclip-641</masterclipid>
					<name></name>
					<enabled>TRUE</enabled>
					<duration>2582774</duration>
					<rate>
					
					                                    <timebase>60</timebase>
					                                    <ntsc>TRUE</ntsc>
					                                
					</rate>
					<start>6274</start>
					<end>6334</end>
					<in>6274</in>
					<out>6334</out>
					<pproTicksIn>914456774963789</pproTicksIn>
					<pproTicksOut>914677708529577</pproTicksOut>
					<alphatype>straight</alphatype>
					<pixelaspectratio>square</pixelaspectratio>
					<anamorphic>FALSE</anamorphic>
					<file id="file-640">
					<name></name>
					<mediaSource>GraphicAndType</mediaSource>
					<rate>
					<timebase>60</timebase>
					<ntsc>TRUE</ntsc>
					</rate>
					<timecode>
					<rate>
					<timebase>60</timebase>
					<ntsc>TRUE</ntsc>
					</rate>
					<string>00:00:00:00</string>
					<frame>0</frame>
					<displayformat>NDF</displayformat>
					</timecode>
					<media>
					<video>
					<samplecharacteristics>
					<rate>
					<timebase>60</timebase>
					<ntsc>TRUE</ntsc>
					</rate>
					<width>1080</width>
					<height>1920</height>
					<anamorphic>FALSE</anamorphic>
					<pixelaspectratio>square</pixelaspectratio>
					<fielddominance>none</fielddominance>
					</samplecharacteristics>
					</video>
					</media>
					</file>
					<filter>
					<effect>
					<name></name>
					<effectid>GraphicAndType</effectid>
					<effectcategory>graphic</effectcategory>
					<effecttype>filter</effecttype>
					<mediatype>video</mediatype>
					<pproBypass>false</pproBypass>
					<parameter authoringApp="PremierePro">
					<parameterid>1</parameterid>
					<name></name>
					<hash>025b1101-ead6-0ca2-1feb-caf3000001fc</hash>
					<value>5AEAAAAAAABEMyIRDAAAAAAABgAKAAQABgAAAGQAAAAAAF4ASAAQAAwARABAADwAOAAAAAAAAAAAADQAMwAsAAAAKAAkACAAAAAAAAAAAAAAAAAAHAAAAAAAGgAAAAAAAAAUAAAAAAAAAAAAAAAAAAAAAAAAAAgAAAAAABsABwBeAAAAAAAAAUAAAABQAAAAbAAAAAIAAAAAAAEAAQAAAAAAQEEAAMBAAABAQAAAyEIAAAABIAAAAAIAAAACAAAAAAA2QwCASkTw/v//9P7///j+//8S////AAAAAAEAAAAEAAAAEQAAAEhHUFNvZWlLYWt1cG9wdGFpAAAAAQAAAAwAAAAIAAwABAAIAAgAAAAIAAAAUAAAAA8AAADvvIEAAAAAAAAAAAAAAAAAAAA2ACQAAAAgABwAAAAAABsAFAAAAAAAAAAAAAAAAAAAAAAAAAAAABAAAAAAAAAADAAAAAgABAA2AAAAAgAAABwAAAAcAAAAHAAAAAAAIEEAAAABaAAAAE3PAEOw////tP///wEAAAAUAAAAEAAaAAgABwAMAAAAEAAUABAAAAAAAAABHAAAAAAAoEEcAAAAAgAAAAAACgAIAAUABgAHAAoAAAAADAD//P///wQABAAEAAAACAAIAAYABwAIAAAAAAAMAA==</value>
					</parameter>
					<parameter authoringApp="PremierePro">
					<parameterid>2</parameterid>
					<name></name>
					<IsTimeVarying>false</IsTimeVarying>
					<ParameterControlType>11</ParameterControlType>
					<LowerBound>false</LowerBound>
					<UpperBound>false</UpperBound>
					<value>-91445760000000000,false,0,0,0,0,0,0</value>
					</parameter>
					<parameter authoringApp="PremierePro">
					<parameterid>3</parameterid>
					<name></name>
					<IsTimeVarying>false</IsTimeVarying>
					<value>-91445760000000000,0.5:0.5,0,0,0,0,0,0,5,4,0,0,0,0</value>
					</parameter>
					<parameter authoringApp="PremierePro">
					<parameterid>4</parameterid>
					<name></name>
					<IsTimeVarying>false</IsTimeVarying>
					<ParameterControlType>2</ParameterControlType>
					<LowerBound>0</LowerBound>
					<UpperBound>4000</UpperBound>
					<value>-91445760000000000,100.,0,0,0,0,0,0</value>
					</parameter>
					<parameter authoringApp="PremierePro">
					<parameterid>8</parameterid>
					<name></name>
					<IsTimeVarying>false</IsTimeVarying>
					<ParameterControlType>2</ParameterControlType>
					<LowerBound>0</LowerBound>
					<UpperBound>100</UpperBound>
					<value>-91445760000000000,100.,0,0,0,0,0,0</value>
					</parameter>
					</effect>
					</filter>
					<logginginfo>
					<description></description>
					<scene></scene>
					<shottake></shottake>
					<lognote></lognote>
					<good></good>
					<originalvideofilename></originalvideofilename>
					<originalaudiofilename></originalaudiofilename>
					</logginginfo>
					<colorinfo>
					<lut></lut>
					<lut1></lut1>
					<asc_sop></asc_sop>
					<asc_sat></asc_sat>
					<lut2></lut2>
					</colorinfo>
					<labels>
					</labels>
					</clipitem>
					<clipitem frameBlend="FALSE" id="clipitem-729">
					<masterclipid>masterclip-649</masterclipid>
					<name></name>
					<enabled>TRUE</enabled>
					<duration>2582774</duration>
					<rate>
					
					                                    <timebase>60</timebase>
					                                    <ntsc>TRUE</ntsc>
					                                
					</rate>
					<start>6340</start>
					<end>6400</end>
					<in>6340</in>
					<out>6400</out>
					<pproTicksIn>914456774963789</pproTicksIn>
					<pproTicksOut>914677708529577</pproTicksOut>
					<alphatype>straight</alphatype>
					<pixelaspectratio>square</pixelaspectratio>
					<anamorphic>FALSE</anamorphic>
					<file id="file-648">
					<name></name>
					<mediaSource>GraphicAndType</mediaSource>
					<rate>
					<timebase>60</timebase>
					<ntsc>TRUE</ntsc>
					</rate>
					<timecode>
					<rate>
					<timebase>60</timebase>
					<ntsc>TRUE</ntsc>
					</rate>
					<string>00:00:00:00</string>
					<frame>0</frame>
					<displayformat>NDF</displayformat>
					</timecode>
					<media>
					<video>
					<samplecharacteristics>
					<rate>
					<timebase>60</timebase>
					<ntsc>TRUE</ntsc>
					</rate>
					<width>1080</width>
					<height>1920</height>
					<anamorphic>FALSE</anamorphic>
					<pixelaspectratio>square</pixelaspectratio>
					<fielddominance>none</fielddominance>
					</samplecharacteristics>
					</video>
					</media>
					</file>
					<filter>
					<effect>
					<name></name>
					<effectid>GraphicAndType</effectid>
					<effectcategory>graphic</effectcategory>
					<effecttype>filter</effecttype>
					<mediatype>video</mediatype>
					<pproBypass>false</pproBypass>
					<parameter authoringApp="PremierePro">
					<parameterid>1</parameterid>
					<name></name>
					<hash>025b1101-ead6-0ca2-1feb-caf3000001fc</hash>
					<value>5AEAAAAAAABEMyIRDAAAAAAABgAKAAQABgAAAGQAAAAAAF4ASAAQAAwARABAADwAOAAAAAAAAAAAADQAMwAsAAAAKAAkACAAAAAAAAAAAAAAAAAAHAAAAAAAGgAAAAAAAAAUAAAAAAAAAAAAAAAAAAAAAAAAAAgAAAAAABsABwBeAAAAAAAAAUAAAABQAAAAbAAAAAIAAAAAAAEAAQAAAAAAQEEAAMBAAABAQAAAyEIAAAABIAAAAAIAAAACAAAAAAA2QwCASkTw/v//9P7///j+//8S////AAAAAAEAAAAEAAAAEQAAAEhHUFNvZWlLYWt1cG9wdGFpAAAAAQAAAAwAAAAIAAwABAAIAAgAAAAIAAAAUAAAAA8AAADvvIEAAAAAAAAAAAAAAAAAAAA2ACQAAAAgABwAAAAAABsAFAAAAAAAAAAAAAAAAAAAAAAAAAAAABAAAAAAAAAADAAAAAgABAA2AAAAAgAAABwAAAAcAAAAHAAAAAAAIEEAAAABaAAAAE3PAEOw////tP///wEAAAAUAAAAEAAaAAgABwAMAAAAEAAUABAAAAAAAAABHAAAAAAAoEEcAAAAAgAAAAAACgAIAAUABgAHAAoAAAAADAD//P///wQABAAEAAAACAAIAAYABwAIAAAAAAAMAA==</value>
					</parameter>
					<parameter authoringApp="PremierePro">
					<parameterid>2</parameterid>
					<name></name>
					<IsTimeVarying>false</IsTimeVarying>
					<ParameterControlType>11</ParameterControlType>
					<LowerBound>false</LowerBound>
					<UpperBound>false</UpperBound>
					<value>-91445760000000000,false,0,0,0,0,0,0</value>
					</parameter>
					<parameter authoringApp="PremierePro">
					<parameterid>3</parameterid>
					<name></name>
					<IsTimeVarying>false</IsTimeVarying>
					<value>-91445760000000000,0.5:0.5,0,0,0,0,0,0,5,4,0,0,0,0</value>
					</parameter>
					<parameter authoringApp="PremierePro">
					<parameterid>4</parameterid>
					<name></name>
					<IsTimeVarying>false</IsTimeVarying>
					<ParameterControlType>2</ParameterControlType>
					<LowerBound>0</LowerBound>
					<UpperBound>4000</UpperBound>
					<value>-91445760000000000,100.,0,0,0,0,0,0</value>
					</parameter>
					<parameter authoringApp="PremierePro">
					<parameterid>8</parameterid>
					<name></name>
					<IsTimeVarying>false</IsTimeVarying>
					<ParameterControlType>2</ParameterControlType>
					<LowerBound>0</LowerBound>
					<UpperBound>100</UpperBound>
					<value>-91445760000000000,100.,0,0,0,0,0,0</value>
					</parameter>
					</effect>
					</filter>
					<logginginfo>
					<description></description>
					<scene></scene>
					<shottake></shottake>
					<lognote></lognote>
					<good></good>
					<originalvideofilename></originalvideofilename>
					<originalaudiofilename></originalaudiofilename>
					</logginginfo>
					<colorinfo>
					<lut></lut>
					<lut1></lut1>
					<asc_sop></asc_sop>
					<asc_sat></asc_sat>
					<lut2></lut2>
					</colorinfo>
					<labels>
					</labels>
					</clipitem>
					<clipitem frameBlend="FALSE" id="clipitem-736">
					<masterclipid>masterclip-656</masterclipid>
					<name></name>
					<enabled>TRUE</enabled>
					<duration>2582774</duration>
					<rate>
					
					                                    <timebase>60</timebase>
					                                    <ntsc>TRUE</ntsc>
					                                
					</rate>
					<start>6400</start>
					<end>6460</end>
					<in>6400</in>
					<out>6460</out>
					<pproTicksIn>914456774963789</pproTicksIn>
					<pproTicksOut>914677708529577</pproTicksOut>
					<alphatype>straight</alphatype>
					<pixelaspectratio>square</pixelaspectratio>
					<anamorphic>FALSE</anamorphic>
					<file id="file-655">
					<name></name>
					<mediaSource>GraphicAndType</mediaSource>
					<rate>
					<timebase>60</timebase>
					<ntsc>TRUE</ntsc>
					</rate>
					<timecode>
					<rate>
					<timebase>60</timebase>
					<ntsc>TRUE</ntsc>
					</rate>
					<string>00:00:00:00</string>
					<frame>0</frame>
					<displayformat>NDF</displayformat>
					</timecode>
					<media>
					<video>
					<samplecharacteristics>
					<rate>
					<timebase>60</timebase>
					<ntsc>TRUE</ntsc>
					</rate>
					<width>1080</width>
					<height>1920</height>
					<anamorphic>FALSE</anamorphic>
					<pixelaspectratio>square</pixelaspectratio>
					<fielddominance>none</fielddominance>
					</samplecharacteristics>
					</video>
					</media>
					</file>
					<filter>
					<effect>
					<name></name>
					<effectid>GraphicAndType</effectid>
					<effectcategory>graphic</effectcategory>
					<effecttype>filter</effecttype>
					<mediatype>video</mediatype>
					<pproBypass>false</pproBypass>
					<parameter authoringApp="PremierePro">
					<parameterid>1</parameterid>
					<name></name>
					<hash>025b1101-ead6-0ca2-1feb-caf3000001fc</hash>
					<value>5AEAAAAAAABEMyIRDAAAAAAABgAKAAQABgAAAGQAAAAAAF4ASAAQAAwARABAADwAOAAAAAAAAAAAADQAMwAsAAAAKAAkACAAAAAAAAAAAAAAAAAAHAAAAAAAGgAAAAAAAAAUAAAAAAAAAAAAAAAAAAAAAAAAAAgAAAAAABsABwBeAAAAAAAAAUAAAABQAAAAbAAAAAIAAAAAAAEAAQAAAAAAQEEAAMBAAABAQAAAyEIAAAABIAAAAAIAAAACAAAAAAA2QwCASkTw/v//9P7///j+//8S////AAAAAAEAAAAEAAAAEQAAAEhHUFNvZWlLYWt1cG9wdGFpAAAAAQAAAAwAAAAIAAwABAAIAAgAAAAIAAAAUAAAAA8AAADvvIEAAAAAAAAAAAAAAAAAAAA2ACQAAAAgABwAAAAAABsAFAAAAAAAAAAAAAAAAAAAAAAAAAAAABAAAAAAAAAADAAAAAgABAA2AAAAAgAAABwAAAAcAAAAHAAAAAAAIEEAAAABaAAAAE3PAEOw////tP///wEAAAAUAAAAEAAaAAgABwAMAAAAEAAUABAAAAAAAAABHAAAAAAAoEEcAAAAAgAAAAAACgAIAAUABgAHAAoAAAAADAD//P///wQABAAEAAAACAAIAAYABwAIAAAAAAAMAA==</value>
					</parameter>
					<parameter authoringApp="PremierePro">
					<parameterid>2</parameterid>
					<name></name>
					<IsTimeVarying>false</IsTimeVarying>
					<ParameterControlType>11</ParameterControlType>
					<LowerBound>false</LowerBound>
					<UpperBound>false</UpperBound>
					<value>-91445760000000000,false,0,0,0,0,0,0</value>
					</parameter>
					<parameter authoringApp="PremierePro">
					<parameterid>3</parameterid>
					<name></name>
					<IsTimeVarying>false</IsTimeVarying>
					<value>-91445760000000000,0.5:0.5,0,0,0,0,0,0,5,4,0,0,0,0</value>
					</parameter>
					<parameter authoringApp="PremierePro">
					<parameterid>4</parameterid>
					<name></name>
					<IsTimeVarying>false</IsTimeVarying>
					<ParameterControlType>2</ParameterControlType>
					<LowerBound>0</LowerBound>
					<UpperBound>4000</UpperBound>
					<value>-91445760000000000,100.,0,0,0,0,0,0</value>
					</parameter>
					<parameter authoringApp="PremierePro">
					<parameterid>8</parameterid>
					<name></name>
					<IsTimeVarying>false</IsTimeVarying>
					<ParameterControlType>2</ParameterControlType>
					<LowerBound>0</LowerBound>
					<UpperBound>100</UpperBound>
					<value>-91445760000000000,100.,0,0,0,0,0,0</value>
					</parameter>
					</effect>
					</filter>
					<logginginfo>
					<description></description>
					<scene></scene>
					<shottake></shottake>
					<lognote></lognote>
					<good></good>
					<originalvideofilename></originalvideofilename>
					<originalaudiofilename></originalaudiofilename>
					</logginginfo>
					<colorinfo>
					<lut></lut>
					<lut1></lut1>
					<asc_sop></asc_sop>
					<asc_sat></asc_sat>
					<lut2></lut2>
					</colorinfo>
					<labels>
					</labels>
					</clipitem>
					<clipitem frameBlend="FALSE" id="clipitem-740">
					<masterclipid>masterclip-660</masterclipid>
					<name></name>
					<enabled>TRUE</enabled>
					<duration>2582774</duration>
					<rate>
					
					                                    <timebase>60</timebase>
					                                    <ntsc>TRUE</ntsc>
					                                
					</rate>
					<start>6466</start>
					<end>6526</end>
					<in>6466</in>
					<out>6526</out>
					<pproTicksIn>914456774963789</pproTicksIn>
					<pproTicksOut>914677708529577</pproTicksOut>
					<alphatype>straight</alphatype>
					<pixelaspectratio>square</pixelaspectratio>
					<anamorphic>FALSE</anamorphic>
					<file id="file-659">
					<name></name>
					<mediaSource>GraphicAndType</mediaSource>
					<rate>
					<timebase>60</timebase>
					<ntsc>TRUE</ntsc>
					</rate>
					<timecode>
					<rate>
					<timebase>60</timebase>
					<ntsc>TRUE</ntsc>
					</rate>
					<string>00:00:00:00</string>
					<frame>0</frame>
					<displayformat>NDF</displayformat>
					</timecode>
					<media>
					<video>
					<samplecharacteristics>
					<rate>
					<timebase>60</timebase>
					<ntsc>TRUE</ntsc>
					</rate>
					<width>1080</width>
					<height>1920</height>
					<anamorphic>FALSE</anamorphic>
					<pixelaspectratio>square</pixelaspectratio>
					<fielddominance>none</fielddominance>
					</samplecharacteristics>
					</video>
					</media>
					</file>
					<filter>
					<effect>
					<name></name>
					<effectid>GraphicAndType</effectid>
					<effectcategory>graphic</effectcategory>
					<effecttype>filter</effecttype>
					<mediatype>video</mediatype>
					<pproBypass>false</pproBypass>
					<parameter authoringApp="PremierePro">
					<parameterid>1</parameterid>
					<name></name>
					<hash>025b1101-ead6-0ca2-1feb-caf3000001fc</hash>
					<value>5AEAAAAAAABEMyIRDAAAAAAABgAKAAQABgAAAGQAAAAAAF4ASAAQAAwARABAADwAOAAAAAAAAAAAADQAMwAsAAAAKAAkACAAAAAAAAAAAAAAAAAAHAAAAAAAGgAAAAAAAAAUAAAAAAAAAAAAAAAAAAAAAAAAAAgAAAAAABsABwBeAAAAAAAAAUAAAABQAAAAbAAAAAIAAAAAAAEAAQAAAAAAQEEAAMBAAABAQAAAyEIAAAABIAAAAAIAAAACAAAAAAA2QwCASkTw/v//9P7///j+//8S////AAAAAAEAAAAEAAAAEQAAAEhHUFNvZWlLYWt1cG9wdGFpAAAAAQAAAAwAAAAIAAwABAAIAAgAAAAIAAAAUAAAAA8AAADvvIEAAAAAAAAAAAAAAAAAAAA2ACQAAAAgABwAAAAAABsAFAAAAAAAAAAAAAAAAAAAAAAAAAAAABAAAAAAAAAADAAAAAgABAA2AAAAAgAAABwAAAAcAAAAHAAAAAAAIEEAAAABaAAAAE3PAEOw////tP///wEAAAAUAAAAEAAaAAgABwAMAAAAEAAUABAAAAAAAAABHAAAAAAAoEEcAAAAAgAAAAAACgAIAAUABgAHAAoAAAAADAD//P///wQABAAEAAAACAAIAAYABwAIAAAAAAAMAA==</value>
					</parameter>
					<parameter authoringApp="PremierePro">
					<parameterid>2</parameterid>
					<name></name>
					<IsTimeVarying>false</IsTimeVarying>
					<ParameterControlType>11</ParameterControlType>
					<LowerBound>false</LowerBound>
					<UpperBound>false</UpperBound>
					<value>-91445760000000000,false,0,0,0,0,0,0</value>
					</parameter>
					<parameter authoringApp="PremierePro">
					<parameterid>3</parameterid>
					<name></name>
					<IsTimeVarying>false</IsTimeVarying>
					<value>-91445760000000000,0.5:0.5,0,0,0,0,0,0,5,4,0,0,0,0</value>
					</parameter>
					<parameter authoringApp="PremierePro">
					<parameterid>4</parameterid>
					<name></name>
					<IsTimeVarying>false</IsTimeVarying>
					<ParameterControlType>2</ParameterControlType>
					<LowerBound>0</LowerBound>
					<UpperBound>4000</UpperBound>
					<value>-91445760000000000,100.,0,0,0,0,0,0</value>
					</parameter>
					<parameter authoringApp="PremierePro">
					<parameterid>8</parameterid>
					<name></name>
					<IsTimeVarying>false</IsTimeVarying>
					<ParameterControlType>2</ParameterControlType>
					<LowerBound>0</LowerBound>
					<UpperBound>100</UpperBound>
					<value>-91445760000000000,100.,0,0,0,0,0,0</value>
					</parameter>
					</effect>
					</filter>
					<logginginfo>
					<description></description>
					<scene></scene>
					<shottake></shottake>
					<lognote></lognote>
					<good></good>
					<originalvideofilename></originalvideofilename>
					<originalaudiofilename></originalaudiofilename>
					</logginginfo>
					<colorinfo>
					<lut></lut>
					<lut1></lut1>
					<asc_sop></asc_sop>
					<asc_sat></asc_sat>
					<lut2></lut2>
					</colorinfo>
					<labels>
					</labels>
					</clipitem>
					<clipitem frameBlend="FALSE" id="clipitem-747">
					<masterclipid>masterclip-667</masterclipid>
					<name></name>
					<enabled>TRUE</enabled>
					<duration>2582774</duration>
					<rate>
					
					                                    <timebase>60</timebase>
					                                    <ntsc>TRUE</ntsc>
					                                
					</rate>
					<start>6550</start>
					<end>6616</end>
					<in>6550</in>
					<out>6616</out>
					<pproTicksIn>914456774963789</pproTicksIn>
					<pproTicksOut>914677708529577</pproTicksOut>
					<alphatype>straight</alphatype>
					<pixelaspectratio>square</pixelaspectratio>
					<anamorphic>FALSE</anamorphic>
					<file id="file-666">
					<name></name>
					<mediaSource>GraphicAndType</mediaSource>
					<rate>
					<timebase>60</timebase>
					<ntsc>TRUE</ntsc>
					</rate>
					<timecode>
					<rate>
					<timebase>60</timebase>
					<ntsc>TRUE</ntsc>
					</rate>
					<string>00:00:00:00</string>
					<frame>0</frame>
					<displayformat>NDF</displayformat>
					</timecode>
					<media>
					<video>
					<samplecharacteristics>
					<rate>
					<timebase>60</timebase>
					<ntsc>TRUE</ntsc>
					</rate>
					<width>1080</width>
					<height>1920</height>
					<anamorphic>FALSE</anamorphic>
					<pixelaspectratio>square</pixelaspectratio>
					<fielddominance>none</fielddominance>
					</samplecharacteristics>
					</video>
					</media>
					</file>
					<filter>
					<effect>
					<name></name>
					<effectid>GraphicAndType</effectid>
					<effectcategory>graphic</effectcategory>
					<effecttype>filter</effecttype>
					<mediatype>video</mediatype>
					<pproBypass>false</pproBypass>
					<parameter authoringApp="PremierePro">
					<parameterid>1</parameterid>
					<name></name>
					<hash>025b1101-ead6-0ca2-1feb-caf3000001fc</hash>
					<value>5AEAAAAAAABEMyIRDAAAAAAABgAKAAQABgAAAGQAAAAAAF4ASAAQAAwARABAADwAOAAAAAAAAAAAADQAMwAsAAAAKAAkACAAAAAAAAAAAAAAAAAAHAAAAAAAGgAAAAAAAAAUAAAAAAAAAAAAAAAAAAAAAAAAAAgAAAAAABsABwBeAAAAAAAAAUAAAABQAAAAbAAAAAIAAAAAAAEAAQAAAAAAQEEAAMBAAABAQAAAyEIAAAABIAAAAAIAAAACAAAAAAA2QwCASkTw/v//9P7///j+//8S////AAAAAAEAAAAEAAAAEQAAAEhHUFNvZWlLYWt1cG9wdGFpAAAAAQAAAAwAAAAIAAwABAAIAAgAAAAIAAAAUAAAAA8AAADvvIEAAAAAAAAAAAAAAAAAAAA2ACQAAAAgABwAAAAAABsAFAAAAAAAAAAAAAAAAAAAAAAAAAAAABAAAAAAAAAADAAAAAgABAA2AAAAAgAAABwAAAAcAAAAHAAAAAAAIEEAAAABaAAAAE3PAEOw////tP///wEAAAAUAAAAEAAaAAgABwAMAAAAEAAUABAAAAAAAAABHAAAAAAAoEEcAAAAAgAAAAAACgAIAAUABgAHAAoAAAAADAD//P///wQABAAEAAAACAAIAAYABwAIAAAAAAAMAA==</value>
					</parameter>
					<parameter authoringApp="PremierePro">
					<parameterid>2</parameterid>
					<name></name>
					<IsTimeVarying>false</IsTimeVarying>
					<ParameterControlType>11</ParameterControlType>
					<LowerBound>false</LowerBound>
					<UpperBound>false</UpperBound>
					<value>-91445760000000000,false,0,0,0,0,0,0</value>
					</parameter>
					<parameter authoringApp="PremierePro">
					<parameterid>3</parameterid>
					<name></name>
					<IsTimeVarying>false</IsTimeVarying>
					<value>-91445760000000000,0.5:0.5,0,0,0,0,0,0,5,4,0,0,0,0</value>
					</parameter>
					<parameter authoringApp="PremierePro">
					<parameterid>4</parameterid>
					<name></name>
					<IsTimeVarying>false</IsTimeVarying>
					<ParameterControlType>2</ParameterControlType>
					<LowerBound>0</LowerBound>
					<UpperBound>4000</UpperBound>
					<value>-91445760000000000,100.,0,0,0,0,0,0</value>
					</parameter>
					<parameter authoringApp="PremierePro">
					<parameterid>8</parameterid>
					<name></name>
					<IsTimeVarying>false</IsTimeVarying>
					<ParameterControlType>2</ParameterControlType>
					<LowerBound>0</LowerBound>
					<UpperBound>100</UpperBound>
					<value>-91445760000000000,100.,0,0,0,0,0,0</value>
					</parameter>
					</effect>
					</filter>
					<logginginfo>
					<description></description>
					<scene></scene>
					<shottake></shottake>
					<lognote></lognote>
					<good></good>
					<originalvideofilename></originalvideofilename>
					<originalaudiofilename></originalaudiofilename>
					</logginginfo>
					<colorinfo>
					<lut></lut>
					<lut1></lut1>
					<asc_sop></asc_sop>
					<asc_sat></asc_sat>
					<lut2></lut2>
					</colorinfo>
					<labels>
					</labels>
					</clipitem>
					<clipitem frameBlend="FALSE" id="clipitem-755">
					<masterclipid>masterclip-675</masterclipid>
					<name></name>
					<enabled>TRUE</enabled>
					<duration>2582774</duration>
					<rate>
					
					                                    <timebase>60</timebase>
					                                    <ntsc>TRUE</ntsc>
					                                
					</rate>
					<start>6640</start>
					<end>6700</end>
					<in>6640</in>
					<out>6700</out>
					<pproTicksIn>914456774963789</pproTicksIn>
					<pproTicksOut>914677708529577</pproTicksOut>
					<alphatype>straight</alphatype>
					<pixelaspectratio>square</pixelaspectratio>
					<anamorphic>FALSE</anamorphic>
					<file id="file-674">
					<name></name>
					<mediaSource>GraphicAndType</mediaSource>
					<rate>
					<timebase>60</timebase>
					<ntsc>TRUE</ntsc>
					</rate>
					<timecode>
					<rate>
					<timebase>60</timebase>
					<ntsc>TRUE</ntsc>
					</rate>
					<string>00:00:00:00</string>
					<frame>0</frame>
					<displayformat>NDF</displayformat>
					</timecode>
					<media>
					<video>
					<samplecharacteristics>
					<rate>
					<timebase>60</timebase>
					<ntsc>TRUE</ntsc>
					</rate>
					<width>1080</width>
					<height>1920</height>
					<anamorphic>FALSE</anamorphic>
					<pixelaspectratio>square</pixelaspectratio>
					<fielddominance>none</fielddominance>
					</samplecharacteristics>
					</video>
					</media>
					</file>
					<filter>
					<effect>
					<name></name>
					<effectid>GraphicAndType</effectid>
					<effectcategory>graphic</effectcategory>
					<effecttype>filter</effecttype>
					<mediatype>video</mediatype>
					<pproBypass>false</pproBypass>
					<parameter authoringApp="PremierePro">
					<parameterid>1</parameterid>
					<name></name>
					<hash>025b1101-ead6-0ca2-1feb-caf3000001fc</hash>
					<value>5AEAAAAAAABEMyIRDAAAAAAABgAKAAQABgAAAGQAAAAAAF4ASAAQAAwARABAADwAOAAAAAAAAAAAADQAMwAsAAAAKAAkACAAAAAAAAAAAAAAAAAAHAAAAAAAGgAAAAAAAAAUAAAAAAAAAAAAAAAAAAAAAAAAAAgAAAAAABsABwBeAAAAAAAAAUAAAABQAAAAbAAAAAIAAAAAAAEAAQAAAAAAQEEAAMBAAABAQAAAyEIAAAABIAAAAAIAAAACAAAAAAA2QwCASkTw/v//9P7///j+//8S////AAAAAAEAAAAEAAAAEQAAAEhHUFNvZWlLYWt1cG9wdGFpAAAAAQAAAAwAAAAIAAwABAAIAAgAAAAIAAAAUAAAAA8AAADvvIEAAAAAAAAAAAAAAAAAAAA2ACQAAAAgABwAAAAAABsAFAAAAAAAAAAAAAAAAAAAAAAAAAAAABAAAAAAAAAADAAAAAgABAA2AAAAAgAAABwAAAAcAAAAHAAAAAAAIEEAAAABaAAAAE3PAEOw////tP///wEAAAAUAAAAEAAaAAgABwAMAAAAEAAUABAAAAAAAAABHAAAAAAAoEEcAAAAAgAAAAAACgAIAAUABgAHAAoAAAAADAD//P///wQABAAEAAAACAAIAAYABwAIAAAAAAAMAA==</value>
					</parameter>
					<parameter authoringApp="PremierePro">
					<parameterid>2</parameterid>
					<name></name>
					<IsTimeVarying>false</IsTimeVarying>
					<ParameterControlType>11</ParameterControlType>
					<LowerBound>false</LowerBound>
					<UpperBound>false</UpperBound>
					<value>-91445760000000000,false,0,0,0,0,0,0</value>
					</parameter>
					<parameter authoringApp="PremierePro">
					<parameterid>3</parameterid>
					<name></name>
					<IsTimeVarying>false</IsTimeVarying>
					<value>-91445760000000000,0.5:0.5,0,0,0,0,0,0,5,4,0,0,0,0</value>
					</parameter>
					<parameter authoringApp="PremierePro">
					<parameterid>4</parameterid>
					<name></name>
					<IsTimeVarying>false</IsTimeVarying>
					<ParameterControlType>2</ParameterControlType>
					<LowerBound>0</LowerBound>
					<UpperBound>4000</UpperBound>
					<value>-91445760000000000,100.,0,0,0,0,0,0</value>
					</parameter>
					<parameter authoringApp="PremierePro">
					<parameterid>8</parameterid>
					<name></name>
					<IsTimeVarying>false</IsTimeVarying>
					<ParameterControlType>2</ParameterControlType>
					<LowerBound>0</LowerBound>
					<UpperBound>100</UpperBound>
					<value>-91445760000000000,100.,0,0,0,0,0,0</value>
					</parameter>
					</effect>
					</filter>
					<logginginfo>
					<description></description>
					<scene></scene>
					<shottake></shottake>
					<lognote></lognote>
					<good></good>
					<originalvideofilename></originalvideofilename>
					<originalaudiofilename></originalaudiofilename>
					</logginginfo>
					<colorinfo>
					<lut></lut>
					<lut1></lut1>
					<asc_sop></asc_sop>
					<asc_sat></asc_sat>
					<lut2></lut2>
					</colorinfo>
					<labels>
					</labels>
					</clipitem>
					<clipitem frameBlend="FALSE" id="clipitem-761">
					<masterclipid>masterclip-681</masterclipid>
					<name></name>
					<enabled>TRUE</enabled>
					<duration>2582774</duration>
					<rate>
					
					                                    <timebase>60</timebase>
					                                    <ntsc>TRUE</ntsc>
					                                
					</rate>
					<start>6760</start>
					<end>6820</end>
					<in>6760</in>
					<out>6820</out>
					<pproTicksIn>914456774963789</pproTicksIn>
					<pproTicksOut>914677708529577</pproTicksOut>
					<alphatype>straight</alphatype>
					<pixelaspectratio>square</pixelaspectratio>
					<anamorphic>FALSE</anamorphic>
					<file id="file-680">
					<name></name>
					<mediaSource>GraphicAndType</mediaSource>
					<rate>
					<timebase>60</timebase>
					<ntsc>TRUE</ntsc>
					</rate>
					<timecode>
					<rate>
					<timebase>60</timebase>
					<ntsc>TRUE</ntsc>
					</rate>
					<string>00:00:00:00</string>
					<frame>0</frame>
					<displayformat>NDF</displayformat>
					</timecode>
					<media>
					<video>
					<samplecharacteristics>
					<rate>
					<timebase>60</timebase>
					<ntsc>TRUE</ntsc>
					</rate>
					<width>1080</width>
					<height>1920</height>
					<anamorphic>FALSE</anamorphic>
					<pixelaspectratio>square</pixelaspectratio>
					<fielddominance>none</fielddominance>
					</samplecharacteristics>
					</video>
					</media>
					</file>
					<filter>
					<effect>
					<name></name>
					<effectid>GraphicAndType</effectid>
					<effectcategory>graphic</effectcategory>
					<effecttype>filter</effecttype>
					<mediatype>video</mediatype>
					<pproBypass>false</pproBypass>
					<parameter authoringApp="PremierePro">
					<parameterid>1</parameterid>
					<name></name>
					<hash>025b1101-ead6-0ca2-1feb-caf3000001fc</hash>
					<value>5AEAAAAAAABEMyIRDAAAAAAABgAKAAQABgAAAGQAAAAAAF4ASAAQAAwARABAADwAOAAAAAAAAAAAADQAMwAsAAAAKAAkACAAAAAAAAAAAAAAAAAAHAAAAAAAGgAAAAAAAAAUAAAAAAAAAAAAAAAAAAAAAAAAAAgAAAAAABsABwBeAAAAAAAAAUAAAABQAAAAbAAAAAIAAAAAAAEAAQAAAAAAQEEAAMBAAABAQAAAyEIAAAABIAAAAAIAAAACAAAAAAA2QwCASkTw/v//9P7///j+//8S////AAAAAAEAAAAEAAAAEQAAAEhHUFNvZWlLYWt1cG9wdGFpAAAAAQAAAAwAAAAIAAwABAAIAAgAAAAIAAAAUAAAAA8AAADvvIEAAAAAAAAAAAAAAAAAAAA2ACQAAAAgABwAAAAAABsAFAAAAAAAAAAAAAAAAAAAAAAAAAAAABAAAAAAAAAADAAAAAgABAA2AAAAAgAAABwAAAAcAAAAHAAAAAAAIEEAAAABaAAAAE3PAEOw////tP///wEAAAAUAAAAEAAaAAgABwAMAAAAEAAUABAAAAAAAAABHAAAAAAAoEEcAAAAAgAAAAAACgAIAAUABgAHAAoAAAAADAD//P///wQABAAEAAAACAAIAAYABwAIAAAAAAAMAA==</value>
					</parameter>
					<parameter authoringApp="PremierePro">
					<parameterid>2</parameterid>
					<name></name>
					<IsTimeVarying>false</IsTimeVarying>
					<ParameterControlType>11</ParameterControlType>
					<LowerBound>false</LowerBound>
					<UpperBound>false</UpperBound>
					<value>-91445760000000000,false,0,0,0,0,0,0</value>
					</parameter>
					<parameter authoringApp="PremierePro">
					<parameterid>3</parameterid>
					<name></name>
					<IsTimeVarying>false</IsTimeVarying>
					<value>-91445760000000000,0.5:0.5,0,0,0,0,0,0,5,4,0,0,0,0</value>
					</parameter>
					<parameter authoringApp="PremierePro">
					<parameterid>4</parameterid>
					<name></name>
					<IsTimeVarying>false</IsTimeVarying>
					<ParameterControlType>2</ParameterControlType>
					<LowerBound>0</LowerBound>
					<UpperBound>4000</UpperBound>
					<value>-91445760000000000,100.,0,0,0,0,0,0</value>
					</parameter>
					<parameter authoringApp="PremierePro">
					<parameterid>8</parameterid>
					<name></name>
					<IsTimeVarying>false</IsTimeVarying>
					<ParameterControlType>2</ParameterControlType>
					<LowerBound>0</LowerBound>
					<UpperBound>100</UpperBound>
					<value>-91445760000000000,100.,0,0,0,0,0,0</value>
					</parameter>
					</effect>
					</filter>
					<logginginfo>
					<description></description>
					<scene></scene>
					<shottake></shottake>
					<lognote></lognote>
					<good></good>
					<originalvideofilename></originalvideofilename>
					<originalaudiofilename></originalaudiofilename>
					</logginginfo>
					<colorinfo>
					<lut></lut>
					<lut1></lut1>
					<asc_sop></asc_sop>
					<asc_sat></asc_sat>
					<lut2></lut2>
					</colorinfo>
					<labels>
					</labels>
					</clipitem>
					<clipitem frameBlend="FALSE" id="clipitem-770">
					<masterclipid>masterclip-690</masterclipid>
					<name></name>
					<enabled>TRUE</enabled>
					<duration>2582774</duration>
					<rate>
					
					                                    <timebase>60</timebase>
					                                    <ntsc>TRUE</ntsc>
					                                
					</rate>
					<start>6880</start>
					<end>6946</end>
					<in>6880</in>
					<out>6946</out>
					<pproTicksIn>914456774963789</pproTicksIn>
					<pproTicksOut>914677708529577</pproTicksOut>
					<alphatype>straight</alphatype>
					<pixelaspectratio>square</pixelaspectratio>
					<anamorphic>FALSE</anamorphic>
					<file id="file-689">
					<name></name>
					<mediaSource>GraphicAndType</mediaSource>
					<rate>
					<timebase>60</timebase>
					<ntsc>TRUE</ntsc>
					</rate>
					<timecode>
					<rate>
					<timebase>60</timebase>
					<ntsc>TRUE</ntsc>
					</rate>
					<string>00:00:00:00</string>
					<frame>0</frame>
					<displayformat>NDF</displayformat>
					</timecode>
					<media>
					<video>
					<samplecharacteristics>
					<rate>
					<timebase>60</timebase>
					<ntsc>TRUE</ntsc>
					</rate>
					<width>1080</width>
					<height>1920</height>
					<anamorphic>FALSE</anamorphic>
					<pixelaspectratio>square</pixelaspectratio>
					<fielddominance>none</fielddominance>
					</samplecharacteristics>
					</video>
					</media>
					</file>
					<filter>
					<effect>
					<name></name>
					<effectid>GraphicAndType</effectid>
					<effectcategory>graphic</effectcategory>
					<effecttype>filter</effecttype>
					<mediatype>video</mediatype>
					<pproBypass>false</pproBypass>
					<parameter authoringApp="PremierePro">
					<parameterid>1</parameterid>
					<name></name>
					<hash>025b1101-ead6-0ca2-1feb-caf3000001fc</hash>
					<value>5AEAAAAAAABEMyIRDAAAAAAABgAKAAQABgAAAGQAAAAAAF4ASAAQAAwARABAADwAOAAAAAAAAAAAADQAMwAsAAAAKAAkACAAAAAAAAAAAAAAAAAAHAAAAAAAGgAAAAAAAAAUAAAAAAAAAAAAAAAAAAAAAAAAAAgAAAAAABsABwBeAAAAAAAAAUAAAABQAAAAbAAAAAIAAAAAAAEAAQAAAAAAQEEAAMBAAABAQAAAyEIAAAABIAAAAAIAAAACAAAAAAA2QwCASkTw/v//9P7///j+//8S////AAAAAAEAAAAEAAAAEQAAAEhHUFNvZWlLYWt1cG9wdGFpAAAAAQAAAAwAAAAIAAwABAAIAAgAAAAIAAAAUAAAAA8AAADvvIEAAAAAAAAAAAAAAAAAAAA2ACQAAAAgABwAAAAAABsAFAAAAAAAAAAAAAAAAAAAAAAAAAAAABAAAAAAAAAADAAAAAgABAA2AAAAAgAAABwAAAAcAAAAHAAAAAAAIEEAAAABaAAAAE3PAEOw////tP///wEAAAAUAAAAEAAaAAgABwAMAAAAEAAUABAAAAAAAAABHAAAAAAAoEEcAAAAAgAAAAAACgAIAAUABgAHAAoAAAAADAD//P///wQABAAEAAAACAAIAAYABwAIAAAAAAAMAA==</value>
					</parameter>
					<parameter authoringApp="PremierePro">
					<parameterid>2</parameterid>
					<name></name>
					<IsTimeVarying>false</IsTimeVarying>
					<ParameterControlType>11</ParameterControlType>
					<LowerBound>false</LowerBound>
					<UpperBound>false</UpperBound>
					<value>-91445760000000000,false,0,0,0,0,0,0</value>
					</parameter>
					<parameter authoringApp="PremierePro">
					<parameterid>3</parameterid>
					<name></name>
					<IsTimeVarying>false</IsTimeVarying>
					<value>-91445760000000000,0.5:0.5,0,0,0,0,0,0,5,4,0,0,0,0</value>
					</parameter>
					<parameter authoringApp="PremierePro">
					<parameterid>4</parameterid>
					<name></name>
					<IsTimeVarying>false</IsTimeVarying>
					<ParameterControlType>2</ParameterControlType>
					<LowerBound>0</LowerBound>
					<UpperBound>4000</UpperBound>
					<value>-91445760000000000,100.,0,0,0,0,0,0</value>
					</parameter>
					<parameter authoringApp="PremierePro">
					<parameterid>8</parameterid>
					<name></name>
					<IsTimeVarying>false</IsTimeVarying>
					<ParameterControlType>2</ParameterControlType>
					<LowerBound>0</LowerBound>
					<UpperBound>100</UpperBound>
					<value>-91445760000000000,100.,0,0,0,0,0,0</value>
					</parameter>
					</effect>
					</filter>
					<logginginfo>
					<description></description>
					<scene></scene>
					<shottake></shottake>
					<lognote></lognote>
					<good></good>
					<originalvideofilename></originalvideofilename>
					<originalaudiofilename></originalaudiofilename>
					</logginginfo>
					<colorinfo>
					<lut></lut>
					<lut1></lut1>
					<asc_sop></asc_sop>
					<asc_sat></asc_sat>
					<lut2></lut2>
					</colorinfo>
					<labels>
					</labels>
					</clipitem>
					<clipitem frameBlend="FALSE" id="clipitem-779">
					<masterclipid>masterclip-699</masterclipid>
					<name></name>
					<enabled>TRUE</enabled>
					<duration>2582774</duration>
					<rate>
					
					                                    <timebase>60</timebase>
					                                    <ntsc>TRUE</ntsc>
					                                
					</rate>
					<start>6946</start>
					<end>7006</end>
					<in>6946</in>
					<out>7006</out>
					<pproTicksIn>914456774963789</pproTicksIn>
					<pproTicksOut>914677708529577</pproTicksOut>
					<alphatype>straight</alphatype>
					<pixelaspectratio>square</pixelaspectratio>
					<anamorphic>FALSE</anamorphic>
					<file id="file-698">
					<name></name>
					<mediaSource>GraphicAndType</mediaSource>
					<rate>
					<timebase>60</timebase>
					<ntsc>TRUE</ntsc>
					</rate>
					<timecode>
					<rate>
					<timebase>60</timebase>
					<ntsc>TRUE</ntsc>
					</rate>
					<string>00:00:00:00</string>
					<frame>0</frame>
					<displayformat>NDF</displayformat>
					</timecode>
					<media>
					<video>
					<samplecharacteristics>
					<rate>
					<timebase>60</timebase>
					<ntsc>TRUE</ntsc>
					</rate>
					<width>1080</width>
					<height>1920</height>
					<anamorphic>FALSE</anamorphic>
					<pixelaspectratio>square</pixelaspectratio>
					<fielddominance>none</fielddominance>
					</samplecharacteristics>
					</video>
					</media>
					</file>
					<filter>
					<effect>
					<name></name>
					<effectid>GraphicAndType</effectid>
					<effectcategory>graphic</effectcategory>
					<effecttype>filter</effecttype>
					<mediatype>video</mediatype>
					<pproBypass>false</pproBypass>
					<parameter authoringApp="PremierePro">
					<parameterid>1</parameterid>
					<name></name>
					<hash>025b1101-ead6-0ca2-1feb-caf3000001fc</hash>
					<value>5AEAAAAAAABEMyIRDAAAAAAABgAKAAQABgAAAGQAAAAAAF4ASAAQAAwARABAADwAOAAAAAAAAAAAADQAMwAsAAAAKAAkACAAAAAAAAAAAAAAAAAAHAAAAAAAGgAAAAAAAAAUAAAAAAAAAAAAAAAAAAAAAAAAAAgAAAAAABsABwBeAAAAAAAAAUAAAABQAAAAbAAAAAIAAAAAAAEAAQAAAAAAQEEAAMBAAABAQAAAyEIAAAABIAAAAAIAAAACAAAAAAA2QwCASkTw/v//9P7///j+//8S////AAAAAAEAAAAEAAAAEQAAAEhHUFNvZWlLYWt1cG9wdGFpAAAAAQAAAAwAAAAIAAwABAAIAAgAAAAIAAAAUAAAAA8AAADvvIEAAAAAAAAAAAAAAAAAAAA2ACQAAAAgABwAAAAAABsAFAAAAAAAAAAAAAAAAAAAAAAAAAAAABAAAAAAAAAADAAAAAgABAA2AAAAAgAAABwAAAAcAAAAHAAAAAAAIEEAAAABaAAAAE3PAEOw////tP///wEAAAAUAAAAEAAaAAgABwAMAAAAEAAUABAAAAAAAAABHAAAAAAAoEEcAAAAAgAAAAAACgAIAAUABgAHAAoAAAAADAD//P///wQABAAEAAAACAAIAAYABwAIAAAAAAAMAA==</value>
					</parameter>
					<parameter authoringApp="PremierePro">
					<parameterid>2</parameterid>
					<name></name>
					<IsTimeVarying>false</IsTimeVarying>
					<ParameterControlType>11</ParameterControlType>
					<LowerBound>false</LowerBound>
					<UpperBound>false</UpperBound>
					<value>-91445760000000000,false,0,0,0,0,0,0</value>
					</parameter>
					<parameter authoringApp="PremierePro">
					<parameterid>3</parameterid>
					<name></name>
					<IsTimeVarying>false</IsTimeVarying>
					<value>-91445760000000000,0.5:0.5,0,0,0,0,0,0,5,4,0,0,0,0</value>
					</parameter>
					<parameter authoringApp="PremierePro">
					<parameterid>4</parameterid>
					<name></name>
					<IsTimeVarying>false</IsTimeVarying>
					<ParameterControlType>2</ParameterControlType>
					<LowerBound>0</LowerBound>
					<UpperBound>4000</UpperBound>
					<value>-91445760000000000,100.,0,0,0,0,0,0</value>
					</parameter>
					<parameter authoringApp="PremierePro">
					<parameterid>8</parameterid>
					<name></name>
					<IsTimeVarying>false</IsTimeVarying>
					<ParameterControlType>2</ParameterControlType>
					<LowerBound>0</LowerBound>
					<UpperBound>100</UpperBound>
					<value>-91445760000000000,100.,0,0,0,0,0,0</value>
					</parameter>
					</effect>
					</filter>
					<logginginfo>
					<description></description>
					<scene></scene>
					<shottake></shottake>
					<lognote></lognote>
					<good></good>
					<originalvideofilename></originalvideofilename>
					<originalaudiofilename></originalaudiofilename>
					</logginginfo>
					<colorinfo>
					<lut></lut>
					<lut1></lut1>
					<asc_sop></asc_sop>
					<asc_sat></asc_sat>
					<lut2></lut2>
					</colorinfo>
					<labels>
					</labels>
					</clipitem>
					<clipitem frameBlend="FALSE" id="clipitem-787">
					<masterclipid>masterclip-707</masterclipid>
					<name></name>
					<enabled>TRUE</enabled>
					<duration>2582774</duration>
					<rate>
					
					                                    <timebase>60</timebase>
					                                    <ntsc>TRUE</ntsc>
					                                
					</rate>
					<start>7054</start>
					<end>7060</end>
					<in>7054</in>
					<out>7060</out>
					<pproTicksIn>914456774963789</pproTicksIn>
					<pproTicksOut>914677708529577</pproTicksOut>
					<alphatype>straight</alphatype>
					<pixelaspectratio>square</pixelaspectratio>
					<anamorphic>FALSE</anamorphic>
					<file id="file-706">
					<name></name>
					<mediaSource>GraphicAndType</mediaSource>
					<rate>
					<timebase>60</timebase>
					<ntsc>TRUE</ntsc>
					</rate>
					<timecode>
					<rate>
					<timebase>60</timebase>
					<ntsc>TRUE</ntsc>
					</rate>
					<string>00:00:00:00</string>
					<frame>0</frame>
					<displayformat>NDF</displayformat>
					</timecode>
					<media>
					<video>
					<samplecharacteristics>
					<rate>
					<timebase>60</timebase>
					<ntsc>TRUE</ntsc>
					</rate>
					<width>1080</width>
					<height>1920</height>
					<anamorphic>FALSE</anamorphic>
					<pixelaspectratio>square</pixelaspectratio>
					<fielddominance>none</fielddominance>
					</samplecharacteristics>
					</video>
					</media>
					</file>
					<filter>
					<effect>
					<name></name>
					<effectid>GraphicAndType</effectid>
					<effectcategory>graphic</effectcategory>
					<effecttype>filter</effecttype>
					<mediatype>video</mediatype>
					<pproBypass>false</pproBypass>
					<parameter authoringApp="PremierePro">
					<parameterid>1</parameterid>
					<name></name>
					<hash>025b1101-ead6-0ca2-1feb-caf3000001fc</hash>
					<value>5AEAAAAAAABEMyIRDAAAAAAABgAKAAQABgAAAGQAAAAAAF4ASAAQAAwARABAADwAOAAAAAAAAAAAADQAMwAsAAAAKAAkACAAAAAAAAAAAAAAAAAAHAAAAAAAGgAAAAAAAAAUAAAAAAAAAAAAAAAAAAAAAAAAAAgAAAAAABsABwBeAAAAAAAAAUAAAABQAAAAbAAAAAIAAAAAAAEAAQAAAAAAQEEAAMBAAABAQAAAyEIAAAABIAAAAAIAAAACAAAAAAA2QwCASkTw/v//9P7///j+//8S////AAAAAAEAAAAEAAAAEQAAAEhHUFNvZWlLYWt1cG9wdGFpAAAAAQAAAAwAAAAIAAwABAAIAAgAAAAIAAAAUAAAAA8AAADvvIEAAAAAAAAAAAAAAAAAAAA2ACQAAAAgABwAAAAAABsAFAAAAAAAAAAAAAAAAAAAAAAAAAAAABAAAAAAAAAADAAAAAgABAA2AAAAAgAAABwAAAAcAAAAHAAAAAAAIEEAAAABaAAAAE3PAEOw////tP///wEAAAAUAAAAEAAaAAgABwAMAAAAEAAUABAAAAAAAAABHAAAAAAAoEEcAAAAAgAAAAAACgAIAAUABgAHAAoAAAAADAD//P///wQABAAEAAAACAAIAAYABwAIAAAAAAAMAA==</value>
					</parameter>
					<parameter authoringApp="PremierePro">
					<parameterid>2</parameterid>
					<name></name>
					<IsTimeVarying>false</IsTimeVarying>
					<ParameterControlType>11</ParameterControlType>
					<LowerBound>false</LowerBound>
					<UpperBound>false</UpperBound>
					<value>-91445760000000000,false,0,0,0,0,0,0</value>
					</parameter>
					<parameter authoringApp="PremierePro">
					<parameterid>3</parameterid>
					<name></name>
					<IsTimeVarying>false</IsTimeVarying>
					<value>-91445760000000000,0.5:0.5,0,0,0,0,0,0,5,4,0,0,0,0</value>
					</parameter>
					<parameter authoringApp="PremierePro">
					<parameterid>4</parameterid>
					<name></name>
					<IsTimeVarying>false</IsTimeVarying>
					<ParameterControlType>2</ParameterControlType>
					<LowerBound>0</LowerBound>
					<UpperBound>4000</UpperBound>
					<value>-91445760000000000,100.,0,0,0,0,0,0</value>
					</parameter>
					<parameter authoringApp="PremierePro">
					<parameterid>8</parameterid>
					<name></name>
					<IsTimeVarying>false</IsTimeVarying>
					<ParameterControlType>2</ParameterControlType>
					<LowerBound>0</LowerBound>
					<UpperBound>100</UpperBound>
					<value>-91445760000000000,100.,0,0,0,0,0,0</value>
					</parameter>
					</effect>
					</filter>
					<logginginfo>
					<description></description>
					<scene></scene>
					<shottake></shottake>
					<lognote></lognote>
					<good></good>
					<originalvideofilename></originalvideofilename>
					<originalaudiofilename></originalaudiofilename>
					</logginginfo>
					<colorinfo>
					<lut></lut>
					<lut1></lut1>
					<asc_sop></asc_sop>
					<asc_sat></asc_sat>
					<lut2></lut2>
					</colorinfo>
					<labels>
					</labels>
					</clipitem>
					<enabled>TRUE</enabled>
					<locked>FALSE</locked>
				</track>
				<track TL.SQTrackShy="0" TL.SQTrackExpandedHeight="25" TL.SQTrackExpanded="0" MZ.TrackTargeted="0">
					<clipitem frameBlend="FALSE" id="clipitem-124">
					<masterclipid>masterclip-44</masterclipid>
					<name></name>
					<enabled>TRUE</enabled>
					<duration>2582774</duration>
					<rate>
					
					                                    <timebase>60</timebase>
					                                    <ntsc>TRUE</ntsc>
					                                
					</rate>
					<start>71</start>
					<end>137</end>
					<in>71</in>
					<out>137</out>
					<pproTicksIn>914456774963789</pproTicksIn>
					<pproTicksOut>914677708529577</pproTicksOut>
					<alphatype>straight</alphatype>
					<pixelaspectratio>square</pixelaspectratio>
					<anamorphic>FALSE</anamorphic>
					<file id="file-43">
					<name></name>
					<mediaSource>GraphicAndType</mediaSource>
					<rate>
					<timebase>60</timebase>
					<ntsc>TRUE</ntsc>
					</rate>
					<timecode>
					<rate>
					<timebase>60</timebase>
					<ntsc>TRUE</ntsc>
					</rate>
					<string>00:00:00:00</string>
					<frame>0</frame>
					<displayformat>NDF</displayformat>
					</timecode>
					<media>
					<video>
					<samplecharacteristics>
					<rate>
					<timebase>60</timebase>
					<ntsc>TRUE</ntsc>
					</rate>
					<width>1080</width>
					<height>1920</height>
					<anamorphic>FALSE</anamorphic>
					<pixelaspectratio>square</pixelaspectratio>
					<fielddominance>none</fielddominance>
					</samplecharacteristics>
					</video>
					</media>
					</file>
					<filter>
					<effect>
					<name></name>
					<effectid>GraphicAndType</effectid>
					<effectcategory>graphic</effectcategory>
					<effecttype>filter</effecttype>
					<mediatype>video</mediatype>
					<pproBypass>false</pproBypass>
					<parameter authoringApp="PremierePro">
					<parameterid>1</parameterid>
					<name></name>
					<hash>025b1101-ead6-0ca2-1feb-caf3000001fc</hash>
					<value>5AEAAAAAAABEMyIRDAAAAAAABgAKAAQABgAAAGQAAAAAAF4ASAAQAAwARABAADwAOAAAAAAAAAAAADQAMwAsAAAAKAAkACAAAAAAAAAAAAAAAAAAHAAAAAAAGgAAAAAAAAAUAAAAAAAAAAAAAAAAAAAAAAAAAAgAAAAAABsABwBeAAAAAAAAAUAAAABQAAAAbAAAAAIAAAAAAAEAAQAAAAAAQEEAAMBAAABAQAAAyEIAAAABIAAAAAIAAAACAAAAAAA2QwCASkTw/v//9P7///j+//8S////AAAAAAEAAAAEAAAAEQAAAEhHUFNvZWlLYWt1cG9wdGFpAAAAAQAAAAwAAAAIAAwABAAIAAgAAAAIAAAAUAAAAA8AAADvvIEAAAAAAAAAAAAAAAAAAAA2ACQAAAAgABwAAAAAABsAFAAAAAAAAAAAAAAAAAAAAAAAAAAAABAAAAAAAAAADAAAAAgABAA2AAAAAgAAABwAAAAcAAAAHAAAAAAAIEEAAAABaAAAAE3PAEOw////tP///wEAAAAUAAAAEAAaAAgABwAMAAAAEAAUABAAAAAAAAABHAAAAAAAoEEcAAAAAgAAAAAACgAIAAUABgAHAAoAAAAADAD//P///wQABAAEAAAACAAIAAYABwAIAAAAAAAMAA==</value>
					</parameter>
					<parameter authoringApp="PremierePro">
					<parameterid>2</parameterid>
					<name></name>
					<IsTimeVarying>false</IsTimeVarying>
					<ParameterControlType>11</ParameterControlType>
					<LowerBound>false</LowerBound>
					<UpperBound>false</UpperBound>
					<value>-91445760000000000,false,0,0,0,0,0,0</value>
					</parameter>
					<parameter authoringApp="PremierePro">
					<parameterid>3</parameterid>
					<name></name>
					<IsTimeVarying>false</IsTimeVarying>
					<value>-91445760000000000,0.5:0.5,0,0,0,0,0,0,5,4,0,0,0,0</value>
					</parameter>
					<parameter authoringApp="PremierePro">
					<parameterid>4</parameterid>
					<name></name>
					<IsTimeVarying>false</IsTimeVarying>
					<ParameterControlType>2</ParameterControlType>
					<LowerBound>0</LowerBound>
					<UpperBound>4000</UpperBound>
					<value>-91445760000000000,100.,0,0,0,0,0,0</value>
					</parameter>
					<parameter authoringApp="PremierePro">
					<parameterid>8</parameterid>
					<name></name>
					<IsTimeVarying>false</IsTimeVarying>
					<ParameterControlType>2</ParameterControlType>
					<LowerBound>0</LowerBound>
					<UpperBound>100</UpperBound>
					<value>-91445760000000000,100.,0,0,0,0,0,0</value>
					</parameter>
					</effect>
					</filter>
					<logginginfo>
					<description></description>
					<scene></scene>
					<shottake></shottake>
					<lognote></lognote>
					<good></good>
					<originalvideofilename></originalvideofilename>
					<originalaudiofilename></originalaudiofilename>
					</logginginfo>
					<colorinfo>
					<lut></lut>
					<lut1></lut1>
					<asc_sop></asc_sop>
					<asc_sat></asc_sat>
					<lut2></lut2>
					</colorinfo>
					<labels>
					</labels>
					</clipitem>
					<clipitem frameBlend="FALSE" id="clipitem-131">
					<masterclipid>masterclip-51</masterclipid>
					<name></name>
					<enabled>TRUE</enabled>
					<duration>2582774</duration>
					<rate>
					
					                                    <timebase>60</timebase>
					                                    <ntsc>TRUE</ntsc>
					                                
					</rate>
					<start>143</start>
					<end>203</end>
					<in>143</in>
					<out>203</out>
					<pproTicksIn>914456774963789</pproTicksIn>
					<pproTicksOut>914677708529577</pproTicksOut>
					<alphatype>straight</alphatype>
					<pixelaspectratio>square</pixelaspectratio>
					<anamorphic>FALSE</anamorphic>
					<file id="file-50">
					<name></name>
					<mediaSource>GraphicAndType</mediaSource>
					<rate>
					<timebase>60</timebase>
					<ntsc>TRUE</ntsc>
					</rate>
					<timecode>
					<rate>
					<timebase>60</timebase>
					<ntsc>TRUE</ntsc>
					</rate>
					<string>00:00:00:00</string>
					<frame>0</frame>
					<displayformat>NDF</displayformat>
					</timecode>
					<media>
					<video>
					<samplecharacteristics>
					<rate>
					<timebase>60</timebase>
					<ntsc>TRUE</ntsc>
					</rate>
					<width>1080</width>
					<height>1920</height>
					<anamorphic>FALSE</anamorphic>
					<pixelaspectratio>square</pixelaspectratio>
					<fielddominance>none</fielddominance>
					</samplecharacteristics>
					</video>
					</media>
					</file>
					<filter>
					<effect>
					<name></name>
					<effectid>GraphicAndType</effectid>
					<effectcategory>graphic</effectcategory>
					<effecttype>filter</effecttype>
					<mediatype>video</mediatype>
					<pproBypass>false</pproBypass>
					<parameter authoringApp="PremierePro">
					<parameterid>1</parameterid>
					<name></name>
					<hash>025b1101-ead6-0ca2-1feb-caf3000001fc</hash>
					<value>5AEAAAAAAABEMyIRDAAAAAAABgAKAAQABgAAAGQAAAAAAF4ASAAQAAwARABAADwAOAAAAAAAAAAAADQAMwAsAAAAKAAkACAAAAAAAAAAAAAAAAAAHAAAAAAAGgAAAAAAAAAUAAAAAAAAAAAAAAAAAAAAAAAAAAgAAAAAABsABwBeAAAAAAAAAUAAAABQAAAAbAAAAAIAAAAAAAEAAQAAAAAAQEEAAMBAAABAQAAAyEIAAAABIAAAAAIAAAACAAAAAAA2QwCASkTw/v//9P7///j+//8S////AAAAAAEAAAAEAAAAEQAAAEhHUFNvZWlLYWt1cG9wdGFpAAAAAQAAAAwAAAAIAAwABAAIAAgAAAAIAAAAUAAAAA8AAADvvIEAAAAAAAAAAAAAAAAAAAA2ACQAAAAgABwAAAAAABsAFAAAAAAAAAAAAAAAAAAAAAAAAAAAABAAAAAAAAAADAAAAAgABAA2AAAAAgAAABwAAAAcAAAAHAAAAAAAIEEAAAABaAAAAE3PAEOw////tP///wEAAAAUAAAAEAAaAAgABwAMAAAAEAAUABAAAAAAAAABHAAAAAAAoEEcAAAAAgAAAAAACgAIAAUABgAHAAoAAAAADAD//P///wQABAAEAAAACAAIAAYABwAIAAAAAAAMAA==</value>
					</parameter>
					<parameter authoringApp="PremierePro">
					<parameterid>2</parameterid>
					<name></name>
					<IsTimeVarying>false</IsTimeVarying>
					<ParameterControlType>11</ParameterControlType>
					<LowerBound>false</LowerBound>
					<UpperBound>false</UpperBound>
					<value>-91445760000000000,false,0,0,0,0,0,0</value>
					</parameter>
					<parameter authoringApp="PremierePro">
					<parameterid>3</parameterid>
					<name></name>
					<IsTimeVarying>false</IsTimeVarying>
					<value>-91445760000000000,0.5:0.5,0,0,0,0,0,0,5,4,0,0,0,0</value>
					</parameter>
					<parameter authoringApp="PremierePro">
					<parameterid>4</parameterid>
					<name></name>
					<IsTimeVarying>false</IsTimeVarying>
					<ParameterControlType>2</ParameterControlType>
					<LowerBound>0</LowerBound>
					<UpperBound>4000</UpperBound>
					<value>-91445760000000000,100.,0,0,0,0,0,0</value>
					</parameter>
					<parameter authoringApp="PremierePro">
					<parameterid>8</parameterid>
					<name></name>
					<IsTimeVarying>false</IsTimeVarying>
					<ParameterControlType>2</ParameterControlType>
					<LowerBound>0</LowerBound>
					<UpperBound>100</UpperBound>
					<value>-91445760000000000,100.,0,0,0,0,0,0</value>
					</parameter>
					</effect>
					</filter>
					<logginginfo>
					<description></description>
					<scene></scene>
					<shottake></shottake>
					<lognote></lognote>
					<good></good>
					<originalvideofilename></originalvideofilename>
					<originalaudiofilename></originalaudiofilename>
					</logginginfo>
					<colorinfo>
					<lut></lut>
					<lut1></lut1>
					<asc_sop></asc_sop>
					<asc_sat></asc_sat>
					<lut2></lut2>
					</colorinfo>
					<labels>
					</labels>
					</clipitem>
					<clipitem frameBlend="FALSE" id="clipitem-138">
					<masterclipid>masterclip-58</masterclipid>
					<name></name>
					<enabled>TRUE</enabled>
					<duration>2582774</duration>
					<rate>
					
					                                    <timebase>60</timebase>
					                                    <ntsc>TRUE</ntsc>
					                                
					</rate>
					<start>245</start>
					<end>305</end>
					<in>245</in>
					<out>305</out>
					<pproTicksIn>914456774963789</pproTicksIn>
					<pproTicksOut>914677708529577</pproTicksOut>
					<alphatype>straight</alphatype>
					<pixelaspectratio>square</pixelaspectratio>
					<anamorphic>FALSE</anamorphic>
					<file id="file-57">
					<name></name>
					<mediaSource>GraphicAndType</mediaSource>
					<rate>
					<timebase>60</timebase>
					<ntsc>TRUE</ntsc>
					</rate>
					<timecode>
					<rate>
					<timebase>60</timebase>
					<ntsc>TRUE</ntsc>
					</rate>
					<string>00:00:00:00</string>
					<frame>0</frame>
					<displayformat>NDF</displayformat>
					</timecode>
					<media>
					<video>
					<samplecharacteristics>
					<rate>
					<timebase>60</timebase>
					<ntsc>TRUE</ntsc>
					</rate>
					<width>1080</width>
					<height>1920</height>
					<anamorphic>FALSE</anamorphic>
					<pixelaspectratio>square</pixelaspectratio>
					<fielddominance>none</fielddominance>
					</samplecharacteristics>
					</video>
					</media>
					</file>
					<filter>
					<effect>
					<name></name>
					<effectid>GraphicAndType</effectid>
					<effectcategory>graphic</effectcategory>
					<effecttype>filter</effecttype>
					<mediatype>video</mediatype>
					<pproBypass>false</pproBypass>
					<parameter authoringApp="PremierePro">
					<parameterid>1</parameterid>
					<name></name>
					<hash>025b1101-ead6-0ca2-1feb-caf3000001fc</hash>
					<value>5AEAAAAAAABEMyIRDAAAAAAABgAKAAQABgAAAGQAAAAAAF4ASAAQAAwARABAADwAOAAAAAAAAAAAADQAMwAsAAAAKAAkACAAAAAAAAAAAAAAAAAAHAAAAAAAGgAAAAAAAAAUAAAAAAAAAAAAAAAAAAAAAAAAAAgAAAAAABsABwBeAAAAAAAAAUAAAABQAAAAbAAAAAIAAAAAAAEAAQAAAAAAQEEAAMBAAABAQAAAyEIAAAABIAAAAAIAAAACAAAAAAA2QwCASkTw/v//9P7///j+//8S////AAAAAAEAAAAEAAAAEQAAAEhHUFNvZWlLYWt1cG9wdGFpAAAAAQAAAAwAAAAIAAwABAAIAAgAAAAIAAAAUAAAAA8AAADvvIEAAAAAAAAAAAAAAAAAAAA2ACQAAAAgABwAAAAAABsAFAAAAAAAAAAAAAAAAAAAAAAAAAAAABAAAAAAAAAADAAAAAgABAA2AAAAAgAAABwAAAAcAAAAHAAAAAAAIEEAAAABaAAAAE3PAEOw////tP///wEAAAAUAAAAEAAaAAgABwAMAAAAEAAUABAAAAAAAAABHAAAAAAAoEEcAAAAAgAAAAAACgAIAAUABgAHAAoAAAAADAD//P///wQABAAEAAAACAAIAAYABwAIAAAAAAAMAA==</value>
					</parameter>
					<parameter authoringApp="PremierePro">
					<parameterid>2</parameterid>
					<name></name>
					<IsTimeVarying>false</IsTimeVarying>
					<ParameterControlType>11</ParameterControlType>
					<LowerBound>false</LowerBound>
					<UpperBound>false</UpperBound>
					<value>-91445760000000000,false,0,0,0,0,0,0</value>
					</parameter>
					<parameter authoringApp="PremierePro">
					<parameterid>3</parameterid>
					<name></name>
					<IsTimeVarying>false</IsTimeVarying>
					<value>-91445760000000000,0.5:0.5,0,0,0,0,0,0,5,4,0,0,0,0</value>
					</parameter>
					<parameter authoringApp="PremierePro">
					<parameterid>4</parameterid>
					<name></name>
					<IsTimeVarying>false</IsTimeVarying>
					<ParameterControlType>2</ParameterControlType>
					<LowerBound>0</LowerBound>
					<UpperBound>4000</UpperBound>
					<value>-91445760000000000,100.,0,0,0,0,0,0</value>
					</parameter>
					<parameter authoringApp="PremierePro">
					<parameterid>8</parameterid>
					<name></name>
					<IsTimeVarying>false</IsTimeVarying>
					<ParameterControlType>2</ParameterControlType>
					<LowerBound>0</LowerBound>
					<UpperBound>100</UpperBound>
					<value>-91445760000000000,100.,0,0,0,0,0,0</value>
					</parameter>
					</effect>
					</filter>
					<logginginfo>
					<description></description>
					<scene></scene>
					<shottake></shottake>
					<lognote></lognote>
					<good></good>
					<originalvideofilename></originalvideofilename>
					<originalaudiofilename></originalaudiofilename>
					</logginginfo>
					<colorinfo>
					<lut></lut>
					<lut1></lut1>
					<asc_sop></asc_sop>
					<asc_sat></asc_sat>
					<lut2></lut2>
					</colorinfo>
					<labels>
					</labels>
					</clipitem>
					<clipitem frameBlend="FALSE" id="clipitem-146">
					<masterclipid>masterclip-66</masterclipid>
					<name></name>
					<enabled>TRUE</enabled>
					<duration>2582774</duration>
					<rate>
					
					                                    <timebase>60</timebase>
					                                    <ntsc>TRUE</ntsc>
					                                
					</rate>
					<start>323</start>
					<end>383</end>
					<in>323</in>
					<out>383</out>
					<pproTicksIn>914456774963789</pproTicksIn>
					<pproTicksOut>914677708529577</pproTicksOut>
					<alphatype>straight</alphatype>
					<pixelaspectratio>square</pixelaspectratio>
					<anamorphic>FALSE</anamorphic>
					<file id="file-65">
					<name></name>
					<mediaSource>GraphicAndType</mediaSource>
					<rate>
					<timebase>60</timebase>
					<ntsc>TRUE</ntsc>
					</rate>
					<timecode>
					<rate>
					<timebase>60</timebase>
					<ntsc>TRUE</ntsc>
					</rate>
					<string>00:00:00:00</string>
					<frame>0</frame>
					<displayformat>NDF</displayformat>
					</timecode>
					<media>
					<video>
					<samplecharacteristics>
					<rate>
					<timebase>60</timebase>
					<ntsc>TRUE</ntsc>
					</rate>
					<width>1080</width>
					<height>1920</height>
					<anamorphic>FALSE</anamorphic>
					<pixelaspectratio>square</pixelaspectratio>
					<fielddominance>none</fielddominance>
					</samplecharacteristics>
					</video>
					</media>
					</file>
					<filter>
					<effect>
					<name></name>
					<effectid>GraphicAndType</effectid>
					<effectcategory>graphic</effectcategory>
					<effecttype>filter</effecttype>
					<mediatype>video</mediatype>
					<pproBypass>false</pproBypass>
					<parameter authoringApp="PremierePro">
					<parameterid>1</parameterid>
					<name></name>
					<hash>025b1101-ead6-0ca2-1feb-caf3000001fc</hash>
					<value>5AEAAAAAAABEMyIRDAAAAAAABgAKAAQABgAAAGQAAAAAAF4ASAAQAAwARABAADwAOAAAAAAAAAAAADQAMwAsAAAAKAAkACAAAAAAAAAAAAAAAAAAHAAAAAAAGgAAAAAAAAAUAAAAAAAAAAAAAAAAAAAAAAAAAAgAAAAAABsABwBeAAAAAAAAAUAAAABQAAAAbAAAAAIAAAAAAAEAAQAAAAAAQEEAAMBAAABAQAAAyEIAAAABIAAAAAIAAAACAAAAAAA2QwCASkTw/v//9P7///j+//8S////AAAAAAEAAAAEAAAAEQAAAEhHUFNvZWlLYWt1cG9wdGFpAAAAAQAAAAwAAAAIAAwABAAIAAgAAAAIAAAAUAAAAA8AAADvvIEAAAAAAAAAAAAAAAAAAAA2ACQAAAAgABwAAAAAABsAFAAAAAAAAAAAAAAAAAAAAAAAAAAAABAAAAAAAAAADAAAAAgABAA2AAAAAgAAABwAAAAcAAAAHAAAAAAAIEEAAAABaAAAAE3PAEOw////tP///wEAAAAUAAAAEAAaAAgABwAMAAAAEAAUABAAAAAAAAABHAAAAAAAoEEcAAAAAgAAAAAACgAIAAUABgAHAAoAAAAADAD//P///wQABAAEAAAACAAIAAYABwAIAAAAAAAMAA==</value>
					</parameter>
					<parameter authoringApp="PremierePro">
					<parameterid>2</parameterid>
					<name></name>
					<IsTimeVarying>false</IsTimeVarying>
					<ParameterControlType>11</ParameterControlType>
					<LowerBound>false</LowerBound>
					<UpperBound>false</UpperBound>
					<value>-91445760000000000,false,0,0,0,0,0,0</value>
					</parameter>
					<parameter authoringApp="PremierePro">
					<parameterid>3</parameterid>
					<name></name>
					<IsTimeVarying>false</IsTimeVarying>
					<value>-91445760000000000,0.5:0.5,0,0,0,0,0,0,5,4,0,0,0,0</value>
					</parameter>
					<parameter authoringApp="PremierePro">
					<parameterid>4</parameterid>
					<name></name>
					<IsTimeVarying>false</IsTimeVarying>
					<ParameterControlType>2</ParameterControlType>
					<LowerBound>0</LowerBound>
					<UpperBound>4000</UpperBound>
					<value>-91445760000000000,100.,0,0,0,0,0,0</value>
					</parameter>
					<parameter authoringApp="PremierePro">
					<parameterid>8</parameterid>
					<name></name>
					<IsTimeVarying>false</IsTimeVarying>
					<ParameterControlType>2</ParameterControlType>
					<LowerBound>0</LowerBound>
					<UpperBound>100</UpperBound>
					<value>-91445760000000000,100.,0,0,0,0,0,0</value>
					</parameter>
					</effect>
					</filter>
					<logginginfo>
					<description></description>
					<scene></scene>
					<shottake></shottake>
					<lognote></lognote>
					<good></good>
					<originalvideofilename></originalvideofilename>
					<originalaudiofilename></originalaudiofilename>
					</logginginfo>
					<colorinfo>
					<lut></lut>
					<lut1></lut1>
					<asc_sop></asc_sop>
					<asc_sat></asc_sat>
					<lut2></lut2>
					</colorinfo>
					<labels>
					</labels>
					</clipitem>
					<clipitem frameBlend="FALSE" id="clipitem-152">
					<masterclipid>masterclip-72</masterclipid>
					<name></name>
					<enabled>TRUE</enabled>
					<duration>2582774</duration>
					<rate>
					
					                                    <timebase>60</timebase>
					                                    <ntsc>TRUE</ntsc>
					                                
					</rate>
					<start>383</start>
					<end>449</end>
					<in>383</in>
					<out>449</out>
					<pproTicksIn>914456774963789</pproTicksIn>
					<pproTicksOut>914677708529577</pproTicksOut>
					<alphatype>straight</alphatype>
					<pixelaspectratio>square</pixelaspectratio>
					<anamorphic>FALSE</anamorphic>
					<file id="file-71">
					<name></name>
					<mediaSource>GraphicAndType</mediaSource>
					<rate>
					<timebase>60</timebase>
					<ntsc>TRUE</ntsc>
					</rate>
					<timecode>
					<rate>
					<timebase>60</timebase>
					<ntsc>TRUE</ntsc>
					</rate>
					<string>00:00:00:00</string>
					<frame>0</frame>
					<displayformat>NDF</displayformat>
					</timecode>
					<media>
					<video>
					<samplecharacteristics>
					<rate>
					<timebase>60</timebase>
					<ntsc>TRUE</ntsc>
					</rate>
					<width>1080</width>
					<height>1920</height>
					<anamorphic>FALSE</anamorphic>
					<pixelaspectratio>square</pixelaspectratio>
					<fielddominance>none</fielddominance>
					</samplecharacteristics>
					</video>
					</media>
					</file>
					<filter>
					<effect>
					<name></name>
					<effectid>GraphicAndType</effectid>
					<effectcategory>graphic</effectcategory>
					<effecttype>filter</effecttype>
					<mediatype>video</mediatype>
					<pproBypass>false</pproBypass>
					<parameter authoringApp="PremierePro">
					<parameterid>1</parameterid>
					<name></name>
					<hash>025b1101-ead6-0ca2-1feb-caf3000001fc</hash>
					<value>5AEAAAAAAABEMyIRDAAAAAAABgAKAAQABgAAAGQAAAAAAF4ASAAQAAwARABAADwAOAAAAAAAAAAAADQAMwAsAAAAKAAkACAAAAAAAAAAAAAAAAAAHAAAAAAAGgAAAAAAAAAUAAAAAAAAAAAAAAAAAAAAAAAAAAgAAAAAABsABwBeAAAAAAAAAUAAAABQAAAAbAAAAAIAAAAAAAEAAQAAAAAAQEEAAMBAAABAQAAAyEIAAAABIAAAAAIAAAACAAAAAAA2QwCASkTw/v//9P7///j+//8S////AAAAAAEAAAAEAAAAEQAAAEhHUFNvZWlLYWt1cG9wdGFpAAAAAQAAAAwAAAAIAAwABAAIAAgAAAAIAAAAUAAAAA8AAADvvIEAAAAAAAAAAAAAAAAAAAA2ACQAAAAgABwAAAAAABsAFAAAAAAAAAAAAAAAAAAAAAAAAAAAABAAAAAAAAAADAAAAAgABAA2AAAAAgAAABwAAAAcAAAAHAAAAAAAIEEAAAABaAAAAE3PAEOw////tP///wEAAAAUAAAAEAAaAAgABwAMAAAAEAAUABAAAAAAAAABHAAAAAAAoEEcAAAAAgAAAAAACgAIAAUABgAHAAoAAAAADAD//P///wQABAAEAAAACAAIAAYABwAIAAAAAAAMAA==</value>
					</parameter>
					<parameter authoringApp="PremierePro">
					<parameterid>2</parameterid>
					<name></name>
					<IsTimeVarying>false</IsTimeVarying>
					<ParameterControlType>11</ParameterControlType>
					<LowerBound>false</LowerBound>
					<UpperBound>false</UpperBound>
					<value>-91445760000000000,false,0,0,0,0,0,0</value>
					</parameter>
					<parameter authoringApp="PremierePro">
					<parameterid>3</parameterid>
					<name></name>
					<IsTimeVarying>false</IsTimeVarying>
					<value>-91445760000000000,0.5:0.5,0,0,0,0,0,0,5,4,0,0,0,0</value>
					</parameter>
					<parameter authoringApp="PremierePro">
					<parameterid>4</parameterid>
					<name></name>
					<IsTimeVarying>false</IsTimeVarying>
					<ParameterControlType>2</ParameterControlType>
					<LowerBound>0</LowerBound>
					<UpperBound>4000</UpperBound>
					<value>-91445760000000000,100.,0,0,0,0,0,0</value>
					</parameter>
					<parameter authoringApp="PremierePro">
					<parameterid>8</parameterid>
					<name></name>
					<IsTimeVarying>false</IsTimeVarying>
					<ParameterControlType>2</ParameterControlType>
					<LowerBound>0</LowerBound>
					<UpperBound>100</UpperBound>
					<value>-91445760000000000,100.,0,0,0,0,0,0</value>
					</parameter>
					</effect>
					</filter>
					<logginginfo>
					<description></description>
					<scene></scene>
					<shottake></shottake>
					<lognote></lognote>
					<good></good>
					<originalvideofilename></originalvideofilename>
					<originalaudiofilename></originalaudiofilename>
					</logginginfo>
					<colorinfo>
					<lut></lut>
					<lut1></lut1>
					<asc_sop></asc_sop>
					<asc_sat></asc_sat>
					<lut2></lut2>
					</colorinfo>
					<labels>
					</labels>
					</clipitem>
					<clipitem id="clipitem-159"/>
					                        </track>
					                        <track TL.SQTrackShy="0" TL.SQTrackExpandedHeight="25" TL.SQTrackExpanded="0" MZ.TrackTargeted="0">
					<clipitem frameBlend="FALSE" id="clipitem-160">
					<masterclipid>masterclip-80</masterclipid>
					<name></name>
					<enabled>TRUE</enabled>
					<duration>2582774</duration>
					<rate>
					
					                                    <timebase>60</timebase>
					                                    <ntsc>TRUE</ntsc>
					                                
					</rate>
					<start>485</start>
					<end>545</end>
					<in>485</in>
					<out>545</out>
					<pproTicksIn>914456774963789</pproTicksIn>
					<pproTicksOut>914677708529577</pproTicksOut>
					<alphatype>straight</alphatype>
					<pixelaspectratio>square</pixelaspectratio>
					<anamorphic>FALSE</anamorphic>
					<file id="file-79">
					<name></name>
					<mediaSource>GraphicAndType</mediaSource>
					<rate>
					<timebase>60</timebase>
					<ntsc>TRUE</ntsc>
					</rate>
					<timecode>
					<rate>
					<timebase>60</timebase>
					<ntsc>TRUE</ntsc>
					</rate>
					<string>00:00:00:00</string>
					<frame>0</frame>
					<displayformat>NDF</displayformat>
					</timecode>
					<media>
					<video>
					<samplecharacteristics>
					<rate>
					<timebase>60</timebase>
					<ntsc>TRUE</ntsc>
					</rate>
					<width>1080</width>
					<height>1920</height>
					<anamorphic>FALSE</anamorphic>
					<pixelaspectratio>square</pixelaspectratio>
					<fielddominance>none</fielddominance>
					</samplecharacteristics>
					</video>
					</media>
					</file>
					<filter>
					<effect>
					<name></name>
					<effectid>GraphicAndType</effectid>
					<effectcategory>graphic</effectcategory>
					<effecttype>filter</effecttype>
					<mediatype>video</mediatype>
					<pproBypass>false</pproBypass>
					<parameter authoringApp="PremierePro">
					<parameterid>1</parameterid>
					<name></name>
					<hash>025b1101-ead6-0ca2-1feb-caf3000001fc</hash>
					<value>5AEAAAAAAABEMyIRDAAAAAAABgAKAAQABgAAAGQAAAAAAF4ASAAQAAwARABAADwAOAAAAAAAAAAAADQAMwAsAAAAKAAkACAAAAAAAAAAAAAAAAAAHAAAAAAAGgAAAAAAAAAUAAAAAAAAAAAAAAAAAAAAAAAAAAgAAAAAABsABwBeAAAAAAAAAUAAAABQAAAAbAAAAAIAAAAAAAEAAQAAAAAAQEEAAMBAAABAQAAAyEIAAAABIAAAAAIAAAACAAAAAAA2QwCASkTw/v//9P7///j+//8S////AAAAAAEAAAAEAAAAEQAAAEhHUFNvZWlLYWt1cG9wdGFpAAAAAQAAAAwAAAAIAAwABAAIAAgAAAAIAAAAUAAAAA8AAADvvIEAAAAAAAAAAAAAAAAAAAA2ACQAAAAgABwAAAAAABsAFAAAAAAAAAAAAAAAAAAAAAAAAAAAABAAAAAAAAAADAAAAAgABAA2AAAAAgAAABwAAAAcAAAAHAAAAAAAIEEAAAABaAAAAE3PAEOw////tP///wEAAAAUAAAAEAAaAAgABwAMAAAAEAAUABAAAAAAAAABHAAAAAAAoEEcAAAAAgAAAAAACgAIAAUABgAHAAoAAAAADAD//P///wQABAAEAAAACAAIAAYABwAIAAAAAAAMAA==</value>
					</parameter>
					<parameter authoringApp="PremierePro">
					<parameterid>2</parameterid>
					<name></name>
					<IsTimeVarying>false</IsTimeVarying>
					<ParameterControlType>11</ParameterControlType>
					<LowerBound>false</LowerBound>
					<UpperBound>false</UpperBound>
					<value>-91445760000000000,false,0,0,0,0,0,0</value>
					</parameter>
					<parameter authoringApp="PremierePro">
					<parameterid>3</parameterid>
					<name></name>
					<IsTimeVarying>false</IsTimeVarying>
					<value>-91445760000000000,0.5:0.5,0,0,0,0,0,0,5,4,0,0,0,0</value>
					</parameter>
					<parameter authoringApp="PremierePro">
					<parameterid>4</parameterid>
					<name></name>
					<IsTimeVarying>false</IsTimeVarying>
					<ParameterControlType>2</ParameterControlType>
					<LowerBound>0</LowerBound>
					<UpperBound>4000</UpperBound>
					<value>-91445760000000000,100.,0,0,0,0,0,0</value>
					</parameter>
					<parameter authoringApp="PremierePro">
					<parameterid>8</parameterid>
					<name></name>
					<IsTimeVarying>false</IsTimeVarying>
					<ParameterControlType>2</ParameterControlType>
					<LowerBound>0</LowerBound>
					<UpperBound>100</UpperBound>
					<value>-91445760000000000,100.,0,0,0,0,0,0</value>
					</parameter>
					</effect>
					</filter>
					<logginginfo>
					<description></description>
					<scene></scene>
					<shottake></shottake>
					<lognote></lognote>
					<good></good>
					<originalvideofilename></originalvideofilename>
					<originalaudiofilename></originalaudiofilename>
					</logginginfo>
					<colorinfo>
					<lut></lut>
					<lut1></lut1>
					<asc_sop></asc_sop>
					<asc_sat></asc_sat>
					<lut2></lut2>
					</colorinfo>
					<labels>
					</labels>
					</clipitem>
					<clipitem frameBlend="FALSE" id="clipitem-167">
					<masterclipid>masterclip-87</masterclipid>
					<name></name>
					<enabled>TRUE</enabled>
					<duration>2582774</duration>
					<rate>
					
					                                    <timebase>60</timebase>
					                                    <ntsc>TRUE</ntsc>
					                                
					</rate>
					<start>545</start>
					<end>605</end>
					<in>545</in>
					<out>605</out>
					<pproTicksIn>914456774963789</pproTicksIn>
					<pproTicksOut>914677708529577</pproTicksOut>
					<alphatype>straight</alphatype>
					<pixelaspectratio>square</pixelaspectratio>
					<anamorphic>FALSE</anamorphic>
					<file id="file-86">
					<name></name>
					<mediaSource>GraphicAndType</mediaSource>
					<rate>
					<timebase>60</timebase>
					<ntsc>TRUE</ntsc>
					</rate>
					<timecode>
					<rate>
					<timebase>60</timebase>
					<ntsc>TRUE</ntsc>
					</rate>
					<string>00:00:00:00</string>
					<frame>0</frame>
					<displayformat>NDF</displayformat>
					</timecode>
					<media>
					<video>
					<samplecharacteristics>
					<rate>
					<timebase>60</timebase>
					<ntsc>TRUE</ntsc>
					</rate>
					<width>1080</width>
					<height>1920</height>
					<anamorphic>FALSE</anamorphic>
					<pixelaspectratio>square</pixelaspectratio>
					<fielddominance>none</fielddominance>
					</samplecharacteristics>
					</video>
					</media>
					</file>
					<filter>
					<effect>
					<name></name>
					<effectid>GraphicAndType</effectid>
					<effectcategory>graphic</effectcategory>
					<effecttype>filter</effecttype>
					<mediatype>video</mediatype>
					<pproBypass>false</pproBypass>
					<parameter authoringApp="PremierePro">
					<parameterid>1</parameterid>
					<name></name>
					<hash>025b1101-ead6-0ca2-1feb-caf3000001fc</hash>
					<value>5AEAAAAAAABEMyIRDAAAAAAABgAKAAQABgAAAGQAAAAAAF4ASAAQAAwARABAADwAOAAAAAAAAAAAADQAMwAsAAAAKAAkACAAAAAAAAAAAAAAAAAAHAAAAAAAGgAAAAAAAAAUAAAAAAAAAAAAAAAAAAAAAAAAAAgAAAAAABsABwBeAAAAAAAAAUAAAABQAAAAbAAAAAIAAAAAAAEAAQAAAAAAQEEAAMBAAABAQAAAyEIAAAABIAAAAAIAAAACAAAAAAA2QwCASkTw/v//9P7///j+//8S////AAAAAAEAAAAEAAAAEQAAAEhHUFNvZWlLYWt1cG9wdGFpAAAAAQAAAAwAAAAIAAwABAAIAAgAAAAIAAAAUAAAAA8AAADvvIEAAAAAAAAAAAAAAAAAAAA2ACQAAAAgABwAAAAAABsAFAAAAAAAAAAAAAAAAAAAAAAAAAAAABAAAAAAAAAADAAAAAgABAA2AAAAAgAAABwAAAAcAAAAHAAAAAAAIEEAAAABaAAAAE3PAEOw////tP///wEAAAAUAAAAEAAaAAgABwAMAAAAEAAUABAAAAAAAAABHAAAAAAAoEEcAAAAAgAAAAAACgAIAAUABgAHAAoAAAAADAD//P///wQABAAEAAAACAAIAAYABwAIAAAAAAAMAA==</value>
					</parameter>
					<parameter authoringApp="PremierePro">
					<parameterid>2</parameterid>
					<name></name>
					<IsTimeVarying>false</IsTimeVarying>
					<ParameterControlType>11</ParameterControlType>
					<LowerBound>false</LowerBound>
					<UpperBound>false</UpperBound>
					<value>-91445760000000000,false,0,0,0,0,0,0</value>
					</parameter>
					<parameter authoringApp="PremierePro">
					<parameterid>3</parameterid>
					<name></name>
					<IsTimeVarying>false</IsTimeVarying>
					<value>-91445760000000000,0.5:0.5,0,0,0,0,0,0,5,4,0,0,0,0</value>
					</parameter>
					<parameter authoringApp="PremierePro">
					<parameterid>4</parameterid>
					<name></name>
					<IsTimeVarying>false</IsTimeVarying>
					<ParameterControlType>2</ParameterControlType>
					<LowerBound>0</LowerBound>
					<UpperBound>4000</UpperBound>
					<value>-91445760000000000,100.,0,0,0,0,0,0</value>
					</parameter>
					<parameter authoringApp="PremierePro">
					<parameterid>8</parameterid>
					<name></name>
					<IsTimeVarying>false</IsTimeVarying>
					<ParameterControlType>2</ParameterControlType>
					<LowerBound>0</LowerBound>
					<UpperBound>100</UpperBound>
					<value>-91445760000000000,100.,0,0,0,0,0,0</value>
					</parameter>
					</effect>
					</filter>
					<logginginfo>
					<description></description>
					<scene></scene>
					<shottake></shottake>
					<lognote></lognote>
					<good></good>
					<originalvideofilename></originalvideofilename>
					<originalaudiofilename></originalaudiofilename>
					</logginginfo>
					<colorinfo>
					<lut></lut>
					<lut1></lut1>
					<asc_sop></asc_sop>
					<asc_sat></asc_sat>
					<lut2></lut2>
					</colorinfo>
					<labels>
					</labels>
					</clipitem>
					<clipitem frameBlend="FALSE" id="clipitem-176">
					<masterclipid>masterclip-96</masterclipid>
					<name></name>
					<enabled>TRUE</enabled>
					<duration>2582774</duration>
					<rate>
					
					                                    <timebase>60</timebase>
					                                    <ntsc>TRUE</ntsc>
					                                
					</rate>
					<start>605</start>
					<end>665</end>
					<in>605</in>
					<out>665</out>
					<pproTicksIn>914456774963789</pproTicksIn>
					<pproTicksOut>914677708529577</pproTicksOut>
					<alphatype>straight</alphatype>
					<pixelaspectratio>square</pixelaspectratio>
					<anamorphic>FALSE</anamorphic>
					<file id="file-95">
					<name></name>
					<mediaSource>GraphicAndType</mediaSource>
					<rate>
					<timebase>60</timebase>
					<ntsc>TRUE</ntsc>
					</rate>
					<timecode>
					<rate>
					<timebase>60</timebase>
					<ntsc>TRUE</ntsc>
					</rate>
					<string>00:00:00:00</string>
					<frame>0</frame>
					<displayformat>NDF</displayformat>
					</timecode>
					<media>
					<video>
					<samplecharacteristics>
					<rate>
					<timebase>60</timebase>
					<ntsc>TRUE</ntsc>
					</rate>
					<width>1080</width>
					<height>1920</height>
					<anamorphic>FALSE</anamorphic>
					<pixelaspectratio>square</pixelaspectratio>
					<fielddominance>none</fielddominance>
					</samplecharacteristics>
					</video>
					</media>
					</file>
					<filter>
					<effect>
					<name></name>
					<effectid>GraphicAndType</effectid>
					<effectcategory>graphic</effectcategory>
					<effecttype>filter</effecttype>
					<mediatype>video</mediatype>
					<pproBypass>false</pproBypass>
					<parameter authoringApp="PremierePro">
					<parameterid>1</parameterid>
					<name></name>
					<hash>025b1101-ead6-0ca2-1feb-caf3000001fc</hash>
					<value>5AEAAAAAAABEMyIRDAAAAAAABgAKAAQABgAAAGQAAAAAAF4ASAAQAAwARABAADwAOAAAAAAAAAAAADQAMwAsAAAAKAAkACAAAAAAAAAAAAAAAAAAHAAAAAAAGgAAAAAAAAAUAAAAAAAAAAAAAAAAAAAAAAAAAAgAAAAAABsABwBeAAAAAAAAAUAAAABQAAAAbAAAAAIAAAAAAAEAAQAAAAAAQEEAAMBAAABAQAAAyEIAAAABIAAAAAIAAAACAAAAAAA2QwCASkTw/v//9P7///j+//8S////AAAAAAEAAAAEAAAAEQAAAEhHUFNvZWlLYWt1cG9wdGFpAAAAAQAAAAwAAAAIAAwABAAIAAgAAAAIAAAAUAAAAA8AAADvvIEAAAAAAAAAAAAAAAAAAAA2ACQAAAAgABwAAAAAABsAFAAAAAAAAAAAAAAAAAAAAAAAAAAAABAAAAAAAAAADAAAAAgABAA2AAAAAgAAABwAAAAcAAAAHAAAAAAAIEEAAAABaAAAAE3PAEOw////tP///wEAAAAUAAAAEAAaAAgABwAMAAAAEAAUABAAAAAAAAABHAAAAAAAoEEcAAAAAgAAAAAACgAIAAUABgAHAAoAAAAADAD//P///wQABAAEAAAACAAIAAYABwAIAAAAAAAMAA==</value>
					</parameter>
					<parameter authoringApp="PremierePro">
					<parameterid>2</parameterid>
					<name></name>
					<IsTimeVarying>false</IsTimeVarying>
					<ParameterControlType>11</ParameterControlType>
					<LowerBound>false</LowerBound>
					<UpperBound>false</UpperBound>
					<value>-91445760000000000,false,0,0,0,0,0,0</value>
					</parameter>
					<parameter authoringApp="PremierePro">
					<parameterid>3</parameterid>
					<name></name>
					<IsTimeVarying>false</IsTimeVarying>
					<value>-91445760000000000,0.5:0.5,0,0,0,0,0,0,5,4,0,0,0,0</value>
					</parameter>
					<parameter authoringApp="PremierePro">
					<parameterid>4</parameterid>
					<name></name>
					<IsTimeVarying>false</IsTimeVarying>
					<ParameterControlType>2</ParameterControlType>
					<LowerBound>0</LowerBound>
					<UpperBound>4000</UpperBound>
					<value>-91445760000000000,100.,0,0,0,0,0,0</value>
					</parameter>
					<parameter authoringApp="PremierePro">
					<parameterid>8</parameterid>
					<name></name>
					<IsTimeVarying>false</IsTimeVarying>
					<ParameterControlType>2</ParameterControlType>
					<LowerBound>0</LowerBound>
					<UpperBound>100</UpperBound>
					<value>-91445760000000000,100.,0,0,0,0,0,0</value>
					</parameter>
					</effect>
					</filter>
					<logginginfo>
					<description></description>
					<scene></scene>
					<shottake></shottake>
					<lognote></lognote>
					<good></good>
					<originalvideofilename></originalvideofilename>
					<originalaudiofilename></originalaudiofilename>
					</logginginfo>
					<colorinfo>
					<lut></lut>
					<lut1></lut1>
					<asc_sop></asc_sop>
					<asc_sat></asc_sat>
					<lut2></lut2>
					</colorinfo>
					<labels>
					</labels>
					</clipitem>
					<clipitem frameBlend="FALSE" id="clipitem-184">
					<masterclipid>masterclip-104</masterclipid>
					<name></name>
					<enabled>TRUE</enabled>
					<duration>2582774</duration>
					<rate>
					
					                                    <timebase>60</timebase>
					                                    <ntsc>TRUE</ntsc>
					                                
					</rate>
					<start>671</start>
					<end>731</end>
					<in>671</in>
					<out>731</out>
					<pproTicksIn>914456774963789</pproTicksIn>
					<pproTicksOut>914677708529577</pproTicksOut>
					<alphatype>straight</alphatype>
					<pixelaspectratio>square</pixelaspectratio>
					<anamorphic>FALSE</anamorphic>
					<file id="file-103">
					<name></name>
					<mediaSource>GraphicAndType</mediaSource>
					<rate>
					<timebase>60</timebase>
					<ntsc>TRUE</ntsc>
					</rate>
					<timecode>
					<rate>
					<timebase>60</timebase>
					<ntsc>TRUE</ntsc>
					</rate>
					<string>00:00:00:00</string>
					<frame>0</frame>
					<displayformat>NDF</displayformat>
					</timecode>
					<media>
					<video>
					<samplecharacteristics>
					<rate>
					<timebase>60</timebase>
					<ntsc>TRUE</ntsc>
					</rate>
					<width>1080</width>
					<height>1920</height>
					<anamorphic>FALSE</anamorphic>
					<pixelaspectratio>square</pixelaspectratio>
					<fielddominance>none</fielddominance>
					</samplecharacteristics>
					</video>
					</media>
					</file>
					<filter>
					<effect>
					<name></name>
					<effectid>GraphicAndType</effectid>
					<effectcategory>graphic</effectcategory>
					<effecttype>filter</effecttype>
					<mediatype>video</mediatype>
					<pproBypass>false</pproBypass>
					<parameter authoringApp="PremierePro">
					<parameterid>1</parameterid>
					<name></name>
					<hash>025b1101-ead6-0ca2-1feb-caf3000001fc</hash>
					<value>5AEAAAAAAABEMyIRDAAAAAAABgAKAAQABgAAAGQAAAAAAF4ASAAQAAwARABAADwAOAAAAAAAAAAAADQAMwAsAAAAKAAkACAAAAAAAAAAAAAAAAAAHAAAAAAAGgAAAAAAAAAUAAAAAAAAAAAAAAAAAAAAAAAAAAgAAAAAABsABwBeAAAAAAAAAUAAAABQAAAAbAAAAAIAAAAAAAEAAQAAAAAAQEEAAMBAAABAQAAAyEIAAAABIAAAAAIAAAACAAAAAAA2QwCASkTw/v//9P7///j+//8S////AAAAAAEAAAAEAAAAEQAAAEhHUFNvZWlLYWt1cG9wdGFpAAAAAQAAAAwAAAAIAAwABAAIAAgAAAAIAAAAUAAAAA8AAADvvIEAAAAAAAAAAAAAAAAAAAA2ACQAAAAgABwAAAAAABsAFAAAAAAAAAAAAAAAAAAAAAAAAAAAABAAAAAAAAAADAAAAAgABAA2AAAAAgAAABwAAAAcAAAAHAAAAAAAIEEAAAABaAAAAE3PAEOw////tP///wEAAAAUAAAAEAAaAAgABwAMAAAAEAAUABAAAAAAAAABHAAAAAAAoEEcAAAAAgAAAAAACgAIAAUABgAHAAoAAAAADAD//P///wQABAAEAAAACAAIAAYABwAIAAAAAAAMAA==</value>
					</parameter>
					<parameter authoringApp="PremierePro">
					<parameterid>2</parameterid>
					<name></name>
					<IsTimeVarying>false</IsTimeVarying>
					<ParameterControlType>11</ParameterControlType>
					<LowerBound>false</LowerBound>
					<UpperBound>false</UpperBound>
					<value>-91445760000000000,false,0,0,0,0,0,0</value>
					</parameter>
					<parameter authoringApp="PremierePro">
					<parameterid>3</parameterid>
					<name></name>
					<IsTimeVarying>false</IsTimeVarying>
					<value>-91445760000000000,0.5:0.5,0,0,0,0,0,0,5,4,0,0,0,0</value>
					</parameter>
					<parameter authoringApp="PremierePro">
					<parameterid>4</parameterid>
					<name></name>
					<IsTimeVarying>false</IsTimeVarying>
					<ParameterControlType>2</ParameterControlType>
					<LowerBound>0</LowerBound>
					<UpperBound>4000</UpperBound>
					<value>-91445760000000000,100.,0,0,0,0,0,0</value>
					</parameter>
					<parameter authoringApp="PremierePro">
					<parameterid>8</parameterid>
					<name></name>
					<IsTimeVarying>false</IsTimeVarying>
					<ParameterControlType>2</ParameterControlType>
					<LowerBound>0</LowerBound>
					<UpperBound>100</UpperBound>
					<value>-91445760000000000,100.,0,0,0,0,0,0</value>
					</parameter>
					</effect>
					</filter>
					<logginginfo>
					<description></description>
					<scene></scene>
					<shottake></shottake>
					<lognote></lognote>
					<good></good>
					<originalvideofilename></originalvideofilename>
					<originalaudiofilename></originalaudiofilename>
					</logginginfo>
					<colorinfo>
					<lut></lut>
					<lut1></lut1>
					<asc_sop></asc_sop>
					<asc_sat></asc_sat>
					<lut2></lut2>
					</colorinfo>
					<labels>
					</labels>
					</clipitem>
					<clipitem id="clipitem-191"/>
					                        </track>
					                        <track TL.SQTrackShy="0" TL.SQTrackExpandedHeight="25" TL.SQTrackExpanded="0" MZ.TrackTargeted="0">
					<clipitem frameBlend="FALSE" id="clipitem-192">
					<masterclipid>masterclip-112</masterclipid>
					<name></name>
					<enabled>TRUE</enabled>
					<duration>2582774</duration>
					<rate>
					
					                                    <timebase>60</timebase>
					                                    <ntsc>TRUE</ntsc>
					                                
					</rate>
					<start>749</start>
					<end>809</end>
					<in>749</in>
					<out>809</out>
					<pproTicksIn>914456774963789</pproTicksIn>
					<pproTicksOut>914677708529577</pproTicksOut>
					<alphatype>straight</alphatype>
					<pixelaspectratio>square</pixelaspectratio>
					<anamorphic>FALSE</anamorphic>
					<file id="file-111">
					<name></name>
					<mediaSource>GraphicAndType</mediaSource>
					<rate>
					<timebase>60</timebase>
					<ntsc>TRUE</ntsc>
					</rate>
					<timecode>
					<rate>
					<timebase>60</timebase>
					<ntsc>TRUE</ntsc>
					</rate>
					<string>00:00:00:00</string>
					<frame>0</frame>
					<displayformat>NDF</displayformat>
					</timecode>
					<media>
					<video>
					<samplecharacteristics>
					<rate>
					<timebase>60</timebase>
					<ntsc>TRUE</ntsc>
					</rate>
					<width>1080</width>
					<height>1920</height>
					<anamorphic>FALSE</anamorphic>
					<pixelaspectratio>square</pixelaspectratio>
					<fielddominance>none</fielddominance>
					</samplecharacteristics>
					</video>
					</media>
					</file>
					<filter>
					<effect>
					<name></name>
					<effectid>GraphicAndType</effectid>
					<effectcategory>graphic</effectcategory>
					<effecttype>filter</effecttype>
					<mediatype>video</mediatype>
					<pproBypass>false</pproBypass>
					<parameter authoringApp="PremierePro">
					<parameterid>1</parameterid>
					<name></name>
					<hash>025b1101-ead6-0ca2-1feb-caf3000001fc</hash>
					<value>5AEAAAAAAABEMyIRDAAAAAAABgAKAAQABgAAAGQAAAAAAF4ASAAQAAwARABAADwAOAAAAAAAAAAAADQAMwAsAAAAKAAkACAAAAAAAAAAAAAAAAAAHAAAAAAAGgAAAAAAAAAUAAAAAAAAAAAAAAAAAAAAAAAAAAgAAAAAABsABwBeAAAAAAAAAUAAAABQAAAAbAAAAAIAAAAAAAEAAQAAAAAAQEEAAMBAAABAQAAAyEIAAAABIAAAAAIAAAACAAAAAAA2QwCASkTw/v//9P7///j+//8S////AAAAAAEAAAAEAAAAEQAAAEhHUFNvZWlLYWt1cG9wdGFpAAAAAQAAAAwAAAAIAAwABAAIAAgAAAAIAAAAUAAAAA8AAADvvIEAAAAAAAAAAAAAAAAAAAA2ACQAAAAgABwAAAAAABsAFAAAAAAAAAAAAAAAAAAAAAAAAAAAABAAAAAAAAAADAAAAAgABAA2AAAAAgAAABwAAAAcAAAAHAAAAAAAIEEAAAABaAAAAE3PAEOw////tP///wEAAAAUAAAAEAAaAAgABwAMAAAAEAAUABAAAAAAAAABHAAAAAAAoEEcAAAAAgAAAAAACgAIAAUABgAHAAoAAAAADAD//P///wQABAAEAAAACAAIAAYABwAIAAAAAAAMAA==</value>
					</parameter>
					<parameter authoringApp="PremierePro">
					<parameterid>2</parameterid>
					<name></name>
					<IsTimeVarying>false</IsTimeVarying>
					<ParameterControlType>11</ParameterControlType>
					<LowerBound>false</LowerBound>
					<UpperBound>false</UpperBound>
					<value>-91445760000000000,false,0,0,0,0,0,0</value>
					</parameter>
					<parameter authoringApp="PremierePro">
					<parameterid>3</parameterid>
					<name></name>
					<IsTimeVarying>false</IsTimeVarying>
					<value>-91445760000000000,0.5:0.5,0,0,0,0,0,0,5,4,0,0,0,0</value>
					</parameter>
					<parameter authoringApp="PremierePro">
					<parameterid>4</parameterid>
					<name></name>
					<IsTimeVarying>false</IsTimeVarying>
					<ParameterControlType>2</ParameterControlType>
					<LowerBound>0</LowerBound>
					<UpperBound>4000</UpperBound>
					<value>-91445760000000000,100.,0,0,0,0,0,0</value>
					</parameter>
					<parameter authoringApp="PremierePro">
					<parameterid>8</parameterid>
					<name></name>
					<IsTimeVarying>false</IsTimeVarying>
					<ParameterControlType>2</ParameterControlType>
					<LowerBound>0</LowerBound>
					<UpperBound>100</UpperBound>
					<value>-91445760000000000,100.,0,0,0,0,0,0</value>
					</parameter>
					</effect>
					</filter>
					<logginginfo>
					<description></description>
					<scene></scene>
					<shottake></shottake>
					<lognote></lognote>
					<good></good>
					<originalvideofilename></originalvideofilename>
					<originalaudiofilename></originalaudiofilename>
					</logginginfo>
					<colorinfo>
					<lut></lut>
					<lut1></lut1>
					<asc_sop></asc_sop>
					<asc_sat></asc_sat>
					<lut2></lut2>
					</colorinfo>
					<labels>
					</labels>
					</clipitem>
					<clipitem frameBlend="FALSE" id="clipitem-199">
					<masterclipid>masterclip-119</masterclipid>
					<name></name>
					<enabled>TRUE</enabled>
					<duration>2582774</duration>
					<rate>
					
					                                    <timebase>60</timebase>
					                                    <ntsc>TRUE</ntsc>
					                                
					</rate>
					<start>815</start>
					<end>875</end>
					<in>815</in>
					<out>875</out>
					<pproTicksIn>914456774963789</pproTicksIn>
					<pproTicksOut>914677708529577</pproTicksOut>
					<alphatype>straight</alphatype>
					<pixelaspectratio>square</pixelaspectratio>
					<anamorphic>FALSE</anamorphic>
					<file id="file-118">
					<name></name>
					<mediaSource>GraphicAndType</mediaSource>
					<rate>
					<timebase>60</timebase>
					<ntsc>TRUE</ntsc>
					</rate>
					<timecode>
					<rate>
					<timebase>60</timebase>
					<ntsc>TRUE</ntsc>
					</rate>
					<string>00:00:00:00</string>
					<frame>0</frame>
					<displayformat>NDF</displayformat>
					</timecode>
					<media>
					<video>
					<samplecharacteristics>
					<rate>
					<timebase>60</timebase>
					<ntsc>TRUE</ntsc>
					</rate>
					<width>1080</width>
					<height>1920</height>
					<anamorphic>FALSE</anamorphic>
					<pixelaspectratio>square</pixelaspectratio>
					<fielddominance>none</fielddominance>
					</samplecharacteristics>
					</video>
					</media>
					</file>
					<filter>
					<effect>
					<name></name>
					<effectid>GraphicAndType</effectid>
					<effectcategory>graphic</effectcategory>
					<effecttype>filter</effecttype>
					<mediatype>video</mediatype>
					<pproBypass>false</pproBypass>
					<parameter authoringApp="PremierePro">
					<parameterid>1</parameterid>
					<name></name>
					<hash>025b1101-ead6-0ca2-1feb-caf3000001fc</hash>
					<value>5AEAAAAAAABEMyIRDAAAAAAABgAKAAQABgAAAGQAAAAAAF4ASAAQAAwARABAADwAOAAAAAAAAAAAADQAMwAsAAAAKAAkACAAAAAAAAAAAAAAAAAAHAAAAAAAGgAAAAAAAAAUAAAAAAAAAAAAAAAAAAAAAAAAAAgAAAAAABsABwBeAAAAAAAAAUAAAABQAAAAbAAAAAIAAAAAAAEAAQAAAAAAQEEAAMBAAABAQAAAyEIAAAABIAAAAAIAAAACAAAAAAA2QwCASkTw/v//9P7///j+//8S////AAAAAAEAAAAEAAAAEQAAAEhHUFNvZWlLYWt1cG9wdGFpAAAAAQAAAAwAAAAIAAwABAAIAAgAAAAIAAAAUAAAAA8AAADvvIEAAAAAAAAAAAAAAAAAAAA2ACQAAAAgABwAAAAAABsAFAAAAAAAAAAAAAAAAAAAAAAAAAAAABAAAAAAAAAADAAAAAgABAA2AAAAAgAAABwAAAAcAAAAHAAAAAAAIEEAAAABaAAAAE3PAEOw////tP///wEAAAAUAAAAEAAaAAgABwAMAAAAEAAUABAAAAAAAAABHAAAAAAAoEEcAAAAAgAAAAAACgAIAAUABgAHAAoAAAAADAD//P///wQABAAEAAAACAAIAAYABwAIAAAAAAAMAA==</value>
					</parameter>
					<parameter authoringApp="PremierePro">
					<parameterid>2</parameterid>
					<name></name>
					<IsTimeVarying>false</IsTimeVarying>
					<ParameterControlType>11</ParameterControlType>
					<LowerBound>false</LowerBound>
					<UpperBound>false</UpperBound>
					<value>-91445760000000000,false,0,0,0,0,0,0</value>
					</parameter>
					<parameter authoringApp="PremierePro">
					<parameterid>3</parameterid>
					<name></name>
					<IsTimeVarying>false</IsTimeVarying>
					<value>-91445760000000000,0.5:0.5,0,0,0,0,0,0,5,4,0,0,0,0</value>
					</parameter>
					<parameter authoringApp="PremierePro">
					<parameterid>4</parameterid>
					<name></name>
					<IsTimeVarying>false</IsTimeVarying>
					<ParameterControlType>2</ParameterControlType>
					<LowerBound>0</LowerBound>
					<UpperBound>4000</UpperBound>
					<value>-91445760000000000,100.,0,0,0,0,0,0</value>
					</parameter>
					<parameter authoringApp="PremierePro">
					<parameterid>8</parameterid>
					<name></name>
					<IsTimeVarying>false</IsTimeVarying>
					<ParameterControlType>2</ParameterControlType>
					<LowerBound>0</LowerBound>
					<UpperBound>100</UpperBound>
					<value>-91445760000000000,100.,0,0,0,0,0,0</value>
					</parameter>
					</effect>
					</filter>
					<logginginfo>
					<description></description>
					<scene></scene>
					<shottake></shottake>
					<lognote></lognote>
					<good></good>
					<originalvideofilename></originalvideofilename>
					<originalaudiofilename></originalaudiofilename>
					</logginginfo>
					<colorinfo>
					<lut></lut>
					<lut1></lut1>
					<asc_sop></asc_sop>
					<asc_sat></asc_sat>
					<lut2></lut2>
					</colorinfo>
					<labels>
					</labels>
					</clipitem>
					<clipitem frameBlend="FALSE" id="clipitem-208">
					<masterclipid>masterclip-128</masterclipid>
					<name></name>
					<enabled>TRUE</enabled>
					<duration>2582774</duration>
					<rate>
					
					                                    <timebase>60</timebase>
					                                    <ntsc>TRUE</ntsc>
					                                
					</rate>
					<start>875</start>
					<end>935</end>
					<in>875</in>
					<out>935</out>
					<pproTicksIn>914456774963789</pproTicksIn>
					<pproTicksOut>914677708529577</pproTicksOut>
					<alphatype>straight</alphatype>
					<pixelaspectratio>square</pixelaspectratio>
					<anamorphic>FALSE</anamorphic>
					<file id="file-127">
					<name></name>
					<mediaSource>GraphicAndType</mediaSource>
					<rate>
					<timebase>60</timebase>
					<ntsc>TRUE</ntsc>
					</rate>
					<timecode>
					<rate>
					<timebase>60</timebase>
					<ntsc>TRUE</ntsc>
					</rate>
					<string>00:00:00:00</string>
					<frame>0</frame>
					<displayformat>NDF</displayformat>
					</timecode>
					<media>
					<video>
					<samplecharacteristics>
					<rate>
					<timebase>60</timebase>
					<ntsc>TRUE</ntsc>
					</rate>
					<width>1080</width>
					<height>1920</height>
					<anamorphic>FALSE</anamorphic>
					<pixelaspectratio>square</pixelaspectratio>
					<fielddominance>none</fielddominance>
					</samplecharacteristics>
					</video>
					</media>
					</file>
					<filter>
					<effect>
					<name></name>
					<effectid>GraphicAndType</effectid>
					<effectcategory>graphic</effectcategory>
					<effecttype>filter</effecttype>
					<mediatype>video</mediatype>
					<pproBypass>false</pproBypass>
					<parameter authoringApp="PremierePro">
					<parameterid>1</parameterid>
					<name></name>
					<hash>025b1101-ead6-0ca2-1feb-caf3000001fc</hash>
					<value>5AEAAAAAAABEMyIRDAAAAAAABgAKAAQABgAAAGQAAAAAAF4ASAAQAAwARABAADwAOAAAAAAAAAAAADQAMwAsAAAAKAAkACAAAAAAAAAAAAAAAAAAHAAAAAAAGgAAAAAAAAAUAAAAAAAAAAAAAAAAAAAAAAAAAAgAAAAAABsABwBeAAAAAAAAAUAAAABQAAAAbAAAAAIAAAAAAAEAAQAAAAAAQEEAAMBAAABAQAAAyEIAAAABIAAAAAIAAAACAAAAAAA2QwCASkTw/v//9P7///j+//8S////AAAAAAEAAAAEAAAAEQAAAEhHUFNvZWlLYWt1cG9wdGFpAAAAAQAAAAwAAAAIAAwABAAIAAgAAAAIAAAAUAAAAA8AAADvvIEAAAAAAAAAAAAAAAAAAAA2ACQAAAAgABwAAAAAABsAFAAAAAAAAAAAAAAAAAAAAAAAAAAAABAAAAAAAAAADAAAAAgABAA2AAAAAgAAABwAAAAcAAAAHAAAAAAAIEEAAAABaAAAAE3PAEOw////tP///wEAAAAUAAAAEAAaAAgABwAMAAAAEAAUABAAAAAAAAABHAAAAAAAoEEcAAAAAgAAAAAACgAIAAUABgAHAAoAAAAADAD//P///wQABAAEAAAACAAIAAYABwAIAAAAAAAMAA==</value>
					</parameter>
					<parameter authoringApp="PremierePro">
					<parameterid>2</parameterid>
					<name></name>
					<IsTimeVarying>false</IsTimeVarying>
					<ParameterControlType>11</ParameterControlType>
					<LowerBound>false</LowerBound>
					<UpperBound>false</UpperBound>
					<value>-91445760000000000,false,0,0,0,0,0,0</value>
					</parameter>
					<parameter authoringApp="PremierePro">
					<parameterid>3</parameterid>
					<name></name>
					<IsTimeVarying>false</IsTimeVarying>
					<value>-91445760000000000,0.5:0.5,0,0,0,0,0,0,5,4,0,0,0,0</value>
					</parameter>
					<parameter authoringApp="PremierePro">
					<parameterid>4</parameterid>
					<name></name>
					<IsTimeVarying>false</IsTimeVarying>
					<ParameterControlType>2</ParameterControlType>
					<LowerBound>0</LowerBound>
					<UpperBound>4000</UpperBound>
					<value>-91445760000000000,100.,0,0,0,0,0,0</value>
					</parameter>
					<parameter authoringApp="PremierePro">
					<parameterid>8</parameterid>
					<name></name>
					<IsTimeVarying>false</IsTimeVarying>
					<ParameterControlType>2</ParameterControlType>
					<LowerBound>0</LowerBound>
					<UpperBound>100</UpperBound>
					<value>-91445760000000000,100.,0,0,0,0,0,0</value>
					</parameter>
					</effect>
					</filter>
					<logginginfo>
					<description></description>
					<scene></scene>
					<shottake></shottake>
					<lognote></lognote>
					<good></good>
					<originalvideofilename></originalvideofilename>
					<originalaudiofilename></originalaudiofilename>
					</logginginfo>
					<colorinfo>
					<lut></lut>
					<lut1></lut1>
					<asc_sop></asc_sop>
					<asc_sat></asc_sat>
					<lut2></lut2>
					</colorinfo>
					<labels>
					</labels>
					</clipitem>
					<clipitem frameBlend="FALSE" id="clipitem-216">
					<masterclipid>masterclip-136</masterclipid>
					<name></name>
					<enabled>TRUE</enabled>
					<duration>2582774</duration>
					<rate>
					
					                                    <timebase>60</timebase>
					                                    <ntsc>TRUE</ntsc>
					                                
					</rate>
					<start>935</start>
					<end>1001</end>
					<in>935</in>
					<out>1001</out>
					<pproTicksIn>914456774963789</pproTicksIn>
					<pproTicksOut>914677708529577</pproTicksOut>
					<alphatype>straight</alphatype>
					<pixelaspectratio>square</pixelaspectratio>
					<anamorphic>FALSE</anamorphic>
					<file id="file-135">
					<name></name>
					<mediaSource>GraphicAndType</mediaSource>
					<rate>
					<timebase>60</timebase>
					<ntsc>TRUE</ntsc>
					</rate>
					<timecode>
					<rate>
					<timebase>60</timebase>
					<ntsc>TRUE</ntsc>
					</rate>
					<string>00:00:00:00</string>
					<frame>0</frame>
					<displayformat>NDF</displayformat>
					</timecode>
					<media>
					<video>
					<samplecharacteristics>
					<rate>
					<timebase>60</timebase>
					<ntsc>TRUE</ntsc>
					</rate>
					<width>1080</width>
					<height>1920</height>
					<anamorphic>FALSE</anamorphic>
					<pixelaspectratio>square</pixelaspectratio>
					<fielddominance>none</fielddominance>
					</samplecharacteristics>
					</video>
					</media>
					</file>
					<filter>
					<effect>
					<name></name>
					<effectid>GraphicAndType</effectid>
					<effectcategory>graphic</effectcategory>
					<effecttype>filter</effecttype>
					<mediatype>video</mediatype>
					<pproBypass>false</pproBypass>
					<parameter authoringApp="PremierePro">
					<parameterid>1</parameterid>
					<name></name>
					<hash>025b1101-ead6-0ca2-1feb-caf3000001fc</hash>
					<value>5AEAAAAAAABEMyIRDAAAAAAABgAKAAQABgAAAGQAAAAAAF4ASAAQAAwARABAADwAOAAAAAAAAAAAADQAMwAsAAAAKAAkACAAAAAAAAAAAAAAAAAAHAAAAAAAGgAAAAAAAAAUAAAAAAAAAAAAAAAAAAAAAAAAAAgAAAAAABsABwBeAAAAAAAAAUAAAABQAAAAbAAAAAIAAAAAAAEAAQAAAAAAQEEAAMBAAABAQAAAyEIAAAABIAAAAAIAAAACAAAAAAA2QwCASkTw/v//9P7///j+//8S////AAAAAAEAAAAEAAAAEQAAAEhHUFNvZWlLYWt1cG9wdGFpAAAAAQAAAAwAAAAIAAwABAAIAAgAAAAIAAAAUAAAAA8AAADvvIEAAAAAAAAAAAAAAAAAAAA2ACQAAAAgABwAAAAAABsAFAAAAAAAAAAAAAAAAAAAAAAAAAAAABAAAAAAAAAADAAAAAgABAA2AAAAAgAAABwAAAAcAAAAHAAAAAAAIEEAAAABaAAAAE3PAEOw////tP///wEAAAAUAAAAEAAaAAgABwAMAAAAEAAUABAAAAAAAAABHAAAAAAAoEEcAAAAAgAAAAAACgAIAAUABgAHAAoAAAAADAD//P///wQABAAEAAAACAAIAAYABwAIAAAAAAAMAA==</value>
					</parameter>
					<parameter authoringApp="PremierePro">
					<parameterid>2</parameterid>
					<name></name>
					<IsTimeVarying>false</IsTimeVarying>
					<ParameterControlType>11</ParameterControlType>
					<LowerBound>false</LowerBound>
					<UpperBound>false</UpperBound>
					<value>-91445760000000000,false,0,0,0,0,0,0</value>
					</parameter>
					<parameter authoringApp="PremierePro">
					<parameterid>3</parameterid>
					<name></name>
					<IsTimeVarying>false</IsTimeVarying>
					<value>-91445760000000000,0.5:0.5,0,0,0,0,0,0,5,4,0,0,0,0</value>
					</parameter>
					<parameter authoringApp="PremierePro">
					<parameterid>4</parameterid>
					<name></name>
					<IsTimeVarying>false</IsTimeVarying>
					<ParameterControlType>2</ParameterControlType>
					<LowerBound>0</LowerBound>
					<UpperBound>4000</UpperBound>
					<value>-91445760000000000,100.,0,0,0,0,0,0</value>
					</parameter>
					<parameter authoringApp="PremierePro">
					<parameterid>8</parameterid>
					<name></name>
					<IsTimeVarying>false</IsTimeVarying>
					<ParameterControlType>2</ParameterControlType>
					<LowerBound>0</LowerBound>
					<UpperBound>100</UpperBound>
					<value>-91445760000000000,100.,0,0,0,0,0,0</value>
					</parameter>
					</effect>
					</filter>
					<logginginfo>
					<description></description>
					<scene></scene>
					<shottake></shottake>
					<lognote></lognote>
					<good></good>
					<originalvideofilename></originalvideofilename>
					<originalaudiofilename></originalaudiofilename>
					</logginginfo>
					<colorinfo>
					<lut></lut>
					<lut1></lut1>
					<asc_sop></asc_sop>
					<asc_sat></asc_sat>
					<lut2></lut2>
					</colorinfo>
					<labels>
					</labels>
					</clipitem>
					<clipitem frameBlend="FALSE" id="clipitem-232">
					<masterclipid>masterclip-152</masterclipid>
					<name></name>
					<enabled>TRUE</enabled>
					<duration>2582774</duration>
					<rate>
					
					                                    <timebase>60</timebase>
					                                    <ntsc>TRUE</ntsc>
					                                
					</rate>
					<start>1025</start>
					<end>1085</end>
					<in>1025</in>
					<out>1085</out>
					<pproTicksIn>914456774963789</pproTicksIn>
					<pproTicksOut>914677708529577</pproTicksOut>
					<alphatype>straight</alphatype>
					<pixelaspectratio>square</pixelaspectratio>
					<anamorphic>FALSE</anamorphic>
					<file id="file-151">
					<name></name>
					<mediaSource>GraphicAndType</mediaSource>
					<rate>
					<timebase>60</timebase>
					<ntsc>TRUE</ntsc>
					</rate>
					<timecode>
					<rate>
					<timebase>60</timebase>
					<ntsc>TRUE</ntsc>
					</rate>
					<string>00:00:00:00</string>
					<frame>0</frame>
					<displayformat>NDF</displayformat>
					</timecode>
					<media>
					<video>
					<samplecharacteristics>
					<rate>
					<timebase>60</timebase>
					<ntsc>TRUE</ntsc>
					</rate>
					<width>1080</width>
					<height>1920</height>
					<anamorphic>FALSE</anamorphic>
					<pixelaspectratio>square</pixelaspectratio>
					<fielddominance>none</fielddominance>
					</samplecharacteristics>
					</video>
					</media>
					</file>
					<filter>
					<effect>
					<name></name>
					<effectid>GraphicAndType</effectid>
					<effectcategory>graphic</effectcategory>
					<effecttype>filter</effecttype>
					<mediatype>video</mediatype>
					<pproBypass>false</pproBypass>
					<parameter authoringApp="PremierePro">
					<parameterid>1</parameterid>
					<name></name>
					<hash>025b1101-ead6-0ca2-1feb-caf3000001fc</hash>
					<value>5AEAAAAAAABEMyIRDAAAAAAABgAKAAQABgAAAGQAAAAAAF4ASAAQAAwARABAADwAOAAAAAAAAAAAADQAMwAsAAAAKAAkACAAAAAAAAAAAAAAAAAAHAAAAAAAGgAAAAAAAAAUAAAAAAAAAAAAAAAAAAAAAAAAAAgAAAAAABsABwBeAAAAAAAAAUAAAABQAAAAbAAAAAIAAAAAAAEAAQAAAAAAQEEAAMBAAABAQAAAyEIAAAABIAAAAAIAAAACAAAAAAA2QwCASkTw/v//9P7///j+//8S////AAAAAAEAAAAEAAAAEQAAAEhHUFNvZWlLYWt1cG9wdGFpAAAAAQAAAAwAAAAIAAwABAAIAAgAAAAIAAAAUAAAAA8AAADvvIEAAAAAAAAAAAAAAAAAAAA2ACQAAAAgABwAAAAAABsAFAAAAAAAAAAAAAAAAAAAAAAAAAAAABAAAAAAAAAADAAAAAgABAA2AAAAAgAAABwAAAAcAAAAHAAAAAAAIEEAAAABaAAAAE3PAEOw////tP///wEAAAAUAAAAEAAaAAgABwAMAAAAEAAUABAAAAAAAAABHAAAAAAAoEEcAAAAAgAAAAAACgAIAAUABgAHAAoAAAAADAD//P///wQABAAEAAAACAAIAAYABwAIAAAAAAAMAA==</value>
					</parameter>
					<parameter authoringApp="PremierePro">
					<parameterid>2</parameterid>
					<name></name>
					<IsTimeVarying>false</IsTimeVarying>
					<ParameterControlType>11</ParameterControlType>
					<LowerBound>false</LowerBound>
					<UpperBound>false</UpperBound>
					<value>-91445760000000000,false,0,0,0,0,0,0</value>
					</parameter>
					<parameter authoringApp="PremierePro">
					<parameterid>3</parameterid>
					<name></name>
					<IsTimeVarying>false</IsTimeVarying>
					<value>-91445760000000000,0.5:0.5,0,0,0,0,0,0,5,4,0,0,0,0</value>
					</parameter>
					<parameter authoringApp="PremierePro">
					<parameterid>4</parameterid>
					<name></name>
					<IsTimeVarying>false</IsTimeVarying>
					<ParameterControlType>2</ParameterControlType>
					<LowerBound>0</LowerBound>
					<UpperBound>4000</UpperBound>
					<value>-91445760000000000,100.,0,0,0,0,0,0</value>
					</parameter>
					<parameter authoringApp="PremierePro">
					<parameterid>8</parameterid>
					<name></name>
					<IsTimeVarying>false</IsTimeVarying>
					<ParameterControlType>2</ParameterControlType>
					<LowerBound>0</LowerBound>
					<UpperBound>100</UpperBound>
					<value>-91445760000000000,100.,0,0,0,0,0,0</value>
					</parameter>
					</effect>
					</filter>
					<logginginfo>
					<description></description>
					<scene></scene>
					<shottake></shottake>
					<lognote></lognote>
					<good></good>
					<originalvideofilename></originalvideofilename>
					<originalaudiofilename></originalaudiofilename>
					</logginginfo>
					<colorinfo>
					<lut></lut>
					<lut1></lut1>
					<asc_sop></asc_sop>
					<asc_sat></asc_sat>
					<lut2></lut2>
					</colorinfo>
					<labels>
					</labels>
					</clipitem>
					<clipitem frameBlend="FALSE" id="clipitem-243">
					<masterclipid>masterclip-163</masterclipid>
					<name></name>
					<enabled>TRUE</enabled>
					<duration>2582774</duration>
					<rate>
					
					                                    <timebase>60</timebase>
					                                    <ntsc>TRUE</ntsc>
					                                
					</rate>
					<start>1115</start>
					<end>1175</end>
					<in>1115</in>
					<out>1175</out>
					<pproTicksIn>914456774963789</pproTicksIn>
					<pproTicksOut>914677708529577</pproTicksOut>
					<alphatype>straight</alphatype>
					<pixelaspectratio>square</pixelaspectratio>
					<anamorphic>FALSE</anamorphic>
					<file id="file-162">
					<name></name>
					<mediaSource>GraphicAndType</mediaSource>
					<rate>
					<timebase>60</timebase>
					<ntsc>TRUE</ntsc>
					</rate>
					<timecode>
					<rate>
					<timebase>60</timebase>
					<ntsc>TRUE</ntsc>
					</rate>
					<string>00:00:00:00</string>
					<frame>0</frame>
					<displayformat>NDF</displayformat>
					</timecode>
					<media>
					<video>
					<samplecharacteristics>
					<rate>
					<timebase>60</timebase>
					<ntsc>TRUE</ntsc>
					</rate>
					<width>1080</width>
					<height>1920</height>
					<anamorphic>FALSE</anamorphic>
					<pixelaspectratio>square</pixelaspectratio>
					<fielddominance>none</fielddominance>
					</samplecharacteristics>
					</video>
					</media>
					</file>
					<filter>
					<effect>
					<name></name>
					<effectid>GraphicAndType</effectid>
					<effectcategory>graphic</effectcategory>
					<effecttype>filter</effecttype>
					<mediatype>video</mediatype>
					<pproBypass>false</pproBypass>
					<parameter authoringApp="PremierePro">
					<parameterid>1</parameterid>
					<name></name>
					<hash>025b1101-ead6-0ca2-1feb-caf3000001fc</hash>
					<value>5AEAAAAAAABEMyIRDAAAAAAABgAKAAQABgAAAGQAAAAAAF4ASAAQAAwARABAADwAOAAAAAAAAAAAADQAMwAsAAAAKAAkACAAAAAAAAAAAAAAAAAAHAAAAAAAGgAAAAAAAAAUAAAAAAAAAAAAAAAAAAAAAAAAAAgAAAAAABsABwBeAAAAAAAAAUAAAABQAAAAbAAAAAIAAAAAAAEAAQAAAAAAQEEAAMBAAABAQAAAyEIAAAABIAAAAAIAAAACAAAAAAA2QwCASkTw/v//9P7///j+//8S////AAAAAAEAAAAEAAAAEQAAAEhHUFNvZWlLYWt1cG9wdGFpAAAAAQAAAAwAAAAIAAwABAAIAAgAAAAIAAAAUAAAAA8AAADvvIEAAAAAAAAAAAAAAAAAAAA2ACQAAAAgABwAAAAAABsAFAAAAAAAAAAAAAAAAAAAAAAAAAAAABAAAAAAAAAADAAAAAgABAA2AAAAAgAAABwAAAAcAAAAHAAAAAAAIEEAAAABaAAAAE3PAEOw////tP///wEAAAAUAAAAEAAaAAgABwAMAAAAEAAUABAAAAAAAAABHAAAAAAAoEEcAAAAAgAAAAAACgAIAAUABgAHAAoAAAAADAD//P///wQABAAEAAAACAAIAAYABwAIAAAAAAAMAA==</value>
					</parameter>
					<parameter authoringApp="PremierePro">
					<parameterid>2</parameterid>
					<name></name>
					<IsTimeVarying>false</IsTimeVarying>
					<ParameterControlType>11</ParameterControlType>
					<LowerBound>false</LowerBound>
					<UpperBound>false</UpperBound>
					<value>-91445760000000000,false,0,0,0,0,0,0</value>
					</parameter>
					<parameter authoringApp="PremierePro">
					<parameterid>3</parameterid>
					<name></name>
					<IsTimeVarying>false</IsTimeVarying>
					<value>-91445760000000000,0.5:0.5,0,0,0,0,0,0,5,4,0,0,0,0</value>
					</parameter>
					<parameter authoringApp="PremierePro">
					<parameterid>4</parameterid>
					<name></name>
					<IsTimeVarying>false</IsTimeVarying>
					<ParameterControlType>2</ParameterControlType>
					<LowerBound>0</LowerBound>
					<UpperBound>4000</UpperBound>
					<value>-91445760000000000,100.,0,0,0,0,0,0</value>
					</parameter>
					<parameter authoringApp="PremierePro">
					<parameterid>8</parameterid>
					<name></name>
					<IsTimeVarying>false</IsTimeVarying>
					<ParameterControlType>2</ParameterControlType>
					<LowerBound>0</LowerBound>
					<UpperBound>100</UpperBound>
					<value>-91445760000000000,100.,0,0,0,0,0,0</value>
					</parameter>
					</effect>
					</filter>
					<logginginfo>
					<description></description>
					<scene></scene>
					<shottake></shottake>
					<lognote></lognote>
					<good></good>
					<originalvideofilename></originalvideofilename>
					<originalaudiofilename></originalaudiofilename>
					</logginginfo>
					<colorinfo>
					<lut></lut>
					<lut1></lut1>
					<asc_sop></asc_sop>
					<asc_sat></asc_sat>
					<lut2></lut2>
					</colorinfo>
					<labels>
					</labels>
					</clipitem>
					<clipitem frameBlend="FALSE" id="clipitem-248">
					<masterclipid>masterclip-168</masterclipid>
					<name></name>
					<enabled>TRUE</enabled>
					<duration>2582774</duration>
					<rate>
					
					                                    <timebase>60</timebase>
					                                    <ntsc>TRUE</ntsc>
					                                
					</rate>
					<start>1187</start>
					<end>1247</end>
					<in>1187</in>
					<out>1247</out>
					<pproTicksIn>914456774963789</pproTicksIn>
					<pproTicksOut>914677708529577</pproTicksOut>
					<alphatype>straight</alphatype>
					<pixelaspectratio>square</pixelaspectratio>
					<anamorphic>FALSE</anamorphic>
					<file id="file-167">
					<name></name>
					<mediaSource>GraphicAndType</mediaSource>
					<rate>
					<timebase>60</timebase>
					<ntsc>TRUE</ntsc>
					</rate>
					<timecode>
					<rate>
					<timebase>60</timebase>
					<ntsc>TRUE</ntsc>
					</rate>
					<string>00:00:00:00</string>
					<frame>0</frame>
					<displayformat>NDF</displayformat>
					</timecode>
					<media>
					<video>
					<samplecharacteristics>
					<rate>
					<timebase>60</timebase>
					<ntsc>TRUE</ntsc>
					</rate>
					<width>1080</width>
					<height>1920</height>
					<anamorphic>FALSE</anamorphic>
					<pixelaspectratio>square</pixelaspectratio>
					<fielddominance>none</fielddominance>
					</samplecharacteristics>
					</video>
					</media>
					</file>
					<filter>
					<effect>
					<name></name>
					<effectid>GraphicAndType</effectid>
					<effectcategory>graphic</effectcategory>
					<effecttype>filter</effecttype>
					<mediatype>video</mediatype>
					<pproBypass>false</pproBypass>
					<parameter authoringApp="PremierePro">
					<parameterid>1</parameterid>
					<name></name>
					<hash>025b1101-ead6-0ca2-1feb-caf3000001fc</hash>
					<value>5AEAAAAAAABEMyIRDAAAAAAABgAKAAQABgAAAGQAAAAAAF4ASAAQAAwARABAADwAOAAAAAAAAAAAADQAMwAsAAAAKAAkACAAAAAAAAAAAAAAAAAAHAAAAAAAGgAAAAAAAAAUAAAAAAAAAAAAAAAAAAAAAAAAAAgAAAAAABsABwBeAAAAAAAAAUAAAABQAAAAbAAAAAIAAAAAAAEAAQAAAAAAQEEAAMBAAABAQAAAyEIAAAABIAAAAAIAAAACAAAAAAA2QwCASkTw/v//9P7///j+//8S////AAAAAAEAAAAEAAAAEQAAAEhHUFNvZWlLYWt1cG9wdGFpAAAAAQAAAAwAAAAIAAwABAAIAAgAAAAIAAAAUAAAAA8AAADvvIEAAAAAAAAAAAAAAAAAAAA2ACQAAAAgABwAAAAAABsAFAAAAAAAAAAAAAAAAAAAAAAAAAAAABAAAAAAAAAADAAAAAgABAA2AAAAAgAAABwAAAAcAAAAHAAAAAAAIEEAAAABaAAAAE3PAEOw////tP///wEAAAAUAAAAEAAaAAgABwAMAAAAEAAUABAAAAAAAAABHAAAAAAAoEEcAAAAAgAAAAAACgAIAAUABgAHAAoAAAAADAD//P///wQABAAEAAAACAAIAAYABwAIAAAAAAAMAA==</value>
					</parameter>
					<parameter authoringApp="PremierePro">
					<parameterid>2</parameterid>
					<name></name>
					<IsTimeVarying>false</IsTimeVarying>
					<ParameterControlType>11</ParameterControlType>
					<LowerBound>false</LowerBound>
					<UpperBound>false</UpperBound>
					<value>-91445760000000000,false,0,0,0,0,0,0</value>
					</parameter>
					<parameter authoringApp="PremierePro">
					<parameterid>3</parameterid>
					<name></name>
					<IsTimeVarying>false</IsTimeVarying>
					<value>-91445760000000000,0.5:0.5,0,0,0,0,0,0,5,4,0,0,0,0</value>
					</parameter>
					<parameter authoringApp="PremierePro">
					<parameterid>4</parameterid>
					<name></name>
					<IsTimeVarying>false</IsTimeVarying>
					<ParameterControlType>2</ParameterControlType>
					<LowerBound>0</LowerBound>
					<UpperBound>4000</UpperBound>
					<value>-91445760000000000,100.,0,0,0,0,0,0</value>
					</parameter>
					<parameter authoringApp="PremierePro">
					<parameterid>8</parameterid>
					<name></name>
					<IsTimeVarying>false</IsTimeVarying>
					<ParameterControlType>2</ParameterControlType>
					<LowerBound>0</LowerBound>
					<UpperBound>100</UpperBound>
					<value>-91445760000000000,100.,0,0,0,0,0,0</value>
					</parameter>
					</effect>
					</filter>
					<logginginfo>
					<description></description>
					<scene></scene>
					<shottake></shottake>
					<lognote></lognote>
					<good></good>
					<originalvideofilename></originalvideofilename>
					<originalaudiofilename></originalaudiofilename>
					</logginginfo>
					<colorinfo>
					<lut></lut>
					<lut1></lut1>
					<asc_sop></asc_sop>
					<asc_sat></asc_sat>
					<lut2></lut2>
					</colorinfo>
					<labels>
					</labels>
					</clipitem>
					<clipitem frameBlend="FALSE" id="clipitem-255">
					<masterclipid>masterclip-175</masterclipid>
					<name></name>
					<enabled>TRUE</enabled>
					<duration>2582774</duration>
					<rate>
					
					                                    <timebase>60</timebase>
					                                    <ntsc>TRUE</ntsc>
					                                
					</rate>
					<start>1265</start>
					<end>1325</end>
					<in>1265</in>
					<out>1325</out>
					<pproTicksIn>914456774963789</pproTicksIn>
					<pproTicksOut>914677708529577</pproTicksOut>
					<alphatype>straight</alphatype>
					<pixelaspectratio>square</pixelaspectratio>
					<anamorphic>FALSE</anamorphic>
					<file id="file-174">
					<name></name>
					<mediaSource>GraphicAndType</mediaSource>
					<rate>
					<timebase>60</timebase>
					<ntsc>TRUE</ntsc>
					</rate>
					<timecode>
					<rate>
					<timebase>60</timebase>
					<ntsc>TRUE</ntsc>
					</rate>
					<string>00:00:00:00</string>
					<frame>0</frame>
					<displayformat>NDF</displayformat>
					</timecode>
					<media>
					<video>
					<samplecharacteristics>
					<rate>
					<timebase>60</timebase>
					<ntsc>TRUE</ntsc>
					</rate>
					<width>1080</width>
					<height>1920</height>
					<anamorphic>FALSE</anamorphic>
					<pixelaspectratio>square</pixelaspectratio>
					<fielddominance>none</fielddominance>
					</samplecharacteristics>
					</video>
					</media>
					</file>
					<filter>
					<effect>
					<name></name>
					<effectid>GraphicAndType</effectid>
					<effectcategory>graphic</effectcategory>
					<effecttype>filter</effecttype>
					<mediatype>video</mediatype>
					<pproBypass>false</pproBypass>
					<parameter authoringApp="PremierePro">
					<parameterid>1</parameterid>
					<name></name>
					<hash>025b1101-ead6-0ca2-1feb-caf3000001fc</hash>
					<value>5AEAAAAAAABEMyIRDAAAAAAABgAKAAQABgAAAGQAAAAAAF4ASAAQAAwARABAADwAOAAAAAAAAAAAADQAMwAsAAAAKAAkACAAAAAAAAAAAAAAAAAAHAAAAAAAGgAAAAAAAAAUAAAAAAAAAAAAAAAAAAAAAAAAAAgAAAAAABsABwBeAAAAAAAAAUAAAABQAAAAbAAAAAIAAAAAAAEAAQAAAAAAQEEAAMBAAABAQAAAyEIAAAABIAAAAAIAAAACAAAAAAA2QwCASkTw/v//9P7///j+//8S////AAAAAAEAAAAEAAAAEQAAAEhHUFNvZWlLYWt1cG9wdGFpAAAAAQAAAAwAAAAIAAwABAAIAAgAAAAIAAAAUAAAAA8AAADvvIEAAAAAAAAAAAAAAAAAAAA2ACQAAAAgABwAAAAAABsAFAAAAAAAAAAAAAAAAAAAAAAAAAAAABAAAAAAAAAADAAAAAgABAA2AAAAAgAAABwAAAAcAAAAHAAAAAAAIEEAAAABaAAAAE3PAEOw////tP///wEAAAAUAAAAEAAaAAgABwAMAAAAEAAUABAAAAAAAAABHAAAAAAAoEEcAAAAAgAAAAAACgAIAAUABgAHAAoAAAAADAD//P///wQABAAEAAAACAAIAAYABwAIAAAAAAAMAA==</value>
					</parameter>
					<parameter authoringApp="PremierePro">
					<parameterid>2</parameterid>
					<name></name>
					<IsTimeVarying>false</IsTimeVarying>
					<ParameterControlType>11</ParameterControlType>
					<LowerBound>false</LowerBound>
					<UpperBound>false</UpperBound>
					<value>-91445760000000000,false,0,0,0,0,0,0</value>
					</parameter>
					<parameter authoringApp="PremierePro">
					<parameterid>3</parameterid>
					<name></name>
					<IsTimeVarying>false</IsTimeVarying>
					<value>-91445760000000000,0.5:0.5,0,0,0,0,0,0,5,4,0,0,0,0</value>
					</parameter>
					<parameter authoringApp="PremierePro">
					<parameterid>4</parameterid>
					<name></name>
					<IsTimeVarying>false</IsTimeVarying>
					<ParameterControlType>2</ParameterControlType>
					<LowerBound>0</LowerBound>
					<UpperBound>4000</UpperBound>
					<value>-91445760000000000,100.,0,0,0,0,0,0</value>
					</parameter>
					<parameter authoringApp="PremierePro">
					<parameterid>8</parameterid>
					<name></name>
					<IsTimeVarying>false</IsTimeVarying>
					<ParameterControlType>2</ParameterControlType>
					<LowerBound>0</LowerBound>
					<UpperBound>100</UpperBound>
					<value>-91445760000000000,100.,0,0,0,0,0,0</value>
					</parameter>
					</effect>
					</filter>
					<logginginfo>
					<description></description>
					<scene></scene>
					<shottake></shottake>
					<lognote></lognote>
					<good></good>
					<originalvideofilename></originalvideofilename>
					<originalaudiofilename></originalaudiofilename>
					</logginginfo>
					<colorinfo>
					<lut></lut>
					<lut1></lut1>
					<asc_sop></asc_sop>
					<asc_sat></asc_sat>
					<lut2></lut2>
					</colorinfo>
					<labels>
					</labels>
					</clipitem>
					<clipitem frameBlend="FALSE" id="clipitem-264">
					<masterclipid>masterclip-184</masterclipid>
					<name></name>
					<enabled>TRUE</enabled>
					<duration>2582774</duration>
					<rate>
					
					                                    <timebase>60</timebase>
					                                    <ntsc>TRUE</ntsc>
					                                
					</rate>
					<start>1355</start>
					<end>1421</end>
					<in>1355</in>
					<out>1421</out>
					<pproTicksIn>914456774963789</pproTicksIn>
					<pproTicksOut>914677708529577</pproTicksOut>
					<alphatype>straight</alphatype>
					<pixelaspectratio>square</pixelaspectratio>
					<anamorphic>FALSE</anamorphic>
					<file id="file-183">
					<name></name>
					<mediaSource>GraphicAndType</mediaSource>
					<rate>
					<timebase>60</timebase>
					<ntsc>TRUE</ntsc>
					</rate>
					<timecode>
					<rate>
					<timebase>60</timebase>
					<ntsc>TRUE</ntsc>
					</rate>
					<string>00:00:00:00</string>
					<frame>0</frame>
					<displayformat>NDF</displayformat>
					</timecode>
					<media>
					<video>
					<samplecharacteristics>
					<rate>
					<timebase>60</timebase>
					<ntsc>TRUE</ntsc>
					</rate>
					<width>1080</width>
					<height>1920</height>
					<anamorphic>FALSE</anamorphic>
					<pixelaspectratio>square</pixelaspectratio>
					<fielddominance>none</fielddominance>
					</samplecharacteristics>
					</video>
					</media>
					</file>
					<filter>
					<effect>
					<name></name>
					<effectid>GraphicAndType</effectid>
					<effectcategory>graphic</effectcategory>
					<effecttype>filter</effecttype>
					<mediatype>video</mediatype>
					<pproBypass>false</pproBypass>
					<parameter authoringApp="PremierePro">
					<parameterid>1</parameterid>
					<name></name>
					<hash>025b1101-ead6-0ca2-1feb-caf3000001fc</hash>
					<value>5AEAAAAAAABEMyIRDAAAAAAABgAKAAQABgAAAGQAAAAAAF4ASAAQAAwARABAADwAOAAAAAAAAAAAADQAMwAsAAAAKAAkACAAAAAAAAAAAAAAAAAAHAAAAAAAGgAAAAAAAAAUAAAAAAAAAAAAAAAAAAAAAAAAAAgAAAAAABsABwBeAAAAAAAAAUAAAABQAAAAbAAAAAIAAAAAAAEAAQAAAAAAQEEAAMBAAABAQAAAyEIAAAABIAAAAAIAAAACAAAAAAA2QwCASkTw/v//9P7///j+//8S////AAAAAAEAAAAEAAAAEQAAAEhHUFNvZWlLYWt1cG9wdGFpAAAAAQAAAAwAAAAIAAwABAAIAAgAAAAIAAAAUAAAAA8AAADvvIEAAAAAAAAAAAAAAAAAAAA2ACQAAAAgABwAAAAAABsAFAAAAAAAAAAAAAAAAAAAAAAAAAAAABAAAAAAAAAADAAAAAgABAA2AAAAAgAAABwAAAAcAAAAHAAAAAAAIEEAAAABaAAAAE3PAEOw////tP///wEAAAAUAAAAEAAaAAgABwAMAAAAEAAUABAAAAAAAAABHAAAAAAAoEEcAAAAAgAAAAAACgAIAAUABgAHAAoAAAAADAD//P///wQABAAEAAAACAAIAAYABwAIAAAAAAAMAA==</value>
					</parameter>
					<parameter authoringApp="PremierePro">
					<parameterid>2</parameterid>
					<name></name>
					<IsTimeVarying>false</IsTimeVarying>
					<ParameterControlType>11</ParameterControlType>
					<LowerBound>false</LowerBound>
					<UpperBound>false</UpperBound>
					<value>-91445760000000000,false,0,0,0,0,0,0</value>
					</parameter>
					<parameter authoringApp="PremierePro">
					<parameterid>3</parameterid>
					<name></name>
					<IsTimeVarying>false</IsTimeVarying>
					<value>-91445760000000000,0.5:0.5,0,0,0,0,0,0,5,4,0,0,0,0</value>
					</parameter>
					<parameter authoringApp="PremierePro">
					<parameterid>4</parameterid>
					<name></name>
					<IsTimeVarying>false</IsTimeVarying>
					<ParameterControlType>2</ParameterControlType>
					<LowerBound>0</LowerBound>
					<UpperBound>4000</UpperBound>
					<value>-91445760000000000,100.,0,0,0,0,0,0</value>
					</parameter>
					<parameter authoringApp="PremierePro">
					<parameterid>8</parameterid>
					<name></name>
					<IsTimeVarying>false</IsTimeVarying>
					<ParameterControlType>2</ParameterControlType>
					<LowerBound>0</LowerBound>
					<UpperBound>100</UpperBound>
					<value>-91445760000000000,100.,0,0,0,0,0,0</value>
					</parameter>
					</effect>
					</filter>
					<logginginfo>
					<description></description>
					<scene></scene>
					<shottake></shottake>
					<lognote></lognote>
					<good></good>
					<originalvideofilename></originalvideofilename>
					<originalaudiofilename></originalaudiofilename>
					</logginginfo>
					<colorinfo>
					<lut></lut>
					<lut1></lut1>
					<asc_sop></asc_sop>
					<asc_sat></asc_sat>
					<lut2></lut2>
					</colorinfo>
					<labels>
					</labels>
					</clipitem>
					<clipitem frameBlend="FALSE" id="clipitem-272">
					<masterclipid>masterclip-192</masterclipid>
					<name></name>
					<enabled>TRUE</enabled>
					<duration>2582774</duration>
					<rate>
					
					                                    <timebase>60</timebase>
					                                    <ntsc>TRUE</ntsc>
					                                
					</rate>
					<start>1427</start>
					<end>1487</end>
					<in>1427</in>
					<out>1487</out>
					<pproTicksIn>914456774963789</pproTicksIn>
					<pproTicksOut>914677708529577</pproTicksOut>
					<alphatype>straight</alphatype>
					<pixelaspectratio>square</pixelaspectratio>
					<anamorphic>FALSE</anamorphic>
					<file id="file-191">
					<name></name>
					<mediaSource>GraphicAndType</mediaSource>
					<rate>
					<timebase>60</timebase>
					<ntsc>TRUE</ntsc>
					</rate>
					<timecode>
					<rate>
					<timebase>60</timebase>
					<ntsc>TRUE</ntsc>
					</rate>
					<string>00:00:00:00</string>
					<frame>0</frame>
					<displayformat>NDF</displayformat>
					</timecode>
					<media>
					<video>
					<samplecharacteristics>
					<rate>
					<timebase>60</timebase>
					<ntsc>TRUE</ntsc>
					</rate>
					<width>1080</width>
					<height>1920</height>
					<anamorphic>FALSE</anamorphic>
					<pixelaspectratio>square</pixelaspectratio>
					<fielddominance>none</fielddominance>
					</samplecharacteristics>
					</video>
					</media>
					</file>
					<filter>
					<effect>
					<name></name>
					<effectid>GraphicAndType</effectid>
					<effectcategory>graphic</effectcategory>
					<effecttype>filter</effecttype>
					<mediatype>video</mediatype>
					<pproBypass>false</pproBypass>
					<parameter authoringApp="PremierePro">
					<parameterid>1</parameterid>
					<name></name>
					<hash>025b1101-ead6-0ca2-1feb-caf3000001fc</hash>
					<value>5AEAAAAAAABEMyIRDAAAAAAABgAKAAQABgAAAGQAAAAAAF4ASAAQAAwARABAADwAOAAAAAAAAAAAADQAMwAsAAAAKAAkACAAAAAAAAAAAAAAAAAAHAAAAAAAGgAAAAAAAAAUAAAAAAAAAAAAAAAAAAAAAAAAAAgAAAAAABsABwBeAAAAAAAAAUAAAABQAAAAbAAAAAIAAAAAAAEAAQAAAAAAQEEAAMBAAABAQAAAyEIAAAABIAAAAAIAAAACAAAAAAA2QwCASkTw/v//9P7///j+//8S////AAAAAAEAAAAEAAAAEQAAAEhHUFNvZWlLYWt1cG9wdGFpAAAAAQAAAAwAAAAIAAwABAAIAAgAAAAIAAAAUAAAAA8AAADvvIEAAAAAAAAAAAAAAAAAAAA2ACQAAAAgABwAAAAAABsAFAAAAAAAAAAAAAAAAAAAAAAAAAAAABAAAAAAAAAADAAAAAgABAA2AAAAAgAAABwAAAAcAAAAHAAAAAAAIEEAAAABaAAAAE3PAEOw////tP///wEAAAAUAAAAEAAaAAgABwAMAAAAEAAUABAAAAAAAAABHAAAAAAAoEEcAAAAAgAAAAAACgAIAAUABgAHAAoAAAAADAD//P///wQABAAEAAAACAAIAAYABwAIAAAAAAAMAA==</value>
					</parameter>
					<parameter authoringApp="PremierePro">
					<parameterid>2</parameterid>
					<name></name>
					<IsTimeVarying>false</IsTimeVarying>
					<ParameterControlType>11</ParameterControlType>
					<LowerBound>false</LowerBound>
					<UpperBound>false</UpperBound>
					<value>-91445760000000000,false,0,0,0,0,0,0</value>
					</parameter>
					<parameter authoringApp="PremierePro">
					<parameterid>3</parameterid>
					<name></name>
					<IsTimeVarying>false</IsTimeVarying>
					<value>-91445760000000000,0.5:0.5,0,0,0,0,0,0,5,4,0,0,0,0</value>
					</parameter>
					<parameter authoringApp="PremierePro">
					<parameterid>4</parameterid>
					<name></name>
					<IsTimeVarying>false</IsTimeVarying>
					<ParameterControlType>2</ParameterControlType>
					<LowerBound>0</LowerBound>
					<UpperBound>4000</UpperBound>
					<value>-91445760000000000,100.,0,0,0,0,0,0</value>
					</parameter>
					<parameter authoringApp="PremierePro">
					<parameterid>8</parameterid>
					<name></name>
					<IsTimeVarying>false</IsTimeVarying>
					<ParameterControlType>2</ParameterControlType>
					<LowerBound>0</LowerBound>
					<UpperBound>100</UpperBound>
					<value>-91445760000000000,100.,0,0,0,0,0,0</value>
					</parameter>
					</effect>
					</filter>
					<logginginfo>
					<description></description>
					<scene></scene>
					<shottake></shottake>
					<lognote></lognote>
					<good></good>
					<originalvideofilename></originalvideofilename>
					<originalaudiofilename></originalaudiofilename>
					</logginginfo>
					<colorinfo>
					<lut></lut>
					<lut1></lut1>
					<asc_sop></asc_sop>
					<asc_sat></asc_sat>
					<lut2></lut2>
					</colorinfo>
					<labels>
					</labels>
					</clipitem>
					<clipitem frameBlend="FALSE" id="clipitem-280">
					<masterclipid>masterclip-200</masterclipid>
					<name></name>
					<enabled>TRUE</enabled>
					<duration>2582774</duration>
					<rate>
					
					                                    <timebase>60</timebase>
					                                    <ntsc>TRUE</ntsc>
					                                
					</rate>
					<start>1517</start>
					<end>1577</end>
					<in>1517</in>
					<out>1577</out>
					<pproTicksIn>914456774963789</pproTicksIn>
					<pproTicksOut>914677708529577</pproTicksOut>
					<alphatype>straight</alphatype>
					<pixelaspectratio>square</pixelaspectratio>
					<anamorphic>FALSE</anamorphic>
					<file id="file-199">
					<name></name>
					<mediaSource>GraphicAndType</mediaSource>
					<rate>
					<timebase>60</timebase>
					<ntsc>TRUE</ntsc>
					</rate>
					<timecode>
					<rate>
					<timebase>60</timebase>
					<ntsc>TRUE</ntsc>
					</rate>
					<string>00:00:00:00</string>
					<frame>0</frame>
					<displayformat>NDF</displayformat>
					</timecode>
					<media>
					<video>
					<samplecharacteristics>
					<rate>
					<timebase>60</timebase>
					<ntsc>TRUE</ntsc>
					</rate>
					<width>1080</width>
					<height>1920</height>
					<anamorphic>FALSE</anamorphic>
					<pixelaspectratio>square</pixelaspectratio>
					<fielddominance>none</fielddominance>
					</samplecharacteristics>
					</video>
					</media>
					</file>
					<filter>
					<effect>
					<name></name>
					<effectid>GraphicAndType</effectid>
					<effectcategory>graphic</effectcategory>
					<effecttype>filter</effecttype>
					<mediatype>video</mediatype>
					<pproBypass>false</pproBypass>
					<parameter authoringApp="PremierePro">
					<parameterid>1</parameterid>
					<name></name>
					<hash>025b1101-ead6-0ca2-1feb-caf3000001fc</hash>
					<value>5AEAAAAAAABEMyIRDAAAAAAABgAKAAQABgAAAGQAAAAAAF4ASAAQAAwARABAADwAOAAAAAAAAAAAADQAMwAsAAAAKAAkACAAAAAAAAAAAAAAAAAAHAAAAAAAGgAAAAAAAAAUAAAAAAAAAAAAAAAAAAAAAAAAAAgAAAAAABsABwBeAAAAAAAAAUAAAABQAAAAbAAAAAIAAAAAAAEAAQAAAAAAQEEAAMBAAABAQAAAyEIAAAABIAAAAAIAAAACAAAAAAA2QwCASkTw/v//9P7///j+//8S////AAAAAAEAAAAEAAAAEQAAAEhHUFNvZWlLYWt1cG9wdGFpAAAAAQAAAAwAAAAIAAwABAAIAAgAAAAIAAAAUAAAAA8AAADvvIEAAAAAAAAAAAAAAAAAAAA2ACQAAAAgABwAAAAAABsAFAAAAAAAAAAAAAAAAAAAAAAAAAAAABAAAAAAAAAADAAAAAgABAA2AAAAAgAAABwAAAAcAAAAHAAAAAAAIEEAAAABaAAAAE3PAEOw////tP///wEAAAAUAAAAEAAaAAgABwAMAAAAEAAUABAAAAAAAAABHAAAAAAAoEEcAAAAAgAAAAAACgAIAAUABgAHAAoAAAAADAD//P///wQABAAEAAAACAAIAAYABwAIAAAAAAAMAA==</value>
					</parameter>
					<parameter authoringApp="PremierePro">
					<parameterid>2</parameterid>
					<name></name>
					<IsTimeVarying>false</IsTimeVarying>
					<ParameterControlType>11</ParameterControlType>
					<LowerBound>false</LowerBound>
					<UpperBound>false</UpperBound>
					<value>-91445760000000000,false,0,0,0,0,0,0</value>
					</parameter>
					<parameter authoringApp="PremierePro">
					<parameterid>3</parameterid>
					<name></name>
					<IsTimeVarying>false</IsTimeVarying>
					<value>-91445760000000000,0.5:0.5,0,0,0,0,0,0,5,4,0,0,0,0</value>
					</parameter>
					<parameter authoringApp="PremierePro">
					<parameterid>4</parameterid>
					<name></name>
					<IsTimeVarying>false</IsTimeVarying>
					<ParameterControlType>2</ParameterControlType>
					<LowerBound>0</LowerBound>
					<UpperBound>4000</UpperBound>
					<value>-91445760000000000,100.,0,0,0,0,0,0</value>
					</parameter>
					<parameter authoringApp="PremierePro">
					<parameterid>8</parameterid>
					<name></name>
					<IsTimeVarying>false</IsTimeVarying>
					<ParameterControlType>2</ParameterControlType>
					<LowerBound>0</LowerBound>
					<UpperBound>100</UpperBound>
					<value>-91445760000000000,100.,0,0,0,0,0,0</value>
					</parameter>
					</effect>
					</filter>
					<logginginfo>
					<description></description>
					<scene></scene>
					<shottake></shottake>
					<lognote></lognote>
					<good></good>
					<originalvideofilename></originalvideofilename>
					<originalaudiofilename></originalaudiofilename>
					</logginginfo>
					<colorinfo>
					<lut></lut>
					<lut1></lut1>
					<asc_sop></asc_sop>
					<asc_sat></asc_sat>
					<lut2></lut2>
					</colorinfo>
					<labels>
					</labels>
					</clipitem>
					<clipitem frameBlend="FALSE" id="clipitem-288">
					<masterclipid>masterclip-208</masterclipid>
					<name></name>
					<enabled>TRUE</enabled>
					<duration>2582774</duration>
					<rate>
					
					                                    <timebase>60</timebase>
					                                    <ntsc>TRUE</ntsc>
					                                
					</rate>
					<start>1601</start>
					<end>1667</end>
					<in>1601</in>
					<out>1667</out>
					<pproTicksIn>914456774963789</pproTicksIn>
					<pproTicksOut>914677708529577</pproTicksOut>
					<alphatype>straight</alphatype>
					<pixelaspectratio>square</pixelaspectratio>
					<anamorphic>FALSE</anamorphic>
					<file id="file-207">
					<name></name>
					<mediaSource>GraphicAndType</mediaSource>
					<rate>
					<timebase>60</timebase>
					<ntsc>TRUE</ntsc>
					</rate>
					<timecode>
					<rate>
					<timebase>60</timebase>
					<ntsc>TRUE</ntsc>
					</rate>
					<string>00:00:00:00</string>
					<frame>0</frame>
					<displayformat>NDF</displayformat>
					</timecode>
					<media>
					<video>
					<samplecharacteristics>
					<rate>
					<timebase>60</timebase>
					<ntsc>TRUE</ntsc>
					</rate>
					<width>1080</width>
					<height>1920</height>
					<anamorphic>FALSE</anamorphic>
					<pixelaspectratio>square</pixelaspectratio>
					<fielddominance>none</fielddominance>
					</samplecharacteristics>
					</video>
					</media>
					</file>
					<filter>
					<effect>
					<name></name>
					<effectid>GraphicAndType</effectid>
					<effectcategory>graphic</effectcategory>
					<effecttype>filter</effecttype>
					<mediatype>video</mediatype>
					<pproBypass>false</pproBypass>
					<parameter authoringApp="PremierePro">
					<parameterid>1</parameterid>
					<name></name>
					<hash>025b1101-ead6-0ca2-1feb-caf3000001fc</hash>
					<value>5AEAAAAAAABEMyIRDAAAAAAABgAKAAQABgAAAGQAAAAAAF4ASAAQAAwARABAADwAOAAAAAAAAAAAADQAMwAsAAAAKAAkACAAAAAAAAAAAAAAAAAAHAAAAAAAGgAAAAAAAAAUAAAAAAAAAAAAAAAAAAAAAAAAAAgAAAAAABsABwBeAAAAAAAAAUAAAABQAAAAbAAAAAIAAAAAAAEAAQAAAAAAQEEAAMBAAABAQAAAyEIAAAABIAAAAAIAAAACAAAAAAA2QwCASkTw/v//9P7///j+//8S////AAAAAAEAAAAEAAAAEQAAAEhHUFNvZWlLYWt1cG9wdGFpAAAAAQAAAAwAAAAIAAwABAAIAAgAAAAIAAAAUAAAAA8AAADvvIEAAAAAAAAAAAAAAAAAAAA2ACQAAAAgABwAAAAAABsAFAAAAAAAAAAAAAAAAAAAAAAAAAAAABAAAAAAAAAADAAAAAgABAA2AAAAAgAAABwAAAAcAAAAHAAAAAAAIEEAAAABaAAAAE3PAEOw////tP///wEAAAAUAAAAEAAaAAgABwAMAAAAEAAUABAAAAAAAAABHAAAAAAAoEEcAAAAAgAAAAAACgAIAAUABgAHAAoAAAAADAD//P///wQABAAEAAAACAAIAAYABwAIAAAAAAAMAA==</value>
					</parameter>
					<parameter authoringApp="PremierePro">
					<parameterid>2</parameterid>
					<name></name>
					<IsTimeVarying>false</IsTimeVarying>
					<ParameterControlType>11</ParameterControlType>
					<LowerBound>false</LowerBound>
					<UpperBound>false</UpperBound>
					<value>-91445760000000000,false,0,0,0,0,0,0</value>
					</parameter>
					<parameter authoringApp="PremierePro">
					<parameterid>3</parameterid>
					<name></name>
					<IsTimeVarying>false</IsTimeVarying>
					<value>-91445760000000000,0.5:0.5,0,0,0,0,0,0,5,4,0,0,0,0</value>
					</parameter>
					<parameter authoringApp="PremierePro">
					<parameterid>4</parameterid>
					<name></name>
					<IsTimeVarying>false</IsTimeVarying>
					<ParameterControlType>2</ParameterControlType>
					<LowerBound>0</LowerBound>
					<UpperBound>4000</UpperBound>
					<value>-91445760000000000,100.,0,0,0,0,0,0</value>
					</parameter>
					<parameter authoringApp="PremierePro">
					<parameterid>8</parameterid>
					<name></name>
					<IsTimeVarying>false</IsTimeVarying>
					<ParameterControlType>2</ParameterControlType>
					<LowerBound>0</LowerBound>
					<UpperBound>100</UpperBound>
					<value>-91445760000000000,100.,0,0,0,0,0,0</value>
					</parameter>
					</effect>
					</filter>
					<logginginfo>
					<description></description>
					<scene></scene>
					<shottake></shottake>
					<lognote></lognote>
					<good></good>
					<originalvideofilename></originalvideofilename>
					<originalaudiofilename></originalaudiofilename>
					</logginginfo>
					<colorinfo>
					<lut></lut>
					<lut1></lut1>
					<asc_sop></asc_sop>
					<asc_sat></asc_sat>
					<lut2></lut2>
					</colorinfo>
					<labels>
					</labels>
					</clipitem>
					<clipitem frameBlend="FALSE" id="clipitem-299">
					<masterclipid>masterclip-219</masterclipid>
					<name></name>
					<enabled>TRUE</enabled>
					<duration>2582774</duration>
					<rate>
					
					                                    <timebase>60</timebase>
					                                    <ntsc>TRUE</ntsc>
					                                
					</rate>
					<start>1703</start>
					<end>1769</end>
					<in>1703</in>
					<out>1769</out>
					<pproTicksIn>914456774963789</pproTicksIn>
					<pproTicksOut>914677708529577</pproTicksOut>
					<alphatype>straight</alphatype>
					<pixelaspectratio>square</pixelaspectratio>
					<anamorphic>FALSE</anamorphic>
					<file id="file-218">
					<name></name>
					<mediaSource>GraphicAndType</mediaSource>
					<rate>
					<timebase>60</timebase>
					<ntsc>TRUE</ntsc>
					</rate>
					<timecode>
					<rate>
					<timebase>60</timebase>
					<ntsc>TRUE</ntsc>
					</rate>
					<string>00:00:00:00</string>
					<frame>0</frame>
					<displayformat>NDF</displayformat>
					</timecode>
					<media>
					<video>
					<samplecharacteristics>
					<rate>
					<timebase>60</timebase>
					<ntsc>TRUE</ntsc>
					</rate>
					<width>1080</width>
					<height>1920</height>
					<anamorphic>FALSE</anamorphic>
					<pixelaspectratio>square</pixelaspectratio>
					<fielddominance>none</fielddominance>
					</samplecharacteristics>
					</video>
					</media>
					</file>
					<filter>
					<effect>
					<name></name>
					<effectid>GraphicAndType</effectid>
					<effectcategory>graphic</effectcategory>
					<effecttype>filter</effecttype>
					<mediatype>video</mediatype>
					<pproBypass>false</pproBypass>
					<parameter authoringApp="PremierePro">
					<parameterid>1</parameterid>
					<name></name>
					<hash>025b1101-ead6-0ca2-1feb-caf3000001fc</hash>
					<value>5AEAAAAAAABEMyIRDAAAAAAABgAKAAQABgAAAGQAAAAAAF4ASAAQAAwARABAADwAOAAAAAAAAAAAADQAMwAsAAAAKAAkACAAAAAAAAAAAAAAAAAAHAAAAAAAGgAAAAAAAAAUAAAAAAAAAAAAAAAAAAAAAAAAAAgAAAAAABsABwBeAAAAAAAAAUAAAABQAAAAbAAAAAIAAAAAAAEAAQAAAAAAQEEAAMBAAABAQAAAyEIAAAABIAAAAAIAAAACAAAAAAA2QwCASkTw/v//9P7///j+//8S////AAAAAAEAAAAEAAAAEQAAAEhHUFNvZWlLYWt1cG9wdGFpAAAAAQAAAAwAAAAIAAwABAAIAAgAAAAIAAAAUAAAAA8AAADvvIEAAAAAAAAAAAAAAAAAAAA2ACQAAAAgABwAAAAAABsAFAAAAAAAAAAAAAAAAAAAAAAAAAAAABAAAAAAAAAADAAAAAgABAA2AAAAAgAAABwAAAAcAAAAHAAAAAAAIEEAAAABaAAAAE3PAEOw////tP///wEAAAAUAAAAEAAaAAgABwAMAAAAEAAUABAAAAAAAAABHAAAAAAAoEEcAAAAAgAAAAAACgAIAAUABgAHAAoAAAAADAD//P///wQABAAEAAAACAAIAAYABwAIAAAAAAAMAA==</value>
					</parameter>
					<parameter authoringApp="PremierePro">
					<parameterid>2</parameterid>
					<name></name>
					<IsTimeVarying>false</IsTimeVarying>
					<ParameterControlType>11</ParameterControlType>
					<LowerBound>false</LowerBound>
					<UpperBound>false</UpperBound>
					<value>-91445760000000000,false,0,0,0,0,0,0</value>
					</parameter>
					<parameter authoringApp="PremierePro">
					<parameterid>3</parameterid>
					<name></name>
					<IsTimeVarying>false</IsTimeVarying>
					<value>-91445760000000000,0.5:0.5,0,0,0,0,0,0,5,4,0,0,0,0</value>
					</parameter>
					<parameter authoringApp="PremierePro">
					<parameterid>4</parameterid>
					<name></name>
					<IsTimeVarying>false</IsTimeVarying>
					<ParameterControlType>2</ParameterControlType>
					<LowerBound>0</LowerBound>
					<UpperBound>4000</UpperBound>
					<value>-91445760000000000,100.,0,0,0,0,0,0</value>
					</parameter>
					<parameter authoringApp="PremierePro">
					<parameterid>8</parameterid>
					<name></name>
					<IsTimeVarying>false</IsTimeVarying>
					<ParameterControlType>2</ParameterControlType>
					<LowerBound>0</LowerBound>
					<UpperBound>100</UpperBound>
					<value>-91445760000000000,100.,0,0,0,0,0,0</value>
					</parameter>
					</effect>
					</filter>
					<logginginfo>
					<description></description>
					<scene></scene>
					<shottake></shottake>
					<lognote></lognote>
					<good></good>
					<originalvideofilename></originalvideofilename>
					<originalaudiofilename></originalaudiofilename>
					</logginginfo>
					<colorinfo>
					<lut></lut>
					<lut1></lut1>
					<asc_sop></asc_sop>
					<asc_sat></asc_sat>
					<lut2></lut2>
					</colorinfo>
					<labels>
					</labels>
					</clipitem>
					<clipitem frameBlend="FALSE" id="clipitem-306">
					<masterclipid>masterclip-226</masterclipid>
					<name></name>
					<enabled>TRUE</enabled>
					<duration>2582774</duration>
					<rate>
					
					                                    <timebase>60</timebase>
					                                    <ntsc>TRUE</ntsc>
					                                
					</rate>
					<start>1769</start>
					<end>1835</end>
					<in>1769</in>
					<out>1835</out>
					<pproTicksIn>914456774963789</pproTicksIn>
					<pproTicksOut>914677708529577</pproTicksOut>
					<alphatype>straight</alphatype>
					<pixelaspectratio>square</pixelaspectratio>
					<anamorphic>FALSE</anamorphic>
					<file id="file-225">
					<name></name>
					<mediaSource>GraphicAndType</mediaSource>
					<rate>
					<timebase>60</timebase>
					<ntsc>TRUE</ntsc>
					</rate>
					<timecode>
					<rate>
					<timebase>60</timebase>
					<ntsc>TRUE</ntsc>
					</rate>
					<string>00:00:00:00</string>
					<frame>0</frame>
					<displayformat>NDF</displayformat>
					</timecode>
					<media>
					<video>
					<samplecharacteristics>
					<rate>
					<timebase>60</timebase>
					<ntsc>TRUE</ntsc>
					</rate>
					<width>1080</width>
					<height>1920</height>
					<anamorphic>FALSE</anamorphic>
					<pixelaspectratio>square</pixelaspectratio>
					<fielddominance>none</fielddominance>
					</samplecharacteristics>
					</video>
					</media>
					</file>
					<filter>
					<effect>
					<name></name>
					<effectid>GraphicAndType</effectid>
					<effectcategory>graphic</effectcategory>
					<effecttype>filter</effecttype>
					<mediatype>video</mediatype>
					<pproBypass>false</pproBypass>
					<parameter authoringApp="PremierePro">
					<parameterid>1</parameterid>
					<name></name>
					<hash>025b1101-ead6-0ca2-1feb-caf3000001fc</hash>
					<value>5AEAAAAAAABEMyIRDAAAAAAABgAKAAQABgAAAGQAAAAAAF4ASAAQAAwARABAADwAOAAAAAAAAAAAADQAMwAsAAAAKAAkACAAAAAAAAAAAAAAAAAAHAAAAAAAGgAAAAAAAAAUAAAAAAAAAAAAAAAAAAAAAAAAAAgAAAAAABsABwBeAAAAAAAAAUAAAABQAAAAbAAAAAIAAAAAAAEAAQAAAAAAQEEAAMBAAABAQAAAyEIAAAABIAAAAAIAAAACAAAAAAA2QwCASkTw/v//9P7///j+//8S////AAAAAAEAAAAEAAAAEQAAAEhHUFNvZWlLYWt1cG9wdGFpAAAAAQAAAAwAAAAIAAwABAAIAAgAAAAIAAAAUAAAAA8AAADvvIEAAAAAAAAAAAAAAAAAAAA2ACQAAAAgABwAAAAAABsAFAAAAAAAAAAAAAAAAAAAAAAAAAAAABAAAAAAAAAADAAAAAgABAA2AAAAAgAAABwAAAAcAAAAHAAAAAAAIEEAAAABaAAAAE3PAEOw////tP///wEAAAAUAAAAEAAaAAgABwAMAAAAEAAUABAAAAAAAAABHAAAAAAAoEEcAAAAAgAAAAAACgAIAAUABgAHAAoAAAAADAD//P///wQABAAEAAAACAAIAAYABwAIAAAAAAAMAA==</value>
					</parameter>
					<parameter authoringApp="PremierePro">
					<parameterid>2</parameterid>
					<name></name>
					<IsTimeVarying>false</IsTimeVarying>
					<ParameterControlType>11</ParameterControlType>
					<LowerBound>false</LowerBound>
					<UpperBound>false</UpperBound>
					<value>-91445760000000000,false,0,0,0,0,0,0</value>
					</parameter>
					<parameter authoringApp="PremierePro">
					<parameterid>3</parameterid>
					<name></name>
					<IsTimeVarying>false</IsTimeVarying>
					<value>-91445760000000000,0.5:0.5,0,0,0,0,0,0,5,4,0,0,0,0</value>
					</parameter>
					<parameter authoringApp="PremierePro">
					<parameterid>4</parameterid>
					<name></name>
					<IsTimeVarying>false</IsTimeVarying>
					<ParameterControlType>2</ParameterControlType>
					<LowerBound>0</LowerBound>
					<UpperBound>4000</UpperBound>
					<value>-91445760000000000,100.,0,0,0,0,0,0</value>
					</parameter>
					<parameter authoringApp="PremierePro">
					<parameterid>8</parameterid>
					<name></name>
					<IsTimeVarying>false</IsTimeVarying>
					<ParameterControlType>2</ParameterControlType>
					<LowerBound>0</LowerBound>
					<UpperBound>100</UpperBound>
					<value>-91445760000000000,100.,0,0,0,0,0,0</value>
					</parameter>
					</effect>
					</filter>
					<logginginfo>
					<description></description>
					<scene></scene>
					<shottake></shottake>
					<lognote></lognote>
					<good></good>
					<originalvideofilename></originalvideofilename>
					<originalaudiofilename></originalaudiofilename>
					</logginginfo>
					<colorinfo>
					<lut></lut>
					<lut1></lut1>
					<asc_sop></asc_sop>
					<asc_sat></asc_sat>
					<lut2></lut2>
					</colorinfo>
					<labels>
					</labels>
					</clipitem>
					<clipitem frameBlend="FALSE" id="clipitem-317">
					<masterclipid>masterclip-237</masterclipid>
					<name></name>
					<enabled>TRUE</enabled>
					<duration>2582774</duration>
					<rate>
					
					                                    <timebase>60</timebase>
					                                    <ntsc>TRUE</ntsc>
					                                
					</rate>
					<start>1835</start>
					<end>1895</end>
					<in>1835</in>
					<out>1895</out>
					<pproTicksIn>914456774963789</pproTicksIn>
					<pproTicksOut>914677708529577</pproTicksOut>
					<alphatype>straight</alphatype>
					<pixelaspectratio>square</pixelaspectratio>
					<anamorphic>FALSE</anamorphic>
					<file id="file-236">
					<name></name>
					<mediaSource>GraphicAndType</mediaSource>
					<rate>
					<timebase>60</timebase>
					<ntsc>TRUE</ntsc>
					</rate>
					<timecode>
					<rate>
					<timebase>60</timebase>
					<ntsc>TRUE</ntsc>
					</rate>
					<string>00:00:00:00</string>
					<frame>0</frame>
					<displayformat>NDF</displayformat>
					</timecode>
					<media>
					<video>
					<samplecharacteristics>
					<rate>
					<timebase>60</timebase>
					<ntsc>TRUE</ntsc>
					</rate>
					<width>1080</width>
					<height>1920</height>
					<anamorphic>FALSE</anamorphic>
					<pixelaspectratio>square</pixelaspectratio>
					<fielddominance>none</fielddominance>
					</samplecharacteristics>
					</video>
					</media>
					</file>
					<filter>
					<effect>
					<name></name>
					<effectid>GraphicAndType</effectid>
					<effectcategory>graphic</effectcategory>
					<effecttype>filter</effecttype>
					<mediatype>video</mediatype>
					<pproBypass>false</pproBypass>
					<parameter authoringApp="PremierePro">
					<parameterid>1</parameterid>
					<name></name>
					<hash>025b1101-ead6-0ca2-1feb-caf3000001fc</hash>
					<value>5AEAAAAAAABEMyIRDAAAAAAABgAKAAQABgAAAGQAAAAAAF4ASAAQAAwARABAADwAOAAAAAAAAAAAADQAMwAsAAAAKAAkACAAAAAAAAAAAAAAAAAAHAAAAAAAGgAAAAAAAAAUAAAAAAAAAAAAAAAAAAAAAAAAAAgAAAAAABsABwBeAAAAAAAAAUAAAABQAAAAbAAAAAIAAAAAAAEAAQAAAAAAQEEAAMBAAABAQAAAyEIAAAABIAAAAAIAAAACAAAAAAA2QwCASkTw/v//9P7///j+//8S////AAAAAAEAAAAEAAAAEQAAAEhHUFNvZWlLYWt1cG9wdGFpAAAAAQAAAAwAAAAIAAwABAAIAAgAAAAIAAAAUAAAAA8AAADvvIEAAAAAAAAAAAAAAAAAAAA2ACQAAAAgABwAAAAAABsAFAAAAAAAAAAAAAAAAAAAAAAAAAAAABAAAAAAAAAADAAAAAgABAA2AAAAAgAAABwAAAAcAAAAHAAAAAAAIEEAAAABaAAAAE3PAEOw////tP///wEAAAAUAAAAEAAaAAgABwAMAAAAEAAUABAAAAAAAAABHAAAAAAAoEEcAAAAAgAAAAAACgAIAAUABgAHAAoAAAAADAD//P///wQABAAEAAAACAAIAAYABwAIAAAAAAAMAA==</value>
					</parameter>
					<parameter authoringApp="PremierePro">
					<parameterid>2</parameterid>
					<name></name>
					<IsTimeVarying>false</IsTimeVarying>
					<ParameterControlType>11</ParameterControlType>
					<LowerBound>false</LowerBound>
					<UpperBound>false</UpperBound>
					<value>-91445760000000000,false,0,0,0,0,0,0</value>
					</parameter>
					<parameter authoringApp="PremierePro">
					<parameterid>3</parameterid>
					<name></name>
					<IsTimeVarying>false</IsTimeVarying>
					<value>-91445760000000000,0.5:0.5,0,0,0,0,0,0,5,4,0,0,0,0</value>
					</parameter>
					<parameter authoringApp="PremierePro">
					<parameterid>4</parameterid>
					<name></name>
					<IsTimeVarying>false</IsTimeVarying>
					<ParameterControlType>2</ParameterControlType>
					<LowerBound>0</LowerBound>
					<UpperBound>4000</UpperBound>
					<value>-91445760000000000,100.,0,0,0,0,0,0</value>
					</parameter>
					<parameter authoringApp="PremierePro">
					<parameterid>8</parameterid>
					<name></name>
					<IsTimeVarying>false</IsTimeVarying>
					<ParameterControlType>2</ParameterControlType>
					<LowerBound>0</LowerBound>
					<UpperBound>100</UpperBound>
					<value>-91445760000000000,100.,0,0,0,0,0,0</value>
					</parameter>
					</effect>
					</filter>
					<logginginfo>
					<description></description>
					<scene></scene>
					<shottake></shottake>
					<lognote></lognote>
					<good></good>
					<originalvideofilename></originalvideofilename>
					<originalaudiofilename></originalaudiofilename>
					</logginginfo>
					<colorinfo>
					<lut></lut>
					<lut1></lut1>
					<asc_sop></asc_sop>
					<asc_sat></asc_sat>
					<lut2></lut2>
					</colorinfo>
					<labels>
					</labels>
					</clipitem>
					<clipitem frameBlend="FALSE" id="clipitem-323">
					<masterclipid>masterclip-243</masterclipid>
					<name></name>
					<enabled>TRUE</enabled>
					<duration>2582774</duration>
					<rate>
					
					                                    <timebase>60</timebase>
					                                    <ntsc>TRUE</ntsc>
					                                
					</rate>
					<start>1907</start>
					<end>1967</end>
					<in>1907</in>
					<out>1967</out>
					<pproTicksIn>914456774963789</pproTicksIn>
					<pproTicksOut>914677708529577</pproTicksOut>
					<alphatype>straight</alphatype>
					<pixelaspectratio>square</pixelaspectratio>
					<anamorphic>FALSE</anamorphic>
					<file id="file-242">
					<name></name>
					<mediaSource>GraphicAndType</mediaSource>
					<rate>
					<timebase>60</timebase>
					<ntsc>TRUE</ntsc>
					</rate>
					<timecode>
					<rate>
					<timebase>60</timebase>
					<ntsc>TRUE</ntsc>
					</rate>
					<string>00:00:00:00</string>
					<frame>0</frame>
					<displayformat>NDF</displayformat>
					</timecode>
					<media>
					<video>
					<samplecharacteristics>
					<rate>
					<timebase>60</timebase>
					<ntsc>TRUE</ntsc>
					</rate>
					<width>1080</width>
					<height>1920</height>
					<anamorphic>FALSE</anamorphic>
					<pixelaspectratio>square</pixelaspectratio>
					<fielddominance>none</fielddominance>
					</samplecharacteristics>
					</video>
					</media>
					</file>
					<filter>
					<effect>
					<name></name>
					<effectid>GraphicAndType</effectid>
					<effectcategory>graphic</effectcategory>
					<effecttype>filter</effecttype>
					<mediatype>video</mediatype>
					<pproBypass>false</pproBypass>
					<parameter authoringApp="PremierePro">
					<parameterid>1</parameterid>
					<name></name>
					<hash>025b1101-ead6-0ca2-1feb-caf3000001fc</hash>
					<value>5AEAAAAAAABEMyIRDAAAAAAABgAKAAQABgAAAGQAAAAAAF4ASAAQAAwARABAADwAOAAAAAAAAAAAADQAMwAsAAAAKAAkACAAAAAAAAAAAAAAAAAAHAAAAAAAGgAAAAAAAAAUAAAAAAAAAAAAAAAAAAAAAAAAAAgAAAAAABsABwBeAAAAAAAAAUAAAABQAAAAbAAAAAIAAAAAAAEAAQAAAAAAQEEAAMBAAABAQAAAyEIAAAABIAAAAAIAAAACAAAAAAA2QwCASkTw/v//9P7///j+//8S////AAAAAAEAAAAEAAAAEQAAAEhHUFNvZWlLYWt1cG9wdGFpAAAAAQAAAAwAAAAIAAwABAAIAAgAAAAIAAAAUAAAAA8AAADvvIEAAAAAAAAAAAAAAAAAAAA2ACQAAAAgABwAAAAAABsAFAAAAAAAAAAAAAAAAAAAAAAAAAAAABAAAAAAAAAADAAAAAgABAA2AAAAAgAAABwAAAAcAAAAHAAAAAAAIEEAAAABaAAAAE3PAEOw////tP///wEAAAAUAAAAEAAaAAgABwAMAAAAEAAUABAAAAAAAAABHAAAAAAAoEEcAAAAAgAAAAAACgAIAAUABgAHAAoAAAAADAD//P///wQABAAEAAAACAAIAAYABwAIAAAAAAAMAA==</value>
					</parameter>
					<parameter authoringApp="PremierePro">
					<parameterid>2</parameterid>
					<name></name>
					<IsTimeVarying>false</IsTimeVarying>
					<ParameterControlType>11</ParameterControlType>
					<LowerBound>false</LowerBound>
					<UpperBound>false</UpperBound>
					<value>-91445760000000000,false,0,0,0,0,0,0</value>
					</parameter>
					<parameter authoringApp="PremierePro">
					<parameterid>3</parameterid>
					<name></name>
					<IsTimeVarying>false</IsTimeVarying>
					<value>-91445760000000000,0.5:0.5,0,0,0,0,0,0,5,4,0,0,0,0</value>
					</parameter>
					<parameter authoringApp="PremierePro">
					<parameterid>4</parameterid>
					<name></name>
					<IsTimeVarying>false</IsTimeVarying>
					<ParameterControlType>2</ParameterControlType>
					<LowerBound>0</LowerBound>
					<UpperBound>4000</UpperBound>
					<value>-91445760000000000,100.,0,0,0,0,0,0</value>
					</parameter>
					<parameter authoringApp="PremierePro">
					<parameterid>8</parameterid>
					<name></name>
					<IsTimeVarying>false</IsTimeVarying>
					<ParameterControlType>2</ParameterControlType>
					<LowerBound>0</LowerBound>
					<UpperBound>100</UpperBound>
					<value>-91445760000000000,100.,0,0,0,0,0,0</value>
					</parameter>
					</effect>
					</filter>
					<logginginfo>
					<description></description>
					<scene></scene>
					<shottake></shottake>
					<lognote></lognote>
					<good></good>
					<originalvideofilename></originalvideofilename>
					<originalaudiofilename></originalaudiofilename>
					</logginginfo>
					<colorinfo>
					<lut></lut>
					<lut1></lut1>
					<asc_sop></asc_sop>
					<asc_sat></asc_sat>
					<lut2></lut2>
					</colorinfo>
					<labels>
					</labels>
					</clipitem>
					<clipitem frameBlend="FALSE" id="clipitem-332">
					<masterclipid>masterclip-252</masterclipid>
					<name></name>
					<enabled>TRUE</enabled>
					<duration>2582774</duration>
					<rate>
					
					                                    <timebase>60</timebase>
					                                    <ntsc>TRUE</ntsc>
					                                
					</rate>
					<start>1973</start>
					<end>2033</end>
					<in>1973</in>
					<out>2033</out>
					<pproTicksIn>914456774963789</pproTicksIn>
					<pproTicksOut>914677708529577</pproTicksOut>
					<alphatype>straight</alphatype>
					<pixelaspectratio>square</pixelaspectratio>
					<anamorphic>FALSE</anamorphic>
					<file id="file-251">
					<name></name>
					<mediaSource>GraphicAndType</mediaSource>
					<rate>
					<timebase>60</timebase>
					<ntsc>TRUE</ntsc>
					</rate>
					<timecode>
					<rate>
					<timebase>60</timebase>
					<ntsc>TRUE</ntsc>
					</rate>
					<string>00:00:00:00</string>
					<frame>0</frame>
					<displayformat>NDF</displayformat>
					</timecode>
					<media>
					<video>
					<samplecharacteristics>
					<rate>
					<timebase>60</timebase>
					<ntsc>TRUE</ntsc>
					</rate>
					<width>1080</width>
					<height>1920</height>
					<anamorphic>FALSE</anamorphic>
					<pixelaspectratio>square</pixelaspectratio>
					<fielddominance>none</fielddominance>
					</samplecharacteristics>
					</video>
					</media>
					</file>
					<filter>
					<effect>
					<name></name>
					<effectid>GraphicAndType</effectid>
					<effectcategory>graphic</effectcategory>
					<effecttype>filter</effecttype>
					<mediatype>video</mediatype>
					<pproBypass>false</pproBypass>
					<parameter authoringApp="PremierePro">
					<parameterid>1</parameterid>
					<name></name>
					<hash>025b1101-ead6-0ca2-1feb-caf3000001fc</hash>
					<value>5AEAAAAAAABEMyIRDAAAAAAABgAKAAQABgAAAGQAAAAAAF4ASAAQAAwARABAADwAOAAAAAAAAAAAADQAMwAsAAAAKAAkACAAAAAAAAAAAAAAAAAAHAAAAAAAGgAAAAAAAAAUAAAAAAAAAAAAAAAAAAAAAAAAAAgAAAAAABsABwBeAAAAAAAAAUAAAABQAAAAbAAAAAIAAAAAAAEAAQAAAAAAQEEAAMBAAABAQAAAyEIAAAABIAAAAAIAAAACAAAAAAA2QwCASkTw/v//9P7///j+//8S////AAAAAAEAAAAEAAAAEQAAAEhHUFNvZWlLYWt1cG9wdGFpAAAAAQAAAAwAAAAIAAwABAAIAAgAAAAIAAAAUAAAAA8AAADvvIEAAAAAAAAAAAAAAAAAAAA2ACQAAAAgABwAAAAAABsAFAAAAAAAAAAAAAAAAAAAAAAAAAAAABAAAAAAAAAADAAAAAgABAA2AAAAAgAAABwAAAAcAAAAHAAAAAAAIEEAAAABaAAAAE3PAEOw////tP///wEAAAAUAAAAEAAaAAgABwAMAAAAEAAUABAAAAAAAAABHAAAAAAAoEEcAAAAAgAAAAAACgAIAAUABgAHAAoAAAAADAD//P///wQABAAEAAAACAAIAAYABwAIAAAAAAAMAA==</value>
					</parameter>
					<parameter authoringApp="PremierePro">
					<parameterid>2</parameterid>
					<name></name>
					<IsTimeVarying>false</IsTimeVarying>
					<ParameterControlType>11</ParameterControlType>
					<LowerBound>false</LowerBound>
					<UpperBound>false</UpperBound>
					<value>-91445760000000000,false,0,0,0,0,0,0</value>
					</parameter>
					<parameter authoringApp="PremierePro">
					<parameterid>3</parameterid>
					<name></name>
					<IsTimeVarying>false</IsTimeVarying>
					<value>-91445760000000000,0.5:0.5,0,0,0,0,0,0,5,4,0,0,0,0</value>
					</parameter>
					<parameter authoringApp="PremierePro">
					<parameterid>4</parameterid>
					<name></name>
					<IsTimeVarying>false</IsTimeVarying>
					<ParameterControlType>2</ParameterControlType>
					<LowerBound>0</LowerBound>
					<UpperBound>4000</UpperBound>
					<value>-91445760000000000,100.,0,0,0,0,0,0</value>
					</parameter>
					<parameter authoringApp="PremierePro">
					<parameterid>8</parameterid>
					<name></name>
					<IsTimeVarying>false</IsTimeVarying>
					<ParameterControlType>2</ParameterControlType>
					<LowerBound>0</LowerBound>
					<UpperBound>100</UpperBound>
					<value>-91445760000000000,100.,0,0,0,0,0,0</value>
					</parameter>
					</effect>
					</filter>
					<logginginfo>
					<description></description>
					<scene></scene>
					<shottake></shottake>
					<lognote></lognote>
					<good></good>
					<originalvideofilename></originalvideofilename>
					<originalaudiofilename></originalaudiofilename>
					</logginginfo>
					<colorinfo>
					<lut></lut>
					<lut1></lut1>
					<asc_sop></asc_sop>
					<asc_sat></asc_sat>
					<lut2></lut2>
					</colorinfo>
					<labels>
					</labels>
					</clipitem>
					<clipitem frameBlend="FALSE" id="clipitem-343">
					<masterclipid>masterclip-263</masterclipid>
					<name></name>
					<enabled>TRUE</enabled>
					<duration>2582774</duration>
					<rate>
					
					                                    <timebase>60</timebase>
					                                    <ntsc>TRUE</ntsc>
					                                
					</rate>
					<start>2177</start>
					<end>2243</end>
					<in>2177</in>
					<out>2243</out>
					<pproTicksIn>914456774963789</pproTicksIn>
					<pproTicksOut>914677708529577</pproTicksOut>
					<alphatype>straight</alphatype>
					<pixelaspectratio>square</pixelaspectratio>
					<anamorphic>FALSE</anamorphic>
					<file id="file-262">
					<name></name>
					<mediaSource>GraphicAndType</mediaSource>
					<rate>
					<timebase>60</timebase>
					<ntsc>TRUE</ntsc>
					</rate>
					<timecode>
					<rate>
					<timebase>60</timebase>
					<ntsc>TRUE</ntsc>
					</rate>
					<string>00:00:00:00</string>
					<frame>0</frame>
					<displayformat>NDF</displayformat>
					</timecode>
					<media>
					<video>
					<samplecharacteristics>
					<rate>
					<timebase>60</timebase>
					<ntsc>TRUE</ntsc>
					</rate>
					<width>1080</width>
					<height>1920</height>
					<anamorphic>FALSE</anamorphic>
					<pixelaspectratio>square</pixelaspectratio>
					<fielddominance>none</fielddominance>
					</samplecharacteristics>
					</video>
					</media>
					</file>
					<filter>
					<effect>
					<name></name>
					<effectid>GraphicAndType</effectid>
					<effectcategory>graphic</effectcategory>
					<effecttype>filter</effecttype>
					<mediatype>video</mediatype>
					<pproBypass>false</pproBypass>
					<parameter authoringApp="PremierePro">
					<parameterid>1</parameterid>
					<name></name>
					<hash>025b1101-ead6-0ca2-1feb-caf3000001fc</hash>
					<value>5AEAAAAAAABEMyIRDAAAAAAABgAKAAQABgAAAGQAAAAAAF4ASAAQAAwARABAADwAOAAAAAAAAAAAADQAMwAsAAAAKAAkACAAAAAAAAAAAAAAAAAAHAAAAAAAGgAAAAAAAAAUAAAAAAAAAAAAAAAAAAAAAAAAAAgAAAAAABsABwBeAAAAAAAAAUAAAABQAAAAbAAAAAIAAAAAAAEAAQAAAAAAQEEAAMBAAABAQAAAyEIAAAABIAAAAAIAAAACAAAAAAA2QwCASkTw/v//9P7///j+//8S////AAAAAAEAAAAEAAAAEQAAAEhHUFNvZWlLYWt1cG9wdGFpAAAAAQAAAAwAAAAIAAwABAAIAAgAAAAIAAAAUAAAAA8AAADvvIEAAAAAAAAAAAAAAAAAAAA2ACQAAAAgABwAAAAAABsAFAAAAAAAAAAAAAAAAAAAAAAAAAAAABAAAAAAAAAADAAAAAgABAA2AAAAAgAAABwAAAAcAAAAHAAAAAAAIEEAAAABaAAAAE3PAEOw////tP///wEAAAAUAAAAEAAaAAgABwAMAAAAEAAUABAAAAAAAAABHAAAAAAAoEEcAAAAAgAAAAAACgAIAAUABgAHAAoAAAAADAD//P///wQABAAEAAAACAAIAAYABwAIAAAAAAAMAA==</value>
					</parameter>
					<parameter authoringApp="PremierePro">
					<parameterid>2</parameterid>
					<name></name>
					<IsTimeVarying>false</IsTimeVarying>
					<ParameterControlType>11</ParameterControlType>
					<LowerBound>false</LowerBound>
					<UpperBound>false</UpperBound>
					<value>-91445760000000000,false,0,0,0,0,0,0</value>
					</parameter>
					<parameter authoringApp="PremierePro">
					<parameterid>3</parameterid>
					<name></name>
					<IsTimeVarying>false</IsTimeVarying>
					<value>-91445760000000000,0.5:0.5,0,0,0,0,0,0,5,4,0,0,0,0</value>
					</parameter>
					<parameter authoringApp="PremierePro">
					<parameterid>4</parameterid>
					<name></name>
					<IsTimeVarying>false</IsTimeVarying>
					<ParameterControlType>2</ParameterControlType>
					<LowerBound>0</LowerBound>
					<UpperBound>4000</UpperBound>
					<value>-91445760000000000,100.,0,0,0,0,0,0</value>
					</parameter>
					<parameter authoringApp="PremierePro">
					<parameterid>8</parameterid>
					<name></name>
					<IsTimeVarying>false</IsTimeVarying>
					<ParameterControlType>2</ParameterControlType>
					<LowerBound>0</LowerBound>
					<UpperBound>100</UpperBound>
					<value>-91445760000000000,100.,0,0,0,0,0,0</value>
					</parameter>
					</effect>
					</filter>
					<logginginfo>
					<description></description>
					<scene></scene>
					<shottake></shottake>
					<lognote></lognote>
					<good></good>
					<originalvideofilename></originalvideofilename>
					<originalaudiofilename></originalaudiofilename>
					</logginginfo>
					<colorinfo>
					<lut></lut>
					<lut1></lut1>
					<asc_sop></asc_sop>
					<asc_sat></asc_sat>
					<lut2></lut2>
					</colorinfo>
					<labels>
					</labels>
					</clipitem>
					<clipitem frameBlend="FALSE" id="clipitem-352">
					<masterclipid>masterclip-272</masterclipid>
					<name></name>
					<enabled>TRUE</enabled>
					<duration>2582774</duration>
					<rate>
					
					                                    <timebase>60</timebase>
					                                    <ntsc>TRUE</ntsc>
					                                
					</rate>
					<start>2321</start>
					<end>2381</end>
					<in>2321</in>
					<out>2381</out>
					<pproTicksIn>914456774963789</pproTicksIn>
					<pproTicksOut>914677708529577</pproTicksOut>
					<alphatype>straight</alphatype>
					<pixelaspectratio>square</pixelaspectratio>
					<anamorphic>FALSE</anamorphic>
					<file id="file-271">
					<name></name>
					<mediaSource>GraphicAndType</mediaSource>
					<rate>
					<timebase>60</timebase>
					<ntsc>TRUE</ntsc>
					</rate>
					<timecode>
					<rate>
					<timebase>60</timebase>
					<ntsc>TRUE</ntsc>
					</rate>
					<string>00:00:00:00</string>
					<frame>0</frame>
					<displayformat>NDF</displayformat>
					</timecode>
					<media>
					<video>
					<samplecharacteristics>
					<rate>
					<timebase>60</timebase>
					<ntsc>TRUE</ntsc>
					</rate>
					<width>1080</width>
					<height>1920</height>
					<anamorphic>FALSE</anamorphic>
					<pixelaspectratio>square</pixelaspectratio>
					<fielddominance>none</fielddominance>
					</samplecharacteristics>
					</video>
					</media>
					</file>
					<filter>
					<effect>
					<name></name>
					<effectid>GraphicAndType</effectid>
					<effectcategory>graphic</effectcategory>
					<effecttype>filter</effecttype>
					<mediatype>video</mediatype>
					<pproBypass>false</pproBypass>
					<parameter authoringApp="PremierePro">
					<parameterid>1</parameterid>
					<name></name>
					<hash>025b1101-ead6-0ca2-1feb-caf3000001fc</hash>
					<value>5AEAAAAAAABEMyIRDAAAAAAABgAKAAQABgAAAGQAAAAAAF4ASAAQAAwARABAADwAOAAAAAAAAAAAADQAMwAsAAAAKAAkACAAAAAAAAAAAAAAAAAAHAAAAAAAGgAAAAAAAAAUAAAAAAAAAAAAAAAAAAAAAAAAAAgAAAAAABsABwBeAAAAAAAAAUAAAABQAAAAbAAAAAIAAAAAAAEAAQAAAAAAQEEAAMBAAABAQAAAyEIAAAABIAAAAAIAAAACAAAAAAA2QwCASkTw/v//9P7///j+//8S////AAAAAAEAAAAEAAAAEQAAAEhHUFNvZWlLYWt1cG9wdGFpAAAAAQAAAAwAAAAIAAwABAAIAAgAAAAIAAAAUAAAAA8AAADvvIEAAAAAAAAAAAAAAAAAAAA2ACQAAAAgABwAAAAAABsAFAAAAAAAAAAAAAAAAAAAAAAAAAAAABAAAAAAAAAADAAAAAgABAA2AAAAAgAAABwAAAAcAAAAHAAAAAAAIEEAAAABaAAAAE3PAEOw////tP///wEAAAAUAAAAEAAaAAgABwAMAAAAEAAUABAAAAAAAAABHAAAAAAAoEEcAAAAAgAAAAAACgAIAAUABgAHAAoAAAAADAD//P///wQABAAEAAAACAAIAAYABwAIAAAAAAAMAA==</value>
					</parameter>
					<parameter authoringApp="PremierePro">
					<parameterid>2</parameterid>
					<name></name>
					<IsTimeVarying>false</IsTimeVarying>
					<ParameterControlType>11</ParameterControlType>
					<LowerBound>false</LowerBound>
					<UpperBound>false</UpperBound>
					<value>-91445760000000000,false,0,0,0,0,0,0</value>
					</parameter>
					<parameter authoringApp="PremierePro">
					<parameterid>3</parameterid>
					<name></name>
					<IsTimeVarying>false</IsTimeVarying>
					<value>-91445760000000000,0.5:0.5,0,0,0,0,0,0,5,4,0,0,0,0</value>
					</parameter>
					<parameter authoringApp="PremierePro">
					<parameterid>4</parameterid>
					<name></name>
					<IsTimeVarying>false</IsTimeVarying>
					<ParameterControlType>2</ParameterControlType>
					<LowerBound>0</LowerBound>
					<UpperBound>4000</UpperBound>
					<value>-91445760000000000,100.,0,0,0,0,0,0</value>
					</parameter>
					<parameter authoringApp="PremierePro">
					<parameterid>8</parameterid>
					<name></name>
					<IsTimeVarying>false</IsTimeVarying>
					<ParameterControlType>2</ParameterControlType>
					<LowerBound>0</LowerBound>
					<UpperBound>100</UpperBound>
					<value>-91445760000000000,100.,0,0,0,0,0,0</value>
					</parameter>
					</effect>
					</filter>
					<logginginfo>
					<description></description>
					<scene></scene>
					<shottake></shottake>
					<lognote></lognote>
					<good></good>
					<originalvideofilename></originalvideofilename>
					<originalaudiofilename></originalaudiofilename>
					</logginginfo>
					<colorinfo>
					<lut></lut>
					<lut1></lut1>
					<asc_sop></asc_sop>
					<asc_sat></asc_sat>
					<lut2></lut2>
					</colorinfo>
					<labels>
					</labels>
					</clipitem>
					<clipitem frameBlend="FALSE" id="clipitem-360">
					<masterclipid>masterclip-280</masterclipid>
					<name></name>
					<enabled>TRUE</enabled>
					<duration>2582774</duration>
					<rate>
					
					                                    <timebase>60</timebase>
					                                    <ntsc>TRUE</ntsc>
					                                
					</rate>
					<start>2447</start>
					<end>2507</end>
					<in>2447</in>
					<out>2507</out>
					<pproTicksIn>914456774963789</pproTicksIn>
					<pproTicksOut>914677708529577</pproTicksOut>
					<alphatype>straight</alphatype>
					<pixelaspectratio>square</pixelaspectratio>
					<anamorphic>FALSE</anamorphic>
					<file id="file-279">
					<name></name>
					<mediaSource>GraphicAndType</mediaSource>
					<rate>
					<timebase>60</timebase>
					<ntsc>TRUE</ntsc>
					</rate>
					<timecode>
					<rate>
					<timebase>60</timebase>
					<ntsc>TRUE</ntsc>
					</rate>
					<string>00:00:00:00</string>
					<frame>0</frame>
					<displayformat>NDF</displayformat>
					</timecode>
					<media>
					<video>
					<samplecharacteristics>
					<rate>
					<timebase>60</timebase>
					<ntsc>TRUE</ntsc>
					</rate>
					<width>1080</width>
					<height>1920</height>
					<anamorphic>FALSE</anamorphic>
					<pixelaspectratio>square</pixelaspectratio>
					<fielddominance>none</fielddominance>
					</samplecharacteristics>
					</video>
					</media>
					</file>
					<filter>
					<effect>
					<name></name>
					<effectid>GraphicAndType</effectid>
					<effectcategory>graphic</effectcategory>
					<effecttype>filter</effecttype>
					<mediatype>video</mediatype>
					<pproBypass>false</pproBypass>
					<parameter authoringApp="PremierePro">
					<parameterid>1</parameterid>
					<name></name>
					<hash>025b1101-ead6-0ca2-1feb-caf3000001fc</hash>
					<value>5AEAAAAAAABEMyIRDAAAAAAABgAKAAQABgAAAGQAAAAAAF4ASAAQAAwARABAADwAOAAAAAAAAAAAADQAMwAsAAAAKAAkACAAAAAAAAAAAAAAAAAAHAAAAAAAGgAAAAAAAAAUAAAAAAAAAAAAAAAAAAAAAAAAAAgAAAAAABsABwBeAAAAAAAAAUAAAABQAAAAbAAAAAIAAAAAAAEAAQAAAAAAQEEAAMBAAABAQAAAyEIAAAABIAAAAAIAAAACAAAAAAA2QwCASkTw/v//9P7///j+//8S////AAAAAAEAAAAEAAAAEQAAAEhHUFNvZWlLYWt1cG9wdGFpAAAAAQAAAAwAAAAIAAwABAAIAAgAAAAIAAAAUAAAAA8AAADvvIEAAAAAAAAAAAAAAAAAAAA2ACQAAAAgABwAAAAAABsAFAAAAAAAAAAAAAAAAAAAAAAAAAAAABAAAAAAAAAADAAAAAgABAA2AAAAAgAAABwAAAAcAAAAHAAAAAAAIEEAAAABaAAAAE3PAEOw////tP///wEAAAAUAAAAEAAaAAgABwAMAAAAEAAUABAAAAAAAAABHAAAAAAAoEEcAAAAAgAAAAAACgAIAAUABgAHAAoAAAAADAD//P///wQABAAEAAAACAAIAAYABwAIAAAAAAAMAA==</value>
					</parameter>
					<parameter authoringApp="PremierePro">
					<parameterid>2</parameterid>
					<name></name>
					<IsTimeVarying>false</IsTimeVarying>
					<ParameterControlType>11</ParameterControlType>
					<LowerBound>false</LowerBound>
					<UpperBound>false</UpperBound>
					<value>-91445760000000000,false,0,0,0,0,0,0</value>
					</parameter>
					<parameter authoringApp="PremierePro">
					<parameterid>3</parameterid>
					<name></name>
					<IsTimeVarying>false</IsTimeVarying>
					<value>-91445760000000000,0.5:0.5,0,0,0,0,0,0,5,4,0,0,0,0</value>
					</parameter>
					<parameter authoringApp="PremierePro">
					<parameterid>4</parameterid>
					<name></name>
					<IsTimeVarying>false</IsTimeVarying>
					<ParameterControlType>2</ParameterControlType>
					<LowerBound>0</LowerBound>
					<UpperBound>4000</UpperBound>
					<value>-91445760000000000,100.,0,0,0,0,0,0</value>
					</parameter>
					<parameter authoringApp="PremierePro">
					<parameterid>8</parameterid>
					<name></name>
					<IsTimeVarying>false</IsTimeVarying>
					<ParameterControlType>2</ParameterControlType>
					<LowerBound>0</LowerBound>
					<UpperBound>100</UpperBound>
					<value>-91445760000000000,100.,0,0,0,0,0,0</value>
					</parameter>
					</effect>
					</filter>
					<logginginfo>
					<description></description>
					<scene></scene>
					<shottake></shottake>
					<lognote></lognote>
					<good></good>
					<originalvideofilename></originalvideofilename>
					<originalaudiofilename></originalaudiofilename>
					</logginginfo>
					<colorinfo>
					<lut></lut>
					<lut1></lut1>
					<asc_sop></asc_sop>
					<asc_sat></asc_sat>
					<lut2></lut2>
					</colorinfo>
					<labels>
					</labels>
					</clipitem>
					<clipitem frameBlend="FALSE" id="clipitem-366">
					<masterclipid>masterclip-286</masterclipid>
					<name></name>
					<enabled>TRUE</enabled>
					<duration>2582774</duration>
					<rate>
					
					                                    <timebase>60</timebase>
					                                    <ntsc>TRUE</ntsc>
					                                
					</rate>
					<start>2537</start>
					<end>2597</end>
					<in>2537</in>
					<out>2597</out>
					<pproTicksIn>914456774963789</pproTicksIn>
					<pproTicksOut>914677708529577</pproTicksOut>
					<alphatype>straight</alphatype>
					<pixelaspectratio>square</pixelaspectratio>
					<anamorphic>FALSE</anamorphic>
					<file id="file-285">
					<name></name>
					<mediaSource>GraphicAndType</mediaSource>
					<rate>
					<timebase>60</timebase>
					<ntsc>TRUE</ntsc>
					</rate>
					<timecode>
					<rate>
					<timebase>60</timebase>
					<ntsc>TRUE</ntsc>
					</rate>
					<string>00:00:00:00</string>
					<frame>0</frame>
					<displayformat>NDF</displayformat>
					</timecode>
					<media>
					<video>
					<samplecharacteristics>
					<rate>
					<timebase>60</timebase>
					<ntsc>TRUE</ntsc>
					</rate>
					<width>1080</width>
					<height>1920</height>
					<anamorphic>FALSE</anamorphic>
					<pixelaspectratio>square</pixelaspectratio>
					<fielddominance>none</fielddominance>
					</samplecharacteristics>
					</video>
					</media>
					</file>
					<filter>
					<effect>
					<name></name>
					<effectid>GraphicAndType</effectid>
					<effectcategory>graphic</effectcategory>
					<effecttype>filter</effecttype>
					<mediatype>video</mediatype>
					<pproBypass>false</pproBypass>
					<parameter authoringApp="PremierePro">
					<parameterid>1</parameterid>
					<name></name>
					<hash>025b1101-ead6-0ca2-1feb-caf3000001fc</hash>
					<value>5AEAAAAAAABEMyIRDAAAAAAABgAKAAQABgAAAGQAAAAAAF4ASAAQAAwARABAADwAOAAAAAAAAAAAADQAMwAsAAAAKAAkACAAAAAAAAAAAAAAAAAAHAAAAAAAGgAAAAAAAAAUAAAAAAAAAAAAAAAAAAAAAAAAAAgAAAAAABsABwBeAAAAAAAAAUAAAABQAAAAbAAAAAIAAAAAAAEAAQAAAAAAQEEAAMBAAABAQAAAyEIAAAABIAAAAAIAAAACAAAAAAA2QwCASkTw/v//9P7///j+//8S////AAAAAAEAAAAEAAAAEQAAAEhHUFNvZWlLYWt1cG9wdGFpAAAAAQAAAAwAAAAIAAwABAAIAAgAAAAIAAAAUAAAAA8AAADvvIEAAAAAAAAAAAAAAAAAAAA2ACQAAAAgABwAAAAAABsAFAAAAAAAAAAAAAAAAAAAAAAAAAAAABAAAAAAAAAADAAAAAgABAA2AAAAAgAAABwAAAAcAAAAHAAAAAAAIEEAAAABaAAAAE3PAEOw////tP///wEAAAAUAAAAEAAaAAgABwAMAAAAEAAUABAAAAAAAAABHAAAAAAAoEEcAAAAAgAAAAAACgAIAAUABgAHAAoAAAAADAD//P///wQABAAEAAAACAAIAAYABwAIAAAAAAAMAA==</value>
					</parameter>
					<parameter authoringApp="PremierePro">
					<parameterid>2</parameterid>
					<name></name>
					<IsTimeVarying>false</IsTimeVarying>
					<ParameterControlType>11</ParameterControlType>
					<LowerBound>false</LowerBound>
					<UpperBound>false</UpperBound>
					<value>-91445760000000000,false,0,0,0,0,0,0</value>
					</parameter>
					<parameter authoringApp="PremierePro">
					<parameterid>3</parameterid>
					<name></name>
					<IsTimeVarying>false</IsTimeVarying>
					<value>-91445760000000000,0.5:0.5,0,0,0,0,0,0,5,4,0,0,0,0</value>
					</parameter>
					<parameter authoringApp="PremierePro">
					<parameterid>4</parameterid>
					<name></name>
					<IsTimeVarying>false</IsTimeVarying>
					<ParameterControlType>2</ParameterControlType>
					<LowerBound>0</LowerBound>
					<UpperBound>4000</UpperBound>
					<value>-91445760000000000,100.,0,0,0,0,0,0</value>
					</parameter>
					<parameter authoringApp="PremierePro">
					<parameterid>8</parameterid>
					<name></name>
					<IsTimeVarying>false</IsTimeVarying>
					<ParameterControlType>2</ParameterControlType>
					<LowerBound>0</LowerBound>
					<UpperBound>100</UpperBound>
					<value>-91445760000000000,100.,0,0,0,0,0,0</value>
					</parameter>
					</effect>
					</filter>
					<logginginfo>
					<description></description>
					<scene></scene>
					<shottake></shottake>
					<lognote></lognote>
					<good></good>
					<originalvideofilename></originalvideofilename>
					<originalaudiofilename></originalaudiofilename>
					</logginginfo>
					<colorinfo>
					<lut></lut>
					<lut1></lut1>
					<asc_sop></asc_sop>
					<asc_sat></asc_sat>
					<lut2></lut2>
					</colorinfo>
					<labels>
					</labels>
					</clipitem>
					<clipitem frameBlend="FALSE" id="clipitem-375">
					<masterclipid>masterclip-295</masterclipid>
					<name></name>
					<enabled>TRUE</enabled>
					<duration>2582774</duration>
					<rate>
					
					                                    <timebase>60</timebase>
					                                    <ntsc>TRUE</ntsc>
					                                
					</rate>
					<start>2627</start>
					<end>2693</end>
					<in>2627</in>
					<out>2693</out>
					<pproTicksIn>914456774963789</pproTicksIn>
					<pproTicksOut>914677708529577</pproTicksOut>
					<alphatype>straight</alphatype>
					<pixelaspectratio>square</pixelaspectratio>
					<anamorphic>FALSE</anamorphic>
					<file id="file-294">
					<name></name>
					<mediaSource>GraphicAndType</mediaSource>
					<rate>
					<timebase>60</timebase>
					<ntsc>TRUE</ntsc>
					</rate>
					<timecode>
					<rate>
					<timebase>60</timebase>
					<ntsc>TRUE</ntsc>
					</rate>
					<string>00:00:00:00</string>
					<frame>0</frame>
					<displayformat>NDF</displayformat>
					</timecode>
					<media>
					<video>
					<samplecharacteristics>
					<rate>
					<timebase>60</timebase>
					<ntsc>TRUE</ntsc>
					</rate>
					<width>1080</width>
					<height>1920</height>
					<anamorphic>FALSE</anamorphic>
					<pixelaspectratio>square</pixelaspectratio>
					<fielddominance>none</fielddominance>
					</samplecharacteristics>
					</video>
					</media>
					</file>
					<filter>
					<effect>
					<name></name>
					<effectid>GraphicAndType</effectid>
					<effectcategory>graphic</effectcategory>
					<effecttype>filter</effecttype>
					<mediatype>video</mediatype>
					<pproBypass>false</pproBypass>
					<parameter authoringApp="PremierePro">
					<parameterid>1</parameterid>
					<name></name>
					<hash>025b1101-ead6-0ca2-1feb-caf3000001fc</hash>
					<value>5AEAAAAAAABEMyIRDAAAAAAABgAKAAQABgAAAGQAAAAAAF4ASAAQAAwARABAADwAOAAAAAAAAAAAADQAMwAsAAAAKAAkACAAAAAAAAAAAAAAAAAAHAAAAAAAGgAAAAAAAAAUAAAAAAAAAAAAAAAAAAAAAAAAAAgAAAAAABsABwBeAAAAAAAAAUAAAABQAAAAbAAAAAIAAAAAAAEAAQAAAAAAQEEAAMBAAABAQAAAyEIAAAABIAAAAAIAAAACAAAAAAA2QwCASkTw/v//9P7///j+//8S////AAAAAAEAAAAEAAAAEQAAAEhHUFNvZWlLYWt1cG9wdGFpAAAAAQAAAAwAAAAIAAwABAAIAAgAAAAIAAAAUAAAAA8AAADvvIEAAAAAAAAAAAAAAAAAAAA2ACQAAAAgABwAAAAAABsAFAAAAAAAAAAAAAAAAAAAAAAAAAAAABAAAAAAAAAADAAAAAgABAA2AAAAAgAAABwAAAAcAAAAHAAAAAAAIEEAAAABaAAAAE3PAEOw////tP///wEAAAAUAAAAEAAaAAgABwAMAAAAEAAUABAAAAAAAAABHAAAAAAAoEEcAAAAAgAAAAAACgAIAAUABgAHAAoAAAAADAD//P///wQABAAEAAAACAAIAAYABwAIAAAAAAAMAA==</value>
					</parameter>
					<parameter authoringApp="PremierePro">
					<parameterid>2</parameterid>
					<name></name>
					<IsTimeVarying>false</IsTimeVarying>
					<ParameterControlType>11</ParameterControlType>
					<LowerBound>false</LowerBound>
					<UpperBound>false</UpperBound>
					<value>-91445760000000000,false,0,0,0,0,0,0</value>
					</parameter>
					<parameter authoringApp="PremierePro">
					<parameterid>3</parameterid>
					<name></name>
					<IsTimeVarying>false</IsTimeVarying>
					<value>-91445760000000000,0.5:0.5,0,0,0,0,0,0,5,4,0,0,0,0</value>
					</parameter>
					<parameter authoringApp="PremierePro">
					<parameterid>4</parameterid>
					<name></name>
					<IsTimeVarying>false</IsTimeVarying>
					<ParameterControlType>2</ParameterControlType>
					<LowerBound>0</LowerBound>
					<UpperBound>4000</UpperBound>
					<value>-91445760000000000,100.,0,0,0,0,0,0</value>
					</parameter>
					<parameter authoringApp="PremierePro">
					<parameterid>8</parameterid>
					<name></name>
					<IsTimeVarying>false</IsTimeVarying>
					<ParameterControlType>2</ParameterControlType>
					<LowerBound>0</LowerBound>
					<UpperBound>100</UpperBound>
					<value>-91445760000000000,100.,0,0,0,0,0,0</value>
					</parameter>
					</effect>
					</filter>
					<logginginfo>
					<description></description>
					<scene></scene>
					<shottake></shottake>
					<lognote></lognote>
					<good></good>
					<originalvideofilename></originalvideofilename>
					<originalaudiofilename></originalaudiofilename>
					</logginginfo>
					<colorinfo>
					<lut></lut>
					<lut1></lut1>
					<asc_sop></asc_sop>
					<asc_sat></asc_sat>
					<lut2></lut2>
					</colorinfo>
					<labels>
					</labels>
					</clipitem>
					<clipitem frameBlend="FALSE" id="clipitem-383">
					<masterclipid>masterclip-303</masterclipid>
					<name></name>
					<enabled>TRUE</enabled>
					<duration>2582774</duration>
					<rate>
					
					                                    <timebase>60</timebase>
					                                    <ntsc>TRUE</ntsc>
					                                
					</rate>
					<start>2699</start>
					<end>2759</end>
					<in>2699</in>
					<out>2759</out>
					<pproTicksIn>914456774963789</pproTicksIn>
					<pproTicksOut>914677708529577</pproTicksOut>
					<alphatype>straight</alphatype>
					<pixelaspectratio>square</pixelaspectratio>
					<anamorphic>FALSE</anamorphic>
					<file id="file-302">
					<name></name>
					<mediaSource>GraphicAndType</mediaSource>
					<rate>
					<timebase>60</timebase>
					<ntsc>TRUE</ntsc>
					</rate>
					<timecode>
					<rate>
					<timebase>60</timebase>
					<ntsc>TRUE</ntsc>
					</rate>
					<string>00:00:00:00</string>
					<frame>0</frame>
					<displayformat>NDF</displayformat>
					</timecode>
					<media>
					<video>
					<samplecharacteristics>
					<rate>
					<timebase>60</timebase>
					<ntsc>TRUE</ntsc>
					</rate>
					<width>1080</width>
					<height>1920</height>
					<anamorphic>FALSE</anamorphic>
					<pixelaspectratio>square</pixelaspectratio>
					<fielddominance>none</fielddominance>
					</samplecharacteristics>
					</video>
					</media>
					</file>
					<filter>
					<effect>
					<name></name>
					<effectid>GraphicAndType</effectid>
					<effectcategory>graphic</effectcategory>
					<effecttype>filter</effecttype>
					<mediatype>video</mediatype>
					<pproBypass>false</pproBypass>
					<parameter authoringApp="PremierePro">
					<parameterid>1</parameterid>
					<name></name>
					<hash>025b1101-ead6-0ca2-1feb-caf3000001fc</hash>
					<value>5AEAAAAAAABEMyIRDAAAAAAABgAKAAQABgAAAGQAAAAAAF4ASAAQAAwARABAADwAOAAAAAAAAAAAADQAMwAsAAAAKAAkACAAAAAAAAAAAAAAAAAAHAAAAAAAGgAAAAAAAAAUAAAAAAAAAAAAAAAAAAAAAAAAAAgAAAAAABsABwBeAAAAAAAAAUAAAABQAAAAbAAAAAIAAAAAAAEAAQAAAAAAQEEAAMBAAABAQAAAyEIAAAABIAAAAAIAAAACAAAAAAA2QwCASkTw/v//9P7///j+//8S////AAAAAAEAAAAEAAAAEQAAAEhHUFNvZWlLYWt1cG9wdGFpAAAAAQAAAAwAAAAIAAwABAAIAAgAAAAIAAAAUAAAAA8AAADvvIEAAAAAAAAAAAAAAAAAAAA2ACQAAAAgABwAAAAAABsAFAAAAAAAAAAAAAAAAAAAAAAAAAAAABAAAAAAAAAADAAAAAgABAA2AAAAAgAAABwAAAAcAAAAHAAAAAAAIEEAAAABaAAAAE3PAEOw////tP///wEAAAAUAAAAEAAaAAgABwAMAAAAEAAUABAAAAAAAAABHAAAAAAAoEEcAAAAAgAAAAAACgAIAAUABgAHAAoAAAAADAD//P///wQABAAEAAAACAAIAAYABwAIAAAAAAAMAA==</value>
					</parameter>
					<parameter authoringApp="PremierePro">
					<parameterid>2</parameterid>
					<name></name>
					<IsTimeVarying>false</IsTimeVarying>
					<ParameterControlType>11</ParameterControlType>
					<LowerBound>false</LowerBound>
					<UpperBound>false</UpperBound>
					<value>-91445760000000000,false,0,0,0,0,0,0</value>
					</parameter>
					<parameter authoringApp="PremierePro">
					<parameterid>3</parameterid>
					<name></name>
					<IsTimeVarying>false</IsTimeVarying>
					<value>-91445760000000000,0.5:0.5,0,0,0,0,0,0,5,4,0,0,0,0</value>
					</parameter>
					<parameter authoringApp="PremierePro">
					<parameterid>4</parameterid>
					<name></name>
					<IsTimeVarying>false</IsTimeVarying>
					<ParameterControlType>2</ParameterControlType>
					<LowerBound>0</LowerBound>
					<UpperBound>4000</UpperBound>
					<value>-91445760000000000,100.,0,0,0,0,0,0</value>
					</parameter>
					<parameter authoringApp="PremierePro">
					<parameterid>8</parameterid>
					<name></name>
					<IsTimeVarying>false</IsTimeVarying>
					<ParameterControlType>2</ParameterControlType>
					<LowerBound>0</LowerBound>
					<UpperBound>100</UpperBound>
					<value>-91445760000000000,100.,0,0,0,0,0,0</value>
					</parameter>
					</effect>
					</filter>
					<logginginfo>
					<description></description>
					<scene></scene>
					<shottake></shottake>
					<lognote></lognote>
					<good></good>
					<originalvideofilename></originalvideofilename>
					<originalaudiofilename></originalaudiofilename>
					</logginginfo>
					<colorinfo>
					<lut></lut>
					<lut1></lut1>
					<asc_sop></asc_sop>
					<asc_sat></asc_sat>
					<lut2></lut2>
					</colorinfo>
					<labels>
					</labels>
					</clipitem>
					<clipitem frameBlend="FALSE" id="clipitem-390">
					<masterclipid>masterclip-310</masterclipid>
					<name></name>
					<enabled>TRUE</enabled>
					<duration>2582774</duration>
					<rate>
					
					                                    <timebase>60</timebase>
					                                    <ntsc>TRUE</ntsc>
					                                
					</rate>
					<start>2765</start>
					<end>2825</end>
					<in>2765</in>
					<out>2825</out>
					<pproTicksIn>914456774963789</pproTicksIn>
					<pproTicksOut>914677708529577</pproTicksOut>
					<alphatype>straight</alphatype>
					<pixelaspectratio>square</pixelaspectratio>
					<anamorphic>FALSE</anamorphic>
					<file id="file-309">
					<name></name>
					<mediaSource>GraphicAndType</mediaSource>
					<rate>
					<timebase>60</timebase>
					<ntsc>TRUE</ntsc>
					</rate>
					<timecode>
					<rate>
					<timebase>60</timebase>
					<ntsc>TRUE</ntsc>
					</rate>
					<string>00:00:00:00</string>
					<frame>0</frame>
					<displayformat>NDF</displayformat>
					</timecode>
					<media>
					<video>
					<samplecharacteristics>
					<rate>
					<timebase>60</timebase>
					<ntsc>TRUE</ntsc>
					</rate>
					<width>1080</width>
					<height>1920</height>
					<anamorphic>FALSE</anamorphic>
					<pixelaspectratio>square</pixelaspectratio>
					<fielddominance>none</fielddominance>
					</samplecharacteristics>
					</video>
					</media>
					</file>
					<filter>
					<effect>
					<name></name>
					<effectid>GraphicAndType</effectid>
					<effectcategory>graphic</effectcategory>
					<effecttype>filter</effecttype>
					<mediatype>video</mediatype>
					<pproBypass>false</pproBypass>
					<parameter authoringApp="PremierePro">
					<parameterid>1</parameterid>
					<name></name>
					<hash>025b1101-ead6-0ca2-1feb-caf3000001fc</hash>
					<value>5AEAAAAAAABEMyIRDAAAAAAABgAKAAQABgAAAGQAAAAAAF4ASAAQAAwARABAADwAOAAAAAAAAAAAADQAMwAsAAAAKAAkACAAAAAAAAAAAAAAAAAAHAAAAAAAGgAAAAAAAAAUAAAAAAAAAAAAAAAAAAAAAAAAAAgAAAAAABsABwBeAAAAAAAAAUAAAABQAAAAbAAAAAIAAAAAAAEAAQAAAAAAQEEAAMBAAABAQAAAyEIAAAABIAAAAAIAAAACAAAAAAA2QwCASkTw/v//9P7///j+//8S////AAAAAAEAAAAEAAAAEQAAAEhHUFNvZWlLYWt1cG9wdGFpAAAAAQAAAAwAAAAIAAwABAAIAAgAAAAIAAAAUAAAAA8AAADvvIEAAAAAAAAAAAAAAAAAAAA2ACQAAAAgABwAAAAAABsAFAAAAAAAAAAAAAAAAAAAAAAAAAAAABAAAAAAAAAADAAAAAgABAA2AAAAAgAAABwAAAAcAAAAHAAAAAAAIEEAAAABaAAAAE3PAEOw////tP///wEAAAAUAAAAEAAaAAgABwAMAAAAEAAUABAAAAAAAAABHAAAAAAAoEEcAAAAAgAAAAAACgAIAAUABgAHAAoAAAAADAD//P///wQABAAEAAAACAAIAAYABwAIAAAAAAAMAA==</value>
					</parameter>
					<parameter authoringApp="PremierePro">
					<parameterid>2</parameterid>
					<name></name>
					<IsTimeVarying>false</IsTimeVarying>
					<ParameterControlType>11</ParameterControlType>
					<LowerBound>false</LowerBound>
					<UpperBound>false</UpperBound>
					<value>-91445760000000000,false,0,0,0,0,0,0</value>
					</parameter>
					<parameter authoringApp="PremierePro">
					<parameterid>3</parameterid>
					<name></name>
					<IsTimeVarying>false</IsTimeVarying>
					<value>-91445760000000000,0.5:0.5,0,0,0,0,0,0,5,4,0,0,0,0</value>
					</parameter>
					<parameter authoringApp="PremierePro">
					<parameterid>4</parameterid>
					<name></name>
					<IsTimeVarying>false</IsTimeVarying>
					<ParameterControlType>2</ParameterControlType>
					<LowerBound>0</LowerBound>
					<UpperBound>4000</UpperBound>
					<value>-91445760000000000,100.,0,0,0,0,0,0</value>
					</parameter>
					<parameter authoringApp="PremierePro">
					<parameterid>8</parameterid>
					<name></name>
					<IsTimeVarying>false</IsTimeVarying>
					<ParameterControlType>2</ParameterControlType>
					<LowerBound>0</LowerBound>
					<UpperBound>100</UpperBound>
					<value>-91445760000000000,100.,0,0,0,0,0,0</value>
					</parameter>
					</effect>
					</filter>
					<logginginfo>
					<description></description>
					<scene></scene>
					<shottake></shottake>
					<lognote></lognote>
					<good></good>
					<originalvideofilename></originalvideofilename>
					<originalaudiofilename></originalaudiofilename>
					</logginginfo>
					<colorinfo>
					<lut></lut>
					<lut1></lut1>
					<asc_sop></asc_sop>
					<asc_sat></asc_sat>
					<lut2></lut2>
					</colorinfo>
					<labels>
					</labels>
					</clipitem>
					<clipitem frameBlend="FALSE" id="clipitem-398">
					<masterclipid>masterclip-318</masterclipid>
					<name></name>
					<enabled>TRUE</enabled>
					<duration>2582774</duration>
					<rate>
					
					                                    <timebase>60</timebase>
					                                    <ntsc>TRUE</ntsc>
					                                
					</rate>
					<start>2831</start>
					<end>2897</end>
					<in>2831</in>
					<out>2897</out>
					<pproTicksIn>914456774963789</pproTicksIn>
					<pproTicksOut>914677708529577</pproTicksOut>
					<alphatype>straight</alphatype>
					<pixelaspectratio>square</pixelaspectratio>
					<anamorphic>FALSE</anamorphic>
					<file id="file-317">
					<name></name>
					<mediaSource>GraphicAndType</mediaSource>
					<rate>
					<timebase>60</timebase>
					<ntsc>TRUE</ntsc>
					</rate>
					<timecode>
					<rate>
					<timebase>60</timebase>
					<ntsc>TRUE</ntsc>
					</rate>
					<string>00:00:00:00</string>
					<frame>0</frame>
					<displayformat>NDF</displayformat>
					</timecode>
					<media>
					<video>
					<samplecharacteristics>
					<rate>
					<timebase>60</timebase>
					<ntsc>TRUE</ntsc>
					</rate>
					<width>1080</width>
					<height>1920</height>
					<anamorphic>FALSE</anamorphic>
					<pixelaspectratio>square</pixelaspectratio>
					<fielddominance>none</fielddominance>
					</samplecharacteristics>
					</video>
					</media>
					</file>
					<filter>
					<effect>
					<name></name>
					<effectid>GraphicAndType</effectid>
					<effectcategory>graphic</effectcategory>
					<effecttype>filter</effecttype>
					<mediatype>video</mediatype>
					<pproBypass>false</pproBypass>
					<parameter authoringApp="PremierePro">
					<parameterid>1</parameterid>
					<name></name>
					<hash>025b1101-ead6-0ca2-1feb-caf3000001fc</hash>
					<value>5AEAAAAAAABEMyIRDAAAAAAABgAKAAQABgAAAGQAAAAAAF4ASAAQAAwARABAADwAOAAAAAAAAAAAADQAMwAsAAAAKAAkACAAAAAAAAAAAAAAAAAAHAAAAAAAGgAAAAAAAAAUAAAAAAAAAAAAAAAAAAAAAAAAAAgAAAAAABsABwBeAAAAAAAAAUAAAABQAAAAbAAAAAIAAAAAAAEAAQAAAAAAQEEAAMBAAABAQAAAyEIAAAABIAAAAAIAAAACAAAAAAA2QwCASkTw/v//9P7///j+//8S////AAAAAAEAAAAEAAAAEQAAAEhHUFNvZWlLYWt1cG9wdGFpAAAAAQAAAAwAAAAIAAwABAAIAAgAAAAIAAAAUAAAAA8AAADvvIEAAAAAAAAAAAAAAAAAAAA2ACQAAAAgABwAAAAAABsAFAAAAAAAAAAAAAAAAAAAAAAAAAAAABAAAAAAAAAADAAAAAgABAA2AAAAAgAAABwAAAAcAAAAHAAAAAAAIEEAAAABaAAAAE3PAEOw////tP///wEAAAAUAAAAEAAaAAgABwAMAAAAEAAUABAAAAAAAAABHAAAAAAAoEEcAAAAAgAAAAAACgAIAAUABgAHAAoAAAAADAD//P///wQABAAEAAAACAAIAAYABwAIAAAAAAAMAA==</value>
					</parameter>
					<parameter authoringApp="PremierePro">
					<parameterid>2</parameterid>
					<name></name>
					<IsTimeVarying>false</IsTimeVarying>
					<ParameterControlType>11</ParameterControlType>
					<LowerBound>false</LowerBound>
					<UpperBound>false</UpperBound>
					<value>-91445760000000000,false,0,0,0,0,0,0</value>
					</parameter>
					<parameter authoringApp="PremierePro">
					<parameterid>3</parameterid>
					<name></name>
					<IsTimeVarying>false</IsTimeVarying>
					<value>-91445760000000000,0.5:0.5,0,0,0,0,0,0,5,4,0,0,0,0</value>
					</parameter>
					<parameter authoringApp="PremierePro">
					<parameterid>4</parameterid>
					<name></name>
					<IsTimeVarying>false</IsTimeVarying>
					<ParameterControlType>2</ParameterControlType>
					<LowerBound>0</LowerBound>
					<UpperBound>4000</UpperBound>
					<value>-91445760000000000,100.,0,0,0,0,0,0</value>
					</parameter>
					<parameter authoringApp="PremierePro">
					<parameterid>8</parameterid>
					<name></name>
					<IsTimeVarying>false</IsTimeVarying>
					<ParameterControlType>2</ParameterControlType>
					<LowerBound>0</LowerBound>
					<UpperBound>100</UpperBound>
					<value>-91445760000000000,100.,0,0,0,0,0,0</value>
					</parameter>
					</effect>
					</filter>
					<logginginfo>
					<description></description>
					<scene></scene>
					<shottake></shottake>
					<lognote></lognote>
					<good></good>
					<originalvideofilename></originalvideofilename>
					<originalaudiofilename></originalaudiofilename>
					</logginginfo>
					<colorinfo>
					<lut></lut>
					<lut1></lut1>
					<asc_sop></asc_sop>
					<asc_sat></asc_sat>
					<lut2></lut2>
					</colorinfo>
					<labels>
					</labels>
					</clipitem>
					<clipitem frameBlend="FALSE" id="clipitem-405">
					<masterclipid>masterclip-325</masterclipid>
					<name></name>
					<enabled>TRUE</enabled>
					<duration>2582774</duration>
					<rate>
					
					                                    <timebase>60</timebase>
					                                    <ntsc>TRUE</ntsc>
					                                
					</rate>
					<start>2915</start>
					<end>2975</end>
					<in>2915</in>
					<out>2975</out>
					<pproTicksIn>914456774963789</pproTicksIn>
					<pproTicksOut>914677708529577</pproTicksOut>
					<alphatype>straight</alphatype>
					<pixelaspectratio>square</pixelaspectratio>
					<anamorphic>FALSE</anamorphic>
					<file id="file-324">
					<name></name>
					<mediaSource>GraphicAndType</mediaSource>
					<rate>
					<timebase>60</timebase>
					<ntsc>TRUE</ntsc>
					</rate>
					<timecode>
					<rate>
					<timebase>60</timebase>
					<ntsc>TRUE</ntsc>
					</rate>
					<string>00:00:00:00</string>
					<frame>0</frame>
					<displayformat>NDF</displayformat>
					</timecode>
					<media>
					<video>
					<samplecharacteristics>
					<rate>
					<timebase>60</timebase>
					<ntsc>TRUE</ntsc>
					</rate>
					<width>1080</width>
					<height>1920</height>
					<anamorphic>FALSE</anamorphic>
					<pixelaspectratio>square</pixelaspectratio>
					<fielddominance>none</fielddominance>
					</samplecharacteristics>
					</video>
					</media>
					</file>
					<filter>
					<effect>
					<name></name>
					<effectid>GraphicAndType</effectid>
					<effectcategory>graphic</effectcategory>
					<effecttype>filter</effecttype>
					<mediatype>video</mediatype>
					<pproBypass>false</pproBypass>
					<parameter authoringApp="PremierePro">
					<parameterid>1</parameterid>
					<name></name>
					<hash>025b1101-ead6-0ca2-1feb-caf3000001fc</hash>
					<value>5AEAAAAAAABEMyIRDAAAAAAABgAKAAQABgAAAGQAAAAAAF4ASAAQAAwARABAADwAOAAAAAAAAAAAADQAMwAsAAAAKAAkACAAAAAAAAAAAAAAAAAAHAAAAAAAGgAAAAAAAAAUAAAAAAAAAAAAAAAAAAAAAAAAAAgAAAAAABsABwBeAAAAAAAAAUAAAABQAAAAbAAAAAIAAAAAAAEAAQAAAAAAQEEAAMBAAABAQAAAyEIAAAABIAAAAAIAAAACAAAAAAA2QwCASkTw/v//9P7///j+//8S////AAAAAAEAAAAEAAAAEQAAAEhHUFNvZWlLYWt1cG9wdGFpAAAAAQAAAAwAAAAIAAwABAAIAAgAAAAIAAAAUAAAAA8AAADvvIEAAAAAAAAAAAAAAAAAAAA2ACQAAAAgABwAAAAAABsAFAAAAAAAAAAAAAAAAAAAAAAAAAAAABAAAAAAAAAADAAAAAgABAA2AAAAAgAAABwAAAAcAAAAHAAAAAAAIEEAAAABaAAAAE3PAEOw////tP///wEAAAAUAAAAEAAaAAgABwAMAAAAEAAUABAAAAAAAAABHAAAAAAAoEEcAAAAAgAAAAAACgAIAAUABgAHAAoAAAAADAD//P///wQABAAEAAAACAAIAAYABwAIAAAAAAAMAA==</value>
					</parameter>
					<parameter authoringApp="PremierePro">
					<parameterid>2</parameterid>
					<name></name>
					<IsTimeVarying>false</IsTimeVarying>
					<ParameterControlType>11</ParameterControlType>
					<LowerBound>false</LowerBound>
					<UpperBound>false</UpperBound>
					<value>-91445760000000000,false,0,0,0,0,0,0</value>
					</parameter>
					<parameter authoringApp="PremierePro">
					<parameterid>3</parameterid>
					<name></name>
					<IsTimeVarying>false</IsTimeVarying>
					<value>-91445760000000000,0.5:0.5,0,0,0,0,0,0,5,4,0,0,0,0</value>
					</parameter>
					<parameter authoringApp="PremierePro">
					<parameterid>4</parameterid>
					<name></name>
					<IsTimeVarying>false</IsTimeVarying>
					<ParameterControlType>2</ParameterControlType>
					<LowerBound>0</LowerBound>
					<UpperBound>4000</UpperBound>
					<value>-91445760000000000,100.,0,0,0,0,0,0</value>
					</parameter>
					<parameter authoringApp="PremierePro">
					<parameterid>8</parameterid>
					<name></name>
					<IsTimeVarying>false</IsTimeVarying>
					<ParameterControlType>2</ParameterControlType>
					<LowerBound>0</LowerBound>
					<UpperBound>100</UpperBound>
					<value>-91445760000000000,100.,0,0,0,0,0,0</value>
					</parameter>
					</effect>
					</filter>
					<logginginfo>
					<description></description>
					<scene></scene>
					<shottake></shottake>
					<lognote></lognote>
					<good></good>
					<originalvideofilename></originalvideofilename>
					<originalaudiofilename></originalaudiofilename>
					</logginginfo>
					<colorinfo>
					<lut></lut>
					<lut1></lut1>
					<asc_sop></asc_sop>
					<asc_sat></asc_sat>
					<lut2></lut2>
					</colorinfo>
					<labels>
					</labels>
					</clipitem>
					<clipitem frameBlend="FALSE" id="clipitem-413">
					<masterclipid>masterclip-333</masterclipid>
					<name></name>
					<enabled>TRUE</enabled>
					<duration>2582774</duration>
					<rate>
					
					                                    <timebase>60</timebase>
					                                    <ntsc>TRUE</ntsc>
					                                
					</rate>
					<start>3005</start>
					<end>3065</end>
					<in>3005</in>
					<out>3065</out>
					<pproTicksIn>914456774963789</pproTicksIn>
					<pproTicksOut>914677708529577</pproTicksOut>
					<alphatype>straight</alphatype>
					<pixelaspectratio>square</pixelaspectratio>
					<anamorphic>FALSE</anamorphic>
					<file id="file-332">
					<name></name>
					<mediaSource>GraphicAndType</mediaSource>
					<rate>
					<timebase>60</timebase>
					<ntsc>TRUE</ntsc>
					</rate>
					<timecode>
					<rate>
					<timebase>60</timebase>
					<ntsc>TRUE</ntsc>
					</rate>
					<string>00:00:00:00</string>
					<frame>0</frame>
					<displayformat>NDF</displayformat>
					</timecode>
					<media>
					<video>
					<samplecharacteristics>
					<rate>
					<timebase>60</timebase>
					<ntsc>TRUE</ntsc>
					</rate>
					<width>1080</width>
					<height>1920</height>
					<anamorphic>FALSE</anamorphic>
					<pixelaspectratio>square</pixelaspectratio>
					<fielddominance>none</fielddominance>
					</samplecharacteristics>
					</video>
					</media>
					</file>
					<filter>
					<effect>
					<name></name>
					<effectid>GraphicAndType</effectid>
					<effectcategory>graphic</effectcategory>
					<effecttype>filter</effecttype>
					<mediatype>video</mediatype>
					<pproBypass>false</pproBypass>
					<parameter authoringApp="PremierePro">
					<parameterid>1</parameterid>
					<name></name>
					<hash>025b1101-ead6-0ca2-1feb-caf3000001fc</hash>
					<value>5AEAAAAAAABEMyIRDAAAAAAABgAKAAQABgAAAGQAAAAAAF4ASAAQAAwARABAADwAOAAAAAAAAAAAADQAMwAsAAAAKAAkACAAAAAAAAAAAAAAAAAAHAAAAAAAGgAAAAAAAAAUAAAAAAAAAAAAAAAAAAAAAAAAAAgAAAAAABsABwBeAAAAAAAAAUAAAABQAAAAbAAAAAIAAAAAAAEAAQAAAAAAQEEAAMBAAABAQAAAyEIAAAABIAAAAAIAAAACAAAAAAA2QwCASkTw/v//9P7///j+//8S////AAAAAAEAAAAEAAAAEQAAAEhHUFNvZWlLYWt1cG9wdGFpAAAAAQAAAAwAAAAIAAwABAAIAAgAAAAIAAAAUAAAAA8AAADvvIEAAAAAAAAAAAAAAAAAAAA2ACQAAAAgABwAAAAAABsAFAAAAAAAAAAAAAAAAAAAAAAAAAAAABAAAAAAAAAADAAAAAgABAA2AAAAAgAAABwAAAAcAAAAHAAAAAAAIEEAAAABaAAAAE3PAEOw////tP///wEAAAAUAAAAEAAaAAgABwAMAAAAEAAUABAAAAAAAAABHAAAAAAAoEEcAAAAAgAAAAAACgAIAAUABgAHAAoAAAAADAD//P///wQABAAEAAAACAAIAAYABwAIAAAAAAAMAA==</value>
					</parameter>
					<parameter authoringApp="PremierePro">
					<parameterid>2</parameterid>
					<name></name>
					<IsTimeVarying>false</IsTimeVarying>
					<ParameterControlType>11</ParameterControlType>
					<LowerBound>false</LowerBound>
					<UpperBound>false</UpperBound>
					<value>-91445760000000000,false,0,0,0,0,0,0</value>
					</parameter>
					<parameter authoringApp="PremierePro">
					<parameterid>3</parameterid>
					<name></name>
					<IsTimeVarying>false</IsTimeVarying>
					<value>-91445760000000000,0.5:0.5,0,0,0,0,0,0,5,4,0,0,0,0</value>
					</parameter>
					<parameter authoringApp="PremierePro">
					<parameterid>4</parameterid>
					<name></name>
					<IsTimeVarying>false</IsTimeVarying>
					<ParameterControlType>2</ParameterControlType>
					<LowerBound>0</LowerBound>
					<UpperBound>4000</UpperBound>
					<value>-91445760000000000,100.,0,0,0,0,0,0</value>
					</parameter>
					<parameter authoringApp="PremierePro">
					<parameterid>8</parameterid>
					<name></name>
					<IsTimeVarying>false</IsTimeVarying>
					<ParameterControlType>2</ParameterControlType>
					<LowerBound>0</LowerBound>
					<UpperBound>100</UpperBound>
					<value>-91445760000000000,100.,0,0,0,0,0,0</value>
					</parameter>
					</effect>
					</filter>
					<logginginfo>
					<description></description>
					<scene></scene>
					<shottake></shottake>
					<lognote></lognote>
					<good></good>
					<originalvideofilename></originalvideofilename>
					<originalaudiofilename></originalaudiofilename>
					</logginginfo>
					<colorinfo>
					<lut></lut>
					<lut1></lut1>
					<asc_sop></asc_sop>
					<asc_sat></asc_sat>
					<lut2></lut2>
					</colorinfo>
					<labels>
					</labels>
					</clipitem>
					<clipitem id="clipitem-424"/>
					                        </track>
					                        <track TL.SQTrackShy="0" TL.SQTrackExpandedHeight="25" TL.SQTrackExpanded="0" MZ.TrackTargeted="0">
					<clipitem frameBlend="FALSE" id="clipitem-425">
					<masterclipid>masterclip-345</masterclipid>
					<name></name>
					<enabled>TRUE</enabled>
					<duration>2582774</duration>
					<rate>
					
					                                    <timebase>60</timebase>
					                                    <ntsc>TRUE</ntsc>
					                                
					</rate>
					<start>3125</start>
					<end>3191</end>
					<in>3125</in>
					<out>3191</out>
					<pproTicksIn>914456774963789</pproTicksIn>
					<pproTicksOut>914677708529577</pproTicksOut>
					<alphatype>straight</alphatype>
					<pixelaspectratio>square</pixelaspectratio>
					<anamorphic>FALSE</anamorphic>
					<file id="file-344">
					<name></name>
					<mediaSource>GraphicAndType</mediaSource>
					<rate>
					<timebase>60</timebase>
					<ntsc>TRUE</ntsc>
					</rate>
					<timecode>
					<rate>
					<timebase>60</timebase>
					<ntsc>TRUE</ntsc>
					</rate>
					<string>00:00:00:00</string>
					<frame>0</frame>
					<displayformat>NDF</displayformat>
					</timecode>
					<media>
					<video>
					<samplecharacteristics>
					<rate>
					<timebase>60</timebase>
					<ntsc>TRUE</ntsc>
					</rate>
					<width>1080</width>
					<height>1920</height>
					<anamorphic>FALSE</anamorphic>
					<pixelaspectratio>square</pixelaspectratio>
					<fielddominance>none</fielddominance>
					</samplecharacteristics>
					</video>
					</media>
					</file>
					<filter>
					<effect>
					<name></name>
					<effectid>GraphicAndType</effectid>
					<effectcategory>graphic</effectcategory>
					<effecttype>filter</effecttype>
					<mediatype>video</mediatype>
					<pproBypass>false</pproBypass>
					<parameter authoringApp="PremierePro">
					<parameterid>1</parameterid>
					<name></name>
					<hash>025b1101-ead6-0ca2-1feb-caf3000001fc</hash>
					<value>5AEAAAAAAABEMyIRDAAAAAAABgAKAAQABgAAAGQAAAAAAF4ASAAQAAwARABAADwAOAAAAAAAAAAAADQAMwAsAAAAKAAkACAAAAAAAAAAAAAAAAAAHAAAAAAAGgAAAAAAAAAUAAAAAAAAAAAAAAAAAAAAAAAAAAgAAAAAABsABwBeAAAAAAAAAUAAAABQAAAAbAAAAAIAAAAAAAEAAQAAAAAAQEEAAMBAAABAQAAAyEIAAAABIAAAAAIAAAACAAAAAAA2QwCASkTw/v//9P7///j+//8S////AAAAAAEAAAAEAAAAEQAAAEhHUFNvZWlLYWt1cG9wdGFpAAAAAQAAAAwAAAAIAAwABAAIAAgAAAAIAAAAUAAAAA8AAADvvIEAAAAAAAAAAAAAAAAAAAA2ACQAAAAgABwAAAAAABsAFAAAAAAAAAAAAAAAAAAAAAAAAAAAABAAAAAAAAAADAAAAAgABAA2AAAAAgAAABwAAAAcAAAAHAAAAAAAIEEAAAABaAAAAE3PAEOw////tP///wEAAAAUAAAAEAAaAAgABwAMAAAAEAAUABAAAAAAAAABHAAAAAAAoEEcAAAAAgAAAAAACgAIAAUABgAHAAoAAAAADAD//P///wQABAAEAAAACAAIAAYABwAIAAAAAAAMAA==</value>
					</parameter>
					<parameter authoringApp="PremierePro">
					<parameterid>2</parameterid>
					<name></name>
					<IsTimeVarying>false</IsTimeVarying>
					<ParameterControlType>11</ParameterControlType>
					<LowerBound>false</LowerBound>
					<UpperBound>false</UpperBound>
					<value>-91445760000000000,false,0,0,0,0,0,0</value>
					</parameter>
					<parameter authoringApp="PremierePro">
					<parameterid>3</parameterid>
					<name></name>
					<IsTimeVarying>false</IsTimeVarying>
					<value>-91445760000000000,0.5:0.5,0,0,0,0,0,0,5,4,0,0,0,0</value>
					</parameter>
					<parameter authoringApp="PremierePro">
					<parameterid>4</parameterid>
					<name></name>
					<IsTimeVarying>false</IsTimeVarying>
					<ParameterControlType>2</ParameterControlType>
					<LowerBound>0</LowerBound>
					<UpperBound>4000</UpperBound>
					<value>-91445760000000000,100.,0,0,0,0,0,0</value>
					</parameter>
					<parameter authoringApp="PremierePro">
					<parameterid>8</parameterid>
					<name></name>
					<IsTimeVarying>false</IsTimeVarying>
					<ParameterControlType>2</ParameterControlType>
					<LowerBound>0</LowerBound>
					<UpperBound>100</UpperBound>
					<value>-91445760000000000,100.,0,0,0,0,0,0</value>
					</parameter>
					</effect>
					</filter>
					<logginginfo>
					<description></description>
					<scene></scene>
					<shottake></shottake>
					<lognote></lognote>
					<good></good>
					<originalvideofilename></originalvideofilename>
					<originalaudiofilename></originalaudiofilename>
					</logginginfo>
					<colorinfo>
					<lut></lut>
					<lut1></lut1>
					<asc_sop></asc_sop>
					<asc_sat></asc_sat>
					<lut2></lut2>
					</colorinfo>
					<labels>
					</labels>
					</clipitem>
					<clipitem frameBlend="FALSE" id="clipitem-433">
					<masterclipid>masterclip-353</masterclipid>
					<name></name>
					<enabled>TRUE</enabled>
					<duration>2582774</duration>
					<rate>
					
					                                    <timebase>60</timebase>
					                                    <ntsc>TRUE</ntsc>
					                                
					</rate>
					<start>3203</start>
					<end>3263</end>
					<in>3203</in>
					<out>3263</out>
					<pproTicksIn>914456774963789</pproTicksIn>
					<pproTicksOut>914677708529577</pproTicksOut>
					<alphatype>straight</alphatype>
					<pixelaspectratio>square</pixelaspectratio>
					<anamorphic>FALSE</anamorphic>
					<file id="file-352">
					<name></name>
					<mediaSource>GraphicAndType</mediaSource>
					<rate>
					<timebase>60</timebase>
					<ntsc>TRUE</ntsc>
					</rate>
					<timecode>
					<rate>
					<timebase>60</timebase>
					<ntsc>TRUE</ntsc>
					</rate>
					<string>00:00:00:00</string>
					<frame>0</frame>
					<displayformat>NDF</displayformat>
					</timecode>
					<media>
					<video>
					<samplecharacteristics>
					<rate>
					<timebase>60</timebase>
					<ntsc>TRUE</ntsc>
					</rate>
					<width>1080</width>
					<height>1920</height>
					<anamorphic>FALSE</anamorphic>
					<pixelaspectratio>square</pixelaspectratio>
					<fielddominance>none</fielddominance>
					</samplecharacteristics>
					</video>
					</media>
					</file>
					<filter>
					<effect>
					<name></name>
					<effectid>GraphicAndType</effectid>
					<effectcategory>graphic</effectcategory>
					<effecttype>filter</effecttype>
					<mediatype>video</mediatype>
					<pproBypass>false</pproBypass>
					<parameter authoringApp="PremierePro">
					<parameterid>1</parameterid>
					<name></name>
					<hash>025b1101-ead6-0ca2-1feb-caf3000001fc</hash>
					<value>5AEAAAAAAABEMyIRDAAAAAAABgAKAAQABgAAAGQAAAAAAF4ASAAQAAwARABAADwAOAAAAAAAAAAAADQAMwAsAAAAKAAkACAAAAAAAAAAAAAAAAAAHAAAAAAAGgAAAAAAAAAUAAAAAAAAAAAAAAAAAAAAAAAAAAgAAAAAABsABwBeAAAAAAAAAUAAAABQAAAAbAAAAAIAAAAAAAEAAQAAAAAAQEEAAMBAAABAQAAAyEIAAAABIAAAAAIAAAACAAAAAAA2QwCASkTw/v//9P7///j+//8S////AAAAAAEAAAAEAAAAEQAAAEhHUFNvZWlLYWt1cG9wdGFpAAAAAQAAAAwAAAAIAAwABAAIAAgAAAAIAAAAUAAAAA8AAADvvIEAAAAAAAAAAAAAAAAAAAA2ACQAAAAgABwAAAAAABsAFAAAAAAAAAAAAAAAAAAAAAAAAAAAABAAAAAAAAAADAAAAAgABAA2AAAAAgAAABwAAAAcAAAAHAAAAAAAIEEAAAABaAAAAE3PAEOw////tP///wEAAAAUAAAAEAAaAAgABwAMAAAAEAAUABAAAAAAAAABHAAAAAAAoEEcAAAAAgAAAAAACgAIAAUABgAHAAoAAAAADAD//P///wQABAAEAAAACAAIAAYABwAIAAAAAAAMAA==</value>
					</parameter>
					<parameter authoringApp="PremierePro">
					<parameterid>2</parameterid>
					<name></name>
					<IsTimeVarying>false</IsTimeVarying>
					<ParameterControlType>11</ParameterControlType>
					<LowerBound>false</LowerBound>
					<UpperBound>false</UpperBound>
					<value>-91445760000000000,false,0,0,0,0,0,0</value>
					</parameter>
					<parameter authoringApp="PremierePro">
					<parameterid>3</parameterid>
					<name></name>
					<IsTimeVarying>false</IsTimeVarying>
					<value>-91445760000000000,0.5:0.5,0,0,0,0,0,0,5,4,0,0,0,0</value>
					</parameter>
					<parameter authoringApp="PremierePro">
					<parameterid>4</parameterid>
					<name></name>
					<IsTimeVarying>false</IsTimeVarying>
					<ParameterControlType>2</ParameterControlType>
					<LowerBound>0</LowerBound>
					<UpperBound>4000</UpperBound>
					<value>-91445760000000000,100.,0,0,0,0,0,0</value>
					</parameter>
					<parameter authoringApp="PremierePro">
					<parameterid>8</parameterid>
					<name></name>
					<IsTimeVarying>false</IsTimeVarying>
					<ParameterControlType>2</ParameterControlType>
					<LowerBound>0</LowerBound>
					<UpperBound>100</UpperBound>
					<value>-91445760000000000,100.,0,0,0,0,0,0</value>
					</parameter>
					</effect>
					</filter>
					<logginginfo>
					<description></description>
					<scene></scene>
					<shottake></shottake>
					<lognote></lognote>
					<good></good>
					<originalvideofilename></originalvideofilename>
					<originalaudiofilename></originalaudiofilename>
					</logginginfo>
					<colorinfo>
					<lut></lut>
					<lut1></lut1>
					<asc_sop></asc_sop>
					<asc_sat></asc_sat>
					<lut2></lut2>
					</colorinfo>
					<labels>
					</labels>
					</clipitem>
					<clipitem frameBlend="FALSE" id="clipitem-445">
					<masterclipid>masterclip-365</masterclipid>
					<name></name>
					<enabled>TRUE</enabled>
					<duration>2582774</duration>
					<rate>
					
					                                    <timebase>60</timebase>
					                                    <ntsc>TRUE</ntsc>
					                                
					</rate>
					<start>3293</start>
					<end>3353</end>
					<in>3293</in>
					<out>3353</out>
					<pproTicksIn>914456774963789</pproTicksIn>
					<pproTicksOut>914677708529577</pproTicksOut>
					<alphatype>straight</alphatype>
					<pixelaspectratio>square</pixelaspectratio>
					<anamorphic>FALSE</anamorphic>
					<file id="file-364">
					<name></name>
					<mediaSource>GraphicAndType</mediaSource>
					<rate>
					<timebase>60</timebase>
					<ntsc>TRUE</ntsc>
					</rate>
					<timecode>
					<rate>
					<timebase>60</timebase>
					<ntsc>TRUE</ntsc>
					</rate>
					<string>00:00:00:00</string>
					<frame>0</frame>
					<displayformat>NDF</displayformat>
					</timecode>
					<media>
					<video>
					<samplecharacteristics>
					<rate>
					<timebase>60</timebase>
					<ntsc>TRUE</ntsc>
					</rate>
					<width>1080</width>
					<height>1920</height>
					<anamorphic>FALSE</anamorphic>
					<pixelaspectratio>square</pixelaspectratio>
					<fielddominance>none</fielddominance>
					</samplecharacteristics>
					</video>
					</media>
					</file>
					<filter>
					<effect>
					<name></name>
					<effectid>GraphicAndType</effectid>
					<effectcategory>graphic</effectcategory>
					<effecttype>filter</effecttype>
					<mediatype>video</mediatype>
					<pproBypass>false</pproBypass>
					<parameter authoringApp="PremierePro">
					<parameterid>1</parameterid>
					<name></name>
					<hash>025b1101-ead6-0ca2-1feb-caf3000001fc</hash>
					<value>5AEAAAAAAABEMyIRDAAAAAAABgAKAAQABgAAAGQAAAAAAF4ASAAQAAwARABAADwAOAAAAAAAAAAAADQAMwAsAAAAKAAkACAAAAAAAAAAAAAAAAAAHAAAAAAAGgAAAAAAAAAUAAAAAAAAAAAAAAAAAAAAAAAAAAgAAAAAABsABwBeAAAAAAAAAUAAAABQAAAAbAAAAAIAAAAAAAEAAQAAAAAAQEEAAMBAAABAQAAAyEIAAAABIAAAAAIAAAACAAAAAAA2QwCASkTw/v//9P7///j+//8S////AAAAAAEAAAAEAAAAEQAAAEhHUFNvZWlLYWt1cG9wdGFpAAAAAQAAAAwAAAAIAAwABAAIAAgAAAAIAAAAUAAAAA8AAADvvIEAAAAAAAAAAAAAAAAAAAA2ACQAAAAgABwAAAAAABsAFAAAAAAAAAAAAAAAAAAAAAAAAAAAABAAAAAAAAAADAAAAAgABAA2AAAAAgAAABwAAAAcAAAAHAAAAAAAIEEAAAABaAAAAE3PAEOw////tP///wEAAAAUAAAAEAAaAAgABwAMAAAAEAAUABAAAAAAAAABHAAAAAAAoEEcAAAAAgAAAAAACgAIAAUABgAHAAoAAAAADAD//P///wQABAAEAAAACAAIAAYABwAIAAAAAAAMAA==</value>
					</parameter>
					<parameter authoringApp="PremierePro">
					<parameterid>2</parameterid>
					<name></name>
					<IsTimeVarying>false</IsTimeVarying>
					<ParameterControlType>11</ParameterControlType>
					<LowerBound>false</LowerBound>
					<UpperBound>false</UpperBound>
					<value>-91445760000000000,false,0,0,0,0,0,0</value>
					</parameter>
					<parameter authoringApp="PremierePro">
					<parameterid>3</parameterid>
					<name></name>
					<IsTimeVarying>false</IsTimeVarying>
					<value>-91445760000000000,0.5:0.5,0,0,0,0,0,0,5,4,0,0,0,0</value>
					</parameter>
					<parameter authoringApp="PremierePro">
					<parameterid>4</parameterid>
					<name></name>
					<IsTimeVarying>false</IsTimeVarying>
					<ParameterControlType>2</ParameterControlType>
					<LowerBound>0</LowerBound>
					<UpperBound>4000</UpperBound>
					<value>-91445760000000000,100.,0,0,0,0,0,0</value>
					</parameter>
					<parameter authoringApp="PremierePro">
					<parameterid>8</parameterid>
					<name></name>
					<IsTimeVarying>false</IsTimeVarying>
					<ParameterControlType>2</ParameterControlType>
					<LowerBound>0</LowerBound>
					<UpperBound>100</UpperBound>
					<value>-91445760000000000,100.,0,0,0,0,0,0</value>
					</parameter>
					</effect>
					</filter>
					<logginginfo>
					<description></description>
					<scene></scene>
					<shottake></shottake>
					<lognote></lognote>
					<good></good>
					<originalvideofilename></originalvideofilename>
					<originalaudiofilename></originalaudiofilename>
					</logginginfo>
					<colorinfo>
					<lut></lut>
					<lut1></lut1>
					<asc_sop></asc_sop>
					<asc_sat></asc_sat>
					<lut2></lut2>
					</colorinfo>
					<labels>
					</labels>
					</clipitem>
					<clipitem frameBlend="FALSE" id="clipitem-452">
					<masterclipid>masterclip-372</masterclipid>
					<name></name>
					<enabled>TRUE</enabled>
					<duration>2582774</duration>
					<rate>
					
					                                    <timebase>60</timebase>
					                                    <ntsc>TRUE</ntsc>
					                                
					</rate>
					<start>3359</start>
					<end>3419</end>
					<in>3359</in>
					<out>3419</out>
					<pproTicksIn>914456774963789</pproTicksIn>
					<pproTicksOut>914677708529577</pproTicksOut>
					<alphatype>straight</alphatype>
					<pixelaspectratio>square</pixelaspectratio>
					<anamorphic>FALSE</anamorphic>
					<file id="file-371">
					<name></name>
					<mediaSource>GraphicAndType</mediaSource>
					<rate>
					<timebase>60</timebase>
					<ntsc>TRUE</ntsc>
					</rate>
					<timecode>
					<rate>
					<timebase>60</timebase>
					<ntsc>TRUE</ntsc>
					</rate>
					<string>00:00:00:00</string>
					<frame>0</frame>
					<displayformat>NDF</displayformat>
					</timecode>
					<media>
					<video>
					<samplecharacteristics>
					<rate>
					<timebase>60</timebase>
					<ntsc>TRUE</ntsc>
					</rate>
					<width>1080</width>
					<height>1920</height>
					<anamorphic>FALSE</anamorphic>
					<pixelaspectratio>square</pixelaspectratio>
					<fielddominance>none</fielddominance>
					</samplecharacteristics>
					</video>
					</media>
					</file>
					<filter>
					<effect>
					<name></name>
					<effectid>GraphicAndType</effectid>
					<effectcategory>graphic</effectcategory>
					<effecttype>filter</effecttype>
					<mediatype>video</mediatype>
					<pproBypass>false</pproBypass>
					<parameter authoringApp="PremierePro">
					<parameterid>1</parameterid>
					<name></name>
					<hash>025b1101-ead6-0ca2-1feb-caf3000001fc</hash>
					<value>5AEAAAAAAABEMyIRDAAAAAAABgAKAAQABgAAAGQAAAAAAF4ASAAQAAwARABAADwAOAAAAAAAAAAAADQAMwAsAAAAKAAkACAAAAAAAAAAAAAAAAAAHAAAAAAAGgAAAAAAAAAUAAAAAAAAAAAAAAAAAAAAAAAAAAgAAAAAABsABwBeAAAAAAAAAUAAAABQAAAAbAAAAAIAAAAAAAEAAQAAAAAAQEEAAMBAAABAQAAAyEIAAAABIAAAAAIAAAACAAAAAAA2QwCASkTw/v//9P7///j+//8S////AAAAAAEAAAAEAAAAEQAAAEhHUFNvZWlLYWt1cG9wdGFpAAAAAQAAAAwAAAAIAAwABAAIAAgAAAAIAAAAUAAAAA8AAADvvIEAAAAAAAAAAAAAAAAAAAA2ACQAAAAgABwAAAAAABsAFAAAAAAAAAAAAAAAAAAAAAAAAAAAABAAAAAAAAAADAAAAAgABAA2AAAAAgAAABwAAAAcAAAAHAAAAAAAIEEAAAABaAAAAE3PAEOw////tP///wEAAAAUAAAAEAAaAAgABwAMAAAAEAAUABAAAAAAAAABHAAAAAAAoEEcAAAAAgAAAAAACgAIAAUABgAHAAoAAAAADAD//P///wQABAAEAAAACAAIAAYABwAIAAAAAAAMAA==</value>
					</parameter>
					<parameter authoringApp="PremierePro">
					<parameterid>2</parameterid>
					<name></name>
					<IsTimeVarying>false</IsTimeVarying>
					<ParameterControlType>11</ParameterControlType>
					<LowerBound>false</LowerBound>
					<UpperBound>false</UpperBound>
					<value>-91445760000000000,false,0,0,0,0,0,0</value>
					</parameter>
					<parameter authoringApp="PremierePro">
					<parameterid>3</parameterid>
					<name></name>
					<IsTimeVarying>false</IsTimeVarying>
					<value>-91445760000000000,0.5:0.5,0,0,0,0,0,0,5,4,0,0,0,0</value>
					</parameter>
					<parameter authoringApp="PremierePro">
					<parameterid>4</parameterid>
					<name></name>
					<IsTimeVarying>false</IsTimeVarying>
					<ParameterControlType>2</ParameterControlType>
					<LowerBound>0</LowerBound>
					<UpperBound>4000</UpperBound>
					<value>-91445760000000000,100.,0,0,0,0,0,0</value>
					</parameter>
					<parameter authoringApp="PremierePro">
					<parameterid>8</parameterid>
					<name></name>
					<IsTimeVarying>false</IsTimeVarying>
					<ParameterControlType>2</ParameterControlType>
					<LowerBound>0</LowerBound>
					<UpperBound>100</UpperBound>
					<value>-91445760000000000,100.,0,0,0,0,0,0</value>
					</parameter>
					</effect>
					</filter>
					<logginginfo>
					<description></description>
					<scene></scene>
					<shottake></shottake>
					<lognote></lognote>
					<good></good>
					<originalvideofilename></originalvideofilename>
					<originalaudiofilename></originalaudiofilename>
					</logginginfo>
					<colorinfo>
					<lut></lut>
					<lut1></lut1>
					<asc_sop></asc_sop>
					<asc_sat></asc_sat>
					<lut2></lut2>
					</colorinfo>
					<labels>
					</labels>
					</clipitem>
					<clipitem frameBlend="FALSE" id="clipitem-458">
					<masterclipid>masterclip-378</masterclipid>
					<name></name>
					<enabled>TRUE</enabled>
					<duration>2582774</duration>
					<rate>
					
					                                    <timebase>60</timebase>
					                                    <ntsc>TRUE</ntsc>
					                                
					</rate>
					<start>3425</start>
					<end>3491</end>
					<in>3425</in>
					<out>3491</out>
					<pproTicksIn>914456774963789</pproTicksIn>
					<pproTicksOut>914677708529577</pproTicksOut>
					<alphatype>straight</alphatype>
					<pixelaspectratio>square</pixelaspectratio>
					<anamorphic>FALSE</anamorphic>
					<file id="file-377">
					<name></name>
					<mediaSource>GraphicAndType</mediaSource>
					<rate>
					<timebase>60</timebase>
					<ntsc>TRUE</ntsc>
					</rate>
					<timecode>
					<rate>
					<timebase>60</timebase>
					<ntsc>TRUE</ntsc>
					</rate>
					<string>00:00:00:00</string>
					<frame>0</frame>
					<displayformat>NDF</displayformat>
					</timecode>
					<media>
					<video>
					<samplecharacteristics>
					<rate>
					<timebase>60</timebase>
					<ntsc>TRUE</ntsc>
					</rate>
					<width>1080</width>
					<height>1920</height>
					<anamorphic>FALSE</anamorphic>
					<pixelaspectratio>square</pixelaspectratio>
					<fielddominance>none</fielddominance>
					</samplecharacteristics>
					</video>
					</media>
					</file>
					<filter>
					<effect>
					<name></name>
					<effectid>GraphicAndType</effectid>
					<effectcategory>graphic</effectcategory>
					<effecttype>filter</effecttype>
					<mediatype>video</mediatype>
					<pproBypass>false</pproBypass>
					<parameter authoringApp="PremierePro">
					<parameterid>1</parameterid>
					<name></name>
					<hash>025b1101-ead6-0ca2-1feb-caf3000001fc</hash>
					<value>5AEAAAAAAABEMyIRDAAAAAAABgAKAAQABgAAAGQAAAAAAF4ASAAQAAwARABAADwAOAAAAAAAAAAAADQAMwAsAAAAKAAkACAAAAAAAAAAAAAAAAAAHAAAAAAAGgAAAAAAAAAUAAAAAAAAAAAAAAAAAAAAAAAAAAgAAAAAABsABwBeAAAAAAAAAUAAAABQAAAAbAAAAAIAAAAAAAEAAQAAAAAAQEEAAMBAAABAQAAAyEIAAAABIAAAAAIAAAACAAAAAAA2QwCASkTw/v//9P7///j+//8S////AAAAAAEAAAAEAAAAEQAAAEhHUFNvZWlLYWt1cG9wdGFpAAAAAQAAAAwAAAAIAAwABAAIAAgAAAAIAAAAUAAAAA8AAADvvIEAAAAAAAAAAAAAAAAAAAA2ACQAAAAgABwAAAAAABsAFAAAAAAAAAAAAAAAAAAAAAAAAAAAABAAAAAAAAAADAAAAAgABAA2AAAAAgAAABwAAAAcAAAAHAAAAAAAIEEAAAABaAAAAE3PAEOw////tP///wEAAAAUAAAAEAAaAAgABwAMAAAAEAAUABAAAAAAAAABHAAAAAAAoEEcAAAAAgAAAAAACgAIAAUABgAHAAoAAAAADAD//P///wQABAAEAAAACAAIAAYABwAIAAAAAAAMAA==</value>
					</parameter>
					<parameter authoringApp="PremierePro">
					<parameterid>2</parameterid>
					<name></name>
					<IsTimeVarying>false</IsTimeVarying>
					<ParameterControlType>11</ParameterControlType>
					<LowerBound>false</LowerBound>
					<UpperBound>false</UpperBound>
					<value>-91445760000000000,false,0,0,0,0,0,0</value>
					</parameter>
					<parameter authoringApp="PremierePro">
					<parameterid>3</parameterid>
					<name></name>
					<IsTimeVarying>false</IsTimeVarying>
					<value>-91445760000000000,0.5:0.5,0,0,0,0,0,0,5,4,0,0,0,0</value>
					</parameter>
					<parameter authoringApp="PremierePro">
					<parameterid>4</parameterid>
					<name></name>
					<IsTimeVarying>false</IsTimeVarying>
					<ParameterControlType>2</ParameterControlType>
					<LowerBound>0</LowerBound>
					<UpperBound>4000</UpperBound>
					<value>-91445760000000000,100.,0,0,0,0,0,0</value>
					</parameter>
					<parameter authoringApp="PremierePro">
					<parameterid>8</parameterid>
					<name></name>
					<IsTimeVarying>false</IsTimeVarying>
					<ParameterControlType>2</ParameterControlType>
					<LowerBound>0</LowerBound>
					<UpperBound>100</UpperBound>
					<value>-91445760000000000,100.,0,0,0,0,0,0</value>
					</parameter>
					</effect>
					</filter>
					<logginginfo>
					<description></description>
					<scene></scene>
					<shottake></shottake>
					<lognote></lognote>
					<good></good>
					<originalvideofilename></originalvideofilename>
					<originalaudiofilename></originalaudiofilename>
					</logginginfo>
					<colorinfo>
					<lut></lut>
					<lut1></lut1>
					<asc_sop></asc_sop>
					<asc_sat></asc_sat>
					<lut2></lut2>
					</colorinfo>
					<labels>
					</labels>
					</clipitem>
					<clipitem frameBlend="FALSE" id="clipitem-469">
					<masterclipid>masterclip-389</masterclipid>
					<name></name>
					<enabled>TRUE</enabled>
					<duration>2582774</duration>
					<rate>
					
					                                    <timebase>60</timebase>
					                                    <ntsc>TRUE</ntsc>
					                                
					</rate>
					<start>3544</start>
					<end>3604</end>
					<in>3544</in>
					<out>3604</out>
					<pproTicksIn>914456774963789</pproTicksIn>
					<pproTicksOut>914677708529577</pproTicksOut>
					<alphatype>straight</alphatype>
					<pixelaspectratio>square</pixelaspectratio>
					<anamorphic>FALSE</anamorphic>
					<file id="file-388">
					<name></name>
					<mediaSource>GraphicAndType</mediaSource>
					<rate>
					<timebase>60</timebase>
					<ntsc>TRUE</ntsc>
					</rate>
					<timecode>
					<rate>
					<timebase>60</timebase>
					<ntsc>TRUE</ntsc>
					</rate>
					<string>00:00:00:00</string>
					<frame>0</frame>
					<displayformat>NDF</displayformat>
					</timecode>
					<media>
					<video>
					<samplecharacteristics>
					<rate>
					<timebase>60</timebase>
					<ntsc>TRUE</ntsc>
					</rate>
					<width>1080</width>
					<height>1920</height>
					<anamorphic>FALSE</anamorphic>
					<pixelaspectratio>square</pixelaspectratio>
					<fielddominance>none</fielddominance>
					</samplecharacteristics>
					</video>
					</media>
					</file>
					<filter>
					<effect>
					<name></name>
					<effectid>GraphicAndType</effectid>
					<effectcategory>graphic</effectcategory>
					<effecttype>filter</effecttype>
					<mediatype>video</mediatype>
					<pproBypass>false</pproBypass>
					<parameter authoringApp="PremierePro">
					<parameterid>1</parameterid>
					<name></name>
					<hash>025b1101-ead6-0ca2-1feb-caf3000001fc</hash>
					<value>5AEAAAAAAABEMyIRDAAAAAAABgAKAAQABgAAAGQAAAAAAF4ASAAQAAwARABAADwAOAAAAAAAAAAAADQAMwAsAAAAKAAkACAAAAAAAAAAAAAAAAAAHAAAAAAAGgAAAAAAAAAUAAAAAAAAAAAAAAAAAAAAAAAAAAgAAAAAABsABwBeAAAAAAAAAUAAAABQAAAAbAAAAAIAAAAAAAEAAQAAAAAAQEEAAMBAAABAQAAAyEIAAAABIAAAAAIAAAACAAAAAAA2QwCASkTw/v//9P7///j+//8S////AAAAAAEAAAAEAAAAEQAAAEhHUFNvZWlLYWt1cG9wdGFpAAAAAQAAAAwAAAAIAAwABAAIAAgAAAAIAAAAUAAAAA8AAADvvIEAAAAAAAAAAAAAAAAAAAA2ACQAAAAgABwAAAAAABsAFAAAAAAAAAAAAAAAAAAAAAAAAAAAABAAAAAAAAAADAAAAAgABAA2AAAAAgAAABwAAAAcAAAAHAAAAAAAIEEAAAABaAAAAE3PAEOw////tP///wEAAAAUAAAAEAAaAAgABwAMAAAAEAAUABAAAAAAAAABHAAAAAAAoEEcAAAAAgAAAAAACgAIAAUABgAHAAoAAAAADAD//P///wQABAAEAAAACAAIAAYABwAIAAAAAAAMAA==</value>
					</parameter>
					<parameter authoringApp="PremierePro">
					<parameterid>2</parameterid>
					<name></name>
					<IsTimeVarying>false</IsTimeVarying>
					<ParameterControlType>11</ParameterControlType>
					<LowerBound>false</LowerBound>
					<UpperBound>false</UpperBound>
					<value>-91445760000000000,false,0,0,0,0,0,0</value>
					</parameter>
					<parameter authoringApp="PremierePro">
					<parameterid>3</parameterid>
					<name></name>
					<IsTimeVarying>false</IsTimeVarying>
					<value>-91445760000000000,0.5:0.5,0,0,0,0,0,0,5,4,0,0,0,0</value>
					</parameter>
					<parameter authoringApp="PremierePro">
					<parameterid>4</parameterid>
					<name></name>
					<IsTimeVarying>false</IsTimeVarying>
					<ParameterControlType>2</ParameterControlType>
					<LowerBound>0</LowerBound>
					<UpperBound>4000</UpperBound>
					<value>-91445760000000000,100.,0,0,0,0,0,0</value>
					</parameter>
					<parameter authoringApp="PremierePro">
					<parameterid>8</parameterid>
					<name></name>
					<IsTimeVarying>false</IsTimeVarying>
					<ParameterControlType>2</ParameterControlType>
					<LowerBound>0</LowerBound>
					<UpperBound>100</UpperBound>
					<value>-91445760000000000,100.,0,0,0,0,0,0</value>
					</parameter>
					</effect>
					</filter>
					<logginginfo>
					<description></description>
					<scene></scene>
					<shottake></shottake>
					<lognote></lognote>
					<good></good>
					<originalvideofilename></originalvideofilename>
					<originalaudiofilename></originalaudiofilename>
					</logginginfo>
					<colorinfo>
					<lut></lut>
					<lut1></lut1>
					<asc_sop></asc_sop>
					<asc_sat></asc_sat>
					<lut2></lut2>
					</colorinfo>
					<labels>
					</labels>
					</clipitem>
					<clipitem frameBlend="FALSE" id="clipitem-474">
					<masterclipid>masterclip-394</masterclipid>
					<name></name>
					<enabled>TRUE</enabled>
					<duration>2582774</duration>
					<rate>
					
					                                    <timebase>60</timebase>
					                                    <ntsc>TRUE</ntsc>
					                                
					</rate>
					<start>3616</start>
					<end>3676</end>
					<in>3616</in>
					<out>3676</out>
					<pproTicksIn>914456774963789</pproTicksIn>
					<pproTicksOut>914677708529577</pproTicksOut>
					<alphatype>straight</alphatype>
					<pixelaspectratio>square</pixelaspectratio>
					<anamorphic>FALSE</anamorphic>
					<file id="file-393">
					<name></name>
					<mediaSource>GraphicAndType</mediaSource>
					<rate>
					<timebase>60</timebase>
					<ntsc>TRUE</ntsc>
					</rate>
					<timecode>
					<rate>
					<timebase>60</timebase>
					<ntsc>TRUE</ntsc>
					</rate>
					<string>00:00:00:00</string>
					<frame>0</frame>
					<displayformat>NDF</displayformat>
					</timecode>
					<media>
					<video>
					<samplecharacteristics>
					<rate>
					<timebase>60</timebase>
					<ntsc>TRUE</ntsc>
					</rate>
					<width>1080</width>
					<height>1920</height>
					<anamorphic>FALSE</anamorphic>
					<pixelaspectratio>square</pixelaspectratio>
					<fielddominance>none</fielddominance>
					</samplecharacteristics>
					</video>
					</media>
					</file>
					<filter>
					<effect>
					<name></name>
					<effectid>GraphicAndType</effectid>
					<effectcategory>graphic</effectcategory>
					<effecttype>filter</effecttype>
					<mediatype>video</mediatype>
					<pproBypass>false</pproBypass>
					<parameter authoringApp="PremierePro">
					<parameterid>1</parameterid>
					<name></name>
					<hash>025b1101-ead6-0ca2-1feb-caf3000001fc</hash>
					<value>5AEAAAAAAABEMyIRDAAAAAAABgAKAAQABgAAAGQAAAAAAF4ASAAQAAwARABAADwAOAAAAAAAAAAAADQAMwAsAAAAKAAkACAAAAAAAAAAAAAAAAAAHAAAAAAAGgAAAAAAAAAUAAAAAAAAAAAAAAAAAAAAAAAAAAgAAAAAABsABwBeAAAAAAAAAUAAAABQAAAAbAAAAAIAAAAAAAEAAQAAAAAAQEEAAMBAAABAQAAAyEIAAAABIAAAAAIAAAACAAAAAAA2QwCASkTw/v//9P7///j+//8S////AAAAAAEAAAAEAAAAEQAAAEhHUFNvZWlLYWt1cG9wdGFpAAAAAQAAAAwAAAAIAAwABAAIAAgAAAAIAAAAUAAAAA8AAADvvIEAAAAAAAAAAAAAAAAAAAA2ACQAAAAgABwAAAAAABsAFAAAAAAAAAAAAAAAAAAAAAAAAAAAABAAAAAAAAAADAAAAAgABAA2AAAAAgAAABwAAAAcAAAAHAAAAAAAIEEAAAABaAAAAE3PAEOw////tP///wEAAAAUAAAAEAAaAAgABwAMAAAAEAAUABAAAAAAAAABHAAAAAAAoEEcAAAAAgAAAAAACgAIAAUABgAHAAoAAAAADAD//P///wQABAAEAAAACAAIAAYABwAIAAAAAAAMAA==</value>
					</parameter>
					<parameter authoringApp="PremierePro">
					<parameterid>2</parameterid>
					<name></name>
					<IsTimeVarying>false</IsTimeVarying>
					<ParameterControlType>11</ParameterControlType>
					<LowerBound>false</LowerBound>
					<UpperBound>false</UpperBound>
					<value>-91445760000000000,false,0,0,0,0,0,0</value>
					</parameter>
					<parameter authoringApp="PremierePro">
					<parameterid>3</parameterid>
					<name></name>
					<IsTimeVarying>false</IsTimeVarying>
					<value>-91445760000000000,0.5:0.5,0,0,0,0,0,0,5,4,0,0,0,0</value>
					</parameter>
					<parameter authoringApp="PremierePro">
					<parameterid>4</parameterid>
					<name></name>
					<IsTimeVarying>false</IsTimeVarying>
					<ParameterControlType>2</ParameterControlType>
					<LowerBound>0</LowerBound>
					<UpperBound>4000</UpperBound>
					<value>-91445760000000000,100.,0,0,0,0,0,0</value>
					</parameter>
					<parameter authoringApp="PremierePro">
					<parameterid>8</parameterid>
					<name></name>
					<IsTimeVarying>false</IsTimeVarying>
					<ParameterControlType>2</ParameterControlType>
					<LowerBound>0</LowerBound>
					<UpperBound>100</UpperBound>
					<value>-91445760000000000,100.,0,0,0,0,0,0</value>
					</parameter>
					</effect>
					</filter>
					<logginginfo>
					<description></description>
					<scene></scene>
					<shottake></shottake>
					<lognote></lognote>
					<good></good>
					<originalvideofilename></originalvideofilename>
					<originalaudiofilename></originalaudiofilename>
					</logginginfo>
					<colorinfo>
					<lut></lut>
					<lut1></lut1>
					<asc_sop></asc_sop>
					<asc_sat></asc_sat>
					<lut2></lut2>
					</colorinfo>
					<labels>
					</labels>
					</clipitem>
					<clipitem frameBlend="FALSE" id="clipitem-482">
					<masterclipid>masterclip-402</masterclipid>
					<name></name>
					<enabled>TRUE</enabled>
					<duration>2582774</duration>
					<rate>
					
					                                    <timebase>60</timebase>
					                                    <ntsc>TRUE</ntsc>
					                                
					</rate>
					<start>3700</start>
					<end>3760</end>
					<in>3700</in>
					<out>3760</out>
					<pproTicksIn>914456774963789</pproTicksIn>
					<pproTicksOut>914677708529577</pproTicksOut>
					<alphatype>straight</alphatype>
					<pixelaspectratio>square</pixelaspectratio>
					<anamorphic>FALSE</anamorphic>
					<file id="file-401">
					<name></name>
					<mediaSource>GraphicAndType</mediaSource>
					<rate>
					<timebase>60</timebase>
					<ntsc>TRUE</ntsc>
					</rate>
					<timecode>
					<rate>
					<timebase>60</timebase>
					<ntsc>TRUE</ntsc>
					</rate>
					<string>00:00:00:00</string>
					<frame>0</frame>
					<displayformat>NDF</displayformat>
					</timecode>
					<media>
					<video>
					<samplecharacteristics>
					<rate>
					<timebase>60</timebase>
					<ntsc>TRUE</ntsc>
					</rate>
					<width>1080</width>
					<height>1920</height>
					<anamorphic>FALSE</anamorphic>
					<pixelaspectratio>square</pixelaspectratio>
					<fielddominance>none</fielddominance>
					</samplecharacteristics>
					</video>
					</media>
					</file>
					<filter>
					<effect>
					<name></name>
					<effectid>GraphicAndType</effectid>
					<effectcategory>graphic</effectcategory>
					<effecttype>filter</effecttype>
					<mediatype>video</mediatype>
					<pproBypass>false</pproBypass>
					<parameter authoringApp="PremierePro">
					<parameterid>1</parameterid>
					<name></name>
					<hash>025b1101-ead6-0ca2-1feb-caf3000001fc</hash>
					<value>5AEAAAAAAABEMyIRDAAAAAAABgAKAAQABgAAAGQAAAAAAF4ASAAQAAwARABAADwAOAAAAAAAAAAAADQAMwAsAAAAKAAkACAAAAAAAAAAAAAAAAAAHAAAAAAAGgAAAAAAAAAUAAAAAAAAAAAAAAAAAAAAAAAAAAgAAAAAABsABwBeAAAAAAAAAUAAAABQAAAAbAAAAAIAAAAAAAEAAQAAAAAAQEEAAMBAAABAQAAAyEIAAAABIAAAAAIAAAACAAAAAAA2QwCASkTw/v//9P7///j+//8S////AAAAAAEAAAAEAAAAEQAAAEhHUFNvZWlLYWt1cG9wdGFpAAAAAQAAAAwAAAAIAAwABAAIAAgAAAAIAAAAUAAAAA8AAADvvIEAAAAAAAAAAAAAAAAAAAA2ACQAAAAgABwAAAAAABsAFAAAAAAAAAAAAAAAAAAAAAAAAAAAABAAAAAAAAAADAAAAAgABAA2AAAAAgAAABwAAAAcAAAAHAAAAAAAIEEAAAABaAAAAE3PAEOw////tP///wEAAAAUAAAAEAAaAAgABwAMAAAAEAAUABAAAAAAAAABHAAAAAAAoEEcAAAAAgAAAAAACgAIAAUABgAHAAoAAAAADAD//P///wQABAAEAAAACAAIAAYABwAIAAAAAAAMAA==</value>
					</parameter>
					<parameter authoringApp="PremierePro">
					<parameterid>2</parameterid>
					<name></name>
					<IsTimeVarying>false</IsTimeVarying>
					<ParameterControlType>11</ParameterControlType>
					<LowerBound>false</LowerBound>
					<UpperBound>false</UpperBound>
					<value>-91445760000000000,false,0,0,0,0,0,0</value>
					</parameter>
					<parameter authoringApp="PremierePro">
					<parameterid>3</parameterid>
					<name></name>
					<IsTimeVarying>false</IsTimeVarying>
					<value>-91445760000000000,0.5:0.5,0,0,0,0,0,0,5,4,0,0,0,0</value>
					</parameter>
					<parameter authoringApp="PremierePro">
					<parameterid>4</parameterid>
					<name></name>
					<IsTimeVarying>false</IsTimeVarying>
					<ParameterControlType>2</ParameterControlType>
					<LowerBound>0</LowerBound>
					<UpperBound>4000</UpperBound>
					<value>-91445760000000000,100.,0,0,0,0,0,0</value>
					</parameter>
					<parameter authoringApp="PremierePro">
					<parameterid>8</parameterid>
					<name></name>
					<IsTimeVarying>false</IsTimeVarying>
					<ParameterControlType>2</ParameterControlType>
					<LowerBound>0</LowerBound>
					<UpperBound>100</UpperBound>
					<value>-91445760000000000,100.,0,0,0,0,0,0</value>
					</parameter>
					</effect>
					</filter>
					<logginginfo>
					<description></description>
					<scene></scene>
					<shottake></shottake>
					<lognote></lognote>
					<good></good>
					<originalvideofilename></originalvideofilename>
					<originalaudiofilename></originalaudiofilename>
					</logginginfo>
					<colorinfo>
					<lut></lut>
					<lut1></lut1>
					<asc_sop></asc_sop>
					<asc_sat></asc_sat>
					<lut2></lut2>
					</colorinfo>
					<labels>
					</labels>
					</clipitem>
					<clipitem frameBlend="FALSE" id="clipitem-491">
					<masterclipid>masterclip-411</masterclipid>
					<name></name>
					<enabled>TRUE</enabled>
					<duration>2582774</duration>
					<rate>
					
					                                    <timebase>60</timebase>
					                                    <ntsc>TRUE</ntsc>
					                                
					</rate>
					<start>3760</start>
					<end>3826</end>
					<in>3760</in>
					<out>3826</out>
					<pproTicksIn>914456774963789</pproTicksIn>
					<pproTicksOut>914677708529577</pproTicksOut>
					<alphatype>straight</alphatype>
					<pixelaspectratio>square</pixelaspectratio>
					<anamorphic>FALSE</anamorphic>
					<file id="file-410">
					<name></name>
					<mediaSource>GraphicAndType</mediaSource>
					<rate>
					<timebase>60</timebase>
					<ntsc>TRUE</ntsc>
					</rate>
					<timecode>
					<rate>
					<timebase>60</timebase>
					<ntsc>TRUE</ntsc>
					</rate>
					<string>00:00:00:00</string>
					<frame>0</frame>
					<displayformat>NDF</displayformat>
					</timecode>
					<media>
					<video>
					<samplecharacteristics>
					<rate>
					<timebase>60</timebase>
					<ntsc>TRUE</ntsc>
					</rate>
					<width>1080</width>
					<height>1920</height>
					<anamorphic>FALSE</anamorphic>
					<pixelaspectratio>square</pixelaspectratio>
					<fielddominance>none</fielddominance>
					</samplecharacteristics>
					</video>
					</media>
					</file>
					<filter>
					<effect>
					<name></name>
					<effectid>GraphicAndType</effectid>
					<effectcategory>graphic</effectcategory>
					<effecttype>filter</effecttype>
					<mediatype>video</mediatype>
					<pproBypass>false</pproBypass>
					<parameter authoringApp="PremierePro">
					<parameterid>1</parameterid>
					<name></name>
					<hash>025b1101-ead6-0ca2-1feb-caf3000001fc</hash>
					<value>5AEAAAAAAABEMyIRDAAAAAAABgAKAAQABgAAAGQAAAAAAF4ASAAQAAwARABAADwAOAAAAAAAAAAAADQAMwAsAAAAKAAkACAAAAAAAAAAAAAAAAAAHAAAAAAAGgAAAAAAAAAUAAAAAAAAAAAAAAAAAAAAAAAAAAgAAAAAABsABwBeAAAAAAAAAUAAAABQAAAAbAAAAAIAAAAAAAEAAQAAAAAAQEEAAMBAAABAQAAAyEIAAAABIAAAAAIAAAACAAAAAAA2QwCASkTw/v//9P7///j+//8S////AAAAAAEAAAAEAAAAEQAAAEhHUFNvZWlLYWt1cG9wdGFpAAAAAQAAAAwAAAAIAAwABAAIAAgAAAAIAAAAUAAAAA8AAADvvIEAAAAAAAAAAAAAAAAAAAA2ACQAAAAgABwAAAAAABsAFAAAAAAAAAAAAAAAAAAAAAAAAAAAABAAAAAAAAAADAAAAAgABAA2AAAAAgAAABwAAAAcAAAAHAAAAAAAIEEAAAABaAAAAE3PAEOw////tP///wEAAAAUAAAAEAAaAAgABwAMAAAAEAAUABAAAAAAAAABHAAAAAAAoEEcAAAAAgAAAAAACgAIAAUABgAHAAoAAAAADAD//P///wQABAAEAAAACAAIAAYABwAIAAAAAAAMAA==</value>
					</parameter>
					<parameter authoringApp="PremierePro">
					<parameterid>2</parameterid>
					<name></name>
					<IsTimeVarying>false</IsTimeVarying>
					<ParameterControlType>11</ParameterControlType>
					<LowerBound>false</LowerBound>
					<UpperBound>false</UpperBound>
					<value>-91445760000000000,false,0,0,0,0,0,0</value>
					</parameter>
					<parameter authoringApp="PremierePro">
					<parameterid>3</parameterid>
					<name></name>
					<IsTimeVarying>false</IsTimeVarying>
					<value>-91445760000000000,0.5:0.5,0,0,0,0,0,0,5,4,0,0,0,0</value>
					</parameter>
					<parameter authoringApp="PremierePro">
					<parameterid>4</parameterid>
					<name></name>
					<IsTimeVarying>false</IsTimeVarying>
					<ParameterControlType>2</ParameterControlType>
					<LowerBound>0</LowerBound>
					<UpperBound>4000</UpperBound>
					<value>-91445760000000000,100.,0,0,0,0,0,0</value>
					</parameter>
					<parameter authoringApp="PremierePro">
					<parameterid>8</parameterid>
					<name></name>
					<IsTimeVarying>false</IsTimeVarying>
					<ParameterControlType>2</ParameterControlType>
					<LowerBound>0</LowerBound>
					<UpperBound>100</UpperBound>
					<value>-91445760000000000,100.,0,0,0,0,0,0</value>
					</parameter>
					</effect>
					</filter>
					<logginginfo>
					<description></description>
					<scene></scene>
					<shottake></shottake>
					<lognote></lognote>
					<good></good>
					<originalvideofilename></originalvideofilename>
					<originalaudiofilename></originalaudiofilename>
					</logginginfo>
					<colorinfo>
					<lut></lut>
					<lut1></lut1>
					<asc_sop></asc_sop>
					<asc_sat></asc_sat>
					<lut2></lut2>
					</colorinfo>
					<labels>
					</labels>
					</clipitem>
					<clipitem frameBlend="FALSE" id="clipitem-498">
					<masterclipid>masterclip-418</masterclipid>
					<name></name>
					<enabled>TRUE</enabled>
					<duration>2582774</duration>
					<rate>
					
					                                    <timebase>60</timebase>
					                                    <ntsc>TRUE</ntsc>
					                                
					</rate>
					<start>3844</start>
					<end>3904</end>
					<in>3844</in>
					<out>3904</out>
					<pproTicksIn>914456774963789</pproTicksIn>
					<pproTicksOut>914677708529577</pproTicksOut>
					<alphatype>straight</alphatype>
					<pixelaspectratio>square</pixelaspectratio>
					<anamorphic>FALSE</anamorphic>
					<file id="file-417">
					<name></name>
					<mediaSource>GraphicAndType</mediaSource>
					<rate>
					<timebase>60</timebase>
					<ntsc>TRUE</ntsc>
					</rate>
					<timecode>
					<rate>
					<timebase>60</timebase>
					<ntsc>TRUE</ntsc>
					</rate>
					<string>00:00:00:00</string>
					<frame>0</frame>
					<displayformat>NDF</displayformat>
					</timecode>
					<media>
					<video>
					<samplecharacteristics>
					<rate>
					<timebase>60</timebase>
					<ntsc>TRUE</ntsc>
					</rate>
					<width>1080</width>
					<height>1920</height>
					<anamorphic>FALSE</anamorphic>
					<pixelaspectratio>square</pixelaspectratio>
					<fielddominance>none</fielddominance>
					</samplecharacteristics>
					</video>
					</media>
					</file>
					<filter>
					<effect>
					<name></name>
					<effectid>GraphicAndType</effectid>
					<effectcategory>graphic</effectcategory>
					<effecttype>filter</effecttype>
					<mediatype>video</mediatype>
					<pproBypass>false</pproBypass>
					<parameter authoringApp="PremierePro">
					<parameterid>1</parameterid>
					<name></name>
					<hash>025b1101-ead6-0ca2-1feb-caf3000001fc</hash>
					<value>5AEAAAAAAABEMyIRDAAAAAAABgAKAAQABgAAAGQAAAAAAF4ASAAQAAwARABAADwAOAAAAAAAAAAAADQAMwAsAAAAKAAkACAAAAAAAAAAAAAAAAAAHAAAAAAAGgAAAAAAAAAUAAAAAAAAAAAAAAAAAAAAAAAAAAgAAAAAABsABwBeAAAAAAAAAUAAAABQAAAAbAAAAAIAAAAAAAEAAQAAAAAAQEEAAMBAAABAQAAAyEIAAAABIAAAAAIAAAACAAAAAAA2QwCASkTw/v//9P7///j+//8S////AAAAAAEAAAAEAAAAEQAAAEhHUFNvZWlLYWt1cG9wdGFpAAAAAQAAAAwAAAAIAAwABAAIAAgAAAAIAAAAUAAAAA8AAADvvIEAAAAAAAAAAAAAAAAAAAA2ACQAAAAgABwAAAAAABsAFAAAAAAAAAAAAAAAAAAAAAAAAAAAABAAAAAAAAAADAAAAAgABAA2AAAAAgAAABwAAAAcAAAAHAAAAAAAIEEAAAABaAAAAE3PAEOw////tP///wEAAAAUAAAAEAAaAAgABwAMAAAAEAAUABAAAAAAAAABHAAAAAAAoEEcAAAAAgAAAAAACgAIAAUABgAHAAoAAAAADAD//P///wQABAAEAAAACAAIAAYABwAIAAAAAAAMAA==</value>
					</parameter>
					<parameter authoringApp="PremierePro">
					<parameterid>2</parameterid>
					<name></name>
					<IsTimeVarying>false</IsTimeVarying>
					<ParameterControlType>11</ParameterControlType>
					<LowerBound>false</LowerBound>
					<UpperBound>false</UpperBound>
					<value>-91445760000000000,false,0,0,0,0,0,0</value>
					</parameter>
					<parameter authoringApp="PremierePro">
					<parameterid>3</parameterid>
					<name></name>
					<IsTimeVarying>false</IsTimeVarying>
					<value>-91445760000000000,0.5:0.5,0,0,0,0,0,0,5,4,0,0,0,0</value>
					</parameter>
					<parameter authoringApp="PremierePro">
					<parameterid>4</parameterid>
					<name></name>
					<IsTimeVarying>false</IsTimeVarying>
					<ParameterControlType>2</ParameterControlType>
					<LowerBound>0</LowerBound>
					<UpperBound>4000</UpperBound>
					<value>-91445760000000000,100.,0,0,0,0,0,0</value>
					</parameter>
					<parameter authoringApp="PremierePro">
					<parameterid>8</parameterid>
					<name></name>
					<IsTimeVarying>false</IsTimeVarying>
					<ParameterControlType>2</ParameterControlType>
					<LowerBound>0</LowerBound>
					<UpperBound>100</UpperBound>
					<value>-91445760000000000,100.,0,0,0,0,0,0</value>
					</parameter>
					</effect>
					</filter>
					<logginginfo>
					<description></description>
					<scene></scene>
					<shottake></shottake>
					<lognote></lognote>
					<good></good>
					<originalvideofilename></originalvideofilename>
					<originalaudiofilename></originalaudiofilename>
					</logginginfo>
					<colorinfo>
					<lut></lut>
					<lut1></lut1>
					<asc_sop></asc_sop>
					<asc_sat></asc_sat>
					<lut2></lut2>
					</colorinfo>
					<labels>
					</labels>
					</clipitem>
					<clipitem frameBlend="FALSE" id="clipitem-513">
					<masterclipid>masterclip-433</masterclipid>
					<name></name>
					<enabled>TRUE</enabled>
					<duration>2582774</duration>
					<rate>
					
					                                    <timebase>60</timebase>
					                                    <ntsc>TRUE</ntsc>
					                                
					</rate>
					<start>4102</start>
					<end>4162</end>
					<in>4102</in>
					<out>4162</out>
					<pproTicksIn>914456774963789</pproTicksIn>
					<pproTicksOut>914677708529577</pproTicksOut>
					<alphatype>straight</alphatype>
					<pixelaspectratio>square</pixelaspectratio>
					<anamorphic>FALSE</anamorphic>
					<file id="file-432">
					<name></name>
					<mediaSource>GraphicAndType</mediaSource>
					<rate>
					<timebase>60</timebase>
					<ntsc>TRUE</ntsc>
					</rate>
					<timecode>
					<rate>
					<timebase>60</timebase>
					<ntsc>TRUE</ntsc>
					</rate>
					<string>00:00:00:00</string>
					<frame>0</frame>
					<displayformat>NDF</displayformat>
					</timecode>
					<media>
					<video>
					<samplecharacteristics>
					<rate>
					<timebase>60</timebase>
					<ntsc>TRUE</ntsc>
					</rate>
					<width>1080</width>
					<height>1920</height>
					<anamorphic>FALSE</anamorphic>
					<pixelaspectratio>square</pixelaspectratio>
					<fielddominance>none</fielddominance>
					</samplecharacteristics>
					</video>
					</media>
					</file>
					<filter>
					<effect>
					<name></name>
					<effectid>GraphicAndType</effectid>
					<effectcategory>graphic</effectcategory>
					<effecttype>filter</effecttype>
					<mediatype>video</mediatype>
					<pproBypass>false</pproBypass>
					<parameter authoringApp="PremierePro">
					<parameterid>1</parameterid>
					<name></name>
					<hash>025b1101-ead6-0ca2-1feb-caf3000001fc</hash>
					<value>5AEAAAAAAABEMyIRDAAAAAAABgAKAAQABgAAAGQAAAAAAF4ASAAQAAwARABAADwAOAAAAAAAAAAAADQAMwAsAAAAKAAkACAAAAAAAAAAAAAAAAAAHAAAAAAAGgAAAAAAAAAUAAAAAAAAAAAAAAAAAAAAAAAAAAgAAAAAABsABwBeAAAAAAAAAUAAAABQAAAAbAAAAAIAAAAAAAEAAQAAAAAAQEEAAMBAAABAQAAAyEIAAAABIAAAAAIAAAACAAAAAAA2QwCASkTw/v//9P7///j+//8S////AAAAAAEAAAAEAAAAEQAAAEhHUFNvZWlLYWt1cG9wdGFpAAAAAQAAAAwAAAAIAAwABAAIAAgAAAAIAAAAUAAAAA8AAADvvIEAAAAAAAAAAAAAAAAAAAA2ACQAAAAgABwAAAAAABsAFAAAAAAAAAAAAAAAAAAAAAAAAAAAABAAAAAAAAAADAAAAAgABAA2AAAAAgAAABwAAAAcAAAAHAAAAAAAIEEAAAABaAAAAE3PAEOw////tP///wEAAAAUAAAAEAAaAAgABwAMAAAAEAAUABAAAAAAAAABHAAAAAAAoEEcAAAAAgAAAAAACgAIAAUABgAHAAoAAAAADAD//P///wQABAAEAAAACAAIAAYABwAIAAAAAAAMAA==</value>
					</parameter>
					<parameter authoringApp="PremierePro">
					<parameterid>2</parameterid>
					<name></name>
					<IsTimeVarying>false</IsTimeVarying>
					<ParameterControlType>11</ParameterControlType>
					<LowerBound>false</LowerBound>
					<UpperBound>false</UpperBound>
					<value>-91445760000000000,false,0,0,0,0,0,0</value>
					</parameter>
					<parameter authoringApp="PremierePro">
					<parameterid>3</parameterid>
					<name></name>
					<IsTimeVarying>false</IsTimeVarying>
					<value>-91445760000000000,0.5:0.5,0,0,0,0,0,0,5,4,0,0,0,0</value>
					</parameter>
					<parameter authoringApp="PremierePro">
					<parameterid>4</parameterid>
					<name></name>
					<IsTimeVarying>false</IsTimeVarying>
					<ParameterControlType>2</ParameterControlType>
					<LowerBound>0</LowerBound>
					<UpperBound>4000</UpperBound>
					<value>-91445760000000000,100.,0,0,0,0,0,0</value>
					</parameter>
					<parameter authoringApp="PremierePro">
					<parameterid>8</parameterid>
					<name></name>
					<IsTimeVarying>false</IsTimeVarying>
					<ParameterControlType>2</ParameterControlType>
					<LowerBound>0</LowerBound>
					<UpperBound>100</UpperBound>
					<value>-91445760000000000,100.,0,0,0,0,0,0</value>
					</parameter>
					</effect>
					</filter>
					<logginginfo>
					<description></description>
					<scene></scene>
					<shottake></shottake>
					<lognote></lognote>
					<good></good>
					<originalvideofilename></originalvideofilename>
					<originalaudiofilename></originalaudiofilename>
					</logginginfo>
					<colorinfo>
					<lut></lut>
					<lut1></lut1>
					<asc_sop></asc_sop>
					<asc_sat></asc_sat>
					<lut2></lut2>
					</colorinfo>
					<labels>
					</labels>
					</clipitem>
					<clipitem frameBlend="FALSE" id="clipitem-520">
					<masterclipid>masterclip-440</masterclipid>
					<name></name>
					<enabled>TRUE</enabled>
					<duration>2582774</duration>
					<rate>
					
					                                    <timebase>60</timebase>
					                                    <ntsc>TRUE</ntsc>
					                                
					</rate>
					<start>4222</start>
					<end>4282</end>
					<in>4222</in>
					<out>4282</out>
					<pproTicksIn>914456774963789</pproTicksIn>
					<pproTicksOut>914677708529577</pproTicksOut>
					<alphatype>straight</alphatype>
					<pixelaspectratio>square</pixelaspectratio>
					<anamorphic>FALSE</anamorphic>
					<file id="file-439">
					<name></name>
					<mediaSource>GraphicAndType</mediaSource>
					<rate>
					<timebase>60</timebase>
					<ntsc>TRUE</ntsc>
					</rate>
					<timecode>
					<rate>
					<timebase>60</timebase>
					<ntsc>TRUE</ntsc>
					</rate>
					<string>00:00:00:00</string>
					<frame>0</frame>
					<displayformat>NDF</displayformat>
					</timecode>
					<media>
					<video>
					<samplecharacteristics>
					<rate>
					<timebase>60</timebase>
					<ntsc>TRUE</ntsc>
					</rate>
					<width>1080</width>
					<height>1920</height>
					<anamorphic>FALSE</anamorphic>
					<pixelaspectratio>square</pixelaspectratio>
					<fielddominance>none</fielddominance>
					</samplecharacteristics>
					</video>
					</media>
					</file>
					<filter>
					<effect>
					<name></name>
					<effectid>GraphicAndType</effectid>
					<effectcategory>graphic</effectcategory>
					<effecttype>filter</effecttype>
					<mediatype>video</mediatype>
					<pproBypass>false</pproBypass>
					<parameter authoringApp="PremierePro">
					<parameterid>1</parameterid>
					<name></name>
					<hash>025b1101-ead6-0ca2-1feb-caf3000001fc</hash>
					<value>5AEAAAAAAABEMyIRDAAAAAAABgAKAAQABgAAAGQAAAAAAF4ASAAQAAwARABAADwAOAAAAAAAAAAAADQAMwAsAAAAKAAkACAAAAAAAAAAAAAAAAAAHAAAAAAAGgAAAAAAAAAUAAAAAAAAAAAAAAAAAAAAAAAAAAgAAAAAABsABwBeAAAAAAAAAUAAAABQAAAAbAAAAAIAAAAAAAEAAQAAAAAAQEEAAMBAAABAQAAAyEIAAAABIAAAAAIAAAACAAAAAAA2QwCASkTw/v//9P7///j+//8S////AAAAAAEAAAAEAAAAEQAAAEhHUFNvZWlLYWt1cG9wdGFpAAAAAQAAAAwAAAAIAAwABAAIAAgAAAAIAAAAUAAAAA8AAADvvIEAAAAAAAAAAAAAAAAAAAA2ACQAAAAgABwAAAAAABsAFAAAAAAAAAAAAAAAAAAAAAAAAAAAABAAAAAAAAAADAAAAAgABAA2AAAAAgAAABwAAAAcAAAAHAAAAAAAIEEAAAABaAAAAE3PAEOw////tP///wEAAAAUAAAAEAAaAAgABwAMAAAAEAAUABAAAAAAAAABHAAAAAAAoEEcAAAAAgAAAAAACgAIAAUABgAHAAoAAAAADAD//P///wQABAAEAAAACAAIAAYABwAIAAAAAAAMAA==</value>
					</parameter>
					<parameter authoringApp="PremierePro">
					<parameterid>2</parameterid>
					<name></name>
					<IsTimeVarying>false</IsTimeVarying>
					<ParameterControlType>11</ParameterControlType>
					<LowerBound>false</LowerBound>
					<UpperBound>false</UpperBound>
					<value>-91445760000000000,false,0,0,0,0,0,0</value>
					</parameter>
					<parameter authoringApp="PremierePro">
					<parameterid>3</parameterid>
					<name></name>
					<IsTimeVarying>false</IsTimeVarying>
					<value>-91445760000000000,0.5:0.5,0,0,0,0,0,0,5,4,0,0,0,0</value>
					</parameter>
					<parameter authoringApp="PremierePro">
					<parameterid>4</parameterid>
					<name></name>
					<IsTimeVarying>false</IsTimeVarying>
					<ParameterControlType>2</ParameterControlType>
					<LowerBound>0</LowerBound>
					<UpperBound>4000</UpperBound>
					<value>-91445760000000000,100.,0,0,0,0,0,0</value>
					</parameter>
					<parameter authoringApp="PremierePro">
					<parameterid>8</parameterid>
					<name></name>
					<IsTimeVarying>false</IsTimeVarying>
					<ParameterControlType>2</ParameterControlType>
					<LowerBound>0</LowerBound>
					<UpperBound>100</UpperBound>
					<value>-91445760000000000,100.,0,0,0,0,0,0</value>
					</parameter>
					</effect>
					</filter>
					<logginginfo>
					<description></description>
					<scene></scene>
					<shottake></shottake>
					<lognote></lognote>
					<good></good>
					<originalvideofilename></originalvideofilename>
					<originalaudiofilename></originalaudiofilename>
					</logginginfo>
					<colorinfo>
					<lut></lut>
					<lut1></lut1>
					<asc_sop></asc_sop>
					<asc_sat></asc_sat>
					<lut2></lut2>
					</colorinfo>
					<labels>
					</labels>
					</clipitem>
					<clipitem frameBlend="FALSE" id="clipitem-529">
					<masterclipid>masterclip-449</masterclipid>
					<name></name>
					<enabled>TRUE</enabled>
					<duration>2582774</duration>
					<rate>
					
					                                    <timebase>60</timebase>
					                                    <ntsc>TRUE</ntsc>
					                                
					</rate>
					<start>4300</start>
					<end>4360</end>
					<in>4300</in>
					<out>4360</out>
					<pproTicksIn>914456774963789</pproTicksIn>
					<pproTicksOut>914677708529577</pproTicksOut>
					<alphatype>straight</alphatype>
					<pixelaspectratio>square</pixelaspectratio>
					<anamorphic>FALSE</anamorphic>
					<file id="file-448">
					<name></name>
					<mediaSource>GraphicAndType</mediaSource>
					<rate>
					<timebase>60</timebase>
					<ntsc>TRUE</ntsc>
					</rate>
					<timecode>
					<rate>
					<timebase>60</timebase>
					<ntsc>TRUE</ntsc>
					</rate>
					<string>00:00:00:00</string>
					<frame>0</frame>
					<displayformat>NDF</displayformat>
					</timecode>
					<media>
					<video>
					<samplecharacteristics>
					<rate>
					<timebase>60</timebase>
					<ntsc>TRUE</ntsc>
					</rate>
					<width>1080</width>
					<height>1920</height>
					<anamorphic>FALSE</anamorphic>
					<pixelaspectratio>square</pixelaspectratio>
					<fielddominance>none</fielddominance>
					</samplecharacteristics>
					</video>
					</media>
					</file>
					<filter>
					<effect>
					<name></name>
					<effectid>GraphicAndType</effectid>
					<effectcategory>graphic</effectcategory>
					<effecttype>filter</effecttype>
					<mediatype>video</mediatype>
					<pproBypass>false</pproBypass>
					<parameter authoringApp="PremierePro">
					<parameterid>1</parameterid>
					<name></name>
					<hash>025b1101-ead6-0ca2-1feb-caf3000001fc</hash>
					<value>5AEAAAAAAABEMyIRDAAAAAAABgAKAAQABgAAAGQAAAAAAF4ASAAQAAwARABAADwAOAAAAAAAAAAAADQAMwAsAAAAKAAkACAAAAAAAAAAAAAAAAAAHAAAAAAAGgAAAAAAAAAUAAAAAAAAAAAAAAAAAAAAAAAAAAgAAAAAABsABwBeAAAAAAAAAUAAAABQAAAAbAAAAAIAAAAAAAEAAQAAAAAAQEEAAMBAAABAQAAAyEIAAAABIAAAAAIAAAACAAAAAAA2QwCASkTw/v//9P7///j+//8S////AAAAAAEAAAAEAAAAEQAAAEhHUFNvZWlLYWt1cG9wdGFpAAAAAQAAAAwAAAAIAAwABAAIAAgAAAAIAAAAUAAAAA8AAADvvIEAAAAAAAAAAAAAAAAAAAA2ACQAAAAgABwAAAAAABsAFAAAAAAAAAAAAAAAAAAAAAAAAAAAABAAAAAAAAAADAAAAAgABAA2AAAAAgAAABwAAAAcAAAAHAAAAAAAIEEAAAABaAAAAE3PAEOw////tP///wEAAAAUAAAAEAAaAAgABwAMAAAAEAAUABAAAAAAAAABHAAAAAAAoEEcAAAAAgAAAAAACgAIAAUABgAHAAoAAAAADAD//P///wQABAAEAAAACAAIAAYABwAIAAAAAAAMAA==</value>
					</parameter>
					<parameter authoringApp="PremierePro">
					<parameterid>2</parameterid>
					<name></name>
					<IsTimeVarying>false</IsTimeVarying>
					<ParameterControlType>11</ParameterControlType>
					<LowerBound>false</LowerBound>
					<UpperBound>false</UpperBound>
					<value>-91445760000000000,false,0,0,0,0,0,0</value>
					</parameter>
					<parameter authoringApp="PremierePro">
					<parameterid>3</parameterid>
					<name></name>
					<IsTimeVarying>false</IsTimeVarying>
					<value>-91445760000000000,0.5:0.5,0,0,0,0,0,0,5,4,0,0,0,0</value>
					</parameter>
					<parameter authoringApp="PremierePro">
					<parameterid>4</parameterid>
					<name></name>
					<IsTimeVarying>false</IsTimeVarying>
					<ParameterControlType>2</ParameterControlType>
					<LowerBound>0</LowerBound>
					<UpperBound>4000</UpperBound>
					<value>-91445760000000000,100.,0,0,0,0,0,0</value>
					</parameter>
					<parameter authoringApp="PremierePro">
					<parameterid>8</parameterid>
					<name></name>
					<IsTimeVarying>false</IsTimeVarying>
					<ParameterControlType>2</ParameterControlType>
					<LowerBound>0</LowerBound>
					<UpperBound>100</UpperBound>
					<value>-91445760000000000,100.,0,0,0,0,0,0</value>
					</parameter>
					</effect>
					</filter>
					<logginginfo>
					<description></description>
					<scene></scene>
					<shottake></shottake>
					<lognote></lognote>
					<good></good>
					<originalvideofilename></originalvideofilename>
					<originalaudiofilename></originalaudiofilename>
					</logginginfo>
					<colorinfo>
					<lut></lut>
					<lut1></lut1>
					<asc_sop></asc_sop>
					<asc_sat></asc_sat>
					<lut2></lut2>
					</colorinfo>
					<labels>
					</labels>
					</clipitem>
					<clipitem frameBlend="FALSE" id="clipitem-535">
					<masterclipid>masterclip-455</masterclipid>
					<name></name>
					<enabled>TRUE</enabled>
					<duration>2582774</duration>
					<rate>
					
					                                    <timebase>60</timebase>
					                                    <ntsc>TRUE</ntsc>
					                                
					</rate>
					<start>4372</start>
					<end>4432</end>
					<in>4372</in>
					<out>4432</out>
					<pproTicksIn>914456774963789</pproTicksIn>
					<pproTicksOut>914677708529577</pproTicksOut>
					<alphatype>straight</alphatype>
					<pixelaspectratio>square</pixelaspectratio>
					<anamorphic>FALSE</anamorphic>
					<file id="file-454">
					<name></name>
					<mediaSource>GraphicAndType</mediaSource>
					<rate>
					<timebase>60</timebase>
					<ntsc>TRUE</ntsc>
					</rate>
					<timecode>
					<rate>
					<timebase>60</timebase>
					<ntsc>TRUE</ntsc>
					</rate>
					<string>00:00:00:00</string>
					<frame>0</frame>
					<displayformat>NDF</displayformat>
					</timecode>
					<media>
					<video>
					<samplecharacteristics>
					<rate>
					<timebase>60</timebase>
					<ntsc>TRUE</ntsc>
					</rate>
					<width>1080</width>
					<height>1920</height>
					<anamorphic>FALSE</anamorphic>
					<pixelaspectratio>square</pixelaspectratio>
					<fielddominance>none</fielddominance>
					</samplecharacteristics>
					</video>
					</media>
					</file>
					<filter>
					<effect>
					<name></name>
					<effectid>GraphicAndType</effectid>
					<effectcategory>graphic</effectcategory>
					<effecttype>filter</effecttype>
					<mediatype>video</mediatype>
					<pproBypass>false</pproBypass>
					<parameter authoringApp="PremierePro">
					<parameterid>1</parameterid>
					<name></name>
					<hash>025b1101-ead6-0ca2-1feb-caf3000001fc</hash>
					<value>5AEAAAAAAABEMyIRDAAAAAAABgAKAAQABgAAAGQAAAAAAF4ASAAQAAwARABAADwAOAAAAAAAAAAAADQAMwAsAAAAKAAkACAAAAAAAAAAAAAAAAAAHAAAAAAAGgAAAAAAAAAUAAAAAAAAAAAAAAAAAAAAAAAAAAgAAAAAABsABwBeAAAAAAAAAUAAAABQAAAAbAAAAAIAAAAAAAEAAQAAAAAAQEEAAMBAAABAQAAAyEIAAAABIAAAAAIAAAACAAAAAAA2QwCASkTw/v//9P7///j+//8S////AAAAAAEAAAAEAAAAEQAAAEhHUFNvZWlLYWt1cG9wdGFpAAAAAQAAAAwAAAAIAAwABAAIAAgAAAAIAAAAUAAAAA8AAADvvIEAAAAAAAAAAAAAAAAAAAA2ACQAAAAgABwAAAAAABsAFAAAAAAAAAAAAAAAAAAAAAAAAAAAABAAAAAAAAAADAAAAAgABAA2AAAAAgAAABwAAAAcAAAAHAAAAAAAIEEAAAABaAAAAE3PAEOw////tP///wEAAAAUAAAAEAAaAAgABwAMAAAAEAAUABAAAAAAAAABHAAAAAAAoEEcAAAAAgAAAAAACgAIAAUABgAHAAoAAAAADAD//P///wQABAAEAAAACAAIAAYABwAIAAAAAAAMAA==</value>
					</parameter>
					<parameter authoringApp="PremierePro">
					<parameterid>2</parameterid>
					<name></name>
					<IsTimeVarying>false</IsTimeVarying>
					<ParameterControlType>11</ParameterControlType>
					<LowerBound>false</LowerBound>
					<UpperBound>false</UpperBound>
					<value>-91445760000000000,false,0,0,0,0,0,0</value>
					</parameter>
					<parameter authoringApp="PremierePro">
					<parameterid>3</parameterid>
					<name></name>
					<IsTimeVarying>false</IsTimeVarying>
					<value>-91445760000000000,0.5:0.5,0,0,0,0,0,0,5,4,0,0,0,0</value>
					</parameter>
					<parameter authoringApp="PremierePro">
					<parameterid>4</parameterid>
					<name></name>
					<IsTimeVarying>false</IsTimeVarying>
					<ParameterControlType>2</ParameterControlType>
					<LowerBound>0</LowerBound>
					<UpperBound>4000</UpperBound>
					<value>-91445760000000000,100.,0,0,0,0,0,0</value>
					</parameter>
					<parameter authoringApp="PremierePro">
					<parameterid>8</parameterid>
					<name></name>
					<IsTimeVarying>false</IsTimeVarying>
					<ParameterControlType>2</ParameterControlType>
					<LowerBound>0</LowerBound>
					<UpperBound>100</UpperBound>
					<value>-91445760000000000,100.,0,0,0,0,0,0</value>
					</parameter>
					</effect>
					</filter>
					<logginginfo>
					<description></description>
					<scene></scene>
					<shottake></shottake>
					<lognote></lognote>
					<good></good>
					<originalvideofilename></originalvideofilename>
					<originalaudiofilename></originalaudiofilename>
					</logginginfo>
					<colorinfo>
					<lut></lut>
					<lut1></lut1>
					<asc_sop></asc_sop>
					<asc_sat></asc_sat>
					<lut2></lut2>
					</colorinfo>
					<labels>
					</labels>
					</clipitem>
					<clipitem frameBlend="FALSE" id="clipitem-544">
					<masterclipid>masterclip-464</masterclipid>
					<name></name>
					<enabled>TRUE</enabled>
					<duration>2582774</duration>
					<rate>
					
					                                    <timebase>60</timebase>
					                                    <ntsc>TRUE</ntsc>
					                                
					</rate>
					<start>4432</start>
					<end>4492</end>
					<in>4432</in>
					<out>4492</out>
					<pproTicksIn>914456774963789</pproTicksIn>
					<pproTicksOut>914677708529577</pproTicksOut>
					<alphatype>straight</alphatype>
					<pixelaspectratio>square</pixelaspectratio>
					<anamorphic>FALSE</anamorphic>
					<file id="file-463">
					<name></name>
					<mediaSource>GraphicAndType</mediaSource>
					<rate>
					<timebase>60</timebase>
					<ntsc>TRUE</ntsc>
					</rate>
					<timecode>
					<rate>
					<timebase>60</timebase>
					<ntsc>TRUE</ntsc>
					</rate>
					<string>00:00:00:00</string>
					<frame>0</frame>
					<displayformat>NDF</displayformat>
					</timecode>
					<media>
					<video>
					<samplecharacteristics>
					<rate>
					<timebase>60</timebase>
					<ntsc>TRUE</ntsc>
					</rate>
					<width>1080</width>
					<height>1920</height>
					<anamorphic>FALSE</anamorphic>
					<pixelaspectratio>square</pixelaspectratio>
					<fielddominance>none</fielddominance>
					</samplecharacteristics>
					</video>
					</media>
					</file>
					<filter>
					<effect>
					<name></name>
					<effectid>GraphicAndType</effectid>
					<effectcategory>graphic</effectcategory>
					<effecttype>filter</effecttype>
					<mediatype>video</mediatype>
					<pproBypass>false</pproBypass>
					<parameter authoringApp="PremierePro">
					<parameterid>1</parameterid>
					<name></name>
					<hash>025b1101-ead6-0ca2-1feb-caf3000001fc</hash>
					<value>5AEAAAAAAABEMyIRDAAAAAAABgAKAAQABgAAAGQAAAAAAF4ASAAQAAwARABAADwAOAAAAAAAAAAAADQAMwAsAAAAKAAkACAAAAAAAAAAAAAAAAAAHAAAAAAAGgAAAAAAAAAUAAAAAAAAAAAAAAAAAAAAAAAAAAgAAAAAABsABwBeAAAAAAAAAUAAAABQAAAAbAAAAAIAAAAAAAEAAQAAAAAAQEEAAMBAAABAQAAAyEIAAAABIAAAAAIAAAACAAAAAAA2QwCASkTw/v//9P7///j+//8S////AAAAAAEAAAAEAAAAEQAAAEhHUFNvZWlLYWt1cG9wdGFpAAAAAQAAAAwAAAAIAAwABAAIAAgAAAAIAAAAUAAAAA8AAADvvIEAAAAAAAAAAAAAAAAAAAA2ACQAAAAgABwAAAAAABsAFAAAAAAAAAAAAAAAAAAAAAAAAAAAABAAAAAAAAAADAAAAAgABAA2AAAAAgAAABwAAAAcAAAAHAAAAAAAIEEAAAABaAAAAE3PAEOw////tP///wEAAAAUAAAAEAAaAAgABwAMAAAAEAAUABAAAAAAAAABHAAAAAAAoEEcAAAAAgAAAAAACgAIAAUABgAHAAoAAAAADAD//P///wQABAAEAAAACAAIAAYABwAIAAAAAAAMAA==</value>
					</parameter>
					<parameter authoringApp="PremierePro">
					<parameterid>2</parameterid>
					<name></name>
					<IsTimeVarying>false</IsTimeVarying>
					<ParameterControlType>11</ParameterControlType>
					<LowerBound>false</LowerBound>
					<UpperBound>false</UpperBound>
					<value>-91445760000000000,false,0,0,0,0,0,0</value>
					</parameter>
					<parameter authoringApp="PremierePro">
					<parameterid>3</parameterid>
					<name></name>
					<IsTimeVarying>false</IsTimeVarying>
					<value>-91445760000000000,0.5:0.5,0,0,0,0,0,0,5,4,0,0,0,0</value>
					</parameter>
					<parameter authoringApp="PremierePro">
					<parameterid>4</parameterid>
					<name></name>
					<IsTimeVarying>false</IsTimeVarying>
					<ParameterControlType>2</ParameterControlType>
					<LowerBound>0</LowerBound>
					<UpperBound>4000</UpperBound>
					<value>-91445760000000000,100.,0,0,0,0,0,0</value>
					</parameter>
					<parameter authoringApp="PremierePro">
					<parameterid>8</parameterid>
					<name></name>
					<IsTimeVarying>false</IsTimeVarying>
					<ParameterControlType>2</ParameterControlType>
					<LowerBound>0</LowerBound>
					<UpperBound>100</UpperBound>
					<value>-91445760000000000,100.,0,0,0,0,0,0</value>
					</parameter>
					</effect>
					</filter>
					<logginginfo>
					<description></description>
					<scene></scene>
					<shottake></shottake>
					<lognote></lognote>
					<good></good>
					<originalvideofilename></originalvideofilename>
					<originalaudiofilename></originalaudiofilename>
					</logginginfo>
					<colorinfo>
					<lut></lut>
					<lut1></lut1>
					<asc_sop></asc_sop>
					<asc_sat></asc_sat>
					<lut2></lut2>
					</colorinfo>
					<labels>
					</labels>
					</clipitem>
					<clipitem frameBlend="FALSE" id="clipitem-554">
					<masterclipid>masterclip-474</masterclipid>
					<name></name>
					<enabled>TRUE</enabled>
					<duration>2582774</duration>
					<rate>
					
					                                    <timebase>60</timebase>
					                                    <ntsc>TRUE</ntsc>
					                                
					</rate>
					<start>4498</start>
					<end>4564</end>
					<in>4498</in>
					<out>4564</out>
					<pproTicksIn>914456774963789</pproTicksIn>
					<pproTicksOut>914677708529577</pproTicksOut>
					<alphatype>straight</alphatype>
					<pixelaspectratio>square</pixelaspectratio>
					<anamorphic>FALSE</anamorphic>
					<file id="file-473">
					<name></name>
					<mediaSource>GraphicAndType</mediaSource>
					<rate>
					<timebase>60</timebase>
					<ntsc>TRUE</ntsc>
					</rate>
					<timecode>
					<rate>
					<timebase>60</timebase>
					<ntsc>TRUE</ntsc>
					</rate>
					<string>00:00:00:00</string>
					<frame>0</frame>
					<displayformat>NDF</displayformat>
					</timecode>
					<media>
					<video>
					<samplecharacteristics>
					<rate>
					<timebase>60</timebase>
					<ntsc>TRUE</ntsc>
					</rate>
					<width>1080</width>
					<height>1920</height>
					<anamorphic>FALSE</anamorphic>
					<pixelaspectratio>square</pixelaspectratio>
					<fielddominance>none</fielddominance>
					</samplecharacteristics>
					</video>
					</media>
					</file>
					<filter>
					<effect>
					<name></name>
					<effectid>GraphicAndType</effectid>
					<effectcategory>graphic</effectcategory>
					<effecttype>filter</effecttype>
					<mediatype>video</mediatype>
					<pproBypass>false</pproBypass>
					<parameter authoringApp="PremierePro">
					<parameterid>1</parameterid>
					<name></name>
					<hash>025b1101-ead6-0ca2-1feb-caf3000001fc</hash>
					<value>5AEAAAAAAABEMyIRDAAAAAAABgAKAAQABgAAAGQAAAAAAF4ASAAQAAwARABAADwAOAAAAAAAAAAAADQAMwAsAAAAKAAkACAAAAAAAAAAAAAAAAAAHAAAAAAAGgAAAAAAAAAUAAAAAAAAAAAAAAAAAAAAAAAAAAgAAAAAABsABwBeAAAAAAAAAUAAAABQAAAAbAAAAAIAAAAAAAEAAQAAAAAAQEEAAMBAAABAQAAAyEIAAAABIAAAAAIAAAACAAAAAAA2QwCASkTw/v//9P7///j+//8S////AAAAAAEAAAAEAAAAEQAAAEhHUFNvZWlLYWt1cG9wdGFpAAAAAQAAAAwAAAAIAAwABAAIAAgAAAAIAAAAUAAAAA8AAADvvIEAAAAAAAAAAAAAAAAAAAA2ACQAAAAgABwAAAAAABsAFAAAAAAAAAAAAAAAAAAAAAAAAAAAABAAAAAAAAAADAAAAAgABAA2AAAAAgAAABwAAAAcAAAAHAAAAAAAIEEAAAABaAAAAE3PAEOw////tP///wEAAAAUAAAAEAAaAAgABwAMAAAAEAAUABAAAAAAAAABHAAAAAAAoEEcAAAAAgAAAAAACgAIAAUABgAHAAoAAAAADAD//P///wQABAAEAAAACAAIAAYABwAIAAAAAAAMAA==</value>
					</parameter>
					<parameter authoringApp="PremierePro">
					<parameterid>2</parameterid>
					<name></name>
					<IsTimeVarying>false</IsTimeVarying>
					<ParameterControlType>11</ParameterControlType>
					<LowerBound>false</LowerBound>
					<UpperBound>false</UpperBound>
					<value>-91445760000000000,false,0,0,0,0,0,0</value>
					</parameter>
					<parameter authoringApp="PremierePro">
					<parameterid>3</parameterid>
					<name></name>
					<IsTimeVarying>false</IsTimeVarying>
					<value>-91445760000000000,0.5:0.5,0,0,0,0,0,0,5,4,0,0,0,0</value>
					</parameter>
					<parameter authoringApp="PremierePro">
					<parameterid>4</parameterid>
					<name></name>
					<IsTimeVarying>false</IsTimeVarying>
					<ParameterControlType>2</ParameterControlType>
					<LowerBound>0</LowerBound>
					<UpperBound>4000</UpperBound>
					<value>-91445760000000000,100.,0,0,0,0,0,0</value>
					</parameter>
					<parameter authoringApp="PremierePro">
					<parameterid>8</parameterid>
					<name></name>
					<IsTimeVarying>false</IsTimeVarying>
					<ParameterControlType>2</ParameterControlType>
					<LowerBound>0</LowerBound>
					<UpperBound>100</UpperBound>
					<value>-91445760000000000,100.,0,0,0,0,0,0</value>
					</parameter>
					</effect>
					</filter>
					<logginginfo>
					<description></description>
					<scene></scene>
					<shottake></shottake>
					<lognote></lognote>
					<good></good>
					<originalvideofilename></originalvideofilename>
					<originalaudiofilename></originalaudiofilename>
					</logginginfo>
					<colorinfo>
					<lut></lut>
					<lut1></lut1>
					<asc_sop></asc_sop>
					<asc_sat></asc_sat>
					<lut2></lut2>
					</colorinfo>
					<labels>
					</labels>
					</clipitem>
					<clipitem frameBlend="FALSE" id="clipitem-560">
					<masterclipid>masterclip-480</masterclipid>
					<name></name>
					<enabled>TRUE</enabled>
					<duration>2582774</duration>
					<rate>
					
					                                    <timebase>60</timebase>
					                                    <ntsc>TRUE</ntsc>
					                                
					</rate>
					<start>4564</start>
					<end>4630</end>
					<in>4564</in>
					<out>4630</out>
					<pproTicksIn>914456774963789</pproTicksIn>
					<pproTicksOut>914677708529577</pproTicksOut>
					<alphatype>straight</alphatype>
					<pixelaspectratio>square</pixelaspectratio>
					<anamorphic>FALSE</anamorphic>
					<file id="file-479">
					<name></name>
					<mediaSource>GraphicAndType</mediaSource>
					<rate>
					<timebase>60</timebase>
					<ntsc>TRUE</ntsc>
					</rate>
					<timecode>
					<rate>
					<timebase>60</timebase>
					<ntsc>TRUE</ntsc>
					</rate>
					<string>00:00:00:00</string>
					<frame>0</frame>
					<displayformat>NDF</displayformat>
					</timecode>
					<media>
					<video>
					<samplecharacteristics>
					<rate>
					<timebase>60</timebase>
					<ntsc>TRUE</ntsc>
					</rate>
					<width>1080</width>
					<height>1920</height>
					<anamorphic>FALSE</anamorphic>
					<pixelaspectratio>square</pixelaspectratio>
					<fielddominance>none</fielddominance>
					</samplecharacteristics>
					</video>
					</media>
					</file>
					<filter>
					<effect>
					<name></name>
					<effectid>GraphicAndType</effectid>
					<effectcategory>graphic</effectcategory>
					<effecttype>filter</effecttype>
					<mediatype>video</mediatype>
					<pproBypass>false</pproBypass>
					<parameter authoringApp="PremierePro">
					<parameterid>1</parameterid>
					<name></name>
					<hash>025b1101-ead6-0ca2-1feb-caf3000001fc</hash>
					<value>5AEAAAAAAABEMyIRDAAAAAAABgAKAAQABgAAAGQAAAAAAF4ASAAQAAwARABAADwAOAAAAAAAAAAAADQAMwAsAAAAKAAkACAAAAAAAAAAAAAAAAAAHAAAAAAAGgAAAAAAAAAUAAAAAAAAAAAAAAAAAAAAAAAAAAgAAAAAABsABwBeAAAAAAAAAUAAAABQAAAAbAAAAAIAAAAAAAEAAQAAAAAAQEEAAMBAAABAQAAAyEIAAAABIAAAAAIAAAACAAAAAAA2QwCASkTw/v//9P7///j+//8S////AAAAAAEAAAAEAAAAEQAAAEhHUFNvZWlLYWt1cG9wdGFpAAAAAQAAAAwAAAAIAAwABAAIAAgAAAAIAAAAUAAAAA8AAADvvIEAAAAAAAAAAAAAAAAAAAA2ACQAAAAgABwAAAAAABsAFAAAAAAAAAAAAAAAAAAAAAAAAAAAABAAAAAAAAAADAAAAAgABAA2AAAAAgAAABwAAAAcAAAAHAAAAAAAIEEAAAABaAAAAE3PAEOw////tP///wEAAAAUAAAAEAAaAAgABwAMAAAAEAAUABAAAAAAAAABHAAAAAAAoEEcAAAAAgAAAAAACgAIAAUABgAHAAoAAAAADAD//P///wQABAAEAAAACAAIAAYABwAIAAAAAAAMAA==</value>
					</parameter>
					<parameter authoringApp="PremierePro">
					<parameterid>2</parameterid>
					<name></name>
					<IsTimeVarying>false</IsTimeVarying>
					<ParameterControlType>11</ParameterControlType>
					<LowerBound>false</LowerBound>
					<UpperBound>false</UpperBound>
					<value>-91445760000000000,false,0,0,0,0,0,0</value>
					</parameter>
					<parameter authoringApp="PremierePro">
					<parameterid>3</parameterid>
					<name></name>
					<IsTimeVarying>false</IsTimeVarying>
					<value>-91445760000000000,0.5:0.5,0,0,0,0,0,0,5,4,0,0,0,0</value>
					</parameter>
					<parameter authoringApp="PremierePro">
					<parameterid>4</parameterid>
					<name></name>
					<IsTimeVarying>false</IsTimeVarying>
					<ParameterControlType>2</ParameterControlType>
					<LowerBound>0</LowerBound>
					<UpperBound>4000</UpperBound>
					<value>-91445760000000000,100.,0,0,0,0,0,0</value>
					</parameter>
					<parameter authoringApp="PremierePro">
					<parameterid>8</parameterid>
					<name></name>
					<IsTimeVarying>false</IsTimeVarying>
					<ParameterControlType>2</ParameterControlType>
					<LowerBound>0</LowerBound>
					<UpperBound>100</UpperBound>
					<value>-91445760000000000,100.,0,0,0,0,0,0</value>
					</parameter>
					</effect>
					</filter>
					<logginginfo>
					<description></description>
					<scene></scene>
					<shottake></shottake>
					<lognote></lognote>
					<good></good>
					<originalvideofilename></originalvideofilename>
					<originalaudiofilename></originalaudiofilename>
					</logginginfo>
					<colorinfo>
					<lut></lut>
					<lut1></lut1>
					<asc_sop></asc_sop>
					<asc_sat></asc_sat>
					<lut2></lut2>
					</colorinfo>
					<labels>
					</labels>
					</clipitem>
					<clipitem frameBlend="FALSE" id="clipitem-566">
					<masterclipid>masterclip-486</masterclipid>
					<name></name>
					<enabled>TRUE</enabled>
					<duration>2582774</duration>
					<rate>
					
					                                    <timebase>60</timebase>
					                                    <ntsc>TRUE</ntsc>
					                                
					</rate>
					<start>4636</start>
					<end>4696</end>
					<in>4636</in>
					<out>4696</out>
					<pproTicksIn>914456774963789</pproTicksIn>
					<pproTicksOut>914677708529577</pproTicksOut>
					<alphatype>straight</alphatype>
					<pixelaspectratio>square</pixelaspectratio>
					<anamorphic>FALSE</anamorphic>
					<file id="file-485">
					<name></name>
					<mediaSource>GraphicAndType</mediaSource>
					<rate>
					<timebase>60</timebase>
					<ntsc>TRUE</ntsc>
					</rate>
					<timecode>
					<rate>
					<timebase>60</timebase>
					<ntsc>TRUE</ntsc>
					</rate>
					<string>00:00:00:00</string>
					<frame>0</frame>
					<displayformat>NDF</displayformat>
					</timecode>
					<media>
					<video>
					<samplecharacteristics>
					<rate>
					<timebase>60</timebase>
					<ntsc>TRUE</ntsc>
					</rate>
					<width>1080</width>
					<height>1920</height>
					<anamorphic>FALSE</anamorphic>
					<pixelaspectratio>square</pixelaspectratio>
					<fielddominance>none</fielddominance>
					</samplecharacteristics>
					</video>
					</media>
					</file>
					<filter>
					<effect>
					<name></name>
					<effectid>GraphicAndType</effectid>
					<effectcategory>graphic</effectcategory>
					<effecttype>filter</effecttype>
					<mediatype>video</mediatype>
					<pproBypass>false</pproBypass>
					<parameter authoringApp="PremierePro">
					<parameterid>1</parameterid>
					<name></name>
					<hash>025b1101-ead6-0ca2-1feb-caf3000001fc</hash>
					<value>5AEAAAAAAABEMyIRDAAAAAAABgAKAAQABgAAAGQAAAAAAF4ASAAQAAwARABAADwAOAAAAAAAAAAAADQAMwAsAAAAKAAkACAAAAAAAAAAAAAAAAAAHAAAAAAAGgAAAAAAAAAUAAAAAAAAAAAAAAAAAAAAAAAAAAgAAAAAABsABwBeAAAAAAAAAUAAAABQAAAAbAAAAAIAAAAAAAEAAQAAAAAAQEEAAMBAAABAQAAAyEIAAAABIAAAAAIAAAACAAAAAAA2QwCASkTw/v//9P7///j+//8S////AAAAAAEAAAAEAAAAEQAAAEhHUFNvZWlLYWt1cG9wdGFpAAAAAQAAAAwAAAAIAAwABAAIAAgAAAAIAAAAUAAAAA8AAADvvIEAAAAAAAAAAAAAAAAAAAA2ACQAAAAgABwAAAAAABsAFAAAAAAAAAAAAAAAAAAAAAAAAAAAABAAAAAAAAAADAAAAAgABAA2AAAAAgAAABwAAAAcAAAAHAAAAAAAIEEAAAABaAAAAE3PAEOw////tP///wEAAAAUAAAAEAAaAAgABwAMAAAAEAAUABAAAAAAAAABHAAAAAAAoEEcAAAAAgAAAAAACgAIAAUABgAHAAoAAAAADAD//P///wQABAAEAAAACAAIAAYABwAIAAAAAAAMAA==</value>
					</parameter>
					<parameter authoringApp="PremierePro">
					<parameterid>2</parameterid>
					<name></name>
					<IsTimeVarying>false</IsTimeVarying>
					<ParameterControlType>11</ParameterControlType>
					<LowerBound>false</LowerBound>
					<UpperBound>false</UpperBound>
					<value>-91445760000000000,false,0,0,0,0,0,0</value>
					</parameter>
					<parameter authoringApp="PremierePro">
					<parameterid>3</parameterid>
					<name></name>
					<IsTimeVarying>false</IsTimeVarying>
					<value>-91445760000000000,0.5:0.5,0,0,0,0,0,0,5,4,0,0,0,0</value>
					</parameter>
					<parameter authoringApp="PremierePro">
					<parameterid>4</parameterid>
					<name></name>
					<IsTimeVarying>false</IsTimeVarying>
					<ParameterControlType>2</ParameterControlType>
					<LowerBound>0</LowerBound>
					<UpperBound>4000</UpperBound>
					<value>-91445760000000000,100.,0,0,0,0,0,0</value>
					</parameter>
					<parameter authoringApp="PremierePro">
					<parameterid>8</parameterid>
					<name></name>
					<IsTimeVarying>false</IsTimeVarying>
					<ParameterControlType>2</ParameterControlType>
					<LowerBound>0</LowerBound>
					<UpperBound>100</UpperBound>
					<value>-91445760000000000,100.,0,0,0,0,0,0</value>
					</parameter>
					</effect>
					</filter>
					<logginginfo>
					<description></description>
					<scene></scene>
					<shottake></shottake>
					<lognote></lognote>
					<good></good>
					<originalvideofilename></originalvideofilename>
					<originalaudiofilename></originalaudiofilename>
					</logginginfo>
					<colorinfo>
					<lut></lut>
					<lut1></lut1>
					<asc_sop></asc_sop>
					<asc_sat></asc_sat>
					<lut2></lut2>
					</colorinfo>
					<labels>
					</labels>
					</clipitem>
					<clipitem frameBlend="FALSE" id="clipitem-571">
					<masterclipid>masterclip-491</masterclipid>
					<name></name>
					<enabled>TRUE</enabled>
					<duration>2582774</duration>
					<rate>
					
					                                    <timebase>60</timebase>
					                                    <ntsc>TRUE</ntsc>
					                                
					</rate>
					<start>4702</start>
					<end>4762</end>
					<in>4702</in>
					<out>4762</out>
					<pproTicksIn>914456774963789</pproTicksIn>
					<pproTicksOut>914677708529577</pproTicksOut>
					<alphatype>straight</alphatype>
					<pixelaspectratio>square</pixelaspectratio>
					<anamorphic>FALSE</anamorphic>
					<file id="file-490">
					<name></name>
					<mediaSource>GraphicAndType</mediaSource>
					<rate>
					<timebase>60</timebase>
					<ntsc>TRUE</ntsc>
					</rate>
					<timecode>
					<rate>
					<timebase>60</timebase>
					<ntsc>TRUE</ntsc>
					</rate>
					<string>00:00:00:00</string>
					<frame>0</frame>
					<displayformat>NDF</displayformat>
					</timecode>
					<media>
					<video>
					<samplecharacteristics>
					<rate>
					<timebase>60</timebase>
					<ntsc>TRUE</ntsc>
					</rate>
					<width>1080</width>
					<height>1920</height>
					<anamorphic>FALSE</anamorphic>
					<pixelaspectratio>square</pixelaspectratio>
					<fielddominance>none</fielddominance>
					</samplecharacteristics>
					</video>
					</media>
					</file>
					<filter>
					<effect>
					<name></name>
					<effectid>GraphicAndType</effectid>
					<effectcategory>graphic</effectcategory>
					<effecttype>filter</effecttype>
					<mediatype>video</mediatype>
					<pproBypass>false</pproBypass>
					<parameter authoringApp="PremierePro">
					<parameterid>1</parameterid>
					<name></name>
					<hash>025b1101-ead6-0ca2-1feb-caf3000001fc</hash>
					<value>5AEAAAAAAABEMyIRDAAAAAAABgAKAAQABgAAAGQAAAAAAF4ASAAQAAwARABAADwAOAAAAAAAAAAAADQAMwAsAAAAKAAkACAAAAAAAAAAAAAAAAAAHAAAAAAAGgAAAAAAAAAUAAAAAAAAAAAAAAAAAAAAAAAAAAgAAAAAABsABwBeAAAAAAAAAUAAAABQAAAAbAAAAAIAAAAAAAEAAQAAAAAAQEEAAMBAAABAQAAAyEIAAAABIAAAAAIAAAACAAAAAAA2QwCASkTw/v//9P7///j+//8S////AAAAAAEAAAAEAAAAEQAAAEhHUFNvZWlLYWt1cG9wdGFpAAAAAQAAAAwAAAAIAAwABAAIAAgAAAAIAAAAUAAAAA8AAADvvIEAAAAAAAAAAAAAAAAAAAA2ACQAAAAgABwAAAAAABsAFAAAAAAAAAAAAAAAAAAAAAAAAAAAABAAAAAAAAAADAAAAAgABAA2AAAAAgAAABwAAAAcAAAAHAAAAAAAIEEAAAABaAAAAE3PAEOw////tP///wEAAAAUAAAAEAAaAAgABwAMAAAAEAAUABAAAAAAAAABHAAAAAAAoEEcAAAAAgAAAAAACgAIAAUABgAHAAoAAAAADAD//P///wQABAAEAAAACAAIAAYABwAIAAAAAAAMAA==</value>
					</parameter>
					<parameter authoringApp="PremierePro">
					<parameterid>2</parameterid>
					<name></name>
					<IsTimeVarying>false</IsTimeVarying>
					<ParameterControlType>11</ParameterControlType>
					<LowerBound>false</LowerBound>
					<UpperBound>false</UpperBound>
					<value>-91445760000000000,false,0,0,0,0,0,0</value>
					</parameter>
					<parameter authoringApp="PremierePro">
					<parameterid>3</parameterid>
					<name></name>
					<IsTimeVarying>false</IsTimeVarying>
					<value>-91445760000000000,0.5:0.5,0,0,0,0,0,0,5,4,0,0,0,0</value>
					</parameter>
					<parameter authoringApp="PremierePro">
					<parameterid>4</parameterid>
					<name></name>
					<IsTimeVarying>false</IsTimeVarying>
					<ParameterControlType>2</ParameterControlType>
					<LowerBound>0</LowerBound>
					<UpperBound>4000</UpperBound>
					<value>-91445760000000000,100.,0,0,0,0,0,0</value>
					</parameter>
					<parameter authoringApp="PremierePro">
					<parameterid>8</parameterid>
					<name></name>
					<IsTimeVarying>false</IsTimeVarying>
					<ParameterControlType>2</ParameterControlType>
					<LowerBound>0</LowerBound>
					<UpperBound>100</UpperBound>
					<value>-91445760000000000,100.,0,0,0,0,0,0</value>
					</parameter>
					</effect>
					</filter>
					<logginginfo>
					<description></description>
					<scene></scene>
					<shottake></shottake>
					<lognote></lognote>
					<good></good>
					<originalvideofilename></originalvideofilename>
					<originalaudiofilename></originalaudiofilename>
					</logginginfo>
					<colorinfo>
					<lut></lut>
					<lut1></lut1>
					<asc_sop></asc_sop>
					<asc_sat></asc_sat>
					<lut2></lut2>
					</colorinfo>
					<labels>
					</labels>
					</clipitem>
					<clipitem frameBlend="FALSE" id="clipitem-577">
					<masterclipid>masterclip-497</masterclipid>
					<name></name>
					<enabled>TRUE</enabled>
					<duration>2582774</duration>
					<rate>
					
					                                    <timebase>60</timebase>
					                                    <ntsc>TRUE</ntsc>
					                                
					</rate>
					<start>4768</start>
					<end>4828</end>
					<in>4768</in>
					<out>4828</out>
					<pproTicksIn>914456774963789</pproTicksIn>
					<pproTicksOut>914677708529577</pproTicksOut>
					<alphatype>straight</alphatype>
					<pixelaspectratio>square</pixelaspectratio>
					<anamorphic>FALSE</anamorphic>
					<file id="file-496">
					<name></name>
					<mediaSource>GraphicAndType</mediaSource>
					<rate>
					<timebase>60</timebase>
					<ntsc>TRUE</ntsc>
					</rate>
					<timecode>
					<rate>
					<timebase>60</timebase>
					<ntsc>TRUE</ntsc>
					</rate>
					<string>00:00:00:00</string>
					<frame>0</frame>
					<displayformat>NDF</displayformat>
					</timecode>
					<media>
					<video>
					<samplecharacteristics>
					<rate>
					<timebase>60</timebase>
					<ntsc>TRUE</ntsc>
					</rate>
					<width>1080</width>
					<height>1920</height>
					<anamorphic>FALSE</anamorphic>
					<pixelaspectratio>square</pixelaspectratio>
					<fielddominance>none</fielddominance>
					</samplecharacteristics>
					</video>
					</media>
					</file>
					<filter>
					<effect>
					<name></name>
					<effectid>GraphicAndType</effectid>
					<effectcategory>graphic</effectcategory>
					<effecttype>filter</effecttype>
					<mediatype>video</mediatype>
					<pproBypass>false</pproBypass>
					<parameter authoringApp="PremierePro">
					<parameterid>1</parameterid>
					<name></name>
					<hash>025b1101-ead6-0ca2-1feb-caf3000001fc</hash>
					<value>5AEAAAAAAABEMyIRDAAAAAAABgAKAAQABgAAAGQAAAAAAF4ASAAQAAwARABAADwAOAAAAAAAAAAAADQAMwAsAAAAKAAkACAAAAAAAAAAAAAAAAAAHAAAAAAAGgAAAAAAAAAUAAAAAAAAAAAAAAAAAAAAAAAAAAgAAAAAABsABwBeAAAAAAAAAUAAAABQAAAAbAAAAAIAAAAAAAEAAQAAAAAAQEEAAMBAAABAQAAAyEIAAAABIAAAAAIAAAACAAAAAAA2QwCASkTw/v//9P7///j+//8S////AAAAAAEAAAAEAAAAEQAAAEhHUFNvZWlLYWt1cG9wdGFpAAAAAQAAAAwAAAAIAAwABAAIAAgAAAAIAAAAUAAAAA8AAADvvIEAAAAAAAAAAAAAAAAAAAA2ACQAAAAgABwAAAAAABsAFAAAAAAAAAAAAAAAAAAAAAAAAAAAABAAAAAAAAAADAAAAAgABAA2AAAAAgAAABwAAAAcAAAAHAAAAAAAIEEAAAABaAAAAE3PAEOw////tP///wEAAAAUAAAAEAAaAAgABwAMAAAAEAAUABAAAAAAAAABHAAAAAAAoEEcAAAAAgAAAAAACgAIAAUABgAHAAoAAAAADAD//P///wQABAAEAAAACAAIAAYABwAIAAAAAAAMAA==</value>
					</parameter>
					<parameter authoringApp="PremierePro">
					<parameterid>2</parameterid>
					<name></name>
					<IsTimeVarying>false</IsTimeVarying>
					<ParameterControlType>11</ParameterControlType>
					<LowerBound>false</LowerBound>
					<UpperBound>false</UpperBound>
					<value>-91445760000000000,false,0,0,0,0,0,0</value>
					</parameter>
					<parameter authoringApp="PremierePro">
					<parameterid>3</parameterid>
					<name></name>
					<IsTimeVarying>false</IsTimeVarying>
					<value>-91445760000000000,0.5:0.5,0,0,0,0,0,0,5,4,0,0,0,0</value>
					</parameter>
					<parameter authoringApp="PremierePro">
					<parameterid>4</parameterid>
					<name></name>
					<IsTimeVarying>false</IsTimeVarying>
					<ParameterControlType>2</ParameterControlType>
					<LowerBound>0</LowerBound>
					<UpperBound>4000</UpperBound>
					<value>-91445760000000000,100.,0,0,0,0,0,0</value>
					</parameter>
					<parameter authoringApp="PremierePro">
					<parameterid>8</parameterid>
					<name></name>
					<IsTimeVarying>false</IsTimeVarying>
					<ParameterControlType>2</ParameterControlType>
					<LowerBound>0</LowerBound>
					<UpperBound>100</UpperBound>
					<value>-91445760000000000,100.,0,0,0,0,0,0</value>
					</parameter>
					</effect>
					</filter>
					<logginginfo>
					<description></description>
					<scene></scene>
					<shottake></shottake>
					<lognote></lognote>
					<good></good>
					<originalvideofilename></originalvideofilename>
					<originalaudiofilename></originalaudiofilename>
					</logginginfo>
					<colorinfo>
					<lut></lut>
					<lut1></lut1>
					<asc_sop></asc_sop>
					<asc_sat></asc_sat>
					<lut2></lut2>
					</colorinfo>
					<labels>
					</labels>
					</clipitem>
					<clipitem frameBlend="FALSE" id="clipitem-583">
					<masterclipid>masterclip-503</masterclipid>
					<name></name>
					<enabled>TRUE</enabled>
					<duration>2582774</duration>
					<rate>
					
					                                    <timebase>60</timebase>
					                                    <ntsc>TRUE</ntsc>
					                                
					</rate>
					<start>4828</start>
					<end>4888</end>
					<in>4828</in>
					<out>4888</out>
					<pproTicksIn>914456774963789</pproTicksIn>
					<pproTicksOut>914677708529577</pproTicksOut>
					<alphatype>straight</alphatype>
					<pixelaspectratio>square</pixelaspectratio>
					<anamorphic>FALSE</anamorphic>
					<file id="file-502">
					<name></name>
					<mediaSource>GraphicAndType</mediaSource>
					<rate>
					<timebase>60</timebase>
					<ntsc>TRUE</ntsc>
					</rate>
					<timecode>
					<rate>
					<timebase>60</timebase>
					<ntsc>TRUE</ntsc>
					</rate>
					<string>00:00:00:00</string>
					<frame>0</frame>
					<displayformat>NDF</displayformat>
					</timecode>
					<media>
					<video>
					<samplecharacteristics>
					<rate>
					<timebase>60</timebase>
					<ntsc>TRUE</ntsc>
					</rate>
					<width>1080</width>
					<height>1920</height>
					<anamorphic>FALSE</anamorphic>
					<pixelaspectratio>square</pixelaspectratio>
					<fielddominance>none</fielddominance>
					</samplecharacteristics>
					</video>
					</media>
					</file>
					<filter>
					<effect>
					<name></name>
					<effectid>GraphicAndType</effectid>
					<effectcategory>graphic</effectcategory>
					<effecttype>filter</effecttype>
					<mediatype>video</mediatype>
					<pproBypass>false</pproBypass>
					<parameter authoringApp="PremierePro">
					<parameterid>1</parameterid>
					<name></name>
					<hash>025b1101-ead6-0ca2-1feb-caf3000001fc</hash>
					<value>5AEAAAAAAABEMyIRDAAAAAAABgAKAAQABgAAAGQAAAAAAF4ASAAQAAwARABAADwAOAAAAAAAAAAAADQAMwAsAAAAKAAkACAAAAAAAAAAAAAAAAAAHAAAAAAAGgAAAAAAAAAUAAAAAAAAAAAAAAAAAAAAAAAAAAgAAAAAABsABwBeAAAAAAAAAUAAAABQAAAAbAAAAAIAAAAAAAEAAQAAAAAAQEEAAMBAAABAQAAAyEIAAAABIAAAAAIAAAACAAAAAAA2QwCASkTw/v//9P7///j+//8S////AAAAAAEAAAAEAAAAEQAAAEhHUFNvZWlLYWt1cG9wdGFpAAAAAQAAAAwAAAAIAAwABAAIAAgAAAAIAAAAUAAAAA8AAADvvIEAAAAAAAAAAAAAAAAAAAA2ACQAAAAgABwAAAAAABsAFAAAAAAAAAAAAAAAAAAAAAAAAAAAABAAAAAAAAAADAAAAAgABAA2AAAAAgAAABwAAAAcAAAAHAAAAAAAIEEAAAABaAAAAE3PAEOw////tP///wEAAAAUAAAAEAAaAAgABwAMAAAAEAAUABAAAAAAAAABHAAAAAAAoEEcAAAAAgAAAAAACgAIAAUABgAHAAoAAAAADAD//P///wQABAAEAAAACAAIAAYABwAIAAAAAAAMAA==</value>
					</parameter>
					<parameter authoringApp="PremierePro">
					<parameterid>2</parameterid>
					<name></name>
					<IsTimeVarying>false</IsTimeVarying>
					<ParameterControlType>11</ParameterControlType>
					<LowerBound>false</LowerBound>
					<UpperBound>false</UpperBound>
					<value>-91445760000000000,false,0,0,0,0,0,0</value>
					</parameter>
					<parameter authoringApp="PremierePro">
					<parameterid>3</parameterid>
					<name></name>
					<IsTimeVarying>false</IsTimeVarying>
					<value>-91445760000000000,0.5:0.5,0,0,0,0,0,0,5,4,0,0,0,0</value>
					</parameter>
					<parameter authoringApp="PremierePro">
					<parameterid>4</parameterid>
					<name></name>
					<IsTimeVarying>false</IsTimeVarying>
					<ParameterControlType>2</ParameterControlType>
					<LowerBound>0</LowerBound>
					<UpperBound>4000</UpperBound>
					<value>-91445760000000000,100.,0,0,0,0,0,0</value>
					</parameter>
					<parameter authoringApp="PremierePro">
					<parameterid>8</parameterid>
					<name></name>
					<IsTimeVarying>false</IsTimeVarying>
					<ParameterControlType>2</ParameterControlType>
					<LowerBound>0</LowerBound>
					<UpperBound>100</UpperBound>
					<value>-91445760000000000,100.,0,0,0,0,0,0</value>
					</parameter>
					</effect>
					</filter>
					<logginginfo>
					<description></description>
					<scene></scene>
					<shottake></shottake>
					<lognote></lognote>
					<good></good>
					<originalvideofilename></originalvideofilename>
					<originalaudiofilename></originalaudiofilename>
					</logginginfo>
					<colorinfo>
					<lut></lut>
					<lut1></lut1>
					<asc_sop></asc_sop>
					<asc_sat></asc_sat>
					<lut2></lut2>
					</colorinfo>
					<labels>
					</labels>
					</clipitem>
					<clipitem frameBlend="FALSE" id="clipitem-591">
					<masterclipid>masterclip-511</masterclipid>
					<name></name>
					<enabled>TRUE</enabled>
					<duration>2582774</duration>
					<rate>
					
					                                    <timebase>60</timebase>
					                                    <ntsc>TRUE</ntsc>
					                                
					</rate>
					<start>4918</start>
					<end>4978</end>
					<in>4918</in>
					<out>4978</out>
					<pproTicksIn>914456774963789</pproTicksIn>
					<pproTicksOut>914677708529577</pproTicksOut>
					<alphatype>straight</alphatype>
					<pixelaspectratio>square</pixelaspectratio>
					<anamorphic>FALSE</anamorphic>
					<file id="file-510">
					<name></name>
					<mediaSource>GraphicAndType</mediaSource>
					<rate>
					<timebase>60</timebase>
					<ntsc>TRUE</ntsc>
					</rate>
					<timecode>
					<rate>
					<timebase>60</timebase>
					<ntsc>TRUE</ntsc>
					</rate>
					<string>00:00:00:00</string>
					<frame>0</frame>
					<displayformat>NDF</displayformat>
					</timecode>
					<media>
					<video>
					<samplecharacteristics>
					<rate>
					<timebase>60</timebase>
					<ntsc>TRUE</ntsc>
					</rate>
					<width>1080</width>
					<height>1920</height>
					<anamorphic>FALSE</anamorphic>
					<pixelaspectratio>square</pixelaspectratio>
					<fielddominance>none</fielddominance>
					</samplecharacteristics>
					</video>
					</media>
					</file>
					<filter>
					<effect>
					<name></name>
					<effectid>GraphicAndType</effectid>
					<effectcategory>graphic</effectcategory>
					<effecttype>filter</effecttype>
					<mediatype>video</mediatype>
					<pproBypass>false</pproBypass>
					<parameter authoringApp="PremierePro">
					<parameterid>1</parameterid>
					<name></name>
					<hash>025b1101-ead6-0ca2-1feb-caf3000001fc</hash>
					<value>5AEAAAAAAABEMyIRDAAAAAAABgAKAAQABgAAAGQAAAAAAF4ASAAQAAwARABAADwAOAAAAAAAAAAAADQAMwAsAAAAKAAkACAAAAAAAAAAAAAAAAAAHAAAAAAAGgAAAAAAAAAUAAAAAAAAAAAAAAAAAAAAAAAAAAgAAAAAABsABwBeAAAAAAAAAUAAAABQAAAAbAAAAAIAAAAAAAEAAQAAAAAAQEEAAMBAAABAQAAAyEIAAAABIAAAAAIAAAACAAAAAAA2QwCASkTw/v//9P7///j+//8S////AAAAAAEAAAAEAAAAEQAAAEhHUFNvZWlLYWt1cG9wdGFpAAAAAQAAAAwAAAAIAAwABAAIAAgAAAAIAAAAUAAAAA8AAADvvIEAAAAAAAAAAAAAAAAAAAA2ACQAAAAgABwAAAAAABsAFAAAAAAAAAAAAAAAAAAAAAAAAAAAABAAAAAAAAAADAAAAAgABAA2AAAAAgAAABwAAAAcAAAAHAAAAAAAIEEAAAABaAAAAE3PAEOw////tP///wEAAAAUAAAAEAAaAAgABwAMAAAAEAAUABAAAAAAAAABHAAAAAAAoEEcAAAAAgAAAAAACgAIAAUABgAHAAoAAAAADAD//P///wQABAAEAAAACAAIAAYABwAIAAAAAAAMAA==</value>
					</parameter>
					<parameter authoringApp="PremierePro">
					<parameterid>2</parameterid>
					<name></name>
					<IsTimeVarying>false</IsTimeVarying>
					<ParameterControlType>11</ParameterControlType>
					<LowerBound>false</LowerBound>
					<UpperBound>false</UpperBound>
					<value>-91445760000000000,false,0,0,0,0,0,0</value>
					</parameter>
					<parameter authoringApp="PremierePro">
					<parameterid>3</parameterid>
					<name></name>
					<IsTimeVarying>false</IsTimeVarying>
					<value>-91445760000000000,0.5:0.5,0,0,0,0,0,0,5,4,0,0,0,0</value>
					</parameter>
					<parameter authoringApp="PremierePro">
					<parameterid>4</parameterid>
					<name></name>
					<IsTimeVarying>false</IsTimeVarying>
					<ParameterControlType>2</ParameterControlType>
					<LowerBound>0</LowerBound>
					<UpperBound>4000</UpperBound>
					<value>-91445760000000000,100.,0,0,0,0,0,0</value>
					</parameter>
					<parameter authoringApp="PremierePro">
					<parameterid>8</parameterid>
					<name></name>
					<IsTimeVarying>false</IsTimeVarying>
					<ParameterControlType>2</ParameterControlType>
					<LowerBound>0</LowerBound>
					<UpperBound>100</UpperBound>
					<value>-91445760000000000,100.,0,0,0,0,0,0</value>
					</parameter>
					</effect>
					</filter>
					<logginginfo>
					<description></description>
					<scene></scene>
					<shottake></shottake>
					<lognote></lognote>
					<good></good>
					<originalvideofilename></originalvideofilename>
					<originalaudiofilename></originalaudiofilename>
					</logginginfo>
					<colorinfo>
					<lut></lut>
					<lut1></lut1>
					<asc_sop></asc_sop>
					<asc_sat></asc_sat>
					<lut2></lut2>
					</colorinfo>
					<labels>
					</labels>
					</clipitem>
					<clipitem frameBlend="FALSE" id="clipitem-598">
					<masterclipid>masterclip-518</masterclipid>
					<name></name>
					<enabled>TRUE</enabled>
					<duration>2582774</duration>
					<rate>
					
					                                    <timebase>60</timebase>
					                                    <ntsc>TRUE</ntsc>
					                                
					</rate>
					<start>4996</start>
					<end>5056</end>
					<in>4996</in>
					<out>5056</out>
					<pproTicksIn>914456774963789</pproTicksIn>
					<pproTicksOut>914677708529577</pproTicksOut>
					<alphatype>straight</alphatype>
					<pixelaspectratio>square</pixelaspectratio>
					<anamorphic>FALSE</anamorphic>
					<file id="file-517">
					<name></name>
					<mediaSource>GraphicAndType</mediaSource>
					<rate>
					<timebase>60</timebase>
					<ntsc>TRUE</ntsc>
					</rate>
					<timecode>
					<rate>
					<timebase>60</timebase>
					<ntsc>TRUE</ntsc>
					</rate>
					<string>00:00:00:00</string>
					<frame>0</frame>
					<displayformat>NDF</displayformat>
					</timecode>
					<media>
					<video>
					<samplecharacteristics>
					<rate>
					<timebase>60</timebase>
					<ntsc>TRUE</ntsc>
					</rate>
					<width>1080</width>
					<height>1920</height>
					<anamorphic>FALSE</anamorphic>
					<pixelaspectratio>square</pixelaspectratio>
					<fielddominance>none</fielddominance>
					</samplecharacteristics>
					</video>
					</media>
					</file>
					<filter>
					<effect>
					<name></name>
					<effectid>GraphicAndType</effectid>
					<effectcategory>graphic</effectcategory>
					<effecttype>filter</effecttype>
					<mediatype>video</mediatype>
					<pproBypass>false</pproBypass>
					<parameter authoringApp="PremierePro">
					<parameterid>1</parameterid>
					<name></name>
					<hash>025b1101-ead6-0ca2-1feb-caf3000001fc</hash>
					<value>5AEAAAAAAABEMyIRDAAAAAAABgAKAAQABgAAAGQAAAAAAF4ASAAQAAwARABAADwAOAAAAAAAAAAAADQAMwAsAAAAKAAkACAAAAAAAAAAAAAAAAAAHAAAAAAAGgAAAAAAAAAUAAAAAAAAAAAAAAAAAAAAAAAAAAgAAAAAABsABwBeAAAAAAAAAUAAAABQAAAAbAAAAAIAAAAAAAEAAQAAAAAAQEEAAMBAAABAQAAAyEIAAAABIAAAAAIAAAACAAAAAAA2QwCASkTw/v//9P7///j+//8S////AAAAAAEAAAAEAAAAEQAAAEhHUFNvZWlLYWt1cG9wdGFpAAAAAQAAAAwAAAAIAAwABAAIAAgAAAAIAAAAUAAAAA8AAADvvIEAAAAAAAAAAAAAAAAAAAA2ACQAAAAgABwAAAAAABsAFAAAAAAAAAAAAAAAAAAAAAAAAAAAABAAAAAAAAAADAAAAAgABAA2AAAAAgAAABwAAAAcAAAAHAAAAAAAIEEAAAABaAAAAE3PAEOw////tP///wEAAAAUAAAAEAAaAAgABwAMAAAAEAAUABAAAAAAAAABHAAAAAAAoEEcAAAAAgAAAAAACgAIAAUABgAHAAoAAAAADAD//P///wQABAAEAAAACAAIAAYABwAIAAAAAAAMAA==</value>
					</parameter>
					<parameter authoringApp="PremierePro">
					<parameterid>2</parameterid>
					<name></name>
					<IsTimeVarying>false</IsTimeVarying>
					<ParameterControlType>11</ParameterControlType>
					<LowerBound>false</LowerBound>
					<UpperBound>false</UpperBound>
					<value>-91445760000000000,false,0,0,0,0,0,0</value>
					</parameter>
					<parameter authoringApp="PremierePro">
					<parameterid>3</parameterid>
					<name></name>
					<IsTimeVarying>false</IsTimeVarying>
					<value>-91445760000000000,0.5:0.5,0,0,0,0,0,0,5,4,0,0,0,0</value>
					</parameter>
					<parameter authoringApp="PremierePro">
					<parameterid>4</parameterid>
					<name></name>
					<IsTimeVarying>false</IsTimeVarying>
					<ParameterControlType>2</ParameterControlType>
					<LowerBound>0</LowerBound>
					<UpperBound>4000</UpperBound>
					<value>-91445760000000000,100.,0,0,0,0,0,0</value>
					</parameter>
					<parameter authoringApp="PremierePro">
					<parameterid>8</parameterid>
					<name></name>
					<IsTimeVarying>false</IsTimeVarying>
					<ParameterControlType>2</ParameterControlType>
					<LowerBound>0</LowerBound>
					<UpperBound>100</UpperBound>
					<value>-91445760000000000,100.,0,0,0,0,0,0</value>
					</parameter>
					</effect>
					</filter>
					<logginginfo>
					<description></description>
					<scene></scene>
					<shottake></shottake>
					<lognote></lognote>
					<good></good>
					<originalvideofilename></originalvideofilename>
					<originalaudiofilename></originalaudiofilename>
					</logginginfo>
					<colorinfo>
					<lut></lut>
					<lut1></lut1>
					<asc_sop></asc_sop>
					<asc_sat></asc_sat>
					<lut2></lut2>
					</colorinfo>
					<labels>
					</labels>
					</clipitem>
					<clipitem frameBlend="FALSE" id="clipitem-607">
					<masterclipid>masterclip-527</masterclipid>
					<name></name>
					<enabled>TRUE</enabled>
					<duration>2582774</duration>
					<rate>
					
					                                    <timebase>60</timebase>
					                                    <ntsc>TRUE</ntsc>
					                                
					</rate>
					<start>5104</start>
					<end>5164</end>
					<in>5104</in>
					<out>5164</out>
					<pproTicksIn>914456774963789</pproTicksIn>
					<pproTicksOut>914677708529577</pproTicksOut>
					<alphatype>straight</alphatype>
					<pixelaspectratio>square</pixelaspectratio>
					<anamorphic>FALSE</anamorphic>
					<file id="file-526">
					<name></name>
					<mediaSource>GraphicAndType</mediaSource>
					<rate>
					<timebase>60</timebase>
					<ntsc>TRUE</ntsc>
					</rate>
					<timecode>
					<rate>
					<timebase>60</timebase>
					<ntsc>TRUE</ntsc>
					</rate>
					<string>00:00:00:00</string>
					<frame>0</frame>
					<displayformat>NDF</displayformat>
					</timecode>
					<media>
					<video>
					<samplecharacteristics>
					<rate>
					<timebase>60</timebase>
					<ntsc>TRUE</ntsc>
					</rate>
					<width>1080</width>
					<height>1920</height>
					<anamorphic>FALSE</anamorphic>
					<pixelaspectratio>square</pixelaspectratio>
					<fielddominance>none</fielddominance>
					</samplecharacteristics>
					</video>
					</media>
					</file>
					<filter>
					<effect>
					<name></name>
					<effectid>GraphicAndType</effectid>
					<effectcategory>graphic</effectcategory>
					<effecttype>filter</effecttype>
					<mediatype>video</mediatype>
					<pproBypass>false</pproBypass>
					<parameter authoringApp="PremierePro">
					<parameterid>1</parameterid>
					<name></name>
					<hash>025b1101-ead6-0ca2-1feb-caf3000001fc</hash>
					<value>5AEAAAAAAABEMyIRDAAAAAAABgAKAAQABgAAAGQAAAAAAF4ASAAQAAwARABAADwAOAAAAAAAAAAAADQAMwAsAAAAKAAkACAAAAAAAAAAAAAAAAAAHAAAAAAAGgAAAAAAAAAUAAAAAAAAAAAAAAAAAAAAAAAAAAgAAAAAABsABwBeAAAAAAAAAUAAAABQAAAAbAAAAAIAAAAAAAEAAQAAAAAAQEEAAMBAAABAQAAAyEIAAAABIAAAAAIAAAACAAAAAAA2QwCASkTw/v//9P7///j+//8S////AAAAAAEAAAAEAAAAEQAAAEhHUFNvZWlLYWt1cG9wdGFpAAAAAQAAAAwAAAAIAAwABAAIAAgAAAAIAAAAUAAAAA8AAADvvIEAAAAAAAAAAAAAAAAAAAA2ACQAAAAgABwAAAAAABsAFAAAAAAAAAAAAAAAAAAAAAAAAAAAABAAAAAAAAAADAAAAAgABAA2AAAAAgAAABwAAAAcAAAAHAAAAAAAIEEAAAABaAAAAE3PAEOw////tP///wEAAAAUAAAAEAAaAAgABwAMAAAAEAAUABAAAAAAAAABHAAAAAAAoEEcAAAAAgAAAAAACgAIAAUABgAHAAoAAAAADAD//P///wQABAAEAAAACAAIAAYABwAIAAAAAAAMAA==</value>
					</parameter>
					<parameter authoringApp="PremierePro">
					<parameterid>2</parameterid>
					<name></name>
					<IsTimeVarying>false</IsTimeVarying>
					<ParameterControlType>11</ParameterControlType>
					<LowerBound>false</LowerBound>
					<UpperBound>false</UpperBound>
					<value>-91445760000000000,false,0,0,0,0,0,0</value>
					</parameter>
					<parameter authoringApp="PremierePro">
					<parameterid>3</parameterid>
					<name></name>
					<IsTimeVarying>false</IsTimeVarying>
					<value>-91445760000000000,0.5:0.5,0,0,0,0,0,0,5,4,0,0,0,0</value>
					</parameter>
					<parameter authoringApp="PremierePro">
					<parameterid>4</parameterid>
					<name></name>
					<IsTimeVarying>false</IsTimeVarying>
					<ParameterControlType>2</ParameterControlType>
					<LowerBound>0</LowerBound>
					<UpperBound>4000</UpperBound>
					<value>-91445760000000000,100.,0,0,0,0,0,0</value>
					</parameter>
					<parameter authoringApp="PremierePro">
					<parameterid>8</parameterid>
					<name></name>
					<IsTimeVarying>false</IsTimeVarying>
					<ParameterControlType>2</ParameterControlType>
					<LowerBound>0</LowerBound>
					<UpperBound>100</UpperBound>
					<value>-91445760000000000,100.,0,0,0,0,0,0</value>
					</parameter>
					</effect>
					</filter>
					<logginginfo>
					<description></description>
					<scene></scene>
					<shottake></shottake>
					<lognote></lognote>
					<good></good>
					<originalvideofilename></originalvideofilename>
					<originalaudiofilename></originalaudiofilename>
					</logginginfo>
					<colorinfo>
					<lut></lut>
					<lut1></lut1>
					<asc_sop></asc_sop>
					<asc_sat></asc_sat>
					<lut2></lut2>
					</colorinfo>
					<labels>
					</labels>
					</clipitem>
					<clipitem frameBlend="FALSE" id="clipitem-619">
					<masterclipid>masterclip-539</masterclipid>
					<name></name>
					<enabled>TRUE</enabled>
					<duration>2582774</duration>
					<rate>
					
					                                    <timebase>60</timebase>
					                                    <ntsc>TRUE</ntsc>
					                                
					</rate>
					<start>5254</start>
					<end>5314</end>
					<in>5254</in>
					<out>5314</out>
					<pproTicksIn>914456774963789</pproTicksIn>
					<pproTicksOut>914677708529577</pproTicksOut>
					<alphatype>straight</alphatype>
					<pixelaspectratio>square</pixelaspectratio>
					<anamorphic>FALSE</anamorphic>
					<file id="file-538">
					<name></name>
					<mediaSource>GraphicAndType</mediaSource>
					<rate>
					<timebase>60</timebase>
					<ntsc>TRUE</ntsc>
					</rate>
					<timecode>
					<rate>
					<timebase>60</timebase>
					<ntsc>TRUE</ntsc>
					</rate>
					<string>00:00:00:00</string>
					<frame>0</frame>
					<displayformat>NDF</displayformat>
					</timecode>
					<media>
					<video>
					<samplecharacteristics>
					<rate>
					<timebase>60</timebase>
					<ntsc>TRUE</ntsc>
					</rate>
					<width>1080</width>
					<height>1920</height>
					<anamorphic>FALSE</anamorphic>
					<pixelaspectratio>square</pixelaspectratio>
					<fielddominance>none</fielddominance>
					</samplecharacteristics>
					</video>
					</media>
					</file>
					<filter>
					<effect>
					<name></name>
					<effectid>GraphicAndType</effectid>
					<effectcategory>graphic</effectcategory>
					<effecttype>filter</effecttype>
					<mediatype>video</mediatype>
					<pproBypass>false</pproBypass>
					<parameter authoringApp="PremierePro">
					<parameterid>1</parameterid>
					<name></name>
					<hash>025b1101-ead6-0ca2-1feb-caf3000001fc</hash>
					<value>5AEAAAAAAABEMyIRDAAAAAAABgAKAAQABgAAAGQAAAAAAF4ASAAQAAwARABAADwAOAAAAAAAAAAAADQAMwAsAAAAKAAkACAAAAAAAAAAAAAAAAAAHAAAAAAAGgAAAAAAAAAUAAAAAAAAAAAAAAAAAAAAAAAAAAgAAAAAABsABwBeAAAAAAAAAUAAAABQAAAAbAAAAAIAAAAAAAEAAQAAAAAAQEEAAMBAAABAQAAAyEIAAAABIAAAAAIAAAACAAAAAAA2QwCASkTw/v//9P7///j+//8S////AAAAAAEAAAAEAAAAEQAAAEhHUFNvZWlLYWt1cG9wdGFpAAAAAQAAAAwAAAAIAAwABAAIAAgAAAAIAAAAUAAAAA8AAADvvIEAAAAAAAAAAAAAAAAAAAA2ACQAAAAgABwAAAAAABsAFAAAAAAAAAAAAAAAAAAAAAAAAAAAABAAAAAAAAAADAAAAAgABAA2AAAAAgAAABwAAAAcAAAAHAAAAAAAIEEAAAABaAAAAE3PAEOw////tP///wEAAAAUAAAAEAAaAAgABwAMAAAAEAAUABAAAAAAAAABHAAAAAAAoEEcAAAAAgAAAAAACgAIAAUABgAHAAoAAAAADAD//P///wQABAAEAAAACAAIAAYABwAIAAAAAAAMAA==</value>
					</parameter>
					<parameter authoringApp="PremierePro">
					<parameterid>2</parameterid>
					<name></name>
					<IsTimeVarying>false</IsTimeVarying>
					<ParameterControlType>11</ParameterControlType>
					<LowerBound>false</LowerBound>
					<UpperBound>false</UpperBound>
					<value>-91445760000000000,false,0,0,0,0,0,0</value>
					</parameter>
					<parameter authoringApp="PremierePro">
					<parameterid>3</parameterid>
					<name></name>
					<IsTimeVarying>false</IsTimeVarying>
					<value>-91445760000000000,0.5:0.5,0,0,0,0,0,0,5,4,0,0,0,0</value>
					</parameter>
					<parameter authoringApp="PremierePro">
					<parameterid>4</parameterid>
					<name></name>
					<IsTimeVarying>false</IsTimeVarying>
					<ParameterControlType>2</ParameterControlType>
					<LowerBound>0</LowerBound>
					<UpperBound>4000</UpperBound>
					<value>-91445760000000000,100.,0,0,0,0,0,0</value>
					</parameter>
					<parameter authoringApp="PremierePro">
					<parameterid>8</parameterid>
					<name></name>
					<IsTimeVarying>false</IsTimeVarying>
					<ParameterControlType>2</ParameterControlType>
					<LowerBound>0</LowerBound>
					<UpperBound>100</UpperBound>
					<value>-91445760000000000,100.,0,0,0,0,0,0</value>
					</parameter>
					</effect>
					</filter>
					<logginginfo>
					<description></description>
					<scene></scene>
					<shottake></shottake>
					<lognote></lognote>
					<good></good>
					<originalvideofilename></originalvideofilename>
					<originalaudiofilename></originalaudiofilename>
					</logginginfo>
					<colorinfo>
					<lut></lut>
					<lut1></lut1>
					<asc_sop></asc_sop>
					<asc_sat></asc_sat>
					<lut2></lut2>
					</colorinfo>
					<labels>
					</labels>
					</clipitem>
					<clipitem frameBlend="FALSE" id="clipitem-627">
					<masterclipid>masterclip-547</masterclipid>
					<name></name>
					<enabled>TRUE</enabled>
					<duration>2582774</duration>
					<rate>
					
					                                    <timebase>60</timebase>
					                                    <ntsc>TRUE</ntsc>
					                                
					</rate>
					<start>5314</start>
					<end>5374</end>
					<in>5314</in>
					<out>5374</out>
					<pproTicksIn>914456774963789</pproTicksIn>
					<pproTicksOut>914677708529577</pproTicksOut>
					<alphatype>straight</alphatype>
					<pixelaspectratio>square</pixelaspectratio>
					<anamorphic>FALSE</anamorphic>
					<file id="file-546">
					<name></name>
					<mediaSource>GraphicAndType</mediaSource>
					<rate>
					<timebase>60</timebase>
					<ntsc>TRUE</ntsc>
					</rate>
					<timecode>
					<rate>
					<timebase>60</timebase>
					<ntsc>TRUE</ntsc>
					</rate>
					<string>00:00:00:00</string>
					<frame>0</frame>
					<displayformat>NDF</displayformat>
					</timecode>
					<media>
					<video>
					<samplecharacteristics>
					<rate>
					<timebase>60</timebase>
					<ntsc>TRUE</ntsc>
					</rate>
					<width>1080</width>
					<height>1920</height>
					<anamorphic>FALSE</anamorphic>
					<pixelaspectratio>square</pixelaspectratio>
					<fielddominance>none</fielddominance>
					</samplecharacteristics>
					</video>
					</media>
					</file>
					<filter>
					<effect>
					<name></name>
					<effectid>GraphicAndType</effectid>
					<effectcategory>graphic</effectcategory>
					<effecttype>filter</effecttype>
					<mediatype>video</mediatype>
					<pproBypass>false</pproBypass>
					<parameter authoringApp="PremierePro">
					<parameterid>1</parameterid>
					<name></name>
					<hash>025b1101-ead6-0ca2-1feb-caf3000001fc</hash>
					<value>5AEAAAAAAABEMyIRDAAAAAAABgAKAAQABgAAAGQAAAAAAF4ASAAQAAwARABAADwAOAAAAAAAAAAAADQAMwAsAAAAKAAkACAAAAAAAAAAAAAAAAAAHAAAAAAAGgAAAAAAAAAUAAAAAAAAAAAAAAAAAAAAAAAAAAgAAAAAABsABwBeAAAAAAAAAUAAAABQAAAAbAAAAAIAAAAAAAEAAQAAAAAAQEEAAMBAAABAQAAAyEIAAAABIAAAAAIAAAACAAAAAAA2QwCASkTw/v//9P7///j+//8S////AAAAAAEAAAAEAAAAEQAAAEhHUFNvZWlLYWt1cG9wdGFpAAAAAQAAAAwAAAAIAAwABAAIAAgAAAAIAAAAUAAAAA8AAADvvIEAAAAAAAAAAAAAAAAAAAA2ACQAAAAgABwAAAAAABsAFAAAAAAAAAAAAAAAAAAAAAAAAAAAABAAAAAAAAAADAAAAAgABAA2AAAAAgAAABwAAAAcAAAAHAAAAAAAIEEAAAABaAAAAE3PAEOw////tP///wEAAAAUAAAAEAAaAAgABwAMAAAAEAAUABAAAAAAAAABHAAAAAAAoEEcAAAAAgAAAAAACgAIAAUABgAHAAoAAAAADAD//P///wQABAAEAAAACAAIAAYABwAIAAAAAAAMAA==</value>
					</parameter>
					<parameter authoringApp="PremierePro">
					<parameterid>2</parameterid>
					<name></name>
					<IsTimeVarying>false</IsTimeVarying>
					<ParameterControlType>11</ParameterControlType>
					<LowerBound>false</LowerBound>
					<UpperBound>false</UpperBound>
					<value>-91445760000000000,false,0,0,0,0,0,0</value>
					</parameter>
					<parameter authoringApp="PremierePro">
					<parameterid>3</parameterid>
					<name></name>
					<IsTimeVarying>false</IsTimeVarying>
					<value>-91445760000000000,0.5:0.5,0,0,0,0,0,0,5,4,0,0,0,0</value>
					</parameter>
					<parameter authoringApp="PremierePro">
					<parameterid>4</parameterid>
					<name></name>
					<IsTimeVarying>false</IsTimeVarying>
					<ParameterControlType>2</ParameterControlType>
					<LowerBound>0</LowerBound>
					<UpperBound>4000</UpperBound>
					<value>-91445760000000000,100.,0,0,0,0,0,0</value>
					</parameter>
					<parameter authoringApp="PremierePro">
					<parameterid>8</parameterid>
					<name></name>
					<IsTimeVarying>false</IsTimeVarying>
					<ParameterControlType>2</ParameterControlType>
					<LowerBound>0</LowerBound>
					<UpperBound>100</UpperBound>
					<value>-91445760000000000,100.,0,0,0,0,0,0</value>
					</parameter>
					</effect>
					</filter>
					<logginginfo>
					<description></description>
					<scene></scene>
					<shottake></shottake>
					<lognote></lognote>
					<good></good>
					<originalvideofilename></originalvideofilename>
					<originalaudiofilename></originalaudiofilename>
					</logginginfo>
					<colorinfo>
					<lut></lut>
					<lut1></lut1>
					<asc_sop></asc_sop>
					<asc_sat></asc_sat>
					<lut2></lut2>
					</colorinfo>
					<labels>
					</labels>
					</clipitem>
					<clipitem frameBlend="FALSE" id="clipitem-640">
					<masterclipid>masterclip-560</masterclipid>
					<name></name>
					<enabled>TRUE</enabled>
					<duration>2582774</duration>
					<rate>
					
					                                    <timebase>60</timebase>
					                                    <ntsc>TRUE</ntsc>
					                                
					</rate>
					<start>5524</start>
					<end>5584</end>
					<in>5524</in>
					<out>5584</out>
					<pproTicksIn>914456774963789</pproTicksIn>
					<pproTicksOut>914677708529577</pproTicksOut>
					<alphatype>straight</alphatype>
					<pixelaspectratio>square</pixelaspectratio>
					<anamorphic>FALSE</anamorphic>
					<file id="file-559">
					<name></name>
					<mediaSource>GraphicAndType</mediaSource>
					<rate>
					<timebase>60</timebase>
					<ntsc>TRUE</ntsc>
					</rate>
					<timecode>
					<rate>
					<timebase>60</timebase>
					<ntsc>TRUE</ntsc>
					</rate>
					<string>00:00:00:00</string>
					<frame>0</frame>
					<displayformat>NDF</displayformat>
					</timecode>
					<media>
					<video>
					<samplecharacteristics>
					<rate>
					<timebase>60</timebase>
					<ntsc>TRUE</ntsc>
					</rate>
					<width>1080</width>
					<height>1920</height>
					<anamorphic>FALSE</anamorphic>
					<pixelaspectratio>square</pixelaspectratio>
					<fielddominance>none</fielddominance>
					</samplecharacteristics>
					</video>
					</media>
					</file>
					<filter>
					<effect>
					<name></name>
					<effectid>GraphicAndType</effectid>
					<effectcategory>graphic</effectcategory>
					<effecttype>filter</effecttype>
					<mediatype>video</mediatype>
					<pproBypass>false</pproBypass>
					<parameter authoringApp="PremierePro">
					<parameterid>1</parameterid>
					<name></name>
					<hash>025b1101-ead6-0ca2-1feb-caf3000001fc</hash>
					<value>5AEAAAAAAABEMyIRDAAAAAAABgAKAAQABgAAAGQAAAAAAF4ASAAQAAwARABAADwAOAAAAAAAAAAAADQAMwAsAAAAKAAkACAAAAAAAAAAAAAAAAAAHAAAAAAAGgAAAAAAAAAUAAAAAAAAAAAAAAAAAAAAAAAAAAgAAAAAABsABwBeAAAAAAAAAUAAAABQAAAAbAAAAAIAAAAAAAEAAQAAAAAAQEEAAMBAAABAQAAAyEIAAAABIAAAAAIAAAACAAAAAAA2QwCASkTw/v//9P7///j+//8S////AAAAAAEAAAAEAAAAEQAAAEhHUFNvZWlLYWt1cG9wdGFpAAAAAQAAAAwAAAAIAAwABAAIAAgAAAAIAAAAUAAAAA8AAADvvIEAAAAAAAAAAAAAAAAAAAA2ACQAAAAgABwAAAAAABsAFAAAAAAAAAAAAAAAAAAAAAAAAAAAABAAAAAAAAAADAAAAAgABAA2AAAAAgAAABwAAAAcAAAAHAAAAAAAIEEAAAABaAAAAE3PAEOw////tP///wEAAAAUAAAAEAAaAAgABwAMAAAAEAAUABAAAAAAAAABHAAAAAAAoEEcAAAAAgAAAAAACgAIAAUABgAHAAoAAAAADAD//P///wQABAAEAAAACAAIAAYABwAIAAAAAAAMAA==</value>
					</parameter>
					<parameter authoringApp="PremierePro">
					<parameterid>2</parameterid>
					<name></name>
					<IsTimeVarying>false</IsTimeVarying>
					<ParameterControlType>11</ParameterControlType>
					<LowerBound>false</LowerBound>
					<UpperBound>false</UpperBound>
					<value>-91445760000000000,false,0,0,0,0,0,0</value>
					</parameter>
					<parameter authoringApp="PremierePro">
					<parameterid>3</parameterid>
					<name></name>
					<IsTimeVarying>false</IsTimeVarying>
					<value>-91445760000000000,0.5:0.5,0,0,0,0,0,0,5,4,0,0,0,0</value>
					</parameter>
					<parameter authoringApp="PremierePro">
					<parameterid>4</parameterid>
					<name></name>
					<IsTimeVarying>false</IsTimeVarying>
					<ParameterControlType>2</ParameterControlType>
					<LowerBound>0</LowerBound>
					<UpperBound>4000</UpperBound>
					<value>-91445760000000000,100.,0,0,0,0,0,0</value>
					</parameter>
					<parameter authoringApp="PremierePro">
					<parameterid>8</parameterid>
					<name></name>
					<IsTimeVarying>false</IsTimeVarying>
					<ParameterControlType>2</ParameterControlType>
					<LowerBound>0</LowerBound>
					<UpperBound>100</UpperBound>
					<value>-91445760000000000,100.,0,0,0,0,0,0</value>
					</parameter>
					</effect>
					</filter>
					<logginginfo>
					<description></description>
					<scene></scene>
					<shottake></shottake>
					<lognote></lognote>
					<good></good>
					<originalvideofilename></originalvideofilename>
					<originalaudiofilename></originalaudiofilename>
					</logginginfo>
					<colorinfo>
					<lut></lut>
					<lut1></lut1>
					<asc_sop></asc_sop>
					<asc_sat></asc_sat>
					<lut2></lut2>
					</colorinfo>
					<labels>
					</labels>
					</clipitem>
					<clipitem frameBlend="FALSE" id="clipitem-651">
					<masterclipid>masterclip-571</masterclipid>
					<name></name>
					<enabled>TRUE</enabled>
					<duration>2582774</duration>
					<rate>
					
					                                    <timebase>60</timebase>
					                                    <ntsc>TRUE</ntsc>
					                                
					</rate>
					<start>5584</start>
					<end>5608</end>
					<in>5584</in>
					<out>5608</out>
					<pproTicksIn>914456774963789</pproTicksIn>
					<pproTicksOut>914677708529577</pproTicksOut>
					<alphatype>straight</alphatype>
					<pixelaspectratio>square</pixelaspectratio>
					<anamorphic>FALSE</anamorphic>
					<file id="file-570">
					<name></name>
					<mediaSource>GraphicAndType</mediaSource>
					<rate>
					<timebase>60</timebase>
					<ntsc>TRUE</ntsc>
					</rate>
					<timecode>
					<rate>
					<timebase>60</timebase>
					<ntsc>TRUE</ntsc>
					</rate>
					<string>00:00:00:00</string>
					<frame>0</frame>
					<displayformat>NDF</displayformat>
					</timecode>
					<media>
					<video>
					<samplecharacteristics>
					<rate>
					<timebase>60</timebase>
					<ntsc>TRUE</ntsc>
					</rate>
					<width>1080</width>
					<height>1920</height>
					<anamorphic>FALSE</anamorphic>
					<pixelaspectratio>square</pixelaspectratio>
					<fielddominance>none</fielddominance>
					</samplecharacteristics>
					</video>
					</media>
					</file>
					<filter>
					<effect>
					<name>w</name>
					<effectid>GraphicAndType</effectid>
					<effectcategory>graphic</effectcategory>
					<effecttype>filter</effecttype>
					<mediatype>video</mediatype>
					<pproBypass>false</pproBypass>
					<parameter authoringApp="PremierePro">
					<parameterid>1</parameterid>
					<name></name>
					<hash>025b1101-ead6-0ca2-1feb-caf3000001fc</hash>
					<value>5AEAAAAAAABEMyIRDAAAAAAABgAKAAQABgAAAGQAAAAAAF4ASAAQAAwARABAADwAOAAAAAAAAAAAADQAMwAsAAAAKAAkACAAAAAAAAAAAAAAAAAAHAAAAAAAGgAAAAAAAAAUAAAAAAAAAAAAAAAAAAAAAAAAAAgAAAAAABsABwBeAAAAAAAAAUAAAABQAAAAbAAAAAIAAAAAAAEAAQAAAAAAQEEAAMBAAABAQAAAyEIAAAABIAAAAAIAAAACAAAAAAA2QwCASkTw/v//9P7///j+//8S////AAAAAAEAAAAEAAAAEQAAAEhHUFNvZWlLYWt1cG9wdGFpAAAAAQAAAAwAAAAIAAwABAAIAAgAAAAIAAAAUAAAAA8AAAB3AAAAAAAAAAAAAAAAAAAAAAA2ACQAAAAgABwAAAAAABsAFAAAAAAAAAAAAAAAAAAAAAAAAAAAABAAAAAAAAAADAAAAAgABAA2AAAAAgAAABwAAAAcAAAAHAAAAAAAIEEAAAABaAAAAE3PAEOw////tP///wEAAAAUAAAAEAAaAAgABwAMAAAAEAAUABAAAAAAAAABHAAAAAAAoEEcAAAAAgAAAAAACgAIAAUABgAHAAoAAAAADAD//P///wQABAAEAAAACAAIAAYABwAIAAAAAAAMAA==</value>
					</parameter>
					<parameter authoringApp="PremierePro">
					<parameterid>2</parameterid>
					<name></name>
					<IsTimeVarying>false</IsTimeVarying>
					<ParameterControlType>11</ParameterControlType>
					<LowerBound>false</LowerBound>
					<UpperBound>false</UpperBound>
					<value>-91445760000000000,false,0,0,0,0,0,0</value>
					</parameter>
					<parameter authoringApp="PremierePro">
					<parameterid>3</parameterid>
					<name></name>
					<IsTimeVarying>false</IsTimeVarying>
					<value>-91445760000000000,0.5:0.5,0,0,0,0,0,0,5,4,0,0,0,0</value>
					</parameter>
					<parameter authoringApp="PremierePro">
					<parameterid>4</parameterid>
					<name></name>
					<IsTimeVarying>false</IsTimeVarying>
					<ParameterControlType>2</ParameterControlType>
					<LowerBound>0</LowerBound>
					<UpperBound>4000</UpperBound>
					<value>-91445760000000000,100.,0,0,0,0,0,0</value>
					</parameter>
					<parameter authoringApp="PremierePro">
					<parameterid>8</parameterid>
					<name></name>
					<IsTimeVarying>false</IsTimeVarying>
					<ParameterControlType>2</ParameterControlType>
					<LowerBound>0</LowerBound>
					<UpperBound>100</UpperBound>
					<value>-91445760000000000,100.,0,0,0,0,0,0</value>
					</parameter>
					</effect>
					</filter>
					<logginginfo>
					<description></description>
					<scene></scene>
					<shottake></shottake>
					<lognote></lognote>
					<good></good>
					<originalvideofilename></originalvideofilename>
					<originalaudiofilename></originalaudiofilename>
					</logginginfo>
					<colorinfo>
					<lut></lut>
					<lut1></lut1>
					<asc_sop></asc_sop>
					<asc_sat></asc_sat>
					<lut2></lut2>
					</colorinfo>
					<labels>
					</labels>
					</clipitem>
					<clipitem frameBlend="FALSE" id="clipitem-655">
					<masterclipid>masterclip-575</masterclipid>
					<name></name>
					<enabled>TRUE</enabled>
					<duration>2582774</duration>
					<rate>
					
					                                    <timebase>60</timebase>
					                                    <ntsc>TRUE</ntsc>
					                                
					</rate>
					<start>5614</start>
					<end>5674</end>
					<in>5614</in>
					<out>5674</out>
					<pproTicksIn>914456774963789</pproTicksIn>
					<pproTicksOut>914677708529577</pproTicksOut>
					<alphatype>straight</alphatype>
					<pixelaspectratio>square</pixelaspectratio>
					<anamorphic>FALSE</anamorphic>
					<file id="file-574">
					<name></name>
					<mediaSource>GraphicAndType</mediaSource>
					<rate>
					<timebase>60</timebase>
					<ntsc>TRUE</ntsc>
					</rate>
					<timecode>
					<rate>
					<timebase>60</timebase>
					<ntsc>TRUE</ntsc>
					</rate>
					<string>00:00:00:00</string>
					<frame>0</frame>
					<displayformat>NDF</displayformat>
					</timecode>
					<media>
					<video>
					<samplecharacteristics>
					<rate>
					<timebase>60</timebase>
					<ntsc>TRUE</ntsc>
					</rate>
					<width>1080</width>
					<height>1920</height>
					<anamorphic>FALSE</anamorphic>
					<pixelaspectratio>square</pixelaspectratio>
					<fielddominance>none</fielddominance>
					</samplecharacteristics>
					</video>
					</media>
					</file>
					<filter>
					<effect>
					<name></name>
					<effectid>GraphicAndType</effectid>
					<effectcategory>graphic</effectcategory>
					<effecttype>filter</effecttype>
					<mediatype>video</mediatype>
					<pproBypass>false</pproBypass>
					<parameter authoringApp="PremierePro">
					<parameterid>1</parameterid>
					<name></name>
					<hash>025b1101-ead6-0ca2-1feb-caf3000001fc</hash>
					<value>5AEAAAAAAABEMyIRDAAAAAAABgAKAAQABgAAAGQAAAAAAF4ASAAQAAwARABAADwAOAAAAAAAAAAAADQAMwAsAAAAKAAkACAAAAAAAAAAAAAAAAAAHAAAAAAAGgAAAAAAAAAUAAAAAAAAAAAAAAAAAAAAAAAAAAgAAAAAABsABwBeAAAAAAAAAUAAAABQAAAAbAAAAAIAAAAAAAEAAQAAAAAAQEEAAMBAAABAQAAAyEIAAAABIAAAAAIAAAACAAAAAAA2QwCASkTw/v//9P7///j+//8S////AAAAAAEAAAAEAAAAEQAAAEhHUFNvZWlLYWt1cG9wdGFpAAAAAQAAAAwAAAAIAAwABAAIAAgAAAAIAAAAUAAAAA8AAADvvIEAAAAAAAAAAAAAAAAAAAA2ACQAAAAgABwAAAAAABsAFAAAAAAAAAAAAAAAAAAAAAAAAAAAABAAAAAAAAAADAAAAAgABAA2AAAAAgAAABwAAAAcAAAAHAAAAAAAIEEAAAABaAAAAE3PAEOw////tP///wEAAAAUAAAAEAAaAAgABwAMAAAAEAAUABAAAAAAAAABHAAAAAAAoEEcAAAAAgAAAAAACgAIAAUABgAHAAoAAAAADAD//P///wQABAAEAAAACAAIAAYABwAIAAAAAAAMAA==</value>
					</parameter>
					<parameter authoringApp="PremierePro">
					<parameterid>2</parameterid>
					<name></name>
					<IsTimeVarying>false</IsTimeVarying>
					<ParameterControlType>11</ParameterControlType>
					<LowerBound>false</LowerBound>
					<UpperBound>false</UpperBound>
					<value>-91445760000000000,false,0,0,0,0,0,0</value>
					</parameter>
					<parameter authoringApp="PremierePro">
					<parameterid>3</parameterid>
					<name></name>
					<IsTimeVarying>false</IsTimeVarying>
					<value>-91445760000000000,0.5:0.5,0,0,0,0,0,0,5,4,0,0,0,0</value>
					</parameter>
					<parameter authoringApp="PremierePro">
					<parameterid>4</parameterid>
					<name></name>
					<IsTimeVarying>false</IsTimeVarying>
					<ParameterControlType>2</ParameterControlType>
					<LowerBound>0</LowerBound>
					<UpperBound>4000</UpperBound>
					<value>-91445760000000000,100.,0,0,0,0,0,0</value>
					</parameter>
					<parameter authoringApp="PremierePro">
					<parameterid>8</parameterid>
					<name></name>
					<IsTimeVarying>false</IsTimeVarying>
					<ParameterControlType>2</ParameterControlType>
					<LowerBound>0</LowerBound>
					<UpperBound>100</UpperBound>
					<value>-91445760000000000,100.,0,0,0,0,0,0</value>
					</parameter>
					</effect>
					</filter>
					<logginginfo>
					<description></description>
					<scene></scene>
					<shottake></shottake>
					<lognote></lognote>
					<good></good>
					<originalvideofilename></originalvideofilename>
					<originalaudiofilename></originalaudiofilename>
					</logginginfo>
					<colorinfo>
					<lut></lut>
					<lut1></lut1>
					<asc_sop></asc_sop>
					<asc_sat></asc_sat>
					<lut2></lut2>
					</colorinfo>
					<labels>
					</labels>
					</clipitem>
					<clipitem id="clipitem-667"/>
					                        </track>
					                        <track TL.SQTrackShy="0" TL.SQTrackExpandedHeight="25" TL.SQTrackExpanded="0" MZ.TrackTargeted="0">
					<clipitem frameBlend="FALSE" id="clipitem-668">
					<masterclipid>masterclip-588</masterclipid>
					<name></name>
					<enabled>TRUE</enabled>
					<duration>2582774</duration>
					<rate>
					
					                                    <timebase>60</timebase>
					                                    <ntsc>TRUE</ntsc>
					                                
					</rate>
					<start>5770</start>
					<end>5836</end>
					<in>5770</in>
					<out>5836</out>
					<pproTicksIn>914456774963789</pproTicksIn>
					<pproTicksOut>914677708529577</pproTicksOut>
					<alphatype>straight</alphatype>
					<pixelaspectratio>square</pixelaspectratio>
					<anamorphic>FALSE</anamorphic>
					<file id="file-587">
					<name></name>
					<mediaSource>GraphicAndType</mediaSource>
					<rate>
					<timebase>60</timebase>
					<ntsc>TRUE</ntsc>
					</rate>
					<timecode>
					<rate>
					<timebase>60</timebase>
					<ntsc>TRUE</ntsc>
					</rate>
					<string>00:00:00:00</string>
					<frame>0</frame>
					<displayformat>NDF</displayformat>
					</timecode>
					<media>
					<video>
					<samplecharacteristics>
					<rate>
					<timebase>60</timebase>
					<ntsc>TRUE</ntsc>
					</rate>
					<width>1080</width>
					<height>1920</height>
					<anamorphic>FALSE</anamorphic>
					<pixelaspectratio>square</pixelaspectratio>
					<fielddominance>none</fielddominance>
					</samplecharacteristics>
					</video>
					</media>
					</file>
					<filter>
					<effect>
					<name></name>
					<effectid>GraphicAndType</effectid>
					<effectcategory>graphic</effectcategory>
					<effecttype>filter</effecttype>
					<mediatype>video</mediatype>
					<pproBypass>false</pproBypass>
					<parameter authoringApp="PremierePro">
					<parameterid>1</parameterid>
					<name></name>
					<hash>025b1101-ead6-0ca2-1feb-caf3000001fc</hash>
					<value>5AEAAAAAAABEMyIRDAAAAAAABgAKAAQABgAAAGQAAAAAAF4ASAAQAAwARABAADwAOAAAAAAAAAAAADQAMwAsAAAAKAAkACAAAAAAAAAAAAAAAAAAHAAAAAAAGgAAAAAAAAAUAAAAAAAAAAAAAAAAAAAAAAAAAAgAAAAAABsABwBeAAAAAAAAAUAAAABQAAAAbAAAAAIAAAAAAAEAAQAAAAAAQEEAAMBAAABAQAAAyEIAAAABIAAAAAIAAAACAAAAAAA2QwCASkTw/v//9P7///j+//8S////AAAAAAEAAAAEAAAAEQAAAEhHUFNvZWlLYWt1cG9wdGFpAAAAAQAAAAwAAAAIAAwABAAIAAgAAAAIAAAAUAAAAA8AAADvvIEAAAAAAAAAAAAAAAAAAAA2ACQAAAAgABwAAAAAABsAFAAAAAAAAAAAAAAAAAAAAAAAAAAAABAAAAAAAAAADAAAAAgABAA2AAAAAgAAABwAAAAcAAAAHAAAAAAAIEEAAAABaAAAAE3PAEOw////tP///wEAAAAUAAAAEAAaAAgABwAMAAAAEAAUABAAAAAAAAABHAAAAAAAoEEcAAAAAgAAAAAACgAIAAUABgAHAAoAAAAADAD//P///wQABAAEAAAACAAIAAYABwAIAAAAAAAMAA==</value>
					</parameter>
					<parameter authoringApp="PremierePro">
					<parameterid>2</parameterid>
					<name></name>
					<IsTimeVarying>false</IsTimeVarying>
					<ParameterControlType>11</ParameterControlType>
					<LowerBound>false</LowerBound>
					<UpperBound>false</UpperBound>
					<value>-91445760000000000,false,0,0,0,0,0,0</value>
					</parameter>
					<parameter authoringApp="PremierePro">
					<parameterid>3</parameterid>
					<name></name>
					<IsTimeVarying>false</IsTimeVarying>
					<value>-91445760000000000,0.5:0.5,0,0,0,0,0,0,5,4,0,0,0,0</value>
					</parameter>
					<parameter authoringApp="PremierePro">
					<parameterid>4</parameterid>
					<name></name>
					<IsTimeVarying>false</IsTimeVarying>
					<ParameterControlType>2</ParameterControlType>
					<LowerBound>0</LowerBound>
					<UpperBound>4000</UpperBound>
					<value>-91445760000000000,100.,0,0,0,0,0,0</value>
					</parameter>
					<parameter authoringApp="PremierePro">
					<parameterid>8</parameterid>
					<name></name>
					<IsTimeVarying>false</IsTimeVarying>
					<ParameterControlType>2</ParameterControlType>
					<LowerBound>0</LowerBound>
					<UpperBound>100</UpperBound>
					<value>-91445760000000000,100.,0,0,0,0,0,0</value>
					</parameter>
					</effect>
					</filter>
					<logginginfo>
					<description></description>
					<scene></scene>
					<shottake></shottake>
					<lognote></lognote>
					<good></good>
					<originalvideofilename></originalvideofilename>
					<originalaudiofilename></originalaudiofilename>
					</logginginfo>
					<colorinfo>
					<lut></lut>
					<lut1></lut1>
					<asc_sop></asc_sop>
					<asc_sat></asc_sat>
					<lut2></lut2>
					</colorinfo>
					<labels>
					</labels>
					</clipitem>
					<clipitem frameBlend="FALSE" id="clipitem-683">
					<masterclipid>masterclip-603</masterclipid>
					<name></name>
					<enabled>TRUE</enabled>
					<duration>2582774</duration>
					<rate>
					
					                                    <timebase>60</timebase>
					                                    <ntsc>TRUE</ntsc>
					                                
					</rate>
					<start>5920</start>
					<end>5980</end>
					<in>5920</in>
					<out>5980</out>
					<pproTicksIn>914456774963789</pproTicksIn>
					<pproTicksOut>914677708529577</pproTicksOut>
					<alphatype>straight</alphatype>
					<pixelaspectratio>square</pixelaspectratio>
					<anamorphic>FALSE</anamorphic>
					<file id="file-602">
					<name></name>
					<mediaSource>GraphicAndType</mediaSource>
					<rate>
					<timebase>60</timebase>
					<ntsc>TRUE</ntsc>
					</rate>
					<timecode>
					<rate>
					<timebase>60</timebase>
					<ntsc>TRUE</ntsc>
					</rate>
					<string>00:00:00:00</string>
					<frame>0</frame>
					<displayformat>NDF</displayformat>
					</timecode>
					<media>
					<video>
					<samplecharacteristics>
					<rate>
					<timebase>60</timebase>
					<ntsc>TRUE</ntsc>
					</rate>
					<width>1080</width>
					<height>1920</height>
					<anamorphic>FALSE</anamorphic>
					<pixelaspectratio>square</pixelaspectratio>
					<fielddominance>none</fielddominance>
					</samplecharacteristics>
					</video>
					</media>
					</file>
					<filter>
					<effect>
					<name></name>
					<effectid>GraphicAndType</effectid>
					<effectcategory>graphic</effectcategory>
					<effecttype>filter</effecttype>
					<mediatype>video</mediatype>
					<pproBypass>false</pproBypass>
					<parameter authoringApp="PremierePro">
					<parameterid>1</parameterid>
					<name></name>
					<hash>025b1101-ead6-0ca2-1feb-caf3000001fc</hash>
					<value>5AEAAAAAAABEMyIRDAAAAAAABgAKAAQABgAAAGQAAAAAAF4ASAAQAAwARABAADwAOAAAAAAAAAAAADQAMwAsAAAAKAAkACAAAAAAAAAAAAAAAAAAHAAAAAAAGgAAAAAAAAAUAAAAAAAAAAAAAAAAAAAAAAAAAAgAAAAAABsABwBeAAAAAAAAAUAAAABQAAAAbAAAAAIAAAAAAAEAAQAAAAAAQEEAAMBAAABAQAAAyEIAAAABIAAAAAIAAAACAAAAAAA2QwCASkTw/v//9P7///j+//8S////AAAAAAEAAAAEAAAAEQAAAEhHUFNvZWlLYWt1cG9wdGFpAAAAAQAAAAwAAAAIAAwABAAIAAgAAAAIAAAAUAAAAA8AAADvvIEAAAAAAAAAAAAAAAAAAAA2ACQAAAAgABwAAAAAABsAFAAAAAAAAAAAAAAAAAAAAAAAAAAAABAAAAAAAAAADAAAAAgABAA2AAAAAgAAABwAAAAcAAAAHAAAAAAAIEEAAAABaAAAAE3PAEOw////tP///wEAAAAUAAAAEAAaAAgABwAMAAAAEAAUABAAAAAAAAABHAAAAAAAoEEcAAAAAgAAAAAACgAIAAUABgAHAAoAAAAADAD//P///wQABAAEAAAACAAIAAYABwAIAAAAAAAMAA==</value>
					</parameter>
					<parameter authoringApp="PremierePro">
					<parameterid>2</parameterid>
					<name></name>
					<IsTimeVarying>false</IsTimeVarying>
					<ParameterControlType>11</ParameterControlType>
					<LowerBound>false</LowerBound>
					<UpperBound>false</UpperBound>
					<value>-91445760000000000,false,0,0,0,0,0,0</value>
					</parameter>
					<parameter authoringApp="PremierePro">
					<parameterid>3</parameterid>
					<name></name>
					<IsTimeVarying>false</IsTimeVarying>
					<value>-91445760000000000,0.5:0.5,0,0,0,0,0,0,5,4,0,0,0,0</value>
					</parameter>
					<parameter authoringApp="PremierePro">
					<parameterid>4</parameterid>
					<name></name>
					<IsTimeVarying>false</IsTimeVarying>
					<ParameterControlType>2</ParameterControlType>
					<LowerBound>0</LowerBound>
					<UpperBound>4000</UpperBound>
					<value>-91445760000000000,100.,0,0,0,0,0,0</value>
					</parameter>
					<parameter authoringApp="PremierePro">
					<parameterid>8</parameterid>
					<name></name>
					<IsTimeVarying>false</IsTimeVarying>
					<ParameterControlType>2</ParameterControlType>
					<LowerBound>0</LowerBound>
					<UpperBound>100</UpperBound>
					<value>-91445760000000000,100.,0,0,0,0,0,0</value>
					</parameter>
					</effect>
					</filter>
					<logginginfo>
					<description></description>
					<scene></scene>
					<shottake></shottake>
					<lognote></lognote>
					<good></good>
					<originalvideofilename></originalvideofilename>
					<originalaudiofilename></originalaudiofilename>
					</logginginfo>
					<colorinfo>
					<lut></lut>
					<lut1></lut1>
					<asc_sop></asc_sop>
					<asc_sat></asc_sat>
					<lut2></lut2>
					</colorinfo>
					<labels>
					</labels>
					</clipitem>
					<clipitem id="clipitem-690"/>
					                        </track>
					                        <track TL.SQTrackShy="0" TL.SQTrackExpandedHeight="25" TL.SQTrackExpanded="0" MZ.TrackTargeted="0">
					<clipitem frameBlend="FALSE" id="clipitem-691">
					<masterclipid>masterclip-611</masterclipid>
					<name></name>
					<enabled>TRUE</enabled>
					<duration>2582774</duration>
					<rate>
					
					                                    <timebase>60</timebase>
					                                    <ntsc>TRUE</ntsc>
					                                
					</rate>
					<start>6010</start>
					<end>6070</end>
					<in>6010</in>
					<out>6070</out>
					<pproTicksIn>914456774963789</pproTicksIn>
					<pproTicksOut>914677708529577</pproTicksOut>
					<alphatype>straight</alphatype>
					<pixelaspectratio>square</pixelaspectratio>
					<anamorphic>FALSE</anamorphic>
					<file id="file-610">
					<name></name>
					<mediaSource>GraphicAndType</mediaSource>
					<rate>
					<timebase>60</timebase>
					<ntsc>TRUE</ntsc>
					</rate>
					<timecode>
					<rate>
					<timebase>60</timebase>
					<ntsc>TRUE</ntsc>
					</rate>
					<string>00:00:00:00</string>
					<frame>0</frame>
					<displayformat>NDF</displayformat>
					</timecode>
					<media>
					<video>
					<samplecharacteristics>
					<rate>
					<timebase>60</timebase>
					<ntsc>TRUE</ntsc>
					</rate>
					<width>1080</width>
					<height>1920</height>
					<anamorphic>FALSE</anamorphic>
					<pixelaspectratio>square</pixelaspectratio>
					<fielddominance>none</fielddominance>
					</samplecharacteristics>
					</video>
					</media>
					</file>
					<filter>
					<effect>
					<name></name>
					<effectid>GraphicAndType</effectid>
					<effectcategory>graphic</effectcategory>
					<effecttype>filter</effecttype>
					<mediatype>video</mediatype>
					<pproBypass>false</pproBypass>
					<parameter authoringApp="PremierePro">
					<parameterid>1</parameterid>
					<name></name>
					<hash>025b1101-ead6-0ca2-1feb-caf3000001fc</hash>
					<value>5AEAAAAAAABEMyIRDAAAAAAABgAKAAQABgAAAGQAAAAAAF4ASAAQAAwARABAADwAOAAAAAAAAAAAADQAMwAsAAAAKAAkACAAAAAAAAAAAAAAAAAAHAAAAAAAGgAAAAAAAAAUAAAAAAAAAAAAAAAAAAAAAAAAAAgAAAAAABsABwBeAAAAAAAAAUAAAABQAAAAbAAAAAIAAAAAAAEAAQAAAAAAQEEAAMBAAABAQAAAyEIAAAABIAAAAAIAAAACAAAAAAA2QwCASkTw/v//9P7///j+//8S////AAAAAAEAAAAEAAAAEQAAAEhHUFNvZWlLYWt1cG9wdGFpAAAAAQAAAAwAAAAIAAwABAAIAAgAAAAIAAAAUAAAAA8AAADvvIEAAAAAAAAAAAAAAAAAAAA2ACQAAAAgABwAAAAAABsAFAAAAAAAAAAAAAAAAAAAAAAAAAAAABAAAAAAAAAADAAAAAgABAA2AAAAAgAAABwAAAAcAAAAHAAAAAAAIEEAAAABaAAAAE3PAEOw////tP///wEAAAAUAAAAEAAaAAgABwAMAAAAEAAUABAAAAAAAAABHAAAAAAAoEEcAAAAAgAAAAAACgAIAAUABgAHAAoAAAAADAD//P///wQABAAEAAAACAAIAAYABwAIAAAAAAAMAA==</value>
					</parameter>
					<parameter authoringApp="PremierePro">
					<parameterid>2</parameterid>
					<name></name>
					<IsTimeVarying>false</IsTimeVarying>
					<ParameterControlType>11</ParameterControlType>
					<LowerBound>false</LowerBound>
					<UpperBound>false</UpperBound>
					<value>-91445760000000000,false,0,0,0,0,0,0</value>
					</parameter>
					<parameter authoringApp="PremierePro">
					<parameterid>3</parameterid>
					<name></name>
					<IsTimeVarying>false</IsTimeVarying>
					<value>-91445760000000000,0.5:0.5,0,0,0,0,0,0,5,4,0,0,0,0</value>
					</parameter>
					<parameter authoringApp="PremierePro">
					<parameterid>4</parameterid>
					<name></name>
					<IsTimeVarying>false</IsTimeVarying>
					<ParameterControlType>2</ParameterControlType>
					<LowerBound>0</LowerBound>
					<UpperBound>4000</UpperBound>
					<value>-91445760000000000,100.,0,0,0,0,0,0</value>
					</parameter>
					<parameter authoringApp="PremierePro">
					<parameterid>8</parameterid>
					<name></name>
					<IsTimeVarying>false</IsTimeVarying>
					<ParameterControlType>2</ParameterControlType>
					<LowerBound>0</LowerBound>
					<UpperBound>100</UpperBound>
					<value>-91445760000000000,100.,0,0,0,0,0,0</value>
					</parameter>
					</effect>
					</filter>
					<logginginfo>
					<description></description>
					<scene></scene>
					<shottake></shottake>
					<lognote></lognote>
					<good></good>
					<originalvideofilename></originalvideofilename>
					<originalaudiofilename></originalaudiofilename>
					</logginginfo>
					<colorinfo>
					<lut></lut>
					<lut1></lut1>
					<asc_sop></asc_sop>
					<asc_sat></asc_sat>
					<lut2></lut2>
					</colorinfo>
					<labels>
					</labels>
					</clipitem>
					<clipitem frameBlend="FALSE" id="clipitem-699">
					<masterclipid>masterclip-619</masterclipid>
					<name></name>
					<enabled>TRUE</enabled>
					<duration>2582774</duration>
					<rate>
					
					                                    <timebase>60</timebase>
					                                    <ntsc>TRUE</ntsc>
					                                
					</rate>
					<start>6088</start>
					<end>6148</end>
					<in>6088</in>
					<out>6148</out>
					<pproTicksIn>914456774963789</pproTicksIn>
					<pproTicksOut>914677708529577</pproTicksOut>
					<alphatype>straight</alphatype>
					<pixelaspectratio>square</pixelaspectratio>
					<anamorphic>FALSE</anamorphic>
					<file id="file-618">
					<name></name>
					<mediaSource>GraphicAndType</mediaSource>
					<rate>
					<timebase>60</timebase>
					<ntsc>TRUE</ntsc>
					</rate>
					<timecode>
					<rate>
					<timebase>60</timebase>
					<ntsc>TRUE</ntsc>
					</rate>
					<string>00:00:00:00</string>
					<frame>0</frame>
					<displayformat>NDF</displayformat>
					</timecode>
					<media>
					<video>
					<samplecharacteristics>
					<rate>
					<timebase>60</timebase>
					<ntsc>TRUE</ntsc>
					</rate>
					<width>1080</width>
					<height>1920</height>
					<anamorphic>FALSE</anamorphic>
					<pixelaspectratio>square</pixelaspectratio>
					<fielddominance>none</fielddominance>
					</samplecharacteristics>
					</video>
					</media>
					</file>
					<filter>
					<effect>
					<name></name>
					<effectid>GraphicAndType</effectid>
					<effectcategory>graphic</effectcategory>
					<effecttype>filter</effecttype>
					<mediatype>video</mediatype>
					<pproBypass>false</pproBypass>
					<parameter authoringApp="PremierePro">
					<parameterid>1</parameterid>
					<name></name>
					<hash>025b1101-ead6-0ca2-1feb-caf3000001fc</hash>
					<value>5AEAAAAAAABEMyIRDAAAAAAABgAKAAQABgAAAGQAAAAAAF4ASAAQAAwARABAADwAOAAAAAAAAAAAADQAMwAsAAAAKAAkACAAAAAAAAAAAAAAAAAAHAAAAAAAGgAAAAAAAAAUAAAAAAAAAAAAAAAAAAAAAAAAAAgAAAAAABsABwBeAAAAAAAAAUAAAABQAAAAbAAAAAIAAAAAAAEAAQAAAAAAQEEAAMBAAABAQAAAyEIAAAABIAAAAAIAAAACAAAAAAA2QwCASkTw/v//9P7///j+//8S////AAAAAAEAAAAEAAAAEQAAAEhHUFNvZWlLYWt1cG9wdGFpAAAAAQAAAAwAAAAIAAwABAAIAAgAAAAIAAAAUAAAAA8AAADvvIEAAAAAAAAAAAAAAAAAAAA2ACQAAAAgABwAAAAAABsAFAAAAAAAAAAAAAAAAAAAAAAAAAAAABAAAAAAAAAADAAAAAgABAA2AAAAAgAAABwAAAAcAAAAHAAAAAAAIEEAAAABaAAAAE3PAEOw////tP///wEAAAAUAAAAEAAaAAgABwAMAAAAEAAUABAAAAAAAAABHAAAAAAAoEEcAAAAAgAAAAAACgAIAAUABgAHAAoAAAAADAD//P///wQABAAEAAAACAAIAAYABwAIAAAAAAAMAA==</value>
					</parameter>
					<parameter authoringApp="PremierePro">
					<parameterid>2</parameterid>
					<name></name>
					<IsTimeVarying>false</IsTimeVarying>
					<ParameterControlType>11</ParameterControlType>
					<LowerBound>false</LowerBound>
					<UpperBound>false</UpperBound>
					<value>-91445760000000000,false,0,0,0,0,0,0</value>
					</parameter>
					<parameter authoringApp="PremierePro">
					<parameterid>3</parameterid>
					<name></name>
					<IsTimeVarying>false</IsTimeVarying>
					<value>-91445760000000000,0.5:0.5,0,0,0,0,0,0,5,4,0,0,0,0</value>
					</parameter>
					<parameter authoringApp="PremierePro">
					<parameterid>4</parameterid>
					<name></name>
					<IsTimeVarying>false</IsTimeVarying>
					<ParameterControlType>2</ParameterControlType>
					<LowerBound>0</LowerBound>
					<UpperBound>4000</UpperBound>
					<value>-91445760000000000,100.,0,0,0,0,0,0</value>
					</parameter>
					<parameter authoringApp="PremierePro">
					<parameterid>8</parameterid>
					<name></name>
					<IsTimeVarying>false</IsTimeVarying>
					<ParameterControlType>2</ParameterControlType>
					<LowerBound>0</LowerBound>
					<UpperBound>100</UpperBound>
					<value>-91445760000000000,100.,0,0,0,0,0,0</value>
					</parameter>
					</effect>
					</filter>
					<logginginfo>
					<description></description>
					<scene></scene>
					<shottake></shottake>
					<lognote></lognote>
					<good></good>
					<originalvideofilename></originalvideofilename>
					<originalaudiofilename></originalaudiofilename>
					</logginginfo>
					<colorinfo>
					<lut></lut>
					<lut1></lut1>
					<asc_sop></asc_sop>
					<asc_sat></asc_sat>
					<lut2></lut2>
					</colorinfo>
					<labels>
					</labels>
					</clipitem>
					<clipitem frameBlend="FALSE" id="clipitem-707">
					<masterclipid>masterclip-627</masterclipid>
					<name></name>
					<enabled>TRUE</enabled>
					<duration>2582774</duration>
					<rate>
					
					                                    <timebase>60</timebase>
					                                    <ntsc>TRUE</ntsc>
					                                
					</rate>
					<start>6154</start>
					<end>6214</end>
					<in>6154</in>
					<out>6214</out>
					<pproTicksIn>914456774963789</pproTicksIn>
					<pproTicksOut>914677708529577</pproTicksOut>
					<alphatype>straight</alphatype>
					<pixelaspectratio>square</pixelaspectratio>
					<anamorphic>FALSE</anamorphic>
					<file id="file-626">
					<name></name>
					<mediaSource>GraphicAndType</mediaSource>
					<rate>
					<timebase>60</timebase>
					<ntsc>TRUE</ntsc>
					</rate>
					<timecode>
					<rate>
					<timebase>60</timebase>
					<ntsc>TRUE</ntsc>
					</rate>
					<string>00:00:00:00</string>
					<frame>0</frame>
					<displayformat>NDF</displayformat>
					</timecode>
					<media>
					<video>
					<samplecharacteristics>
					<rate>
					<timebase>60</timebase>
					<ntsc>TRUE</ntsc>
					</rate>
					<width>1080</width>
					<height>1920</height>
					<anamorphic>FALSE</anamorphic>
					<pixelaspectratio>square</pixelaspectratio>
					<fielddominance>none</fielddominance>
					</samplecharacteristics>
					</video>
					</media>
					</file>
					<filter>
					<effect>
					<name></name>
					<effectid>GraphicAndType</effectid>
					<effectcategory>graphic</effectcategory>
					<effecttype>filter</effecttype>
					<mediatype>video</mediatype>
					<pproBypass>false</pproBypass>
					<parameter authoringApp="PremierePro">
					<parameterid>1</parameterid>
					<name></name>
					<hash>025b1101-ead6-0ca2-1feb-caf3000001fc</hash>
					<value>5AEAAAAAAABEMyIRDAAAAAAABgAKAAQABgAAAGQAAAAAAF4ASAAQAAwARABAADwAOAAAAAAAAAAAADQAMwAsAAAAKAAkACAAAAAAAAAAAAAAAAAAHAAAAAAAGgAAAAAAAAAUAAAAAAAAAAAAAAAAAAAAAAAAAAgAAAAAABsABwBeAAAAAAAAAUAAAABQAAAAbAAAAAIAAAAAAAEAAQAAAAAAQEEAAMBAAABAQAAAyEIAAAABIAAAAAIAAAACAAAAAAA2QwCASkTw/v//9P7///j+//8S////AAAAAAEAAAAEAAAAEQAAAEhHUFNvZWlLYWt1cG9wdGFpAAAAAQAAAAwAAAAIAAwABAAIAAgAAAAIAAAAUAAAAA8AAADvvIEAAAAAAAAAAAAAAAAAAAA2ACQAAAAgABwAAAAAABsAFAAAAAAAAAAAAAAAAAAAAAAAAAAAABAAAAAAAAAADAAAAAgABAA2AAAAAgAAABwAAAAcAAAAHAAAAAAAIEEAAAABaAAAAE3PAEOw////tP///wEAAAAUAAAAEAAaAAgABwAMAAAAEAAUABAAAAAAAAABHAAAAAAAoEEcAAAAAgAAAAAACgAIAAUABgAHAAoAAAAADAD//P///wQABAAEAAAACAAIAAYABwAIAAAAAAAMAA==</value>
					</parameter>
					<parameter authoringApp="PremierePro">
					<parameterid>2</parameterid>
					<name></name>
					<IsTimeVarying>false</IsTimeVarying>
					<ParameterControlType>11</ParameterControlType>
					<LowerBound>false</LowerBound>
					<UpperBound>false</UpperBound>
					<value>-91445760000000000,false,0,0,0,0,0,0</value>
					</parameter>
					<parameter authoringApp="PremierePro">
					<parameterid>3</parameterid>
					<name></name>
					<IsTimeVarying>false</IsTimeVarying>
					<value>-91445760000000000,0.5:0.5,0,0,0,0,0,0,5,4,0,0,0,0</value>
					</parameter>
					<parameter authoringApp="PremierePro">
					<parameterid>4</parameterid>
					<name></name>
					<IsTimeVarying>false</IsTimeVarying>
					<ParameterControlType>2</ParameterControlType>
					<LowerBound>0</LowerBound>
					<UpperBound>4000</UpperBound>
					<value>-91445760000000000,100.,0,0,0,0,0,0</value>
					</parameter>
					<parameter authoringApp="PremierePro">
					<parameterid>8</parameterid>
					<name></name>
					<IsTimeVarying>false</IsTimeVarying>
					<ParameterControlType>2</ParameterControlType>
					<LowerBound>0</LowerBound>
					<UpperBound>100</UpperBound>
					<value>-91445760000000000,100.,0,0,0,0,0,0</value>
					</parameter>
					</effect>
					</filter>
					<logginginfo>
					<description></description>
					<scene></scene>
					<shottake></shottake>
					<lognote></lognote>
					<good></good>
					<originalvideofilename></originalvideofilename>
					<originalaudiofilename></originalaudiofilename>
					</logginginfo>
					<colorinfo>
					<lut></lut>
					<lut1></lut1>
					<asc_sop></asc_sop>
					<asc_sat></asc_sat>
					<lut2></lut2>
					</colorinfo>
					<labels>
					</labels>
					</clipitem>
					<clipitem frameBlend="FALSE" id="clipitem-714">
					<masterclipid>masterclip-634</masterclipid>
					<name></name>
					<enabled>TRUE</enabled>
					<duration>2582774</duration>
					<rate>
					
					                                    <timebase>60</timebase>
					                                    <ntsc>TRUE</ntsc>
					                                
					</rate>
					<start>6220</start>
					<end>6280</end>
					<in>6220</in>
					<out>6280</out>
					<pproTicksIn>914456774963789</pproTicksIn>
					<pproTicksOut>914677708529577</pproTicksOut>
					<alphatype>straight</alphatype>
					<pixelaspectratio>square</pixelaspectratio>
					<anamorphic>FALSE</anamorphic>
					<file id="file-633">
					<name></name>
					<mediaSource>GraphicAndType</mediaSource>
					<rate>
					<timebase>60</timebase>
					<ntsc>TRUE</ntsc>
					</rate>
					<timecode>
					<rate>
					<timebase>60</timebase>
					<ntsc>TRUE</ntsc>
					</rate>
					<string>00:00:00:00</string>
					<frame>0</frame>
					<displayformat>NDF</displayformat>
					</timecode>
					<media>
					<video>
					<samplecharacteristics>
					<rate>
					<timebase>60</timebase>
					<ntsc>TRUE</ntsc>
					</rate>
					<width>1080</width>
					<height>1920</height>
					<anamorphic>FALSE</anamorphic>
					<pixelaspectratio>square</pixelaspectratio>
					<fielddominance>none</fielddominance>
					</samplecharacteristics>
					</video>
					</media>
					</file>
					<filter>
					<effect>
					<name></name>
					<effectid>GraphicAndType</effectid>
					<effectcategory>graphic</effectcategory>
					<effecttype>filter</effecttype>
					<mediatype>video</mediatype>
					<pproBypass>false</pproBypass>
					<parameter authoringApp="PremierePro">
					<parameterid>1</parameterid>
					<name></name>
					<hash>025b1101-ead6-0ca2-1feb-caf3000001fc</hash>
					<value>5AEAAAAAAABEMyIRDAAAAAAABgAKAAQABgAAAGQAAAAAAF4ASAAQAAwARABAADwAOAAAAAAAAAAAADQAMwAsAAAAKAAkACAAAAAAAAAAAAAAAAAAHAAAAAAAGgAAAAAAAAAUAAAAAAAAAAAAAAAAAAAAAAAAAAgAAAAAABsABwBeAAAAAAAAAUAAAABQAAAAbAAAAAIAAAAAAAEAAQAAAAAAQEEAAMBAAABAQAAAyEIAAAABIAAAAAIAAAACAAAAAAA2QwCASkTw/v//9P7///j+//8S////AAAAAAEAAAAEAAAAEQAAAEhHUFNvZWlLYWt1cG9wdGFpAAAAAQAAAAwAAAAIAAwABAAIAAgAAAAIAAAAUAAAAA8AAADvvIEAAAAAAAAAAAAAAAAAAAA2ACQAAAAgABwAAAAAABsAFAAAAAAAAAAAAAAAAAAAAAAAAAAAABAAAAAAAAAADAAAAAgABAA2AAAAAgAAABwAAAAcAAAAHAAAAAAAIEEAAAABaAAAAE3PAEOw////tP///wEAAAAUAAAAEAAaAAgABwAMAAAAEAAUABAAAAAAAAABHAAAAAAAoEEcAAAAAgAAAAAACgAIAAUABgAHAAoAAAAADAD//P///wQABAAEAAAACAAIAAYABwAIAAAAAAAMAA==</value>
					</parameter>
					<parameter authoringApp="PremierePro">
					<parameterid>2</parameterid>
					<name></name>
					<IsTimeVarying>false</IsTimeVarying>
					<ParameterControlType>11</ParameterControlType>
					<LowerBound>false</LowerBound>
					<UpperBound>false</UpperBound>
					<value>-91445760000000000,false,0,0,0,0,0,0</value>
					</parameter>
					<parameter authoringApp="PremierePro">
					<parameterid>3</parameterid>
					<name></name>
					<IsTimeVarying>false</IsTimeVarying>
					<value>-91445760000000000,0.5:0.5,0,0,0,0,0,0,5,4,0,0,0,0</value>
					</parameter>
					<parameter authoringApp="PremierePro">
					<parameterid>4</parameterid>
					<name></name>
					<IsTimeVarying>false</IsTimeVarying>
					<ParameterControlType>2</ParameterControlType>
					<LowerBound>0</LowerBound>
					<UpperBound>4000</UpperBound>
					<value>-91445760000000000,100.,0,0,0,0,0,0</value>
					</parameter>
					<parameter authoringApp="PremierePro">
					<parameterid>8</parameterid>
					<name></name>
					<IsTimeVarying>false</IsTimeVarying>
					<ParameterControlType>2</ParameterControlType>
					<LowerBound>0</LowerBound>
					<UpperBound>100</UpperBound>
					<value>-91445760000000000,100.,0,0,0,0,0,0</value>
					</parameter>
					</effect>
					</filter>
					<logginginfo>
					<description></description>
					<scene></scene>
					<shottake></shottake>
					<lognote></lognote>
					<good></good>
					<originalvideofilename></originalvideofilename>
					<originalaudiofilename></originalaudiofilename>
					</logginginfo>
					<colorinfo>
					<lut></lut>
					<lut1></lut1>
					<asc_sop></asc_sop>
					<asc_sat></asc_sat>
					<lut2></lut2>
					</colorinfo>
					<labels>
					</labels>
					</clipitem>
					<clipitem frameBlend="FALSE" id="clipitem-722">
					<masterclipid>masterclip-642</masterclipid>
					<name></name>
					<enabled>TRUE</enabled>
					<duration>2582774</duration>
					<rate>
					
					                                    <timebase>60</timebase>
					                                    <ntsc>TRUE</ntsc>
					                                
					</rate>
					<start>6280</start>
					<end>6340</end>
					<in>6280</in>
					<out>6340</out>
					<pproTicksIn>914456774963789</pproTicksIn>
					<pproTicksOut>914677708529577</pproTicksOut>
					<alphatype>straight</alphatype>
					<pixelaspectratio>square</pixelaspectratio>
					<anamorphic>FALSE</anamorphic>
					<file id="file-641">
					<name></name>
					<mediaSource>GraphicAndType</mediaSource>
					<rate>
					<timebase>60</timebase>
					<ntsc>TRUE</ntsc>
					</rate>
					<timecode>
					<rate>
					<timebase>60</timebase>
					<ntsc>TRUE</ntsc>
					</rate>
					<string>00:00:00:00</string>
					<frame>0</frame>
					<displayformat>NDF</displayformat>
					</timecode>
					<media>
					<video>
					<samplecharacteristics>
					<rate>
					<timebase>60</timebase>
					<ntsc>TRUE</ntsc>
					</rate>
					<width>1080</width>
					<height>1920</height>
					<anamorphic>FALSE</anamorphic>
					<pixelaspectratio>square</pixelaspectratio>
					<fielddominance>none</fielddominance>
					</samplecharacteristics>
					</video>
					</media>
					</file>
					<filter>
					<effect>
					<name></name>
					<effectid>GraphicAndType</effectid>
					<effectcategory>graphic</effectcategory>
					<effecttype>filter</effecttype>
					<mediatype>video</mediatype>
					<pproBypass>false</pproBypass>
					<parameter authoringApp="PremierePro">
					<parameterid>1</parameterid>
					<name></name>
					<hash>025b1101-ead6-0ca2-1feb-caf3000001fc</hash>
					<value>5AEAAAAAAABEMyIRDAAAAAAABgAKAAQABgAAAGQAAAAAAF4ASAAQAAwARABAADwAOAAAAAAAAAAAADQAMwAsAAAAKAAkACAAAAAAAAAAAAAAAAAAHAAAAAAAGgAAAAAAAAAUAAAAAAAAAAAAAAAAAAAAAAAAAAgAAAAAABsABwBeAAAAAAAAAUAAAABQAAAAbAAAAAIAAAAAAAEAAQAAAAAAQEEAAMBAAABAQAAAyEIAAAABIAAAAAIAAAACAAAAAAA2QwCASkTw/v//9P7///j+//8S////AAAAAAEAAAAEAAAAEQAAAEhHUFNvZWlLYWt1cG9wdGFpAAAAAQAAAAwAAAAIAAwABAAIAAgAAAAIAAAAUAAAAA8AAADvvIEAAAAAAAAAAAAAAAAAAAA2ACQAAAAgABwAAAAAABsAFAAAAAAAAAAAAAAAAAAAAAAAAAAAABAAAAAAAAAADAAAAAgABAA2AAAAAgAAABwAAAAcAAAAHAAAAAAAIEEAAAABaAAAAE3PAEOw////tP///wEAAAAUAAAAEAAaAAgABwAMAAAAEAAUABAAAAAAAAABHAAAAAAAoEEcAAAAAgAAAAAACgAIAAUABgAHAAoAAAAADAD//P///wQABAAEAAAACAAIAAYABwAIAAAAAAAMAA==</value>
					</parameter>
					<parameter authoringApp="PremierePro">
					<parameterid>2</parameterid>
					<name></name>
					<IsTimeVarying>false</IsTimeVarying>
					<ParameterControlType>11</ParameterControlType>
					<LowerBound>false</LowerBound>
					<UpperBound>false</UpperBound>
					<value>-91445760000000000,false,0,0,0,0,0,0</value>
					</parameter>
					<parameter authoringApp="PremierePro">
					<parameterid>3</parameterid>
					<name></name>
					<IsTimeVarying>false</IsTimeVarying>
					<value>-91445760000000000,0.5:0.5,0,0,0,0,0,0,5,4,0,0,0,0</value>
					</parameter>
					<parameter authoringApp="PremierePro">
					<parameterid>4</parameterid>
					<name></name>
					<IsTimeVarying>false</IsTimeVarying>
					<ParameterControlType>2</ParameterControlType>
					<LowerBound>0</LowerBound>
					<UpperBound>4000</UpperBound>
					<value>-91445760000000000,100.,0,0,0,0,0,0</value>
					</parameter>
					<parameter authoringApp="PremierePro">
					<parameterid>8</parameterid>
					<name></name>
					<IsTimeVarying>false</IsTimeVarying>
					<ParameterControlType>2</ParameterControlType>
					<LowerBound>0</LowerBound>
					<UpperBound>100</UpperBound>
					<value>-91445760000000000,100.,0,0,0,0,0,0</value>
					</parameter>
					</effect>
					</filter>
					<logginginfo>
					<description></description>
					<scene></scene>
					<shottake></shottake>
					<lognote></lognote>
					<good></good>
					<originalvideofilename></originalvideofilename>
					<originalaudiofilename></originalaudiofilename>
					</logginginfo>
					<colorinfo>
					<lut></lut>
					<lut1></lut1>
					<asc_sop></asc_sop>
					<asc_sat></asc_sat>
					<lut2></lut2>
					</colorinfo>
					<labels>
					</labels>
					</clipitem>
					<clipitem frameBlend="FALSE" id="clipitem-732">
					<masterclipid>masterclip-652</masterclipid>
					<name></name>
					<enabled>TRUE</enabled>
					<duration>2582774</duration>
					<rate>
					
					                                    <timebase>60</timebase>
					                                    <ntsc>TRUE</ntsc>
					                                
					</rate>
					<start>6370</start>
					<end>6430</end>
					<in>6370</in>
					<out>6430</out>
					<pproTicksIn>914456774963789</pproTicksIn>
					<pproTicksOut>914677708529577</pproTicksOut>
					<alphatype>straight</alphatype>
					<pixelaspectratio>square</pixelaspectratio>
					<anamorphic>FALSE</anamorphic>
					<file id="file-651">
					<name></name>
					<mediaSource>GraphicAndType</mediaSource>
					<rate>
					<timebase>60</timebase>
					<ntsc>TRUE</ntsc>
					</rate>
					<timecode>
					<rate>
					<timebase>60</timebase>
					<ntsc>TRUE</ntsc>
					</rate>
					<string>00:00:00:00</string>
					<frame>0</frame>
					<displayformat>NDF</displayformat>
					</timecode>
					<media>
					<video>
					<samplecharacteristics>
					<rate>
					<timebase>60</timebase>
					<ntsc>TRUE</ntsc>
					</rate>
					<width>1080</width>
					<height>1920</height>
					<anamorphic>FALSE</anamorphic>
					<pixelaspectratio>square</pixelaspectratio>
					<fielddominance>none</fielddominance>
					</samplecharacteristics>
					</video>
					</media>
					</file>
					<filter>
					<effect>
					<name></name>
					<effectid>GraphicAndType</effectid>
					<effectcategory>graphic</effectcategory>
					<effecttype>filter</effecttype>
					<mediatype>video</mediatype>
					<pproBypass>false</pproBypass>
					<parameter authoringApp="PremierePro">
					<parameterid>1</parameterid>
					<name></name>
					<hash>025b1101-ead6-0ca2-1feb-caf3000001fc</hash>
					<value>5AEAAAAAAABEMyIRDAAAAAAABgAKAAQABgAAAGQAAAAAAF4ASAAQAAwARABAADwAOAAAAAAAAAAAADQAMwAsAAAAKAAkACAAAAAAAAAAAAAAAAAAHAAAAAAAGgAAAAAAAAAUAAAAAAAAAAAAAAAAAAAAAAAAAAgAAAAAABsABwBeAAAAAAAAAUAAAABQAAAAbAAAAAIAAAAAAAEAAQAAAAAAQEEAAMBAAABAQAAAyEIAAAABIAAAAAIAAAACAAAAAAA2QwCASkTw/v//9P7///j+//8S////AAAAAAEAAAAEAAAAEQAAAEhHUFNvZWlLYWt1cG9wdGFpAAAAAQAAAAwAAAAIAAwABAAIAAgAAAAIAAAAUAAAAA8AAADvvIEAAAAAAAAAAAAAAAAAAAA2ACQAAAAgABwAAAAAABsAFAAAAAAAAAAAAAAAAAAAAAAAAAAAABAAAAAAAAAADAAAAAgABAA2AAAAAgAAABwAAAAcAAAAHAAAAAAAIEEAAAABaAAAAE3PAEOw////tP///wEAAAAUAAAAEAAaAAgABwAMAAAAEAAUABAAAAAAAAABHAAAAAAAoEEcAAAAAgAAAAAACgAIAAUABgAHAAoAAAAADAD//P///wQABAAEAAAACAAIAAYABwAIAAAAAAAMAA==</value>
					</parameter>
					<parameter authoringApp="PremierePro">
					<parameterid>2</parameterid>
					<name></name>
					<IsTimeVarying>false</IsTimeVarying>
					<ParameterControlType>11</ParameterControlType>
					<LowerBound>false</LowerBound>
					<UpperBound>false</UpperBound>
					<value>-91445760000000000,false,0,0,0,0,0,0</value>
					</parameter>
					<parameter authoringApp="PremierePro">
					<parameterid>3</parameterid>
					<name></name>
					<IsTimeVarying>false</IsTimeVarying>
					<value>-91445760000000000,0.5:0.5,0,0,0,0,0,0,5,4,0,0,0,0</value>
					</parameter>
					<parameter authoringApp="PremierePro">
					<parameterid>4</parameterid>
					<name></name>
					<IsTimeVarying>false</IsTimeVarying>
					<ParameterControlType>2</ParameterControlType>
					<LowerBound>0</LowerBound>
					<UpperBound>4000</UpperBound>
					<value>-91445760000000000,100.,0,0,0,0,0,0</value>
					</parameter>
					<parameter authoringApp="PremierePro">
					<parameterid>8</parameterid>
					<name></name>
					<IsTimeVarying>false</IsTimeVarying>
					<ParameterControlType>2</ParameterControlType>
					<LowerBound>0</LowerBound>
					<UpperBound>100</UpperBound>
					<value>-91445760000000000,100.,0,0,0,0,0,0</value>
					</parameter>
					</effect>
					</filter>
					<logginginfo>
					<description></description>
					<scene></scene>
					<shottake></shottake>
					<lognote></lognote>
					<good></good>
					<originalvideofilename></originalvideofilename>
					<originalaudiofilename></originalaudiofilename>
					</logginginfo>
					<colorinfo>
					<lut></lut>
					<lut1></lut1>
					<asc_sop></asc_sop>
					<asc_sat></asc_sat>
					<lut2></lut2>
					</colorinfo>
					<labels>
					</labels>
					</clipitem>
					<clipitem frameBlend="FALSE" id="clipitem-741">
					<masterclipid>masterclip-661</masterclipid>
					<name></name>
					<enabled>TRUE</enabled>
					<duration>2582774</duration>
					<rate>
					
					                                    <timebase>60</timebase>
					                                    <ntsc>TRUE</ntsc>
					                                
					</rate>
					<start>6466</start>
					<end>6532</end>
					<in>6466</in>
					<out>6532</out>
					<pproTicksIn>914456774963789</pproTicksIn>
					<pproTicksOut>914677708529577</pproTicksOut>
					<alphatype>straight</alphatype>
					<pixelaspectratio>square</pixelaspectratio>
					<anamorphic>FALSE</anamorphic>
					<file id="file-660">
					<name></name>
					<mediaSource>GraphicAndType</mediaSource>
					<rate>
					<timebase>60</timebase>
					<ntsc>TRUE</ntsc>
					</rate>
					<timecode>
					<rate>
					<timebase>60</timebase>
					<ntsc>TRUE</ntsc>
					</rate>
					<string>00:00:00:00</string>
					<frame>0</frame>
					<displayformat>NDF</displayformat>
					</timecode>
					<media>
					<video>
					<samplecharacteristics>
					<rate>
					<timebase>60</timebase>
					<ntsc>TRUE</ntsc>
					</rate>
					<width>1080</width>
					<height>1920</height>
					<anamorphic>FALSE</anamorphic>
					<pixelaspectratio>square</pixelaspectratio>
					<fielddominance>none</fielddominance>
					</samplecharacteristics>
					</video>
					</media>
					</file>
					<filter>
					<effect>
					<name></name>
					<effectid>GraphicAndType</effectid>
					<effectcategory>graphic</effectcategory>
					<effecttype>filter</effecttype>
					<mediatype>video</mediatype>
					<pproBypass>false</pproBypass>
					<parameter authoringApp="PremierePro">
					<parameterid>1</parameterid>
					<name></name>
					<hash>025b1101-ead6-0ca2-1feb-caf3000001fc</hash>
					<value>5AEAAAAAAABEMyIRDAAAAAAABgAKAAQABgAAAGQAAAAAAF4ASAAQAAwARABAADwAOAAAAAAAAAAAADQAMwAsAAAAKAAkACAAAAAAAAAAAAAAAAAAHAAAAAAAGgAAAAAAAAAUAAAAAAAAAAAAAAAAAAAAAAAAAAgAAAAAABsABwBeAAAAAAAAAUAAAABQAAAAbAAAAAIAAAAAAAEAAQAAAAAAQEEAAMBAAABAQAAAyEIAAAABIAAAAAIAAAACAAAAAAA2QwCASkTw/v//9P7///j+//8S////AAAAAAEAAAAEAAAAEQAAAEhHUFNvZWlLYWt1cG9wdGFpAAAAAQAAAAwAAAAIAAwABAAIAAgAAAAIAAAAUAAAAA8AAADvvIEAAAAAAAAAAAAAAAAAAAA2ACQAAAAgABwAAAAAABsAFAAAAAAAAAAAAAAAAAAAAAAAAAAAABAAAAAAAAAADAAAAAgABAA2AAAAAgAAABwAAAAcAAAAHAAAAAAAIEEAAAABaAAAAE3PAEOw////tP///wEAAAAUAAAAEAAaAAgABwAMAAAAEAAUABAAAAAAAAABHAAAAAAAoEEcAAAAAgAAAAAACgAIAAUABgAHAAoAAAAADAD//P///wQABAAEAAAACAAIAAYABwAIAAAAAAAMAA==</value>
					</parameter>
					<parameter authoringApp="PremierePro">
					<parameterid>2</parameterid>
					<name></name>
					<IsTimeVarying>false</IsTimeVarying>
					<ParameterControlType>11</ParameterControlType>
					<LowerBound>false</LowerBound>
					<UpperBound>false</UpperBound>
					<value>-91445760000000000,false,0,0,0,0,0,0</value>
					</parameter>
					<parameter authoringApp="PremierePro">
					<parameterid>3</parameterid>
					<name></name>
					<IsTimeVarying>false</IsTimeVarying>
					<value>-91445760000000000,0.5:0.5,0,0,0,0,0,0,5,4,0,0,0,0</value>
					</parameter>
					<parameter authoringApp="PremierePro">
					<parameterid>4</parameterid>
					<name></name>
					<IsTimeVarying>false</IsTimeVarying>
					<ParameterControlType>2</ParameterControlType>
					<LowerBound>0</LowerBound>
					<UpperBound>4000</UpperBound>
					<value>-91445760000000000,100.,0,0,0,0,0,0</value>
					</parameter>
					<parameter authoringApp="PremierePro">
					<parameterid>8</parameterid>
					<name></name>
					<IsTimeVarying>false</IsTimeVarying>
					<ParameterControlType>2</ParameterControlType>
					<LowerBound>0</LowerBound>
					<UpperBound>100</UpperBound>
					<value>-91445760000000000,100.,0,0,0,0,0,0</value>
					</parameter>
					</effect>
					</filter>
					<logginginfo>
					<description></description>
					<scene></scene>
					<shottake></shottake>
					<lognote></lognote>
					<good></good>
					<originalvideofilename></originalvideofilename>
					<originalaudiofilename></originalaudiofilename>
					</logginginfo>
					<colorinfo>
					<lut></lut>
					<lut1></lut1>
					<asc_sop></asc_sop>
					<asc_sat></asc_sat>
					<lut2></lut2>
					</colorinfo>
					<labels>
					</labels>
					</clipitem>
					<clipitem frameBlend="FALSE" id="clipitem-748">
					<masterclipid>masterclip-668</masterclipid>
					<name></name>
					<enabled>TRUE</enabled>
					<duration>2582774</duration>
					<rate>
					
					                                    <timebase>60</timebase>
					                                    <ntsc>TRUE</ntsc>
					                                
					</rate>
					<start>6556</start>
					<end>6622</end>
					<in>6556</in>
					<out>6622</out>
					<pproTicksIn>914456774963789</pproTicksIn>
					<pproTicksOut>914677708529577</pproTicksOut>
					<alphatype>straight</alphatype>
					<pixelaspectratio>square</pixelaspectratio>
					<anamorphic>FALSE</anamorphic>
					<file id="file-667">
					<name></name>
					<mediaSource>GraphicAndType</mediaSource>
					<rate>
					<timebase>60</timebase>
					<ntsc>TRUE</ntsc>
					</rate>
					<timecode>
					<rate>
					<timebase>60</timebase>
					<ntsc>TRUE</ntsc>
					</rate>
					<string>00:00:00:00</string>
					<frame>0</frame>
					<displayformat>NDF</displayformat>
					</timecode>
					<media>
					<video>
					<samplecharacteristics>
					<rate>
					<timebase>60</timebase>
					<ntsc>TRUE</ntsc>
					</rate>
					<width>1080</width>
					<height>1920</height>
					<anamorphic>FALSE</anamorphic>
					<pixelaspectratio>square</pixelaspectratio>
					<fielddominance>none</fielddominance>
					</samplecharacteristics>
					</video>
					</media>
					</file>
					<filter>
					<effect>
					<name></name>
					<effectid>GraphicAndType</effectid>
					<effectcategory>graphic</effectcategory>
					<effecttype>filter</effecttype>
					<mediatype>video</mediatype>
					<pproBypass>false</pproBypass>
					<parameter authoringApp="PremierePro">
					<parameterid>1</parameterid>
					<name></name>
					<hash>025b1101-ead6-0ca2-1feb-caf3000001fc</hash>
					<value>5AEAAAAAAABEMyIRDAAAAAAABgAKAAQABgAAAGQAAAAAAF4ASAAQAAwARABAADwAOAAAAAAAAAAAADQAMwAsAAAAKAAkACAAAAAAAAAAAAAAAAAAHAAAAAAAGgAAAAAAAAAUAAAAAAAAAAAAAAAAAAAAAAAAAAgAAAAAABsABwBeAAAAAAAAAUAAAABQAAAAbAAAAAIAAAAAAAEAAQAAAAAAQEEAAMBAAABAQAAAyEIAAAABIAAAAAIAAAACAAAAAAA2QwCASkTw/v//9P7///j+//8S////AAAAAAEAAAAEAAAAEQAAAEhHUFNvZWlLYWt1cG9wdGFpAAAAAQAAAAwAAAAIAAwABAAIAAgAAAAIAAAAUAAAAA8AAADvvIEAAAAAAAAAAAAAAAAAAAA2ACQAAAAgABwAAAAAABsAFAAAAAAAAAAAAAAAAAAAAAAAAAAAABAAAAAAAAAADAAAAAgABAA2AAAAAgAAABwAAAAcAAAAHAAAAAAAIEEAAAABaAAAAE3PAEOw////tP///wEAAAAUAAAAEAAaAAgABwAMAAAAEAAUABAAAAAAAAABHAAAAAAAoEEcAAAAAgAAAAAACgAIAAUABgAHAAoAAAAADAD//P///wQABAAEAAAACAAIAAYABwAIAAAAAAAMAA==</value>
					</parameter>
					<parameter authoringApp="PremierePro">
					<parameterid>2</parameterid>
					<name></name>
					<IsTimeVarying>false</IsTimeVarying>
					<ParameterControlType>11</ParameterControlType>
					<LowerBound>false</LowerBound>
					<UpperBound>false</UpperBound>
					<value>-91445760000000000,false,0,0,0,0,0,0</value>
					</parameter>
					<parameter authoringApp="PremierePro">
					<parameterid>3</parameterid>
					<name></name>
					<IsTimeVarying>false</IsTimeVarying>
					<value>-91445760000000000,0.5:0.5,0,0,0,0,0,0,5,4,0,0,0,0</value>
					</parameter>
					<parameter authoringApp="PremierePro">
					<parameterid>4</parameterid>
					<name></name>
					<IsTimeVarying>false</IsTimeVarying>
					<ParameterControlType>2</ParameterControlType>
					<LowerBound>0</LowerBound>
					<UpperBound>4000</UpperBound>
					<value>-91445760000000000,100.,0,0,0,0,0,0</value>
					</parameter>
					<parameter authoringApp="PremierePro">
					<parameterid>8</parameterid>
					<name></name>
					<IsTimeVarying>false</IsTimeVarying>
					<ParameterControlType>2</ParameterControlType>
					<LowerBound>0</LowerBound>
					<UpperBound>100</UpperBound>
					<value>-91445760000000000,100.,0,0,0,0,0,0</value>
					</parameter>
					</effect>
					</filter>
					<logginginfo>
					<description></description>
					<scene></scene>
					<shottake></shottake>
					<lognote></lognote>
					<good></good>
					<originalvideofilename></originalvideofilename>
					<originalaudiofilename></originalaudiofilename>
					</logginginfo>
					<colorinfo>
					<lut></lut>
					<lut1></lut1>
					<asc_sop></asc_sop>
					<asc_sat></asc_sat>
					<lut2></lut2>
					</colorinfo>
					<labels>
					</labels>
					</clipitem>
					<clipitem frameBlend="FALSE" id="clipitem-756">
					<masterclipid>masterclip-676</masterclipid>
					<name></name>
					<enabled>TRUE</enabled>
					<duration>2582774</duration>
					<rate>
					
					                                    <timebase>60</timebase>
					                                    <ntsc>TRUE</ntsc>
					                                
					</rate>
					<start>6646</start>
					<end>6706</end>
					<in>6646</in>
					<out>6706</out>
					<pproTicksIn>914456774963789</pproTicksIn>
					<pproTicksOut>914677708529577</pproTicksOut>
					<alphatype>straight</alphatype>
					<pixelaspectratio>square</pixelaspectratio>
					<anamorphic>FALSE</anamorphic>
					<file id="file-675">
					<name></name>
					<mediaSource>GraphicAndType</mediaSource>
					<rate>
					<timebase>60</timebase>
					<ntsc>TRUE</ntsc>
					</rate>
					<timecode>
					<rate>
					<timebase>60</timebase>
					<ntsc>TRUE</ntsc>
					</rate>
					<string>00:00:00:00</string>
					<frame>0</frame>
					<displayformat>NDF</displayformat>
					</timecode>
					<media>
					<video>
					<samplecharacteristics>
					<rate>
					<timebase>60</timebase>
					<ntsc>TRUE</ntsc>
					</rate>
					<width>1080</width>
					<height>1920</height>
					<anamorphic>FALSE</anamorphic>
					<pixelaspectratio>square</pixelaspectratio>
					<fielddominance>none</fielddominance>
					</samplecharacteristics>
					</video>
					</media>
					</file>
					<filter>
					<effect>
					<name></name>
					<effectid>GraphicAndType</effectid>
					<effectcategory>graphic</effectcategory>
					<effecttype>filter</effecttype>
					<mediatype>video</mediatype>
					<pproBypass>false</pproBypass>
					<parameter authoringApp="PremierePro">
					<parameterid>1</parameterid>
					<name></name>
					<hash>025b1101-ead6-0ca2-1feb-caf3000001fc</hash>
					<value>5AEAAAAAAABEMyIRDAAAAAAABgAKAAQABgAAAGQAAAAAAF4ASAAQAAwARABAADwAOAAAAAAAAAAAADQAMwAsAAAAKAAkACAAAAAAAAAAAAAAAAAAHAAAAAAAGgAAAAAAAAAUAAAAAAAAAAAAAAAAAAAAAAAAAAgAAAAAABsABwBeAAAAAAAAAUAAAABQAAAAbAAAAAIAAAAAAAEAAQAAAAAAQEEAAMBAAABAQAAAyEIAAAABIAAAAAIAAAACAAAAAAA2QwCASkTw/v//9P7///j+//8S////AAAAAAEAAAAEAAAAEQAAAEhHUFNvZWlLYWt1cG9wdGFpAAAAAQAAAAwAAAAIAAwABAAIAAgAAAAIAAAAUAAAAA8AAADvvIEAAAAAAAAAAAAAAAAAAAA2ACQAAAAgABwAAAAAABsAFAAAAAAAAAAAAAAAAAAAAAAAAAAAABAAAAAAAAAADAAAAAgABAA2AAAAAgAAABwAAAAcAAAAHAAAAAAAIEEAAAABaAAAAE3PAEOw////tP///wEAAAAUAAAAEAAaAAgABwAMAAAAEAAUABAAAAAAAAABHAAAAAAAoEEcAAAAAgAAAAAACgAIAAUABgAHAAoAAAAADAD//P///wQABAAEAAAACAAIAAYABwAIAAAAAAAMAA==</value>
					</parameter>
					<parameter authoringApp="PremierePro">
					<parameterid>2</parameterid>
					<name></name>
					<IsTimeVarying>false</IsTimeVarying>
					<ParameterControlType>11</ParameterControlType>
					<LowerBound>false</LowerBound>
					<UpperBound>false</UpperBound>
					<value>-91445760000000000,false,0,0,0,0,0,0</value>
					</parameter>
					<parameter authoringApp="PremierePro">
					<parameterid>3</parameterid>
					<name></name>
					<IsTimeVarying>false</IsTimeVarying>
					<value>-91445760000000000,0.5:0.5,0,0,0,0,0,0,5,4,0,0,0,0</value>
					</parameter>
					<parameter authoringApp="PremierePro">
					<parameterid>4</parameterid>
					<name></name>
					<IsTimeVarying>false</IsTimeVarying>
					<ParameterControlType>2</ParameterControlType>
					<LowerBound>0</LowerBound>
					<UpperBound>4000</UpperBound>
					<value>-91445760000000000,100.,0,0,0,0,0,0</value>
					</parameter>
					<parameter authoringApp="PremierePro">
					<parameterid>8</parameterid>
					<name></name>
					<IsTimeVarying>false</IsTimeVarying>
					<ParameterControlType>2</ParameterControlType>
					<LowerBound>0</LowerBound>
					<UpperBound>100</UpperBound>
					<value>-91445760000000000,100.,0,0,0,0,0,0</value>
					</parameter>
					</effect>
					</filter>
					<logginginfo>
					<description></description>
					<scene></scene>
					<shottake></shottake>
					<lognote></lognote>
					<good></good>
					<originalvideofilename></originalvideofilename>
					<originalaudiofilename></originalaudiofilename>
					</logginginfo>
					<colorinfo>
					<lut></lut>
					<lut1></lut1>
					<asc_sop></asc_sop>
					<asc_sat></asc_sat>
					<lut2></lut2>
					</colorinfo>
					<labels>
					</labels>
					</clipitem>
					<clipitem frameBlend="FALSE" id="clipitem-763">
					<masterclipid>masterclip-683</masterclipid>
					<name></name>
					<enabled>TRUE</enabled>
					<duration>2582774</duration>
					<rate>
					
					                                    <timebase>60</timebase>
					                                    <ntsc>TRUE</ntsc>
					                                
					</rate>
					<start>6772</start>
					<end>6832</end>
					<in>6772</in>
					<out>6832</out>
					<pproTicksIn>914456774963789</pproTicksIn>
					<pproTicksOut>914677708529577</pproTicksOut>
					<alphatype>straight</alphatype>
					<pixelaspectratio>square</pixelaspectratio>
					<anamorphic>FALSE</anamorphic>
					<file id="file-682">
					<name></name>
					<mediaSource>GraphicAndType</mediaSource>
					<rate>
					<timebase>60</timebase>
					<ntsc>TRUE</ntsc>
					</rate>
					<timecode>
					<rate>
					<timebase>60</timebase>
					<ntsc>TRUE</ntsc>
					</rate>
					<string>00:00:00:00</string>
					<frame>0</frame>
					<displayformat>NDF</displayformat>
					</timecode>
					<media>
					<video>
					<samplecharacteristics>
					<rate>
					<timebase>60</timebase>
					<ntsc>TRUE</ntsc>
					</rate>
					<width>1080</width>
					<height>1920</height>
					<anamorphic>FALSE</anamorphic>
					<pixelaspectratio>square</pixelaspectratio>
					<fielddominance>none</fielddominance>
					</samplecharacteristics>
					</video>
					</media>
					</file>
					<filter>
					<effect>
					<name></name>
					<effectid>GraphicAndType</effectid>
					<effectcategory>graphic</effectcategory>
					<effecttype>filter</effecttype>
					<mediatype>video</mediatype>
					<pproBypass>false</pproBypass>
					<parameter authoringApp="PremierePro">
					<parameterid>1</parameterid>
					<name></name>
					<hash>025b1101-ead6-0ca2-1feb-caf3000001fc</hash>
					<value>5AEAAAAAAABEMyIRDAAAAAAABgAKAAQABgAAAGQAAAAAAF4ASAAQAAwARABAADwAOAAAAAAAAAAAADQAMwAsAAAAKAAkACAAAAAAAAAAAAAAAAAAHAAAAAAAGgAAAAAAAAAUAAAAAAAAAAAAAAAAAAAAAAAAAAgAAAAAABsABwBeAAAAAAAAAUAAAABQAAAAbAAAAAIAAAAAAAEAAQAAAAAAQEEAAMBAAABAQAAAyEIAAAABIAAAAAIAAAACAAAAAAA2QwCASkTw/v//9P7///j+//8S////AAAAAAEAAAAEAAAAEQAAAEhHUFNvZWlLYWt1cG9wdGFpAAAAAQAAAAwAAAAIAAwABAAIAAgAAAAIAAAAUAAAAA8AAADvvIEAAAAAAAAAAAAAAAAAAAA2ACQAAAAgABwAAAAAABsAFAAAAAAAAAAAAAAAAAAAAAAAAAAAABAAAAAAAAAADAAAAAgABAA2AAAAAgAAABwAAAAcAAAAHAAAAAAAIEEAAAABaAAAAE3PAEOw////tP///wEAAAAUAAAAEAAaAAgABwAMAAAAEAAUABAAAAAAAAABHAAAAAAAoEEcAAAAAgAAAAAACgAIAAUABgAHAAoAAAAADAD//P///wQABAAEAAAACAAIAAYABwAIAAAAAAAMAA==</value>
					</parameter>
					<parameter authoringApp="PremierePro">
					<parameterid>2</parameterid>
					<name></name>
					<IsTimeVarying>false</IsTimeVarying>
					<ParameterControlType>11</ParameterControlType>
					<LowerBound>false</LowerBound>
					<UpperBound>false</UpperBound>
					<value>-91445760000000000,false,0,0,0,0,0,0</value>
					</parameter>
					<parameter authoringApp="PremierePro">
					<parameterid>3</parameterid>
					<name></name>
					<IsTimeVarying>false</IsTimeVarying>
					<value>-91445760000000000,0.5:0.5,0,0,0,0,0,0,5,4,0,0,0,0</value>
					</parameter>
					<parameter authoringApp="PremierePro">
					<parameterid>4</parameterid>
					<name></name>
					<IsTimeVarying>false</IsTimeVarying>
					<ParameterControlType>2</ParameterControlType>
					<LowerBound>0</LowerBound>
					<UpperBound>4000</UpperBound>
					<value>-91445760000000000,100.,0,0,0,0,0,0</value>
					</parameter>
					<parameter authoringApp="PremierePro">
					<parameterid>8</parameterid>
					<name></name>
					<IsTimeVarying>false</IsTimeVarying>
					<ParameterControlType>2</ParameterControlType>
					<LowerBound>0</LowerBound>
					<UpperBound>100</UpperBound>
					<value>-91445760000000000,100.,0,0,0,0,0,0</value>
					</parameter>
					</effect>
					</filter>
					<logginginfo>
					<description></description>
					<scene></scene>
					<shottake></shottake>
					<lognote></lognote>
					<good></good>
					<originalvideofilename></originalvideofilename>
					<originalaudiofilename></originalaudiofilename>
					</logginginfo>
					<colorinfo>
					<lut></lut>
					<lut1></lut1>
					<asc_sop></asc_sop>
					<asc_sat></asc_sat>
					<lut2></lut2>
					</colorinfo>
					<labels>
					</labels>
					</clipitem>
					<clipitem frameBlend="FALSE" id="clipitem-771">
					<masterclipid>masterclip-691</masterclipid>
					<name></name>
					<enabled>TRUE</enabled>
					<duration>2582774</duration>
					<rate>
					
					                                    <timebase>60</timebase>
					                                    <ntsc>TRUE</ntsc>
					                                
					</rate>
					<start>6892</start>
					<end>6952</end>
					<in>6892</in>
					<out>6952</out>
					<pproTicksIn>914456774963789</pproTicksIn>
					<pproTicksOut>914677708529577</pproTicksOut>
					<alphatype>straight</alphatype>
					<pixelaspectratio>square</pixelaspectratio>
					<anamorphic>FALSE</anamorphic>
					<file id="file-690">
					<name></name>
					<mediaSource>GraphicAndType</mediaSource>
					<rate>
					<timebase>60</timebase>
					<ntsc>TRUE</ntsc>
					</rate>
					<timecode>
					<rate>
					<timebase>60</timebase>
					<ntsc>TRUE</ntsc>
					</rate>
					<string>00:00:00:00</string>
					<frame>0</frame>
					<displayformat>NDF</displayformat>
					</timecode>
					<media>
					<video>
					<samplecharacteristics>
					<rate>
					<timebase>60</timebase>
					<ntsc>TRUE</ntsc>
					</rate>
					<width>1080</width>
					<height>1920</height>
					<anamorphic>FALSE</anamorphic>
					<pixelaspectratio>square</pixelaspectratio>
					<fielddominance>none</fielddominance>
					</samplecharacteristics>
					</video>
					</media>
					</file>
					<filter>
					<effect>
					<name></name>
					<effectid>GraphicAndType</effectid>
					<effectcategory>graphic</effectcategory>
					<effecttype>filter</effecttype>
					<mediatype>video</mediatype>
					<pproBypass>false</pproBypass>
					<parameter authoringApp="PremierePro">
					<parameterid>1</parameterid>
					<name></name>
					<hash>025b1101-ead6-0ca2-1feb-caf3000001fc</hash>
					<value>5AEAAAAAAABEMyIRDAAAAAAABgAKAAQABgAAAGQAAAAAAF4ASAAQAAwARABAADwAOAAAAAAAAAAAADQAMwAsAAAAKAAkACAAAAAAAAAAAAAAAAAAHAAAAAAAGgAAAAAAAAAUAAAAAAAAAAAAAAAAAAAAAAAAAAgAAAAAABsABwBeAAAAAAAAAUAAAABQAAAAbAAAAAIAAAAAAAEAAQAAAAAAQEEAAMBAAABAQAAAyEIAAAABIAAAAAIAAAACAAAAAAA2QwCASkTw/v//9P7///j+//8S////AAAAAAEAAAAEAAAAEQAAAEhHUFNvZWlLYWt1cG9wdGFpAAAAAQAAAAwAAAAIAAwABAAIAAgAAAAIAAAAUAAAAA8AAADvvIEAAAAAAAAAAAAAAAAAAAA2ACQAAAAgABwAAAAAABsAFAAAAAAAAAAAAAAAAAAAAAAAAAAAABAAAAAAAAAADAAAAAgABAA2AAAAAgAAABwAAAAcAAAAHAAAAAAAIEEAAAABaAAAAE3PAEOw////tP///wEAAAAUAAAAEAAaAAgABwAMAAAAEAAUABAAAAAAAAABHAAAAAAAoEEcAAAAAgAAAAAACgAIAAUABgAHAAoAAAAADAD//P///wQABAAEAAAACAAIAAYABwAIAAAAAAAMAA==</value>
					</parameter>
					<parameter authoringApp="PremierePro">
					<parameterid>2</parameterid>
					<name></name>
					<IsTimeVarying>false</IsTimeVarying>
					<ParameterControlType>11</ParameterControlType>
					<LowerBound>false</LowerBound>
					<UpperBound>false</UpperBound>
					<value>-91445760000000000,false,0,0,0,0,0,0</value>
					</parameter>
					<parameter authoringApp="PremierePro">
					<parameterid>3</parameterid>
					<name></name>
					<IsTimeVarying>false</IsTimeVarying>
					<value>-91445760000000000,0.5:0.5,0,0,0,0,0,0,5,4,0,0,0,0</value>
					</parameter>
					<parameter authoringApp="PremierePro">
					<parameterid>4</parameterid>
					<name></name>
					<IsTimeVarying>false</IsTimeVarying>
					<ParameterControlType>2</ParameterControlType>
					<LowerBound>0</LowerBound>
					<UpperBound>4000</UpperBound>
					<value>-91445760000000000,100.,0,0,0,0,0,0</value>
					</parameter>
					<parameter authoringApp="PremierePro">
					<parameterid>8</parameterid>
					<name></name>
					<IsTimeVarying>false</IsTimeVarying>
					<ParameterControlType>2</ParameterControlType>
					<LowerBound>0</LowerBound>
					<UpperBound>100</UpperBound>
					<value>-91445760000000000,100.,0,0,0,0,0,0</value>
					</parameter>
					</effect>
					</filter>
					<logginginfo>
					<description></description>
					<scene></scene>
					<shottake></shottake>
					<lognote></lognote>
					<good></good>
					<originalvideofilename></originalvideofilename>
					<originalaudiofilename></originalaudiofilename>
					</logginginfo>
					<colorinfo>
					<lut></lut>
					<lut1></lut1>
					<asc_sop></asc_sop>
					<asc_sat></asc_sat>
					<lut2></lut2>
					</colorinfo>
					<labels>
					</labels>
					</clipitem>
					<clipitem frameBlend="FALSE" id="clipitem-782">
					<masterclipid>masterclip-702</masterclipid>
					<name></name>
					<enabled>TRUE</enabled>
					<duration>2582774</duration>
					<rate>
					
					                                    <timebase>60</timebase>
					                                    <ntsc>TRUE</ntsc>
					                                
					</rate>
					<start>6976</start>
					<end>7036</end>
					<in>6976</in>
					<out>7036</out>
					<pproTicksIn>914456774963789</pproTicksIn>
					<pproTicksOut>914677708529577</pproTicksOut>
					<alphatype>straight</alphatype>
					<pixelaspectratio>square</pixelaspectratio>
					<anamorphic>FALSE</anamorphic>
					<file id="file-701">
					<name></name>
					<mediaSource>GraphicAndType</mediaSource>
					<rate>
					<timebase>60</timebase>
					<ntsc>TRUE</ntsc>
					</rate>
					<timecode>
					<rate>
					<timebase>60</timebase>
					<ntsc>TRUE</ntsc>
					</rate>
					<string>00:00:00:00</string>
					<frame>0</frame>
					<displayformat>NDF</displayformat>
					</timecode>
					<media>
					<video>
					<samplecharacteristics>
					<rate>
					<timebase>60</timebase>
					<ntsc>TRUE</ntsc>
					</rate>
					<width>1080</width>
					<height>1920</height>
					<anamorphic>FALSE</anamorphic>
					<pixelaspectratio>square</pixelaspectratio>
					<fielddominance>none</fielddominance>
					</samplecharacteristics>
					</video>
					</media>
					</file>
					<filter>
					<effect>
					<name></name>
					<effectid>GraphicAndType</effectid>
					<effectcategory>graphic</effectcategory>
					<effecttype>filter</effecttype>
					<mediatype>video</mediatype>
					<pproBypass>false</pproBypass>
					<parameter authoringApp="PremierePro">
					<parameterid>1</parameterid>
					<name></name>
					<hash>025b1101-ead6-0ca2-1feb-caf3000001fc</hash>
					<value>5AEAAAAAAABEMyIRDAAAAAAABgAKAAQABgAAAGQAAAAAAF4ASAAQAAwARABAADwAOAAAAAAAAAAAADQAMwAsAAAAKAAkACAAAAAAAAAAAAAAAAAAHAAAAAAAGgAAAAAAAAAUAAAAAAAAAAAAAAAAAAAAAAAAAAgAAAAAABsABwBeAAAAAAAAAUAAAABQAAAAbAAAAAIAAAAAAAEAAQAAAAAAQEEAAMBAAABAQAAAyEIAAAABIAAAAAIAAAACAAAAAAA2QwCASkTw/v//9P7///j+//8S////AAAAAAEAAAAEAAAAEQAAAEhHUFNvZWlLYWt1cG9wdGFpAAAAAQAAAAwAAAAIAAwABAAIAAgAAAAIAAAAUAAAAA8AAADvvIEAAAAAAAAAAAAAAAAAAAA2ACQAAAAgABwAAAAAABsAFAAAAAAAAAAAAAAAAAAAAAAAAAAAABAAAAAAAAAADAAAAAgABAA2AAAAAgAAABwAAAAcAAAAHAAAAAAAIEEAAAABaAAAAE3PAEOw////tP///wEAAAAUAAAAEAAaAAgABwAMAAAAEAAUABAAAAAAAAABHAAAAAAAoEEcAAAAAgAAAAAACgAIAAUABgAHAAoAAAAADAD//P///wQABAAEAAAACAAIAAYABwAIAAAAAAAMAA==</value>
					</parameter>
					<parameter authoringApp="PremierePro">
					<parameterid>2</parameterid>
					<name></name>
					<IsTimeVarying>false</IsTimeVarying>
					<ParameterControlType>11</ParameterControlType>
					<LowerBound>false</LowerBound>
					<UpperBound>false</UpperBound>
					<value>-91445760000000000,false,0,0,0,0,0,0</value>
					</parameter>
					<parameter authoringApp="PremierePro">
					<parameterid>3</parameterid>
					<name></name>
					<IsTimeVarying>false</IsTimeVarying>
					<value>-91445760000000000,0.5:0.5,0,0,0,0,0,0,5,4,0,0,0,0</value>
					</parameter>
					<parameter authoringApp="PremierePro">
					<parameterid>4</parameterid>
					<name></name>
					<IsTimeVarying>false</IsTimeVarying>
					<ParameterControlType>2</ParameterControlType>
					<LowerBound>0</LowerBound>
					<UpperBound>4000</UpperBound>
					<value>-91445760000000000,100.,0,0,0,0,0,0</value>
					</parameter>
					<parameter authoringApp="PremierePro">
					<parameterid>8</parameterid>
					<name></name>
					<IsTimeVarying>false</IsTimeVarying>
					<ParameterControlType>2</ParameterControlType>
					<LowerBound>0</LowerBound>
					<UpperBound>100</UpperBound>
					<value>-91445760000000000,100.,0,0,0,0,0,0</value>
					</parameter>
					</effect>
					</filter>
					<logginginfo>
					<description></description>
					<scene></scene>
					<shottake></shottake>
					<lognote></lognote>
					<good></good>
					<originalvideofilename></originalvideofilename>
					<originalaudiofilename></originalaudiofilename>
					</logginginfo>
					<colorinfo>
					<lut></lut>
					<lut1></lut1>
					<asc_sop></asc_sop>
					<asc_sat></asc_sat>
					<lut2></lut2>
					</colorinfo>
					<labels>
					</labels>
					</clipitem>
					<enabled>TRUE</enabled>
					<locked>FALSE</locked>
				</track>
				<track TL.SQTrackShy="0" TL.SQTrackExpandedHeight="25" TL.SQTrackExpanded="0" MZ.TrackTargeted="0">
					<clipitem frameBlend="FALSE" id="clipitem-125">
					<masterclipid>masterclip-45</masterclipid>
					<name></name>
					<enabled>TRUE</enabled>
					<duration>2582774</duration>
					<rate>
					
					                                    <timebase>60</timebase>
					                                    <ntsc>TRUE</ntsc>
					                                
					</rate>
					<start>89</start>
					<end>149</end>
					<in>89</in>
					<out>149</out>
					<pproTicksIn>914456774963789</pproTicksIn>
					<pproTicksOut>914677708529577</pproTicksOut>
					<alphatype>straight</alphatype>
					<pixelaspectratio>square</pixelaspectratio>
					<anamorphic>FALSE</anamorphic>
					<file id="file-44">
					<name></name>
					<mediaSource>GraphicAndType</mediaSource>
					<rate>
					<timebase>60</timebase>
					<ntsc>TRUE</ntsc>
					</rate>
					<timecode>
					<rate>
					<timebase>60</timebase>
					<ntsc>TRUE</ntsc>
					</rate>
					<string>00:00:00:00</string>
					<frame>0</frame>
					<displayformat>NDF</displayformat>
					</timecode>
					<media>
					<video>
					<samplecharacteristics>
					<rate>
					<timebase>60</timebase>
					<ntsc>TRUE</ntsc>
					</rate>
					<width>1080</width>
					<height>1920</height>
					<anamorphic>FALSE</anamorphic>
					<pixelaspectratio>square</pixelaspectratio>
					<fielddominance>none</fielddominance>
					</samplecharacteristics>
					</video>
					</media>
					</file>
					<filter>
					<effect>
					<name></name>
					<effectid>GraphicAndType</effectid>
					<effectcategory>graphic</effectcategory>
					<effecttype>filter</effecttype>
					<mediatype>video</mediatype>
					<pproBypass>false</pproBypass>
					<parameter authoringApp="PremierePro">
					<parameterid>1</parameterid>
					<name></name>
					<hash>025b1101-ead6-0ca2-1feb-caf3000001fc</hash>
					<value>5AEAAAAAAABEMyIRDAAAAAAABgAKAAQABgAAAGQAAAAAAF4ASAAQAAwARABAADwAOAAAAAAAAAAAADQAMwAsAAAAKAAkACAAAAAAAAAAAAAAAAAAHAAAAAAAGgAAAAAAAAAUAAAAAAAAAAAAAAAAAAAAAAAAAAgAAAAAABsABwBeAAAAAAAAAUAAAABQAAAAbAAAAAIAAAAAAAEAAQAAAAAAQEEAAMBAAABAQAAAyEIAAAABIAAAAAIAAAACAAAAAAA2QwCASkTw/v//9P7///j+//8S////AAAAAAEAAAAEAAAAEQAAAEhHUFNvZWlLYWt1cG9wdGFpAAAAAQAAAAwAAAAIAAwABAAIAAgAAAAIAAAAUAAAAA8AAADvvIEAAAAAAAAAAAAAAAAAAAA2ACQAAAAgABwAAAAAABsAFAAAAAAAAAAAAAAAAAAAAAAAAAAAABAAAAAAAAAADAAAAAgABAA2AAAAAgAAABwAAAAcAAAAHAAAAAAAIEEAAAABaAAAAE3PAEOw////tP///wEAAAAUAAAAEAAaAAgABwAMAAAAEAAUABAAAAAAAAABHAAAAAAAoEEcAAAAAgAAAAAACgAIAAUABgAHAAoAAAAADAD//P///wQABAAEAAAACAAIAAYABwAIAAAAAAAMAA==</value>
					</parameter>
					<parameter authoringApp="PremierePro">
					<parameterid>2</parameterid>
					<name></name>
					<IsTimeVarying>false</IsTimeVarying>
					<ParameterControlType>11</ParameterControlType>
					<LowerBound>false</LowerBound>
					<UpperBound>false</UpperBound>
					<value>-91445760000000000,false,0,0,0,0,0,0</value>
					</parameter>
					<parameter authoringApp="PremierePro">
					<parameterid>3</parameterid>
					<name></name>
					<IsTimeVarying>false</IsTimeVarying>
					<value>-91445760000000000,0.5:0.5,0,0,0,0,0,0,5,4,0,0,0,0</value>
					</parameter>
					<parameter authoringApp="PremierePro">
					<parameterid>4</parameterid>
					<name></name>
					<IsTimeVarying>false</IsTimeVarying>
					<ParameterControlType>2</ParameterControlType>
					<LowerBound>0</LowerBound>
					<UpperBound>4000</UpperBound>
					<value>-91445760000000000,100.,0,0,0,0,0,0</value>
					</parameter>
					<parameter authoringApp="PremierePro">
					<parameterid>8</parameterid>
					<name></name>
					<IsTimeVarying>false</IsTimeVarying>
					<ParameterControlType>2</ParameterControlType>
					<LowerBound>0</LowerBound>
					<UpperBound>100</UpperBound>
					<value>-91445760000000000,100.,0,0,0,0,0,0</value>
					</parameter>
					</effect>
					</filter>
					<logginginfo>
					<description></description>
					<scene></scene>
					<shottake></shottake>
					<lognote></lognote>
					<good></good>
					<originalvideofilename></originalvideofilename>
					<originalaudiofilename></originalaudiofilename>
					</logginginfo>
					<colorinfo>
					<lut></lut>
					<lut1></lut1>
					<asc_sop></asc_sop>
					<asc_sat></asc_sat>
					<lut2></lut2>
					</colorinfo>
					<labels>
					</labels>
					</clipitem>
					<clipitem frameBlend="FALSE" id="clipitem-132">
					<masterclipid>masterclip-52</masterclipid>
					<name></name>
					<enabled>TRUE</enabled>
					<duration>2582774</duration>
					<rate>
					
					                                    <timebase>60</timebase>
					                                    <ntsc>TRUE</ntsc>
					                                
					</rate>
					<start>149</start>
					<end>209</end>
					<in>149</in>
					<out>209</out>
					<pproTicksIn>914456774963789</pproTicksIn>
					<pproTicksOut>914677708529577</pproTicksOut>
					<alphatype>straight</alphatype>
					<pixelaspectratio>square</pixelaspectratio>
					<anamorphic>FALSE</anamorphic>
					<file id="file-51">
					<name></name>
					<mediaSource>GraphicAndType</mediaSource>
					<rate>
					<timebase>60</timebase>
					<ntsc>TRUE</ntsc>
					</rate>
					<timecode>
					<rate>
					<timebase>60</timebase>
					<ntsc>TRUE</ntsc>
					</rate>
					<string>00:00:00:00</string>
					<frame>0</frame>
					<displayformat>NDF</displayformat>
					</timecode>
					<media>
					<video>
					<samplecharacteristics>
					<rate>
					<timebase>60</timebase>
					<ntsc>TRUE</ntsc>
					</rate>
					<width>1080</width>
					<height>1920</height>
					<anamorphic>FALSE</anamorphic>
					<pixelaspectratio>square</pixelaspectratio>
					<fielddominance>none</fielddominance>
					</samplecharacteristics>
					</video>
					</media>
					</file>
					<filter>
					<effect>
					<name></name>
					<effectid>GraphicAndType</effectid>
					<effectcategory>graphic</effectcategory>
					<effecttype>filter</effecttype>
					<mediatype>video</mediatype>
					<pproBypass>false</pproBypass>
					<parameter authoringApp="PremierePro">
					<parameterid>1</parameterid>
					<name></name>
					<hash>025b1101-ead6-0ca2-1feb-caf3000001fc</hash>
					<value>5AEAAAAAAABEMyIRDAAAAAAABgAKAAQABgAAAGQAAAAAAF4ASAAQAAwARABAADwAOAAAAAAAAAAAADQAMwAsAAAAKAAkACAAAAAAAAAAAAAAAAAAHAAAAAAAGgAAAAAAAAAUAAAAAAAAAAAAAAAAAAAAAAAAAAgAAAAAABsABwBeAAAAAAAAAUAAAABQAAAAbAAAAAIAAAAAAAEAAQAAAAAAQEEAAMBAAABAQAAAyEIAAAABIAAAAAIAAAACAAAAAAA2QwCASkTw/v//9P7///j+//8S////AAAAAAEAAAAEAAAAEQAAAEhHUFNvZWlLYWt1cG9wdGFpAAAAAQAAAAwAAAAIAAwABAAIAAgAAAAIAAAAUAAAAA8AAADvvIEAAAAAAAAAAAAAAAAAAAA2ACQAAAAgABwAAAAAABsAFAAAAAAAAAAAAAAAAAAAAAAAAAAAABAAAAAAAAAADAAAAAgABAA2AAAAAgAAABwAAAAcAAAAHAAAAAAAIEEAAAABaAAAAE3PAEOw////tP///wEAAAAUAAAAEAAaAAgABwAMAAAAEAAUABAAAAAAAAABHAAAAAAAoEEcAAAAAgAAAAAACgAIAAUABgAHAAoAAAAADAD//P///wQABAAEAAAACAAIAAYABwAIAAAAAAAMAA==</value>
					</parameter>
					<parameter authoringApp="PremierePro">
					<parameterid>2</parameterid>
					<name></name>
					<IsTimeVarying>false</IsTimeVarying>
					<ParameterControlType>11</ParameterControlType>
					<LowerBound>false</LowerBound>
					<UpperBound>false</UpperBound>
					<value>-91445760000000000,false,0,0,0,0,0,0</value>
					</parameter>
					<parameter authoringApp="PremierePro">
					<parameterid>3</parameterid>
					<name></name>
					<IsTimeVarying>false</IsTimeVarying>
					<value>-91445760000000000,0.5:0.5,0,0,0,0,0,0,5,4,0,0,0,0</value>
					</parameter>
					<parameter authoringApp="PremierePro">
					<parameterid>4</parameterid>
					<name></name>
					<IsTimeVarying>false</IsTimeVarying>
					<ParameterControlType>2</ParameterControlType>
					<LowerBound>0</LowerBound>
					<UpperBound>4000</UpperBound>
					<value>-91445760000000000,100.,0,0,0,0,0,0</value>
					</parameter>
					<parameter authoringApp="PremierePro">
					<parameterid>8</parameterid>
					<name></name>
					<IsTimeVarying>false</IsTimeVarying>
					<ParameterControlType>2</ParameterControlType>
					<LowerBound>0</LowerBound>
					<UpperBound>100</UpperBound>
					<value>-91445760000000000,100.,0,0,0,0,0,0</value>
					</parameter>
					</effect>
					</filter>
					<logginginfo>
					<description></description>
					<scene></scene>
					<shottake></shottake>
					<lognote></lognote>
					<good></good>
					<originalvideofilename></originalvideofilename>
					<originalaudiofilename></originalaudiofilename>
					</logginginfo>
					<colorinfo>
					<lut></lut>
					<lut1></lut1>
					<asc_sop></asc_sop>
					<asc_sat></asc_sat>
					<lut2></lut2>
					</colorinfo>
					<labels>
					</labels>
					</clipitem>
					<clipitem frameBlend="FALSE" id="clipitem-139">
					<masterclipid>masterclip-59</masterclipid>
					<name></name>
					<enabled>TRUE</enabled>
					<duration>2582774</duration>
					<rate>
					
					                                    <timebase>60</timebase>
					                                    <ntsc>TRUE</ntsc>
					                                
					</rate>
					<start>251</start>
					<end>311</end>
					<in>251</in>
					<out>311</out>
					<pproTicksIn>914456774963789</pproTicksIn>
					<pproTicksOut>914677708529577</pproTicksOut>
					<alphatype>straight</alphatype>
					<pixelaspectratio>square</pixelaspectratio>
					<anamorphic>FALSE</anamorphic>
					<file id="file-58">
					<name></name>
					<mediaSource>GraphicAndType</mediaSource>
					<rate>
					<timebase>60</timebase>
					<ntsc>TRUE</ntsc>
					</rate>
					<timecode>
					<rate>
					<timebase>60</timebase>
					<ntsc>TRUE</ntsc>
					</rate>
					<string>00:00:00:00</string>
					<frame>0</frame>
					<displayformat>NDF</displayformat>
					</timecode>
					<media>
					<video>
					<samplecharacteristics>
					<rate>
					<timebase>60</timebase>
					<ntsc>TRUE</ntsc>
					</rate>
					<width>1080</width>
					<height>1920</height>
					<anamorphic>FALSE</anamorphic>
					<pixelaspectratio>square</pixelaspectratio>
					<fielddominance>none</fielddominance>
					</samplecharacteristics>
					</video>
					</media>
					</file>
					<filter>
					<effect>
					<name></name>
					<effectid>GraphicAndType</effectid>
					<effectcategory>graphic</effectcategory>
					<effecttype>filter</effecttype>
					<mediatype>video</mediatype>
					<pproBypass>false</pproBypass>
					<parameter authoringApp="PremierePro">
					<parameterid>1</parameterid>
					<name></name>
					<hash>025b1101-ead6-0ca2-1feb-caf3000001fc</hash>
					<value>5AEAAAAAAABEMyIRDAAAAAAABgAKAAQABgAAAGQAAAAAAF4ASAAQAAwARABAADwAOAAAAAAAAAAAADQAMwAsAAAAKAAkACAAAAAAAAAAAAAAAAAAHAAAAAAAGgAAAAAAAAAUAAAAAAAAAAAAAAAAAAAAAAAAAAgAAAAAABsABwBeAAAAAAAAAUAAAABQAAAAbAAAAAIAAAAAAAEAAQAAAAAAQEEAAMBAAABAQAAAyEIAAAABIAAAAAIAAAACAAAAAAA2QwCASkTw/v//9P7///j+//8S////AAAAAAEAAAAEAAAAEQAAAEhHUFNvZWlLYWt1cG9wdGFpAAAAAQAAAAwAAAAIAAwABAAIAAgAAAAIAAAAUAAAAA8AAADvvIEAAAAAAAAAAAAAAAAAAAA2ACQAAAAgABwAAAAAABsAFAAAAAAAAAAAAAAAAAAAAAAAAAAAABAAAAAAAAAADAAAAAgABAA2AAAAAgAAABwAAAAcAAAAHAAAAAAAIEEAAAABaAAAAE3PAEOw////tP///wEAAAAUAAAAEAAaAAgABwAMAAAAEAAUABAAAAAAAAABHAAAAAAAoEEcAAAAAgAAAAAACgAIAAUABgAHAAoAAAAADAD//P///wQABAAEAAAACAAIAAYABwAIAAAAAAAMAA==</value>
					</parameter>
					<parameter authoringApp="PremierePro">
					<parameterid>2</parameterid>
					<name></name>
					<IsTimeVarying>false</IsTimeVarying>
					<ParameterControlType>11</ParameterControlType>
					<LowerBound>false</LowerBound>
					<UpperBound>false</UpperBound>
					<value>-91445760000000000,false,0,0,0,0,0,0</value>
					</parameter>
					<parameter authoringApp="PremierePro">
					<parameterid>3</parameterid>
					<name></name>
					<IsTimeVarying>false</IsTimeVarying>
					<value>-91445760000000000,0.5:0.5,0,0,0,0,0,0,5,4,0,0,0,0</value>
					</parameter>
					<parameter authoringApp="PremierePro">
					<parameterid>4</parameterid>
					<name></name>
					<IsTimeVarying>false</IsTimeVarying>
					<ParameterControlType>2</ParameterControlType>
					<LowerBound>0</LowerBound>
					<UpperBound>4000</UpperBound>
					<value>-91445760000000000,100.,0,0,0,0,0,0</value>
					</parameter>
					<parameter authoringApp="PremierePro">
					<parameterid>8</parameterid>
					<name></name>
					<IsTimeVarying>false</IsTimeVarying>
					<ParameterControlType>2</ParameterControlType>
					<LowerBound>0</LowerBound>
					<UpperBound>100</UpperBound>
					<value>-91445760000000000,100.,0,0,0,0,0,0</value>
					</parameter>
					</effect>
					</filter>
					<logginginfo>
					<description></description>
					<scene></scene>
					<shottake></shottake>
					<lognote></lognote>
					<good></good>
					<originalvideofilename></originalvideofilename>
					<originalaudiofilename></originalaudiofilename>
					</logginginfo>
					<colorinfo>
					<lut></lut>
					<lut1></lut1>
					<asc_sop></asc_sop>
					<asc_sat></asc_sat>
					<lut2></lut2>
					</colorinfo>
					<labels>
					</labels>
					</clipitem>
					<clipitem frameBlend="FALSE" id="clipitem-147">
					<masterclipid>masterclip-67</masterclipid>
					<name></name>
					<enabled>TRUE</enabled>
					<duration>2582774</duration>
					<rate>
					
					                                    <timebase>60</timebase>
					                                    <ntsc>TRUE</ntsc>
					                                
					</rate>
					<start>323</start>
					<end>389</end>
					<in>323</in>
					<out>389</out>
					<pproTicksIn>914456774963789</pproTicksIn>
					<pproTicksOut>914677708529577</pproTicksOut>
					<alphatype>straight</alphatype>
					<pixelaspectratio>square</pixelaspectratio>
					<anamorphic>FALSE</anamorphic>
					<file id="file-66">
					<name></name>
					<mediaSource>GraphicAndType</mediaSource>
					<rate>
					<timebase>60</timebase>
					<ntsc>TRUE</ntsc>
					</rate>
					<timecode>
					<rate>
					<timebase>60</timebase>
					<ntsc>TRUE</ntsc>
					</rate>
					<string>00:00:00:00</string>
					<frame>0</frame>
					<displayformat>NDF</displayformat>
					</timecode>
					<media>
					<video>
					<samplecharacteristics>
					<rate>
					<timebase>60</timebase>
					<ntsc>TRUE</ntsc>
					</rate>
					<width>1080</width>
					<height>1920</height>
					<anamorphic>FALSE</anamorphic>
					<pixelaspectratio>square</pixelaspectratio>
					<fielddominance>none</fielddominance>
					</samplecharacteristics>
					</video>
					</media>
					</file>
					<filter>
					<effect>
					<name></name>
					<effectid>GraphicAndType</effectid>
					<effectcategory>graphic</effectcategory>
					<effecttype>filter</effecttype>
					<mediatype>video</mediatype>
					<pproBypass>false</pproBypass>
					<parameter authoringApp="PremierePro">
					<parameterid>1</parameterid>
					<name></name>
					<hash>025b1101-ead6-0ca2-1feb-caf3000001fc</hash>
					<value>5AEAAAAAAABEMyIRDAAAAAAABgAKAAQABgAAAGQAAAAAAF4ASAAQAAwARABAADwAOAAAAAAAAAAAADQAMwAsAAAAKAAkACAAAAAAAAAAAAAAAAAAHAAAAAAAGgAAAAAAAAAUAAAAAAAAAAAAAAAAAAAAAAAAAAgAAAAAABsABwBeAAAAAAAAAUAAAABQAAAAbAAAAAIAAAAAAAEAAQAAAAAAQEEAAMBAAABAQAAAyEIAAAABIAAAAAIAAAACAAAAAAA2QwCASkTw/v//9P7///j+//8S////AAAAAAEAAAAEAAAAEQAAAEhHUFNvZWlLYWt1cG9wdGFpAAAAAQAAAAwAAAAIAAwABAAIAAgAAAAIAAAAUAAAAA8AAADvvIEAAAAAAAAAAAAAAAAAAAA2ACQAAAAgABwAAAAAABsAFAAAAAAAAAAAAAAAAAAAAAAAAAAAABAAAAAAAAAADAAAAAgABAA2AAAAAgAAABwAAAAcAAAAHAAAAAAAIEEAAAABaAAAAE3PAEOw////tP///wEAAAAUAAAAEAAaAAgABwAMAAAAEAAUABAAAAAAAAABHAAAAAAAoEEcAAAAAgAAAAAACgAIAAUABgAHAAoAAAAADAD//P///wQABAAEAAAACAAIAAYABwAIAAAAAAAMAA==</value>
					</parameter>
					<parameter authoringApp="PremierePro">
					<parameterid>2</parameterid>
					<name></name>
					<IsTimeVarying>false</IsTimeVarying>
					<ParameterControlType>11</ParameterControlType>
					<LowerBound>false</LowerBound>
					<UpperBound>false</UpperBound>
					<value>-91445760000000000,false,0,0,0,0,0,0</value>
					</parameter>
					<parameter authoringApp="PremierePro">
					<parameterid>3</parameterid>
					<name></name>
					<IsTimeVarying>false</IsTimeVarying>
					<value>-91445760000000000,0.5:0.5,0,0,0,0,0,0,5,4,0,0,0,0</value>
					</parameter>
					<parameter authoringApp="PremierePro">
					<parameterid>4</parameterid>
					<name></name>
					<IsTimeVarying>false</IsTimeVarying>
					<ParameterControlType>2</ParameterControlType>
					<LowerBound>0</LowerBound>
					<UpperBound>4000</UpperBound>
					<value>-91445760000000000,100.,0,0,0,0,0,0</value>
					</parameter>
					<parameter authoringApp="PremierePro">
					<parameterid>8</parameterid>
					<name></name>
					<IsTimeVarying>false</IsTimeVarying>
					<ParameterControlType>2</ParameterControlType>
					<LowerBound>0</LowerBound>
					<UpperBound>100</UpperBound>
					<value>-91445760000000000,100.,0,0,0,0,0,0</value>
					</parameter>
					</effect>
					</filter>
					<logginginfo>
					<description></description>
					<scene></scene>
					<shottake></shottake>
					<lognote></lognote>
					<good></good>
					<originalvideofilename></originalvideofilename>
					<originalaudiofilename></originalaudiofilename>
					</logginginfo>
					<colorinfo>
					<lut></lut>
					<lut1></lut1>
					<asc_sop></asc_sop>
					<asc_sat></asc_sat>
					<lut2></lut2>
					</colorinfo>
					<labels>
					</labels>
					</clipitem>
					<clipitem frameBlend="FALSE" id="clipitem-155">
					<masterclipid>masterclip-75</masterclipid>
					<name></name>
					<enabled>TRUE</enabled>
					<duration>2582774</duration>
					<rate>
					
					                                    <timebase>60</timebase>
					                                    <ntsc>TRUE</ntsc>
					                                
					</rate>
					<start>413</start>
					<end>473</end>
					<in>413</in>
					<out>473</out>
					<pproTicksIn>914456774963789</pproTicksIn>
					<pproTicksOut>914677708529577</pproTicksOut>
					<alphatype>straight</alphatype>
					<pixelaspectratio>square</pixelaspectratio>
					<anamorphic>FALSE</anamorphic>
					<file id="file-74">
					<name></name>
					<mediaSource>GraphicAndType</mediaSource>
					<rate>
					<timebase>60</timebase>
					<ntsc>TRUE</ntsc>
					</rate>
					<timecode>
					<rate>
					<timebase>60</timebase>
					<ntsc>TRUE</ntsc>
					</rate>
					<string>00:00:00:00</string>
					<frame>0</frame>
					<displayformat>NDF</displayformat>
					</timecode>
					<media>
					<video>
					<samplecharacteristics>
					<rate>
					<timebase>60</timebase>
					<ntsc>TRUE</ntsc>
					</rate>
					<width>1080</width>
					<height>1920</height>
					<anamorphic>FALSE</anamorphic>
					<pixelaspectratio>square</pixelaspectratio>
					<fielddominance>none</fielddominance>
					</samplecharacteristics>
					</video>
					</media>
					</file>
					<filter>
					<effect>
					<name></name>
					<effectid>GraphicAndType</effectid>
					<effectcategory>graphic</effectcategory>
					<effecttype>filter</effecttype>
					<mediatype>video</mediatype>
					<pproBypass>false</pproBypass>
					<parameter authoringApp="PremierePro">
					<parameterid>1</parameterid>
					<name></name>
					<hash>025b1101-ead6-0ca2-1feb-caf3000001fc</hash>
					<value>5AEAAAAAAABEMyIRDAAAAAAABgAKAAQABgAAAGQAAAAAAF4ASAAQAAwARABAADwAOAAAAAAAAAAAADQAMwAsAAAAKAAkACAAAAAAAAAAAAAAAAAAHAAAAAAAGgAAAAAAAAAUAAAAAAAAAAAAAAAAAAAAAAAAAAgAAAAAABsABwBeAAAAAAAAAUAAAABQAAAAbAAAAAIAAAAAAAEAAQAAAAAAQEEAAMBAAABAQAAAyEIAAAABIAAAAAIAAAACAAAAAAA2QwCASkTw/v//9P7///j+//8S////AAAAAAEAAAAEAAAAEQAAAEhHUFNvZWlLYWt1cG9wdGFpAAAAAQAAAAwAAAAIAAwABAAIAAgAAAAIAAAAUAAAAA8AAADvvIEAAAAAAAAAAAAAAAAAAAA2ACQAAAAgABwAAAAAABsAFAAAAAAAAAAAAAAAAAAAAAAAAAAAABAAAAAAAAAADAAAAAgABAA2AAAAAgAAABwAAAAcAAAAHAAAAAAAIEEAAAABaAAAAE3PAEOw////tP///wEAAAAUAAAAEAAaAAgABwAMAAAAEAAUABAAAAAAAAABHAAAAAAAoEEcAAAAAgAAAAAACgAIAAUABgAHAAoAAAAADAD//P///wQABAAEAAAACAAIAAYABwAIAAAAAAAMAA==</value>
					</parameter>
					<parameter authoringApp="PremierePro">
					<parameterid>2</parameterid>
					<name></name>
					<IsTimeVarying>false</IsTimeVarying>
					<ParameterControlType>11</ParameterControlType>
					<LowerBound>false</LowerBound>
					<UpperBound>false</UpperBound>
					<value>-91445760000000000,false,0,0,0,0,0,0</value>
					</parameter>
					<parameter authoringApp="PremierePro">
					<parameterid>3</parameterid>
					<name></name>
					<IsTimeVarying>false</IsTimeVarying>
					<value>-91445760000000000,0.5:0.5,0,0,0,0,0,0,5,4,0,0,0,0</value>
					</parameter>
					<parameter authoringApp="PremierePro">
					<parameterid>4</parameterid>
					<name></name>
					<IsTimeVarying>false</IsTimeVarying>
					<ParameterControlType>2</ParameterControlType>
					<LowerBound>0</LowerBound>
					<UpperBound>4000</UpperBound>
					<value>-91445760000000000,100.,0,0,0,0,0,0</value>
					</parameter>
					<parameter authoringApp="PremierePro">
					<parameterid>8</parameterid>
					<name></name>
					<IsTimeVarying>false</IsTimeVarying>
					<ParameterControlType>2</ParameterControlType>
					<LowerBound>0</LowerBound>
					<UpperBound>100</UpperBound>
					<value>-91445760000000000,100.,0,0,0,0,0,0</value>
					</parameter>
					</effect>
					</filter>
					<logginginfo>
					<description></description>
					<scene></scene>
					<shottake></shottake>
					<lognote></lognote>
					<good></good>
					<originalvideofilename></originalvideofilename>
					<originalaudiofilename></originalaudiofilename>
					</logginginfo>
					<colorinfo>
					<lut></lut>
					<lut1></lut1>
					<asc_sop></asc_sop>
					<asc_sat></asc_sat>
					<lut2></lut2>
					</colorinfo>
					<labels>
					</labels>
					</clipitem>
					<clipitem frameBlend="FALSE" id="clipitem-163">
					<masterclipid>masterclip-83</masterclipid>
					<name></name>
					<enabled>TRUE</enabled>
					<duration>2582774</duration>
					<rate>
					
					                                    <timebase>60</timebase>
					                                    <ntsc>TRUE</ntsc>
					                                
					</rate>
					<start>509</start>
					<end>569</end>
					<in>509</in>
					<out>569</out>
					<pproTicksIn>914456774963789</pproTicksIn>
					<pproTicksOut>914677708529577</pproTicksOut>
					<alphatype>straight</alphatype>
					<pixelaspectratio>square</pixelaspectratio>
					<anamorphic>FALSE</anamorphic>
					<file id="file-82">
					<name></name>
					<mediaSource>GraphicAndType</mediaSource>
					<rate>
					<timebase>60</timebase>
					<ntsc>TRUE</ntsc>
					</rate>
					<timecode>
					<rate>
					<timebase>60</timebase>
					<ntsc>TRUE</ntsc>
					</rate>
					<string>00:00:00:00</string>
					<frame>0</frame>
					<displayformat>NDF</displayformat>
					</timecode>
					<media>
					<video>
					<samplecharacteristics>
					<rate>
					<timebase>60</timebase>
					<ntsc>TRUE</ntsc>
					</rate>
					<width>1080</width>
					<height>1920</height>
					<anamorphic>FALSE</anamorphic>
					<pixelaspectratio>square</pixelaspectratio>
					<fielddominance>none</fielddominance>
					</samplecharacteristics>
					</video>
					</media>
					</file>
					<filter>
					<effect>
					<name></name>
					<effectid>GraphicAndType</effectid>
					<effectcategory>graphic</effectcategory>
					<effecttype>filter</effecttype>
					<mediatype>video</mediatype>
					<pproBypass>false</pproBypass>
					<parameter authoringApp="PremierePro">
					<parameterid>1</parameterid>
					<name></name>
					<hash>025b1101-ead6-0ca2-1feb-caf3000001fc</hash>
					<value>5AEAAAAAAABEMyIRDAAAAAAABgAKAAQABgAAAGQAAAAAAF4ASAAQAAwARABAADwAOAAAAAAAAAAAADQAMwAsAAAAKAAkACAAAAAAAAAAAAAAAAAAHAAAAAAAGgAAAAAAAAAUAAAAAAAAAAAAAAAAAAAAAAAAAAgAAAAAABsABwBeAAAAAAAAAUAAAABQAAAAbAAAAAIAAAAAAAEAAQAAAAAAQEEAAMBAAABAQAAAyEIAAAABIAAAAAIAAAACAAAAAAA2QwCASkTw/v//9P7///j+//8S////AAAAAAEAAAAEAAAAEQAAAEhHUFNvZWlLYWt1cG9wdGFpAAAAAQAAAAwAAAAIAAwABAAIAAgAAAAIAAAAUAAAAA8AAADvvIEAAAAAAAAAAAAAAAAAAAA2ACQAAAAgABwAAAAAABsAFAAAAAAAAAAAAAAAAAAAAAAAAAAAABAAAAAAAAAADAAAAAgABAA2AAAAAgAAABwAAAAcAAAAHAAAAAAAIEEAAAABaAAAAE3PAEOw////tP///wEAAAAUAAAAEAAaAAgABwAMAAAAEAAUABAAAAAAAAABHAAAAAAAoEEcAAAAAgAAAAAACgAIAAUABgAHAAoAAAAADAD//P///wQABAAEAAAACAAIAAYABwAIAAAAAAAMAA==</value>
					</parameter>
					<parameter authoringApp="PremierePro">
					<parameterid>2</parameterid>
					<name></name>
					<IsTimeVarying>false</IsTimeVarying>
					<ParameterControlType>11</ParameterControlType>
					<LowerBound>false</LowerBound>
					<UpperBound>false</UpperBound>
					<value>-91445760000000000,false,0,0,0,0,0,0</value>
					</parameter>
					<parameter authoringApp="PremierePro">
					<parameterid>3</parameterid>
					<name></name>
					<IsTimeVarying>false</IsTimeVarying>
					<value>-91445760000000000,0.5:0.5,0,0,0,0,0,0,5,4,0,0,0,0</value>
					</parameter>
					<parameter authoringApp="PremierePro">
					<parameterid>4</parameterid>
					<name></name>
					<IsTimeVarying>false</IsTimeVarying>
					<ParameterControlType>2</ParameterControlType>
					<LowerBound>0</LowerBound>
					<UpperBound>4000</UpperBound>
					<value>-91445760000000000,100.,0,0,0,0,0,0</value>
					</parameter>
					<parameter authoringApp="PremierePro">
					<parameterid>8</parameterid>
					<name></name>
					<IsTimeVarying>false</IsTimeVarying>
					<ParameterControlType>2</ParameterControlType>
					<LowerBound>0</LowerBound>
					<UpperBound>100</UpperBound>
					<value>-91445760000000000,100.,0,0,0,0,0,0</value>
					</parameter>
					</effect>
					</filter>
					<logginginfo>
					<description></description>
					<scene></scene>
					<shottake></shottake>
					<lognote></lognote>
					<good></good>
					<originalvideofilename></originalvideofilename>
					<originalaudiofilename></originalaudiofilename>
					</logginginfo>
					<colorinfo>
					<lut></lut>
					<lut1></lut1>
					<asc_sop></asc_sop>
					<asc_sat></asc_sat>
					<lut2></lut2>
					</colorinfo>
					<labels>
					</labels>
					</clipitem>
					<clipitem frameBlend="FALSE" id="clipitem-171">
					<masterclipid>masterclip-91</masterclipid>
					<name></name>
					<enabled>TRUE</enabled>
					<duration>2582774</duration>
					<rate>
					
					                                    <timebase>60</timebase>
					                                    <ntsc>TRUE</ntsc>
					                                
					</rate>
					<start>581</start>
					<end>641</end>
					<in>581</in>
					<out>641</out>
					<pproTicksIn>914456774963789</pproTicksIn>
					<pproTicksOut>914677708529577</pproTicksOut>
					<alphatype>straight</alphatype>
					<pixelaspectratio>square</pixelaspectratio>
					<anamorphic>FALSE</anamorphic>
					<file id="file-90">
					<name></name>
					<mediaSource>GraphicAndType</mediaSource>
					<rate>
					<timebase>60</timebase>
					<ntsc>TRUE</ntsc>
					</rate>
					<timecode>
					<rate>
					<timebase>60</timebase>
					<ntsc>TRUE</ntsc>
					</rate>
					<string>00:00:00:00</string>
					<frame>0</frame>
					<displayformat>NDF</displayformat>
					</timecode>
					<media>
					<video>
					<samplecharacteristics>
					<rate>
					<timebase>60</timebase>
					<ntsc>TRUE</ntsc>
					</rate>
					<width>1080</width>
					<height>1920</height>
					<anamorphic>FALSE</anamorphic>
					<pixelaspectratio>square</pixelaspectratio>
					<fielddominance>none</fielddominance>
					</samplecharacteristics>
					</video>
					</media>
					</file>
					<filter>
					<effect>
					<name></name>
					<effectid>GraphicAndType</effectid>
					<effectcategory>graphic</effectcategory>
					<effecttype>filter</effecttype>
					<mediatype>video</mediatype>
					<pproBypass>false</pproBypass>
					<parameter authoringApp="PremierePro">
					<parameterid>1</parameterid>
					<name></name>
					<hash>025b1101-ead6-0ca2-1feb-caf3000001fc</hash>
					<value>5AEAAAAAAABEMyIRDAAAAAAABgAKAAQABgAAAGQAAAAAAF4ASAAQAAwARABAADwAOAAAAAAAAAAAADQAMwAsAAAAKAAkACAAAAAAAAAAAAAAAAAAHAAAAAAAGgAAAAAAAAAUAAAAAAAAAAAAAAAAAAAAAAAAAAgAAAAAABsABwBeAAAAAAAAAUAAAABQAAAAbAAAAAIAAAAAAAEAAQAAAAAAQEEAAMBAAABAQAAAyEIAAAABIAAAAAIAAAACAAAAAAA2QwCASkTw/v//9P7///j+//8S////AAAAAAEAAAAEAAAAEQAAAEhHUFNvZWlLYWt1cG9wdGFpAAAAAQAAAAwAAAAIAAwABAAIAAgAAAAIAAAAUAAAAA8AAADvvIEAAAAAAAAAAAAAAAAAAAA2ACQAAAAgABwAAAAAABsAFAAAAAAAAAAAAAAAAAAAAAAAAAAAABAAAAAAAAAADAAAAAgABAA2AAAAAgAAABwAAAAcAAAAHAAAAAAAIEEAAAABaAAAAE3PAEOw////tP///wEAAAAUAAAAEAAaAAgABwAMAAAAEAAUABAAAAAAAAABHAAAAAAAoEEcAAAAAgAAAAAACgAIAAUABgAHAAoAAAAADAD//P///wQABAAEAAAACAAIAAYABwAIAAAAAAAMAA==</value>
					</parameter>
					<parameter authoringApp="PremierePro">
					<parameterid>2</parameterid>
					<name></name>
					<IsTimeVarying>false</IsTimeVarying>
					<ParameterControlType>11</ParameterControlType>
					<LowerBound>false</LowerBound>
					<UpperBound>false</UpperBound>
					<value>-91445760000000000,false,0,0,0,0,0,0</value>
					</parameter>
					<parameter authoringApp="PremierePro">
					<parameterid>3</parameterid>
					<name></name>
					<IsTimeVarying>false</IsTimeVarying>
					<value>-91445760000000000,0.5:0.5,0,0,0,0,0,0,5,4,0,0,0,0</value>
					</parameter>
					<parameter authoringApp="PremierePro">
					<parameterid>4</parameterid>
					<name></name>
					<IsTimeVarying>false</IsTimeVarying>
					<ParameterControlType>2</ParameterControlType>
					<LowerBound>0</LowerBound>
					<UpperBound>4000</UpperBound>
					<value>-91445760000000000,100.,0,0,0,0,0,0</value>
					</parameter>
					<parameter authoringApp="PremierePro">
					<parameterid>8</parameterid>
					<name></name>
					<IsTimeVarying>false</IsTimeVarying>
					<ParameterControlType>2</ParameterControlType>
					<LowerBound>0</LowerBound>
					<UpperBound>100</UpperBound>
					<value>-91445760000000000,100.,0,0,0,0,0,0</value>
					</parameter>
					</effect>
					</filter>
					<logginginfo>
					<description></description>
					<scene></scene>
					<shottake></shottake>
					<lognote></lognote>
					<good></good>
					<originalvideofilename></originalvideofilename>
					<originalaudiofilename></originalaudiofilename>
					</logginginfo>
					<colorinfo>
					<lut></lut>
					<lut1></lut1>
					<asc_sop></asc_sop>
					<asc_sat></asc_sat>
					<lut2></lut2>
					</colorinfo>
					<labels>
					</labels>
					</clipitem>
					<clipitem frameBlend="FALSE" id="clipitem-180">
					<masterclipid>masterclip-100</masterclipid>
					<name></name>
					<enabled>TRUE</enabled>
					<duration>2582774</duration>
					<rate>
					
					                                    <timebase>60</timebase>
					                                    <ntsc>TRUE</ntsc>
					                                
					</rate>
					<start>641</start>
					<end>701</end>
					<in>641</in>
					<out>701</out>
					<pproTicksIn>914456774963789</pproTicksIn>
					<pproTicksOut>914677708529577</pproTicksOut>
					<alphatype>straight</alphatype>
					<pixelaspectratio>square</pixelaspectratio>
					<anamorphic>FALSE</anamorphic>
					<file id="file-99">
					<name></name>
					<mediaSource>GraphicAndType</mediaSource>
					<rate>
					<timebase>60</timebase>
					<ntsc>TRUE</ntsc>
					</rate>
					<timecode>
					<rate>
					<timebase>60</timebase>
					<ntsc>TRUE</ntsc>
					</rate>
					<string>00:00:00:00</string>
					<frame>0</frame>
					<displayformat>NDF</displayformat>
					</timecode>
					<media>
					<video>
					<samplecharacteristics>
					<rate>
					<timebase>60</timebase>
					<ntsc>TRUE</ntsc>
					</rate>
					<width>1080</width>
					<height>1920</height>
					<anamorphic>FALSE</anamorphic>
					<pixelaspectratio>square</pixelaspectratio>
					<fielddominance>none</fielddominance>
					</samplecharacteristics>
					</video>
					</media>
					</file>
					<filter>
					<effect>
					<name></name>
					<effectid>GraphicAndType</effectid>
					<effectcategory>graphic</effectcategory>
					<effecttype>filter</effecttype>
					<mediatype>video</mediatype>
					<pproBypass>false</pproBypass>
					<parameter authoringApp="PremierePro">
					<parameterid>1</parameterid>
					<name></name>
					<hash>025b1101-ead6-0ca2-1feb-caf3000001fc</hash>
					<value>5AEAAAAAAABEMyIRDAAAAAAABgAKAAQABgAAAGQAAAAAAF4ASAAQAAwARABAADwAOAAAAAAAAAAAADQAMwAsAAAAKAAkACAAAAAAAAAAAAAAAAAAHAAAAAAAGgAAAAAAAAAUAAAAAAAAAAAAAAAAAAAAAAAAAAgAAAAAABsABwBeAAAAAAAAAUAAAABQAAAAbAAAAAIAAAAAAAEAAQAAAAAAQEEAAMBAAABAQAAAyEIAAAABIAAAAAIAAAACAAAAAAA2QwCASkTw/v//9P7///j+//8S////AAAAAAEAAAAEAAAAEQAAAEhHUFNvZWlLYWt1cG9wdGFpAAAAAQAAAAwAAAAIAAwABAAIAAgAAAAIAAAAUAAAAA8AAADvvIEAAAAAAAAAAAAAAAAAAAA2ACQAAAAgABwAAAAAABsAFAAAAAAAAAAAAAAAAAAAAAAAAAAAABAAAAAAAAAADAAAAAgABAA2AAAAAgAAABwAAAAcAAAAHAAAAAAAIEEAAAABaAAAAE3PAEOw////tP///wEAAAAUAAAAEAAaAAgABwAMAAAAEAAUABAAAAAAAAABHAAAAAAAoEEcAAAAAgAAAAAACgAIAAUABgAHAAoAAAAADAD//P///wQABAAEAAAACAAIAAYABwAIAAAAAAAMAA==</value>
					</parameter>
					<parameter authoringApp="PremierePro">
					<parameterid>2</parameterid>
					<name></name>
					<IsTimeVarying>false</IsTimeVarying>
					<ParameterControlType>11</ParameterControlType>
					<LowerBound>false</LowerBound>
					<UpperBound>false</UpperBound>
					<value>-91445760000000000,false,0,0,0,0,0,0</value>
					</parameter>
					<parameter authoringApp="PremierePro">
					<parameterid>3</parameterid>
					<name></name>
					<IsTimeVarying>false</IsTimeVarying>
					<value>-91445760000000000,0.5:0.5,0,0,0,0,0,0,5,4,0,0,0,0</value>
					</parameter>
					<parameter authoringApp="PremierePro">
					<parameterid>4</parameterid>
					<name></name>
					<IsTimeVarying>false</IsTimeVarying>
					<ParameterControlType>2</ParameterControlType>
					<LowerBound>0</LowerBound>
					<UpperBound>4000</UpperBound>
					<value>-91445760000000000,100.,0,0,0,0,0,0</value>
					</parameter>
					<parameter authoringApp="PremierePro">
					<parameterid>8</parameterid>
					<name></name>
					<IsTimeVarying>false</IsTimeVarying>
					<ParameterControlType>2</ParameterControlType>
					<LowerBound>0</LowerBound>
					<UpperBound>100</UpperBound>
					<value>-91445760000000000,100.,0,0,0,0,0,0</value>
					</parameter>
					</effect>
					</filter>
					<logginginfo>
					<description></description>
					<scene></scene>
					<shottake></shottake>
					<lognote></lognote>
					<good></good>
					<originalvideofilename></originalvideofilename>
					<originalaudiofilename></originalaudiofilename>
					</logginginfo>
					<colorinfo>
					<lut></lut>
					<lut1></lut1>
					<asc_sop></asc_sop>
					<asc_sat></asc_sat>
					<lut2></lut2>
					</colorinfo>
					<labels>
					</labels>
					</clipitem>
					<clipitem frameBlend="FALSE" id="clipitem-188">
					<masterclipid>masterclip-108</masterclipid>
					<name></name>
					<enabled>TRUE</enabled>
					<duration>2582774</duration>
					<rate>
					
					                                    <timebase>60</timebase>
					                                    <ntsc>TRUE</ntsc>
					                                
					</rate>
					<start>707</start>
					<end>767</end>
					<in>707</in>
					<out>767</out>
					<pproTicksIn>914456774963789</pproTicksIn>
					<pproTicksOut>914677708529577</pproTicksOut>
					<alphatype>straight</alphatype>
					<pixelaspectratio>square</pixelaspectratio>
					<anamorphic>FALSE</anamorphic>
					<file id="file-107">
					<name></name>
					<mediaSource>GraphicAndType</mediaSource>
					<rate>
					<timebase>60</timebase>
					<ntsc>TRUE</ntsc>
					</rate>
					<timecode>
					<rate>
					<timebase>60</timebase>
					<ntsc>TRUE</ntsc>
					</rate>
					<string>00:00:00:00</string>
					<frame>0</frame>
					<displayformat>NDF</displayformat>
					</timecode>
					<media>
					<video>
					<samplecharacteristics>
					<rate>
					<timebase>60</timebase>
					<ntsc>TRUE</ntsc>
					</rate>
					<width>1080</width>
					<height>1920</height>
					<anamorphic>FALSE</anamorphic>
					<pixelaspectratio>square</pixelaspectratio>
					<fielddominance>none</fielddominance>
					</samplecharacteristics>
					</video>
					</media>
					</file>
					<filter>
					<effect>
					<name></name>
					<effectid>GraphicAndType</effectid>
					<effectcategory>graphic</effectcategory>
					<effecttype>filter</effecttype>
					<mediatype>video</mediatype>
					<pproBypass>false</pproBypass>
					<parameter authoringApp="PremierePro">
					<parameterid>1</parameterid>
					<name></name>
					<hash>025b1101-ead6-0ca2-1feb-caf3000001fc</hash>
					<value>5AEAAAAAAABEMyIRDAAAAAAABgAKAAQABgAAAGQAAAAAAF4ASAAQAAwARABAADwAOAAAAAAAAAAAADQAMwAsAAAAKAAkACAAAAAAAAAAAAAAAAAAHAAAAAAAGgAAAAAAAAAUAAAAAAAAAAAAAAAAAAAAAAAAAAgAAAAAABsABwBeAAAAAAAAAUAAAABQAAAAbAAAAAIAAAAAAAEAAQAAAAAAQEEAAMBAAABAQAAAyEIAAAABIAAAAAIAAAACAAAAAAA2QwCASkTw/v//9P7///j+//8S////AAAAAAEAAAAEAAAAEQAAAEhHUFNvZWlLYWt1cG9wdGFpAAAAAQAAAAwAAAAIAAwABAAIAAgAAAAIAAAAUAAAAA8AAADvvIEAAAAAAAAAAAAAAAAAAAA2ACQAAAAgABwAAAAAABsAFAAAAAAAAAAAAAAAAAAAAAAAAAAAABAAAAAAAAAADAAAAAgABAA2AAAAAgAAABwAAAAcAAAAHAAAAAAAIEEAAAABaAAAAE3PAEOw////tP///wEAAAAUAAAAEAAaAAgABwAMAAAAEAAUABAAAAAAAAABHAAAAAAAoEEcAAAAAgAAAAAACgAIAAUABgAHAAoAAAAADAD//P///wQABAAEAAAACAAIAAYABwAIAAAAAAAMAA==</value>
					</parameter>
					<parameter authoringApp="PremierePro">
					<parameterid>2</parameterid>
					<name></name>
					<IsTimeVarying>false</IsTimeVarying>
					<ParameterControlType>11</ParameterControlType>
					<LowerBound>false</LowerBound>
					<UpperBound>false</UpperBound>
					<value>-91445760000000000,false,0,0,0,0,0,0</value>
					</parameter>
					<parameter authoringApp="PremierePro">
					<parameterid>3</parameterid>
					<name></name>
					<IsTimeVarying>false</IsTimeVarying>
					<value>-91445760000000000,0.5:0.5,0,0,0,0,0,0,5,4,0,0,0,0</value>
					</parameter>
					<parameter authoringApp="PremierePro">
					<parameterid>4</parameterid>
					<name></name>
					<IsTimeVarying>false</IsTimeVarying>
					<ParameterControlType>2</ParameterControlType>
					<LowerBound>0</LowerBound>
					<UpperBound>4000</UpperBound>
					<value>-91445760000000000,100.,0,0,0,0,0,0</value>
					</parameter>
					<parameter authoringApp="PremierePro">
					<parameterid>8</parameterid>
					<name></name>
					<IsTimeVarying>false</IsTimeVarying>
					<ParameterControlType>2</ParameterControlType>
					<LowerBound>0</LowerBound>
					<UpperBound>100</UpperBound>
					<value>-91445760000000000,100.,0,0,0,0,0,0</value>
					</parameter>
					</effect>
					</filter>
					<logginginfo>
					<description></description>
					<scene></scene>
					<shottake></shottake>
					<lognote></lognote>
					<good></good>
					<originalvideofilename></originalvideofilename>
					<originalaudiofilename></originalaudiofilename>
					</logginginfo>
					<colorinfo>
					<lut></lut>
					<lut1></lut1>
					<asc_sop></asc_sop>
					<asc_sat></asc_sat>
					<lut2></lut2>
					</colorinfo>
					<labels>
					</labels>
					</clipitem>
					<clipitem frameBlend="FALSE" id="clipitem-196">
					<masterclipid>masterclip-116</masterclipid>
					<name></name>
					<enabled>TRUE</enabled>
					<duration>2582774</duration>
					<rate>
					
					                                    <timebase>60</timebase>
					                                    <ntsc>TRUE</ntsc>
					                                
					</rate>
					<start>791</start>
					<end>851</end>
					<in>791</in>
					<out>851</out>
					<pproTicksIn>914456774963789</pproTicksIn>
					<pproTicksOut>914677708529577</pproTicksOut>
					<alphatype>straight</alphatype>
					<pixelaspectratio>square</pixelaspectratio>
					<anamorphic>FALSE</anamorphic>
					<file id="file-115">
					<name></name>
					<mediaSource>GraphicAndType</mediaSource>
					<rate>
					<timebase>60</timebase>
					<ntsc>TRUE</ntsc>
					</rate>
					<timecode>
					<rate>
					<timebase>60</timebase>
					<ntsc>TRUE</ntsc>
					</rate>
					<string>00:00:00:00</string>
					<frame>0</frame>
					<displayformat>NDF</displayformat>
					</timecode>
					<media>
					<video>
					<samplecharacteristics>
					<rate>
					<timebase>60</timebase>
					<ntsc>TRUE</ntsc>
					</rate>
					<width>1080</width>
					<height>1920</height>
					<anamorphic>FALSE</anamorphic>
					<pixelaspectratio>square</pixelaspectratio>
					<fielddominance>none</fielddominance>
					</samplecharacteristics>
					</video>
					</media>
					</file>
					<filter>
					<effect>
					<name></name>
					<effectid>GraphicAndType</effectid>
					<effectcategory>graphic</effectcategory>
					<effecttype>filter</effecttype>
					<mediatype>video</mediatype>
					<pproBypass>false</pproBypass>
					<parameter authoringApp="PremierePro">
					<parameterid>1</parameterid>
					<name></name>
					<hash>025b1101-ead6-0ca2-1feb-caf3000001fc</hash>
					<value>5AEAAAAAAABEMyIRDAAAAAAABgAKAAQABgAAAGQAAAAAAF4ASAAQAAwARABAADwAOAAAAAAAAAAAADQAMwAsAAAAKAAkACAAAAAAAAAAAAAAAAAAHAAAAAAAGgAAAAAAAAAUAAAAAAAAAAAAAAAAAAAAAAAAAAgAAAAAABsABwBeAAAAAAAAAUAAAABQAAAAbAAAAAIAAAAAAAEAAQAAAAAAQEEAAMBAAABAQAAAyEIAAAABIAAAAAIAAAACAAAAAAA2QwCASkTw/v//9P7///j+//8S////AAAAAAEAAAAEAAAAEQAAAEhHUFNvZWlLYWt1cG9wdGFpAAAAAQAAAAwAAAAIAAwABAAIAAgAAAAIAAAAUAAAAA8AAADvvIEAAAAAAAAAAAAAAAAAAAA2ACQAAAAgABwAAAAAABsAFAAAAAAAAAAAAAAAAAAAAAAAAAAAABAAAAAAAAAADAAAAAgABAA2AAAAAgAAABwAAAAcAAAAHAAAAAAAIEEAAAABaAAAAE3PAEOw////tP///wEAAAAUAAAAEAAaAAgABwAMAAAAEAAUABAAAAAAAAABHAAAAAAAoEEcAAAAAgAAAAAACgAIAAUABgAHAAoAAAAADAD//P///wQABAAEAAAACAAIAAYABwAIAAAAAAAMAA==</value>
					</parameter>
					<parameter authoringApp="PremierePro">
					<parameterid>2</parameterid>
					<name></name>
					<IsTimeVarying>false</IsTimeVarying>
					<ParameterControlType>11</ParameterControlType>
					<LowerBound>false</LowerBound>
					<UpperBound>false</UpperBound>
					<value>-91445760000000000,false,0,0,0,0,0,0</value>
					</parameter>
					<parameter authoringApp="PremierePro">
					<parameterid>3</parameterid>
					<name></name>
					<IsTimeVarying>false</IsTimeVarying>
					<value>-91445760000000000,0.5:0.5,0,0,0,0,0,0,5,4,0,0,0,0</value>
					</parameter>
					<parameter authoringApp="PremierePro">
					<parameterid>4</parameterid>
					<name></name>
					<IsTimeVarying>false</IsTimeVarying>
					<ParameterControlType>2</ParameterControlType>
					<LowerBound>0</LowerBound>
					<UpperBound>4000</UpperBound>
					<value>-91445760000000000,100.,0,0,0,0,0,0</value>
					</parameter>
					<parameter authoringApp="PremierePro">
					<parameterid>8</parameterid>
					<name></name>
					<IsTimeVarying>false</IsTimeVarying>
					<ParameterControlType>2</ParameterControlType>
					<LowerBound>0</LowerBound>
					<UpperBound>100</UpperBound>
					<value>-91445760000000000,100.,0,0,0,0,0,0</value>
					</parameter>
					</effect>
					</filter>
					<logginginfo>
					<description></description>
					<scene></scene>
					<shottake></shottake>
					<lognote></lognote>
					<good></good>
					<originalvideofilename></originalvideofilename>
					<originalaudiofilename></originalaudiofilename>
					</logginginfo>
					<colorinfo>
					<lut></lut>
					<lut1></lut1>
					<asc_sop></asc_sop>
					<asc_sat></asc_sat>
					<lut2></lut2>
					</colorinfo>
					<labels>
					</labels>
					</clipitem>
					<clipitem frameBlend="FALSE" id="clipitem-205">
					<masterclipid>masterclip-125</masterclipid>
					<name></name>
					<enabled>TRUE</enabled>
					<duration>2582774</duration>
					<rate>
					
					                                    <timebase>60</timebase>
					                                    <ntsc>TRUE</ntsc>
					                                
					</rate>
					<start>851</start>
					<end>911</end>
					<in>851</in>
					<out>911</out>
					<pproTicksIn>914456774963789</pproTicksIn>
					<pproTicksOut>914677708529577</pproTicksOut>
					<alphatype>straight</alphatype>
					<pixelaspectratio>square</pixelaspectratio>
					<anamorphic>FALSE</anamorphic>
					<file id="file-124">
					<name></name>
					<mediaSource>GraphicAndType</mediaSource>
					<rate>
					<timebase>60</timebase>
					<ntsc>TRUE</ntsc>
					</rate>
					<timecode>
					<rate>
					<timebase>60</timebase>
					<ntsc>TRUE</ntsc>
					</rate>
					<string>00:00:00:00</string>
					<frame>0</frame>
					<displayformat>NDF</displayformat>
					</timecode>
					<media>
					<video>
					<samplecharacteristics>
					<rate>
					<timebase>60</timebase>
					<ntsc>TRUE</ntsc>
					</rate>
					<width>1080</width>
					<height>1920</height>
					<anamorphic>FALSE</anamorphic>
					<pixelaspectratio>square</pixelaspectratio>
					<fielddominance>none</fielddominance>
					</samplecharacteristics>
					</video>
					</media>
					</file>
					<filter>
					<effect>
					<name></name>
					<effectid>GraphicAndType</effectid>
					<effectcategory>graphic</effectcategory>
					<effecttype>filter</effecttype>
					<mediatype>video</mediatype>
					<pproBypass>false</pproBypass>
					<parameter authoringApp="PremierePro">
					<parameterid>1</parameterid>
					<name></name>
					<hash>025b1101-ead6-0ca2-1feb-caf3000001fc</hash>
					<value>5AEAAAAAAABEMyIRDAAAAAAABgAKAAQABgAAAGQAAAAAAF4ASAAQAAwARABAADwAOAAAAAAAAAAAADQAMwAsAAAAKAAkACAAAAAAAAAAAAAAAAAAHAAAAAAAGgAAAAAAAAAUAAAAAAAAAAAAAAAAAAAAAAAAAAgAAAAAABsABwBeAAAAAAAAAUAAAABQAAAAbAAAAAIAAAAAAAEAAQAAAAAAQEEAAMBAAABAQAAAyEIAAAABIAAAAAIAAAACAAAAAAA2QwCASkTw/v//9P7///j+//8S////AAAAAAEAAAAEAAAAEQAAAEhHUFNvZWlLYWt1cG9wdGFpAAAAAQAAAAwAAAAIAAwABAAIAAgAAAAIAAAAUAAAAA8AAADvvIEAAAAAAAAAAAAAAAAAAAA2ACQAAAAgABwAAAAAABsAFAAAAAAAAAAAAAAAAAAAAAAAAAAAABAAAAAAAAAADAAAAAgABAA2AAAAAgAAABwAAAAcAAAAHAAAAAAAIEEAAAABaAAAAE3PAEOw////tP///wEAAAAUAAAAEAAaAAgABwAMAAAAEAAUABAAAAAAAAABHAAAAAAAoEEcAAAAAgAAAAAACgAIAAUABgAHAAoAAAAADAD//P///wQABAAEAAAACAAIAAYABwAIAAAAAAAMAA==</value>
					</parameter>
					<parameter authoringApp="PremierePro">
					<parameterid>2</parameterid>
					<name></name>
					<IsTimeVarying>false</IsTimeVarying>
					<ParameterControlType>11</ParameterControlType>
					<LowerBound>false</LowerBound>
					<UpperBound>false</UpperBound>
					<value>-91445760000000000,false,0,0,0,0,0,0</value>
					</parameter>
					<parameter authoringApp="PremierePro">
					<parameterid>3</parameterid>
					<name></name>
					<IsTimeVarying>false</IsTimeVarying>
					<value>-91445760000000000,0.5:0.5,0,0,0,0,0,0,5,4,0,0,0,0</value>
					</parameter>
					<parameter authoringApp="PremierePro">
					<parameterid>4</parameterid>
					<name></name>
					<IsTimeVarying>false</IsTimeVarying>
					<ParameterControlType>2</ParameterControlType>
					<LowerBound>0</LowerBound>
					<UpperBound>4000</UpperBound>
					<value>-91445760000000000,100.,0,0,0,0,0,0</value>
					</parameter>
					<parameter authoringApp="PremierePro">
					<parameterid>8</parameterid>
					<name></name>
					<IsTimeVarying>false</IsTimeVarying>
					<ParameterControlType>2</ParameterControlType>
					<LowerBound>0</LowerBound>
					<UpperBound>100</UpperBound>
					<value>-91445760000000000,100.,0,0,0,0,0,0</value>
					</parameter>
					</effect>
					</filter>
					<logginginfo>
					<description></description>
					<scene></scene>
					<shottake></shottake>
					<lognote></lognote>
					<good></good>
					<originalvideofilename></originalvideofilename>
					<originalaudiofilename></originalaudiofilename>
					</logginginfo>
					<colorinfo>
					<lut></lut>
					<lut1></lut1>
					<asc_sop></asc_sop>
					<asc_sat></asc_sat>
					<lut2></lut2>
					</colorinfo>
					<labels>
					</labels>
					</clipitem>
					<clipitem frameBlend="FALSE" id="clipitem-213">
					<masterclipid>masterclip-133</masterclipid>
					<name></name>
					<enabled>TRUE</enabled>
					<duration>2582774</duration>
					<rate>
					
					                                    <timebase>60</timebase>
					                                    <ntsc>TRUE</ntsc>
					                                
					</rate>
					<start>911</start>
					<end>977</end>
					<in>911</in>
					<out>977</out>
					<pproTicksIn>914456774963789</pproTicksIn>
					<pproTicksOut>914677708529577</pproTicksOut>
					<alphatype>straight</alphatype>
					<pixelaspectratio>square</pixelaspectratio>
					<anamorphic>FALSE</anamorphic>
					<file id="file-132">
					<name></name>
					<mediaSource>GraphicAndType</mediaSource>
					<rate>
					<timebase>60</timebase>
					<ntsc>TRUE</ntsc>
					</rate>
					<timecode>
					<rate>
					<timebase>60</timebase>
					<ntsc>TRUE</ntsc>
					</rate>
					<string>00:00:00:00</string>
					<frame>0</frame>
					<displayformat>NDF</displayformat>
					</timecode>
					<media>
					<video>
					<samplecharacteristics>
					<rate>
					<timebase>60</timebase>
					<ntsc>TRUE</ntsc>
					</rate>
					<width>1080</width>
					<height>1920</height>
					<anamorphic>FALSE</anamorphic>
					<pixelaspectratio>square</pixelaspectratio>
					<fielddominance>none</fielddominance>
					</samplecharacteristics>
					</video>
					</media>
					</file>
					<filter>
					<effect>
					<name></name>
					<effectid>GraphicAndType</effectid>
					<effectcategory>graphic</effectcategory>
					<effecttype>filter</effecttype>
					<mediatype>video</mediatype>
					<pproBypass>false</pproBypass>
					<parameter authoringApp="PremierePro">
					<parameterid>1</parameterid>
					<name></name>
					<hash>025b1101-ead6-0ca2-1feb-caf3000001fc</hash>
					<value>5AEAAAAAAABEMyIRDAAAAAAABgAKAAQABgAAAGQAAAAAAF4ASAAQAAwARABAADwAOAAAAAAAAAAAADQAMwAsAAAAKAAkACAAAAAAAAAAAAAAAAAAHAAAAAAAGgAAAAAAAAAUAAAAAAAAAAAAAAAAAAAAAAAAAAgAAAAAABsABwBeAAAAAAAAAUAAAABQAAAAbAAAAAIAAAAAAAEAAQAAAAAAQEEAAMBAAABAQAAAyEIAAAABIAAAAAIAAAACAAAAAAA2QwCASkTw/v//9P7///j+//8S////AAAAAAEAAAAEAAAAEQAAAEhHUFNvZWlLYWt1cG9wdGFpAAAAAQAAAAwAAAAIAAwABAAIAAgAAAAIAAAAUAAAAA8AAADvvIEAAAAAAAAAAAAAAAAAAAA2ACQAAAAgABwAAAAAABsAFAAAAAAAAAAAAAAAAAAAAAAAAAAAABAAAAAAAAAADAAAAAgABAA2AAAAAgAAABwAAAAcAAAAHAAAAAAAIEEAAAABaAAAAE3PAEOw////tP///wEAAAAUAAAAEAAaAAgABwAMAAAAEAAUABAAAAAAAAABHAAAAAAAoEEcAAAAAgAAAAAACgAIAAUABgAHAAoAAAAADAD//P///wQABAAEAAAACAAIAAYABwAIAAAAAAAMAA==</value>
					</parameter>
					<parameter authoringApp="PremierePro">
					<parameterid>2</parameterid>
					<name></name>
					<IsTimeVarying>false</IsTimeVarying>
					<ParameterControlType>11</ParameterControlType>
					<LowerBound>false</LowerBound>
					<UpperBound>false</UpperBound>
					<value>-91445760000000000,false,0,0,0,0,0,0</value>
					</parameter>
					<parameter authoringApp="PremierePro">
					<parameterid>3</parameterid>
					<name></name>
					<IsTimeVarying>false</IsTimeVarying>
					<value>-91445760000000000,0.5:0.5,0,0,0,0,0,0,5,4,0,0,0,0</value>
					</parameter>
					<parameter authoringApp="PremierePro">
					<parameterid>4</parameterid>
					<name></name>
					<IsTimeVarying>false</IsTimeVarying>
					<ParameterControlType>2</ParameterControlType>
					<LowerBound>0</LowerBound>
					<UpperBound>4000</UpperBound>
					<value>-91445760000000000,100.,0,0,0,0,0,0</value>
					</parameter>
					<parameter authoringApp="PremierePro">
					<parameterid>8</parameterid>
					<name></name>
					<IsTimeVarying>false</IsTimeVarying>
					<ParameterControlType>2</ParameterControlType>
					<LowerBound>0</LowerBound>
					<UpperBound>100</UpperBound>
					<value>-91445760000000000,100.,0,0,0,0,0,0</value>
					</parameter>
					</effect>
					</filter>
					<logginginfo>
					<description></description>
					<scene></scene>
					<shottake></shottake>
					<lognote></lognote>
					<good></good>
					<originalvideofilename></originalvideofilename>
					<originalaudiofilename></originalaudiofilename>
					</logginginfo>
					<colorinfo>
					<lut></lut>
					<lut1></lut1>
					<asc_sop></asc_sop>
					<asc_sat></asc_sat>
					<lut2></lut2>
					</colorinfo>
					<labels>
					</labels>
					</clipitem>
					<clipitem frameBlend="FALSE" id="clipitem-223">
					<masterclipid>masterclip-143</masterclipid>
					<name></name>
					<enabled>TRUE</enabled>
					<duration>2582774</duration>
					<rate>
					
					                                    <timebase>60</timebase>
					                                    <ntsc>TRUE</ntsc>
					                                
					</rate>
					<start>977</start>
					<end>1037</end>
					<in>977</in>
					<out>1037</out>
					<pproTicksIn>914456774963789</pproTicksIn>
					<pproTicksOut>914677708529577</pproTicksOut>
					<alphatype>straight</alphatype>
					<pixelaspectratio>square</pixelaspectratio>
					<anamorphic>FALSE</anamorphic>
					<file id="file-142">
					<name></name>
					<mediaSource>GraphicAndType</mediaSource>
					<rate>
					<timebase>60</timebase>
					<ntsc>TRUE</ntsc>
					</rate>
					<timecode>
					<rate>
					<timebase>60</timebase>
					<ntsc>TRUE</ntsc>
					</rate>
					<string>00:00:00:00</string>
					<frame>0</frame>
					<displayformat>NDF</displayformat>
					</timecode>
					<media>
					<video>
					<samplecharacteristics>
					<rate>
					<timebase>60</timebase>
					<ntsc>TRUE</ntsc>
					</rate>
					<width>1080</width>
					<height>1920</height>
					<anamorphic>FALSE</anamorphic>
					<pixelaspectratio>square</pixelaspectratio>
					<fielddominance>none</fielddominance>
					</samplecharacteristics>
					</video>
					</media>
					</file>
					<filter>
					<effect>
					<name></name>
					<effectid>GraphicAndType</effectid>
					<effectcategory>graphic</effectcategory>
					<effecttype>filter</effecttype>
					<mediatype>video</mediatype>
					<pproBypass>false</pproBypass>
					<parameter authoringApp="PremierePro">
					<parameterid>1</parameterid>
					<name></name>
					<hash>025b1101-ead6-0ca2-1feb-caf3000001fc</hash>
					<value>5AEAAAAAAABEMyIRDAAAAAAABgAKAAQABgAAAGQAAAAAAF4ASAAQAAwARABAADwAOAAAAAAAAAAAADQAMwAsAAAAKAAkACAAAAAAAAAAAAAAAAAAHAAAAAAAGgAAAAAAAAAUAAAAAAAAAAAAAAAAAAAAAAAAAAgAAAAAABsABwBeAAAAAAAAAUAAAABQAAAAbAAAAAIAAAAAAAEAAQAAAAAAQEEAAMBAAABAQAAAyEIAAAABIAAAAAIAAAACAAAAAAA2QwCASkTw/v//9P7///j+//8S////AAAAAAEAAAAEAAAAEQAAAEhHUFNvZWlLYWt1cG9wdGFpAAAAAQAAAAwAAAAIAAwABAAIAAgAAAAIAAAAUAAAAA8AAADvvIEAAAAAAAAAAAAAAAAAAAA2ACQAAAAgABwAAAAAABsAFAAAAAAAAAAAAAAAAAAAAAAAAAAAABAAAAAAAAAADAAAAAgABAA2AAAAAgAAABwAAAAcAAAAHAAAAAAAIEEAAAABaAAAAE3PAEOw////tP///wEAAAAUAAAAEAAaAAgABwAMAAAAEAAUABAAAAAAAAABHAAAAAAAoEEcAAAAAgAAAAAACgAIAAUABgAHAAoAAAAADAD//P///wQABAAEAAAACAAIAAYABwAIAAAAAAAMAA==</value>
					</parameter>
					<parameter authoringApp="PremierePro">
					<parameterid>2</parameterid>
					<name></name>
					<IsTimeVarying>false</IsTimeVarying>
					<ParameterControlType>11</ParameterControlType>
					<LowerBound>false</LowerBound>
					<UpperBound>false</UpperBound>
					<value>-91445760000000000,false,0,0,0,0,0,0</value>
					</parameter>
					<parameter authoringApp="PremierePro">
					<parameterid>3</parameterid>
					<name></name>
					<IsTimeVarying>false</IsTimeVarying>
					<value>-91445760000000000,0.5:0.5,0,0,0,0,0,0,5,4,0,0,0,0</value>
					</parameter>
					<parameter authoringApp="PremierePro">
					<parameterid>4</parameterid>
					<name></name>
					<IsTimeVarying>false</IsTimeVarying>
					<ParameterControlType>2</ParameterControlType>
					<LowerBound>0</LowerBound>
					<UpperBound>4000</UpperBound>
					<value>-91445760000000000,100.,0,0,0,0,0,0</value>
					</parameter>
					<parameter authoringApp="PremierePro">
					<parameterid>8</parameterid>
					<name></name>
					<IsTimeVarying>false</IsTimeVarying>
					<ParameterControlType>2</ParameterControlType>
					<LowerBound>0</LowerBound>
					<UpperBound>100</UpperBound>
					<value>-91445760000000000,100.,0,0,0,0,0,0</value>
					</parameter>
					</effect>
					</filter>
					<logginginfo>
					<description></description>
					<scene></scene>
					<shottake></shottake>
					<lognote></lognote>
					<good></good>
					<originalvideofilename></originalvideofilename>
					<originalaudiofilename></originalaudiofilename>
					</logginginfo>
					<colorinfo>
					<lut></lut>
					<lut1></lut1>
					<asc_sop></asc_sop>
					<asc_sat></asc_sat>
					<lut2></lut2>
					</colorinfo>
					<labels>
					</labels>
					</clipitem>
					<clipitem frameBlend="FALSE" id="clipitem-235">
					<masterclipid>masterclip-155</masterclipid>
					<name></name>
					<enabled>TRUE</enabled>
					<duration>2582774</duration>
					<rate>
					
					                                    <timebase>60</timebase>
					                                    <ntsc>TRUE</ntsc>
					                                
					</rate>
					<start>1037</start>
					<end>1097</end>
					<in>1037</in>
					<out>1097</out>
					<pproTicksIn>914456774963789</pproTicksIn>
					<pproTicksOut>914677708529577</pproTicksOut>
					<alphatype>straight</alphatype>
					<pixelaspectratio>square</pixelaspectratio>
					<anamorphic>FALSE</anamorphic>
					<file id="file-154">
					<name></name>
					<mediaSource>GraphicAndType</mediaSource>
					<rate>
					<timebase>60</timebase>
					<ntsc>TRUE</ntsc>
					</rate>
					<timecode>
					<rate>
					<timebase>60</timebase>
					<ntsc>TRUE</ntsc>
					</rate>
					<string>00:00:00:00</string>
					<frame>0</frame>
					<displayformat>NDF</displayformat>
					</timecode>
					<media>
					<video>
					<samplecharacteristics>
					<rate>
					<timebase>60</timebase>
					<ntsc>TRUE</ntsc>
					</rate>
					<width>1080</width>
					<height>1920</height>
					<anamorphic>FALSE</anamorphic>
					<pixelaspectratio>square</pixelaspectratio>
					<fielddominance>none</fielddominance>
					</samplecharacteristics>
					</video>
					</media>
					</file>
					<filter>
					<effect>
					<name></name>
					<effectid>GraphicAndType</effectid>
					<effectcategory>graphic</effectcategory>
					<effecttype>filter</effecttype>
					<mediatype>video</mediatype>
					<pproBypass>false</pproBypass>
					<parameter authoringApp="PremierePro">
					<parameterid>1</parameterid>
					<name></name>
					<hash>025b1101-ead6-0ca2-1feb-caf3000001fc</hash>
					<value>5AEAAAAAAABEMyIRDAAAAAAABgAKAAQABgAAAGQAAAAAAF4ASAAQAAwARABAADwAOAAAAAAAAAAAADQAMwAsAAAAKAAkACAAAAAAAAAAAAAAAAAAHAAAAAAAGgAAAAAAAAAUAAAAAAAAAAAAAAAAAAAAAAAAAAgAAAAAABsABwBeAAAAAAAAAUAAAABQAAAAbAAAAAIAAAAAAAEAAQAAAAAAQEEAAMBAAABAQAAAyEIAAAABIAAAAAIAAAACAAAAAAA2QwCASkTw/v//9P7///j+//8S////AAAAAAEAAAAEAAAAEQAAAEhHUFNvZWlLYWt1cG9wdGFpAAAAAQAAAAwAAAAIAAwABAAIAAgAAAAIAAAAUAAAAA8AAADvvIEAAAAAAAAAAAAAAAAAAAA2ACQAAAAgABwAAAAAABsAFAAAAAAAAAAAAAAAAAAAAAAAAAAAABAAAAAAAAAADAAAAAgABAA2AAAAAgAAABwAAAAcAAAAHAAAAAAAIEEAAAABaAAAAE3PAEOw////tP///wEAAAAUAAAAEAAaAAgABwAMAAAAEAAUABAAAAAAAAABHAAAAAAAoEEcAAAAAgAAAAAACgAIAAUABgAHAAoAAAAADAD//P///wQABAAEAAAACAAIAAYABwAIAAAAAAAMAA==</value>
					</parameter>
					<parameter authoringApp="PremierePro">
					<parameterid>2</parameterid>
					<name></name>
					<IsTimeVarying>false</IsTimeVarying>
					<ParameterControlType>11</ParameterControlType>
					<LowerBound>false</LowerBound>
					<UpperBound>false</UpperBound>
					<value>-91445760000000000,false,0,0,0,0,0,0</value>
					</parameter>
					<parameter authoringApp="PremierePro">
					<parameterid>3</parameterid>
					<name></name>
					<IsTimeVarying>false</IsTimeVarying>
					<value>-91445760000000000,0.5:0.5,0,0,0,0,0,0,5,4,0,0,0,0</value>
					</parameter>
					<parameter authoringApp="PremierePro">
					<parameterid>4</parameterid>
					<name></name>
					<IsTimeVarying>false</IsTimeVarying>
					<ParameterControlType>2</ParameterControlType>
					<LowerBound>0</LowerBound>
					<UpperBound>4000</UpperBound>
					<value>-91445760000000000,100.,0,0,0,0,0,0</value>
					</parameter>
					<parameter authoringApp="PremierePro">
					<parameterid>8</parameterid>
					<name></name>
					<IsTimeVarying>false</IsTimeVarying>
					<ParameterControlType>2</ParameterControlType>
					<LowerBound>0</LowerBound>
					<UpperBound>100</UpperBound>
					<value>-91445760000000000,100.,0,0,0,0,0,0</value>
					</parameter>
					</effect>
					</filter>
					<logginginfo>
					<description></description>
					<scene></scene>
					<shottake></shottake>
					<lognote></lognote>
					<good></good>
					<originalvideofilename></originalvideofilename>
					<originalaudiofilename></originalaudiofilename>
					</logginginfo>
					<colorinfo>
					<lut></lut>
					<lut1></lut1>
					<asc_sop></asc_sop>
					<asc_sat></asc_sat>
					<lut2></lut2>
					</colorinfo>
					<labels>
					</labels>
					</clipitem>
					<clipitem frameBlend="FALSE" id="clipitem-249">
					<masterclipid>masterclip-169</masterclipid>
					<name></name>
					<enabled>TRUE</enabled>
					<duration>2582774</duration>
					<rate>
					
					                                    <timebase>60</timebase>
					                                    <ntsc>TRUE</ntsc>
					                                
					</rate>
					<start>1193</start>
					<end>1253</end>
					<in>1193</in>
					<out>1253</out>
					<pproTicksIn>914456774963789</pproTicksIn>
					<pproTicksOut>914677708529577</pproTicksOut>
					<alphatype>straight</alphatype>
					<pixelaspectratio>square</pixelaspectratio>
					<anamorphic>FALSE</anamorphic>
					<file id="file-168">
					<name></name>
					<mediaSource>GraphicAndType</mediaSource>
					<rate>
					<timebase>60</timebase>
					<ntsc>TRUE</ntsc>
					</rate>
					<timecode>
					<rate>
					<timebase>60</timebase>
					<ntsc>TRUE</ntsc>
					</rate>
					<string>00:00:00:00</string>
					<frame>0</frame>
					<displayformat>NDF</displayformat>
					</timecode>
					<media>
					<video>
					<samplecharacteristics>
					<rate>
					<timebase>60</timebase>
					<ntsc>TRUE</ntsc>
					</rate>
					<width>1080</width>
					<height>1920</height>
					<anamorphic>FALSE</anamorphic>
					<pixelaspectratio>square</pixelaspectratio>
					<fielddominance>none</fielddominance>
					</samplecharacteristics>
					</video>
					</media>
					</file>
					<filter>
					<effect>
					<name></name>
					<effectid>GraphicAndType</effectid>
					<effectcategory>graphic</effectcategory>
					<effecttype>filter</effecttype>
					<mediatype>video</mediatype>
					<pproBypass>false</pproBypass>
					<parameter authoringApp="PremierePro">
					<parameterid>1</parameterid>
					<name></name>
					<hash>025b1101-ead6-0ca2-1feb-caf3000001fc</hash>
					<value>5AEAAAAAAABEMyIRDAAAAAAABgAKAAQABgAAAGQAAAAAAF4ASAAQAAwARABAADwAOAAAAAAAAAAAADQAMwAsAAAAKAAkACAAAAAAAAAAAAAAAAAAHAAAAAAAGgAAAAAAAAAUAAAAAAAAAAAAAAAAAAAAAAAAAAgAAAAAABsABwBeAAAAAAAAAUAAAABQAAAAbAAAAAIAAAAAAAEAAQAAAAAAQEEAAMBAAABAQAAAyEIAAAABIAAAAAIAAAACAAAAAAA2QwCASkTw/v//9P7///j+//8S////AAAAAAEAAAAEAAAAEQAAAEhHUFNvZWlLYWt1cG9wdGFpAAAAAQAAAAwAAAAIAAwABAAIAAgAAAAIAAAAUAAAAA8AAADvvIEAAAAAAAAAAAAAAAAAAAA2ACQAAAAgABwAAAAAABsAFAAAAAAAAAAAAAAAAAAAAAAAAAAAABAAAAAAAAAADAAAAAgABAA2AAAAAgAAABwAAAAcAAAAHAAAAAAAIEEAAAABaAAAAE3PAEOw////tP///wEAAAAUAAAAEAAaAAgABwAMAAAAEAAUABAAAAAAAAABHAAAAAAAoEEcAAAAAgAAAAAACgAIAAUABgAHAAoAAAAADAD//P///wQABAAEAAAACAAIAAYABwAIAAAAAAAMAA==</value>
					</parameter>
					<parameter authoringApp="PremierePro">
					<parameterid>2</parameterid>
					<name></name>
					<IsTimeVarying>false</IsTimeVarying>
					<ParameterControlType>11</ParameterControlType>
					<LowerBound>false</LowerBound>
					<UpperBound>false</UpperBound>
					<value>-91445760000000000,false,0,0,0,0,0,0</value>
					</parameter>
					<parameter authoringApp="PremierePro">
					<parameterid>3</parameterid>
					<name></name>
					<IsTimeVarying>false</IsTimeVarying>
					<value>-91445760000000000,0.5:0.5,0,0,0,0,0,0,5,4,0,0,0,0</value>
					</parameter>
					<parameter authoringApp="PremierePro">
					<parameterid>4</parameterid>
					<name></name>
					<IsTimeVarying>false</IsTimeVarying>
					<ParameterControlType>2</ParameterControlType>
					<LowerBound>0</LowerBound>
					<UpperBound>4000</UpperBound>
					<value>-91445760000000000,100.,0,0,0,0,0,0</value>
					</parameter>
					<parameter authoringApp="PremierePro">
					<parameterid>8</parameterid>
					<name></name>
					<IsTimeVarying>false</IsTimeVarying>
					<ParameterControlType>2</ParameterControlType>
					<LowerBound>0</LowerBound>
					<UpperBound>100</UpperBound>
					<value>-91445760000000000,100.,0,0,0,0,0,0</value>
					</parameter>
					</effect>
					</filter>
					<logginginfo>
					<description></description>
					<scene></scene>
					<shottake></shottake>
					<lognote></lognote>
					<good></good>
					<originalvideofilename></originalvideofilename>
					<originalaudiofilename></originalaudiofilename>
					</logginginfo>
					<colorinfo>
					<lut></lut>
					<lut1></lut1>
					<asc_sop></asc_sop>
					<asc_sat></asc_sat>
					<lut2></lut2>
					</colorinfo>
					<labels>
					</labels>
					</clipitem>
					<clipitem frameBlend="FALSE" id="clipitem-257">
					<masterclipid>masterclip-177</masterclipid>
					<name></name>
					<enabled>TRUE</enabled>
					<duration>2582774</duration>
					<rate>
					
					                                    <timebase>60</timebase>
					                                    <ntsc>TRUE</ntsc>
					                                
					</rate>
					<start>1289</start>
					<end>1349</end>
					<in>1289</in>
					<out>1349</out>
					<pproTicksIn>914456774963789</pproTicksIn>
					<pproTicksOut>914677708529577</pproTicksOut>
					<alphatype>straight</alphatype>
					<pixelaspectratio>square</pixelaspectratio>
					<anamorphic>FALSE</anamorphic>
					<file id="file-176">
					<name></name>
					<mediaSource>GraphicAndType</mediaSource>
					<rate>
					<timebase>60</timebase>
					<ntsc>TRUE</ntsc>
					</rate>
					<timecode>
					<rate>
					<timebase>60</timebase>
					<ntsc>TRUE</ntsc>
					</rate>
					<string>00:00:00:00</string>
					<frame>0</frame>
					<displayformat>NDF</displayformat>
					</timecode>
					<media>
					<video>
					<samplecharacteristics>
					<rate>
					<timebase>60</timebase>
					<ntsc>TRUE</ntsc>
					</rate>
					<width>1080</width>
					<height>1920</height>
					<anamorphic>FALSE</anamorphic>
					<pixelaspectratio>square</pixelaspectratio>
					<fielddominance>none</fielddominance>
					</samplecharacteristics>
					</video>
					</media>
					</file>
					<filter>
					<effect>
					<name></name>
					<effectid>GraphicAndType</effectid>
					<effectcategory>graphic</effectcategory>
					<effecttype>filter</effecttype>
					<mediatype>video</mediatype>
					<pproBypass>false</pproBypass>
					<parameter authoringApp="PremierePro">
					<parameterid>1</parameterid>
					<name></name>
					<hash>025b1101-ead6-0ca2-1feb-caf3000001fc</hash>
					<value>5AEAAAAAAABEMyIRDAAAAAAABgAKAAQABgAAAGQAAAAAAF4ASAAQAAwARABAADwAOAAAAAAAAAAAADQAMwAsAAAAKAAkACAAAAAAAAAAAAAAAAAAHAAAAAAAGgAAAAAAAAAUAAAAAAAAAAAAAAAAAAAAAAAAAAgAAAAAABsABwBeAAAAAAAAAUAAAABQAAAAbAAAAAIAAAAAAAEAAQAAAAAAQEEAAMBAAABAQAAAyEIAAAABIAAAAAIAAAACAAAAAAA2QwCASkTw/v//9P7///j+//8S////AAAAAAEAAAAEAAAAEQAAAEhHUFNvZWlLYWt1cG9wdGFpAAAAAQAAAAwAAAAIAAwABAAIAAgAAAAIAAAAUAAAAA8AAADvvIEAAAAAAAAAAAAAAAAAAAA2ACQAAAAgABwAAAAAABsAFAAAAAAAAAAAAAAAAAAAAAAAAAAAABAAAAAAAAAADAAAAAgABAA2AAAAAgAAABwAAAAcAAAAHAAAAAAAIEEAAAABaAAAAE3PAEOw////tP///wEAAAAUAAAAEAAaAAgABwAMAAAAEAAUABAAAAAAAAABHAAAAAAAoEEcAAAAAgAAAAAACgAIAAUABgAHAAoAAAAADAD//P///wQABAAEAAAACAAIAAYABwAIAAAAAAAMAA==</value>
					</parameter>
					<parameter authoringApp="PremierePro">
					<parameterid>2</parameterid>
					<name></name>
					<IsTimeVarying>false</IsTimeVarying>
					<ParameterControlType>11</ParameterControlType>
					<LowerBound>false</LowerBound>
					<UpperBound>false</UpperBound>
					<value>-91445760000000000,false,0,0,0,0,0,0</value>
					</parameter>
					<parameter authoringApp="PremierePro">
					<parameterid>3</parameterid>
					<name></name>
					<IsTimeVarying>false</IsTimeVarying>
					<value>-91445760000000000,0.5:0.5,0,0,0,0,0,0,5,4,0,0,0,0</value>
					</parameter>
					<parameter authoringApp="PremierePro">
					<parameterid>4</parameterid>
					<name></name>
					<IsTimeVarying>false</IsTimeVarying>
					<ParameterControlType>2</ParameterControlType>
					<LowerBound>0</LowerBound>
					<UpperBound>4000</UpperBound>
					<value>-91445760000000000,100.,0,0,0,0,0,0</value>
					</parameter>
					<parameter authoringApp="PremierePro">
					<parameterid>8</parameterid>
					<name></name>
					<IsTimeVarying>false</IsTimeVarying>
					<ParameterControlType>2</ParameterControlType>
					<LowerBound>0</LowerBound>
					<UpperBound>100</UpperBound>
					<value>-91445760000000000,100.,0,0,0,0,0,0</value>
					</parameter>
					</effect>
					</filter>
					<logginginfo>
					<description></description>
					<scene></scene>
					<shottake></shottake>
					<lognote></lognote>
					<good></good>
					<originalvideofilename></originalvideofilename>
					<originalaudiofilename></originalaudiofilename>
					</logginginfo>
					<colorinfo>
					<lut></lut>
					<lut1></lut1>
					<asc_sop></asc_sop>
					<asc_sat></asc_sat>
					<lut2></lut2>
					</colorinfo>
					<labels>
					</labels>
					</clipitem>
					<clipitem frameBlend="FALSE" id="clipitem-265">
					<masterclipid>masterclip-185</masterclipid>
					<name></name>
					<enabled>TRUE</enabled>
					<duration>2582774</duration>
					<rate>
					
					                                    <timebase>60</timebase>
					                                    <ntsc>TRUE</ntsc>
					                                
					</rate>
					<start>1367</start>
					<end>1427</end>
					<in>1367</in>
					<out>1427</out>
					<pproTicksIn>914456774963789</pproTicksIn>
					<pproTicksOut>914677708529577</pproTicksOut>
					<alphatype>straight</alphatype>
					<pixelaspectratio>square</pixelaspectratio>
					<anamorphic>FALSE</anamorphic>
					<file id="file-184">
					<name></name>
					<mediaSource>GraphicAndType</mediaSource>
					<rate>
					<timebase>60</timebase>
					<ntsc>TRUE</ntsc>
					</rate>
					<timecode>
					<rate>
					<timebase>60</timebase>
					<ntsc>TRUE</ntsc>
					</rate>
					<string>00:00:00:00</string>
					<frame>0</frame>
					<displayformat>NDF</displayformat>
					</timecode>
					<media>
					<video>
					<samplecharacteristics>
					<rate>
					<timebase>60</timebase>
					<ntsc>TRUE</ntsc>
					</rate>
					<width>1080</width>
					<height>1920</height>
					<anamorphic>FALSE</anamorphic>
					<pixelaspectratio>square</pixelaspectratio>
					<fielddominance>none</fielddominance>
					</samplecharacteristics>
					</video>
					</media>
					</file>
					<filter>
					<effect>
					<name></name>
					<effectid>GraphicAndType</effectid>
					<effectcategory>graphic</effectcategory>
					<effecttype>filter</effecttype>
					<mediatype>video</mediatype>
					<pproBypass>false</pproBypass>
					<parameter authoringApp="PremierePro">
					<parameterid>1</parameterid>
					<name></name>
					<hash>025b1101-ead6-0ca2-1feb-caf3000001fc</hash>
					<value>5AEAAAAAAABEMyIRDAAAAAAABgAKAAQABgAAAGQAAAAAAF4ASAAQAAwARABAADwAOAAAAAAAAAAAADQAMwAsAAAAKAAkACAAAAAAAAAAAAAAAAAAHAAAAAAAGgAAAAAAAAAUAAAAAAAAAAAAAAAAAAAAAAAAAAgAAAAAABsABwBeAAAAAAAAAUAAAABQAAAAbAAAAAIAAAAAAAEAAQAAAAAAQEEAAMBAAABAQAAAyEIAAAABIAAAAAIAAAACAAAAAAA2QwCASkTw/v//9P7///j+//8S////AAAAAAEAAAAEAAAAEQAAAEhHUFNvZWlLYWt1cG9wdGFpAAAAAQAAAAwAAAAIAAwABAAIAAgAAAAIAAAAUAAAAA8AAADvvIEAAAAAAAAAAAAAAAAAAAA2ACQAAAAgABwAAAAAABsAFAAAAAAAAAAAAAAAAAAAAAAAAAAAABAAAAAAAAAADAAAAAgABAA2AAAAAgAAABwAAAAcAAAAHAAAAAAAIEEAAAABaAAAAE3PAEOw////tP///wEAAAAUAAAAEAAaAAgABwAMAAAAEAAUABAAAAAAAAABHAAAAAAAoEEcAAAAAgAAAAAACgAIAAUABgAHAAoAAAAADAD//P///wQABAAEAAAACAAIAAYABwAIAAAAAAAMAA==</value>
					</parameter>
					<parameter authoringApp="PremierePro">
					<parameterid>2</parameterid>
					<name></name>
					<IsTimeVarying>false</IsTimeVarying>
					<ParameterControlType>11</ParameterControlType>
					<LowerBound>false</LowerBound>
					<UpperBound>false</UpperBound>
					<value>-91445760000000000,false,0,0,0,0,0,0</value>
					</parameter>
					<parameter authoringApp="PremierePro">
					<parameterid>3</parameterid>
					<name></name>
					<IsTimeVarying>false</IsTimeVarying>
					<value>-91445760000000000,0.5:0.5,0,0,0,0,0,0,5,4,0,0,0,0</value>
					</parameter>
					<parameter authoringApp="PremierePro">
					<parameterid>4</parameterid>
					<name></name>
					<IsTimeVarying>false</IsTimeVarying>
					<ParameterControlType>2</ParameterControlType>
					<LowerBound>0</LowerBound>
					<UpperBound>4000</UpperBound>
					<value>-91445760000000000,100.,0,0,0,0,0,0</value>
					</parameter>
					<parameter authoringApp="PremierePro">
					<parameterid>8</parameterid>
					<name></name>
					<IsTimeVarying>false</IsTimeVarying>
					<ParameterControlType>2</ParameterControlType>
					<LowerBound>0</LowerBound>
					<UpperBound>100</UpperBound>
					<value>-91445760000000000,100.,0,0,0,0,0,0</value>
					</parameter>
					</effect>
					</filter>
					<logginginfo>
					<description></description>
					<scene></scene>
					<shottake></shottake>
					<lognote></lognote>
					<good></good>
					<originalvideofilename></originalvideofilename>
					<originalaudiofilename></originalaudiofilename>
					</logginginfo>
					<colorinfo>
					<lut></lut>
					<lut1></lut1>
					<asc_sop></asc_sop>
					<asc_sat></asc_sat>
					<lut2></lut2>
					</colorinfo>
					<labels>
					</labels>
					</clipitem>
					<clipitem frameBlend="FALSE" id="clipitem-273">
					<masterclipid>masterclip-193</masterclipid>
					<name></name>
					<enabled>TRUE</enabled>
					<duration>2582774</duration>
					<rate>
					
					                                    <timebase>60</timebase>
					                                    <ntsc>TRUE</ntsc>
					                                
					</rate>
					<start>1433</start>
					<end>1493</end>
					<in>1433</in>
					<out>1493</out>
					<pproTicksIn>914456774963789</pproTicksIn>
					<pproTicksOut>914677708529577</pproTicksOut>
					<alphatype>straight</alphatype>
					<pixelaspectratio>square</pixelaspectratio>
					<anamorphic>FALSE</anamorphic>
					<file id="file-192">
					<name></name>
					<mediaSource>GraphicAndType</mediaSource>
					<rate>
					<timebase>60</timebase>
					<ntsc>TRUE</ntsc>
					</rate>
					<timecode>
					<rate>
					<timebase>60</timebase>
					<ntsc>TRUE</ntsc>
					</rate>
					<string>00:00:00:00</string>
					<frame>0</frame>
					<displayformat>NDF</displayformat>
					</timecode>
					<media>
					<video>
					<samplecharacteristics>
					<rate>
					<timebase>60</timebase>
					<ntsc>TRUE</ntsc>
					</rate>
					<width>1080</width>
					<height>1920</height>
					<anamorphic>FALSE</anamorphic>
					<pixelaspectratio>square</pixelaspectratio>
					<fielddominance>none</fielddominance>
					</samplecharacteristics>
					</video>
					</media>
					</file>
					<filter>
					<effect>
					<name></name>
					<effectid>GraphicAndType</effectid>
					<effectcategory>graphic</effectcategory>
					<effecttype>filter</effecttype>
					<mediatype>video</mediatype>
					<pproBypass>false</pproBypass>
					<parameter authoringApp="PremierePro">
					<parameterid>1</parameterid>
					<name></name>
					<hash>025b1101-ead6-0ca2-1feb-caf3000001fc</hash>
					<value>5AEAAAAAAABEMyIRDAAAAAAABgAKAAQABgAAAGQAAAAAAF4ASAAQAAwARABAADwAOAAAAAAAAAAAADQAMwAsAAAAKAAkACAAAAAAAAAAAAAAAAAAHAAAAAAAGgAAAAAAAAAUAAAAAAAAAAAAAAAAAAAAAAAAAAgAAAAAABsABwBeAAAAAAAAAUAAAABQAAAAbAAAAAIAAAAAAAEAAQAAAAAAQEEAAMBAAABAQAAAyEIAAAABIAAAAAIAAAACAAAAAAA2QwCASkTw/v//9P7///j+//8S////AAAAAAEAAAAEAAAAEQAAAEhHUFNvZWlLYWt1cG9wdGFpAAAAAQAAAAwAAAAIAAwABAAIAAgAAAAIAAAAUAAAAA8AAADvvIEAAAAAAAAAAAAAAAAAAAA2ACQAAAAgABwAAAAAABsAFAAAAAAAAAAAAAAAAAAAAAAAAAAAABAAAAAAAAAADAAAAAgABAA2AAAAAgAAABwAAAAcAAAAHAAAAAAAIEEAAAABaAAAAE3PAEOw////tP///wEAAAAUAAAAEAAaAAgABwAMAAAAEAAUABAAAAAAAAABHAAAAAAAoEEcAAAAAgAAAAAACgAIAAUABgAHAAoAAAAADAD//P///wQABAAEAAAACAAIAAYABwAIAAAAAAAMAA==</value>
					</parameter>
					<parameter authoringApp="PremierePro">
					<parameterid>2</parameterid>
					<name></name>
					<IsTimeVarying>false</IsTimeVarying>
					<ParameterControlType>11</ParameterControlType>
					<LowerBound>false</LowerBound>
					<UpperBound>false</UpperBound>
					<value>-91445760000000000,false,0,0,0,0,0,0</value>
					</parameter>
					<parameter authoringApp="PremierePro">
					<parameterid>3</parameterid>
					<name></name>
					<IsTimeVarying>false</IsTimeVarying>
					<value>-91445760000000000,0.5:0.5,0,0,0,0,0,0,5,4,0,0,0,0</value>
					</parameter>
					<parameter authoringApp="PremierePro">
					<parameterid>4</parameterid>
					<name></name>
					<IsTimeVarying>false</IsTimeVarying>
					<ParameterControlType>2</ParameterControlType>
					<LowerBound>0</LowerBound>
					<UpperBound>4000</UpperBound>
					<value>-91445760000000000,100.,0,0,0,0,0,0</value>
					</parameter>
					<parameter authoringApp="PremierePro">
					<parameterid>8</parameterid>
					<name></name>
					<IsTimeVarying>false</IsTimeVarying>
					<ParameterControlType>2</ParameterControlType>
					<LowerBound>0</LowerBound>
					<UpperBound>100</UpperBound>
					<value>-91445760000000000,100.,0,0,0,0,0,0</value>
					</parameter>
					</effect>
					</filter>
					<logginginfo>
					<description></description>
					<scene></scene>
					<shottake></shottake>
					<lognote></lognote>
					<good></good>
					<originalvideofilename></originalvideofilename>
					<originalaudiofilename></originalaudiofilename>
					</logginginfo>
					<colorinfo>
					<lut></lut>
					<lut1></lut1>
					<asc_sop></asc_sop>
					<asc_sat></asc_sat>
					<lut2></lut2>
					</colorinfo>
					<labels>
					</labels>
					</clipitem>
					<clipitem frameBlend="FALSE" id="clipitem-281">
					<masterclipid>masterclip-201</masterclipid>
					<name></name>
					<enabled>TRUE</enabled>
					<duration>2582774</duration>
					<rate>
					
					                                    <timebase>60</timebase>
					                                    <ntsc>TRUE</ntsc>
					                                
					</rate>
					<start>1529</start>
					<end>1589</end>
					<in>1529</in>
					<out>1589</out>
					<pproTicksIn>914456774963789</pproTicksIn>
					<pproTicksOut>914677708529577</pproTicksOut>
					<alphatype>straight</alphatype>
					<pixelaspectratio>square</pixelaspectratio>
					<anamorphic>FALSE</anamorphic>
					<file id="file-200">
					<name></name>
					<mediaSource>GraphicAndType</mediaSource>
					<rate>
					<timebase>60</timebase>
					<ntsc>TRUE</ntsc>
					</rate>
					<timecode>
					<rate>
					<timebase>60</timebase>
					<ntsc>TRUE</ntsc>
					</rate>
					<string>00:00:00:00</string>
					<frame>0</frame>
					<displayformat>NDF</displayformat>
					</timecode>
					<media>
					<video>
					<samplecharacteristics>
					<rate>
					<timebase>60</timebase>
					<ntsc>TRUE</ntsc>
					</rate>
					<width>1080</width>
					<height>1920</height>
					<anamorphic>FALSE</anamorphic>
					<pixelaspectratio>square</pixelaspectratio>
					<fielddominance>none</fielddominance>
					</samplecharacteristics>
					</video>
					</media>
					</file>
					<filter>
					<effect>
					<name></name>
					<effectid>GraphicAndType</effectid>
					<effectcategory>graphic</effectcategory>
					<effecttype>filter</effecttype>
					<mediatype>video</mediatype>
					<pproBypass>false</pproBypass>
					<parameter authoringApp="PremierePro">
					<parameterid>1</parameterid>
					<name></name>
					<hash>025b1101-ead6-0ca2-1feb-caf3000001fc</hash>
					<value>5AEAAAAAAABEMyIRDAAAAAAABgAKAAQABgAAAGQAAAAAAF4ASAAQAAwARABAADwAOAAAAAAAAAAAADQAMwAsAAAAKAAkACAAAAAAAAAAAAAAAAAAHAAAAAAAGgAAAAAAAAAUAAAAAAAAAAAAAAAAAAAAAAAAAAgAAAAAABsABwBeAAAAAAAAAUAAAABQAAAAbAAAAAIAAAAAAAEAAQAAAAAAQEEAAMBAAABAQAAAyEIAAAABIAAAAAIAAAACAAAAAAA2QwCASkTw/v//9P7///j+//8S////AAAAAAEAAAAEAAAAEQAAAEhHUFNvZWlLYWt1cG9wdGFpAAAAAQAAAAwAAAAIAAwABAAIAAgAAAAIAAAAUAAAAA8AAADvvIEAAAAAAAAAAAAAAAAAAAA2ACQAAAAgABwAAAAAABsAFAAAAAAAAAAAAAAAAAAAAAAAAAAAABAAAAAAAAAADAAAAAgABAA2AAAAAgAAABwAAAAcAAAAHAAAAAAAIEEAAAABaAAAAE3PAEOw////tP///wEAAAAUAAAAEAAaAAgABwAMAAAAEAAUABAAAAAAAAABHAAAAAAAoEEcAAAAAgAAAAAACgAIAAUABgAHAAoAAAAADAD//P///wQABAAEAAAACAAIAAYABwAIAAAAAAAMAA==</value>
					</parameter>
					<parameter authoringApp="PremierePro">
					<parameterid>2</parameterid>
					<name></name>
					<IsTimeVarying>false</IsTimeVarying>
					<ParameterControlType>11</ParameterControlType>
					<LowerBound>false</LowerBound>
					<UpperBound>false</UpperBound>
					<value>-91445760000000000,false,0,0,0,0,0,0</value>
					</parameter>
					<parameter authoringApp="PremierePro">
					<parameterid>3</parameterid>
					<name></name>
					<IsTimeVarying>false</IsTimeVarying>
					<value>-91445760000000000,0.5:0.5,0,0,0,0,0,0,5,4,0,0,0,0</value>
					</parameter>
					<parameter authoringApp="PremierePro">
					<parameterid>4</parameterid>
					<name></name>
					<IsTimeVarying>false</IsTimeVarying>
					<ParameterControlType>2</ParameterControlType>
					<LowerBound>0</LowerBound>
					<UpperBound>4000</UpperBound>
					<value>-91445760000000000,100.,0,0,0,0,0,0</value>
					</parameter>
					<parameter authoringApp="PremierePro">
					<parameterid>8</parameterid>
					<name></name>
					<IsTimeVarying>false</IsTimeVarying>
					<ParameterControlType>2</ParameterControlType>
					<LowerBound>0</LowerBound>
					<UpperBound>100</UpperBound>
					<value>-91445760000000000,100.,0,0,0,0,0,0</value>
					</parameter>
					</effect>
					</filter>
					<logginginfo>
					<description></description>
					<scene></scene>
					<shottake></shottake>
					<lognote></lognote>
					<good></good>
					<originalvideofilename></originalvideofilename>
					<originalaudiofilename></originalaudiofilename>
					</logginginfo>
					<colorinfo>
					<lut></lut>
					<lut1></lut1>
					<asc_sop></asc_sop>
					<asc_sat></asc_sat>
					<lut2></lut2>
					</colorinfo>
					<labels>
					</labels>
					</clipitem>
					<clipitem frameBlend="FALSE" id="clipitem-290">
					<masterclipid>masterclip-210</masterclipid>
					<name></name>
					<enabled>TRUE</enabled>
					<duration>2582774</duration>
					<rate>
					
					                                    <timebase>60</timebase>
					                                    <ntsc>TRUE</ntsc>
					                                
					</rate>
					<start>1613</start>
					<end>1673</end>
					<in>1613</in>
					<out>1673</out>
					<pproTicksIn>914456774963789</pproTicksIn>
					<pproTicksOut>914677708529577</pproTicksOut>
					<alphatype>straight</alphatype>
					<pixelaspectratio>square</pixelaspectratio>
					<anamorphic>FALSE</anamorphic>
					<file id="file-209">
					<name></name>
					<mediaSource>GraphicAndType</mediaSource>
					<rate>
					<timebase>60</timebase>
					<ntsc>TRUE</ntsc>
					</rate>
					<timecode>
					<rate>
					<timebase>60</timebase>
					<ntsc>TRUE</ntsc>
					</rate>
					<string>00:00:00:00</string>
					<frame>0</frame>
					<displayformat>NDF</displayformat>
					</timecode>
					<media>
					<video>
					<samplecharacteristics>
					<rate>
					<timebase>60</timebase>
					<ntsc>TRUE</ntsc>
					</rate>
					<width>1080</width>
					<height>1920</height>
					<anamorphic>FALSE</anamorphic>
					<pixelaspectratio>square</pixelaspectratio>
					<fielddominance>none</fielddominance>
					</samplecharacteristics>
					</video>
					</media>
					</file>
					<filter>
					<effect>
					<name></name>
					<effectid>GraphicAndType</effectid>
					<effectcategory>graphic</effectcategory>
					<effecttype>filter</effecttype>
					<mediatype>video</mediatype>
					<pproBypass>false</pproBypass>
					<parameter authoringApp="PremierePro">
					<parameterid>1</parameterid>
					<name></name>
					<hash>025b1101-ead6-0ca2-1feb-caf3000001fc</hash>
					<value>5AEAAAAAAABEMyIRDAAAAAAABgAKAAQABgAAAGQAAAAAAF4ASAAQAAwARABAADwAOAAAAAAAAAAAADQAMwAsAAAAKAAkACAAAAAAAAAAAAAAAAAAHAAAAAAAGgAAAAAAAAAUAAAAAAAAAAAAAAAAAAAAAAAAAAgAAAAAABsABwBeAAAAAAAAAUAAAABQAAAAbAAAAAIAAAAAAAEAAQAAAAAAQEEAAMBAAABAQAAAyEIAAAABIAAAAAIAAAACAAAAAAA2QwCASkTw/v//9P7///j+//8S////AAAAAAEAAAAEAAAAEQAAAEhHUFNvZWlLYWt1cG9wdGFpAAAAAQAAAAwAAAAIAAwABAAIAAgAAAAIAAAAUAAAAA8AAADvvIEAAAAAAAAAAAAAAAAAAAA2ACQAAAAgABwAAAAAABsAFAAAAAAAAAAAAAAAAAAAAAAAAAAAABAAAAAAAAAADAAAAAgABAA2AAAAAgAAABwAAAAcAAAAHAAAAAAAIEEAAAABaAAAAE3PAEOw////tP///wEAAAAUAAAAEAAaAAgABwAMAAAAEAAUABAAAAAAAAABHAAAAAAAoEEcAAAAAgAAAAAACgAIAAUABgAHAAoAAAAADAD//P///wQABAAEAAAACAAIAAYABwAIAAAAAAAMAA==</value>
					</parameter>
					<parameter authoringApp="PremierePro">
					<parameterid>2</parameterid>
					<name></name>
					<IsTimeVarying>false</IsTimeVarying>
					<ParameterControlType>11</ParameterControlType>
					<LowerBound>false</LowerBound>
					<UpperBound>false</UpperBound>
					<value>-91445760000000000,false,0,0,0,0,0,0</value>
					</parameter>
					<parameter authoringApp="PremierePro">
					<parameterid>3</parameterid>
					<name></name>
					<IsTimeVarying>false</IsTimeVarying>
					<value>-91445760000000000,0.5:0.5,0,0,0,0,0,0,5,4,0,0,0,0</value>
					</parameter>
					<parameter authoringApp="PremierePro">
					<parameterid>4</parameterid>
					<name></name>
					<IsTimeVarying>false</IsTimeVarying>
					<ParameterControlType>2</ParameterControlType>
					<LowerBound>0</LowerBound>
					<UpperBound>4000</UpperBound>
					<value>-91445760000000000,100.,0,0,0,0,0,0</value>
					</parameter>
					<parameter authoringApp="PremierePro">
					<parameterid>8</parameterid>
					<name></name>
					<IsTimeVarying>false</IsTimeVarying>
					<ParameterControlType>2</ParameterControlType>
					<LowerBound>0</LowerBound>
					<UpperBound>100</UpperBound>
					<value>-91445760000000000,100.,0,0,0,0,0,0</value>
					</parameter>
					</effect>
					</filter>
					<logginginfo>
					<description></description>
					<scene></scene>
					<shottake></shottake>
					<lognote></lognote>
					<good></good>
					<originalvideofilename></originalvideofilename>
					<originalaudiofilename></originalaudiofilename>
					</logginginfo>
					<colorinfo>
					<lut></lut>
					<lut1></lut1>
					<asc_sop></asc_sop>
					<asc_sat></asc_sat>
					<lut2></lut2>
					</colorinfo>
					<labels>
					</labels>
					</clipitem>
					<clipitem frameBlend="FALSE" id="clipitem-302">
					<masterclipid>masterclip-222</masterclipid>
					<name></name>
					<enabled>TRUE</enabled>
					<duration>2582774</duration>
					<rate>
					
					                                    <timebase>60</timebase>
					                                    <ntsc>TRUE</ntsc>
					                                
					</rate>
					<start>1733</start>
					<end>1799</end>
					<in>1733</in>
					<out>1799</out>
					<pproTicksIn>914456774963789</pproTicksIn>
					<pproTicksOut>914677708529577</pproTicksOut>
					<alphatype>straight</alphatype>
					<pixelaspectratio>square</pixelaspectratio>
					<anamorphic>FALSE</anamorphic>
					<file id="file-221">
					<name></name>
					<mediaSource>GraphicAndType</mediaSource>
					<rate>
					<timebase>60</timebase>
					<ntsc>TRUE</ntsc>
					</rate>
					<timecode>
					<rate>
					<timebase>60</timebase>
					<ntsc>TRUE</ntsc>
					</rate>
					<string>00:00:00:00</string>
					<frame>0</frame>
					<displayformat>NDF</displayformat>
					</timecode>
					<media>
					<video>
					<samplecharacteristics>
					<rate>
					<timebase>60</timebase>
					<ntsc>TRUE</ntsc>
					</rate>
					<width>1080</width>
					<height>1920</height>
					<anamorphic>FALSE</anamorphic>
					<pixelaspectratio>square</pixelaspectratio>
					<fielddominance>none</fielddominance>
					</samplecharacteristics>
					</video>
					</media>
					</file>
					<filter>
					<effect>
					<name></name>
					<effectid>GraphicAndType</effectid>
					<effectcategory>graphic</effectcategory>
					<effecttype>filter</effecttype>
					<mediatype>video</mediatype>
					<pproBypass>false</pproBypass>
					<parameter authoringApp="PremierePro">
					<parameterid>1</parameterid>
					<name></name>
					<hash>025b1101-ead6-0ca2-1feb-caf3000001fc</hash>
					<value>5AEAAAAAAABEMyIRDAAAAAAABgAKAAQABgAAAGQAAAAAAF4ASAAQAAwARABAADwAOAAAAAAAAAAAADQAMwAsAAAAKAAkACAAAAAAAAAAAAAAAAAAHAAAAAAAGgAAAAAAAAAUAAAAAAAAAAAAAAAAAAAAAAAAAAgAAAAAABsABwBeAAAAAAAAAUAAAABQAAAAbAAAAAIAAAAAAAEAAQAAAAAAQEEAAMBAAABAQAAAyEIAAAABIAAAAAIAAAACAAAAAAA2QwCASkTw/v//9P7///j+//8S////AAAAAAEAAAAEAAAAEQAAAEhHUFNvZWlLYWt1cG9wdGFpAAAAAQAAAAwAAAAIAAwABAAIAAgAAAAIAAAAUAAAAA8AAADvvIEAAAAAAAAAAAAAAAAAAAA2ACQAAAAgABwAAAAAABsAFAAAAAAAAAAAAAAAAAAAAAAAAAAAABAAAAAAAAAADAAAAAgABAA2AAAAAgAAABwAAAAcAAAAHAAAAAAAIEEAAAABaAAAAE3PAEOw////tP///wEAAAAUAAAAEAAaAAgABwAMAAAAEAAUABAAAAAAAAABHAAAAAAAoEEcAAAAAgAAAAAACgAIAAUABgAHAAoAAAAADAD//P///wQABAAEAAAACAAIAAYABwAIAAAAAAAMAA==</value>
					</parameter>
					<parameter authoringApp="PremierePro">
					<parameterid>2</parameterid>
					<name></name>
					<IsTimeVarying>false</IsTimeVarying>
					<ParameterControlType>11</ParameterControlType>
					<LowerBound>false</LowerBound>
					<UpperBound>false</UpperBound>
					<value>-91445760000000000,false,0,0,0,0,0,0</value>
					</parameter>
					<parameter authoringApp="PremierePro">
					<parameterid>3</parameterid>
					<name></name>
					<IsTimeVarying>false</IsTimeVarying>
					<value>-91445760000000000,0.5:0.5,0,0,0,0,0,0,5,4,0,0,0,0</value>
					</parameter>
					<parameter authoringApp="PremierePro">
					<parameterid>4</parameterid>
					<name></name>
					<IsTimeVarying>false</IsTimeVarying>
					<ParameterControlType>2</ParameterControlType>
					<LowerBound>0</LowerBound>
					<UpperBound>4000</UpperBound>
					<value>-91445760000000000,100.,0,0,0,0,0,0</value>
					</parameter>
					<parameter authoringApp="PremierePro">
					<parameterid>8</parameterid>
					<name></name>
					<IsTimeVarying>false</IsTimeVarying>
					<ParameterControlType>2</ParameterControlType>
					<LowerBound>0</LowerBound>
					<UpperBound>100</UpperBound>
					<value>-91445760000000000,100.,0,0,0,0,0,0</value>
					</parameter>
					</effect>
					</filter>
					<logginginfo>
					<description></description>
					<scene></scene>
					<shottake></shottake>
					<lognote></lognote>
					<good></good>
					<originalvideofilename></originalvideofilename>
					<originalaudiofilename></originalaudiofilename>
					</logginginfo>
					<colorinfo>
					<lut></lut>
					<lut1></lut1>
					<asc_sop></asc_sop>
					<asc_sat></asc_sat>
					<lut2></lut2>
					</colorinfo>
					<labels>
					</labels>
					</clipitem>
					<clipitem frameBlend="FALSE" id="clipitem-311">
					<masterclipid>masterclip-231</masterclipid>
					<name></name>
					<enabled>TRUE</enabled>
					<duration>2582774</duration>
					<rate>
					
					                                    <timebase>60</timebase>
					                                    <ntsc>TRUE</ntsc>
					                                
					</rate>
					<start>1799</start>
					<end>1859</end>
					<in>1799</in>
					<out>1859</out>
					<pproTicksIn>914456774963789</pproTicksIn>
					<pproTicksOut>914677708529577</pproTicksOut>
					<alphatype>straight</alphatype>
					<pixelaspectratio>square</pixelaspectratio>
					<anamorphic>FALSE</anamorphic>
					<file id="file-230">
					<name></name>
					<mediaSource>GraphicAndType</mediaSource>
					<rate>
					<timebase>60</timebase>
					<ntsc>TRUE</ntsc>
					</rate>
					<timecode>
					<rate>
					<timebase>60</timebase>
					<ntsc>TRUE</ntsc>
					</rate>
					<string>00:00:00:00</string>
					<frame>0</frame>
					<displayformat>NDF</displayformat>
					</timecode>
					<media>
					<video>
					<samplecharacteristics>
					<rate>
					<timebase>60</timebase>
					<ntsc>TRUE</ntsc>
					</rate>
					<width>1080</width>
					<height>1920</height>
					<anamorphic>FALSE</anamorphic>
					<pixelaspectratio>square</pixelaspectratio>
					<fielddominance>none</fielddominance>
					</samplecharacteristics>
					</video>
					</media>
					</file>
					<filter>
					<effect>
					<name></name>
					<effectid>GraphicAndType</effectid>
					<effectcategory>graphic</effectcategory>
					<effecttype>filter</effecttype>
					<mediatype>video</mediatype>
					<pproBypass>false</pproBypass>
					<parameter authoringApp="PremierePro">
					<parameterid>1</parameterid>
					<name></name>
					<hash>025b1101-ead6-0ca2-1feb-caf3000001fc</hash>
					<value>5AEAAAAAAABEMyIRDAAAAAAABgAKAAQABgAAAGQAAAAAAF4ASAAQAAwARABAADwAOAAAAAAAAAAAADQAMwAsAAAAKAAkACAAAAAAAAAAAAAAAAAAHAAAAAAAGgAAAAAAAAAUAAAAAAAAAAAAAAAAAAAAAAAAAAgAAAAAABsABwBeAAAAAAAAAUAAAABQAAAAbAAAAAIAAAAAAAEAAQAAAAAAQEEAAMBAAABAQAAAyEIAAAABIAAAAAIAAAACAAAAAAA2QwCASkTw/v//9P7///j+//8S////AAAAAAEAAAAEAAAAEQAAAEhHUFNvZWlLYWt1cG9wdGFpAAAAAQAAAAwAAAAIAAwABAAIAAgAAAAIAAAAUAAAAA8AAADvvIEAAAAAAAAAAAAAAAAAAAA2ACQAAAAgABwAAAAAABsAFAAAAAAAAAAAAAAAAAAAAAAAAAAAABAAAAAAAAAADAAAAAgABAA2AAAAAgAAABwAAAAcAAAAHAAAAAAAIEEAAAABaAAAAE3PAEOw////tP///wEAAAAUAAAAEAAaAAgABwAMAAAAEAAUABAAAAAAAAABHAAAAAAAoEEcAAAAAgAAAAAACgAIAAUABgAHAAoAAAAADAD//P///wQABAAEAAAACAAIAAYABwAIAAAAAAAMAA==</value>
					</parameter>
					<parameter authoringApp="PremierePro">
					<parameterid>2</parameterid>
					<name></name>
					<IsTimeVarying>false</IsTimeVarying>
					<ParameterControlType>11</ParameterControlType>
					<LowerBound>false</LowerBound>
					<UpperBound>false</UpperBound>
					<value>-91445760000000000,false,0,0,0,0,0,0</value>
					</parameter>
					<parameter authoringApp="PremierePro">
					<parameterid>3</parameterid>
					<name></name>
					<IsTimeVarying>false</IsTimeVarying>
					<value>-91445760000000000,0.5:0.5,0,0,0,0,0,0,5,4,0,0,0,0</value>
					</parameter>
					<parameter authoringApp="PremierePro">
					<parameterid>4</parameterid>
					<name></name>
					<IsTimeVarying>false</IsTimeVarying>
					<ParameterControlType>2</ParameterControlType>
					<LowerBound>0</LowerBound>
					<UpperBound>4000</UpperBound>
					<value>-91445760000000000,100.,0,0,0,0,0,0</value>
					</parameter>
					<parameter authoringApp="PremierePro">
					<parameterid>8</parameterid>
					<name></name>
					<IsTimeVarying>false</IsTimeVarying>
					<ParameterControlType>2</ParameterControlType>
					<LowerBound>0</LowerBound>
					<UpperBound>100</UpperBound>
					<value>-91445760000000000,100.,0,0,0,0,0,0</value>
					</parameter>
					</effect>
					</filter>
					<logginginfo>
					<description></description>
					<scene></scene>
					<shottake></shottake>
					<lognote></lognote>
					<good></good>
					<originalvideofilename></originalvideofilename>
					<originalaudiofilename></originalaudiofilename>
					</logginginfo>
					<colorinfo>
					<lut></lut>
					<lut1></lut1>
					<asc_sop></asc_sop>
					<asc_sat></asc_sat>
					<lut2></lut2>
					</colorinfo>
					<labels>
					</labels>
					</clipitem>
					<clipitem frameBlend="FALSE" id="clipitem-324">
					<masterclipid>masterclip-244</masterclipid>
					<name></name>
					<enabled>TRUE</enabled>
					<duration>2582774</duration>
					<rate>
					
					                                    <timebase>60</timebase>
					                                    <ntsc>TRUE</ntsc>
					                                
					</rate>
					<start>1913</start>
					<end>1973</end>
					<in>1913</in>
					<out>1973</out>
					<pproTicksIn>914456774963789</pproTicksIn>
					<pproTicksOut>914677708529577</pproTicksOut>
					<alphatype>straight</alphatype>
					<pixelaspectratio>square</pixelaspectratio>
					<anamorphic>FALSE</anamorphic>
					<file id="file-243">
					<name></name>
					<mediaSource>GraphicAndType</mediaSource>
					<rate>
					<timebase>60</timebase>
					<ntsc>TRUE</ntsc>
					</rate>
					<timecode>
					<rate>
					<timebase>60</timebase>
					<ntsc>TRUE</ntsc>
					</rate>
					<string>00:00:00:00</string>
					<frame>0</frame>
					<displayformat>NDF</displayformat>
					</timecode>
					<media>
					<video>
					<samplecharacteristics>
					<rate>
					<timebase>60</timebase>
					<ntsc>TRUE</ntsc>
					</rate>
					<width>1080</width>
					<height>1920</height>
					<anamorphic>FALSE</anamorphic>
					<pixelaspectratio>square</pixelaspectratio>
					<fielddominance>none</fielddominance>
					</samplecharacteristics>
					</video>
					</media>
					</file>
					<filter>
					<effect>
					<name></name>
					<effectid>GraphicAndType</effectid>
					<effectcategory>graphic</effectcategory>
					<effecttype>filter</effecttype>
					<mediatype>video</mediatype>
					<pproBypass>false</pproBypass>
					<parameter authoringApp="PremierePro">
					<parameterid>1</parameterid>
					<name></name>
					<hash>025b1101-ead6-0ca2-1feb-caf3000001fc</hash>
					<value>5AEAAAAAAABEMyIRDAAAAAAABgAKAAQABgAAAGQAAAAAAF4ASAAQAAwARABAADwAOAAAAAAAAAAAADQAMwAsAAAAKAAkACAAAAAAAAAAAAAAAAAAHAAAAAAAGgAAAAAAAAAUAAAAAAAAAAAAAAAAAAAAAAAAAAgAAAAAABsABwBeAAAAAAAAAUAAAABQAAAAbAAAAAIAAAAAAAEAAQAAAAAAQEEAAMBAAABAQAAAyEIAAAABIAAAAAIAAAACAAAAAAA2QwCASkTw/v//9P7///j+//8S////AAAAAAEAAAAEAAAAEQAAAEhHUFNvZWlLYWt1cG9wdGFpAAAAAQAAAAwAAAAIAAwABAAIAAgAAAAIAAAAUAAAAA8AAADvvIEAAAAAAAAAAAAAAAAAAAA2ACQAAAAgABwAAAAAABsAFAAAAAAAAAAAAAAAAAAAAAAAAAAAABAAAAAAAAAADAAAAAgABAA2AAAAAgAAABwAAAAcAAAAHAAAAAAAIEEAAAABaAAAAE3PAEOw////tP///wEAAAAUAAAAEAAaAAgABwAMAAAAEAAUABAAAAAAAAABHAAAAAAAoEEcAAAAAgAAAAAACgAIAAUABgAHAAoAAAAADAD//P///wQABAAEAAAACAAIAAYABwAIAAAAAAAMAA==</value>
					</parameter>
					<parameter authoringApp="PremierePro">
					<parameterid>2</parameterid>
					<name></name>
					<IsTimeVarying>false</IsTimeVarying>
					<ParameterControlType>11</ParameterControlType>
					<LowerBound>false</LowerBound>
					<UpperBound>false</UpperBound>
					<value>-91445760000000000,false,0,0,0,0,0,0</value>
					</parameter>
					<parameter authoringApp="PremierePro">
					<parameterid>3</parameterid>
					<name></name>
					<IsTimeVarying>false</IsTimeVarying>
					<value>-91445760000000000,0.5:0.5,0,0,0,0,0,0,5,4,0,0,0,0</value>
					</parameter>
					<parameter authoringApp="PremierePro">
					<parameterid>4</parameterid>
					<name></name>
					<IsTimeVarying>false</IsTimeVarying>
					<ParameterControlType>2</ParameterControlType>
					<LowerBound>0</LowerBound>
					<UpperBound>4000</UpperBound>
					<value>-91445760000000000,100.,0,0,0,0,0,0</value>
					</parameter>
					<parameter authoringApp="PremierePro">
					<parameterid>8</parameterid>
					<name></name>
					<IsTimeVarying>false</IsTimeVarying>
					<ParameterControlType>2</ParameterControlType>
					<LowerBound>0</LowerBound>
					<UpperBound>100</UpperBound>
					<value>-91445760000000000,100.,0,0,0,0,0,0</value>
					</parameter>
					</effect>
					</filter>
					<logginginfo>
					<description></description>
					<scene></scene>
					<shottake></shottake>
					<lognote></lognote>
					<good></good>
					<originalvideofilename></originalvideofilename>
					<originalaudiofilename></originalaudiofilename>
					</logginginfo>
					<colorinfo>
					<lut></lut>
					<lut1></lut1>
					<asc_sop></asc_sop>
					<asc_sat></asc_sat>
					<lut2></lut2>
					</colorinfo>
					<labels>
					</labels>
					</clipitem>
					<clipitem frameBlend="FALSE" id="clipitem-333">
					<masterclipid>masterclip-253</masterclipid>
					<name></name>
					<enabled>TRUE</enabled>
					<duration>2582774</duration>
					<rate>
					
					                                    <timebase>60</timebase>
					                                    <ntsc>TRUE</ntsc>
					                                
					</rate>
					<start>1991</start>
					<end>2051</end>
					<in>1991</in>
					<out>2051</out>
					<pproTicksIn>914456774963789</pproTicksIn>
					<pproTicksOut>914677708529577</pproTicksOut>
					<alphatype>straight</alphatype>
					<pixelaspectratio>square</pixelaspectratio>
					<anamorphic>FALSE</anamorphic>
					<file id="file-252">
					<name></name>
					<mediaSource>GraphicAndType</mediaSource>
					<rate>
					<timebase>60</timebase>
					<ntsc>TRUE</ntsc>
					</rate>
					<timecode>
					<rate>
					<timebase>60</timebase>
					<ntsc>TRUE</ntsc>
					</rate>
					<string>00:00:00:00</string>
					<frame>0</frame>
					<displayformat>NDF</displayformat>
					</timecode>
					<media>
					<video>
					<samplecharacteristics>
					<rate>
					<timebase>60</timebase>
					<ntsc>TRUE</ntsc>
					</rate>
					<width>1080</width>
					<height>1920</height>
					<anamorphic>FALSE</anamorphic>
					<pixelaspectratio>square</pixelaspectratio>
					<fielddominance>none</fielddominance>
					</samplecharacteristics>
					</video>
					</media>
					</file>
					<filter>
					<effect>
					<name></name>
					<effectid>GraphicAndType</effectid>
					<effectcategory>graphic</effectcategory>
					<effecttype>filter</effecttype>
					<mediatype>video</mediatype>
					<pproBypass>false</pproBypass>
					<parameter authoringApp="PremierePro">
					<parameterid>1</parameterid>
					<name></name>
					<hash>025b1101-ead6-0ca2-1feb-caf3000001fc</hash>
					<value>5AEAAAAAAABEMyIRDAAAAAAABgAKAAQABgAAAGQAAAAAAF4ASAAQAAwARABAADwAOAAAAAAAAAAAADQAMwAsAAAAKAAkACAAAAAAAAAAAAAAAAAAHAAAAAAAGgAAAAAAAAAUAAAAAAAAAAAAAAAAAAAAAAAAAAgAAAAAABsABwBeAAAAAAAAAUAAAABQAAAAbAAAAAIAAAAAAAEAAQAAAAAAQEEAAMBAAABAQAAAyEIAAAABIAAAAAIAAAACAAAAAAA2QwCASkTw/v//9P7///j+//8S////AAAAAAEAAAAEAAAAEQAAAEhHUFNvZWlLYWt1cG9wdGFpAAAAAQAAAAwAAAAIAAwABAAIAAgAAAAIAAAAUAAAAA8AAADvvIEAAAAAAAAAAAAAAAAAAAA2ACQAAAAgABwAAAAAABsAFAAAAAAAAAAAAAAAAAAAAAAAAAAAABAAAAAAAAAADAAAAAgABAA2AAAAAgAAABwAAAAcAAAAHAAAAAAAIEEAAAABaAAAAE3PAEOw////tP///wEAAAAUAAAAEAAaAAgABwAMAAAAEAAUABAAAAAAAAABHAAAAAAAoEEcAAAAAgAAAAAACgAIAAUABgAHAAoAAAAADAD//P///wQABAAEAAAACAAIAAYABwAIAAAAAAAMAA==</value>
					</parameter>
					<parameter authoringApp="PremierePro">
					<parameterid>2</parameterid>
					<name></name>
					<IsTimeVarying>false</IsTimeVarying>
					<ParameterControlType>11</ParameterControlType>
					<LowerBound>false</LowerBound>
					<UpperBound>false</UpperBound>
					<value>-91445760000000000,false,0,0,0,0,0,0</value>
					</parameter>
					<parameter authoringApp="PremierePro">
					<parameterid>3</parameterid>
					<name></name>
					<IsTimeVarying>false</IsTimeVarying>
					<value>-91445760000000000,0.5:0.5,0,0,0,0,0,0,5,4,0,0,0,0</value>
					</parameter>
					<parameter authoringApp="PremierePro">
					<parameterid>4</parameterid>
					<name></name>
					<IsTimeVarying>false</IsTimeVarying>
					<ParameterControlType>2</ParameterControlType>
					<LowerBound>0</LowerBound>
					<UpperBound>4000</UpperBound>
					<value>-91445760000000000,100.,0,0,0,0,0,0</value>
					</parameter>
					<parameter authoringApp="PremierePro">
					<parameterid>8</parameterid>
					<name></name>
					<IsTimeVarying>false</IsTimeVarying>
					<ParameterControlType>2</ParameterControlType>
					<LowerBound>0</LowerBound>
					<UpperBound>100</UpperBound>
					<value>-91445760000000000,100.,0,0,0,0,0,0</value>
					</parameter>
					</effect>
					</filter>
					<logginginfo>
					<description></description>
					<scene></scene>
					<shottake></shottake>
					<lognote></lognote>
					<good></good>
					<originalvideofilename></originalvideofilename>
					<originalaudiofilename></originalaudiofilename>
					</logginginfo>
					<colorinfo>
					<lut></lut>
					<lut1></lut1>
					<asc_sop></asc_sop>
					<asc_sat></asc_sat>
					<lut2></lut2>
					</colorinfo>
					<labels>
					</labels>
					</clipitem>
					<clipitem frameBlend="FALSE" id="clipitem-344">
					<masterclipid>masterclip-264</masterclipid>
					<name></name>
					<enabled>TRUE</enabled>
					<duration>2582774</duration>
					<rate>
					
					                                    <timebase>60</timebase>
					                                    <ntsc>TRUE</ntsc>
					                                
					</rate>
					<start>2183</start>
					<end>2243</end>
					<in>2183</in>
					<out>2243</out>
					<pproTicksIn>914456774963789</pproTicksIn>
					<pproTicksOut>914677708529577</pproTicksOut>
					<alphatype>straight</alphatype>
					<pixelaspectratio>square</pixelaspectratio>
					<anamorphic>FALSE</anamorphic>
					<file id="file-263">
					<name></name>
					<mediaSource>GraphicAndType</mediaSource>
					<rate>
					<timebase>60</timebase>
					<ntsc>TRUE</ntsc>
					</rate>
					<timecode>
					<rate>
					<timebase>60</timebase>
					<ntsc>TRUE</ntsc>
					</rate>
					<string>00:00:00:00</string>
					<frame>0</frame>
					<displayformat>NDF</displayformat>
					</timecode>
					<media>
					<video>
					<samplecharacteristics>
					<rate>
					<timebase>60</timebase>
					<ntsc>TRUE</ntsc>
					</rate>
					<width>1080</width>
					<height>1920</height>
					<anamorphic>FALSE</anamorphic>
					<pixelaspectratio>square</pixelaspectratio>
					<fielddominance>none</fielddominance>
					</samplecharacteristics>
					</video>
					</media>
					</file>
					<filter>
					<effect>
					<name></name>
					<effectid>GraphicAndType</effectid>
					<effectcategory>graphic</effectcategory>
					<effecttype>filter</effecttype>
					<mediatype>video</mediatype>
					<pproBypass>false</pproBypass>
					<parameter authoringApp="PremierePro">
					<parameterid>1</parameterid>
					<name></name>
					<hash>025b1101-ead6-0ca2-1feb-caf3000001fc</hash>
					<value>5AEAAAAAAABEMyIRDAAAAAAABgAKAAQABgAAAGQAAAAAAF4ASAAQAAwARABAADwAOAAAAAAAAAAAADQAMwAsAAAAKAAkACAAAAAAAAAAAAAAAAAAHAAAAAAAGgAAAAAAAAAUAAAAAAAAAAAAAAAAAAAAAAAAAAgAAAAAABsABwBeAAAAAAAAAUAAAABQAAAAbAAAAAIAAAAAAAEAAQAAAAAAQEEAAMBAAABAQAAAyEIAAAABIAAAAAIAAAACAAAAAAA2QwCASkTw/v//9P7///j+//8S////AAAAAAEAAAAEAAAAEQAAAEhHUFNvZWlLYWt1cG9wdGFpAAAAAQAAAAwAAAAIAAwABAAIAAgAAAAIAAAAUAAAAA8AAADvvIEAAAAAAAAAAAAAAAAAAAA2ACQAAAAgABwAAAAAABsAFAAAAAAAAAAAAAAAAAAAAAAAAAAAABAAAAAAAAAADAAAAAgABAA2AAAAAgAAABwAAAAcAAAAHAAAAAAAIEEAAAABaAAAAE3PAEOw////tP///wEAAAAUAAAAEAAaAAgABwAMAAAAEAAUABAAAAAAAAABHAAAAAAAoEEcAAAAAgAAAAAACgAIAAUABgAHAAoAAAAADAD//P///wQABAAEAAAACAAIAAYABwAIAAAAAAAMAA==</value>
					</parameter>
					<parameter authoringApp="PremierePro">
					<parameterid>2</parameterid>
					<name></name>
					<IsTimeVarying>false</IsTimeVarying>
					<ParameterControlType>11</ParameterControlType>
					<LowerBound>false</LowerBound>
					<UpperBound>false</UpperBound>
					<value>-91445760000000000,false,0,0,0,0,0,0</value>
					</parameter>
					<parameter authoringApp="PremierePro">
					<parameterid>3</parameterid>
					<name></name>
					<IsTimeVarying>false</IsTimeVarying>
					<value>-91445760000000000,0.5:0.5,0,0,0,0,0,0,5,4,0,0,0,0</value>
					</parameter>
					<parameter authoringApp="PremierePro">
					<parameterid>4</parameterid>
					<name></name>
					<IsTimeVarying>false</IsTimeVarying>
					<ParameterControlType>2</ParameterControlType>
					<LowerBound>0</LowerBound>
					<UpperBound>4000</UpperBound>
					<value>-91445760000000000,100.,0,0,0,0,0,0</value>
					</parameter>
					<parameter authoringApp="PremierePro">
					<parameterid>8</parameterid>
					<name></name>
					<IsTimeVarying>false</IsTimeVarying>
					<ParameterControlType>2</ParameterControlType>
					<LowerBound>0</LowerBound>
					<UpperBound>100</UpperBound>
					<value>-91445760000000000,100.,0,0,0,0,0,0</value>
					</parameter>
					</effect>
					</filter>
					<logginginfo>
					<description></description>
					<scene></scene>
					<shottake></shottake>
					<lognote></lognote>
					<good></good>
					<originalvideofilename></originalvideofilename>
					<originalaudiofilename></originalaudiofilename>
					</logginginfo>
					<colorinfo>
					<lut></lut>
					<lut1></lut1>
					<asc_sop></asc_sop>
					<asc_sat></asc_sat>
					<lut2></lut2>
					</colorinfo>
					<labels>
					</labels>
					</clipitem>
					<clipitem frameBlend="FALSE" id="clipitem-353">
					<masterclipid>masterclip-273</masterclipid>
					<name></name>
					<enabled>TRUE</enabled>
					<duration>2582774</duration>
					<rate>
					
					                                    <timebase>60</timebase>
					                                    <ntsc>TRUE</ntsc>
					                                
					</rate>
					<start>2327</start>
					<end>2387</end>
					<in>2327</in>
					<out>2387</out>
					<pproTicksIn>914456774963789</pproTicksIn>
					<pproTicksOut>914677708529577</pproTicksOut>
					<alphatype>straight</alphatype>
					<pixelaspectratio>square</pixelaspectratio>
					<anamorphic>FALSE</anamorphic>
					<file id="file-272">
					<name></name>
					<mediaSource>GraphicAndType</mediaSource>
					<rate>
					<timebase>60</timebase>
					<ntsc>TRUE</ntsc>
					</rate>
					<timecode>
					<rate>
					<timebase>60</timebase>
					<ntsc>TRUE</ntsc>
					</rate>
					<string>00:00:00:00</string>
					<frame>0</frame>
					<displayformat>NDF</displayformat>
					</timecode>
					<media>
					<video>
					<samplecharacteristics>
					<rate>
					<timebase>60</timebase>
					<ntsc>TRUE</ntsc>
					</rate>
					<width>1080</width>
					<height>1920</height>
					<anamorphic>FALSE</anamorphic>
					<pixelaspectratio>square</pixelaspectratio>
					<fielddominance>none</fielddominance>
					</samplecharacteristics>
					</video>
					</media>
					</file>
					<filter>
					<effect>
					<name></name>
					<effectid>GraphicAndType</effectid>
					<effectcategory>graphic</effectcategory>
					<effecttype>filter</effecttype>
					<mediatype>video</mediatype>
					<pproBypass>false</pproBypass>
					<parameter authoringApp="PremierePro">
					<parameterid>1</parameterid>
					<name></name>
					<hash>025b1101-ead6-0ca2-1feb-caf3000001fc</hash>
					<value>5AEAAAAAAABEMyIRDAAAAAAABgAKAAQABgAAAGQAAAAAAF4ASAAQAAwARABAADwAOAAAAAAAAAAAADQAMwAsAAAAKAAkACAAAAAAAAAAAAAAAAAAHAAAAAAAGgAAAAAAAAAUAAAAAAAAAAAAAAAAAAAAAAAAAAgAAAAAABsABwBeAAAAAAAAAUAAAABQAAAAbAAAAAIAAAAAAAEAAQAAAAAAQEEAAMBAAABAQAAAyEIAAAABIAAAAAIAAAACAAAAAAA2QwCASkTw/v//9P7///j+//8S////AAAAAAEAAAAEAAAAEQAAAEhHUFNvZWlLYWt1cG9wdGFpAAAAAQAAAAwAAAAIAAwABAAIAAgAAAAIAAAAUAAAAA8AAADvvIEAAAAAAAAAAAAAAAAAAAA2ACQAAAAgABwAAAAAABsAFAAAAAAAAAAAAAAAAAAAAAAAAAAAABAAAAAAAAAADAAAAAgABAA2AAAAAgAAABwAAAAcAAAAHAAAAAAAIEEAAAABaAAAAE3PAEOw////tP///wEAAAAUAAAAEAAaAAgABwAMAAAAEAAUABAAAAAAAAABHAAAAAAAoEEcAAAAAgAAAAAACgAIAAUABgAHAAoAAAAADAD//P///wQABAAEAAAACAAIAAYABwAIAAAAAAAMAA==</value>
					</parameter>
					<parameter authoringApp="PremierePro">
					<parameterid>2</parameterid>
					<name></name>
					<IsTimeVarying>false</IsTimeVarying>
					<ParameterControlType>11</ParameterControlType>
					<LowerBound>false</LowerBound>
					<UpperBound>false</UpperBound>
					<value>-91445760000000000,false,0,0,0,0,0,0</value>
					</parameter>
					<parameter authoringApp="PremierePro">
					<parameterid>3</parameterid>
					<name></name>
					<IsTimeVarying>false</IsTimeVarying>
					<value>-91445760000000000,0.5:0.5,0,0,0,0,0,0,5,4,0,0,0,0</value>
					</parameter>
					<parameter authoringApp="PremierePro">
					<parameterid>4</parameterid>
					<name></name>
					<IsTimeVarying>false</IsTimeVarying>
					<ParameterControlType>2</ParameterControlType>
					<LowerBound>0</LowerBound>
					<UpperBound>4000</UpperBound>
					<value>-91445760000000000,100.,0,0,0,0,0,0</value>
					</parameter>
					<parameter authoringApp="PremierePro">
					<parameterid>8</parameterid>
					<name></name>
					<IsTimeVarying>false</IsTimeVarying>
					<ParameterControlType>2</ParameterControlType>
					<LowerBound>0</LowerBound>
					<UpperBound>100</UpperBound>
					<value>-91445760000000000,100.,0,0,0,0,0,0</value>
					</parameter>
					</effect>
					</filter>
					<logginginfo>
					<description></description>
					<scene></scene>
					<shottake></shottake>
					<lognote></lognote>
					<good></good>
					<originalvideofilename></originalvideofilename>
					<originalaudiofilename></originalaudiofilename>
					</logginginfo>
					<colorinfo>
					<lut></lut>
					<lut1></lut1>
					<asc_sop></asc_sop>
					<asc_sat></asc_sat>
					<lut2></lut2>
					</colorinfo>
					<labels>
					</labels>
					</clipitem>
					<clipitem frameBlend="FALSE" id="clipitem-361">
					<masterclipid>masterclip-281</masterclipid>
					<name></name>
					<enabled>TRUE</enabled>
					<duration>2582774</duration>
					<rate>
					
					                                    <timebase>60</timebase>
					                                    <ntsc>TRUE</ntsc>
					                                
					</rate>
					<start>2453</start>
					<end>2513</end>
					<in>2453</in>
					<out>2513</out>
					<pproTicksIn>914456774963789</pproTicksIn>
					<pproTicksOut>914677708529577</pproTicksOut>
					<alphatype>straight</alphatype>
					<pixelaspectratio>square</pixelaspectratio>
					<anamorphic>FALSE</anamorphic>
					<file id="file-280">
					<name></name>
					<mediaSource>GraphicAndType</mediaSource>
					<rate>
					<timebase>60</timebase>
					<ntsc>TRUE</ntsc>
					</rate>
					<timecode>
					<rate>
					<timebase>60</timebase>
					<ntsc>TRUE</ntsc>
					</rate>
					<string>00:00:00:00</string>
					<frame>0</frame>
					<displayformat>NDF</displayformat>
					</timecode>
					<media>
					<video>
					<samplecharacteristics>
					<rate>
					<timebase>60</timebase>
					<ntsc>TRUE</ntsc>
					</rate>
					<width>1080</width>
					<height>1920</height>
					<anamorphic>FALSE</anamorphic>
					<pixelaspectratio>square</pixelaspectratio>
					<fielddominance>none</fielddominance>
					</samplecharacteristics>
					</video>
					</media>
					</file>
					<filter>
					<effect>
					<name></name>
					<effectid>GraphicAndType</effectid>
					<effectcategory>graphic</effectcategory>
					<effecttype>filter</effecttype>
					<mediatype>video</mediatype>
					<pproBypass>false</pproBypass>
					<parameter authoringApp="PremierePro">
					<parameterid>1</parameterid>
					<name></name>
					<hash>025b1101-ead6-0ca2-1feb-caf3000001fc</hash>
					<value>5AEAAAAAAABEMyIRDAAAAAAABgAKAAQABgAAAGQAAAAAAF4ASAAQAAwARABAADwAOAAAAAAAAAAAADQAMwAsAAAAKAAkACAAAAAAAAAAAAAAAAAAHAAAAAAAGgAAAAAAAAAUAAAAAAAAAAAAAAAAAAAAAAAAAAgAAAAAABsABwBeAAAAAAAAAUAAAABQAAAAbAAAAAIAAAAAAAEAAQAAAAAAQEEAAMBAAABAQAAAyEIAAAABIAAAAAIAAAACAAAAAAA2QwCASkTw/v//9P7///j+//8S////AAAAAAEAAAAEAAAAEQAAAEhHUFNvZWlLYWt1cG9wdGFpAAAAAQAAAAwAAAAIAAwABAAIAAgAAAAIAAAAUAAAAA8AAADvvIEAAAAAAAAAAAAAAAAAAAA2ACQAAAAgABwAAAAAABsAFAAAAAAAAAAAAAAAAAAAAAAAAAAAABAAAAAAAAAADAAAAAgABAA2AAAAAgAAABwAAAAcAAAAHAAAAAAAIEEAAAABaAAAAE3PAEOw////tP///wEAAAAUAAAAEAAaAAgABwAMAAAAEAAUABAAAAAAAAABHAAAAAAAoEEcAAAAAgAAAAAACgAIAAUABgAHAAoAAAAADAD//P///wQABAAEAAAACAAIAAYABwAIAAAAAAAMAA==</value>
					</parameter>
					<parameter authoringApp="PremierePro">
					<parameterid>2</parameterid>
					<name></name>
					<IsTimeVarying>false</IsTimeVarying>
					<ParameterControlType>11</ParameterControlType>
					<LowerBound>false</LowerBound>
					<UpperBound>false</UpperBound>
					<value>-91445760000000000,false,0,0,0,0,0,0</value>
					</parameter>
					<parameter authoringApp="PremierePro">
					<parameterid>3</parameterid>
					<name></name>
					<IsTimeVarying>false</IsTimeVarying>
					<value>-91445760000000000,0.5:0.5,0,0,0,0,0,0,5,4,0,0,0,0</value>
					</parameter>
					<parameter authoringApp="PremierePro">
					<parameterid>4</parameterid>
					<name></name>
					<IsTimeVarying>false</IsTimeVarying>
					<ParameterControlType>2</ParameterControlType>
					<LowerBound>0</LowerBound>
					<UpperBound>4000</UpperBound>
					<value>-91445760000000000,100.,0,0,0,0,0,0</value>
					</parameter>
					<parameter authoringApp="PremierePro">
					<parameterid>8</parameterid>
					<name></name>
					<IsTimeVarying>false</IsTimeVarying>
					<ParameterControlType>2</ParameterControlType>
					<LowerBound>0</LowerBound>
					<UpperBound>100</UpperBound>
					<value>-91445760000000000,100.,0,0,0,0,0,0</value>
					</parameter>
					</effect>
					</filter>
					<logginginfo>
					<description></description>
					<scene></scene>
					<shottake></shottake>
					<lognote></lognote>
					<good></good>
					<originalvideofilename></originalvideofilename>
					<originalaudiofilename></originalaudiofilename>
					</logginginfo>
					<colorinfo>
					<lut></lut>
					<lut1></lut1>
					<asc_sop></asc_sop>
					<asc_sat></asc_sat>
					<lut2></lut2>
					</colorinfo>
					<labels>
					</labels>
					</clipitem>
					<clipitem frameBlend="FALSE" id="clipitem-367">
					<masterclipid>masterclip-287</masterclipid>
					<name></name>
					<enabled>TRUE</enabled>
					<duration>2582774</duration>
					<rate>
					
					                                    <timebase>60</timebase>
					                                    <ntsc>TRUE</ntsc>
					                                
					</rate>
					<start>2555</start>
					<end>2615</end>
					<in>2555</in>
					<out>2615</out>
					<pproTicksIn>914456774963789</pproTicksIn>
					<pproTicksOut>914677708529577</pproTicksOut>
					<alphatype>straight</alphatype>
					<pixelaspectratio>square</pixelaspectratio>
					<anamorphic>FALSE</anamorphic>
					<file id="file-286">
					<name></name>
					<mediaSource>GraphicAndType</mediaSource>
					<rate>
					<timebase>60</timebase>
					<ntsc>TRUE</ntsc>
					</rate>
					<timecode>
					<rate>
					<timebase>60</timebase>
					<ntsc>TRUE</ntsc>
					</rate>
					<string>00:00:00:00</string>
					<frame>0</frame>
					<displayformat>NDF</displayformat>
					</timecode>
					<media>
					<video>
					<samplecharacteristics>
					<rate>
					<timebase>60</timebase>
					<ntsc>TRUE</ntsc>
					</rate>
					<width>1080</width>
					<height>1920</height>
					<anamorphic>FALSE</anamorphic>
					<pixelaspectratio>square</pixelaspectratio>
					<fielddominance>none</fielddominance>
					</samplecharacteristics>
					</video>
					</media>
					</file>
					<filter>
					<effect>
					<name></name>
					<effectid>GraphicAndType</effectid>
					<effectcategory>graphic</effectcategory>
					<effecttype>filter</effecttype>
					<mediatype>video</mediatype>
					<pproBypass>false</pproBypass>
					<parameter authoringApp="PremierePro">
					<parameterid>1</parameterid>
					<name></name>
					<hash>025b1101-ead6-0ca2-1feb-caf3000001fc</hash>
					<value>5AEAAAAAAABEMyIRDAAAAAAABgAKAAQABgAAAGQAAAAAAF4ASAAQAAwARABAADwAOAAAAAAAAAAAADQAMwAsAAAAKAAkACAAAAAAAAAAAAAAAAAAHAAAAAAAGgAAAAAAAAAUAAAAAAAAAAAAAAAAAAAAAAAAAAgAAAAAABsABwBeAAAAAAAAAUAAAABQAAAAbAAAAAIAAAAAAAEAAQAAAAAAQEEAAMBAAABAQAAAyEIAAAABIAAAAAIAAAACAAAAAAA2QwCASkTw/v//9P7///j+//8S////AAAAAAEAAAAEAAAAEQAAAEhHUFNvZWlLYWt1cG9wdGFpAAAAAQAAAAwAAAAIAAwABAAIAAgAAAAIAAAAUAAAAA8AAADvvIEAAAAAAAAAAAAAAAAAAAA2ACQAAAAgABwAAAAAABsAFAAAAAAAAAAAAAAAAAAAAAAAAAAAABAAAAAAAAAADAAAAAgABAA2AAAAAgAAABwAAAAcAAAAHAAAAAAAIEEAAAABaAAAAE3PAEOw////tP///wEAAAAUAAAAEAAaAAgABwAMAAAAEAAUABAAAAAAAAABHAAAAAAAoEEcAAAAAgAAAAAACgAIAAUABgAHAAoAAAAADAD//P///wQABAAEAAAACAAIAAYABwAIAAAAAAAMAA==</value>
					</parameter>
					<parameter authoringApp="PremierePro">
					<parameterid>2</parameterid>
					<name></name>
					<IsTimeVarying>false</IsTimeVarying>
					<ParameterControlType>11</ParameterControlType>
					<LowerBound>false</LowerBound>
					<UpperBound>false</UpperBound>
					<value>-91445760000000000,false,0,0,0,0,0,0</value>
					</parameter>
					<parameter authoringApp="PremierePro">
					<parameterid>3</parameterid>
					<name></name>
					<IsTimeVarying>false</IsTimeVarying>
					<value>-91445760000000000,0.5:0.5,0,0,0,0,0,0,5,4,0,0,0,0</value>
					</parameter>
					<parameter authoringApp="PremierePro">
					<parameterid>4</parameterid>
					<name></name>
					<IsTimeVarying>false</IsTimeVarying>
					<ParameterControlType>2</ParameterControlType>
					<LowerBound>0</LowerBound>
					<UpperBound>4000</UpperBound>
					<value>-91445760000000000,100.,0,0,0,0,0,0</value>
					</parameter>
					<parameter authoringApp="PremierePro">
					<parameterid>8</parameterid>
					<name></name>
					<IsTimeVarying>false</IsTimeVarying>
					<ParameterControlType>2</ParameterControlType>
					<LowerBound>0</LowerBound>
					<UpperBound>100</UpperBound>
					<value>-91445760000000000,100.,0,0,0,0,0,0</value>
					</parameter>
					</effect>
					</filter>
					<logginginfo>
					<description></description>
					<scene></scene>
					<shottake></shottake>
					<lognote></lognote>
					<good></good>
					<originalvideofilename></originalvideofilename>
					<originalaudiofilename></originalaudiofilename>
					</logginginfo>
					<colorinfo>
					<lut></lut>
					<lut1></lut1>
					<asc_sop></asc_sop>
					<asc_sat></asc_sat>
					<lut2></lut2>
					</colorinfo>
					<labels>
					</labels>
					</clipitem>
					<clipitem frameBlend="FALSE" id="clipitem-376">
					<masterclipid>masterclip-296</masterclipid>
					<name></name>
					<enabled>TRUE</enabled>
					<duration>2582774</duration>
					<rate>
					
					                                    <timebase>60</timebase>
					                                    <ntsc>TRUE</ntsc>
					                                
					</rate>
					<start>2633</start>
					<end>2693</end>
					<in>2633</in>
					<out>2693</out>
					<pproTicksIn>914456774963789</pproTicksIn>
					<pproTicksOut>914677708529577</pproTicksOut>
					<alphatype>straight</alphatype>
					<pixelaspectratio>square</pixelaspectratio>
					<anamorphic>FALSE</anamorphic>
					<file id="file-295">
					<name></name>
					<mediaSource>GraphicAndType</mediaSource>
					<rate>
					<timebase>60</timebase>
					<ntsc>TRUE</ntsc>
					</rate>
					<timecode>
					<rate>
					<timebase>60</timebase>
					<ntsc>TRUE</ntsc>
					</rate>
					<string>00:00:00:00</string>
					<frame>0</frame>
					<displayformat>NDF</displayformat>
					</timecode>
					<media>
					<video>
					<samplecharacteristics>
					<rate>
					<timebase>60</timebase>
					<ntsc>TRUE</ntsc>
					</rate>
					<width>1080</width>
					<height>1920</height>
					<anamorphic>FALSE</anamorphic>
					<pixelaspectratio>square</pixelaspectratio>
					<fielddominance>none</fielddominance>
					</samplecharacteristics>
					</video>
					</media>
					</file>
					<filter>
					<effect>
					<name></name>
					<effectid>GraphicAndType</effectid>
					<effectcategory>graphic</effectcategory>
					<effecttype>filter</effecttype>
					<mediatype>video</mediatype>
					<pproBypass>false</pproBypass>
					<parameter authoringApp="PremierePro">
					<parameterid>1</parameterid>
					<name></name>
					<hash>025b1101-ead6-0ca2-1feb-caf3000001fc</hash>
					<value>5AEAAAAAAABEMyIRDAAAAAAABgAKAAQABgAAAGQAAAAAAF4ASAAQAAwARABAADwAOAAAAAAAAAAAADQAMwAsAAAAKAAkACAAAAAAAAAAAAAAAAAAHAAAAAAAGgAAAAAAAAAUAAAAAAAAAAAAAAAAAAAAAAAAAAgAAAAAABsABwBeAAAAAAAAAUAAAABQAAAAbAAAAAIAAAAAAAEAAQAAAAAAQEEAAMBAAABAQAAAyEIAAAABIAAAAAIAAAACAAAAAAA2QwCASkTw/v//9P7///j+//8S////AAAAAAEAAAAEAAAAEQAAAEhHUFNvZWlLYWt1cG9wdGFpAAAAAQAAAAwAAAAIAAwABAAIAAgAAAAIAAAAUAAAAA8AAADvvIEAAAAAAAAAAAAAAAAAAAA2ACQAAAAgABwAAAAAABsAFAAAAAAAAAAAAAAAAAAAAAAAAAAAABAAAAAAAAAADAAAAAgABAA2AAAAAgAAABwAAAAcAAAAHAAAAAAAIEEAAAABaAAAAE3PAEOw////tP///wEAAAAUAAAAEAAaAAgABwAMAAAAEAAUABAAAAAAAAABHAAAAAAAoEEcAAAAAgAAAAAACgAIAAUABgAHAAoAAAAADAD//P///wQABAAEAAAACAAIAAYABwAIAAAAAAAMAA==</value>
					</parameter>
					<parameter authoringApp="PremierePro">
					<parameterid>2</parameterid>
					<name></name>
					<IsTimeVarying>false</IsTimeVarying>
					<ParameterControlType>11</ParameterControlType>
					<LowerBound>false</LowerBound>
					<UpperBound>false</UpperBound>
					<value>-91445760000000000,false,0,0,0,0,0,0</value>
					</parameter>
					<parameter authoringApp="PremierePro">
					<parameterid>3</parameterid>
					<name></name>
					<IsTimeVarying>false</IsTimeVarying>
					<value>-91445760000000000,0.5:0.5,0,0,0,0,0,0,5,4,0,0,0,0</value>
					</parameter>
					<parameter authoringApp="PremierePro">
					<parameterid>4</parameterid>
					<name></name>
					<IsTimeVarying>false</IsTimeVarying>
					<ParameterControlType>2</ParameterControlType>
					<LowerBound>0</LowerBound>
					<UpperBound>4000</UpperBound>
					<value>-91445760000000000,100.,0,0,0,0,0,0</value>
					</parameter>
					<parameter authoringApp="PremierePro">
					<parameterid>8</parameterid>
					<name></name>
					<IsTimeVarying>false</IsTimeVarying>
					<ParameterControlType>2</ParameterControlType>
					<LowerBound>0</LowerBound>
					<UpperBound>100</UpperBound>
					<value>-91445760000000000,100.,0,0,0,0,0,0</value>
					</parameter>
					</effect>
					</filter>
					<logginginfo>
					<description></description>
					<scene></scene>
					<shottake></shottake>
					<lognote></lognote>
					<good></good>
					<originalvideofilename></originalvideofilename>
					<originalaudiofilename></originalaudiofilename>
					</logginginfo>
					<colorinfo>
					<lut></lut>
					<lut1></lut1>
					<asc_sop></asc_sop>
					<asc_sat></asc_sat>
					<lut2></lut2>
					</colorinfo>
					<labels>
					</labels>
					</clipitem>
					<clipitem frameBlend="FALSE" id="clipitem-386">
					<masterclipid>masterclip-306</masterclipid>
					<name></name>
					<enabled>TRUE</enabled>
					<duration>2582774</duration>
					<rate>
					
					                                    <timebase>60</timebase>
					                                    <ntsc>TRUE</ntsc>
					                                
					</rate>
					<start>2735</start>
					<end>2795</end>
					<in>2735</in>
					<out>2795</out>
					<pproTicksIn>914456774963789</pproTicksIn>
					<pproTicksOut>914677708529577</pproTicksOut>
					<alphatype>straight</alphatype>
					<pixelaspectratio>square</pixelaspectratio>
					<anamorphic>FALSE</anamorphic>
					<file id="file-305">
					<name></name>
					<mediaSource>GraphicAndType</mediaSource>
					<rate>
					<timebase>60</timebase>
					<ntsc>TRUE</ntsc>
					</rate>
					<timecode>
					<rate>
					<timebase>60</timebase>
					<ntsc>TRUE</ntsc>
					</rate>
					<string>00:00:00:00</string>
					<frame>0</frame>
					<displayformat>NDF</displayformat>
					</timecode>
					<media>
					<video>
					<samplecharacteristics>
					<rate>
					<timebase>60</timebase>
					<ntsc>TRUE</ntsc>
					</rate>
					<width>1080</width>
					<height>1920</height>
					<anamorphic>FALSE</anamorphic>
					<pixelaspectratio>square</pixelaspectratio>
					<fielddominance>none</fielddominance>
					</samplecharacteristics>
					</video>
					</media>
					</file>
					<filter>
					<effect>
					<name></name>
					<effectid>GraphicAndType</effectid>
					<effectcategory>graphic</effectcategory>
					<effecttype>filter</effecttype>
					<mediatype>video</mediatype>
					<pproBypass>false</pproBypass>
					<parameter authoringApp="PremierePro">
					<parameterid>1</parameterid>
					<name></name>
					<hash>025b1101-ead6-0ca2-1feb-caf3000001fc</hash>
					<value>5AEAAAAAAABEMyIRDAAAAAAABgAKAAQABgAAAGQAAAAAAF4ASAAQAAwARABAADwAOAAAAAAAAAAAADQAMwAsAAAAKAAkACAAAAAAAAAAAAAAAAAAHAAAAAAAGgAAAAAAAAAUAAAAAAAAAAAAAAAAAAAAAAAAAAgAAAAAABsABwBeAAAAAAAAAUAAAABQAAAAbAAAAAIAAAAAAAEAAQAAAAAAQEEAAMBAAABAQAAAyEIAAAABIAAAAAIAAAACAAAAAAA2QwCASkTw/v//9P7///j+//8S////AAAAAAEAAAAEAAAAEQAAAEhHUFNvZWlLYWt1cG9wdGFpAAAAAQAAAAwAAAAIAAwABAAIAAgAAAAIAAAAUAAAAA8AAADvvIEAAAAAAAAAAAAAAAAAAAA2ACQAAAAgABwAAAAAABsAFAAAAAAAAAAAAAAAAAAAAAAAAAAAABAAAAAAAAAADAAAAAgABAA2AAAAAgAAABwAAAAcAAAAHAAAAAAAIEEAAAABaAAAAE3PAEOw////tP///wEAAAAUAAAAEAAaAAgABwAMAAAAEAAUABAAAAAAAAABHAAAAAAAoEEcAAAAAgAAAAAACgAIAAUABgAHAAoAAAAADAD//P///wQABAAEAAAACAAIAAYABwAIAAAAAAAMAA==</value>
					</parameter>
					<parameter authoringApp="PremierePro">
					<parameterid>2</parameterid>
					<name></name>
					<IsTimeVarying>false</IsTimeVarying>
					<ParameterControlType>11</ParameterControlType>
					<LowerBound>false</LowerBound>
					<UpperBound>false</UpperBound>
					<value>-91445760000000000,false,0,0,0,0,0,0</value>
					</parameter>
					<parameter authoringApp="PremierePro">
					<parameterid>3</parameterid>
					<name></name>
					<IsTimeVarying>false</IsTimeVarying>
					<value>-91445760000000000,0.5:0.5,0,0,0,0,0,0,5,4,0,0,0,0</value>
					</parameter>
					<parameter authoringApp="PremierePro">
					<parameterid>4</parameterid>
					<name></name>
					<IsTimeVarying>false</IsTimeVarying>
					<ParameterControlType>2</ParameterControlType>
					<LowerBound>0</LowerBound>
					<UpperBound>4000</UpperBound>
					<value>-91445760000000000,100.,0,0,0,0,0,0</value>
					</parameter>
					<parameter authoringApp="PremierePro">
					<parameterid>8</parameterid>
					<name></name>
					<IsTimeVarying>false</IsTimeVarying>
					<ParameterControlType>2</ParameterControlType>
					<LowerBound>0</LowerBound>
					<UpperBound>100</UpperBound>
					<value>-91445760000000000,100.,0,0,0,0,0,0</value>
					</parameter>
					</effect>
					</filter>
					<logginginfo>
					<description></description>
					<scene></scene>
					<shottake></shottake>
					<lognote></lognote>
					<good></good>
					<originalvideofilename></originalvideofilename>
					<originalaudiofilename></originalaudiofilename>
					</logginginfo>
					<colorinfo>
					<lut></lut>
					<lut1></lut1>
					<asc_sop></asc_sop>
					<asc_sat></asc_sat>
					<lut2></lut2>
					</colorinfo>
					<labels>
					</labels>
					</clipitem>
					<clipitem frameBlend="FALSE" id="clipitem-395">
					<masterclipid>masterclip-315</masterclipid>
					<name></name>
					<enabled>TRUE</enabled>
					<duration>2582774</duration>
					<rate>
					
					                                    <timebase>60</timebase>
					                                    <ntsc>TRUE</ntsc>
					                                
					</rate>
					<start>2801</start>
					<end>2861</end>
					<in>2801</in>
					<out>2861</out>
					<pproTicksIn>914456774963789</pproTicksIn>
					<pproTicksOut>914677708529577</pproTicksOut>
					<alphatype>straight</alphatype>
					<pixelaspectratio>square</pixelaspectratio>
					<anamorphic>FALSE</anamorphic>
					<file id="file-314">
					<name></name>
					<mediaSource>GraphicAndType</mediaSource>
					<rate>
					<timebase>60</timebase>
					<ntsc>TRUE</ntsc>
					</rate>
					<timecode>
					<rate>
					<timebase>60</timebase>
					<ntsc>TRUE</ntsc>
					</rate>
					<string>00:00:00:00</string>
					<frame>0</frame>
					<displayformat>NDF</displayformat>
					</timecode>
					<media>
					<video>
					<samplecharacteristics>
					<rate>
					<timebase>60</timebase>
					<ntsc>TRUE</ntsc>
					</rate>
					<width>1080</width>
					<height>1920</height>
					<anamorphic>FALSE</anamorphic>
					<pixelaspectratio>square</pixelaspectratio>
					<fielddominance>none</fielddominance>
					</samplecharacteristics>
					</video>
					</media>
					</file>
					<filter>
					<effect>
					<name></name>
					<effectid>GraphicAndType</effectid>
					<effectcategory>graphic</effectcategory>
					<effecttype>filter</effecttype>
					<mediatype>video</mediatype>
					<pproBypass>false</pproBypass>
					<parameter authoringApp="PremierePro">
					<parameterid>1</parameterid>
					<name></name>
					<hash>025b1101-ead6-0ca2-1feb-caf3000001fc</hash>
					<value>5AEAAAAAAABEMyIRDAAAAAAABgAKAAQABgAAAGQAAAAAAF4ASAAQAAwARABAADwAOAAAAAAAAAAAADQAMwAsAAAAKAAkACAAAAAAAAAAAAAAAAAAHAAAAAAAGgAAAAAAAAAUAAAAAAAAAAAAAAAAAAAAAAAAAAgAAAAAABsABwBeAAAAAAAAAUAAAABQAAAAbAAAAAIAAAAAAAEAAQAAAAAAQEEAAMBAAABAQAAAyEIAAAABIAAAAAIAAAACAAAAAAA2QwCASkTw/v//9P7///j+//8S////AAAAAAEAAAAEAAAAEQAAAEhHUFNvZWlLYWt1cG9wdGFpAAAAAQAAAAwAAAAIAAwABAAIAAgAAAAIAAAAUAAAAA8AAADvvIEAAAAAAAAAAAAAAAAAAAA2ACQAAAAgABwAAAAAABsAFAAAAAAAAAAAAAAAAAAAAAAAAAAAABAAAAAAAAAADAAAAAgABAA2AAAAAgAAABwAAAAcAAAAHAAAAAAAIEEAAAABaAAAAE3PAEOw////tP///wEAAAAUAAAAEAAaAAgABwAMAAAAEAAUABAAAAAAAAABHAAAAAAAoEEcAAAAAgAAAAAACgAIAAUABgAHAAoAAAAADAD//P///wQABAAEAAAACAAIAAYABwAIAAAAAAAMAA==</value>
					</parameter>
					<parameter authoringApp="PremierePro">
					<parameterid>2</parameterid>
					<name></name>
					<IsTimeVarying>false</IsTimeVarying>
					<ParameterControlType>11</ParameterControlType>
					<LowerBound>false</LowerBound>
					<UpperBound>false</UpperBound>
					<value>-91445760000000000,false,0,0,0,0,0,0</value>
					</parameter>
					<parameter authoringApp="PremierePro">
					<parameterid>3</parameterid>
					<name></name>
					<IsTimeVarying>false</IsTimeVarying>
					<value>-91445760000000000,0.5:0.5,0,0,0,0,0,0,5,4,0,0,0,0</value>
					</parameter>
					<parameter authoringApp="PremierePro">
					<parameterid>4</parameterid>
					<name></name>
					<IsTimeVarying>false</IsTimeVarying>
					<ParameterControlType>2</ParameterControlType>
					<LowerBound>0</LowerBound>
					<UpperBound>4000</UpperBound>
					<value>-91445760000000000,100.,0,0,0,0,0,0</value>
					</parameter>
					<parameter authoringApp="PremierePro">
					<parameterid>8</parameterid>
					<name></name>
					<IsTimeVarying>false</IsTimeVarying>
					<ParameterControlType>2</ParameterControlType>
					<LowerBound>0</LowerBound>
					<UpperBound>100</UpperBound>
					<value>-91445760000000000,100.,0,0,0,0,0,0</value>
					</parameter>
					</effect>
					</filter>
					<logginginfo>
					<description></description>
					<scene></scene>
					<shottake></shottake>
					<lognote></lognote>
					<good></good>
					<originalvideofilename></originalvideofilename>
					<originalaudiofilename></originalaudiofilename>
					</logginginfo>
					<colorinfo>
					<lut></lut>
					<lut1></lut1>
					<asc_sop></asc_sop>
					<asc_sat></asc_sat>
					<lut2></lut2>
					</colorinfo>
					<labels>
					</labels>
					</clipitem>
					<clipitem id="clipitem-408"/>
					                        </track>
					                        <track TL.SQTrackShy="0" TL.SQTrackExpandedHeight="25" TL.SQTrackExpanded="0" MZ.TrackTargeted="0">
					<clipitem frameBlend="FALSE" id="clipitem-409">
					<masterclipid>masterclip-329</masterclipid>
					<name></name>
					<enabled>TRUE</enabled>
					<duration>2582774</duration>
					<rate>
					
					                                    <timebase>60</timebase>
					                                    <ntsc>TRUE</ntsc>
					                                
					</rate>
					<start>2963</start>
					<end>3023</end>
					<in>2963</in>
					<out>3023</out>
					<pproTicksIn>914456774963789</pproTicksIn>
					<pproTicksOut>914677708529577</pproTicksOut>
					<alphatype>straight</alphatype>
					<pixelaspectratio>square</pixelaspectratio>
					<anamorphic>FALSE</anamorphic>
					<file id="file-328">
					<name></name>
					<mediaSource>GraphicAndType</mediaSource>
					<rate>
					<timebase>60</timebase>
					<ntsc>TRUE</ntsc>
					</rate>
					<timecode>
					<rate>
					<timebase>60</timebase>
					<ntsc>TRUE</ntsc>
					</rate>
					<string>00:00:00:00</string>
					<frame>0</frame>
					<displayformat>NDF</displayformat>
					</timecode>
					<media>
					<video>
					<samplecharacteristics>
					<rate>
					<timebase>60</timebase>
					<ntsc>TRUE</ntsc>
					</rate>
					<width>1080</width>
					<height>1920</height>
					<anamorphic>FALSE</anamorphic>
					<pixelaspectratio>square</pixelaspectratio>
					<fielddominance>none</fielddominance>
					</samplecharacteristics>
					</video>
					</media>
					</file>
					<filter>
					<effect>
					<name></name>
					<effectid>GraphicAndType</effectid>
					<effectcategory>graphic</effectcategory>
					<effecttype>filter</effecttype>
					<mediatype>video</mediatype>
					<pproBypass>false</pproBypass>
					<parameter authoringApp="PremierePro">
					<parameterid>1</parameterid>
					<name></name>
					<hash>025b1101-ead6-0ca2-1feb-caf3000001fc</hash>
					<value>5AEAAAAAAABEMyIRDAAAAAAABgAKAAQABgAAAGQAAAAAAF4ASAAQAAwARABAADwAOAAAAAAAAAAAADQAMwAsAAAAKAAkACAAAAAAAAAAAAAAAAAAHAAAAAAAGgAAAAAAAAAUAAAAAAAAAAAAAAAAAAAAAAAAAAgAAAAAABsABwBeAAAAAAAAAUAAAABQAAAAbAAAAAIAAAAAAAEAAQAAAAAAQEEAAMBAAABAQAAAyEIAAAABIAAAAAIAAAACAAAAAAA2QwCASkTw/v//9P7///j+//8S////AAAAAAEAAAAEAAAAEQAAAEhHUFNvZWlLYWt1cG9wdGFpAAAAAQAAAAwAAAAIAAwABAAIAAgAAAAIAAAAUAAAAA8AAADvvIEAAAAAAAAAAAAAAAAAAAA2ACQAAAAgABwAAAAAABsAFAAAAAAAAAAAAAAAAAAAAAAAAAAAABAAAAAAAAAADAAAAAgABAA2AAAAAgAAABwAAAAcAAAAHAAAAAAAIEEAAAABaAAAAE3PAEOw////tP///wEAAAAUAAAAEAAaAAgABwAMAAAAEAAUABAAAAAAAAABHAAAAAAAoEEcAAAAAgAAAAAACgAIAAUABgAHAAoAAAAADAD//P///wQABAAEAAAACAAIAAYABwAIAAAAAAAMAA==</value>
					</parameter>
					<parameter authoringApp="PremierePro">
					<parameterid>2</parameterid>
					<name></name>
					<IsTimeVarying>false</IsTimeVarying>
					<ParameterControlType>11</ParameterControlType>
					<LowerBound>false</LowerBound>
					<UpperBound>false</UpperBound>
					<value>-91445760000000000,false,0,0,0,0,0,0</value>
					</parameter>
					<parameter authoringApp="PremierePro">
					<parameterid>3</parameterid>
					<name></name>
					<IsTimeVarying>false</IsTimeVarying>
					<value>-91445760000000000,0.5:0.5,0,0,0,0,0,0,5,4,0,0,0,0</value>
					</parameter>
					<parameter authoringApp="PremierePro">
					<parameterid>4</parameterid>
					<name></name>
					<IsTimeVarying>false</IsTimeVarying>
					<ParameterControlType>2</ParameterControlType>
					<LowerBound>0</LowerBound>
					<UpperBound>4000</UpperBound>
					<value>-91445760000000000,100.,0,0,0,0,0,0</value>
					</parameter>
					<parameter authoringApp="PremierePro">
					<parameterid>8</parameterid>
					<name></name>
					<IsTimeVarying>false</IsTimeVarying>
					<ParameterControlType>2</ParameterControlType>
					<LowerBound>0</LowerBound>
					<UpperBound>100</UpperBound>
					<value>-91445760000000000,100.,0,0,0,0,0,0</value>
					</parameter>
					</effect>
					</filter>
					<logginginfo>
					<description></description>
					<scene></scene>
					<shottake></shottake>
					<lognote></lognote>
					<good></good>
					<originalvideofilename></originalvideofilename>
					<originalaudiofilename></originalaudiofilename>
					</logginginfo>
					<colorinfo>
					<lut></lut>
					<lut1></lut1>
					<asc_sop></asc_sop>
					<asc_sat></asc_sat>
					<lut2></lut2>
					</colorinfo>
					<labels>
					</labels>
					</clipitem>
					<clipitem frameBlend="FALSE" id="clipitem-415">
					<masterclipid>masterclip-335</masterclipid>
					<name></name>
					<enabled>TRUE</enabled>
					<duration>2582774</duration>
					<rate>
					
					                                    <timebase>60</timebase>
					                                    <ntsc>TRUE</ntsc>
					                                
					</rate>
					<start>3023</start>
					<end>3089</end>
					<in>3023</in>
					<out>3089</out>
					<pproTicksIn>914456774963789</pproTicksIn>
					<pproTicksOut>914677708529577</pproTicksOut>
					<alphatype>straight</alphatype>
					<pixelaspectratio>square</pixelaspectratio>
					<anamorphic>FALSE</anamorphic>
					<file id="file-334">
					<name></name>
					<mediaSource>GraphicAndType</mediaSource>
					<rate>
					<timebase>60</timebase>
					<ntsc>TRUE</ntsc>
					</rate>
					<timecode>
					<rate>
					<timebase>60</timebase>
					<ntsc>TRUE</ntsc>
					</rate>
					<string>00:00:00:00</string>
					<frame>0</frame>
					<displayformat>NDF</displayformat>
					</timecode>
					<media>
					<video>
					<samplecharacteristics>
					<rate>
					<timebase>60</timebase>
					<ntsc>TRUE</ntsc>
					</rate>
					<width>1080</width>
					<height>1920</height>
					<anamorphic>FALSE</anamorphic>
					<pixelaspectratio>square</pixelaspectratio>
					<fielddominance>none</fielddominance>
					</samplecharacteristics>
					</video>
					</media>
					</file>
					<filter>
					<effect>
					<name></name>
					<effectid>GraphicAndType</effectid>
					<effectcategory>graphic</effectcategory>
					<effecttype>filter</effecttype>
					<mediatype>video</mediatype>
					<pproBypass>false</pproBypass>
					<parameter authoringApp="PremierePro">
					<parameterid>1</parameterid>
					<name></name>
					<hash>025b1101-ead6-0ca2-1feb-caf3000001fc</hash>
					<value>5AEAAAAAAABEMyIRDAAAAAAABgAKAAQABgAAAGQAAAAAAF4ASAAQAAwARABAADwAOAAAAAAAAAAAADQAMwAsAAAAKAAkACAAAAAAAAAAAAAAAAAAHAAAAAAAGgAAAAAAAAAUAAAAAAAAAAAAAAAAAAAAAAAAAAgAAAAAABsABwBeAAAAAAAAAUAAAABQAAAAbAAAAAIAAAAAAAEAAQAAAAAAQEEAAMBAAABAQAAAyEIAAAABIAAAAAIAAAACAAAAAAA2QwCASkTw/v//9P7///j+//8S////AAAAAAEAAAAEAAAAEQAAAEhHUFNvZWlLYWt1cG9wdGFpAAAAAQAAAAwAAAAIAAwABAAIAAgAAAAIAAAAUAAAAA8AAADvvIEAAAAAAAAAAAAAAAAAAAA2ACQAAAAgABwAAAAAABsAFAAAAAAAAAAAAAAAAAAAAAAAAAAAABAAAAAAAAAADAAAAAgABAA2AAAAAgAAABwAAAAcAAAAHAAAAAAAIEEAAAABaAAAAE3PAEOw////tP///wEAAAAUAAAAEAAaAAgABwAMAAAAEAAUABAAAAAAAAABHAAAAAAAoEEcAAAAAgAAAAAACgAIAAUABgAHAAoAAAAADAD//P///wQABAAEAAAACAAIAAYABwAIAAAAAAAMAA==</value>
					</parameter>
					<parameter authoringApp="PremierePro">
					<parameterid>2</parameterid>
					<name></name>
					<IsTimeVarying>false</IsTimeVarying>
					<ParameterControlType>11</ParameterControlType>
					<LowerBound>false</LowerBound>
					<UpperBound>false</UpperBound>
					<value>-91445760000000000,false,0,0,0,0,0,0</value>
					</parameter>
					<parameter authoringApp="PremierePro">
					<parameterid>3</parameterid>
					<name></name>
					<IsTimeVarying>false</IsTimeVarying>
					<value>-91445760000000000,0.5:0.5,0,0,0,0,0,0,5,4,0,0,0,0</value>
					</parameter>
					<parameter authoringApp="PremierePro">
					<parameterid>4</parameterid>
					<name></name>
					<IsTimeVarying>false</IsTimeVarying>
					<ParameterControlType>2</ParameterControlType>
					<LowerBound>0</LowerBound>
					<UpperBound>4000</UpperBound>
					<value>-91445760000000000,100.,0,0,0,0,0,0</value>
					</parameter>
					<parameter authoringApp="PremierePro">
					<parameterid>8</parameterid>
					<name></name>
					<IsTimeVarying>false</IsTimeVarying>
					<ParameterControlType>2</ParameterControlType>
					<LowerBound>0</LowerBound>
					<UpperBound>100</UpperBound>
					<value>-91445760000000000,100.,0,0,0,0,0,0</value>
					</parameter>
					</effect>
					</filter>
					<logginginfo>
					<description></description>
					<scene></scene>
					<shottake></shottake>
					<lognote></lognote>
					<good></good>
					<originalvideofilename></originalvideofilename>
					<originalaudiofilename></originalaudiofilename>
					</logginginfo>
					<colorinfo>
					<lut></lut>
					<lut1></lut1>
					<asc_sop></asc_sop>
					<asc_sat></asc_sat>
					<lut2></lut2>
					</colorinfo>
					<labels>
					</labels>
					</clipitem>
					<clipitem frameBlend="FALSE" id="clipitem-426">
					<masterclipid>masterclip-346</masterclipid>
					<name></name>
					<enabled>TRUE</enabled>
					<duration>2582774</duration>
					<rate>
					
					                                    <timebase>60</timebase>
					                                    <ntsc>TRUE</ntsc>
					                                
					</rate>
					<start>3137</start>
					<end>3197</end>
					<in>3137</in>
					<out>3197</out>
					<pproTicksIn>914456774963789</pproTicksIn>
					<pproTicksOut>914677708529577</pproTicksOut>
					<alphatype>straight</alphatype>
					<pixelaspectratio>square</pixelaspectratio>
					<anamorphic>FALSE</anamorphic>
					<file id="file-345">
					<name></name>
					<mediaSource>GraphicAndType</mediaSource>
					<rate>
					<timebase>60</timebase>
					<ntsc>TRUE</ntsc>
					</rate>
					<timecode>
					<rate>
					<timebase>60</timebase>
					<ntsc>TRUE</ntsc>
					</rate>
					<string>00:00:00:00</string>
					<frame>0</frame>
					<displayformat>NDF</displayformat>
					</timecode>
					<media>
					<video>
					<samplecharacteristics>
					<rate>
					<timebase>60</timebase>
					<ntsc>TRUE</ntsc>
					</rate>
					<width>1080</width>
					<height>1920</height>
					<anamorphic>FALSE</anamorphic>
					<pixelaspectratio>square</pixelaspectratio>
					<fielddominance>none</fielddominance>
					</samplecharacteristics>
					</video>
					</media>
					</file>
					<filter>
					<effect>
					<name></name>
					<effectid>GraphicAndType</effectid>
					<effectcategory>graphic</effectcategory>
					<effecttype>filter</effecttype>
					<mediatype>video</mediatype>
					<pproBypass>false</pproBypass>
					<parameter authoringApp="PremierePro">
					<parameterid>1</parameterid>
					<name></name>
					<hash>025b1101-ead6-0ca2-1feb-caf3000001fc</hash>
					<value>5AEAAAAAAABEMyIRDAAAAAAABgAKAAQABgAAAGQAAAAAAF4ASAAQAAwARABAADwAOAAAAAAAAAAAADQAMwAsAAAAKAAkACAAAAAAAAAAAAAAAAAAHAAAAAAAGgAAAAAAAAAUAAAAAAAAAAAAAAAAAAAAAAAAAAgAAAAAABsABwBeAAAAAAAAAUAAAABQAAAAbAAAAAIAAAAAAAEAAQAAAAAAQEEAAMBAAABAQAAAyEIAAAABIAAAAAIAAAACAAAAAAA2QwCASkTw/v//9P7///j+//8S////AAAAAAEAAAAEAAAAEQAAAEhHUFNvZWlLYWt1cG9wdGFpAAAAAQAAAAwAAAAIAAwABAAIAAgAAAAIAAAAUAAAAA8AAADvvIEAAAAAAAAAAAAAAAAAAAA2ACQAAAAgABwAAAAAABsAFAAAAAAAAAAAAAAAAAAAAAAAAAAAABAAAAAAAAAADAAAAAgABAA2AAAAAgAAABwAAAAcAAAAHAAAAAAAIEEAAAABaAAAAE3PAEOw////tP///wEAAAAUAAAAEAAaAAgABwAMAAAAEAAUABAAAAAAAAABHAAAAAAAoEEcAAAAAgAAAAAACgAIAAUABgAHAAoAAAAADAD//P///wQABAAEAAAACAAIAAYABwAIAAAAAAAMAA==</value>
					</parameter>
					<parameter authoringApp="PremierePro">
					<parameterid>2</parameterid>
					<name></name>
					<IsTimeVarying>false</IsTimeVarying>
					<ParameterControlType>11</ParameterControlType>
					<LowerBound>false</LowerBound>
					<UpperBound>false</UpperBound>
					<value>-91445760000000000,false,0,0,0,0,0,0</value>
					</parameter>
					<parameter authoringApp="PremierePro">
					<parameterid>3</parameterid>
					<name></name>
					<IsTimeVarying>false</IsTimeVarying>
					<value>-91445760000000000,0.5:0.5,0,0,0,0,0,0,5,4,0,0,0,0</value>
					</parameter>
					<parameter authoringApp="PremierePro">
					<parameterid>4</parameterid>
					<name></name>
					<IsTimeVarying>false</IsTimeVarying>
					<ParameterControlType>2</ParameterControlType>
					<LowerBound>0</LowerBound>
					<UpperBound>4000</UpperBound>
					<value>-91445760000000000,100.,0,0,0,0,0,0</value>
					</parameter>
					<parameter authoringApp="PremierePro">
					<parameterid>8</parameterid>
					<name></name>
					<IsTimeVarying>false</IsTimeVarying>
					<ParameterControlType>2</ParameterControlType>
					<LowerBound>0</LowerBound>
					<UpperBound>100</UpperBound>
					<value>-91445760000000000,100.,0,0,0,0,0,0</value>
					</parameter>
					</effect>
					</filter>
					<logginginfo>
					<description></description>
					<scene></scene>
					<shottake></shottake>
					<lognote></lognote>
					<good></good>
					<originalvideofilename></originalvideofilename>
					<originalaudiofilename></originalaudiofilename>
					</logginginfo>
					<colorinfo>
					<lut></lut>
					<lut1></lut1>
					<asc_sop></asc_sop>
					<asc_sat></asc_sat>
					<lut2></lut2>
					</colorinfo>
					<labels>
					</labels>
					</clipitem>
					<clipitem frameBlend="FALSE" id="clipitem-434">
					<masterclipid>masterclip-354</masterclipid>
					<name></name>
					<enabled>TRUE</enabled>
					<duration>2582774</duration>
					<rate>
					
					                                    <timebase>60</timebase>
					                                    <ntsc>TRUE</ntsc>
					                                
					</rate>
					<start>3209</start>
					<end>3269</end>
					<in>3209</in>
					<out>3269</out>
					<pproTicksIn>914456774963789</pproTicksIn>
					<pproTicksOut>914677708529577</pproTicksOut>
					<alphatype>straight</alphatype>
					<pixelaspectratio>square</pixelaspectratio>
					<anamorphic>FALSE</anamorphic>
					<file id="file-353">
					<name></name>
					<mediaSource>GraphicAndType</mediaSource>
					<rate>
					<timebase>60</timebase>
					<ntsc>TRUE</ntsc>
					</rate>
					<timecode>
					<rate>
					<timebase>60</timebase>
					<ntsc>TRUE</ntsc>
					</rate>
					<string>00:00:00:00</string>
					<frame>0</frame>
					<displayformat>NDF</displayformat>
					</timecode>
					<media>
					<video>
					<samplecharacteristics>
					<rate>
					<timebase>60</timebase>
					<ntsc>TRUE</ntsc>
					</rate>
					<width>1080</width>
					<height>1920</height>
					<anamorphic>FALSE</anamorphic>
					<pixelaspectratio>square</pixelaspectratio>
					<fielddominance>none</fielddominance>
					</samplecharacteristics>
					</video>
					</media>
					</file>
					<filter>
					<effect>
					<name></name>
					<effectid>GraphicAndType</effectid>
					<effectcategory>graphic</effectcategory>
					<effecttype>filter</effecttype>
					<mediatype>video</mediatype>
					<pproBypass>false</pproBypass>
					<parameter authoringApp="PremierePro">
					<parameterid>1</parameterid>
					<name></name>
					<hash>025b1101-ead6-0ca2-1feb-caf3000001fc</hash>
					<value>5AEAAAAAAABEMyIRDAAAAAAABgAKAAQABgAAAGQAAAAAAF4ASAAQAAwARABAADwAOAAAAAAAAAAAADQAMwAsAAAAKAAkACAAAAAAAAAAAAAAAAAAHAAAAAAAGgAAAAAAAAAUAAAAAAAAAAAAAAAAAAAAAAAAAAgAAAAAABsABwBeAAAAAAAAAUAAAABQAAAAbAAAAAIAAAAAAAEAAQAAAAAAQEEAAMBAAABAQAAAyEIAAAABIAAAAAIAAAACAAAAAAA2QwCASkTw/v//9P7///j+//8S////AAAAAAEAAAAEAAAAEQAAAEhHUFNvZWlLYWt1cG9wdGFpAAAAAQAAAAwAAAAIAAwABAAIAAgAAAAIAAAAUAAAAA8AAADvvIEAAAAAAAAAAAAAAAAAAAA2ACQAAAAgABwAAAAAABsAFAAAAAAAAAAAAAAAAAAAAAAAAAAAABAAAAAAAAAADAAAAAgABAA2AAAAAgAAABwAAAAcAAAAHAAAAAAAIEEAAAABaAAAAE3PAEOw////tP///wEAAAAUAAAAEAAaAAgABwAMAAAAEAAUABAAAAAAAAABHAAAAAAAoEEcAAAAAgAAAAAACgAIAAUABgAHAAoAAAAADAD//P///wQABAAEAAAACAAIAAYABwAIAAAAAAAMAA==</value>
					</parameter>
					<parameter authoringApp="PremierePro">
					<parameterid>2</parameterid>
					<name></name>
					<IsTimeVarying>false</IsTimeVarying>
					<ParameterControlType>11</ParameterControlType>
					<LowerBound>false</LowerBound>
					<UpperBound>false</UpperBound>
					<value>-91445760000000000,false,0,0,0,0,0,0</value>
					</parameter>
					<parameter authoringApp="PremierePro">
					<parameterid>3</parameterid>
					<name></name>
					<IsTimeVarying>false</IsTimeVarying>
					<value>-91445760000000000,0.5:0.5,0,0,0,0,0,0,5,4,0,0,0,0</value>
					</parameter>
					<parameter authoringApp="PremierePro">
					<parameterid>4</parameterid>
					<name></name>
					<IsTimeVarying>false</IsTimeVarying>
					<ParameterControlType>2</ParameterControlType>
					<LowerBound>0</LowerBound>
					<UpperBound>4000</UpperBound>
					<value>-91445760000000000,100.,0,0,0,0,0,0</value>
					</parameter>
					<parameter authoringApp="PremierePro">
					<parameterid>8</parameterid>
					<name></name>
					<IsTimeVarying>false</IsTimeVarying>
					<ParameterControlType>2</ParameterControlType>
					<LowerBound>0</LowerBound>
					<UpperBound>100</UpperBound>
					<value>-91445760000000000,100.,0,0,0,0,0,0</value>
					</parameter>
					</effect>
					</filter>
					<logginginfo>
					<description></description>
					<scene></scene>
					<shottake></shottake>
					<lognote></lognote>
					<good></good>
					<originalvideofilename></originalvideofilename>
					<originalaudiofilename></originalaudiofilename>
					</logginginfo>
					<colorinfo>
					<lut></lut>
					<lut1></lut1>
					<asc_sop></asc_sop>
					<asc_sat></asc_sat>
					<lut2></lut2>
					</colorinfo>
					<labels>
					</labels>
					</clipitem>
					<clipitem frameBlend="FALSE" id="clipitem-97">
					<masterclipid>masterclip-17</masterclipid>
					<name></name>
					<enabled>TRUE</enabled>
					<duration>2582774</duration>
					<rate>
					
					                                    <timebase>60</timebase>
					                                    <ntsc>TRUE</ntsc>
					                                
					</rate>
					<start>3299</start>
					<end>3419</end>
					<in>3299</in>
					<out>3419</out>
					<pproTicksIn>914456774963789</pproTicksIn>
					<pproTicksOut>914677708529577</pproTicksOut>
					<alphatype>straight</alphatype>
					<pixelaspectratio>square</pixelaspectratio>
					<anamorphic>FALSE</anamorphic>
					<file id="file-16">
					<name></name>
					<mediaSource>GraphicAndType</mediaSource>
					<rate>
					<timebase>60</timebase>
					<ntsc>TRUE</ntsc>
					</rate>
					<timecode>
					<rate>
					<timebase>60</timebase>
					<ntsc>TRUE</ntsc>
					</rate>
					<string>00:00:00:00</string>
					<frame>0</frame>
					<displayformat>NDF</displayformat>
					</timecode>
					<media>
					<video>
					<samplecharacteristics>
					<rate>
					<timebase>60</timebase>
					<ntsc>TRUE</ntsc>
					</rate>
					<width>1080</width>
					<height>1920</height>
					<anamorphic>FALSE</anamorphic>
					<pixelaspectratio>square</pixelaspectratio>
					<fielddominance>none</fielddominance>
					</samplecharacteristics>
					</video>
					</media>
					</file>
					<filter>
					<effect>
					<name>?</name>
					<effectid>GraphicAndType</effectid>
					<effectcategory>graphic</effectcategory>
					<effecttype>filter</effecttype>
					<mediatype>video</mediatype>
					<pproBypass>false</pproBypass>
					<parameter authoringApp="PremierePro">
					<parameterid>1</parameterid>
					<name></name>
					<hash>025b1101-ead6-0ca2-1feb-caf3000001fc</hash>
					<value>5AEAAAAAAABEMyIRDAAAAAAABgAKAAQABgAAAGQAAAAAAF4ASAAQAAwARABAADwAOAAAAAAAAAAAADQAMwAsAAAAKAAkACAAAAAAAAAAAAAAAAAAHAAAAAAAGgAAAAAAAAAUAAAAAAAAAAAAAAAAAAAAAAAAAAgAAAAAABsABwBeAAAAAAAAAUAAAABQAAAAbAAAAAIAAAAAAAEAAQAAAAAAQEEAAMBAAABAQAAAyEIAAAABIAAAAAIAAAACAAAAAAA2QwCASkTw/v//9P7///j+//8S////AAAAAAEAAAAEAAAAEQAAAEhHUFNvZWlLYWt1cG9wdGFpAAAAAQAAAAwAAAAIAAwABAAIAAgAAAAIAAAAUAAAAA8AAADjgarjgpPjgarjgpPooYwAAAA2ACQAAAAgABwAAAAAABsAFAAAAAAAAAAAAAAAAAAAAAAAAAAAABAAAAAAAAAADAAAAAgABAA2AAAAAgAAABwAAAAcAAAAHAAAAAAAIEEAAAABaAAAAE3PAEOw////tP///wEAAAAUAAAAEAAaAAgABwAMAAAAEAAUABAAAAAAAAABHAAAAAAAoEEcAAAAAgAAAAAACgAIAAUABgAHAAoAAAAADAD//P///wQABAAEAAAACAAIAAYABwAIAAAAAAAMAA==</value>
					</parameter>
					<parameter authoringApp="PremierePro">
					<parameterid>2</parameterid>
					<name></name>
					<IsTimeVarying>false</IsTimeVarying>
					<ParameterControlType>11</ParameterControlType>
					<LowerBound>false</LowerBound>
					<UpperBound>false</UpperBound>
					<value>-91445760000000000,false,0,0,0,0,0,0</value>
					</parameter>
					<parameter authoringApp="PremierePro">
					<parameterid>3</parameterid>
					<name></name>
					<IsTimeVarying>false</IsTimeVarying>
					<value>-91445760000000000,0.5:0.5,0,0,0,0,0,0,5,4,0,0,0,0</value>
					</parameter>
					<parameter authoringApp="PremierePro">
					<parameterid>4</parameterid>
					<name></name>
					<IsTimeVarying>false</IsTimeVarying>
					<ParameterControlType>2</ParameterControlType>
					<LowerBound>0</LowerBound>
					<UpperBound>4000</UpperBound>
					<value>-91445760000000000,100.,0,0,0,0,0,0</value>
					</parameter>
					<parameter authoringApp="PremierePro">
					<parameterid>8</parameterid>
					<name></name>
					<IsTimeVarying>false</IsTimeVarying>
					<ParameterControlType>2</ParameterControlType>
					<LowerBound>0</LowerBound>
					<UpperBound>100</UpperBound>
					<value>-91445760000000000,100.,0,0,0,0,0,0</value>
					</parameter>
					</effect>
					</filter>
					<logginginfo>
					<description></description>
					<scene></scene>
					<shottake></shottake>
					<lognote></lognote>
					<good></good>
					<originalvideofilename></originalvideofilename>
					<originalaudiofilename></originalaudiofilename>
					</logginginfo>
					<colorinfo>
					<lut></lut>
					<lut1></lut1>
					<asc_sop></asc_sop>
					<asc_sat></asc_sat>
					<lut2></lut2>
					</colorinfo>
					<labels>
					</labels>
					</clipitem>
					<clipitem frameBlend="FALSE" id="clipitem-462">
					<masterclipid>masterclip-382</masterclipid>
					<name></name>
					<enabled>TRUE</enabled>
					<duration>2582774</duration>
					<rate>
					
					                                    <timebase>60</timebase>
					                                    <ntsc>TRUE</ntsc>
					                                
					</rate>
					<start>3467</start>
					<end>3527</end>
					<in>3467</in>
					<out>3527</out>
					<pproTicksIn>914456774963789</pproTicksIn>
					<pproTicksOut>914677708529577</pproTicksOut>
					<alphatype>straight</alphatype>
					<pixelaspectratio>square</pixelaspectratio>
					<anamorphic>FALSE</anamorphic>
					<file id="file-381">
					<name></name>
					<mediaSource>GraphicAndType</mediaSource>
					<rate>
					<timebase>60</timebase>
					<ntsc>TRUE</ntsc>
					</rate>
					<timecode>
					<rate>
					<timebase>60</timebase>
					<ntsc>TRUE</ntsc>
					</rate>
					<string>00:00:00:00</string>
					<frame>0</frame>
					<displayformat>NDF</displayformat>
					</timecode>
					<media>
					<video>
					<samplecharacteristics>
					<rate>
					<timebase>60</timebase>
					<ntsc>TRUE</ntsc>
					</rate>
					<width>1080</width>
					<height>1920</height>
					<anamorphic>FALSE</anamorphic>
					<pixelaspectratio>square</pixelaspectratio>
					<fielddominance>none</fielddominance>
					</samplecharacteristics>
					</video>
					</media>
					</file>
					<filter>
					<effect>
					<name></name>
					<effectid>GraphicAndType</effectid>
					<effectcategory>graphic</effectcategory>
					<effecttype>filter</effecttype>
					<mediatype>video</mediatype>
					<pproBypass>false</pproBypass>
					<parameter authoringApp="PremierePro">
					<parameterid>1</parameterid>
					<name></name>
					<hash>025b1101-ead6-0ca2-1feb-caf3000001fc</hash>
					<value>5AEAAAAAAABEMyIRDAAAAAAABgAKAAQABgAAAGQAAAAAAF4ASAAQAAwARABAADwAOAAAAAAAAAAAADQAMwAsAAAAKAAkACAAAAAAAAAAAAAAAAAAHAAAAAAAGgAAAAAAAAAUAAAAAAAAAAAAAAAAAAAAAAAAAAgAAAAAABsABwBeAAAAAAAAAUAAAABQAAAAbAAAAAIAAAAAAAEAAQAAAAAAQEEAAMBAAABAQAAAyEIAAAABIAAAAAIAAAACAAAAAAA2QwCASkTw/v//9P7///j+//8S////AAAAAAEAAAAEAAAAEQAAAEhHUFNvZWlLYWt1cG9wdGFpAAAAAQAAAAwAAAAIAAwABAAIAAgAAAAIAAAAUAAAAA8AAADvvIEAAAAAAAAAAAAAAAAAAAA2ACQAAAAgABwAAAAAABsAFAAAAAAAAAAAAAAAAAAAAAAAAAAAABAAAAAAAAAADAAAAAgABAA2AAAAAgAAABwAAAAcAAAAHAAAAAAAIEEAAAABaAAAAE3PAEOw////tP///wEAAAAUAAAAEAAaAAgABwAMAAAAEAAUABAAAAAAAAABHAAAAAAAoEEcAAAAAgAAAAAACgAIAAUABgAHAAoAAAAADAD//P///wQABAAEAAAACAAIAAYABwAIAAAAAAAMAA==</value>
					</parameter>
					<parameter authoringApp="PremierePro">
					<parameterid>2</parameterid>
					<name></name>
					<IsTimeVarying>false</IsTimeVarying>
					<ParameterControlType>11</ParameterControlType>
					<LowerBound>false</LowerBound>
					<UpperBound>false</UpperBound>
					<value>-91445760000000000,false,0,0,0,0,0,0</value>
					</parameter>
					<parameter authoringApp="PremierePro">
					<parameterid>3</parameterid>
					<name></name>
					<IsTimeVarying>false</IsTimeVarying>
					<value>-91445760000000000,0.5:0.5,0,0,0,0,0,0,5,4,0,0,0,0</value>
					</parameter>
					<parameter authoringApp="PremierePro">
					<parameterid>4</parameterid>
					<name></name>
					<IsTimeVarying>false</IsTimeVarying>
					<ParameterControlType>2</ParameterControlType>
					<LowerBound>0</LowerBound>
					<UpperBound>4000</UpperBound>
					<value>-91445760000000000,100.,0,0,0,0,0,0</value>
					</parameter>
					<parameter authoringApp="PremierePro">
					<parameterid>8</parameterid>
					<name></name>
					<IsTimeVarying>false</IsTimeVarying>
					<ParameterControlType>2</ParameterControlType>
					<LowerBound>0</LowerBound>
					<UpperBound>100</UpperBound>
					<value>-91445760000000000,100.,0,0,0,0,0,0</value>
					</parameter>
					</effect>
					</filter>
					<logginginfo>
					<description></description>
					<scene></scene>
					<shottake></shottake>
					<lognote></lognote>
					<good></good>
					<originalvideofilename></originalvideofilename>
					<originalaudiofilename></originalaudiofilename>
					</logginginfo>
					<colorinfo>
					<lut></lut>
					<lut1></lut1>
					<asc_sop></asc_sop>
					<asc_sat></asc_sat>
					<lut2></lut2>
					</colorinfo>
					<labels>
					</labels>
					</clipitem>
					<clipitem id="clipitem-474"/>
					                        </track>
					                        <track TL.SQTrackShy="0" TL.SQTrackExpandedHeight="25" TL.SQTrackExpanded="0" MZ.TrackTargeted="0">
					<clipitem frameBlend="FALSE" id="clipitem-475">
					<masterclipid>masterclip-395</masterclipid>
					<name></name>
					<enabled>TRUE</enabled>
					<duration>2582774</duration>
					<rate>
					
					                                    <timebase>60</timebase>
					                                    <ntsc>TRUE</ntsc>
					                                
					</rate>
					<start>3622</start>
					<end>3682</end>
					<in>3622</in>
					<out>3682</out>
					<pproTicksIn>914456774963789</pproTicksIn>
					<pproTicksOut>914677708529577</pproTicksOut>
					<alphatype>straight</alphatype>
					<pixelaspectratio>square</pixelaspectratio>
					<anamorphic>FALSE</anamorphic>
					<file id="file-394">
					<name></name>
					<mediaSource>GraphicAndType</mediaSource>
					<rate>
					<timebase>60</timebase>
					<ntsc>TRUE</ntsc>
					</rate>
					<timecode>
					<rate>
					<timebase>60</timebase>
					<ntsc>TRUE</ntsc>
					</rate>
					<string>00:00:00:00</string>
					<frame>0</frame>
					<displayformat>NDF</displayformat>
					</timecode>
					<media>
					<video>
					<samplecharacteristics>
					<rate>
					<timebase>60</timebase>
					<ntsc>TRUE</ntsc>
					</rate>
					<width>1080</width>
					<height>1920</height>
					<anamorphic>FALSE</anamorphic>
					<pixelaspectratio>square</pixelaspectratio>
					<fielddominance>none</fielddominance>
					</samplecharacteristics>
					</video>
					</media>
					</file>
					<filter>
					<effect>
					<name></name>
					<effectid>GraphicAndType</effectid>
					<effectcategory>graphic</effectcategory>
					<effecttype>filter</effecttype>
					<mediatype>video</mediatype>
					<pproBypass>false</pproBypass>
					<parameter authoringApp="PremierePro">
					<parameterid>1</parameterid>
					<name></name>
					<hash>025b1101-ead6-0ca2-1feb-caf3000001fc</hash>
					<value>5AEAAAAAAABEMyIRDAAAAAAABgAKAAQABgAAAGQAAAAAAF4ASAAQAAwARABAADwAOAAAAAAAAAAAADQAMwAsAAAAKAAkACAAAAAAAAAAAAAAAAAAHAAAAAAAGgAAAAAAAAAUAAAAAAAAAAAAAAAAAAAAAAAAAAgAAAAAABsABwBeAAAAAAAAAUAAAABQAAAAbAAAAAIAAAAAAAEAAQAAAAAAQEEAAMBAAABAQAAAyEIAAAABIAAAAAIAAAACAAAAAAA2QwCASkTw/v//9P7///j+//8S////AAAAAAEAAAAEAAAAEQAAAEhHUFNvZWlLYWt1cG9wdGFpAAAAAQAAAAwAAAAIAAwABAAIAAgAAAAIAAAAUAAAAA8AAADvvIEAAAAAAAAAAAAAAAAAAAA2ACQAAAAgABwAAAAAABsAFAAAAAAAAAAAAAAAAAAAAAAAAAAAABAAAAAAAAAADAAAAAgABAA2AAAAAgAAABwAAAAcAAAAHAAAAAAAIEEAAAABaAAAAE3PAEOw////tP///wEAAAAUAAAAEAAaAAgABwAMAAAAEAAUABAAAAAAAAABHAAAAAAAoEEcAAAAAgAAAAAACgAIAAUABgAHAAoAAAAADAD//P///wQABAAEAAAACAAIAAYABwAIAAAAAAAMAA==</value>
					</parameter>
					<parameter authoringApp="PremierePro">
					<parameterid>2</parameterid>
					<name></name>
					<IsTimeVarying>false</IsTimeVarying>
					<ParameterControlType>11</ParameterControlType>
					<LowerBound>false</LowerBound>
					<UpperBound>false</UpperBound>
					<value>-91445760000000000,false,0,0,0,0,0,0</value>
					</parameter>
					<parameter authoringApp="PremierePro">
					<parameterid>3</parameterid>
					<name></name>
					<IsTimeVarying>false</IsTimeVarying>
					<value>-91445760000000000,0.5:0.5,0,0,0,0,0,0,5,4,0,0,0,0</value>
					</parameter>
					<parameter authoringApp="PremierePro">
					<parameterid>4</parameterid>
					<name></name>
					<IsTimeVarying>false</IsTimeVarying>
					<ParameterControlType>2</ParameterControlType>
					<LowerBound>0</LowerBound>
					<UpperBound>4000</UpperBound>
					<value>-91445760000000000,100.,0,0,0,0,0,0</value>
					</parameter>
					<parameter authoringApp="PremierePro">
					<parameterid>8</parameterid>
					<name></name>
					<IsTimeVarying>false</IsTimeVarying>
					<ParameterControlType>2</ParameterControlType>
					<LowerBound>0</LowerBound>
					<UpperBound>100</UpperBound>
					<value>-91445760000000000,100.,0,0,0,0,0,0</value>
					</parameter>
					</effect>
					</filter>
					<logginginfo>
					<description></description>
					<scene></scene>
					<shottake></shottake>
					<lognote></lognote>
					<good></good>
					<originalvideofilename></originalvideofilename>
					<originalaudiofilename></originalaudiofilename>
					</logginginfo>
					<colorinfo>
					<lut></lut>
					<lut1></lut1>
					<asc_sop></asc_sop>
					<asc_sat></asc_sat>
					<lut2></lut2>
					</colorinfo>
					<labels>
					</labels>
					</clipitem>
					<clipitem id="clipitem-483"/>
					                        </track>
					                        <track TL.SQTrackShy="0" TL.SQTrackExpandedHeight="25" TL.SQTrackExpanded="0" MZ.TrackTargeted="0">
					<clipitem frameBlend="FALSE" id="clipitem-484">
					<masterclipid>masterclip-404</masterclipid>
					<name></name>
					<enabled>TRUE</enabled>
					<duration>2582774</duration>
					<rate>
					
					                                    <timebase>60</timebase>
					                                    <ntsc>TRUE</ntsc>
					                                
					</rate>
					<start>3718</start>
					<end>3778</end>
					<in>3718</in>
					<out>3778</out>
					<pproTicksIn>914456774963789</pproTicksIn>
					<pproTicksOut>914677708529577</pproTicksOut>
					<alphatype>straight</alphatype>
					<pixelaspectratio>square</pixelaspectratio>
					<anamorphic>FALSE</anamorphic>
					<file id="file-403">
					<name></name>
					<mediaSource>GraphicAndType</mediaSource>
					<rate>
					<timebase>60</timebase>
					<ntsc>TRUE</ntsc>
					</rate>
					<timecode>
					<rate>
					<timebase>60</timebase>
					<ntsc>TRUE</ntsc>
					</rate>
					<string>00:00:00:00</string>
					<frame>0</frame>
					<displayformat>NDF</displayformat>
					</timecode>
					<media>
					<video>
					<samplecharacteristics>
					<rate>
					<timebase>60</timebase>
					<ntsc>TRUE</ntsc>
					</rate>
					<width>1080</width>
					<height>1920</height>
					<anamorphic>FALSE</anamorphic>
					<pixelaspectratio>square</pixelaspectratio>
					<fielddominance>none</fielddominance>
					</samplecharacteristics>
					</video>
					</media>
					</file>
					<filter>
					<effect>
					<name></name>
					<effectid>GraphicAndType</effectid>
					<effectcategory>graphic</effectcategory>
					<effecttype>filter</effecttype>
					<mediatype>video</mediatype>
					<pproBypass>false</pproBypass>
					<parameter authoringApp="PremierePro">
					<parameterid>1</parameterid>
					<name></name>
					<hash>025b1101-ead6-0ca2-1feb-caf3000001fc</hash>
					<value>5AEAAAAAAABEMyIRDAAAAAAABgAKAAQABgAAAGQAAAAAAF4ASAAQAAwARABAADwAOAAAAAAAAAAAADQAMwAsAAAAKAAkACAAAAAAAAAAAAAAAAAAHAAAAAAAGgAAAAAAAAAUAAAAAAAAAAAAAAAAAAAAAAAAAAgAAAAAABsABwBeAAAAAAAAAUAAAABQAAAAbAAAAAIAAAAAAAEAAQAAAAAAQEEAAMBAAABAQAAAyEIAAAABIAAAAAIAAAACAAAAAAA2QwCASkTw/v//9P7///j+//8S////AAAAAAEAAAAEAAAAEQAAAEhHUFNvZWlLYWt1cG9wdGFpAAAAAQAAAAwAAAAIAAwABAAIAAgAAAAIAAAAUAAAAA8AAADvvIEAAAAAAAAAAAAAAAAAAAA2ACQAAAAgABwAAAAAABsAFAAAAAAAAAAAAAAAAAAAAAAAAAAAABAAAAAAAAAADAAAAAgABAA2AAAAAgAAABwAAAAcAAAAHAAAAAAAIEEAAAABaAAAAE3PAEOw////tP///wEAAAAUAAAAEAAaAAgABwAMAAAAEAAUABAAAAAAAAABHAAAAAAAoEEcAAAAAgAAAAAACgAIAAUABgAHAAoAAAAADAD//P///wQABAAEAAAACAAIAAYABwAIAAAAAAAMAA==</value>
					</parameter>
					<parameter authoringApp="PremierePro">
					<parameterid>2</parameterid>
					<name></name>
					<IsTimeVarying>false</IsTimeVarying>
					<ParameterControlType>11</ParameterControlType>
					<LowerBound>false</LowerBound>
					<UpperBound>false</UpperBound>
					<value>-91445760000000000,false,0,0,0,0,0,0</value>
					</parameter>
					<parameter authoringApp="PremierePro">
					<parameterid>3</parameterid>
					<name></name>
					<IsTimeVarying>false</IsTimeVarying>
					<value>-91445760000000000,0.5:0.5,0,0,0,0,0,0,5,4,0,0,0,0</value>
					</parameter>
					<parameter authoringApp="PremierePro">
					<parameterid>4</parameterid>
					<name></name>
					<IsTimeVarying>false</IsTimeVarying>
					<ParameterControlType>2</ParameterControlType>
					<LowerBound>0</LowerBound>
					<UpperBound>4000</UpperBound>
					<value>-91445760000000000,100.,0,0,0,0,0,0</value>
					</parameter>
					<parameter authoringApp="PremierePro">
					<parameterid>8</parameterid>
					<name></name>
					<IsTimeVarying>false</IsTimeVarying>
					<ParameterControlType>2</ParameterControlType>
					<LowerBound>0</LowerBound>
					<UpperBound>100</UpperBound>
					<value>-91445760000000000,100.,0,0,0,0,0,0</value>
					</parameter>
					</effect>
					</filter>
					<logginginfo>
					<description></description>
					<scene></scene>
					<shottake></shottake>
					<lognote></lognote>
					<good></good>
					<originalvideofilename></originalvideofilename>
					<originalaudiofilename></originalaudiofilename>
					</logginginfo>
					<colorinfo>
					<lut></lut>
					<lut1></lut1>
					<asc_sop></asc_sop>
					<asc_sat></asc_sat>
					<lut2></lut2>
					</colorinfo>
					<labels>
					</labels>
					</clipitem>
					<clipitem frameBlend="FALSE" id="clipitem-495">
					<masterclipid>masterclip-415</masterclipid>
					<name></name>
					<enabled>TRUE</enabled>
					<duration>2582774</duration>
					<rate>
					
					                                    <timebase>60</timebase>
					                                    <ntsc>TRUE</ntsc>
					                                
					</rate>
					<start>3808</start>
					<end>3868</end>
					<in>3808</in>
					<out>3868</out>
					<pproTicksIn>914456774963789</pproTicksIn>
					<pproTicksOut>914677708529577</pproTicksOut>
					<alphatype>straight</alphatype>
					<pixelaspectratio>square</pixelaspectratio>
					<anamorphic>FALSE</anamorphic>
					<file id="file-414">
					<name></name>
					<mediaSource>GraphicAndType</mediaSource>
					<rate>
					<timebase>60</timebase>
					<ntsc>TRUE</ntsc>
					</rate>
					<timecode>
					<rate>
					<timebase>60</timebase>
					<ntsc>TRUE</ntsc>
					</rate>
					<string>00:00:00:00</string>
					<frame>0</frame>
					<displayformat>NDF</displayformat>
					</timecode>
					<media>
					<video>
					<samplecharacteristics>
					<rate>
					<timebase>60</timebase>
					<ntsc>TRUE</ntsc>
					</rate>
					<width>1080</width>
					<height>1920</height>
					<anamorphic>FALSE</anamorphic>
					<pixelaspectratio>square</pixelaspectratio>
					<fielddominance>none</fielddominance>
					</samplecharacteristics>
					</video>
					</media>
					</file>
					<filter>
					<effect>
					<name></name>
					<effectid>GraphicAndType</effectid>
					<effectcategory>graphic</effectcategory>
					<effecttype>filter</effecttype>
					<mediatype>video</mediatype>
					<pproBypass>false</pproBypass>
					<parameter authoringApp="PremierePro">
					<parameterid>1</parameterid>
					<name></name>
					<hash>025b1101-ead6-0ca2-1feb-caf3000001fc</hash>
					<value>5AEAAAAAAABEMyIRDAAAAAAABgAKAAQABgAAAGQAAAAAAF4ASAAQAAwARABAADwAOAAAAAAAAAAAADQAMwAsAAAAKAAkACAAAAAAAAAAAAAAAAAAHAAAAAAAGgAAAAAAAAAUAAAAAAAAAAAAAAAAAAAAAAAAAAgAAAAAABsABwBeAAAAAAAAAUAAAABQAAAAbAAAAAIAAAAAAAEAAQAAAAAAQEEAAMBAAABAQAAAyEIAAAABIAAAAAIAAAACAAAAAAA2QwCASkTw/v//9P7///j+//8S////AAAAAAEAAAAEAAAAEQAAAEhHUFNvZWlLYWt1cG9wdGFpAAAAAQAAAAwAAAAIAAwABAAIAAgAAAAIAAAAUAAAAA8AAADvvIEAAAAAAAAAAAAAAAAAAAA2ACQAAAAgABwAAAAAABsAFAAAAAAAAAAAAAAAAAAAAAAAAAAAABAAAAAAAAAADAAAAAgABAA2AAAAAgAAABwAAAAcAAAAHAAAAAAAIEEAAAABaAAAAE3PAEOw////tP///wEAAAAUAAAAEAAaAAgABwAMAAAAEAAUABAAAAAAAAABHAAAAAAAoEEcAAAAAgAAAAAACgAIAAUABgAHAAoAAAAADAD//P///wQABAAEAAAACAAIAAYABwAIAAAAAAAMAA==</value>
					</parameter>
					<parameter authoringApp="PremierePro">
					<parameterid>2</parameterid>
					<name></name>
					<IsTimeVarying>false</IsTimeVarying>
					<ParameterControlType>11</ParameterControlType>
					<LowerBound>false</LowerBound>
					<UpperBound>false</UpperBound>
					<value>-91445760000000000,false,0,0,0,0,0,0</value>
					</parameter>
					<parameter authoringApp="PremierePro">
					<parameterid>3</parameterid>
					<name></name>
					<IsTimeVarying>false</IsTimeVarying>
					<value>-91445760000000000,0.5:0.5,0,0,0,0,0,0,5,4,0,0,0,0</value>
					</parameter>
					<parameter authoringApp="PremierePro">
					<parameterid>4</parameterid>
					<name></name>
					<IsTimeVarying>false</IsTimeVarying>
					<ParameterControlType>2</ParameterControlType>
					<LowerBound>0</LowerBound>
					<UpperBound>4000</UpperBound>
					<value>-91445760000000000,100.,0,0,0,0,0,0</value>
					</parameter>
					<parameter authoringApp="PremierePro">
					<parameterid>8</parameterid>
					<name></name>
					<IsTimeVarying>false</IsTimeVarying>
					<ParameterControlType>2</ParameterControlType>
					<LowerBound>0</LowerBound>
					<UpperBound>100</UpperBound>
					<value>-91445760000000000,100.,0,0,0,0,0,0</value>
					</parameter>
					</effect>
					</filter>
					<logginginfo>
					<description></description>
					<scene></scene>
					<shottake></shottake>
					<lognote></lognote>
					<good></good>
					<originalvideofilename></originalvideofilename>
					<originalaudiofilename></originalaudiofilename>
					</logginginfo>
					<colorinfo>
					<lut></lut>
					<lut1></lut1>
					<asc_sop></asc_sop>
					<asc_sat></asc_sat>
					<lut2></lut2>
					</colorinfo>
					<labels>
					</labels>
					</clipitem>
					<clipitem frameBlend="FALSE" id="clipitem-522">
					<masterclipid>masterclip-442</masterclipid>
					<name></name>
					<enabled>TRUE</enabled>
					<duration>2582774</duration>
					<rate>
					
					                                    <timebase>60</timebase>
					                                    <ntsc>TRUE</ntsc>
					                                
					</rate>
					<start>4234</start>
					<end>4294</end>
					<in>4234</in>
					<out>4294</out>
					<pproTicksIn>914456774963789</pproTicksIn>
					<pproTicksOut>914677708529577</pproTicksOut>
					<alphatype>straight</alphatype>
					<pixelaspectratio>square</pixelaspectratio>
					<anamorphic>FALSE</anamorphic>
					<file id="file-441">
					<name></name>
					<mediaSource>GraphicAndType</mediaSource>
					<rate>
					<timebase>60</timebase>
					<ntsc>TRUE</ntsc>
					</rate>
					<timecode>
					<rate>
					<timebase>60</timebase>
					<ntsc>TRUE</ntsc>
					</rate>
					<string>00:00:00:00</string>
					<frame>0</frame>
					<displayformat>NDF</displayformat>
					</timecode>
					<media>
					<video>
					<samplecharacteristics>
					<rate>
					<timebase>60</timebase>
					<ntsc>TRUE</ntsc>
					</rate>
					<width>1080</width>
					<height>1920</height>
					<anamorphic>FALSE</anamorphic>
					<pixelaspectratio>square</pixelaspectratio>
					<fielddominance>none</fielddominance>
					</samplecharacteristics>
					</video>
					</media>
					</file>
					<filter>
					<effect>
					<name></name>
					<effectid>GraphicAndType</effectid>
					<effectcategory>graphic</effectcategory>
					<effecttype>filter</effecttype>
					<mediatype>video</mediatype>
					<pproBypass>false</pproBypass>
					<parameter authoringApp="PremierePro">
					<parameterid>1</parameterid>
					<name></name>
					<hash>025b1101-ead6-0ca2-1feb-caf3000001fc</hash>
					<value>5AEAAAAAAABEMyIRDAAAAAAABgAKAAQABgAAAGQAAAAAAF4ASAAQAAwARABAADwAOAAAAAAAAAAAADQAMwAsAAAAKAAkACAAAAAAAAAAAAAAAAAAHAAAAAAAGgAAAAAAAAAUAAAAAAAAAAAAAAAAAAAAAAAAAAgAAAAAABsABwBeAAAAAAAAAUAAAABQAAAAbAAAAAIAAAAAAAEAAQAAAAAAQEEAAMBAAABAQAAAyEIAAAABIAAAAAIAAAACAAAAAAA2QwCASkTw/v//9P7///j+//8S////AAAAAAEAAAAEAAAAEQAAAEhHUFNvZWlLYWt1cG9wdGFpAAAAAQAAAAwAAAAIAAwABAAIAAgAAAAIAAAAUAAAAA8AAADvvIEAAAAAAAAAAAAAAAAAAAA2ACQAAAAgABwAAAAAABsAFAAAAAAAAAAAAAAAAAAAAAAAAAAAABAAAAAAAAAADAAAAAgABAA2AAAAAgAAABwAAAAcAAAAHAAAAAAAIEEAAAABaAAAAE3PAEOw////tP///wEAAAAUAAAAEAAaAAgABwAMAAAAEAAUABAAAAAAAAABHAAAAAAAoEEcAAAAAgAAAAAACgAIAAUABgAHAAoAAAAADAD//P///wQABAAEAAAACAAIAAYABwAIAAAAAAAMAA==</value>
					</parameter>
					<parameter authoringApp="PremierePro">
					<parameterid>2</parameterid>
					<name></name>
					<IsTimeVarying>false</IsTimeVarying>
					<ParameterControlType>11</ParameterControlType>
					<LowerBound>false</LowerBound>
					<UpperBound>false</UpperBound>
					<value>-91445760000000000,false,0,0,0,0,0,0</value>
					</parameter>
					<parameter authoringApp="PremierePro">
					<parameterid>3</parameterid>
					<name></name>
					<IsTimeVarying>false</IsTimeVarying>
					<value>-91445760000000000,0.5:0.5,0,0,0,0,0,0,5,4,0,0,0,0</value>
					</parameter>
					<parameter authoringApp="PremierePro">
					<parameterid>4</parameterid>
					<name></name>
					<IsTimeVarying>false</IsTimeVarying>
					<ParameterControlType>2</ParameterControlType>
					<LowerBound>0</LowerBound>
					<UpperBound>4000</UpperBound>
					<value>-91445760000000000,100.,0,0,0,0,0,0</value>
					</parameter>
					<parameter authoringApp="PremierePro">
					<parameterid>8</parameterid>
					<name></name>
					<IsTimeVarying>false</IsTimeVarying>
					<ParameterControlType>2</ParameterControlType>
					<LowerBound>0</LowerBound>
					<UpperBound>100</UpperBound>
					<value>-91445760000000000,100.,0,0,0,0,0,0</value>
					</parameter>
					</effect>
					</filter>
					<logginginfo>
					<description></description>
					<scene></scene>
					<shottake></shottake>
					<lognote></lognote>
					<good></good>
					<originalvideofilename></originalvideofilename>
					<originalaudiofilename></originalaudiofilename>
					</logginginfo>
					<colorinfo>
					<lut></lut>
					<lut1></lut1>
					<asc_sop></asc_sop>
					<asc_sat></asc_sat>
					<lut2></lut2>
					</colorinfo>
					<labels>
					</labels>
					</clipitem>
					<clipitem id="clipitem-529"/>
					                        </track>
					                        <track TL.SQTrackShy="0" TL.SQTrackExpandedHeight="25" TL.SQTrackExpanded="0" MZ.TrackTargeted="0">
					<clipitem frameBlend="FALSE" id="clipitem-530">
					<masterclipid>masterclip-450</masterclipid>
					<name></name>
					<enabled>TRUE</enabled>
					<duration>2582774</duration>
					<rate>
					
					                                    <timebase>60</timebase>
					                                    <ntsc>TRUE</ntsc>
					                                
					</rate>
					<start>4312</start>
					<end>4372</end>
					<in>4312</in>
					<out>4372</out>
					<pproTicksIn>914456774963789</pproTicksIn>
					<pproTicksOut>914677708529577</pproTicksOut>
					<alphatype>straight</alphatype>
					<pixelaspectratio>square</pixelaspectratio>
					<anamorphic>FALSE</anamorphic>
					<file id="file-449">
					<name></name>
					<mediaSource>GraphicAndType</mediaSource>
					<rate>
					<timebase>60</timebase>
					<ntsc>TRUE</ntsc>
					</rate>
					<timecode>
					<rate>
					<timebase>60</timebase>
					<ntsc>TRUE</ntsc>
					</rate>
					<string>00:00:00:00</string>
					<frame>0</frame>
					<displayformat>NDF</displayformat>
					</timecode>
					<media>
					<video>
					<samplecharacteristics>
					<rate>
					<timebase>60</timebase>
					<ntsc>TRUE</ntsc>
					</rate>
					<width>1080</width>
					<height>1920</height>
					<anamorphic>FALSE</anamorphic>
					<pixelaspectratio>square</pixelaspectratio>
					<fielddominance>none</fielddominance>
					</samplecharacteristics>
					</video>
					</media>
					</file>
					<filter>
					<effect>
					<name></name>
					<effectid>GraphicAndType</effectid>
					<effectcategory>graphic</effectcategory>
					<effecttype>filter</effecttype>
					<mediatype>video</mediatype>
					<pproBypass>false</pproBypass>
					<parameter authoringApp="PremierePro">
					<parameterid>1</parameterid>
					<name></name>
					<hash>025b1101-ead6-0ca2-1feb-caf3000001fc</hash>
					<value>5AEAAAAAAABEMyIRDAAAAAAABgAKAAQABgAAAGQAAAAAAF4ASAAQAAwARABAADwAOAAAAAAAAAAAADQAMwAsAAAAKAAkACAAAAAAAAAAAAAAAAAAHAAAAAAAGgAAAAAAAAAUAAAAAAAAAAAAAAAAAAAAAAAAAAgAAAAAABsABwBeAAAAAAAAAUAAAABQAAAAbAAAAAIAAAAAAAEAAQAAAAAAQEEAAMBAAABAQAAAyEIAAAABIAAAAAIAAAACAAAAAAA2QwCASkTw/v//9P7///j+//8S////AAAAAAEAAAAEAAAAEQAAAEhHUFNvZWlLYWt1cG9wdGFpAAAAAQAAAAwAAAAIAAwABAAIAAgAAAAIAAAAUAAAAA8AAADvvIEAAAAAAAAAAAAAAAAAAAA2ACQAAAAgABwAAAAAABsAFAAAAAAAAAAAAAAAAAAAAAAAAAAAABAAAAAAAAAADAAAAAgABAA2AAAAAgAAABwAAAAcAAAAHAAAAAAAIEEAAAABaAAAAE3PAEOw////tP///wEAAAAUAAAAEAAaAAgABwAMAAAAEAAUABAAAAAAAAABHAAAAAAAoEEcAAAAAgAAAAAACgAIAAUABgAHAAoAAAAADAD//P///wQABAAEAAAACAAIAAYABwAIAAAAAAAMAA==</value>
					</parameter>
					<parameter authoringApp="PremierePro">
					<parameterid>2</parameterid>
					<name></name>
					<IsTimeVarying>false</IsTimeVarying>
					<ParameterControlType>11</ParameterControlType>
					<LowerBound>false</LowerBound>
					<UpperBound>false</UpperBound>
					<value>-91445760000000000,false,0,0,0,0,0,0</value>
					</parameter>
					<parameter authoringApp="PremierePro">
					<parameterid>3</parameterid>
					<name></name>
					<IsTimeVarying>false</IsTimeVarying>
					<value>-91445760000000000,0.5:0.5,0,0,0,0,0,0,5,4,0,0,0,0</value>
					</parameter>
					<parameter authoringApp="PremierePro">
					<parameterid>4</parameterid>
					<name></name>
					<IsTimeVarying>false</IsTimeVarying>
					<ParameterControlType>2</ParameterControlType>
					<LowerBound>0</LowerBound>
					<UpperBound>4000</UpperBound>
					<value>-91445760000000000,100.,0,0,0,0,0,0</value>
					</parameter>
					<parameter authoringApp="PremierePro">
					<parameterid>8</parameterid>
					<name></name>
					<IsTimeVarying>false</IsTimeVarying>
					<ParameterControlType>2</ParameterControlType>
					<LowerBound>0</LowerBound>
					<UpperBound>100</UpperBound>
					<value>-91445760000000000,100.,0,0,0,0,0,0</value>
					</parameter>
					</effect>
					</filter>
					<logginginfo>
					<description></description>
					<scene></scene>
					<shottake></shottake>
					<lognote></lognote>
					<good></good>
					<originalvideofilename></originalvideofilename>
					<originalaudiofilename></originalaudiofilename>
					</logginginfo>
					<colorinfo>
					<lut></lut>
					<lut1></lut1>
					<asc_sop></asc_sop>
					<asc_sat></asc_sat>
					<lut2></lut2>
					</colorinfo>
					<labels>
					</labels>
					</clipitem>
					<clipitem frameBlend="FALSE" id="clipitem-536">
					<masterclipid>masterclip-456</masterclipid>
					<name></name>
					<enabled>TRUE</enabled>
					<duration>2582774</duration>
					<rate>
					
					                                    <timebase>60</timebase>
					                                    <ntsc>TRUE</ntsc>
					                                
					</rate>
					<start>4378</start>
					<end>4438</end>
					<in>4378</in>
					<out>4438</out>
					<pproTicksIn>914456774963789</pproTicksIn>
					<pproTicksOut>914677708529577</pproTicksOut>
					<alphatype>straight</alphatype>
					<pixelaspectratio>square</pixelaspectratio>
					<anamorphic>FALSE</anamorphic>
					<file id="file-455">
					<name></name>
					<mediaSource>GraphicAndType</mediaSource>
					<rate>
					<timebase>60</timebase>
					<ntsc>TRUE</ntsc>
					</rate>
					<timecode>
					<rate>
					<timebase>60</timebase>
					<ntsc>TRUE</ntsc>
					</rate>
					<string>00:00:00:00</string>
					<frame>0</frame>
					<displayformat>NDF</displayformat>
					</timecode>
					<media>
					<video>
					<samplecharacteristics>
					<rate>
					<timebase>60</timebase>
					<ntsc>TRUE</ntsc>
					</rate>
					<width>1080</width>
					<height>1920</height>
					<anamorphic>FALSE</anamorphic>
					<pixelaspectratio>square</pixelaspectratio>
					<fielddominance>none</fielddominance>
					</samplecharacteristics>
					</video>
					</media>
					</file>
					<filter>
					<effect>
					<name></name>
					<effectid>GraphicAndType</effectid>
					<effectcategory>graphic</effectcategory>
					<effecttype>filter</effecttype>
					<mediatype>video</mediatype>
					<pproBypass>false</pproBypass>
					<parameter authoringApp="PremierePro">
					<parameterid>1</parameterid>
					<name></name>
					<hash>025b1101-ead6-0ca2-1feb-caf3000001fc</hash>
					<value>5AEAAAAAAABEMyIRDAAAAAAABgAKAAQABgAAAGQAAAAAAF4ASAAQAAwARABAADwAOAAAAAAAAAAAADQAMwAsAAAAKAAkACAAAAAAAAAAAAAAAAAAHAAAAAAAGgAAAAAAAAAUAAAAAAAAAAAAAAAAAAAAAAAAAAgAAAAAABsABwBeAAAAAAAAAUAAAABQAAAAbAAAAAIAAAAAAAEAAQAAAAAAQEEAAMBAAABAQAAAyEIAAAABIAAAAAIAAAACAAAAAAA2QwCASkTw/v//9P7///j+//8S////AAAAAAEAAAAEAAAAEQAAAEhHUFNvZWlLYWt1cG9wdGFpAAAAAQAAAAwAAAAIAAwABAAIAAgAAAAIAAAAUAAAAA8AAADvvIEAAAAAAAAAAAAAAAAAAAA2ACQAAAAgABwAAAAAABsAFAAAAAAAAAAAAAAAAAAAAAAAAAAAABAAAAAAAAAADAAAAAgABAA2AAAAAgAAABwAAAAcAAAAHAAAAAAAIEEAAAABaAAAAE3PAEOw////tP///wEAAAAUAAAAEAAaAAgABwAMAAAAEAAUABAAAAAAAAABHAAAAAAAoEEcAAAAAgAAAAAACgAIAAUABgAHAAoAAAAADAD//P///wQABAAEAAAACAAIAAYABwAIAAAAAAAMAA==</value>
					</parameter>
					<parameter authoringApp="PremierePro">
					<parameterid>2</parameterid>
					<name></name>
					<IsTimeVarying>false</IsTimeVarying>
					<ParameterControlType>11</ParameterControlType>
					<LowerBound>false</LowerBound>
					<UpperBound>false</UpperBound>
					<value>-91445760000000000,false,0,0,0,0,0,0</value>
					</parameter>
					<parameter authoringApp="PremierePro">
					<parameterid>3</parameterid>
					<name></name>
					<IsTimeVarying>false</IsTimeVarying>
					<value>-91445760000000000,0.5:0.5,0,0,0,0,0,0,5,4,0,0,0,0</value>
					</parameter>
					<parameter authoringApp="PremierePro">
					<parameterid>4</parameterid>
					<name></name>
					<IsTimeVarying>false</IsTimeVarying>
					<ParameterControlType>2</ParameterControlType>
					<LowerBound>0</LowerBound>
					<UpperBound>4000</UpperBound>
					<value>-91445760000000000,100.,0,0,0,0,0,0</value>
					</parameter>
					<parameter authoringApp="PremierePro">
					<parameterid>8</parameterid>
					<name></name>
					<IsTimeVarying>false</IsTimeVarying>
					<ParameterControlType>2</ParameterControlType>
					<LowerBound>0</LowerBound>
					<UpperBound>100</UpperBound>
					<value>-91445760000000000,100.,0,0,0,0,0,0</value>
					</parameter>
					</effect>
					</filter>
					<logginginfo>
					<description></description>
					<scene></scene>
					<shottake></shottake>
					<lognote></lognote>
					<good></good>
					<originalvideofilename></originalvideofilename>
					<originalaudiofilename></originalaudiofilename>
					</logginginfo>
					<colorinfo>
					<lut></lut>
					<lut1></lut1>
					<asc_sop></asc_sop>
					<asc_sat></asc_sat>
					<lut2></lut2>
					</colorinfo>
					<labels>
					</labels>
					</clipitem>
					<clipitem frameBlend="FALSE" id="clipitem-545">
					<masterclipid>masterclip-465</masterclipid>
					<name></name>
					<enabled>TRUE</enabled>
					<duration>2582774</duration>
					<rate>
					
					                                    <timebase>60</timebase>
					                                    <ntsc>TRUE</ntsc>
					                                
					</rate>
					<start>4444</start>
					<end>4504</end>
					<in>4444</in>
					<out>4504</out>
					<pproTicksIn>914456774963789</pproTicksIn>
					<pproTicksOut>914677708529577</pproTicksOut>
					<alphatype>straight</alphatype>
					<pixelaspectratio>square</pixelaspectratio>
					<anamorphic>FALSE</anamorphic>
					<file id="file-464">
					<name></name>
					<mediaSource>GraphicAndType</mediaSource>
					<rate>
					<timebase>60</timebase>
					<ntsc>TRUE</ntsc>
					</rate>
					<timecode>
					<rate>
					<timebase>60</timebase>
					<ntsc>TRUE</ntsc>
					</rate>
					<string>00:00:00:00</string>
					<frame>0</frame>
					<displayformat>NDF</displayformat>
					</timecode>
					<media>
					<video>
					<samplecharacteristics>
					<rate>
					<timebase>60</timebase>
					<ntsc>TRUE</ntsc>
					</rate>
					<width>1080</width>
					<height>1920</height>
					<anamorphic>FALSE</anamorphic>
					<pixelaspectratio>square</pixelaspectratio>
					<fielddominance>none</fielddominance>
					</samplecharacteristics>
					</video>
					</media>
					</file>
					<filter>
					<effect>
					<name></name>
					<effectid>GraphicAndType</effectid>
					<effectcategory>graphic</effectcategory>
					<effecttype>filter</effecttype>
					<mediatype>video</mediatype>
					<pproBypass>false</pproBypass>
					<parameter authoringApp="PremierePro">
					<parameterid>1</parameterid>
					<name></name>
					<hash>025b1101-ead6-0ca2-1feb-caf3000001fc</hash>
					<value>5AEAAAAAAABEMyIRDAAAAAAABgAKAAQABgAAAGQAAAAAAF4ASAAQAAwARABAADwAOAAAAAAAAAAAADQAMwAsAAAAKAAkACAAAAAAAAAAAAAAAAAAHAAAAAAAGgAAAAAAAAAUAAAAAAAAAAAAAAAAAAAAAAAAAAgAAAAAABsABwBeAAAAAAAAAUAAAABQAAAAbAAAAAIAAAAAAAEAAQAAAAAAQEEAAMBAAABAQAAAyEIAAAABIAAAAAIAAAACAAAAAAA2QwCASkTw/v//9P7///j+//8S////AAAAAAEAAAAEAAAAEQAAAEhHUFNvZWlLYWt1cG9wdGFpAAAAAQAAAAwAAAAIAAwABAAIAAgAAAAIAAAAUAAAAA8AAADvvIEAAAAAAAAAAAAAAAAAAAA2ACQAAAAgABwAAAAAABsAFAAAAAAAAAAAAAAAAAAAAAAAAAAAABAAAAAAAAAADAAAAAgABAA2AAAAAgAAABwAAAAcAAAAHAAAAAAAIEEAAAABaAAAAE3PAEOw////tP///wEAAAAUAAAAEAAaAAgABwAMAAAAEAAUABAAAAAAAAABHAAAAAAAoEEcAAAAAgAAAAAACgAIAAUABgAHAAoAAAAADAD//P///wQABAAEAAAACAAIAAYABwAIAAAAAAAMAA==</value>
					</parameter>
					<parameter authoringApp="PremierePro">
					<parameterid>2</parameterid>
					<name></name>
					<IsTimeVarying>false</IsTimeVarying>
					<ParameterControlType>11</ParameterControlType>
					<LowerBound>false</LowerBound>
					<UpperBound>false</UpperBound>
					<value>-91445760000000000,false,0,0,0,0,0,0</value>
					</parameter>
					<parameter authoringApp="PremierePro">
					<parameterid>3</parameterid>
					<name></name>
					<IsTimeVarying>false</IsTimeVarying>
					<value>-91445760000000000,0.5:0.5,0,0,0,0,0,0,5,4,0,0,0,0</value>
					</parameter>
					<parameter authoringApp="PremierePro">
					<parameterid>4</parameterid>
					<name></name>
					<IsTimeVarying>false</IsTimeVarying>
					<ParameterControlType>2</ParameterControlType>
					<LowerBound>0</LowerBound>
					<UpperBound>4000</UpperBound>
					<value>-91445760000000000,100.,0,0,0,0,0,0</value>
					</parameter>
					<parameter authoringApp="PremierePro">
					<parameterid>8</parameterid>
					<name></name>
					<IsTimeVarying>false</IsTimeVarying>
					<ParameterControlType>2</ParameterControlType>
					<LowerBound>0</LowerBound>
					<UpperBound>100</UpperBound>
					<value>-91445760000000000,100.,0,0,0,0,0,0</value>
					</parameter>
					</effect>
					</filter>
					<logginginfo>
					<description></description>
					<scene></scene>
					<shottake></shottake>
					<lognote></lognote>
					<good></good>
					<originalvideofilename></originalvideofilename>
					<originalaudiofilename></originalaudiofilename>
					</logginginfo>
					<colorinfo>
					<lut></lut>
					<lut1></lut1>
					<asc_sop></asc_sop>
					<asc_sat></asc_sat>
					<lut2></lut2>
					</colorinfo>
					<labels>
					</labels>
					</clipitem>
					<clipitem frameBlend="FALSE" id="clipitem-555">
					<masterclipid>masterclip-475</masterclipid>
					<name></name>
					<enabled>TRUE</enabled>
					<duration>2582774</duration>
					<rate>
					
					                                    <timebase>60</timebase>
					                                    <ntsc>TRUE</ntsc>
					                                
					</rate>
					<start>4504</start>
					<end>4564</end>
					<in>4504</in>
					<out>4564</out>
					<pproTicksIn>914456774963789</pproTicksIn>
					<pproTicksOut>914677708529577</pproTicksOut>
					<alphatype>straight</alphatype>
					<pixelaspectratio>square</pixelaspectratio>
					<anamorphic>FALSE</anamorphic>
					<file id="file-474">
					<name></name>
					<mediaSource>GraphicAndType</mediaSource>
					<rate>
					<timebase>60</timebase>
					<ntsc>TRUE</ntsc>
					</rate>
					<timecode>
					<rate>
					<timebase>60</timebase>
					<ntsc>TRUE</ntsc>
					</rate>
					<string>00:00:00:00</string>
					<frame>0</frame>
					<displayformat>NDF</displayformat>
					</timecode>
					<media>
					<video>
					<samplecharacteristics>
					<rate>
					<timebase>60</timebase>
					<ntsc>TRUE</ntsc>
					</rate>
					<width>1080</width>
					<height>1920</height>
					<anamorphic>FALSE</anamorphic>
					<pixelaspectratio>square</pixelaspectratio>
					<fielddominance>none</fielddominance>
					</samplecharacteristics>
					</video>
					</media>
					</file>
					<filter>
					<effect>
					<name></name>
					<effectid>GraphicAndType</effectid>
					<effectcategory>graphic</effectcategory>
					<effecttype>filter</effecttype>
					<mediatype>video</mediatype>
					<pproBypass>false</pproBypass>
					<parameter authoringApp="PremierePro">
					<parameterid>1</parameterid>
					<name></name>
					<hash>025b1101-ead6-0ca2-1feb-caf3000001fc</hash>
					<value>5AEAAAAAAABEMyIRDAAAAAAABgAKAAQABgAAAGQAAAAAAF4ASAAQAAwARABAADwAOAAAAAAAAAAAADQAMwAsAAAAKAAkACAAAAAAAAAAAAAAAAAAHAAAAAAAGgAAAAAAAAAUAAAAAAAAAAAAAAAAAAAAAAAAAAgAAAAAABsABwBeAAAAAAAAAUAAAABQAAAAbAAAAAIAAAAAAAEAAQAAAAAAQEEAAMBAAABAQAAAyEIAAAABIAAAAAIAAAACAAAAAAA2QwCASkTw/v//9P7///j+//8S////AAAAAAEAAAAEAAAAEQAAAEhHUFNvZWlLYWt1cG9wdGFpAAAAAQAAAAwAAAAIAAwABAAIAAgAAAAIAAAAUAAAAA8AAADvvIEAAAAAAAAAAAAAAAAAAAA2ACQAAAAgABwAAAAAABsAFAAAAAAAAAAAAAAAAAAAAAAAAAAAABAAAAAAAAAADAAAAAgABAA2AAAAAgAAABwAAAAcAAAAHAAAAAAAIEEAAAABaAAAAE3PAEOw////tP///wEAAAAUAAAAEAAaAAgABwAMAAAAEAAUABAAAAAAAAABHAAAAAAAoEEcAAAAAgAAAAAACgAIAAUABgAHAAoAAAAADAD//P///wQABAAEAAAACAAIAAYABwAIAAAAAAAMAA==</value>
					</parameter>
					<parameter authoringApp="PremierePro">
					<parameterid>2</parameterid>
					<name></name>
					<IsTimeVarying>false</IsTimeVarying>
					<ParameterControlType>11</ParameterControlType>
					<LowerBound>false</LowerBound>
					<UpperBound>false</UpperBound>
					<value>-91445760000000000,false,0,0,0,0,0,0</value>
					</parameter>
					<parameter authoringApp="PremierePro">
					<parameterid>3</parameterid>
					<name></name>
					<IsTimeVarying>false</IsTimeVarying>
					<value>-91445760000000000,0.5:0.5,0,0,0,0,0,0,5,4,0,0,0,0</value>
					</parameter>
					<parameter authoringApp="PremierePro">
					<parameterid>4</parameterid>
					<name></name>
					<IsTimeVarying>false</IsTimeVarying>
					<ParameterControlType>2</ParameterControlType>
					<LowerBound>0</LowerBound>
					<UpperBound>4000</UpperBound>
					<value>-91445760000000000,100.,0,0,0,0,0,0</value>
					</parameter>
					<parameter authoringApp="PremierePro">
					<parameterid>8</parameterid>
					<name></name>
					<IsTimeVarying>false</IsTimeVarying>
					<ParameterControlType>2</ParameterControlType>
					<LowerBound>0</LowerBound>
					<UpperBound>100</UpperBound>
					<value>-91445760000000000,100.,0,0,0,0,0,0</value>
					</parameter>
					</effect>
					</filter>
					<logginginfo>
					<description></description>
					<scene></scene>
					<shottake></shottake>
					<lognote></lognote>
					<good></good>
					<originalvideofilename></originalvideofilename>
					<originalaudiofilename></originalaudiofilename>
					</logginginfo>
					<colorinfo>
					<lut></lut>
					<lut1></lut1>
					<asc_sop></asc_sop>
					<asc_sat></asc_sat>
					<lut2></lut2>
					</colorinfo>
					<labels>
					</labels>
					</clipitem>
					<clipitem frameBlend="FALSE" id="clipitem-561">
					<masterclipid>masterclip-481</masterclipid>
					<name></name>
					<enabled>TRUE</enabled>
					<duration>2582774</duration>
					<rate>
					
					                                    <timebase>60</timebase>
					                                    <ntsc>TRUE</ntsc>
					                                
					</rate>
					<start>4582</start>
					<end>4642</end>
					<in>4582</in>
					<out>4642</out>
					<pproTicksIn>914456774963789</pproTicksIn>
					<pproTicksOut>914677708529577</pproTicksOut>
					<alphatype>straight</alphatype>
					<pixelaspectratio>square</pixelaspectratio>
					<anamorphic>FALSE</anamorphic>
					<file id="file-480">
					<name></name>
					<mediaSource>GraphicAndType</mediaSource>
					<rate>
					<timebase>60</timebase>
					<ntsc>TRUE</ntsc>
					</rate>
					<timecode>
					<rate>
					<timebase>60</timebase>
					<ntsc>TRUE</ntsc>
					</rate>
					<string>00:00:00:00</string>
					<frame>0</frame>
					<displayformat>NDF</displayformat>
					</timecode>
					<media>
					<video>
					<samplecharacteristics>
					<rate>
					<timebase>60</timebase>
					<ntsc>TRUE</ntsc>
					</rate>
					<width>1080</width>
					<height>1920</height>
					<anamorphic>FALSE</anamorphic>
					<pixelaspectratio>square</pixelaspectratio>
					<fielddominance>none</fielddominance>
					</samplecharacteristics>
					</video>
					</media>
					</file>
					<filter>
					<effect>
					<name></name>
					<effectid>GraphicAndType</effectid>
					<effectcategory>graphic</effectcategory>
					<effecttype>filter</effecttype>
					<mediatype>video</mediatype>
					<pproBypass>false</pproBypass>
					<parameter authoringApp="PremierePro">
					<parameterid>1</parameterid>
					<name></name>
					<hash>025b1101-ead6-0ca2-1feb-caf3000001fc</hash>
					<value>5AEAAAAAAABEMyIRDAAAAAAABgAKAAQABgAAAGQAAAAAAF4ASAAQAAwARABAADwAOAAAAAAAAAAAADQAMwAsAAAAKAAkACAAAAAAAAAAAAAAAAAAHAAAAAAAGgAAAAAAAAAUAAAAAAAAAAAAAAAAAAAAAAAAAAgAAAAAABsABwBeAAAAAAAAAUAAAABQAAAAbAAAAAIAAAAAAAEAAQAAAAAAQEEAAMBAAABAQAAAyEIAAAABIAAAAAIAAAACAAAAAAA2QwCASkTw/v//9P7///j+//8S////AAAAAAEAAAAEAAAAEQAAAEhHUFNvZWlLYWt1cG9wdGFpAAAAAQAAAAwAAAAIAAwABAAIAAgAAAAIAAAAUAAAAA8AAADvvIEAAAAAAAAAAAAAAAAAAAA2ACQAAAAgABwAAAAAABsAFAAAAAAAAAAAAAAAAAAAAAAAAAAAABAAAAAAAAAADAAAAAgABAA2AAAAAgAAABwAAAAcAAAAHAAAAAAAIEEAAAABaAAAAE3PAEOw////tP///wEAAAAUAAAAEAAaAAgABwAMAAAAEAAUABAAAAAAAAABHAAAAAAAoEEcAAAAAgAAAAAACgAIAAUABgAHAAoAAAAADAD//P///wQABAAEAAAACAAIAAYABwAIAAAAAAAMAA==</value>
					</parameter>
					<parameter authoringApp="PremierePro">
					<parameterid>2</parameterid>
					<name></name>
					<IsTimeVarying>false</IsTimeVarying>
					<ParameterControlType>11</ParameterControlType>
					<LowerBound>false</LowerBound>
					<UpperBound>false</UpperBound>
					<value>-91445760000000000,false,0,0,0,0,0,0</value>
					</parameter>
					<parameter authoringApp="PremierePro">
					<parameterid>3</parameterid>
					<name></name>
					<IsTimeVarying>false</IsTimeVarying>
					<value>-91445760000000000,0.5:0.5,0,0,0,0,0,0,5,4,0,0,0,0</value>
					</parameter>
					<parameter authoringApp="PremierePro">
					<parameterid>4</parameterid>
					<name></name>
					<IsTimeVarying>false</IsTimeVarying>
					<ParameterControlType>2</ParameterControlType>
					<LowerBound>0</LowerBound>
					<UpperBound>4000</UpperBound>
					<value>-91445760000000000,100.,0,0,0,0,0,0</value>
					</parameter>
					<parameter authoringApp="PremierePro">
					<parameterid>8</parameterid>
					<name></name>
					<IsTimeVarying>false</IsTimeVarying>
					<ParameterControlType>2</ParameterControlType>
					<LowerBound>0</LowerBound>
					<UpperBound>100</UpperBound>
					<value>-91445760000000000,100.,0,0,0,0,0,0</value>
					</parameter>
					</effect>
					</filter>
					<logginginfo>
					<description></description>
					<scene></scene>
					<shottake></shottake>
					<lognote></lognote>
					<good></good>
					<originalvideofilename></originalvideofilename>
					<originalaudiofilename></originalaudiofilename>
					</logginginfo>
					<colorinfo>
					<lut></lut>
					<lut1></lut1>
					<asc_sop></asc_sop>
					<asc_sat></asc_sat>
					<lut2></lut2>
					</colorinfo>
					<labels>
					</labels>
					</clipitem>
					<clipitem frameBlend="FALSE" id="clipitem-572">
					<masterclipid>masterclip-492</masterclipid>
					<name></name>
					<enabled>TRUE</enabled>
					<duration>2582774</duration>
					<rate>
					
					                                    <timebase>60</timebase>
					                                    <ntsc>TRUE</ntsc>
					                                
					</rate>
					<start>4708</start>
					<end>4768</end>
					<in>4708</in>
					<out>4768</out>
					<pproTicksIn>914456774963789</pproTicksIn>
					<pproTicksOut>914677708529577</pproTicksOut>
					<alphatype>straight</alphatype>
					<pixelaspectratio>square</pixelaspectratio>
					<anamorphic>FALSE</anamorphic>
					<file id="file-491">
					<name></name>
					<mediaSource>GraphicAndType</mediaSource>
					<rate>
					<timebase>60</timebase>
					<ntsc>TRUE</ntsc>
					</rate>
					<timecode>
					<rate>
					<timebase>60</timebase>
					<ntsc>TRUE</ntsc>
					</rate>
					<string>00:00:00:00</string>
					<frame>0</frame>
					<displayformat>NDF</displayformat>
					</timecode>
					<media>
					<video>
					<samplecharacteristics>
					<rate>
					<timebase>60</timebase>
					<ntsc>TRUE</ntsc>
					</rate>
					<width>1080</width>
					<height>1920</height>
					<anamorphic>FALSE</anamorphic>
					<pixelaspectratio>square</pixelaspectratio>
					<fielddominance>none</fielddominance>
					</samplecharacteristics>
					</video>
					</media>
					</file>
					<filter>
					<effect>
					<name></name>
					<effectid>GraphicAndType</effectid>
					<effectcategory>graphic</effectcategory>
					<effecttype>filter</effecttype>
					<mediatype>video</mediatype>
					<pproBypass>false</pproBypass>
					<parameter authoringApp="PremierePro">
					<parameterid>1</parameterid>
					<name></name>
					<hash>025b1101-ead6-0ca2-1feb-caf3000001fc</hash>
					<value>5AEAAAAAAABEMyIRDAAAAAAABgAKAAQABgAAAGQAAAAAAF4ASAAQAAwARABAADwAOAAAAAAAAAAAADQAMwAsAAAAKAAkACAAAAAAAAAAAAAAAAAAHAAAAAAAGgAAAAAAAAAUAAAAAAAAAAAAAAAAAAAAAAAAAAgAAAAAABsABwBeAAAAAAAAAUAAAABQAAAAbAAAAAIAAAAAAAEAAQAAAAAAQEEAAMBAAABAQAAAyEIAAAABIAAAAAIAAAACAAAAAAA2QwCASkTw/v//9P7///j+//8S////AAAAAAEAAAAEAAAAEQAAAEhHUFNvZWlLYWt1cG9wdGFpAAAAAQAAAAwAAAAIAAwABAAIAAgAAAAIAAAAUAAAAA8AAADvvIEAAAAAAAAAAAAAAAAAAAA2ACQAAAAgABwAAAAAABsAFAAAAAAAAAAAAAAAAAAAAAAAAAAAABAAAAAAAAAADAAAAAgABAA2AAAAAgAAABwAAAAcAAAAHAAAAAAAIEEAAAABaAAAAE3PAEOw////tP///wEAAAAUAAAAEAAaAAgABwAMAAAAEAAUABAAAAAAAAABHAAAAAAAoEEcAAAAAgAAAAAACgAIAAUABgAHAAoAAAAADAD//P///wQABAAEAAAACAAIAAYABwAIAAAAAAAMAA==</value>
					</parameter>
					<parameter authoringApp="PremierePro">
					<parameterid>2</parameterid>
					<name></name>
					<IsTimeVarying>false</IsTimeVarying>
					<ParameterControlType>11</ParameterControlType>
					<LowerBound>false</LowerBound>
					<UpperBound>false</UpperBound>
					<value>-91445760000000000,false,0,0,0,0,0,0</value>
					</parameter>
					<parameter authoringApp="PremierePro">
					<parameterid>3</parameterid>
					<name></name>
					<IsTimeVarying>false</IsTimeVarying>
					<value>-91445760000000000,0.5:0.5,0,0,0,0,0,0,5,4,0,0,0,0</value>
					</parameter>
					<parameter authoringApp="PremierePro">
					<parameterid>4</parameterid>
					<name></name>
					<IsTimeVarying>false</IsTimeVarying>
					<ParameterControlType>2</ParameterControlType>
					<LowerBound>0</LowerBound>
					<UpperBound>4000</UpperBound>
					<value>-91445760000000000,100.,0,0,0,0,0,0</value>
					</parameter>
					<parameter authoringApp="PremierePro">
					<parameterid>8</parameterid>
					<name></name>
					<IsTimeVarying>false</IsTimeVarying>
					<ParameterControlType>2</ParameterControlType>
					<LowerBound>0</LowerBound>
					<UpperBound>100</UpperBound>
					<value>-91445760000000000,100.,0,0,0,0,0,0</value>
					</parameter>
					</effect>
					</filter>
					<logginginfo>
					<description></description>
					<scene></scene>
					<shottake></shottake>
					<lognote></lognote>
					<good></good>
					<originalvideofilename></originalvideofilename>
					<originalaudiofilename></originalaudiofilename>
					</logginginfo>
					<colorinfo>
					<lut></lut>
					<lut1></lut1>
					<asc_sop></asc_sop>
					<asc_sat></asc_sat>
					<lut2></lut2>
					</colorinfo>
					<labels>
					</labels>
					</clipitem>
					<clipitem frameBlend="FALSE" id="clipitem-582">
					<masterclipid>masterclip-502</masterclipid>
					<name></name>
					<enabled>TRUE</enabled>
					<duration>2582774</duration>
					<rate>
					
					                                    <timebase>60</timebase>
					                                    <ntsc>TRUE</ntsc>
					                                
					</rate>
					<start>4822</start>
					<end>4882</end>
					<in>4822</in>
					<out>4882</out>
					<pproTicksIn>914456774963789</pproTicksIn>
					<pproTicksOut>914677708529577</pproTicksOut>
					<alphatype>straight</alphatype>
					<pixelaspectratio>square</pixelaspectratio>
					<anamorphic>FALSE</anamorphic>
					<file id="file-501">
					<name></name>
					<mediaSource>GraphicAndType</mediaSource>
					<rate>
					<timebase>60</timebase>
					<ntsc>TRUE</ntsc>
					</rate>
					<timecode>
					<rate>
					<timebase>60</timebase>
					<ntsc>TRUE</ntsc>
					</rate>
					<string>00:00:00:00</string>
					<frame>0</frame>
					<displayformat>NDF</displayformat>
					</timecode>
					<media>
					<video>
					<samplecharacteristics>
					<rate>
					<timebase>60</timebase>
					<ntsc>TRUE</ntsc>
					</rate>
					<width>1080</width>
					<height>1920</height>
					<anamorphic>FALSE</anamorphic>
					<pixelaspectratio>square</pixelaspectratio>
					<fielddominance>none</fielddominance>
					</samplecharacteristics>
					</video>
					</media>
					</file>
					<filter>
					<effect>
					<name></name>
					<effectid>GraphicAndType</effectid>
					<effectcategory>graphic</effectcategory>
					<effecttype>filter</effecttype>
					<mediatype>video</mediatype>
					<pproBypass>false</pproBypass>
					<parameter authoringApp="PremierePro">
					<parameterid>1</parameterid>
					<name></name>
					<hash>025b1101-ead6-0ca2-1feb-caf3000001fc</hash>
					<value>5AEAAAAAAABEMyIRDAAAAAAABgAKAAQABgAAAGQAAAAAAF4ASAAQAAwARABAADwAOAAAAAAAAAAAADQAMwAsAAAAKAAkACAAAAAAAAAAAAAAAAAAHAAAAAAAGgAAAAAAAAAUAAAAAAAAAAAAAAAAAAAAAAAAAAgAAAAAABsABwBeAAAAAAAAAUAAAABQAAAAbAAAAAIAAAAAAAEAAQAAAAAAQEEAAMBAAABAQAAAyEIAAAABIAAAAAIAAAACAAAAAAA2QwCASkTw/v//9P7///j+//8S////AAAAAAEAAAAEAAAAEQAAAEhHUFNvZWlLYWt1cG9wdGFpAAAAAQAAAAwAAAAIAAwABAAIAAgAAAAIAAAAUAAAAA8AAADvvIEAAAAAAAAAAAAAAAAAAAA2ACQAAAAgABwAAAAAABsAFAAAAAAAAAAAAAAAAAAAAAAAAAAAABAAAAAAAAAADAAAAAgABAA2AAAAAgAAABwAAAAcAAAAHAAAAAAAIEEAAAABaAAAAE3PAEOw////tP///wEAAAAUAAAAEAAaAAgABwAMAAAAEAAUABAAAAAAAAABHAAAAAAAoEEcAAAAAgAAAAAACgAIAAUABgAHAAoAAAAADAD//P///wQABAAEAAAACAAIAAYABwAIAAAAAAAMAA==</value>
					</parameter>
					<parameter authoringApp="PremierePro">
					<parameterid>2</parameterid>
					<name></name>
					<IsTimeVarying>false</IsTimeVarying>
					<ParameterControlType>11</ParameterControlType>
					<LowerBound>false</LowerBound>
					<UpperBound>false</UpperBound>
					<value>-91445760000000000,false,0,0,0,0,0,0</value>
					</parameter>
					<parameter authoringApp="PremierePro">
					<parameterid>3</parameterid>
					<name></name>
					<IsTimeVarying>false</IsTimeVarying>
					<value>-91445760000000000,0.5:0.5,0,0,0,0,0,0,5,4,0,0,0,0</value>
					</parameter>
					<parameter authoringApp="PremierePro">
					<parameterid>4</parameterid>
					<name></name>
					<IsTimeVarying>false</IsTimeVarying>
					<ParameterControlType>2</ParameterControlType>
					<LowerBound>0</LowerBound>
					<UpperBound>4000</UpperBound>
					<value>-91445760000000000,100.,0,0,0,0,0,0</value>
					</parameter>
					<parameter authoringApp="PremierePro">
					<parameterid>8</parameterid>
					<name></name>
					<IsTimeVarying>false</IsTimeVarying>
					<ParameterControlType>2</ParameterControlType>
					<LowerBound>0</LowerBound>
					<UpperBound>100</UpperBound>
					<value>-91445760000000000,100.,0,0,0,0,0,0</value>
					</parameter>
					</effect>
					</filter>
					<logginginfo>
					<description></description>
					<scene></scene>
					<shottake></shottake>
					<lognote></lognote>
					<good></good>
					<originalvideofilename></originalvideofilename>
					<originalaudiofilename></originalaudiofilename>
					</logginginfo>
					<colorinfo>
					<lut></lut>
					<lut1></lut1>
					<asc_sop></asc_sop>
					<asc_sat></asc_sat>
					<lut2></lut2>
					</colorinfo>
					<labels>
					</labels>
					</clipitem>
					<clipitem frameBlend="FALSE" id="clipitem-592">
					<masterclipid>masterclip-512</masterclipid>
					<name></name>
					<enabled>TRUE</enabled>
					<duration>2582774</duration>
					<rate>
					
					                                    <timebase>60</timebase>
					                                    <ntsc>TRUE</ntsc>
					                                
					</rate>
					<start>4924</start>
					<end>4984</end>
					<in>4924</in>
					<out>4984</out>
					<pproTicksIn>914456774963789</pproTicksIn>
					<pproTicksOut>914677708529577</pproTicksOut>
					<alphatype>straight</alphatype>
					<pixelaspectratio>square</pixelaspectratio>
					<anamorphic>FALSE</anamorphic>
					<file id="file-511">
					<name></name>
					<mediaSource>GraphicAndType</mediaSource>
					<rate>
					<timebase>60</timebase>
					<ntsc>TRUE</ntsc>
					</rate>
					<timecode>
					<rate>
					<timebase>60</timebase>
					<ntsc>TRUE</ntsc>
					</rate>
					<string>00:00:00:00</string>
					<frame>0</frame>
					<displayformat>NDF</displayformat>
					</timecode>
					<media>
					<video>
					<samplecharacteristics>
					<rate>
					<timebase>60</timebase>
					<ntsc>TRUE</ntsc>
					</rate>
					<width>1080</width>
					<height>1920</height>
					<anamorphic>FALSE</anamorphic>
					<pixelaspectratio>square</pixelaspectratio>
					<fielddominance>none</fielddominance>
					</samplecharacteristics>
					</video>
					</media>
					</file>
					<filter>
					<effect>
					<name></name>
					<effectid>GraphicAndType</effectid>
					<effectcategory>graphic</effectcategory>
					<effecttype>filter</effecttype>
					<mediatype>video</mediatype>
					<pproBypass>false</pproBypass>
					<parameter authoringApp="PremierePro">
					<parameterid>1</parameterid>
					<name></name>
					<hash>025b1101-ead6-0ca2-1feb-caf3000001fc</hash>
					<value>5AEAAAAAAABEMyIRDAAAAAAABgAKAAQABgAAAGQAAAAAAF4ASAAQAAwARABAADwAOAAAAAAAAAAAADQAMwAsAAAAKAAkACAAAAAAAAAAAAAAAAAAHAAAAAAAGgAAAAAAAAAUAAAAAAAAAAAAAAAAAAAAAAAAAAgAAAAAABsABwBeAAAAAAAAAUAAAABQAAAAbAAAAAIAAAAAAAEAAQAAAAAAQEEAAMBAAABAQAAAyEIAAAABIAAAAAIAAAACAAAAAAA2QwCASkTw/v//9P7///j+//8S////AAAAAAEAAAAEAAAAEQAAAEhHUFNvZWlLYWt1cG9wdGFpAAAAAQAAAAwAAAAIAAwABAAIAAgAAAAIAAAAUAAAAA8AAADvvIEAAAAAAAAAAAAAAAAAAAA2ACQAAAAgABwAAAAAABsAFAAAAAAAAAAAAAAAAAAAAAAAAAAAABAAAAAAAAAADAAAAAgABAA2AAAAAgAAABwAAAAcAAAAHAAAAAAAIEEAAAABaAAAAE3PAEOw////tP///wEAAAAUAAAAEAAaAAgABwAMAAAAEAAUABAAAAAAAAABHAAAAAAAoEEcAAAAAgAAAAAACgAIAAUABgAHAAoAAAAADAD//P///wQABAAEAAAACAAIAAYABwAIAAAAAAAMAA==</value>
					</parameter>
					<parameter authoringApp="PremierePro">
					<parameterid>2</parameterid>
					<name></name>
					<IsTimeVarying>false</IsTimeVarying>
					<ParameterControlType>11</ParameterControlType>
					<LowerBound>false</LowerBound>
					<UpperBound>false</UpperBound>
					<value>-91445760000000000,false,0,0,0,0,0,0</value>
					</parameter>
					<parameter authoringApp="PremierePro">
					<parameterid>3</parameterid>
					<name></name>
					<IsTimeVarying>false</IsTimeVarying>
					<value>-91445760000000000,0.5:0.5,0,0,0,0,0,0,5,4,0,0,0,0</value>
					</parameter>
					<parameter authoringApp="PremierePro">
					<parameterid>4</parameterid>
					<name></name>
					<IsTimeVarying>false</IsTimeVarying>
					<ParameterControlType>2</ParameterControlType>
					<LowerBound>0</LowerBound>
					<UpperBound>4000</UpperBound>
					<value>-91445760000000000,100.,0,0,0,0,0,0</value>
					</parameter>
					<parameter authoringApp="PremierePro">
					<parameterid>8</parameterid>
					<name></name>
					<IsTimeVarying>false</IsTimeVarying>
					<ParameterControlType>2</ParameterControlType>
					<LowerBound>0</LowerBound>
					<UpperBound>100</UpperBound>
					<value>-91445760000000000,100.,0,0,0,0,0,0</value>
					</parameter>
					</effect>
					</filter>
					<logginginfo>
					<description></description>
					<scene></scene>
					<shottake></shottake>
					<lognote></lognote>
					<good></good>
					<originalvideofilename></originalvideofilename>
					<originalaudiofilename></originalaudiofilename>
					</logginginfo>
					<colorinfo>
					<lut></lut>
					<lut1></lut1>
					<asc_sop></asc_sop>
					<asc_sat></asc_sat>
					<lut2></lut2>
					</colorinfo>
					<labels>
					</labels>
					</clipitem>
					<clipitem id="clipitem-600"/>
					                        </track>
					                        <track TL.SQTrackShy="0" TL.SQTrackExpandedHeight="25" TL.SQTrackExpanded="0" MZ.TrackTargeted="0">
					<clipitem frameBlend="FALSE" id="clipitem-601">
					<masterclipid>masterclip-521</masterclipid>
					<name></name>
					<enabled>TRUE</enabled>
					<duration>2582774</duration>
					<rate>
					
					                                    <timebase>60</timebase>
					                                    <ntsc>TRUE</ntsc>
					                                
					</rate>
					<start>5038</start>
					<end>5098</end>
					<in>5038</in>
					<out>5098</out>
					<pproTicksIn>914456774963789</pproTicksIn>
					<pproTicksOut>914677708529577</pproTicksOut>
					<alphatype>straight</alphatype>
					<pixelaspectratio>square</pixelaspectratio>
					<anamorphic>FALSE</anamorphic>
					<file id="file-520">
					<name></name>
					<mediaSource>GraphicAndType</mediaSource>
					<rate>
					<timebase>60</timebase>
					<ntsc>TRUE</ntsc>
					</rate>
					<timecode>
					<rate>
					<timebase>60</timebase>
					<ntsc>TRUE</ntsc>
					</rate>
					<string>00:00:00:00</string>
					<frame>0</frame>
					<displayformat>NDF</displayformat>
					</timecode>
					<media>
					<video>
					<samplecharacteristics>
					<rate>
					<timebase>60</timebase>
					<ntsc>TRUE</ntsc>
					</rate>
					<width>1080</width>
					<height>1920</height>
					<anamorphic>FALSE</anamorphic>
					<pixelaspectratio>square</pixelaspectratio>
					<fielddominance>none</fielddominance>
					</samplecharacteristics>
					</video>
					</media>
					</file>
					<filter>
					<effect>
					<name></name>
					<effectid>GraphicAndType</effectid>
					<effectcategory>graphic</effectcategory>
					<effecttype>filter</effecttype>
					<mediatype>video</mediatype>
					<pproBypass>false</pproBypass>
					<parameter authoringApp="PremierePro">
					<parameterid>1</parameterid>
					<name></name>
					<hash>025b1101-ead6-0ca2-1feb-caf3000001fc</hash>
					<value>5AEAAAAAAABEMyIRDAAAAAAABgAKAAQABgAAAGQAAAAAAF4ASAAQAAwARABAADwAOAAAAAAAAAAAADQAMwAsAAAAKAAkACAAAAAAAAAAAAAAAAAAHAAAAAAAGgAAAAAAAAAUAAAAAAAAAAAAAAAAAAAAAAAAAAgAAAAAABsABwBeAAAAAAAAAUAAAABQAAAAbAAAAAIAAAAAAAEAAQAAAAAAQEEAAMBAAABAQAAAyEIAAAABIAAAAAIAAAACAAAAAAA2QwCASkTw/v//9P7///j+//8S////AAAAAAEAAAAEAAAAEQAAAEhHUFNvZWlLYWt1cG9wdGFpAAAAAQAAAAwAAAAIAAwABAAIAAgAAAAIAAAAUAAAAA8AAADvvIEAAAAAAAAAAAAAAAAAAAA2ACQAAAAgABwAAAAAABsAFAAAAAAAAAAAAAAAAAAAAAAAAAAAABAAAAAAAAAADAAAAAgABAA2AAAAAgAAABwAAAAcAAAAHAAAAAAAIEEAAAABaAAAAE3PAEOw////tP///wEAAAAUAAAAEAAaAAgABwAMAAAAEAAUABAAAAAAAAABHAAAAAAAoEEcAAAAAgAAAAAACgAIAAUABgAHAAoAAAAADAD//P///wQABAAEAAAACAAIAAYABwAIAAAAAAAMAA==</value>
					</parameter>
					<parameter authoringApp="PremierePro">
					<parameterid>2</parameterid>
					<name></name>
					<IsTimeVarying>false</IsTimeVarying>
					<ParameterControlType>11</ParameterControlType>
					<LowerBound>false</LowerBound>
					<UpperBound>false</UpperBound>
					<value>-91445760000000000,false,0,0,0,0,0,0</value>
					</parameter>
					<parameter authoringApp="PremierePro">
					<parameterid>3</parameterid>
					<name></name>
					<IsTimeVarying>false</IsTimeVarying>
					<value>-91445760000000000,0.5:0.5,0,0,0,0,0,0,5,4,0,0,0,0</value>
					</parameter>
					<parameter authoringApp="PremierePro">
					<parameterid>4</parameterid>
					<name></name>
					<IsTimeVarying>false</IsTimeVarying>
					<ParameterControlType>2</ParameterControlType>
					<LowerBound>0</LowerBound>
					<UpperBound>4000</UpperBound>
					<value>-91445760000000000,100.,0,0,0,0,0,0</value>
					</parameter>
					<parameter authoringApp="PremierePro">
					<parameterid>8</parameterid>
					<name></name>
					<IsTimeVarying>false</IsTimeVarying>
					<ParameterControlType>2</ParameterControlType>
					<LowerBound>0</LowerBound>
					<UpperBound>100</UpperBound>
					<value>-91445760000000000,100.,0,0,0,0,0,0</value>
					</parameter>
					</effect>
					</filter>
					<logginginfo>
					<description></description>
					<scene></scene>
					<shottake></shottake>
					<lognote></lognote>
					<good></good>
					<originalvideofilename></originalvideofilename>
					<originalaudiofilename></originalaudiofilename>
					</logginginfo>
					<colorinfo>
					<lut></lut>
					<lut1></lut1>
					<asc_sop></asc_sop>
					<asc_sat></asc_sat>
					<lut2></lut2>
					</colorinfo>
					<labels>
					</labels>
					</clipitem>
					<clipitem id="clipitem-607"/>
					                        </track>
					                        <track TL.SQTrackShy="0" TL.SQTrackExpandedHeight="25" TL.SQTrackExpanded="0" MZ.TrackTargeted="0">
					<clipitem frameBlend="FALSE" id="clipitem-608">
					<masterclipid>masterclip-528</masterclipid>
					<name></name>
					<enabled>TRUE</enabled>
					<duration>2582774</duration>
					<rate>
					
					                                    <timebase>60</timebase>
					                                    <ntsc>TRUE</ntsc>
					                                
					</rate>
					<start>5110</start>
					<end>5176</end>
					<in>5110</in>
					<out>5176</out>
					<pproTicksIn>914456774963789</pproTicksIn>
					<pproTicksOut>914677708529577</pproTicksOut>
					<alphatype>straight</alphatype>
					<pixelaspectratio>square</pixelaspectratio>
					<anamorphic>FALSE</anamorphic>
					<file id="file-527">
					<name></name>
					<mediaSource>GraphicAndType</mediaSource>
					<rate>
					<timebase>60</timebase>
					<ntsc>TRUE</ntsc>
					</rate>
					<timecode>
					<rate>
					<timebase>60</timebase>
					<ntsc>TRUE</ntsc>
					</rate>
					<string>00:00:00:00</string>
					<frame>0</frame>
					<displayformat>NDF</displayformat>
					</timecode>
					<media>
					<video>
					<samplecharacteristics>
					<rate>
					<timebase>60</timebase>
					<ntsc>TRUE</ntsc>
					</rate>
					<width>1080</width>
					<height>1920</height>
					<anamorphic>FALSE</anamorphic>
					<pixelaspectratio>square</pixelaspectratio>
					<fielddominance>none</fielddominance>
					</samplecharacteristics>
					</video>
					</media>
					</file>
					<filter>
					<effect>
					<name></name>
					<effectid>GraphicAndType</effectid>
					<effectcategory>graphic</effectcategory>
					<effecttype>filter</effecttype>
					<mediatype>video</mediatype>
					<pproBypass>false</pproBypass>
					<parameter authoringApp="PremierePro">
					<parameterid>1</parameterid>
					<name></name>
					<hash>025b1101-ead6-0ca2-1feb-caf3000001fc</hash>
					<value>5AEAAAAAAABEMyIRDAAAAAAABgAKAAQABgAAAGQAAAAAAF4ASAAQAAwARABAADwAOAAAAAAAAAAAADQAMwAsAAAAKAAkACAAAAAAAAAAAAAAAAAAHAAAAAAAGgAAAAAAAAAUAAAAAAAAAAAAAAAAAAAAAAAAAAgAAAAAABsABwBeAAAAAAAAAUAAAABQAAAAbAAAAAIAAAAAAAEAAQAAAAAAQEEAAMBAAABAQAAAyEIAAAABIAAAAAIAAAACAAAAAAA2QwCASkTw/v//9P7///j+//8S////AAAAAAEAAAAEAAAAEQAAAEhHUFNvZWlLYWt1cG9wdGFpAAAAAQAAAAwAAAAIAAwABAAIAAgAAAAIAAAAUAAAAA8AAADvvIEAAAAAAAAAAAAAAAAAAAA2ACQAAAAgABwAAAAAABsAFAAAAAAAAAAAAAAAAAAAAAAAAAAAABAAAAAAAAAADAAAAAgABAA2AAAAAgAAABwAAAAcAAAAHAAAAAAAIEEAAAABaAAAAE3PAEOw////tP///wEAAAAUAAAAEAAaAAgABwAMAAAAEAAUABAAAAAAAAABHAAAAAAAoEEcAAAAAgAAAAAACgAIAAUABgAHAAoAAAAADAD//P///wQABAAEAAAACAAIAAYABwAIAAAAAAAMAA==</value>
					</parameter>
					<parameter authoringApp="PremierePro">
					<parameterid>2</parameterid>
					<name></name>
					<IsTimeVarying>false</IsTimeVarying>
					<ParameterControlType>11</ParameterControlType>
					<LowerBound>false</LowerBound>
					<UpperBound>false</UpperBound>
					<value>-91445760000000000,false,0,0,0,0,0,0</value>
					</parameter>
					<parameter authoringApp="PremierePro">
					<parameterid>3</parameterid>
					<name></name>
					<IsTimeVarying>false</IsTimeVarying>
					<value>-91445760000000000,0.5:0.5,0,0,0,0,0,0,5,4,0,0,0,0</value>
					</parameter>
					<parameter authoringApp="PremierePro">
					<parameterid>4</parameterid>
					<name></name>
					<IsTimeVarying>false</IsTimeVarying>
					<ParameterControlType>2</ParameterControlType>
					<LowerBound>0</LowerBound>
					<UpperBound>4000</UpperBound>
					<value>-91445760000000000,100.,0,0,0,0,0,0</value>
					</parameter>
					<parameter authoringApp="PremierePro">
					<parameterid>8</parameterid>
					<name></name>
					<IsTimeVarying>false</IsTimeVarying>
					<ParameterControlType>2</ParameterControlType>
					<LowerBound>0</LowerBound>
					<UpperBound>100</UpperBound>
					<value>-91445760000000000,100.,0,0,0,0,0,0</value>
					</parameter>
					</effect>
					</filter>
					<logginginfo>
					<description></description>
					<scene></scene>
					<shottake></shottake>
					<lognote></lognote>
					<good></good>
					<originalvideofilename></originalvideofilename>
					<originalaudiofilename></originalaudiofilename>
					</logginginfo>
					<colorinfo>
					<lut></lut>
					<lut1></lut1>
					<asc_sop></asc_sop>
					<asc_sat></asc_sat>
					<lut2></lut2>
					</colorinfo>
					<labels>
					</labels>
					</clipitem>
					<clipitem frameBlend="FALSE" id="clipitem-621">
					<masterclipid>masterclip-541</masterclipid>
					<name></name>
					<enabled>TRUE</enabled>
					<duration>2582774</duration>
					<rate>
					
					                                    <timebase>60</timebase>
					                                    <ntsc>TRUE</ntsc>
					                                
					</rate>
					<start>5266</start>
					<end>5326</end>
					<in>5266</in>
					<out>5326</out>
					<pproTicksIn>914456774963789</pproTicksIn>
					<pproTicksOut>914677708529577</pproTicksOut>
					<alphatype>straight</alphatype>
					<pixelaspectratio>square</pixelaspectratio>
					<anamorphic>FALSE</anamorphic>
					<file id="file-540">
					<name></name>
					<mediaSource>GraphicAndType</mediaSource>
					<rate>
					<timebase>60</timebase>
					<ntsc>TRUE</ntsc>
					</rate>
					<timecode>
					<rate>
					<timebase>60</timebase>
					<ntsc>TRUE</ntsc>
					</rate>
					<string>00:00:00:00</string>
					<frame>0</frame>
					<displayformat>NDF</displayformat>
					</timecode>
					<media>
					<video>
					<samplecharacteristics>
					<rate>
					<timebase>60</timebase>
					<ntsc>TRUE</ntsc>
					</rate>
					<width>1080</width>
					<height>1920</height>
					<anamorphic>FALSE</anamorphic>
					<pixelaspectratio>square</pixelaspectratio>
					<fielddominance>none</fielddominance>
					</samplecharacteristics>
					</video>
					</media>
					</file>
					<filter>
					<effect>
					<name></name>
					<effectid>GraphicAndType</effectid>
					<effectcategory>graphic</effectcategory>
					<effecttype>filter</effecttype>
					<mediatype>video</mediatype>
					<pproBypass>false</pproBypass>
					<parameter authoringApp="PremierePro">
					<parameterid>1</parameterid>
					<name></name>
					<hash>025b1101-ead6-0ca2-1feb-caf3000001fc</hash>
					<value>5AEAAAAAAABEMyIRDAAAAAAABgAKAAQABgAAAGQAAAAAAF4ASAAQAAwARABAADwAOAAAAAAAAAAAADQAMwAsAAAAKAAkACAAAAAAAAAAAAAAAAAAHAAAAAAAGgAAAAAAAAAUAAAAAAAAAAAAAAAAAAAAAAAAAAgAAAAAABsABwBeAAAAAAAAAUAAAABQAAAAbAAAAAIAAAAAAAEAAQAAAAAAQEEAAMBAAABAQAAAyEIAAAABIAAAAAIAAAACAAAAAAA2QwCASkTw/v//9P7///j+//8S////AAAAAAEAAAAEAAAAEQAAAEhHUFNvZWlLYWt1cG9wdGFpAAAAAQAAAAwAAAAIAAwABAAIAAgAAAAIAAAAUAAAAA8AAADvvIEAAAAAAAAAAAAAAAAAAAA2ACQAAAAgABwAAAAAABsAFAAAAAAAAAAAAAAAAAAAAAAAAAAAABAAAAAAAAAADAAAAAgABAA2AAAAAgAAABwAAAAcAAAAHAAAAAAAIEEAAAABaAAAAE3PAEOw////tP///wEAAAAUAAAAEAAaAAgABwAMAAAAEAAUABAAAAAAAAABHAAAAAAAoEEcAAAAAgAAAAAACgAIAAUABgAHAAoAAAAADAD//P///wQABAAEAAAACAAIAAYABwAIAAAAAAAMAA==</value>
					</parameter>
					<parameter authoringApp="PremierePro">
					<parameterid>2</parameterid>
					<name></name>
					<IsTimeVarying>false</IsTimeVarying>
					<ParameterControlType>11</ParameterControlType>
					<LowerBound>false</LowerBound>
					<UpperBound>false</UpperBound>
					<value>-91445760000000000,false,0,0,0,0,0,0</value>
					</parameter>
					<parameter authoringApp="PremierePro">
					<parameterid>3</parameterid>
					<name></name>
					<IsTimeVarying>false</IsTimeVarying>
					<value>-91445760000000000,0.5:0.5,0,0,0,0,0,0,5,4,0,0,0,0</value>
					</parameter>
					<parameter authoringApp="PremierePro">
					<parameterid>4</parameterid>
					<name></name>
					<IsTimeVarying>false</IsTimeVarying>
					<ParameterControlType>2</ParameterControlType>
					<LowerBound>0</LowerBound>
					<UpperBound>4000</UpperBound>
					<value>-91445760000000000,100.,0,0,0,0,0,0</value>
					</parameter>
					<parameter authoringApp="PremierePro">
					<parameterid>8</parameterid>
					<name></name>
					<IsTimeVarying>false</IsTimeVarying>
					<ParameterControlType>2</ParameterControlType>
					<LowerBound>0</LowerBound>
					<UpperBound>100</UpperBound>
					<value>-91445760000000000,100.,0,0,0,0,0,0</value>
					</parameter>
					</effect>
					</filter>
					<logginginfo>
					<description></description>
					<scene></scene>
					<shottake></shottake>
					<lognote></lognote>
					<good></good>
					<originalvideofilename></originalvideofilename>
					<originalaudiofilename></originalaudiofilename>
					</logginginfo>
					<colorinfo>
					<lut></lut>
					<lut1></lut1>
					<asc_sop></asc_sop>
					<asc_sat></asc_sat>
					<lut2></lut2>
					</colorinfo>
					<labels>
					</labels>
					</clipitem>
					<clipitem frameBlend="FALSE" id="clipitem-630">
					<masterclipid>masterclip-550</masterclipid>
					<name></name>
					<enabled>TRUE</enabled>
					<duration>2582774</duration>
					<rate>
					
					                                    <timebase>60</timebase>
					                                    <ntsc>TRUE</ntsc>
					                                
					</rate>
					<start>5350</start>
					<end>5410</end>
					<in>5350</in>
					<out>5410</out>
					<pproTicksIn>914456774963789</pproTicksIn>
					<pproTicksOut>914677708529577</pproTicksOut>
					<alphatype>straight</alphatype>
					<pixelaspectratio>square</pixelaspectratio>
					<anamorphic>FALSE</anamorphic>
					<file id="file-549">
					<name></name>
					<mediaSource>GraphicAndType</mediaSource>
					<rate>
					<timebase>60</timebase>
					<ntsc>TRUE</ntsc>
					</rate>
					<timecode>
					<rate>
					<timebase>60</timebase>
					<ntsc>TRUE</ntsc>
					</rate>
					<string>00:00:00:00</string>
					<frame>0</frame>
					<displayformat>NDF</displayformat>
					</timecode>
					<media>
					<video>
					<samplecharacteristics>
					<rate>
					<timebase>60</timebase>
					<ntsc>TRUE</ntsc>
					</rate>
					<width>1080</width>
					<height>1920</height>
					<anamorphic>FALSE</anamorphic>
					<pixelaspectratio>square</pixelaspectratio>
					<fielddominance>none</fielddominance>
					</samplecharacteristics>
					</video>
					</media>
					</file>
					<filter>
					<effect>
					<name></name>
					<effectid>GraphicAndType</effectid>
					<effectcategory>graphic</effectcategory>
					<effecttype>filter</effecttype>
					<mediatype>video</mediatype>
					<pproBypass>false</pproBypass>
					<parameter authoringApp="PremierePro">
					<parameterid>1</parameterid>
					<name></name>
					<hash>025b1101-ead6-0ca2-1feb-caf3000001fc</hash>
					<value>5AEAAAAAAABEMyIRDAAAAAAABgAKAAQABgAAAGQAAAAAAF4ASAAQAAwARABAADwAOAAAAAAAAAAAADQAMwAsAAAAKAAkACAAAAAAAAAAAAAAAAAAHAAAAAAAGgAAAAAAAAAUAAAAAAAAAAAAAAAAAAAAAAAAAAgAAAAAABsABwBeAAAAAAAAAUAAAABQAAAAbAAAAAIAAAAAAAEAAQAAAAAAQEEAAMBAAABAQAAAyEIAAAABIAAAAAIAAAACAAAAAAA2QwCASkTw/v//9P7///j+//8S////AAAAAAEAAAAEAAAAEQAAAEhHUFNvZWlLYWt1cG9wdGFpAAAAAQAAAAwAAAAIAAwABAAIAAgAAAAIAAAAUAAAAA8AAADvvIEAAAAAAAAAAAAAAAAAAAA2ACQAAAAgABwAAAAAABsAFAAAAAAAAAAAAAAAAAAAAAAAAAAAABAAAAAAAAAADAAAAAgABAA2AAAAAgAAABwAAAAcAAAAHAAAAAAAIEEAAAABaAAAAE3PAEOw////tP///wEAAAAUAAAAEAAaAAgABwAMAAAAEAAUABAAAAAAAAABHAAAAAAAoEEcAAAAAgAAAAAACgAIAAUABgAHAAoAAAAADAD//P///wQABAAEAAAACAAIAAYABwAIAAAAAAAMAA==</value>
					</parameter>
					<parameter authoringApp="PremierePro">
					<parameterid>2</parameterid>
					<name></name>
					<IsTimeVarying>false</IsTimeVarying>
					<ParameterControlType>11</ParameterControlType>
					<LowerBound>false</LowerBound>
					<UpperBound>false</UpperBound>
					<value>-91445760000000000,false,0,0,0,0,0,0</value>
					</parameter>
					<parameter authoringApp="PremierePro">
					<parameterid>3</parameterid>
					<name></name>
					<IsTimeVarying>false</IsTimeVarying>
					<value>-91445760000000000,0.5:0.5,0,0,0,0,0,0,5,4,0,0,0,0</value>
					</parameter>
					<parameter authoringApp="PremierePro">
					<parameterid>4</parameterid>
					<name></name>
					<IsTimeVarying>false</IsTimeVarying>
					<ParameterControlType>2</ParameterControlType>
					<LowerBound>0</LowerBound>
					<UpperBound>4000</UpperBound>
					<value>-91445760000000000,100.,0,0,0,0,0,0</value>
					</parameter>
					<parameter authoringApp="PremierePro">
					<parameterid>8</parameterid>
					<name></name>
					<IsTimeVarying>false</IsTimeVarying>
					<ParameterControlType>2</ParameterControlType>
					<LowerBound>0</LowerBound>
					<UpperBound>100</UpperBound>
					<value>-91445760000000000,100.,0,0,0,0,0,0</value>
					</parameter>
					</effect>
					</filter>
					<logginginfo>
					<description></description>
					<scene></scene>
					<shottake></shottake>
					<lognote></lognote>
					<good></good>
					<originalvideofilename></originalvideofilename>
					<originalaudiofilename></originalaudiofilename>
					</logginginfo>
					<colorinfo>
					<lut></lut>
					<lut1></lut1>
					<asc_sop></asc_sop>
					<asc_sat></asc_sat>
					<lut2></lut2>
					</colorinfo>
					<labels>
					</labels>
					</clipitem>
					<clipitem frameBlend="FALSE" id="clipitem-641">
					<masterclipid>masterclip-561</masterclipid>
					<name></name>
					<enabled>TRUE</enabled>
					<duration>2582774</duration>
					<rate>
					
					                                    <timebase>60</timebase>
					                                    <ntsc>TRUE</ntsc>
					                                
					</rate>
					<start>5530</start>
					<end>5590</end>
					<in>5530</in>
					<out>5590</out>
					<pproTicksIn>914456774963789</pproTicksIn>
					<pproTicksOut>914677708529577</pproTicksOut>
					<alphatype>straight</alphatype>
					<pixelaspectratio>square</pixelaspectratio>
					<anamorphic>FALSE</anamorphic>
					<file id="file-560">
					<name></name>
					<mediaSource>GraphicAndType</mediaSource>
					<rate>
					<timebase>60</timebase>
					<ntsc>TRUE</ntsc>
					</rate>
					<timecode>
					<rate>
					<timebase>60</timebase>
					<ntsc>TRUE</ntsc>
					</rate>
					<string>00:00:00:00</string>
					<frame>0</frame>
					<displayformat>NDF</displayformat>
					</timecode>
					<media>
					<video>
					<samplecharacteristics>
					<rate>
					<timebase>60</timebase>
					<ntsc>TRUE</ntsc>
					</rate>
					<width>1080</width>
					<height>1920</height>
					<anamorphic>FALSE</anamorphic>
					<pixelaspectratio>square</pixelaspectratio>
					<fielddominance>none</fielddominance>
					</samplecharacteristics>
					</video>
					</media>
					</file>
					<filter>
					<effect>
					<name></name>
					<effectid>GraphicAndType</effectid>
					<effectcategory>graphic</effectcategory>
					<effecttype>filter</effecttype>
					<mediatype>video</mediatype>
					<pproBypass>false</pproBypass>
					<parameter authoringApp="PremierePro">
					<parameterid>1</parameterid>
					<name></name>
					<hash>025b1101-ead6-0ca2-1feb-caf3000001fc</hash>
					<value>5AEAAAAAAABEMyIRDAAAAAAABgAKAAQABgAAAGQAAAAAAF4ASAAQAAwARABAADwAOAAAAAAAAAAAADQAMwAsAAAAKAAkACAAAAAAAAAAAAAAAAAAHAAAAAAAGgAAAAAAAAAUAAAAAAAAAAAAAAAAAAAAAAAAAAgAAAAAABsABwBeAAAAAAAAAUAAAABQAAAAbAAAAAIAAAAAAAEAAQAAAAAAQEEAAMBAAABAQAAAyEIAAAABIAAAAAIAAAACAAAAAAA2QwCASkTw/v//9P7///j+//8S////AAAAAAEAAAAEAAAAEQAAAEhHUFNvZWlLYWt1cG9wdGFpAAAAAQAAAAwAAAAIAAwABAAIAAgAAAAIAAAAUAAAAA8AAADvvIEAAAAAAAAAAAAAAAAAAAA2ACQAAAAgABwAAAAAABsAFAAAAAAAAAAAAAAAAAAAAAAAAAAAABAAAAAAAAAADAAAAAgABAA2AAAAAgAAABwAAAAcAAAAHAAAAAAAIEEAAAABaAAAAE3PAEOw////tP///wEAAAAUAAAAEAAaAAgABwAMAAAAEAAUABAAAAAAAAABHAAAAAAAoEEcAAAAAgAAAAAACgAIAAUABgAHAAoAAAAADAD//P///wQABAAEAAAACAAIAAYABwAIAAAAAAAMAA==</value>
					</parameter>
					<parameter authoringApp="PremierePro">
					<parameterid>2</parameterid>
					<name></name>
					<IsTimeVarying>false</IsTimeVarying>
					<ParameterControlType>11</ParameterControlType>
					<LowerBound>false</LowerBound>
					<UpperBound>false</UpperBound>
					<value>-91445760000000000,false,0,0,0,0,0,0</value>
					</parameter>
					<parameter authoringApp="PremierePro">
					<parameterid>3</parameterid>
					<name></name>
					<IsTimeVarying>false</IsTimeVarying>
					<value>-91445760000000000,0.5:0.5,0,0,0,0,0,0,5,4,0,0,0,0</value>
					</parameter>
					<parameter authoringApp="PremierePro">
					<parameterid>4</parameterid>
					<name></name>
					<IsTimeVarying>false</IsTimeVarying>
					<ParameterControlType>2</ParameterControlType>
					<LowerBound>0</LowerBound>
					<UpperBound>4000</UpperBound>
					<value>-91445760000000000,100.,0,0,0,0,0,0</value>
					</parameter>
					<parameter authoringApp="PremierePro">
					<parameterid>8</parameterid>
					<name></name>
					<IsTimeVarying>false</IsTimeVarying>
					<ParameterControlType>2</ParameterControlType>
					<LowerBound>0</LowerBound>
					<UpperBound>100</UpperBound>
					<value>-91445760000000000,100.,0,0,0,0,0,0</value>
					</parameter>
					</effect>
					</filter>
					<logginginfo>
					<description></description>
					<scene></scene>
					<shottake></shottake>
					<lognote></lognote>
					<good></good>
					<originalvideofilename></originalvideofilename>
					<originalaudiofilename></originalaudiofilename>
					</logginginfo>
					<colorinfo>
					<lut></lut>
					<lut1></lut1>
					<asc_sop></asc_sop>
					<asc_sat></asc_sat>
					<lut2></lut2>
					</colorinfo>
					<labels>
					</labels>
					</clipitem>
					<clipitem frameBlend="FALSE" id="clipitem-652">
					<masterclipid>masterclip-572</masterclipid>
					<name></name>
					<enabled>TRUE</enabled>
					<duration>2582774</duration>
					<rate>
					
					                                    <timebase>60</timebase>
					                                    <ntsc>TRUE</ntsc>
					                                
					</rate>
					<start>5590</start>
					<end>5650</end>
					<in>5590</in>
					<out>5650</out>
					<pproTicksIn>914456774963789</pproTicksIn>
					<pproTicksOut>914677708529577</pproTicksOut>
					<alphatype>straight</alphatype>
					<pixelaspectratio>square</pixelaspectratio>
					<anamorphic>FALSE</anamorphic>
					<file id="file-571">
					<name></name>
					<mediaSource>GraphicAndType</mediaSource>
					<rate>
					<timebase>60</timebase>
					<ntsc>TRUE</ntsc>
					</rate>
					<timecode>
					<rate>
					<timebase>60</timebase>
					<ntsc>TRUE</ntsc>
					</rate>
					<string>00:00:00:00</string>
					<frame>0</frame>
					<displayformat>NDF</displayformat>
					</timecode>
					<media>
					<video>
					<samplecharacteristics>
					<rate>
					<timebase>60</timebase>
					<ntsc>TRUE</ntsc>
					</rate>
					<width>1080</width>
					<height>1920</height>
					<anamorphic>FALSE</anamorphic>
					<pixelaspectratio>square</pixelaspectratio>
					<fielddominance>none</fielddominance>
					</samplecharacteristics>
					</video>
					</media>
					</file>
					<filter>
					<effect>
					<name></name>
					<effectid>GraphicAndType</effectid>
					<effectcategory>graphic</effectcategory>
					<effecttype>filter</effecttype>
					<mediatype>video</mediatype>
					<pproBypass>false</pproBypass>
					<parameter authoringApp="PremierePro">
					<parameterid>1</parameterid>
					<name></name>
					<hash>025b1101-ead6-0ca2-1feb-caf3000001fc</hash>
					<value>5AEAAAAAAABEMyIRDAAAAAAABgAKAAQABgAAAGQAAAAAAF4ASAAQAAwARABAADwAOAAAAAAAAAAAADQAMwAsAAAAKAAkACAAAAAAAAAAAAAAAAAAHAAAAAAAGgAAAAAAAAAUAAAAAAAAAAAAAAAAAAAAAAAAAAgAAAAAABsABwBeAAAAAAAAAUAAAABQAAAAbAAAAAIAAAAAAAEAAQAAAAAAQEEAAMBAAABAQAAAyEIAAAABIAAAAAIAAAACAAAAAAA2QwCASkTw/v//9P7///j+//8S////AAAAAAEAAAAEAAAAEQAAAEhHUFNvZWlLYWt1cG9wdGFpAAAAAQAAAAwAAAAIAAwABAAIAAgAAAAIAAAAUAAAAA8AAADvvIEAAAAAAAAAAAAAAAAAAAA2ACQAAAAgABwAAAAAABsAFAAAAAAAAAAAAAAAAAAAAAAAAAAAABAAAAAAAAAADAAAAAgABAA2AAAAAgAAABwAAAAcAAAAHAAAAAAAIEEAAAABaAAAAE3PAEOw////tP///wEAAAAUAAAAEAAaAAgABwAMAAAAEAAUABAAAAAAAAABHAAAAAAAoEEcAAAAAgAAAAAACgAIAAUABgAHAAoAAAAADAD//P///wQABAAEAAAACAAIAAYABwAIAAAAAAAMAA==</value>
					</parameter>
					<parameter authoringApp="PremierePro">
					<parameterid>2</parameterid>
					<name></name>
					<IsTimeVarying>false</IsTimeVarying>
					<ParameterControlType>11</ParameterControlType>
					<LowerBound>false</LowerBound>
					<UpperBound>false</UpperBound>
					<value>-91445760000000000,false,0,0,0,0,0,0</value>
					</parameter>
					<parameter authoringApp="PremierePro">
					<parameterid>3</parameterid>
					<name></name>
					<IsTimeVarying>false</IsTimeVarying>
					<value>-91445760000000000,0.5:0.5,0,0,0,0,0,0,5,4,0,0,0,0</value>
					</parameter>
					<parameter authoringApp="PremierePro">
					<parameterid>4</parameterid>
					<name></name>
					<IsTimeVarying>false</IsTimeVarying>
					<ParameterControlType>2</ParameterControlType>
					<LowerBound>0</LowerBound>
					<UpperBound>4000</UpperBound>
					<value>-91445760000000000,100.,0,0,0,0,0,0</value>
					</parameter>
					<parameter authoringApp="PremierePro">
					<parameterid>8</parameterid>
					<name></name>
					<IsTimeVarying>false</IsTimeVarying>
					<ParameterControlType>2</ParameterControlType>
					<LowerBound>0</LowerBound>
					<UpperBound>100</UpperBound>
					<value>-91445760000000000,100.,0,0,0,0,0,0</value>
					</parameter>
					</effect>
					</filter>
					<logginginfo>
					<description></description>
					<scene></scene>
					<shottake></shottake>
					<lognote></lognote>
					<good></good>
					<originalvideofilename></originalvideofilename>
					<originalaudiofilename></originalaudiofilename>
					</logginginfo>
					<colorinfo>
					<lut></lut>
					<lut1></lut1>
					<asc_sop></asc_sop>
					<asc_sat></asc_sat>
					<lut2></lut2>
					</colorinfo>
					<labels>
					</labels>
					</clipitem>
					<clipitem frameBlend="FALSE" id="clipitem-661">
					<masterclipid>masterclip-581</masterclipid>
					<name></name>
					<enabled>TRUE</enabled>
					<duration>2582774</duration>
					<rate>
					
					                                    <timebase>60</timebase>
					                                    <ntsc>TRUE</ntsc>
					                                
					</rate>
					<start>5650</start>
					<end>5710</end>
					<in>5650</in>
					<out>5710</out>
					<pproTicksIn>914456774963789</pproTicksIn>
					<pproTicksOut>914677708529577</pproTicksOut>
					<alphatype>straight</alphatype>
					<pixelaspectratio>square</pixelaspectratio>
					<anamorphic>FALSE</anamorphic>
					<file id="file-580">
					<name></name>
					<mediaSource>GraphicAndType</mediaSource>
					<rate>
					<timebase>60</timebase>
					<ntsc>TRUE</ntsc>
					</rate>
					<timecode>
					<rate>
					<timebase>60</timebase>
					<ntsc>TRUE</ntsc>
					</rate>
					<string>00:00:00:00</string>
					<frame>0</frame>
					<displayformat>NDF</displayformat>
					</timecode>
					<media>
					<video>
					<samplecharacteristics>
					<rate>
					<timebase>60</timebase>
					<ntsc>TRUE</ntsc>
					</rate>
					<width>1080</width>
					<height>1920</height>
					<anamorphic>FALSE</anamorphic>
					<pixelaspectratio>square</pixelaspectratio>
					<fielddominance>none</fielddominance>
					</samplecharacteristics>
					</video>
					</media>
					</file>
					<filter>
					<effect>
					<name></name>
					<effectid>GraphicAndType</effectid>
					<effectcategory>graphic</effectcategory>
					<effecttype>filter</effecttype>
					<mediatype>video</mediatype>
					<pproBypass>false</pproBypass>
					<parameter authoringApp="PremierePro">
					<parameterid>1</parameterid>
					<name></name>
					<hash>025b1101-ead6-0ca2-1feb-caf3000001fc</hash>
					<value>5AEAAAAAAABEMyIRDAAAAAAABgAKAAQABgAAAGQAAAAAAF4ASAAQAAwARABAADwAOAAAAAAAAAAAADQAMwAsAAAAKAAkACAAAAAAAAAAAAAAAAAAHAAAAAAAGgAAAAAAAAAUAAAAAAAAAAAAAAAAAAAAAAAAAAgAAAAAABsABwBeAAAAAAAAAUAAAABQAAAAbAAAAAIAAAAAAAEAAQAAAAAAQEEAAMBAAABAQAAAyEIAAAABIAAAAAIAAAACAAAAAAA2QwCASkTw/v//9P7///j+//8S////AAAAAAEAAAAEAAAAEQAAAEhHUFNvZWlLYWt1cG9wdGFpAAAAAQAAAAwAAAAIAAwABAAIAAgAAAAIAAAAUAAAAA8AAADvvIEAAAAAAAAAAAAAAAAAAAA2ACQAAAAgABwAAAAAABsAFAAAAAAAAAAAAAAAAAAAAAAAAAAAABAAAAAAAAAADAAAAAgABAA2AAAAAgAAABwAAAAcAAAAHAAAAAAAIEEAAAABaAAAAE3PAEOw////tP///wEAAAAUAAAAEAAaAAgABwAMAAAAEAAUABAAAAAAAAABHAAAAAAAoEEcAAAAAgAAAAAACgAIAAUABgAHAAoAAAAADAD//P///wQABAAEAAAACAAIAAYABwAIAAAAAAAMAA==</value>
					</parameter>
					<parameter authoringApp="PremierePro">
					<parameterid>2</parameterid>
					<name></name>
					<IsTimeVarying>false</IsTimeVarying>
					<ParameterControlType>11</ParameterControlType>
					<LowerBound>false</LowerBound>
					<UpperBound>false</UpperBound>
					<value>-91445760000000000,false,0,0,0,0,0,0</value>
					</parameter>
					<parameter authoringApp="PremierePro">
					<parameterid>3</parameterid>
					<name></name>
					<IsTimeVarying>false</IsTimeVarying>
					<value>-91445760000000000,0.5:0.5,0,0,0,0,0,0,5,4,0,0,0,0</value>
					</parameter>
					<parameter authoringApp="PremierePro">
					<parameterid>4</parameterid>
					<name></name>
					<IsTimeVarying>false</IsTimeVarying>
					<ParameterControlType>2</ParameterControlType>
					<LowerBound>0</LowerBound>
					<UpperBound>4000</UpperBound>
					<value>-91445760000000000,100.,0,0,0,0,0,0</value>
					</parameter>
					<parameter authoringApp="PremierePro">
					<parameterid>8</parameterid>
					<name></name>
					<IsTimeVarying>false</IsTimeVarying>
					<ParameterControlType>2</ParameterControlType>
					<LowerBound>0</LowerBound>
					<UpperBound>100</UpperBound>
					<value>-91445760000000000,100.,0,0,0,0,0,0</value>
					</parameter>
					</effect>
					</filter>
					<logginginfo>
					<description></description>
					<scene></scene>
					<shottake></shottake>
					<lognote></lognote>
					<good></good>
					<originalvideofilename></originalvideofilename>
					<originalaudiofilename></originalaudiofilename>
					</logginginfo>
					<colorinfo>
					<lut></lut>
					<lut1></lut1>
					<asc_sop></asc_sop>
					<asc_sat></asc_sat>
					<lut2></lut2>
					</colorinfo>
					<labels>
					</labels>
					</clipitem>
					<clipitem id="clipitem-670"/>
					                        </track>
					                        <track TL.SQTrackShy="0" TL.SQTrackExpandedHeight="25" TL.SQTrackExpanded="0" MZ.TrackTargeted="0">
					<clipitem frameBlend="FALSE" id="clipitem-671">
					<masterclipid>masterclip-591</masterclipid>
					<name></name>
					<enabled>TRUE</enabled>
					<duration>2582774</duration>
					<rate>
					
					                                    <timebase>60</timebase>
					                                    <ntsc>TRUE</ntsc>
					                                
					</rate>
					<start>5794</start>
					<end>5854</end>
					<in>5794</in>
					<out>5854</out>
					<pproTicksIn>914456774963789</pproTicksIn>
					<pproTicksOut>914677708529577</pproTicksOut>
					<alphatype>straight</alphatype>
					<pixelaspectratio>square</pixelaspectratio>
					<anamorphic>FALSE</anamorphic>
					<file id="file-590">
					<name></name>
					<mediaSource>GraphicAndType</mediaSource>
					<rate>
					<timebase>60</timebase>
					<ntsc>TRUE</ntsc>
					</rate>
					<timecode>
					<rate>
					<timebase>60</timebase>
					<ntsc>TRUE</ntsc>
					</rate>
					<string>00:00:00:00</string>
					<frame>0</frame>
					<displayformat>NDF</displayformat>
					</timecode>
					<media>
					<video>
					<samplecharacteristics>
					<rate>
					<timebase>60</timebase>
					<ntsc>TRUE</ntsc>
					</rate>
					<width>1080</width>
					<height>1920</height>
					<anamorphic>FALSE</anamorphic>
					<pixelaspectratio>square</pixelaspectratio>
					<fielddominance>none</fielddominance>
					</samplecharacteristics>
					</video>
					</media>
					</file>
					<filter>
					<effect>
					<name></name>
					<effectid>GraphicAndType</effectid>
					<effectcategory>graphic</effectcategory>
					<effecttype>filter</effecttype>
					<mediatype>video</mediatype>
					<pproBypass>false</pproBypass>
					<parameter authoringApp="PremierePro">
					<parameterid>1</parameterid>
					<name></name>
					<hash>025b1101-ead6-0ca2-1feb-caf3000001fc</hash>
					<value>5AEAAAAAAABEMyIRDAAAAAAABgAKAAQABgAAAGQAAAAAAF4ASAAQAAwARABAADwAOAAAAAAAAAAAADQAMwAsAAAAKAAkACAAAAAAAAAAAAAAAAAAHAAAAAAAGgAAAAAAAAAUAAAAAAAAAAAAAAAAAAAAAAAAAAgAAAAAABsABwBeAAAAAAAAAUAAAABQAAAAbAAAAAIAAAAAAAEAAQAAAAAAQEEAAMBAAABAQAAAyEIAAAABIAAAAAIAAAACAAAAAAA2QwCASkTw/v//9P7///j+//8S////AAAAAAEAAAAEAAAAEQAAAEhHUFNvZWlLYWt1cG9wdGFpAAAAAQAAAAwAAAAIAAwABAAIAAgAAAAIAAAAUAAAAA8AAADvvIEAAAAAAAAAAAAAAAAAAAA2ACQAAAAgABwAAAAAABsAFAAAAAAAAAAAAAAAAAAAAAAAAAAAABAAAAAAAAAADAAAAAgABAA2AAAAAgAAABwAAAAcAAAAHAAAAAAAIEEAAAABaAAAAE3PAEOw////tP///wEAAAAUAAAAEAAaAAgABwAMAAAAEAAUABAAAAAAAAABHAAAAAAAoEEcAAAAAgAAAAAACgAIAAUABgAHAAoAAAAADAD//P///wQABAAEAAAACAAIAAYABwAIAAAAAAAMAA==</value>
					</parameter>
					<parameter authoringApp="PremierePro">
					<parameterid>2</parameterid>
					<name></name>
					<IsTimeVarying>false</IsTimeVarying>
					<ParameterControlType>11</ParameterControlType>
					<LowerBound>false</LowerBound>
					<UpperBound>false</UpperBound>
					<value>-91445760000000000,false,0,0,0,0,0,0</value>
					</parameter>
					<parameter authoringApp="PremierePro">
					<parameterid>3</parameterid>
					<name></name>
					<IsTimeVarying>false</IsTimeVarying>
					<value>-91445760000000000,0.5:0.5,0,0,0,0,0,0,5,4,0,0,0,0</value>
					</parameter>
					<parameter authoringApp="PremierePro">
					<parameterid>4</parameterid>
					<name></name>
					<IsTimeVarying>false</IsTimeVarying>
					<ParameterControlType>2</ParameterControlType>
					<LowerBound>0</LowerBound>
					<UpperBound>4000</UpperBound>
					<value>-91445760000000000,100.,0,0,0,0,0,0</value>
					</parameter>
					<parameter authoringApp="PremierePro">
					<parameterid>8</parameterid>
					<name></name>
					<IsTimeVarying>false</IsTimeVarying>
					<ParameterControlType>2</ParameterControlType>
					<LowerBound>0</LowerBound>
					<UpperBound>100</UpperBound>
					<value>-91445760000000000,100.,0,0,0,0,0,0</value>
					</parameter>
					</effect>
					</filter>
					<logginginfo>
					<description></description>
					<scene></scene>
					<shottake></shottake>
					<lognote></lognote>
					<good></good>
					<originalvideofilename></originalvideofilename>
					<originalaudiofilename></originalaudiofilename>
					</logginginfo>
					<colorinfo>
					<lut></lut>
					<lut1></lut1>
					<asc_sop></asc_sop>
					<asc_sat></asc_sat>
					<lut2></lut2>
					</colorinfo>
					<labels>
					</labels>
					</clipitem>
					<clipitem frameBlend="FALSE" id="clipitem-685">
					<masterclipid>masterclip-605</masterclipid>
					<name></name>
					<enabled>TRUE</enabled>
					<duration>2582774</duration>
					<rate>
					
					                                    <timebase>60</timebase>
					                                    <ntsc>TRUE</ntsc>
					                                
					</rate>
					<start>5938</start>
					<end>6004</end>
					<in>5938</in>
					<out>6004</out>
					<pproTicksIn>914456774963789</pproTicksIn>
					<pproTicksOut>914677708529577</pproTicksOut>
					<alphatype>straight</alphatype>
					<pixelaspectratio>square</pixelaspectratio>
					<anamorphic>FALSE</anamorphic>
					<file id="file-604">
					<name></name>
					<mediaSource>GraphicAndType</mediaSource>
					<rate>
					<timebase>60</timebase>
					<ntsc>TRUE</ntsc>
					</rate>
					<timecode>
					<rate>
					<timebase>60</timebase>
					<ntsc>TRUE</ntsc>
					</rate>
					<string>00:00:00:00</string>
					<frame>0</frame>
					<displayformat>NDF</displayformat>
					</timecode>
					<media>
					<video>
					<samplecharacteristics>
					<rate>
					<timebase>60</timebase>
					<ntsc>TRUE</ntsc>
					</rate>
					<width>1080</width>
					<height>1920</height>
					<anamorphic>FALSE</anamorphic>
					<pixelaspectratio>square</pixelaspectratio>
					<fielddominance>none</fielddominance>
					</samplecharacteristics>
					</video>
					</media>
					</file>
					<filter>
					<effect>
					<name></name>
					<effectid>GraphicAndType</effectid>
					<effectcategory>graphic</effectcategory>
					<effecttype>filter</effecttype>
					<mediatype>video</mediatype>
					<pproBypass>false</pproBypass>
					<parameter authoringApp="PremierePro">
					<parameterid>1</parameterid>
					<name></name>
					<hash>025b1101-ead6-0ca2-1feb-caf3000001fc</hash>
					<value>5AEAAAAAAABEMyIRDAAAAAAABgAKAAQABgAAAGQAAAAAAF4ASAAQAAwARABAADwAOAAAAAAAAAAAADQAMwAsAAAAKAAkACAAAAAAAAAAAAAAAAAAHAAAAAAAGgAAAAAAAAAUAAAAAAAAAAAAAAAAAAAAAAAAAAgAAAAAABsABwBeAAAAAAAAAUAAAABQAAAAbAAAAAIAAAAAAAEAAQAAAAAAQEEAAMBAAABAQAAAyEIAAAABIAAAAAIAAAACAAAAAAA2QwCASkTw/v//9P7///j+//8S////AAAAAAEAAAAEAAAAEQAAAEhHUFNvZWlLYWt1cG9wdGFpAAAAAQAAAAwAAAAIAAwABAAIAAgAAAAIAAAAUAAAAA8AAADvvIEAAAAAAAAAAAAAAAAAAAA2ACQAAAAgABwAAAAAABsAFAAAAAAAAAAAAAAAAAAAAAAAAAAAABAAAAAAAAAADAAAAAgABAA2AAAAAgAAABwAAAAcAAAAHAAAAAAAIEEAAAABaAAAAE3PAEOw////tP///wEAAAAUAAAAEAAaAAgABwAMAAAAEAAUABAAAAAAAAABHAAAAAAAoEEcAAAAAgAAAAAACgAIAAUABgAHAAoAAAAADAD//P///wQABAAEAAAACAAIAAYABwAIAAAAAAAMAA==</value>
					</parameter>
					<parameter authoringApp="PremierePro">
					<parameterid>2</parameterid>
					<name></name>
					<IsTimeVarying>false</IsTimeVarying>
					<ParameterControlType>11</ParameterControlType>
					<LowerBound>false</LowerBound>
					<UpperBound>false</UpperBound>
					<value>-91445760000000000,false,0,0,0,0,0,0</value>
					</parameter>
					<parameter authoringApp="PremierePro">
					<parameterid>3</parameterid>
					<name></name>
					<IsTimeVarying>false</IsTimeVarying>
					<value>-91445760000000000,0.5:0.5,0,0,0,0,0,0,5,4,0,0,0,0</value>
					</parameter>
					<parameter authoringApp="PremierePro">
					<parameterid>4</parameterid>
					<name></name>
					<IsTimeVarying>false</IsTimeVarying>
					<ParameterControlType>2</ParameterControlType>
					<LowerBound>0</LowerBound>
					<UpperBound>4000</UpperBound>
					<value>-91445760000000000,100.,0,0,0,0,0,0</value>
					</parameter>
					<parameter authoringApp="PremierePro">
					<parameterid>8</parameterid>
					<name></name>
					<IsTimeVarying>false</IsTimeVarying>
					<ParameterControlType>2</ParameterControlType>
					<LowerBound>0</LowerBound>
					<UpperBound>100</UpperBound>
					<value>-91445760000000000,100.,0,0,0,0,0,0</value>
					</parameter>
					</effect>
					</filter>
					<logginginfo>
					<description></description>
					<scene></scene>
					<shottake></shottake>
					<lognote></lognote>
					<good></good>
					<originalvideofilename></originalvideofilename>
					<originalaudiofilename></originalaudiofilename>
					</logginginfo>
					<colorinfo>
					<lut></lut>
					<lut1></lut1>
					<asc_sop></asc_sop>
					<asc_sat></asc_sat>
					<lut2></lut2>
					</colorinfo>
					<labels>
					</labels>
					</clipitem>
					<clipitem frameBlend="FALSE" id="clipitem-692">
					<masterclipid>masterclip-612</masterclipid>
					<name></name>
					<enabled>TRUE</enabled>
					<duration>2582774</duration>
					<rate>
					
					                                    <timebase>60</timebase>
					                                    <ntsc>TRUE</ntsc>
					                                
					</rate>
					<start>6016</start>
					<end>6076</end>
					<in>6016</in>
					<out>6076</out>
					<pproTicksIn>914456774963789</pproTicksIn>
					<pproTicksOut>914677708529577</pproTicksOut>
					<alphatype>straight</alphatype>
					<pixelaspectratio>square</pixelaspectratio>
					<anamorphic>FALSE</anamorphic>
					<file id="file-611">
					<name></name>
					<mediaSource>GraphicAndType</mediaSource>
					<rate>
					<timebase>60</timebase>
					<ntsc>TRUE</ntsc>
					</rate>
					<timecode>
					<rate>
					<timebase>60</timebase>
					<ntsc>TRUE</ntsc>
					</rate>
					<string>00:00:00:00</string>
					<frame>0</frame>
					<displayformat>NDF</displayformat>
					</timecode>
					<media>
					<video>
					<samplecharacteristics>
					<rate>
					<timebase>60</timebase>
					<ntsc>TRUE</ntsc>
					</rate>
					<width>1080</width>
					<height>1920</height>
					<anamorphic>FALSE</anamorphic>
					<pixelaspectratio>square</pixelaspectratio>
					<fielddominance>none</fielddominance>
					</samplecharacteristics>
					</video>
					</media>
					</file>
					<filter>
					<effect>
					<name></name>
					<effectid>GraphicAndType</effectid>
					<effectcategory>graphic</effectcategory>
					<effecttype>filter</effecttype>
					<mediatype>video</mediatype>
					<pproBypass>false</pproBypass>
					<parameter authoringApp="PremierePro">
					<parameterid>1</parameterid>
					<name></name>
					<hash>025b1101-ead6-0ca2-1feb-caf3000001fc</hash>
					<value>5AEAAAAAAABEMyIRDAAAAAAABgAKAAQABgAAAGQAAAAAAF4ASAAQAAwARABAADwAOAAAAAAAAAAAADQAMwAsAAAAKAAkACAAAAAAAAAAAAAAAAAAHAAAAAAAGgAAAAAAAAAUAAAAAAAAAAAAAAAAAAAAAAAAAAgAAAAAABsABwBeAAAAAAAAAUAAAABQAAAAbAAAAAIAAAAAAAEAAQAAAAAAQEEAAMBAAABAQAAAyEIAAAABIAAAAAIAAAACAAAAAAA2QwCASkTw/v//9P7///j+//8S////AAAAAAEAAAAEAAAAEQAAAEhHUFNvZWlLYWt1cG9wdGFpAAAAAQAAAAwAAAAIAAwABAAIAAgAAAAIAAAAUAAAAA8AAADvvIEAAAAAAAAAAAAAAAAAAAA2ACQAAAAgABwAAAAAABsAFAAAAAAAAAAAAAAAAAAAAAAAAAAAABAAAAAAAAAADAAAAAgABAA2AAAAAgAAABwAAAAcAAAAHAAAAAAAIEEAAAABaAAAAE3PAEOw////tP///wEAAAAUAAAAEAAaAAgABwAMAAAAEAAUABAAAAAAAAABHAAAAAAAoEEcAAAAAgAAAAAACgAIAAUABgAHAAoAAAAADAD//P///wQABAAEAAAACAAIAAYABwAIAAAAAAAMAA==</value>
					</parameter>
					<parameter authoringApp="PremierePro">
					<parameterid>2</parameterid>
					<name></name>
					<IsTimeVarying>false</IsTimeVarying>
					<ParameterControlType>11</ParameterControlType>
					<LowerBound>false</LowerBound>
					<UpperBound>false</UpperBound>
					<value>-91445760000000000,false,0,0,0,0,0,0</value>
					</parameter>
					<parameter authoringApp="PremierePro">
					<parameterid>3</parameterid>
					<name></name>
					<IsTimeVarying>false</IsTimeVarying>
					<value>-91445760000000000,0.5:0.5,0,0,0,0,0,0,5,4,0,0,0,0</value>
					</parameter>
					<parameter authoringApp="PremierePro">
					<parameterid>4</parameterid>
					<name></name>
					<IsTimeVarying>false</IsTimeVarying>
					<ParameterControlType>2</ParameterControlType>
					<LowerBound>0</LowerBound>
					<UpperBound>4000</UpperBound>
					<value>-91445760000000000,100.,0,0,0,0,0,0</value>
					</parameter>
					<parameter authoringApp="PremierePro">
					<parameterid>8</parameterid>
					<name></name>
					<IsTimeVarying>false</IsTimeVarying>
					<ParameterControlType>2</ParameterControlType>
					<LowerBound>0</LowerBound>
					<UpperBound>100</UpperBound>
					<value>-91445760000000000,100.,0,0,0,0,0,0</value>
					</parameter>
					</effect>
					</filter>
					<logginginfo>
					<description></description>
					<scene></scene>
					<shottake></shottake>
					<lognote></lognote>
					<good></good>
					<originalvideofilename></originalvideofilename>
					<originalaudiofilename></originalaudiofilename>
					</logginginfo>
					<colorinfo>
					<lut></lut>
					<lut1></lut1>
					<asc_sop></asc_sop>
					<asc_sat></asc_sat>
					<lut2></lut2>
					</colorinfo>
					<labels>
					</labels>
					</clipitem>
					<clipitem id="clipitem-699"/>
					                        </track>
					                        <track TL.SQTrackShy="0" TL.SQTrackExpandedHeight="25" TL.SQTrackExpanded="0" MZ.TrackTargeted="0">
					<clipitem frameBlend="FALSE" id="clipitem-700">
					<masterclipid>masterclip-620</masterclipid>
					<name></name>
					<enabled>TRUE</enabled>
					<duration>2582774</duration>
					<rate>
					
					                                    <timebase>60</timebase>
					                                    <ntsc>TRUE</ntsc>
					                                
					</rate>
					<start>6088</start>
					<end>6154</end>
					<in>6088</in>
					<out>6154</out>
					<pproTicksIn>914456774963789</pproTicksIn>
					<pproTicksOut>914677708529577</pproTicksOut>
					<alphatype>straight</alphatype>
					<pixelaspectratio>square</pixelaspectratio>
					<anamorphic>FALSE</anamorphic>
					<file id="file-619">
					<name></name>
					<mediaSource>GraphicAndType</mediaSource>
					<rate>
					<timebase>60</timebase>
					<ntsc>TRUE</ntsc>
					</rate>
					<timecode>
					<rate>
					<timebase>60</timebase>
					<ntsc>TRUE</ntsc>
					</rate>
					<string>00:00:00:00</string>
					<frame>0</frame>
					<displayformat>NDF</displayformat>
					</timecode>
					<media>
					<video>
					<samplecharacteristics>
					<rate>
					<timebase>60</timebase>
					<ntsc>TRUE</ntsc>
					</rate>
					<width>1080</width>
					<height>1920</height>
					<anamorphic>FALSE</anamorphic>
					<pixelaspectratio>square</pixelaspectratio>
					<fielddominance>none</fielddominance>
					</samplecharacteristics>
					</video>
					</media>
					</file>
					<filter>
					<effect>
					<name></name>
					<effectid>GraphicAndType</effectid>
					<effectcategory>graphic</effectcategory>
					<effecttype>filter</effecttype>
					<mediatype>video</mediatype>
					<pproBypass>false</pproBypass>
					<parameter authoringApp="PremierePro">
					<parameterid>1</parameterid>
					<name></name>
					<hash>025b1101-ead6-0ca2-1feb-caf3000001fc</hash>
					<value>5AEAAAAAAABEMyIRDAAAAAAABgAKAAQABgAAAGQAAAAAAF4ASAAQAAwARABAADwAOAAAAAAAAAAAADQAMwAsAAAAKAAkACAAAAAAAAAAAAAAAAAAHAAAAAAAGgAAAAAAAAAUAAAAAAAAAAAAAAAAAAAAAAAAAAgAAAAAABsABwBeAAAAAAAAAUAAAABQAAAAbAAAAAIAAAAAAAEAAQAAAAAAQEEAAMBAAABAQAAAyEIAAAABIAAAAAIAAAACAAAAAAA2QwCASkTw/v//9P7///j+//8S////AAAAAAEAAAAEAAAAEQAAAEhHUFNvZWlLYWt1cG9wdGFpAAAAAQAAAAwAAAAIAAwABAAIAAgAAAAIAAAAUAAAAA8AAADvvIEAAAAAAAAAAAAAAAAAAAA2ACQAAAAgABwAAAAAABsAFAAAAAAAAAAAAAAAAAAAAAAAAAAAABAAAAAAAAAADAAAAAgABAA2AAAAAgAAABwAAAAcAAAAHAAAAAAAIEEAAAABaAAAAE3PAEOw////tP///wEAAAAUAAAAEAAaAAgABwAMAAAAEAAUABAAAAAAAAABHAAAAAAAoEEcAAAAAgAAAAAACgAIAAUABgAHAAoAAAAADAD//P///wQABAAEAAAACAAIAAYABwAIAAAAAAAMAA==</value>
					</parameter>
					<parameter authoringApp="PremierePro">
					<parameterid>2</parameterid>
					<name></name>
					<IsTimeVarying>false</IsTimeVarying>
					<ParameterControlType>11</ParameterControlType>
					<LowerBound>false</LowerBound>
					<UpperBound>false</UpperBound>
					<value>-91445760000000000,false,0,0,0,0,0,0</value>
					</parameter>
					<parameter authoringApp="PremierePro">
					<parameterid>3</parameterid>
					<name></name>
					<IsTimeVarying>false</IsTimeVarying>
					<value>-91445760000000000,0.5:0.5,0,0,0,0,0,0,5,4,0,0,0,0</value>
					</parameter>
					<parameter authoringApp="PremierePro">
					<parameterid>4</parameterid>
					<name></name>
					<IsTimeVarying>false</IsTimeVarying>
					<ParameterControlType>2</ParameterControlType>
					<LowerBound>0</LowerBound>
					<UpperBound>4000</UpperBound>
					<value>-91445760000000000,100.,0,0,0,0,0,0</value>
					</parameter>
					<parameter authoringApp="PremierePro">
					<parameterid>8</parameterid>
					<name></name>
					<IsTimeVarying>false</IsTimeVarying>
					<ParameterControlType>2</ParameterControlType>
					<LowerBound>0</LowerBound>
					<UpperBound>100</UpperBound>
					<value>-91445760000000000,100.,0,0,0,0,0,0</value>
					</parameter>
					</effect>
					</filter>
					<logginginfo>
					<description></description>
					<scene></scene>
					<shottake></shottake>
					<lognote></lognote>
					<good></good>
					<originalvideofilename></originalvideofilename>
					<originalaudiofilename></originalaudiofilename>
					</logginginfo>
					<colorinfo>
					<lut></lut>
					<lut1></lut1>
					<asc_sop></asc_sop>
					<asc_sat></asc_sat>
					<lut2></lut2>
					</colorinfo>
					<labels>
					</labels>
					</clipitem>
					<clipitem frameBlend="FALSE" id="clipitem-710">
					<masterclipid>masterclip-630</masterclipid>
					<name></name>
					<enabled>TRUE</enabled>
					<duration>2582774</duration>
					<rate>
					
					                                    <timebase>60</timebase>
					                                    <ntsc>TRUE</ntsc>
					                                
					</rate>
					<start>6172</start>
					<end>6238</end>
					<in>6172</in>
					<out>6238</out>
					<pproTicksIn>914456774963789</pproTicksIn>
					<pproTicksOut>914677708529577</pproTicksOut>
					<alphatype>straight</alphatype>
					<pixelaspectratio>square</pixelaspectratio>
					<anamorphic>FALSE</anamorphic>
					<file id="file-629">
					<name></name>
					<mediaSource>GraphicAndType</mediaSource>
					<rate>
					<timebase>60</timebase>
					<ntsc>TRUE</ntsc>
					</rate>
					<timecode>
					<rate>
					<timebase>60</timebase>
					<ntsc>TRUE</ntsc>
					</rate>
					<string>00:00:00:00</string>
					<frame>0</frame>
					<displayformat>NDF</displayformat>
					</timecode>
					<media>
					<video>
					<samplecharacteristics>
					<rate>
					<timebase>60</timebase>
					<ntsc>TRUE</ntsc>
					</rate>
					<width>1080</width>
					<height>1920</height>
					<anamorphic>FALSE</anamorphic>
					<pixelaspectratio>square</pixelaspectratio>
					<fielddominance>none</fielddominance>
					</samplecharacteristics>
					</video>
					</media>
					</file>
					<filter>
					<effect>
					<name></name>
					<effectid>GraphicAndType</effectid>
					<effectcategory>graphic</effectcategory>
					<effecttype>filter</effecttype>
					<mediatype>video</mediatype>
					<pproBypass>false</pproBypass>
					<parameter authoringApp="PremierePro">
					<parameterid>1</parameterid>
					<name></name>
					<hash>025b1101-ead6-0ca2-1feb-caf3000001fc</hash>
					<value>5AEAAAAAAABEMyIRDAAAAAAABgAKAAQABgAAAGQAAAAAAF4ASAAQAAwARABAADwAOAAAAAAAAAAAADQAMwAsAAAAKAAkACAAAAAAAAAAAAAAAAAAHAAAAAAAGgAAAAAAAAAUAAAAAAAAAAAAAAAAAAAAAAAAAAgAAAAAABsABwBeAAAAAAAAAUAAAABQAAAAbAAAAAIAAAAAAAEAAQAAAAAAQEEAAMBAAABAQAAAyEIAAAABIAAAAAIAAAACAAAAAAA2QwCASkTw/v//9P7///j+//8S////AAAAAAEAAAAEAAAAEQAAAEhHUFNvZWlLYWt1cG9wdGFpAAAAAQAAAAwAAAAIAAwABAAIAAgAAAAIAAAAUAAAAA8AAADvvIEAAAAAAAAAAAAAAAAAAAA2ACQAAAAgABwAAAAAABsAFAAAAAAAAAAAAAAAAAAAAAAAAAAAABAAAAAAAAAADAAAAAgABAA2AAAAAgAAABwAAAAcAAAAHAAAAAAAIEEAAAABaAAAAE3PAEOw////tP///wEAAAAUAAAAEAAaAAgABwAMAAAAEAAUABAAAAAAAAABHAAAAAAAoEEcAAAAAgAAAAAACgAIAAUABgAHAAoAAAAADAD//P///wQABAAEAAAACAAIAAYABwAIAAAAAAAMAA==</value>
					</parameter>
					<parameter authoringApp="PremierePro">
					<parameterid>2</parameterid>
					<name></name>
					<IsTimeVarying>false</IsTimeVarying>
					<ParameterControlType>11</ParameterControlType>
					<LowerBound>false</LowerBound>
					<UpperBound>false</UpperBound>
					<value>-91445760000000000,false,0,0,0,0,0,0</value>
					</parameter>
					<parameter authoringApp="PremierePro">
					<parameterid>3</parameterid>
					<name></name>
					<IsTimeVarying>false</IsTimeVarying>
					<value>-91445760000000000,0.5:0.5,0,0,0,0,0,0,5,4,0,0,0,0</value>
					</parameter>
					<parameter authoringApp="PremierePro">
					<parameterid>4</parameterid>
					<name></name>
					<IsTimeVarying>false</IsTimeVarying>
					<ParameterControlType>2</ParameterControlType>
					<LowerBound>0</LowerBound>
					<UpperBound>4000</UpperBound>
					<value>-91445760000000000,100.,0,0,0,0,0,0</value>
					</parameter>
					<parameter authoringApp="PremierePro">
					<parameterid>8</parameterid>
					<name></name>
					<IsTimeVarying>false</IsTimeVarying>
					<ParameterControlType>2</ParameterControlType>
					<LowerBound>0</LowerBound>
					<UpperBound>100</UpperBound>
					<value>-91445760000000000,100.,0,0,0,0,0,0</value>
					</parameter>
					</effect>
					</filter>
					<logginginfo>
					<description></description>
					<scene></scene>
					<shottake></shottake>
					<lognote></lognote>
					<good></good>
					<originalvideofilename></originalvideofilename>
					<originalaudiofilename></originalaudiofilename>
					</logginginfo>
					<colorinfo>
					<lut></lut>
					<lut1></lut1>
					<asc_sop></asc_sop>
					<asc_sat></asc_sat>
					<lut2></lut2>
					</colorinfo>
					<labels>
					</labels>
					</clipitem>
					<clipitem id="clipitem-716"/>
					                        </track>
					                        <track TL.SQTrackShy="0" TL.SQTrackExpandedHeight="25" TL.SQTrackExpanded="0" MZ.TrackTargeted="0">
					<clipitem frameBlend="FALSE" id="clipitem-717">
					<masterclipid>masterclip-637</masterclipid>
					<name></name>
					<enabled>TRUE</enabled>
					<duration>2582774</duration>
					<rate>
					
					                                    <timebase>60</timebase>
					                                    <ntsc>TRUE</ntsc>
					                                
					</rate>
					<start>6238</start>
					<end>6262</end>
					<in>6238</in>
					<out>6262</out>
					<pproTicksIn>914456774963789</pproTicksIn>
					<pproTicksOut>914677708529577</pproTicksOut>
					<alphatype>straight</alphatype>
					<pixelaspectratio>square</pixelaspectratio>
					<anamorphic>FALSE</anamorphic>
					<file id="file-636">
					<name></name>
					<mediaSource>GraphicAndType</mediaSource>
					<rate>
					<timebase>60</timebase>
					<ntsc>TRUE</ntsc>
					</rate>
					<timecode>
					<rate>
					<timebase>60</timebase>
					<ntsc>TRUE</ntsc>
					</rate>
					<string>00:00:00:00</string>
					<frame>0</frame>
					<displayformat>NDF</displayformat>
					</timecode>
					<media>
					<video>
					<samplecharacteristics>
					<rate>
					<timebase>60</timebase>
					<ntsc>TRUE</ntsc>
					</rate>
					<width>1080</width>
					<height>1920</height>
					<anamorphic>FALSE</anamorphic>
					<pixelaspectratio>square</pixelaspectratio>
					<fielddominance>none</fielddominance>
					</samplecharacteristics>
					</video>
					</media>
					</file>
					<filter>
					<effect>
					<name>w</name>
					<effectid>GraphicAndType</effectid>
					<effectcategory>graphic</effectcategory>
					<effecttype>filter</effecttype>
					<mediatype>video</mediatype>
					<pproBypass>false</pproBypass>
					<parameter authoringApp="PremierePro">
					<parameterid>1</parameterid>
					<name></name>
					<hash>025b1101-ead6-0ca2-1feb-caf3000001fc</hash>
					<value>5AEAAAAAAABEMyIRDAAAAAAABgAKAAQABgAAAGQAAAAAAF4ASAAQAAwARABAADwAOAAAAAAAAAAAADQAMwAsAAAAKAAkACAAAAAAAAAAAAAAAAAAHAAAAAAAGgAAAAAAAAAUAAAAAAAAAAAAAAAAAAAAAAAAAAgAAAAAABsABwBeAAAAAAAAAUAAAABQAAAAbAAAAAIAAAAAAAEAAQAAAAAAQEEAAMBAAABAQAAAyEIAAAABIAAAAAIAAAACAAAAAAA2QwCASkTw/v//9P7///j+//8S////AAAAAAEAAAAEAAAAEQAAAEhHUFNvZWlLYWt1cG9wdGFpAAAAAQAAAAwAAAAIAAwABAAIAAgAAAAIAAAAUAAAAA8AAAB3AAAAAAAAAAAAAAAAAAAAAAA2ACQAAAAgABwAAAAAABsAFAAAAAAAAAAAAAAAAAAAAAAAAAAAABAAAAAAAAAADAAAAAgABAA2AAAAAgAAABwAAAAcAAAAHAAAAAAAIEEAAAABaAAAAE3PAEOw////tP///wEAAAAUAAAAEAAaAAgABwAMAAAAEAAUABAAAAAAAAABHAAAAAAAoEEcAAAAAgAAAAAACgAIAAUABgAHAAoAAAAADAD//P///wQABAAEAAAACAAIAAYABwAIAAAAAAAMAA==</value>
					</parameter>
					<parameter authoringApp="PremierePro">
					<parameterid>2</parameterid>
					<name></name>
					<IsTimeVarying>false</IsTimeVarying>
					<ParameterControlType>11</ParameterControlType>
					<LowerBound>false</LowerBound>
					<UpperBound>false</UpperBound>
					<value>-91445760000000000,false,0,0,0,0,0,0</value>
					</parameter>
					<parameter authoringApp="PremierePro">
					<parameterid>3</parameterid>
					<name></name>
					<IsTimeVarying>false</IsTimeVarying>
					<value>-91445760000000000,0.5:0.5,0,0,0,0,0,0,5,4,0,0,0,0</value>
					</parameter>
					<parameter authoringApp="PremierePro">
					<parameterid>4</parameterid>
					<name></name>
					<IsTimeVarying>false</IsTimeVarying>
					<ParameterControlType>2</ParameterControlType>
					<LowerBound>0</LowerBound>
					<UpperBound>4000</UpperBound>
					<value>-91445760000000000,100.,0,0,0,0,0,0</value>
					</parameter>
					<parameter authoringApp="PremierePro">
					<parameterid>8</parameterid>
					<name></name>
					<IsTimeVarying>false</IsTimeVarying>
					<ParameterControlType>2</ParameterControlType>
					<LowerBound>0</LowerBound>
					<UpperBound>100</UpperBound>
					<value>-91445760000000000,100.,0,0,0,0,0,0</value>
					</parameter>
					</effect>
					</filter>
					<logginginfo>
					<description></description>
					<scene></scene>
					<shottake></shottake>
					<lognote></lognote>
					<good></good>
					<originalvideofilename></originalvideofilename>
					<originalaudiofilename></originalaudiofilename>
					</logginginfo>
					<colorinfo>
					<lut></lut>
					<lut1></lut1>
					<asc_sop></asc_sop>
					<asc_sat></asc_sat>
					<lut2></lut2>
					</colorinfo>
					<labels>
					</labels>
					</clipitem>
					<clipitem frameBlend="FALSE" id="clipitem-725">
					<masterclipid>masterclip-645</masterclipid>
					<name></name>
					<enabled>TRUE</enabled>
					<duration>2582774</duration>
					<rate>
					
					                                    <timebase>60</timebase>
					                                    <ntsc>TRUE</ntsc>
					                                
					</rate>
					<start>6298</start>
					<end>6358</end>
					<in>6298</in>
					<out>6358</out>
					<pproTicksIn>914456774963789</pproTicksIn>
					<pproTicksOut>914677708529577</pproTicksOut>
					<alphatype>straight</alphatype>
					<pixelaspectratio>square</pixelaspectratio>
					<anamorphic>FALSE</anamorphic>
					<file id="file-644">
					<name></name>
					<mediaSource>GraphicAndType</mediaSource>
					<rate>
					<timebase>60</timebase>
					<ntsc>TRUE</ntsc>
					</rate>
					<timecode>
					<rate>
					<timebase>60</timebase>
					<ntsc>TRUE</ntsc>
					</rate>
					<string>00:00:00:00</string>
					<frame>0</frame>
					<displayformat>NDF</displayformat>
					</timecode>
					<media>
					<video>
					<samplecharacteristics>
					<rate>
					<timebase>60</timebase>
					<ntsc>TRUE</ntsc>
					</rate>
					<width>1080</width>
					<height>1920</height>
					<anamorphic>FALSE</anamorphic>
					<pixelaspectratio>square</pixelaspectratio>
					<fielddominance>none</fielddominance>
					</samplecharacteristics>
					</video>
					</media>
					</file>
					<filter>
					<effect>
					<name></name>
					<effectid>GraphicAndType</effectid>
					<effectcategory>graphic</effectcategory>
					<effecttype>filter</effecttype>
					<mediatype>video</mediatype>
					<pproBypass>false</pproBypass>
					<parameter authoringApp="PremierePro">
					<parameterid>1</parameterid>
					<name></name>
					<hash>025b1101-ead6-0ca2-1feb-caf3000001fc</hash>
					<value>5AEAAAAAAABEMyIRDAAAAAAABgAKAAQABgAAAGQAAAAAAF4ASAAQAAwARABAADwAOAAAAAAAAAAAADQAMwAsAAAAKAAkACAAAAAAAAAAAAAAAAAAHAAAAAAAGgAAAAAAAAAUAAAAAAAAAAAAAAAAAAAAAAAAAAgAAAAAABsABwBeAAAAAAAAAUAAAABQAAAAbAAAAAIAAAAAAAEAAQAAAAAAQEEAAMBAAABAQAAAyEIAAAABIAAAAAIAAAACAAAAAAA2QwCASkTw/v//9P7///j+//8S////AAAAAAEAAAAEAAAAEQAAAEhHUFNvZWlLYWt1cG9wdGFpAAAAAQAAAAwAAAAIAAwABAAIAAgAAAAIAAAAUAAAAA8AAADvvIEAAAAAAAAAAAAAAAAAAAA2ACQAAAAgABwAAAAAABsAFAAAAAAAAAAAAAAAAAAAAAAAAAAAABAAAAAAAAAADAAAAAgABAA2AAAAAgAAABwAAAAcAAAAHAAAAAAAIEEAAAABaAAAAE3PAEOw////tP///wEAAAAUAAAAEAAaAAgABwAMAAAAEAAUABAAAAAAAAABHAAAAAAAoEEcAAAAAgAAAAAACgAIAAUABgAHAAoAAAAADAD//P///wQABAAEAAAACAAIAAYABwAIAAAAAAAMAA==</value>
					</parameter>
					<parameter authoringApp="PremierePro">
					<parameterid>2</parameterid>
					<name></name>
					<IsTimeVarying>false</IsTimeVarying>
					<ParameterControlType>11</ParameterControlType>
					<LowerBound>false</LowerBound>
					<UpperBound>false</UpperBound>
					<value>-91445760000000000,false,0,0,0,0,0,0</value>
					</parameter>
					<parameter authoringApp="PremierePro">
					<parameterid>3</parameterid>
					<name></name>
					<IsTimeVarying>false</IsTimeVarying>
					<value>-91445760000000000,0.5:0.5,0,0,0,0,0,0,5,4,0,0,0,0</value>
					</parameter>
					<parameter authoringApp="PremierePro">
					<parameterid>4</parameterid>
					<name></name>
					<IsTimeVarying>false</IsTimeVarying>
					<ParameterControlType>2</ParameterControlType>
					<LowerBound>0</LowerBound>
					<UpperBound>4000</UpperBound>
					<value>-91445760000000000,100.,0,0,0,0,0,0</value>
					</parameter>
					<parameter authoringApp="PremierePro">
					<parameterid>8</parameterid>
					<name></name>
					<IsTimeVarying>false</IsTimeVarying>
					<ParameterControlType>2</ParameterControlType>
					<LowerBound>0</LowerBound>
					<UpperBound>100</UpperBound>
					<value>-91445760000000000,100.,0,0,0,0,0,0</value>
					</parameter>
					</effect>
					</filter>
					<logginginfo>
					<description></description>
					<scene></scene>
					<shottake></shottake>
					<lognote></lognote>
					<good></good>
					<originalvideofilename></originalvideofilename>
					<originalaudiofilename></originalaudiofilename>
					</logginginfo>
					<colorinfo>
					<lut></lut>
					<lut1></lut1>
					<asc_sop></asc_sop>
					<asc_sat></asc_sat>
					<lut2></lut2>
					</colorinfo>
					<labels>
					</labels>
					</clipitem>
					<clipitem id="clipitem-732"/>
					                        </track>
					                        <track TL.SQTrackShy="0" TL.SQTrackExpandedHeight="25" TL.SQTrackExpanded="0" MZ.TrackTargeted="0">
					<clipitem frameBlend="FALSE" id="clipitem-733">
					<masterclipid>masterclip-653</masterclipid>
					<name></name>
					<enabled>TRUE</enabled>
					<duration>2582774</duration>
					<rate>
					
					                                    <timebase>60</timebase>
					                                    <ntsc>TRUE</ntsc>
					                                
					</rate>
					<start>6370</start>
					<end>6436</end>
					<in>6370</in>
					<out>6436</out>
					<pproTicksIn>914456774963789</pproTicksIn>
					<pproTicksOut>914677708529577</pproTicksOut>
					<alphatype>straight</alphatype>
					<pixelaspectratio>square</pixelaspectratio>
					<anamorphic>FALSE</anamorphic>
					<file id="file-652">
					<name></name>
					<mediaSource>GraphicAndType</mediaSource>
					<rate>
					<timebase>60</timebase>
					<ntsc>TRUE</ntsc>
					</rate>
					<timecode>
					<rate>
					<timebase>60</timebase>
					<ntsc>TRUE</ntsc>
					</rate>
					<string>00:00:00:00</string>
					<frame>0</frame>
					<displayformat>NDF</displayformat>
					</timecode>
					<media>
					<video>
					<samplecharacteristics>
					<rate>
					<timebase>60</timebase>
					<ntsc>TRUE</ntsc>
					</rate>
					<width>1080</width>
					<height>1920</height>
					<anamorphic>FALSE</anamorphic>
					<pixelaspectratio>square</pixelaspectratio>
					<fielddominance>none</fielddominance>
					</samplecharacteristics>
					</video>
					</media>
					</file>
					<filter>
					<effect>
					<name></name>
					<effectid>GraphicAndType</effectid>
					<effectcategory>graphic</effectcategory>
					<effecttype>filter</effecttype>
					<mediatype>video</mediatype>
					<pproBypass>false</pproBypass>
					<parameter authoringApp="PremierePro">
					<parameterid>1</parameterid>
					<name></name>
					<hash>025b1101-ead6-0ca2-1feb-caf3000001fc</hash>
					<value>5AEAAAAAAABEMyIRDAAAAAAABgAKAAQABgAAAGQAAAAAAF4ASAAQAAwARABAADwAOAAAAAAAAAAAADQAMwAsAAAAKAAkACAAAAAAAAAAAAAAAAAAHAAAAAAAGgAAAAAAAAAUAAAAAAAAAAAAAAAAAAAAAAAAAAgAAAAAABsABwBeAAAAAAAAAUAAAABQAAAAbAAAAAIAAAAAAAEAAQAAAAAAQEEAAMBAAABAQAAAyEIAAAABIAAAAAIAAAACAAAAAAA2QwCASkTw/v//9P7///j+//8S////AAAAAAEAAAAEAAAAEQAAAEhHUFNvZWlLYWt1cG9wdGFpAAAAAQAAAAwAAAAIAAwABAAIAAgAAAAIAAAAUAAAAA8AAADvvIEAAAAAAAAAAAAAAAAAAAA2ACQAAAAgABwAAAAAABsAFAAAAAAAAAAAAAAAAAAAAAAAAAAAABAAAAAAAAAADAAAAAgABAA2AAAAAgAAABwAAAAcAAAAHAAAAAAAIEEAAAABaAAAAE3PAEOw////tP///wEAAAAUAAAAEAAaAAgABwAMAAAAEAAUABAAAAAAAAABHAAAAAAAoEEcAAAAAgAAAAAACgAIAAUABgAHAAoAAAAADAD//P///wQABAAEAAAACAAIAAYABwAIAAAAAAAMAA==</value>
					</parameter>
					<parameter authoringApp="PremierePro">
					<parameterid>2</parameterid>
					<name></name>
					<IsTimeVarying>false</IsTimeVarying>
					<ParameterControlType>11</ParameterControlType>
					<LowerBound>false</LowerBound>
					<UpperBound>false</UpperBound>
					<value>-91445760000000000,false,0,0,0,0,0,0</value>
					</parameter>
					<parameter authoringApp="PremierePro">
					<parameterid>3</parameterid>
					<name></name>
					<IsTimeVarying>false</IsTimeVarying>
					<value>-91445760000000000,0.5:0.5,0,0,0,0,0,0,5,4,0,0,0,0</value>
					</parameter>
					<parameter authoringApp="PremierePro">
					<parameterid>4</parameterid>
					<name></name>
					<IsTimeVarying>false</IsTimeVarying>
					<ParameterControlType>2</ParameterControlType>
					<LowerBound>0</LowerBound>
					<UpperBound>4000</UpperBound>
					<value>-91445760000000000,100.,0,0,0,0,0,0</value>
					</parameter>
					<parameter authoringApp="PremierePro">
					<parameterid>8</parameterid>
					<name></name>
					<IsTimeVarying>false</IsTimeVarying>
					<ParameterControlType>2</ParameterControlType>
					<LowerBound>0</LowerBound>
					<UpperBound>100</UpperBound>
					<value>-91445760000000000,100.,0,0,0,0,0,0</value>
					</parameter>
					</effect>
					</filter>
					<logginginfo>
					<description></description>
					<scene></scene>
					<shottake></shottake>
					<lognote></lognote>
					<good></good>
					<originalvideofilename></originalvideofilename>
					<originalaudiofilename></originalaudiofilename>
					</logginginfo>
					<colorinfo>
					<lut></lut>
					<lut1></lut1>
					<asc_sop></asc_sop>
					<asc_sat></asc_sat>
					<lut2></lut2>
					</colorinfo>
					<labels>
					</labels>
					</clipitem>
					<clipitem frameBlend="FALSE" id="clipitem-742">
					<masterclipid>masterclip-662</masterclipid>
					<name></name>
					<enabled>TRUE</enabled>
					<duration>2582774</duration>
					<rate>
					
					                                    <timebase>60</timebase>
					                                    <ntsc>TRUE</ntsc>
					                                
					</rate>
					<start>6472</start>
					<end>6532</end>
					<in>6472</in>
					<out>6532</out>
					<pproTicksIn>914456774963789</pproTicksIn>
					<pproTicksOut>914677708529577</pproTicksOut>
					<alphatype>straight</alphatype>
					<pixelaspectratio>square</pixelaspectratio>
					<anamorphic>FALSE</anamorphic>
					<file id="file-661">
					<name></name>
					<mediaSource>GraphicAndType</mediaSource>
					<rate>
					<timebase>60</timebase>
					<ntsc>TRUE</ntsc>
					</rate>
					<timecode>
					<rate>
					<timebase>60</timebase>
					<ntsc>TRUE</ntsc>
					</rate>
					<string>00:00:00:00</string>
					<frame>0</frame>
					<displayformat>NDF</displayformat>
					</timecode>
					<media>
					<video>
					<samplecharacteristics>
					<rate>
					<timebase>60</timebase>
					<ntsc>TRUE</ntsc>
					</rate>
					<width>1080</width>
					<height>1920</height>
					<anamorphic>FALSE</anamorphic>
					<pixelaspectratio>square</pixelaspectratio>
					<fielddominance>none</fielddominance>
					</samplecharacteristics>
					</video>
					</media>
					</file>
					<filter>
					<effect>
					<name></name>
					<effectid>GraphicAndType</effectid>
					<effectcategory>graphic</effectcategory>
					<effecttype>filter</effecttype>
					<mediatype>video</mediatype>
					<pproBypass>false</pproBypass>
					<parameter authoringApp="PremierePro">
					<parameterid>1</parameterid>
					<name></name>
					<hash>025b1101-ead6-0ca2-1feb-caf3000001fc</hash>
					<value>5AEAAAAAAABEMyIRDAAAAAAABgAKAAQABgAAAGQAAAAAAF4ASAAQAAwARABAADwAOAAAAAAAAAAAADQAMwAsAAAAKAAkACAAAAAAAAAAAAAAAAAAHAAAAAAAGgAAAAAAAAAUAAAAAAAAAAAAAAAAAAAAAAAAAAgAAAAAABsABwBeAAAAAAAAAUAAAABQAAAAbAAAAAIAAAAAAAEAAQAAAAAAQEEAAMBAAABAQAAAyEIAAAABIAAAAAIAAAACAAAAAAA2QwCASkTw/v//9P7///j+//8S////AAAAAAEAAAAEAAAAEQAAAEhHUFNvZWlLYWt1cG9wdGFpAAAAAQAAAAwAAAAIAAwABAAIAAgAAAAIAAAAUAAAAA8AAADvvIEAAAAAAAAAAAAAAAAAAAA2ACQAAAAgABwAAAAAABsAFAAAAAAAAAAAAAAAAAAAAAAAAAAAABAAAAAAAAAADAAAAAgABAA2AAAAAgAAABwAAAAcAAAAHAAAAAAAIEEAAAABaAAAAE3PAEOw////tP///wEAAAAUAAAAEAAaAAgABwAMAAAAEAAUABAAAAAAAAABHAAAAAAAoEEcAAAAAgAAAAAACgAIAAUABgAHAAoAAAAADAD//P///wQABAAEAAAACAAIAAYABwAIAAAAAAAMAA==</value>
					</parameter>
					<parameter authoringApp="PremierePro">
					<parameterid>2</parameterid>
					<name></name>
					<IsTimeVarying>false</IsTimeVarying>
					<ParameterControlType>11</ParameterControlType>
					<LowerBound>false</LowerBound>
					<UpperBound>false</UpperBound>
					<value>-91445760000000000,false,0,0,0,0,0,0</value>
					</parameter>
					<parameter authoringApp="PremierePro">
					<parameterid>3</parameterid>
					<name></name>
					<IsTimeVarying>false</IsTimeVarying>
					<value>-91445760000000000,0.5:0.5,0,0,0,0,0,0,5,4,0,0,0,0</value>
					</parameter>
					<parameter authoringApp="PremierePro">
					<parameterid>4</parameterid>
					<name></name>
					<IsTimeVarying>false</IsTimeVarying>
					<ParameterControlType>2</ParameterControlType>
					<LowerBound>0</LowerBound>
					<UpperBound>4000</UpperBound>
					<value>-91445760000000000,100.,0,0,0,0,0,0</value>
					</parameter>
					<parameter authoringApp="PremierePro">
					<parameterid>8</parameterid>
					<name></name>
					<IsTimeVarying>false</IsTimeVarying>
					<ParameterControlType>2</ParameterControlType>
					<LowerBound>0</LowerBound>
					<UpperBound>100</UpperBound>
					<value>-91445760000000000,100.,0,0,0,0,0,0</value>
					</parameter>
					</effect>
					</filter>
					<logginginfo>
					<description></description>
					<scene></scene>
					<shottake></shottake>
					<lognote></lognote>
					<good></good>
					<originalvideofilename></originalvideofilename>
					<originalaudiofilename></originalaudiofilename>
					</logginginfo>
					<colorinfo>
					<lut></lut>
					<lut1></lut1>
					<asc_sop></asc_sop>
					<asc_sat></asc_sat>
					<lut2></lut2>
					</colorinfo>
					<labels>
					</labels>
					</clipitem>
					<clipitem frameBlend="FALSE" id="clipitem-749">
					<masterclipid>masterclip-669</masterclipid>
					<name></name>
					<enabled>TRUE</enabled>
					<duration>2582774</duration>
					<rate>
					
					                                    <timebase>60</timebase>
					                                    <ntsc>TRUE</ntsc>
					                                
					</rate>
					<start>6568</start>
					<end>6628</end>
					<in>6568</in>
					<out>6628</out>
					<pproTicksIn>914456774963789</pproTicksIn>
					<pproTicksOut>914677708529577</pproTicksOut>
					<alphatype>straight</alphatype>
					<pixelaspectratio>square</pixelaspectratio>
					<anamorphic>FALSE</anamorphic>
					<file id="file-668">
					<name></name>
					<mediaSource>GraphicAndType</mediaSource>
					<rate>
					<timebase>60</timebase>
					<ntsc>TRUE</ntsc>
					</rate>
					<timecode>
					<rate>
					<timebase>60</timebase>
					<ntsc>TRUE</ntsc>
					</rate>
					<string>00:00:00:00</string>
					<frame>0</frame>
					<displayformat>NDF</displayformat>
					</timecode>
					<media>
					<video>
					<samplecharacteristics>
					<rate>
					<timebase>60</timebase>
					<ntsc>TRUE</ntsc>
					</rate>
					<width>1080</width>
					<height>1920</height>
					<anamorphic>FALSE</anamorphic>
					<pixelaspectratio>square</pixelaspectratio>
					<fielddominance>none</fielddominance>
					</samplecharacteristics>
					</video>
					</media>
					</file>
					<filter>
					<effect>
					<name></name>
					<effectid>GraphicAndType</effectid>
					<effectcategory>graphic</effectcategory>
					<effecttype>filter</effecttype>
					<mediatype>video</mediatype>
					<pproBypass>false</pproBypass>
					<parameter authoringApp="PremierePro">
					<parameterid>1</parameterid>
					<name></name>
					<hash>025b1101-ead6-0ca2-1feb-caf3000001fc</hash>
					<value>5AEAAAAAAABEMyIRDAAAAAAABgAKAAQABgAAAGQAAAAAAF4ASAAQAAwARABAADwAOAAAAAAAAAAAADQAMwAsAAAAKAAkACAAAAAAAAAAAAAAAAAAHAAAAAAAGgAAAAAAAAAUAAAAAAAAAAAAAAAAAAAAAAAAAAgAAAAAABsABwBeAAAAAAAAAUAAAABQAAAAbAAAAAIAAAAAAAEAAQAAAAAAQEEAAMBAAABAQAAAyEIAAAABIAAAAAIAAAACAAAAAAA2QwCASkTw/v//9P7///j+//8S////AAAAAAEAAAAEAAAAEQAAAEhHUFNvZWlLYWt1cG9wdGFpAAAAAQAAAAwAAAAIAAwABAAIAAgAAAAIAAAAUAAAAA8AAADvvIEAAAAAAAAAAAAAAAAAAAA2ACQAAAAgABwAAAAAABsAFAAAAAAAAAAAAAAAAAAAAAAAAAAAABAAAAAAAAAADAAAAAgABAA2AAAAAgAAABwAAAAcAAAAHAAAAAAAIEEAAAABaAAAAE3PAEOw////tP///wEAAAAUAAAAEAAaAAgABwAMAAAAEAAUABAAAAAAAAABHAAAAAAAoEEcAAAAAgAAAAAACgAIAAUABgAHAAoAAAAADAD//P///wQABAAEAAAACAAIAAYABwAIAAAAAAAMAA==</value>
					</parameter>
					<parameter authoringApp="PremierePro">
					<parameterid>2</parameterid>
					<name></name>
					<IsTimeVarying>false</IsTimeVarying>
					<ParameterControlType>11</ParameterControlType>
					<LowerBound>false</LowerBound>
					<UpperBound>false</UpperBound>
					<value>-91445760000000000,false,0,0,0,0,0,0</value>
					</parameter>
					<parameter authoringApp="PremierePro">
					<parameterid>3</parameterid>
					<name></name>
					<IsTimeVarying>false</IsTimeVarying>
					<value>-91445760000000000,0.5:0.5,0,0,0,0,0,0,5,4,0,0,0,0</value>
					</parameter>
					<parameter authoringApp="PremierePro">
					<parameterid>4</parameterid>
					<name></name>
					<IsTimeVarying>false</IsTimeVarying>
					<ParameterControlType>2</ParameterControlType>
					<LowerBound>0</LowerBound>
					<UpperBound>4000</UpperBound>
					<value>-91445760000000000,100.,0,0,0,0,0,0</value>
					</parameter>
					<parameter authoringApp="PremierePro">
					<parameterid>8</parameterid>
					<name></name>
					<IsTimeVarying>false</IsTimeVarying>
					<ParameterControlType>2</ParameterControlType>
					<LowerBound>0</LowerBound>
					<UpperBound>100</UpperBound>
					<value>-91445760000000000,100.,0,0,0,0,0,0</value>
					</parameter>
					</effect>
					</filter>
					<logginginfo>
					<description></description>
					<scene></scene>
					<shottake></shottake>
					<lognote></lognote>
					<good></good>
					<originalvideofilename></originalvideofilename>
					<originalaudiofilename></originalaudiofilename>
					</logginginfo>
					<colorinfo>
					<lut></lut>
					<lut1></lut1>
					<asc_sop></asc_sop>
					<asc_sat></asc_sat>
					<lut2></lut2>
					</colorinfo>
					<labels>
					</labels>
					</clipitem>
					<clipitem frameBlend="FALSE" id="clipitem-765">
					<masterclipid>masterclip-685</masterclipid>
					<name></name>
					<enabled>TRUE</enabled>
					<duration>2582774</duration>
					<rate>
					
					                                    <timebase>60</timebase>
					                                    <ntsc>TRUE</ntsc>
					                                
					</rate>
					<start>6802</start>
					<end>6868</end>
					<in>6802</in>
					<out>6868</out>
					<pproTicksIn>914456774963789</pproTicksIn>
					<pproTicksOut>914677708529577</pproTicksOut>
					<alphatype>straight</alphatype>
					<pixelaspectratio>square</pixelaspectratio>
					<anamorphic>FALSE</anamorphic>
					<file id="file-684">
					<name></name>
					<mediaSource>GraphicAndType</mediaSource>
					<rate>
					<timebase>60</timebase>
					<ntsc>TRUE</ntsc>
					</rate>
					<timecode>
					<rate>
					<timebase>60</timebase>
					<ntsc>TRUE</ntsc>
					</rate>
					<string>00:00:00:00</string>
					<frame>0</frame>
					<displayformat>NDF</displayformat>
					</timecode>
					<media>
					<video>
					<samplecharacteristics>
					<rate>
					<timebase>60</timebase>
					<ntsc>TRUE</ntsc>
					</rate>
					<width>1080</width>
					<height>1920</height>
					<anamorphic>FALSE</anamorphic>
					<pixelaspectratio>square</pixelaspectratio>
					<fielddominance>none</fielddominance>
					</samplecharacteristics>
					</video>
					</media>
					</file>
					<filter>
					<effect>
					<name></name>
					<effectid>GraphicAndType</effectid>
					<effectcategory>graphic</effectcategory>
					<effecttype>filter</effecttype>
					<mediatype>video</mediatype>
					<pproBypass>false</pproBypass>
					<parameter authoringApp="PremierePro">
					<parameterid>1</parameterid>
					<name></name>
					<hash>025b1101-ead6-0ca2-1feb-caf3000001fc</hash>
					<value>5AEAAAAAAABEMyIRDAAAAAAABgAKAAQABgAAAGQAAAAAAF4ASAAQAAwARABAADwAOAAAAAAAAAAAADQAMwAsAAAAKAAkACAAAAAAAAAAAAAAAAAAHAAAAAAAGgAAAAAAAAAUAAAAAAAAAAAAAAAAAAAAAAAAAAgAAAAAABsABwBeAAAAAAAAAUAAAABQAAAAbAAAAAIAAAAAAAEAAQAAAAAAQEEAAMBAAABAQAAAyEIAAAABIAAAAAIAAAACAAAAAAA2QwCASkTw/v//9P7///j+//8S////AAAAAAEAAAAEAAAAEQAAAEhHUFNvZWlLYWt1cG9wdGFpAAAAAQAAAAwAAAAIAAwABAAIAAgAAAAIAAAAUAAAAA8AAADvvIEAAAAAAAAAAAAAAAAAAAA2ACQAAAAgABwAAAAAABsAFAAAAAAAAAAAAAAAAAAAAAAAAAAAABAAAAAAAAAADAAAAAgABAA2AAAAAgAAABwAAAAcAAAAHAAAAAAAIEEAAAABaAAAAE3PAEOw////tP///wEAAAAUAAAAEAAaAAgABwAMAAAAEAAUABAAAAAAAAABHAAAAAAAoEEcAAAAAgAAAAAACgAIAAUABgAHAAoAAAAADAD//P///wQABAAEAAAACAAIAAYABwAIAAAAAAAMAA==</value>
					</parameter>
					<parameter authoringApp="PremierePro">
					<parameterid>2</parameterid>
					<name></name>
					<IsTimeVarying>false</IsTimeVarying>
					<ParameterControlType>11</ParameterControlType>
					<LowerBound>false</LowerBound>
					<UpperBound>false</UpperBound>
					<value>-91445760000000000,false,0,0,0,0,0,0</value>
					</parameter>
					<parameter authoringApp="PremierePro">
					<parameterid>3</parameterid>
					<name></name>
					<IsTimeVarying>false</IsTimeVarying>
					<value>-91445760000000000,0.5:0.5,0,0,0,0,0,0,5,4,0,0,0,0</value>
					</parameter>
					<parameter authoringApp="PremierePro">
					<parameterid>4</parameterid>
					<name></name>
					<IsTimeVarying>false</IsTimeVarying>
					<ParameterControlType>2</ParameterControlType>
					<LowerBound>0</LowerBound>
					<UpperBound>4000</UpperBound>
					<value>-91445760000000000,100.,0,0,0,0,0,0</value>
					</parameter>
					<parameter authoringApp="PremierePro">
					<parameterid>8</parameterid>
					<name></name>
					<IsTimeVarying>false</IsTimeVarying>
					<ParameterControlType>2</ParameterControlType>
					<LowerBound>0</LowerBound>
					<UpperBound>100</UpperBound>
					<value>-91445760000000000,100.,0,0,0,0,0,0</value>
					</parameter>
					</effect>
					</filter>
					<logginginfo>
					<description></description>
					<scene></scene>
					<shottake></shottake>
					<lognote></lognote>
					<good></good>
					<originalvideofilename></originalvideofilename>
					<originalaudiofilename></originalaudiofilename>
					</logginginfo>
					<colorinfo>
					<lut></lut>
					<lut1></lut1>
					<asc_sop></asc_sop>
					<asc_sat></asc_sat>
					<lut2></lut2>
					</colorinfo>
					<labels>
					</labels>
					</clipitem>
					<clipitem frameBlend="FALSE" id="clipitem-774">
					<masterclipid>masterclip-694</masterclipid>
					<name></name>
					<enabled>TRUE</enabled>
					<duration>2582774</duration>
					<rate>
					
					                                    <timebase>60</timebase>
					                                    <ntsc>TRUE</ntsc>
					                                
					</rate>
					<start>6916</start>
					<end>6976</end>
					<in>6916</in>
					<out>6976</out>
					<pproTicksIn>914456774963789</pproTicksIn>
					<pproTicksOut>914677708529577</pproTicksOut>
					<alphatype>straight</alphatype>
					<pixelaspectratio>square</pixelaspectratio>
					<anamorphic>FALSE</anamorphic>
					<file id="file-693">
					<name></name>
					<mediaSource>GraphicAndType</mediaSource>
					<rate>
					<timebase>60</timebase>
					<ntsc>TRUE</ntsc>
					</rate>
					<timecode>
					<rate>
					<timebase>60</timebase>
					<ntsc>TRUE</ntsc>
					</rate>
					<string>00:00:00:00</string>
					<frame>0</frame>
					<displayformat>NDF</displayformat>
					</timecode>
					<media>
					<video>
					<samplecharacteristics>
					<rate>
					<timebase>60</timebase>
					<ntsc>TRUE</ntsc>
					</rate>
					<width>1080</width>
					<height>1920</height>
					<anamorphic>FALSE</anamorphic>
					<pixelaspectratio>square</pixelaspectratio>
					<fielddominance>none</fielddominance>
					</samplecharacteristics>
					</video>
					</media>
					</file>
					<filter>
					<effect>
					<name></name>
					<effectid>GraphicAndType</effectid>
					<effectcategory>graphic</effectcategory>
					<effecttype>filter</effecttype>
					<mediatype>video</mediatype>
					<pproBypass>false</pproBypass>
					<parameter authoringApp="PremierePro">
					<parameterid>1</parameterid>
					<name></name>
					<hash>025b1101-ead6-0ca2-1feb-caf3000001fc</hash>
					<value>5AEAAAAAAABEMyIRDAAAAAAABgAKAAQABgAAAGQAAAAAAF4ASAAQAAwARABAADwAOAAAAAAAAAAAADQAMwAsAAAAKAAkACAAAAAAAAAAAAAAAAAAHAAAAAAAGgAAAAAAAAAUAAAAAAAAAAAAAAAAAAAAAAAAAAgAAAAAABsABwBeAAAAAAAAAUAAAABQAAAAbAAAAAIAAAAAAAEAAQAAAAAAQEEAAMBAAABAQAAAyEIAAAABIAAAAAIAAAACAAAAAAA2QwCASkTw/v//9P7///j+//8S////AAAAAAEAAAAEAAAAEQAAAEhHUFNvZWlLYWt1cG9wdGFpAAAAAQAAAAwAAAAIAAwABAAIAAgAAAAIAAAAUAAAAA8AAADvvIEAAAAAAAAAAAAAAAAAAAA2ACQAAAAgABwAAAAAABsAFAAAAAAAAAAAAAAAAAAAAAAAAAAAABAAAAAAAAAADAAAAAgABAA2AAAAAgAAABwAAAAcAAAAHAAAAAAAIEEAAAABaAAAAE3PAEOw////tP///wEAAAAUAAAAEAAaAAgABwAMAAAAEAAUABAAAAAAAAABHAAAAAAAoEEcAAAAAgAAAAAACgAIAAUABgAHAAoAAAAADAD//P///wQABAAEAAAACAAIAAYABwAIAAAAAAAMAA==</value>
					</parameter>
					<parameter authoringApp="PremierePro">
					<parameterid>2</parameterid>
					<name></name>
					<IsTimeVarying>false</IsTimeVarying>
					<ParameterControlType>11</ParameterControlType>
					<LowerBound>false</LowerBound>
					<UpperBound>false</UpperBound>
					<value>-91445760000000000,false,0,0,0,0,0,0</value>
					</parameter>
					<parameter authoringApp="PremierePro">
					<parameterid>3</parameterid>
					<name></name>
					<IsTimeVarying>false</IsTimeVarying>
					<value>-91445760000000000,0.5:0.5,0,0,0,0,0,0,5,4,0,0,0,0</value>
					</parameter>
					<parameter authoringApp="PremierePro">
					<parameterid>4</parameterid>
					<name></name>
					<IsTimeVarying>false</IsTimeVarying>
					<ParameterControlType>2</ParameterControlType>
					<LowerBound>0</LowerBound>
					<UpperBound>4000</UpperBound>
					<value>-91445760000000000,100.,0,0,0,0,0,0</value>
					</parameter>
					<parameter authoringApp="PremierePro">
					<parameterid>8</parameterid>
					<name></name>
					<IsTimeVarying>false</IsTimeVarying>
					<ParameterControlType>2</ParameterControlType>
					<LowerBound>0</LowerBound>
					<UpperBound>100</UpperBound>
					<value>-91445760000000000,100.,0,0,0,0,0,0</value>
					</parameter>
					</effect>
					</filter>
					<logginginfo>
					<description></description>
					<scene></scene>
					<shottake></shottake>
					<lognote></lognote>
					<good></good>
					<originalvideofilename></originalvideofilename>
					<originalaudiofilename></originalaudiofilename>
					</logginginfo>
					<colorinfo>
					<lut></lut>
					<lut1></lut1>
					<asc_sop></asc_sop>
					<asc_sat></asc_sat>
					<lut2></lut2>
					</colorinfo>
					<labels>
					</labels>
					</clipitem>
					<clipitem frameBlend="FALSE" id="clipitem-783">
					<masterclipid>masterclip-703</masterclipid>
					<name></name>
					<enabled>TRUE</enabled>
					<duration>2582774</duration>
					<rate>
					
					                                    <timebase>60</timebase>
					                                    <ntsc>TRUE</ntsc>
					                                
					</rate>
					<start>6988</start>
					<end>7048</end>
					<in>6988</in>
					<out>7048</out>
					<pproTicksIn>914456774963789</pproTicksIn>
					<pproTicksOut>914677708529577</pproTicksOut>
					<alphatype>straight</alphatype>
					<pixelaspectratio>square</pixelaspectratio>
					<anamorphic>FALSE</anamorphic>
					<file id="file-702">
					<name></name>
					<mediaSource>GraphicAndType</mediaSource>
					<rate>
					<timebase>60</timebase>
					<ntsc>TRUE</ntsc>
					</rate>
					<timecode>
					<rate>
					<timebase>60</timebase>
					<ntsc>TRUE</ntsc>
					</rate>
					<string>00:00:00:00</string>
					<frame>0</frame>
					<displayformat>NDF</displayformat>
					</timecode>
					<media>
					<video>
					<samplecharacteristics>
					<rate>
					<timebase>60</timebase>
					<ntsc>TRUE</ntsc>
					</rate>
					<width>1080</width>
					<height>1920</height>
					<anamorphic>FALSE</anamorphic>
					<pixelaspectratio>square</pixelaspectratio>
					<fielddominance>none</fielddominance>
					</samplecharacteristics>
					</video>
					</media>
					</file>
					<filter>
					<effect>
					<name></name>
					<effectid>GraphicAndType</effectid>
					<effectcategory>graphic</effectcategory>
					<effecttype>filter</effecttype>
					<mediatype>video</mediatype>
					<pproBypass>false</pproBypass>
					<parameter authoringApp="PremierePro">
					<parameterid>1</parameterid>
					<name></name>
					<hash>025b1101-ead6-0ca2-1feb-caf3000001fc</hash>
					<value>5AEAAAAAAABEMyIRDAAAAAAABgAKAAQABgAAAGQAAAAAAF4ASAAQAAwARABAADwAOAAAAAAAAAAAADQAMwAsAAAAKAAkACAAAAAAAAAAAAAAAAAAHAAAAAAAGgAAAAAAAAAUAAAAAAAAAAAAAAAAAAAAAAAAAAgAAAAAABsABwBeAAAAAAAAAUAAAABQAAAAbAAAAAIAAAAAAAEAAQAAAAAAQEEAAMBAAABAQAAAyEIAAAABIAAAAAIAAAACAAAAAAA2QwCASkTw/v//9P7///j+//8S////AAAAAAEAAAAEAAAAEQAAAEhHUFNvZWlLYWt1cG9wdGFpAAAAAQAAAAwAAAAIAAwABAAIAAgAAAAIAAAAUAAAAA8AAADvvIEAAAAAAAAAAAAAAAAAAAA2ACQAAAAgABwAAAAAABsAFAAAAAAAAAAAAAAAAAAAAAAAAAAAABAAAAAAAAAADAAAAAgABAA2AAAAAgAAABwAAAAcAAAAHAAAAAAAIEEAAAABaAAAAE3PAEOw////tP///wEAAAAUAAAAEAAaAAgABwAMAAAAEAAUABAAAAAAAAABHAAAAAAAoEEcAAAAAgAAAAAACgAIAAUABgAHAAoAAAAADAD//P///wQABAAEAAAACAAIAAYABwAIAAAAAAAMAA==</value>
					</parameter>
					<parameter authoringApp="PremierePro">
					<parameterid>2</parameterid>
					<name></name>
					<IsTimeVarying>false</IsTimeVarying>
					<ParameterControlType>11</ParameterControlType>
					<LowerBound>false</LowerBound>
					<UpperBound>false</UpperBound>
					<value>-91445760000000000,false,0,0,0,0,0,0</value>
					</parameter>
					<parameter authoringApp="PremierePro">
					<parameterid>3</parameterid>
					<name></name>
					<IsTimeVarying>false</IsTimeVarying>
					<value>-91445760000000000,0.5:0.5,0,0,0,0,0,0,5,4,0,0,0,0</value>
					</parameter>
					<parameter authoringApp="PremierePro">
					<parameterid>4</parameterid>
					<name></name>
					<IsTimeVarying>false</IsTimeVarying>
					<ParameterControlType>2</ParameterControlType>
					<LowerBound>0</LowerBound>
					<UpperBound>4000</UpperBound>
					<value>-91445760000000000,100.,0,0,0,0,0,0</value>
					</parameter>
					<parameter authoringApp="PremierePro">
					<parameterid>8</parameterid>
					<name></name>
					<IsTimeVarying>false</IsTimeVarying>
					<ParameterControlType>2</ParameterControlType>
					<LowerBound>0</LowerBound>
					<UpperBound>100</UpperBound>
					<value>-91445760000000000,100.,0,0,0,0,0,0</value>
					</parameter>
					</effect>
					</filter>
					<logginginfo>
					<description></description>
					<scene></scene>
					<shottake></shottake>
					<lognote></lognote>
					<good></good>
					<originalvideofilename></originalvideofilename>
					<originalaudiofilename></originalaudiofilename>
					</logginginfo>
					<colorinfo>
					<lut></lut>
					<lut1></lut1>
					<asc_sop></asc_sop>
					<asc_sat></asc_sat>
					<lut2></lut2>
					</colorinfo>
					<labels>
					</labels>
					</clipitem>
					<enabled>TRUE</enabled>
					<locked>FALSE</locked>
				</track>
				<track TL.SQTrackShy="0" TL.SQTrackExpandedHeight="25" TL.SQTrackExpanded="0" MZ.TrackTargeted="0">
					<clipitem id="clipitem-125"/>
					                        </track>
					                        <track TL.SQTrackShy="0" TL.SQTrackExpandedHeight="25" TL.SQTrackExpanded="0" MZ.TrackTargeted="0">
					<clipitem frameBlend="FALSE" id="clipitem-126">
					<masterclipid>masterclip-46</masterclipid>
					<name></name>
					<enabled>TRUE</enabled>
					<duration>2582774</duration>
					<rate>
					
					                                    <timebase>60</timebase>
					                                    <ntsc>TRUE</ntsc>
					                                
					</rate>
					<start>107</start>
					<end>167</end>
					<in>107</in>
					<out>167</out>
					<pproTicksIn>914456774963789</pproTicksIn>
					<pproTicksOut>914677708529577</pproTicksOut>
					<alphatype>straight</alphatype>
					<pixelaspectratio>square</pixelaspectratio>
					<anamorphic>FALSE</anamorphic>
					<file id="file-45">
					<name></name>
					<mediaSource>GraphicAndType</mediaSource>
					<rate>
					<timebase>60</timebase>
					<ntsc>TRUE</ntsc>
					</rate>
					<timecode>
					<rate>
					<timebase>60</timebase>
					<ntsc>TRUE</ntsc>
					</rate>
					<string>00:00:00:00</string>
					<frame>0</frame>
					<displayformat>NDF</displayformat>
					</timecode>
					<media>
					<video>
					<samplecharacteristics>
					<rate>
					<timebase>60</timebase>
					<ntsc>TRUE</ntsc>
					</rate>
					<width>1080</width>
					<height>1920</height>
					<anamorphic>FALSE</anamorphic>
					<pixelaspectratio>square</pixelaspectratio>
					<fielddominance>none</fielddominance>
					</samplecharacteristics>
					</video>
					</media>
					</file>
					<filter>
					<effect>
					<name></name>
					<effectid>GraphicAndType</effectid>
					<effectcategory>graphic</effectcategory>
					<effecttype>filter</effecttype>
					<mediatype>video</mediatype>
					<pproBypass>false</pproBypass>
					<parameter authoringApp="PremierePro">
					<parameterid>1</parameterid>
					<name></name>
					<hash>025b1101-ead6-0ca2-1feb-caf3000001fc</hash>
					<value>5AEAAAAAAABEMyIRDAAAAAAABgAKAAQABgAAAGQAAAAAAF4ASAAQAAwARABAADwAOAAAAAAAAAAAADQAMwAsAAAAKAAkACAAAAAAAAAAAAAAAAAAHAAAAAAAGgAAAAAAAAAUAAAAAAAAAAAAAAAAAAAAAAAAAAgAAAAAABsABwBeAAAAAAAAAUAAAABQAAAAbAAAAAIAAAAAAAEAAQAAAAAAQEEAAMBAAABAQAAAyEIAAAABIAAAAAIAAAACAAAAAAA2QwCASkTw/v//9P7///j+//8S////AAAAAAEAAAAEAAAAEQAAAEhHUFNvZWlLYWt1cG9wdGFpAAAAAQAAAAwAAAAIAAwABAAIAAgAAAAIAAAAUAAAAA8AAADvvIEAAAAAAAAAAAAAAAAAAAA2ACQAAAAgABwAAAAAABsAFAAAAAAAAAAAAAAAAAAAAAAAAAAAABAAAAAAAAAADAAAAAgABAA2AAAAAgAAABwAAAAcAAAAHAAAAAAAIEEAAAABaAAAAE3PAEOw////tP///wEAAAAUAAAAEAAaAAgABwAMAAAAEAAUABAAAAAAAAABHAAAAAAAoEEcAAAAAgAAAAAACgAIAAUABgAHAAoAAAAADAD//P///wQABAAEAAAACAAIAAYABwAIAAAAAAAMAA==</value>
					</parameter>
					<parameter authoringApp="PremierePro">
					<parameterid>2</parameterid>
					<name></name>
					<IsTimeVarying>false</IsTimeVarying>
					<ParameterControlType>11</ParameterControlType>
					<LowerBound>false</LowerBound>
					<UpperBound>false</UpperBound>
					<value>-91445760000000000,false,0,0,0,0,0,0</value>
					</parameter>
					<parameter authoringApp="PremierePro">
					<parameterid>3</parameterid>
					<name></name>
					<IsTimeVarying>false</IsTimeVarying>
					<value>-91445760000000000,0.5:0.5,0,0,0,0,0,0,5,4,0,0,0,0</value>
					</parameter>
					<parameter authoringApp="PremierePro">
					<parameterid>4</parameterid>
					<name></name>
					<IsTimeVarying>false</IsTimeVarying>
					<ParameterControlType>2</ParameterControlType>
					<LowerBound>0</LowerBound>
					<UpperBound>4000</UpperBound>
					<value>-91445760000000000,100.,0,0,0,0,0,0</value>
					</parameter>
					<parameter authoringApp="PremierePro">
					<parameterid>8</parameterid>
					<name></name>
					<IsTimeVarying>false</IsTimeVarying>
					<ParameterControlType>2</ParameterControlType>
					<LowerBound>0</LowerBound>
					<UpperBound>100</UpperBound>
					<value>-91445760000000000,100.,0,0,0,0,0,0</value>
					</parameter>
					</effect>
					</filter>
					<logginginfo>
					<description></description>
					<scene></scene>
					<shottake></shottake>
					<lognote></lognote>
					<good></good>
					<originalvideofilename></originalvideofilename>
					<originalaudiofilename></originalaudiofilename>
					</logginginfo>
					<colorinfo>
					<lut></lut>
					<lut1></lut1>
					<asc_sop></asc_sop>
					<asc_sat></asc_sat>
					<lut2></lut2>
					</colorinfo>
					<labels>
					</labels>
					</clipitem>
					<clipitem frameBlend="FALSE" id="clipitem-140">
					<masterclipid>masterclip-60</masterclipid>
					<name></name>
					<enabled>TRUE</enabled>
					<duration>2582774</duration>
					<rate>
					
					                                    <timebase>60</timebase>
					                                    <ntsc>TRUE</ntsc>
					                                
					</rate>
					<start>263</start>
					<end>323</end>
					<in>263</in>
					<out>323</out>
					<pproTicksIn>914456774963789</pproTicksIn>
					<pproTicksOut>914677708529577</pproTicksOut>
					<alphatype>straight</alphatype>
					<pixelaspectratio>square</pixelaspectratio>
					<anamorphic>FALSE</anamorphic>
					<file id="file-59">
					<name></name>
					<mediaSource>GraphicAndType</mediaSource>
					<rate>
					<timebase>60</timebase>
					<ntsc>TRUE</ntsc>
					</rate>
					<timecode>
					<rate>
					<timebase>60</timebase>
					<ntsc>TRUE</ntsc>
					</rate>
					<string>00:00:00:00</string>
					<frame>0</frame>
					<displayformat>NDF</displayformat>
					</timecode>
					<media>
					<video>
					<samplecharacteristics>
					<rate>
					<timebase>60</timebase>
					<ntsc>TRUE</ntsc>
					</rate>
					<width>1080</width>
					<height>1920</height>
					<anamorphic>FALSE</anamorphic>
					<pixelaspectratio>square</pixelaspectratio>
					<fielddominance>none</fielddominance>
					</samplecharacteristics>
					</video>
					</media>
					</file>
					<filter>
					<effect>
					<name></name>
					<effectid>GraphicAndType</effectid>
					<effectcategory>graphic</effectcategory>
					<effecttype>filter</effecttype>
					<mediatype>video</mediatype>
					<pproBypass>false</pproBypass>
					<parameter authoringApp="PremierePro">
					<parameterid>1</parameterid>
					<name></name>
					<hash>025b1101-ead6-0ca2-1feb-caf3000001fc</hash>
					<value>5AEAAAAAAABEMyIRDAAAAAAABgAKAAQABgAAAGQAAAAAAF4ASAAQAAwARABAADwAOAAAAAAAAAAAADQAMwAsAAAAKAAkACAAAAAAAAAAAAAAAAAAHAAAAAAAGgAAAAAAAAAUAAAAAAAAAAAAAAAAAAAAAAAAAAgAAAAAABsABwBeAAAAAAAAAUAAAABQAAAAbAAAAAIAAAAAAAEAAQAAAAAAQEEAAMBAAABAQAAAyEIAAAABIAAAAAIAAAACAAAAAAA2QwCASkTw/v//9P7///j+//8S////AAAAAAEAAAAEAAAAEQAAAEhHUFNvZWlLYWt1cG9wdGFpAAAAAQAAAAwAAAAIAAwABAAIAAgAAAAIAAAAUAAAAA8AAADvvIEAAAAAAAAAAAAAAAAAAAA2ACQAAAAgABwAAAAAABsAFAAAAAAAAAAAAAAAAAAAAAAAAAAAABAAAAAAAAAADAAAAAgABAA2AAAAAgAAABwAAAAcAAAAHAAAAAAAIEEAAAABaAAAAE3PAEOw////tP///wEAAAAUAAAAEAAaAAgABwAMAAAAEAAUABAAAAAAAAABHAAAAAAAoEEcAAAAAgAAAAAACgAIAAUABgAHAAoAAAAADAD//P///wQABAAEAAAACAAIAAYABwAIAAAAAAAMAA==</value>
					</parameter>
					<parameter authoringApp="PremierePro">
					<parameterid>2</parameterid>
					<name></name>
					<IsTimeVarying>false</IsTimeVarying>
					<ParameterControlType>11</ParameterControlType>
					<LowerBound>false</LowerBound>
					<UpperBound>false</UpperBound>
					<value>-91445760000000000,false,0,0,0,0,0,0</value>
					</parameter>
					<parameter authoringApp="PremierePro">
					<parameterid>3</parameterid>
					<name></name>
					<IsTimeVarying>false</IsTimeVarying>
					<value>-91445760000000000,0.5:0.5,0,0,0,0,0,0,5,4,0,0,0,0</value>
					</parameter>
					<parameter authoringApp="PremierePro">
					<parameterid>4</parameterid>
					<name></name>
					<IsTimeVarying>false</IsTimeVarying>
					<ParameterControlType>2</ParameterControlType>
					<LowerBound>0</LowerBound>
					<UpperBound>4000</UpperBound>
					<value>-91445760000000000,100.,0,0,0,0,0,0</value>
					</parameter>
					<parameter authoringApp="PremierePro">
					<parameterid>8</parameterid>
					<name></name>
					<IsTimeVarying>false</IsTimeVarying>
					<ParameterControlType>2</ParameterControlType>
					<LowerBound>0</LowerBound>
					<UpperBound>100</UpperBound>
					<value>-91445760000000000,100.,0,0,0,0,0,0</value>
					</parameter>
					</effect>
					</filter>
					<logginginfo>
					<description></description>
					<scene></scene>
					<shottake></shottake>
					<lognote></lognote>
					<good></good>
					<originalvideofilename></originalvideofilename>
					<originalaudiofilename></originalaudiofilename>
					</logginginfo>
					<colorinfo>
					<lut></lut>
					<lut1></lut1>
					<asc_sop></asc_sop>
					<asc_sat></asc_sat>
					<lut2></lut2>
					</colorinfo>
					<labels>
					</labels>
					</clipitem>
					<clipitem frameBlend="FALSE" id="clipitem-164">
					<masterclipid>masterclip-84</masterclipid>
					<name></name>
					<enabled>TRUE</enabled>
					<duration>2582774</duration>
					<rate>
					
					                                    <timebase>60</timebase>
					                                    <ntsc>TRUE</ntsc>
					                                
					</rate>
					<start>515</start>
					<end>575</end>
					<in>515</in>
					<out>575</out>
					<pproTicksIn>914456774963789</pproTicksIn>
					<pproTicksOut>914677708529577</pproTicksOut>
					<alphatype>straight</alphatype>
					<pixelaspectratio>square</pixelaspectratio>
					<anamorphic>FALSE</anamorphic>
					<file id="file-83">
					<name></name>
					<mediaSource>GraphicAndType</mediaSource>
					<rate>
					<timebase>60</timebase>
					<ntsc>TRUE</ntsc>
					</rate>
					<timecode>
					<rate>
					<timebase>60</timebase>
					<ntsc>TRUE</ntsc>
					</rate>
					<string>00:00:00:00</string>
					<frame>0</frame>
					<displayformat>NDF</displayformat>
					</timecode>
					<media>
					<video>
					<samplecharacteristics>
					<rate>
					<timebase>60</timebase>
					<ntsc>TRUE</ntsc>
					</rate>
					<width>1080</width>
					<height>1920</height>
					<anamorphic>FALSE</anamorphic>
					<pixelaspectratio>square</pixelaspectratio>
					<fielddominance>none</fielddominance>
					</samplecharacteristics>
					</video>
					</media>
					</file>
					<filter>
					<effect>
					<name></name>
					<effectid>GraphicAndType</effectid>
					<effectcategory>graphic</effectcategory>
					<effecttype>filter</effecttype>
					<mediatype>video</mediatype>
					<pproBypass>false</pproBypass>
					<parameter authoringApp="PremierePro">
					<parameterid>1</parameterid>
					<name></name>
					<hash>025b1101-ead6-0ca2-1feb-caf3000001fc</hash>
					<value>5AEAAAAAAABEMyIRDAAAAAAABgAKAAQABgAAAGQAAAAAAF4ASAAQAAwARABAADwAOAAAAAAAAAAAADQAMwAsAAAAKAAkACAAAAAAAAAAAAAAAAAAHAAAAAAAGgAAAAAAAAAUAAAAAAAAAAAAAAAAAAAAAAAAAAgAAAAAABsABwBeAAAAAAAAAUAAAABQAAAAbAAAAAIAAAAAAAEAAQAAAAAAQEEAAMBAAABAQAAAyEIAAAABIAAAAAIAAAACAAAAAAA2QwCASkTw/v//9P7///j+//8S////AAAAAAEAAAAEAAAAEQAAAEhHUFNvZWlLYWt1cG9wdGFpAAAAAQAAAAwAAAAIAAwABAAIAAgAAAAIAAAAUAAAAA8AAADvvIEAAAAAAAAAAAAAAAAAAAA2ACQAAAAgABwAAAAAABsAFAAAAAAAAAAAAAAAAAAAAAAAAAAAABAAAAAAAAAADAAAAAgABAA2AAAAAgAAABwAAAAcAAAAHAAAAAAAIEEAAAABaAAAAE3PAEOw////tP///wEAAAAUAAAAEAAaAAgABwAMAAAAEAAUABAAAAAAAAABHAAAAAAAoEEcAAAAAgAAAAAACgAIAAUABgAHAAoAAAAADAD//P///wQABAAEAAAACAAIAAYABwAIAAAAAAAMAA==</value>
					</parameter>
					<parameter authoringApp="PremierePro">
					<parameterid>2</parameterid>
					<name></name>
					<IsTimeVarying>false</IsTimeVarying>
					<ParameterControlType>11</ParameterControlType>
					<LowerBound>false</LowerBound>
					<UpperBound>false</UpperBound>
					<value>-91445760000000000,false,0,0,0,0,0,0</value>
					</parameter>
					<parameter authoringApp="PremierePro">
					<parameterid>3</parameterid>
					<name></name>
					<IsTimeVarying>false</IsTimeVarying>
					<value>-91445760000000000,0.5:0.5,0,0,0,0,0,0,5,4,0,0,0,0</value>
					</parameter>
					<parameter authoringApp="PremierePro">
					<parameterid>4</parameterid>
					<name></name>
					<IsTimeVarying>false</IsTimeVarying>
					<ParameterControlType>2</ParameterControlType>
					<LowerBound>0</LowerBound>
					<UpperBound>4000</UpperBound>
					<value>-91445760000000000,100.,0,0,0,0,0,0</value>
					</parameter>
					<parameter authoringApp="PremierePro">
					<parameterid>8</parameterid>
					<name></name>
					<IsTimeVarying>false</IsTimeVarying>
					<ParameterControlType>2</ParameterControlType>
					<LowerBound>0</LowerBound>
					<UpperBound>100</UpperBound>
					<value>-91445760000000000,100.,0,0,0,0,0,0</value>
					</parameter>
					</effect>
					</filter>
					<logginginfo>
					<description></description>
					<scene></scene>
					<shottake></shottake>
					<lognote></lognote>
					<good></good>
					<originalvideofilename></originalvideofilename>
					<originalaudiofilename></originalaudiofilename>
					</logginginfo>
					<colorinfo>
					<lut></lut>
					<lut1></lut1>
					<asc_sop></asc_sop>
					<asc_sat></asc_sat>
					<lut2></lut2>
					</colorinfo>
					<labels>
					</labels>
					</clipitem>
					<clipitem frameBlend="FALSE" id="clipitem-172">
					<masterclipid>masterclip-92</masterclipid>
					<name></name>
					<enabled>TRUE</enabled>
					<duration>2582774</duration>
					<rate>
					
					                                    <timebase>60</timebase>
					                                    <ntsc>TRUE</ntsc>
					                                
					</rate>
					<start>587</start>
					<end>647</end>
					<in>587</in>
					<out>647</out>
					<pproTicksIn>914456774963789</pproTicksIn>
					<pproTicksOut>914677708529577</pproTicksOut>
					<alphatype>straight</alphatype>
					<pixelaspectratio>square</pixelaspectratio>
					<anamorphic>FALSE</anamorphic>
					<file id="file-91">
					<name></name>
					<mediaSource>GraphicAndType</mediaSource>
					<rate>
					<timebase>60</timebase>
					<ntsc>TRUE</ntsc>
					</rate>
					<timecode>
					<rate>
					<timebase>60</timebase>
					<ntsc>TRUE</ntsc>
					</rate>
					<string>00:00:00:00</string>
					<frame>0</frame>
					<displayformat>NDF</displayformat>
					</timecode>
					<media>
					<video>
					<samplecharacteristics>
					<rate>
					<timebase>60</timebase>
					<ntsc>TRUE</ntsc>
					</rate>
					<width>1080</width>
					<height>1920</height>
					<anamorphic>FALSE</anamorphic>
					<pixelaspectratio>square</pixelaspectratio>
					<fielddominance>none</fielddominance>
					</samplecharacteristics>
					</video>
					</media>
					</file>
					<filter>
					<effect>
					<name></name>
					<effectid>GraphicAndType</effectid>
					<effectcategory>graphic</effectcategory>
					<effecttype>filter</effecttype>
					<mediatype>video</mediatype>
					<pproBypass>false</pproBypass>
					<parameter authoringApp="PremierePro">
					<parameterid>1</parameterid>
					<name></name>
					<hash>025b1101-ead6-0ca2-1feb-caf3000001fc</hash>
					<value>5AEAAAAAAABEMyIRDAAAAAAABgAKAAQABgAAAGQAAAAAAF4ASAAQAAwARABAADwAOAAAAAAAAAAAADQAMwAsAAAAKAAkACAAAAAAAAAAAAAAAAAAHAAAAAAAGgAAAAAAAAAUAAAAAAAAAAAAAAAAAAAAAAAAAAgAAAAAABsABwBeAAAAAAAAAUAAAABQAAAAbAAAAAIAAAAAAAEAAQAAAAAAQEEAAMBAAABAQAAAyEIAAAABIAAAAAIAAAACAAAAAAA2QwCASkTw/v//9P7///j+//8S////AAAAAAEAAAAEAAAAEQAAAEhHUFNvZWlLYWt1cG9wdGFpAAAAAQAAAAwAAAAIAAwABAAIAAgAAAAIAAAAUAAAAA8AAADvvIEAAAAAAAAAAAAAAAAAAAA2ACQAAAAgABwAAAAAABsAFAAAAAAAAAAAAAAAAAAAAAAAAAAAABAAAAAAAAAADAAAAAgABAA2AAAAAgAAABwAAAAcAAAAHAAAAAAAIEEAAAABaAAAAE3PAEOw////tP///wEAAAAUAAAAEAAaAAgABwAMAAAAEAAUABAAAAAAAAABHAAAAAAAoEEcAAAAAgAAAAAACgAIAAUABgAHAAoAAAAADAD//P///wQABAAEAAAACAAIAAYABwAIAAAAAAAMAA==</value>
					</parameter>
					<parameter authoringApp="PremierePro">
					<parameterid>2</parameterid>
					<name></name>
					<IsTimeVarying>false</IsTimeVarying>
					<ParameterControlType>11</ParameterControlType>
					<LowerBound>false</LowerBound>
					<UpperBound>false</UpperBound>
					<value>-91445760000000000,false,0,0,0,0,0,0</value>
					</parameter>
					<parameter authoringApp="PremierePro">
					<parameterid>3</parameterid>
					<name></name>
					<IsTimeVarying>false</IsTimeVarying>
					<value>-91445760000000000,0.5:0.5,0,0,0,0,0,0,5,4,0,0,0,0</value>
					</parameter>
					<parameter authoringApp="PremierePro">
					<parameterid>4</parameterid>
					<name></name>
					<IsTimeVarying>false</IsTimeVarying>
					<ParameterControlType>2</ParameterControlType>
					<LowerBound>0</LowerBound>
					<UpperBound>4000</UpperBound>
					<value>-91445760000000000,100.,0,0,0,0,0,0</value>
					</parameter>
					<parameter authoringApp="PremierePro">
					<parameterid>8</parameterid>
					<name></name>
					<IsTimeVarying>false</IsTimeVarying>
					<ParameterControlType>2</ParameterControlType>
					<LowerBound>0</LowerBound>
					<UpperBound>100</UpperBound>
					<value>-91445760000000000,100.,0,0,0,0,0,0</value>
					</parameter>
					</effect>
					</filter>
					<logginginfo>
					<description></description>
					<scene></scene>
					<shottake></shottake>
					<lognote></lognote>
					<good></good>
					<originalvideofilename></originalvideofilename>
					<originalaudiofilename></originalaudiofilename>
					</logginginfo>
					<colorinfo>
					<lut></lut>
					<lut1></lut1>
					<asc_sop></asc_sop>
					<asc_sat></asc_sat>
					<lut2></lut2>
					</colorinfo>
					<labels>
					</labels>
					</clipitem>
					<clipitem frameBlend="FALSE" id="clipitem-181">
					<masterclipid>masterclip-101</masterclipid>
					<name></name>
					<enabled>TRUE</enabled>
					<duration>2582774</duration>
					<rate>
					
					                                    <timebase>60</timebase>
					                                    <ntsc>TRUE</ntsc>
					                                
					</rate>
					<start>647</start>
					<end>707</end>
					<in>647</in>
					<out>707</out>
					<pproTicksIn>914456774963789</pproTicksIn>
					<pproTicksOut>914677708529577</pproTicksOut>
					<alphatype>straight</alphatype>
					<pixelaspectratio>square</pixelaspectratio>
					<anamorphic>FALSE</anamorphic>
					<file id="file-100">
					<name></name>
					<mediaSource>GraphicAndType</mediaSource>
					<rate>
					<timebase>60</timebase>
					<ntsc>TRUE</ntsc>
					</rate>
					<timecode>
					<rate>
					<timebase>60</timebase>
					<ntsc>TRUE</ntsc>
					</rate>
					<string>00:00:00:00</string>
					<frame>0</frame>
					<displayformat>NDF</displayformat>
					</timecode>
					<media>
					<video>
					<samplecharacteristics>
					<rate>
					<timebase>60</timebase>
					<ntsc>TRUE</ntsc>
					</rate>
					<width>1080</width>
					<height>1920</height>
					<anamorphic>FALSE</anamorphic>
					<pixelaspectratio>square</pixelaspectratio>
					<fielddominance>none</fielddominance>
					</samplecharacteristics>
					</video>
					</media>
					</file>
					<filter>
					<effect>
					<name></name>
					<effectid>GraphicAndType</effectid>
					<effectcategory>graphic</effectcategory>
					<effecttype>filter</effecttype>
					<mediatype>video</mediatype>
					<pproBypass>false</pproBypass>
					<parameter authoringApp="PremierePro">
					<parameterid>1</parameterid>
					<name></name>
					<hash>025b1101-ead6-0ca2-1feb-caf3000001fc</hash>
					<value>5AEAAAAAAABEMyIRDAAAAAAABgAKAAQABgAAAGQAAAAAAF4ASAAQAAwARABAADwAOAAAAAAAAAAAADQAMwAsAAAAKAAkACAAAAAAAAAAAAAAAAAAHAAAAAAAGgAAAAAAAAAUAAAAAAAAAAAAAAAAAAAAAAAAAAgAAAAAABsABwBeAAAAAAAAAUAAAABQAAAAbAAAAAIAAAAAAAEAAQAAAAAAQEEAAMBAAABAQAAAyEIAAAABIAAAAAIAAAACAAAAAAA2QwCASkTw/v//9P7///j+//8S////AAAAAAEAAAAEAAAAEQAAAEhHUFNvZWlLYWt1cG9wdGFpAAAAAQAAAAwAAAAIAAwABAAIAAgAAAAIAAAAUAAAAA8AAADvvIEAAAAAAAAAAAAAAAAAAAA2ACQAAAAgABwAAAAAABsAFAAAAAAAAAAAAAAAAAAAAAAAAAAAABAAAAAAAAAADAAAAAgABAA2AAAAAgAAABwAAAAcAAAAHAAAAAAAIEEAAAABaAAAAE3PAEOw////tP///wEAAAAUAAAAEAAaAAgABwAMAAAAEAAUABAAAAAAAAABHAAAAAAAoEEcAAAAAgAAAAAACgAIAAUABgAHAAoAAAAADAD//P///wQABAAEAAAACAAIAAYABwAIAAAAAAAMAA==</value>
					</parameter>
					<parameter authoringApp="PremierePro">
					<parameterid>2</parameterid>
					<name></name>
					<IsTimeVarying>false</IsTimeVarying>
					<ParameterControlType>11</ParameterControlType>
					<LowerBound>false</LowerBound>
					<UpperBound>false</UpperBound>
					<value>-91445760000000000,false,0,0,0,0,0,0</value>
					</parameter>
					<parameter authoringApp="PremierePro">
					<parameterid>3</parameterid>
					<name></name>
					<IsTimeVarying>false</IsTimeVarying>
					<value>-91445760000000000,0.5:0.5,0,0,0,0,0,0,5,4,0,0,0,0</value>
					</parameter>
					<parameter authoringApp="PremierePro">
					<parameterid>4</parameterid>
					<name></name>
					<IsTimeVarying>false</IsTimeVarying>
					<ParameterControlType>2</ParameterControlType>
					<LowerBound>0</LowerBound>
					<UpperBound>4000</UpperBound>
					<value>-91445760000000000,100.,0,0,0,0,0,0</value>
					</parameter>
					<parameter authoringApp="PremierePro">
					<parameterid>8</parameterid>
					<name></name>
					<IsTimeVarying>false</IsTimeVarying>
					<ParameterControlType>2</ParameterControlType>
					<LowerBound>0</LowerBound>
					<UpperBound>100</UpperBound>
					<value>-91445760000000000,100.,0,0,0,0,0,0</value>
					</parameter>
					</effect>
					</filter>
					<logginginfo>
					<description></description>
					<scene></scene>
					<shottake></shottake>
					<lognote></lognote>
					<good></good>
					<originalvideofilename></originalvideofilename>
					<originalaudiofilename></originalaudiofilename>
					</logginginfo>
					<colorinfo>
					<lut></lut>
					<lut1></lut1>
					<asc_sop></asc_sop>
					<asc_sat></asc_sat>
					<lut2></lut2>
					</colorinfo>
					<labels>
					</labels>
					</clipitem>
					<clipitem frameBlend="FALSE" id="clipitem-190">
					<masterclipid>masterclip-110</masterclipid>
					<name></name>
					<enabled>TRUE</enabled>
					<duration>2582774</duration>
					<rate>
					
					                                    <timebase>60</timebase>
					                                    <ntsc>TRUE</ntsc>
					                                
					</rate>
					<start>719</start>
					<end>779</end>
					<in>719</in>
					<out>779</out>
					<pproTicksIn>914456774963789</pproTicksIn>
					<pproTicksOut>914677708529577</pproTicksOut>
					<alphatype>straight</alphatype>
					<pixelaspectratio>square</pixelaspectratio>
					<anamorphic>FALSE</anamorphic>
					<file id="file-109">
					<name></name>
					<mediaSource>GraphicAndType</mediaSource>
					<rate>
					<timebase>60</timebase>
					<ntsc>TRUE</ntsc>
					</rate>
					<timecode>
					<rate>
					<timebase>60</timebase>
					<ntsc>TRUE</ntsc>
					</rate>
					<string>00:00:00:00</string>
					<frame>0</frame>
					<displayformat>NDF</displayformat>
					</timecode>
					<media>
					<video>
					<samplecharacteristics>
					<rate>
					<timebase>60</timebase>
					<ntsc>TRUE</ntsc>
					</rate>
					<width>1080</width>
					<height>1920</height>
					<anamorphic>FALSE</anamorphic>
					<pixelaspectratio>square</pixelaspectratio>
					<fielddominance>none</fielddominance>
					</samplecharacteristics>
					</video>
					</media>
					</file>
					<filter>
					<effect>
					<name></name>
					<effectid>GraphicAndType</effectid>
					<effectcategory>graphic</effectcategory>
					<effecttype>filter</effecttype>
					<mediatype>video</mediatype>
					<pproBypass>false</pproBypass>
					<parameter authoringApp="PremierePro">
					<parameterid>1</parameterid>
					<name></name>
					<hash>025b1101-ead6-0ca2-1feb-caf3000001fc</hash>
					<value>5AEAAAAAAABEMyIRDAAAAAAABgAKAAQABgAAAGQAAAAAAF4ASAAQAAwARABAADwAOAAAAAAAAAAAADQAMwAsAAAAKAAkACAAAAAAAAAAAAAAAAAAHAAAAAAAGgAAAAAAAAAUAAAAAAAAAAAAAAAAAAAAAAAAAAgAAAAAABsABwBeAAAAAAAAAUAAAABQAAAAbAAAAAIAAAAAAAEAAQAAAAAAQEEAAMBAAABAQAAAyEIAAAABIAAAAAIAAAACAAAAAAA2QwCASkTw/v//9P7///j+//8S////AAAAAAEAAAAEAAAAEQAAAEhHUFNvZWlLYWt1cG9wdGFpAAAAAQAAAAwAAAAIAAwABAAIAAgAAAAIAAAAUAAAAA8AAADvvIEAAAAAAAAAAAAAAAAAAAA2ACQAAAAgABwAAAAAABsAFAAAAAAAAAAAAAAAAAAAAAAAAAAAABAAAAAAAAAADAAAAAgABAA2AAAAAgAAABwAAAAcAAAAHAAAAAAAIEEAAAABaAAAAE3PAEOw////tP///wEAAAAUAAAAEAAaAAgABwAMAAAAEAAUABAAAAAAAAABHAAAAAAAoEEcAAAAAgAAAAAACgAIAAUABgAHAAoAAAAADAD//P///wQABAAEAAAACAAIAAYABwAIAAAAAAAMAA==</value>
					</parameter>
					<parameter authoringApp="PremierePro">
					<parameterid>2</parameterid>
					<name></name>
					<IsTimeVarying>false</IsTimeVarying>
					<ParameterControlType>11</ParameterControlType>
					<LowerBound>false</LowerBound>
					<UpperBound>false</UpperBound>
					<value>-91445760000000000,false,0,0,0,0,0,0</value>
					</parameter>
					<parameter authoringApp="PremierePro">
					<parameterid>3</parameterid>
					<name></name>
					<IsTimeVarying>false</IsTimeVarying>
					<value>-91445760000000000,0.5:0.5,0,0,0,0,0,0,5,4,0,0,0,0</value>
					</parameter>
					<parameter authoringApp="PremierePro">
					<parameterid>4</parameterid>
					<name></name>
					<IsTimeVarying>false</IsTimeVarying>
					<ParameterControlType>2</ParameterControlType>
					<LowerBound>0</LowerBound>
					<UpperBound>4000</UpperBound>
					<value>-91445760000000000,100.,0,0,0,0,0,0</value>
					</parameter>
					<parameter authoringApp="PremierePro">
					<parameterid>8</parameterid>
					<name></name>
					<IsTimeVarying>false</IsTimeVarying>
					<ParameterControlType>2</ParameterControlType>
					<LowerBound>0</LowerBound>
					<UpperBound>100</UpperBound>
					<value>-91445760000000000,100.,0,0,0,0,0,0</value>
					</parameter>
					</effect>
					</filter>
					<logginginfo>
					<description></description>
					<scene></scene>
					<shottake></shottake>
					<lognote></lognote>
					<good></good>
					<originalvideofilename></originalvideofilename>
					<originalaudiofilename></originalaudiofilename>
					</logginginfo>
					<colorinfo>
					<lut></lut>
					<lut1></lut1>
					<asc_sop></asc_sop>
					<asc_sat></asc_sat>
					<lut2></lut2>
					</colorinfo>
					<labels>
					</labels>
					</clipitem>
					<clipitem id="clipitem-196"/>
					                        </track>
					                        <track TL.SQTrackShy="0" TL.SQTrackExpandedHeight="25" TL.SQTrackExpanded="0" MZ.TrackTargeted="0">
					<clipitem frameBlend="FALSE" id="clipitem-197">
					<masterclipid>masterclip-117</masterclipid>
					<name></name>
					<enabled>TRUE</enabled>
					<duration>2582774</duration>
					<rate>
					
					                                    <timebase>60</timebase>
					                                    <ntsc>TRUE</ntsc>
					                                
					</rate>
					<start>797</start>
					<end>857</end>
					<in>797</in>
					<out>857</out>
					<pproTicksIn>914456774963789</pproTicksIn>
					<pproTicksOut>914677708529577</pproTicksOut>
					<alphatype>straight</alphatype>
					<pixelaspectratio>square</pixelaspectratio>
					<anamorphic>FALSE</anamorphic>
					<file id="file-116">
					<name></name>
					<mediaSource>GraphicAndType</mediaSource>
					<rate>
					<timebase>60</timebase>
					<ntsc>TRUE</ntsc>
					</rate>
					<timecode>
					<rate>
					<timebase>60</timebase>
					<ntsc>TRUE</ntsc>
					</rate>
					<string>00:00:00:00</string>
					<frame>0</frame>
					<displayformat>NDF</displayformat>
					</timecode>
					<media>
					<video>
					<samplecharacteristics>
					<rate>
					<timebase>60</timebase>
					<ntsc>TRUE</ntsc>
					</rate>
					<width>1080</width>
					<height>1920</height>
					<anamorphic>FALSE</anamorphic>
					<pixelaspectratio>square</pixelaspectratio>
					<fielddominance>none</fielddominance>
					</samplecharacteristics>
					</video>
					</media>
					</file>
					<filter>
					<effect>
					<name></name>
					<effectid>GraphicAndType</effectid>
					<effectcategory>graphic</effectcategory>
					<effecttype>filter</effecttype>
					<mediatype>video</mediatype>
					<pproBypass>false</pproBypass>
					<parameter authoringApp="PremierePro">
					<parameterid>1</parameterid>
					<name></name>
					<hash>025b1101-ead6-0ca2-1feb-caf3000001fc</hash>
					<value>5AEAAAAAAABEMyIRDAAAAAAABgAKAAQABgAAAGQAAAAAAF4ASAAQAAwARABAADwAOAAAAAAAAAAAADQAMwAsAAAAKAAkACAAAAAAAAAAAAAAAAAAHAAAAAAAGgAAAAAAAAAUAAAAAAAAAAAAAAAAAAAAAAAAAAgAAAAAABsABwBeAAAAAAAAAUAAAABQAAAAbAAAAAIAAAAAAAEAAQAAAAAAQEEAAMBAAABAQAAAyEIAAAABIAAAAAIAAAACAAAAAAA2QwCASkTw/v//9P7///j+//8S////AAAAAAEAAAAEAAAAEQAAAEhHUFNvZWlLYWt1cG9wdGFpAAAAAQAAAAwAAAAIAAwABAAIAAgAAAAIAAAAUAAAAA8AAADvvIEAAAAAAAAAAAAAAAAAAAA2ACQAAAAgABwAAAAAABsAFAAAAAAAAAAAAAAAAAAAAAAAAAAAABAAAAAAAAAADAAAAAgABAA2AAAAAgAAABwAAAAcAAAAHAAAAAAAIEEAAAABaAAAAE3PAEOw////tP///wEAAAAUAAAAEAAaAAgABwAMAAAAEAAUABAAAAAAAAABHAAAAAAAoEEcAAAAAgAAAAAACgAIAAUABgAHAAoAAAAADAD//P///wQABAAEAAAACAAIAAYABwAIAAAAAAAMAA==</value>
					</parameter>
					<parameter authoringApp="PremierePro">
					<parameterid>2</parameterid>
					<name></name>
					<IsTimeVarying>false</IsTimeVarying>
					<ParameterControlType>11</ParameterControlType>
					<LowerBound>false</LowerBound>
					<UpperBound>false</UpperBound>
					<value>-91445760000000000,false,0,0,0,0,0,0</value>
					</parameter>
					<parameter authoringApp="PremierePro">
					<parameterid>3</parameterid>
					<name></name>
					<IsTimeVarying>false</IsTimeVarying>
					<value>-91445760000000000,0.5:0.5,0,0,0,0,0,0,5,4,0,0,0,0</value>
					</parameter>
					<parameter authoringApp="PremierePro">
					<parameterid>4</parameterid>
					<name></name>
					<IsTimeVarying>false</IsTimeVarying>
					<ParameterControlType>2</ParameterControlType>
					<LowerBound>0</LowerBound>
					<UpperBound>4000</UpperBound>
					<value>-91445760000000000,100.,0,0,0,0,0,0</value>
					</parameter>
					<parameter authoringApp="PremierePro">
					<parameterid>8</parameterid>
					<name></name>
					<IsTimeVarying>false</IsTimeVarying>
					<ParameterControlType>2</ParameterControlType>
					<LowerBound>0</LowerBound>
					<UpperBound>100</UpperBound>
					<value>-91445760000000000,100.,0,0,0,0,0,0</value>
					</parameter>
					</effect>
					</filter>
					<logginginfo>
					<description></description>
					<scene></scene>
					<shottake></shottake>
					<lognote></lognote>
					<good></good>
					<originalvideofilename></originalvideofilename>
					<originalaudiofilename></originalaudiofilename>
					</logginginfo>
					<colorinfo>
					<lut></lut>
					<lut1></lut1>
					<asc_sop></asc_sop>
					<asc_sat></asc_sat>
					<lut2></lut2>
					</colorinfo>
					<labels>
					</labels>
					</clipitem>
					<clipitem frameBlend="FALSE" id="clipitem-207">
					<masterclipid>masterclip-127</masterclipid>
					<name></name>
					<enabled>TRUE</enabled>
					<duration>2582774</duration>
					<rate>
					
					                                    <timebase>60</timebase>
					                                    <ntsc>TRUE</ntsc>
					                                
					</rate>
					<start>869</start>
					<end>929</end>
					<in>869</in>
					<out>929</out>
					<pproTicksIn>914456774963789</pproTicksIn>
					<pproTicksOut>914677708529577</pproTicksOut>
					<alphatype>straight</alphatype>
					<pixelaspectratio>square</pixelaspectratio>
					<anamorphic>FALSE</anamorphic>
					<file id="file-126">
					<name></name>
					<mediaSource>GraphicAndType</mediaSource>
					<rate>
					<timebase>60</timebase>
					<ntsc>TRUE</ntsc>
					</rate>
					<timecode>
					<rate>
					<timebase>60</timebase>
					<ntsc>TRUE</ntsc>
					</rate>
					<string>00:00:00:00</string>
					<frame>0</frame>
					<displayformat>NDF</displayformat>
					</timecode>
					<media>
					<video>
					<samplecharacteristics>
					<rate>
					<timebase>60</timebase>
					<ntsc>TRUE</ntsc>
					</rate>
					<width>1080</width>
					<height>1920</height>
					<anamorphic>FALSE</anamorphic>
					<pixelaspectratio>square</pixelaspectratio>
					<fielddominance>none</fielddominance>
					</samplecharacteristics>
					</video>
					</media>
					</file>
					<filter>
					<effect>
					<name></name>
					<effectid>GraphicAndType</effectid>
					<effectcategory>graphic</effectcategory>
					<effecttype>filter</effecttype>
					<mediatype>video</mediatype>
					<pproBypass>false</pproBypass>
					<parameter authoringApp="PremierePro">
					<parameterid>1</parameterid>
					<name></name>
					<hash>025b1101-ead6-0ca2-1feb-caf3000001fc</hash>
					<value>5AEAAAAAAABEMyIRDAAAAAAABgAKAAQABgAAAGQAAAAAAF4ASAAQAAwARABAADwAOAAAAAAAAAAAADQAMwAsAAAAKAAkACAAAAAAAAAAAAAAAAAAHAAAAAAAGgAAAAAAAAAUAAAAAAAAAAAAAAAAAAAAAAAAAAgAAAAAABsABwBeAAAAAAAAAUAAAABQAAAAbAAAAAIAAAAAAAEAAQAAAAAAQEEAAMBAAABAQAAAyEIAAAABIAAAAAIAAAACAAAAAAA2QwCASkTw/v//9P7///j+//8S////AAAAAAEAAAAEAAAAEQAAAEhHUFNvZWlLYWt1cG9wdGFpAAAAAQAAAAwAAAAIAAwABAAIAAgAAAAIAAAAUAAAAA8AAADvvIEAAAAAAAAAAAAAAAAAAAA2ACQAAAAgABwAAAAAABsAFAAAAAAAAAAAAAAAAAAAAAAAAAAAABAAAAAAAAAADAAAAAgABAA2AAAAAgAAABwAAAAcAAAAHAAAAAAAIEEAAAABaAAAAE3PAEOw////tP///wEAAAAUAAAAEAAaAAgABwAMAAAAEAAUABAAAAAAAAABHAAAAAAAoEEcAAAAAgAAAAAACgAIAAUABgAHAAoAAAAADAD//P///wQABAAEAAAACAAIAAYABwAIAAAAAAAMAA==</value>
					</parameter>
					<parameter authoringApp="PremierePro">
					<parameterid>2</parameterid>
					<name></name>
					<IsTimeVarying>false</IsTimeVarying>
					<ParameterControlType>11</ParameterControlType>
					<LowerBound>false</LowerBound>
					<UpperBound>false</UpperBound>
					<value>-91445760000000000,false,0,0,0,0,0,0</value>
					</parameter>
					<parameter authoringApp="PremierePro">
					<parameterid>3</parameterid>
					<name></name>
					<IsTimeVarying>false</IsTimeVarying>
					<value>-91445760000000000,0.5:0.5,0,0,0,0,0,0,5,4,0,0,0,0</value>
					</parameter>
					<parameter authoringApp="PremierePro">
					<parameterid>4</parameterid>
					<name></name>
					<IsTimeVarying>false</IsTimeVarying>
					<ParameterControlType>2</ParameterControlType>
					<LowerBound>0</LowerBound>
					<UpperBound>4000</UpperBound>
					<value>-91445760000000000,100.,0,0,0,0,0,0</value>
					</parameter>
					<parameter authoringApp="PremierePro">
					<parameterid>8</parameterid>
					<name></name>
					<IsTimeVarying>false</IsTimeVarying>
					<ParameterControlType>2</ParameterControlType>
					<LowerBound>0</LowerBound>
					<UpperBound>100</UpperBound>
					<value>-91445760000000000,100.,0,0,0,0,0,0</value>
					</parameter>
					</effect>
					</filter>
					<logginginfo>
					<description></description>
					<scene></scene>
					<shottake></shottake>
					<lognote></lognote>
					<good></good>
					<originalvideofilename></originalvideofilename>
					<originalaudiofilename></originalaudiofilename>
					</logginginfo>
					<colorinfo>
					<lut></lut>
					<lut1></lut1>
					<asc_sop></asc_sop>
					<asc_sat></asc_sat>
					<lut2></lut2>
					</colorinfo>
					<labels>
					</labels>
					</clipitem>
					<clipitem frameBlend="FALSE" id="clipitem-215">
					<masterclipid>masterclip-135</masterclipid>
					<name></name>
					<enabled>TRUE</enabled>
					<duration>2582774</duration>
					<rate>
					
					                                    <timebase>60</timebase>
					                                    <ntsc>TRUE</ntsc>
					                                
					</rate>
					<start>929</start>
					<end>995</end>
					<in>929</in>
					<out>995</out>
					<pproTicksIn>914456774963789</pproTicksIn>
					<pproTicksOut>914677708529577</pproTicksOut>
					<alphatype>straight</alphatype>
					<pixelaspectratio>square</pixelaspectratio>
					<anamorphic>FALSE</anamorphic>
					<file id="file-134">
					<name></name>
					<mediaSource>GraphicAndType</mediaSource>
					<rate>
					<timebase>60</timebase>
					<ntsc>TRUE</ntsc>
					</rate>
					<timecode>
					<rate>
					<timebase>60</timebase>
					<ntsc>TRUE</ntsc>
					</rate>
					<string>00:00:00:00</string>
					<frame>0</frame>
					<displayformat>NDF</displayformat>
					</timecode>
					<media>
					<video>
					<samplecharacteristics>
					<rate>
					<timebase>60</timebase>
					<ntsc>TRUE</ntsc>
					</rate>
					<width>1080</width>
					<height>1920</height>
					<anamorphic>FALSE</anamorphic>
					<pixelaspectratio>square</pixelaspectratio>
					<fielddominance>none</fielddominance>
					</samplecharacteristics>
					</video>
					</media>
					</file>
					<filter>
					<effect>
					<name></name>
					<effectid>GraphicAndType</effectid>
					<effectcategory>graphic</effectcategory>
					<effecttype>filter</effecttype>
					<mediatype>video</mediatype>
					<pproBypass>false</pproBypass>
					<parameter authoringApp="PremierePro">
					<parameterid>1</parameterid>
					<name></name>
					<hash>025b1101-ead6-0ca2-1feb-caf3000001fc</hash>
					<value>5AEAAAAAAABEMyIRDAAAAAAABgAKAAQABgAAAGQAAAAAAF4ASAAQAAwARABAADwAOAAAAAAAAAAAADQAMwAsAAAAKAAkACAAAAAAAAAAAAAAAAAAHAAAAAAAGgAAAAAAAAAUAAAAAAAAAAAAAAAAAAAAAAAAAAgAAAAAABsABwBeAAAAAAAAAUAAAABQAAAAbAAAAAIAAAAAAAEAAQAAAAAAQEEAAMBAAABAQAAAyEIAAAABIAAAAAIAAAACAAAAAAA2QwCASkTw/v//9P7///j+//8S////AAAAAAEAAAAEAAAAEQAAAEhHUFNvZWlLYWt1cG9wdGFpAAAAAQAAAAwAAAAIAAwABAAIAAgAAAAIAAAAUAAAAA8AAADvvIEAAAAAAAAAAAAAAAAAAAA2ACQAAAAgABwAAAAAABsAFAAAAAAAAAAAAAAAAAAAAAAAAAAAABAAAAAAAAAADAAAAAgABAA2AAAAAgAAABwAAAAcAAAAHAAAAAAAIEEAAAABaAAAAE3PAEOw////tP///wEAAAAUAAAAEAAaAAgABwAMAAAAEAAUABAAAAAAAAABHAAAAAAAoEEcAAAAAgAAAAAACgAIAAUABgAHAAoAAAAADAD//P///wQABAAEAAAACAAIAAYABwAIAAAAAAAMAA==</value>
					</parameter>
					<parameter authoringApp="PremierePro">
					<parameterid>2</parameterid>
					<name></name>
					<IsTimeVarying>false</IsTimeVarying>
					<ParameterControlType>11</ParameterControlType>
					<LowerBound>false</LowerBound>
					<UpperBound>false</UpperBound>
					<value>-91445760000000000,false,0,0,0,0,0,0</value>
					</parameter>
					<parameter authoringApp="PremierePro">
					<parameterid>3</parameterid>
					<name></name>
					<IsTimeVarying>false</IsTimeVarying>
					<value>-91445760000000000,0.5:0.5,0,0,0,0,0,0,5,4,0,0,0,0</value>
					</parameter>
					<parameter authoringApp="PremierePro">
					<parameterid>4</parameterid>
					<name></name>
					<IsTimeVarying>false</IsTimeVarying>
					<ParameterControlType>2</ParameterControlType>
					<LowerBound>0</LowerBound>
					<UpperBound>4000</UpperBound>
					<value>-91445760000000000,100.,0,0,0,0,0,0</value>
					</parameter>
					<parameter authoringApp="PremierePro">
					<parameterid>8</parameterid>
					<name></name>
					<IsTimeVarying>false</IsTimeVarying>
					<ParameterControlType>2</ParameterControlType>
					<LowerBound>0</LowerBound>
					<UpperBound>100</UpperBound>
					<value>-91445760000000000,100.,0,0,0,0,0,0</value>
					</parameter>
					</effect>
					</filter>
					<logginginfo>
					<description></description>
					<scene></scene>
					<shottake></shottake>
					<lognote></lognote>
					<good></good>
					<originalvideofilename></originalvideofilename>
					<originalaudiofilename></originalaudiofilename>
					</logginginfo>
					<colorinfo>
					<lut></lut>
					<lut1></lut1>
					<asc_sop></asc_sop>
					<asc_sat></asc_sat>
					<lut2></lut2>
					</colorinfo>
					<labels>
					</labels>
					</clipitem>
					<clipitem frameBlend="FALSE" id="clipitem-229">
					<masterclipid>masterclip-149</masterclipid>
					<name></name>
					<enabled>TRUE</enabled>
					<duration>2582774</duration>
					<rate>
					
					                                    <timebase>60</timebase>
					                                    <ntsc>TRUE</ntsc>
					                                
					</rate>
					<start>995</start>
					<end>1055</end>
					<in>995</in>
					<out>1055</out>
					<pproTicksIn>914456774963789</pproTicksIn>
					<pproTicksOut>914677708529577</pproTicksOut>
					<alphatype>straight</alphatype>
					<pixelaspectratio>square</pixelaspectratio>
					<anamorphic>FALSE</anamorphic>
					<file id="file-148">
					<name></name>
					<mediaSource>GraphicAndType</mediaSource>
					<rate>
					<timebase>60</timebase>
					<ntsc>TRUE</ntsc>
					</rate>
					<timecode>
					<rate>
					<timebase>60</timebase>
					<ntsc>TRUE</ntsc>
					</rate>
					<string>00:00:00:00</string>
					<frame>0</frame>
					<displayformat>NDF</displayformat>
					</timecode>
					<media>
					<video>
					<samplecharacteristics>
					<rate>
					<timebase>60</timebase>
					<ntsc>TRUE</ntsc>
					</rate>
					<width>1080</width>
					<height>1920</height>
					<anamorphic>FALSE</anamorphic>
					<pixelaspectratio>square</pixelaspectratio>
					<fielddominance>none</fielddominance>
					</samplecharacteristics>
					</video>
					</media>
					</file>
					<filter>
					<effect>
					<name></name>
					<effectid>GraphicAndType</effectid>
					<effectcategory>graphic</effectcategory>
					<effecttype>filter</effecttype>
					<mediatype>video</mediatype>
					<pproBypass>false</pproBypass>
					<parameter authoringApp="PremierePro">
					<parameterid>1</parameterid>
					<name></name>
					<hash>025b1101-ead6-0ca2-1feb-caf3000001fc</hash>
					<value>5AEAAAAAAABEMyIRDAAAAAAABgAKAAQABgAAAGQAAAAAAF4ASAAQAAwARABAADwAOAAAAAAAAAAAADQAMwAsAAAAKAAkACAAAAAAAAAAAAAAAAAAHAAAAAAAGgAAAAAAAAAUAAAAAAAAAAAAAAAAAAAAAAAAAAgAAAAAABsABwBeAAAAAAAAAUAAAABQAAAAbAAAAAIAAAAAAAEAAQAAAAAAQEEAAMBAAABAQAAAyEIAAAABIAAAAAIAAAACAAAAAAA2QwCASkTw/v//9P7///j+//8S////AAAAAAEAAAAEAAAAEQAAAEhHUFNvZWlLYWt1cG9wdGFpAAAAAQAAAAwAAAAIAAwABAAIAAgAAAAIAAAAUAAAAA8AAADvvIEAAAAAAAAAAAAAAAAAAAA2ACQAAAAgABwAAAAAABsAFAAAAAAAAAAAAAAAAAAAAAAAAAAAABAAAAAAAAAADAAAAAgABAA2AAAAAgAAABwAAAAcAAAAHAAAAAAAIEEAAAABaAAAAE3PAEOw////tP///wEAAAAUAAAAEAAaAAgABwAMAAAAEAAUABAAAAAAAAABHAAAAAAAoEEcAAAAAgAAAAAACgAIAAUABgAHAAoAAAAADAD//P///wQABAAEAAAACAAIAAYABwAIAAAAAAAMAA==</value>
					</parameter>
					<parameter authoringApp="PremierePro">
					<parameterid>2</parameterid>
					<name></name>
					<IsTimeVarying>false</IsTimeVarying>
					<ParameterControlType>11</ParameterControlType>
					<LowerBound>false</LowerBound>
					<UpperBound>false</UpperBound>
					<value>-91445760000000000,false,0,0,0,0,0,0</value>
					</parameter>
					<parameter authoringApp="PremierePro">
					<parameterid>3</parameterid>
					<name></name>
					<IsTimeVarying>false</IsTimeVarying>
					<value>-91445760000000000,0.5:0.5,0,0,0,0,0,0,5,4,0,0,0,0</value>
					</parameter>
					<parameter authoringApp="PremierePro">
					<parameterid>4</parameterid>
					<name></name>
					<IsTimeVarying>false</IsTimeVarying>
					<ParameterControlType>2</ParameterControlType>
					<LowerBound>0</LowerBound>
					<UpperBound>4000</UpperBound>
					<value>-91445760000000000,100.,0,0,0,0,0,0</value>
					</parameter>
					<parameter authoringApp="PremierePro">
					<parameterid>8</parameterid>
					<name></name>
					<IsTimeVarying>false</IsTimeVarying>
					<ParameterControlType>2</ParameterControlType>
					<LowerBound>0</LowerBound>
					<UpperBound>100</UpperBound>
					<value>-91445760000000000,100.,0,0,0,0,0,0</value>
					</parameter>
					</effect>
					</filter>
					<logginginfo>
					<description></description>
					<scene></scene>
					<shottake></shottake>
					<lognote></lognote>
					<good></good>
					<originalvideofilename></originalvideofilename>
					<originalaudiofilename></originalaudiofilename>
					</logginginfo>
					<colorinfo>
					<lut></lut>
					<lut1></lut1>
					<asc_sop></asc_sop>
					<asc_sat></asc_sat>
					<lut2></lut2>
					</colorinfo>
					<labels>
					</labels>
					</clipitem>
					<clipitem frameBlend="FALSE" id="clipitem-237">
					<masterclipid>masterclip-157</masterclipid>
					<name></name>
					<enabled>TRUE</enabled>
					<duration>2582774</duration>
					<rate>
					
					                                    <timebase>60</timebase>
					                                    <ntsc>TRUE</ntsc>
					                                
					</rate>
					<start>1061</start>
					<end>1121</end>
					<in>1061</in>
					<out>1121</out>
					<pproTicksIn>914456774963789</pproTicksIn>
					<pproTicksOut>914677708529577</pproTicksOut>
					<alphatype>straight</alphatype>
					<pixelaspectratio>square</pixelaspectratio>
					<anamorphic>FALSE</anamorphic>
					<file id="file-156">
					<name></name>
					<mediaSource>GraphicAndType</mediaSource>
					<rate>
					<timebase>60</timebase>
					<ntsc>TRUE</ntsc>
					</rate>
					<timecode>
					<rate>
					<timebase>60</timebase>
					<ntsc>TRUE</ntsc>
					</rate>
					<string>00:00:00:00</string>
					<frame>0</frame>
					<displayformat>NDF</displayformat>
					</timecode>
					<media>
					<video>
					<samplecharacteristics>
					<rate>
					<timebase>60</timebase>
					<ntsc>TRUE</ntsc>
					</rate>
					<width>1080</width>
					<height>1920</height>
					<anamorphic>FALSE</anamorphic>
					<pixelaspectratio>square</pixelaspectratio>
					<fielddominance>none</fielddominance>
					</samplecharacteristics>
					</video>
					</media>
					</file>
					<filter>
					<effect>
					<name></name>
					<effectid>GraphicAndType</effectid>
					<effectcategory>graphic</effectcategory>
					<effecttype>filter</effecttype>
					<mediatype>video</mediatype>
					<pproBypass>false</pproBypass>
					<parameter authoringApp="PremierePro">
					<parameterid>1</parameterid>
					<name></name>
					<hash>025b1101-ead6-0ca2-1feb-caf3000001fc</hash>
					<value>5AEAAAAAAABEMyIRDAAAAAAABgAKAAQABgAAAGQAAAAAAF4ASAAQAAwARABAADwAOAAAAAAAAAAAADQAMwAsAAAAKAAkACAAAAAAAAAAAAAAAAAAHAAAAAAAGgAAAAAAAAAUAAAAAAAAAAAAAAAAAAAAAAAAAAgAAAAAABsABwBeAAAAAAAAAUAAAABQAAAAbAAAAAIAAAAAAAEAAQAAAAAAQEEAAMBAAABAQAAAyEIAAAABIAAAAAIAAAACAAAAAAA2QwCASkTw/v//9P7///j+//8S////AAAAAAEAAAAEAAAAEQAAAEhHUFNvZWlLYWt1cG9wdGFpAAAAAQAAAAwAAAAIAAwABAAIAAgAAAAIAAAAUAAAAA8AAADvvIEAAAAAAAAAAAAAAAAAAAA2ACQAAAAgABwAAAAAABsAFAAAAAAAAAAAAAAAAAAAAAAAAAAAABAAAAAAAAAADAAAAAgABAA2AAAAAgAAABwAAAAcAAAAHAAAAAAAIEEAAAABaAAAAE3PAEOw////tP///wEAAAAUAAAAEAAaAAgABwAMAAAAEAAUABAAAAAAAAABHAAAAAAAoEEcAAAAAgAAAAAACgAIAAUABgAHAAoAAAAADAD//P///wQABAAEAAAACAAIAAYABwAIAAAAAAAMAA==</value>
					</parameter>
					<parameter authoringApp="PremierePro">
					<parameterid>2</parameterid>
					<name></name>
					<IsTimeVarying>false</IsTimeVarying>
					<ParameterControlType>11</ParameterControlType>
					<LowerBound>false</LowerBound>
					<UpperBound>false</UpperBound>
					<value>-91445760000000000,false,0,0,0,0,0,0</value>
					</parameter>
					<parameter authoringApp="PremierePro">
					<parameterid>3</parameterid>
					<name></name>
					<IsTimeVarying>false</IsTimeVarying>
					<value>-91445760000000000,0.5:0.5,0,0,0,0,0,0,5,4,0,0,0,0</value>
					</parameter>
					<parameter authoringApp="PremierePro">
					<parameterid>4</parameterid>
					<name></name>
					<IsTimeVarying>false</IsTimeVarying>
					<ParameterControlType>2</ParameterControlType>
					<LowerBound>0</LowerBound>
					<UpperBound>4000</UpperBound>
					<value>-91445760000000000,100.,0,0,0,0,0,0</value>
					</parameter>
					<parameter authoringApp="PremierePro">
					<parameterid>8</parameterid>
					<name></name>
					<IsTimeVarying>false</IsTimeVarying>
					<ParameterControlType>2</ParameterControlType>
					<LowerBound>0</LowerBound>
					<UpperBound>100</UpperBound>
					<value>-91445760000000000,100.,0,0,0,0,0,0</value>
					</parameter>
					</effect>
					</filter>
					<logginginfo>
					<description></description>
					<scene></scene>
					<shottake></shottake>
					<lognote></lognote>
					<good></good>
					<originalvideofilename></originalvideofilename>
					<originalaudiofilename></originalaudiofilename>
					</logginginfo>
					<colorinfo>
					<lut></lut>
					<lut1></lut1>
					<asc_sop></asc_sop>
					<asc_sat></asc_sat>
					<lut2></lut2>
					</colorinfo>
					<labels>
					</labels>
					</clipitem>
					<clipitem frameBlend="FALSE" id="clipitem-251">
					<masterclipid>masterclip-171</masterclipid>
					<name></name>
					<enabled>TRUE</enabled>
					<duration>2582774</duration>
					<rate>
					
					                                    <timebase>60</timebase>
					                                    <ntsc>TRUE</ntsc>
					                                
					</rate>
					<start>1217</start>
					<end>1277</end>
					<in>1217</in>
					<out>1277</out>
					<pproTicksIn>914456774963789</pproTicksIn>
					<pproTicksOut>914677708529577</pproTicksOut>
					<alphatype>straight</alphatype>
					<pixelaspectratio>square</pixelaspectratio>
					<anamorphic>FALSE</anamorphic>
					<file id="file-170">
					<name></name>
					<mediaSource>GraphicAndType</mediaSource>
					<rate>
					<timebase>60</timebase>
					<ntsc>TRUE</ntsc>
					</rate>
					<timecode>
					<rate>
					<timebase>60</timebase>
					<ntsc>TRUE</ntsc>
					</rate>
					<string>00:00:00:00</string>
					<frame>0</frame>
					<displayformat>NDF</displayformat>
					</timecode>
					<media>
					<video>
					<samplecharacteristics>
					<rate>
					<timebase>60</timebase>
					<ntsc>TRUE</ntsc>
					</rate>
					<width>1080</width>
					<height>1920</height>
					<anamorphic>FALSE</anamorphic>
					<pixelaspectratio>square</pixelaspectratio>
					<fielddominance>none</fielddominance>
					</samplecharacteristics>
					</video>
					</media>
					</file>
					<filter>
					<effect>
					<name></name>
					<effectid>GraphicAndType</effectid>
					<effectcategory>graphic</effectcategory>
					<effecttype>filter</effecttype>
					<mediatype>video</mediatype>
					<pproBypass>false</pproBypass>
					<parameter authoringApp="PremierePro">
					<parameterid>1</parameterid>
					<name></name>
					<hash>025b1101-ead6-0ca2-1feb-caf3000001fc</hash>
					<value>5AEAAAAAAABEMyIRDAAAAAAABgAKAAQABgAAAGQAAAAAAF4ASAAQAAwARABAADwAOAAAAAAAAAAAADQAMwAsAAAAKAAkACAAAAAAAAAAAAAAAAAAHAAAAAAAGgAAAAAAAAAUAAAAAAAAAAAAAAAAAAAAAAAAAAgAAAAAABsABwBeAAAAAAAAAUAAAABQAAAAbAAAAAIAAAAAAAEAAQAAAAAAQEEAAMBAAABAQAAAyEIAAAABIAAAAAIAAAACAAAAAAA2QwCASkTw/v//9P7///j+//8S////AAAAAAEAAAAEAAAAEQAAAEhHUFNvZWlLYWt1cG9wdGFpAAAAAQAAAAwAAAAIAAwABAAIAAgAAAAIAAAAUAAAAA8AAADvvIEAAAAAAAAAAAAAAAAAAAA2ACQAAAAgABwAAAAAABsAFAAAAAAAAAAAAAAAAAAAAAAAAAAAABAAAAAAAAAADAAAAAgABAA2AAAAAgAAABwAAAAcAAAAHAAAAAAAIEEAAAABaAAAAE3PAEOw////tP///wEAAAAUAAAAEAAaAAgABwAMAAAAEAAUABAAAAAAAAABHAAAAAAAoEEcAAAAAgAAAAAACgAIAAUABgAHAAoAAAAADAD//P///wQABAAEAAAACAAIAAYABwAIAAAAAAAMAA==</value>
					</parameter>
					<parameter authoringApp="PremierePro">
					<parameterid>2</parameterid>
					<name></name>
					<IsTimeVarying>false</IsTimeVarying>
					<ParameterControlType>11</ParameterControlType>
					<LowerBound>false</LowerBound>
					<UpperBound>false</UpperBound>
					<value>-91445760000000000,false,0,0,0,0,0,0</value>
					</parameter>
					<parameter authoringApp="PremierePro">
					<parameterid>3</parameterid>
					<name></name>
					<IsTimeVarying>false</IsTimeVarying>
					<value>-91445760000000000,0.5:0.5,0,0,0,0,0,0,5,4,0,0,0,0</value>
					</parameter>
					<parameter authoringApp="PremierePro">
					<parameterid>4</parameterid>
					<name></name>
					<IsTimeVarying>false</IsTimeVarying>
					<ParameterControlType>2</ParameterControlType>
					<LowerBound>0</LowerBound>
					<UpperBound>4000</UpperBound>
					<value>-91445760000000000,100.,0,0,0,0,0,0</value>
					</parameter>
					<parameter authoringApp="PremierePro">
					<parameterid>8</parameterid>
					<name></name>
					<IsTimeVarying>false</IsTimeVarying>
					<ParameterControlType>2</ParameterControlType>
					<LowerBound>0</LowerBound>
					<UpperBound>100</UpperBound>
					<value>-91445760000000000,100.,0,0,0,0,0,0</value>
					</parameter>
					</effect>
					</filter>
					<logginginfo>
					<description></description>
					<scene></scene>
					<shottake></shottake>
					<lognote></lognote>
					<good></good>
					<originalvideofilename></originalvideofilename>
					<originalaudiofilename></originalaudiofilename>
					</logginginfo>
					<colorinfo>
					<lut></lut>
					<lut1></lut1>
					<asc_sop></asc_sop>
					<asc_sat></asc_sat>
					<lut2></lut2>
					</colorinfo>
					<labels>
					</labels>
					</clipitem>
					<clipitem frameBlend="FALSE" id="clipitem-258">
					<masterclipid>masterclip-178</masterclipid>
					<name></name>
					<enabled>TRUE</enabled>
					<duration>2582774</duration>
					<rate>
					
					                                    <timebase>60</timebase>
					                                    <ntsc>TRUE</ntsc>
					                                
					</rate>
					<start>1295</start>
					<end>1355</end>
					<in>1295</in>
					<out>1355</out>
					<pproTicksIn>914456774963789</pproTicksIn>
					<pproTicksOut>914677708529577</pproTicksOut>
					<alphatype>straight</alphatype>
					<pixelaspectratio>square</pixelaspectratio>
					<anamorphic>FALSE</anamorphic>
					<file id="file-177">
					<name></name>
					<mediaSource>GraphicAndType</mediaSource>
					<rate>
					<timebase>60</timebase>
					<ntsc>TRUE</ntsc>
					</rate>
					<timecode>
					<rate>
					<timebase>60</timebase>
					<ntsc>TRUE</ntsc>
					</rate>
					<string>00:00:00:00</string>
					<frame>0</frame>
					<displayformat>NDF</displayformat>
					</timecode>
					<media>
					<video>
					<samplecharacteristics>
					<rate>
					<timebase>60</timebase>
					<ntsc>TRUE</ntsc>
					</rate>
					<width>1080</width>
					<height>1920</height>
					<anamorphic>FALSE</anamorphic>
					<pixelaspectratio>square</pixelaspectratio>
					<fielddominance>none</fielddominance>
					</samplecharacteristics>
					</video>
					</media>
					</file>
					<filter>
					<effect>
					<name></name>
					<effectid>GraphicAndType</effectid>
					<effectcategory>graphic</effectcategory>
					<effecttype>filter</effecttype>
					<mediatype>video</mediatype>
					<pproBypass>false</pproBypass>
					<parameter authoringApp="PremierePro">
					<parameterid>1</parameterid>
					<name></name>
					<hash>025b1101-ead6-0ca2-1feb-caf3000001fc</hash>
					<value>5AEAAAAAAABEMyIRDAAAAAAABgAKAAQABgAAAGQAAAAAAF4ASAAQAAwARABAADwAOAAAAAAAAAAAADQAMwAsAAAAKAAkACAAAAAAAAAAAAAAAAAAHAAAAAAAGgAAAAAAAAAUAAAAAAAAAAAAAAAAAAAAAAAAAAgAAAAAABsABwBeAAAAAAAAAUAAAABQAAAAbAAAAAIAAAAAAAEAAQAAAAAAQEEAAMBAAABAQAAAyEIAAAABIAAAAAIAAAACAAAAAAA2QwCASkTw/v//9P7///j+//8S////AAAAAAEAAAAEAAAAEQAAAEhHUFNvZWlLYWt1cG9wdGFpAAAAAQAAAAwAAAAIAAwABAAIAAgAAAAIAAAAUAAAAA8AAADvvIEAAAAAAAAAAAAAAAAAAAA2ACQAAAAgABwAAAAAABsAFAAAAAAAAAAAAAAAAAAAAAAAAAAAABAAAAAAAAAADAAAAAgABAA2AAAAAgAAABwAAAAcAAAAHAAAAAAAIEEAAAABaAAAAE3PAEOw////tP///wEAAAAUAAAAEAAaAAgABwAMAAAAEAAUABAAAAAAAAABHAAAAAAAoEEcAAAAAgAAAAAACgAIAAUABgAHAAoAAAAADAD//P///wQABAAEAAAACAAIAAYABwAIAAAAAAAMAA==</value>
					</parameter>
					<parameter authoringApp="PremierePro">
					<parameterid>2</parameterid>
					<name></name>
					<IsTimeVarying>false</IsTimeVarying>
					<ParameterControlType>11</ParameterControlType>
					<LowerBound>false</LowerBound>
					<UpperBound>false</UpperBound>
					<value>-91445760000000000,false,0,0,0,0,0,0</value>
					</parameter>
					<parameter authoringApp="PremierePro">
					<parameterid>3</parameterid>
					<name></name>
					<IsTimeVarying>false</IsTimeVarying>
					<value>-91445760000000000,0.5:0.5,0,0,0,0,0,0,5,4,0,0,0,0</value>
					</parameter>
					<parameter authoringApp="PremierePro">
					<parameterid>4</parameterid>
					<name></name>
					<IsTimeVarying>false</IsTimeVarying>
					<ParameterControlType>2</ParameterControlType>
					<LowerBound>0</LowerBound>
					<UpperBound>4000</UpperBound>
					<value>-91445760000000000,100.,0,0,0,0,0,0</value>
					</parameter>
					<parameter authoringApp="PremierePro">
					<parameterid>8</parameterid>
					<name></name>
					<IsTimeVarying>false</IsTimeVarying>
					<ParameterControlType>2</ParameterControlType>
					<LowerBound>0</LowerBound>
					<UpperBound>100</UpperBound>
					<value>-91445760000000000,100.,0,0,0,0,0,0</value>
					</parameter>
					</effect>
					</filter>
					<logginginfo>
					<description></description>
					<scene></scene>
					<shottake></shottake>
					<lognote></lognote>
					<good></good>
					<originalvideofilename></originalvideofilename>
					<originalaudiofilename></originalaudiofilename>
					</logginginfo>
					<colorinfo>
					<lut></lut>
					<lut1></lut1>
					<asc_sop></asc_sop>
					<asc_sat></asc_sat>
					<lut2></lut2>
					</colorinfo>
					<labels>
					</labels>
					</clipitem>
					<clipitem frameBlend="FALSE" id="clipitem-266">
					<masterclipid>masterclip-186</masterclipid>
					<name></name>
					<enabled>TRUE</enabled>
					<duration>2582774</duration>
					<rate>
					
					                                    <timebase>60</timebase>
					                                    <ntsc>TRUE</ntsc>
					                                
					</rate>
					<start>1373</start>
					<end>1433</end>
					<in>1373</in>
					<out>1433</out>
					<pproTicksIn>914456774963789</pproTicksIn>
					<pproTicksOut>914677708529577</pproTicksOut>
					<alphatype>straight</alphatype>
					<pixelaspectratio>square</pixelaspectratio>
					<anamorphic>FALSE</anamorphic>
					<file id="file-185">
					<name></name>
					<mediaSource>GraphicAndType</mediaSource>
					<rate>
					<timebase>60</timebase>
					<ntsc>TRUE</ntsc>
					</rate>
					<timecode>
					<rate>
					<timebase>60</timebase>
					<ntsc>TRUE</ntsc>
					</rate>
					<string>00:00:00:00</string>
					<frame>0</frame>
					<displayformat>NDF</displayformat>
					</timecode>
					<media>
					<video>
					<samplecharacteristics>
					<rate>
					<timebase>60</timebase>
					<ntsc>TRUE</ntsc>
					</rate>
					<width>1080</width>
					<height>1920</height>
					<anamorphic>FALSE</anamorphic>
					<pixelaspectratio>square</pixelaspectratio>
					<fielddominance>none</fielddominance>
					</samplecharacteristics>
					</video>
					</media>
					</file>
					<filter>
					<effect>
					<name></name>
					<effectid>GraphicAndType</effectid>
					<effectcategory>graphic</effectcategory>
					<effecttype>filter</effecttype>
					<mediatype>video</mediatype>
					<pproBypass>false</pproBypass>
					<parameter authoringApp="PremierePro">
					<parameterid>1</parameterid>
					<name></name>
					<hash>025b1101-ead6-0ca2-1feb-caf3000001fc</hash>
					<value>5AEAAAAAAABEMyIRDAAAAAAABgAKAAQABgAAAGQAAAAAAF4ASAAQAAwARABAADwAOAAAAAAAAAAAADQAMwAsAAAAKAAkACAAAAAAAAAAAAAAAAAAHAAAAAAAGgAAAAAAAAAUAAAAAAAAAAAAAAAAAAAAAAAAAAgAAAAAABsABwBeAAAAAAAAAUAAAABQAAAAbAAAAAIAAAAAAAEAAQAAAAAAQEEAAMBAAABAQAAAyEIAAAABIAAAAAIAAAACAAAAAAA2QwCASkTw/v//9P7///j+//8S////AAAAAAEAAAAEAAAAEQAAAEhHUFNvZWlLYWt1cG9wdGFpAAAAAQAAAAwAAAAIAAwABAAIAAgAAAAIAAAAUAAAAA8AAADvvIEAAAAAAAAAAAAAAAAAAAA2ACQAAAAgABwAAAAAABsAFAAAAAAAAAAAAAAAAAAAAAAAAAAAABAAAAAAAAAADAAAAAgABAA2AAAAAgAAABwAAAAcAAAAHAAAAAAAIEEAAAABaAAAAE3PAEOw////tP///wEAAAAUAAAAEAAaAAgABwAMAAAAEAAUABAAAAAAAAABHAAAAAAAoEEcAAAAAgAAAAAACgAIAAUABgAHAAoAAAAADAD//P///wQABAAEAAAACAAIAAYABwAIAAAAAAAMAA==</value>
					</parameter>
					<parameter authoringApp="PremierePro">
					<parameterid>2</parameterid>
					<name></name>
					<IsTimeVarying>false</IsTimeVarying>
					<ParameterControlType>11</ParameterControlType>
					<LowerBound>false</LowerBound>
					<UpperBound>false</UpperBound>
					<value>-91445760000000000,false,0,0,0,0,0,0</value>
					</parameter>
					<parameter authoringApp="PremierePro">
					<parameterid>3</parameterid>
					<name></name>
					<IsTimeVarying>false</IsTimeVarying>
					<value>-91445760000000000,0.5:0.5,0,0,0,0,0,0,5,4,0,0,0,0</value>
					</parameter>
					<parameter authoringApp="PremierePro">
					<parameterid>4</parameterid>
					<name></name>
					<IsTimeVarying>false</IsTimeVarying>
					<ParameterControlType>2</ParameterControlType>
					<LowerBound>0</LowerBound>
					<UpperBound>4000</UpperBound>
					<value>-91445760000000000,100.,0,0,0,0,0,0</value>
					</parameter>
					<parameter authoringApp="PremierePro">
					<parameterid>8</parameterid>
					<name></name>
					<IsTimeVarying>false</IsTimeVarying>
					<ParameterControlType>2</ParameterControlType>
					<LowerBound>0</LowerBound>
					<UpperBound>100</UpperBound>
					<value>-91445760000000000,100.,0,0,0,0,0,0</value>
					</parameter>
					</effect>
					</filter>
					<logginginfo>
					<description></description>
					<scene></scene>
					<shottake></shottake>
					<lognote></lognote>
					<good></good>
					<originalvideofilename></originalvideofilename>
					<originalaudiofilename></originalaudiofilename>
					</logginginfo>
					<colorinfo>
					<lut></lut>
					<lut1></lut1>
					<asc_sop></asc_sop>
					<asc_sat></asc_sat>
					<lut2></lut2>
					</colorinfo>
					<labels>
					</labels>
					</clipitem>
					<clipitem frameBlend="FALSE" id="clipitem-275">
					<masterclipid>masterclip-195</masterclipid>
					<name></name>
					<enabled>TRUE</enabled>
					<duration>2582774</duration>
					<rate>
					
					                                    <timebase>60</timebase>
					                                    <ntsc>TRUE</ntsc>
					                                
					</rate>
					<start>1451</start>
					<end>1511</end>
					<in>1451</in>
					<out>1511</out>
					<pproTicksIn>914456774963789</pproTicksIn>
					<pproTicksOut>914677708529577</pproTicksOut>
					<alphatype>straight</alphatype>
					<pixelaspectratio>square</pixelaspectratio>
					<anamorphic>FALSE</anamorphic>
					<file id="file-194">
					<name></name>
					<mediaSource>GraphicAndType</mediaSource>
					<rate>
					<timebase>60</timebase>
					<ntsc>TRUE</ntsc>
					</rate>
					<timecode>
					<rate>
					<timebase>60</timebase>
					<ntsc>TRUE</ntsc>
					</rate>
					<string>00:00:00:00</string>
					<frame>0</frame>
					<displayformat>NDF</displayformat>
					</timecode>
					<media>
					<video>
					<samplecharacteristics>
					<rate>
					<timebase>60</timebase>
					<ntsc>TRUE</ntsc>
					</rate>
					<width>1080</width>
					<height>1920</height>
					<anamorphic>FALSE</anamorphic>
					<pixelaspectratio>square</pixelaspectratio>
					<fielddominance>none</fielddominance>
					</samplecharacteristics>
					</video>
					</media>
					</file>
					<filter>
					<effect>
					<name></name>
					<effectid>GraphicAndType</effectid>
					<effectcategory>graphic</effectcategory>
					<effecttype>filter</effecttype>
					<mediatype>video</mediatype>
					<pproBypass>false</pproBypass>
					<parameter authoringApp="PremierePro">
					<parameterid>1</parameterid>
					<name></name>
					<hash>025b1101-ead6-0ca2-1feb-caf3000001fc</hash>
					<value>5AEAAAAAAABEMyIRDAAAAAAABgAKAAQABgAAAGQAAAAAAF4ASAAQAAwARABAADwAOAAAAAAAAAAAADQAMwAsAAAAKAAkACAAAAAAAAAAAAAAAAAAHAAAAAAAGgAAAAAAAAAUAAAAAAAAAAAAAAAAAAAAAAAAAAgAAAAAABsABwBeAAAAAAAAAUAAAABQAAAAbAAAAAIAAAAAAAEAAQAAAAAAQEEAAMBAAABAQAAAyEIAAAABIAAAAAIAAAACAAAAAAA2QwCASkTw/v//9P7///j+//8S////AAAAAAEAAAAEAAAAEQAAAEhHUFNvZWlLYWt1cG9wdGFpAAAAAQAAAAwAAAAIAAwABAAIAAgAAAAIAAAAUAAAAA8AAADvvIEAAAAAAAAAAAAAAAAAAAA2ACQAAAAgABwAAAAAABsAFAAAAAAAAAAAAAAAAAAAAAAAAAAAABAAAAAAAAAADAAAAAgABAA2AAAAAgAAABwAAAAcAAAAHAAAAAAAIEEAAAABaAAAAE3PAEOw////tP///wEAAAAUAAAAEAAaAAgABwAMAAAAEAAUABAAAAAAAAABHAAAAAAAoEEcAAAAAgAAAAAACgAIAAUABgAHAAoAAAAADAD//P///wQABAAEAAAACAAIAAYABwAIAAAAAAAMAA==</value>
					</parameter>
					<parameter authoringApp="PremierePro">
					<parameterid>2</parameterid>
					<name></name>
					<IsTimeVarying>false</IsTimeVarying>
					<ParameterControlType>11</ParameterControlType>
					<LowerBound>false</LowerBound>
					<UpperBound>false</UpperBound>
					<value>-91445760000000000,false,0,0,0,0,0,0</value>
					</parameter>
					<parameter authoringApp="PremierePro">
					<parameterid>3</parameterid>
					<name></name>
					<IsTimeVarying>false</IsTimeVarying>
					<value>-91445760000000000,0.5:0.5,0,0,0,0,0,0,5,4,0,0,0,0</value>
					</parameter>
					<parameter authoringApp="PremierePro">
					<parameterid>4</parameterid>
					<name></name>
					<IsTimeVarying>false</IsTimeVarying>
					<ParameterControlType>2</ParameterControlType>
					<LowerBound>0</LowerBound>
					<UpperBound>4000</UpperBound>
					<value>-91445760000000000,100.,0,0,0,0,0,0</value>
					</parameter>
					<parameter authoringApp="PremierePro">
					<parameterid>8</parameterid>
					<name></name>
					<IsTimeVarying>false</IsTimeVarying>
					<ParameterControlType>2</ParameterControlType>
					<LowerBound>0</LowerBound>
					<UpperBound>100</UpperBound>
					<value>-91445760000000000,100.,0,0,0,0,0,0</value>
					</parameter>
					</effect>
					</filter>
					<logginginfo>
					<description></description>
					<scene></scene>
					<shottake></shottake>
					<lognote></lognote>
					<good></good>
					<originalvideofilename></originalvideofilename>
					<originalaudiofilename></originalaudiofilename>
					</logginginfo>
					<colorinfo>
					<lut></lut>
					<lut1></lut1>
					<asc_sop></asc_sop>
					<asc_sat></asc_sat>
					<lut2></lut2>
					</colorinfo>
					<labels>
					</labels>
					</clipitem>
					<clipitem frameBlend="FALSE" id="clipitem-284">
					<masterclipid>masterclip-204</masterclipid>
					<name></name>
					<enabled>TRUE</enabled>
					<duration>2582774</duration>
					<rate>
					
					                                    <timebase>60</timebase>
					                                    <ntsc>TRUE</ntsc>
					                                
					</rate>
					<start>1553</start>
					<end>1613</end>
					<in>1553</in>
					<out>1613</out>
					<pproTicksIn>914456774963789</pproTicksIn>
					<pproTicksOut>914677708529577</pproTicksOut>
					<alphatype>straight</alphatype>
					<pixelaspectratio>square</pixelaspectratio>
					<anamorphic>FALSE</anamorphic>
					<file id="file-203">
					<name></name>
					<mediaSource>GraphicAndType</mediaSource>
					<rate>
					<timebase>60</timebase>
					<ntsc>TRUE</ntsc>
					</rate>
					<timecode>
					<rate>
					<timebase>60</timebase>
					<ntsc>TRUE</ntsc>
					</rate>
					<string>00:00:00:00</string>
					<frame>0</frame>
					<displayformat>NDF</displayformat>
					</timecode>
					<media>
					<video>
					<samplecharacteristics>
					<rate>
					<timebase>60</timebase>
					<ntsc>TRUE</ntsc>
					</rate>
					<width>1080</width>
					<height>1920</height>
					<anamorphic>FALSE</anamorphic>
					<pixelaspectratio>square</pixelaspectratio>
					<fielddominance>none</fielddominance>
					</samplecharacteristics>
					</video>
					</media>
					</file>
					<filter>
					<effect>
					<name></name>
					<effectid>GraphicAndType</effectid>
					<effectcategory>graphic</effectcategory>
					<effecttype>filter</effecttype>
					<mediatype>video</mediatype>
					<pproBypass>false</pproBypass>
					<parameter authoringApp="PremierePro">
					<parameterid>1</parameterid>
					<name></name>
					<hash>025b1101-ead6-0ca2-1feb-caf3000001fc</hash>
					<value>5AEAAAAAAABEMyIRDAAAAAAABgAKAAQABgAAAGQAAAAAAF4ASAAQAAwARABAADwAOAAAAAAAAAAAADQAMwAsAAAAKAAkACAAAAAAAAAAAAAAAAAAHAAAAAAAGgAAAAAAAAAUAAAAAAAAAAAAAAAAAAAAAAAAAAgAAAAAABsABwBeAAAAAAAAAUAAAABQAAAAbAAAAAIAAAAAAAEAAQAAAAAAQEEAAMBAAABAQAAAyEIAAAABIAAAAAIAAAACAAAAAAA2QwCASkTw/v//9P7///j+//8S////AAAAAAEAAAAEAAAAEQAAAEhHUFNvZWlLYWt1cG9wdGFpAAAAAQAAAAwAAAAIAAwABAAIAAgAAAAIAAAAUAAAAA8AAADvvIEAAAAAAAAAAAAAAAAAAAA2ACQAAAAgABwAAAAAABsAFAAAAAAAAAAAAAAAAAAAAAAAAAAAABAAAAAAAAAADAAAAAgABAA2AAAAAgAAABwAAAAcAAAAHAAAAAAAIEEAAAABaAAAAE3PAEOw////tP///wEAAAAUAAAAEAAaAAgABwAMAAAAEAAUABAAAAAAAAABHAAAAAAAoEEcAAAAAgAAAAAACgAIAAUABgAHAAoAAAAADAD//P///wQABAAEAAAACAAIAAYABwAIAAAAAAAMAA==</value>
					</parameter>
					<parameter authoringApp="PremierePro">
					<parameterid>2</parameterid>
					<name></name>
					<IsTimeVarying>false</IsTimeVarying>
					<ParameterControlType>11</ParameterControlType>
					<LowerBound>false</LowerBound>
					<UpperBound>false</UpperBound>
					<value>-91445760000000000,false,0,0,0,0,0,0</value>
					</parameter>
					<parameter authoringApp="PremierePro">
					<parameterid>3</parameterid>
					<name></name>
					<IsTimeVarying>false</IsTimeVarying>
					<value>-91445760000000000,0.5:0.5,0,0,0,0,0,0,5,4,0,0,0,0</value>
					</parameter>
					<parameter authoringApp="PremierePro">
					<parameterid>4</parameterid>
					<name></name>
					<IsTimeVarying>false</IsTimeVarying>
					<ParameterControlType>2</ParameterControlType>
					<LowerBound>0</LowerBound>
					<UpperBound>4000</UpperBound>
					<value>-91445760000000000,100.,0,0,0,0,0,0</value>
					</parameter>
					<parameter authoringApp="PremierePro">
					<parameterid>8</parameterid>
					<name></name>
					<IsTimeVarying>false</IsTimeVarying>
					<ParameterControlType>2</ParameterControlType>
					<LowerBound>0</LowerBound>
					<UpperBound>100</UpperBound>
					<value>-91445760000000000,100.,0,0,0,0,0,0</value>
					</parameter>
					</effect>
					</filter>
					<logginginfo>
					<description></description>
					<scene></scene>
					<shottake></shottake>
					<lognote></lognote>
					<good></good>
					<originalvideofilename></originalvideofilename>
					<originalaudiofilename></originalaudiofilename>
					</logginginfo>
					<colorinfo>
					<lut></lut>
					<lut1></lut1>
					<asc_sop></asc_sop>
					<asc_sat></asc_sat>
					<lut2></lut2>
					</colorinfo>
					<labels>
					</labels>
					</clipitem>
					<clipitem frameBlend="FALSE" id="clipitem-292">
					<masterclipid>masterclip-212</masterclipid>
					<name></name>
					<enabled>TRUE</enabled>
					<duration>2582774</duration>
					<rate>
					
					                                    <timebase>60</timebase>
					                                    <ntsc>TRUE</ntsc>
					                                
					</rate>
					<start>1625</start>
					<end>1691</end>
					<in>1625</in>
					<out>1691</out>
					<pproTicksIn>914456774963789</pproTicksIn>
					<pproTicksOut>914677708529577</pproTicksOut>
					<alphatype>straight</alphatype>
					<pixelaspectratio>square</pixelaspectratio>
					<anamorphic>FALSE</anamorphic>
					<file id="file-211">
					<name></name>
					<mediaSource>GraphicAndType</mediaSource>
					<rate>
					<timebase>60</timebase>
					<ntsc>TRUE</ntsc>
					</rate>
					<timecode>
					<rate>
					<timebase>60</timebase>
					<ntsc>TRUE</ntsc>
					</rate>
					<string>00:00:00:00</string>
					<frame>0</frame>
					<displayformat>NDF</displayformat>
					</timecode>
					<media>
					<video>
					<samplecharacteristics>
					<rate>
					<timebase>60</timebase>
					<ntsc>TRUE</ntsc>
					</rate>
					<width>1080</width>
					<height>1920</height>
					<anamorphic>FALSE</anamorphic>
					<pixelaspectratio>square</pixelaspectratio>
					<fielddominance>none</fielddominance>
					</samplecharacteristics>
					</video>
					</media>
					</file>
					<filter>
					<effect>
					<name></name>
					<effectid>GraphicAndType</effectid>
					<effectcategory>graphic</effectcategory>
					<effecttype>filter</effecttype>
					<mediatype>video</mediatype>
					<pproBypass>false</pproBypass>
					<parameter authoringApp="PremierePro">
					<parameterid>1</parameterid>
					<name></name>
					<hash>025b1101-ead6-0ca2-1feb-caf3000001fc</hash>
					<value>5AEAAAAAAABEMyIRDAAAAAAABgAKAAQABgAAAGQAAAAAAF4ASAAQAAwARABAADwAOAAAAAAAAAAAADQAMwAsAAAAKAAkACAAAAAAAAAAAAAAAAAAHAAAAAAAGgAAAAAAAAAUAAAAAAAAAAAAAAAAAAAAAAAAAAgAAAAAABsABwBeAAAAAAAAAUAAAABQAAAAbAAAAAIAAAAAAAEAAQAAAAAAQEEAAMBAAABAQAAAyEIAAAABIAAAAAIAAAACAAAAAAA2QwCASkTw/v//9P7///j+//8S////AAAAAAEAAAAEAAAAEQAAAEhHUFNvZWlLYWt1cG9wdGFpAAAAAQAAAAwAAAAIAAwABAAIAAgAAAAIAAAAUAAAAA8AAADvvIEAAAAAAAAAAAAAAAAAAAA2ACQAAAAgABwAAAAAABsAFAAAAAAAAAAAAAAAAAAAAAAAAAAAABAAAAAAAAAADAAAAAgABAA2AAAAAgAAABwAAAAcAAAAHAAAAAAAIEEAAAABaAAAAE3PAEOw////tP///wEAAAAUAAAAEAAaAAgABwAMAAAAEAAUABAAAAAAAAABHAAAAAAAoEEcAAAAAgAAAAAACgAIAAUABgAHAAoAAAAADAD//P///wQABAAEAAAACAAIAAYABwAIAAAAAAAMAA==</value>
					</parameter>
					<parameter authoringApp="PremierePro">
					<parameterid>2</parameterid>
					<name></name>
					<IsTimeVarying>false</IsTimeVarying>
					<ParameterControlType>11</ParameterControlType>
					<LowerBound>false</LowerBound>
					<UpperBound>false</UpperBound>
					<value>-91445760000000000,false,0,0,0,0,0,0</value>
					</parameter>
					<parameter authoringApp="PremierePro">
					<parameterid>3</parameterid>
					<name></name>
					<IsTimeVarying>false</IsTimeVarying>
					<value>-91445760000000000,0.5:0.5,0,0,0,0,0,0,5,4,0,0,0,0</value>
					</parameter>
					<parameter authoringApp="PremierePro">
					<parameterid>4</parameterid>
					<name></name>
					<IsTimeVarying>false</IsTimeVarying>
					<ParameterControlType>2</ParameterControlType>
					<LowerBound>0</LowerBound>
					<UpperBound>4000</UpperBound>
					<value>-91445760000000000,100.,0,0,0,0,0,0</value>
					</parameter>
					<parameter authoringApp="PremierePro">
					<parameterid>8</parameterid>
					<name></name>
					<IsTimeVarying>false</IsTimeVarying>
					<ParameterControlType>2</ParameterControlType>
					<LowerBound>0</LowerBound>
					<UpperBound>100</UpperBound>
					<value>-91445760000000000,100.,0,0,0,0,0,0</value>
					</parameter>
					</effect>
					</filter>
					<logginginfo>
					<description></description>
					<scene></scene>
					<shottake></shottake>
					<lognote></lognote>
					<good></good>
					<originalvideofilename></originalvideofilename>
					<originalaudiofilename></originalaudiofilename>
					</logginginfo>
					<colorinfo>
					<lut></lut>
					<lut1></lut1>
					<asc_sop></asc_sop>
					<asc_sat></asc_sat>
					<lut2></lut2>
					</colorinfo>
					<labels>
					</labels>
					</clipitem>
					<clipitem frameBlend="FALSE" id="clipitem-303">
					<masterclipid>masterclip-223</masterclipid>
					<name></name>
					<enabled>TRUE</enabled>
					<duration>2582774</duration>
					<rate>
					
					                                    <timebase>60</timebase>
					                                    <ntsc>TRUE</ntsc>
					                                
					</rate>
					<start>1739</start>
					<end>1799</end>
					<in>1739</in>
					<out>1799</out>
					<pproTicksIn>914456774963789</pproTicksIn>
					<pproTicksOut>914677708529577</pproTicksOut>
					<alphatype>straight</alphatype>
					<pixelaspectratio>square</pixelaspectratio>
					<anamorphic>FALSE</anamorphic>
					<file id="file-222">
					<name></name>
					<mediaSource>GraphicAndType</mediaSource>
					<rate>
					<timebase>60</timebase>
					<ntsc>TRUE</ntsc>
					</rate>
					<timecode>
					<rate>
					<timebase>60</timebase>
					<ntsc>TRUE</ntsc>
					</rate>
					<string>00:00:00:00</string>
					<frame>0</frame>
					<displayformat>NDF</displayformat>
					</timecode>
					<media>
					<video>
					<samplecharacteristics>
					<rate>
					<timebase>60</timebase>
					<ntsc>TRUE</ntsc>
					</rate>
					<width>1080</width>
					<height>1920</height>
					<anamorphic>FALSE</anamorphic>
					<pixelaspectratio>square</pixelaspectratio>
					<fielddominance>none</fielddominance>
					</samplecharacteristics>
					</video>
					</media>
					</file>
					<filter>
					<effect>
					<name></name>
					<effectid>GraphicAndType</effectid>
					<effectcategory>graphic</effectcategory>
					<effecttype>filter</effecttype>
					<mediatype>video</mediatype>
					<pproBypass>false</pproBypass>
					<parameter authoringApp="PremierePro">
					<parameterid>1</parameterid>
					<name></name>
					<hash>025b1101-ead6-0ca2-1feb-caf3000001fc</hash>
					<value>5AEAAAAAAABEMyIRDAAAAAAABgAKAAQABgAAAGQAAAAAAF4ASAAQAAwARABAADwAOAAAAAAAAAAAADQAMwAsAAAAKAAkACAAAAAAAAAAAAAAAAAAHAAAAAAAGgAAAAAAAAAUAAAAAAAAAAAAAAAAAAAAAAAAAAgAAAAAABsABwBeAAAAAAAAAUAAAABQAAAAbAAAAAIAAAAAAAEAAQAAAAAAQEEAAMBAAABAQAAAyEIAAAABIAAAAAIAAAACAAAAAAA2QwCASkTw/v//9P7///j+//8S////AAAAAAEAAAAEAAAAEQAAAEhHUFNvZWlLYWt1cG9wdGFpAAAAAQAAAAwAAAAIAAwABAAIAAgAAAAIAAAAUAAAAA8AAADvvIEAAAAAAAAAAAAAAAAAAAA2ACQAAAAgABwAAAAAABsAFAAAAAAAAAAAAAAAAAAAAAAAAAAAABAAAAAAAAAADAAAAAgABAA2AAAAAgAAABwAAAAcAAAAHAAAAAAAIEEAAAABaAAAAE3PAEOw////tP///wEAAAAUAAAAEAAaAAgABwAMAAAAEAAUABAAAAAAAAABHAAAAAAAoEEcAAAAAgAAAAAACgAIAAUABgAHAAoAAAAADAD//P///wQABAAEAAAACAAIAAYABwAIAAAAAAAMAA==</value>
					</parameter>
					<parameter authoringApp="PremierePro">
					<parameterid>2</parameterid>
					<name></name>
					<IsTimeVarying>false</IsTimeVarying>
					<ParameterControlType>11</ParameterControlType>
					<LowerBound>false</LowerBound>
					<UpperBound>false</UpperBound>
					<value>-91445760000000000,false,0,0,0,0,0,0</value>
					</parameter>
					<parameter authoringApp="PremierePro">
					<parameterid>3</parameterid>
					<name></name>
					<IsTimeVarying>false</IsTimeVarying>
					<value>-91445760000000000,0.5:0.5,0,0,0,0,0,0,5,4,0,0,0,0</value>
					</parameter>
					<parameter authoringApp="PremierePro">
					<parameterid>4</parameterid>
					<name></name>
					<IsTimeVarying>false</IsTimeVarying>
					<ParameterControlType>2</ParameterControlType>
					<LowerBound>0</LowerBound>
					<UpperBound>4000</UpperBound>
					<value>-91445760000000000,100.,0,0,0,0,0,0</value>
					</parameter>
					<parameter authoringApp="PremierePro">
					<parameterid>8</parameterid>
					<name></name>
					<IsTimeVarying>false</IsTimeVarying>
					<ParameterControlType>2</ParameterControlType>
					<LowerBound>0</LowerBound>
					<UpperBound>100</UpperBound>
					<value>-91445760000000000,100.,0,0,0,0,0,0</value>
					</parameter>
					</effect>
					</filter>
					<logginginfo>
					<description></description>
					<scene></scene>
					<shottake></shottake>
					<lognote></lognote>
					<good></good>
					<originalvideofilename></originalvideofilename>
					<originalaudiofilename></originalaudiofilename>
					</logginginfo>
					<colorinfo>
					<lut></lut>
					<lut1></lut1>
					<asc_sop></asc_sop>
					<asc_sat></asc_sat>
					<lut2></lut2>
					</colorinfo>
					<labels>
					</labels>
					</clipitem>
					<clipitem frameBlend="FALSE" id="clipitem-313">
					<masterclipid>masterclip-233</masterclipid>
					<name></name>
					<enabled>TRUE</enabled>
					<duration>2582774</duration>
					<rate>
					
					                                    <timebase>60</timebase>
					                                    <ntsc>TRUE</ntsc>
					                                
					</rate>
					<start>1817</start>
					<end>1877</end>
					<in>1817</in>
					<out>1877</out>
					<pproTicksIn>914456774963789</pproTicksIn>
					<pproTicksOut>914677708529577</pproTicksOut>
					<alphatype>straight</alphatype>
					<pixelaspectratio>square</pixelaspectratio>
					<anamorphic>FALSE</anamorphic>
					<file id="file-232">
					<name></name>
					<mediaSource>GraphicAndType</mediaSource>
					<rate>
					<timebase>60</timebase>
					<ntsc>TRUE</ntsc>
					</rate>
					<timecode>
					<rate>
					<timebase>60</timebase>
					<ntsc>TRUE</ntsc>
					</rate>
					<string>00:00:00:00</string>
					<frame>0</frame>
					<displayformat>NDF</displayformat>
					</timecode>
					<media>
					<video>
					<samplecharacteristics>
					<rate>
					<timebase>60</timebase>
					<ntsc>TRUE</ntsc>
					</rate>
					<width>1080</width>
					<height>1920</height>
					<anamorphic>FALSE</anamorphic>
					<pixelaspectratio>square</pixelaspectratio>
					<fielddominance>none</fielddominance>
					</samplecharacteristics>
					</video>
					</media>
					</file>
					<filter>
					<effect>
					<name></name>
					<effectid>GraphicAndType</effectid>
					<effectcategory>graphic</effectcategory>
					<effecttype>filter</effecttype>
					<mediatype>video</mediatype>
					<pproBypass>false</pproBypass>
					<parameter authoringApp="PremierePro">
					<parameterid>1</parameterid>
					<name></name>
					<hash>025b1101-ead6-0ca2-1feb-caf3000001fc</hash>
					<value>5AEAAAAAAABEMyIRDAAAAAAABgAKAAQABgAAAGQAAAAAAF4ASAAQAAwARABAADwAOAAAAAAAAAAAADQAMwAsAAAAKAAkACAAAAAAAAAAAAAAAAAAHAAAAAAAGgAAAAAAAAAUAAAAAAAAAAAAAAAAAAAAAAAAAAgAAAAAABsABwBeAAAAAAAAAUAAAABQAAAAbAAAAAIAAAAAAAEAAQAAAAAAQEEAAMBAAABAQAAAyEIAAAABIAAAAAIAAAACAAAAAAA2QwCASkTw/v//9P7///j+//8S////AAAAAAEAAAAEAAAAEQAAAEhHUFNvZWlLYWt1cG9wdGFpAAAAAQAAAAwAAAAIAAwABAAIAAgAAAAIAAAAUAAAAA8AAADvvIEAAAAAAAAAAAAAAAAAAAA2ACQAAAAgABwAAAAAABsAFAAAAAAAAAAAAAAAAAAAAAAAAAAAABAAAAAAAAAADAAAAAgABAA2AAAAAgAAABwAAAAcAAAAHAAAAAAAIEEAAAABaAAAAE3PAEOw////tP///wEAAAAUAAAAEAAaAAgABwAMAAAAEAAUABAAAAAAAAABHAAAAAAAoEEcAAAAAgAAAAAACgAIAAUABgAHAAoAAAAADAD//P///wQABAAEAAAACAAIAAYABwAIAAAAAAAMAA==</value>
					</parameter>
					<parameter authoringApp="PremierePro">
					<parameterid>2</parameterid>
					<name></name>
					<IsTimeVarying>false</IsTimeVarying>
					<ParameterControlType>11</ParameterControlType>
					<LowerBound>false</LowerBound>
					<UpperBound>false</UpperBound>
					<value>-91445760000000000,false,0,0,0,0,0,0</value>
					</parameter>
					<parameter authoringApp="PremierePro">
					<parameterid>3</parameterid>
					<name></name>
					<IsTimeVarying>false</IsTimeVarying>
					<value>-91445760000000000,0.5:0.5,0,0,0,0,0,0,5,4,0,0,0,0</value>
					</parameter>
					<parameter authoringApp="PremierePro">
					<parameterid>4</parameterid>
					<name></name>
					<IsTimeVarying>false</IsTimeVarying>
					<ParameterControlType>2</ParameterControlType>
					<LowerBound>0</LowerBound>
					<UpperBound>4000</UpperBound>
					<value>-91445760000000000,100.,0,0,0,0,0,0</value>
					</parameter>
					<parameter authoringApp="PremierePro">
					<parameterid>8</parameterid>
					<name></name>
					<IsTimeVarying>false</IsTimeVarying>
					<ParameterControlType>2</ParameterControlType>
					<LowerBound>0</LowerBound>
					<UpperBound>100</UpperBound>
					<value>-91445760000000000,100.,0,0,0,0,0,0</value>
					</parameter>
					</effect>
					</filter>
					<logginginfo>
					<description></description>
					<scene></scene>
					<shottake></shottake>
					<lognote></lognote>
					<good></good>
					<originalvideofilename></originalvideofilename>
					<originalaudiofilename></originalaudiofilename>
					</logginginfo>
					<colorinfo>
					<lut></lut>
					<lut1></lut1>
					<asc_sop></asc_sop>
					<asc_sat></asc_sat>
					<lut2></lut2>
					</colorinfo>
					<labels>
					</labels>
					</clipitem>
					<clipitem frameBlend="FALSE" id="clipitem-325">
					<masterclipid>masterclip-245</masterclipid>
					<name></name>
					<enabled>TRUE</enabled>
					<duration>2582774</duration>
					<rate>
					
					                                    <timebase>60</timebase>
					                                    <ntsc>TRUE</ntsc>
					                                
					</rate>
					<start>1919</start>
					<end>1985</end>
					<in>1919</in>
					<out>1985</out>
					<pproTicksIn>914456774963789</pproTicksIn>
					<pproTicksOut>914677708529577</pproTicksOut>
					<alphatype>straight</alphatype>
					<pixelaspectratio>square</pixelaspectratio>
					<anamorphic>FALSE</anamorphic>
					<file id="file-244">
					<name></name>
					<mediaSource>GraphicAndType</mediaSource>
					<rate>
					<timebase>60</timebase>
					<ntsc>TRUE</ntsc>
					</rate>
					<timecode>
					<rate>
					<timebase>60</timebase>
					<ntsc>TRUE</ntsc>
					</rate>
					<string>00:00:00:00</string>
					<frame>0</frame>
					<displayformat>NDF</displayformat>
					</timecode>
					<media>
					<video>
					<samplecharacteristics>
					<rate>
					<timebase>60</timebase>
					<ntsc>TRUE</ntsc>
					</rate>
					<width>1080</width>
					<height>1920</height>
					<anamorphic>FALSE</anamorphic>
					<pixelaspectratio>square</pixelaspectratio>
					<fielddominance>none</fielddominance>
					</samplecharacteristics>
					</video>
					</media>
					</file>
					<filter>
					<effect>
					<name></name>
					<effectid>GraphicAndType</effectid>
					<effectcategory>graphic</effectcategory>
					<effecttype>filter</effecttype>
					<mediatype>video</mediatype>
					<pproBypass>false</pproBypass>
					<parameter authoringApp="PremierePro">
					<parameterid>1</parameterid>
					<name></name>
					<hash>025b1101-ead6-0ca2-1feb-caf3000001fc</hash>
					<value>5AEAAAAAAABEMyIRDAAAAAAABgAKAAQABgAAAGQAAAAAAF4ASAAQAAwARABAADwAOAAAAAAAAAAAADQAMwAsAAAAKAAkACAAAAAAAAAAAAAAAAAAHAAAAAAAGgAAAAAAAAAUAAAAAAAAAAAAAAAAAAAAAAAAAAgAAAAAABsABwBeAAAAAAAAAUAAAABQAAAAbAAAAAIAAAAAAAEAAQAAAAAAQEEAAMBAAABAQAAAyEIAAAABIAAAAAIAAAACAAAAAAA2QwCASkTw/v//9P7///j+//8S////AAAAAAEAAAAEAAAAEQAAAEhHUFNvZWlLYWt1cG9wdGFpAAAAAQAAAAwAAAAIAAwABAAIAAgAAAAIAAAAUAAAAA8AAADvvIEAAAAAAAAAAAAAAAAAAAA2ACQAAAAgABwAAAAAABsAFAAAAAAAAAAAAAAAAAAAAAAAAAAAABAAAAAAAAAADAAAAAgABAA2AAAAAgAAABwAAAAcAAAAHAAAAAAAIEEAAAABaAAAAE3PAEOw////tP///wEAAAAUAAAAEAAaAAgABwAMAAAAEAAUABAAAAAAAAABHAAAAAAAoEEcAAAAAgAAAAAACgAIAAUABgAHAAoAAAAADAD//P///wQABAAEAAAACAAIAAYABwAIAAAAAAAMAA==</value>
					</parameter>
					<parameter authoringApp="PremierePro">
					<parameterid>2</parameterid>
					<name></name>
					<IsTimeVarying>false</IsTimeVarying>
					<ParameterControlType>11</ParameterControlType>
					<LowerBound>false</LowerBound>
					<UpperBound>false</UpperBound>
					<value>-91445760000000000,false,0,0,0,0,0,0</value>
					</parameter>
					<parameter authoringApp="PremierePro">
					<parameterid>3</parameterid>
					<name></name>
					<IsTimeVarying>false</IsTimeVarying>
					<value>-91445760000000000,0.5:0.5,0,0,0,0,0,0,5,4,0,0,0,0</value>
					</parameter>
					<parameter authoringApp="PremierePro">
					<parameterid>4</parameterid>
					<name></name>
					<IsTimeVarying>false</IsTimeVarying>
					<ParameterControlType>2</ParameterControlType>
					<LowerBound>0</LowerBound>
					<UpperBound>4000</UpperBound>
					<value>-91445760000000000,100.,0,0,0,0,0,0</value>
					</parameter>
					<parameter authoringApp="PremierePro">
					<parameterid>8</parameterid>
					<name></name>
					<IsTimeVarying>false</IsTimeVarying>
					<ParameterControlType>2</ParameterControlType>
					<LowerBound>0</LowerBound>
					<UpperBound>100</UpperBound>
					<value>-91445760000000000,100.,0,0,0,0,0,0</value>
					</parameter>
					</effect>
					</filter>
					<logginginfo>
					<description></description>
					<scene></scene>
					<shottake></shottake>
					<lognote></lognote>
					<good></good>
					<originalvideofilename></originalvideofilename>
					<originalaudiofilename></originalaudiofilename>
					</logginginfo>
					<colorinfo>
					<lut></lut>
					<lut1></lut1>
					<asc_sop></asc_sop>
					<asc_sat></asc_sat>
					<lut2></lut2>
					</colorinfo>
					<labels>
					</labels>
					</clipitem>
					<clipitem frameBlend="FALSE" id="clipitem-345">
					<masterclipid>masterclip-265</masterclipid>
					<name></name>
					<enabled>TRUE</enabled>
					<duration>2582774</duration>
					<rate>
					
					                                    <timebase>60</timebase>
					                                    <ntsc>TRUE</ntsc>
					                                
					</rate>
					<start>2195</start>
					<end>2255</end>
					<in>2195</in>
					<out>2255</out>
					<pproTicksIn>914456774963789</pproTicksIn>
					<pproTicksOut>914677708529577</pproTicksOut>
					<alphatype>straight</alphatype>
					<pixelaspectratio>square</pixelaspectratio>
					<anamorphic>FALSE</anamorphic>
					<file id="file-264">
					<name></name>
					<mediaSource>GraphicAndType</mediaSource>
					<rate>
					<timebase>60</timebase>
					<ntsc>TRUE</ntsc>
					</rate>
					<timecode>
					<rate>
					<timebase>60</timebase>
					<ntsc>TRUE</ntsc>
					</rate>
					<string>00:00:00:00</string>
					<frame>0</frame>
					<displayformat>NDF</displayformat>
					</timecode>
					<media>
					<video>
					<samplecharacteristics>
					<rate>
					<timebase>60</timebase>
					<ntsc>TRUE</ntsc>
					</rate>
					<width>1080</width>
					<height>1920</height>
					<anamorphic>FALSE</anamorphic>
					<pixelaspectratio>square</pixelaspectratio>
					<fielddominance>none</fielddominance>
					</samplecharacteristics>
					</video>
					</media>
					</file>
					<filter>
					<effect>
					<name></name>
					<effectid>GraphicAndType</effectid>
					<effectcategory>graphic</effectcategory>
					<effecttype>filter</effecttype>
					<mediatype>video</mediatype>
					<pproBypass>false</pproBypass>
					<parameter authoringApp="PremierePro">
					<parameterid>1</parameterid>
					<name></name>
					<hash>025b1101-ead6-0ca2-1feb-caf3000001fc</hash>
					<value>5AEAAAAAAABEMyIRDAAAAAAABgAKAAQABgAAAGQAAAAAAF4ASAAQAAwARABAADwAOAAAAAAAAAAAADQAMwAsAAAAKAAkACAAAAAAAAAAAAAAAAAAHAAAAAAAGgAAAAAAAAAUAAAAAAAAAAAAAAAAAAAAAAAAAAgAAAAAABsABwBeAAAAAAAAAUAAAABQAAAAbAAAAAIAAAAAAAEAAQAAAAAAQEEAAMBAAABAQAAAyEIAAAABIAAAAAIAAAACAAAAAAA2QwCASkTw/v//9P7///j+//8S////AAAAAAEAAAAEAAAAEQAAAEhHUFNvZWlLYWt1cG9wdGFpAAAAAQAAAAwAAAAIAAwABAAIAAgAAAAIAAAAUAAAAA8AAADvvIEAAAAAAAAAAAAAAAAAAAA2ACQAAAAgABwAAAAAABsAFAAAAAAAAAAAAAAAAAAAAAAAAAAAABAAAAAAAAAADAAAAAgABAA2AAAAAgAAABwAAAAcAAAAHAAAAAAAIEEAAAABaAAAAE3PAEOw////tP///wEAAAAUAAAAEAAaAAgABwAMAAAAEAAUABAAAAAAAAABHAAAAAAAoEEcAAAAAgAAAAAACgAIAAUABgAHAAoAAAAADAD//P///wQABAAEAAAACAAIAAYABwAIAAAAAAAMAA==</value>
					</parameter>
					<parameter authoringApp="PremierePro">
					<parameterid>2</parameterid>
					<name></name>
					<IsTimeVarying>false</IsTimeVarying>
					<ParameterControlType>11</ParameterControlType>
					<LowerBound>false</LowerBound>
					<UpperBound>false</UpperBound>
					<value>-91445760000000000,false,0,0,0,0,0,0</value>
					</parameter>
					<parameter authoringApp="PremierePro">
					<parameterid>3</parameterid>
					<name></name>
					<IsTimeVarying>false</IsTimeVarying>
					<value>-91445760000000000,0.5:0.5,0,0,0,0,0,0,5,4,0,0,0,0</value>
					</parameter>
					<parameter authoringApp="PremierePro">
					<parameterid>4</parameterid>
					<name></name>
					<IsTimeVarying>false</IsTimeVarying>
					<ParameterControlType>2</ParameterControlType>
					<LowerBound>0</LowerBound>
					<UpperBound>4000</UpperBound>
					<value>-91445760000000000,100.,0,0,0,0,0,0</value>
					</parameter>
					<parameter authoringApp="PremierePro">
					<parameterid>8</parameterid>
					<name></name>
					<IsTimeVarying>false</IsTimeVarying>
					<ParameterControlType>2</ParameterControlType>
					<LowerBound>0</LowerBound>
					<UpperBound>100</UpperBound>
					<value>-91445760000000000,100.,0,0,0,0,0,0</value>
					</parameter>
					</effect>
					</filter>
					<logginginfo>
					<description></description>
					<scene></scene>
					<shottake></shottake>
					<lognote></lognote>
					<good></good>
					<originalvideofilename></originalvideofilename>
					<originalaudiofilename></originalaudiofilename>
					</logginginfo>
					<colorinfo>
					<lut></lut>
					<lut1></lut1>
					<asc_sop></asc_sop>
					<asc_sat></asc_sat>
					<lut2></lut2>
					</colorinfo>
					<labels>
					</labels>
					</clipitem>
					<clipitem frameBlend="FALSE" id="clipitem-369">
					<masterclipid>masterclip-289</masterclipid>
					<name></name>
					<enabled>TRUE</enabled>
					<duration>2582774</duration>
					<rate>
					
					                                    <timebase>60</timebase>
					                                    <ntsc>TRUE</ntsc>
					                                
					</rate>
					<start>2561</start>
					<end>2627</end>
					<in>2561</in>
					<out>2627</out>
					<pproTicksIn>914456774963789</pproTicksIn>
					<pproTicksOut>914677708529577</pproTicksOut>
					<alphatype>straight</alphatype>
					<pixelaspectratio>square</pixelaspectratio>
					<anamorphic>FALSE</anamorphic>
					<file id="file-288">
					<name></name>
					<mediaSource>GraphicAndType</mediaSource>
					<rate>
					<timebase>60</timebase>
					<ntsc>TRUE</ntsc>
					</rate>
					<timecode>
					<rate>
					<timebase>60</timebase>
					<ntsc>TRUE</ntsc>
					</rate>
					<string>00:00:00:00</string>
					<frame>0</frame>
					<displayformat>NDF</displayformat>
					</timecode>
					<media>
					<video>
					<samplecharacteristics>
					<rate>
					<timebase>60</timebase>
					<ntsc>TRUE</ntsc>
					</rate>
					<width>1080</width>
					<height>1920</height>
					<anamorphic>FALSE</anamorphic>
					<pixelaspectratio>square</pixelaspectratio>
					<fielddominance>none</fielddominance>
					</samplecharacteristics>
					</video>
					</media>
					</file>
					<filter>
					<effect>
					<name></name>
					<effectid>GraphicAndType</effectid>
					<effectcategory>graphic</effectcategory>
					<effecttype>filter</effecttype>
					<mediatype>video</mediatype>
					<pproBypass>false</pproBypass>
					<parameter authoringApp="PremierePro">
					<parameterid>1</parameterid>
					<name></name>
					<hash>025b1101-ead6-0ca2-1feb-caf3000001fc</hash>
					<value>5AEAAAAAAABEMyIRDAAAAAAABgAKAAQABgAAAGQAAAAAAF4ASAAQAAwARABAADwAOAAAAAAAAAAAADQAMwAsAAAAKAAkACAAAAAAAAAAAAAAAAAAHAAAAAAAGgAAAAAAAAAUAAAAAAAAAAAAAAAAAAAAAAAAAAgAAAAAABsABwBeAAAAAAAAAUAAAABQAAAAbAAAAAIAAAAAAAEAAQAAAAAAQEEAAMBAAABAQAAAyEIAAAABIAAAAAIAAAACAAAAAAA2QwCASkTw/v//9P7///j+//8S////AAAAAAEAAAAEAAAAEQAAAEhHUFNvZWlLYWt1cG9wdGFpAAAAAQAAAAwAAAAIAAwABAAIAAgAAAAIAAAAUAAAAA8AAADvvIEAAAAAAAAAAAAAAAAAAAA2ACQAAAAgABwAAAAAABsAFAAAAAAAAAAAAAAAAAAAAAAAAAAAABAAAAAAAAAADAAAAAgABAA2AAAAAgAAABwAAAAcAAAAHAAAAAAAIEEAAAABaAAAAE3PAEOw////tP///wEAAAAUAAAAEAAaAAgABwAMAAAAEAAUABAAAAAAAAABHAAAAAAAoEEcAAAAAgAAAAAACgAIAAUABgAHAAoAAAAADAD//P///wQABAAEAAAACAAIAAYABwAIAAAAAAAMAA==</value>
					</parameter>
					<parameter authoringApp="PremierePro">
					<parameterid>2</parameterid>
					<name></name>
					<IsTimeVarying>false</IsTimeVarying>
					<ParameterControlType>11</ParameterControlType>
					<LowerBound>false</LowerBound>
					<UpperBound>false</UpperBound>
					<value>-91445760000000000,false,0,0,0,0,0,0</value>
					</parameter>
					<parameter authoringApp="PremierePro">
					<parameterid>3</parameterid>
					<name></name>
					<IsTimeVarying>false</IsTimeVarying>
					<value>-91445760000000000,0.5:0.5,0,0,0,0,0,0,5,4,0,0,0,0</value>
					</parameter>
					<parameter authoringApp="PremierePro">
					<parameterid>4</parameterid>
					<name></name>
					<IsTimeVarying>false</IsTimeVarying>
					<ParameterControlType>2</ParameterControlType>
					<LowerBound>0</LowerBound>
					<UpperBound>4000</UpperBound>
					<value>-91445760000000000,100.,0,0,0,0,0,0</value>
					</parameter>
					<parameter authoringApp="PremierePro">
					<parameterid>8</parameterid>
					<name></name>
					<IsTimeVarying>false</IsTimeVarying>
					<ParameterControlType>2</ParameterControlType>
					<LowerBound>0</LowerBound>
					<UpperBound>100</UpperBound>
					<value>-91445760000000000,100.,0,0,0,0,0,0</value>
					</parameter>
					</effect>
					</filter>
					<logginginfo>
					<description></description>
					<scene></scene>
					<shottake></shottake>
					<lognote></lognote>
					<good></good>
					<originalvideofilename></originalvideofilename>
					<originalaudiofilename></originalaudiofilename>
					</logginginfo>
					<colorinfo>
					<lut></lut>
					<lut1></lut1>
					<asc_sop></asc_sop>
					<asc_sat></asc_sat>
					<lut2></lut2>
					</colorinfo>
					<labels>
					</labels>
					</clipitem>
					<clipitem frameBlend="FALSE" id="clipitem-378">
					<masterclipid>masterclip-298</masterclipid>
					<name></name>
					<enabled>TRUE</enabled>
					<duration>2582774</duration>
					<rate>
					
					                                    <timebase>60</timebase>
					                                    <ntsc>TRUE</ntsc>
					                                
					</rate>
					<start>2645</start>
					<end>2711</end>
					<in>2645</in>
					<out>2711</out>
					<pproTicksIn>914456774963789</pproTicksIn>
					<pproTicksOut>914677708529577</pproTicksOut>
					<alphatype>straight</alphatype>
					<pixelaspectratio>square</pixelaspectratio>
					<anamorphic>FALSE</anamorphic>
					<file id="file-297">
					<name></name>
					<mediaSource>GraphicAndType</mediaSource>
					<rate>
					<timebase>60</timebase>
					<ntsc>TRUE</ntsc>
					</rate>
					<timecode>
					<rate>
					<timebase>60</timebase>
					<ntsc>TRUE</ntsc>
					</rate>
					<string>00:00:00:00</string>
					<frame>0</frame>
					<displayformat>NDF</displayformat>
					</timecode>
					<media>
					<video>
					<samplecharacteristics>
					<rate>
					<timebase>60</timebase>
					<ntsc>TRUE</ntsc>
					</rate>
					<width>1080</width>
					<height>1920</height>
					<anamorphic>FALSE</anamorphic>
					<pixelaspectratio>square</pixelaspectratio>
					<fielddominance>none</fielddominance>
					</samplecharacteristics>
					</video>
					</media>
					</file>
					<filter>
					<effect>
					<name></name>
					<effectid>GraphicAndType</effectid>
					<effectcategory>graphic</effectcategory>
					<effecttype>filter</effecttype>
					<mediatype>video</mediatype>
					<pproBypass>false</pproBypass>
					<parameter authoringApp="PremierePro">
					<parameterid>1</parameterid>
					<name></name>
					<hash>025b1101-ead6-0ca2-1feb-caf3000001fc</hash>
					<value>5AEAAAAAAABEMyIRDAAAAAAABgAKAAQABgAAAGQAAAAAAF4ASAAQAAwARABAADwAOAAAAAAAAAAAADQAMwAsAAAAKAAkACAAAAAAAAAAAAAAAAAAHAAAAAAAGgAAAAAAAAAUAAAAAAAAAAAAAAAAAAAAAAAAAAgAAAAAABsABwBeAAAAAAAAAUAAAABQAAAAbAAAAAIAAAAAAAEAAQAAAAAAQEEAAMBAAABAQAAAyEIAAAABIAAAAAIAAAACAAAAAAA2QwCASkTw/v//9P7///j+//8S////AAAAAAEAAAAEAAAAEQAAAEhHUFNvZWlLYWt1cG9wdGFpAAAAAQAAAAwAAAAIAAwABAAIAAgAAAAIAAAAUAAAAA8AAADvvIEAAAAAAAAAAAAAAAAAAAA2ACQAAAAgABwAAAAAABsAFAAAAAAAAAAAAAAAAAAAAAAAAAAAABAAAAAAAAAADAAAAAgABAA2AAAAAgAAABwAAAAcAAAAHAAAAAAAIEEAAAABaAAAAE3PAEOw////tP///wEAAAAUAAAAEAAaAAgABwAMAAAAEAAUABAAAAAAAAABHAAAAAAAoEEcAAAAAgAAAAAACgAIAAUABgAHAAoAAAAADAD//P///wQABAAEAAAACAAIAAYABwAIAAAAAAAMAA==</value>
					</parameter>
					<parameter authoringApp="PremierePro">
					<parameterid>2</parameterid>
					<name></name>
					<IsTimeVarying>false</IsTimeVarying>
					<ParameterControlType>11</ParameterControlType>
					<LowerBound>false</LowerBound>
					<UpperBound>false</UpperBound>
					<value>-91445760000000000,false,0,0,0,0,0,0</value>
					</parameter>
					<parameter authoringApp="PremierePro">
					<parameterid>3</parameterid>
					<name></name>
					<IsTimeVarying>false</IsTimeVarying>
					<value>-91445760000000000,0.5:0.5,0,0,0,0,0,0,5,4,0,0,0,0</value>
					</parameter>
					<parameter authoringApp="PremierePro">
					<parameterid>4</parameterid>
					<name></name>
					<IsTimeVarying>false</IsTimeVarying>
					<ParameterControlType>2</ParameterControlType>
					<LowerBound>0</LowerBound>
					<UpperBound>4000</UpperBound>
					<value>-91445760000000000,100.,0,0,0,0,0,0</value>
					</parameter>
					<parameter authoringApp="PremierePro">
					<parameterid>8</parameterid>
					<name></name>
					<IsTimeVarying>false</IsTimeVarying>
					<ParameterControlType>2</ParameterControlType>
					<LowerBound>0</LowerBound>
					<UpperBound>100</UpperBound>
					<value>-91445760000000000,100.,0,0,0,0,0,0</value>
					</parameter>
					</effect>
					</filter>
					<logginginfo>
					<description></description>
					<scene></scene>
					<shottake></shottake>
					<lognote></lognote>
					<good></good>
					<originalvideofilename></originalvideofilename>
					<originalaudiofilename></originalaudiofilename>
					</logginginfo>
					<colorinfo>
					<lut></lut>
					<lut1></lut1>
					<asc_sop></asc_sop>
					<asc_sat></asc_sat>
					<lut2></lut2>
					</colorinfo>
					<labels>
					</labels>
					</clipitem>
					<clipitem frameBlend="FALSE" id="clipitem-387">
					<masterclipid>masterclip-307</masterclipid>
					<name></name>
					<enabled>TRUE</enabled>
					<duration>2582774</duration>
					<rate>
					
					                                    <timebase>60</timebase>
					                                    <ntsc>TRUE</ntsc>
					                                
					</rate>
					<start>2735</start>
					<end>2801</end>
					<in>2735</in>
					<out>2801</out>
					<pproTicksIn>914456774963789</pproTicksIn>
					<pproTicksOut>914677708529577</pproTicksOut>
					<alphatype>straight</alphatype>
					<pixelaspectratio>square</pixelaspectratio>
					<anamorphic>FALSE</anamorphic>
					<file id="file-306">
					<name></name>
					<mediaSource>GraphicAndType</mediaSource>
					<rate>
					<timebase>60</timebase>
					<ntsc>TRUE</ntsc>
					</rate>
					<timecode>
					<rate>
					<timebase>60</timebase>
					<ntsc>TRUE</ntsc>
					</rate>
					<string>00:00:00:00</string>
					<frame>0</frame>
					<displayformat>NDF</displayformat>
					</timecode>
					<media>
					<video>
					<samplecharacteristics>
					<rate>
					<timebase>60</timebase>
					<ntsc>TRUE</ntsc>
					</rate>
					<width>1080</width>
					<height>1920</height>
					<anamorphic>FALSE</anamorphic>
					<pixelaspectratio>square</pixelaspectratio>
					<fielddominance>none</fielddominance>
					</samplecharacteristics>
					</video>
					</media>
					</file>
					<filter>
					<effect>
					<name></name>
					<effectid>GraphicAndType</effectid>
					<effectcategory>graphic</effectcategory>
					<effecttype>filter</effecttype>
					<mediatype>video</mediatype>
					<pproBypass>false</pproBypass>
					<parameter authoringApp="PremierePro">
					<parameterid>1</parameterid>
					<name></name>
					<hash>025b1101-ead6-0ca2-1feb-caf3000001fc</hash>
					<value>5AEAAAAAAABEMyIRDAAAAAAABgAKAAQABgAAAGQAAAAAAF4ASAAQAAwARABAADwAOAAAAAAAAAAAADQAMwAsAAAAKAAkACAAAAAAAAAAAAAAAAAAHAAAAAAAGgAAAAAAAAAUAAAAAAAAAAAAAAAAAAAAAAAAAAgAAAAAABsABwBeAAAAAAAAAUAAAABQAAAAbAAAAAIAAAAAAAEAAQAAAAAAQEEAAMBAAABAQAAAyEIAAAABIAAAAAIAAAACAAAAAAA2QwCASkTw/v//9P7///j+//8S////AAAAAAEAAAAEAAAAEQAAAEhHUFNvZWlLYWt1cG9wdGFpAAAAAQAAAAwAAAAIAAwABAAIAAgAAAAIAAAAUAAAAA8AAADvvIEAAAAAAAAAAAAAAAAAAAA2ACQAAAAgABwAAAAAABsAFAAAAAAAAAAAAAAAAAAAAAAAAAAAABAAAAAAAAAADAAAAAgABAA2AAAAAgAAABwAAAAcAAAAHAAAAAAAIEEAAAABaAAAAE3PAEOw////tP///wEAAAAUAAAAEAAaAAgABwAMAAAAEAAUABAAAAAAAAABHAAAAAAAoEEcAAAAAgAAAAAACgAIAAUABgAHAAoAAAAADAD//P///wQABAAEAAAACAAIAAYABwAIAAAAAAAMAA==</value>
					</parameter>
					<parameter authoringApp="PremierePro">
					<parameterid>2</parameterid>
					<name></name>
					<IsTimeVarying>false</IsTimeVarying>
					<ParameterControlType>11</ParameterControlType>
					<LowerBound>false</LowerBound>
					<UpperBound>false</UpperBound>
					<value>-91445760000000000,false,0,0,0,0,0,0</value>
					</parameter>
					<parameter authoringApp="PremierePro">
					<parameterid>3</parameterid>
					<name></name>
					<IsTimeVarying>false</IsTimeVarying>
					<value>-91445760000000000,0.5:0.5,0,0,0,0,0,0,5,4,0,0,0,0</value>
					</parameter>
					<parameter authoringApp="PremierePro">
					<parameterid>4</parameterid>
					<name></name>
					<IsTimeVarying>false</IsTimeVarying>
					<ParameterControlType>2</ParameterControlType>
					<LowerBound>0</LowerBound>
					<UpperBound>4000</UpperBound>
					<value>-91445760000000000,100.,0,0,0,0,0,0</value>
					</parameter>
					<parameter authoringApp="PremierePro">
					<parameterid>8</parameterid>
					<name></name>
					<IsTimeVarying>false</IsTimeVarying>
					<ParameterControlType>2</ParameterControlType>
					<LowerBound>0</LowerBound>
					<UpperBound>100</UpperBound>
					<value>-91445760000000000,100.,0,0,0,0,0,0</value>
					</parameter>
					</effect>
					</filter>
					<logginginfo>
					<description></description>
					<scene></scene>
					<shottake></shottake>
					<lognote></lognote>
					<good></good>
					<originalvideofilename></originalvideofilename>
					<originalaudiofilename></originalaudiofilename>
					</logginginfo>
					<colorinfo>
					<lut></lut>
					<lut1></lut1>
					<asc_sop></asc_sop>
					<asc_sat></asc_sat>
					<lut2></lut2>
					</colorinfo>
					<labels>
					</labels>
					</clipitem>
					<clipitem frameBlend="FALSE" id="clipitem-399">
					<masterclipid>masterclip-319</masterclipid>
					<name></name>
					<enabled>TRUE</enabled>
					<duration>2582774</duration>
					<rate>
					
					                                    <timebase>60</timebase>
					                                    <ntsc>TRUE</ntsc>
					                                
					</rate>
					<start>2837</start>
					<end>2903</end>
					<in>2837</in>
					<out>2903</out>
					<pproTicksIn>914456774963789</pproTicksIn>
					<pproTicksOut>914677708529577</pproTicksOut>
					<alphatype>straight</alphatype>
					<pixelaspectratio>square</pixelaspectratio>
					<anamorphic>FALSE</anamorphic>
					<file id="file-318">
					<name></name>
					<mediaSource>GraphicAndType</mediaSource>
					<rate>
					<timebase>60</timebase>
					<ntsc>TRUE</ntsc>
					</rate>
					<timecode>
					<rate>
					<timebase>60</timebase>
					<ntsc>TRUE</ntsc>
					</rate>
					<string>00:00:00:00</string>
					<frame>0</frame>
					<displayformat>NDF</displayformat>
					</timecode>
					<media>
					<video>
					<samplecharacteristics>
					<rate>
					<timebase>60</timebase>
					<ntsc>TRUE</ntsc>
					</rate>
					<width>1080</width>
					<height>1920</height>
					<anamorphic>FALSE</anamorphic>
					<pixelaspectratio>square</pixelaspectratio>
					<fielddominance>none</fielddominance>
					</samplecharacteristics>
					</video>
					</media>
					</file>
					<filter>
					<effect>
					<name></name>
					<effectid>GraphicAndType</effectid>
					<effectcategory>graphic</effectcategory>
					<effecttype>filter</effecttype>
					<mediatype>video</mediatype>
					<pproBypass>false</pproBypass>
					<parameter authoringApp="PremierePro">
					<parameterid>1</parameterid>
					<name></name>
					<hash>025b1101-ead6-0ca2-1feb-caf3000001fc</hash>
					<value>5AEAAAAAAABEMyIRDAAAAAAABgAKAAQABgAAAGQAAAAAAF4ASAAQAAwARABAADwAOAAAAAAAAAAAADQAMwAsAAAAKAAkACAAAAAAAAAAAAAAAAAAHAAAAAAAGgAAAAAAAAAUAAAAAAAAAAAAAAAAAAAAAAAAAAgAAAAAABsABwBeAAAAAAAAAUAAAABQAAAAbAAAAAIAAAAAAAEAAQAAAAAAQEEAAMBAAABAQAAAyEIAAAABIAAAAAIAAAACAAAAAAA2QwCASkTw/v//9P7///j+//8S////AAAAAAEAAAAEAAAAEQAAAEhHUFNvZWlLYWt1cG9wdGFpAAAAAQAAAAwAAAAIAAwABAAIAAgAAAAIAAAAUAAAAA8AAADvvIEAAAAAAAAAAAAAAAAAAAA2ACQAAAAgABwAAAAAABsAFAAAAAAAAAAAAAAAAAAAAAAAAAAAABAAAAAAAAAADAAAAAgABAA2AAAAAgAAABwAAAAcAAAAHAAAAAAAIEEAAAABaAAAAE3PAEOw////tP///wEAAAAUAAAAEAAaAAgABwAMAAAAEAAUABAAAAAAAAABHAAAAAAAoEEcAAAAAgAAAAAACgAIAAUABgAHAAoAAAAADAD//P///wQABAAEAAAACAAIAAYABwAIAAAAAAAMAA==</value>
					</parameter>
					<parameter authoringApp="PremierePro">
					<parameterid>2</parameterid>
					<name></name>
					<IsTimeVarying>false</IsTimeVarying>
					<ParameterControlType>11</ParameterControlType>
					<LowerBound>false</LowerBound>
					<UpperBound>false</UpperBound>
					<value>-91445760000000000,false,0,0,0,0,0,0</value>
					</parameter>
					<parameter authoringApp="PremierePro">
					<parameterid>3</parameterid>
					<name></name>
					<IsTimeVarying>false</IsTimeVarying>
					<value>-91445760000000000,0.5:0.5,0,0,0,0,0,0,5,4,0,0,0,0</value>
					</parameter>
					<parameter authoringApp="PremierePro">
					<parameterid>4</parameterid>
					<name></name>
					<IsTimeVarying>false</IsTimeVarying>
					<ParameterControlType>2</ParameterControlType>
					<LowerBound>0</LowerBound>
					<UpperBound>4000</UpperBound>
					<value>-91445760000000000,100.,0,0,0,0,0,0</value>
					</parameter>
					<parameter authoringApp="PremierePro">
					<parameterid>8</parameterid>
					<name></name>
					<IsTimeVarying>false</IsTimeVarying>
					<ParameterControlType>2</ParameterControlType>
					<LowerBound>0</LowerBound>
					<UpperBound>100</UpperBound>
					<value>-91445760000000000,100.,0,0,0,0,0,0</value>
					</parameter>
					</effect>
					</filter>
					<logginginfo>
					<description></description>
					<scene></scene>
					<shottake></shottake>
					<lognote></lognote>
					<good></good>
					<originalvideofilename></originalvideofilename>
					<originalaudiofilename></originalaudiofilename>
					</logginginfo>
					<colorinfo>
					<lut></lut>
					<lut1></lut1>
					<asc_sop></asc_sop>
					<asc_sat></asc_sat>
					<lut2></lut2>
					</colorinfo>
					<labels>
					</labels>
					</clipitem>
					<clipitem frameBlend="FALSE" id="clipitem-416">
					<masterclipid>masterclip-336</masterclipid>
					<name></name>
					<enabled>TRUE</enabled>
					<duration>2582774</duration>
					<rate>
					
					                                    <timebase>60</timebase>
					                                    <ntsc>TRUE</ntsc>
					                                
					</rate>
					<start>3035</start>
					<end>3059</end>
					<in>3035</in>
					<out>3059</out>
					<pproTicksIn>914456774963789</pproTicksIn>
					<pproTicksOut>914677708529577</pproTicksOut>
					<alphatype>straight</alphatype>
					<pixelaspectratio>square</pixelaspectratio>
					<anamorphic>FALSE</anamorphic>
					<file id="file-335">
					<name></name>
					<mediaSource>GraphicAndType</mediaSource>
					<rate>
					<timebase>60</timebase>
					<ntsc>TRUE</ntsc>
					</rate>
					<timecode>
					<rate>
					<timebase>60</timebase>
					<ntsc>TRUE</ntsc>
					</rate>
					<string>00:00:00:00</string>
					<frame>0</frame>
					<displayformat>NDF</displayformat>
					</timecode>
					<media>
					<video>
					<samplecharacteristics>
					<rate>
					<timebase>60</timebase>
					<ntsc>TRUE</ntsc>
					</rate>
					<width>1080</width>
					<height>1920</height>
					<anamorphic>FALSE</anamorphic>
					<pixelaspectratio>square</pixelaspectratio>
					<fielddominance>none</fielddominance>
					</samplecharacteristics>
					</video>
					</media>
					</file>
					<filter>
					<effect>
					<name>w</name>
					<effectid>GraphicAndType</effectid>
					<effectcategory>graphic</effectcategory>
					<effecttype>filter</effecttype>
					<mediatype>video</mediatype>
					<pproBypass>false</pproBypass>
					<parameter authoringApp="PremierePro">
					<parameterid>1</parameterid>
					<name></name>
					<hash>025b1101-ead6-0ca2-1feb-caf3000001fc</hash>
					<value>5AEAAAAAAABEMyIRDAAAAAAABgAKAAQABgAAAGQAAAAAAF4ASAAQAAwARABAADwAOAAAAAAAAAAAADQAMwAsAAAAKAAkACAAAAAAAAAAAAAAAAAAHAAAAAAAGgAAAAAAAAAUAAAAAAAAAAAAAAAAAAAAAAAAAAgAAAAAABsABwBeAAAAAAAAAUAAAABQAAAAbAAAAAIAAAAAAAEAAQAAAAAAQEEAAMBAAABAQAAAyEIAAAABIAAAAAIAAAACAAAAAAA2QwCASkTw/v//9P7///j+//8S////AAAAAAEAAAAEAAAAEQAAAEhHUFNvZWlLYWt1cG9wdGFpAAAAAQAAAAwAAAAIAAwABAAIAAgAAAAIAAAAUAAAAA8AAAB3AAAAAAAAAAAAAAAAAAAAAAA2ACQAAAAgABwAAAAAABsAFAAAAAAAAAAAAAAAAAAAAAAAAAAAABAAAAAAAAAADAAAAAgABAA2AAAAAgAAABwAAAAcAAAAHAAAAAAAIEEAAAABaAAAAE3PAEOw////tP///wEAAAAUAAAAEAAaAAgABwAMAAAAEAAUABAAAAAAAAABHAAAAAAAoEEcAAAAAgAAAAAACgAIAAUABgAHAAoAAAAADAD//P///wQABAAEAAAACAAIAAYABwAIAAAAAAAMAA==</value>
					</parameter>
					<parameter authoringApp="PremierePro">
					<parameterid>2</parameterid>
					<name></name>
					<IsTimeVarying>false</IsTimeVarying>
					<ParameterControlType>11</ParameterControlType>
					<LowerBound>false</LowerBound>
					<UpperBound>false</UpperBound>
					<value>-91445760000000000,false,0,0,0,0,0,0</value>
					</parameter>
					<parameter authoringApp="PremierePro">
					<parameterid>3</parameterid>
					<name></name>
					<IsTimeVarying>false</IsTimeVarying>
					<value>-91445760000000000,0.5:0.5,0,0,0,0,0,0,5,4,0,0,0,0</value>
					</parameter>
					<parameter authoringApp="PremierePro">
					<parameterid>4</parameterid>
					<name></name>
					<IsTimeVarying>false</IsTimeVarying>
					<ParameterControlType>2</ParameterControlType>
					<LowerBound>0</LowerBound>
					<UpperBound>4000</UpperBound>
					<value>-91445760000000000,100.,0,0,0,0,0,0</value>
					</parameter>
					<parameter authoringApp="PremierePro">
					<parameterid>8</parameterid>
					<name></name>
					<IsTimeVarying>false</IsTimeVarying>
					<ParameterControlType>2</ParameterControlType>
					<LowerBound>0</LowerBound>
					<UpperBound>100</UpperBound>
					<value>-91445760000000000,100.,0,0,0,0,0,0</value>
					</parameter>
					</effect>
					</filter>
					<logginginfo>
					<description></description>
					<scene></scene>
					<shottake></shottake>
					<lognote></lognote>
					<good></good>
					<originalvideofilename></originalvideofilename>
					<originalaudiofilename></originalaudiofilename>
					</logginginfo>
					<colorinfo>
					<lut></lut>
					<lut1></lut1>
					<asc_sop></asc_sop>
					<asc_sat></asc_sat>
					<lut2></lut2>
					</colorinfo>
					<labels>
					</labels>
					</clipitem>
					<clipitem frameBlend="FALSE" id="clipitem-427">
					<masterclipid>masterclip-347</masterclipid>
					<name></name>
					<enabled>TRUE</enabled>
					<duration>2582774</duration>
					<rate>
					
					                                    <timebase>60</timebase>
					                                    <ntsc>TRUE</ntsc>
					                                
					</rate>
					<start>3149</start>
					<end>3209</end>
					<in>3149</in>
					<out>3209</out>
					<pproTicksIn>914456774963789</pproTicksIn>
					<pproTicksOut>914677708529577</pproTicksOut>
					<alphatype>straight</alphatype>
					<pixelaspectratio>square</pixelaspectratio>
					<anamorphic>FALSE</anamorphic>
					<file id="file-346">
					<name></name>
					<mediaSource>GraphicAndType</mediaSource>
					<rate>
					<timebase>60</timebase>
					<ntsc>TRUE</ntsc>
					</rate>
					<timecode>
					<rate>
					<timebase>60</timebase>
					<ntsc>TRUE</ntsc>
					</rate>
					<string>00:00:00:00</string>
					<frame>0</frame>
					<displayformat>NDF</displayformat>
					</timecode>
					<media>
					<video>
					<samplecharacteristics>
					<rate>
					<timebase>60</timebase>
					<ntsc>TRUE</ntsc>
					</rate>
					<width>1080</width>
					<height>1920</height>
					<anamorphic>FALSE</anamorphic>
					<pixelaspectratio>square</pixelaspectratio>
					<fielddominance>none</fielddominance>
					</samplecharacteristics>
					</video>
					</media>
					</file>
					<filter>
					<effect>
					<name></name>
					<effectid>GraphicAndType</effectid>
					<effectcategory>graphic</effectcategory>
					<effecttype>filter</effecttype>
					<mediatype>video</mediatype>
					<pproBypass>false</pproBypass>
					<parameter authoringApp="PremierePro">
					<parameterid>1</parameterid>
					<name></name>
					<hash>025b1101-ead6-0ca2-1feb-caf3000001fc</hash>
					<value>5AEAAAAAAABEMyIRDAAAAAAABgAKAAQABgAAAGQAAAAAAF4ASAAQAAwARABAADwAOAAAAAAAAAAAADQAMwAsAAAAKAAkACAAAAAAAAAAAAAAAAAAHAAAAAAAGgAAAAAAAAAUAAAAAAAAAAAAAAAAAAAAAAAAAAgAAAAAABsABwBeAAAAAAAAAUAAAABQAAAAbAAAAAIAAAAAAAEAAQAAAAAAQEEAAMBAAABAQAAAyEIAAAABIAAAAAIAAAACAAAAAAA2QwCASkTw/v//9P7///j+//8S////AAAAAAEAAAAEAAAAEQAAAEhHUFNvZWlLYWt1cG9wdGFpAAAAAQAAAAwAAAAIAAwABAAIAAgAAAAIAAAAUAAAAA8AAADvvIEAAAAAAAAAAAAAAAAAAAA2ACQAAAAgABwAAAAAABsAFAAAAAAAAAAAAAAAAAAAAAAAAAAAABAAAAAAAAAADAAAAAgABAA2AAAAAgAAABwAAAAcAAAAHAAAAAAAIEEAAAABaAAAAE3PAEOw////tP///wEAAAAUAAAAEAAaAAgABwAMAAAAEAAUABAAAAAAAAABHAAAAAAAoEEcAAAAAgAAAAAACgAIAAUABgAHAAoAAAAADAD//P///wQABAAEAAAACAAIAAYABwAIAAAAAAAMAA==</value>
					</parameter>
					<parameter authoringApp="PremierePro">
					<parameterid>2</parameterid>
					<name></name>
					<IsTimeVarying>false</IsTimeVarying>
					<ParameterControlType>11</ParameterControlType>
					<LowerBound>false</LowerBound>
					<UpperBound>false</UpperBound>
					<value>-91445760000000000,false,0,0,0,0,0,0</value>
					</parameter>
					<parameter authoringApp="PremierePro">
					<parameterid>3</parameterid>
					<name></name>
					<IsTimeVarying>false</IsTimeVarying>
					<value>-91445760000000000,0.5:0.5,0,0,0,0,0,0,5,4,0,0,0,0</value>
					</parameter>
					<parameter authoringApp="PremierePro">
					<parameterid>4</parameterid>
					<name></name>
					<IsTimeVarying>false</IsTimeVarying>
					<ParameterControlType>2</ParameterControlType>
					<LowerBound>0</LowerBound>
					<UpperBound>4000</UpperBound>
					<value>-91445760000000000,100.,0,0,0,0,0,0</value>
					</parameter>
					<parameter authoringApp="PremierePro">
					<parameterid>8</parameterid>
					<name></name>
					<IsTimeVarying>false</IsTimeVarying>
					<ParameterControlType>2</ParameterControlType>
					<LowerBound>0</LowerBound>
					<UpperBound>100</UpperBound>
					<value>-91445760000000000,100.,0,0,0,0,0,0</value>
					</parameter>
					</effect>
					</filter>
					<logginginfo>
					<description></description>
					<scene></scene>
					<shottake></shottake>
					<lognote></lognote>
					<good></good>
					<originalvideofilename></originalvideofilename>
					<originalaudiofilename></originalaudiofilename>
					</logginginfo>
					<colorinfo>
					<lut></lut>
					<lut1></lut1>
					<asc_sop></asc_sop>
					<asc_sat></asc_sat>
					<lut2></lut2>
					</colorinfo>
					<labels>
					</labels>
					</clipitem>
					<clipitem frameBlend="FALSE" id="clipitem-435">
					<masterclipid>masterclip-355</masterclipid>
					<name></name>
					<enabled>TRUE</enabled>
					<duration>2582774</duration>
					<rate>
					
					                                    <timebase>60</timebase>
					                                    <ntsc>TRUE</ntsc>
					                                
					</rate>
					<start>3215</start>
					<end>3275</end>
					<in>3215</in>
					<out>3275</out>
					<pproTicksIn>914456774963789</pproTicksIn>
					<pproTicksOut>914677708529577</pproTicksOut>
					<alphatype>straight</alphatype>
					<pixelaspectratio>square</pixelaspectratio>
					<anamorphic>FALSE</anamorphic>
					<file id="file-354">
					<name></name>
					<mediaSource>GraphicAndType</mediaSource>
					<rate>
					<timebase>60</timebase>
					<ntsc>TRUE</ntsc>
					</rate>
					<timecode>
					<rate>
					<timebase>60</timebase>
					<ntsc>TRUE</ntsc>
					</rate>
					<string>00:00:00:00</string>
					<frame>0</frame>
					<displayformat>NDF</displayformat>
					</timecode>
					<media>
					<video>
					<samplecharacteristics>
					<rate>
					<timebase>60</timebase>
					<ntsc>TRUE</ntsc>
					</rate>
					<width>1080</width>
					<height>1920</height>
					<anamorphic>FALSE</anamorphic>
					<pixelaspectratio>square</pixelaspectratio>
					<fielddominance>none</fielddominance>
					</samplecharacteristics>
					</video>
					</media>
					</file>
					<filter>
					<effect>
					<name></name>
					<effectid>GraphicAndType</effectid>
					<effectcategory>graphic</effectcategory>
					<effecttype>filter</effecttype>
					<mediatype>video</mediatype>
					<pproBypass>false</pproBypass>
					<parameter authoringApp="PremierePro">
					<parameterid>1</parameterid>
					<name></name>
					<hash>025b1101-ead6-0ca2-1feb-caf3000001fc</hash>
					<value>5AEAAAAAAABEMyIRDAAAAAAABgAKAAQABgAAAGQAAAAAAF4ASAAQAAwARABAADwAOAAAAAAAAAAAADQAMwAsAAAAKAAkACAAAAAAAAAAAAAAAAAAHAAAAAAAGgAAAAAAAAAUAAAAAAAAAAAAAAAAAAAAAAAAAAgAAAAAABsABwBeAAAAAAAAAUAAAABQAAAAbAAAAAIAAAAAAAEAAQAAAAAAQEEAAMBAAABAQAAAyEIAAAABIAAAAAIAAAACAAAAAAA2QwCASkTw/v//9P7///j+//8S////AAAAAAEAAAAEAAAAEQAAAEhHUFNvZWlLYWt1cG9wdGFpAAAAAQAAAAwAAAAIAAwABAAIAAgAAAAIAAAAUAAAAA8AAADvvIEAAAAAAAAAAAAAAAAAAAA2ACQAAAAgABwAAAAAABsAFAAAAAAAAAAAAAAAAAAAAAAAAAAAABAAAAAAAAAADAAAAAgABAA2AAAAAgAAABwAAAAcAAAAHAAAAAAAIEEAAAABaAAAAE3PAEOw////tP///wEAAAAUAAAAEAAaAAgABwAMAAAAEAAUABAAAAAAAAABHAAAAAAAoEEcAAAAAgAAAAAACgAIAAUABgAHAAoAAAAADAD//P///wQABAAEAAAACAAIAAYABwAIAAAAAAAMAA==</value>
					</parameter>
					<parameter authoringApp="PremierePro">
					<parameterid>2</parameterid>
					<name></name>
					<IsTimeVarying>false</IsTimeVarying>
					<ParameterControlType>11</ParameterControlType>
					<LowerBound>false</LowerBound>
					<UpperBound>false</UpperBound>
					<value>-91445760000000000,false,0,0,0,0,0,0</value>
					</parameter>
					<parameter authoringApp="PremierePro">
					<parameterid>3</parameterid>
					<name></name>
					<IsTimeVarying>false</IsTimeVarying>
					<value>-91445760000000000,0.5:0.5,0,0,0,0,0,0,5,4,0,0,0,0</value>
					</parameter>
					<parameter authoringApp="PremierePro">
					<parameterid>4</parameterid>
					<name></name>
					<IsTimeVarying>false</IsTimeVarying>
					<ParameterControlType>2</ParameterControlType>
					<LowerBound>0</LowerBound>
					<UpperBound>4000</UpperBound>
					<value>-91445760000000000,100.,0,0,0,0,0,0</value>
					</parameter>
					<parameter authoringApp="PremierePro">
					<parameterid>8</parameterid>
					<name></name>
					<IsTimeVarying>false</IsTimeVarying>
					<ParameterControlType>2</ParameterControlType>
					<LowerBound>0</LowerBound>
					<UpperBound>100</UpperBound>
					<value>-91445760000000000,100.,0,0,0,0,0,0</value>
					</parameter>
					</effect>
					</filter>
					<logginginfo>
					<description></description>
					<scene></scene>
					<shottake></shottake>
					<lognote></lognote>
					<good></good>
					<originalvideofilename></originalvideofilename>
					<originalaudiofilename></originalaudiofilename>
					</logginginfo>
					<colorinfo>
					<lut></lut>
					<lut1></lut1>
					<asc_sop></asc_sop>
					<asc_sat></asc_sat>
					<lut2></lut2>
					</colorinfo>
					<labels>
					</labels>
					</clipitem>
					<clipitem frameBlend="FALSE" id="clipitem-449">
					<masterclipid>masterclip-369</masterclipid>
					<name></name>
					<enabled>TRUE</enabled>
					<duration>2582774</duration>
					<rate>
					
					                                    <timebase>60</timebase>
					                                    <ntsc>TRUE</ntsc>
					                                
					</rate>
					<start>3335</start>
					<end>3395</end>
					<in>3335</in>
					<out>3395</out>
					<pproTicksIn>914456774963789</pproTicksIn>
					<pproTicksOut>914677708529577</pproTicksOut>
					<alphatype>straight</alphatype>
					<pixelaspectratio>square</pixelaspectratio>
					<anamorphic>FALSE</anamorphic>
					<file id="file-368">
					<name></name>
					<mediaSource>GraphicAndType</mediaSource>
					<rate>
					<timebase>60</timebase>
					<ntsc>TRUE</ntsc>
					</rate>
					<timecode>
					<rate>
					<timebase>60</timebase>
					<ntsc>TRUE</ntsc>
					</rate>
					<string>00:00:00:00</string>
					<frame>0</frame>
					<displayformat>NDF</displayformat>
					</timecode>
					<media>
					<video>
					<samplecharacteristics>
					<rate>
					<timebase>60</timebase>
					<ntsc>TRUE</ntsc>
					</rate>
					<width>1080</width>
					<height>1920</height>
					<anamorphic>FALSE</anamorphic>
					<pixelaspectratio>square</pixelaspectratio>
					<fielddominance>none</fielddominance>
					</samplecharacteristics>
					</video>
					</media>
					</file>
					<filter>
					<effect>
					<name></name>
					<effectid>GraphicAndType</effectid>
					<effectcategory>graphic</effectcategory>
					<effecttype>filter</effecttype>
					<mediatype>video</mediatype>
					<pproBypass>false</pproBypass>
					<parameter authoringApp="PremierePro">
					<parameterid>1</parameterid>
					<name></name>
					<hash>025b1101-ead6-0ca2-1feb-caf3000001fc</hash>
					<value>5AEAAAAAAABEMyIRDAAAAAAABgAKAAQABgAAAGQAAAAAAF4ASAAQAAwARABAADwAOAAAAAAAAAAAADQAMwAsAAAAKAAkACAAAAAAAAAAAAAAAAAAHAAAAAAAGgAAAAAAAAAUAAAAAAAAAAAAAAAAAAAAAAAAAAgAAAAAABsABwBeAAAAAAAAAUAAAABQAAAAbAAAAAIAAAAAAAEAAQAAAAAAQEEAAMBAAABAQAAAyEIAAAABIAAAAAIAAAACAAAAAAA2QwCASkTw/v//9P7///j+//8S////AAAAAAEAAAAEAAAAEQAAAEhHUFNvZWlLYWt1cG9wdGFpAAAAAQAAAAwAAAAIAAwABAAIAAgAAAAIAAAAUAAAAA8AAADvvIEAAAAAAAAAAAAAAAAAAAA2ACQAAAAgABwAAAAAABsAFAAAAAAAAAAAAAAAAAAAAAAAAAAAABAAAAAAAAAADAAAAAgABAA2AAAAAgAAABwAAAAcAAAAHAAAAAAAIEEAAAABaAAAAE3PAEOw////tP///wEAAAAUAAAAEAAaAAgABwAMAAAAEAAUABAAAAAAAAABHAAAAAAAoEEcAAAAAgAAAAAACgAIAAUABgAHAAoAAAAADAD//P///wQABAAEAAAACAAIAAYABwAIAAAAAAAMAA==</value>
					</parameter>
					<parameter authoringApp="PremierePro">
					<parameterid>2</parameterid>
					<name></name>
					<IsTimeVarying>false</IsTimeVarying>
					<ParameterControlType>11</ParameterControlType>
					<LowerBound>false</LowerBound>
					<UpperBound>false</UpperBound>
					<value>-91445760000000000,false,0,0,0,0,0,0</value>
					</parameter>
					<parameter authoringApp="PremierePro">
					<parameterid>3</parameterid>
					<name></name>
					<IsTimeVarying>false</IsTimeVarying>
					<value>-91445760000000000,0.5:0.5,0,0,0,0,0,0,5,4,0,0,0,0</value>
					</parameter>
					<parameter authoringApp="PremierePro">
					<parameterid>4</parameterid>
					<name></name>
					<IsTimeVarying>false</IsTimeVarying>
					<ParameterControlType>2</ParameterControlType>
					<LowerBound>0</LowerBound>
					<UpperBound>4000</UpperBound>
					<value>-91445760000000000,100.,0,0,0,0,0,0</value>
					</parameter>
					<parameter authoringApp="PremierePro">
					<parameterid>8</parameterid>
					<name></name>
					<IsTimeVarying>false</IsTimeVarying>
					<ParameterControlType>2</ParameterControlType>
					<LowerBound>0</LowerBound>
					<UpperBound>100</UpperBound>
					<value>-91445760000000000,100.,0,0,0,0,0,0</value>
					</parameter>
					</effect>
					</filter>
					<logginginfo>
					<description></description>
					<scene></scene>
					<shottake></shottake>
					<lognote></lognote>
					<good></good>
					<originalvideofilename></originalvideofilename>
					<originalaudiofilename></originalaudiofilename>
					</logginginfo>
					<colorinfo>
					<lut></lut>
					<lut1></lut1>
					<asc_sop></asc_sop>
					<asc_sat></asc_sat>
					<lut2></lut2>
					</colorinfo>
					<labels>
					</labels>
					</clipitem>
					<clipitem frameBlend="FALSE" id="clipitem-456">
					<masterclipid>masterclip-376</masterclipid>
					<name></name>
					<enabled>TRUE</enabled>
					<duration>2582774</duration>
					<rate>
					
					                                    <timebase>60</timebase>
					                                    <ntsc>TRUE</ntsc>
					                                
					</rate>
					<start>3395</start>
					<end>3461</end>
					<in>3395</in>
					<out>3461</out>
					<pproTicksIn>914456774963789</pproTicksIn>
					<pproTicksOut>914677708529577</pproTicksOut>
					<alphatype>straight</alphatype>
					<pixelaspectratio>square</pixelaspectratio>
					<anamorphic>FALSE</anamorphic>
					<file id="file-375">
					<name></name>
					<mediaSource>GraphicAndType</mediaSource>
					<rate>
					<timebase>60</timebase>
					<ntsc>TRUE</ntsc>
					</rate>
					<timecode>
					<rate>
					<timebase>60</timebase>
					<ntsc>TRUE</ntsc>
					</rate>
					<string>00:00:00:00</string>
					<frame>0</frame>
					<displayformat>NDF</displayformat>
					</timecode>
					<media>
					<video>
					<samplecharacteristics>
					<rate>
					<timebase>60</timebase>
					<ntsc>TRUE</ntsc>
					</rate>
					<width>1080</width>
					<height>1920</height>
					<anamorphic>FALSE</anamorphic>
					<pixelaspectratio>square</pixelaspectratio>
					<fielddominance>none</fielddominance>
					</samplecharacteristics>
					</video>
					</media>
					</file>
					<filter>
					<effect>
					<name></name>
					<effectid>GraphicAndType</effectid>
					<effectcategory>graphic</effectcategory>
					<effecttype>filter</effecttype>
					<mediatype>video</mediatype>
					<pproBypass>false</pproBypass>
					<parameter authoringApp="PremierePro">
					<parameterid>1</parameterid>
					<name></name>
					<hash>025b1101-ead6-0ca2-1feb-caf3000001fc</hash>
					<value>5AEAAAAAAABEMyIRDAAAAAAABgAKAAQABgAAAGQAAAAAAF4ASAAQAAwARABAADwAOAAAAAAAAAAAADQAMwAsAAAAKAAkACAAAAAAAAAAAAAAAAAAHAAAAAAAGgAAAAAAAAAUAAAAAAAAAAAAAAAAAAAAAAAAAAgAAAAAABsABwBeAAAAAAAAAUAAAABQAAAAbAAAAAIAAAAAAAEAAQAAAAAAQEEAAMBAAABAQAAAyEIAAAABIAAAAAIAAAACAAAAAAA2QwCASkTw/v//9P7///j+//8S////AAAAAAEAAAAEAAAAEQAAAEhHUFNvZWlLYWt1cG9wdGFpAAAAAQAAAAwAAAAIAAwABAAIAAgAAAAIAAAAUAAAAA8AAADvvIEAAAAAAAAAAAAAAAAAAAA2ACQAAAAgABwAAAAAABsAFAAAAAAAAAAAAAAAAAAAAAAAAAAAABAAAAAAAAAADAAAAAgABAA2AAAAAgAAABwAAAAcAAAAHAAAAAAAIEEAAAABaAAAAE3PAEOw////tP///wEAAAAUAAAAEAAaAAgABwAMAAAAEAAUABAAAAAAAAABHAAAAAAAoEEcAAAAAgAAAAAACgAIAAUABgAHAAoAAAAADAD//P///wQABAAEAAAACAAIAAYABwAIAAAAAAAMAA==</value>
					</parameter>
					<parameter authoringApp="PremierePro">
					<parameterid>2</parameterid>
					<name></name>
					<IsTimeVarying>false</IsTimeVarying>
					<ParameterControlType>11</ParameterControlType>
					<LowerBound>false</LowerBound>
					<UpperBound>false</UpperBound>
					<value>-91445760000000000,false,0,0,0,0,0,0</value>
					</parameter>
					<parameter authoringApp="PremierePro">
					<parameterid>3</parameterid>
					<name></name>
					<IsTimeVarying>false</IsTimeVarying>
					<value>-91445760000000000,0.5:0.5,0,0,0,0,0,0,5,4,0,0,0,0</value>
					</parameter>
					<parameter authoringApp="PremierePro">
					<parameterid>4</parameterid>
					<name></name>
					<IsTimeVarying>false</IsTimeVarying>
					<ParameterControlType>2</ParameterControlType>
					<LowerBound>0</LowerBound>
					<UpperBound>4000</UpperBound>
					<value>-91445760000000000,100.,0,0,0,0,0,0</value>
					</parameter>
					<parameter authoringApp="PremierePro">
					<parameterid>8</parameterid>
					<name></name>
					<IsTimeVarying>false</IsTimeVarying>
					<ParameterControlType>2</ParameterControlType>
					<LowerBound>0</LowerBound>
					<UpperBound>100</UpperBound>
					<value>-91445760000000000,100.,0,0,0,0,0,0</value>
					</parameter>
					</effect>
					</filter>
					<logginginfo>
					<description></description>
					<scene></scene>
					<shottake></shottake>
					<lognote></lognote>
					<good></good>
					<originalvideofilename></originalvideofilename>
					<originalaudiofilename></originalaudiofilename>
					</logginginfo>
					<colorinfo>
					<lut></lut>
					<lut1></lut1>
					<asc_sop></asc_sop>
					<asc_sat></asc_sat>
					<lut2></lut2>
					</colorinfo>
					<labels>
					</labels>
					</clipitem>
					<clipitem frameBlend="FALSE" id="clipitem-463">
					<masterclipid>masterclip-383</masterclipid>
					<name></name>
					<enabled>TRUE</enabled>
					<duration>2582774</duration>
					<rate>
					
					                                    <timebase>60</timebase>
					                                    <ntsc>TRUE</ntsc>
					                                
					</rate>
					<start>3479</start>
					<end>3538</end>
					<in>3479</in>
					<out>3538</out>
					<pproTicksIn>914456774963789</pproTicksIn>
					<pproTicksOut>914677708529577</pproTicksOut>
					<alphatype>straight</alphatype>
					<pixelaspectratio>square</pixelaspectratio>
					<anamorphic>FALSE</anamorphic>
					<file id="file-382">
					<name></name>
					<mediaSource>GraphicAndType</mediaSource>
					<rate>
					<timebase>60</timebase>
					<ntsc>TRUE</ntsc>
					</rate>
					<timecode>
					<rate>
					<timebase>60</timebase>
					<ntsc>TRUE</ntsc>
					</rate>
					<string>00:00:00:00</string>
					<frame>0</frame>
					<displayformat>NDF</displayformat>
					</timecode>
					<media>
					<video>
					<samplecharacteristics>
					<rate>
					<timebase>60</timebase>
					<ntsc>TRUE</ntsc>
					</rate>
					<width>1080</width>
					<height>1920</height>
					<anamorphic>FALSE</anamorphic>
					<pixelaspectratio>square</pixelaspectratio>
					<fielddominance>none</fielddominance>
					</samplecharacteristics>
					</video>
					</media>
					</file>
					<filter>
					<effect>
					<name></name>
					<effectid>GraphicAndType</effectid>
					<effectcategory>graphic</effectcategory>
					<effecttype>filter</effecttype>
					<mediatype>video</mediatype>
					<pproBypass>false</pproBypass>
					<parameter authoringApp="PremierePro">
					<parameterid>1</parameterid>
					<name></name>
					<hash>025b1101-ead6-0ca2-1feb-caf3000001fc</hash>
					<value>5AEAAAAAAABEMyIRDAAAAAAABgAKAAQABgAAAGQAAAAAAF4ASAAQAAwARABAADwAOAAAAAAAAAAAADQAMwAsAAAAKAAkACAAAAAAAAAAAAAAAAAAHAAAAAAAGgAAAAAAAAAUAAAAAAAAAAAAAAAAAAAAAAAAAAgAAAAAABsABwBeAAAAAAAAAUAAAABQAAAAbAAAAAIAAAAAAAEAAQAAAAAAQEEAAMBAAABAQAAAyEIAAAABIAAAAAIAAAACAAAAAAA2QwCASkTw/v//9P7///j+//8S////AAAAAAEAAAAEAAAAEQAAAEhHUFNvZWlLYWt1cG9wdGFpAAAAAQAAAAwAAAAIAAwABAAIAAgAAAAIAAAAUAAAAA8AAADvvIEAAAAAAAAAAAAAAAAAAAA2ACQAAAAgABwAAAAAABsAFAAAAAAAAAAAAAAAAAAAAAAAAAAAABAAAAAAAAAADAAAAAgABAA2AAAAAgAAABwAAAAcAAAAHAAAAAAAIEEAAAABaAAAAE3PAEOw////tP///wEAAAAUAAAAEAAaAAgABwAMAAAAEAAUABAAAAAAAAABHAAAAAAAoEEcAAAAAgAAAAAACgAIAAUABgAHAAoAAAAADAD//P///wQABAAEAAAACAAIAAYABwAIAAAAAAAMAA==</value>
					</parameter>
					<parameter authoringApp="PremierePro">
					<parameterid>2</parameterid>
					<name></name>
					<IsTimeVarying>false</IsTimeVarying>
					<ParameterControlType>11</ParameterControlType>
					<LowerBound>false</LowerBound>
					<UpperBound>false</UpperBound>
					<value>-91445760000000000,false,0,0,0,0,0,0</value>
					</parameter>
					<parameter authoringApp="PremierePro">
					<parameterid>3</parameterid>
					<name></name>
					<IsTimeVarying>false</IsTimeVarying>
					<value>-91445760000000000,0.5:0.5,0,0,0,0,0,0,5,4,0,0,0,0</value>
					</parameter>
					<parameter authoringApp="PremierePro">
					<parameterid>4</parameterid>
					<name></name>
					<IsTimeVarying>false</IsTimeVarying>
					<ParameterControlType>2</ParameterControlType>
					<LowerBound>0</LowerBound>
					<UpperBound>4000</UpperBound>
					<value>-91445760000000000,100.,0,0,0,0,0,0</value>
					</parameter>
					<parameter authoringApp="PremierePro">
					<parameterid>8</parameterid>
					<name></name>
					<IsTimeVarying>false</IsTimeVarying>
					<ParameterControlType>2</ParameterControlType>
					<LowerBound>0</LowerBound>
					<UpperBound>100</UpperBound>
					<value>-91445760000000000,100.,0,0,0,0,0,0</value>
					</parameter>
					</effect>
					</filter>
					<logginginfo>
					<description></description>
					<scene></scene>
					<shottake></shottake>
					<lognote></lognote>
					<good></good>
					<originalvideofilename></originalvideofilename>
					<originalaudiofilename></originalaudiofilename>
					</logginginfo>
					<colorinfo>
					<lut></lut>
					<lut1></lut1>
					<asc_sop></asc_sop>
					<asc_sat></asc_sat>
					<lut2></lut2>
					</colorinfo>
					<labels>
					</labels>
					</clipitem>
					<clipitem frameBlend="FALSE" id="clipitem-478">
					<masterclipid>masterclip-398</masterclipid>
					<name></name>
					<enabled>TRUE</enabled>
					<duration>2582774</duration>
					<rate>
					
					                                    <timebase>60</timebase>
					                                    <ntsc>TRUE</ntsc>
					                                
					</rate>
					<start>3652</start>
					<end>3718</end>
					<in>3652</in>
					<out>3718</out>
					<pproTicksIn>914456774963789</pproTicksIn>
					<pproTicksOut>914677708529577</pproTicksOut>
					<alphatype>straight</alphatype>
					<pixelaspectratio>square</pixelaspectratio>
					<anamorphic>FALSE</anamorphic>
					<file id="file-397">
					<name></name>
					<mediaSource>GraphicAndType</mediaSource>
					<rate>
					<timebase>60</timebase>
					<ntsc>TRUE</ntsc>
					</rate>
					<timecode>
					<rate>
					<timebase>60</timebase>
					<ntsc>TRUE</ntsc>
					</rate>
					<string>00:00:00:00</string>
					<frame>0</frame>
					<displayformat>NDF</displayformat>
					</timecode>
					<media>
					<video>
					<samplecharacteristics>
					<rate>
					<timebase>60</timebase>
					<ntsc>TRUE</ntsc>
					</rate>
					<width>1080</width>
					<height>1920</height>
					<anamorphic>FALSE</anamorphic>
					<pixelaspectratio>square</pixelaspectratio>
					<fielddominance>none</fielddominance>
					</samplecharacteristics>
					</video>
					</media>
					</file>
					<filter>
					<effect>
					<name></name>
					<effectid>GraphicAndType</effectid>
					<effectcategory>graphic</effectcategory>
					<effecttype>filter</effecttype>
					<mediatype>video</mediatype>
					<pproBypass>false</pproBypass>
					<parameter authoringApp="PremierePro">
					<parameterid>1</parameterid>
					<name></name>
					<hash>025b1101-ead6-0ca2-1feb-caf3000001fc</hash>
					<value>5AEAAAAAAABEMyIRDAAAAAAABgAKAAQABgAAAGQAAAAAAF4ASAAQAAwARABAADwAOAAAAAAAAAAAADQAMwAsAAAAKAAkACAAAAAAAAAAAAAAAAAAHAAAAAAAGgAAAAAAAAAUAAAAAAAAAAAAAAAAAAAAAAAAAAgAAAAAABsABwBeAAAAAAAAAUAAAABQAAAAbAAAAAIAAAAAAAEAAQAAAAAAQEEAAMBAAABAQAAAyEIAAAABIAAAAAIAAAACAAAAAAA2QwCASkTw/v//9P7///j+//8S////AAAAAAEAAAAEAAAAEQAAAEhHUFNvZWlLYWt1cG9wdGFpAAAAAQAAAAwAAAAIAAwABAAIAAgAAAAIAAAAUAAAAA8AAADvvIEAAAAAAAAAAAAAAAAAAAA2ACQAAAAgABwAAAAAABsAFAAAAAAAAAAAAAAAAAAAAAAAAAAAABAAAAAAAAAADAAAAAgABAA2AAAAAgAAABwAAAAcAAAAHAAAAAAAIEEAAAABaAAAAE3PAEOw////tP///wEAAAAUAAAAEAAaAAgABwAMAAAAEAAUABAAAAAAAAABHAAAAAAAoEEcAAAAAgAAAAAACgAIAAUABgAHAAoAAAAADAD//P///wQABAAEAAAACAAIAAYABwAIAAAAAAAMAA==</value>
					</parameter>
					<parameter authoringApp="PremierePro">
					<parameterid>2</parameterid>
					<name></name>
					<IsTimeVarying>false</IsTimeVarying>
					<ParameterControlType>11</ParameterControlType>
					<LowerBound>false</LowerBound>
					<UpperBound>false</UpperBound>
					<value>-91445760000000000,false,0,0,0,0,0,0</value>
					</parameter>
					<parameter authoringApp="PremierePro">
					<parameterid>3</parameterid>
					<name></name>
					<IsTimeVarying>false</IsTimeVarying>
					<value>-91445760000000000,0.5:0.5,0,0,0,0,0,0,5,4,0,0,0,0</value>
					</parameter>
					<parameter authoringApp="PremierePro">
					<parameterid>4</parameterid>
					<name></name>
					<IsTimeVarying>false</IsTimeVarying>
					<ParameterControlType>2</ParameterControlType>
					<LowerBound>0</LowerBound>
					<UpperBound>4000</UpperBound>
					<value>-91445760000000000,100.,0,0,0,0,0,0</value>
					</parameter>
					<parameter authoringApp="PremierePro">
					<parameterid>8</parameterid>
					<name></name>
					<IsTimeVarying>false</IsTimeVarying>
					<ParameterControlType>2</ParameterControlType>
					<LowerBound>0</LowerBound>
					<UpperBound>100</UpperBound>
					<value>-91445760000000000,100.,0,0,0,0,0,0</value>
					</parameter>
					</effect>
					</filter>
					<logginginfo>
					<description></description>
					<scene></scene>
					<shottake></shottake>
					<lognote></lognote>
					<good></good>
					<originalvideofilename></originalvideofilename>
					<originalaudiofilename></originalaudiofilename>
					</logginginfo>
					<colorinfo>
					<lut></lut>
					<lut1></lut1>
					<asc_sop></asc_sop>
					<asc_sat></asc_sat>
					<lut2></lut2>
					</colorinfo>
					<labels>
					</labels>
					</clipitem>
					<clipitem id="clipitem-484"/>
					                        </track>
					                        <track TL.SQTrackShy="0" TL.SQTrackExpandedHeight="25" TL.SQTrackExpanded="0" MZ.TrackTargeted="0">
					<clipitem frameBlend="FALSE" id="clipitem-485">
					<masterclipid>masterclip-405</masterclipid>
					<name></name>
					<enabled>TRUE</enabled>
					<duration>2582774</duration>
					<rate>
					
					                                    <timebase>60</timebase>
					                                    <ntsc>TRUE</ntsc>
					                                
					</rate>
					<start>3730</start>
					<end>3790</end>
					<in>3730</in>
					<out>3790</out>
					<pproTicksIn>914456774963789</pproTicksIn>
					<pproTicksOut>914677708529577</pproTicksOut>
					<alphatype>straight</alphatype>
					<pixelaspectratio>square</pixelaspectratio>
					<anamorphic>FALSE</anamorphic>
					<file id="file-404">
					<name></name>
					<mediaSource>GraphicAndType</mediaSource>
					<rate>
					<timebase>60</timebase>
					<ntsc>TRUE</ntsc>
					</rate>
					<timecode>
					<rate>
					<timebase>60</timebase>
					<ntsc>TRUE</ntsc>
					</rate>
					<string>00:00:00:00</string>
					<frame>0</frame>
					<displayformat>NDF</displayformat>
					</timecode>
					<media>
					<video>
					<samplecharacteristics>
					<rate>
					<timebase>60</timebase>
					<ntsc>TRUE</ntsc>
					</rate>
					<width>1080</width>
					<height>1920</height>
					<anamorphic>FALSE</anamorphic>
					<pixelaspectratio>square</pixelaspectratio>
					<fielddominance>none</fielddominance>
					</samplecharacteristics>
					</video>
					</media>
					</file>
					<filter>
					<effect>
					<name></name>
					<effectid>GraphicAndType</effectid>
					<effectcategory>graphic</effectcategory>
					<effecttype>filter</effecttype>
					<mediatype>video</mediatype>
					<pproBypass>false</pproBypass>
					<parameter authoringApp="PremierePro">
					<parameterid>1</parameterid>
					<name></name>
					<hash>025b1101-ead6-0ca2-1feb-caf3000001fc</hash>
					<value>5AEAAAAAAABEMyIRDAAAAAAABgAKAAQABgAAAGQAAAAAAF4ASAAQAAwARABAADwAOAAAAAAAAAAAADQAMwAsAAAAKAAkACAAAAAAAAAAAAAAAAAAHAAAAAAAGgAAAAAAAAAUAAAAAAAAAAAAAAAAAAAAAAAAAAgAAAAAABsABwBeAAAAAAAAAUAAAABQAAAAbAAAAAIAAAAAAAEAAQAAAAAAQEEAAMBAAABAQAAAyEIAAAABIAAAAAIAAAACAAAAAAA2QwCASkTw/v//9P7///j+//8S////AAAAAAEAAAAEAAAAEQAAAEhHUFNvZWlLYWt1cG9wdGFpAAAAAQAAAAwAAAAIAAwABAAIAAgAAAAIAAAAUAAAAA8AAADvvIEAAAAAAAAAAAAAAAAAAAA2ACQAAAAgABwAAAAAABsAFAAAAAAAAAAAAAAAAAAAAAAAAAAAABAAAAAAAAAADAAAAAgABAA2AAAAAgAAABwAAAAcAAAAHAAAAAAAIEEAAAABaAAAAE3PAEOw////tP///wEAAAAUAAAAEAAaAAgABwAMAAAAEAAUABAAAAAAAAABHAAAAAAAoEEcAAAAAgAAAAAACgAIAAUABgAHAAoAAAAADAD//P///wQABAAEAAAACAAIAAYABwAIAAAAAAAMAA==</value>
					</parameter>
					<parameter authoringApp="PremierePro">
					<parameterid>2</parameterid>
					<name></name>
					<IsTimeVarying>false</IsTimeVarying>
					<ParameterControlType>11</ParameterControlType>
					<LowerBound>false</LowerBound>
					<UpperBound>false</UpperBound>
					<value>-91445760000000000,false,0,0,0,0,0,0</value>
					</parameter>
					<parameter authoringApp="PremierePro">
					<parameterid>3</parameterid>
					<name></name>
					<IsTimeVarying>false</IsTimeVarying>
					<value>-91445760000000000,0.5:0.5,0,0,0,0,0,0,5,4,0,0,0,0</value>
					</parameter>
					<parameter authoringApp="PremierePro">
					<parameterid>4</parameterid>
					<name></name>
					<IsTimeVarying>false</IsTimeVarying>
					<ParameterControlType>2</ParameterControlType>
					<LowerBound>0</LowerBound>
					<UpperBound>4000</UpperBound>
					<value>-91445760000000000,100.,0,0,0,0,0,0</value>
					</parameter>
					<parameter authoringApp="PremierePro">
					<parameterid>8</parameterid>
					<name></name>
					<IsTimeVarying>false</IsTimeVarying>
					<ParameterControlType>2</ParameterControlType>
					<LowerBound>0</LowerBound>
					<UpperBound>100</UpperBound>
					<value>-91445760000000000,100.,0,0,0,0,0,0</value>
					</parameter>
					</effect>
					</filter>
					<logginginfo>
					<description></description>
					<scene></scene>
					<shottake></shottake>
					<lognote></lognote>
					<good></good>
					<originalvideofilename></originalvideofilename>
					<originalaudiofilename></originalaudiofilename>
					</logginginfo>
					<colorinfo>
					<lut></lut>
					<lut1></lut1>
					<asc_sop></asc_sop>
					<asc_sat></asc_sat>
					<lut2></lut2>
					</colorinfo>
					<labels>
					</labels>
					</clipitem>
					<clipitem frameBlend="FALSE" id="clipitem-499">
					<masterclipid>masterclip-419</masterclipid>
					<name></name>
					<enabled>TRUE</enabled>
					<duration>2582774</duration>
					<rate>
					
					                                    <timebase>60</timebase>
					                                    <ntsc>TRUE</ntsc>
					                                
					</rate>
					<start>3850</start>
					<end>3910</end>
					<in>3850</in>
					<out>3910</out>
					<pproTicksIn>914456774963789</pproTicksIn>
					<pproTicksOut>914677708529577</pproTicksOut>
					<alphatype>straight</alphatype>
					<pixelaspectratio>square</pixelaspectratio>
					<anamorphic>FALSE</anamorphic>
					<file id="file-418">
					<name></name>
					<mediaSource>GraphicAndType</mediaSource>
					<rate>
					<timebase>60</timebase>
					<ntsc>TRUE</ntsc>
					</rate>
					<timecode>
					<rate>
					<timebase>60</timebase>
					<ntsc>TRUE</ntsc>
					</rate>
					<string>00:00:00:00</string>
					<frame>0</frame>
					<displayformat>NDF</displayformat>
					</timecode>
					<media>
					<video>
					<samplecharacteristics>
					<rate>
					<timebase>60</timebase>
					<ntsc>TRUE</ntsc>
					</rate>
					<width>1080</width>
					<height>1920</height>
					<anamorphic>FALSE</anamorphic>
					<pixelaspectratio>square</pixelaspectratio>
					<fielddominance>none</fielddominance>
					</samplecharacteristics>
					</video>
					</media>
					</file>
					<filter>
					<effect>
					<name></name>
					<effectid>GraphicAndType</effectid>
					<effectcategory>graphic</effectcategory>
					<effecttype>filter</effecttype>
					<mediatype>video</mediatype>
					<pproBypass>false</pproBypass>
					<parameter authoringApp="PremierePro">
					<parameterid>1</parameterid>
					<name></name>
					<hash>025b1101-ead6-0ca2-1feb-caf3000001fc</hash>
					<value>5AEAAAAAAABEMyIRDAAAAAAABgAKAAQABgAAAGQAAAAAAF4ASAAQAAwARABAADwAOAAAAAAAAAAAADQAMwAsAAAAKAAkACAAAAAAAAAAAAAAAAAAHAAAAAAAGgAAAAAAAAAUAAAAAAAAAAAAAAAAAAAAAAAAAAgAAAAAABsABwBeAAAAAAAAAUAAAABQAAAAbAAAAAIAAAAAAAEAAQAAAAAAQEEAAMBAAABAQAAAyEIAAAABIAAAAAIAAAACAAAAAAA2QwCASkTw/v//9P7///j+//8S////AAAAAAEAAAAEAAAAEQAAAEhHUFNvZWlLYWt1cG9wdGFpAAAAAQAAAAwAAAAIAAwABAAIAAgAAAAIAAAAUAAAAA8AAADvvIEAAAAAAAAAAAAAAAAAAAA2ACQAAAAgABwAAAAAABsAFAAAAAAAAAAAAAAAAAAAAAAAAAAAABAAAAAAAAAADAAAAAgABAA2AAAAAgAAABwAAAAcAAAAHAAAAAAAIEEAAAABaAAAAE3PAEOw////tP///wEAAAAUAAAAEAAaAAgABwAMAAAAEAAUABAAAAAAAAABHAAAAAAAoEEcAAAAAgAAAAAACgAIAAUABgAHAAoAAAAADAD//P///wQABAAEAAAACAAIAAYABwAIAAAAAAAMAA==</value>
					</parameter>
					<parameter authoringApp="PremierePro">
					<parameterid>2</parameterid>
					<name></name>
					<IsTimeVarying>false</IsTimeVarying>
					<ParameterControlType>11</ParameterControlType>
					<LowerBound>false</LowerBound>
					<UpperBound>false</UpperBound>
					<value>-91445760000000000,false,0,0,0,0,0,0</value>
					</parameter>
					<parameter authoringApp="PremierePro">
					<parameterid>3</parameterid>
					<name></name>
					<IsTimeVarying>false</IsTimeVarying>
					<value>-91445760000000000,0.5:0.5,0,0,0,0,0,0,5,4,0,0,0,0</value>
					</parameter>
					<parameter authoringApp="PremierePro">
					<parameterid>4</parameterid>
					<name></name>
					<IsTimeVarying>false</IsTimeVarying>
					<ParameterControlType>2</ParameterControlType>
					<LowerBound>0</LowerBound>
					<UpperBound>4000</UpperBound>
					<value>-91445760000000000,100.,0,0,0,0,0,0</value>
					</parameter>
					<parameter authoringApp="PremierePro">
					<parameterid>8</parameterid>
					<name></name>
					<IsTimeVarying>false</IsTimeVarying>
					<ParameterControlType>2</ParameterControlType>
					<LowerBound>0</LowerBound>
					<UpperBound>100</UpperBound>
					<value>-91445760000000000,100.,0,0,0,0,0,0</value>
					</parameter>
					</effect>
					</filter>
					<logginginfo>
					<description></description>
					<scene></scene>
					<shottake></shottake>
					<lognote></lognote>
					<good></good>
					<originalvideofilename></originalvideofilename>
					<originalaudiofilename></originalaudiofilename>
					</logginginfo>
					<colorinfo>
					<lut></lut>
					<lut1></lut1>
					<asc_sop></asc_sop>
					<asc_sat></asc_sat>
					<lut2></lut2>
					</colorinfo>
					<labels>
					</labels>
					</clipitem>
					<clipitem frameBlend="FALSE" id="clipitem-523">
					<masterclipid>masterclip-443</masterclipid>
					<name></name>
					<enabled>TRUE</enabled>
					<duration>2582774</duration>
					<rate>
					
					                                    <timebase>60</timebase>
					                                    <ntsc>TRUE</ntsc>
					                                
					</rate>
					<start>4234</start>
					<end>4300</end>
					<in>4234</in>
					<out>4300</out>
					<pproTicksIn>914456774963789</pproTicksIn>
					<pproTicksOut>914677708529577</pproTicksOut>
					<alphatype>straight</alphatype>
					<pixelaspectratio>square</pixelaspectratio>
					<anamorphic>FALSE</anamorphic>
					<file id="file-442">
					<name></name>
					<mediaSource>GraphicAndType</mediaSource>
					<rate>
					<timebase>60</timebase>
					<ntsc>TRUE</ntsc>
					</rate>
					<timecode>
					<rate>
					<timebase>60</timebase>
					<ntsc>TRUE</ntsc>
					</rate>
					<string>00:00:00:00</string>
					<frame>0</frame>
					<displayformat>NDF</displayformat>
					</timecode>
					<media>
					<video>
					<samplecharacteristics>
					<rate>
					<timebase>60</timebase>
					<ntsc>TRUE</ntsc>
					</rate>
					<width>1080</width>
					<height>1920</height>
					<anamorphic>FALSE</anamorphic>
					<pixelaspectratio>square</pixelaspectratio>
					<fielddominance>none</fielddominance>
					</samplecharacteristics>
					</video>
					</media>
					</file>
					<filter>
					<effect>
					<name></name>
					<effectid>GraphicAndType</effectid>
					<effectcategory>graphic</effectcategory>
					<effecttype>filter</effecttype>
					<mediatype>video</mediatype>
					<pproBypass>false</pproBypass>
					<parameter authoringApp="PremierePro">
					<parameterid>1</parameterid>
					<name></name>
					<hash>025b1101-ead6-0ca2-1feb-caf3000001fc</hash>
					<value>5AEAAAAAAABEMyIRDAAAAAAABgAKAAQABgAAAGQAAAAAAF4ASAAQAAwARABAADwAOAAAAAAAAAAAADQAMwAsAAAAKAAkACAAAAAAAAAAAAAAAAAAHAAAAAAAGgAAAAAAAAAUAAAAAAAAAAAAAAAAAAAAAAAAAAgAAAAAABsABwBeAAAAAAAAAUAAAABQAAAAbAAAAAIAAAAAAAEAAQAAAAAAQEEAAMBAAABAQAAAyEIAAAABIAAAAAIAAAACAAAAAAA2QwCASkTw/v//9P7///j+//8S////AAAAAAEAAAAEAAAAEQAAAEhHUFNvZWlLYWt1cG9wdGFpAAAAAQAAAAwAAAAIAAwABAAIAAgAAAAIAAAAUAAAAA8AAADvvIEAAAAAAAAAAAAAAAAAAAA2ACQAAAAgABwAAAAAABsAFAAAAAAAAAAAAAAAAAAAAAAAAAAAABAAAAAAAAAADAAAAAgABAA2AAAAAgAAABwAAAAcAAAAHAAAAAAAIEEAAAABaAAAAE3PAEOw////tP///wEAAAAUAAAAEAAaAAgABwAMAAAAEAAUABAAAAAAAAABHAAAAAAAoEEcAAAAAgAAAAAACgAIAAUABgAHAAoAAAAADAD//P///wQABAAEAAAACAAIAAYABwAIAAAAAAAMAA==</value>
					</parameter>
					<parameter authoringApp="PremierePro">
					<parameterid>2</parameterid>
					<name></name>
					<IsTimeVarying>false</IsTimeVarying>
					<ParameterControlType>11</ParameterControlType>
					<LowerBound>false</LowerBound>
					<UpperBound>false</UpperBound>
					<value>-91445760000000000,false,0,0,0,0,0,0</value>
					</parameter>
					<parameter authoringApp="PremierePro">
					<parameterid>3</parameterid>
					<name></name>
					<IsTimeVarying>false</IsTimeVarying>
					<value>-91445760000000000,0.5:0.5,0,0,0,0,0,0,5,4,0,0,0,0</value>
					</parameter>
					<parameter authoringApp="PremierePro">
					<parameterid>4</parameterid>
					<name></name>
					<IsTimeVarying>false</IsTimeVarying>
					<ParameterControlType>2</ParameterControlType>
					<LowerBound>0</LowerBound>
					<UpperBound>4000</UpperBound>
					<value>-91445760000000000,100.,0,0,0,0,0,0</value>
					</parameter>
					<parameter authoringApp="PremierePro">
					<parameterid>8</parameterid>
					<name></name>
					<IsTimeVarying>false</IsTimeVarying>
					<ParameterControlType>2</ParameterControlType>
					<LowerBound>0</LowerBound>
					<UpperBound>100</UpperBound>
					<value>-91445760000000000,100.,0,0,0,0,0,0</value>
					</parameter>
					</effect>
					</filter>
					<logginginfo>
					<description></description>
					<scene></scene>
					<shottake></shottake>
					<lognote></lognote>
					<good></good>
					<originalvideofilename></originalvideofilename>
					<originalaudiofilename></originalaudiofilename>
					</logginginfo>
					<colorinfo>
					<lut></lut>
					<lut1></lut1>
					<asc_sop></asc_sop>
					<asc_sat></asc_sat>
					<lut2></lut2>
					</colorinfo>
					<labels>
					</labels>
					</clipitem>
					<clipitem frameBlend="FALSE" id="clipitem-539">
					<masterclipid>masterclip-459</masterclipid>
					<name></name>
					<enabled>TRUE</enabled>
					<duration>2582774</duration>
					<rate>
					
					                                    <timebase>60</timebase>
					                                    <ntsc>TRUE</ntsc>
					                                
					</rate>
					<start>4402</start>
					<end>4462</end>
					<in>4402</in>
					<out>4462</out>
					<pproTicksIn>914456774963789</pproTicksIn>
					<pproTicksOut>914677708529577</pproTicksOut>
					<alphatype>straight</alphatype>
					<pixelaspectratio>square</pixelaspectratio>
					<anamorphic>FALSE</anamorphic>
					<file id="file-458">
					<name></name>
					<mediaSource>GraphicAndType</mediaSource>
					<rate>
					<timebase>60</timebase>
					<ntsc>TRUE</ntsc>
					</rate>
					<timecode>
					<rate>
					<timebase>60</timebase>
					<ntsc>TRUE</ntsc>
					</rate>
					<string>00:00:00:00</string>
					<frame>0</frame>
					<displayformat>NDF</displayformat>
					</timecode>
					<media>
					<video>
					<samplecharacteristics>
					<rate>
					<timebase>60</timebase>
					<ntsc>TRUE</ntsc>
					</rate>
					<width>1080</width>
					<height>1920</height>
					<anamorphic>FALSE</anamorphic>
					<pixelaspectratio>square</pixelaspectratio>
					<fielddominance>none</fielddominance>
					</samplecharacteristics>
					</video>
					</media>
					</file>
					<filter>
					<effect>
					<name></name>
					<effectid>GraphicAndType</effectid>
					<effectcategory>graphic</effectcategory>
					<effecttype>filter</effecttype>
					<mediatype>video</mediatype>
					<pproBypass>false</pproBypass>
					<parameter authoringApp="PremierePro">
					<parameterid>1</parameterid>
					<name></name>
					<hash>025b1101-ead6-0ca2-1feb-caf3000001fc</hash>
					<value>5AEAAAAAAABEMyIRDAAAAAAABgAKAAQABgAAAGQAAAAAAF4ASAAQAAwARABAADwAOAAAAAAAAAAAADQAMwAsAAAAKAAkACAAAAAAAAAAAAAAAAAAHAAAAAAAGgAAAAAAAAAUAAAAAAAAAAAAAAAAAAAAAAAAAAgAAAAAABsABwBeAAAAAAAAAUAAAABQAAAAbAAAAAIAAAAAAAEAAQAAAAAAQEEAAMBAAABAQAAAyEIAAAABIAAAAAIAAAACAAAAAAA2QwCASkTw/v//9P7///j+//8S////AAAAAAEAAAAEAAAAEQAAAEhHUFNvZWlLYWt1cG9wdGFpAAAAAQAAAAwAAAAIAAwABAAIAAgAAAAIAAAAUAAAAA8AAADvvIEAAAAAAAAAAAAAAAAAAAA2ACQAAAAgABwAAAAAABsAFAAAAAAAAAAAAAAAAAAAAAAAAAAAABAAAAAAAAAADAAAAAgABAA2AAAAAgAAABwAAAAcAAAAHAAAAAAAIEEAAAABaAAAAE3PAEOw////tP///wEAAAAUAAAAEAAaAAgABwAMAAAAEAAUABAAAAAAAAABHAAAAAAAoEEcAAAAAgAAAAAACgAIAAUABgAHAAoAAAAADAD//P///wQABAAEAAAACAAIAAYABwAIAAAAAAAMAA==</value>
					</parameter>
					<parameter authoringApp="PremierePro">
					<parameterid>2</parameterid>
					<name></name>
					<IsTimeVarying>false</IsTimeVarying>
					<ParameterControlType>11</ParameterControlType>
					<LowerBound>false</LowerBound>
					<UpperBound>false</UpperBound>
					<value>-91445760000000000,false,0,0,0,0,0,0</value>
					</parameter>
					<parameter authoringApp="PremierePro">
					<parameterid>3</parameterid>
					<name></name>
					<IsTimeVarying>false</IsTimeVarying>
					<value>-91445760000000000,0.5:0.5,0,0,0,0,0,0,5,4,0,0,0,0</value>
					</parameter>
					<parameter authoringApp="PremierePro">
					<parameterid>4</parameterid>
					<name></name>
					<IsTimeVarying>false</IsTimeVarying>
					<ParameterControlType>2</ParameterControlType>
					<LowerBound>0</LowerBound>
					<UpperBound>4000</UpperBound>
					<value>-91445760000000000,100.,0,0,0,0,0,0</value>
					</parameter>
					<parameter authoringApp="PremierePro">
					<parameterid>8</parameterid>
					<name></name>
					<IsTimeVarying>false</IsTimeVarying>
					<ParameterControlType>2</ParameterControlType>
					<LowerBound>0</LowerBound>
					<UpperBound>100</UpperBound>
					<value>-91445760000000000,100.,0,0,0,0,0,0</value>
					</parameter>
					</effect>
					</filter>
					<logginginfo>
					<description></description>
					<scene></scene>
					<shottake></shottake>
					<lognote></lognote>
					<good></good>
					<originalvideofilename></originalvideofilename>
					<originalaudiofilename></originalaudiofilename>
					</logginginfo>
					<colorinfo>
					<lut></lut>
					<lut1></lut1>
					<asc_sop></asc_sop>
					<asc_sat></asc_sat>
					<lut2></lut2>
					</colorinfo>
					<labels>
					</labels>
					</clipitem>
					<clipitem frameBlend="FALSE" id="clipitem-550">
					<masterclipid>masterclip-470</masterclipid>
					<name></name>
					<enabled>TRUE</enabled>
					<duration>2582774</duration>
					<rate>
					
					                                    <timebase>60</timebase>
					                                    <ntsc>TRUE</ntsc>
					                                
					</rate>
					<start>4468</start>
					<end>4528</end>
					<in>4468</in>
					<out>4528</out>
					<pproTicksIn>914456774963789</pproTicksIn>
					<pproTicksOut>914677708529577</pproTicksOut>
					<alphatype>straight</alphatype>
					<pixelaspectratio>square</pixelaspectratio>
					<anamorphic>FALSE</anamorphic>
					<file id="file-469">
					<name></name>
					<mediaSource>GraphicAndType</mediaSource>
					<rate>
					<timebase>60</timebase>
					<ntsc>TRUE</ntsc>
					</rate>
					<timecode>
					<rate>
					<timebase>60</timebase>
					<ntsc>TRUE</ntsc>
					</rate>
					<string>00:00:00:00</string>
					<frame>0</frame>
					<displayformat>NDF</displayformat>
					</timecode>
					<media>
					<video>
					<samplecharacteristics>
					<rate>
					<timebase>60</timebase>
					<ntsc>TRUE</ntsc>
					</rate>
					<width>1080</width>
					<height>1920</height>
					<anamorphic>FALSE</anamorphic>
					<pixelaspectratio>square</pixelaspectratio>
					<fielddominance>none</fielddominance>
					</samplecharacteristics>
					</video>
					</media>
					</file>
					<filter>
					<effect>
					<name></name>
					<effectid>GraphicAndType</effectid>
					<effectcategory>graphic</effectcategory>
					<effecttype>filter</effecttype>
					<mediatype>video</mediatype>
					<pproBypass>false</pproBypass>
					<parameter authoringApp="PremierePro">
					<parameterid>1</parameterid>
					<name></name>
					<hash>025b1101-ead6-0ca2-1feb-caf3000001fc</hash>
					<value>5AEAAAAAAABEMyIRDAAAAAAABgAKAAQABgAAAGQAAAAAAF4ASAAQAAwARABAADwAOAAAAAAAAAAAADQAMwAsAAAAKAAkACAAAAAAAAAAAAAAAAAAHAAAAAAAGgAAAAAAAAAUAAAAAAAAAAAAAAAAAAAAAAAAAAgAAAAAABsABwBeAAAAAAAAAUAAAABQAAAAbAAAAAIAAAAAAAEAAQAAAAAAQEEAAMBAAABAQAAAyEIAAAABIAAAAAIAAAACAAAAAAA2QwCASkTw/v//9P7///j+//8S////AAAAAAEAAAAEAAAAEQAAAEhHUFNvZWlLYWt1cG9wdGFpAAAAAQAAAAwAAAAIAAwABAAIAAgAAAAIAAAAUAAAAA8AAADvvIEAAAAAAAAAAAAAAAAAAAA2ACQAAAAgABwAAAAAABsAFAAAAAAAAAAAAAAAAAAAAAAAAAAAABAAAAAAAAAADAAAAAgABAA2AAAAAgAAABwAAAAcAAAAHAAAAAAAIEEAAAABaAAAAE3PAEOw////tP///wEAAAAUAAAAEAAaAAgABwAMAAAAEAAUABAAAAAAAAABHAAAAAAAoEEcAAAAAgAAAAAACgAIAAUABgAHAAoAAAAADAD//P///wQABAAEAAAACAAIAAYABwAIAAAAAAAMAA==</value>
					</parameter>
					<parameter authoringApp="PremierePro">
					<parameterid>2</parameterid>
					<name></name>
					<IsTimeVarying>false</IsTimeVarying>
					<ParameterControlType>11</ParameterControlType>
					<LowerBound>false</LowerBound>
					<UpperBound>false</UpperBound>
					<value>-91445760000000000,false,0,0,0,0,0,0</value>
					</parameter>
					<parameter authoringApp="PremierePro">
					<parameterid>3</parameterid>
					<name></name>
					<IsTimeVarying>false</IsTimeVarying>
					<value>-91445760000000000,0.5:0.5,0,0,0,0,0,0,5,4,0,0,0,0</value>
					</parameter>
					<parameter authoringApp="PremierePro">
					<parameterid>4</parameterid>
					<name></name>
					<IsTimeVarying>false</IsTimeVarying>
					<ParameterControlType>2</ParameterControlType>
					<LowerBound>0</LowerBound>
					<UpperBound>4000</UpperBound>
					<value>-91445760000000000,100.,0,0,0,0,0,0</value>
					</parameter>
					<parameter authoringApp="PremierePro">
					<parameterid>8</parameterid>
					<name></name>
					<IsTimeVarying>false</IsTimeVarying>
					<ParameterControlType>2</ParameterControlType>
					<LowerBound>0</LowerBound>
					<UpperBound>100</UpperBound>
					<value>-91445760000000000,100.,0,0,0,0,0,0</value>
					</parameter>
					</effect>
					</filter>
					<logginginfo>
					<description></description>
					<scene></scene>
					<shottake></shottake>
					<lognote></lognote>
					<good></good>
					<originalvideofilename></originalvideofilename>
					<originalaudiofilename></originalaudiofilename>
					</logginginfo>
					<colorinfo>
					<lut></lut>
					<lut1></lut1>
					<asc_sop></asc_sop>
					<asc_sat></asc_sat>
					<lut2></lut2>
					</colorinfo>
					<labels>
					</labels>
					</clipitem>
					<clipitem id="clipitem-583"/>
					                        </track>
					                        <track TL.SQTrackShy="0" TL.SQTrackExpandedHeight="25" TL.SQTrackExpanded="0" MZ.TrackTargeted="0">
					<clipitem frameBlend="FALSE" id="clipitem-584">
					<masterclipid>masterclip-504</masterclipid>
					<name></name>
					<enabled>TRUE</enabled>
					<duration>2582774</duration>
					<rate>
					
					                                    <timebase>60</timebase>
					                                    <ntsc>TRUE</ntsc>
					                                
					</rate>
					<start>4840</start>
					<end>4900</end>
					<in>4840</in>
					<out>4900</out>
					<pproTicksIn>914456774963789</pproTicksIn>
					<pproTicksOut>914677708529577</pproTicksOut>
					<alphatype>straight</alphatype>
					<pixelaspectratio>square</pixelaspectratio>
					<anamorphic>FALSE</anamorphic>
					<file id="file-503">
					<name></name>
					<mediaSource>GraphicAndType</mediaSource>
					<rate>
					<timebase>60</timebase>
					<ntsc>TRUE</ntsc>
					</rate>
					<timecode>
					<rate>
					<timebase>60</timebase>
					<ntsc>TRUE</ntsc>
					</rate>
					<string>00:00:00:00</string>
					<frame>0</frame>
					<displayformat>NDF</displayformat>
					</timecode>
					<media>
					<video>
					<samplecharacteristics>
					<rate>
					<timebase>60</timebase>
					<ntsc>TRUE</ntsc>
					</rate>
					<width>1080</width>
					<height>1920</height>
					<anamorphic>FALSE</anamorphic>
					<pixelaspectratio>square</pixelaspectratio>
					<fielddominance>none</fielddominance>
					</samplecharacteristics>
					</video>
					</media>
					</file>
					<filter>
					<effect>
					<name></name>
					<effectid>GraphicAndType</effectid>
					<effectcategory>graphic</effectcategory>
					<effecttype>filter</effecttype>
					<mediatype>video</mediatype>
					<pproBypass>false</pproBypass>
					<parameter authoringApp="PremierePro">
					<parameterid>1</parameterid>
					<name></name>
					<hash>025b1101-ead6-0ca2-1feb-caf3000001fc</hash>
					<value>5AEAAAAAAABEMyIRDAAAAAAABgAKAAQABgAAAGQAAAAAAF4ASAAQAAwARABAADwAOAAAAAAAAAAAADQAMwAsAAAAKAAkACAAAAAAAAAAAAAAAAAAHAAAAAAAGgAAAAAAAAAUAAAAAAAAAAAAAAAAAAAAAAAAAAgAAAAAABsABwBeAAAAAAAAAUAAAABQAAAAbAAAAAIAAAAAAAEAAQAAAAAAQEEAAMBAAABAQAAAyEIAAAABIAAAAAIAAAACAAAAAAA2QwCASkTw/v//9P7///j+//8S////AAAAAAEAAAAEAAAAEQAAAEhHUFNvZWlLYWt1cG9wdGFpAAAAAQAAAAwAAAAIAAwABAAIAAgAAAAIAAAAUAAAAA8AAADvvIEAAAAAAAAAAAAAAAAAAAA2ACQAAAAgABwAAAAAABsAFAAAAAAAAAAAAAAAAAAAAAAAAAAAABAAAAAAAAAADAAAAAgABAA2AAAAAgAAABwAAAAcAAAAHAAAAAAAIEEAAAABaAAAAE3PAEOw////tP///wEAAAAUAAAAEAAaAAgABwAMAAAAEAAUABAAAAAAAAABHAAAAAAAoEEcAAAAAgAAAAAACgAIAAUABgAHAAoAAAAADAD//P///wQABAAEAAAACAAIAAYABwAIAAAAAAAMAA==</value>
					</parameter>
					<parameter authoringApp="PremierePro">
					<parameterid>2</parameterid>
					<name></name>
					<IsTimeVarying>false</IsTimeVarying>
					<ParameterControlType>11</ParameterControlType>
					<LowerBound>false</LowerBound>
					<UpperBound>false</UpperBound>
					<value>-91445760000000000,false,0,0,0,0,0,0</value>
					</parameter>
					<parameter authoringApp="PremierePro">
					<parameterid>3</parameterid>
					<name></name>
					<IsTimeVarying>false</IsTimeVarying>
					<value>-91445760000000000,0.5:0.5,0,0,0,0,0,0,5,4,0,0,0,0</value>
					</parameter>
					<parameter authoringApp="PremierePro">
					<parameterid>4</parameterid>
					<name></name>
					<IsTimeVarying>false</IsTimeVarying>
					<ParameterControlType>2</ParameterControlType>
					<LowerBound>0</LowerBound>
					<UpperBound>4000</UpperBound>
					<value>-91445760000000000,100.,0,0,0,0,0,0</value>
					</parameter>
					<parameter authoringApp="PremierePro">
					<parameterid>8</parameterid>
					<name></name>
					<IsTimeVarying>false</IsTimeVarying>
					<ParameterControlType>2</ParameterControlType>
					<LowerBound>0</LowerBound>
					<UpperBound>100</UpperBound>
					<value>-91445760000000000,100.,0,0,0,0,0,0</value>
					</parameter>
					</effect>
					</filter>
					<logginginfo>
					<description></description>
					<scene></scene>
					<shottake></shottake>
					<lognote></lognote>
					<good></good>
					<originalvideofilename></originalvideofilename>
					<originalaudiofilename></originalaudiofilename>
					</logginginfo>
					<colorinfo>
					<lut></lut>
					<lut1></lut1>
					<asc_sop></asc_sop>
					<asc_sat></asc_sat>
					<lut2></lut2>
					</colorinfo>
					<labels>
					</labels>
					</clipitem>
					<clipitem frameBlend="FALSE" id="clipitem-602">
					<masterclipid>masterclip-522</masterclipid>
					<name></name>
					<enabled>TRUE</enabled>
					<duration>2582774</duration>
					<rate>
					
					                                    <timebase>60</timebase>
					                                    <ntsc>TRUE</ntsc>
					                                
					</rate>
					<start>5044</start>
					<end>5104</end>
					<in>5044</in>
					<out>5104</out>
					<pproTicksIn>914456774963789</pproTicksIn>
					<pproTicksOut>914677708529577</pproTicksOut>
					<alphatype>straight</alphatype>
					<pixelaspectratio>square</pixelaspectratio>
					<anamorphic>FALSE</anamorphic>
					<file id="file-521">
					<name></name>
					<mediaSource>GraphicAndType</mediaSource>
					<rate>
					<timebase>60</timebase>
					<ntsc>TRUE</ntsc>
					</rate>
					<timecode>
					<rate>
					<timebase>60</timebase>
					<ntsc>TRUE</ntsc>
					</rate>
					<string>00:00:00:00</string>
					<frame>0</frame>
					<displayformat>NDF</displayformat>
					</timecode>
					<media>
					<video>
					<samplecharacteristics>
					<rate>
					<timebase>60</timebase>
					<ntsc>TRUE</ntsc>
					</rate>
					<width>1080</width>
					<height>1920</height>
					<anamorphic>FALSE</anamorphic>
					<pixelaspectratio>square</pixelaspectratio>
					<fielddominance>none</fielddominance>
					</samplecharacteristics>
					</video>
					</media>
					</file>
					<filter>
					<effect>
					<name></name>
					<effectid>GraphicAndType</effectid>
					<effectcategory>graphic</effectcategory>
					<effecttype>filter</effecttype>
					<mediatype>video</mediatype>
					<pproBypass>false</pproBypass>
					<parameter authoringApp="PremierePro">
					<parameterid>1</parameterid>
					<name></name>
					<hash>025b1101-ead6-0ca2-1feb-caf3000001fc</hash>
					<value>5AEAAAAAAABEMyIRDAAAAAAABgAKAAQABgAAAGQAAAAAAF4ASAAQAAwARABAADwAOAAAAAAAAAAAADQAMwAsAAAAKAAkACAAAAAAAAAAAAAAAAAAHAAAAAAAGgAAAAAAAAAUAAAAAAAAAAAAAAAAAAAAAAAAAAgAAAAAABsABwBeAAAAAAAAAUAAAABQAAAAbAAAAAIAAAAAAAEAAQAAAAAAQEEAAMBAAABAQAAAyEIAAAABIAAAAAIAAAACAAAAAAA2QwCASkTw/v//9P7///j+//8S////AAAAAAEAAAAEAAAAEQAAAEhHUFNvZWlLYWt1cG9wdGFpAAAAAQAAAAwAAAAIAAwABAAIAAgAAAAIAAAAUAAAAA8AAADvvIEAAAAAAAAAAAAAAAAAAAA2ACQAAAAgABwAAAAAABsAFAAAAAAAAAAAAAAAAAAAAAAAAAAAABAAAAAAAAAADAAAAAgABAA2AAAAAgAAABwAAAAcAAAAHAAAAAAAIEEAAAABaAAAAE3PAEOw////tP///wEAAAAUAAAAEAAaAAgABwAMAAAAEAAUABAAAAAAAAABHAAAAAAAoEEcAAAAAgAAAAAACgAIAAUABgAHAAoAAAAADAD//P///wQABAAEAAAACAAIAAYABwAIAAAAAAAMAA==</value>
					</parameter>
					<parameter authoringApp="PremierePro">
					<parameterid>2</parameterid>
					<name></name>
					<IsTimeVarying>false</IsTimeVarying>
					<ParameterControlType>11</ParameterControlType>
					<LowerBound>false</LowerBound>
					<UpperBound>false</UpperBound>
					<value>-91445760000000000,false,0,0,0,0,0,0</value>
					</parameter>
					<parameter authoringApp="PremierePro">
					<parameterid>3</parameterid>
					<name></name>
					<IsTimeVarying>false</IsTimeVarying>
					<value>-91445760000000000,0.5:0.5,0,0,0,0,0,0,5,4,0,0,0,0</value>
					</parameter>
					<parameter authoringApp="PremierePro">
					<parameterid>4</parameterid>
					<name></name>
					<IsTimeVarying>false</IsTimeVarying>
					<ParameterControlType>2</ParameterControlType>
					<LowerBound>0</LowerBound>
					<UpperBound>4000</UpperBound>
					<value>-91445760000000000,100.,0,0,0,0,0,0</value>
					</parameter>
					<parameter authoringApp="PremierePro">
					<parameterid>8</parameterid>
					<name></name>
					<IsTimeVarying>false</IsTimeVarying>
					<ParameterControlType>2</ParameterControlType>
					<LowerBound>0</LowerBound>
					<UpperBound>100</UpperBound>
					<value>-91445760000000000,100.,0,0,0,0,0,0</value>
					</parameter>
					</effect>
					</filter>
					<logginginfo>
					<description></description>
					<scene></scene>
					<shottake></shottake>
					<lognote></lognote>
					<good></good>
					<originalvideofilename></originalvideofilename>
					<originalaudiofilename></originalaudiofilename>
					</logginginfo>
					<colorinfo>
					<lut></lut>
					<lut1></lut1>
					<asc_sop></asc_sop>
					<asc_sat></asc_sat>
					<lut2></lut2>
					</colorinfo>
					<labels>
					</labels>
					</clipitem>
					<clipitem frameBlend="FALSE" id="clipitem-611">
					<masterclipid>masterclip-531</masterclipid>
					<name></name>
					<enabled>TRUE</enabled>
					<duration>2582774</duration>
					<rate>
					
					                                    <timebase>60</timebase>
					                                    <ntsc>TRUE</ntsc>
					                                
					</rate>
					<start>5134</start>
					<end>5194</end>
					<in>5134</in>
					<out>5194</out>
					<pproTicksIn>914456774963789</pproTicksIn>
					<pproTicksOut>914677708529577</pproTicksOut>
					<alphatype>straight</alphatype>
					<pixelaspectratio>square</pixelaspectratio>
					<anamorphic>FALSE</anamorphic>
					<file id="file-530">
					<name></name>
					<mediaSource>GraphicAndType</mediaSource>
					<rate>
					<timebase>60</timebase>
					<ntsc>TRUE</ntsc>
					</rate>
					<timecode>
					<rate>
					<timebase>60</timebase>
					<ntsc>TRUE</ntsc>
					</rate>
					<string>00:00:00:00</string>
					<frame>0</frame>
					<displayformat>NDF</displayformat>
					</timecode>
					<media>
					<video>
					<samplecharacteristics>
					<rate>
					<timebase>60</timebase>
					<ntsc>TRUE</ntsc>
					</rate>
					<width>1080</width>
					<height>1920</height>
					<anamorphic>FALSE</anamorphic>
					<pixelaspectratio>square</pixelaspectratio>
					<fielddominance>none</fielddominance>
					</samplecharacteristics>
					</video>
					</media>
					</file>
					<filter>
					<effect>
					<name></name>
					<effectid>GraphicAndType</effectid>
					<effectcategory>graphic</effectcategory>
					<effecttype>filter</effecttype>
					<mediatype>video</mediatype>
					<pproBypass>false</pproBypass>
					<parameter authoringApp="PremierePro">
					<parameterid>1</parameterid>
					<name></name>
					<hash>025b1101-ead6-0ca2-1feb-caf3000001fc</hash>
					<value>5AEAAAAAAABEMyIRDAAAAAAABgAKAAQABgAAAGQAAAAAAF4ASAAQAAwARABAADwAOAAAAAAAAAAAADQAMwAsAAAAKAAkACAAAAAAAAAAAAAAAAAAHAAAAAAAGgAAAAAAAAAUAAAAAAAAAAAAAAAAAAAAAAAAAAgAAAAAABsABwBeAAAAAAAAAUAAAABQAAAAbAAAAAIAAAAAAAEAAQAAAAAAQEEAAMBAAABAQAAAyEIAAAABIAAAAAIAAAACAAAAAAA2QwCASkTw/v//9P7///j+//8S////AAAAAAEAAAAEAAAAEQAAAEhHUFNvZWlLYWt1cG9wdGFpAAAAAQAAAAwAAAAIAAwABAAIAAgAAAAIAAAAUAAAAA8AAADvvIEAAAAAAAAAAAAAAAAAAAA2ACQAAAAgABwAAAAAABsAFAAAAAAAAAAAAAAAAAAAAAAAAAAAABAAAAAAAAAADAAAAAgABAA2AAAAAgAAABwAAAAcAAAAHAAAAAAAIEEAAAABaAAAAE3PAEOw////tP///wEAAAAUAAAAEAAaAAgABwAMAAAAEAAUABAAAAAAAAABHAAAAAAAoEEcAAAAAgAAAAAACgAIAAUABgAHAAoAAAAADAD//P///wQABAAEAAAACAAIAAYABwAIAAAAAAAMAA==</value>
					</parameter>
					<parameter authoringApp="PremierePro">
					<parameterid>2</parameterid>
					<name></name>
					<IsTimeVarying>false</IsTimeVarying>
					<ParameterControlType>11</ParameterControlType>
					<LowerBound>false</LowerBound>
					<UpperBound>false</UpperBound>
					<value>-91445760000000000,false,0,0,0,0,0,0</value>
					</parameter>
					<parameter authoringApp="PremierePro">
					<parameterid>3</parameterid>
					<name></name>
					<IsTimeVarying>false</IsTimeVarying>
					<value>-91445760000000000,0.5:0.5,0,0,0,0,0,0,5,4,0,0,0,0</value>
					</parameter>
					<parameter authoringApp="PremierePro">
					<parameterid>4</parameterid>
					<name></name>
					<IsTimeVarying>false</IsTimeVarying>
					<ParameterControlType>2</ParameterControlType>
					<LowerBound>0</LowerBound>
					<UpperBound>4000</UpperBound>
					<value>-91445760000000000,100.,0,0,0,0,0,0</value>
					</parameter>
					<parameter authoringApp="PremierePro">
					<parameterid>8</parameterid>
					<name></name>
					<IsTimeVarying>false</IsTimeVarying>
					<ParameterControlType>2</ParameterControlType>
					<LowerBound>0</LowerBound>
					<UpperBound>100</UpperBound>
					<value>-91445760000000000,100.,0,0,0,0,0,0</value>
					</parameter>
					</effect>
					</filter>
					<logginginfo>
					<description></description>
					<scene></scene>
					<shottake></shottake>
					<lognote></lognote>
					<good></good>
					<originalvideofilename></originalvideofilename>
					<originalaudiofilename></originalaudiofilename>
					</logginginfo>
					<colorinfo>
					<lut></lut>
					<lut1></lut1>
					<asc_sop></asc_sop>
					<asc_sat></asc_sat>
					<lut2></lut2>
					</colorinfo>
					<labels>
					</labels>
					</clipitem>
					<clipitem frameBlend="FALSE" id="clipitem-623">
					<masterclipid>masterclip-543</masterclipid>
					<name></name>
					<enabled>TRUE</enabled>
					<duration>2582774</duration>
					<rate>
					
					                                    <timebase>60</timebase>
					                                    <ntsc>TRUE</ntsc>
					                                
					</rate>
					<start>5278</start>
					<end>5338</end>
					<in>5278</in>
					<out>5338</out>
					<pproTicksIn>914456774963789</pproTicksIn>
					<pproTicksOut>914677708529577</pproTicksOut>
					<alphatype>straight</alphatype>
					<pixelaspectratio>square</pixelaspectratio>
					<anamorphic>FALSE</anamorphic>
					<file id="file-542">
					<name></name>
					<mediaSource>GraphicAndType</mediaSource>
					<rate>
					<timebase>60</timebase>
					<ntsc>TRUE</ntsc>
					</rate>
					<timecode>
					<rate>
					<timebase>60</timebase>
					<ntsc>TRUE</ntsc>
					</rate>
					<string>00:00:00:00</string>
					<frame>0</frame>
					<displayformat>NDF</displayformat>
					</timecode>
					<media>
					<video>
					<samplecharacteristics>
					<rate>
					<timebase>60</timebase>
					<ntsc>TRUE</ntsc>
					</rate>
					<width>1080</width>
					<height>1920</height>
					<anamorphic>FALSE</anamorphic>
					<pixelaspectratio>square</pixelaspectratio>
					<fielddominance>none</fielddominance>
					</samplecharacteristics>
					</video>
					</media>
					</file>
					<filter>
					<effect>
					<name></name>
					<effectid>GraphicAndType</effectid>
					<effectcategory>graphic</effectcategory>
					<effecttype>filter</effecttype>
					<mediatype>video</mediatype>
					<pproBypass>false</pproBypass>
					<parameter authoringApp="PremierePro">
					<parameterid>1</parameterid>
					<name></name>
					<hash>025b1101-ead6-0ca2-1feb-caf3000001fc</hash>
					<value>5AEAAAAAAABEMyIRDAAAAAAABgAKAAQABgAAAGQAAAAAAF4ASAAQAAwARABAADwAOAAAAAAAAAAAADQAMwAsAAAAKAAkACAAAAAAAAAAAAAAAAAAHAAAAAAAGgAAAAAAAAAUAAAAAAAAAAAAAAAAAAAAAAAAAAgAAAAAABsABwBeAAAAAAAAAUAAAABQAAAAbAAAAAIAAAAAAAEAAQAAAAAAQEEAAMBAAABAQAAAyEIAAAABIAAAAAIAAAACAAAAAAA2QwCASkTw/v//9P7///j+//8S////AAAAAAEAAAAEAAAAEQAAAEhHUFNvZWlLYWt1cG9wdGFpAAAAAQAAAAwAAAAIAAwABAAIAAgAAAAIAAAAUAAAAA8AAADvvIEAAAAAAAAAAAAAAAAAAAA2ACQAAAAgABwAAAAAABsAFAAAAAAAAAAAAAAAAAAAAAAAAAAAABAAAAAAAAAADAAAAAgABAA2AAAAAgAAABwAAAAcAAAAHAAAAAAAIEEAAAABaAAAAE3PAEOw////tP///wEAAAAUAAAAEAAaAAgABwAMAAAAEAAUABAAAAAAAAABHAAAAAAAoEEcAAAAAgAAAAAACgAIAAUABgAHAAoAAAAADAD//P///wQABAAEAAAACAAIAAYABwAIAAAAAAAMAA==</value>
					</parameter>
					<parameter authoringApp="PremierePro">
					<parameterid>2</parameterid>
					<name></name>
					<IsTimeVarying>false</IsTimeVarying>
					<ParameterControlType>11</ParameterControlType>
					<LowerBound>false</LowerBound>
					<UpperBound>false</UpperBound>
					<value>-91445760000000000,false,0,0,0,0,0,0</value>
					</parameter>
					<parameter authoringApp="PremierePro">
					<parameterid>3</parameterid>
					<name></name>
					<IsTimeVarying>false</IsTimeVarying>
					<value>-91445760000000000,0.5:0.5,0,0,0,0,0,0,5,4,0,0,0,0</value>
					</parameter>
					<parameter authoringApp="PremierePro">
					<parameterid>4</parameterid>
					<name></name>
					<IsTimeVarying>false</IsTimeVarying>
					<ParameterControlType>2</ParameterControlType>
					<LowerBound>0</LowerBound>
					<UpperBound>4000</UpperBound>
					<value>-91445760000000000,100.,0,0,0,0,0,0</value>
					</parameter>
					<parameter authoringApp="PremierePro">
					<parameterid>8</parameterid>
					<name></name>
					<IsTimeVarying>false</IsTimeVarying>
					<ParameterControlType>2</ParameterControlType>
					<LowerBound>0</LowerBound>
					<UpperBound>100</UpperBound>
					<value>-91445760000000000,100.,0,0,0,0,0,0</value>
					</parameter>
					</effect>
					</filter>
					<logginginfo>
					<description></description>
					<scene></scene>
					<shottake></shottake>
					<lognote></lognote>
					<good></good>
					<originalvideofilename></originalvideofilename>
					<originalaudiofilename></originalaudiofilename>
					</logginginfo>
					<colorinfo>
					<lut></lut>
					<lut1></lut1>
					<asc_sop></asc_sop>
					<asc_sat></asc_sat>
					<lut2></lut2>
					</colorinfo>
					<labels>
					</labels>
					</clipitem>
					<clipitem frameBlend="FALSE" id="clipitem-642">
					<masterclipid>masterclip-562</masterclipid>
					<name></name>
					<enabled>TRUE</enabled>
					<duration>2582774</duration>
					<rate>
					
					                                    <timebase>60</timebase>
					                                    <ntsc>TRUE</ntsc>
					                                
					</rate>
					<start>5542</start>
					<end>5566</end>
					<in>5542</in>
					<out>5566</out>
					<pproTicksIn>914456774963789</pproTicksIn>
					<pproTicksOut>914677708529577</pproTicksOut>
					<alphatype>straight</alphatype>
					<pixelaspectratio>square</pixelaspectratio>
					<anamorphic>FALSE</anamorphic>
					<file id="file-561">
					<name></name>
					<mediaSource>GraphicAndType</mediaSource>
					<rate>
					<timebase>60</timebase>
					<ntsc>TRUE</ntsc>
					</rate>
					<timecode>
					<rate>
					<timebase>60</timebase>
					<ntsc>TRUE</ntsc>
					</rate>
					<string>00:00:00:00</string>
					<frame>0</frame>
					<displayformat>NDF</displayformat>
					</timecode>
					<media>
					<video>
					<samplecharacteristics>
					<rate>
					<timebase>60</timebase>
					<ntsc>TRUE</ntsc>
					</rate>
					<width>1080</width>
					<height>1920</height>
					<anamorphic>FALSE</anamorphic>
					<pixelaspectratio>square</pixelaspectratio>
					<fielddominance>none</fielddominance>
					</samplecharacteristics>
					</video>
					</media>
					</file>
					<filter>
					<effect>
					<name>w</name>
					<effectid>GraphicAndType</effectid>
					<effectcategory>graphic</effectcategory>
					<effecttype>filter</effecttype>
					<mediatype>video</mediatype>
					<pproBypass>false</pproBypass>
					<parameter authoringApp="PremierePro">
					<parameterid>1</parameterid>
					<name></name>
					<hash>025b1101-ead6-0ca2-1feb-caf3000001fc</hash>
					<value>5AEAAAAAAABEMyIRDAAAAAAABgAKAAQABgAAAGQAAAAAAF4ASAAQAAwARABAADwAOAAAAAAAAAAAADQAMwAsAAAAKAAkACAAAAAAAAAAAAAAAAAAHAAAAAAAGgAAAAAAAAAUAAAAAAAAAAAAAAAAAAAAAAAAAAgAAAAAABsABwBeAAAAAAAAAUAAAABQAAAAbAAAAAIAAAAAAAEAAQAAAAAAQEEAAMBAAABAQAAAyEIAAAABIAAAAAIAAAACAAAAAAA2QwCASkTw/v//9P7///j+//8S////AAAAAAEAAAAEAAAAEQAAAEhHUFNvZWlLYWt1cG9wdGFpAAAAAQAAAAwAAAAIAAwABAAIAAgAAAAIAAAAUAAAAA8AAAB3AAAAAAAAAAAAAAAAAAAAAAA2ACQAAAAgABwAAAAAABsAFAAAAAAAAAAAAAAAAAAAAAAAAAAAABAAAAAAAAAADAAAAAgABAA2AAAAAgAAABwAAAAcAAAAHAAAAAAAIEEAAAABaAAAAE3PAEOw////tP///wEAAAAUAAAAEAAaAAgABwAMAAAAEAAUABAAAAAAAAABHAAAAAAAoEEcAAAAAgAAAAAACgAIAAUABgAHAAoAAAAADAD//P///wQABAAEAAAACAAIAAYABwAIAAAAAAAMAA==</value>
					</parameter>
					<parameter authoringApp="PremierePro">
					<parameterid>2</parameterid>
					<name></name>
					<IsTimeVarying>false</IsTimeVarying>
					<ParameterControlType>11</ParameterControlType>
					<LowerBound>false</LowerBound>
					<UpperBound>false</UpperBound>
					<value>-91445760000000000,false,0,0,0,0,0,0</value>
					</parameter>
					<parameter authoringApp="PremierePro">
					<parameterid>3</parameterid>
					<name></name>
					<IsTimeVarying>false</IsTimeVarying>
					<value>-91445760000000000,0.5:0.5,0,0,0,0,0,0,5,4,0,0,0,0</value>
					</parameter>
					<parameter authoringApp="PremierePro">
					<parameterid>4</parameterid>
					<name></name>
					<IsTimeVarying>false</IsTimeVarying>
					<ParameterControlType>2</ParameterControlType>
					<LowerBound>0</LowerBound>
					<UpperBound>4000</UpperBound>
					<value>-91445760000000000,100.,0,0,0,0,0,0</value>
					</parameter>
					<parameter authoringApp="PremierePro">
					<parameterid>8</parameterid>
					<name></name>
					<IsTimeVarying>false</IsTimeVarying>
					<ParameterControlType>2</ParameterControlType>
					<LowerBound>0</LowerBound>
					<UpperBound>100</UpperBound>
					<value>-91445760000000000,100.,0,0,0,0,0,0</value>
					</parameter>
					</effect>
					</filter>
					<logginginfo>
					<description></description>
					<scene></scene>
					<shottake></shottake>
					<lognote></lognote>
					<good></good>
					<originalvideofilename></originalvideofilename>
					<originalaudiofilename></originalaudiofilename>
					</logginginfo>
					<colorinfo>
					<lut></lut>
					<lut1></lut1>
					<asc_sop></asc_sop>
					<asc_sat></asc_sat>
					<lut2></lut2>
					</colorinfo>
					<labels>
					</labels>
					</clipitem>
					<clipitem frameBlend="FALSE" id="clipitem-648">
					<masterclipid>masterclip-568</masterclipid>
					<name></name>
					<enabled>TRUE</enabled>
					<duration>2582774</duration>
					<rate>
					
					                                    <timebase>60</timebase>
					                                    <ntsc>TRUE</ntsc>
					                                
					</rate>
					<start>5566</start>
					<end>5632</end>
					<in>5566</in>
					<out>5632</out>
					<pproTicksIn>914456774963789</pproTicksIn>
					<pproTicksOut>914677708529577</pproTicksOut>
					<alphatype>straight</alphatype>
					<pixelaspectratio>square</pixelaspectratio>
					<anamorphic>FALSE</anamorphic>
					<file id="file-567">
					<name></name>
					<mediaSource>GraphicAndType</mediaSource>
					<rate>
					<timebase>60</timebase>
					<ntsc>TRUE</ntsc>
					</rate>
					<timecode>
					<rate>
					<timebase>60</timebase>
					<ntsc>TRUE</ntsc>
					</rate>
					<string>00:00:00:00</string>
					<frame>0</frame>
					<displayformat>NDF</displayformat>
					</timecode>
					<media>
					<video>
					<samplecharacteristics>
					<rate>
					<timebase>60</timebase>
					<ntsc>TRUE</ntsc>
					</rate>
					<width>1080</width>
					<height>1920</height>
					<anamorphic>FALSE</anamorphic>
					<pixelaspectratio>square</pixelaspectratio>
					<fielddominance>none</fielddominance>
					</samplecharacteristics>
					</video>
					</media>
					</file>
					<filter>
					<effect>
					<name></name>
					<effectid>GraphicAndType</effectid>
					<effectcategory>graphic</effectcategory>
					<effecttype>filter</effecttype>
					<mediatype>video</mediatype>
					<pproBypass>false</pproBypass>
					<parameter authoringApp="PremierePro">
					<parameterid>1</parameterid>
					<name></name>
					<hash>025b1101-ead6-0ca2-1feb-caf3000001fc</hash>
					<value>5AEAAAAAAABEMyIRDAAAAAAABgAKAAQABgAAAGQAAAAAAF4ASAAQAAwARABAADwAOAAAAAAAAAAAADQAMwAsAAAAKAAkACAAAAAAAAAAAAAAAAAAHAAAAAAAGgAAAAAAAAAUAAAAAAAAAAAAAAAAAAAAAAAAAAgAAAAAABsABwBeAAAAAAAAAUAAAABQAAAAbAAAAAIAAAAAAAEAAQAAAAAAQEEAAMBAAABAQAAAyEIAAAABIAAAAAIAAAACAAAAAAA2QwCASkTw/v//9P7///j+//8S////AAAAAAEAAAAEAAAAEQAAAEhHUFNvZWlLYWt1cG9wdGFpAAAAAQAAAAwAAAAIAAwABAAIAAgAAAAIAAAAUAAAAA8AAADvvIEAAAAAAAAAAAAAAAAAAAA2ACQAAAAgABwAAAAAABsAFAAAAAAAAAAAAAAAAAAAAAAAAAAAABAAAAAAAAAADAAAAAgABAA2AAAAAgAAABwAAAAcAAAAHAAAAAAAIEEAAAABaAAAAE3PAEOw////tP///wEAAAAUAAAAEAAaAAgABwAMAAAAEAAUABAAAAAAAAABHAAAAAAAoEEcAAAAAgAAAAAACgAIAAUABgAHAAoAAAAADAD//P///wQABAAEAAAACAAIAAYABwAIAAAAAAAMAA==</value>
					</parameter>
					<parameter authoringApp="PremierePro">
					<parameterid>2</parameterid>
					<name></name>
					<IsTimeVarying>false</IsTimeVarying>
					<ParameterControlType>11</ParameterControlType>
					<LowerBound>false</LowerBound>
					<UpperBound>false</UpperBound>
					<value>-91445760000000000,false,0,0,0,0,0,0</value>
					</parameter>
					<parameter authoringApp="PremierePro">
					<parameterid>3</parameterid>
					<name></name>
					<IsTimeVarying>false</IsTimeVarying>
					<value>-91445760000000000,0.5:0.5,0,0,0,0,0,0,5,4,0,0,0,0</value>
					</parameter>
					<parameter authoringApp="PremierePro">
					<parameterid>4</parameterid>
					<name></name>
					<IsTimeVarying>false</IsTimeVarying>
					<ParameterControlType>2</ParameterControlType>
					<LowerBound>0</LowerBound>
					<UpperBound>4000</UpperBound>
					<value>-91445760000000000,100.,0,0,0,0,0,0</value>
					</parameter>
					<parameter authoringApp="PremierePro">
					<parameterid>8</parameterid>
					<name></name>
					<IsTimeVarying>false</IsTimeVarying>
					<ParameterControlType>2</ParameterControlType>
					<LowerBound>0</LowerBound>
					<UpperBound>100</UpperBound>
					<value>-91445760000000000,100.,0,0,0,0,0,0</value>
					</parameter>
					</effect>
					</filter>
					<logginginfo>
					<description></description>
					<scene></scene>
					<shottake></shottake>
					<lognote></lognote>
					<good></good>
					<originalvideofilename></originalvideofilename>
					<originalaudiofilename></originalaudiofilename>
					</logginginfo>
					<colorinfo>
					<lut></lut>
					<lut1></lut1>
					<asc_sop></asc_sop>
					<asc_sat></asc_sat>
					<lut2></lut2>
					</colorinfo>
					<labels>
					</labels>
					</clipitem>
					<clipitem frameBlend="FALSE" id="clipitem-658">
					<masterclipid>masterclip-578</masterclipid>
					<name></name>
					<enabled>TRUE</enabled>
					<duration>2582774</duration>
					<rate>
					
					                                    <timebase>60</timebase>
					                                    <ntsc>TRUE</ntsc>
					                                
					</rate>
					<start>5632</start>
					<end>5692</end>
					<in>5632</in>
					<out>5692</out>
					<pproTicksIn>914456774963789</pproTicksIn>
					<pproTicksOut>914677708529577</pproTicksOut>
					<alphatype>straight</alphatype>
					<pixelaspectratio>square</pixelaspectratio>
					<anamorphic>FALSE</anamorphic>
					<file id="file-577">
					<name></name>
					<mediaSource>GraphicAndType</mediaSource>
					<rate>
					<timebase>60</timebase>
					<ntsc>TRUE</ntsc>
					</rate>
					<timecode>
					<rate>
					<timebase>60</timebase>
					<ntsc>TRUE</ntsc>
					</rate>
					<string>00:00:00:00</string>
					<frame>0</frame>
					<displayformat>NDF</displayformat>
					</timecode>
					<media>
					<video>
					<samplecharacteristics>
					<rate>
					<timebase>60</timebase>
					<ntsc>TRUE</ntsc>
					</rate>
					<width>1080</width>
					<height>1920</height>
					<anamorphic>FALSE</anamorphic>
					<pixelaspectratio>square</pixelaspectratio>
					<fielddominance>none</fielddominance>
					</samplecharacteristics>
					</video>
					</media>
					</file>
					<filter>
					<effect>
					<name></name>
					<effectid>GraphicAndType</effectid>
					<effectcategory>graphic</effectcategory>
					<effecttype>filter</effecttype>
					<mediatype>video</mediatype>
					<pproBypass>false</pproBypass>
					<parameter authoringApp="PremierePro">
					<parameterid>1</parameterid>
					<name></name>
					<hash>025b1101-ead6-0ca2-1feb-caf3000001fc</hash>
					<value>5AEAAAAAAABEMyIRDAAAAAAABgAKAAQABgAAAGQAAAAAAF4ASAAQAAwARABAADwAOAAAAAAAAAAAADQAMwAsAAAAKAAkACAAAAAAAAAAAAAAAAAAHAAAAAAAGgAAAAAAAAAUAAAAAAAAAAAAAAAAAAAAAAAAAAgAAAAAABsABwBeAAAAAAAAAUAAAABQAAAAbAAAAAIAAAAAAAEAAQAAAAAAQEEAAMBAAABAQAAAyEIAAAABIAAAAAIAAAACAAAAAAA2QwCASkTw/v//9P7///j+//8S////AAAAAAEAAAAEAAAAEQAAAEhHUFNvZWlLYWt1cG9wdGFpAAAAAQAAAAwAAAAIAAwABAAIAAgAAAAIAAAAUAAAAA8AAADvvIEAAAAAAAAAAAAAAAAAAAA2ACQAAAAgABwAAAAAABsAFAAAAAAAAAAAAAAAAAAAAAAAAAAAABAAAAAAAAAADAAAAAgABAA2AAAAAgAAABwAAAAcAAAAHAAAAAAAIEEAAAABaAAAAE3PAEOw////tP///wEAAAAUAAAAEAAaAAgABwAMAAAAEAAUABAAAAAAAAABHAAAAAAAoEEcAAAAAgAAAAAACgAIAAUABgAHAAoAAAAADAD//P///wQABAAEAAAACAAIAAYABwAIAAAAAAAMAA==</value>
					</parameter>
					<parameter authoringApp="PremierePro">
					<parameterid>2</parameterid>
					<name></name>
					<IsTimeVarying>false</IsTimeVarying>
					<ParameterControlType>11</ParameterControlType>
					<LowerBound>false</LowerBound>
					<UpperBound>false</UpperBound>
					<value>-91445760000000000,false,0,0,0,0,0,0</value>
					</parameter>
					<parameter authoringApp="PremierePro">
					<parameterid>3</parameterid>
					<name></name>
					<IsTimeVarying>false</IsTimeVarying>
					<value>-91445760000000000,0.5:0.5,0,0,0,0,0,0,5,4,0,0,0,0</value>
					</parameter>
					<parameter authoringApp="PremierePro">
					<parameterid>4</parameterid>
					<name></name>
					<IsTimeVarying>false</IsTimeVarying>
					<ParameterControlType>2</ParameterControlType>
					<LowerBound>0</LowerBound>
					<UpperBound>4000</UpperBound>
					<value>-91445760000000000,100.,0,0,0,0,0,0</value>
					</parameter>
					<parameter authoringApp="PremierePro">
					<parameterid>8</parameterid>
					<name></name>
					<IsTimeVarying>false</IsTimeVarying>
					<ParameterControlType>2</ParameterControlType>
					<LowerBound>0</LowerBound>
					<UpperBound>100</UpperBound>
					<value>-91445760000000000,100.,0,0,0,0,0,0</value>
					</parameter>
					</effect>
					</filter>
					<logginginfo>
					<description></description>
					<scene></scene>
					<shottake></shottake>
					<lognote></lognote>
					<good></good>
					<originalvideofilename></originalvideofilename>
					<originalaudiofilename></originalaudiofilename>
					</logginginfo>
					<colorinfo>
					<lut></lut>
					<lut1></lut1>
					<asc_sop></asc_sop>
					<asc_sat></asc_sat>
					<lut2></lut2>
					</colorinfo>
					<labels>
					</labels>
					</clipitem>
					<clipitem frameBlend="FALSE" id="clipitem-673">
					<masterclipid>masterclip-593</masterclipid>
					<name></name>
					<enabled>TRUE</enabled>
					<duration>2582774</duration>
					<rate>
					
					                                    <timebase>60</timebase>
					                                    <ntsc>TRUE</ntsc>
					                                
					</rate>
					<start>5806</start>
					<end>5866</end>
					<in>5806</in>
					<out>5866</out>
					<pproTicksIn>914456774963789</pproTicksIn>
					<pproTicksOut>914677708529577</pproTicksOut>
					<alphatype>straight</alphatype>
					<pixelaspectratio>square</pixelaspectratio>
					<anamorphic>FALSE</anamorphic>
					<file id="file-592">
					<name></name>
					<mediaSource>GraphicAndType</mediaSource>
					<rate>
					<timebase>60</timebase>
					<ntsc>TRUE</ntsc>
					</rate>
					<timecode>
					<rate>
					<timebase>60</timebase>
					<ntsc>TRUE</ntsc>
					</rate>
					<string>00:00:00:00</string>
					<frame>0</frame>
					<displayformat>NDF</displayformat>
					</timecode>
					<media>
					<video>
					<samplecharacteristics>
					<rate>
					<timebase>60</timebase>
					<ntsc>TRUE</ntsc>
					</rate>
					<width>1080</width>
					<height>1920</height>
					<anamorphic>FALSE</anamorphic>
					<pixelaspectratio>square</pixelaspectratio>
					<fielddominance>none</fielddominance>
					</samplecharacteristics>
					</video>
					</media>
					</file>
					<filter>
					<effect>
					<name></name>
					<effectid>GraphicAndType</effectid>
					<effectcategory>graphic</effectcategory>
					<effecttype>filter</effecttype>
					<mediatype>video</mediatype>
					<pproBypass>false</pproBypass>
					<parameter authoringApp="PremierePro">
					<parameterid>1</parameterid>
					<name></name>
					<hash>025b1101-ead6-0ca2-1feb-caf3000001fc</hash>
					<value>5AEAAAAAAABEMyIRDAAAAAAABgAKAAQABgAAAGQAAAAAAF4ASAAQAAwARABAADwAOAAAAAAAAAAAADQAMwAsAAAAKAAkACAAAAAAAAAAAAAAAAAAHAAAAAAAGgAAAAAAAAAUAAAAAAAAAAAAAAAAAAAAAAAAAAgAAAAAABsABwBeAAAAAAAAAUAAAABQAAAAbAAAAAIAAAAAAAEAAQAAAAAAQEEAAMBAAABAQAAAyEIAAAABIAAAAAIAAAACAAAAAAA2QwCASkTw/v//9P7///j+//8S////AAAAAAEAAAAEAAAAEQAAAEhHUFNvZWlLYWt1cG9wdGFpAAAAAQAAAAwAAAAIAAwABAAIAAgAAAAIAAAAUAAAAA8AAADvvIEAAAAAAAAAAAAAAAAAAAA2ACQAAAAgABwAAAAAABsAFAAAAAAAAAAAAAAAAAAAAAAAAAAAABAAAAAAAAAADAAAAAgABAA2AAAAAgAAABwAAAAcAAAAHAAAAAAAIEEAAAABaAAAAE3PAEOw////tP///wEAAAAUAAAAEAAaAAgABwAMAAAAEAAUABAAAAAAAAABHAAAAAAAoEEcAAAAAgAAAAAACgAIAAUABgAHAAoAAAAADAD//P///wQABAAEAAAACAAIAAYABwAIAAAAAAAMAA==</value>
					</parameter>
					<parameter authoringApp="PremierePro">
					<parameterid>2</parameterid>
					<name></name>
					<IsTimeVarying>false</IsTimeVarying>
					<ParameterControlType>11</ParameterControlType>
					<LowerBound>false</LowerBound>
					<UpperBound>false</UpperBound>
					<value>-91445760000000000,false,0,0,0,0,0,0</value>
					</parameter>
					<parameter authoringApp="PremierePro">
					<parameterid>3</parameterid>
					<name></name>
					<IsTimeVarying>false</IsTimeVarying>
					<value>-91445760000000000,0.5:0.5,0,0,0,0,0,0,5,4,0,0,0,0</value>
					</parameter>
					<parameter authoringApp="PremierePro">
					<parameterid>4</parameterid>
					<name></name>
					<IsTimeVarying>false</IsTimeVarying>
					<ParameterControlType>2</ParameterControlType>
					<LowerBound>0</LowerBound>
					<UpperBound>4000</UpperBound>
					<value>-91445760000000000,100.,0,0,0,0,0,0</value>
					</parameter>
					<parameter authoringApp="PremierePro">
					<parameterid>8</parameterid>
					<name></name>
					<IsTimeVarying>false</IsTimeVarying>
					<ParameterControlType>2</ParameterControlType>
					<LowerBound>0</LowerBound>
					<UpperBound>100</UpperBound>
					<value>-91445760000000000,100.,0,0,0,0,0,0</value>
					</parameter>
					</effect>
					</filter>
					<logginginfo>
					<description></description>
					<scene></scene>
					<shottake></shottake>
					<lognote></lognote>
					<good></good>
					<originalvideofilename></originalvideofilename>
					<originalaudiofilename></originalaudiofilename>
					</logginginfo>
					<colorinfo>
					<lut></lut>
					<lut1></lut1>
					<asc_sop></asc_sop>
					<asc_sat></asc_sat>
					<lut2></lut2>
					</colorinfo>
					<labels>
					</labels>
					</clipitem>
					<clipitem frameBlend="FALSE" id="clipitem-686">
					<masterclipid>masterclip-606</masterclipid>
					<name></name>
					<enabled>TRUE</enabled>
					<duration>2582774</duration>
					<rate>
					
					                                    <timebase>60</timebase>
					                                    <ntsc>TRUE</ntsc>
					                                
					</rate>
					<start>5944</start>
					<end>6010</end>
					<in>5944</in>
					<out>6010</out>
					<pproTicksIn>914456774963789</pproTicksIn>
					<pproTicksOut>914677708529577</pproTicksOut>
					<alphatype>straight</alphatype>
					<pixelaspectratio>square</pixelaspectratio>
					<anamorphic>FALSE</anamorphic>
					<file id="file-605">
					<name></name>
					<mediaSource>GraphicAndType</mediaSource>
					<rate>
					<timebase>60</timebase>
					<ntsc>TRUE</ntsc>
					</rate>
					<timecode>
					<rate>
					<timebase>60</timebase>
					<ntsc>TRUE</ntsc>
					</rate>
					<string>00:00:00:00</string>
					<frame>0</frame>
					<displayformat>NDF</displayformat>
					</timecode>
					<media>
					<video>
					<samplecharacteristics>
					<rate>
					<timebase>60</timebase>
					<ntsc>TRUE</ntsc>
					</rate>
					<width>1080</width>
					<height>1920</height>
					<anamorphic>FALSE</anamorphic>
					<pixelaspectratio>square</pixelaspectratio>
					<fielddominance>none</fielddominance>
					</samplecharacteristics>
					</video>
					</media>
					</file>
					<filter>
					<effect>
					<name></name>
					<effectid>GraphicAndType</effectid>
					<effectcategory>graphic</effectcategory>
					<effecttype>filter</effecttype>
					<mediatype>video</mediatype>
					<pproBypass>false</pproBypass>
					<parameter authoringApp="PremierePro">
					<parameterid>1</parameterid>
					<name></name>
					<hash>025b1101-ead6-0ca2-1feb-caf3000001fc</hash>
					<value>5AEAAAAAAABEMyIRDAAAAAAABgAKAAQABgAAAGQAAAAAAF4ASAAQAAwARABAADwAOAAAAAAAAAAAADQAMwAsAAAAKAAkACAAAAAAAAAAAAAAAAAAHAAAAAAAGgAAAAAAAAAUAAAAAAAAAAAAAAAAAAAAAAAAAAgAAAAAABsABwBeAAAAAAAAAUAAAABQAAAAbAAAAAIAAAAAAAEAAQAAAAAAQEEAAMBAAABAQAAAyEIAAAABIAAAAAIAAAACAAAAAAA2QwCASkTw/v//9P7///j+//8S////AAAAAAEAAAAEAAAAEQAAAEhHUFNvZWlLYWt1cG9wdGFpAAAAAQAAAAwAAAAIAAwABAAIAAgAAAAIAAAAUAAAAA8AAADvvIEAAAAAAAAAAAAAAAAAAAA2ACQAAAAgABwAAAAAABsAFAAAAAAAAAAAAAAAAAAAAAAAAAAAABAAAAAAAAAADAAAAAgABAA2AAAAAgAAABwAAAAcAAAAHAAAAAAAIEEAAAABaAAAAE3PAEOw////tP///wEAAAAUAAAAEAAaAAgABwAMAAAAEAAUABAAAAAAAAABHAAAAAAAoEEcAAAAAgAAAAAACgAIAAUABgAHAAoAAAAADAD//P///wQABAAEAAAACAAIAAYABwAIAAAAAAAMAA==</value>
					</parameter>
					<parameter authoringApp="PremierePro">
					<parameterid>2</parameterid>
					<name></name>
					<IsTimeVarying>false</IsTimeVarying>
					<ParameterControlType>11</ParameterControlType>
					<LowerBound>false</LowerBound>
					<UpperBound>false</UpperBound>
					<value>-91445760000000000,false,0,0,0,0,0,0</value>
					</parameter>
					<parameter authoringApp="PremierePro">
					<parameterid>3</parameterid>
					<name></name>
					<IsTimeVarying>false</IsTimeVarying>
					<value>-91445760000000000,0.5:0.5,0,0,0,0,0,0,5,4,0,0,0,0</value>
					</parameter>
					<parameter authoringApp="PremierePro">
					<parameterid>4</parameterid>
					<name></name>
					<IsTimeVarying>false</IsTimeVarying>
					<ParameterControlType>2</ParameterControlType>
					<LowerBound>0</LowerBound>
					<UpperBound>4000</UpperBound>
					<value>-91445760000000000,100.,0,0,0,0,0,0</value>
					</parameter>
					<parameter authoringApp="PremierePro">
					<parameterid>8</parameterid>
					<name></name>
					<IsTimeVarying>false</IsTimeVarying>
					<ParameterControlType>2</ParameterControlType>
					<LowerBound>0</LowerBound>
					<UpperBound>100</UpperBound>
					<value>-91445760000000000,100.,0,0,0,0,0,0</value>
					</parameter>
					</effect>
					</filter>
					<logginginfo>
					<description></description>
					<scene></scene>
					<shottake></shottake>
					<lognote></lognote>
					<good></good>
					<originalvideofilename></originalvideofilename>
					<originalaudiofilename></originalaudiofilename>
					</logginginfo>
					<colorinfo>
					<lut></lut>
					<lut1></lut1>
					<asc_sop></asc_sop>
					<asc_sat></asc_sat>
					<lut2></lut2>
					</colorinfo>
					<labels>
					</labels>
					</clipitem>
					<clipitem frameBlend="FALSE" id="clipitem-693">
					<masterclipid>masterclip-613</masterclipid>
					<name></name>
					<enabled>TRUE</enabled>
					<duration>2582774</duration>
					<rate>
					
					                                    <timebase>60</timebase>
					                                    <ntsc>TRUE</ntsc>
					                                
					</rate>
					<start>6016</start>
					<end>6082</end>
					<in>6016</in>
					<out>6082</out>
					<pproTicksIn>914456774963789</pproTicksIn>
					<pproTicksOut>914677708529577</pproTicksOut>
					<alphatype>straight</alphatype>
					<pixelaspectratio>square</pixelaspectratio>
					<anamorphic>FALSE</anamorphic>
					<file id="file-612">
					<name></name>
					<mediaSource>GraphicAndType</mediaSource>
					<rate>
					<timebase>60</timebase>
					<ntsc>TRUE</ntsc>
					</rate>
					<timecode>
					<rate>
					<timebase>60</timebase>
					<ntsc>TRUE</ntsc>
					</rate>
					<string>00:00:00:00</string>
					<frame>0</frame>
					<displayformat>NDF</displayformat>
					</timecode>
					<media>
					<video>
					<samplecharacteristics>
					<rate>
					<timebase>60</timebase>
					<ntsc>TRUE</ntsc>
					</rate>
					<width>1080</width>
					<height>1920</height>
					<anamorphic>FALSE</anamorphic>
					<pixelaspectratio>square</pixelaspectratio>
					<fielddominance>none</fielddominance>
					</samplecharacteristics>
					</video>
					</media>
					</file>
					<filter>
					<effect>
					<name></name>
					<effectid>GraphicAndType</effectid>
					<effectcategory>graphic</effectcategory>
					<effecttype>filter</effecttype>
					<mediatype>video</mediatype>
					<pproBypass>false</pproBypass>
					<parameter authoringApp="PremierePro">
					<parameterid>1</parameterid>
					<name></name>
					<hash>025b1101-ead6-0ca2-1feb-caf3000001fc</hash>
					<value>5AEAAAAAAABEMyIRDAAAAAAABgAKAAQABgAAAGQAAAAAAF4ASAAQAAwARABAADwAOAAAAAAAAAAAADQAMwAsAAAAKAAkACAAAAAAAAAAAAAAAAAAHAAAAAAAGgAAAAAAAAAUAAAAAAAAAAAAAAAAAAAAAAAAAAgAAAAAABsABwBeAAAAAAAAAUAAAABQAAAAbAAAAAIAAAAAAAEAAQAAAAAAQEEAAMBAAABAQAAAyEIAAAABIAAAAAIAAAACAAAAAAA2QwCASkTw/v//9P7///j+//8S////AAAAAAEAAAAEAAAAEQAAAEhHUFNvZWlLYWt1cG9wdGFpAAAAAQAAAAwAAAAIAAwABAAIAAgAAAAIAAAAUAAAAA8AAADvvIEAAAAAAAAAAAAAAAAAAAA2ACQAAAAgABwAAAAAABsAFAAAAAAAAAAAAAAAAAAAAAAAAAAAABAAAAAAAAAADAAAAAgABAA2AAAAAgAAABwAAAAcAAAAHAAAAAAAIEEAAAABaAAAAE3PAEOw////tP///wEAAAAUAAAAEAAaAAgABwAMAAAAEAAUABAAAAAAAAABHAAAAAAAoEEcAAAAAgAAAAAACgAIAAUABgAHAAoAAAAADAD//P///wQABAAEAAAACAAIAAYABwAIAAAAAAAMAA==</value>
					</parameter>
					<parameter authoringApp="PremierePro">
					<parameterid>2</parameterid>
					<name></name>
					<IsTimeVarying>false</IsTimeVarying>
					<ParameterControlType>11</ParameterControlType>
					<LowerBound>false</LowerBound>
					<UpperBound>false</UpperBound>
					<value>-91445760000000000,false,0,0,0,0,0,0</value>
					</parameter>
					<parameter authoringApp="PremierePro">
					<parameterid>3</parameterid>
					<name></name>
					<IsTimeVarying>false</IsTimeVarying>
					<value>-91445760000000000,0.5:0.5,0,0,0,0,0,0,5,4,0,0,0,0</value>
					</parameter>
					<parameter authoringApp="PremierePro">
					<parameterid>4</parameterid>
					<name></name>
					<IsTimeVarying>false</IsTimeVarying>
					<ParameterControlType>2</ParameterControlType>
					<LowerBound>0</LowerBound>
					<UpperBound>4000</UpperBound>
					<value>-91445760000000000,100.,0,0,0,0,0,0</value>
					</parameter>
					<parameter authoringApp="PremierePro">
					<parameterid>8</parameterid>
					<name></name>
					<IsTimeVarying>false</IsTimeVarying>
					<ParameterControlType>2</ParameterControlType>
					<LowerBound>0</LowerBound>
					<UpperBound>100</UpperBound>
					<value>-91445760000000000,100.,0,0,0,0,0,0</value>
					</parameter>
					</effect>
					</filter>
					<logginginfo>
					<description></description>
					<scene></scene>
					<shottake></shottake>
					<lognote></lognote>
					<good></good>
					<originalvideofilename></originalvideofilename>
					<originalaudiofilename></originalaudiofilename>
					</logginginfo>
					<colorinfo>
					<lut></lut>
					<lut1></lut1>
					<asc_sop></asc_sop>
					<asc_sat></asc_sat>
					<lut2></lut2>
					</colorinfo>
					<labels>
					</labels>
					</clipitem>
					<clipitem frameBlend="FALSE" id="clipitem-703">
					<masterclipid>masterclip-623</masterclipid>
					<name></name>
					<enabled>TRUE</enabled>
					<duration>2582774</duration>
					<rate>
					
					                                    <timebase>60</timebase>
					                                    <ntsc>TRUE</ntsc>
					                                
					</rate>
					<start>6112</start>
					<end>6178</end>
					<in>6112</in>
					<out>6178</out>
					<pproTicksIn>914456774963789</pproTicksIn>
					<pproTicksOut>914677708529577</pproTicksOut>
					<alphatype>straight</alphatype>
					<pixelaspectratio>square</pixelaspectratio>
					<anamorphic>FALSE</anamorphic>
					<file id="file-622">
					<name></name>
					<mediaSource>GraphicAndType</mediaSource>
					<rate>
					<timebase>60</timebase>
					<ntsc>TRUE</ntsc>
					</rate>
					<timecode>
					<rate>
					<timebase>60</timebase>
					<ntsc>TRUE</ntsc>
					</rate>
					<string>00:00:00:00</string>
					<frame>0</frame>
					<displayformat>NDF</displayformat>
					</timecode>
					<media>
					<video>
					<samplecharacteristics>
					<rate>
					<timebase>60</timebase>
					<ntsc>TRUE</ntsc>
					</rate>
					<width>1080</width>
					<height>1920</height>
					<anamorphic>FALSE</anamorphic>
					<pixelaspectratio>square</pixelaspectratio>
					<fielddominance>none</fielddominance>
					</samplecharacteristics>
					</video>
					</media>
					</file>
					<filter>
					<effect>
					<name></name>
					<effectid>GraphicAndType</effectid>
					<effectcategory>graphic</effectcategory>
					<effecttype>filter</effecttype>
					<mediatype>video</mediatype>
					<pproBypass>false</pproBypass>
					<parameter authoringApp="PremierePro">
					<parameterid>1</parameterid>
					<name></name>
					<hash>025b1101-ead6-0ca2-1feb-caf3000001fc</hash>
					<value>5AEAAAAAAABEMyIRDAAAAAAABgAKAAQABgAAAGQAAAAAAF4ASAAQAAwARABAADwAOAAAAAAAAAAAADQAMwAsAAAAKAAkACAAAAAAAAAAAAAAAAAAHAAAAAAAGgAAAAAAAAAUAAAAAAAAAAAAAAAAAAAAAAAAAAgAAAAAABsABwBeAAAAAAAAAUAAAABQAAAAbAAAAAIAAAAAAAEAAQAAAAAAQEEAAMBAAABAQAAAyEIAAAABIAAAAAIAAAACAAAAAAA2QwCASkTw/v//9P7///j+//8S////AAAAAAEAAAAEAAAAEQAAAEhHUFNvZWlLYWt1cG9wdGFpAAAAAQAAAAwAAAAIAAwABAAIAAgAAAAIAAAAUAAAAA8AAADvvIEAAAAAAAAAAAAAAAAAAAA2ACQAAAAgABwAAAAAABsAFAAAAAAAAAAAAAAAAAAAAAAAAAAAABAAAAAAAAAADAAAAAgABAA2AAAAAgAAABwAAAAcAAAAHAAAAAAAIEEAAAABaAAAAE3PAEOw////tP///wEAAAAUAAAAEAAaAAgABwAMAAAAEAAUABAAAAAAAAABHAAAAAAAoEEcAAAAAgAAAAAACgAIAAUABgAHAAoAAAAADAD//P///wQABAAEAAAACAAIAAYABwAIAAAAAAAMAA==</value>
					</parameter>
					<parameter authoringApp="PremierePro">
					<parameterid>2</parameterid>
					<name></name>
					<IsTimeVarying>false</IsTimeVarying>
					<ParameterControlType>11</ParameterControlType>
					<LowerBound>false</LowerBound>
					<UpperBound>false</UpperBound>
					<value>-91445760000000000,false,0,0,0,0,0,0</value>
					</parameter>
					<parameter authoringApp="PremierePro">
					<parameterid>3</parameterid>
					<name></name>
					<IsTimeVarying>false</IsTimeVarying>
					<value>-91445760000000000,0.5:0.5,0,0,0,0,0,0,5,4,0,0,0,0</value>
					</parameter>
					<parameter authoringApp="PremierePro">
					<parameterid>4</parameterid>
					<name></name>
					<IsTimeVarying>false</IsTimeVarying>
					<ParameterControlType>2</ParameterControlType>
					<LowerBound>0</LowerBound>
					<UpperBound>4000</UpperBound>
					<value>-91445760000000000,100.,0,0,0,0,0,0</value>
					</parameter>
					<parameter authoringApp="PremierePro">
					<parameterid>8</parameterid>
					<name></name>
					<IsTimeVarying>false</IsTimeVarying>
					<ParameterControlType>2</ParameterControlType>
					<LowerBound>0</LowerBound>
					<UpperBound>100</UpperBound>
					<value>-91445760000000000,100.,0,0,0,0,0,0</value>
					</parameter>
					</effect>
					</filter>
					<logginginfo>
					<description></description>
					<scene></scene>
					<shottake></shottake>
					<lognote></lognote>
					<good></good>
					<originalvideofilename></originalvideofilename>
					<originalaudiofilename></originalaudiofilename>
					</logginginfo>
					<colorinfo>
					<lut></lut>
					<lut1></lut1>
					<asc_sop></asc_sop>
					<asc_sat></asc_sat>
					<lut2></lut2>
					</colorinfo>
					<labels>
					</labels>
					</clipitem>
					<clipitem frameBlend="FALSE" id="clipitem-711">
					<masterclipid>masterclip-631</masterclipid>
					<name></name>
					<enabled>TRUE</enabled>
					<duration>2582774</duration>
					<rate>
					
					                                    <timebase>60</timebase>
					                                    <ntsc>TRUE</ntsc>
					                                
					</rate>
					<start>6178</start>
					<end>6244</end>
					<in>6178</in>
					<out>6244</out>
					<pproTicksIn>914456774963789</pproTicksIn>
					<pproTicksOut>914677708529577</pproTicksOut>
					<alphatype>straight</alphatype>
					<pixelaspectratio>square</pixelaspectratio>
					<anamorphic>FALSE</anamorphic>
					<file id="file-630">
					<name></name>
					<mediaSource>GraphicAndType</mediaSource>
					<rate>
					<timebase>60</timebase>
					<ntsc>TRUE</ntsc>
					</rate>
					<timecode>
					<rate>
					<timebase>60</timebase>
					<ntsc>TRUE</ntsc>
					</rate>
					<string>00:00:00:00</string>
					<frame>0</frame>
					<displayformat>NDF</displayformat>
					</timecode>
					<media>
					<video>
					<samplecharacteristics>
					<rate>
					<timebase>60</timebase>
					<ntsc>TRUE</ntsc>
					</rate>
					<width>1080</width>
					<height>1920</height>
					<anamorphic>FALSE</anamorphic>
					<pixelaspectratio>square</pixelaspectratio>
					<fielddominance>none</fielddominance>
					</samplecharacteristics>
					</video>
					</media>
					</file>
					<filter>
					<effect>
					<name></name>
					<effectid>GraphicAndType</effectid>
					<effectcategory>graphic</effectcategory>
					<effecttype>filter</effecttype>
					<mediatype>video</mediatype>
					<pproBypass>false</pproBypass>
					<parameter authoringApp="PremierePro">
					<parameterid>1</parameterid>
					<name></name>
					<hash>025b1101-ead6-0ca2-1feb-caf3000001fc</hash>
					<value>5AEAAAAAAABEMyIRDAAAAAAABgAKAAQABgAAAGQAAAAAAF4ASAAQAAwARABAADwAOAAAAAAAAAAAADQAMwAsAAAAKAAkACAAAAAAAAAAAAAAAAAAHAAAAAAAGgAAAAAAAAAUAAAAAAAAAAAAAAAAAAAAAAAAAAgAAAAAABsABwBeAAAAAAAAAUAAAABQAAAAbAAAAAIAAAAAAAEAAQAAAAAAQEEAAMBAAABAQAAAyEIAAAABIAAAAAIAAAACAAAAAAA2QwCASkTw/v//9P7///j+//8S////AAAAAAEAAAAEAAAAEQAAAEhHUFNvZWlLYWt1cG9wdGFpAAAAAQAAAAwAAAAIAAwABAAIAAgAAAAIAAAAUAAAAA8AAADvvIEAAAAAAAAAAAAAAAAAAAA2ACQAAAAgABwAAAAAABsAFAAAAAAAAAAAAAAAAAAAAAAAAAAAABAAAAAAAAAADAAAAAgABAA2AAAAAgAAABwAAAAcAAAAHAAAAAAAIEEAAAABaAAAAE3PAEOw////tP///wEAAAAUAAAAEAAaAAgABwAMAAAAEAAUABAAAAAAAAABHAAAAAAAoEEcAAAAAgAAAAAACgAIAAUABgAHAAoAAAAADAD//P///wQABAAEAAAACAAIAAYABwAIAAAAAAAMAA==</value>
					</parameter>
					<parameter authoringApp="PremierePro">
					<parameterid>2</parameterid>
					<name></name>
					<IsTimeVarying>false</IsTimeVarying>
					<ParameterControlType>11</ParameterControlType>
					<LowerBound>false</LowerBound>
					<UpperBound>false</UpperBound>
					<value>-91445760000000000,false,0,0,0,0,0,0</value>
					</parameter>
					<parameter authoringApp="PremierePro">
					<parameterid>3</parameterid>
					<name></name>
					<IsTimeVarying>false</IsTimeVarying>
					<value>-91445760000000000,0.5:0.5,0,0,0,0,0,0,5,4,0,0,0,0</value>
					</parameter>
					<parameter authoringApp="PremierePro">
					<parameterid>4</parameterid>
					<name></name>
					<IsTimeVarying>false</IsTimeVarying>
					<ParameterControlType>2</ParameterControlType>
					<LowerBound>0</LowerBound>
					<UpperBound>4000</UpperBound>
					<value>-91445760000000000,100.,0,0,0,0,0,0</value>
					</parameter>
					<parameter authoringApp="PremierePro">
					<parameterid>8</parameterid>
					<name></name>
					<IsTimeVarying>false</IsTimeVarying>
					<ParameterControlType>2</ParameterControlType>
					<LowerBound>0</LowerBound>
					<UpperBound>100</UpperBound>
					<value>-91445760000000000,100.,0,0,0,0,0,0</value>
					</parameter>
					</effect>
					</filter>
					<logginginfo>
					<description></description>
					<scene></scene>
					<shottake></shottake>
					<lognote></lognote>
					<good></good>
					<originalvideofilename></originalvideofilename>
					<originalaudiofilename></originalaudiofilename>
					</logginginfo>
					<colorinfo>
					<lut></lut>
					<lut1></lut1>
					<asc_sop></asc_sop>
					<asc_sat></asc_sat>
					<lut2></lut2>
					</colorinfo>
					<labels>
					</labels>
					</clipitem>
					<clipitem frameBlend="FALSE" id="clipitem-719">
					<masterclipid>masterclip-639</masterclipid>
					<name></name>
					<enabled>TRUE</enabled>
					<duration>2582774</duration>
					<rate>
					
					                                    <timebase>60</timebase>
					                                    <ntsc>TRUE</ntsc>
					                                
					</rate>
					<start>6244</start>
					<end>6304</end>
					<in>6244</in>
					<out>6304</out>
					<pproTicksIn>914456774963789</pproTicksIn>
					<pproTicksOut>914677708529577</pproTicksOut>
					<alphatype>straight</alphatype>
					<pixelaspectratio>square</pixelaspectratio>
					<anamorphic>FALSE</anamorphic>
					<file id="file-638">
					<name></name>
					<mediaSource>GraphicAndType</mediaSource>
					<rate>
					<timebase>60</timebase>
					<ntsc>TRUE</ntsc>
					</rate>
					<timecode>
					<rate>
					<timebase>60</timebase>
					<ntsc>TRUE</ntsc>
					</rate>
					<string>00:00:00:00</string>
					<frame>0</frame>
					<displayformat>NDF</displayformat>
					</timecode>
					<media>
					<video>
					<samplecharacteristics>
					<rate>
					<timebase>60</timebase>
					<ntsc>TRUE</ntsc>
					</rate>
					<width>1080</width>
					<height>1920</height>
					<anamorphic>FALSE</anamorphic>
					<pixelaspectratio>square</pixelaspectratio>
					<fielddominance>none</fielddominance>
					</samplecharacteristics>
					</video>
					</media>
					</file>
					<filter>
					<effect>
					<name></name>
					<effectid>GraphicAndType</effectid>
					<effectcategory>graphic</effectcategory>
					<effecttype>filter</effecttype>
					<mediatype>video</mediatype>
					<pproBypass>false</pproBypass>
					<parameter authoringApp="PremierePro">
					<parameterid>1</parameterid>
					<name></name>
					<hash>025b1101-ead6-0ca2-1feb-caf3000001fc</hash>
					<value>5AEAAAAAAABEMyIRDAAAAAAABgAKAAQABgAAAGQAAAAAAF4ASAAQAAwARABAADwAOAAAAAAAAAAAADQAMwAsAAAAKAAkACAAAAAAAAAAAAAAAAAAHAAAAAAAGgAAAAAAAAAUAAAAAAAAAAAAAAAAAAAAAAAAAAgAAAAAABsABwBeAAAAAAAAAUAAAABQAAAAbAAAAAIAAAAAAAEAAQAAAAAAQEEAAMBAAABAQAAAyEIAAAABIAAAAAIAAAACAAAAAAA2QwCASkTw/v//9P7///j+//8S////AAAAAAEAAAAEAAAAEQAAAEhHUFNvZWlLYWt1cG9wdGFpAAAAAQAAAAwAAAAIAAwABAAIAAgAAAAIAAAAUAAAAA8AAADvvIEAAAAAAAAAAAAAAAAAAAA2ACQAAAAgABwAAAAAABsAFAAAAAAAAAAAAAAAAAAAAAAAAAAAABAAAAAAAAAADAAAAAgABAA2AAAAAgAAABwAAAAcAAAAHAAAAAAAIEEAAAABaAAAAE3PAEOw////tP///wEAAAAUAAAAEAAaAAgABwAMAAAAEAAUABAAAAAAAAABHAAAAAAAoEEcAAAAAgAAAAAACgAIAAUABgAHAAoAAAAADAD//P///wQABAAEAAAACAAIAAYABwAIAAAAAAAMAA==</value>
					</parameter>
					<parameter authoringApp="PremierePro">
					<parameterid>2</parameterid>
					<name></name>
					<IsTimeVarying>false</IsTimeVarying>
					<ParameterControlType>11</ParameterControlType>
					<LowerBound>false</LowerBound>
					<UpperBound>false</UpperBound>
					<value>-91445760000000000,false,0,0,0,0,0,0</value>
					</parameter>
					<parameter authoringApp="PremierePro">
					<parameterid>3</parameterid>
					<name></name>
					<IsTimeVarying>false</IsTimeVarying>
					<value>-91445760000000000,0.5:0.5,0,0,0,0,0,0,5,4,0,0,0,0</value>
					</parameter>
					<parameter authoringApp="PremierePro">
					<parameterid>4</parameterid>
					<name></name>
					<IsTimeVarying>false</IsTimeVarying>
					<ParameterControlType>2</ParameterControlType>
					<LowerBound>0</LowerBound>
					<UpperBound>4000</UpperBound>
					<value>-91445760000000000,100.,0,0,0,0,0,0</value>
					</parameter>
					<parameter authoringApp="PremierePro">
					<parameterid>8</parameterid>
					<name></name>
					<IsTimeVarying>false</IsTimeVarying>
					<ParameterControlType>2</ParameterControlType>
					<LowerBound>0</LowerBound>
					<UpperBound>100</UpperBound>
					<value>-91445760000000000,100.,0,0,0,0,0,0</value>
					</parameter>
					</effect>
					</filter>
					<logginginfo>
					<description></description>
					<scene></scene>
					<shottake></shottake>
					<lognote></lognote>
					<good></good>
					<originalvideofilename></originalvideofilename>
					<originalaudiofilename></originalaudiofilename>
					</logginginfo>
					<colorinfo>
					<lut></lut>
					<lut1></lut1>
					<asc_sop></asc_sop>
					<asc_sat></asc_sat>
					<lut2></lut2>
					</colorinfo>
					<labels>
					</labels>
					</clipitem>
					<clipitem id="clipitem-725"/>
					                        </track>
					                        <track TL.SQTrackShy="0" TL.SQTrackExpandedHeight="25" TL.SQTrackExpanded="0" MZ.TrackTargeted="0">
					<clipitem frameBlend="FALSE" id="clipitem-726">
					<masterclipid>masterclip-646</masterclipid>
					<name></name>
					<enabled>TRUE</enabled>
					<duration>2582774</duration>
					<rate>
					
					                                    <timebase>60</timebase>
					                                    <ntsc>TRUE</ntsc>
					                                
					</rate>
					<start>6304</start>
					<end>6370</end>
					<in>6304</in>
					<out>6370</out>
					<pproTicksIn>914456774963789</pproTicksIn>
					<pproTicksOut>914677708529577</pproTicksOut>
					<alphatype>straight</alphatype>
					<pixelaspectratio>square</pixelaspectratio>
					<anamorphic>FALSE</anamorphic>
					<file id="file-645">
					<name></name>
					<mediaSource>GraphicAndType</mediaSource>
					<rate>
					<timebase>60</timebase>
					<ntsc>TRUE</ntsc>
					</rate>
					<timecode>
					<rate>
					<timebase>60</timebase>
					<ntsc>TRUE</ntsc>
					</rate>
					<string>00:00:00:00</string>
					<frame>0</frame>
					<displayformat>NDF</displayformat>
					</timecode>
					<media>
					<video>
					<samplecharacteristics>
					<rate>
					<timebase>60</timebase>
					<ntsc>TRUE</ntsc>
					</rate>
					<width>1080</width>
					<height>1920</height>
					<anamorphic>FALSE</anamorphic>
					<pixelaspectratio>square</pixelaspectratio>
					<fielddominance>none</fielddominance>
					</samplecharacteristics>
					</video>
					</media>
					</file>
					<filter>
					<effect>
					<name></name>
					<effectid>GraphicAndType</effectid>
					<effectcategory>graphic</effectcategory>
					<effecttype>filter</effecttype>
					<mediatype>video</mediatype>
					<pproBypass>false</pproBypass>
					<parameter authoringApp="PremierePro">
					<parameterid>1</parameterid>
					<name></name>
					<hash>025b1101-ead6-0ca2-1feb-caf3000001fc</hash>
					<value>5AEAAAAAAABEMyIRDAAAAAAABgAKAAQABgAAAGQAAAAAAF4ASAAQAAwARABAADwAOAAAAAAAAAAAADQAMwAsAAAAKAAkACAAAAAAAAAAAAAAAAAAHAAAAAAAGgAAAAAAAAAUAAAAAAAAAAAAAAAAAAAAAAAAAAgAAAAAABsABwBeAAAAAAAAAUAAAABQAAAAbAAAAAIAAAAAAAEAAQAAAAAAQEEAAMBAAABAQAAAyEIAAAABIAAAAAIAAAACAAAAAAA2QwCASkTw/v//9P7///j+//8S////AAAAAAEAAAAEAAAAEQAAAEhHUFNvZWlLYWt1cG9wdGFpAAAAAQAAAAwAAAAIAAwABAAIAAgAAAAIAAAAUAAAAA8AAADvvIEAAAAAAAAAAAAAAAAAAAA2ACQAAAAgABwAAAAAABsAFAAAAAAAAAAAAAAAAAAAAAAAAAAAABAAAAAAAAAADAAAAAgABAA2AAAAAgAAABwAAAAcAAAAHAAAAAAAIEEAAAABaAAAAE3PAEOw////tP///wEAAAAUAAAAEAAaAAgABwAMAAAAEAAUABAAAAAAAAABHAAAAAAAoEEcAAAAAgAAAAAACgAIAAUABgAHAAoAAAAADAD//P///wQABAAEAAAACAAIAAYABwAIAAAAAAAMAA==</value>
					</parameter>
					<parameter authoringApp="PremierePro">
					<parameterid>2</parameterid>
					<name></name>
					<IsTimeVarying>false</IsTimeVarying>
					<ParameterControlType>11</ParameterControlType>
					<LowerBound>false</LowerBound>
					<UpperBound>false</UpperBound>
					<value>-91445760000000000,false,0,0,0,0,0,0</value>
					</parameter>
					<parameter authoringApp="PremierePro">
					<parameterid>3</parameterid>
					<name></name>
					<IsTimeVarying>false</IsTimeVarying>
					<value>-91445760000000000,0.5:0.5,0,0,0,0,0,0,5,4,0,0,0,0</value>
					</parameter>
					<parameter authoringApp="PremierePro">
					<parameterid>4</parameterid>
					<name></name>
					<IsTimeVarying>false</IsTimeVarying>
					<ParameterControlType>2</ParameterControlType>
					<LowerBound>0</LowerBound>
					<UpperBound>4000</UpperBound>
					<value>-91445760000000000,100.,0,0,0,0,0,0</value>
					</parameter>
					<parameter authoringApp="PremierePro">
					<parameterid>8</parameterid>
					<name></name>
					<IsTimeVarying>false</IsTimeVarying>
					<ParameterControlType>2</ParameterControlType>
					<LowerBound>0</LowerBound>
					<UpperBound>100</UpperBound>
					<value>-91445760000000000,100.,0,0,0,0,0,0</value>
					</parameter>
					</effect>
					</filter>
					<logginginfo>
					<description></description>
					<scene></scene>
					<shottake></shottake>
					<lognote></lognote>
					<good></good>
					<originalvideofilename></originalvideofilename>
					<originalaudiofilename></originalaudiofilename>
					</logginginfo>
					<colorinfo>
					<lut></lut>
					<lut1></lut1>
					<asc_sop></asc_sop>
					<asc_sat></asc_sat>
					<lut2></lut2>
					</colorinfo>
					<labels>
					</labels>
					</clipitem>
					<clipitem frameBlend="FALSE" id="clipitem-734">
					<masterclipid>masterclip-654</masterclipid>
					<name></name>
					<enabled>TRUE</enabled>
					<duration>2582774</duration>
					<rate>
					
					                                    <timebase>60</timebase>
					                                    <ntsc>TRUE</ntsc>
					                                
					</rate>
					<start>6388</start>
					<end>6448</end>
					<in>6388</in>
					<out>6448</out>
					<pproTicksIn>914456774963789</pproTicksIn>
					<pproTicksOut>914677708529577</pproTicksOut>
					<alphatype>straight</alphatype>
					<pixelaspectratio>square</pixelaspectratio>
					<anamorphic>FALSE</anamorphic>
					<file id="file-653">
					<name></name>
					<mediaSource>GraphicAndType</mediaSource>
					<rate>
					<timebase>60</timebase>
					<ntsc>TRUE</ntsc>
					</rate>
					<timecode>
					<rate>
					<timebase>60</timebase>
					<ntsc>TRUE</ntsc>
					</rate>
					<string>00:00:00:00</string>
					<frame>0</frame>
					<displayformat>NDF</displayformat>
					</timecode>
					<media>
					<video>
					<samplecharacteristics>
					<rate>
					<timebase>60</timebase>
					<ntsc>TRUE</ntsc>
					</rate>
					<width>1080</width>
					<height>1920</height>
					<anamorphic>FALSE</anamorphic>
					<pixelaspectratio>square</pixelaspectratio>
					<fielddominance>none</fielddominance>
					</samplecharacteristics>
					</video>
					</media>
					</file>
					<filter>
					<effect>
					<name></name>
					<effectid>GraphicAndType</effectid>
					<effectcategory>graphic</effectcategory>
					<effecttype>filter</effecttype>
					<mediatype>video</mediatype>
					<pproBypass>false</pproBypass>
					<parameter authoringApp="PremierePro">
					<parameterid>1</parameterid>
					<name></name>
					<hash>025b1101-ead6-0ca2-1feb-caf3000001fc</hash>
					<value>5AEAAAAAAABEMyIRDAAAAAAABgAKAAQABgAAAGQAAAAAAF4ASAAQAAwARABAADwAOAAAAAAAAAAAADQAMwAsAAAAKAAkACAAAAAAAAAAAAAAAAAAHAAAAAAAGgAAAAAAAAAUAAAAAAAAAAAAAAAAAAAAAAAAAAgAAAAAABsABwBeAAAAAAAAAUAAAABQAAAAbAAAAAIAAAAAAAEAAQAAAAAAQEEAAMBAAABAQAAAyEIAAAABIAAAAAIAAAACAAAAAAA2QwCASkTw/v//9P7///j+//8S////AAAAAAEAAAAEAAAAEQAAAEhHUFNvZWlLYWt1cG9wdGFpAAAAAQAAAAwAAAAIAAwABAAIAAgAAAAIAAAAUAAAAA8AAADvvIEAAAAAAAAAAAAAAAAAAAA2ACQAAAAgABwAAAAAABsAFAAAAAAAAAAAAAAAAAAAAAAAAAAAABAAAAAAAAAADAAAAAgABAA2AAAAAgAAABwAAAAcAAAAHAAAAAAAIEEAAAABaAAAAE3PAEOw////tP///wEAAAAUAAAAEAAaAAgABwAMAAAAEAAUABAAAAAAAAABHAAAAAAAoEEcAAAAAgAAAAAACgAIAAUABgAHAAoAAAAADAD//P///wQABAAEAAAACAAIAAYABwAIAAAAAAAMAA==</value>
					</parameter>
					<parameter authoringApp="PremierePro">
					<parameterid>2</parameterid>
					<name></name>
					<IsTimeVarying>false</IsTimeVarying>
					<ParameterControlType>11</ParameterControlType>
					<LowerBound>false</LowerBound>
					<UpperBound>false</UpperBound>
					<value>-91445760000000000,false,0,0,0,0,0,0</value>
					</parameter>
					<parameter authoringApp="PremierePro">
					<parameterid>3</parameterid>
					<name></name>
					<IsTimeVarying>false</IsTimeVarying>
					<value>-91445760000000000,0.5:0.5,0,0,0,0,0,0,5,4,0,0,0,0</value>
					</parameter>
					<parameter authoringApp="PremierePro">
					<parameterid>4</parameterid>
					<name></name>
					<IsTimeVarying>false</IsTimeVarying>
					<ParameterControlType>2</ParameterControlType>
					<LowerBound>0</LowerBound>
					<UpperBound>4000</UpperBound>
					<value>-91445760000000000,100.,0,0,0,0,0,0</value>
					</parameter>
					<parameter authoringApp="PremierePro">
					<parameterid>8</parameterid>
					<name></name>
					<IsTimeVarying>false</IsTimeVarying>
					<ParameterControlType>2</ParameterControlType>
					<LowerBound>0</LowerBound>
					<UpperBound>100</UpperBound>
					<value>-91445760000000000,100.,0,0,0,0,0,0</value>
					</parameter>
					</effect>
					</filter>
					<logginginfo>
					<description></description>
					<scene></scene>
					<shottake></shottake>
					<lognote></lognote>
					<good></good>
					<originalvideofilename></originalvideofilename>
					<originalaudiofilename></originalaudiofilename>
					</logginginfo>
					<colorinfo>
					<lut></lut>
					<lut1></lut1>
					<asc_sop></asc_sop>
					<asc_sat></asc_sat>
					<lut2></lut2>
					</colorinfo>
					<labels>
					</labels>
					</clipitem>
					<clipitem frameBlend="FALSE" id="clipitem-750">
					<masterclipid>masterclip-670</masterclipid>
					<name></name>
					<enabled>TRUE</enabled>
					<duration>2582774</duration>
					<rate>
					
					                                    <timebase>60</timebase>
					                                    <ntsc>TRUE</ntsc>
					                                
					</rate>
					<start>6574</start>
					<end>6634</end>
					<in>6574</in>
					<out>6634</out>
					<pproTicksIn>914456774963789</pproTicksIn>
					<pproTicksOut>914677708529577</pproTicksOut>
					<alphatype>straight</alphatype>
					<pixelaspectratio>square</pixelaspectratio>
					<anamorphic>FALSE</anamorphic>
					<file id="file-669">
					<name></name>
					<mediaSource>GraphicAndType</mediaSource>
					<rate>
					<timebase>60</timebase>
					<ntsc>TRUE</ntsc>
					</rate>
					<timecode>
					<rate>
					<timebase>60</timebase>
					<ntsc>TRUE</ntsc>
					</rate>
					<string>00:00:00:00</string>
					<frame>0</frame>
					<displayformat>NDF</displayformat>
					</timecode>
					<media>
					<video>
					<samplecharacteristics>
					<rate>
					<timebase>60</timebase>
					<ntsc>TRUE</ntsc>
					</rate>
					<width>1080</width>
					<height>1920</height>
					<anamorphic>FALSE</anamorphic>
					<pixelaspectratio>square</pixelaspectratio>
					<fielddominance>none</fielddominance>
					</samplecharacteristics>
					</video>
					</media>
					</file>
					<filter>
					<effect>
					<name></name>
					<effectid>GraphicAndType</effectid>
					<effectcategory>graphic</effectcategory>
					<effecttype>filter</effecttype>
					<mediatype>video</mediatype>
					<pproBypass>false</pproBypass>
					<parameter authoringApp="PremierePro">
					<parameterid>1</parameterid>
					<name></name>
					<hash>025b1101-ead6-0ca2-1feb-caf3000001fc</hash>
					<value>5AEAAAAAAABEMyIRDAAAAAAABgAKAAQABgAAAGQAAAAAAF4ASAAQAAwARABAADwAOAAAAAAAAAAAADQAMwAsAAAAKAAkACAAAAAAAAAAAAAAAAAAHAAAAAAAGgAAAAAAAAAUAAAAAAAAAAAAAAAAAAAAAAAAAAgAAAAAABsABwBeAAAAAAAAAUAAAABQAAAAbAAAAAIAAAAAAAEAAQAAAAAAQEEAAMBAAABAQAAAyEIAAAABIAAAAAIAAAACAAAAAAA2QwCASkTw/v//9P7///j+//8S////AAAAAAEAAAAEAAAAEQAAAEhHUFNvZWlLYWt1cG9wdGFpAAAAAQAAAAwAAAAIAAwABAAIAAgAAAAIAAAAUAAAAA8AAADvvIEAAAAAAAAAAAAAAAAAAAA2ACQAAAAgABwAAAAAABsAFAAAAAAAAAAAAAAAAAAAAAAAAAAAABAAAAAAAAAADAAAAAgABAA2AAAAAgAAABwAAAAcAAAAHAAAAAAAIEEAAAABaAAAAE3PAEOw////tP///wEAAAAUAAAAEAAaAAgABwAMAAAAEAAUABAAAAAAAAABHAAAAAAAoEEcAAAAAgAAAAAACgAIAAUABgAHAAoAAAAADAD//P///wQABAAEAAAACAAIAAYABwAIAAAAAAAMAA==</value>
					</parameter>
					<parameter authoringApp="PremierePro">
					<parameterid>2</parameterid>
					<name></name>
					<IsTimeVarying>false</IsTimeVarying>
					<ParameterControlType>11</ParameterControlType>
					<LowerBound>false</LowerBound>
					<UpperBound>false</UpperBound>
					<value>-91445760000000000,false,0,0,0,0,0,0</value>
					</parameter>
					<parameter authoringApp="PremierePro">
					<parameterid>3</parameterid>
					<name></name>
					<IsTimeVarying>false</IsTimeVarying>
					<value>-91445760000000000,0.5:0.5,0,0,0,0,0,0,5,4,0,0,0,0</value>
					</parameter>
					<parameter authoringApp="PremierePro">
					<parameterid>4</parameterid>
					<name></name>
					<IsTimeVarying>false</IsTimeVarying>
					<ParameterControlType>2</ParameterControlType>
					<LowerBound>0</LowerBound>
					<UpperBound>4000</UpperBound>
					<value>-91445760000000000,100.,0,0,0,0,0,0</value>
					</parameter>
					<parameter authoringApp="PremierePro">
					<parameterid>8</parameterid>
					<name></name>
					<IsTimeVarying>false</IsTimeVarying>
					<ParameterControlType>2</ParameterControlType>
					<LowerBound>0</LowerBound>
					<UpperBound>100</UpperBound>
					<value>-91445760000000000,100.,0,0,0,0,0,0</value>
					</parameter>
					</effect>
					</filter>
					<logginginfo>
					<description></description>
					<scene></scene>
					<shottake></shottake>
					<lognote></lognote>
					<good></good>
					<originalvideofilename></originalvideofilename>
					<originalaudiofilename></originalaudiofilename>
					</logginginfo>
					<colorinfo>
					<lut></lut>
					<lut1></lut1>
					<asc_sop></asc_sop>
					<asc_sat></asc_sat>
					<lut2></lut2>
					</colorinfo>
					<labels>
					</labels>
					</clipitem>
					<clipitem frameBlend="FALSE" id="clipitem-775">
					<masterclipid>masterclip-695</masterclipid>
					<name></name>
					<enabled>TRUE</enabled>
					<duration>2582774</duration>
					<rate>
					
					                                    <timebase>60</timebase>
					                                    <ntsc>TRUE</ntsc>
					                                
					</rate>
					<start>6922</start>
					<end>6982</end>
					<in>6922</in>
					<out>6982</out>
					<pproTicksIn>914456774963789</pproTicksIn>
					<pproTicksOut>914677708529577</pproTicksOut>
					<alphatype>straight</alphatype>
					<pixelaspectratio>square</pixelaspectratio>
					<anamorphic>FALSE</anamorphic>
					<file id="file-694">
					<name></name>
					<mediaSource>GraphicAndType</mediaSource>
					<rate>
					<timebase>60</timebase>
					<ntsc>TRUE</ntsc>
					</rate>
					<timecode>
					<rate>
					<timebase>60</timebase>
					<ntsc>TRUE</ntsc>
					</rate>
					<string>00:00:00:00</string>
					<frame>0</frame>
					<displayformat>NDF</displayformat>
					</timecode>
					<media>
					<video>
					<samplecharacteristics>
					<rate>
					<timebase>60</timebase>
					<ntsc>TRUE</ntsc>
					</rate>
					<width>1080</width>
					<height>1920</height>
					<anamorphic>FALSE</anamorphic>
					<pixelaspectratio>square</pixelaspectratio>
					<fielddominance>none</fielddominance>
					</samplecharacteristics>
					</video>
					</media>
					</file>
					<filter>
					<effect>
					<name></name>
					<effectid>GraphicAndType</effectid>
					<effectcategory>graphic</effectcategory>
					<effecttype>filter</effecttype>
					<mediatype>video</mediatype>
					<pproBypass>false</pproBypass>
					<parameter authoringApp="PremierePro">
					<parameterid>1</parameterid>
					<name></name>
					<hash>025b1101-ead6-0ca2-1feb-caf3000001fc</hash>
					<value>5AEAAAAAAABEMyIRDAAAAAAABgAKAAQABgAAAGQAAAAAAF4ASAAQAAwARABAADwAOAAAAAAAAAAAADQAMwAsAAAAKAAkACAAAAAAAAAAAAAAAAAAHAAAAAAAGgAAAAAAAAAUAAAAAAAAAAAAAAAAAAAAAAAAAAgAAAAAABsABwBeAAAAAAAAAUAAAABQAAAAbAAAAAIAAAAAAAEAAQAAAAAAQEEAAMBAAABAQAAAyEIAAAABIAAAAAIAAAACAAAAAAA2QwCASkTw/v//9P7///j+//8S////AAAAAAEAAAAEAAAAEQAAAEhHUFNvZWlLYWt1cG9wdGFpAAAAAQAAAAwAAAAIAAwABAAIAAgAAAAIAAAAUAAAAA8AAADvvIEAAAAAAAAAAAAAAAAAAAA2ACQAAAAgABwAAAAAABsAFAAAAAAAAAAAAAAAAAAAAAAAAAAAABAAAAAAAAAADAAAAAgABAA2AAAAAgAAABwAAAAcAAAAHAAAAAAAIEEAAAABaAAAAE3PAEOw////tP///wEAAAAUAAAAEAAaAAgABwAMAAAAEAAUABAAAAAAAAABHAAAAAAAoEEcAAAAAgAAAAAACgAIAAUABgAHAAoAAAAADAD//P///wQABAAEAAAACAAIAAYABwAIAAAAAAAMAA==</value>
					</parameter>
					<parameter authoringApp="PremierePro">
					<parameterid>2</parameterid>
					<name></name>
					<IsTimeVarying>false</IsTimeVarying>
					<ParameterControlType>11</ParameterControlType>
					<LowerBound>false</LowerBound>
					<UpperBound>false</UpperBound>
					<value>-91445760000000000,false,0,0,0,0,0,0</value>
					</parameter>
					<parameter authoringApp="PremierePro">
					<parameterid>3</parameterid>
					<name></name>
					<IsTimeVarying>false</IsTimeVarying>
					<value>-91445760000000000,0.5:0.5,0,0,0,0,0,0,5,4,0,0,0,0</value>
					</parameter>
					<parameter authoringApp="PremierePro">
					<parameterid>4</parameterid>
					<name></name>
					<IsTimeVarying>false</IsTimeVarying>
					<ParameterControlType>2</ParameterControlType>
					<LowerBound>0</LowerBound>
					<UpperBound>4000</UpperBound>
					<value>-91445760000000000,100.,0,0,0,0,0,0</value>
					</parameter>
					<parameter authoringApp="PremierePro">
					<parameterid>8</parameterid>
					<name></name>
					<IsTimeVarying>false</IsTimeVarying>
					<ParameterControlType>2</ParameterControlType>
					<LowerBound>0</LowerBound>
					<UpperBound>100</UpperBound>
					<value>-91445760000000000,100.,0,0,0,0,0,0</value>
					</parameter>
					</effect>
					</filter>
					<logginginfo>
					<description></description>
					<scene></scene>
					<shottake></shottake>
					<lognote></lognote>
					<good></good>
					<originalvideofilename></originalvideofilename>
					<originalaudiofilename></originalaudiofilename>
					</logginginfo>
					<colorinfo>
					<lut></lut>
					<lut1></lut1>
					<asc_sop></asc_sop>
					<asc_sat></asc_sat>
					<lut2></lut2>
					</colorinfo>
					<labels>
					</labels>
					</clipitem>
					<enabled>TRUE</enabled>
					<locked>FALSE</locked>
				</track>
				<track TL.SQTrackShy="0" TL.SQTrackExpandedHeight="25" TL.SQTrackExpanded="0" MZ.TrackTargeted="0">
					<clipitem frameBlend="FALSE" id="clipitem-133">
					<masterclipid>masterclip-53</masterclipid>
					<name></name>
					<enabled>TRUE</enabled>
					<duration>2582774</duration>
					<rate>
					
					                                    <timebase>60</timebase>
					                                    <ntsc>TRUE</ntsc>
					                                
					</rate>
					<start>155</start>
					<end>215</end>
					<in>155</in>
					<out>215</out>
					<pproTicksIn>914456774963789</pproTicksIn>
					<pproTicksOut>914677708529577</pproTicksOut>
					<alphatype>straight</alphatype>
					<pixelaspectratio>square</pixelaspectratio>
					<anamorphic>FALSE</anamorphic>
					<file id="file-52">
					<name></name>
					<mediaSource>GraphicAndType</mediaSource>
					<rate>
					<timebase>60</timebase>
					<ntsc>TRUE</ntsc>
					</rate>
					<timecode>
					<rate>
					<timebase>60</timebase>
					<ntsc>TRUE</ntsc>
					</rate>
					<string>00:00:00:00</string>
					<frame>0</frame>
					<displayformat>NDF</displayformat>
					</timecode>
					<media>
					<video>
					<samplecharacteristics>
					<rate>
					<timebase>60</timebase>
					<ntsc>TRUE</ntsc>
					</rate>
					<width>1080</width>
					<height>1920</height>
					<anamorphic>FALSE</anamorphic>
					<pixelaspectratio>square</pixelaspectratio>
					<fielddominance>none</fielddominance>
					</samplecharacteristics>
					</video>
					</media>
					</file>
					<filter>
					<effect>
					<name></name>
					<effectid>GraphicAndType</effectid>
					<effectcategory>graphic</effectcategory>
					<effecttype>filter</effecttype>
					<mediatype>video</mediatype>
					<pproBypass>false</pproBypass>
					<parameter authoringApp="PremierePro">
					<parameterid>1</parameterid>
					<name></name>
					<hash>025b1101-ead6-0ca2-1feb-caf3000001fc</hash>
					<value>5AEAAAAAAABEMyIRDAAAAAAABgAKAAQABgAAAGQAAAAAAF4ASAAQAAwARABAADwAOAAAAAAAAAAAADQAMwAsAAAAKAAkACAAAAAAAAAAAAAAAAAAHAAAAAAAGgAAAAAAAAAUAAAAAAAAAAAAAAAAAAAAAAAAAAgAAAAAABsABwBeAAAAAAAAAUAAAABQAAAAbAAAAAIAAAAAAAEAAQAAAAAAQEEAAMBAAABAQAAAyEIAAAABIAAAAAIAAAACAAAAAAA2QwCASkTw/v//9P7///j+//8S////AAAAAAEAAAAEAAAAEQAAAEhHUFNvZWlLYWt1cG9wdGFpAAAAAQAAAAwAAAAIAAwABAAIAAgAAAAIAAAAUAAAAA8AAADvvIEAAAAAAAAAAAAAAAAAAAA2ACQAAAAgABwAAAAAABsAFAAAAAAAAAAAAAAAAAAAAAAAAAAAABAAAAAAAAAADAAAAAgABAA2AAAAAgAAABwAAAAcAAAAHAAAAAAAIEEAAAABaAAAAE3PAEOw////tP///wEAAAAUAAAAEAAaAAgABwAMAAAAEAAUABAAAAAAAAABHAAAAAAAoEEcAAAAAgAAAAAACgAIAAUABgAHAAoAAAAADAD//P///wQABAAEAAAACAAIAAYABwAIAAAAAAAMAA==</value>
					</parameter>
					<parameter authoringApp="PremierePro">
					<parameterid>2</parameterid>
					<name></name>
					<IsTimeVarying>false</IsTimeVarying>
					<ParameterControlType>11</ParameterControlType>
					<LowerBound>false</LowerBound>
					<UpperBound>false</UpperBound>
					<value>-91445760000000000,false,0,0,0,0,0,0</value>
					</parameter>
					<parameter authoringApp="PremierePro">
					<parameterid>3</parameterid>
					<name></name>
					<IsTimeVarying>false</IsTimeVarying>
					<value>-91445760000000000,0.5:0.5,0,0,0,0,0,0,5,4,0,0,0,0</value>
					</parameter>
					<parameter authoringApp="PremierePro">
					<parameterid>4</parameterid>
					<name></name>
					<IsTimeVarying>false</IsTimeVarying>
					<ParameterControlType>2</ParameterControlType>
					<LowerBound>0</LowerBound>
					<UpperBound>4000</UpperBound>
					<value>-91445760000000000,100.,0,0,0,0,0,0</value>
					</parameter>
					<parameter authoringApp="PremierePro">
					<parameterid>8</parameterid>
					<name></name>
					<IsTimeVarying>false</IsTimeVarying>
					<ParameterControlType>2</ParameterControlType>
					<LowerBound>0</LowerBound>
					<UpperBound>100</UpperBound>
					<value>-91445760000000000,100.,0,0,0,0,0,0</value>
					</parameter>
					</effect>
					</filter>
					<logginginfo>
					<description></description>
					<scene></scene>
					<shottake></shottake>
					<lognote></lognote>
					<good></good>
					<originalvideofilename></originalvideofilename>
					<originalaudiofilename></originalaudiofilename>
					</logginginfo>
					<colorinfo>
					<lut></lut>
					<lut1></lut1>
					<asc_sop></asc_sop>
					<asc_sat></asc_sat>
					<lut2></lut2>
					</colorinfo>
					<labels>
					</labels>
					</clipitem>
					<clipitem frameBlend="FALSE" id="clipitem-141">
					<masterclipid>masterclip-61</masterclipid>
					<name></name>
					<enabled>TRUE</enabled>
					<duration>2582774</duration>
					<rate>
					
					                                    <timebase>60</timebase>
					                                    <ntsc>TRUE</ntsc>
					                                
					</rate>
					<start>263</start>
					<end>329</end>
					<in>263</in>
					<out>329</out>
					<pproTicksIn>914456774963789</pproTicksIn>
					<pproTicksOut>914677708529577</pproTicksOut>
					<alphatype>straight</alphatype>
					<pixelaspectratio>square</pixelaspectratio>
					<anamorphic>FALSE</anamorphic>
					<file id="file-60">
					<name></name>
					<mediaSource>GraphicAndType</mediaSource>
					<rate>
					<timebase>60</timebase>
					<ntsc>TRUE</ntsc>
					</rate>
					<timecode>
					<rate>
					<timebase>60</timebase>
					<ntsc>TRUE</ntsc>
					</rate>
					<string>00:00:00:00</string>
					<frame>0</frame>
					<displayformat>NDF</displayformat>
					</timecode>
					<media>
					<video>
					<samplecharacteristics>
					<rate>
					<timebase>60</timebase>
					<ntsc>TRUE</ntsc>
					</rate>
					<width>1080</width>
					<height>1920</height>
					<anamorphic>FALSE</anamorphic>
					<pixelaspectratio>square</pixelaspectratio>
					<fielddominance>none</fielddominance>
					</samplecharacteristics>
					</video>
					</media>
					</file>
					<filter>
					<effect>
					<name></name>
					<effectid>GraphicAndType</effectid>
					<effectcategory>graphic</effectcategory>
					<effecttype>filter</effecttype>
					<mediatype>video</mediatype>
					<pproBypass>false</pproBypass>
					<parameter authoringApp="PremierePro">
					<parameterid>1</parameterid>
					<name></name>
					<hash>025b1101-ead6-0ca2-1feb-caf3000001fc</hash>
					<value>5AEAAAAAAABEMyIRDAAAAAAABgAKAAQABgAAAGQAAAAAAF4ASAAQAAwARABAADwAOAAAAAAAAAAAADQAMwAsAAAAKAAkACAAAAAAAAAAAAAAAAAAHAAAAAAAGgAAAAAAAAAUAAAAAAAAAAAAAAAAAAAAAAAAAAgAAAAAABsABwBeAAAAAAAAAUAAAABQAAAAbAAAAAIAAAAAAAEAAQAAAAAAQEEAAMBAAABAQAAAyEIAAAABIAAAAAIAAAACAAAAAAA2QwCASkTw/v//9P7///j+//8S////AAAAAAEAAAAEAAAAEQAAAEhHUFNvZWlLYWt1cG9wdGFpAAAAAQAAAAwAAAAIAAwABAAIAAgAAAAIAAAAUAAAAA8AAADvvIEAAAAAAAAAAAAAAAAAAAA2ACQAAAAgABwAAAAAABsAFAAAAAAAAAAAAAAAAAAAAAAAAAAAABAAAAAAAAAADAAAAAgABAA2AAAAAgAAABwAAAAcAAAAHAAAAAAAIEEAAAABaAAAAE3PAEOw////tP///wEAAAAUAAAAEAAaAAgABwAMAAAAEAAUABAAAAAAAAABHAAAAAAAoEEcAAAAAgAAAAAACgAIAAUABgAHAAoAAAAADAD//P///wQABAAEAAAACAAIAAYABwAIAAAAAAAMAA==</value>
					</parameter>
					<parameter authoringApp="PremierePro">
					<parameterid>2</parameterid>
					<name></name>
					<IsTimeVarying>false</IsTimeVarying>
					<ParameterControlType>11</ParameterControlType>
					<LowerBound>false</LowerBound>
					<UpperBound>false</UpperBound>
					<value>-91445760000000000,false,0,0,0,0,0,0</value>
					</parameter>
					<parameter authoringApp="PremierePro">
					<parameterid>3</parameterid>
					<name></name>
					<IsTimeVarying>false</IsTimeVarying>
					<value>-91445760000000000,0.5:0.5,0,0,0,0,0,0,5,4,0,0,0,0</value>
					</parameter>
					<parameter authoringApp="PremierePro">
					<parameterid>4</parameterid>
					<name></name>
					<IsTimeVarying>false</IsTimeVarying>
					<ParameterControlType>2</ParameterControlType>
					<LowerBound>0</LowerBound>
					<UpperBound>4000</UpperBound>
					<value>-91445760000000000,100.,0,0,0,0,0,0</value>
					</parameter>
					<parameter authoringApp="PremierePro">
					<parameterid>8</parameterid>
					<name></name>
					<IsTimeVarying>false</IsTimeVarying>
					<ParameterControlType>2</ParameterControlType>
					<LowerBound>0</LowerBound>
					<UpperBound>100</UpperBound>
					<value>-91445760000000000,100.,0,0,0,0,0,0</value>
					</parameter>
					</effect>
					</filter>
					<logginginfo>
					<description></description>
					<scene></scene>
					<shottake></shottake>
					<lognote></lognote>
					<good></good>
					<originalvideofilename></originalvideofilename>
					<originalaudiofilename></originalaudiofilename>
					</logginginfo>
					<colorinfo>
					<lut></lut>
					<lut1></lut1>
					<asc_sop></asc_sop>
					<asc_sat></asc_sat>
					<lut2></lut2>
					</colorinfo>
					<labels>
					</labels>
					</clipitem>
					<clipitem frameBlend="FALSE" id="clipitem-168">
					<masterclipid>masterclip-88</masterclipid>
					<name></name>
					<enabled>TRUE</enabled>
					<duration>2582774</duration>
					<rate>
					
					                                    <timebase>60</timebase>
					                                    <ntsc>TRUE</ntsc>
					                                
					</rate>
					<start>551</start>
					<end>611</end>
					<in>551</in>
					<out>611</out>
					<pproTicksIn>914456774963789</pproTicksIn>
					<pproTicksOut>914677708529577</pproTicksOut>
					<alphatype>straight</alphatype>
					<pixelaspectratio>square</pixelaspectratio>
					<anamorphic>FALSE</anamorphic>
					<file id="file-87">
					<name></name>
					<mediaSource>GraphicAndType</mediaSource>
					<rate>
					<timebase>60</timebase>
					<ntsc>TRUE</ntsc>
					</rate>
					<timecode>
					<rate>
					<timebase>60</timebase>
					<ntsc>TRUE</ntsc>
					</rate>
					<string>00:00:00:00</string>
					<frame>0</frame>
					<displayformat>NDF</displayformat>
					</timecode>
					<media>
					<video>
					<samplecharacteristics>
					<rate>
					<timebase>60</timebase>
					<ntsc>TRUE</ntsc>
					</rate>
					<width>1080</width>
					<height>1920</height>
					<anamorphic>FALSE</anamorphic>
					<pixelaspectratio>square</pixelaspectratio>
					<fielddominance>none</fielddominance>
					</samplecharacteristics>
					</video>
					</media>
					</file>
					<filter>
					<effect>
					<name></name>
					<effectid>GraphicAndType</effectid>
					<effectcategory>graphic</effectcategory>
					<effecttype>filter</effecttype>
					<mediatype>video</mediatype>
					<pproBypass>false</pproBypass>
					<parameter authoringApp="PremierePro">
					<parameterid>1</parameterid>
					<name></name>
					<hash>025b1101-ead6-0ca2-1feb-caf3000001fc</hash>
					<value>5AEAAAAAAABEMyIRDAAAAAAABgAKAAQABgAAAGQAAAAAAF4ASAAQAAwARABAADwAOAAAAAAAAAAAADQAMwAsAAAAKAAkACAAAAAAAAAAAAAAAAAAHAAAAAAAGgAAAAAAAAAUAAAAAAAAAAAAAAAAAAAAAAAAAAgAAAAAABsABwBeAAAAAAAAAUAAAABQAAAAbAAAAAIAAAAAAAEAAQAAAAAAQEEAAMBAAABAQAAAyEIAAAABIAAAAAIAAAACAAAAAAA2QwCASkTw/v//9P7///j+//8S////AAAAAAEAAAAEAAAAEQAAAEhHUFNvZWlLYWt1cG9wdGFpAAAAAQAAAAwAAAAIAAwABAAIAAgAAAAIAAAAUAAAAA8AAADvvIEAAAAAAAAAAAAAAAAAAAA2ACQAAAAgABwAAAAAABsAFAAAAAAAAAAAAAAAAAAAAAAAAAAAABAAAAAAAAAADAAAAAgABAA2AAAAAgAAABwAAAAcAAAAHAAAAAAAIEEAAAABaAAAAE3PAEOw////tP///wEAAAAUAAAAEAAaAAgABwAMAAAAEAAUABAAAAAAAAABHAAAAAAAoEEcAAAAAgAAAAAACgAIAAUABgAHAAoAAAAADAD//P///wQABAAEAAAACAAIAAYABwAIAAAAAAAMAA==</value>
					</parameter>
					<parameter authoringApp="PremierePro">
					<parameterid>2</parameterid>
					<name></name>
					<IsTimeVarying>false</IsTimeVarying>
					<ParameterControlType>11</ParameterControlType>
					<LowerBound>false</LowerBound>
					<UpperBound>false</UpperBound>
					<value>-91445760000000000,false,0,0,0,0,0,0</value>
					</parameter>
					<parameter authoringApp="PremierePro">
					<parameterid>3</parameterid>
					<name></name>
					<IsTimeVarying>false</IsTimeVarying>
					<value>-91445760000000000,0.5:0.5,0,0,0,0,0,0,5,4,0,0,0,0</value>
					</parameter>
					<parameter authoringApp="PremierePro">
					<parameterid>4</parameterid>
					<name></name>
					<IsTimeVarying>false</IsTimeVarying>
					<ParameterControlType>2</ParameterControlType>
					<LowerBound>0</LowerBound>
					<UpperBound>4000</UpperBound>
					<value>-91445760000000000,100.,0,0,0,0,0,0</value>
					</parameter>
					<parameter authoringApp="PremierePro">
					<parameterid>8</parameterid>
					<name></name>
					<IsTimeVarying>false</IsTimeVarying>
					<ParameterControlType>2</ParameterControlType>
					<LowerBound>0</LowerBound>
					<UpperBound>100</UpperBound>
					<value>-91445760000000000,100.,0,0,0,0,0,0</value>
					</parameter>
					</effect>
					</filter>
					<logginginfo>
					<description></description>
					<scene></scene>
					<shottake></shottake>
					<lognote></lognote>
					<good></good>
					<originalvideofilename></originalvideofilename>
					<originalaudiofilename></originalaudiofilename>
					</logginginfo>
					<colorinfo>
					<lut></lut>
					<lut1></lut1>
					<asc_sop></asc_sop>
					<asc_sat></asc_sat>
					<lut2></lut2>
					</colorinfo>
					<labels>
					</labels>
					</clipitem>
					<clipitem frameBlend="FALSE" id="clipitem-177">
					<masterclipid>masterclip-97</masterclipid>
					<name></name>
					<enabled>TRUE</enabled>
					<duration>2582774</duration>
					<rate>
					
					                                    <timebase>60</timebase>
					                                    <ntsc>TRUE</ntsc>
					                                
					</rate>
					<start>617</start>
					<end>683</end>
					<in>617</in>
					<out>683</out>
					<pproTicksIn>914456774963789</pproTicksIn>
					<pproTicksOut>914677708529577</pproTicksOut>
					<alphatype>straight</alphatype>
					<pixelaspectratio>square</pixelaspectratio>
					<anamorphic>FALSE</anamorphic>
					<file id="file-96">
					<name></name>
					<mediaSource>GraphicAndType</mediaSource>
					<rate>
					<timebase>60</timebase>
					<ntsc>TRUE</ntsc>
					</rate>
					<timecode>
					<rate>
					<timebase>60</timebase>
					<ntsc>TRUE</ntsc>
					</rate>
					<string>00:00:00:00</string>
					<frame>0</frame>
					<displayformat>NDF</displayformat>
					</timecode>
					<media>
					<video>
					<samplecharacteristics>
					<rate>
					<timebase>60</timebase>
					<ntsc>TRUE</ntsc>
					</rate>
					<width>1080</width>
					<height>1920</height>
					<anamorphic>FALSE</anamorphic>
					<pixelaspectratio>square</pixelaspectratio>
					<fielddominance>none</fielddominance>
					</samplecharacteristics>
					</video>
					</media>
					</file>
					<filter>
					<effect>
					<name></name>
					<effectid>GraphicAndType</effectid>
					<effectcategory>graphic</effectcategory>
					<effecttype>filter</effecttype>
					<mediatype>video</mediatype>
					<pproBypass>false</pproBypass>
					<parameter authoringApp="PremierePro">
					<parameterid>1</parameterid>
					<name></name>
					<hash>025b1101-ead6-0ca2-1feb-caf3000001fc</hash>
					<value>5AEAAAAAAABEMyIRDAAAAAAABgAKAAQABgAAAGQAAAAAAF4ASAAQAAwARABAADwAOAAAAAAAAAAAADQAMwAsAAAAKAAkACAAAAAAAAAAAAAAAAAAHAAAAAAAGgAAAAAAAAAUAAAAAAAAAAAAAAAAAAAAAAAAAAgAAAAAABsABwBeAAAAAAAAAUAAAABQAAAAbAAAAAIAAAAAAAEAAQAAAAAAQEEAAMBAAABAQAAAyEIAAAABIAAAAAIAAAACAAAAAAA2QwCASkTw/v//9P7///j+//8S////AAAAAAEAAAAEAAAAEQAAAEhHUFNvZWlLYWt1cG9wdGFpAAAAAQAAAAwAAAAIAAwABAAIAAgAAAAIAAAAUAAAAA8AAADvvIEAAAAAAAAAAAAAAAAAAAA2ACQAAAAgABwAAAAAABsAFAAAAAAAAAAAAAAAAAAAAAAAAAAAABAAAAAAAAAADAAAAAgABAA2AAAAAgAAABwAAAAcAAAAHAAAAAAAIEEAAAABaAAAAE3PAEOw////tP///wEAAAAUAAAAEAAaAAgABwAMAAAAEAAUABAAAAAAAAABHAAAAAAAoEEcAAAAAgAAAAAACgAIAAUABgAHAAoAAAAADAD//P///wQABAAEAAAACAAIAAYABwAIAAAAAAAMAA==</value>
					</parameter>
					<parameter authoringApp="PremierePro">
					<parameterid>2</parameterid>
					<name></name>
					<IsTimeVarying>false</IsTimeVarying>
					<ParameterControlType>11</ParameterControlType>
					<LowerBound>false</LowerBound>
					<UpperBound>false</UpperBound>
					<value>-91445760000000000,false,0,0,0,0,0,0</value>
					</parameter>
					<parameter authoringApp="PremierePro">
					<parameterid>3</parameterid>
					<name></name>
					<IsTimeVarying>false</IsTimeVarying>
					<value>-91445760000000000,0.5:0.5,0,0,0,0,0,0,5,4,0,0,0,0</value>
					</parameter>
					<parameter authoringApp="PremierePro">
					<parameterid>4</parameterid>
					<name></name>
					<IsTimeVarying>false</IsTimeVarying>
					<ParameterControlType>2</ParameterControlType>
					<LowerBound>0</LowerBound>
					<UpperBound>4000</UpperBound>
					<value>-91445760000000000,100.,0,0,0,0,0,0</value>
					</parameter>
					<parameter authoringApp="PremierePro">
					<parameterid>8</parameterid>
					<name></name>
					<IsTimeVarying>false</IsTimeVarying>
					<ParameterControlType>2</ParameterControlType>
					<LowerBound>0</LowerBound>
					<UpperBound>100</UpperBound>
					<value>-91445760000000000,100.,0,0,0,0,0,0</value>
					</parameter>
					</effect>
					</filter>
					<logginginfo>
					<description></description>
					<scene></scene>
					<shottake></shottake>
					<lognote></lognote>
					<good></good>
					<originalvideofilename></originalvideofilename>
					<originalaudiofilename></originalaudiofilename>
					</logginginfo>
					<colorinfo>
					<lut></lut>
					<lut1></lut1>
					<asc_sop></asc_sop>
					<asc_sat></asc_sat>
					<lut2></lut2>
					</colorinfo>
					<labels>
					</labels>
					</clipitem>
					<clipitem frameBlend="FALSE" id="clipitem-201">
					<masterclipid>masterclip-121</masterclipid>
					<name></name>
					<enabled>TRUE</enabled>
					<duration>2582774</duration>
					<rate>
					
					                                    <timebase>60</timebase>
					                                    <ntsc>TRUE</ntsc>
					                                
					</rate>
					<start>827</start>
					<end>887</end>
					<in>827</in>
					<out>887</out>
					<pproTicksIn>914456774963789</pproTicksIn>
					<pproTicksOut>914677708529577</pproTicksOut>
					<alphatype>straight</alphatype>
					<pixelaspectratio>square</pixelaspectratio>
					<anamorphic>FALSE</anamorphic>
					<file id="file-120">
					<name></name>
					<mediaSource>GraphicAndType</mediaSource>
					<rate>
					<timebase>60</timebase>
					<ntsc>TRUE</ntsc>
					</rate>
					<timecode>
					<rate>
					<timebase>60</timebase>
					<ntsc>TRUE</ntsc>
					</rate>
					<string>00:00:00:00</string>
					<frame>0</frame>
					<displayformat>NDF</displayformat>
					</timecode>
					<media>
					<video>
					<samplecharacteristics>
					<rate>
					<timebase>60</timebase>
					<ntsc>TRUE</ntsc>
					</rate>
					<width>1080</width>
					<height>1920</height>
					<anamorphic>FALSE</anamorphic>
					<pixelaspectratio>square</pixelaspectratio>
					<fielddominance>none</fielddominance>
					</samplecharacteristics>
					</video>
					</media>
					</file>
					<filter>
					<effect>
					<name></name>
					<effectid>GraphicAndType</effectid>
					<effectcategory>graphic</effectcategory>
					<effecttype>filter</effecttype>
					<mediatype>video</mediatype>
					<pproBypass>false</pproBypass>
					<parameter authoringApp="PremierePro">
					<parameterid>1</parameterid>
					<name></name>
					<hash>025b1101-ead6-0ca2-1feb-caf3000001fc</hash>
					<value>5AEAAAAAAABEMyIRDAAAAAAABgAKAAQABgAAAGQAAAAAAF4ASAAQAAwARABAADwAOAAAAAAAAAAAADQAMwAsAAAAKAAkACAAAAAAAAAAAAAAAAAAHAAAAAAAGgAAAAAAAAAUAAAAAAAAAAAAAAAAAAAAAAAAAAgAAAAAABsABwBeAAAAAAAAAUAAAABQAAAAbAAAAAIAAAAAAAEAAQAAAAAAQEEAAMBAAABAQAAAyEIAAAABIAAAAAIAAAACAAAAAAA2QwCASkTw/v//9P7///j+//8S////AAAAAAEAAAAEAAAAEQAAAEhHUFNvZWlLYWt1cG9wdGFpAAAAAQAAAAwAAAAIAAwABAAIAAgAAAAIAAAAUAAAAA8AAADvvIEAAAAAAAAAAAAAAAAAAAA2ACQAAAAgABwAAAAAABsAFAAAAAAAAAAAAAAAAAAAAAAAAAAAABAAAAAAAAAADAAAAAgABAA2AAAAAgAAABwAAAAcAAAAHAAAAAAAIEEAAAABaAAAAE3PAEOw////tP///wEAAAAUAAAAEAAaAAgABwAMAAAAEAAUABAAAAAAAAABHAAAAAAAoEEcAAAAAgAAAAAACgAIAAUABgAHAAoAAAAADAD//P///wQABAAEAAAACAAIAAYABwAIAAAAAAAMAA==</value>
					</parameter>
					<parameter authoringApp="PremierePro">
					<parameterid>2</parameterid>
					<name></name>
					<IsTimeVarying>false</IsTimeVarying>
					<ParameterControlType>11</ParameterControlType>
					<LowerBound>false</LowerBound>
					<UpperBound>false</UpperBound>
					<value>-91445760000000000,false,0,0,0,0,0,0</value>
					</parameter>
					<parameter authoringApp="PremierePro">
					<parameterid>3</parameterid>
					<name></name>
					<IsTimeVarying>false</IsTimeVarying>
					<value>-91445760000000000,0.5:0.5,0,0,0,0,0,0,5,4,0,0,0,0</value>
					</parameter>
					<parameter authoringApp="PremierePro">
					<parameterid>4</parameterid>
					<name></name>
					<IsTimeVarying>false</IsTimeVarying>
					<ParameterControlType>2</ParameterControlType>
					<LowerBound>0</LowerBound>
					<UpperBound>4000</UpperBound>
					<value>-91445760000000000,100.,0,0,0,0,0,0</value>
					</parameter>
					<parameter authoringApp="PremierePro">
					<parameterid>8</parameterid>
					<name></name>
					<IsTimeVarying>false</IsTimeVarying>
					<ParameterControlType>2</ParameterControlType>
					<LowerBound>0</LowerBound>
					<UpperBound>100</UpperBound>
					<value>-91445760000000000,100.,0,0,0,0,0,0</value>
					</parameter>
					</effect>
					</filter>
					<logginginfo>
					<description></description>
					<scene></scene>
					<shottake></shottake>
					<lognote></lognote>
					<good></good>
					<originalvideofilename></originalvideofilename>
					<originalaudiofilename></originalaudiofilename>
					</logginginfo>
					<colorinfo>
					<lut></lut>
					<lut1></lut1>
					<asc_sop></asc_sop>
					<asc_sat></asc_sat>
					<lut2></lut2>
					</colorinfo>
					<labels>
					</labels>
					</clipitem>
					<clipitem frameBlend="FALSE" id="clipitem-211">
					<masterclipid>masterclip-131</masterclipid>
					<name></name>
					<enabled>TRUE</enabled>
					<duration>2582774</duration>
					<rate>
					
					                                    <timebase>60</timebase>
					                                    <ntsc>TRUE</ntsc>
					                                
					</rate>
					<start>899</start>
					<end>965</end>
					<in>899</in>
					<out>965</out>
					<pproTicksIn>914456774963789</pproTicksIn>
					<pproTicksOut>914677708529577</pproTicksOut>
					<alphatype>straight</alphatype>
					<pixelaspectratio>square</pixelaspectratio>
					<anamorphic>FALSE</anamorphic>
					<file id="file-130">
					<name></name>
					<mediaSource>GraphicAndType</mediaSource>
					<rate>
					<timebase>60</timebase>
					<ntsc>TRUE</ntsc>
					</rate>
					<timecode>
					<rate>
					<timebase>60</timebase>
					<ntsc>TRUE</ntsc>
					</rate>
					<string>00:00:00:00</string>
					<frame>0</frame>
					<displayformat>NDF</displayformat>
					</timecode>
					<media>
					<video>
					<samplecharacteristics>
					<rate>
					<timebase>60</timebase>
					<ntsc>TRUE</ntsc>
					</rate>
					<width>1080</width>
					<height>1920</height>
					<anamorphic>FALSE</anamorphic>
					<pixelaspectratio>square</pixelaspectratio>
					<fielddominance>none</fielddominance>
					</samplecharacteristics>
					</video>
					</media>
					</file>
					<filter>
					<effect>
					<name></name>
					<effectid>GraphicAndType</effectid>
					<effectcategory>graphic</effectcategory>
					<effecttype>filter</effecttype>
					<mediatype>video</mediatype>
					<pproBypass>false</pproBypass>
					<parameter authoringApp="PremierePro">
					<parameterid>1</parameterid>
					<name></name>
					<hash>025b1101-ead6-0ca2-1feb-caf3000001fc</hash>
					<value>5AEAAAAAAABEMyIRDAAAAAAABgAKAAQABgAAAGQAAAAAAF4ASAAQAAwARABAADwAOAAAAAAAAAAAADQAMwAsAAAAKAAkACAAAAAAAAAAAAAAAAAAHAAAAAAAGgAAAAAAAAAUAAAAAAAAAAAAAAAAAAAAAAAAAAgAAAAAABsABwBeAAAAAAAAAUAAAABQAAAAbAAAAAIAAAAAAAEAAQAAAAAAQEEAAMBAAABAQAAAyEIAAAABIAAAAAIAAAACAAAAAAA2QwCASkTw/v//9P7///j+//8S////AAAAAAEAAAAEAAAAEQAAAEhHUFNvZWlLYWt1cG9wdGFpAAAAAQAAAAwAAAAIAAwABAAIAAgAAAAIAAAAUAAAAA8AAADvvIEAAAAAAAAAAAAAAAAAAAA2ACQAAAAgABwAAAAAABsAFAAAAAAAAAAAAAAAAAAAAAAAAAAAABAAAAAAAAAADAAAAAgABAA2AAAAAgAAABwAAAAcAAAAHAAAAAAAIEEAAAABaAAAAE3PAEOw////tP///wEAAAAUAAAAEAAaAAgABwAMAAAAEAAUABAAAAAAAAABHAAAAAAAoEEcAAAAAgAAAAAACgAIAAUABgAHAAoAAAAADAD//P///wQABAAEAAAACAAIAAYABwAIAAAAAAAMAA==</value>
					</parameter>
					<parameter authoringApp="PremierePro">
					<parameterid>2</parameterid>
					<name></name>
					<IsTimeVarying>false</IsTimeVarying>
					<ParameterControlType>11</ParameterControlType>
					<LowerBound>false</LowerBound>
					<UpperBound>false</UpperBound>
					<value>-91445760000000000,false,0,0,0,0,0,0</value>
					</parameter>
					<parameter authoringApp="PremierePro">
					<parameterid>3</parameterid>
					<name></name>
					<IsTimeVarying>false</IsTimeVarying>
					<value>-91445760000000000,0.5:0.5,0,0,0,0,0,0,5,4,0,0,0,0</value>
					</parameter>
					<parameter authoringApp="PremierePro">
					<parameterid>4</parameterid>
					<name></name>
					<IsTimeVarying>false</IsTimeVarying>
					<ParameterControlType>2</ParameterControlType>
					<LowerBound>0</LowerBound>
					<UpperBound>4000</UpperBound>
					<value>-91445760000000000,100.,0,0,0,0,0,0</value>
					</parameter>
					<parameter authoringApp="PremierePro">
					<parameterid>8</parameterid>
					<name></name>
					<IsTimeVarying>false</IsTimeVarying>
					<ParameterControlType>2</ParameterControlType>
					<LowerBound>0</LowerBound>
					<UpperBound>100</UpperBound>
					<value>-91445760000000000,100.,0,0,0,0,0,0</value>
					</parameter>
					</effect>
					</filter>
					<logginginfo>
					<description></description>
					<scene></scene>
					<shottake></shottake>
					<lognote></lognote>
					<good></good>
					<originalvideofilename></originalvideofilename>
					<originalaudiofilename></originalaudiofilename>
					</logginginfo>
					<colorinfo>
					<lut></lut>
					<lut1></lut1>
					<asc_sop></asc_sop>
					<asc_sat></asc_sat>
					<lut2></lut2>
					</colorinfo>
					<labels>
					</labels>
					</clipitem>
					<clipitem frameBlend="FALSE" id="clipitem-221">
					<masterclipid>masterclip-141</masterclipid>
					<name></name>
					<enabled>TRUE</enabled>
					<duration>2582774</duration>
					<rate>
					
					                                    <timebase>60</timebase>
					                                    <ntsc>TRUE</ntsc>
					                                
					</rate>
					<start>965</start>
					<end>1025</end>
					<in>965</in>
					<out>1025</out>
					<pproTicksIn>914456774963789</pproTicksIn>
					<pproTicksOut>914677708529577</pproTicksOut>
					<alphatype>straight</alphatype>
					<pixelaspectratio>square</pixelaspectratio>
					<anamorphic>FALSE</anamorphic>
					<file id="file-140">
					<name></name>
					<mediaSource>GraphicAndType</mediaSource>
					<rate>
					<timebase>60</timebase>
					<ntsc>TRUE</ntsc>
					</rate>
					<timecode>
					<rate>
					<timebase>60</timebase>
					<ntsc>TRUE</ntsc>
					</rate>
					<string>00:00:00:00</string>
					<frame>0</frame>
					<displayformat>NDF</displayformat>
					</timecode>
					<media>
					<video>
					<samplecharacteristics>
					<rate>
					<timebase>60</timebase>
					<ntsc>TRUE</ntsc>
					</rate>
					<width>1080</width>
					<height>1920</height>
					<anamorphic>FALSE</anamorphic>
					<pixelaspectratio>square</pixelaspectratio>
					<fielddominance>none</fielddominance>
					</samplecharacteristics>
					</video>
					</media>
					</file>
					<filter>
					<effect>
					<name></name>
					<effectid>GraphicAndType</effectid>
					<effectcategory>graphic</effectcategory>
					<effecttype>filter</effecttype>
					<mediatype>video</mediatype>
					<pproBypass>false</pproBypass>
					<parameter authoringApp="PremierePro">
					<parameterid>1</parameterid>
					<name></name>
					<hash>025b1101-ead6-0ca2-1feb-caf3000001fc</hash>
					<value>5AEAAAAAAABEMyIRDAAAAAAABgAKAAQABgAAAGQAAAAAAF4ASAAQAAwARABAADwAOAAAAAAAAAAAADQAMwAsAAAAKAAkACAAAAAAAAAAAAAAAAAAHAAAAAAAGgAAAAAAAAAUAAAAAAAAAAAAAAAAAAAAAAAAAAgAAAAAABsABwBeAAAAAAAAAUAAAABQAAAAbAAAAAIAAAAAAAEAAQAAAAAAQEEAAMBAAABAQAAAyEIAAAABIAAAAAIAAAACAAAAAAA2QwCASkTw/v//9P7///j+//8S////AAAAAAEAAAAEAAAAEQAAAEhHUFNvZWlLYWt1cG9wdGFpAAAAAQAAAAwAAAAIAAwABAAIAAgAAAAIAAAAUAAAAA8AAADvvIEAAAAAAAAAAAAAAAAAAAA2ACQAAAAgABwAAAAAABsAFAAAAAAAAAAAAAAAAAAAAAAAAAAAABAAAAAAAAAADAAAAAgABAA2AAAAAgAAABwAAAAcAAAAHAAAAAAAIEEAAAABaAAAAE3PAEOw////tP///wEAAAAUAAAAEAAaAAgABwAMAAAAEAAUABAAAAAAAAABHAAAAAAAoEEcAAAAAgAAAAAACgAIAAUABgAHAAoAAAAADAD//P///wQABAAEAAAACAAIAAYABwAIAAAAAAAMAA==</value>
					</parameter>
					<parameter authoringApp="PremierePro">
					<parameterid>2</parameterid>
					<name></name>
					<IsTimeVarying>false</IsTimeVarying>
					<ParameterControlType>11</ParameterControlType>
					<LowerBound>false</LowerBound>
					<UpperBound>false</UpperBound>
					<value>-91445760000000000,false,0,0,0,0,0,0</value>
					</parameter>
					<parameter authoringApp="PremierePro">
					<parameterid>3</parameterid>
					<name></name>
					<IsTimeVarying>false</IsTimeVarying>
					<value>-91445760000000000,0.5:0.5,0,0,0,0,0,0,5,4,0,0,0,0</value>
					</parameter>
					<parameter authoringApp="PremierePro">
					<parameterid>4</parameterid>
					<name></name>
					<IsTimeVarying>false</IsTimeVarying>
					<ParameterControlType>2</ParameterControlType>
					<LowerBound>0</LowerBound>
					<UpperBound>4000</UpperBound>
					<value>-91445760000000000,100.,0,0,0,0,0,0</value>
					</parameter>
					<parameter authoringApp="PremierePro">
					<parameterid>8</parameterid>
					<name></name>
					<IsTimeVarying>false</IsTimeVarying>
					<ParameterControlType>2</ParameterControlType>
					<LowerBound>0</LowerBound>
					<UpperBound>100</UpperBound>
					<value>-91445760000000000,100.,0,0,0,0,0,0</value>
					</parameter>
					</effect>
					</filter>
					<logginginfo>
					<description></description>
					<scene></scene>
					<shottake></shottake>
					<lognote></lognote>
					<good></good>
					<originalvideofilename></originalvideofilename>
					<originalaudiofilename></originalaudiofilename>
					</logginginfo>
					<colorinfo>
					<lut></lut>
					<lut1></lut1>
					<asc_sop></asc_sop>
					<asc_sat></asc_sat>
					<lut2></lut2>
					</colorinfo>
					<labels>
					</labels>
					</clipitem>
					<clipitem frameBlend="FALSE" id="clipitem-234">
					<masterclipid>masterclip-154</masterclipid>
					<name></name>
					<enabled>TRUE</enabled>
					<duration>2582774</duration>
					<rate>
					
					                                    <timebase>60</timebase>
					                                    <ntsc>TRUE</ntsc>
					                                
					</rate>
					<start>1031</start>
					<end>1097</end>
					<in>1031</in>
					<out>1097</out>
					<pproTicksIn>914456774963789</pproTicksIn>
					<pproTicksOut>914677708529577</pproTicksOut>
					<alphatype>straight</alphatype>
					<pixelaspectratio>square</pixelaspectratio>
					<anamorphic>FALSE</anamorphic>
					<file id="file-153">
					<name></name>
					<mediaSource>GraphicAndType</mediaSource>
					<rate>
					<timebase>60</timebase>
					<ntsc>TRUE</ntsc>
					</rate>
					<timecode>
					<rate>
					<timebase>60</timebase>
					<ntsc>TRUE</ntsc>
					</rate>
					<string>00:00:00:00</string>
					<frame>0</frame>
					<displayformat>NDF</displayformat>
					</timecode>
					<media>
					<video>
					<samplecharacteristics>
					<rate>
					<timebase>60</timebase>
					<ntsc>TRUE</ntsc>
					</rate>
					<width>1080</width>
					<height>1920</height>
					<anamorphic>FALSE</anamorphic>
					<pixelaspectratio>square</pixelaspectratio>
					<fielddominance>none</fielddominance>
					</samplecharacteristics>
					</video>
					</media>
					</file>
					<filter>
					<effect>
					<name></name>
					<effectid>GraphicAndType</effectid>
					<effectcategory>graphic</effectcategory>
					<effecttype>filter</effecttype>
					<mediatype>video</mediatype>
					<pproBypass>false</pproBypass>
					<parameter authoringApp="PremierePro">
					<parameterid>1</parameterid>
					<name></name>
					<hash>025b1101-ead6-0ca2-1feb-caf3000001fc</hash>
					<value>5AEAAAAAAABEMyIRDAAAAAAABgAKAAQABgAAAGQAAAAAAF4ASAAQAAwARABAADwAOAAAAAAAAAAAADQAMwAsAAAAKAAkACAAAAAAAAAAAAAAAAAAHAAAAAAAGgAAAAAAAAAUAAAAAAAAAAAAAAAAAAAAAAAAAAgAAAAAABsABwBeAAAAAAAAAUAAAABQAAAAbAAAAAIAAAAAAAEAAQAAAAAAQEEAAMBAAABAQAAAyEIAAAABIAAAAAIAAAACAAAAAAA2QwCASkTw/v//9P7///j+//8S////AAAAAAEAAAAEAAAAEQAAAEhHUFNvZWlLYWt1cG9wdGFpAAAAAQAAAAwAAAAIAAwABAAIAAgAAAAIAAAAUAAAAA8AAADvvIEAAAAAAAAAAAAAAAAAAAA2ACQAAAAgABwAAAAAABsAFAAAAAAAAAAAAAAAAAAAAAAAAAAAABAAAAAAAAAADAAAAAgABAA2AAAAAgAAABwAAAAcAAAAHAAAAAAAIEEAAAABaAAAAE3PAEOw////tP///wEAAAAUAAAAEAAaAAgABwAMAAAAEAAUABAAAAAAAAABHAAAAAAAoEEcAAAAAgAAAAAACgAIAAUABgAHAAoAAAAADAD//P///wQABAAEAAAACAAIAAYABwAIAAAAAAAMAA==</value>
					</parameter>
					<parameter authoringApp="PremierePro">
					<parameterid>2</parameterid>
					<name></name>
					<IsTimeVarying>false</IsTimeVarying>
					<ParameterControlType>11</ParameterControlType>
					<LowerBound>false</LowerBound>
					<UpperBound>false</UpperBound>
					<value>-91445760000000000,false,0,0,0,0,0,0</value>
					</parameter>
					<parameter authoringApp="PremierePro">
					<parameterid>3</parameterid>
					<name></name>
					<IsTimeVarying>false</IsTimeVarying>
					<value>-91445760000000000,0.5:0.5,0,0,0,0,0,0,5,4,0,0,0,0</value>
					</parameter>
					<parameter authoringApp="PremierePro">
					<parameterid>4</parameterid>
					<name></name>
					<IsTimeVarying>false</IsTimeVarying>
					<ParameterControlType>2</ParameterControlType>
					<LowerBound>0</LowerBound>
					<UpperBound>4000</UpperBound>
					<value>-91445760000000000,100.,0,0,0,0,0,0</value>
					</parameter>
					<parameter authoringApp="PremierePro">
					<parameterid>8</parameterid>
					<name></name>
					<IsTimeVarying>false</IsTimeVarying>
					<ParameterControlType>2</ParameterControlType>
					<LowerBound>0</LowerBound>
					<UpperBound>100</UpperBound>
					<value>-91445760000000000,100.,0,0,0,0,0,0</value>
					</parameter>
					</effect>
					</filter>
					<logginginfo>
					<description></description>
					<scene></scene>
					<shottake></shottake>
					<lognote></lognote>
					<good></good>
					<originalvideofilename></originalvideofilename>
					<originalaudiofilename></originalaudiofilename>
					</logginginfo>
					<colorinfo>
					<lut></lut>
					<lut1></lut1>
					<asc_sop></asc_sop>
					<asc_sat></asc_sat>
					<lut2></lut2>
					</colorinfo>
					<labels>
					</labels>
					</clipitem>
					<clipitem frameBlend="FALSE" id="clipitem-259">
					<masterclipid>masterclip-179</masterclipid>
					<name></name>
					<enabled>TRUE</enabled>
					<duration>2582774</duration>
					<rate>
					
					                                    <timebase>60</timebase>
					                                    <ntsc>TRUE</ntsc>
					                                
					</rate>
					<start>1301</start>
					<end>1361</end>
					<in>1301</in>
					<out>1361</out>
					<pproTicksIn>914456774963789</pproTicksIn>
					<pproTicksOut>914677708529577</pproTicksOut>
					<alphatype>straight</alphatype>
					<pixelaspectratio>square</pixelaspectratio>
					<anamorphic>FALSE</anamorphic>
					<file id="file-178">
					<name></name>
					<mediaSource>GraphicAndType</mediaSource>
					<rate>
					<timebase>60</timebase>
					<ntsc>TRUE</ntsc>
					</rate>
					<timecode>
					<rate>
					<timebase>60</timebase>
					<ntsc>TRUE</ntsc>
					</rate>
					<string>00:00:00:00</string>
					<frame>0</frame>
					<displayformat>NDF</displayformat>
					</timecode>
					<media>
					<video>
					<samplecharacteristics>
					<rate>
					<timebase>60</timebase>
					<ntsc>TRUE</ntsc>
					</rate>
					<width>1080</width>
					<height>1920</height>
					<anamorphic>FALSE</anamorphic>
					<pixelaspectratio>square</pixelaspectratio>
					<fielddominance>none</fielddominance>
					</samplecharacteristics>
					</video>
					</media>
					</file>
					<filter>
					<effect>
					<name></name>
					<effectid>GraphicAndType</effectid>
					<effectcategory>graphic</effectcategory>
					<effecttype>filter</effecttype>
					<mediatype>video</mediatype>
					<pproBypass>false</pproBypass>
					<parameter authoringApp="PremierePro">
					<parameterid>1</parameterid>
					<name></name>
					<hash>025b1101-ead6-0ca2-1feb-caf3000001fc</hash>
					<value>5AEAAAAAAABEMyIRDAAAAAAABgAKAAQABgAAAGQAAAAAAF4ASAAQAAwARABAADwAOAAAAAAAAAAAADQAMwAsAAAAKAAkACAAAAAAAAAAAAAAAAAAHAAAAAAAGgAAAAAAAAAUAAAAAAAAAAAAAAAAAAAAAAAAAAgAAAAAABsABwBeAAAAAAAAAUAAAABQAAAAbAAAAAIAAAAAAAEAAQAAAAAAQEEAAMBAAABAQAAAyEIAAAABIAAAAAIAAAACAAAAAAA2QwCASkTw/v//9P7///j+//8S////AAAAAAEAAAAEAAAAEQAAAEhHUFNvZWlLYWt1cG9wdGFpAAAAAQAAAAwAAAAIAAwABAAIAAgAAAAIAAAAUAAAAA8AAADvvIEAAAAAAAAAAAAAAAAAAAA2ACQAAAAgABwAAAAAABsAFAAAAAAAAAAAAAAAAAAAAAAAAAAAABAAAAAAAAAADAAAAAgABAA2AAAAAgAAABwAAAAcAAAAHAAAAAAAIEEAAAABaAAAAE3PAEOw////tP///wEAAAAUAAAAEAAaAAgABwAMAAAAEAAUABAAAAAAAAABHAAAAAAAoEEcAAAAAgAAAAAACgAIAAUABgAHAAoAAAAADAD//P///wQABAAEAAAACAAIAAYABwAIAAAAAAAMAA==</value>
					</parameter>
					<parameter authoringApp="PremierePro">
					<parameterid>2</parameterid>
					<name></name>
					<IsTimeVarying>false</IsTimeVarying>
					<ParameterControlType>11</ParameterControlType>
					<LowerBound>false</LowerBound>
					<UpperBound>false</UpperBound>
					<value>-91445760000000000,false,0,0,0,0,0,0</value>
					</parameter>
					<parameter authoringApp="PremierePro">
					<parameterid>3</parameterid>
					<name></name>
					<IsTimeVarying>false</IsTimeVarying>
					<value>-91445760000000000,0.5:0.5,0,0,0,0,0,0,5,4,0,0,0,0</value>
					</parameter>
					<parameter authoringApp="PremierePro">
					<parameterid>4</parameterid>
					<name></name>
					<IsTimeVarying>false</IsTimeVarying>
					<ParameterControlType>2</ParameterControlType>
					<LowerBound>0</LowerBound>
					<UpperBound>4000</UpperBound>
					<value>-91445760000000000,100.,0,0,0,0,0,0</value>
					</parameter>
					<parameter authoringApp="PremierePro">
					<parameterid>8</parameterid>
					<name></name>
					<IsTimeVarying>false</IsTimeVarying>
					<ParameterControlType>2</ParameterControlType>
					<LowerBound>0</LowerBound>
					<UpperBound>100</UpperBound>
					<value>-91445760000000000,100.,0,0,0,0,0,0</value>
					</parameter>
					</effect>
					</filter>
					<logginginfo>
					<description></description>
					<scene></scene>
					<shottake></shottake>
					<lognote></lognote>
					<good></good>
					<originalvideofilename></originalvideofilename>
					<originalaudiofilename></originalaudiofilename>
					</logginginfo>
					<colorinfo>
					<lut></lut>
					<lut1></lut1>
					<asc_sop></asc_sop>
					<asc_sat></asc_sat>
					<lut2></lut2>
					</colorinfo>
					<labels>
					</labels>
					</clipitem>
					<clipitem id="clipitem-267"/>
					                        </track>
					                        <track TL.SQTrackShy="0" TL.SQTrackExpandedHeight="25" TL.SQTrackExpanded="0" MZ.TrackTargeted="0">
					<clipitem frameBlend="FALSE" id="clipitem-268">
					<masterclipid>masterclip-188</masterclipid>
					<name></name>
					<enabled>TRUE</enabled>
					<duration>2582774</duration>
					<rate>
					
					                                    <timebase>60</timebase>
					                                    <ntsc>TRUE</ntsc>
					                                
					</rate>
					<start>1385</start>
					<end>1451</end>
					<in>1385</in>
					<out>1451</out>
					<pproTicksIn>914456774963789</pproTicksIn>
					<pproTicksOut>914677708529577</pproTicksOut>
					<alphatype>straight</alphatype>
					<pixelaspectratio>square</pixelaspectratio>
					<anamorphic>FALSE</anamorphic>
					<file id="file-187">
					<name></name>
					<mediaSource>GraphicAndType</mediaSource>
					<rate>
					<timebase>60</timebase>
					<ntsc>TRUE</ntsc>
					</rate>
					<timecode>
					<rate>
					<timebase>60</timebase>
					<ntsc>TRUE</ntsc>
					</rate>
					<string>00:00:00:00</string>
					<frame>0</frame>
					<displayformat>NDF</displayformat>
					</timecode>
					<media>
					<video>
					<samplecharacteristics>
					<rate>
					<timebase>60</timebase>
					<ntsc>TRUE</ntsc>
					</rate>
					<width>1080</width>
					<height>1920</height>
					<anamorphic>FALSE</anamorphic>
					<pixelaspectratio>square</pixelaspectratio>
					<fielddominance>none</fielddominance>
					</samplecharacteristics>
					</video>
					</media>
					</file>
					<filter>
					<effect>
					<name></name>
					<effectid>GraphicAndType</effectid>
					<effectcategory>graphic</effectcategory>
					<effecttype>filter</effecttype>
					<mediatype>video</mediatype>
					<pproBypass>false</pproBypass>
					<parameter authoringApp="PremierePro">
					<parameterid>1</parameterid>
					<name></name>
					<hash>025b1101-ead6-0ca2-1feb-caf3000001fc</hash>
					<value>5AEAAAAAAABEMyIRDAAAAAAABgAKAAQABgAAAGQAAAAAAF4ASAAQAAwARABAADwAOAAAAAAAAAAAADQAMwAsAAAAKAAkACAAAAAAAAAAAAAAAAAAHAAAAAAAGgAAAAAAAAAUAAAAAAAAAAAAAAAAAAAAAAAAAAgAAAAAABsABwBeAAAAAAAAAUAAAABQAAAAbAAAAAIAAAAAAAEAAQAAAAAAQEEAAMBAAABAQAAAyEIAAAABIAAAAAIAAAACAAAAAAA2QwCASkTw/v//9P7///j+//8S////AAAAAAEAAAAEAAAAEQAAAEhHUFNvZWlLYWt1cG9wdGFpAAAAAQAAAAwAAAAIAAwABAAIAAgAAAAIAAAAUAAAAA8AAADvvIEAAAAAAAAAAAAAAAAAAAA2ACQAAAAgABwAAAAAABsAFAAAAAAAAAAAAAAAAAAAAAAAAAAAABAAAAAAAAAADAAAAAgABAA2AAAAAgAAABwAAAAcAAAAHAAAAAAAIEEAAAABaAAAAE3PAEOw////tP///wEAAAAUAAAAEAAaAAgABwAMAAAAEAAUABAAAAAAAAABHAAAAAAAoEEcAAAAAgAAAAAACgAIAAUABgAHAAoAAAAADAD//P///wQABAAEAAAACAAIAAYABwAIAAAAAAAMAA==</value>
					</parameter>
					<parameter authoringApp="PremierePro">
					<parameterid>2</parameterid>
					<name></name>
					<IsTimeVarying>false</IsTimeVarying>
					<ParameterControlType>11</ParameterControlType>
					<LowerBound>false</LowerBound>
					<UpperBound>false</UpperBound>
					<value>-91445760000000000,false,0,0,0,0,0,0</value>
					</parameter>
					<parameter authoringApp="PremierePro">
					<parameterid>3</parameterid>
					<name></name>
					<IsTimeVarying>false</IsTimeVarying>
					<value>-91445760000000000,0.5:0.5,0,0,0,0,0,0,5,4,0,0,0,0</value>
					</parameter>
					<parameter authoringApp="PremierePro">
					<parameterid>4</parameterid>
					<name></name>
					<IsTimeVarying>false</IsTimeVarying>
					<ParameterControlType>2</ParameterControlType>
					<LowerBound>0</LowerBound>
					<UpperBound>4000</UpperBound>
					<value>-91445760000000000,100.,0,0,0,0,0,0</value>
					</parameter>
					<parameter authoringApp="PremierePro">
					<parameterid>8</parameterid>
					<name></name>
					<IsTimeVarying>false</IsTimeVarying>
					<ParameterControlType>2</ParameterControlType>
					<LowerBound>0</LowerBound>
					<UpperBound>100</UpperBound>
					<value>-91445760000000000,100.,0,0,0,0,0,0</value>
					</parameter>
					</effect>
					</filter>
					<logginginfo>
					<description></description>
					<scene></scene>
					<shottake></shottake>
					<lognote></lognote>
					<good></good>
					<originalvideofilename></originalvideofilename>
					<originalaudiofilename></originalaudiofilename>
					</logginginfo>
					<colorinfo>
					<lut></lut>
					<lut1></lut1>
					<asc_sop></asc_sop>
					<asc_sat></asc_sat>
					<lut2></lut2>
					</colorinfo>
					<labels>
					</labels>
					</clipitem>
					<clipitem id="clipitem-293"/>
					                        </track>
					                        <track TL.SQTrackShy="0" TL.SQTrackExpandedHeight="25" TL.SQTrackExpanded="0" MZ.TrackTargeted="0">
					<clipitem frameBlend="FALSE" id="clipitem-294">
					<masterclipid>masterclip-214</masterclipid>
					<name></name>
					<enabled>TRUE</enabled>
					<duration>2582774</duration>
					<rate>
					
					                                    <timebase>60</timebase>
					                                    <ntsc>TRUE</ntsc>
					                                
					</rate>
					<start>1649</start>
					<end>1709</end>
					<in>1649</in>
					<out>1709</out>
					<pproTicksIn>914456774963789</pproTicksIn>
					<pproTicksOut>914677708529577</pproTicksOut>
					<alphatype>straight</alphatype>
					<pixelaspectratio>square</pixelaspectratio>
					<anamorphic>FALSE</anamorphic>
					<file id="file-213">
					<name></name>
					<mediaSource>GraphicAndType</mediaSource>
					<rate>
					<timebase>60</timebase>
					<ntsc>TRUE</ntsc>
					</rate>
					<timecode>
					<rate>
					<timebase>60</timebase>
					<ntsc>TRUE</ntsc>
					</rate>
					<string>00:00:00:00</string>
					<frame>0</frame>
					<displayformat>NDF</displayformat>
					</timecode>
					<media>
					<video>
					<samplecharacteristics>
					<rate>
					<timebase>60</timebase>
					<ntsc>TRUE</ntsc>
					</rate>
					<width>1080</width>
					<height>1920</height>
					<anamorphic>FALSE</anamorphic>
					<pixelaspectratio>square</pixelaspectratio>
					<fielddominance>none</fielddominance>
					</samplecharacteristics>
					</video>
					</media>
					</file>
					<filter>
					<effect>
					<name></name>
					<effectid>GraphicAndType</effectid>
					<effectcategory>graphic</effectcategory>
					<effecttype>filter</effecttype>
					<mediatype>video</mediatype>
					<pproBypass>false</pproBypass>
					<parameter authoringApp="PremierePro">
					<parameterid>1</parameterid>
					<name></name>
					<hash>025b1101-ead6-0ca2-1feb-caf3000001fc</hash>
					<value>5AEAAAAAAABEMyIRDAAAAAAABgAKAAQABgAAAGQAAAAAAF4ASAAQAAwARABAADwAOAAAAAAAAAAAADQAMwAsAAAAKAAkACAAAAAAAAAAAAAAAAAAHAAAAAAAGgAAAAAAAAAUAAAAAAAAAAAAAAAAAAAAAAAAAAgAAAAAABsABwBeAAAAAAAAAUAAAABQAAAAbAAAAAIAAAAAAAEAAQAAAAAAQEEAAMBAAABAQAAAyEIAAAABIAAAAAIAAAACAAAAAAA2QwCASkTw/v//9P7///j+//8S////AAAAAAEAAAAEAAAAEQAAAEhHUFNvZWlLYWt1cG9wdGFpAAAAAQAAAAwAAAAIAAwABAAIAAgAAAAIAAAAUAAAAA8AAADvvIEAAAAAAAAAAAAAAAAAAAA2ACQAAAAgABwAAAAAABsAFAAAAAAAAAAAAAAAAAAAAAAAAAAAABAAAAAAAAAADAAAAAgABAA2AAAAAgAAABwAAAAcAAAAHAAAAAAAIEEAAAABaAAAAE3PAEOw////tP///wEAAAAUAAAAEAAaAAgABwAMAAAAEAAUABAAAAAAAAABHAAAAAAAoEEcAAAAAgAAAAAACgAIAAUABgAHAAoAAAAADAD//P///wQABAAEAAAACAAIAAYABwAIAAAAAAAMAA==</value>
					</parameter>
					<parameter authoringApp="PremierePro">
					<parameterid>2</parameterid>
					<name></name>
					<IsTimeVarying>false</IsTimeVarying>
					<ParameterControlType>11</ParameterControlType>
					<LowerBound>false</LowerBound>
					<UpperBound>false</UpperBound>
					<value>-91445760000000000,false,0,0,0,0,0,0</value>
					</parameter>
					<parameter authoringApp="PremierePro">
					<parameterid>3</parameterid>
					<name></name>
					<IsTimeVarying>false</IsTimeVarying>
					<value>-91445760000000000,0.5:0.5,0,0,0,0,0,0,5,4,0,0,0,0</value>
					</parameter>
					<parameter authoringApp="PremierePro">
					<parameterid>4</parameterid>
					<name></name>
					<IsTimeVarying>false</IsTimeVarying>
					<ParameterControlType>2</ParameterControlType>
					<LowerBound>0</LowerBound>
					<UpperBound>4000</UpperBound>
					<value>-91445760000000000,100.,0,0,0,0,0,0</value>
					</parameter>
					<parameter authoringApp="PremierePro">
					<parameterid>8</parameterid>
					<name></name>
					<IsTimeVarying>false</IsTimeVarying>
					<ParameterControlType>2</ParameterControlType>
					<LowerBound>0</LowerBound>
					<UpperBound>100</UpperBound>
					<value>-91445760000000000,100.,0,0,0,0,0,0</value>
					</parameter>
					</effect>
					</filter>
					<logginginfo>
					<description></description>
					<scene></scene>
					<shottake></shottake>
					<lognote></lognote>
					<good></good>
					<originalvideofilename></originalvideofilename>
					<originalaudiofilename></originalaudiofilename>
					</logginginfo>
					<colorinfo>
					<lut></lut>
					<lut1></lut1>
					<asc_sop></asc_sop>
					<asc_sat></asc_sat>
					<lut2></lut2>
					</colorinfo>
					<labels>
					</labels>
					</clipitem>
					<clipitem frameBlend="FALSE" id="clipitem-307">
					<masterclipid>masterclip-227</masterclipid>
					<name></name>
					<enabled>TRUE</enabled>
					<duration>2582774</duration>
					<rate>
					
					                                    <timebase>60</timebase>
					                                    <ntsc>TRUE</ntsc>
					                                
					</rate>
					<start>1775</start>
					<end>1841</end>
					<in>1775</in>
					<out>1841</out>
					<pproTicksIn>914456774963789</pproTicksIn>
					<pproTicksOut>914677708529577</pproTicksOut>
					<alphatype>straight</alphatype>
					<pixelaspectratio>square</pixelaspectratio>
					<anamorphic>FALSE</anamorphic>
					<file id="file-226">
					<name></name>
					<mediaSource>GraphicAndType</mediaSource>
					<rate>
					<timebase>60</timebase>
					<ntsc>TRUE</ntsc>
					</rate>
					<timecode>
					<rate>
					<timebase>60</timebase>
					<ntsc>TRUE</ntsc>
					</rate>
					<string>00:00:00:00</string>
					<frame>0</frame>
					<displayformat>NDF</displayformat>
					</timecode>
					<media>
					<video>
					<samplecharacteristics>
					<rate>
					<timebase>60</timebase>
					<ntsc>TRUE</ntsc>
					</rate>
					<width>1080</width>
					<height>1920</height>
					<anamorphic>FALSE</anamorphic>
					<pixelaspectratio>square</pixelaspectratio>
					<fielddominance>none</fielddominance>
					</samplecharacteristics>
					</video>
					</media>
					</file>
					<filter>
					<effect>
					<name></name>
					<effectid>GraphicAndType</effectid>
					<effectcategory>graphic</effectcategory>
					<effecttype>filter</effecttype>
					<mediatype>video</mediatype>
					<pproBypass>false</pproBypass>
					<parameter authoringApp="PremierePro">
					<parameterid>1</parameterid>
					<name></name>
					<hash>025b1101-ead6-0ca2-1feb-caf3000001fc</hash>
					<value>5AEAAAAAAABEMyIRDAAAAAAABgAKAAQABgAAAGQAAAAAAF4ASAAQAAwARABAADwAOAAAAAAAAAAAADQAMwAsAAAAKAAkACAAAAAAAAAAAAAAAAAAHAAAAAAAGgAAAAAAAAAUAAAAAAAAAAAAAAAAAAAAAAAAAAgAAAAAABsABwBeAAAAAAAAAUAAAABQAAAAbAAAAAIAAAAAAAEAAQAAAAAAQEEAAMBAAABAQAAAyEIAAAABIAAAAAIAAAACAAAAAAA2QwCASkTw/v//9P7///j+//8S////AAAAAAEAAAAEAAAAEQAAAEhHUFNvZWlLYWt1cG9wdGFpAAAAAQAAAAwAAAAIAAwABAAIAAgAAAAIAAAAUAAAAA8AAADvvIEAAAAAAAAAAAAAAAAAAAA2ACQAAAAgABwAAAAAABsAFAAAAAAAAAAAAAAAAAAAAAAAAAAAABAAAAAAAAAADAAAAAgABAA2AAAAAgAAABwAAAAcAAAAHAAAAAAAIEEAAAABaAAAAE3PAEOw////tP///wEAAAAUAAAAEAAaAAgABwAMAAAAEAAUABAAAAAAAAABHAAAAAAAoEEcAAAAAgAAAAAACgAIAAUABgAHAAoAAAAADAD//P///wQABAAEAAAACAAIAAYABwAIAAAAAAAMAA==</value>
					</parameter>
					<parameter authoringApp="PremierePro">
					<parameterid>2</parameterid>
					<name></name>
					<IsTimeVarying>false</IsTimeVarying>
					<ParameterControlType>11</ParameterControlType>
					<LowerBound>false</LowerBound>
					<UpperBound>false</UpperBound>
					<value>-91445760000000000,false,0,0,0,0,0,0</value>
					</parameter>
					<parameter authoringApp="PremierePro">
					<parameterid>3</parameterid>
					<name></name>
					<IsTimeVarying>false</IsTimeVarying>
					<value>-91445760000000000,0.5:0.5,0,0,0,0,0,0,5,4,0,0,0,0</value>
					</parameter>
					<parameter authoringApp="PremierePro">
					<parameterid>4</parameterid>
					<name></name>
					<IsTimeVarying>false</IsTimeVarying>
					<ParameterControlType>2</ParameterControlType>
					<LowerBound>0</LowerBound>
					<UpperBound>4000</UpperBound>
					<value>-91445760000000000,100.,0,0,0,0,0,0</value>
					</parameter>
					<parameter authoringApp="PremierePro">
					<parameterid>8</parameterid>
					<name></name>
					<IsTimeVarying>false</IsTimeVarying>
					<ParameterControlType>2</ParameterControlType>
					<LowerBound>0</LowerBound>
					<UpperBound>100</UpperBound>
					<value>-91445760000000000,100.,0,0,0,0,0,0</value>
					</parameter>
					</effect>
					</filter>
					<logginginfo>
					<description></description>
					<scene></scene>
					<shottake></shottake>
					<lognote></lognote>
					<good></good>
					<originalvideofilename></originalvideofilename>
					<originalaudiofilename></originalaudiofilename>
					</logginginfo>
					<colorinfo>
					<lut></lut>
					<lut1></lut1>
					<asc_sop></asc_sop>
					<asc_sat></asc_sat>
					<lut2></lut2>
					</colorinfo>
					<labels>
					</labels>
					</clipitem>
					<clipitem frameBlend="FALSE" id="clipitem-326">
					<masterclipid>masterclip-246</masterclipid>
					<name></name>
					<enabled>TRUE</enabled>
					<duration>2582774</duration>
					<rate>
					
					                                    <timebase>60</timebase>
					                                    <ntsc>TRUE</ntsc>
					                                
					</rate>
					<start>1931</start>
					<end>1991</end>
					<in>1931</in>
					<out>1991</out>
					<pproTicksIn>914456774963789</pproTicksIn>
					<pproTicksOut>914677708529577</pproTicksOut>
					<alphatype>straight</alphatype>
					<pixelaspectratio>square</pixelaspectratio>
					<anamorphic>FALSE</anamorphic>
					<file id="file-245">
					<name></name>
					<mediaSource>GraphicAndType</mediaSource>
					<rate>
					<timebase>60</timebase>
					<ntsc>TRUE</ntsc>
					</rate>
					<timecode>
					<rate>
					<timebase>60</timebase>
					<ntsc>TRUE</ntsc>
					</rate>
					<string>00:00:00:00</string>
					<frame>0</frame>
					<displayformat>NDF</displayformat>
					</timecode>
					<media>
					<video>
					<samplecharacteristics>
					<rate>
					<timebase>60</timebase>
					<ntsc>TRUE</ntsc>
					</rate>
					<width>1080</width>
					<height>1920</height>
					<anamorphic>FALSE</anamorphic>
					<pixelaspectratio>square</pixelaspectratio>
					<fielddominance>none</fielddominance>
					</samplecharacteristics>
					</video>
					</media>
					</file>
					<filter>
					<effect>
					<name></name>
					<effectid>GraphicAndType</effectid>
					<effectcategory>graphic</effectcategory>
					<effecttype>filter</effecttype>
					<mediatype>video</mediatype>
					<pproBypass>false</pproBypass>
					<parameter authoringApp="PremierePro">
					<parameterid>1</parameterid>
					<name></name>
					<hash>025b1101-ead6-0ca2-1feb-caf3000001fc</hash>
					<value>5AEAAAAAAABEMyIRDAAAAAAABgAKAAQABgAAAGQAAAAAAF4ASAAQAAwARABAADwAOAAAAAAAAAAAADQAMwAsAAAAKAAkACAAAAAAAAAAAAAAAAAAHAAAAAAAGgAAAAAAAAAUAAAAAAAAAAAAAAAAAAAAAAAAAAgAAAAAABsABwBeAAAAAAAAAUAAAABQAAAAbAAAAAIAAAAAAAEAAQAAAAAAQEEAAMBAAABAQAAAyEIAAAABIAAAAAIAAAACAAAAAAA2QwCASkTw/v//9P7///j+//8S////AAAAAAEAAAAEAAAAEQAAAEhHUFNvZWlLYWt1cG9wdGFpAAAAAQAAAAwAAAAIAAwABAAIAAgAAAAIAAAAUAAAAA8AAADvvIEAAAAAAAAAAAAAAAAAAAA2ACQAAAAgABwAAAAAABsAFAAAAAAAAAAAAAAAAAAAAAAAAAAAABAAAAAAAAAADAAAAAgABAA2AAAAAgAAABwAAAAcAAAAHAAAAAAAIEEAAAABaAAAAE3PAEOw////tP///wEAAAAUAAAAEAAaAAgABwAMAAAAEAAUABAAAAAAAAABHAAAAAAAoEEcAAAAAgAAAAAACgAIAAUABgAHAAoAAAAADAD//P///wQABAAEAAAACAAIAAYABwAIAAAAAAAMAA==</value>
					</parameter>
					<parameter authoringApp="PremierePro">
					<parameterid>2</parameterid>
					<name></name>
					<IsTimeVarying>false</IsTimeVarying>
					<ParameterControlType>11</ParameterControlType>
					<LowerBound>false</LowerBound>
					<UpperBound>false</UpperBound>
					<value>-91445760000000000,false,0,0,0,0,0,0</value>
					</parameter>
					<parameter authoringApp="PremierePro">
					<parameterid>3</parameterid>
					<name></name>
					<IsTimeVarying>false</IsTimeVarying>
					<value>-91445760000000000,0.5:0.5,0,0,0,0,0,0,5,4,0,0,0,0</value>
					</parameter>
					<parameter authoringApp="PremierePro">
					<parameterid>4</parameterid>
					<name></name>
					<IsTimeVarying>false</IsTimeVarying>
					<ParameterControlType>2</ParameterControlType>
					<LowerBound>0</LowerBound>
					<UpperBound>4000</UpperBound>
					<value>-91445760000000000,100.,0,0,0,0,0,0</value>
					</parameter>
					<parameter authoringApp="PremierePro">
					<parameterid>8</parameterid>
					<name></name>
					<IsTimeVarying>false</IsTimeVarying>
					<ParameterControlType>2</ParameterControlType>
					<LowerBound>0</LowerBound>
					<UpperBound>100</UpperBound>
					<value>-91445760000000000,100.,0,0,0,0,0,0</value>
					</parameter>
					</effect>
					</filter>
					<logginginfo>
					<description></description>
					<scene></scene>
					<shottake></shottake>
					<lognote></lognote>
					<good></good>
					<originalvideofilename></originalvideofilename>
					<originalaudiofilename></originalaudiofilename>
					</logginginfo>
					<colorinfo>
					<lut></lut>
					<lut1></lut1>
					<asc_sop></asc_sop>
					<asc_sat></asc_sat>
					<lut2></lut2>
					</colorinfo>
					<labels>
					</labels>
					</clipitem>
					<clipitem frameBlend="FALSE" id="clipitem-346">
					<masterclipid>masterclip-266</masterclipid>
					<name></name>
					<enabled>TRUE</enabled>
					<duration>2582774</duration>
					<rate>
					
					                                    <timebase>60</timebase>
					                                    <ntsc>TRUE</ntsc>
					                                
					</rate>
					<start>2201</start>
					<end>2261</end>
					<in>2201</in>
					<out>2261</out>
					<pproTicksIn>914456774963789</pproTicksIn>
					<pproTicksOut>914677708529577</pproTicksOut>
					<alphatype>straight</alphatype>
					<pixelaspectratio>square</pixelaspectratio>
					<anamorphic>FALSE</anamorphic>
					<file id="file-265">
					<name></name>
					<mediaSource>GraphicAndType</mediaSource>
					<rate>
					<timebase>60</timebase>
					<ntsc>TRUE</ntsc>
					</rate>
					<timecode>
					<rate>
					<timebase>60</timebase>
					<ntsc>TRUE</ntsc>
					</rate>
					<string>00:00:00:00</string>
					<frame>0</frame>
					<displayformat>NDF</displayformat>
					</timecode>
					<media>
					<video>
					<samplecharacteristics>
					<rate>
					<timebase>60</timebase>
					<ntsc>TRUE</ntsc>
					</rate>
					<width>1080</width>
					<height>1920</height>
					<anamorphic>FALSE</anamorphic>
					<pixelaspectratio>square</pixelaspectratio>
					<fielddominance>none</fielddominance>
					</samplecharacteristics>
					</video>
					</media>
					</file>
					<filter>
					<effect>
					<name></name>
					<effectid>GraphicAndType</effectid>
					<effectcategory>graphic</effectcategory>
					<effecttype>filter</effecttype>
					<mediatype>video</mediatype>
					<pproBypass>false</pproBypass>
					<parameter authoringApp="PremierePro">
					<parameterid>1</parameterid>
					<name></name>
					<hash>025b1101-ead6-0ca2-1feb-caf3000001fc</hash>
					<value>5AEAAAAAAABEMyIRDAAAAAAABgAKAAQABgAAAGQAAAAAAF4ASAAQAAwARABAADwAOAAAAAAAAAAAADQAMwAsAAAAKAAkACAAAAAAAAAAAAAAAAAAHAAAAAAAGgAAAAAAAAAUAAAAAAAAAAAAAAAAAAAAAAAAAAgAAAAAABsABwBeAAAAAAAAAUAAAABQAAAAbAAAAAIAAAAAAAEAAQAAAAAAQEEAAMBAAABAQAAAyEIAAAABIAAAAAIAAAACAAAAAAA2QwCASkTw/v//9P7///j+//8S////AAAAAAEAAAAEAAAAEQAAAEhHUFNvZWlLYWt1cG9wdGFpAAAAAQAAAAwAAAAIAAwABAAIAAgAAAAIAAAAUAAAAA8AAADvvIEAAAAAAAAAAAAAAAAAAAA2ACQAAAAgABwAAAAAABsAFAAAAAAAAAAAAAAAAAAAAAAAAAAAABAAAAAAAAAADAAAAAgABAA2AAAAAgAAABwAAAAcAAAAHAAAAAAAIEEAAAABaAAAAE3PAEOw////tP///wEAAAAUAAAAEAAaAAgABwAMAAAAEAAUABAAAAAAAAABHAAAAAAAoEEcAAAAAgAAAAAACgAIAAUABgAHAAoAAAAADAD//P///wQABAAEAAAACAAIAAYABwAIAAAAAAAMAA==</value>
					</parameter>
					<parameter authoringApp="PremierePro">
					<parameterid>2</parameterid>
					<name></name>
					<IsTimeVarying>false</IsTimeVarying>
					<ParameterControlType>11</ParameterControlType>
					<LowerBound>false</LowerBound>
					<UpperBound>false</UpperBound>
					<value>-91445760000000000,false,0,0,0,0,0,0</value>
					</parameter>
					<parameter authoringApp="PremierePro">
					<parameterid>3</parameterid>
					<name></name>
					<IsTimeVarying>false</IsTimeVarying>
					<value>-91445760000000000,0.5:0.5,0,0,0,0,0,0,5,4,0,0,0,0</value>
					</parameter>
					<parameter authoringApp="PremierePro">
					<parameterid>4</parameterid>
					<name></name>
					<IsTimeVarying>false</IsTimeVarying>
					<ParameterControlType>2</ParameterControlType>
					<LowerBound>0</LowerBound>
					<UpperBound>4000</UpperBound>
					<value>-91445760000000000,100.,0,0,0,0,0,0</value>
					</parameter>
					<parameter authoringApp="PremierePro">
					<parameterid>8</parameterid>
					<name></name>
					<IsTimeVarying>false</IsTimeVarying>
					<ParameterControlType>2</ParameterControlType>
					<LowerBound>0</LowerBound>
					<UpperBound>100</UpperBound>
					<value>-91445760000000000,100.,0,0,0,0,0,0</value>
					</parameter>
					</effect>
					</filter>
					<logginginfo>
					<description></description>
					<scene></scene>
					<shottake></shottake>
					<lognote></lognote>
					<good></good>
					<originalvideofilename></originalvideofilename>
					<originalaudiofilename></originalaudiofilename>
					</logginginfo>
					<colorinfo>
					<lut></lut>
					<lut1></lut1>
					<asc_sop></asc_sop>
					<asc_sat></asc_sat>
					<lut2></lut2>
					</colorinfo>
					<labels>
					</labels>
					</clipitem>
					<clipitem frameBlend="FALSE" id="clipitem-370">
					<masterclipid>masterclip-290</masterclipid>
					<name></name>
					<enabled>TRUE</enabled>
					<duration>2582774</duration>
					<rate>
					
					                                    <timebase>60</timebase>
					                                    <ntsc>TRUE</ntsc>
					                                
					</rate>
					<start>2567</start>
					<end>2627</end>
					<in>2567</in>
					<out>2627</out>
					<pproTicksIn>914456774963789</pproTicksIn>
					<pproTicksOut>914677708529577</pproTicksOut>
					<alphatype>straight</alphatype>
					<pixelaspectratio>square</pixelaspectratio>
					<anamorphic>FALSE</anamorphic>
					<file id="file-289">
					<name></name>
					<mediaSource>GraphicAndType</mediaSource>
					<rate>
					<timebase>60</timebase>
					<ntsc>TRUE</ntsc>
					</rate>
					<timecode>
					<rate>
					<timebase>60</timebase>
					<ntsc>TRUE</ntsc>
					</rate>
					<string>00:00:00:00</string>
					<frame>0</frame>
					<displayformat>NDF</displayformat>
					</timecode>
					<media>
					<video>
					<samplecharacteristics>
					<rate>
					<timebase>60</timebase>
					<ntsc>TRUE</ntsc>
					</rate>
					<width>1080</width>
					<height>1920</height>
					<anamorphic>FALSE</anamorphic>
					<pixelaspectratio>square</pixelaspectratio>
					<fielddominance>none</fielddominance>
					</samplecharacteristics>
					</video>
					</media>
					</file>
					<filter>
					<effect>
					<name></name>
					<effectid>GraphicAndType</effectid>
					<effectcategory>graphic</effectcategory>
					<effecttype>filter</effecttype>
					<mediatype>video</mediatype>
					<pproBypass>false</pproBypass>
					<parameter authoringApp="PremierePro">
					<parameterid>1</parameterid>
					<name></name>
					<hash>025b1101-ead6-0ca2-1feb-caf3000001fc</hash>
					<value>5AEAAAAAAABEMyIRDAAAAAAABgAKAAQABgAAAGQAAAAAAF4ASAAQAAwARABAADwAOAAAAAAAAAAAADQAMwAsAAAAKAAkACAAAAAAAAAAAAAAAAAAHAAAAAAAGgAAAAAAAAAUAAAAAAAAAAAAAAAAAAAAAAAAAAgAAAAAABsABwBeAAAAAAAAAUAAAABQAAAAbAAAAAIAAAAAAAEAAQAAAAAAQEEAAMBAAABAQAAAyEIAAAABIAAAAAIAAAACAAAAAAA2QwCASkTw/v//9P7///j+//8S////AAAAAAEAAAAEAAAAEQAAAEhHUFNvZWlLYWt1cG9wdGFpAAAAAQAAAAwAAAAIAAwABAAIAAgAAAAIAAAAUAAAAA8AAADvvIEAAAAAAAAAAAAAAAAAAAA2ACQAAAAgABwAAAAAABsAFAAAAAAAAAAAAAAAAAAAAAAAAAAAABAAAAAAAAAADAAAAAgABAA2AAAAAgAAABwAAAAcAAAAHAAAAAAAIEEAAAABaAAAAE3PAEOw////tP///wEAAAAUAAAAEAAaAAgABwAMAAAAEAAUABAAAAAAAAABHAAAAAAAoEEcAAAAAgAAAAAACgAIAAUABgAHAAoAAAAADAD//P///wQABAAEAAAACAAIAAYABwAIAAAAAAAMAA==</value>
					</parameter>
					<parameter authoringApp="PremierePro">
					<parameterid>2</parameterid>
					<name></name>
					<IsTimeVarying>false</IsTimeVarying>
					<ParameterControlType>11</ParameterControlType>
					<LowerBound>false</LowerBound>
					<UpperBound>false</UpperBound>
					<value>-91445760000000000,false,0,0,0,0,0,0</value>
					</parameter>
					<parameter authoringApp="PremierePro">
					<parameterid>3</parameterid>
					<name></name>
					<IsTimeVarying>false</IsTimeVarying>
					<value>-91445760000000000,0.5:0.5,0,0,0,0,0,0,5,4,0,0,0,0</value>
					</parameter>
					<parameter authoringApp="PremierePro">
					<parameterid>4</parameterid>
					<name></name>
					<IsTimeVarying>false</IsTimeVarying>
					<ParameterControlType>2</ParameterControlType>
					<LowerBound>0</LowerBound>
					<UpperBound>4000</UpperBound>
					<value>-91445760000000000,100.,0,0,0,0,0,0</value>
					</parameter>
					<parameter authoringApp="PremierePro">
					<parameterid>8</parameterid>
					<name></name>
					<IsTimeVarying>false</IsTimeVarying>
					<ParameterControlType>2</ParameterControlType>
					<LowerBound>0</LowerBound>
					<UpperBound>100</UpperBound>
					<value>-91445760000000000,100.,0,0,0,0,0,0</value>
					</parameter>
					</effect>
					</filter>
					<logginginfo>
					<description></description>
					<scene></scene>
					<shottake></shottake>
					<lognote></lognote>
					<good></good>
					<originalvideofilename></originalvideofilename>
					<originalaudiofilename></originalaudiofilename>
					</logginginfo>
					<colorinfo>
					<lut></lut>
					<lut1></lut1>
					<asc_sop></asc_sop>
					<asc_sat></asc_sat>
					<lut2></lut2>
					</colorinfo>
					<labels>
					</labels>
					</clipitem>
					<clipitem frameBlend="FALSE" id="clipitem-380">
					<masterclipid>masterclip-300</masterclipid>
					<name></name>
					<enabled>TRUE</enabled>
					<duration>2582774</duration>
					<rate>
					
					                                    <timebase>60</timebase>
					                                    <ntsc>TRUE</ntsc>
					                                
					</rate>
					<start>2669</start>
					<end>2735</end>
					<in>2669</in>
					<out>2735</out>
					<pproTicksIn>914456774963789</pproTicksIn>
					<pproTicksOut>914677708529577</pproTicksOut>
					<alphatype>straight</alphatype>
					<pixelaspectratio>square</pixelaspectratio>
					<anamorphic>FALSE</anamorphic>
					<file id="file-299">
					<name></name>
					<mediaSource>GraphicAndType</mediaSource>
					<rate>
					<timebase>60</timebase>
					<ntsc>TRUE</ntsc>
					</rate>
					<timecode>
					<rate>
					<timebase>60</timebase>
					<ntsc>TRUE</ntsc>
					</rate>
					<string>00:00:00:00</string>
					<frame>0</frame>
					<displayformat>NDF</displayformat>
					</timecode>
					<media>
					<video>
					<samplecharacteristics>
					<rate>
					<timebase>60</timebase>
					<ntsc>TRUE</ntsc>
					</rate>
					<width>1080</width>
					<height>1920</height>
					<anamorphic>FALSE</anamorphic>
					<pixelaspectratio>square</pixelaspectratio>
					<fielddominance>none</fielddominance>
					</samplecharacteristics>
					</video>
					</media>
					</file>
					<filter>
					<effect>
					<name></name>
					<effectid>GraphicAndType</effectid>
					<effectcategory>graphic</effectcategory>
					<effecttype>filter</effecttype>
					<mediatype>video</mediatype>
					<pproBypass>false</pproBypass>
					<parameter authoringApp="PremierePro">
					<parameterid>1</parameterid>
					<name></name>
					<hash>025b1101-ead6-0ca2-1feb-caf3000001fc</hash>
					<value>5AEAAAAAAABEMyIRDAAAAAAABgAKAAQABgAAAGQAAAAAAF4ASAAQAAwARABAADwAOAAAAAAAAAAAADQAMwAsAAAAKAAkACAAAAAAAAAAAAAAAAAAHAAAAAAAGgAAAAAAAAAUAAAAAAAAAAAAAAAAAAAAAAAAAAgAAAAAABsABwBeAAAAAAAAAUAAAABQAAAAbAAAAAIAAAAAAAEAAQAAAAAAQEEAAMBAAABAQAAAyEIAAAABIAAAAAIAAAACAAAAAAA2QwCASkTw/v//9P7///j+//8S////AAAAAAEAAAAEAAAAEQAAAEhHUFNvZWlLYWt1cG9wdGFpAAAAAQAAAAwAAAAIAAwABAAIAAgAAAAIAAAAUAAAAA8AAADvvIEAAAAAAAAAAAAAAAAAAAA2ACQAAAAgABwAAAAAABsAFAAAAAAAAAAAAAAAAAAAAAAAAAAAABAAAAAAAAAADAAAAAgABAA2AAAAAgAAABwAAAAcAAAAHAAAAAAAIEEAAAABaAAAAE3PAEOw////tP///wEAAAAUAAAAEAAaAAgABwAMAAAAEAAUABAAAAAAAAABHAAAAAAAoEEcAAAAAgAAAAAACgAIAAUABgAHAAoAAAAADAD//P///wQABAAEAAAACAAIAAYABwAIAAAAAAAMAA==</value>
					</parameter>
					<parameter authoringApp="PremierePro">
					<parameterid>2</parameterid>
					<name></name>
					<IsTimeVarying>false</IsTimeVarying>
					<ParameterControlType>11</ParameterControlType>
					<LowerBound>false</LowerBound>
					<UpperBound>false</UpperBound>
					<value>-91445760000000000,false,0,0,0,0,0,0</value>
					</parameter>
					<parameter authoringApp="PremierePro">
					<parameterid>3</parameterid>
					<name></name>
					<IsTimeVarying>false</IsTimeVarying>
					<value>-91445760000000000,0.5:0.5,0,0,0,0,0,0,5,4,0,0,0,0</value>
					</parameter>
					<parameter authoringApp="PremierePro">
					<parameterid>4</parameterid>
					<name></name>
					<IsTimeVarying>false</IsTimeVarying>
					<ParameterControlType>2</ParameterControlType>
					<LowerBound>0</LowerBound>
					<UpperBound>4000</UpperBound>
					<value>-91445760000000000,100.,0,0,0,0,0,0</value>
					</parameter>
					<parameter authoringApp="PremierePro">
					<parameterid>8</parameterid>
					<name></name>
					<IsTimeVarying>false</IsTimeVarying>
					<ParameterControlType>2</ParameterControlType>
					<LowerBound>0</LowerBound>
					<UpperBound>100</UpperBound>
					<value>-91445760000000000,100.,0,0,0,0,0,0</value>
					</parameter>
					</effect>
					</filter>
					<logginginfo>
					<description></description>
					<scene></scene>
					<shottake></shottake>
					<lognote></lognote>
					<good></good>
					<originalvideofilename></originalvideofilename>
					<originalaudiofilename></originalaudiofilename>
					</logginginfo>
					<colorinfo>
					<lut></lut>
					<lut1></lut1>
					<asc_sop></asc_sop>
					<asc_sat></asc_sat>
					<lut2></lut2>
					</colorinfo>
					<labels>
					</labels>
					</clipitem>
					<clipitem frameBlend="FALSE" id="clipitem-391">
					<masterclipid>masterclip-311</masterclipid>
					<name></name>
					<enabled>TRUE</enabled>
					<duration>2582774</duration>
					<rate>
					
					                                    <timebase>60</timebase>
					                                    <ntsc>TRUE</ntsc>
					                                
					</rate>
					<start>2771</start>
					<end>2831</end>
					<in>2771</in>
					<out>2831</out>
					<pproTicksIn>914456774963789</pproTicksIn>
					<pproTicksOut>914677708529577</pproTicksOut>
					<alphatype>straight</alphatype>
					<pixelaspectratio>square</pixelaspectratio>
					<anamorphic>FALSE</anamorphic>
					<file id="file-310">
					<name></name>
					<mediaSource>GraphicAndType</mediaSource>
					<rate>
					<timebase>60</timebase>
					<ntsc>TRUE</ntsc>
					</rate>
					<timecode>
					<rate>
					<timebase>60</timebase>
					<ntsc>TRUE</ntsc>
					</rate>
					<string>00:00:00:00</string>
					<frame>0</frame>
					<displayformat>NDF</displayformat>
					</timecode>
					<media>
					<video>
					<samplecharacteristics>
					<rate>
					<timebase>60</timebase>
					<ntsc>TRUE</ntsc>
					</rate>
					<width>1080</width>
					<height>1920</height>
					<anamorphic>FALSE</anamorphic>
					<pixelaspectratio>square</pixelaspectratio>
					<fielddominance>none</fielddominance>
					</samplecharacteristics>
					</video>
					</media>
					</file>
					<filter>
					<effect>
					<name></name>
					<effectid>GraphicAndType</effectid>
					<effectcategory>graphic</effectcategory>
					<effecttype>filter</effecttype>
					<mediatype>video</mediatype>
					<pproBypass>false</pproBypass>
					<parameter authoringApp="PremierePro">
					<parameterid>1</parameterid>
					<name></name>
					<hash>025b1101-ead6-0ca2-1feb-caf3000001fc</hash>
					<value>5AEAAAAAAABEMyIRDAAAAAAABgAKAAQABgAAAGQAAAAAAF4ASAAQAAwARABAADwAOAAAAAAAAAAAADQAMwAsAAAAKAAkACAAAAAAAAAAAAAAAAAAHAAAAAAAGgAAAAAAAAAUAAAAAAAAAAAAAAAAAAAAAAAAAAgAAAAAABsABwBeAAAAAAAAAUAAAABQAAAAbAAAAAIAAAAAAAEAAQAAAAAAQEEAAMBAAABAQAAAyEIAAAABIAAAAAIAAAACAAAAAAA2QwCASkTw/v//9P7///j+//8S////AAAAAAEAAAAEAAAAEQAAAEhHUFNvZWlLYWt1cG9wdGFpAAAAAQAAAAwAAAAIAAwABAAIAAgAAAAIAAAAUAAAAA8AAADvvIEAAAAAAAAAAAAAAAAAAAA2ACQAAAAgABwAAAAAABsAFAAAAAAAAAAAAAAAAAAAAAAAAAAAABAAAAAAAAAADAAAAAgABAA2AAAAAgAAABwAAAAcAAAAHAAAAAAAIEEAAAABaAAAAE3PAEOw////tP///wEAAAAUAAAAEAAaAAgABwAMAAAAEAAUABAAAAAAAAABHAAAAAAAoEEcAAAAAgAAAAAACgAIAAUABgAHAAoAAAAADAD//P///wQABAAEAAAACAAIAAYABwAIAAAAAAAMAA==</value>
					</parameter>
					<parameter authoringApp="PremierePro">
					<parameterid>2</parameterid>
					<name></name>
					<IsTimeVarying>false</IsTimeVarying>
					<ParameterControlType>11</ParameterControlType>
					<LowerBound>false</LowerBound>
					<UpperBound>false</UpperBound>
					<value>-91445760000000000,false,0,0,0,0,0,0</value>
					</parameter>
					<parameter authoringApp="PremierePro">
					<parameterid>3</parameterid>
					<name></name>
					<IsTimeVarying>false</IsTimeVarying>
					<value>-91445760000000000,0.5:0.5,0,0,0,0,0,0,5,4,0,0,0,0</value>
					</parameter>
					<parameter authoringApp="PremierePro">
					<parameterid>4</parameterid>
					<name></name>
					<IsTimeVarying>false</IsTimeVarying>
					<ParameterControlType>2</ParameterControlType>
					<LowerBound>0</LowerBound>
					<UpperBound>4000</UpperBound>
					<value>-91445760000000000,100.,0,0,0,0,0,0</value>
					</parameter>
					<parameter authoringApp="PremierePro">
					<parameterid>8</parameterid>
					<name></name>
					<IsTimeVarying>false</IsTimeVarying>
					<ParameterControlType>2</ParameterControlType>
					<LowerBound>0</LowerBound>
					<UpperBound>100</UpperBound>
					<value>-91445760000000000,100.,0,0,0,0,0,0</value>
					</parameter>
					</effect>
					</filter>
					<logginginfo>
					<description></description>
					<scene></scene>
					<shottake></shottake>
					<lognote></lognote>
					<good></good>
					<originalvideofilename></originalvideofilename>
					<originalaudiofilename></originalaudiofilename>
					</logginginfo>
					<colorinfo>
					<lut></lut>
					<lut1></lut1>
					<asc_sop></asc_sop>
					<asc_sat></asc_sat>
					<lut2></lut2>
					</colorinfo>
					<labels>
					</labels>
					</clipitem>
					<clipitem frameBlend="FALSE" id="clipitem-400">
					<masterclipid>masterclip-320</masterclipid>
					<name></name>
					<enabled>TRUE</enabled>
					<duration>2582774</duration>
					<rate>
					
					                                    <timebase>60</timebase>
					                                    <ntsc>TRUE</ntsc>
					                                
					</rate>
					<start>2849</start>
					<end>2909</end>
					<in>2849</in>
					<out>2909</out>
					<pproTicksIn>914456774963789</pproTicksIn>
					<pproTicksOut>914677708529577</pproTicksOut>
					<alphatype>straight</alphatype>
					<pixelaspectratio>square</pixelaspectratio>
					<anamorphic>FALSE</anamorphic>
					<file id="file-319">
					<name></name>
					<mediaSource>GraphicAndType</mediaSource>
					<rate>
					<timebase>60</timebase>
					<ntsc>TRUE</ntsc>
					</rate>
					<timecode>
					<rate>
					<timebase>60</timebase>
					<ntsc>TRUE</ntsc>
					</rate>
					<string>00:00:00:00</string>
					<frame>0</frame>
					<displayformat>NDF</displayformat>
					</timecode>
					<media>
					<video>
					<samplecharacteristics>
					<rate>
					<timebase>60</timebase>
					<ntsc>TRUE</ntsc>
					</rate>
					<width>1080</width>
					<height>1920</height>
					<anamorphic>FALSE</anamorphic>
					<pixelaspectratio>square</pixelaspectratio>
					<fielddominance>none</fielddominance>
					</samplecharacteristics>
					</video>
					</media>
					</file>
					<filter>
					<effect>
					<name></name>
					<effectid>GraphicAndType</effectid>
					<effectcategory>graphic</effectcategory>
					<effecttype>filter</effecttype>
					<mediatype>video</mediatype>
					<pproBypass>false</pproBypass>
					<parameter authoringApp="PremierePro">
					<parameterid>1</parameterid>
					<name></name>
					<hash>025b1101-ead6-0ca2-1feb-caf3000001fc</hash>
					<value>5AEAAAAAAABEMyIRDAAAAAAABgAKAAQABgAAAGQAAAAAAF4ASAAQAAwARABAADwAOAAAAAAAAAAAADQAMwAsAAAAKAAkACAAAAAAAAAAAAAAAAAAHAAAAAAAGgAAAAAAAAAUAAAAAAAAAAAAAAAAAAAAAAAAAAgAAAAAABsABwBeAAAAAAAAAUAAAABQAAAAbAAAAAIAAAAAAAEAAQAAAAAAQEEAAMBAAABAQAAAyEIAAAABIAAAAAIAAAACAAAAAAA2QwCASkTw/v//9P7///j+//8S////AAAAAAEAAAAEAAAAEQAAAEhHUFNvZWlLYWt1cG9wdGFpAAAAAQAAAAwAAAAIAAwABAAIAAgAAAAIAAAAUAAAAA8AAADvvIEAAAAAAAAAAAAAAAAAAAA2ACQAAAAgABwAAAAAABsAFAAAAAAAAAAAAAAAAAAAAAAAAAAAABAAAAAAAAAADAAAAAgABAA2AAAAAgAAABwAAAAcAAAAHAAAAAAAIEEAAAABaAAAAE3PAEOw////tP///wEAAAAUAAAAEAAaAAgABwAMAAAAEAAUABAAAAAAAAABHAAAAAAAoEEcAAAAAgAAAAAACgAIAAUABgAHAAoAAAAADAD//P///wQABAAEAAAACAAIAAYABwAIAAAAAAAMAA==</value>
					</parameter>
					<parameter authoringApp="PremierePro">
					<parameterid>2</parameterid>
					<name></name>
					<IsTimeVarying>false</IsTimeVarying>
					<ParameterControlType>11</ParameterControlType>
					<LowerBound>false</LowerBound>
					<UpperBound>false</UpperBound>
					<value>-91445760000000000,false,0,0,0,0,0,0</value>
					</parameter>
					<parameter authoringApp="PremierePro">
					<parameterid>3</parameterid>
					<name></name>
					<IsTimeVarying>false</IsTimeVarying>
					<value>-91445760000000000,0.5:0.5,0,0,0,0,0,0,5,4,0,0,0,0</value>
					</parameter>
					<parameter authoringApp="PremierePro">
					<parameterid>4</parameterid>
					<name></name>
					<IsTimeVarying>false</IsTimeVarying>
					<ParameterControlType>2</ParameterControlType>
					<LowerBound>0</LowerBound>
					<UpperBound>4000</UpperBound>
					<value>-91445760000000000,100.,0,0,0,0,0,0</value>
					</parameter>
					<parameter authoringApp="PremierePro">
					<parameterid>8</parameterid>
					<name></name>
					<IsTimeVarying>false</IsTimeVarying>
					<ParameterControlType>2</ParameterControlType>
					<LowerBound>0</LowerBound>
					<UpperBound>100</UpperBound>
					<value>-91445760000000000,100.,0,0,0,0,0,0</value>
					</parameter>
					</effect>
					</filter>
					<logginginfo>
					<description></description>
					<scene></scene>
					<shottake></shottake>
					<lognote></lognote>
					<good></good>
					<originalvideofilename></originalvideofilename>
					<originalaudiofilename></originalaudiofilename>
					</logginginfo>
					<colorinfo>
					<lut></lut>
					<lut1></lut1>
					<asc_sop></asc_sop>
					<asc_sat></asc_sat>
					<lut2></lut2>
					</colorinfo>
					<labels>
					</labels>
					</clipitem>
					<clipitem frameBlend="FALSE" id="clipitem-417">
					<masterclipid>masterclip-337</masterclipid>
					<name></name>
					<enabled>TRUE</enabled>
					<duration>2582774</duration>
					<rate>
					
					                                    <timebase>60</timebase>
					                                    <ntsc>TRUE</ntsc>
					                                
					</rate>
					<start>3035</start>
					<end>3095</end>
					<in>3035</in>
					<out>3095</out>
					<pproTicksIn>914456774963789</pproTicksIn>
					<pproTicksOut>914677708529577</pproTicksOut>
					<alphatype>straight</alphatype>
					<pixelaspectratio>square</pixelaspectratio>
					<anamorphic>FALSE</anamorphic>
					<file id="file-336">
					<name></name>
					<mediaSource>GraphicAndType</mediaSource>
					<rate>
					<timebase>60</timebase>
					<ntsc>TRUE</ntsc>
					</rate>
					<timecode>
					<rate>
					<timebase>60</timebase>
					<ntsc>TRUE</ntsc>
					</rate>
					<string>00:00:00:00</string>
					<frame>0</frame>
					<displayformat>NDF</displayformat>
					</timecode>
					<media>
					<video>
					<samplecharacteristics>
					<rate>
					<timebase>60</timebase>
					<ntsc>TRUE</ntsc>
					</rate>
					<width>1080</width>
					<height>1920</height>
					<anamorphic>FALSE</anamorphic>
					<pixelaspectratio>square</pixelaspectratio>
					<fielddominance>none</fielddominance>
					</samplecharacteristics>
					</video>
					</media>
					</file>
					<filter>
					<effect>
					<name></name>
					<effectid>GraphicAndType</effectid>
					<effectcategory>graphic</effectcategory>
					<effecttype>filter</effecttype>
					<mediatype>video</mediatype>
					<pproBypass>false</pproBypass>
					<parameter authoringApp="PremierePro">
					<parameterid>1</parameterid>
					<name></name>
					<hash>025b1101-ead6-0ca2-1feb-caf3000001fc</hash>
					<value>5AEAAAAAAABEMyIRDAAAAAAABgAKAAQABgAAAGQAAAAAAF4ASAAQAAwARABAADwAOAAAAAAAAAAAADQAMwAsAAAAKAAkACAAAAAAAAAAAAAAAAAAHAAAAAAAGgAAAAAAAAAUAAAAAAAAAAAAAAAAAAAAAAAAAAgAAAAAABsABwBeAAAAAAAAAUAAAABQAAAAbAAAAAIAAAAAAAEAAQAAAAAAQEEAAMBAAABAQAAAyEIAAAABIAAAAAIAAAACAAAAAAA2QwCASkTw/v//9P7///j+//8S////AAAAAAEAAAAEAAAAEQAAAEhHUFNvZWlLYWt1cG9wdGFpAAAAAQAAAAwAAAAIAAwABAAIAAgAAAAIAAAAUAAAAA8AAADvvIEAAAAAAAAAAAAAAAAAAAA2ACQAAAAgABwAAAAAABsAFAAAAAAAAAAAAAAAAAAAAAAAAAAAABAAAAAAAAAADAAAAAgABAA2AAAAAgAAABwAAAAcAAAAHAAAAAAAIEEAAAABaAAAAE3PAEOw////tP///wEAAAAUAAAAEAAaAAgABwAMAAAAEAAUABAAAAAAAAABHAAAAAAAoEEcAAAAAgAAAAAACgAIAAUABgAHAAoAAAAADAD//P///wQABAAEAAAACAAIAAYABwAIAAAAAAAMAA==</value>
					</parameter>
					<parameter authoringApp="PremierePro">
					<parameterid>2</parameterid>
					<name></name>
					<IsTimeVarying>false</IsTimeVarying>
					<ParameterControlType>11</ParameterControlType>
					<LowerBound>false</LowerBound>
					<UpperBound>false</UpperBound>
					<value>-91445760000000000,false,0,0,0,0,0,0</value>
					</parameter>
					<parameter authoringApp="PremierePro">
					<parameterid>3</parameterid>
					<name></name>
					<IsTimeVarying>false</IsTimeVarying>
					<value>-91445760000000000,0.5:0.5,0,0,0,0,0,0,5,4,0,0,0,0</value>
					</parameter>
					<parameter authoringApp="PremierePro">
					<parameterid>4</parameterid>
					<name></name>
					<IsTimeVarying>false</IsTimeVarying>
					<ParameterControlType>2</ParameterControlType>
					<LowerBound>0</LowerBound>
					<UpperBound>4000</UpperBound>
					<value>-91445760000000000,100.,0,0,0,0,0,0</value>
					</parameter>
					<parameter authoringApp="PremierePro">
					<parameterid>8</parameterid>
					<name></name>
					<IsTimeVarying>false</IsTimeVarying>
					<ParameterControlType>2</ParameterControlType>
					<LowerBound>0</LowerBound>
					<UpperBound>100</UpperBound>
					<value>-91445760000000000,100.,0,0,0,0,0,0</value>
					</parameter>
					</effect>
					</filter>
					<logginginfo>
					<description></description>
					<scene></scene>
					<shottake></shottake>
					<lognote></lognote>
					<good></good>
					<originalvideofilename></originalvideofilename>
					<originalaudiofilename></originalaudiofilename>
					</logginginfo>
					<colorinfo>
					<lut></lut>
					<lut1></lut1>
					<asc_sop></asc_sop>
					<asc_sat></asc_sat>
					<lut2></lut2>
					</colorinfo>
					<labels>
					</labels>
					</clipitem>
					<clipitem frameBlend="FALSE" id="clipitem-428">
					<masterclipid>masterclip-348</masterclipid>
					<name></name>
					<enabled>TRUE</enabled>
					<duration>2582774</duration>
					<rate>
					
					                                    <timebase>60</timebase>
					                                    <ntsc>TRUE</ntsc>
					                                
					</rate>
					<start>3149</start>
					<end>3215</end>
					<in>3149</in>
					<out>3215</out>
					<pproTicksIn>914456774963789</pproTicksIn>
					<pproTicksOut>914677708529577</pproTicksOut>
					<alphatype>straight</alphatype>
					<pixelaspectratio>square</pixelaspectratio>
					<anamorphic>FALSE</anamorphic>
					<file id="file-347">
					<name></name>
					<mediaSource>GraphicAndType</mediaSource>
					<rate>
					<timebase>60</timebase>
					<ntsc>TRUE</ntsc>
					</rate>
					<timecode>
					<rate>
					<timebase>60</timebase>
					<ntsc>TRUE</ntsc>
					</rate>
					<string>00:00:00:00</string>
					<frame>0</frame>
					<displayformat>NDF</displayformat>
					</timecode>
					<media>
					<video>
					<samplecharacteristics>
					<rate>
					<timebase>60</timebase>
					<ntsc>TRUE</ntsc>
					</rate>
					<width>1080</width>
					<height>1920</height>
					<anamorphic>FALSE</anamorphic>
					<pixelaspectratio>square</pixelaspectratio>
					<fielddominance>none</fielddominance>
					</samplecharacteristics>
					</video>
					</media>
					</file>
					<filter>
					<effect>
					<name></name>
					<effectid>GraphicAndType</effectid>
					<effectcategory>graphic</effectcategory>
					<effecttype>filter</effecttype>
					<mediatype>video</mediatype>
					<pproBypass>false</pproBypass>
					<parameter authoringApp="PremierePro">
					<parameterid>1</parameterid>
					<name></name>
					<hash>025b1101-ead6-0ca2-1feb-caf3000001fc</hash>
					<value>5AEAAAAAAABEMyIRDAAAAAAABgAKAAQABgAAAGQAAAAAAF4ASAAQAAwARABAADwAOAAAAAAAAAAAADQAMwAsAAAAKAAkACAAAAAAAAAAAAAAAAAAHAAAAAAAGgAAAAAAAAAUAAAAAAAAAAAAAAAAAAAAAAAAAAgAAAAAABsABwBeAAAAAAAAAUAAAABQAAAAbAAAAAIAAAAAAAEAAQAAAAAAQEEAAMBAAABAQAAAyEIAAAABIAAAAAIAAAACAAAAAAA2QwCASkTw/v//9P7///j+//8S////AAAAAAEAAAAEAAAAEQAAAEhHUFNvZWlLYWt1cG9wdGFpAAAAAQAAAAwAAAAIAAwABAAIAAgAAAAIAAAAUAAAAA8AAADvvIEAAAAAAAAAAAAAAAAAAAA2ACQAAAAgABwAAAAAABsAFAAAAAAAAAAAAAAAAAAAAAAAAAAAABAAAAAAAAAADAAAAAgABAA2AAAAAgAAABwAAAAcAAAAHAAAAAAAIEEAAAABaAAAAE3PAEOw////tP///wEAAAAUAAAAEAAaAAgABwAMAAAAEAAUABAAAAAAAAABHAAAAAAAoEEcAAAAAgAAAAAACgAIAAUABgAHAAoAAAAADAD//P///wQABAAEAAAACAAIAAYABwAIAAAAAAAMAA==</value>
					</parameter>
					<parameter authoringApp="PremierePro">
					<parameterid>2</parameterid>
					<name></name>
					<IsTimeVarying>false</IsTimeVarying>
					<ParameterControlType>11</ParameterControlType>
					<LowerBound>false</LowerBound>
					<UpperBound>false</UpperBound>
					<value>-91445760000000000,false,0,0,0,0,0,0</value>
					</parameter>
					<parameter authoringApp="PremierePro">
					<parameterid>3</parameterid>
					<name></name>
					<IsTimeVarying>false</IsTimeVarying>
					<value>-91445760000000000,0.5:0.5,0,0,0,0,0,0,5,4,0,0,0,0</value>
					</parameter>
					<parameter authoringApp="PremierePro">
					<parameterid>4</parameterid>
					<name></name>
					<IsTimeVarying>false</IsTimeVarying>
					<ParameterControlType>2</ParameterControlType>
					<LowerBound>0</LowerBound>
					<UpperBound>4000</UpperBound>
					<value>-91445760000000000,100.,0,0,0,0,0,0</value>
					</parameter>
					<parameter authoringApp="PremierePro">
					<parameterid>8</parameterid>
					<name></name>
					<IsTimeVarying>false</IsTimeVarying>
					<ParameterControlType>2</ParameterControlType>
					<LowerBound>0</LowerBound>
					<UpperBound>100</UpperBound>
					<value>-91445760000000000,100.,0,0,0,0,0,0</value>
					</parameter>
					</effect>
					</filter>
					<logginginfo>
					<description></description>
					<scene></scene>
					<shottake></shottake>
					<lognote></lognote>
					<good></good>
					<originalvideofilename></originalvideofilename>
					<originalaudiofilename></originalaudiofilename>
					</logginginfo>
					<colorinfo>
					<lut></lut>
					<lut1></lut1>
					<asc_sop></asc_sop>
					<asc_sat></asc_sat>
					<lut2></lut2>
					</colorinfo>
					<labels>
					</labels>
					</clipitem>
					<clipitem frameBlend="FALSE" id="clipitem-437">
					<masterclipid>masterclip-357</masterclipid>
					<name></name>
					<enabled>TRUE</enabled>
					<duration>2582774</duration>
					<rate>
					
					                                    <timebase>60</timebase>
					                                    <ntsc>TRUE</ntsc>
					                                
					</rate>
					<start>3227</start>
					<end>3287</end>
					<in>3227</in>
					<out>3287</out>
					<pproTicksIn>914456774963789</pproTicksIn>
					<pproTicksOut>914677708529577</pproTicksOut>
					<alphatype>straight</alphatype>
					<pixelaspectratio>square</pixelaspectratio>
					<anamorphic>FALSE</anamorphic>
					<file id="file-356">
					<name></name>
					<mediaSource>GraphicAndType</mediaSource>
					<rate>
					<timebase>60</timebase>
					<ntsc>TRUE</ntsc>
					</rate>
					<timecode>
					<rate>
					<timebase>60</timebase>
					<ntsc>TRUE</ntsc>
					</rate>
					<string>00:00:00:00</string>
					<frame>0</frame>
					<displayformat>NDF</displayformat>
					</timecode>
					<media>
					<video>
					<samplecharacteristics>
					<rate>
					<timebase>60</timebase>
					<ntsc>TRUE</ntsc>
					</rate>
					<width>1080</width>
					<height>1920</height>
					<anamorphic>FALSE</anamorphic>
					<pixelaspectratio>square</pixelaspectratio>
					<fielddominance>none</fielddominance>
					</samplecharacteristics>
					</video>
					</media>
					</file>
					<filter>
					<effect>
					<name></name>
					<effectid>GraphicAndType</effectid>
					<effectcategory>graphic</effectcategory>
					<effecttype>filter</effecttype>
					<mediatype>video</mediatype>
					<pproBypass>false</pproBypass>
					<parameter authoringApp="PremierePro">
					<parameterid>1</parameterid>
					<name></name>
					<hash>025b1101-ead6-0ca2-1feb-caf3000001fc</hash>
					<value>5AEAAAAAAABEMyIRDAAAAAAABgAKAAQABgAAAGQAAAAAAF4ASAAQAAwARABAADwAOAAAAAAAAAAAADQAMwAsAAAAKAAkACAAAAAAAAAAAAAAAAAAHAAAAAAAGgAAAAAAAAAUAAAAAAAAAAAAAAAAAAAAAAAAAAgAAAAAABsABwBeAAAAAAAAAUAAAABQAAAAbAAAAAIAAAAAAAEAAQAAAAAAQEEAAMBAAABAQAAAyEIAAAABIAAAAAIAAAACAAAAAAA2QwCASkTw/v//9P7///j+//8S////AAAAAAEAAAAEAAAAEQAAAEhHUFNvZWlLYWt1cG9wdGFpAAAAAQAAAAwAAAAIAAwABAAIAAgAAAAIAAAAUAAAAA8AAADvvIEAAAAAAAAAAAAAAAAAAAA2ACQAAAAgABwAAAAAABsAFAAAAAAAAAAAAAAAAAAAAAAAAAAAABAAAAAAAAAADAAAAAgABAA2AAAAAgAAABwAAAAcAAAAHAAAAAAAIEEAAAABaAAAAE3PAEOw////tP///wEAAAAUAAAAEAAaAAgABwAMAAAAEAAUABAAAAAAAAABHAAAAAAAoEEcAAAAAgAAAAAACgAIAAUABgAHAAoAAAAADAD//P///wQABAAEAAAACAAIAAYABwAIAAAAAAAMAA==</value>
					</parameter>
					<parameter authoringApp="PremierePro">
					<parameterid>2</parameterid>
					<name></name>
					<IsTimeVarying>false</IsTimeVarying>
					<ParameterControlType>11</ParameterControlType>
					<LowerBound>false</LowerBound>
					<UpperBound>false</UpperBound>
					<value>-91445760000000000,false,0,0,0,0,0,0</value>
					</parameter>
					<parameter authoringApp="PremierePro">
					<parameterid>3</parameterid>
					<name></name>
					<IsTimeVarying>false</IsTimeVarying>
					<value>-91445760000000000,0.5:0.5,0,0,0,0,0,0,5,4,0,0,0,0</value>
					</parameter>
					<parameter authoringApp="PremierePro">
					<parameterid>4</parameterid>
					<name></name>
					<IsTimeVarying>false</IsTimeVarying>
					<ParameterControlType>2</ParameterControlType>
					<LowerBound>0</LowerBound>
					<UpperBound>4000</UpperBound>
					<value>-91445760000000000,100.,0,0,0,0,0,0</value>
					</parameter>
					<parameter authoringApp="PremierePro">
					<parameterid>8</parameterid>
					<name></name>
					<IsTimeVarying>false</IsTimeVarying>
					<ParameterControlType>2</ParameterControlType>
					<LowerBound>0</LowerBound>
					<UpperBound>100</UpperBound>
					<value>-91445760000000000,100.,0,0,0,0,0,0</value>
					</parameter>
					</effect>
					</filter>
					<logginginfo>
					<description></description>
					<scene></scene>
					<shottake></shottake>
					<lognote></lognote>
					<good></good>
					<originalvideofilename></originalvideofilename>
					<originalaudiofilename></originalaudiofilename>
					</logginginfo>
					<colorinfo>
					<lut></lut>
					<lut1></lut1>
					<asc_sop></asc_sop>
					<asc_sat></asc_sat>
					<lut2></lut2>
					</colorinfo>
					<labels>
					</labels>
					</clipitem>
					<clipitem frameBlend="FALSE" id="clipitem-464">
					<masterclipid>masterclip-384</masterclipid>
					<name></name>
					<enabled>TRUE</enabled>
					<duration>2582774</duration>
					<rate>
					
					                                    <timebase>60</timebase>
					                                    <ntsc>TRUE</ntsc>
					                                
					</rate>
					<start>3479</start>
					<end>3544</end>
					<in>3479</in>
					<out>3544</out>
					<pproTicksIn>914456774963789</pproTicksIn>
					<pproTicksOut>914677708529577</pproTicksOut>
					<alphatype>straight</alphatype>
					<pixelaspectratio>square</pixelaspectratio>
					<anamorphic>FALSE</anamorphic>
					<file id="file-383">
					<name></name>
					<mediaSource>GraphicAndType</mediaSource>
					<rate>
					<timebase>60</timebase>
					<ntsc>TRUE</ntsc>
					</rate>
					<timecode>
					<rate>
					<timebase>60</timebase>
					<ntsc>TRUE</ntsc>
					</rate>
					<string>00:00:00:00</string>
					<frame>0</frame>
					<displayformat>NDF</displayformat>
					</timecode>
					<media>
					<video>
					<samplecharacteristics>
					<rate>
					<timebase>60</timebase>
					<ntsc>TRUE</ntsc>
					</rate>
					<width>1080</width>
					<height>1920</height>
					<anamorphic>FALSE</anamorphic>
					<pixelaspectratio>square</pixelaspectratio>
					<fielddominance>none</fielddominance>
					</samplecharacteristics>
					</video>
					</media>
					</file>
					<filter>
					<effect>
					<name></name>
					<effectid>GraphicAndType</effectid>
					<effectcategory>graphic</effectcategory>
					<effecttype>filter</effecttype>
					<mediatype>video</mediatype>
					<pproBypass>false</pproBypass>
					<parameter authoringApp="PremierePro">
					<parameterid>1</parameterid>
					<name></name>
					<hash>025b1101-ead6-0ca2-1feb-caf3000001fc</hash>
					<value>5AEAAAAAAABEMyIRDAAAAAAABgAKAAQABgAAAGQAAAAAAF4ASAAQAAwARABAADwAOAAAAAAAAAAAADQAMwAsAAAAKAAkACAAAAAAAAAAAAAAAAAAHAAAAAAAGgAAAAAAAAAUAAAAAAAAAAAAAAAAAAAAAAAAAAgAAAAAABsABwBeAAAAAAAAAUAAAABQAAAAbAAAAAIAAAAAAAEAAQAAAAAAQEEAAMBAAABAQAAAyEIAAAABIAAAAAIAAAACAAAAAAA2QwCASkTw/v//9P7///j+//8S////AAAAAAEAAAAEAAAAEQAAAEhHUFNvZWlLYWt1cG9wdGFpAAAAAQAAAAwAAAAIAAwABAAIAAgAAAAIAAAAUAAAAA8AAADvvIEAAAAAAAAAAAAAAAAAAAA2ACQAAAAgABwAAAAAABsAFAAAAAAAAAAAAAAAAAAAAAAAAAAAABAAAAAAAAAADAAAAAgABAA2AAAAAgAAABwAAAAcAAAAHAAAAAAAIEEAAAABaAAAAE3PAEOw////tP///wEAAAAUAAAAEAAaAAgABwAMAAAAEAAUABAAAAAAAAABHAAAAAAAoEEcAAAAAgAAAAAACgAIAAUABgAHAAoAAAAADAD//P///wQABAAEAAAACAAIAAYABwAIAAAAAAAMAA==</value>
					</parameter>
					<parameter authoringApp="PremierePro">
					<parameterid>2</parameterid>
					<name></name>
					<IsTimeVarying>false</IsTimeVarying>
					<ParameterControlType>11</ParameterControlType>
					<LowerBound>false</LowerBound>
					<UpperBound>false</UpperBound>
					<value>-91445760000000000,false,0,0,0,0,0,0</value>
					</parameter>
					<parameter authoringApp="PremierePro">
					<parameterid>3</parameterid>
					<name></name>
					<IsTimeVarying>false</IsTimeVarying>
					<value>-91445760000000000,0.5:0.5,0,0,0,0,0,0,5,4,0,0,0,0</value>
					</parameter>
					<parameter authoringApp="PremierePro">
					<parameterid>4</parameterid>
					<name></name>
					<IsTimeVarying>false</IsTimeVarying>
					<ParameterControlType>2</ParameterControlType>
					<LowerBound>0</LowerBound>
					<UpperBound>4000</UpperBound>
					<value>-91445760000000000,100.,0,0,0,0,0,0</value>
					</parameter>
					<parameter authoringApp="PremierePro">
					<parameterid>8</parameterid>
					<name></name>
					<IsTimeVarying>false</IsTimeVarying>
					<ParameterControlType>2</ParameterControlType>
					<LowerBound>0</LowerBound>
					<UpperBound>100</UpperBound>
					<value>-91445760000000000,100.,0,0,0,0,0,0</value>
					</parameter>
					</effect>
					</filter>
					<logginginfo>
					<description></description>
					<scene></scene>
					<shottake></shottake>
					<lognote></lognote>
					<good></good>
					<originalvideofilename></originalvideofilename>
					<originalaudiofilename></originalaudiofilename>
					</logginginfo>
					<colorinfo>
					<lut></lut>
					<lut1></lut1>
					<asc_sop></asc_sop>
					<asc_sat></asc_sat>
					<lut2></lut2>
					</colorinfo>
					<labels>
					</labels>
					</clipitem>
					<clipitem frameBlend="FALSE" id="clipitem-488">
					<masterclipid>masterclip-408</masterclipid>
					<name></name>
					<enabled>TRUE</enabled>
					<duration>2582774</duration>
					<rate>
					
					                                    <timebase>60</timebase>
					                                    <ntsc>TRUE</ntsc>
					                                
					</rate>
					<start>3742</start>
					<end>3808</end>
					<in>3742</in>
					<out>3808</out>
					<pproTicksIn>914456774963789</pproTicksIn>
					<pproTicksOut>914677708529577</pproTicksOut>
					<alphatype>straight</alphatype>
					<pixelaspectratio>square</pixelaspectratio>
					<anamorphic>FALSE</anamorphic>
					<file id="file-407">
					<name></name>
					<mediaSource>GraphicAndType</mediaSource>
					<rate>
					<timebase>60</timebase>
					<ntsc>TRUE</ntsc>
					</rate>
					<timecode>
					<rate>
					<timebase>60</timebase>
					<ntsc>TRUE</ntsc>
					</rate>
					<string>00:00:00:00</string>
					<frame>0</frame>
					<displayformat>NDF</displayformat>
					</timecode>
					<media>
					<video>
					<samplecharacteristics>
					<rate>
					<timebase>60</timebase>
					<ntsc>TRUE</ntsc>
					</rate>
					<width>1080</width>
					<height>1920</height>
					<anamorphic>FALSE</anamorphic>
					<pixelaspectratio>square</pixelaspectratio>
					<fielddominance>none</fielddominance>
					</samplecharacteristics>
					</video>
					</media>
					</file>
					<filter>
					<effect>
					<name></name>
					<effectid>GraphicAndType</effectid>
					<effectcategory>graphic</effectcategory>
					<effecttype>filter</effecttype>
					<mediatype>video</mediatype>
					<pproBypass>false</pproBypass>
					<parameter authoringApp="PremierePro">
					<parameterid>1</parameterid>
					<name></name>
					<hash>025b1101-ead6-0ca2-1feb-caf3000001fc</hash>
					<value>5AEAAAAAAABEMyIRDAAAAAAABgAKAAQABgAAAGQAAAAAAF4ASAAQAAwARABAADwAOAAAAAAAAAAAADQAMwAsAAAAKAAkACAAAAAAAAAAAAAAAAAAHAAAAAAAGgAAAAAAAAAUAAAAAAAAAAAAAAAAAAAAAAAAAAgAAAAAABsABwBeAAAAAAAAAUAAAABQAAAAbAAAAAIAAAAAAAEAAQAAAAAAQEEAAMBAAABAQAAAyEIAAAABIAAAAAIAAAACAAAAAAA2QwCASkTw/v//9P7///j+//8S////AAAAAAEAAAAEAAAAEQAAAEhHUFNvZWlLYWt1cG9wdGFpAAAAAQAAAAwAAAAIAAwABAAIAAgAAAAIAAAAUAAAAA8AAADvvIEAAAAAAAAAAAAAAAAAAAA2ACQAAAAgABwAAAAAABsAFAAAAAAAAAAAAAAAAAAAAAAAAAAAABAAAAAAAAAADAAAAAgABAA2AAAAAgAAABwAAAAcAAAAHAAAAAAAIEEAAAABaAAAAE3PAEOw////tP///wEAAAAUAAAAEAAaAAgABwAMAAAAEAAUABAAAAAAAAABHAAAAAAAoEEcAAAAAgAAAAAACgAIAAUABgAHAAoAAAAADAD//P///wQABAAEAAAACAAIAAYABwAIAAAAAAAMAA==</value>
					</parameter>
					<parameter authoringApp="PremierePro">
					<parameterid>2</parameterid>
					<name></name>
					<IsTimeVarying>false</IsTimeVarying>
					<ParameterControlType>11</ParameterControlType>
					<LowerBound>false</LowerBound>
					<UpperBound>false</UpperBound>
					<value>-91445760000000000,false,0,0,0,0,0,0</value>
					</parameter>
					<parameter authoringApp="PremierePro">
					<parameterid>3</parameterid>
					<name></name>
					<IsTimeVarying>false</IsTimeVarying>
					<value>-91445760000000000,0.5:0.5,0,0,0,0,0,0,5,4,0,0,0,0</value>
					</parameter>
					<parameter authoringApp="PremierePro">
					<parameterid>4</parameterid>
					<name></name>
					<IsTimeVarying>false</IsTimeVarying>
					<ParameterControlType>2</ParameterControlType>
					<LowerBound>0</LowerBound>
					<UpperBound>4000</UpperBound>
					<value>-91445760000000000,100.,0,0,0,0,0,0</value>
					</parameter>
					<parameter authoringApp="PremierePro">
					<parameterid>8</parameterid>
					<name></name>
					<IsTimeVarying>false</IsTimeVarying>
					<ParameterControlType>2</ParameterControlType>
					<LowerBound>0</LowerBound>
					<UpperBound>100</UpperBound>
					<value>-91445760000000000,100.,0,0,0,0,0,0</value>
					</parameter>
					</effect>
					</filter>
					<logginginfo>
					<description></description>
					<scene></scene>
					<shottake></shottake>
					<lognote></lognote>
					<good></good>
					<originalvideofilename></originalvideofilename>
					<originalaudiofilename></originalaudiofilename>
					</logginginfo>
					<colorinfo>
					<lut></lut>
					<lut1></lut1>
					<asc_sop></asc_sop>
					<asc_sat></asc_sat>
					<lut2></lut2>
					</colorinfo>
					<labels>
					</labels>
					</clipitem>
					<clipitem frameBlend="FALSE" id="clipitem-525">
					<masterclipid>masterclip-445</masterclipid>
					<name></name>
					<enabled>TRUE</enabled>
					<duration>2582774</duration>
					<rate>
					
					                                    <timebase>60</timebase>
					                                    <ntsc>TRUE</ntsc>
					                                
					</rate>
					<start>4264</start>
					<end>4324</end>
					<in>4264</in>
					<out>4324</out>
					<pproTicksIn>914456774963789</pproTicksIn>
					<pproTicksOut>914677708529577</pproTicksOut>
					<alphatype>straight</alphatype>
					<pixelaspectratio>square</pixelaspectratio>
					<anamorphic>FALSE</anamorphic>
					<file id="file-444">
					<name></name>
					<mediaSource>GraphicAndType</mediaSource>
					<rate>
					<timebase>60</timebase>
					<ntsc>TRUE</ntsc>
					</rate>
					<timecode>
					<rate>
					<timebase>60</timebase>
					<ntsc>TRUE</ntsc>
					</rate>
					<string>00:00:00:00</string>
					<frame>0</frame>
					<displayformat>NDF</displayformat>
					</timecode>
					<media>
					<video>
					<samplecharacteristics>
					<rate>
					<timebase>60</timebase>
					<ntsc>TRUE</ntsc>
					</rate>
					<width>1080</width>
					<height>1920</height>
					<anamorphic>FALSE</anamorphic>
					<pixelaspectratio>square</pixelaspectratio>
					<fielddominance>none</fielddominance>
					</samplecharacteristics>
					</video>
					</media>
					</file>
					<filter>
					<effect>
					<name></name>
					<effectid>GraphicAndType</effectid>
					<effectcategory>graphic</effectcategory>
					<effecttype>filter</effecttype>
					<mediatype>video</mediatype>
					<pproBypass>false</pproBypass>
					<parameter authoringApp="PremierePro">
					<parameterid>1</parameterid>
					<name></name>
					<hash>025b1101-ead6-0ca2-1feb-caf3000001fc</hash>
					<value>5AEAAAAAAABEMyIRDAAAAAAABgAKAAQABgAAAGQAAAAAAF4ASAAQAAwARABAADwAOAAAAAAAAAAAADQAMwAsAAAAKAAkACAAAAAAAAAAAAAAAAAAHAAAAAAAGgAAAAAAAAAUAAAAAAAAAAAAAAAAAAAAAAAAAAgAAAAAABsABwBeAAAAAAAAAUAAAABQAAAAbAAAAAIAAAAAAAEAAQAAAAAAQEEAAMBAAABAQAAAyEIAAAABIAAAAAIAAAACAAAAAAA2QwCASkTw/v//9P7///j+//8S////AAAAAAEAAAAEAAAAEQAAAEhHUFNvZWlLYWt1cG9wdGFpAAAAAQAAAAwAAAAIAAwABAAIAAgAAAAIAAAAUAAAAA8AAADvvIEAAAAAAAAAAAAAAAAAAAA2ACQAAAAgABwAAAAAABsAFAAAAAAAAAAAAAAAAAAAAAAAAAAAABAAAAAAAAAADAAAAAgABAA2AAAAAgAAABwAAAAcAAAAHAAAAAAAIEEAAAABaAAAAE3PAEOw////tP///wEAAAAUAAAAEAAaAAgABwAMAAAAEAAUABAAAAAAAAABHAAAAAAAoEEcAAAAAgAAAAAACgAIAAUABgAHAAoAAAAADAD//P///wQABAAEAAAACAAIAAYABwAIAAAAAAAMAA==</value>
					</parameter>
					<parameter authoringApp="PremierePro">
					<parameterid>2</parameterid>
					<name></name>
					<IsTimeVarying>false</IsTimeVarying>
					<ParameterControlType>11</ParameterControlType>
					<LowerBound>false</LowerBound>
					<UpperBound>false</UpperBound>
					<value>-91445760000000000,false,0,0,0,0,0,0</value>
					</parameter>
					<parameter authoringApp="PremierePro">
					<parameterid>3</parameterid>
					<name></name>
					<IsTimeVarying>false</IsTimeVarying>
					<value>-91445760000000000,0.5:0.5,0,0,0,0,0,0,5,4,0,0,0,0</value>
					</parameter>
					<parameter authoringApp="PremierePro">
					<parameterid>4</parameterid>
					<name></name>
					<IsTimeVarying>false</IsTimeVarying>
					<ParameterControlType>2</ParameterControlType>
					<LowerBound>0</LowerBound>
					<UpperBound>4000</UpperBound>
					<value>-91445760000000000,100.,0,0,0,0,0,0</value>
					</parameter>
					<parameter authoringApp="PremierePro">
					<parameterid>8</parameterid>
					<name></name>
					<IsTimeVarying>false</IsTimeVarying>
					<ParameterControlType>2</ParameterControlType>
					<LowerBound>0</LowerBound>
					<UpperBound>100</UpperBound>
					<value>-91445760000000000,100.,0,0,0,0,0,0</value>
					</parameter>
					</effect>
					</filter>
					<logginginfo>
					<description></description>
					<scene></scene>
					<shottake></shottake>
					<lognote></lognote>
					<good></good>
					<originalvideofilename></originalvideofilename>
					<originalaudiofilename></originalaudiofilename>
					</logginginfo>
					<colorinfo>
					<lut></lut>
					<lut1></lut1>
					<asc_sop></asc_sop>
					<asc_sat></asc_sat>
					<lut2></lut2>
					</colorinfo>
					<labels>
					</labels>
					</clipitem>
					<clipitem frameBlend="FALSE" id="clipitem-540">
					<masterclipid>masterclip-460</masterclipid>
					<name></name>
					<enabled>TRUE</enabled>
					<duration>2582774</duration>
					<rate>
					
					                                    <timebase>60</timebase>
					                                    <ntsc>TRUE</ntsc>
					                                
					</rate>
					<start>4408</start>
					<end>4468</end>
					<in>4408</in>
					<out>4468</out>
					<pproTicksIn>914456774963789</pproTicksIn>
					<pproTicksOut>914677708529577</pproTicksOut>
					<alphatype>straight</alphatype>
					<pixelaspectratio>square</pixelaspectratio>
					<anamorphic>FALSE</anamorphic>
					<file id="file-459">
					<name></name>
					<mediaSource>GraphicAndType</mediaSource>
					<rate>
					<timebase>60</timebase>
					<ntsc>TRUE</ntsc>
					</rate>
					<timecode>
					<rate>
					<timebase>60</timebase>
					<ntsc>TRUE</ntsc>
					</rate>
					<string>00:00:00:00</string>
					<frame>0</frame>
					<displayformat>NDF</displayformat>
					</timecode>
					<media>
					<video>
					<samplecharacteristics>
					<rate>
					<timebase>60</timebase>
					<ntsc>TRUE</ntsc>
					</rate>
					<width>1080</width>
					<height>1920</height>
					<anamorphic>FALSE</anamorphic>
					<pixelaspectratio>square</pixelaspectratio>
					<fielddominance>none</fielddominance>
					</samplecharacteristics>
					</video>
					</media>
					</file>
					<filter>
					<effect>
					<name></name>
					<effectid>GraphicAndType</effectid>
					<effectcategory>graphic</effectcategory>
					<effecttype>filter</effecttype>
					<mediatype>video</mediatype>
					<pproBypass>false</pproBypass>
					<parameter authoringApp="PremierePro">
					<parameterid>1</parameterid>
					<name></name>
					<hash>025b1101-ead6-0ca2-1feb-caf3000001fc</hash>
					<value>5AEAAAAAAABEMyIRDAAAAAAABgAKAAQABgAAAGQAAAAAAF4ASAAQAAwARABAADwAOAAAAAAAAAAAADQAMwAsAAAAKAAkACAAAAAAAAAAAAAAAAAAHAAAAAAAGgAAAAAAAAAUAAAAAAAAAAAAAAAAAAAAAAAAAAgAAAAAABsABwBeAAAAAAAAAUAAAABQAAAAbAAAAAIAAAAAAAEAAQAAAAAAQEEAAMBAAABAQAAAyEIAAAABIAAAAAIAAAACAAAAAAA2QwCASkTw/v//9P7///j+//8S////AAAAAAEAAAAEAAAAEQAAAEhHUFNvZWlLYWt1cG9wdGFpAAAAAQAAAAwAAAAIAAwABAAIAAgAAAAIAAAAUAAAAA8AAADvvIEAAAAAAAAAAAAAAAAAAAA2ACQAAAAgABwAAAAAABsAFAAAAAAAAAAAAAAAAAAAAAAAAAAAABAAAAAAAAAADAAAAAgABAA2AAAAAgAAABwAAAAcAAAAHAAAAAAAIEEAAAABaAAAAE3PAEOw////tP///wEAAAAUAAAAEAAaAAgABwAMAAAAEAAUABAAAAAAAAABHAAAAAAAoEEcAAAAAgAAAAAACgAIAAUABgAHAAoAAAAADAD//P///wQABAAEAAAACAAIAAYABwAIAAAAAAAMAA==</value>
					</parameter>
					<parameter authoringApp="PremierePro">
					<parameterid>2</parameterid>
					<name></name>
					<IsTimeVarying>false</IsTimeVarying>
					<ParameterControlType>11</ParameterControlType>
					<LowerBound>false</LowerBound>
					<UpperBound>false</UpperBound>
					<value>-91445760000000000,false,0,0,0,0,0,0</value>
					</parameter>
					<parameter authoringApp="PremierePro">
					<parameterid>3</parameterid>
					<name></name>
					<IsTimeVarying>false</IsTimeVarying>
					<value>-91445760000000000,0.5:0.5,0,0,0,0,0,0,5,4,0,0,0,0</value>
					</parameter>
					<parameter authoringApp="PremierePro">
					<parameterid>4</parameterid>
					<name></name>
					<IsTimeVarying>false</IsTimeVarying>
					<ParameterControlType>2</ParameterControlType>
					<LowerBound>0</LowerBound>
					<UpperBound>4000</UpperBound>
					<value>-91445760000000000,100.,0,0,0,0,0,0</value>
					</parameter>
					<parameter authoringApp="PremierePro">
					<parameterid>8</parameterid>
					<name></name>
					<IsTimeVarying>false</IsTimeVarying>
					<ParameterControlType>2</ParameterControlType>
					<LowerBound>0</LowerBound>
					<UpperBound>100</UpperBound>
					<value>-91445760000000000,100.,0,0,0,0,0,0</value>
					</parameter>
					</effect>
					</filter>
					<logginginfo>
					<description></description>
					<scene></scene>
					<shottake></shottake>
					<lognote></lognote>
					<good></good>
					<originalvideofilename></originalvideofilename>
					<originalaudiofilename></originalaudiofilename>
					</logginginfo>
					<colorinfo>
					<lut></lut>
					<lut1></lut1>
					<asc_sop></asc_sop>
					<asc_sat></asc_sat>
					<lut2></lut2>
					</colorinfo>
					<labels>
					</labels>
					</clipitem>
					<clipitem frameBlend="FALSE" id="clipitem-551">
					<masterclipid>masterclip-471</masterclipid>
					<name></name>
					<enabled>TRUE</enabled>
					<duration>2582774</duration>
					<rate>
					
					                                    <timebase>60</timebase>
					                                    <ntsc>TRUE</ntsc>
					                                
					</rate>
					<start>4474</start>
					<end>4534</end>
					<in>4474</in>
					<out>4534</out>
					<pproTicksIn>914456774963789</pproTicksIn>
					<pproTicksOut>914677708529577</pproTicksOut>
					<alphatype>straight</alphatype>
					<pixelaspectratio>square</pixelaspectratio>
					<anamorphic>FALSE</anamorphic>
					<file id="file-470">
					<name></name>
					<mediaSource>GraphicAndType</mediaSource>
					<rate>
					<timebase>60</timebase>
					<ntsc>TRUE</ntsc>
					</rate>
					<timecode>
					<rate>
					<timebase>60</timebase>
					<ntsc>TRUE</ntsc>
					</rate>
					<string>00:00:00:00</string>
					<frame>0</frame>
					<displayformat>NDF</displayformat>
					</timecode>
					<media>
					<video>
					<samplecharacteristics>
					<rate>
					<timebase>60</timebase>
					<ntsc>TRUE</ntsc>
					</rate>
					<width>1080</width>
					<height>1920</height>
					<anamorphic>FALSE</anamorphic>
					<pixelaspectratio>square</pixelaspectratio>
					<fielddominance>none</fielddominance>
					</samplecharacteristics>
					</video>
					</media>
					</file>
					<filter>
					<effect>
					<name></name>
					<effectid>GraphicAndType</effectid>
					<effectcategory>graphic</effectcategory>
					<effecttype>filter</effecttype>
					<mediatype>video</mediatype>
					<pproBypass>false</pproBypass>
					<parameter authoringApp="PremierePro">
					<parameterid>1</parameterid>
					<name></name>
					<hash>025b1101-ead6-0ca2-1feb-caf3000001fc</hash>
					<value>5AEAAAAAAABEMyIRDAAAAAAABgAKAAQABgAAAGQAAAAAAF4ASAAQAAwARABAADwAOAAAAAAAAAAAADQAMwAsAAAAKAAkACAAAAAAAAAAAAAAAAAAHAAAAAAAGgAAAAAAAAAUAAAAAAAAAAAAAAAAAAAAAAAAAAgAAAAAABsABwBeAAAAAAAAAUAAAABQAAAAbAAAAAIAAAAAAAEAAQAAAAAAQEEAAMBAAABAQAAAyEIAAAABIAAAAAIAAAACAAAAAAA2QwCASkTw/v//9P7///j+//8S////AAAAAAEAAAAEAAAAEQAAAEhHUFNvZWlLYWt1cG9wdGFpAAAAAQAAAAwAAAAIAAwABAAIAAgAAAAIAAAAUAAAAA8AAADvvIEAAAAAAAAAAAAAAAAAAAA2ACQAAAAgABwAAAAAABsAFAAAAAAAAAAAAAAAAAAAAAAAAAAAABAAAAAAAAAADAAAAAgABAA2AAAAAgAAABwAAAAcAAAAHAAAAAAAIEEAAAABaAAAAE3PAEOw////tP///wEAAAAUAAAAEAAaAAgABwAMAAAAEAAUABAAAAAAAAABHAAAAAAAoEEcAAAAAgAAAAAACgAIAAUABgAHAAoAAAAADAD//P///wQABAAEAAAACAAIAAYABwAIAAAAAAAMAA==</value>
					</parameter>
					<parameter authoringApp="PremierePro">
					<parameterid>2</parameterid>
					<name></name>
					<IsTimeVarying>false</IsTimeVarying>
					<ParameterControlType>11</ParameterControlType>
					<LowerBound>false</LowerBound>
					<UpperBound>false</UpperBound>
					<value>-91445760000000000,false,0,0,0,0,0,0</value>
					</parameter>
					<parameter authoringApp="PremierePro">
					<parameterid>3</parameterid>
					<name></name>
					<IsTimeVarying>false</IsTimeVarying>
					<value>-91445760000000000,0.5:0.5,0,0,0,0,0,0,5,4,0,0,0,0</value>
					</parameter>
					<parameter authoringApp="PremierePro">
					<parameterid>4</parameterid>
					<name></name>
					<IsTimeVarying>false</IsTimeVarying>
					<ParameterControlType>2</ParameterControlType>
					<LowerBound>0</LowerBound>
					<UpperBound>4000</UpperBound>
					<value>-91445760000000000,100.,0,0,0,0,0,0</value>
					</parameter>
					<parameter authoringApp="PremierePro">
					<parameterid>8</parameterid>
					<name></name>
					<IsTimeVarying>false</IsTimeVarying>
					<ParameterControlType>2</ParameterControlType>
					<LowerBound>0</LowerBound>
					<UpperBound>100</UpperBound>
					<value>-91445760000000000,100.,0,0,0,0,0,0</value>
					</parameter>
					</effect>
					</filter>
					<logginginfo>
					<description></description>
					<scene></scene>
					<shottake></shottake>
					<lognote></lognote>
					<good></good>
					<originalvideofilename></originalvideofilename>
					<originalaudiofilename></originalaudiofilename>
					</logginginfo>
					<colorinfo>
					<lut></lut>
					<lut1></lut1>
					<asc_sop></asc_sop>
					<asc_sat></asc_sat>
					<lut2></lut2>
					</colorinfo>
					<labels>
					</labels>
					</clipitem>
					<clipitem frameBlend="FALSE" id="clipitem-585">
					<masterclipid>masterclip-505</masterclipid>
					<name></name>
					<enabled>TRUE</enabled>
					<duration>2582774</duration>
					<rate>
					
					                                    <timebase>60</timebase>
					                                    <ntsc>TRUE</ntsc>
					                                
					</rate>
					<start>4846</start>
					<end>4906</end>
					<in>4846</in>
					<out>4906</out>
					<pproTicksIn>914456774963789</pproTicksIn>
					<pproTicksOut>914677708529577</pproTicksOut>
					<alphatype>straight</alphatype>
					<pixelaspectratio>square</pixelaspectratio>
					<anamorphic>FALSE</anamorphic>
					<file id="file-504">
					<name></name>
					<mediaSource>GraphicAndType</mediaSource>
					<rate>
					<timebase>60</timebase>
					<ntsc>TRUE</ntsc>
					</rate>
					<timecode>
					<rate>
					<timebase>60</timebase>
					<ntsc>TRUE</ntsc>
					</rate>
					<string>00:00:00:00</string>
					<frame>0</frame>
					<displayformat>NDF</displayformat>
					</timecode>
					<media>
					<video>
					<samplecharacteristics>
					<rate>
					<timebase>60</timebase>
					<ntsc>TRUE</ntsc>
					</rate>
					<width>1080</width>
					<height>1920</height>
					<anamorphic>FALSE</anamorphic>
					<pixelaspectratio>square</pixelaspectratio>
					<fielddominance>none</fielddominance>
					</samplecharacteristics>
					</video>
					</media>
					</file>
					<filter>
					<effect>
					<name></name>
					<effectid>GraphicAndType</effectid>
					<effectcategory>graphic</effectcategory>
					<effecttype>filter</effecttype>
					<mediatype>video</mediatype>
					<pproBypass>false</pproBypass>
					<parameter authoringApp="PremierePro">
					<parameterid>1</parameterid>
					<name></name>
					<hash>025b1101-ead6-0ca2-1feb-caf3000001fc</hash>
					<value>5AEAAAAAAABEMyIRDAAAAAAABgAKAAQABgAAAGQAAAAAAF4ASAAQAAwARABAADwAOAAAAAAAAAAAADQAMwAsAAAAKAAkACAAAAAAAAAAAAAAAAAAHAAAAAAAGgAAAAAAAAAUAAAAAAAAAAAAAAAAAAAAAAAAAAgAAAAAABsABwBeAAAAAAAAAUAAAABQAAAAbAAAAAIAAAAAAAEAAQAAAAAAQEEAAMBAAABAQAAAyEIAAAABIAAAAAIAAAACAAAAAAA2QwCASkTw/v//9P7///j+//8S////AAAAAAEAAAAEAAAAEQAAAEhHUFNvZWlLYWt1cG9wdGFpAAAAAQAAAAwAAAAIAAwABAAIAAgAAAAIAAAAUAAAAA8AAADvvIEAAAAAAAAAAAAAAAAAAAA2ACQAAAAgABwAAAAAABsAFAAAAAAAAAAAAAAAAAAAAAAAAAAAABAAAAAAAAAADAAAAAgABAA2AAAAAgAAABwAAAAcAAAAHAAAAAAAIEEAAAABaAAAAE3PAEOw////tP///wEAAAAUAAAAEAAaAAgABwAMAAAAEAAUABAAAAAAAAABHAAAAAAAoEEcAAAAAgAAAAAACgAIAAUABgAHAAoAAAAADAD//P///wQABAAEAAAACAAIAAYABwAIAAAAAAAMAA==</value>
					</parameter>
					<parameter authoringApp="PremierePro">
					<parameterid>2</parameterid>
					<name></name>
					<IsTimeVarying>false</IsTimeVarying>
					<ParameterControlType>11</ParameterControlType>
					<LowerBound>false</LowerBound>
					<UpperBound>false</UpperBound>
					<value>-91445760000000000,false,0,0,0,0,0,0</value>
					</parameter>
					<parameter authoringApp="PremierePro">
					<parameterid>3</parameterid>
					<name></name>
					<IsTimeVarying>false</IsTimeVarying>
					<value>-91445760000000000,0.5:0.5,0,0,0,0,0,0,5,4,0,0,0,0</value>
					</parameter>
					<parameter authoringApp="PremierePro">
					<parameterid>4</parameterid>
					<name></name>
					<IsTimeVarying>false</IsTimeVarying>
					<ParameterControlType>2</ParameterControlType>
					<LowerBound>0</LowerBound>
					<UpperBound>4000</UpperBound>
					<value>-91445760000000000,100.,0,0,0,0,0,0</value>
					</parameter>
					<parameter authoringApp="PremierePro">
					<parameterid>8</parameterid>
					<name></name>
					<IsTimeVarying>false</IsTimeVarying>
					<ParameterControlType>2</ParameterControlType>
					<LowerBound>0</LowerBound>
					<UpperBound>100</UpperBound>
					<value>-91445760000000000,100.,0,0,0,0,0,0</value>
					</parameter>
					</effect>
					</filter>
					<logginginfo>
					<description></description>
					<scene></scene>
					<shottake></shottake>
					<lognote></lognote>
					<good></good>
					<originalvideofilename></originalvideofilename>
					<originalaudiofilename></originalaudiofilename>
					</logginginfo>
					<colorinfo>
					<lut></lut>
					<lut1></lut1>
					<asc_sop></asc_sop>
					<asc_sat></asc_sat>
					<lut2></lut2>
					</colorinfo>
					<labels>
					</labels>
					</clipitem>
					<clipitem frameBlend="FALSE" id="clipitem-612">
					<masterclipid>masterclip-532</masterclipid>
					<name></name>
					<enabled>TRUE</enabled>
					<duration>2582774</duration>
					<rate>
					
					                                    <timebase>60</timebase>
					                                    <ntsc>TRUE</ntsc>
					                                
					</rate>
					<start>5140</start>
					<end>5206</end>
					<in>5140</in>
					<out>5206</out>
					<pproTicksIn>914456774963789</pproTicksIn>
					<pproTicksOut>914677708529577</pproTicksOut>
					<alphatype>straight</alphatype>
					<pixelaspectratio>square</pixelaspectratio>
					<anamorphic>FALSE</anamorphic>
					<file id="file-531">
					<name></name>
					<mediaSource>GraphicAndType</mediaSource>
					<rate>
					<timebase>60</timebase>
					<ntsc>TRUE</ntsc>
					</rate>
					<timecode>
					<rate>
					<timebase>60</timebase>
					<ntsc>TRUE</ntsc>
					</rate>
					<string>00:00:00:00</string>
					<frame>0</frame>
					<displayformat>NDF</displayformat>
					</timecode>
					<media>
					<video>
					<samplecharacteristics>
					<rate>
					<timebase>60</timebase>
					<ntsc>TRUE</ntsc>
					</rate>
					<width>1080</width>
					<height>1920</height>
					<anamorphic>FALSE</anamorphic>
					<pixelaspectratio>square</pixelaspectratio>
					<fielddominance>none</fielddominance>
					</samplecharacteristics>
					</video>
					</media>
					</file>
					<filter>
					<effect>
					<name></name>
					<effectid>GraphicAndType</effectid>
					<effectcategory>graphic</effectcategory>
					<effecttype>filter</effecttype>
					<mediatype>video</mediatype>
					<pproBypass>false</pproBypass>
					<parameter authoringApp="PremierePro">
					<parameterid>1</parameterid>
					<name></name>
					<hash>025b1101-ead6-0ca2-1feb-caf3000001fc</hash>
					<value>5AEAAAAAAABEMyIRDAAAAAAABgAKAAQABgAAAGQAAAAAAF4ASAAQAAwARABAADwAOAAAAAAAAAAAADQAMwAsAAAAKAAkACAAAAAAAAAAAAAAAAAAHAAAAAAAGgAAAAAAAAAUAAAAAAAAAAAAAAAAAAAAAAAAAAgAAAAAABsABwBeAAAAAAAAAUAAAABQAAAAbAAAAAIAAAAAAAEAAQAAAAAAQEEAAMBAAABAQAAAyEIAAAABIAAAAAIAAAACAAAAAAA2QwCASkTw/v//9P7///j+//8S////AAAAAAEAAAAEAAAAEQAAAEhHUFNvZWlLYWt1cG9wdGFpAAAAAQAAAAwAAAAIAAwABAAIAAgAAAAIAAAAUAAAAA8AAADvvIEAAAAAAAAAAAAAAAAAAAA2ACQAAAAgABwAAAAAABsAFAAAAAAAAAAAAAAAAAAAAAAAAAAAABAAAAAAAAAADAAAAAgABAA2AAAAAgAAABwAAAAcAAAAHAAAAAAAIEEAAAABaAAAAE3PAEOw////tP///wEAAAAUAAAAEAAaAAgABwAMAAAAEAAUABAAAAAAAAABHAAAAAAAoEEcAAAAAgAAAAAACgAIAAUABgAHAAoAAAAADAD//P///wQABAAEAAAACAAIAAYABwAIAAAAAAAMAA==</value>
					</parameter>
					<parameter authoringApp="PremierePro">
					<parameterid>2</parameterid>
					<name></name>
					<IsTimeVarying>false</IsTimeVarying>
					<ParameterControlType>11</ParameterControlType>
					<LowerBound>false</LowerBound>
					<UpperBound>false</UpperBound>
					<value>-91445760000000000,false,0,0,0,0,0,0</value>
					</parameter>
					<parameter authoringApp="PremierePro">
					<parameterid>3</parameterid>
					<name></name>
					<IsTimeVarying>false</IsTimeVarying>
					<value>-91445760000000000,0.5:0.5,0,0,0,0,0,0,5,4,0,0,0,0</value>
					</parameter>
					<parameter authoringApp="PremierePro">
					<parameterid>4</parameterid>
					<name></name>
					<IsTimeVarying>false</IsTimeVarying>
					<ParameterControlType>2</ParameterControlType>
					<LowerBound>0</LowerBound>
					<UpperBound>4000</UpperBound>
					<value>-91445760000000000,100.,0,0,0,0,0,0</value>
					</parameter>
					<parameter authoringApp="PremierePro">
					<parameterid>8</parameterid>
					<name></name>
					<IsTimeVarying>false</IsTimeVarying>
					<ParameterControlType>2</ParameterControlType>
					<LowerBound>0</LowerBound>
					<UpperBound>100</UpperBound>
					<value>-91445760000000000,100.,0,0,0,0,0,0</value>
					</parameter>
					</effect>
					</filter>
					<logginginfo>
					<description></description>
					<scene></scene>
					<shottake></shottake>
					<lognote></lognote>
					<good></good>
					<originalvideofilename></originalvideofilename>
					<originalaudiofilename></originalaudiofilename>
					</logginginfo>
					<colorinfo>
					<lut></lut>
					<lut1></lut1>
					<asc_sop></asc_sop>
					<asc_sat></asc_sat>
					<lut2></lut2>
					</colorinfo>
					<labels>
					</labels>
					</clipitem>
					<clipitem id="clipitem-624"/>
					                        </track>
					                        <track TL.SQTrackShy="0" TL.SQTrackExpandedHeight="25" TL.SQTrackExpanded="0" MZ.TrackTargeted="0">
					<clipitem frameBlend="FALSE" id="clipitem-625">
					<masterclipid>masterclip-545</masterclipid>
					<name></name>
					<enabled>TRUE</enabled>
					<duration>2582774</duration>
					<rate>
					
					                                    <timebase>60</timebase>
					                                    <ntsc>TRUE</ntsc>
					                                
					</rate>
					<start>5296</start>
					<end>5362</end>
					<in>5296</in>
					<out>5362</out>
					<pproTicksIn>914456774963789</pproTicksIn>
					<pproTicksOut>914677708529577</pproTicksOut>
					<alphatype>straight</alphatype>
					<pixelaspectratio>square</pixelaspectratio>
					<anamorphic>FALSE</anamorphic>
					<file id="file-544">
					<name></name>
					<mediaSource>GraphicAndType</mediaSource>
					<rate>
					<timebase>60</timebase>
					<ntsc>TRUE</ntsc>
					</rate>
					<timecode>
					<rate>
					<timebase>60</timebase>
					<ntsc>TRUE</ntsc>
					</rate>
					<string>00:00:00:00</string>
					<frame>0</frame>
					<displayformat>NDF</displayformat>
					</timecode>
					<media>
					<video>
					<samplecharacteristics>
					<rate>
					<timebase>60</timebase>
					<ntsc>TRUE</ntsc>
					</rate>
					<width>1080</width>
					<height>1920</height>
					<anamorphic>FALSE</anamorphic>
					<pixelaspectratio>square</pixelaspectratio>
					<fielddominance>none</fielddominance>
					</samplecharacteristics>
					</video>
					</media>
					</file>
					<filter>
					<effect>
					<name></name>
					<effectid>GraphicAndType</effectid>
					<effectcategory>graphic</effectcategory>
					<effecttype>filter</effecttype>
					<mediatype>video</mediatype>
					<pproBypass>false</pproBypass>
					<parameter authoringApp="PremierePro">
					<parameterid>1</parameterid>
					<name></name>
					<hash>025b1101-ead6-0ca2-1feb-caf3000001fc</hash>
					<value>5AEAAAAAAABEMyIRDAAAAAAABgAKAAQABgAAAGQAAAAAAF4ASAAQAAwARABAADwAOAAAAAAAAAAAADQAMwAsAAAAKAAkACAAAAAAAAAAAAAAAAAAHAAAAAAAGgAAAAAAAAAUAAAAAAAAAAAAAAAAAAAAAAAAAAgAAAAAABsABwBeAAAAAAAAAUAAAABQAAAAbAAAAAIAAAAAAAEAAQAAAAAAQEEAAMBAAABAQAAAyEIAAAABIAAAAAIAAAACAAAAAAA2QwCASkTw/v//9P7///j+//8S////AAAAAAEAAAAEAAAAEQAAAEhHUFNvZWlLYWt1cG9wdGFpAAAAAQAAAAwAAAAIAAwABAAIAAgAAAAIAAAAUAAAAA8AAADvvIEAAAAAAAAAAAAAAAAAAAA2ACQAAAAgABwAAAAAABsAFAAAAAAAAAAAAAAAAAAAAAAAAAAAABAAAAAAAAAADAAAAAgABAA2AAAAAgAAABwAAAAcAAAAHAAAAAAAIEEAAAABaAAAAE3PAEOw////tP///wEAAAAUAAAAEAAaAAgABwAMAAAAEAAUABAAAAAAAAABHAAAAAAAoEEcAAAAAgAAAAAACgAIAAUABgAHAAoAAAAADAD//P///wQABAAEAAAACAAIAAYABwAIAAAAAAAMAA==</value>
					</parameter>
					<parameter authoringApp="PremierePro">
					<parameterid>2</parameterid>
					<name></name>
					<IsTimeVarying>false</IsTimeVarying>
					<ParameterControlType>11</ParameterControlType>
					<LowerBound>false</LowerBound>
					<UpperBound>false</UpperBound>
					<value>-91445760000000000,false,0,0,0,0,0,0</value>
					</parameter>
					<parameter authoringApp="PremierePro">
					<parameterid>3</parameterid>
					<name></name>
					<IsTimeVarying>false</IsTimeVarying>
					<value>-91445760000000000,0.5:0.5,0,0,0,0,0,0,5,4,0,0,0,0</value>
					</parameter>
					<parameter authoringApp="PremierePro">
					<parameterid>4</parameterid>
					<name></name>
					<IsTimeVarying>false</IsTimeVarying>
					<ParameterControlType>2</ParameterControlType>
					<LowerBound>0</LowerBound>
					<UpperBound>4000</UpperBound>
					<value>-91445760000000000,100.,0,0,0,0,0,0</value>
					</parameter>
					<parameter authoringApp="PremierePro">
					<parameterid>8</parameterid>
					<name></name>
					<IsTimeVarying>false</IsTimeVarying>
					<ParameterControlType>2</ParameterControlType>
					<LowerBound>0</LowerBound>
					<UpperBound>100</UpperBound>
					<value>-91445760000000000,100.,0,0,0,0,0,0</value>
					</parameter>
					</effect>
					</filter>
					<logginginfo>
					<description></description>
					<scene></scene>
					<shottake></shottake>
					<lognote></lognote>
					<good></good>
					<originalvideofilename></originalvideofilename>
					<originalaudiofilename></originalaudiofilename>
					</logginginfo>
					<colorinfo>
					<lut></lut>
					<lut1></lut1>
					<asc_sop></asc_sop>
					<asc_sat></asc_sat>
					<lut2></lut2>
					</colorinfo>
					<labels>
					</labels>
					</clipitem>
					<clipitem frameBlend="FALSE" id="clipitem-643">
					<masterclipid>masterclip-563</masterclipid>
					<name></name>
					<enabled>TRUE</enabled>
					<duration>2582774</duration>
					<rate>
					
					                                    <timebase>60</timebase>
					                                    <ntsc>TRUE</ntsc>
					                                
					</rate>
					<start>5542</start>
					<end>5602</end>
					<in>5542</in>
					<out>5602</out>
					<pproTicksIn>914456774963789</pproTicksIn>
					<pproTicksOut>914677708529577</pproTicksOut>
					<alphatype>straight</alphatype>
					<pixelaspectratio>square</pixelaspectratio>
					<anamorphic>FALSE</anamorphic>
					<file id="file-562">
					<name></name>
					<mediaSource>GraphicAndType</mediaSource>
					<rate>
					<timebase>60</timebase>
					<ntsc>TRUE</ntsc>
					</rate>
					<timecode>
					<rate>
					<timebase>60</timebase>
					<ntsc>TRUE</ntsc>
					</rate>
					<string>00:00:00:00</string>
					<frame>0</frame>
					<displayformat>NDF</displayformat>
					</timecode>
					<media>
					<video>
					<samplecharacteristics>
					<rate>
					<timebase>60</timebase>
					<ntsc>TRUE</ntsc>
					</rate>
					<width>1080</width>
					<height>1920</height>
					<anamorphic>FALSE</anamorphic>
					<pixelaspectratio>square</pixelaspectratio>
					<fielddominance>none</fielddominance>
					</samplecharacteristics>
					</video>
					</media>
					</file>
					<filter>
					<effect>
					<name></name>
					<effectid>GraphicAndType</effectid>
					<effectcategory>graphic</effectcategory>
					<effecttype>filter</effecttype>
					<mediatype>video</mediatype>
					<pproBypass>false</pproBypass>
					<parameter authoringApp="PremierePro">
					<parameterid>1</parameterid>
					<name></name>
					<hash>025b1101-ead6-0ca2-1feb-caf3000001fc</hash>
					<value>5AEAAAAAAABEMyIRDAAAAAAABgAKAAQABgAAAGQAAAAAAF4ASAAQAAwARABAADwAOAAAAAAAAAAAADQAMwAsAAAAKAAkACAAAAAAAAAAAAAAAAAAHAAAAAAAGgAAAAAAAAAUAAAAAAAAAAAAAAAAAAAAAAAAAAgAAAAAABsABwBeAAAAAAAAAUAAAABQAAAAbAAAAAIAAAAAAAEAAQAAAAAAQEEAAMBAAABAQAAAyEIAAAABIAAAAAIAAAACAAAAAAA2QwCASkTw/v//9P7///j+//8S////AAAAAAEAAAAEAAAAEQAAAEhHUFNvZWlLYWt1cG9wdGFpAAAAAQAAAAwAAAAIAAwABAAIAAgAAAAIAAAAUAAAAA8AAADvvIEAAAAAAAAAAAAAAAAAAAA2ACQAAAAgABwAAAAAABsAFAAAAAAAAAAAAAAAAAAAAAAAAAAAABAAAAAAAAAADAAAAAgABAA2AAAAAgAAABwAAAAcAAAAHAAAAAAAIEEAAAABaAAAAE3PAEOw////tP///wEAAAAUAAAAEAAaAAgABwAMAAAAEAAUABAAAAAAAAABHAAAAAAAoEEcAAAAAgAAAAAACgAIAAUABgAHAAoAAAAADAD//P///wQABAAEAAAACAAIAAYABwAIAAAAAAAMAA==</value>
					</parameter>
					<parameter authoringApp="PremierePro">
					<parameterid>2</parameterid>
					<name></name>
					<IsTimeVarying>false</IsTimeVarying>
					<ParameterControlType>11</ParameterControlType>
					<LowerBound>false</LowerBound>
					<UpperBound>false</UpperBound>
					<value>-91445760000000000,false,0,0,0,0,0,0</value>
					</parameter>
					<parameter authoringApp="PremierePro">
					<parameterid>3</parameterid>
					<name></name>
					<IsTimeVarying>false</IsTimeVarying>
					<value>-91445760000000000,0.5:0.5,0,0,0,0,0,0,5,4,0,0,0,0</value>
					</parameter>
					<parameter authoringApp="PremierePro">
					<parameterid>4</parameterid>
					<name></name>
					<IsTimeVarying>false</IsTimeVarying>
					<ParameterControlType>2</ParameterControlType>
					<LowerBound>0</LowerBound>
					<UpperBound>4000</UpperBound>
					<value>-91445760000000000,100.,0,0,0,0,0,0</value>
					</parameter>
					<parameter authoringApp="PremierePro">
					<parameterid>8</parameterid>
					<name></name>
					<IsTimeVarying>false</IsTimeVarying>
					<ParameterControlType>2</ParameterControlType>
					<LowerBound>0</LowerBound>
					<UpperBound>100</UpperBound>
					<value>-91445760000000000,100.,0,0,0,0,0,0</value>
					</parameter>
					</effect>
					</filter>
					<logginginfo>
					<description></description>
					<scene></scene>
					<shottake></shottake>
					<lognote></lognote>
					<good></good>
					<originalvideofilename></originalvideofilename>
					<originalaudiofilename></originalaudiofilename>
					</logginginfo>
					<colorinfo>
					<lut></lut>
					<lut1></lut1>
					<asc_sop></asc_sop>
					<asc_sat></asc_sat>
					<lut2></lut2>
					</colorinfo>
					<labels>
					</labels>
					</clipitem>
					<clipitem frameBlend="FALSE" id="clipitem-654">
					<masterclipid>masterclip-574</masterclipid>
					<name></name>
					<enabled>TRUE</enabled>
					<duration>2582774</duration>
					<rate>
					
					                                    <timebase>60</timebase>
					                                    <ntsc>TRUE</ntsc>
					                                
					</rate>
					<start>5602</start>
					<end>5662</end>
					<in>5602</in>
					<out>5662</out>
					<pproTicksIn>914456774963789</pproTicksIn>
					<pproTicksOut>914677708529577</pproTicksOut>
					<alphatype>straight</alphatype>
					<pixelaspectratio>square</pixelaspectratio>
					<anamorphic>FALSE</anamorphic>
					<file id="file-573">
					<name></name>
					<mediaSource>GraphicAndType</mediaSource>
					<rate>
					<timebase>60</timebase>
					<ntsc>TRUE</ntsc>
					</rate>
					<timecode>
					<rate>
					<timebase>60</timebase>
					<ntsc>TRUE</ntsc>
					</rate>
					<string>00:00:00:00</string>
					<frame>0</frame>
					<displayformat>NDF</displayformat>
					</timecode>
					<media>
					<video>
					<samplecharacteristics>
					<rate>
					<timebase>60</timebase>
					<ntsc>TRUE</ntsc>
					</rate>
					<width>1080</width>
					<height>1920</height>
					<anamorphic>FALSE</anamorphic>
					<pixelaspectratio>square</pixelaspectratio>
					<fielddominance>none</fielddominance>
					</samplecharacteristics>
					</video>
					</media>
					</file>
					<filter>
					<effect>
					<name></name>
					<effectid>GraphicAndType</effectid>
					<effectcategory>graphic</effectcategory>
					<effecttype>filter</effecttype>
					<mediatype>video</mediatype>
					<pproBypass>false</pproBypass>
					<parameter authoringApp="PremierePro">
					<parameterid>1</parameterid>
					<name></name>
					<hash>025b1101-ead6-0ca2-1feb-caf3000001fc</hash>
					<value>5AEAAAAAAABEMyIRDAAAAAAABgAKAAQABgAAAGQAAAAAAF4ASAAQAAwARABAADwAOAAAAAAAAAAAADQAMwAsAAAAKAAkACAAAAAAAAAAAAAAAAAAHAAAAAAAGgAAAAAAAAAUAAAAAAAAAAAAAAAAAAAAAAAAAAgAAAAAABsABwBeAAAAAAAAAUAAAABQAAAAbAAAAAIAAAAAAAEAAQAAAAAAQEEAAMBAAABAQAAAyEIAAAABIAAAAAIAAAACAAAAAAA2QwCASkTw/v//9P7///j+//8S////AAAAAAEAAAAEAAAAEQAAAEhHUFNvZWlLYWt1cG9wdGFpAAAAAQAAAAwAAAAIAAwABAAIAAgAAAAIAAAAUAAAAA8AAADvvIEAAAAAAAAAAAAAAAAAAAA2ACQAAAAgABwAAAAAABsAFAAAAAAAAAAAAAAAAAAAAAAAAAAAABAAAAAAAAAADAAAAAgABAA2AAAAAgAAABwAAAAcAAAAHAAAAAAAIEEAAAABaAAAAE3PAEOw////tP///wEAAAAUAAAAEAAaAAgABwAMAAAAEAAUABAAAAAAAAABHAAAAAAAoEEcAAAAAgAAAAAACgAIAAUABgAHAAoAAAAADAD//P///wQABAAEAAAACAAIAAYABwAIAAAAAAAMAA==</value>
					</parameter>
					<parameter authoringApp="PremierePro">
					<parameterid>2</parameterid>
					<name></name>
					<IsTimeVarying>false</IsTimeVarying>
					<ParameterControlType>11</ParameterControlType>
					<LowerBound>false</LowerBound>
					<UpperBound>false</UpperBound>
					<value>-91445760000000000,false,0,0,0,0,0,0</value>
					</parameter>
					<parameter authoringApp="PremierePro">
					<parameterid>3</parameterid>
					<name></name>
					<IsTimeVarying>false</IsTimeVarying>
					<value>-91445760000000000,0.5:0.5,0,0,0,0,0,0,5,4,0,0,0,0</value>
					</parameter>
					<parameter authoringApp="PremierePro">
					<parameterid>4</parameterid>
					<name></name>
					<IsTimeVarying>false</IsTimeVarying>
					<ParameterControlType>2</ParameterControlType>
					<LowerBound>0</LowerBound>
					<UpperBound>4000</UpperBound>
					<value>-91445760000000000,100.,0,0,0,0,0,0</value>
					</parameter>
					<parameter authoringApp="PremierePro">
					<parameterid>8</parameterid>
					<name></name>
					<IsTimeVarying>false</IsTimeVarying>
					<ParameterControlType>2</ParameterControlType>
					<LowerBound>0</LowerBound>
					<UpperBound>100</UpperBound>
					<value>-91445760000000000,100.,0,0,0,0,0,0</value>
					</parameter>
					</effect>
					</filter>
					<logginginfo>
					<description></description>
					<scene></scene>
					<shottake></shottake>
					<lognote></lognote>
					<good></good>
					<originalvideofilename></originalvideofilename>
					<originalaudiofilename></originalaudiofilename>
					</logginginfo>
					<colorinfo>
					<lut></lut>
					<lut1></lut1>
					<asc_sop></asc_sop>
					<asc_sat></asc_sat>
					<lut2></lut2>
					</colorinfo>
					<labels>
					</labels>
					</clipitem>
					<clipitem frameBlend="FALSE" id="clipitem-674">
					<masterclipid>masterclip-594</masterclipid>
					<name></name>
					<enabled>TRUE</enabled>
					<duration>2582774</duration>
					<rate>
					
					                                    <timebase>60</timebase>
					                                    <ntsc>TRUE</ntsc>
					                                
					</rate>
					<start>5806</start>
					<end>5872</end>
					<in>5806</in>
					<out>5872</out>
					<pproTicksIn>914456774963789</pproTicksIn>
					<pproTicksOut>914677708529577</pproTicksOut>
					<alphatype>straight</alphatype>
					<pixelaspectratio>square</pixelaspectratio>
					<anamorphic>FALSE</anamorphic>
					<file id="file-593">
					<name></name>
					<mediaSource>GraphicAndType</mediaSource>
					<rate>
					<timebase>60</timebase>
					<ntsc>TRUE</ntsc>
					</rate>
					<timecode>
					<rate>
					<timebase>60</timebase>
					<ntsc>TRUE</ntsc>
					</rate>
					<string>00:00:00:00</string>
					<frame>0</frame>
					<displayformat>NDF</displayformat>
					</timecode>
					<media>
					<video>
					<samplecharacteristics>
					<rate>
					<timebase>60</timebase>
					<ntsc>TRUE</ntsc>
					</rate>
					<width>1080</width>
					<height>1920</height>
					<anamorphic>FALSE</anamorphic>
					<pixelaspectratio>square</pixelaspectratio>
					<fielddominance>none</fielddominance>
					</samplecharacteristics>
					</video>
					</media>
					</file>
					<filter>
					<effect>
					<name></name>
					<effectid>GraphicAndType</effectid>
					<effectcategory>graphic</effectcategory>
					<effecttype>filter</effecttype>
					<mediatype>video</mediatype>
					<pproBypass>false</pproBypass>
					<parameter authoringApp="PremierePro">
					<parameterid>1</parameterid>
					<name></name>
					<hash>025b1101-ead6-0ca2-1feb-caf3000001fc</hash>
					<value>5AEAAAAAAABEMyIRDAAAAAAABgAKAAQABgAAAGQAAAAAAF4ASAAQAAwARABAADwAOAAAAAAAAAAAADQAMwAsAAAAKAAkACAAAAAAAAAAAAAAAAAAHAAAAAAAGgAAAAAAAAAUAAAAAAAAAAAAAAAAAAAAAAAAAAgAAAAAABsABwBeAAAAAAAAAUAAAABQAAAAbAAAAAIAAAAAAAEAAQAAAAAAQEEAAMBAAABAQAAAyEIAAAABIAAAAAIAAAACAAAAAAA2QwCASkTw/v//9P7///j+//8S////AAAAAAEAAAAEAAAAEQAAAEhHUFNvZWlLYWt1cG9wdGFpAAAAAQAAAAwAAAAIAAwABAAIAAgAAAAIAAAAUAAAAA8AAADvvIEAAAAAAAAAAAAAAAAAAAA2ACQAAAAgABwAAAAAABsAFAAAAAAAAAAAAAAAAAAAAAAAAAAAABAAAAAAAAAADAAAAAgABAA2AAAAAgAAABwAAAAcAAAAHAAAAAAAIEEAAAABaAAAAE3PAEOw////tP///wEAAAAUAAAAEAAaAAgABwAMAAAAEAAUABAAAAAAAAABHAAAAAAAoEEcAAAAAgAAAAAACgAIAAUABgAHAAoAAAAADAD//P///wQABAAEAAAACAAIAAYABwAIAAAAAAAMAA==</value>
					</parameter>
					<parameter authoringApp="PremierePro">
					<parameterid>2</parameterid>
					<name></name>
					<IsTimeVarying>false</IsTimeVarying>
					<ParameterControlType>11</ParameterControlType>
					<LowerBound>false</LowerBound>
					<UpperBound>false</UpperBound>
					<value>-91445760000000000,false,0,0,0,0,0,0</value>
					</parameter>
					<parameter authoringApp="PremierePro">
					<parameterid>3</parameterid>
					<name></name>
					<IsTimeVarying>false</IsTimeVarying>
					<value>-91445760000000000,0.5:0.5,0,0,0,0,0,0,5,4,0,0,0,0</value>
					</parameter>
					<parameter authoringApp="PremierePro">
					<parameterid>4</parameterid>
					<name></name>
					<IsTimeVarying>false</IsTimeVarying>
					<ParameterControlType>2</ParameterControlType>
					<LowerBound>0</LowerBound>
					<UpperBound>4000</UpperBound>
					<value>-91445760000000000,100.,0,0,0,0,0,0</value>
					</parameter>
					<parameter authoringApp="PremierePro">
					<parameterid>8</parameterid>
					<name></name>
					<IsTimeVarying>false</IsTimeVarying>
					<ParameterControlType>2</ParameterControlType>
					<LowerBound>0</LowerBound>
					<UpperBound>100</UpperBound>
					<value>-91445760000000000,100.,0,0,0,0,0,0</value>
					</parameter>
					</effect>
					</filter>
					<logginginfo>
					<description></description>
					<scene></scene>
					<shottake></shottake>
					<lognote></lognote>
					<good></good>
					<originalvideofilename></originalvideofilename>
					<originalaudiofilename></originalaudiofilename>
					</logginginfo>
					<colorinfo>
					<lut></lut>
					<lut1></lut1>
					<asc_sop></asc_sop>
					<asc_sat></asc_sat>
					<lut2></lut2>
					</colorinfo>
					<labels>
					</labels>
					</clipitem>
					<clipitem frameBlend="FALSE" id="clipitem-695">
					<masterclipid>masterclip-615</masterclipid>
					<name></name>
					<enabled>TRUE</enabled>
					<duration>2582774</duration>
					<rate>
					
					                                    <timebase>60</timebase>
					                                    <ntsc>TRUE</ntsc>
					                                
					</rate>
					<start>6034</start>
					<end>6094</end>
					<in>6034</in>
					<out>6094</out>
					<pproTicksIn>914456774963789</pproTicksIn>
					<pproTicksOut>914677708529577</pproTicksOut>
					<alphatype>straight</alphatype>
					<pixelaspectratio>square</pixelaspectratio>
					<anamorphic>FALSE</anamorphic>
					<file id="file-614">
					<name></name>
					<mediaSource>GraphicAndType</mediaSource>
					<rate>
					<timebase>60</timebase>
					<ntsc>TRUE</ntsc>
					</rate>
					<timecode>
					<rate>
					<timebase>60</timebase>
					<ntsc>TRUE</ntsc>
					</rate>
					<string>00:00:00:00</string>
					<frame>0</frame>
					<displayformat>NDF</displayformat>
					</timecode>
					<media>
					<video>
					<samplecharacteristics>
					<rate>
					<timebase>60</timebase>
					<ntsc>TRUE</ntsc>
					</rate>
					<width>1080</width>
					<height>1920</height>
					<anamorphic>FALSE</anamorphic>
					<pixelaspectratio>square</pixelaspectratio>
					<fielddominance>none</fielddominance>
					</samplecharacteristics>
					</video>
					</media>
					</file>
					<filter>
					<effect>
					<name></name>
					<effectid>GraphicAndType</effectid>
					<effectcategory>graphic</effectcategory>
					<effecttype>filter</effecttype>
					<mediatype>video</mediatype>
					<pproBypass>false</pproBypass>
					<parameter authoringApp="PremierePro">
					<parameterid>1</parameterid>
					<name></name>
					<hash>025b1101-ead6-0ca2-1feb-caf3000001fc</hash>
					<value>5AEAAAAAAABEMyIRDAAAAAAABgAKAAQABgAAAGQAAAAAAF4ASAAQAAwARABAADwAOAAAAAAAAAAAADQAMwAsAAAAKAAkACAAAAAAAAAAAAAAAAAAHAAAAAAAGgAAAAAAAAAUAAAAAAAAAAAAAAAAAAAAAAAAAAgAAAAAABsABwBeAAAAAAAAAUAAAABQAAAAbAAAAAIAAAAAAAEAAQAAAAAAQEEAAMBAAABAQAAAyEIAAAABIAAAAAIAAAACAAAAAAA2QwCASkTw/v//9P7///j+//8S////AAAAAAEAAAAEAAAAEQAAAEhHUFNvZWlLYWt1cG9wdGFpAAAAAQAAAAwAAAAIAAwABAAIAAgAAAAIAAAAUAAAAA8AAADvvIEAAAAAAAAAAAAAAAAAAAA2ACQAAAAgABwAAAAAABsAFAAAAAAAAAAAAAAAAAAAAAAAAAAAABAAAAAAAAAADAAAAAgABAA2AAAAAgAAABwAAAAcAAAAHAAAAAAAIEEAAAABaAAAAE3PAEOw////tP///wEAAAAUAAAAEAAaAAgABwAMAAAAEAAUABAAAAAAAAABHAAAAAAAoEEcAAAAAgAAAAAACgAIAAUABgAHAAoAAAAADAD//P///wQABAAEAAAACAAIAAYABwAIAAAAAAAMAA==</value>
					</parameter>
					<parameter authoringApp="PremierePro">
					<parameterid>2</parameterid>
					<name></name>
					<IsTimeVarying>false</IsTimeVarying>
					<ParameterControlType>11</ParameterControlType>
					<LowerBound>false</LowerBound>
					<UpperBound>false</UpperBound>
					<value>-91445760000000000,false,0,0,0,0,0,0</value>
					</parameter>
					<parameter authoringApp="PremierePro">
					<parameterid>3</parameterid>
					<name></name>
					<IsTimeVarying>false</IsTimeVarying>
					<value>-91445760000000000,0.5:0.5,0,0,0,0,0,0,5,4,0,0,0,0</value>
					</parameter>
					<parameter authoringApp="PremierePro">
					<parameterid>4</parameterid>
					<name></name>
					<IsTimeVarying>false</IsTimeVarying>
					<ParameterControlType>2</ParameterControlType>
					<LowerBound>0</LowerBound>
					<UpperBound>4000</UpperBound>
					<value>-91445760000000000,100.,0,0,0,0,0,0</value>
					</parameter>
					<parameter authoringApp="PremierePro">
					<parameterid>8</parameterid>
					<name></name>
					<IsTimeVarying>false</IsTimeVarying>
					<ParameterControlType>2</ParameterControlType>
					<LowerBound>0</LowerBound>
					<UpperBound>100</UpperBound>
					<value>-91445760000000000,100.,0,0,0,0,0,0</value>
					</parameter>
					</effect>
					</filter>
					<logginginfo>
					<description></description>
					<scene></scene>
					<shottake></shottake>
					<lognote></lognote>
					<good></good>
					<originalvideofilename></originalvideofilename>
					<originalaudiofilename></originalaudiofilename>
					</logginginfo>
					<colorinfo>
					<lut></lut>
					<lut1></lut1>
					<asc_sop></asc_sop>
					<asc_sat></asc_sat>
					<lut2></lut2>
					</colorinfo>
					<labels>
					</labels>
					</clipitem>
					<clipitem frameBlend="FALSE" id="clipitem-705">
					<masterclipid>masterclip-625</masterclipid>
					<name></name>
					<enabled>TRUE</enabled>
					<duration>2582774</duration>
					<rate>
					
					                                    <timebase>60</timebase>
					                                    <ntsc>TRUE</ntsc>
					                                
					</rate>
					<start>6130</start>
					<end>6190</end>
					<in>6130</in>
					<out>6190</out>
					<pproTicksIn>914456774963789</pproTicksIn>
					<pproTicksOut>914677708529577</pproTicksOut>
					<alphatype>straight</alphatype>
					<pixelaspectratio>square</pixelaspectratio>
					<anamorphic>FALSE</anamorphic>
					<file id="file-624">
					<name></name>
					<mediaSource>GraphicAndType</mediaSource>
					<rate>
					<timebase>60</timebase>
					<ntsc>TRUE</ntsc>
					</rate>
					<timecode>
					<rate>
					<timebase>60</timebase>
					<ntsc>TRUE</ntsc>
					</rate>
					<string>00:00:00:00</string>
					<frame>0</frame>
					<displayformat>NDF</displayformat>
					</timecode>
					<media>
					<video>
					<samplecharacteristics>
					<rate>
					<timebase>60</timebase>
					<ntsc>TRUE</ntsc>
					</rate>
					<width>1080</width>
					<height>1920</height>
					<anamorphic>FALSE</anamorphic>
					<pixelaspectratio>square</pixelaspectratio>
					<fielddominance>none</fielddominance>
					</samplecharacteristics>
					</video>
					</media>
					</file>
					<filter>
					<effect>
					<name></name>
					<effectid>GraphicAndType</effectid>
					<effectcategory>graphic</effectcategory>
					<effecttype>filter</effecttype>
					<mediatype>video</mediatype>
					<pproBypass>false</pproBypass>
					<parameter authoringApp="PremierePro">
					<parameterid>1</parameterid>
					<name></name>
					<hash>025b1101-ead6-0ca2-1feb-caf3000001fc</hash>
					<value>5AEAAAAAAABEMyIRDAAAAAAABgAKAAQABgAAAGQAAAAAAF4ASAAQAAwARABAADwAOAAAAAAAAAAAADQAMwAsAAAAKAAkACAAAAAAAAAAAAAAAAAAHAAAAAAAGgAAAAAAAAAUAAAAAAAAAAAAAAAAAAAAAAAAAAgAAAAAABsABwBeAAAAAAAAAUAAAABQAAAAbAAAAAIAAAAAAAEAAQAAAAAAQEEAAMBAAABAQAAAyEIAAAABIAAAAAIAAAACAAAAAAA2QwCASkTw/v//9P7///j+//8S////AAAAAAEAAAAEAAAAEQAAAEhHUFNvZWlLYWt1cG9wdGFpAAAAAQAAAAwAAAAIAAwABAAIAAgAAAAIAAAAUAAAAA8AAADvvIEAAAAAAAAAAAAAAAAAAAA2ACQAAAAgABwAAAAAABsAFAAAAAAAAAAAAAAAAAAAAAAAAAAAABAAAAAAAAAADAAAAAgABAA2AAAAAgAAABwAAAAcAAAAHAAAAAAAIEEAAAABaAAAAE3PAEOw////tP///wEAAAAUAAAAEAAaAAgABwAMAAAAEAAUABAAAAAAAAABHAAAAAAAoEEcAAAAAgAAAAAACgAIAAUABgAHAAoAAAAADAD//P///wQABAAEAAAACAAIAAYABwAIAAAAAAAMAA==</value>
					</parameter>
					<parameter authoringApp="PremierePro">
					<parameterid>2</parameterid>
					<name></name>
					<IsTimeVarying>false</IsTimeVarying>
					<ParameterControlType>11</ParameterControlType>
					<LowerBound>false</LowerBound>
					<UpperBound>false</UpperBound>
					<value>-91445760000000000,false,0,0,0,0,0,0</value>
					</parameter>
					<parameter authoringApp="PremierePro">
					<parameterid>3</parameterid>
					<name></name>
					<IsTimeVarying>false</IsTimeVarying>
					<value>-91445760000000000,0.5:0.5,0,0,0,0,0,0,5,4,0,0,0,0</value>
					</parameter>
					<parameter authoringApp="PremierePro">
					<parameterid>4</parameterid>
					<name></name>
					<IsTimeVarying>false</IsTimeVarying>
					<ParameterControlType>2</ParameterControlType>
					<LowerBound>0</LowerBound>
					<UpperBound>4000</UpperBound>
					<value>-91445760000000000,100.,0,0,0,0,0,0</value>
					</parameter>
					<parameter authoringApp="PremierePro">
					<parameterid>8</parameterid>
					<name></name>
					<IsTimeVarying>false</IsTimeVarying>
					<ParameterControlType>2</ParameterControlType>
					<LowerBound>0</LowerBound>
					<UpperBound>100</UpperBound>
					<value>-91445760000000000,100.,0,0,0,0,0,0</value>
					</parameter>
					</effect>
					</filter>
					<logginginfo>
					<description></description>
					<scene></scene>
					<shottake></shottake>
					<lognote></lognote>
					<good></good>
					<originalvideofilename></originalvideofilename>
					<originalaudiofilename></originalaudiofilename>
					</logginginfo>
					<colorinfo>
					<lut></lut>
					<lut1></lut1>
					<asc_sop></asc_sop>
					<asc_sat></asc_sat>
					<lut2></lut2>
					</colorinfo>
					<labels>
					</labels>
					</clipitem>
					<clipitem frameBlend="FALSE" id="clipitem-718">
					<masterclipid>masterclip-638</masterclipid>
					<name></name>
					<enabled>TRUE</enabled>
					<duration>2582774</duration>
					<rate>
					
					                                    <timebase>60</timebase>
					                                    <ntsc>TRUE</ntsc>
					                                
					</rate>
					<start>6238</start>
					<end>6304</end>
					<in>6238</in>
					<out>6304</out>
					<pproTicksIn>914456774963789</pproTicksIn>
					<pproTicksOut>914677708529577</pproTicksOut>
					<alphatype>straight</alphatype>
					<pixelaspectratio>square</pixelaspectratio>
					<anamorphic>FALSE</anamorphic>
					<file id="file-637">
					<name></name>
					<mediaSource>GraphicAndType</mediaSource>
					<rate>
					<timebase>60</timebase>
					<ntsc>TRUE</ntsc>
					</rate>
					<timecode>
					<rate>
					<timebase>60</timebase>
					<ntsc>TRUE</ntsc>
					</rate>
					<string>00:00:00:00</string>
					<frame>0</frame>
					<displayformat>NDF</displayformat>
					</timecode>
					<media>
					<video>
					<samplecharacteristics>
					<rate>
					<timebase>60</timebase>
					<ntsc>TRUE</ntsc>
					</rate>
					<width>1080</width>
					<height>1920</height>
					<anamorphic>FALSE</anamorphic>
					<pixelaspectratio>square</pixelaspectratio>
					<fielddominance>none</fielddominance>
					</samplecharacteristics>
					</video>
					</media>
					</file>
					<filter>
					<effect>
					<name></name>
					<effectid>GraphicAndType</effectid>
					<effectcategory>graphic</effectcategory>
					<effecttype>filter</effecttype>
					<mediatype>video</mediatype>
					<pproBypass>false</pproBypass>
					<parameter authoringApp="PremierePro">
					<parameterid>1</parameterid>
					<name></name>
					<hash>025b1101-ead6-0ca2-1feb-caf3000001fc</hash>
					<value>5AEAAAAAAABEMyIRDAAAAAAABgAKAAQABgAAAGQAAAAAAF4ASAAQAAwARABAADwAOAAAAAAAAAAAADQAMwAsAAAAKAAkACAAAAAAAAAAAAAAAAAAHAAAAAAAGgAAAAAAAAAUAAAAAAAAAAAAAAAAAAAAAAAAAAgAAAAAABsABwBeAAAAAAAAAUAAAABQAAAAbAAAAAIAAAAAAAEAAQAAAAAAQEEAAMBAAABAQAAAyEIAAAABIAAAAAIAAAACAAAAAAA2QwCASkTw/v//9P7///j+//8S////AAAAAAEAAAAEAAAAEQAAAEhHUFNvZWlLYWt1cG9wdGFpAAAAAQAAAAwAAAAIAAwABAAIAAgAAAAIAAAAUAAAAA8AAADvvIEAAAAAAAAAAAAAAAAAAAA2ACQAAAAgABwAAAAAABsAFAAAAAAAAAAAAAAAAAAAAAAAAAAAABAAAAAAAAAADAAAAAgABAA2AAAAAgAAABwAAAAcAAAAHAAAAAAAIEEAAAABaAAAAE3PAEOw////tP///wEAAAAUAAAAEAAaAAgABwAMAAAAEAAUABAAAAAAAAABHAAAAAAAoEEcAAAAAgAAAAAACgAIAAUABgAHAAoAAAAADAD//P///wQABAAEAAAACAAIAAYABwAIAAAAAAAMAA==</value>
					</parameter>
					<parameter authoringApp="PremierePro">
					<parameterid>2</parameterid>
					<name></name>
					<IsTimeVarying>false</IsTimeVarying>
					<ParameterControlType>11</ParameterControlType>
					<LowerBound>false</LowerBound>
					<UpperBound>false</UpperBound>
					<value>-91445760000000000,false,0,0,0,0,0,0</value>
					</parameter>
					<parameter authoringApp="PremierePro">
					<parameterid>3</parameterid>
					<name></name>
					<IsTimeVarying>false</IsTimeVarying>
					<value>-91445760000000000,0.5:0.5,0,0,0,0,0,0,5,4,0,0,0,0</value>
					</parameter>
					<parameter authoringApp="PremierePro">
					<parameterid>4</parameterid>
					<name></name>
					<IsTimeVarying>false</IsTimeVarying>
					<ParameterControlType>2</ParameterControlType>
					<LowerBound>0</LowerBound>
					<UpperBound>4000</UpperBound>
					<value>-91445760000000000,100.,0,0,0,0,0,0</value>
					</parameter>
					<parameter authoringApp="PremierePro">
					<parameterid>8</parameterid>
					<name></name>
					<IsTimeVarying>false</IsTimeVarying>
					<ParameterControlType>2</ParameterControlType>
					<LowerBound>0</LowerBound>
					<UpperBound>100</UpperBound>
					<value>-91445760000000000,100.,0,0,0,0,0,0</value>
					</parameter>
					</effect>
					</filter>
					<logginginfo>
					<description></description>
					<scene></scene>
					<shottake></shottake>
					<lognote></lognote>
					<good></good>
					<originalvideofilename></originalvideofilename>
					<originalaudiofilename></originalaudiofilename>
					</logginginfo>
					<colorinfo>
					<lut></lut>
					<lut1></lut1>
					<asc_sop></asc_sop>
					<asc_sat></asc_sat>
					<lut2></lut2>
					</colorinfo>
					<labels>
					</labels>
					</clipitem>
					<clipitem frameBlend="FALSE" id="clipitem-727">
					<masterclipid>masterclip-647</masterclipid>
					<name></name>
					<enabled>TRUE</enabled>
					<duration>2582774</duration>
					<rate>
					
					                                    <timebase>60</timebase>
					                                    <ntsc>TRUE</ntsc>
					                                
					</rate>
					<start>6322</start>
					<end>6382</end>
					<in>6322</in>
					<out>6382</out>
					<pproTicksIn>914456774963789</pproTicksIn>
					<pproTicksOut>914677708529577</pproTicksOut>
					<alphatype>straight</alphatype>
					<pixelaspectratio>square</pixelaspectratio>
					<anamorphic>FALSE</anamorphic>
					<file id="file-646">
					<name></name>
					<mediaSource>GraphicAndType</mediaSource>
					<rate>
					<timebase>60</timebase>
					<ntsc>TRUE</ntsc>
					</rate>
					<timecode>
					<rate>
					<timebase>60</timebase>
					<ntsc>TRUE</ntsc>
					</rate>
					<string>00:00:00:00</string>
					<frame>0</frame>
					<displayformat>NDF</displayformat>
					</timecode>
					<media>
					<video>
					<samplecharacteristics>
					<rate>
					<timebase>60</timebase>
					<ntsc>TRUE</ntsc>
					</rate>
					<width>1080</width>
					<height>1920</height>
					<anamorphic>FALSE</anamorphic>
					<pixelaspectratio>square</pixelaspectratio>
					<fielddominance>none</fielddominance>
					</samplecharacteristics>
					</video>
					</media>
					</file>
					<filter>
					<effect>
					<name></name>
					<effectid>GraphicAndType</effectid>
					<effectcategory>graphic</effectcategory>
					<effecttype>filter</effecttype>
					<mediatype>video</mediatype>
					<pproBypass>false</pproBypass>
					<parameter authoringApp="PremierePro">
					<parameterid>1</parameterid>
					<name></name>
					<hash>025b1101-ead6-0ca2-1feb-caf3000001fc</hash>
					<value>5AEAAAAAAABEMyIRDAAAAAAABgAKAAQABgAAAGQAAAAAAF4ASAAQAAwARABAADwAOAAAAAAAAAAAADQAMwAsAAAAKAAkACAAAAAAAAAAAAAAAAAAHAAAAAAAGgAAAAAAAAAUAAAAAAAAAAAAAAAAAAAAAAAAAAgAAAAAABsABwBeAAAAAAAAAUAAAABQAAAAbAAAAAIAAAAAAAEAAQAAAAAAQEEAAMBAAABAQAAAyEIAAAABIAAAAAIAAAACAAAAAAA2QwCASkTw/v//9P7///j+//8S////AAAAAAEAAAAEAAAAEQAAAEhHUFNvZWlLYWt1cG9wdGFpAAAAAQAAAAwAAAAIAAwABAAIAAgAAAAIAAAAUAAAAA8AAADvvIEAAAAAAAAAAAAAAAAAAAA2ACQAAAAgABwAAAAAABsAFAAAAAAAAAAAAAAAAAAAAAAAAAAAABAAAAAAAAAADAAAAAgABAA2AAAAAgAAABwAAAAcAAAAHAAAAAAAIEEAAAABaAAAAE3PAEOw////tP///wEAAAAUAAAAEAAaAAgABwAMAAAAEAAUABAAAAAAAAABHAAAAAAAoEEcAAAAAgAAAAAACgAIAAUABgAHAAoAAAAADAD//P///wQABAAEAAAACAAIAAYABwAIAAAAAAAMAA==</value>
					</parameter>
					<parameter authoringApp="PremierePro">
					<parameterid>2</parameterid>
					<name></name>
					<IsTimeVarying>false</IsTimeVarying>
					<ParameterControlType>11</ParameterControlType>
					<LowerBound>false</LowerBound>
					<UpperBound>false</UpperBound>
					<value>-91445760000000000,false,0,0,0,0,0,0</value>
					</parameter>
					<parameter authoringApp="PremierePro">
					<parameterid>3</parameterid>
					<name></name>
					<IsTimeVarying>false</IsTimeVarying>
					<value>-91445760000000000,0.5:0.5,0,0,0,0,0,0,5,4,0,0,0,0</value>
					</parameter>
					<parameter authoringApp="PremierePro">
					<parameterid>4</parameterid>
					<name></name>
					<IsTimeVarying>false</IsTimeVarying>
					<ParameterControlType>2</ParameterControlType>
					<LowerBound>0</LowerBound>
					<UpperBound>4000</UpperBound>
					<value>-91445760000000000,100.,0,0,0,0,0,0</value>
					</parameter>
					<parameter authoringApp="PremierePro">
					<parameterid>8</parameterid>
					<name></name>
					<IsTimeVarying>false</IsTimeVarying>
					<ParameterControlType>2</ParameterControlType>
					<LowerBound>0</LowerBound>
					<UpperBound>100</UpperBound>
					<value>-91445760000000000,100.,0,0,0,0,0,0</value>
					</parameter>
					</effect>
					</filter>
					<logginginfo>
					<description></description>
					<scene></scene>
					<shottake></shottake>
					<lognote></lognote>
					<good></good>
					<originalvideofilename></originalvideofilename>
					<originalaudiofilename></originalaudiofilename>
					</logginginfo>
					<colorinfo>
					<lut></lut>
					<lut1></lut1>
					<asc_sop></asc_sop>
					<asc_sat></asc_sat>
					<lut2></lut2>
					</colorinfo>
					<labels>
					</labels>
					</clipitem>
					<clipitem frameBlend="FALSE" id="clipitem-751">
					<masterclipid>masterclip-671</masterclipid>
					<name></name>
					<enabled>TRUE</enabled>
					<duration>2582774</duration>
					<rate>
					
					                                    <timebase>60</timebase>
					                                    <ntsc>TRUE</ntsc>
					                                
					</rate>
					<start>6580</start>
					<end>6646</end>
					<in>6580</in>
					<out>6646</out>
					<pproTicksIn>914456774963789</pproTicksIn>
					<pproTicksOut>914677708529577</pproTicksOut>
					<alphatype>straight</alphatype>
					<pixelaspectratio>square</pixelaspectratio>
					<anamorphic>FALSE</anamorphic>
					<file id="file-670">
					<name></name>
					<mediaSource>GraphicAndType</mediaSource>
					<rate>
					<timebase>60</timebase>
					<ntsc>TRUE</ntsc>
					</rate>
					<timecode>
					<rate>
					<timebase>60</timebase>
					<ntsc>TRUE</ntsc>
					</rate>
					<string>00:00:00:00</string>
					<frame>0</frame>
					<displayformat>NDF</displayformat>
					</timecode>
					<media>
					<video>
					<samplecharacteristics>
					<rate>
					<timebase>60</timebase>
					<ntsc>TRUE</ntsc>
					</rate>
					<width>1080</width>
					<height>1920</height>
					<anamorphic>FALSE</anamorphic>
					<pixelaspectratio>square</pixelaspectratio>
					<fielddominance>none</fielddominance>
					</samplecharacteristics>
					</video>
					</media>
					</file>
					<filter>
					<effect>
					<name></name>
					<effectid>GraphicAndType</effectid>
					<effectcategory>graphic</effectcategory>
					<effecttype>filter</effecttype>
					<mediatype>video</mediatype>
					<pproBypass>false</pproBypass>
					<parameter authoringApp="PremierePro">
					<parameterid>1</parameterid>
					<name></name>
					<hash>025b1101-ead6-0ca2-1feb-caf3000001fc</hash>
					<value>5AEAAAAAAABEMyIRDAAAAAAABgAKAAQABgAAAGQAAAAAAF4ASAAQAAwARABAADwAOAAAAAAAAAAAADQAMwAsAAAAKAAkACAAAAAAAAAAAAAAAAAAHAAAAAAAGgAAAAAAAAAUAAAAAAAAAAAAAAAAAAAAAAAAAAgAAAAAABsABwBeAAAAAAAAAUAAAABQAAAAbAAAAAIAAAAAAAEAAQAAAAAAQEEAAMBAAABAQAAAyEIAAAABIAAAAAIAAAACAAAAAAA2QwCASkTw/v//9P7///j+//8S////AAAAAAEAAAAEAAAAEQAAAEhHUFNvZWlLYWt1cG9wdGFpAAAAAQAAAAwAAAAIAAwABAAIAAgAAAAIAAAAUAAAAA8AAADvvIEAAAAAAAAAAAAAAAAAAAA2ACQAAAAgABwAAAAAABsAFAAAAAAAAAAAAAAAAAAAAAAAAAAAABAAAAAAAAAADAAAAAgABAA2AAAAAgAAABwAAAAcAAAAHAAAAAAAIEEAAAABaAAAAE3PAEOw////tP///wEAAAAUAAAAEAAaAAgABwAMAAAAEAAUABAAAAAAAAABHAAAAAAAoEEcAAAAAgAAAAAACgAIAAUABgAHAAoAAAAADAD//P///wQABAAEAAAACAAIAAYABwAIAAAAAAAMAA==</value>
					</parameter>
					<parameter authoringApp="PremierePro">
					<parameterid>2</parameterid>
					<name></name>
					<IsTimeVarying>false</IsTimeVarying>
					<ParameterControlType>11</ParameterControlType>
					<LowerBound>false</LowerBound>
					<UpperBound>false</UpperBound>
					<value>-91445760000000000,false,0,0,0,0,0,0</value>
					</parameter>
					<parameter authoringApp="PremierePro">
					<parameterid>3</parameterid>
					<name></name>
					<IsTimeVarying>false</IsTimeVarying>
					<value>-91445760000000000,0.5:0.5,0,0,0,0,0,0,5,4,0,0,0,0</value>
					</parameter>
					<parameter authoringApp="PremierePro">
					<parameterid>4</parameterid>
					<name></name>
					<IsTimeVarying>false</IsTimeVarying>
					<ParameterControlType>2</ParameterControlType>
					<LowerBound>0</LowerBound>
					<UpperBound>4000</UpperBound>
					<value>-91445760000000000,100.,0,0,0,0,0,0</value>
					</parameter>
					<parameter authoringApp="PremierePro">
					<parameterid>8</parameterid>
					<name></name>
					<IsTimeVarying>false</IsTimeVarying>
					<ParameterControlType>2</ParameterControlType>
					<LowerBound>0</LowerBound>
					<UpperBound>100</UpperBound>
					<value>-91445760000000000,100.,0,0,0,0,0,0</value>
					</parameter>
					</effect>
					</filter>
					<logginginfo>
					<description></description>
					<scene></scene>
					<shottake></shottake>
					<lognote></lognote>
					<good></good>
					<originalvideofilename></originalvideofilename>
					<originalaudiofilename></originalaudiofilename>
					</logginginfo>
					<colorinfo>
					<lut></lut>
					<lut1></lut1>
					<asc_sop></asc_sop>
					<asc_sat></asc_sat>
					<lut2></lut2>
					</colorinfo>
					<labels>
					</labels>
					</clipitem>
					<clipitem frameBlend="FALSE" id="clipitem-776">
					<masterclipid>masterclip-696</masterclipid>
					<name></name>
					<enabled>TRUE</enabled>
					<duration>2582774</duration>
					<rate>
					
					                                    <timebase>60</timebase>
					                                    <ntsc>TRUE</ntsc>
					                                
					</rate>
					<start>6922</start>
					<end>6988</end>
					<in>6922</in>
					<out>6988</out>
					<pproTicksIn>914456774963789</pproTicksIn>
					<pproTicksOut>914677708529577</pproTicksOut>
					<alphatype>straight</alphatype>
					<pixelaspectratio>square</pixelaspectratio>
					<anamorphic>FALSE</anamorphic>
					<file id="file-695">
					<name></name>
					<mediaSource>GraphicAndType</mediaSource>
					<rate>
					<timebase>60</timebase>
					<ntsc>TRUE</ntsc>
					</rate>
					<timecode>
					<rate>
					<timebase>60</timebase>
					<ntsc>TRUE</ntsc>
					</rate>
					<string>00:00:00:00</string>
					<frame>0</frame>
					<displayformat>NDF</displayformat>
					</timecode>
					<media>
					<video>
					<samplecharacteristics>
					<rate>
					<timebase>60</timebase>
					<ntsc>TRUE</ntsc>
					</rate>
					<width>1080</width>
					<height>1920</height>
					<anamorphic>FALSE</anamorphic>
					<pixelaspectratio>square</pixelaspectratio>
					<fielddominance>none</fielddominance>
					</samplecharacteristics>
					</video>
					</media>
					</file>
					<filter>
					<effect>
					<name></name>
					<effectid>GraphicAndType</effectid>
					<effectcategory>graphic</effectcategory>
					<effecttype>filter</effecttype>
					<mediatype>video</mediatype>
					<pproBypass>false</pproBypass>
					<parameter authoringApp="PremierePro">
					<parameterid>1</parameterid>
					<name></name>
					<hash>025b1101-ead6-0ca2-1feb-caf3000001fc</hash>
					<value>5AEAAAAAAABEMyIRDAAAAAAABgAKAAQABgAAAGQAAAAAAF4ASAAQAAwARABAADwAOAAAAAAAAAAAADQAMwAsAAAAKAAkACAAAAAAAAAAAAAAAAAAHAAAAAAAGgAAAAAAAAAUAAAAAAAAAAAAAAAAAAAAAAAAAAgAAAAAABsABwBeAAAAAAAAAUAAAABQAAAAbAAAAAIAAAAAAAEAAQAAAAAAQEEAAMBAAABAQAAAyEIAAAABIAAAAAIAAAACAAAAAAA2QwCASkTw/v//9P7///j+//8S////AAAAAAEAAAAEAAAAEQAAAEhHUFNvZWlLYWt1cG9wdGFpAAAAAQAAAAwAAAAIAAwABAAIAAgAAAAIAAAAUAAAAA8AAADvvIEAAAAAAAAAAAAAAAAAAAA2ACQAAAAgABwAAAAAABsAFAAAAAAAAAAAAAAAAAAAAAAAAAAAABAAAAAAAAAADAAAAAgABAA2AAAAAgAAABwAAAAcAAAAHAAAAAAAIEEAAAABaAAAAE3PAEOw////tP///wEAAAAUAAAAEAAaAAgABwAMAAAAEAAUABAAAAAAAAABHAAAAAAAoEEcAAAAAgAAAAAACgAIAAUABgAHAAoAAAAADAD//P///wQABAAEAAAACAAIAAYABwAIAAAAAAAMAA==</value>
					</parameter>
					<parameter authoringApp="PremierePro">
					<parameterid>2</parameterid>
					<name></name>
					<IsTimeVarying>false</IsTimeVarying>
					<ParameterControlType>11</ParameterControlType>
					<LowerBound>false</LowerBound>
					<UpperBound>false</UpperBound>
					<value>-91445760000000000,false,0,0,0,0,0,0</value>
					</parameter>
					<parameter authoringApp="PremierePro">
					<parameterid>3</parameterid>
					<name></name>
					<IsTimeVarying>false</IsTimeVarying>
					<value>-91445760000000000,0.5:0.5,0,0,0,0,0,0,5,4,0,0,0,0</value>
					</parameter>
					<parameter authoringApp="PremierePro">
					<parameterid>4</parameterid>
					<name></name>
					<IsTimeVarying>false</IsTimeVarying>
					<ParameterControlType>2</ParameterControlType>
					<LowerBound>0</LowerBound>
					<UpperBound>4000</UpperBound>
					<value>-91445760000000000,100.,0,0,0,0,0,0</value>
					</parameter>
					<parameter authoringApp="PremierePro">
					<parameterid>8</parameterid>
					<name></name>
					<IsTimeVarying>false</IsTimeVarying>
					<ParameterControlType>2</ParameterControlType>
					<LowerBound>0</LowerBound>
					<UpperBound>100</UpperBound>
					<value>-91445760000000000,100.,0,0,0,0,0,0</value>
					</parameter>
					</effect>
					</filter>
					<logginginfo>
					<description></description>
					<scene></scene>
					<shottake></shottake>
					<lognote></lognote>
					<good></good>
					<originalvideofilename></originalvideofilename>
					<originalaudiofilename></originalaudiofilename>
					</logginginfo>
					<colorinfo>
					<lut></lut>
					<lut1></lut1>
					<asc_sop></asc_sop>
					<asc_sat></asc_sat>
					<lut2></lut2>
					</colorinfo>
					<labels>
					</labels>
					</clipitem>
					<enabled>TRUE</enabled>
					<locked>FALSE</locked>
				</track>
				<track TL.SQTrackShy="0" TL.SQTrackExpandedHeight="25" TL.SQTrackExpanded="0" MZ.TrackTargeted="0">
					<clipitem frameBlend="FALSE" id="clipitem-174">
					<masterclipid>masterclip-94</masterclipid>
					<name></name>
					<enabled>TRUE</enabled>
					<duration>2582774</duration>
					<rate>
					
					                                    <timebase>60</timebase>
					                                    <ntsc>TRUE</ntsc>
					                                
					</rate>
					<start>593</start>
					<end>659</end>
					<in>593</in>
					<out>659</out>
					<pproTicksIn>914456774963789</pproTicksIn>
					<pproTicksOut>914677708529577</pproTicksOut>
					<alphatype>straight</alphatype>
					<pixelaspectratio>square</pixelaspectratio>
					<anamorphic>FALSE</anamorphic>
					<file id="file-93">
					<name></name>
					<mediaSource>GraphicAndType</mediaSource>
					<rate>
					<timebase>60</timebase>
					<ntsc>TRUE</ntsc>
					</rate>
					<timecode>
					<rate>
					<timebase>60</timebase>
					<ntsc>TRUE</ntsc>
					</rate>
					<string>00:00:00:00</string>
					<frame>0</frame>
					<displayformat>NDF</displayformat>
					</timecode>
					<media>
					<video>
					<samplecharacteristics>
					<rate>
					<timebase>60</timebase>
					<ntsc>TRUE</ntsc>
					</rate>
					<width>1080</width>
					<height>1920</height>
					<anamorphic>FALSE</anamorphic>
					<pixelaspectratio>square</pixelaspectratio>
					<fielddominance>none</fielddominance>
					</samplecharacteristics>
					</video>
					</media>
					</file>
					<filter>
					<effect>
					<name></name>
					<effectid>GraphicAndType</effectid>
					<effectcategory>graphic</effectcategory>
					<effecttype>filter</effecttype>
					<mediatype>video</mediatype>
					<pproBypass>false</pproBypass>
					<parameter authoringApp="PremierePro">
					<parameterid>1</parameterid>
					<name></name>
					<hash>025b1101-ead6-0ca2-1feb-caf3000001fc</hash>
					<value>5AEAAAAAAABEMyIRDAAAAAAABgAKAAQABgAAAGQAAAAAAF4ASAAQAAwARABAADwAOAAAAAAAAAAAADQAMwAsAAAAKAAkACAAAAAAAAAAAAAAAAAAHAAAAAAAGgAAAAAAAAAUAAAAAAAAAAAAAAAAAAAAAAAAAAgAAAAAABsABwBeAAAAAAAAAUAAAABQAAAAbAAAAAIAAAAAAAEAAQAAAAAAQEEAAMBAAABAQAAAyEIAAAABIAAAAAIAAAACAAAAAAA2QwCASkTw/v//9P7///j+//8S////AAAAAAEAAAAEAAAAEQAAAEhHUFNvZWlLYWt1cG9wdGFpAAAAAQAAAAwAAAAIAAwABAAIAAgAAAAIAAAAUAAAAA8AAADvvIEAAAAAAAAAAAAAAAAAAAA2ACQAAAAgABwAAAAAABsAFAAAAAAAAAAAAAAAAAAAAAAAAAAAABAAAAAAAAAADAAAAAgABAA2AAAAAgAAABwAAAAcAAAAHAAAAAAAIEEAAAABaAAAAE3PAEOw////tP///wEAAAAUAAAAEAAaAAgABwAMAAAAEAAUABAAAAAAAAABHAAAAAAAoEEcAAAAAgAAAAAACgAIAAUABgAHAAoAAAAADAD//P///wQABAAEAAAACAAIAAYABwAIAAAAAAAMAA==</value>
					</parameter>
					<parameter authoringApp="PremierePro">
					<parameterid>2</parameterid>
					<name></name>
					<IsTimeVarying>false</IsTimeVarying>
					<ParameterControlType>11</ParameterControlType>
					<LowerBound>false</LowerBound>
					<UpperBound>false</UpperBound>
					<value>-91445760000000000,false,0,0,0,0,0,0</value>
					</parameter>
					<parameter authoringApp="PremierePro">
					<parameterid>3</parameterid>
					<name></name>
					<IsTimeVarying>false</IsTimeVarying>
					<value>-91445760000000000,0.5:0.5,0,0,0,0,0,0,5,4,0,0,0,0</value>
					</parameter>
					<parameter authoringApp="PremierePro">
					<parameterid>4</parameterid>
					<name></name>
					<IsTimeVarying>false</IsTimeVarying>
					<ParameterControlType>2</ParameterControlType>
					<LowerBound>0</LowerBound>
					<UpperBound>4000</UpperBound>
					<value>-91445760000000000,100.,0,0,0,0,0,0</value>
					</parameter>
					<parameter authoringApp="PremierePro">
					<parameterid>8</parameterid>
					<name></name>
					<IsTimeVarying>false</IsTimeVarying>
					<ParameterControlType>2</ParameterControlType>
					<LowerBound>0</LowerBound>
					<UpperBound>100</UpperBound>
					<value>-91445760000000000,100.,0,0,0,0,0,0</value>
					</parameter>
					</effect>
					</filter>
					<logginginfo>
					<description></description>
					<scene></scene>
					<shottake></shottake>
					<lognote></lognote>
					<good></good>
					<originalvideofilename></originalvideofilename>
					<originalaudiofilename></originalaudiofilename>
					</logginginfo>
					<colorinfo>
					<lut></lut>
					<lut1></lut1>
					<asc_sop></asc_sop>
					<asc_sat></asc_sat>
					<lut2></lut2>
					</colorinfo>
					<labels>
					</labels>
					</clipitem>
					<clipitem frameBlend="FALSE" id="clipitem-185">
					<masterclipid>masterclip-105</masterclipid>
					<name></name>
					<enabled>TRUE</enabled>
					<duration>2582774</duration>
					<rate>
					
					                                    <timebase>60</timebase>
					                                    <ntsc>TRUE</ntsc>
					                                
					</rate>
					<start>677</start>
					<end>743</end>
					<in>677</in>
					<out>743</out>
					<pproTicksIn>914456774963789</pproTicksIn>
					<pproTicksOut>914677708529577</pproTicksOut>
					<alphatype>straight</alphatype>
					<pixelaspectratio>square</pixelaspectratio>
					<anamorphic>FALSE</anamorphic>
					<file id="file-104">
					<name></name>
					<mediaSource>GraphicAndType</mediaSource>
					<rate>
					<timebase>60</timebase>
					<ntsc>TRUE</ntsc>
					</rate>
					<timecode>
					<rate>
					<timebase>60</timebase>
					<ntsc>TRUE</ntsc>
					</rate>
					<string>00:00:00:00</string>
					<frame>0</frame>
					<displayformat>NDF</displayformat>
					</timecode>
					<media>
					<video>
					<samplecharacteristics>
					<rate>
					<timebase>60</timebase>
					<ntsc>TRUE</ntsc>
					</rate>
					<width>1080</width>
					<height>1920</height>
					<anamorphic>FALSE</anamorphic>
					<pixelaspectratio>square</pixelaspectratio>
					<fielddominance>none</fielddominance>
					</samplecharacteristics>
					</video>
					</media>
					</file>
					<filter>
					<effect>
					<name></name>
					<effectid>GraphicAndType</effectid>
					<effectcategory>graphic</effectcategory>
					<effecttype>filter</effecttype>
					<mediatype>video</mediatype>
					<pproBypass>false</pproBypass>
					<parameter authoringApp="PremierePro">
					<parameterid>1</parameterid>
					<name></name>
					<hash>025b1101-ead6-0ca2-1feb-caf3000001fc</hash>
					<value>5AEAAAAAAABEMyIRDAAAAAAABgAKAAQABgAAAGQAAAAAAF4ASAAQAAwARABAADwAOAAAAAAAAAAAADQAMwAsAAAAKAAkACAAAAAAAAAAAAAAAAAAHAAAAAAAGgAAAAAAAAAUAAAAAAAAAAAAAAAAAAAAAAAAAAgAAAAAABsABwBeAAAAAAAAAUAAAABQAAAAbAAAAAIAAAAAAAEAAQAAAAAAQEEAAMBAAABAQAAAyEIAAAABIAAAAAIAAAACAAAAAAA2QwCASkTw/v//9P7///j+//8S////AAAAAAEAAAAEAAAAEQAAAEhHUFNvZWlLYWt1cG9wdGFpAAAAAQAAAAwAAAAIAAwABAAIAAgAAAAIAAAAUAAAAA8AAADvvIEAAAAAAAAAAAAAAAAAAAA2ACQAAAAgABwAAAAAABsAFAAAAAAAAAAAAAAAAAAAAAAAAAAAABAAAAAAAAAADAAAAAgABAA2AAAAAgAAABwAAAAcAAAAHAAAAAAAIEEAAAABaAAAAE3PAEOw////tP///wEAAAAUAAAAEAAaAAgABwAMAAAAEAAUABAAAAAAAAABHAAAAAAAoEEcAAAAAgAAAAAACgAIAAUABgAHAAoAAAAADAD//P///wQABAAEAAAACAAIAAYABwAIAAAAAAAMAA==</value>
					</parameter>
					<parameter authoringApp="PremierePro">
					<parameterid>2</parameterid>
					<name></name>
					<IsTimeVarying>false</IsTimeVarying>
					<ParameterControlType>11</ParameterControlType>
					<LowerBound>false</LowerBound>
					<UpperBound>false</UpperBound>
					<value>-91445760000000000,false,0,0,0,0,0,0</value>
					</parameter>
					<parameter authoringApp="PremierePro">
					<parameterid>3</parameterid>
					<name></name>
					<IsTimeVarying>false</IsTimeVarying>
					<value>-91445760000000000,0.5:0.5,0,0,0,0,0,0,5,4,0,0,0,0</value>
					</parameter>
					<parameter authoringApp="PremierePro">
					<parameterid>4</parameterid>
					<name></name>
					<IsTimeVarying>false</IsTimeVarying>
					<ParameterControlType>2</ParameterControlType>
					<LowerBound>0</LowerBound>
					<UpperBound>4000</UpperBound>
					<value>-91445760000000000,100.,0,0,0,0,0,0</value>
					</parameter>
					<parameter authoringApp="PremierePro">
					<parameterid>8</parameterid>
					<name></name>
					<IsTimeVarying>false</IsTimeVarying>
					<ParameterControlType>2</ParameterControlType>
					<LowerBound>0</LowerBound>
					<UpperBound>100</UpperBound>
					<value>-91445760000000000,100.,0,0,0,0,0,0</value>
					</parameter>
					</effect>
					</filter>
					<logginginfo>
					<description></description>
					<scene></scene>
					<shottake></shottake>
					<lognote></lognote>
					<good></good>
					<originalvideofilename></originalvideofilename>
					<originalaudiofilename></originalaudiofilename>
					</logginginfo>
					<colorinfo>
					<lut></lut>
					<lut1></lut1>
					<asc_sop></asc_sop>
					<asc_sat></asc_sat>
					<lut2></lut2>
					</colorinfo>
					<labels>
					</labels>
					</clipitem>
					<clipitem id="clipitem-203"/>
					                        </track>
					                        <track TL.SQTrackShy="0" TL.SQTrackExpandedHeight="25" TL.SQTrackExpanded="0" MZ.TrackTargeted="0">
					<clipitem frameBlend="FALSE" id="clipitem-204">
					<masterclipid>masterclip-124</masterclipid>
					<name></name>
					<enabled>TRUE</enabled>
					<duration>2582774</duration>
					<rate>
					
					                                    <timebase>60</timebase>
					                                    <ntsc>TRUE</ntsc>
					                                
					</rate>
					<start>845</start>
					<end>911</end>
					<in>845</in>
					<out>911</out>
					<pproTicksIn>914456774963789</pproTicksIn>
					<pproTicksOut>914677708529577</pproTicksOut>
					<alphatype>straight</alphatype>
					<pixelaspectratio>square</pixelaspectratio>
					<anamorphic>FALSE</anamorphic>
					<file id="file-123">
					<name></name>
					<mediaSource>GraphicAndType</mediaSource>
					<rate>
					<timebase>60</timebase>
					<ntsc>TRUE</ntsc>
					</rate>
					<timecode>
					<rate>
					<timebase>60</timebase>
					<ntsc>TRUE</ntsc>
					</rate>
					<string>00:00:00:00</string>
					<frame>0</frame>
					<displayformat>NDF</displayformat>
					</timecode>
					<media>
					<video>
					<samplecharacteristics>
					<rate>
					<timebase>60</timebase>
					<ntsc>TRUE</ntsc>
					</rate>
					<width>1080</width>
					<height>1920</height>
					<anamorphic>FALSE</anamorphic>
					<pixelaspectratio>square</pixelaspectratio>
					<fielddominance>none</fielddominance>
					</samplecharacteristics>
					</video>
					</media>
					</file>
					<filter>
					<effect>
					<name></name>
					<effectid>GraphicAndType</effectid>
					<effectcategory>graphic</effectcategory>
					<effecttype>filter</effecttype>
					<mediatype>video</mediatype>
					<pproBypass>false</pproBypass>
					<parameter authoringApp="PremierePro">
					<parameterid>1</parameterid>
					<name></name>
					<hash>025b1101-ead6-0ca2-1feb-caf3000001fc</hash>
					<value>5AEAAAAAAABEMyIRDAAAAAAABgAKAAQABgAAAGQAAAAAAF4ASAAQAAwARABAADwAOAAAAAAAAAAAADQAMwAsAAAAKAAkACAAAAAAAAAAAAAAAAAAHAAAAAAAGgAAAAAAAAAUAAAAAAAAAAAAAAAAAAAAAAAAAAgAAAAAABsABwBeAAAAAAAAAUAAAABQAAAAbAAAAAIAAAAAAAEAAQAAAAAAQEEAAMBAAABAQAAAyEIAAAABIAAAAAIAAAACAAAAAAA2QwCASkTw/v//9P7///j+//8S////AAAAAAEAAAAEAAAAEQAAAEhHUFNvZWlLYWt1cG9wdGFpAAAAAQAAAAwAAAAIAAwABAAIAAgAAAAIAAAAUAAAAA8AAADvvIEAAAAAAAAAAAAAAAAAAAA2ACQAAAAgABwAAAAAABsAFAAAAAAAAAAAAAAAAAAAAAAAAAAAABAAAAAAAAAADAAAAAgABAA2AAAAAgAAABwAAAAcAAAAHAAAAAAAIEEAAAABaAAAAE3PAEOw////tP///wEAAAAUAAAAEAAaAAgABwAMAAAAEAAUABAAAAAAAAABHAAAAAAAoEEcAAAAAgAAAAAACgAIAAUABgAHAAoAAAAADAD//P///wQABAAEAAAACAAIAAYABwAIAAAAAAAMAA==</value>
					</parameter>
					<parameter authoringApp="PremierePro">
					<parameterid>2</parameterid>
					<name></name>
					<IsTimeVarying>false</IsTimeVarying>
					<ParameterControlType>11</ParameterControlType>
					<LowerBound>false</LowerBound>
					<UpperBound>false</UpperBound>
					<value>-91445760000000000,false,0,0,0,0,0,0</value>
					</parameter>
					<parameter authoringApp="PremierePro">
					<parameterid>3</parameterid>
					<name></name>
					<IsTimeVarying>false</IsTimeVarying>
					<value>-91445760000000000,0.5:0.5,0,0,0,0,0,0,5,4,0,0,0,0</value>
					</parameter>
					<parameter authoringApp="PremierePro">
					<parameterid>4</parameterid>
					<name></name>
					<IsTimeVarying>false</IsTimeVarying>
					<ParameterControlType>2</ParameterControlType>
					<LowerBound>0</LowerBound>
					<UpperBound>4000</UpperBound>
					<value>-91445760000000000,100.,0,0,0,0,0,0</value>
					</parameter>
					<parameter authoringApp="PremierePro">
					<parameterid>8</parameterid>
					<name></name>
					<IsTimeVarying>false</IsTimeVarying>
					<ParameterControlType>2</ParameterControlType>
					<LowerBound>0</LowerBound>
					<UpperBound>100</UpperBound>
					<value>-91445760000000000,100.,0,0,0,0,0,0</value>
					</parameter>
					</effect>
					</filter>
					<logginginfo>
					<description></description>
					<scene></scene>
					<shottake></shottake>
					<lognote></lognote>
					<good></good>
					<originalvideofilename></originalvideofilename>
					<originalaudiofilename></originalaudiofilename>
					</logginginfo>
					<colorinfo>
					<lut></lut>
					<lut1></lut1>
					<asc_sop></asc_sop>
					<asc_sat></asc_sat>
					<lut2></lut2>
					</colorinfo>
					<labels>
					</labels>
					</clipitem>
					<clipitem frameBlend="FALSE" id="clipitem-217">
					<masterclipid>masterclip-137</masterclipid>
					<name></name>
					<enabled>TRUE</enabled>
					<duration>2582774</duration>
					<rate>
					
					                                    <timebase>60</timebase>
					                                    <ntsc>TRUE</ntsc>
					                                
					</rate>
					<start>941</start>
					<end>1001</end>
					<in>941</in>
					<out>1001</out>
					<pproTicksIn>914456774963789</pproTicksIn>
					<pproTicksOut>914677708529577</pproTicksOut>
					<alphatype>straight</alphatype>
					<pixelaspectratio>square</pixelaspectratio>
					<anamorphic>FALSE</anamorphic>
					<file id="file-136">
					<name></name>
					<mediaSource>GraphicAndType</mediaSource>
					<rate>
					<timebase>60</timebase>
					<ntsc>TRUE</ntsc>
					</rate>
					<timecode>
					<rate>
					<timebase>60</timebase>
					<ntsc>TRUE</ntsc>
					</rate>
					<string>00:00:00:00</string>
					<frame>0</frame>
					<displayformat>NDF</displayformat>
					</timecode>
					<media>
					<video>
					<samplecharacteristics>
					<rate>
					<timebase>60</timebase>
					<ntsc>TRUE</ntsc>
					</rate>
					<width>1080</width>
					<height>1920</height>
					<anamorphic>FALSE</anamorphic>
					<pixelaspectratio>square</pixelaspectratio>
					<fielddominance>none</fielddominance>
					</samplecharacteristics>
					</video>
					</media>
					</file>
					<filter>
					<effect>
					<name></name>
					<effectid>GraphicAndType</effectid>
					<effectcategory>graphic</effectcategory>
					<effecttype>filter</effecttype>
					<mediatype>video</mediatype>
					<pproBypass>false</pproBypass>
					<parameter authoringApp="PremierePro">
					<parameterid>1</parameterid>
					<name></name>
					<hash>025b1101-ead6-0ca2-1feb-caf3000001fc</hash>
					<value>5AEAAAAAAABEMyIRDAAAAAAABgAKAAQABgAAAGQAAAAAAF4ASAAQAAwARABAADwAOAAAAAAAAAAAADQAMwAsAAAAKAAkACAAAAAAAAAAAAAAAAAAHAAAAAAAGgAAAAAAAAAUAAAAAAAAAAAAAAAAAAAAAAAAAAgAAAAAABsABwBeAAAAAAAAAUAAAABQAAAAbAAAAAIAAAAAAAEAAQAAAAAAQEEAAMBAAABAQAAAyEIAAAABIAAAAAIAAAACAAAAAAA2QwCASkTw/v//9P7///j+//8S////AAAAAAEAAAAEAAAAEQAAAEhHUFNvZWlLYWt1cG9wdGFpAAAAAQAAAAwAAAAIAAwABAAIAAgAAAAIAAAAUAAAAA8AAADvvIEAAAAAAAAAAAAAAAAAAAA2ACQAAAAgABwAAAAAABsAFAAAAAAAAAAAAAAAAAAAAAAAAAAAABAAAAAAAAAADAAAAAgABAA2AAAAAgAAABwAAAAcAAAAHAAAAAAAIEEAAAABaAAAAE3PAEOw////tP///wEAAAAUAAAAEAAaAAgABwAMAAAAEAAUABAAAAAAAAABHAAAAAAAoEEcAAAAAgAAAAAACgAIAAUABgAHAAoAAAAADAD//P///wQABAAEAAAACAAIAAYABwAIAAAAAAAMAA==</value>
					</parameter>
					<parameter authoringApp="PremierePro">
					<parameterid>2</parameterid>
					<name></name>
					<IsTimeVarying>false</IsTimeVarying>
					<ParameterControlType>11</ParameterControlType>
					<LowerBound>false</LowerBound>
					<UpperBound>false</UpperBound>
					<value>-91445760000000000,false,0,0,0,0,0,0</value>
					</parameter>
					<parameter authoringApp="PremierePro">
					<parameterid>3</parameterid>
					<name></name>
					<IsTimeVarying>false</IsTimeVarying>
					<value>-91445760000000000,0.5:0.5,0,0,0,0,0,0,5,4,0,0,0,0</value>
					</parameter>
					<parameter authoringApp="PremierePro">
					<parameterid>4</parameterid>
					<name></name>
					<IsTimeVarying>false</IsTimeVarying>
					<ParameterControlType>2</ParameterControlType>
					<LowerBound>0</LowerBound>
					<UpperBound>4000</UpperBound>
					<value>-91445760000000000,100.,0,0,0,0,0,0</value>
					</parameter>
					<parameter authoringApp="PremierePro">
					<parameterid>8</parameterid>
					<name></name>
					<IsTimeVarying>false</IsTimeVarying>
					<ParameterControlType>2</ParameterControlType>
					<LowerBound>0</LowerBound>
					<UpperBound>100</UpperBound>
					<value>-91445760000000000,100.,0,0,0,0,0,0</value>
					</parameter>
					</effect>
					</filter>
					<logginginfo>
					<description></description>
					<scene></scene>
					<shottake></shottake>
					<lognote></lognote>
					<good></good>
					<originalvideofilename></originalvideofilename>
					<originalaudiofilename></originalaudiofilename>
					</logginginfo>
					<colorinfo>
					<lut></lut>
					<lut1></lut1>
					<asc_sop></asc_sop>
					<asc_sat></asc_sat>
					<lut2></lut2>
					</colorinfo>
					<labels>
					</labels>
					</clipitem>
					<clipitem frameBlend="FALSE" id="clipitem-239">
					<masterclipid>masterclip-159</masterclipid>
					<name></name>
					<enabled>TRUE</enabled>
					<duration>2582774</duration>
					<rate>
					
					                                    <timebase>60</timebase>
					                                    <ntsc>TRUE</ntsc>
					                                
					</rate>
					<start>1073</start>
					<end>1133</end>
					<in>1073</in>
					<out>1133</out>
					<pproTicksIn>914456774963789</pproTicksIn>
					<pproTicksOut>914677708529577</pproTicksOut>
					<alphatype>straight</alphatype>
					<pixelaspectratio>square</pixelaspectratio>
					<anamorphic>FALSE</anamorphic>
					<file id="file-158">
					<name></name>
					<mediaSource>GraphicAndType</mediaSource>
					<rate>
					<timebase>60</timebase>
					<ntsc>TRUE</ntsc>
					</rate>
					<timecode>
					<rate>
					<timebase>60</timebase>
					<ntsc>TRUE</ntsc>
					</rate>
					<string>00:00:00:00</string>
					<frame>0</frame>
					<displayformat>NDF</displayformat>
					</timecode>
					<media>
					<video>
					<samplecharacteristics>
					<rate>
					<timebase>60</timebase>
					<ntsc>TRUE</ntsc>
					</rate>
					<width>1080</width>
					<height>1920</height>
					<anamorphic>FALSE</anamorphic>
					<pixelaspectratio>square</pixelaspectratio>
					<fielddominance>none</fielddominance>
					</samplecharacteristics>
					</video>
					</media>
					</file>
					<filter>
					<effect>
					<name></name>
					<effectid>GraphicAndType</effectid>
					<effectcategory>graphic</effectcategory>
					<effecttype>filter</effecttype>
					<mediatype>video</mediatype>
					<pproBypass>false</pproBypass>
					<parameter authoringApp="PremierePro">
					<parameterid>1</parameterid>
					<name></name>
					<hash>025b1101-ead6-0ca2-1feb-caf3000001fc</hash>
					<value>5AEAAAAAAABEMyIRDAAAAAAABgAKAAQABgAAAGQAAAAAAF4ASAAQAAwARABAADwAOAAAAAAAAAAAADQAMwAsAAAAKAAkACAAAAAAAAAAAAAAAAAAHAAAAAAAGgAAAAAAAAAUAAAAAAAAAAAAAAAAAAAAAAAAAAgAAAAAABsABwBeAAAAAAAAAUAAAABQAAAAbAAAAAIAAAAAAAEAAQAAAAAAQEEAAMBAAABAQAAAyEIAAAABIAAAAAIAAAACAAAAAAA2QwCASkTw/v//9P7///j+//8S////AAAAAAEAAAAEAAAAEQAAAEhHUFNvZWlLYWt1cG9wdGFpAAAAAQAAAAwAAAAIAAwABAAIAAgAAAAIAAAAUAAAAA8AAADvvIEAAAAAAAAAAAAAAAAAAAA2ACQAAAAgABwAAAAAABsAFAAAAAAAAAAAAAAAAAAAAAAAAAAAABAAAAAAAAAADAAAAAgABAA2AAAAAgAAABwAAAAcAAAAHAAAAAAAIEEAAAABaAAAAE3PAEOw////tP///wEAAAAUAAAAEAAaAAgABwAMAAAAEAAUABAAAAAAAAABHAAAAAAAoEEcAAAAAgAAAAAACgAIAAUABgAHAAoAAAAADAD//P///wQABAAEAAAACAAIAAYABwAIAAAAAAAMAA==</value>
					</parameter>
					<parameter authoringApp="PremierePro">
					<parameterid>2</parameterid>
					<name></name>
					<IsTimeVarying>false</IsTimeVarying>
					<ParameterControlType>11</ParameterControlType>
					<LowerBound>false</LowerBound>
					<UpperBound>false</UpperBound>
					<value>-91445760000000000,false,0,0,0,0,0,0</value>
					</parameter>
					<parameter authoringApp="PremierePro">
					<parameterid>3</parameterid>
					<name></name>
					<IsTimeVarying>false</IsTimeVarying>
					<value>-91445760000000000,0.5:0.5,0,0,0,0,0,0,5,4,0,0,0,0</value>
					</parameter>
					<parameter authoringApp="PremierePro">
					<parameterid>4</parameterid>
					<name></name>
					<IsTimeVarying>false</IsTimeVarying>
					<ParameterControlType>2</ParameterControlType>
					<LowerBound>0</LowerBound>
					<UpperBound>4000</UpperBound>
					<value>-91445760000000000,100.,0,0,0,0,0,0</value>
					</parameter>
					<parameter authoringApp="PremierePro">
					<parameterid>8</parameterid>
					<name></name>
					<IsTimeVarying>false</IsTimeVarying>
					<ParameterControlType>2</ParameterControlType>
					<LowerBound>0</LowerBound>
					<UpperBound>100</UpperBound>
					<value>-91445760000000000,100.,0,0,0,0,0,0</value>
					</parameter>
					</effect>
					</filter>
					<logginginfo>
					<description></description>
					<scene></scene>
					<shottake></shottake>
					<lognote></lognote>
					<good></good>
					<originalvideofilename></originalvideofilename>
					<originalaudiofilename></originalaudiofilename>
					</logginginfo>
					<colorinfo>
					<lut></lut>
					<lut1></lut1>
					<asc_sop></asc_sop>
					<asc_sat></asc_sat>
					<lut2></lut2>
					</colorinfo>
					<labels>
					</labels>
					</clipitem>
					<clipitem frameBlend="FALSE" id="clipitem-308">
					<masterclipid>masterclip-228</masterclipid>
					<name></name>
					<enabled>TRUE</enabled>
					<duration>2582774</duration>
					<rate>
					
					                                    <timebase>60</timebase>
					                                    <ntsc>TRUE</ntsc>
					                                
					</rate>
					<start>1781</start>
					<end>1841</end>
					<in>1781</in>
					<out>1841</out>
					<pproTicksIn>914456774963789</pproTicksIn>
					<pproTicksOut>914677708529577</pproTicksOut>
					<alphatype>straight</alphatype>
					<pixelaspectratio>square</pixelaspectratio>
					<anamorphic>FALSE</anamorphic>
					<file id="file-227">
					<name></name>
					<mediaSource>GraphicAndType</mediaSource>
					<rate>
					<timebase>60</timebase>
					<ntsc>TRUE</ntsc>
					</rate>
					<timecode>
					<rate>
					<timebase>60</timebase>
					<ntsc>TRUE</ntsc>
					</rate>
					<string>00:00:00:00</string>
					<frame>0</frame>
					<displayformat>NDF</displayformat>
					</timecode>
					<media>
					<video>
					<samplecharacteristics>
					<rate>
					<timebase>60</timebase>
					<ntsc>TRUE</ntsc>
					</rate>
					<width>1080</width>
					<height>1920</height>
					<anamorphic>FALSE</anamorphic>
					<pixelaspectratio>square</pixelaspectratio>
					<fielddominance>none</fielddominance>
					</samplecharacteristics>
					</video>
					</media>
					</file>
					<filter>
					<effect>
					<name></name>
					<effectid>GraphicAndType</effectid>
					<effectcategory>graphic</effectcategory>
					<effecttype>filter</effecttype>
					<mediatype>video</mediatype>
					<pproBypass>false</pproBypass>
					<parameter authoringApp="PremierePro">
					<parameterid>1</parameterid>
					<name></name>
					<hash>025b1101-ead6-0ca2-1feb-caf3000001fc</hash>
					<value>5AEAAAAAAABEMyIRDAAAAAAABgAKAAQABgAAAGQAAAAAAF4ASAAQAAwARABAADwAOAAAAAAAAAAAADQAMwAsAAAAKAAkACAAAAAAAAAAAAAAAAAAHAAAAAAAGgAAAAAAAAAUAAAAAAAAAAAAAAAAAAAAAAAAAAgAAAAAABsABwBeAAAAAAAAAUAAAABQAAAAbAAAAAIAAAAAAAEAAQAAAAAAQEEAAMBAAABAQAAAyEIAAAABIAAAAAIAAAACAAAAAAA2QwCASkTw/v//9P7///j+//8S////AAAAAAEAAAAEAAAAEQAAAEhHUFNvZWlLYWt1cG9wdGFpAAAAAQAAAAwAAAAIAAwABAAIAAgAAAAIAAAAUAAAAA8AAADvvIEAAAAAAAAAAAAAAAAAAAA2ACQAAAAgABwAAAAAABsAFAAAAAAAAAAAAAAAAAAAAAAAAAAAABAAAAAAAAAADAAAAAgABAA2AAAAAgAAABwAAAAcAAAAHAAAAAAAIEEAAAABaAAAAE3PAEOw////tP///wEAAAAUAAAAEAAaAAgABwAMAAAAEAAUABAAAAAAAAABHAAAAAAAoEEcAAAAAgAAAAAACgAIAAUABgAHAAoAAAAADAD//P///wQABAAEAAAACAAIAAYABwAIAAAAAAAMAA==</value>
					</parameter>
					<parameter authoringApp="PremierePro">
					<parameterid>2</parameterid>
					<name></name>
					<IsTimeVarying>false</IsTimeVarying>
					<ParameterControlType>11</ParameterControlType>
					<LowerBound>false</LowerBound>
					<UpperBound>false</UpperBound>
					<value>-91445760000000000,false,0,0,0,0,0,0</value>
					</parameter>
					<parameter authoringApp="PremierePro">
					<parameterid>3</parameterid>
					<name></name>
					<IsTimeVarying>false</IsTimeVarying>
					<value>-91445760000000000,0.5:0.5,0,0,0,0,0,0,5,4,0,0,0,0</value>
					</parameter>
					<parameter authoringApp="PremierePro">
					<parameterid>4</parameterid>
					<name></name>
					<IsTimeVarying>false</IsTimeVarying>
					<ParameterControlType>2</ParameterControlType>
					<LowerBound>0</LowerBound>
					<UpperBound>4000</UpperBound>
					<value>-91445760000000000,100.,0,0,0,0,0,0</value>
					</parameter>
					<parameter authoringApp="PremierePro">
					<parameterid>8</parameterid>
					<name></name>
					<IsTimeVarying>false</IsTimeVarying>
					<ParameterControlType>2</ParameterControlType>
					<LowerBound>0</LowerBound>
					<UpperBound>100</UpperBound>
					<value>-91445760000000000,100.,0,0,0,0,0,0</value>
					</parameter>
					</effect>
					</filter>
					<logginginfo>
					<description></description>
					<scene></scene>
					<shottake></shottake>
					<lognote></lognote>
					<good></good>
					<originalvideofilename></originalvideofilename>
					<originalaudiofilename></originalaudiofilename>
					</logginginfo>
					<colorinfo>
					<lut></lut>
					<lut1></lut1>
					<asc_sop></asc_sop>
					<asc_sat></asc_sat>
					<lut2></lut2>
					</colorinfo>
					<labels>
					</labels>
					</clipitem>
					<clipitem frameBlend="FALSE" id="clipitem-329">
					<masterclipid>masterclip-249</masterclipid>
					<name></name>
					<enabled>TRUE</enabled>
					<duration>2582774</duration>
					<rate>
					
					                                    <timebase>60</timebase>
					                                    <ntsc>TRUE</ntsc>
					                                
					</rate>
					<start>1949</start>
					<end>2009</end>
					<in>1949</in>
					<out>2009</out>
					<pproTicksIn>914456774963789</pproTicksIn>
					<pproTicksOut>914677708529577</pproTicksOut>
					<alphatype>straight</alphatype>
					<pixelaspectratio>square</pixelaspectratio>
					<anamorphic>FALSE</anamorphic>
					<file id="file-248">
					<name></name>
					<mediaSource>GraphicAndType</mediaSource>
					<rate>
					<timebase>60</timebase>
					<ntsc>TRUE</ntsc>
					</rate>
					<timecode>
					<rate>
					<timebase>60</timebase>
					<ntsc>TRUE</ntsc>
					</rate>
					<string>00:00:00:00</string>
					<frame>0</frame>
					<displayformat>NDF</displayformat>
					</timecode>
					<media>
					<video>
					<samplecharacteristics>
					<rate>
					<timebase>60</timebase>
					<ntsc>TRUE</ntsc>
					</rate>
					<width>1080</width>
					<height>1920</height>
					<anamorphic>FALSE</anamorphic>
					<pixelaspectratio>square</pixelaspectratio>
					<fielddominance>none</fielddominance>
					</samplecharacteristics>
					</video>
					</media>
					</file>
					<filter>
					<effect>
					<name></name>
					<effectid>GraphicAndType</effectid>
					<effectcategory>graphic</effectcategory>
					<effecttype>filter</effecttype>
					<mediatype>video</mediatype>
					<pproBypass>false</pproBypass>
					<parameter authoringApp="PremierePro">
					<parameterid>1</parameterid>
					<name></name>
					<hash>025b1101-ead6-0ca2-1feb-caf3000001fc</hash>
					<value>5AEAAAAAAABEMyIRDAAAAAAABgAKAAQABgAAAGQAAAAAAF4ASAAQAAwARABAADwAOAAAAAAAAAAAADQAMwAsAAAAKAAkACAAAAAAAAAAAAAAAAAAHAAAAAAAGgAAAAAAAAAUAAAAAAAAAAAAAAAAAAAAAAAAAAgAAAAAABsABwBeAAAAAAAAAUAAAABQAAAAbAAAAAIAAAAAAAEAAQAAAAAAQEEAAMBAAABAQAAAyEIAAAABIAAAAAIAAAACAAAAAAA2QwCASkTw/v//9P7///j+//8S////AAAAAAEAAAAEAAAAEQAAAEhHUFNvZWlLYWt1cG9wdGFpAAAAAQAAAAwAAAAIAAwABAAIAAgAAAAIAAAAUAAAAA8AAADvvIEAAAAAAAAAAAAAAAAAAAA2ACQAAAAgABwAAAAAABsAFAAAAAAAAAAAAAAAAAAAAAAAAAAAABAAAAAAAAAADAAAAAgABAA2AAAAAgAAABwAAAAcAAAAHAAAAAAAIEEAAAABaAAAAE3PAEOw////tP///wEAAAAUAAAAEAAaAAgABwAMAAAAEAAUABAAAAAAAAABHAAAAAAAoEEcAAAAAgAAAAAACgAIAAUABgAHAAoAAAAADAD//P///wQABAAEAAAACAAIAAYABwAIAAAAAAAMAA==</value>
					</parameter>
					<parameter authoringApp="PremierePro">
					<parameterid>2</parameterid>
					<name></name>
					<IsTimeVarying>false</IsTimeVarying>
					<ParameterControlType>11</ParameterControlType>
					<LowerBound>false</LowerBound>
					<UpperBound>false</UpperBound>
					<value>-91445760000000000,false,0,0,0,0,0,0</value>
					</parameter>
					<parameter authoringApp="PremierePro">
					<parameterid>3</parameterid>
					<name></name>
					<IsTimeVarying>false</IsTimeVarying>
					<value>-91445760000000000,0.5:0.5,0,0,0,0,0,0,5,4,0,0,0,0</value>
					</parameter>
					<parameter authoringApp="PremierePro">
					<parameterid>4</parameterid>
					<name></name>
					<IsTimeVarying>false</IsTimeVarying>
					<ParameterControlType>2</ParameterControlType>
					<LowerBound>0</LowerBound>
					<UpperBound>4000</UpperBound>
					<value>-91445760000000000,100.,0,0,0,0,0,0</value>
					</parameter>
					<parameter authoringApp="PremierePro">
					<parameterid>8</parameterid>
					<name></name>
					<IsTimeVarying>false</IsTimeVarying>
					<ParameterControlType>2</ParameterControlType>
					<LowerBound>0</LowerBound>
					<UpperBound>100</UpperBound>
					<value>-91445760000000000,100.,0,0,0,0,0,0</value>
					</parameter>
					</effect>
					</filter>
					<logginginfo>
					<description></description>
					<scene></scene>
					<shottake></shottake>
					<lognote></lognote>
					<good></good>
					<originalvideofilename></originalvideofilename>
					<originalaudiofilename></originalaudiofilename>
					</logginginfo>
					<colorinfo>
					<lut></lut>
					<lut1></lut1>
					<asc_sop></asc_sop>
					<asc_sat></asc_sat>
					<lut2></lut2>
					</colorinfo>
					<labels>
					</labels>
					</clipitem>
					<clipitem frameBlend="FALSE" id="clipitem-392">
					<masterclipid>masterclip-312</masterclipid>
					<name></name>
					<enabled>TRUE</enabled>
					<duration>2582774</duration>
					<rate>
					
					                                    <timebase>60</timebase>
					                                    <ntsc>TRUE</ntsc>
					                                
					</rate>
					<start>2783</start>
					<end>2843</end>
					<in>2783</in>
					<out>2843</out>
					<pproTicksIn>914456774963789</pproTicksIn>
					<pproTicksOut>914677708529577</pproTicksOut>
					<alphatype>straight</alphatype>
					<pixelaspectratio>square</pixelaspectratio>
					<anamorphic>FALSE</anamorphic>
					<file id="file-311">
					<name></name>
					<mediaSource>GraphicAndType</mediaSource>
					<rate>
					<timebase>60</timebase>
					<ntsc>TRUE</ntsc>
					</rate>
					<timecode>
					<rate>
					<timebase>60</timebase>
					<ntsc>TRUE</ntsc>
					</rate>
					<string>00:00:00:00</string>
					<frame>0</frame>
					<displayformat>NDF</displayformat>
					</timecode>
					<media>
					<video>
					<samplecharacteristics>
					<rate>
					<timebase>60</timebase>
					<ntsc>TRUE</ntsc>
					</rate>
					<width>1080</width>
					<height>1920</height>
					<anamorphic>FALSE</anamorphic>
					<pixelaspectratio>square</pixelaspectratio>
					<fielddominance>none</fielddominance>
					</samplecharacteristics>
					</video>
					</media>
					</file>
					<filter>
					<effect>
					<name></name>
					<effectid>GraphicAndType</effectid>
					<effectcategory>graphic</effectcategory>
					<effecttype>filter</effecttype>
					<mediatype>video</mediatype>
					<pproBypass>false</pproBypass>
					<parameter authoringApp="PremierePro">
					<parameterid>1</parameterid>
					<name></name>
					<hash>025b1101-ead6-0ca2-1feb-caf3000001fc</hash>
					<value>5AEAAAAAAABEMyIRDAAAAAAABgAKAAQABgAAAGQAAAAAAF4ASAAQAAwARABAADwAOAAAAAAAAAAAADQAMwAsAAAAKAAkACAAAAAAAAAAAAAAAAAAHAAAAAAAGgAAAAAAAAAUAAAAAAAAAAAAAAAAAAAAAAAAAAgAAAAAABsABwBeAAAAAAAAAUAAAABQAAAAbAAAAAIAAAAAAAEAAQAAAAAAQEEAAMBAAABAQAAAyEIAAAABIAAAAAIAAAACAAAAAAA2QwCASkTw/v//9P7///j+//8S////AAAAAAEAAAAEAAAAEQAAAEhHUFNvZWlLYWt1cG9wdGFpAAAAAQAAAAwAAAAIAAwABAAIAAgAAAAIAAAAUAAAAA8AAADvvIEAAAAAAAAAAAAAAAAAAAA2ACQAAAAgABwAAAAAABsAFAAAAAAAAAAAAAAAAAAAAAAAAAAAABAAAAAAAAAADAAAAAgABAA2AAAAAgAAABwAAAAcAAAAHAAAAAAAIEEAAAABaAAAAE3PAEOw////tP///wEAAAAUAAAAEAAaAAgABwAMAAAAEAAUABAAAAAAAAABHAAAAAAAoEEcAAAAAgAAAAAACgAIAAUABgAHAAoAAAAADAD//P///wQABAAEAAAACAAIAAYABwAIAAAAAAAMAA==</value>
					</parameter>
					<parameter authoringApp="PremierePro">
					<parameterid>2</parameterid>
					<name></name>
					<IsTimeVarying>false</IsTimeVarying>
					<ParameterControlType>11</ParameterControlType>
					<LowerBound>false</LowerBound>
					<UpperBound>false</UpperBound>
					<value>-91445760000000000,false,0,0,0,0,0,0</value>
					</parameter>
					<parameter authoringApp="PremierePro">
					<parameterid>3</parameterid>
					<name></name>
					<IsTimeVarying>false</IsTimeVarying>
					<value>-91445760000000000,0.5:0.5,0,0,0,0,0,0,5,4,0,0,0,0</value>
					</parameter>
					<parameter authoringApp="PremierePro">
					<parameterid>4</parameterid>
					<name></name>
					<IsTimeVarying>false</IsTimeVarying>
					<ParameterControlType>2</ParameterControlType>
					<LowerBound>0</LowerBound>
					<UpperBound>4000</UpperBound>
					<value>-91445760000000000,100.,0,0,0,0,0,0</value>
					</parameter>
					<parameter authoringApp="PremierePro">
					<parameterid>8</parameterid>
					<name></name>
					<IsTimeVarying>false</IsTimeVarying>
					<ParameterControlType>2</ParameterControlType>
					<LowerBound>0</LowerBound>
					<UpperBound>100</UpperBound>
					<value>-91445760000000000,100.,0,0,0,0,0,0</value>
					</parameter>
					</effect>
					</filter>
					<logginginfo>
					<description></description>
					<scene></scene>
					<shottake></shottake>
					<lognote></lognote>
					<good></good>
					<originalvideofilename></originalvideofilename>
					<originalaudiofilename></originalaudiofilename>
					</logginginfo>
					<colorinfo>
					<lut></lut>
					<lut1></lut1>
					<asc_sop></asc_sop>
					<asc_sat></asc_sat>
					<lut2></lut2>
					</colorinfo>
					<labels>
					</labels>
					</clipitem>
					<clipitem frameBlend="FALSE" id="clipitem-418">
					<masterclipid>masterclip-338</masterclipid>
					<name></name>
					<enabled>TRUE</enabled>
					<duration>2582774</duration>
					<rate>
					
					                                    <timebase>60</timebase>
					                                    <ntsc>TRUE</ntsc>
					                                
					</rate>
					<start>3041</start>
					<end>3101</end>
					<in>3041</in>
					<out>3101</out>
					<pproTicksIn>914456774963789</pproTicksIn>
					<pproTicksOut>914677708529577</pproTicksOut>
					<alphatype>straight</alphatype>
					<pixelaspectratio>square</pixelaspectratio>
					<anamorphic>FALSE</anamorphic>
					<file id="file-337">
					<name></name>
					<mediaSource>GraphicAndType</mediaSource>
					<rate>
					<timebase>60</timebase>
					<ntsc>TRUE</ntsc>
					</rate>
					<timecode>
					<rate>
					<timebase>60</timebase>
					<ntsc>TRUE</ntsc>
					</rate>
					<string>00:00:00:00</string>
					<frame>0</frame>
					<displayformat>NDF</displayformat>
					</timecode>
					<media>
					<video>
					<samplecharacteristics>
					<rate>
					<timebase>60</timebase>
					<ntsc>TRUE</ntsc>
					</rate>
					<width>1080</width>
					<height>1920</height>
					<anamorphic>FALSE</anamorphic>
					<pixelaspectratio>square</pixelaspectratio>
					<fielddominance>none</fielddominance>
					</samplecharacteristics>
					</video>
					</media>
					</file>
					<filter>
					<effect>
					<name></name>
					<effectid>GraphicAndType</effectid>
					<effectcategory>graphic</effectcategory>
					<effecttype>filter</effecttype>
					<mediatype>video</mediatype>
					<pproBypass>false</pproBypass>
					<parameter authoringApp="PremierePro">
					<parameterid>1</parameterid>
					<name></name>
					<hash>025b1101-ead6-0ca2-1feb-caf3000001fc</hash>
					<value>5AEAAAAAAABEMyIRDAAAAAAABgAKAAQABgAAAGQAAAAAAF4ASAAQAAwARABAADwAOAAAAAAAAAAAADQAMwAsAAAAKAAkACAAAAAAAAAAAAAAAAAAHAAAAAAAGgAAAAAAAAAUAAAAAAAAAAAAAAAAAAAAAAAAAAgAAAAAABsABwBeAAAAAAAAAUAAAABQAAAAbAAAAAIAAAAAAAEAAQAAAAAAQEEAAMBAAABAQAAAyEIAAAABIAAAAAIAAAACAAAAAAA2QwCASkTw/v//9P7///j+//8S////AAAAAAEAAAAEAAAAEQAAAEhHUFNvZWlLYWt1cG9wdGFpAAAAAQAAAAwAAAAIAAwABAAIAAgAAAAIAAAAUAAAAA8AAADvvIEAAAAAAAAAAAAAAAAAAAA2ACQAAAAgABwAAAAAABsAFAAAAAAAAAAAAAAAAAAAAAAAAAAAABAAAAAAAAAADAAAAAgABAA2AAAAAgAAABwAAAAcAAAAHAAAAAAAIEEAAAABaAAAAE3PAEOw////tP///wEAAAAUAAAAEAAaAAgABwAMAAAAEAAUABAAAAAAAAABHAAAAAAAoEEcAAAAAgAAAAAACgAIAAUABgAHAAoAAAAADAD//P///wQABAAEAAAACAAIAAYABwAIAAAAAAAMAA==</value>
					</parameter>
					<parameter authoringApp="PremierePro">
					<parameterid>2</parameterid>
					<name></name>
					<IsTimeVarying>false</IsTimeVarying>
					<ParameterControlType>11</ParameterControlType>
					<LowerBound>false</LowerBound>
					<UpperBound>false</UpperBound>
					<value>-91445760000000000,false,0,0,0,0,0,0</value>
					</parameter>
					<parameter authoringApp="PremierePro">
					<parameterid>3</parameterid>
					<name></name>
					<IsTimeVarying>false</IsTimeVarying>
					<value>-91445760000000000,0.5:0.5,0,0,0,0,0,0,5,4,0,0,0,0</value>
					</parameter>
					<parameter authoringApp="PremierePro">
					<parameterid>4</parameterid>
					<name></name>
					<IsTimeVarying>false</IsTimeVarying>
					<ParameterControlType>2</ParameterControlType>
					<LowerBound>0</LowerBound>
					<UpperBound>4000</UpperBound>
					<value>-91445760000000000,100.,0,0,0,0,0,0</value>
					</parameter>
					<parameter authoringApp="PremierePro">
					<parameterid>8</parameterid>
					<name></name>
					<IsTimeVarying>false</IsTimeVarying>
					<ParameterControlType>2</ParameterControlType>
					<LowerBound>0</LowerBound>
					<UpperBound>100</UpperBound>
					<value>-91445760000000000,100.,0,0,0,0,0,0</value>
					</parameter>
					</effect>
					</filter>
					<logginginfo>
					<description></description>
					<scene></scene>
					<shottake></shottake>
					<lognote></lognote>
					<good></good>
					<originalvideofilename></originalvideofilename>
					<originalaudiofilename></originalaudiofilename>
					</logginginfo>
					<colorinfo>
					<lut></lut>
					<lut1></lut1>
					<asc_sop></asc_sop>
					<asc_sat></asc_sat>
					<lut2></lut2>
					</colorinfo>
					<labels>
					</labels>
					</clipitem>
					<clipitem frameBlend="FALSE" id="clipitem-438">
					<masterclipid>masterclip-358</masterclipid>
					<name></name>
					<enabled>TRUE</enabled>
					<duration>2582774</duration>
					<rate>
					
					                                    <timebase>60</timebase>
					                                    <ntsc>TRUE</ntsc>
					                                
					</rate>
					<start>3233</start>
					<end>3293</end>
					<in>3233</in>
					<out>3293</out>
					<pproTicksIn>914456774963789</pproTicksIn>
					<pproTicksOut>914677708529577</pproTicksOut>
					<alphatype>straight</alphatype>
					<pixelaspectratio>square</pixelaspectratio>
					<anamorphic>FALSE</anamorphic>
					<file id="file-357">
					<name></name>
					<mediaSource>GraphicAndType</mediaSource>
					<rate>
					<timebase>60</timebase>
					<ntsc>TRUE</ntsc>
					</rate>
					<timecode>
					<rate>
					<timebase>60</timebase>
					<ntsc>TRUE</ntsc>
					</rate>
					<string>00:00:00:00</string>
					<frame>0</frame>
					<displayformat>NDF</displayformat>
					</timecode>
					<media>
					<video>
					<samplecharacteristics>
					<rate>
					<timebase>60</timebase>
					<ntsc>TRUE</ntsc>
					</rate>
					<width>1080</width>
					<height>1920</height>
					<anamorphic>FALSE</anamorphic>
					<pixelaspectratio>square</pixelaspectratio>
					<fielddominance>none</fielddominance>
					</samplecharacteristics>
					</video>
					</media>
					</file>
					<filter>
					<effect>
					<name></name>
					<effectid>GraphicAndType</effectid>
					<effectcategory>graphic</effectcategory>
					<effecttype>filter</effecttype>
					<mediatype>video</mediatype>
					<pproBypass>false</pproBypass>
					<parameter authoringApp="PremierePro">
					<parameterid>1</parameterid>
					<name></name>
					<hash>025b1101-ead6-0ca2-1feb-caf3000001fc</hash>
					<value>5AEAAAAAAABEMyIRDAAAAAAABgAKAAQABgAAAGQAAAAAAF4ASAAQAAwARABAADwAOAAAAAAAAAAAADQAMwAsAAAAKAAkACAAAAAAAAAAAAAAAAAAHAAAAAAAGgAAAAAAAAAUAAAAAAAAAAAAAAAAAAAAAAAAAAgAAAAAABsABwBeAAAAAAAAAUAAAABQAAAAbAAAAAIAAAAAAAEAAQAAAAAAQEEAAMBAAABAQAAAyEIAAAABIAAAAAIAAAACAAAAAAA2QwCASkTw/v//9P7///j+//8S////AAAAAAEAAAAEAAAAEQAAAEhHUFNvZWlLYWt1cG9wdGFpAAAAAQAAAAwAAAAIAAwABAAIAAgAAAAIAAAAUAAAAA8AAADvvIEAAAAAAAAAAAAAAAAAAAA2ACQAAAAgABwAAAAAABsAFAAAAAAAAAAAAAAAAAAAAAAAAAAAABAAAAAAAAAADAAAAAgABAA2AAAAAgAAABwAAAAcAAAAHAAAAAAAIEEAAAABaAAAAE3PAEOw////tP///wEAAAAUAAAAEAAaAAgABwAMAAAAEAAUABAAAAAAAAABHAAAAAAAoEEcAAAAAgAAAAAACgAIAAUABgAHAAoAAAAADAD//P///wQABAAEAAAACAAIAAYABwAIAAAAAAAMAA==</value>
					</parameter>
					<parameter authoringApp="PremierePro">
					<parameterid>2</parameterid>
					<name></name>
					<IsTimeVarying>false</IsTimeVarying>
					<ParameterControlType>11</ParameterControlType>
					<LowerBound>false</LowerBound>
					<UpperBound>false</UpperBound>
					<value>-91445760000000000,false,0,0,0,0,0,0</value>
					</parameter>
					<parameter authoringApp="PremierePro">
					<parameterid>3</parameterid>
					<name></name>
					<IsTimeVarying>false</IsTimeVarying>
					<value>-91445760000000000,0.5:0.5,0,0,0,0,0,0,5,4,0,0,0,0</value>
					</parameter>
					<parameter authoringApp="PremierePro">
					<parameterid>4</parameterid>
					<name></name>
					<IsTimeVarying>false</IsTimeVarying>
					<ParameterControlType>2</ParameterControlType>
					<LowerBound>0</LowerBound>
					<UpperBound>4000</UpperBound>
					<value>-91445760000000000,100.,0,0,0,0,0,0</value>
					</parameter>
					<parameter authoringApp="PremierePro">
					<parameterid>8</parameterid>
					<name></name>
					<IsTimeVarying>false</IsTimeVarying>
					<ParameterControlType>2</ParameterControlType>
					<LowerBound>0</LowerBound>
					<UpperBound>100</UpperBound>
					<value>-91445760000000000,100.,0,0,0,0,0,0</value>
					</parameter>
					</effect>
					</filter>
					<logginginfo>
					<description></description>
					<scene></scene>
					<shottake></shottake>
					<lognote></lognote>
					<good></good>
					<originalvideofilename></originalvideofilename>
					<originalaudiofilename></originalaudiofilename>
					</logginginfo>
					<colorinfo>
					<lut></lut>
					<lut1></lut1>
					<asc_sop></asc_sop>
					<asc_sat></asc_sat>
					<lut2></lut2>
					</colorinfo>
					<labels>
					</labels>
					</clipitem>
					<clipitem frameBlend="FALSE" id="clipitem-489">
					<masterclipid>masterclip-409</masterclipid>
					<name></name>
					<enabled>TRUE</enabled>
					<duration>2582774</duration>
					<rate>
					
					                                    <timebase>60</timebase>
					                                    <ntsc>TRUE</ntsc>
					                                
					</rate>
					<start>3748</start>
					<end>3814</end>
					<in>3748</in>
					<out>3814</out>
					<pproTicksIn>914456774963789</pproTicksIn>
					<pproTicksOut>914677708529577</pproTicksOut>
					<alphatype>straight</alphatype>
					<pixelaspectratio>square</pixelaspectratio>
					<anamorphic>FALSE</anamorphic>
					<file id="file-408">
					<name></name>
					<mediaSource>GraphicAndType</mediaSource>
					<rate>
					<timebase>60</timebase>
					<ntsc>TRUE</ntsc>
					</rate>
					<timecode>
					<rate>
					<timebase>60</timebase>
					<ntsc>TRUE</ntsc>
					</rate>
					<string>00:00:00:00</string>
					<frame>0</frame>
					<displayformat>NDF</displayformat>
					</timecode>
					<media>
					<video>
					<samplecharacteristics>
					<rate>
					<timebase>60</timebase>
					<ntsc>TRUE</ntsc>
					</rate>
					<width>1080</width>
					<height>1920</height>
					<anamorphic>FALSE</anamorphic>
					<pixelaspectratio>square</pixelaspectratio>
					<fielddominance>none</fielddominance>
					</samplecharacteristics>
					</video>
					</media>
					</file>
					<filter>
					<effect>
					<name></name>
					<effectid>GraphicAndType</effectid>
					<effectcategory>graphic</effectcategory>
					<effecttype>filter</effecttype>
					<mediatype>video</mediatype>
					<pproBypass>false</pproBypass>
					<parameter authoringApp="PremierePro">
					<parameterid>1</parameterid>
					<name></name>
					<hash>025b1101-ead6-0ca2-1feb-caf3000001fc</hash>
					<value>5AEAAAAAAABEMyIRDAAAAAAABgAKAAQABgAAAGQAAAAAAF4ASAAQAAwARABAADwAOAAAAAAAAAAAADQAMwAsAAAAKAAkACAAAAAAAAAAAAAAAAAAHAAAAAAAGgAAAAAAAAAUAAAAAAAAAAAAAAAAAAAAAAAAAAgAAAAAABsABwBeAAAAAAAAAUAAAABQAAAAbAAAAAIAAAAAAAEAAQAAAAAAQEEAAMBAAABAQAAAyEIAAAABIAAAAAIAAAACAAAAAAA2QwCASkTw/v//9P7///j+//8S////AAAAAAEAAAAEAAAAEQAAAEhHUFNvZWlLYWt1cG9wdGFpAAAAAQAAAAwAAAAIAAwABAAIAAgAAAAIAAAAUAAAAA8AAADvvIEAAAAAAAAAAAAAAAAAAAA2ACQAAAAgABwAAAAAABsAFAAAAAAAAAAAAAAAAAAAAAAAAAAAABAAAAAAAAAADAAAAAgABAA2AAAAAgAAABwAAAAcAAAAHAAAAAAAIEEAAAABaAAAAE3PAEOw////tP///wEAAAAUAAAAEAAaAAgABwAMAAAAEAAUABAAAAAAAAABHAAAAAAAoEEcAAAAAgAAAAAACgAIAAUABgAHAAoAAAAADAD//P///wQABAAEAAAACAAIAAYABwAIAAAAAAAMAA==</value>
					</parameter>
					<parameter authoringApp="PremierePro">
					<parameterid>2</parameterid>
					<name></name>
					<IsTimeVarying>false</IsTimeVarying>
					<ParameterControlType>11</ParameterControlType>
					<LowerBound>false</LowerBound>
					<UpperBound>false</UpperBound>
					<value>-91445760000000000,false,0,0,0,0,0,0</value>
					</parameter>
					<parameter authoringApp="PremierePro">
					<parameterid>3</parameterid>
					<name></name>
					<IsTimeVarying>false</IsTimeVarying>
					<value>-91445760000000000,0.5:0.5,0,0,0,0,0,0,5,4,0,0,0,0</value>
					</parameter>
					<parameter authoringApp="PremierePro">
					<parameterid>4</parameterid>
					<name></name>
					<IsTimeVarying>false</IsTimeVarying>
					<ParameterControlType>2</ParameterControlType>
					<LowerBound>0</LowerBound>
					<UpperBound>4000</UpperBound>
					<value>-91445760000000000,100.,0,0,0,0,0,0</value>
					</parameter>
					<parameter authoringApp="PremierePro">
					<parameterid>8</parameterid>
					<name></name>
					<IsTimeVarying>false</IsTimeVarying>
					<ParameterControlType>2</ParameterControlType>
					<LowerBound>0</LowerBound>
					<UpperBound>100</UpperBound>
					<value>-91445760000000000,100.,0,0,0,0,0,0</value>
					</parameter>
					</effect>
					</filter>
					<logginginfo>
					<description></description>
					<scene></scene>
					<shottake></shottake>
					<lognote></lognote>
					<good></good>
					<originalvideofilename></originalvideofilename>
					<originalaudiofilename></originalaudiofilename>
					</logginginfo>
					<colorinfo>
					<lut></lut>
					<lut1></lut1>
					<asc_sop></asc_sop>
					<asc_sat></asc_sat>
					<lut2></lut2>
					</colorinfo>
					<labels>
					</labels>
					</clipitem>
					<clipitem frameBlend="FALSE" id="clipitem-542">
					<masterclipid>masterclip-462</masterclipid>
					<name></name>
					<enabled>TRUE</enabled>
					<duration>2582774</duration>
					<rate>
					
					                                    <timebase>60</timebase>
					                                    <ntsc>TRUE</ntsc>
					                                
					</rate>
					<start>4420</start>
					<end>4486</end>
					<in>4420</in>
					<out>4486</out>
					<pproTicksIn>914456774963789</pproTicksIn>
					<pproTicksOut>914677708529577</pproTicksOut>
					<alphatype>straight</alphatype>
					<pixelaspectratio>square</pixelaspectratio>
					<anamorphic>FALSE</anamorphic>
					<file id="file-461">
					<name></name>
					<mediaSource>GraphicAndType</mediaSource>
					<rate>
					<timebase>60</timebase>
					<ntsc>TRUE</ntsc>
					</rate>
					<timecode>
					<rate>
					<timebase>60</timebase>
					<ntsc>TRUE</ntsc>
					</rate>
					<string>00:00:00:00</string>
					<frame>0</frame>
					<displayformat>NDF</displayformat>
					</timecode>
					<media>
					<video>
					<samplecharacteristics>
					<rate>
					<timebase>60</timebase>
					<ntsc>TRUE</ntsc>
					</rate>
					<width>1080</width>
					<height>1920</height>
					<anamorphic>FALSE</anamorphic>
					<pixelaspectratio>square</pixelaspectratio>
					<fielddominance>none</fielddominance>
					</samplecharacteristics>
					</video>
					</media>
					</file>
					<filter>
					<effect>
					<name></name>
					<effectid>GraphicAndType</effectid>
					<effectcategory>graphic</effectcategory>
					<effecttype>filter</effecttype>
					<mediatype>video</mediatype>
					<pproBypass>false</pproBypass>
					<parameter authoringApp="PremierePro">
					<parameterid>1</parameterid>
					<name></name>
					<hash>025b1101-ead6-0ca2-1feb-caf3000001fc</hash>
					<value>5AEAAAAAAABEMyIRDAAAAAAABgAKAAQABgAAAGQAAAAAAF4ASAAQAAwARABAADwAOAAAAAAAAAAAADQAMwAsAAAAKAAkACAAAAAAAAAAAAAAAAAAHAAAAAAAGgAAAAAAAAAUAAAAAAAAAAAAAAAAAAAAAAAAAAgAAAAAABsABwBeAAAAAAAAAUAAAABQAAAAbAAAAAIAAAAAAAEAAQAAAAAAQEEAAMBAAABAQAAAyEIAAAABIAAAAAIAAAACAAAAAAA2QwCASkTw/v//9P7///j+//8S////AAAAAAEAAAAEAAAAEQAAAEhHUFNvZWlLYWt1cG9wdGFpAAAAAQAAAAwAAAAIAAwABAAIAAgAAAAIAAAAUAAAAA8AAADvvIEAAAAAAAAAAAAAAAAAAAA2ACQAAAAgABwAAAAAABsAFAAAAAAAAAAAAAAAAAAAAAAAAAAAABAAAAAAAAAADAAAAAgABAA2AAAAAgAAABwAAAAcAAAAHAAAAAAAIEEAAAABaAAAAE3PAEOw////tP///wEAAAAUAAAAEAAaAAgABwAMAAAAEAAUABAAAAAAAAABHAAAAAAAoEEcAAAAAgAAAAAACgAIAAUABgAHAAoAAAAADAD//P///wQABAAEAAAACAAIAAYABwAIAAAAAAAMAA==</value>
					</parameter>
					<parameter authoringApp="PremierePro">
					<parameterid>2</parameterid>
					<name></name>
					<IsTimeVarying>false</IsTimeVarying>
					<ParameterControlType>11</ParameterControlType>
					<LowerBound>false</LowerBound>
					<UpperBound>false</UpperBound>
					<value>-91445760000000000,false,0,0,0,0,0,0</value>
					</parameter>
					<parameter authoringApp="PremierePro">
					<parameterid>3</parameterid>
					<name></name>
					<IsTimeVarying>false</IsTimeVarying>
					<value>-91445760000000000,0.5:0.5,0,0,0,0,0,0,5,4,0,0,0,0</value>
					</parameter>
					<parameter authoringApp="PremierePro">
					<parameterid>4</parameterid>
					<name></name>
					<IsTimeVarying>false</IsTimeVarying>
					<ParameterControlType>2</ParameterControlType>
					<LowerBound>0</LowerBound>
					<UpperBound>4000</UpperBound>
					<value>-91445760000000000,100.,0,0,0,0,0,0</value>
					</parameter>
					<parameter authoringApp="PremierePro">
					<parameterid>8</parameterid>
					<name></name>
					<IsTimeVarying>false</IsTimeVarying>
					<ParameterControlType>2</ParameterControlType>
					<LowerBound>0</LowerBound>
					<UpperBound>100</UpperBound>
					<value>-91445760000000000,100.,0,0,0,0,0,0</value>
					</parameter>
					</effect>
					</filter>
					<logginginfo>
					<description></description>
					<scene></scene>
					<shottake></shottake>
					<lognote></lognote>
					<good></good>
					<originalvideofilename></originalvideofilename>
					<originalaudiofilename></originalaudiofilename>
					</logginginfo>
					<colorinfo>
					<lut></lut>
					<lut1></lut1>
					<asc_sop></asc_sop>
					<asc_sat></asc_sat>
					<lut2></lut2>
					</colorinfo>
					<labels>
					</labels>
					</clipitem>
					<clipitem frameBlend="FALSE" id="clipitem-586">
					<masterclipid>masterclip-506</masterclipid>
					<name></name>
					<enabled>TRUE</enabled>
					<duration>2582774</duration>
					<rate>
					
					                                    <timebase>60</timebase>
					                                    <ntsc>TRUE</ntsc>
					                                
					</rate>
					<start>4846</start>
					<end>4912</end>
					<in>4846</in>
					<out>4912</out>
					<pproTicksIn>914456774963789</pproTicksIn>
					<pproTicksOut>914677708529577</pproTicksOut>
					<alphatype>straight</alphatype>
					<pixelaspectratio>square</pixelaspectratio>
					<anamorphic>FALSE</anamorphic>
					<file id="file-505">
					<name></name>
					<mediaSource>GraphicAndType</mediaSource>
					<rate>
					<timebase>60</timebase>
					<ntsc>TRUE</ntsc>
					</rate>
					<timecode>
					<rate>
					<timebase>60</timebase>
					<ntsc>TRUE</ntsc>
					</rate>
					<string>00:00:00:00</string>
					<frame>0</frame>
					<displayformat>NDF</displayformat>
					</timecode>
					<media>
					<video>
					<samplecharacteristics>
					<rate>
					<timebase>60</timebase>
					<ntsc>TRUE</ntsc>
					</rate>
					<width>1080</width>
					<height>1920</height>
					<anamorphic>FALSE</anamorphic>
					<pixelaspectratio>square</pixelaspectratio>
					<fielddominance>none</fielddominance>
					</samplecharacteristics>
					</video>
					</media>
					</file>
					<filter>
					<effect>
					<name></name>
					<effectid>GraphicAndType</effectid>
					<effectcategory>graphic</effectcategory>
					<effecttype>filter</effecttype>
					<mediatype>video</mediatype>
					<pproBypass>false</pproBypass>
					<parameter authoringApp="PremierePro">
					<parameterid>1</parameterid>
					<name></name>
					<hash>025b1101-ead6-0ca2-1feb-caf3000001fc</hash>
					<value>5AEAAAAAAABEMyIRDAAAAAAABgAKAAQABgAAAGQAAAAAAF4ASAAQAAwARABAADwAOAAAAAAAAAAAADQAMwAsAAAAKAAkACAAAAAAAAAAAAAAAAAAHAAAAAAAGgAAAAAAAAAUAAAAAAAAAAAAAAAAAAAAAAAAAAgAAAAAABsABwBeAAAAAAAAAUAAAABQAAAAbAAAAAIAAAAAAAEAAQAAAAAAQEEAAMBAAABAQAAAyEIAAAABIAAAAAIAAAACAAAAAAA2QwCASkTw/v//9P7///j+//8S////AAAAAAEAAAAEAAAAEQAAAEhHUFNvZWlLYWt1cG9wdGFpAAAAAQAAAAwAAAAIAAwABAAIAAgAAAAIAAAAUAAAAA8AAADvvIEAAAAAAAAAAAAAAAAAAAA2ACQAAAAgABwAAAAAABsAFAAAAAAAAAAAAAAAAAAAAAAAAAAAABAAAAAAAAAADAAAAAgABAA2AAAAAgAAABwAAAAcAAAAHAAAAAAAIEEAAAABaAAAAE3PAEOw////tP///wEAAAAUAAAAEAAaAAgABwAMAAAAEAAUABAAAAAAAAABHAAAAAAAoEEcAAAAAgAAAAAACgAIAAUABgAHAAoAAAAADAD//P///wQABAAEAAAACAAIAAYABwAIAAAAAAAMAA==</value>
					</parameter>
					<parameter authoringApp="PremierePro">
					<parameterid>2</parameterid>
					<name></name>
					<IsTimeVarying>false</IsTimeVarying>
					<ParameterControlType>11</ParameterControlType>
					<LowerBound>false</LowerBound>
					<UpperBound>false</UpperBound>
					<value>-91445760000000000,false,0,0,0,0,0,0</value>
					</parameter>
					<parameter authoringApp="PremierePro">
					<parameterid>3</parameterid>
					<name></name>
					<IsTimeVarying>false</IsTimeVarying>
					<value>-91445760000000000,0.5:0.5,0,0,0,0,0,0,5,4,0,0,0,0</value>
					</parameter>
					<parameter authoringApp="PremierePro">
					<parameterid>4</parameterid>
					<name></name>
					<IsTimeVarying>false</IsTimeVarying>
					<ParameterControlType>2</ParameterControlType>
					<LowerBound>0</LowerBound>
					<UpperBound>4000</UpperBound>
					<value>-91445760000000000,100.,0,0,0,0,0,0</value>
					</parameter>
					<parameter authoringApp="PremierePro">
					<parameterid>8</parameterid>
					<name></name>
					<IsTimeVarying>false</IsTimeVarying>
					<ParameterControlType>2</ParameterControlType>
					<LowerBound>0</LowerBound>
					<UpperBound>100</UpperBound>
					<value>-91445760000000000,100.,0,0,0,0,0,0</value>
					</parameter>
					</effect>
					</filter>
					<logginginfo>
					<description></description>
					<scene></scene>
					<shottake></shottake>
					<lognote></lognote>
					<good></good>
					<originalvideofilename></originalvideofilename>
					<originalaudiofilename></originalaudiofilename>
					</logginginfo>
					<colorinfo>
					<lut></lut>
					<lut1></lut1>
					<asc_sop></asc_sop>
					<asc_sat></asc_sat>
					<lut2></lut2>
					</colorinfo>
					<labels>
					</labels>
					</clipitem>
					<clipitem frameBlend="FALSE" id="clipitem-644">
					<masterclipid>masterclip-564</masterclipid>
					<name></name>
					<enabled>TRUE</enabled>
					<duration>2582774</duration>
					<rate>
					
					                                    <timebase>60</timebase>
					                                    <ntsc>TRUE</ntsc>
					                                
					</rate>
					<start>5554</start>
					<end>5614</end>
					<in>5554</in>
					<out>5614</out>
					<pproTicksIn>914456774963789</pproTicksIn>
					<pproTicksOut>914677708529577</pproTicksOut>
					<alphatype>straight</alphatype>
					<pixelaspectratio>square</pixelaspectratio>
					<anamorphic>FALSE</anamorphic>
					<file id="file-563">
					<name></name>
					<mediaSource>GraphicAndType</mediaSource>
					<rate>
					<timebase>60</timebase>
					<ntsc>TRUE</ntsc>
					</rate>
					<timecode>
					<rate>
					<timebase>60</timebase>
					<ntsc>TRUE</ntsc>
					</rate>
					<string>00:00:00:00</string>
					<frame>0</frame>
					<displayformat>NDF</displayformat>
					</timecode>
					<media>
					<video>
					<samplecharacteristics>
					<rate>
					<timebase>60</timebase>
					<ntsc>TRUE</ntsc>
					</rate>
					<width>1080</width>
					<height>1920</height>
					<anamorphic>FALSE</anamorphic>
					<pixelaspectratio>square</pixelaspectratio>
					<fielddominance>none</fielddominance>
					</samplecharacteristics>
					</video>
					</media>
					</file>
					<filter>
					<effect>
					<name></name>
					<effectid>GraphicAndType</effectid>
					<effectcategory>graphic</effectcategory>
					<effecttype>filter</effecttype>
					<mediatype>video</mediatype>
					<pproBypass>false</pproBypass>
					<parameter authoringApp="PremierePro">
					<parameterid>1</parameterid>
					<name></name>
					<hash>025b1101-ead6-0ca2-1feb-caf3000001fc</hash>
					<value>5AEAAAAAAABEMyIRDAAAAAAABgAKAAQABgAAAGQAAAAAAF4ASAAQAAwARABAADwAOAAAAAAAAAAAADQAMwAsAAAAKAAkACAAAAAAAAAAAAAAAAAAHAAAAAAAGgAAAAAAAAAUAAAAAAAAAAAAAAAAAAAAAAAAAAgAAAAAABsABwBeAAAAAAAAAUAAAABQAAAAbAAAAAIAAAAAAAEAAQAAAAAAQEEAAMBAAABAQAAAyEIAAAABIAAAAAIAAAACAAAAAAA2QwCASkTw/v//9P7///j+//8S////AAAAAAEAAAAEAAAAEQAAAEhHUFNvZWlLYWt1cG9wdGFpAAAAAQAAAAwAAAAIAAwABAAIAAgAAAAIAAAAUAAAAA8AAADvvIEAAAAAAAAAAAAAAAAAAAA2ACQAAAAgABwAAAAAABsAFAAAAAAAAAAAAAAAAAAAAAAAAAAAABAAAAAAAAAADAAAAAgABAA2AAAAAgAAABwAAAAcAAAAHAAAAAAAIEEAAAABaAAAAE3PAEOw////tP///wEAAAAUAAAAEAAaAAgABwAMAAAAEAAUABAAAAAAAAABHAAAAAAAoEEcAAAAAgAAAAAACgAIAAUABgAHAAoAAAAADAD//P///wQABAAEAAAACAAIAAYABwAIAAAAAAAMAA==</value>
					</parameter>
					<parameter authoringApp="PremierePro">
					<parameterid>2</parameterid>
					<name></name>
					<IsTimeVarying>false</IsTimeVarying>
					<ParameterControlType>11</ParameterControlType>
					<LowerBound>false</LowerBound>
					<UpperBound>false</UpperBound>
					<value>-91445760000000000,false,0,0,0,0,0,0</value>
					</parameter>
					<parameter authoringApp="PremierePro">
					<parameterid>3</parameterid>
					<name></name>
					<IsTimeVarying>false</IsTimeVarying>
					<value>-91445760000000000,0.5:0.5,0,0,0,0,0,0,5,4,0,0,0,0</value>
					</parameter>
					<parameter authoringApp="PremierePro">
					<parameterid>4</parameterid>
					<name></name>
					<IsTimeVarying>false</IsTimeVarying>
					<ParameterControlType>2</ParameterControlType>
					<LowerBound>0</LowerBound>
					<UpperBound>4000</UpperBound>
					<value>-91445760000000000,100.,0,0,0,0,0,0</value>
					</parameter>
					<parameter authoringApp="PremierePro">
					<parameterid>8</parameterid>
					<name></name>
					<IsTimeVarying>false</IsTimeVarying>
					<ParameterControlType>2</ParameterControlType>
					<LowerBound>0</LowerBound>
					<UpperBound>100</UpperBound>
					<value>-91445760000000000,100.,0,0,0,0,0,0</value>
					</parameter>
					</effect>
					</filter>
					<logginginfo>
					<description></description>
					<scene></scene>
					<shottake></shottake>
					<lognote></lognote>
					<good></good>
					<originalvideofilename></originalvideofilename>
					<originalaudiofilename></originalaudiofilename>
					</logginginfo>
					<colorinfo>
					<lut></lut>
					<lut1></lut1>
					<asc_sop></asc_sop>
					<asc_sat></asc_sat>
					<lut2></lut2>
					</colorinfo>
					<labels>
					</labels>
					</clipitem>
					<clipitem frameBlend="FALSE" id="clipitem-656">
					<masterclipid>masterclip-576</masterclipid>
					<name></name>
					<enabled>TRUE</enabled>
					<duration>2582774</duration>
					<rate>
					
					                                    <timebase>60</timebase>
					                                    <ntsc>TRUE</ntsc>
					                                
					</rate>
					<start>5620</start>
					<end>5686</end>
					<in>5620</in>
					<out>5686</out>
					<pproTicksIn>914456774963789</pproTicksIn>
					<pproTicksOut>914677708529577</pproTicksOut>
					<alphatype>straight</alphatype>
					<pixelaspectratio>square</pixelaspectratio>
					<anamorphic>FALSE</anamorphic>
					<file id="file-575">
					<name></name>
					<mediaSource>GraphicAndType</mediaSource>
					<rate>
					<timebase>60</timebase>
					<ntsc>TRUE</ntsc>
					</rate>
					<timecode>
					<rate>
					<timebase>60</timebase>
					<ntsc>TRUE</ntsc>
					</rate>
					<string>00:00:00:00</string>
					<frame>0</frame>
					<displayformat>NDF</displayformat>
					</timecode>
					<media>
					<video>
					<samplecharacteristics>
					<rate>
					<timebase>60</timebase>
					<ntsc>TRUE</ntsc>
					</rate>
					<width>1080</width>
					<height>1920</height>
					<anamorphic>FALSE</anamorphic>
					<pixelaspectratio>square</pixelaspectratio>
					<fielddominance>none</fielddominance>
					</samplecharacteristics>
					</video>
					</media>
					</file>
					<filter>
					<effect>
					<name></name>
					<effectid>GraphicAndType</effectid>
					<effectcategory>graphic</effectcategory>
					<effecttype>filter</effecttype>
					<mediatype>video</mediatype>
					<pproBypass>false</pproBypass>
					<parameter authoringApp="PremierePro">
					<parameterid>1</parameterid>
					<name></name>
					<hash>025b1101-ead6-0ca2-1feb-caf3000001fc</hash>
					<value>5AEAAAAAAABEMyIRDAAAAAAABgAKAAQABgAAAGQAAAAAAF4ASAAQAAwARABAADwAOAAAAAAAAAAAADQAMwAsAAAAKAAkACAAAAAAAAAAAAAAAAAAHAAAAAAAGgAAAAAAAAAUAAAAAAAAAAAAAAAAAAAAAAAAAAgAAAAAABsABwBeAAAAAAAAAUAAAABQAAAAbAAAAAIAAAAAAAEAAQAAAAAAQEEAAMBAAABAQAAAyEIAAAABIAAAAAIAAAACAAAAAAA2QwCASkTw/v//9P7///j+//8S////AAAAAAEAAAAEAAAAEQAAAEhHUFNvZWlLYWt1cG9wdGFpAAAAAQAAAAwAAAAIAAwABAAIAAgAAAAIAAAAUAAAAA8AAADvvIEAAAAAAAAAAAAAAAAAAAA2ACQAAAAgABwAAAAAABsAFAAAAAAAAAAAAAAAAAAAAAAAAAAAABAAAAAAAAAADAAAAAgABAA2AAAAAgAAABwAAAAcAAAAHAAAAAAAIEEAAAABaAAAAE3PAEOw////tP///wEAAAAUAAAAEAAaAAgABwAMAAAAEAAUABAAAAAAAAABHAAAAAAAoEEcAAAAAgAAAAAACgAIAAUABgAHAAoAAAAADAD//P///wQABAAEAAAACAAIAAYABwAIAAAAAAAMAA==</value>
					</parameter>
					<parameter authoringApp="PremierePro">
					<parameterid>2</parameterid>
					<name></name>
					<IsTimeVarying>false</IsTimeVarying>
					<ParameterControlType>11</ParameterControlType>
					<LowerBound>false</LowerBound>
					<UpperBound>false</UpperBound>
					<value>-91445760000000000,false,0,0,0,0,0,0</value>
					</parameter>
					<parameter authoringApp="PremierePro">
					<parameterid>3</parameterid>
					<name></name>
					<IsTimeVarying>false</IsTimeVarying>
					<value>-91445760000000000,0.5:0.5,0,0,0,0,0,0,5,4,0,0,0,0</value>
					</parameter>
					<parameter authoringApp="PremierePro">
					<parameterid>4</parameterid>
					<name></name>
					<IsTimeVarying>false</IsTimeVarying>
					<ParameterControlType>2</ParameterControlType>
					<LowerBound>0</LowerBound>
					<UpperBound>4000</UpperBound>
					<value>-91445760000000000,100.,0,0,0,0,0,0</value>
					</parameter>
					<parameter authoringApp="PremierePro">
					<parameterid>8</parameterid>
					<name></name>
					<IsTimeVarying>false</IsTimeVarying>
					<ParameterControlType>2</ParameterControlType>
					<LowerBound>0</LowerBound>
					<UpperBound>100</UpperBound>
					<value>-91445760000000000,100.,0,0,0,0,0,0</value>
					</parameter>
					</effect>
					</filter>
					<logginginfo>
					<description></description>
					<scene></scene>
					<shottake></shottake>
					<lognote></lognote>
					<good></good>
					<originalvideofilename></originalvideofilename>
					<originalaudiofilename></originalaudiofilename>
					</logginginfo>
					<colorinfo>
					<lut></lut>
					<lut1></lut1>
					<asc_sop></asc_sop>
					<asc_sat></asc_sat>
					<lut2></lut2>
					</colorinfo>
					<labels>
					</labels>
					</clipitem>
					<clipitem frameBlend="FALSE" id="clipitem-675">
					<masterclipid>masterclip-595</masterclipid>
					<name></name>
					<enabled>TRUE</enabled>
					<duration>2582774</duration>
					<rate>
					
					                                    <timebase>60</timebase>
					                                    <ntsc>TRUE</ntsc>
					                                
					</rate>
					<start>5812</start>
					<end>5872</end>
					<in>5812</in>
					<out>5872</out>
					<pproTicksIn>914456774963789</pproTicksIn>
					<pproTicksOut>914677708529577</pproTicksOut>
					<alphatype>straight</alphatype>
					<pixelaspectratio>square</pixelaspectratio>
					<anamorphic>FALSE</anamorphic>
					<file id="file-594">
					<name></name>
					<mediaSource>GraphicAndType</mediaSource>
					<rate>
					<timebase>60</timebase>
					<ntsc>TRUE</ntsc>
					</rate>
					<timecode>
					<rate>
					<timebase>60</timebase>
					<ntsc>TRUE</ntsc>
					</rate>
					<string>00:00:00:00</string>
					<frame>0</frame>
					<displayformat>NDF</displayformat>
					</timecode>
					<media>
					<video>
					<samplecharacteristics>
					<rate>
					<timebase>60</timebase>
					<ntsc>TRUE</ntsc>
					</rate>
					<width>1080</width>
					<height>1920</height>
					<anamorphic>FALSE</anamorphic>
					<pixelaspectratio>square</pixelaspectratio>
					<fielddominance>none</fielddominance>
					</samplecharacteristics>
					</video>
					</media>
					</file>
					<filter>
					<effect>
					<name></name>
					<effectid>GraphicAndType</effectid>
					<effectcategory>graphic</effectcategory>
					<effecttype>filter</effecttype>
					<mediatype>video</mediatype>
					<pproBypass>false</pproBypass>
					<parameter authoringApp="PremierePro">
					<parameterid>1</parameterid>
					<name></name>
					<hash>025b1101-ead6-0ca2-1feb-caf3000001fc</hash>
					<value>5AEAAAAAAABEMyIRDAAAAAAABgAKAAQABgAAAGQAAAAAAF4ASAAQAAwARABAADwAOAAAAAAAAAAAADQAMwAsAAAAKAAkACAAAAAAAAAAAAAAAAAAHAAAAAAAGgAAAAAAAAAUAAAAAAAAAAAAAAAAAAAAAAAAAAgAAAAAABsABwBeAAAAAAAAAUAAAABQAAAAbAAAAAIAAAAAAAEAAQAAAAAAQEEAAMBAAABAQAAAyEIAAAABIAAAAAIAAAACAAAAAAA2QwCASkTw/v//9P7///j+//8S////AAAAAAEAAAAEAAAAEQAAAEhHUFNvZWlLYWt1cG9wdGFpAAAAAQAAAAwAAAAIAAwABAAIAAgAAAAIAAAAUAAAAA8AAADvvIEAAAAAAAAAAAAAAAAAAAA2ACQAAAAgABwAAAAAABsAFAAAAAAAAAAAAAAAAAAAAAAAAAAAABAAAAAAAAAADAAAAAgABAA2AAAAAgAAABwAAAAcAAAAHAAAAAAAIEEAAAABaAAAAE3PAEOw////tP///wEAAAAUAAAAEAAaAAgABwAMAAAAEAAUABAAAAAAAAABHAAAAAAAoEEcAAAAAgAAAAAACgAIAAUABgAHAAoAAAAADAD//P///wQABAAEAAAACAAIAAYABwAIAAAAAAAMAA==</value>
					</parameter>
					<parameter authoringApp="PremierePro">
					<parameterid>2</parameterid>
					<name></name>
					<IsTimeVarying>false</IsTimeVarying>
					<ParameterControlType>11</ParameterControlType>
					<LowerBound>false</LowerBound>
					<UpperBound>false</UpperBound>
					<value>-91445760000000000,false,0,0,0,0,0,0</value>
					</parameter>
					<parameter authoringApp="PremierePro">
					<parameterid>3</parameterid>
					<name></name>
					<IsTimeVarying>false</IsTimeVarying>
					<value>-91445760000000000,0.5:0.5,0,0,0,0,0,0,5,4,0,0,0,0</value>
					</parameter>
					<parameter authoringApp="PremierePro">
					<parameterid>4</parameterid>
					<name></name>
					<IsTimeVarying>false</IsTimeVarying>
					<ParameterControlType>2</ParameterControlType>
					<LowerBound>0</LowerBound>
					<UpperBound>4000</UpperBound>
					<value>-91445760000000000,100.,0,0,0,0,0,0</value>
					</parameter>
					<parameter authoringApp="PremierePro">
					<parameterid>8</parameterid>
					<name></name>
					<IsTimeVarying>false</IsTimeVarying>
					<ParameterControlType>2</ParameterControlType>
					<LowerBound>0</LowerBound>
					<UpperBound>100</UpperBound>
					<value>-91445760000000000,100.,0,0,0,0,0,0</value>
					</parameter>
					</effect>
					</filter>
					<logginginfo>
					<description></description>
					<scene></scene>
					<shottake></shottake>
					<lognote></lognote>
					<good></good>
					<originalvideofilename></originalvideofilename>
					<originalaudiofilename></originalaudiofilename>
					</logginginfo>
					<colorinfo>
					<lut></lut>
					<lut1></lut1>
					<asc_sop></asc_sop>
					<asc_sat></asc_sat>
					<lut2></lut2>
					</colorinfo>
					<labels>
					</labels>
					</clipitem>
					<clipitem frameBlend="FALSE" id="clipitem-777">
					<masterclipid>masterclip-697</masterclipid>
					<name></name>
					<enabled>TRUE</enabled>
					<duration>2582774</duration>
					<rate>
					
					                                    <timebase>60</timebase>
					                                    <ntsc>TRUE</ntsc>
					                                
					</rate>
					<start>6928</start>
					<end>6988</end>
					<in>6928</in>
					<out>6988</out>
					<pproTicksIn>914456774963789</pproTicksIn>
					<pproTicksOut>914677708529577</pproTicksOut>
					<alphatype>straight</alphatype>
					<pixelaspectratio>square</pixelaspectratio>
					<anamorphic>FALSE</anamorphic>
					<file id="file-696">
					<name></name>
					<mediaSource>GraphicAndType</mediaSource>
					<rate>
					<timebase>60</timebase>
					<ntsc>TRUE</ntsc>
					</rate>
					<timecode>
					<rate>
					<timebase>60</timebase>
					<ntsc>TRUE</ntsc>
					</rate>
					<string>00:00:00:00</string>
					<frame>0</frame>
					<displayformat>NDF</displayformat>
					</timecode>
					<media>
					<video>
					<samplecharacteristics>
					<rate>
					<timebase>60</timebase>
					<ntsc>TRUE</ntsc>
					</rate>
					<width>1080</width>
					<height>1920</height>
					<anamorphic>FALSE</anamorphic>
					<pixelaspectratio>square</pixelaspectratio>
					<fielddominance>none</fielddominance>
					</samplecharacteristics>
					</video>
					</media>
					</file>
					<filter>
					<effect>
					<name></name>
					<effectid>GraphicAndType</effectid>
					<effectcategory>graphic</effectcategory>
					<effecttype>filter</effecttype>
					<mediatype>video</mediatype>
					<pproBypass>false</pproBypass>
					<parameter authoringApp="PremierePro">
					<parameterid>1</parameterid>
					<name></name>
					<hash>025b1101-ead6-0ca2-1feb-caf3000001fc</hash>
					<value>5AEAAAAAAABEMyIRDAAAAAAABgAKAAQABgAAAGQAAAAAAF4ASAAQAAwARABAADwAOAAAAAAAAAAAADQAMwAsAAAAKAAkACAAAAAAAAAAAAAAAAAAHAAAAAAAGgAAAAAAAAAUAAAAAAAAAAAAAAAAAAAAAAAAAAgAAAAAABsABwBeAAAAAAAAAUAAAABQAAAAbAAAAAIAAAAAAAEAAQAAAAAAQEEAAMBAAABAQAAAyEIAAAABIAAAAAIAAAACAAAAAAA2QwCASkTw/v//9P7///j+//8S////AAAAAAEAAAAEAAAAEQAAAEhHUFNvZWlLYWt1cG9wdGFpAAAAAQAAAAwAAAAIAAwABAAIAAgAAAAIAAAAUAAAAA8AAADvvIEAAAAAAAAAAAAAAAAAAAA2ACQAAAAgABwAAAAAABsAFAAAAAAAAAAAAAAAAAAAAAAAAAAAABAAAAAAAAAADAAAAAgABAA2AAAAAgAAABwAAAAcAAAAHAAAAAAAIEEAAAABaAAAAE3PAEOw////tP///wEAAAAUAAAAEAAaAAgABwAMAAAAEAAUABAAAAAAAAABHAAAAAAAoEEcAAAAAgAAAAAACgAIAAUABgAHAAoAAAAADAD//P///wQABAAEAAAACAAIAAYABwAIAAAAAAAMAA==</value>
					</parameter>
					<parameter authoringApp="PremierePro">
					<parameterid>2</parameterid>
					<name></name>
					<IsTimeVarying>false</IsTimeVarying>
					<ParameterControlType>11</ParameterControlType>
					<LowerBound>false</LowerBound>
					<UpperBound>false</UpperBound>
					<value>-91445760000000000,false,0,0,0,0,0,0</value>
					</parameter>
					<parameter authoringApp="PremierePro">
					<parameterid>3</parameterid>
					<name></name>
					<IsTimeVarying>false</IsTimeVarying>
					<value>-91445760000000000,0.5:0.5,0,0,0,0,0,0,5,4,0,0,0,0</value>
					</parameter>
					<parameter authoringApp="PremierePro">
					<parameterid>4</parameterid>
					<name></name>
					<IsTimeVarying>false</IsTimeVarying>
					<ParameterControlType>2</ParameterControlType>
					<LowerBound>0</LowerBound>
					<UpperBound>4000</UpperBound>
					<value>-91445760000000000,100.,0,0,0,0,0,0</value>
					</parameter>
					<parameter authoringApp="PremierePro">
					<parameterid>8</parameterid>
					<name></name>
					<IsTimeVarying>false</IsTimeVarying>
					<ParameterControlType>2</ParameterControlType>
					<LowerBound>0</LowerBound>
					<UpperBound>100</UpperBound>
					<value>-91445760000000000,100.,0,0,0,0,0,0</value>
					</parameter>
					</effect>
					</filter>
					<logginginfo>
					<description></description>
					<scene></scene>
					<shottake></shottake>
					<lognote></lognote>
					<good></good>
					<originalvideofilename></originalvideofilename>
					<originalaudiofilename></originalaudiofilename>
					</logginginfo>
					<colorinfo>
					<lut></lut>
					<lut1></lut1>
					<asc_sop></asc_sop>
					<asc_sat></asc_sat>
					<lut2></lut2>
					</colorinfo>
					<labels>
					</labels>
					</clipitem>
					<enabled>TRUE</enabled>
					<locked>FALSE</locked>
				</track>
				<track TL.SQTrackShy="0" TL.SQTrackExpandedHeight="25" TL.SQTrackExpanded="0" MZ.TrackTargeted="0">
					<clipitem frameBlend="FALSE" id="clipitem-220">
					<masterclipid>masterclip-140</masterclipid>
					<name></name>
					<enabled>TRUE</enabled>
					<duration>2582774</duration>
					<rate>
					
					                                    <timebase>60</timebase>
					                                    <ntsc>TRUE</ntsc>
					                                
					</rate>
					<start>959</start>
					<end>1019</end>
					<in>959</in>
					<out>1019</out>
					<pproTicksIn>914456774963789</pproTicksIn>
					<pproTicksOut>914677708529577</pproTicksOut>
					<alphatype>straight</alphatype>
					<pixelaspectratio>square</pixelaspectratio>
					<anamorphic>FALSE</anamorphic>
					<file id="file-139">
					<name></name>
					<mediaSource>GraphicAndType</mediaSource>
					<rate>
					<timebase>60</timebase>
					<ntsc>TRUE</ntsc>
					</rate>
					<timecode>
					<rate>
					<timebase>60</timebase>
					<ntsc>TRUE</ntsc>
					</rate>
					<string>00:00:00:00</string>
					<frame>0</frame>
					<displayformat>NDF</displayformat>
					</timecode>
					<media>
					<video>
					<samplecharacteristics>
					<rate>
					<timebase>60</timebase>
					<ntsc>TRUE</ntsc>
					</rate>
					<width>1080</width>
					<height>1920</height>
					<anamorphic>FALSE</anamorphic>
					<pixelaspectratio>square</pixelaspectratio>
					<fielddominance>none</fielddominance>
					</samplecharacteristics>
					</video>
					</media>
					</file>
					<filter>
					<effect>
					<name></name>
					<effectid>GraphicAndType</effectid>
					<effectcategory>graphic</effectcategory>
					<effecttype>filter</effecttype>
					<mediatype>video</mediatype>
					<pproBypass>false</pproBypass>
					<parameter authoringApp="PremierePro">
					<parameterid>1</parameterid>
					<name></name>
					<hash>025b1101-ead6-0ca2-1feb-caf3000001fc</hash>
					<value>5AEAAAAAAABEMyIRDAAAAAAABgAKAAQABgAAAGQAAAAAAF4ASAAQAAwARABAADwAOAAAAAAAAAAAADQAMwAsAAAAKAAkACAAAAAAAAAAAAAAAAAAHAAAAAAAGgAAAAAAAAAUAAAAAAAAAAAAAAAAAAAAAAAAAAgAAAAAABsABwBeAAAAAAAAAUAAAABQAAAAbAAAAAIAAAAAAAEAAQAAAAAAQEEAAMBAAABAQAAAyEIAAAABIAAAAAIAAAACAAAAAAA2QwCASkTw/v//9P7///j+//8S////AAAAAAEAAAAEAAAAEQAAAEhHUFNvZWlLYWt1cG9wdGFpAAAAAQAAAAwAAAAIAAwABAAIAAgAAAAIAAAAUAAAAA8AAADvvIEAAAAAAAAAAAAAAAAAAAA2ACQAAAAgABwAAAAAABsAFAAAAAAAAAAAAAAAAAAAAAAAAAAAABAAAAAAAAAADAAAAAgABAA2AAAAAgAAABwAAAAcAAAAHAAAAAAAIEEAAAABaAAAAE3PAEOw////tP///wEAAAAUAAAAEAAaAAgABwAMAAAAEAAUABAAAAAAAAABHAAAAAAAoEEcAAAAAgAAAAAACgAIAAUABgAHAAoAAAAADAD//P///wQABAAEAAAACAAIAAYABwAIAAAAAAAMAA==</value>
					</parameter>
					<parameter authoringApp="PremierePro">
					<parameterid>2</parameterid>
					<name></name>
					<IsTimeVarying>false</IsTimeVarying>
					<ParameterControlType>11</ParameterControlType>
					<LowerBound>false</LowerBound>
					<UpperBound>false</UpperBound>
					<value>-91445760000000000,false,0,0,0,0,0,0</value>
					</parameter>
					<parameter authoringApp="PremierePro">
					<parameterid>3</parameterid>
					<name></name>
					<IsTimeVarying>false</IsTimeVarying>
					<value>-91445760000000000,0.5:0.5,0,0,0,0,0,0,5,4,0,0,0,0</value>
					</parameter>
					<parameter authoringApp="PremierePro">
					<parameterid>4</parameterid>
					<name></name>
					<IsTimeVarying>false</IsTimeVarying>
					<ParameterControlType>2</ParameterControlType>
					<LowerBound>0</LowerBound>
					<UpperBound>4000</UpperBound>
					<value>-91445760000000000,100.,0,0,0,0,0,0</value>
					</parameter>
					<parameter authoringApp="PremierePro">
					<parameterid>8</parameterid>
					<name></name>
					<IsTimeVarying>false</IsTimeVarying>
					<ParameterControlType>2</ParameterControlType>
					<LowerBound>0</LowerBound>
					<UpperBound>100</UpperBound>
					<value>-91445760000000000,100.,0,0,0,0,0,0</value>
					</parameter>
					</effect>
					</filter>
					<logginginfo>
					<description></description>
					<scene></scene>
					<shottake></shottake>
					<lognote></lognote>
					<good></good>
					<originalvideofilename></originalvideofilename>
					<originalaudiofilename></originalaudiofilename>
					</logginginfo>
					<colorinfo>
					<lut></lut>
					<lut1></lut1>
					<asc_sop></asc_sop>
					<asc_sat></asc_sat>
					<lut2></lut2>
					</colorinfo>
					<labels>
					</labels>
					</clipitem>
					<clipitem frameBlend="FALSE" id="clipitem-314">
					<masterclipid>masterclip-234</masterclipid>
					<name></name>
					<enabled>TRUE</enabled>
					<duration>2582774</duration>
					<rate>
					
					                                    <timebase>60</timebase>
					                                    <ntsc>TRUE</ntsc>
					                                
					</rate>
					<start>1817</start>
					<end>1883</end>
					<in>1817</in>
					<out>1883</out>
					<pproTicksIn>914456774963789</pproTicksIn>
					<pproTicksOut>914677708529577</pproTicksOut>
					<alphatype>straight</alphatype>
					<pixelaspectratio>square</pixelaspectratio>
					<anamorphic>FALSE</anamorphic>
					<file id="file-233">
					<name></name>
					<mediaSource>GraphicAndType</mediaSource>
					<rate>
					<timebase>60</timebase>
					<ntsc>TRUE</ntsc>
					</rate>
					<timecode>
					<rate>
					<timebase>60</timebase>
					<ntsc>TRUE</ntsc>
					</rate>
					<string>00:00:00:00</string>
					<frame>0</frame>
					<displayformat>NDF</displayformat>
					</timecode>
					<media>
					<video>
					<samplecharacteristics>
					<rate>
					<timebase>60</timebase>
					<ntsc>TRUE</ntsc>
					</rate>
					<width>1080</width>
					<height>1920</height>
					<anamorphic>FALSE</anamorphic>
					<pixelaspectratio>square</pixelaspectratio>
					<fielddominance>none</fielddominance>
					</samplecharacteristics>
					</video>
					</media>
					</file>
					<filter>
					<effect>
					<name></name>
					<effectid>GraphicAndType</effectid>
					<effectcategory>graphic</effectcategory>
					<effecttype>filter</effecttype>
					<mediatype>video</mediatype>
					<pproBypass>false</pproBypass>
					<parameter authoringApp="PremierePro">
					<parameterid>1</parameterid>
					<name></name>
					<hash>025b1101-ead6-0ca2-1feb-caf3000001fc</hash>
					<value>5AEAAAAAAABEMyIRDAAAAAAABgAKAAQABgAAAGQAAAAAAF4ASAAQAAwARABAADwAOAAAAAAAAAAAADQAMwAsAAAAKAAkACAAAAAAAAAAAAAAAAAAHAAAAAAAGgAAAAAAAAAUAAAAAAAAAAAAAAAAAAAAAAAAAAgAAAAAABsABwBeAAAAAAAAAUAAAABQAAAAbAAAAAIAAAAAAAEAAQAAAAAAQEEAAMBAAABAQAAAyEIAAAABIAAAAAIAAAACAAAAAAA2QwCASkTw/v//9P7///j+//8S////AAAAAAEAAAAEAAAAEQAAAEhHUFNvZWlLYWt1cG9wdGFpAAAAAQAAAAwAAAAIAAwABAAIAAgAAAAIAAAAUAAAAA8AAADvvIEAAAAAAAAAAAAAAAAAAAA2ACQAAAAgABwAAAAAABsAFAAAAAAAAAAAAAAAAAAAAAAAAAAAABAAAAAAAAAADAAAAAgABAA2AAAAAgAAABwAAAAcAAAAHAAAAAAAIEEAAAABaAAAAE3PAEOw////tP///wEAAAAUAAAAEAAaAAgABwAMAAAAEAAUABAAAAAAAAABHAAAAAAAoEEcAAAAAgAAAAAACgAIAAUABgAHAAoAAAAADAD//P///wQABAAEAAAACAAIAAYABwAIAAAAAAAMAA==</value>
					</parameter>
					<parameter authoringApp="PremierePro">
					<parameterid>2</parameterid>
					<name></name>
					<IsTimeVarying>false</IsTimeVarying>
					<ParameterControlType>11</ParameterControlType>
					<LowerBound>false</LowerBound>
					<UpperBound>false</UpperBound>
					<value>-91445760000000000,false,0,0,0,0,0,0</value>
					</parameter>
					<parameter authoringApp="PremierePro">
					<parameterid>3</parameterid>
					<name></name>
					<IsTimeVarying>false</IsTimeVarying>
					<value>-91445760000000000,0.5:0.5,0,0,0,0,0,0,5,4,0,0,0,0</value>
					</parameter>
					<parameter authoringApp="PremierePro">
					<parameterid>4</parameterid>
					<name></name>
					<IsTimeVarying>false</IsTimeVarying>
					<ParameterControlType>2</ParameterControlType>
					<LowerBound>0</LowerBound>
					<UpperBound>4000</UpperBound>
					<value>-91445760000000000,100.,0,0,0,0,0,0</value>
					</parameter>
					<parameter authoringApp="PremierePro">
					<parameterid>8</parameterid>
					<name></name>
					<IsTimeVarying>false</IsTimeVarying>
					<ParameterControlType>2</ParameterControlType>
					<LowerBound>0</LowerBound>
					<UpperBound>100</UpperBound>
					<value>-91445760000000000,100.,0,0,0,0,0,0</value>
					</parameter>
					</effect>
					</filter>
					<logginginfo>
					<description></description>
					<scene></scene>
					<shottake></shottake>
					<lognote></lognote>
					<good></good>
					<originalvideofilename></originalvideofilename>
					<originalaudiofilename></originalaudiofilename>
					</logginginfo>
					<colorinfo>
					<lut></lut>
					<lut1></lut1>
					<asc_sop></asc_sop>
					<asc_sat></asc_sat>
					<lut2></lut2>
					</colorinfo>
					<labels>
					</labels>
					</clipitem>
					<clipitem frameBlend="FALSE" id="clipitem-439">
					<masterclipid>masterclip-359</masterclipid>
					<name></name>
					<enabled>TRUE</enabled>
					<duration>2582774</duration>
					<rate>
					
					                                    <timebase>60</timebase>
					                                    <ntsc>TRUE</ntsc>
					                                
					</rate>
					<start>3233</start>
					<end>3299</end>
					<in>3233</in>
					<out>3299</out>
					<pproTicksIn>914456774963789</pproTicksIn>
					<pproTicksOut>914677708529577</pproTicksOut>
					<alphatype>straight</alphatype>
					<pixelaspectratio>square</pixelaspectratio>
					<anamorphic>FALSE</anamorphic>
					<file id="file-358">
					<name></name>
					<mediaSource>GraphicAndType</mediaSource>
					<rate>
					<timebase>60</timebase>
					<ntsc>TRUE</ntsc>
					</rate>
					<timecode>
					<rate>
					<timebase>60</timebase>
					<ntsc>TRUE</ntsc>
					</rate>
					<string>00:00:00:00</string>
					<frame>0</frame>
					<displayformat>NDF</displayformat>
					</timecode>
					<media>
					<video>
					<samplecharacteristics>
					<rate>
					<timebase>60</timebase>
					<ntsc>TRUE</ntsc>
					</rate>
					<width>1080</width>
					<height>1920</height>
					<anamorphic>FALSE</anamorphic>
					<pixelaspectratio>square</pixelaspectratio>
					<fielddominance>none</fielddominance>
					</samplecharacteristics>
					</video>
					</media>
					</file>
					<filter>
					<effect>
					<name></name>
					<effectid>GraphicAndType</effectid>
					<effectcategory>graphic</effectcategory>
					<effecttype>filter</effecttype>
					<mediatype>video</mediatype>
					<pproBypass>false</pproBypass>
					<parameter authoringApp="PremierePro">
					<parameterid>1</parameterid>
					<name></name>
					<hash>025b1101-ead6-0ca2-1feb-caf3000001fc</hash>
					<value>5AEAAAAAAABEMyIRDAAAAAAABgAKAAQABgAAAGQAAAAAAF4ASAAQAAwARABAADwAOAAAAAAAAAAAADQAMwAsAAAAKAAkACAAAAAAAAAAAAAAAAAAHAAAAAAAGgAAAAAAAAAUAAAAAAAAAAAAAAAAAAAAAAAAAAgAAAAAABsABwBeAAAAAAAAAUAAAABQAAAAbAAAAAIAAAAAAAEAAQAAAAAAQEEAAMBAAABAQAAAyEIAAAABIAAAAAIAAAACAAAAAAA2QwCASkTw/v//9P7///j+//8S////AAAAAAEAAAAEAAAAEQAAAEhHUFNvZWlLYWt1cG9wdGFpAAAAAQAAAAwAAAAIAAwABAAIAAgAAAAIAAAAUAAAAA8AAADvvIEAAAAAAAAAAAAAAAAAAAA2ACQAAAAgABwAAAAAABsAFAAAAAAAAAAAAAAAAAAAAAAAAAAAABAAAAAAAAAADAAAAAgABAA2AAAAAgAAABwAAAAcAAAAHAAAAAAAIEEAAAABaAAAAE3PAEOw////tP///wEAAAAUAAAAEAAaAAgABwAMAAAAEAAUABAAAAAAAAABHAAAAAAAoEEcAAAAAgAAAAAACgAIAAUABgAHAAoAAAAADAD//P///wQABAAEAAAACAAIAAYABwAIAAAAAAAMAA==</value>
					</parameter>
					<parameter authoringApp="PremierePro">
					<parameterid>2</parameterid>
					<name></name>
					<IsTimeVarying>false</IsTimeVarying>
					<ParameterControlType>11</ParameterControlType>
					<LowerBound>false</LowerBound>
					<UpperBound>false</UpperBound>
					<value>-91445760000000000,false,0,0,0,0,0,0</value>
					</parameter>
					<parameter authoringApp="PremierePro">
					<parameterid>3</parameterid>
					<name></name>
					<IsTimeVarying>false</IsTimeVarying>
					<value>-91445760000000000,0.5:0.5,0,0,0,0,0,0,5,4,0,0,0,0</value>
					</parameter>
					<parameter authoringApp="PremierePro">
					<parameterid>4</parameterid>
					<name></name>
					<IsTimeVarying>false</IsTimeVarying>
					<ParameterControlType>2</ParameterControlType>
					<LowerBound>0</LowerBound>
					<UpperBound>4000</UpperBound>
					<value>-91445760000000000,100.,0,0,0,0,0,0</value>
					</parameter>
					<parameter authoringApp="PremierePro">
					<parameterid>8</parameterid>
					<name></name>
					<IsTimeVarying>false</IsTimeVarying>
					<ParameterControlType>2</ParameterControlType>
					<LowerBound>0</LowerBound>
					<UpperBound>100</UpperBound>
					<value>-91445760000000000,100.,0,0,0,0,0,0</value>
					</parameter>
					</effect>
					</filter>
					<logginginfo>
					<description></description>
					<scene></scene>
					<shottake></shottake>
					<lognote></lognote>
					<good></good>
					<originalvideofilename></originalvideofilename>
					<originalaudiofilename></originalaudiofilename>
					</logginginfo>
					<colorinfo>
					<lut></lut>
					<lut1></lut1>
					<asc_sop></asc_sop>
					<asc_sat></asc_sat>
					<lut2></lut2>
					</colorinfo>
					<labels>
					</labels>
					</clipitem>
					<clipitem frameBlend="FALSE" id="clipitem-547">
					<masterclipid>masterclip-467</masterclipid>
					<name></name>
					<enabled>TRUE</enabled>
					<duration>2582774</duration>
					<rate>
					
					                                    <timebase>60</timebase>
					                                    <ntsc>TRUE</ntsc>
					                                
					</rate>
					<start>4450</start>
					<end>4516</end>
					<in>4450</in>
					<out>4516</out>
					<pproTicksIn>914456774963789</pproTicksIn>
					<pproTicksOut>914677708529577</pproTicksOut>
					<alphatype>straight</alphatype>
					<pixelaspectratio>square</pixelaspectratio>
					<anamorphic>FALSE</anamorphic>
					<file id="file-466">
					<name></name>
					<mediaSource>GraphicAndType</mediaSource>
					<rate>
					<timebase>60</timebase>
					<ntsc>TRUE</ntsc>
					</rate>
					<timecode>
					<rate>
					<timebase>60</timebase>
					<ntsc>TRUE</ntsc>
					</rate>
					<string>00:00:00:00</string>
					<frame>0</frame>
					<displayformat>NDF</displayformat>
					</timecode>
					<media>
					<video>
					<samplecharacteristics>
					<rate>
					<timebase>60</timebase>
					<ntsc>TRUE</ntsc>
					</rate>
					<width>1080</width>
					<height>1920</height>
					<anamorphic>FALSE</anamorphic>
					<pixelaspectratio>square</pixelaspectratio>
					<fielddominance>none</fielddominance>
					</samplecharacteristics>
					</video>
					</media>
					</file>
					<filter>
					<effect>
					<name></name>
					<effectid>GraphicAndType</effectid>
					<effectcategory>graphic</effectcategory>
					<effecttype>filter</effecttype>
					<mediatype>video</mediatype>
					<pproBypass>false</pproBypass>
					<parameter authoringApp="PremierePro">
					<parameterid>1</parameterid>
					<name></name>
					<hash>025b1101-ead6-0ca2-1feb-caf3000001fc</hash>
					<value>5AEAAAAAAABEMyIRDAAAAAAABgAKAAQABgAAAGQAAAAAAF4ASAAQAAwARABAADwAOAAAAAAAAAAAADQAMwAsAAAAKAAkACAAAAAAAAAAAAAAAAAAHAAAAAAAGgAAAAAAAAAUAAAAAAAAAAAAAAAAAAAAAAAAAAgAAAAAABsABwBeAAAAAAAAAUAAAABQAAAAbAAAAAIAAAAAAAEAAQAAAAAAQEEAAMBAAABAQAAAyEIAAAABIAAAAAIAAAACAAAAAAA2QwCASkTw/v//9P7///j+//8S////AAAAAAEAAAAEAAAAEQAAAEhHUFNvZWlLYWt1cG9wdGFpAAAAAQAAAAwAAAAIAAwABAAIAAgAAAAIAAAAUAAAAA8AAADvvIEAAAAAAAAAAAAAAAAAAAA2ACQAAAAgABwAAAAAABsAFAAAAAAAAAAAAAAAAAAAAAAAAAAAABAAAAAAAAAADAAAAAgABAA2AAAAAgAAABwAAAAcAAAAHAAAAAAAIEEAAAABaAAAAE3PAEOw////tP///wEAAAAUAAAAEAAaAAgABwAMAAAAEAAUABAAAAAAAAABHAAAAAAAoEEcAAAAAgAAAAAACgAIAAUABgAHAAoAAAAADAD//P///wQABAAEAAAACAAIAAYABwAIAAAAAAAMAA==</value>
					</parameter>
					<parameter authoringApp="PremierePro">
					<parameterid>2</parameterid>
					<name></name>
					<IsTimeVarying>false</IsTimeVarying>
					<ParameterControlType>11</ParameterControlType>
					<LowerBound>false</LowerBound>
					<UpperBound>false</UpperBound>
					<value>-91445760000000000,false,0,0,0,0,0,0</value>
					</parameter>
					<parameter authoringApp="PremierePro">
					<parameterid>3</parameterid>
					<name></name>
					<IsTimeVarying>false</IsTimeVarying>
					<value>-91445760000000000,0.5:0.5,0,0,0,0,0,0,5,4,0,0,0,0</value>
					</parameter>
					<parameter authoringApp="PremierePro">
					<parameterid>4</parameterid>
					<name></name>
					<IsTimeVarying>false</IsTimeVarying>
					<ParameterControlType>2</ParameterControlType>
					<LowerBound>0</LowerBound>
					<UpperBound>4000</UpperBound>
					<value>-91445760000000000,100.,0,0,0,0,0,0</value>
					</parameter>
					<parameter authoringApp="PremierePro">
					<parameterid>8</parameterid>
					<name></name>
					<IsTimeVarying>false</IsTimeVarying>
					<ParameterControlType>2</ParameterControlType>
					<LowerBound>0</LowerBound>
					<UpperBound>100</UpperBound>
					<value>-91445760000000000,100.,0,0,0,0,0,0</value>
					</parameter>
					</effect>
					</filter>
					<logginginfo>
					<description></description>
					<scene></scene>
					<shottake></shottake>
					<lognote></lognote>
					<good></good>
					<originalvideofilename></originalvideofilename>
					<originalaudiofilename></originalaudiofilename>
					</logginginfo>
					<colorinfo>
					<lut></lut>
					<lut1></lut1>
					<asc_sop></asc_sop>
					<asc_sat></asc_sat>
					<lut2></lut2>
					</colorinfo>
					<labels>
					</labels>
					</clipitem>
					<clipitem frameBlend="FALSE" id="clipitem-645">
					<masterclipid>masterclip-565</masterclipid>
					<name></name>
					<enabled>TRUE</enabled>
					<duration>2582774</duration>
					<rate>
					
					                                    <timebase>60</timebase>
					                                    <ntsc>TRUE</ntsc>
					                                
					</rate>
					<start>5554</start>
					<end>5584</end>
					<in>5554</in>
					<out>5584</out>
					<pproTicksIn>914456774963789</pproTicksIn>
					<pproTicksOut>914677708529577</pproTicksOut>
					<alphatype>straight</alphatype>
					<pixelaspectratio>square</pixelaspectratio>
					<anamorphic>FALSE</anamorphic>
					<file id="file-564">
					<name></name>
					<mediaSource>GraphicAndType</mediaSource>
					<rate>
					<timebase>60</timebase>
					<ntsc>TRUE</ntsc>
					</rate>
					<timecode>
					<rate>
					<timebase>60</timebase>
					<ntsc>TRUE</ntsc>
					</rate>
					<string>00:00:00:00</string>
					<frame>0</frame>
					<displayformat>NDF</displayformat>
					</timecode>
					<media>
					<video>
					<samplecharacteristics>
					<rate>
					<timebase>60</timebase>
					<ntsc>TRUE</ntsc>
					</rate>
					<width>1080</width>
					<height>1920</height>
					<anamorphic>FALSE</anamorphic>
					<pixelaspectratio>square</pixelaspectratio>
					<fielddominance>none</fielddominance>
					</samplecharacteristics>
					</video>
					</media>
					</file>
					<filter>
					<effect>
					<name>w</name>
					<effectid>GraphicAndType</effectid>
					<effectcategory>graphic</effectcategory>
					<effecttype>filter</effecttype>
					<mediatype>video</mediatype>
					<pproBypass>false</pproBypass>
					<parameter authoringApp="PremierePro">
					<parameterid>1</parameterid>
					<name></name>
					<hash>025b1101-ead6-0ca2-1feb-caf3000001fc</hash>
					<value>5AEAAAAAAABEMyIRDAAAAAAABgAKAAQABgAAAGQAAAAAAF4ASAAQAAwARABAADwAOAAAAAAAAAAAADQAMwAsAAAAKAAkACAAAAAAAAAAAAAAAAAAHAAAAAAAGgAAAAAAAAAUAAAAAAAAAAAAAAAAAAAAAAAAAAgAAAAAABsABwBeAAAAAAAAAUAAAABQAAAAbAAAAAIAAAAAAAEAAQAAAAAAQEEAAMBAAABAQAAAyEIAAAABIAAAAAIAAAACAAAAAAA2QwCASkTw/v//9P7///j+//8S////AAAAAAEAAAAEAAAAEQAAAEhHUFNvZWlLYWt1cG9wdGFpAAAAAQAAAAwAAAAIAAwABAAIAAgAAAAIAAAAUAAAAA8AAAB3AAAAAAAAAAAAAAAAAAAAAAA2ACQAAAAgABwAAAAAABsAFAAAAAAAAAAAAAAAAAAAAAAAAAAAABAAAAAAAAAADAAAAAgABAA2AAAAAgAAABwAAAAcAAAAHAAAAAAAIEEAAAABaAAAAE3PAEOw////tP///wEAAAAUAAAAEAAaAAgABwAMAAAAEAAUABAAAAAAAAABHAAAAAAAoEEcAAAAAgAAAAAACgAIAAUABgAHAAoAAAAADAD//P///wQABAAEAAAACAAIAAYABwAIAAAAAAAMAA==</value>
					</parameter>
					<parameter authoringApp="PremierePro">
					<parameterid>2</parameterid>
					<name></name>
					<IsTimeVarying>false</IsTimeVarying>
					<ParameterControlType>11</ParameterControlType>
					<LowerBound>false</LowerBound>
					<UpperBound>false</UpperBound>
					<value>-91445760000000000,false,0,0,0,0,0,0</value>
					</parameter>
					<parameter authoringApp="PremierePro">
					<parameterid>3</parameterid>
					<name></name>
					<IsTimeVarying>false</IsTimeVarying>
					<value>-91445760000000000,0.5:0.5,0,0,0,0,0,0,5,4,0,0,0,0</value>
					</parameter>
					<parameter authoringApp="PremierePro">
					<parameterid>4</parameterid>
					<name></name>
					<IsTimeVarying>false</IsTimeVarying>
					<ParameterControlType>2</ParameterControlType>
					<LowerBound>0</LowerBound>
					<UpperBound>4000</UpperBound>
					<value>-91445760000000000,100.,0,0,0,0,0,0</value>
					</parameter>
					<parameter authoringApp="PremierePro">
					<parameterid>8</parameterid>
					<name></name>
					<IsTimeVarying>false</IsTimeVarying>
					<ParameterControlType>2</ParameterControlType>
					<LowerBound>0</LowerBound>
					<UpperBound>100</UpperBound>
					<value>-91445760000000000,100.,0,0,0,0,0,0</value>
					</parameter>
					</effect>
					</filter>
					<logginginfo>
					<description></description>
					<scene></scene>
					<shottake></shottake>
					<lognote></lognote>
					<good></good>
					<originalvideofilename></originalvideofilename>
					<originalaudiofilename></originalaudiofilename>
					</logginginfo>
					<colorinfo>
					<lut></lut>
					<lut1></lut1>
					<asc_sop></asc_sop>
					<asc_sat></asc_sat>
					<lut2></lut2>
					</colorinfo>
					<labels>
					</labels>
					</clipitem>
					<clipitem frameBlend="FALSE" id="clipitem-676">
					<masterclipid>masterclip-596</masterclipid>
					<name></name>
					<enabled>TRUE</enabled>
					<duration>2582774</duration>
					<rate>
					
					                                    <timebase>60</timebase>
					                                    <ntsc>TRUE</ntsc>
					                                
					</rate>
					<start>5818</start>
					<end>5878</end>
					<in>5818</in>
					<out>5878</out>
					<pproTicksIn>914456774963789</pproTicksIn>
					<pproTicksOut>914677708529577</pproTicksOut>
					<alphatype>straight</alphatype>
					<pixelaspectratio>square</pixelaspectratio>
					<anamorphic>FALSE</anamorphic>
					<file id="file-595">
					<name></name>
					<mediaSource>GraphicAndType</mediaSource>
					<rate>
					<timebase>60</timebase>
					<ntsc>TRUE</ntsc>
					</rate>
					<timecode>
					<rate>
					<timebase>60</timebase>
					<ntsc>TRUE</ntsc>
					</rate>
					<string>00:00:00:00</string>
					<frame>0</frame>
					<displayformat>NDF</displayformat>
					</timecode>
					<media>
					<video>
					<samplecharacteristics>
					<rate>
					<timebase>60</timebase>
					<ntsc>TRUE</ntsc>
					</rate>
					<width>1080</width>
					<height>1920</height>
					<anamorphic>FALSE</anamorphic>
					<pixelaspectratio>square</pixelaspectratio>
					<fielddominance>none</fielddominance>
					</samplecharacteristics>
					</video>
					</media>
					</file>
					<filter>
					<effect>
					<name></name>
					<effectid>GraphicAndType</effectid>
					<effectcategory>graphic</effectcategory>
					<effecttype>filter</effecttype>
					<mediatype>video</mediatype>
					<pproBypass>false</pproBypass>
					<parameter authoringApp="PremierePro">
					<parameterid>1</parameterid>
					<name></name>
					<hash>025b1101-ead6-0ca2-1feb-caf3000001fc</hash>
					<value>5AEAAAAAAABEMyIRDAAAAAAABgAKAAQABgAAAGQAAAAAAF4ASAAQAAwARABAADwAOAAAAAAAAAAAADQAMwAsAAAAKAAkACAAAAAAAAAAAAAAAAAAHAAAAAAAGgAAAAAAAAAUAAAAAAAAAAAAAAAAAAAAAAAAAAgAAAAAABsABwBeAAAAAAAAAUAAAABQAAAAbAAAAAIAAAAAAAEAAQAAAAAAQEEAAMBAAABAQAAAyEIAAAABIAAAAAIAAAACAAAAAAA2QwCASkTw/v//9P7///j+//8S////AAAAAAEAAAAEAAAAEQAAAEhHUFNvZWlLYWt1cG9wdGFpAAAAAQAAAAwAAAAIAAwABAAIAAgAAAAIAAAAUAAAAA8AAADvvIEAAAAAAAAAAAAAAAAAAAA2ACQAAAAgABwAAAAAABsAFAAAAAAAAAAAAAAAAAAAAAAAAAAAABAAAAAAAAAADAAAAAgABAA2AAAAAgAAABwAAAAcAAAAHAAAAAAAIEEAAAABaAAAAE3PAEOw////tP///wEAAAAUAAAAEAAaAAgABwAMAAAAEAAUABAAAAAAAAABHAAAAAAAoEEcAAAAAgAAAAAACgAIAAUABgAHAAoAAAAADAD//P///wQABAAEAAAACAAIAAYABwAIAAAAAAAMAA==</value>
					</parameter>
					<parameter authoringApp="PremierePro">
					<parameterid>2</parameterid>
					<name></name>
					<IsTimeVarying>false</IsTimeVarying>
					<ParameterControlType>11</ParameterControlType>
					<LowerBound>false</LowerBound>
					<UpperBound>false</UpperBound>
					<value>-91445760000000000,false,0,0,0,0,0,0</value>
					</parameter>
					<parameter authoringApp="PremierePro">
					<parameterid>3</parameterid>
					<name></name>
					<IsTimeVarying>false</IsTimeVarying>
					<value>-91445760000000000,0.5:0.5,0,0,0,0,0,0,5,4,0,0,0,0</value>
					</parameter>
					<parameter authoringApp="PremierePro">
					<parameterid>4</parameterid>
					<name></name>
					<IsTimeVarying>false</IsTimeVarying>
					<ParameterControlType>2</ParameterControlType>
					<LowerBound>0</LowerBound>
					<UpperBound>4000</UpperBound>
					<value>-91445760000000000,100.,0,0,0,0,0,0</value>
					</parameter>
					<parameter authoringApp="PremierePro">
					<parameterid>8</parameterid>
					<name></name>
					<IsTimeVarying>false</IsTimeVarying>
					<ParameterControlType>2</ParameterControlType>
					<LowerBound>0</LowerBound>
					<UpperBound>100</UpperBound>
					<value>-91445760000000000,100.,0,0,0,0,0,0</value>
					</parameter>
					</effect>
					</filter>
					<logginginfo>
					<description></description>
					<scene></scene>
					<shottake></shottake>
					<lognote></lognote>
					<good></good>
					<originalvideofilename></originalvideofilename>
					<originalaudiofilename></originalaudiofilename>
					</logginginfo>
					<colorinfo>
					<lut></lut>
					<lut1></lut1>
					<asc_sop></asc_sop>
					<asc_sat></asc_sat>
					<lut2></lut2>
					</colorinfo>
					<labels>
					</labels>
					</clipitem>
					<enabled>TRUE</enabled>
					<locked>FALSE</locked>
				</track>
				<track TL.SQTrackShy="0" TL.SQTrackExpandedHeight="25" TL.SQTrackExpanded="0" MZ.TrackTargeted="0">
					<clipitem frameBlend="FALSE" id="clipitem-224">
					<masterclipid>masterclip-144</masterclipid>
					<name></name>
					<enabled>TRUE</enabled>
					<duration>2582774</duration>
					<rate>
					
					                                    <timebase>60</timebase>
					                                    <ntsc>TRUE</ntsc>
					                                
					</rate>
					<start>977</start>
					<end>1043</end>
					<in>977</in>
					<out>1043</out>
					<pproTicksIn>914456774963789</pproTicksIn>
					<pproTicksOut>914677708529577</pproTicksOut>
					<alphatype>straight</alphatype>
					<pixelaspectratio>square</pixelaspectratio>
					<anamorphic>FALSE</anamorphic>
					<file id="file-143">
					<name></name>
					<mediaSource>GraphicAndType</mediaSource>
					<rate>
					<timebase>60</timebase>
					<ntsc>TRUE</ntsc>
					</rate>
					<timecode>
					<rate>
					<timebase>60</timebase>
					<ntsc>TRUE</ntsc>
					</rate>
					<string>00:00:00:00</string>
					<frame>0</frame>
					<displayformat>NDF</displayformat>
					</timecode>
					<media>
					<video>
					<samplecharacteristics>
					<rate>
					<timebase>60</timebase>
					<ntsc>TRUE</ntsc>
					</rate>
					<width>1080</width>
					<height>1920</height>
					<anamorphic>FALSE</anamorphic>
					<pixelaspectratio>square</pixelaspectratio>
					<fielddominance>none</fielddominance>
					</samplecharacteristics>
					</video>
					</media>
					</file>
					<filter>
					<effect>
					<name></name>
					<effectid>GraphicAndType</effectid>
					<effectcategory>graphic</effectcategory>
					<effecttype>filter</effecttype>
					<mediatype>video</mediatype>
					<pproBypass>false</pproBypass>
					<parameter authoringApp="PremierePro">
					<parameterid>1</parameterid>
					<name></name>
					<hash>025b1101-ead6-0ca2-1feb-caf3000001fc</hash>
					<value>5AEAAAAAAABEMyIRDAAAAAAABgAKAAQABgAAAGQAAAAAAF4ASAAQAAwARABAADwAOAAAAAAAAAAAADQAMwAsAAAAKAAkACAAAAAAAAAAAAAAAAAAHAAAAAAAGgAAAAAAAAAUAAAAAAAAAAAAAAAAAAAAAAAAAAgAAAAAABsABwBeAAAAAAAAAUAAAABQAAAAbAAAAAIAAAAAAAEAAQAAAAAAQEEAAMBAAABAQAAAyEIAAAABIAAAAAIAAAACAAAAAAA2QwCASkTw/v//9P7///j+//8S////AAAAAAEAAAAEAAAAEQAAAEhHUFNvZWlLYWt1cG9wdGFpAAAAAQAAAAwAAAAIAAwABAAIAAgAAAAIAAAAUAAAAA8AAADvvIEAAAAAAAAAAAAAAAAAAAA2ACQAAAAgABwAAAAAABsAFAAAAAAAAAAAAAAAAAAAAAAAAAAAABAAAAAAAAAADAAAAAgABAA2AAAAAgAAABwAAAAcAAAAHAAAAAAAIEEAAAABaAAAAE3PAEOw////tP///wEAAAAUAAAAEAAaAAgABwAMAAAAEAAUABAAAAAAAAABHAAAAAAAoEEcAAAAAgAAAAAACgAIAAUABgAHAAoAAAAADAD//P///wQABAAEAAAACAAIAAYABwAIAAAAAAAMAA==</value>
					</parameter>
					<parameter authoringApp="PremierePro">
					<parameterid>2</parameterid>
					<name></name>
					<IsTimeVarying>false</IsTimeVarying>
					<ParameterControlType>11</ParameterControlType>
					<LowerBound>false</LowerBound>
					<UpperBound>false</UpperBound>
					<value>-91445760000000000,false,0,0,0,0,0,0</value>
					</parameter>
					<parameter authoringApp="PremierePro">
					<parameterid>3</parameterid>
					<name></name>
					<IsTimeVarying>false</IsTimeVarying>
					<value>-91445760000000000,0.5:0.5,0,0,0,0,0,0,5,4,0,0,0,0</value>
					</parameter>
					<parameter authoringApp="PremierePro">
					<parameterid>4</parameterid>
					<name></name>
					<IsTimeVarying>false</IsTimeVarying>
					<ParameterControlType>2</ParameterControlType>
					<LowerBound>0</LowerBound>
					<UpperBound>4000</UpperBound>
					<value>-91445760000000000,100.,0,0,0,0,0,0</value>
					</parameter>
					<parameter authoringApp="PremierePro">
					<parameterid>8</parameterid>
					<name></name>
					<IsTimeVarying>false</IsTimeVarying>
					<ParameterControlType>2</ParameterControlType>
					<LowerBound>0</LowerBound>
					<UpperBound>100</UpperBound>
					<value>-91445760000000000,100.,0,0,0,0,0,0</value>
					</parameter>
					</effect>
					</filter>
					<logginginfo>
					<description></description>
					<scene></scene>
					<shottake></shottake>
					<lognote></lognote>
					<good></good>
					<originalvideofilename></originalvideofilename>
					<originalaudiofilename></originalaudiofilename>
					</logginginfo>
					<colorinfo>
					<lut></lut>
					<lut1></lut1>
					<asc_sop></asc_sop>
					<asc_sat></asc_sat>
					<lut2></lut2>
					</colorinfo>
					<labels>
					</labels>
					</clipitem>
					<clipitem frameBlend="FALSE" id="clipitem-315">
					<masterclipid>masterclip-235</masterclipid>
					<name></name>
					<enabled>TRUE</enabled>
					<duration>2582774</duration>
					<rate>
					
					                                    <timebase>60</timebase>
					                                    <ntsc>TRUE</ntsc>
					                                
					</rate>
					<start>1823</start>
					<end>1889</end>
					<in>1823</in>
					<out>1889</out>
					<pproTicksIn>914456774963789</pproTicksIn>
					<pproTicksOut>914677708529577</pproTicksOut>
					<alphatype>straight</alphatype>
					<pixelaspectratio>square</pixelaspectratio>
					<anamorphic>FALSE</anamorphic>
					<file id="file-234">
					<name></name>
					<mediaSource>GraphicAndType</mediaSource>
					<rate>
					<timebase>60</timebase>
					<ntsc>TRUE</ntsc>
					</rate>
					<timecode>
					<rate>
					<timebase>60</timebase>
					<ntsc>TRUE</ntsc>
					</rate>
					<string>00:00:00:00</string>
					<frame>0</frame>
					<displayformat>NDF</displayformat>
					</timecode>
					<media>
					<video>
					<samplecharacteristics>
					<rate>
					<timebase>60</timebase>
					<ntsc>TRUE</ntsc>
					</rate>
					<width>1080</width>
					<height>1920</height>
					<anamorphic>FALSE</anamorphic>
					<pixelaspectratio>square</pixelaspectratio>
					<fielddominance>none</fielddominance>
					</samplecharacteristics>
					</video>
					</media>
					</file>
					<filter>
					<effect>
					<name></name>
					<effectid>GraphicAndType</effectid>
					<effectcategory>graphic</effectcategory>
					<effecttype>filter</effecttype>
					<mediatype>video</mediatype>
					<pproBypass>false</pproBypass>
					<parameter authoringApp="PremierePro">
					<parameterid>1</parameterid>
					<name></name>
					<hash>025b1101-ead6-0ca2-1feb-caf3000001fc</hash>
					<value>5AEAAAAAAABEMyIRDAAAAAAABgAKAAQABgAAAGQAAAAAAF4ASAAQAAwARABAADwAOAAAAAAAAAAAADQAMwAsAAAAKAAkACAAAAAAAAAAAAAAAAAAHAAAAAAAGgAAAAAAAAAUAAAAAAAAAAAAAAAAAAAAAAAAAAgAAAAAABsABwBeAAAAAAAAAUAAAABQAAAAbAAAAAIAAAAAAAEAAQAAAAAAQEEAAMBAAABAQAAAyEIAAAABIAAAAAIAAAACAAAAAAA2QwCASkTw/v//9P7///j+//8S////AAAAAAEAAAAEAAAAEQAAAEhHUFNvZWlLYWt1cG9wdGFpAAAAAQAAAAwAAAAIAAwABAAIAAgAAAAIAAAAUAAAAA8AAADvvIEAAAAAAAAAAAAAAAAAAAA2ACQAAAAgABwAAAAAABsAFAAAAAAAAAAAAAAAAAAAAAAAAAAAABAAAAAAAAAADAAAAAgABAA2AAAAAgAAABwAAAAcAAAAHAAAAAAAIEEAAAABaAAAAE3PAEOw////tP///wEAAAAUAAAAEAAaAAgABwAMAAAAEAAUABAAAAAAAAABHAAAAAAAoEEcAAAAAgAAAAAACgAIAAUABgAHAAoAAAAADAD//P///wQABAAEAAAACAAIAAYABwAIAAAAAAAMAA==</value>
					</parameter>
					<parameter authoringApp="PremierePro">
					<parameterid>2</parameterid>
					<name></name>
					<IsTimeVarying>false</IsTimeVarying>
					<ParameterControlType>11</ParameterControlType>
					<LowerBound>false</LowerBound>
					<UpperBound>false</UpperBound>
					<value>-91445760000000000,false,0,0,0,0,0,0</value>
					</parameter>
					<parameter authoringApp="PremierePro">
					<parameterid>3</parameterid>
					<name></name>
					<IsTimeVarying>false</IsTimeVarying>
					<value>-91445760000000000,0.5:0.5,0,0,0,0,0,0,5,4,0,0,0,0</value>
					</parameter>
					<parameter authoringApp="PremierePro">
					<parameterid>4</parameterid>
					<name></name>
					<IsTimeVarying>false</IsTimeVarying>
					<ParameterControlType>2</ParameterControlType>
					<LowerBound>0</LowerBound>
					<UpperBound>4000</UpperBound>
					<value>-91445760000000000,100.,0,0,0,0,0,0</value>
					</parameter>
					<parameter authoringApp="PremierePro">
					<parameterid>8</parameterid>
					<name></name>
					<IsTimeVarying>false</IsTimeVarying>
					<ParameterControlType>2</ParameterControlType>
					<LowerBound>0</LowerBound>
					<UpperBound>100</UpperBound>
					<value>-91445760000000000,100.,0,0,0,0,0,0</value>
					</parameter>
					</effect>
					</filter>
					<logginginfo>
					<description></description>
					<scene></scene>
					<shottake></shottake>
					<lognote></lognote>
					<good></good>
					<originalvideofilename></originalvideofilename>
					<originalaudiofilename></originalaudiofilename>
					</logginginfo>
					<colorinfo>
					<lut></lut>
					<lut1></lut1>
					<asc_sop></asc_sop>
					<asc_sat></asc_sat>
					<lut2></lut2>
					</colorinfo>
					<labels>
					</labels>
					</clipitem>
					<clipitem id="clipitem-548"/>
					                        </track>
					                        <track TL.SQTrackShy="0" TL.SQTrackExpandedHeight="25" TL.SQTrackExpanded="0" MZ.TrackTargeted="0">
					<clipitem frameBlend="FALSE" id="clipitem-549">
					<masterclipid>masterclip-469</masterclipid>
					<name></name>
					<enabled>TRUE</enabled>
					<duration>2582774</duration>
					<rate>
					
					                                    <timebase>60</timebase>
					                                    <ntsc>TRUE</ntsc>
					                                
					</rate>
					<start>4456</start>
					<end>4522</end>
					<in>4456</in>
					<out>4522</out>
					<pproTicksIn>914456774963789</pproTicksIn>
					<pproTicksOut>914677708529577</pproTicksOut>
					<alphatype>straight</alphatype>
					<pixelaspectratio>square</pixelaspectratio>
					<anamorphic>FALSE</anamorphic>
					<file id="file-468">
					<name></name>
					<mediaSource>GraphicAndType</mediaSource>
					<rate>
					<timebase>60</timebase>
					<ntsc>TRUE</ntsc>
					</rate>
					<timecode>
					<rate>
					<timebase>60</timebase>
					<ntsc>TRUE</ntsc>
					</rate>
					<string>00:00:00:00</string>
					<frame>0</frame>
					<displayformat>NDF</displayformat>
					</timecode>
					<media>
					<video>
					<samplecharacteristics>
					<rate>
					<timebase>60</timebase>
					<ntsc>TRUE</ntsc>
					</rate>
					<width>1080</width>
					<height>1920</height>
					<anamorphic>FALSE</anamorphic>
					<pixelaspectratio>square</pixelaspectratio>
					<fielddominance>none</fielddominance>
					</samplecharacteristics>
					</video>
					</media>
					</file>
					<filter>
					<effect>
					<name></name>
					<effectid>GraphicAndType</effectid>
					<effectcategory>graphic</effectcategory>
					<effecttype>filter</effecttype>
					<mediatype>video</mediatype>
					<pproBypass>false</pproBypass>
					<parameter authoringApp="PremierePro">
					<parameterid>1</parameterid>
					<name></name>
					<hash>025b1101-ead6-0ca2-1feb-caf3000001fc</hash>
					<value>5AEAAAAAAABEMyIRDAAAAAAABgAKAAQABgAAAGQAAAAAAF4ASAAQAAwARABAADwAOAAAAAAAAAAAADQAMwAsAAAAKAAkACAAAAAAAAAAAAAAAAAAHAAAAAAAGgAAAAAAAAAUAAAAAAAAAAAAAAAAAAAAAAAAAAgAAAAAABsABwBeAAAAAAAAAUAAAABQAAAAbAAAAAIAAAAAAAEAAQAAAAAAQEEAAMBAAABAQAAAyEIAAAABIAAAAAIAAAACAAAAAAA2QwCASkTw/v//9P7///j+//8S////AAAAAAEAAAAEAAAAEQAAAEhHUFNvZWlLYWt1cG9wdGFpAAAAAQAAAAwAAAAIAAwABAAIAAgAAAAIAAAAUAAAAA8AAADvvIEAAAAAAAAAAAAAAAAAAAA2ACQAAAAgABwAAAAAABsAFAAAAAAAAAAAAAAAAAAAAAAAAAAAABAAAAAAAAAADAAAAAgABAA2AAAAAgAAABwAAAAcAAAAHAAAAAAAIEEAAAABaAAAAE3PAEOw////tP///wEAAAAUAAAAEAAaAAgABwAMAAAAEAAUABAAAAAAAAABHAAAAAAAoEEcAAAAAgAAAAAACgAIAAUABgAHAAoAAAAADAD//P///wQABAAEAAAACAAIAAYABwAIAAAAAAAMAA==</value>
					</parameter>
					<parameter authoringApp="PremierePro">
					<parameterid>2</parameterid>
					<name></name>
					<IsTimeVarying>false</IsTimeVarying>
					<ParameterControlType>11</ParameterControlType>
					<LowerBound>false</LowerBound>
					<UpperBound>false</UpperBound>
					<value>-91445760000000000,false,0,0,0,0,0,0</value>
					</parameter>
					<parameter authoringApp="PremierePro">
					<parameterid>3</parameterid>
					<name></name>
					<IsTimeVarying>false</IsTimeVarying>
					<value>-91445760000000000,0.5:0.5,0,0,0,0,0,0,5,4,0,0,0,0</value>
					</parameter>
					<parameter authoringApp="PremierePro">
					<parameterid>4</parameterid>
					<name></name>
					<IsTimeVarying>false</IsTimeVarying>
					<ParameterControlType>2</ParameterControlType>
					<LowerBound>0</LowerBound>
					<UpperBound>4000</UpperBound>
					<value>-91445760000000000,100.,0,0,0,0,0,0</value>
					</parameter>
					<parameter authoringApp="PremierePro">
					<parameterid>8</parameterid>
					<name></name>
					<IsTimeVarying>false</IsTimeVarying>
					<ParameterControlType>2</ParameterControlType>
					<LowerBound>0</LowerBound>
					<UpperBound>100</UpperBound>
					<value>-91445760000000000,100.,0,0,0,0,0,0</value>
					</parameter>
					</effect>
					</filter>
					<logginginfo>
					<description></description>
					<scene></scene>
					<shottake></shottake>
					<lognote></lognote>
					<good></good>
					<originalvideofilename></originalvideofilename>
					<originalaudiofilename></originalaudiofilename>
					</logginginfo>
					<colorinfo>
					<lut></lut>
					<lut1></lut1>
					<asc_sop></asc_sop>
					<asc_sat></asc_sat>
					<lut2></lut2>
					</colorinfo>
					<labels>
					</labels>
					</clipitem>
					<clipitem frameBlend="FALSE" id="clipitem-678">
					<masterclipid>masterclip-598</masterclipid>
					<name></name>
					<enabled>TRUE</enabled>
					<duration>2582774</duration>
					<rate>
					
					                                    <timebase>60</timebase>
					                                    <ntsc>TRUE</ntsc>
					                                
					</rate>
					<start>5830</start>
					<end>5896</end>
					<in>5830</in>
					<out>5896</out>
					<pproTicksIn>914456774963789</pproTicksIn>
					<pproTicksOut>914677708529577</pproTicksOut>
					<alphatype>straight</alphatype>
					<pixelaspectratio>square</pixelaspectratio>
					<anamorphic>FALSE</anamorphic>
					<file id="file-597">
					<name></name>
					<mediaSource>GraphicAndType</mediaSource>
					<rate>
					<timebase>60</timebase>
					<ntsc>TRUE</ntsc>
					</rate>
					<timecode>
					<rate>
					<timebase>60</timebase>
					<ntsc>TRUE</ntsc>
					</rate>
					<string>00:00:00:00</string>
					<frame>0</frame>
					<displayformat>NDF</displayformat>
					</timecode>
					<media>
					<video>
					<samplecharacteristics>
					<rate>
					<timebase>60</timebase>
					<ntsc>TRUE</ntsc>
					</rate>
					<width>1080</width>
					<height>1920</height>
					<anamorphic>FALSE</anamorphic>
					<pixelaspectratio>square</pixelaspectratio>
					<fielddominance>none</fielddominance>
					</samplecharacteristics>
					</video>
					</media>
					</file>
					<filter>
					<effect>
					<name></name>
					<effectid>GraphicAndType</effectid>
					<effectcategory>graphic</effectcategory>
					<effecttype>filter</effecttype>
					<mediatype>video</mediatype>
					<pproBypass>false</pproBypass>
					<parameter authoringApp="PremierePro">
					<parameterid>1</parameterid>
					<name></name>
					<hash>025b1101-ead6-0ca2-1feb-caf3000001fc</hash>
					<value>5AEAAAAAAABEMyIRDAAAAAAABgAKAAQABgAAAGQAAAAAAF4ASAAQAAwARABAADwAOAAAAAAAAAAAADQAMwAsAAAAKAAkACAAAAAAAAAAAAAAAAAAHAAAAAAAGgAAAAAAAAAUAAAAAAAAAAAAAAAAAAAAAAAAAAgAAAAAABsABwBeAAAAAAAAAUAAAABQAAAAbAAAAAIAAAAAAAEAAQAAAAAAQEEAAMBAAABAQAAAyEIAAAABIAAAAAIAAAACAAAAAAA2QwCASkTw/v//9P7///j+//8S////AAAAAAEAAAAEAAAAEQAAAEhHUFNvZWlLYWt1cG9wdGFpAAAAAQAAAAwAAAAIAAwABAAIAAgAAAAIAAAAUAAAAA8AAADvvIEAAAAAAAAAAAAAAAAAAAA2ACQAAAAgABwAAAAAABsAFAAAAAAAAAAAAAAAAAAAAAAAAAAAABAAAAAAAAAADAAAAAgABAA2AAAAAgAAABwAAAAcAAAAHAAAAAAAIEEAAAABaAAAAE3PAEOw////tP///wEAAAAUAAAAEAAaAAgABwAMAAAAEAAUABAAAAAAAAABHAAAAAAAoEEcAAAAAgAAAAAACgAIAAUABgAHAAoAAAAADAD//P///wQABAAEAAAACAAIAAYABwAIAAAAAAAMAA==</value>
					</parameter>
					<parameter authoringApp="PremierePro">
					<parameterid>2</parameterid>
					<name></name>
					<IsTimeVarying>false</IsTimeVarying>
					<ParameterControlType>11</ParameterControlType>
					<LowerBound>false</LowerBound>
					<UpperBound>false</UpperBound>
					<value>-91445760000000000,false,0,0,0,0,0,0</value>
					</parameter>
					<parameter authoringApp="PremierePro">
					<parameterid>3</parameterid>
					<name></name>
					<IsTimeVarying>false</IsTimeVarying>
					<value>-91445760000000000,0.5:0.5,0,0,0,0,0,0,5,4,0,0,0,0</value>
					</parameter>
					<parameter authoringApp="PremierePro">
					<parameterid>4</parameterid>
					<name></name>
					<IsTimeVarying>false</IsTimeVarying>
					<ParameterControlType>2</ParameterControlType>
					<LowerBound>0</LowerBound>
					<UpperBound>4000</UpperBound>
					<value>-91445760000000000,100.,0,0,0,0,0,0</value>
					</parameter>
					<parameter authoringApp="PremierePro">
					<parameterid>8</parameterid>
					<name></name>
					<IsTimeVarying>false</IsTimeVarying>
					<ParameterControlType>2</ParameterControlType>
					<LowerBound>0</LowerBound>
					<UpperBound>100</UpperBound>
					<value>-91445760000000000,100.,0,0,0,0,0,0</value>
					</parameter>
					</effect>
					</filter>
					<logginginfo>
					<description></description>
					<scene></scene>
					<shottake></shottake>
					<lognote></lognote>
					<good></good>
					<originalvideofilename></originalvideofilename>
					<originalaudiofilename></originalaudiofilename>
					</logginginfo>
					<colorinfo>
					<lut></lut>
					<lut1></lut1>
					<asc_sop></asc_sop>
					<asc_sat></asc_sat>
					<lut2></lut2>
					</colorinfo>
					<labels>
					</labels>
					</clipitem>
					<enabled>TRUE</enabled>
					<locked>FALSE</locked>
				</track>
				<track TL.SQTrackShy="0" TL.SQTrackExpandedHeight="25" TL.SQTrackExpanded="0" MZ.TrackTargeted="0">
					<clipitem frameBlend="FALSE" id="clipitem-226">
					<masterclipid>masterclip-146</masterclipid>
					<name></name>
					<enabled>TRUE</enabled>
					<duration>2582774</duration>
					<rate>
					
					                                    <timebase>60</timebase>
					                                    <ntsc>TRUE</ntsc>
					                                
					</rate>
					<start>983</start>
					<end>1049</end>
					<in>983</in>
					<out>1049</out>
					<pproTicksIn>914456774963789</pproTicksIn>
					<pproTicksOut>914677708529577</pproTicksOut>
					<alphatype>straight</alphatype>
					<pixelaspectratio>square</pixelaspectratio>
					<anamorphic>FALSE</anamorphic>
					<file id="file-145">
					<name></name>
					<mediaSource>GraphicAndType</mediaSource>
					<rate>
					<timebase>60</timebase>
					<ntsc>TRUE</ntsc>
					</rate>
					<timecode>
					<rate>
					<timebase>60</timebase>
					<ntsc>TRUE</ntsc>
					</rate>
					<string>00:00:00:00</string>
					<frame>0</frame>
					<displayformat>NDF</displayformat>
					</timecode>
					<media>
					<video>
					<samplecharacteristics>
					<rate>
					<timebase>60</timebase>
					<ntsc>TRUE</ntsc>
					</rate>
					<width>1080</width>
					<height>1920</height>
					<anamorphic>FALSE</anamorphic>
					<pixelaspectratio>square</pixelaspectratio>
					<fielddominance>none</fielddominance>
					</samplecharacteristics>
					</video>
					</media>
					</file>
					<filter>
					<effect>
					<name></name>
					<effectid>GraphicAndType</effectid>
					<effectcategory>graphic</effectcategory>
					<effecttype>filter</effecttype>
					<mediatype>video</mediatype>
					<pproBypass>false</pproBypass>
					<parameter authoringApp="PremierePro">
					<parameterid>1</parameterid>
					<name></name>
					<hash>025b1101-ead6-0ca2-1feb-caf3000001fc</hash>
					<value>5AEAAAAAAABEMyIRDAAAAAAABgAKAAQABgAAAGQAAAAAAF4ASAAQAAwARABAADwAOAAAAAAAAAAAADQAMwAsAAAAKAAkACAAAAAAAAAAAAAAAAAAHAAAAAAAGgAAAAAAAAAUAAAAAAAAAAAAAAAAAAAAAAAAAAgAAAAAABsABwBeAAAAAAAAAUAAAABQAAAAbAAAAAIAAAAAAAEAAQAAAAAAQEEAAMBAAABAQAAAyEIAAAABIAAAAAIAAAACAAAAAAA2QwCASkTw/v//9P7///j+//8S////AAAAAAEAAAAEAAAAEQAAAEhHUFNvZWlLYWt1cG9wdGFpAAAAAQAAAAwAAAAIAAwABAAIAAgAAAAIAAAAUAAAAA8AAADvvIEAAAAAAAAAAAAAAAAAAAA2ACQAAAAgABwAAAAAABsAFAAAAAAAAAAAAAAAAAAAAAAAAAAAABAAAAAAAAAADAAAAAgABAA2AAAAAgAAABwAAAAcAAAAHAAAAAAAIEEAAAABaAAAAE3PAEOw////tP///wEAAAAUAAAAEAAaAAgABwAMAAAAEAAUABAAAAAAAAABHAAAAAAAoEEcAAAAAgAAAAAACgAIAAUABgAHAAoAAAAADAD//P///wQABAAEAAAACAAIAAYABwAIAAAAAAAMAA==</value>
					</parameter>
					<parameter authoringApp="PremierePro">
					<parameterid>2</parameterid>
					<name></name>
					<IsTimeVarying>false</IsTimeVarying>
					<ParameterControlType>11</ParameterControlType>
					<LowerBound>false</LowerBound>
					<UpperBound>false</UpperBound>
					<value>-91445760000000000,false,0,0,0,0,0,0</value>
					</parameter>
					<parameter authoringApp="PremierePro">
					<parameterid>3</parameterid>
					<name></name>
					<IsTimeVarying>false</IsTimeVarying>
					<value>-91445760000000000,0.5:0.5,0,0,0,0,0,0,5,4,0,0,0,0</value>
					</parameter>
					<parameter authoringApp="PremierePro">
					<parameterid>4</parameterid>
					<name></name>
					<IsTimeVarying>false</IsTimeVarying>
					<ParameterControlType>2</ParameterControlType>
					<LowerBound>0</LowerBound>
					<UpperBound>4000</UpperBound>
					<value>-91445760000000000,100.,0,0,0,0,0,0</value>
					</parameter>
					<parameter authoringApp="PremierePro">
					<parameterid>8</parameterid>
					<name></name>
					<IsTimeVarying>false</IsTimeVarying>
					<ParameterControlType>2</ParameterControlType>
					<LowerBound>0</LowerBound>
					<UpperBound>100</UpperBound>
					<value>-91445760000000000,100.,0,0,0,0,0,0</value>
					</parameter>
					</effect>
					</filter>
					<logginginfo>
					<description></description>
					<scene></scene>
					<shottake></shottake>
					<lognote></lognote>
					<good></good>
					<originalvideofilename></originalvideofilename>
					<originalaudiofilename></originalaudiofilename>
					</logginginfo>
					<colorinfo>
					<lut></lut>
					<lut1></lut1>
					<asc_sop></asc_sop>
					<asc_sat></asc_sat>
					<lut2></lut2>
					</colorinfo>
					<labels>
					</labels>
					</clipitem>
					<clipitem frameBlend="FALSE" id="clipitem-318">
					<masterclipid>masterclip-238</masterclipid>
					<name></name>
					<enabled>TRUE</enabled>
					<duration>2582774</duration>
					<rate>
					
					                                    <timebase>60</timebase>
					                                    <ntsc>TRUE</ntsc>
					                                
					</rate>
					<start>1835</start>
					<end>1901</end>
					<in>1835</in>
					<out>1901</out>
					<pproTicksIn>914456774963789</pproTicksIn>
					<pproTicksOut>914677708529577</pproTicksOut>
					<alphatype>straight</alphatype>
					<pixelaspectratio>square</pixelaspectratio>
					<anamorphic>FALSE</anamorphic>
					<file id="file-237">
					<name></name>
					<mediaSource>GraphicAndType</mediaSource>
					<rate>
					<timebase>60</timebase>
					<ntsc>TRUE</ntsc>
					</rate>
					<timecode>
					<rate>
					<timebase>60</timebase>
					<ntsc>TRUE</ntsc>
					</rate>
					<string>00:00:00:00</string>
					<frame>0</frame>
					<displayformat>NDF</displayformat>
					</timecode>
					<media>
					<video>
					<samplecharacteristics>
					<rate>
					<timebase>60</timebase>
					<ntsc>TRUE</ntsc>
					</rate>
					<width>1080</width>
					<height>1920</height>
					<anamorphic>FALSE</anamorphic>
					<pixelaspectratio>square</pixelaspectratio>
					<fielddominance>none</fielddominance>
					</samplecharacteristics>
					</video>
					</media>
					</file>
					<filter>
					<effect>
					<name></name>
					<effectid>GraphicAndType</effectid>
					<effectcategory>graphic</effectcategory>
					<effecttype>filter</effecttype>
					<mediatype>video</mediatype>
					<pproBypass>false</pproBypass>
					<parameter authoringApp="PremierePro">
					<parameterid>1</parameterid>
					<name></name>
					<hash>025b1101-ead6-0ca2-1feb-caf3000001fc</hash>
					<value>5AEAAAAAAABEMyIRDAAAAAAABgAKAAQABgAAAGQAAAAAAF4ASAAQAAwARABAADwAOAAAAAAAAAAAADQAMwAsAAAAKAAkACAAAAAAAAAAAAAAAAAAHAAAAAAAGgAAAAAAAAAUAAAAAAAAAAAAAAAAAAAAAAAAAAgAAAAAABsABwBeAAAAAAAAAUAAAABQAAAAbAAAAAIAAAAAAAEAAQAAAAAAQEEAAMBAAABAQAAAyEIAAAABIAAAAAIAAAACAAAAAAA2QwCASkTw/v//9P7///j+//8S////AAAAAAEAAAAEAAAAEQAAAEhHUFNvZWlLYWt1cG9wdGFpAAAAAQAAAAwAAAAIAAwABAAIAAgAAAAIAAAAUAAAAA8AAADvvIEAAAAAAAAAAAAAAAAAAAA2ACQAAAAgABwAAAAAABsAFAAAAAAAAAAAAAAAAAAAAAAAAAAAABAAAAAAAAAADAAAAAgABAA2AAAAAgAAABwAAAAcAAAAHAAAAAAAIEEAAAABaAAAAE3PAEOw////tP///wEAAAAUAAAAEAAaAAgABwAMAAAAEAAUABAAAAAAAAABHAAAAAAAoEEcAAAAAgAAAAAACgAIAAUABgAHAAoAAAAADAD//P///wQABAAEAAAACAAIAAYABwAIAAAAAAAMAA==</value>
					</parameter>
					<parameter authoringApp="PremierePro">
					<parameterid>2</parameterid>
					<name></name>
					<IsTimeVarying>false</IsTimeVarying>
					<ParameterControlType>11</ParameterControlType>
					<LowerBound>false</LowerBound>
					<UpperBound>false</UpperBound>
					<value>-91445760000000000,false,0,0,0,0,0,0</value>
					</parameter>
					<parameter authoringApp="PremierePro">
					<parameterid>3</parameterid>
					<name></name>
					<IsTimeVarying>false</IsTimeVarying>
					<value>-91445760000000000,0.5:0.5,0,0,0,0,0,0,5,4,0,0,0,0</value>
					</parameter>
					<parameter authoringApp="PremierePro">
					<parameterid>4</parameterid>
					<name></name>
					<IsTimeVarying>false</IsTimeVarying>
					<ParameterControlType>2</ParameterControlType>
					<LowerBound>0</LowerBound>
					<UpperBound>4000</UpperBound>
					<value>-91445760000000000,100.,0,0,0,0,0,0</value>
					</parameter>
					<parameter authoringApp="PremierePro">
					<parameterid>8</parameterid>
					<name></name>
					<IsTimeVarying>false</IsTimeVarying>
					<ParameterControlType>2</ParameterControlType>
					<LowerBound>0</LowerBound>
					<UpperBound>100</UpperBound>
					<value>-91445760000000000,100.,0,0,0,0,0,0</value>
					</parameter>
					</effect>
					</filter>
					<logginginfo>
					<description></description>
					<scene></scene>
					<shottake></shottake>
					<lognote></lognote>
					<good></good>
					<originalvideofilename></originalvideofilename>
					<originalaudiofilename></originalaudiofilename>
					</logginginfo>
					<colorinfo>
					<lut></lut>
					<lut1></lut1>
					<asc_sop></asc_sop>
					<asc_sat></asc_sat>
					<lut2></lut2>
					</colorinfo>
					<labels>
					</labels>
					</clipitem>
					<enabled>TRUE</enabled>
					<locked>FALSE</locked>
				</track>
				<track TL.SQTrackShy="0" TL.SQTrackExpandedHeight="25" TL.SQTrackExpanded="0" MZ.TrackTargeted="0">
					<clipitem frameBlend="FALSE" id="clipitem-227">
					<masterclipid>masterclip-147</masterclipid>
					<name></name>
					<enabled>TRUE</enabled>
					<duration>2582774</duration>
					<rate>
					
					                                    <timebase>60</timebase>
					                                    <ntsc>TRUE</ntsc>
					                                
					</rate>
					<start>989</start>
					<end>1049</end>
					<in>989</in>
					<out>1049</out>
					<pproTicksIn>914456774963789</pproTicksIn>
					<pproTicksOut>914677708529577</pproTicksOut>
					<alphatype>straight</alphatype>
					<pixelaspectratio>square</pixelaspectratio>
					<anamorphic>FALSE</anamorphic>
					<file id="file-146">
					<name></name>
					<mediaSource>GraphicAndType</mediaSource>
					<rate>
					<timebase>60</timebase>
					<ntsc>TRUE</ntsc>
					</rate>
					<timecode>
					<rate>
					<timebase>60</timebase>
					<ntsc>TRUE</ntsc>
					</rate>
					<string>00:00:00:00</string>
					<frame>0</frame>
					<displayformat>NDF</displayformat>
					</timecode>
					<media>
					<video>
					<samplecharacteristics>
					<rate>
					<timebase>60</timebase>
					<ntsc>TRUE</ntsc>
					</rate>
					<width>1080</width>
					<height>1920</height>
					<anamorphic>FALSE</anamorphic>
					<pixelaspectratio>square</pixelaspectratio>
					<fielddominance>none</fielddominance>
					</samplecharacteristics>
					</video>
					</media>
					</file>
					<filter>
					<effect>
					<name></name>
					<effectid>GraphicAndType</effectid>
					<effectcategory>graphic</effectcategory>
					<effecttype>filter</effecttype>
					<mediatype>video</mediatype>
					<pproBypass>false</pproBypass>
					<parameter authoringApp="PremierePro">
					<parameterid>1</parameterid>
					<name></name>
					<hash>025b1101-ead6-0ca2-1feb-caf3000001fc</hash>
					<value>5AEAAAAAAABEMyIRDAAAAAAABgAKAAQABgAAAGQAAAAAAF4ASAAQAAwARABAADwAOAAAAAAAAAAAADQAMwAsAAAAKAAkACAAAAAAAAAAAAAAAAAAHAAAAAAAGgAAAAAAAAAUAAAAAAAAAAAAAAAAAAAAAAAAAAgAAAAAABsABwBeAAAAAAAAAUAAAABQAAAAbAAAAAIAAAAAAAEAAQAAAAAAQEEAAMBAAABAQAAAyEIAAAABIAAAAAIAAAACAAAAAAA2QwCASkTw/v//9P7///j+//8S////AAAAAAEAAAAEAAAAEQAAAEhHUFNvZWlLYWt1cG9wdGFpAAAAAQAAAAwAAAAIAAwABAAIAAgAAAAIAAAAUAAAAA8AAADvvIEAAAAAAAAAAAAAAAAAAAA2ACQAAAAgABwAAAAAABsAFAAAAAAAAAAAAAAAAAAAAAAAAAAAABAAAAAAAAAADAAAAAgABAA2AAAAAgAAABwAAAAcAAAAHAAAAAAAIEEAAAABaAAAAE3PAEOw////tP///wEAAAAUAAAAEAAaAAgABwAMAAAAEAAUABAAAAAAAAABHAAAAAAAoEEcAAAAAgAAAAAACgAIAAUABgAHAAoAAAAADAD//P///wQABAAEAAAACAAIAAYABwAIAAAAAAAMAA==</value>
					</parameter>
					<parameter authoringApp="PremierePro">
					<parameterid>2</parameterid>
					<name></name>
					<IsTimeVarying>false</IsTimeVarying>
					<ParameterControlType>11</ParameterControlType>
					<LowerBound>false</LowerBound>
					<UpperBound>false</UpperBound>
					<value>-91445760000000000,false,0,0,0,0,0,0</value>
					</parameter>
					<parameter authoringApp="PremierePro">
					<parameterid>3</parameterid>
					<name></name>
					<IsTimeVarying>false</IsTimeVarying>
					<value>-91445760000000000,0.5:0.5,0,0,0,0,0,0,5,4,0,0,0,0</value>
					</parameter>
					<parameter authoringApp="PremierePro">
					<parameterid>4</parameterid>
					<name></name>
					<IsTimeVarying>false</IsTimeVarying>
					<ParameterControlType>2</ParameterControlType>
					<LowerBound>0</LowerBound>
					<UpperBound>4000</UpperBound>
					<value>-91445760000000000,100.,0,0,0,0,0,0</value>
					</parameter>
					<parameter authoringApp="PremierePro">
					<parameterid>8</parameterid>
					<name></name>
					<IsTimeVarying>false</IsTimeVarying>
					<ParameterControlType>2</ParameterControlType>
					<LowerBound>0</LowerBound>
					<UpperBound>100</UpperBound>
					<value>-91445760000000000,100.,0,0,0,0,0,0</value>
					</parameter>
					</effect>
					</filter>
					<logginginfo>
					<description></description>
					<scene></scene>
					<shottake></shottake>
					<lognote></lognote>
					<good></good>
					<originalvideofilename></originalvideofilename>
					<originalaudiofilename></originalaudiofilename>
					</logginginfo>
					<colorinfo>
					<lut></lut>
					<lut1></lut1>
					<asc_sop></asc_sop>
					<asc_sat></asc_sat>
					<lut2></lut2>
					</colorinfo>
					<labels>
					</labels>
					</clipitem>
					<enabled>TRUE</enabled>
					<locked>FALSE</locked>
				</track>
				<track TL.SQTrackShy="0" TL.SQTrackExpandedHeight="25" TL.SQTrackExpanded="0" MZ.TrackTargeted="0">
					<clipitem frameBlend="FALSE" id="clipitem-228">
					<masterclipid>masterclip-148</masterclipid>
					<name></name>
					<enabled>TRUE</enabled>
					<duration>2582774</duration>
					<rate>
					
					                                    <timebase>60</timebase>
					                                    <ntsc>TRUE</ntsc>
					                                
					</rate>
					<start>989</start>
					<end>1055</end>
					<in>989</in>
					<out>1055</out>
					<pproTicksIn>914456774963789</pproTicksIn>
					<pproTicksOut>914677708529577</pproTicksOut>
					<alphatype>straight</alphatype>
					<pixelaspectratio>square</pixelaspectratio>
					<anamorphic>FALSE</anamorphic>
					<file id="file-147">
					<name></name>
					<mediaSource>GraphicAndType</mediaSource>
					<rate>
					<timebase>60</timebase>
					<ntsc>TRUE</ntsc>
					</rate>
					<timecode>
					<rate>
					<timebase>60</timebase>
					<ntsc>TRUE</ntsc>
					</rate>
					<string>00:00:00:00</string>
					<frame>0</frame>
					<displayformat>NDF</displayformat>
					</timecode>
					<media>
					<video>
					<samplecharacteristics>
					<rate>
					<timebase>60</timebase>
					<ntsc>TRUE</ntsc>
					</rate>
					<width>1080</width>
					<height>1920</height>
					<anamorphic>FALSE</anamorphic>
					<pixelaspectratio>square</pixelaspectratio>
					<fielddominance>none</fielddominance>
					</samplecharacteristics>
					</video>
					</media>
					</file>
					<filter>
					<effect>
					<name></name>
					<effectid>GraphicAndType</effectid>
					<effectcategory>graphic</effectcategory>
					<effecttype>filter</effecttype>
					<mediatype>video</mediatype>
					<pproBypass>false</pproBypass>
					<parameter authoringApp="PremierePro">
					<parameterid>1</parameterid>
					<name></name>
					<hash>025b1101-ead6-0ca2-1feb-caf3000001fc</hash>
					<value>5AEAAAAAAABEMyIRDAAAAAAABgAKAAQABgAAAGQAAAAAAF4ASAAQAAwARABAADwAOAAAAAAAAAAAADQAMwAsAAAAKAAkACAAAAAAAAAAAAAAAAAAHAAAAAAAGgAAAAAAAAAUAAAAAAAAAAAAAAAAAAAAAAAAAAgAAAAAABsABwBeAAAAAAAAAUAAAABQAAAAbAAAAAIAAAAAAAEAAQAAAAAAQEEAAMBAAABAQAAAyEIAAAABIAAAAAIAAAACAAAAAAA2QwCASkTw/v//9P7///j+//8S////AAAAAAEAAAAEAAAAEQAAAEhHUFNvZWlLYWt1cG9wdGFpAAAAAQAAAAwAAAAIAAwABAAIAAgAAAAIAAAAUAAAAA8AAADvvIEAAAAAAAAAAAAAAAAAAAA2ACQAAAAgABwAAAAAABsAFAAAAAAAAAAAAAAAAAAAAAAAAAAAABAAAAAAAAAADAAAAAgABAA2AAAAAgAAABwAAAAcAAAAHAAAAAAAIEEAAAABaAAAAE3PAEOw////tP///wEAAAAUAAAAEAAaAAgABwAMAAAAEAAUABAAAAAAAAABHAAAAAAAoEEcAAAAAgAAAAAACgAIAAUABgAHAAoAAAAADAD//P///wQABAAEAAAACAAIAAYABwAIAAAAAAAMAA==</value>
					</parameter>
					<parameter authoringApp="PremierePro">
					<parameterid>2</parameterid>
					<name></name>
					<IsTimeVarying>false</IsTimeVarying>
					<ParameterControlType>11</ParameterControlType>
					<LowerBound>false</LowerBound>
					<UpperBound>false</UpperBound>
					<value>-91445760000000000,false,0,0,0,0,0,0</value>
					</parameter>
					<parameter authoringApp="PremierePro">
					<parameterid>3</parameterid>
					<name></name>
					<IsTimeVarying>false</IsTimeVarying>
					<value>-91445760000000000,0.5:0.5,0,0,0,0,0,0,5,4,0,0,0,0</value>
					</parameter>
					<parameter authoringApp="PremierePro">
					<parameterid>4</parameterid>
					<name></name>
					<IsTimeVarying>false</IsTimeVarying>
					<ParameterControlType>2</ParameterControlType>
					<LowerBound>0</LowerBound>
					<UpperBound>4000</UpperBound>
					<value>-91445760000000000,100.,0,0,0,0,0,0</value>
					</parameter>
					<parameter authoringApp="PremierePro">
					<parameterid>8</parameterid>
					<name></name>
					<IsTimeVarying>false</IsTimeVarying>
					<ParameterControlType>2</ParameterControlType>
					<LowerBound>0</LowerBound>
					<UpperBound>100</UpperBound>
					<value>-91445760000000000,100.,0,0,0,0,0,0</value>
					</parameter>
					</effect>
					</filter>
					<logginginfo>
					<description></description>
					<scene></scene>
					<shottake></shottake>
					<lognote></lognote>
					<good></good>
					<originalvideofilename></originalvideofilename>
					<originalaudiofilename></originalaudiofilename>
					</logginginfo>
					<colorinfo>
					<lut></lut>
					<lut1></lut1>
					<asc_sop></asc_sop>
					<asc_sat></asc_sat>
					<lut2></lut2>
					</colorinfo>
					<labels>
					</labels>
					</clipitem>
					<enabled>TRUE</enabled>
					<locked>FALSE</locked>
				</track>
                        
                        
                        
                        
                        
                        
                        
                        
                        
                        
                        
                        
                        
                        
                        
                        
                        
                        
                        
                        
                        
                        
                        
                        
                        
                        
                        
                        
                        
                        
                        
                        
                        
                        
                        
                        
                        
                        
                        
                        
                        
                        
                        
                        
                        
                        
                        
                        
                        
                        
                        
                        
                        
                        
                        
                        
                        
                        
                        
                        
                        
                        
                        
                        
                        
                        
                        
                        
                        
                        
                        
                        
                        
                        
                        
                        
                        
                        
                        
                        
                        
                        
                        
                        
                        
                        
                        
                        
                        
                        
                        
                        
                        
                        
                        
                        
                        
                        
                        
                        
                        
                        
                        
                        
                        
                        
                        
                        
                        
                        
                        
                        
                        
                        
                        
                        
                        
                        
                        
                        
                        
                        
                        
                        
                        
                        
                        
                        
                        
                        
                        
                        
                        
                        
                        
                        
                        
                        
                        
                        
                        
                        
                        
                        
                        
                        
                        
                        
                        
                        
                        
                        
                        
                        
                        
                        
                        
                        
                        
                        
                        
                        
                        
                        
                        
                        
                        
                        
                        
                        
                        
                        
                        
                        
                        
                        
                        
                        
                        
                        
                        
                        
                        
                        
                        
                        
                        
                        
                        
                        
                        
                        
                        
                        
                        
                        
                        
                        
                        
                        
                        
                        
                        
                        
                        
                        
                        
                        
                        
                        
                        
                        
                        
                        
                        
                        
                        
                        
                        
                        
                        
                        
                        
                        
                        
                        
                        
                        
                        
                        
                        
                        
                        
                        
                        
                        
                        
                        
                        
                        
                        
                        
                        
                        
                        
                        
                        
                        
                        
                        
                        
                        
                        
                        
                        
                        
                        
                        
                        
                        
                        
                        
                        
                        
                        
                        
                        
                        
                        
                        
                        
                        
                        
                        
                        
                        
                        
                        
                        
                        
                        
                        
                        
                        
                        
                        
                        
                        
                        
                        
                        
                        
                        
                        
                        
                        
                        
                        
                        
                        
                        
                        
                        
                        
                        
                        
                        
                        
                        
                        
                        
                        
                        
                        
                        
                        
                        
                        
                        
                        
                        
                        
                        
                        
                        
                        
                        
                        
                        
                        
                        
                        
                        
                        
                        
                        
                        
                        
                        
                        
                        
                        
                        
                        
                        
                        
                        
                        
                        
                        
                        
                        
                        
                        
                        
                        
                        
                        
                        
                        
                        
                        
                        
                        
                        
                        
                        
                        
                        
                        
                        
                        
                        
                        
                        
                        
                        
                        
                        
                        
                        
                        
                        
                        
                        
                        
                        
                        
                        
                        
                        
                        
                        
                        
                        
                        
                        
                        
                        
                        
                        
                        
                        
                        
                        
                        
                        
                        
                        
                        
                        
                        
                        
                        
                        
                        
                        
                        
                        
                        
                        
                        
                        
                        
                        
                        
                        
                        
                        
                        
                        
                        
                        
                        
                        
                        
                        
                        
                        
                        
                        
                        
                        
                        
                        
                        
                        
                        
                        
                        
                        
                        
                        
                        
                        
                        
                        
                        
                        
                        
                        
                        
                        
                        
                        
                        
                        
                        
                        
                        
                        
                        
                        
                        
                        
                        
                        
                        
                        
                        
                        
                        
                        
                        
                        
                        
                        
                        
                        
                        
                        
                        
                        
                        
                        
                        
                        
                        
                        
                        
                        
                        
                        
                        
                        
                        
                        
                        
                        
                        
                        
                        
                        
                        
                        
                        
                        
                        
                        
                        
                        
                        
                        
                        
                        
                        
                        
                        
                        
                        
                        
                        
                        
                        
                        
                        
                        
                        
                        
                        
                        
                        
                        
                        
                        
                        
                        
                        
                        
                        
                        
                        
                        
                        
                        
                        
                        
                        
                        
                        
                        
                        
                        
                        
                        
                        
                        
                        
                        
                        
                        
                        
                        
                        
                        
                        
                        
                        
                        
                        
                        
                        
                        
                        
                        
                        
                        
                        
                        
                        
                        
                        
                        
                        
                        
                        
                        
                        
                        
                        
                        
                        
                        
                        
                        
                        
                        
                        
                        
                        
                        
                        
                        
                        
                        
                        
                        
                        
                        
                        
                        
                        
                        
                        
                        
                        
                        
                        
                        
                        
                        
                        
                        
                        
                        
                        
                        
                        
                        
                        
                        
                        
                        
                        
                        
                        
                        
                        
                        
                        
                        
                        
                        
                        
                        
                        
                        
                        
                        
                        
                        
                        
                        
                        
                        
                        
                        
                        
                        
                        
                        
                        
                        
                        
                        
                        
                        
                        
                        
                        
                        
                        
                        
                        
                        
                        
                        
                        
                        
                        
                        
                        
                        
                        
                        
                        
                        
                        
                        
                        
                        
                        
                        
                        
                    </video>
                    <audio>
                        <track>
                            <clipitem frameBlend="FALSE" id="clipitem-788">
                                <file id="file-1"/>
                                <name>bandicam 2025-06-02 00-01-10-144 - Audio</name>
                                <rate>
                                    <timebase>60</timebase>
                                    <ntsc>TRUE</ntsc>
                                </rate>
                                <rate>
                                    <timebase>60</timebase>
                                    <ntsc>TRUE</ntsc>
                                </rate>
                                <duration>809</duration>
                                <start>0</start>
                                <end>809</end>
                                <in>0</in>
                                <out>809</out>
                            </clipitem>
                            <clipitem frameBlend="FALSE" id="clipitem-789">
                                <file id="file-1"/>
                                <name>bandicam 2025-06-02 00-01-10-144 - Audio</name>
                                <rate>
                                    <timebase>60</timebase>
                                    <ntsc>TRUE</ntsc>
                                </rate>
                                <rate>
                                    <timebase>60</timebase>
                                    <ntsc>TRUE</ntsc>
                                </rate>
                                <duration>18</duration>
                                <start>809</start>
                                <end>827</end>
                                <in>905</in>
                                <out>923</out>
                            </clipitem>
                            <clipitem frameBlend="FALSE" id="clipitem-790">
                                <file id="file-1"/>
                                <name>bandicam 2025-06-02 00-01-10-144 - Audio</name>
                                <rate>
                                    <timebase>60</timebase>
                                    <ntsc>TRUE</ntsc>
                                </rate>
                                <rate>
                                    <timebase>60</timebase>
                                    <ntsc>TRUE</ntsc>
                                </rate>
                                <duration>6083</duration>
                                <start>827</start>
                                <end>6910</end>
                                <in>983</in>
                                <out>7066</out>
                            </clipitem>
                            <clipitem frameBlend="FALSE" id="clipitem-791">
                                <file id="file-1"/>
                                <name>bandicam 2025-06-02 00-01-10-144 - Audio</name>
                                <rate>
                                    <timebase>60</timebase>
                                    <ntsc>TRUE</ntsc>
                                </rate>
                                <rate>
                                    <timebase>60</timebase>
                                    <ntsc>TRUE</ntsc>
                                </rate>
                                <duration>36</duration>
                                <start>6910</start>
                                <end>6946</end>
                                <in>1031</in>
                                <out>1067</out>
                            </clipitem>
                            <clipitem frameBlend="FALSE" id="clipitem-792">
                                <file id="file-1"/>
                                <name>bandicam 2025-06-02 00-01-10-144 - Audio</name>
                                <rate>
                                    <timebase>60</timebase>
                                    <ntsc>TRUE</ntsc>
                                </rate>
                                <rate>
                                    <timebase>60</timebase>
                                    <ntsc>TRUE</ntsc>
                                </rate>
                                <duration>6</duration>
                                <start>6946</start>
                                <end>6952</end>
                                <in>1085</in>
                                <out>1091</out>
                            </clipitem>
                            <clipitem frameBlend="FALSE" id="clipitem-793">
                                <file id="file-1"/>
                                <name>bandicam 2025-06-02 00-01-10-144 - Audio</name>
                                <rate>
                                    <timebase>60</timebase>
                                    <ntsc>TRUE</ntsc>
                                </rate>
                                <rate>
                                    <timebase>60</timebase>
                                    <ntsc>TRUE</ntsc>
                                </rate>
                                <duration>48</duration>
                                <start>6952</start>
                                <end>7000</end>
                                <in>1109</in>
                                <out>1157</out>
                            </clipitem>
                            <clipitem frameBlend="FALSE" id="clipitem-794">
                                <file id="file-1"/>
                                <name>bandicam 2025-06-02 00-01-10-144 - Audio</name>
                                <rate>
                                    <timebase>60</timebase>
                                    <ntsc>TRUE</ntsc>
                                </rate>
                                <rate>
                                    <timebase>60</timebase>
                                    <ntsc>TRUE</ntsc>
                                </rate>
                                <duration>0</duration>
                                <start>7000</start>
                                <end>7000</end>
                                <in>1319</in>
                                <out>1319</out>
                            </clipitem>
                            <clipitem frameBlend="FALSE" id="clipitem-795">
                                <file id="file-1"/>
                                <name>bandicam 2025-06-02 00-01-10-144 - Audio</name>
                                <rate>
                                    <timebase>60</timebase>
                                    <ntsc>TRUE</ntsc>
                                </rate>
                                <rate>
                                    <timebase>60</timebase>
                                    <ntsc>TRUE</ntsc>
                                </rate>
                                <duration>24</duration>
                                <start>7000</start>
                                <end>7024</end>
                                <in>1349</in>
                                <out>1373</out>
                            </clipitem>
                            <clipitem frameBlend="FALSE" id="clipitem-796">
                                <file id="file-1"/>
                                <name>bandicam 2025-06-02 00-01-10-144 - Audio</name>
                                <rate>
                                    <timebase>60</timebase>
                                    <ntsc>TRUE</ntsc>
                                </rate>
                                <rate>
                                    <timebase>60</timebase>
                                    <ntsc>TRUE</ntsc>
                                </rate>
                                <duration>48</duration>
                                <start>7024</start>
                                <end>7072</end>
                                <in>1397</in>
                                <out>1445</out>
                            </clipitem>
                            <clipitem frameBlend="FALSE" id="clipitem-797">
                                <file id="file-1"/>
                                <name>bandicam 2025-06-02 00-01-10-144 - Audio</name>
                                <rate>
                                    <timebase>60</timebase>
                                    <ntsc>TRUE</ntsc>
                                </rate>
                                <rate>
                                    <timebase>60</timebase>
                                    <ntsc>TRUE</ntsc>
                                </rate>
                                <duration>192</duration>
                                <start>7072</start>
                                <end>7264</end>
                                <in>1457</in>
                                <out>1649</out>
                            </clipitem>
                            <clipitem frameBlend="FALSE" id="clipitem-798">
                                <file id="file-1"/>
                                <name>bandicam 2025-06-02 00-01-10-144 - Audio</name>
                                <rate>
                                    <timebase>60</timebase>
                                    <ntsc>TRUE</ntsc>
                                </rate>
                                <rate>
                                    <timebase>60</timebase>
                                    <ntsc>TRUE</ntsc>
                                </rate>
                                <duration>60</duration>
                                <start>7264</start>
                                <end>7324</end>
                                <in>1697</in>
                                <out>1757</out>
                            </clipitem>
                            <clipitem frameBlend="FALSE" id="clipitem-799">
                                <file id="file-1"/>
                                <name>bandicam 2025-06-02 00-01-10-144 - Audio</name>
                                <rate>
                                    <timebase>60</timebase>
                                    <ntsc>TRUE</ntsc>
                                </rate>
                                <rate>
                                    <timebase>60</timebase>
                                    <ntsc>TRUE</ntsc>
                                </rate>
                                <duration>90</duration>
                                <start>7324</start>
                                <end>7414</end>
                                <in>1847</in>
                                <out>1937</out>
                            </clipitem>
                            <clipitem frameBlend="FALSE" id="clipitem-800">
                                <file id="file-1"/>
                                <name>bandicam 2025-06-02 00-01-10-144 - Audio</name>
                                <rate>
                                    <timebase>60</timebase>
                                    <ntsc>TRUE</ntsc>
                                </rate>
                                <rate>
                                    <timebase>60</timebase>
                                    <ntsc>TRUE</ntsc>
                                </rate>
                                <duration>126</duration>
                                <start>7414</start>
                                <end>7540</end>
                                <in>1961</in>
                                <out>2087</out>
                            </clipitem>
                            <clipitem frameBlend="FALSE" id="clipitem-801">
                                <file id="file-1"/>
                                <name>bandicam 2025-06-02 00-01-10-144 - Audio</name>
                                <rate>
                                    <timebase>60</timebase>
                                    <ntsc>TRUE</ntsc>
                                </rate>
                                <rate>
                                    <timebase>60</timebase>
                                    <ntsc>TRUE</ntsc>
                                </rate>
                                <duration>30</duration>
                                <start>7540</start>
                                <end>7570</end>
                                <in>2219</in>
                                <out>2249</out>
                            </clipitem>
                            <clipitem frameBlend="FALSE" id="clipitem-802">
                                <file id="file-1"/>
                                <name>bandicam 2025-06-02 00-01-10-144 - Audio</name>
                                <rate>
                                    <timebase>60</timebase>
                                    <ntsc>TRUE</ntsc>
                                </rate>
                                <rate>
                                    <timebase>60</timebase>
                                    <ntsc>TRUE</ntsc>
                                </rate>
                                <duration>24</duration>
                                <start>7570</start>
                                <end>7594</end>
                                <in>2267</in>
                                <out>2291</out>
                            </clipitem>
                            <clipitem frameBlend="FALSE" id="clipitem-803">
                                <file id="file-1"/>
                                <name>bandicam 2025-06-02 00-01-10-144 - Audio</name>
                                <rate>
                                    <timebase>60</timebase>
                                    <ntsc>TRUE</ntsc>
                                </rate>
                                <rate>
                                    <timebase>60</timebase>
                                    <ntsc>TRUE</ntsc>
                                </rate>
                                <duration>48</duration>
                                <start>7594</start>
                                <end>7642</end>
                                <in>2327</in>
                                <out>2375</out>
                            </clipitem>
                            <clipitem frameBlend="FALSE" id="clipitem-804">
                                <file id="file-1"/>
                                <name>bandicam 2025-06-02 00-01-10-144 - Audio</name>
                                <rate>
                                    <timebase>60</timebase>
                                    <ntsc>TRUE</ntsc>
                                </rate>
                                <rate>
                                    <timebase>60</timebase>
                                    <ntsc>TRUE</ntsc>
                                </rate>
                                <duration>36</duration>
                                <start>7642</start>
                                <end>7678</end>
                                <in>2405</in>
                                <out>2441</out>
                            </clipitem>
                            <clipitem frameBlend="FALSE" id="clipitem-805">
                                <file id="file-1"/>
                                <name>bandicam 2025-06-02 00-01-10-144 - Audio</name>
                                <rate>
                                    <timebase>60</timebase>
                                    <ntsc>TRUE</ntsc>
                                </rate>
                                <rate>
                                    <timebase>60</timebase>
                                    <ntsc>TRUE</ntsc>
                                </rate>
                                <duration>18</duration>
                                <start>7678</start>
                                <end>7696</end>
                                <in>2477</in>
                                <out>2495</out>
                            </clipitem>
                            <clipitem frameBlend="FALSE" id="clipitem-806">
                                <file id="file-1"/>
                                <name>bandicam 2025-06-02 00-01-10-144 - Audio</name>
                                <rate>
                                    <timebase>60</timebase>
                                    <ntsc>TRUE</ntsc>
                                </rate>
                                <rate>
                                    <timebase>60</timebase>
                                    <ntsc>TRUE</ntsc>
                                </rate>
                                <duration>54</duration>
                                <start>7696</start>
                                <end>7750</end>
                                <in>2531</in>
                                <out>2585</out>
                            </clipitem>
                            <clipitem frameBlend="FALSE" id="clipitem-807">
                                <file id="file-1"/>
                                <name>bandicam 2025-06-02 00-01-10-144 - Audio</name>
                                <rate>
                                    <timebase>60</timebase>
                                    <ntsc>TRUE</ntsc>
                                </rate>
                                <rate>
                                    <timebase>60</timebase>
                                    <ntsc>TRUE</ntsc>
                                </rate>
                                <duration>96</duration>
                                <start>7750</start>
                                <end>7846</end>
                                <in>2639</in>
                                <out>2735</out>
                            </clipitem>
                            <clipitem frameBlend="FALSE" id="clipitem-808">
                                <file id="file-1"/>
                                <name>bandicam 2025-06-02 00-01-10-144 - Audio</name>
                                <rate>
                                    <timebase>60</timebase>
                                    <ntsc>TRUE</ntsc>
                                </rate>
                                <rate>
                                    <timebase>60</timebase>
                                    <ntsc>TRUE</ntsc>
                                </rate>
                                <duration>917</duration>
                                <start>7846</start>
                                <end>8763</end>
                                <in>2759</in>
                                <out>3676</out>
                            </clipitem>
                            <clipitem frameBlend="FALSE" id="clipitem-809">
                                <file id="file-1"/>
                                <name>bandicam 2025-06-02 00-01-10-144 - Audio</name>
                                <rate>
                                    <timebase>60</timebase>
                                    <ntsc>TRUE</ntsc>
                                </rate>
                                <rate>
                                    <timebase>60</timebase>
                                    <ntsc>TRUE</ntsc>
                                </rate>
                                <duration>42</duration>
                                <start>8763</start>
                                <end>8805</end>
                                <in>3706</in>
                                <out>3748</out>
                            </clipitem>
                            <clipitem frameBlend="FALSE" id="clipitem-810">
                                <file id="file-1"/>
                                <name>bandicam 2025-06-02 00-01-10-144 - Audio</name>
                                <rate>
                                    <timebase>60</timebase>
                                    <ntsc>TRUE</ntsc>
                                </rate>
                                <rate>
                                    <timebase>60</timebase>
                                    <ntsc>TRUE</ntsc>
                                </rate>
                                <duration>66</duration>
                                <start>8805</start>
                                <end>8871</end>
                                <in>3778</in>
                                <out>3844</out>
                            </clipitem>
                            <clipitem frameBlend="FALSE" id="clipitem-811">
                                <file id="file-1"/>
                                <name>bandicam 2025-06-02 00-01-10-144 - Audio</name>
                                <rate>
                                    <timebase>60</timebase>
                                    <ntsc>TRUE</ntsc>
                                </rate>
                                <rate>
                                    <timebase>60</timebase>
                                    <ntsc>TRUE</ntsc>
                                </rate>
                                <duration>120</duration>
                                <start>8871</start>
                                <end>8991</end>
                                <in>3874</in>
                                <out>3994</out>
                            </clipitem>
                            <clipitem frameBlend="FALSE" id="clipitem-812">
                                <file id="file-1"/>
                                <name>bandicam 2025-06-02 00-01-10-144 - Audio</name>
                                <rate>
                                    <timebase>60</timebase>
                                    <ntsc>TRUE</ntsc>
                                </rate>
                                <rate>
                                    <timebase>60</timebase>
                                    <ntsc>TRUE</ntsc>
                                </rate>
                                <duration>36</duration>
                                <start>8991</start>
                                <end>9027</end>
                                <in>4012</in>
                                <out>4048</out>
                            </clipitem>
                            <clipitem frameBlend="FALSE" id="clipitem-813">
                                <file id="file-1"/>
                                <name>bandicam 2025-06-02 00-01-10-144 - Audio</name>
                                <rate>
                                    <timebase>60</timebase>
                                    <ntsc>TRUE</ntsc>
                                </rate>
                                <rate>
                                    <timebase>60</timebase>
                                    <ntsc>TRUE</ntsc>
                                </rate>
                                <duration>228</duration>
                                <start>9027</start>
                                <end>9255</end>
                                <in>4066</in>
                                <out>4294</out>
                            </clipitem>
                            <clipitem frameBlend="FALSE" id="clipitem-814">
                                <file id="file-1"/>
                                <name>bandicam 2025-06-02 00-01-10-144 - Audio</name>
                                <rate>
                                    <timebase>60</timebase>
                                    <ntsc>TRUE</ntsc>
                                </rate>
                                <rate>
                                    <timebase>60</timebase>
                                    <ntsc>TRUE</ntsc>
                                </rate>
                                <duration>12</duration>
                                <start>9255</start>
                                <end>9267</end>
                                <in>4330</in>
                                <out>4342</out>
                            </clipitem>
                            <clipitem frameBlend="FALSE" id="clipitem-815">
                                <file id="file-1"/>
                                <name>bandicam 2025-06-02 00-01-10-144 - Audio</name>
                                <rate>
                                    <timebase>60</timebase>
                                    <ntsc>TRUE</ntsc>
                                </rate>
                                <rate>
                                    <timebase>60</timebase>
                                    <ntsc>TRUE</ntsc>
                                </rate>
                                <duration>342</duration>
                                <start>9267</start>
                                <end>9609</end>
                                <in>4414</in>
                                <out>4756</out>
                            </clipitem>
                            <clipitem frameBlend="FALSE" id="clipitem-816">
                                <file id="file-1"/>
                                <name>bandicam 2025-06-02 00-01-10-144 - Audio</name>
                                <rate>
                                    <timebase>60</timebase>
                                    <ntsc>TRUE</ntsc>
                                </rate>
                                <rate>
                                    <timebase>60</timebase>
                                    <ntsc>TRUE</ntsc>
                                </rate>
                                <duration>18</duration>
                                <start>9609</start>
                                <end>9627</end>
                                <in>4786</in>
                                <out>4804</out>
                            </clipitem>
                            <clipitem frameBlend="FALSE" id="clipitem-817">
                                <file id="file-1"/>
                                <name>bandicam 2025-06-02 00-01-10-144 - Audio</name>
                                <rate>
                                    <timebase>60</timebase>
                                    <ntsc>TRUE</ntsc>
                                </rate>
                                <rate>
                                    <timebase>60</timebase>
                                    <ntsc>TRUE</ntsc>
                                </rate>
                                <duration>18</duration>
                                <start>9627</start>
                                <end>9645</end>
                                <in>4834</in>
                                <out>4852</out>
                            </clipitem>
                            <clipitem frameBlend="FALSE" id="clipitem-818">
                                <file id="file-1"/>
                                <name>bandicam 2025-06-02 00-01-10-144 - Audio</name>
                                <rate>
                                    <timebase>60</timebase>
                                    <ntsc>TRUE</ntsc>
                                </rate>
                                <rate>
                                    <timebase>60</timebase>
                                    <ntsc>TRUE</ntsc>
                                </rate>
                                <duration>198</duration>
                                <start>9645</start>
                                <end>9843</end>
                                <in>4870</in>
                                <out>5068</out>
                            </clipitem>
                            <clipitem frameBlend="FALSE" id="clipitem-819">
                                <file id="file-1"/>
                                <name>bandicam 2025-06-02 00-01-10-144 - Audio</name>
                                <rate>
                                    <timebase>60</timebase>
                                    <ntsc>TRUE</ntsc>
                                </rate>
                                <rate>
                                    <timebase>60</timebase>
                                    <ntsc>TRUE</ntsc>
                                </rate>
                                <duration>6</duration>
                                <start>9843</start>
                                <end>9849</end>
                                <in>5086</in>
                                <out>5092</out>
                            </clipitem>
                            <clipitem frameBlend="FALSE" id="clipitem-820">
                                <file id="file-1"/>
                                <name>bandicam 2025-06-02 00-01-10-144 - Audio</name>
                                <rate>
                                    <timebase>60</timebase>
                                    <ntsc>TRUE</ntsc>
                                </rate>
                                <rate>
                                    <timebase>60</timebase>
                                    <ntsc>TRUE</ntsc>
                                </rate>
                                <duration>786</duration>
                                <start>9849</start>
                                <end>10635</end>
                                <in>5140</in>
                                <out>5926</out>
                            </clipitem>
                            <clipitem frameBlend="FALSE" id="clipitem-821">
                                <file id="file-1"/>
                                <name>bandicam 2025-06-02 00-01-10-144 - Audio</name>
                                <rate>
                                    <timebase>60</timebase>
                                    <ntsc>TRUE</ntsc>
                                </rate>
                                <rate>
                                    <timebase>60</timebase>
                                    <ntsc>TRUE</ntsc>
                                </rate>
                                <duration>120</duration>
                                <start>10635</start>
                                <end>10755</end>
                                <in>5944</in>
                                <out>6064</out>
                            </clipitem>
                            <clipitem frameBlend="FALSE" id="clipitem-822">
                                <file id="file-1"/>
                                <name>bandicam 2025-06-02 00-01-10-144 - Audio</name>
                                <rate>
                                    <timebase>60</timebase>
                                    <ntsc>TRUE</ntsc>
                                </rate>
                                <rate>
                                    <timebase>60</timebase>
                                    <ntsc>TRUE</ntsc>
                                </rate>
                                <duration>324</duration>
                                <start>10755</start>
                                <end>11079</end>
                                <in>6088</in>
                                <out>6412</out>
                            </clipitem>
                            <clipitem frameBlend="FALSE" id="clipitem-823">
                                <file id="file-1"/>
                                <name>bandicam 2025-06-02 00-01-10-144 - Audio</name>
                                <rate>
                                    <timebase>60</timebase>
                                    <ntsc>TRUE</ntsc>
                                </rate>
                                <rate>
                                    <timebase>60</timebase>
                                    <ntsc>TRUE</ntsc>
                                </rate>
                                <duration>108</duration>
                                <start>11079</start>
                                <end>11187</end>
                                <in>6442</in>
                                <out>6550</out>
                            </clipitem>
                            <clipitem frameBlend="FALSE" id="clipitem-824">
                                <file id="file-1"/>
                                <name>bandicam 2025-06-02 00-01-10-144 - Audio</name>
                                <rate>
                                    <timebase>60</timebase>
                                    <ntsc>TRUE</ntsc>
                                </rate>
                                <rate>
                                    <timebase>60</timebase>
                                    <ntsc>TRUE</ntsc>
                                </rate>
                                <duration>0</duration>
                                <start>11187</start>
                                <end>11187</end>
                                <in>6610</in>
                                <out>6610</out>
                            </clipitem>
                            <clipitem frameBlend="FALSE" id="clipitem-825">
                                <file id="file-1"/>
                                <name>bandicam 2025-06-02 00-01-10-144 - Audio</name>
                                <rate>
                                    <timebase>60</timebase>
                                    <ntsc>TRUE</ntsc>
                                </rate>
                                <rate>
                                    <timebase>60</timebase>
                                    <ntsc>TRUE</ntsc>
                                </rate>
                                <duration>228</duration>
                                <start>11187</start>
                                <end>11415</end>
                                <in>6634</in>
                                <out>6862</out>
                            </clipitem>
                            <clipitem frameBlend="FALSE" id="clipitem-826">
                                <file id="file-1"/>
                                <name>bandicam 2025-06-02 00-01-10-144 - Audio</name>
                                <rate>
                                    <timebase>60</timebase>
                                    <ntsc>TRUE</ntsc>
                                </rate>
                                <rate>
                                    <timebase>60</timebase>
                                    <ntsc>TRUE</ntsc>
                                </rate>
                                <duration>36</duration>
                                <start>11415</start>
                                <end>11451</end>
                                <in>6874</in>
                                <out>6910</out>
                            </clipitem>
                            <clipitem frameBlend="FALSE" id="clipitem-827">
                                <file id="file-1"/>
                                <name>bandicam 2025-06-02 00-01-10-144 - Audio</name>
                                <rate>
                                    <timebase>60</timebase>
                                    <ntsc>TRUE</ntsc>
                                </rate>
                                <rate>
                                    <timebase>60</timebase>
                                    <ntsc>TRUE</ntsc>
                                </rate>
                                <duration>30</duration>
                                <start>11451</start>
                                <end>11481</end>
                                <in>6964</in>
                                <out>6994</out>
                            </clipitem>
                            <clipitem frameBlend="FALSE" id="clipitem-828">
                                <file id="file-1"/>
                                <name>bandicam 2025-06-02 00-01-10-144 - Audio</name>
                                <rate>
                                    <timebase>60</timebase>
                                    <ntsc>TRUE</ntsc>
                                </rate>
                                <rate>
                                    <timebase>60</timebase>
                                    <ntsc>TRUE</ntsc>
                                </rate>
                                <duration>24</duration>
                                <start>11481</start>
                                <end>11505</end>
                                <in>1469</in>
                                <out>1493</out>
                            </clipitem>
                            <clipitem frameBlend="FALSE" id="clipitem-829">
                                <file id="file-1"/>
                                <name>bandicam 2025-06-02 00-01-10-144 - Audio</name>
                                <rate>
                                    <timebase>60</timebase>
                                    <ntsc>TRUE</ntsc>
                                </rate>
                                <rate>
                                    <timebase>60</timebase>
                                    <ntsc>TRUE</ntsc>
                                </rate>
                                <duration>72</duration>
                                <start>11505</start>
                                <end>11577</end>
                                <in>1517</in>
                                <out>1589</out>
                            </clipitem>
                            <clipitem frameBlend="FALSE" id="clipitem-830">
                                <file id="file-1"/>
                                <name>bandicam 2025-06-02 00-01-10-144 - Audio</name>
                                <rate>
                                    <timebase>60</timebase>
                                    <ntsc>TRUE</ntsc>
                                </rate>
                                <rate>
                                    <timebase>60</timebase>
                                    <ntsc>TRUE</ntsc>
                                </rate>
                                <duration>0</duration>
                                <start>11577</start>
                                <end>11577</end>
                                <in>1619</in>
                                <out>1619</out>
                            </clipitem>
                            <clipitem frameBlend="FALSE" id="clipitem-831">
                                <file id="file-1"/>
                                <name>bandicam 2025-06-02 00-01-10-144 - Audio</name>
                                <rate>
                                    <timebase>60</timebase>
                                    <ntsc>TRUE</ntsc>
                                </rate>
                                <rate>
                                    <timebase>60</timebase>
                                    <ntsc>TRUE</ntsc>
                                </rate>
                                <duration>54</duration>
                                <start>11577</start>
                                <end>11631</end>
                                <in>1871</in>
                                <out>1925</out>
                            </clipitem>
                            <clipitem frameBlend="FALSE" id="clipitem-832">
                                <file id="file-1"/>
                                <name>bandicam 2025-06-02 00-01-10-144 - Audio</name>
                                <rate>
                                    <timebase>60</timebase>
                                    <ntsc>TRUE</ntsc>
                                </rate>
                                <rate>
                                    <timebase>60</timebase>
                                    <ntsc>TRUE</ntsc>
                                </rate>
                                <duration>72</duration>
                                <start>11631</start>
                                <end>11703</end>
                                <in>1997</in>
                                <out>2069</out>
                            </clipitem>
                            <clipitem frameBlend="FALSE" id="clipitem-833">
                                <file id="file-1"/>
                                <name>bandicam 2025-06-02 00-01-10-144 - Audio</name>
                                <rate>
                                    <timebase>60</timebase>
                                    <ntsc>TRUE</ntsc>
                                </rate>
                                <rate>
                                    <timebase>60</timebase>
                                    <ntsc>TRUE</ntsc>
                                </rate>
                                <duration>6</duration>
                                <start>11703</start>
                                <end>11709</end>
                                <in>2231</in>
                                <out>2237</out>
                            </clipitem>
                            <clipitem frameBlend="FALSE" id="clipitem-834">
                                <file id="file-1"/>
                                <name>bandicam 2025-06-02 00-01-10-144 - Audio</name>
                                <rate>
                                    <timebase>60</timebase>
                                    <ntsc>TRUE</ntsc>
                                </rate>
                                <rate>
                                    <timebase>60</timebase>
                                    <ntsc>TRUE</ntsc>
                                </rate>
                                <duration>18</duration>
                                <start>11709</start>
                                <end>11727</end>
                                <in>2561</in>
                                <out>2579</out>
                            </clipitem>
                            <clipitem frameBlend="FALSE" id="clipitem-835">
                                <file id="file-1"/>
                                <name>bandicam 2025-06-02 00-01-10-144 - Audio</name>
                                <rate>
                                    <timebase>60</timebase>
                                    <ntsc>TRUE</ntsc>
                                </rate>
                                <rate>
                                    <timebase>60</timebase>
                                    <ntsc>TRUE</ntsc>
                                </rate>
                                <duration>18</duration>
                                <start>11727</start>
                                <end>11745</end>
                                <in>2663</in>
                                <out>2681</out>
                            </clipitem>
                            <clipitem frameBlend="FALSE" id="clipitem-836">
                                <file id="file-1"/>
                                <name>bandicam 2025-06-02 00-01-10-144 - Audio</name>
                                <rate>
                                    <timebase>60</timebase>
                                    <ntsc>TRUE</ntsc>
                                </rate>
                                <rate>
                                    <timebase>60</timebase>
                                    <ntsc>TRUE</ntsc>
                                </rate>
                                <duration>12</duration>
                                <start>11745</start>
                                <end>11757</end>
                                <in>2699</in>
                                <out>2711</out>
                            </clipitem>
                            <clipitem frameBlend="FALSE" id="clipitem-837">
                                <file id="file-1"/>
                                <name>bandicam 2025-06-02 00-01-10-144 - Audio</name>
                                <rate>
                                    <timebase>60</timebase>
                                    <ntsc>TRUE</ntsc>
                                </rate>
                                <rate>
                                    <timebase>60</timebase>
                                    <ntsc>TRUE</ntsc>
                                </rate>
                                <duration>552</duration>
                                <start>11757</start>
                                <end>12309</end>
                                <in>2771</in>
                                <out>3323</out>
                            </clipitem>
                            <clipitem frameBlend="FALSE" id="clipitem-838">
                                <file id="file-1"/>
                                <name>bandicam 2025-06-02 00-01-10-144 - Audio</name>
                                <rate>
                                    <timebase>60</timebase>
                                    <ntsc>TRUE</ntsc>
                                </rate>
                                <rate>
                                    <timebase>60</timebase>
                                    <ntsc>TRUE</ntsc>
                                </rate>
                                <duration>18</duration>
                                <start>12309</start>
                                <end>12327</end>
                                <in>3341</in>
                                <out>3359</out>
                            </clipitem>
                            <clipitem frameBlend="FALSE" id="clipitem-839">
                                <file id="file-1"/>
                                <name>bandicam 2025-06-02 00-01-10-144 - Audio</name>
                                <rate>
                                    <timebase>60</timebase>
                                    <ntsc>TRUE</ntsc>
                                </rate>
                                <rate>
                                    <timebase>60</timebase>
                                    <ntsc>TRUE</ntsc>
                                </rate>
                                <duration>215</duration>
                                <start>12327</start>
                                <end>12542</end>
                                <in>3389</in>
                                <out>3604</out>
                            </clipitem>
                            <clipitem frameBlend="FALSE" id="clipitem-840">
                                <file id="file-1"/>
                                <name>bandicam 2025-06-02 00-01-10-144 - Audio</name>
                                <rate>
                                    <timebase>60</timebase>
                                    <ntsc>TRUE</ntsc>
                                </rate>
                                <rate>
                                    <timebase>60</timebase>
                                    <ntsc>TRUE</ntsc>
                                </rate>
                                <duration>54</duration>
                                <start>12542</start>
                                <end>12596</end>
                                <in>3616</in>
                                <out>3670</out>
                            </clipitem>
                            <clipitem frameBlend="FALSE" id="clipitem-841">
                                <file id="file-1"/>
                                <name>bandicam 2025-06-02 00-01-10-144 - Audio</name>
                                <rate>
                                    <timebase>60</timebase>
                                    <ntsc>TRUE</ntsc>
                                </rate>
                                <rate>
                                    <timebase>60</timebase>
                                    <ntsc>TRUE</ntsc>
                                </rate>
                                <duration>30</duration>
                                <start>12596</start>
                                <end>12626</end>
                                <in>3784</in>
                                <out>3814</out>
                            </clipitem>
                            <clipitem frameBlend="FALSE" id="clipitem-842">
                                <file id="file-1"/>
                                <name>bandicam 2025-06-02 00-01-10-144 - Audio</name>
                                <rate>
                                    <timebase>60</timebase>
                                    <ntsc>TRUE</ntsc>
                                </rate>
                                <rate>
                                    <timebase>60</timebase>
                                    <ntsc>TRUE</ntsc>
                                </rate>
                                <duration>18</duration>
                                <start>12626</start>
                                <end>12644</end>
                                <in>3910</in>
                                <out>3928</out>
                            </clipitem>
                            <clipitem frameBlend="FALSE" id="clipitem-843">
                                <file id="file-1"/>
                                <name>bandicam 2025-06-02 00-01-10-144 - Audio</name>
                                <rate>
                                    <timebase>60</timebase>
                                    <ntsc>TRUE</ntsc>
                                </rate>
                                <rate>
                                    <timebase>60</timebase>
                                    <ntsc>TRUE</ntsc>
                                </rate>
                                <duration>174</duration>
                                <start>12644</start>
                                <end>12818</end>
                                <in>4078</in>
                                <out>4252</out>
                            </clipitem>
                            <clipitem frameBlend="FALSE" id="clipitem-844">
                                <file id="file-1"/>
                                <name>bandicam 2025-06-02 00-01-10-144 - Audio</name>
                                <rate>
                                    <timebase>60</timebase>
                                    <ntsc>TRUE</ntsc>
                                </rate>
                                <rate>
                                    <timebase>60</timebase>
                                    <ntsc>TRUE</ntsc>
                                </rate>
                                <duration>72</duration>
                                <start>12818</start>
                                <end>12890</end>
                                <in>4432</in>
                                <out>4504</out>
                            </clipitem>
                            <clipitem frameBlend="FALSE" id="clipitem-845">
                                <file id="file-1"/>
                                <name>bandicam 2025-06-02 00-01-10-144 - Audio</name>
                                <rate>
                                    <timebase>60</timebase>
                                    <ntsc>TRUE</ntsc>
                                </rate>
                                <rate>
                                    <timebase>60</timebase>
                                    <ntsc>TRUE</ntsc>
                                </rate>
                                <duration>60</duration>
                                <start>12890</start>
                                <end>12950</end>
                                <in>4540</in>
                                <out>4600</out>
                            </clipitem>
                            <clipitem frameBlend="FALSE" id="clipitem-846">
                                <file id="file-1"/>
                                <name>bandicam 2025-06-02 00-01-10-144 - Audio</name>
                                <rate>
                                    <timebase>60</timebase>
                                    <ntsc>TRUE</ntsc>
                                </rate>
                                <rate>
                                    <timebase>60</timebase>
                                    <ntsc>TRUE</ntsc>
                                </rate>
                                <duration>18</duration>
                                <start>12950</start>
                                <end>12968</end>
                                <in>4648</in>
                                <out>4666</out>
                            </clipitem>
                            <clipitem frameBlend="FALSE" id="clipitem-847">
                                <file id="file-1"/>
                                <name>bandicam 2025-06-02 00-01-10-144 - Audio</name>
                                <rate>
                                    <timebase>60</timebase>
                                    <ntsc>TRUE</ntsc>
                                </rate>
                                <rate>
                                    <timebase>60</timebase>
                                    <ntsc>TRUE</ntsc>
                                </rate>
                                <duration>36</duration>
                                <start>12968</start>
                                <end>13004</end>
                                <in>4708</in>
                                <out>4744</out>
                            </clipitem>
                            <clipitem frameBlend="FALSE" id="clipitem-848">
                                <file id="file-1"/>
                                <name>bandicam 2025-06-02 00-01-10-144 - Audio</name>
                                <rate>
                                    <timebase>60</timebase>
                                    <ntsc>TRUE</ntsc>
                                </rate>
                                <rate>
                                    <timebase>60</timebase>
                                    <ntsc>TRUE</ntsc>
                                </rate>
                                <duration>18</duration>
                                <start>13004</start>
                                <end>13022</end>
                                <in>4882</in>
                                <out>4900</out>
                            </clipitem>
                            <clipitem frameBlend="FALSE" id="clipitem-849">
                                <file id="file-1"/>
                                <name>bandicam 2025-06-02 00-01-10-144 - Audio</name>
                                <rate>
                                    <timebase>60</timebase>
                                    <ntsc>TRUE</ntsc>
                                </rate>
                                <rate>
                                    <timebase>60</timebase>
                                    <ntsc>TRUE</ntsc>
                                </rate>
                                <duration>96</duration>
                                <start>13022</start>
                                <end>13118</end>
                                <in>4954</in>
                                <out>5050</out>
                            </clipitem>
                            <clipitem frameBlend="FALSE" id="clipitem-850">
                                <file id="file-1"/>
                                <name>bandicam 2025-06-02 00-01-10-144 - Audio</name>
                                <rate>
                                    <timebase>60</timebase>
                                    <ntsc>TRUE</ntsc>
                                </rate>
                                <rate>
                                    <timebase>60</timebase>
                                    <ntsc>TRUE</ntsc>
                                </rate>
                                <duration>0</duration>
                                <start>13118</start>
                                <end>13118</end>
                                <in>5152</in>
                                <out>5152</out>
                            </clipitem>
                            <clipitem frameBlend="FALSE" id="clipitem-851">
                                <file id="file-1"/>
                                <name>bandicam 2025-06-02 00-01-10-144 - Audio</name>
                                <rate>
                                    <timebase>60</timebase>
                                    <ntsc>TRUE</ntsc>
                                </rate>
                                <rate>
                                    <timebase>60</timebase>
                                    <ntsc>TRUE</ntsc>
                                </rate>
                                <duration>216</duration>
                                <start>13118</start>
                                <end>13334</end>
                                <in>5182</in>
                                <out>5398</out>
                            </clipitem>
                            <clipitem frameBlend="FALSE" id="clipitem-852">
                                <file id="file-1"/>
                                <name>bandicam 2025-06-02 00-01-10-144 - Audio</name>
                                <rate>
                                    <timebase>60</timebase>
                                    <ntsc>TRUE</ntsc>
                                </rate>
                                <rate>
                                    <timebase>60</timebase>
                                    <ntsc>TRUE</ntsc>
                                </rate>
                                <duration>324</duration>
                                <start>13334</start>
                                <end>13658</end>
                                <in>5440</in>
                                <out>5764</out>
                            </clipitem>
                            <clipitem frameBlend="FALSE" id="clipitem-853">
                                <file id="file-1"/>
                                <name>bandicam 2025-06-02 00-01-10-144 - Audio</name>
                                <rate>
                                    <timebase>60</timebase>
                                    <ntsc>TRUE</ntsc>
                                </rate>
                                <rate>
                                    <timebase>60</timebase>
                                    <ntsc>TRUE</ntsc>
                                </rate>
                                <duration>24</duration>
                                <start>13658</start>
                                <end>13682</end>
                                <in>5782</in>
                                <out>5806</out>
                            </clipitem>
                            <clipitem frameBlend="FALSE" id="clipitem-854">
                                <file id="file-1"/>
                                <name>bandicam 2025-06-02 00-01-10-144 - Audio</name>
                                <rate>
                                    <timebase>60</timebase>
                                    <ntsc>TRUE</ntsc>
                                </rate>
                                <rate>
                                    <timebase>60</timebase>
                                    <ntsc>TRUE</ntsc>
                                </rate>
                                <duration>6</duration>
                                <start>13682</start>
                                <end>13688</end>
                                <in>5842</in>
                                <out>5848</out>
                            </clipitem>
                            <clipitem frameBlend="FALSE" id="clipitem-855">
                                <file id="file-1"/>
                                <name>bandicam 2025-06-02 00-01-10-144 - Audio</name>
                                <rate>
                                    <timebase>60</timebase>
                                    <ntsc>TRUE</ntsc>
                                </rate>
                                <rate>
                                    <timebase>60</timebase>
                                    <ntsc>TRUE</ntsc>
                                </rate>
                                <duration>36</duration>
                                <start>13688</start>
                                <end>13724</end>
                                <in>5878</in>
                                <out>5914</out>
                            </clipitem>
                            <clipitem frameBlend="FALSE" id="clipitem-856">
                                <file id="file-1"/>
                                <name>bandicam 2025-06-02 00-01-10-144 - Audio</name>
                                <rate>
                                    <timebase>60</timebase>
                                    <ntsc>TRUE</ntsc>
                                </rate>
                                <rate>
                                    <timebase>60</timebase>
                                    <ntsc>TRUE</ntsc>
                                </rate>
                                <duration>72</duration>
                                <start>13724</start>
                                <end>13796</end>
                                <in>5956</in>
                                <out>6028</out>
                            </clipitem>
                            <clipitem frameBlend="FALSE" id="clipitem-857">
                                <file id="file-1"/>
                                <name>bandicam 2025-06-02 00-01-10-144 - Audio</name>
                                <rate>
                                    <timebase>60</timebase>
                                    <ntsc>TRUE</ntsc>
                                </rate>
                                <rate>
                                    <timebase>60</timebase>
                                    <ntsc>TRUE</ntsc>
                                </rate>
                                <duration>102</duration>
                                <start>13796</start>
                                <end>13898</end>
                                <in>6100</in>
                                <out>6202</out>
                            </clipitem>
                            <clipitem frameBlend="FALSE" id="clipitem-858">
                                <file id="file-1"/>
                                <name>bandicam 2025-06-02 00-01-10-144 - Audio</name>
                                <rate>
                                    <timebase>60</timebase>
                                    <ntsc>TRUE</ntsc>
                                </rate>
                                <rate>
                                    <timebase>60</timebase>
                                    <ntsc>TRUE</ntsc>
                                </rate>
                                <duration>24</duration>
                                <start>13898</start>
                                <end>13922</end>
                                <in>6226</in>
                                <out>6250</out>
                            </clipitem>
                            <clipitem frameBlend="FALSE" id="clipitem-859">
                                <file id="file-1"/>
                                <name>bandicam 2025-06-02 00-01-10-144 - Audio</name>
                                <rate>
                                    <timebase>60</timebase>
                                    <ntsc>TRUE</ntsc>
                                </rate>
                                <rate>
                                    <timebase>60</timebase>
                                    <ntsc>TRUE</ntsc>
                                </rate>
                                <duration>132</duration>
                                <start>13922</start>
                                <end>14054</end>
                                <in>6274</in>
                                <out>6406</out>
                            </clipitem>
                            <clipitem frameBlend="FALSE" id="clipitem-860">
                                <file id="file-1"/>
                                <name>bandicam 2025-06-02 00-01-10-144 - Audio</name>
                                <rate>
                                    <timebase>60</timebase>
                                    <ntsc>TRUE</ntsc>
                                </rate>
                                <rate>
                                    <timebase>60</timebase>
                                    <ntsc>TRUE</ntsc>
                                </rate>
                                <duration>12</duration>
                                <start>14054</start>
                                <end>14066</end>
                                <in>6526</in>
                                <out>6538</out>
                            </clipitem>
                            <clipitem frameBlend="FALSE" id="clipitem-861">
                                <file id="file-1"/>
                                <name>bandicam 2025-06-02 00-01-10-144 - Audio</name>
                                <rate>
                                    <timebase>60</timebase>
                                    <ntsc>TRUE</ntsc>
                                </rate>
                                <rate>
                                    <timebase>60</timebase>
                                    <ntsc>TRUE</ntsc>
                                </rate>
                                <duration>72</duration>
                                <start>14066</start>
                                <end>14138</end>
                                <in>6652</in>
                                <out>6724</out>
                            </clipitem>
                            <clipitem frameBlend="FALSE" id="clipitem-862">
                                <file id="file-1"/>
                                <name>bandicam 2025-06-02 00-01-10-144 - Audio</name>
                                <rate>
                                    <timebase>60</timebase>
                                    <ntsc>TRUE</ntsc>
                                </rate>
                                <rate>
                                    <timebase>60</timebase>
                                    <ntsc>TRUE</ntsc>
                                </rate>
                                <duration>72</duration>
                                <start>14138</start>
                                <end>14210</end>
                                <in>6754</in>
                                <out>6826</out>
                            </clipitem>
                            <clipitem frameBlend="FALSE" id="clipitem-863">
                                <file id="file-1"/>
                                <name>bandicam 2025-06-02 00-01-10-144 - Audio</name>
                                <rate>
                                    <timebase>60</timebase>
                                    <ntsc>TRUE</ntsc>
                                </rate>
                                <rate>
                                    <timebase>60</timebase>
                                    <ntsc>TRUE</ntsc>
                                </rate>
                                <duration>18</duration>
                                <start>14210</start>
                                <end>14228</end>
                                <in>2783</in>
                                <out>2801</out>
                            </clipitem>
                            <clipitem frameBlend="FALSE" id="clipitem-864">
                                <file id="file-1"/>
                                <name>bandicam 2025-06-02 00-01-10-144 - Audio</name>
                                <rate>
                                    <timebase>60</timebase>
                                    <ntsc>TRUE</ntsc>
                                </rate>
                                <rate>
                                    <timebase>60</timebase>
                                    <ntsc>TRUE</ntsc>
                                </rate>
                                <duration>6</duration>
                                <start>14228</start>
                                <end>14234</end>
                                <in>2885</in>
                                <out>2891</out>
                            </clipitem>
                            <clipitem frameBlend="FALSE" id="clipitem-865">
                                <file id="file-1"/>
                                <name>bandicam 2025-06-02 00-01-10-144 - Audio</name>
                                <rate>
                                    <timebase>60</timebase>
                                    <ntsc>TRUE</ntsc>
                                </rate>
                                <rate>
                                    <timebase>60</timebase>
                                    <ntsc>TRUE</ntsc>
                                </rate>
                                <duration>18</duration>
                                <start>14234</start>
                                <end>14252</end>
                                <in>2969</in>
                                <out>2987</out>
                            </clipitem>
                            <clipitem frameBlend="FALSE" id="clipitem-866">
                                <file id="file-1"/>
                                <name>bandicam 2025-06-02 00-01-10-144 - Audio</name>
                                <rate>
                                    <timebase>60</timebase>
                                    <ntsc>TRUE</ntsc>
                                </rate>
                                <rate>
                                    <timebase>60</timebase>
                                    <ntsc>TRUE</ntsc>
                                </rate>
                                <duration>6</duration>
                                <start>14252</start>
                                <end>14258</end>
                                <in>4096</in>
                                <out>4102</out>
                            </clipitem>
                            <clipitem frameBlend="FALSE" id="clipitem-867">
                                <file id="file-1"/>
                                <name>bandicam 2025-06-02 00-01-10-144 - Audio</name>
                                <rate>
                                    <timebase>60</timebase>
                                    <ntsc>TRUE</ntsc>
                                </rate>
                                <rate>
                                    <timebase>60</timebase>
                                    <ntsc>TRUE</ntsc>
                                </rate>
                                <duration>0</duration>
                                <start>14258</start>
                                <end>14258</end>
                                <in>4132</in>
                                <out>4132</out>
                            </clipitem>
                            <clipitem frameBlend="FALSE" id="clipitem-868">
                                <file id="file-1"/>
                                <name>bandicam 2025-06-02 00-01-10-144 - Audio</name>
                                <rate>
                                    <timebase>60</timebase>
                                    <ntsc>TRUE</ntsc>
                                </rate>
                                <rate>
                                    <timebase>60</timebase>
                                    <ntsc>TRUE</ntsc>
                                </rate>
                                <duration>6</duration>
                                <start>14258</start>
                                <end>14264</end>
                                <in>5578</in>
                                <out>5584</out>
                            </clipitem>
                            <clipitem frameBlend="FALSE" id="clipitem-869">
                                <file id="file-1"/>
                                <name>bandicam 2025-06-02 00-01-10-144 - Audio</name>
                                <rate>
                                    <timebase>60</timebase>
                                    <ntsc>TRUE</ntsc>
                                </rate>
                                <rate>
                                    <timebase>60</timebase>
                                    <ntsc>TRUE</ntsc>
                                </rate>
                                <duration>12</duration>
                                <start>14264</start>
                                <end>14276</end>
                                <in>5644</in>
                                <out>5656</out>
                            </clipitem>
                        </track>
                    </audio>
                </media>
            </sequence>
        </children>
    </project>
</xmeml>
