<?xml version="1.0" encoding="UTF-8"?>
<!DOCTYPE xmeml>
<xmeml version="4">
	<sequence id="sequence-1">
		<name>bandicam 2025-06-22 23-18-13-912</name>
		<duration>33616</duration>
		<rate>
			<timebase>59</timebase>
			<ntsc>FALSE</ntsc>
		</rate>
		<media>
			<video>
				<format/>
				<track>
					<clipitem frameBlend="FALSE" id="clipitem-1">
						<file id="file-1">
							<pathurl>file://localhost/D:/%E5%88%87%E3%82%8A%E6%8A%9C%E3%81%8D/2025-6/2025-6-23/bandicam%202025-06-22%2023-18-13-912.mp4</pathurl>
							<name>bandicam 2025-06-22 23-18-13-912.mp4</name>
							<rate>
								<timebase>59</timebase>
								<ntsc>FALSE</ntsc>
							</rate>
							<duration>33616</duration>
							<timecode>
								<rate>
									<timebase>59</timebase>
									<ntsc>FALSE</ntsc>
								</rate>
								<string>00:00:00:00</string>
								<frame>0</frame>
								<displayformat>NDF</displayformat>
							</timecode>
							<media>
								<video/>
								<audio/>
							</media>
						</file>
						<name>bandicam 2025-06-22 23-18-13-912</name>
						<rate>
							<timebase>59</timebase>
							<ntsc>FALSE</ntsc>
						</rate>
						<rate>
							<timebase>59</timebase>
							<ntsc>FALSE</ntsc>
						</rate>
						<duration>0</duration>
						<start>0</start>
						<end>0</end>
						<in>0</in>
						<out>0</out>
					</clipitem>
					<clipitem frameBlend="FALSE" id="clipitem-2">
						<file id="file-1"/>
						<name>bandicam 2025-06-22 23-18-13-912</name>
						<rate>
							<timebase>59</timebase>
							<ntsc>FALSE</ntsc>
						</rate>
						<rate>
							<timebase>59</timebase>
							<ntsc>FALSE</ntsc>
						</rate>
						<duration>0</duration>
						<start>0</start>
						<end>0</end>
						<in>23</in>
						<out>23</out>
					</clipitem>
					<clipitem frameBlend="FALSE" id="clipitem-3">
						<file id="file-1"/>
						<name>bandicam 2025-06-22 23-18-13-912</name>
						<rate>
							<timebase>59</timebase>
							<ntsc>FALSE</ntsc>
						</rate>
						<rate>
							<timebase>59</timebase>
							<ntsc>FALSE</ntsc>
						</rate>
						<duration>0</duration>
						<start>0</start>
						<end>0</end>
						<in>41</in>
						<out>41</out>
					</clipitem>
					<clipitem frameBlend="FALSE" id="clipitem-4">
						<file id="file-1"/>
						<name>bandicam 2025-06-22 23-18-13-912</name>
						<rate>
							<timebase>59</timebase>
							<ntsc>FALSE</ntsc>
						</rate>
						<rate>
							<timebase>59</timebase>
							<ntsc>FALSE</ntsc>
						</rate>
						<duration>30</duration>
						<start>0</start>
						<end>30</end>
						<in>59</in>
						<out>89</out>
					</clipitem>
					<clipitem frameBlend="FALSE" id="clipitem-5">
						<file id="file-1"/>
						<name>bandicam 2025-06-22 23-18-13-912</name>
						<rate>
							<timebase>59</timebase>
							<ntsc>FALSE</ntsc>
						</rate>
						<rate>
							<timebase>59</timebase>
							<ntsc>FALSE</ntsc>
						</rate>
						<duration>0</duration>
						<start>30</start>
						<end>30</end>
						<in>125</in>
						<out>125</out>
					</clipitem>
					<clipitem frameBlend="FALSE" id="clipitem-6">
						<file id="file-1"/>
						<name>bandicam 2025-06-22 23-18-13-912</name>
						<rate>
							<timebase>59</timebase>
							<ntsc>FALSE</ntsc>
						</rate>
						<rate>
							<timebase>59</timebase>
							<ntsc>FALSE</ntsc>
						</rate>
						<duration>18</duration>
						<start>30</start>
						<end>48</end>
						<in>143</in>
						<out>161</out>
					</clipitem>
					<clipitem frameBlend="FALSE" id="clipitem-7">
						<file id="file-1"/>
						<name>bandicam 2025-06-22 23-18-13-912</name>
						<rate>
							<timebase>59</timebase>
							<ntsc>FALSE</ntsc>
						</rate>
						<rate>
							<timebase>59</timebase>
							<ntsc>FALSE</ntsc>
						</rate>
						<duration>0</duration>
						<start>48</start>
						<end>48</end>
						<in>185</in>
						<out>185</out>
					</clipitem>
					<clipitem frameBlend="FALSE" id="clipitem-8">
						<file id="file-1"/>
						<name>bandicam 2025-06-22 23-18-13-912</name>
						<rate>
							<timebase>59</timebase>
							<ntsc>FALSE</ntsc>
						</rate>
						<rate>
							<timebase>59</timebase>
							<ntsc>FALSE</ntsc>
						</rate>
						<duration>29</duration>
						<start>48</start>
						<end>77</end>
						<in>203</in>
						<out>232</out>
					</clipitem>
					<clipitem frameBlend="FALSE" id="clipitem-9">
						<file id="file-1"/>
						<name>bandicam 2025-06-22 23-18-13-912</name>
						<rate>
							<timebase>59</timebase>
							<ntsc>FALSE</ntsc>
						</rate>
						<rate>
							<timebase>59</timebase>
							<ntsc>FALSE</ntsc>
						</rate>
						<duration>0</duration>
						<start>77</start>
						<end>77</end>
						<in>250</in>
						<out>250</out>
					</clipitem>
					<clipitem frameBlend="FALSE" id="clipitem-10">
						<file id="file-1"/>
						<name>bandicam 2025-06-22 23-18-13-912</name>
						<rate>
							<timebase>59</timebase>
							<ntsc>FALSE</ntsc>
						</rate>
						<rate>
							<timebase>59</timebase>
							<ntsc>FALSE</ntsc>
						</rate>
						<duration>0</duration>
						<start>77</start>
						<end>77</end>
						<in>358</in>
						<out>358</out>
					</clipitem>
					<clipitem frameBlend="FALSE" id="clipitem-11">
						<file id="file-1"/>
						<name>bandicam 2025-06-22 23-18-13-912</name>
						<rate>
							<timebase>59</timebase>
							<ntsc>FALSE</ntsc>
						</rate>
						<rate>
							<timebase>59</timebase>
							<ntsc>FALSE</ntsc>
						</rate>
						<duration>12</duration>
						<start>77</start>
						<end>89</end>
						<in>376</in>
						<out>388</out>
					</clipitem>
					<clipitem frameBlend="FALSE" id="clipitem-12">
						<file id="file-1"/>
						<name>bandicam 2025-06-22 23-18-13-912</name>
						<rate>
							<timebase>59</timebase>
							<ntsc>FALSE</ntsc>
						</rate>
						<rate>
							<timebase>59</timebase>
							<ntsc>FALSE</ntsc>
						</rate>
						<duration>0</duration>
						<start>89</start>
						<end>89</end>
						<in>489</in>
						<out>489</out>
					</clipitem>
					<clipitem frameBlend="FALSE" id="clipitem-13">
						<file id="file-1"/>
						<name>bandicam 2025-06-22 23-18-13-912</name>
						<rate>
							<timebase>59</timebase>
							<ntsc>FALSE</ntsc>
						</rate>
						<rate>
							<timebase>59</timebase>
							<ntsc>FALSE</ntsc>
						</rate>
						<duration>6</duration>
						<start>89</start>
						<end>95</end>
						<in>507</in>
						<out>513</out>
					</clipitem>
					<clipitem frameBlend="FALSE" id="clipitem-14">
						<file id="file-1"/>
						<name>bandicam 2025-06-22 23-18-13-912</name>
						<rate>
							<timebase>59</timebase>
							<ntsc>FALSE</ntsc>
						</rate>
						<rate>
							<timebase>59</timebase>
							<ntsc>FALSE</ntsc>
						</rate>
						<duration>0</duration>
						<start>95</start>
						<end>95</end>
						<in>567</in>
						<out>567</out>
					</clipitem>
					<clipitem frameBlend="FALSE" id="clipitem-15">
						<file id="file-1"/>
						<name>bandicam 2025-06-22 23-18-13-912</name>
						<rate>
							<timebase>59</timebase>
							<ntsc>FALSE</ntsc>
						</rate>
						<rate>
							<timebase>59</timebase>
							<ntsc>FALSE</ntsc>
						</rate>
						<duration>0</duration>
						<start>95</start>
						<end>95</end>
						<in>591</in>
						<out>591</out>
					</clipitem>
					<clipitem frameBlend="FALSE" id="clipitem-16">
						<file id="file-1"/>
						<name>bandicam 2025-06-22 23-18-13-912</name>
						<rate>
							<timebase>59</timebase>
							<ntsc>FALSE</ntsc>
						</rate>
						<rate>
							<timebase>59</timebase>
							<ntsc>FALSE</ntsc>
						</rate>
						<duration>6</duration>
						<start>95</start>
						<end>101</end>
						<in>609</in>
						<out>615</out>
					</clipitem>
					<clipitem frameBlend="FALSE" id="clipitem-17">
						<file id="file-1"/>
						<name>bandicam 2025-06-22 23-18-13-912</name>
						<rate>
							<timebase>59</timebase>
							<ntsc>FALSE</ntsc>
						</rate>
						<rate>
							<timebase>59</timebase>
							<ntsc>FALSE</ntsc>
						</rate>
						<duration>0</duration>
						<start>101</start>
						<end>101</end>
						<in>627</in>
						<out>627</out>
					</clipitem>
					<clipitem frameBlend="FALSE" id="clipitem-18">
						<file id="file-1"/>
						<name>bandicam 2025-06-22 23-18-13-912</name>
						<rate>
							<timebase>59</timebase>
							<ntsc>FALSE</ntsc>
						</rate>
						<rate>
							<timebase>59</timebase>
							<ntsc>FALSE</ntsc>
						</rate>
						<duration>0</duration>
						<start>101</start>
						<end>101</end>
						<in>770</in>
						<out>770</out>
					</clipitem>
					<clipitem frameBlend="FALSE" id="clipitem-19">
						<file id="file-1"/>
						<name>bandicam 2025-06-22 23-18-13-912</name>
						<rate>
							<timebase>59</timebase>
							<ntsc>FALSE</ntsc>
						</rate>
						<rate>
							<timebase>59</timebase>
							<ntsc>FALSE</ntsc>
						</rate>
						<duration>6</duration>
						<start>101</start>
						<end>107</end>
						<in>842</in>
						<out>848</out>
					</clipitem>
					<clipitem frameBlend="FALSE" id="clipitem-20">
						<file id="file-1"/>
						<name>bandicam 2025-06-22 23-18-13-912</name>
						<rate>
							<timebase>59</timebase>
							<ntsc>FALSE</ntsc>
						</rate>
						<rate>
							<timebase>59</timebase>
							<ntsc>FALSE</ntsc>
						</rate>
						<duration>0</duration>
						<start>107</start>
						<end>107</end>
						<in>884</in>
						<out>884</out>
					</clipitem>
					<clipitem frameBlend="FALSE" id="clipitem-21">
						<file id="file-1"/>
						<name>bandicam 2025-06-22 23-18-13-912</name>
						<rate>
							<timebase>59</timebase>
							<ntsc>FALSE</ntsc>
						</rate>
						<rate>
							<timebase>59</timebase>
							<ntsc>FALSE</ntsc>
						</rate>
						<duration>0</duration>
						<start>107</start>
						<end>107</end>
						<in>896</in>
						<out>896</out>
					</clipitem>
					<clipitem frameBlend="FALSE" id="clipitem-22">
						<file id="file-1"/>
						<name>bandicam 2025-06-22 23-18-13-912</name>
						<rate>
							<timebase>59</timebase>
							<ntsc>FALSE</ntsc>
						</rate>
						<rate>
							<timebase>59</timebase>
							<ntsc>FALSE</ntsc>
						</rate>
						<duration>0</duration>
						<start>107</start>
						<end>107</end>
						<in>920</in>
						<out>920</out>
					</clipitem>
					<clipitem frameBlend="FALSE" id="clipitem-23">
						<file id="file-1"/>
						<name>bandicam 2025-06-22 23-18-13-912</name>
						<rate>
							<timebase>59</timebase>
							<ntsc>FALSE</ntsc>
						</rate>
						<rate>
							<timebase>59</timebase>
							<ntsc>FALSE</ntsc>
						</rate>
						<duration>0</duration>
						<start>107</start>
						<end>107</end>
						<in>943</in>
						<out>943</out>
					</clipitem>
					<clipitem frameBlend="FALSE" id="clipitem-24">
						<file id="file-1"/>
						<name>bandicam 2025-06-22 23-18-13-912</name>
						<rate>
							<timebase>59</timebase>
							<ntsc>FALSE</ntsc>
						</rate>
						<rate>
							<timebase>59</timebase>
							<ntsc>FALSE</ntsc>
						</rate>
						<duration>0</duration>
						<start>107</start>
						<end>107</end>
						<in>961</in>
						<out>961</out>
					</clipitem>
					<clipitem frameBlend="FALSE" id="clipitem-25">
						<file id="file-1"/>
						<name>bandicam 2025-06-22 23-18-13-912</name>
						<rate>
							<timebase>59</timebase>
							<ntsc>FALSE</ntsc>
						</rate>
						<rate>
							<timebase>59</timebase>
							<ntsc>FALSE</ntsc>
						</rate>
						<duration>84</duration>
						<start>107</start>
						<end>191</end>
						<in>979</in>
						<out>1063</out>
					</clipitem>
					<clipitem frameBlend="FALSE" id="clipitem-26">
						<file id="file-1"/>
						<name>bandicam 2025-06-22 23-18-13-912</name>
						<rate>
							<timebase>59</timebase>
							<ntsc>FALSE</ntsc>
						</rate>
						<rate>
							<timebase>59</timebase>
							<ntsc>FALSE</ntsc>
						</rate>
						<duration>0</duration>
						<start>191</start>
						<end>191</end>
						<in>1248</in>
						<out>1248</out>
					</clipitem>
					<clipitem frameBlend="FALSE" id="clipitem-27">
						<file id="file-1"/>
						<name>bandicam 2025-06-22 23-18-13-912</name>
						<rate>
							<timebase>59</timebase>
							<ntsc>FALSE</ntsc>
						</rate>
						<rate>
							<timebase>59</timebase>
							<ntsc>FALSE</ntsc>
						</rate>
						<duration>0</duration>
						<start>191</start>
						<end>191</end>
						<in>1278</in>
						<out>1278</out>
					</clipitem>
					<clipitem frameBlend="FALSE" id="clipitem-28">
						<file id="file-1"/>
						<name>bandicam 2025-06-22 23-18-13-912</name>
						<rate>
							<timebase>59</timebase>
							<ntsc>FALSE</ntsc>
						</rate>
						<rate>
							<timebase>59</timebase>
							<ntsc>FALSE</ntsc>
						</rate>
						<duration>0</duration>
						<start>191</start>
						<end>191</end>
						<in>1332</in>
						<out>1332</out>
					</clipitem>
					<clipitem frameBlend="FALSE" id="clipitem-29">
						<file id="file-1"/>
						<name>bandicam 2025-06-22 23-18-13-912</name>
						<rate>
							<timebase>59</timebase>
							<ntsc>FALSE</ntsc>
						</rate>
						<rate>
							<timebase>59</timebase>
							<ntsc>FALSE</ntsc>
						</rate>
						<duration>0</duration>
						<start>191</start>
						<end>191</end>
						<in>1481</in>
						<out>1481</out>
					</clipitem>
					<clipitem frameBlend="FALSE" id="clipitem-30">
						<file id="file-1"/>
						<name>bandicam 2025-06-22 23-18-13-912</name>
						<rate>
							<timebase>59</timebase>
							<ntsc>FALSE</ntsc>
						</rate>
						<rate>
							<timebase>59</timebase>
							<ntsc>FALSE</ntsc>
						</rate>
						<duration>12</duration>
						<start>191</start>
						<end>203</end>
						<in>1726</in>
						<out>1738</out>
					</clipitem>
					<clipitem frameBlend="FALSE" id="clipitem-31">
						<file id="file-1"/>
						<name>bandicam 2025-06-22 23-18-13-912</name>
						<rate>
							<timebase>59</timebase>
							<ntsc>FALSE</ntsc>
						</rate>
						<rate>
							<timebase>59</timebase>
							<ntsc>FALSE</ntsc>
						</rate>
						<duration>0</duration>
						<start>203</start>
						<end>203</end>
						<in>1786</in>
						<out>1786</out>
					</clipitem>
					<clipitem frameBlend="FALSE" id="clipitem-32">
						<file id="file-1"/>
						<name>bandicam 2025-06-22 23-18-13-912</name>
						<rate>
							<timebase>59</timebase>
							<ntsc>FALSE</ntsc>
						</rate>
						<rate>
							<timebase>59</timebase>
							<ntsc>FALSE</ntsc>
						</rate>
						<duration>0</duration>
						<start>203</start>
						<end>203</end>
						<in>1798</in>
						<out>1798</out>
					</clipitem>
					<clipitem frameBlend="FALSE" id="clipitem-33">
						<file id="file-1"/>
						<name>bandicam 2025-06-22 23-18-13-912</name>
						<rate>
							<timebase>59</timebase>
							<ntsc>FALSE</ntsc>
						</rate>
						<rate>
							<timebase>59</timebase>
							<ntsc>FALSE</ntsc>
						</rate>
						<duration>0</duration>
						<start>203</start>
						<end>203</end>
						<in>1840</in>
						<out>1840</out>
					</clipitem>
					<clipitem frameBlend="FALSE" id="clipitem-34">
						<file id="file-1"/>
						<name>bandicam 2025-06-22 23-18-13-912</name>
						<rate>
							<timebase>59</timebase>
							<ntsc>FALSE</ntsc>
						</rate>
						<rate>
							<timebase>59</timebase>
							<ntsc>FALSE</ntsc>
						</rate>
						<duration>0</duration>
						<start>203</start>
						<end>203</end>
						<in>1911</in>
						<out>1911</out>
					</clipitem>
					<clipitem frameBlend="FALSE" id="clipitem-35">
						<file id="file-1"/>
						<name>bandicam 2025-06-22 23-18-13-912</name>
						<rate>
							<timebase>59</timebase>
							<ntsc>FALSE</ntsc>
						</rate>
						<rate>
							<timebase>59</timebase>
							<ntsc>FALSE</ntsc>
						</rate>
						<duration>0</duration>
						<start>203</start>
						<end>203</end>
						<in>1989</in>
						<out>1989</out>
					</clipitem>
					<clipitem frameBlend="FALSE" id="clipitem-36">
						<file id="file-1"/>
						<name>bandicam 2025-06-22 23-18-13-912</name>
						<rate>
							<timebase>59</timebase>
							<ntsc>FALSE</ntsc>
						</rate>
						<rate>
							<timebase>59</timebase>
							<ntsc>FALSE</ntsc>
						</rate>
						<duration>0</duration>
						<start>203</start>
						<end>203</end>
						<in>2031</in>
						<out>2031</out>
					</clipitem>
					<clipitem frameBlend="FALSE" id="clipitem-37">
						<file id="file-1"/>
						<name>bandicam 2025-06-22 23-18-13-912</name>
						<rate>
							<timebase>59</timebase>
							<ntsc>FALSE</ntsc>
						</rate>
						<rate>
							<timebase>59</timebase>
							<ntsc>FALSE</ntsc>
						</rate>
						<duration>107</duration>
						<start>203</start>
						<end>310</end>
						<in>2049</in>
						<out>2156</out>
					</clipitem>
					<clipitem frameBlend="FALSE" id="clipitem-38">
						<file id="file-1"/>
						<name>bandicam 2025-06-22 23-18-13-912</name>
						<rate>
							<timebase>59</timebase>
							<ntsc>FALSE</ntsc>
						</rate>
						<rate>
							<timebase>59</timebase>
							<ntsc>FALSE</ntsc>
						</rate>
						<duration>0</duration>
						<start>310</start>
						<end>310</end>
						<in>2174</in>
						<out>2174</out>
					</clipitem>
					<clipitem frameBlend="FALSE" id="clipitem-39">
						<file id="file-1"/>
						<name>bandicam 2025-06-22 23-18-13-912</name>
						<rate>
							<timebase>59</timebase>
							<ntsc>FALSE</ntsc>
						</rate>
						<rate>
							<timebase>59</timebase>
							<ntsc>FALSE</ntsc>
						</rate>
						<duration>66</duration>
						<start>310</start>
						<end>376</end>
						<in>2192</in>
						<out>2258</out>
					</clipitem>
					<clipitem frameBlend="FALSE" id="clipitem-40">
						<file id="file-1"/>
						<name>bandicam 2025-06-22 23-18-13-912</name>
						<rate>
							<timebase>59</timebase>
							<ntsc>FALSE</ntsc>
						</rate>
						<rate>
							<timebase>59</timebase>
							<ntsc>FALSE</ntsc>
						</rate>
						<duration>6</duration>
						<start>376</start>
						<end>382</end>
						<in>2282</in>
						<out>2288</out>
					</clipitem>
					<clipitem frameBlend="FALSE" id="clipitem-41">
						<file id="file-1"/>
						<name>bandicam 2025-06-22 23-18-13-912</name>
						<rate>
							<timebase>59</timebase>
							<ntsc>FALSE</ntsc>
						</rate>
						<rate>
							<timebase>59</timebase>
							<ntsc>FALSE</ntsc>
						</rate>
						<duration>0</duration>
						<start>382</start>
						<end>382</end>
						<in>2300</in>
						<out>2300</out>
					</clipitem>
					<clipitem frameBlend="FALSE" id="clipitem-42">
						<file id="file-1"/>
						<name>bandicam 2025-06-22 23-18-13-912</name>
						<rate>
							<timebase>59</timebase>
							<ntsc>FALSE</ntsc>
						</rate>
						<rate>
							<timebase>59</timebase>
							<ntsc>FALSE</ntsc>
						</rate>
						<duration>6</duration>
						<start>382</start>
						<end>388</end>
						<in>2323</in>
						<out>2329</out>
					</clipitem>
					<clipitem frameBlend="FALSE" id="clipitem-43">
						<file id="file-1"/>
						<name>bandicam 2025-06-22 23-18-13-912</name>
						<rate>
							<timebase>59</timebase>
							<ntsc>FALSE</ntsc>
						</rate>
						<rate>
							<timebase>59</timebase>
							<ntsc>FALSE</ntsc>
						</rate>
						<duration>12</duration>
						<start>388</start>
						<end>400</end>
						<in>2341</in>
						<out>2353</out>
					</clipitem>
					<clipitem frameBlend="FALSE" id="clipitem-44">
						<file id="file-1"/>
						<name>bandicam 2025-06-22 23-18-13-912</name>
						<rate>
							<timebase>59</timebase>
							<ntsc>FALSE</ntsc>
						</rate>
						<rate>
							<timebase>59</timebase>
							<ntsc>FALSE</ntsc>
						</rate>
						<duration>0</duration>
						<start>400</start>
						<end>400</end>
						<in>2365</in>
						<out>2365</out>
					</clipitem>
					<clipitem frameBlend="FALSE" id="clipitem-45">
						<file id="file-1"/>
						<name>bandicam 2025-06-22 23-18-13-912</name>
						<rate>
							<timebase>59</timebase>
							<ntsc>FALSE</ntsc>
						</rate>
						<rate>
							<timebase>59</timebase>
							<ntsc>FALSE</ntsc>
						</rate>
						<duration>24</duration>
						<start>400</start>
						<end>424</end>
						<in>2383</in>
						<out>2407</out>
					</clipitem>
					<clipitem frameBlend="FALSE" id="clipitem-46">
						<file id="file-1"/>
						<name>bandicam 2025-06-22 23-18-13-912</name>
						<rate>
							<timebase>59</timebase>
							<ntsc>FALSE</ntsc>
						</rate>
						<rate>
							<timebase>59</timebase>
							<ntsc>FALSE</ntsc>
						</rate>
						<duration>0</duration>
						<start>424</start>
						<end>424</end>
						<in>2562</in>
						<out>2562</out>
					</clipitem>
					<clipitem frameBlend="FALSE" id="clipitem-47">
						<file id="file-1"/>
						<name>bandicam 2025-06-22 23-18-13-912</name>
						<rate>
							<timebase>59</timebase>
							<ntsc>FALSE</ntsc>
						</rate>
						<rate>
							<timebase>59</timebase>
							<ntsc>FALSE</ntsc>
						</rate>
						<duration>0</duration>
						<start>424</start>
						<end>424</end>
						<in>2604</in>
						<out>2604</out>
					</clipitem>
					<clipitem frameBlend="FALSE" id="clipitem-48">
						<file id="file-1"/>
						<name>bandicam 2025-06-22 23-18-13-912</name>
						<rate>
							<timebase>59</timebase>
							<ntsc>FALSE</ntsc>
						</rate>
						<rate>
							<timebase>59</timebase>
							<ntsc>FALSE</ntsc>
						</rate>
						<duration>0</duration>
						<start>424</start>
						<end>424</end>
						<in>2628</in>
						<out>2628</out>
					</clipitem>
					<clipitem frameBlend="FALSE" id="clipitem-49">
						<file id="file-1"/>
						<name>bandicam 2025-06-22 23-18-13-912</name>
						<rate>
							<timebase>59</timebase>
							<ntsc>FALSE</ntsc>
						</rate>
						<rate>
							<timebase>59</timebase>
							<ntsc>FALSE</ntsc>
						</rate>
						<duration>18</duration>
						<start>424</start>
						<end>442</end>
						<in>2646</in>
						<out>2664</out>
					</clipitem>
					<clipitem frameBlend="FALSE" id="clipitem-50">
						<file id="file-1"/>
						<name>bandicam 2025-06-22 23-18-13-912</name>
						<rate>
							<timebase>59</timebase>
							<ntsc>FALSE</ntsc>
						</rate>
						<rate>
							<timebase>59</timebase>
							<ntsc>FALSE</ntsc>
						</rate>
						<duration>0</duration>
						<start>442</start>
						<end>442</end>
						<in>2694</in>
						<out>2694</out>
					</clipitem>
					<clipitem frameBlend="FALSE" id="clipitem-51">
						<file id="file-1"/>
						<name>bandicam 2025-06-22 23-18-13-912</name>
						<rate>
							<timebase>59</timebase>
							<ntsc>FALSE</ntsc>
						</rate>
						<rate>
							<timebase>59</timebase>
							<ntsc>FALSE</ntsc>
						</rate>
						<duration>0</duration>
						<start>442</start>
						<end>442</end>
						<in>2766</in>
						<out>2766</out>
					</clipitem>
					<clipitem frameBlend="FALSE" id="clipitem-52">
						<file id="file-1"/>
						<name>bandicam 2025-06-22 23-18-13-912</name>
						<rate>
							<timebase>59</timebase>
							<ntsc>FALSE</ntsc>
						</rate>
						<rate>
							<timebase>59</timebase>
							<ntsc>FALSE</ntsc>
						</rate>
						<duration>0</duration>
						<start>442</start>
						<end>442</end>
						<in>2789</in>
						<out>2789</out>
					</clipitem>
					<clipitem frameBlend="FALSE" id="clipitem-53">
						<file id="file-1"/>
						<name>bandicam 2025-06-22 23-18-13-912</name>
						<rate>
							<timebase>59</timebase>
							<ntsc>FALSE</ntsc>
						</rate>
						<rate>
							<timebase>59</timebase>
							<ntsc>FALSE</ntsc>
						</rate>
						<duration>0</duration>
						<start>442</start>
						<end>442</end>
						<in>2813</in>
						<out>2813</out>
					</clipitem>
					<clipitem frameBlend="FALSE" id="clipitem-54">
						<file id="file-1"/>
						<name>bandicam 2025-06-22 23-18-13-912</name>
						<rate>
							<timebase>59</timebase>
							<ntsc>FALSE</ntsc>
						</rate>
						<rate>
							<timebase>59</timebase>
							<ntsc>FALSE</ntsc>
						</rate>
						<duration>0</duration>
						<start>442</start>
						<end>442</end>
						<in>2867</in>
						<out>2867</out>
					</clipitem>
					<clipitem frameBlend="FALSE" id="clipitem-55">
						<file id="file-1"/>
						<name>bandicam 2025-06-22 23-18-13-912</name>
						<rate>
							<timebase>59</timebase>
							<ntsc>FALSE</ntsc>
						</rate>
						<rate>
							<timebase>59</timebase>
							<ntsc>FALSE</ntsc>
						</rate>
						<duration>0</duration>
						<start>442</start>
						<end>442</end>
						<in>2885</in>
						<out>2885</out>
					</clipitem>
					<clipitem frameBlend="FALSE" id="clipitem-56">
						<file id="file-1"/>
						<name>bandicam 2025-06-22 23-18-13-912</name>
						<rate>
							<timebase>59</timebase>
							<ntsc>FALSE</ntsc>
						</rate>
						<rate>
							<timebase>59</timebase>
							<ntsc>FALSE</ntsc>
						</rate>
						<duration>0</duration>
						<start>442</start>
						<end>442</end>
						<in>2897</in>
						<out>2897</out>
					</clipitem>
					<clipitem frameBlend="FALSE" id="clipitem-57">
						<file id="file-1"/>
						<name>bandicam 2025-06-22 23-18-13-912</name>
						<rate>
							<timebase>59</timebase>
							<ntsc>FALSE</ntsc>
						</rate>
						<rate>
							<timebase>59</timebase>
							<ntsc>FALSE</ntsc>
						</rate>
						<duration>0</duration>
						<start>442</start>
						<end>442</end>
						<in>2915</in>
						<out>2915</out>
					</clipitem>
					<clipitem frameBlend="FALSE" id="clipitem-58">
						<file id="file-1"/>
						<name>bandicam 2025-06-22 23-18-13-912</name>
						<rate>
							<timebase>59</timebase>
							<ntsc>FALSE</ntsc>
						</rate>
						<rate>
							<timebase>59</timebase>
							<ntsc>FALSE</ntsc>
						</rate>
						<duration>0</duration>
						<start>442</start>
						<end>442</end>
						<in>2981</in>
						<out>2981</out>
					</clipitem>
					<clipitem frameBlend="FALSE" id="clipitem-59">
						<file id="file-1"/>
						<name>bandicam 2025-06-22 23-18-13-912</name>
						<rate>
							<timebase>59</timebase>
							<ntsc>FALSE</ntsc>
						</rate>
						<rate>
							<timebase>59</timebase>
							<ntsc>FALSE</ntsc>
						</rate>
						<duration>0</duration>
						<start>442</start>
						<end>442</end>
						<in>3011</in>
						<out>3011</out>
					</clipitem>
					<clipitem frameBlend="FALSE" id="clipitem-60">
						<file id="file-1"/>
						<name>bandicam 2025-06-22 23-18-13-912</name>
						<rate>
							<timebase>59</timebase>
							<ntsc>FALSE</ntsc>
						</rate>
						<rate>
							<timebase>59</timebase>
							<ntsc>FALSE</ntsc>
						</rate>
						<duration>6</duration>
						<start>442</start>
						<end>448</end>
						<in>3040</in>
						<out>3046</out>
					</clipitem>
					<clipitem frameBlend="FALSE" id="clipitem-61">
						<file id="file-1"/>
						<name>bandicam 2025-06-22 23-18-13-912</name>
						<rate>
							<timebase>59</timebase>
							<ntsc>FALSE</ntsc>
						</rate>
						<rate>
							<timebase>59</timebase>
							<ntsc>FALSE</ntsc>
						</rate>
						<duration>18</duration>
						<start>448</start>
						<end>466</end>
						<in>3058</in>
						<out>3076</out>
					</clipitem>
					<clipitem frameBlend="FALSE" id="clipitem-62">
						<file id="file-1"/>
						<name>bandicam 2025-06-22 23-18-13-912</name>
						<rate>
							<timebase>59</timebase>
							<ntsc>FALSE</ntsc>
						</rate>
						<rate>
							<timebase>59</timebase>
							<ntsc>FALSE</ntsc>
						</rate>
						<duration>0</duration>
						<start>466</start>
						<end>466</end>
						<in>3190</in>
						<out>3190</out>
					</clipitem>
					<clipitem frameBlend="FALSE" id="clipitem-63">
						<file id="file-1"/>
						<name>bandicam 2025-06-22 23-18-13-912</name>
						<rate>
							<timebase>59</timebase>
							<ntsc>FALSE</ntsc>
						</rate>
						<rate>
							<timebase>59</timebase>
							<ntsc>FALSE</ntsc>
						</rate>
						<duration>0</duration>
						<start>466</start>
						<end>466</end>
						<in>3261</in>
						<out>3261</out>
					</clipitem>
					<clipitem frameBlend="FALSE" id="clipitem-64">
						<file id="file-1"/>
						<name>bandicam 2025-06-22 23-18-13-912</name>
						<rate>
							<timebase>59</timebase>
							<ntsc>FALSE</ntsc>
						</rate>
						<rate>
							<timebase>59</timebase>
							<ntsc>FALSE</ntsc>
						</rate>
						<duration>0</duration>
						<start>466</start>
						<end>466</end>
						<in>3321</in>
						<out>3321</out>
					</clipitem>
					<clipitem frameBlend="FALSE" id="clipitem-65">
						<file id="file-1"/>
						<name>bandicam 2025-06-22 23-18-13-912</name>
						<rate>
							<timebase>59</timebase>
							<ntsc>FALSE</ntsc>
						</rate>
						<rate>
							<timebase>59</timebase>
							<ntsc>FALSE</ntsc>
						</rate>
						<duration>6</duration>
						<start>466</start>
						<end>472</end>
						<in>3369</in>
						<out>3375</out>
					</clipitem>
					<clipitem frameBlend="FALSE" id="clipitem-66">
						<file id="file-1"/>
						<name>bandicam 2025-06-22 23-18-13-912</name>
						<rate>
							<timebase>59</timebase>
							<ntsc>FALSE</ntsc>
						</rate>
						<rate>
							<timebase>59</timebase>
							<ntsc>FALSE</ntsc>
						</rate>
						<duration>12</duration>
						<start>472</start>
						<end>484</end>
						<in>3387</in>
						<out>3399</out>
					</clipitem>
					<clipitem frameBlend="FALSE" id="clipitem-67">
						<file id="file-1"/>
						<name>bandicam 2025-06-22 23-18-13-912</name>
						<rate>
							<timebase>59</timebase>
							<ntsc>FALSE</ntsc>
						</rate>
						<rate>
							<timebase>59</timebase>
							<ntsc>FALSE</ntsc>
						</rate>
						<duration>0</duration>
						<start>484</start>
						<end>484</end>
						<in>3512</in>
						<out>3512</out>
					</clipitem>
					<clipitem frameBlend="FALSE" id="clipitem-68">
						<file id="file-1"/>
						<name>bandicam 2025-06-22 23-18-13-912</name>
						<rate>
							<timebase>59</timebase>
							<ntsc>FALSE</ntsc>
						</rate>
						<rate>
							<timebase>59</timebase>
							<ntsc>FALSE</ntsc>
						</rate>
						<duration>0</duration>
						<start>484</start>
						<end>484</end>
						<in>3560</in>
						<out>3560</out>
					</clipitem>
					<clipitem frameBlend="FALSE" id="clipitem-69">
						<file id="file-1"/>
						<name>bandicam 2025-06-22 23-18-13-912</name>
						<rate>
							<timebase>59</timebase>
							<ntsc>FALSE</ntsc>
						</rate>
						<rate>
							<timebase>59</timebase>
							<ntsc>FALSE</ntsc>
						</rate>
						<duration>18</duration>
						<start>484</start>
						<end>502</end>
						<in>3578</in>
						<out>3596</out>
					</clipitem>
					<clipitem frameBlend="FALSE" id="clipitem-70">
						<file id="file-1"/>
						<name>bandicam 2025-06-22 23-18-13-912</name>
						<rate>
							<timebase>59</timebase>
							<ntsc>FALSE</ntsc>
						</rate>
						<rate>
							<timebase>59</timebase>
							<ntsc>FALSE</ntsc>
						</rate>
						<duration>0</duration>
						<start>502</start>
						<end>502</end>
						<in>3620</in>
						<out>3620</out>
					</clipitem>
					<clipitem frameBlend="FALSE" id="clipitem-71">
						<file id="file-1"/>
						<name>bandicam 2025-06-22 23-18-13-912</name>
						<rate>
							<timebase>59</timebase>
							<ntsc>FALSE</ntsc>
						</rate>
						<rate>
							<timebase>59</timebase>
							<ntsc>FALSE</ntsc>
						</rate>
						<duration>0</duration>
						<start>502</start>
						<end>502</end>
						<in>3638</in>
						<out>3638</out>
					</clipitem>
					<clipitem frameBlend="FALSE" id="clipitem-72">
						<file id="file-1"/>
						<name>bandicam 2025-06-22 23-18-13-912</name>
						<rate>
							<timebase>59</timebase>
							<ntsc>FALSE</ntsc>
						</rate>
						<rate>
							<timebase>59</timebase>
							<ntsc>FALSE</ntsc>
						</rate>
						<duration>0</duration>
						<start>502</start>
						<end>502</end>
						<in>3656</in>
						<out>3656</out>
					</clipitem>
					<clipitem frameBlend="FALSE" id="clipitem-73">
						<file id="file-1"/>
						<name>bandicam 2025-06-22 23-18-13-912</name>
						<rate>
							<timebase>59</timebase>
							<ntsc>FALSE</ntsc>
						</rate>
						<rate>
							<timebase>59</timebase>
							<ntsc>FALSE</ntsc>
						</rate>
						<duration>0</duration>
						<start>502</start>
						<end>502</end>
						<in>3674</in>
						<out>3674</out>
					</clipitem>
					<clipitem frameBlend="FALSE" id="clipitem-74">
						<file id="file-1"/>
						<name>bandicam 2025-06-22 23-18-13-912</name>
						<rate>
							<timebase>59</timebase>
							<ntsc>FALSE</ntsc>
						</rate>
						<rate>
							<timebase>59</timebase>
							<ntsc>FALSE</ntsc>
						</rate>
						<duration>12</duration>
						<start>502</start>
						<end>514</end>
						<in>3692</in>
						<out>3704</out>
					</clipitem>
					<clipitem frameBlend="FALSE" id="clipitem-75">
						<file id="file-1"/>
						<name>bandicam 2025-06-22 23-18-13-912</name>
						<rate>
							<timebase>59</timebase>
							<ntsc>FALSE</ntsc>
						</rate>
						<rate>
							<timebase>59</timebase>
							<ntsc>FALSE</ntsc>
						</rate>
						<duration>0</duration>
						<start>514</start>
						<end>514</end>
						<in>3745</in>
						<out>3745</out>
					</clipitem>
					<clipitem frameBlend="FALSE" id="clipitem-76">
						<file id="file-1"/>
						<name>bandicam 2025-06-22 23-18-13-912</name>
						<rate>
							<timebase>59</timebase>
							<ntsc>FALSE</ntsc>
						</rate>
						<rate>
							<timebase>59</timebase>
							<ntsc>FALSE</ntsc>
						</rate>
						<duration>0</duration>
						<start>514</start>
						<end>514</end>
						<in>3841</in>
						<out>3841</out>
					</clipitem>
					<clipitem frameBlend="FALSE" id="clipitem-77">
						<file id="file-1"/>
						<name>bandicam 2025-06-22 23-18-13-912</name>
						<rate>
							<timebase>59</timebase>
							<ntsc>FALSE</ntsc>
						</rate>
						<rate>
							<timebase>59</timebase>
							<ntsc>FALSE</ntsc>
						</rate>
						<duration>0</duration>
						<start>514</start>
						<end>514</end>
						<in>3913</in>
						<out>3913</out>
					</clipitem>
					<clipitem frameBlend="FALSE" id="clipitem-78">
						<file id="file-1"/>
						<name>bandicam 2025-06-22 23-18-13-912</name>
						<rate>
							<timebase>59</timebase>
							<ntsc>FALSE</ntsc>
						</rate>
						<rate>
							<timebase>59</timebase>
							<ntsc>FALSE</ntsc>
						</rate>
						<duration>0</duration>
						<start>514</start>
						<end>514</end>
						<in>3942</in>
						<out>3942</out>
					</clipitem>
					<clipitem frameBlend="FALSE" id="clipitem-79">
						<file id="file-1"/>
						<name>bandicam 2025-06-22 23-18-13-912</name>
						<rate>
							<timebase>59</timebase>
							<ntsc>FALSE</ntsc>
						</rate>
						<rate>
							<timebase>59</timebase>
							<ntsc>FALSE</ntsc>
						</rate>
						<duration>66</duration>
						<start>514</start>
						<end>580</end>
						<in>3960</in>
						<out>4026</out>
					</clipitem>
					<clipitem frameBlend="FALSE" id="clipitem-80">
						<file id="file-1"/>
						<name>bandicam 2025-06-22 23-18-13-912</name>
						<rate>
							<timebase>59</timebase>
							<ntsc>FALSE</ntsc>
						</rate>
						<rate>
							<timebase>59</timebase>
							<ntsc>FALSE</ntsc>
						</rate>
						<duration>0</duration>
						<start>580</start>
						<end>580</end>
						<in>4044</in>
						<out>4044</out>
					</clipitem>
					<clipitem frameBlend="FALSE" id="clipitem-81">
						<file id="file-1"/>
						<name>bandicam 2025-06-22 23-18-13-912</name>
						<rate>
							<timebase>59</timebase>
							<ntsc>FALSE</ntsc>
						</rate>
						<rate>
							<timebase>59</timebase>
							<ntsc>FALSE</ntsc>
						</rate>
						<duration>0</duration>
						<start>580</start>
						<end>580</end>
						<in>4056</in>
						<out>4056</out>
					</clipitem>
					<clipitem frameBlend="FALSE" id="clipitem-82">
						<file id="file-1"/>
						<name>bandicam 2025-06-22 23-18-13-912</name>
						<rate>
							<timebase>59</timebase>
							<ntsc>FALSE</ntsc>
						</rate>
						<rate>
							<timebase>59</timebase>
							<ntsc>FALSE</ntsc>
						</rate>
						<duration>0</duration>
						<start>580</start>
						<end>580</end>
						<in>4068</in>
						<out>4068</out>
					</clipitem>
					<clipitem frameBlend="FALSE" id="clipitem-83">
						<file id="file-1"/>
						<name>bandicam 2025-06-22 23-18-13-912</name>
						<rate>
							<timebase>59</timebase>
							<ntsc>FALSE</ntsc>
						</rate>
						<rate>
							<timebase>59</timebase>
							<ntsc>FALSE</ntsc>
						</rate>
						<duration>0</duration>
						<start>580</start>
						<end>580</end>
						<in>4128</in>
						<out>4128</out>
					</clipitem>
					<clipitem frameBlend="FALSE" id="clipitem-84">
						<file id="file-1"/>
						<name>bandicam 2025-06-22 23-18-13-912</name>
						<rate>
							<timebase>59</timebase>
							<ntsc>FALSE</ntsc>
						</rate>
						<rate>
							<timebase>59</timebase>
							<ntsc>FALSE</ntsc>
						</rate>
						<duration>0</duration>
						<start>580</start>
						<end>580</end>
						<in>4152</in>
						<out>4152</out>
					</clipitem>
					<clipitem frameBlend="FALSE" id="clipitem-85">
						<file id="file-1"/>
						<name>bandicam 2025-06-22 23-18-13-912</name>
						<rate>
							<timebase>59</timebase>
							<ntsc>FALSE</ntsc>
						</rate>
						<rate>
							<timebase>59</timebase>
							<ntsc>FALSE</ntsc>
						</rate>
						<duration>0</duration>
						<start>580</start>
						<end>580</end>
						<in>4223</in>
						<out>4223</out>
					</clipitem>
					<clipitem frameBlend="FALSE" id="clipitem-86">
						<file id="file-1"/>
						<name>bandicam 2025-06-22 23-18-13-912</name>
						<rate>
							<timebase>59</timebase>
							<ntsc>FALSE</ntsc>
						</rate>
						<rate>
							<timebase>59</timebase>
							<ntsc>FALSE</ntsc>
						</rate>
						<duration>0</duration>
						<start>580</start>
						<end>580</end>
						<in>4492</in>
						<out>4492</out>
					</clipitem>
					<clipitem frameBlend="FALSE" id="clipitem-87">
						<file id="file-1"/>
						<name>bandicam 2025-06-22 23-18-13-912</name>
						<rate>
							<timebase>59</timebase>
							<ntsc>FALSE</ntsc>
						</rate>
						<rate>
							<timebase>59</timebase>
							<ntsc>FALSE</ntsc>
						</rate>
						<duration>0</duration>
						<start>580</start>
						<end>580</end>
						<in>4570</in>
						<out>4570</out>
					</clipitem>
					<clipitem frameBlend="FALSE" id="clipitem-88">
						<file id="file-1"/>
						<name>bandicam 2025-06-22 23-18-13-912</name>
						<rate>
							<timebase>59</timebase>
							<ntsc>FALSE</ntsc>
						</rate>
						<rate>
							<timebase>59</timebase>
							<ntsc>FALSE</ntsc>
						</rate>
						<duration>30</duration>
						<start>580</start>
						<end>610</end>
						<in>4588</in>
						<out>4618</out>
					</clipitem>
					<clipitem frameBlend="FALSE" id="clipitem-89">
						<file id="file-1"/>
						<name>bandicam 2025-06-22 23-18-13-912</name>
						<rate>
							<timebase>59</timebase>
							<ntsc>FALSE</ntsc>
						</rate>
						<rate>
							<timebase>59</timebase>
							<ntsc>FALSE</ntsc>
						</rate>
						<duration>0</duration>
						<start>610</start>
						<end>610</end>
						<in>4659</in>
						<out>4659</out>
					</clipitem>
					<clipitem frameBlend="FALSE" id="clipitem-90">
						<file id="file-1"/>
						<name>bandicam 2025-06-22 23-18-13-912</name>
						<rate>
							<timebase>59</timebase>
							<ntsc>FALSE</ntsc>
						</rate>
						<rate>
							<timebase>59</timebase>
							<ntsc>FALSE</ntsc>
						</rate>
						<duration>0</duration>
						<start>610</start>
						<end>610</end>
						<in>4779</in>
						<out>4779</out>
					</clipitem>
					<clipitem frameBlend="FALSE" id="clipitem-91">
						<file id="file-1"/>
						<name>bandicam 2025-06-22 23-18-13-912</name>
						<rate>
							<timebase>59</timebase>
							<ntsc>FALSE</ntsc>
						</rate>
						<rate>
							<timebase>59</timebase>
							<ntsc>FALSE</ntsc>
						</rate>
						<duration>6</duration>
						<start>610</start>
						<end>616</end>
						<in>4857</in>
						<out>4863</out>
					</clipitem>
					<clipitem frameBlend="FALSE" id="clipitem-92">
						<file id="file-1"/>
						<name>bandicam 2025-06-22 23-18-13-912</name>
						<rate>
							<timebase>59</timebase>
							<ntsc>FALSE</ntsc>
						</rate>
						<rate>
							<timebase>59</timebase>
							<ntsc>FALSE</ntsc>
						</rate>
						<duration>0</duration>
						<start>616</start>
						<end>616</end>
						<in>4886</in>
						<out>4886</out>
					</clipitem>
					<clipitem frameBlend="FALSE" id="clipitem-93">
						<file id="file-1"/>
						<name>bandicam 2025-06-22 23-18-13-912</name>
						<rate>
							<timebase>59</timebase>
							<ntsc>FALSE</ntsc>
						</rate>
						<rate>
							<timebase>59</timebase>
							<ntsc>FALSE</ntsc>
						</rate>
						<duration>6</duration>
						<start>616</start>
						<end>622</end>
						<in>4934</in>
						<out>4940</out>
					</clipitem>
					<clipitem frameBlend="FALSE" id="clipitem-94">
						<file id="file-1"/>
						<name>bandicam 2025-06-22 23-18-13-912</name>
						<rate>
							<timebase>59</timebase>
							<ntsc>FALSE</ntsc>
						</rate>
						<rate>
							<timebase>59</timebase>
							<ntsc>FALSE</ntsc>
						</rate>
						<duration>0</duration>
						<start>622</start>
						<end>622</end>
						<in>4976</in>
						<out>4976</out>
					</clipitem>
					<clipitem frameBlend="FALSE" id="clipitem-95">
						<file id="file-1"/>
						<name>bandicam 2025-06-22 23-18-13-912</name>
						<rate>
							<timebase>59</timebase>
							<ntsc>FALSE</ntsc>
						</rate>
						<rate>
							<timebase>59</timebase>
							<ntsc>FALSE</ntsc>
						</rate>
						<duration>0</duration>
						<start>622</start>
						<end>622</end>
						<in>5018</in>
						<out>5018</out>
					</clipitem>
					<clipitem frameBlend="FALSE" id="clipitem-96">
						<file id="file-1"/>
						<name>bandicam 2025-06-22 23-18-13-912</name>
						<rate>
							<timebase>59</timebase>
							<ntsc>FALSE</ntsc>
						</rate>
						<rate>
							<timebase>59</timebase>
							<ntsc>FALSE</ntsc>
						</rate>
						<duration>6</duration>
						<start>622</start>
						<end>628</end>
						<in>5137</in>
						<out>5143</out>
					</clipitem>
					<clipitem frameBlend="FALSE" id="clipitem-97">
						<file id="file-1"/>
						<name>bandicam 2025-06-22 23-18-13-912</name>
						<rate>
							<timebase>59</timebase>
							<ntsc>FALSE</ntsc>
						</rate>
						<rate>
							<timebase>59</timebase>
							<ntsc>FALSE</ntsc>
						</rate>
						<duration>6</duration>
						<start>628</start>
						<end>634</end>
						<in>5155</in>
						<out>5161</out>
					</clipitem>
					<clipitem frameBlend="FALSE" id="clipitem-98">
						<file id="file-1"/>
						<name>bandicam 2025-06-22 23-18-13-912</name>
						<rate>
							<timebase>59</timebase>
							<ntsc>FALSE</ntsc>
						</rate>
						<rate>
							<timebase>59</timebase>
							<ntsc>FALSE</ntsc>
						</rate>
						<duration>0</duration>
						<start>634</start>
						<end>634</end>
						<in>5197</in>
						<out>5197</out>
					</clipitem>
					<clipitem frameBlend="FALSE" id="clipitem-99">
						<file id="file-1"/>
						<name>bandicam 2025-06-22 23-18-13-912</name>
						<rate>
							<timebase>59</timebase>
							<ntsc>FALSE</ntsc>
						</rate>
						<rate>
							<timebase>59</timebase>
							<ntsc>FALSE</ntsc>
						</rate>
						<duration>0</duration>
						<start>634</start>
						<end>634</end>
						<in>5227</in>
						<out>5227</out>
					</clipitem>
					<clipitem frameBlend="FALSE" id="clipitem-100">
						<file id="file-1"/>
						<name>bandicam 2025-06-22 23-18-13-912</name>
						<rate>
							<timebase>59</timebase>
							<ntsc>FALSE</ntsc>
						</rate>
						<rate>
							<timebase>59</timebase>
							<ntsc>FALSE</ntsc>
						</rate>
						<duration>0</duration>
						<start>634</start>
						<end>634</end>
						<in>5257</in>
						<out>5257</out>
					</clipitem>
					<clipitem frameBlend="FALSE" id="clipitem-101">
						<file id="file-1"/>
						<name>bandicam 2025-06-22 23-18-13-912</name>
						<rate>
							<timebase>59</timebase>
							<ntsc>FALSE</ntsc>
						</rate>
						<rate>
							<timebase>59</timebase>
							<ntsc>FALSE</ntsc>
						</rate>
						<duration>0</duration>
						<start>634</start>
						<end>634</end>
						<in>5281</in>
						<out>5281</out>
					</clipitem>
					<clipitem frameBlend="FALSE" id="clipitem-102">
						<file id="file-1"/>
						<name>bandicam 2025-06-22 23-18-13-912</name>
						<rate>
							<timebase>59</timebase>
							<ntsc>FALSE</ntsc>
						</rate>
						<rate>
							<timebase>59</timebase>
							<ntsc>FALSE</ntsc>
						</rate>
						<duration>0</duration>
						<start>634</start>
						<end>634</end>
						<in>5305</in>
						<out>5305</out>
					</clipitem>
					<clipitem frameBlend="FALSE" id="clipitem-103">
						<file id="file-1"/>
						<name>bandicam 2025-06-22 23-18-13-912</name>
						<rate>
							<timebase>59</timebase>
							<ntsc>FALSE</ntsc>
						</rate>
						<rate>
							<timebase>59</timebase>
							<ntsc>FALSE</ntsc>
						</rate>
						<duration>0</duration>
						<start>634</start>
						<end>634</end>
						<in>5340</in>
						<out>5340</out>
					</clipitem>
					<clipitem frameBlend="FALSE" id="clipitem-104">
						<file id="file-1"/>
						<name>bandicam 2025-06-22 23-18-13-912</name>
						<rate>
							<timebase>59</timebase>
							<ntsc>FALSE</ntsc>
						</rate>
						<rate>
							<timebase>59</timebase>
							<ntsc>FALSE</ntsc>
						</rate>
						<duration>0</duration>
						<start>634</start>
						<end>634</end>
						<in>5394</in>
						<out>5394</out>
					</clipitem>
					<clipitem frameBlend="FALSE" id="clipitem-105">
						<file id="file-1"/>
						<name>bandicam 2025-06-22 23-18-13-912</name>
						<rate>
							<timebase>59</timebase>
							<ntsc>FALSE</ntsc>
						</rate>
						<rate>
							<timebase>59</timebase>
							<ntsc>FALSE</ntsc>
						</rate>
						<duration>60</duration>
						<start>634</start>
						<end>694</end>
						<in>5412</in>
						<out>5472</out>
					</clipitem>
					<clipitem frameBlend="FALSE" id="clipitem-106">
						<file id="file-1"/>
						<name>bandicam 2025-06-22 23-18-13-912</name>
						<rate>
							<timebase>59</timebase>
							<ntsc>FALSE</ntsc>
						</rate>
						<rate>
							<timebase>59</timebase>
							<ntsc>FALSE</ntsc>
						</rate>
						<duration>6</duration>
						<start>694</start>
						<end>700</end>
						<in>5496</in>
						<out>5502</out>
					</clipitem>
					<clipitem frameBlend="FALSE" id="clipitem-107">
						<file id="file-1"/>
						<name>bandicam 2025-06-22 23-18-13-912</name>
						<rate>
							<timebase>59</timebase>
							<ntsc>FALSE</ntsc>
						</rate>
						<rate>
							<timebase>59</timebase>
							<ntsc>FALSE</ntsc>
						</rate>
						<duration>6</duration>
						<start>700</start>
						<end>706</end>
						<in>5514</in>
						<out>5520</out>
					</clipitem>
					<clipitem frameBlend="FALSE" id="clipitem-108">
						<file id="file-1"/>
						<name>bandicam 2025-06-22 23-18-13-912</name>
						<rate>
							<timebase>59</timebase>
							<ntsc>FALSE</ntsc>
						</rate>
						<rate>
							<timebase>59</timebase>
							<ntsc>FALSE</ntsc>
						</rate>
						<duration>0</duration>
						<start>706</start>
						<end>706</end>
						<in>5573</in>
						<out>5573</out>
					</clipitem>
					<clipitem frameBlend="FALSE" id="clipitem-109">
						<file id="file-1"/>
						<name>bandicam 2025-06-22 23-18-13-912</name>
						<rate>
							<timebase>59</timebase>
							<ntsc>FALSE</ntsc>
						</rate>
						<rate>
							<timebase>59</timebase>
							<ntsc>FALSE</ntsc>
						</rate>
						<duration>0</duration>
						<start>706</start>
						<end>706</end>
						<in>5621</in>
						<out>5621</out>
					</clipitem>
					<clipitem frameBlend="FALSE" id="clipitem-110">
						<file id="file-1"/>
						<name>bandicam 2025-06-22 23-18-13-912</name>
						<rate>
							<timebase>59</timebase>
							<ntsc>FALSE</ntsc>
						</rate>
						<rate>
							<timebase>59</timebase>
							<ntsc>FALSE</ntsc>
						</rate>
						<duration>0</duration>
						<start>706</start>
						<end>706</end>
						<in>5639</in>
						<out>5639</out>
					</clipitem>
					<clipitem frameBlend="FALSE" id="clipitem-111">
						<file id="file-1"/>
						<name>bandicam 2025-06-22 23-18-13-912</name>
						<rate>
							<timebase>59</timebase>
							<ntsc>FALSE</ntsc>
						</rate>
						<rate>
							<timebase>59</timebase>
							<ntsc>FALSE</ntsc>
						</rate>
						<duration>6</duration>
						<start>706</start>
						<end>712</end>
						<in>5729</in>
						<out>5735</out>
					</clipitem>
					<clipitem frameBlend="FALSE" id="clipitem-112">
						<file id="file-1"/>
						<name>bandicam 2025-06-22 23-18-13-912</name>
						<rate>
							<timebase>59</timebase>
							<ntsc>FALSE</ntsc>
						</rate>
						<rate>
							<timebase>59</timebase>
							<ntsc>FALSE</ntsc>
						</rate>
						<duration>0</duration>
						<start>712</start>
						<end>712</end>
						<in>5759</in>
						<out>5759</out>
					</clipitem>
					<clipitem frameBlend="FALSE" id="clipitem-113">
						<file id="file-1"/>
						<name>bandicam 2025-06-22 23-18-13-912</name>
						<rate>
							<timebase>59</timebase>
							<ntsc>FALSE</ntsc>
						</rate>
						<rate>
							<timebase>59</timebase>
							<ntsc>FALSE</ntsc>
						</rate>
						<duration>0</duration>
						<start>712</start>
						<end>712</end>
						<in>5818</in>
						<out>5818</out>
					</clipitem>
					<clipitem frameBlend="FALSE" id="clipitem-114">
						<file id="file-1"/>
						<name>bandicam 2025-06-22 23-18-13-912</name>
						<rate>
							<timebase>59</timebase>
							<ntsc>FALSE</ntsc>
						</rate>
						<rate>
							<timebase>59</timebase>
							<ntsc>FALSE</ntsc>
						</rate>
						<duration>0</duration>
						<start>712</start>
						<end>712</end>
						<in>5854</in>
						<out>5854</out>
					</clipitem>
					<clipitem frameBlend="FALSE" id="clipitem-115">
						<file id="file-1"/>
						<name>bandicam 2025-06-22 23-18-13-912</name>
						<rate>
							<timebase>59</timebase>
							<ntsc>FALSE</ntsc>
						</rate>
						<rate>
							<timebase>59</timebase>
							<ntsc>FALSE</ntsc>
						</rate>
						<duration>0</duration>
						<start>712</start>
						<end>712</end>
						<in>5878</in>
						<out>5878</out>
					</clipitem>
					<clipitem frameBlend="FALSE" id="clipitem-116">
						<file id="file-1"/>
						<name>bandicam 2025-06-22 23-18-13-912</name>
						<rate>
							<timebase>59</timebase>
							<ntsc>FALSE</ntsc>
						</rate>
						<rate>
							<timebase>59</timebase>
							<ntsc>FALSE</ntsc>
						</rate>
						<duration>90</duration>
						<start>712</start>
						<end>802</end>
						<in>5896</in>
						<out>5986</out>
					</clipitem>
					<clipitem frameBlend="FALSE" id="clipitem-117">
						<file id="file-1"/>
						<name>bandicam 2025-06-22 23-18-13-912</name>
						<rate>
							<timebase>59</timebase>
							<ntsc>FALSE</ntsc>
						</rate>
						<rate>
							<timebase>59</timebase>
							<ntsc>FALSE</ntsc>
						</rate>
						<duration>0</duration>
						<start>802</start>
						<end>802</end>
						<in>6010</in>
						<out>6010</out>
					</clipitem>
					<clipitem frameBlend="FALSE" id="clipitem-118">
						<file id="file-1"/>
						<name>bandicam 2025-06-22 23-18-13-912</name>
						<rate>
							<timebase>59</timebase>
							<ntsc>FALSE</ntsc>
						</rate>
						<rate>
							<timebase>59</timebase>
							<ntsc>FALSE</ntsc>
						</rate>
						<duration>6</duration>
						<start>802</start>
						<end>808</end>
						<in>6027</in>
						<out>6033</out>
					</clipitem>
					<clipitem frameBlend="FALSE" id="clipitem-119">
						<file id="file-1"/>
						<name>bandicam 2025-06-22 23-18-13-912</name>
						<rate>
							<timebase>59</timebase>
							<ntsc>FALSE</ntsc>
						</rate>
						<rate>
							<timebase>59</timebase>
							<ntsc>FALSE</ntsc>
						</rate>
						<duration>0</duration>
						<start>808</start>
						<end>808</end>
						<in>6099</in>
						<out>6099</out>
					</clipitem>
					<clipitem frameBlend="FALSE" id="clipitem-120">
						<file id="file-1"/>
						<name>bandicam 2025-06-22 23-18-13-912</name>
						<rate>
							<timebase>59</timebase>
							<ntsc>FALSE</ntsc>
						</rate>
						<rate>
							<timebase>59</timebase>
							<ntsc>FALSE</ntsc>
						</rate>
						<duration>0</duration>
						<start>808</start>
						<end>808</end>
						<in>6159</in>
						<out>6159</out>
					</clipitem>
					<clipitem frameBlend="FALSE" id="clipitem-121">
						<file id="file-1"/>
						<name>bandicam 2025-06-22 23-18-13-912</name>
						<rate>
							<timebase>59</timebase>
							<ntsc>FALSE</ntsc>
						</rate>
						<rate>
							<timebase>59</timebase>
							<ntsc>FALSE</ntsc>
						</rate>
						<duration>0</duration>
						<start>808</start>
						<end>808</end>
						<in>6213</in>
						<out>6213</out>
					</clipitem>
					<clipitem frameBlend="FALSE" id="clipitem-122">
						<file id="file-1"/>
						<name>bandicam 2025-06-22 23-18-13-912</name>
						<rate>
							<timebase>59</timebase>
							<ntsc>FALSE</ntsc>
						</rate>
						<rate>
							<timebase>59</timebase>
							<ntsc>FALSE</ntsc>
						</rate>
						<duration>12</duration>
						<start>808</start>
						<end>820</end>
						<in>6231</in>
						<out>6243</out>
					</clipitem>
					<clipitem frameBlend="FALSE" id="clipitem-123">
						<file id="file-1"/>
						<name>bandicam 2025-06-22 23-18-13-912</name>
						<rate>
							<timebase>59</timebase>
							<ntsc>FALSE</ntsc>
						</rate>
						<rate>
							<timebase>59</timebase>
							<ntsc>FALSE</ntsc>
						</rate>
						<duration>0</duration>
						<start>820</start>
						<end>820</end>
						<in>6260</in>
						<out>6260</out>
					</clipitem>
					<clipitem frameBlend="FALSE" id="clipitem-124">
						<file id="file-1"/>
						<name>bandicam 2025-06-22 23-18-13-912</name>
						<rate>
							<timebase>59</timebase>
							<ntsc>FALSE</ntsc>
						</rate>
						<rate>
							<timebase>59</timebase>
							<ntsc>FALSE</ntsc>
						</rate>
						<duration>18</duration>
						<start>820</start>
						<end>838</end>
						<in>6278</in>
						<out>6296</out>
					</clipitem>
					<clipitem frameBlend="FALSE" id="clipitem-125">
						<file id="file-1"/>
						<name>bandicam 2025-06-22 23-18-13-912</name>
						<rate>
							<timebase>59</timebase>
							<ntsc>FALSE</ntsc>
						</rate>
						<rate>
							<timebase>59</timebase>
							<ntsc>FALSE</ntsc>
						</rate>
						<duration>12</duration>
						<start>838</start>
						<end>850</end>
						<in>6308</in>
						<out>6320</out>
					</clipitem>
					<clipitem frameBlend="FALSE" id="clipitem-126">
						<file id="file-1"/>
						<name>bandicam 2025-06-22 23-18-13-912</name>
						<rate>
							<timebase>59</timebase>
							<ntsc>FALSE</ntsc>
						</rate>
						<rate>
							<timebase>59</timebase>
							<ntsc>FALSE</ntsc>
						</rate>
						<duration>0</duration>
						<start>850</start>
						<end>850</end>
						<in>6350</in>
						<out>6350</out>
					</clipitem>
					<clipitem frameBlend="FALSE" id="clipitem-127">
						<file id="file-1"/>
						<name>bandicam 2025-06-22 23-18-13-912</name>
						<rate>
							<timebase>59</timebase>
							<ntsc>FALSE</ntsc>
						</rate>
						<rate>
							<timebase>59</timebase>
							<ntsc>FALSE</ntsc>
						</rate>
						<duration>0</duration>
						<start>850</start>
						<end>850</end>
						<in>6362</in>
						<out>6362</out>
					</clipitem>
					<clipitem frameBlend="FALSE" id="clipitem-128">
						<file id="file-1"/>
						<name>bandicam 2025-06-22 23-18-13-912</name>
						<rate>
							<timebase>59</timebase>
							<ntsc>FALSE</ntsc>
						</rate>
						<rate>
							<timebase>59</timebase>
							<ntsc>FALSE</ntsc>
						</rate>
						<duration>24</duration>
						<start>850</start>
						<end>874</end>
						<in>6380</in>
						<out>6404</out>
					</clipitem>
					<clipitem frameBlend="FALSE" id="clipitem-129">
						<file id="file-1"/>
						<name>bandicam 2025-06-22 23-18-13-912</name>
						<rate>
							<timebase>59</timebase>
							<ntsc>FALSE</ntsc>
						</rate>
						<rate>
							<timebase>59</timebase>
							<ntsc>FALSE</ntsc>
						</rate>
						<duration>30</duration>
						<start>874</start>
						<end>904</end>
						<in>6422</in>
						<out>6452</out>
					</clipitem>
					<clipitem frameBlend="FALSE" id="clipitem-130">
						<file id="file-1"/>
						<name>bandicam 2025-06-22 23-18-13-912</name>
						<rate>
							<timebase>59</timebase>
							<ntsc>FALSE</ntsc>
						</rate>
						<rate>
							<timebase>59</timebase>
							<ntsc>FALSE</ntsc>
						</rate>
						<duration>0</duration>
						<start>904</start>
						<end>904</end>
						<in>6464</in>
						<out>6464</out>
					</clipitem>
					<clipitem frameBlend="FALSE" id="clipitem-131">
						<file id="file-1"/>
						<name>bandicam 2025-06-22 23-18-13-912</name>
						<rate>
							<timebase>59</timebase>
							<ntsc>FALSE</ntsc>
						</rate>
						<rate>
							<timebase>59</timebase>
							<ntsc>FALSE</ntsc>
						</rate>
						<duration>0</duration>
						<start>904</start>
						<end>904</end>
						<in>6488</in>
						<out>6488</out>
					</clipitem>
					<clipitem frameBlend="FALSE" id="clipitem-132">
						<file id="file-1"/>
						<name>bandicam 2025-06-22 23-18-13-912</name>
						<rate>
							<timebase>59</timebase>
							<ntsc>FALSE</ntsc>
						</rate>
						<rate>
							<timebase>59</timebase>
							<ntsc>FALSE</ntsc>
						</rate>
						<duration>0</duration>
						<start>904</start>
						<end>904</end>
						<in>6547</in>
						<out>6547</out>
					</clipitem>
					<clipitem frameBlend="FALSE" id="clipitem-133">
						<file id="file-1"/>
						<name>bandicam 2025-06-22 23-18-13-912</name>
						<rate>
							<timebase>59</timebase>
							<ntsc>FALSE</ntsc>
						</rate>
						<rate>
							<timebase>59</timebase>
							<ntsc>FALSE</ntsc>
						</rate>
						<duration>0</duration>
						<start>904</start>
						<end>904</end>
						<in>6709</in>
						<out>6709</out>
					</clipitem>
					<clipitem frameBlend="FALSE" id="clipitem-134">
						<file id="file-1"/>
						<name>bandicam 2025-06-22 23-18-13-912</name>
						<rate>
							<timebase>59</timebase>
							<ntsc>FALSE</ntsc>
						</rate>
						<rate>
							<timebase>59</timebase>
							<ntsc>FALSE</ntsc>
						</rate>
						<duration>66</duration>
						<start>904</start>
						<end>970</end>
						<in>6756</in>
						<out>6822</out>
					</clipitem>
					<clipitem frameBlend="FALSE" id="clipitem-135">
						<file id="file-1"/>
						<name>bandicam 2025-06-22 23-18-13-912</name>
						<rate>
							<timebase>59</timebase>
							<ntsc>FALSE</ntsc>
						</rate>
						<rate>
							<timebase>59</timebase>
							<ntsc>FALSE</ntsc>
						</rate>
						<duration>131</duration>
						<start>970</start>
						<end>1101</end>
						<in>6858</in>
						<out>6989</out>
					</clipitem>
					<clipitem frameBlend="FALSE" id="clipitem-136">
						<file id="file-1"/>
						<name>bandicam 2025-06-22 23-18-13-912</name>
						<rate>
							<timebase>59</timebase>
							<ntsc>FALSE</ntsc>
						</rate>
						<rate>
							<timebase>59</timebase>
							<ntsc>FALSE</ntsc>
						</rate>
						<duration>90</duration>
						<start>1101</start>
						<end>1191</end>
						<in>7007</in>
						<out>7097</out>
					</clipitem>
					<clipitem frameBlend="FALSE" id="clipitem-137">
						<file id="file-1"/>
						<name>bandicam 2025-06-22 23-18-13-912</name>
						<rate>
							<timebase>59</timebase>
							<ntsc>FALSE</ntsc>
						</rate>
						<rate>
							<timebase>59</timebase>
							<ntsc>FALSE</ntsc>
						</rate>
						<duration>12</duration>
						<start>1191</start>
						<end>1203</end>
						<in>7115</in>
						<out>7127</out>
					</clipitem>
					<clipitem frameBlend="FALSE" id="clipitem-138">
						<file id="file-1"/>
						<name>bandicam 2025-06-22 23-18-13-912</name>
						<rate>
							<timebase>59</timebase>
							<ntsc>FALSE</ntsc>
						</rate>
						<rate>
							<timebase>59</timebase>
							<ntsc>FALSE</ntsc>
						</rate>
						<duration>239</duration>
						<start>1203</start>
						<end>1442</end>
						<in>7145</in>
						<out>7384</out>
					</clipitem>
					<clipitem frameBlend="FALSE" id="clipitem-139">
						<file id="file-1"/>
						<name>bandicam 2025-06-22 23-18-13-912</name>
						<rate>
							<timebase>59</timebase>
							<ntsc>FALSE</ntsc>
						</rate>
						<rate>
							<timebase>59</timebase>
							<ntsc>FALSE</ntsc>
						</rate>
						<duration>113</duration>
						<start>1442</start>
						<end>1555</end>
						<in>7402</in>
						<out>7515</out>
					</clipitem>
					<clipitem frameBlend="FALSE" id="clipitem-140">
						<file id="file-1"/>
						<name>bandicam 2025-06-22 23-18-13-912</name>
						<rate>
							<timebase>59</timebase>
							<ntsc>FALSE</ntsc>
						</rate>
						<rate>
							<timebase>59</timebase>
							<ntsc>FALSE</ntsc>
						</rate>
						<duration>119</duration>
						<start>1555</start>
						<end>1674</end>
						<in>7533</in>
						<out>7652</out>
					</clipitem>
					<clipitem frameBlend="FALSE" id="clipitem-141">
						<file id="file-1"/>
						<name>bandicam 2025-06-22 23-18-13-912</name>
						<rate>
							<timebase>59</timebase>
							<ntsc>FALSE</ntsc>
						</rate>
						<rate>
							<timebase>59</timebase>
							<ntsc>FALSE</ntsc>
						</rate>
						<duration>18</duration>
						<start>1674</start>
						<end>1692</end>
						<in>7664</in>
						<out>7682</out>
					</clipitem>
					<clipitem frameBlend="FALSE" id="clipitem-142">
						<file id="file-1"/>
						<name>bandicam 2025-06-22 23-18-13-912</name>
						<rate>
							<timebase>59</timebase>
							<ntsc>FALSE</ntsc>
						</rate>
						<rate>
							<timebase>59</timebase>
							<ntsc>FALSE</ntsc>
						</rate>
						<duration>12</duration>
						<start>1692</start>
						<end>1704</end>
						<in>7724</in>
						<out>7736</out>
					</clipitem>
					<clipitem frameBlend="FALSE" id="clipitem-143">
						<file id="file-1"/>
						<name>bandicam 2025-06-22 23-18-13-912</name>
						<rate>
							<timebase>59</timebase>
							<ntsc>FALSE</ntsc>
						</rate>
						<rate>
							<timebase>59</timebase>
							<ntsc>FALSE</ntsc>
						</rate>
						<duration>0</duration>
						<start>1704</start>
						<end>1704</end>
						<in>7754</in>
						<out>7754</out>
					</clipitem>
					<clipitem frameBlend="FALSE" id="clipitem-144">
						<file id="file-1"/>
						<name>bandicam 2025-06-22 23-18-13-912</name>
						<rate>
							<timebase>59</timebase>
							<ntsc>FALSE</ntsc>
						</rate>
						<rate>
							<timebase>59</timebase>
							<ntsc>FALSE</ntsc>
						</rate>
						<duration>6</duration>
						<start>1704</start>
						<end>1710</end>
						<in>7772</in>
						<out>7778</out>
					</clipitem>
					<clipitem frameBlend="FALSE" id="clipitem-145">
						<file id="file-1"/>
						<name>bandicam 2025-06-22 23-18-13-912</name>
						<rate>
							<timebase>59</timebase>
							<ntsc>FALSE</ntsc>
						</rate>
						<rate>
							<timebase>59</timebase>
							<ntsc>FALSE</ntsc>
						</rate>
						<duration>0</duration>
						<start>1710</start>
						<end>1710</end>
						<in>7802</in>
						<out>7802</out>
					</clipitem>
					<clipitem frameBlend="FALSE" id="clipitem-146">
						<file id="file-1"/>
						<name>bandicam 2025-06-22 23-18-13-912</name>
						<rate>
							<timebase>59</timebase>
							<ntsc>FALSE</ntsc>
						</rate>
						<rate>
							<timebase>59</timebase>
							<ntsc>FALSE</ntsc>
						</rate>
						<duration>0</duration>
						<start>1710</start>
						<end>1710</end>
						<in>7897</in>
						<out>7897</out>
					</clipitem>
					<clipitem frameBlend="FALSE" id="clipitem-147">
						<file id="file-1"/>
						<name>bandicam 2025-06-22 23-18-13-912</name>
						<rate>
							<timebase>59</timebase>
							<ntsc>FALSE</ntsc>
						</rate>
						<rate>
							<timebase>59</timebase>
							<ntsc>FALSE</ntsc>
						</rate>
						<duration>0</duration>
						<start>1710</start>
						<end>1710</end>
						<in>7951</in>
						<out>7951</out>
					</clipitem>
					<clipitem frameBlend="FALSE" id="clipitem-148">
						<file id="file-1"/>
						<name>bandicam 2025-06-22 23-18-13-912</name>
						<rate>
							<timebase>59</timebase>
							<ntsc>FALSE</ntsc>
						</rate>
						<rate>
							<timebase>59</timebase>
							<ntsc>FALSE</ntsc>
						</rate>
						<duration>0</duration>
						<start>1710</start>
						<end>1710</end>
						<in>8250</in>
						<out>8250</out>
					</clipitem>
					<clipitem frameBlend="FALSE" id="clipitem-149">
						<file id="file-1"/>
						<name>bandicam 2025-06-22 23-18-13-912</name>
						<rate>
							<timebase>59</timebase>
							<ntsc>FALSE</ntsc>
						</rate>
						<rate>
							<timebase>59</timebase>
							<ntsc>FALSE</ntsc>
						</rate>
						<duration>0</duration>
						<start>1710</start>
						<end>1710</end>
						<in>8429</in>
						<out>8429</out>
					</clipitem>
					<clipitem frameBlend="FALSE" id="clipitem-150">
						<file id="file-1"/>
						<name>bandicam 2025-06-22 23-18-13-912</name>
						<rate>
							<timebase>59</timebase>
							<ntsc>FALSE</ntsc>
						</rate>
						<rate>
							<timebase>59</timebase>
							<ntsc>FALSE</ntsc>
						</rate>
						<duration>12</duration>
						<start>1710</start>
						<end>1722</end>
						<in>8447</in>
						<out>8459</out>
					</clipitem>
					<clipitem frameBlend="FALSE" id="clipitem-151">
						<file id="file-1"/>
						<name>bandicam 2025-06-22 23-18-13-912</name>
						<rate>
							<timebase>59</timebase>
							<ntsc>FALSE</ntsc>
						</rate>
						<rate>
							<timebase>59</timebase>
							<ntsc>FALSE</ntsc>
						</rate>
						<duration>0</duration>
						<start>1722</start>
						<end>1722</end>
						<in>8471</in>
						<out>8471</out>
					</clipitem>
					<clipitem frameBlend="FALSE" id="clipitem-152">
						<file id="file-1"/>
						<name>bandicam 2025-06-22 23-18-13-912</name>
						<rate>
							<timebase>59</timebase>
							<ntsc>FALSE</ntsc>
						</rate>
						<rate>
							<timebase>59</timebase>
							<ntsc>FALSE</ntsc>
						</rate>
						<duration>0</duration>
						<start>1722</start>
						<end>1722</end>
						<in>8501</in>
						<out>8501</out>
					</clipitem>
					<clipitem frameBlend="FALSE" id="clipitem-153">
						<file id="file-1"/>
						<name>bandicam 2025-06-22 23-18-13-912</name>
						<rate>
							<timebase>59</timebase>
							<ntsc>FALSE</ntsc>
						</rate>
						<rate>
							<timebase>59</timebase>
							<ntsc>FALSE</ntsc>
						</rate>
						<duration>48</duration>
						<start>1722</start>
						<end>1770</end>
						<in>8525</in>
						<out>8573</out>
					</clipitem>
					<clipitem frameBlend="FALSE" id="clipitem-154">
						<file id="file-1"/>
						<name>bandicam 2025-06-22 23-18-13-912</name>
						<rate>
							<timebase>59</timebase>
							<ntsc>FALSE</ntsc>
						</rate>
						<rate>
							<timebase>59</timebase>
							<ntsc>FALSE</ntsc>
						</rate>
						<duration>138</duration>
						<start>1770</start>
						<end>1908</end>
						<in>8620</in>
						<out>8758</out>
					</clipitem>
					<clipitem frameBlend="FALSE" id="clipitem-155">
						<file id="file-1"/>
						<name>bandicam 2025-06-22 23-18-13-912</name>
						<rate>
							<timebase>59</timebase>
							<ntsc>FALSE</ntsc>
						</rate>
						<rate>
							<timebase>59</timebase>
							<ntsc>FALSE</ntsc>
						</rate>
						<duration>24</duration>
						<start>1908</start>
						<end>1932</end>
						<in>8782</in>
						<out>8806</out>
					</clipitem>
					<clipitem frameBlend="FALSE" id="clipitem-156">
						<file id="file-1"/>
						<name>bandicam 2025-06-22 23-18-13-912</name>
						<rate>
							<timebase>59</timebase>
							<ntsc>FALSE</ntsc>
						</rate>
						<rate>
							<timebase>59</timebase>
							<ntsc>FALSE</ntsc>
						</rate>
						<duration>0</duration>
						<start>1932</start>
						<end>1932</end>
						<in>8949</in>
						<out>8949</out>
					</clipitem>
					<clipitem frameBlend="FALSE" id="clipitem-157">
						<file id="file-1"/>
						<name>bandicam 2025-06-22 23-18-13-912</name>
						<rate>
							<timebase>59</timebase>
							<ntsc>FALSE</ntsc>
						</rate>
						<rate>
							<timebase>59</timebase>
							<ntsc>FALSE</ntsc>
						</rate>
						<duration>0</duration>
						<start>1932</start>
						<end>1932</end>
						<in>9056</in>
						<out>9056</out>
					</clipitem>
					<clipitem frameBlend="FALSE" id="clipitem-158">
						<file id="file-1"/>
						<name>bandicam 2025-06-22 23-18-13-912</name>
						<rate>
							<timebase>59</timebase>
							<ntsc>FALSE</ntsc>
						</rate>
						<rate>
							<timebase>59</timebase>
							<ntsc>FALSE</ntsc>
						</rate>
						<duration>0</duration>
						<start>1932</start>
						<end>1932</end>
						<in>9086</in>
						<out>9086</out>
					</clipitem>
					<clipitem frameBlend="FALSE" id="clipitem-159">
						<file id="file-1"/>
						<name>bandicam 2025-06-22 23-18-13-912</name>
						<rate>
							<timebase>59</timebase>
							<ntsc>FALSE</ntsc>
						</rate>
						<rate>
							<timebase>59</timebase>
							<ntsc>FALSE</ntsc>
						</rate>
						<duration>0</duration>
						<start>1932</start>
						<end>1932</end>
						<in>9110</in>
						<out>9110</out>
					</clipitem>
					<clipitem frameBlend="FALSE" id="clipitem-160">
						<file id="file-1"/>
						<name>bandicam 2025-06-22 23-18-13-912</name>
						<rate>
							<timebase>59</timebase>
							<ntsc>FALSE</ntsc>
						</rate>
						<rate>
							<timebase>59</timebase>
							<ntsc>FALSE</ntsc>
						</rate>
						<duration>0</duration>
						<start>1932</start>
						<end>1932</end>
						<in>9134</in>
						<out>9134</out>
					</clipitem>
					<clipitem frameBlend="FALSE" id="clipitem-161">
						<file id="file-1"/>
						<name>bandicam 2025-06-22 23-18-13-912</name>
						<rate>
							<timebase>59</timebase>
							<ntsc>FALSE</ntsc>
						</rate>
						<rate>
							<timebase>59</timebase>
							<ntsc>FALSE</ntsc>
						</rate>
						<duration>0</duration>
						<start>1932</start>
						<end>1932</end>
						<in>9146</in>
						<out>9146</out>
					</clipitem>
					<clipitem frameBlend="FALSE" id="clipitem-162">
						<file id="file-1"/>
						<name>bandicam 2025-06-22 23-18-13-912</name>
						<rate>
							<timebase>59</timebase>
							<ntsc>FALSE</ntsc>
						</rate>
						<rate>
							<timebase>59</timebase>
							<ntsc>FALSE</ntsc>
						</rate>
						<duration>30</duration>
						<start>1932</start>
						<end>1962</end>
						<in>9158</in>
						<out>9188</out>
					</clipitem>
					<clipitem frameBlend="FALSE" id="clipitem-163">
						<file id="file-1"/>
						<name>bandicam 2025-06-22 23-18-13-912</name>
						<rate>
							<timebase>59</timebase>
							<ntsc>FALSE</ntsc>
						</rate>
						<rate>
							<timebase>59</timebase>
							<ntsc>FALSE</ntsc>
						</rate>
						<duration>6</duration>
						<start>1962</start>
						<end>1968</end>
						<in>9373</in>
						<out>9379</out>
					</clipitem>
					<clipitem frameBlend="FALSE" id="clipitem-164">
						<file id="file-1"/>
						<name>bandicam 2025-06-22 23-18-13-912</name>
						<rate>
							<timebase>59</timebase>
							<ntsc>FALSE</ntsc>
						</rate>
						<rate>
							<timebase>59</timebase>
							<ntsc>FALSE</ntsc>
						</rate>
						<duration>6</duration>
						<start>1968</start>
						<end>1974</end>
						<in>9415</in>
						<out>9421</out>
					</clipitem>
					<clipitem frameBlend="FALSE" id="clipitem-165">
						<file id="file-1"/>
						<name>bandicam 2025-06-22 23-18-13-912</name>
						<rate>
							<timebase>59</timebase>
							<ntsc>FALSE</ntsc>
						</rate>
						<rate>
							<timebase>59</timebase>
							<ntsc>FALSE</ntsc>
						</rate>
						<duration>0</duration>
						<start>1974</start>
						<end>1974</end>
						<in>9451</in>
						<out>9451</out>
					</clipitem>
					<clipitem frameBlend="FALSE" id="clipitem-166">
						<file id="file-1"/>
						<name>bandicam 2025-06-22 23-18-13-912</name>
						<rate>
							<timebase>59</timebase>
							<ntsc>FALSE</ntsc>
						</rate>
						<rate>
							<timebase>59</timebase>
							<ntsc>FALSE</ntsc>
						</rate>
						<duration>149</duration>
						<start>1974</start>
						<end>2123</end>
						<in>9499</in>
						<out>9648</out>
					</clipitem>
					<clipitem frameBlend="FALSE" id="clipitem-167">
						<file id="file-1"/>
						<name>bandicam 2025-06-22 23-18-13-912</name>
						<rate>
							<timebase>59</timebase>
							<ntsc>FALSE</ntsc>
						</rate>
						<rate>
							<timebase>59</timebase>
							<ntsc>FALSE</ntsc>
						</rate>
						<duration>0</duration>
						<start>2123</start>
						<end>2123</end>
						<in>9857</in>
						<out>9857</out>
					</clipitem>
					<clipitem frameBlend="FALSE" id="clipitem-168">
						<file id="file-1"/>
						<name>bandicam 2025-06-22 23-18-13-912</name>
						<rate>
							<timebase>59</timebase>
							<ntsc>FALSE</ntsc>
						</rate>
						<rate>
							<timebase>59</timebase>
							<ntsc>FALSE</ntsc>
						</rate>
						<duration>6</duration>
						<start>2123</start>
						<end>2129</end>
						<in>9875</in>
						<out>9881</out>
					</clipitem>
					<clipitem frameBlend="FALSE" id="clipitem-169">
						<file id="file-1"/>
						<name>bandicam 2025-06-22 23-18-13-912</name>
						<rate>
							<timebase>59</timebase>
							<ntsc>FALSE</ntsc>
						</rate>
						<rate>
							<timebase>59</timebase>
							<ntsc>FALSE</ntsc>
						</rate>
						<duration>0</duration>
						<start>2129</start>
						<end>2129</end>
						<in>9905</in>
						<out>9905</out>
					</clipitem>
					<clipitem frameBlend="FALSE" id="clipitem-170">
						<file id="file-1"/>
						<name>bandicam 2025-06-22 23-18-13-912</name>
						<rate>
							<timebase>59</timebase>
							<ntsc>FALSE</ntsc>
						</rate>
						<rate>
							<timebase>59</timebase>
							<ntsc>FALSE</ntsc>
						</rate>
						<duration>12</duration>
						<start>2129</start>
						<end>2141</end>
						<in>9923</in>
						<out>9935</out>
					</clipitem>
					<clipitem frameBlend="FALSE" id="clipitem-171">
						<file id="file-1"/>
						<name>bandicam 2025-06-22 23-18-13-912</name>
						<rate>
							<timebase>59</timebase>
							<ntsc>FALSE</ntsc>
						</rate>
						<rate>
							<timebase>59</timebase>
							<ntsc>FALSE</ntsc>
						</rate>
						<duration>0</duration>
						<start>2141</start>
						<end>2141</end>
						<in>9953</in>
						<out>9953</out>
					</clipitem>
					<clipitem frameBlend="FALSE" id="clipitem-172">
						<file id="file-1"/>
						<name>bandicam 2025-06-22 23-18-13-912</name>
						<rate>
							<timebase>59</timebase>
							<ntsc>FALSE</ntsc>
						</rate>
						<rate>
							<timebase>59</timebase>
							<ntsc>FALSE</ntsc>
						</rate>
						<duration>35</duration>
						<start>2141</start>
						<end>2176</end>
						<in>9965</in>
						<out>10000</out>
					</clipitem>
					<clipitem frameBlend="FALSE" id="clipitem-173">
						<file id="file-1"/>
						<name>bandicam 2025-06-22 23-18-13-912</name>
						<rate>
							<timebase>59</timebase>
							<ntsc>FALSE</ntsc>
						</rate>
						<rate>
							<timebase>59</timebase>
							<ntsc>FALSE</ntsc>
						</rate>
						<duration>48</duration>
						<start>2176</start>
						<end>2224</end>
						<in>10012</in>
						<out>10060</out>
					</clipitem>
					<clipitem frameBlend="FALSE" id="clipitem-174">
						<file id="file-1"/>
						<name>bandicam 2025-06-22 23-18-13-912</name>
						<rate>
							<timebase>59</timebase>
							<ntsc>FALSE</ntsc>
						</rate>
						<rate>
							<timebase>59</timebase>
							<ntsc>FALSE</ntsc>
						</rate>
						<duration>155</duration>
						<start>2224</start>
						<end>2379</end>
						<in>10078</in>
						<out>10233</out>
					</clipitem>
					<clipitem frameBlend="FALSE" id="clipitem-175">
						<file id="file-1"/>
						<name>bandicam 2025-06-22 23-18-13-912</name>
						<rate>
							<timebase>59</timebase>
							<ntsc>FALSE</ntsc>
						</rate>
						<rate>
							<timebase>59</timebase>
							<ntsc>FALSE</ntsc>
						</rate>
						<duration>48</duration>
						<start>2379</start>
						<end>2427</end>
						<in>10251</in>
						<out>10299</out>
					</clipitem>
					<clipitem frameBlend="FALSE" id="clipitem-176">
						<file id="file-1"/>
						<name>bandicam 2025-06-22 23-18-13-912</name>
						<rate>
							<timebase>59</timebase>
							<ntsc>FALSE</ntsc>
						</rate>
						<rate>
							<timebase>59</timebase>
							<ntsc>FALSE</ntsc>
						</rate>
						<duration>12</duration>
						<start>2427</start>
						<end>2439</end>
						<in>10311</in>
						<out>10323</out>
					</clipitem>
					<clipitem frameBlend="FALSE" id="clipitem-177">
						<file id="file-1"/>
						<name>bandicam 2025-06-22 23-18-13-912</name>
						<rate>
							<timebase>59</timebase>
							<ntsc>FALSE</ntsc>
						</rate>
						<rate>
							<timebase>59</timebase>
							<ntsc>FALSE</ntsc>
						</rate>
						<duration>6</duration>
						<start>2439</start>
						<end>2445</end>
						<in>10347</in>
						<out>10353</out>
					</clipitem>
					<clipitem frameBlend="FALSE" id="clipitem-178">
						<file id="file-1"/>
						<name>bandicam 2025-06-22 23-18-13-912</name>
						<rate>
							<timebase>59</timebase>
							<ntsc>FALSE</ntsc>
						</rate>
						<rate>
							<timebase>59</timebase>
							<ntsc>FALSE</ntsc>
						</rate>
						<duration>17</duration>
						<start>2445</start>
						<end>2462</end>
						<in>10419</in>
						<out>10436</out>
					</clipitem>
					<clipitem frameBlend="FALSE" id="clipitem-179">
						<file id="file-1"/>
						<name>bandicam 2025-06-22 23-18-13-912</name>
						<rate>
							<timebase>59</timebase>
							<ntsc>FALSE</ntsc>
						</rate>
						<rate>
							<timebase>59</timebase>
							<ntsc>FALSE</ntsc>
						</rate>
						<duration>12</duration>
						<start>2462</start>
						<end>2474</end>
						<in>10466</in>
						<out>10478</out>
					</clipitem>
					<clipitem frameBlend="FALSE" id="clipitem-180">
						<file id="file-1"/>
						<name>bandicam 2025-06-22 23-18-13-912</name>
						<rate>
							<timebase>59</timebase>
							<ntsc>FALSE</ntsc>
						</rate>
						<rate>
							<timebase>59</timebase>
							<ntsc>FALSE</ntsc>
						</rate>
						<duration>6</duration>
						<start>2474</start>
						<end>2480</end>
						<in>10538</in>
						<out>10544</out>
					</clipitem>
					<clipitem frameBlend="FALSE" id="clipitem-181">
						<file id="file-1"/>
						<name>bandicam 2025-06-22 23-18-13-912</name>
						<rate>
							<timebase>59</timebase>
							<ntsc>FALSE</ntsc>
						</rate>
						<rate>
							<timebase>59</timebase>
							<ntsc>FALSE</ntsc>
						</rate>
						<duration>60</duration>
						<start>2480</start>
						<end>2540</end>
						<in>10574</in>
						<out>10634</out>
					</clipitem>
					<clipitem frameBlend="FALSE" id="clipitem-182">
						<file id="file-1"/>
						<name>bandicam 2025-06-22 23-18-13-912</name>
						<rate>
							<timebase>59</timebase>
							<ntsc>FALSE</ntsc>
						</rate>
						<rate>
							<timebase>59</timebase>
							<ntsc>FALSE</ntsc>
						</rate>
						<duration>11</duration>
						<start>2540</start>
						<end>2551</end>
						<in>10664</in>
						<out>10675</out>
					</clipitem>
					<clipitem frameBlend="FALSE" id="clipitem-183">
						<file id="file-1"/>
						<name>bandicam 2025-06-22 23-18-13-912</name>
						<rate>
							<timebase>59</timebase>
							<ntsc>FALSE</ntsc>
						</rate>
						<rate>
							<timebase>59</timebase>
							<ntsc>FALSE</ntsc>
						</rate>
						<duration>24</duration>
						<start>2551</start>
						<end>2575</end>
						<in>10705</in>
						<out>10729</out>
					</clipitem>
					<clipitem frameBlend="FALSE" id="clipitem-184">
						<file id="file-1"/>
						<name>bandicam 2025-06-22 23-18-13-912</name>
						<rate>
							<timebase>59</timebase>
							<ntsc>FALSE</ntsc>
						</rate>
						<rate>
							<timebase>59</timebase>
							<ntsc>FALSE</ntsc>
						</rate>
						<duration>0</duration>
						<start>2575</start>
						<end>2575</end>
						<in>10747</in>
						<out>10747</out>
					</clipitem>
					<clipitem frameBlend="FALSE" id="clipitem-185">
						<file id="file-1"/>
						<name>bandicam 2025-06-22 23-18-13-912</name>
						<rate>
							<timebase>59</timebase>
							<ntsc>FALSE</ntsc>
						</rate>
						<rate>
							<timebase>59</timebase>
							<ntsc>FALSE</ntsc>
						</rate>
						<duration>42</duration>
						<start>2575</start>
						<end>2617</end>
						<in>10801</in>
						<out>10843</out>
					</clipitem>
					<clipitem frameBlend="FALSE" id="clipitem-186">
						<file id="file-1"/>
						<name>bandicam 2025-06-22 23-18-13-912</name>
						<rate>
							<timebase>59</timebase>
							<ntsc>FALSE</ntsc>
						</rate>
						<rate>
							<timebase>59</timebase>
							<ntsc>FALSE</ntsc>
						</rate>
						<duration>12</duration>
						<start>2617</start>
						<end>2629</end>
						<in>10914</in>
						<out>10926</out>
					</clipitem>
					<clipitem frameBlend="FALSE" id="clipitem-187">
						<file id="file-1"/>
						<name>bandicam 2025-06-22 23-18-13-912</name>
						<rate>
							<timebase>59</timebase>
							<ntsc>FALSE</ntsc>
						</rate>
						<rate>
							<timebase>59</timebase>
							<ntsc>FALSE</ntsc>
						</rate>
						<duration>18</duration>
						<start>2629</start>
						<end>2647</end>
						<in>10944</in>
						<out>10962</out>
					</clipitem>
					<clipitem frameBlend="FALSE" id="clipitem-188">
						<file id="file-1"/>
						<name>bandicam 2025-06-22 23-18-13-912</name>
						<rate>
							<timebase>59</timebase>
							<ntsc>FALSE</ntsc>
						</rate>
						<rate>
							<timebase>59</timebase>
							<ntsc>FALSE</ntsc>
						</rate>
						<duration>42</duration>
						<start>2647</start>
						<end>2689</end>
						<in>10974</in>
						<out>11016</out>
					</clipitem>
					<clipitem frameBlend="FALSE" id="clipitem-189">
						<file id="file-1"/>
						<name>bandicam 2025-06-22 23-18-13-912</name>
						<rate>
							<timebase>59</timebase>
							<ntsc>FALSE</ntsc>
						</rate>
						<rate>
							<timebase>59</timebase>
							<ntsc>FALSE</ntsc>
						</rate>
						<duration>48</duration>
						<start>2689</start>
						<end>2737</end>
						<in>11034</in>
						<out>11082</out>
					</clipitem>
					<clipitem frameBlend="FALSE" id="clipitem-190">
						<file id="file-1"/>
						<name>bandicam 2025-06-22 23-18-13-912</name>
						<rate>
							<timebase>59</timebase>
							<ntsc>FALSE</ntsc>
						</rate>
						<rate>
							<timebase>59</timebase>
							<ntsc>FALSE</ntsc>
						</rate>
						<duration>245</duration>
						<start>2737</start>
						<end>2982</end>
						<in>11094</in>
						<out>11339</out>
					</clipitem>
					<clipitem frameBlend="FALSE" id="clipitem-191">
						<file id="file-1"/>
						<name>bandicam 2025-06-22 23-18-13-912</name>
						<rate>
							<timebase>59</timebase>
							<ntsc>FALSE</ntsc>
						</rate>
						<rate>
							<timebase>59</timebase>
							<ntsc>FALSE</ntsc>
						</rate>
						<duration>12</duration>
						<start>2982</start>
						<end>2994</end>
						<in>11398</in>
						<out>11410</out>
					</clipitem>
					<clipitem frameBlend="FALSE" id="clipitem-192">
						<file id="file-1"/>
						<name>bandicam 2025-06-22 23-18-13-912</name>
						<rate>
							<timebase>59</timebase>
							<ntsc>FALSE</ntsc>
						</rate>
						<rate>
							<timebase>59</timebase>
							<ntsc>FALSE</ntsc>
						</rate>
						<duration>0</duration>
						<start>2994</start>
						<end>2994</end>
						<in>11470</in>
						<out>11470</out>
					</clipitem>
					<clipitem frameBlend="FALSE" id="clipitem-193">
						<file id="file-1"/>
						<name>bandicam 2025-06-22 23-18-13-912</name>
						<rate>
							<timebase>59</timebase>
							<ntsc>FALSE</ntsc>
						</rate>
						<rate>
							<timebase>59</timebase>
							<ntsc>FALSE</ntsc>
						</rate>
						<duration>0</duration>
						<start>2994</start>
						<end>2994</end>
						<in>11494</in>
						<out>11494</out>
					</clipitem>
					<clipitem frameBlend="FALSE" id="clipitem-194">
						<file id="file-1"/>
						<name>bandicam 2025-06-22 23-18-13-912</name>
						<rate>
							<timebase>59</timebase>
							<ntsc>FALSE</ntsc>
						</rate>
						<rate>
							<timebase>59</timebase>
							<ntsc>FALSE</ntsc>
						</rate>
						<duration>18</duration>
						<start>2994</start>
						<end>3012</end>
						<in>11518</in>
						<out>11536</out>
					</clipitem>
					<clipitem frameBlend="FALSE" id="clipitem-195">
						<file id="file-1"/>
						<name>bandicam 2025-06-22 23-18-13-912</name>
						<rate>
							<timebase>59</timebase>
							<ntsc>FALSE</ntsc>
						</rate>
						<rate>
							<timebase>59</timebase>
							<ntsc>FALSE</ntsc>
						</rate>
						<duration>0</duration>
						<start>3012</start>
						<end>3012</end>
						<in>11601</in>
						<out>11601</out>
					</clipitem>
					<clipitem frameBlend="FALSE" id="clipitem-196">
						<file id="file-1"/>
						<name>bandicam 2025-06-22 23-18-13-912</name>
						<rate>
							<timebase>59</timebase>
							<ntsc>FALSE</ntsc>
						</rate>
						<rate>
							<timebase>59</timebase>
							<ntsc>FALSE</ntsc>
						</rate>
						<duration>0</duration>
						<start>3012</start>
						<end>3012</end>
						<in>11643</in>
						<out>11643</out>
					</clipitem>
					<clipitem frameBlend="FALSE" id="clipitem-197">
						<file id="file-1"/>
						<name>bandicam 2025-06-22 23-18-13-912</name>
						<rate>
							<timebase>59</timebase>
							<ntsc>FALSE</ntsc>
						</rate>
						<rate>
							<timebase>59</timebase>
							<ntsc>FALSE</ntsc>
						</rate>
						<duration>12</duration>
						<start>3012</start>
						<end>3024</end>
						<in>11661</in>
						<out>11673</out>
					</clipitem>
					<clipitem frameBlend="FALSE" id="clipitem-198">
						<file id="file-1"/>
						<name>bandicam 2025-06-22 23-18-13-912</name>
						<rate>
							<timebase>59</timebase>
							<ntsc>FALSE</ntsc>
						</rate>
						<rate>
							<timebase>59</timebase>
							<ntsc>FALSE</ntsc>
						</rate>
						<duration>6</duration>
						<start>3024</start>
						<end>3030</end>
						<in>11703</in>
						<out>11709</out>
					</clipitem>
					<clipitem frameBlend="FALSE" id="clipitem-199">
						<file id="file-1"/>
						<name>bandicam 2025-06-22 23-18-13-912</name>
						<rate>
							<timebase>59</timebase>
							<ntsc>FALSE</ntsc>
						</rate>
						<rate>
							<timebase>59</timebase>
							<ntsc>FALSE</ntsc>
						</rate>
						<duration>89</duration>
						<start>3030</start>
						<end>3119</end>
						<in>11769</in>
						<out>11858</out>
					</clipitem>
					<clipitem frameBlend="FALSE" id="clipitem-200">
						<file id="file-1"/>
						<name>bandicam 2025-06-22 23-18-13-912</name>
						<rate>
							<timebase>59</timebase>
							<ntsc>FALSE</ntsc>
						</rate>
						<rate>
							<timebase>59</timebase>
							<ntsc>FALSE</ntsc>
						</rate>
						<duration>0</duration>
						<start>3119</start>
						<end>3119</end>
						<in>12456</in>
						<out>12456</out>
					</clipitem>
					<clipitem frameBlend="FALSE" id="clipitem-201">
						<file id="file-1"/>
						<name>bandicam 2025-06-22 23-18-13-912</name>
						<rate>
							<timebase>59</timebase>
							<ntsc>FALSE</ntsc>
						</rate>
						<rate>
							<timebase>59</timebase>
							<ntsc>FALSE</ntsc>
						</rate>
						<duration>6</duration>
						<start>3119</start>
						<end>3125</end>
						<in>12725</in>
						<out>12731</out>
					</clipitem>
					<clipitem frameBlend="FALSE" id="clipitem-202">
						<file id="file-1"/>
						<name>bandicam 2025-06-22 23-18-13-912</name>
						<rate>
							<timebase>59</timebase>
							<ntsc>FALSE</ntsc>
						</rate>
						<rate>
							<timebase>59</timebase>
							<ntsc>FALSE</ntsc>
						</rate>
						<duration>24</duration>
						<start>3125</start>
						<end>3149</end>
						<in>12754</in>
						<out>12778</out>
					</clipitem>
					<clipitem frameBlend="FALSE" id="clipitem-203">
						<file id="file-1"/>
						<name>bandicam 2025-06-22 23-18-13-912</name>
						<rate>
							<timebase>59</timebase>
							<ntsc>FALSE</ntsc>
						</rate>
						<rate>
							<timebase>59</timebase>
							<ntsc>FALSE</ntsc>
						</rate>
						<duration>30</duration>
						<start>3149</start>
						<end>3179</end>
						<in>12790</in>
						<out>12820</out>
					</clipitem>
					<clipitem frameBlend="FALSE" id="clipitem-204">
						<file id="file-1"/>
						<name>bandicam 2025-06-22 23-18-13-912</name>
						<rate>
							<timebase>59</timebase>
							<ntsc>FALSE</ntsc>
						</rate>
						<rate>
							<timebase>59</timebase>
							<ntsc>FALSE</ntsc>
						</rate>
						<duration>36</duration>
						<start>3179</start>
						<end>3215</end>
						<in>12832</in>
						<out>12868</out>
					</clipitem>
					<clipitem frameBlend="FALSE" id="clipitem-205">
						<file id="file-1"/>
						<name>bandicam 2025-06-22 23-18-13-912</name>
						<rate>
							<timebase>59</timebase>
							<ntsc>FALSE</ntsc>
						</rate>
						<rate>
							<timebase>59</timebase>
							<ntsc>FALSE</ntsc>
						</rate>
						<duration>18</duration>
						<start>3215</start>
						<end>3233</end>
						<in>12952</in>
						<out>12970</out>
					</clipitem>
					<clipitem frameBlend="FALSE" id="clipitem-206">
						<file id="file-1"/>
						<name>bandicam 2025-06-22 23-18-13-912</name>
						<rate>
							<timebase>59</timebase>
							<ntsc>FALSE</ntsc>
						</rate>
						<rate>
							<timebase>59</timebase>
							<ntsc>FALSE</ntsc>
						</rate>
						<duration>6</duration>
						<start>3233</start>
						<end>3239</end>
						<in>13011</in>
						<out>13017</out>
					</clipitem>
					<clipitem frameBlend="FALSE" id="clipitem-207">
						<file id="file-1"/>
						<name>bandicam 2025-06-22 23-18-13-912</name>
						<rate>
							<timebase>59</timebase>
							<ntsc>FALSE</ntsc>
						</rate>
						<rate>
							<timebase>59</timebase>
							<ntsc>FALSE</ntsc>
						</rate>
						<duration>0</duration>
						<start>3239</start>
						<end>3239</end>
						<in>13041</in>
						<out>13041</out>
					</clipitem>
					<clipitem frameBlend="FALSE" id="clipitem-208">
						<file id="file-1"/>
						<name>bandicam 2025-06-22 23-18-13-912</name>
						<rate>
							<timebase>59</timebase>
							<ntsc>FALSE</ntsc>
						</rate>
						<rate>
							<timebase>59</timebase>
							<ntsc>FALSE</ntsc>
						</rate>
						<duration>0</duration>
						<start>3239</start>
						<end>3239</end>
						<in>13053</in>
						<out>13053</out>
					</clipitem>
					<clipitem frameBlend="FALSE" id="clipitem-209">
						<file id="file-1"/>
						<name>bandicam 2025-06-22 23-18-13-912</name>
						<rate>
							<timebase>59</timebase>
							<ntsc>FALSE</ntsc>
						</rate>
						<rate>
							<timebase>59</timebase>
							<ntsc>FALSE</ntsc>
						</rate>
						<duration>36</duration>
						<start>3239</start>
						<end>3275</end>
						<in>13089</in>
						<out>13125</out>
					</clipitem>
					<clipitem frameBlend="FALSE" id="clipitem-210">
						<file id="file-1"/>
						<name>bandicam 2025-06-22 23-18-13-912</name>
						<rate>
							<timebase>59</timebase>
							<ntsc>FALSE</ntsc>
						</rate>
						<rate>
							<timebase>59</timebase>
							<ntsc>FALSE</ntsc>
						</rate>
						<duration>30</duration>
						<start>3275</start>
						<end>3305</end>
						<in>13274</in>
						<out>13304</out>
					</clipitem>
					<clipitem frameBlend="FALSE" id="clipitem-211">
						<file id="file-1"/>
						<name>bandicam 2025-06-22 23-18-13-912</name>
						<rate>
							<timebase>59</timebase>
							<ntsc>FALSE</ntsc>
						</rate>
						<rate>
							<timebase>59</timebase>
							<ntsc>FALSE</ntsc>
						</rate>
						<duration>0</duration>
						<start>3305</start>
						<end>3305</end>
						<in>13412</in>
						<out>13412</out>
					</clipitem>
					<clipitem frameBlend="FALSE" id="clipitem-212">
						<file id="file-1"/>
						<name>bandicam 2025-06-22 23-18-13-912</name>
						<rate>
							<timebase>59</timebase>
							<ntsc>FALSE</ntsc>
						</rate>
						<rate>
							<timebase>59</timebase>
							<ntsc>FALSE</ntsc>
						</rate>
						<duration>0</duration>
						<start>3305</start>
						<end>3305</end>
						<in>13424</in>
						<out>13424</out>
					</clipitem>
					<clipitem frameBlend="FALSE" id="clipitem-213">
						<file id="file-1"/>
						<name>bandicam 2025-06-22 23-18-13-912</name>
						<rate>
							<timebase>59</timebase>
							<ntsc>FALSE</ntsc>
						</rate>
						<rate>
							<timebase>59</timebase>
							<ntsc>FALSE</ntsc>
						</rate>
						<duration>24</duration>
						<start>3305</start>
						<end>3329</end>
						<in>13453</in>
						<out>13477</out>
					</clipitem>
					<clipitem frameBlend="FALSE" id="clipitem-214">
						<file id="file-1"/>
						<name>bandicam 2025-06-22 23-18-13-912</name>
						<rate>
							<timebase>59</timebase>
							<ntsc>FALSE</ntsc>
						</rate>
						<rate>
							<timebase>59</timebase>
							<ntsc>FALSE</ntsc>
						</rate>
						<duration>84</duration>
						<start>3329</start>
						<end>3413</end>
						<in>13495</in>
						<out>13579</out>
					</clipitem>
					<clipitem frameBlend="FALSE" id="clipitem-215">
						<file id="file-1"/>
						<name>bandicam 2025-06-22 23-18-13-912</name>
						<rate>
							<timebase>59</timebase>
							<ntsc>FALSE</ntsc>
						</rate>
						<rate>
							<timebase>59</timebase>
							<ntsc>FALSE</ntsc>
						</rate>
						<duration>233</duration>
						<start>3413</start>
						<end>3646</end>
						<in>13591</in>
						<out>13824</out>
					</clipitem>
					<clipitem frameBlend="FALSE" id="clipitem-216">
						<file id="file-1"/>
						<name>bandicam 2025-06-22 23-18-13-912</name>
						<rate>
							<timebase>59</timebase>
							<ntsc>FALSE</ntsc>
						</rate>
						<rate>
							<timebase>59</timebase>
							<ntsc>FALSE</ntsc>
						</rate>
						<duration>101</duration>
						<start>3646</start>
						<end>3747</end>
						<in>13836</in>
						<out>13937</out>
					</clipitem>
					<clipitem frameBlend="FALSE" id="clipitem-217">
						<file id="file-1"/>
						<name>bandicam 2025-06-22 23-18-13-912</name>
						<rate>
							<timebase>59</timebase>
							<ntsc>FALSE</ntsc>
						</rate>
						<rate>
							<timebase>59</timebase>
							<ntsc>FALSE</ntsc>
						</rate>
						<duration>36</duration>
						<start>3747</start>
						<end>3783</end>
						<in>13949</in>
						<out>13985</out>
					</clipitem>
					<clipitem frameBlend="FALSE" id="clipitem-218">
						<file id="file-1"/>
						<name>bandicam 2025-06-22 23-18-13-912</name>
						<rate>
							<timebase>59</timebase>
							<ntsc>FALSE</ntsc>
						</rate>
						<rate>
							<timebase>59</timebase>
							<ntsc>FALSE</ntsc>
						</rate>
						<duration>36</duration>
						<start>3783</start>
						<end>3819</end>
						<in>13997</in>
						<out>14033</out>
					</clipitem>
					<clipitem frameBlend="FALSE" id="clipitem-219">
						<file id="file-1"/>
						<name>bandicam 2025-06-22 23-18-13-912</name>
						<rate>
							<timebase>59</timebase>
							<ntsc>FALSE</ntsc>
						</rate>
						<rate>
							<timebase>59</timebase>
							<ntsc>FALSE</ntsc>
						</rate>
						<duration>36</duration>
						<start>3819</start>
						<end>3855</end>
						<in>14045</in>
						<out>14081</out>
					</clipitem>
					<clipitem frameBlend="FALSE" id="clipitem-220">
						<file id="file-1"/>
						<name>bandicam 2025-06-22 23-18-13-912</name>
						<rate>
							<timebase>59</timebase>
							<ntsc>FALSE</ntsc>
						</rate>
						<rate>
							<timebase>59</timebase>
							<ntsc>FALSE</ntsc>
						</rate>
						<duration>119</duration>
						<start>3855</start>
						<end>3974</end>
						<in>14105</in>
						<out>14224</out>
					</clipitem>
					<clipitem frameBlend="FALSE" id="clipitem-221">
						<file id="file-1"/>
						<name>bandicam 2025-06-22 23-18-13-912</name>
						<rate>
							<timebase>59</timebase>
							<ntsc>FALSE</ntsc>
						</rate>
						<rate>
							<timebase>59</timebase>
							<ntsc>FALSE</ntsc>
						</rate>
						<duration>0</duration>
						<start>3974</start>
						<end>3974</end>
						<in>14236</in>
						<out>14236</out>
					</clipitem>
					<clipitem frameBlend="FALSE" id="clipitem-222">
						<file id="file-1"/>
						<name>bandicam 2025-06-22 23-18-13-912</name>
						<rate>
							<timebase>59</timebase>
							<ntsc>FALSE</ntsc>
						</rate>
						<rate>
							<timebase>59</timebase>
							<ntsc>FALSE</ntsc>
						</rate>
						<duration>90</duration>
						<start>3974</start>
						<end>4064</end>
						<in>14254</in>
						<out>14344</out>
					</clipitem>
					<clipitem frameBlend="FALSE" id="clipitem-223">
						<file id="file-1"/>
						<name>bandicam 2025-06-22 23-18-13-912</name>
						<rate>
							<timebase>59</timebase>
							<ntsc>FALSE</ntsc>
						</rate>
						<rate>
							<timebase>59</timebase>
							<ntsc>FALSE</ntsc>
						</rate>
						<duration>65</duration>
						<start>4064</start>
						<end>4129</end>
						<in>14362</in>
						<out>14427</out>
					</clipitem>
					<clipitem frameBlend="FALSE" id="clipitem-224">
						<file id="file-1"/>
						<name>bandicam 2025-06-22 23-18-13-912</name>
						<rate>
							<timebase>59</timebase>
							<ntsc>FALSE</ntsc>
						</rate>
						<rate>
							<timebase>59</timebase>
							<ntsc>FALSE</ntsc>
						</rate>
						<duration>114</duration>
						<start>4129</start>
						<end>4243</end>
						<in>14445</in>
						<out>14559</out>
					</clipitem>
					<clipitem frameBlend="FALSE" id="clipitem-225">
						<file id="file-1"/>
						<name>bandicam 2025-06-22 23-18-13-912</name>
						<rate>
							<timebase>59</timebase>
							<ntsc>FALSE</ntsc>
						</rate>
						<rate>
							<timebase>59</timebase>
							<ntsc>FALSE</ntsc>
						</rate>
						<duration>6</duration>
						<start>4243</start>
						<end>4249</end>
						<in>14571</in>
						<out>14577</out>
					</clipitem>
					<clipitem frameBlend="FALSE" id="clipitem-226">
						<file id="file-1"/>
						<name>bandicam 2025-06-22 23-18-13-912</name>
						<rate>
							<timebase>59</timebase>
							<ntsc>FALSE</ntsc>
						</rate>
						<rate>
							<timebase>59</timebase>
							<ntsc>FALSE</ntsc>
						</rate>
						<duration>53</duration>
						<start>4249</start>
						<end>4302</end>
						<in>14589</in>
						<out>14642</out>
					</clipitem>
					<clipitem frameBlend="FALSE" id="clipitem-227">
						<file id="file-1"/>
						<name>bandicam 2025-06-22 23-18-13-912</name>
						<rate>
							<timebase>59</timebase>
							<ntsc>FALSE</ntsc>
						</rate>
						<rate>
							<timebase>59</timebase>
							<ntsc>FALSE</ntsc>
						</rate>
						<duration>269</duration>
						<start>4302</start>
						<end>4571</end>
						<in>14654</in>
						<out>14923</out>
					</clipitem>
					<clipitem frameBlend="FALSE" id="clipitem-228">
						<file id="file-1"/>
						<name>bandicam 2025-06-22 23-18-13-912</name>
						<rate>
							<timebase>59</timebase>
							<ntsc>FALSE</ntsc>
						</rate>
						<rate>
							<timebase>59</timebase>
							<ntsc>FALSE</ntsc>
						</rate>
						<duration>18</duration>
						<start>4571</start>
						<end>4589</end>
						<in>14935</in>
						<out>14953</out>
					</clipitem>
					<clipitem frameBlend="FALSE" id="clipitem-229">
						<file id="file-1"/>
						<name>bandicam 2025-06-22 23-18-13-912</name>
						<rate>
							<timebase>59</timebase>
							<ntsc>FALSE</ntsc>
						</rate>
						<rate>
							<timebase>59</timebase>
							<ntsc>FALSE</ntsc>
						</rate>
						<duration>281</duration>
						<start>4589</start>
						<end>4870</end>
						<in>14971</in>
						<out>15252</out>
					</clipitem>
					<clipitem frameBlend="FALSE" id="clipitem-230">
						<file id="file-1"/>
						<name>bandicam 2025-06-22 23-18-13-912</name>
						<rate>
							<timebase>59</timebase>
							<ntsc>FALSE</ntsc>
						</rate>
						<rate>
							<timebase>59</timebase>
							<ntsc>FALSE</ntsc>
						</rate>
						<duration>12</duration>
						<start>4870</start>
						<end>4882</end>
						<in>15264</in>
						<out>15276</out>
					</clipitem>
					<clipitem frameBlend="FALSE" id="clipitem-231">
						<file id="file-1"/>
						<name>bandicam 2025-06-22 23-18-13-912</name>
						<rate>
							<timebase>59</timebase>
							<ntsc>FALSE</ntsc>
						</rate>
						<rate>
							<timebase>59</timebase>
							<ntsc>FALSE</ntsc>
						</rate>
						<duration>222</duration>
						<start>4882</start>
						<end>5104</end>
						<in>15311</in>
						<out>15533</out>
					</clipitem>
					<clipitem frameBlend="FALSE" id="clipitem-232">
						<file id="file-1"/>
						<name>bandicam 2025-06-22 23-18-13-912</name>
						<rate>
							<timebase>59</timebase>
							<ntsc>FALSE</ntsc>
						</rate>
						<rate>
							<timebase>59</timebase>
							<ntsc>FALSE</ntsc>
						</rate>
						<duration>6</duration>
						<start>5104</start>
						<end>5110</end>
						<in>15544</in>
						<out>15550</out>
					</clipitem>
					<clipitem frameBlend="FALSE" id="clipitem-233">
						<file id="file-1"/>
						<name>bandicam 2025-06-22 23-18-13-912</name>
						<rate>
							<timebase>59</timebase>
							<ntsc>FALSE</ntsc>
						</rate>
						<rate>
							<timebase>59</timebase>
							<ntsc>FALSE</ntsc>
						</rate>
						<duration>669</duration>
						<start>5110</start>
						<end>5779</end>
						<in>15562</in>
						<out>16231</out>
					</clipitem>
					<clipitem frameBlend="FALSE" id="clipitem-234">
						<file id="file-1"/>
						<name>bandicam 2025-06-22 23-18-13-912</name>
						<rate>
							<timebase>59</timebase>
							<ntsc>FALSE</ntsc>
						</rate>
						<rate>
							<timebase>59</timebase>
							<ntsc>FALSE</ntsc>
						</rate>
						<duration>251</duration>
						<start>5779</start>
						<end>6030</end>
						<in>16243</in>
						<out>16494</out>
					</clipitem>
					<clipitem frameBlend="FALSE" id="clipitem-235">
						<file id="file-1"/>
						<name>bandicam 2025-06-22 23-18-13-912</name>
						<rate>
							<timebase>59</timebase>
							<ntsc>FALSE</ntsc>
						</rate>
						<rate>
							<timebase>59</timebase>
							<ntsc>FALSE</ntsc>
						</rate>
						<duration>179</duration>
						<start>6030</start>
						<end>6209</end>
						<in>16518</in>
						<out>16697</out>
					</clipitem>
					<clipitem frameBlend="FALSE" id="clipitem-236">
						<file id="file-1"/>
						<name>bandicam 2025-06-22 23-18-13-912</name>
						<rate>
							<timebase>59</timebase>
							<ntsc>FALSE</ntsc>
						</rate>
						<rate>
							<timebase>59</timebase>
							<ntsc>FALSE</ntsc>
						</rate>
						<duration>42</duration>
						<start>6209</start>
						<end>6251</end>
						<in>16709</in>
						<out>16751</out>
					</clipitem>
					<clipitem frameBlend="FALSE" id="clipitem-237">
						<file id="file-1"/>
						<name>bandicam 2025-06-22 23-18-13-912</name>
						<rate>
							<timebase>59</timebase>
							<ntsc>FALSE</ntsc>
						</rate>
						<rate>
							<timebase>59</timebase>
							<ntsc>FALSE</ntsc>
						</rate>
						<duration>6</duration>
						<start>6251</start>
						<end>6257</end>
						<in>16763</in>
						<out>16769</out>
					</clipitem>
					<clipitem frameBlend="FALSE" id="clipitem-238">
						<file id="file-1"/>
						<name>bandicam 2025-06-22 23-18-13-912</name>
						<rate>
							<timebase>59</timebase>
							<ntsc>FALSE</ntsc>
						</rate>
						<rate>
							<timebase>59</timebase>
							<ntsc>FALSE</ntsc>
						</rate>
						<duration>12</duration>
						<start>6257</start>
						<end>6269</end>
						<in>16871</in>
						<out>16883</out>
					</clipitem>
					<clipitem frameBlend="FALSE" id="clipitem-239">
						<file id="file-1"/>
						<name>bandicam 2025-06-22 23-18-13-912</name>
						<rate>
							<timebase>59</timebase>
							<ntsc>FALSE</ntsc>
						</rate>
						<rate>
							<timebase>59</timebase>
							<ntsc>FALSE</ntsc>
						</rate>
						<duration>23</duration>
						<start>6269</start>
						<end>6292</end>
						<in>16907</in>
						<out>16930</out>
					</clipitem>
					<clipitem frameBlend="FALSE" id="clipitem-240">
						<file id="file-1"/>
						<name>bandicam 2025-06-22 23-18-13-912</name>
						<rate>
							<timebase>59</timebase>
							<ntsc>FALSE</ntsc>
						</rate>
						<rate>
							<timebase>59</timebase>
							<ntsc>FALSE</ntsc>
						</rate>
						<duration>96</duration>
						<start>6292</start>
						<end>6388</end>
						<in>16954</in>
						<out>17050</out>
					</clipitem>
					<clipitem frameBlend="FALSE" id="clipitem-241">
						<file id="file-1"/>
						<name>bandicam 2025-06-22 23-18-13-912</name>
						<rate>
							<timebase>59</timebase>
							<ntsc>FALSE</ntsc>
						</rate>
						<rate>
							<timebase>59</timebase>
							<ntsc>FALSE</ntsc>
						</rate>
						<duration>18</duration>
						<start>6388</start>
						<end>6406</end>
						<in>17068</in>
						<out>17086</out>
					</clipitem>
					<clipitem frameBlend="FALSE" id="clipitem-242">
						<file id="file-1"/>
						<name>bandicam 2025-06-22 23-18-13-912</name>
						<rate>
							<timebase>59</timebase>
							<ntsc>FALSE</ntsc>
						</rate>
						<rate>
							<timebase>59</timebase>
							<ntsc>FALSE</ntsc>
						</rate>
						<duration>47</duration>
						<start>6406</start>
						<end>6453</end>
						<in>17116</in>
						<out>17163</out>
					</clipitem>
					<clipitem frameBlend="FALSE" id="clipitem-243">
						<file id="file-1"/>
						<name>bandicam 2025-06-22 23-18-13-912</name>
						<rate>
							<timebase>59</timebase>
							<ntsc>FALSE</ntsc>
						</rate>
						<rate>
							<timebase>59</timebase>
							<ntsc>FALSE</ntsc>
						</rate>
						<duration>203</duration>
						<start>6453</start>
						<end>6656</end>
						<in>17187</in>
						<out>17390</out>
					</clipitem>
					<clipitem frameBlend="FALSE" id="clipitem-244">
						<file id="file-1"/>
						<name>bandicam 2025-06-22 23-18-13-912</name>
						<rate>
							<timebase>59</timebase>
							<ntsc>FALSE</ntsc>
						</rate>
						<rate>
							<timebase>59</timebase>
							<ntsc>FALSE</ntsc>
						</rate>
						<duration>18</duration>
						<start>6656</start>
						<end>6674</end>
						<in>17402</in>
						<out>17420</out>
					</clipitem>
					<clipitem frameBlend="FALSE" id="clipitem-245">
						<file id="file-1"/>
						<name>bandicam 2025-06-22 23-18-13-912</name>
						<rate>
							<timebase>59</timebase>
							<ntsc>FALSE</ntsc>
						</rate>
						<rate>
							<timebase>59</timebase>
							<ntsc>FALSE</ntsc>
						</rate>
						<duration>6</duration>
						<start>6674</start>
						<end>6680</end>
						<in>17450</in>
						<out>17456</out>
					</clipitem>
					<clipitem frameBlend="FALSE" id="clipitem-246">
						<file id="file-1"/>
						<name>bandicam 2025-06-22 23-18-13-912</name>
						<rate>
							<timebase>59</timebase>
							<ntsc>FALSE</ntsc>
						</rate>
						<rate>
							<timebase>59</timebase>
							<ntsc>FALSE</ntsc>
						</rate>
						<duration>137</duration>
						<start>6680</start>
						<end>6817</end>
						<in>17492</in>
						<out>17629</out>
					</clipitem>
					<clipitem frameBlend="FALSE" id="clipitem-247">
						<file id="file-1"/>
						<name>bandicam 2025-06-22 23-18-13-912</name>
						<rate>
							<timebase>59</timebase>
							<ntsc>FALSE</ntsc>
						</rate>
						<rate>
							<timebase>59</timebase>
							<ntsc>FALSE</ntsc>
						</rate>
						<duration>72</duration>
						<start>6817</start>
						<end>6889</end>
						<in>17665</in>
						<out>17737</out>
					</clipitem>
					<clipitem frameBlend="FALSE" id="clipitem-248">
						<file id="file-1"/>
						<name>bandicam 2025-06-22 23-18-13-912</name>
						<rate>
							<timebase>59</timebase>
							<ntsc>FALSE</ntsc>
						</rate>
						<rate>
							<timebase>59</timebase>
							<ntsc>FALSE</ntsc>
						</rate>
						<duration>12</duration>
						<start>6889</start>
						<end>6901</end>
						<in>17767</in>
						<out>17779</out>
					</clipitem>
					<clipitem frameBlend="FALSE" id="clipitem-249">
						<file id="file-1"/>
						<name>bandicam 2025-06-22 23-18-13-912</name>
						<rate>
							<timebase>59</timebase>
							<ntsc>FALSE</ntsc>
						</rate>
						<rate>
							<timebase>59</timebase>
							<ntsc>FALSE</ntsc>
						</rate>
						<duration>42</duration>
						<start>6901</start>
						<end>6943</end>
						<in>17803</in>
						<out>17845</out>
					</clipitem>
					<clipitem frameBlend="FALSE" id="clipitem-250">
						<file id="file-1"/>
						<name>bandicam 2025-06-22 23-18-13-912</name>
						<rate>
							<timebase>59</timebase>
							<ntsc>FALSE</ntsc>
						</rate>
						<rate>
							<timebase>59</timebase>
							<ntsc>FALSE</ntsc>
						</rate>
						<duration>6</duration>
						<start>6943</start>
						<end>6949</end>
						<in>17886</in>
						<out>17892</out>
					</clipitem>
					<clipitem frameBlend="FALSE" id="clipitem-251">
						<file id="file-1"/>
						<name>bandicam 2025-06-22 23-18-13-912</name>
						<rate>
							<timebase>59</timebase>
							<ntsc>FALSE</ntsc>
						</rate>
						<rate>
							<timebase>59</timebase>
							<ntsc>FALSE</ntsc>
						</rate>
						<duration>30</duration>
						<start>6949</start>
						<end>6979</end>
						<in>17916</in>
						<out>17946</out>
					</clipitem>
					<clipitem frameBlend="FALSE" id="clipitem-252">
						<file id="file-1"/>
						<name>bandicam 2025-06-22 23-18-13-912</name>
						<rate>
							<timebase>59</timebase>
							<ntsc>FALSE</ntsc>
						</rate>
						<rate>
							<timebase>59</timebase>
							<ntsc>FALSE</ntsc>
						</rate>
						<duration>0</duration>
						<start>6979</start>
						<end>6979</end>
						<in>17964</in>
						<out>17964</out>
					</clipitem>
					<clipitem frameBlend="FALSE" id="clipitem-253">
						<file id="file-1"/>
						<name>bandicam 2025-06-22 23-18-13-912</name>
						<rate>
							<timebase>59</timebase>
							<ntsc>FALSE</ntsc>
						</rate>
						<rate>
							<timebase>59</timebase>
							<ntsc>FALSE</ntsc>
						</rate>
						<duration>0</duration>
						<start>6979</start>
						<end>6979</end>
						<in>17988</in>
						<out>17988</out>
					</clipitem>
					<clipitem frameBlend="FALSE" id="clipitem-254">
						<file id="file-1"/>
						<name>bandicam 2025-06-22 23-18-13-912</name>
						<rate>
							<timebase>59</timebase>
							<ntsc>FALSE</ntsc>
						</rate>
						<rate>
							<timebase>59</timebase>
							<ntsc>FALSE</ntsc>
						</rate>
						<duration>77</duration>
						<start>6979</start>
						<end>7056</end>
						<in>18012</in>
						<out>18089</out>
					</clipitem>
					<clipitem frameBlend="FALSE" id="clipitem-255">
						<file id="file-1"/>
						<name>bandicam 2025-06-22 23-18-13-912</name>
						<rate>
							<timebase>59</timebase>
							<ntsc>FALSE</ntsc>
						</rate>
						<rate>
							<timebase>59</timebase>
							<ntsc>FALSE</ntsc>
						</rate>
						<duration>263</duration>
						<start>7056</start>
						<end>7319</end>
						<in>18107</in>
						<out>18370</out>
					</clipitem>
					<clipitem frameBlend="FALSE" id="clipitem-256">
						<file id="file-1"/>
						<name>bandicam 2025-06-22 23-18-13-912</name>
						<rate>
							<timebase>59</timebase>
							<ntsc>FALSE</ntsc>
						</rate>
						<rate>
							<timebase>59</timebase>
							<ntsc>FALSE</ntsc>
						</rate>
						<duration>138</duration>
						<start>7319</start>
						<end>7457</end>
						<in>18394</in>
						<out>18532</out>
					</clipitem>
					<clipitem frameBlend="FALSE" id="clipitem-257">
						<file id="file-1"/>
						<name>bandicam 2025-06-22 23-18-13-912</name>
						<rate>
							<timebase>59</timebase>
							<ntsc>FALSE</ntsc>
						</rate>
						<rate>
							<timebase>59</timebase>
							<ntsc>FALSE</ntsc>
						</rate>
						<duration>5</duration>
						<start>7457</start>
						<end>7462</end>
						<in>18544</in>
						<out>18549</out>
					</clipitem>
					<clipitem frameBlend="FALSE" id="clipitem-258">
						<file id="file-1"/>
						<name>bandicam 2025-06-22 23-18-13-912</name>
						<rate>
							<timebase>59</timebase>
							<ntsc>FALSE</ntsc>
						</rate>
						<rate>
							<timebase>59</timebase>
							<ntsc>FALSE</ntsc>
						</rate>
						<duration>54</duration>
						<start>7462</start>
						<end>7516</end>
						<in>18573</in>
						<out>18627</out>
					</clipitem>
					<clipitem frameBlend="FALSE" id="clipitem-259">
						<file id="file-1"/>
						<name>bandicam 2025-06-22 23-18-13-912</name>
						<rate>
							<timebase>59</timebase>
							<ntsc>FALSE</ntsc>
						</rate>
						<rate>
							<timebase>59</timebase>
							<ntsc>FALSE</ntsc>
						</rate>
						<duration>18</duration>
						<start>7516</start>
						<end>7534</end>
						<in>18645</in>
						<out>18663</out>
					</clipitem>
					<clipitem frameBlend="FALSE" id="clipitem-260">
						<file id="file-1"/>
						<name>bandicam 2025-06-22 23-18-13-912</name>
						<rate>
							<timebase>59</timebase>
							<ntsc>FALSE</ntsc>
						</rate>
						<rate>
							<timebase>59</timebase>
							<ntsc>FALSE</ntsc>
						</rate>
						<duration>24</duration>
						<start>7534</start>
						<end>7558</end>
						<in>18675</in>
						<out>18699</out>
					</clipitem>
					<clipitem frameBlend="FALSE" id="clipitem-261">
						<file id="file-1"/>
						<name>bandicam 2025-06-22 23-18-13-912</name>
						<rate>
							<timebase>59</timebase>
							<ntsc>FALSE</ntsc>
						</rate>
						<rate>
							<timebase>59</timebase>
							<ntsc>FALSE</ntsc>
						</rate>
						<duration>18</duration>
						<start>7558</start>
						<end>7576</end>
						<in>18717</in>
						<out>18735</out>
					</clipitem>
					<clipitem frameBlend="FALSE" id="clipitem-262">
						<file id="file-1"/>
						<name>bandicam 2025-06-22 23-18-13-912</name>
						<rate>
							<timebase>59</timebase>
							<ntsc>FALSE</ntsc>
						</rate>
						<rate>
							<timebase>59</timebase>
							<ntsc>FALSE</ntsc>
						</rate>
						<duration>77</duration>
						<start>7576</start>
						<end>7653</end>
						<in>18747</in>
						<out>18824</out>
					</clipitem>
					<clipitem frameBlend="FALSE" id="clipitem-263">
						<file id="file-1"/>
						<name>bandicam 2025-06-22 23-18-13-912</name>
						<rate>
							<timebase>59</timebase>
							<ntsc>FALSE</ntsc>
						</rate>
						<rate>
							<timebase>59</timebase>
							<ntsc>FALSE</ntsc>
						</rate>
						<duration>132</duration>
						<start>7653</start>
						<end>7785</end>
						<in>18842</in>
						<out>18974</out>
					</clipitem>
					<clipitem frameBlend="FALSE" id="clipitem-264">
						<file id="file-1"/>
						<name>bandicam 2025-06-22 23-18-13-912</name>
						<rate>
							<timebase>59</timebase>
							<ntsc>FALSE</ntsc>
						</rate>
						<rate>
							<timebase>59</timebase>
							<ntsc>FALSE</ntsc>
						</rate>
						<duration>155</duration>
						<start>7785</start>
						<end>7940</end>
						<in>18992</in>
						<out>19147</out>
					</clipitem>
					<clipitem frameBlend="FALSE" id="clipitem-265">
						<file id="file-1"/>
						<name>bandicam 2025-06-22 23-18-13-912</name>
						<rate>
							<timebase>59</timebase>
							<ntsc>FALSE</ntsc>
						</rate>
						<rate>
							<timebase>59</timebase>
							<ntsc>FALSE</ntsc>
						</rate>
						<duration>107</duration>
						<start>7940</start>
						<end>8047</end>
						<in>19159</in>
						<out>19266</out>
					</clipitem>
					<clipitem frameBlend="FALSE" id="clipitem-266">
						<file id="file-1"/>
						<name>bandicam 2025-06-22 23-18-13-912</name>
						<rate>
							<timebase>59</timebase>
							<ntsc>FALSE</ntsc>
						</rate>
						<rate>
							<timebase>59</timebase>
							<ntsc>FALSE</ntsc>
						</rate>
						<duration>6</duration>
						<start>8047</start>
						<end>8053</end>
						<in>19284</in>
						<out>19290</out>
					</clipitem>
					<clipitem frameBlend="FALSE" id="clipitem-267">
						<file id="file-1"/>
						<name>bandicam 2025-06-22 23-18-13-912</name>
						<rate>
							<timebase>59</timebase>
							<ntsc>FALSE</ntsc>
						</rate>
						<rate>
							<timebase>59</timebase>
							<ntsc>FALSE</ntsc>
						</rate>
						<duration>84</duration>
						<start>8053</start>
						<end>8137</end>
						<in>19314</in>
						<out>19398</out>
					</clipitem>
					<clipitem frameBlend="FALSE" id="clipitem-268">
						<file id="file-1"/>
						<name>bandicam 2025-06-22 23-18-13-912</name>
						<rate>
							<timebase>59</timebase>
							<ntsc>FALSE</ntsc>
						</rate>
						<rate>
							<timebase>59</timebase>
							<ntsc>FALSE</ntsc>
						</rate>
						<duration>18</duration>
						<start>8137</start>
						<end>8155</end>
						<in>19416</in>
						<out>19434</out>
					</clipitem>
					<clipitem frameBlend="FALSE" id="clipitem-269">
						<file id="file-1"/>
						<name>bandicam 2025-06-22 23-18-13-912</name>
						<rate>
							<timebase>59</timebase>
							<ntsc>FALSE</ntsc>
						</rate>
						<rate>
							<timebase>59</timebase>
							<ntsc>FALSE</ntsc>
						</rate>
						<duration>29</duration>
						<start>8155</start>
						<end>8184</end>
						<in>19452</in>
						<out>19481</out>
					</clipitem>
					<clipitem frameBlend="FALSE" id="clipitem-270">
						<file id="file-1"/>
						<name>bandicam 2025-06-22 23-18-13-912</name>
						<rate>
							<timebase>59</timebase>
							<ntsc>FALSE</ntsc>
						</rate>
						<rate>
							<timebase>59</timebase>
							<ntsc>FALSE</ntsc>
						</rate>
						<duration>12</duration>
						<start>8184</start>
						<end>8196</end>
						<in>19499</in>
						<out>19511</out>
					</clipitem>
					<clipitem frameBlend="FALSE" id="clipitem-271">
						<file id="file-1"/>
						<name>bandicam 2025-06-22 23-18-13-912</name>
						<rate>
							<timebase>59</timebase>
							<ntsc>FALSE</ntsc>
						</rate>
						<rate>
							<timebase>59</timebase>
							<ntsc>FALSE</ntsc>
						</rate>
						<duration>0</duration>
						<start>8196</start>
						<end>8196</end>
						<in>19529</in>
						<out>19529</out>
					</clipitem>
					<clipitem frameBlend="FALSE" id="clipitem-272">
						<file id="file-1"/>
						<name>bandicam 2025-06-22 23-18-13-912</name>
						<rate>
							<timebase>59</timebase>
							<ntsc>FALSE</ntsc>
						</rate>
						<rate>
							<timebase>59</timebase>
							<ntsc>FALSE</ntsc>
						</rate>
						<duration>18</duration>
						<start>8196</start>
						<end>8214</end>
						<in>19541</in>
						<out>19559</out>
					</clipitem>
					<clipitem frameBlend="FALSE" id="clipitem-273">
						<file id="file-1"/>
						<name>bandicam 2025-06-22 23-18-13-912</name>
						<rate>
							<timebase>59</timebase>
							<ntsc>FALSE</ntsc>
						</rate>
						<rate>
							<timebase>59</timebase>
							<ntsc>FALSE</ntsc>
						</rate>
						<duration>18</duration>
						<start>8214</start>
						<end>8232</end>
						<in>19577</in>
						<out>19595</out>
					</clipitem>
					<clipitem frameBlend="FALSE" id="clipitem-274">
						<file id="file-1"/>
						<name>bandicam 2025-06-22 23-18-13-912</name>
						<rate>
							<timebase>59</timebase>
							<ntsc>FALSE</ntsc>
						</rate>
						<rate>
							<timebase>59</timebase>
							<ntsc>FALSE</ntsc>
						</rate>
						<duration>12</duration>
						<start>8232</start>
						<end>8244</end>
						<in>19619</in>
						<out>19631</out>
					</clipitem>
					<clipitem frameBlend="FALSE" id="clipitem-275">
						<file id="file-1"/>
						<name>bandicam 2025-06-22 23-18-13-912</name>
						<rate>
							<timebase>59</timebase>
							<ntsc>FALSE</ntsc>
						</rate>
						<rate>
							<timebase>59</timebase>
							<ntsc>FALSE</ntsc>
						</rate>
						<duration>0</duration>
						<start>8244</start>
						<end>8244</end>
						<in>19649</in>
						<out>19649</out>
					</clipitem>
					<clipitem frameBlend="FALSE" id="clipitem-276">
						<file id="file-1"/>
						<name>bandicam 2025-06-22 23-18-13-912</name>
						<rate>
							<timebase>59</timebase>
							<ntsc>FALSE</ntsc>
						</rate>
						<rate>
							<timebase>59</timebase>
							<ntsc>FALSE</ntsc>
						</rate>
						<duration>12</duration>
						<start>8244</start>
						<end>8256</end>
						<in>19661</in>
						<out>19673</out>
					</clipitem>
					<clipitem frameBlend="FALSE" id="clipitem-277">
						<file id="file-1"/>
						<name>bandicam 2025-06-22 23-18-13-912</name>
						<rate>
							<timebase>59</timebase>
							<ntsc>FALSE</ntsc>
						</rate>
						<rate>
							<timebase>59</timebase>
							<ntsc>FALSE</ntsc>
						</rate>
						<duration>17</duration>
						<start>8256</start>
						<end>8273</end>
						<in>19703</in>
						<out>19720</out>
					</clipitem>
					<clipitem frameBlend="FALSE" id="clipitem-278">
						<file id="file-1"/>
						<name>bandicam 2025-06-22 23-18-13-912</name>
						<rate>
							<timebase>59</timebase>
							<ntsc>FALSE</ntsc>
						</rate>
						<rate>
							<timebase>59</timebase>
							<ntsc>FALSE</ntsc>
						</rate>
						<duration>36</duration>
						<start>8273</start>
						<end>8309</end>
						<in>19738</in>
						<out>19774</out>
					</clipitem>
					<clipitem frameBlend="FALSE" id="clipitem-279">
						<file id="file-1"/>
						<name>bandicam 2025-06-22 23-18-13-912</name>
						<rate>
							<timebase>59</timebase>
							<ntsc>FALSE</ntsc>
						</rate>
						<rate>
							<timebase>59</timebase>
							<ntsc>FALSE</ntsc>
						</rate>
						<duration>0</duration>
						<start>8309</start>
						<end>8309</end>
						<in>19798</in>
						<out>19798</out>
					</clipitem>
					<clipitem frameBlend="FALSE" id="clipitem-280">
						<file id="file-1"/>
						<name>bandicam 2025-06-22 23-18-13-912</name>
						<rate>
							<timebase>59</timebase>
							<ntsc>FALSE</ntsc>
						</rate>
						<rate>
							<timebase>59</timebase>
							<ntsc>FALSE</ntsc>
						</rate>
						<duration>6</duration>
						<start>8309</start>
						<end>8315</end>
						<in>19810</in>
						<out>19816</out>
					</clipitem>
					<clipitem frameBlend="FALSE" id="clipitem-281">
						<file id="file-1"/>
						<name>bandicam 2025-06-22 23-18-13-912</name>
						<rate>
							<timebase>59</timebase>
							<ntsc>FALSE</ntsc>
						</rate>
						<rate>
							<timebase>59</timebase>
							<ntsc>FALSE</ntsc>
						</rate>
						<duration>48</duration>
						<start>8315</start>
						<end>8363</end>
						<in>19840</in>
						<out>19888</out>
					</clipitem>
					<clipitem frameBlend="FALSE" id="clipitem-282">
						<file id="file-1"/>
						<name>bandicam 2025-06-22 23-18-13-912</name>
						<rate>
							<timebase>59</timebase>
							<ntsc>FALSE</ntsc>
						</rate>
						<rate>
							<timebase>59</timebase>
							<ntsc>FALSE</ntsc>
						</rate>
						<duration>233</duration>
						<start>8363</start>
						<end>8596</end>
						<in>19900</in>
						<out>20133</out>
					</clipitem>
					<clipitem frameBlend="FALSE" id="clipitem-283">
						<file id="file-1"/>
						<name>bandicam 2025-06-22 23-18-13-912</name>
						<rate>
							<timebase>59</timebase>
							<ntsc>FALSE</ntsc>
						</rate>
						<rate>
							<timebase>59</timebase>
							<ntsc>FALSE</ntsc>
						</rate>
						<duration>18</duration>
						<start>8596</start>
						<end>8614</end>
						<in>20145</in>
						<out>20163</out>
					</clipitem>
					<clipitem frameBlend="FALSE" id="clipitem-284">
						<file id="file-1"/>
						<name>bandicam 2025-06-22 23-18-13-912</name>
						<rate>
							<timebase>59</timebase>
							<ntsc>FALSE</ntsc>
						</rate>
						<rate>
							<timebase>59</timebase>
							<ntsc>FALSE</ntsc>
						</rate>
						<duration>42</duration>
						<start>8614</start>
						<end>8656</end>
						<in>20270</in>
						<out>20312</out>
					</clipitem>
					<clipitem frameBlend="FALSE" id="clipitem-285">
						<file id="file-1"/>
						<name>bandicam 2025-06-22 23-18-13-912</name>
						<rate>
							<timebase>59</timebase>
							<ntsc>FALSE</ntsc>
						</rate>
						<rate>
							<timebase>59</timebase>
							<ntsc>FALSE</ntsc>
						</rate>
						<duration>0</duration>
						<start>8656</start>
						<end>8656</end>
						<in>20330</in>
						<out>20330</out>
					</clipitem>
					<clipitem frameBlend="FALSE" id="clipitem-286">
						<file id="file-1"/>
						<name>bandicam 2025-06-22 23-18-13-912</name>
						<rate>
							<timebase>59</timebase>
							<ntsc>FALSE</ntsc>
						</rate>
						<rate>
							<timebase>59</timebase>
							<ntsc>FALSE</ntsc>
						</rate>
						<duration>18</duration>
						<start>8656</start>
						<end>8674</end>
						<in>20348</in>
						<out>20366</out>
					</clipitem>
					<clipitem frameBlend="FALSE" id="clipitem-287">
						<file id="file-1"/>
						<name>bandicam 2025-06-22 23-18-13-912</name>
						<rate>
							<timebase>59</timebase>
							<ntsc>FALSE</ntsc>
						</rate>
						<rate>
							<timebase>59</timebase>
							<ntsc>FALSE</ntsc>
						</rate>
						<duration>0</duration>
						<start>8674</start>
						<end>8674</end>
						<in>20419</in>
						<out>20419</out>
					</clipitem>
					<clipitem frameBlend="FALSE" id="clipitem-288">
						<file id="file-1"/>
						<name>bandicam 2025-06-22 23-18-13-912</name>
						<rate>
							<timebase>59</timebase>
							<ntsc>FALSE</ntsc>
						</rate>
						<rate>
							<timebase>59</timebase>
							<ntsc>FALSE</ntsc>
						</rate>
						<duration>6</duration>
						<start>8674</start>
						<end>8680</end>
						<in>20437</in>
						<out>20443</out>
					</clipitem>
					<clipitem frameBlend="FALSE" id="clipitem-289">
						<file id="file-1"/>
						<name>bandicam 2025-06-22 23-18-13-912</name>
						<rate>
							<timebase>59</timebase>
							<ntsc>FALSE</ntsc>
						</rate>
						<rate>
							<timebase>59</timebase>
							<ntsc>FALSE</ntsc>
						</rate>
						<duration>18</duration>
						<start>8680</start>
						<end>8698</end>
						<in>20461</in>
						<out>20479</out>
					</clipitem>
					<clipitem frameBlend="FALSE" id="clipitem-290">
						<file id="file-1"/>
						<name>bandicam 2025-06-22 23-18-13-912</name>
						<rate>
							<timebase>59</timebase>
							<ntsc>FALSE</ntsc>
						</rate>
						<rate>
							<timebase>59</timebase>
							<ntsc>FALSE</ntsc>
						</rate>
						<duration>89</duration>
						<start>8698</start>
						<end>8787</end>
						<in>20557</in>
						<out>20646</out>
					</clipitem>
					<clipitem frameBlend="FALSE" id="clipitem-291">
						<file id="file-1"/>
						<name>bandicam 2025-06-22 23-18-13-912</name>
						<rate>
							<timebase>59</timebase>
							<ntsc>FALSE</ntsc>
						</rate>
						<rate>
							<timebase>59</timebase>
							<ntsc>FALSE</ntsc>
						</rate>
						<duration>30</duration>
						<start>8787</start>
						<end>8817</end>
						<in>20658</in>
						<out>20688</out>
					</clipitem>
					<clipitem frameBlend="FALSE" id="clipitem-292">
						<file id="file-1"/>
						<name>bandicam 2025-06-22 23-18-13-912</name>
						<rate>
							<timebase>59</timebase>
							<ntsc>FALSE</ntsc>
						</rate>
						<rate>
							<timebase>59</timebase>
							<ntsc>FALSE</ntsc>
						</rate>
						<duration>48</duration>
						<start>8817</start>
						<end>8865</end>
						<in>20700</in>
						<out>20748</out>
					</clipitem>
					<clipitem frameBlend="FALSE" id="clipitem-293">
						<file id="file-1"/>
						<name>bandicam 2025-06-22 23-18-13-912</name>
						<rate>
							<timebase>59</timebase>
							<ntsc>FALSE</ntsc>
						</rate>
						<rate>
							<timebase>59</timebase>
							<ntsc>FALSE</ntsc>
						</rate>
						<duration>18</duration>
						<start>8865</start>
						<end>8883</end>
						<in>20766</in>
						<out>20784</out>
					</clipitem>
					<clipitem frameBlend="FALSE" id="clipitem-294">
						<file id="file-1"/>
						<name>bandicam 2025-06-22 23-18-13-912</name>
						<rate>
							<timebase>59</timebase>
							<ntsc>FALSE</ntsc>
						</rate>
						<rate>
							<timebase>59</timebase>
							<ntsc>FALSE</ntsc>
						</rate>
						<duration>18</duration>
						<start>8883</start>
						<end>8901</end>
						<in>20796</in>
						<out>20814</out>
					</clipitem>
					<clipitem frameBlend="FALSE" id="clipitem-295">
						<file id="file-1"/>
						<name>bandicam 2025-06-22 23-18-13-912</name>
						<rate>
							<timebase>59</timebase>
							<ntsc>FALSE</ntsc>
						</rate>
						<rate>
							<timebase>59</timebase>
							<ntsc>FALSE</ntsc>
						</rate>
						<duration>215</duration>
						<start>8901</start>
						<end>9116</end>
						<in>20838</in>
						<out>21053</out>
					</clipitem>
					<clipitem frameBlend="FALSE" id="clipitem-296">
						<file id="file-1"/>
						<name>bandicam 2025-06-22 23-18-13-912</name>
						<rate>
							<timebase>59</timebase>
							<ntsc>FALSE</ntsc>
						</rate>
						<rate>
							<timebase>59</timebase>
							<ntsc>FALSE</ntsc>
						</rate>
						<duration>0</duration>
						<start>9116</start>
						<end>9116</end>
						<in>21077</in>
						<out>21077</out>
					</clipitem>
					<clipitem frameBlend="FALSE" id="clipitem-297">
						<file id="file-1"/>
						<name>bandicam 2025-06-22 23-18-13-912</name>
						<rate>
							<timebase>59</timebase>
							<ntsc>FALSE</ntsc>
						</rate>
						<rate>
							<timebase>59</timebase>
							<ntsc>FALSE</ntsc>
						</rate>
						<duration>77</duration>
						<start>9116</start>
						<end>9193</end>
						<in>21089</in>
						<out>21166</out>
					</clipitem>
					<clipitem frameBlend="FALSE" id="clipitem-298">
						<file id="file-1"/>
						<name>bandicam 2025-06-22 23-18-13-912</name>
						<rate>
							<timebase>59</timebase>
							<ntsc>FALSE</ntsc>
						</rate>
						<rate>
							<timebase>59</timebase>
							<ntsc>FALSE</ntsc>
						</rate>
						<duration>48</duration>
						<start>9193</start>
						<end>9241</end>
						<in>21178</in>
						<out>21226</out>
					</clipitem>
					<clipitem frameBlend="FALSE" id="clipitem-299">
						<file id="file-1"/>
						<name>bandicam 2025-06-22 23-18-13-912</name>
						<rate>
							<timebase>59</timebase>
							<ntsc>FALSE</ntsc>
						</rate>
						<rate>
							<timebase>59</timebase>
							<ntsc>FALSE</ntsc>
						</rate>
						<duration>101</duration>
						<start>9241</start>
						<end>9342</end>
						<in>21244</in>
						<out>21345</out>
					</clipitem>
					<clipitem frameBlend="FALSE" id="clipitem-300">
						<file id="file-1"/>
						<name>bandicam 2025-06-22 23-18-13-912</name>
						<rate>
							<timebase>59</timebase>
							<ntsc>FALSE</ntsc>
						</rate>
						<rate>
							<timebase>59</timebase>
							<ntsc>FALSE</ntsc>
						</rate>
						<duration>42</duration>
						<start>9342</start>
						<end>9384</end>
						<in>21369</in>
						<out>21411</out>
					</clipitem>
					<clipitem frameBlend="FALSE" id="clipitem-301">
						<file id="file-1"/>
						<name>bandicam 2025-06-22 23-18-13-912</name>
						<rate>
							<timebase>59</timebase>
							<ntsc>FALSE</ntsc>
						</rate>
						<rate>
							<timebase>59</timebase>
							<ntsc>FALSE</ntsc>
						</rate>
						<duration>6</duration>
						<start>9384</start>
						<end>9390</end>
						<in>21423</in>
						<out>21429</out>
					</clipitem>
					<clipitem frameBlend="FALSE" id="clipitem-302">
						<file id="file-1"/>
						<name>bandicam 2025-06-22 23-18-13-912</name>
						<rate>
							<timebase>59</timebase>
							<ntsc>FALSE</ntsc>
						</rate>
						<rate>
							<timebase>59</timebase>
							<ntsc>FALSE</ntsc>
						</rate>
						<duration>48</duration>
						<start>9390</start>
						<end>9438</end>
						<in>21447</in>
						<out>21495</out>
					</clipitem>
					<clipitem frameBlend="FALSE" id="clipitem-303">
						<file id="file-1"/>
						<name>bandicam 2025-06-22 23-18-13-912</name>
						<rate>
							<timebase>59</timebase>
							<ntsc>FALSE</ntsc>
						</rate>
						<rate>
							<timebase>59</timebase>
							<ntsc>FALSE</ntsc>
						</rate>
						<duration>30</duration>
						<start>9438</start>
						<end>9468</end>
						<in>21507</in>
						<out>21537</out>
					</clipitem>
					<clipitem frameBlend="FALSE" id="clipitem-304">
						<file id="file-1"/>
						<name>bandicam 2025-06-22 23-18-13-912</name>
						<rate>
							<timebase>59</timebase>
							<ntsc>FALSE</ntsc>
						</rate>
						<rate>
							<timebase>59</timebase>
							<ntsc>FALSE</ntsc>
						</rate>
						<duration>17</duration>
						<start>9468</start>
						<end>9485</end>
						<in>21555</in>
						<out>21572</out>
					</clipitem>
					<clipitem frameBlend="FALSE" id="clipitem-305">
						<file id="file-1"/>
						<name>bandicam 2025-06-22 23-18-13-912</name>
						<rate>
							<timebase>59</timebase>
							<ntsc>FALSE</ntsc>
						</rate>
						<rate>
							<timebase>59</timebase>
							<ntsc>FALSE</ntsc>
						</rate>
						<duration>48</duration>
						<start>9485</start>
						<end>9533</end>
						<in>21596</in>
						<out>21644</out>
					</clipitem>
					<clipitem frameBlend="FALSE" id="clipitem-306">
						<file id="file-1"/>
						<name>bandicam 2025-06-22 23-18-13-912</name>
						<rate>
							<timebase>59</timebase>
							<ntsc>FALSE</ntsc>
						</rate>
						<rate>
							<timebase>59</timebase>
							<ntsc>FALSE</ntsc>
						</rate>
						<duration>6</duration>
						<start>9533</start>
						<end>9539</end>
						<in>21656</in>
						<out>21662</out>
					</clipitem>
					<clipitem frameBlend="FALSE" id="clipitem-307">
						<file id="file-1"/>
						<name>bandicam 2025-06-22 23-18-13-912</name>
						<rate>
							<timebase>59</timebase>
							<ntsc>FALSE</ntsc>
						</rate>
						<rate>
							<timebase>59</timebase>
							<ntsc>FALSE</ntsc>
						</rate>
						<duration>48</duration>
						<start>9539</start>
						<end>9587</end>
						<in>21680</in>
						<out>21728</out>
					</clipitem>
					<clipitem frameBlend="FALSE" id="clipitem-308">
						<file id="file-1"/>
						<name>bandicam 2025-06-22 23-18-13-912</name>
						<rate>
							<timebase>59</timebase>
							<ntsc>FALSE</ntsc>
						</rate>
						<rate>
							<timebase>59</timebase>
							<ntsc>FALSE</ntsc>
						</rate>
						<duration>191</duration>
						<start>9587</start>
						<end>9778</end>
						<in>21740</in>
						<out>21931</out>
					</clipitem>
					<clipitem frameBlend="FALSE" id="clipitem-309">
						<file id="file-1"/>
						<name>bandicam 2025-06-22 23-18-13-912</name>
						<rate>
							<timebase>59</timebase>
							<ntsc>FALSE</ntsc>
						</rate>
						<rate>
							<timebase>59</timebase>
							<ntsc>FALSE</ntsc>
						</rate>
						<duration>6</duration>
						<start>9778</start>
						<end>9784</end>
						<in>21991</in>
						<out>21997</out>
					</clipitem>
					<clipitem frameBlend="FALSE" id="clipitem-310">
						<file id="file-1"/>
						<name>bandicam 2025-06-22 23-18-13-912</name>
						<rate>
							<timebase>59</timebase>
							<ntsc>FALSE</ntsc>
						</rate>
						<rate>
							<timebase>59</timebase>
							<ntsc>FALSE</ntsc>
						</rate>
						<duration>23</duration>
						<start>9784</start>
						<end>9807</end>
						<in>22021</in>
						<out>22044</out>
					</clipitem>
					<clipitem frameBlend="FALSE" id="clipitem-311">
						<file id="file-1"/>
						<name>bandicam 2025-06-22 23-18-13-912</name>
						<rate>
							<timebase>59</timebase>
							<ntsc>FALSE</ntsc>
						</rate>
						<rate>
							<timebase>59</timebase>
							<ntsc>FALSE</ntsc>
						</rate>
						<duration>48</duration>
						<start>9807</start>
						<end>9855</end>
						<in>22056</in>
						<out>22104</out>
					</clipitem>
					<clipitem frameBlend="FALSE" id="clipitem-312">
						<file id="file-1"/>
						<name>bandicam 2025-06-22 23-18-13-912</name>
						<rate>
							<timebase>59</timebase>
							<ntsc>FALSE</ntsc>
						</rate>
						<rate>
							<timebase>59</timebase>
							<ntsc>FALSE</ntsc>
						</rate>
						<duration>12</duration>
						<start>9855</start>
						<end>9867</end>
						<in>22122</in>
						<out>22134</out>
					</clipitem>
					<clipitem frameBlend="FALSE" id="clipitem-313">
						<file id="file-1"/>
						<name>bandicam 2025-06-22 23-18-13-912</name>
						<rate>
							<timebase>59</timebase>
							<ntsc>FALSE</ntsc>
						</rate>
						<rate>
							<timebase>59</timebase>
							<ntsc>FALSE</ntsc>
						</rate>
						<duration>24</duration>
						<start>9867</start>
						<end>9891</end>
						<in>22158</in>
						<out>22182</out>
					</clipitem>
					<clipitem frameBlend="FALSE" id="clipitem-314">
						<file id="file-1"/>
						<name>bandicam 2025-06-22 23-18-13-912</name>
						<rate>
							<timebase>59</timebase>
							<ntsc>FALSE</ntsc>
						</rate>
						<rate>
							<timebase>59</timebase>
							<ntsc>FALSE</ntsc>
						</rate>
						<duration>18</duration>
						<start>9891</start>
						<end>9909</end>
						<in>22206</in>
						<out>22224</out>
					</clipitem>
					<clipitem frameBlend="FALSE" id="clipitem-315">
						<file id="file-1"/>
						<name>bandicam 2025-06-22 23-18-13-912</name>
						<rate>
							<timebase>59</timebase>
							<ntsc>FALSE</ntsc>
						</rate>
						<rate>
							<timebase>59</timebase>
							<ntsc>FALSE</ntsc>
						</rate>
						<duration>12</duration>
						<start>9909</start>
						<end>9921</end>
						<in>22236</in>
						<out>22248</out>
					</clipitem>
					<clipitem frameBlend="FALSE" id="clipitem-316">
						<file id="file-1"/>
						<name>bandicam 2025-06-22 23-18-13-912</name>
						<rate>
							<timebase>59</timebase>
							<ntsc>FALSE</ntsc>
						</rate>
						<rate>
							<timebase>59</timebase>
							<ntsc>FALSE</ntsc>
						</rate>
						<duration>30</duration>
						<start>9921</start>
						<end>9951</end>
						<in>22277</in>
						<out>22307</out>
					</clipitem>
					<clipitem frameBlend="FALSE" id="clipitem-317">
						<file id="file-1"/>
						<name>bandicam 2025-06-22 23-18-13-912</name>
						<rate>
							<timebase>59</timebase>
							<ntsc>FALSE</ntsc>
						</rate>
						<rate>
							<timebase>59</timebase>
							<ntsc>FALSE</ntsc>
						</rate>
						<duration>48</duration>
						<start>9951</start>
						<end>9999</end>
						<in>22325</in>
						<out>22373</out>
					</clipitem>
					<clipitem frameBlend="FALSE" id="clipitem-318">
						<file id="file-1"/>
						<name>bandicam 2025-06-22 23-18-13-912</name>
						<rate>
							<timebase>59</timebase>
							<ntsc>FALSE</ntsc>
						</rate>
						<rate>
							<timebase>59</timebase>
							<ntsc>FALSE</ntsc>
						</rate>
						<duration>0</duration>
						<start>9999</start>
						<end>9999</end>
						<in>22415</in>
						<out>22415</out>
					</clipitem>
					<clipitem frameBlend="FALSE" id="clipitem-319">
						<file id="file-1"/>
						<name>bandicam 2025-06-22 23-18-13-912</name>
						<rate>
							<timebase>59</timebase>
							<ntsc>FALSE</ntsc>
						</rate>
						<rate>
							<timebase>59</timebase>
							<ntsc>FALSE</ntsc>
						</rate>
						<duration>6</duration>
						<start>9999</start>
						<end>10005</end>
						<in>22457</in>
						<out>22463</out>
					</clipitem>
					<clipitem frameBlend="FALSE" id="clipitem-320">
						<file id="file-1"/>
						<name>bandicam 2025-06-22 23-18-13-912</name>
						<rate>
							<timebase>59</timebase>
							<ntsc>FALSE</ntsc>
						</rate>
						<rate>
							<timebase>59</timebase>
							<ntsc>FALSE</ntsc>
						</rate>
						<duration>17</duration>
						<start>10005</start>
						<end>10022</end>
						<in>22481</in>
						<out>22498</out>
					</clipitem>
					<clipitem frameBlend="FALSE" id="clipitem-321">
						<file id="file-1"/>
						<name>bandicam 2025-06-22 23-18-13-912</name>
						<rate>
							<timebase>59</timebase>
							<ntsc>FALSE</ntsc>
						</rate>
						<rate>
							<timebase>59</timebase>
							<ntsc>FALSE</ntsc>
						</rate>
						<duration>66</duration>
						<start>10022</start>
						<end>10088</end>
						<in>22522</in>
						<out>22588</out>
					</clipitem>
					<clipitem frameBlend="FALSE" id="clipitem-322">
						<file id="file-1"/>
						<name>bandicam 2025-06-22 23-18-13-912</name>
						<rate>
							<timebase>59</timebase>
							<ntsc>FALSE</ntsc>
						</rate>
						<rate>
							<timebase>59</timebase>
							<ntsc>FALSE</ntsc>
						</rate>
						<duration>233</duration>
						<start>10088</start>
						<end>10321</end>
						<in>22612</in>
						<out>22845</out>
					</clipitem>
					<clipitem frameBlend="FALSE" id="clipitem-323">
						<file id="file-1"/>
						<name>bandicam 2025-06-22 23-18-13-912</name>
						<rate>
							<timebase>59</timebase>
							<ntsc>FALSE</ntsc>
						</rate>
						<rate>
							<timebase>59</timebase>
							<ntsc>FALSE</ntsc>
						</rate>
						<duration>78</duration>
						<start>10321</start>
						<end>10399</end>
						<in>22863</in>
						<out>22941</out>
					</clipitem>
					<clipitem frameBlend="FALSE" id="clipitem-324">
						<file id="file-1"/>
						<name>bandicam 2025-06-22 23-18-13-912</name>
						<rate>
							<timebase>59</timebase>
							<ntsc>FALSE</ntsc>
						</rate>
						<rate>
							<timebase>59</timebase>
							<ntsc>FALSE</ntsc>
						</rate>
						<duration>36</duration>
						<start>10399</start>
						<end>10435</end>
						<in>22964</in>
						<out>23000</out>
					</clipitem>
					<clipitem frameBlend="FALSE" id="clipitem-325">
						<file id="file-1"/>
						<name>bandicam 2025-06-22 23-18-13-912</name>
						<rate>
							<timebase>59</timebase>
							<ntsc>FALSE</ntsc>
						</rate>
						<rate>
							<timebase>59</timebase>
							<ntsc>FALSE</ntsc>
						</rate>
						<duration>60</duration>
						<start>10435</start>
						<end>10495</end>
						<in>23012</in>
						<out>23072</out>
					</clipitem>
					<clipitem frameBlend="FALSE" id="clipitem-326">
						<file id="file-1"/>
						<name>bandicam 2025-06-22 23-18-13-912</name>
						<rate>
							<timebase>59</timebase>
							<ntsc>FALSE</ntsc>
						</rate>
						<rate>
							<timebase>59</timebase>
							<ntsc>FALSE</ntsc>
						</rate>
						<duration>6</duration>
						<start>10495</start>
						<end>10501</end>
						<in>23215</in>
						<out>23221</out>
					</clipitem>
					<clipitem frameBlend="FALSE" id="clipitem-327">
						<file id="file-1"/>
						<name>bandicam 2025-06-22 23-18-13-912</name>
						<rate>
							<timebase>59</timebase>
							<ntsc>FALSE</ntsc>
						</rate>
						<rate>
							<timebase>59</timebase>
							<ntsc>FALSE</ntsc>
						</rate>
						<duration>6</duration>
						<start>10501</start>
						<end>10507</end>
						<in>23239</in>
						<out>23245</out>
					</clipitem>
					<clipitem frameBlend="FALSE" id="clipitem-328">
						<file id="file-1"/>
						<name>bandicam 2025-06-22 23-18-13-912</name>
						<rate>
							<timebase>59</timebase>
							<ntsc>FALSE</ntsc>
						</rate>
						<rate>
							<timebase>59</timebase>
							<ntsc>FALSE</ntsc>
						</rate>
						<duration>30</duration>
						<start>10507</start>
						<end>10537</end>
						<in>23269</in>
						<out>23299</out>
					</clipitem>
					<clipitem frameBlend="FALSE" id="clipitem-329">
						<file id="file-1"/>
						<name>bandicam 2025-06-22 23-18-13-912</name>
						<rate>
							<timebase>59</timebase>
							<ntsc>FALSE</ntsc>
						</rate>
						<rate>
							<timebase>59</timebase>
							<ntsc>FALSE</ntsc>
						</rate>
						<duration>18</duration>
						<start>10537</start>
						<end>10555</end>
						<in>23311</in>
						<out>23329</out>
					</clipitem>
					<clipitem frameBlend="FALSE" id="clipitem-330">
						<file id="file-1"/>
						<name>bandicam 2025-06-22 23-18-13-912</name>
						<rate>
							<timebase>59</timebase>
							<ntsc>FALSE</ntsc>
						</rate>
						<rate>
							<timebase>59</timebase>
							<ntsc>FALSE</ntsc>
						</rate>
						<duration>6</duration>
						<start>10555</start>
						<end>10561</end>
						<in>23353</in>
						<out>23359</out>
					</clipitem>
					<clipitem frameBlend="FALSE" id="clipitem-331">
						<file id="file-1"/>
						<name>bandicam 2025-06-22 23-18-13-912</name>
						<rate>
							<timebase>59</timebase>
							<ntsc>FALSE</ntsc>
						</rate>
						<rate>
							<timebase>59</timebase>
							<ntsc>FALSE</ntsc>
						</rate>
						<duration>0</duration>
						<start>10561</start>
						<end>10561</end>
						<in>23377</in>
						<out>23377</out>
					</clipitem>
					<clipitem frameBlend="FALSE" id="clipitem-332">
						<file id="file-1"/>
						<name>bandicam 2025-06-22 23-18-13-912</name>
						<rate>
							<timebase>59</timebase>
							<ntsc>FALSE</ntsc>
						</rate>
						<rate>
							<timebase>59</timebase>
							<ntsc>FALSE</ntsc>
						</rate>
						<duration>0</duration>
						<start>10561</start>
						<end>10561</end>
						<in>23413</in>
						<out>23413</out>
					</clipitem>
					<clipitem frameBlend="FALSE" id="clipitem-333">
						<file id="file-1"/>
						<name>bandicam 2025-06-22 23-18-13-912</name>
						<rate>
							<timebase>59</timebase>
							<ntsc>FALSE</ntsc>
						</rate>
						<rate>
							<timebase>59</timebase>
							<ntsc>FALSE</ntsc>
						</rate>
						<duration>0</duration>
						<start>10561</start>
						<end>10561</end>
						<in>23424</in>
						<out>23424</out>
					</clipitem>
					<clipitem frameBlend="FALSE" id="clipitem-334">
						<file id="file-1"/>
						<name>bandicam 2025-06-22 23-18-13-912</name>
						<rate>
							<timebase>59</timebase>
							<ntsc>FALSE</ntsc>
						</rate>
						<rate>
							<timebase>59</timebase>
							<ntsc>FALSE</ntsc>
						</rate>
						<duration>6</duration>
						<start>10561</start>
						<end>10567</end>
						<in>23436</in>
						<out>23442</out>
					</clipitem>
					<clipitem frameBlend="FALSE" id="clipitem-335">
						<file id="file-1"/>
						<name>bandicam 2025-06-22 23-18-13-912</name>
						<rate>
							<timebase>59</timebase>
							<ntsc>FALSE</ntsc>
						</rate>
						<rate>
							<timebase>59</timebase>
							<ntsc>FALSE</ntsc>
						</rate>
						<duration>12</duration>
						<start>10567</start>
						<end>10579</end>
						<in>23454</in>
						<out>23466</out>
					</clipitem>
					<clipitem frameBlend="FALSE" id="clipitem-336">
						<file id="file-1"/>
						<name>bandicam 2025-06-22 23-18-13-912</name>
						<rate>
							<timebase>59</timebase>
							<ntsc>FALSE</ntsc>
						</rate>
						<rate>
							<timebase>59</timebase>
							<ntsc>FALSE</ntsc>
						</rate>
						<duration>78</duration>
						<start>10579</start>
						<end>10657</end>
						<in>23532</in>
						<out>23610</out>
					</clipitem>
					<clipitem frameBlend="FALSE" id="clipitem-337">
						<file id="file-1"/>
						<name>bandicam 2025-06-22 23-18-13-912</name>
						<rate>
							<timebase>59</timebase>
							<ntsc>FALSE</ntsc>
						</rate>
						<rate>
							<timebase>59</timebase>
							<ntsc>FALSE</ntsc>
						</rate>
						<duration>155</duration>
						<start>10657</start>
						<end>10812</end>
						<in>23628</in>
						<out>23783</out>
					</clipitem>
					<clipitem frameBlend="FALSE" id="clipitem-338">
						<file id="file-1"/>
						<name>bandicam 2025-06-22 23-18-13-912</name>
						<rate>
							<timebase>59</timebase>
							<ntsc>FALSE</ntsc>
						</rate>
						<rate>
							<timebase>59</timebase>
							<ntsc>FALSE</ntsc>
						</rate>
						<duration>0</duration>
						<start>10812</start>
						<end>10812</end>
						<in>23831</in>
						<out>23831</out>
					</clipitem>
					<clipitem frameBlend="FALSE" id="clipitem-339">
						<file id="file-1"/>
						<name>bandicam 2025-06-22 23-18-13-912</name>
						<rate>
							<timebase>59</timebase>
							<ntsc>FALSE</ntsc>
						</rate>
						<rate>
							<timebase>59</timebase>
							<ntsc>FALSE</ntsc>
						</rate>
						<duration>59</duration>
						<start>10812</start>
						<end>10871</end>
						<in>23849</in>
						<out>23908</out>
					</clipitem>
					<clipitem frameBlend="FALSE" id="clipitem-340">
						<file id="file-1"/>
						<name>bandicam 2025-06-22 23-18-13-912</name>
						<rate>
							<timebase>59</timebase>
							<ntsc>FALSE</ntsc>
						</rate>
						<rate>
							<timebase>59</timebase>
							<ntsc>FALSE</ntsc>
						</rate>
						<duration>18</duration>
						<start>10871</start>
						<end>10889</end>
						<in>23932</in>
						<out>23950</out>
					</clipitem>
					<clipitem frameBlend="FALSE" id="clipitem-341">
						<file id="file-1"/>
						<name>bandicam 2025-06-22 23-18-13-912</name>
						<rate>
							<timebase>59</timebase>
							<ntsc>FALSE</ntsc>
						</rate>
						<rate>
							<timebase>59</timebase>
							<ntsc>FALSE</ntsc>
						</rate>
						<duration>6</duration>
						<start>10889</start>
						<end>10895</end>
						<in>23968</in>
						<out>23974</out>
					</clipitem>
					<clipitem frameBlend="FALSE" id="clipitem-342">
						<file id="file-1"/>
						<name>bandicam 2025-06-22 23-18-13-912</name>
						<rate>
							<timebase>59</timebase>
							<ntsc>FALSE</ntsc>
						</rate>
						<rate>
							<timebase>59</timebase>
							<ntsc>FALSE</ntsc>
						</rate>
						<duration>72</duration>
						<start>10895</start>
						<end>10967</end>
						<in>23998</in>
						<out>24070</out>
					</clipitem>
					<clipitem frameBlend="FALSE" id="clipitem-343">
						<file id="file-1"/>
						<name>bandicam 2025-06-22 23-18-13-912</name>
						<rate>
							<timebase>59</timebase>
							<ntsc>FALSE</ntsc>
						</rate>
						<rate>
							<timebase>59</timebase>
							<ntsc>FALSE</ntsc>
						</rate>
						<duration>6</duration>
						<start>10967</start>
						<end>10973</end>
						<in>24082</in>
						<out>24088</out>
					</clipitem>
					<clipitem frameBlend="FALSE" id="clipitem-344">
						<file id="file-1"/>
						<name>bandicam 2025-06-22 23-18-13-912</name>
						<rate>
							<timebase>59</timebase>
							<ntsc>FALSE</ntsc>
						</rate>
						<rate>
							<timebase>59</timebase>
							<ntsc>FALSE</ntsc>
						</rate>
						<duration>0</duration>
						<start>10973</start>
						<end>10973</end>
						<in>24100</in>
						<out>24100</out>
					</clipitem>
					<clipitem frameBlend="FALSE" id="clipitem-345">
						<file id="file-1"/>
						<name>bandicam 2025-06-22 23-18-13-912</name>
						<rate>
							<timebase>59</timebase>
							<ntsc>FALSE</ntsc>
						</rate>
						<rate>
							<timebase>59</timebase>
							<ntsc>FALSE</ntsc>
						</rate>
						<duration>24</duration>
						<start>10973</start>
						<end>10997</end>
						<in>24123</in>
						<out>24147</out>
					</clipitem>
					<clipitem frameBlend="FALSE" id="clipitem-346">
						<file id="file-1"/>
						<name>bandicam 2025-06-22 23-18-13-912</name>
						<rate>
							<timebase>59</timebase>
							<ntsc>FALSE</ntsc>
						</rate>
						<rate>
							<timebase>59</timebase>
							<ntsc>FALSE</ntsc>
						</rate>
						<duration>6</duration>
						<start>10997</start>
						<end>11003</end>
						<in>24195</in>
						<out>24201</out>
					</clipitem>
					<clipitem frameBlend="FALSE" id="clipitem-347">
						<file id="file-1"/>
						<name>bandicam 2025-06-22 23-18-13-912</name>
						<rate>
							<timebase>59</timebase>
							<ntsc>FALSE</ntsc>
						</rate>
						<rate>
							<timebase>59</timebase>
							<ntsc>FALSE</ntsc>
						</rate>
						<duration>24</duration>
						<start>11003</start>
						<end>11027</end>
						<in>24219</in>
						<out>24243</out>
					</clipitem>
					<clipitem frameBlend="FALSE" id="clipitem-348">
						<file id="file-1"/>
						<name>bandicam 2025-06-22 23-18-13-912</name>
						<rate>
							<timebase>59</timebase>
							<ntsc>FALSE</ntsc>
						</rate>
						<rate>
							<timebase>59</timebase>
							<ntsc>FALSE</ntsc>
						</rate>
						<duration>0</duration>
						<start>11027</start>
						<end>11027</end>
						<in>24255</in>
						<out>24255</out>
					</clipitem>
					<clipitem frameBlend="FALSE" id="clipitem-349">
						<file id="file-1"/>
						<name>bandicam 2025-06-22 23-18-13-912</name>
						<rate>
							<timebase>59</timebase>
							<ntsc>FALSE</ntsc>
						</rate>
						<rate>
							<timebase>59</timebase>
							<ntsc>FALSE</ntsc>
						</rate>
						<duration>12</duration>
						<start>11027</start>
						<end>11039</end>
						<in>24285</in>
						<out>24297</out>
					</clipitem>
					<clipitem frameBlend="FALSE" id="clipitem-350">
						<file id="file-1"/>
						<name>bandicam 2025-06-22 23-18-13-912</name>
						<rate>
							<timebase>59</timebase>
							<ntsc>FALSE</ntsc>
						</rate>
						<rate>
							<timebase>59</timebase>
							<ntsc>FALSE</ntsc>
						</rate>
						<duration>84</duration>
						<start>11039</start>
						<end>11123</end>
						<in>24350</in>
						<out>24434</out>
					</clipitem>
					<clipitem frameBlend="FALSE" id="clipitem-351">
						<file id="file-1"/>
						<name>bandicam 2025-06-22 23-18-13-912</name>
						<rate>
							<timebase>59</timebase>
							<ntsc>FALSE</ntsc>
						</rate>
						<rate>
							<timebase>59</timebase>
							<ntsc>FALSE</ntsc>
						</rate>
						<duration>24</duration>
						<start>11123</start>
						<end>11147</end>
						<in>24458</in>
						<out>24482</out>
					</clipitem>
					<clipitem frameBlend="FALSE" id="clipitem-352">
						<file id="file-1"/>
						<name>bandicam 2025-06-22 23-18-13-912</name>
						<rate>
							<timebase>59</timebase>
							<ntsc>FALSE</ntsc>
						</rate>
						<rate>
							<timebase>59</timebase>
							<ntsc>FALSE</ntsc>
						</rate>
						<duration>83</duration>
						<start>11147</start>
						<end>11230</end>
						<in>24494</in>
						<out>24577</out>
					</clipitem>
					<clipitem frameBlend="FALSE" id="clipitem-353">
						<file id="file-1"/>
						<name>bandicam 2025-06-22 23-18-13-912</name>
						<rate>
							<timebase>59</timebase>
							<ntsc>FALSE</ntsc>
						</rate>
						<rate>
							<timebase>59</timebase>
							<ntsc>FALSE</ntsc>
						</rate>
						<duration>6</duration>
						<start>11230</start>
						<end>11236</end>
						<in>24589</in>
						<out>24595</out>
					</clipitem>
					<clipitem frameBlend="FALSE" id="clipitem-354">
						<file id="file-1"/>
						<name>bandicam 2025-06-22 23-18-13-912</name>
						<rate>
							<timebase>59</timebase>
							<ntsc>FALSE</ntsc>
						</rate>
						<rate>
							<timebase>59</timebase>
							<ntsc>FALSE</ntsc>
						</rate>
						<duration>30</duration>
						<start>11236</start>
						<end>11266</end>
						<in>24697</in>
						<out>24727</out>
					</clipitem>
					<clipitem frameBlend="FALSE" id="clipitem-355">
						<file id="file-1"/>
						<name>bandicam 2025-06-22 23-18-13-912</name>
						<rate>
							<timebase>59</timebase>
							<ntsc>FALSE</ntsc>
						</rate>
						<rate>
							<timebase>59</timebase>
							<ntsc>FALSE</ntsc>
						</rate>
						<duration>12</duration>
						<start>11266</start>
						<end>11278</end>
						<in>24864</in>
						<out>24876</out>
					</clipitem>
					<clipitem frameBlend="FALSE" id="clipitem-356">
						<file id="file-1"/>
						<name>bandicam 2025-06-22 23-18-13-912</name>
						<rate>
							<timebase>59</timebase>
							<ntsc>FALSE</ntsc>
						</rate>
						<rate>
							<timebase>59</timebase>
							<ntsc>FALSE</ntsc>
						</rate>
						<duration>12</duration>
						<start>11278</start>
						<end>11290</end>
						<in>24978</in>
						<out>24990</out>
					</clipitem>
					<clipitem frameBlend="FALSE" id="clipitem-357">
						<file id="file-1"/>
						<name>bandicam 2025-06-22 23-18-13-912</name>
						<rate>
							<timebase>59</timebase>
							<ntsc>FALSE</ntsc>
						</rate>
						<rate>
							<timebase>59</timebase>
							<ntsc>FALSE</ntsc>
						</rate>
						<duration>0</duration>
						<start>11290</start>
						<end>11290</end>
						<in>25002</in>
						<out>25002</out>
					</clipitem>
					<clipitem frameBlend="FALSE" id="clipitem-358">
						<file id="file-1"/>
						<name>bandicam 2025-06-22 23-18-13-912</name>
						<rate>
							<timebase>59</timebase>
							<ntsc>FALSE</ntsc>
						</rate>
						<rate>
							<timebase>59</timebase>
							<ntsc>FALSE</ntsc>
						</rate>
						<duration>30</duration>
						<start>11290</start>
						<end>11320</end>
						<in>25049</in>
						<out>25079</out>
					</clipitem>
					<clipitem frameBlend="FALSE" id="clipitem-359">
						<file id="file-1"/>
						<name>bandicam 2025-06-22 23-18-13-912</name>
						<rate>
							<timebase>59</timebase>
							<ntsc>FALSE</ntsc>
						</rate>
						<rate>
							<timebase>59</timebase>
							<ntsc>FALSE</ntsc>
						</rate>
						<duration>24</duration>
						<start>11320</start>
						<end>11344</end>
						<in>25091</in>
						<out>25115</out>
					</clipitem>
					<clipitem frameBlend="FALSE" id="clipitem-360">
						<file id="file-1"/>
						<name>bandicam 2025-06-22 23-18-13-912</name>
						<rate>
							<timebase>59</timebase>
							<ntsc>FALSE</ntsc>
						</rate>
						<rate>
							<timebase>59</timebase>
							<ntsc>FALSE</ntsc>
						</rate>
						<duration>54</duration>
						<start>11344</start>
						<end>11398</end>
						<in>25145</in>
						<out>25199</out>
					</clipitem>
					<clipitem frameBlend="FALSE" id="clipitem-361">
						<file id="file-1"/>
						<name>bandicam 2025-06-22 23-18-13-912</name>
						<rate>
							<timebase>59</timebase>
							<ntsc>FALSE</ntsc>
						</rate>
						<rate>
							<timebase>59</timebase>
							<ntsc>FALSE</ntsc>
						</rate>
						<duration>12</duration>
						<start>11398</start>
						<end>11410</end>
						<in>25211</in>
						<out>25223</out>
					</clipitem>
					<clipitem frameBlend="FALSE" id="clipitem-362">
						<file id="file-1"/>
						<name>bandicam 2025-06-22 23-18-13-912</name>
						<rate>
							<timebase>59</timebase>
							<ntsc>FALSE</ntsc>
						</rate>
						<rate>
							<timebase>59</timebase>
							<ntsc>FALSE</ntsc>
						</rate>
						<duration>0</duration>
						<start>11410</start>
						<end>11410</end>
						<in>25235</in>
						<out>25235</out>
					</clipitem>
					<clipitem frameBlend="FALSE" id="clipitem-363">
						<file id="file-1"/>
						<name>bandicam 2025-06-22 23-18-13-912</name>
						<rate>
							<timebase>59</timebase>
							<ntsc>FALSE</ntsc>
						</rate>
						<rate>
							<timebase>59</timebase>
							<ntsc>FALSE</ntsc>
						</rate>
						<duration>0</duration>
						<start>11410</start>
						<end>11410</end>
						<in>25247</in>
						<out>25247</out>
					</clipitem>
					<clipitem frameBlend="FALSE" id="clipitem-364">
						<file id="file-1"/>
						<name>bandicam 2025-06-22 23-18-13-912</name>
						<rate>
							<timebase>59</timebase>
							<ntsc>FALSE</ntsc>
						</rate>
						<rate>
							<timebase>59</timebase>
							<ntsc>FALSE</ntsc>
						</rate>
						<duration>12</duration>
						<start>11410</start>
						<end>11422</end>
						<in>25270</in>
						<out>25282</out>
					</clipitem>
					<clipitem frameBlend="FALSE" id="clipitem-365">
						<file id="file-1"/>
						<name>bandicam 2025-06-22 23-18-13-912</name>
						<rate>
							<timebase>59</timebase>
							<ntsc>FALSE</ntsc>
						</rate>
						<rate>
							<timebase>59</timebase>
							<ntsc>FALSE</ntsc>
						</rate>
						<duration>0</duration>
						<start>11422</start>
						<end>11422</end>
						<in>25312</in>
						<out>25312</out>
					</clipitem>
					<clipitem frameBlend="FALSE" id="clipitem-366">
						<file id="file-1"/>
						<name>bandicam 2025-06-22 23-18-13-912</name>
						<rate>
							<timebase>59</timebase>
							<ntsc>FALSE</ntsc>
						</rate>
						<rate>
							<timebase>59</timebase>
							<ntsc>FALSE</ntsc>
						</rate>
						<duration>6</duration>
						<start>11422</start>
						<end>11428</end>
						<in>25330</in>
						<out>25336</out>
					</clipitem>
					<clipitem frameBlend="FALSE" id="clipitem-367">
						<file id="file-1"/>
						<name>bandicam 2025-06-22 23-18-13-912</name>
						<rate>
							<timebase>59</timebase>
							<ntsc>FALSE</ntsc>
						</rate>
						<rate>
							<timebase>59</timebase>
							<ntsc>FALSE</ntsc>
						</rate>
						<duration>18</duration>
						<start>11428</start>
						<end>11446</end>
						<in>25348</in>
						<out>25366</out>
					</clipitem>
					<clipitem frameBlend="FALSE" id="clipitem-368">
						<file id="file-1"/>
						<name>bandicam 2025-06-22 23-18-13-912</name>
						<rate>
							<timebase>59</timebase>
							<ntsc>FALSE</ntsc>
						</rate>
						<rate>
							<timebase>59</timebase>
							<ntsc>FALSE</ntsc>
						</rate>
						<duration>54</duration>
						<start>11446</start>
						<end>11500</end>
						<in>25396</in>
						<out>25450</out>
					</clipitem>
					<clipitem frameBlend="FALSE" id="clipitem-369">
						<file id="file-1"/>
						<name>bandicam 2025-06-22 23-18-13-912</name>
						<rate>
							<timebase>59</timebase>
							<ntsc>FALSE</ntsc>
						</rate>
						<rate>
							<timebase>59</timebase>
							<ntsc>FALSE</ntsc>
						</rate>
						<duration>0</duration>
						<start>11500</start>
						<end>11500</end>
						<in>25462</in>
						<out>25462</out>
					</clipitem>
					<clipitem frameBlend="FALSE" id="clipitem-370">
						<file id="file-1"/>
						<name>bandicam 2025-06-22 23-18-13-912</name>
						<rate>
							<timebase>59</timebase>
							<ntsc>FALSE</ntsc>
						</rate>
						<rate>
							<timebase>59</timebase>
							<ntsc>FALSE</ntsc>
						</rate>
						<duration>6</duration>
						<start>11500</start>
						<end>11506</end>
						<in>25474</in>
						<out>25480</out>
					</clipitem>
					<clipitem frameBlend="FALSE" id="clipitem-371">
						<file id="file-1"/>
						<name>bandicam 2025-06-22 23-18-13-912</name>
						<rate>
							<timebase>59</timebase>
							<ntsc>FALSE</ntsc>
						</rate>
						<rate>
							<timebase>59</timebase>
							<ntsc>FALSE</ntsc>
						</rate>
						<duration>78</duration>
						<start>11506</start>
						<end>11584</end>
						<in>25503</in>
						<out>25581</out>
					</clipitem>
					<clipitem frameBlend="FALSE" id="clipitem-372">
						<file id="file-1"/>
						<name>bandicam 2025-06-22 23-18-13-912</name>
						<rate>
							<timebase>59</timebase>
							<ntsc>FALSE</ntsc>
						</rate>
						<rate>
							<timebase>59</timebase>
							<ntsc>FALSE</ntsc>
						</rate>
						<duration>0</duration>
						<start>11584</start>
						<end>11584</end>
						<in>25617</in>
						<out>25617</out>
					</clipitem>
					<clipitem frameBlend="FALSE" id="clipitem-373">
						<file id="file-1"/>
						<name>bandicam 2025-06-22 23-18-13-912</name>
						<rate>
							<timebase>59</timebase>
							<ntsc>FALSE</ntsc>
						</rate>
						<rate>
							<timebase>59</timebase>
							<ntsc>FALSE</ntsc>
						</rate>
						<duration>42</duration>
						<start>11584</start>
						<end>11626</end>
						<in>25641</in>
						<out>25683</out>
					</clipitem>
					<clipitem frameBlend="FALSE" id="clipitem-374">
						<file id="file-1"/>
						<name>bandicam 2025-06-22 23-18-13-912</name>
						<rate>
							<timebase>59</timebase>
							<ntsc>FALSE</ntsc>
						</rate>
						<rate>
							<timebase>59</timebase>
							<ntsc>FALSE</ntsc>
						</rate>
						<duration>83</duration>
						<start>11626</start>
						<end>11709</end>
						<in>25695</in>
						<out>25778</out>
					</clipitem>
					<clipitem frameBlend="FALSE" id="clipitem-375">
						<file id="file-1"/>
						<name>bandicam 2025-06-22 23-18-13-912</name>
						<rate>
							<timebase>59</timebase>
							<ntsc>FALSE</ntsc>
						</rate>
						<rate>
							<timebase>59</timebase>
							<ntsc>FALSE</ntsc>
						</rate>
						<duration>18</duration>
						<start>11709</start>
						<end>11727</end>
						<in>25790</in>
						<out>25808</out>
					</clipitem>
					<clipitem frameBlend="FALSE" id="clipitem-376">
						<file id="file-1"/>
						<name>bandicam 2025-06-22 23-18-13-912</name>
						<rate>
							<timebase>59</timebase>
							<ntsc>FALSE</ntsc>
						</rate>
						<rate>
							<timebase>59</timebase>
							<ntsc>FALSE</ntsc>
						</rate>
						<duration>6</duration>
						<start>11727</start>
						<end>11733</end>
						<in>25904</in>
						<out>25910</out>
					</clipitem>
					<clipitem frameBlend="FALSE" id="clipitem-377">
						<file id="file-1"/>
						<name>bandicam 2025-06-22 23-18-13-912</name>
						<rate>
							<timebase>59</timebase>
							<ntsc>FALSE</ntsc>
						</rate>
						<rate>
							<timebase>59</timebase>
							<ntsc>FALSE</ntsc>
						</rate>
						<duration>53</duration>
						<start>11733</start>
						<end>11786</end>
						<in>25934</in>
						<out>25987</out>
					</clipitem>
					<clipitem frameBlend="FALSE" id="clipitem-378">
						<file id="file-1"/>
						<name>bandicam 2025-06-22 23-18-13-912</name>
						<rate>
							<timebase>59</timebase>
							<ntsc>FALSE</ntsc>
						</rate>
						<rate>
							<timebase>59</timebase>
							<ntsc>FALSE</ntsc>
						</rate>
						<duration>0</duration>
						<start>11786</start>
						<end>11786</end>
						<in>26005</in>
						<out>26005</out>
					</clipitem>
					<clipitem frameBlend="FALSE" id="clipitem-379">
						<file id="file-1"/>
						<name>bandicam 2025-06-22 23-18-13-912</name>
						<rate>
							<timebase>59</timebase>
							<ntsc>FALSE</ntsc>
						</rate>
						<rate>
							<timebase>59</timebase>
							<ntsc>FALSE</ntsc>
						</rate>
						<duration>18</duration>
						<start>11786</start>
						<end>11804</end>
						<in>26017</in>
						<out>26035</out>
					</clipitem>
					<clipitem frameBlend="FALSE" id="clipitem-380">
						<file id="file-1"/>
						<name>bandicam 2025-06-22 23-18-13-912</name>
						<rate>
							<timebase>59</timebase>
							<ntsc>FALSE</ntsc>
						</rate>
						<rate>
							<timebase>59</timebase>
							<ntsc>FALSE</ntsc>
						</rate>
						<duration>6</duration>
						<start>11804</start>
						<end>11810</end>
						<in>26083</in>
						<out>26089</out>
					</clipitem>
					<clipitem frameBlend="FALSE" id="clipitem-381">
						<file id="file-1"/>
						<name>bandicam 2025-06-22 23-18-13-912</name>
						<rate>
							<timebase>59</timebase>
							<ntsc>FALSE</ntsc>
						</rate>
						<rate>
							<timebase>59</timebase>
							<ntsc>FALSE</ntsc>
						</rate>
						<duration>89</duration>
						<start>11810</start>
						<end>11899</end>
						<in>26143</in>
						<out>26232</out>
					</clipitem>
					<clipitem frameBlend="FALSE" id="clipitem-382">
						<file id="file-1"/>
						<name>bandicam 2025-06-22 23-18-13-912</name>
						<rate>
							<timebase>59</timebase>
							<ntsc>FALSE</ntsc>
						</rate>
						<rate>
							<timebase>59</timebase>
							<ntsc>FALSE</ntsc>
						</rate>
						<duration>12</duration>
						<start>11899</start>
						<end>11911</end>
						<in>26244</in>
						<out>26256</out>
					</clipitem>
					<clipitem frameBlend="FALSE" id="clipitem-383">
						<file id="file-1"/>
						<name>bandicam 2025-06-22 23-18-13-912</name>
						<rate>
							<timebase>59</timebase>
							<ntsc>FALSE</ntsc>
						</rate>
						<rate>
							<timebase>59</timebase>
							<ntsc>FALSE</ntsc>
						</rate>
						<duration>0</duration>
						<start>11911</start>
						<end>11911</end>
						<in>26268</in>
						<out>26268</out>
					</clipitem>
					<clipitem frameBlend="FALSE" id="clipitem-384">
						<file id="file-1"/>
						<name>bandicam 2025-06-22 23-18-13-912</name>
						<rate>
							<timebase>59</timebase>
							<ntsc>FALSE</ntsc>
						</rate>
						<rate>
							<timebase>59</timebase>
							<ntsc>FALSE</ntsc>
						</rate>
						<duration>72</duration>
						<start>11911</start>
						<end>11983</end>
						<in>26280</in>
						<out>26352</out>
					</clipitem>
					<clipitem frameBlend="FALSE" id="clipitem-385">
						<file id="file-1"/>
						<name>bandicam 2025-06-22 23-18-13-912</name>
						<rate>
							<timebase>59</timebase>
							<ntsc>FALSE</ntsc>
						</rate>
						<rate>
							<timebase>59</timebase>
							<ntsc>FALSE</ntsc>
						</rate>
						<duration>18</duration>
						<start>11983</start>
						<end>12001</end>
						<in>26376</in>
						<out>26394</out>
					</clipitem>
					<clipitem frameBlend="FALSE" id="clipitem-386">
						<file id="file-1"/>
						<name>bandicam 2025-06-22 23-18-13-912</name>
						<rate>
							<timebase>59</timebase>
							<ntsc>FALSE</ntsc>
						</rate>
						<rate>
							<timebase>59</timebase>
							<ntsc>FALSE</ntsc>
						</rate>
						<duration>203</duration>
						<start>12001</start>
						<end>12204</end>
						<in>26418</in>
						<out>26621</out>
					</clipitem>
					<clipitem frameBlend="FALSE" id="clipitem-387">
						<file id="file-1"/>
						<name>bandicam 2025-06-22 23-18-13-912</name>
						<rate>
							<timebase>59</timebase>
							<ntsc>FALSE</ntsc>
						</rate>
						<rate>
							<timebase>59</timebase>
							<ntsc>FALSE</ntsc>
						</rate>
						<duration>77</duration>
						<start>12204</start>
						<end>12281</end>
						<in>26633</in>
						<out>26710</out>
					</clipitem>
					<clipitem frameBlend="FALSE" id="clipitem-388">
						<file id="file-1"/>
						<name>bandicam 2025-06-22 23-18-13-912</name>
						<rate>
							<timebase>59</timebase>
							<ntsc>FALSE</ntsc>
						</rate>
						<rate>
							<timebase>59</timebase>
							<ntsc>FALSE</ntsc>
						</rate>
						<duration>30</duration>
						<start>12281</start>
						<end>12311</end>
						<in>26728</in>
						<out>26758</out>
					</clipitem>
					<clipitem frameBlend="FALSE" id="clipitem-389">
						<file id="file-1"/>
						<name>bandicam 2025-06-22 23-18-13-912</name>
						<rate>
							<timebase>59</timebase>
							<ntsc>FALSE</ntsc>
						</rate>
						<rate>
							<timebase>59</timebase>
							<ntsc>FALSE</ntsc>
						</rate>
						<duration>18</duration>
						<start>12311</start>
						<end>12329</end>
						<in>26770</in>
						<out>26788</out>
					</clipitem>
					<clipitem frameBlend="FALSE" id="clipitem-390">
						<file id="file-1"/>
						<name>bandicam 2025-06-22 23-18-13-912</name>
						<rate>
							<timebase>59</timebase>
							<ntsc>FALSE</ntsc>
						</rate>
						<rate>
							<timebase>59</timebase>
							<ntsc>FALSE</ntsc>
						</rate>
						<duration>24</duration>
						<start>12329</start>
						<end>12353</end>
						<in>26812</in>
						<out>26836</out>
					</clipitem>
					<clipitem frameBlend="FALSE" id="clipitem-391">
						<file id="file-1"/>
						<name>bandicam 2025-06-22 23-18-13-912</name>
						<rate>
							<timebase>59</timebase>
							<ntsc>FALSE</ntsc>
						</rate>
						<rate>
							<timebase>59</timebase>
							<ntsc>FALSE</ntsc>
						</rate>
						<duration>6</duration>
						<start>12353</start>
						<end>12359</end>
						<in>26854</in>
						<out>26860</out>
					</clipitem>
					<clipitem frameBlend="FALSE" id="clipitem-392">
						<file id="file-1"/>
						<name>bandicam 2025-06-22 23-18-13-912</name>
						<rate>
							<timebase>59</timebase>
							<ntsc>FALSE</ntsc>
						</rate>
						<rate>
							<timebase>59</timebase>
							<ntsc>FALSE</ntsc>
						</rate>
						<duration>47</duration>
						<start>12359</start>
						<end>12406</end>
						<in>26872</in>
						<out>26919</out>
					</clipitem>
					<clipitem frameBlend="FALSE" id="clipitem-393">
						<file id="file-1"/>
						<name>bandicam 2025-06-22 23-18-13-912</name>
						<rate>
							<timebase>59</timebase>
							<ntsc>FALSE</ntsc>
						</rate>
						<rate>
							<timebase>59</timebase>
							<ntsc>FALSE</ntsc>
						</rate>
						<duration>96</duration>
						<start>12406</start>
						<end>12502</end>
						<in>26931</in>
						<out>27027</out>
					</clipitem>
					<clipitem frameBlend="FALSE" id="clipitem-394">
						<file id="file-1"/>
						<name>bandicam 2025-06-22 23-18-13-912</name>
						<rate>
							<timebase>59</timebase>
							<ntsc>FALSE</ntsc>
						</rate>
						<rate>
							<timebase>59</timebase>
							<ntsc>FALSE</ntsc>
						</rate>
						<duration>6</duration>
						<start>12502</start>
						<end>12508</end>
						<in>27039</in>
						<out>27045</out>
					</clipitem>
					<clipitem frameBlend="FALSE" id="clipitem-395">
						<file id="file-1"/>
						<name>bandicam 2025-06-22 23-18-13-912</name>
						<rate>
							<timebase>59</timebase>
							<ntsc>FALSE</ntsc>
						</rate>
						<rate>
							<timebase>59</timebase>
							<ntsc>FALSE</ntsc>
						</rate>
						<duration>12</duration>
						<start>12508</start>
						<end>12520</end>
						<in>27069</in>
						<out>27081</out>
					</clipitem>
					<clipitem frameBlend="FALSE" id="clipitem-396">
						<file id="file-1"/>
						<name>bandicam 2025-06-22 23-18-13-912</name>
						<rate>
							<timebase>59</timebase>
							<ntsc>FALSE</ntsc>
						</rate>
						<rate>
							<timebase>59</timebase>
							<ntsc>FALSE</ntsc>
						</rate>
						<duration>24</duration>
						<start>12520</start>
						<end>12544</end>
						<in>27099</in>
						<out>27123</out>
					</clipitem>
					<clipitem frameBlend="FALSE" id="clipitem-397">
						<file id="file-1"/>
						<name>bandicam 2025-06-22 23-18-13-912</name>
						<rate>
							<timebase>59</timebase>
							<ntsc>FALSE</ntsc>
						</rate>
						<rate>
							<timebase>59</timebase>
							<ntsc>FALSE</ntsc>
						</rate>
						<duration>114</duration>
						<start>12544</start>
						<end>12658</end>
						<in>27146</in>
						<out>27260</out>
					</clipitem>
					<clipitem frameBlend="FALSE" id="clipitem-398">
						<file id="file-1"/>
						<name>bandicam 2025-06-22 23-18-13-912</name>
						<rate>
							<timebase>59</timebase>
							<ntsc>FALSE</ntsc>
						</rate>
						<rate>
							<timebase>59</timebase>
							<ntsc>FALSE</ntsc>
						</rate>
						<duration>6</duration>
						<start>12658</start>
						<end>12664</end>
						<in>27272</in>
						<out>27278</out>
					</clipitem>
					<clipitem frameBlend="FALSE" id="clipitem-399">
						<file id="file-1"/>
						<name>bandicam 2025-06-22 23-18-13-912</name>
						<rate>
							<timebase>59</timebase>
							<ntsc>FALSE</ntsc>
						</rate>
						<rate>
							<timebase>59</timebase>
							<ntsc>FALSE</ntsc>
						</rate>
						<duration>48</duration>
						<start>12664</start>
						<end>12712</end>
						<in>27290</in>
						<out>27338</out>
					</clipitem>
					<clipitem frameBlend="FALSE" id="clipitem-400">
						<file id="file-1"/>
						<name>bandicam 2025-06-22 23-18-13-912</name>
						<rate>
							<timebase>59</timebase>
							<ntsc>FALSE</ntsc>
						</rate>
						<rate>
							<timebase>59</timebase>
							<ntsc>FALSE</ntsc>
						</rate>
						<duration>42</duration>
						<start>12712</start>
						<end>12754</end>
						<in>27361</in>
						<out>27403</out>
					</clipitem>
					<clipitem frameBlend="FALSE" id="clipitem-401">
						<file id="file-1"/>
						<name>bandicam 2025-06-22 23-18-13-912</name>
						<rate>
							<timebase>59</timebase>
							<ntsc>FALSE</ntsc>
						</rate>
						<rate>
							<timebase>59</timebase>
							<ntsc>FALSE</ntsc>
						</rate>
						<duration>48</duration>
						<start>12754</start>
						<end>12802</end>
						<in>27427</in>
						<out>27475</out>
					</clipitem>
					<clipitem frameBlend="FALSE" id="clipitem-402">
						<file id="file-1"/>
						<name>bandicam 2025-06-22 23-18-13-912</name>
						<rate>
							<timebase>59</timebase>
							<ntsc>FALSE</ntsc>
						</rate>
						<rate>
							<timebase>59</timebase>
							<ntsc>FALSE</ntsc>
						</rate>
						<duration>54</duration>
						<start>12802</start>
						<end>12856</end>
						<in>27493</in>
						<out>27547</out>
					</clipitem>
					<clipitem frameBlend="FALSE" id="clipitem-403">
						<file id="file-1"/>
						<name>bandicam 2025-06-22 23-18-13-912</name>
						<rate>
							<timebase>59</timebase>
							<ntsc>FALSE</ntsc>
						</rate>
						<rate>
							<timebase>59</timebase>
							<ntsc>FALSE</ntsc>
						</rate>
						<duration>41</duration>
						<start>12856</start>
						<end>12897</end>
						<in>27559</in>
						<out>27600</out>
					</clipitem>
					<clipitem frameBlend="FALSE" id="clipitem-404">
						<file id="file-1"/>
						<name>bandicam 2025-06-22 23-18-13-912</name>
						<rate>
							<timebase>59</timebase>
							<ntsc>FALSE</ntsc>
						</rate>
						<rate>
							<timebase>59</timebase>
							<ntsc>FALSE</ntsc>
						</rate>
						<duration>30</duration>
						<start>12897</start>
						<end>12927</end>
						<in>27612</in>
						<out>27642</out>
					</clipitem>
					<clipitem frameBlend="FALSE" id="clipitem-405">
						<file id="file-1"/>
						<name>bandicam 2025-06-22 23-18-13-912</name>
						<rate>
							<timebase>59</timebase>
							<ntsc>FALSE</ntsc>
						</rate>
						<rate>
							<timebase>59</timebase>
							<ntsc>FALSE</ntsc>
						</rate>
						<duration>6</duration>
						<start>12927</start>
						<end>12933</end>
						<in>27660</in>
						<out>27666</out>
					</clipitem>
					<clipitem frameBlend="FALSE" id="clipitem-406">
						<file id="file-1"/>
						<name>bandicam 2025-06-22 23-18-13-912</name>
						<rate>
							<timebase>59</timebase>
							<ntsc>FALSE</ntsc>
						</rate>
						<rate>
							<timebase>59</timebase>
							<ntsc>FALSE</ntsc>
						</rate>
						<duration>54</duration>
						<start>12933</start>
						<end>12987</end>
						<in>27690</in>
						<out>27744</out>
					</clipitem>
					<clipitem frameBlend="FALSE" id="clipitem-407">
						<file id="file-1"/>
						<name>bandicam 2025-06-22 23-18-13-912</name>
						<rate>
							<timebase>59</timebase>
							<ntsc>FALSE</ntsc>
						</rate>
						<rate>
							<timebase>59</timebase>
							<ntsc>FALSE</ntsc>
						</rate>
						<duration>30</duration>
						<start>12987</start>
						<end>13017</end>
						<in>27756</in>
						<out>27786</out>
					</clipitem>
					<clipitem frameBlend="FALSE" id="clipitem-408">
						<file id="file-1"/>
						<name>bandicam 2025-06-22 23-18-13-912</name>
						<rate>
							<timebase>59</timebase>
							<ntsc>FALSE</ntsc>
						</rate>
						<rate>
							<timebase>59</timebase>
							<ntsc>FALSE</ntsc>
						</rate>
						<duration>23</duration>
						<start>13017</start>
						<end>13040</end>
						<in>27804</in>
						<out>27827</out>
					</clipitem>
					<clipitem frameBlend="FALSE" id="clipitem-409">
						<file id="file-1"/>
						<name>bandicam 2025-06-22 23-18-13-912</name>
						<rate>
							<timebase>59</timebase>
							<ntsc>FALSE</ntsc>
						</rate>
						<rate>
							<timebase>59</timebase>
							<ntsc>FALSE</ntsc>
						</rate>
						<duration>42</duration>
						<start>13040</start>
						<end>13082</end>
						<in>27845</in>
						<out>27887</out>
					</clipitem>
					<clipitem frameBlend="FALSE" id="clipitem-410">
						<file id="file-1"/>
						<name>bandicam 2025-06-22 23-18-13-912</name>
						<rate>
							<timebase>59</timebase>
							<ntsc>FALSE</ntsc>
						</rate>
						<rate>
							<timebase>59</timebase>
							<ntsc>FALSE</ntsc>
						</rate>
						<duration>114</duration>
						<start>13082</start>
						<end>13196</end>
						<in>27905</in>
						<out>28019</out>
					</clipitem>
					<clipitem frameBlend="FALSE" id="clipitem-411">
						<file id="file-1"/>
						<name>bandicam 2025-06-22 23-18-13-912</name>
						<rate>
							<timebase>59</timebase>
							<ntsc>FALSE</ntsc>
						</rate>
						<rate>
							<timebase>59</timebase>
							<ntsc>FALSE</ntsc>
						</rate>
						<duration>12</duration>
						<start>13196</start>
						<end>13208</end>
						<in>28031</in>
						<out>28043</out>
					</clipitem>
					<clipitem frameBlend="FALSE" id="clipitem-412">
						<file id="file-1"/>
						<name>bandicam 2025-06-22 23-18-13-912</name>
						<rate>
							<timebase>59</timebase>
							<ntsc>FALSE</ntsc>
						</rate>
						<rate>
							<timebase>59</timebase>
							<ntsc>FALSE</ntsc>
						</rate>
						<duration>12</duration>
						<start>13208</start>
						<end>13220</end>
						<in>28054</in>
						<out>28066</out>
					</clipitem>
					<clipitem frameBlend="FALSE" id="clipitem-413">
						<file id="file-1"/>
						<name>bandicam 2025-06-22 23-18-13-912</name>
						<rate>
							<timebase>59</timebase>
							<ntsc>FALSE</ntsc>
						</rate>
						<rate>
							<timebase>59</timebase>
							<ntsc>FALSE</ntsc>
						</rate>
						<duration>72</duration>
						<start>13220</start>
						<end>13292</end>
						<in>28084</in>
						<out>28156</out>
					</clipitem>
					<clipitem frameBlend="FALSE" id="clipitem-414">
						<file id="file-1"/>
						<name>bandicam 2025-06-22 23-18-13-912</name>
						<rate>
							<timebase>59</timebase>
							<ntsc>FALSE</ntsc>
						</rate>
						<rate>
							<timebase>59</timebase>
							<ntsc>FALSE</ntsc>
						</rate>
						<duration>257</duration>
						<start>13292</start>
						<end>13549</end>
						<in>28180</in>
						<out>28437</out>
					</clipitem>
					<clipitem frameBlend="FALSE" id="clipitem-415">
						<file id="file-1"/>
						<name>bandicam 2025-06-22 23-18-13-912</name>
						<rate>
							<timebase>59</timebase>
							<ntsc>FALSE</ntsc>
						</rate>
						<rate>
							<timebase>59</timebase>
							<ntsc>FALSE</ntsc>
						</rate>
						<duration>101</duration>
						<start>13549</start>
						<end>13650</end>
						<in>28449</in>
						<out>28550</out>
					</clipitem>
					<clipitem frameBlend="FALSE" id="clipitem-416">
						<file id="file-1"/>
						<name>bandicam 2025-06-22 23-18-13-912</name>
						<rate>
							<timebase>59</timebase>
							<ntsc>FALSE</ntsc>
						</rate>
						<rate>
							<timebase>59</timebase>
							<ntsc>FALSE</ntsc>
						</rate>
						<duration>102</duration>
						<start>13650</start>
						<end>13752</end>
						<in>28616</in>
						<out>28718</out>
					</clipitem>
					<clipitem frameBlend="FALSE" id="clipitem-417">
						<file id="file-1"/>
						<name>bandicam 2025-06-22 23-18-13-912</name>
						<rate>
							<timebase>59</timebase>
							<ntsc>FALSE</ntsc>
						</rate>
						<rate>
							<timebase>59</timebase>
							<ntsc>FALSE</ntsc>
						</rate>
						<duration>6</duration>
						<start>13752</start>
						<end>13758</end>
						<in>28730</in>
						<out>28736</out>
					</clipitem>
					<clipitem frameBlend="FALSE" id="clipitem-418">
						<file id="file-1"/>
						<name>bandicam 2025-06-22 23-18-13-912</name>
						<rate>
							<timebase>59</timebase>
							<ntsc>FALSE</ntsc>
						</rate>
						<rate>
							<timebase>59</timebase>
							<ntsc>FALSE</ntsc>
						</rate>
						<duration>96</duration>
						<start>13758</start>
						<end>13854</end>
						<in>28747</in>
						<out>28843</out>
					</clipitem>
					<clipitem frameBlend="FALSE" id="clipitem-419">
						<file id="file-1"/>
						<name>bandicam 2025-06-22 23-18-13-912</name>
						<rate>
							<timebase>59</timebase>
							<ntsc>FALSE</ntsc>
						</rate>
						<rate>
							<timebase>59</timebase>
							<ntsc>FALSE</ntsc>
						</rate>
						<duration>149</duration>
						<start>13854</start>
						<end>14003</end>
						<in>28855</in>
						<out>29004</out>
					</clipitem>
					<clipitem frameBlend="FALSE" id="clipitem-420">
						<file id="file-1"/>
						<name>bandicam 2025-06-22 23-18-13-912</name>
						<rate>
							<timebase>59</timebase>
							<ntsc>FALSE</ntsc>
						</rate>
						<rate>
							<timebase>59</timebase>
							<ntsc>FALSE</ntsc>
						</rate>
						<duration>6</duration>
						<start>14003</start>
						<end>14009</end>
						<in>29028</in>
						<out>29034</out>
					</clipitem>
					<clipitem frameBlend="FALSE" id="clipitem-421">
						<file id="file-1"/>
						<name>bandicam 2025-06-22 23-18-13-912</name>
						<rate>
							<timebase>59</timebase>
							<ntsc>FALSE</ntsc>
						</rate>
						<rate>
							<timebase>59</timebase>
							<ntsc>FALSE</ntsc>
						</rate>
						<duration>84</duration>
						<start>14009</start>
						<end>14093</end>
						<in>29058</in>
						<out>29142</out>
					</clipitem>
					<clipitem frameBlend="FALSE" id="clipitem-422">
						<file id="file-1"/>
						<name>bandicam 2025-06-22 23-18-13-912</name>
						<rate>
							<timebase>59</timebase>
							<ntsc>FALSE</ntsc>
						</rate>
						<rate>
							<timebase>59</timebase>
							<ntsc>FALSE</ntsc>
						</rate>
						<duration>24</duration>
						<start>14093</start>
						<end>14117</end>
						<in>29172</in>
						<out>29196</out>
					</clipitem>
					<clipitem frameBlend="FALSE" id="clipitem-423">
						<file id="file-1"/>
						<name>bandicam 2025-06-22 23-18-13-912</name>
						<rate>
							<timebase>59</timebase>
							<ntsc>FALSE</ntsc>
						</rate>
						<rate>
							<timebase>59</timebase>
							<ntsc>FALSE</ntsc>
						</rate>
						<duration>18</duration>
						<start>14117</start>
						<end>14135</end>
						<in>29219</in>
						<out>29237</out>
					</clipitem>
					<clipitem frameBlend="FALSE" id="clipitem-424">
						<file id="file-1"/>
						<name>bandicam 2025-06-22 23-18-13-912</name>
						<rate>
							<timebase>59</timebase>
							<ntsc>FALSE</ntsc>
						</rate>
						<rate>
							<timebase>59</timebase>
							<ntsc>FALSE</ntsc>
						</rate>
						<duration>132</duration>
						<start>14135</start>
						<end>14267</end>
						<in>29267</in>
						<out>29399</out>
					</clipitem>
					<clipitem frameBlend="FALSE" id="clipitem-425">
						<file id="file-1"/>
						<name>bandicam 2025-06-22 23-18-13-912</name>
						<rate>
							<timebase>59</timebase>
							<ntsc>FALSE</ntsc>
						</rate>
						<rate>
							<timebase>59</timebase>
							<ntsc>FALSE</ntsc>
						</rate>
						<duration>0</duration>
						<start>14267</start>
						<end>14267</end>
						<in>29614</in>
						<out>29614</out>
					</clipitem>
					<clipitem frameBlend="FALSE" id="clipitem-426">
						<file id="file-1"/>
						<name>bandicam 2025-06-22 23-18-13-912</name>
						<rate>
							<timebase>59</timebase>
							<ntsc>FALSE</ntsc>
						</rate>
						<rate>
							<timebase>59</timebase>
							<ntsc>FALSE</ntsc>
						</rate>
						<duration>24</duration>
						<start>14267</start>
						<end>14291</end>
						<in>29835</in>
						<out>29859</out>
					</clipitem>
				</track>
			</video>
			<audio>
				<track>
					<clipitem frameBlend="FALSE" id="audioclip-1">
						<file id="file-1"/>
						<name>bandicam 2025-06-22 23-18-13-912 - Audio</name>
						<rate>
							<timebase>59</timebase>
							<ntsc>FALSE</ntsc>
						</rate>
						<rate>
							<timebase>59</timebase>
							<ntsc>FALSE</ntsc>
						</rate>
						<duration>0</duration>
						<start>0</start>
						<end>0</end>
						<in>0</in>
						<out>0</out>
					</clipitem>
					<clipitem frameBlend="FALSE" id="audioclip-2">
						<file id="file-1"/>
						<name>bandicam 2025-06-22 23-18-13-912 - Audio</name>
						<rate>
							<timebase>59</timebase>
							<ntsc>FALSE</ntsc>
						</rate>
						<rate>
							<timebase>59</timebase>
							<ntsc>FALSE</ntsc>
						</rate>
						<duration>0</duration>
						<start>0</start>
						<end>0</end>
						<in>23</in>
						<out>23</out>
					</clipitem>
					<clipitem frameBlend="FALSE" id="audioclip-3">
						<file id="file-1"/>
						<name>bandicam 2025-06-22 23-18-13-912 - Audio</name>
						<rate>
							<timebase>59</timebase>
							<ntsc>FALSE</ntsc>
						</rate>
						<rate>
							<timebase>59</timebase>
							<ntsc>FALSE</ntsc>
						</rate>
						<duration>0</duration>
						<start>0</start>
						<end>0</end>
						<in>41</in>
						<out>41</out>
					</clipitem>
					<clipitem frameBlend="FALSE" id="audioclip-4">
						<file id="file-1"/>
						<name>bandicam 2025-06-22 23-18-13-912 - Audio</name>
						<rate>
							<timebase>59</timebase>
							<ntsc>FALSE</ntsc>
						</rate>
						<rate>
							<timebase>59</timebase>
							<ntsc>FALSE</ntsc>
						</rate>
						<duration>30</duration>
						<start>0</start>
						<end>30</end>
						<in>59</in>
						<out>89</out>
					</clipitem>
					<clipitem frameBlend="FALSE" id="audioclip-5">
						<file id="file-1"/>
						<name>bandicam 2025-06-22 23-18-13-912 - Audio</name>
						<rate>
							<timebase>59</timebase>
							<ntsc>FALSE</ntsc>
						</rate>
						<rate>
							<timebase>59</timebase>
							<ntsc>FALSE</ntsc>
						</rate>
						<duration>0</duration>
						<start>30</start>
						<end>30</end>
						<in>125</in>
						<out>125</out>
					</clipitem>
					<clipitem frameBlend="FALSE" id="audioclip-6">
						<file id="file-1"/>
						<name>bandicam 2025-06-22 23-18-13-912 - Audio</name>
						<rate>
							<timebase>59</timebase>
							<ntsc>FALSE</ntsc>
						</rate>
						<rate>
							<timebase>59</timebase>
							<ntsc>FALSE</ntsc>
						</rate>
						<duration>18</duration>
						<start>30</start>
						<end>48</end>
						<in>143</in>
						<out>161</out>
					</clipitem>
					<clipitem frameBlend="FALSE" id="audioclip-7">
						<file id="file-1"/>
						<name>bandicam 2025-06-22 23-18-13-912 - Audio</name>
						<rate>
							<timebase>59</timebase>
							<ntsc>FALSE</ntsc>
						</rate>
						<rate>
							<timebase>59</timebase>
							<ntsc>FALSE</ntsc>
						</rate>
						<duration>0</duration>
						<start>48</start>
						<end>48</end>
						<in>185</in>
						<out>185</out>
					</clipitem>
					<clipitem frameBlend="FALSE" id="audioclip-8">
						<file id="file-1"/>
						<name>bandicam 2025-06-22 23-18-13-912 - Audio</name>
						<rate>
							<timebase>59</timebase>
							<ntsc>FALSE</ntsc>
						</rate>
						<rate>
							<timebase>59</timebase>
							<ntsc>FALSE</ntsc>
						</rate>
						<duration>29</duration>
						<start>48</start>
						<end>77</end>
						<in>203</in>
						<out>232</out>
					</clipitem>
					<clipitem frameBlend="FALSE" id="audioclip-9">
						<file id="file-1"/>
						<name>bandicam 2025-06-22 23-18-13-912 - Audio</name>
						<rate>
							<timebase>59</timebase>
							<ntsc>FALSE</ntsc>
						</rate>
						<rate>
							<timebase>59</timebase>
							<ntsc>FALSE</ntsc>
						</rate>
						<duration>0</duration>
						<start>77</start>
						<end>77</end>
						<in>250</in>
						<out>250</out>
					</clipitem>
					<clipitem frameBlend="FALSE" id="audioclip-10">
						<file id="file-1"/>
						<name>bandicam 2025-06-22 23-18-13-912 - Audio</name>
						<rate>
							<timebase>59</timebase>
							<ntsc>FALSE</ntsc>
						</rate>
						<rate>
							<timebase>59</timebase>
							<ntsc>FALSE</ntsc>
						</rate>
						<duration>0</duration>
						<start>77</start>
						<end>77</end>
						<in>358</in>
						<out>358</out>
					</clipitem>
					<clipitem frameBlend="FALSE" id="audioclip-11">
						<file id="file-1"/>
						<name>bandicam 2025-06-22 23-18-13-912 - Audio</name>
						<rate>
							<timebase>59</timebase>
							<ntsc>FALSE</ntsc>
						</rate>
						<rate>
							<timebase>59</timebase>
							<ntsc>FALSE</ntsc>
						</rate>
						<duration>12</duration>
						<start>77</start>
						<end>89</end>
						<in>376</in>
						<out>388</out>
					</clipitem>
					<clipitem frameBlend="FALSE" id="audioclip-12">
						<file id="file-1"/>
						<name>bandicam 2025-06-22 23-18-13-912 - Audio</name>
						<rate>
							<timebase>59</timebase>
							<ntsc>FALSE</ntsc>
						</rate>
						<rate>
							<timebase>59</timebase>
							<ntsc>FALSE</ntsc>
						</rate>
						<duration>0</duration>
						<start>89</start>
						<end>89</end>
						<in>489</in>
						<out>489</out>
					</clipitem>
					<clipitem frameBlend="FALSE" id="audioclip-13">
						<file id="file-1"/>
						<name>bandicam 2025-06-22 23-18-13-912 - Audio</name>
						<rate>
							<timebase>59</timebase>
							<ntsc>FALSE</ntsc>
						</rate>
						<rate>
							<timebase>59</timebase>
							<ntsc>FALSE</ntsc>
						</rate>
						<duration>6</duration>
						<start>89</start>
						<end>95</end>
						<in>507</in>
						<out>513</out>
					</clipitem>
					<clipitem frameBlend="FALSE" id="audioclip-14">
						<file id="file-1"/>
						<name>bandicam 2025-06-22 23-18-13-912 - Audio</name>
						<rate>
							<timebase>59</timebase>
							<ntsc>FALSE</ntsc>
						</rate>
						<rate>
							<timebase>59</timebase>
							<ntsc>FALSE</ntsc>
						</rate>
						<duration>0</duration>
						<start>95</start>
						<end>95</end>
						<in>567</in>
						<out>567</out>
					</clipitem>
					<clipitem frameBlend="FALSE" id="audioclip-15">
						<file id="file-1"/>
						<name>bandicam 2025-06-22 23-18-13-912 - Audio</name>
						<rate>
							<timebase>59</timebase>
							<ntsc>FALSE</ntsc>
						</rate>
						<rate>
							<timebase>59</timebase>
							<ntsc>FALSE</ntsc>
						</rate>
						<duration>0</duration>
						<start>95</start>
						<end>95</end>
						<in>591</in>
						<out>591</out>
					</clipitem>
					<clipitem frameBlend="FALSE" id="audioclip-16">
						<file id="file-1"/>
						<name>bandicam 2025-06-22 23-18-13-912 - Audio</name>
						<rate>
							<timebase>59</timebase>
							<ntsc>FALSE</ntsc>
						</rate>
						<rate>
							<timebase>59</timebase>
							<ntsc>FALSE</ntsc>
						</rate>
						<duration>6</duration>
						<start>95</start>
						<end>101</end>
						<in>609</in>
						<out>615</out>
					</clipitem>
					<clipitem frameBlend="FALSE" id="audioclip-17">
						<file id="file-1"/>
						<name>bandicam 2025-06-22 23-18-13-912 - Audio</name>
						<rate>
							<timebase>59</timebase>
							<ntsc>FALSE</ntsc>
						</rate>
						<rate>
							<timebase>59</timebase>
							<ntsc>FALSE</ntsc>
						</rate>
						<duration>0</duration>
						<start>101</start>
						<end>101</end>
						<in>627</in>
						<out>627</out>
					</clipitem>
					<clipitem frameBlend="FALSE" id="audioclip-18">
						<file id="file-1"/>
						<name>bandicam 2025-06-22 23-18-13-912 - Audio</name>
						<rate>
							<timebase>59</timebase>
							<ntsc>FALSE</ntsc>
						</rate>
						<rate>
							<timebase>59</timebase>
							<ntsc>FALSE</ntsc>
						</rate>
						<duration>0</duration>
						<start>101</start>
						<end>101</end>
						<in>770</in>
						<out>770</out>
					</clipitem>
					<clipitem frameBlend="FALSE" id="audioclip-19">
						<file id="file-1"/>
						<name>bandicam 2025-06-22 23-18-13-912 - Audio</name>
						<rate>
							<timebase>59</timebase>
							<ntsc>FALSE</ntsc>
						</rate>
						<rate>
							<timebase>59</timebase>
							<ntsc>FALSE</ntsc>
						</rate>
						<duration>6</duration>
						<start>101</start>
						<end>107</end>
						<in>842</in>
						<out>848</out>
					</clipitem>
					<clipitem frameBlend="FALSE" id="audioclip-20">
						<file id="file-1"/>
						<name>bandicam 2025-06-22 23-18-13-912 - Audio</name>
						<rate>
							<timebase>59</timebase>
							<ntsc>FALSE</ntsc>
						</rate>
						<rate>
							<timebase>59</timebase>
							<ntsc>FALSE</ntsc>
						</rate>
						<duration>0</duration>
						<start>107</start>
						<end>107</end>
						<in>884</in>
						<out>884</out>
					</clipitem>
					<clipitem frameBlend="FALSE" id="audioclip-21">
						<file id="file-1"/>
						<name>bandicam 2025-06-22 23-18-13-912 - Audio</name>
						<rate>
							<timebase>59</timebase>
							<ntsc>FALSE</ntsc>
						</rate>
						<rate>
							<timebase>59</timebase>
							<ntsc>FALSE</ntsc>
						</rate>
						<duration>0</duration>
						<start>107</start>
						<end>107</end>
						<in>896</in>
						<out>896</out>
					</clipitem>
					<clipitem frameBlend="FALSE" id="audioclip-22">
						<file id="file-1"/>
						<name>bandicam 2025-06-22 23-18-13-912 - Audio</name>
						<rate>
							<timebase>59</timebase>
							<ntsc>FALSE</ntsc>
						</rate>
						<rate>
							<timebase>59</timebase>
							<ntsc>FALSE</ntsc>
						</rate>
						<duration>0</duration>
						<start>107</start>
						<end>107</end>
						<in>920</in>
						<out>920</out>
					</clipitem>
					<clipitem frameBlend="FALSE" id="audioclip-23">
						<file id="file-1"/>
						<name>bandicam 2025-06-22 23-18-13-912 - Audio</name>
						<rate>
							<timebase>59</timebase>
							<ntsc>FALSE</ntsc>
						</rate>
						<rate>
							<timebase>59</timebase>
							<ntsc>FALSE</ntsc>
						</rate>
						<duration>0</duration>
						<start>107</start>
						<end>107</end>
						<in>943</in>
						<out>943</out>
					</clipitem>
					<clipitem frameBlend="FALSE" id="audioclip-24">
						<file id="file-1"/>
						<name>bandicam 2025-06-22 23-18-13-912 - Audio</name>
						<rate>
							<timebase>59</timebase>
							<ntsc>FALSE</ntsc>
						</rate>
						<rate>
							<timebase>59</timebase>
							<ntsc>FALSE</ntsc>
						</rate>
						<duration>0</duration>
						<start>107</start>
						<end>107</end>
						<in>961</in>
						<out>961</out>
					</clipitem>
					<clipitem frameBlend="FALSE" id="audioclip-25">
						<file id="file-1"/>
						<name>bandicam 2025-06-22 23-18-13-912 - Audio</name>
						<rate>
							<timebase>59</timebase>
							<ntsc>FALSE</ntsc>
						</rate>
						<rate>
							<timebase>59</timebase>
							<ntsc>FALSE</ntsc>
						</rate>
						<duration>84</duration>
						<start>107</start>
						<end>191</end>
						<in>979</in>
						<out>1063</out>
					</clipitem>
					<clipitem frameBlend="FALSE" id="audioclip-26">
						<file id="file-1"/>
						<name>bandicam 2025-06-22 23-18-13-912 - Audio</name>
						<rate>
							<timebase>59</timebase>
							<ntsc>FALSE</ntsc>
						</rate>
						<rate>
							<timebase>59</timebase>
							<ntsc>FALSE</ntsc>
						</rate>
						<duration>0</duration>
						<start>191</start>
						<end>191</end>
						<in>1248</in>
						<out>1248</out>
					</clipitem>
					<clipitem frameBlend="FALSE" id="audioclip-27">
						<file id="file-1"/>
						<name>bandicam 2025-06-22 23-18-13-912 - Audio</name>
						<rate>
							<timebase>59</timebase>
							<ntsc>FALSE</ntsc>
						</rate>
						<rate>
							<timebase>59</timebase>
							<ntsc>FALSE</ntsc>
						</rate>
						<duration>0</duration>
						<start>191</start>
						<end>191</end>
						<in>1278</in>
						<out>1278</out>
					</clipitem>
					<clipitem frameBlend="FALSE" id="audioclip-28">
						<file id="file-1"/>
						<name>bandicam 2025-06-22 23-18-13-912 - Audio</name>
						<rate>
							<timebase>59</timebase>
							<ntsc>FALSE</ntsc>
						</rate>
						<rate>
							<timebase>59</timebase>
							<ntsc>FALSE</ntsc>
						</rate>
						<duration>0</duration>
						<start>191</start>
						<end>191</end>
						<in>1332</in>
						<out>1332</out>
					</clipitem>
					<clipitem frameBlend="FALSE" id="audioclip-29">
						<file id="file-1"/>
						<name>bandicam 2025-06-22 23-18-13-912 - Audio</name>
						<rate>
							<timebase>59</timebase>
							<ntsc>FALSE</ntsc>
						</rate>
						<rate>
							<timebase>59</timebase>
							<ntsc>FALSE</ntsc>
						</rate>
						<duration>0</duration>
						<start>191</start>
						<end>191</end>
						<in>1481</in>
						<out>1481</out>
					</clipitem>
					<clipitem frameBlend="FALSE" id="audioclip-30">
						<file id="file-1"/>
						<name>bandicam 2025-06-22 23-18-13-912 - Audio</name>
						<rate>
							<timebase>59</timebase>
							<ntsc>FALSE</ntsc>
						</rate>
						<rate>
							<timebase>59</timebase>
							<ntsc>FALSE</ntsc>
						</rate>
						<duration>12</duration>
						<start>191</start>
						<end>203</end>
						<in>1726</in>
						<out>1738</out>
					</clipitem>
					<clipitem frameBlend="FALSE" id="audioclip-31">
						<file id="file-1"/>
						<name>bandicam 2025-06-22 23-18-13-912 - Audio</name>
						<rate>
							<timebase>59</timebase>
							<ntsc>FALSE</ntsc>
						</rate>
						<rate>
							<timebase>59</timebase>
							<ntsc>FALSE</ntsc>
						</rate>
						<duration>0</duration>
						<start>203</start>
						<end>203</end>
						<in>1786</in>
						<out>1786</out>
					</clipitem>
					<clipitem frameBlend="FALSE" id="audioclip-32">
						<file id="file-1"/>
						<name>bandicam 2025-06-22 23-18-13-912 - Audio</name>
						<rate>
							<timebase>59</timebase>
							<ntsc>FALSE</ntsc>
						</rate>
						<rate>
							<timebase>59</timebase>
							<ntsc>FALSE</ntsc>
						</rate>
						<duration>0</duration>
						<start>203</start>
						<end>203</end>
						<in>1798</in>
						<out>1798</out>
					</clipitem>
					<clipitem frameBlend="FALSE" id="audioclip-33">
						<file id="file-1"/>
						<name>bandicam 2025-06-22 23-18-13-912 - Audio</name>
						<rate>
							<timebase>59</timebase>
							<ntsc>FALSE</ntsc>
						</rate>
						<rate>
							<timebase>59</timebase>
							<ntsc>FALSE</ntsc>
						</rate>
						<duration>0</duration>
						<start>203</start>
						<end>203</end>
						<in>1840</in>
						<out>1840</out>
					</clipitem>
					<clipitem frameBlend="FALSE" id="audioclip-34">
						<file id="file-1"/>
						<name>bandicam 2025-06-22 23-18-13-912 - Audio</name>
						<rate>
							<timebase>59</timebase>
							<ntsc>FALSE</ntsc>
						</rate>
						<rate>
							<timebase>59</timebase>
							<ntsc>FALSE</ntsc>
						</rate>
						<duration>0</duration>
						<start>203</start>
						<end>203</end>
						<in>1911</in>
						<out>1911</out>
					</clipitem>
					<clipitem frameBlend="FALSE" id="audioclip-35">
						<file id="file-1"/>
						<name>bandicam 2025-06-22 23-18-13-912 - Audio</name>
						<rate>
							<timebase>59</timebase>
							<ntsc>FALSE</ntsc>
						</rate>
						<rate>
							<timebase>59</timebase>
							<ntsc>FALSE</ntsc>
						</rate>
						<duration>0</duration>
						<start>203</start>
						<end>203</end>
						<in>1989</in>
						<out>1989</out>
					</clipitem>
					<clipitem frameBlend="FALSE" id="audioclip-36">
						<file id="file-1"/>
						<name>bandicam 2025-06-22 23-18-13-912 - Audio</name>
						<rate>
							<timebase>59</timebase>
							<ntsc>FALSE</ntsc>
						</rate>
						<rate>
							<timebase>59</timebase>
							<ntsc>FALSE</ntsc>
						</rate>
						<duration>0</duration>
						<start>203</start>
						<end>203</end>
						<in>2031</in>
						<out>2031</out>
					</clipitem>
					<clipitem frameBlend="FALSE" id="audioclip-37">
						<file id="file-1"/>
						<name>bandicam 2025-06-22 23-18-13-912 - Audio</name>
						<rate>
							<timebase>59</timebase>
							<ntsc>FALSE</ntsc>
						</rate>
						<rate>
							<timebase>59</timebase>
							<ntsc>FALSE</ntsc>
						</rate>
						<duration>107</duration>
						<start>203</start>
						<end>310</end>
						<in>2049</in>
						<out>2156</out>
					</clipitem>
					<clipitem frameBlend="FALSE" id="audioclip-38">
						<file id="file-1"/>
						<name>bandicam 2025-06-22 23-18-13-912 - Audio</name>
						<rate>
							<timebase>59</timebase>
							<ntsc>FALSE</ntsc>
						</rate>
						<rate>
							<timebase>59</timebase>
							<ntsc>FALSE</ntsc>
						</rate>
						<duration>0</duration>
						<start>310</start>
						<end>310</end>
						<in>2174</in>
						<out>2174</out>
					</clipitem>
					<clipitem frameBlend="FALSE" id="audioclip-39">
						<file id="file-1"/>
						<name>bandicam 2025-06-22 23-18-13-912 - Audio</name>
						<rate>
							<timebase>59</timebase>
							<ntsc>FALSE</ntsc>
						</rate>
						<rate>
							<timebase>59</timebase>
							<ntsc>FALSE</ntsc>
						</rate>
						<duration>66</duration>
						<start>310</start>
						<end>376</end>
						<in>2192</in>
						<out>2258</out>
					</clipitem>
					<clipitem frameBlend="FALSE" id="audioclip-40">
						<file id="file-1"/>
						<name>bandicam 2025-06-22 23-18-13-912 - Audio</name>
						<rate>
							<timebase>59</timebase>
							<ntsc>FALSE</ntsc>
						</rate>
						<rate>
							<timebase>59</timebase>
							<ntsc>FALSE</ntsc>
						</rate>
						<duration>6</duration>
						<start>376</start>
						<end>382</end>
						<in>2282</in>
						<out>2288</out>
					</clipitem>
					<clipitem frameBlend="FALSE" id="audioclip-41">
						<file id="file-1"/>
						<name>bandicam 2025-06-22 23-18-13-912 - Audio</name>
						<rate>
							<timebase>59</timebase>
							<ntsc>FALSE</ntsc>
						</rate>
						<rate>
							<timebase>59</timebase>
							<ntsc>FALSE</ntsc>
						</rate>
						<duration>0</duration>
						<start>382</start>
						<end>382</end>
						<in>2300</in>
						<out>2300</out>
					</clipitem>
					<clipitem frameBlend="FALSE" id="audioclip-42">
						<file id="file-1"/>
						<name>bandicam 2025-06-22 23-18-13-912 - Audio</name>
						<rate>
							<timebase>59</timebase>
							<ntsc>FALSE</ntsc>
						</rate>
						<rate>
							<timebase>59</timebase>
							<ntsc>FALSE</ntsc>
						</rate>
						<duration>6</duration>
						<start>382</start>
						<end>388</end>
						<in>2323</in>
						<out>2329</out>
					</clipitem>
					<clipitem frameBlend="FALSE" id="audioclip-43">
						<file id="file-1"/>
						<name>bandicam 2025-06-22 23-18-13-912 - Audio</name>
						<rate>
							<timebase>59</timebase>
							<ntsc>FALSE</ntsc>
						</rate>
						<rate>
							<timebase>59</timebase>
							<ntsc>FALSE</ntsc>
						</rate>
						<duration>12</duration>
						<start>388</start>
						<end>400</end>
						<in>2341</in>
						<out>2353</out>
					</clipitem>
					<clipitem frameBlend="FALSE" id="audioclip-44">
						<file id="file-1"/>
						<name>bandicam 2025-06-22 23-18-13-912 - Audio</name>
						<rate>
							<timebase>59</timebase>
							<ntsc>FALSE</ntsc>
						</rate>
						<rate>
							<timebase>59</timebase>
							<ntsc>FALSE</ntsc>
						</rate>
						<duration>0</duration>
						<start>400</start>
						<end>400</end>
						<in>2365</in>
						<out>2365</out>
					</clipitem>
					<clipitem frameBlend="FALSE" id="audioclip-45">
						<file id="file-1"/>
						<name>bandicam 2025-06-22 23-18-13-912 - Audio</name>
						<rate>
							<timebase>59</timebase>
							<ntsc>FALSE</ntsc>
						</rate>
						<rate>
							<timebase>59</timebase>
							<ntsc>FALSE</ntsc>
						</rate>
						<duration>24</duration>
						<start>400</start>
						<end>424</end>
						<in>2383</in>
						<out>2407</out>
					</clipitem>
					<clipitem frameBlend="FALSE" id="audioclip-46">
						<file id="file-1"/>
						<name>bandicam 2025-06-22 23-18-13-912 - Audio</name>
						<rate>
							<timebase>59</timebase>
							<ntsc>FALSE</ntsc>
						</rate>
						<rate>
							<timebase>59</timebase>
							<ntsc>FALSE</ntsc>
						</rate>
						<duration>0</duration>
						<start>424</start>
						<end>424</end>
						<in>2562</in>
						<out>2562</out>
					</clipitem>
					<clipitem frameBlend="FALSE" id="audioclip-47">
						<file id="file-1"/>
						<name>bandicam 2025-06-22 23-18-13-912 - Audio</name>
						<rate>
							<timebase>59</timebase>
							<ntsc>FALSE</ntsc>
						</rate>
						<rate>
							<timebase>59</timebase>
							<ntsc>FALSE</ntsc>
						</rate>
						<duration>0</duration>
						<start>424</start>
						<end>424</end>
						<in>2604</in>
						<out>2604</out>
					</clipitem>
					<clipitem frameBlend="FALSE" id="audioclip-48">
						<file id="file-1"/>
						<name>bandicam 2025-06-22 23-18-13-912 - Audio</name>
						<rate>
							<timebase>59</timebase>
							<ntsc>FALSE</ntsc>
						</rate>
						<rate>
							<timebase>59</timebase>
							<ntsc>FALSE</ntsc>
						</rate>
						<duration>0</duration>
						<start>424</start>
						<end>424</end>
						<in>2628</in>
						<out>2628</out>
					</clipitem>
					<clipitem frameBlend="FALSE" id="audioclip-49">
						<file id="file-1"/>
						<name>bandicam 2025-06-22 23-18-13-912 - Audio</name>
						<rate>
							<timebase>59</timebase>
							<ntsc>FALSE</ntsc>
						</rate>
						<rate>
							<timebase>59</timebase>
							<ntsc>FALSE</ntsc>
						</rate>
						<duration>18</duration>
						<start>424</start>
						<end>442</end>
						<in>2646</in>
						<out>2664</out>
					</clipitem>
					<clipitem frameBlend="FALSE" id="audioclip-50">
						<file id="file-1"/>
						<name>bandicam 2025-06-22 23-18-13-912 - Audio</name>
						<rate>
							<timebase>59</timebase>
							<ntsc>FALSE</ntsc>
						</rate>
						<rate>
							<timebase>59</timebase>
							<ntsc>FALSE</ntsc>
						</rate>
						<duration>0</duration>
						<start>442</start>
						<end>442</end>
						<in>2694</in>
						<out>2694</out>
					</clipitem>
					<clipitem frameBlend="FALSE" id="audioclip-51">
						<file id="file-1"/>
						<name>bandicam 2025-06-22 23-18-13-912 - Audio</name>
						<rate>
							<timebase>59</timebase>
							<ntsc>FALSE</ntsc>
						</rate>
						<rate>
							<timebase>59</timebase>
							<ntsc>FALSE</ntsc>
						</rate>
						<duration>0</duration>
						<start>442</start>
						<end>442</end>
						<in>2766</in>
						<out>2766</out>
					</clipitem>
					<clipitem frameBlend="FALSE" id="audioclip-52">
						<file id="file-1"/>
						<name>bandicam 2025-06-22 23-18-13-912 - Audio</name>
						<rate>
							<timebase>59</timebase>
							<ntsc>FALSE</ntsc>
						</rate>
						<rate>
							<timebase>59</timebase>
							<ntsc>FALSE</ntsc>
						</rate>
						<duration>0</duration>
						<start>442</start>
						<end>442</end>
						<in>2789</in>
						<out>2789</out>
					</clipitem>
					<clipitem frameBlend="FALSE" id="audioclip-53">
						<file id="file-1"/>
						<name>bandicam 2025-06-22 23-18-13-912 - Audio</name>
						<rate>
							<timebase>59</timebase>
							<ntsc>FALSE</ntsc>
						</rate>
						<rate>
							<timebase>59</timebase>
							<ntsc>FALSE</ntsc>
						</rate>
						<duration>0</duration>
						<start>442</start>
						<end>442</end>
						<in>2813</in>
						<out>2813</out>
					</clipitem>
					<clipitem frameBlend="FALSE" id="audioclip-54">
						<file id="file-1"/>
						<name>bandicam 2025-06-22 23-18-13-912 - Audio</name>
						<rate>
							<timebase>59</timebase>
							<ntsc>FALSE</ntsc>
						</rate>
						<rate>
							<timebase>59</timebase>
							<ntsc>FALSE</ntsc>
						</rate>
						<duration>0</duration>
						<start>442</start>
						<end>442</end>
						<in>2867</in>
						<out>2867</out>
					</clipitem>
					<clipitem frameBlend="FALSE" id="audioclip-55">
						<file id="file-1"/>
						<name>bandicam 2025-06-22 23-18-13-912 - Audio</name>
						<rate>
							<timebase>59</timebase>
							<ntsc>FALSE</ntsc>
						</rate>
						<rate>
							<timebase>59</timebase>
							<ntsc>FALSE</ntsc>
						</rate>
						<duration>0</duration>
						<start>442</start>
						<end>442</end>
						<in>2885</in>
						<out>2885</out>
					</clipitem>
					<clipitem frameBlend="FALSE" id="audioclip-56">
						<file id="file-1"/>
						<name>bandicam 2025-06-22 23-18-13-912 - Audio</name>
						<rate>
							<timebase>59</timebase>
							<ntsc>FALSE</ntsc>
						</rate>
						<rate>
							<timebase>59</timebase>
							<ntsc>FALSE</ntsc>
						</rate>
						<duration>0</duration>
						<start>442</start>
						<end>442</end>
						<in>2897</in>
						<out>2897</out>
					</clipitem>
					<clipitem frameBlend="FALSE" id="audioclip-57">
						<file id="file-1"/>
						<name>bandicam 2025-06-22 23-18-13-912 - Audio</name>
						<rate>
							<timebase>59</timebase>
							<ntsc>FALSE</ntsc>
						</rate>
						<rate>
							<timebase>59</timebase>
							<ntsc>FALSE</ntsc>
						</rate>
						<duration>0</duration>
						<start>442</start>
						<end>442</end>
						<in>2915</in>
						<out>2915</out>
					</clipitem>
					<clipitem frameBlend="FALSE" id="audioclip-58">
						<file id="file-1"/>
						<name>bandicam 2025-06-22 23-18-13-912 - Audio</name>
						<rate>
							<timebase>59</timebase>
							<ntsc>FALSE</ntsc>
						</rate>
						<rate>
							<timebase>59</timebase>
							<ntsc>FALSE</ntsc>
						</rate>
						<duration>0</duration>
						<start>442</start>
						<end>442</end>
						<in>2981</in>
						<out>2981</out>
					</clipitem>
					<clipitem frameBlend="FALSE" id="audioclip-59">
						<file id="file-1"/>
						<name>bandicam 2025-06-22 23-18-13-912 - Audio</name>
						<rate>
							<timebase>59</timebase>
							<ntsc>FALSE</ntsc>
						</rate>
						<rate>
							<timebase>59</timebase>
							<ntsc>FALSE</ntsc>
						</rate>
						<duration>0</duration>
						<start>442</start>
						<end>442</end>
						<in>3011</in>
						<out>3011</out>
					</clipitem>
					<clipitem frameBlend="FALSE" id="audioclip-60">
						<file id="file-1"/>
						<name>bandicam 2025-06-22 23-18-13-912 - Audio</name>
						<rate>
							<timebase>59</timebase>
							<ntsc>FALSE</ntsc>
						</rate>
						<rate>
							<timebase>59</timebase>
							<ntsc>FALSE</ntsc>
						</rate>
						<duration>6</duration>
						<start>442</start>
						<end>448</end>
						<in>3040</in>
						<out>3046</out>
					</clipitem>
					<clipitem frameBlend="FALSE" id="audioclip-61">
						<file id="file-1"/>
						<name>bandicam 2025-06-22 23-18-13-912 - Audio</name>
						<rate>
							<timebase>59</timebase>
							<ntsc>FALSE</ntsc>
						</rate>
						<rate>
							<timebase>59</timebase>
							<ntsc>FALSE</ntsc>
						</rate>
						<duration>18</duration>
						<start>448</start>
						<end>466</end>
						<in>3058</in>
						<out>3076</out>
					</clipitem>
					<clipitem frameBlend="FALSE" id="audioclip-62">
						<file id="file-1"/>
						<name>bandicam 2025-06-22 23-18-13-912 - Audio</name>
						<rate>
							<timebase>59</timebase>
							<ntsc>FALSE</ntsc>
						</rate>
						<rate>
							<timebase>59</timebase>
							<ntsc>FALSE</ntsc>
						</rate>
						<duration>0</duration>
						<start>466</start>
						<end>466</end>
						<in>3190</in>
						<out>3190</out>
					</clipitem>
					<clipitem frameBlend="FALSE" id="audioclip-63">
						<file id="file-1"/>
						<name>bandicam 2025-06-22 23-18-13-912 - Audio</name>
						<rate>
							<timebase>59</timebase>
							<ntsc>FALSE</ntsc>
						</rate>
						<rate>
							<timebase>59</timebase>
							<ntsc>FALSE</ntsc>
						</rate>
						<duration>0</duration>
						<start>466</start>
						<end>466</end>
						<in>3261</in>
						<out>3261</out>
					</clipitem>
					<clipitem frameBlend="FALSE" id="audioclip-64">
						<file id="file-1"/>
						<name>bandicam 2025-06-22 23-18-13-912 - Audio</name>
						<rate>
							<timebase>59</timebase>
							<ntsc>FALSE</ntsc>
						</rate>
						<rate>
							<timebase>59</timebase>
							<ntsc>FALSE</ntsc>
						</rate>
						<duration>0</duration>
						<start>466</start>
						<end>466</end>
						<in>3321</in>
						<out>3321</out>
					</clipitem>
					<clipitem frameBlend="FALSE" id="audioclip-65">
						<file id="file-1"/>
						<name>bandicam 2025-06-22 23-18-13-912 - Audio</name>
						<rate>
							<timebase>59</timebase>
							<ntsc>FALSE</ntsc>
						</rate>
						<rate>
							<timebase>59</timebase>
							<ntsc>FALSE</ntsc>
						</rate>
						<duration>6</duration>
						<start>466</start>
						<end>472</end>
						<in>3369</in>
						<out>3375</out>
					</clipitem>
					<clipitem frameBlend="FALSE" id="audioclip-66">
						<file id="file-1"/>
						<name>bandicam 2025-06-22 23-18-13-912 - Audio</name>
						<rate>
							<timebase>59</timebase>
							<ntsc>FALSE</ntsc>
						</rate>
						<rate>
							<timebase>59</timebase>
							<ntsc>FALSE</ntsc>
						</rate>
						<duration>12</duration>
						<start>472</start>
						<end>484</end>
						<in>3387</in>
						<out>3399</out>
					</clipitem>
					<clipitem frameBlend="FALSE" id="audioclip-67">
						<file id="file-1"/>
						<name>bandicam 2025-06-22 23-18-13-912 - Audio</name>
						<rate>
							<timebase>59</timebase>
							<ntsc>FALSE</ntsc>
						</rate>
						<rate>
							<timebase>59</timebase>
							<ntsc>FALSE</ntsc>
						</rate>
						<duration>0</duration>
						<start>484</start>
						<end>484</end>
						<in>3512</in>
						<out>3512</out>
					</clipitem>
					<clipitem frameBlend="FALSE" id="audioclip-68">
						<file id="file-1"/>
						<name>bandicam 2025-06-22 23-18-13-912 - Audio</name>
						<rate>
							<timebase>59</timebase>
							<ntsc>FALSE</ntsc>
						</rate>
						<rate>
							<timebase>59</timebase>
							<ntsc>FALSE</ntsc>
						</rate>
						<duration>0</duration>
						<start>484</start>
						<end>484</end>
						<in>3560</in>
						<out>3560</out>
					</clipitem>
					<clipitem frameBlend="FALSE" id="audioclip-69">
						<file id="file-1"/>
						<name>bandicam 2025-06-22 23-18-13-912 - Audio</name>
						<rate>
							<timebase>59</timebase>
							<ntsc>FALSE</ntsc>
						</rate>
						<rate>
							<timebase>59</timebase>
							<ntsc>FALSE</ntsc>
						</rate>
						<duration>18</duration>
						<start>484</start>
						<end>502</end>
						<in>3578</in>
						<out>3596</out>
					</clipitem>
					<clipitem frameBlend="FALSE" id="audioclip-70">
						<file id="file-1"/>
						<name>bandicam 2025-06-22 23-18-13-912 - Audio</name>
						<rate>
							<timebase>59</timebase>
							<ntsc>FALSE</ntsc>
						</rate>
						<rate>
							<timebase>59</timebase>
							<ntsc>FALSE</ntsc>
						</rate>
						<duration>0</duration>
						<start>502</start>
						<end>502</end>
						<in>3620</in>
						<out>3620</out>
					</clipitem>
					<clipitem frameBlend="FALSE" id="audioclip-71">
						<file id="file-1"/>
						<name>bandicam 2025-06-22 23-18-13-912 - Audio</name>
						<rate>
							<timebase>59</timebase>
							<ntsc>FALSE</ntsc>
						</rate>
						<rate>
							<timebase>59</timebase>
							<ntsc>FALSE</ntsc>
						</rate>
						<duration>0</duration>
						<start>502</start>
						<end>502</end>
						<in>3638</in>
						<out>3638</out>
					</clipitem>
					<clipitem frameBlend="FALSE" id="audioclip-72">
						<file id="file-1"/>
						<name>bandicam 2025-06-22 23-18-13-912 - Audio</name>
						<rate>
							<timebase>59</timebase>
							<ntsc>FALSE</ntsc>
						</rate>
						<rate>
							<timebase>59</timebase>
							<ntsc>FALSE</ntsc>
						</rate>
						<duration>0</duration>
						<start>502</start>
						<end>502</end>
						<in>3656</in>
						<out>3656</out>
					</clipitem>
					<clipitem frameBlend="FALSE" id="audioclip-73">
						<file id="file-1"/>
						<name>bandicam 2025-06-22 23-18-13-912 - Audio</name>
						<rate>
							<timebase>59</timebase>
							<ntsc>FALSE</ntsc>
						</rate>
						<rate>
							<timebase>59</timebase>
							<ntsc>FALSE</ntsc>
						</rate>
						<duration>0</duration>
						<start>502</start>
						<end>502</end>
						<in>3674</in>
						<out>3674</out>
					</clipitem>
					<clipitem frameBlend="FALSE" id="audioclip-74">
						<file id="file-1"/>
						<name>bandicam 2025-06-22 23-18-13-912 - Audio</name>
						<rate>
							<timebase>59</timebase>
							<ntsc>FALSE</ntsc>
						</rate>
						<rate>
							<timebase>59</timebase>
							<ntsc>FALSE</ntsc>
						</rate>
						<duration>12</duration>
						<start>502</start>
						<end>514</end>
						<in>3692</in>
						<out>3704</out>
					</clipitem>
					<clipitem frameBlend="FALSE" id="audioclip-75">
						<file id="file-1"/>
						<name>bandicam 2025-06-22 23-18-13-912 - Audio</name>
						<rate>
							<timebase>59</timebase>
							<ntsc>FALSE</ntsc>
						</rate>
						<rate>
							<timebase>59</timebase>
							<ntsc>FALSE</ntsc>
						</rate>
						<duration>0</duration>
						<start>514</start>
						<end>514</end>
						<in>3745</in>
						<out>3745</out>
					</clipitem>
					<clipitem frameBlend="FALSE" id="audioclip-76">
						<file id="file-1"/>
						<name>bandicam 2025-06-22 23-18-13-912 - Audio</name>
						<rate>
							<timebase>59</timebase>
							<ntsc>FALSE</ntsc>
						</rate>
						<rate>
							<timebase>59</timebase>
							<ntsc>FALSE</ntsc>
						</rate>
						<duration>0</duration>
						<start>514</start>
						<end>514</end>
						<in>3841</in>
						<out>3841</out>
					</clipitem>
					<clipitem frameBlend="FALSE" id="audioclip-77">
						<file id="file-1"/>
						<name>bandicam 2025-06-22 23-18-13-912 - Audio</name>
						<rate>
							<timebase>59</timebase>
							<ntsc>FALSE</ntsc>
						</rate>
						<rate>
							<timebase>59</timebase>
							<ntsc>FALSE</ntsc>
						</rate>
						<duration>0</duration>
						<start>514</start>
						<end>514</end>
						<in>3913</in>
						<out>3913</out>
					</clipitem>
					<clipitem frameBlend="FALSE" id="audioclip-78">
						<file id="file-1"/>
						<name>bandicam 2025-06-22 23-18-13-912 - Audio</name>
						<rate>
							<timebase>59</timebase>
							<ntsc>FALSE</ntsc>
						</rate>
						<rate>
							<timebase>59</timebase>
							<ntsc>FALSE</ntsc>
						</rate>
						<duration>0</duration>
						<start>514</start>
						<end>514</end>
						<in>3942</in>
						<out>3942</out>
					</clipitem>
					<clipitem frameBlend="FALSE" id="audioclip-79">
						<file id="file-1"/>
						<name>bandicam 2025-06-22 23-18-13-912 - Audio</name>
						<rate>
							<timebase>59</timebase>
							<ntsc>FALSE</ntsc>
						</rate>
						<rate>
							<timebase>59</timebase>
							<ntsc>FALSE</ntsc>
						</rate>
						<duration>66</duration>
						<start>514</start>
						<end>580</end>
						<in>3960</in>
						<out>4026</out>
					</clipitem>
					<clipitem frameBlend="FALSE" id="audioclip-80">
						<file id="file-1"/>
						<name>bandicam 2025-06-22 23-18-13-912 - Audio</name>
						<rate>
							<timebase>59</timebase>
							<ntsc>FALSE</ntsc>
						</rate>
						<rate>
							<timebase>59</timebase>
							<ntsc>FALSE</ntsc>
						</rate>
						<duration>0</duration>
						<start>580</start>
						<end>580</end>
						<in>4044</in>
						<out>4044</out>
					</clipitem>
					<clipitem frameBlend="FALSE" id="audioclip-81">
						<file id="file-1"/>
						<name>bandicam 2025-06-22 23-18-13-912 - Audio</name>
						<rate>
							<timebase>59</timebase>
							<ntsc>FALSE</ntsc>
						</rate>
						<rate>
							<timebase>59</timebase>
							<ntsc>FALSE</ntsc>
						</rate>
						<duration>0</duration>
						<start>580</start>
						<end>580</end>
						<in>4056</in>
						<out>4056</out>
					</clipitem>
					<clipitem frameBlend="FALSE" id="audioclip-82">
						<file id="file-1"/>
						<name>bandicam 2025-06-22 23-18-13-912 - Audio</name>
						<rate>
							<timebase>59</timebase>
							<ntsc>FALSE</ntsc>
						</rate>
						<rate>
							<timebase>59</timebase>
							<ntsc>FALSE</ntsc>
						</rate>
						<duration>0</duration>
						<start>580</start>
						<end>580</end>
						<in>4068</in>
						<out>4068</out>
					</clipitem>
					<clipitem frameBlend="FALSE" id="audioclip-83">
						<file id="file-1"/>
						<name>bandicam 2025-06-22 23-18-13-912 - Audio</name>
						<rate>
							<timebase>59</timebase>
							<ntsc>FALSE</ntsc>
						</rate>
						<rate>
							<timebase>59</timebase>
							<ntsc>FALSE</ntsc>
						</rate>
						<duration>0</duration>
						<start>580</start>
						<end>580</end>
						<in>4128</in>
						<out>4128</out>
					</clipitem>
					<clipitem frameBlend="FALSE" id="audioclip-84">
						<file id="file-1"/>
						<name>bandicam 2025-06-22 23-18-13-912 - Audio</name>
						<rate>
							<timebase>59</timebase>
							<ntsc>FALSE</ntsc>
						</rate>
						<rate>
							<timebase>59</timebase>
							<ntsc>FALSE</ntsc>
						</rate>
						<duration>0</duration>
						<start>580</start>
						<end>580</end>
						<in>4152</in>
						<out>4152</out>
					</clipitem>
					<clipitem frameBlend="FALSE" id="audioclip-85">
						<file id="file-1"/>
						<name>bandicam 2025-06-22 23-18-13-912 - Audio</name>
						<rate>
							<timebase>59</timebase>
							<ntsc>FALSE</ntsc>
						</rate>
						<rate>
							<timebase>59</timebase>
							<ntsc>FALSE</ntsc>
						</rate>
						<duration>0</duration>
						<start>580</start>
						<end>580</end>
						<in>4223</in>
						<out>4223</out>
					</clipitem>
					<clipitem frameBlend="FALSE" id="audioclip-86">
						<file id="file-1"/>
						<name>bandicam 2025-06-22 23-18-13-912 - Audio</name>
						<rate>
							<timebase>59</timebase>
							<ntsc>FALSE</ntsc>
						</rate>
						<rate>
							<timebase>59</timebase>
							<ntsc>FALSE</ntsc>
						</rate>
						<duration>0</duration>
						<start>580</start>
						<end>580</end>
						<in>4492</in>
						<out>4492</out>
					</clipitem>
					<clipitem frameBlend="FALSE" id="audioclip-87">
						<file id="file-1"/>
						<name>bandicam 2025-06-22 23-18-13-912 - Audio</name>
						<rate>
							<timebase>59</timebase>
							<ntsc>FALSE</ntsc>
						</rate>
						<rate>
							<timebase>59</timebase>
							<ntsc>FALSE</ntsc>
						</rate>
						<duration>0</duration>
						<start>580</start>
						<end>580</end>
						<in>4570</in>
						<out>4570</out>
					</clipitem>
					<clipitem frameBlend="FALSE" id="audioclip-88">
						<file id="file-1"/>
						<name>bandicam 2025-06-22 23-18-13-912 - Audio</name>
						<rate>
							<timebase>59</timebase>
							<ntsc>FALSE</ntsc>
						</rate>
						<rate>
							<timebase>59</timebase>
							<ntsc>FALSE</ntsc>
						</rate>
						<duration>30</duration>
						<start>580</start>
						<end>610</end>
						<in>4588</in>
						<out>4618</out>
					</clipitem>
					<clipitem frameBlend="FALSE" id="audioclip-89">
						<file id="file-1"/>
						<name>bandicam 2025-06-22 23-18-13-912 - Audio</name>
						<rate>
							<timebase>59</timebase>
							<ntsc>FALSE</ntsc>
						</rate>
						<rate>
							<timebase>59</timebase>
							<ntsc>FALSE</ntsc>
						</rate>
						<duration>0</duration>
						<start>610</start>
						<end>610</end>
						<in>4659</in>
						<out>4659</out>
					</clipitem>
					<clipitem frameBlend="FALSE" id="audioclip-90">
						<file id="file-1"/>
						<name>bandicam 2025-06-22 23-18-13-912 - Audio</name>
						<rate>
							<timebase>59</timebase>
							<ntsc>FALSE</ntsc>
						</rate>
						<rate>
							<timebase>59</timebase>
							<ntsc>FALSE</ntsc>
						</rate>
						<duration>0</duration>
						<start>610</start>
						<end>610</end>
						<in>4779</in>
						<out>4779</out>
					</clipitem>
					<clipitem frameBlend="FALSE" id="audioclip-91">
						<file id="file-1"/>
						<name>bandicam 2025-06-22 23-18-13-912 - Audio</name>
						<rate>
							<timebase>59</timebase>
							<ntsc>FALSE</ntsc>
						</rate>
						<rate>
							<timebase>59</timebase>
							<ntsc>FALSE</ntsc>
						</rate>
						<duration>6</duration>
						<start>610</start>
						<end>616</end>
						<in>4857</in>
						<out>4863</out>
					</clipitem>
					<clipitem frameBlend="FALSE" id="audioclip-92">
						<file id="file-1"/>
						<name>bandicam 2025-06-22 23-18-13-912 - Audio</name>
						<rate>
							<timebase>59</timebase>
							<ntsc>FALSE</ntsc>
						</rate>
						<rate>
							<timebase>59</timebase>
							<ntsc>FALSE</ntsc>
						</rate>
						<duration>0</duration>
						<start>616</start>
						<end>616</end>
						<in>4886</in>
						<out>4886</out>
					</clipitem>
					<clipitem frameBlend="FALSE" id="audioclip-93">
						<file id="file-1"/>
						<name>bandicam 2025-06-22 23-18-13-912 - Audio</name>
						<rate>
							<timebase>59</timebase>
							<ntsc>FALSE</ntsc>
						</rate>
						<rate>
							<timebase>59</timebase>
							<ntsc>FALSE</ntsc>
						</rate>
						<duration>6</duration>
						<start>616</start>
						<end>622</end>
						<in>4934</in>
						<out>4940</out>
					</clipitem>
					<clipitem frameBlend="FALSE" id="audioclip-94">
						<file id="file-1"/>
						<name>bandicam 2025-06-22 23-18-13-912 - Audio</name>
						<rate>
							<timebase>59</timebase>
							<ntsc>FALSE</ntsc>
						</rate>
						<rate>
							<timebase>59</timebase>
							<ntsc>FALSE</ntsc>
						</rate>
						<duration>0</duration>
						<start>622</start>
						<end>622</end>
						<in>4976</in>
						<out>4976</out>
					</clipitem>
					<clipitem frameBlend="FALSE" id="audioclip-95">
						<file id="file-1"/>
						<name>bandicam 2025-06-22 23-18-13-912 - Audio</name>
						<rate>
							<timebase>59</timebase>
							<ntsc>FALSE</ntsc>
						</rate>
						<rate>
							<timebase>59</timebase>
							<ntsc>FALSE</ntsc>
						</rate>
						<duration>0</duration>
						<start>622</start>
						<end>622</end>
						<in>5018</in>
						<out>5018</out>
					</clipitem>
					<clipitem frameBlend="FALSE" id="audioclip-96">
						<file id="file-1"/>
						<name>bandicam 2025-06-22 23-18-13-912 - Audio</name>
						<rate>
							<timebase>59</timebase>
							<ntsc>FALSE</ntsc>
						</rate>
						<rate>
							<timebase>59</timebase>
							<ntsc>FALSE</ntsc>
						</rate>
						<duration>6</duration>
						<start>622</start>
						<end>628</end>
						<in>5137</in>
						<out>5143</out>
					</clipitem>
					<clipitem frameBlend="FALSE" id="audioclip-97">
						<file id="file-1"/>
						<name>bandicam 2025-06-22 23-18-13-912 - Audio</name>
						<rate>
							<timebase>59</timebase>
							<ntsc>FALSE</ntsc>
						</rate>
						<rate>
							<timebase>59</timebase>
							<ntsc>FALSE</ntsc>
						</rate>
						<duration>6</duration>
						<start>628</start>
						<end>634</end>
						<in>5155</in>
						<out>5161</out>
					</clipitem>
					<clipitem frameBlend="FALSE" id="audioclip-98">
						<file id="file-1"/>
						<name>bandicam 2025-06-22 23-18-13-912 - Audio</name>
						<rate>
							<timebase>59</timebase>
							<ntsc>FALSE</ntsc>
						</rate>
						<rate>
							<timebase>59</timebase>
							<ntsc>FALSE</ntsc>
						</rate>
						<duration>0</duration>
						<start>634</start>
						<end>634</end>
						<in>5197</in>
						<out>5197</out>
					</clipitem>
					<clipitem frameBlend="FALSE" id="audioclip-99">
						<file id="file-1"/>
						<name>bandicam 2025-06-22 23-18-13-912 - Audio</name>
						<rate>
							<timebase>59</timebase>
							<ntsc>FALSE</ntsc>
						</rate>
						<rate>
							<timebase>59</timebase>
							<ntsc>FALSE</ntsc>
						</rate>
						<duration>0</duration>
						<start>634</start>
						<end>634</end>
						<in>5227</in>
						<out>5227</out>
					</clipitem>
					<clipitem frameBlend="FALSE" id="audioclip-100">
						<file id="file-1"/>
						<name>bandicam 2025-06-22 23-18-13-912 - Audio</name>
						<rate>
							<timebase>59</timebase>
							<ntsc>FALSE</ntsc>
						</rate>
						<rate>
							<timebase>59</timebase>
							<ntsc>FALSE</ntsc>
						</rate>
						<duration>0</duration>
						<start>634</start>
						<end>634</end>
						<in>5257</in>
						<out>5257</out>
					</clipitem>
					<clipitem frameBlend="FALSE" id="audioclip-101">
						<file id="file-1"/>
						<name>bandicam 2025-06-22 23-18-13-912 - Audio</name>
						<rate>
							<timebase>59</timebase>
							<ntsc>FALSE</ntsc>
						</rate>
						<rate>
							<timebase>59</timebase>
							<ntsc>FALSE</ntsc>
						</rate>
						<duration>0</duration>
						<start>634</start>
						<end>634</end>
						<in>5281</in>
						<out>5281</out>
					</clipitem>
					<clipitem frameBlend="FALSE" id="audioclip-102">
						<file id="file-1"/>
						<name>bandicam 2025-06-22 23-18-13-912 - Audio</name>
						<rate>
							<timebase>59</timebase>
							<ntsc>FALSE</ntsc>
						</rate>
						<rate>
							<timebase>59</timebase>
							<ntsc>FALSE</ntsc>
						</rate>
						<duration>0</duration>
						<start>634</start>
						<end>634</end>
						<in>5305</in>
						<out>5305</out>
					</clipitem>
					<clipitem frameBlend="FALSE" id="audioclip-103">
						<file id="file-1"/>
						<name>bandicam 2025-06-22 23-18-13-912 - Audio</name>
						<rate>
							<timebase>59</timebase>
							<ntsc>FALSE</ntsc>
						</rate>
						<rate>
							<timebase>59</timebase>
							<ntsc>FALSE</ntsc>
						</rate>
						<duration>0</duration>
						<start>634</start>
						<end>634</end>
						<in>5340</in>
						<out>5340</out>
					</clipitem>
					<clipitem frameBlend="FALSE" id="audioclip-104">
						<file id="file-1"/>
						<name>bandicam 2025-06-22 23-18-13-912 - Audio</name>
						<rate>
							<timebase>59</timebase>
							<ntsc>FALSE</ntsc>
						</rate>
						<rate>
							<timebase>59</timebase>
							<ntsc>FALSE</ntsc>
						</rate>
						<duration>0</duration>
						<start>634</start>
						<end>634</end>
						<in>5394</in>
						<out>5394</out>
					</clipitem>
					<clipitem frameBlend="FALSE" id="audioclip-105">
						<file id="file-1"/>
						<name>bandicam 2025-06-22 23-18-13-912 - Audio</name>
						<rate>
							<timebase>59</timebase>
							<ntsc>FALSE</ntsc>
						</rate>
						<rate>
							<timebase>59</timebase>
							<ntsc>FALSE</ntsc>
						</rate>
						<duration>60</duration>
						<start>634</start>
						<end>694</end>
						<in>5412</in>
						<out>5472</out>
					</clipitem>
					<clipitem frameBlend="FALSE" id="audioclip-106">
						<file id="file-1"/>
						<name>bandicam 2025-06-22 23-18-13-912 - Audio</name>
						<rate>
							<timebase>59</timebase>
							<ntsc>FALSE</ntsc>
						</rate>
						<rate>
							<timebase>59</timebase>
							<ntsc>FALSE</ntsc>
						</rate>
						<duration>6</duration>
						<start>694</start>
						<end>700</end>
						<in>5496</in>
						<out>5502</out>
					</clipitem>
					<clipitem frameBlend="FALSE" id="audioclip-107">
						<file id="file-1"/>
						<name>bandicam 2025-06-22 23-18-13-912 - Audio</name>
						<rate>
							<timebase>59</timebase>
							<ntsc>FALSE</ntsc>
						</rate>
						<rate>
							<timebase>59</timebase>
							<ntsc>FALSE</ntsc>
						</rate>
						<duration>6</duration>
						<start>700</start>
						<end>706</end>
						<in>5514</in>
						<out>5520</out>
					</clipitem>
					<clipitem frameBlend="FALSE" id="audioclip-108">
						<file id="file-1"/>
						<name>bandicam 2025-06-22 23-18-13-912 - Audio</name>
						<rate>
							<timebase>59</timebase>
							<ntsc>FALSE</ntsc>
						</rate>
						<rate>
							<timebase>59</timebase>
							<ntsc>FALSE</ntsc>
						</rate>
						<duration>0</duration>
						<start>706</start>
						<end>706</end>
						<in>5573</in>
						<out>5573</out>
					</clipitem>
					<clipitem frameBlend="FALSE" id="audioclip-109">
						<file id="file-1"/>
						<name>bandicam 2025-06-22 23-18-13-912 - Audio</name>
						<rate>
							<timebase>59</timebase>
							<ntsc>FALSE</ntsc>
						</rate>
						<rate>
							<timebase>59</timebase>
							<ntsc>FALSE</ntsc>
						</rate>
						<duration>0</duration>
						<start>706</start>
						<end>706</end>
						<in>5621</in>
						<out>5621</out>
					</clipitem>
					<clipitem frameBlend="FALSE" id="audioclip-110">
						<file id="file-1"/>
						<name>bandicam 2025-06-22 23-18-13-912 - Audio</name>
						<rate>
							<timebase>59</timebase>
							<ntsc>FALSE</ntsc>
						</rate>
						<rate>
							<timebase>59</timebase>
							<ntsc>FALSE</ntsc>
						</rate>
						<duration>0</duration>
						<start>706</start>
						<end>706</end>
						<in>5639</in>
						<out>5639</out>
					</clipitem>
					<clipitem frameBlend="FALSE" id="audioclip-111">
						<file id="file-1"/>
						<name>bandicam 2025-06-22 23-18-13-912 - Audio</name>
						<rate>
							<timebase>59</timebase>
							<ntsc>FALSE</ntsc>
						</rate>
						<rate>
							<timebase>59</timebase>
							<ntsc>FALSE</ntsc>
						</rate>
						<duration>6</duration>
						<start>706</start>
						<end>712</end>
						<in>5729</in>
						<out>5735</out>
					</clipitem>
					<clipitem frameBlend="FALSE" id="audioclip-112">
						<file id="file-1"/>
						<name>bandicam 2025-06-22 23-18-13-912 - Audio</name>
						<rate>
							<timebase>59</timebase>
							<ntsc>FALSE</ntsc>
						</rate>
						<rate>
							<timebase>59</timebase>
							<ntsc>FALSE</ntsc>
						</rate>
						<duration>0</duration>
						<start>712</start>
						<end>712</end>
						<in>5759</in>
						<out>5759</out>
					</clipitem>
					<clipitem frameBlend="FALSE" id="audioclip-113">
						<file id="file-1"/>
						<name>bandicam 2025-06-22 23-18-13-912 - Audio</name>
						<rate>
							<timebase>59</timebase>
							<ntsc>FALSE</ntsc>
						</rate>
						<rate>
							<timebase>59</timebase>
							<ntsc>FALSE</ntsc>
						</rate>
						<duration>0</duration>
						<start>712</start>
						<end>712</end>
						<in>5818</in>
						<out>5818</out>
					</clipitem>
					<clipitem frameBlend="FALSE" id="audioclip-114">
						<file id="file-1"/>
						<name>bandicam 2025-06-22 23-18-13-912 - Audio</name>
						<rate>
							<timebase>59</timebase>
							<ntsc>FALSE</ntsc>
						</rate>
						<rate>
							<timebase>59</timebase>
							<ntsc>FALSE</ntsc>
						</rate>
						<duration>0</duration>
						<start>712</start>
						<end>712</end>
						<in>5854</in>
						<out>5854</out>
					</clipitem>
					<clipitem frameBlend="FALSE" id="audioclip-115">
						<file id="file-1"/>
						<name>bandicam 2025-06-22 23-18-13-912 - Audio</name>
						<rate>
							<timebase>59</timebase>
							<ntsc>FALSE</ntsc>
						</rate>
						<rate>
							<timebase>59</timebase>
							<ntsc>FALSE</ntsc>
						</rate>
						<duration>0</duration>
						<start>712</start>
						<end>712</end>
						<in>5878</in>
						<out>5878</out>
					</clipitem>
					<clipitem frameBlend="FALSE" id="audioclip-116">
						<file id="file-1"/>
						<name>bandicam 2025-06-22 23-18-13-912 - Audio</name>
						<rate>
							<timebase>59</timebase>
							<ntsc>FALSE</ntsc>
						</rate>
						<rate>
							<timebase>59</timebase>
							<ntsc>FALSE</ntsc>
						</rate>
						<duration>90</duration>
						<start>712</start>
						<end>802</end>
						<in>5896</in>
						<out>5986</out>
					</clipitem>
					<clipitem frameBlend="FALSE" id="audioclip-117">
						<file id="file-1"/>
						<name>bandicam 2025-06-22 23-18-13-912 - Audio</name>
						<rate>
							<timebase>59</timebase>
							<ntsc>FALSE</ntsc>
						</rate>
						<rate>
							<timebase>59</timebase>
							<ntsc>FALSE</ntsc>
						</rate>
						<duration>0</duration>
						<start>802</start>
						<end>802</end>
						<in>6010</in>
						<out>6010</out>
					</clipitem>
					<clipitem frameBlend="FALSE" id="audioclip-118">
						<file id="file-1"/>
						<name>bandicam 2025-06-22 23-18-13-912 - Audio</name>
						<rate>
							<timebase>59</timebase>
							<ntsc>FALSE</ntsc>
						</rate>
						<rate>
							<timebase>59</timebase>
							<ntsc>FALSE</ntsc>
						</rate>
						<duration>6</duration>
						<start>802</start>
						<end>808</end>
						<in>6027</in>
						<out>6033</out>
					</clipitem>
					<clipitem frameBlend="FALSE" id="audioclip-119">
						<file id="file-1"/>
						<name>bandicam 2025-06-22 23-18-13-912 - Audio</name>
						<rate>
							<timebase>59</timebase>
							<ntsc>FALSE</ntsc>
						</rate>
						<rate>
							<timebase>59</timebase>
							<ntsc>FALSE</ntsc>
						</rate>
						<duration>0</duration>
						<start>808</start>
						<end>808</end>
						<in>6099</in>
						<out>6099</out>
					</clipitem>
					<clipitem frameBlend="FALSE" id="audioclip-120">
						<file id="file-1"/>
						<name>bandicam 2025-06-22 23-18-13-912 - Audio</name>
						<rate>
							<timebase>59</timebase>
							<ntsc>FALSE</ntsc>
						</rate>
						<rate>
							<timebase>59</timebase>
							<ntsc>FALSE</ntsc>
						</rate>
						<duration>0</duration>
						<start>808</start>
						<end>808</end>
						<in>6159</in>
						<out>6159</out>
					</clipitem>
					<clipitem frameBlend="FALSE" id="audioclip-121">
						<file id="file-1"/>
						<name>bandicam 2025-06-22 23-18-13-912 - Audio</name>
						<rate>
							<timebase>59</timebase>
							<ntsc>FALSE</ntsc>
						</rate>
						<rate>
							<timebase>59</timebase>
							<ntsc>FALSE</ntsc>
						</rate>
						<duration>0</duration>
						<start>808</start>
						<end>808</end>
						<in>6213</in>
						<out>6213</out>
					</clipitem>
					<clipitem frameBlend="FALSE" id="audioclip-122">
						<file id="file-1"/>
						<name>bandicam 2025-06-22 23-18-13-912 - Audio</name>
						<rate>
							<timebase>59</timebase>
							<ntsc>FALSE</ntsc>
						</rate>
						<rate>
							<timebase>59</timebase>
							<ntsc>FALSE</ntsc>
						</rate>
						<duration>12</duration>
						<start>808</start>
						<end>820</end>
						<in>6231</in>
						<out>6243</out>
					</clipitem>
					<clipitem frameBlend="FALSE" id="audioclip-123">
						<file id="file-1"/>
						<name>bandicam 2025-06-22 23-18-13-912 - Audio</name>
						<rate>
							<timebase>59</timebase>
							<ntsc>FALSE</ntsc>
						</rate>
						<rate>
							<timebase>59</timebase>
							<ntsc>FALSE</ntsc>
						</rate>
						<duration>0</duration>
						<start>820</start>
						<end>820</end>
						<in>6260</in>
						<out>6260</out>
					</clipitem>
					<clipitem frameBlend="FALSE" id="audioclip-124">
						<file id="file-1"/>
						<name>bandicam 2025-06-22 23-18-13-912 - Audio</name>
						<rate>
							<timebase>59</timebase>
							<ntsc>FALSE</ntsc>
						</rate>
						<rate>
							<timebase>59</timebase>
							<ntsc>FALSE</ntsc>
						</rate>
						<duration>18</duration>
						<start>820</start>
						<end>838</end>
						<in>6278</in>
						<out>6296</out>
					</clipitem>
					<clipitem frameBlend="FALSE" id="audioclip-125">
						<file id="file-1"/>
						<name>bandicam 2025-06-22 23-18-13-912 - Audio</name>
						<rate>
							<timebase>59</timebase>
							<ntsc>FALSE</ntsc>
						</rate>
						<rate>
							<timebase>59</timebase>
							<ntsc>FALSE</ntsc>
						</rate>
						<duration>12</duration>
						<start>838</start>
						<end>850</end>
						<in>6308</in>
						<out>6320</out>
					</clipitem>
					<clipitem frameBlend="FALSE" id="audioclip-126">
						<file id="file-1"/>
						<name>bandicam 2025-06-22 23-18-13-912 - Audio</name>
						<rate>
							<timebase>59</timebase>
							<ntsc>FALSE</ntsc>
						</rate>
						<rate>
							<timebase>59</timebase>
							<ntsc>FALSE</ntsc>
						</rate>
						<duration>0</duration>
						<start>850</start>
						<end>850</end>
						<in>6350</in>
						<out>6350</out>
					</clipitem>
					<clipitem frameBlend="FALSE" id="audioclip-127">
						<file id="file-1"/>
						<name>bandicam 2025-06-22 23-18-13-912 - Audio</name>
						<rate>
							<timebase>59</timebase>
							<ntsc>FALSE</ntsc>
						</rate>
						<rate>
							<timebase>59</timebase>
							<ntsc>FALSE</ntsc>
						</rate>
						<duration>0</duration>
						<start>850</start>
						<end>850</end>
						<in>6362</in>
						<out>6362</out>
					</clipitem>
					<clipitem frameBlend="FALSE" id="audioclip-128">
						<file id="file-1"/>
						<name>bandicam 2025-06-22 23-18-13-912 - Audio</name>
						<rate>
							<timebase>59</timebase>
							<ntsc>FALSE</ntsc>
						</rate>
						<rate>
							<timebase>59</timebase>
							<ntsc>FALSE</ntsc>
						</rate>
						<duration>24</duration>
						<start>850</start>
						<end>874</end>
						<in>6380</in>
						<out>6404</out>
					</clipitem>
					<clipitem frameBlend="FALSE" id="audioclip-129">
						<file id="file-1"/>
						<name>bandicam 2025-06-22 23-18-13-912 - Audio</name>
						<rate>
							<timebase>59</timebase>
							<ntsc>FALSE</ntsc>
						</rate>
						<rate>
							<timebase>59</timebase>
							<ntsc>FALSE</ntsc>
						</rate>
						<duration>30</duration>
						<start>874</start>
						<end>904</end>
						<in>6422</in>
						<out>6452</out>
					</clipitem>
					<clipitem frameBlend="FALSE" id="audioclip-130">
						<file id="file-1"/>
						<name>bandicam 2025-06-22 23-18-13-912 - Audio</name>
						<rate>
							<timebase>59</timebase>
							<ntsc>FALSE</ntsc>
						</rate>
						<rate>
							<timebase>59</timebase>
							<ntsc>FALSE</ntsc>
						</rate>
						<duration>0</duration>
						<start>904</start>
						<end>904</end>
						<in>6464</in>
						<out>6464</out>
					</clipitem>
					<clipitem frameBlend="FALSE" id="audioclip-131">
						<file id="file-1"/>
						<name>bandicam 2025-06-22 23-18-13-912 - Audio</name>
						<rate>
							<timebase>59</timebase>
							<ntsc>FALSE</ntsc>
						</rate>
						<rate>
							<timebase>59</timebase>
							<ntsc>FALSE</ntsc>
						</rate>
						<duration>0</duration>
						<start>904</start>
						<end>904</end>
						<in>6488</in>
						<out>6488</out>
					</clipitem>
					<clipitem frameBlend="FALSE" id="audioclip-132">
						<file id="file-1"/>
						<name>bandicam 2025-06-22 23-18-13-912 - Audio</name>
						<rate>
							<timebase>59</timebase>
							<ntsc>FALSE</ntsc>
						</rate>
						<rate>
							<timebase>59</timebase>
							<ntsc>FALSE</ntsc>
						</rate>
						<duration>0</duration>
						<start>904</start>
						<end>904</end>
						<in>6547</in>
						<out>6547</out>
					</clipitem>
					<clipitem frameBlend="FALSE" id="audioclip-133">
						<file id="file-1"/>
						<name>bandicam 2025-06-22 23-18-13-912 - Audio</name>
						<rate>
							<timebase>59</timebase>
							<ntsc>FALSE</ntsc>
						</rate>
						<rate>
							<timebase>59</timebase>
							<ntsc>FALSE</ntsc>
						</rate>
						<duration>0</duration>
						<start>904</start>
						<end>904</end>
						<in>6709</in>
						<out>6709</out>
					</clipitem>
					<clipitem frameBlend="FALSE" id="audioclip-134">
						<file id="file-1"/>
						<name>bandicam 2025-06-22 23-18-13-912 - Audio</name>
						<rate>
							<timebase>59</timebase>
							<ntsc>FALSE</ntsc>
						</rate>
						<rate>
							<timebase>59</timebase>
							<ntsc>FALSE</ntsc>
						</rate>
						<duration>66</duration>
						<start>904</start>
						<end>970</end>
						<in>6756</in>
						<out>6822</out>
					</clipitem>
					<clipitem frameBlend="FALSE" id="audioclip-135">
						<file id="file-1"/>
						<name>bandicam 2025-06-22 23-18-13-912 - Audio</name>
						<rate>
							<timebase>59</timebase>
							<ntsc>FALSE</ntsc>
						</rate>
						<rate>
							<timebase>59</timebase>
							<ntsc>FALSE</ntsc>
						</rate>
						<duration>131</duration>
						<start>970</start>
						<end>1101</end>
						<in>6858</in>
						<out>6989</out>
					</clipitem>
					<clipitem frameBlend="FALSE" id="audioclip-136">
						<file id="file-1"/>
						<name>bandicam 2025-06-22 23-18-13-912 - Audio</name>
						<rate>
							<timebase>59</timebase>
							<ntsc>FALSE</ntsc>
						</rate>
						<rate>
							<timebase>59</timebase>
							<ntsc>FALSE</ntsc>
						</rate>
						<duration>90</duration>
						<start>1101</start>
						<end>1191</end>
						<in>7007</in>
						<out>7097</out>
					</clipitem>
					<clipitem frameBlend="FALSE" id="audioclip-137">
						<file id="file-1"/>
						<name>bandicam 2025-06-22 23-18-13-912 - Audio</name>
						<rate>
							<timebase>59</timebase>
							<ntsc>FALSE</ntsc>
						</rate>
						<rate>
							<timebase>59</timebase>
							<ntsc>FALSE</ntsc>
						</rate>
						<duration>12</duration>
						<start>1191</start>
						<end>1203</end>
						<in>7115</in>
						<out>7127</out>
					</clipitem>
					<clipitem frameBlend="FALSE" id="audioclip-138">
						<file id="file-1"/>
						<name>bandicam 2025-06-22 23-18-13-912 - Audio</name>
						<rate>
							<timebase>59</timebase>
							<ntsc>FALSE</ntsc>
						</rate>
						<rate>
							<timebase>59</timebase>
							<ntsc>FALSE</ntsc>
						</rate>
						<duration>239</duration>
						<start>1203</start>
						<end>1442</end>
						<in>7145</in>
						<out>7384</out>
					</clipitem>
					<clipitem frameBlend="FALSE" id="audioclip-139">
						<file id="file-1"/>
						<name>bandicam 2025-06-22 23-18-13-912 - Audio</name>
						<rate>
							<timebase>59</timebase>
							<ntsc>FALSE</ntsc>
						</rate>
						<rate>
							<timebase>59</timebase>
							<ntsc>FALSE</ntsc>
						</rate>
						<duration>113</duration>
						<start>1442</start>
						<end>1555</end>
						<in>7402</in>
						<out>7515</out>
					</clipitem>
					<clipitem frameBlend="FALSE" id="audioclip-140">
						<file id="file-1"/>
						<name>bandicam 2025-06-22 23-18-13-912 - Audio</name>
						<rate>
							<timebase>59</timebase>
							<ntsc>FALSE</ntsc>
						</rate>
						<rate>
							<timebase>59</timebase>
							<ntsc>FALSE</ntsc>
						</rate>
						<duration>119</duration>
						<start>1555</start>
						<end>1674</end>
						<in>7533</in>
						<out>7652</out>
					</clipitem>
					<clipitem frameBlend="FALSE" id="audioclip-141">
						<file id="file-1"/>
						<name>bandicam 2025-06-22 23-18-13-912 - Audio</name>
						<rate>
							<timebase>59</timebase>
							<ntsc>FALSE</ntsc>
						</rate>
						<rate>
							<timebase>59</timebase>
							<ntsc>FALSE</ntsc>
						</rate>
						<duration>18</duration>
						<start>1674</start>
						<end>1692</end>
						<in>7664</in>
						<out>7682</out>
					</clipitem>
					<clipitem frameBlend="FALSE" id="audioclip-142">
						<file id="file-1"/>
						<name>bandicam 2025-06-22 23-18-13-912 - Audio</name>
						<rate>
							<timebase>59</timebase>
							<ntsc>FALSE</ntsc>
						</rate>
						<rate>
							<timebase>59</timebase>
							<ntsc>FALSE</ntsc>
						</rate>
						<duration>12</duration>
						<start>1692</start>
						<end>1704</end>
						<in>7724</in>
						<out>7736</out>
					</clipitem>
					<clipitem frameBlend="FALSE" id="audioclip-143">
						<file id="file-1"/>
						<name>bandicam 2025-06-22 23-18-13-912 - Audio</name>
						<rate>
							<timebase>59</timebase>
							<ntsc>FALSE</ntsc>
						</rate>
						<rate>
							<timebase>59</timebase>
							<ntsc>FALSE</ntsc>
						</rate>
						<duration>0</duration>
						<start>1704</start>
						<end>1704</end>
						<in>7754</in>
						<out>7754</out>
					</clipitem>
					<clipitem frameBlend="FALSE" id="audioclip-144">
						<file id="file-1"/>
						<name>bandicam 2025-06-22 23-18-13-912 - Audio</name>
						<rate>
							<timebase>59</timebase>
							<ntsc>FALSE</ntsc>
						</rate>
						<rate>
							<timebase>59</timebase>
							<ntsc>FALSE</ntsc>
						</rate>
						<duration>6</duration>
						<start>1704</start>
						<end>1710</end>
						<in>7772</in>
						<out>7778</out>
					</clipitem>
					<clipitem frameBlend="FALSE" id="audioclip-145">
						<file id="file-1"/>
						<name>bandicam 2025-06-22 23-18-13-912 - Audio</name>
						<rate>
							<timebase>59</timebase>
							<ntsc>FALSE</ntsc>
						</rate>
						<rate>
							<timebase>59</timebase>
							<ntsc>FALSE</ntsc>
						</rate>
						<duration>0</duration>
						<start>1710</start>
						<end>1710</end>
						<in>7802</in>
						<out>7802</out>
					</clipitem>
					<clipitem frameBlend="FALSE" id="audioclip-146">
						<file id="file-1"/>
						<name>bandicam 2025-06-22 23-18-13-912 - Audio</name>
						<rate>
							<timebase>59</timebase>
							<ntsc>FALSE</ntsc>
						</rate>
						<rate>
							<timebase>59</timebase>
							<ntsc>FALSE</ntsc>
						</rate>
						<duration>0</duration>
						<start>1710</start>
						<end>1710</end>
						<in>7897</in>
						<out>7897</out>
					</clipitem>
					<clipitem frameBlend="FALSE" id="audioclip-147">
						<file id="file-1"/>
						<name>bandicam 2025-06-22 23-18-13-912 - Audio</name>
						<rate>
							<timebase>59</timebase>
							<ntsc>FALSE</ntsc>
						</rate>
						<rate>
							<timebase>59</timebase>
							<ntsc>FALSE</ntsc>
						</rate>
						<duration>0</duration>
						<start>1710</start>
						<end>1710</end>
						<in>7951</in>
						<out>7951</out>
					</clipitem>
					<clipitem frameBlend="FALSE" id="audioclip-148">
						<file id="file-1"/>
						<name>bandicam 2025-06-22 23-18-13-912 - Audio</name>
						<rate>
							<timebase>59</timebase>
							<ntsc>FALSE</ntsc>
						</rate>
						<rate>
							<timebase>59</timebase>
							<ntsc>FALSE</ntsc>
						</rate>
						<duration>0</duration>
						<start>1710</start>
						<end>1710</end>
						<in>8250</in>
						<out>8250</out>
					</clipitem>
					<clipitem frameBlend="FALSE" id="audioclip-149">
						<file id="file-1"/>
						<name>bandicam 2025-06-22 23-18-13-912 - Audio</name>
						<rate>
							<timebase>59</timebase>
							<ntsc>FALSE</ntsc>
						</rate>
						<rate>
							<timebase>59</timebase>
							<ntsc>FALSE</ntsc>
						</rate>
						<duration>0</duration>
						<start>1710</start>
						<end>1710</end>
						<in>8429</in>
						<out>8429</out>
					</clipitem>
					<clipitem frameBlend="FALSE" id="audioclip-150">
						<file id="file-1"/>
						<name>bandicam 2025-06-22 23-18-13-912 - Audio</name>
						<rate>
							<timebase>59</timebase>
							<ntsc>FALSE</ntsc>
						</rate>
						<rate>
							<timebase>59</timebase>
							<ntsc>FALSE</ntsc>
						</rate>
						<duration>12</duration>
						<start>1710</start>
						<end>1722</end>
						<in>8447</in>
						<out>8459</out>
					</clipitem>
					<clipitem frameBlend="FALSE" id="audioclip-151">
						<file id="file-1"/>
						<name>bandicam 2025-06-22 23-18-13-912 - Audio</name>
						<rate>
							<timebase>59</timebase>
							<ntsc>FALSE</ntsc>
						</rate>
						<rate>
							<timebase>59</timebase>
							<ntsc>FALSE</ntsc>
						</rate>
						<duration>0</duration>
						<start>1722</start>
						<end>1722</end>
						<in>8471</in>
						<out>8471</out>
					</clipitem>
					<clipitem frameBlend="FALSE" id="audioclip-152">
						<file id="file-1"/>
						<name>bandicam 2025-06-22 23-18-13-912 - Audio</name>
						<rate>
							<timebase>59</timebase>
							<ntsc>FALSE</ntsc>
						</rate>
						<rate>
							<timebase>59</timebase>
							<ntsc>FALSE</ntsc>
						</rate>
						<duration>0</duration>
						<start>1722</start>
						<end>1722</end>
						<in>8501</in>
						<out>8501</out>
					</clipitem>
					<clipitem frameBlend="FALSE" id="audioclip-153">
						<file id="file-1"/>
						<name>bandicam 2025-06-22 23-18-13-912 - Audio</name>
						<rate>
							<timebase>59</timebase>
							<ntsc>FALSE</ntsc>
						</rate>
						<rate>
							<timebase>59</timebase>
							<ntsc>FALSE</ntsc>
						</rate>
						<duration>48</duration>
						<start>1722</start>
						<end>1770</end>
						<in>8525</in>
						<out>8573</out>
					</clipitem>
					<clipitem frameBlend="FALSE" id="audioclip-154">
						<file id="file-1"/>
						<name>bandicam 2025-06-22 23-18-13-912 - Audio</name>
						<rate>
							<timebase>59</timebase>
							<ntsc>FALSE</ntsc>
						</rate>
						<rate>
							<timebase>59</timebase>
							<ntsc>FALSE</ntsc>
						</rate>
						<duration>138</duration>
						<start>1770</start>
						<end>1908</end>
						<in>8620</in>
						<out>8758</out>
					</clipitem>
					<clipitem frameBlend="FALSE" id="audioclip-155">
						<file id="file-1"/>
						<name>bandicam 2025-06-22 23-18-13-912 - Audio</name>
						<rate>
							<timebase>59</timebase>
							<ntsc>FALSE</ntsc>
						</rate>
						<rate>
							<timebase>59</timebase>
							<ntsc>FALSE</ntsc>
						</rate>
						<duration>24</duration>
						<start>1908</start>
						<end>1932</end>
						<in>8782</in>
						<out>8806</out>
					</clipitem>
					<clipitem frameBlend="FALSE" id="audioclip-156">
						<file id="file-1"/>
						<name>bandicam 2025-06-22 23-18-13-912 - Audio</name>
						<rate>
							<timebase>59</timebase>
							<ntsc>FALSE</ntsc>
						</rate>
						<rate>
							<timebase>59</timebase>
							<ntsc>FALSE</ntsc>
						</rate>
						<duration>0</duration>
						<start>1932</start>
						<end>1932</end>
						<in>8949</in>
						<out>8949</out>
					</clipitem>
					<clipitem frameBlend="FALSE" id="audioclip-157">
						<file id="file-1"/>
						<name>bandicam 2025-06-22 23-18-13-912 - Audio</name>
						<rate>
							<timebase>59</timebase>
							<ntsc>FALSE</ntsc>
						</rate>
						<rate>
							<timebase>59</timebase>
							<ntsc>FALSE</ntsc>
						</rate>
						<duration>0</duration>
						<start>1932</start>
						<end>1932</end>
						<in>9056</in>
						<out>9056</out>
					</clipitem>
					<clipitem frameBlend="FALSE" id="audioclip-158">
						<file id="file-1"/>
						<name>bandicam 2025-06-22 23-18-13-912 - Audio</name>
						<rate>
							<timebase>59</timebase>
							<ntsc>FALSE</ntsc>
						</rate>
						<rate>
							<timebase>59</timebase>
							<ntsc>FALSE</ntsc>
						</rate>
						<duration>0</duration>
						<start>1932</start>
						<end>1932</end>
						<in>9086</in>
						<out>9086</out>
					</clipitem>
					<clipitem frameBlend="FALSE" id="audioclip-159">
						<file id="file-1"/>
						<name>bandicam 2025-06-22 23-18-13-912 - Audio</name>
						<rate>
							<timebase>59</timebase>
							<ntsc>FALSE</ntsc>
						</rate>
						<rate>
							<timebase>59</timebase>
							<ntsc>FALSE</ntsc>
						</rate>
						<duration>0</duration>
						<start>1932</start>
						<end>1932</end>
						<in>9110</in>
						<out>9110</out>
					</clipitem>
					<clipitem frameBlend="FALSE" id="audioclip-160">
						<file id="file-1"/>
						<name>bandicam 2025-06-22 23-18-13-912 - Audio</name>
						<rate>
							<timebase>59</timebase>
							<ntsc>FALSE</ntsc>
						</rate>
						<rate>
							<timebase>59</timebase>
							<ntsc>FALSE</ntsc>
						</rate>
						<duration>0</duration>
						<start>1932</start>
						<end>1932</end>
						<in>9134</in>
						<out>9134</out>
					</clipitem>
					<clipitem frameBlend="FALSE" id="audioclip-161">
						<file id="file-1"/>
						<name>bandicam 2025-06-22 23-18-13-912 - Audio</name>
						<rate>
							<timebase>59</timebase>
							<ntsc>FALSE</ntsc>
						</rate>
						<rate>
							<timebase>59</timebase>
							<ntsc>FALSE</ntsc>
						</rate>
						<duration>0</duration>
						<start>1932</start>
						<end>1932</end>
						<in>9146</in>
						<out>9146</out>
					</clipitem>
					<clipitem frameBlend="FALSE" id="audioclip-162">
						<file id="file-1"/>
						<name>bandicam 2025-06-22 23-18-13-912 - Audio</name>
						<rate>
							<timebase>59</timebase>
							<ntsc>FALSE</ntsc>
						</rate>
						<rate>
							<timebase>59</timebase>
							<ntsc>FALSE</ntsc>
						</rate>
						<duration>30</duration>
						<start>1932</start>
						<end>1962</end>
						<in>9158</in>
						<out>9188</out>
					</clipitem>
					<clipitem frameBlend="FALSE" id="audioclip-163">
						<file id="file-1"/>
						<name>bandicam 2025-06-22 23-18-13-912 - Audio</name>
						<rate>
							<timebase>59</timebase>
							<ntsc>FALSE</ntsc>
						</rate>
						<rate>
							<timebase>59</timebase>
							<ntsc>FALSE</ntsc>
						</rate>
						<duration>6</duration>
						<start>1962</start>
						<end>1968</end>
						<in>9373</in>
						<out>9379</out>
					</clipitem>
					<clipitem frameBlend="FALSE" id="audioclip-164">
						<file id="file-1"/>
						<name>bandicam 2025-06-22 23-18-13-912 - Audio</name>
						<rate>
							<timebase>59</timebase>
							<ntsc>FALSE</ntsc>
						</rate>
						<rate>
							<timebase>59</timebase>
							<ntsc>FALSE</ntsc>
						</rate>
						<duration>6</duration>
						<start>1968</start>
						<end>1974</end>
						<in>9415</in>
						<out>9421</out>
					</clipitem>
					<clipitem frameBlend="FALSE" id="audioclip-165">
						<file id="file-1"/>
						<name>bandicam 2025-06-22 23-18-13-912 - Audio</name>
						<rate>
							<timebase>59</timebase>
							<ntsc>FALSE</ntsc>
						</rate>
						<rate>
							<timebase>59</timebase>
							<ntsc>FALSE</ntsc>
						</rate>
						<duration>0</duration>
						<start>1974</start>
						<end>1974</end>
						<in>9451</in>
						<out>9451</out>
					</clipitem>
					<clipitem frameBlend="FALSE" id="audioclip-166">
						<file id="file-1"/>
						<name>bandicam 2025-06-22 23-18-13-912 - Audio</name>
						<rate>
							<timebase>59</timebase>
							<ntsc>FALSE</ntsc>
						</rate>
						<rate>
							<timebase>59</timebase>
							<ntsc>FALSE</ntsc>
						</rate>
						<duration>149</duration>
						<start>1974</start>
						<end>2123</end>
						<in>9499</in>
						<out>9648</out>
					</clipitem>
					<clipitem frameBlend="FALSE" id="audioclip-167">
						<file id="file-1"/>
						<name>bandicam 2025-06-22 23-18-13-912 - Audio</name>
						<rate>
							<timebase>59</timebase>
							<ntsc>FALSE</ntsc>
						</rate>
						<rate>
							<timebase>59</timebase>
							<ntsc>FALSE</ntsc>
						</rate>
						<duration>0</duration>
						<start>2123</start>
						<end>2123</end>
						<in>9857</in>
						<out>9857</out>
					</clipitem>
					<clipitem frameBlend="FALSE" id="audioclip-168">
						<file id="file-1"/>
						<name>bandicam 2025-06-22 23-18-13-912 - Audio</name>
						<rate>
							<timebase>59</timebase>
							<ntsc>FALSE</ntsc>
						</rate>
						<rate>
							<timebase>59</timebase>
							<ntsc>FALSE</ntsc>
						</rate>
						<duration>6</duration>
						<start>2123</start>
						<end>2129</end>
						<in>9875</in>
						<out>9881</out>
					</clipitem>
					<clipitem frameBlend="FALSE" id="audioclip-169">
						<file id="file-1"/>
						<name>bandicam 2025-06-22 23-18-13-912 - Audio</name>
						<rate>
							<timebase>59</timebase>
							<ntsc>FALSE</ntsc>
						</rate>
						<rate>
							<timebase>59</timebase>
							<ntsc>FALSE</ntsc>
						</rate>
						<duration>0</duration>
						<start>2129</start>
						<end>2129</end>
						<in>9905</in>
						<out>9905</out>
					</clipitem>
					<clipitem frameBlend="FALSE" id="audioclip-170">
						<file id="file-1"/>
						<name>bandicam 2025-06-22 23-18-13-912 - Audio</name>
						<rate>
							<timebase>59</timebase>
							<ntsc>FALSE</ntsc>
						</rate>
						<rate>
							<timebase>59</timebase>
							<ntsc>FALSE</ntsc>
						</rate>
						<duration>12</duration>
						<start>2129</start>
						<end>2141</end>
						<in>9923</in>
						<out>9935</out>
					</clipitem>
					<clipitem frameBlend="FALSE" id="audioclip-171">
						<file id="file-1"/>
						<name>bandicam 2025-06-22 23-18-13-912 - Audio</name>
						<rate>
							<timebase>59</timebase>
							<ntsc>FALSE</ntsc>
						</rate>
						<rate>
							<timebase>59</timebase>
							<ntsc>FALSE</ntsc>
						</rate>
						<duration>0</duration>
						<start>2141</start>
						<end>2141</end>
						<in>9953</in>
						<out>9953</out>
					</clipitem>
					<clipitem frameBlend="FALSE" id="audioclip-172">
						<file id="file-1"/>
						<name>bandicam 2025-06-22 23-18-13-912 - Audio</name>
						<rate>
							<timebase>59</timebase>
							<ntsc>FALSE</ntsc>
						</rate>
						<rate>
							<timebase>59</timebase>
							<ntsc>FALSE</ntsc>
						</rate>
						<duration>35</duration>
						<start>2141</start>
						<end>2176</end>
						<in>9965</in>
						<out>10000</out>
					</clipitem>
					<clipitem frameBlend="FALSE" id="audioclip-173">
						<file id="file-1"/>
						<name>bandicam 2025-06-22 23-18-13-912 - Audio</name>
						<rate>
							<timebase>59</timebase>
							<ntsc>FALSE</ntsc>
						</rate>
						<rate>
							<timebase>59</timebase>
							<ntsc>FALSE</ntsc>
						</rate>
						<duration>48</duration>
						<start>2176</start>
						<end>2224</end>
						<in>10012</in>
						<out>10060</out>
					</clipitem>
					<clipitem frameBlend="FALSE" id="audioclip-174">
						<file id="file-1"/>
						<name>bandicam 2025-06-22 23-18-13-912 - Audio</name>
						<rate>
							<timebase>59</timebase>
							<ntsc>FALSE</ntsc>
						</rate>
						<rate>
							<timebase>59</timebase>
							<ntsc>FALSE</ntsc>
						</rate>
						<duration>155</duration>
						<start>2224</start>
						<end>2379</end>
						<in>10078</in>
						<out>10233</out>
					</clipitem>
					<clipitem frameBlend="FALSE" id="audioclip-175">
						<file id="file-1"/>
						<name>bandicam 2025-06-22 23-18-13-912 - Audio</name>
						<rate>
							<timebase>59</timebase>
							<ntsc>FALSE</ntsc>
						</rate>
						<rate>
							<timebase>59</timebase>
							<ntsc>FALSE</ntsc>
						</rate>
						<duration>48</duration>
						<start>2379</start>
						<end>2427</end>
						<in>10251</in>
						<out>10299</out>
					</clipitem>
					<clipitem frameBlend="FALSE" id="audioclip-176">
						<file id="file-1"/>
						<name>bandicam 2025-06-22 23-18-13-912 - Audio</name>
						<rate>
							<timebase>59</timebase>
							<ntsc>FALSE</ntsc>
						</rate>
						<rate>
							<timebase>59</timebase>
							<ntsc>FALSE</ntsc>
						</rate>
						<duration>12</duration>
						<start>2427</start>
						<end>2439</end>
						<in>10311</in>
						<out>10323</out>
					</clipitem>
					<clipitem frameBlend="FALSE" id="audioclip-177">
						<file id="file-1"/>
						<name>bandicam 2025-06-22 23-18-13-912 - Audio</name>
						<rate>
							<timebase>59</timebase>
							<ntsc>FALSE</ntsc>
						</rate>
						<rate>
							<timebase>59</timebase>
							<ntsc>FALSE</ntsc>
						</rate>
						<duration>6</duration>
						<start>2439</start>
						<end>2445</end>
						<in>10347</in>
						<out>10353</out>
					</clipitem>
					<clipitem frameBlend="FALSE" id="audioclip-178">
						<file id="file-1"/>
						<name>bandicam 2025-06-22 23-18-13-912 - Audio</name>
						<rate>
							<timebase>59</timebase>
							<ntsc>FALSE</ntsc>
						</rate>
						<rate>
							<timebase>59</timebase>
							<ntsc>FALSE</ntsc>
						</rate>
						<duration>17</duration>
						<start>2445</start>
						<end>2462</end>
						<in>10419</in>
						<out>10436</out>
					</clipitem>
					<clipitem frameBlend="FALSE" id="audioclip-179">
						<file id="file-1"/>
						<name>bandicam 2025-06-22 23-18-13-912 - Audio</name>
						<rate>
							<timebase>59</timebase>
							<ntsc>FALSE</ntsc>
						</rate>
						<rate>
							<timebase>59</timebase>
							<ntsc>FALSE</ntsc>
						</rate>
						<duration>12</duration>
						<start>2462</start>
						<end>2474</end>
						<in>10466</in>
						<out>10478</out>
					</clipitem>
					<clipitem frameBlend="FALSE" id="audioclip-180">
						<file id="file-1"/>
						<name>bandicam 2025-06-22 23-18-13-912 - Audio</name>
						<rate>
							<timebase>59</timebase>
							<ntsc>FALSE</ntsc>
						</rate>
						<rate>
							<timebase>59</timebase>
							<ntsc>FALSE</ntsc>
						</rate>
						<duration>6</duration>
						<start>2474</start>
						<end>2480</end>
						<in>10538</in>
						<out>10544</out>
					</clipitem>
					<clipitem frameBlend="FALSE" id="audioclip-181">
						<file id="file-1"/>
						<name>bandicam 2025-06-22 23-18-13-912 - Audio</name>
						<rate>
							<timebase>59</timebase>
							<ntsc>FALSE</ntsc>
						</rate>
						<rate>
							<timebase>59</timebase>
							<ntsc>FALSE</ntsc>
						</rate>
						<duration>60</duration>
						<start>2480</start>
						<end>2540</end>
						<in>10574</in>
						<out>10634</out>
					</clipitem>
					<clipitem frameBlend="FALSE" id="audioclip-182">
						<file id="file-1"/>
						<name>bandicam 2025-06-22 23-18-13-912 - Audio</name>
						<rate>
							<timebase>59</timebase>
							<ntsc>FALSE</ntsc>
						</rate>
						<rate>
							<timebase>59</timebase>
							<ntsc>FALSE</ntsc>
						</rate>
						<duration>11</duration>
						<start>2540</start>
						<end>2551</end>
						<in>10664</in>
						<out>10675</out>
					</clipitem>
					<clipitem frameBlend="FALSE" id="audioclip-183">
						<file id="file-1"/>
						<name>bandicam 2025-06-22 23-18-13-912 - Audio</name>
						<rate>
							<timebase>59</timebase>
							<ntsc>FALSE</ntsc>
						</rate>
						<rate>
							<timebase>59</timebase>
							<ntsc>FALSE</ntsc>
						</rate>
						<duration>24</duration>
						<start>2551</start>
						<end>2575</end>
						<in>10705</in>
						<out>10729</out>
					</clipitem>
					<clipitem frameBlend="FALSE" id="audioclip-184">
						<file id="file-1"/>
						<name>bandicam 2025-06-22 23-18-13-912 - Audio</name>
						<rate>
							<timebase>59</timebase>
							<ntsc>FALSE</ntsc>
						</rate>
						<rate>
							<timebase>59</timebase>
							<ntsc>FALSE</ntsc>
						</rate>
						<duration>0</duration>
						<start>2575</start>
						<end>2575</end>
						<in>10747</in>
						<out>10747</out>
					</clipitem>
					<clipitem frameBlend="FALSE" id="audioclip-185">
						<file id="file-1"/>
						<name>bandicam 2025-06-22 23-18-13-912 - Audio</name>
						<rate>
							<timebase>59</timebase>
							<ntsc>FALSE</ntsc>
						</rate>
						<rate>
							<timebase>59</timebase>
							<ntsc>FALSE</ntsc>
						</rate>
						<duration>42</duration>
						<start>2575</start>
						<end>2617</end>
						<in>10801</in>
						<out>10843</out>
					</clipitem>
					<clipitem frameBlend="FALSE" id="audioclip-186">
						<file id="file-1"/>
						<name>bandicam 2025-06-22 23-18-13-912 - Audio</name>
						<rate>
							<timebase>59</timebase>
							<ntsc>FALSE</ntsc>
						</rate>
						<rate>
							<timebase>59</timebase>
							<ntsc>FALSE</ntsc>
						</rate>
						<duration>12</duration>
						<start>2617</start>
						<end>2629</end>
						<in>10914</in>
						<out>10926</out>
					</clipitem>
					<clipitem frameBlend="FALSE" id="audioclip-187">
						<file id="file-1"/>
						<name>bandicam 2025-06-22 23-18-13-912 - Audio</name>
						<rate>
							<timebase>59</timebase>
							<ntsc>FALSE</ntsc>
						</rate>
						<rate>
							<timebase>59</timebase>
							<ntsc>FALSE</ntsc>
						</rate>
						<duration>18</duration>
						<start>2629</start>
						<end>2647</end>
						<in>10944</in>
						<out>10962</out>
					</clipitem>
					<clipitem frameBlend="FALSE" id="audioclip-188">
						<file id="file-1"/>
						<name>bandicam 2025-06-22 23-18-13-912 - Audio</name>
						<rate>
							<timebase>59</timebase>
							<ntsc>FALSE</ntsc>
						</rate>
						<rate>
							<timebase>59</timebase>
							<ntsc>FALSE</ntsc>
						</rate>
						<duration>42</duration>
						<start>2647</start>
						<end>2689</end>
						<in>10974</in>
						<out>11016</out>
					</clipitem>
					<clipitem frameBlend="FALSE" id="audioclip-189">
						<file id="file-1"/>
						<name>bandicam 2025-06-22 23-18-13-912 - Audio</name>
						<rate>
							<timebase>59</timebase>
							<ntsc>FALSE</ntsc>
						</rate>
						<rate>
							<timebase>59</timebase>
							<ntsc>FALSE</ntsc>
						</rate>
						<duration>48</duration>
						<start>2689</start>
						<end>2737</end>
						<in>11034</in>
						<out>11082</out>
					</clipitem>
					<clipitem frameBlend="FALSE" id="audioclip-190">
						<file id="file-1"/>
						<name>bandicam 2025-06-22 23-18-13-912 - Audio</name>
						<rate>
							<timebase>59</timebase>
							<ntsc>FALSE</ntsc>
						</rate>
						<rate>
							<timebase>59</timebase>
							<ntsc>FALSE</ntsc>
						</rate>
						<duration>245</duration>
						<start>2737</start>
						<end>2982</end>
						<in>11094</in>
						<out>11339</out>
					</clipitem>
					<clipitem frameBlend="FALSE" id="audioclip-191">
						<file id="file-1"/>
						<name>bandicam 2025-06-22 23-18-13-912 - Audio</name>
						<rate>
							<timebase>59</timebase>
							<ntsc>FALSE</ntsc>
						</rate>
						<rate>
							<timebase>59</timebase>
							<ntsc>FALSE</ntsc>
						</rate>
						<duration>12</duration>
						<start>2982</start>
						<end>2994</end>
						<in>11398</in>
						<out>11410</out>
					</clipitem>
					<clipitem frameBlend="FALSE" id="audioclip-192">
						<file id="file-1"/>
						<name>bandicam 2025-06-22 23-18-13-912 - Audio</name>
						<rate>
							<timebase>59</timebase>
							<ntsc>FALSE</ntsc>
						</rate>
						<rate>
							<timebase>59</timebase>
							<ntsc>FALSE</ntsc>
						</rate>
						<duration>0</duration>
						<start>2994</start>
						<end>2994</end>
						<in>11470</in>
						<out>11470</out>
					</clipitem>
					<clipitem frameBlend="FALSE" id="audioclip-193">
						<file id="file-1"/>
						<name>bandicam 2025-06-22 23-18-13-912 - Audio</name>
						<rate>
							<timebase>59</timebase>
							<ntsc>FALSE</ntsc>
						</rate>
						<rate>
							<timebase>59</timebase>
							<ntsc>FALSE</ntsc>
						</rate>
						<duration>0</duration>
						<start>2994</start>
						<end>2994</end>
						<in>11494</in>
						<out>11494</out>
					</clipitem>
					<clipitem frameBlend="FALSE" id="audioclip-194">
						<file id="file-1"/>
						<name>bandicam 2025-06-22 23-18-13-912 - Audio</name>
						<rate>
							<timebase>59</timebase>
							<ntsc>FALSE</ntsc>
						</rate>
						<rate>
							<timebase>59</timebase>
							<ntsc>FALSE</ntsc>
						</rate>
						<duration>18</duration>
						<start>2994</start>
						<end>3012</end>
						<in>11518</in>
						<out>11536</out>
					</clipitem>
					<clipitem frameBlend="FALSE" id="audioclip-195">
						<file id="file-1"/>
						<name>bandicam 2025-06-22 23-18-13-912 - Audio</name>
						<rate>
							<timebase>59</timebase>
							<ntsc>FALSE</ntsc>
						</rate>
						<rate>
							<timebase>59</timebase>
							<ntsc>FALSE</ntsc>
						</rate>
						<duration>0</duration>
						<start>3012</start>
						<end>3012</end>
						<in>11601</in>
						<out>11601</out>
					</clipitem>
					<clipitem frameBlend="FALSE" id="audioclip-196">
						<file id="file-1"/>
						<name>bandicam 2025-06-22 23-18-13-912 - Audio</name>
						<rate>
							<timebase>59</timebase>
							<ntsc>FALSE</ntsc>
						</rate>
						<rate>
							<timebase>59</timebase>
							<ntsc>FALSE</ntsc>
						</rate>
						<duration>0</duration>
						<start>3012</start>
						<end>3012</end>
						<in>11643</in>
						<out>11643</out>
					</clipitem>
					<clipitem frameBlend="FALSE" id="audioclip-197">
						<file id="file-1"/>
						<name>bandicam 2025-06-22 23-18-13-912 - Audio</name>
						<rate>
							<timebase>59</timebase>
							<ntsc>FALSE</ntsc>
						</rate>
						<rate>
							<timebase>59</timebase>
							<ntsc>FALSE</ntsc>
						</rate>
						<duration>12</duration>
						<start>3012</start>
						<end>3024</end>
						<in>11661</in>
						<out>11673</out>
					</clipitem>
					<clipitem frameBlend="FALSE" id="audioclip-198">
						<file id="file-1"/>
						<name>bandicam 2025-06-22 23-18-13-912 - Audio</name>
						<rate>
							<timebase>59</timebase>
							<ntsc>FALSE</ntsc>
						</rate>
						<rate>
							<timebase>59</timebase>
							<ntsc>FALSE</ntsc>
						</rate>
						<duration>6</duration>
						<start>3024</start>
						<end>3030</end>
						<in>11703</in>
						<out>11709</out>
					</clipitem>
					<clipitem frameBlend="FALSE" id="audioclip-199">
						<file id="file-1"/>
						<name>bandicam 2025-06-22 23-18-13-912 - Audio</name>
						<rate>
							<timebase>59</timebase>
							<ntsc>FALSE</ntsc>
						</rate>
						<rate>
							<timebase>59</timebase>
							<ntsc>FALSE</ntsc>
						</rate>
						<duration>89</duration>
						<start>3030</start>
						<end>3119</end>
						<in>11769</in>
						<out>11858</out>
					</clipitem>
					<clipitem frameBlend="FALSE" id="audioclip-200">
						<file id="file-1"/>
						<name>bandicam 2025-06-22 23-18-13-912 - Audio</name>
						<rate>
							<timebase>59</timebase>
							<ntsc>FALSE</ntsc>
						</rate>
						<rate>
							<timebase>59</timebase>
							<ntsc>FALSE</ntsc>
						</rate>
						<duration>0</duration>
						<start>3119</start>
						<end>3119</end>
						<in>12456</in>
						<out>12456</out>
					</clipitem>
					<clipitem frameBlend="FALSE" id="audioclip-201">
						<file id="file-1"/>
						<name>bandicam 2025-06-22 23-18-13-912 - Audio</name>
						<rate>
							<timebase>59</timebase>
							<ntsc>FALSE</ntsc>
						</rate>
						<rate>
							<timebase>59</timebase>
							<ntsc>FALSE</ntsc>
						</rate>
						<duration>6</duration>
						<start>3119</start>
						<end>3125</end>
						<in>12725</in>
						<out>12731</out>
					</clipitem>
					<clipitem frameBlend="FALSE" id="audioclip-202">
						<file id="file-1"/>
						<name>bandicam 2025-06-22 23-18-13-912 - Audio</name>
						<rate>
							<timebase>59</timebase>
							<ntsc>FALSE</ntsc>
						</rate>
						<rate>
							<timebase>59</timebase>
							<ntsc>FALSE</ntsc>
						</rate>
						<duration>24</duration>
						<start>3125</start>
						<end>3149</end>
						<in>12754</in>
						<out>12778</out>
					</clipitem>
					<clipitem frameBlend="FALSE" id="audioclip-203">
						<file id="file-1"/>
						<name>bandicam 2025-06-22 23-18-13-912 - Audio</name>
						<rate>
							<timebase>59</timebase>
							<ntsc>FALSE</ntsc>
						</rate>
						<rate>
							<timebase>59</timebase>
							<ntsc>FALSE</ntsc>
						</rate>
						<duration>30</duration>
						<start>3149</start>
						<end>3179</end>
						<in>12790</in>
						<out>12820</out>
					</clipitem>
					<clipitem frameBlend="FALSE" id="audioclip-204">
						<file id="file-1"/>
						<name>bandicam 2025-06-22 23-18-13-912 - Audio</name>
						<rate>
							<timebase>59</timebase>
							<ntsc>FALSE</ntsc>
						</rate>
						<rate>
							<timebase>59</timebase>
							<ntsc>FALSE</ntsc>
						</rate>
						<duration>36</duration>
						<start>3179</start>
						<end>3215</end>
						<in>12832</in>
						<out>12868</out>
					</clipitem>
					<clipitem frameBlend="FALSE" id="audioclip-205">
						<file id="file-1"/>
						<name>bandicam 2025-06-22 23-18-13-912 - Audio</name>
						<rate>
							<timebase>59</timebase>
							<ntsc>FALSE</ntsc>
						</rate>
						<rate>
							<timebase>59</timebase>
							<ntsc>FALSE</ntsc>
						</rate>
						<duration>18</duration>
						<start>3215</start>
						<end>3233</end>
						<in>12952</in>
						<out>12970</out>
					</clipitem>
					<clipitem frameBlend="FALSE" id="audioclip-206">
						<file id="file-1"/>
						<name>bandicam 2025-06-22 23-18-13-912 - Audio</name>
						<rate>
							<timebase>59</timebase>
							<ntsc>FALSE</ntsc>
						</rate>
						<rate>
							<timebase>59</timebase>
							<ntsc>FALSE</ntsc>
						</rate>
						<duration>6</duration>
						<start>3233</start>
						<end>3239</end>
						<in>13011</in>
						<out>13017</out>
					</clipitem>
					<clipitem frameBlend="FALSE" id="audioclip-207">
						<file id="file-1"/>
						<name>bandicam 2025-06-22 23-18-13-912 - Audio</name>
						<rate>
							<timebase>59</timebase>
							<ntsc>FALSE</ntsc>
						</rate>
						<rate>
							<timebase>59</timebase>
							<ntsc>FALSE</ntsc>
						</rate>
						<duration>0</duration>
						<start>3239</start>
						<end>3239</end>
						<in>13041</in>
						<out>13041</out>
					</clipitem>
					<clipitem frameBlend="FALSE" id="audioclip-208">
						<file id="file-1"/>
						<name>bandicam 2025-06-22 23-18-13-912 - Audio</name>
						<rate>
							<timebase>59</timebase>
							<ntsc>FALSE</ntsc>
						</rate>
						<rate>
							<timebase>59</timebase>
							<ntsc>FALSE</ntsc>
						</rate>
						<duration>0</duration>
						<start>3239</start>
						<end>3239</end>
						<in>13053</in>
						<out>13053</out>
					</clipitem>
					<clipitem frameBlend="FALSE" id="audioclip-209">
						<file id="file-1"/>
						<name>bandicam 2025-06-22 23-18-13-912 - Audio</name>
						<rate>
							<timebase>59</timebase>
							<ntsc>FALSE</ntsc>
						</rate>
						<rate>
							<timebase>59</timebase>
							<ntsc>FALSE</ntsc>
						</rate>
						<duration>36</duration>
						<start>3239</start>
						<end>3275</end>
						<in>13089</in>
						<out>13125</out>
					</clipitem>
					<clipitem frameBlend="FALSE" id="audioclip-210">
						<file id="file-1"/>
						<name>bandicam 2025-06-22 23-18-13-912 - Audio</name>
						<rate>
							<timebase>59</timebase>
							<ntsc>FALSE</ntsc>
						</rate>
						<rate>
							<timebase>59</timebase>
							<ntsc>FALSE</ntsc>
						</rate>
						<duration>30</duration>
						<start>3275</start>
						<end>3305</end>
						<in>13274</in>
						<out>13304</out>
					</clipitem>
					<clipitem frameBlend="FALSE" id="audioclip-211">
						<file id="file-1"/>
						<name>bandicam 2025-06-22 23-18-13-912 - Audio</name>
						<rate>
							<timebase>59</timebase>
							<ntsc>FALSE</ntsc>
						</rate>
						<rate>
							<timebase>59</timebase>
							<ntsc>FALSE</ntsc>
						</rate>
						<duration>0</duration>
						<start>3305</start>
						<end>3305</end>
						<in>13412</in>
						<out>13412</out>
					</clipitem>
					<clipitem frameBlend="FALSE" id="audioclip-212">
						<file id="file-1"/>
						<name>bandicam 2025-06-22 23-18-13-912 - Audio</name>
						<rate>
							<timebase>59</timebase>
							<ntsc>FALSE</ntsc>
						</rate>
						<rate>
							<timebase>59</timebase>
							<ntsc>FALSE</ntsc>
						</rate>
						<duration>0</duration>
						<start>3305</start>
						<end>3305</end>
						<in>13424</in>
						<out>13424</out>
					</clipitem>
					<clipitem frameBlend="FALSE" id="audioclip-213">
						<file id="file-1"/>
						<name>bandicam 2025-06-22 23-18-13-912 - Audio</name>
						<rate>
							<timebase>59</timebase>
							<ntsc>FALSE</ntsc>
						</rate>
						<rate>
							<timebase>59</timebase>
							<ntsc>FALSE</ntsc>
						</rate>
						<duration>24</duration>
						<start>3305</start>
						<end>3329</end>
						<in>13453</in>
						<out>13477</out>
					</clipitem>
					<clipitem frameBlend="FALSE" id="audioclip-214">
						<file id="file-1"/>
						<name>bandicam 2025-06-22 23-18-13-912 - Audio</name>
						<rate>
							<timebase>59</timebase>
							<ntsc>FALSE</ntsc>
						</rate>
						<rate>
							<timebase>59</timebase>
							<ntsc>FALSE</ntsc>
						</rate>
						<duration>84</duration>
						<start>3329</start>
						<end>3413</end>
						<in>13495</in>
						<out>13579</out>
					</clipitem>
					<clipitem frameBlend="FALSE" id="audioclip-215">
						<file id="file-1"/>
						<name>bandicam 2025-06-22 23-18-13-912 - Audio</name>
						<rate>
							<timebase>59</timebase>
							<ntsc>FALSE</ntsc>
						</rate>
						<rate>
							<timebase>59</timebase>
							<ntsc>FALSE</ntsc>
						</rate>
						<duration>233</duration>
						<start>3413</start>
						<end>3646</end>
						<in>13591</in>
						<out>13824</out>
					</clipitem>
					<clipitem frameBlend="FALSE" id="audioclip-216">
						<file id="file-1"/>
						<name>bandicam 2025-06-22 23-18-13-912 - Audio</name>
						<rate>
							<timebase>59</timebase>
							<ntsc>FALSE</ntsc>
						</rate>
						<rate>
							<timebase>59</timebase>
							<ntsc>FALSE</ntsc>
						</rate>
						<duration>101</duration>
						<start>3646</start>
						<end>3747</end>
						<in>13836</in>
						<out>13937</out>
					</clipitem>
					<clipitem frameBlend="FALSE" id="audioclip-217">
						<file id="file-1"/>
						<name>bandicam 2025-06-22 23-18-13-912 - Audio</name>
						<rate>
							<timebase>59</timebase>
							<ntsc>FALSE</ntsc>
						</rate>
						<rate>
							<timebase>59</timebase>
							<ntsc>FALSE</ntsc>
						</rate>
						<duration>36</duration>
						<start>3747</start>
						<end>3783</end>
						<in>13949</in>
						<out>13985</out>
					</clipitem>
					<clipitem frameBlend="FALSE" id="audioclip-218">
						<file id="file-1"/>
						<name>bandicam 2025-06-22 23-18-13-912 - Audio</name>
						<rate>
							<timebase>59</timebase>
							<ntsc>FALSE</ntsc>
						</rate>
						<rate>
							<timebase>59</timebase>
							<ntsc>FALSE</ntsc>
						</rate>
						<duration>36</duration>
						<start>3783</start>
						<end>3819</end>
						<in>13997</in>
						<out>14033</out>
					</clipitem>
					<clipitem frameBlend="FALSE" id="audioclip-219">
						<file id="file-1"/>
						<name>bandicam 2025-06-22 23-18-13-912 - Audio</name>
						<rate>
							<timebase>59</timebase>
							<ntsc>FALSE</ntsc>
						</rate>
						<rate>
							<timebase>59</timebase>
							<ntsc>FALSE</ntsc>
						</rate>
						<duration>36</duration>
						<start>3819</start>
						<end>3855</end>
						<in>14045</in>
						<out>14081</out>
					</clipitem>
					<clipitem frameBlend="FALSE" id="audioclip-220">
						<file id="file-1"/>
						<name>bandicam 2025-06-22 23-18-13-912 - Audio</name>
						<rate>
							<timebase>59</timebase>
							<ntsc>FALSE</ntsc>
						</rate>
						<rate>
							<timebase>59</timebase>
							<ntsc>FALSE</ntsc>
						</rate>
						<duration>119</duration>
						<start>3855</start>
						<end>3974</end>
						<in>14105</in>
						<out>14224</out>
					</clipitem>
					<clipitem frameBlend="FALSE" id="audioclip-221">
						<file id="file-1"/>
						<name>bandicam 2025-06-22 23-18-13-912 - Audio</name>
						<rate>
							<timebase>59</timebase>
							<ntsc>FALSE</ntsc>
						</rate>
						<rate>
							<timebase>59</timebase>
							<ntsc>FALSE</ntsc>
						</rate>
						<duration>0</duration>
						<start>3974</start>
						<end>3974</end>
						<in>14236</in>
						<out>14236</out>
					</clipitem>
					<clipitem frameBlend="FALSE" id="audioclip-222">
						<file id="file-1"/>
						<name>bandicam 2025-06-22 23-18-13-912 - Audio</name>
						<rate>
							<timebase>59</timebase>
							<ntsc>FALSE</ntsc>
						</rate>
						<rate>
							<timebase>59</timebase>
							<ntsc>FALSE</ntsc>
						</rate>
						<duration>90</duration>
						<start>3974</start>
						<end>4064</end>
						<in>14254</in>
						<out>14344</out>
					</clipitem>
					<clipitem frameBlend="FALSE" id="audioclip-223">
						<file id="file-1"/>
						<name>bandicam 2025-06-22 23-18-13-912 - Audio</name>
						<rate>
							<timebase>59</timebase>
							<ntsc>FALSE</ntsc>
						</rate>
						<rate>
							<timebase>59</timebase>
							<ntsc>FALSE</ntsc>
						</rate>
						<duration>65</duration>
						<start>4064</start>
						<end>4129</end>
						<in>14362</in>
						<out>14427</out>
					</clipitem>
					<clipitem frameBlend="FALSE" id="audioclip-224">
						<file id="file-1"/>
						<name>bandicam 2025-06-22 23-18-13-912 - Audio</name>
						<rate>
							<timebase>59</timebase>
							<ntsc>FALSE</ntsc>
						</rate>
						<rate>
							<timebase>59</timebase>
							<ntsc>FALSE</ntsc>
						</rate>
						<duration>114</duration>
						<start>4129</start>
						<end>4243</end>
						<in>14445</in>
						<out>14559</out>
					</clipitem>
					<clipitem frameBlend="FALSE" id="audioclip-225">
						<file id="file-1"/>
						<name>bandicam 2025-06-22 23-18-13-912 - Audio</name>
						<rate>
							<timebase>59</timebase>
							<ntsc>FALSE</ntsc>
						</rate>
						<rate>
							<timebase>59</timebase>
							<ntsc>FALSE</ntsc>
						</rate>
						<duration>6</duration>
						<start>4243</start>
						<end>4249</end>
						<in>14571</in>
						<out>14577</out>
					</clipitem>
					<clipitem frameBlend="FALSE" id="audioclip-226">
						<file id="file-1"/>
						<name>bandicam 2025-06-22 23-18-13-912 - Audio</name>
						<rate>
							<timebase>59</timebase>
							<ntsc>FALSE</ntsc>
						</rate>
						<rate>
							<timebase>59</timebase>
							<ntsc>FALSE</ntsc>
						</rate>
						<duration>53</duration>
						<start>4249</start>
						<end>4302</end>
						<in>14589</in>
						<out>14642</out>
					</clipitem>
					<clipitem frameBlend="FALSE" id="audioclip-227">
						<file id="file-1"/>
						<name>bandicam 2025-06-22 23-18-13-912 - Audio</name>
						<rate>
							<timebase>59</timebase>
							<ntsc>FALSE</ntsc>
						</rate>
						<rate>
							<timebase>59</timebase>
							<ntsc>FALSE</ntsc>
						</rate>
						<duration>269</duration>
						<start>4302</start>
						<end>4571</end>
						<in>14654</in>
						<out>14923</out>
					</clipitem>
					<clipitem frameBlend="FALSE" id="audioclip-228">
						<file id="file-1"/>
						<name>bandicam 2025-06-22 23-18-13-912 - Audio</name>
						<rate>
							<timebase>59</timebase>
							<ntsc>FALSE</ntsc>
						</rate>
						<rate>
							<timebase>59</timebase>
							<ntsc>FALSE</ntsc>
						</rate>
						<duration>18</duration>
						<start>4571</start>
						<end>4589</end>
						<in>14935</in>
						<out>14953</out>
					</clipitem>
					<clipitem frameBlend="FALSE" id="audioclip-229">
						<file id="file-1"/>
						<name>bandicam 2025-06-22 23-18-13-912 - Audio</name>
						<rate>
							<timebase>59</timebase>
							<ntsc>FALSE</ntsc>
						</rate>
						<rate>
							<timebase>59</timebase>
							<ntsc>FALSE</ntsc>
						</rate>
						<duration>281</duration>
						<start>4589</start>
						<end>4870</end>
						<in>14971</in>
						<out>15252</out>
					</clipitem>
					<clipitem frameBlend="FALSE" id="audioclip-230">
						<file id="file-1"/>
						<name>bandicam 2025-06-22 23-18-13-912 - Audio</name>
						<rate>
							<timebase>59</timebase>
							<ntsc>FALSE</ntsc>
						</rate>
						<rate>
							<timebase>59</timebase>
							<ntsc>FALSE</ntsc>
						</rate>
						<duration>12</duration>
						<start>4870</start>
						<end>4882</end>
						<in>15264</in>
						<out>15276</out>
					</clipitem>
					<clipitem frameBlend="FALSE" id="audioclip-231">
						<file id="file-1"/>
						<name>bandicam 2025-06-22 23-18-13-912 - Audio</name>
						<rate>
							<timebase>59</timebase>
							<ntsc>FALSE</ntsc>
						</rate>
						<rate>
							<timebase>59</timebase>
							<ntsc>FALSE</ntsc>
						</rate>
						<duration>222</duration>
						<start>4882</start>
						<end>5104</end>
						<in>15311</in>
						<out>15533</out>
					</clipitem>
					<clipitem frameBlend="FALSE" id="audioclip-232">
						<file id="file-1"/>
						<name>bandicam 2025-06-22 23-18-13-912 - Audio</name>
						<rate>
							<timebase>59</timebase>
							<ntsc>FALSE</ntsc>
						</rate>
						<rate>
							<timebase>59</timebase>
							<ntsc>FALSE</ntsc>
						</rate>
						<duration>6</duration>
						<start>5104</start>
						<end>5110</end>
						<in>15544</in>
						<out>15550</out>
					</clipitem>
					<clipitem frameBlend="FALSE" id="audioclip-233">
						<file id="file-1"/>
						<name>bandicam 2025-06-22 23-18-13-912 - Audio</name>
						<rate>
							<timebase>59</timebase>
							<ntsc>FALSE</ntsc>
						</rate>
						<rate>
							<timebase>59</timebase>
							<ntsc>FALSE</ntsc>
						</rate>
						<duration>669</duration>
						<start>5110</start>
						<end>5779</end>
						<in>15562</in>
						<out>16231</out>
					</clipitem>
					<clipitem frameBlend="FALSE" id="audioclip-234">
						<file id="file-1"/>
						<name>bandicam 2025-06-22 23-18-13-912 - Audio</name>
						<rate>
							<timebase>59</timebase>
							<ntsc>FALSE</ntsc>
						</rate>
						<rate>
							<timebase>59</timebase>
							<ntsc>FALSE</ntsc>
						</rate>
						<duration>251</duration>
						<start>5779</start>
						<end>6030</end>
						<in>16243</in>
						<out>16494</out>
					</clipitem>
					<clipitem frameBlend="FALSE" id="audioclip-235">
						<file id="file-1"/>
						<name>bandicam 2025-06-22 23-18-13-912 - Audio</name>
						<rate>
							<timebase>59</timebase>
							<ntsc>FALSE</ntsc>
						</rate>
						<rate>
							<timebase>59</timebase>
							<ntsc>FALSE</ntsc>
						</rate>
						<duration>179</duration>
						<start>6030</start>
						<end>6209</end>
						<in>16518</in>
						<out>16697</out>
					</clipitem>
					<clipitem frameBlend="FALSE" id="audioclip-236">
						<file id="file-1"/>
						<name>bandicam 2025-06-22 23-18-13-912 - Audio</name>
						<rate>
							<timebase>59</timebase>
							<ntsc>FALSE</ntsc>
						</rate>
						<rate>
							<timebase>59</timebase>
							<ntsc>FALSE</ntsc>
						</rate>
						<duration>42</duration>
						<start>6209</start>
						<end>6251</end>
						<in>16709</in>
						<out>16751</out>
					</clipitem>
					<clipitem frameBlend="FALSE" id="audioclip-237">
						<file id="file-1"/>
						<name>bandicam 2025-06-22 23-18-13-912 - Audio</name>
						<rate>
							<timebase>59</timebase>
							<ntsc>FALSE</ntsc>
						</rate>
						<rate>
							<timebase>59</timebase>
							<ntsc>FALSE</ntsc>
						</rate>
						<duration>6</duration>
						<start>6251</start>
						<end>6257</end>
						<in>16763</in>
						<out>16769</out>
					</clipitem>
					<clipitem frameBlend="FALSE" id="audioclip-238">
						<file id="file-1"/>
						<name>bandicam 2025-06-22 23-18-13-912 - Audio</name>
						<rate>
							<timebase>59</timebase>
							<ntsc>FALSE</ntsc>
						</rate>
						<rate>
							<timebase>59</timebase>
							<ntsc>FALSE</ntsc>
						</rate>
						<duration>12</duration>
						<start>6257</start>
						<end>6269</end>
						<in>16871</in>
						<out>16883</out>
					</clipitem>
					<clipitem frameBlend="FALSE" id="audioclip-239">
						<file id="file-1"/>
						<name>bandicam 2025-06-22 23-18-13-912 - Audio</name>
						<rate>
							<timebase>59</timebase>
							<ntsc>FALSE</ntsc>
						</rate>
						<rate>
							<timebase>59</timebase>
							<ntsc>FALSE</ntsc>
						</rate>
						<duration>23</duration>
						<start>6269</start>
						<end>6292</end>
						<in>16907</in>
						<out>16930</out>
					</clipitem>
					<clipitem frameBlend="FALSE" id="audioclip-240">
						<file id="file-1"/>
						<name>bandicam 2025-06-22 23-18-13-912 - Audio</name>
						<rate>
							<timebase>59</timebase>
							<ntsc>FALSE</ntsc>
						</rate>
						<rate>
							<timebase>59</timebase>
							<ntsc>FALSE</ntsc>
						</rate>
						<duration>96</duration>
						<start>6292</start>
						<end>6388</end>
						<in>16954</in>
						<out>17050</out>
					</clipitem>
					<clipitem frameBlend="FALSE" id="audioclip-241">
						<file id="file-1"/>
						<name>bandicam 2025-06-22 23-18-13-912 - Audio</name>
						<rate>
							<timebase>59</timebase>
							<ntsc>FALSE</ntsc>
						</rate>
						<rate>
							<timebase>59</timebase>
							<ntsc>FALSE</ntsc>
						</rate>
						<duration>18</duration>
						<start>6388</start>
						<end>6406</end>
						<in>17068</in>
						<out>17086</out>
					</clipitem>
					<clipitem frameBlend="FALSE" id="audioclip-242">
						<file id="file-1"/>
						<name>bandicam 2025-06-22 23-18-13-912 - Audio</name>
						<rate>
							<timebase>59</timebase>
							<ntsc>FALSE</ntsc>
						</rate>
						<rate>
							<timebase>59</timebase>
							<ntsc>FALSE</ntsc>
						</rate>
						<duration>47</duration>
						<start>6406</start>
						<end>6453</end>
						<in>17116</in>
						<out>17163</out>
					</clipitem>
					<clipitem frameBlend="FALSE" id="audioclip-243">
						<file id="file-1"/>
						<name>bandicam 2025-06-22 23-18-13-912 - Audio</name>
						<rate>
							<timebase>59</timebase>
							<ntsc>FALSE</ntsc>
						</rate>
						<rate>
							<timebase>59</timebase>
							<ntsc>FALSE</ntsc>
						</rate>
						<duration>203</duration>
						<start>6453</start>
						<end>6656</end>
						<in>17187</in>
						<out>17390</out>
					</clipitem>
					<clipitem frameBlend="FALSE" id="audioclip-244">
						<file id="file-1"/>
						<name>bandicam 2025-06-22 23-18-13-912 - Audio</name>
						<rate>
							<timebase>59</timebase>
							<ntsc>FALSE</ntsc>
						</rate>
						<rate>
							<timebase>59</timebase>
							<ntsc>FALSE</ntsc>
						</rate>
						<duration>18</duration>
						<start>6656</start>
						<end>6674</end>
						<in>17402</in>
						<out>17420</out>
					</clipitem>
					<clipitem frameBlend="FALSE" id="audioclip-245">
						<file id="file-1"/>
						<name>bandicam 2025-06-22 23-18-13-912 - Audio</name>
						<rate>
							<timebase>59</timebase>
							<ntsc>FALSE</ntsc>
						</rate>
						<rate>
							<timebase>59</timebase>
							<ntsc>FALSE</ntsc>
						</rate>
						<duration>6</duration>
						<start>6674</start>
						<end>6680</end>
						<in>17450</in>
						<out>17456</out>
					</clipitem>
					<clipitem frameBlend="FALSE" id="audioclip-246">
						<file id="file-1"/>
						<name>bandicam 2025-06-22 23-18-13-912 - Audio</name>
						<rate>
							<timebase>59</timebase>
							<ntsc>FALSE</ntsc>
						</rate>
						<rate>
							<timebase>59</timebase>
							<ntsc>FALSE</ntsc>
						</rate>
						<duration>137</duration>
						<start>6680</start>
						<end>6817</end>
						<in>17492</in>
						<out>17629</out>
					</clipitem>
					<clipitem frameBlend="FALSE" id="audioclip-247">
						<file id="file-1"/>
						<name>bandicam 2025-06-22 23-18-13-912 - Audio</name>
						<rate>
							<timebase>59</timebase>
							<ntsc>FALSE</ntsc>
						</rate>
						<rate>
							<timebase>59</timebase>
							<ntsc>FALSE</ntsc>
						</rate>
						<duration>72</duration>
						<start>6817</start>
						<end>6889</end>
						<in>17665</in>
						<out>17737</out>
					</clipitem>
					<clipitem frameBlend="FALSE" id="audioclip-248">
						<file id="file-1"/>
						<name>bandicam 2025-06-22 23-18-13-912 - Audio</name>
						<rate>
							<timebase>59</timebase>
							<ntsc>FALSE</ntsc>
						</rate>
						<rate>
							<timebase>59</timebase>
							<ntsc>FALSE</ntsc>
						</rate>
						<duration>12</duration>
						<start>6889</start>
						<end>6901</end>
						<in>17767</in>
						<out>17779</out>
					</clipitem>
					<clipitem frameBlend="FALSE" id="audioclip-249">
						<file id="file-1"/>
						<name>bandicam 2025-06-22 23-18-13-912 - Audio</name>
						<rate>
							<timebase>59</timebase>
							<ntsc>FALSE</ntsc>
						</rate>
						<rate>
							<timebase>59</timebase>
							<ntsc>FALSE</ntsc>
						</rate>
						<duration>42</duration>
						<start>6901</start>
						<end>6943</end>
						<in>17803</in>
						<out>17845</out>
					</clipitem>
					<clipitem frameBlend="FALSE" id="audioclip-250">
						<file id="file-1"/>
						<name>bandicam 2025-06-22 23-18-13-912 - Audio</name>
						<rate>
							<timebase>59</timebase>
							<ntsc>FALSE</ntsc>
						</rate>
						<rate>
							<timebase>59</timebase>
							<ntsc>FALSE</ntsc>
						</rate>
						<duration>6</duration>
						<start>6943</start>
						<end>6949</end>
						<in>17886</in>
						<out>17892</out>
					</clipitem>
					<clipitem frameBlend="FALSE" id="audioclip-251">
						<file id="file-1"/>
						<name>bandicam 2025-06-22 23-18-13-912 - Audio</name>
						<rate>
							<timebase>59</timebase>
							<ntsc>FALSE</ntsc>
						</rate>
						<rate>
							<timebase>59</timebase>
							<ntsc>FALSE</ntsc>
						</rate>
						<duration>30</duration>
						<start>6949</start>
						<end>6979</end>
						<in>17916</in>
						<out>17946</out>
					</clipitem>
					<clipitem frameBlend="FALSE" id="audioclip-252">
						<file id="file-1"/>
						<name>bandicam 2025-06-22 23-18-13-912 - Audio</name>
						<rate>
							<timebase>59</timebase>
							<ntsc>FALSE</ntsc>
						</rate>
						<rate>
							<timebase>59</timebase>
							<ntsc>FALSE</ntsc>
						</rate>
						<duration>0</duration>
						<start>6979</start>
						<end>6979</end>
						<in>17964</in>
						<out>17964</out>
					</clipitem>
					<clipitem frameBlend="FALSE" id="audioclip-253">
						<file id="file-1"/>
						<name>bandicam 2025-06-22 23-18-13-912 - Audio</name>
						<rate>
							<timebase>59</timebase>
							<ntsc>FALSE</ntsc>
						</rate>
						<rate>
							<timebase>59</timebase>
							<ntsc>FALSE</ntsc>
						</rate>
						<duration>0</duration>
						<start>6979</start>
						<end>6979</end>
						<in>17988</in>
						<out>17988</out>
					</clipitem>
					<clipitem frameBlend="FALSE" id="audioclip-254">
						<file id="file-1"/>
						<name>bandicam 2025-06-22 23-18-13-912 - Audio</name>
						<rate>
							<timebase>59</timebase>
							<ntsc>FALSE</ntsc>
						</rate>
						<rate>
							<timebase>59</timebase>
							<ntsc>FALSE</ntsc>
						</rate>
						<duration>77</duration>
						<start>6979</start>
						<end>7056</end>
						<in>18012</in>
						<out>18089</out>
					</clipitem>
					<clipitem frameBlend="FALSE" id="audioclip-255">
						<file id="file-1"/>
						<name>bandicam 2025-06-22 23-18-13-912 - Audio</name>
						<rate>
							<timebase>59</timebase>
							<ntsc>FALSE</ntsc>
						</rate>
						<rate>
							<timebase>59</timebase>
							<ntsc>FALSE</ntsc>
						</rate>
						<duration>263</duration>
						<start>7056</start>
						<end>7319</end>
						<in>18107</in>
						<out>18370</out>
					</clipitem>
					<clipitem frameBlend="FALSE" id="audioclip-256">
						<file id="file-1"/>
						<name>bandicam 2025-06-22 23-18-13-912 - Audio</name>
						<rate>
							<timebase>59</timebase>
							<ntsc>FALSE</ntsc>
						</rate>
						<rate>
							<timebase>59</timebase>
							<ntsc>FALSE</ntsc>
						</rate>
						<duration>138</duration>
						<start>7319</start>
						<end>7457</end>
						<in>18394</in>
						<out>18532</out>
					</clipitem>
					<clipitem frameBlend="FALSE" id="audioclip-257">
						<file id="file-1"/>
						<name>bandicam 2025-06-22 23-18-13-912 - Audio</name>
						<rate>
							<timebase>59</timebase>
							<ntsc>FALSE</ntsc>
						</rate>
						<rate>
							<timebase>59</timebase>
							<ntsc>FALSE</ntsc>
						</rate>
						<duration>5</duration>
						<start>7457</start>
						<end>7462</end>
						<in>18544</in>
						<out>18549</out>
					</clipitem>
					<clipitem frameBlend="FALSE" id="audioclip-258">
						<file id="file-1"/>
						<name>bandicam 2025-06-22 23-18-13-912 - Audio</name>
						<rate>
							<timebase>59</timebase>
							<ntsc>FALSE</ntsc>
						</rate>
						<rate>
							<timebase>59</timebase>
							<ntsc>FALSE</ntsc>
						</rate>
						<duration>54</duration>
						<start>7462</start>
						<end>7516</end>
						<in>18573</in>
						<out>18627</out>
					</clipitem>
					<clipitem frameBlend="FALSE" id="audioclip-259">
						<file id="file-1"/>
						<name>bandicam 2025-06-22 23-18-13-912 - Audio</name>
						<rate>
							<timebase>59</timebase>
							<ntsc>FALSE</ntsc>
						</rate>
						<rate>
							<timebase>59</timebase>
							<ntsc>FALSE</ntsc>
						</rate>
						<duration>18</duration>
						<start>7516</start>
						<end>7534</end>
						<in>18645</in>
						<out>18663</out>
					</clipitem>
					<clipitem frameBlend="FALSE" id="audioclip-260">
						<file id="file-1"/>
						<name>bandicam 2025-06-22 23-18-13-912 - Audio</name>
						<rate>
							<timebase>59</timebase>
							<ntsc>FALSE</ntsc>
						</rate>
						<rate>
							<timebase>59</timebase>
							<ntsc>FALSE</ntsc>
						</rate>
						<duration>24</duration>
						<start>7534</start>
						<end>7558</end>
						<in>18675</in>
						<out>18699</out>
					</clipitem>
					<clipitem frameBlend="FALSE" id="audioclip-261">
						<file id="file-1"/>
						<name>bandicam 2025-06-22 23-18-13-912 - Audio</name>
						<rate>
							<timebase>59</timebase>
							<ntsc>FALSE</ntsc>
						</rate>
						<rate>
							<timebase>59</timebase>
							<ntsc>FALSE</ntsc>
						</rate>
						<duration>18</duration>
						<start>7558</start>
						<end>7576</end>
						<in>18717</in>
						<out>18735</out>
					</clipitem>
					<clipitem frameBlend="FALSE" id="audioclip-262">
						<file id="file-1"/>
						<name>bandicam 2025-06-22 23-18-13-912 - Audio</name>
						<rate>
							<timebase>59</timebase>
							<ntsc>FALSE</ntsc>
						</rate>
						<rate>
							<timebase>59</timebase>
							<ntsc>FALSE</ntsc>
						</rate>
						<duration>77</duration>
						<start>7576</start>
						<end>7653</end>
						<in>18747</in>
						<out>18824</out>
					</clipitem>
					<clipitem frameBlend="FALSE" id="audioclip-263">
						<file id="file-1"/>
						<name>bandicam 2025-06-22 23-18-13-912 - Audio</name>
						<rate>
							<timebase>59</timebase>
							<ntsc>FALSE</ntsc>
						</rate>
						<rate>
							<timebase>59</timebase>
							<ntsc>FALSE</ntsc>
						</rate>
						<duration>132</duration>
						<start>7653</start>
						<end>7785</end>
						<in>18842</in>
						<out>18974</out>
					</clipitem>
					<clipitem frameBlend="FALSE" id="audioclip-264">
						<file id="file-1"/>
						<name>bandicam 2025-06-22 23-18-13-912 - Audio</name>
						<rate>
							<timebase>59</timebase>
							<ntsc>FALSE</ntsc>
						</rate>
						<rate>
							<timebase>59</timebase>
							<ntsc>FALSE</ntsc>
						</rate>
						<duration>155</duration>
						<start>7785</start>
						<end>7940</end>
						<in>18992</in>
						<out>19147</out>
					</clipitem>
					<clipitem frameBlend="FALSE" id="audioclip-265">
						<file id="file-1"/>
						<name>bandicam 2025-06-22 23-18-13-912 - Audio</name>
						<rate>
							<timebase>59</timebase>
							<ntsc>FALSE</ntsc>
						</rate>
						<rate>
							<timebase>59</timebase>
							<ntsc>FALSE</ntsc>
						</rate>
						<duration>107</duration>
						<start>7940</start>
						<end>8047</end>
						<in>19159</in>
						<out>19266</out>
					</clipitem>
					<clipitem frameBlend="FALSE" id="audioclip-266">
						<file id="file-1"/>
						<name>bandicam 2025-06-22 23-18-13-912 - Audio</name>
						<rate>
							<timebase>59</timebase>
							<ntsc>FALSE</ntsc>
						</rate>
						<rate>
							<timebase>59</timebase>
							<ntsc>FALSE</ntsc>
						</rate>
						<duration>6</duration>
						<start>8047</start>
						<end>8053</end>
						<in>19284</in>
						<out>19290</out>
					</clipitem>
					<clipitem frameBlend="FALSE" id="audioclip-267">
						<file id="file-1"/>
						<name>bandicam 2025-06-22 23-18-13-912 - Audio</name>
						<rate>
							<timebase>59</timebase>
							<ntsc>FALSE</ntsc>
						</rate>
						<rate>
							<timebase>59</timebase>
							<ntsc>FALSE</ntsc>
						</rate>
						<duration>84</duration>
						<start>8053</start>
						<end>8137</end>
						<in>19314</in>
						<out>19398</out>
					</clipitem>
					<clipitem frameBlend="FALSE" id="audioclip-268">
						<file id="file-1"/>
						<name>bandicam 2025-06-22 23-18-13-912 - Audio</name>
						<rate>
							<timebase>59</timebase>
							<ntsc>FALSE</ntsc>
						</rate>
						<rate>
							<timebase>59</timebase>
							<ntsc>FALSE</ntsc>
						</rate>
						<duration>18</duration>
						<start>8137</start>
						<end>8155</end>
						<in>19416</in>
						<out>19434</out>
					</clipitem>
					<clipitem frameBlend="FALSE" id="audioclip-269">
						<file id="file-1"/>
						<name>bandicam 2025-06-22 23-18-13-912 - Audio</name>
						<rate>
							<timebase>59</timebase>
							<ntsc>FALSE</ntsc>
						</rate>
						<rate>
							<timebase>59</timebase>
							<ntsc>FALSE</ntsc>
						</rate>
						<duration>29</duration>
						<start>8155</start>
						<end>8184</end>
						<in>19452</in>
						<out>19481</out>
					</clipitem>
					<clipitem frameBlend="FALSE" id="audioclip-270">
						<file id="file-1"/>
						<name>bandicam 2025-06-22 23-18-13-912 - Audio</name>
						<rate>
							<timebase>59</timebase>
							<ntsc>FALSE</ntsc>
						</rate>
						<rate>
							<timebase>59</timebase>
							<ntsc>FALSE</ntsc>
						</rate>
						<duration>12</duration>
						<start>8184</start>
						<end>8196</end>
						<in>19499</in>
						<out>19511</out>
					</clipitem>
					<clipitem frameBlend="FALSE" id="audioclip-271">
						<file id="file-1"/>
						<name>bandicam 2025-06-22 23-18-13-912 - Audio</name>
						<rate>
							<timebase>59</timebase>
							<ntsc>FALSE</ntsc>
						</rate>
						<rate>
							<timebase>59</timebase>
							<ntsc>FALSE</ntsc>
						</rate>
						<duration>0</duration>
						<start>8196</start>
						<end>8196</end>
						<in>19529</in>
						<out>19529</out>
					</clipitem>
					<clipitem frameBlend="FALSE" id="audioclip-272">
						<file id="file-1"/>
						<name>bandicam 2025-06-22 23-18-13-912 - Audio</name>
						<rate>
							<timebase>59</timebase>
							<ntsc>FALSE</ntsc>
						</rate>
						<rate>
							<timebase>59</timebase>
							<ntsc>FALSE</ntsc>
						</rate>
						<duration>18</duration>
						<start>8196</start>
						<end>8214</end>
						<in>19541</in>
						<out>19559</out>
					</clipitem>
					<clipitem frameBlend="FALSE" id="audioclip-273">
						<file id="file-1"/>
						<name>bandicam 2025-06-22 23-18-13-912 - Audio</name>
						<rate>
							<timebase>59</timebase>
							<ntsc>FALSE</ntsc>
						</rate>
						<rate>
							<timebase>59</timebase>
							<ntsc>FALSE</ntsc>
						</rate>
						<duration>18</duration>
						<start>8214</start>
						<end>8232</end>
						<in>19577</in>
						<out>19595</out>
					</clipitem>
					<clipitem frameBlend="FALSE" id="audioclip-274">
						<file id="file-1"/>
						<name>bandicam 2025-06-22 23-18-13-912 - Audio</name>
						<rate>
							<timebase>59</timebase>
							<ntsc>FALSE</ntsc>
						</rate>
						<rate>
							<timebase>59</timebase>
							<ntsc>FALSE</ntsc>
						</rate>
						<duration>12</duration>
						<start>8232</start>
						<end>8244</end>
						<in>19619</in>
						<out>19631</out>
					</clipitem>
					<clipitem frameBlend="FALSE" id="audioclip-275">
						<file id="file-1"/>
						<name>bandicam 2025-06-22 23-18-13-912 - Audio</name>
						<rate>
							<timebase>59</timebase>
							<ntsc>FALSE</ntsc>
						</rate>
						<rate>
							<timebase>59</timebase>
							<ntsc>FALSE</ntsc>
						</rate>
						<duration>0</duration>
						<start>8244</start>
						<end>8244</end>
						<in>19649</in>
						<out>19649</out>
					</clipitem>
					<clipitem frameBlend="FALSE" id="audioclip-276">
						<file id="file-1"/>
						<name>bandicam 2025-06-22 23-18-13-912 - Audio</name>
						<rate>
							<timebase>59</timebase>
							<ntsc>FALSE</ntsc>
						</rate>
						<rate>
							<timebase>59</timebase>
							<ntsc>FALSE</ntsc>
						</rate>
						<duration>12</duration>
						<start>8244</start>
						<end>8256</end>
						<in>19661</in>
						<out>19673</out>
					</clipitem>
					<clipitem frameBlend="FALSE" id="audioclip-277">
						<file id="file-1"/>
						<name>bandicam 2025-06-22 23-18-13-912 - Audio</name>
						<rate>
							<timebase>59</timebase>
							<ntsc>FALSE</ntsc>
						</rate>
						<rate>
							<timebase>59</timebase>
							<ntsc>FALSE</ntsc>
						</rate>
						<duration>17</duration>
						<start>8256</start>
						<end>8273</end>
						<in>19703</in>
						<out>19720</out>
					</clipitem>
					<clipitem frameBlend="FALSE" id="audioclip-278">
						<file id="file-1"/>
						<name>bandicam 2025-06-22 23-18-13-912 - Audio</name>
						<rate>
							<timebase>59</timebase>
							<ntsc>FALSE</ntsc>
						</rate>
						<rate>
							<timebase>59</timebase>
							<ntsc>FALSE</ntsc>
						</rate>
						<duration>36</duration>
						<start>8273</start>
						<end>8309</end>
						<in>19738</in>
						<out>19774</out>
					</clipitem>
					<clipitem frameBlend="FALSE" id="audioclip-279">
						<file id="file-1"/>
						<name>bandicam 2025-06-22 23-18-13-912 - Audio</name>
						<rate>
							<timebase>59</timebase>
							<ntsc>FALSE</ntsc>
						</rate>
						<rate>
							<timebase>59</timebase>
							<ntsc>FALSE</ntsc>
						</rate>
						<duration>0</duration>
						<start>8309</start>
						<end>8309</end>
						<in>19798</in>
						<out>19798</out>
					</clipitem>
					<clipitem frameBlend="FALSE" id="audioclip-280">
						<file id="file-1"/>
						<name>bandicam 2025-06-22 23-18-13-912 - Audio</name>
						<rate>
							<timebase>59</timebase>
							<ntsc>FALSE</ntsc>
						</rate>
						<rate>
							<timebase>59</timebase>
							<ntsc>FALSE</ntsc>
						</rate>
						<duration>6</duration>
						<start>8309</start>
						<end>8315</end>
						<in>19810</in>
						<out>19816</out>
					</clipitem>
					<clipitem frameBlend="FALSE" id="audioclip-281">
						<file id="file-1"/>
						<name>bandicam 2025-06-22 23-18-13-912 - Audio</name>
						<rate>
							<timebase>59</timebase>
							<ntsc>FALSE</ntsc>
						</rate>
						<rate>
							<timebase>59</timebase>
							<ntsc>FALSE</ntsc>
						</rate>
						<duration>48</duration>
						<start>8315</start>
						<end>8363</end>
						<in>19840</in>
						<out>19888</out>
					</clipitem>
					<clipitem frameBlend="FALSE" id="audioclip-282">
						<file id="file-1"/>
						<name>bandicam 2025-06-22 23-18-13-912 - Audio</name>
						<rate>
							<timebase>59</timebase>
							<ntsc>FALSE</ntsc>
						</rate>
						<rate>
							<timebase>59</timebase>
							<ntsc>FALSE</ntsc>
						</rate>
						<duration>233</duration>
						<start>8363</start>
						<end>8596</end>
						<in>19900</in>
						<out>20133</out>
					</clipitem>
					<clipitem frameBlend="FALSE" id="audioclip-283">
						<file id="file-1"/>
						<name>bandicam 2025-06-22 23-18-13-912 - Audio</name>
						<rate>
							<timebase>59</timebase>
							<ntsc>FALSE</ntsc>
						</rate>
						<rate>
							<timebase>59</timebase>
							<ntsc>FALSE</ntsc>
						</rate>
						<duration>18</duration>
						<start>8596</start>
						<end>8614</end>
						<in>20145</in>
						<out>20163</out>
					</clipitem>
					<clipitem frameBlend="FALSE" id="audioclip-284">
						<file id="file-1"/>
						<name>bandicam 2025-06-22 23-18-13-912 - Audio</name>
						<rate>
							<timebase>59</timebase>
							<ntsc>FALSE</ntsc>
						</rate>
						<rate>
							<timebase>59</timebase>
							<ntsc>FALSE</ntsc>
						</rate>
						<duration>42</duration>
						<start>8614</start>
						<end>8656</end>
						<in>20270</in>
						<out>20312</out>
					</clipitem>
					<clipitem frameBlend="FALSE" id="audioclip-285">
						<file id="file-1"/>
						<name>bandicam 2025-06-22 23-18-13-912 - Audio</name>
						<rate>
							<timebase>59</timebase>
							<ntsc>FALSE</ntsc>
						</rate>
						<rate>
							<timebase>59</timebase>
							<ntsc>FALSE</ntsc>
						</rate>
						<duration>0</duration>
						<start>8656</start>
						<end>8656</end>
						<in>20330</in>
						<out>20330</out>
					</clipitem>
					<clipitem frameBlend="FALSE" id="audioclip-286">
						<file id="file-1"/>
						<name>bandicam 2025-06-22 23-18-13-912 - Audio</name>
						<rate>
							<timebase>59</timebase>
							<ntsc>FALSE</ntsc>
						</rate>
						<rate>
							<timebase>59</timebase>
							<ntsc>FALSE</ntsc>
						</rate>
						<duration>18</duration>
						<start>8656</start>
						<end>8674</end>
						<in>20348</in>
						<out>20366</out>
					</clipitem>
					<clipitem frameBlend="FALSE" id="audioclip-287">
						<file id="file-1"/>
						<name>bandicam 2025-06-22 23-18-13-912 - Audio</name>
						<rate>
							<timebase>59</timebase>
							<ntsc>FALSE</ntsc>
						</rate>
						<rate>
							<timebase>59</timebase>
							<ntsc>FALSE</ntsc>
						</rate>
						<duration>0</duration>
						<start>8674</start>
						<end>8674</end>
						<in>20419</in>
						<out>20419</out>
					</clipitem>
					<clipitem frameBlend="FALSE" id="audioclip-288">
						<file id="file-1"/>
						<name>bandicam 2025-06-22 23-18-13-912 - Audio</name>
						<rate>
							<timebase>59</timebase>
							<ntsc>FALSE</ntsc>
						</rate>
						<rate>
							<timebase>59</timebase>
							<ntsc>FALSE</ntsc>
						</rate>
						<duration>6</duration>
						<start>8674</start>
						<end>8680</end>
						<in>20437</in>
						<out>20443</out>
					</clipitem>
					<clipitem frameBlend="FALSE" id="audioclip-289">
						<file id="file-1"/>
						<name>bandicam 2025-06-22 23-18-13-912 - Audio</name>
						<rate>
							<timebase>59</timebase>
							<ntsc>FALSE</ntsc>
						</rate>
						<rate>
							<timebase>59</timebase>
							<ntsc>FALSE</ntsc>
						</rate>
						<duration>18</duration>
						<start>8680</start>
						<end>8698</end>
						<in>20461</in>
						<out>20479</out>
					</clipitem>
					<clipitem frameBlend="FALSE" id="audioclip-290">
						<file id="file-1"/>
						<name>bandicam 2025-06-22 23-18-13-912 - Audio</name>
						<rate>
							<timebase>59</timebase>
							<ntsc>FALSE</ntsc>
						</rate>
						<rate>
							<timebase>59</timebase>
							<ntsc>FALSE</ntsc>
						</rate>
						<duration>89</duration>
						<start>8698</start>
						<end>8787</end>
						<in>20557</in>
						<out>20646</out>
					</clipitem>
					<clipitem frameBlend="FALSE" id="audioclip-291">
						<file id="file-1"/>
						<name>bandicam 2025-06-22 23-18-13-912 - Audio</name>
						<rate>
							<timebase>59</timebase>
							<ntsc>FALSE</ntsc>
						</rate>
						<rate>
							<timebase>59</timebase>
							<ntsc>FALSE</ntsc>
						</rate>
						<duration>30</duration>
						<start>8787</start>
						<end>8817</end>
						<in>20658</in>
						<out>20688</out>
					</clipitem>
					<clipitem frameBlend="FALSE" id="audioclip-292">
						<file id="file-1"/>
						<name>bandicam 2025-06-22 23-18-13-912 - Audio</name>
						<rate>
							<timebase>59</timebase>
							<ntsc>FALSE</ntsc>
						</rate>
						<rate>
							<timebase>59</timebase>
							<ntsc>FALSE</ntsc>
						</rate>
						<duration>48</duration>
						<start>8817</start>
						<end>8865</end>
						<in>20700</in>
						<out>20748</out>
					</clipitem>
					<clipitem frameBlend="FALSE" id="audioclip-293">
						<file id="file-1"/>
						<name>bandicam 2025-06-22 23-18-13-912 - Audio</name>
						<rate>
							<timebase>59</timebase>
							<ntsc>FALSE</ntsc>
						</rate>
						<rate>
							<timebase>59</timebase>
							<ntsc>FALSE</ntsc>
						</rate>
						<duration>18</duration>
						<start>8865</start>
						<end>8883</end>
						<in>20766</in>
						<out>20784</out>
					</clipitem>
					<clipitem frameBlend="FALSE" id="audioclip-294">
						<file id="file-1"/>
						<name>bandicam 2025-06-22 23-18-13-912 - Audio</name>
						<rate>
							<timebase>59</timebase>
							<ntsc>FALSE</ntsc>
						</rate>
						<rate>
							<timebase>59</timebase>
							<ntsc>FALSE</ntsc>
						</rate>
						<duration>18</duration>
						<start>8883</start>
						<end>8901</end>
						<in>20796</in>
						<out>20814</out>
					</clipitem>
					<clipitem frameBlend="FALSE" id="audioclip-295">
						<file id="file-1"/>
						<name>bandicam 2025-06-22 23-18-13-912 - Audio</name>
						<rate>
							<timebase>59</timebase>
							<ntsc>FALSE</ntsc>
						</rate>
						<rate>
							<timebase>59</timebase>
							<ntsc>FALSE</ntsc>
						</rate>
						<duration>215</duration>
						<start>8901</start>
						<end>9116</end>
						<in>20838</in>
						<out>21053</out>
					</clipitem>
					<clipitem frameBlend="FALSE" id="audioclip-296">
						<file id="file-1"/>
						<name>bandicam 2025-06-22 23-18-13-912 - Audio</name>
						<rate>
							<timebase>59</timebase>
							<ntsc>FALSE</ntsc>
						</rate>
						<rate>
							<timebase>59</timebase>
							<ntsc>FALSE</ntsc>
						</rate>
						<duration>0</duration>
						<start>9116</start>
						<end>9116</end>
						<in>21077</in>
						<out>21077</out>
					</clipitem>
					<clipitem frameBlend="FALSE" id="audioclip-297">
						<file id="file-1"/>
						<name>bandicam 2025-06-22 23-18-13-912 - Audio</name>
						<rate>
							<timebase>59</timebase>
							<ntsc>FALSE</ntsc>
						</rate>
						<rate>
							<timebase>59</timebase>
							<ntsc>FALSE</ntsc>
						</rate>
						<duration>77</duration>
						<start>9116</start>
						<end>9193</end>
						<in>21089</in>
						<out>21166</out>
					</clipitem>
					<clipitem frameBlend="FALSE" id="audioclip-298">
						<file id="file-1"/>
						<name>bandicam 2025-06-22 23-18-13-912 - Audio</name>
						<rate>
							<timebase>59</timebase>
							<ntsc>FALSE</ntsc>
						</rate>
						<rate>
							<timebase>59</timebase>
							<ntsc>FALSE</ntsc>
						</rate>
						<duration>48</duration>
						<start>9193</start>
						<end>9241</end>
						<in>21178</in>
						<out>21226</out>
					</clipitem>
					<clipitem frameBlend="FALSE" id="audioclip-299">
						<file id="file-1"/>
						<name>bandicam 2025-06-22 23-18-13-912 - Audio</name>
						<rate>
							<timebase>59</timebase>
							<ntsc>FALSE</ntsc>
						</rate>
						<rate>
							<timebase>59</timebase>
							<ntsc>FALSE</ntsc>
						</rate>
						<duration>101</duration>
						<start>9241</start>
						<end>9342</end>
						<in>21244</in>
						<out>21345</out>
					</clipitem>
					<clipitem frameBlend="FALSE" id="audioclip-300">
						<file id="file-1"/>
						<name>bandicam 2025-06-22 23-18-13-912 - Audio</name>
						<rate>
							<timebase>59</timebase>
							<ntsc>FALSE</ntsc>
						</rate>
						<rate>
							<timebase>59</timebase>
							<ntsc>FALSE</ntsc>
						</rate>
						<duration>42</duration>
						<start>9342</start>
						<end>9384</end>
						<in>21369</in>
						<out>21411</out>
					</clipitem>
					<clipitem frameBlend="FALSE" id="audioclip-301">
						<file id="file-1"/>
						<name>bandicam 2025-06-22 23-18-13-912 - Audio</name>
						<rate>
							<timebase>59</timebase>
							<ntsc>FALSE</ntsc>
						</rate>
						<rate>
							<timebase>59</timebase>
							<ntsc>FALSE</ntsc>
						</rate>
						<duration>6</duration>
						<start>9384</start>
						<end>9390</end>
						<in>21423</in>
						<out>21429</out>
					</clipitem>
					<clipitem frameBlend="FALSE" id="audioclip-302">
						<file id="file-1"/>
						<name>bandicam 2025-06-22 23-18-13-912 - Audio</name>
						<rate>
							<timebase>59</timebase>
							<ntsc>FALSE</ntsc>
						</rate>
						<rate>
							<timebase>59</timebase>
							<ntsc>FALSE</ntsc>
						</rate>
						<duration>48</duration>
						<start>9390</start>
						<end>9438</end>
						<in>21447</in>
						<out>21495</out>
					</clipitem>
					<clipitem frameBlend="FALSE" id="audioclip-303">
						<file id="file-1"/>
						<name>bandicam 2025-06-22 23-18-13-912 - Audio</name>
						<rate>
							<timebase>59</timebase>
							<ntsc>FALSE</ntsc>
						</rate>
						<rate>
							<timebase>59</timebase>
							<ntsc>FALSE</ntsc>
						</rate>
						<duration>30</duration>
						<start>9438</start>
						<end>9468</end>
						<in>21507</in>
						<out>21537</out>
					</clipitem>
					<clipitem frameBlend="FALSE" id="audioclip-304">
						<file id="file-1"/>
						<name>bandicam 2025-06-22 23-18-13-912 - Audio</name>
						<rate>
							<timebase>59</timebase>
							<ntsc>FALSE</ntsc>
						</rate>
						<rate>
							<timebase>59</timebase>
							<ntsc>FALSE</ntsc>
						</rate>
						<duration>17</duration>
						<start>9468</start>
						<end>9485</end>
						<in>21555</in>
						<out>21572</out>
					</clipitem>
					<clipitem frameBlend="FALSE" id="audioclip-305">
						<file id="file-1"/>
						<name>bandicam 2025-06-22 23-18-13-912 - Audio</name>
						<rate>
							<timebase>59</timebase>
							<ntsc>FALSE</ntsc>
						</rate>
						<rate>
							<timebase>59</timebase>
							<ntsc>FALSE</ntsc>
						</rate>
						<duration>48</duration>
						<start>9485</start>
						<end>9533</end>
						<in>21596</in>
						<out>21644</out>
					</clipitem>
					<clipitem frameBlend="FALSE" id="audioclip-306">
						<file id="file-1"/>
						<name>bandicam 2025-06-22 23-18-13-912 - Audio</name>
						<rate>
							<timebase>59</timebase>
							<ntsc>FALSE</ntsc>
						</rate>
						<rate>
							<timebase>59</timebase>
							<ntsc>FALSE</ntsc>
						</rate>
						<duration>6</duration>
						<start>9533</start>
						<end>9539</end>
						<in>21656</in>
						<out>21662</out>
					</clipitem>
					<clipitem frameBlend="FALSE" id="audioclip-307">
						<file id="file-1"/>
						<name>bandicam 2025-06-22 23-18-13-912 - Audio</name>
						<rate>
							<timebase>59</timebase>
							<ntsc>FALSE</ntsc>
						</rate>
						<rate>
							<timebase>59</timebase>
							<ntsc>FALSE</ntsc>
						</rate>
						<duration>48</duration>
						<start>9539</start>
						<end>9587</end>
						<in>21680</in>
						<out>21728</out>
					</clipitem>
					<clipitem frameBlend="FALSE" id="audioclip-308">
						<file id="file-1"/>
						<name>bandicam 2025-06-22 23-18-13-912 - Audio</name>
						<rate>
							<timebase>59</timebase>
							<ntsc>FALSE</ntsc>
						</rate>
						<rate>
							<timebase>59</timebase>
							<ntsc>FALSE</ntsc>
						</rate>
						<duration>191</duration>
						<start>9587</start>
						<end>9778</end>
						<in>21740</in>
						<out>21931</out>
					</clipitem>
					<clipitem frameBlend="FALSE" id="audioclip-309">
						<file id="file-1"/>
						<name>bandicam 2025-06-22 23-18-13-912 - Audio</name>
						<rate>
							<timebase>59</timebase>
							<ntsc>FALSE</ntsc>
						</rate>
						<rate>
							<timebase>59</timebase>
							<ntsc>FALSE</ntsc>
						</rate>
						<duration>6</duration>
						<start>9778</start>
						<end>9784</end>
						<in>21991</in>
						<out>21997</out>
					</clipitem>
					<clipitem frameBlend="FALSE" id="audioclip-310">
						<file id="file-1"/>
						<name>bandicam 2025-06-22 23-18-13-912 - Audio</name>
						<rate>
							<timebase>59</timebase>
							<ntsc>FALSE</ntsc>
						</rate>
						<rate>
							<timebase>59</timebase>
							<ntsc>FALSE</ntsc>
						</rate>
						<duration>23</duration>
						<start>9784</start>
						<end>9807</end>
						<in>22021</in>
						<out>22044</out>
					</clipitem>
					<clipitem frameBlend="FALSE" id="audioclip-311">
						<file id="file-1"/>
						<name>bandicam 2025-06-22 23-18-13-912 - Audio</name>
						<rate>
							<timebase>59</timebase>
							<ntsc>FALSE</ntsc>
						</rate>
						<rate>
							<timebase>59</timebase>
							<ntsc>FALSE</ntsc>
						</rate>
						<duration>48</duration>
						<start>9807</start>
						<end>9855</end>
						<in>22056</in>
						<out>22104</out>
					</clipitem>
					<clipitem frameBlend="FALSE" id="audioclip-312">
						<file id="file-1"/>
						<name>bandicam 2025-06-22 23-18-13-912 - Audio</name>
						<rate>
							<timebase>59</timebase>
							<ntsc>FALSE</ntsc>
						</rate>
						<rate>
							<timebase>59</timebase>
							<ntsc>FALSE</ntsc>
						</rate>
						<duration>12</duration>
						<start>9855</start>
						<end>9867</end>
						<in>22122</in>
						<out>22134</out>
					</clipitem>
					<clipitem frameBlend="FALSE" id="audioclip-313">
						<file id="file-1"/>
						<name>bandicam 2025-06-22 23-18-13-912 - Audio</name>
						<rate>
							<timebase>59</timebase>
							<ntsc>FALSE</ntsc>
						</rate>
						<rate>
							<timebase>59</timebase>
							<ntsc>FALSE</ntsc>
						</rate>
						<duration>24</duration>
						<start>9867</start>
						<end>9891</end>
						<in>22158</in>
						<out>22182</out>
					</clipitem>
					<clipitem frameBlend="FALSE" id="audioclip-314">
						<file id="file-1"/>
						<name>bandicam 2025-06-22 23-18-13-912 - Audio</name>
						<rate>
							<timebase>59</timebase>
							<ntsc>FALSE</ntsc>
						</rate>
						<rate>
							<timebase>59</timebase>
							<ntsc>FALSE</ntsc>
						</rate>
						<duration>18</duration>
						<start>9891</start>
						<end>9909</end>
						<in>22206</in>
						<out>22224</out>
					</clipitem>
					<clipitem frameBlend="FALSE" id="audioclip-315">
						<file id="file-1"/>
						<name>bandicam 2025-06-22 23-18-13-912 - Audio</name>
						<rate>
							<timebase>59</timebase>
							<ntsc>FALSE</ntsc>
						</rate>
						<rate>
							<timebase>59</timebase>
							<ntsc>FALSE</ntsc>
						</rate>
						<duration>12</duration>
						<start>9909</start>
						<end>9921</end>
						<in>22236</in>
						<out>22248</out>
					</clipitem>
					<clipitem frameBlend="FALSE" id="audioclip-316">
						<file id="file-1"/>
						<name>bandicam 2025-06-22 23-18-13-912 - Audio</name>
						<rate>
							<timebase>59</timebase>
							<ntsc>FALSE</ntsc>
						</rate>
						<rate>
							<timebase>59</timebase>
							<ntsc>FALSE</ntsc>
						</rate>
						<duration>30</duration>
						<start>9921</start>
						<end>9951</end>
						<in>22277</in>
						<out>22307</out>
					</clipitem>
					<clipitem frameBlend="FALSE" id="audioclip-317">
						<file id="file-1"/>
						<name>bandicam 2025-06-22 23-18-13-912 - Audio</name>
						<rate>
							<timebase>59</timebase>
							<ntsc>FALSE</ntsc>
						</rate>
						<rate>
							<timebase>59</timebase>
							<ntsc>FALSE</ntsc>
						</rate>
						<duration>48</duration>
						<start>9951</start>
						<end>9999</end>
						<in>22325</in>
						<out>22373</out>
					</clipitem>
					<clipitem frameBlend="FALSE" id="audioclip-318">
						<file id="file-1"/>
						<name>bandicam 2025-06-22 23-18-13-912 - Audio</name>
						<rate>
							<timebase>59</timebase>
							<ntsc>FALSE</ntsc>
						</rate>
						<rate>
							<timebase>59</timebase>
							<ntsc>FALSE</ntsc>
						</rate>
						<duration>0</duration>
						<start>9999</start>
						<end>9999</end>
						<in>22415</in>
						<out>22415</out>
					</clipitem>
					<clipitem frameBlend="FALSE" id="audioclip-319">
						<file id="file-1"/>
						<name>bandicam 2025-06-22 23-18-13-912 - Audio</name>
						<rate>
							<timebase>59</timebase>
							<ntsc>FALSE</ntsc>
						</rate>
						<rate>
							<timebase>59</timebase>
							<ntsc>FALSE</ntsc>
						</rate>
						<duration>6</duration>
						<start>9999</start>
						<end>10005</end>
						<in>22457</in>
						<out>22463</out>
					</clipitem>
					<clipitem frameBlend="FALSE" id="audioclip-320">
						<file id="file-1"/>
						<name>bandicam 2025-06-22 23-18-13-912 - Audio</name>
						<rate>
							<timebase>59</timebase>
							<ntsc>FALSE</ntsc>
						</rate>
						<rate>
							<timebase>59</timebase>
							<ntsc>FALSE</ntsc>
						</rate>
						<duration>17</duration>
						<start>10005</start>
						<end>10022</end>
						<in>22481</in>
						<out>22498</out>
					</clipitem>
					<clipitem frameBlend="FALSE" id="audioclip-321">
						<file id="file-1"/>
						<name>bandicam 2025-06-22 23-18-13-912 - Audio</name>
						<rate>
							<timebase>59</timebase>
							<ntsc>FALSE</ntsc>
						</rate>
						<rate>
							<timebase>59</timebase>
							<ntsc>FALSE</ntsc>
						</rate>
						<duration>66</duration>
						<start>10022</start>
						<end>10088</end>
						<in>22522</in>
						<out>22588</out>
					</clipitem>
					<clipitem frameBlend="FALSE" id="audioclip-322">
						<file id="file-1"/>
						<name>bandicam 2025-06-22 23-18-13-912 - Audio</name>
						<rate>
							<timebase>59</timebase>
							<ntsc>FALSE</ntsc>
						</rate>
						<rate>
							<timebase>59</timebase>
							<ntsc>FALSE</ntsc>
						</rate>
						<duration>233</duration>
						<start>10088</start>
						<end>10321</end>
						<in>22612</in>
						<out>22845</out>
					</clipitem>
					<clipitem frameBlend="FALSE" id="audioclip-323">
						<file id="file-1"/>
						<name>bandicam 2025-06-22 23-18-13-912 - Audio</name>
						<rate>
							<timebase>59</timebase>
							<ntsc>FALSE</ntsc>
						</rate>
						<rate>
							<timebase>59</timebase>
							<ntsc>FALSE</ntsc>
						</rate>
						<duration>78</duration>
						<start>10321</start>
						<end>10399</end>
						<in>22863</in>
						<out>22941</out>
					</clipitem>
					<clipitem frameBlend="FALSE" id="audioclip-324">
						<file id="file-1"/>
						<name>bandicam 2025-06-22 23-18-13-912 - Audio</name>
						<rate>
							<timebase>59</timebase>
							<ntsc>FALSE</ntsc>
						</rate>
						<rate>
							<timebase>59</timebase>
							<ntsc>FALSE</ntsc>
						</rate>
						<duration>36</duration>
						<start>10399</start>
						<end>10435</end>
						<in>22964</in>
						<out>23000</out>
					</clipitem>
					<clipitem frameBlend="FALSE" id="audioclip-325">
						<file id="file-1"/>
						<name>bandicam 2025-06-22 23-18-13-912 - Audio</name>
						<rate>
							<timebase>59</timebase>
							<ntsc>FALSE</ntsc>
						</rate>
						<rate>
							<timebase>59</timebase>
							<ntsc>FALSE</ntsc>
						</rate>
						<duration>60</duration>
						<start>10435</start>
						<end>10495</end>
						<in>23012</in>
						<out>23072</out>
					</clipitem>
					<clipitem frameBlend="FALSE" id="audioclip-326">
						<file id="file-1"/>
						<name>bandicam 2025-06-22 23-18-13-912 - Audio</name>
						<rate>
							<timebase>59</timebase>
							<ntsc>FALSE</ntsc>
						</rate>
						<rate>
							<timebase>59</timebase>
							<ntsc>FALSE</ntsc>
						</rate>
						<duration>6</duration>
						<start>10495</start>
						<end>10501</end>
						<in>23215</in>
						<out>23221</out>
					</clipitem>
					<clipitem frameBlend="FALSE" id="audioclip-327">
						<file id="file-1"/>
						<name>bandicam 2025-06-22 23-18-13-912 - Audio</name>
						<rate>
							<timebase>59</timebase>
							<ntsc>FALSE</ntsc>
						</rate>
						<rate>
							<timebase>59</timebase>
							<ntsc>FALSE</ntsc>
						</rate>
						<duration>6</duration>
						<start>10501</start>
						<end>10507</end>
						<in>23239</in>
						<out>23245</out>
					</clipitem>
					<clipitem frameBlend="FALSE" id="audioclip-328">
						<file id="file-1"/>
						<name>bandicam 2025-06-22 23-18-13-912 - Audio</name>
						<rate>
							<timebase>59</timebase>
							<ntsc>FALSE</ntsc>
						</rate>
						<rate>
							<timebase>59</timebase>
							<ntsc>FALSE</ntsc>
						</rate>
						<duration>30</duration>
						<start>10507</start>
						<end>10537</end>
						<in>23269</in>
						<out>23299</out>
					</clipitem>
					<clipitem frameBlend="FALSE" id="audioclip-329">
						<file id="file-1"/>
						<name>bandicam 2025-06-22 23-18-13-912 - Audio</name>
						<rate>
							<timebase>59</timebase>
							<ntsc>FALSE</ntsc>
						</rate>
						<rate>
							<timebase>59</timebase>
							<ntsc>FALSE</ntsc>
						</rate>
						<duration>18</duration>
						<start>10537</start>
						<end>10555</end>
						<in>23311</in>
						<out>23329</out>
					</clipitem>
					<clipitem frameBlend="FALSE" id="audioclip-330">
						<file id="file-1"/>
						<name>bandicam 2025-06-22 23-18-13-912 - Audio</name>
						<rate>
							<timebase>59</timebase>
							<ntsc>FALSE</ntsc>
						</rate>
						<rate>
							<timebase>59</timebase>
							<ntsc>FALSE</ntsc>
						</rate>
						<duration>6</duration>
						<start>10555</start>
						<end>10561</end>
						<in>23353</in>
						<out>23359</out>
					</clipitem>
					<clipitem frameBlend="FALSE" id="audioclip-331">
						<file id="file-1"/>
						<name>bandicam 2025-06-22 23-18-13-912 - Audio</name>
						<rate>
							<timebase>59</timebase>
							<ntsc>FALSE</ntsc>
						</rate>
						<rate>
							<timebase>59</timebase>
							<ntsc>FALSE</ntsc>
						</rate>
						<duration>0</duration>
						<start>10561</start>
						<end>10561</end>
						<in>23377</in>
						<out>23377</out>
					</clipitem>
					<clipitem frameBlend="FALSE" id="audioclip-332">
						<file id="file-1"/>
						<name>bandicam 2025-06-22 23-18-13-912 - Audio</name>
						<rate>
							<timebase>59</timebase>
							<ntsc>FALSE</ntsc>
						</rate>
						<rate>
							<timebase>59</timebase>
							<ntsc>FALSE</ntsc>
						</rate>
						<duration>0</duration>
						<start>10561</start>
						<end>10561</end>
						<in>23413</in>
						<out>23413</out>
					</clipitem>
					<clipitem frameBlend="FALSE" id="audioclip-333">
						<file id="file-1"/>
						<name>bandicam 2025-06-22 23-18-13-912 - Audio</name>
						<rate>
							<timebase>59</timebase>
							<ntsc>FALSE</ntsc>
						</rate>
						<rate>
							<timebase>59</timebase>
							<ntsc>FALSE</ntsc>
						</rate>
						<duration>0</duration>
						<start>10561</start>
						<end>10561</end>
						<in>23424</in>
						<out>23424</out>
					</clipitem>
					<clipitem frameBlend="FALSE" id="audioclip-334">
						<file id="file-1"/>
						<name>bandicam 2025-06-22 23-18-13-912 - Audio</name>
						<rate>
							<timebase>59</timebase>
							<ntsc>FALSE</ntsc>
						</rate>
						<rate>
							<timebase>59</timebase>
							<ntsc>FALSE</ntsc>
						</rate>
						<duration>6</duration>
						<start>10561</start>
						<end>10567</end>
						<in>23436</in>
						<out>23442</out>
					</clipitem>
					<clipitem frameBlend="FALSE" id="audioclip-335">
						<file id="file-1"/>
						<name>bandicam 2025-06-22 23-18-13-912 - Audio</name>
						<rate>
							<timebase>59</timebase>
							<ntsc>FALSE</ntsc>
						</rate>
						<rate>
							<timebase>59</timebase>
							<ntsc>FALSE</ntsc>
						</rate>
						<duration>12</duration>
						<start>10567</start>
						<end>10579</end>
						<in>23454</in>
						<out>23466</out>
					</clipitem>
					<clipitem frameBlend="FALSE" id="audioclip-336">
						<file id="file-1"/>
						<name>bandicam 2025-06-22 23-18-13-912 - Audio</name>
						<rate>
							<timebase>59</timebase>
							<ntsc>FALSE</ntsc>
						</rate>
						<rate>
							<timebase>59</timebase>
							<ntsc>FALSE</ntsc>
						</rate>
						<duration>78</duration>
						<start>10579</start>
						<end>10657</end>
						<in>23532</in>
						<out>23610</out>
					</clipitem>
					<clipitem frameBlend="FALSE" id="audioclip-337">
						<file id="file-1"/>
						<name>bandicam 2025-06-22 23-18-13-912 - Audio</name>
						<rate>
							<timebase>59</timebase>
							<ntsc>FALSE</ntsc>
						</rate>
						<rate>
							<timebase>59</timebase>
							<ntsc>FALSE</ntsc>
						</rate>
						<duration>155</duration>
						<start>10657</start>
						<end>10812</end>
						<in>23628</in>
						<out>23783</out>
					</clipitem>
					<clipitem frameBlend="FALSE" id="audioclip-338">
						<file id="file-1"/>
						<name>bandicam 2025-06-22 23-18-13-912 - Audio</name>
						<rate>
							<timebase>59</timebase>
							<ntsc>FALSE</ntsc>
						</rate>
						<rate>
							<timebase>59</timebase>
							<ntsc>FALSE</ntsc>
						</rate>
						<duration>0</duration>
						<start>10812</start>
						<end>10812</end>
						<in>23831</in>
						<out>23831</out>
					</clipitem>
					<clipitem frameBlend="FALSE" id="audioclip-339">
						<file id="file-1"/>
						<name>bandicam 2025-06-22 23-18-13-912 - Audio</name>
						<rate>
							<timebase>59</timebase>
							<ntsc>FALSE</ntsc>
						</rate>
						<rate>
							<timebase>59</timebase>
							<ntsc>FALSE</ntsc>
						</rate>
						<duration>59</duration>
						<start>10812</start>
						<end>10871</end>
						<in>23849</in>
						<out>23908</out>
					</clipitem>
					<clipitem frameBlend="FALSE" id="audioclip-340">
						<file id="file-1"/>
						<name>bandicam 2025-06-22 23-18-13-912 - Audio</name>
						<rate>
							<timebase>59</timebase>
							<ntsc>FALSE</ntsc>
						</rate>
						<rate>
							<timebase>59</timebase>
							<ntsc>FALSE</ntsc>
						</rate>
						<duration>18</duration>
						<start>10871</start>
						<end>10889</end>
						<in>23932</in>
						<out>23950</out>
					</clipitem>
					<clipitem frameBlend="FALSE" id="audioclip-341">
						<file id="file-1"/>
						<name>bandicam 2025-06-22 23-18-13-912 - Audio</name>
						<rate>
							<timebase>59</timebase>
							<ntsc>FALSE</ntsc>
						</rate>
						<rate>
							<timebase>59</timebase>
							<ntsc>FALSE</ntsc>
						</rate>
						<duration>6</duration>
						<start>10889</start>
						<end>10895</end>
						<in>23968</in>
						<out>23974</out>
					</clipitem>
					<clipitem frameBlend="FALSE" id="audioclip-342">
						<file id="file-1"/>
						<name>bandicam 2025-06-22 23-18-13-912 - Audio</name>
						<rate>
							<timebase>59</timebase>
							<ntsc>FALSE</ntsc>
						</rate>
						<rate>
							<timebase>59</timebase>
							<ntsc>FALSE</ntsc>
						</rate>
						<duration>72</duration>
						<start>10895</start>
						<end>10967</end>
						<in>23998</in>
						<out>24070</out>
					</clipitem>
					<clipitem frameBlend="FALSE" id="audioclip-343">
						<file id="file-1"/>
						<name>bandicam 2025-06-22 23-18-13-912 - Audio</name>
						<rate>
							<timebase>59</timebase>
							<ntsc>FALSE</ntsc>
						</rate>
						<rate>
							<timebase>59</timebase>
							<ntsc>FALSE</ntsc>
						</rate>
						<duration>6</duration>
						<start>10967</start>
						<end>10973</end>
						<in>24082</in>
						<out>24088</out>
					</clipitem>
					<clipitem frameBlend="FALSE" id="audioclip-344">
						<file id="file-1"/>
						<name>bandicam 2025-06-22 23-18-13-912 - Audio</name>
						<rate>
							<timebase>59</timebase>
							<ntsc>FALSE</ntsc>
						</rate>
						<rate>
							<timebase>59</timebase>
							<ntsc>FALSE</ntsc>
						</rate>
						<duration>0</duration>
						<start>10973</start>
						<end>10973</end>
						<in>24100</in>
						<out>24100</out>
					</clipitem>
					<clipitem frameBlend="FALSE" id="audioclip-345">
						<file id="file-1"/>
						<name>bandicam 2025-06-22 23-18-13-912 - Audio</name>
						<rate>
							<timebase>59</timebase>
							<ntsc>FALSE</ntsc>
						</rate>
						<rate>
							<timebase>59</timebase>
							<ntsc>FALSE</ntsc>
						</rate>
						<duration>24</duration>
						<start>10973</start>
						<end>10997</end>
						<in>24123</in>
						<out>24147</out>
					</clipitem>
					<clipitem frameBlend="FALSE" id="audioclip-346">
						<file id="file-1"/>
						<name>bandicam 2025-06-22 23-18-13-912 - Audio</name>
						<rate>
							<timebase>59</timebase>
							<ntsc>FALSE</ntsc>
						</rate>
						<rate>
							<timebase>59</timebase>
							<ntsc>FALSE</ntsc>
						</rate>
						<duration>6</duration>
						<start>10997</start>
						<end>11003</end>
						<in>24195</in>
						<out>24201</out>
					</clipitem>
					<clipitem frameBlend="FALSE" id="audioclip-347">
						<file id="file-1"/>
						<name>bandicam 2025-06-22 23-18-13-912 - Audio</name>
						<rate>
							<timebase>59</timebase>
							<ntsc>FALSE</ntsc>
						</rate>
						<rate>
							<timebase>59</timebase>
							<ntsc>FALSE</ntsc>
						</rate>
						<duration>24</duration>
						<start>11003</start>
						<end>11027</end>
						<in>24219</in>
						<out>24243</out>
					</clipitem>
					<clipitem frameBlend="FALSE" id="audioclip-348">
						<file id="file-1"/>
						<name>bandicam 2025-06-22 23-18-13-912 - Audio</name>
						<rate>
							<timebase>59</timebase>
							<ntsc>FALSE</ntsc>
						</rate>
						<rate>
							<timebase>59</timebase>
							<ntsc>FALSE</ntsc>
						</rate>
						<duration>0</duration>
						<start>11027</start>
						<end>11027</end>
						<in>24255</in>
						<out>24255</out>
					</clipitem>
					<clipitem frameBlend="FALSE" id="audioclip-349">
						<file id="file-1"/>
						<name>bandicam 2025-06-22 23-18-13-912 - Audio</name>
						<rate>
							<timebase>59</timebase>
							<ntsc>FALSE</ntsc>
						</rate>
						<rate>
							<timebase>59</timebase>
							<ntsc>FALSE</ntsc>
						</rate>
						<duration>12</duration>
						<start>11027</start>
						<end>11039</end>
						<in>24285</in>
						<out>24297</out>
					</clipitem>
					<clipitem frameBlend="FALSE" id="audioclip-350">
						<file id="file-1"/>
						<name>bandicam 2025-06-22 23-18-13-912 - Audio</name>
						<rate>
							<timebase>59</timebase>
							<ntsc>FALSE</ntsc>
						</rate>
						<rate>
							<timebase>59</timebase>
							<ntsc>FALSE</ntsc>
						</rate>
						<duration>84</duration>
						<start>11039</start>
						<end>11123</end>
						<in>24350</in>
						<out>24434</out>
					</clipitem>
					<clipitem frameBlend="FALSE" id="audioclip-351">
						<file id="file-1"/>
						<name>bandicam 2025-06-22 23-18-13-912 - Audio</name>
						<rate>
							<timebase>59</timebase>
							<ntsc>FALSE</ntsc>
						</rate>
						<rate>
							<timebase>59</timebase>
							<ntsc>FALSE</ntsc>
						</rate>
						<duration>24</duration>
						<start>11123</start>
						<end>11147</end>
						<in>24458</in>
						<out>24482</out>
					</clipitem>
					<clipitem frameBlend="FALSE" id="audioclip-352">
						<file id="file-1"/>
						<name>bandicam 2025-06-22 23-18-13-912 - Audio</name>
						<rate>
							<timebase>59</timebase>
							<ntsc>FALSE</ntsc>
						</rate>
						<rate>
							<timebase>59</timebase>
							<ntsc>FALSE</ntsc>
						</rate>
						<duration>83</duration>
						<start>11147</start>
						<end>11230</end>
						<in>24494</in>
						<out>24577</out>
					</clipitem>
					<clipitem frameBlend="FALSE" id="audioclip-353">
						<file id="file-1"/>
						<name>bandicam 2025-06-22 23-18-13-912 - Audio</name>
						<rate>
							<timebase>59</timebase>
							<ntsc>FALSE</ntsc>
						</rate>
						<rate>
							<timebase>59</timebase>
							<ntsc>FALSE</ntsc>
						</rate>
						<duration>6</duration>
						<start>11230</start>
						<end>11236</end>
						<in>24589</in>
						<out>24595</out>
					</clipitem>
					<clipitem frameBlend="FALSE" id="audioclip-354">
						<file id="file-1"/>
						<name>bandicam 2025-06-22 23-18-13-912 - Audio</name>
						<rate>
							<timebase>59</timebase>
							<ntsc>FALSE</ntsc>
						</rate>
						<rate>
							<timebase>59</timebase>
							<ntsc>FALSE</ntsc>
						</rate>
						<duration>30</duration>
						<start>11236</start>
						<end>11266</end>
						<in>24697</in>
						<out>24727</out>
					</clipitem>
					<clipitem frameBlend="FALSE" id="audioclip-355">
						<file id="file-1"/>
						<name>bandicam 2025-06-22 23-18-13-912 - Audio</name>
						<rate>
							<timebase>59</timebase>
							<ntsc>FALSE</ntsc>
						</rate>
						<rate>
							<timebase>59</timebase>
							<ntsc>FALSE</ntsc>
						</rate>
						<duration>12</duration>
						<start>11266</start>
						<end>11278</end>
						<in>24864</in>
						<out>24876</out>
					</clipitem>
					<clipitem frameBlend="FALSE" id="audioclip-356">
						<file id="file-1"/>
						<name>bandicam 2025-06-22 23-18-13-912 - Audio</name>
						<rate>
							<timebase>59</timebase>
							<ntsc>FALSE</ntsc>
						</rate>
						<rate>
							<timebase>59</timebase>
							<ntsc>FALSE</ntsc>
						</rate>
						<duration>12</duration>
						<start>11278</start>
						<end>11290</end>
						<in>24978</in>
						<out>24990</out>
					</clipitem>
					<clipitem frameBlend="FALSE" id="audioclip-357">
						<file id="file-1"/>
						<name>bandicam 2025-06-22 23-18-13-912 - Audio</name>
						<rate>
							<timebase>59</timebase>
							<ntsc>FALSE</ntsc>
						</rate>
						<rate>
							<timebase>59</timebase>
							<ntsc>FALSE</ntsc>
						</rate>
						<duration>0</duration>
						<start>11290</start>
						<end>11290</end>
						<in>25002</in>
						<out>25002</out>
					</clipitem>
					<clipitem frameBlend="FALSE" id="audioclip-358">
						<file id="file-1"/>
						<name>bandicam 2025-06-22 23-18-13-912 - Audio</name>
						<rate>
							<timebase>59</timebase>
							<ntsc>FALSE</ntsc>
						</rate>
						<rate>
							<timebase>59</timebase>
							<ntsc>FALSE</ntsc>
						</rate>
						<duration>30</duration>
						<start>11290</start>
						<end>11320</end>
						<in>25049</in>
						<out>25079</out>
					</clipitem>
					<clipitem frameBlend="FALSE" id="audioclip-359">
						<file id="file-1"/>
						<name>bandicam 2025-06-22 23-18-13-912 - Audio</name>
						<rate>
							<timebase>59</timebase>
							<ntsc>FALSE</ntsc>
						</rate>
						<rate>
							<timebase>59</timebase>
							<ntsc>FALSE</ntsc>
						</rate>
						<duration>24</duration>
						<start>11320</start>
						<end>11344</end>
						<in>25091</in>
						<out>25115</out>
					</clipitem>
					<clipitem frameBlend="FALSE" id="audioclip-360">
						<file id="file-1"/>
						<name>bandicam 2025-06-22 23-18-13-912 - Audio</name>
						<rate>
							<timebase>59</timebase>
							<ntsc>FALSE</ntsc>
						</rate>
						<rate>
							<timebase>59</timebase>
							<ntsc>FALSE</ntsc>
						</rate>
						<duration>54</duration>
						<start>11344</start>
						<end>11398</end>
						<in>25145</in>
						<out>25199</out>
					</clipitem>
					<clipitem frameBlend="FALSE" id="audioclip-361">
						<file id="file-1"/>
						<name>bandicam 2025-06-22 23-18-13-912 - Audio</name>
						<rate>
							<timebase>59</timebase>
							<ntsc>FALSE</ntsc>
						</rate>
						<rate>
							<timebase>59</timebase>
							<ntsc>FALSE</ntsc>
						</rate>
						<duration>12</duration>
						<start>11398</start>
						<end>11410</end>
						<in>25211</in>
						<out>25223</out>
					</clipitem>
					<clipitem frameBlend="FALSE" id="audioclip-362">
						<file id="file-1"/>
						<name>bandicam 2025-06-22 23-18-13-912 - Audio</name>
						<rate>
							<timebase>59</timebase>
							<ntsc>FALSE</ntsc>
						</rate>
						<rate>
							<timebase>59</timebase>
							<ntsc>FALSE</ntsc>
						</rate>
						<duration>0</duration>
						<start>11410</start>
						<end>11410</end>
						<in>25235</in>
						<out>25235</out>
					</clipitem>
					<clipitem frameBlend="FALSE" id="audioclip-363">
						<file id="file-1"/>
						<name>bandicam 2025-06-22 23-18-13-912 - Audio</name>
						<rate>
							<timebase>59</timebase>
							<ntsc>FALSE</ntsc>
						</rate>
						<rate>
							<timebase>59</timebase>
							<ntsc>FALSE</ntsc>
						</rate>
						<duration>0</duration>
						<start>11410</start>
						<end>11410</end>
						<in>25247</in>
						<out>25247</out>
					</clipitem>
					<clipitem frameBlend="FALSE" id="audioclip-364">
						<file id="file-1"/>
						<name>bandicam 2025-06-22 23-18-13-912 - Audio</name>
						<rate>
							<timebase>59</timebase>
							<ntsc>FALSE</ntsc>
						</rate>
						<rate>
							<timebase>59</timebase>
							<ntsc>FALSE</ntsc>
						</rate>
						<duration>12</duration>
						<start>11410</start>
						<end>11422</end>
						<in>25270</in>
						<out>25282</out>
					</clipitem>
					<clipitem frameBlend="FALSE" id="audioclip-365">
						<file id="file-1"/>
						<name>bandicam 2025-06-22 23-18-13-912 - Audio</name>
						<rate>
							<timebase>59</timebase>
							<ntsc>FALSE</ntsc>
						</rate>
						<rate>
							<timebase>59</timebase>
							<ntsc>FALSE</ntsc>
						</rate>
						<duration>0</duration>
						<start>11422</start>
						<end>11422</end>
						<in>25312</in>
						<out>25312</out>
					</clipitem>
					<clipitem frameBlend="FALSE" id="audioclip-366">
						<file id="file-1"/>
						<name>bandicam 2025-06-22 23-18-13-912 - Audio</name>
						<rate>
							<timebase>59</timebase>
							<ntsc>FALSE</ntsc>
						</rate>
						<rate>
							<timebase>59</timebase>
							<ntsc>FALSE</ntsc>
						</rate>
						<duration>6</duration>
						<start>11422</start>
						<end>11428</end>
						<in>25330</in>
						<out>25336</out>
					</clipitem>
					<clipitem frameBlend="FALSE" id="audioclip-367">
						<file id="file-1"/>
						<name>bandicam 2025-06-22 23-18-13-912 - Audio</name>
						<rate>
							<timebase>59</timebase>
							<ntsc>FALSE</ntsc>
						</rate>
						<rate>
							<timebase>59</timebase>
							<ntsc>FALSE</ntsc>
						</rate>
						<duration>18</duration>
						<start>11428</start>
						<end>11446</end>
						<in>25348</in>
						<out>25366</out>
					</clipitem>
					<clipitem frameBlend="FALSE" id="audioclip-368">
						<file id="file-1"/>
						<name>bandicam 2025-06-22 23-18-13-912 - Audio</name>
						<rate>
							<timebase>59</timebase>
							<ntsc>FALSE</ntsc>
						</rate>
						<rate>
							<timebase>59</timebase>
							<ntsc>FALSE</ntsc>
						</rate>
						<duration>54</duration>
						<start>11446</start>
						<end>11500</end>
						<in>25396</in>
						<out>25450</out>
					</clipitem>
					<clipitem frameBlend="FALSE" id="audioclip-369">
						<file id="file-1"/>
						<name>bandicam 2025-06-22 23-18-13-912 - Audio</name>
						<rate>
							<timebase>59</timebase>
							<ntsc>FALSE</ntsc>
						</rate>
						<rate>
							<timebase>59</timebase>
							<ntsc>FALSE</ntsc>
						</rate>
						<duration>0</duration>
						<start>11500</start>
						<end>11500</end>
						<in>25462</in>
						<out>25462</out>
					</clipitem>
					<clipitem frameBlend="FALSE" id="audioclip-370">
						<file id="file-1"/>
						<name>bandicam 2025-06-22 23-18-13-912 - Audio</name>
						<rate>
							<timebase>59</timebase>
							<ntsc>FALSE</ntsc>
						</rate>
						<rate>
							<timebase>59</timebase>
							<ntsc>FALSE</ntsc>
						</rate>
						<duration>6</duration>
						<start>11500</start>
						<end>11506</end>
						<in>25474</in>
						<out>25480</out>
					</clipitem>
					<clipitem frameBlend="FALSE" id="audioclip-371">
						<file id="file-1"/>
						<name>bandicam 2025-06-22 23-18-13-912 - Audio</name>
						<rate>
							<timebase>59</timebase>
							<ntsc>FALSE</ntsc>
						</rate>
						<rate>
							<timebase>59</timebase>
							<ntsc>FALSE</ntsc>
						</rate>
						<duration>78</duration>
						<start>11506</start>
						<end>11584</end>
						<in>25503</in>
						<out>25581</out>
					</clipitem>
					<clipitem frameBlend="FALSE" id="audioclip-372">
						<file id="file-1"/>
						<name>bandicam 2025-06-22 23-18-13-912 - Audio</name>
						<rate>
							<timebase>59</timebase>
							<ntsc>FALSE</ntsc>
						</rate>
						<rate>
							<timebase>59</timebase>
							<ntsc>FALSE</ntsc>
						</rate>
						<duration>0</duration>
						<start>11584</start>
						<end>11584</end>
						<in>25617</in>
						<out>25617</out>
					</clipitem>
					<clipitem frameBlend="FALSE" id="audioclip-373">
						<file id="file-1"/>
						<name>bandicam 2025-06-22 23-18-13-912 - Audio</name>
						<rate>
							<timebase>59</timebase>
							<ntsc>FALSE</ntsc>
						</rate>
						<rate>
							<timebase>59</timebase>
							<ntsc>FALSE</ntsc>
						</rate>
						<duration>42</duration>
						<start>11584</start>
						<end>11626</end>
						<in>25641</in>
						<out>25683</out>
					</clipitem>
					<clipitem frameBlend="FALSE" id="audioclip-374">
						<file id="file-1"/>
						<name>bandicam 2025-06-22 23-18-13-912 - Audio</name>
						<rate>
							<timebase>59</timebase>
							<ntsc>FALSE</ntsc>
						</rate>
						<rate>
							<timebase>59</timebase>
							<ntsc>FALSE</ntsc>
						</rate>
						<duration>83</duration>
						<start>11626</start>
						<end>11709</end>
						<in>25695</in>
						<out>25778</out>
					</clipitem>
					<clipitem frameBlend="FALSE" id="audioclip-375">
						<file id="file-1"/>
						<name>bandicam 2025-06-22 23-18-13-912 - Audio</name>
						<rate>
							<timebase>59</timebase>
							<ntsc>FALSE</ntsc>
						</rate>
						<rate>
							<timebase>59</timebase>
							<ntsc>FALSE</ntsc>
						</rate>
						<duration>18</duration>
						<start>11709</start>
						<end>11727</end>
						<in>25790</in>
						<out>25808</out>
					</clipitem>
					<clipitem frameBlend="FALSE" id="audioclip-376">
						<file id="file-1"/>
						<name>bandicam 2025-06-22 23-18-13-912 - Audio</name>
						<rate>
							<timebase>59</timebase>
							<ntsc>FALSE</ntsc>
						</rate>
						<rate>
							<timebase>59</timebase>
							<ntsc>FALSE</ntsc>
						</rate>
						<duration>6</duration>
						<start>11727</start>
						<end>11733</end>
						<in>25904</in>
						<out>25910</out>
					</clipitem>
					<clipitem frameBlend="FALSE" id="audioclip-377">
						<file id="file-1"/>
						<name>bandicam 2025-06-22 23-18-13-912 - Audio</name>
						<rate>
							<timebase>59</timebase>
							<ntsc>FALSE</ntsc>
						</rate>
						<rate>
							<timebase>59</timebase>
							<ntsc>FALSE</ntsc>
						</rate>
						<duration>53</duration>
						<start>11733</start>
						<end>11786</end>
						<in>25934</in>
						<out>25987</out>
					</clipitem>
					<clipitem frameBlend="FALSE" id="audioclip-378">
						<file id="file-1"/>
						<name>bandicam 2025-06-22 23-18-13-912 - Audio</name>
						<rate>
							<timebase>59</timebase>
							<ntsc>FALSE</ntsc>
						</rate>
						<rate>
							<timebase>59</timebase>
							<ntsc>FALSE</ntsc>
						</rate>
						<duration>0</duration>
						<start>11786</start>
						<end>11786</end>
						<in>26005</in>
						<out>26005</out>
					</clipitem>
					<clipitem frameBlend="FALSE" id="audioclip-379">
						<file id="file-1"/>
						<name>bandicam 2025-06-22 23-18-13-912 - Audio</name>
						<rate>
							<timebase>59</timebase>
							<ntsc>FALSE</ntsc>
						</rate>
						<rate>
							<timebase>59</timebase>
							<ntsc>FALSE</ntsc>
						</rate>
						<duration>18</duration>
						<start>11786</start>
						<end>11804</end>
						<in>26017</in>
						<out>26035</out>
					</clipitem>
					<clipitem frameBlend="FALSE" id="audioclip-380">
						<file id="file-1"/>
						<name>bandicam 2025-06-22 23-18-13-912 - Audio</name>
						<rate>
							<timebase>59</timebase>
							<ntsc>FALSE</ntsc>
						</rate>
						<rate>
							<timebase>59</timebase>
							<ntsc>FALSE</ntsc>
						</rate>
						<duration>6</duration>
						<start>11804</start>
						<end>11810</end>
						<in>26083</in>
						<out>26089</out>
					</clipitem>
					<clipitem frameBlend="FALSE" id="audioclip-381">
						<file id="file-1"/>
						<name>bandicam 2025-06-22 23-18-13-912 - Audio</name>
						<rate>
							<timebase>59</timebase>
							<ntsc>FALSE</ntsc>
						</rate>
						<rate>
							<timebase>59</timebase>
							<ntsc>FALSE</ntsc>
						</rate>
						<duration>89</duration>
						<start>11810</start>
						<end>11899</end>
						<in>26143</in>
						<out>26232</out>
					</clipitem>
					<clipitem frameBlend="FALSE" id="audioclip-382">
						<file id="file-1"/>
						<name>bandicam 2025-06-22 23-18-13-912 - Audio</name>
						<rate>
							<timebase>59</timebase>
							<ntsc>FALSE</ntsc>
						</rate>
						<rate>
							<timebase>59</timebase>
							<ntsc>FALSE</ntsc>
						</rate>
						<duration>12</duration>
						<start>11899</start>
						<end>11911</end>
						<in>26244</in>
						<out>26256</out>
					</clipitem>
					<clipitem frameBlend="FALSE" id="audioclip-383">
						<file id="file-1"/>
						<name>bandicam 2025-06-22 23-18-13-912 - Audio</name>
						<rate>
							<timebase>59</timebase>
							<ntsc>FALSE</ntsc>
						</rate>
						<rate>
							<timebase>59</timebase>
							<ntsc>FALSE</ntsc>
						</rate>
						<duration>0</duration>
						<start>11911</start>
						<end>11911</end>
						<in>26268</in>
						<out>26268</out>
					</clipitem>
					<clipitem frameBlend="FALSE" id="audioclip-384">
						<file id="file-1"/>
						<name>bandicam 2025-06-22 23-18-13-912 - Audio</name>
						<rate>
							<timebase>59</timebase>
							<ntsc>FALSE</ntsc>
						</rate>
						<rate>
							<timebase>59</timebase>
							<ntsc>FALSE</ntsc>
						</rate>
						<duration>72</duration>
						<start>11911</start>
						<end>11983</end>
						<in>26280</in>
						<out>26352</out>
					</clipitem>
					<clipitem frameBlend="FALSE" id="audioclip-385">
						<file id="file-1"/>
						<name>bandicam 2025-06-22 23-18-13-912 - Audio</name>
						<rate>
							<timebase>59</timebase>
							<ntsc>FALSE</ntsc>
						</rate>
						<rate>
							<timebase>59</timebase>
							<ntsc>FALSE</ntsc>
						</rate>
						<duration>18</duration>
						<start>11983</start>
						<end>12001</end>
						<in>26376</in>
						<out>26394</out>
					</clipitem>
					<clipitem frameBlend="FALSE" id="audioclip-386">
						<file id="file-1"/>
						<name>bandicam 2025-06-22 23-18-13-912 - Audio</name>
						<rate>
							<timebase>59</timebase>
							<ntsc>FALSE</ntsc>
						</rate>
						<rate>
							<timebase>59</timebase>
							<ntsc>FALSE</ntsc>
						</rate>
						<duration>203</duration>
						<start>12001</start>
						<end>12204</end>
						<in>26418</in>
						<out>26621</out>
					</clipitem>
					<clipitem frameBlend="FALSE" id="audioclip-387">
						<file id="file-1"/>
						<name>bandicam 2025-06-22 23-18-13-912 - Audio</name>
						<rate>
							<timebase>59</timebase>
							<ntsc>FALSE</ntsc>
						</rate>
						<rate>
							<timebase>59</timebase>
							<ntsc>FALSE</ntsc>
						</rate>
						<duration>77</duration>
						<start>12204</start>
						<end>12281</end>
						<in>26633</in>
						<out>26710</out>
					</clipitem>
					<clipitem frameBlend="FALSE" id="audioclip-388">
						<file id="file-1"/>
						<name>bandicam 2025-06-22 23-18-13-912 - Audio</name>
						<rate>
							<timebase>59</timebase>
							<ntsc>FALSE</ntsc>
						</rate>
						<rate>
							<timebase>59</timebase>
							<ntsc>FALSE</ntsc>
						</rate>
						<duration>30</duration>
						<start>12281</start>
						<end>12311</end>
						<in>26728</in>
						<out>26758</out>
					</clipitem>
					<clipitem frameBlend="FALSE" id="audioclip-389">
						<file id="file-1"/>
						<name>bandicam 2025-06-22 23-18-13-912 - Audio</name>
						<rate>
							<timebase>59</timebase>
							<ntsc>FALSE</ntsc>
						</rate>
						<rate>
							<timebase>59</timebase>
							<ntsc>FALSE</ntsc>
						</rate>
						<duration>18</duration>
						<start>12311</start>
						<end>12329</end>
						<in>26770</in>
						<out>26788</out>
					</clipitem>
					<clipitem frameBlend="FALSE" id="audioclip-390">
						<file id="file-1"/>
						<name>bandicam 2025-06-22 23-18-13-912 - Audio</name>
						<rate>
							<timebase>59</timebase>
							<ntsc>FALSE</ntsc>
						</rate>
						<rate>
							<timebase>59</timebase>
							<ntsc>FALSE</ntsc>
						</rate>
						<duration>24</duration>
						<start>12329</start>
						<end>12353</end>
						<in>26812</in>
						<out>26836</out>
					</clipitem>
					<clipitem frameBlend="FALSE" id="audioclip-391">
						<file id="file-1"/>
						<name>bandicam 2025-06-22 23-18-13-912 - Audio</name>
						<rate>
							<timebase>59</timebase>
							<ntsc>FALSE</ntsc>
						</rate>
						<rate>
							<timebase>59</timebase>
							<ntsc>FALSE</ntsc>
						</rate>
						<duration>6</duration>
						<start>12353</start>
						<end>12359</end>
						<in>26854</in>
						<out>26860</out>
					</clipitem>
					<clipitem frameBlend="FALSE" id="audioclip-392">
						<file id="file-1"/>
						<name>bandicam 2025-06-22 23-18-13-912 - Audio</name>
						<rate>
							<timebase>59</timebase>
							<ntsc>FALSE</ntsc>
						</rate>
						<rate>
							<timebase>59</timebase>
							<ntsc>FALSE</ntsc>
						</rate>
						<duration>47</duration>
						<start>12359</start>
						<end>12406</end>
						<in>26872</in>
						<out>26919</out>
					</clipitem>
					<clipitem frameBlend="FALSE" id="audioclip-393">
						<file id="file-1"/>
						<name>bandicam 2025-06-22 23-18-13-912 - Audio</name>
						<rate>
							<timebase>59</timebase>
							<ntsc>FALSE</ntsc>
						</rate>
						<rate>
							<timebase>59</timebase>
							<ntsc>FALSE</ntsc>
						</rate>
						<duration>96</duration>
						<start>12406</start>
						<end>12502</end>
						<in>26931</in>
						<out>27027</out>
					</clipitem>
					<clipitem frameBlend="FALSE" id="audioclip-394">
						<file id="file-1"/>
						<name>bandicam 2025-06-22 23-18-13-912 - Audio</name>
						<rate>
							<timebase>59</timebase>
							<ntsc>FALSE</ntsc>
						</rate>
						<rate>
							<timebase>59</timebase>
							<ntsc>FALSE</ntsc>
						</rate>
						<duration>6</duration>
						<start>12502</start>
						<end>12508</end>
						<in>27039</in>
						<out>27045</out>
					</clipitem>
					<clipitem frameBlend="FALSE" id="audioclip-395">
						<file id="file-1"/>
						<name>bandicam 2025-06-22 23-18-13-912 - Audio</name>
						<rate>
							<timebase>59</timebase>
							<ntsc>FALSE</ntsc>
						</rate>
						<rate>
							<timebase>59</timebase>
							<ntsc>FALSE</ntsc>
						</rate>
						<duration>12</duration>
						<start>12508</start>
						<end>12520</end>
						<in>27069</in>
						<out>27081</out>
					</clipitem>
					<clipitem frameBlend="FALSE" id="audioclip-396">
						<file id="file-1"/>
						<name>bandicam 2025-06-22 23-18-13-912 - Audio</name>
						<rate>
							<timebase>59</timebase>
							<ntsc>FALSE</ntsc>
						</rate>
						<rate>
							<timebase>59</timebase>
							<ntsc>FALSE</ntsc>
						</rate>
						<duration>24</duration>
						<start>12520</start>
						<end>12544</end>
						<in>27099</in>
						<out>27123</out>
					</clipitem>
					<clipitem frameBlend="FALSE" id="audioclip-397">
						<file id="file-1"/>
						<name>bandicam 2025-06-22 23-18-13-912 - Audio</name>
						<rate>
							<timebase>59</timebase>
							<ntsc>FALSE</ntsc>
						</rate>
						<rate>
							<timebase>59</timebase>
							<ntsc>FALSE</ntsc>
						</rate>
						<duration>114</duration>
						<start>12544</start>
						<end>12658</end>
						<in>27146</in>
						<out>27260</out>
					</clipitem>
					<clipitem frameBlend="FALSE" id="audioclip-398">
						<file id="file-1"/>
						<name>bandicam 2025-06-22 23-18-13-912 - Audio</name>
						<rate>
							<timebase>59</timebase>
							<ntsc>FALSE</ntsc>
						</rate>
						<rate>
							<timebase>59</timebase>
							<ntsc>FALSE</ntsc>
						</rate>
						<duration>6</duration>
						<start>12658</start>
						<end>12664</end>
						<in>27272</in>
						<out>27278</out>
					</clipitem>
					<clipitem frameBlend="FALSE" id="audioclip-399">
						<file id="file-1"/>
						<name>bandicam 2025-06-22 23-18-13-912 - Audio</name>
						<rate>
							<timebase>59</timebase>
							<ntsc>FALSE</ntsc>
						</rate>
						<rate>
							<timebase>59</timebase>
							<ntsc>FALSE</ntsc>
						</rate>
						<duration>48</duration>
						<start>12664</start>
						<end>12712</end>
						<in>27290</in>
						<out>27338</out>
					</clipitem>
					<clipitem frameBlend="FALSE" id="audioclip-400">
						<file id="file-1"/>
						<name>bandicam 2025-06-22 23-18-13-912 - Audio</name>
						<rate>
							<timebase>59</timebase>
							<ntsc>FALSE</ntsc>
						</rate>
						<rate>
							<timebase>59</timebase>
							<ntsc>FALSE</ntsc>
						</rate>
						<duration>42</duration>
						<start>12712</start>
						<end>12754</end>
						<in>27361</in>
						<out>27403</out>
					</clipitem>
					<clipitem frameBlend="FALSE" id="audioclip-401">
						<file id="file-1"/>
						<name>bandicam 2025-06-22 23-18-13-912 - Audio</name>
						<rate>
							<timebase>59</timebase>
							<ntsc>FALSE</ntsc>
						</rate>
						<rate>
							<timebase>59</timebase>
							<ntsc>FALSE</ntsc>
						</rate>
						<duration>48</duration>
						<start>12754</start>
						<end>12802</end>
						<in>27427</in>
						<out>27475</out>
					</clipitem>
					<clipitem frameBlend="FALSE" id="audioclip-402">
						<file id="file-1"/>
						<name>bandicam 2025-06-22 23-18-13-912 - Audio</name>
						<rate>
							<timebase>59</timebase>
							<ntsc>FALSE</ntsc>
						</rate>
						<rate>
							<timebase>59</timebase>
							<ntsc>FALSE</ntsc>
						</rate>
						<duration>54</duration>
						<start>12802</start>
						<end>12856</end>
						<in>27493</in>
						<out>27547</out>
					</clipitem>
					<clipitem frameBlend="FALSE" id="audioclip-403">
						<file id="file-1"/>
						<name>bandicam 2025-06-22 23-18-13-912 - Audio</name>
						<rate>
							<timebase>59</timebase>
							<ntsc>FALSE</ntsc>
						</rate>
						<rate>
							<timebase>59</timebase>
							<ntsc>FALSE</ntsc>
						</rate>
						<duration>41</duration>
						<start>12856</start>
						<end>12897</end>
						<in>27559</in>
						<out>27600</out>
					</clipitem>
					<clipitem frameBlend="FALSE" id="audioclip-404">
						<file id="file-1"/>
						<name>bandicam 2025-06-22 23-18-13-912 - Audio</name>
						<rate>
							<timebase>59</timebase>
							<ntsc>FALSE</ntsc>
						</rate>
						<rate>
							<timebase>59</timebase>
							<ntsc>FALSE</ntsc>
						</rate>
						<duration>30</duration>
						<start>12897</start>
						<end>12927</end>
						<in>27612</in>
						<out>27642</out>
					</clipitem>
					<clipitem frameBlend="FALSE" id="audioclip-405">
						<file id="file-1"/>
						<name>bandicam 2025-06-22 23-18-13-912 - Audio</name>
						<rate>
							<timebase>59</timebase>
							<ntsc>FALSE</ntsc>
						</rate>
						<rate>
							<timebase>59</timebase>
							<ntsc>FALSE</ntsc>
						</rate>
						<duration>6</duration>
						<start>12927</start>
						<end>12933</end>
						<in>27660</in>
						<out>27666</out>
					</clipitem>
					<clipitem frameBlend="FALSE" id="audioclip-406">
						<file id="file-1"/>
						<name>bandicam 2025-06-22 23-18-13-912 - Audio</name>
						<rate>
							<timebase>59</timebase>
							<ntsc>FALSE</ntsc>
						</rate>
						<rate>
							<timebase>59</timebase>
							<ntsc>FALSE</ntsc>
						</rate>
						<duration>54</duration>
						<start>12933</start>
						<end>12987</end>
						<in>27690</in>
						<out>27744</out>
					</clipitem>
					<clipitem frameBlend="FALSE" id="audioclip-407">
						<file id="file-1"/>
						<name>bandicam 2025-06-22 23-18-13-912 - Audio</name>
						<rate>
							<timebase>59</timebase>
							<ntsc>FALSE</ntsc>
						</rate>
						<rate>
							<timebase>59</timebase>
							<ntsc>FALSE</ntsc>
						</rate>
						<duration>30</duration>
						<start>12987</start>
						<end>13017</end>
						<in>27756</in>
						<out>27786</out>
					</clipitem>
					<clipitem frameBlend="FALSE" id="audioclip-408">
						<file id="file-1"/>
						<name>bandicam 2025-06-22 23-18-13-912 - Audio</name>
						<rate>
							<timebase>59</timebase>
							<ntsc>FALSE</ntsc>
						</rate>
						<rate>
							<timebase>59</timebase>
							<ntsc>FALSE</ntsc>
						</rate>
						<duration>23</duration>
						<start>13017</start>
						<end>13040</end>
						<in>27804</in>
						<out>27827</out>
					</clipitem>
					<clipitem frameBlend="FALSE" id="audioclip-409">
						<file id="file-1"/>
						<name>bandicam 2025-06-22 23-18-13-912 - Audio</name>
						<rate>
							<timebase>59</timebase>
							<ntsc>FALSE</ntsc>
						</rate>
						<rate>
							<timebase>59</timebase>
							<ntsc>FALSE</ntsc>
						</rate>
						<duration>42</duration>
						<start>13040</start>
						<end>13082</end>
						<in>27845</in>
						<out>27887</out>
					</clipitem>
					<clipitem frameBlend="FALSE" id="audioclip-410">
						<file id="file-1"/>
						<name>bandicam 2025-06-22 23-18-13-912 - Audio</name>
						<rate>
							<timebase>59</timebase>
							<ntsc>FALSE</ntsc>
						</rate>
						<rate>
							<timebase>59</timebase>
							<ntsc>FALSE</ntsc>
						</rate>
						<duration>114</duration>
						<start>13082</start>
						<end>13196</end>
						<in>27905</in>
						<out>28019</out>
					</clipitem>
					<clipitem frameBlend="FALSE" id="audioclip-411">
						<file id="file-1"/>
						<name>bandicam 2025-06-22 23-18-13-912 - Audio</name>
						<rate>
							<timebase>59</timebase>
							<ntsc>FALSE</ntsc>
						</rate>
						<rate>
							<timebase>59</timebase>
							<ntsc>FALSE</ntsc>
						</rate>
						<duration>12</duration>
						<start>13196</start>
						<end>13208</end>
						<in>28031</in>
						<out>28043</out>
					</clipitem>
					<clipitem frameBlend="FALSE" id="audioclip-412">
						<file id="file-1"/>
						<name>bandicam 2025-06-22 23-18-13-912 - Audio</name>
						<rate>
							<timebase>59</timebase>
							<ntsc>FALSE</ntsc>
						</rate>
						<rate>
							<timebase>59</timebase>
							<ntsc>FALSE</ntsc>
						</rate>
						<duration>12</duration>
						<start>13208</start>
						<end>13220</end>
						<in>28054</in>
						<out>28066</out>
					</clipitem>
					<clipitem frameBlend="FALSE" id="audioclip-413">
						<file id="file-1"/>
						<name>bandicam 2025-06-22 23-18-13-912 - Audio</name>
						<rate>
							<timebase>59</timebase>
							<ntsc>FALSE</ntsc>
						</rate>
						<rate>
							<timebase>59</timebase>
							<ntsc>FALSE</ntsc>
						</rate>
						<duration>72</duration>
						<start>13220</start>
						<end>13292</end>
						<in>28084</in>
						<out>28156</out>
					</clipitem>
					<clipitem frameBlend="FALSE" id="audioclip-414">
						<file id="file-1"/>
						<name>bandicam 2025-06-22 23-18-13-912 - Audio</name>
						<rate>
							<timebase>59</timebase>
							<ntsc>FALSE</ntsc>
						</rate>
						<rate>
							<timebase>59</timebase>
							<ntsc>FALSE</ntsc>
						</rate>
						<duration>257</duration>
						<start>13292</start>
						<end>13549</end>
						<in>28180</in>
						<out>28437</out>
					</clipitem>
					<clipitem frameBlend="FALSE" id="audioclip-415">
						<file id="file-1"/>
						<name>bandicam 2025-06-22 23-18-13-912 - Audio</name>
						<rate>
							<timebase>59</timebase>
							<ntsc>FALSE</ntsc>
						</rate>
						<rate>
							<timebase>59</timebase>
							<ntsc>FALSE</ntsc>
						</rate>
						<duration>101</duration>
						<start>13549</start>
						<end>13650</end>
						<in>28449</in>
						<out>28550</out>
					</clipitem>
					<clipitem frameBlend="FALSE" id="audioclip-416">
						<file id="file-1"/>
						<name>bandicam 2025-06-22 23-18-13-912 - Audio</name>
						<rate>
							<timebase>59</timebase>
							<ntsc>FALSE</ntsc>
						</rate>
						<rate>
							<timebase>59</timebase>
							<ntsc>FALSE</ntsc>
						</rate>
						<duration>102</duration>
						<start>13650</start>
						<end>13752</end>
						<in>28616</in>
						<out>28718</out>
					</clipitem>
					<clipitem frameBlend="FALSE" id="audioclip-417">
						<file id="file-1"/>
						<name>bandicam 2025-06-22 23-18-13-912 - Audio</name>
						<rate>
							<timebase>59</timebase>
							<ntsc>FALSE</ntsc>
						</rate>
						<rate>
							<timebase>59</timebase>
							<ntsc>FALSE</ntsc>
						</rate>
						<duration>6</duration>
						<start>13752</start>
						<end>13758</end>
						<in>28730</in>
						<out>28736</out>
					</clipitem>
					<clipitem frameBlend="FALSE" id="audioclip-418">
						<file id="file-1"/>
						<name>bandicam 2025-06-22 23-18-13-912 - Audio</name>
						<rate>
							<timebase>59</timebase>
							<ntsc>FALSE</ntsc>
						</rate>
						<rate>
							<timebase>59</timebase>
							<ntsc>FALSE</ntsc>
						</rate>
						<duration>96</duration>
						<start>13758</start>
						<end>13854</end>
						<in>28747</in>
						<out>28843</out>
					</clipitem>
					<clipitem frameBlend="FALSE" id="audioclip-419">
						<file id="file-1"/>
						<name>bandicam 2025-06-22 23-18-13-912 - Audio</name>
						<rate>
							<timebase>59</timebase>
							<ntsc>FALSE</ntsc>
						</rate>
						<rate>
							<timebase>59</timebase>
							<ntsc>FALSE</ntsc>
						</rate>
						<duration>149</duration>
						<start>13854</start>
						<end>14003</end>
						<in>28855</in>
						<out>29004</out>
					</clipitem>
					<clipitem frameBlend="FALSE" id="audioclip-420">
						<file id="file-1"/>
						<name>bandicam 2025-06-22 23-18-13-912 - Audio</name>
						<rate>
							<timebase>59</timebase>
							<ntsc>FALSE</ntsc>
						</rate>
						<rate>
							<timebase>59</timebase>
							<ntsc>FALSE</ntsc>
						</rate>
						<duration>6</duration>
						<start>14003</start>
						<end>14009</end>
						<in>29028</in>
						<out>29034</out>
					</clipitem>
					<clipitem frameBlend="FALSE" id="audioclip-421">
						<file id="file-1"/>
						<name>bandicam 2025-06-22 23-18-13-912 - Audio</name>
						<rate>
							<timebase>59</timebase>
							<ntsc>FALSE</ntsc>
						</rate>
						<rate>
							<timebase>59</timebase>
							<ntsc>FALSE</ntsc>
						</rate>
						<duration>84</duration>
						<start>14009</start>
						<end>14093</end>
						<in>29058</in>
						<out>29142</out>
					</clipitem>
					<clipitem frameBlend="FALSE" id="audioclip-422">
						<file id="file-1"/>
						<name>bandicam 2025-06-22 23-18-13-912 - Audio</name>
						<rate>
							<timebase>59</timebase>
							<ntsc>FALSE</ntsc>
						</rate>
						<rate>
							<timebase>59</timebase>
							<ntsc>FALSE</ntsc>
						</rate>
						<duration>24</duration>
						<start>14093</start>
						<end>14117</end>
						<in>29172</in>
						<out>29196</out>
					</clipitem>
					<clipitem frameBlend="FALSE" id="audioclip-423">
						<file id="file-1"/>
						<name>bandicam 2025-06-22 23-18-13-912 - Audio</name>
						<rate>
							<timebase>59</timebase>
							<ntsc>FALSE</ntsc>
						</rate>
						<rate>
							<timebase>59</timebase>
							<ntsc>FALSE</ntsc>
						</rate>
						<duration>18</duration>
						<start>14117</start>
						<end>14135</end>
						<in>29219</in>
						<out>29237</out>
					</clipitem>
					<clipitem frameBlend="FALSE" id="audioclip-424">
						<file id="file-1"/>
						<name>bandicam 2025-06-22 23-18-13-912 - Audio</name>
						<rate>
							<timebase>59</timebase>
							<ntsc>FALSE</ntsc>
						</rate>
						<rate>
							<timebase>59</timebase>
							<ntsc>FALSE</ntsc>
						</rate>
						<duration>132</duration>
						<start>14135</start>
						<end>14267</end>
						<in>29267</in>
						<out>29399</out>
					</clipitem>
					<clipitem frameBlend="FALSE" id="audioclip-425">
						<file id="file-1"/>
						<name>bandicam 2025-06-22 23-18-13-912 - Audio</name>
						<rate>
							<timebase>59</timebase>
							<ntsc>FALSE</ntsc>
						</rate>
						<rate>
							<timebase>59</timebase>
							<ntsc>FALSE</ntsc>
						</rate>
						<duration>0</duration>
						<start>14267</start>
						<end>14267</end>
						<in>29614</in>
						<out>29614</out>
					</clipitem>
					<clipitem frameBlend="FALSE" id="audioclip-426">
						<file id="file-1"/>
						<name>bandicam 2025-06-22 23-18-13-912 - Audio</name>
						<rate>
							<timebase>59</timebase>
							<ntsc>FALSE</ntsc>
						</rate>
						<rate>
							<timebase>59</timebase>
							<ntsc>FALSE</ntsc>
						</rate>
						<duration>24</duration>
						<start>14267</start>
						<end>14291</end>
						<in>29835</in>
						<out>29859</out>
					</clipitem>
				</track>
			</audio>
		</media>
	</sequence>
</xmeml>