<?xml version="1.0" encoding="UTF-8"?>
<!DOCTYPE xmeml>
<xmeml version="4">
	<sequence id="sequence-1">
		<name>bandicam 2025-06-02 00-01-10-144</name>
		<duration>7071</duration>
		<rate>
			<timebase>59</timebase>
			<ntsc>TRUE</ntsc>
		</rate>
		<media>
			<video>
				<format/>
				<track>
					<clipitem frameBlend="FALSE" id="clipitem-1">
						<file id="file-1">
							<pathurl>file://localhost/D:/%E5%88%87%E3%82%8A%E6%8A%9C%E3%81%8D/2025-6/2025-6-02/bandicam%202025-06-02%2000-01-10-144.mp4</pathurl>
							<name>bandicam 2025-06-02 00-01-10-144.mp4</name>
							<rate>
								<timebase>59</timebase>
								<ntsc>TRUE</ntsc>
							</rate>
							<duration>7071</duration>
							<timecode>
								<rate>
									<timebase>59</timebase>
									<ntsc>TRUE</ntsc>
								</rate>
								<string>00:00:00:00</string>
								<frame>0</frame>
								<displayformat>NDF</displayformat>
							</timecode>
							<media>
								<video/>
								<audio/>
							</media>
						</file>
						<name>bandicam 2025-06-02 00-01-10-144</name>
						<rate>
							<timebase>59</timebase>
							<ntsc>TRUE</ntsc>
						</rate>
						<rate>
							<timebase>59</timebase>
							<ntsc>TRUE</ntsc>
						</rate>
						<duration>809</duration>
						<start>0</start>
						<end>809</end>
						<in>0</in>
						<out>809</out>
					</clipitem>
					<clipitem frameBlend="FALSE" id="clipitem-2">
						<file id="file-1"/>
						<name>bandicam 2025-06-02 00-01-10-144</name>
						<rate>
							<timebase>59</timebase>
							<ntsc>TRUE</ntsc>
						</rate>
						<rate>
							<timebase>59</timebase>
							<ntsc>TRUE</ntsc>
						</rate>
						<duration>18</duration>
						<start>809</start>
						<end>827</end>
						<in>905</in>
						<out>923</out>
					</clipitem>
					<clipitem frameBlend="FALSE" id="clipitem-3">
						<file id="file-1"/>
						<name>bandicam 2025-06-02 00-01-10-144</name>
						<rate>
							<timebase>59</timebase>
							<ntsc>TRUE</ntsc>
						</rate>
						<rate>
							<timebase>59</timebase>
							<ntsc>TRUE</ntsc>
						</rate>
						<duration>6083</duration>
						<start>827</start>
						<end>6910</end>
						<in>983</in>
						<out>7066</out>
					</clipitem>
				</track>
				<track>
					<clipitem frameBlend="FALSE" id="clipitem-telop-1">
						<file id="file-2">
							<name>グラフィック</name>
							<mediaSource>GraphicAndType</mediaSource>
							<rate>
								<timebase>59</timebase>
								<ntsc>TRUE</ntsc>
							</rate>
							<timecode>
								<rate>
									<timebase>59</timebase>
									<ntsc>TRUE</ntsc>
								</rate>
								<string>00:00:00:00</string>
								<frame>0</frame>
								<displayformat>NDF</displayformat>
							</timecode>
							<media>
								<video>
									<samplecharacteristics>
										<rate>
											<timebase>58</timebase>
											<ntsc>TRUE</ntsc>
										</rate>
										<width>1080</width>
										<height>1920</height>
										<anamorphic>FALSE</anamorphic>
										<pixelaspectratio>square</pixelaspectratio>
										<fielddominance>none</fielddominance>
									</samplecharacteristics>
								</video>
							</media>
						</file>
						<name>なんか 先来たばっかで 飲食店やろうかなって思ったんですけど</name>
						<rate>
							<timebase>59</timebase>
							<ntsc>TRUE</ntsc>
						</rate>
						<rate>
							<timebase>59</timebase>
							<ntsc>TRUE</ntsc>
						</rate>
						<duration>359</duration>
						<start>0</start>
						<end>359</end>
						<in>0</in>
						<out>359</out>
					</clipitem>
					<clipitem frameBlend="FALSE" id="clipitem-telop-2">
						<file id="file-2"/>
						<name>あれ もし そう</name>
						<rate>
							<timebase>59</timebase>
							<ntsc>TRUE</ntsc>
						</rate>
						<rate>
							<timebase>59</timebase>
							<ntsc>TRUE</ntsc>
						</rate>
						<duration>180</duration>
						<start>359</start>
						<end>539</end>
						<in>0</in>
						<out>180</out>
					</clipitem>
					<clipitem frameBlend="FALSE" id="clipitem-telop-3">
						<file id="file-2"/>
						<name>そう そう</name>
						<rate>
							<timebase>59</timebase>
							<ntsc>TRUE</ntsc>
						</rate>
						<rate>
							<timebase>59</timebase>
							<ntsc>TRUE</ntsc>
						</rate>
						<duration>120</duration>
						<start>539</start>
						<end>659</end>
						<in>0</in>
						<out>120</out>
					</clipitem>
					<clipitem frameBlend="FALSE" id="clipitem-telop-4">
						<file id="file-2"/>
						<name>先に飲食店やってる人たちの 感触聞こうかなと思って</name>
						<rate>
							<timebase>59</timebase>
							<ntsc>TRUE</ntsc>
						</rate>
						<rate>
							<timebase>59</timebase>
							<ntsc>TRUE</ntsc>
						</rate>
						<duration>240</duration>
						<start>659</start>
						<end>899</end>
						<in>0</in>
						<out>240</out>
					</clipitem>
					<clipitem frameBlend="FALSE" id="clipitem-telop-5">
						<file id="file-2"/>
						<name>さっき ペイントさんの ここの人をお勧めって言ってたから</name>
						<rate>
							<timebase>59</timebase>
							<ntsc>TRUE</ntsc>
						</rate>
						<rate>
							<timebase>59</timebase>
							<ntsc>TRUE</ntsc>
						</rate>
						<duration>360</duration>
						<start>899</start>
						<end>1259</end>
						<in>0</in>
						<out>360</out>
					</clipitem>
					<clipitem frameBlend="FALSE" id="clipitem-telop-6">
						<file id="file-2"/>
						<name>まあ でも 楽しいことが 始まる その予感はしてるよ</name>
						<rate>
							<timebase>59</timebase>
							<ntsc>TRUE</ntsc>
						</rate>
						<rate>
							<timebase>59</timebase>
							<ntsc>TRUE</ntsc>
						</rate>
						<duration>180</duration>
						<start>1259</start>
						<end>1439</end>
						<in>0</in>
						<out>180</out>
					</clipitem>
					<clipitem frameBlend="FALSE" id="clipitem-telop-7">
						<file id="file-2"/>
						<name>じゃあ 逆に1人目</name>
						<rate>
							<timebase>59</timebase>
							<ntsc>TRUE</ntsc>
						</rate>
						<rate>
							<timebase>59</timebase>
							<ntsc>TRUE</ntsc>
						</rate>
						<duration>240</duration>
						<start>1439</start>
						<end>1679</end>
						<in>0</in>
						<out>240</out>
					</clipitem>
					<clipitem frameBlend="FALSE" id="clipitem-telop-8">
						<file id="file-2"/>
						<name>1人目 真の客は1人目かも</name>
						<rate>
							<timebase>59</timebase>
							<ntsc>TRUE</ntsc>
						</rate>
						<rate>
							<timebase>59</timebase>
							<ntsc>TRUE</ntsc>
						</rate>
						<duration>300</duration>
						<start>1679</start>
						<end>1979</end>
						<in>0</in>
						<out>300</out>
					</clipitem>
					<clipitem frameBlend="FALSE" id="clipitem-telop-9">
						<file id="file-2"/>
						<name>どうかなぁ でも これ</name>
						<rate>
							<timebase>59</timebase>
							<ntsc>TRUE</ntsc>
						</rate>
						<rate>
							<timebase>59</timebase>
							<ntsc>TRUE</ntsc>
						</rate>
						<duration>120</duration>
						<start>1979</start>
						<end>2099</end>
						<in>0</in>
						<out>120</out>
					</clipitem>
					<clipitem frameBlend="FALSE" id="clipitem-telop-10">
						<file id="file-2"/>
						<name>自然か オススメねつくださーい</name>
						<rate>
							<timebase>59</timebase>
							<ntsc>TRUE</ntsc>
						</rate>
						<rate>
							<timebase>59</timebase>
							<ntsc>TRUE</ntsc>
						</rate>
						<duration>300</duration>
						<start>2099</start>
						<end>2399</end>
						<in>0</in>
						<out>300</out>
					</clipitem>
					<clipitem frameBlend="FALSE" id="clipitem-telop-11">
						<file id="file-2"/>
						<name>オススメ じゃあ 食べ物の用の 両方欲しいですか</name>
						<rate>
							<timebase>59</timebase>
							<ntsc>TRUE</ntsc>
						</rate>
						<rate>
							<timebase>59</timebase>
							<ntsc>TRUE</ntsc>
						</rate>
						<duration>240</duration>
						<start>2399</start>
						<end>2639</end>
						<in>0</in>
						<out>240</out>
					</clipitem>
					<clipitem frameBlend="FALSE" id="clipitem-telop-12">
						<file id="file-2"/>
						<name>はい じゃあ マラカスオバケの1号</name>
						<rate>
							<timebase>59</timebase>
							<ntsc>TRUE</ntsc>
						</rate>
						<rate>
							<timebase>59</timebase>
							<ntsc>TRUE</ntsc>
						</rate>
						<duration>240</duration>
						<start>2639</start>
						<end>2879</end>
						<in>0</in>
						<out>240</out>
					</clipitem>
					<clipitem frameBlend="FALSE" id="clipitem-telop-13">
						<file id="file-2"/>
						<name>1号レトー トーラパンケーキリン じゃない まずは</name>
						<rate>
							<timebase>59</timebase>
							<ntsc>TRUE</ntsc>
						</rate>
						<rate>
							<timebase>59</timebase>
							<ntsc>TRUE</ntsc>
						</rate>
						<duration>120</duration>
						<start>2879</start>
						<end>2999</end>
						<in>0</in>
						<out>120</out>
					</clipitem>
					<clipitem frameBlend="FALSE" id="clipitem-telop-14">
						<file id="file-2"/>
						<name>マラカスオバケの1号</name>
						<rate>
							<timebase>59</timebase>
							<ntsc>TRUE</ntsc>
						</rate>
						<rate>
							<timebase>59</timebase>
							<ntsc>TRUE</ntsc>
						</rate>
						<duration>240</duration>
						<start>2999</start>
						<end>3239</end>
						<in>0</in>
						<out>240</out>
					</clipitem>
					<clipitem frameBlend="FALSE" id="clipitem-telop-15">
						<file id="file-2"/>
						<name>なんなん行きます?</name>
						<rate>
							<timebase>59</timebase>
							<ntsc>TRUE</ntsc>
						</rate>
						<rate>
							<timebase>59</timebase>
							<ntsc>TRUE</ntsc>
						</rate>
						<duration>120</duration>
						<start>3299</start>
						<end>3419</end>
						<in>0</in>
						<out>120</out>
					</clipitem>
					<clipitem frameBlend="FALSE" id="clipitem-telop-16">
						<file id="file-2"/>
						<name>5号で</name>
						<rate>
							<timebase>59</timebase>
							<ntsc>TRUE</ntsc>
						</rate>
						<rate>
							<timebase>59</timebase>
							<ntsc>TRUE</ntsc>
						</rate>
						<duration>119</duration>
						<start>3419</start>
						<end>3538</end>
						<in>0</in>
						<out>119</out>
					</clipitem>
					<clipitem frameBlend="FALSE" id="clipitem-telop-17">
						<file id="file-2"/>
						<name>ラパンケーキ5号と マラカスオバケの1号レゴ入りました</name>
						<rate>
							<timebase>59</timebase>
							<ntsc>TRUE</ntsc>
						</rate>
						<rate>
							<timebase>59</timebase>
							<ntsc>TRUE</ntsc>
						</rate>
						<duration>240</duration>
						<start>3538</start>
						<end>3778</end>
						<in>0</in>
						<out>240</out>
					</clipitem>
					<clipitem frameBlend="FALSE" id="clipitem-telop-18">
						<file id="file-2"/>
						<name>はい</name>
						<rate>
							<timebase>59</timebase>
							<ntsc>TRUE</ntsc>
						</rate>
						<rate>
							<timebase>59</timebase>
							<ntsc>TRUE</ntsc>
						</rate>
						<duration>120</duration>
						<start>3778</start>
						<end>3898</end>
						<in>0</in>
						<out>120</out>
					</clipitem>
					<clipitem frameBlend="FALSE" id="clipitem-telop-19">
						<file id="file-2"/>
						<name>てか 格好すげぇな</name>
						<rate>
							<timebase>59</timebase>
							<ntsc>TRUE</ntsc>
						</rate>
						<rate>
							<timebase>59</timebase>
							<ntsc>TRUE</ntsc>
						</rate>
						<duration>120</duration>
						<start>4018</start>
						<end>4138</end>
						<in>0</in>
						<out>120</out>
					</clipitem>
					<clipitem frameBlend="FALSE" id="clipitem-telop-20">
						<file id="file-2"/>
						<name>材料が食べませんね 今俺ら</name>
						<rate>
							<timebase>59</timebase>
							<ntsc>TRUE</ntsc>
						</rate>
						<rate>
							<timebase>59</timebase>
							<ntsc>TRUE</ntsc>
						</rate>
						<duration>180</duration>
						<start>4138</start>
						<end>4318</end>
						<in>0</in>
						<out>180</out>
					</clipitem>
					<clipitem frameBlend="FALSE" id="clipitem-telop-21">
						<file id="file-2"/>
						<name>ね なんか 受け狙ってますね それ</name>
						<rate>
							<timebase>59</timebase>
							<ntsc>TRUE</ntsc>
						</rate>
						<rate>
							<timebase>59</timebase>
							<ntsc>TRUE</ntsc>
						</rate>
						<duration>180</duration>
						<start>4318</start>
						<end>4498</end>
						<in>0</in>
						<out>180</out>
					</clipitem>
					<clipitem frameBlend="FALSE" id="clipitem-telop-22">
						<file id="file-2"/>
						<name>マジでこみてるね 今 トレーブルで 金稼ぎに行ってるから</name>
						<rate>
							<timebase>59</timebase>
							<ntsc>TRUE</ntsc>
						</rate>
						<rate>
							<timebase>59</timebase>
							<ntsc>TRUE</ntsc>
						</rate>
						<duration>180</duration>
						<start>4498</start>
						<end>4678</end>
						<in>0</in>
						<out>180</out>
					</clipitem>
					<clipitem frameBlend="FALSE" id="clipitem-telop-23">
						<file id="file-2"/>
						<name>ふりっこびだね 食べなかったら終わりだよ俺</name>
						<rate>
							<timebase>59</timebase>
							<ntsc>TRUE</ntsc>
						</rate>
						<rate>
							<timebase>59</timebase>
							<ntsc>TRUE</ntsc>
						</rate>
						<duration>180</duration>
						<start>4678</start>
						<end>4858</end>
						<in>0</in>
						<out>180</out>
					</clipitem>
					<clipitem frameBlend="FALSE" id="clipitem-telop-24">
						<file id="file-2"/>
						<name>こびもこび</name>
						<rate>
							<timebase>59</timebase>
							<ntsc>TRUE</ntsc>
						</rate>
						<rate>
							<timebase>59</timebase>
							<ntsc>TRUE</ntsc>
						</rate>
						<duration>180</duration>
						<start>4918</start>
						<end>5098</end>
						<in>0</in>
						<out>180</out>
					</clipitem>
					<clipitem frameBlend="FALSE" id="clipitem-telop-25">
						<file id="file-2"/>
						<name>全力なんだ</name>
						<rate>
							<timebase>59</timebase>
							<ntsc>TRUE</ntsc>
						</rate>
						<rate>
							<timebase>59</timebase>
							<ntsc>TRUE</ntsc>
						</rate>
						<duration>180</duration>
						<start>5098</start>
						<end>5278</end>
						<in>0</in>
						<out>180</out>
					</clipitem>
					<clipitem frameBlend="FALSE" id="clipitem-telop-26">
						<file id="file-2"/>
						<name>全力で パーと目指してる</name>
						<rate>
							<timebase>59</timebase>
							<ntsc>TRUE</ntsc>
						</rate>
						<rate>
							<timebase>59</timebase>
							<ntsc>TRUE</ntsc>
						</rate>
						<duration>240</duration>
						<start>5278</start>
						<end>5518</end>
						<in>0</in>
						<out>240</out>
					</clipitem>
					<clipitem frameBlend="FALSE" id="clipitem-telop-27">
						<file id="file-2"/>
						<name>パーが目指してるからね</name>
						<rate>
							<timebase>59</timebase>
							<ntsc>TRUE</ntsc>
						</rate>
						<rate>
							<timebase>59</timebase>
							<ntsc>TRUE</ntsc>
						</rate>
						<duration>180</duration>
						<start>5518</start>
						<end>5698</end>
						<in>0</in>
						<out>180</out>
					</clipitem>
					<clipitem frameBlend="FALSE" id="clipitem-telop-28">
						<file id="file-2"/>
						<name>メニューとかも書いてもらえるかもしれないしね</name>
						<rate>
							<timebase>59</timebase>
							<ntsc>TRUE</ntsc>
						</rate>
						<rate>
							<timebase>59</timebase>
							<ntsc>TRUE</ntsc>
						</rate>
						<duration>180</duration>
						<start>5698</start>
						<end>5878</end>
						<in>0</in>
						<out>180</out>
					</clipitem>
					<clipitem frameBlend="FALSE" id="clipitem-telop-29">
						<file id="file-2"/>
						<name>おこびしといたら</name>
						<rate>
							<timebase>59</timebase>
							<ntsc>TRUE</ntsc>
						</rate>
						<rate>
							<timebase>59</timebase>
							<ntsc>TRUE</ntsc>
						</rate>
						<duration>120</duration>
						<start>5878</start>
						<end>5998</end>
						<in>0</in>
						<out>120</out>
					</clipitem>
					<clipitem frameBlend="FALSE" id="clipitem-telop-30">
						<file id="file-2"/>
						<name>おこびだね</name>
						<rate>
							<timebase>59</timebase>
							<ntsc>TRUE</ntsc>
						</rate>
						<rate>
							<timebase>59</timebase>
							<ntsc>TRUE</ntsc>
						</rate>
						<duration>120</duration>
						<start>5998</start>
						<end>6118</end>
						<in>0</in>
						<out>120</out>
					</clipitem>
					<clipitem frameBlend="FALSE" id="clipitem-telop-31">
						<file id="file-2"/>
						<name>これ結構 あれですか シーレー大変?</name>
						<rate>
							<timebase>59</timebase>
							<ntsc>TRUE</ntsc>
						</rate>
						<rate>
							<timebase>59</timebase>
							<ntsc>TRUE</ntsc>
						</rate>
						<duration>180</duration>
						<start>6118</start>
						<end>6298</end>
						<in>0</in>
						<out>180</out>
					</clipitem>
					<clipitem frameBlend="FALSE" id="clipitem-telop-32">
						<file id="file-2"/>
						<name>全然 スーパーだよ</name>
						<rate>
							<timebase>59</timebase>
							<ntsc>TRUE</ntsc>
						</rate>
						<rate>
							<timebase>59</timebase>
							<ntsc>TRUE</ntsc>
						</rate>
						<duration>120</duration>
						<start>6298</start>
						<end>6418</end>
						<in>0</in>
						<out>120</out>
					</clipitem>
					<clipitem frameBlend="FALSE" id="clipitem-telop-33">
						<file id="file-2"/>
						<name>スーパーで買うだけ</name>
						<rate>
							<timebase>59</timebase>
							<ntsc>TRUE</ntsc>
						</rate>
						<rate>
							<timebase>59</timebase>
							<ntsc>TRUE</ntsc>
						</rate>
						<duration>120</duration>
						<start>6418</start>
						<end>6538</end>
						<in>0</in>
						<out>120</out>
					</clipitem>
					<clipitem frameBlend="FALSE" id="clipitem-telop-34">
						<file id="file-2"/>
						<name>スーパーで買うだけなんだ</name>
						<rate>
							<timebase>59</timebase>
							<ntsc>TRUE</ntsc>
						</rate>
						<rate>
							<timebase>59</timebase>
							<ntsc>TRUE</ntsc>
						</rate>
						<duration>180</duration>
						<start>6538</start>
						<end>6718</end>
						<in>0</in>
						<out>180</out>
					</clipitem>
					<clipitem frameBlend="FALSE" id="clipitem-telop-35">
						<file id="file-2"/>
						<name>スーパーが売ってくれてればって感じかな</name>
						<rate>
							<timebase>59</timebase>
							<ntsc>TRUE</ntsc>
						</rate>
						<rate>
							<timebase>59</timebase>
							<ntsc>TRUE</ntsc>
						</rate>
						<duration>180</duration>
						<start>6718</start>
						<end>6898</end>
						<in>0</in>
						<out>180</out>
					</clipitem>
					<clipitem frameBlend="FALSE" id="clipitem-telop-36">
						<file id="file-2"/>
						<name>パーの大変っぽいとは</name>
						<rate>
							<timebase>59</timebase>
							<ntsc>TRUE</ntsc>
						</rate>
						<rate>
							<timebase>59</timebase>
							<ntsc>TRUE</ntsc>
						</rate>
						<duration>120</duration>
						<start>6898</start>
						<end>7018</end>
						<in>0</in>
						<out>120</out>
					</clipitem>
					<clipitem frameBlend="FALSE" id="clipitem-telop-37">
						<file id="file-2"/>
						<name>マラカスオバケの1号レゴ</name>
						<rate>
							<timebase>59</timebase>
							<ntsc>TRUE</ntsc>
						</rate>
						<rate>
							<timebase>59</timebase>
							<ntsc>TRUE</ntsc>
						</rate>
						<duration>179</duration>
						<start>7018</start>
						<end>7197</end>
						<in>0</in>
						<out>179</out>
					</clipitem>
				</track>
			</video>
			<audio>
				<track>
					<clipitem frameBlend="FALSE" id="audioclip-1">
						<file id="file-1"/>
						<name>bandicam 2025-06-02 00-01-10-144 - Audio</name>
						<rate>
							<timebase>59</timebase>
							<ntsc>TRUE</ntsc>
						</rate>
						<rate>
							<timebase>59</timebase>
							<ntsc>TRUE</ntsc>
						</rate>
						<duration>809</duration>
						<start>0</start>
						<end>809</end>
						<in>0</in>
						<out>809</out>
					</clipitem>
					<clipitem frameBlend="FALSE" id="audioclip-2">
						<file id="file-1"/>
						<name>bandicam 2025-06-02 00-01-10-144 - Audio</name>
						<rate>
							<timebase>59</timebase>
							<ntsc>TRUE</ntsc>
						</rate>
						<rate>
							<timebase>59</timebase>
							<ntsc>TRUE</ntsc>
						</rate>
						<duration>18</duration>
						<start>809</start>
						<end>827</end>
						<in>905</in>
						<out>923</out>
					</clipitem>
					<clipitem frameBlend="FALSE" id="audioclip-3">
						<file id="file-1"/>
						<name>bandicam 2025-06-02 00-01-10-144 - Audio</name>
						<rate>
							<timebase>59</timebase>
							<ntsc>TRUE</ntsc>
						</rate>
						<rate>
							<timebase>59</timebase>
							<ntsc>TRUE</ntsc>
						</rate>
						<duration>6083</duration>
						<start>827</start>
						<end>6910</end>
						<in>983</in>
						<out>7066</out>
					</clipitem>
				</track>
			</audio>
		</media>
	</sequence>
</xmeml>