<?xml version="1.0" encoding="UTF-8"?>
<!DOCTYPE xmeml>
<xmeml version="4">
	<sequence id="sequence-1">
		<name>test_video</name>
		<duration>6000</duration>
		<rate>
			<timebase>60</timebase>
			<ntsc>TRUE</ntsc>
		</rate>
		<media>
			<video>
				<format/>
				<track>
				</track>
				<track>
					<clipitem frameBlend="FALSE" id="clipitem-telop-1">
						<file id="file-2">
							<name>グラフィック</name>
							<mediaSource>GraphicAndType</mediaSource>
							<rate>
								<timebase>60</timebase>
								<ntsc>TRUE</ntsc>
							</rate>
							<timecode>
								<rate>
									<timebase>60</timebase>
									<ntsc>TRUE</ntsc>
								</rate>
								<string>00:00:00:00</string>
								<frame>0</frame>
								<displayformat>NDF</displayformat>
							</timecode>
							<media>
								<video>
									<samplecharacteristics>
										<rate>
											<timebase>59</timebase>
											<ntsc>TRUE</ntsc>
										</rate>
										<width>1080</width>
										<height>1920</height>
										<anamorphic>FALSE</anamorphic>
										<pixelaspectratio>square</pixelaspectratio>
										<fielddominance>none</fielddominance>
									</samplecharacteristics>
								</video>
							</media>
						</file>
						<name>テロップ1</name>
						<rate>
							<timebase>60</timebase>
							<ntsc>TRUE</ntsc>
						</rate>
						<rate>
							<timebase>60</timebase>
							<ntsc>TRUE</ntsc>
						</rate>
						<duration>6</duration>
						<start>0</start>
						<end>6</end>
						<in>0</in>
						<out>6</out>
					</clipitem>
					<clipitem frameBlend="FALSE" id="clipitem-telop-2">
						<file id="file-2"/>
						<name>テロップ2</name>
						<rate>
							<timebase>60</timebase>
							<ntsc>TRUE</ntsc>
						</rate>
						<rate>
							<timebase>60</timebase>
							<ntsc>TRUE</ntsc>
						</rate>
						<duration>6</duration>
						<start>12</start>
						<end>18</end>
						<in>0</in>
						<out>6</out>
					</clipitem>
					<clipitem frameBlend="FALSE" id="clipitem-telop-3">
						<file id="file-2"/>
						<name>テロップ3</name>
						<rate>
							<timebase>60</timebase>
							<ntsc>TRUE</ntsc>
						</rate>
						<rate>
							<timebase>60</timebase>
							<ntsc>TRUE</ntsc>
						</rate>
						<duration>6</duration>
						<start>24</start>
						<end>30</end>
						<in>0</in>
						<out>6</out>
					</clipitem>
					<clipitem frameBlend="FALSE" id="clipitem-telop-4">
						<file id="file-2"/>
						<name>テロップ4</name>
						<rate>
							<timebase>60</timebase>
							<ntsc>TRUE</ntsc>
						</rate>
						<rate>
							<timebase>60</timebase>
							<ntsc>TRUE</ntsc>
						</rate>
						<duration>6</duration>
						<start>36</start>
						<end>42</end>
						<in>0</in>
						<out>6</out>
					</clipitem>
					<clipitem frameBlend="FALSE" id="clipitem-telop-5">
						<file id="file-2"/>
						<name>テロップ5</name>
						<rate>
							<timebase>60</timebase>
							<ntsc>TRUE</ntsc>
						</rate>
						<rate>
							<timebase>60</timebase>
							<ntsc>TRUE</ntsc>
						</rate>
						<duration>6</duration>
						<start>48</start>
						<end>54</end>
						<in>0</in>
						<out>6</out>
					</clipitem>
					<clipitem frameBlend="FALSE" id="clipitem-telop-6">
						<file id="file-2"/>
						<name>テロップ6</name>
						<rate>
							<timebase>60</timebase>
							<ntsc>TRUE</ntsc>
						</rate>
						<rate>
							<timebase>60</timebase>
							<ntsc>TRUE</ntsc>
						</rate>
						<duration>6</duration>
						<start>60</start>
						<end>66</end>
						<in>0</in>
						<out>6</out>
					</clipitem>
					<clipitem frameBlend="FALSE" id="clipitem-telop-7">
						<file id="file-2"/>
						<name>テロップ7</name>
						<rate>
							<timebase>60</timebase>
							<ntsc>TRUE</ntsc>
						</rate>
						<rate>
							<timebase>60</timebase>
							<ntsc>TRUE</ntsc>
						</rate>
						<duration>6</duration>
						<start>72</start>
						<end>78</end>
						<in>0</in>
						<out>6</out>
					</clipitem>
					<clipitem frameBlend="FALSE" id="clipitem-telop-8">
						<file id="file-2"/>
						<name>テロップ8</name>
						<rate>
							<timebase>60</timebase>
							<ntsc>TRUE</ntsc>
						</rate>
						<rate>
							<timebase>60</timebase>
							<ntsc>TRUE</ntsc>
						</rate>
						<duration>6</duration>
						<start>84</start>
						<end>90</end>
						<in>0</in>
						<out>6</out>
					</clipitem>
					<clipitem frameBlend="FALSE" id="clipitem-telop-9">
						<file id="file-2"/>
						<name>テロップ9</name>
						<rate>
							<timebase>60</timebase>
							<ntsc>TRUE</ntsc>
						</rate>
						<rate>
							<timebase>60</timebase>
							<ntsc>TRUE</ntsc>
						</rate>
						<duration>6</duration>
						<start>96</start>
						<end>102</end>
						<in>0</in>
						<out>6</out>
					</clipitem>
					<clipitem frameBlend="FALSE" id="clipitem-telop-10">
						<file id="file-2"/>
						<name>テロップ10</name>
						<rate>
							<timebase>60</timebase>
							<ntsc>TRUE</ntsc>
						</rate>
						<rate>
							<timebase>60</timebase>
							<ntsc>TRUE</ntsc>
						</rate>
						<duration>6</duration>
						<start>108</start>
						<end>114</end>
						<in>0</in>
						<out>6</out>
					</clipitem>
					<clipitem frameBlend="FALSE" id="clipitem-telop-11">
						<file id="file-2"/>
						<name>テロップ11</name>
						<rate>
							<timebase>60</timebase>
							<ntsc>TRUE</ntsc>
						</rate>
						<rate>
							<timebase>60</timebase>
							<ntsc>TRUE</ntsc>
						</rate>
						<duration>6</duration>
						<start>120</start>
						<end>126</end>
						<in>0</in>
						<out>6</out>
					</clipitem>
					<clipitem frameBlend="FALSE" id="clipitem-telop-12">
						<file id="file-2"/>
						<name>テロップ12</name>
						<rate>
							<timebase>60</timebase>
							<ntsc>TRUE</ntsc>
						</rate>
						<rate>
							<timebase>60</timebase>
							<ntsc>TRUE</ntsc>
						</rate>
						<duration>6</duration>
						<start>132</start>
						<end>138</end>
						<in>0</in>
						<out>6</out>
					</clipitem>
					<clipitem frameBlend="FALSE" id="clipitem-telop-13">
						<file id="file-2"/>
						<name>テロップ13</name>
						<rate>
							<timebase>60</timebase>
							<ntsc>TRUE</ntsc>
						</rate>
						<rate>
							<timebase>60</timebase>
							<ntsc>TRUE</ntsc>
						</rate>
						<duration>6</duration>
						<start>144</start>
						<end>150</end>
						<in>0</in>
						<out>6</out>
					</clipitem>
					<clipitem frameBlend="FALSE" id="clipitem-telop-14">
						<file id="file-2"/>
						<name>テロップ14</name>
						<rate>
							<timebase>60</timebase>
							<ntsc>TRUE</ntsc>
						</rate>
						<rate>
							<timebase>60</timebase>
							<ntsc>TRUE</ntsc>
						</rate>
						<duration>6</duration>
						<start>156</start>
						<end>162</end>
						<in>0</in>
						<out>6</out>
					</clipitem>
					<clipitem frameBlend="FALSE" id="clipitem-telop-15">
						<file id="file-2"/>
						<name>テロップ15</name>
						<rate>
							<timebase>60</timebase>
							<ntsc>TRUE</ntsc>
						</rate>
						<rate>
							<timebase>60</timebase>
							<ntsc>TRUE</ntsc>
						</rate>
						<duration>6</duration>
						<start>168</start>
						<end>174</end>
						<in>0</in>
						<out>6</out>
					</clipitem>
					<clipitem frameBlend="FALSE" id="clipitem-telop-16">
						<file id="file-2"/>
						<name>テロップ16</name>
						<rate>
							<timebase>60</timebase>
							<ntsc>TRUE</ntsc>
						</rate>
						<rate>
							<timebase>60</timebase>
							<ntsc>TRUE</ntsc>
						</rate>
						<duration>6</duration>
						<start>180</start>
						<end>186</end>
						<in>0</in>
						<out>6</out>
					</clipitem>
					<clipitem frameBlend="FALSE" id="clipitem-telop-17">
						<file id="file-2"/>
						<name>テロップ17</name>
						<rate>
							<timebase>60</timebase>
							<ntsc>TRUE</ntsc>
						</rate>
						<rate>
							<timebase>60</timebase>
							<ntsc>TRUE</ntsc>
						</rate>
						<duration>6</duration>
						<start>192</start>
						<end>198</end>
						<in>0</in>
						<out>6</out>
					</clipitem>
					<clipitem frameBlend="FALSE" id="clipitem-telop-18">
						<file id="file-2"/>
						<name>テロップ18</name>
						<rate>
							<timebase>60</timebase>
							<ntsc>TRUE</ntsc>
						</rate>
						<rate>
							<timebase>60</timebase>
							<ntsc>TRUE</ntsc>
						</rate>
						<duration>6</duration>
						<start>204</start>
						<end>210</end>
						<in>0</in>
						<out>6</out>
					</clipitem>
					<clipitem frameBlend="FALSE" id="clipitem-telop-19">
						<file id="file-2"/>
						<name>テロップ19</name>
						<rate>
							<timebase>60</timebase>
							<ntsc>TRUE</ntsc>
						</rate>
						<rate>
							<timebase>60</timebase>
							<ntsc>TRUE</ntsc>
						</rate>
						<duration>6</duration>
						<start>216</start>
						<end>222</end>
						<in>0</in>
						<out>6</out>
					</clipitem>
					<clipitem frameBlend="FALSE" id="clipitem-telop-20">
						<file id="file-2"/>
						<name>テロップ20</name>
						<rate>
							<timebase>60</timebase>
							<ntsc>TRUE</ntsc>
						</rate>
						<rate>
							<timebase>60</timebase>
							<ntsc>TRUE</ntsc>
						</rate>
						<duration>6</duration>
						<start>228</start>
						<end>234</end>
						<in>0</in>
						<out>6</out>
					</clipitem>
					<clipitem frameBlend="FALSE" id="clipitem-telop-21">
						<file id="file-2"/>
						<name>テロップ21</name>
						<rate>
							<timebase>60</timebase>
							<ntsc>TRUE</ntsc>
						</rate>
						<rate>
							<timebase>60</timebase>
							<ntsc>TRUE</ntsc>
						</rate>
						<duration>6</duration>
						<start>240</start>
						<end>246</end>
						<in>0</in>
						<out>6</out>
					</clipitem>
					<clipitem frameBlend="FALSE" id="clipitem-telop-22">
						<file id="file-2"/>
						<name>テロップ22</name>
						<rate>
							<timebase>60</timebase>
							<ntsc>TRUE</ntsc>
						</rate>
						<rate>
							<timebase>60</timebase>
							<ntsc>TRUE</ntsc>
						</rate>
						<duration>6</duration>
						<start>252</start>
						<end>258</end>
						<in>0</in>
						<out>6</out>
					</clipitem>
					<clipitem frameBlend="FALSE" id="clipitem-telop-23">
						<file id="file-2"/>
						<name>テロップ23</name>
						<rate>
							<timebase>60</timebase>
							<ntsc>TRUE</ntsc>
						</rate>
						<rate>
							<timebase>60</timebase>
							<ntsc>TRUE</ntsc>
						</rate>
						<duration>6</duration>
						<start>264</start>
						<end>270</end>
						<in>0</in>
						<out>6</out>
					</clipitem>
					<clipitem frameBlend="FALSE" id="clipitem-telop-24">
						<file id="file-2"/>
						<name>テロップ24</name>
						<rate>
							<timebase>60</timebase>
							<ntsc>TRUE</ntsc>
						</rate>
						<rate>
							<timebase>60</timebase>
							<ntsc>TRUE</ntsc>
						</rate>
						<duration>6</duration>
						<start>276</start>
						<end>282</end>
						<in>0</in>
						<out>6</out>
					</clipitem>
					<clipitem frameBlend="FALSE" id="clipitem-telop-25">
						<file id="file-2"/>
						<name>テロップ25</name>
						<rate>
							<timebase>60</timebase>
							<ntsc>TRUE</ntsc>
						</rate>
						<rate>
							<timebase>60</timebase>
							<ntsc>TRUE</ntsc>
						</rate>
						<duration>6</duration>
						<start>288</start>
						<end>294</end>
						<in>0</in>
						<out>6</out>
					</clipitem>
					<clipitem frameBlend="FALSE" id="clipitem-telop-26">
						<file id="file-2"/>
						<name>テロップ26</name>
						<rate>
							<timebase>60</timebase>
							<ntsc>TRUE</ntsc>
						</rate>
						<rate>
							<timebase>60</timebase>
							<ntsc>TRUE</ntsc>
						</rate>
						<duration>6</duration>
						<start>300</start>
						<end>306</end>
						<in>0</in>
						<out>6</out>
					</clipitem>
					<clipitem frameBlend="FALSE" id="clipitem-telop-27">
						<file id="file-2"/>
						<name>テロップ27</name>
						<rate>
							<timebase>60</timebase>
							<ntsc>TRUE</ntsc>
						</rate>
						<rate>
							<timebase>60</timebase>
							<ntsc>TRUE</ntsc>
						</rate>
						<duration>6</duration>
						<start>312</start>
						<end>318</end>
						<in>0</in>
						<out>6</out>
					</clipitem>
					<clipitem frameBlend="FALSE" id="clipitem-telop-28">
						<file id="file-2"/>
						<name>テロップ28</name>
						<rate>
							<timebase>60</timebase>
							<ntsc>TRUE</ntsc>
						</rate>
						<rate>
							<timebase>60</timebase>
							<ntsc>TRUE</ntsc>
						</rate>
						<duration>6</duration>
						<start>324</start>
						<end>330</end>
						<in>0</in>
						<out>6</out>
					</clipitem>
					<clipitem frameBlend="FALSE" id="clipitem-telop-29">
						<file id="file-2"/>
						<name>テロップ29</name>
						<rate>
							<timebase>60</timebase>
							<ntsc>TRUE</ntsc>
						</rate>
						<rate>
							<timebase>60</timebase>
							<ntsc>TRUE</ntsc>
						</rate>
						<duration>6</duration>
						<start>336</start>
						<end>342</end>
						<in>0</in>
						<out>6</out>
					</clipitem>
					<clipitem frameBlend="FALSE" id="clipitem-telop-30">
						<file id="file-2"/>
						<name>テロップ30</name>
						<rate>
							<timebase>60</timebase>
							<ntsc>TRUE</ntsc>
						</rate>
						<rate>
							<timebase>60</timebase>
							<ntsc>TRUE</ntsc>
						</rate>
						<duration>6</duration>
						<start>348</start>
						<end>354</end>
						<in>0</in>
						<out>6</out>
					</clipitem>
					<clipitem frameBlend="FALSE" id="clipitem-telop-31">
						<file id="file-2"/>
						<name>テロップ31</name>
						<rate>
							<timebase>60</timebase>
							<ntsc>TRUE</ntsc>
						</rate>
						<rate>
							<timebase>60</timebase>
							<ntsc>TRUE</ntsc>
						</rate>
						<duration>6</duration>
						<start>360</start>
						<end>366</end>
						<in>0</in>
						<out>6</out>
					</clipitem>
					<clipitem frameBlend="FALSE" id="clipitem-telop-32">
						<file id="file-2"/>
						<name>テロップ32</name>
						<rate>
							<timebase>60</timebase>
							<ntsc>TRUE</ntsc>
						</rate>
						<rate>
							<timebase>60</timebase>
							<ntsc>TRUE</ntsc>
						</rate>
						<duration>6</duration>
						<start>372</start>
						<end>378</end>
						<in>0</in>
						<out>6</out>
					</clipitem>
					<clipitem frameBlend="FALSE" id="clipitem-telop-33">
						<file id="file-2"/>
						<name>テロップ33</name>
						<rate>
							<timebase>60</timebase>
							<ntsc>TRUE</ntsc>
						</rate>
						<rate>
							<timebase>60</timebase>
							<ntsc>TRUE</ntsc>
						</rate>
						<duration>6</duration>
						<start>384</start>
						<end>390</end>
						<in>0</in>
						<out>6</out>
					</clipitem>
					<clipitem frameBlend="FALSE" id="clipitem-telop-34">
						<file id="file-2"/>
						<name>テロップ34</name>
						<rate>
							<timebase>60</timebase>
							<ntsc>TRUE</ntsc>
						</rate>
						<rate>
							<timebase>60</timebase>
							<ntsc>TRUE</ntsc>
						</rate>
						<duration>6</duration>
						<start>396</start>
						<end>402</end>
						<in>0</in>
						<out>6</out>
					</clipitem>
					<clipitem frameBlend="FALSE" id="clipitem-telop-35">
						<file id="file-2"/>
						<name>テロップ35</name>
						<rate>
							<timebase>60</timebase>
							<ntsc>TRUE</ntsc>
						</rate>
						<rate>
							<timebase>60</timebase>
							<ntsc>TRUE</ntsc>
						</rate>
						<duration>6</duration>
						<start>408</start>
						<end>414</end>
						<in>0</in>
						<out>6</out>
					</clipitem>
					<clipitem frameBlend="FALSE" id="clipitem-telop-36">
						<file id="file-2"/>
						<name>テロップ36</name>
						<rate>
							<timebase>60</timebase>
							<ntsc>TRUE</ntsc>
						</rate>
						<rate>
							<timebase>60</timebase>
							<ntsc>TRUE</ntsc>
						</rate>
						<duration>6</duration>
						<start>420</start>
						<end>426</end>
						<in>0</in>
						<out>6</out>
					</clipitem>
					<clipitem frameBlend="FALSE" id="clipitem-telop-37">
						<file id="file-2"/>
						<name>テロップ37</name>
						<rate>
							<timebase>60</timebase>
							<ntsc>TRUE</ntsc>
						</rate>
						<rate>
							<timebase>60</timebase>
							<ntsc>TRUE</ntsc>
						</rate>
						<duration>6</duration>
						<start>432</start>
						<end>438</end>
						<in>0</in>
						<out>6</out>
					</clipitem>
					<clipitem frameBlend="FALSE" id="clipitem-telop-38">
						<file id="file-2"/>
						<name>テロップ38</name>
						<rate>
							<timebase>60</timebase>
							<ntsc>TRUE</ntsc>
						</rate>
						<rate>
							<timebase>60</timebase>
							<ntsc>TRUE</ntsc>
						</rate>
						<duration>6</duration>
						<start>444</start>
						<end>450</end>
						<in>0</in>
						<out>6</out>
					</clipitem>
					<clipitem frameBlend="FALSE" id="clipitem-telop-39">
						<file id="file-2"/>
						<name>テロップ39</name>
						<rate>
							<timebase>60</timebase>
							<ntsc>TRUE</ntsc>
						</rate>
						<rate>
							<timebase>60</timebase>
							<ntsc>TRUE</ntsc>
						</rate>
						<duration>6</duration>
						<start>456</start>
						<end>462</end>
						<in>0</in>
						<out>6</out>
					</clipitem>
					<clipitem frameBlend="FALSE" id="clipitem-telop-40">
						<file id="file-2"/>
						<name>テロップ40</name>
						<rate>
							<timebase>60</timebase>
							<ntsc>TRUE</ntsc>
						</rate>
						<rate>
							<timebase>60</timebase>
							<ntsc>TRUE</ntsc>
						</rate>
						<duration>6</duration>
						<start>468</start>
						<end>474</end>
						<in>0</in>
						<out>6</out>
					</clipitem>
					<clipitem frameBlend="FALSE" id="clipitem-telop-41">
						<file id="file-2"/>
						<name>テロップ41</name>
						<rate>
							<timebase>60</timebase>
							<ntsc>TRUE</ntsc>
						</rate>
						<rate>
							<timebase>60</timebase>
							<ntsc>TRUE</ntsc>
						</rate>
						<duration>6</duration>
						<start>480</start>
						<end>486</end>
						<in>0</in>
						<out>6</out>
					</clipitem>
					<clipitem frameBlend="FALSE" id="clipitem-telop-42">
						<file id="file-2"/>
						<name>テロップ42</name>
						<rate>
							<timebase>60</timebase>
							<ntsc>TRUE</ntsc>
						</rate>
						<rate>
							<timebase>60</timebase>
							<ntsc>TRUE</ntsc>
						</rate>
						<duration>6</duration>
						<start>492</start>
						<end>498</end>
						<in>0</in>
						<out>6</out>
					</clipitem>
					<clipitem frameBlend="FALSE" id="clipitem-telop-43">
						<file id="file-2"/>
						<name>テロップ43</name>
						<rate>
							<timebase>60</timebase>
							<ntsc>TRUE</ntsc>
						</rate>
						<rate>
							<timebase>60</timebase>
							<ntsc>TRUE</ntsc>
						</rate>
						<duration>6</duration>
						<start>504</start>
						<end>510</end>
						<in>0</in>
						<out>6</out>
					</clipitem>
					<clipitem frameBlend="FALSE" id="clipitem-telop-44">
						<file id="file-2"/>
						<name>テロップ44</name>
						<rate>
							<timebase>60</timebase>
							<ntsc>TRUE</ntsc>
						</rate>
						<rate>
							<timebase>60</timebase>
							<ntsc>TRUE</ntsc>
						</rate>
						<duration>6</duration>
						<start>516</start>
						<end>522</end>
						<in>0</in>
						<out>6</out>
					</clipitem>
					<clipitem frameBlend="FALSE" id="clipitem-telop-45">
						<file id="file-2"/>
						<name>テロップ45</name>
						<rate>
							<timebase>60</timebase>
							<ntsc>TRUE</ntsc>
						</rate>
						<rate>
							<timebase>60</timebase>
							<ntsc>TRUE</ntsc>
						</rate>
						<duration>6</duration>
						<start>528</start>
						<end>534</end>
						<in>0</in>
						<out>6</out>
					</clipitem>
					<clipitem frameBlend="FALSE" id="clipitem-telop-46">
						<file id="file-2"/>
						<name>テロップ46</name>
						<rate>
							<timebase>60</timebase>
							<ntsc>TRUE</ntsc>
						</rate>
						<rate>
							<timebase>60</timebase>
							<ntsc>TRUE</ntsc>
						</rate>
						<duration>6</duration>
						<start>540</start>
						<end>546</end>
						<in>0</in>
						<out>6</out>
					</clipitem>
					<clipitem frameBlend="FALSE" id="clipitem-telop-47">
						<file id="file-2"/>
						<name>テロップ47</name>
						<rate>
							<timebase>60</timebase>
							<ntsc>TRUE</ntsc>
						</rate>
						<rate>
							<timebase>60</timebase>
							<ntsc>TRUE</ntsc>
						</rate>
						<duration>6</duration>
						<start>552</start>
						<end>558</end>
						<in>0</in>
						<out>6</out>
					</clipitem>
					<clipitem frameBlend="FALSE" id="clipitem-telop-48">
						<file id="file-2"/>
						<name>テロップ48</name>
						<rate>
							<timebase>60</timebase>
							<ntsc>TRUE</ntsc>
						</rate>
						<rate>
							<timebase>60</timebase>
							<ntsc>TRUE</ntsc>
						</rate>
						<duration>6</duration>
						<start>564</start>
						<end>570</end>
						<in>0</in>
						<out>6</out>
					</clipitem>
					<clipitem frameBlend="FALSE" id="clipitem-telop-49">
						<file id="file-2"/>
						<name>テロップ49</name>
						<rate>
							<timebase>60</timebase>
							<ntsc>TRUE</ntsc>
						</rate>
						<rate>
							<timebase>60</timebase>
							<ntsc>TRUE</ntsc>
						</rate>
						<duration>6</duration>
						<start>576</start>
						<end>582</end>
						<in>0</in>
						<out>6</out>
					</clipitem>
					<clipitem frameBlend="FALSE" id="clipitem-telop-50">
						<file id="file-2"/>
						<name>テロップ50</name>
						<rate>
							<timebase>60</timebase>
							<ntsc>TRUE</ntsc>
						</rate>
						<rate>
							<timebase>60</timebase>
							<ntsc>TRUE</ntsc>
						</rate>
						<duration>6</duration>
						<start>588</start>
						<end>594</end>
						<in>0</in>
						<out>6</out>
					</clipitem>
					<clipitem frameBlend="FALSE" id="clipitem-telop-51">
						<file id="file-2"/>
						<name>テロップ51</name>
						<rate>
							<timebase>60</timebase>
							<ntsc>TRUE</ntsc>
						</rate>
						<rate>
							<timebase>60</timebase>
							<ntsc>TRUE</ntsc>
						</rate>
						<duration>6</duration>
						<start>600</start>
						<end>606</end>
						<in>0</in>
						<out>6</out>
					</clipitem>
					<clipitem frameBlend="FALSE" id="clipitem-telop-52">
						<file id="file-2"/>
						<name>テロップ52</name>
						<rate>
							<timebase>60</timebase>
							<ntsc>TRUE</ntsc>
						</rate>
						<rate>
							<timebase>60</timebase>
							<ntsc>TRUE</ntsc>
						</rate>
						<duration>6</duration>
						<start>612</start>
						<end>618</end>
						<in>0</in>
						<out>6</out>
					</clipitem>
					<clipitem frameBlend="FALSE" id="clipitem-telop-53">
						<file id="file-2"/>
						<name>テロップ53</name>
						<rate>
							<timebase>60</timebase>
							<ntsc>TRUE</ntsc>
						</rate>
						<rate>
							<timebase>60</timebase>
							<ntsc>TRUE</ntsc>
						</rate>
						<duration>6</duration>
						<start>624</start>
						<end>630</end>
						<in>0</in>
						<out>6</out>
					</clipitem>
					<clipitem frameBlend="FALSE" id="clipitem-telop-54">
						<file id="file-2"/>
						<name>テロップ54</name>
						<rate>
							<timebase>60</timebase>
							<ntsc>TRUE</ntsc>
						</rate>
						<rate>
							<timebase>60</timebase>
							<ntsc>TRUE</ntsc>
						</rate>
						<duration>6</duration>
						<start>636</start>
						<end>642</end>
						<in>0</in>
						<out>6</out>
					</clipitem>
					<clipitem frameBlend="FALSE" id="clipitem-telop-55">
						<file id="file-2"/>
						<name>テロップ55</name>
						<rate>
							<timebase>60</timebase>
							<ntsc>TRUE</ntsc>
						</rate>
						<rate>
							<timebase>60</timebase>
							<ntsc>TRUE</ntsc>
						</rate>
						<duration>6</duration>
						<start>648</start>
						<end>654</end>
						<in>0</in>
						<out>6</out>
					</clipitem>
					<clipitem frameBlend="FALSE" id="clipitem-telop-56">
						<file id="file-2"/>
						<name>テロップ56</name>
						<rate>
							<timebase>60</timebase>
							<ntsc>TRUE</ntsc>
						</rate>
						<rate>
							<timebase>60</timebase>
							<ntsc>TRUE</ntsc>
						</rate>
						<duration>6</duration>
						<start>660</start>
						<end>666</end>
						<in>0</in>
						<out>6</out>
					</clipitem>
					<clipitem frameBlend="FALSE" id="clipitem-telop-57">
						<file id="file-2"/>
						<name>テロップ57</name>
						<rate>
							<timebase>60</timebase>
							<ntsc>TRUE</ntsc>
						</rate>
						<rate>
							<timebase>60</timebase>
							<ntsc>TRUE</ntsc>
						</rate>
						<duration>6</duration>
						<start>672</start>
						<end>678</end>
						<in>0</in>
						<out>6</out>
					</clipitem>
					<clipitem frameBlend="FALSE" id="clipitem-telop-58">
						<file id="file-2"/>
						<name>テロップ58</name>
						<rate>
							<timebase>60</timebase>
							<ntsc>TRUE</ntsc>
						</rate>
						<rate>
							<timebase>60</timebase>
							<ntsc>TRUE</ntsc>
						</rate>
						<duration>6</duration>
						<start>684</start>
						<end>690</end>
						<in>0</in>
						<out>6</out>
					</clipitem>
					<clipitem frameBlend="FALSE" id="clipitem-telop-59">
						<file id="file-2"/>
						<name>テロップ59</name>
						<rate>
							<timebase>60</timebase>
							<ntsc>TRUE</ntsc>
						</rate>
						<rate>
							<timebase>60</timebase>
							<ntsc>TRUE</ntsc>
						</rate>
						<duration>6</duration>
						<start>696</start>
						<end>702</end>
						<in>0</in>
						<out>6</out>
					</clipitem>
					<clipitem frameBlend="FALSE" id="clipitem-telop-60">
						<file id="file-2"/>
						<name>テロップ60</name>
						<rate>
							<timebase>60</timebase>
							<ntsc>TRUE</ntsc>
						</rate>
						<rate>
							<timebase>60</timebase>
							<ntsc>TRUE</ntsc>
						</rate>
						<duration>6</duration>
						<start>708</start>
						<end>714</end>
						<in>0</in>
						<out>6</out>
					</clipitem>
					<clipitem frameBlend="FALSE" id="clipitem-telop-61">
						<file id="file-2"/>
						<name>テロップ61</name>
						<rate>
							<timebase>60</timebase>
							<ntsc>TRUE</ntsc>
						</rate>
						<rate>
							<timebase>60</timebase>
							<ntsc>TRUE</ntsc>
						</rate>
						<duration>6</duration>
						<start>720</start>
						<end>726</end>
						<in>0</in>
						<out>6</out>
					</clipitem>
					<clipitem frameBlend="FALSE" id="clipitem-telop-62">
						<file id="file-2"/>
						<name>テロップ62</name>
						<rate>
							<timebase>60</timebase>
							<ntsc>TRUE</ntsc>
						</rate>
						<rate>
							<timebase>60</timebase>
							<ntsc>TRUE</ntsc>
						</rate>
						<duration>6</duration>
						<start>732</start>
						<end>738</end>
						<in>0</in>
						<out>6</out>
					</clipitem>
					<clipitem frameBlend="FALSE" id="clipitem-telop-63">
						<file id="file-2"/>
						<name>テロップ63</name>
						<rate>
							<timebase>60</timebase>
							<ntsc>TRUE</ntsc>
						</rate>
						<rate>
							<timebase>60</timebase>
							<ntsc>TRUE</ntsc>
						</rate>
						<duration>6</duration>
						<start>744</start>
						<end>750</end>
						<in>0</in>
						<out>6</out>
					</clipitem>
					<clipitem frameBlend="FALSE" id="clipitem-telop-64">
						<file id="file-2"/>
						<name>テロップ64</name>
						<rate>
							<timebase>60</timebase>
							<ntsc>TRUE</ntsc>
						</rate>
						<rate>
							<timebase>60</timebase>
							<ntsc>TRUE</ntsc>
						</rate>
						<duration>6</duration>
						<start>756</start>
						<end>762</end>
						<in>0</in>
						<out>6</out>
					</clipitem>
					<clipitem frameBlend="FALSE" id="clipitem-telop-65">
						<file id="file-2"/>
						<name>テロップ65</name>
						<rate>
							<timebase>60</timebase>
							<ntsc>TRUE</ntsc>
						</rate>
						<rate>
							<timebase>60</timebase>
							<ntsc>TRUE</ntsc>
						</rate>
						<duration>6</duration>
						<start>768</start>
						<end>774</end>
						<in>0</in>
						<out>6</out>
					</clipitem>
					<clipitem frameBlend="FALSE" id="clipitem-telop-66">
						<file id="file-2"/>
						<name>テロップ66</name>
						<rate>
							<timebase>60</timebase>
							<ntsc>TRUE</ntsc>
						</rate>
						<rate>
							<timebase>60</timebase>
							<ntsc>TRUE</ntsc>
						</rate>
						<duration>6</duration>
						<start>780</start>
						<end>786</end>
						<in>0</in>
						<out>6</out>
					</clipitem>
					<clipitem frameBlend="FALSE" id="clipitem-telop-67">
						<file id="file-2"/>
						<name>テロップ67</name>
						<rate>
							<timebase>60</timebase>
							<ntsc>TRUE</ntsc>
						</rate>
						<rate>
							<timebase>60</timebase>
							<ntsc>TRUE</ntsc>
						</rate>
						<duration>6</duration>
						<start>792</start>
						<end>798</end>
						<in>0</in>
						<out>6</out>
					</clipitem>
					<clipitem frameBlend="FALSE" id="clipitem-telop-68">
						<file id="file-2"/>
						<name>テロップ68</name>
						<rate>
							<timebase>60</timebase>
							<ntsc>TRUE</ntsc>
						</rate>
						<rate>
							<timebase>60</timebase>
							<ntsc>TRUE</ntsc>
						</rate>
						<duration>6</duration>
						<start>804</start>
						<end>810</end>
						<in>0</in>
						<out>6</out>
					</clipitem>
					<clipitem frameBlend="FALSE" id="clipitem-telop-69">
						<file id="file-2"/>
						<name>テロップ69</name>
						<rate>
							<timebase>60</timebase>
							<ntsc>TRUE</ntsc>
						</rate>
						<rate>
							<timebase>60</timebase>
							<ntsc>TRUE</ntsc>
						</rate>
						<duration>6</duration>
						<start>816</start>
						<end>822</end>
						<in>0</in>
						<out>6</out>
					</clipitem>
					<clipitem frameBlend="FALSE" id="clipitem-telop-70">
						<file id="file-2"/>
						<name>テロップ70</name>
						<rate>
							<timebase>60</timebase>
							<ntsc>TRUE</ntsc>
						</rate>
						<rate>
							<timebase>60</timebase>
							<ntsc>TRUE</ntsc>
						</rate>
						<duration>6</duration>
						<start>828</start>
						<end>834</end>
						<in>0</in>
						<out>6</out>
					</clipitem>
					<clipitem frameBlend="FALSE" id="clipitem-telop-71">
						<file id="file-2"/>
						<name>テロップ71</name>
						<rate>
							<timebase>60</timebase>
							<ntsc>TRUE</ntsc>
						</rate>
						<rate>
							<timebase>60</timebase>
							<ntsc>TRUE</ntsc>
						</rate>
						<duration>6</duration>
						<start>840</start>
						<end>846</end>
						<in>0</in>
						<out>6</out>
					</clipitem>
					<clipitem frameBlend="FALSE" id="clipitem-telop-72">
						<file id="file-2"/>
						<name>テロップ72</name>
						<rate>
							<timebase>60</timebase>
							<ntsc>TRUE</ntsc>
						</rate>
						<rate>
							<timebase>60</timebase>
							<ntsc>TRUE</ntsc>
						</rate>
						<duration>6</duration>
						<start>852</start>
						<end>858</end>
						<in>0</in>
						<out>6</out>
					</clipitem>
					<clipitem frameBlend="FALSE" id="clipitem-telop-73">
						<file id="file-2"/>
						<name>テロップ73</name>
						<rate>
							<timebase>60</timebase>
							<ntsc>TRUE</ntsc>
						</rate>
						<rate>
							<timebase>60</timebase>
							<ntsc>TRUE</ntsc>
						</rate>
						<duration>6</duration>
						<start>864</start>
						<end>870</end>
						<in>0</in>
						<out>6</out>
					</clipitem>
					<clipitem frameBlend="FALSE" id="clipitem-telop-74">
						<file id="file-2"/>
						<name>テロップ74</name>
						<rate>
							<timebase>60</timebase>
							<ntsc>TRUE</ntsc>
						</rate>
						<rate>
							<timebase>60</timebase>
							<ntsc>TRUE</ntsc>
						</rate>
						<duration>6</duration>
						<start>876</start>
						<end>882</end>
						<in>0</in>
						<out>6</out>
					</clipitem>
					<clipitem frameBlend="FALSE" id="clipitem-telop-75">
						<file id="file-2"/>
						<name>テロップ75</name>
						<rate>
							<timebase>60</timebase>
							<ntsc>TRUE</ntsc>
						</rate>
						<rate>
							<timebase>60</timebase>
							<ntsc>TRUE</ntsc>
						</rate>
						<duration>6</duration>
						<start>888</start>
						<end>894</end>
						<in>0</in>
						<out>6</out>
					</clipitem>
					<clipitem frameBlend="FALSE" id="clipitem-telop-76">
						<file id="file-2"/>
						<name>テロップ76</name>
						<rate>
							<timebase>60</timebase>
							<ntsc>TRUE</ntsc>
						</rate>
						<rate>
							<timebase>60</timebase>
							<ntsc>TRUE</ntsc>
						</rate>
						<duration>6</duration>
						<start>900</start>
						<end>906</end>
						<in>0</in>
						<out>6</out>
					</clipitem>
					<clipitem frameBlend="FALSE" id="clipitem-telop-77">
						<file id="file-2"/>
						<name>テロップ77</name>
						<rate>
							<timebase>60</timebase>
							<ntsc>TRUE</ntsc>
						</rate>
						<rate>
							<timebase>60</timebase>
							<ntsc>TRUE</ntsc>
						</rate>
						<duration>6</duration>
						<start>912</start>
						<end>918</end>
						<in>0</in>
						<out>6</out>
					</clipitem>
					<clipitem frameBlend="FALSE" id="clipitem-telop-78">
						<file id="file-2"/>
						<name>テロップ78</name>
						<rate>
							<timebase>60</timebase>
							<ntsc>TRUE</ntsc>
						</rate>
						<rate>
							<timebase>60</timebase>
							<ntsc>TRUE</ntsc>
						</rate>
						<duration>6</duration>
						<start>924</start>
						<end>930</end>
						<in>0</in>
						<out>6</out>
					</clipitem>
					<clipitem frameBlend="FALSE" id="clipitem-telop-79">
						<file id="file-2"/>
						<name>テロップ79</name>
						<rate>
							<timebase>60</timebase>
							<ntsc>TRUE</ntsc>
						</rate>
						<rate>
							<timebase>60</timebase>
							<ntsc>TRUE</ntsc>
						</rate>
						<duration>6</duration>
						<start>936</start>
						<end>942</end>
						<in>0</in>
						<out>6</out>
					</clipitem>
					<clipitem frameBlend="FALSE" id="clipitem-telop-80">
						<file id="file-2"/>
						<name>テロップ80</name>
						<rate>
							<timebase>60</timebase>
							<ntsc>TRUE</ntsc>
						</rate>
						<rate>
							<timebase>60</timebase>
							<ntsc>TRUE</ntsc>
						</rate>
						<duration>6</duration>
						<start>948</start>
						<end>954</end>
						<in>0</in>
						<out>6</out>
					</clipitem>
					<clipitem frameBlend="FALSE" id="clipitem-telop-81">
						<file id="file-2"/>
						<name>テロップ81</name>
						<rate>
							<timebase>60</timebase>
							<ntsc>TRUE</ntsc>
						</rate>
						<rate>
							<timebase>60</timebase>
							<ntsc>TRUE</ntsc>
						</rate>
						<duration>6</duration>
						<start>960</start>
						<end>966</end>
						<in>0</in>
						<out>6</out>
					</clipitem>
					<clipitem frameBlend="FALSE" id="clipitem-telop-82">
						<file id="file-2"/>
						<name>テロップ82</name>
						<rate>
							<timebase>60</timebase>
							<ntsc>TRUE</ntsc>
						</rate>
						<rate>
							<timebase>60</timebase>
							<ntsc>TRUE</ntsc>
						</rate>
						<duration>6</duration>
						<start>972</start>
						<end>978</end>
						<in>0</in>
						<out>6</out>
					</clipitem>
					<clipitem frameBlend="FALSE" id="clipitem-telop-83">
						<file id="file-2"/>
						<name>テロップ83</name>
						<rate>
							<timebase>60</timebase>
							<ntsc>TRUE</ntsc>
						</rate>
						<rate>
							<timebase>60</timebase>
							<ntsc>TRUE</ntsc>
						</rate>
						<duration>6</duration>
						<start>984</start>
						<end>990</end>
						<in>0</in>
						<out>6</out>
					</clipitem>
					<clipitem frameBlend="FALSE" id="clipitem-telop-84">
						<file id="file-2"/>
						<name>テロップ84</name>
						<rate>
							<timebase>60</timebase>
							<ntsc>TRUE</ntsc>
						</rate>
						<rate>
							<timebase>60</timebase>
							<ntsc>TRUE</ntsc>
						</rate>
						<duration>6</duration>
						<start>996</start>
						<end>1002</end>
						<in>0</in>
						<out>6</out>
					</clipitem>
					<clipitem frameBlend="FALSE" id="clipitem-telop-85">
						<file id="file-2"/>
						<name>テロップ85</name>
						<rate>
							<timebase>60</timebase>
							<ntsc>TRUE</ntsc>
						</rate>
						<rate>
							<timebase>60</timebase>
							<ntsc>TRUE</ntsc>
						</rate>
						<duration>6</duration>
						<start>1008</start>
						<end>1014</end>
						<in>0</in>
						<out>6</out>
					</clipitem>
					<clipitem frameBlend="FALSE" id="clipitem-telop-86">
						<file id="file-2"/>
						<name>テロップ86</name>
						<rate>
							<timebase>60</timebase>
							<ntsc>TRUE</ntsc>
						</rate>
						<rate>
							<timebase>60</timebase>
							<ntsc>TRUE</ntsc>
						</rate>
						<duration>6</duration>
						<start>1020</start>
						<end>1026</end>
						<in>0</in>
						<out>6</out>
					</clipitem>
					<clipitem frameBlend="FALSE" id="clipitem-telop-87">
						<file id="file-2"/>
						<name>テロップ87</name>
						<rate>
							<timebase>60</timebase>
							<ntsc>TRUE</ntsc>
						</rate>
						<rate>
							<timebase>60</timebase>
							<ntsc>TRUE</ntsc>
						</rate>
						<duration>6</duration>
						<start>1032</start>
						<end>1038</end>
						<in>0</in>
						<out>6</out>
					</clipitem>
					<clipitem frameBlend="FALSE" id="clipitem-telop-88">
						<file id="file-2"/>
						<name>テロップ88</name>
						<rate>
							<timebase>60</timebase>
							<ntsc>TRUE</ntsc>
						</rate>
						<rate>
							<timebase>60</timebase>
							<ntsc>TRUE</ntsc>
						</rate>
						<duration>6</duration>
						<start>1044</start>
						<end>1050</end>
						<in>0</in>
						<out>6</out>
					</clipitem>
					<clipitem frameBlend="FALSE" id="clipitem-telop-89">
						<file id="file-2"/>
						<name>テロップ89</name>
						<rate>
							<timebase>60</timebase>
							<ntsc>TRUE</ntsc>
						</rate>
						<rate>
							<timebase>60</timebase>
							<ntsc>TRUE</ntsc>
						</rate>
						<duration>6</duration>
						<start>1056</start>
						<end>1062</end>
						<in>0</in>
						<out>6</out>
					</clipitem>
					<clipitem frameBlend="FALSE" id="clipitem-telop-90">
						<file id="file-2"/>
						<name>テロップ90</name>
						<rate>
							<timebase>60</timebase>
							<ntsc>TRUE</ntsc>
						</rate>
						<rate>
							<timebase>60</timebase>
							<ntsc>TRUE</ntsc>
						</rate>
						<duration>6</duration>
						<start>1068</start>
						<end>1074</end>
						<in>0</in>
						<out>6</out>
					</clipitem>
					<clipitem frameBlend="FALSE" id="clipitem-telop-91">
						<file id="file-2"/>
						<name>テロップ91</name>
						<rate>
							<timebase>60</timebase>
							<ntsc>TRUE</ntsc>
						</rate>
						<rate>
							<timebase>60</timebase>
							<ntsc>TRUE</ntsc>
						</rate>
						<duration>6</duration>
						<start>1080</start>
						<end>1086</end>
						<in>0</in>
						<out>6</out>
					</clipitem>
					<clipitem frameBlend="FALSE" id="clipitem-telop-92">
						<file id="file-2"/>
						<name>テロップ92</name>
						<rate>
							<timebase>60</timebase>
							<ntsc>TRUE</ntsc>
						</rate>
						<rate>
							<timebase>60</timebase>
							<ntsc>TRUE</ntsc>
						</rate>
						<duration>6</duration>
						<start>1092</start>
						<end>1098</end>
						<in>0</in>
						<out>6</out>
					</clipitem>
					<clipitem frameBlend="FALSE" id="clipitem-telop-93">
						<file id="file-2"/>
						<name>テロップ93</name>
						<rate>
							<timebase>60</timebase>
							<ntsc>TRUE</ntsc>
						</rate>
						<rate>
							<timebase>60</timebase>
							<ntsc>TRUE</ntsc>
						</rate>
						<duration>6</duration>
						<start>1104</start>
						<end>1110</end>
						<in>0</in>
						<out>6</out>
					</clipitem>
					<clipitem frameBlend="FALSE" id="clipitem-telop-94">
						<file id="file-2"/>
						<name>テロップ94</name>
						<rate>
							<timebase>60</timebase>
							<ntsc>TRUE</ntsc>
						</rate>
						<rate>
							<timebase>60</timebase>
							<ntsc>TRUE</ntsc>
						</rate>
						<duration>6</duration>
						<start>1116</start>
						<end>1122</end>
						<in>0</in>
						<out>6</out>
					</clipitem>
					<clipitem frameBlend="FALSE" id="clipitem-telop-95">
						<file id="file-2"/>
						<name>テロップ95</name>
						<rate>
							<timebase>60</timebase>
							<ntsc>TRUE</ntsc>
						</rate>
						<rate>
							<timebase>60</timebase>
							<ntsc>TRUE</ntsc>
						</rate>
						<duration>6</duration>
						<start>1128</start>
						<end>1134</end>
						<in>0</in>
						<out>6</out>
					</clipitem>
					<clipitem frameBlend="FALSE" id="clipitem-telop-96">
						<file id="file-2"/>
						<name>テロップ96</name>
						<rate>
							<timebase>60</timebase>
							<ntsc>TRUE</ntsc>
						</rate>
						<rate>
							<timebase>60</timebase>
							<ntsc>TRUE</ntsc>
						</rate>
						<duration>6</duration>
						<start>1140</start>
						<end>1146</end>
						<in>0</in>
						<out>6</out>
					</clipitem>
					<clipitem frameBlend="FALSE" id="clipitem-telop-97">
						<file id="file-2"/>
						<name>テロップ97</name>
						<rate>
							<timebase>60</timebase>
							<ntsc>TRUE</ntsc>
						</rate>
						<rate>
							<timebase>60</timebase>
							<ntsc>TRUE</ntsc>
						</rate>
						<duration>6</duration>
						<start>1152</start>
						<end>1158</end>
						<in>0</in>
						<out>6</out>
					</clipitem>
					<clipitem frameBlend="FALSE" id="clipitem-telop-98">
						<file id="file-2"/>
						<name>テロップ98</name>
						<rate>
							<timebase>60</timebase>
							<ntsc>TRUE</ntsc>
						</rate>
						<rate>
							<timebase>60</timebase>
							<ntsc>TRUE</ntsc>
						</rate>
						<duration>6</duration>
						<start>1164</start>
						<end>1170</end>
						<in>0</in>
						<out>6</out>
					</clipitem>
					<clipitem frameBlend="FALSE" id="clipitem-telop-99">
						<file id="file-2"/>
						<name>テロップ99</name>
						<rate>
							<timebase>60</timebase>
							<ntsc>TRUE</ntsc>
						</rate>
						<rate>
							<timebase>60</timebase>
							<ntsc>TRUE</ntsc>
						</rate>
						<duration>6</duration>
						<start>1176</start>
						<end>1182</end>
						<in>0</in>
						<out>6</out>
					</clipitem>
					<clipitem frameBlend="FALSE" id="clipitem-telop-100">
						<file id="file-2"/>
						<name>テロップ100</name>
						<rate>
							<timebase>60</timebase>
							<ntsc>TRUE</ntsc>
						</rate>
						<rate>
							<timebase>60</timebase>
							<ntsc>TRUE</ntsc>
						</rate>
						<duration>6</duration>
						<start>1188</start>
						<end>1194</end>
						<in>0</in>
						<out>6</out>
					</clipitem>
					<clipitem frameBlend="FALSE" id="clipitem-telop-101">
						<file id="file-2"/>
						<name>テロップ101</name>
						<rate>
							<timebase>60</timebase>
							<ntsc>TRUE</ntsc>
						</rate>
						<rate>
							<timebase>60</timebase>
							<ntsc>TRUE</ntsc>
						</rate>
						<duration>6</duration>
						<start>1200</start>
						<end>1206</end>
						<in>0</in>
						<out>6</out>
					</clipitem>
					<clipitem frameBlend="FALSE" id="clipitem-telop-102">
						<file id="file-2"/>
						<name>テロップ102</name>
						<rate>
							<timebase>60</timebase>
							<ntsc>TRUE</ntsc>
						</rate>
						<rate>
							<timebase>60</timebase>
							<ntsc>TRUE</ntsc>
						</rate>
						<duration>6</duration>
						<start>1212</start>
						<end>1218</end>
						<in>0</in>
						<out>6</out>
					</clipitem>
					<clipitem frameBlend="FALSE" id="clipitem-telop-103">
						<file id="file-2"/>
						<name>テロップ103</name>
						<rate>
							<timebase>60</timebase>
							<ntsc>TRUE</ntsc>
						</rate>
						<rate>
							<timebase>60</timebase>
							<ntsc>TRUE</ntsc>
						</rate>
						<duration>6</duration>
						<start>1224</start>
						<end>1230</end>
						<in>0</in>
						<out>6</out>
					</clipitem>
					<clipitem frameBlend="FALSE" id="clipitem-telop-104">
						<file id="file-2"/>
						<name>テロップ104</name>
						<rate>
							<timebase>60</timebase>
							<ntsc>TRUE</ntsc>
						</rate>
						<rate>
							<timebase>60</timebase>
							<ntsc>TRUE</ntsc>
						</rate>
						<duration>6</duration>
						<start>1236</start>
						<end>1242</end>
						<in>0</in>
						<out>6</out>
					</clipitem>
					<clipitem frameBlend="FALSE" id="clipitem-telop-105">
						<file id="file-2"/>
						<name>テロップ105</name>
						<rate>
							<timebase>60</timebase>
							<ntsc>TRUE</ntsc>
						</rate>
						<rate>
							<timebase>60</timebase>
							<ntsc>TRUE</ntsc>
						</rate>
						<duration>6</duration>
						<start>1248</start>
						<end>1254</end>
						<in>0</in>
						<out>6</out>
					</clipitem>
					<clipitem frameBlend="FALSE" id="clipitem-telop-106">
						<file id="file-2"/>
						<name>テロップ106</name>
						<rate>
							<timebase>60</timebase>
							<ntsc>TRUE</ntsc>
						</rate>
						<rate>
							<timebase>60</timebase>
							<ntsc>TRUE</ntsc>
						</rate>
						<duration>6</duration>
						<start>1260</start>
						<end>1266</end>
						<in>0</in>
						<out>6</out>
					</clipitem>
					<clipitem frameBlend="FALSE" id="clipitem-telop-107">
						<file id="file-2"/>
						<name>テロップ107</name>
						<rate>
							<timebase>60</timebase>
							<ntsc>TRUE</ntsc>
						</rate>
						<rate>
							<timebase>60</timebase>
							<ntsc>TRUE</ntsc>
						</rate>
						<duration>6</duration>
						<start>1272</start>
						<end>1278</end>
						<in>0</in>
						<out>6</out>
					</clipitem>
					<clipitem frameBlend="FALSE" id="clipitem-telop-108">
						<file id="file-2"/>
						<name>テロップ108</name>
						<rate>
							<timebase>60</timebase>
							<ntsc>TRUE</ntsc>
						</rate>
						<rate>
							<timebase>60</timebase>
							<ntsc>TRUE</ntsc>
						</rate>
						<duration>6</duration>
						<start>1284</start>
						<end>1290</end>
						<in>0</in>
						<out>6</out>
					</clipitem>
					<clipitem frameBlend="FALSE" id="clipitem-telop-109">
						<file id="file-2"/>
						<name>テロップ109</name>
						<rate>
							<timebase>60</timebase>
							<ntsc>TRUE</ntsc>
						</rate>
						<rate>
							<timebase>60</timebase>
							<ntsc>TRUE</ntsc>
						</rate>
						<duration>6</duration>
						<start>1296</start>
						<end>1302</end>
						<in>0</in>
						<out>6</out>
					</clipitem>
					<clipitem frameBlend="FALSE" id="clipitem-telop-110">
						<file id="file-2"/>
						<name>テロップ110</name>
						<rate>
							<timebase>60</timebase>
							<ntsc>TRUE</ntsc>
						</rate>
						<rate>
							<timebase>60</timebase>
							<ntsc>TRUE</ntsc>
						</rate>
						<duration>6</duration>
						<start>1308</start>
						<end>1314</end>
						<in>0</in>
						<out>6</out>
					</clipitem>
					<clipitem frameBlend="FALSE" id="clipitem-telop-111">
						<file id="file-2"/>
						<name>テロップ111</name>
						<rate>
							<timebase>60</timebase>
							<ntsc>TRUE</ntsc>
						</rate>
						<rate>
							<timebase>60</timebase>
							<ntsc>TRUE</ntsc>
						</rate>
						<duration>6</duration>
						<start>1320</start>
						<end>1326</end>
						<in>0</in>
						<out>6</out>
					</clipitem>
					<clipitem frameBlend="FALSE" id="clipitem-telop-112">
						<file id="file-2"/>
						<name>テロップ112</name>
						<rate>
							<timebase>60</timebase>
							<ntsc>TRUE</ntsc>
						</rate>
						<rate>
							<timebase>60</timebase>
							<ntsc>TRUE</ntsc>
						</rate>
						<duration>6</duration>
						<start>1332</start>
						<end>1338</end>
						<in>0</in>
						<out>6</out>
					</clipitem>
					<clipitem frameBlend="FALSE" id="clipitem-telop-113">
						<file id="file-2"/>
						<name>テロップ113</name>
						<rate>
							<timebase>60</timebase>
							<ntsc>TRUE</ntsc>
						</rate>
						<rate>
							<timebase>60</timebase>
							<ntsc>TRUE</ntsc>
						</rate>
						<duration>6</duration>
						<start>1344</start>
						<end>1350</end>
						<in>0</in>
						<out>6</out>
					</clipitem>
					<clipitem frameBlend="FALSE" id="clipitem-telop-114">
						<file id="file-2"/>
						<name>テロップ114</name>
						<rate>
							<timebase>60</timebase>
							<ntsc>TRUE</ntsc>
						</rate>
						<rate>
							<timebase>60</timebase>
							<ntsc>TRUE</ntsc>
						</rate>
						<duration>6</duration>
						<start>1356</start>
						<end>1362</end>
						<in>0</in>
						<out>6</out>
					</clipitem>
					<clipitem frameBlend="FALSE" id="clipitem-telop-115">
						<file id="file-2"/>
						<name>テロップ115</name>
						<rate>
							<timebase>60</timebase>
							<ntsc>TRUE</ntsc>
						</rate>
						<rate>
							<timebase>60</timebase>
							<ntsc>TRUE</ntsc>
						</rate>
						<duration>6</duration>
						<start>1368</start>
						<end>1374</end>
						<in>0</in>
						<out>6</out>
					</clipitem>
					<clipitem frameBlend="FALSE" id="clipitem-telop-116">
						<file id="file-2"/>
						<name>テロップ116</name>
						<rate>
							<timebase>60</timebase>
							<ntsc>TRUE</ntsc>
						</rate>
						<rate>
							<timebase>60</timebase>
							<ntsc>TRUE</ntsc>
						</rate>
						<duration>6</duration>
						<start>1380</start>
						<end>1386</end>
						<in>0</in>
						<out>6</out>
					</clipitem>
					<clipitem frameBlend="FALSE" id="clipitem-telop-117">
						<file id="file-2"/>
						<name>テロップ117</name>
						<rate>
							<timebase>60</timebase>
							<ntsc>TRUE</ntsc>
						</rate>
						<rate>
							<timebase>60</timebase>
							<ntsc>TRUE</ntsc>
						</rate>
						<duration>6</duration>
						<start>1392</start>
						<end>1398</end>
						<in>0</in>
						<out>6</out>
					</clipitem>
					<clipitem frameBlend="FALSE" id="clipitem-telop-118">
						<file id="file-2"/>
						<name>テロップ118</name>
						<rate>
							<timebase>60</timebase>
							<ntsc>TRUE</ntsc>
						</rate>
						<rate>
							<timebase>60</timebase>
							<ntsc>TRUE</ntsc>
						</rate>
						<duration>6</duration>
						<start>1404</start>
						<end>1410</end>
						<in>0</in>
						<out>6</out>
					</clipitem>
					<clipitem frameBlend="FALSE" id="clipitem-telop-119">
						<file id="file-2"/>
						<name>テロップ119</name>
						<rate>
							<timebase>60</timebase>
							<ntsc>TRUE</ntsc>
						</rate>
						<rate>
							<timebase>60</timebase>
							<ntsc>TRUE</ntsc>
						</rate>
						<duration>6</duration>
						<start>1416</start>
						<end>1422</end>
						<in>0</in>
						<out>6</out>
					</clipitem>
					<clipitem frameBlend="FALSE" id="clipitem-telop-120">
						<file id="file-2"/>
						<name>テロップ120</name>
						<rate>
							<timebase>60</timebase>
							<ntsc>TRUE</ntsc>
						</rate>
						<rate>
							<timebase>60</timebase>
							<ntsc>TRUE</ntsc>
						</rate>
						<duration>6</duration>
						<start>1428</start>
						<end>1434</end>
						<in>0</in>
						<out>6</out>
					</clipitem>
					<clipitem frameBlend="FALSE" id="clipitem-telop-121">
						<file id="file-2"/>
						<name>テロップ121</name>
						<rate>
							<timebase>60</timebase>
							<ntsc>TRUE</ntsc>
						</rate>
						<rate>
							<timebase>60</timebase>
							<ntsc>TRUE</ntsc>
						</rate>
						<duration>6</duration>
						<start>1440</start>
						<end>1446</end>
						<in>0</in>
						<out>6</out>
					</clipitem>
					<clipitem frameBlend="FALSE" id="clipitem-telop-122">
						<file id="file-2"/>
						<name>テロップ122</name>
						<rate>
							<timebase>60</timebase>
							<ntsc>TRUE</ntsc>
						</rate>
						<rate>
							<timebase>60</timebase>
							<ntsc>TRUE</ntsc>
						</rate>
						<duration>6</duration>
						<start>1452</start>
						<end>1458</end>
						<in>0</in>
						<out>6</out>
					</clipitem>
					<clipitem frameBlend="FALSE" id="clipitem-telop-123">
						<file id="file-2"/>
						<name>テロップ123</name>
						<rate>
							<timebase>60</timebase>
							<ntsc>TRUE</ntsc>
						</rate>
						<rate>
							<timebase>60</timebase>
							<ntsc>TRUE</ntsc>
						</rate>
						<duration>6</duration>
						<start>1464</start>
						<end>1470</end>
						<in>0</in>
						<out>6</out>
					</clipitem>
					<clipitem frameBlend="FALSE" id="clipitem-telop-124">
						<file id="file-2"/>
						<name>テロップ124</name>
						<rate>
							<timebase>60</timebase>
							<ntsc>TRUE</ntsc>
						</rate>
						<rate>
							<timebase>60</timebase>
							<ntsc>TRUE</ntsc>
						</rate>
						<duration>6</duration>
						<start>1476</start>
						<end>1482</end>
						<in>0</in>
						<out>6</out>
					</clipitem>
					<clipitem frameBlend="FALSE" id="clipitem-telop-125">
						<file id="file-2"/>
						<name>テロップ125</name>
						<rate>
							<timebase>60</timebase>
							<ntsc>TRUE</ntsc>
						</rate>
						<rate>
							<timebase>60</timebase>
							<ntsc>TRUE</ntsc>
						</rate>
						<duration>6</duration>
						<start>1488</start>
						<end>1494</end>
						<in>0</in>
						<out>6</out>
					</clipitem>
					<clipitem frameBlend="FALSE" id="clipitem-telop-126">
						<file id="file-2"/>
						<name>テロップ126</name>
						<rate>
							<timebase>60</timebase>
							<ntsc>TRUE</ntsc>
						</rate>
						<rate>
							<timebase>60</timebase>
							<ntsc>TRUE</ntsc>
						</rate>
						<duration>6</duration>
						<start>1500</start>
						<end>1506</end>
						<in>0</in>
						<out>6</out>
					</clipitem>
					<clipitem frameBlend="FALSE" id="clipitem-telop-127">
						<file id="file-2"/>
						<name>テロップ127</name>
						<rate>
							<timebase>60</timebase>
							<ntsc>TRUE</ntsc>
						</rate>
						<rate>
							<timebase>60</timebase>
							<ntsc>TRUE</ntsc>
						</rate>
						<duration>6</duration>
						<start>1512</start>
						<end>1518</end>
						<in>0</in>
						<out>6</out>
					</clipitem>
					<clipitem frameBlend="FALSE" id="clipitem-telop-128">
						<file id="file-2"/>
						<name>テロップ128</name>
						<rate>
							<timebase>60</timebase>
							<ntsc>TRUE</ntsc>
						</rate>
						<rate>
							<timebase>60</timebase>
							<ntsc>TRUE</ntsc>
						</rate>
						<duration>6</duration>
						<start>1524</start>
						<end>1530</end>
						<in>0</in>
						<out>6</out>
					</clipitem>
					<clipitem frameBlend="FALSE" id="clipitem-telop-129">
						<file id="file-2"/>
						<name>テロップ129</name>
						<rate>
							<timebase>60</timebase>
							<ntsc>TRUE</ntsc>
						</rate>
						<rate>
							<timebase>60</timebase>
							<ntsc>TRUE</ntsc>
						</rate>
						<duration>6</duration>
						<start>1536</start>
						<end>1542</end>
						<in>0</in>
						<out>6</out>
					</clipitem>
					<clipitem frameBlend="FALSE" id="clipitem-telop-130">
						<file id="file-2"/>
						<name>テロップ130</name>
						<rate>
							<timebase>60</timebase>
							<ntsc>TRUE</ntsc>
						</rate>
						<rate>
							<timebase>60</timebase>
							<ntsc>TRUE</ntsc>
						</rate>
						<duration>6</duration>
						<start>1548</start>
						<end>1554</end>
						<in>0</in>
						<out>6</out>
					</clipitem>
					<clipitem frameBlend="FALSE" id="clipitem-telop-131">
						<file id="file-2"/>
						<name>テロップ131</name>
						<rate>
							<timebase>60</timebase>
							<ntsc>TRUE</ntsc>
						</rate>
						<rate>
							<timebase>60</timebase>
							<ntsc>TRUE</ntsc>
						</rate>
						<duration>6</duration>
						<start>1560</start>
						<end>1566</end>
						<in>0</in>
						<out>6</out>
					</clipitem>
					<clipitem frameBlend="FALSE" id="clipitem-telop-132">
						<file id="file-2"/>
						<name>テロップ132</name>
						<rate>
							<timebase>60</timebase>
							<ntsc>TRUE</ntsc>
						</rate>
						<rate>
							<timebase>60</timebase>
							<ntsc>TRUE</ntsc>
						</rate>
						<duration>6</duration>
						<start>1572</start>
						<end>1578</end>
						<in>0</in>
						<out>6</out>
					</clipitem>
					<clipitem frameBlend="FALSE" id="clipitem-telop-133">
						<file id="file-2"/>
						<name>テロップ133</name>
						<rate>
							<timebase>60</timebase>
							<ntsc>TRUE</ntsc>
						</rate>
						<rate>
							<timebase>60</timebase>
							<ntsc>TRUE</ntsc>
						</rate>
						<duration>6</duration>
						<start>1584</start>
						<end>1590</end>
						<in>0</in>
						<out>6</out>
					</clipitem>
					<clipitem frameBlend="FALSE" id="clipitem-telop-134">
						<file id="file-2"/>
						<name>テロップ134</name>
						<rate>
							<timebase>60</timebase>
							<ntsc>TRUE</ntsc>
						</rate>
						<rate>
							<timebase>60</timebase>
							<ntsc>TRUE</ntsc>
						</rate>
						<duration>6</duration>
						<start>1596</start>
						<end>1602</end>
						<in>0</in>
						<out>6</out>
					</clipitem>
					<clipitem frameBlend="FALSE" id="clipitem-telop-135">
						<file id="file-2"/>
						<name>テロップ135</name>
						<rate>
							<timebase>60</timebase>
							<ntsc>TRUE</ntsc>
						</rate>
						<rate>
							<timebase>60</timebase>
							<ntsc>TRUE</ntsc>
						</rate>
						<duration>6</duration>
						<start>1608</start>
						<end>1614</end>
						<in>0</in>
						<out>6</out>
					</clipitem>
					<clipitem frameBlend="FALSE" id="clipitem-telop-136">
						<file id="file-2"/>
						<name>テロップ136</name>
						<rate>
							<timebase>60</timebase>
							<ntsc>TRUE</ntsc>
						</rate>
						<rate>
							<timebase>60</timebase>
							<ntsc>TRUE</ntsc>
						</rate>
						<duration>6</duration>
						<start>1620</start>
						<end>1626</end>
						<in>0</in>
						<out>6</out>
					</clipitem>
					<clipitem frameBlend="FALSE" id="clipitem-telop-137">
						<file id="file-2"/>
						<name>テロップ137</name>
						<rate>
							<timebase>60</timebase>
							<ntsc>TRUE</ntsc>
						</rate>
						<rate>
							<timebase>60</timebase>
							<ntsc>TRUE</ntsc>
						</rate>
						<duration>6</duration>
						<start>1632</start>
						<end>1638</end>
						<in>0</in>
						<out>6</out>
					</clipitem>
					<clipitem frameBlend="FALSE" id="clipitem-telop-138">
						<file id="file-2"/>
						<name>テロップ138</name>
						<rate>
							<timebase>60</timebase>
							<ntsc>TRUE</ntsc>
						</rate>
						<rate>
							<timebase>60</timebase>
							<ntsc>TRUE</ntsc>
						</rate>
						<duration>6</duration>
						<start>1644</start>
						<end>1650</end>
						<in>0</in>
						<out>6</out>
					</clipitem>
					<clipitem frameBlend="FALSE" id="clipitem-telop-139">
						<file id="file-2"/>
						<name>テロップ139</name>
						<rate>
							<timebase>60</timebase>
							<ntsc>TRUE</ntsc>
						</rate>
						<rate>
							<timebase>60</timebase>
							<ntsc>TRUE</ntsc>
						</rate>
						<duration>6</duration>
						<start>1656</start>
						<end>1662</end>
						<in>0</in>
						<out>6</out>
					</clipitem>
					<clipitem frameBlend="FALSE" id="clipitem-telop-140">
						<file id="file-2"/>
						<name>テロップ140</name>
						<rate>
							<timebase>60</timebase>
							<ntsc>TRUE</ntsc>
						</rate>
						<rate>
							<timebase>60</timebase>
							<ntsc>TRUE</ntsc>
						</rate>
						<duration>6</duration>
						<start>1668</start>
						<end>1674</end>
						<in>0</in>
						<out>6</out>
					</clipitem>
					<clipitem frameBlend="FALSE" id="clipitem-telop-141">
						<file id="file-2"/>
						<name>テロップ141</name>
						<rate>
							<timebase>60</timebase>
							<ntsc>TRUE</ntsc>
						</rate>
						<rate>
							<timebase>60</timebase>
							<ntsc>TRUE</ntsc>
						</rate>
						<duration>6</duration>
						<start>1680</start>
						<end>1686</end>
						<in>0</in>
						<out>6</out>
					</clipitem>
					<clipitem frameBlend="FALSE" id="clipitem-telop-142">
						<file id="file-2"/>
						<name>テロップ142</name>
						<rate>
							<timebase>60</timebase>
							<ntsc>TRUE</ntsc>
						</rate>
						<rate>
							<timebase>60</timebase>
							<ntsc>TRUE</ntsc>
						</rate>
						<duration>6</duration>
						<start>1692</start>
						<end>1698</end>
						<in>0</in>
						<out>6</out>
					</clipitem>
					<clipitem frameBlend="FALSE" id="clipitem-telop-143">
						<file id="file-2"/>
						<name>テロップ143</name>
						<rate>
							<timebase>60</timebase>
							<ntsc>TRUE</ntsc>
						</rate>
						<rate>
							<timebase>60</timebase>
							<ntsc>TRUE</ntsc>
						</rate>
						<duration>6</duration>
						<start>1704</start>
						<end>1710</end>
						<in>0</in>
						<out>6</out>
					</clipitem>
					<clipitem frameBlend="FALSE" id="clipitem-telop-144">
						<file id="file-2"/>
						<name>テロップ144</name>
						<rate>
							<timebase>60</timebase>
							<ntsc>TRUE</ntsc>
						</rate>
						<rate>
							<timebase>60</timebase>
							<ntsc>TRUE</ntsc>
						</rate>
						<duration>6</duration>
						<start>1716</start>
						<end>1722</end>
						<in>0</in>
						<out>6</out>
					</clipitem>
					<clipitem frameBlend="FALSE" id="clipitem-telop-145">
						<file id="file-2"/>
						<name>テロップ145</name>
						<rate>
							<timebase>60</timebase>
							<ntsc>TRUE</ntsc>
						</rate>
						<rate>
							<timebase>60</timebase>
							<ntsc>TRUE</ntsc>
						</rate>
						<duration>6</duration>
						<start>1728</start>
						<end>1734</end>
						<in>0</in>
						<out>6</out>
					</clipitem>
					<clipitem frameBlend="FALSE" id="clipitem-telop-146">
						<file id="file-2"/>
						<name>テロップ146</name>
						<rate>
							<timebase>60</timebase>
							<ntsc>TRUE</ntsc>
						</rate>
						<rate>
							<timebase>60</timebase>
							<ntsc>TRUE</ntsc>
						</rate>
						<duration>6</duration>
						<start>1740</start>
						<end>1746</end>
						<in>0</in>
						<out>6</out>
					</clipitem>
					<clipitem frameBlend="FALSE" id="clipitem-telop-147">
						<file id="file-2"/>
						<name>テロップ147</name>
						<rate>
							<timebase>60</timebase>
							<ntsc>TRUE</ntsc>
						</rate>
						<rate>
							<timebase>60</timebase>
							<ntsc>TRUE</ntsc>
						</rate>
						<duration>6</duration>
						<start>1752</start>
						<end>1758</end>
						<in>0</in>
						<out>6</out>
					</clipitem>
					<clipitem frameBlend="FALSE" id="clipitem-telop-148">
						<file id="file-2"/>
						<name>テロップ148</name>
						<rate>
							<timebase>60</timebase>
							<ntsc>TRUE</ntsc>
						</rate>
						<rate>
							<timebase>60</timebase>
							<ntsc>TRUE</ntsc>
						</rate>
						<duration>6</duration>
						<start>1764</start>
						<end>1770</end>
						<in>0</in>
						<out>6</out>
					</clipitem>
					<clipitem frameBlend="FALSE" id="clipitem-telop-149">
						<file id="file-2"/>
						<name>テロップ149</name>
						<rate>
							<timebase>60</timebase>
							<ntsc>TRUE</ntsc>
						</rate>
						<rate>
							<timebase>60</timebase>
							<ntsc>TRUE</ntsc>
						</rate>
						<duration>6</duration>
						<start>1776</start>
						<end>1782</end>
						<in>0</in>
						<out>6</out>
					</clipitem>
					<clipitem frameBlend="FALSE" id="clipitem-telop-150">
						<file id="file-2"/>
						<name>テロップ150</name>
						<rate>
							<timebase>60</timebase>
							<ntsc>TRUE</ntsc>
						</rate>
						<rate>
							<timebase>60</timebase>
							<ntsc>TRUE</ntsc>
						</rate>
						<duration>6</duration>
						<start>1788</start>
						<end>1794</end>
						<in>0</in>
						<out>6</out>
					</clipitem>
					<clipitem frameBlend="FALSE" id="clipitem-telop-151">
						<file id="file-2"/>
						<name>テロップ151</name>
						<rate>
							<timebase>60</timebase>
							<ntsc>TRUE</ntsc>
						</rate>
						<rate>
							<timebase>60</timebase>
							<ntsc>TRUE</ntsc>
						</rate>
						<duration>6</duration>
						<start>1800</start>
						<end>1806</end>
						<in>0</in>
						<out>6</out>
					</clipitem>
					<clipitem frameBlend="FALSE" id="clipitem-telop-152">
						<file id="file-2"/>
						<name>テロップ152</name>
						<rate>
							<timebase>60</timebase>
							<ntsc>TRUE</ntsc>
						</rate>
						<rate>
							<timebase>60</timebase>
							<ntsc>TRUE</ntsc>
						</rate>
						<duration>6</duration>
						<start>1812</start>
						<end>1818</end>
						<in>0</in>
						<out>6</out>
					</clipitem>
					<clipitem frameBlend="FALSE" id="clipitem-telop-153">
						<file id="file-2"/>
						<name>テロップ153</name>
						<rate>
							<timebase>60</timebase>
							<ntsc>TRUE</ntsc>
						</rate>
						<rate>
							<timebase>60</timebase>
							<ntsc>TRUE</ntsc>
						</rate>
						<duration>6</duration>
						<start>1824</start>
						<end>1830</end>
						<in>0</in>
						<out>6</out>
					</clipitem>
					<clipitem frameBlend="FALSE" id="clipitem-telop-154">
						<file id="file-2"/>
						<name>テロップ154</name>
						<rate>
							<timebase>60</timebase>
							<ntsc>TRUE</ntsc>
						</rate>
						<rate>
							<timebase>60</timebase>
							<ntsc>TRUE</ntsc>
						</rate>
						<duration>6</duration>
						<start>1836</start>
						<end>1842</end>
						<in>0</in>
						<out>6</out>
					</clipitem>
					<clipitem frameBlend="FALSE" id="clipitem-telop-155">
						<file id="file-2"/>
						<name>テロップ155</name>
						<rate>
							<timebase>60</timebase>
							<ntsc>TRUE</ntsc>
						</rate>
						<rate>
							<timebase>60</timebase>
							<ntsc>TRUE</ntsc>
						</rate>
						<duration>6</duration>
						<start>1848</start>
						<end>1854</end>
						<in>0</in>
						<out>6</out>
					</clipitem>
					<clipitem frameBlend="FALSE" id="clipitem-telop-156">
						<file id="file-2"/>
						<name>テロップ156</name>
						<rate>
							<timebase>60</timebase>
							<ntsc>TRUE</ntsc>
						</rate>
						<rate>
							<timebase>60</timebase>
							<ntsc>TRUE</ntsc>
						</rate>
						<duration>6</duration>
						<start>1860</start>
						<end>1866</end>
						<in>0</in>
						<out>6</out>
					</clipitem>
					<clipitem frameBlend="FALSE" id="clipitem-telop-157">
						<file id="file-2"/>
						<name>テロップ157</name>
						<rate>
							<timebase>60</timebase>
							<ntsc>TRUE</ntsc>
						</rate>
						<rate>
							<timebase>60</timebase>
							<ntsc>TRUE</ntsc>
						</rate>
						<duration>6</duration>
						<start>1872</start>
						<end>1878</end>
						<in>0</in>
						<out>6</out>
					</clipitem>
					<clipitem frameBlend="FALSE" id="clipitem-telop-158">
						<file id="file-2"/>
						<name>テロップ158</name>
						<rate>
							<timebase>60</timebase>
							<ntsc>TRUE</ntsc>
						</rate>
						<rate>
							<timebase>60</timebase>
							<ntsc>TRUE</ntsc>
						</rate>
						<duration>6</duration>
						<start>1884</start>
						<end>1890</end>
						<in>0</in>
						<out>6</out>
					</clipitem>
					<clipitem frameBlend="FALSE" id="clipitem-telop-159">
						<file id="file-2"/>
						<name>テロップ159</name>
						<rate>
							<timebase>60</timebase>
							<ntsc>TRUE</ntsc>
						</rate>
						<rate>
							<timebase>60</timebase>
							<ntsc>TRUE</ntsc>
						</rate>
						<duration>6</duration>
						<start>1896</start>
						<end>1902</end>
						<in>0</in>
						<out>6</out>
					</clipitem>
					<clipitem frameBlend="FALSE" id="clipitem-telop-160">
						<file id="file-2"/>
						<name>テロップ160</name>
						<rate>
							<timebase>60</timebase>
							<ntsc>TRUE</ntsc>
						</rate>
						<rate>
							<timebase>60</timebase>
							<ntsc>TRUE</ntsc>
						</rate>
						<duration>6</duration>
						<start>1908</start>
						<end>1914</end>
						<in>0</in>
						<out>6</out>
					</clipitem>
					<clipitem frameBlend="FALSE" id="clipitem-telop-161">
						<file id="file-2"/>
						<name>テロップ161</name>
						<rate>
							<timebase>60</timebase>
							<ntsc>TRUE</ntsc>
						</rate>
						<rate>
							<timebase>60</timebase>
							<ntsc>TRUE</ntsc>
						</rate>
						<duration>6</duration>
						<start>1920</start>
						<end>1926</end>
						<in>0</in>
						<out>6</out>
					</clipitem>
					<clipitem frameBlend="FALSE" id="clipitem-telop-162">
						<file id="file-2"/>
						<name>テロップ162</name>
						<rate>
							<timebase>60</timebase>
							<ntsc>TRUE</ntsc>
						</rate>
						<rate>
							<timebase>60</timebase>
							<ntsc>TRUE</ntsc>
						</rate>
						<duration>6</duration>
						<start>1932</start>
						<end>1938</end>
						<in>0</in>
						<out>6</out>
					</clipitem>
					<clipitem frameBlend="FALSE" id="clipitem-telop-163">
						<file id="file-2"/>
						<name>テロップ163</name>
						<rate>
							<timebase>60</timebase>
							<ntsc>TRUE</ntsc>
						</rate>
						<rate>
							<timebase>60</timebase>
							<ntsc>TRUE</ntsc>
						</rate>
						<duration>6</duration>
						<start>1944</start>
						<end>1950</end>
						<in>0</in>
						<out>6</out>
					</clipitem>
					<clipitem frameBlend="FALSE" id="clipitem-telop-164">
						<file id="file-2"/>
						<name>テロップ164</name>
						<rate>
							<timebase>60</timebase>
							<ntsc>TRUE</ntsc>
						</rate>
						<rate>
							<timebase>60</timebase>
							<ntsc>TRUE</ntsc>
						</rate>
						<duration>6</duration>
						<start>1956</start>
						<end>1962</end>
						<in>0</in>
						<out>6</out>
					</clipitem>
					<clipitem frameBlend="FALSE" id="clipitem-telop-165">
						<file id="file-2"/>
						<name>テロップ165</name>
						<rate>
							<timebase>60</timebase>
							<ntsc>TRUE</ntsc>
						</rate>
						<rate>
							<timebase>60</timebase>
							<ntsc>TRUE</ntsc>
						</rate>
						<duration>6</duration>
						<start>1968</start>
						<end>1974</end>
						<in>0</in>
						<out>6</out>
					</clipitem>
					<clipitem frameBlend="FALSE" id="clipitem-telop-166">
						<file id="file-2"/>
						<name>テロップ166</name>
						<rate>
							<timebase>60</timebase>
							<ntsc>TRUE</ntsc>
						</rate>
						<rate>
							<timebase>60</timebase>
							<ntsc>TRUE</ntsc>
						</rate>
						<duration>6</duration>
						<start>1980</start>
						<end>1986</end>
						<in>0</in>
						<out>6</out>
					</clipitem>
					<clipitem frameBlend="FALSE" id="clipitem-telop-167">
						<file id="file-2"/>
						<name>テロップ167</name>
						<rate>
							<timebase>60</timebase>
							<ntsc>TRUE</ntsc>
						</rate>
						<rate>
							<timebase>60</timebase>
							<ntsc>TRUE</ntsc>
						</rate>
						<duration>6</duration>
						<start>1992</start>
						<end>1998</end>
						<in>0</in>
						<out>6</out>
					</clipitem>
					<clipitem frameBlend="FALSE" id="clipitem-telop-168">
						<file id="file-2"/>
						<name>テロップ168</name>
						<rate>
							<timebase>60</timebase>
							<ntsc>TRUE</ntsc>
						</rate>
						<rate>
							<timebase>60</timebase>
							<ntsc>TRUE</ntsc>
						</rate>
						<duration>6</duration>
						<start>2004</start>
						<end>2010</end>
						<in>0</in>
						<out>6</out>
					</clipitem>
					<clipitem frameBlend="FALSE" id="clipitem-telop-169">
						<file id="file-2"/>
						<name>テロップ169</name>
						<rate>
							<timebase>60</timebase>
							<ntsc>TRUE</ntsc>
						</rate>
						<rate>
							<timebase>60</timebase>
							<ntsc>TRUE</ntsc>
						</rate>
						<duration>6</duration>
						<start>2016</start>
						<end>2022</end>
						<in>0</in>
						<out>6</out>
					</clipitem>
					<clipitem frameBlend="FALSE" id="clipitem-telop-170">
						<file id="file-2"/>
						<name>テロップ170</name>
						<rate>
							<timebase>60</timebase>
							<ntsc>TRUE</ntsc>
						</rate>
						<rate>
							<timebase>60</timebase>
							<ntsc>TRUE</ntsc>
						</rate>
						<duration>6</duration>
						<start>2028</start>
						<end>2034</end>
						<in>0</in>
						<out>6</out>
					</clipitem>
					<clipitem frameBlend="FALSE" id="clipitem-telop-171">
						<file id="file-2"/>
						<name>テロップ171</name>
						<rate>
							<timebase>60</timebase>
							<ntsc>TRUE</ntsc>
						</rate>
						<rate>
							<timebase>60</timebase>
							<ntsc>TRUE</ntsc>
						</rate>
						<duration>6</duration>
						<start>2040</start>
						<end>2046</end>
						<in>0</in>
						<out>6</out>
					</clipitem>
					<clipitem frameBlend="FALSE" id="clipitem-telop-172">
						<file id="file-2"/>
						<name>テロップ172</name>
						<rate>
							<timebase>60</timebase>
							<ntsc>TRUE</ntsc>
						</rate>
						<rate>
							<timebase>60</timebase>
							<ntsc>TRUE</ntsc>
						</rate>
						<duration>6</duration>
						<start>2052</start>
						<end>2058</end>
						<in>0</in>
						<out>6</out>
					</clipitem>
					<clipitem frameBlend="FALSE" id="clipitem-telop-173">
						<file id="file-2"/>
						<name>テロップ173</name>
						<rate>
							<timebase>60</timebase>
							<ntsc>TRUE</ntsc>
						</rate>
						<rate>
							<timebase>60</timebase>
							<ntsc>TRUE</ntsc>
						</rate>
						<duration>6</duration>
						<start>2064</start>
						<end>2070</end>
						<in>0</in>
						<out>6</out>
					</clipitem>
					<clipitem frameBlend="FALSE" id="clipitem-telop-174">
						<file id="file-2"/>
						<name>テロップ174</name>
						<rate>
							<timebase>60</timebase>
							<ntsc>TRUE</ntsc>
						</rate>
						<rate>
							<timebase>60</timebase>
							<ntsc>TRUE</ntsc>
						</rate>
						<duration>6</duration>
						<start>2076</start>
						<end>2082</end>
						<in>0</in>
						<out>6</out>
					</clipitem>
					<clipitem frameBlend="FALSE" id="clipitem-telop-175">
						<file id="file-2"/>
						<name>テロップ175</name>
						<rate>
							<timebase>60</timebase>
							<ntsc>TRUE</ntsc>
						</rate>
						<rate>
							<timebase>60</timebase>
							<ntsc>TRUE</ntsc>
						</rate>
						<duration>6</duration>
						<start>2088</start>
						<end>2094</end>
						<in>0</in>
						<out>6</out>
					</clipitem>
					<clipitem frameBlend="FALSE" id="clipitem-telop-176">
						<file id="file-2"/>
						<name>テロップ176</name>
						<rate>
							<timebase>60</timebase>
							<ntsc>TRUE</ntsc>
						</rate>
						<rate>
							<timebase>60</timebase>
							<ntsc>TRUE</ntsc>
						</rate>
						<duration>6</duration>
						<start>2100</start>
						<end>2106</end>
						<in>0</in>
						<out>6</out>
					</clipitem>
					<clipitem frameBlend="FALSE" id="clipitem-telop-177">
						<file id="file-2"/>
						<name>テロップ177</name>
						<rate>
							<timebase>60</timebase>
							<ntsc>TRUE</ntsc>
						</rate>
						<rate>
							<timebase>60</timebase>
							<ntsc>TRUE</ntsc>
						</rate>
						<duration>6</duration>
						<start>2112</start>
						<end>2118</end>
						<in>0</in>
						<out>6</out>
					</clipitem>
					<clipitem frameBlend="FALSE" id="clipitem-telop-178">
						<file id="file-2"/>
						<name>テロップ178</name>
						<rate>
							<timebase>60</timebase>
							<ntsc>TRUE</ntsc>
						</rate>
						<rate>
							<timebase>60</timebase>
							<ntsc>TRUE</ntsc>
						</rate>
						<duration>6</duration>
						<start>2124</start>
						<end>2130</end>
						<in>0</in>
						<out>6</out>
					</clipitem>
					<clipitem frameBlend="FALSE" id="clipitem-telop-179">
						<file id="file-2"/>
						<name>テロップ179</name>
						<rate>
							<timebase>60</timebase>
							<ntsc>TRUE</ntsc>
						</rate>
						<rate>
							<timebase>60</timebase>
							<ntsc>TRUE</ntsc>
						</rate>
						<duration>6</duration>
						<start>2136</start>
						<end>2142</end>
						<in>0</in>
						<out>6</out>
					</clipitem>
					<clipitem frameBlend="FALSE" id="clipitem-telop-180">
						<file id="file-2"/>
						<name>テロップ180</name>
						<rate>
							<timebase>60</timebase>
							<ntsc>TRUE</ntsc>
						</rate>
						<rate>
							<timebase>60</timebase>
							<ntsc>TRUE</ntsc>
						</rate>
						<duration>6</duration>
						<start>2148</start>
						<end>2154</end>
						<in>0</in>
						<out>6</out>
					</clipitem>
					<clipitem frameBlend="FALSE" id="clipitem-telop-181">
						<file id="file-2"/>
						<name>テロップ181</name>
						<rate>
							<timebase>60</timebase>
							<ntsc>TRUE</ntsc>
						</rate>
						<rate>
							<timebase>60</timebase>
							<ntsc>TRUE</ntsc>
						</rate>
						<duration>6</duration>
						<start>2160</start>
						<end>2166</end>
						<in>0</in>
						<out>6</out>
					</clipitem>
					<clipitem frameBlend="FALSE" id="clipitem-telop-182">
						<file id="file-2"/>
						<name>テロップ182</name>
						<rate>
							<timebase>60</timebase>
							<ntsc>TRUE</ntsc>
						</rate>
						<rate>
							<timebase>60</timebase>
							<ntsc>TRUE</ntsc>
						</rate>
						<duration>6</duration>
						<start>2172</start>
						<end>2178</end>
						<in>0</in>
						<out>6</out>
					</clipitem>
					<clipitem frameBlend="FALSE" id="clipitem-telop-183">
						<file id="file-2"/>
						<name>テロップ183</name>
						<rate>
							<timebase>60</timebase>
							<ntsc>TRUE</ntsc>
						</rate>
						<rate>
							<timebase>60</timebase>
							<ntsc>TRUE</ntsc>
						</rate>
						<duration>6</duration>
						<start>2184</start>
						<end>2190</end>
						<in>0</in>
						<out>6</out>
					</clipitem>
					<clipitem frameBlend="FALSE" id="clipitem-telop-184">
						<file id="file-2"/>
						<name>テロップ184</name>
						<rate>
							<timebase>60</timebase>
							<ntsc>TRUE</ntsc>
						</rate>
						<rate>
							<timebase>60</timebase>
							<ntsc>TRUE</ntsc>
						</rate>
						<duration>6</duration>
						<start>2196</start>
						<end>2202</end>
						<in>0</in>
						<out>6</out>
					</clipitem>
					<clipitem frameBlend="FALSE" id="clipitem-telop-185">
						<file id="file-2"/>
						<name>テロップ185</name>
						<rate>
							<timebase>60</timebase>
							<ntsc>TRUE</ntsc>
						</rate>
						<rate>
							<timebase>60</timebase>
							<ntsc>TRUE</ntsc>
						</rate>
						<duration>6</duration>
						<start>2208</start>
						<end>2214</end>
						<in>0</in>
						<out>6</out>
					</clipitem>
					<clipitem frameBlend="FALSE" id="clipitem-telop-186">
						<file id="file-2"/>
						<name>テロップ186</name>
						<rate>
							<timebase>60</timebase>
							<ntsc>TRUE</ntsc>
						</rate>
						<rate>
							<timebase>60</timebase>
							<ntsc>TRUE</ntsc>
						</rate>
						<duration>6</duration>
						<start>2220</start>
						<end>2226</end>
						<in>0</in>
						<out>6</out>
					</clipitem>
					<clipitem frameBlend="FALSE" id="clipitem-telop-187">
						<file id="file-2"/>
						<name>テロップ187</name>
						<rate>
							<timebase>60</timebase>
							<ntsc>TRUE</ntsc>
						</rate>
						<rate>
							<timebase>60</timebase>
							<ntsc>TRUE</ntsc>
						</rate>
						<duration>6</duration>
						<start>2232</start>
						<end>2238</end>
						<in>0</in>
						<out>6</out>
					</clipitem>
					<clipitem frameBlend="FALSE" id="clipitem-telop-188">
						<file id="file-2"/>
						<name>テロップ188</name>
						<rate>
							<timebase>60</timebase>
							<ntsc>TRUE</ntsc>
						</rate>
						<rate>
							<timebase>60</timebase>
							<ntsc>TRUE</ntsc>
						</rate>
						<duration>6</duration>
						<start>2244</start>
						<end>2250</end>
						<in>0</in>
						<out>6</out>
					</clipitem>
					<clipitem frameBlend="FALSE" id="clipitem-telop-189">
						<file id="file-2"/>
						<name>テロップ189</name>
						<rate>
							<timebase>60</timebase>
							<ntsc>TRUE</ntsc>
						</rate>
						<rate>
							<timebase>60</timebase>
							<ntsc>TRUE</ntsc>
						</rate>
						<duration>6</duration>
						<start>2256</start>
						<end>2262</end>
						<in>0</in>
						<out>6</out>
					</clipitem>
					<clipitem frameBlend="FALSE" id="clipitem-telop-190">
						<file id="file-2"/>
						<name>テロップ190</name>
						<rate>
							<timebase>60</timebase>
							<ntsc>TRUE</ntsc>
						</rate>
						<rate>
							<timebase>60</timebase>
							<ntsc>TRUE</ntsc>
						</rate>
						<duration>6</duration>
						<start>2268</start>
						<end>2274</end>
						<in>0</in>
						<out>6</out>
					</clipitem>
					<clipitem frameBlend="FALSE" id="clipitem-telop-191">
						<file id="file-2"/>
						<name>テロップ191</name>
						<rate>
							<timebase>60</timebase>
							<ntsc>TRUE</ntsc>
						</rate>
						<rate>
							<timebase>60</timebase>
							<ntsc>TRUE</ntsc>
						</rate>
						<duration>6</duration>
						<start>2280</start>
						<end>2286</end>
						<in>0</in>
						<out>6</out>
					</clipitem>
					<clipitem frameBlend="FALSE" id="clipitem-telop-192">
						<file id="file-2"/>
						<name>テロップ192</name>
						<rate>
							<timebase>60</timebase>
							<ntsc>TRUE</ntsc>
						</rate>
						<rate>
							<timebase>60</timebase>
							<ntsc>TRUE</ntsc>
						</rate>
						<duration>6</duration>
						<start>2292</start>
						<end>2298</end>
						<in>0</in>
						<out>6</out>
					</clipitem>
					<clipitem frameBlend="FALSE" id="clipitem-telop-193">
						<file id="file-2"/>
						<name>テロップ193</name>
						<rate>
							<timebase>60</timebase>
							<ntsc>TRUE</ntsc>
						</rate>
						<rate>
							<timebase>60</timebase>
							<ntsc>TRUE</ntsc>
						</rate>
						<duration>6</duration>
						<start>2304</start>
						<end>2310</end>
						<in>0</in>
						<out>6</out>
					</clipitem>
					<clipitem frameBlend="FALSE" id="clipitem-telop-194">
						<file id="file-2"/>
						<name>テロップ194</name>
						<rate>
							<timebase>60</timebase>
							<ntsc>TRUE</ntsc>
						</rate>
						<rate>
							<timebase>60</timebase>
							<ntsc>TRUE</ntsc>
						</rate>
						<duration>6</duration>
						<start>2316</start>
						<end>2322</end>
						<in>0</in>
						<out>6</out>
					</clipitem>
					<clipitem frameBlend="FALSE" id="clipitem-telop-195">
						<file id="file-2"/>
						<name>テロップ195</name>
						<rate>
							<timebase>60</timebase>
							<ntsc>TRUE</ntsc>
						</rate>
						<rate>
							<timebase>60</timebase>
							<ntsc>TRUE</ntsc>
						</rate>
						<duration>6</duration>
						<start>2328</start>
						<end>2334</end>
						<in>0</in>
						<out>6</out>
					</clipitem>
					<clipitem frameBlend="FALSE" id="clipitem-telop-196">
						<file id="file-2"/>
						<name>テロップ196</name>
						<rate>
							<timebase>60</timebase>
							<ntsc>TRUE</ntsc>
						</rate>
						<rate>
							<timebase>60</timebase>
							<ntsc>TRUE</ntsc>
						</rate>
						<duration>6</duration>
						<start>2340</start>
						<end>2346</end>
						<in>0</in>
						<out>6</out>
					</clipitem>
					<clipitem frameBlend="FALSE" id="clipitem-telop-197">
						<file id="file-2"/>
						<name>テロップ197</name>
						<rate>
							<timebase>60</timebase>
							<ntsc>TRUE</ntsc>
						</rate>
						<rate>
							<timebase>60</timebase>
							<ntsc>TRUE</ntsc>
						</rate>
						<duration>6</duration>
						<start>2352</start>
						<end>2358</end>
						<in>0</in>
						<out>6</out>
					</clipitem>
					<clipitem frameBlend="FALSE" id="clipitem-telop-198">
						<file id="file-2"/>
						<name>テロップ198</name>
						<rate>
							<timebase>60</timebase>
							<ntsc>TRUE</ntsc>
						</rate>
						<rate>
							<timebase>60</timebase>
							<ntsc>TRUE</ntsc>
						</rate>
						<duration>6</duration>
						<start>2364</start>
						<end>2370</end>
						<in>0</in>
						<out>6</out>
					</clipitem>
					<clipitem frameBlend="FALSE" id="clipitem-telop-199">
						<file id="file-2"/>
						<name>テロップ199</name>
						<rate>
							<timebase>60</timebase>
							<ntsc>TRUE</ntsc>
						</rate>
						<rate>
							<timebase>60</timebase>
							<ntsc>TRUE</ntsc>
						</rate>
						<duration>6</duration>
						<start>2376</start>
						<end>2382</end>
						<in>0</in>
						<out>6</out>
					</clipitem>
					<clipitem frameBlend="FALSE" id="clipitem-telop-200">
						<file id="file-2"/>
						<name>テロップ200</name>
						<rate>
							<timebase>60</timebase>
							<ntsc>TRUE</ntsc>
						</rate>
						<rate>
							<timebase>60</timebase>
							<ntsc>TRUE</ntsc>
						</rate>
						<duration>6</duration>
						<start>2388</start>
						<end>2394</end>
						<in>0</in>
						<out>6</out>
					</clipitem>
					<clipitem frameBlend="FALSE" id="clipitem-telop-201">
						<file id="file-2"/>
						<name>テロップ201</name>
						<rate>
							<timebase>60</timebase>
							<ntsc>TRUE</ntsc>
						</rate>
						<rate>
							<timebase>60</timebase>
							<ntsc>TRUE</ntsc>
						</rate>
						<duration>6</duration>
						<start>2400</start>
						<end>2406</end>
						<in>0</in>
						<out>6</out>
					</clipitem>
					<clipitem frameBlend="FALSE" id="clipitem-telop-202">
						<file id="file-2"/>
						<name>テロップ202</name>
						<rate>
							<timebase>60</timebase>
							<ntsc>TRUE</ntsc>
						</rate>
						<rate>
							<timebase>60</timebase>
							<ntsc>TRUE</ntsc>
						</rate>
						<duration>6</duration>
						<start>2412</start>
						<end>2418</end>
						<in>0</in>
						<out>6</out>
					</clipitem>
					<clipitem frameBlend="FALSE" id="clipitem-telop-203">
						<file id="file-2"/>
						<name>テロップ203</name>
						<rate>
							<timebase>60</timebase>
							<ntsc>TRUE</ntsc>
						</rate>
						<rate>
							<timebase>60</timebase>
							<ntsc>TRUE</ntsc>
						</rate>
						<duration>6</duration>
						<start>2424</start>
						<end>2430</end>
						<in>0</in>
						<out>6</out>
					</clipitem>
					<clipitem frameBlend="FALSE" id="clipitem-telop-204">
						<file id="file-2"/>
						<name>テロップ204</name>
						<rate>
							<timebase>60</timebase>
							<ntsc>TRUE</ntsc>
						</rate>
						<rate>
							<timebase>60</timebase>
							<ntsc>TRUE</ntsc>
						</rate>
						<duration>6</duration>
						<start>2436</start>
						<end>2442</end>
						<in>0</in>
						<out>6</out>
					</clipitem>
					<clipitem frameBlend="FALSE" id="clipitem-telop-205">
						<file id="file-2"/>
						<name>テロップ205</name>
						<rate>
							<timebase>60</timebase>
							<ntsc>TRUE</ntsc>
						</rate>
						<rate>
							<timebase>60</timebase>
							<ntsc>TRUE</ntsc>
						</rate>
						<duration>6</duration>
						<start>2448</start>
						<end>2454</end>
						<in>0</in>
						<out>6</out>
					</clipitem>
					<clipitem frameBlend="FALSE" id="clipitem-telop-206">
						<file id="file-2"/>
						<name>テロップ206</name>
						<rate>
							<timebase>60</timebase>
							<ntsc>TRUE</ntsc>
						</rate>
						<rate>
							<timebase>60</timebase>
							<ntsc>TRUE</ntsc>
						</rate>
						<duration>6</duration>
						<start>2460</start>
						<end>2466</end>
						<in>0</in>
						<out>6</out>
					</clipitem>
					<clipitem frameBlend="FALSE" id="clipitem-telop-207">
						<file id="file-2"/>
						<name>テロップ207</name>
						<rate>
							<timebase>60</timebase>
							<ntsc>TRUE</ntsc>
						</rate>
						<rate>
							<timebase>60</timebase>
							<ntsc>TRUE</ntsc>
						</rate>
						<duration>6</duration>
						<start>2472</start>
						<end>2478</end>
						<in>0</in>
						<out>6</out>
					</clipitem>
					<clipitem frameBlend="FALSE" id="clipitem-telop-208">
						<file id="file-2"/>
						<name>テロップ208</name>
						<rate>
							<timebase>60</timebase>
							<ntsc>TRUE</ntsc>
						</rate>
						<rate>
							<timebase>60</timebase>
							<ntsc>TRUE</ntsc>
						</rate>
						<duration>6</duration>
						<start>2484</start>
						<end>2490</end>
						<in>0</in>
						<out>6</out>
					</clipitem>
					<clipitem frameBlend="FALSE" id="clipitem-telop-209">
						<file id="file-2"/>
						<name>テロップ209</name>
						<rate>
							<timebase>60</timebase>
							<ntsc>TRUE</ntsc>
						</rate>
						<rate>
							<timebase>60</timebase>
							<ntsc>TRUE</ntsc>
						</rate>
						<duration>6</duration>
						<start>2496</start>
						<end>2502</end>
						<in>0</in>
						<out>6</out>
					</clipitem>
					<clipitem frameBlend="FALSE" id="clipitem-telop-210">
						<file id="file-2"/>
						<name>テロップ210</name>
						<rate>
							<timebase>60</timebase>
							<ntsc>TRUE</ntsc>
						</rate>
						<rate>
							<timebase>60</timebase>
							<ntsc>TRUE</ntsc>
						</rate>
						<duration>6</duration>
						<start>2508</start>
						<end>2514</end>
						<in>0</in>
						<out>6</out>
					</clipitem>
					<clipitem frameBlend="FALSE" id="clipitem-telop-211">
						<file id="file-2"/>
						<name>テロップ211</name>
						<rate>
							<timebase>60</timebase>
							<ntsc>TRUE</ntsc>
						</rate>
						<rate>
							<timebase>60</timebase>
							<ntsc>TRUE</ntsc>
						</rate>
						<duration>6</duration>
						<start>2520</start>
						<end>2526</end>
						<in>0</in>
						<out>6</out>
					</clipitem>
					<clipitem frameBlend="FALSE" id="clipitem-telop-212">
						<file id="file-2"/>
						<name>テロップ212</name>
						<rate>
							<timebase>60</timebase>
							<ntsc>TRUE</ntsc>
						</rate>
						<rate>
							<timebase>60</timebase>
							<ntsc>TRUE</ntsc>
						</rate>
						<duration>6</duration>
						<start>2532</start>
						<end>2538</end>
						<in>0</in>
						<out>6</out>
					</clipitem>
					<clipitem frameBlend="FALSE" id="clipitem-telop-213">
						<file id="file-2"/>
						<name>テロップ213</name>
						<rate>
							<timebase>60</timebase>
							<ntsc>TRUE</ntsc>
						</rate>
						<rate>
							<timebase>60</timebase>
							<ntsc>TRUE</ntsc>
						</rate>
						<duration>6</duration>
						<start>2544</start>
						<end>2550</end>
						<in>0</in>
						<out>6</out>
					</clipitem>
					<clipitem frameBlend="FALSE" id="clipitem-telop-214">
						<file id="file-2"/>
						<name>テロップ214</name>
						<rate>
							<timebase>60</timebase>
							<ntsc>TRUE</ntsc>
						</rate>
						<rate>
							<timebase>60</timebase>
							<ntsc>TRUE</ntsc>
						</rate>
						<duration>6</duration>
						<start>2556</start>
						<end>2562</end>
						<in>0</in>
						<out>6</out>
					</clipitem>
					<clipitem frameBlend="FALSE" id="clipitem-telop-215">
						<file id="file-2"/>
						<name>テロップ215</name>
						<rate>
							<timebase>60</timebase>
							<ntsc>TRUE</ntsc>
						</rate>
						<rate>
							<timebase>60</timebase>
							<ntsc>TRUE</ntsc>
						</rate>
						<duration>6</duration>
						<start>2568</start>
						<end>2574</end>
						<in>0</in>
						<out>6</out>
					</clipitem>
					<clipitem frameBlend="FALSE" id="clipitem-telop-216">
						<file id="file-2"/>
						<name>テロップ216</name>
						<rate>
							<timebase>60</timebase>
							<ntsc>TRUE</ntsc>
						</rate>
						<rate>
							<timebase>60</timebase>
							<ntsc>TRUE</ntsc>
						</rate>
						<duration>6</duration>
						<start>2580</start>
						<end>2586</end>
						<in>0</in>
						<out>6</out>
					</clipitem>
					<clipitem frameBlend="FALSE" id="clipitem-telop-217">
						<file id="file-2"/>
						<name>テロップ217</name>
						<rate>
							<timebase>60</timebase>
							<ntsc>TRUE</ntsc>
						</rate>
						<rate>
							<timebase>60</timebase>
							<ntsc>TRUE</ntsc>
						</rate>
						<duration>6</duration>
						<start>2592</start>
						<end>2598</end>
						<in>0</in>
						<out>6</out>
					</clipitem>
					<clipitem frameBlend="FALSE" id="clipitem-telop-218">
						<file id="file-2"/>
						<name>テロップ218</name>
						<rate>
							<timebase>60</timebase>
							<ntsc>TRUE</ntsc>
						</rate>
						<rate>
							<timebase>60</timebase>
							<ntsc>TRUE</ntsc>
						</rate>
						<duration>6</duration>
						<start>2604</start>
						<end>2610</end>
						<in>0</in>
						<out>6</out>
					</clipitem>
					<clipitem frameBlend="FALSE" id="clipitem-telop-219">
						<file id="file-2"/>
						<name>テロップ219</name>
						<rate>
							<timebase>60</timebase>
							<ntsc>TRUE</ntsc>
						</rate>
						<rate>
							<timebase>60</timebase>
							<ntsc>TRUE</ntsc>
						</rate>
						<duration>6</duration>
						<start>2616</start>
						<end>2622</end>
						<in>0</in>
						<out>6</out>
					</clipitem>
					<clipitem frameBlend="FALSE" id="clipitem-telop-220">
						<file id="file-2"/>
						<name>テロップ220</name>
						<rate>
							<timebase>60</timebase>
							<ntsc>TRUE</ntsc>
						</rate>
						<rate>
							<timebase>60</timebase>
							<ntsc>TRUE</ntsc>
						</rate>
						<duration>6</duration>
						<start>2628</start>
						<end>2634</end>
						<in>0</in>
						<out>6</out>
					</clipitem>
					<clipitem frameBlend="FALSE" id="clipitem-telop-221">
						<file id="file-2"/>
						<name>テロップ221</name>
						<rate>
							<timebase>60</timebase>
							<ntsc>TRUE</ntsc>
						</rate>
						<rate>
							<timebase>60</timebase>
							<ntsc>TRUE</ntsc>
						</rate>
						<duration>6</duration>
						<start>2640</start>
						<end>2646</end>
						<in>0</in>
						<out>6</out>
					</clipitem>
					<clipitem frameBlend="FALSE" id="clipitem-telop-222">
						<file id="file-2"/>
						<name>テロップ222</name>
						<rate>
							<timebase>60</timebase>
							<ntsc>TRUE</ntsc>
						</rate>
						<rate>
							<timebase>60</timebase>
							<ntsc>TRUE</ntsc>
						</rate>
						<duration>6</duration>
						<start>2652</start>
						<end>2658</end>
						<in>0</in>
						<out>6</out>
					</clipitem>
					<clipitem frameBlend="FALSE" id="clipitem-telop-223">
						<file id="file-2"/>
						<name>テロップ223</name>
						<rate>
							<timebase>60</timebase>
							<ntsc>TRUE</ntsc>
						</rate>
						<rate>
							<timebase>60</timebase>
							<ntsc>TRUE</ntsc>
						</rate>
						<duration>6</duration>
						<start>2664</start>
						<end>2670</end>
						<in>0</in>
						<out>6</out>
					</clipitem>
					<clipitem frameBlend="FALSE" id="clipitem-telop-224">
						<file id="file-2"/>
						<name>テロップ224</name>
						<rate>
							<timebase>60</timebase>
							<ntsc>TRUE</ntsc>
						</rate>
						<rate>
							<timebase>60</timebase>
							<ntsc>TRUE</ntsc>
						</rate>
						<duration>6</duration>
						<start>2676</start>
						<end>2682</end>
						<in>0</in>
						<out>6</out>
					</clipitem>
					<clipitem frameBlend="FALSE" id="clipitem-telop-225">
						<file id="file-2"/>
						<name>テロップ225</name>
						<rate>
							<timebase>60</timebase>
							<ntsc>TRUE</ntsc>
						</rate>
						<rate>
							<timebase>60</timebase>
							<ntsc>TRUE</ntsc>
						</rate>
						<duration>6</duration>
						<start>2688</start>
						<end>2694</end>
						<in>0</in>
						<out>6</out>
					</clipitem>
					<clipitem frameBlend="FALSE" id="clipitem-telop-226">
						<file id="file-2"/>
						<name>テロップ226</name>
						<rate>
							<timebase>60</timebase>
							<ntsc>TRUE</ntsc>
						</rate>
						<rate>
							<timebase>60</timebase>
							<ntsc>TRUE</ntsc>
						</rate>
						<duration>6</duration>
						<start>2700</start>
						<end>2706</end>
						<in>0</in>
						<out>6</out>
					</clipitem>
					<clipitem frameBlend="FALSE" id="clipitem-telop-227">
						<file id="file-2"/>
						<name>テロップ227</name>
						<rate>
							<timebase>60</timebase>
							<ntsc>TRUE</ntsc>
						</rate>
						<rate>
							<timebase>60</timebase>
							<ntsc>TRUE</ntsc>
						</rate>
						<duration>6</duration>
						<start>2712</start>
						<end>2718</end>
						<in>0</in>
						<out>6</out>
					</clipitem>
					<clipitem frameBlend="FALSE" id="clipitem-telop-228">
						<file id="file-2"/>
						<name>テロップ228</name>
						<rate>
							<timebase>60</timebase>
							<ntsc>TRUE</ntsc>
						</rate>
						<rate>
							<timebase>60</timebase>
							<ntsc>TRUE</ntsc>
						</rate>
						<duration>6</duration>
						<start>2724</start>
						<end>2730</end>
						<in>0</in>
						<out>6</out>
					</clipitem>
					<clipitem frameBlend="FALSE" id="clipitem-telop-229">
						<file id="file-2"/>
						<name>テロップ229</name>
						<rate>
							<timebase>60</timebase>
							<ntsc>TRUE</ntsc>
						</rate>
						<rate>
							<timebase>60</timebase>
							<ntsc>TRUE</ntsc>
						</rate>
						<duration>6</duration>
						<start>2736</start>
						<end>2742</end>
						<in>0</in>
						<out>6</out>
					</clipitem>
					<clipitem frameBlend="FALSE" id="clipitem-telop-230">
						<file id="file-2"/>
						<name>テロップ230</name>
						<rate>
							<timebase>60</timebase>
							<ntsc>TRUE</ntsc>
						</rate>
						<rate>
							<timebase>60</timebase>
							<ntsc>TRUE</ntsc>
						</rate>
						<duration>6</duration>
						<start>2748</start>
						<end>2754</end>
						<in>0</in>
						<out>6</out>
					</clipitem>
					<clipitem frameBlend="FALSE" id="clipitem-telop-231">
						<file id="file-2"/>
						<name>テロップ231</name>
						<rate>
							<timebase>60</timebase>
							<ntsc>TRUE</ntsc>
						</rate>
						<rate>
							<timebase>60</timebase>
							<ntsc>TRUE</ntsc>
						</rate>
						<duration>6</duration>
						<start>2760</start>
						<end>2766</end>
						<in>0</in>
						<out>6</out>
					</clipitem>
					<clipitem frameBlend="FALSE" id="clipitem-telop-232">
						<file id="file-2"/>
						<name>テロップ232</name>
						<rate>
							<timebase>60</timebase>
							<ntsc>TRUE</ntsc>
						</rate>
						<rate>
							<timebase>60</timebase>
							<ntsc>TRUE</ntsc>
						</rate>
						<duration>6</duration>
						<start>2772</start>
						<end>2778</end>
						<in>0</in>
						<out>6</out>
					</clipitem>
					<clipitem frameBlend="FALSE" id="clipitem-telop-233">
						<file id="file-2"/>
						<name>テロップ233</name>
						<rate>
							<timebase>60</timebase>
							<ntsc>TRUE</ntsc>
						</rate>
						<rate>
							<timebase>60</timebase>
							<ntsc>TRUE</ntsc>
						</rate>
						<duration>6</duration>
						<start>2784</start>
						<end>2790</end>
						<in>0</in>
						<out>6</out>
					</clipitem>
					<clipitem frameBlend="FALSE" id="clipitem-telop-234">
						<file id="file-2"/>
						<name>テロップ234</name>
						<rate>
							<timebase>60</timebase>
							<ntsc>TRUE</ntsc>
						</rate>
						<rate>
							<timebase>60</timebase>
							<ntsc>TRUE</ntsc>
						</rate>
						<duration>6</duration>
						<start>2796</start>
						<end>2802</end>
						<in>0</in>
						<out>6</out>
					</clipitem>
					<clipitem frameBlend="FALSE" id="clipitem-telop-235">
						<file id="file-2"/>
						<name>テロップ235</name>
						<rate>
							<timebase>60</timebase>
							<ntsc>TRUE</ntsc>
						</rate>
						<rate>
							<timebase>60</timebase>
							<ntsc>TRUE</ntsc>
						</rate>
						<duration>6</duration>
						<start>2808</start>
						<end>2814</end>
						<in>0</in>
						<out>6</out>
					</clipitem>
					<clipitem frameBlend="FALSE" id="clipitem-telop-236">
						<file id="file-2"/>
						<name>テロップ236</name>
						<rate>
							<timebase>60</timebase>
							<ntsc>TRUE</ntsc>
						</rate>
						<rate>
							<timebase>60</timebase>
							<ntsc>TRUE</ntsc>
						</rate>
						<duration>6</duration>
						<start>2820</start>
						<end>2826</end>
						<in>0</in>
						<out>6</out>
					</clipitem>
					<clipitem frameBlend="FALSE" id="clipitem-telop-237">
						<file id="file-2"/>
						<name>テロップ237</name>
						<rate>
							<timebase>60</timebase>
							<ntsc>TRUE</ntsc>
						</rate>
						<rate>
							<timebase>60</timebase>
							<ntsc>TRUE</ntsc>
						</rate>
						<duration>6</duration>
						<start>2832</start>
						<end>2838</end>
						<in>0</in>
						<out>6</out>
					</clipitem>
					<clipitem frameBlend="FALSE" id="clipitem-telop-238">
						<file id="file-2"/>
						<name>テロップ238</name>
						<rate>
							<timebase>60</timebase>
							<ntsc>TRUE</ntsc>
						</rate>
						<rate>
							<timebase>60</timebase>
							<ntsc>TRUE</ntsc>
						</rate>
						<duration>6</duration>
						<start>2844</start>
						<end>2850</end>
						<in>0</in>
						<out>6</out>
					</clipitem>
					<clipitem frameBlend="FALSE" id="clipitem-telop-239">
						<file id="file-2"/>
						<name>テロップ239</name>
						<rate>
							<timebase>60</timebase>
							<ntsc>TRUE</ntsc>
						</rate>
						<rate>
							<timebase>60</timebase>
							<ntsc>TRUE</ntsc>
						</rate>
						<duration>6</duration>
						<start>2856</start>
						<end>2862</end>
						<in>0</in>
						<out>6</out>
					</clipitem>
					<clipitem frameBlend="FALSE" id="clipitem-telop-240">
						<file id="file-2"/>
						<name>テロップ240</name>
						<rate>
							<timebase>60</timebase>
							<ntsc>TRUE</ntsc>
						</rate>
						<rate>
							<timebase>60</timebase>
							<ntsc>TRUE</ntsc>
						</rate>
						<duration>6</duration>
						<start>2868</start>
						<end>2874</end>
						<in>0</in>
						<out>6</out>
					</clipitem>
					<clipitem frameBlend="FALSE" id="clipitem-telop-241">
						<file id="file-2"/>
						<name>テロップ241</name>
						<rate>
							<timebase>60</timebase>
							<ntsc>TRUE</ntsc>
						</rate>
						<rate>
							<timebase>60</timebase>
							<ntsc>TRUE</ntsc>
						</rate>
						<duration>6</duration>
						<start>2880</start>
						<end>2886</end>
						<in>0</in>
						<out>6</out>
					</clipitem>
					<clipitem frameBlend="FALSE" id="clipitem-telop-242">
						<file id="file-2"/>
						<name>テロップ242</name>
						<rate>
							<timebase>60</timebase>
							<ntsc>TRUE</ntsc>
						</rate>
						<rate>
							<timebase>60</timebase>
							<ntsc>TRUE</ntsc>
						</rate>
						<duration>6</duration>
						<start>2892</start>
						<end>2898</end>
						<in>0</in>
						<out>6</out>
					</clipitem>
					<clipitem frameBlend="FALSE" id="clipitem-telop-243">
						<file id="file-2"/>
						<name>テロップ243</name>
						<rate>
							<timebase>60</timebase>
							<ntsc>TRUE</ntsc>
						</rate>
						<rate>
							<timebase>60</timebase>
							<ntsc>TRUE</ntsc>
						</rate>
						<duration>6</duration>
						<start>2904</start>
						<end>2910</end>
						<in>0</in>
						<out>6</out>
					</clipitem>
					<clipitem frameBlend="FALSE" id="clipitem-telop-244">
						<file id="file-2"/>
						<name>テロップ244</name>
						<rate>
							<timebase>60</timebase>
							<ntsc>TRUE</ntsc>
						</rate>
						<rate>
							<timebase>60</timebase>
							<ntsc>TRUE</ntsc>
						</rate>
						<duration>6</duration>
						<start>2916</start>
						<end>2922</end>
						<in>0</in>
						<out>6</out>
					</clipitem>
					<clipitem frameBlend="FALSE" id="clipitem-telop-245">
						<file id="file-2"/>
						<name>テロップ245</name>
						<rate>
							<timebase>60</timebase>
							<ntsc>TRUE</ntsc>
						</rate>
						<rate>
							<timebase>60</timebase>
							<ntsc>TRUE</ntsc>
						</rate>
						<duration>6</duration>
						<start>2928</start>
						<end>2934</end>
						<in>0</in>
						<out>6</out>
					</clipitem>
					<clipitem frameBlend="FALSE" id="clipitem-telop-246">
						<file id="file-2"/>
						<name>テロップ246</name>
						<rate>
							<timebase>60</timebase>
							<ntsc>TRUE</ntsc>
						</rate>
						<rate>
							<timebase>60</timebase>
							<ntsc>TRUE</ntsc>
						</rate>
						<duration>6</duration>
						<start>2940</start>
						<end>2946</end>
						<in>0</in>
						<out>6</out>
					</clipitem>
					<clipitem frameBlend="FALSE" id="clipitem-telop-247">
						<file id="file-2"/>
						<name>テロップ247</name>
						<rate>
							<timebase>60</timebase>
							<ntsc>TRUE</ntsc>
						</rate>
						<rate>
							<timebase>60</timebase>
							<ntsc>TRUE</ntsc>
						</rate>
						<duration>6</duration>
						<start>2952</start>
						<end>2958</end>
						<in>0</in>
						<out>6</out>
					</clipitem>
					<clipitem frameBlend="FALSE" id="clipitem-telop-248">
						<file id="file-2"/>
						<name>テロップ248</name>
						<rate>
							<timebase>60</timebase>
							<ntsc>TRUE</ntsc>
						</rate>
						<rate>
							<timebase>60</timebase>
							<ntsc>TRUE</ntsc>
						</rate>
						<duration>6</duration>
						<start>2964</start>
						<end>2970</end>
						<in>0</in>
						<out>6</out>
					</clipitem>
					<clipitem frameBlend="FALSE" id="clipitem-telop-249">
						<file id="file-2"/>
						<name>テロップ249</name>
						<rate>
							<timebase>60</timebase>
							<ntsc>TRUE</ntsc>
						</rate>
						<rate>
							<timebase>60</timebase>
							<ntsc>TRUE</ntsc>
						</rate>
						<duration>6</duration>
						<start>2976</start>
						<end>2982</end>
						<in>0</in>
						<out>6</out>
					</clipitem>
					<clipitem frameBlend="FALSE" id="clipitem-telop-250">
						<file id="file-2"/>
						<name>テロップ250</name>
						<rate>
							<timebase>60</timebase>
							<ntsc>TRUE</ntsc>
						</rate>
						<rate>
							<timebase>60</timebase>
							<ntsc>TRUE</ntsc>
						</rate>
						<duration>6</duration>
						<start>2988</start>
						<end>2994</end>
						<in>0</in>
						<out>6</out>
					</clipitem>
					<clipitem frameBlend="FALSE" id="clipitem-telop-251">
						<file id="file-2"/>
						<name>テロップ251</name>
						<rate>
							<timebase>60</timebase>
							<ntsc>TRUE</ntsc>
						</rate>
						<rate>
							<timebase>60</timebase>
							<ntsc>TRUE</ntsc>
						</rate>
						<duration>6</duration>
						<start>3000</start>
						<end>3006</end>
						<in>0</in>
						<out>6</out>
					</clipitem>
					<clipitem frameBlend="FALSE" id="clipitem-telop-252">
						<file id="file-2"/>
						<name>テロップ252</name>
						<rate>
							<timebase>60</timebase>
							<ntsc>TRUE</ntsc>
						</rate>
						<rate>
							<timebase>60</timebase>
							<ntsc>TRUE</ntsc>
						</rate>
						<duration>6</duration>
						<start>3012</start>
						<end>3018</end>
						<in>0</in>
						<out>6</out>
					</clipitem>
					<clipitem frameBlend="FALSE" id="clipitem-telop-253">
						<file id="file-2"/>
						<name>テロップ253</name>
						<rate>
							<timebase>60</timebase>
							<ntsc>TRUE</ntsc>
						</rate>
						<rate>
							<timebase>60</timebase>
							<ntsc>TRUE</ntsc>
						</rate>
						<duration>6</duration>
						<start>3024</start>
						<end>3030</end>
						<in>0</in>
						<out>6</out>
					</clipitem>
					<clipitem frameBlend="FALSE" id="clipitem-telop-254">
						<file id="file-2"/>
						<name>テロップ254</name>
						<rate>
							<timebase>60</timebase>
							<ntsc>TRUE</ntsc>
						</rate>
						<rate>
							<timebase>60</timebase>
							<ntsc>TRUE</ntsc>
						</rate>
						<duration>6</duration>
						<start>3036</start>
						<end>3042</end>
						<in>0</in>
						<out>6</out>
					</clipitem>
					<clipitem frameBlend="FALSE" id="clipitem-telop-255">
						<file id="file-2"/>
						<name>テロップ255</name>
						<rate>
							<timebase>60</timebase>
							<ntsc>TRUE</ntsc>
						</rate>
						<rate>
							<timebase>60</timebase>
							<ntsc>TRUE</ntsc>
						</rate>
						<duration>6</duration>
						<start>3048</start>
						<end>3054</end>
						<in>0</in>
						<out>6</out>
					</clipitem>
					<clipitem frameBlend="FALSE" id="clipitem-telop-256">
						<file id="file-2"/>
						<name>テロップ256</name>
						<rate>
							<timebase>60</timebase>
							<ntsc>TRUE</ntsc>
						</rate>
						<rate>
							<timebase>60</timebase>
							<ntsc>TRUE</ntsc>
						</rate>
						<duration>6</duration>
						<start>3060</start>
						<end>3066</end>
						<in>0</in>
						<out>6</out>
					</clipitem>
					<clipitem frameBlend="FALSE" id="clipitem-telop-257">
						<file id="file-2"/>
						<name>テロップ257</name>
						<rate>
							<timebase>60</timebase>
							<ntsc>TRUE</ntsc>
						</rate>
						<rate>
							<timebase>60</timebase>
							<ntsc>TRUE</ntsc>
						</rate>
						<duration>6</duration>
						<start>3072</start>
						<end>3078</end>
						<in>0</in>
						<out>6</out>
					</clipitem>
					<clipitem frameBlend="FALSE" id="clipitem-telop-258">
						<file id="file-2"/>
						<name>テロップ258</name>
						<rate>
							<timebase>60</timebase>
							<ntsc>TRUE</ntsc>
						</rate>
						<rate>
							<timebase>60</timebase>
							<ntsc>TRUE</ntsc>
						</rate>
						<duration>6</duration>
						<start>3084</start>
						<end>3090</end>
						<in>0</in>
						<out>6</out>
					</clipitem>
					<clipitem frameBlend="FALSE" id="clipitem-telop-259">
						<file id="file-2"/>
						<name>テロップ259</name>
						<rate>
							<timebase>60</timebase>
							<ntsc>TRUE</ntsc>
						</rate>
						<rate>
							<timebase>60</timebase>
							<ntsc>TRUE</ntsc>
						</rate>
						<duration>6</duration>
						<start>3096</start>
						<end>3102</end>
						<in>0</in>
						<out>6</out>
					</clipitem>
					<clipitem frameBlend="FALSE" id="clipitem-telop-260">
						<file id="file-2"/>
						<name>テロップ260</name>
						<rate>
							<timebase>60</timebase>
							<ntsc>TRUE</ntsc>
						</rate>
						<rate>
							<timebase>60</timebase>
							<ntsc>TRUE</ntsc>
						</rate>
						<duration>6</duration>
						<start>3108</start>
						<end>3114</end>
						<in>0</in>
						<out>6</out>
					</clipitem>
					<clipitem frameBlend="FALSE" id="clipitem-telop-261">
						<file id="file-2"/>
						<name>テロップ261</name>
						<rate>
							<timebase>60</timebase>
							<ntsc>TRUE</ntsc>
						</rate>
						<rate>
							<timebase>60</timebase>
							<ntsc>TRUE</ntsc>
						</rate>
						<duration>6</duration>
						<start>3120</start>
						<end>3126</end>
						<in>0</in>
						<out>6</out>
					</clipitem>
					<clipitem frameBlend="FALSE" id="clipitem-telop-262">
						<file id="file-2"/>
						<name>テロップ262</name>
						<rate>
							<timebase>60</timebase>
							<ntsc>TRUE</ntsc>
						</rate>
						<rate>
							<timebase>60</timebase>
							<ntsc>TRUE</ntsc>
						</rate>
						<duration>6</duration>
						<start>3132</start>
						<end>3138</end>
						<in>0</in>
						<out>6</out>
					</clipitem>
					<clipitem frameBlend="FALSE" id="clipitem-telop-263">
						<file id="file-2"/>
						<name>テロップ263</name>
						<rate>
							<timebase>60</timebase>
							<ntsc>TRUE</ntsc>
						</rate>
						<rate>
							<timebase>60</timebase>
							<ntsc>TRUE</ntsc>
						</rate>
						<duration>6</duration>
						<start>3144</start>
						<end>3150</end>
						<in>0</in>
						<out>6</out>
					</clipitem>
					<clipitem frameBlend="FALSE" id="clipitem-telop-264">
						<file id="file-2"/>
						<name>テロップ264</name>
						<rate>
							<timebase>60</timebase>
							<ntsc>TRUE</ntsc>
						</rate>
						<rate>
							<timebase>60</timebase>
							<ntsc>TRUE</ntsc>
						</rate>
						<duration>6</duration>
						<start>3156</start>
						<end>3162</end>
						<in>0</in>
						<out>6</out>
					</clipitem>
					<clipitem frameBlend="FALSE" id="clipitem-telop-265">
						<file id="file-2"/>
						<name>テロップ265</name>
						<rate>
							<timebase>60</timebase>
							<ntsc>TRUE</ntsc>
						</rate>
						<rate>
							<timebase>60</timebase>
							<ntsc>TRUE</ntsc>
						</rate>
						<duration>6</duration>
						<start>3168</start>
						<end>3174</end>
						<in>0</in>
						<out>6</out>
					</clipitem>
					<clipitem frameBlend="FALSE" id="clipitem-telop-266">
						<file id="file-2"/>
						<name>テロップ266</name>
						<rate>
							<timebase>60</timebase>
							<ntsc>TRUE</ntsc>
						</rate>
						<rate>
							<timebase>60</timebase>
							<ntsc>TRUE</ntsc>
						</rate>
						<duration>6</duration>
						<start>3180</start>
						<end>3186</end>
						<in>0</in>
						<out>6</out>
					</clipitem>
					<clipitem frameBlend="FALSE" id="clipitem-telop-267">
						<file id="file-2"/>
						<name>テロップ267</name>
						<rate>
							<timebase>60</timebase>
							<ntsc>TRUE</ntsc>
						</rate>
						<rate>
							<timebase>60</timebase>
							<ntsc>TRUE</ntsc>
						</rate>
						<duration>6</duration>
						<start>3192</start>
						<end>3198</end>
						<in>0</in>
						<out>6</out>
					</clipitem>
					<clipitem frameBlend="FALSE" id="clipitem-telop-268">
						<file id="file-2"/>
						<name>テロップ268</name>
						<rate>
							<timebase>60</timebase>
							<ntsc>TRUE</ntsc>
						</rate>
						<rate>
							<timebase>60</timebase>
							<ntsc>TRUE</ntsc>
						</rate>
						<duration>6</duration>
						<start>3204</start>
						<end>3210</end>
						<in>0</in>
						<out>6</out>
					</clipitem>
					<clipitem frameBlend="FALSE" id="clipitem-telop-269">
						<file id="file-2"/>
						<name>テロップ269</name>
						<rate>
							<timebase>60</timebase>
							<ntsc>TRUE</ntsc>
						</rate>
						<rate>
							<timebase>60</timebase>
							<ntsc>TRUE</ntsc>
						</rate>
						<duration>6</duration>
						<start>3216</start>
						<end>3222</end>
						<in>0</in>
						<out>6</out>
					</clipitem>
					<clipitem frameBlend="FALSE" id="clipitem-telop-270">
						<file id="file-2"/>
						<name>テロップ270</name>
						<rate>
							<timebase>60</timebase>
							<ntsc>TRUE</ntsc>
						</rate>
						<rate>
							<timebase>60</timebase>
							<ntsc>TRUE</ntsc>
						</rate>
						<duration>6</duration>
						<start>3228</start>
						<end>3234</end>
						<in>0</in>
						<out>6</out>
					</clipitem>
					<clipitem frameBlend="FALSE" id="clipitem-telop-271">
						<file id="file-2"/>
						<name>テロップ271</name>
						<rate>
							<timebase>60</timebase>
							<ntsc>TRUE</ntsc>
						</rate>
						<rate>
							<timebase>60</timebase>
							<ntsc>TRUE</ntsc>
						</rate>
						<duration>6</duration>
						<start>3240</start>
						<end>3246</end>
						<in>0</in>
						<out>6</out>
					</clipitem>
					<clipitem frameBlend="FALSE" id="clipitem-telop-272">
						<file id="file-2"/>
						<name>テロップ272</name>
						<rate>
							<timebase>60</timebase>
							<ntsc>TRUE</ntsc>
						</rate>
						<rate>
							<timebase>60</timebase>
							<ntsc>TRUE</ntsc>
						</rate>
						<duration>6</duration>
						<start>3252</start>
						<end>3258</end>
						<in>0</in>
						<out>6</out>
					</clipitem>
					<clipitem frameBlend="FALSE" id="clipitem-telop-273">
						<file id="file-2"/>
						<name>テロップ273</name>
						<rate>
							<timebase>60</timebase>
							<ntsc>TRUE</ntsc>
						</rate>
						<rate>
							<timebase>60</timebase>
							<ntsc>TRUE</ntsc>
						</rate>
						<duration>6</duration>
						<start>3264</start>
						<end>3270</end>
						<in>0</in>
						<out>6</out>
					</clipitem>
					<clipitem frameBlend="FALSE" id="clipitem-telop-274">
						<file id="file-2"/>
						<name>テロップ274</name>
						<rate>
							<timebase>60</timebase>
							<ntsc>TRUE</ntsc>
						</rate>
						<rate>
							<timebase>60</timebase>
							<ntsc>TRUE</ntsc>
						</rate>
						<duration>6</duration>
						<start>3276</start>
						<end>3282</end>
						<in>0</in>
						<out>6</out>
					</clipitem>
					<clipitem frameBlend="FALSE" id="clipitem-telop-275">
						<file id="file-2"/>
						<name>テロップ275</name>
						<rate>
							<timebase>60</timebase>
							<ntsc>TRUE</ntsc>
						</rate>
						<rate>
							<timebase>60</timebase>
							<ntsc>TRUE</ntsc>
						</rate>
						<duration>6</duration>
						<start>3288</start>
						<end>3294</end>
						<in>0</in>
						<out>6</out>
					</clipitem>
					<clipitem frameBlend="FALSE" id="clipitem-telop-276">
						<file id="file-2"/>
						<name>テロップ276</name>
						<rate>
							<timebase>60</timebase>
							<ntsc>TRUE</ntsc>
						</rate>
						<rate>
							<timebase>60</timebase>
							<ntsc>TRUE</ntsc>
						</rate>
						<duration>6</duration>
						<start>3300</start>
						<end>3306</end>
						<in>0</in>
						<out>6</out>
					</clipitem>
					<clipitem frameBlend="FALSE" id="clipitem-telop-277">
						<file id="file-2"/>
						<name>テロップ277</name>
						<rate>
							<timebase>60</timebase>
							<ntsc>TRUE</ntsc>
						</rate>
						<rate>
							<timebase>60</timebase>
							<ntsc>TRUE</ntsc>
						</rate>
						<duration>6</duration>
						<start>3312</start>
						<end>3318</end>
						<in>0</in>
						<out>6</out>
					</clipitem>
					<clipitem frameBlend="FALSE" id="clipitem-telop-278">
						<file id="file-2"/>
						<name>テロップ278</name>
						<rate>
							<timebase>60</timebase>
							<ntsc>TRUE</ntsc>
						</rate>
						<rate>
							<timebase>60</timebase>
							<ntsc>TRUE</ntsc>
						</rate>
						<duration>6</duration>
						<start>3324</start>
						<end>3330</end>
						<in>0</in>
						<out>6</out>
					</clipitem>
					<clipitem frameBlend="FALSE" id="clipitem-telop-279">
						<file id="file-2"/>
						<name>テロップ279</name>
						<rate>
							<timebase>60</timebase>
							<ntsc>TRUE</ntsc>
						</rate>
						<rate>
							<timebase>60</timebase>
							<ntsc>TRUE</ntsc>
						</rate>
						<duration>6</duration>
						<start>3336</start>
						<end>3342</end>
						<in>0</in>
						<out>6</out>
					</clipitem>
					<clipitem frameBlend="FALSE" id="clipitem-telop-280">
						<file id="file-2"/>
						<name>テロップ280</name>
						<rate>
							<timebase>60</timebase>
							<ntsc>TRUE</ntsc>
						</rate>
						<rate>
							<timebase>60</timebase>
							<ntsc>TRUE</ntsc>
						</rate>
						<duration>6</duration>
						<start>3348</start>
						<end>3354</end>
						<in>0</in>
						<out>6</out>
					</clipitem>
					<clipitem frameBlend="FALSE" id="clipitem-telop-281">
						<file id="file-2"/>
						<name>テロップ281</name>
						<rate>
							<timebase>60</timebase>
							<ntsc>TRUE</ntsc>
						</rate>
						<rate>
							<timebase>60</timebase>
							<ntsc>TRUE</ntsc>
						</rate>
						<duration>6</duration>
						<start>3360</start>
						<end>3366</end>
						<in>0</in>
						<out>6</out>
					</clipitem>
					<clipitem frameBlend="FALSE" id="clipitem-telop-282">
						<file id="file-2"/>
						<name>テロップ282</name>
						<rate>
							<timebase>60</timebase>
							<ntsc>TRUE</ntsc>
						</rate>
						<rate>
							<timebase>60</timebase>
							<ntsc>TRUE</ntsc>
						</rate>
						<duration>6</duration>
						<start>3372</start>
						<end>3378</end>
						<in>0</in>
						<out>6</out>
					</clipitem>
					<clipitem frameBlend="FALSE" id="clipitem-telop-283">
						<file id="file-2"/>
						<name>テロップ283</name>
						<rate>
							<timebase>60</timebase>
							<ntsc>TRUE</ntsc>
						</rate>
						<rate>
							<timebase>60</timebase>
							<ntsc>TRUE</ntsc>
						</rate>
						<duration>6</duration>
						<start>3384</start>
						<end>3390</end>
						<in>0</in>
						<out>6</out>
					</clipitem>
					<clipitem frameBlend="FALSE" id="clipitem-telop-284">
						<file id="file-2"/>
						<name>テロップ284</name>
						<rate>
							<timebase>60</timebase>
							<ntsc>TRUE</ntsc>
						</rate>
						<rate>
							<timebase>60</timebase>
							<ntsc>TRUE</ntsc>
						</rate>
						<duration>6</duration>
						<start>3396</start>
						<end>3402</end>
						<in>0</in>
						<out>6</out>
					</clipitem>
					<clipitem frameBlend="FALSE" id="clipitem-telop-285">
						<file id="file-2"/>
						<name>テロップ285</name>
						<rate>
							<timebase>60</timebase>
							<ntsc>TRUE</ntsc>
						</rate>
						<rate>
							<timebase>60</timebase>
							<ntsc>TRUE</ntsc>
						</rate>
						<duration>6</duration>
						<start>3408</start>
						<end>3414</end>
						<in>0</in>
						<out>6</out>
					</clipitem>
					<clipitem frameBlend="FALSE" id="clipitem-telop-286">
						<file id="file-2"/>
						<name>テロップ286</name>
						<rate>
							<timebase>60</timebase>
							<ntsc>TRUE</ntsc>
						</rate>
						<rate>
							<timebase>60</timebase>
							<ntsc>TRUE</ntsc>
						</rate>
						<duration>6</duration>
						<start>3420</start>
						<end>3426</end>
						<in>0</in>
						<out>6</out>
					</clipitem>
					<clipitem frameBlend="FALSE" id="clipitem-telop-287">
						<file id="file-2"/>
						<name>テロップ287</name>
						<rate>
							<timebase>60</timebase>
							<ntsc>TRUE</ntsc>
						</rate>
						<rate>
							<timebase>60</timebase>
							<ntsc>TRUE</ntsc>
						</rate>
						<duration>6</duration>
						<start>3432</start>
						<end>3438</end>
						<in>0</in>
						<out>6</out>
					</clipitem>
					<clipitem frameBlend="FALSE" id="clipitem-telop-288">
						<file id="file-2"/>
						<name>テロップ288</name>
						<rate>
							<timebase>60</timebase>
							<ntsc>TRUE</ntsc>
						</rate>
						<rate>
							<timebase>60</timebase>
							<ntsc>TRUE</ntsc>
						</rate>
						<duration>6</duration>
						<start>3444</start>
						<end>3450</end>
						<in>0</in>
						<out>6</out>
					</clipitem>
					<clipitem frameBlend="FALSE" id="clipitem-telop-289">
						<file id="file-2"/>
						<name>テロップ289</name>
						<rate>
							<timebase>60</timebase>
							<ntsc>TRUE</ntsc>
						</rate>
						<rate>
							<timebase>60</timebase>
							<ntsc>TRUE</ntsc>
						</rate>
						<duration>6</duration>
						<start>3456</start>
						<end>3462</end>
						<in>0</in>
						<out>6</out>
					</clipitem>
					<clipitem frameBlend="FALSE" id="clipitem-telop-290">
						<file id="file-2"/>
						<name>テロップ290</name>
						<rate>
							<timebase>60</timebase>
							<ntsc>TRUE</ntsc>
						</rate>
						<rate>
							<timebase>60</timebase>
							<ntsc>TRUE</ntsc>
						</rate>
						<duration>6</duration>
						<start>3468</start>
						<end>3474</end>
						<in>0</in>
						<out>6</out>
					</clipitem>
					<clipitem frameBlend="FALSE" id="clipitem-telop-291">
						<file id="file-2"/>
						<name>テロップ291</name>
						<rate>
							<timebase>60</timebase>
							<ntsc>TRUE</ntsc>
						</rate>
						<rate>
							<timebase>60</timebase>
							<ntsc>TRUE</ntsc>
						</rate>
						<duration>6</duration>
						<start>3480</start>
						<end>3486</end>
						<in>0</in>
						<out>6</out>
					</clipitem>
					<clipitem frameBlend="FALSE" id="clipitem-telop-292">
						<file id="file-2"/>
						<name>テロップ292</name>
						<rate>
							<timebase>60</timebase>
							<ntsc>TRUE</ntsc>
						</rate>
						<rate>
							<timebase>60</timebase>
							<ntsc>TRUE</ntsc>
						</rate>
						<duration>6</duration>
						<start>3492</start>
						<end>3498</end>
						<in>0</in>
						<out>6</out>
					</clipitem>
					<clipitem frameBlend="FALSE" id="clipitem-telop-293">
						<file id="file-2"/>
						<name>テロップ293</name>
						<rate>
							<timebase>60</timebase>
							<ntsc>TRUE</ntsc>
						</rate>
						<rate>
							<timebase>60</timebase>
							<ntsc>TRUE</ntsc>
						</rate>
						<duration>6</duration>
						<start>3504</start>
						<end>3510</end>
						<in>0</in>
						<out>6</out>
					</clipitem>
					<clipitem frameBlend="FALSE" id="clipitem-telop-294">
						<file id="file-2"/>
						<name>テロップ294</name>
						<rate>
							<timebase>60</timebase>
							<ntsc>TRUE</ntsc>
						</rate>
						<rate>
							<timebase>60</timebase>
							<ntsc>TRUE</ntsc>
						</rate>
						<duration>6</duration>
						<start>3516</start>
						<end>3522</end>
						<in>0</in>
						<out>6</out>
					</clipitem>
					<clipitem frameBlend="FALSE" id="clipitem-telop-295">
						<file id="file-2"/>
						<name>テロップ295</name>
						<rate>
							<timebase>60</timebase>
							<ntsc>TRUE</ntsc>
						</rate>
						<rate>
							<timebase>60</timebase>
							<ntsc>TRUE</ntsc>
						</rate>
						<duration>6</duration>
						<start>3528</start>
						<end>3534</end>
						<in>0</in>
						<out>6</out>
					</clipitem>
					<clipitem frameBlend="FALSE" id="clipitem-telop-296">
						<file id="file-2"/>
						<name>テロップ296</name>
						<rate>
							<timebase>60</timebase>
							<ntsc>TRUE</ntsc>
						</rate>
						<rate>
							<timebase>60</timebase>
							<ntsc>TRUE</ntsc>
						</rate>
						<duration>6</duration>
						<start>3540</start>
						<end>3546</end>
						<in>0</in>
						<out>6</out>
					</clipitem>
					<clipitem frameBlend="FALSE" id="clipitem-telop-297">
						<file id="file-2"/>
						<name>テロップ297</name>
						<rate>
							<timebase>60</timebase>
							<ntsc>TRUE</ntsc>
						</rate>
						<rate>
							<timebase>60</timebase>
							<ntsc>TRUE</ntsc>
						</rate>
						<duration>6</duration>
						<start>3552</start>
						<end>3558</end>
						<in>0</in>
						<out>6</out>
					</clipitem>
					<clipitem frameBlend="FALSE" id="clipitem-telop-298">
						<file id="file-2"/>
						<name>テロップ298</name>
						<rate>
							<timebase>60</timebase>
							<ntsc>TRUE</ntsc>
						</rate>
						<rate>
							<timebase>60</timebase>
							<ntsc>TRUE</ntsc>
						</rate>
						<duration>6</duration>
						<start>3564</start>
						<end>3570</end>
						<in>0</in>
						<out>6</out>
					</clipitem>
					<clipitem frameBlend="FALSE" id="clipitem-telop-299">
						<file id="file-2"/>
						<name>テロップ299</name>
						<rate>
							<timebase>60</timebase>
							<ntsc>TRUE</ntsc>
						</rate>
						<rate>
							<timebase>60</timebase>
							<ntsc>TRUE</ntsc>
						</rate>
						<duration>6</duration>
						<start>3576</start>
						<end>3582</end>
						<in>0</in>
						<out>6</out>
					</clipitem>
					<clipitem frameBlend="FALSE" id="clipitem-telop-300">
						<file id="file-2"/>
						<name>テロップ300</name>
						<rate>
							<timebase>60</timebase>
							<ntsc>TRUE</ntsc>
						</rate>
						<rate>
							<timebase>60</timebase>
							<ntsc>TRUE</ntsc>
						</rate>
						<duration>6</duration>
						<start>3588</start>
						<end>3594</end>
						<in>0</in>
						<out>6</out>
					</clipitem>
					<clipitem frameBlend="FALSE" id="clipitem-telop-301">
						<file id="file-2"/>
						<name>テロップ301</name>
						<rate>
							<timebase>60</timebase>
							<ntsc>TRUE</ntsc>
						</rate>
						<rate>
							<timebase>60</timebase>
							<ntsc>TRUE</ntsc>
						</rate>
						<duration>6</duration>
						<start>3600</start>
						<end>3606</end>
						<in>0</in>
						<out>6</out>
					</clipitem>
					<clipitem frameBlend="FALSE" id="clipitem-telop-302">
						<file id="file-2"/>
						<name>テロップ302</name>
						<rate>
							<timebase>60</timebase>
							<ntsc>TRUE</ntsc>
						</rate>
						<rate>
							<timebase>60</timebase>
							<ntsc>TRUE</ntsc>
						</rate>
						<duration>6</duration>
						<start>3612</start>
						<end>3618</end>
						<in>0</in>
						<out>6</out>
					</clipitem>
					<clipitem frameBlend="FALSE" id="clipitem-telop-303">
						<file id="file-2"/>
						<name>テロップ303</name>
						<rate>
							<timebase>60</timebase>
							<ntsc>TRUE</ntsc>
						</rate>
						<rate>
							<timebase>60</timebase>
							<ntsc>TRUE</ntsc>
						</rate>
						<duration>6</duration>
						<start>3624</start>
						<end>3630</end>
						<in>0</in>
						<out>6</out>
					</clipitem>
					<clipitem frameBlend="FALSE" id="clipitem-telop-304">
						<file id="file-2"/>
						<name>テロップ304</name>
						<rate>
							<timebase>60</timebase>
							<ntsc>TRUE</ntsc>
						</rate>
						<rate>
							<timebase>60</timebase>
							<ntsc>TRUE</ntsc>
						</rate>
						<duration>6</duration>
						<start>3636</start>
						<end>3642</end>
						<in>0</in>
						<out>6</out>
					</clipitem>
					<clipitem frameBlend="FALSE" id="clipitem-telop-305">
						<file id="file-2"/>
						<name>テロップ305</name>
						<rate>
							<timebase>60</timebase>
							<ntsc>TRUE</ntsc>
						</rate>
						<rate>
							<timebase>60</timebase>
							<ntsc>TRUE</ntsc>
						</rate>
						<duration>6</duration>
						<start>3648</start>
						<end>3654</end>
						<in>0</in>
						<out>6</out>
					</clipitem>
					<clipitem frameBlend="FALSE" id="clipitem-telop-306">
						<file id="file-2"/>
						<name>テロップ306</name>
						<rate>
							<timebase>60</timebase>
							<ntsc>TRUE</ntsc>
						</rate>
						<rate>
							<timebase>60</timebase>
							<ntsc>TRUE</ntsc>
						</rate>
						<duration>6</duration>
						<start>3660</start>
						<end>3666</end>
						<in>0</in>
						<out>6</out>
					</clipitem>
					<clipitem frameBlend="FALSE" id="clipitem-telop-307">
						<file id="file-2"/>
						<name>テロップ307</name>
						<rate>
							<timebase>60</timebase>
							<ntsc>TRUE</ntsc>
						</rate>
						<rate>
							<timebase>60</timebase>
							<ntsc>TRUE</ntsc>
						</rate>
						<duration>6</duration>
						<start>3672</start>
						<end>3678</end>
						<in>0</in>
						<out>6</out>
					</clipitem>
					<clipitem frameBlend="FALSE" id="clipitem-telop-308">
						<file id="file-2"/>
						<name>テロップ308</name>
						<rate>
							<timebase>60</timebase>
							<ntsc>TRUE</ntsc>
						</rate>
						<rate>
							<timebase>60</timebase>
							<ntsc>TRUE</ntsc>
						</rate>
						<duration>6</duration>
						<start>3684</start>
						<end>3690</end>
						<in>0</in>
						<out>6</out>
					</clipitem>
					<clipitem frameBlend="FALSE" id="clipitem-telop-309">
						<file id="file-2"/>
						<name>テロップ309</name>
						<rate>
							<timebase>60</timebase>
							<ntsc>TRUE</ntsc>
						</rate>
						<rate>
							<timebase>60</timebase>
							<ntsc>TRUE</ntsc>
						</rate>
						<duration>6</duration>
						<start>3696</start>
						<end>3702</end>
						<in>0</in>
						<out>6</out>
					</clipitem>
					<clipitem frameBlend="FALSE" id="clipitem-telop-310">
						<file id="file-2"/>
						<name>テロップ310</name>
						<rate>
							<timebase>60</timebase>
							<ntsc>TRUE</ntsc>
						</rate>
						<rate>
							<timebase>60</timebase>
							<ntsc>TRUE</ntsc>
						</rate>
						<duration>6</duration>
						<start>3708</start>
						<end>3714</end>
						<in>0</in>
						<out>6</out>
					</clipitem>
					<clipitem frameBlend="FALSE" id="clipitem-telop-311">
						<file id="file-2"/>
						<name>テロップ311</name>
						<rate>
							<timebase>60</timebase>
							<ntsc>TRUE</ntsc>
						</rate>
						<rate>
							<timebase>60</timebase>
							<ntsc>TRUE</ntsc>
						</rate>
						<duration>6</duration>
						<start>3720</start>
						<end>3726</end>
						<in>0</in>
						<out>6</out>
					</clipitem>
					<clipitem frameBlend="FALSE" id="clipitem-telop-312">
						<file id="file-2"/>
						<name>テロップ312</name>
						<rate>
							<timebase>60</timebase>
							<ntsc>TRUE</ntsc>
						</rate>
						<rate>
							<timebase>60</timebase>
							<ntsc>TRUE</ntsc>
						</rate>
						<duration>6</duration>
						<start>3732</start>
						<end>3738</end>
						<in>0</in>
						<out>6</out>
					</clipitem>
					<clipitem frameBlend="FALSE" id="clipitem-telop-313">
						<file id="file-2"/>
						<name>テロップ313</name>
						<rate>
							<timebase>60</timebase>
							<ntsc>TRUE</ntsc>
						</rate>
						<rate>
							<timebase>60</timebase>
							<ntsc>TRUE</ntsc>
						</rate>
						<duration>6</duration>
						<start>3744</start>
						<end>3750</end>
						<in>0</in>
						<out>6</out>
					</clipitem>
					<clipitem frameBlend="FALSE" id="clipitem-telop-314">
						<file id="file-2"/>
						<name>テロップ314</name>
						<rate>
							<timebase>60</timebase>
							<ntsc>TRUE</ntsc>
						</rate>
						<rate>
							<timebase>60</timebase>
							<ntsc>TRUE</ntsc>
						</rate>
						<duration>6</duration>
						<start>3756</start>
						<end>3762</end>
						<in>0</in>
						<out>6</out>
					</clipitem>
					<clipitem frameBlend="FALSE" id="clipitem-telop-315">
						<file id="file-2"/>
						<name>テロップ315</name>
						<rate>
							<timebase>60</timebase>
							<ntsc>TRUE</ntsc>
						</rate>
						<rate>
							<timebase>60</timebase>
							<ntsc>TRUE</ntsc>
						</rate>
						<duration>6</duration>
						<start>3768</start>
						<end>3774</end>
						<in>0</in>
						<out>6</out>
					</clipitem>
					<clipitem frameBlend="FALSE" id="clipitem-telop-316">
						<file id="file-2"/>
						<name>テロップ316</name>
						<rate>
							<timebase>60</timebase>
							<ntsc>TRUE</ntsc>
						</rate>
						<rate>
							<timebase>60</timebase>
							<ntsc>TRUE</ntsc>
						</rate>
						<duration>6</duration>
						<start>3780</start>
						<end>3786</end>
						<in>0</in>
						<out>6</out>
					</clipitem>
					<clipitem frameBlend="FALSE" id="clipitem-telop-317">
						<file id="file-2"/>
						<name>テロップ317</name>
						<rate>
							<timebase>60</timebase>
							<ntsc>TRUE</ntsc>
						</rate>
						<rate>
							<timebase>60</timebase>
							<ntsc>TRUE</ntsc>
						</rate>
						<duration>6</duration>
						<start>3792</start>
						<end>3798</end>
						<in>0</in>
						<out>6</out>
					</clipitem>
					<clipitem frameBlend="FALSE" id="clipitem-telop-318">
						<file id="file-2"/>
						<name>テロップ318</name>
						<rate>
							<timebase>60</timebase>
							<ntsc>TRUE</ntsc>
						</rate>
						<rate>
							<timebase>60</timebase>
							<ntsc>TRUE</ntsc>
						</rate>
						<duration>6</duration>
						<start>3804</start>
						<end>3810</end>
						<in>0</in>
						<out>6</out>
					</clipitem>
					<clipitem frameBlend="FALSE" id="clipitem-telop-319">
						<file id="file-2"/>
						<name>テロップ319</name>
						<rate>
							<timebase>60</timebase>
							<ntsc>TRUE</ntsc>
						</rate>
						<rate>
							<timebase>60</timebase>
							<ntsc>TRUE</ntsc>
						</rate>
						<duration>6</duration>
						<start>3816</start>
						<end>3822</end>
						<in>0</in>
						<out>6</out>
					</clipitem>
					<clipitem frameBlend="FALSE" id="clipitem-telop-320">
						<file id="file-2"/>
						<name>テロップ320</name>
						<rate>
							<timebase>60</timebase>
							<ntsc>TRUE</ntsc>
						</rate>
						<rate>
							<timebase>60</timebase>
							<ntsc>TRUE</ntsc>
						</rate>
						<duration>6</duration>
						<start>3828</start>
						<end>3834</end>
						<in>0</in>
						<out>6</out>
					</clipitem>
					<clipitem frameBlend="FALSE" id="clipitem-telop-321">
						<file id="file-2"/>
						<name>テロップ321</name>
						<rate>
							<timebase>60</timebase>
							<ntsc>TRUE</ntsc>
						</rate>
						<rate>
							<timebase>60</timebase>
							<ntsc>TRUE</ntsc>
						</rate>
						<duration>6</duration>
						<start>3840</start>
						<end>3846</end>
						<in>0</in>
						<out>6</out>
					</clipitem>
					<clipitem frameBlend="FALSE" id="clipitem-telop-322">
						<file id="file-2"/>
						<name>テロップ322</name>
						<rate>
							<timebase>60</timebase>
							<ntsc>TRUE</ntsc>
						</rate>
						<rate>
							<timebase>60</timebase>
							<ntsc>TRUE</ntsc>
						</rate>
						<duration>6</duration>
						<start>3852</start>
						<end>3858</end>
						<in>0</in>
						<out>6</out>
					</clipitem>
					<clipitem frameBlend="FALSE" id="clipitem-telop-323">
						<file id="file-2"/>
						<name>テロップ323</name>
						<rate>
							<timebase>60</timebase>
							<ntsc>TRUE</ntsc>
						</rate>
						<rate>
							<timebase>60</timebase>
							<ntsc>TRUE</ntsc>
						</rate>
						<duration>6</duration>
						<start>3864</start>
						<end>3870</end>
						<in>0</in>
						<out>6</out>
					</clipitem>
					<clipitem frameBlend="FALSE" id="clipitem-telop-324">
						<file id="file-2"/>
						<name>テロップ324</name>
						<rate>
							<timebase>60</timebase>
							<ntsc>TRUE</ntsc>
						</rate>
						<rate>
							<timebase>60</timebase>
							<ntsc>TRUE</ntsc>
						</rate>
						<duration>6</duration>
						<start>3876</start>
						<end>3882</end>
						<in>0</in>
						<out>6</out>
					</clipitem>
					<clipitem frameBlend="FALSE" id="clipitem-telop-325">
						<file id="file-2"/>
						<name>テロップ325</name>
						<rate>
							<timebase>60</timebase>
							<ntsc>TRUE</ntsc>
						</rate>
						<rate>
							<timebase>60</timebase>
							<ntsc>TRUE</ntsc>
						</rate>
						<duration>6</duration>
						<start>3888</start>
						<end>3894</end>
						<in>0</in>
						<out>6</out>
					</clipitem>
					<clipitem frameBlend="FALSE" id="clipitem-telop-326">
						<file id="file-2"/>
						<name>テロップ326</name>
						<rate>
							<timebase>60</timebase>
							<ntsc>TRUE</ntsc>
						</rate>
						<rate>
							<timebase>60</timebase>
							<ntsc>TRUE</ntsc>
						</rate>
						<duration>6</duration>
						<start>3900</start>
						<end>3906</end>
						<in>0</in>
						<out>6</out>
					</clipitem>
					<clipitem frameBlend="FALSE" id="clipitem-telop-327">
						<file id="file-2"/>
						<name>テロップ327</name>
						<rate>
							<timebase>60</timebase>
							<ntsc>TRUE</ntsc>
						</rate>
						<rate>
							<timebase>60</timebase>
							<ntsc>TRUE</ntsc>
						</rate>
						<duration>6</duration>
						<start>3912</start>
						<end>3918</end>
						<in>0</in>
						<out>6</out>
					</clipitem>
					<clipitem frameBlend="FALSE" id="clipitem-telop-328">
						<file id="file-2"/>
						<name>テロップ328</name>
						<rate>
							<timebase>60</timebase>
							<ntsc>TRUE</ntsc>
						</rate>
						<rate>
							<timebase>60</timebase>
							<ntsc>TRUE</ntsc>
						</rate>
						<duration>6</duration>
						<start>3924</start>
						<end>3930</end>
						<in>0</in>
						<out>6</out>
					</clipitem>
					<clipitem frameBlend="FALSE" id="clipitem-telop-329">
						<file id="file-2"/>
						<name>テロップ329</name>
						<rate>
							<timebase>60</timebase>
							<ntsc>TRUE</ntsc>
						</rate>
						<rate>
							<timebase>60</timebase>
							<ntsc>TRUE</ntsc>
						</rate>
						<duration>6</duration>
						<start>3936</start>
						<end>3942</end>
						<in>0</in>
						<out>6</out>
					</clipitem>
					<clipitem frameBlend="FALSE" id="clipitem-telop-330">
						<file id="file-2"/>
						<name>テロップ330</name>
						<rate>
							<timebase>60</timebase>
							<ntsc>TRUE</ntsc>
						</rate>
						<rate>
							<timebase>60</timebase>
							<ntsc>TRUE</ntsc>
						</rate>
						<duration>6</duration>
						<start>3948</start>
						<end>3954</end>
						<in>0</in>
						<out>6</out>
					</clipitem>
					<clipitem frameBlend="FALSE" id="clipitem-telop-331">
						<file id="file-2"/>
						<name>テロップ331</name>
						<rate>
							<timebase>60</timebase>
							<ntsc>TRUE</ntsc>
						</rate>
						<rate>
							<timebase>60</timebase>
							<ntsc>TRUE</ntsc>
						</rate>
						<duration>6</duration>
						<start>3960</start>
						<end>3966</end>
						<in>0</in>
						<out>6</out>
					</clipitem>
					<clipitem frameBlend="FALSE" id="clipitem-telop-332">
						<file id="file-2"/>
						<name>テロップ332</name>
						<rate>
							<timebase>60</timebase>
							<ntsc>TRUE</ntsc>
						</rate>
						<rate>
							<timebase>60</timebase>
							<ntsc>TRUE</ntsc>
						</rate>
						<duration>6</duration>
						<start>3972</start>
						<end>3978</end>
						<in>0</in>
						<out>6</out>
					</clipitem>
					<clipitem frameBlend="FALSE" id="clipitem-telop-333">
						<file id="file-2"/>
						<name>テロップ333</name>
						<rate>
							<timebase>60</timebase>
							<ntsc>TRUE</ntsc>
						</rate>
						<rate>
							<timebase>60</timebase>
							<ntsc>TRUE</ntsc>
						</rate>
						<duration>6</duration>
						<start>3984</start>
						<end>3990</end>
						<in>0</in>
						<out>6</out>
					</clipitem>
					<clipitem frameBlend="FALSE" id="clipitem-telop-334">
						<file id="file-2"/>
						<name>テロップ334</name>
						<rate>
							<timebase>60</timebase>
							<ntsc>TRUE</ntsc>
						</rate>
						<rate>
							<timebase>60</timebase>
							<ntsc>TRUE</ntsc>
						</rate>
						<duration>6</duration>
						<start>3996</start>
						<end>4002</end>
						<in>0</in>
						<out>6</out>
					</clipitem>
					<clipitem frameBlend="FALSE" id="clipitem-telop-335">
						<file id="file-2"/>
						<name>テロップ335</name>
						<rate>
							<timebase>60</timebase>
							<ntsc>TRUE</ntsc>
						</rate>
						<rate>
							<timebase>60</timebase>
							<ntsc>TRUE</ntsc>
						</rate>
						<duration>6</duration>
						<start>4008</start>
						<end>4014</end>
						<in>0</in>
						<out>6</out>
					</clipitem>
					<clipitem frameBlend="FALSE" id="clipitem-telop-336">
						<file id="file-2"/>
						<name>テロップ336</name>
						<rate>
							<timebase>60</timebase>
							<ntsc>TRUE</ntsc>
						</rate>
						<rate>
							<timebase>60</timebase>
							<ntsc>TRUE</ntsc>
						</rate>
						<duration>6</duration>
						<start>4020</start>
						<end>4026</end>
						<in>0</in>
						<out>6</out>
					</clipitem>
					<clipitem frameBlend="FALSE" id="clipitem-telop-337">
						<file id="file-2"/>
						<name>テロップ337</name>
						<rate>
							<timebase>60</timebase>
							<ntsc>TRUE</ntsc>
						</rate>
						<rate>
							<timebase>60</timebase>
							<ntsc>TRUE</ntsc>
						</rate>
						<duration>6</duration>
						<start>4032</start>
						<end>4038</end>
						<in>0</in>
						<out>6</out>
					</clipitem>
					<clipitem frameBlend="FALSE" id="clipitem-telop-338">
						<file id="file-2"/>
						<name>テロップ338</name>
						<rate>
							<timebase>60</timebase>
							<ntsc>TRUE</ntsc>
						</rate>
						<rate>
							<timebase>60</timebase>
							<ntsc>TRUE</ntsc>
						</rate>
						<duration>6</duration>
						<start>4044</start>
						<end>4050</end>
						<in>0</in>
						<out>6</out>
					</clipitem>
					<clipitem frameBlend="FALSE" id="clipitem-telop-339">
						<file id="file-2"/>
						<name>テロップ339</name>
						<rate>
							<timebase>60</timebase>
							<ntsc>TRUE</ntsc>
						</rate>
						<rate>
							<timebase>60</timebase>
							<ntsc>TRUE</ntsc>
						</rate>
						<duration>6</duration>
						<start>4056</start>
						<end>4062</end>
						<in>0</in>
						<out>6</out>
					</clipitem>
					<clipitem frameBlend="FALSE" id="clipitem-telop-340">
						<file id="file-2"/>
						<name>テロップ340</name>
						<rate>
							<timebase>60</timebase>
							<ntsc>TRUE</ntsc>
						</rate>
						<rate>
							<timebase>60</timebase>
							<ntsc>TRUE</ntsc>
						</rate>
						<duration>6</duration>
						<start>4068</start>
						<end>4074</end>
						<in>0</in>
						<out>6</out>
					</clipitem>
					<clipitem frameBlend="FALSE" id="clipitem-telop-341">
						<file id="file-2"/>
						<name>テロップ341</name>
						<rate>
							<timebase>60</timebase>
							<ntsc>TRUE</ntsc>
						</rate>
						<rate>
							<timebase>60</timebase>
							<ntsc>TRUE</ntsc>
						</rate>
						<duration>6</duration>
						<start>4080</start>
						<end>4086</end>
						<in>0</in>
						<out>6</out>
					</clipitem>
					<clipitem frameBlend="FALSE" id="clipitem-telop-342">
						<file id="file-2"/>
						<name>テロップ342</name>
						<rate>
							<timebase>60</timebase>
							<ntsc>TRUE</ntsc>
						</rate>
						<rate>
							<timebase>60</timebase>
							<ntsc>TRUE</ntsc>
						</rate>
						<duration>6</duration>
						<start>4092</start>
						<end>4098</end>
						<in>0</in>
						<out>6</out>
					</clipitem>
					<clipitem frameBlend="FALSE" id="clipitem-telop-343">
						<file id="file-2"/>
						<name>テロップ343</name>
						<rate>
							<timebase>60</timebase>
							<ntsc>TRUE</ntsc>
						</rate>
						<rate>
							<timebase>60</timebase>
							<ntsc>TRUE</ntsc>
						</rate>
						<duration>6</duration>
						<start>4104</start>
						<end>4110</end>
						<in>0</in>
						<out>6</out>
					</clipitem>
					<clipitem frameBlend="FALSE" id="clipitem-telop-344">
						<file id="file-2"/>
						<name>テロップ344</name>
						<rate>
							<timebase>60</timebase>
							<ntsc>TRUE</ntsc>
						</rate>
						<rate>
							<timebase>60</timebase>
							<ntsc>TRUE</ntsc>
						</rate>
						<duration>6</duration>
						<start>4116</start>
						<end>4122</end>
						<in>0</in>
						<out>6</out>
					</clipitem>
					<clipitem frameBlend="FALSE" id="clipitem-telop-345">
						<file id="file-2"/>
						<name>テロップ345</name>
						<rate>
							<timebase>60</timebase>
							<ntsc>TRUE</ntsc>
						</rate>
						<rate>
							<timebase>60</timebase>
							<ntsc>TRUE</ntsc>
						</rate>
						<duration>6</duration>
						<start>4128</start>
						<end>4134</end>
						<in>0</in>
						<out>6</out>
					</clipitem>
					<clipitem frameBlend="FALSE" id="clipitem-telop-346">
						<file id="file-2"/>
						<name>テロップ346</name>
						<rate>
							<timebase>60</timebase>
							<ntsc>TRUE</ntsc>
						</rate>
						<rate>
							<timebase>60</timebase>
							<ntsc>TRUE</ntsc>
						</rate>
						<duration>6</duration>
						<start>4140</start>
						<end>4146</end>
						<in>0</in>
						<out>6</out>
					</clipitem>
					<clipitem frameBlend="FALSE" id="clipitem-telop-347">
						<file id="file-2"/>
						<name>テロップ347</name>
						<rate>
							<timebase>60</timebase>
							<ntsc>TRUE</ntsc>
						</rate>
						<rate>
							<timebase>60</timebase>
							<ntsc>TRUE</ntsc>
						</rate>
						<duration>6</duration>
						<start>4152</start>
						<end>4158</end>
						<in>0</in>
						<out>6</out>
					</clipitem>
					<clipitem frameBlend="FALSE" id="clipitem-telop-348">
						<file id="file-2"/>
						<name>テロップ348</name>
						<rate>
							<timebase>60</timebase>
							<ntsc>TRUE</ntsc>
						</rate>
						<rate>
							<timebase>60</timebase>
							<ntsc>TRUE</ntsc>
						</rate>
						<duration>6</duration>
						<start>4164</start>
						<end>4170</end>
						<in>0</in>
						<out>6</out>
					</clipitem>
					<clipitem frameBlend="FALSE" id="clipitem-telop-349">
						<file id="file-2"/>
						<name>テロップ349</name>
						<rate>
							<timebase>60</timebase>
							<ntsc>TRUE</ntsc>
						</rate>
						<rate>
							<timebase>60</timebase>
							<ntsc>TRUE</ntsc>
						</rate>
						<duration>6</duration>
						<start>4176</start>
						<end>4182</end>
						<in>0</in>
						<out>6</out>
					</clipitem>
					<clipitem frameBlend="FALSE" id="clipitem-telop-350">
						<file id="file-2"/>
						<name>テロップ350</name>
						<rate>
							<timebase>60</timebase>
							<ntsc>TRUE</ntsc>
						</rate>
						<rate>
							<timebase>60</timebase>
							<ntsc>TRUE</ntsc>
						</rate>
						<duration>6</duration>
						<start>4188</start>
						<end>4194</end>
						<in>0</in>
						<out>6</out>
					</clipitem>
					<clipitem frameBlend="FALSE" id="clipitem-telop-351">
						<file id="file-2"/>
						<name>テロップ351</name>
						<rate>
							<timebase>60</timebase>
							<ntsc>TRUE</ntsc>
						</rate>
						<rate>
							<timebase>60</timebase>
							<ntsc>TRUE</ntsc>
						</rate>
						<duration>6</duration>
						<start>4200</start>
						<end>4206</end>
						<in>0</in>
						<out>6</out>
					</clipitem>
					<clipitem frameBlend="FALSE" id="clipitem-telop-352">
						<file id="file-2"/>
						<name>テロップ352</name>
						<rate>
							<timebase>60</timebase>
							<ntsc>TRUE</ntsc>
						</rate>
						<rate>
							<timebase>60</timebase>
							<ntsc>TRUE</ntsc>
						</rate>
						<duration>6</duration>
						<start>4212</start>
						<end>4218</end>
						<in>0</in>
						<out>6</out>
					</clipitem>
					<clipitem frameBlend="FALSE" id="clipitem-telop-353">
						<file id="file-2"/>
						<name>テロップ353</name>
						<rate>
							<timebase>60</timebase>
							<ntsc>TRUE</ntsc>
						</rate>
						<rate>
							<timebase>60</timebase>
							<ntsc>TRUE</ntsc>
						</rate>
						<duration>6</duration>
						<start>4224</start>
						<end>4230</end>
						<in>0</in>
						<out>6</out>
					</clipitem>
					<clipitem frameBlend="FALSE" id="clipitem-telop-354">
						<file id="file-2"/>
						<name>テロップ354</name>
						<rate>
							<timebase>60</timebase>
							<ntsc>TRUE</ntsc>
						</rate>
						<rate>
							<timebase>60</timebase>
							<ntsc>TRUE</ntsc>
						</rate>
						<duration>6</duration>
						<start>4236</start>
						<end>4242</end>
						<in>0</in>
						<out>6</out>
					</clipitem>
					<clipitem frameBlend="FALSE" id="clipitem-telop-355">
						<file id="file-2"/>
						<name>テロップ355</name>
						<rate>
							<timebase>60</timebase>
							<ntsc>TRUE</ntsc>
						</rate>
						<rate>
							<timebase>60</timebase>
							<ntsc>TRUE</ntsc>
						</rate>
						<duration>6</duration>
						<start>4248</start>
						<end>4254</end>
						<in>0</in>
						<out>6</out>
					</clipitem>
					<clipitem frameBlend="FALSE" id="clipitem-telop-356">
						<file id="file-2"/>
						<name>テロップ356</name>
						<rate>
							<timebase>60</timebase>
							<ntsc>TRUE</ntsc>
						</rate>
						<rate>
							<timebase>60</timebase>
							<ntsc>TRUE</ntsc>
						</rate>
						<duration>6</duration>
						<start>4260</start>
						<end>4266</end>
						<in>0</in>
						<out>6</out>
					</clipitem>
					<clipitem frameBlend="FALSE" id="clipitem-telop-357">
						<file id="file-2"/>
						<name>テロップ357</name>
						<rate>
							<timebase>60</timebase>
							<ntsc>TRUE</ntsc>
						</rate>
						<rate>
							<timebase>60</timebase>
							<ntsc>TRUE</ntsc>
						</rate>
						<duration>6</duration>
						<start>4272</start>
						<end>4278</end>
						<in>0</in>
						<out>6</out>
					</clipitem>
					<clipitem frameBlend="FALSE" id="clipitem-telop-358">
						<file id="file-2"/>
						<name>テロップ358</name>
						<rate>
							<timebase>60</timebase>
							<ntsc>TRUE</ntsc>
						</rate>
						<rate>
							<timebase>60</timebase>
							<ntsc>TRUE</ntsc>
						</rate>
						<duration>6</duration>
						<start>4284</start>
						<end>4290</end>
						<in>0</in>
						<out>6</out>
					</clipitem>
					<clipitem frameBlend="FALSE" id="clipitem-telop-359">
						<file id="file-2"/>
						<name>テロップ359</name>
						<rate>
							<timebase>60</timebase>
							<ntsc>TRUE</ntsc>
						</rate>
						<rate>
							<timebase>60</timebase>
							<ntsc>TRUE</ntsc>
						</rate>
						<duration>6</duration>
						<start>4296</start>
						<end>4302</end>
						<in>0</in>
						<out>6</out>
					</clipitem>
					<clipitem frameBlend="FALSE" id="clipitem-telop-360">
						<file id="file-2"/>
						<name>テロップ360</name>
						<rate>
							<timebase>60</timebase>
							<ntsc>TRUE</ntsc>
						</rate>
						<rate>
							<timebase>60</timebase>
							<ntsc>TRUE</ntsc>
						</rate>
						<duration>6</duration>
						<start>4308</start>
						<end>4314</end>
						<in>0</in>
						<out>6</out>
					</clipitem>
					<clipitem frameBlend="FALSE" id="clipitem-telop-361">
						<file id="file-2"/>
						<name>テロップ361</name>
						<rate>
							<timebase>60</timebase>
							<ntsc>TRUE</ntsc>
						</rate>
						<rate>
							<timebase>60</timebase>
							<ntsc>TRUE</ntsc>
						</rate>
						<duration>6</duration>
						<start>4320</start>
						<end>4326</end>
						<in>0</in>
						<out>6</out>
					</clipitem>
					<clipitem frameBlend="FALSE" id="clipitem-telop-362">
						<file id="file-2"/>
						<name>テロップ362</name>
						<rate>
							<timebase>60</timebase>
							<ntsc>TRUE</ntsc>
						</rate>
						<rate>
							<timebase>60</timebase>
							<ntsc>TRUE</ntsc>
						</rate>
						<duration>6</duration>
						<start>4332</start>
						<end>4338</end>
						<in>0</in>
						<out>6</out>
					</clipitem>
					<clipitem frameBlend="FALSE" id="clipitem-telop-363">
						<file id="file-2"/>
						<name>テロップ363</name>
						<rate>
							<timebase>60</timebase>
							<ntsc>TRUE</ntsc>
						</rate>
						<rate>
							<timebase>60</timebase>
							<ntsc>TRUE</ntsc>
						</rate>
						<duration>6</duration>
						<start>4344</start>
						<end>4350</end>
						<in>0</in>
						<out>6</out>
					</clipitem>
					<clipitem frameBlend="FALSE" id="clipitem-telop-364">
						<file id="file-2"/>
						<name>テロップ364</name>
						<rate>
							<timebase>60</timebase>
							<ntsc>TRUE</ntsc>
						</rate>
						<rate>
							<timebase>60</timebase>
							<ntsc>TRUE</ntsc>
						</rate>
						<duration>6</duration>
						<start>4356</start>
						<end>4362</end>
						<in>0</in>
						<out>6</out>
					</clipitem>
					<clipitem frameBlend="FALSE" id="clipitem-telop-365">
						<file id="file-2"/>
						<name>テロップ365</name>
						<rate>
							<timebase>60</timebase>
							<ntsc>TRUE</ntsc>
						</rate>
						<rate>
							<timebase>60</timebase>
							<ntsc>TRUE</ntsc>
						</rate>
						<duration>6</duration>
						<start>4368</start>
						<end>4374</end>
						<in>0</in>
						<out>6</out>
					</clipitem>
					<clipitem frameBlend="FALSE" id="clipitem-telop-366">
						<file id="file-2"/>
						<name>テロップ366</name>
						<rate>
							<timebase>60</timebase>
							<ntsc>TRUE</ntsc>
						</rate>
						<rate>
							<timebase>60</timebase>
							<ntsc>TRUE</ntsc>
						</rate>
						<duration>6</duration>
						<start>4380</start>
						<end>4386</end>
						<in>0</in>
						<out>6</out>
					</clipitem>
					<clipitem frameBlend="FALSE" id="clipitem-telop-367">
						<file id="file-2"/>
						<name>テロップ367</name>
						<rate>
							<timebase>60</timebase>
							<ntsc>TRUE</ntsc>
						</rate>
						<rate>
							<timebase>60</timebase>
							<ntsc>TRUE</ntsc>
						</rate>
						<duration>6</duration>
						<start>4392</start>
						<end>4398</end>
						<in>0</in>
						<out>6</out>
					</clipitem>
					<clipitem frameBlend="FALSE" id="clipitem-telop-368">
						<file id="file-2"/>
						<name>テロップ368</name>
						<rate>
							<timebase>60</timebase>
							<ntsc>TRUE</ntsc>
						</rate>
						<rate>
							<timebase>60</timebase>
							<ntsc>TRUE</ntsc>
						</rate>
						<duration>6</duration>
						<start>4404</start>
						<end>4410</end>
						<in>0</in>
						<out>6</out>
					</clipitem>
					<clipitem frameBlend="FALSE" id="clipitem-telop-369">
						<file id="file-2"/>
						<name>テロップ369</name>
						<rate>
							<timebase>60</timebase>
							<ntsc>TRUE</ntsc>
						</rate>
						<rate>
							<timebase>60</timebase>
							<ntsc>TRUE</ntsc>
						</rate>
						<duration>6</duration>
						<start>4416</start>
						<end>4422</end>
						<in>0</in>
						<out>6</out>
					</clipitem>
					<clipitem frameBlend="FALSE" id="clipitem-telop-370">
						<file id="file-2"/>
						<name>テロップ370</name>
						<rate>
							<timebase>60</timebase>
							<ntsc>TRUE</ntsc>
						</rate>
						<rate>
							<timebase>60</timebase>
							<ntsc>TRUE</ntsc>
						</rate>
						<duration>6</duration>
						<start>4428</start>
						<end>4434</end>
						<in>0</in>
						<out>6</out>
					</clipitem>
					<clipitem frameBlend="FALSE" id="clipitem-telop-371">
						<file id="file-2"/>
						<name>テロップ371</name>
						<rate>
							<timebase>60</timebase>
							<ntsc>TRUE</ntsc>
						</rate>
						<rate>
							<timebase>60</timebase>
							<ntsc>TRUE</ntsc>
						</rate>
						<duration>6</duration>
						<start>4440</start>
						<end>4446</end>
						<in>0</in>
						<out>6</out>
					</clipitem>
					<clipitem frameBlend="FALSE" id="clipitem-telop-372">
						<file id="file-2"/>
						<name>テロップ372</name>
						<rate>
							<timebase>60</timebase>
							<ntsc>TRUE</ntsc>
						</rate>
						<rate>
							<timebase>60</timebase>
							<ntsc>TRUE</ntsc>
						</rate>
						<duration>6</duration>
						<start>4452</start>
						<end>4458</end>
						<in>0</in>
						<out>6</out>
					</clipitem>
					<clipitem frameBlend="FALSE" id="clipitem-telop-373">
						<file id="file-2"/>
						<name>テロップ373</name>
						<rate>
							<timebase>60</timebase>
							<ntsc>TRUE</ntsc>
						</rate>
						<rate>
							<timebase>60</timebase>
							<ntsc>TRUE</ntsc>
						</rate>
						<duration>6</duration>
						<start>4464</start>
						<end>4470</end>
						<in>0</in>
						<out>6</out>
					</clipitem>
					<clipitem frameBlend="FALSE" id="clipitem-telop-374">
						<file id="file-2"/>
						<name>テロップ374</name>
						<rate>
							<timebase>60</timebase>
							<ntsc>TRUE</ntsc>
						</rate>
						<rate>
							<timebase>60</timebase>
							<ntsc>TRUE</ntsc>
						</rate>
						<duration>6</duration>
						<start>4476</start>
						<end>4482</end>
						<in>0</in>
						<out>6</out>
					</clipitem>
					<clipitem frameBlend="FALSE" id="clipitem-telop-375">
						<file id="file-2"/>
						<name>テロップ375</name>
						<rate>
							<timebase>60</timebase>
							<ntsc>TRUE</ntsc>
						</rate>
						<rate>
							<timebase>60</timebase>
							<ntsc>TRUE</ntsc>
						</rate>
						<duration>6</duration>
						<start>4488</start>
						<end>4494</end>
						<in>0</in>
						<out>6</out>
					</clipitem>
					<clipitem frameBlend="FALSE" id="clipitem-telop-376">
						<file id="file-2"/>
						<name>テロップ376</name>
						<rate>
							<timebase>60</timebase>
							<ntsc>TRUE</ntsc>
						</rate>
						<rate>
							<timebase>60</timebase>
							<ntsc>TRUE</ntsc>
						</rate>
						<duration>6</duration>
						<start>4500</start>
						<end>4506</end>
						<in>0</in>
						<out>6</out>
					</clipitem>
					<clipitem frameBlend="FALSE" id="clipitem-telop-377">
						<file id="file-2"/>
						<name>テロップ377</name>
						<rate>
							<timebase>60</timebase>
							<ntsc>TRUE</ntsc>
						</rate>
						<rate>
							<timebase>60</timebase>
							<ntsc>TRUE</ntsc>
						</rate>
						<duration>6</duration>
						<start>4512</start>
						<end>4518</end>
						<in>0</in>
						<out>6</out>
					</clipitem>
					<clipitem frameBlend="FALSE" id="clipitem-telop-378">
						<file id="file-2"/>
						<name>テロップ378</name>
						<rate>
							<timebase>60</timebase>
							<ntsc>TRUE</ntsc>
						</rate>
						<rate>
							<timebase>60</timebase>
							<ntsc>TRUE</ntsc>
						</rate>
						<duration>6</duration>
						<start>4524</start>
						<end>4530</end>
						<in>0</in>
						<out>6</out>
					</clipitem>
					<clipitem frameBlend="FALSE" id="clipitem-telop-379">
						<file id="file-2"/>
						<name>テロップ379</name>
						<rate>
							<timebase>60</timebase>
							<ntsc>TRUE</ntsc>
						</rate>
						<rate>
							<timebase>60</timebase>
							<ntsc>TRUE</ntsc>
						</rate>
						<duration>6</duration>
						<start>4536</start>
						<end>4542</end>
						<in>0</in>
						<out>6</out>
					</clipitem>
					<clipitem frameBlend="FALSE" id="clipitem-telop-380">
						<file id="file-2"/>
						<name>テロップ380</name>
						<rate>
							<timebase>60</timebase>
							<ntsc>TRUE</ntsc>
						</rate>
						<rate>
							<timebase>60</timebase>
							<ntsc>TRUE</ntsc>
						</rate>
						<duration>6</duration>
						<start>4548</start>
						<end>4554</end>
						<in>0</in>
						<out>6</out>
					</clipitem>
					<clipitem frameBlend="FALSE" id="clipitem-telop-381">
						<file id="file-2"/>
						<name>テロップ381</name>
						<rate>
							<timebase>60</timebase>
							<ntsc>TRUE</ntsc>
						</rate>
						<rate>
							<timebase>60</timebase>
							<ntsc>TRUE</ntsc>
						</rate>
						<duration>6</duration>
						<start>4560</start>
						<end>4566</end>
						<in>0</in>
						<out>6</out>
					</clipitem>
					<clipitem frameBlend="FALSE" id="clipitem-telop-382">
						<file id="file-2"/>
						<name>テロップ382</name>
						<rate>
							<timebase>60</timebase>
							<ntsc>TRUE</ntsc>
						</rate>
						<rate>
							<timebase>60</timebase>
							<ntsc>TRUE</ntsc>
						</rate>
						<duration>6</duration>
						<start>4572</start>
						<end>4578</end>
						<in>0</in>
						<out>6</out>
					</clipitem>
					<clipitem frameBlend="FALSE" id="clipitem-telop-383">
						<file id="file-2"/>
						<name>テロップ383</name>
						<rate>
							<timebase>60</timebase>
							<ntsc>TRUE</ntsc>
						</rate>
						<rate>
							<timebase>60</timebase>
							<ntsc>TRUE</ntsc>
						</rate>
						<duration>6</duration>
						<start>4584</start>
						<end>4590</end>
						<in>0</in>
						<out>6</out>
					</clipitem>
					<clipitem frameBlend="FALSE" id="clipitem-telop-384">
						<file id="file-2"/>
						<name>テロップ384</name>
						<rate>
							<timebase>60</timebase>
							<ntsc>TRUE</ntsc>
						</rate>
						<rate>
							<timebase>60</timebase>
							<ntsc>TRUE</ntsc>
						</rate>
						<duration>6</duration>
						<start>4596</start>
						<end>4602</end>
						<in>0</in>
						<out>6</out>
					</clipitem>
					<clipitem frameBlend="FALSE" id="clipitem-telop-385">
						<file id="file-2"/>
						<name>テロップ385</name>
						<rate>
							<timebase>60</timebase>
							<ntsc>TRUE</ntsc>
						</rate>
						<rate>
							<timebase>60</timebase>
							<ntsc>TRUE</ntsc>
						</rate>
						<duration>6</duration>
						<start>4608</start>
						<end>4614</end>
						<in>0</in>
						<out>6</out>
					</clipitem>
					<clipitem frameBlend="FALSE" id="clipitem-telop-386">
						<file id="file-2"/>
						<name>テロップ386</name>
						<rate>
							<timebase>60</timebase>
							<ntsc>TRUE</ntsc>
						</rate>
						<rate>
							<timebase>60</timebase>
							<ntsc>TRUE</ntsc>
						</rate>
						<duration>6</duration>
						<start>4620</start>
						<end>4626</end>
						<in>0</in>
						<out>6</out>
					</clipitem>
					<clipitem frameBlend="FALSE" id="clipitem-telop-387">
						<file id="file-2"/>
						<name>テロップ387</name>
						<rate>
							<timebase>60</timebase>
							<ntsc>TRUE</ntsc>
						</rate>
						<rate>
							<timebase>60</timebase>
							<ntsc>TRUE</ntsc>
						</rate>
						<duration>6</duration>
						<start>4632</start>
						<end>4638</end>
						<in>0</in>
						<out>6</out>
					</clipitem>
					<clipitem frameBlend="FALSE" id="clipitem-telop-388">
						<file id="file-2"/>
						<name>テロップ388</name>
						<rate>
							<timebase>60</timebase>
							<ntsc>TRUE</ntsc>
						</rate>
						<rate>
							<timebase>60</timebase>
							<ntsc>TRUE</ntsc>
						</rate>
						<duration>6</duration>
						<start>4644</start>
						<end>4650</end>
						<in>0</in>
						<out>6</out>
					</clipitem>
					<clipitem frameBlend="FALSE" id="clipitem-telop-389">
						<file id="file-2"/>
						<name>テロップ389</name>
						<rate>
							<timebase>60</timebase>
							<ntsc>TRUE</ntsc>
						</rate>
						<rate>
							<timebase>60</timebase>
							<ntsc>TRUE</ntsc>
						</rate>
						<duration>6</duration>
						<start>4656</start>
						<end>4662</end>
						<in>0</in>
						<out>6</out>
					</clipitem>
					<clipitem frameBlend="FALSE" id="clipitem-telop-390">
						<file id="file-2"/>
						<name>テロップ390</name>
						<rate>
							<timebase>60</timebase>
							<ntsc>TRUE</ntsc>
						</rate>
						<rate>
							<timebase>60</timebase>
							<ntsc>TRUE</ntsc>
						</rate>
						<duration>6</duration>
						<start>4668</start>
						<end>4674</end>
						<in>0</in>
						<out>6</out>
					</clipitem>
					<clipitem frameBlend="FALSE" id="clipitem-telop-391">
						<file id="file-2"/>
						<name>テロップ391</name>
						<rate>
							<timebase>60</timebase>
							<ntsc>TRUE</ntsc>
						</rate>
						<rate>
							<timebase>60</timebase>
							<ntsc>TRUE</ntsc>
						</rate>
						<duration>6</duration>
						<start>4680</start>
						<end>4686</end>
						<in>0</in>
						<out>6</out>
					</clipitem>
					<clipitem frameBlend="FALSE" id="clipitem-telop-392">
						<file id="file-2"/>
						<name>テロップ392</name>
						<rate>
							<timebase>60</timebase>
							<ntsc>TRUE</ntsc>
						</rate>
						<rate>
							<timebase>60</timebase>
							<ntsc>TRUE</ntsc>
						</rate>
						<duration>6</duration>
						<start>4692</start>
						<end>4698</end>
						<in>0</in>
						<out>6</out>
					</clipitem>
					<clipitem frameBlend="FALSE" id="clipitem-telop-393">
						<file id="file-2"/>
						<name>テロップ393</name>
						<rate>
							<timebase>60</timebase>
							<ntsc>TRUE</ntsc>
						</rate>
						<rate>
							<timebase>60</timebase>
							<ntsc>TRUE</ntsc>
						</rate>
						<duration>6</duration>
						<start>4704</start>
						<end>4710</end>
						<in>0</in>
						<out>6</out>
					</clipitem>
					<clipitem frameBlend="FALSE" id="clipitem-telop-394">
						<file id="file-2"/>
						<name>テロップ394</name>
						<rate>
							<timebase>60</timebase>
							<ntsc>TRUE</ntsc>
						</rate>
						<rate>
							<timebase>60</timebase>
							<ntsc>TRUE</ntsc>
						</rate>
						<duration>6</duration>
						<start>4716</start>
						<end>4722</end>
						<in>0</in>
						<out>6</out>
					</clipitem>
					<clipitem frameBlend="FALSE" id="clipitem-telop-395">
						<file id="file-2"/>
						<name>テロップ395</name>
						<rate>
							<timebase>60</timebase>
							<ntsc>TRUE</ntsc>
						</rate>
						<rate>
							<timebase>60</timebase>
							<ntsc>TRUE</ntsc>
						</rate>
						<duration>6</duration>
						<start>4728</start>
						<end>4734</end>
						<in>0</in>
						<out>6</out>
					</clipitem>
					<clipitem frameBlend="FALSE" id="clipitem-telop-396">
						<file id="file-2"/>
						<name>テロップ396</name>
						<rate>
							<timebase>60</timebase>
							<ntsc>TRUE</ntsc>
						</rate>
						<rate>
							<timebase>60</timebase>
							<ntsc>TRUE</ntsc>
						</rate>
						<duration>6</duration>
						<start>4740</start>
						<end>4746</end>
						<in>0</in>
						<out>6</out>
					</clipitem>
					<clipitem frameBlend="FALSE" id="clipitem-telop-397">
						<file id="file-2"/>
						<name>テロップ397</name>
						<rate>
							<timebase>60</timebase>
							<ntsc>TRUE</ntsc>
						</rate>
						<rate>
							<timebase>60</timebase>
							<ntsc>TRUE</ntsc>
						</rate>
						<duration>6</duration>
						<start>4752</start>
						<end>4758</end>
						<in>0</in>
						<out>6</out>
					</clipitem>
					<clipitem frameBlend="FALSE" id="clipitem-telop-398">
						<file id="file-2"/>
						<name>テロップ398</name>
						<rate>
							<timebase>60</timebase>
							<ntsc>TRUE</ntsc>
						</rate>
						<rate>
							<timebase>60</timebase>
							<ntsc>TRUE</ntsc>
						</rate>
						<duration>6</duration>
						<start>4764</start>
						<end>4770</end>
						<in>0</in>
						<out>6</out>
					</clipitem>
					<clipitem frameBlend="FALSE" id="clipitem-telop-399">
						<file id="file-2"/>
						<name>テロップ399</name>
						<rate>
							<timebase>60</timebase>
							<ntsc>TRUE</ntsc>
						</rate>
						<rate>
							<timebase>60</timebase>
							<ntsc>TRUE</ntsc>
						</rate>
						<duration>6</duration>
						<start>4776</start>
						<end>4782</end>
						<in>0</in>
						<out>6</out>
					</clipitem>
					<clipitem frameBlend="FALSE" id="clipitem-telop-400">
						<file id="file-2"/>
						<name>テロップ400</name>
						<rate>
							<timebase>60</timebase>
							<ntsc>TRUE</ntsc>
						</rate>
						<rate>
							<timebase>60</timebase>
							<ntsc>TRUE</ntsc>
						</rate>
						<duration>6</duration>
						<start>4788</start>
						<end>4794</end>
						<in>0</in>
						<out>6</out>
					</clipitem>
					<clipitem frameBlend="FALSE" id="clipitem-telop-401">
						<file id="file-2"/>
						<name>テロップ401</name>
						<rate>
							<timebase>60</timebase>
							<ntsc>TRUE</ntsc>
						</rate>
						<rate>
							<timebase>60</timebase>
							<ntsc>TRUE</ntsc>
						</rate>
						<duration>6</duration>
						<start>4800</start>
						<end>4806</end>
						<in>0</in>
						<out>6</out>
					</clipitem>
					<clipitem frameBlend="FALSE" id="clipitem-telop-402">
						<file id="file-2"/>
						<name>テロップ402</name>
						<rate>
							<timebase>60</timebase>
							<ntsc>TRUE</ntsc>
						</rate>
						<rate>
							<timebase>60</timebase>
							<ntsc>TRUE</ntsc>
						</rate>
						<duration>6</duration>
						<start>4812</start>
						<end>4818</end>
						<in>0</in>
						<out>6</out>
					</clipitem>
					<clipitem frameBlend="FALSE" id="clipitem-telop-403">
						<file id="file-2"/>
						<name>テロップ403</name>
						<rate>
							<timebase>60</timebase>
							<ntsc>TRUE</ntsc>
						</rate>
						<rate>
							<timebase>60</timebase>
							<ntsc>TRUE</ntsc>
						</rate>
						<duration>6</duration>
						<start>4824</start>
						<end>4830</end>
						<in>0</in>
						<out>6</out>
					</clipitem>
					<clipitem frameBlend="FALSE" id="clipitem-telop-404">
						<file id="file-2"/>
						<name>テロップ404</name>
						<rate>
							<timebase>60</timebase>
							<ntsc>TRUE</ntsc>
						</rate>
						<rate>
							<timebase>60</timebase>
							<ntsc>TRUE</ntsc>
						</rate>
						<duration>6</duration>
						<start>4836</start>
						<end>4842</end>
						<in>0</in>
						<out>6</out>
					</clipitem>
					<clipitem frameBlend="FALSE" id="clipitem-telop-405">
						<file id="file-2"/>
						<name>テロップ405</name>
						<rate>
							<timebase>60</timebase>
							<ntsc>TRUE</ntsc>
						</rate>
						<rate>
							<timebase>60</timebase>
							<ntsc>TRUE</ntsc>
						</rate>
						<duration>6</duration>
						<start>4848</start>
						<end>4854</end>
						<in>0</in>
						<out>6</out>
					</clipitem>
					<clipitem frameBlend="FALSE" id="clipitem-telop-406">
						<file id="file-2"/>
						<name>テロップ406</name>
						<rate>
							<timebase>60</timebase>
							<ntsc>TRUE</ntsc>
						</rate>
						<rate>
							<timebase>60</timebase>
							<ntsc>TRUE</ntsc>
						</rate>
						<duration>6</duration>
						<start>4860</start>
						<end>4866</end>
						<in>0</in>
						<out>6</out>
					</clipitem>
					<clipitem frameBlend="FALSE" id="clipitem-telop-407">
						<file id="file-2"/>
						<name>テロップ407</name>
						<rate>
							<timebase>60</timebase>
							<ntsc>TRUE</ntsc>
						</rate>
						<rate>
							<timebase>60</timebase>
							<ntsc>TRUE</ntsc>
						</rate>
						<duration>6</duration>
						<start>4872</start>
						<end>4878</end>
						<in>0</in>
						<out>6</out>
					</clipitem>
					<clipitem frameBlend="FALSE" id="clipitem-telop-408">
						<file id="file-2"/>
						<name>テロップ408</name>
						<rate>
							<timebase>60</timebase>
							<ntsc>TRUE</ntsc>
						</rate>
						<rate>
							<timebase>60</timebase>
							<ntsc>TRUE</ntsc>
						</rate>
						<duration>6</duration>
						<start>4884</start>
						<end>4890</end>
						<in>0</in>
						<out>6</out>
					</clipitem>
					<clipitem frameBlend="FALSE" id="clipitem-telop-409">
						<file id="file-2"/>
						<name>テロップ409</name>
						<rate>
							<timebase>60</timebase>
							<ntsc>TRUE</ntsc>
						</rate>
						<rate>
							<timebase>60</timebase>
							<ntsc>TRUE</ntsc>
						</rate>
						<duration>6</duration>
						<start>4896</start>
						<end>4902</end>
						<in>0</in>
						<out>6</out>
					</clipitem>
					<clipitem frameBlend="FALSE" id="clipitem-telop-410">
						<file id="file-2"/>
						<name>テロップ410</name>
						<rate>
							<timebase>60</timebase>
							<ntsc>TRUE</ntsc>
						</rate>
						<rate>
							<timebase>60</timebase>
							<ntsc>TRUE</ntsc>
						</rate>
						<duration>6</duration>
						<start>4908</start>
						<end>4914</end>
						<in>0</in>
						<out>6</out>
					</clipitem>
					<clipitem frameBlend="FALSE" id="clipitem-telop-411">
						<file id="file-2"/>
						<name>テロップ411</name>
						<rate>
							<timebase>60</timebase>
							<ntsc>TRUE</ntsc>
						</rate>
						<rate>
							<timebase>60</timebase>
							<ntsc>TRUE</ntsc>
						</rate>
						<duration>6</duration>
						<start>4920</start>
						<end>4926</end>
						<in>0</in>
						<out>6</out>
					</clipitem>
					<clipitem frameBlend="FALSE" id="clipitem-telop-412">
						<file id="file-2"/>
						<name>テロップ412</name>
						<rate>
							<timebase>60</timebase>
							<ntsc>TRUE</ntsc>
						</rate>
						<rate>
							<timebase>60</timebase>
							<ntsc>TRUE</ntsc>
						</rate>
						<duration>6</duration>
						<start>4932</start>
						<end>4938</end>
						<in>0</in>
						<out>6</out>
					</clipitem>
					<clipitem frameBlend="FALSE" id="clipitem-telop-413">
						<file id="file-2"/>
						<name>テロップ413</name>
						<rate>
							<timebase>60</timebase>
							<ntsc>TRUE</ntsc>
						</rate>
						<rate>
							<timebase>60</timebase>
							<ntsc>TRUE</ntsc>
						</rate>
						<duration>6</duration>
						<start>4944</start>
						<end>4950</end>
						<in>0</in>
						<out>6</out>
					</clipitem>
					<clipitem frameBlend="FALSE" id="clipitem-telop-414">
						<file id="file-2"/>
						<name>テロップ414</name>
						<rate>
							<timebase>60</timebase>
							<ntsc>TRUE</ntsc>
						</rate>
						<rate>
							<timebase>60</timebase>
							<ntsc>TRUE</ntsc>
						</rate>
						<duration>6</duration>
						<start>4956</start>
						<end>4962</end>
						<in>0</in>
						<out>6</out>
					</clipitem>
					<clipitem frameBlend="FALSE" id="clipitem-telop-415">
						<file id="file-2"/>
						<name>テロップ415</name>
						<rate>
							<timebase>60</timebase>
							<ntsc>TRUE</ntsc>
						</rate>
						<rate>
							<timebase>60</timebase>
							<ntsc>TRUE</ntsc>
						</rate>
						<duration>6</duration>
						<start>4968</start>
						<end>4974</end>
						<in>0</in>
						<out>6</out>
					</clipitem>
					<clipitem frameBlend="FALSE" id="clipitem-telop-416">
						<file id="file-2"/>
						<name>テロップ416</name>
						<rate>
							<timebase>60</timebase>
							<ntsc>TRUE</ntsc>
						</rate>
						<rate>
							<timebase>60</timebase>
							<ntsc>TRUE</ntsc>
						</rate>
						<duration>6</duration>
						<start>4980</start>
						<end>4986</end>
						<in>0</in>
						<out>6</out>
					</clipitem>
					<clipitem frameBlend="FALSE" id="clipitem-telop-417">
						<file id="file-2"/>
						<name>テロップ417</name>
						<rate>
							<timebase>60</timebase>
							<ntsc>TRUE</ntsc>
						</rate>
						<rate>
							<timebase>60</timebase>
							<ntsc>TRUE</ntsc>
						</rate>
						<duration>6</duration>
						<start>4992</start>
						<end>4998</end>
						<in>0</in>
						<out>6</out>
					</clipitem>
					<clipitem frameBlend="FALSE" id="clipitem-telop-418">
						<file id="file-2"/>
						<name>テロップ418</name>
						<rate>
							<timebase>60</timebase>
							<ntsc>TRUE</ntsc>
						</rate>
						<rate>
							<timebase>60</timebase>
							<ntsc>TRUE</ntsc>
						</rate>
						<duration>6</duration>
						<start>5004</start>
						<end>5010</end>
						<in>0</in>
						<out>6</out>
					</clipitem>
					<clipitem frameBlend="FALSE" id="clipitem-telop-419">
						<file id="file-2"/>
						<name>テロップ419</name>
						<rate>
							<timebase>60</timebase>
							<ntsc>TRUE</ntsc>
						</rate>
						<rate>
							<timebase>60</timebase>
							<ntsc>TRUE</ntsc>
						</rate>
						<duration>6</duration>
						<start>5016</start>
						<end>5022</end>
						<in>0</in>
						<out>6</out>
					</clipitem>
					<clipitem frameBlend="FALSE" id="clipitem-telop-420">
						<file id="file-2"/>
						<name>テロップ420</name>
						<rate>
							<timebase>60</timebase>
							<ntsc>TRUE</ntsc>
						</rate>
						<rate>
							<timebase>60</timebase>
							<ntsc>TRUE</ntsc>
						</rate>
						<duration>6</duration>
						<start>5028</start>
						<end>5034</end>
						<in>0</in>
						<out>6</out>
					</clipitem>
					<clipitem frameBlend="FALSE" id="clipitem-telop-421">
						<file id="file-2"/>
						<name>テロップ421</name>
						<rate>
							<timebase>60</timebase>
							<ntsc>TRUE</ntsc>
						</rate>
						<rate>
							<timebase>60</timebase>
							<ntsc>TRUE</ntsc>
						</rate>
						<duration>6</duration>
						<start>5040</start>
						<end>5046</end>
						<in>0</in>
						<out>6</out>
					</clipitem>
					<clipitem frameBlend="FALSE" id="clipitem-telop-422">
						<file id="file-2"/>
						<name>テロップ422</name>
						<rate>
							<timebase>60</timebase>
							<ntsc>TRUE</ntsc>
						</rate>
						<rate>
							<timebase>60</timebase>
							<ntsc>TRUE</ntsc>
						</rate>
						<duration>6</duration>
						<start>5052</start>
						<end>5058</end>
						<in>0</in>
						<out>6</out>
					</clipitem>
					<clipitem frameBlend="FALSE" id="clipitem-telop-423">
						<file id="file-2"/>
						<name>テロップ423</name>
						<rate>
							<timebase>60</timebase>
							<ntsc>TRUE</ntsc>
						</rate>
						<rate>
							<timebase>60</timebase>
							<ntsc>TRUE</ntsc>
						</rate>
						<duration>6</duration>
						<start>5064</start>
						<end>5070</end>
						<in>0</in>
						<out>6</out>
					</clipitem>
					<clipitem frameBlend="FALSE" id="clipitem-telop-424">
						<file id="file-2"/>
						<name>テロップ424</name>
						<rate>
							<timebase>60</timebase>
							<ntsc>TRUE</ntsc>
						</rate>
						<rate>
							<timebase>60</timebase>
							<ntsc>TRUE</ntsc>
						</rate>
						<duration>6</duration>
						<start>5076</start>
						<end>5082</end>
						<in>0</in>
						<out>6</out>
					</clipitem>
					<clipitem frameBlend="FALSE" id="clipitem-telop-425">
						<file id="file-2"/>
						<name>テロップ425</name>
						<rate>
							<timebase>60</timebase>
							<ntsc>TRUE</ntsc>
						</rate>
						<rate>
							<timebase>60</timebase>
							<ntsc>TRUE</ntsc>
						</rate>
						<duration>6</duration>
						<start>5088</start>
						<end>5094</end>
						<in>0</in>
						<out>6</out>
					</clipitem>
					<clipitem frameBlend="FALSE" id="clipitem-telop-426">
						<file id="file-2"/>
						<name>テロップ426</name>
						<rate>
							<timebase>60</timebase>
							<ntsc>TRUE</ntsc>
						</rate>
						<rate>
							<timebase>60</timebase>
							<ntsc>TRUE</ntsc>
						</rate>
						<duration>6</duration>
						<start>5100</start>
						<end>5106</end>
						<in>0</in>
						<out>6</out>
					</clipitem>
					<clipitem frameBlend="FALSE" id="clipitem-telop-427">
						<file id="file-2"/>
						<name>テロップ427</name>
						<rate>
							<timebase>60</timebase>
							<ntsc>TRUE</ntsc>
						</rate>
						<rate>
							<timebase>60</timebase>
							<ntsc>TRUE</ntsc>
						</rate>
						<duration>6</duration>
						<start>5112</start>
						<end>5118</end>
						<in>0</in>
						<out>6</out>
					</clipitem>
					<clipitem frameBlend="FALSE" id="clipitem-telop-428">
						<file id="file-2"/>
						<name>テロップ428</name>
						<rate>
							<timebase>60</timebase>
							<ntsc>TRUE</ntsc>
						</rate>
						<rate>
							<timebase>60</timebase>
							<ntsc>TRUE</ntsc>
						</rate>
						<duration>6</duration>
						<start>5124</start>
						<end>5130</end>
						<in>0</in>
						<out>6</out>
					</clipitem>
					<clipitem frameBlend="FALSE" id="clipitem-telop-429">
						<file id="file-2"/>
						<name>テロップ429</name>
						<rate>
							<timebase>60</timebase>
							<ntsc>TRUE</ntsc>
						</rate>
						<rate>
							<timebase>60</timebase>
							<ntsc>TRUE</ntsc>
						</rate>
						<duration>6</duration>
						<start>5136</start>
						<end>5142</end>
						<in>0</in>
						<out>6</out>
					</clipitem>
					<clipitem frameBlend="FALSE" id="clipitem-telop-430">
						<file id="file-2"/>
						<name>テロップ430</name>
						<rate>
							<timebase>60</timebase>
							<ntsc>TRUE</ntsc>
						</rate>
						<rate>
							<timebase>60</timebase>
							<ntsc>TRUE</ntsc>
						</rate>
						<duration>6</duration>
						<start>5148</start>
						<end>5154</end>
						<in>0</in>
						<out>6</out>
					</clipitem>
					<clipitem frameBlend="FALSE" id="clipitem-telop-431">
						<file id="file-2"/>
						<name>テロップ431</name>
						<rate>
							<timebase>60</timebase>
							<ntsc>TRUE</ntsc>
						</rate>
						<rate>
							<timebase>60</timebase>
							<ntsc>TRUE</ntsc>
						</rate>
						<duration>6</duration>
						<start>5160</start>
						<end>5166</end>
						<in>0</in>
						<out>6</out>
					</clipitem>
					<clipitem frameBlend="FALSE" id="clipitem-telop-432">
						<file id="file-2"/>
						<name>テロップ432</name>
						<rate>
							<timebase>60</timebase>
							<ntsc>TRUE</ntsc>
						</rate>
						<rate>
							<timebase>60</timebase>
							<ntsc>TRUE</ntsc>
						</rate>
						<duration>6</duration>
						<start>5172</start>
						<end>5178</end>
						<in>0</in>
						<out>6</out>
					</clipitem>
					<clipitem frameBlend="FALSE" id="clipitem-telop-433">
						<file id="file-2"/>
						<name>テロップ433</name>
						<rate>
							<timebase>60</timebase>
							<ntsc>TRUE</ntsc>
						</rate>
						<rate>
							<timebase>60</timebase>
							<ntsc>TRUE</ntsc>
						</rate>
						<duration>6</duration>
						<start>5184</start>
						<end>5190</end>
						<in>0</in>
						<out>6</out>
					</clipitem>
					<clipitem frameBlend="FALSE" id="clipitem-telop-434">
						<file id="file-2"/>
						<name>テロップ434</name>
						<rate>
							<timebase>60</timebase>
							<ntsc>TRUE</ntsc>
						</rate>
						<rate>
							<timebase>60</timebase>
							<ntsc>TRUE</ntsc>
						</rate>
						<duration>6</duration>
						<start>5196</start>
						<end>5202</end>
						<in>0</in>
						<out>6</out>
					</clipitem>
					<clipitem frameBlend="FALSE" id="clipitem-telop-435">
						<file id="file-2"/>
						<name>テロップ435</name>
						<rate>
							<timebase>60</timebase>
							<ntsc>TRUE</ntsc>
						</rate>
						<rate>
							<timebase>60</timebase>
							<ntsc>TRUE</ntsc>
						</rate>
						<duration>6</duration>
						<start>5208</start>
						<end>5214</end>
						<in>0</in>
						<out>6</out>
					</clipitem>
					<clipitem frameBlend="FALSE" id="clipitem-telop-436">
						<file id="file-2"/>
						<name>テロップ436</name>
						<rate>
							<timebase>60</timebase>
							<ntsc>TRUE</ntsc>
						</rate>
						<rate>
							<timebase>60</timebase>
							<ntsc>TRUE</ntsc>
						</rate>
						<duration>6</duration>
						<start>5220</start>
						<end>5226</end>
						<in>0</in>
						<out>6</out>
					</clipitem>
					<clipitem frameBlend="FALSE" id="clipitem-telop-437">
						<file id="file-2"/>
						<name>テロップ437</name>
						<rate>
							<timebase>60</timebase>
							<ntsc>TRUE</ntsc>
						</rate>
						<rate>
							<timebase>60</timebase>
							<ntsc>TRUE</ntsc>
						</rate>
						<duration>6</duration>
						<start>5232</start>
						<end>5238</end>
						<in>0</in>
						<out>6</out>
					</clipitem>
					<clipitem frameBlend="FALSE" id="clipitem-telop-438">
						<file id="file-2"/>
						<name>テロップ438</name>
						<rate>
							<timebase>60</timebase>
							<ntsc>TRUE</ntsc>
						</rate>
						<rate>
							<timebase>60</timebase>
							<ntsc>TRUE</ntsc>
						</rate>
						<duration>6</duration>
						<start>5244</start>
						<end>5250</end>
						<in>0</in>
						<out>6</out>
					</clipitem>
					<clipitem frameBlend="FALSE" id="clipitem-telop-439">
						<file id="file-2"/>
						<name>テロップ439</name>
						<rate>
							<timebase>60</timebase>
							<ntsc>TRUE</ntsc>
						</rate>
						<rate>
							<timebase>60</timebase>
							<ntsc>TRUE</ntsc>
						</rate>
						<duration>6</duration>
						<start>5256</start>
						<end>5262</end>
						<in>0</in>
						<out>6</out>
					</clipitem>
					<clipitem frameBlend="FALSE" id="clipitem-telop-440">
						<file id="file-2"/>
						<name>テロップ440</name>
						<rate>
							<timebase>60</timebase>
							<ntsc>TRUE</ntsc>
						</rate>
						<rate>
							<timebase>60</timebase>
							<ntsc>TRUE</ntsc>
						</rate>
						<duration>6</duration>
						<start>5268</start>
						<end>5274</end>
						<in>0</in>
						<out>6</out>
					</clipitem>
					<clipitem frameBlend="FALSE" id="clipitem-telop-441">
						<file id="file-2"/>
						<name>テロップ441</name>
						<rate>
							<timebase>60</timebase>
							<ntsc>TRUE</ntsc>
						</rate>
						<rate>
							<timebase>60</timebase>
							<ntsc>TRUE</ntsc>
						</rate>
						<duration>6</duration>
						<start>5280</start>
						<end>5286</end>
						<in>0</in>
						<out>6</out>
					</clipitem>
					<clipitem frameBlend="FALSE" id="clipitem-telop-442">
						<file id="file-2"/>
						<name>テロップ442</name>
						<rate>
							<timebase>60</timebase>
							<ntsc>TRUE</ntsc>
						</rate>
						<rate>
							<timebase>60</timebase>
							<ntsc>TRUE</ntsc>
						</rate>
						<duration>6</duration>
						<start>5292</start>
						<end>5298</end>
						<in>0</in>
						<out>6</out>
					</clipitem>
					<clipitem frameBlend="FALSE" id="clipitem-telop-443">
						<file id="file-2"/>
						<name>テロップ443</name>
						<rate>
							<timebase>60</timebase>
							<ntsc>TRUE</ntsc>
						</rate>
						<rate>
							<timebase>60</timebase>
							<ntsc>TRUE</ntsc>
						</rate>
						<duration>6</duration>
						<start>5304</start>
						<end>5310</end>
						<in>0</in>
						<out>6</out>
					</clipitem>
					<clipitem frameBlend="FALSE" id="clipitem-telop-444">
						<file id="file-2"/>
						<name>テロップ444</name>
						<rate>
							<timebase>60</timebase>
							<ntsc>TRUE</ntsc>
						</rate>
						<rate>
							<timebase>60</timebase>
							<ntsc>TRUE</ntsc>
						</rate>
						<duration>6</duration>
						<start>5316</start>
						<end>5322</end>
						<in>0</in>
						<out>6</out>
					</clipitem>
					<clipitem frameBlend="FALSE" id="clipitem-telop-445">
						<file id="file-2"/>
						<name>テロップ445</name>
						<rate>
							<timebase>60</timebase>
							<ntsc>TRUE</ntsc>
						</rate>
						<rate>
							<timebase>60</timebase>
							<ntsc>TRUE</ntsc>
						</rate>
						<duration>6</duration>
						<start>5328</start>
						<end>5334</end>
						<in>0</in>
						<out>6</out>
					</clipitem>
					<clipitem frameBlend="FALSE" id="clipitem-telop-446">
						<file id="file-2"/>
						<name>テロップ446</name>
						<rate>
							<timebase>60</timebase>
							<ntsc>TRUE</ntsc>
						</rate>
						<rate>
							<timebase>60</timebase>
							<ntsc>TRUE</ntsc>
						</rate>
						<duration>6</duration>
						<start>5340</start>
						<end>5346</end>
						<in>0</in>
						<out>6</out>
					</clipitem>
					<clipitem frameBlend="FALSE" id="clipitem-telop-447">
						<file id="file-2"/>
						<name>テロップ447</name>
						<rate>
							<timebase>60</timebase>
							<ntsc>TRUE</ntsc>
						</rate>
						<rate>
							<timebase>60</timebase>
							<ntsc>TRUE</ntsc>
						</rate>
						<duration>6</duration>
						<start>5352</start>
						<end>5358</end>
						<in>0</in>
						<out>6</out>
					</clipitem>
					<clipitem frameBlend="FALSE" id="clipitem-telop-448">
						<file id="file-2"/>
						<name>テロップ448</name>
						<rate>
							<timebase>60</timebase>
							<ntsc>TRUE</ntsc>
						</rate>
						<rate>
							<timebase>60</timebase>
							<ntsc>TRUE</ntsc>
						</rate>
						<duration>6</duration>
						<start>5364</start>
						<end>5370</end>
						<in>0</in>
						<out>6</out>
					</clipitem>
					<clipitem frameBlend="FALSE" id="clipitem-telop-449">
						<file id="file-2"/>
						<name>テロップ449</name>
						<rate>
							<timebase>60</timebase>
							<ntsc>TRUE</ntsc>
						</rate>
						<rate>
							<timebase>60</timebase>
							<ntsc>TRUE</ntsc>
						</rate>
						<duration>6</duration>
						<start>5376</start>
						<end>5382</end>
						<in>0</in>
						<out>6</out>
					</clipitem>
					<clipitem frameBlend="FALSE" id="clipitem-telop-450">
						<file id="file-2"/>
						<name>テロップ450</name>
						<rate>
							<timebase>60</timebase>
							<ntsc>TRUE</ntsc>
						</rate>
						<rate>
							<timebase>60</timebase>
							<ntsc>TRUE</ntsc>
						</rate>
						<duration>6</duration>
						<start>5388</start>
						<end>5394</end>
						<in>0</in>
						<out>6</out>
					</clipitem>
					<clipitem frameBlend="FALSE" id="clipitem-telop-451">
						<file id="file-2"/>
						<name>テロップ451</name>
						<rate>
							<timebase>60</timebase>
							<ntsc>TRUE</ntsc>
						</rate>
						<rate>
							<timebase>60</timebase>
							<ntsc>TRUE</ntsc>
						</rate>
						<duration>6</duration>
						<start>5400</start>
						<end>5406</end>
						<in>0</in>
						<out>6</out>
					</clipitem>
					<clipitem frameBlend="FALSE" id="clipitem-telop-452">
						<file id="file-2"/>
						<name>テロップ452</name>
						<rate>
							<timebase>60</timebase>
							<ntsc>TRUE</ntsc>
						</rate>
						<rate>
							<timebase>60</timebase>
							<ntsc>TRUE</ntsc>
						</rate>
						<duration>6</duration>
						<start>5412</start>
						<end>5418</end>
						<in>0</in>
						<out>6</out>
					</clipitem>
					<clipitem frameBlend="FALSE" id="clipitem-telop-453">
						<file id="file-2"/>
						<name>テロップ453</name>
						<rate>
							<timebase>60</timebase>
							<ntsc>TRUE</ntsc>
						</rate>
						<rate>
							<timebase>60</timebase>
							<ntsc>TRUE</ntsc>
						</rate>
						<duration>6</duration>
						<start>5424</start>
						<end>5430</end>
						<in>0</in>
						<out>6</out>
					</clipitem>
					<clipitem frameBlend="FALSE" id="clipitem-telop-454">
						<file id="file-2"/>
						<name>テロップ454</name>
						<rate>
							<timebase>60</timebase>
							<ntsc>TRUE</ntsc>
						</rate>
						<rate>
							<timebase>60</timebase>
							<ntsc>TRUE</ntsc>
						</rate>
						<duration>6</duration>
						<start>5436</start>
						<end>5442</end>
						<in>0</in>
						<out>6</out>
					</clipitem>
					<clipitem frameBlend="FALSE" id="clipitem-telop-455">
						<file id="file-2"/>
						<name>テロップ455</name>
						<rate>
							<timebase>60</timebase>
							<ntsc>TRUE</ntsc>
						</rate>
						<rate>
							<timebase>60</timebase>
							<ntsc>TRUE</ntsc>
						</rate>
						<duration>6</duration>
						<start>5448</start>
						<end>5454</end>
						<in>0</in>
						<out>6</out>
					</clipitem>
					<clipitem frameBlend="FALSE" id="clipitem-telop-456">
						<file id="file-2"/>
						<name>テロップ456</name>
						<rate>
							<timebase>60</timebase>
							<ntsc>TRUE</ntsc>
						</rate>
						<rate>
							<timebase>60</timebase>
							<ntsc>TRUE</ntsc>
						</rate>
						<duration>6</duration>
						<start>5460</start>
						<end>5466</end>
						<in>0</in>
						<out>6</out>
					</clipitem>
					<clipitem frameBlend="FALSE" id="clipitem-telop-457">
						<file id="file-2"/>
						<name>テロップ457</name>
						<rate>
							<timebase>60</timebase>
							<ntsc>TRUE</ntsc>
						</rate>
						<rate>
							<timebase>60</timebase>
							<ntsc>TRUE</ntsc>
						</rate>
						<duration>6</duration>
						<start>5472</start>
						<end>5478</end>
						<in>0</in>
						<out>6</out>
					</clipitem>
					<clipitem frameBlend="FALSE" id="clipitem-telop-458">
						<file id="file-2"/>
						<name>テロップ458</name>
						<rate>
							<timebase>60</timebase>
							<ntsc>TRUE</ntsc>
						</rate>
						<rate>
							<timebase>60</timebase>
							<ntsc>TRUE</ntsc>
						</rate>
						<duration>6</duration>
						<start>5484</start>
						<end>5490</end>
						<in>0</in>
						<out>6</out>
					</clipitem>
					<clipitem frameBlend="FALSE" id="clipitem-telop-459">
						<file id="file-2"/>
						<name>テロップ459</name>
						<rate>
							<timebase>60</timebase>
							<ntsc>TRUE</ntsc>
						</rate>
						<rate>
							<timebase>60</timebase>
							<ntsc>TRUE</ntsc>
						</rate>
						<duration>6</duration>
						<start>5496</start>
						<end>5502</end>
						<in>0</in>
						<out>6</out>
					</clipitem>
					<clipitem frameBlend="FALSE" id="clipitem-telop-460">
						<file id="file-2"/>
						<name>テロップ460</name>
						<rate>
							<timebase>60</timebase>
							<ntsc>TRUE</ntsc>
						</rate>
						<rate>
							<timebase>60</timebase>
							<ntsc>TRUE</ntsc>
						</rate>
						<duration>6</duration>
						<start>5508</start>
						<end>5514</end>
						<in>0</in>
						<out>6</out>
					</clipitem>
					<clipitem frameBlend="FALSE" id="clipitem-telop-461">
						<file id="file-2"/>
						<name>テロップ461</name>
						<rate>
							<timebase>60</timebase>
							<ntsc>TRUE</ntsc>
						</rate>
						<rate>
							<timebase>60</timebase>
							<ntsc>TRUE</ntsc>
						</rate>
						<duration>6</duration>
						<start>5520</start>
						<end>5526</end>
						<in>0</in>
						<out>6</out>
					</clipitem>
					<clipitem frameBlend="FALSE" id="clipitem-telop-462">
						<file id="file-2"/>
						<name>テロップ462</name>
						<rate>
							<timebase>60</timebase>
							<ntsc>TRUE</ntsc>
						</rate>
						<rate>
							<timebase>60</timebase>
							<ntsc>TRUE</ntsc>
						</rate>
						<duration>6</duration>
						<start>5532</start>
						<end>5538</end>
						<in>0</in>
						<out>6</out>
					</clipitem>
					<clipitem frameBlend="FALSE" id="clipitem-telop-463">
						<file id="file-2"/>
						<name>テロップ463</name>
						<rate>
							<timebase>60</timebase>
							<ntsc>TRUE</ntsc>
						</rate>
						<rate>
							<timebase>60</timebase>
							<ntsc>TRUE</ntsc>
						</rate>
						<duration>6</duration>
						<start>5544</start>
						<end>5550</end>
						<in>0</in>
						<out>6</out>
					</clipitem>
					<clipitem frameBlend="FALSE" id="clipitem-telop-464">
						<file id="file-2"/>
						<name>テロップ464</name>
						<rate>
							<timebase>60</timebase>
							<ntsc>TRUE</ntsc>
						</rate>
						<rate>
							<timebase>60</timebase>
							<ntsc>TRUE</ntsc>
						</rate>
						<duration>6</duration>
						<start>5556</start>
						<end>5562</end>
						<in>0</in>
						<out>6</out>
					</clipitem>
					<clipitem frameBlend="FALSE" id="clipitem-telop-465">
						<file id="file-2"/>
						<name>テロップ465</name>
						<rate>
							<timebase>60</timebase>
							<ntsc>TRUE</ntsc>
						</rate>
						<rate>
							<timebase>60</timebase>
							<ntsc>TRUE</ntsc>
						</rate>
						<duration>6</duration>
						<start>5568</start>
						<end>5574</end>
						<in>0</in>
						<out>6</out>
					</clipitem>
					<clipitem frameBlend="FALSE" id="clipitem-telop-466">
						<file id="file-2"/>
						<name>テロップ466</name>
						<rate>
							<timebase>60</timebase>
							<ntsc>TRUE</ntsc>
						</rate>
						<rate>
							<timebase>60</timebase>
							<ntsc>TRUE</ntsc>
						</rate>
						<duration>6</duration>
						<start>5580</start>
						<end>5586</end>
						<in>0</in>
						<out>6</out>
					</clipitem>
					<clipitem frameBlend="FALSE" id="clipitem-telop-467">
						<file id="file-2"/>
						<name>テロップ467</name>
						<rate>
							<timebase>60</timebase>
							<ntsc>TRUE</ntsc>
						</rate>
						<rate>
							<timebase>60</timebase>
							<ntsc>TRUE</ntsc>
						</rate>
						<duration>6</duration>
						<start>5592</start>
						<end>5598</end>
						<in>0</in>
						<out>6</out>
					</clipitem>
					<clipitem frameBlend="FALSE" id="clipitem-telop-468">
						<file id="file-2"/>
						<name>テロップ468</name>
						<rate>
							<timebase>60</timebase>
							<ntsc>TRUE</ntsc>
						</rate>
						<rate>
							<timebase>60</timebase>
							<ntsc>TRUE</ntsc>
						</rate>
						<duration>6</duration>
						<start>5604</start>
						<end>5610</end>
						<in>0</in>
						<out>6</out>
					</clipitem>
					<clipitem frameBlend="FALSE" id="clipitem-telop-469">
						<file id="file-2"/>
						<name>テロップ469</name>
						<rate>
							<timebase>60</timebase>
							<ntsc>TRUE</ntsc>
						</rate>
						<rate>
							<timebase>60</timebase>
							<ntsc>TRUE</ntsc>
						</rate>
						<duration>6</duration>
						<start>5616</start>
						<end>5622</end>
						<in>0</in>
						<out>6</out>
					</clipitem>
					<clipitem frameBlend="FALSE" id="clipitem-telop-470">
						<file id="file-2"/>
						<name>テロップ470</name>
						<rate>
							<timebase>60</timebase>
							<ntsc>TRUE</ntsc>
						</rate>
						<rate>
							<timebase>60</timebase>
							<ntsc>TRUE</ntsc>
						</rate>
						<duration>6</duration>
						<start>5628</start>
						<end>5634</end>
						<in>0</in>
						<out>6</out>
					</clipitem>
					<clipitem frameBlend="FALSE" id="clipitem-telop-471">
						<file id="file-2"/>
						<name>テロップ471</name>
						<rate>
							<timebase>60</timebase>
							<ntsc>TRUE</ntsc>
						</rate>
						<rate>
							<timebase>60</timebase>
							<ntsc>TRUE</ntsc>
						</rate>
						<duration>6</duration>
						<start>5640</start>
						<end>5646</end>
						<in>0</in>
						<out>6</out>
					</clipitem>
					<clipitem frameBlend="FALSE" id="clipitem-telop-472">
						<file id="file-2"/>
						<name>テロップ472</name>
						<rate>
							<timebase>60</timebase>
							<ntsc>TRUE</ntsc>
						</rate>
						<rate>
							<timebase>60</timebase>
							<ntsc>TRUE</ntsc>
						</rate>
						<duration>6</duration>
						<start>5652</start>
						<end>5658</end>
						<in>0</in>
						<out>6</out>
					</clipitem>
					<clipitem frameBlend="FALSE" id="clipitem-telop-473">
						<file id="file-2"/>
						<name>テロップ473</name>
						<rate>
							<timebase>60</timebase>
							<ntsc>TRUE</ntsc>
						</rate>
						<rate>
							<timebase>60</timebase>
							<ntsc>TRUE</ntsc>
						</rate>
						<duration>6</duration>
						<start>5664</start>
						<end>5670</end>
						<in>0</in>
						<out>6</out>
					</clipitem>
					<clipitem frameBlend="FALSE" id="clipitem-telop-474">
						<file id="file-2"/>
						<name>テロップ474</name>
						<rate>
							<timebase>60</timebase>
							<ntsc>TRUE</ntsc>
						</rate>
						<rate>
							<timebase>60</timebase>
							<ntsc>TRUE</ntsc>
						</rate>
						<duration>6</duration>
						<start>5676</start>
						<end>5682</end>
						<in>0</in>
						<out>6</out>
					</clipitem>
					<clipitem frameBlend="FALSE" id="clipitem-telop-475">
						<file id="file-2"/>
						<name>テロップ475</name>
						<rate>
							<timebase>60</timebase>
							<ntsc>TRUE</ntsc>
						</rate>
						<rate>
							<timebase>60</timebase>
							<ntsc>TRUE</ntsc>
						</rate>
						<duration>6</duration>
						<start>5688</start>
						<end>5694</end>
						<in>0</in>
						<out>6</out>
					</clipitem>
					<clipitem frameBlend="FALSE" id="clipitem-telop-476">
						<file id="file-2"/>
						<name>テロップ476</name>
						<rate>
							<timebase>60</timebase>
							<ntsc>TRUE</ntsc>
						</rate>
						<rate>
							<timebase>60</timebase>
							<ntsc>TRUE</ntsc>
						</rate>
						<duration>6</duration>
						<start>5700</start>
						<end>5706</end>
						<in>0</in>
						<out>6</out>
					</clipitem>
					<clipitem frameBlend="FALSE" id="clipitem-telop-477">
						<file id="file-2"/>
						<name>テロップ477</name>
						<rate>
							<timebase>60</timebase>
							<ntsc>TRUE</ntsc>
						</rate>
						<rate>
							<timebase>60</timebase>
							<ntsc>TRUE</ntsc>
						</rate>
						<duration>6</duration>
						<start>5712</start>
						<end>5718</end>
						<in>0</in>
						<out>6</out>
					</clipitem>
					<clipitem frameBlend="FALSE" id="clipitem-telop-478">
						<file id="file-2"/>
						<name>テロップ478</name>
						<rate>
							<timebase>60</timebase>
							<ntsc>TRUE</ntsc>
						</rate>
						<rate>
							<timebase>60</timebase>
							<ntsc>TRUE</ntsc>
						</rate>
						<duration>6</duration>
						<start>5724</start>
						<end>5730</end>
						<in>0</in>
						<out>6</out>
					</clipitem>
					<clipitem frameBlend="FALSE" id="clipitem-telop-479">
						<file id="file-2"/>
						<name>テロップ479</name>
						<rate>
							<timebase>60</timebase>
							<ntsc>TRUE</ntsc>
						</rate>
						<rate>
							<timebase>60</timebase>
							<ntsc>TRUE</ntsc>
						</rate>
						<duration>6</duration>
						<start>5736</start>
						<end>5742</end>
						<in>0</in>
						<out>6</out>
					</clipitem>
					<clipitem frameBlend="FALSE" id="clipitem-telop-480">
						<file id="file-2"/>
						<name>テロップ480</name>
						<rate>
							<timebase>60</timebase>
							<ntsc>TRUE</ntsc>
						</rate>
						<rate>
							<timebase>60</timebase>
							<ntsc>TRUE</ntsc>
						</rate>
						<duration>6</duration>
						<start>5748</start>
						<end>5754</end>
						<in>0</in>
						<out>6</out>
					</clipitem>
					<clipitem frameBlend="FALSE" id="clipitem-telop-481">
						<file id="file-2"/>
						<name>テロップ481</name>
						<rate>
							<timebase>60</timebase>
							<ntsc>TRUE</ntsc>
						</rate>
						<rate>
							<timebase>60</timebase>
							<ntsc>TRUE</ntsc>
						</rate>
						<duration>6</duration>
						<start>5760</start>
						<end>5766</end>
						<in>0</in>
						<out>6</out>
					</clipitem>
					<clipitem frameBlend="FALSE" id="clipitem-telop-482">
						<file id="file-2"/>
						<name>テロップ482</name>
						<rate>
							<timebase>60</timebase>
							<ntsc>TRUE</ntsc>
						</rate>
						<rate>
							<timebase>60</timebase>
							<ntsc>TRUE</ntsc>
						</rate>
						<duration>6</duration>
						<start>5772</start>
						<end>5778</end>
						<in>0</in>
						<out>6</out>
					</clipitem>
					<clipitem frameBlend="FALSE" id="clipitem-telop-483">
						<file id="file-2"/>
						<name>テロップ483</name>
						<rate>
							<timebase>60</timebase>
							<ntsc>TRUE</ntsc>
						</rate>
						<rate>
							<timebase>60</timebase>
							<ntsc>TRUE</ntsc>
						</rate>
						<duration>6</duration>
						<start>5784</start>
						<end>5790</end>
						<in>0</in>
						<out>6</out>
					</clipitem>
					<clipitem frameBlend="FALSE" id="clipitem-telop-484">
						<file id="file-2"/>
						<name>テロップ484</name>
						<rate>
							<timebase>60</timebase>
							<ntsc>TRUE</ntsc>
						</rate>
						<rate>
							<timebase>60</timebase>
							<ntsc>TRUE</ntsc>
						</rate>
						<duration>6</duration>
						<start>5796</start>
						<end>5802</end>
						<in>0</in>
						<out>6</out>
					</clipitem>
					<clipitem frameBlend="FALSE" id="clipitem-telop-485">
						<file id="file-2"/>
						<name>テロップ485</name>
						<rate>
							<timebase>60</timebase>
							<ntsc>TRUE</ntsc>
						</rate>
						<rate>
							<timebase>60</timebase>
							<ntsc>TRUE</ntsc>
						</rate>
						<duration>6</duration>
						<start>5808</start>
						<end>5814</end>
						<in>0</in>
						<out>6</out>
					</clipitem>
					<clipitem frameBlend="FALSE" id="clipitem-telop-486">
						<file id="file-2"/>
						<name>テロップ486</name>
						<rate>
							<timebase>60</timebase>
							<ntsc>TRUE</ntsc>
						</rate>
						<rate>
							<timebase>60</timebase>
							<ntsc>TRUE</ntsc>
						</rate>
						<duration>6</duration>
						<start>5820</start>
						<end>5826</end>
						<in>0</in>
						<out>6</out>
					</clipitem>
					<clipitem frameBlend="FALSE" id="clipitem-telop-487">
						<file id="file-2"/>
						<name>テロップ487</name>
						<rate>
							<timebase>60</timebase>
							<ntsc>TRUE</ntsc>
						</rate>
						<rate>
							<timebase>60</timebase>
							<ntsc>TRUE</ntsc>
						</rate>
						<duration>6</duration>
						<start>5832</start>
						<end>5838</end>
						<in>0</in>
						<out>6</out>
					</clipitem>
					<clipitem frameBlend="FALSE" id="clipitem-telop-488">
						<file id="file-2"/>
						<name>テロップ488</name>
						<rate>
							<timebase>60</timebase>
							<ntsc>TRUE</ntsc>
						</rate>
						<rate>
							<timebase>60</timebase>
							<ntsc>TRUE</ntsc>
						</rate>
						<duration>6</duration>
						<start>5844</start>
						<end>5850</end>
						<in>0</in>
						<out>6</out>
					</clipitem>
					<clipitem frameBlend="FALSE" id="clipitem-telop-489">
						<file id="file-2"/>
						<name>テロップ489</name>
						<rate>
							<timebase>60</timebase>
							<ntsc>TRUE</ntsc>
						</rate>
						<rate>
							<timebase>60</timebase>
							<ntsc>TRUE</ntsc>
						</rate>
						<duration>6</duration>
						<start>5856</start>
						<end>5862</end>
						<in>0</in>
						<out>6</out>
					</clipitem>
					<clipitem frameBlend="FALSE" id="clipitem-telop-490">
						<file id="file-2"/>
						<name>テロップ490</name>
						<rate>
							<timebase>60</timebase>
							<ntsc>TRUE</ntsc>
						</rate>
						<rate>
							<timebase>60</timebase>
							<ntsc>TRUE</ntsc>
						</rate>
						<duration>6</duration>
						<start>5868</start>
						<end>5874</end>
						<in>0</in>
						<out>6</out>
					</clipitem>
					<clipitem frameBlend="FALSE" id="clipitem-telop-491">
						<file id="file-2"/>
						<name>テロップ491</name>
						<rate>
							<timebase>60</timebase>
							<ntsc>TRUE</ntsc>
						</rate>
						<rate>
							<timebase>60</timebase>
							<ntsc>TRUE</ntsc>
						</rate>
						<duration>6</duration>
						<start>5880</start>
						<end>5886</end>
						<in>0</in>
						<out>6</out>
					</clipitem>
					<clipitem frameBlend="FALSE" id="clipitem-telop-492">
						<file id="file-2"/>
						<name>テロップ492</name>
						<rate>
							<timebase>60</timebase>
							<ntsc>TRUE</ntsc>
						</rate>
						<rate>
							<timebase>60</timebase>
							<ntsc>TRUE</ntsc>
						</rate>
						<duration>6</duration>
						<start>5892</start>
						<end>5898</end>
						<in>0</in>
						<out>6</out>
					</clipitem>
					<clipitem frameBlend="FALSE" id="clipitem-telop-493">
						<file id="file-2"/>
						<name>テロップ493</name>
						<rate>
							<timebase>60</timebase>
							<ntsc>TRUE</ntsc>
						</rate>
						<rate>
							<timebase>60</timebase>
							<ntsc>TRUE</ntsc>
						</rate>
						<duration>6</duration>
						<start>5904</start>
						<end>5910</end>
						<in>0</in>
						<out>6</out>
					</clipitem>
					<clipitem frameBlend="FALSE" id="clipitem-telop-494">
						<file id="file-2"/>
						<name>テロップ494</name>
						<rate>
							<timebase>60</timebase>
							<ntsc>TRUE</ntsc>
						</rate>
						<rate>
							<timebase>60</timebase>
							<ntsc>TRUE</ntsc>
						</rate>
						<duration>6</duration>
						<start>5916</start>
						<end>5922</end>
						<in>0</in>
						<out>6</out>
					</clipitem>
					<clipitem frameBlend="FALSE" id="clipitem-telop-495">
						<file id="file-2"/>
						<name>テロップ495</name>
						<rate>
							<timebase>60</timebase>
							<ntsc>TRUE</ntsc>
						</rate>
						<rate>
							<timebase>60</timebase>
							<ntsc>TRUE</ntsc>
						</rate>
						<duration>6</duration>
						<start>5928</start>
						<end>5934</end>
						<in>0</in>
						<out>6</out>
					</clipitem>
					<clipitem frameBlend="FALSE" id="clipitem-telop-496">
						<file id="file-2"/>
						<name>テロップ496</name>
						<rate>
							<timebase>60</timebase>
							<ntsc>TRUE</ntsc>
						</rate>
						<rate>
							<timebase>60</timebase>
							<ntsc>TRUE</ntsc>
						</rate>
						<duration>6</duration>
						<start>5940</start>
						<end>5946</end>
						<in>0</in>
						<out>6</out>
					</clipitem>
					<clipitem frameBlend="FALSE" id="clipitem-telop-497">
						<file id="file-2"/>
						<name>テロップ497</name>
						<rate>
							<timebase>60</timebase>
							<ntsc>TRUE</ntsc>
						</rate>
						<rate>
							<timebase>60</timebase>
							<ntsc>TRUE</ntsc>
						</rate>
						<duration>6</duration>
						<start>5952</start>
						<end>5958</end>
						<in>0</in>
						<out>6</out>
					</clipitem>
					<clipitem frameBlend="FALSE" id="clipitem-telop-498">
						<file id="file-2"/>
						<name>テロップ498</name>
						<rate>
							<timebase>60</timebase>
							<ntsc>TRUE</ntsc>
						</rate>
						<rate>
							<timebase>60</timebase>
							<ntsc>TRUE</ntsc>
						</rate>
						<duration>6</duration>
						<start>5964</start>
						<end>5970</end>
						<in>0</in>
						<out>6</out>
					</clipitem>
					<clipitem frameBlend="FALSE" id="clipitem-telop-499">
						<file id="file-2"/>
						<name>テロップ499</name>
						<rate>
							<timebase>60</timebase>
							<ntsc>TRUE</ntsc>
						</rate>
						<rate>
							<timebase>60</timebase>
							<ntsc>TRUE</ntsc>
						</rate>
						<duration>6</duration>
						<start>5976</start>
						<end>5982</end>
						<in>0</in>
						<out>6</out>
					</clipitem>
					<clipitem frameBlend="FALSE" id="clipitem-telop-500">
						<file id="file-2"/>
						<name>テロップ500</name>
						<rate>
							<timebase>60</timebase>
							<ntsc>TRUE</ntsc>
						</rate>
						<rate>
							<timebase>60</timebase>
							<ntsc>TRUE</ntsc>
						</rate>
						<duration>6</duration>
						<start>5988</start>
						<end>5994</end>
						<in>0</in>
						<out>6</out>
					</clipitem>
					<clipitem frameBlend="FALSE" id="clipitem-telop-501">
						<file id="file-2"/>
						<name>テロップ501</name>
						<rate>
							<timebase>60</timebase>
							<ntsc>TRUE</ntsc>
						</rate>
						<rate>
							<timebase>60</timebase>
							<ntsc>TRUE</ntsc>
						</rate>
						<duration>6</duration>
						<start>6000</start>
						<end>6006</end>
						<in>0</in>
						<out>6</out>
					</clipitem>
					<clipitem frameBlend="FALSE" id="clipitem-telop-502">
						<file id="file-2"/>
						<name>テロップ502</name>
						<rate>
							<timebase>60</timebase>
							<ntsc>TRUE</ntsc>
						</rate>
						<rate>
							<timebase>60</timebase>
							<ntsc>TRUE</ntsc>
						</rate>
						<duration>6</duration>
						<start>6012</start>
						<end>6018</end>
						<in>0</in>
						<out>6</out>
					</clipitem>
					<clipitem frameBlend="FALSE" id="clipitem-telop-503">
						<file id="file-2"/>
						<name>テロップ503</name>
						<rate>
							<timebase>60</timebase>
							<ntsc>TRUE</ntsc>
						</rate>
						<rate>
							<timebase>60</timebase>
							<ntsc>TRUE</ntsc>
						</rate>
						<duration>6</duration>
						<start>6024</start>
						<end>6030</end>
						<in>0</in>
						<out>6</out>
					</clipitem>
					<clipitem frameBlend="FALSE" id="clipitem-telop-504">
						<file id="file-2"/>
						<name>テロップ504</name>
						<rate>
							<timebase>60</timebase>
							<ntsc>TRUE</ntsc>
						</rate>
						<rate>
							<timebase>60</timebase>
							<ntsc>TRUE</ntsc>
						</rate>
						<duration>6</duration>
						<start>6036</start>
						<end>6042</end>
						<in>0</in>
						<out>6</out>
					</clipitem>
					<clipitem frameBlend="FALSE" id="clipitem-telop-505">
						<file id="file-2"/>
						<name>テロップ505</name>
						<rate>
							<timebase>60</timebase>
							<ntsc>TRUE</ntsc>
						</rate>
						<rate>
							<timebase>60</timebase>
							<ntsc>TRUE</ntsc>
						</rate>
						<duration>6</duration>
						<start>6048</start>
						<end>6054</end>
						<in>0</in>
						<out>6</out>
					</clipitem>
					<clipitem frameBlend="FALSE" id="clipitem-telop-506">
						<file id="file-2"/>
						<name>テロップ506</name>
						<rate>
							<timebase>60</timebase>
							<ntsc>TRUE</ntsc>
						</rate>
						<rate>
							<timebase>60</timebase>
							<ntsc>TRUE</ntsc>
						</rate>
						<duration>6</duration>
						<start>6060</start>
						<end>6066</end>
						<in>0</in>
						<out>6</out>
					</clipitem>
					<clipitem frameBlend="FALSE" id="clipitem-telop-507">
						<file id="file-2"/>
						<name>テロップ507</name>
						<rate>
							<timebase>60</timebase>
							<ntsc>TRUE</ntsc>
						</rate>
						<rate>
							<timebase>60</timebase>
							<ntsc>TRUE</ntsc>
						</rate>
						<duration>6</duration>
						<start>6072</start>
						<end>6078</end>
						<in>0</in>
						<out>6</out>
					</clipitem>
					<clipitem frameBlend="FALSE" id="clipitem-telop-508">
						<file id="file-2"/>
						<name>テロップ508</name>
						<rate>
							<timebase>60</timebase>
							<ntsc>TRUE</ntsc>
						</rate>
						<rate>
							<timebase>60</timebase>
							<ntsc>TRUE</ntsc>
						</rate>
						<duration>6</duration>
						<start>6084</start>
						<end>6090</end>
						<in>0</in>
						<out>6</out>
					</clipitem>
					<clipitem frameBlend="FALSE" id="clipitem-telop-509">
						<file id="file-2"/>
						<name>テロップ509</name>
						<rate>
							<timebase>60</timebase>
							<ntsc>TRUE</ntsc>
						</rate>
						<rate>
							<timebase>60</timebase>
							<ntsc>TRUE</ntsc>
						</rate>
						<duration>6</duration>
						<start>6096</start>
						<end>6102</end>
						<in>0</in>
						<out>6</out>
					</clipitem>
					<clipitem frameBlend="FALSE" id="clipitem-telop-510">
						<file id="file-2"/>
						<name>テロップ510</name>
						<rate>
							<timebase>60</timebase>
							<ntsc>TRUE</ntsc>
						</rate>
						<rate>
							<timebase>60</timebase>
							<ntsc>TRUE</ntsc>
						</rate>
						<duration>6</duration>
						<start>6108</start>
						<end>6114</end>
						<in>0</in>
						<out>6</out>
					</clipitem>
					<clipitem frameBlend="FALSE" id="clipitem-telop-511">
						<file id="file-2"/>
						<name>テロップ511</name>
						<rate>
							<timebase>60</timebase>
							<ntsc>TRUE</ntsc>
						</rate>
						<rate>
							<timebase>60</timebase>
							<ntsc>TRUE</ntsc>
						</rate>
						<duration>6</duration>
						<start>6120</start>
						<end>6126</end>
						<in>0</in>
						<out>6</out>
					</clipitem>
					<clipitem frameBlend="FALSE" id="clipitem-telop-512">
						<file id="file-2"/>
						<name>テロップ512</name>
						<rate>
							<timebase>60</timebase>
							<ntsc>TRUE</ntsc>
						</rate>
						<rate>
							<timebase>60</timebase>
							<ntsc>TRUE</ntsc>
						</rate>
						<duration>6</duration>
						<start>6132</start>
						<end>6138</end>
						<in>0</in>
						<out>6</out>
					</clipitem>
					<clipitem frameBlend="FALSE" id="clipitem-telop-513">
						<file id="file-2"/>
						<name>テロップ513</name>
						<rate>
							<timebase>60</timebase>
							<ntsc>TRUE</ntsc>
						</rate>
						<rate>
							<timebase>60</timebase>
							<ntsc>TRUE</ntsc>
						</rate>
						<duration>6</duration>
						<start>6144</start>
						<end>6150</end>
						<in>0</in>
						<out>6</out>
					</clipitem>
					<clipitem frameBlend="FALSE" id="clipitem-telop-514">
						<file id="file-2"/>
						<name>テロップ514</name>
						<rate>
							<timebase>60</timebase>
							<ntsc>TRUE</ntsc>
						</rate>
						<rate>
							<timebase>60</timebase>
							<ntsc>TRUE</ntsc>
						</rate>
						<duration>6</duration>
						<start>6156</start>
						<end>6162</end>
						<in>0</in>
						<out>6</out>
					</clipitem>
					<clipitem frameBlend="FALSE" id="clipitem-telop-515">
						<file id="file-2"/>
						<name>テロップ515</name>
						<rate>
							<timebase>60</timebase>
							<ntsc>TRUE</ntsc>
						</rate>
						<rate>
							<timebase>60</timebase>
							<ntsc>TRUE</ntsc>
						</rate>
						<duration>6</duration>
						<start>6168</start>
						<end>6174</end>
						<in>0</in>
						<out>6</out>
					</clipitem>
					<clipitem frameBlend="FALSE" id="clipitem-telop-516">
						<file id="file-2"/>
						<name>テロップ516</name>
						<rate>
							<timebase>60</timebase>
							<ntsc>TRUE</ntsc>
						</rate>
						<rate>
							<timebase>60</timebase>
							<ntsc>TRUE</ntsc>
						</rate>
						<duration>6</duration>
						<start>6180</start>
						<end>6186</end>
						<in>0</in>
						<out>6</out>
					</clipitem>
					<clipitem frameBlend="FALSE" id="clipitem-telop-517">
						<file id="file-2"/>
						<name>テロップ517</name>
						<rate>
							<timebase>60</timebase>
							<ntsc>TRUE</ntsc>
						</rate>
						<rate>
							<timebase>60</timebase>
							<ntsc>TRUE</ntsc>
						</rate>
						<duration>6</duration>
						<start>6192</start>
						<end>6198</end>
						<in>0</in>
						<out>6</out>
					</clipitem>
					<clipitem frameBlend="FALSE" id="clipitem-telop-518">
						<file id="file-2"/>
						<name>テロップ518</name>
						<rate>
							<timebase>60</timebase>
							<ntsc>TRUE</ntsc>
						</rate>
						<rate>
							<timebase>60</timebase>
							<ntsc>TRUE</ntsc>
						</rate>
						<duration>6</duration>
						<start>6204</start>
						<end>6210</end>
						<in>0</in>
						<out>6</out>
					</clipitem>
					<clipitem frameBlend="FALSE" id="clipitem-telop-519">
						<file id="file-2"/>
						<name>テロップ519</name>
						<rate>
							<timebase>60</timebase>
							<ntsc>TRUE</ntsc>
						</rate>
						<rate>
							<timebase>60</timebase>
							<ntsc>TRUE</ntsc>
						</rate>
						<duration>6</duration>
						<start>6216</start>
						<end>6222</end>
						<in>0</in>
						<out>6</out>
					</clipitem>
					<clipitem frameBlend="FALSE" id="clipitem-telop-520">
						<file id="file-2"/>
						<name>テロップ520</name>
						<rate>
							<timebase>60</timebase>
							<ntsc>TRUE</ntsc>
						</rate>
						<rate>
							<timebase>60</timebase>
							<ntsc>TRUE</ntsc>
						</rate>
						<duration>6</duration>
						<start>6228</start>
						<end>6234</end>
						<in>0</in>
						<out>6</out>
					</clipitem>
					<clipitem frameBlend="FALSE" id="clipitem-telop-521">
						<file id="file-2"/>
						<name>テロップ521</name>
						<rate>
							<timebase>60</timebase>
							<ntsc>TRUE</ntsc>
						</rate>
						<rate>
							<timebase>60</timebase>
							<ntsc>TRUE</ntsc>
						</rate>
						<duration>6</duration>
						<start>6240</start>
						<end>6246</end>
						<in>0</in>
						<out>6</out>
					</clipitem>
					<clipitem frameBlend="FALSE" id="clipitem-telop-522">
						<file id="file-2"/>
						<name>テロップ522</name>
						<rate>
							<timebase>60</timebase>
							<ntsc>TRUE</ntsc>
						</rate>
						<rate>
							<timebase>60</timebase>
							<ntsc>TRUE</ntsc>
						</rate>
						<duration>6</duration>
						<start>6252</start>
						<end>6258</end>
						<in>0</in>
						<out>6</out>
					</clipitem>
					<clipitem frameBlend="FALSE" id="clipitem-telop-523">
						<file id="file-2"/>
						<name>テロップ523</name>
						<rate>
							<timebase>60</timebase>
							<ntsc>TRUE</ntsc>
						</rate>
						<rate>
							<timebase>60</timebase>
							<ntsc>TRUE</ntsc>
						</rate>
						<duration>6</duration>
						<start>6264</start>
						<end>6270</end>
						<in>0</in>
						<out>6</out>
					</clipitem>
					<clipitem frameBlend="FALSE" id="clipitem-telop-524">
						<file id="file-2"/>
						<name>テロップ524</name>
						<rate>
							<timebase>60</timebase>
							<ntsc>TRUE</ntsc>
						</rate>
						<rate>
							<timebase>60</timebase>
							<ntsc>TRUE</ntsc>
						</rate>
						<duration>6</duration>
						<start>6276</start>
						<end>6282</end>
						<in>0</in>
						<out>6</out>
					</clipitem>
					<clipitem frameBlend="FALSE" id="clipitem-telop-525">
						<file id="file-2"/>
						<name>テロップ525</name>
						<rate>
							<timebase>60</timebase>
							<ntsc>TRUE</ntsc>
						</rate>
						<rate>
							<timebase>60</timebase>
							<ntsc>TRUE</ntsc>
						</rate>
						<duration>6</duration>
						<start>6288</start>
						<end>6294</end>
						<in>0</in>
						<out>6</out>
					</clipitem>
					<clipitem frameBlend="FALSE" id="clipitem-telop-526">
						<file id="file-2"/>
						<name>テロップ526</name>
						<rate>
							<timebase>60</timebase>
							<ntsc>TRUE</ntsc>
						</rate>
						<rate>
							<timebase>60</timebase>
							<ntsc>TRUE</ntsc>
						</rate>
						<duration>6</duration>
						<start>6300</start>
						<end>6306</end>
						<in>0</in>
						<out>6</out>
					</clipitem>
					<clipitem frameBlend="FALSE" id="clipitem-telop-527">
						<file id="file-2"/>
						<name>テロップ527</name>
						<rate>
							<timebase>60</timebase>
							<ntsc>TRUE</ntsc>
						</rate>
						<rate>
							<timebase>60</timebase>
							<ntsc>TRUE</ntsc>
						</rate>
						<duration>6</duration>
						<start>6312</start>
						<end>6318</end>
						<in>0</in>
						<out>6</out>
					</clipitem>
					<clipitem frameBlend="FALSE" id="clipitem-telop-528">
						<file id="file-2"/>
						<name>テロップ528</name>
						<rate>
							<timebase>60</timebase>
							<ntsc>TRUE</ntsc>
						</rate>
						<rate>
							<timebase>60</timebase>
							<ntsc>TRUE</ntsc>
						</rate>
						<duration>6</duration>
						<start>6324</start>
						<end>6330</end>
						<in>0</in>
						<out>6</out>
					</clipitem>
					<clipitem frameBlend="FALSE" id="clipitem-telop-529">
						<file id="file-2"/>
						<name>テロップ529</name>
						<rate>
							<timebase>60</timebase>
							<ntsc>TRUE</ntsc>
						</rate>
						<rate>
							<timebase>60</timebase>
							<ntsc>TRUE</ntsc>
						</rate>
						<duration>6</duration>
						<start>6336</start>
						<end>6342</end>
						<in>0</in>
						<out>6</out>
					</clipitem>
					<clipitem frameBlend="FALSE" id="clipitem-telop-530">
						<file id="file-2"/>
						<name>テロップ530</name>
						<rate>
							<timebase>60</timebase>
							<ntsc>TRUE</ntsc>
						</rate>
						<rate>
							<timebase>60</timebase>
							<ntsc>TRUE</ntsc>
						</rate>
						<duration>6</duration>
						<start>6348</start>
						<end>6354</end>
						<in>0</in>
						<out>6</out>
					</clipitem>
					<clipitem frameBlend="FALSE" id="clipitem-telop-531">
						<file id="file-2"/>
						<name>テロップ531</name>
						<rate>
							<timebase>60</timebase>
							<ntsc>TRUE</ntsc>
						</rate>
						<rate>
							<timebase>60</timebase>
							<ntsc>TRUE</ntsc>
						</rate>
						<duration>6</duration>
						<start>6360</start>
						<end>6366</end>
						<in>0</in>
						<out>6</out>
					</clipitem>
					<clipitem frameBlend="FALSE" id="clipitem-telop-532">
						<file id="file-2"/>
						<name>テロップ532</name>
						<rate>
							<timebase>60</timebase>
							<ntsc>TRUE</ntsc>
						</rate>
						<rate>
							<timebase>60</timebase>
							<ntsc>TRUE</ntsc>
						</rate>
						<duration>6</duration>
						<start>6372</start>
						<end>6378</end>
						<in>0</in>
						<out>6</out>
					</clipitem>
					<clipitem frameBlend="FALSE" id="clipitem-telop-533">
						<file id="file-2"/>
						<name>テロップ533</name>
						<rate>
							<timebase>60</timebase>
							<ntsc>TRUE</ntsc>
						</rate>
						<rate>
							<timebase>60</timebase>
							<ntsc>TRUE</ntsc>
						</rate>
						<duration>6</duration>
						<start>6384</start>
						<end>6390</end>
						<in>0</in>
						<out>6</out>
					</clipitem>
					<clipitem frameBlend="FALSE" id="clipitem-telop-534">
						<file id="file-2"/>
						<name>テロップ534</name>
						<rate>
							<timebase>60</timebase>
							<ntsc>TRUE</ntsc>
						</rate>
						<rate>
							<timebase>60</timebase>
							<ntsc>TRUE</ntsc>
						</rate>
						<duration>6</duration>
						<start>6396</start>
						<end>6402</end>
						<in>0</in>
						<out>6</out>
					</clipitem>
					<clipitem frameBlend="FALSE" id="clipitem-telop-535">
						<file id="file-2"/>
						<name>テロップ535</name>
						<rate>
							<timebase>60</timebase>
							<ntsc>TRUE</ntsc>
						</rate>
						<rate>
							<timebase>60</timebase>
							<ntsc>TRUE</ntsc>
						</rate>
						<duration>6</duration>
						<start>6408</start>
						<end>6414</end>
						<in>0</in>
						<out>6</out>
					</clipitem>
					<clipitem frameBlend="FALSE" id="clipitem-telop-536">
						<file id="file-2"/>
						<name>テロップ536</name>
						<rate>
							<timebase>60</timebase>
							<ntsc>TRUE</ntsc>
						</rate>
						<rate>
							<timebase>60</timebase>
							<ntsc>TRUE</ntsc>
						</rate>
						<duration>6</duration>
						<start>6420</start>
						<end>6426</end>
						<in>0</in>
						<out>6</out>
					</clipitem>
					<clipitem frameBlend="FALSE" id="clipitem-telop-537">
						<file id="file-2"/>
						<name>テロップ537</name>
						<rate>
							<timebase>60</timebase>
							<ntsc>TRUE</ntsc>
						</rate>
						<rate>
							<timebase>60</timebase>
							<ntsc>TRUE</ntsc>
						</rate>
						<duration>6</duration>
						<start>6432</start>
						<end>6438</end>
						<in>0</in>
						<out>6</out>
					</clipitem>
					<clipitem frameBlend="FALSE" id="clipitem-telop-538">
						<file id="file-2"/>
						<name>テロップ538</name>
						<rate>
							<timebase>60</timebase>
							<ntsc>TRUE</ntsc>
						</rate>
						<rate>
							<timebase>60</timebase>
							<ntsc>TRUE</ntsc>
						</rate>
						<duration>6</duration>
						<start>6444</start>
						<end>6450</end>
						<in>0</in>
						<out>6</out>
					</clipitem>
					<clipitem frameBlend="FALSE" id="clipitem-telop-539">
						<file id="file-2"/>
						<name>テロップ539</name>
						<rate>
							<timebase>60</timebase>
							<ntsc>TRUE</ntsc>
						</rate>
						<rate>
							<timebase>60</timebase>
							<ntsc>TRUE</ntsc>
						</rate>
						<duration>6</duration>
						<start>6456</start>
						<end>6462</end>
						<in>0</in>
						<out>6</out>
					</clipitem>
					<clipitem frameBlend="FALSE" id="clipitem-telop-540">
						<file id="file-2"/>
						<name>テロップ540</name>
						<rate>
							<timebase>60</timebase>
							<ntsc>TRUE</ntsc>
						</rate>
						<rate>
							<timebase>60</timebase>
							<ntsc>TRUE</ntsc>
						</rate>
						<duration>6</duration>
						<start>6468</start>
						<end>6474</end>
						<in>0</in>
						<out>6</out>
					</clipitem>
					<clipitem frameBlend="FALSE" id="clipitem-telop-541">
						<file id="file-2"/>
						<name>テロップ541</name>
						<rate>
							<timebase>60</timebase>
							<ntsc>TRUE</ntsc>
						</rate>
						<rate>
							<timebase>60</timebase>
							<ntsc>TRUE</ntsc>
						</rate>
						<duration>6</duration>
						<start>6480</start>
						<end>6486</end>
						<in>0</in>
						<out>6</out>
					</clipitem>
					<clipitem frameBlend="FALSE" id="clipitem-telop-542">
						<file id="file-2"/>
						<name>テロップ542</name>
						<rate>
							<timebase>60</timebase>
							<ntsc>TRUE</ntsc>
						</rate>
						<rate>
							<timebase>60</timebase>
							<ntsc>TRUE</ntsc>
						</rate>
						<duration>6</duration>
						<start>6492</start>
						<end>6498</end>
						<in>0</in>
						<out>6</out>
					</clipitem>
					<clipitem frameBlend="FALSE" id="clipitem-telop-543">
						<file id="file-2"/>
						<name>テロップ543</name>
						<rate>
							<timebase>60</timebase>
							<ntsc>TRUE</ntsc>
						</rate>
						<rate>
							<timebase>60</timebase>
							<ntsc>TRUE</ntsc>
						</rate>
						<duration>6</duration>
						<start>6504</start>
						<end>6510</end>
						<in>0</in>
						<out>6</out>
					</clipitem>
					<clipitem frameBlend="FALSE" id="clipitem-telop-544">
						<file id="file-2"/>
						<name>テロップ544</name>
						<rate>
							<timebase>60</timebase>
							<ntsc>TRUE</ntsc>
						</rate>
						<rate>
							<timebase>60</timebase>
							<ntsc>TRUE</ntsc>
						</rate>
						<duration>6</duration>
						<start>6516</start>
						<end>6522</end>
						<in>0</in>
						<out>6</out>
					</clipitem>
					<clipitem frameBlend="FALSE" id="clipitem-telop-545">
						<file id="file-2"/>
						<name>テロップ545</name>
						<rate>
							<timebase>60</timebase>
							<ntsc>TRUE</ntsc>
						</rate>
						<rate>
							<timebase>60</timebase>
							<ntsc>TRUE</ntsc>
						</rate>
						<duration>6</duration>
						<start>6528</start>
						<end>6534</end>
						<in>0</in>
						<out>6</out>
					</clipitem>
					<clipitem frameBlend="FALSE" id="clipitem-telop-546">
						<file id="file-2"/>
						<name>テロップ546</name>
						<rate>
							<timebase>60</timebase>
							<ntsc>TRUE</ntsc>
						</rate>
						<rate>
							<timebase>60</timebase>
							<ntsc>TRUE</ntsc>
						</rate>
						<duration>6</duration>
						<start>6540</start>
						<end>6546</end>
						<in>0</in>
						<out>6</out>
					</clipitem>
					<clipitem frameBlend="FALSE" id="clipitem-telop-547">
						<file id="file-2"/>
						<name>テロップ547</name>
						<rate>
							<timebase>60</timebase>
							<ntsc>TRUE</ntsc>
						</rate>
						<rate>
							<timebase>60</timebase>
							<ntsc>TRUE</ntsc>
						</rate>
						<duration>6</duration>
						<start>6552</start>
						<end>6558</end>
						<in>0</in>
						<out>6</out>
					</clipitem>
					<clipitem frameBlend="FALSE" id="clipitem-telop-548">
						<file id="file-2"/>
						<name>テロップ548</name>
						<rate>
							<timebase>60</timebase>
							<ntsc>TRUE</ntsc>
						</rate>
						<rate>
							<timebase>60</timebase>
							<ntsc>TRUE</ntsc>
						</rate>
						<duration>6</duration>
						<start>6564</start>
						<end>6570</end>
						<in>0</in>
						<out>6</out>
					</clipitem>
					<clipitem frameBlend="FALSE" id="clipitem-telop-549">
						<file id="file-2"/>
						<name>テロップ549</name>
						<rate>
							<timebase>60</timebase>
							<ntsc>TRUE</ntsc>
						</rate>
						<rate>
							<timebase>60</timebase>
							<ntsc>TRUE</ntsc>
						</rate>
						<duration>6</duration>
						<start>6576</start>
						<end>6582</end>
						<in>0</in>
						<out>6</out>
					</clipitem>
					<clipitem frameBlend="FALSE" id="clipitem-telop-550">
						<file id="file-2"/>
						<name>テロップ550</name>
						<rate>
							<timebase>60</timebase>
							<ntsc>TRUE</ntsc>
						</rate>
						<rate>
							<timebase>60</timebase>
							<ntsc>TRUE</ntsc>
						</rate>
						<duration>6</duration>
						<start>6588</start>
						<end>6594</end>
						<in>0</in>
						<out>6</out>
					</clipitem>
					<clipitem frameBlend="FALSE" id="clipitem-telop-551">
						<file id="file-2"/>
						<name>テロップ551</name>
						<rate>
							<timebase>60</timebase>
							<ntsc>TRUE</ntsc>
						</rate>
						<rate>
							<timebase>60</timebase>
							<ntsc>TRUE</ntsc>
						</rate>
						<duration>6</duration>
						<start>6600</start>
						<end>6606</end>
						<in>0</in>
						<out>6</out>
					</clipitem>
					<clipitem frameBlend="FALSE" id="clipitem-telop-552">
						<file id="file-2"/>
						<name>テロップ552</name>
						<rate>
							<timebase>60</timebase>
							<ntsc>TRUE</ntsc>
						</rate>
						<rate>
							<timebase>60</timebase>
							<ntsc>TRUE</ntsc>
						</rate>
						<duration>6</duration>
						<start>6612</start>
						<end>6618</end>
						<in>0</in>
						<out>6</out>
					</clipitem>
					<clipitem frameBlend="FALSE" id="clipitem-telop-553">
						<file id="file-2"/>
						<name>テロップ553</name>
						<rate>
							<timebase>60</timebase>
							<ntsc>TRUE</ntsc>
						</rate>
						<rate>
							<timebase>60</timebase>
							<ntsc>TRUE</ntsc>
						</rate>
						<duration>6</duration>
						<start>6624</start>
						<end>6630</end>
						<in>0</in>
						<out>6</out>
					</clipitem>
					<clipitem frameBlend="FALSE" id="clipitem-telop-554">
						<file id="file-2"/>
						<name>テロップ554</name>
						<rate>
							<timebase>60</timebase>
							<ntsc>TRUE</ntsc>
						</rate>
						<rate>
							<timebase>60</timebase>
							<ntsc>TRUE</ntsc>
						</rate>
						<duration>6</duration>
						<start>6636</start>
						<end>6642</end>
						<in>0</in>
						<out>6</out>
					</clipitem>
					<clipitem frameBlend="FALSE" id="clipitem-telop-555">
						<file id="file-2"/>
						<name>テロップ555</name>
						<rate>
							<timebase>60</timebase>
							<ntsc>TRUE</ntsc>
						</rate>
						<rate>
							<timebase>60</timebase>
							<ntsc>TRUE</ntsc>
						</rate>
						<duration>6</duration>
						<start>6648</start>
						<end>6654</end>
						<in>0</in>
						<out>6</out>
					</clipitem>
					<clipitem frameBlend="FALSE" id="clipitem-telop-556">
						<file id="file-2"/>
						<name>テロップ556</name>
						<rate>
							<timebase>60</timebase>
							<ntsc>TRUE</ntsc>
						</rate>
						<rate>
							<timebase>60</timebase>
							<ntsc>TRUE</ntsc>
						</rate>
						<duration>6</duration>
						<start>6660</start>
						<end>6666</end>
						<in>0</in>
						<out>6</out>
					</clipitem>
					<clipitem frameBlend="FALSE" id="clipitem-telop-557">
						<file id="file-2"/>
						<name>テロップ557</name>
						<rate>
							<timebase>60</timebase>
							<ntsc>TRUE</ntsc>
						</rate>
						<rate>
							<timebase>60</timebase>
							<ntsc>TRUE</ntsc>
						</rate>
						<duration>6</duration>
						<start>6672</start>
						<end>6678</end>
						<in>0</in>
						<out>6</out>
					</clipitem>
					<clipitem frameBlend="FALSE" id="clipitem-telop-558">
						<file id="file-2"/>
						<name>テロップ558</name>
						<rate>
							<timebase>60</timebase>
							<ntsc>TRUE</ntsc>
						</rate>
						<rate>
							<timebase>60</timebase>
							<ntsc>TRUE</ntsc>
						</rate>
						<duration>6</duration>
						<start>6684</start>
						<end>6690</end>
						<in>0</in>
						<out>6</out>
					</clipitem>
					<clipitem frameBlend="FALSE" id="clipitem-telop-559">
						<file id="file-2"/>
						<name>テロップ559</name>
						<rate>
							<timebase>60</timebase>
							<ntsc>TRUE</ntsc>
						</rate>
						<rate>
							<timebase>60</timebase>
							<ntsc>TRUE</ntsc>
						</rate>
						<duration>6</duration>
						<start>6696</start>
						<end>6702</end>
						<in>0</in>
						<out>6</out>
					</clipitem>
					<clipitem frameBlend="FALSE" id="clipitem-telop-560">
						<file id="file-2"/>
						<name>テロップ560</name>
						<rate>
							<timebase>60</timebase>
							<ntsc>TRUE</ntsc>
						</rate>
						<rate>
							<timebase>60</timebase>
							<ntsc>TRUE</ntsc>
						</rate>
						<duration>6</duration>
						<start>6708</start>
						<end>6714</end>
						<in>0</in>
						<out>6</out>
					</clipitem>
					<clipitem frameBlend="FALSE" id="clipitem-telop-561">
						<file id="file-2"/>
						<name>テロップ561</name>
						<rate>
							<timebase>60</timebase>
							<ntsc>TRUE</ntsc>
						</rate>
						<rate>
							<timebase>60</timebase>
							<ntsc>TRUE</ntsc>
						</rate>
						<duration>6</duration>
						<start>6720</start>
						<end>6726</end>
						<in>0</in>
						<out>6</out>
					</clipitem>
					<clipitem frameBlend="FALSE" id="clipitem-telop-562">
						<file id="file-2"/>
						<name>テロップ562</name>
						<rate>
							<timebase>60</timebase>
							<ntsc>TRUE</ntsc>
						</rate>
						<rate>
							<timebase>60</timebase>
							<ntsc>TRUE</ntsc>
						</rate>
						<duration>6</duration>
						<start>6732</start>
						<end>6738</end>
						<in>0</in>
						<out>6</out>
					</clipitem>
					<clipitem frameBlend="FALSE" id="clipitem-telop-563">
						<file id="file-2"/>
						<name>テロップ563</name>
						<rate>
							<timebase>60</timebase>
							<ntsc>TRUE</ntsc>
						</rate>
						<rate>
							<timebase>60</timebase>
							<ntsc>TRUE</ntsc>
						</rate>
						<duration>6</duration>
						<start>6744</start>
						<end>6750</end>
						<in>0</in>
						<out>6</out>
					</clipitem>
					<clipitem frameBlend="FALSE" id="clipitem-telop-564">
						<file id="file-2"/>
						<name>テロップ564</name>
						<rate>
							<timebase>60</timebase>
							<ntsc>TRUE</ntsc>
						</rate>
						<rate>
							<timebase>60</timebase>
							<ntsc>TRUE</ntsc>
						</rate>
						<duration>6</duration>
						<start>6756</start>
						<end>6762</end>
						<in>0</in>
						<out>6</out>
					</clipitem>
					<clipitem frameBlend="FALSE" id="clipitem-telop-565">
						<file id="file-2"/>
						<name>テロップ565</name>
						<rate>
							<timebase>60</timebase>
							<ntsc>TRUE</ntsc>
						</rate>
						<rate>
							<timebase>60</timebase>
							<ntsc>TRUE</ntsc>
						</rate>
						<duration>6</duration>
						<start>6768</start>
						<end>6774</end>
						<in>0</in>
						<out>6</out>
					</clipitem>
					<clipitem frameBlend="FALSE" id="clipitem-telop-566">
						<file id="file-2"/>
						<name>テロップ566</name>
						<rate>
							<timebase>60</timebase>
							<ntsc>TRUE</ntsc>
						</rate>
						<rate>
							<timebase>60</timebase>
							<ntsc>TRUE</ntsc>
						</rate>
						<duration>6</duration>
						<start>6780</start>
						<end>6786</end>
						<in>0</in>
						<out>6</out>
					</clipitem>
					<clipitem frameBlend="FALSE" id="clipitem-telop-567">
						<file id="file-2"/>
						<name>テロップ567</name>
						<rate>
							<timebase>60</timebase>
							<ntsc>TRUE</ntsc>
						</rate>
						<rate>
							<timebase>60</timebase>
							<ntsc>TRUE</ntsc>
						</rate>
						<duration>6</duration>
						<start>6792</start>
						<end>6798</end>
						<in>0</in>
						<out>6</out>
					</clipitem>
					<clipitem frameBlend="FALSE" id="clipitem-telop-568">
						<file id="file-2"/>
						<name>テロップ568</name>
						<rate>
							<timebase>60</timebase>
							<ntsc>TRUE</ntsc>
						</rate>
						<rate>
							<timebase>60</timebase>
							<ntsc>TRUE</ntsc>
						</rate>
						<duration>6</duration>
						<start>6804</start>
						<end>6810</end>
						<in>0</in>
						<out>6</out>
					</clipitem>
					<clipitem frameBlend="FALSE" id="clipitem-telop-569">
						<file id="file-2"/>
						<name>テロップ569</name>
						<rate>
							<timebase>60</timebase>
							<ntsc>TRUE</ntsc>
						</rate>
						<rate>
							<timebase>60</timebase>
							<ntsc>TRUE</ntsc>
						</rate>
						<duration>6</duration>
						<start>6816</start>
						<end>6822</end>
						<in>0</in>
						<out>6</out>
					</clipitem>
					<clipitem frameBlend="FALSE" id="clipitem-telop-570">
						<file id="file-2"/>
						<name>テロップ570</name>
						<rate>
							<timebase>60</timebase>
							<ntsc>TRUE</ntsc>
						</rate>
						<rate>
							<timebase>60</timebase>
							<ntsc>TRUE</ntsc>
						</rate>
						<duration>6</duration>
						<start>6828</start>
						<end>6834</end>
						<in>0</in>
						<out>6</out>
					</clipitem>
					<clipitem frameBlend="FALSE" id="clipitem-telop-571">
						<file id="file-2"/>
						<name>テロップ571</name>
						<rate>
							<timebase>60</timebase>
							<ntsc>TRUE</ntsc>
						</rate>
						<rate>
							<timebase>60</timebase>
							<ntsc>TRUE</ntsc>
						</rate>
						<duration>6</duration>
						<start>6840</start>
						<end>6846</end>
						<in>0</in>
						<out>6</out>
					</clipitem>
					<clipitem frameBlend="FALSE" id="clipitem-telop-572">
						<file id="file-2"/>
						<name>テロップ572</name>
						<rate>
							<timebase>60</timebase>
							<ntsc>TRUE</ntsc>
						</rate>
						<rate>
							<timebase>60</timebase>
							<ntsc>TRUE</ntsc>
						</rate>
						<duration>6</duration>
						<start>6852</start>
						<end>6858</end>
						<in>0</in>
						<out>6</out>
					</clipitem>
					<clipitem frameBlend="FALSE" id="clipitem-telop-573">
						<file id="file-2"/>
						<name>テロップ573</name>
						<rate>
							<timebase>60</timebase>
							<ntsc>TRUE</ntsc>
						</rate>
						<rate>
							<timebase>60</timebase>
							<ntsc>TRUE</ntsc>
						</rate>
						<duration>6</duration>
						<start>6864</start>
						<end>6870</end>
						<in>0</in>
						<out>6</out>
					</clipitem>
					<clipitem frameBlend="FALSE" id="clipitem-telop-574">
						<file id="file-2"/>
						<name>テロップ574</name>
						<rate>
							<timebase>60</timebase>
							<ntsc>TRUE</ntsc>
						</rate>
						<rate>
							<timebase>60</timebase>
							<ntsc>TRUE</ntsc>
						</rate>
						<duration>6</duration>
						<start>6876</start>
						<end>6882</end>
						<in>0</in>
						<out>6</out>
					</clipitem>
					<clipitem frameBlend="FALSE" id="clipitem-telop-575">
						<file id="file-2"/>
						<name>テロップ575</name>
						<rate>
							<timebase>60</timebase>
							<ntsc>TRUE</ntsc>
						</rate>
						<rate>
							<timebase>60</timebase>
							<ntsc>TRUE</ntsc>
						</rate>
						<duration>6</duration>
						<start>6888</start>
						<end>6894</end>
						<in>0</in>
						<out>6</out>
					</clipitem>
					<clipitem frameBlend="FALSE" id="clipitem-telop-576">
						<file id="file-2"/>
						<name>テロップ576</name>
						<rate>
							<timebase>60</timebase>
							<ntsc>TRUE</ntsc>
						</rate>
						<rate>
							<timebase>60</timebase>
							<ntsc>TRUE</ntsc>
						</rate>
						<duration>6</duration>
						<start>6900</start>
						<end>6906</end>
						<in>0</in>
						<out>6</out>
					</clipitem>
					<clipitem frameBlend="FALSE" id="clipitem-telop-577">
						<file id="file-2"/>
						<name>テロップ577</name>
						<rate>
							<timebase>60</timebase>
							<ntsc>TRUE</ntsc>
						</rate>
						<rate>
							<timebase>60</timebase>
							<ntsc>TRUE</ntsc>
						</rate>
						<duration>6</duration>
						<start>6912</start>
						<end>6918</end>
						<in>0</in>
						<out>6</out>
					</clipitem>
					<clipitem frameBlend="FALSE" id="clipitem-telop-578">
						<file id="file-2"/>
						<name>テロップ578</name>
						<rate>
							<timebase>60</timebase>
							<ntsc>TRUE</ntsc>
						</rate>
						<rate>
							<timebase>60</timebase>
							<ntsc>TRUE</ntsc>
						</rate>
						<duration>6</duration>
						<start>6924</start>
						<end>6930</end>
						<in>0</in>
						<out>6</out>
					</clipitem>
					<clipitem frameBlend="FALSE" id="clipitem-telop-579">
						<file id="file-2"/>
						<name>テロップ579</name>
						<rate>
							<timebase>60</timebase>
							<ntsc>TRUE</ntsc>
						</rate>
						<rate>
							<timebase>60</timebase>
							<ntsc>TRUE</ntsc>
						</rate>
						<duration>6</duration>
						<start>6936</start>
						<end>6942</end>
						<in>0</in>
						<out>6</out>
					</clipitem>
					<clipitem frameBlend="FALSE" id="clipitem-telop-580">
						<file id="file-2"/>
						<name>テロップ580</name>
						<rate>
							<timebase>60</timebase>
							<ntsc>TRUE</ntsc>
						</rate>
						<rate>
							<timebase>60</timebase>
							<ntsc>TRUE</ntsc>
						</rate>
						<duration>6</duration>
						<start>6948</start>
						<end>6954</end>
						<in>0</in>
						<out>6</out>
					</clipitem>
					<clipitem frameBlend="FALSE" id="clipitem-telop-581">
						<file id="file-2"/>
						<name>テロップ581</name>
						<rate>
							<timebase>60</timebase>
							<ntsc>TRUE</ntsc>
						</rate>
						<rate>
							<timebase>60</timebase>
							<ntsc>TRUE</ntsc>
						</rate>
						<duration>6</duration>
						<start>6960</start>
						<end>6966</end>
						<in>0</in>
						<out>6</out>
					</clipitem>
					<clipitem frameBlend="FALSE" id="clipitem-telop-582">
						<file id="file-2"/>
						<name>テロップ582</name>
						<rate>
							<timebase>60</timebase>
							<ntsc>TRUE</ntsc>
						</rate>
						<rate>
							<timebase>60</timebase>
							<ntsc>TRUE</ntsc>
						</rate>
						<duration>6</duration>
						<start>6972</start>
						<end>6978</end>
						<in>0</in>
						<out>6</out>
					</clipitem>
					<clipitem frameBlend="FALSE" id="clipitem-telop-583">
						<file id="file-2"/>
						<name>テロップ583</name>
						<rate>
							<timebase>60</timebase>
							<ntsc>TRUE</ntsc>
						</rate>
						<rate>
							<timebase>60</timebase>
							<ntsc>TRUE</ntsc>
						</rate>
						<duration>6</duration>
						<start>6984</start>
						<end>6990</end>
						<in>0</in>
						<out>6</out>
					</clipitem>
					<clipitem frameBlend="FALSE" id="clipitem-telop-584">
						<file id="file-2"/>
						<name>テロップ584</name>
						<rate>
							<timebase>60</timebase>
							<ntsc>TRUE</ntsc>
						</rate>
						<rate>
							<timebase>60</timebase>
							<ntsc>TRUE</ntsc>
						</rate>
						<duration>6</duration>
						<start>6996</start>
						<end>7002</end>
						<in>0</in>
						<out>6</out>
					</clipitem>
					<clipitem frameBlend="FALSE" id="clipitem-telop-585">
						<file id="file-2"/>
						<name>テロップ585</name>
						<rate>
							<timebase>60</timebase>
							<ntsc>TRUE</ntsc>
						</rate>
						<rate>
							<timebase>60</timebase>
							<ntsc>TRUE</ntsc>
						</rate>
						<duration>6</duration>
						<start>7008</start>
						<end>7014</end>
						<in>0</in>
						<out>6</out>
					</clipitem>
					<clipitem frameBlend="FALSE" id="clipitem-telop-586">
						<file id="file-2"/>
						<name>テロップ586</name>
						<rate>
							<timebase>60</timebase>
							<ntsc>TRUE</ntsc>
						</rate>
						<rate>
							<timebase>60</timebase>
							<ntsc>TRUE</ntsc>
						</rate>
						<duration>6</duration>
						<start>7020</start>
						<end>7026</end>
						<in>0</in>
						<out>6</out>
					</clipitem>
					<clipitem frameBlend="FALSE" id="clipitem-telop-587">
						<file id="file-2"/>
						<name>テロップ587</name>
						<rate>
							<timebase>60</timebase>
							<ntsc>TRUE</ntsc>
						</rate>
						<rate>
							<timebase>60</timebase>
							<ntsc>TRUE</ntsc>
						</rate>
						<duration>6</duration>
						<start>7032</start>
						<end>7038</end>
						<in>0</in>
						<out>6</out>
					</clipitem>
					<clipitem frameBlend="FALSE" id="clipitem-telop-588">
						<file id="file-2"/>
						<name>テロップ588</name>
						<rate>
							<timebase>60</timebase>
							<ntsc>TRUE</ntsc>
						</rate>
						<rate>
							<timebase>60</timebase>
							<ntsc>TRUE</ntsc>
						</rate>
						<duration>6</duration>
						<start>7044</start>
						<end>7050</end>
						<in>0</in>
						<out>6</out>
					</clipitem>
					<clipitem frameBlend="FALSE" id="clipitem-telop-589">
						<file id="file-2"/>
						<name>テロップ589</name>
						<rate>
							<timebase>60</timebase>
							<ntsc>TRUE</ntsc>
						</rate>
						<rate>
							<timebase>60</timebase>
							<ntsc>TRUE</ntsc>
						</rate>
						<duration>6</duration>
						<start>7056</start>
						<end>7062</end>
						<in>0</in>
						<out>6</out>
					</clipitem>
					<clipitem frameBlend="FALSE" id="clipitem-telop-590">
						<file id="file-2"/>
						<name>テロップ590</name>
						<rate>
							<timebase>60</timebase>
							<ntsc>TRUE</ntsc>
						</rate>
						<rate>
							<timebase>60</timebase>
							<ntsc>TRUE</ntsc>
						</rate>
						<duration>6</duration>
						<start>7068</start>
						<end>7074</end>
						<in>0</in>
						<out>6</out>
					</clipitem>
					<clipitem frameBlend="FALSE" id="clipitem-telop-591">
						<file id="file-2"/>
						<name>テロップ591</name>
						<rate>
							<timebase>60</timebase>
							<ntsc>TRUE</ntsc>
						</rate>
						<rate>
							<timebase>60</timebase>
							<ntsc>TRUE</ntsc>
						</rate>
						<duration>6</duration>
						<start>7080</start>
						<end>7086</end>
						<in>0</in>
						<out>6</out>
					</clipitem>
					<clipitem frameBlend="FALSE" id="clipitem-telop-592">
						<file id="file-2"/>
						<name>テロップ592</name>
						<rate>
							<timebase>60</timebase>
							<ntsc>TRUE</ntsc>
						</rate>
						<rate>
							<timebase>60</timebase>
							<ntsc>TRUE</ntsc>
						</rate>
						<duration>6</duration>
						<start>7092</start>
						<end>7098</end>
						<in>0</in>
						<out>6</out>
					</clipitem>
					<clipitem frameBlend="FALSE" id="clipitem-telop-593">
						<file id="file-2"/>
						<name>テロップ593</name>
						<rate>
							<timebase>60</timebase>
							<ntsc>TRUE</ntsc>
						</rate>
						<rate>
							<timebase>60</timebase>
							<ntsc>TRUE</ntsc>
						</rate>
						<duration>6</duration>
						<start>7104</start>
						<end>7110</end>
						<in>0</in>
						<out>6</out>
					</clipitem>
					<clipitem frameBlend="FALSE" id="clipitem-telop-594">
						<file id="file-2"/>
						<name>テロップ594</name>
						<rate>
							<timebase>60</timebase>
							<ntsc>TRUE</ntsc>
						</rate>
						<rate>
							<timebase>60</timebase>
							<ntsc>TRUE</ntsc>
						</rate>
						<duration>6</duration>
						<start>7116</start>
						<end>7122</end>
						<in>0</in>
						<out>6</out>
					</clipitem>
					<clipitem frameBlend="FALSE" id="clipitem-telop-595">
						<file id="file-2"/>
						<name>テロップ595</name>
						<rate>
							<timebase>60</timebase>
							<ntsc>TRUE</ntsc>
						</rate>
						<rate>
							<timebase>60</timebase>
							<ntsc>TRUE</ntsc>
						</rate>
						<duration>6</duration>
						<start>7128</start>
						<end>7134</end>
						<in>0</in>
						<out>6</out>
					</clipitem>
					<clipitem frameBlend="FALSE" id="clipitem-telop-596">
						<file id="file-2"/>
						<name>テロップ596</name>
						<rate>
							<timebase>60</timebase>
							<ntsc>TRUE</ntsc>
						</rate>
						<rate>
							<timebase>60</timebase>
							<ntsc>TRUE</ntsc>
						</rate>
						<duration>6</duration>
						<start>7140</start>
						<end>7146</end>
						<in>0</in>
						<out>6</out>
					</clipitem>
					<clipitem frameBlend="FALSE" id="clipitem-telop-597">
						<file id="file-2"/>
						<name>テロップ597</name>
						<rate>
							<timebase>60</timebase>
							<ntsc>TRUE</ntsc>
						</rate>
						<rate>
							<timebase>60</timebase>
							<ntsc>TRUE</ntsc>
						</rate>
						<duration>6</duration>
						<start>7152</start>
						<end>7158</end>
						<in>0</in>
						<out>6</out>
					</clipitem>
					<clipitem frameBlend="FALSE" id="clipitem-telop-598">
						<file id="file-2"/>
						<name>テロップ598</name>
						<rate>
							<timebase>60</timebase>
							<ntsc>TRUE</ntsc>
						</rate>
						<rate>
							<timebase>60</timebase>
							<ntsc>TRUE</ntsc>
						</rate>
						<duration>6</duration>
						<start>7164</start>
						<end>7170</end>
						<in>0</in>
						<out>6</out>
					</clipitem>
					<clipitem frameBlend="FALSE" id="clipitem-telop-599">
						<file id="file-2"/>
						<name>テロップ599</name>
						<rate>
							<timebase>60</timebase>
							<ntsc>TRUE</ntsc>
						</rate>
						<rate>
							<timebase>60</timebase>
							<ntsc>TRUE</ntsc>
						</rate>
						<duration>6</duration>
						<start>7176</start>
						<end>7182</end>
						<in>0</in>
						<out>6</out>
					</clipitem>
					<clipitem frameBlend="FALSE" id="clipitem-telop-600">
						<file id="file-2"/>
						<name>テロップ600</name>
						<rate>
							<timebase>60</timebase>
							<ntsc>TRUE</ntsc>
						</rate>
						<rate>
							<timebase>60</timebase>
							<ntsc>TRUE</ntsc>
						</rate>
						<duration>6</duration>
						<start>7188</start>
						<end>7194</end>
						<in>0</in>
						<out>6</out>
					</clipitem>
					<clipitem frameBlend="FALSE" id="clipitem-telop-601">
						<file id="file-2"/>
						<name>テロップ601</name>
						<rate>
							<timebase>60</timebase>
							<ntsc>TRUE</ntsc>
						</rate>
						<rate>
							<timebase>60</timebase>
							<ntsc>TRUE</ntsc>
						</rate>
						<duration>6</duration>
						<start>7200</start>
						<end>7206</end>
						<in>0</in>
						<out>6</out>
					</clipitem>
					<clipitem frameBlend="FALSE" id="clipitem-telop-602">
						<file id="file-2"/>
						<name>テロップ602</name>
						<rate>
							<timebase>60</timebase>
							<ntsc>TRUE</ntsc>
						</rate>
						<rate>
							<timebase>60</timebase>
							<ntsc>TRUE</ntsc>
						</rate>
						<duration>6</duration>
						<start>7212</start>
						<end>7218</end>
						<in>0</in>
						<out>6</out>
					</clipitem>
					<clipitem frameBlend="FALSE" id="clipitem-telop-603">
						<file id="file-2"/>
						<name>テロップ603</name>
						<rate>
							<timebase>60</timebase>
							<ntsc>TRUE</ntsc>
						</rate>
						<rate>
							<timebase>60</timebase>
							<ntsc>TRUE</ntsc>
						</rate>
						<duration>6</duration>
						<start>7224</start>
						<end>7230</end>
						<in>0</in>
						<out>6</out>
					</clipitem>
					<clipitem frameBlend="FALSE" id="clipitem-telop-604">
						<file id="file-2"/>
						<name>テロップ604</name>
						<rate>
							<timebase>60</timebase>
							<ntsc>TRUE</ntsc>
						</rate>
						<rate>
							<timebase>60</timebase>
							<ntsc>TRUE</ntsc>
						</rate>
						<duration>6</duration>
						<start>7236</start>
						<end>7242</end>
						<in>0</in>
						<out>6</out>
					</clipitem>
					<clipitem frameBlend="FALSE" id="clipitem-telop-605">
						<file id="file-2"/>
						<name>テロップ605</name>
						<rate>
							<timebase>60</timebase>
							<ntsc>TRUE</ntsc>
						</rate>
						<rate>
							<timebase>60</timebase>
							<ntsc>TRUE</ntsc>
						</rate>
						<duration>6</duration>
						<start>7248</start>
						<end>7254</end>
						<in>0</in>
						<out>6</out>
					</clipitem>
					<clipitem frameBlend="FALSE" id="clipitem-telop-606">
						<file id="file-2"/>
						<name>テロップ606</name>
						<rate>
							<timebase>60</timebase>
							<ntsc>TRUE</ntsc>
						</rate>
						<rate>
							<timebase>60</timebase>
							<ntsc>TRUE</ntsc>
						</rate>
						<duration>6</duration>
						<start>7260</start>
						<end>7266</end>
						<in>0</in>
						<out>6</out>
					</clipitem>
					<clipitem frameBlend="FALSE" id="clipitem-telop-607">
						<file id="file-2"/>
						<name>テロップ607</name>
						<rate>
							<timebase>60</timebase>
							<ntsc>TRUE</ntsc>
						</rate>
						<rate>
							<timebase>60</timebase>
							<ntsc>TRUE</ntsc>
						</rate>
						<duration>6</duration>
						<start>7272</start>
						<end>7278</end>
						<in>0</in>
						<out>6</out>
					</clipitem>
					<clipitem frameBlend="FALSE" id="clipitem-telop-608">
						<file id="file-2"/>
						<name>テロップ608</name>
						<rate>
							<timebase>60</timebase>
							<ntsc>TRUE</ntsc>
						</rate>
						<rate>
							<timebase>60</timebase>
							<ntsc>TRUE</ntsc>
						</rate>
						<duration>6</duration>
						<start>7284</start>
						<end>7290</end>
						<in>0</in>
						<out>6</out>
					</clipitem>
					<clipitem frameBlend="FALSE" id="clipitem-telop-609">
						<file id="file-2"/>
						<name>テロップ609</name>
						<rate>
							<timebase>60</timebase>
							<ntsc>TRUE</ntsc>
						</rate>
						<rate>
							<timebase>60</timebase>
							<ntsc>TRUE</ntsc>
						</rate>
						<duration>6</duration>
						<start>7296</start>
						<end>7302</end>
						<in>0</in>
						<out>6</out>
					</clipitem>
					<clipitem frameBlend="FALSE" id="clipitem-telop-610">
						<file id="file-2"/>
						<name>テロップ610</name>
						<rate>
							<timebase>60</timebase>
							<ntsc>TRUE</ntsc>
						</rate>
						<rate>
							<timebase>60</timebase>
							<ntsc>TRUE</ntsc>
						</rate>
						<duration>6</duration>
						<start>7308</start>
						<end>7314</end>
						<in>0</in>
						<out>6</out>
					</clipitem>
					<clipitem frameBlend="FALSE" id="clipitem-telop-611">
						<file id="file-2"/>
						<name>テロップ611</name>
						<rate>
							<timebase>60</timebase>
							<ntsc>TRUE</ntsc>
						</rate>
						<rate>
							<timebase>60</timebase>
							<ntsc>TRUE</ntsc>
						</rate>
						<duration>6</duration>
						<start>7320</start>
						<end>7326</end>
						<in>0</in>
						<out>6</out>
					</clipitem>
					<clipitem frameBlend="FALSE" id="clipitem-telop-612">
						<file id="file-2"/>
						<name>テロップ612</name>
						<rate>
							<timebase>60</timebase>
							<ntsc>TRUE</ntsc>
						</rate>
						<rate>
							<timebase>60</timebase>
							<ntsc>TRUE</ntsc>
						</rate>
						<duration>6</duration>
						<start>7332</start>
						<end>7338</end>
						<in>0</in>
						<out>6</out>
					</clipitem>
					<clipitem frameBlend="FALSE" id="clipitem-telop-613">
						<file id="file-2"/>
						<name>テロップ613</name>
						<rate>
							<timebase>60</timebase>
							<ntsc>TRUE</ntsc>
						</rate>
						<rate>
							<timebase>60</timebase>
							<ntsc>TRUE</ntsc>
						</rate>
						<duration>6</duration>
						<start>7344</start>
						<end>7350</end>
						<in>0</in>
						<out>6</out>
					</clipitem>
					<clipitem frameBlend="FALSE" id="clipitem-telop-614">
						<file id="file-2"/>
						<name>テロップ614</name>
						<rate>
							<timebase>60</timebase>
							<ntsc>TRUE</ntsc>
						</rate>
						<rate>
							<timebase>60</timebase>
							<ntsc>TRUE</ntsc>
						</rate>
						<duration>6</duration>
						<start>7356</start>
						<end>7362</end>
						<in>0</in>
						<out>6</out>
					</clipitem>
					<clipitem frameBlend="FALSE" id="clipitem-telop-615">
						<file id="file-2"/>
						<name>テロップ615</name>
						<rate>
							<timebase>60</timebase>
							<ntsc>TRUE</ntsc>
						</rate>
						<rate>
							<timebase>60</timebase>
							<ntsc>TRUE</ntsc>
						</rate>
						<duration>6</duration>
						<start>7368</start>
						<end>7374</end>
						<in>0</in>
						<out>6</out>
					</clipitem>
					<clipitem frameBlend="FALSE" id="clipitem-telop-616">
						<file id="file-2"/>
						<name>テロップ616</name>
						<rate>
							<timebase>60</timebase>
							<ntsc>TRUE</ntsc>
						</rate>
						<rate>
							<timebase>60</timebase>
							<ntsc>TRUE</ntsc>
						</rate>
						<duration>6</duration>
						<start>7380</start>
						<end>7386</end>
						<in>0</in>
						<out>6</out>
					</clipitem>
					<clipitem frameBlend="FALSE" id="clipitem-telop-617">
						<file id="file-2"/>
						<name>テロップ617</name>
						<rate>
							<timebase>60</timebase>
							<ntsc>TRUE</ntsc>
						</rate>
						<rate>
							<timebase>60</timebase>
							<ntsc>TRUE</ntsc>
						</rate>
						<duration>6</duration>
						<start>7392</start>
						<end>7398</end>
						<in>0</in>
						<out>6</out>
					</clipitem>
					<clipitem frameBlend="FALSE" id="clipitem-telop-618">
						<file id="file-2"/>
						<name>テロップ618</name>
						<rate>
							<timebase>60</timebase>
							<ntsc>TRUE</ntsc>
						</rate>
						<rate>
							<timebase>60</timebase>
							<ntsc>TRUE</ntsc>
						</rate>
						<duration>6</duration>
						<start>7404</start>
						<end>7410</end>
						<in>0</in>
						<out>6</out>
					</clipitem>
					<clipitem frameBlend="FALSE" id="clipitem-telop-619">
						<file id="file-2"/>
						<name>テロップ619</name>
						<rate>
							<timebase>60</timebase>
							<ntsc>TRUE</ntsc>
						</rate>
						<rate>
							<timebase>60</timebase>
							<ntsc>TRUE</ntsc>
						</rate>
						<duration>6</duration>
						<start>7416</start>
						<end>7422</end>
						<in>0</in>
						<out>6</out>
					</clipitem>
					<clipitem frameBlend="FALSE" id="clipitem-telop-620">
						<file id="file-2"/>
						<name>テロップ620</name>
						<rate>
							<timebase>60</timebase>
							<ntsc>TRUE</ntsc>
						</rate>
						<rate>
							<timebase>60</timebase>
							<ntsc>TRUE</ntsc>
						</rate>
						<duration>6</duration>
						<start>7428</start>
						<end>7434</end>
						<in>0</in>
						<out>6</out>
					</clipitem>
					<clipitem frameBlend="FALSE" id="clipitem-telop-621">
						<file id="file-2"/>
						<name>テロップ621</name>
						<rate>
							<timebase>60</timebase>
							<ntsc>TRUE</ntsc>
						</rate>
						<rate>
							<timebase>60</timebase>
							<ntsc>TRUE</ntsc>
						</rate>
						<duration>6</duration>
						<start>7440</start>
						<end>7446</end>
						<in>0</in>
						<out>6</out>
					</clipitem>
					<clipitem frameBlend="FALSE" id="clipitem-telop-622">
						<file id="file-2"/>
						<name>テロップ622</name>
						<rate>
							<timebase>60</timebase>
							<ntsc>TRUE</ntsc>
						</rate>
						<rate>
							<timebase>60</timebase>
							<ntsc>TRUE</ntsc>
						</rate>
						<duration>6</duration>
						<start>7452</start>
						<end>7458</end>
						<in>0</in>
						<out>6</out>
					</clipitem>
					<clipitem frameBlend="FALSE" id="clipitem-telop-623">
						<file id="file-2"/>
						<name>テロップ623</name>
						<rate>
							<timebase>60</timebase>
							<ntsc>TRUE</ntsc>
						</rate>
						<rate>
							<timebase>60</timebase>
							<ntsc>TRUE</ntsc>
						</rate>
						<duration>6</duration>
						<start>7464</start>
						<end>7470</end>
						<in>0</in>
						<out>6</out>
					</clipitem>
					<clipitem frameBlend="FALSE" id="clipitem-telop-624">
						<file id="file-2"/>
						<name>テロップ624</name>
						<rate>
							<timebase>60</timebase>
							<ntsc>TRUE</ntsc>
						</rate>
						<rate>
							<timebase>60</timebase>
							<ntsc>TRUE</ntsc>
						</rate>
						<duration>6</duration>
						<start>7476</start>
						<end>7482</end>
						<in>0</in>
						<out>6</out>
					</clipitem>
					<clipitem frameBlend="FALSE" id="clipitem-telop-625">
						<file id="file-2"/>
						<name>テロップ625</name>
						<rate>
							<timebase>60</timebase>
							<ntsc>TRUE</ntsc>
						</rate>
						<rate>
							<timebase>60</timebase>
							<ntsc>TRUE</ntsc>
						</rate>
						<duration>6</duration>
						<start>7488</start>
						<end>7494</end>
						<in>0</in>
						<out>6</out>
					</clipitem>
					<clipitem frameBlend="FALSE" id="clipitem-telop-626">
						<file id="file-2"/>
						<name>テロップ626</name>
						<rate>
							<timebase>60</timebase>
							<ntsc>TRUE</ntsc>
						</rate>
						<rate>
							<timebase>60</timebase>
							<ntsc>TRUE</ntsc>
						</rate>
						<duration>6</duration>
						<start>7500</start>
						<end>7506</end>
						<in>0</in>
						<out>6</out>
					</clipitem>
					<clipitem frameBlend="FALSE" id="clipitem-telop-627">
						<file id="file-2"/>
						<name>テロップ627</name>
						<rate>
							<timebase>60</timebase>
							<ntsc>TRUE</ntsc>
						</rate>
						<rate>
							<timebase>60</timebase>
							<ntsc>TRUE</ntsc>
						</rate>
						<duration>6</duration>
						<start>7512</start>
						<end>7518</end>
						<in>0</in>
						<out>6</out>
					</clipitem>
					<clipitem frameBlend="FALSE" id="clipitem-telop-628">
						<file id="file-2"/>
						<name>テロップ628</name>
						<rate>
							<timebase>60</timebase>
							<ntsc>TRUE</ntsc>
						</rate>
						<rate>
							<timebase>60</timebase>
							<ntsc>TRUE</ntsc>
						</rate>
						<duration>6</duration>
						<start>7524</start>
						<end>7530</end>
						<in>0</in>
						<out>6</out>
					</clipitem>
					<clipitem frameBlend="FALSE" id="clipitem-telop-629">
						<file id="file-2"/>
						<name>テロップ629</name>
						<rate>
							<timebase>60</timebase>
							<ntsc>TRUE</ntsc>
						</rate>
						<rate>
							<timebase>60</timebase>
							<ntsc>TRUE</ntsc>
						</rate>
						<duration>6</duration>
						<start>7536</start>
						<end>7542</end>
						<in>0</in>
						<out>6</out>
					</clipitem>
					<clipitem frameBlend="FALSE" id="clipitem-telop-630">
						<file id="file-2"/>
						<name>テロップ630</name>
						<rate>
							<timebase>60</timebase>
							<ntsc>TRUE</ntsc>
						</rate>
						<rate>
							<timebase>60</timebase>
							<ntsc>TRUE</ntsc>
						</rate>
						<duration>6</duration>
						<start>7548</start>
						<end>7554</end>
						<in>0</in>
						<out>6</out>
					</clipitem>
					<clipitem frameBlend="FALSE" id="clipitem-telop-631">
						<file id="file-2"/>
						<name>テロップ631</name>
						<rate>
							<timebase>60</timebase>
							<ntsc>TRUE</ntsc>
						</rate>
						<rate>
							<timebase>60</timebase>
							<ntsc>TRUE</ntsc>
						</rate>
						<duration>6</duration>
						<start>7560</start>
						<end>7566</end>
						<in>0</in>
						<out>6</out>
					</clipitem>
					<clipitem frameBlend="FALSE" id="clipitem-telop-632">
						<file id="file-2"/>
						<name>テロップ632</name>
						<rate>
							<timebase>60</timebase>
							<ntsc>TRUE</ntsc>
						</rate>
						<rate>
							<timebase>60</timebase>
							<ntsc>TRUE</ntsc>
						</rate>
						<duration>6</duration>
						<start>7572</start>
						<end>7578</end>
						<in>0</in>
						<out>6</out>
					</clipitem>
					<clipitem frameBlend="FALSE" id="clipitem-telop-633">
						<file id="file-2"/>
						<name>テロップ633</name>
						<rate>
							<timebase>60</timebase>
							<ntsc>TRUE</ntsc>
						</rate>
						<rate>
							<timebase>60</timebase>
							<ntsc>TRUE</ntsc>
						</rate>
						<duration>6</duration>
						<start>7584</start>
						<end>7590</end>
						<in>0</in>
						<out>6</out>
					</clipitem>
					<clipitem frameBlend="FALSE" id="clipitem-telop-634">
						<file id="file-2"/>
						<name>テロップ634</name>
						<rate>
							<timebase>60</timebase>
							<ntsc>TRUE</ntsc>
						</rate>
						<rate>
							<timebase>60</timebase>
							<ntsc>TRUE</ntsc>
						</rate>
						<duration>6</duration>
						<start>7596</start>
						<end>7602</end>
						<in>0</in>
						<out>6</out>
					</clipitem>
					<clipitem frameBlend="FALSE" id="clipitem-telop-635">
						<file id="file-2"/>
						<name>テロップ635</name>
						<rate>
							<timebase>60</timebase>
							<ntsc>TRUE</ntsc>
						</rate>
						<rate>
							<timebase>60</timebase>
							<ntsc>TRUE</ntsc>
						</rate>
						<duration>6</duration>
						<start>7608</start>
						<end>7614</end>
						<in>0</in>
						<out>6</out>
					</clipitem>
					<clipitem frameBlend="FALSE" id="clipitem-telop-636">
						<file id="file-2"/>
						<name>テロップ636</name>
						<rate>
							<timebase>60</timebase>
							<ntsc>TRUE</ntsc>
						</rate>
						<rate>
							<timebase>60</timebase>
							<ntsc>TRUE</ntsc>
						</rate>
						<duration>6</duration>
						<start>7620</start>
						<end>7626</end>
						<in>0</in>
						<out>6</out>
					</clipitem>
					<clipitem frameBlend="FALSE" id="clipitem-telop-637">
						<file id="file-2"/>
						<name>テロップ637</name>
						<rate>
							<timebase>60</timebase>
							<ntsc>TRUE</ntsc>
						</rate>
						<rate>
							<timebase>60</timebase>
							<ntsc>TRUE</ntsc>
						</rate>
						<duration>6</duration>
						<start>7632</start>
						<end>7638</end>
						<in>0</in>
						<out>6</out>
					</clipitem>
					<clipitem frameBlend="FALSE" id="clipitem-telop-638">
						<file id="file-2"/>
						<name>テロップ638</name>
						<rate>
							<timebase>60</timebase>
							<ntsc>TRUE</ntsc>
						</rate>
						<rate>
							<timebase>60</timebase>
							<ntsc>TRUE</ntsc>
						</rate>
						<duration>6</duration>
						<start>7644</start>
						<end>7650</end>
						<in>0</in>
						<out>6</out>
					</clipitem>
					<clipitem frameBlend="FALSE" id="clipitem-telop-639">
						<file id="file-2"/>
						<name>テロップ639</name>
						<rate>
							<timebase>60</timebase>
							<ntsc>TRUE</ntsc>
						</rate>
						<rate>
							<timebase>60</timebase>
							<ntsc>TRUE</ntsc>
						</rate>
						<duration>6</duration>
						<start>7656</start>
						<end>7662</end>
						<in>0</in>
						<out>6</out>
					</clipitem>
					<clipitem frameBlend="FALSE" id="clipitem-telop-640">
						<file id="file-2"/>
						<name>テロップ640</name>
						<rate>
							<timebase>60</timebase>
							<ntsc>TRUE</ntsc>
						</rate>
						<rate>
							<timebase>60</timebase>
							<ntsc>TRUE</ntsc>
						</rate>
						<duration>6</duration>
						<start>7668</start>
						<end>7674</end>
						<in>0</in>
						<out>6</out>
					</clipitem>
					<clipitem frameBlend="FALSE" id="clipitem-telop-641">
						<file id="file-2"/>
						<name>テロップ641</name>
						<rate>
							<timebase>60</timebase>
							<ntsc>TRUE</ntsc>
						</rate>
						<rate>
							<timebase>60</timebase>
							<ntsc>TRUE</ntsc>
						</rate>
						<duration>6</duration>
						<start>7680</start>
						<end>7686</end>
						<in>0</in>
						<out>6</out>
					</clipitem>
					<clipitem frameBlend="FALSE" id="clipitem-telop-642">
						<file id="file-2"/>
						<name>テロップ642</name>
						<rate>
							<timebase>60</timebase>
							<ntsc>TRUE</ntsc>
						</rate>
						<rate>
							<timebase>60</timebase>
							<ntsc>TRUE</ntsc>
						</rate>
						<duration>6</duration>
						<start>7692</start>
						<end>7698</end>
						<in>0</in>
						<out>6</out>
					</clipitem>
					<clipitem frameBlend="FALSE" id="clipitem-telop-643">
						<file id="file-2"/>
						<name>テロップ643</name>
						<rate>
							<timebase>60</timebase>
							<ntsc>TRUE</ntsc>
						</rate>
						<rate>
							<timebase>60</timebase>
							<ntsc>TRUE</ntsc>
						</rate>
						<duration>6</duration>
						<start>7704</start>
						<end>7710</end>
						<in>0</in>
						<out>6</out>
					</clipitem>
					<clipitem frameBlend="FALSE" id="clipitem-telop-644">
						<file id="file-2"/>
						<name>テロップ644</name>
						<rate>
							<timebase>60</timebase>
							<ntsc>TRUE</ntsc>
						</rate>
						<rate>
							<timebase>60</timebase>
							<ntsc>TRUE</ntsc>
						</rate>
						<duration>6</duration>
						<start>7716</start>
						<end>7722</end>
						<in>0</in>
						<out>6</out>
					</clipitem>
					<clipitem frameBlend="FALSE" id="clipitem-telop-645">
						<file id="file-2"/>
						<name>テロップ645</name>
						<rate>
							<timebase>60</timebase>
							<ntsc>TRUE</ntsc>
						</rate>
						<rate>
							<timebase>60</timebase>
							<ntsc>TRUE</ntsc>
						</rate>
						<duration>6</duration>
						<start>7728</start>
						<end>7734</end>
						<in>0</in>
						<out>6</out>
					</clipitem>
					<clipitem frameBlend="FALSE" id="clipitem-telop-646">
						<file id="file-2"/>
						<name>テロップ646</name>
						<rate>
							<timebase>60</timebase>
							<ntsc>TRUE</ntsc>
						</rate>
						<rate>
							<timebase>60</timebase>
							<ntsc>TRUE</ntsc>
						</rate>
						<duration>6</duration>
						<start>7740</start>
						<end>7746</end>
						<in>0</in>
						<out>6</out>
					</clipitem>
					<clipitem frameBlend="FALSE" id="clipitem-telop-647">
						<file id="file-2"/>
						<name>テロップ647</name>
						<rate>
							<timebase>60</timebase>
							<ntsc>TRUE</ntsc>
						</rate>
						<rate>
							<timebase>60</timebase>
							<ntsc>TRUE</ntsc>
						</rate>
						<duration>6</duration>
						<start>7752</start>
						<end>7758</end>
						<in>0</in>
						<out>6</out>
					</clipitem>
					<clipitem frameBlend="FALSE" id="clipitem-telop-648">
						<file id="file-2"/>
						<name>テロップ648</name>
						<rate>
							<timebase>60</timebase>
							<ntsc>TRUE</ntsc>
						</rate>
						<rate>
							<timebase>60</timebase>
							<ntsc>TRUE</ntsc>
						</rate>
						<duration>6</duration>
						<start>7764</start>
						<end>7770</end>
						<in>0</in>
						<out>6</out>
					</clipitem>
					<clipitem frameBlend="FALSE" id="clipitem-telop-649">
						<file id="file-2"/>
						<name>テロップ649</name>
						<rate>
							<timebase>60</timebase>
							<ntsc>TRUE</ntsc>
						</rate>
						<rate>
							<timebase>60</timebase>
							<ntsc>TRUE</ntsc>
						</rate>
						<duration>6</duration>
						<start>7776</start>
						<end>7782</end>
						<in>0</in>
						<out>6</out>
					</clipitem>
					<clipitem frameBlend="FALSE" id="clipitem-telop-650">
						<file id="file-2"/>
						<name>テロップ650</name>
						<rate>
							<timebase>60</timebase>
							<ntsc>TRUE</ntsc>
						</rate>
						<rate>
							<timebase>60</timebase>
							<ntsc>TRUE</ntsc>
						</rate>
						<duration>6</duration>
						<start>7788</start>
						<end>7794</end>
						<in>0</in>
						<out>6</out>
					</clipitem>
					<clipitem frameBlend="FALSE" id="clipitem-telop-651">
						<file id="file-2"/>
						<name>テロップ651</name>
						<rate>
							<timebase>60</timebase>
							<ntsc>TRUE</ntsc>
						</rate>
						<rate>
							<timebase>60</timebase>
							<ntsc>TRUE</ntsc>
						</rate>
						<duration>6</duration>
						<start>7800</start>
						<end>7806</end>
						<in>0</in>
						<out>6</out>
					</clipitem>
					<clipitem frameBlend="FALSE" id="clipitem-telop-652">
						<file id="file-2"/>
						<name>テロップ652</name>
						<rate>
							<timebase>60</timebase>
							<ntsc>TRUE</ntsc>
						</rate>
						<rate>
							<timebase>60</timebase>
							<ntsc>TRUE</ntsc>
						</rate>
						<duration>6</duration>
						<start>7812</start>
						<end>7818</end>
						<in>0</in>
						<out>6</out>
					</clipitem>
					<clipitem frameBlend="FALSE" id="clipitem-telop-653">
						<file id="file-2"/>
						<name>テロップ653</name>
						<rate>
							<timebase>60</timebase>
							<ntsc>TRUE</ntsc>
						</rate>
						<rate>
							<timebase>60</timebase>
							<ntsc>TRUE</ntsc>
						</rate>
						<duration>6</duration>
						<start>7824</start>
						<end>7830</end>
						<in>0</in>
						<out>6</out>
					</clipitem>
					<clipitem frameBlend="FALSE" id="clipitem-telop-654">
						<file id="file-2"/>
						<name>テロップ654</name>
						<rate>
							<timebase>60</timebase>
							<ntsc>TRUE</ntsc>
						</rate>
						<rate>
							<timebase>60</timebase>
							<ntsc>TRUE</ntsc>
						</rate>
						<duration>6</duration>
						<start>7836</start>
						<end>7842</end>
						<in>0</in>
						<out>6</out>
					</clipitem>
					<clipitem frameBlend="FALSE" id="clipitem-telop-655">
						<file id="file-2"/>
						<name>テロップ655</name>
						<rate>
							<timebase>60</timebase>
							<ntsc>TRUE</ntsc>
						</rate>
						<rate>
							<timebase>60</timebase>
							<ntsc>TRUE</ntsc>
						</rate>
						<duration>6</duration>
						<start>7848</start>
						<end>7854</end>
						<in>0</in>
						<out>6</out>
					</clipitem>
					<clipitem frameBlend="FALSE" id="clipitem-telop-656">
						<file id="file-2"/>
						<name>テロップ656</name>
						<rate>
							<timebase>60</timebase>
							<ntsc>TRUE</ntsc>
						</rate>
						<rate>
							<timebase>60</timebase>
							<ntsc>TRUE</ntsc>
						</rate>
						<duration>6</duration>
						<start>7860</start>
						<end>7866</end>
						<in>0</in>
						<out>6</out>
					</clipitem>
					<clipitem frameBlend="FALSE" id="clipitem-telop-657">
						<file id="file-2"/>
						<name>テロップ657</name>
						<rate>
							<timebase>60</timebase>
							<ntsc>TRUE</ntsc>
						</rate>
						<rate>
							<timebase>60</timebase>
							<ntsc>TRUE</ntsc>
						</rate>
						<duration>6</duration>
						<start>7872</start>
						<end>7878</end>
						<in>0</in>
						<out>6</out>
					</clipitem>
					<clipitem frameBlend="FALSE" id="clipitem-telop-658">
						<file id="file-2"/>
						<name>テロップ658</name>
						<rate>
							<timebase>60</timebase>
							<ntsc>TRUE</ntsc>
						</rate>
						<rate>
							<timebase>60</timebase>
							<ntsc>TRUE</ntsc>
						</rate>
						<duration>6</duration>
						<start>7884</start>
						<end>7890</end>
						<in>0</in>
						<out>6</out>
					</clipitem>
					<clipitem frameBlend="FALSE" id="clipitem-telop-659">
						<file id="file-2"/>
						<name>テロップ659</name>
						<rate>
							<timebase>60</timebase>
							<ntsc>TRUE</ntsc>
						</rate>
						<rate>
							<timebase>60</timebase>
							<ntsc>TRUE</ntsc>
						</rate>
						<duration>6</duration>
						<start>7896</start>
						<end>7902</end>
						<in>0</in>
						<out>6</out>
					</clipitem>
					<clipitem frameBlend="FALSE" id="clipitem-telop-660">
						<file id="file-2"/>
						<name>テロップ660</name>
						<rate>
							<timebase>60</timebase>
							<ntsc>TRUE</ntsc>
						</rate>
						<rate>
							<timebase>60</timebase>
							<ntsc>TRUE</ntsc>
						</rate>
						<duration>6</duration>
						<start>7908</start>
						<end>7914</end>
						<in>0</in>
						<out>6</out>
					</clipitem>
					<clipitem frameBlend="FALSE" id="clipitem-telop-661">
						<file id="file-2"/>
						<name>テロップ661</name>
						<rate>
							<timebase>60</timebase>
							<ntsc>TRUE</ntsc>
						</rate>
						<rate>
							<timebase>60</timebase>
							<ntsc>TRUE</ntsc>
						</rate>
						<duration>6</duration>
						<start>7920</start>
						<end>7926</end>
						<in>0</in>
						<out>6</out>
					</clipitem>
					<clipitem frameBlend="FALSE" id="clipitem-telop-662">
						<file id="file-2"/>
						<name>テロップ662</name>
						<rate>
							<timebase>60</timebase>
							<ntsc>TRUE</ntsc>
						</rate>
						<rate>
							<timebase>60</timebase>
							<ntsc>TRUE</ntsc>
						</rate>
						<duration>6</duration>
						<start>7932</start>
						<end>7938</end>
						<in>0</in>
						<out>6</out>
					</clipitem>
					<clipitem frameBlend="FALSE" id="clipitem-telop-663">
						<file id="file-2"/>
						<name>テロップ663</name>
						<rate>
							<timebase>60</timebase>
							<ntsc>TRUE</ntsc>
						</rate>
						<rate>
							<timebase>60</timebase>
							<ntsc>TRUE</ntsc>
						</rate>
						<duration>6</duration>
						<start>7944</start>
						<end>7950</end>
						<in>0</in>
						<out>6</out>
					</clipitem>
					<clipitem frameBlend="FALSE" id="clipitem-telop-664">
						<file id="file-2"/>
						<name>テロップ664</name>
						<rate>
							<timebase>60</timebase>
							<ntsc>TRUE</ntsc>
						</rate>
						<rate>
							<timebase>60</timebase>
							<ntsc>TRUE</ntsc>
						</rate>
						<duration>6</duration>
						<start>7956</start>
						<end>7962</end>
						<in>0</in>
						<out>6</out>
					</clipitem>
					<clipitem frameBlend="FALSE" id="clipitem-telop-665">
						<file id="file-2"/>
						<name>テロップ665</name>
						<rate>
							<timebase>60</timebase>
							<ntsc>TRUE</ntsc>
						</rate>
						<rate>
							<timebase>60</timebase>
							<ntsc>TRUE</ntsc>
						</rate>
						<duration>6</duration>
						<start>7968</start>
						<end>7974</end>
						<in>0</in>
						<out>6</out>
					</clipitem>
					<clipitem frameBlend="FALSE" id="clipitem-telop-666">
						<file id="file-2"/>
						<name>テロップ666</name>
						<rate>
							<timebase>60</timebase>
							<ntsc>TRUE</ntsc>
						</rate>
						<rate>
							<timebase>60</timebase>
							<ntsc>TRUE</ntsc>
						</rate>
						<duration>6</duration>
						<start>7980</start>
						<end>7986</end>
						<in>0</in>
						<out>6</out>
					</clipitem>
					<clipitem frameBlend="FALSE" id="clipitem-telop-667">
						<file id="file-2"/>
						<name>テロップ667</name>
						<rate>
							<timebase>60</timebase>
							<ntsc>TRUE</ntsc>
						</rate>
						<rate>
							<timebase>60</timebase>
							<ntsc>TRUE</ntsc>
						</rate>
						<duration>6</duration>
						<start>7992</start>
						<end>7998</end>
						<in>0</in>
						<out>6</out>
					</clipitem>
					<clipitem frameBlend="FALSE" id="clipitem-telop-668">
						<file id="file-2"/>
						<name>テロップ668</name>
						<rate>
							<timebase>60</timebase>
							<ntsc>TRUE</ntsc>
						</rate>
						<rate>
							<timebase>60</timebase>
							<ntsc>TRUE</ntsc>
						</rate>
						<duration>6</duration>
						<start>8004</start>
						<end>8010</end>
						<in>0</in>
						<out>6</out>
					</clipitem>
					<clipitem frameBlend="FALSE" id="clipitem-telop-669">
						<file id="file-2"/>
						<name>テロップ669</name>
						<rate>
							<timebase>60</timebase>
							<ntsc>TRUE</ntsc>
						</rate>
						<rate>
							<timebase>60</timebase>
							<ntsc>TRUE</ntsc>
						</rate>
						<duration>6</duration>
						<start>8016</start>
						<end>8022</end>
						<in>0</in>
						<out>6</out>
					</clipitem>
					<clipitem frameBlend="FALSE" id="clipitem-telop-670">
						<file id="file-2"/>
						<name>テロップ670</name>
						<rate>
							<timebase>60</timebase>
							<ntsc>TRUE</ntsc>
						</rate>
						<rate>
							<timebase>60</timebase>
							<ntsc>TRUE</ntsc>
						</rate>
						<duration>6</duration>
						<start>8028</start>
						<end>8034</end>
						<in>0</in>
						<out>6</out>
					</clipitem>
					<clipitem frameBlend="FALSE" id="clipitem-telop-671">
						<file id="file-2"/>
						<name>テロップ671</name>
						<rate>
							<timebase>60</timebase>
							<ntsc>TRUE</ntsc>
						</rate>
						<rate>
							<timebase>60</timebase>
							<ntsc>TRUE</ntsc>
						</rate>
						<duration>6</duration>
						<start>8040</start>
						<end>8046</end>
						<in>0</in>
						<out>6</out>
					</clipitem>
					<clipitem frameBlend="FALSE" id="clipitem-telop-672">
						<file id="file-2"/>
						<name>テロップ672</name>
						<rate>
							<timebase>60</timebase>
							<ntsc>TRUE</ntsc>
						</rate>
						<rate>
							<timebase>60</timebase>
							<ntsc>TRUE</ntsc>
						</rate>
						<duration>6</duration>
						<start>8052</start>
						<end>8058</end>
						<in>0</in>
						<out>6</out>
					</clipitem>
					<clipitem frameBlend="FALSE" id="clipitem-telop-673">
						<file id="file-2"/>
						<name>テロップ673</name>
						<rate>
							<timebase>60</timebase>
							<ntsc>TRUE</ntsc>
						</rate>
						<rate>
							<timebase>60</timebase>
							<ntsc>TRUE</ntsc>
						</rate>
						<duration>6</duration>
						<start>8064</start>
						<end>8070</end>
						<in>0</in>
						<out>6</out>
					</clipitem>
					<clipitem frameBlend="FALSE" id="clipitem-telop-674">
						<file id="file-2"/>
						<name>テロップ674</name>
						<rate>
							<timebase>60</timebase>
							<ntsc>TRUE</ntsc>
						</rate>
						<rate>
							<timebase>60</timebase>
							<ntsc>TRUE</ntsc>
						</rate>
						<duration>6</duration>
						<start>8076</start>
						<end>8082</end>
						<in>0</in>
						<out>6</out>
					</clipitem>
					<clipitem frameBlend="FALSE" id="clipitem-telop-675">
						<file id="file-2"/>
						<name>テロップ675</name>
						<rate>
							<timebase>60</timebase>
							<ntsc>TRUE</ntsc>
						</rate>
						<rate>
							<timebase>60</timebase>
							<ntsc>TRUE</ntsc>
						</rate>
						<duration>6</duration>
						<start>8088</start>
						<end>8094</end>
						<in>0</in>
						<out>6</out>
					</clipitem>
					<clipitem frameBlend="FALSE" id="clipitem-telop-676">
						<file id="file-2"/>
						<name>テロップ676</name>
						<rate>
							<timebase>60</timebase>
							<ntsc>TRUE</ntsc>
						</rate>
						<rate>
							<timebase>60</timebase>
							<ntsc>TRUE</ntsc>
						</rate>
						<duration>6</duration>
						<start>8100</start>
						<end>8106</end>
						<in>0</in>
						<out>6</out>
					</clipitem>
					<clipitem frameBlend="FALSE" id="clipitem-telop-677">
						<file id="file-2"/>
						<name>テロップ677</name>
						<rate>
							<timebase>60</timebase>
							<ntsc>TRUE</ntsc>
						</rate>
						<rate>
							<timebase>60</timebase>
							<ntsc>TRUE</ntsc>
						</rate>
						<duration>6</duration>
						<start>8112</start>
						<end>8118</end>
						<in>0</in>
						<out>6</out>
					</clipitem>
					<clipitem frameBlend="FALSE" id="clipitem-telop-678">
						<file id="file-2"/>
						<name>テロップ678</name>
						<rate>
							<timebase>60</timebase>
							<ntsc>TRUE</ntsc>
						</rate>
						<rate>
							<timebase>60</timebase>
							<ntsc>TRUE</ntsc>
						</rate>
						<duration>6</duration>
						<start>8124</start>
						<end>8130</end>
						<in>0</in>
						<out>6</out>
					</clipitem>
					<clipitem frameBlend="FALSE" id="clipitem-telop-679">
						<file id="file-2"/>
						<name>テロップ679</name>
						<rate>
							<timebase>60</timebase>
							<ntsc>TRUE</ntsc>
						</rate>
						<rate>
							<timebase>60</timebase>
							<ntsc>TRUE</ntsc>
						</rate>
						<duration>6</duration>
						<start>8136</start>
						<end>8142</end>
						<in>0</in>
						<out>6</out>
					</clipitem>
					<clipitem frameBlend="FALSE" id="clipitem-telop-680">
						<file id="file-2"/>
						<name>テロップ680</name>
						<rate>
							<timebase>60</timebase>
							<ntsc>TRUE</ntsc>
						</rate>
						<rate>
							<timebase>60</timebase>
							<ntsc>TRUE</ntsc>
						</rate>
						<duration>6</duration>
						<start>8148</start>
						<end>8154</end>
						<in>0</in>
						<out>6</out>
					</clipitem>
					<clipitem frameBlend="FALSE" id="clipitem-telop-681">
						<file id="file-2"/>
						<name>テロップ681</name>
						<rate>
							<timebase>60</timebase>
							<ntsc>TRUE</ntsc>
						</rate>
						<rate>
							<timebase>60</timebase>
							<ntsc>TRUE</ntsc>
						</rate>
						<duration>6</duration>
						<start>8160</start>
						<end>8166</end>
						<in>0</in>
						<out>6</out>
					</clipitem>
					<clipitem frameBlend="FALSE" id="clipitem-telop-682">
						<file id="file-2"/>
						<name>テロップ682</name>
						<rate>
							<timebase>60</timebase>
							<ntsc>TRUE</ntsc>
						</rate>
						<rate>
							<timebase>60</timebase>
							<ntsc>TRUE</ntsc>
						</rate>
						<duration>6</duration>
						<start>8172</start>
						<end>8178</end>
						<in>0</in>
						<out>6</out>
					</clipitem>
					<clipitem frameBlend="FALSE" id="clipitem-telop-683">
						<file id="file-2"/>
						<name>テロップ683</name>
						<rate>
							<timebase>60</timebase>
							<ntsc>TRUE</ntsc>
						</rate>
						<rate>
							<timebase>60</timebase>
							<ntsc>TRUE</ntsc>
						</rate>
						<duration>6</duration>
						<start>8184</start>
						<end>8190</end>
						<in>0</in>
						<out>6</out>
					</clipitem>
					<clipitem frameBlend="FALSE" id="clipitem-telop-684">
						<file id="file-2"/>
						<name>テロップ684</name>
						<rate>
							<timebase>60</timebase>
							<ntsc>TRUE</ntsc>
						</rate>
						<rate>
							<timebase>60</timebase>
							<ntsc>TRUE</ntsc>
						</rate>
						<duration>6</duration>
						<start>8196</start>
						<end>8202</end>
						<in>0</in>
						<out>6</out>
					</clipitem>
					<clipitem frameBlend="FALSE" id="clipitem-telop-685">
						<file id="file-2"/>
						<name>テロップ685</name>
						<rate>
							<timebase>60</timebase>
							<ntsc>TRUE</ntsc>
						</rate>
						<rate>
							<timebase>60</timebase>
							<ntsc>TRUE</ntsc>
						</rate>
						<duration>6</duration>
						<start>8208</start>
						<end>8214</end>
						<in>0</in>
						<out>6</out>
					</clipitem>
					<clipitem frameBlend="FALSE" id="clipitem-telop-686">
						<file id="file-2"/>
						<name>テロップ686</name>
						<rate>
							<timebase>60</timebase>
							<ntsc>TRUE</ntsc>
						</rate>
						<rate>
							<timebase>60</timebase>
							<ntsc>TRUE</ntsc>
						</rate>
						<duration>6</duration>
						<start>8220</start>
						<end>8226</end>
						<in>0</in>
						<out>6</out>
					</clipitem>
					<clipitem frameBlend="FALSE" id="clipitem-telop-687">
						<file id="file-2"/>
						<name>テロップ687</name>
						<rate>
							<timebase>60</timebase>
							<ntsc>TRUE</ntsc>
						</rate>
						<rate>
							<timebase>60</timebase>
							<ntsc>TRUE</ntsc>
						</rate>
						<duration>6</duration>
						<start>8232</start>
						<end>8238</end>
						<in>0</in>
						<out>6</out>
					</clipitem>
					<clipitem frameBlend="FALSE" id="clipitem-telop-688">
						<file id="file-2"/>
						<name>テロップ688</name>
						<rate>
							<timebase>60</timebase>
							<ntsc>TRUE</ntsc>
						</rate>
						<rate>
							<timebase>60</timebase>
							<ntsc>TRUE</ntsc>
						</rate>
						<duration>6</duration>
						<start>8244</start>
						<end>8250</end>
						<in>0</in>
						<out>6</out>
					</clipitem>
					<clipitem frameBlend="FALSE" id="clipitem-telop-689">
						<file id="file-2"/>
						<name>テロップ689</name>
						<rate>
							<timebase>60</timebase>
							<ntsc>TRUE</ntsc>
						</rate>
						<rate>
							<timebase>60</timebase>
							<ntsc>TRUE</ntsc>
						</rate>
						<duration>6</duration>
						<start>8256</start>
						<end>8262</end>
						<in>0</in>
						<out>6</out>
					</clipitem>
					<clipitem frameBlend="FALSE" id="clipitem-telop-690">
						<file id="file-2"/>
						<name>テロップ690</name>
						<rate>
							<timebase>60</timebase>
							<ntsc>TRUE</ntsc>
						</rate>
						<rate>
							<timebase>60</timebase>
							<ntsc>TRUE</ntsc>
						</rate>
						<duration>6</duration>
						<start>8268</start>
						<end>8274</end>
						<in>0</in>
						<out>6</out>
					</clipitem>
					<clipitem frameBlend="FALSE" id="clipitem-telop-691">
						<file id="file-2"/>
						<name>テロップ691</name>
						<rate>
							<timebase>60</timebase>
							<ntsc>TRUE</ntsc>
						</rate>
						<rate>
							<timebase>60</timebase>
							<ntsc>TRUE</ntsc>
						</rate>
						<duration>6</duration>
						<start>8280</start>
						<end>8286</end>
						<in>0</in>
						<out>6</out>
					</clipitem>
					<clipitem frameBlend="FALSE" id="clipitem-telop-692">
						<file id="file-2"/>
						<name>テロップ692</name>
						<rate>
							<timebase>60</timebase>
							<ntsc>TRUE</ntsc>
						</rate>
						<rate>
							<timebase>60</timebase>
							<ntsc>TRUE</ntsc>
						</rate>
						<duration>6</duration>
						<start>8292</start>
						<end>8298</end>
						<in>0</in>
						<out>6</out>
					</clipitem>
					<clipitem frameBlend="FALSE" id="clipitem-telop-693">
						<file id="file-2"/>
						<name>テロップ693</name>
						<rate>
							<timebase>60</timebase>
							<ntsc>TRUE</ntsc>
						</rate>
						<rate>
							<timebase>60</timebase>
							<ntsc>TRUE</ntsc>
						</rate>
						<duration>6</duration>
						<start>8304</start>
						<end>8310</end>
						<in>0</in>
						<out>6</out>
					</clipitem>
					<clipitem frameBlend="FALSE" id="clipitem-telop-694">
						<file id="file-2"/>
						<name>テロップ694</name>
						<rate>
							<timebase>60</timebase>
							<ntsc>TRUE</ntsc>
						</rate>
						<rate>
							<timebase>60</timebase>
							<ntsc>TRUE</ntsc>
						</rate>
						<duration>6</duration>
						<start>8316</start>
						<end>8322</end>
						<in>0</in>
						<out>6</out>
					</clipitem>
					<clipitem frameBlend="FALSE" id="clipitem-telop-695">
						<file id="file-2"/>
						<name>テロップ695</name>
						<rate>
							<timebase>60</timebase>
							<ntsc>TRUE</ntsc>
						</rate>
						<rate>
							<timebase>60</timebase>
							<ntsc>TRUE</ntsc>
						</rate>
						<duration>6</duration>
						<start>8328</start>
						<end>8334</end>
						<in>0</in>
						<out>6</out>
					</clipitem>
					<clipitem frameBlend="FALSE" id="clipitem-telop-696">
						<file id="file-2"/>
						<name>テロップ696</name>
						<rate>
							<timebase>60</timebase>
							<ntsc>TRUE</ntsc>
						</rate>
						<rate>
							<timebase>60</timebase>
							<ntsc>TRUE</ntsc>
						</rate>
						<duration>6</duration>
						<start>8340</start>
						<end>8346</end>
						<in>0</in>
						<out>6</out>
					</clipitem>
					<clipitem frameBlend="FALSE" id="clipitem-telop-697">
						<file id="file-2"/>
						<name>テロップ697</name>
						<rate>
							<timebase>60</timebase>
							<ntsc>TRUE</ntsc>
						</rate>
						<rate>
							<timebase>60</timebase>
							<ntsc>TRUE</ntsc>
						</rate>
						<duration>6</duration>
						<start>8352</start>
						<end>8358</end>
						<in>0</in>
						<out>6</out>
					</clipitem>
					<clipitem frameBlend="FALSE" id="clipitem-telop-698">
						<file id="file-2"/>
						<name>テロップ698</name>
						<rate>
							<timebase>60</timebase>
							<ntsc>TRUE</ntsc>
						</rate>
						<rate>
							<timebase>60</timebase>
							<ntsc>TRUE</ntsc>
						</rate>
						<duration>6</duration>
						<start>8364</start>
						<end>8370</end>
						<in>0</in>
						<out>6</out>
					</clipitem>
					<clipitem frameBlend="FALSE" id="clipitem-telop-699">
						<file id="file-2"/>
						<name>テロップ699</name>
						<rate>
							<timebase>60</timebase>
							<ntsc>TRUE</ntsc>
						</rate>
						<rate>
							<timebase>60</timebase>
							<ntsc>TRUE</ntsc>
						</rate>
						<duration>6</duration>
						<start>8376</start>
						<end>8382</end>
						<in>0</in>
						<out>6</out>
					</clipitem>
					<clipitem frameBlend="FALSE" id="clipitem-telop-700">
						<file id="file-2"/>
						<name>テロップ700</name>
						<rate>
							<timebase>60</timebase>
							<ntsc>TRUE</ntsc>
						</rate>
						<rate>
							<timebase>60</timebase>
							<ntsc>TRUE</ntsc>
						</rate>
						<duration>6</duration>
						<start>8388</start>
						<end>8394</end>
						<in>0</in>
						<out>6</out>
					</clipitem>
					<clipitem frameBlend="FALSE" id="clipitem-telop-701">
						<file id="file-2"/>
						<name>テロップ701</name>
						<rate>
							<timebase>60</timebase>
							<ntsc>TRUE</ntsc>
						</rate>
						<rate>
							<timebase>60</timebase>
							<ntsc>TRUE</ntsc>
						</rate>
						<duration>6</duration>
						<start>8400</start>
						<end>8406</end>
						<in>0</in>
						<out>6</out>
					</clipitem>
					<clipitem frameBlend="FALSE" id="clipitem-telop-702">
						<file id="file-2"/>
						<name>テロップ702</name>
						<rate>
							<timebase>60</timebase>
							<ntsc>TRUE</ntsc>
						</rate>
						<rate>
							<timebase>60</timebase>
							<ntsc>TRUE</ntsc>
						</rate>
						<duration>6</duration>
						<start>8412</start>
						<end>8418</end>
						<in>0</in>
						<out>6</out>
					</clipitem>
					<clipitem frameBlend="FALSE" id="clipitem-telop-703">
						<file id="file-2"/>
						<name>テロップ703</name>
						<rate>
							<timebase>60</timebase>
							<ntsc>TRUE</ntsc>
						</rate>
						<rate>
							<timebase>60</timebase>
							<ntsc>TRUE</ntsc>
						</rate>
						<duration>6</duration>
						<start>8424</start>
						<end>8430</end>
						<in>0</in>
						<out>6</out>
					</clipitem>
					<clipitem frameBlend="FALSE" id="clipitem-telop-704">
						<file id="file-2"/>
						<name>テロップ704</name>
						<rate>
							<timebase>60</timebase>
							<ntsc>TRUE</ntsc>
						</rate>
						<rate>
							<timebase>60</timebase>
							<ntsc>TRUE</ntsc>
						</rate>
						<duration>6</duration>
						<start>8436</start>
						<end>8442</end>
						<in>0</in>
						<out>6</out>
					</clipitem>
					<clipitem frameBlend="FALSE" id="clipitem-telop-705">
						<file id="file-2"/>
						<name>テロップ705</name>
						<rate>
							<timebase>60</timebase>
							<ntsc>TRUE</ntsc>
						</rate>
						<rate>
							<timebase>60</timebase>
							<ntsc>TRUE</ntsc>
						</rate>
						<duration>6</duration>
						<start>8448</start>
						<end>8454</end>
						<in>0</in>
						<out>6</out>
					</clipitem>
				</track>
			</video>
			<audio>
				<track>
				</track>
			</audio>
		</media>
	</sequence>
</xmeml>