<?xml version="1.0" encoding="UTF-8"?>
<!DOCTYPE xmeml>
<xmeml version="4">
	<sequence id="sequence-1">
		<name>bandicam 2025-06-02 00-01-10-144</name>
		<duration>7074</duration>
		<rate>
			<timebase>60</timebase>
			<ntsc>TRUE</ntsc>
		</rate>
		<media>
			<video>
				<format/>
				<track>
					<clipitem frameBlend="FALSE" id="clipitem-1">
						<file id="file-1">
							<pathurl>file://localhost/data/raw/bandicam%202025-06-02%2000-01-10-144.mp4</pathurl>
							<name>bandicam 2025-06-02 00-01-10-144.mp4</name>
							<rate>
								<timebase>60</timebase>
								<ntsc>TRUE</ntsc>
							</rate>
							<duration>7074</duration>
							<timecode>
								<rate>
									<timebase>60</timebase>
									<ntsc>TRUE</ntsc>
								</rate>
								<string>00:00:00:00</string>
								<frame>0</frame>
								<displayformat>NDF</displayformat>
							</timecode>
							<media>
								<video/>
								<audio/>
							</media>
						</file>
						<name>bandicam 2025-06-02 00-01-10-144</name>
						<rate>
							<timebase>60</timebase>
							<ntsc>TRUE</ntsc>
						</rate>
						<rate>
							<timebase>60</timebase>
							<ntsc>TRUE</ntsc>
						</rate>
						<duration>12</duration>
						<start>0</start>
						<end>12</end>
						<in>12</in>
						<out>24</out>
					</clipitem>
					<clipitem frameBlend="FALSE" id="clipitem-2">
						<file id="file-1"/>
						<name>bandicam 2025-06-02 00-01-10-144</name>
						<rate>
							<timebase>60</timebase>
							<ntsc>TRUE</ntsc>
						</rate>
						<rate>
							<timebase>60</timebase>
							<ntsc>TRUE</ntsc>
						</rate>
						<duration>36</duration>
						<start>24</start>
						<end>60</end>
						<in>54</in>
						<out>90</out>
					</clipitem>
					<clipitem frameBlend="FALSE" id="clipitem-3">
						<file id="file-1"/>
						<name>bandicam 2025-06-02 00-01-10-144</name>
						<rate>
							<timebase>60</timebase>
							<ntsc>TRUE</ntsc>
						</rate>
						<rate>
							<timebase>60</timebase>
							<ntsc>TRUE</ntsc>
						</rate>
						<duration>18</duration>
						<start>90</start>
						<end>108</end>
						<in>108</in>
						<out>126</out>
					</clipitem>
					<clipitem frameBlend="FALSE" id="clipitem-4">
						<file id="file-1"/>
						<name>bandicam 2025-06-02 00-01-10-144</name>
						<rate>
							<timebase>60</timebase>
							<ntsc>TRUE</ntsc>
						</rate>
						<rate>
							<timebase>60</timebase>
							<ntsc>TRUE</ntsc>
						</rate>
						<duration>12</duration>
						<start>126</start>
						<end>138</end>
						<in>174</in>
						<out>186</out>
					</clipitem>
					<clipitem frameBlend="FALSE" id="clipitem-5">
						<file id="file-1"/>
						<name>bandicam 2025-06-02 00-01-10-144</name>
						<rate>
							<timebase>60</timebase>
							<ntsc>TRUE</ntsc>
						</rate>
						<rate>
							<timebase>60</timebase>
							<ntsc>TRUE</ntsc>
						</rate>
						<duration>0</duration>
						<start>186</start>
						<end>186</end>
						<in>300</in>
						<out>300</out>
					</clipitem>
					<clipitem frameBlend="FALSE" id="clipitem-6">
						<file id="file-1"/>
						<name>bandicam 2025-06-02 00-01-10-144</name>
						<rate>
							<timebase>60</timebase>
							<ntsc>TRUE</ntsc>
						</rate>
						<rate>
							<timebase>60</timebase>
							<ntsc>TRUE</ntsc>
						</rate>
						<duration>12</duration>
						<start>300</start>
						<end>312</end>
						<in>360</in>
						<out>372</out>
					</clipitem>
					<clipitem frameBlend="FALSE" id="clipitem-7">
						<file id="file-1"/>
						<name>bandicam 2025-06-02 00-01-10-144</name>
						<rate>
							<timebase>60</timebase>
							<ntsc>TRUE</ntsc>
						</rate>
						<rate>
							<timebase>60</timebase>
							<ntsc>TRUE</ntsc>
						</rate>
						<duration>0</duration>
						<start>372</start>
						<end>372</end>
						<in>438</in>
						<out>438</out>
					</clipitem>
					<clipitem frameBlend="FALSE" id="clipitem-8">
						<file id="file-1"/>
						<name>bandicam 2025-06-02 00-01-10-144</name>
						<rate>
							<timebase>60</timebase>
							<ntsc>TRUE</ntsc>
						</rate>
						<rate>
							<timebase>60</timebase>
							<ntsc>TRUE</ntsc>
						</rate>
						<duration>36</duration>
						<start>438</start>
						<end>474</end>
						<in>450</in>
						<out>486</out>
					</clipitem>
					<clipitem frameBlend="FALSE" id="clipitem-9">
						<file id="file-1"/>
						<name>bandicam 2025-06-02 00-01-10-144</name>
						<rate>
							<timebase>60</timebase>
							<ntsc>TRUE</ntsc>
						</rate>
						<rate>
							<timebase>60</timebase>
							<ntsc>TRUE</ntsc>
						</rate>
						<duration>0</duration>
						<start>486</start>
						<end>486</end>
						<in>504</in>
						<out>504</out>
					</clipitem>
					<clipitem frameBlend="FALSE" id="clipitem-10">
						<file id="file-1"/>
						<name>bandicam 2025-06-02 00-01-10-144</name>
						<rate>
							<timebase>60</timebase>
							<ntsc>TRUE</ntsc>
						</rate>
						<rate>
							<timebase>60</timebase>
							<ntsc>TRUE</ntsc>
						</rate>
						<duration>12</duration>
						<start>504</start>
						<end>516</end>
						<in>528</in>
						<out>540</out>
					</clipitem>
					<clipitem frameBlend="FALSE" id="clipitem-11">
						<file id="file-1"/>
						<name>bandicam 2025-06-02 00-01-10-144</name>
						<rate>
							<timebase>60</timebase>
							<ntsc>TRUE</ntsc>
						</rate>
						<rate>
							<timebase>60</timebase>
							<ntsc>TRUE</ntsc>
						</rate>
						<duration>24</duration>
						<start>540</start>
						<end>564</end>
						<in>582</in>
						<out>606</out>
					</clipitem>
					<clipitem frameBlend="FALSE" id="clipitem-12">
						<file id="file-1"/>
						<name>bandicam 2025-06-02 00-01-10-144</name>
						<rate>
							<timebase>60</timebase>
							<ntsc>TRUE</ntsc>
						</rate>
						<rate>
							<timebase>60</timebase>
							<ntsc>TRUE</ntsc>
						</rate>
						<duration>12</duration>
						<start>606</start>
						<end>618</end>
						<in>624</in>
						<out>636</out>
					</clipitem>
					<clipitem frameBlend="FALSE" id="clipitem-13">
						<file id="file-1"/>
						<name>bandicam 2025-06-02 00-01-10-144</name>
						<rate>
							<timebase>60</timebase>
							<ntsc>TRUE</ntsc>
						</rate>
						<rate>
							<timebase>60</timebase>
							<ntsc>TRUE</ntsc>
						</rate>
						<duration>0</duration>
						<start>636</start>
						<end>636</end>
						<in>852</in>
						<out>852</out>
					</clipitem>
					<clipitem frameBlend="FALSE" id="clipitem-14">
						<file id="file-1"/>
						<name>bandicam 2025-06-02 00-01-10-144</name>
						<rate>
							<timebase>60</timebase>
							<ntsc>TRUE</ntsc>
						</rate>
						<rate>
							<timebase>60</timebase>
							<ntsc>TRUE</ntsc>
						</rate>
						<duration>0</duration>
						<start>852</start>
						<end>852</end>
						<in>912</in>
						<out>912</out>
					</clipitem>
					<clipitem frameBlend="FALSE" id="clipitem-15">
						<file id="file-1"/>
						<name>bandicam 2025-06-02 00-01-10-144</name>
						<rate>
							<timebase>60</timebase>
							<ntsc>TRUE</ntsc>
						</rate>
						<rate>
							<timebase>60</timebase>
							<ntsc>TRUE</ntsc>
						</rate>
						<duration>0</duration>
						<start>912</start>
						<end>912</end>
						<in>936</in>
						<out>936</out>
					</clipitem>
					<clipitem frameBlend="FALSE" id="clipitem-16">
						<file id="file-1"/>
						<name>bandicam 2025-06-02 00-01-10-144</name>
						<rate>
							<timebase>60</timebase>
							<ntsc>TRUE</ntsc>
						</rate>
						<rate>
							<timebase>60</timebase>
							<ntsc>TRUE</ntsc>
						</rate>
						<duration>0</duration>
						<start>936</start>
						<end>936</end>
						<in>954</in>
						<out>954</out>
					</clipitem>
					<clipitem frameBlend="FALSE" id="clipitem-17">
						<file id="file-1"/>
						<name>bandicam 2025-06-02 00-01-10-144</name>
						<rate>
							<timebase>60</timebase>
							<ntsc>TRUE</ntsc>
						</rate>
						<rate>
							<timebase>60</timebase>
							<ntsc>TRUE</ntsc>
						</rate>
						<duration>12</duration>
						<start>954</start>
						<end>966</end>
						<in>984</in>
						<out>996</out>
					</clipitem>
					<clipitem frameBlend="FALSE" id="clipitem-18">
						<file id="file-1"/>
						<name>bandicam 2025-06-02 00-01-10-144</name>
						<rate>
							<timebase>60</timebase>
							<ntsc>TRUE</ntsc>
						</rate>
						<rate>
							<timebase>60</timebase>
							<ntsc>TRUE</ntsc>
						</rate>
						<duration>12</duration>
						<start>996</start>
						<end>1008</end>
						<in>1086</in>
						<out>1098</out>
					</clipitem>
					<clipitem frameBlend="FALSE" id="clipitem-19">
						<file id="file-1"/>
						<name>bandicam 2025-06-02 00-01-10-144</name>
						<rate>
							<timebase>60</timebase>
							<ntsc>TRUE</ntsc>
						</rate>
						<rate>
							<timebase>60</timebase>
							<ntsc>TRUE</ntsc>
						</rate>
						<duration>0</duration>
						<start>1098</start>
						<end>1098</end>
						<in>1194</in>
						<out>1194</out>
					</clipitem>
					<clipitem frameBlend="FALSE" id="clipitem-20">
						<file id="file-1"/>
						<name>bandicam 2025-06-02 00-01-10-144</name>
						<rate>
							<timebase>60</timebase>
							<ntsc>TRUE</ntsc>
						</rate>
						<rate>
							<timebase>60</timebase>
							<ntsc>TRUE</ntsc>
						</rate>
						<duration>12</duration>
						<start>1194</start>
						<end>1206</end>
						<in>1206</in>
						<out>1218</out>
					</clipitem>
					<clipitem frameBlend="FALSE" id="clipitem-21">
						<file id="file-1"/>
						<name>bandicam 2025-06-02 00-01-10-144</name>
						<rate>
							<timebase>60</timebase>
							<ntsc>TRUE</ntsc>
						</rate>
						<rate>
							<timebase>60</timebase>
							<ntsc>TRUE</ntsc>
						</rate>
						<duration>0</duration>
						<start>1218</start>
						<end>1218</end>
						<in>1320</in>
						<out>1320</out>
					</clipitem>
					<clipitem frameBlend="FALSE" id="clipitem-22">
						<file id="file-1"/>
						<name>bandicam 2025-06-02 00-01-10-144</name>
						<rate>
							<timebase>60</timebase>
							<ntsc>TRUE</ntsc>
						</rate>
						<rate>
							<timebase>60</timebase>
							<ntsc>TRUE</ntsc>
						</rate>
						<duration>0</duration>
						<start>1320</start>
						<end>1320</end>
						<in>1386</in>
						<out>1386</out>
					</clipitem>
					<clipitem frameBlend="FALSE" id="clipitem-23">
						<file id="file-1"/>
						<name>bandicam 2025-06-02 00-01-10-144</name>
						<rate>
							<timebase>60</timebase>
							<ntsc>TRUE</ntsc>
						</rate>
						<rate>
							<timebase>60</timebase>
							<ntsc>TRUE</ntsc>
						</rate>
						<duration>18</duration>
						<start>1386</start>
						<end>1404</end>
						<in>1404</in>
						<out>1422</out>
					</clipitem>
					<clipitem frameBlend="FALSE" id="clipitem-24">
						<file id="file-1"/>
						<name>bandicam 2025-06-02 00-01-10-144</name>
						<rate>
							<timebase>60</timebase>
							<ntsc>TRUE</ntsc>
						</rate>
						<rate>
							<timebase>60</timebase>
							<ntsc>TRUE</ntsc>
						</rate>
						<duration>12</duration>
						<start>1422</start>
						<end>1434</end>
						<in>1446</in>
						<out>1458</out>
					</clipitem>
					<clipitem frameBlend="FALSE" id="clipitem-25">
						<file id="file-1"/>
						<name>bandicam 2025-06-02 00-01-10-144</name>
						<rate>
							<timebase>60</timebase>
							<ntsc>TRUE</ntsc>
						</rate>
						<rate>
							<timebase>60</timebase>
							<ntsc>TRUE</ntsc>
						</rate>
						<duration>12</duration>
						<start>1458</start>
						<end>1470</end>
						<in>1566</in>
						<out>1578</out>
					</clipitem>
					<clipitem frameBlend="FALSE" id="clipitem-26">
						<file id="file-1"/>
						<name>bandicam 2025-06-02 00-01-10-144</name>
						<rate>
							<timebase>60</timebase>
							<ntsc>TRUE</ntsc>
						</rate>
						<rate>
							<timebase>60</timebase>
							<ntsc>TRUE</ntsc>
						</rate>
						<duration>30</duration>
						<start>1578</start>
						<end>1608</end>
						<in>1692</in>
						<out>1722</out>
					</clipitem>
					<clipitem frameBlend="FALSE" id="clipitem-27">
						<file id="file-1"/>
						<name>bandicam 2025-06-02 00-01-10-144</name>
						<rate>
							<timebase>60</timebase>
							<ntsc>TRUE</ntsc>
						</rate>
						<rate>
							<timebase>60</timebase>
							<ntsc>TRUE</ntsc>
						</rate>
						<duration>18</duration>
						<start>1722</start>
						<end>1740</end>
						<in>1746</in>
						<out>1764</out>
					</clipitem>
					<clipitem frameBlend="FALSE" id="clipitem-28">
						<file id="file-1"/>
						<name>bandicam 2025-06-02 00-01-10-144</name>
						<rate>
							<timebase>60</timebase>
							<ntsc>TRUE</ntsc>
						</rate>
						<rate>
							<timebase>60</timebase>
							<ntsc>TRUE</ntsc>
						</rate>
						<duration>0</duration>
						<start>1764</start>
						<end>1764</end>
						<in>1776</in>
						<out>1776</out>
					</clipitem>
					<clipitem frameBlend="FALSE" id="clipitem-29">
						<file id="file-1"/>
						<name>bandicam 2025-06-02 00-01-10-144</name>
						<rate>
							<timebase>60</timebase>
							<ntsc>TRUE</ntsc>
						</rate>
						<rate>
							<timebase>60</timebase>
							<ntsc>TRUE</ntsc>
						</rate>
						<duration>6</duration>
						<start>1776</start>
						<end>1782</end>
						<in>1812</in>
						<out>1818</out>
					</clipitem>
					<clipitem frameBlend="FALSE" id="clipitem-30">
						<file id="file-1"/>
						<name>bandicam 2025-06-02 00-01-10-144</name>
						<rate>
							<timebase>60</timebase>
							<ntsc>TRUE</ntsc>
						</rate>
						<rate>
							<timebase>60</timebase>
							<ntsc>TRUE</ntsc>
						</rate>
						<duration>0</duration>
						<start>1818</start>
						<end>1818</end>
						<in>1830</in>
						<out>1830</out>
					</clipitem>
					<clipitem frameBlend="FALSE" id="clipitem-31">
						<file id="file-1"/>
						<name>bandicam 2025-06-02 00-01-10-144</name>
						<rate>
							<timebase>60</timebase>
							<ntsc>TRUE</ntsc>
						</rate>
						<rate>
							<timebase>60</timebase>
							<ntsc>TRUE</ntsc>
						</rate>
						<duration>12</duration>
						<start>1830</start>
						<end>1842</end>
						<in>1842</in>
						<out>1854</out>
					</clipitem>
					<clipitem frameBlend="FALSE" id="clipitem-32">
						<file id="file-1"/>
						<name>bandicam 2025-06-02 00-01-10-144</name>
						<rate>
							<timebase>60</timebase>
							<ntsc>TRUE</ntsc>
						</rate>
						<rate>
							<timebase>60</timebase>
							<ntsc>TRUE</ntsc>
						</rate>
						<duration>0</duration>
						<start>1854</start>
						<end>1854</end>
						<in>1872</in>
						<out>1872</out>
					</clipitem>
					<clipitem frameBlend="FALSE" id="clipitem-33">
						<file id="file-1"/>
						<name>bandicam 2025-06-02 00-01-10-144</name>
						<rate>
							<timebase>60</timebase>
							<ntsc>TRUE</ntsc>
						</rate>
						<rate>
							<timebase>60</timebase>
							<ntsc>TRUE</ntsc>
						</rate>
						<duration>6</duration>
						<start>1872</start>
						<end>1878</end>
						<in>1884</in>
						<out>1890</out>
					</clipitem>
					<clipitem frameBlend="FALSE" id="clipitem-34">
						<file id="file-1"/>
						<name>bandicam 2025-06-02 00-01-10-144</name>
						<rate>
							<timebase>60</timebase>
							<ntsc>TRUE</ntsc>
						</rate>
						<rate>
							<timebase>60</timebase>
							<ntsc>TRUE</ntsc>
						</rate>
						<duration>12</duration>
						<start>1890</start>
						<end>1902</end>
						<in>1926</in>
						<out>1938</out>
					</clipitem>
					<clipitem frameBlend="FALSE" id="clipitem-35">
						<file id="file-1"/>
						<name>bandicam 2025-06-02 00-01-10-144</name>
						<rate>
							<timebase>60</timebase>
							<ntsc>TRUE</ntsc>
						</rate>
						<rate>
							<timebase>60</timebase>
							<ntsc>TRUE</ntsc>
						</rate>
						<duration>12</duration>
						<start>1938</start>
						<end>1950</end>
						<in>2178</in>
						<out>2190</out>
					</clipitem>
					<clipitem frameBlend="FALSE" id="clipitem-36">
						<file id="file-1"/>
						<name>bandicam 2025-06-02 00-01-10-144</name>
						<rate>
							<timebase>60</timebase>
							<ntsc>TRUE</ntsc>
						</rate>
						<rate>
							<timebase>60</timebase>
							<ntsc>TRUE</ntsc>
						</rate>
						<duration>12</duration>
						<start>2190</start>
						<end>2202</end>
						<in>2280</in>
						<out>2292</out>
					</clipitem>
					<clipitem frameBlend="FALSE" id="clipitem-37">
						<file id="file-1"/>
						<name>bandicam 2025-06-02 00-01-10-144</name>
						<rate>
							<timebase>60</timebase>
							<ntsc>TRUE</ntsc>
						</rate>
						<rate>
							<timebase>60</timebase>
							<ntsc>TRUE</ntsc>
						</rate>
						<duration>42</duration>
						<start>2292</start>
						<end>2334</end>
						<in>2304</in>
						<out>2346</out>
					</clipitem>
					<clipitem frameBlend="FALSE" id="clipitem-38">
						<file id="file-1"/>
						<name>bandicam 2025-06-02 00-01-10-144</name>
						<rate>
							<timebase>60</timebase>
							<ntsc>TRUE</ntsc>
						</rate>
						<rate>
							<timebase>60</timebase>
							<ntsc>TRUE</ntsc>
						</rate>
						<duration>12</duration>
						<start>2346</start>
						<end>2358</end>
						<in>2448</in>
						<out>2460</out>
					</clipitem>
					<clipitem frameBlend="FALSE" id="clipitem-39">
						<file id="file-1"/>
						<name>bandicam 2025-06-02 00-01-10-144</name>
						<rate>
							<timebase>60</timebase>
							<ntsc>TRUE</ntsc>
						</rate>
						<rate>
							<timebase>60</timebase>
							<ntsc>TRUE</ntsc>
						</rate>
						<duration>6</duration>
						<start>2460</start>
						<end>2466</end>
						<in>2478</in>
						<out>2484</out>
					</clipitem>
					<clipitem frameBlend="FALSE" id="clipitem-40">
						<file id="file-1"/>
						<name>bandicam 2025-06-02 00-01-10-144</name>
						<rate>
							<timebase>60</timebase>
							<ntsc>TRUE</ntsc>
						</rate>
						<rate>
							<timebase>60</timebase>
							<ntsc>TRUE</ntsc>
						</rate>
						<duration>6</duration>
						<start>2484</start>
						<end>2490</end>
						<in>2496</in>
						<out>2502</out>
					</clipitem>
					<clipitem frameBlend="FALSE" id="clipitem-41">
						<file id="file-1"/>
						<name>bandicam 2025-06-02 00-01-10-144</name>
						<rate>
							<timebase>60</timebase>
							<ntsc>TRUE</ntsc>
						</rate>
						<rate>
							<timebase>60</timebase>
							<ntsc>TRUE</ntsc>
						</rate>
						<duration>12</duration>
						<start>2502</start>
						<end>2514</end>
						<in>2538</in>
						<out>2550</out>
					</clipitem>
					<clipitem frameBlend="FALSE" id="clipitem-42">
						<file id="file-1"/>
						<name>bandicam 2025-06-02 00-01-10-144</name>
						<rate>
							<timebase>60</timebase>
							<ntsc>TRUE</ntsc>
						</rate>
						<rate>
							<timebase>60</timebase>
							<ntsc>TRUE</ntsc>
						</rate>
						<duration>6</duration>
						<start>2550</start>
						<end>2556</end>
						<in>2562</in>
						<out>2568</out>
					</clipitem>
					<clipitem frameBlend="FALSE" id="clipitem-43">
						<file id="file-1"/>
						<name>bandicam 2025-06-02 00-01-10-144</name>
						<rate>
							<timebase>60</timebase>
							<ntsc>TRUE</ntsc>
						</rate>
						<rate>
							<timebase>60</timebase>
							<ntsc>TRUE</ntsc>
						</rate>
						<duration>36</duration>
						<start>2568</start>
						<end>2604</end>
						<in>2592</in>
						<out>2628</out>
					</clipitem>
					<clipitem frameBlend="FALSE" id="clipitem-44">
						<file id="file-1"/>
						<name>bandicam 2025-06-02 00-01-10-144</name>
						<rate>
							<timebase>60</timebase>
							<ntsc>TRUE</ntsc>
						</rate>
						<rate>
							<timebase>60</timebase>
							<ntsc>TRUE</ntsc>
						</rate>
						<duration>24</duration>
						<start>2628</start>
						<end>2652</end>
						<in>2640</in>
						<out>2664</out>
					</clipitem>
					<clipitem frameBlend="FALSE" id="clipitem-45">
						<file id="file-1"/>
						<name>bandicam 2025-06-02 00-01-10-144</name>
						<rate>
							<timebase>60</timebase>
							<ntsc>TRUE</ntsc>
						</rate>
						<rate>
							<timebase>60</timebase>
							<ntsc>TRUE</ntsc>
						</rate>
						<duration>114</duration>
						<start>2664</start>
						<end>2778</end>
						<in>2724</in>
						<out>2838</out>
					</clipitem>
					<clipitem frameBlend="FALSE" id="clipitem-46">
						<file id="file-1"/>
						<name>bandicam 2025-06-02 00-01-10-144</name>
						<rate>
							<timebase>60</timebase>
							<ntsc>TRUE</ntsc>
						</rate>
						<rate>
							<timebase>60</timebase>
							<ntsc>TRUE</ntsc>
						</rate>
						<duration>18</duration>
						<start>2838</start>
						<end>2856</end>
						<in>2868</in>
						<out>2886</out>
					</clipitem>
					<clipitem frameBlend="FALSE" id="clipitem-47">
						<file id="file-1"/>
						<name>bandicam 2025-06-02 00-01-10-144</name>
						<rate>
							<timebase>60</timebase>
							<ntsc>TRUE</ntsc>
						</rate>
						<rate>
							<timebase>60</timebase>
							<ntsc>TRUE</ntsc>
						</rate>
						<duration>6</duration>
						<start>2886</start>
						<end>2892</end>
						<in>2904</in>
						<out>2910</out>
					</clipitem>
					<clipitem frameBlend="FALSE" id="clipitem-48">
						<file id="file-1"/>
						<name>bandicam 2025-06-02 00-01-10-144</name>
						<rate>
							<timebase>60</timebase>
							<ntsc>TRUE</ntsc>
						</rate>
						<rate>
							<timebase>60</timebase>
							<ntsc>TRUE</ntsc>
						</rate>
						<duration>0</duration>
						<start>2910</start>
						<end>2910</end>
						<in>2946</in>
						<out>2946</out>
					</clipitem>
					<clipitem frameBlend="FALSE" id="clipitem-49">
						<file id="file-1"/>
						<name>bandicam 2025-06-02 00-01-10-144</name>
						<rate>
							<timebase>60</timebase>
							<ntsc>TRUE</ntsc>
						</rate>
						<rate>
							<timebase>60</timebase>
							<ntsc>TRUE</ntsc>
						</rate>
						<duration>12</duration>
						<start>2946</start>
						<end>2958</end>
						<in>2964</in>
						<out>2976</out>
					</clipitem>
					<clipitem frameBlend="FALSE" id="clipitem-50">
						<file id="file-1"/>
						<name>bandicam 2025-06-02 00-01-10-144</name>
						<rate>
							<timebase>60</timebase>
							<ntsc>TRUE</ntsc>
						</rate>
						<rate>
							<timebase>60</timebase>
							<ntsc>TRUE</ntsc>
						</rate>
						<duration>42</duration>
						<start>2976</start>
						<end>3018</end>
						<in>3060</in>
						<out>3102</out>
					</clipitem>
					<clipitem frameBlend="FALSE" id="clipitem-51">
						<file id="file-1"/>
						<name>bandicam 2025-06-02 00-01-10-144</name>
						<rate>
							<timebase>60</timebase>
							<ntsc>TRUE</ntsc>
						</rate>
						<rate>
							<timebase>60</timebase>
							<ntsc>TRUE</ntsc>
						</rate>
						<duration>12</duration>
						<start>3102</start>
						<end>3114</end>
						<in>3120</in>
						<out>3132</out>
					</clipitem>
					<clipitem frameBlend="FALSE" id="clipitem-52">
						<file id="file-1"/>
						<name>bandicam 2025-06-02 00-01-10-144</name>
						<rate>
							<timebase>60</timebase>
							<ntsc>TRUE</ntsc>
						</rate>
						<rate>
							<timebase>60</timebase>
							<ntsc>TRUE</ntsc>
						</rate>
						<duration>12</duration>
						<start>3132</start>
						<end>3144</end>
						<in>3228</in>
						<out>3240</out>
					</clipitem>
					<clipitem frameBlend="FALSE" id="clipitem-53">
						<file id="file-1"/>
						<name>bandicam 2025-06-02 00-01-10-144</name>
						<rate>
							<timebase>60</timebase>
							<ntsc>TRUE</ntsc>
						</rate>
						<rate>
							<timebase>60</timebase>
							<ntsc>TRUE</ntsc>
						</rate>
						<duration>24</duration>
						<start>3240</start>
						<end>3264</end>
						<in>3270</in>
						<out>3294</out>
					</clipitem>
					<clipitem frameBlend="FALSE" id="clipitem-54">
						<file id="file-1"/>
						<name>bandicam 2025-06-02 00-01-10-144</name>
						<rate>
							<timebase>60</timebase>
							<ntsc>TRUE</ntsc>
						</rate>
						<rate>
							<timebase>60</timebase>
							<ntsc>TRUE</ntsc>
						</rate>
						<duration>0</duration>
						<start>3294</start>
						<end>3294</end>
						<in>3306</in>
						<out>3306</out>
					</clipitem>
					<clipitem frameBlend="FALSE" id="clipitem-55">
						<file id="file-1"/>
						<name>bandicam 2025-06-02 00-01-10-144</name>
						<rate>
							<timebase>60</timebase>
							<ntsc>TRUE</ntsc>
						</rate>
						<rate>
							<timebase>60</timebase>
							<ntsc>TRUE</ntsc>
						</rate>
						<duration>12</duration>
						<start>3306</start>
						<end>3318</end>
						<in>3372</in>
						<out>3384</out>
					</clipitem>
					<clipitem frameBlend="FALSE" id="clipitem-56">
						<file id="file-1"/>
						<name>bandicam 2025-06-02 00-01-10-144</name>
						<rate>
							<timebase>60</timebase>
							<ntsc>TRUE</ntsc>
						</rate>
						<rate>
							<timebase>60</timebase>
							<ntsc>TRUE</ntsc>
						</rate>
						<duration>24</duration>
						<start>3384</start>
						<end>3408</end>
						<in>3450</in>
						<out>3474</out>
					</clipitem>
					<clipitem frameBlend="FALSE" id="clipitem-57">
						<file id="file-1"/>
						<name>bandicam 2025-06-02 00-01-10-144</name>
						<rate>
							<timebase>60</timebase>
							<ntsc>TRUE</ntsc>
						</rate>
						<rate>
							<timebase>60</timebase>
							<ntsc>TRUE</ntsc>
						</rate>
						<duration>12</duration>
						<start>3474</start>
						<end>3486</end>
						<in>3498</in>
						<out>3510</out>
					</clipitem>
					<clipitem frameBlend="FALSE" id="clipitem-58">
						<file id="file-1"/>
						<name>bandicam 2025-06-02 00-01-10-144</name>
						<rate>
							<timebase>60</timebase>
							<ntsc>TRUE</ntsc>
						</rate>
						<rate>
							<timebase>60</timebase>
							<ntsc>TRUE</ntsc>
						</rate>
						<duration>0</duration>
						<start>3510</start>
						<end>3510</end>
						<in>3582</in>
						<out>3582</out>
					</clipitem>
					<clipitem frameBlend="FALSE" id="clipitem-59">
						<file id="file-1"/>
						<name>bandicam 2025-06-02 00-01-10-144</name>
						<rate>
							<timebase>60</timebase>
							<ntsc>TRUE</ntsc>
						</rate>
						<rate>
							<timebase>60</timebase>
							<ntsc>TRUE</ntsc>
						</rate>
						<duration>18</duration>
						<start>3582</start>
						<end>3600</end>
						<in>3624</in>
						<out>3642</out>
					</clipitem>
					<clipitem frameBlend="FALSE" id="clipitem-60">
						<file id="file-1"/>
						<name>bandicam 2025-06-02 00-01-10-144</name>
						<rate>
							<timebase>60</timebase>
							<ntsc>TRUE</ntsc>
						</rate>
						<rate>
							<timebase>60</timebase>
							<ntsc>TRUE</ntsc>
						</rate>
						<duration>0</duration>
						<start>3642</start>
						<end>3642</end>
						<in>3696</in>
						<out>3696</out>
					</clipitem>
					<clipitem frameBlend="FALSE" id="clipitem-61">
						<file id="file-1"/>
						<name>bandicam 2025-06-02 00-01-10-144</name>
						<rate>
							<timebase>60</timebase>
							<ntsc>TRUE</ntsc>
						</rate>
						<rate>
							<timebase>60</timebase>
							<ntsc>TRUE</ntsc>
						</rate>
						<duration>12</duration>
						<start>3696</start>
						<end>3708</end>
						<in>3768</in>
						<out>3780</out>
					</clipitem>
					<clipitem frameBlend="FALSE" id="clipitem-62">
						<file id="file-1"/>
						<name>bandicam 2025-06-02 00-01-10-144</name>
						<rate>
							<timebase>60</timebase>
							<ntsc>TRUE</ntsc>
						</rate>
						<rate>
							<timebase>60</timebase>
							<ntsc>TRUE</ntsc>
						</rate>
						<duration>12</duration>
						<start>3780</start>
						<end>3792</end>
						<in>3852</in>
						<out>3864</out>
					</clipitem>
					<clipitem frameBlend="FALSE" id="clipitem-63">
						<file id="file-1"/>
						<name>bandicam 2025-06-02 00-01-10-144</name>
						<rate>
							<timebase>60</timebase>
							<ntsc>TRUE</ntsc>
						</rate>
						<rate>
							<timebase>60</timebase>
							<ntsc>TRUE</ntsc>
						</rate>
						<duration>12</duration>
						<start>3864</start>
						<end>3876</end>
						<in>3906</in>
						<out>3918</out>
					</clipitem>
					<clipitem frameBlend="FALSE" id="clipitem-64">
						<file id="file-1"/>
						<name>bandicam 2025-06-02 00-01-10-144</name>
						<rate>
							<timebase>60</timebase>
							<ntsc>TRUE</ntsc>
						</rate>
						<rate>
							<timebase>60</timebase>
							<ntsc>TRUE</ntsc>
						</rate>
						<duration>6</duration>
						<start>3918</start>
						<end>3924</end>
						<in>4026</in>
						<out>4032</out>
					</clipitem>
					<clipitem frameBlend="FALSE" id="clipitem-65">
						<file id="file-1"/>
						<name>bandicam 2025-06-02 00-01-10-144</name>
						<rate>
							<timebase>60</timebase>
							<ntsc>TRUE</ntsc>
						</rate>
						<rate>
							<timebase>60</timebase>
							<ntsc>TRUE</ntsc>
						</rate>
						<duration>0</duration>
						<start>4032</start>
						<end>4032</end>
						<in>4044</in>
						<out>4044</out>
					</clipitem>
					<clipitem frameBlend="FALSE" id="clipitem-66">
						<file id="file-1"/>
						<name>bandicam 2025-06-02 00-01-10-144</name>
						<rate>
							<timebase>60</timebase>
							<ntsc>TRUE</ntsc>
						</rate>
						<rate>
							<timebase>60</timebase>
							<ntsc>TRUE</ntsc>
						</rate>
						<duration>24</duration>
						<start>4044</start>
						<end>4068</end>
						<in>4086</in>
						<out>4110</out>
					</clipitem>
					<clipitem frameBlend="FALSE" id="clipitem-67">
						<file id="file-1"/>
						<name>bandicam 2025-06-02 00-01-10-144</name>
						<rate>
							<timebase>60</timebase>
							<ntsc>TRUE</ntsc>
						</rate>
						<rate>
							<timebase>60</timebase>
							<ntsc>TRUE</ntsc>
						</rate>
						<duration>24</duration>
						<start>4110</start>
						<end>4134</end>
						<in>4128</in>
						<out>4152</out>
					</clipitem>
					<clipitem frameBlend="FALSE" id="clipitem-68">
						<file id="file-1"/>
						<name>bandicam 2025-06-02 00-01-10-144</name>
						<rate>
							<timebase>60</timebase>
							<ntsc>TRUE</ntsc>
						</rate>
						<rate>
							<timebase>60</timebase>
							<ntsc>TRUE</ntsc>
						</rate>
						<duration>12</duration>
						<start>4152</start>
						<end>4164</end>
						<in>4188</in>
						<out>4200</out>
					</clipitem>
					<clipitem frameBlend="FALSE" id="clipitem-69">
						<file id="file-1"/>
						<name>bandicam 2025-06-02 00-01-10-144</name>
						<rate>
							<timebase>60</timebase>
							<ntsc>TRUE</ntsc>
						</rate>
						<rate>
							<timebase>60</timebase>
							<ntsc>TRUE</ntsc>
						</rate>
						<duration>36</duration>
						<start>4200</start>
						<end>4236</end>
						<in>4230</in>
						<out>4266</out>
					</clipitem>
					<clipitem frameBlend="FALSE" id="clipitem-70">
						<file id="file-1"/>
						<name>bandicam 2025-06-02 00-01-10-144</name>
						<rate>
							<timebase>60</timebase>
							<ntsc>TRUE</ntsc>
						</rate>
						<rate>
							<timebase>60</timebase>
							<ntsc>TRUE</ntsc>
						</rate>
						<duration>132</duration>
						<start>4266</start>
						<end>4398</end>
						<in>4302</in>
						<out>4434</out>
					</clipitem>
					<clipitem frameBlend="FALSE" id="clipitem-71">
						<file id="file-1"/>
						<name>bandicam 2025-06-02 00-01-10-144</name>
						<rate>
							<timebase>60</timebase>
							<ntsc>TRUE</ntsc>
						</rate>
						<rate>
							<timebase>60</timebase>
							<ntsc>TRUE</ntsc>
						</rate>
						<duration>12</duration>
						<start>4434</start>
						<end>4446</end>
						<in>4470</in>
						<out>4482</out>
					</clipitem>
					<clipitem frameBlend="FALSE" id="clipitem-72">
						<file id="file-1"/>
						<name>bandicam 2025-06-02 00-01-10-144</name>
						<rate>
							<timebase>60</timebase>
							<ntsc>TRUE</ntsc>
						</rate>
						<rate>
							<timebase>60</timebase>
							<ntsc>TRUE</ntsc>
						</rate>
						<duration>48</duration>
						<start>4482</start>
						<end>4530</end>
						<in>4506</in>
						<out>4554</out>
					</clipitem>
					<clipitem frameBlend="FALSE" id="clipitem-73">
						<file id="file-1"/>
						<name>bandicam 2025-06-02 00-01-10-144</name>
						<rate>
							<timebase>60</timebase>
							<ntsc>TRUE</ntsc>
						</rate>
						<rate>
							<timebase>60</timebase>
							<ntsc>TRUE</ntsc>
						</rate>
						<duration>30</duration>
						<start>4554</start>
						<end>4584</end>
						<in>4602</in>
						<out>4632</out>
					</clipitem>
					<clipitem frameBlend="FALSE" id="clipitem-74">
						<file id="file-1"/>
						<name>bandicam 2025-06-02 00-01-10-144</name>
						<rate>
							<timebase>60</timebase>
							<ntsc>TRUE</ntsc>
						</rate>
						<rate>
							<timebase>60</timebase>
							<ntsc>TRUE</ntsc>
						</rate>
						<duration>12</duration>
						<start>4632</start>
						<end>4644</end>
						<in>4650</in>
						<out>4662</out>
					</clipitem>
					<clipitem frameBlend="FALSE" id="clipitem-75">
						<file id="file-1"/>
						<name>bandicam 2025-06-02 00-01-10-144</name>
						<rate>
							<timebase>60</timebase>
							<ntsc>TRUE</ntsc>
						</rate>
						<rate>
							<timebase>60</timebase>
							<ntsc>TRUE</ntsc>
						</rate>
						<duration>0</duration>
						<start>4662</start>
						<end>4662</end>
						<in>4704</in>
						<out>4704</out>
					</clipitem>
					<clipitem frameBlend="FALSE" id="clipitem-76">
						<file id="file-1"/>
						<name>bandicam 2025-06-02 00-01-10-144</name>
						<rate>
							<timebase>60</timebase>
							<ntsc>TRUE</ntsc>
						</rate>
						<rate>
							<timebase>60</timebase>
							<ntsc>TRUE</ntsc>
						</rate>
						<duration>48</duration>
						<start>4704</start>
						<end>4752</end>
						<in>4722</in>
						<out>4770</out>
					</clipitem>
					<clipitem frameBlend="FALSE" id="clipitem-77">
						<file id="file-1"/>
						<name>bandicam 2025-06-02 00-01-10-144</name>
						<rate>
							<timebase>60</timebase>
							<ntsc>TRUE</ntsc>
						</rate>
						<rate>
							<timebase>60</timebase>
							<ntsc>TRUE</ntsc>
						</rate>
						<duration>12</duration>
						<start>4770</start>
						<end>4782</end>
						<in>4788</in>
						<out>4800</out>
					</clipitem>
					<clipitem frameBlend="FALSE" id="clipitem-78">
						<file id="file-1"/>
						<name>bandicam 2025-06-02 00-01-10-144</name>
						<rate>
							<timebase>60</timebase>
							<ntsc>TRUE</ntsc>
						</rate>
						<rate>
							<timebase>60</timebase>
							<ntsc>TRUE</ntsc>
						</rate>
						<duration>0</duration>
						<start>4800</start>
						<end>4800</end>
						<in>4848</in>
						<out>4848</out>
					</clipitem>
					<clipitem frameBlend="FALSE" id="clipitem-79">
						<file id="file-1"/>
						<name>bandicam 2025-06-02 00-01-10-144</name>
						<rate>
							<timebase>60</timebase>
							<ntsc>TRUE</ntsc>
						</rate>
						<rate>
							<timebase>60</timebase>
							<ntsc>TRUE</ntsc>
						</rate>
						<duration>12</duration>
						<start>4848</start>
						<end>4860</end>
						<in>4860</in>
						<out>4872</out>
					</clipitem>
					<clipitem frameBlend="FALSE" id="clipitem-80">
						<file id="file-1"/>
						<name>bandicam 2025-06-02 00-01-10-144</name>
						<rate>
							<timebase>60</timebase>
							<ntsc>TRUE</ntsc>
						</rate>
						<rate>
							<timebase>60</timebase>
							<ntsc>TRUE</ntsc>
						</rate>
						<duration>6</duration>
						<start>4872</start>
						<end>4878</end>
						<in>4890</in>
						<out>4896</out>
					</clipitem>
					<clipitem frameBlend="FALSE" id="clipitem-81">
						<file id="file-1"/>
						<name>bandicam 2025-06-02 00-01-10-144</name>
						<rate>
							<timebase>60</timebase>
							<ntsc>TRUE</ntsc>
						</rate>
						<rate>
							<timebase>60</timebase>
							<ntsc>TRUE</ntsc>
						</rate>
						<duration>12</duration>
						<start>4896</start>
						<end>4908</end>
						<in>4908</in>
						<out>4920</out>
					</clipitem>
					<clipitem frameBlend="FALSE" id="clipitem-82">
						<file id="file-1"/>
						<name>bandicam 2025-06-02 00-01-10-144</name>
						<rate>
							<timebase>60</timebase>
							<ntsc>TRUE</ntsc>
						</rate>
						<rate>
							<timebase>60</timebase>
							<ntsc>TRUE</ntsc>
						</rate>
						<duration>12</duration>
						<start>4920</start>
						<end>4932</end>
						<in>4944</in>
						<out>4956</out>
					</clipitem>
					<clipitem frameBlend="FALSE" id="clipitem-83">
						<file id="file-1"/>
						<name>bandicam 2025-06-02 00-01-10-144</name>
						<rate>
							<timebase>60</timebase>
							<ntsc>TRUE</ntsc>
						</rate>
						<rate>
							<timebase>60</timebase>
							<ntsc>TRUE</ntsc>
						</rate>
						<duration>6</duration>
						<start>4956</start>
						<end>4962</end>
						<in>4968</in>
						<out>4974</out>
					</clipitem>
					<clipitem frameBlend="FALSE" id="clipitem-84">
						<file id="file-1"/>
						<name>bandicam 2025-06-02 00-01-10-144</name>
						<rate>
							<timebase>60</timebase>
							<ntsc>TRUE</ntsc>
						</rate>
						<rate>
							<timebase>60</timebase>
							<ntsc>TRUE</ntsc>
						</rate>
						<duration>12</duration>
						<start>4974</start>
						<end>4986</end>
						<in>5022</in>
						<out>5034</out>
					</clipitem>
					<clipitem frameBlend="FALSE" id="clipitem-85">
						<file id="file-1"/>
						<name>bandicam 2025-06-02 00-01-10-144</name>
						<rate>
							<timebase>60</timebase>
							<ntsc>TRUE</ntsc>
						</rate>
						<rate>
							<timebase>60</timebase>
							<ntsc>TRUE</ntsc>
						</rate>
						<duration>6</duration>
						<start>5034</start>
						<end>5040</end>
						<in>5064</in>
						<out>5070</out>
					</clipitem>
					<clipitem frameBlend="FALSE" id="clipitem-86">
						<file id="file-1"/>
						<name>bandicam 2025-06-02 00-01-10-144</name>
						<rate>
							<timebase>60</timebase>
							<ntsc>TRUE</ntsc>
						</rate>
						<rate>
							<timebase>60</timebase>
							<ntsc>TRUE</ntsc>
						</rate>
						<duration>0</duration>
						<start>5070</start>
						<end>5070</end>
						<in>5082</in>
						<out>5082</out>
					</clipitem>
					<clipitem frameBlend="FALSE" id="clipitem-87">
						<file id="file-1"/>
						<name>bandicam 2025-06-02 00-01-10-144</name>
						<rate>
							<timebase>60</timebase>
							<ntsc>TRUE</ntsc>
						</rate>
						<rate>
							<timebase>60</timebase>
							<ntsc>TRUE</ntsc>
						</rate>
						<duration>84</duration>
						<start>5082</start>
						<end>5166</end>
						<in>5094</in>
						<out>5178</out>
					</clipitem>
					<clipitem frameBlend="FALSE" id="clipitem-88">
						<file id="file-1"/>
						<name>bandicam 2025-06-02 00-01-10-144</name>
						<rate>
							<timebase>60</timebase>
							<ntsc>TRUE</ntsc>
						</rate>
						<rate>
							<timebase>60</timebase>
							<ntsc>TRUE</ntsc>
						</rate>
						<duration>12</duration>
						<start>5178</start>
						<end>5190</end>
						<in>5232</in>
						<out>5244</out>
					</clipitem>
					<clipitem frameBlend="FALSE" id="clipitem-89">
						<file id="file-1"/>
						<name>bandicam 2025-06-02 00-01-10-144</name>
						<rate>
							<timebase>60</timebase>
							<ntsc>TRUE</ntsc>
						</rate>
						<rate>
							<timebase>60</timebase>
							<ntsc>TRUE</ntsc>
						</rate>
						<duration>12</duration>
						<start>5244</start>
						<end>5256</end>
						<in>5328</in>
						<out>5340</out>
					</clipitem>
					<clipitem frameBlend="FALSE" id="clipitem-90">
						<file id="file-1"/>
						<name>bandicam 2025-06-02 00-01-10-144</name>
						<rate>
							<timebase>60</timebase>
							<ntsc>TRUE</ntsc>
						</rate>
						<rate>
							<timebase>60</timebase>
							<ntsc>TRUE</ntsc>
						</rate>
						<duration>12</duration>
						<start>5340</start>
						<end>5352</end>
						<in>5382</in>
						<out>5394</out>
					</clipitem>
					<clipitem frameBlend="FALSE" id="clipitem-91">
						<file id="file-1"/>
						<name>bandicam 2025-06-02 00-01-10-144</name>
						<rate>
							<timebase>60</timebase>
							<ntsc>TRUE</ntsc>
						</rate>
						<rate>
							<timebase>60</timebase>
							<ntsc>TRUE</ntsc>
						</rate>
						<duration>36</duration>
						<start>5394</start>
						<end>5430</end>
						<in>5412</in>
						<out>5448</out>
					</clipitem>
					<clipitem frameBlend="FALSE" id="clipitem-92">
						<file id="file-1"/>
						<name>bandicam 2025-06-02 00-01-10-144</name>
						<rate>
							<timebase>60</timebase>
							<ntsc>TRUE</ntsc>
						</rate>
						<rate>
							<timebase>60</timebase>
							<ntsc>TRUE</ntsc>
						</rate>
						<duration>0</duration>
						<start>5448</start>
						<end>5448</end>
						<in>5466</in>
						<out>5466</out>
					</clipitem>
					<clipitem frameBlend="FALSE" id="clipitem-93">
						<file id="file-1"/>
						<name>bandicam 2025-06-02 00-01-10-144</name>
						<rate>
							<timebase>60</timebase>
							<ntsc>TRUE</ntsc>
						</rate>
						<rate>
							<timebase>60</timebase>
							<ntsc>TRUE</ntsc>
						</rate>
						<duration>12</duration>
						<start>5466</start>
						<end>5478</end>
						<in>5490</in>
						<out>5502</out>
					</clipitem>
					<clipitem frameBlend="FALSE" id="clipitem-94">
						<file id="file-1"/>
						<name>bandicam 2025-06-02 00-01-10-144</name>
						<rate>
							<timebase>60</timebase>
							<ntsc>TRUE</ntsc>
						</rate>
						<rate>
							<timebase>60</timebase>
							<ntsc>TRUE</ntsc>
						</rate>
						<duration>0</duration>
						<start>5502</start>
						<end>5502</end>
						<in>5520</in>
						<out>5520</out>
					</clipitem>
					<clipitem frameBlend="FALSE" id="clipitem-95">
						<file id="file-1"/>
						<name>bandicam 2025-06-02 00-01-10-144</name>
						<rate>
							<timebase>60</timebase>
							<ntsc>TRUE</ntsc>
						</rate>
						<rate>
							<timebase>60</timebase>
							<ntsc>TRUE</ntsc>
						</rate>
						<duration>0</duration>
						<start>5520</start>
						<end>5520</end>
						<in>5532</in>
						<out>5532</out>
					</clipitem>
					<clipitem frameBlend="FALSE" id="clipitem-96">
						<file id="file-1"/>
						<name>bandicam 2025-06-02 00-01-10-144</name>
						<rate>
							<timebase>60</timebase>
							<ntsc>TRUE</ntsc>
						</rate>
						<rate>
							<timebase>60</timebase>
							<ntsc>TRUE</ntsc>
						</rate>
						<duration>6</duration>
						<start>5532</start>
						<end>5538</end>
						<in>5544</in>
						<out>5550</out>
					</clipitem>
					<clipitem frameBlend="FALSE" id="clipitem-97">
						<file id="file-1"/>
						<name>bandicam 2025-06-02 00-01-10-144</name>
						<rate>
							<timebase>60</timebase>
							<ntsc>TRUE</ntsc>
						</rate>
						<rate>
							<timebase>60</timebase>
							<ntsc>TRUE</ntsc>
						</rate>
						<duration>12</duration>
						<start>5550</start>
						<end>5562</end>
						<in>5580</in>
						<out>5592</out>
					</clipitem>
					<clipitem frameBlend="FALSE" id="clipitem-98">
						<file id="file-1"/>
						<name>bandicam 2025-06-02 00-01-10-144</name>
						<rate>
							<timebase>60</timebase>
							<ntsc>TRUE</ntsc>
						</rate>
						<rate>
							<timebase>60</timebase>
							<ntsc>TRUE</ntsc>
						</rate>
						<duration>12</duration>
						<start>5592</start>
						<end>5604</end>
						<in>5628</in>
						<out>5640</out>
					</clipitem>
					<clipitem frameBlend="FALSE" id="clipitem-99">
						<file id="file-1"/>
						<name>bandicam 2025-06-02 00-01-10-144</name>
						<rate>
							<timebase>60</timebase>
							<ntsc>TRUE</ntsc>
						</rate>
						<rate>
							<timebase>60</timebase>
							<ntsc>TRUE</ntsc>
						</rate>
						<duration>30</duration>
						<start>5640</start>
						<end>5670</end>
						<in>5664</in>
						<out>5694</out>
					</clipitem>
					<clipitem frameBlend="FALSE" id="clipitem-100">
						<file id="file-1"/>
						<name>bandicam 2025-06-02 00-01-10-144</name>
						<rate>
							<timebase>60</timebase>
							<ntsc>TRUE</ntsc>
						</rate>
						<rate>
							<timebase>60</timebase>
							<ntsc>TRUE</ntsc>
						</rate>
						<duration>0</duration>
						<start>5694</start>
						<end>5694</end>
						<in>5724</in>
						<out>5724</out>
					</clipitem>
					<clipitem frameBlend="FALSE" id="clipitem-101">
						<file id="file-1"/>
						<name>bandicam 2025-06-02 00-01-10-144</name>
						<rate>
							<timebase>60</timebase>
							<ntsc>TRUE</ntsc>
						</rate>
						<rate>
							<timebase>60</timebase>
							<ntsc>TRUE</ntsc>
						</rate>
						<duration>24</duration>
						<start>5724</start>
						<end>5748</end>
						<in>5754</in>
						<out>5778</out>
					</clipitem>
					<clipitem frameBlend="FALSE" id="clipitem-102">
						<file id="file-1"/>
						<name>bandicam 2025-06-02 00-01-10-144</name>
						<rate>
							<timebase>60</timebase>
							<ntsc>TRUE</ntsc>
						</rate>
						<rate>
							<timebase>60</timebase>
							<ntsc>TRUE</ntsc>
						</rate>
						<duration>90</duration>
						<start>5778</start>
						<end>5868</end>
						<in>5802</in>
						<out>5892</out>
					</clipitem>
					<clipitem frameBlend="FALSE" id="clipitem-103">
						<file id="file-1"/>
						<name>bandicam 2025-06-02 00-01-10-144</name>
						<rate>
							<timebase>60</timebase>
							<ntsc>TRUE</ntsc>
						</rate>
						<rate>
							<timebase>60</timebase>
							<ntsc>TRUE</ntsc>
						</rate>
						<duration>66</duration>
						<start>5892</start>
						<end>5958</end>
						<in>5910</in>
						<out>5976</out>
					</clipitem>
					<clipitem frameBlend="FALSE" id="clipitem-104">
						<file id="file-1"/>
						<name>bandicam 2025-06-02 00-01-10-144</name>
						<rate>
							<timebase>60</timebase>
							<ntsc>TRUE</ntsc>
						</rate>
						<rate>
							<timebase>60</timebase>
							<ntsc>TRUE</ntsc>
						</rate>
						<duration>36</duration>
						<start>5976</start>
						<end>6012</end>
						<in>6000</in>
						<out>6036</out>
					</clipitem>
					<clipitem frameBlend="FALSE" id="clipitem-105">
						<file id="file-1"/>
						<name>bandicam 2025-06-02 00-01-10-144</name>
						<rate>
							<timebase>60</timebase>
							<ntsc>TRUE</ntsc>
						</rate>
						<rate>
							<timebase>60</timebase>
							<ntsc>TRUE</ntsc>
						</rate>
						<duration>12</duration>
						<start>6036</start>
						<end>6048</end>
						<in>6054</in>
						<out>6066</out>
					</clipitem>
					<clipitem frameBlend="FALSE" id="clipitem-106">
						<file id="file-1"/>
						<name>bandicam 2025-06-02 00-01-10-144</name>
						<rate>
							<timebase>60</timebase>
							<ntsc>TRUE</ntsc>
						</rate>
						<rate>
							<timebase>60</timebase>
							<ntsc>TRUE</ntsc>
						</rate>
						<duration>0</duration>
						<start>6066</start>
						<end>6066</end>
						<in>6132</in>
						<out>6132</out>
					</clipitem>
					<clipitem frameBlend="FALSE" id="clipitem-107">
						<file id="file-1"/>
						<name>bandicam 2025-06-02 00-01-10-144</name>
						<rate>
							<timebase>60</timebase>
							<ntsc>TRUE</ntsc>
						</rate>
						<rate>
							<timebase>60</timebase>
							<ntsc>TRUE</ntsc>
						</rate>
						<duration>48</duration>
						<start>6132</start>
						<end>6180</end>
						<in>6156</in>
						<out>6204</out>
					</clipitem>
					<clipitem frameBlend="FALSE" id="clipitem-108">
						<file id="file-1"/>
						<name>bandicam 2025-06-02 00-01-10-144</name>
						<rate>
							<timebase>60</timebase>
							<ntsc>TRUE</ntsc>
						</rate>
						<rate>
							<timebase>60</timebase>
							<ntsc>TRUE</ntsc>
						</rate>
						<duration>30</duration>
						<start>6204</start>
						<end>6234</end>
						<in>6222</in>
						<out>6252</out>
					</clipitem>
					<clipitem frameBlend="FALSE" id="clipitem-109">
						<file id="file-1"/>
						<name>bandicam 2025-06-02 00-01-10-144</name>
						<rate>
							<timebase>60</timebase>
							<ntsc>TRUE</ntsc>
						</rate>
						<rate>
							<timebase>60</timebase>
							<ntsc>TRUE</ntsc>
						</rate>
						<duration>0</duration>
						<start>6252</start>
						<end>6252</end>
						<in>6282</in>
						<out>6282</out>
					</clipitem>
					<clipitem frameBlend="FALSE" id="clipitem-110">
						<file id="file-1"/>
						<name>bandicam 2025-06-02 00-01-10-144</name>
						<rate>
							<timebase>60</timebase>
							<ntsc>TRUE</ntsc>
						</rate>
						<rate>
							<timebase>60</timebase>
							<ntsc>TRUE</ntsc>
						</rate>
						<duration>12</duration>
						<start>6282</start>
						<end>6294</end>
						<in>6312</in>
						<out>6324</out>
					</clipitem>
					<clipitem frameBlend="FALSE" id="clipitem-111">
						<file id="file-1"/>
						<name>bandicam 2025-06-02 00-01-10-144</name>
						<rate>
							<timebase>60</timebase>
							<ntsc>TRUE</ntsc>
						</rate>
						<rate>
							<timebase>60</timebase>
							<ntsc>TRUE</ntsc>
						</rate>
						<duration>12</duration>
						<start>6324</start>
						<end>6336</end>
						<in>6384</in>
						<out>6396</out>
					</clipitem>
					<clipitem frameBlend="FALSE" id="clipitem-112">
						<file id="file-1"/>
						<name>bandicam 2025-06-02 00-01-10-144</name>
						<rate>
							<timebase>60</timebase>
							<ntsc>TRUE</ntsc>
						</rate>
						<rate>
							<timebase>60</timebase>
							<ntsc>TRUE</ntsc>
						</rate>
						<duration>12</duration>
						<start>6396</start>
						<end>6408</end>
						<in>6432</in>
						<out>6444</out>
					</clipitem>
					<clipitem frameBlend="FALSE" id="clipitem-113">
						<file id="file-1"/>
						<name>bandicam 2025-06-02 00-01-10-144</name>
						<rate>
							<timebase>60</timebase>
							<ntsc>TRUE</ntsc>
						</rate>
						<rate>
							<timebase>60</timebase>
							<ntsc>TRUE</ntsc>
						</rate>
						<duration>0</duration>
						<start>6444</start>
						<end>6444</end>
						<in>6486</in>
						<out>6486</out>
					</clipitem>
					<clipitem frameBlend="FALSE" id="clipitem-114">
						<file id="file-1"/>
						<name>bandicam 2025-06-02 00-01-10-144</name>
						<rate>
							<timebase>60</timebase>
							<ntsc>TRUE</ntsc>
						</rate>
						<rate>
							<timebase>60</timebase>
							<ntsc>TRUE</ntsc>
						</rate>
						<duration>36</duration>
						<start>6486</start>
						<end>6522</end>
						<in>6498</in>
						<out>6534</out>
					</clipitem>
					<clipitem frameBlend="FALSE" id="clipitem-115">
						<file id="file-1"/>
						<name>bandicam 2025-06-02 00-01-10-144</name>
						<rate>
							<timebase>60</timebase>
							<ntsc>TRUE</ntsc>
						</rate>
						<rate>
							<timebase>60</timebase>
							<ntsc>TRUE</ntsc>
						</rate>
						<duration>6</duration>
						<start>6534</start>
						<end>6540</end>
						<in>6576</in>
						<out>6582</out>
					</clipitem>
					<clipitem frameBlend="FALSE" id="clipitem-116">
						<file id="file-1"/>
						<name>bandicam 2025-06-02 00-01-10-144</name>
						<rate>
							<timebase>60</timebase>
							<ntsc>TRUE</ntsc>
						</rate>
						<rate>
							<timebase>60</timebase>
							<ntsc>TRUE</ntsc>
						</rate>
						<duration>12</duration>
						<start>6582</start>
						<end>6594</end>
						<in>6612</in>
						<out>6624</out>
					</clipitem>
					<clipitem frameBlend="FALSE" id="clipitem-117">
						<file id="file-1"/>
						<name>bandicam 2025-06-02 00-01-10-144</name>
						<rate>
							<timebase>60</timebase>
							<ntsc>TRUE</ntsc>
						</rate>
						<rate>
							<timebase>60</timebase>
							<ntsc>TRUE</ntsc>
						</rate>
						<duration>12</duration>
						<start>6624</start>
						<end>6636</end>
						<in>6750</in>
						<out>6762</out>
					</clipitem>
					<clipitem frameBlend="FALSE" id="clipitem-118">
						<file id="file-1"/>
						<name>bandicam 2025-06-02 00-01-10-144</name>
						<rate>
							<timebase>60</timebase>
							<ntsc>TRUE</ntsc>
						</rate>
						<rate>
							<timebase>60</timebase>
							<ntsc>TRUE</ntsc>
						</rate>
						<duration>6</duration>
						<start>6762</start>
						<end>6768</end>
						<in>6810</in>
						<out>6816</out>
					</clipitem>
					<clipitem frameBlend="FALSE" id="clipitem-119">
						<file id="file-1"/>
						<name>bandicam 2025-06-02 00-01-10-144</name>
						<rate>
							<timebase>60</timebase>
							<ntsc>TRUE</ntsc>
						</rate>
						<rate>
							<timebase>60</timebase>
							<ntsc>TRUE</ntsc>
						</rate>
						<duration>12</duration>
						<start>6816</start>
						<end>6828</end>
						<in>6828</in>
						<out>6840</out>
					</clipitem>
					<clipitem frameBlend="FALSE" id="clipitem-120">
						<file id="file-1"/>
						<name>bandicam 2025-06-02 00-01-10-144</name>
						<rate>
							<timebase>60</timebase>
							<ntsc>TRUE</ntsc>
						</rate>
						<rate>
							<timebase>60</timebase>
							<ntsc>TRUE</ntsc>
						</rate>
						<duration>6</duration>
						<start>6840</start>
						<end>6846</end>
						<in>6894</in>
						<out>6900</out>
					</clipitem>
					<clipitem frameBlend="FALSE" id="clipitem-121">
						<file id="file-1"/>
						<name>bandicam 2025-06-02 00-01-10-144</name>
						<rate>
							<timebase>60</timebase>
							<ntsc>TRUE</ntsc>
						</rate>
						<rate>
							<timebase>60</timebase>
							<ntsc>TRUE</ntsc>
						</rate>
						<duration>12</duration>
						<start>6900</start>
						<end>6912</end>
						<in>6912</in>
						<out>6924</out>
					</clipitem>
					<clipitem frameBlend="FALSE" id="clipitem-122">
						<file id="file-1"/>
						<name>bandicam 2025-06-02 00-01-10-144</name>
						<rate>
							<timebase>60</timebase>
							<ntsc>TRUE</ntsc>
						</rate>
						<rate>
							<timebase>60</timebase>
							<ntsc>TRUE</ntsc>
						</rate>
						<duration>0</duration>
						<start>6924</start>
						<end>6924</end>
						<in>6954</in>
						<out>6954</out>
					</clipitem>
					<clipitem frameBlend="FALSE" id="clipitem-123">
						<file id="file-1"/>
						<name>bandicam 2025-06-02 00-01-10-144</name>
						<rate>
							<timebase>60</timebase>
							<ntsc>TRUE</ntsc>
						</rate>
						<rate>
							<timebase>60</timebase>
							<ntsc>TRUE</ntsc>
						</rate>
						<duration>0</duration>
						<start>6954</start>
						<end>6954</end>
						<in>7002</in>
						<out>7002</out>
					</clipitem>
					<clipitem frameBlend="FALSE" id="clipitem-124">
						<file id="file-1"/>
						<name>bandicam 2025-06-02 00-01-10-144</name>
						<rate>
							<timebase>60</timebase>
							<ntsc>TRUE</ntsc>
						</rate>
						<rate>
							<timebase>60</timebase>
							<ntsc>TRUE</ntsc>
						</rate>
						<duration>12</duration>
						<start>7002</start>
						<end>7014</end>
						<in>7026</in>
						<out>7038</out>
					</clipitem>
					<clipitem frameBlend="FALSE" id="clipitem-125">
						<file id="file-1"/>
						<name>bandicam 2025-06-02 00-01-10-144</name>
						<rate>
							<timebase>60</timebase>
							<ntsc>TRUE</ntsc>
						</rate>
						<rate>
							<timebase>60</timebase>
							<ntsc>TRUE</ntsc>
						</rate>
						<duration>0</duration>
						<start>7038</start>
						<end>7038</end>
						<in>60</in>
						<out>60</out>
					</clipitem>
					<clipitem frameBlend="FALSE" id="clipitem-126">
						<file id="file-1"/>
						<name>bandicam 2025-06-02 00-01-10-144</name>
						<rate>
							<timebase>60</timebase>
							<ntsc>TRUE</ntsc>
						</rate>
						<rate>
							<timebase>60</timebase>
							<ntsc>TRUE</ntsc>
						</rate>
						<duration>12</duration>
						<start>60</start>
						<end>72</end>
						<in>114</in>
						<out>126</out>
					</clipitem>
					<clipitem frameBlend="FALSE" id="clipitem-127">
						<file id="file-1"/>
						<name>bandicam 2025-06-02 00-01-10-144</name>
						<rate>
							<timebase>60</timebase>
							<ntsc>TRUE</ntsc>
						</rate>
						<rate>
							<timebase>60</timebase>
							<ntsc>TRUE</ntsc>
						</rate>
						<duration>18</duration>
						<start>126</start>
						<end>144</end>
						<in>450</in>
						<out>468</out>
					</clipitem>
					<clipitem frameBlend="FALSE" id="clipitem-128">
						<file id="file-1"/>
						<name>bandicam 2025-06-02 00-01-10-144</name>
						<rate>
							<timebase>60</timebase>
							<ntsc>TRUE</ntsc>
						</rate>
						<rate>
							<timebase>60</timebase>
							<ntsc>TRUE</ntsc>
						</rate>
						<duration>6</duration>
						<start>468</start>
						<end>474</end>
						<in>582</in>
						<out>588</out>
					</clipitem>
					<clipitem frameBlend="FALSE" id="clipitem-129">
						<file id="file-1"/>
						<name>bandicam 2025-06-02 00-01-10-144</name>
						<rate>
							<timebase>60</timebase>
							<ntsc>TRUE</ntsc>
						</rate>
						<rate>
							<timebase>60</timebase>
							<ntsc>TRUE</ntsc>
						</rate>
						<duration>6</duration>
						<start>588</start>
						<end>594</end>
						<in>1410</in>
						<out>1416</out>
					</clipitem>
					<clipitem frameBlend="FALSE" id="clipitem-130">
						<file id="file-1"/>
						<name>bandicam 2025-06-02 00-01-10-144</name>
						<rate>
							<timebase>60</timebase>
							<ntsc>TRUE</ntsc>
						</rate>
						<rate>
							<timebase>60</timebase>
							<ntsc>TRUE</ntsc>
						</rate>
						<duration>0</duration>
						<start>1416</start>
						<end>1416</end>
						<in>1692</in>
						<out>1692</out>
					</clipitem>
					<clipitem frameBlend="FALSE" id="clipitem-131">
						<file id="file-1"/>
						<name>bandicam 2025-06-02 00-01-10-144</name>
						<rate>
							<timebase>60</timebase>
							<ntsc>TRUE</ntsc>
						</rate>
						<rate>
							<timebase>60</timebase>
							<ntsc>TRUE</ntsc>
						</rate>
						<duration>6</duration>
						<start>1692</start>
						<end>1698</end>
						<in>1704</in>
						<out>1710</out>
					</clipitem>
					<clipitem frameBlend="FALSE" id="clipitem-132">
						<file id="file-1"/>
						<name>bandicam 2025-06-02 00-01-10-144</name>
						<rate>
							<timebase>60</timebase>
							<ntsc>TRUE</ntsc>
						</rate>
						<rate>
							<timebase>60</timebase>
							<ntsc>TRUE</ntsc>
						</rate>
						<duration>12</duration>
						<start>1710</start>
						<end>1722</end>
						<in>1746</in>
						<out>1758</out>
					</clipitem>
					<clipitem frameBlend="FALSE" id="clipitem-133">
						<file id="file-1"/>
						<name>bandicam 2025-06-02 00-01-10-144</name>
						<rate>
							<timebase>60</timebase>
							<ntsc>TRUE</ntsc>
						</rate>
						<rate>
							<timebase>60</timebase>
							<ntsc>TRUE</ntsc>
						</rate>
						<duration>0</duration>
						<start>1758</start>
						<end>1758</end>
						<in>1812</in>
						<out>1812</out>
					</clipitem>
					<clipitem frameBlend="FALSE" id="clipitem-134">
						<file id="file-1"/>
						<name>bandicam 2025-06-02 00-01-10-144</name>
						<rate>
							<timebase>60</timebase>
							<ntsc>TRUE</ntsc>
						</rate>
						<rate>
							<timebase>60</timebase>
							<ntsc>TRUE</ntsc>
						</rate>
						<duration>0</duration>
						<start>1812</start>
						<end>1812</end>
						<in>1854</in>
						<out>1854</out>
					</clipitem>
					<clipitem frameBlend="FALSE" id="clipitem-135">
						<file id="file-1"/>
						<name>bandicam 2025-06-02 00-01-10-144</name>
						<rate>
							<timebase>60</timebase>
							<ntsc>TRUE</ntsc>
						</rate>
						<rate>
							<timebase>60</timebase>
							<ntsc>TRUE</ntsc>
						</rate>
						<duration>6</duration>
						<start>1854</start>
						<end>1860</end>
						<in>1884</in>
						<out>1890</out>
					</clipitem>
					<clipitem frameBlend="FALSE" id="clipitem-136">
						<file id="file-1"/>
						<name>bandicam 2025-06-02 00-01-10-144</name>
						<rate>
							<timebase>60</timebase>
							<ntsc>TRUE</ntsc>
						</rate>
						<rate>
							<timebase>60</timebase>
							<ntsc>TRUE</ntsc>
						</rate>
						<duration>0</duration>
						<start>1890</start>
						<end>1890</end>
						<in>2292</in>
						<out>2292</out>
					</clipitem>
					<clipitem frameBlend="FALSE" id="clipitem-137">
						<file id="file-1"/>
						<name>bandicam 2025-06-02 00-01-10-144</name>
						<rate>
							<timebase>60</timebase>
							<ntsc>TRUE</ntsc>
						</rate>
						<rate>
							<timebase>60</timebase>
							<ntsc>TRUE</ntsc>
						</rate>
						<duration>12</duration>
						<start>2292</start>
						<end>2304</end>
						<in>2310</in>
						<out>2322</out>
					</clipitem>
					<clipitem frameBlend="FALSE" id="clipitem-138">
						<file id="file-1"/>
						<name>bandicam 2025-06-02 00-01-10-144</name>
						<rate>
							<timebase>60</timebase>
							<ntsc>TRUE</ntsc>
						</rate>
						<rate>
							<timebase>60</timebase>
							<ntsc>TRUE</ntsc>
						</rate>
						<duration>6</duration>
						<start>2322</start>
						<end>2328</end>
						<in>2448</in>
						<out>2454</out>
					</clipitem>
					<clipitem frameBlend="FALSE" id="clipitem-139">
						<file id="file-1"/>
						<name>bandicam 2025-06-02 00-01-10-144</name>
						<rate>
							<timebase>60</timebase>
							<ntsc>TRUE</ntsc>
						</rate>
						<rate>
							<timebase>60</timebase>
							<ntsc>TRUE</ntsc>
						</rate>
						<duration>12</duration>
						<start>2454</start>
						<end>2466</end>
						<in>2742</in>
						<out>2754</out>
					</clipitem>
					<clipitem frameBlend="FALSE" id="clipitem-140">
						<file id="file-1"/>
						<name>bandicam 2025-06-02 00-01-10-144</name>
						<rate>
							<timebase>60</timebase>
							<ntsc>TRUE</ntsc>
						</rate>
						<rate>
							<timebase>60</timebase>
							<ntsc>TRUE</ntsc>
						</rate>
						<duration>6</duration>
						<start>2754</start>
						<end>2760</end>
						<in>2766</in>
						<out>2772</out>
					</clipitem>
					<clipitem frameBlend="FALSE" id="clipitem-141">
						<file id="file-1"/>
						<name>bandicam 2025-06-02 00-01-10-144</name>
						<rate>
							<timebase>60</timebase>
							<ntsc>TRUE</ntsc>
						</rate>
						<rate>
							<timebase>60</timebase>
							<ntsc>TRUE</ntsc>
						</rate>
						<duration>18</duration>
						<start>2772</start>
						<end>2790</end>
						<in>2802</in>
						<out>2820</out>
					</clipitem>
					<clipitem frameBlend="FALSE" id="clipitem-142">
						<file id="file-1"/>
						<name>bandicam 2025-06-02 00-01-10-144</name>
						<rate>
							<timebase>60</timebase>
							<ntsc>TRUE</ntsc>
						</rate>
						<rate>
							<timebase>60</timebase>
							<ntsc>TRUE</ntsc>
						</rate>
						<duration>30</duration>
						<start>2820</start>
						<end>2850</end>
						<in>3072</in>
						<out>3102</out>
					</clipitem>
					<clipitem frameBlend="FALSE" id="clipitem-143">
						<file id="file-1"/>
						<name>bandicam 2025-06-02 00-01-10-144</name>
						<rate>
							<timebase>60</timebase>
							<ntsc>TRUE</ntsc>
						</rate>
						<rate>
							<timebase>60</timebase>
							<ntsc>TRUE</ntsc>
						</rate>
						<duration>18</duration>
						<start>3102</start>
						<end>3120</end>
						<in>3270</in>
						<out>3288</out>
					</clipitem>
					<clipitem frameBlend="FALSE" id="clipitem-144">
						<file id="file-1"/>
						<name>bandicam 2025-06-02 00-01-10-144</name>
						<rate>
							<timebase>60</timebase>
							<ntsc>TRUE</ntsc>
						</rate>
						<rate>
							<timebase>60</timebase>
							<ntsc>TRUE</ntsc>
						</rate>
						<duration>18</duration>
						<start>3288</start>
						<end>3306</end>
						<in>3456</in>
						<out>3474</out>
					</clipitem>
					<clipitem frameBlend="FALSE" id="clipitem-145">
						<file id="file-1"/>
						<name>bandicam 2025-06-02 00-01-10-144</name>
						<rate>
							<timebase>60</timebase>
							<ntsc>TRUE</ntsc>
						</rate>
						<rate>
							<timebase>60</timebase>
							<ntsc>TRUE</ntsc>
						</rate>
						<duration>12</duration>
						<start>3474</start>
						<end>3486</end>
						<in>3630</in>
						<out>3642</out>
					</clipitem>
					<clipitem frameBlend="FALSE" id="clipitem-146">
						<file id="file-1"/>
						<name>bandicam 2025-06-02 00-01-10-144</name>
						<rate>
							<timebase>60</timebase>
							<ntsc>TRUE</ntsc>
						</rate>
						<rate>
							<timebase>60</timebase>
							<ntsc>TRUE</ntsc>
						</rate>
						<duration>6</duration>
						<start>3642</start>
						<end>3648</end>
						<in>4086</in>
						<out>4092</out>
					</clipitem>
					<clipitem frameBlend="FALSE" id="clipitem-147">
						<file id="file-1"/>
						<name>bandicam 2025-06-02 00-01-10-144</name>
						<rate>
							<timebase>60</timebase>
							<ntsc>TRUE</ntsc>
						</rate>
						<rate>
							<timebase>60</timebase>
							<ntsc>TRUE</ntsc>
						</rate>
						<duration>6</duration>
						<start>4092</start>
						<end>4098</end>
						<in>4104</in>
						<out>4110</out>
					</clipitem>
					<clipitem frameBlend="FALSE" id="clipitem-148">
						<file id="file-1"/>
						<name>bandicam 2025-06-02 00-01-10-144</name>
						<rate>
							<timebase>60</timebase>
							<ntsc>TRUE</ntsc>
						</rate>
						<rate>
							<timebase>60</timebase>
							<ntsc>TRUE</ntsc>
						</rate>
						<duration>0</duration>
						<start>4110</start>
						<end>4110</end>
						<in>4134</in>
						<out>4134</out>
					</clipitem>
					<clipitem frameBlend="FALSE" id="clipitem-149">
						<file id="file-1"/>
						<name>bandicam 2025-06-02 00-01-10-144</name>
						<rate>
							<timebase>60</timebase>
							<ntsc>TRUE</ntsc>
						</rate>
						<rate>
							<timebase>60</timebase>
							<ntsc>TRUE</ntsc>
						</rate>
						<duration>6</duration>
						<start>4134</start>
						<end>4140</end>
						<in>4188</in>
						<out>4194</out>
					</clipitem>
					<clipitem frameBlend="FALSE" id="clipitem-150">
						<file id="file-1"/>
						<name>bandicam 2025-06-02 00-01-10-144</name>
						<rate>
							<timebase>60</timebase>
							<ntsc>TRUE</ntsc>
						</rate>
						<rate>
							<timebase>60</timebase>
							<ntsc>TRUE</ntsc>
						</rate>
						<duration>0</duration>
						<start>4194</start>
						<end>4194</end>
						<in>4230</in>
						<out>4230</out>
					</clipitem>
					<clipitem frameBlend="FALSE" id="clipitem-151">
						<file id="file-1"/>
						<name>bandicam 2025-06-02 00-01-10-144</name>
						<rate>
							<timebase>60</timebase>
							<ntsc>TRUE</ntsc>
						</rate>
						<rate>
							<timebase>60</timebase>
							<ntsc>TRUE</ntsc>
						</rate>
						<duration>6</duration>
						<start>4230</start>
						<end>4236</end>
						<in>4242</in>
						<out>4248</out>
					</clipitem>
					<clipitem frameBlend="FALSE" id="clipitem-152">
						<file id="file-1"/>
						<name>bandicam 2025-06-02 00-01-10-144</name>
						<rate>
							<timebase>60</timebase>
							<ntsc>TRUE</ntsc>
						</rate>
						<rate>
							<timebase>60</timebase>
							<ntsc>TRUE</ntsc>
						</rate>
						<duration>66</duration>
						<start>4248</start>
						<end>4314</end>
						<in>4302</in>
						<out>4368</out>
					</clipitem>
					<clipitem frameBlend="FALSE" id="clipitem-153">
						<file id="file-1"/>
						<name>bandicam 2025-06-02 00-01-10-144</name>
						<rate>
							<timebase>60</timebase>
							<ntsc>TRUE</ntsc>
						</rate>
						<rate>
							<timebase>60</timebase>
							<ntsc>TRUE</ntsc>
						</rate>
						<duration>42</duration>
						<start>4368</start>
						<end>4410</end>
						<in>4392</in>
						<out>4434</out>
					</clipitem>
					<clipitem frameBlend="FALSE" id="clipitem-154">
						<file id="file-1"/>
						<name>bandicam 2025-06-02 00-01-10-144</name>
						<rate>
							<timebase>60</timebase>
							<ntsc>TRUE</ntsc>
						</rate>
						<rate>
							<timebase>60</timebase>
							<ntsc>TRUE</ntsc>
						</rate>
						<duration>18</duration>
						<start>4434</start>
						<end>4452</end>
						<in>4506</in>
						<out>4524</out>
					</clipitem>
					<clipitem frameBlend="FALSE" id="clipitem-155">
						<file id="file-1"/>
						<name>bandicam 2025-06-02 00-01-10-144</name>
						<rate>
							<timebase>60</timebase>
							<ntsc>TRUE</ntsc>
						</rate>
						<rate>
							<timebase>60</timebase>
							<ntsc>TRUE</ntsc>
						</rate>
						<duration>12</duration>
						<start>4524</start>
						<end>4536</end>
						<in>4542</in>
						<out>4554</out>
					</clipitem>
					<clipitem frameBlend="FALSE" id="clipitem-156">
						<file id="file-1"/>
						<name>bandicam 2025-06-02 00-01-10-144</name>
						<rate>
							<timebase>60</timebase>
							<ntsc>TRUE</ntsc>
						</rate>
						<rate>
							<timebase>60</timebase>
							<ntsc>TRUE</ntsc>
						</rate>
						<duration>24</duration>
						<start>4554</start>
						<end>4578</end>
						<in>4602</in>
						<out>4626</out>
					</clipitem>
					<clipitem frameBlend="FALSE" id="clipitem-157">
						<file id="file-1"/>
						<name>bandicam 2025-06-02 00-01-10-144</name>
						<rate>
							<timebase>60</timebase>
							<ntsc>TRUE</ntsc>
						</rate>
						<rate>
							<timebase>60</timebase>
							<ntsc>TRUE</ntsc>
						</rate>
						<duration>0</duration>
						<start>4626</start>
						<end>4626</end>
						<in>4704</in>
						<out>4704</out>
					</clipitem>
					<clipitem frameBlend="FALSE" id="clipitem-158">
						<file id="file-1"/>
						<name>bandicam 2025-06-02 00-01-10-144</name>
						<rate>
							<timebase>60</timebase>
							<ntsc>TRUE</ntsc>
						</rate>
						<rate>
							<timebase>60</timebase>
							<ntsc>TRUE</ntsc>
						</rate>
						<duration>48</duration>
						<start>4704</start>
						<end>4752</end>
						<in>4722</in>
						<out>4770</out>
					</clipitem>
					<clipitem frameBlend="FALSE" id="clipitem-159">
						<file id="file-1"/>
						<name>bandicam 2025-06-02 00-01-10-144</name>
						<rate>
							<timebase>60</timebase>
							<ntsc>TRUE</ntsc>
						</rate>
						<rate>
							<timebase>60</timebase>
							<ntsc>TRUE</ntsc>
						</rate>
						<duration>6</duration>
						<start>4770</start>
						<end>4776</end>
						<in>4860</in>
						<out>4866</out>
					</clipitem>
					<clipitem frameBlend="FALSE" id="clipitem-160">
						<file id="file-1"/>
						<name>bandicam 2025-06-02 00-01-10-144</name>
						<rate>
							<timebase>60</timebase>
							<ntsc>TRUE</ntsc>
						</rate>
						<rate>
							<timebase>60</timebase>
							<ntsc>TRUE</ntsc>
						</rate>
						<duration>6</duration>
						<start>4866</start>
						<end>4872</end>
						<in>4968</in>
						<out>4974</out>
					</clipitem>
					<clipitem frameBlend="FALSE" id="clipitem-161">
						<file id="file-1"/>
						<name>bandicam 2025-06-02 00-01-10-144</name>
						<rate>
							<timebase>60</timebase>
							<ntsc>TRUE</ntsc>
						</rate>
						<rate>
							<timebase>60</timebase>
							<ntsc>TRUE</ntsc>
						</rate>
						<duration>6</duration>
						<start>4974</start>
						<end>4980</end>
						<in>5112</in>
						<out>5118</out>
					</clipitem>
					<clipitem frameBlend="FALSE" id="clipitem-162">
						<file id="file-1"/>
						<name>bandicam 2025-06-02 00-01-10-144</name>
						<rate>
							<timebase>60</timebase>
							<ntsc>TRUE</ntsc>
						</rate>
						<rate>
							<timebase>60</timebase>
							<ntsc>TRUE</ntsc>
						</rate>
						<duration>6</duration>
						<start>5118</start>
						<end>5124</end>
						<in>5142</in>
						<out>5148</out>
					</clipitem>
					<clipitem frameBlend="FALSE" id="clipitem-163">
						<file id="file-1"/>
						<name>bandicam 2025-06-02 00-01-10-144</name>
						<rate>
							<timebase>60</timebase>
							<ntsc>TRUE</ntsc>
						</rate>
						<rate>
							<timebase>60</timebase>
							<ntsc>TRUE</ntsc>
						</rate>
						<duration>18</duration>
						<start>5148</start>
						<end>5166</end>
						<in>5160</in>
						<out>5178</out>
					</clipitem>
					<clipitem frameBlend="FALSE" id="clipitem-164">
						<file id="file-1"/>
						<name>bandicam 2025-06-02 00-01-10-144</name>
						<rate>
							<timebase>60</timebase>
							<ntsc>TRUE</ntsc>
						</rate>
						<rate>
							<timebase>60</timebase>
							<ntsc>TRUE</ntsc>
						</rate>
						<duration>12</duration>
						<start>5178</start>
						<end>5190</end>
						<in>5328</in>
						<out>5340</out>
					</clipitem>
					<clipitem frameBlend="FALSE" id="clipitem-165">
						<file id="file-1"/>
						<name>bandicam 2025-06-02 00-01-10-144</name>
						<rate>
							<timebase>60</timebase>
							<ntsc>TRUE</ntsc>
						</rate>
						<rate>
							<timebase>60</timebase>
							<ntsc>TRUE</ntsc>
						</rate>
						<duration>12</duration>
						<start>5340</start>
						<end>5352</end>
						<in>5412</in>
						<out>5424</out>
					</clipitem>
					<clipitem frameBlend="FALSE" id="clipitem-166">
						<file id="file-1"/>
						<name>bandicam 2025-06-02 00-01-10-144</name>
						<rate>
							<timebase>60</timebase>
							<ntsc>TRUE</ntsc>
						</rate>
						<rate>
							<timebase>60</timebase>
							<ntsc>TRUE</ntsc>
						</rate>
						<duration>0</duration>
						<start>5424</start>
						<end>5424</end>
						<in>5448</in>
						<out>5448</out>
					</clipitem>
					<clipitem frameBlend="FALSE" id="clipitem-167">
						<file id="file-1"/>
						<name>bandicam 2025-06-02 00-01-10-144</name>
						<rate>
							<timebase>60</timebase>
							<ntsc>TRUE</ntsc>
						</rate>
						<rate>
							<timebase>60</timebase>
							<ntsc>TRUE</ntsc>
						</rate>
						<duration>0</duration>
						<start>5448</start>
						<end>5448</end>
						<in>5592</in>
						<out>5592</out>
					</clipitem>
					<clipitem frameBlend="FALSE" id="clipitem-168">
						<file id="file-1"/>
						<name>bandicam 2025-06-02 00-01-10-144</name>
						<rate>
							<timebase>60</timebase>
							<ntsc>TRUE</ntsc>
						</rate>
						<rate>
							<timebase>60</timebase>
							<ntsc>TRUE</ntsc>
						</rate>
						<duration>18</duration>
						<start>5592</start>
						<end>5610</end>
						<in>5670</in>
						<out>5688</out>
					</clipitem>
					<clipitem frameBlend="FALSE" id="clipitem-169">
						<file id="file-1"/>
						<name>bandicam 2025-06-02 00-01-10-144</name>
						<rate>
							<timebase>60</timebase>
							<ntsc>TRUE</ntsc>
						</rate>
						<rate>
							<timebase>60</timebase>
							<ntsc>TRUE</ntsc>
						</rate>
						<duration>18</duration>
						<start>5688</start>
						<end>5706</end>
						<in>5760</in>
						<out>5778</out>
					</clipitem>
					<clipitem frameBlend="FALSE" id="clipitem-170">
						<file id="file-1"/>
						<name>bandicam 2025-06-02 00-01-10-144</name>
						<rate>
							<timebase>60</timebase>
							<ntsc>TRUE</ntsc>
						</rate>
						<rate>
							<timebase>60</timebase>
							<ntsc>TRUE</ntsc>
						</rate>
						<duration>72</duration>
						<start>5778</start>
						<end>5850</end>
						<in>5802</in>
						<out>5874</out>
					</clipitem>
					<clipitem frameBlend="FALSE" id="clipitem-171">
						<file id="file-1"/>
						<name>bandicam 2025-06-02 00-01-10-144</name>
						<rate>
							<timebase>60</timebase>
							<ntsc>TRUE</ntsc>
						</rate>
						<rate>
							<timebase>60</timebase>
							<ntsc>TRUE</ntsc>
						</rate>
						<duration>48</duration>
						<start>5874</start>
						<end>5922</end>
						<in>5910</in>
						<out>5958</out>
					</clipitem>
					<clipitem frameBlend="FALSE" id="clipitem-172">
						<file id="file-1"/>
						<name>bandicam 2025-06-02 00-01-10-144</name>
						<rate>
							<timebase>60</timebase>
							<ntsc>TRUE</ntsc>
						</rate>
						<rate>
							<timebase>60</timebase>
							<ntsc>TRUE</ntsc>
						</rate>
						<duration>0</duration>
						<start>5958</start>
						<end>5958</end>
						<in>6000</in>
						<out>6000</out>
					</clipitem>
					<clipitem frameBlend="FALSE" id="clipitem-173">
						<file id="file-1"/>
						<name>bandicam 2025-06-02 00-01-10-144</name>
						<rate>
							<timebase>60</timebase>
							<ntsc>TRUE</ntsc>
						</rate>
						<rate>
							<timebase>60</timebase>
							<ntsc>TRUE</ntsc>
						</rate>
						<duration>24</duration>
						<start>6000</start>
						<end>6024</end>
						<in>6012</in>
						<out>6036</out>
					</clipitem>
					<clipitem frameBlend="FALSE" id="clipitem-174">
						<file id="file-1"/>
						<name>bandicam 2025-06-02 00-01-10-144</name>
						<rate>
							<timebase>60</timebase>
							<ntsc>TRUE</ntsc>
						</rate>
						<rate>
							<timebase>60</timebase>
							<ntsc>TRUE</ntsc>
						</rate>
						<duration>24</duration>
						<start>6036</start>
						<end>6060</end>
						<in>6156</in>
						<out>6180</out>
					</clipitem>
					<clipitem frameBlend="FALSE" id="clipitem-175">
						<file id="file-1"/>
						<name>bandicam 2025-06-02 00-01-10-144</name>
						<rate>
							<timebase>60</timebase>
							<ntsc>TRUE</ntsc>
						</rate>
						<rate>
							<timebase>60</timebase>
							<ntsc>TRUE</ntsc>
						</rate>
						<duration>6</duration>
						<start>6180</start>
						<end>6186</end>
						<in>6234</in>
						<out>6240</out>
					</clipitem>
					<clipitem frameBlend="FALSE" id="clipitem-176">
						<file id="file-1"/>
						<name>bandicam 2025-06-02 00-01-10-144</name>
						<rate>
							<timebase>60</timebase>
							<ntsc>TRUE</ntsc>
						</rate>
						<rate>
							<timebase>60</timebase>
							<ntsc>TRUE</ntsc>
						</rate>
						<duration>0</duration>
						<start>6240</start>
						<end>6240</end>
						<in>6522</in>
						<out>6522</out>
					</clipitem>
					<clipitem frameBlend="FALSE" id="clipitem-177">
						<file id="file-1"/>
						<name>bandicam 2025-06-02 00-01-10-144</name>
						<rate>
							<timebase>60</timebase>
							<ntsc>TRUE</ntsc>
						</rate>
						<rate>
							<timebase>60</timebase>
							<ntsc>TRUE</ntsc>
						</rate>
						<duration>0</duration>
						<start>6522</start>
						<end>6522</end>
						<in>6894</in>
						<out>6894</out>
					</clipitem>
					<clipitem frameBlend="FALSE" id="clipitem-178">
						<file id="file-1"/>
						<name>bandicam 2025-06-02 00-01-10-144</name>
						<rate>
							<timebase>60</timebase>
							<ntsc>TRUE</ntsc>
						</rate>
						<rate>
							<timebase>60</timebase>
							<ntsc>TRUE</ntsc>
						</rate>
						<duration>0</duration>
						<start>6894</start>
						<end>6894</end>
						<in>6954</in>
						<out>6954</out>
					</clipitem>
					<clipitem frameBlend="FALSE" id="clipitem-179">
						<file id="file-1"/>
						<name>bandicam 2025-06-02 00-01-10-144</name>
						<rate>
							<timebase>60</timebase>
							<ntsc>TRUE</ntsc>
						</rate>
						<rate>
							<timebase>60</timebase>
							<ntsc>TRUE</ntsc>
						</rate>
						<duration>30</duration>
						<start>6954</start>
						<end>6984</end>
						<in>12</in>
						<out>42</out>
					</clipitem>
					<clipitem frameBlend="FALSE" id="clipitem-180">
						<file id="file-1"/>
						<name>bandicam 2025-06-02 00-01-10-144</name>
						<rate>
							<timebase>60</timebase>
							<ntsc>TRUE</ntsc>
						</rate>
						<rate>
							<timebase>60</timebase>
							<ntsc>TRUE</ntsc>
						</rate>
						<duration>36</duration>
						<start>42</start>
						<end>78</end>
						<in>54</in>
						<out>90</out>
					</clipitem>
					<clipitem frameBlend="FALSE" id="clipitem-181">
						<file id="file-1"/>
						<name>bandicam 2025-06-02 00-01-10-144</name>
						<rate>
							<timebase>60</timebase>
							<ntsc>TRUE</ntsc>
						</rate>
						<rate>
							<timebase>60</timebase>
							<ntsc>TRUE</ntsc>
						</rate>
						<duration>18</duration>
						<start>90</start>
						<end>108</end>
						<in>108</in>
						<out>126</out>
					</clipitem>
					<clipitem frameBlend="FALSE" id="clipitem-182">
						<file id="file-1"/>
						<name>bandicam 2025-06-02 00-01-10-144</name>
						<rate>
							<timebase>60</timebase>
							<ntsc>TRUE</ntsc>
						</rate>
						<rate>
							<timebase>60</timebase>
							<ntsc>TRUE</ntsc>
						</rate>
						<duration>24</duration>
						<start>126</start>
						<end>150</end>
						<in>174</in>
						<out>198</out>
					</clipitem>
					<clipitem frameBlend="FALSE" id="clipitem-183">
						<file id="file-1"/>
						<name>bandicam 2025-06-02 00-01-10-144</name>
						<rate>
							<timebase>60</timebase>
							<ntsc>TRUE</ntsc>
						</rate>
						<rate>
							<timebase>60</timebase>
							<ntsc>TRUE</ntsc>
						</rate>
						<duration>0</duration>
						<start>198</start>
						<end>198</end>
						<in>300</in>
						<out>300</out>
					</clipitem>
					<clipitem frameBlend="FALSE" id="clipitem-184">
						<file id="file-1"/>
						<name>bandicam 2025-06-02 00-01-10-144</name>
						<rate>
							<timebase>60</timebase>
							<ntsc>TRUE</ntsc>
						</rate>
						<rate>
							<timebase>60</timebase>
							<ntsc>TRUE</ntsc>
						</rate>
						<duration>30</duration>
						<start>300</start>
						<end>330</end>
						<in>360</in>
						<out>390</out>
					</clipitem>
					<clipitem frameBlend="FALSE" id="clipitem-185">
						<file id="file-1"/>
						<name>bandicam 2025-06-02 00-01-10-144</name>
						<rate>
							<timebase>60</timebase>
							<ntsc>TRUE</ntsc>
						</rate>
						<rate>
							<timebase>60</timebase>
							<ntsc>TRUE</ntsc>
						</rate>
						<duration>0</duration>
						<start>390</start>
						<end>390</end>
						<in>438</in>
						<out>438</out>
					</clipitem>
					<clipitem frameBlend="FALSE" id="clipitem-186">
						<file id="file-1"/>
						<name>bandicam 2025-06-02 00-01-10-144</name>
						<rate>
							<timebase>60</timebase>
							<ntsc>TRUE</ntsc>
						</rate>
						<rate>
							<timebase>60</timebase>
							<ntsc>TRUE</ntsc>
						</rate>
						<duration>42</duration>
						<start>438</start>
						<end>480</end>
						<in>450</in>
						<out>492</out>
					</clipitem>
					<clipitem frameBlend="FALSE" id="clipitem-187">
						<file id="file-1"/>
						<name>bandicam 2025-06-02 00-01-10-144</name>
						<rate>
							<timebase>60</timebase>
							<ntsc>TRUE</ntsc>
						</rate>
						<rate>
							<timebase>60</timebase>
							<ntsc>TRUE</ntsc>
						</rate>
						<duration>0</duration>
						<start>492</start>
						<end>492</end>
						<in>504</in>
						<out>504</out>
					</clipitem>
					<clipitem frameBlend="FALSE" id="clipitem-188">
						<file id="file-1"/>
						<name>bandicam 2025-06-02 00-01-10-144</name>
						<rate>
							<timebase>60</timebase>
							<ntsc>TRUE</ntsc>
						</rate>
						<rate>
							<timebase>60</timebase>
							<ntsc>TRUE</ntsc>
						</rate>
						<duration>36</duration>
						<start>504</start>
						<end>540</end>
						<in>528</in>
						<out>564</out>
					</clipitem>
					<clipitem frameBlend="FALSE" id="clipitem-189">
						<file id="file-1"/>
						<name>bandicam 2025-06-02 00-01-10-144</name>
						<rate>
							<timebase>60</timebase>
							<ntsc>TRUE</ntsc>
						</rate>
						<rate>
							<timebase>60</timebase>
							<ntsc>TRUE</ntsc>
						</rate>
						<duration>24</duration>
						<start>564</start>
						<end>588</end>
						<in>582</in>
						<out>606</out>
					</clipitem>
					<clipitem frameBlend="FALSE" id="clipitem-190">
						<file id="file-1"/>
						<name>bandicam 2025-06-02 00-01-10-144</name>
						<rate>
							<timebase>60</timebase>
							<ntsc>TRUE</ntsc>
						</rate>
						<rate>
							<timebase>60</timebase>
							<ntsc>TRUE</ntsc>
						</rate>
						<duration>18</duration>
						<start>606</start>
						<end>624</end>
						<in>624</in>
						<out>642</out>
					</clipitem>
					<clipitem frameBlend="FALSE" id="clipitem-191">
						<file id="file-1"/>
						<name>bandicam 2025-06-02 00-01-10-144</name>
						<rate>
							<timebase>60</timebase>
							<ntsc>TRUE</ntsc>
						</rate>
						<rate>
							<timebase>60</timebase>
							<ntsc>TRUE</ntsc>
						</rate>
						<duration>0</duration>
						<start>642</start>
						<end>642</end>
						<in>816</in>
						<out>816</out>
					</clipitem>
					<clipitem frameBlend="FALSE" id="clipitem-192">
						<file id="file-1"/>
						<name>bandicam 2025-06-02 00-01-10-144</name>
						<rate>
							<timebase>60</timebase>
							<ntsc>TRUE</ntsc>
						</rate>
						<rate>
							<timebase>60</timebase>
							<ntsc>TRUE</ntsc>
						</rate>
						<duration>0</duration>
						<start>816</start>
						<end>816</end>
						<in>852</in>
						<out>852</out>
					</clipitem>
					<clipitem frameBlend="FALSE" id="clipitem-193">
						<file id="file-1"/>
						<name>bandicam 2025-06-02 00-01-10-144</name>
						<rate>
							<timebase>60</timebase>
							<ntsc>TRUE</ntsc>
						</rate>
						<rate>
							<timebase>60</timebase>
							<ntsc>TRUE</ntsc>
						</rate>
						<duration>0</duration>
						<start>852</start>
						<end>852</end>
						<in>894</in>
						<out>894</out>
					</clipitem>
					<clipitem frameBlend="FALSE" id="clipitem-194">
						<file id="file-1"/>
						<name>bandicam 2025-06-02 00-01-10-144</name>
						<rate>
							<timebase>60</timebase>
							<ntsc>TRUE</ntsc>
						</rate>
						<rate>
							<timebase>60</timebase>
							<ntsc>TRUE</ntsc>
						</rate>
						<duration>0</duration>
						<start>894</start>
						<end>894</end>
						<in>912</in>
						<out>912</out>
					</clipitem>
					<clipitem frameBlend="FALSE" id="clipitem-195">
						<file id="file-1"/>
						<name>bandicam 2025-06-02 00-01-10-144</name>
						<rate>
							<timebase>60</timebase>
							<ntsc>TRUE</ntsc>
						</rate>
						<rate>
							<timebase>60</timebase>
							<ntsc>TRUE</ntsc>
						</rate>
						<duration>0</duration>
						<start>912</start>
						<end>912</end>
						<in>936</in>
						<out>936</out>
					</clipitem>
					<clipitem frameBlend="FALSE" id="clipitem-196">
						<file id="file-1"/>
						<name>bandicam 2025-06-02 00-01-10-144</name>
						<rate>
							<timebase>60</timebase>
							<ntsc>TRUE</ntsc>
						</rate>
						<rate>
							<timebase>60</timebase>
							<ntsc>TRUE</ntsc>
						</rate>
						<duration>0</duration>
						<start>936</start>
						<end>936</end>
						<in>954</in>
						<out>954</out>
					</clipitem>
					<clipitem frameBlend="FALSE" id="clipitem-197">
						<file id="file-1"/>
						<name>bandicam 2025-06-02 00-01-10-144</name>
						<rate>
							<timebase>60</timebase>
							<ntsc>TRUE</ntsc>
						</rate>
						<rate>
							<timebase>60</timebase>
							<ntsc>TRUE</ntsc>
						</rate>
						<duration>12</duration>
						<start>954</start>
						<end>966</end>
						<in>984</in>
						<out>996</out>
					</clipitem>
					<clipitem frameBlend="FALSE" id="clipitem-198">
						<file id="file-1"/>
						<name>bandicam 2025-06-02 00-01-10-144</name>
						<rate>
							<timebase>60</timebase>
							<ntsc>TRUE</ntsc>
						</rate>
						<rate>
							<timebase>60</timebase>
							<ntsc>TRUE</ntsc>
						</rate>
						<duration>12</duration>
						<start>996</start>
						<end>1008</end>
						<in>1086</in>
						<out>1098</out>
					</clipitem>
					<clipitem frameBlend="FALSE" id="clipitem-199">
						<file id="file-1"/>
						<name>bandicam 2025-06-02 00-01-10-144</name>
						<rate>
							<timebase>60</timebase>
							<ntsc>TRUE</ntsc>
						</rate>
						<rate>
							<timebase>60</timebase>
							<ntsc>TRUE</ntsc>
						</rate>
						<duration>54</duration>
						<start>1098</start>
						<end>1152</end>
						<in>1188</in>
						<out>1242</out>
					</clipitem>
					<clipitem frameBlend="FALSE" id="clipitem-200">
						<file id="file-1"/>
						<name>bandicam 2025-06-02 00-01-10-144</name>
						<rate>
							<timebase>60</timebase>
							<ntsc>TRUE</ntsc>
						</rate>
						<rate>
							<timebase>60</timebase>
							<ntsc>TRUE</ntsc>
						</rate>
						<duration>0</duration>
						<start>1242</start>
						<end>1242</end>
						<in>1320</in>
						<out>1320</out>
					</clipitem>
					<clipitem frameBlend="FALSE" id="clipitem-201">
						<file id="file-1"/>
						<name>bandicam 2025-06-02 00-01-10-144</name>
						<rate>
							<timebase>60</timebase>
							<ntsc>TRUE</ntsc>
						</rate>
						<rate>
							<timebase>60</timebase>
							<ntsc>TRUE</ntsc>
						</rate>
						<duration>60</duration>
						<start>1320</start>
						<end>1380</end>
						<in>1374</in>
						<out>1434</out>
					</clipitem>
					<clipitem frameBlend="FALSE" id="clipitem-202">
						<file id="file-1"/>
						<name>bandicam 2025-06-02 00-01-10-144</name>
						<rate>
							<timebase>60</timebase>
							<ntsc>TRUE</ntsc>
						</rate>
						<rate>
							<timebase>60</timebase>
							<ntsc>TRUE</ntsc>
						</rate>
						<duration>36</duration>
						<start>1434</start>
						<end>1470</end>
						<in>1446</in>
						<out>1482</out>
					</clipitem>
					<clipitem frameBlend="FALSE" id="clipitem-203">
						<file id="file-1"/>
						<name>bandicam 2025-06-02 00-01-10-144</name>
						<rate>
							<timebase>60</timebase>
							<ntsc>TRUE</ntsc>
						</rate>
						<rate>
							<timebase>60</timebase>
							<ntsc>TRUE</ntsc>
						</rate>
						<duration>6</duration>
						<start>1482</start>
						<end>1488</end>
						<in>1530</in>
						<out>1536</out>
					</clipitem>
					<clipitem frameBlend="FALSE" id="clipitem-204">
						<file id="file-1"/>
						<name>bandicam 2025-06-02 00-01-10-144</name>
						<rate>
							<timebase>60</timebase>
							<ntsc>TRUE</ntsc>
						</rate>
						<rate>
							<timebase>60</timebase>
							<ntsc>TRUE</ntsc>
						</rate>
						<duration>36</duration>
						<start>1536</start>
						<end>1572</end>
						<in>1566</in>
						<out>1602</out>
					</clipitem>
					<clipitem frameBlend="FALSE" id="clipitem-205">
						<file id="file-1"/>
						<name>bandicam 2025-06-02 00-01-10-144</name>
						<rate>
							<timebase>60</timebase>
							<ntsc>TRUE</ntsc>
						</rate>
						<rate>
							<timebase>60</timebase>
							<ntsc>TRUE</ntsc>
						</rate>
						<duration>90</duration>
						<start>1602</start>
						<end>1692</end>
						<in>1692</in>
						<out>1782</out>
					</clipitem>
					<clipitem frameBlend="FALSE" id="clipitem-206">
						<file id="file-1"/>
						<name>bandicam 2025-06-02 00-01-10-144</name>
						<rate>
							<timebase>60</timebase>
							<ntsc>TRUE</ntsc>
						</rate>
						<rate>
							<timebase>60</timebase>
							<ntsc>TRUE</ntsc>
						</rate>
						<duration>72</duration>
						<start>1782</start>
						<end>1854</end>
						<in>1800</in>
						<out>1872</out>
					</clipitem>
					<clipitem frameBlend="FALSE" id="clipitem-207">
						<file id="file-1"/>
						<name>bandicam 2025-06-02 00-01-10-144</name>
						<rate>
							<timebase>60</timebase>
							<ntsc>TRUE</ntsc>
						</rate>
						<rate>
							<timebase>60</timebase>
							<ntsc>TRUE</ntsc>
						</rate>
						<duration>24</duration>
						<start>1872</start>
						<end>1896</end>
						<in>1884</in>
						<out>1908</out>
					</clipitem>
					<clipitem frameBlend="FALSE" id="clipitem-208">
						<file id="file-1"/>
						<name>bandicam 2025-06-02 00-01-10-144</name>
						<rate>
							<timebase>60</timebase>
							<ntsc>TRUE</ntsc>
						</rate>
						<rate>
							<timebase>60</timebase>
							<ntsc>TRUE</ntsc>
						</rate>
						<duration>36</duration>
						<start>1908</start>
						<end>1944</end>
						<in>1926</in>
						<out>1962</out>
					</clipitem>
					<clipitem frameBlend="FALSE" id="clipitem-209">
						<file id="file-1"/>
						<name>bandicam 2025-06-02 00-01-10-144</name>
						<rate>
							<timebase>60</timebase>
							<ntsc>TRUE</ntsc>
						</rate>
						<rate>
							<timebase>60</timebase>
							<ntsc>TRUE</ntsc>
						</rate>
						<duration>42</duration>
						<start>1962</start>
						<end>2004</end>
						<in>2172</in>
						<out>2214</out>
					</clipitem>
					<clipitem frameBlend="FALSE" id="clipitem-210">
						<file id="file-1"/>
						<name>bandicam 2025-06-02 00-01-10-144</name>
						<rate>
							<timebase>60</timebase>
							<ntsc>TRUE</ntsc>
						</rate>
						<rate>
							<timebase>60</timebase>
							<ntsc>TRUE</ntsc>
						</rate>
						<duration>96</duration>
						<start>2214</start>
						<end>2310</end>
						<in>2274</in>
						<out>2370</out>
					</clipitem>
					<clipitem frameBlend="FALSE" id="clipitem-211">
						<file id="file-1"/>
						<name>bandicam 2025-06-02 00-01-10-144</name>
						<rate>
							<timebase>60</timebase>
							<ntsc>TRUE</ntsc>
						</rate>
						<rate>
							<timebase>60</timebase>
							<ntsc>TRUE</ntsc>
						</rate>
						<duration>18</duration>
						<start>2370</start>
						<end>2388</end>
						<in>2448</in>
						<out>2466</out>
					</clipitem>
					<clipitem frameBlend="FALSE" id="clipitem-212">
						<file id="file-1"/>
						<name>bandicam 2025-06-02 00-01-10-144</name>
						<rate>
							<timebase>60</timebase>
							<ntsc>TRUE</ntsc>
						</rate>
						<rate>
							<timebase>60</timebase>
							<ntsc>TRUE</ntsc>
						</rate>
						<duration>6</duration>
						<start>2466</start>
						<end>2472</end>
						<in>2478</in>
						<out>2484</out>
					</clipitem>
					<clipitem frameBlend="FALSE" id="clipitem-213">
						<file id="file-1"/>
						<name>bandicam 2025-06-02 00-01-10-144</name>
						<rate>
							<timebase>60</timebase>
							<ntsc>TRUE</ntsc>
						</rate>
						<rate>
							<timebase>60</timebase>
							<ntsc>TRUE</ntsc>
						</rate>
						<duration>6</duration>
						<start>2484</start>
						<end>2490</end>
						<in>2496</in>
						<out>2502</out>
					</clipitem>
					<clipitem frameBlend="FALSE" id="clipitem-214">
						<file id="file-1"/>
						<name>bandicam 2025-06-02 00-01-10-144</name>
						<rate>
							<timebase>60</timebase>
							<ntsc>TRUE</ntsc>
						</rate>
						<rate>
							<timebase>60</timebase>
							<ntsc>TRUE</ntsc>
						</rate>
						<duration>36</duration>
						<start>2502</start>
						<end>2538</end>
						<in>2532</in>
						<out>2568</out>
					</clipitem>
					<clipitem frameBlend="FALSE" id="clipitem-215">
						<file id="file-1"/>
						<name>bandicam 2025-06-02 00-01-10-144</name>
						<rate>
							<timebase>60</timebase>
							<ntsc>TRUE</ntsc>
						</rate>
						<rate>
							<timebase>60</timebase>
							<ntsc>TRUE</ntsc>
						</rate>
						<duration>102</duration>
						<start>2568</start>
						<end>2670</end>
						<in>2592</in>
						<out>2694</out>
					</clipitem>
					<clipitem frameBlend="FALSE" id="clipitem-216">
						<file id="file-1"/>
						<name>bandicam 2025-06-02 00-01-10-144</name>
						<rate>
							<timebase>60</timebase>
							<ntsc>TRUE</ntsc>
						</rate>
						<rate>
							<timebase>60</timebase>
							<ntsc>TRUE</ntsc>
						</rate>
						<duration>186</duration>
						<start>2694</start>
						<end>2880</end>
						<in>2724</in>
						<out>2910</out>
					</clipitem>
					<clipitem frameBlend="FALSE" id="clipitem-217">
						<file id="file-1"/>
						<name>bandicam 2025-06-02 00-01-10-144</name>
						<rate>
							<timebase>60</timebase>
							<ntsc>TRUE</ntsc>
						</rate>
						<rate>
							<timebase>60</timebase>
							<ntsc>TRUE</ntsc>
						</rate>
						<duration>12</duration>
						<start>2910</start>
						<end>2922</end>
						<in>2940</in>
						<out>2952</out>
					</clipitem>
					<clipitem frameBlend="FALSE" id="clipitem-218">
						<file id="file-1"/>
						<name>bandicam 2025-06-02 00-01-10-144</name>
						<rate>
							<timebase>60</timebase>
							<ntsc>TRUE</ntsc>
						</rate>
						<rate>
							<timebase>60</timebase>
							<ntsc>TRUE</ntsc>
						</rate>
						<duration>36</duration>
						<start>2952</start>
						<end>2988</end>
						<in>2964</in>
						<out>3000</out>
					</clipitem>
					<clipitem frameBlend="FALSE" id="clipitem-219">
						<file id="file-1"/>
						<name>bandicam 2025-06-02 00-01-10-144</name>
						<rate>
							<timebase>60</timebase>
							<ntsc>TRUE</ntsc>
						</rate>
						<rate>
							<timebase>60</timebase>
							<ntsc>TRUE</ntsc>
						</rate>
						<duration>0</duration>
						<start>3000</start>
						<end>3000</end>
						<in>3012</in>
						<out>3012</out>
					</clipitem>
					<clipitem frameBlend="FALSE" id="clipitem-220">
						<file id="file-1"/>
						<name>bandicam 2025-06-02 00-01-10-144</name>
						<rate>
							<timebase>60</timebase>
							<ntsc>TRUE</ntsc>
						</rate>
						<rate>
							<timebase>60</timebase>
							<ntsc>TRUE</ntsc>
						</rate>
						<duration>0</duration>
						<start>3012</start>
						<end>3012</end>
						<in>3024</in>
						<out>3024</out>
					</clipitem>
					<clipitem frameBlend="FALSE" id="clipitem-221">
						<file id="file-1"/>
						<name>bandicam 2025-06-02 00-01-10-144</name>
						<rate>
							<timebase>60</timebase>
							<ntsc>TRUE</ntsc>
						</rate>
						<rate>
							<timebase>60</timebase>
							<ntsc>TRUE</ntsc>
						</rate>
						<duration>48</duration>
						<start>3024</start>
						<end>3072</end>
						<in>3054</in>
						<out>3102</out>
					</clipitem>
					<clipitem frameBlend="FALSE" id="clipitem-222">
						<file id="file-1"/>
						<name>bandicam 2025-06-02 00-01-10-144</name>
						<rate>
							<timebase>60</timebase>
							<ntsc>TRUE</ntsc>
						</rate>
						<rate>
							<timebase>60</timebase>
							<ntsc>TRUE</ntsc>
						</rate>
						<duration>36</duration>
						<start>3102</start>
						<end>3138</end>
						<in>3120</in>
						<out>3156</out>
					</clipitem>
					<clipitem frameBlend="FALSE" id="clipitem-223">
						<file id="file-1"/>
						<name>bandicam 2025-06-02 00-01-10-144</name>
						<rate>
							<timebase>60</timebase>
							<ntsc>TRUE</ntsc>
						</rate>
						<rate>
							<timebase>60</timebase>
							<ntsc>TRUE</ntsc>
						</rate>
						<duration>84</duration>
						<start>3156</start>
						<end>3240</end>
						<in>3222</in>
						<out>3306</out>
					</clipitem>
					<clipitem frameBlend="FALSE" id="clipitem-224">
						<file id="file-1"/>
						<name>bandicam 2025-06-02 00-01-10-144</name>
						<rate>
							<timebase>60</timebase>
							<ntsc>TRUE</ntsc>
						</rate>
						<rate>
							<timebase>60</timebase>
							<ntsc>TRUE</ntsc>
						</rate>
						<duration>36</duration>
						<start>3306</start>
						<end>3342</end>
						<in>3372</in>
						<out>3408</out>
					</clipitem>
					<clipitem frameBlend="FALSE" id="clipitem-225">
						<file id="file-1"/>
						<name>bandicam 2025-06-02 00-01-10-144</name>
						<rate>
							<timebase>60</timebase>
							<ntsc>TRUE</ntsc>
						</rate>
						<rate>
							<timebase>60</timebase>
							<ntsc>TRUE</ntsc>
						</rate>
						<duration>24</duration>
						<start>3408</start>
						<end>3432</end>
						<in>3450</in>
						<out>3474</out>
					</clipitem>
					<clipitem frameBlend="FALSE" id="clipitem-226">
						<file id="file-1"/>
						<name>bandicam 2025-06-02 00-01-10-144</name>
						<rate>
							<timebase>60</timebase>
							<ntsc>TRUE</ntsc>
						</rate>
						<rate>
							<timebase>60</timebase>
							<ntsc>TRUE</ntsc>
						</rate>
						<duration>36</duration>
						<start>3474</start>
						<end>3510</end>
						<in>3498</in>
						<out>3534</out>
					</clipitem>
					<clipitem frameBlend="FALSE" id="clipitem-227">
						<file id="file-1"/>
						<name>bandicam 2025-06-02 00-01-10-144</name>
						<rate>
							<timebase>60</timebase>
							<ntsc>TRUE</ntsc>
						</rate>
						<rate>
							<timebase>60</timebase>
							<ntsc>TRUE</ntsc>
						</rate>
						<duration>0</duration>
						<start>3534</start>
						<end>3534</end>
						<in>3582</in>
						<out>3582</out>
					</clipitem>
					<clipitem frameBlend="FALSE" id="clipitem-228">
						<file id="file-1"/>
						<name>bandicam 2025-06-02 00-01-10-144</name>
						<rate>
							<timebase>60</timebase>
							<ntsc>TRUE</ntsc>
						</rate>
						<rate>
							<timebase>60</timebase>
							<ntsc>TRUE</ntsc>
						</rate>
						<duration>18</duration>
						<start>3582</start>
						<end>3600</end>
						<in>3624</in>
						<out>3642</out>
					</clipitem>
					<clipitem frameBlend="FALSE" id="clipitem-229">
						<file id="file-1"/>
						<name>bandicam 2025-06-02 00-01-10-144</name>
						<rate>
							<timebase>60</timebase>
							<ntsc>TRUE</ntsc>
						</rate>
						<rate>
							<timebase>60</timebase>
							<ntsc>TRUE</ntsc>
						</rate>
						<duration>0</duration>
						<start>3642</start>
						<end>3642</end>
						<in>3672</in>
						<out>3672</out>
					</clipitem>
					<clipitem frameBlend="FALSE" id="clipitem-230">
						<file id="file-1"/>
						<name>bandicam 2025-06-02 00-01-10-144</name>
						<rate>
							<timebase>60</timebase>
							<ntsc>TRUE</ntsc>
						</rate>
						<rate>
							<timebase>60</timebase>
							<ntsc>TRUE</ntsc>
						</rate>
						<duration>0</duration>
						<start>3672</start>
						<end>3672</end>
						<in>3696</in>
						<out>3696</out>
					</clipitem>
					<clipitem frameBlend="FALSE" id="clipitem-231">
						<file id="file-1"/>
						<name>bandicam 2025-06-02 00-01-10-144</name>
						<rate>
							<timebase>60</timebase>
							<ntsc>TRUE</ntsc>
						</rate>
						<rate>
							<timebase>60</timebase>
							<ntsc>TRUE</ntsc>
						</rate>
						<duration>12</duration>
						<start>3696</start>
						<end>3708</end>
						<in>3768</in>
						<out>3780</out>
					</clipitem>
					<clipitem frameBlend="FALSE" id="clipitem-232">
						<file id="file-1"/>
						<name>bandicam 2025-06-02 00-01-10-144</name>
						<rate>
							<timebase>60</timebase>
							<ntsc>TRUE</ntsc>
						</rate>
						<rate>
							<timebase>60</timebase>
							<ntsc>TRUE</ntsc>
						</rate>
						<duration>42</duration>
						<start>3780</start>
						<end>3822</end>
						<in>3846</in>
						<out>3888</out>
					</clipitem>
					<clipitem frameBlend="FALSE" id="clipitem-233">
						<file id="file-1"/>
						<name>bandicam 2025-06-02 00-01-10-144</name>
						<rate>
							<timebase>60</timebase>
							<ntsc>TRUE</ntsc>
						</rate>
						<rate>
							<timebase>60</timebase>
							<ntsc>TRUE</ntsc>
						</rate>
						<duration>42</duration>
						<start>3888</start>
						<end>3930</end>
						<in>3900</in>
						<out>3942</out>
					</clipitem>
					<clipitem frameBlend="FALSE" id="clipitem-234">
						<file id="file-1"/>
						<name>bandicam 2025-06-02 00-01-10-144</name>
						<rate>
							<timebase>60</timebase>
							<ntsc>TRUE</ntsc>
						</rate>
						<rate>
							<timebase>60</timebase>
							<ntsc>TRUE</ntsc>
						</rate>
						<duration>6</duration>
						<start>3942</start>
						<end>3948</end>
						<in>4026</in>
						<out>4032</out>
					</clipitem>
					<clipitem frameBlend="FALSE" id="clipitem-235">
						<file id="file-1"/>
						<name>bandicam 2025-06-02 00-01-10-144</name>
						<rate>
							<timebase>60</timebase>
							<ntsc>TRUE</ntsc>
						</rate>
						<rate>
							<timebase>60</timebase>
							<ntsc>TRUE</ntsc>
						</rate>
						<duration>0</duration>
						<start>4032</start>
						<end>4032</end>
						<in>4044</in>
						<out>4044</out>
					</clipitem>
					<clipitem frameBlend="FALSE" id="clipitem-236">
						<file id="file-1"/>
						<name>bandicam 2025-06-02 00-01-10-144</name>
						<rate>
							<timebase>60</timebase>
							<ntsc>TRUE</ntsc>
						</rate>
						<rate>
							<timebase>60</timebase>
							<ntsc>TRUE</ntsc>
						</rate>
						<duration>102</duration>
						<start>4044</start>
						<end>4146</end>
						<in>4074</in>
						<out>4176</out>
					</clipitem>
					<clipitem frameBlend="FALSE" id="clipitem-237">
						<file id="file-1"/>
						<name>bandicam 2025-06-02 00-01-10-144</name>
						<rate>
							<timebase>60</timebase>
							<ntsc>TRUE</ntsc>
						</rate>
						<rate>
							<timebase>60</timebase>
							<ntsc>TRUE</ntsc>
						</rate>
						<duration>18</duration>
						<start>4176</start>
						<end>4194</end>
						<in>4188</in>
						<out>4206</out>
					</clipitem>
					<clipitem frameBlend="FALSE" id="clipitem-238">
						<file id="file-1"/>
						<name>bandicam 2025-06-02 00-01-10-144</name>
						<rate>
							<timebase>60</timebase>
							<ntsc>TRUE</ntsc>
						</rate>
						<rate>
							<timebase>60</timebase>
							<ntsc>TRUE</ntsc>
						</rate>
						<duration>72</duration>
						<start>4206</start>
						<end>4278</end>
						<in>4218</in>
						<out>4290</out>
					</clipitem>
					<clipitem frameBlend="FALSE" id="clipitem-239">
						<file id="file-1"/>
						<name>bandicam 2025-06-02 00-01-10-144</name>
						<rate>
							<timebase>60</timebase>
							<ntsc>TRUE</ntsc>
						</rate>
						<rate>
							<timebase>60</timebase>
							<ntsc>TRUE</ntsc>
						</rate>
						<duration>132</duration>
						<start>4290</start>
						<end>4422</end>
						<in>4302</in>
						<out>4434</out>
					</clipitem>
					<clipitem frameBlend="FALSE" id="clipitem-240">
						<file id="file-1"/>
						<name>bandicam 2025-06-02 00-01-10-144</name>
						<rate>
							<timebase>60</timebase>
							<ntsc>TRUE</ntsc>
						</rate>
						<rate>
							<timebase>60</timebase>
							<ntsc>TRUE</ntsc>
						</rate>
						<duration>90</duration>
						<start>4434</start>
						<end>4524</end>
						<in>4464</in>
						<out>4554</out>
					</clipitem>
					<clipitem frameBlend="FALSE" id="clipitem-241">
						<file id="file-1"/>
						<name>bandicam 2025-06-02 00-01-10-144</name>
						<rate>
							<timebase>60</timebase>
							<ntsc>TRUE</ntsc>
						</rate>
						<rate>
							<timebase>60</timebase>
							<ntsc>TRUE</ntsc>
						</rate>
						<duration>30</duration>
						<start>4554</start>
						<end>4584</end>
						<in>4602</in>
						<out>4632</out>
					</clipitem>
					<clipitem frameBlend="FALSE" id="clipitem-242">
						<file id="file-1"/>
						<name>bandicam 2025-06-02 00-01-10-144</name>
						<rate>
							<timebase>60</timebase>
							<ntsc>TRUE</ntsc>
						</rate>
						<rate>
							<timebase>60</timebase>
							<ntsc>TRUE</ntsc>
						</rate>
						<duration>36</duration>
						<start>4632</start>
						<end>4668</end>
						<in>4650</in>
						<out>4686</out>
					</clipitem>
					<clipitem frameBlend="FALSE" id="clipitem-243">
						<file id="file-1"/>
						<name>bandicam 2025-06-02 00-01-10-144</name>
						<rate>
							<timebase>60</timebase>
							<ntsc>TRUE</ntsc>
						</rate>
						<rate>
							<timebase>60</timebase>
							<ntsc>TRUE</ntsc>
						</rate>
						<duration>6</duration>
						<start>4686</start>
						<end>4692</end>
						<in>4704</in>
						<out>4710</out>
					</clipitem>
					<clipitem frameBlend="FALSE" id="clipitem-244">
						<file id="file-1"/>
						<name>bandicam 2025-06-02 00-01-10-144</name>
						<rate>
							<timebase>60</timebase>
							<ntsc>TRUE</ntsc>
						</rate>
						<rate>
							<timebase>60</timebase>
							<ntsc>TRUE</ntsc>
						</rate>
						<duration>102</duration>
						<start>4710</start>
						<end>4812</end>
						<in>4722</in>
						<out>4824</out>
					</clipitem>
					<clipitem frameBlend="FALSE" id="clipitem-245">
						<file id="file-1"/>
						<name>bandicam 2025-06-02 00-01-10-144</name>
						<rate>
							<timebase>60</timebase>
							<ntsc>TRUE</ntsc>
						</rate>
						<rate>
							<timebase>60</timebase>
							<ntsc>TRUE</ntsc>
						</rate>
						<duration>12</duration>
						<start>4824</start>
						<end>4836</end>
						<in>4836</in>
						<out>4848</out>
					</clipitem>
					<clipitem frameBlend="FALSE" id="clipitem-246">
						<file id="file-1"/>
						<name>bandicam 2025-06-02 00-01-10-144</name>
						<rate>
							<timebase>60</timebase>
							<ntsc>TRUE</ntsc>
						</rate>
						<rate>
							<timebase>60</timebase>
							<ntsc>TRUE</ntsc>
						</rate>
						<duration>12</duration>
						<start>4848</start>
						<end>4860</end>
						<in>4860</in>
						<out>4872</out>
					</clipitem>
					<clipitem frameBlend="FALSE" id="clipitem-247">
						<file id="file-1"/>
						<name>bandicam 2025-06-02 00-01-10-144</name>
						<rate>
							<timebase>60</timebase>
							<ntsc>TRUE</ntsc>
						</rate>
						<rate>
							<timebase>60</timebase>
							<ntsc>TRUE</ntsc>
						</rate>
						<duration>6</duration>
						<start>4872</start>
						<end>4878</end>
						<in>4890</in>
						<out>4896</out>
					</clipitem>
					<clipitem frameBlend="FALSE" id="clipitem-248">
						<file id="file-1"/>
						<name>bandicam 2025-06-02 00-01-10-144</name>
						<rate>
							<timebase>60</timebase>
							<ntsc>TRUE</ntsc>
						</rate>
						<rate>
							<timebase>60</timebase>
							<ntsc>TRUE</ntsc>
						</rate>
						<duration>24</duration>
						<start>4896</start>
						<end>4920</end>
						<in>4908</in>
						<out>4932</out>
					</clipitem>
					<clipitem frameBlend="FALSE" id="clipitem-249">
						<file id="file-1"/>
						<name>bandicam 2025-06-02 00-01-10-144</name>
						<rate>
							<timebase>60</timebase>
							<ntsc>TRUE</ntsc>
						</rate>
						<rate>
							<timebase>60</timebase>
							<ntsc>TRUE</ntsc>
						</rate>
						<duration>102</duration>
						<start>4932</start>
						<end>5034</end>
						<in>4944</in>
						<out>5046</out>
					</clipitem>
					<clipitem frameBlend="FALSE" id="clipitem-250">
						<file id="file-1"/>
						<name>bandicam 2025-06-02 00-01-10-144</name>
						<rate>
							<timebase>60</timebase>
							<ntsc>TRUE</ntsc>
						</rate>
						<rate>
							<timebase>60</timebase>
							<ntsc>TRUE</ntsc>
						</rate>
						<duration>120</duration>
						<start>5046</start>
						<end>5166</end>
						<in>5058</in>
						<out>5178</out>
					</clipitem>
					<clipitem frameBlend="FALSE" id="clipitem-251">
						<file id="file-1"/>
						<name>bandicam 2025-06-02 00-01-10-144</name>
						<rate>
							<timebase>60</timebase>
							<ntsc>TRUE</ntsc>
						</rate>
						<rate>
							<timebase>60</timebase>
							<ntsc>TRUE</ntsc>
						</rate>
						<duration>12</duration>
						<start>5178</start>
						<end>5190</end>
						<in>5202</in>
						<out>5214</out>
					</clipitem>
					<clipitem frameBlend="FALSE" id="clipitem-252">
						<file id="file-1"/>
						<name>bandicam 2025-06-02 00-01-10-144</name>
						<rate>
							<timebase>60</timebase>
							<ntsc>TRUE</ntsc>
						</rate>
						<rate>
							<timebase>60</timebase>
							<ntsc>TRUE</ntsc>
						</rate>
						<duration>36</duration>
						<start>5214</start>
						<end>5250</end>
						<in>5232</in>
						<out>5268</out>
					</clipitem>
					<clipitem frameBlend="FALSE" id="clipitem-253">
						<file id="file-1"/>
						<name>bandicam 2025-06-02 00-01-10-144</name>
						<rate>
							<timebase>60</timebase>
							<ntsc>TRUE</ntsc>
						</rate>
						<rate>
							<timebase>60</timebase>
							<ntsc>TRUE</ntsc>
						</rate>
						<duration>36</duration>
						<start>5268</start>
						<end>5304</end>
						<in>5328</in>
						<out>5364</out>
					</clipitem>
					<clipitem frameBlend="FALSE" id="clipitem-254">
						<file id="file-1"/>
						<name>bandicam 2025-06-02 00-01-10-144</name>
						<rate>
							<timebase>60</timebase>
							<ntsc>TRUE</ntsc>
						</rate>
						<rate>
							<timebase>60</timebase>
							<ntsc>TRUE</ntsc>
						</rate>
						<duration>84</duration>
						<start>5364</start>
						<end>5448</end>
						<in>5382</in>
						<out>5466</out>
					</clipitem>
					<clipitem frameBlend="FALSE" id="clipitem-255">
						<file id="file-1"/>
						<name>bandicam 2025-06-02 00-01-10-144</name>
						<rate>
							<timebase>60</timebase>
							<ntsc>TRUE</ntsc>
						</rate>
						<rate>
							<timebase>60</timebase>
							<ntsc>TRUE</ntsc>
						</rate>
						<duration>30</duration>
						<start>5466</start>
						<end>5496</end>
						<in>5490</in>
						<out>5520</out>
					</clipitem>
					<clipitem frameBlend="FALSE" id="clipitem-256">
						<file id="file-1"/>
						<name>bandicam 2025-06-02 00-01-10-144</name>
						<rate>
							<timebase>60</timebase>
							<ntsc>TRUE</ntsc>
						</rate>
						<rate>
							<timebase>60</timebase>
							<ntsc>TRUE</ntsc>
						</rate>
						<duration>66</duration>
						<start>5520</start>
						<end>5586</end>
						<in>5532</in>
						<out>5598</out>
					</clipitem>
					<clipitem frameBlend="FALSE" id="clipitem-257">
						<file id="file-1"/>
						<name>bandicam 2025-06-02 00-01-10-144</name>
						<rate>
							<timebase>60</timebase>
							<ntsc>TRUE</ntsc>
						</rate>
						<rate>
							<timebase>60</timebase>
							<ntsc>TRUE</ntsc>
						</rate>
						<duration>24</duration>
						<start>5598</start>
						<end>5622</end>
						<in>5622</in>
						<out>5646</out>
					</clipitem>
					<clipitem frameBlend="FALSE" id="clipitem-258">
						<file id="file-1"/>
						<name>bandicam 2025-06-02 00-01-10-144</name>
						<rate>
							<timebase>60</timebase>
							<ntsc>TRUE</ntsc>
						</rate>
						<rate>
							<timebase>60</timebase>
							<ntsc>TRUE</ntsc>
						</rate>
						<duration>30</duration>
						<start>5646</start>
						<end>5676</end>
						<in>5664</in>
						<out>5694</out>
					</clipitem>
					<clipitem frameBlend="FALSE" id="clipitem-259">
						<file id="file-1"/>
						<name>bandicam 2025-06-02 00-01-10-144</name>
						<rate>
							<timebase>60</timebase>
							<ntsc>TRUE</ntsc>
						</rate>
						<rate>
							<timebase>60</timebase>
							<ntsc>TRUE</ntsc>
						</rate>
						<duration>72</duration>
						<start>5694</start>
						<end>5766</end>
						<in>5712</in>
						<out>5784</out>
					</clipitem>
					<clipitem frameBlend="FALSE" id="clipitem-260">
						<file id="file-1"/>
						<name>bandicam 2025-06-02 00-01-10-144</name>
						<rate>
							<timebase>60</timebase>
							<ntsc>TRUE</ntsc>
						</rate>
						<rate>
							<timebase>60</timebase>
							<ntsc>TRUE</ntsc>
						</rate>
						<duration>288</duration>
						<start>5784</start>
						<end>6072</end>
						<in>5802</in>
						<out>6090</out>
					</clipitem>
					<clipitem frameBlend="FALSE" id="clipitem-261">
						<file id="file-1"/>
						<name>bandicam 2025-06-02 00-01-10-144</name>
						<rate>
							<timebase>60</timebase>
							<ntsc>TRUE</ntsc>
						</rate>
						<rate>
							<timebase>60</timebase>
							<ntsc>TRUE</ntsc>
						</rate>
						<duration>0</duration>
						<start>6090</start>
						<end>6090</end>
						<in>6132</in>
						<out>6132</out>
					</clipitem>
					<clipitem frameBlend="FALSE" id="clipitem-262">
						<file id="file-1"/>
						<name>bandicam 2025-06-02 00-01-10-144</name>
						<rate>
							<timebase>60</timebase>
							<ntsc>TRUE</ntsc>
						</rate>
						<rate>
							<timebase>60</timebase>
							<ntsc>TRUE</ntsc>
						</rate>
						<duration>60</duration>
						<start>6132</start>
						<end>6192</end>
						<in>6150</in>
						<out>6210</out>
					</clipitem>
					<clipitem frameBlend="FALSE" id="clipitem-263">
						<file id="file-1"/>
						<name>bandicam 2025-06-02 00-01-10-144</name>
						<rate>
							<timebase>60</timebase>
							<ntsc>TRUE</ntsc>
						</rate>
						<rate>
							<timebase>60</timebase>
							<ntsc>TRUE</ntsc>
						</rate>
						<duration>42</duration>
						<start>6210</start>
						<end>6252</end>
						<in>6222</in>
						<out>6264</out>
					</clipitem>
					<clipitem frameBlend="FALSE" id="clipitem-264">
						<file id="file-1"/>
						<name>bandicam 2025-06-02 00-01-10-144</name>
						<rate>
							<timebase>60</timebase>
							<ntsc>TRUE</ntsc>
						</rate>
						<rate>
							<timebase>60</timebase>
							<ntsc>TRUE</ntsc>
						</rate>
						<duration>0</duration>
						<start>6264</start>
						<end>6264</end>
						<in>6282</in>
						<out>6282</out>
					</clipitem>
					<clipitem frameBlend="FALSE" id="clipitem-265">
						<file id="file-1"/>
						<name>bandicam 2025-06-02 00-01-10-144</name>
						<rate>
							<timebase>60</timebase>
							<ntsc>TRUE</ntsc>
						</rate>
						<rate>
							<timebase>60</timebase>
							<ntsc>TRUE</ntsc>
						</rate>
						<duration>0</duration>
						<start>6282</start>
						<end>6282</end>
						<in>6300</in>
						<out>6300</out>
					</clipitem>
					<clipitem frameBlend="FALSE" id="clipitem-266">
						<file id="file-1"/>
						<name>bandicam 2025-06-02 00-01-10-144</name>
						<rate>
							<timebase>60</timebase>
							<ntsc>TRUE</ntsc>
						</rate>
						<rate>
							<timebase>60</timebase>
							<ntsc>TRUE</ntsc>
						</rate>
						<duration>36</duration>
						<start>6300</start>
						<end>6336</end>
						<in>6312</in>
						<out>6348</out>
					</clipitem>
					<clipitem frameBlend="FALSE" id="clipitem-267">
						<file id="file-1"/>
						<name>bandicam 2025-06-02 00-01-10-144</name>
						<rate>
							<timebase>60</timebase>
							<ntsc>TRUE</ntsc>
						</rate>
						<rate>
							<timebase>60</timebase>
							<ntsc>TRUE</ntsc>
						</rate>
						<duration>36</duration>
						<start>6348</start>
						<end>6384</end>
						<in>6384</in>
						<out>6420</out>
					</clipitem>
					<clipitem frameBlend="FALSE" id="clipitem-268">
						<file id="file-1"/>
						<name>bandicam 2025-06-02 00-01-10-144</name>
						<rate>
							<timebase>60</timebase>
							<ntsc>TRUE</ntsc>
						</rate>
						<rate>
							<timebase>60</timebase>
							<ntsc>TRUE</ntsc>
						</rate>
						<duration>24</duration>
						<start>6420</start>
						<end>6444</end>
						<in>6432</in>
						<out>6456</out>
					</clipitem>
					<clipitem frameBlend="FALSE" id="clipitem-269">
						<file id="file-1"/>
						<name>bandicam 2025-06-02 00-01-10-144</name>
						<rate>
							<timebase>60</timebase>
							<ntsc>TRUE</ntsc>
						</rate>
						<rate>
							<timebase>60</timebase>
							<ntsc>TRUE</ntsc>
						</rate>
						<duration>120</duration>
						<start>6456</start>
						<end>6576</end>
						<in>6468</in>
						<out>6588</out>
					</clipitem>
					<clipitem frameBlend="FALSE" id="clipitem-270">
						<file id="file-1"/>
						<name>bandicam 2025-06-02 00-01-10-144</name>
						<rate>
							<timebase>60</timebase>
							<ntsc>TRUE</ntsc>
						</rate>
						<rate>
							<timebase>60</timebase>
							<ntsc>TRUE</ntsc>
						</rate>
						<duration>36</duration>
						<start>6588</start>
						<end>6624</end>
						<in>6612</in>
						<out>6648</out>
					</clipitem>
					<clipitem frameBlend="FALSE" id="clipitem-271">
						<file id="file-1"/>
						<name>bandicam 2025-06-02 00-01-10-144</name>
						<rate>
							<timebase>60</timebase>
							<ntsc>TRUE</ntsc>
						</rate>
						<rate>
							<timebase>60</timebase>
							<ntsc>TRUE</ntsc>
						</rate>
						<duration>0</duration>
						<start>6648</start>
						<end>6648</end>
						<in>6714</in>
						<out>6714</out>
					</clipitem>
					<clipitem frameBlend="FALSE" id="clipitem-272">
						<file id="file-1"/>
						<name>bandicam 2025-06-02 00-01-10-144</name>
						<rate>
							<timebase>60</timebase>
							<ntsc>TRUE</ntsc>
						</rate>
						<rate>
							<timebase>60</timebase>
							<ntsc>TRUE</ntsc>
						</rate>
						<duration>6</duration>
						<start>6714</start>
						<end>6720</end>
						<in>6726</in>
						<out>6732</out>
					</clipitem>
					<clipitem frameBlend="FALSE" id="clipitem-273">
						<file id="file-1"/>
						<name>bandicam 2025-06-02 00-01-10-144</name>
						<rate>
							<timebase>60</timebase>
							<ntsc>TRUE</ntsc>
						</rate>
						<rate>
							<timebase>60</timebase>
							<ntsc>TRUE</ntsc>
						</rate>
						<duration>18</duration>
						<start>6732</start>
						<end>6750</end>
						<in>6750</in>
						<out>6768</out>
					</clipitem>
					<clipitem frameBlend="FALSE" id="clipitem-274">
						<file id="file-1"/>
						<name>bandicam 2025-06-02 00-01-10-144</name>
						<rate>
							<timebase>60</timebase>
							<ntsc>TRUE</ntsc>
						</rate>
						<rate>
							<timebase>60</timebase>
							<ntsc>TRUE</ntsc>
						</rate>
						<duration>66</duration>
						<start>6768</start>
						<end>6834</end>
						<in>6798</in>
						<out>6864</out>
					</clipitem>
					<clipitem frameBlend="FALSE" id="clipitem-275">
						<file id="file-1"/>
						<name>bandicam 2025-06-02 00-01-10-144</name>
						<rate>
							<timebase>60</timebase>
							<ntsc>TRUE</ntsc>
						</rate>
						<rate>
							<timebase>60</timebase>
							<ntsc>TRUE</ntsc>
						</rate>
						<duration>6</duration>
						<start>6864</start>
						<end>6870</end>
						<in>6894</in>
						<out>6900</out>
					</clipitem>
					<clipitem frameBlend="FALSE" id="clipitem-276">
						<file id="file-1"/>
						<name>bandicam 2025-06-02 00-01-10-144</name>
						<rate>
							<timebase>60</timebase>
							<ntsc>TRUE</ntsc>
						</rate>
						<rate>
							<timebase>60</timebase>
							<ntsc>TRUE</ntsc>
						</rate>
						<duration>42</duration>
						<start>6900</start>
						<end>6942</end>
						<in>6912</in>
						<out>6954</out>
					</clipitem>
					<clipitem frameBlend="FALSE" id="clipitem-277">
						<file id="file-1"/>
						<name>bandicam 2025-06-02 00-01-10-144</name>
						<rate>
							<timebase>60</timebase>
							<ntsc>TRUE</ntsc>
						</rate>
						<rate>
							<timebase>60</timebase>
							<ntsc>TRUE</ntsc>
						</rate>
						<duration>54</duration>
						<start>6954</start>
						<end>7008</end>
						<in>6996</in>
						<out>7050</out>
					</clipitem>
					<clipitem frameBlend="FALSE" id="clipitem-278">
						<file id="file-1"/>
						<name>bandicam 2025-06-02 00-01-10-144</name>
						<rate>
							<timebase>60</timebase>
							<ntsc>TRUE</ntsc>
						</rate>
						<rate>
							<timebase>60</timebase>
							<ntsc>TRUE</ntsc>
						</rate>
						<duration>6</duration>
						<start>7050</start>
						<end>7056</end>
						<in>114</in>
						<out>120</out>
					</clipitem>
					<clipitem frameBlend="FALSE" id="clipitem-279">
						<file id="file-1"/>
						<name>bandicam 2025-06-02 00-01-10-144</name>
						<rate>
							<timebase>60</timebase>
							<ntsc>TRUE</ntsc>
						</rate>
						<rate>
							<timebase>60</timebase>
							<ntsc>TRUE</ntsc>
						</rate>
						<duration>6</duration>
						<start>120</start>
						<end>126</end>
						<in>1410</in>
						<out>1416</out>
					</clipitem>
					<clipitem frameBlend="FALSE" id="clipitem-280">
						<file id="file-1"/>
						<name>bandicam 2025-06-02 00-01-10-144</name>
						<rate>
							<timebase>60</timebase>
							<ntsc>TRUE</ntsc>
						</rate>
						<rate>
							<timebase>60</timebase>
							<ntsc>TRUE</ntsc>
						</rate>
						<duration>0</duration>
						<start>1416</start>
						<end>1416</end>
						<in>1704</in>
						<out>1704</out>
					</clipitem>
					<clipitem frameBlend="FALSE" id="clipitem-281">
						<file id="file-1"/>
						<name>bandicam 2025-06-02 00-01-10-144</name>
						<rate>
							<timebase>60</timebase>
							<ntsc>TRUE</ntsc>
						</rate>
						<rate>
							<timebase>60</timebase>
							<ntsc>TRUE</ntsc>
						</rate>
						<duration>12</duration>
						<start>1704</start>
						<end>1716</end>
						<in>1746</in>
						<out>1758</out>
					</clipitem>
					<clipitem frameBlend="FALSE" id="clipitem-282">
						<file id="file-1"/>
						<name>bandicam 2025-06-02 00-01-10-144</name>
						<rate>
							<timebase>60</timebase>
							<ntsc>TRUE</ntsc>
						</rate>
						<rate>
							<timebase>60</timebase>
							<ntsc>TRUE</ntsc>
						</rate>
						<duration>6</duration>
						<start>1758</start>
						<end>1764</end>
						<in>2448</in>
						<out>2454</out>
					</clipitem>
					<clipitem frameBlend="FALSE" id="clipitem-283">
						<file id="file-1"/>
						<name>bandicam 2025-06-02 00-01-10-144</name>
						<rate>
							<timebase>60</timebase>
							<ntsc>TRUE</ntsc>
						</rate>
						<rate>
							<timebase>60</timebase>
							<ntsc>TRUE</ntsc>
						</rate>
						<duration>12</duration>
						<start>2454</start>
						<end>2466</end>
						<in>2742</in>
						<out>2754</out>
					</clipitem>
					<clipitem frameBlend="FALSE" id="clipitem-284">
						<file id="file-1"/>
						<name>bandicam 2025-06-02 00-01-10-144</name>
						<rate>
							<timebase>60</timebase>
							<ntsc>TRUE</ntsc>
						</rate>
						<rate>
							<timebase>60</timebase>
							<ntsc>TRUE</ntsc>
						</rate>
						<duration>6</duration>
						<start>2754</start>
						<end>2760</end>
						<in>2766</in>
						<out>2772</out>
					</clipitem>
					<clipitem frameBlend="FALSE" id="clipitem-285">
						<file id="file-1"/>
						<name>bandicam 2025-06-02 00-01-10-144</name>
						<rate>
							<timebase>60</timebase>
							<ntsc>TRUE</ntsc>
						</rate>
						<rate>
							<timebase>60</timebase>
							<ntsc>TRUE</ntsc>
						</rate>
						<duration>12</duration>
						<start>2772</start>
						<end>2784</end>
						<in>2808</in>
						<out>2820</out>
					</clipitem>
					<clipitem frameBlend="FALSE" id="clipitem-286">
						<file id="file-1"/>
						<name>bandicam 2025-06-02 00-01-10-144</name>
						<rate>
							<timebase>60</timebase>
							<ntsc>TRUE</ntsc>
						</rate>
						<rate>
							<timebase>60</timebase>
							<ntsc>TRUE</ntsc>
						</rate>
						<duration>30</duration>
						<start>2820</start>
						<end>2850</end>
						<in>3072</in>
						<out>3102</out>
					</clipitem>
					<clipitem frameBlend="FALSE" id="clipitem-287">
						<file id="file-1"/>
						<name>bandicam 2025-06-02 00-01-10-144</name>
						<rate>
							<timebase>60</timebase>
							<ntsc>TRUE</ntsc>
						</rate>
						<rate>
							<timebase>60</timebase>
							<ntsc>TRUE</ntsc>
						</rate>
						<duration>18</duration>
						<start>3102</start>
						<end>3120</end>
						<in>3270</in>
						<out>3288</out>
					</clipitem>
					<clipitem frameBlend="FALSE" id="clipitem-288">
						<file id="file-1"/>
						<name>bandicam 2025-06-02 00-01-10-144</name>
						<rate>
							<timebase>60</timebase>
							<ntsc>TRUE</ntsc>
						</rate>
						<rate>
							<timebase>60</timebase>
							<ntsc>TRUE</ntsc>
						</rate>
						<duration>0</duration>
						<start>3288</start>
						<end>3288</end>
						<in>3630</in>
						<out>3630</out>
					</clipitem>
					<clipitem frameBlend="FALSE" id="clipitem-289">
						<file id="file-1"/>
						<name>bandicam 2025-06-02 00-01-10-144</name>
						<rate>
							<timebase>60</timebase>
							<ntsc>TRUE</ntsc>
						</rate>
						<rate>
							<timebase>60</timebase>
							<ntsc>TRUE</ntsc>
						</rate>
						<duration>6</duration>
						<start>3630</start>
						<end>3636</end>
						<in>4086</in>
						<out>4092</out>
					</clipitem>
					<clipitem frameBlend="FALSE" id="clipitem-290">
						<file id="file-1"/>
						<name>bandicam 2025-06-02 00-01-10-144</name>
						<rate>
							<timebase>60</timebase>
							<ntsc>TRUE</ntsc>
						</rate>
						<rate>
							<timebase>60</timebase>
							<ntsc>TRUE</ntsc>
						</rate>
						<duration>6</duration>
						<start>4092</start>
						<end>4098</end>
						<in>4104</in>
						<out>4110</out>
					</clipitem>
					<clipitem frameBlend="FALSE" id="clipitem-291">
						<file id="file-1"/>
						<name>bandicam 2025-06-02 00-01-10-144</name>
						<rate>
							<timebase>60</timebase>
							<ntsc>TRUE</ntsc>
						</rate>
						<rate>
							<timebase>60</timebase>
							<ntsc>TRUE</ntsc>
						</rate>
						<duration>0</duration>
						<start>4110</start>
						<end>4110</end>
						<in>4134</in>
						<out>4134</out>
					</clipitem>
					<clipitem frameBlend="FALSE" id="clipitem-292">
						<file id="file-1"/>
						<name>bandicam 2025-06-02 00-01-10-144</name>
						<rate>
							<timebase>60</timebase>
							<ntsc>TRUE</ntsc>
						</rate>
						<rate>
							<timebase>60</timebase>
							<ntsc>TRUE</ntsc>
						</rate>
						<duration>6</duration>
						<start>4134</start>
						<end>4140</end>
						<in>4188</in>
						<out>4194</out>
					</clipitem>
					<clipitem frameBlend="FALSE" id="clipitem-293">
						<file id="file-1"/>
						<name>bandicam 2025-06-02 00-01-10-144</name>
						<rate>
							<timebase>60</timebase>
							<ntsc>TRUE</ntsc>
						</rate>
						<rate>
							<timebase>60</timebase>
							<ntsc>TRUE</ntsc>
						</rate>
						<duration>0</duration>
						<start>4194</start>
						<end>4194</end>
						<in>4230</in>
						<out>4230</out>
					</clipitem>
					<clipitem frameBlend="FALSE" id="clipitem-294">
						<file id="file-1"/>
						<name>bandicam 2025-06-02 00-01-10-144</name>
						<rate>
							<timebase>60</timebase>
							<ntsc>TRUE</ntsc>
						</rate>
						<rate>
							<timebase>60</timebase>
							<ntsc>TRUE</ntsc>
						</rate>
						<duration>6</duration>
						<start>4230</start>
						<end>4236</end>
						<in>4242</in>
						<out>4248</out>
					</clipitem>
					<clipitem frameBlend="FALSE" id="clipitem-295">
						<file id="file-1"/>
						<name>bandicam 2025-06-02 00-01-10-144</name>
						<rate>
							<timebase>60</timebase>
							<ntsc>TRUE</ntsc>
						</rate>
						<rate>
							<timebase>60</timebase>
							<ntsc>TRUE</ntsc>
						</rate>
						<duration>0</duration>
						<start>4248</start>
						<end>4248</end>
						<in>4368</in>
						<out>4368</out>
					</clipitem>
					<clipitem frameBlend="FALSE" id="clipitem-296">
						<file id="file-1"/>
						<name>bandicam 2025-06-02 00-01-10-144</name>
						<rate>
							<timebase>60</timebase>
							<ntsc>TRUE</ntsc>
						</rate>
						<rate>
							<timebase>60</timebase>
							<ntsc>TRUE</ntsc>
						</rate>
						<duration>0</duration>
						<start>4368</start>
						<end>4368</end>
						<in>4512</in>
						<out>4512</out>
					</clipitem>
					<clipitem frameBlend="FALSE" id="clipitem-297">
						<file id="file-1"/>
						<name>bandicam 2025-06-02 00-01-10-144</name>
						<rate>
							<timebase>60</timebase>
							<ntsc>TRUE</ntsc>
						</rate>
						<rate>
							<timebase>60</timebase>
							<ntsc>TRUE</ntsc>
						</rate>
						<duration>0</duration>
						<start>4512</start>
						<end>4512</end>
						<in>4602</in>
						<out>4602</out>
					</clipitem>
					<clipitem frameBlend="FALSE" id="clipitem-298">
						<file id="file-1"/>
						<name>bandicam 2025-06-02 00-01-10-144</name>
						<rate>
							<timebase>60</timebase>
							<ntsc>TRUE</ntsc>
						</rate>
						<rate>
							<timebase>60</timebase>
							<ntsc>TRUE</ntsc>
						</rate>
						<duration>6</duration>
						<start>4602</start>
						<end>4608</end>
						<in>4614</in>
						<out>4620</out>
					</clipitem>
					<clipitem frameBlend="FALSE" id="clipitem-299">
						<file id="file-1"/>
						<name>bandicam 2025-06-02 00-01-10-144</name>
						<rate>
							<timebase>60</timebase>
							<ntsc>TRUE</ntsc>
						</rate>
						<rate>
							<timebase>60</timebase>
							<ntsc>TRUE</ntsc>
						</rate>
						<duration>0</duration>
						<start>4620</start>
						<end>4620</end>
						<in>4722</in>
						<out>4722</out>
					</clipitem>
					<clipitem frameBlend="FALSE" id="clipitem-300">
						<file id="file-1"/>
						<name>bandicam 2025-06-02 00-01-10-144</name>
						<rate>
							<timebase>60</timebase>
							<ntsc>TRUE</ntsc>
						</rate>
						<rate>
							<timebase>60</timebase>
							<ntsc>TRUE</ntsc>
						</rate>
						<duration>6</duration>
						<start>4722</start>
						<end>4728</end>
						<in>5112</in>
						<out>5118</out>
					</clipitem>
					<clipitem frameBlend="FALSE" id="clipitem-301">
						<file id="file-1"/>
						<name>bandicam 2025-06-02 00-01-10-144</name>
						<rate>
							<timebase>60</timebase>
							<ntsc>TRUE</ntsc>
						</rate>
						<rate>
							<timebase>60</timebase>
							<ntsc>TRUE</ntsc>
						</rate>
						<duration>6</duration>
						<start>5118</start>
						<end>5124</end>
						<in>5142</in>
						<out>5148</out>
					</clipitem>
					<clipitem frameBlend="FALSE" id="clipitem-302">
						<file id="file-1"/>
						<name>bandicam 2025-06-02 00-01-10-144</name>
						<rate>
							<timebase>60</timebase>
							<ntsc>TRUE</ntsc>
						</rate>
						<rate>
							<timebase>60</timebase>
							<ntsc>TRUE</ntsc>
						</rate>
						<duration>12</duration>
						<start>5148</start>
						<end>5160</end>
						<in>5160</in>
						<out>5172</out>
					</clipitem>
					<clipitem frameBlend="FALSE" id="clipitem-303">
						<file id="file-1"/>
						<name>bandicam 2025-06-02 00-01-10-144</name>
						<rate>
							<timebase>60</timebase>
							<ntsc>TRUE</ntsc>
						</rate>
						<rate>
							<timebase>60</timebase>
							<ntsc>TRUE</ntsc>
						</rate>
						<duration>0</duration>
						<start>5172</start>
						<end>5172</end>
						<in>5340</in>
						<out>5340</out>
					</clipitem>
					<clipitem frameBlend="FALSE" id="clipitem-304">
						<file id="file-1"/>
						<name>bandicam 2025-06-02 00-01-10-144</name>
						<rate>
							<timebase>60</timebase>
							<ntsc>TRUE</ntsc>
						</rate>
						<rate>
							<timebase>60</timebase>
							<ntsc>TRUE</ntsc>
						</rate>
						<duration>0</duration>
						<start>5340</start>
						<end>5340</end>
						<in>5448</in>
						<out>5448</out>
					</clipitem>
					<clipitem frameBlend="FALSE" id="clipitem-305">
						<file id="file-1"/>
						<name>bandicam 2025-06-02 00-01-10-144</name>
						<rate>
							<timebase>60</timebase>
							<ntsc>TRUE</ntsc>
						</rate>
						<rate>
							<timebase>60</timebase>
							<ntsc>TRUE</ntsc>
						</rate>
						<duration>0</duration>
						<start>5448</start>
						<end>5448</end>
						<in>5592</in>
						<out>5592</out>
					</clipitem>
					<clipitem frameBlend="FALSE" id="clipitem-306">
						<file id="file-1"/>
						<name>bandicam 2025-06-02 00-01-10-144</name>
						<rate>
							<timebase>60</timebase>
							<ntsc>TRUE</ntsc>
						</rate>
						<rate>
							<timebase>60</timebase>
							<ntsc>TRUE</ntsc>
						</rate>
						<duration>18</duration>
						<start>5592</start>
						<end>5610</end>
						<in>5670</in>
						<out>5688</out>
					</clipitem>
					<clipitem frameBlend="FALSE" id="clipitem-307">
						<file id="file-1"/>
						<name>bandicam 2025-06-02 00-01-10-144</name>
						<rate>
							<timebase>60</timebase>
							<ntsc>TRUE</ntsc>
						</rate>
						<rate>
							<timebase>60</timebase>
							<ntsc>TRUE</ntsc>
						</rate>
						<duration>18</duration>
						<start>5688</start>
						<end>5706</end>
						<in>5760</in>
						<out>5778</out>
					</clipitem>
					<clipitem frameBlend="FALSE" id="clipitem-308">
						<file id="file-1"/>
						<name>bandicam 2025-06-02 00-01-10-144</name>
						<rate>
							<timebase>60</timebase>
							<ntsc>TRUE</ntsc>
						</rate>
						<rate>
							<timebase>60</timebase>
							<ntsc>TRUE</ntsc>
						</rate>
						<duration>72</duration>
						<start>5778</start>
						<end>5850</end>
						<in>5802</in>
						<out>5874</out>
					</clipitem>
					<clipitem frameBlend="FALSE" id="clipitem-309">
						<file id="file-1"/>
						<name>bandicam 2025-06-02 00-01-10-144</name>
						<rate>
							<timebase>60</timebase>
							<ntsc>TRUE</ntsc>
						</rate>
						<rate>
							<timebase>60</timebase>
							<ntsc>TRUE</ntsc>
						</rate>
						<duration>0</duration>
						<start>5874</start>
						<end>5874</end>
						<in>5910</in>
						<out>5910</out>
					</clipitem>
					<clipitem frameBlend="FALSE" id="clipitem-310">
						<file id="file-1"/>
						<name>bandicam 2025-06-02 00-01-10-144</name>
						<rate>
							<timebase>60</timebase>
							<ntsc>TRUE</ntsc>
						</rate>
						<rate>
							<timebase>60</timebase>
							<ntsc>TRUE</ntsc>
						</rate>
						<duration>36</duration>
						<start>5910</start>
						<end>5946</end>
						<in>5922</in>
						<out>5958</out>
					</clipitem>
					<clipitem frameBlend="FALSE" id="clipitem-311">
						<file id="file-1"/>
						<name>bandicam 2025-06-02 00-01-10-144</name>
						<rate>
							<timebase>60</timebase>
							<ntsc>TRUE</ntsc>
						</rate>
						<rate>
							<timebase>60</timebase>
							<ntsc>TRUE</ntsc>
						</rate>
						<duration>18</duration>
						<start>5958</start>
						<end>5976</end>
						<in>6012</in>
						<out>6030</out>
					</clipitem>
					<clipitem frameBlend="FALSE" id="clipitem-312">
						<file id="file-1"/>
						<name>bandicam 2025-06-02 00-01-10-144</name>
						<rate>
							<timebase>60</timebase>
							<ntsc>TRUE</ntsc>
						</rate>
						<rate>
							<timebase>60</timebase>
							<ntsc>TRUE</ntsc>
						</rate>
						<duration>24</duration>
						<start>6030</start>
						<end>6054</end>
						<in>6156</in>
						<out>6180</out>
					</clipitem>
					<clipitem frameBlend="FALSE" id="clipitem-313">
						<file id="file-1"/>
						<name>bandicam 2025-06-02 00-01-10-144</name>
						<rate>
							<timebase>60</timebase>
							<ntsc>TRUE</ntsc>
						</rate>
						<rate>
							<timebase>60</timebase>
							<ntsc>TRUE</ntsc>
						</rate>
						<duration>0</duration>
						<start>6180</start>
						<end>6180</end>
						<in>6234</in>
						<out>6234</out>
					</clipitem>
					<clipitem frameBlend="FALSE" id="clipitem-314">
						<file id="file-1"/>
						<name>bandicam 2025-06-02 00-01-10-144</name>
						<rate>
							<timebase>60</timebase>
							<ntsc>TRUE</ntsc>
						</rate>
						<rate>
							<timebase>60</timebase>
							<ntsc>TRUE</ntsc>
						</rate>
						<duration>0</duration>
						<start>6234</start>
						<end>6234</end>
						<in>1704</in>
						<out>1704</out>
					</clipitem>
					<clipitem frameBlend="FALSE" id="clipitem-315">
						<file id="file-1"/>
						<name>bandicam 2025-06-02 00-01-10-144</name>
						<rate>
							<timebase>60</timebase>
							<ntsc>TRUE</ntsc>
						</rate>
						<rate>
							<timebase>60</timebase>
							<ntsc>TRUE</ntsc>
						</rate>
						<duration>0</duration>
						<start>1704</start>
						<end>1704</end>
						<in>2448</in>
						<out>2448</out>
					</clipitem>
					<clipitem frameBlend="FALSE" id="clipitem-316">
						<file id="file-1"/>
						<name>bandicam 2025-06-02 00-01-10-144</name>
						<rate>
							<timebase>60</timebase>
							<ntsc>TRUE</ntsc>
						</rate>
						<rate>
							<timebase>60</timebase>
							<ntsc>TRUE</ntsc>
						</rate>
						<duration>0</duration>
						<start>2448</start>
						<end>2448</end>
						<in>3084</in>
						<out>3084</out>
					</clipitem>
					<clipitem frameBlend="FALSE" id="clipitem-317">
						<file id="file-1"/>
						<name>bandicam 2025-06-02 00-01-10-144</name>
						<rate>
							<timebase>60</timebase>
							<ntsc>TRUE</ntsc>
						</rate>
						<rate>
							<timebase>60</timebase>
							<ntsc>TRUE</ntsc>
						</rate>
						<duration>12</duration>
						<start>3084</start>
						<end>3096</end>
						<in>3270</in>
						<out>3282</out>
					</clipitem>
					<clipitem frameBlend="FALSE" id="clipitem-318">
						<file id="file-1"/>
						<name>bandicam 2025-06-02 00-01-10-144</name>
						<rate>
							<timebase>60</timebase>
							<ntsc>TRUE</ntsc>
						</rate>
						<rate>
							<timebase>60</timebase>
							<ntsc>TRUE</ntsc>
						</rate>
						<duration>0</duration>
						<start>3282</start>
						<end>3282</end>
						<in>4134</in>
						<out>4134</out>
					</clipitem>
					<clipitem frameBlend="FALSE" id="clipitem-319">
						<file id="file-1"/>
						<name>bandicam 2025-06-02 00-01-10-144</name>
						<rate>
							<timebase>60</timebase>
							<ntsc>TRUE</ntsc>
						</rate>
						<rate>
							<timebase>60</timebase>
							<ntsc>TRUE</ntsc>
						</rate>
						<duration>6</duration>
						<start>4134</start>
						<end>4140</end>
						<in>4188</in>
						<out>4194</out>
					</clipitem>
					<clipitem frameBlend="FALSE" id="clipitem-320">
						<file id="file-1"/>
						<name>bandicam 2025-06-02 00-01-10-144</name>
						<rate>
							<timebase>60</timebase>
							<ntsc>TRUE</ntsc>
						</rate>
						<rate>
							<timebase>60</timebase>
							<ntsc>TRUE</ntsc>
						</rate>
						<duration>0</duration>
						<start>4194</start>
						<end>4194</end>
						<in>4368</in>
						<out>4368</out>
					</clipitem>
					<clipitem frameBlend="FALSE" id="clipitem-321">
						<file id="file-1"/>
						<name>bandicam 2025-06-02 00-01-10-144</name>
						<rate>
							<timebase>60</timebase>
							<ntsc>TRUE</ntsc>
						</rate>
						<rate>
							<timebase>60</timebase>
							<ntsc>TRUE</ntsc>
						</rate>
						<duration>0</duration>
						<start>4368</start>
						<end>4368</end>
						<in>4722</in>
						<out>4722</out>
					</clipitem>
					<clipitem frameBlend="FALSE" id="clipitem-322">
						<file id="file-1"/>
						<name>bandicam 2025-06-02 00-01-10-144</name>
						<rate>
							<timebase>60</timebase>
							<ntsc>TRUE</ntsc>
						</rate>
						<rate>
							<timebase>60</timebase>
							<ntsc>TRUE</ntsc>
						</rate>
						<duration>6</duration>
						<start>4722</start>
						<end>4728</end>
						<in>5142</in>
						<out>5148</out>
					</clipitem>
					<clipitem frameBlend="FALSE" id="clipitem-323">
						<file id="file-1"/>
						<name>bandicam 2025-06-02 00-01-10-144</name>
						<rate>
							<timebase>60</timebase>
							<ntsc>TRUE</ntsc>
						</rate>
						<rate>
							<timebase>60</timebase>
							<ntsc>TRUE</ntsc>
						</rate>
						<duration>12</duration>
						<start>5148</start>
						<end>5160</end>
						<in>5676</in>
						<out>5688</out>
					</clipitem>
					<clipitem frameBlend="FALSE" id="clipitem-324">
						<file id="file-1"/>
						<name>bandicam 2025-06-02 00-01-10-144</name>
						<rate>
							<timebase>60</timebase>
							<ntsc>TRUE</ntsc>
						</rate>
						<rate>
							<timebase>60</timebase>
							<ntsc>TRUE</ntsc>
						</rate>
						<duration>0</duration>
						<start>5688</start>
						<end>5688</end>
						<in>5766</in>
						<out>5766</out>
					</clipitem>
					<clipitem frameBlend="FALSE" id="clipitem-325">
						<file id="file-1"/>
						<name>bandicam 2025-06-02 00-01-10-144</name>
						<rate>
							<timebase>60</timebase>
							<ntsc>TRUE</ntsc>
						</rate>
						<rate>
							<timebase>60</timebase>
							<ntsc>TRUE</ntsc>
						</rate>
						<duration>12</duration>
						<start>5766</start>
						<end>5778</end>
						<in>5814</in>
						<out>5826</out>
					</clipitem>
					<clipitem frameBlend="FALSE" id="clipitem-326">
						<file id="file-1"/>
						<name>bandicam 2025-06-02 00-01-10-144</name>
						<rate>
							<timebase>60</timebase>
							<ntsc>TRUE</ntsc>
						</rate>
						<rate>
							<timebase>60</timebase>
							<ntsc>TRUE</ntsc>
						</rate>
						<duration>12</duration>
						<start>5826</start>
						<end>5838</end>
						<in>5850</in>
						<out>5862</out>
					</clipitem>
					<clipitem frameBlend="FALSE" id="clipitem-327">
						<file id="file-1"/>
						<name>bandicam 2025-06-02 00-01-10-144</name>
						<rate>
							<timebase>60</timebase>
							<ntsc>TRUE</ntsc>
						</rate>
						<rate>
							<timebase>60</timebase>
							<ntsc>TRUE</ntsc>
						</rate>
						<duration>6</duration>
						<start>5862</start>
						<end>5868</end>
						<in>12</in>
						<out>18</out>
					</clipitem>
					<clipitem frameBlend="FALSE" id="clipitem-328">
						<file id="file-1"/>
						<name>bandicam 2025-06-02 00-01-10-144</name>
						<rate>
							<timebase>60</timebase>
							<ntsc>TRUE</ntsc>
						</rate>
						<rate>
							<timebase>60</timebase>
							<ntsc>TRUE</ntsc>
						</rate>
						<duration>0</duration>
						<start>18</start>
						<end>18</end>
						<in>60</in>
						<out>60</out>
					</clipitem>
					<clipitem frameBlend="FALSE" id="clipitem-329">
						<file id="file-1"/>
						<name>bandicam 2025-06-02 00-01-10-144</name>
						<rate>
							<timebase>60</timebase>
							<ntsc>TRUE</ntsc>
						</rate>
						<rate>
							<timebase>60</timebase>
							<ntsc>TRUE</ntsc>
						</rate>
						<duration>0</duration>
						<start>60</start>
						<end>60</end>
						<in>84</in>
						<out>84</out>
					</clipitem>
					<clipitem frameBlend="FALSE" id="clipitem-330">
						<file id="file-1"/>
						<name>bandicam 2025-06-02 00-01-10-144</name>
						<rate>
							<timebase>60</timebase>
							<ntsc>TRUE</ntsc>
						</rate>
						<rate>
							<timebase>60</timebase>
							<ntsc>TRUE</ntsc>
						</rate>
						<duration>18</duration>
						<start>84</start>
						<end>102</end>
						<in>108</in>
						<out>126</out>
					</clipitem>
					<clipitem frameBlend="FALSE" id="clipitem-331">
						<file id="file-1"/>
						<name>bandicam 2025-06-02 00-01-10-144</name>
						<rate>
							<timebase>60</timebase>
							<ntsc>TRUE</ntsc>
						</rate>
						<rate>
							<timebase>60</timebase>
							<ntsc>TRUE</ntsc>
						</rate>
						<duration>6</duration>
						<start>126</start>
						<end>132</end>
						<in>174</in>
						<out>180</out>
					</clipitem>
					<clipitem frameBlend="FALSE" id="clipitem-332">
						<file id="file-1"/>
						<name>bandicam 2025-06-02 00-01-10-144</name>
						<rate>
							<timebase>60</timebase>
							<ntsc>TRUE</ntsc>
						</rate>
						<rate>
							<timebase>60</timebase>
							<ntsc>TRUE</ntsc>
						</rate>
						<duration>0</duration>
						<start>180</start>
						<end>180</end>
						<in>300</in>
						<out>300</out>
					</clipitem>
					<clipitem frameBlend="FALSE" id="clipitem-333">
						<file id="file-1"/>
						<name>bandicam 2025-06-02 00-01-10-144</name>
						<rate>
							<timebase>60</timebase>
							<ntsc>TRUE</ntsc>
						</rate>
						<rate>
							<timebase>60</timebase>
							<ntsc>TRUE</ntsc>
						</rate>
						<duration>6</duration>
						<start>300</start>
						<end>306</end>
						<in>360</in>
						<out>366</out>
					</clipitem>
					<clipitem frameBlend="FALSE" id="clipitem-334">
						<file id="file-1"/>
						<name>bandicam 2025-06-02 00-01-10-144</name>
						<rate>
							<timebase>60</timebase>
							<ntsc>TRUE</ntsc>
						</rate>
						<rate>
							<timebase>60</timebase>
							<ntsc>TRUE</ntsc>
						</rate>
						<duration>0</duration>
						<start>366</start>
						<end>366</end>
						<in>438</in>
						<out>438</out>
					</clipitem>
					<clipitem frameBlend="FALSE" id="clipitem-335">
						<file id="file-1"/>
						<name>bandicam 2025-06-02 00-01-10-144</name>
						<rate>
							<timebase>60</timebase>
							<ntsc>TRUE</ntsc>
						</rate>
						<rate>
							<timebase>60</timebase>
							<ntsc>TRUE</ntsc>
						</rate>
						<duration>30</duration>
						<start>438</start>
						<end>468</end>
						<in>450</in>
						<out>480</out>
					</clipitem>
					<clipitem frameBlend="FALSE" id="clipitem-336">
						<file id="file-1"/>
						<name>bandicam 2025-06-02 00-01-10-144</name>
						<rate>
							<timebase>60</timebase>
							<ntsc>TRUE</ntsc>
						</rate>
						<rate>
							<timebase>60</timebase>
							<ntsc>TRUE</ntsc>
						</rate>
						<duration>0</duration>
						<start>480</start>
						<end>480</end>
						<in>504</in>
						<out>504</out>
					</clipitem>
					<clipitem frameBlend="FALSE" id="clipitem-337">
						<file id="file-1"/>
						<name>bandicam 2025-06-02 00-01-10-144</name>
						<rate>
							<timebase>60</timebase>
							<ntsc>TRUE</ntsc>
						</rate>
						<rate>
							<timebase>60</timebase>
							<ntsc>TRUE</ntsc>
						</rate>
						<duration>6</duration>
						<start>504</start>
						<end>510</end>
						<in>528</in>
						<out>534</out>
					</clipitem>
					<clipitem frameBlend="FALSE" id="clipitem-338">
						<file id="file-1"/>
						<name>bandicam 2025-06-02 00-01-10-144</name>
						<rate>
							<timebase>60</timebase>
							<ntsc>TRUE</ntsc>
						</rate>
						<rate>
							<timebase>60</timebase>
							<ntsc>TRUE</ntsc>
						</rate>
						<duration>6</duration>
						<start>534</start>
						<end>540</end>
						<in>582</in>
						<out>588</out>
					</clipitem>
					<clipitem frameBlend="FALSE" id="clipitem-339">
						<file id="file-1"/>
						<name>bandicam 2025-06-02 00-01-10-144</name>
						<rate>
							<timebase>60</timebase>
							<ntsc>TRUE</ntsc>
						</rate>
						<rate>
							<timebase>60</timebase>
							<ntsc>TRUE</ntsc>
						</rate>
						<duration>0</duration>
						<start>588</start>
						<end>588</end>
						<in>600</in>
						<out>600</out>
					</clipitem>
					<clipitem frameBlend="FALSE" id="clipitem-340">
						<file id="file-1"/>
						<name>bandicam 2025-06-02 00-01-10-144</name>
						<rate>
							<timebase>60</timebase>
							<ntsc>TRUE</ntsc>
						</rate>
						<rate>
							<timebase>60</timebase>
							<ntsc>TRUE</ntsc>
						</rate>
						<duration>6</duration>
						<start>600</start>
						<end>606</end>
						<in>624</in>
						<out>630</out>
					</clipitem>
					<clipitem frameBlend="FALSE" id="clipitem-341">
						<file id="file-1"/>
						<name>bandicam 2025-06-02 00-01-10-144</name>
						<rate>
							<timebase>60</timebase>
							<ntsc>TRUE</ntsc>
						</rate>
						<rate>
							<timebase>60</timebase>
							<ntsc>TRUE</ntsc>
						</rate>
						<duration>0</duration>
						<start>630</start>
						<end>630</end>
						<in>852</in>
						<out>852</out>
					</clipitem>
					<clipitem frameBlend="FALSE" id="clipitem-342">
						<file id="file-1"/>
						<name>bandicam 2025-06-02 00-01-10-144</name>
						<rate>
							<timebase>60</timebase>
							<ntsc>TRUE</ntsc>
						</rate>
						<rate>
							<timebase>60</timebase>
							<ntsc>TRUE</ntsc>
						</rate>
						<duration>0</duration>
						<start>852</start>
						<end>852</end>
						<in>912</in>
						<out>912</out>
					</clipitem>
					<clipitem frameBlend="FALSE" id="clipitem-343">
						<file id="file-1"/>
						<name>bandicam 2025-06-02 00-01-10-144</name>
						<rate>
							<timebase>60</timebase>
							<ntsc>TRUE</ntsc>
						</rate>
						<rate>
							<timebase>60</timebase>
							<ntsc>TRUE</ntsc>
						</rate>
						<duration>0</duration>
						<start>912</start>
						<end>912</end>
						<in>936</in>
						<out>936</out>
					</clipitem>
					<clipitem frameBlend="FALSE" id="clipitem-344">
						<file id="file-1"/>
						<name>bandicam 2025-06-02 00-01-10-144</name>
						<rate>
							<timebase>60</timebase>
							<ntsc>TRUE</ntsc>
						</rate>
						<rate>
							<timebase>60</timebase>
							<ntsc>TRUE</ntsc>
						</rate>
						<duration>0</duration>
						<start>936</start>
						<end>936</end>
						<in>954</in>
						<out>954</out>
					</clipitem>
					<clipitem frameBlend="FALSE" id="clipitem-345">
						<file id="file-1"/>
						<name>bandicam 2025-06-02 00-01-10-144</name>
						<rate>
							<timebase>60</timebase>
							<ntsc>TRUE</ntsc>
						</rate>
						<rate>
							<timebase>60</timebase>
							<ntsc>TRUE</ntsc>
						</rate>
						<duration>6</duration>
						<start>954</start>
						<end>960</end>
						<in>984</in>
						<out>990</out>
					</clipitem>
					<clipitem frameBlend="FALSE" id="clipitem-346">
						<file id="file-1"/>
						<name>bandicam 2025-06-02 00-01-10-144</name>
						<rate>
							<timebase>60</timebase>
							<ntsc>TRUE</ntsc>
						</rate>
						<rate>
							<timebase>60</timebase>
							<ntsc>TRUE</ntsc>
						</rate>
						<duration>6</duration>
						<start>990</start>
						<end>996</end>
						<in>1086</in>
						<out>1092</out>
					</clipitem>
					<clipitem frameBlend="FALSE" id="clipitem-347">
						<file id="file-1"/>
						<name>bandicam 2025-06-02 00-01-10-144</name>
						<rate>
							<timebase>60</timebase>
							<ntsc>TRUE</ntsc>
						</rate>
						<rate>
							<timebase>60</timebase>
							<ntsc>TRUE</ntsc>
						</rate>
						<duration>0</duration>
						<start>1092</start>
						<end>1092</end>
						<in>1194</in>
						<out>1194</out>
					</clipitem>
					<clipitem frameBlend="FALSE" id="clipitem-348">
						<file id="file-1"/>
						<name>bandicam 2025-06-02 00-01-10-144</name>
						<rate>
							<timebase>60</timebase>
							<ntsc>TRUE</ntsc>
						</rate>
						<rate>
							<timebase>60</timebase>
							<ntsc>TRUE</ntsc>
						</rate>
						<duration>6</duration>
						<start>1194</start>
						<end>1200</end>
						<in>1206</in>
						<out>1212</out>
					</clipitem>
					<clipitem frameBlend="FALSE" id="clipitem-349">
						<file id="file-1"/>
						<name>bandicam 2025-06-02 00-01-10-144</name>
						<rate>
							<timebase>60</timebase>
							<ntsc>TRUE</ntsc>
						</rate>
						<rate>
							<timebase>60</timebase>
							<ntsc>TRUE</ntsc>
						</rate>
						<duration>0</duration>
						<start>1212</start>
						<end>1212</end>
						<in>1320</in>
						<out>1320</out>
					</clipitem>
					<clipitem frameBlend="FALSE" id="clipitem-350">
						<file id="file-1"/>
						<name>bandicam 2025-06-02 00-01-10-144</name>
						<rate>
							<timebase>60</timebase>
							<ntsc>TRUE</ntsc>
						</rate>
						<rate>
							<timebase>60</timebase>
							<ntsc>TRUE</ntsc>
						</rate>
						<duration>0</duration>
						<start>1320</start>
						<end>1320</end>
						<in>1386</in>
						<out>1386</out>
					</clipitem>
					<clipitem frameBlend="FALSE" id="clipitem-351">
						<file id="file-1"/>
						<name>bandicam 2025-06-02 00-01-10-144</name>
						<rate>
							<timebase>60</timebase>
							<ntsc>TRUE</ntsc>
						</rate>
						<rate>
							<timebase>60</timebase>
							<ntsc>TRUE</ntsc>
						</rate>
						<duration>18</duration>
						<start>1386</start>
						<end>1404</end>
						<in>1404</in>
						<out>1422</out>
					</clipitem>
					<clipitem frameBlend="FALSE" id="clipitem-352">
						<file id="file-1"/>
						<name>bandicam 2025-06-02 00-01-10-144</name>
						<rate>
							<timebase>60</timebase>
							<ntsc>TRUE</ntsc>
						</rate>
						<rate>
							<timebase>60</timebase>
							<ntsc>TRUE</ntsc>
						</rate>
						<duration>6</duration>
						<start>1422</start>
						<end>1428</end>
						<in>1446</in>
						<out>1452</out>
					</clipitem>
					<clipitem frameBlend="FALSE" id="clipitem-353">
						<file id="file-1"/>
						<name>bandicam 2025-06-02 00-01-10-144</name>
						<rate>
							<timebase>60</timebase>
							<ntsc>TRUE</ntsc>
						</rate>
						<rate>
							<timebase>60</timebase>
							<ntsc>TRUE</ntsc>
						</rate>
						<duration>6</duration>
						<start>1452</start>
						<end>1458</end>
						<in>1566</in>
						<out>1572</out>
					</clipitem>
					<clipitem frameBlend="FALSE" id="clipitem-354">
						<file id="file-1"/>
						<name>bandicam 2025-06-02 00-01-10-144</name>
						<rate>
							<timebase>60</timebase>
							<ntsc>TRUE</ntsc>
						</rate>
						<rate>
							<timebase>60</timebase>
							<ntsc>TRUE</ntsc>
						</rate>
						<duration>0</duration>
						<start>1572</start>
						<end>1572</end>
						<in>1692</in>
						<out>1692</out>
					</clipitem>
					<clipitem frameBlend="FALSE" id="clipitem-355">
						<file id="file-1"/>
						<name>bandicam 2025-06-02 00-01-10-144</name>
						<rate>
							<timebase>60</timebase>
							<ntsc>TRUE</ntsc>
						</rate>
						<rate>
							<timebase>60</timebase>
							<ntsc>TRUE</ntsc>
						</rate>
						<duration>12</duration>
						<start>1692</start>
						<end>1704</end>
						<in>1704</in>
						<out>1716</out>
					</clipitem>
					<clipitem frameBlend="FALSE" id="clipitem-356">
						<file id="file-1"/>
						<name>bandicam 2025-06-02 00-01-10-144</name>
						<rate>
							<timebase>60</timebase>
							<ntsc>TRUE</ntsc>
						</rate>
						<rate>
							<timebase>60</timebase>
							<ntsc>TRUE</ntsc>
						</rate>
						<duration>12</duration>
						<start>1716</start>
						<end>1728</end>
						<in>1746</in>
						<out>1758</out>
					</clipitem>
					<clipitem frameBlend="FALSE" id="clipitem-357">
						<file id="file-1"/>
						<name>bandicam 2025-06-02 00-01-10-144</name>
						<rate>
							<timebase>60</timebase>
							<ntsc>TRUE</ntsc>
						</rate>
						<rate>
							<timebase>60</timebase>
							<ntsc>TRUE</ntsc>
						</rate>
						<duration>0</duration>
						<start>1758</start>
						<end>1758</end>
						<in>1776</in>
						<out>1776</out>
					</clipitem>
					<clipitem frameBlend="FALSE" id="clipitem-358">
						<file id="file-1"/>
						<name>bandicam 2025-06-02 00-01-10-144</name>
						<rate>
							<timebase>60</timebase>
							<ntsc>TRUE</ntsc>
						</rate>
						<rate>
							<timebase>60</timebase>
							<ntsc>TRUE</ntsc>
						</rate>
						<duration>0</duration>
						<start>1776</start>
						<end>1776</end>
						<in>1812</in>
						<out>1812</out>
					</clipitem>
					<clipitem frameBlend="FALSE" id="clipitem-359">
						<file id="file-1"/>
						<name>bandicam 2025-06-02 00-01-10-144</name>
						<rate>
							<timebase>60</timebase>
							<ntsc>TRUE</ntsc>
						</rate>
						<rate>
							<timebase>60</timebase>
							<ntsc>TRUE</ntsc>
						</rate>
						<duration>0</duration>
						<start>1812</start>
						<end>1812</end>
						<in>1830</in>
						<out>1830</out>
					</clipitem>
					<clipitem frameBlend="FALSE" id="clipitem-360">
						<file id="file-1"/>
						<name>bandicam 2025-06-02 00-01-10-144</name>
						<rate>
							<timebase>60</timebase>
							<ntsc>TRUE</ntsc>
						</rate>
						<rate>
							<timebase>60</timebase>
							<ntsc>TRUE</ntsc>
						</rate>
						<duration>12</duration>
						<start>1830</start>
						<end>1842</end>
						<in>1842</in>
						<out>1854</out>
					</clipitem>
					<clipitem frameBlend="FALSE" id="clipitem-361">
						<file id="file-1"/>
						<name>bandicam 2025-06-02 00-01-10-144</name>
						<rate>
							<timebase>60</timebase>
							<ntsc>TRUE</ntsc>
						</rate>
						<rate>
							<timebase>60</timebase>
							<ntsc>TRUE</ntsc>
						</rate>
						<duration>0</duration>
						<start>1854</start>
						<end>1854</end>
						<in>1872</in>
						<out>1872</out>
					</clipitem>
					<clipitem frameBlend="FALSE" id="clipitem-362">
						<file id="file-1"/>
						<name>bandicam 2025-06-02 00-01-10-144</name>
						<rate>
							<timebase>60</timebase>
							<ntsc>TRUE</ntsc>
						</rate>
						<rate>
							<timebase>60</timebase>
							<ntsc>TRUE</ntsc>
						</rate>
						<duration>6</duration>
						<start>1872</start>
						<end>1878</end>
						<in>1884</in>
						<out>1890</out>
					</clipitem>
					<clipitem frameBlend="FALSE" id="clipitem-363">
						<file id="file-1"/>
						<name>bandicam 2025-06-02 00-01-10-144</name>
						<rate>
							<timebase>60</timebase>
							<ntsc>TRUE</ntsc>
						</rate>
						<rate>
							<timebase>60</timebase>
							<ntsc>TRUE</ntsc>
						</rate>
						<duration>6</duration>
						<start>1890</start>
						<end>1896</end>
						<in>1926</in>
						<out>1932</out>
					</clipitem>
					<clipitem frameBlend="FALSE" id="clipitem-364">
						<file id="file-1"/>
						<name>bandicam 2025-06-02 00-01-10-144</name>
						<rate>
							<timebase>60</timebase>
							<ntsc>TRUE</ntsc>
						</rate>
						<rate>
							<timebase>60</timebase>
							<ntsc>TRUE</ntsc>
						</rate>
						<duration>0</duration>
						<start>1932</start>
						<end>1932</end>
						<in>2184</in>
						<out>2184</out>
					</clipitem>
					<clipitem frameBlend="FALSE" id="clipitem-365">
						<file id="file-1"/>
						<name>bandicam 2025-06-02 00-01-10-144</name>
						<rate>
							<timebase>60</timebase>
							<ntsc>TRUE</ntsc>
						</rate>
						<rate>
							<timebase>60</timebase>
							<ntsc>TRUE</ntsc>
						</rate>
						<duration>0</duration>
						<start>2184</start>
						<end>2184</end>
						<in>2292</in>
						<out>2292</out>
					</clipitem>
					<clipitem frameBlend="FALSE" id="clipitem-366">
						<file id="file-1"/>
						<name>bandicam 2025-06-02 00-01-10-144</name>
						<rate>
							<timebase>60</timebase>
							<ntsc>TRUE</ntsc>
						</rate>
						<rate>
							<timebase>60</timebase>
							<ntsc>TRUE</ntsc>
						</rate>
						<duration>12</duration>
						<start>2292</start>
						<end>2304</end>
						<in>2310</in>
						<out>2322</out>
					</clipitem>
					<clipitem frameBlend="FALSE" id="clipitem-367">
						<file id="file-1"/>
						<name>bandicam 2025-06-02 00-01-10-144</name>
						<rate>
							<timebase>60</timebase>
							<ntsc>TRUE</ntsc>
						</rate>
						<rate>
							<timebase>60</timebase>
							<ntsc>TRUE</ntsc>
						</rate>
						<duration>6</duration>
						<start>2322</start>
						<end>2328</end>
						<in>2334</in>
						<out>2340</out>
					</clipitem>
					<clipitem frameBlend="FALSE" id="clipitem-368">
						<file id="file-1"/>
						<name>bandicam 2025-06-02 00-01-10-144</name>
						<rate>
							<timebase>60</timebase>
							<ntsc>TRUE</ntsc>
						</rate>
						<rate>
							<timebase>60</timebase>
							<ntsc>TRUE</ntsc>
						</rate>
						<duration>6</duration>
						<start>2340</start>
						<end>2346</end>
						<in>2448</in>
						<out>2454</out>
					</clipitem>
					<clipitem frameBlend="FALSE" id="clipitem-369">
						<file id="file-1"/>
						<name>bandicam 2025-06-02 00-01-10-144</name>
						<rate>
							<timebase>60</timebase>
							<ntsc>TRUE</ntsc>
						</rate>
						<rate>
							<timebase>60</timebase>
							<ntsc>TRUE</ntsc>
						</rate>
						<duration>6</duration>
						<start>2454</start>
						<end>2460</end>
						<in>2478</in>
						<out>2484</out>
					</clipitem>
					<clipitem frameBlend="FALSE" id="clipitem-370">
						<file id="file-1"/>
						<name>bandicam 2025-06-02 00-01-10-144</name>
						<rate>
							<timebase>60</timebase>
							<ntsc>TRUE</ntsc>
						</rate>
						<rate>
							<timebase>60</timebase>
							<ntsc>TRUE</ntsc>
						</rate>
						<duration>6</duration>
						<start>2484</start>
						<end>2490</end>
						<in>2496</in>
						<out>2502</out>
					</clipitem>
					<clipitem frameBlend="FALSE" id="clipitem-371">
						<file id="file-1"/>
						<name>bandicam 2025-06-02 00-01-10-144</name>
						<rate>
							<timebase>60</timebase>
							<ntsc>TRUE</ntsc>
						</rate>
						<rate>
							<timebase>60</timebase>
							<ntsc>TRUE</ntsc>
						</rate>
						<duration>6</duration>
						<start>2502</start>
						<end>2508</end>
						<in>2592</in>
						<out>2598</out>
					</clipitem>
					<clipitem frameBlend="FALSE" id="clipitem-372">
						<file id="file-1"/>
						<name>bandicam 2025-06-02 00-01-10-144</name>
						<rate>
							<timebase>60</timebase>
							<ntsc>TRUE</ntsc>
						</rate>
						<rate>
							<timebase>60</timebase>
							<ntsc>TRUE</ntsc>
						</rate>
						<duration>6</duration>
						<start>2598</start>
						<end>2604</end>
						<in>2616</in>
						<out>2622</out>
					</clipitem>
					<clipitem frameBlend="FALSE" id="clipitem-373">
						<file id="file-1"/>
						<name>bandicam 2025-06-02 00-01-10-144</name>
						<rate>
							<timebase>60</timebase>
							<ntsc>TRUE</ntsc>
						</rate>
						<rate>
							<timebase>60</timebase>
							<ntsc>TRUE</ntsc>
						</rate>
						<duration>0</duration>
						<start>2622</start>
						<end>2622</end>
						<in>2640</in>
						<out>2640</out>
					</clipitem>
					<clipitem frameBlend="FALSE" id="clipitem-374">
						<file id="file-1"/>
						<name>bandicam 2025-06-02 00-01-10-144</name>
						<rate>
							<timebase>60</timebase>
							<ntsc>TRUE</ntsc>
						</rate>
						<rate>
							<timebase>60</timebase>
							<ntsc>TRUE</ntsc>
						</rate>
						<duration>6</duration>
						<start>2640</start>
						<end>2646</end>
						<in>2652</in>
						<out>2658</out>
					</clipitem>
					<clipitem frameBlend="FALSE" id="clipitem-375">
						<file id="file-1"/>
						<name>bandicam 2025-06-02 00-01-10-144</name>
						<rate>
							<timebase>60</timebase>
							<ntsc>TRUE</ntsc>
						</rate>
						<rate>
							<timebase>60</timebase>
							<ntsc>TRUE</ntsc>
						</rate>
						<duration>6</duration>
						<start>2658</start>
						<end>2664</end>
						<in>2724</in>
						<out>2730</out>
					</clipitem>
					<clipitem frameBlend="FALSE" id="clipitem-376">
						<file id="file-1"/>
						<name>bandicam 2025-06-02 00-01-10-144</name>
						<rate>
							<timebase>60</timebase>
							<ntsc>TRUE</ntsc>
						</rate>
						<rate>
							<timebase>60</timebase>
							<ntsc>TRUE</ntsc>
						</rate>
						<duration>30</duration>
						<start>2730</start>
						<end>2760</end>
						<in>2742</in>
						<out>2772</out>
					</clipitem>
					<clipitem frameBlend="FALSE" id="clipitem-377">
						<file id="file-1"/>
						<name>bandicam 2025-06-02 00-01-10-144</name>
						<rate>
							<timebase>60</timebase>
							<ntsc>TRUE</ntsc>
						</rate>
						<rate>
							<timebase>60</timebase>
							<ntsc>TRUE</ntsc>
						</rate>
						<duration>30</duration>
						<start>2772</start>
						<end>2802</end>
						<in>2802</in>
						<out>2832</out>
					</clipitem>
					<clipitem frameBlend="FALSE" id="clipitem-378">
						<file id="file-1"/>
						<name>bandicam 2025-06-02 00-01-10-144</name>
						<rate>
							<timebase>60</timebase>
							<ntsc>TRUE</ntsc>
						</rate>
						<rate>
							<timebase>60</timebase>
							<ntsc>TRUE</ntsc>
						</rate>
						<duration>6</duration>
						<start>2832</start>
						<end>2838</end>
						<in>2874</in>
						<out>2880</out>
					</clipitem>
					<clipitem frameBlend="FALSE" id="clipitem-379">
						<file id="file-1"/>
						<name>bandicam 2025-06-02 00-01-10-144</name>
						<rate>
							<timebase>60</timebase>
							<ntsc>TRUE</ntsc>
						</rate>
						<rate>
							<timebase>60</timebase>
							<ntsc>TRUE</ntsc>
						</rate>
						<duration>0</duration>
						<start>2880</start>
						<end>2880</end>
						<in>2946</in>
						<out>2946</out>
					</clipitem>
					<clipitem frameBlend="FALSE" id="clipitem-380">
						<file id="file-1"/>
						<name>bandicam 2025-06-02 00-01-10-144</name>
						<rate>
							<timebase>60</timebase>
							<ntsc>TRUE</ntsc>
						</rate>
						<rate>
							<timebase>60</timebase>
							<ntsc>TRUE</ntsc>
						</rate>
						<duration>6</duration>
						<start>2946</start>
						<end>2952</end>
						<in>2964</in>
						<out>2970</out>
					</clipitem>
					<clipitem frameBlend="FALSE" id="clipitem-381">
						<file id="file-1"/>
						<name>bandicam 2025-06-02 00-01-10-144</name>
						<rate>
							<timebase>60</timebase>
							<ntsc>TRUE</ntsc>
						</rate>
						<rate>
							<timebase>60</timebase>
							<ntsc>TRUE</ntsc>
						</rate>
						<duration>42</duration>
						<start>2970</start>
						<end>3012</end>
						<in>3060</in>
						<out>3102</out>
					</clipitem>
					<clipitem frameBlend="FALSE" id="clipitem-382">
						<file id="file-1"/>
						<name>bandicam 2025-06-02 00-01-10-144</name>
						<rate>
							<timebase>60</timebase>
							<ntsc>TRUE</ntsc>
						</rate>
						<rate>
							<timebase>60</timebase>
							<ntsc>TRUE</ntsc>
						</rate>
						<duration>6</duration>
						<start>3102</start>
						<end>3108</end>
						<in>3120</in>
						<out>3126</out>
					</clipitem>
					<clipitem frameBlend="FALSE" id="clipitem-383">
						<file id="file-1"/>
						<name>bandicam 2025-06-02 00-01-10-144</name>
						<rate>
							<timebase>60</timebase>
							<ntsc>TRUE</ntsc>
						</rate>
						<rate>
							<timebase>60</timebase>
							<ntsc>TRUE</ntsc>
						</rate>
						<duration>6</duration>
						<start>3126</start>
						<end>3132</end>
						<in>3228</in>
						<out>3234</out>
					</clipitem>
					<clipitem frameBlend="FALSE" id="clipitem-384">
						<file id="file-1"/>
						<name>bandicam 2025-06-02 00-01-10-144</name>
						<rate>
							<timebase>60</timebase>
							<ntsc>TRUE</ntsc>
						</rate>
						<rate>
							<timebase>60</timebase>
							<ntsc>TRUE</ntsc>
						</rate>
						<duration>24</duration>
						<start>3234</start>
						<end>3258</end>
						<in>3270</in>
						<out>3294</out>
					</clipitem>
					<clipitem frameBlend="FALSE" id="clipitem-385">
						<file id="file-1"/>
						<name>bandicam 2025-06-02 00-01-10-144</name>
						<rate>
							<timebase>60</timebase>
							<ntsc>TRUE</ntsc>
						</rate>
						<rate>
							<timebase>60</timebase>
							<ntsc>TRUE</ntsc>
						</rate>
						<duration>0</duration>
						<start>3294</start>
						<end>3294</end>
						<in>3306</in>
						<out>3306</out>
					</clipitem>
					<clipitem frameBlend="FALSE" id="clipitem-386">
						<file id="file-1"/>
						<name>bandicam 2025-06-02 00-01-10-144</name>
						<rate>
							<timebase>60</timebase>
							<ntsc>TRUE</ntsc>
						</rate>
						<rate>
							<timebase>60</timebase>
							<ntsc>TRUE</ntsc>
						</rate>
						<duration>0</duration>
						<start>3306</start>
						<end>3306</end>
						<in>3378</in>
						<out>3378</out>
					</clipitem>
					<clipitem frameBlend="FALSE" id="clipitem-387">
						<file id="file-1"/>
						<name>bandicam 2025-06-02 00-01-10-144</name>
						<rate>
							<timebase>60</timebase>
							<ntsc>TRUE</ntsc>
						</rate>
						<rate>
							<timebase>60</timebase>
							<ntsc>TRUE</ntsc>
						</rate>
						<duration>18</duration>
						<start>3378</start>
						<end>3396</end>
						<in>3456</in>
						<out>3474</out>
					</clipitem>
					<clipitem frameBlend="FALSE" id="clipitem-388">
						<file id="file-1"/>
						<name>bandicam 2025-06-02 00-01-10-144</name>
						<rate>
							<timebase>60</timebase>
							<ntsc>TRUE</ntsc>
						</rate>
						<rate>
							<timebase>60</timebase>
							<ntsc>TRUE</ntsc>
						</rate>
						<duration>0</duration>
						<start>3474</start>
						<end>3474</end>
						<in>3504</in>
						<out>3504</out>
					</clipitem>
					<clipitem frameBlend="FALSE" id="clipitem-389">
						<file id="file-1"/>
						<name>bandicam 2025-06-02 00-01-10-144</name>
						<rate>
							<timebase>60</timebase>
							<ntsc>TRUE</ntsc>
						</rate>
						<rate>
							<timebase>60</timebase>
							<ntsc>TRUE</ntsc>
						</rate>
						<duration>0</duration>
						<start>3504</start>
						<end>3504</end>
						<in>3582</in>
						<out>3582</out>
					</clipitem>
					<clipitem frameBlend="FALSE" id="clipitem-390">
						<file id="file-1"/>
						<name>bandicam 2025-06-02 00-01-10-144</name>
						<rate>
							<timebase>60</timebase>
							<ntsc>TRUE</ntsc>
						</rate>
						<rate>
							<timebase>60</timebase>
							<ntsc>TRUE</ntsc>
						</rate>
						<duration>18</duration>
						<start>3582</start>
						<end>3600</end>
						<in>3624</in>
						<out>3642</out>
					</clipitem>
					<clipitem frameBlend="FALSE" id="clipitem-391">
						<file id="file-1"/>
						<name>bandicam 2025-06-02 00-01-10-144</name>
						<rate>
							<timebase>60</timebase>
							<ntsc>TRUE</ntsc>
						</rate>
						<rate>
							<timebase>60</timebase>
							<ntsc>TRUE</ntsc>
						</rate>
						<duration>0</duration>
						<start>3642</start>
						<end>3642</end>
						<in>3696</in>
						<out>3696</out>
					</clipitem>
					<clipitem frameBlend="FALSE" id="clipitem-392">
						<file id="file-1"/>
						<name>bandicam 2025-06-02 00-01-10-144</name>
						<rate>
							<timebase>60</timebase>
							<ntsc>TRUE</ntsc>
						</rate>
						<rate>
							<timebase>60</timebase>
							<ntsc>TRUE</ntsc>
						</rate>
						<duration>6</duration>
						<start>3696</start>
						<end>3702</end>
						<in>3768</in>
						<out>3774</out>
					</clipitem>
					<clipitem frameBlend="FALSE" id="clipitem-393">
						<file id="file-1"/>
						<name>bandicam 2025-06-02 00-01-10-144</name>
						<rate>
							<timebase>60</timebase>
							<ntsc>TRUE</ntsc>
						</rate>
						<rate>
							<timebase>60</timebase>
							<ntsc>TRUE</ntsc>
						</rate>
						<duration>0</duration>
						<start>3774</start>
						<end>3774</end>
						<in>3858</in>
						<out>3858</out>
					</clipitem>
					<clipitem frameBlend="FALSE" id="clipitem-394">
						<file id="file-1"/>
						<name>bandicam 2025-06-02 00-01-10-144</name>
						<rate>
							<timebase>60</timebase>
							<ntsc>TRUE</ntsc>
						</rate>
						<rate>
							<timebase>60</timebase>
							<ntsc>TRUE</ntsc>
						</rate>
						<duration>0</duration>
						<start>3858</start>
						<end>3858</end>
						<in>3912</in>
						<out>3912</out>
					</clipitem>
					<clipitem frameBlend="FALSE" id="clipitem-395">
						<file id="file-1"/>
						<name>bandicam 2025-06-02 00-01-10-144</name>
						<rate>
							<timebase>60</timebase>
							<ntsc>TRUE</ntsc>
						</rate>
						<rate>
							<timebase>60</timebase>
							<ntsc>TRUE</ntsc>
						</rate>
						<duration>0</duration>
						<start>3912</start>
						<end>3912</end>
						<in>4032</in>
						<out>4032</out>
					</clipitem>
					<clipitem frameBlend="FALSE" id="clipitem-396">
						<file id="file-1"/>
						<name>bandicam 2025-06-02 00-01-10-144</name>
						<rate>
							<timebase>60</timebase>
							<ntsc>TRUE</ntsc>
						</rate>
						<rate>
							<timebase>60</timebase>
							<ntsc>TRUE</ntsc>
						</rate>
						<duration>24</duration>
						<start>4032</start>
						<end>4056</end>
						<in>4086</in>
						<out>4110</out>
					</clipitem>
					<clipitem frameBlend="FALSE" id="clipitem-397">
						<file id="file-1"/>
						<name>bandicam 2025-06-02 00-01-10-144</name>
						<rate>
							<timebase>60</timebase>
							<ntsc>TRUE</ntsc>
						</rate>
						<rate>
							<timebase>60</timebase>
							<ntsc>TRUE</ntsc>
						</rate>
						<duration>6</duration>
						<start>4110</start>
						<end>4116</end>
						<in>4128</in>
						<out>4134</out>
					</clipitem>
					<clipitem frameBlend="FALSE" id="clipitem-398">
						<file id="file-1"/>
						<name>bandicam 2025-06-02 00-01-10-144</name>
						<rate>
							<timebase>60</timebase>
							<ntsc>TRUE</ntsc>
						</rate>
						<rate>
							<timebase>60</timebase>
							<ntsc>TRUE</ntsc>
						</rate>
						<duration>6</duration>
						<start>4134</start>
						<end>4140</end>
						<in>4188</in>
						<out>4194</out>
					</clipitem>
					<clipitem frameBlend="FALSE" id="clipitem-399">
						<file id="file-1"/>
						<name>bandicam 2025-06-02 00-01-10-144</name>
						<rate>
							<timebase>60</timebase>
							<ntsc>TRUE</ntsc>
						</rate>
						<rate>
							<timebase>60</timebase>
							<ntsc>TRUE</ntsc>
						</rate>
						<duration>18</duration>
						<start>4194</start>
						<end>4212</end>
						<in>4230</in>
						<out>4248</out>
					</clipitem>
					<clipitem frameBlend="FALSE" id="clipitem-400">
						<file id="file-1"/>
						<name>bandicam 2025-06-02 00-01-10-144</name>
						<rate>
							<timebase>60</timebase>
							<ntsc>TRUE</ntsc>
						</rate>
						<rate>
							<timebase>60</timebase>
							<ntsc>TRUE</ntsc>
						</rate>
						<duration>0</duration>
						<start>4248</start>
						<end>4248</end>
						<in>4260</in>
						<out>4260</out>
					</clipitem>
					<clipitem frameBlend="FALSE" id="clipitem-401">
						<file id="file-1"/>
						<name>bandicam 2025-06-02 00-01-10-144</name>
						<rate>
							<timebase>60</timebase>
							<ntsc>TRUE</ntsc>
						</rate>
						<rate>
							<timebase>60</timebase>
							<ntsc>TRUE</ntsc>
						</rate>
						<duration>66</duration>
						<start>4260</start>
						<end>4326</end>
						<in>4302</in>
						<out>4368</out>
					</clipitem>
					<clipitem frameBlend="FALSE" id="clipitem-402">
						<file id="file-1"/>
						<name>bandicam 2025-06-02 00-01-10-144</name>
						<rate>
							<timebase>60</timebase>
							<ntsc>TRUE</ntsc>
						</rate>
						<rate>
							<timebase>60</timebase>
							<ntsc>TRUE</ntsc>
						</rate>
						<duration>0</duration>
						<start>4368</start>
						<end>4368</end>
						<in>4380</in>
						<out>4380</out>
					</clipitem>
					<clipitem frameBlend="FALSE" id="clipitem-403">
						<file id="file-1"/>
						<name>bandicam 2025-06-02 00-01-10-144</name>
						<rate>
							<timebase>60</timebase>
							<ntsc>TRUE</ntsc>
						</rate>
						<rate>
							<timebase>60</timebase>
							<ntsc>TRUE</ntsc>
						</rate>
						<duration>42</duration>
						<start>4380</start>
						<end>4422</end>
						<in>4392</in>
						<out>4434</out>
					</clipitem>
					<clipitem frameBlend="FALSE" id="clipitem-404">
						<file id="file-1"/>
						<name>bandicam 2025-06-02 00-01-10-144</name>
						<rate>
							<timebase>60</timebase>
							<ntsc>TRUE</ntsc>
						</rate>
						<rate>
							<timebase>60</timebase>
							<ntsc>TRUE</ntsc>
						</rate>
						<duration>0</duration>
						<start>4434</start>
						<end>4434</end>
						<in>4476</in>
						<out>4476</out>
					</clipitem>
					<clipitem frameBlend="FALSE" id="clipitem-405">
						<file id="file-1"/>
						<name>bandicam 2025-06-02 00-01-10-144</name>
						<rate>
							<timebase>60</timebase>
							<ntsc>TRUE</ntsc>
						</rate>
						<rate>
							<timebase>60</timebase>
							<ntsc>TRUE</ntsc>
						</rate>
						<duration>24</duration>
						<start>4476</start>
						<end>4500</end>
						<in>4506</in>
						<out>4530</out>
					</clipitem>
					<clipitem frameBlend="FALSE" id="clipitem-406">
						<file id="file-1"/>
						<name>bandicam 2025-06-02 00-01-10-144</name>
						<rate>
							<timebase>60</timebase>
							<ntsc>TRUE</ntsc>
						</rate>
						<rate>
							<timebase>60</timebase>
							<ntsc>TRUE</ntsc>
						</rate>
						<duration>12</duration>
						<start>4530</start>
						<end>4542</end>
						<in>4542</in>
						<out>4554</out>
					</clipitem>
					<clipitem frameBlend="FALSE" id="clipitem-407">
						<file id="file-1"/>
						<name>bandicam 2025-06-02 00-01-10-144</name>
						<rate>
							<timebase>60</timebase>
							<ntsc>TRUE</ntsc>
						</rate>
						<rate>
							<timebase>60</timebase>
							<ntsc>TRUE</ntsc>
						</rate>
						<duration>30</duration>
						<start>4554</start>
						<end>4584</end>
						<in>4602</in>
						<out>4632</out>
					</clipitem>
					<clipitem frameBlend="FALSE" id="clipitem-408">
						<file id="file-1"/>
						<name>bandicam 2025-06-02 00-01-10-144</name>
						<rate>
							<timebase>60</timebase>
							<ntsc>TRUE</ntsc>
						</rate>
						<rate>
							<timebase>60</timebase>
							<ntsc>TRUE</ntsc>
						</rate>
						<duration>6</duration>
						<start>4632</start>
						<end>4638</end>
						<in>4650</in>
						<out>4656</out>
					</clipitem>
					<clipitem frameBlend="FALSE" id="clipitem-409">
						<file id="file-1"/>
						<name>bandicam 2025-06-02 00-01-10-144</name>
						<rate>
							<timebase>60</timebase>
							<ntsc>TRUE</ntsc>
						</rate>
						<rate>
							<timebase>60</timebase>
							<ntsc>TRUE</ntsc>
						</rate>
						<duration>0</duration>
						<start>4656</start>
						<end>4656</end>
						<in>4704</in>
						<out>4704</out>
					</clipitem>
					<clipitem frameBlend="FALSE" id="clipitem-410">
						<file id="file-1"/>
						<name>bandicam 2025-06-02 00-01-10-144</name>
						<rate>
							<timebase>60</timebase>
							<ntsc>TRUE</ntsc>
						</rate>
						<rate>
							<timebase>60</timebase>
							<ntsc>TRUE</ntsc>
						</rate>
						<duration>48</duration>
						<start>4704</start>
						<end>4752</end>
						<in>4722</in>
						<out>4770</out>
					</clipitem>
					<clipitem frameBlend="FALSE" id="clipitem-411">
						<file id="file-1"/>
						<name>bandicam 2025-06-02 00-01-10-144</name>
						<rate>
							<timebase>60</timebase>
							<ntsc>TRUE</ntsc>
						</rate>
						<rate>
							<timebase>60</timebase>
							<ntsc>TRUE</ntsc>
						</rate>
						<duration>6</duration>
						<start>4770</start>
						<end>4776</end>
						<in>4788</in>
						<out>4794</out>
					</clipitem>
					<clipitem frameBlend="FALSE" id="clipitem-412">
						<file id="file-1"/>
						<name>bandicam 2025-06-02 00-01-10-144</name>
						<rate>
							<timebase>60</timebase>
							<ntsc>TRUE</ntsc>
						</rate>
						<rate>
							<timebase>60</timebase>
							<ntsc>TRUE</ntsc>
						</rate>
						<duration>6</duration>
						<start>4794</start>
						<end>4800</end>
						<in>4860</in>
						<out>4866</out>
					</clipitem>
					<clipitem frameBlend="FALSE" id="clipitem-413">
						<file id="file-1"/>
						<name>bandicam 2025-06-02 00-01-10-144</name>
						<rate>
							<timebase>60</timebase>
							<ntsc>TRUE</ntsc>
						</rate>
						<rate>
							<timebase>60</timebase>
							<ntsc>TRUE</ntsc>
						</rate>
						<duration>0</duration>
						<start>4866</start>
						<end>4866</end>
						<in>4914</in>
						<out>4914</out>
					</clipitem>
					<clipitem frameBlend="FALSE" id="clipitem-414">
						<file id="file-1"/>
						<name>bandicam 2025-06-02 00-01-10-144</name>
						<rate>
							<timebase>60</timebase>
							<ntsc>TRUE</ntsc>
						</rate>
						<rate>
							<timebase>60</timebase>
							<ntsc>TRUE</ntsc>
						</rate>
						<duration>0</duration>
						<start>4914</start>
						<end>4914</end>
						<in>4950</in>
						<out>4950</out>
					</clipitem>
					<clipitem frameBlend="FALSE" id="clipitem-415">
						<file id="file-1"/>
						<name>bandicam 2025-06-02 00-01-10-144</name>
						<rate>
							<timebase>60</timebase>
							<ntsc>TRUE</ntsc>
						</rate>
						<rate>
							<timebase>60</timebase>
							<ntsc>TRUE</ntsc>
						</rate>
						<duration>6</duration>
						<start>4950</start>
						<end>4956</end>
						<in>4968</in>
						<out>4974</out>
					</clipitem>
					<clipitem frameBlend="FALSE" id="clipitem-416">
						<file id="file-1"/>
						<name>bandicam 2025-06-02 00-01-10-144</name>
						<rate>
							<timebase>60</timebase>
							<ntsc>TRUE</ntsc>
						</rate>
						<rate>
							<timebase>60</timebase>
							<ntsc>TRUE</ntsc>
						</rate>
						<duration>0</duration>
						<start>4974</start>
						<end>4974</end>
						<in>5028</in>
						<out>5028</out>
					</clipitem>
					<clipitem frameBlend="FALSE" id="clipitem-417">
						<file id="file-1"/>
						<name>bandicam 2025-06-02 00-01-10-144</name>
						<rate>
							<timebase>60</timebase>
							<ntsc>TRUE</ntsc>
						</rate>
						<rate>
							<timebase>60</timebase>
							<ntsc>TRUE</ntsc>
						</rate>
						<duration>0</duration>
						<start>5028</start>
						<end>5028</end>
						<in>5070</in>
						<out>5070</out>
					</clipitem>
					<clipitem frameBlend="FALSE" id="clipitem-418">
						<file id="file-1"/>
						<name>bandicam 2025-06-02 00-01-10-144</name>
						<rate>
							<timebase>60</timebase>
							<ntsc>TRUE</ntsc>
						</rate>
						<rate>
							<timebase>60</timebase>
							<ntsc>TRUE</ntsc>
						</rate>
						<duration>0</duration>
						<start>5070</start>
						<end>5070</end>
						<in>5100</in>
						<out>5100</out>
					</clipitem>
					<clipitem frameBlend="FALSE" id="clipitem-419">
						<file id="file-1"/>
						<name>bandicam 2025-06-02 00-01-10-144</name>
						<rate>
							<timebase>60</timebase>
							<ntsc>TRUE</ntsc>
						</rate>
						<rate>
							<timebase>60</timebase>
							<ntsc>TRUE</ntsc>
						</rate>
						<duration>6</duration>
						<start>5100</start>
						<end>5106</end>
						<in>5112</in>
						<out>5118</out>
					</clipitem>
					<clipitem frameBlend="FALSE" id="clipitem-420">
						<file id="file-1"/>
						<name>bandicam 2025-06-02 00-01-10-144</name>
						<rate>
							<timebase>60</timebase>
							<ntsc>TRUE</ntsc>
						</rate>
						<rate>
							<timebase>60</timebase>
							<ntsc>TRUE</ntsc>
						</rate>
						<duration>0</duration>
						<start>5118</start>
						<end>5118</end>
						<in>5130</in>
						<out>5130</out>
					</clipitem>
					<clipitem frameBlend="FALSE" id="clipitem-421">
						<file id="file-1"/>
						<name>bandicam 2025-06-02 00-01-10-144</name>
						<rate>
							<timebase>60</timebase>
							<ntsc>TRUE</ntsc>
						</rate>
						<rate>
							<timebase>60</timebase>
							<ntsc>TRUE</ntsc>
						</rate>
						<duration>36</duration>
						<start>5130</start>
						<end>5166</end>
						<in>5142</in>
						<out>5178</out>
					</clipitem>
					<clipitem frameBlend="FALSE" id="clipitem-422">
						<file id="file-1"/>
						<name>bandicam 2025-06-02 00-01-10-144</name>
						<rate>
							<timebase>60</timebase>
							<ntsc>TRUE</ntsc>
						</rate>
						<rate>
							<timebase>60</timebase>
							<ntsc>TRUE</ntsc>
						</rate>
						<duration>6</duration>
						<start>5178</start>
						<end>5184</end>
						<in>5232</in>
						<out>5238</out>
					</clipitem>
					<clipitem frameBlend="FALSE" id="clipitem-423">
						<file id="file-1"/>
						<name>bandicam 2025-06-02 00-01-10-144</name>
						<rate>
							<timebase>60</timebase>
							<ntsc>TRUE</ntsc>
						</rate>
						<rate>
							<timebase>60</timebase>
							<ntsc>TRUE</ntsc>
						</rate>
						<duration>12</duration>
						<start>5238</start>
						<end>5250</end>
						<in>5328</in>
						<out>5340</out>
					</clipitem>
					<clipitem frameBlend="FALSE" id="clipitem-424">
						<file id="file-1"/>
						<name>bandicam 2025-06-02 00-01-10-144</name>
						<rate>
							<timebase>60</timebase>
							<ntsc>TRUE</ntsc>
						</rate>
						<rate>
							<timebase>60</timebase>
							<ntsc>TRUE</ntsc>
						</rate>
						<duration>0</duration>
						<start>5340</start>
						<end>5340</end>
						<in>5388</in>
						<out>5388</out>
					</clipitem>
					<clipitem frameBlend="FALSE" id="clipitem-425">
						<file id="file-1"/>
						<name>bandicam 2025-06-02 00-01-10-144</name>
						<rate>
							<timebase>60</timebase>
							<ntsc>TRUE</ntsc>
						</rate>
						<rate>
							<timebase>60</timebase>
							<ntsc>TRUE</ntsc>
						</rate>
						<duration>12</duration>
						<start>5388</start>
						<end>5400</end>
						<in>5412</in>
						<out>5424</out>
					</clipitem>
					<clipitem frameBlend="FALSE" id="clipitem-426">
						<file id="file-1"/>
						<name>bandicam 2025-06-02 00-01-10-144</name>
						<rate>
							<timebase>60</timebase>
							<ntsc>TRUE</ntsc>
						</rate>
						<rate>
							<timebase>60</timebase>
							<ntsc>TRUE</ntsc>
						</rate>
						<duration>0</duration>
						<start>5424</start>
						<end>5424</end>
						<in>5436</in>
						<out>5436</out>
					</clipitem>
					<clipitem frameBlend="FALSE" id="clipitem-427">
						<file id="file-1"/>
						<name>bandicam 2025-06-02 00-01-10-144</name>
						<rate>
							<timebase>60</timebase>
							<ntsc>TRUE</ntsc>
						</rate>
						<rate>
							<timebase>60</timebase>
							<ntsc>TRUE</ntsc>
						</rate>
						<duration>0</duration>
						<start>5436</start>
						<end>5436</end>
						<in>5448</in>
						<out>5448</out>
					</clipitem>
					<clipitem frameBlend="FALSE" id="clipitem-428">
						<file id="file-1"/>
						<name>bandicam 2025-06-02 00-01-10-144</name>
						<rate>
							<timebase>60</timebase>
							<ntsc>TRUE</ntsc>
						</rate>
						<rate>
							<timebase>60</timebase>
							<ntsc>TRUE</ntsc>
						</rate>
						<duration>6</duration>
						<start>5448</start>
						<end>5454</end>
						<in>5490</in>
						<out>5496</out>
					</clipitem>
					<clipitem frameBlend="FALSE" id="clipitem-429">
						<file id="file-1"/>
						<name>bandicam 2025-06-02 00-01-10-144</name>
						<rate>
							<timebase>60</timebase>
							<ntsc>TRUE</ntsc>
						</rate>
						<rate>
							<timebase>60</timebase>
							<ntsc>TRUE</ntsc>
						</rate>
						<duration>0</duration>
						<start>5496</start>
						<end>5496</end>
						<in>5532</in>
						<out>5532</out>
					</clipitem>
					<clipitem frameBlend="FALSE" id="clipitem-430">
						<file id="file-1"/>
						<name>bandicam 2025-06-02 00-01-10-144</name>
						<rate>
							<timebase>60</timebase>
							<ntsc>TRUE</ntsc>
						</rate>
						<rate>
							<timebase>60</timebase>
							<ntsc>TRUE</ntsc>
						</rate>
						<duration>0</duration>
						<start>5532</start>
						<end>5532</end>
						<in>5592</in>
						<out>5592</out>
					</clipitem>
					<clipitem frameBlend="FALSE" id="clipitem-431">
						<file id="file-1"/>
						<name>bandicam 2025-06-02 00-01-10-144</name>
						<rate>
							<timebase>60</timebase>
							<ntsc>TRUE</ntsc>
						</rate>
						<rate>
							<timebase>60</timebase>
							<ntsc>TRUE</ntsc>
						</rate>
						<duration>0</duration>
						<start>5592</start>
						<end>5592</end>
						<in>5628</in>
						<out>5628</out>
					</clipitem>
					<clipitem frameBlend="FALSE" id="clipitem-432">
						<file id="file-1"/>
						<name>bandicam 2025-06-02 00-01-10-144</name>
						<rate>
							<timebase>60</timebase>
							<ntsc>TRUE</ntsc>
						</rate>
						<rate>
							<timebase>60</timebase>
							<ntsc>TRUE</ntsc>
						</rate>
						<duration>24</duration>
						<start>5628</start>
						<end>5652</end>
						<in>5664</in>
						<out>5688</out>
					</clipitem>
					<clipitem frameBlend="FALSE" id="clipitem-433">
						<file id="file-1"/>
						<name>bandicam 2025-06-02 00-01-10-144</name>
						<rate>
							<timebase>60</timebase>
							<ntsc>TRUE</ntsc>
						</rate>
						<rate>
							<timebase>60</timebase>
							<ntsc>TRUE</ntsc>
						</rate>
						<duration>18</duration>
						<start>5688</start>
						<end>5706</end>
						<in>5760</in>
						<out>5778</out>
					</clipitem>
					<clipitem frameBlend="FALSE" id="clipitem-434">
						<file id="file-1"/>
						<name>bandicam 2025-06-02 00-01-10-144</name>
						<rate>
							<timebase>60</timebase>
							<ntsc>TRUE</ntsc>
						</rate>
						<rate>
							<timebase>60</timebase>
							<ntsc>TRUE</ntsc>
						</rate>
						<duration>84</duration>
						<start>5778</start>
						<end>5862</end>
						<in>5802</in>
						<out>5886</out>
					</clipitem>
					<clipitem frameBlend="FALSE" id="clipitem-435">
						<file id="file-1"/>
						<name>bandicam 2025-06-02 00-01-10-144</name>
						<rate>
							<timebase>60</timebase>
							<ntsc>TRUE</ntsc>
						</rate>
						<rate>
							<timebase>60</timebase>
							<ntsc>TRUE</ntsc>
						</rate>
						<duration>60</duration>
						<start>5886</start>
						<end>5946</end>
						<in>5910</in>
						<out>5970</out>
					</clipitem>
					<clipitem frameBlend="FALSE" id="clipitem-436">
						<file id="file-1"/>
						<name>bandicam 2025-06-02 00-01-10-144</name>
						<rate>
							<timebase>60</timebase>
							<ntsc>TRUE</ntsc>
						</rate>
						<rate>
							<timebase>60</timebase>
							<ntsc>TRUE</ntsc>
						</rate>
						<duration>36</duration>
						<start>5970</start>
						<end>6006</end>
						<in>6000</in>
						<out>6036</out>
					</clipitem>
					<clipitem frameBlend="FALSE" id="clipitem-437">
						<file id="file-1"/>
						<name>bandicam 2025-06-02 00-01-10-144</name>
						<rate>
							<timebase>60</timebase>
							<ntsc>TRUE</ntsc>
						</rate>
						<rate>
							<timebase>60</timebase>
							<ntsc>TRUE</ntsc>
						</rate>
						<duration>6</duration>
						<start>6036</start>
						<end>6042</end>
						<in>6054</in>
						<out>6060</out>
					</clipitem>
					<clipitem frameBlend="FALSE" id="clipitem-438">
						<file id="file-1"/>
						<name>bandicam 2025-06-02 00-01-10-144</name>
						<rate>
							<timebase>60</timebase>
							<ntsc>TRUE</ntsc>
						</rate>
						<rate>
							<timebase>60</timebase>
							<ntsc>TRUE</ntsc>
						</rate>
						<duration>0</duration>
						<start>6060</start>
						<end>6060</end>
						<in>6132</in>
						<out>6132</out>
					</clipitem>
					<clipitem frameBlend="FALSE" id="clipitem-439">
						<file id="file-1"/>
						<name>bandicam 2025-06-02 00-01-10-144</name>
						<rate>
							<timebase>60</timebase>
							<ntsc>TRUE</ntsc>
						</rate>
						<rate>
							<timebase>60</timebase>
							<ntsc>TRUE</ntsc>
						</rate>
						<duration>24</duration>
						<start>6132</start>
						<end>6156</end>
						<in>6156</in>
						<out>6180</out>
					</clipitem>
					<clipitem frameBlend="FALSE" id="clipitem-440">
						<file id="file-1"/>
						<name>bandicam 2025-06-02 00-01-10-144</name>
						<rate>
							<timebase>60</timebase>
							<ntsc>TRUE</ntsc>
						</rate>
						<rate>
							<timebase>60</timebase>
							<ntsc>TRUE</ntsc>
						</rate>
						<duration>18</duration>
						<start>6180</start>
						<end>6198</end>
						<in>6234</in>
						<out>6252</out>
					</clipitem>
					<clipitem frameBlend="FALSE" id="clipitem-441">
						<file id="file-1"/>
						<name>bandicam 2025-06-02 00-01-10-144</name>
						<rate>
							<timebase>60</timebase>
							<ntsc>TRUE</ntsc>
						</rate>
						<rate>
							<timebase>60</timebase>
							<ntsc>TRUE</ntsc>
						</rate>
						<duration>0</duration>
						<start>6252</start>
						<end>6252</end>
						<in>6282</in>
						<out>6282</out>
					</clipitem>
					<clipitem frameBlend="FALSE" id="clipitem-442">
						<file id="file-1"/>
						<name>bandicam 2025-06-02 00-01-10-144</name>
						<rate>
							<timebase>60</timebase>
							<ntsc>TRUE</ntsc>
						</rate>
						<rate>
							<timebase>60</timebase>
							<ntsc>TRUE</ntsc>
						</rate>
						<duration>6</duration>
						<start>6282</start>
						<end>6288</end>
						<in>6312</in>
						<out>6318</out>
					</clipitem>
					<clipitem frameBlend="FALSE" id="clipitem-443">
						<file id="file-1"/>
						<name>bandicam 2025-06-02 00-01-10-144</name>
						<rate>
							<timebase>60</timebase>
							<ntsc>TRUE</ntsc>
						</rate>
						<rate>
							<timebase>60</timebase>
							<ntsc>TRUE</ntsc>
						</rate>
						<duration>0</duration>
						<start>6318</start>
						<end>6318</end>
						<in>6438</in>
						<out>6438</out>
					</clipitem>
					<clipitem frameBlend="FALSE" id="clipitem-444">
						<file id="file-1"/>
						<name>bandicam 2025-06-02 00-01-10-144</name>
						<rate>
							<timebase>60</timebase>
							<ntsc>TRUE</ntsc>
						</rate>
						<rate>
							<timebase>60</timebase>
							<ntsc>TRUE</ntsc>
						</rate>
						<duration>0</duration>
						<start>6438</start>
						<end>6438</end>
						<in>6486</in>
						<out>6486</out>
					</clipitem>
					<clipitem frameBlend="FALSE" id="clipitem-445">
						<file id="file-1"/>
						<name>bandicam 2025-06-02 00-01-10-144</name>
						<rate>
							<timebase>60</timebase>
							<ntsc>TRUE</ntsc>
						</rate>
						<rate>
							<timebase>60</timebase>
							<ntsc>TRUE</ntsc>
						</rate>
						<duration>24</duration>
						<start>6486</start>
						<end>6510</end>
						<in>6498</in>
						<out>6522</out>
					</clipitem>
					<clipitem frameBlend="FALSE" id="clipitem-446">
						<file id="file-1"/>
						<name>bandicam 2025-06-02 00-01-10-144</name>
						<rate>
							<timebase>60</timebase>
							<ntsc>TRUE</ntsc>
						</rate>
						<rate>
							<timebase>60</timebase>
							<ntsc>TRUE</ntsc>
						</rate>
						<duration>0</duration>
						<start>6522</start>
						<end>6522</end>
						<in>6534</in>
						<out>6534</out>
					</clipitem>
					<clipitem frameBlend="FALSE" id="clipitem-447">
						<file id="file-1"/>
						<name>bandicam 2025-06-02 00-01-10-144</name>
						<rate>
							<timebase>60</timebase>
							<ntsc>TRUE</ntsc>
						</rate>
						<rate>
							<timebase>60</timebase>
							<ntsc>TRUE</ntsc>
						</rate>
						<duration>6</duration>
						<start>6534</start>
						<end>6540</end>
						<in>6612</in>
						<out>6618</out>
					</clipitem>
					<clipitem frameBlend="FALSE" id="clipitem-448">
						<file id="file-1"/>
						<name>bandicam 2025-06-02 00-01-10-144</name>
						<rate>
							<timebase>60</timebase>
							<ntsc>TRUE</ntsc>
						</rate>
						<rate>
							<timebase>60</timebase>
							<ntsc>TRUE</ntsc>
						</rate>
						<duration>0</duration>
						<start>6618</start>
						<end>6618</end>
						<in>6816</in>
						<out>6816</out>
					</clipitem>
					<clipitem frameBlend="FALSE" id="clipitem-449">
						<file id="file-1"/>
						<name>bandicam 2025-06-02 00-01-10-144</name>
						<rate>
							<timebase>60</timebase>
							<ntsc>TRUE</ntsc>
						</rate>
						<rate>
							<timebase>60</timebase>
							<ntsc>TRUE</ntsc>
						</rate>
						<duration>0</duration>
						<start>6816</start>
						<end>6816</end>
						<in>6834</in>
						<out>6834</out>
					</clipitem>
					<clipitem frameBlend="FALSE" id="clipitem-450">
						<file id="file-1"/>
						<name>bandicam 2025-06-02 00-01-10-144</name>
						<rate>
							<timebase>60</timebase>
							<ntsc>TRUE</ntsc>
						</rate>
						<rate>
							<timebase>60</timebase>
							<ntsc>TRUE</ntsc>
						</rate>
						<duration>0</duration>
						<start>6834</start>
						<end>6834</end>
						<in>6894</in>
						<out>6894</out>
					</clipitem>
					<clipitem frameBlend="FALSE" id="clipitem-451">
						<file id="file-1"/>
						<name>bandicam 2025-06-02 00-01-10-144</name>
						<rate>
							<timebase>60</timebase>
							<ntsc>TRUE</ntsc>
						</rate>
						<rate>
							<timebase>60</timebase>
							<ntsc>TRUE</ntsc>
						</rate>
						<duration>0</duration>
						<start>6894</start>
						<end>6894</end>
						<in>6918</in>
						<out>6918</out>
					</clipitem>
					<clipitem frameBlend="FALSE" id="clipitem-452">
						<file id="file-1"/>
						<name>bandicam 2025-06-02 00-01-10-144</name>
						<rate>
							<timebase>60</timebase>
							<ntsc>TRUE</ntsc>
						</rate>
						<rate>
							<timebase>60</timebase>
							<ntsc>TRUE</ntsc>
						</rate>
						<duration>0</duration>
						<start>6918</start>
						<end>6918</end>
						<in>6954</in>
						<out>6954</out>
					</clipitem>
					<clipitem frameBlend="FALSE" id="clipitem-453">
						<file id="file-1"/>
						<name>bandicam 2025-06-02 00-01-10-144</name>
						<rate>
							<timebase>60</timebase>
							<ntsc>TRUE</ntsc>
						</rate>
						<rate>
							<timebase>60</timebase>
							<ntsc>TRUE</ntsc>
						</rate>
						<duration>0</duration>
						<start>6954</start>
						<end>6954</end>
						<in>7032</in>
						<out>7032</out>
					</clipitem>
					<clipitem frameBlend="FALSE" id="clipitem-454">
						<file id="file-1"/>
						<name>bandicam 2025-06-02 00-01-10-144</name>
						<rate>
							<timebase>60</timebase>
							<ntsc>TRUE</ntsc>
						</rate>
						<rate>
							<timebase>60</timebase>
							<ntsc>TRUE</ntsc>
						</rate>
						<duration>0</duration>
						<start>7032</start>
						<end>7032</end>
						<in>60</in>
						<out>60</out>
					</clipitem>
					<clipitem frameBlend="FALSE" id="clipitem-455">
						<file id="file-1"/>
						<name>bandicam 2025-06-02 00-01-10-144</name>
						<rate>
							<timebase>60</timebase>
							<ntsc>TRUE</ntsc>
						</rate>
						<rate>
							<timebase>60</timebase>
							<ntsc>TRUE</ntsc>
						</rate>
						<duration>12</duration>
						<start>60</start>
						<end>72</end>
						<in>114</in>
						<out>126</out>
					</clipitem>
					<clipitem frameBlend="FALSE" id="clipitem-456">
						<file id="file-1"/>
						<name>bandicam 2025-06-02 00-01-10-144</name>
						<rate>
							<timebase>60</timebase>
							<ntsc>TRUE</ntsc>
						</rate>
						<rate>
							<timebase>60</timebase>
							<ntsc>TRUE</ntsc>
						</rate>
						<duration>18</duration>
						<start>126</start>
						<end>144</end>
						<in>450</in>
						<out>468</out>
					</clipitem>
					<clipitem frameBlend="FALSE" id="clipitem-457">
						<file id="file-1"/>
						<name>bandicam 2025-06-02 00-01-10-144</name>
						<rate>
							<timebase>60</timebase>
							<ntsc>TRUE</ntsc>
						</rate>
						<rate>
							<timebase>60</timebase>
							<ntsc>TRUE</ntsc>
						</rate>
						<duration>6</duration>
						<start>468</start>
						<end>474</end>
						<in>582</in>
						<out>588</out>
					</clipitem>
					<clipitem frameBlend="FALSE" id="clipitem-458">
						<file id="file-1"/>
						<name>bandicam 2025-06-02 00-01-10-144</name>
						<rate>
							<timebase>60</timebase>
							<ntsc>TRUE</ntsc>
						</rate>
						<rate>
							<timebase>60</timebase>
							<ntsc>TRUE</ntsc>
						</rate>
						<duration>6</duration>
						<start>588</start>
						<end>594</end>
						<in>1410</in>
						<out>1416</out>
					</clipitem>
					<clipitem frameBlend="FALSE" id="clipitem-459">
						<file id="file-1"/>
						<name>bandicam 2025-06-02 00-01-10-144</name>
						<rate>
							<timebase>60</timebase>
							<ntsc>TRUE</ntsc>
						</rate>
						<rate>
							<timebase>60</timebase>
							<ntsc>TRUE</ntsc>
						</rate>
						<duration>0</duration>
						<start>1416</start>
						<end>1416</end>
						<in>1692</in>
						<out>1692</out>
					</clipitem>
					<clipitem frameBlend="FALSE" id="clipitem-460">
						<file id="file-1"/>
						<name>bandicam 2025-06-02 00-01-10-144</name>
						<rate>
							<timebase>60</timebase>
							<ntsc>TRUE</ntsc>
						</rate>
						<rate>
							<timebase>60</timebase>
							<ntsc>TRUE</ntsc>
						</rate>
						<duration>6</duration>
						<start>1692</start>
						<end>1698</end>
						<in>1704</in>
						<out>1710</out>
					</clipitem>
					<clipitem frameBlend="FALSE" id="clipitem-461">
						<file id="file-1"/>
						<name>bandicam 2025-06-02 00-01-10-144</name>
						<rate>
							<timebase>60</timebase>
							<ntsc>TRUE</ntsc>
						</rate>
						<rate>
							<timebase>60</timebase>
							<ntsc>TRUE</ntsc>
						</rate>
						<duration>12</duration>
						<start>1710</start>
						<end>1722</end>
						<in>1746</in>
						<out>1758</out>
					</clipitem>
					<clipitem frameBlend="FALSE" id="clipitem-462">
						<file id="file-1"/>
						<name>bandicam 2025-06-02 00-01-10-144</name>
						<rate>
							<timebase>60</timebase>
							<ntsc>TRUE</ntsc>
						</rate>
						<rate>
							<timebase>60</timebase>
							<ntsc>TRUE</ntsc>
						</rate>
						<duration>0</duration>
						<start>1758</start>
						<end>1758</end>
						<in>1776</in>
						<out>1776</out>
					</clipitem>
					<clipitem frameBlend="FALSE" id="clipitem-463">
						<file id="file-1"/>
						<name>bandicam 2025-06-02 00-01-10-144</name>
						<rate>
							<timebase>60</timebase>
							<ntsc>TRUE</ntsc>
						</rate>
						<rate>
							<timebase>60</timebase>
							<ntsc>TRUE</ntsc>
						</rate>
						<duration>0</duration>
						<start>1776</start>
						<end>1776</end>
						<in>1812</in>
						<out>1812</out>
					</clipitem>
					<clipitem frameBlend="FALSE" id="clipitem-464">
						<file id="file-1"/>
						<name>bandicam 2025-06-02 00-01-10-144</name>
						<rate>
							<timebase>60</timebase>
							<ntsc>TRUE</ntsc>
						</rate>
						<rate>
							<timebase>60</timebase>
							<ntsc>TRUE</ntsc>
						</rate>
						<duration>6</duration>
						<start>1812</start>
						<end>1818</end>
						<in>1848</in>
						<out>1854</out>
					</clipitem>
					<clipitem frameBlend="FALSE" id="clipitem-465">
						<file id="file-1"/>
						<name>bandicam 2025-06-02 00-01-10-144</name>
						<rate>
							<timebase>60</timebase>
							<ntsc>TRUE</ntsc>
						</rate>
						<rate>
							<timebase>60</timebase>
							<ntsc>TRUE</ntsc>
						</rate>
						<duration>6</duration>
						<start>1854</start>
						<end>1860</end>
						<in>1884</in>
						<out>1890</out>
					</clipitem>
					<clipitem frameBlend="FALSE" id="clipitem-466">
						<file id="file-1"/>
						<name>bandicam 2025-06-02 00-01-10-144</name>
						<rate>
							<timebase>60</timebase>
							<ntsc>TRUE</ntsc>
						</rate>
						<rate>
							<timebase>60</timebase>
							<ntsc>TRUE</ntsc>
						</rate>
						<duration>0</duration>
						<start>1890</start>
						<end>1890</end>
						<in>2292</in>
						<out>2292</out>
					</clipitem>
					<clipitem frameBlend="FALSE" id="clipitem-467">
						<file id="file-1"/>
						<name>bandicam 2025-06-02 00-01-10-144</name>
						<rate>
							<timebase>60</timebase>
							<ntsc>TRUE</ntsc>
						</rate>
						<rate>
							<timebase>60</timebase>
							<ntsc>TRUE</ntsc>
						</rate>
						<duration>12</duration>
						<start>2292</start>
						<end>2304</end>
						<in>2310</in>
						<out>2322</out>
					</clipitem>
					<clipitem frameBlend="FALSE" id="clipitem-468">
						<file id="file-1"/>
						<name>bandicam 2025-06-02 00-01-10-144</name>
						<rate>
							<timebase>60</timebase>
							<ntsc>TRUE</ntsc>
						</rate>
						<rate>
							<timebase>60</timebase>
							<ntsc>TRUE</ntsc>
						</rate>
						<duration>6</duration>
						<start>2322</start>
						<end>2328</end>
						<in>2448</in>
						<out>2454</out>
					</clipitem>
					<clipitem frameBlend="FALSE" id="clipitem-469">
						<file id="file-1"/>
						<name>bandicam 2025-06-02 00-01-10-144</name>
						<rate>
							<timebase>60</timebase>
							<ntsc>TRUE</ntsc>
						</rate>
						<rate>
							<timebase>60</timebase>
							<ntsc>TRUE</ntsc>
						</rate>
						<duration>12</duration>
						<start>2454</start>
						<end>2466</end>
						<in>2742</in>
						<out>2754</out>
					</clipitem>
					<clipitem frameBlend="FALSE" id="clipitem-470">
						<file id="file-1"/>
						<name>bandicam 2025-06-02 00-01-10-144</name>
						<rate>
							<timebase>60</timebase>
							<ntsc>TRUE</ntsc>
						</rate>
						<rate>
							<timebase>60</timebase>
							<ntsc>TRUE</ntsc>
						</rate>
						<duration>6</duration>
						<start>2754</start>
						<end>2760</end>
						<in>2766</in>
						<out>2772</out>
					</clipitem>
					<clipitem frameBlend="FALSE" id="clipitem-471">
						<file id="file-1"/>
						<name>bandicam 2025-06-02 00-01-10-144</name>
						<rate>
							<timebase>60</timebase>
							<ntsc>TRUE</ntsc>
						</rate>
						<rate>
							<timebase>60</timebase>
							<ntsc>TRUE</ntsc>
						</rate>
						<duration>18</duration>
						<start>2772</start>
						<end>2790</end>
						<in>2802</in>
						<out>2820</out>
					</clipitem>
					<clipitem frameBlend="FALSE" id="clipitem-472">
						<file id="file-1"/>
						<name>bandicam 2025-06-02 00-01-10-144</name>
						<rate>
							<timebase>60</timebase>
							<ntsc>TRUE</ntsc>
						</rate>
						<rate>
							<timebase>60</timebase>
							<ntsc>TRUE</ntsc>
						</rate>
						<duration>42</duration>
						<start>2820</start>
						<end>2862</end>
						<in>3060</in>
						<out>3102</out>
					</clipitem>
					<clipitem frameBlend="FALSE" id="clipitem-473">
						<file id="file-1"/>
						<name>bandicam 2025-06-02 00-01-10-144</name>
						<rate>
							<timebase>60</timebase>
							<ntsc>TRUE</ntsc>
						</rate>
						<rate>
							<timebase>60</timebase>
							<ntsc>TRUE</ntsc>
						</rate>
						<duration>24</duration>
						<start>3102</start>
						<end>3126</end>
						<in>3270</in>
						<out>3294</out>
					</clipitem>
					<clipitem frameBlend="FALSE" id="clipitem-474">
						<file id="file-1"/>
						<name>bandicam 2025-06-02 00-01-10-144</name>
						<rate>
							<timebase>60</timebase>
							<ntsc>TRUE</ntsc>
						</rate>
						<rate>
							<timebase>60</timebase>
							<ntsc>TRUE</ntsc>
						</rate>
						<duration>18</duration>
						<start>3294</start>
						<end>3312</end>
						<in>3456</in>
						<out>3474</out>
					</clipitem>
					<clipitem frameBlend="FALSE" id="clipitem-475">
						<file id="file-1"/>
						<name>bandicam 2025-06-02 00-01-10-144</name>
						<rate>
							<timebase>60</timebase>
							<ntsc>TRUE</ntsc>
						</rate>
						<rate>
							<timebase>60</timebase>
							<ntsc>TRUE</ntsc>
						</rate>
						<duration>18</duration>
						<start>3474</start>
						<end>3492</end>
						<in>3624</in>
						<out>3642</out>
					</clipitem>
					<clipitem frameBlend="FALSE" id="clipitem-476">
						<file id="file-1"/>
						<name>bandicam 2025-06-02 00-01-10-144</name>
						<rate>
							<timebase>60</timebase>
							<ntsc>TRUE</ntsc>
						</rate>
						<rate>
							<timebase>60</timebase>
							<ntsc>TRUE</ntsc>
						</rate>
						<duration>6</duration>
						<start>3642</start>
						<end>3648</end>
						<in>4086</in>
						<out>4092</out>
					</clipitem>
					<clipitem frameBlend="FALSE" id="clipitem-477">
						<file id="file-1"/>
						<name>bandicam 2025-06-02 00-01-10-144</name>
						<rate>
							<timebase>60</timebase>
							<ntsc>TRUE</ntsc>
						</rate>
						<rate>
							<timebase>60</timebase>
							<ntsc>TRUE</ntsc>
						</rate>
						<duration>6</duration>
						<start>4092</start>
						<end>4098</end>
						<in>4104</in>
						<out>4110</out>
					</clipitem>
					<clipitem frameBlend="FALSE" id="clipitem-478">
						<file id="file-1"/>
						<name>bandicam 2025-06-02 00-01-10-144</name>
						<rate>
							<timebase>60</timebase>
							<ntsc>TRUE</ntsc>
						</rate>
						<rate>
							<timebase>60</timebase>
							<ntsc>TRUE</ntsc>
						</rate>
						<duration>0</duration>
						<start>4110</start>
						<end>4110</end>
						<in>4134</in>
						<out>4134</out>
					</clipitem>
					<clipitem frameBlend="FALSE" id="clipitem-479">
						<file id="file-1"/>
						<name>bandicam 2025-06-02 00-01-10-144</name>
						<rate>
							<timebase>60</timebase>
							<ntsc>TRUE</ntsc>
						</rate>
						<rate>
							<timebase>60</timebase>
							<ntsc>TRUE</ntsc>
						</rate>
						<duration>6</duration>
						<start>4134</start>
						<end>4140</end>
						<in>4188</in>
						<out>4194</out>
					</clipitem>
					<clipitem frameBlend="FALSE" id="clipitem-480">
						<file id="file-1"/>
						<name>bandicam 2025-06-02 00-01-10-144</name>
						<rate>
							<timebase>60</timebase>
							<ntsc>TRUE</ntsc>
						</rate>
						<rate>
							<timebase>60</timebase>
							<ntsc>TRUE</ntsc>
						</rate>
						<duration>0</duration>
						<start>4194</start>
						<end>4194</end>
						<in>4230</in>
						<out>4230</out>
					</clipitem>
					<clipitem frameBlend="FALSE" id="clipitem-481">
						<file id="file-1"/>
						<name>bandicam 2025-06-02 00-01-10-144</name>
						<rate>
							<timebase>60</timebase>
							<ntsc>TRUE</ntsc>
						</rate>
						<rate>
							<timebase>60</timebase>
							<ntsc>TRUE</ntsc>
						</rate>
						<duration>6</duration>
						<start>4230</start>
						<end>4236</end>
						<in>4242</in>
						<out>4248</out>
					</clipitem>
					<clipitem frameBlend="FALSE" id="clipitem-482">
						<file id="file-1"/>
						<name>bandicam 2025-06-02 00-01-10-144</name>
						<rate>
							<timebase>60</timebase>
							<ntsc>TRUE</ntsc>
						</rate>
						<rate>
							<timebase>60</timebase>
							<ntsc>TRUE</ntsc>
						</rate>
						<duration>66</duration>
						<start>4248</start>
						<end>4314</end>
						<in>4302</in>
						<out>4368</out>
					</clipitem>
					<clipitem frameBlend="FALSE" id="clipitem-483">
						<file id="file-1"/>
						<name>bandicam 2025-06-02 00-01-10-144</name>
						<rate>
							<timebase>60</timebase>
							<ntsc>TRUE</ntsc>
						</rate>
						<rate>
							<timebase>60</timebase>
							<ntsc>TRUE</ntsc>
						</rate>
						<duration>42</duration>
						<start>4368</start>
						<end>4410</end>
						<in>4392</in>
						<out>4434</out>
					</clipitem>
					<clipitem frameBlend="FALSE" id="clipitem-484">
						<file id="file-1"/>
						<name>bandicam 2025-06-02 00-01-10-144</name>
						<rate>
							<timebase>60</timebase>
							<ntsc>TRUE</ntsc>
						</rate>
						<rate>
							<timebase>60</timebase>
							<ntsc>TRUE</ntsc>
						</rate>
						<duration>18</duration>
						<start>4434</start>
						<end>4452</end>
						<in>4506</in>
						<out>4524</out>
					</clipitem>
					<clipitem frameBlend="FALSE" id="clipitem-485">
						<file id="file-1"/>
						<name>bandicam 2025-06-02 00-01-10-144</name>
						<rate>
							<timebase>60</timebase>
							<ntsc>TRUE</ntsc>
						</rate>
						<rate>
							<timebase>60</timebase>
							<ntsc>TRUE</ntsc>
						</rate>
						<duration>12</duration>
						<start>4524</start>
						<end>4536</end>
						<in>4542</in>
						<out>4554</out>
					</clipitem>
					<clipitem frameBlend="FALSE" id="clipitem-486">
						<file id="file-1"/>
						<name>bandicam 2025-06-02 00-01-10-144</name>
						<rate>
							<timebase>60</timebase>
							<ntsc>TRUE</ntsc>
						</rate>
						<rate>
							<timebase>60</timebase>
							<ntsc>TRUE</ntsc>
						</rate>
						<duration>24</duration>
						<start>4554</start>
						<end>4578</end>
						<in>4602</in>
						<out>4626</out>
					</clipitem>
					<clipitem frameBlend="FALSE" id="clipitem-487">
						<file id="file-1"/>
						<name>bandicam 2025-06-02 00-01-10-144</name>
						<rate>
							<timebase>60</timebase>
							<ntsc>TRUE</ntsc>
						</rate>
						<rate>
							<timebase>60</timebase>
							<ntsc>TRUE</ntsc>
						</rate>
						<duration>0</duration>
						<start>4626</start>
						<end>4626</end>
						<in>4704</in>
						<out>4704</out>
					</clipitem>
					<clipitem frameBlend="FALSE" id="clipitem-488">
						<file id="file-1"/>
						<name>bandicam 2025-06-02 00-01-10-144</name>
						<rate>
							<timebase>60</timebase>
							<ntsc>TRUE</ntsc>
						</rate>
						<rate>
							<timebase>60</timebase>
							<ntsc>TRUE</ntsc>
						</rate>
						<duration>48</duration>
						<start>4704</start>
						<end>4752</end>
						<in>4722</in>
						<out>4770</out>
					</clipitem>
					<clipitem frameBlend="FALSE" id="clipitem-489">
						<file id="file-1"/>
						<name>bandicam 2025-06-02 00-01-10-144</name>
						<rate>
							<timebase>60</timebase>
							<ntsc>TRUE</ntsc>
						</rate>
						<rate>
							<timebase>60</timebase>
							<ntsc>TRUE</ntsc>
						</rate>
						<duration>6</duration>
						<start>4770</start>
						<end>4776</end>
						<in>4860</in>
						<out>4866</out>
					</clipitem>
					<clipitem frameBlend="FALSE" id="clipitem-490">
						<file id="file-1"/>
						<name>bandicam 2025-06-02 00-01-10-144</name>
						<rate>
							<timebase>60</timebase>
							<ntsc>TRUE</ntsc>
						</rate>
						<rate>
							<timebase>60</timebase>
							<ntsc>TRUE</ntsc>
						</rate>
						<duration>6</duration>
						<start>4866</start>
						<end>4872</end>
						<in>4968</in>
						<out>4974</out>
					</clipitem>
					<clipitem frameBlend="FALSE" id="clipitem-491">
						<file id="file-1"/>
						<name>bandicam 2025-06-02 00-01-10-144</name>
						<rate>
							<timebase>60</timebase>
							<ntsc>TRUE</ntsc>
						</rate>
						<rate>
							<timebase>60</timebase>
							<ntsc>TRUE</ntsc>
						</rate>
						<duration>6</duration>
						<start>4974</start>
						<end>4980</end>
						<in>5112</in>
						<out>5118</out>
					</clipitem>
					<clipitem frameBlend="FALSE" id="clipitem-492">
						<file id="file-1"/>
						<name>bandicam 2025-06-02 00-01-10-144</name>
						<rate>
							<timebase>60</timebase>
							<ntsc>TRUE</ntsc>
						</rate>
						<rate>
							<timebase>60</timebase>
							<ntsc>TRUE</ntsc>
						</rate>
						<duration>6</duration>
						<start>5118</start>
						<end>5124</end>
						<in>5142</in>
						<out>5148</out>
					</clipitem>
					<clipitem frameBlend="FALSE" id="clipitem-493">
						<file id="file-1"/>
						<name>bandicam 2025-06-02 00-01-10-144</name>
						<rate>
							<timebase>60</timebase>
							<ntsc>TRUE</ntsc>
						</rate>
						<rate>
							<timebase>60</timebase>
							<ntsc>TRUE</ntsc>
						</rate>
						<duration>18</duration>
						<start>5148</start>
						<end>5166</end>
						<in>5160</in>
						<out>5178</out>
					</clipitem>
					<clipitem frameBlend="FALSE" id="clipitem-494">
						<file id="file-1"/>
						<name>bandicam 2025-06-02 00-01-10-144</name>
						<rate>
							<timebase>60</timebase>
							<ntsc>TRUE</ntsc>
						</rate>
						<rate>
							<timebase>60</timebase>
							<ntsc>TRUE</ntsc>
						</rate>
						<duration>12</duration>
						<start>5178</start>
						<end>5190</end>
						<in>5328</in>
						<out>5340</out>
					</clipitem>
					<clipitem frameBlend="FALSE" id="clipitem-495">
						<file id="file-1"/>
						<name>bandicam 2025-06-02 00-01-10-144</name>
						<rate>
							<timebase>60</timebase>
							<ntsc>TRUE</ntsc>
						</rate>
						<rate>
							<timebase>60</timebase>
							<ntsc>TRUE</ntsc>
						</rate>
						<duration>12</duration>
						<start>5340</start>
						<end>5352</end>
						<in>5412</in>
						<out>5424</out>
					</clipitem>
					<clipitem frameBlend="FALSE" id="clipitem-496">
						<file id="file-1"/>
						<name>bandicam 2025-06-02 00-01-10-144</name>
						<rate>
							<timebase>60</timebase>
							<ntsc>TRUE</ntsc>
						</rate>
						<rate>
							<timebase>60</timebase>
							<ntsc>TRUE</ntsc>
						</rate>
						<duration>0</duration>
						<start>5424</start>
						<end>5424</end>
						<in>5448</in>
						<out>5448</out>
					</clipitem>
					<clipitem frameBlend="FALSE" id="clipitem-497">
						<file id="file-1"/>
						<name>bandicam 2025-06-02 00-01-10-144</name>
						<rate>
							<timebase>60</timebase>
							<ntsc>TRUE</ntsc>
						</rate>
						<rate>
							<timebase>60</timebase>
							<ntsc>TRUE</ntsc>
						</rate>
						<duration>0</duration>
						<start>5448</start>
						<end>5448</end>
						<in>5592</in>
						<out>5592</out>
					</clipitem>
					<clipitem frameBlend="FALSE" id="clipitem-498">
						<file id="file-1"/>
						<name>bandicam 2025-06-02 00-01-10-144</name>
						<rate>
							<timebase>60</timebase>
							<ntsc>TRUE</ntsc>
						</rate>
						<rate>
							<timebase>60</timebase>
							<ntsc>TRUE</ntsc>
						</rate>
						<duration>0</duration>
						<start>5592</start>
						<end>5592</end>
						<in>5628</in>
						<out>5628</out>
					</clipitem>
					<clipitem frameBlend="FALSE" id="clipitem-499">
						<file id="file-1"/>
						<name>bandicam 2025-06-02 00-01-10-144</name>
						<rate>
							<timebase>60</timebase>
							<ntsc>TRUE</ntsc>
						</rate>
						<rate>
							<timebase>60</timebase>
							<ntsc>TRUE</ntsc>
						</rate>
						<duration>18</duration>
						<start>5628</start>
						<end>5646</end>
						<in>5670</in>
						<out>5688</out>
					</clipitem>
					<clipitem frameBlend="FALSE" id="clipitem-500">
						<file id="file-1"/>
						<name>bandicam 2025-06-02 00-01-10-144</name>
						<rate>
							<timebase>60</timebase>
							<ntsc>TRUE</ntsc>
						</rate>
						<rate>
							<timebase>60</timebase>
							<ntsc>TRUE</ntsc>
						</rate>
						<duration>18</duration>
						<start>5688</start>
						<end>5706</end>
						<in>5760</in>
						<out>5778</out>
					</clipitem>
					<clipitem frameBlend="FALSE" id="clipitem-501">
						<file id="file-1"/>
						<name>bandicam 2025-06-02 00-01-10-144</name>
						<rate>
							<timebase>60</timebase>
							<ntsc>TRUE</ntsc>
						</rate>
						<rate>
							<timebase>60</timebase>
							<ntsc>TRUE</ntsc>
						</rate>
						<duration>72</duration>
						<start>5778</start>
						<end>5850</end>
						<in>5802</in>
						<out>5874</out>
					</clipitem>
					<clipitem frameBlend="FALSE" id="clipitem-502">
						<file id="file-1"/>
						<name>bandicam 2025-06-02 00-01-10-144</name>
						<rate>
							<timebase>60</timebase>
							<ntsc>TRUE</ntsc>
						</rate>
						<rate>
							<timebase>60</timebase>
							<ntsc>TRUE</ntsc>
						</rate>
						<duration>48</duration>
						<start>5874</start>
						<end>5922</end>
						<in>5910</in>
						<out>5958</out>
					</clipitem>
					<clipitem frameBlend="FALSE" id="clipitem-503">
						<file id="file-1"/>
						<name>bandicam 2025-06-02 00-01-10-144</name>
						<rate>
							<timebase>60</timebase>
							<ntsc>TRUE</ntsc>
						</rate>
						<rate>
							<timebase>60</timebase>
							<ntsc>TRUE</ntsc>
						</rate>
						<duration>0</duration>
						<start>5958</start>
						<end>5958</end>
						<in>6000</in>
						<out>6000</out>
					</clipitem>
					<clipitem frameBlend="FALSE" id="clipitem-504">
						<file id="file-1"/>
						<name>bandicam 2025-06-02 00-01-10-144</name>
						<rate>
							<timebase>60</timebase>
							<ntsc>TRUE</ntsc>
						</rate>
						<rate>
							<timebase>60</timebase>
							<ntsc>TRUE</ntsc>
						</rate>
						<duration>24</duration>
						<start>6000</start>
						<end>6024</end>
						<in>6012</in>
						<out>6036</out>
					</clipitem>
					<clipitem frameBlend="FALSE" id="clipitem-505">
						<file id="file-1"/>
						<name>bandicam 2025-06-02 00-01-10-144</name>
						<rate>
							<timebase>60</timebase>
							<ntsc>TRUE</ntsc>
						</rate>
						<rate>
							<timebase>60</timebase>
							<ntsc>TRUE</ntsc>
						</rate>
						<duration>24</duration>
						<start>6036</start>
						<end>6060</end>
						<in>6156</in>
						<out>6180</out>
					</clipitem>
					<clipitem frameBlend="FALSE" id="clipitem-506">
						<file id="file-1"/>
						<name>bandicam 2025-06-02 00-01-10-144</name>
						<rate>
							<timebase>60</timebase>
							<ntsc>TRUE</ntsc>
						</rate>
						<rate>
							<timebase>60</timebase>
							<ntsc>TRUE</ntsc>
						</rate>
						<duration>6</duration>
						<start>6180</start>
						<end>6186</end>
						<in>6234</in>
						<out>6240</out>
					</clipitem>
					<clipitem frameBlend="FALSE" id="clipitem-507">
						<file id="file-1"/>
						<name>bandicam 2025-06-02 00-01-10-144</name>
						<rate>
							<timebase>60</timebase>
							<ntsc>TRUE</ntsc>
						</rate>
						<rate>
							<timebase>60</timebase>
							<ntsc>TRUE</ntsc>
						</rate>
						<duration>0</duration>
						<start>6240</start>
						<end>6240</end>
						<in>6252</in>
						<out>6252</out>
					</clipitem>
					<clipitem frameBlend="FALSE" id="clipitem-508">
						<file id="file-1"/>
						<name>bandicam 2025-06-02 00-01-10-144</name>
						<rate>
							<timebase>60</timebase>
							<ntsc>TRUE</ntsc>
						</rate>
						<rate>
							<timebase>60</timebase>
							<ntsc>TRUE</ntsc>
						</rate>
						<duration>24</duration>
						<start>6252</start>
						<end>6276</end>
						<in>6498</in>
						<out>6522</out>
					</clipitem>
					<clipitem frameBlend="FALSE" id="clipitem-509">
						<file id="file-1"/>
						<name>bandicam 2025-06-02 00-01-10-144</name>
						<rate>
							<timebase>60</timebase>
							<ntsc>TRUE</ntsc>
						</rate>
						<rate>
							<timebase>60</timebase>
							<ntsc>TRUE</ntsc>
						</rate>
						<duration>0</duration>
						<start>6522</start>
						<end>6522</end>
						<in>6894</in>
						<out>6894</out>
					</clipitem>
					<clipitem frameBlend="FALSE" id="clipitem-510">
						<file id="file-1"/>
						<name>bandicam 2025-06-02 00-01-10-144</name>
						<rate>
							<timebase>60</timebase>
							<ntsc>TRUE</ntsc>
						</rate>
						<rate>
							<timebase>60</timebase>
							<ntsc>TRUE</ntsc>
						</rate>
						<duration>0</duration>
						<start>6894</start>
						<end>6894</end>
						<in>6954</in>
						<out>6954</out>
					</clipitem>
					<clipitem frameBlend="FALSE" id="clipitem-511">
						<file id="file-1"/>
						<name>bandicam 2025-06-02 00-01-10-144</name>
						<rate>
							<timebase>60</timebase>
							<ntsc>TRUE</ntsc>
						</rate>
						<rate>
							<timebase>60</timebase>
							<ntsc>TRUE</ntsc>
						</rate>
						<duration>0</duration>
						<start>6954</start>
						<end>6954</end>
						<in>60</in>
						<out>60</out>
					</clipitem>
					<clipitem frameBlend="FALSE" id="clipitem-512">
						<file id="file-1"/>
						<name>bandicam 2025-06-02 00-01-10-144</name>
						<rate>
							<timebase>60</timebase>
							<ntsc>TRUE</ntsc>
						</rate>
						<rate>
							<timebase>60</timebase>
							<ntsc>TRUE</ntsc>
						</rate>
						<duration>12</duration>
						<start>60</start>
						<end>72</end>
						<in>114</in>
						<out>126</out>
					</clipitem>
					<clipitem frameBlend="FALSE" id="clipitem-513">
						<file id="file-1"/>
						<name>bandicam 2025-06-02 00-01-10-144</name>
						<rate>
							<timebase>60</timebase>
							<ntsc>TRUE</ntsc>
						</rate>
						<rate>
							<timebase>60</timebase>
							<ntsc>TRUE</ntsc>
						</rate>
						<duration>18</duration>
						<start>126</start>
						<end>144</end>
						<in>450</in>
						<out>468</out>
					</clipitem>
					<clipitem frameBlend="FALSE" id="clipitem-514">
						<file id="file-1"/>
						<name>bandicam 2025-06-02 00-01-10-144</name>
						<rate>
							<timebase>60</timebase>
							<ntsc>TRUE</ntsc>
						</rate>
						<rate>
							<timebase>60</timebase>
							<ntsc>TRUE</ntsc>
						</rate>
						<duration>6</duration>
						<start>468</start>
						<end>474</end>
						<in>582</in>
						<out>588</out>
					</clipitem>
					<clipitem frameBlend="FALSE" id="clipitem-515">
						<file id="file-1"/>
						<name>bandicam 2025-06-02 00-01-10-144</name>
						<rate>
							<timebase>60</timebase>
							<ntsc>TRUE</ntsc>
						</rate>
						<rate>
							<timebase>60</timebase>
							<ntsc>TRUE</ntsc>
						</rate>
						<duration>6</duration>
						<start>588</start>
						<end>594</end>
						<in>1410</in>
						<out>1416</out>
					</clipitem>
					<clipitem frameBlend="FALSE" id="clipitem-516">
						<file id="file-1"/>
						<name>bandicam 2025-06-02 00-01-10-144</name>
						<rate>
							<timebase>60</timebase>
							<ntsc>TRUE</ntsc>
						</rate>
						<rate>
							<timebase>60</timebase>
							<ntsc>TRUE</ntsc>
						</rate>
						<duration>0</duration>
						<start>1416</start>
						<end>1416</end>
						<in>1692</in>
						<out>1692</out>
					</clipitem>
					<clipitem frameBlend="FALSE" id="clipitem-517">
						<file id="file-1"/>
						<name>bandicam 2025-06-02 00-01-10-144</name>
						<rate>
							<timebase>60</timebase>
							<ntsc>TRUE</ntsc>
						</rate>
						<rate>
							<timebase>60</timebase>
							<ntsc>TRUE</ntsc>
						</rate>
						<duration>6</duration>
						<start>1692</start>
						<end>1698</end>
						<in>1704</in>
						<out>1710</out>
					</clipitem>
					<clipitem frameBlend="FALSE" id="clipitem-518">
						<file id="file-1"/>
						<name>bandicam 2025-06-02 00-01-10-144</name>
						<rate>
							<timebase>60</timebase>
							<ntsc>TRUE</ntsc>
						</rate>
						<rate>
							<timebase>60</timebase>
							<ntsc>TRUE</ntsc>
						</rate>
						<duration>12</duration>
						<start>1710</start>
						<end>1722</end>
						<in>1746</in>
						<out>1758</out>
					</clipitem>
					<clipitem frameBlend="FALSE" id="clipitem-519">
						<file id="file-1"/>
						<name>bandicam 2025-06-02 00-01-10-144</name>
						<rate>
							<timebase>60</timebase>
							<ntsc>TRUE</ntsc>
						</rate>
						<rate>
							<timebase>60</timebase>
							<ntsc>TRUE</ntsc>
						</rate>
						<duration>0</duration>
						<start>1758</start>
						<end>1758</end>
						<in>1776</in>
						<out>1776</out>
					</clipitem>
					<clipitem frameBlend="FALSE" id="clipitem-520">
						<file id="file-1"/>
						<name>bandicam 2025-06-02 00-01-10-144</name>
						<rate>
							<timebase>60</timebase>
							<ntsc>TRUE</ntsc>
						</rate>
						<rate>
							<timebase>60</timebase>
							<ntsc>TRUE</ntsc>
						</rate>
						<duration>0</duration>
						<start>1776</start>
						<end>1776</end>
						<in>1812</in>
						<out>1812</out>
					</clipitem>
					<clipitem frameBlend="FALSE" id="clipitem-521">
						<file id="file-1"/>
						<name>bandicam 2025-06-02 00-01-10-144</name>
						<rate>
							<timebase>60</timebase>
							<ntsc>TRUE</ntsc>
						</rate>
						<rate>
							<timebase>60</timebase>
							<ntsc>TRUE</ntsc>
						</rate>
						<duration>6</duration>
						<start>1812</start>
						<end>1818</end>
						<in>1848</in>
						<out>1854</out>
					</clipitem>
					<clipitem frameBlend="FALSE" id="clipitem-522">
						<file id="file-1"/>
						<name>bandicam 2025-06-02 00-01-10-144</name>
						<rate>
							<timebase>60</timebase>
							<ntsc>TRUE</ntsc>
						</rate>
						<rate>
							<timebase>60</timebase>
							<ntsc>TRUE</ntsc>
						</rate>
						<duration>6</duration>
						<start>1854</start>
						<end>1860</end>
						<in>1884</in>
						<out>1890</out>
					</clipitem>
					<clipitem frameBlend="FALSE" id="clipitem-523">
						<file id="file-1"/>
						<name>bandicam 2025-06-02 00-01-10-144</name>
						<rate>
							<timebase>60</timebase>
							<ntsc>TRUE</ntsc>
						</rate>
						<rate>
							<timebase>60</timebase>
							<ntsc>TRUE</ntsc>
						</rate>
						<duration>0</duration>
						<start>1890</start>
						<end>1890</end>
						<in>2292</in>
						<out>2292</out>
					</clipitem>
					<clipitem frameBlend="FALSE" id="clipitem-524">
						<file id="file-1"/>
						<name>bandicam 2025-06-02 00-01-10-144</name>
						<rate>
							<timebase>60</timebase>
							<ntsc>TRUE</ntsc>
						</rate>
						<rate>
							<timebase>60</timebase>
							<ntsc>TRUE</ntsc>
						</rate>
						<duration>12</duration>
						<start>2292</start>
						<end>2304</end>
						<in>2310</in>
						<out>2322</out>
					</clipitem>
					<clipitem frameBlend="FALSE" id="clipitem-525">
						<file id="file-1"/>
						<name>bandicam 2025-06-02 00-01-10-144</name>
						<rate>
							<timebase>60</timebase>
							<ntsc>TRUE</ntsc>
						</rate>
						<rate>
							<timebase>60</timebase>
							<ntsc>TRUE</ntsc>
						</rate>
						<duration>6</duration>
						<start>2322</start>
						<end>2328</end>
						<in>2448</in>
						<out>2454</out>
					</clipitem>
					<clipitem frameBlend="FALSE" id="clipitem-526">
						<file id="file-1"/>
						<name>bandicam 2025-06-02 00-01-10-144</name>
						<rate>
							<timebase>60</timebase>
							<ntsc>TRUE</ntsc>
						</rate>
						<rate>
							<timebase>60</timebase>
							<ntsc>TRUE</ntsc>
						</rate>
						<duration>12</duration>
						<start>2454</start>
						<end>2466</end>
						<in>2742</in>
						<out>2754</out>
					</clipitem>
					<clipitem frameBlend="FALSE" id="clipitem-527">
						<file id="file-1"/>
						<name>bandicam 2025-06-02 00-01-10-144</name>
						<rate>
							<timebase>60</timebase>
							<ntsc>TRUE</ntsc>
						</rate>
						<rate>
							<timebase>60</timebase>
							<ntsc>TRUE</ntsc>
						</rate>
						<duration>6</duration>
						<start>2754</start>
						<end>2760</end>
						<in>2766</in>
						<out>2772</out>
					</clipitem>
					<clipitem frameBlend="FALSE" id="clipitem-528">
						<file id="file-1"/>
						<name>bandicam 2025-06-02 00-01-10-144</name>
						<rate>
							<timebase>60</timebase>
							<ntsc>TRUE</ntsc>
						</rate>
						<rate>
							<timebase>60</timebase>
							<ntsc>TRUE</ntsc>
						</rate>
						<duration>18</duration>
						<start>2772</start>
						<end>2790</end>
						<in>2802</in>
						<out>2820</out>
					</clipitem>
					<clipitem frameBlend="FALSE" id="clipitem-529">
						<file id="file-1"/>
						<name>bandicam 2025-06-02 00-01-10-144</name>
						<rate>
							<timebase>60</timebase>
							<ntsc>TRUE</ntsc>
						</rate>
						<rate>
							<timebase>60</timebase>
							<ntsc>TRUE</ntsc>
						</rate>
						<duration>0</duration>
						<start>2820</start>
						<end>2820</end>
						<in>3060</in>
						<out>3060</out>
					</clipitem>
					<clipitem frameBlend="FALSE" id="clipitem-530">
						<file id="file-1"/>
						<name>bandicam 2025-06-02 00-01-10-144</name>
						<rate>
							<timebase>60</timebase>
							<ntsc>TRUE</ntsc>
						</rate>
						<rate>
							<timebase>60</timebase>
							<ntsc>TRUE</ntsc>
						</rate>
						<duration>30</duration>
						<start>3060</start>
						<end>3090</end>
						<in>3072</in>
						<out>3102</out>
					</clipitem>
					<clipitem frameBlend="FALSE" id="clipitem-531">
						<file id="file-1"/>
						<name>bandicam 2025-06-02 00-01-10-144</name>
						<rate>
							<timebase>60</timebase>
							<ntsc>TRUE</ntsc>
						</rate>
						<rate>
							<timebase>60</timebase>
							<ntsc>TRUE</ntsc>
						</rate>
						<duration>24</duration>
						<start>3102</start>
						<end>3126</end>
						<in>3270</in>
						<out>3294</out>
					</clipitem>
					<clipitem frameBlend="FALSE" id="clipitem-532">
						<file id="file-1"/>
						<name>bandicam 2025-06-02 00-01-10-144</name>
						<rate>
							<timebase>60</timebase>
							<ntsc>TRUE</ntsc>
						</rate>
						<rate>
							<timebase>60</timebase>
							<ntsc>TRUE</ntsc>
						</rate>
						<duration>18</duration>
						<start>3294</start>
						<end>3312</end>
						<in>3456</in>
						<out>3474</out>
					</clipitem>
					<clipitem frameBlend="FALSE" id="clipitem-533">
						<file id="file-1"/>
						<name>bandicam 2025-06-02 00-01-10-144</name>
						<rate>
							<timebase>60</timebase>
							<ntsc>TRUE</ntsc>
						</rate>
						<rate>
							<timebase>60</timebase>
							<ntsc>TRUE</ntsc>
						</rate>
						<duration>18</duration>
						<start>3474</start>
						<end>3492</end>
						<in>3624</in>
						<out>3642</out>
					</clipitem>
					<clipitem frameBlend="FALSE" id="clipitem-534">
						<file id="file-1"/>
						<name>bandicam 2025-06-02 00-01-10-144</name>
						<rate>
							<timebase>60</timebase>
							<ntsc>TRUE</ntsc>
						</rate>
						<rate>
							<timebase>60</timebase>
							<ntsc>TRUE</ntsc>
						</rate>
						<duration>6</duration>
						<start>3642</start>
						<end>3648</end>
						<in>4086</in>
						<out>4092</out>
					</clipitem>
					<clipitem frameBlend="FALSE" id="clipitem-535">
						<file id="file-1"/>
						<name>bandicam 2025-06-02 00-01-10-144</name>
						<rate>
							<timebase>60</timebase>
							<ntsc>TRUE</ntsc>
						</rate>
						<rate>
							<timebase>60</timebase>
							<ntsc>TRUE</ntsc>
						</rate>
						<duration>6</duration>
						<start>4092</start>
						<end>4098</end>
						<in>4104</in>
						<out>4110</out>
					</clipitem>
					<clipitem frameBlend="FALSE" id="clipitem-536">
						<file id="file-1"/>
						<name>bandicam 2025-06-02 00-01-10-144</name>
						<rate>
							<timebase>60</timebase>
							<ntsc>TRUE</ntsc>
						</rate>
						<rate>
							<timebase>60</timebase>
							<ntsc>TRUE</ntsc>
						</rate>
						<duration>0</duration>
						<start>4110</start>
						<end>4110</end>
						<in>4134</in>
						<out>4134</out>
					</clipitem>
					<clipitem frameBlend="FALSE" id="clipitem-537">
						<file id="file-1"/>
						<name>bandicam 2025-06-02 00-01-10-144</name>
						<rate>
							<timebase>60</timebase>
							<ntsc>TRUE</ntsc>
						</rate>
						<rate>
							<timebase>60</timebase>
							<ntsc>TRUE</ntsc>
						</rate>
						<duration>6</duration>
						<start>4134</start>
						<end>4140</end>
						<in>4188</in>
						<out>4194</out>
					</clipitem>
					<clipitem frameBlend="FALSE" id="clipitem-538">
						<file id="file-1"/>
						<name>bandicam 2025-06-02 00-01-10-144</name>
						<rate>
							<timebase>60</timebase>
							<ntsc>TRUE</ntsc>
						</rate>
						<rate>
							<timebase>60</timebase>
							<ntsc>TRUE</ntsc>
						</rate>
						<duration>0</duration>
						<start>4194</start>
						<end>4194</end>
						<in>4230</in>
						<out>4230</out>
					</clipitem>
					<clipitem frameBlend="FALSE" id="clipitem-539">
						<file id="file-1"/>
						<name>bandicam 2025-06-02 00-01-10-144</name>
						<rate>
							<timebase>60</timebase>
							<ntsc>TRUE</ntsc>
						</rate>
						<rate>
							<timebase>60</timebase>
							<ntsc>TRUE</ntsc>
						</rate>
						<duration>6</duration>
						<start>4230</start>
						<end>4236</end>
						<in>4242</in>
						<out>4248</out>
					</clipitem>
					<clipitem frameBlend="FALSE" id="clipitem-540">
						<file id="file-1"/>
						<name>bandicam 2025-06-02 00-01-10-144</name>
						<rate>
							<timebase>60</timebase>
							<ntsc>TRUE</ntsc>
						</rate>
						<rate>
							<timebase>60</timebase>
							<ntsc>TRUE</ntsc>
						</rate>
						<duration>66</duration>
						<start>4248</start>
						<end>4314</end>
						<in>4302</in>
						<out>4368</out>
					</clipitem>
					<clipitem frameBlend="FALSE" id="clipitem-541">
						<file id="file-1"/>
						<name>bandicam 2025-06-02 00-01-10-144</name>
						<rate>
							<timebase>60</timebase>
							<ntsc>TRUE</ntsc>
						</rate>
						<rate>
							<timebase>60</timebase>
							<ntsc>TRUE</ntsc>
						</rate>
						<duration>42</duration>
						<start>4368</start>
						<end>4410</end>
						<in>4392</in>
						<out>4434</out>
					</clipitem>
					<clipitem frameBlend="FALSE" id="clipitem-542">
						<file id="file-1"/>
						<name>bandicam 2025-06-02 00-01-10-144</name>
						<rate>
							<timebase>60</timebase>
							<ntsc>TRUE</ntsc>
						</rate>
						<rate>
							<timebase>60</timebase>
							<ntsc>TRUE</ntsc>
						</rate>
						<duration>18</duration>
						<start>4434</start>
						<end>4452</end>
						<in>4506</in>
						<out>4524</out>
					</clipitem>
					<clipitem frameBlend="FALSE" id="clipitem-543">
						<file id="file-1"/>
						<name>bandicam 2025-06-02 00-01-10-144</name>
						<rate>
							<timebase>60</timebase>
							<ntsc>TRUE</ntsc>
						</rate>
						<rate>
							<timebase>60</timebase>
							<ntsc>TRUE</ntsc>
						</rate>
						<duration>12</duration>
						<start>4524</start>
						<end>4536</end>
						<in>4542</in>
						<out>4554</out>
					</clipitem>
					<clipitem frameBlend="FALSE" id="clipitem-544">
						<file id="file-1"/>
						<name>bandicam 2025-06-02 00-01-10-144</name>
						<rate>
							<timebase>60</timebase>
							<ntsc>TRUE</ntsc>
						</rate>
						<rate>
							<timebase>60</timebase>
							<ntsc>TRUE</ntsc>
						</rate>
						<duration>24</duration>
						<start>4554</start>
						<end>4578</end>
						<in>4602</in>
						<out>4626</out>
					</clipitem>
					<clipitem frameBlend="FALSE" id="clipitem-545">
						<file id="file-1"/>
						<name>bandicam 2025-06-02 00-01-10-144</name>
						<rate>
							<timebase>60</timebase>
							<ntsc>TRUE</ntsc>
						</rate>
						<rate>
							<timebase>60</timebase>
							<ntsc>TRUE</ntsc>
						</rate>
						<duration>0</duration>
						<start>4626</start>
						<end>4626</end>
						<in>4704</in>
						<out>4704</out>
					</clipitem>
					<clipitem frameBlend="FALSE" id="clipitem-546">
						<file id="file-1"/>
						<name>bandicam 2025-06-02 00-01-10-144</name>
						<rate>
							<timebase>60</timebase>
							<ntsc>TRUE</ntsc>
						</rate>
						<rate>
							<timebase>60</timebase>
							<ntsc>TRUE</ntsc>
						</rate>
						<duration>48</duration>
						<start>4704</start>
						<end>4752</end>
						<in>4722</in>
						<out>4770</out>
					</clipitem>
					<clipitem frameBlend="FALSE" id="clipitem-547">
						<file id="file-1"/>
						<name>bandicam 2025-06-02 00-01-10-144</name>
						<rate>
							<timebase>60</timebase>
							<ntsc>TRUE</ntsc>
						</rate>
						<rate>
							<timebase>60</timebase>
							<ntsc>TRUE</ntsc>
						</rate>
						<duration>6</duration>
						<start>4770</start>
						<end>4776</end>
						<in>4860</in>
						<out>4866</out>
					</clipitem>
					<clipitem frameBlend="FALSE" id="clipitem-548">
						<file id="file-1"/>
						<name>bandicam 2025-06-02 00-01-10-144</name>
						<rate>
							<timebase>60</timebase>
							<ntsc>TRUE</ntsc>
						</rate>
						<rate>
							<timebase>60</timebase>
							<ntsc>TRUE</ntsc>
						</rate>
						<duration>6</duration>
						<start>4866</start>
						<end>4872</end>
						<in>4968</in>
						<out>4974</out>
					</clipitem>
					<clipitem frameBlend="FALSE" id="clipitem-549">
						<file id="file-1"/>
						<name>bandicam 2025-06-02 00-01-10-144</name>
						<rate>
							<timebase>60</timebase>
							<ntsc>TRUE</ntsc>
						</rate>
						<rate>
							<timebase>60</timebase>
							<ntsc>TRUE</ntsc>
						</rate>
						<duration>6</duration>
						<start>4974</start>
						<end>4980</end>
						<in>5112</in>
						<out>5118</out>
					</clipitem>
					<clipitem frameBlend="FALSE" id="clipitem-550">
						<file id="file-1"/>
						<name>bandicam 2025-06-02 00-01-10-144</name>
						<rate>
							<timebase>60</timebase>
							<ntsc>TRUE</ntsc>
						</rate>
						<rate>
							<timebase>60</timebase>
							<ntsc>TRUE</ntsc>
						</rate>
						<duration>6</duration>
						<start>5118</start>
						<end>5124</end>
						<in>5142</in>
						<out>5148</out>
					</clipitem>
					<clipitem frameBlend="FALSE" id="clipitem-551">
						<file id="file-1"/>
						<name>bandicam 2025-06-02 00-01-10-144</name>
						<rate>
							<timebase>60</timebase>
							<ntsc>TRUE</ntsc>
						</rate>
						<rate>
							<timebase>60</timebase>
							<ntsc>TRUE</ntsc>
						</rate>
						<duration>18</duration>
						<start>5148</start>
						<end>5166</end>
						<in>5160</in>
						<out>5178</out>
					</clipitem>
					<clipitem frameBlend="FALSE" id="clipitem-552">
						<file id="file-1"/>
						<name>bandicam 2025-06-02 00-01-10-144</name>
						<rate>
							<timebase>60</timebase>
							<ntsc>TRUE</ntsc>
						</rate>
						<rate>
							<timebase>60</timebase>
							<ntsc>TRUE</ntsc>
						</rate>
						<duration>12</duration>
						<start>5178</start>
						<end>5190</end>
						<in>5328</in>
						<out>5340</out>
					</clipitem>
					<clipitem frameBlend="FALSE" id="clipitem-553">
						<file id="file-1"/>
						<name>bandicam 2025-06-02 00-01-10-144</name>
						<rate>
							<timebase>60</timebase>
							<ntsc>TRUE</ntsc>
						</rate>
						<rate>
							<timebase>60</timebase>
							<ntsc>TRUE</ntsc>
						</rate>
						<duration>12</duration>
						<start>5340</start>
						<end>5352</end>
						<in>5412</in>
						<out>5424</out>
					</clipitem>
					<clipitem frameBlend="FALSE" id="clipitem-554">
						<file id="file-1"/>
						<name>bandicam 2025-06-02 00-01-10-144</name>
						<rate>
							<timebase>60</timebase>
							<ntsc>TRUE</ntsc>
						</rate>
						<rate>
							<timebase>60</timebase>
							<ntsc>TRUE</ntsc>
						</rate>
						<duration>0</duration>
						<start>5424</start>
						<end>5424</end>
						<in>5448</in>
						<out>5448</out>
					</clipitem>
					<clipitem frameBlend="FALSE" id="clipitem-555">
						<file id="file-1"/>
						<name>bandicam 2025-06-02 00-01-10-144</name>
						<rate>
							<timebase>60</timebase>
							<ntsc>TRUE</ntsc>
						</rate>
						<rate>
							<timebase>60</timebase>
							<ntsc>TRUE</ntsc>
						</rate>
						<duration>0</duration>
						<start>5448</start>
						<end>5448</end>
						<in>5592</in>
						<out>5592</out>
					</clipitem>
					<clipitem frameBlend="FALSE" id="clipitem-556">
						<file id="file-1"/>
						<name>bandicam 2025-06-02 00-01-10-144</name>
						<rate>
							<timebase>60</timebase>
							<ntsc>TRUE</ntsc>
						</rate>
						<rate>
							<timebase>60</timebase>
							<ntsc>TRUE</ntsc>
						</rate>
						<duration>18</duration>
						<start>5592</start>
						<end>5610</end>
						<in>5670</in>
						<out>5688</out>
					</clipitem>
					<clipitem frameBlend="FALSE" id="clipitem-557">
						<file id="file-1"/>
						<name>bandicam 2025-06-02 00-01-10-144</name>
						<rate>
							<timebase>60</timebase>
							<ntsc>TRUE</ntsc>
						</rate>
						<rate>
							<timebase>60</timebase>
							<ntsc>TRUE</ntsc>
						</rate>
						<duration>18</duration>
						<start>5688</start>
						<end>5706</end>
						<in>5760</in>
						<out>5778</out>
					</clipitem>
					<clipitem frameBlend="FALSE" id="clipitem-558">
						<file id="file-1"/>
						<name>bandicam 2025-06-02 00-01-10-144</name>
						<rate>
							<timebase>60</timebase>
							<ntsc>TRUE</ntsc>
						</rate>
						<rate>
							<timebase>60</timebase>
							<ntsc>TRUE</ntsc>
						</rate>
						<duration>72</duration>
						<start>5778</start>
						<end>5850</end>
						<in>5802</in>
						<out>5874</out>
					</clipitem>
					<clipitem frameBlend="FALSE" id="clipitem-559">
						<file id="file-1"/>
						<name>bandicam 2025-06-02 00-01-10-144</name>
						<rate>
							<timebase>60</timebase>
							<ntsc>TRUE</ntsc>
						</rate>
						<rate>
							<timebase>60</timebase>
							<ntsc>TRUE</ntsc>
						</rate>
						<duration>48</duration>
						<start>5874</start>
						<end>5922</end>
						<in>5910</in>
						<out>5958</out>
					</clipitem>
					<clipitem frameBlend="FALSE" id="clipitem-560">
						<file id="file-1"/>
						<name>bandicam 2025-06-02 00-01-10-144</name>
						<rate>
							<timebase>60</timebase>
							<ntsc>TRUE</ntsc>
						</rate>
						<rate>
							<timebase>60</timebase>
							<ntsc>TRUE</ntsc>
						</rate>
						<duration>0</duration>
						<start>5958</start>
						<end>5958</end>
						<in>6000</in>
						<out>6000</out>
					</clipitem>
					<clipitem frameBlend="FALSE" id="clipitem-561">
						<file id="file-1"/>
						<name>bandicam 2025-06-02 00-01-10-144</name>
						<rate>
							<timebase>60</timebase>
							<ntsc>TRUE</ntsc>
						</rate>
						<rate>
							<timebase>60</timebase>
							<ntsc>TRUE</ntsc>
						</rate>
						<duration>24</duration>
						<start>6000</start>
						<end>6024</end>
						<in>6012</in>
						<out>6036</out>
					</clipitem>
					<clipitem frameBlend="FALSE" id="clipitem-562">
						<file id="file-1"/>
						<name>bandicam 2025-06-02 00-01-10-144</name>
						<rate>
							<timebase>60</timebase>
							<ntsc>TRUE</ntsc>
						</rate>
						<rate>
							<timebase>60</timebase>
							<ntsc>TRUE</ntsc>
						</rate>
						<duration>24</duration>
						<start>6036</start>
						<end>6060</end>
						<in>6156</in>
						<out>6180</out>
					</clipitem>
					<clipitem frameBlend="FALSE" id="clipitem-563">
						<file id="file-1"/>
						<name>bandicam 2025-06-02 00-01-10-144</name>
						<rate>
							<timebase>60</timebase>
							<ntsc>TRUE</ntsc>
						</rate>
						<rate>
							<timebase>60</timebase>
							<ntsc>TRUE</ntsc>
						</rate>
						<duration>6</duration>
						<start>6180</start>
						<end>6186</end>
						<in>6234</in>
						<out>6240</out>
					</clipitem>
					<clipitem frameBlend="FALSE" id="clipitem-564">
						<file id="file-1"/>
						<name>bandicam 2025-06-02 00-01-10-144</name>
						<rate>
							<timebase>60</timebase>
							<ntsc>TRUE</ntsc>
						</rate>
						<rate>
							<timebase>60</timebase>
							<ntsc>TRUE</ntsc>
						</rate>
						<duration>0</duration>
						<start>6240</start>
						<end>6240</end>
						<in>6252</in>
						<out>6252</out>
					</clipitem>
					<clipitem frameBlend="FALSE" id="clipitem-565">
						<file id="file-1"/>
						<name>bandicam 2025-06-02 00-01-10-144</name>
						<rate>
							<timebase>60</timebase>
							<ntsc>TRUE</ntsc>
						</rate>
						<rate>
							<timebase>60</timebase>
							<ntsc>TRUE</ntsc>
						</rate>
						<duration>24</duration>
						<start>6252</start>
						<end>6276</end>
						<in>6498</in>
						<out>6522</out>
					</clipitem>
					<clipitem frameBlend="FALSE" id="clipitem-566">
						<file id="file-1"/>
						<name>bandicam 2025-06-02 00-01-10-144</name>
						<rate>
							<timebase>60</timebase>
							<ntsc>TRUE</ntsc>
						</rate>
						<rate>
							<timebase>60</timebase>
							<ntsc>TRUE</ntsc>
						</rate>
						<duration>0</duration>
						<start>6522</start>
						<end>6522</end>
						<in>6894</in>
						<out>6894</out>
					</clipitem>
					<clipitem frameBlend="FALSE" id="clipitem-567">
						<file id="file-1"/>
						<name>bandicam 2025-06-02 00-01-10-144</name>
						<rate>
							<timebase>60</timebase>
							<ntsc>TRUE</ntsc>
						</rate>
						<rate>
							<timebase>60</timebase>
							<ntsc>TRUE</ntsc>
						</rate>
						<duration>0</duration>
						<start>6894</start>
						<end>6894</end>
						<in>6954</in>
						<out>6954</out>
					</clipitem>
					<clipitem frameBlend="FALSE" id="clipitem-568">
						<file id="file-1"/>
						<name>bandicam 2025-06-02 00-01-10-144</name>
						<rate>
							<timebase>60</timebase>
							<ntsc>TRUE</ntsc>
						</rate>
						<rate>
							<timebase>60</timebase>
							<ntsc>TRUE</ntsc>
						</rate>
						<duration>18</duration>
						<start>6954</start>
						<end>6972</end>
						<in>12</in>
						<out>30</out>
					</clipitem>
					<clipitem frameBlend="FALSE" id="clipitem-569">
						<file id="file-1"/>
						<name>bandicam 2025-06-02 00-01-10-144</name>
						<rate>
							<timebase>60</timebase>
							<ntsc>TRUE</ntsc>
						</rate>
						<rate>
							<timebase>60</timebase>
							<ntsc>TRUE</ntsc>
						</rate>
						<duration>36</duration>
						<start>30</start>
						<end>66</end>
						<in>54</in>
						<out>90</out>
					</clipitem>
					<clipitem frameBlend="FALSE" id="clipitem-570">
						<file id="file-1"/>
						<name>bandicam 2025-06-02 00-01-10-144</name>
						<rate>
							<timebase>60</timebase>
							<ntsc>TRUE</ntsc>
						</rate>
						<rate>
							<timebase>60</timebase>
							<ntsc>TRUE</ntsc>
						</rate>
						<duration>18</duration>
						<start>90</start>
						<end>108</end>
						<in>108</in>
						<out>126</out>
					</clipitem>
					<clipitem frameBlend="FALSE" id="clipitem-571">
						<file id="file-1"/>
						<name>bandicam 2025-06-02 00-01-10-144</name>
						<rate>
							<timebase>60</timebase>
							<ntsc>TRUE</ntsc>
						</rate>
						<rate>
							<timebase>60</timebase>
							<ntsc>TRUE</ntsc>
						</rate>
						<duration>18</duration>
						<start>126</start>
						<end>144</end>
						<in>174</in>
						<out>192</out>
					</clipitem>
					<clipitem frameBlend="FALSE" id="clipitem-572">
						<file id="file-1"/>
						<name>bandicam 2025-06-02 00-01-10-144</name>
						<rate>
							<timebase>60</timebase>
							<ntsc>TRUE</ntsc>
						</rate>
						<rate>
							<timebase>60</timebase>
							<ntsc>TRUE</ntsc>
						</rate>
						<duration>0</duration>
						<start>192</start>
						<end>192</end>
						<in>300</in>
						<out>300</out>
					</clipitem>
					<clipitem frameBlend="FALSE" id="clipitem-573">
						<file id="file-1"/>
						<name>bandicam 2025-06-02 00-01-10-144</name>
						<rate>
							<timebase>60</timebase>
							<ntsc>TRUE</ntsc>
						</rate>
						<rate>
							<timebase>60</timebase>
							<ntsc>TRUE</ntsc>
						</rate>
						<duration>18</duration>
						<start>300</start>
						<end>318</end>
						<in>360</in>
						<out>378</out>
					</clipitem>
					<clipitem frameBlend="FALSE" id="clipitem-574">
						<file id="file-1"/>
						<name>bandicam 2025-06-02 00-01-10-144</name>
						<rate>
							<timebase>60</timebase>
							<ntsc>TRUE</ntsc>
						</rate>
						<rate>
							<timebase>60</timebase>
							<ntsc>TRUE</ntsc>
						</rate>
						<duration>0</duration>
						<start>378</start>
						<end>378</end>
						<in>438</in>
						<out>438</out>
					</clipitem>
					<clipitem frameBlend="FALSE" id="clipitem-575">
						<file id="file-1"/>
						<name>bandicam 2025-06-02 00-01-10-144</name>
						<rate>
							<timebase>60</timebase>
							<ntsc>TRUE</ntsc>
						</rate>
						<rate>
							<timebase>60</timebase>
							<ntsc>TRUE</ntsc>
						</rate>
						<duration>42</duration>
						<start>438</start>
						<end>480</end>
						<in>450</in>
						<out>492</out>
					</clipitem>
					<clipitem frameBlend="FALSE" id="clipitem-576">
						<file id="file-1"/>
						<name>bandicam 2025-06-02 00-01-10-144</name>
						<rate>
							<timebase>60</timebase>
							<ntsc>TRUE</ntsc>
						</rate>
						<rate>
							<timebase>60</timebase>
							<ntsc>TRUE</ntsc>
						</rate>
						<duration>0</duration>
						<start>492</start>
						<end>492</end>
						<in>504</in>
						<out>504</out>
					</clipitem>
					<clipitem frameBlend="FALSE" id="clipitem-577">
						<file id="file-1"/>
						<name>bandicam 2025-06-02 00-01-10-144</name>
						<rate>
							<timebase>60</timebase>
							<ntsc>TRUE</ntsc>
						</rate>
						<rate>
							<timebase>60</timebase>
							<ntsc>TRUE</ntsc>
						</rate>
						<duration>18</duration>
						<start>504</start>
						<end>522</end>
						<in>528</in>
						<out>546</out>
					</clipitem>
					<clipitem frameBlend="FALSE" id="clipitem-578">
						<file id="file-1"/>
						<name>bandicam 2025-06-02 00-01-10-144</name>
						<rate>
							<timebase>60</timebase>
							<ntsc>TRUE</ntsc>
						</rate>
						<rate>
							<timebase>60</timebase>
							<ntsc>TRUE</ntsc>
						</rate>
						<duration>24</duration>
						<start>546</start>
						<end>570</end>
						<in>582</in>
						<out>606</out>
					</clipitem>
					<clipitem frameBlend="FALSE" id="clipitem-579">
						<file id="file-1"/>
						<name>bandicam 2025-06-02 00-01-10-144</name>
						<rate>
							<timebase>60</timebase>
							<ntsc>TRUE</ntsc>
						</rate>
						<rate>
							<timebase>60</timebase>
							<ntsc>TRUE</ntsc>
						</rate>
						<duration>18</duration>
						<start>606</start>
						<end>624</end>
						<in>624</in>
						<out>642</out>
					</clipitem>
					<clipitem frameBlend="FALSE" id="clipitem-580">
						<file id="file-1"/>
						<name>bandicam 2025-06-02 00-01-10-144</name>
						<rate>
							<timebase>60</timebase>
							<ntsc>TRUE</ntsc>
						</rate>
						<rate>
							<timebase>60</timebase>
							<ntsc>TRUE</ntsc>
						</rate>
						<duration>0</duration>
						<start>642</start>
						<end>642</end>
						<in>852</in>
						<out>852</out>
					</clipitem>
					<clipitem frameBlend="FALSE" id="clipitem-581">
						<file id="file-1"/>
						<name>bandicam 2025-06-02 00-01-10-144</name>
						<rate>
							<timebase>60</timebase>
							<ntsc>TRUE</ntsc>
						</rate>
						<rate>
							<timebase>60</timebase>
							<ntsc>TRUE</ntsc>
						</rate>
						<duration>0</duration>
						<start>852</start>
						<end>852</end>
						<in>912</in>
						<out>912</out>
					</clipitem>
					<clipitem frameBlend="FALSE" id="clipitem-582">
						<file id="file-1"/>
						<name>bandicam 2025-06-02 00-01-10-144</name>
						<rate>
							<timebase>60</timebase>
							<ntsc>TRUE</ntsc>
						</rate>
						<rate>
							<timebase>60</timebase>
							<ntsc>TRUE</ntsc>
						</rate>
						<duration>0</duration>
						<start>912</start>
						<end>912</end>
						<in>936</in>
						<out>936</out>
					</clipitem>
					<clipitem frameBlend="FALSE" id="clipitem-583">
						<file id="file-1"/>
						<name>bandicam 2025-06-02 00-01-10-144</name>
						<rate>
							<timebase>60</timebase>
							<ntsc>TRUE</ntsc>
						</rate>
						<rate>
							<timebase>60</timebase>
							<ntsc>TRUE</ntsc>
						</rate>
						<duration>0</duration>
						<start>936</start>
						<end>936</end>
						<in>954</in>
						<out>954</out>
					</clipitem>
					<clipitem frameBlend="FALSE" id="clipitem-584">
						<file id="file-1"/>
						<name>bandicam 2025-06-02 00-01-10-144</name>
						<rate>
							<timebase>60</timebase>
							<ntsc>TRUE</ntsc>
						</rate>
						<rate>
							<timebase>60</timebase>
							<ntsc>TRUE</ntsc>
						</rate>
						<duration>12</duration>
						<start>954</start>
						<end>966</end>
						<in>984</in>
						<out>996</out>
					</clipitem>
					<clipitem frameBlend="FALSE" id="clipitem-585">
						<file id="file-1"/>
						<name>bandicam 2025-06-02 00-01-10-144</name>
						<rate>
							<timebase>60</timebase>
							<ntsc>TRUE</ntsc>
						</rate>
						<rate>
							<timebase>60</timebase>
							<ntsc>TRUE</ntsc>
						</rate>
						<duration>12</duration>
						<start>996</start>
						<end>1008</end>
						<in>1086</in>
						<out>1098</out>
					</clipitem>
					<clipitem frameBlend="FALSE" id="clipitem-586">
						<file id="file-1"/>
						<name>bandicam 2025-06-02 00-01-10-144</name>
						<rate>
							<timebase>60</timebase>
							<ntsc>TRUE</ntsc>
						</rate>
						<rate>
							<timebase>60</timebase>
							<ntsc>TRUE</ntsc>
						</rate>
						<duration>0</duration>
						<start>1098</start>
						<end>1098</end>
						<in>1194</in>
						<out>1194</out>
					</clipitem>
					<clipitem frameBlend="FALSE" id="clipitem-587">
						<file id="file-1"/>
						<name>bandicam 2025-06-02 00-01-10-144</name>
						<rate>
							<timebase>60</timebase>
							<ntsc>TRUE</ntsc>
						</rate>
						<rate>
							<timebase>60</timebase>
							<ntsc>TRUE</ntsc>
						</rate>
						<duration>18</duration>
						<start>1194</start>
						<end>1212</end>
						<in>1206</in>
						<out>1224</out>
					</clipitem>
					<clipitem frameBlend="FALSE" id="clipitem-588">
						<file id="file-1"/>
						<name>bandicam 2025-06-02 00-01-10-144</name>
						<rate>
							<timebase>60</timebase>
							<ntsc>TRUE</ntsc>
						</rate>
						<rate>
							<timebase>60</timebase>
							<ntsc>TRUE</ntsc>
						</rate>
						<duration>0</duration>
						<start>1224</start>
						<end>1224</end>
						<in>1320</in>
						<out>1320</out>
					</clipitem>
					<clipitem frameBlend="FALSE" id="clipitem-589">
						<file id="file-1"/>
						<name>bandicam 2025-06-02 00-01-10-144</name>
						<rate>
							<timebase>60</timebase>
							<ntsc>TRUE</ntsc>
						</rate>
						<rate>
							<timebase>60</timebase>
							<ntsc>TRUE</ntsc>
						</rate>
						<duration>12</duration>
						<start>1320</start>
						<end>1332</end>
						<in>1374</in>
						<out>1386</out>
					</clipitem>
					<clipitem frameBlend="FALSE" id="clipitem-590">
						<file id="file-1"/>
						<name>bandicam 2025-06-02 00-01-10-144</name>
						<rate>
							<timebase>60</timebase>
							<ntsc>TRUE</ntsc>
						</rate>
						<rate>
							<timebase>60</timebase>
							<ntsc>TRUE</ntsc>
						</rate>
						<duration>24</duration>
						<start>1386</start>
						<end>1410</end>
						<in>1398</in>
						<out>1422</out>
					</clipitem>
					<clipitem frameBlend="FALSE" id="clipitem-591">
						<file id="file-1"/>
						<name>bandicam 2025-06-02 00-01-10-144</name>
						<rate>
							<timebase>60</timebase>
							<ntsc>TRUE</ntsc>
						</rate>
						<rate>
							<timebase>60</timebase>
							<ntsc>TRUE</ntsc>
						</rate>
						<duration>18</duration>
						<start>1422</start>
						<end>1440</end>
						<in>1446</in>
						<out>1464</out>
					</clipitem>
					<clipitem frameBlend="FALSE" id="clipitem-592">
						<file id="file-1"/>
						<name>bandicam 2025-06-02 00-01-10-144</name>
						<rate>
							<timebase>60</timebase>
							<ntsc>TRUE</ntsc>
						</rate>
						<rate>
							<timebase>60</timebase>
							<ntsc>TRUE</ntsc>
						</rate>
						<duration>18</duration>
						<start>1464</start>
						<end>1482</end>
						<in>1566</in>
						<out>1584</out>
					</clipitem>
					<clipitem frameBlend="FALSE" id="clipitem-593">
						<file id="file-1"/>
						<name>bandicam 2025-06-02 00-01-10-144</name>
						<rate>
							<timebase>60</timebase>
							<ntsc>TRUE</ntsc>
						</rate>
						<rate>
							<timebase>60</timebase>
							<ntsc>TRUE</ntsc>
						</rate>
						<duration>36</duration>
						<start>1584</start>
						<end>1620</end>
						<in>1692</in>
						<out>1728</out>
					</clipitem>
					<clipitem frameBlend="FALSE" id="clipitem-594">
						<file id="file-1"/>
						<name>bandicam 2025-06-02 00-01-10-144</name>
						<rate>
							<timebase>60</timebase>
							<ntsc>TRUE</ntsc>
						</rate>
						<rate>
							<timebase>60</timebase>
							<ntsc>TRUE</ntsc>
						</rate>
						<duration>36</duration>
						<start>1728</start>
						<end>1764</end>
						<in>1746</in>
						<out>1782</out>
					</clipitem>
					<clipitem frameBlend="FALSE" id="clipitem-595">
						<file id="file-1"/>
						<name>bandicam 2025-06-02 00-01-10-144</name>
						<rate>
							<timebase>60</timebase>
							<ntsc>TRUE</ntsc>
						</rate>
						<rate>
							<timebase>60</timebase>
							<ntsc>TRUE</ntsc>
						</rate>
						<duration>24</duration>
						<start>1782</start>
						<end>1806</end>
						<in>1806</in>
						<out>1830</out>
					</clipitem>
					<clipitem frameBlend="FALSE" id="clipitem-596">
						<file id="file-1"/>
						<name>bandicam 2025-06-02 00-01-10-144</name>
						<rate>
							<timebase>60</timebase>
							<ntsc>TRUE</ntsc>
						</rate>
						<rate>
							<timebase>60</timebase>
							<ntsc>TRUE</ntsc>
						</rate>
						<duration>12</duration>
						<start>1830</start>
						<end>1842</end>
						<in>1842</in>
						<out>1854</out>
					</clipitem>
					<clipitem frameBlend="FALSE" id="clipitem-597">
						<file id="file-1"/>
						<name>bandicam 2025-06-02 00-01-10-144</name>
						<rate>
							<timebase>60</timebase>
							<ntsc>TRUE</ntsc>
						</rate>
						<rate>
							<timebase>60</timebase>
							<ntsc>TRUE</ntsc>
						</rate>
						<duration>0</duration>
						<start>1854</start>
						<end>1854</end>
						<in>1872</in>
						<out>1872</out>
					</clipitem>
					<clipitem frameBlend="FALSE" id="clipitem-598">
						<file id="file-1"/>
						<name>bandicam 2025-06-02 00-01-10-144</name>
						<rate>
							<timebase>60</timebase>
							<ntsc>TRUE</ntsc>
						</rate>
						<rate>
							<timebase>60</timebase>
							<ntsc>TRUE</ntsc>
						</rate>
						<duration>12</duration>
						<start>1872</start>
						<end>1884</end>
						<in>1884</in>
						<out>1896</out>
					</clipitem>
					<clipitem frameBlend="FALSE" id="clipitem-599">
						<file id="file-1"/>
						<name>bandicam 2025-06-02 00-01-10-144</name>
						<rate>
							<timebase>60</timebase>
							<ntsc>TRUE</ntsc>
						</rate>
						<rate>
							<timebase>60</timebase>
							<ntsc>TRUE</ntsc>
						</rate>
						<duration>18</duration>
						<start>1896</start>
						<end>1914</end>
						<in>1926</in>
						<out>1944</out>
					</clipitem>
					<clipitem frameBlend="FALSE" id="clipitem-600">
						<file id="file-1"/>
						<name>bandicam 2025-06-02 00-01-10-144</name>
						<rate>
							<timebase>60</timebase>
							<ntsc>TRUE</ntsc>
						</rate>
						<rate>
							<timebase>60</timebase>
							<ntsc>TRUE</ntsc>
						</rate>
						<duration>18</duration>
						<start>1944</start>
						<end>1962</end>
						<in>2178</in>
						<out>2196</out>
					</clipitem>
					<clipitem frameBlend="FALSE" id="clipitem-601">
						<file id="file-1"/>
						<name>bandicam 2025-06-02 00-01-10-144</name>
						<rate>
							<timebase>60</timebase>
							<ntsc>TRUE</ntsc>
						</rate>
						<rate>
							<timebase>60</timebase>
							<ntsc>TRUE</ntsc>
						</rate>
						<duration>72</duration>
						<start>2196</start>
						<end>2268</end>
						<in>2280</in>
						<out>2352</out>
					</clipitem>
					<clipitem frameBlend="FALSE" id="clipitem-602">
						<file id="file-1"/>
						<name>bandicam 2025-06-02 00-01-10-144</name>
						<rate>
							<timebase>60</timebase>
							<ntsc>TRUE</ntsc>
						</rate>
						<rate>
							<timebase>60</timebase>
							<ntsc>TRUE</ntsc>
						</rate>
						<duration>12</duration>
						<start>2352</start>
						<end>2364</end>
						<in>2448</in>
						<out>2460</out>
					</clipitem>
					<clipitem frameBlend="FALSE" id="clipitem-603">
						<file id="file-1"/>
						<name>bandicam 2025-06-02 00-01-10-144</name>
						<rate>
							<timebase>60</timebase>
							<ntsc>TRUE</ntsc>
						</rate>
						<rate>
							<timebase>60</timebase>
							<ntsc>TRUE</ntsc>
						</rate>
						<duration>6</duration>
						<start>2460</start>
						<end>2466</end>
						<in>2478</in>
						<out>2484</out>
					</clipitem>
					<clipitem frameBlend="FALSE" id="clipitem-604">
						<file id="file-1"/>
						<name>bandicam 2025-06-02 00-01-10-144</name>
						<rate>
							<timebase>60</timebase>
							<ntsc>TRUE</ntsc>
						</rate>
						<rate>
							<timebase>60</timebase>
							<ntsc>TRUE</ntsc>
						</rate>
						<duration>6</duration>
						<start>2484</start>
						<end>2490</end>
						<in>2496</in>
						<out>2502</out>
					</clipitem>
					<clipitem frameBlend="FALSE" id="clipitem-605">
						<file id="file-1"/>
						<name>bandicam 2025-06-02 00-01-10-144</name>
						<rate>
							<timebase>60</timebase>
							<ntsc>TRUE</ntsc>
						</rate>
						<rate>
							<timebase>60</timebase>
							<ntsc>TRUE</ntsc>
						</rate>
						<duration>30</duration>
						<start>2502</start>
						<end>2532</end>
						<in>2538</in>
						<out>2568</out>
					</clipitem>
					<clipitem frameBlend="FALSE" id="clipitem-606">
						<file id="file-1"/>
						<name>bandicam 2025-06-02 00-01-10-144</name>
						<rate>
							<timebase>60</timebase>
							<ntsc>TRUE</ntsc>
						</rate>
						<rate>
							<timebase>60</timebase>
							<ntsc>TRUE</ntsc>
						</rate>
						<duration>36</duration>
						<start>2568</start>
						<end>2604</end>
						<in>2592</in>
						<out>2628</out>
					</clipitem>
					<clipitem frameBlend="FALSE" id="clipitem-607">
						<file id="file-1"/>
						<name>bandicam 2025-06-02 00-01-10-144</name>
						<rate>
							<timebase>60</timebase>
							<ntsc>TRUE</ntsc>
						</rate>
						<rate>
							<timebase>60</timebase>
							<ntsc>TRUE</ntsc>
						</rate>
						<duration>30</duration>
						<start>2628</start>
						<end>2658</end>
						<in>2640</in>
						<out>2670</out>
					</clipitem>
					<clipitem frameBlend="FALSE" id="clipitem-608">
						<file id="file-1"/>
						<name>bandicam 2025-06-02 00-01-10-144</name>
						<rate>
							<timebase>60</timebase>
							<ntsc>TRUE</ntsc>
						</rate>
						<rate>
							<timebase>60</timebase>
							<ntsc>TRUE</ntsc>
						</rate>
						<duration>120</duration>
						<start>2670</start>
						<end>2790</end>
						<in>2724</in>
						<out>2844</out>
					</clipitem>
					<clipitem frameBlend="FALSE" id="clipitem-609">
						<file id="file-1"/>
						<name>bandicam 2025-06-02 00-01-10-144</name>
						<rate>
							<timebase>60</timebase>
							<ntsc>TRUE</ntsc>
						</rate>
						<rate>
							<timebase>60</timebase>
							<ntsc>TRUE</ntsc>
						</rate>
						<duration>24</duration>
						<start>2844</start>
						<end>2868</end>
						<in>2868</in>
						<out>2892</out>
					</clipitem>
					<clipitem frameBlend="FALSE" id="clipitem-610">
						<file id="file-1"/>
						<name>bandicam 2025-06-02 00-01-10-144</name>
						<rate>
							<timebase>60</timebase>
							<ntsc>TRUE</ntsc>
						</rate>
						<rate>
							<timebase>60</timebase>
							<ntsc>TRUE</ntsc>
						</rate>
						<duration>6</duration>
						<start>2892</start>
						<end>2898</end>
						<in>2904</in>
						<out>2910</out>
					</clipitem>
					<clipitem frameBlend="FALSE" id="clipitem-611">
						<file id="file-1"/>
						<name>bandicam 2025-06-02 00-01-10-144</name>
						<rate>
							<timebase>60</timebase>
							<ntsc>TRUE</ntsc>
						</rate>
						<rate>
							<timebase>60</timebase>
							<ntsc>TRUE</ntsc>
						</rate>
						<duration>0</duration>
						<start>2910</start>
						<end>2910</end>
						<in>2946</in>
						<out>2946</out>
					</clipitem>
					<clipitem frameBlend="FALSE" id="clipitem-612">
						<file id="file-1"/>
						<name>bandicam 2025-06-02 00-01-10-144</name>
						<rate>
							<timebase>60</timebase>
							<ntsc>TRUE</ntsc>
						</rate>
						<rate>
							<timebase>60</timebase>
							<ntsc>TRUE</ntsc>
						</rate>
						<duration>18</duration>
						<start>2946</start>
						<end>2964</end>
						<in>2964</in>
						<out>2982</out>
					</clipitem>
					<clipitem frameBlend="FALSE" id="clipitem-613">
						<file id="file-1"/>
						<name>bandicam 2025-06-02 00-01-10-144</name>
						<rate>
							<timebase>60</timebase>
							<ntsc>TRUE</ntsc>
						</rate>
						<rate>
							<timebase>60</timebase>
							<ntsc>TRUE</ntsc>
						</rate>
						<duration>42</duration>
						<start>2982</start>
						<end>3024</end>
						<in>3060</in>
						<out>3102</out>
					</clipitem>
					<clipitem frameBlend="FALSE" id="clipitem-614">
						<file id="file-1"/>
						<name>bandicam 2025-06-02 00-01-10-144</name>
						<rate>
							<timebase>60</timebase>
							<ntsc>TRUE</ntsc>
						</rate>
						<rate>
							<timebase>60</timebase>
							<ntsc>TRUE</ntsc>
						</rate>
						<duration>18</duration>
						<start>3102</start>
						<end>3120</end>
						<in>3120</in>
						<out>3138</out>
					</clipitem>
					<clipitem frameBlend="FALSE" id="clipitem-615">
						<file id="file-1"/>
						<name>bandicam 2025-06-02 00-01-10-144</name>
						<rate>
							<timebase>60</timebase>
							<ntsc>TRUE</ntsc>
						</rate>
						<rate>
							<timebase>60</timebase>
							<ntsc>TRUE</ntsc>
						</rate>
						<duration>18</duration>
						<start>3138</start>
						<end>3156</end>
						<in>3228</in>
						<out>3246</out>
					</clipitem>
					<clipitem frameBlend="FALSE" id="clipitem-616">
						<file id="file-1"/>
						<name>bandicam 2025-06-02 00-01-10-144</name>
						<rate>
							<timebase>60</timebase>
							<ntsc>TRUE</ntsc>
						</rate>
						<rate>
							<timebase>60</timebase>
							<ntsc>TRUE</ntsc>
						</rate>
						<duration>36</duration>
						<start>3246</start>
						<end>3282</end>
						<in>3270</in>
						<out>3306</out>
					</clipitem>
					<clipitem frameBlend="FALSE" id="clipitem-617">
						<file id="file-1"/>
						<name>bandicam 2025-06-02 00-01-10-144</name>
						<rate>
							<timebase>60</timebase>
							<ntsc>TRUE</ntsc>
						</rate>
						<rate>
							<timebase>60</timebase>
							<ntsc>TRUE</ntsc>
						</rate>
						<duration>18</duration>
						<start>3306</start>
						<end>3324</end>
						<in>3372</in>
						<out>3390</out>
					</clipitem>
					<clipitem frameBlend="FALSE" id="clipitem-618">
						<file id="file-1"/>
						<name>bandicam 2025-06-02 00-01-10-144</name>
						<rate>
							<timebase>60</timebase>
							<ntsc>TRUE</ntsc>
						</rate>
						<rate>
							<timebase>60</timebase>
							<ntsc>TRUE</ntsc>
						</rate>
						<duration>24</duration>
						<start>3390</start>
						<end>3414</end>
						<in>3450</in>
						<out>3474</out>
					</clipitem>
					<clipitem frameBlend="FALSE" id="clipitem-619">
						<file id="file-1"/>
						<name>bandicam 2025-06-02 00-01-10-144</name>
						<rate>
							<timebase>60</timebase>
							<ntsc>TRUE</ntsc>
						</rate>
						<rate>
							<timebase>60</timebase>
							<ntsc>TRUE</ntsc>
						</rate>
						<duration>18</duration>
						<start>3474</start>
						<end>3492</end>
						<in>3498</in>
						<out>3516</out>
					</clipitem>
					<clipitem frameBlend="FALSE" id="clipitem-620">
						<file id="file-1"/>
						<name>bandicam 2025-06-02 00-01-10-144</name>
						<rate>
							<timebase>60</timebase>
							<ntsc>TRUE</ntsc>
						</rate>
						<rate>
							<timebase>60</timebase>
							<ntsc>TRUE</ntsc>
						</rate>
						<duration>0</duration>
						<start>3516</start>
						<end>3516</end>
						<in>3582</in>
						<out>3582</out>
					</clipitem>
					<clipitem frameBlend="FALSE" id="clipitem-621">
						<file id="file-1"/>
						<name>bandicam 2025-06-02 00-01-10-144</name>
						<rate>
							<timebase>60</timebase>
							<ntsc>TRUE</ntsc>
						</rate>
						<rate>
							<timebase>60</timebase>
							<ntsc>TRUE</ntsc>
						</rate>
						<duration>18</duration>
						<start>3582</start>
						<end>3600</end>
						<in>3624</in>
						<out>3642</out>
					</clipitem>
					<clipitem frameBlend="FALSE" id="clipitem-622">
						<file id="file-1"/>
						<name>bandicam 2025-06-02 00-01-10-144</name>
						<rate>
							<timebase>60</timebase>
							<ntsc>TRUE</ntsc>
						</rate>
						<rate>
							<timebase>60</timebase>
							<ntsc>TRUE</ntsc>
						</rate>
						<duration>0</duration>
						<start>3642</start>
						<end>3642</end>
						<in>3696</in>
						<out>3696</out>
					</clipitem>
					<clipitem frameBlend="FALSE" id="clipitem-623">
						<file id="file-1"/>
						<name>bandicam 2025-06-02 00-01-10-144</name>
						<rate>
							<timebase>60</timebase>
							<ntsc>TRUE</ntsc>
						</rate>
						<rate>
							<timebase>60</timebase>
							<ntsc>TRUE</ntsc>
						</rate>
						<duration>12</duration>
						<start>3696</start>
						<end>3708</end>
						<in>3768</in>
						<out>3780</out>
					</clipitem>
					<clipitem frameBlend="FALSE" id="clipitem-624">
						<file id="file-1"/>
						<name>bandicam 2025-06-02 00-01-10-144</name>
						<rate>
							<timebase>60</timebase>
							<ntsc>TRUE</ntsc>
						</rate>
						<rate>
							<timebase>60</timebase>
							<ntsc>TRUE</ntsc>
						</rate>
						<duration>18</duration>
						<start>3780</start>
						<end>3798</end>
						<in>3852</in>
						<out>3870</out>
					</clipitem>
					<clipitem frameBlend="FALSE" id="clipitem-625">
						<file id="file-1"/>
						<name>bandicam 2025-06-02 00-01-10-144</name>
						<rate>
							<timebase>60</timebase>
							<ntsc>TRUE</ntsc>
						</rate>
						<rate>
							<timebase>60</timebase>
							<ntsc>TRUE</ntsc>
						</rate>
						<duration>18</duration>
						<start>3870</start>
						<end>3888</end>
						<in>3906</in>
						<out>3924</out>
					</clipitem>
					<clipitem frameBlend="FALSE" id="clipitem-626">
						<file id="file-1"/>
						<name>bandicam 2025-06-02 00-01-10-144</name>
						<rate>
							<timebase>60</timebase>
							<ntsc>TRUE</ntsc>
						</rate>
						<rate>
							<timebase>60</timebase>
							<ntsc>TRUE</ntsc>
						</rate>
						<duration>6</duration>
						<start>3924</start>
						<end>3930</end>
						<in>4026</in>
						<out>4032</out>
					</clipitem>
					<clipitem frameBlend="FALSE" id="clipitem-627">
						<file id="file-1"/>
						<name>bandicam 2025-06-02 00-01-10-144</name>
						<rate>
							<timebase>60</timebase>
							<ntsc>TRUE</ntsc>
						</rate>
						<rate>
							<timebase>60</timebase>
							<ntsc>TRUE</ntsc>
						</rate>
						<duration>0</duration>
						<start>4032</start>
						<end>4032</end>
						<in>4044</in>
						<out>4044</out>
					</clipitem>
					<clipitem frameBlend="FALSE" id="clipitem-628">
						<file id="file-1"/>
						<name>bandicam 2025-06-02 00-01-10-144</name>
						<rate>
							<timebase>60</timebase>
							<ntsc>TRUE</ntsc>
						</rate>
						<rate>
							<timebase>60</timebase>
							<ntsc>TRUE</ntsc>
						</rate>
						<duration>72</duration>
						<start>4044</start>
						<end>4116</end>
						<in>4086</in>
						<out>4158</out>
					</clipitem>
					<clipitem frameBlend="FALSE" id="clipitem-629">
						<file id="file-1"/>
						<name>bandicam 2025-06-02 00-01-10-144</name>
						<rate>
							<timebase>60</timebase>
							<ntsc>TRUE</ntsc>
						</rate>
						<rate>
							<timebase>60</timebase>
							<ntsc>TRUE</ntsc>
						</rate>
						<duration>12</duration>
						<start>4158</start>
						<end>4170</end>
						<in>4188</in>
						<out>4200</out>
					</clipitem>
					<clipitem frameBlend="FALSE" id="clipitem-630">
						<file id="file-1"/>
						<name>bandicam 2025-06-02 00-01-10-144</name>
						<rate>
							<timebase>60</timebase>
							<ntsc>TRUE</ntsc>
						</rate>
						<rate>
							<timebase>60</timebase>
							<ntsc>TRUE</ntsc>
						</rate>
						<duration>42</duration>
						<start>4200</start>
						<end>4242</end>
						<in>4230</in>
						<out>4272</out>
					</clipitem>
					<clipitem frameBlend="FALSE" id="clipitem-631">
						<file id="file-1"/>
						<name>bandicam 2025-06-02 00-01-10-144</name>
						<rate>
							<timebase>60</timebase>
							<ntsc>TRUE</ntsc>
						</rate>
						<rate>
							<timebase>60</timebase>
							<ntsc>TRUE</ntsc>
						</rate>
						<duration>132</duration>
						<start>4272</start>
						<end>4404</end>
						<in>4302</in>
						<out>4434</out>
					</clipitem>
					<clipitem frameBlend="FALSE" id="clipitem-632">
						<file id="file-1"/>
						<name>bandicam 2025-06-02 00-01-10-144</name>
						<rate>
							<timebase>60</timebase>
							<ntsc>TRUE</ntsc>
						</rate>
						<rate>
							<timebase>60</timebase>
							<ntsc>TRUE</ntsc>
						</rate>
						<duration>12</duration>
						<start>4434</start>
						<end>4446</end>
						<in>4470</in>
						<out>4482</out>
					</clipitem>
					<clipitem frameBlend="FALSE" id="clipitem-633">
						<file id="file-1"/>
						<name>bandicam 2025-06-02 00-01-10-144</name>
						<rate>
							<timebase>60</timebase>
							<ntsc>TRUE</ntsc>
						</rate>
						<rate>
							<timebase>60</timebase>
							<ntsc>TRUE</ntsc>
						</rate>
						<duration>48</duration>
						<start>4482</start>
						<end>4530</end>
						<in>4506</in>
						<out>4554</out>
					</clipitem>
					<clipitem frameBlend="FALSE" id="clipitem-634">
						<file id="file-1"/>
						<name>bandicam 2025-06-02 00-01-10-144</name>
						<rate>
							<timebase>60</timebase>
							<ntsc>TRUE</ntsc>
						</rate>
						<rate>
							<timebase>60</timebase>
							<ntsc>TRUE</ntsc>
						</rate>
						<duration>30</duration>
						<start>4554</start>
						<end>4584</end>
						<in>4602</in>
						<out>4632</out>
					</clipitem>
					<clipitem frameBlend="FALSE" id="clipitem-635">
						<file id="file-1"/>
						<name>bandicam 2025-06-02 00-01-10-144</name>
						<rate>
							<timebase>60</timebase>
							<ntsc>TRUE</ntsc>
						</rate>
						<rate>
							<timebase>60</timebase>
							<ntsc>TRUE</ntsc>
						</rate>
						<duration>18</duration>
						<start>4632</start>
						<end>4650</end>
						<in>4650</in>
						<out>4668</out>
					</clipitem>
					<clipitem frameBlend="FALSE" id="clipitem-636">
						<file id="file-1"/>
						<name>bandicam 2025-06-02 00-01-10-144</name>
						<rate>
							<timebase>60</timebase>
							<ntsc>TRUE</ntsc>
						</rate>
						<rate>
							<timebase>60</timebase>
							<ntsc>TRUE</ntsc>
						</rate>
						<duration>0</duration>
						<start>4668</start>
						<end>4668</end>
						<in>4704</in>
						<out>4704</out>
					</clipitem>
					<clipitem frameBlend="FALSE" id="clipitem-637">
						<file id="file-1"/>
						<name>bandicam 2025-06-02 00-01-10-144</name>
						<rate>
							<timebase>60</timebase>
							<ntsc>TRUE</ntsc>
						</rate>
						<rate>
							<timebase>60</timebase>
							<ntsc>TRUE</ntsc>
						</rate>
						<duration>48</duration>
						<start>4704</start>
						<end>4752</end>
						<in>4722</in>
						<out>4770</out>
					</clipitem>
					<clipitem frameBlend="FALSE" id="clipitem-638">
						<file id="file-1"/>
						<name>bandicam 2025-06-02 00-01-10-144</name>
						<rate>
							<timebase>60</timebase>
							<ntsc>TRUE</ntsc>
						</rate>
						<rate>
							<timebase>60</timebase>
							<ntsc>TRUE</ntsc>
						</rate>
						<duration>18</duration>
						<start>4770</start>
						<end>4788</end>
						<in>4788</in>
						<out>4806</out>
					</clipitem>
					<clipitem frameBlend="FALSE" id="clipitem-639">
						<file id="file-1"/>
						<name>bandicam 2025-06-02 00-01-10-144</name>
						<rate>
							<timebase>60</timebase>
							<ntsc>TRUE</ntsc>
						</rate>
						<rate>
							<timebase>60</timebase>
							<ntsc>TRUE</ntsc>
						</rate>
						<duration>0</duration>
						<start>4806</start>
						<end>4806</end>
						<in>4848</in>
						<out>4848</out>
					</clipitem>
					<clipitem frameBlend="FALSE" id="clipitem-640">
						<file id="file-1"/>
						<name>bandicam 2025-06-02 00-01-10-144</name>
						<rate>
							<timebase>60</timebase>
							<ntsc>TRUE</ntsc>
						</rate>
						<rate>
							<timebase>60</timebase>
							<ntsc>TRUE</ntsc>
						</rate>
						<duration>12</duration>
						<start>4848</start>
						<end>4860</end>
						<in>4860</in>
						<out>4872</out>
					</clipitem>
					<clipitem frameBlend="FALSE" id="clipitem-641">
						<file id="file-1"/>
						<name>bandicam 2025-06-02 00-01-10-144</name>
						<rate>
							<timebase>60</timebase>
							<ntsc>TRUE</ntsc>
						</rate>
						<rate>
							<timebase>60</timebase>
							<ntsc>TRUE</ntsc>
						</rate>
						<duration>6</duration>
						<start>4872</start>
						<end>4878</end>
						<in>4890</in>
						<out>4896</out>
					</clipitem>
					<clipitem frameBlend="FALSE" id="clipitem-642">
						<file id="file-1"/>
						<name>bandicam 2025-06-02 00-01-10-144</name>
						<rate>
							<timebase>60</timebase>
							<ntsc>TRUE</ntsc>
						</rate>
						<rate>
							<timebase>60</timebase>
							<ntsc>TRUE</ntsc>
						</rate>
						<duration>18</duration>
						<start>4896</start>
						<end>4914</end>
						<in>4908</in>
						<out>4926</out>
					</clipitem>
					<clipitem frameBlend="FALSE" id="clipitem-643">
						<file id="file-1"/>
						<name>bandicam 2025-06-02 00-01-10-144</name>
						<rate>
							<timebase>60</timebase>
							<ntsc>TRUE</ntsc>
						</rate>
						<rate>
							<timebase>60</timebase>
							<ntsc>TRUE</ntsc>
						</rate>
						<duration>30</duration>
						<start>4926</start>
						<end>4956</end>
						<in>4944</in>
						<out>4974</out>
					</clipitem>
					<clipitem frameBlend="FALSE" id="clipitem-644">
						<file id="file-1"/>
						<name>bandicam 2025-06-02 00-01-10-144</name>
						<rate>
							<timebase>60</timebase>
							<ntsc>TRUE</ntsc>
						</rate>
						<rate>
							<timebase>60</timebase>
							<ntsc>TRUE</ntsc>
						</rate>
						<duration>18</duration>
						<start>4974</start>
						<end>4992</end>
						<in>5022</in>
						<out>5040</out>
					</clipitem>
					<clipitem frameBlend="FALSE" id="clipitem-645">
						<file id="file-1"/>
						<name>bandicam 2025-06-02 00-01-10-144</name>
						<rate>
							<timebase>60</timebase>
							<ntsc>TRUE</ntsc>
						</rate>
						<rate>
							<timebase>60</timebase>
							<ntsc>TRUE</ntsc>
						</rate>
						<duration>6</duration>
						<start>5040</start>
						<end>5046</end>
						<in>5064</in>
						<out>5070</out>
					</clipitem>
					<clipitem frameBlend="FALSE" id="clipitem-646">
						<file id="file-1"/>
						<name>bandicam 2025-06-02 00-01-10-144</name>
						<rate>
							<timebase>60</timebase>
							<ntsc>TRUE</ntsc>
						</rate>
						<rate>
							<timebase>60</timebase>
							<ntsc>TRUE</ntsc>
						</rate>
						<duration>0</duration>
						<start>5070</start>
						<end>5070</end>
						<in>5082</in>
						<out>5082</out>
					</clipitem>
					<clipitem frameBlend="FALSE" id="clipitem-647">
						<file id="file-1"/>
						<name>bandicam 2025-06-02 00-01-10-144</name>
						<rate>
							<timebase>60</timebase>
							<ntsc>TRUE</ntsc>
						</rate>
						<rate>
							<timebase>60</timebase>
							<ntsc>TRUE</ntsc>
						</rate>
						<duration>84</duration>
						<start>5082</start>
						<end>5166</end>
						<in>5094</in>
						<out>5178</out>
					</clipitem>
					<clipitem frameBlend="FALSE" id="clipitem-648">
						<file id="file-1"/>
						<name>bandicam 2025-06-02 00-01-10-144</name>
						<rate>
							<timebase>60</timebase>
							<ntsc>TRUE</ntsc>
						</rate>
						<rate>
							<timebase>60</timebase>
							<ntsc>TRUE</ntsc>
						</rate>
						<duration>18</duration>
						<start>5178</start>
						<end>5196</end>
						<in>5232</in>
						<out>5250</out>
					</clipitem>
					<clipitem frameBlend="FALSE" id="clipitem-649">
						<file id="file-1"/>
						<name>bandicam 2025-06-02 00-01-10-144</name>
						<rate>
							<timebase>60</timebase>
							<ntsc>TRUE</ntsc>
						</rate>
						<rate>
							<timebase>60</timebase>
							<ntsc>TRUE</ntsc>
						</rate>
						<duration>12</duration>
						<start>5250</start>
						<end>5262</end>
						<in>5328</in>
						<out>5340</out>
					</clipitem>
					<clipitem frameBlend="FALSE" id="clipitem-650">
						<file id="file-1"/>
						<name>bandicam 2025-06-02 00-01-10-144</name>
						<rate>
							<timebase>60</timebase>
							<ntsc>TRUE</ntsc>
						</rate>
						<rate>
							<timebase>60</timebase>
							<ntsc>TRUE</ntsc>
						</rate>
						<duration>0</duration>
						<start>5340</start>
						<end>5340</end>
						<in>5352</in>
						<out>5352</out>
					</clipitem>
					<clipitem frameBlend="FALSE" id="clipitem-651">
						<file id="file-1"/>
						<name>bandicam 2025-06-02 00-01-10-144</name>
						<rate>
							<timebase>60</timebase>
							<ntsc>TRUE</ntsc>
						</rate>
						<rate>
							<timebase>60</timebase>
							<ntsc>TRUE</ntsc>
						</rate>
						<duration>18</duration>
						<start>5352</start>
						<end>5370</end>
						<in>5382</in>
						<out>5400</out>
					</clipitem>
					<clipitem frameBlend="FALSE" id="clipitem-652">
						<file id="file-1"/>
						<name>bandicam 2025-06-02 00-01-10-144</name>
						<rate>
							<timebase>60</timebase>
							<ntsc>TRUE</ntsc>
						</rate>
						<rate>
							<timebase>60</timebase>
							<ntsc>TRUE</ntsc>
						</rate>
						<duration>36</duration>
						<start>5400</start>
						<end>5436</end>
						<in>5412</in>
						<out>5448</out>
					</clipitem>
					<clipitem frameBlend="FALSE" id="clipitem-653">
						<file id="file-1"/>
						<name>bandicam 2025-06-02 00-01-10-144</name>
						<rate>
							<timebase>60</timebase>
							<ntsc>TRUE</ntsc>
						</rate>
						<rate>
							<timebase>60</timebase>
							<ntsc>TRUE</ntsc>
						</rate>
						<duration>0</duration>
						<start>5448</start>
						<end>5448</end>
						<in>5466</in>
						<out>5466</out>
					</clipitem>
					<clipitem frameBlend="FALSE" id="clipitem-654">
						<file id="file-1"/>
						<name>bandicam 2025-06-02 00-01-10-144</name>
						<rate>
							<timebase>60</timebase>
							<ntsc>TRUE</ntsc>
						</rate>
						<rate>
							<timebase>60</timebase>
							<ntsc>TRUE</ntsc>
						</rate>
						<duration>18</duration>
						<start>5466</start>
						<end>5484</end>
						<in>5490</in>
						<out>5508</out>
					</clipitem>
					<clipitem frameBlend="FALSE" id="clipitem-655">
						<file id="file-1"/>
						<name>bandicam 2025-06-02 00-01-10-144</name>
						<rate>
							<timebase>60</timebase>
							<ntsc>TRUE</ntsc>
						</rate>
						<rate>
							<timebase>60</timebase>
							<ntsc>TRUE</ntsc>
						</rate>
						<duration>0</duration>
						<start>5508</start>
						<end>5508</end>
						<in>5520</in>
						<out>5520</out>
					</clipitem>
					<clipitem frameBlend="FALSE" id="clipitem-656">
						<file id="file-1"/>
						<name>bandicam 2025-06-02 00-01-10-144</name>
						<rate>
							<timebase>60</timebase>
							<ntsc>TRUE</ntsc>
						</rate>
						<rate>
							<timebase>60</timebase>
							<ntsc>TRUE</ntsc>
						</rate>
						<duration>18</duration>
						<start>5520</start>
						<end>5538</end>
						<in>5532</in>
						<out>5550</out>
					</clipitem>
					<clipitem frameBlend="FALSE" id="clipitem-657">
						<file id="file-1"/>
						<name>bandicam 2025-06-02 00-01-10-144</name>
						<rate>
							<timebase>60</timebase>
							<ntsc>TRUE</ntsc>
						</rate>
						<rate>
							<timebase>60</timebase>
							<ntsc>TRUE</ntsc>
						</rate>
						<duration>18</duration>
						<start>5550</start>
						<end>5568</end>
						<in>5580</in>
						<out>5598</out>
					</clipitem>
					<clipitem frameBlend="FALSE" id="clipitem-658">
						<file id="file-1"/>
						<name>bandicam 2025-06-02 00-01-10-144</name>
						<rate>
							<timebase>60</timebase>
							<ntsc>TRUE</ntsc>
						</rate>
						<rate>
							<timebase>60</timebase>
							<ntsc>TRUE</ntsc>
						</rate>
						<duration>18</duration>
						<start>5598</start>
						<end>5616</end>
						<in>5622</in>
						<out>5640</out>
					</clipitem>
					<clipitem frameBlend="FALSE" id="clipitem-659">
						<file id="file-1"/>
						<name>bandicam 2025-06-02 00-01-10-144</name>
						<rate>
							<timebase>60</timebase>
							<ntsc>TRUE</ntsc>
						</rate>
						<rate>
							<timebase>60</timebase>
							<ntsc>TRUE</ntsc>
						</rate>
						<duration>30</duration>
						<start>5640</start>
						<end>5670</end>
						<in>5664</in>
						<out>5694</out>
					</clipitem>
					<clipitem frameBlend="FALSE" id="clipitem-660">
						<file id="file-1"/>
						<name>bandicam 2025-06-02 00-01-10-144</name>
						<rate>
							<timebase>60</timebase>
							<ntsc>TRUE</ntsc>
						</rate>
						<rate>
							<timebase>60</timebase>
							<ntsc>TRUE</ntsc>
						</rate>
						<duration>0</duration>
						<start>5694</start>
						<end>5694</end>
						<in>5724</in>
						<out>5724</out>
					</clipitem>
					<clipitem frameBlend="FALSE" id="clipitem-661">
						<file id="file-1"/>
						<name>bandicam 2025-06-02 00-01-10-144</name>
						<rate>
							<timebase>60</timebase>
							<ntsc>TRUE</ntsc>
						</rate>
						<rate>
							<timebase>60</timebase>
							<ntsc>TRUE</ntsc>
						</rate>
						<duration>30</duration>
						<start>5724</start>
						<end>5754</end>
						<in>5748</in>
						<out>5778</out>
					</clipitem>
					<clipitem frameBlend="FALSE" id="clipitem-662">
						<file id="file-1"/>
						<name>bandicam 2025-06-02 00-01-10-144</name>
						<rate>
							<timebase>60</timebase>
							<ntsc>TRUE</ntsc>
						</rate>
						<rate>
							<timebase>60</timebase>
							<ntsc>TRUE</ntsc>
						</rate>
						<duration>96</duration>
						<start>5778</start>
						<end>5874</end>
						<in>5802</in>
						<out>5898</out>
					</clipitem>
					<clipitem frameBlend="FALSE" id="clipitem-663">
						<file id="file-1"/>
						<name>bandicam 2025-06-02 00-01-10-144</name>
						<rate>
							<timebase>60</timebase>
							<ntsc>TRUE</ntsc>
						</rate>
						<rate>
							<timebase>60</timebase>
							<ntsc>TRUE</ntsc>
						</rate>
						<duration>72</duration>
						<start>5898</start>
						<end>5970</end>
						<in>5910</in>
						<out>5982</out>
					</clipitem>
					<clipitem frameBlend="FALSE" id="clipitem-664">
						<file id="file-1"/>
						<name>bandicam 2025-06-02 00-01-10-144</name>
						<rate>
							<timebase>60</timebase>
							<ntsc>TRUE</ntsc>
						</rate>
						<rate>
							<timebase>60</timebase>
							<ntsc>TRUE</ntsc>
						</rate>
						<duration>36</duration>
						<start>5982</start>
						<end>6018</end>
						<in>6000</in>
						<out>6036</out>
					</clipitem>
					<clipitem frameBlend="FALSE" id="clipitem-665">
						<file id="file-1"/>
						<name>bandicam 2025-06-02 00-01-10-144</name>
						<rate>
							<timebase>60</timebase>
							<ntsc>TRUE</ntsc>
						</rate>
						<rate>
							<timebase>60</timebase>
							<ntsc>TRUE</ntsc>
						</rate>
						<duration>18</duration>
						<start>6036</start>
						<end>6054</end>
						<in>6054</in>
						<out>6072</out>
					</clipitem>
					<clipitem frameBlend="FALSE" id="clipitem-666">
						<file id="file-1"/>
						<name>bandicam 2025-06-02 00-01-10-144</name>
						<rate>
							<timebase>60</timebase>
							<ntsc>TRUE</ntsc>
						</rate>
						<rate>
							<timebase>60</timebase>
							<ntsc>TRUE</ntsc>
						</rate>
						<duration>0</duration>
						<start>6072</start>
						<end>6072</end>
						<in>6132</in>
						<out>6132</out>
					</clipitem>
					<clipitem frameBlend="FALSE" id="clipitem-667">
						<file id="file-1"/>
						<name>bandicam 2025-06-02 00-01-10-144</name>
						<rate>
							<timebase>60</timebase>
							<ntsc>TRUE</ntsc>
						</rate>
						<rate>
							<timebase>60</timebase>
							<ntsc>TRUE</ntsc>
						</rate>
						<duration>48</duration>
						<start>6132</start>
						<end>6180</end>
						<in>6156</in>
						<out>6204</out>
					</clipitem>
					<clipitem frameBlend="FALSE" id="clipitem-668">
						<file id="file-1"/>
						<name>bandicam 2025-06-02 00-01-10-144</name>
						<rate>
							<timebase>60</timebase>
							<ntsc>TRUE</ntsc>
						</rate>
						<rate>
							<timebase>60</timebase>
							<ntsc>TRUE</ntsc>
						</rate>
						<duration>36</duration>
						<start>6204</start>
						<end>6240</end>
						<in>6222</in>
						<out>6258</out>
					</clipitem>
					<clipitem frameBlend="FALSE" id="clipitem-669">
						<file id="file-1"/>
						<name>bandicam 2025-06-02 00-01-10-144</name>
						<rate>
							<timebase>60</timebase>
							<ntsc>TRUE</ntsc>
						</rate>
						<rate>
							<timebase>60</timebase>
							<ntsc>TRUE</ntsc>
						</rate>
						<duration>0</duration>
						<start>6258</start>
						<end>6258</end>
						<in>6282</in>
						<out>6282</out>
					</clipitem>
					<clipitem frameBlend="FALSE" id="clipitem-670">
						<file id="file-1"/>
						<name>bandicam 2025-06-02 00-01-10-144</name>
						<rate>
							<timebase>60</timebase>
							<ntsc>TRUE</ntsc>
						</rate>
						<rate>
							<timebase>60</timebase>
							<ntsc>TRUE</ntsc>
						</rate>
						<duration>18</duration>
						<start>6282</start>
						<end>6300</end>
						<in>6312</in>
						<out>6330</out>
					</clipitem>
					<clipitem frameBlend="FALSE" id="clipitem-671">
						<file id="file-1"/>
						<name>bandicam 2025-06-02 00-01-10-144</name>
						<rate>
							<timebase>60</timebase>
							<ntsc>TRUE</ntsc>
						</rate>
						<rate>
							<timebase>60</timebase>
							<ntsc>TRUE</ntsc>
						</rate>
						<duration>18</duration>
						<start>6330</start>
						<end>6348</end>
						<in>6384</in>
						<out>6402</out>
					</clipitem>
					<clipitem frameBlend="FALSE" id="clipitem-672">
						<file id="file-1"/>
						<name>bandicam 2025-06-02 00-01-10-144</name>
						<rate>
							<timebase>60</timebase>
							<ntsc>TRUE</ntsc>
						</rate>
						<rate>
							<timebase>60</timebase>
							<ntsc>TRUE</ntsc>
						</rate>
						<duration>18</duration>
						<start>6402</start>
						<end>6420</end>
						<in>6432</in>
						<out>6450</out>
					</clipitem>
					<clipitem frameBlend="FALSE" id="clipitem-673">
						<file id="file-1"/>
						<name>bandicam 2025-06-02 00-01-10-144</name>
						<rate>
							<timebase>60</timebase>
							<ntsc>TRUE</ntsc>
						</rate>
						<rate>
							<timebase>60</timebase>
							<ntsc>TRUE</ntsc>
						</rate>
						<duration>0</duration>
						<start>6450</start>
						<end>6450</end>
						<in>6486</in>
						<out>6486</out>
					</clipitem>
					<clipitem frameBlend="FALSE" id="clipitem-674">
						<file id="file-1"/>
						<name>bandicam 2025-06-02 00-01-10-144</name>
						<rate>
							<timebase>60</timebase>
							<ntsc>TRUE</ntsc>
						</rate>
						<rate>
							<timebase>60</timebase>
							<ntsc>TRUE</ntsc>
						</rate>
						<duration>36</duration>
						<start>6486</start>
						<end>6522</end>
						<in>6498</in>
						<out>6534</out>
					</clipitem>
					<clipitem frameBlend="FALSE" id="clipitem-675">
						<file id="file-1"/>
						<name>bandicam 2025-06-02 00-01-10-144</name>
						<rate>
							<timebase>60</timebase>
							<ntsc>TRUE</ntsc>
						</rate>
						<rate>
							<timebase>60</timebase>
							<ntsc>TRUE</ntsc>
						</rate>
						<duration>6</duration>
						<start>6534</start>
						<end>6540</end>
						<in>6576</in>
						<out>6582</out>
					</clipitem>
					<clipitem frameBlend="FALSE" id="clipitem-676">
						<file id="file-1"/>
						<name>bandicam 2025-06-02 00-01-10-144</name>
						<rate>
							<timebase>60</timebase>
							<ntsc>TRUE</ntsc>
						</rate>
						<rate>
							<timebase>60</timebase>
							<ntsc>TRUE</ntsc>
						</rate>
						<duration>18</duration>
						<start>6582</start>
						<end>6600</end>
						<in>6612</in>
						<out>6630</out>
					</clipitem>
					<clipitem frameBlend="FALSE" id="clipitem-677">
						<file id="file-1"/>
						<name>bandicam 2025-06-02 00-01-10-144</name>
						<rate>
							<timebase>60</timebase>
							<ntsc>TRUE</ntsc>
						</rate>
						<rate>
							<timebase>60</timebase>
							<ntsc>TRUE</ntsc>
						</rate>
						<duration>12</duration>
						<start>6630</start>
						<end>6642</end>
						<in>6750</in>
						<out>6762</out>
					</clipitem>
					<clipitem frameBlend="FALSE" id="clipitem-678">
						<file id="file-1"/>
						<name>bandicam 2025-06-02 00-01-10-144</name>
						<rate>
							<timebase>60</timebase>
							<ntsc>TRUE</ntsc>
						</rate>
						<rate>
							<timebase>60</timebase>
							<ntsc>TRUE</ntsc>
						</rate>
						<duration>6</duration>
						<start>6762</start>
						<end>6768</end>
						<in>6810</in>
						<out>6816</out>
					</clipitem>
					<clipitem frameBlend="FALSE" id="clipitem-679">
						<file id="file-1"/>
						<name>bandicam 2025-06-02 00-01-10-144</name>
						<rate>
							<timebase>60</timebase>
							<ntsc>TRUE</ntsc>
						</rate>
						<rate>
							<timebase>60</timebase>
							<ntsc>TRUE</ntsc>
						</rate>
						<duration>18</duration>
						<start>6816</start>
						<end>6834</end>
						<in>6828</in>
						<out>6846</out>
					</clipitem>
					<clipitem frameBlend="FALSE" id="clipitem-680">
						<file id="file-1"/>
						<name>bandicam 2025-06-02 00-01-10-144</name>
						<rate>
							<timebase>60</timebase>
							<ntsc>TRUE</ntsc>
						</rate>
						<rate>
							<timebase>60</timebase>
							<ntsc>TRUE</ntsc>
						</rate>
						<duration>6</duration>
						<start>6846</start>
						<end>6852</end>
						<in>6894</in>
						<out>6900</out>
					</clipitem>
					<clipitem frameBlend="FALSE" id="clipitem-681">
						<file id="file-1"/>
						<name>bandicam 2025-06-02 00-01-10-144</name>
						<rate>
							<timebase>60</timebase>
							<ntsc>TRUE</ntsc>
						</rate>
						<rate>
							<timebase>60</timebase>
							<ntsc>TRUE</ntsc>
						</rate>
						<duration>18</duration>
						<start>6900</start>
						<end>6918</end>
						<in>6912</in>
						<out>6930</out>
					</clipitem>
					<clipitem frameBlend="FALSE" id="clipitem-682">
						<file id="file-1"/>
						<name>bandicam 2025-06-02 00-01-10-144</name>
						<rate>
							<timebase>60</timebase>
							<ntsc>TRUE</ntsc>
						</rate>
						<rate>
							<timebase>60</timebase>
							<ntsc>TRUE</ntsc>
						</rate>
						<duration>0</duration>
						<start>6930</start>
						<end>6930</end>
						<in>6954</in>
						<out>6954</out>
					</clipitem>
					<clipitem frameBlend="FALSE" id="clipitem-683">
						<file id="file-1"/>
						<name>bandicam 2025-06-02 00-01-10-144</name>
						<rate>
							<timebase>60</timebase>
							<ntsc>TRUE</ntsc>
						</rate>
						<rate>
							<timebase>60</timebase>
							<ntsc>TRUE</ntsc>
						</rate>
						<duration>0</duration>
						<start>6954</start>
						<end>6954</end>
						<in>7002</in>
						<out>7002</out>
					</clipitem>
					<clipitem frameBlend="FALSE" id="clipitem-684">
						<file id="file-1"/>
						<name>bandicam 2025-06-02 00-01-10-144</name>
						<rate>
							<timebase>60</timebase>
							<ntsc>TRUE</ntsc>
						</rate>
						<rate>
							<timebase>60</timebase>
							<ntsc>TRUE</ntsc>
						</rate>
						<duration>18</duration>
						<start>7002</start>
						<end>7020</end>
						<in>7026</in>
						<out>7044</out>
					</clipitem>
					<clipitem frameBlend="FALSE" id="clipitem-685">
						<file id="file-1"/>
						<name>bandicam 2025-06-02 00-01-10-144</name>
						<rate>
							<timebase>60</timebase>
							<ntsc>TRUE</ntsc>
						</rate>
						<rate>
							<timebase>60</timebase>
							<ntsc>TRUE</ntsc>
						</rate>
						<duration>6</duration>
						<start>7044</start>
						<end>7050</end>
						<in>12</in>
						<out>18</out>
					</clipitem>
					<clipitem frameBlend="FALSE" id="clipitem-686">
						<file id="file-1"/>
						<name>bandicam 2025-06-02 00-01-10-144</name>
						<rate>
							<timebase>60</timebase>
							<ntsc>TRUE</ntsc>
						</rate>
						<rate>
							<timebase>60</timebase>
							<ntsc>TRUE</ntsc>
						</rate>
						<duration>0</duration>
						<start>18</start>
						<end>18</end>
						<in>60</in>
						<out>60</out>
					</clipitem>
					<clipitem frameBlend="FALSE" id="clipitem-687">
						<file id="file-1"/>
						<name>bandicam 2025-06-02 00-01-10-144</name>
						<rate>
							<timebase>60</timebase>
							<ntsc>TRUE</ntsc>
						</rate>
						<rate>
							<timebase>60</timebase>
							<ntsc>TRUE</ntsc>
						</rate>
						<duration>12</duration>
						<start>60</start>
						<end>72</end>
						<in>78</in>
						<out>90</out>
					</clipitem>
					<clipitem frameBlend="FALSE" id="clipitem-688">
						<file id="file-1"/>
						<name>bandicam 2025-06-02 00-01-10-144</name>
						<rate>
							<timebase>60</timebase>
							<ntsc>TRUE</ntsc>
						</rate>
						<rate>
							<timebase>60</timebase>
							<ntsc>TRUE</ntsc>
						</rate>
						<duration>18</duration>
						<start>90</start>
						<end>108</end>
						<in>108</in>
						<out>126</out>
					</clipitem>
					<clipitem frameBlend="FALSE" id="clipitem-689">
						<file id="file-1"/>
						<name>bandicam 2025-06-02 00-01-10-144</name>
						<rate>
							<timebase>60</timebase>
							<ntsc>TRUE</ntsc>
						</rate>
						<rate>
							<timebase>60</timebase>
							<ntsc>TRUE</ntsc>
						</rate>
						<duration>12</duration>
						<start>126</start>
						<end>138</end>
						<in>174</in>
						<out>186</out>
					</clipitem>
					<clipitem frameBlend="FALSE" id="clipitem-690">
						<file id="file-1"/>
						<name>bandicam 2025-06-02 00-01-10-144</name>
						<rate>
							<timebase>60</timebase>
							<ntsc>TRUE</ntsc>
						</rate>
						<rate>
							<timebase>60</timebase>
							<ntsc>TRUE</ntsc>
						</rate>
						<duration>0</duration>
						<start>186</start>
						<end>186</end>
						<in>300</in>
						<out>300</out>
					</clipitem>
					<clipitem frameBlend="FALSE" id="clipitem-691">
						<file id="file-1"/>
						<name>bandicam 2025-06-02 00-01-10-144</name>
						<rate>
							<timebase>60</timebase>
							<ntsc>TRUE</ntsc>
						</rate>
						<rate>
							<timebase>60</timebase>
							<ntsc>TRUE</ntsc>
						</rate>
						<duration>12</duration>
						<start>300</start>
						<end>312</end>
						<in>360</in>
						<out>372</out>
					</clipitem>
					<clipitem frameBlend="FALSE" id="clipitem-692">
						<file id="file-1"/>
						<name>bandicam 2025-06-02 00-01-10-144</name>
						<rate>
							<timebase>60</timebase>
							<ntsc>TRUE</ntsc>
						</rate>
						<rate>
							<timebase>60</timebase>
							<ntsc>TRUE</ntsc>
						</rate>
						<duration>0</duration>
						<start>372</start>
						<end>372</end>
						<in>438</in>
						<out>438</out>
					</clipitem>
					<clipitem frameBlend="FALSE" id="clipitem-693">
						<file id="file-1"/>
						<name>bandicam 2025-06-02 00-01-10-144</name>
						<rate>
							<timebase>60</timebase>
							<ntsc>TRUE</ntsc>
						</rate>
						<rate>
							<timebase>60</timebase>
							<ntsc>TRUE</ntsc>
						</rate>
						<duration>36</duration>
						<start>438</start>
						<end>474</end>
						<in>450</in>
						<out>486</out>
					</clipitem>
					<clipitem frameBlend="FALSE" id="clipitem-694">
						<file id="file-1"/>
						<name>bandicam 2025-06-02 00-01-10-144</name>
						<rate>
							<timebase>60</timebase>
							<ntsc>TRUE</ntsc>
						</rate>
						<rate>
							<timebase>60</timebase>
							<ntsc>TRUE</ntsc>
						</rate>
						<duration>0</duration>
						<start>486</start>
						<end>486</end>
						<in>504</in>
						<out>504</out>
					</clipitem>
					<clipitem frameBlend="FALSE" id="clipitem-695">
						<file id="file-1"/>
						<name>bandicam 2025-06-02 00-01-10-144</name>
						<rate>
							<timebase>60</timebase>
							<ntsc>TRUE</ntsc>
						</rate>
						<rate>
							<timebase>60</timebase>
							<ntsc>TRUE</ntsc>
						</rate>
						<duration>12</duration>
						<start>504</start>
						<end>516</end>
						<in>528</in>
						<out>540</out>
					</clipitem>
					<clipitem frameBlend="FALSE" id="clipitem-696">
						<file id="file-1"/>
						<name>bandicam 2025-06-02 00-01-10-144</name>
						<rate>
							<timebase>60</timebase>
							<ntsc>TRUE</ntsc>
						</rate>
						<rate>
							<timebase>60</timebase>
							<ntsc>TRUE</ntsc>
						</rate>
						<duration>24</duration>
						<start>540</start>
						<end>564</end>
						<in>582</in>
						<out>606</out>
					</clipitem>
					<clipitem frameBlend="FALSE" id="clipitem-697">
						<file id="file-1"/>
						<name>bandicam 2025-06-02 00-01-10-144</name>
						<rate>
							<timebase>60</timebase>
							<ntsc>TRUE</ntsc>
						</rate>
						<rate>
							<timebase>60</timebase>
							<ntsc>TRUE</ntsc>
						</rate>
						<duration>12</duration>
						<start>606</start>
						<end>618</end>
						<in>624</in>
						<out>636</out>
					</clipitem>
					<clipitem frameBlend="FALSE" id="clipitem-698">
						<file id="file-1"/>
						<name>bandicam 2025-06-02 00-01-10-144</name>
						<rate>
							<timebase>60</timebase>
							<ntsc>TRUE</ntsc>
						</rate>
						<rate>
							<timebase>60</timebase>
							<ntsc>TRUE</ntsc>
						</rate>
						<duration>0</duration>
						<start>636</start>
						<end>636</end>
						<in>852</in>
						<out>852</out>
					</clipitem>
					<clipitem frameBlend="FALSE" id="clipitem-699">
						<file id="file-1"/>
						<name>bandicam 2025-06-02 00-01-10-144</name>
						<rate>
							<timebase>60</timebase>
							<ntsc>TRUE</ntsc>
						</rate>
						<rate>
							<timebase>60</timebase>
							<ntsc>TRUE</ntsc>
						</rate>
						<duration>0</duration>
						<start>852</start>
						<end>852</end>
						<in>912</in>
						<out>912</out>
					</clipitem>
					<clipitem frameBlend="FALSE" id="clipitem-700">
						<file id="file-1"/>
						<name>bandicam 2025-06-02 00-01-10-144</name>
						<rate>
							<timebase>60</timebase>
							<ntsc>TRUE</ntsc>
						</rate>
						<rate>
							<timebase>60</timebase>
							<ntsc>TRUE</ntsc>
						</rate>
						<duration>0</duration>
						<start>912</start>
						<end>912</end>
						<in>936</in>
						<out>936</out>
					</clipitem>
					<clipitem frameBlend="FALSE" id="clipitem-701">
						<file id="file-1"/>
						<name>bandicam 2025-06-02 00-01-10-144</name>
						<rate>
							<timebase>60</timebase>
							<ntsc>TRUE</ntsc>
						</rate>
						<rate>
							<timebase>60</timebase>
							<ntsc>TRUE</ntsc>
						</rate>
						<duration>0</duration>
						<start>936</start>
						<end>936</end>
						<in>954</in>
						<out>954</out>
					</clipitem>
					<clipitem frameBlend="FALSE" id="clipitem-702">
						<file id="file-1"/>
						<name>bandicam 2025-06-02 00-01-10-144</name>
						<rate>
							<timebase>60</timebase>
							<ntsc>TRUE</ntsc>
						</rate>
						<rate>
							<timebase>60</timebase>
							<ntsc>TRUE</ntsc>
						</rate>
						<duration>12</duration>
						<start>954</start>
						<end>966</end>
						<in>984</in>
						<out>996</out>
					</clipitem>
					<clipitem frameBlend="FALSE" id="clipitem-703">
						<file id="file-1"/>
						<name>bandicam 2025-06-02 00-01-10-144</name>
						<rate>
							<timebase>60</timebase>
							<ntsc>TRUE</ntsc>
						</rate>
						<rate>
							<timebase>60</timebase>
							<ntsc>TRUE</ntsc>
						</rate>
						<duration>12</duration>
						<start>996</start>
						<end>1008</end>
						<in>1086</in>
						<out>1098</out>
					</clipitem>
					<clipitem frameBlend="FALSE" id="clipitem-704">
						<file id="file-1"/>
						<name>bandicam 2025-06-02 00-01-10-144</name>
						<rate>
							<timebase>60</timebase>
							<ntsc>TRUE</ntsc>
						</rate>
						<rate>
							<timebase>60</timebase>
							<ntsc>TRUE</ntsc>
						</rate>
						<duration>0</duration>
						<start>1098</start>
						<end>1098</end>
						<in>1194</in>
						<out>1194</out>
					</clipitem>
					<clipitem frameBlend="FALSE" id="clipitem-705">
						<file id="file-1"/>
						<name>bandicam 2025-06-02 00-01-10-144</name>
						<rate>
							<timebase>60</timebase>
							<ntsc>TRUE</ntsc>
						</rate>
						<rate>
							<timebase>60</timebase>
							<ntsc>TRUE</ntsc>
						</rate>
						<duration>12</duration>
						<start>1194</start>
						<end>1206</end>
						<in>1206</in>
						<out>1218</out>
					</clipitem>
					<clipitem frameBlend="FALSE" id="clipitem-706">
						<file id="file-1"/>
						<name>bandicam 2025-06-02 00-01-10-144</name>
						<rate>
							<timebase>60</timebase>
							<ntsc>TRUE</ntsc>
						</rate>
						<rate>
							<timebase>60</timebase>
							<ntsc>TRUE</ntsc>
						</rate>
						<duration>0</duration>
						<start>1218</start>
						<end>1218</end>
						<in>1320</in>
						<out>1320</out>
					</clipitem>
					<clipitem frameBlend="FALSE" id="clipitem-707">
						<file id="file-1"/>
						<name>bandicam 2025-06-02 00-01-10-144</name>
						<rate>
							<timebase>60</timebase>
							<ntsc>TRUE</ntsc>
						</rate>
						<rate>
							<timebase>60</timebase>
							<ntsc>TRUE</ntsc>
						</rate>
						<duration>0</duration>
						<start>1320</start>
						<end>1320</end>
						<in>1386</in>
						<out>1386</out>
					</clipitem>
					<clipitem frameBlend="FALSE" id="clipitem-708">
						<file id="file-1"/>
						<name>bandicam 2025-06-02 00-01-10-144</name>
						<rate>
							<timebase>60</timebase>
							<ntsc>TRUE</ntsc>
						</rate>
						<rate>
							<timebase>60</timebase>
							<ntsc>TRUE</ntsc>
						</rate>
						<duration>18</duration>
						<start>1386</start>
						<end>1404</end>
						<in>1404</in>
						<out>1422</out>
					</clipitem>
					<clipitem frameBlend="FALSE" id="clipitem-709">
						<file id="file-1"/>
						<name>bandicam 2025-06-02 00-01-10-144</name>
						<rate>
							<timebase>60</timebase>
							<ntsc>TRUE</ntsc>
						</rate>
						<rate>
							<timebase>60</timebase>
							<ntsc>TRUE</ntsc>
						</rate>
						<duration>12</duration>
						<start>1422</start>
						<end>1434</end>
						<in>1446</in>
						<out>1458</out>
					</clipitem>
					<clipitem frameBlend="FALSE" id="clipitem-710">
						<file id="file-1"/>
						<name>bandicam 2025-06-02 00-01-10-144</name>
						<rate>
							<timebase>60</timebase>
							<ntsc>TRUE</ntsc>
						</rate>
						<rate>
							<timebase>60</timebase>
							<ntsc>TRUE</ntsc>
						</rate>
						<duration>12</duration>
						<start>1458</start>
						<end>1470</end>
						<in>1566</in>
						<out>1578</out>
					</clipitem>
					<clipitem frameBlend="FALSE" id="clipitem-711">
						<file id="file-1"/>
						<name>bandicam 2025-06-02 00-01-10-144</name>
						<rate>
							<timebase>60</timebase>
							<ntsc>TRUE</ntsc>
						</rate>
						<rate>
							<timebase>60</timebase>
							<ntsc>TRUE</ntsc>
						</rate>
						<duration>30</duration>
						<start>1578</start>
						<end>1608</end>
						<in>1692</in>
						<out>1722</out>
					</clipitem>
					<clipitem frameBlend="FALSE" id="clipitem-712">
						<file id="file-1"/>
						<name>bandicam 2025-06-02 00-01-10-144</name>
						<rate>
							<timebase>60</timebase>
							<ntsc>TRUE</ntsc>
						</rate>
						<rate>
							<timebase>60</timebase>
							<ntsc>TRUE</ntsc>
						</rate>
						<duration>12</duration>
						<start>1722</start>
						<end>1734</end>
						<in>1746</in>
						<out>1758</out>
					</clipitem>
					<clipitem frameBlend="FALSE" id="clipitem-713">
						<file id="file-1"/>
						<name>bandicam 2025-06-02 00-01-10-144</name>
						<rate>
							<timebase>60</timebase>
							<ntsc>TRUE</ntsc>
						</rate>
						<rate>
							<timebase>60</timebase>
							<ntsc>TRUE</ntsc>
						</rate>
						<duration>0</duration>
						<start>1758</start>
						<end>1758</end>
						<in>1776</in>
						<out>1776</out>
					</clipitem>
					<clipitem frameBlend="FALSE" id="clipitem-714">
						<file id="file-1"/>
						<name>bandicam 2025-06-02 00-01-10-144</name>
						<rate>
							<timebase>60</timebase>
							<ntsc>TRUE</ntsc>
						</rate>
						<rate>
							<timebase>60</timebase>
							<ntsc>TRUE</ntsc>
						</rate>
						<duration>0</duration>
						<start>1776</start>
						<end>1776</end>
						<in>1812</in>
						<out>1812</out>
					</clipitem>
					<clipitem frameBlend="FALSE" id="clipitem-715">
						<file id="file-1"/>
						<name>bandicam 2025-06-02 00-01-10-144</name>
						<rate>
							<timebase>60</timebase>
							<ntsc>TRUE</ntsc>
						</rate>
						<rate>
							<timebase>60</timebase>
							<ntsc>TRUE</ntsc>
						</rate>
						<duration>0</duration>
						<start>1812</start>
						<end>1812</end>
						<in>1830</in>
						<out>1830</out>
					</clipitem>
					<clipitem frameBlend="FALSE" id="clipitem-716">
						<file id="file-1"/>
						<name>bandicam 2025-06-02 00-01-10-144</name>
						<rate>
							<timebase>60</timebase>
							<ntsc>TRUE</ntsc>
						</rate>
						<rate>
							<timebase>60</timebase>
							<ntsc>TRUE</ntsc>
						</rate>
						<duration>12</duration>
						<start>1830</start>
						<end>1842</end>
						<in>1842</in>
						<out>1854</out>
					</clipitem>
					<clipitem frameBlend="FALSE" id="clipitem-717">
						<file id="file-1"/>
						<name>bandicam 2025-06-02 00-01-10-144</name>
						<rate>
							<timebase>60</timebase>
							<ntsc>TRUE</ntsc>
						</rate>
						<rate>
							<timebase>60</timebase>
							<ntsc>TRUE</ntsc>
						</rate>
						<duration>0</duration>
						<start>1854</start>
						<end>1854</end>
						<in>1872</in>
						<out>1872</out>
					</clipitem>
					<clipitem frameBlend="FALSE" id="clipitem-718">
						<file id="file-1"/>
						<name>bandicam 2025-06-02 00-01-10-144</name>
						<rate>
							<timebase>60</timebase>
							<ntsc>TRUE</ntsc>
						</rate>
						<rate>
							<timebase>60</timebase>
							<ntsc>TRUE</ntsc>
						</rate>
						<duration>6</duration>
						<start>1872</start>
						<end>1878</end>
						<in>1884</in>
						<out>1890</out>
					</clipitem>
					<clipitem frameBlend="FALSE" id="clipitem-719">
						<file id="file-1"/>
						<name>bandicam 2025-06-02 00-01-10-144</name>
						<rate>
							<timebase>60</timebase>
							<ntsc>TRUE</ntsc>
						</rate>
						<rate>
							<timebase>60</timebase>
							<ntsc>TRUE</ntsc>
						</rate>
						<duration>12</duration>
						<start>1890</start>
						<end>1902</end>
						<in>1926</in>
						<out>1938</out>
					</clipitem>
					<clipitem frameBlend="FALSE" id="clipitem-720">
						<file id="file-1"/>
						<name>bandicam 2025-06-02 00-01-10-144</name>
						<rate>
							<timebase>60</timebase>
							<ntsc>TRUE</ntsc>
						</rate>
						<rate>
							<timebase>60</timebase>
							<ntsc>TRUE</ntsc>
						</rate>
						<duration>12</duration>
						<start>1938</start>
						<end>1950</end>
						<in>2178</in>
						<out>2190</out>
					</clipitem>
					<clipitem frameBlend="FALSE" id="clipitem-721">
						<file id="file-1"/>
						<name>bandicam 2025-06-02 00-01-10-144</name>
						<rate>
							<timebase>60</timebase>
							<ntsc>TRUE</ntsc>
						</rate>
						<rate>
							<timebase>60</timebase>
							<ntsc>TRUE</ntsc>
						</rate>
						<duration>12</duration>
						<start>2190</start>
						<end>2202</end>
						<in>2280</in>
						<out>2292</out>
					</clipitem>
					<clipitem frameBlend="FALSE" id="clipitem-722">
						<file id="file-1"/>
						<name>bandicam 2025-06-02 00-01-10-144</name>
						<rate>
							<timebase>60</timebase>
							<ntsc>TRUE</ntsc>
						</rate>
						<rate>
							<timebase>60</timebase>
							<ntsc>TRUE</ntsc>
						</rate>
						<duration>42</duration>
						<start>2292</start>
						<end>2334</end>
						<in>2304</in>
						<out>2346</out>
					</clipitem>
					<clipitem frameBlend="FALSE" id="clipitem-723">
						<file id="file-1"/>
						<name>bandicam 2025-06-02 00-01-10-144</name>
						<rate>
							<timebase>60</timebase>
							<ntsc>TRUE</ntsc>
						</rate>
						<rate>
							<timebase>60</timebase>
							<ntsc>TRUE</ntsc>
						</rate>
						<duration>12</duration>
						<start>2346</start>
						<end>2358</end>
						<in>2448</in>
						<out>2460</out>
					</clipitem>
					<clipitem frameBlend="FALSE" id="clipitem-724">
						<file id="file-1"/>
						<name>bandicam 2025-06-02 00-01-10-144</name>
						<rate>
							<timebase>60</timebase>
							<ntsc>TRUE</ntsc>
						</rate>
						<rate>
							<timebase>60</timebase>
							<ntsc>TRUE</ntsc>
						</rate>
						<duration>6</duration>
						<start>2460</start>
						<end>2466</end>
						<in>2478</in>
						<out>2484</out>
					</clipitem>
					<clipitem frameBlend="FALSE" id="clipitem-725">
						<file id="file-1"/>
						<name>bandicam 2025-06-02 00-01-10-144</name>
						<rate>
							<timebase>60</timebase>
							<ntsc>TRUE</ntsc>
						</rate>
						<rate>
							<timebase>60</timebase>
							<ntsc>TRUE</ntsc>
						</rate>
						<duration>6</duration>
						<start>2484</start>
						<end>2490</end>
						<in>2496</in>
						<out>2502</out>
					</clipitem>
					<clipitem frameBlend="FALSE" id="clipitem-726">
						<file id="file-1"/>
						<name>bandicam 2025-06-02 00-01-10-144</name>
						<rate>
							<timebase>60</timebase>
							<ntsc>TRUE</ntsc>
						</rate>
						<rate>
							<timebase>60</timebase>
							<ntsc>TRUE</ntsc>
						</rate>
						<duration>0</duration>
						<start>2502</start>
						<end>2502</end>
						<in>2538</in>
						<out>2538</out>
					</clipitem>
					<clipitem frameBlend="FALSE" id="clipitem-727">
						<file id="file-1"/>
						<name>bandicam 2025-06-02 00-01-10-144</name>
						<rate>
							<timebase>60</timebase>
							<ntsc>TRUE</ntsc>
						</rate>
						<rate>
							<timebase>60</timebase>
							<ntsc>TRUE</ntsc>
						</rate>
						<duration>12</duration>
						<start>2538</start>
						<end>2550</end>
						<in>2592</in>
						<out>2604</out>
					</clipitem>
					<clipitem frameBlend="FALSE" id="clipitem-728">
						<file id="file-1"/>
						<name>bandicam 2025-06-02 00-01-10-144</name>
						<rate>
							<timebase>60</timebase>
							<ntsc>TRUE</ntsc>
						</rate>
						<rate>
							<timebase>60</timebase>
							<ntsc>TRUE</ntsc>
						</rate>
						<duration>12</duration>
						<start>2604</start>
						<end>2616</end>
						<in>2616</in>
						<out>2628</out>
					</clipitem>
					<clipitem frameBlend="FALSE" id="clipitem-729">
						<file id="file-1"/>
						<name>bandicam 2025-06-02 00-01-10-144</name>
						<rate>
							<timebase>60</timebase>
							<ntsc>TRUE</ntsc>
						</rate>
						<rate>
							<timebase>60</timebase>
							<ntsc>TRUE</ntsc>
						</rate>
						<duration>0</duration>
						<start>2628</start>
						<end>2628</end>
						<in>2640</in>
						<out>2640</out>
					</clipitem>
					<clipitem frameBlend="FALSE" id="clipitem-730">
						<file id="file-1"/>
						<name>bandicam 2025-06-02 00-01-10-144</name>
						<rate>
							<timebase>60</timebase>
							<ntsc>TRUE</ntsc>
						</rate>
						<rate>
							<timebase>60</timebase>
							<ntsc>TRUE</ntsc>
						</rate>
						<duration>12</duration>
						<start>2640</start>
						<end>2652</end>
						<in>2652</in>
						<out>2664</out>
					</clipitem>
					<clipitem frameBlend="FALSE" id="clipitem-731">
						<file id="file-1"/>
						<name>bandicam 2025-06-02 00-01-10-144</name>
						<rate>
							<timebase>60</timebase>
							<ntsc>TRUE</ntsc>
						</rate>
						<rate>
							<timebase>60</timebase>
							<ntsc>TRUE</ntsc>
						</rate>
						<duration>48</duration>
						<start>2664</start>
						<end>2712</end>
						<in>2724</in>
						<out>2772</out>
					</clipitem>
					<clipitem frameBlend="FALSE" id="clipitem-732">
						<file id="file-1"/>
						<name>bandicam 2025-06-02 00-01-10-144</name>
						<rate>
							<timebase>60</timebase>
							<ntsc>TRUE</ntsc>
						</rate>
						<rate>
							<timebase>60</timebase>
							<ntsc>TRUE</ntsc>
						</rate>
						<duration>42</duration>
						<start>2772</start>
						<end>2814</end>
						<in>2796</in>
						<out>2838</out>
					</clipitem>
					<clipitem frameBlend="FALSE" id="clipitem-733">
						<file id="file-1"/>
						<name>bandicam 2025-06-02 00-01-10-144</name>
						<rate>
							<timebase>60</timebase>
							<ntsc>TRUE</ntsc>
						</rate>
						<rate>
							<timebase>60</timebase>
							<ntsc>TRUE</ntsc>
						</rate>
						<duration>18</duration>
						<start>2838</start>
						<end>2856</end>
						<in>2868</in>
						<out>2886</out>
					</clipitem>
					<clipitem frameBlend="FALSE" id="clipitem-734">
						<file id="file-1"/>
						<name>bandicam 2025-06-02 00-01-10-144</name>
						<rate>
							<timebase>60</timebase>
							<ntsc>TRUE</ntsc>
						</rate>
						<rate>
							<timebase>60</timebase>
							<ntsc>TRUE</ntsc>
						</rate>
						<duration>6</duration>
						<start>2886</start>
						<end>2892</end>
						<in>2904</in>
						<out>2910</out>
					</clipitem>
					<clipitem frameBlend="FALSE" id="clipitem-735">
						<file id="file-1"/>
						<name>bandicam 2025-06-02 00-01-10-144</name>
						<rate>
							<timebase>60</timebase>
							<ntsc>TRUE</ntsc>
						</rate>
						<rate>
							<timebase>60</timebase>
							<ntsc>TRUE</ntsc>
						</rate>
						<duration>0</duration>
						<start>2910</start>
						<end>2910</end>
						<in>2946</in>
						<out>2946</out>
					</clipitem>
					<clipitem frameBlend="FALSE" id="clipitem-736">
						<file id="file-1"/>
						<name>bandicam 2025-06-02 00-01-10-144</name>
						<rate>
							<timebase>60</timebase>
							<ntsc>TRUE</ntsc>
						</rate>
						<rate>
							<timebase>60</timebase>
							<ntsc>TRUE</ntsc>
						</rate>
						<duration>12</duration>
						<start>2946</start>
						<end>2958</end>
						<in>2964</in>
						<out>2976</out>
					</clipitem>
					<clipitem frameBlend="FALSE" id="clipitem-737">
						<file id="file-1"/>
						<name>bandicam 2025-06-02 00-01-10-144</name>
						<rate>
							<timebase>60</timebase>
							<ntsc>TRUE</ntsc>
						</rate>
						<rate>
							<timebase>60</timebase>
							<ntsc>TRUE</ntsc>
						</rate>
						<duration>42</duration>
						<start>2976</start>
						<end>3018</end>
						<in>3060</in>
						<out>3102</out>
					</clipitem>
					<clipitem frameBlend="FALSE" id="clipitem-738">
						<file id="file-1"/>
						<name>bandicam 2025-06-02 00-01-10-144</name>
						<rate>
							<timebase>60</timebase>
							<ntsc>TRUE</ntsc>
						</rate>
						<rate>
							<timebase>60</timebase>
							<ntsc>TRUE</ntsc>
						</rate>
						<duration>12</duration>
						<start>3102</start>
						<end>3114</end>
						<in>3120</in>
						<out>3132</out>
					</clipitem>
					<clipitem frameBlend="FALSE" id="clipitem-739">
						<file id="file-1"/>
						<name>bandicam 2025-06-02 00-01-10-144</name>
						<rate>
							<timebase>60</timebase>
							<ntsc>TRUE</ntsc>
						</rate>
						<rate>
							<timebase>60</timebase>
							<ntsc>TRUE</ntsc>
						</rate>
						<duration>12</duration>
						<start>3132</start>
						<end>3144</end>
						<in>3228</in>
						<out>3240</out>
					</clipitem>
					<clipitem frameBlend="FALSE" id="clipitem-740">
						<file id="file-1"/>
						<name>bandicam 2025-06-02 00-01-10-144</name>
						<rate>
							<timebase>60</timebase>
							<ntsc>TRUE</ntsc>
						</rate>
						<rate>
							<timebase>60</timebase>
							<ntsc>TRUE</ntsc>
						</rate>
						<duration>24</duration>
						<start>3240</start>
						<end>3264</end>
						<in>3270</in>
						<out>3294</out>
					</clipitem>
					<clipitem frameBlend="FALSE" id="clipitem-741">
						<file id="file-1"/>
						<name>bandicam 2025-06-02 00-01-10-144</name>
						<rate>
							<timebase>60</timebase>
							<ntsc>TRUE</ntsc>
						</rate>
						<rate>
							<timebase>60</timebase>
							<ntsc>TRUE</ntsc>
						</rate>
						<duration>0</duration>
						<start>3294</start>
						<end>3294</end>
						<in>3306</in>
						<out>3306</out>
					</clipitem>
					<clipitem frameBlend="FALSE" id="clipitem-742">
						<file id="file-1"/>
						<name>bandicam 2025-06-02 00-01-10-144</name>
						<rate>
							<timebase>60</timebase>
							<ntsc>TRUE</ntsc>
						</rate>
						<rate>
							<timebase>60</timebase>
							<ntsc>TRUE</ntsc>
						</rate>
						<duration>12</duration>
						<start>3306</start>
						<end>3318</end>
						<in>3372</in>
						<out>3384</out>
					</clipitem>
					<clipitem frameBlend="FALSE" id="clipitem-743">
						<file id="file-1"/>
						<name>bandicam 2025-06-02 00-01-10-144</name>
						<rate>
							<timebase>60</timebase>
							<ntsc>TRUE</ntsc>
						</rate>
						<rate>
							<timebase>60</timebase>
							<ntsc>TRUE</ntsc>
						</rate>
						<duration>24</duration>
						<start>3384</start>
						<end>3408</end>
						<in>3450</in>
						<out>3474</out>
					</clipitem>
					<clipitem frameBlend="FALSE" id="clipitem-744">
						<file id="file-1"/>
						<name>bandicam 2025-06-02 00-01-10-144</name>
						<rate>
							<timebase>60</timebase>
							<ntsc>TRUE</ntsc>
						</rate>
						<rate>
							<timebase>60</timebase>
							<ntsc>TRUE</ntsc>
						</rate>
						<duration>12</duration>
						<start>3474</start>
						<end>3486</end>
						<in>3498</in>
						<out>3510</out>
					</clipitem>
					<clipitem frameBlend="FALSE" id="clipitem-745">
						<file id="file-1"/>
						<name>bandicam 2025-06-02 00-01-10-144</name>
						<rate>
							<timebase>60</timebase>
							<ntsc>TRUE</ntsc>
						</rate>
						<rate>
							<timebase>60</timebase>
							<ntsc>TRUE</ntsc>
						</rate>
						<duration>0</duration>
						<start>3510</start>
						<end>3510</end>
						<in>3582</in>
						<out>3582</out>
					</clipitem>
					<clipitem frameBlend="FALSE" id="clipitem-746">
						<file id="file-1"/>
						<name>bandicam 2025-06-02 00-01-10-144</name>
						<rate>
							<timebase>60</timebase>
							<ntsc>TRUE</ntsc>
						</rate>
						<rate>
							<timebase>60</timebase>
							<ntsc>TRUE</ntsc>
						</rate>
						<duration>18</duration>
						<start>3582</start>
						<end>3600</end>
						<in>3624</in>
						<out>3642</out>
					</clipitem>
					<clipitem frameBlend="FALSE" id="clipitem-747">
						<file id="file-1"/>
						<name>bandicam 2025-06-02 00-01-10-144</name>
						<rate>
							<timebase>60</timebase>
							<ntsc>TRUE</ntsc>
						</rate>
						<rate>
							<timebase>60</timebase>
							<ntsc>TRUE</ntsc>
						</rate>
						<duration>0</duration>
						<start>3642</start>
						<end>3642</end>
						<in>3696</in>
						<out>3696</out>
					</clipitem>
					<clipitem frameBlend="FALSE" id="clipitem-748">
						<file id="file-1"/>
						<name>bandicam 2025-06-02 00-01-10-144</name>
						<rate>
							<timebase>60</timebase>
							<ntsc>TRUE</ntsc>
						</rate>
						<rate>
							<timebase>60</timebase>
							<ntsc>TRUE</ntsc>
						</rate>
						<duration>12</duration>
						<start>3696</start>
						<end>3708</end>
						<in>3768</in>
						<out>3780</out>
					</clipitem>
					<clipitem frameBlend="FALSE" id="clipitem-749">
						<file id="file-1"/>
						<name>bandicam 2025-06-02 00-01-10-144</name>
						<rate>
							<timebase>60</timebase>
							<ntsc>TRUE</ntsc>
						</rate>
						<rate>
							<timebase>60</timebase>
							<ntsc>TRUE</ntsc>
						</rate>
						<duration>12</duration>
						<start>3780</start>
						<end>3792</end>
						<in>3852</in>
						<out>3864</out>
					</clipitem>
					<clipitem frameBlend="FALSE" id="clipitem-750">
						<file id="file-1"/>
						<name>bandicam 2025-06-02 00-01-10-144</name>
						<rate>
							<timebase>60</timebase>
							<ntsc>TRUE</ntsc>
						</rate>
						<rate>
							<timebase>60</timebase>
							<ntsc>TRUE</ntsc>
						</rate>
						<duration>12</duration>
						<start>3864</start>
						<end>3876</end>
						<in>3906</in>
						<out>3918</out>
					</clipitem>
					<clipitem frameBlend="FALSE" id="clipitem-751">
						<file id="file-1"/>
						<name>bandicam 2025-06-02 00-01-10-144</name>
						<rate>
							<timebase>60</timebase>
							<ntsc>TRUE</ntsc>
						</rate>
						<rate>
							<timebase>60</timebase>
							<ntsc>TRUE</ntsc>
						</rate>
						<duration>6</duration>
						<start>3918</start>
						<end>3924</end>
						<in>4026</in>
						<out>4032</out>
					</clipitem>
					<clipitem frameBlend="FALSE" id="clipitem-752">
						<file id="file-1"/>
						<name>bandicam 2025-06-02 00-01-10-144</name>
						<rate>
							<timebase>60</timebase>
							<ntsc>TRUE</ntsc>
						</rate>
						<rate>
							<timebase>60</timebase>
							<ntsc>TRUE</ntsc>
						</rate>
						<duration>0</duration>
						<start>4032</start>
						<end>4032</end>
						<in>4044</in>
						<out>4044</out>
					</clipitem>
					<clipitem frameBlend="FALSE" id="clipitem-753">
						<file id="file-1"/>
						<name>bandicam 2025-06-02 00-01-10-144</name>
						<rate>
							<timebase>60</timebase>
							<ntsc>TRUE</ntsc>
						</rate>
						<rate>
							<timebase>60</timebase>
							<ntsc>TRUE</ntsc>
						</rate>
						<duration>24</duration>
						<start>4044</start>
						<end>4068</end>
						<in>4086</in>
						<out>4110</out>
					</clipitem>
					<clipitem frameBlend="FALSE" id="clipitem-754">
						<file id="file-1"/>
						<name>bandicam 2025-06-02 00-01-10-144</name>
						<rate>
							<timebase>60</timebase>
							<ntsc>TRUE</ntsc>
						</rate>
						<rate>
							<timebase>60</timebase>
							<ntsc>TRUE</ntsc>
						</rate>
						<duration>18</duration>
						<start>4110</start>
						<end>4128</end>
						<in>4128</in>
						<out>4146</out>
					</clipitem>
					<clipitem frameBlend="FALSE" id="clipitem-755">
						<file id="file-1"/>
						<name>bandicam 2025-06-02 00-01-10-144</name>
						<rate>
							<timebase>60</timebase>
							<ntsc>TRUE</ntsc>
						</rate>
						<rate>
							<timebase>60</timebase>
							<ntsc>TRUE</ntsc>
						</rate>
						<duration>6</duration>
						<start>4146</start>
						<end>4152</end>
						<in>4188</in>
						<out>4194</out>
					</clipitem>
					<clipitem frameBlend="FALSE" id="clipitem-756">
						<file id="file-1"/>
						<name>bandicam 2025-06-02 00-01-10-144</name>
						<rate>
							<timebase>60</timebase>
							<ntsc>TRUE</ntsc>
						</rate>
						<rate>
							<timebase>60</timebase>
							<ntsc>TRUE</ntsc>
						</rate>
						<duration>36</duration>
						<start>4194</start>
						<end>4230</end>
						<in>4230</in>
						<out>4266</out>
					</clipitem>
					<clipitem frameBlend="FALSE" id="clipitem-757">
						<file id="file-1"/>
						<name>bandicam 2025-06-02 00-01-10-144</name>
						<rate>
							<timebase>60</timebase>
							<ntsc>TRUE</ntsc>
						</rate>
						<rate>
							<timebase>60</timebase>
							<ntsc>TRUE</ntsc>
						</rate>
						<duration>132</duration>
						<start>4266</start>
						<end>4398</end>
						<in>4302</in>
						<out>4434</out>
					</clipitem>
					<clipitem frameBlend="FALSE" id="clipitem-758">
						<file id="file-1"/>
						<name>bandicam 2025-06-02 00-01-10-144</name>
						<rate>
							<timebase>60</timebase>
							<ntsc>TRUE</ntsc>
						</rate>
						<rate>
							<timebase>60</timebase>
							<ntsc>TRUE</ntsc>
						</rate>
						<duration>12</duration>
						<start>4434</start>
						<end>4446</end>
						<in>4470</in>
						<out>4482</out>
					</clipitem>
					<clipitem frameBlend="FALSE" id="clipitem-759">
						<file id="file-1"/>
						<name>bandicam 2025-06-02 00-01-10-144</name>
						<rate>
							<timebase>60</timebase>
							<ntsc>TRUE</ntsc>
						</rate>
						<rate>
							<timebase>60</timebase>
							<ntsc>TRUE</ntsc>
						</rate>
						<duration>48</duration>
						<start>4482</start>
						<end>4530</end>
						<in>4506</in>
						<out>4554</out>
					</clipitem>
					<clipitem frameBlend="FALSE" id="clipitem-760">
						<file id="file-1"/>
						<name>bandicam 2025-06-02 00-01-10-144</name>
						<rate>
							<timebase>60</timebase>
							<ntsc>TRUE</ntsc>
						</rate>
						<rate>
							<timebase>60</timebase>
							<ntsc>TRUE</ntsc>
						</rate>
						<duration>30</duration>
						<start>4554</start>
						<end>4584</end>
						<in>4602</in>
						<out>4632</out>
					</clipitem>
					<clipitem frameBlend="FALSE" id="clipitem-761">
						<file id="file-1"/>
						<name>bandicam 2025-06-02 00-01-10-144</name>
						<rate>
							<timebase>60</timebase>
							<ntsc>TRUE</ntsc>
						</rate>
						<rate>
							<timebase>60</timebase>
							<ntsc>TRUE</ntsc>
						</rate>
						<duration>12</duration>
						<start>4632</start>
						<end>4644</end>
						<in>4650</in>
						<out>4662</out>
					</clipitem>
					<clipitem frameBlend="FALSE" id="clipitem-762">
						<file id="file-1"/>
						<name>bandicam 2025-06-02 00-01-10-144</name>
						<rate>
							<timebase>60</timebase>
							<ntsc>TRUE</ntsc>
						</rate>
						<rate>
							<timebase>60</timebase>
							<ntsc>TRUE</ntsc>
						</rate>
						<duration>0</duration>
						<start>4662</start>
						<end>4662</end>
						<in>4704</in>
						<out>4704</out>
					</clipitem>
					<clipitem frameBlend="FALSE" id="clipitem-763">
						<file id="file-1"/>
						<name>bandicam 2025-06-02 00-01-10-144</name>
						<rate>
							<timebase>60</timebase>
							<ntsc>TRUE</ntsc>
						</rate>
						<rate>
							<timebase>60</timebase>
							<ntsc>TRUE</ntsc>
						</rate>
						<duration>48</duration>
						<start>4704</start>
						<end>4752</end>
						<in>4722</in>
						<out>4770</out>
					</clipitem>
					<clipitem frameBlend="FALSE" id="clipitem-764">
						<file id="file-1"/>
						<name>bandicam 2025-06-02 00-01-10-144</name>
						<rate>
							<timebase>60</timebase>
							<ntsc>TRUE</ntsc>
						</rate>
						<rate>
							<timebase>60</timebase>
							<ntsc>TRUE</ntsc>
						</rate>
						<duration>12</duration>
						<start>4770</start>
						<end>4782</end>
						<in>4788</in>
						<out>4800</out>
					</clipitem>
					<clipitem frameBlend="FALSE" id="clipitem-765">
						<file id="file-1"/>
						<name>bandicam 2025-06-02 00-01-10-144</name>
						<rate>
							<timebase>60</timebase>
							<ntsc>TRUE</ntsc>
						</rate>
						<rate>
							<timebase>60</timebase>
							<ntsc>TRUE</ntsc>
						</rate>
						<duration>0</duration>
						<start>4800</start>
						<end>4800</end>
						<in>4848</in>
						<out>4848</out>
					</clipitem>
					<clipitem frameBlend="FALSE" id="clipitem-766">
						<file id="file-1"/>
						<name>bandicam 2025-06-02 00-01-10-144</name>
						<rate>
							<timebase>60</timebase>
							<ntsc>TRUE</ntsc>
						</rate>
						<rate>
							<timebase>60</timebase>
							<ntsc>TRUE</ntsc>
						</rate>
						<duration>12</duration>
						<start>4848</start>
						<end>4860</end>
						<in>4860</in>
						<out>4872</out>
					</clipitem>
					<clipitem frameBlend="FALSE" id="clipitem-767">
						<file id="file-1"/>
						<name>bandicam 2025-06-02 00-01-10-144</name>
						<rate>
							<timebase>60</timebase>
							<ntsc>TRUE</ntsc>
						</rate>
						<rate>
							<timebase>60</timebase>
							<ntsc>TRUE</ntsc>
						</rate>
						<duration>6</duration>
						<start>4872</start>
						<end>4878</end>
						<in>4890</in>
						<out>4896</out>
					</clipitem>
					<clipitem frameBlend="FALSE" id="clipitem-768">
						<file id="file-1"/>
						<name>bandicam 2025-06-02 00-01-10-144</name>
						<rate>
							<timebase>60</timebase>
							<ntsc>TRUE</ntsc>
						</rate>
						<rate>
							<timebase>60</timebase>
							<ntsc>TRUE</ntsc>
						</rate>
						<duration>12</duration>
						<start>4896</start>
						<end>4908</end>
						<in>4908</in>
						<out>4920</out>
					</clipitem>
					<clipitem frameBlend="FALSE" id="clipitem-769">
						<file id="file-1"/>
						<name>bandicam 2025-06-02 00-01-10-144</name>
						<rate>
							<timebase>60</timebase>
							<ntsc>TRUE</ntsc>
						</rate>
						<rate>
							<timebase>60</timebase>
							<ntsc>TRUE</ntsc>
						</rate>
						<duration>12</duration>
						<start>4920</start>
						<end>4932</end>
						<in>4944</in>
						<out>4956</out>
					</clipitem>
					<clipitem frameBlend="FALSE" id="clipitem-770">
						<file id="file-1"/>
						<name>bandicam 2025-06-02 00-01-10-144</name>
						<rate>
							<timebase>60</timebase>
							<ntsc>TRUE</ntsc>
						</rate>
						<rate>
							<timebase>60</timebase>
							<ntsc>TRUE</ntsc>
						</rate>
						<duration>6</duration>
						<start>4956</start>
						<end>4962</end>
						<in>4968</in>
						<out>4974</out>
					</clipitem>
					<clipitem frameBlend="FALSE" id="clipitem-771">
						<file id="file-1"/>
						<name>bandicam 2025-06-02 00-01-10-144</name>
						<rate>
							<timebase>60</timebase>
							<ntsc>TRUE</ntsc>
						</rate>
						<rate>
							<timebase>60</timebase>
							<ntsc>TRUE</ntsc>
						</rate>
						<duration>12</duration>
						<start>4974</start>
						<end>4986</end>
						<in>5022</in>
						<out>5034</out>
					</clipitem>
					<clipitem frameBlend="FALSE" id="clipitem-772">
						<file id="file-1"/>
						<name>bandicam 2025-06-02 00-01-10-144</name>
						<rate>
							<timebase>60</timebase>
							<ntsc>TRUE</ntsc>
						</rate>
						<rate>
							<timebase>60</timebase>
							<ntsc>TRUE</ntsc>
						</rate>
						<duration>6</duration>
						<start>5034</start>
						<end>5040</end>
						<in>5064</in>
						<out>5070</out>
					</clipitem>
					<clipitem frameBlend="FALSE" id="clipitem-773">
						<file id="file-1"/>
						<name>bandicam 2025-06-02 00-01-10-144</name>
						<rate>
							<timebase>60</timebase>
							<ntsc>TRUE</ntsc>
						</rate>
						<rate>
							<timebase>60</timebase>
							<ntsc>TRUE</ntsc>
						</rate>
						<duration>0</duration>
						<start>5070</start>
						<end>5070</end>
						<in>5082</in>
						<out>5082</out>
					</clipitem>
					<clipitem frameBlend="FALSE" id="clipitem-774">
						<file id="file-1"/>
						<name>bandicam 2025-06-02 00-01-10-144</name>
						<rate>
							<timebase>60</timebase>
							<ntsc>TRUE</ntsc>
						</rate>
						<rate>
							<timebase>60</timebase>
							<ntsc>TRUE</ntsc>
						</rate>
						<duration>84</duration>
						<start>5082</start>
						<end>5166</end>
						<in>5094</in>
						<out>5178</out>
					</clipitem>
					<clipitem frameBlend="FALSE" id="clipitem-775">
						<file id="file-1"/>
						<name>bandicam 2025-06-02 00-01-10-144</name>
						<rate>
							<timebase>60</timebase>
							<ntsc>TRUE</ntsc>
						</rate>
						<rate>
							<timebase>60</timebase>
							<ntsc>TRUE</ntsc>
						</rate>
						<duration>12</duration>
						<start>5178</start>
						<end>5190</end>
						<in>5232</in>
						<out>5244</out>
					</clipitem>
					<clipitem frameBlend="FALSE" id="clipitem-776">
						<file id="file-1"/>
						<name>bandicam 2025-06-02 00-01-10-144</name>
						<rate>
							<timebase>60</timebase>
							<ntsc>TRUE</ntsc>
						</rate>
						<rate>
							<timebase>60</timebase>
							<ntsc>TRUE</ntsc>
						</rate>
						<duration>12</duration>
						<start>5244</start>
						<end>5256</end>
						<in>5328</in>
						<out>5340</out>
					</clipitem>
					<clipitem frameBlend="FALSE" id="clipitem-777">
						<file id="file-1"/>
						<name>bandicam 2025-06-02 00-01-10-144</name>
						<rate>
							<timebase>60</timebase>
							<ntsc>TRUE</ntsc>
						</rate>
						<rate>
							<timebase>60</timebase>
							<ntsc>TRUE</ntsc>
						</rate>
						<duration>12</duration>
						<start>5340</start>
						<end>5352</end>
						<in>5382</in>
						<out>5394</out>
					</clipitem>
					<clipitem frameBlend="FALSE" id="clipitem-778">
						<file id="file-1"/>
						<name>bandicam 2025-06-02 00-01-10-144</name>
						<rate>
							<timebase>60</timebase>
							<ntsc>TRUE</ntsc>
						</rate>
						<rate>
							<timebase>60</timebase>
							<ntsc>TRUE</ntsc>
						</rate>
						<duration>36</duration>
						<start>5394</start>
						<end>5430</end>
						<in>5412</in>
						<out>5448</out>
					</clipitem>
					<clipitem frameBlend="FALSE" id="clipitem-779">
						<file id="file-1"/>
						<name>bandicam 2025-06-02 00-01-10-144</name>
						<rate>
							<timebase>60</timebase>
							<ntsc>TRUE</ntsc>
						</rate>
						<rate>
							<timebase>60</timebase>
							<ntsc>TRUE</ntsc>
						</rate>
						<duration>0</duration>
						<start>5448</start>
						<end>5448</end>
						<in>5466</in>
						<out>5466</out>
					</clipitem>
					<clipitem frameBlend="FALSE" id="clipitem-780">
						<file id="file-1"/>
						<name>bandicam 2025-06-02 00-01-10-144</name>
						<rate>
							<timebase>60</timebase>
							<ntsc>TRUE</ntsc>
						</rate>
						<rate>
							<timebase>60</timebase>
							<ntsc>TRUE</ntsc>
						</rate>
						<duration>12</duration>
						<start>5466</start>
						<end>5478</end>
						<in>5490</in>
						<out>5502</out>
					</clipitem>
					<clipitem frameBlend="FALSE" id="clipitem-781">
						<file id="file-1"/>
						<name>bandicam 2025-06-02 00-01-10-144</name>
						<rate>
							<timebase>60</timebase>
							<ntsc>TRUE</ntsc>
						</rate>
						<rate>
							<timebase>60</timebase>
							<ntsc>TRUE</ntsc>
						</rate>
						<duration>0</duration>
						<start>5502</start>
						<end>5502</end>
						<in>5520</in>
						<out>5520</out>
					</clipitem>
					<clipitem frameBlend="FALSE" id="clipitem-782">
						<file id="file-1"/>
						<name>bandicam 2025-06-02 00-01-10-144</name>
						<rate>
							<timebase>60</timebase>
							<ntsc>TRUE</ntsc>
						</rate>
						<rate>
							<timebase>60</timebase>
							<ntsc>TRUE</ntsc>
						</rate>
						<duration>0</duration>
						<start>5520</start>
						<end>5520</end>
						<in>5532</in>
						<out>5532</out>
					</clipitem>
					<clipitem frameBlend="FALSE" id="clipitem-783">
						<file id="file-1"/>
						<name>bandicam 2025-06-02 00-01-10-144</name>
						<rate>
							<timebase>60</timebase>
							<ntsc>TRUE</ntsc>
						</rate>
						<rate>
							<timebase>60</timebase>
							<ntsc>TRUE</ntsc>
						</rate>
						<duration>6</duration>
						<start>5532</start>
						<end>5538</end>
						<in>5586</in>
						<out>5592</out>
					</clipitem>
					<clipitem frameBlend="FALSE" id="clipitem-784">
						<file id="file-1"/>
						<name>bandicam 2025-06-02 00-01-10-144</name>
						<rate>
							<timebase>60</timebase>
							<ntsc>TRUE</ntsc>
						</rate>
						<rate>
							<timebase>60</timebase>
							<ntsc>TRUE</ntsc>
						</rate>
						<duration>12</duration>
						<start>5592</start>
						<end>5604</end>
						<in>5628</in>
						<out>5640</out>
					</clipitem>
					<clipitem frameBlend="FALSE" id="clipitem-785">
						<file id="file-1"/>
						<name>bandicam 2025-06-02 00-01-10-144</name>
						<rate>
							<timebase>60</timebase>
							<ntsc>TRUE</ntsc>
						</rate>
						<rate>
							<timebase>60</timebase>
							<ntsc>TRUE</ntsc>
						</rate>
						<duration>30</duration>
						<start>5640</start>
						<end>5670</end>
						<in>5664</in>
						<out>5694</out>
					</clipitem>
					<clipitem frameBlend="FALSE" id="clipitem-786">
						<file id="file-1"/>
						<name>bandicam 2025-06-02 00-01-10-144</name>
						<rate>
							<timebase>60</timebase>
							<ntsc>TRUE</ntsc>
						</rate>
						<rate>
							<timebase>60</timebase>
							<ntsc>TRUE</ntsc>
						</rate>
						<duration>24</duration>
						<start>5694</start>
						<end>5718</end>
						<in>5754</in>
						<out>5778</out>
					</clipitem>
					<clipitem frameBlend="FALSE" id="clipitem-787">
						<file id="file-1"/>
						<name>bandicam 2025-06-02 00-01-10-144</name>
						<rate>
							<timebase>60</timebase>
							<ntsc>TRUE</ntsc>
						</rate>
						<rate>
							<timebase>60</timebase>
							<ntsc>TRUE</ntsc>
						</rate>
						<duration>90</duration>
						<start>5778</start>
						<end>5868</end>
						<in>5802</in>
						<out>5892</out>
					</clipitem>
					<clipitem frameBlend="FALSE" id="clipitem-788">
						<file id="file-1"/>
						<name>bandicam 2025-06-02 00-01-10-144</name>
						<rate>
							<timebase>60</timebase>
							<ntsc>TRUE</ntsc>
						</rate>
						<rate>
							<timebase>60</timebase>
							<ntsc>TRUE</ntsc>
						</rate>
						<duration>66</duration>
						<start>5892</start>
						<end>5958</end>
						<in>5910</in>
						<out>5976</out>
					</clipitem>
					<clipitem frameBlend="FALSE" id="clipitem-789">
						<file id="file-1"/>
						<name>bandicam 2025-06-02 00-01-10-144</name>
						<rate>
							<timebase>60</timebase>
							<ntsc>TRUE</ntsc>
						</rate>
						<rate>
							<timebase>60</timebase>
							<ntsc>TRUE</ntsc>
						</rate>
						<duration>36</duration>
						<start>5976</start>
						<end>6012</end>
						<in>6000</in>
						<out>6036</out>
					</clipitem>
					<clipitem frameBlend="FALSE" id="clipitem-790">
						<file id="file-1"/>
						<name>bandicam 2025-06-02 00-01-10-144</name>
						<rate>
							<timebase>60</timebase>
							<ntsc>TRUE</ntsc>
						</rate>
						<rate>
							<timebase>60</timebase>
							<ntsc>TRUE</ntsc>
						</rate>
						<duration>12</duration>
						<start>6036</start>
						<end>6048</end>
						<in>6054</in>
						<out>6066</out>
					</clipitem>
					<clipitem frameBlend="FALSE" id="clipitem-791">
						<file id="file-1"/>
						<name>bandicam 2025-06-02 00-01-10-144</name>
						<rate>
							<timebase>60</timebase>
							<ntsc>TRUE</ntsc>
						</rate>
						<rate>
							<timebase>60</timebase>
							<ntsc>TRUE</ntsc>
						</rate>
						<duration>0</duration>
						<start>6066</start>
						<end>6066</end>
						<in>6132</in>
						<out>6132</out>
					</clipitem>
					<clipitem frameBlend="FALSE" id="clipitem-792">
						<file id="file-1"/>
						<name>bandicam 2025-06-02 00-01-10-144</name>
						<rate>
							<timebase>60</timebase>
							<ntsc>TRUE</ntsc>
						</rate>
						<rate>
							<timebase>60</timebase>
							<ntsc>TRUE</ntsc>
						</rate>
						<duration>48</duration>
						<start>6132</start>
						<end>6180</end>
						<in>6156</in>
						<out>6204</out>
					</clipitem>
					<clipitem frameBlend="FALSE" id="clipitem-793">
						<file id="file-1"/>
						<name>bandicam 2025-06-02 00-01-10-144</name>
						<rate>
							<timebase>60</timebase>
							<ntsc>TRUE</ntsc>
						</rate>
						<rate>
							<timebase>60</timebase>
							<ntsc>TRUE</ntsc>
						</rate>
						<duration>18</duration>
						<start>6204</start>
						<end>6222</end>
						<in>6234</in>
						<out>6252</out>
					</clipitem>
					<clipitem frameBlend="FALSE" id="clipitem-794">
						<file id="file-1"/>
						<name>bandicam 2025-06-02 00-01-10-144</name>
						<rate>
							<timebase>60</timebase>
							<ntsc>TRUE</ntsc>
						</rate>
						<rate>
							<timebase>60</timebase>
							<ntsc>TRUE</ntsc>
						</rate>
						<duration>0</duration>
						<start>6252</start>
						<end>6252</end>
						<in>6282</in>
						<out>6282</out>
					</clipitem>
					<clipitem frameBlend="FALSE" id="clipitem-795">
						<file id="file-1"/>
						<name>bandicam 2025-06-02 00-01-10-144</name>
						<rate>
							<timebase>60</timebase>
							<ntsc>TRUE</ntsc>
						</rate>
						<rate>
							<timebase>60</timebase>
							<ntsc>TRUE</ntsc>
						</rate>
						<duration>12</duration>
						<start>6282</start>
						<end>6294</end>
						<in>6312</in>
						<out>6324</out>
					</clipitem>
					<clipitem frameBlend="FALSE" id="clipitem-796">
						<file id="file-1"/>
						<name>bandicam 2025-06-02 00-01-10-144</name>
						<rate>
							<timebase>60</timebase>
							<ntsc>TRUE</ntsc>
						</rate>
						<rate>
							<timebase>60</timebase>
							<ntsc>TRUE</ntsc>
						</rate>
						<duration>12</duration>
						<start>6324</start>
						<end>6336</end>
						<in>6384</in>
						<out>6396</out>
					</clipitem>
					<clipitem frameBlend="FALSE" id="clipitem-797">
						<file id="file-1"/>
						<name>bandicam 2025-06-02 00-01-10-144</name>
						<rate>
							<timebase>60</timebase>
							<ntsc>TRUE</ntsc>
						</rate>
						<rate>
							<timebase>60</timebase>
							<ntsc>TRUE</ntsc>
						</rate>
						<duration>12</duration>
						<start>6396</start>
						<end>6408</end>
						<in>6432</in>
						<out>6444</out>
					</clipitem>
					<clipitem frameBlend="FALSE" id="clipitem-798">
						<file id="file-1"/>
						<name>bandicam 2025-06-02 00-01-10-144</name>
						<rate>
							<timebase>60</timebase>
							<ntsc>TRUE</ntsc>
						</rate>
						<rate>
							<timebase>60</timebase>
							<ntsc>TRUE</ntsc>
						</rate>
						<duration>0</duration>
						<start>6444</start>
						<end>6444</end>
						<in>6486</in>
						<out>6486</out>
					</clipitem>
					<clipitem frameBlend="FALSE" id="clipitem-799">
						<file id="file-1"/>
						<name>bandicam 2025-06-02 00-01-10-144</name>
						<rate>
							<timebase>60</timebase>
							<ntsc>TRUE</ntsc>
						</rate>
						<rate>
							<timebase>60</timebase>
							<ntsc>TRUE</ntsc>
						</rate>
						<duration>36</duration>
						<start>6486</start>
						<end>6522</end>
						<in>6498</in>
						<out>6534</out>
					</clipitem>
					<clipitem frameBlend="FALSE" id="clipitem-800">
						<file id="file-1"/>
						<name>bandicam 2025-06-02 00-01-10-144</name>
						<rate>
							<timebase>60</timebase>
							<ntsc>TRUE</ntsc>
						</rate>
						<rate>
							<timebase>60</timebase>
							<ntsc>TRUE</ntsc>
						</rate>
						<duration>0</duration>
						<start>6534</start>
						<end>6534</end>
						<in>6576</in>
						<out>6576</out>
					</clipitem>
					<clipitem frameBlend="FALSE" id="clipitem-801">
						<file id="file-1"/>
						<name>bandicam 2025-06-02 00-01-10-144</name>
						<rate>
							<timebase>60</timebase>
							<ntsc>TRUE</ntsc>
						</rate>
						<rate>
							<timebase>60</timebase>
							<ntsc>TRUE</ntsc>
						</rate>
						<duration>12</duration>
						<start>6576</start>
						<end>6588</end>
						<in>6612</in>
						<out>6624</out>
					</clipitem>
					<clipitem frameBlend="FALSE" id="clipitem-802">
						<file id="file-1"/>
						<name>bandicam 2025-06-02 00-01-10-144</name>
						<rate>
							<timebase>60</timebase>
							<ntsc>TRUE</ntsc>
						</rate>
						<rate>
							<timebase>60</timebase>
							<ntsc>TRUE</ntsc>
						</rate>
						<duration>0</duration>
						<start>6624</start>
						<end>6624</end>
						<in>6750</in>
						<out>6750</out>
					</clipitem>
					<clipitem frameBlend="FALSE" id="clipitem-803">
						<file id="file-1"/>
						<name>bandicam 2025-06-02 00-01-10-144</name>
						<rate>
							<timebase>60</timebase>
							<ntsc>TRUE</ntsc>
						</rate>
						<rate>
							<timebase>60</timebase>
							<ntsc>TRUE</ntsc>
						</rate>
						<duration>0</duration>
						<start>6750</start>
						<end>6750</end>
						<in>6762</in>
						<out>6762</out>
					</clipitem>
					<clipitem frameBlend="FALSE" id="clipitem-804">
						<file id="file-1"/>
						<name>bandicam 2025-06-02 00-01-10-144</name>
						<rate>
							<timebase>60</timebase>
							<ntsc>TRUE</ntsc>
						</rate>
						<rate>
							<timebase>60</timebase>
							<ntsc>TRUE</ntsc>
						</rate>
						<duration>6</duration>
						<start>6762</start>
						<end>6768</end>
						<in>6810</in>
						<out>6816</out>
					</clipitem>
					<clipitem frameBlend="FALSE" id="clipitem-805">
						<file id="file-1"/>
						<name>bandicam 2025-06-02 00-01-10-144</name>
						<rate>
							<timebase>60</timebase>
							<ntsc>TRUE</ntsc>
						</rate>
						<rate>
							<timebase>60</timebase>
							<ntsc>TRUE</ntsc>
						</rate>
						<duration>12</duration>
						<start>6816</start>
						<end>6828</end>
						<in>6828</in>
						<out>6840</out>
					</clipitem>
					<clipitem frameBlend="FALSE" id="clipitem-806">
						<file id="file-1"/>
						<name>bandicam 2025-06-02 00-01-10-144</name>
						<rate>
							<timebase>60</timebase>
							<ntsc>TRUE</ntsc>
						</rate>
						<rate>
							<timebase>60</timebase>
							<ntsc>TRUE</ntsc>
						</rate>
						<duration>6</duration>
						<start>6840</start>
						<end>6846</end>
						<in>6894</in>
						<out>6900</out>
					</clipitem>
					<clipitem frameBlend="FALSE" id="clipitem-807">
						<file id="file-1"/>
						<name>bandicam 2025-06-02 00-01-10-144</name>
						<rate>
							<timebase>60</timebase>
							<ntsc>TRUE</ntsc>
						</rate>
						<rate>
							<timebase>60</timebase>
							<ntsc>TRUE</ntsc>
						</rate>
						<duration>12</duration>
						<start>6900</start>
						<end>6912</end>
						<in>6912</in>
						<out>6924</out>
					</clipitem>
					<clipitem frameBlend="FALSE" id="clipitem-808">
						<file id="file-1"/>
						<name>bandicam 2025-06-02 00-01-10-144</name>
						<rate>
							<timebase>60</timebase>
							<ntsc>TRUE</ntsc>
						</rate>
						<rate>
							<timebase>60</timebase>
							<ntsc>TRUE</ntsc>
						</rate>
						<duration>0</duration>
						<start>6924</start>
						<end>6924</end>
						<in>6954</in>
						<out>6954</out>
					</clipitem>
					<clipitem frameBlend="FALSE" id="clipitem-809">
						<file id="file-1"/>
						<name>bandicam 2025-06-02 00-01-10-144</name>
						<rate>
							<timebase>60</timebase>
							<ntsc>TRUE</ntsc>
						</rate>
						<rate>
							<timebase>60</timebase>
							<ntsc>TRUE</ntsc>
						</rate>
						<duration>0</duration>
						<start>6954</start>
						<end>6954</end>
						<in>7002</in>
						<out>7002</out>
					</clipitem>
					<clipitem frameBlend="FALSE" id="clipitem-810">
						<file id="file-1"/>
						<name>bandicam 2025-06-02 00-01-10-144</name>
						<rate>
							<timebase>60</timebase>
							<ntsc>TRUE</ntsc>
						</rate>
						<rate>
							<timebase>60</timebase>
							<ntsc>TRUE</ntsc>
						</rate>
						<duration>12</duration>
						<start>7002</start>
						<end>7014</end>
						<in>7026</in>
						<out>7038</out>
					</clipitem>
					<clipitem frameBlend="FALSE" id="clipitem-811">
						<file id="file-1"/>
						<name>bandicam 2025-06-02 00-01-10-144</name>
						<rate>
							<timebase>60</timebase>
							<ntsc>TRUE</ntsc>
						</rate>
						<rate>
							<timebase>60</timebase>
							<ntsc>TRUE</ntsc>
						</rate>
						<duration>0</duration>
						<start>7038</start>
						<end>7038</end>
						<in>3276</in>
						<out>3276</out>
					</clipitem>
					<clipitem frameBlend="FALSE" id="clipitem-812">
						<file id="file-1"/>
						<name>bandicam 2025-06-02 00-01-10-144</name>
						<rate>
							<timebase>60</timebase>
							<ntsc>TRUE</ntsc>
						</rate>
						<rate>
							<timebase>60</timebase>
							<ntsc>TRUE</ntsc>
						</rate>
						<duration>30</duration>
						<start>3276</start>
						<end>3306</end>
						<in>12</in>
						<out>42</out>
					</clipitem>
					<clipitem frameBlend="FALSE" id="clipitem-813">
						<file id="file-1"/>
						<name>bandicam 2025-06-02 00-01-10-144</name>
						<rate>
							<timebase>60</timebase>
							<ntsc>TRUE</ntsc>
						</rate>
						<rate>
							<timebase>60</timebase>
							<ntsc>TRUE</ntsc>
						</rate>
						<duration>36</duration>
						<start>42</start>
						<end>78</end>
						<in>54</in>
						<out>90</out>
					</clipitem>
					<clipitem frameBlend="FALSE" id="clipitem-814">
						<file id="file-1"/>
						<name>bandicam 2025-06-02 00-01-10-144</name>
						<rate>
							<timebase>60</timebase>
							<ntsc>TRUE</ntsc>
						</rate>
						<rate>
							<timebase>60</timebase>
							<ntsc>TRUE</ntsc>
						</rate>
						<duration>18</duration>
						<start>90</start>
						<end>108</end>
						<in>108</in>
						<out>126</out>
					</clipitem>
					<clipitem frameBlend="FALSE" id="clipitem-815">
						<file id="file-1"/>
						<name>bandicam 2025-06-02 00-01-10-144</name>
						<rate>
							<timebase>60</timebase>
							<ntsc>TRUE</ntsc>
						</rate>
						<rate>
							<timebase>60</timebase>
							<ntsc>TRUE</ntsc>
						</rate>
						<duration>0</duration>
						<start>126</start>
						<end>126</end>
						<in>156</in>
						<out>156</out>
					</clipitem>
					<clipitem frameBlend="FALSE" id="clipitem-816">
						<file id="file-1"/>
						<name>bandicam 2025-06-02 00-01-10-144</name>
						<rate>
							<timebase>60</timebase>
							<ntsc>TRUE</ntsc>
						</rate>
						<rate>
							<timebase>60</timebase>
							<ntsc>TRUE</ntsc>
						</rate>
						<duration>24</duration>
						<start>156</start>
						<end>180</end>
						<in>174</in>
						<out>198</out>
					</clipitem>
					<clipitem frameBlend="FALSE" id="clipitem-817">
						<file id="file-1"/>
						<name>bandicam 2025-06-02 00-01-10-144</name>
						<rate>
							<timebase>60</timebase>
							<ntsc>TRUE</ntsc>
						</rate>
						<rate>
							<timebase>60</timebase>
							<ntsc>TRUE</ntsc>
						</rate>
						<duration>0</duration>
						<start>198</start>
						<end>198</end>
						<in>300</in>
						<out>300</out>
					</clipitem>
					<clipitem frameBlend="FALSE" id="clipitem-818">
						<file id="file-1"/>
						<name>bandicam 2025-06-02 00-01-10-144</name>
						<rate>
							<timebase>60</timebase>
							<ntsc>TRUE</ntsc>
						</rate>
						<rate>
							<timebase>60</timebase>
							<ntsc>TRUE</ntsc>
						</rate>
						<duration>30</duration>
						<start>300</start>
						<end>330</end>
						<in>360</in>
						<out>390</out>
					</clipitem>
					<clipitem frameBlend="FALSE" id="clipitem-819">
						<file id="file-1"/>
						<name>bandicam 2025-06-02 00-01-10-144</name>
						<rate>
							<timebase>60</timebase>
							<ntsc>TRUE</ntsc>
						</rate>
						<rate>
							<timebase>60</timebase>
							<ntsc>TRUE</ntsc>
						</rate>
						<duration>0</duration>
						<start>390</start>
						<end>390</end>
						<in>438</in>
						<out>438</out>
					</clipitem>
					<clipitem frameBlend="FALSE" id="clipitem-820">
						<file id="file-1"/>
						<name>bandicam 2025-06-02 00-01-10-144</name>
						<rate>
							<timebase>60</timebase>
							<ntsc>TRUE</ntsc>
						</rate>
						<rate>
							<timebase>60</timebase>
							<ntsc>TRUE</ntsc>
						</rate>
						<duration>42</duration>
						<start>438</start>
						<end>480</end>
						<in>450</in>
						<out>492</out>
					</clipitem>
					<clipitem frameBlend="FALSE" id="clipitem-821">
						<file id="file-1"/>
						<name>bandicam 2025-06-02 00-01-10-144</name>
						<rate>
							<timebase>60</timebase>
							<ntsc>TRUE</ntsc>
						</rate>
						<rate>
							<timebase>60</timebase>
							<ntsc>TRUE</ntsc>
						</rate>
						<duration>0</duration>
						<start>492</start>
						<end>492</end>
						<in>504</in>
						<out>504</out>
					</clipitem>
					<clipitem frameBlend="FALSE" id="clipitem-822">
						<file id="file-1"/>
						<name>bandicam 2025-06-02 00-01-10-144</name>
						<rate>
							<timebase>60</timebase>
							<ntsc>TRUE</ntsc>
						</rate>
						<rate>
							<timebase>60</timebase>
							<ntsc>TRUE</ntsc>
						</rate>
						<duration>42</duration>
						<start>504</start>
						<end>546</end>
						<in>528</in>
						<out>570</out>
					</clipitem>
					<clipitem frameBlend="FALSE" id="clipitem-823">
						<file id="file-1"/>
						<name>bandicam 2025-06-02 00-01-10-144</name>
						<rate>
							<timebase>60</timebase>
							<ntsc>TRUE</ntsc>
						</rate>
						<rate>
							<timebase>60</timebase>
							<ntsc>TRUE</ntsc>
						</rate>
						<duration>24</duration>
						<start>570</start>
						<end>594</end>
						<in>582</in>
						<out>606</out>
					</clipitem>
					<clipitem frameBlend="FALSE" id="clipitem-824">
						<file id="file-1"/>
						<name>bandicam 2025-06-02 00-01-10-144</name>
						<rate>
							<timebase>60</timebase>
							<ntsc>TRUE</ntsc>
						</rate>
						<rate>
							<timebase>60</timebase>
							<ntsc>TRUE</ntsc>
						</rate>
						<duration>18</duration>
						<start>606</start>
						<end>624</end>
						<in>624</in>
						<out>642</out>
					</clipitem>
					<clipitem frameBlend="FALSE" id="clipitem-825">
						<file id="file-1"/>
						<name>bandicam 2025-06-02 00-01-10-144</name>
						<rate>
							<timebase>60</timebase>
							<ntsc>TRUE</ntsc>
						</rate>
						<rate>
							<timebase>60</timebase>
							<ntsc>TRUE</ntsc>
						</rate>
						<duration>0</duration>
						<start>642</start>
						<end>642</end>
						<in>816</in>
						<out>816</out>
					</clipitem>
					<clipitem frameBlend="FALSE" id="clipitem-826">
						<file id="file-1"/>
						<name>bandicam 2025-06-02 00-01-10-144</name>
						<rate>
							<timebase>60</timebase>
							<ntsc>TRUE</ntsc>
						</rate>
						<rate>
							<timebase>60</timebase>
							<ntsc>TRUE</ntsc>
						</rate>
						<duration>0</duration>
						<start>816</start>
						<end>816</end>
						<in>852</in>
						<out>852</out>
					</clipitem>
					<clipitem frameBlend="FALSE" id="clipitem-827">
						<file id="file-1"/>
						<name>bandicam 2025-06-02 00-01-10-144</name>
						<rate>
							<timebase>60</timebase>
							<ntsc>TRUE</ntsc>
						</rate>
						<rate>
							<timebase>60</timebase>
							<ntsc>TRUE</ntsc>
						</rate>
						<duration>12</duration>
						<start>852</start>
						<end>864</end>
						<in>888</in>
						<out>900</out>
					</clipitem>
					<clipitem frameBlend="FALSE" id="clipitem-828">
						<file id="file-1"/>
						<name>bandicam 2025-06-02 00-01-10-144</name>
						<rate>
							<timebase>60</timebase>
							<ntsc>TRUE</ntsc>
						</rate>
						<rate>
							<timebase>60</timebase>
							<ntsc>TRUE</ntsc>
						</rate>
						<duration>0</duration>
						<start>900</start>
						<end>900</end>
						<in>912</in>
						<out>912</out>
					</clipitem>
					<clipitem frameBlend="FALSE" id="clipitem-829">
						<file id="file-1"/>
						<name>bandicam 2025-06-02 00-01-10-144</name>
						<rate>
							<timebase>60</timebase>
							<ntsc>TRUE</ntsc>
						</rate>
						<rate>
							<timebase>60</timebase>
							<ntsc>TRUE</ntsc>
						</rate>
						<duration>0</duration>
						<start>912</start>
						<end>912</end>
						<in>936</in>
						<out>936</out>
					</clipitem>
					<clipitem frameBlend="FALSE" id="clipitem-830">
						<file id="file-1"/>
						<name>bandicam 2025-06-02 00-01-10-144</name>
						<rate>
							<timebase>60</timebase>
							<ntsc>TRUE</ntsc>
						</rate>
						<rate>
							<timebase>60</timebase>
							<ntsc>TRUE</ntsc>
						</rate>
						<duration>0</duration>
						<start>936</start>
						<end>936</end>
						<in>954</in>
						<out>954</out>
					</clipitem>
					<clipitem frameBlend="FALSE" id="clipitem-831">
						<file id="file-1"/>
						<name>bandicam 2025-06-02 00-01-10-144</name>
						<rate>
							<timebase>60</timebase>
							<ntsc>TRUE</ntsc>
						</rate>
						<rate>
							<timebase>60</timebase>
							<ntsc>TRUE</ntsc>
						</rate>
						<duration>12</duration>
						<start>954</start>
						<end>966</end>
						<in>984</in>
						<out>996</out>
					</clipitem>
					<clipitem frameBlend="FALSE" id="clipitem-832">
						<file id="file-1"/>
						<name>bandicam 2025-06-02 00-01-10-144</name>
						<rate>
							<timebase>60</timebase>
							<ntsc>TRUE</ntsc>
						</rate>
						<rate>
							<timebase>60</timebase>
							<ntsc>TRUE</ntsc>
						</rate>
						<duration>0</duration>
						<start>996</start>
						<end>996</end>
						<in>1056</in>
						<out>1056</out>
					</clipitem>
					<clipitem frameBlend="FALSE" id="clipitem-833">
						<file id="file-1"/>
						<name>bandicam 2025-06-02 00-01-10-144</name>
						<rate>
							<timebase>60</timebase>
							<ntsc>TRUE</ntsc>
						</rate>
						<rate>
							<timebase>60</timebase>
							<ntsc>TRUE</ntsc>
						</rate>
						<duration>12</duration>
						<start>1056</start>
						<end>1068</end>
						<in>1086</in>
						<out>1098</out>
					</clipitem>
					<clipitem frameBlend="FALSE" id="clipitem-834">
						<file id="file-1"/>
						<name>bandicam 2025-06-02 00-01-10-144</name>
						<rate>
							<timebase>60</timebase>
							<ntsc>TRUE</ntsc>
						</rate>
						<rate>
							<timebase>60</timebase>
							<ntsc>TRUE</ntsc>
						</rate>
						<duration>60</duration>
						<start>1098</start>
						<end>1158</end>
						<in>1188</in>
						<out>1248</out>
					</clipitem>
					<clipitem frameBlend="FALSE" id="clipitem-835">
						<file id="file-1"/>
						<name>bandicam 2025-06-02 00-01-10-144</name>
						<rate>
							<timebase>60</timebase>
							<ntsc>TRUE</ntsc>
						</rate>
						<rate>
							<timebase>60</timebase>
							<ntsc>TRUE</ntsc>
						</rate>
						<duration>0</duration>
						<start>1248</start>
						<end>1248</end>
						<in>1320</in>
						<out>1320</out>
					</clipitem>
					<clipitem frameBlend="FALSE" id="clipitem-836">
						<file id="file-1"/>
						<name>bandicam 2025-06-02 00-01-10-144</name>
						<rate>
							<timebase>60</timebase>
							<ntsc>TRUE</ntsc>
						</rate>
						<rate>
							<timebase>60</timebase>
							<ntsc>TRUE</ntsc>
						</rate>
						<duration>60</duration>
						<start>1320</start>
						<end>1380</end>
						<in>1374</in>
						<out>1434</out>
					</clipitem>
					<clipitem frameBlend="FALSE" id="clipitem-837">
						<file id="file-1"/>
						<name>bandicam 2025-06-02 00-01-10-144</name>
						<rate>
							<timebase>60</timebase>
							<ntsc>TRUE</ntsc>
						</rate>
						<rate>
							<timebase>60</timebase>
							<ntsc>TRUE</ntsc>
						</rate>
						<duration>36</duration>
						<start>1434</start>
						<end>1470</end>
						<in>1446</in>
						<out>1482</out>
					</clipitem>
					<clipitem frameBlend="FALSE" id="clipitem-838">
						<file id="file-1"/>
						<name>bandicam 2025-06-02 00-01-10-144</name>
						<rate>
							<timebase>60</timebase>
							<ntsc>TRUE</ntsc>
						</rate>
						<rate>
							<timebase>60</timebase>
							<ntsc>TRUE</ntsc>
						</rate>
						<duration>6</duration>
						<start>1482</start>
						<end>1488</end>
						<in>1530</in>
						<out>1536</out>
					</clipitem>
					<clipitem frameBlend="FALSE" id="clipitem-839">
						<file id="file-1"/>
						<name>bandicam 2025-06-02 00-01-10-144</name>
						<rate>
							<timebase>60</timebase>
							<ntsc>TRUE</ntsc>
						</rate>
						<rate>
							<timebase>60</timebase>
							<ntsc>TRUE</ntsc>
						</rate>
						<duration>42</duration>
						<start>1536</start>
						<end>1578</end>
						<in>1566</in>
						<out>1608</out>
					</clipitem>
					<clipitem frameBlend="FALSE" id="clipitem-840">
						<file id="file-1"/>
						<name>bandicam 2025-06-02 00-01-10-144</name>
						<rate>
							<timebase>60</timebase>
							<ntsc>TRUE</ntsc>
						</rate>
						<rate>
							<timebase>60</timebase>
							<ntsc>TRUE</ntsc>
						</rate>
						<duration>90</duration>
						<start>1608</start>
						<end>1698</end>
						<in>1692</in>
						<out>1782</out>
					</clipitem>
					<clipitem frameBlend="FALSE" id="clipitem-841">
						<file id="file-1"/>
						<name>bandicam 2025-06-02 00-01-10-144</name>
						<rate>
							<timebase>60</timebase>
							<ntsc>TRUE</ntsc>
						</rate>
						<rate>
							<timebase>60</timebase>
							<ntsc>TRUE</ntsc>
						</rate>
						<duration>108</duration>
						<start>1782</start>
						<end>1890</end>
						<in>1800</in>
						<out>1908</out>
					</clipitem>
					<clipitem frameBlend="FALSE" id="clipitem-842">
						<file id="file-1"/>
						<name>bandicam 2025-06-02 00-01-10-144</name>
						<rate>
							<timebase>60</timebase>
							<ntsc>TRUE</ntsc>
						</rate>
						<rate>
							<timebase>60</timebase>
							<ntsc>TRUE</ntsc>
						</rate>
						<duration>42</duration>
						<start>1908</start>
						<end>1950</end>
						<in>1926</in>
						<out>1968</out>
					</clipitem>
					<clipitem frameBlend="FALSE" id="clipitem-843">
						<file id="file-1"/>
						<name>bandicam 2025-06-02 00-01-10-144</name>
						<rate>
							<timebase>60</timebase>
							<ntsc>TRUE</ntsc>
						</rate>
						<rate>
							<timebase>60</timebase>
							<ntsc>TRUE</ntsc>
						</rate>
						<duration>48</duration>
						<start>1968</start>
						<end>2016</end>
						<in>2172</in>
						<out>2220</out>
					</clipitem>
					<clipitem frameBlend="FALSE" id="clipitem-844">
						<file id="file-1"/>
						<name>bandicam 2025-06-02 00-01-10-144</name>
						<rate>
							<timebase>60</timebase>
							<ntsc>TRUE</ntsc>
						</rate>
						<rate>
							<timebase>60</timebase>
							<ntsc>TRUE</ntsc>
						</rate>
						<duration>102</duration>
						<start>2220</start>
						<end>2322</end>
						<in>2274</in>
						<out>2376</out>
					</clipitem>
					<clipitem frameBlend="FALSE" id="clipitem-845">
						<file id="file-1"/>
						<name>bandicam 2025-06-02 00-01-10-144</name>
						<rate>
							<timebase>60</timebase>
							<ntsc>TRUE</ntsc>
						</rate>
						<rate>
							<timebase>60</timebase>
							<ntsc>TRUE</ntsc>
						</rate>
						<duration>18</duration>
						<start>2376</start>
						<end>2394</end>
						<in>2448</in>
						<out>2466</out>
					</clipitem>
					<clipitem frameBlend="FALSE" id="clipitem-846">
						<file id="file-1"/>
						<name>bandicam 2025-06-02 00-01-10-144</name>
						<rate>
							<timebase>60</timebase>
							<ntsc>TRUE</ntsc>
						</rate>
						<rate>
							<timebase>60</timebase>
							<ntsc>TRUE</ntsc>
						</rate>
						<duration>6</duration>
						<start>2466</start>
						<end>2472</end>
						<in>2478</in>
						<out>2484</out>
					</clipitem>
					<clipitem frameBlend="FALSE" id="clipitem-847">
						<file id="file-1"/>
						<name>bandicam 2025-06-02 00-01-10-144</name>
						<rate>
							<timebase>60</timebase>
							<ntsc>TRUE</ntsc>
						</rate>
						<rate>
							<timebase>60</timebase>
							<ntsc>TRUE</ntsc>
						</rate>
						<duration>6</duration>
						<start>2484</start>
						<end>2490</end>
						<in>2496</in>
						<out>2502</out>
					</clipitem>
					<clipitem frameBlend="FALSE" id="clipitem-848">
						<file id="file-1"/>
						<name>bandicam 2025-06-02 00-01-10-144</name>
						<rate>
							<timebase>60</timebase>
							<ntsc>TRUE</ntsc>
						</rate>
						<rate>
							<timebase>60</timebase>
							<ntsc>TRUE</ntsc>
						</rate>
						<duration>36</duration>
						<start>2502</start>
						<end>2538</end>
						<in>2532</in>
						<out>2568</out>
					</clipitem>
					<clipitem frameBlend="FALSE" id="clipitem-849">
						<file id="file-1"/>
						<name>bandicam 2025-06-02 00-01-10-144</name>
						<rate>
							<timebase>60</timebase>
							<ntsc>TRUE</ntsc>
						</rate>
						<rate>
							<timebase>60</timebase>
							<ntsc>TRUE</ntsc>
						</rate>
						<duration>102</duration>
						<start>2568</start>
						<end>2670</end>
						<in>2592</in>
						<out>2694</out>
					</clipitem>
					<clipitem frameBlend="FALSE" id="clipitem-850">
						<file id="file-1"/>
						<name>bandicam 2025-06-02 00-01-10-144</name>
						<rate>
							<timebase>60</timebase>
							<ntsc>TRUE</ntsc>
						</rate>
						<rate>
							<timebase>60</timebase>
							<ntsc>TRUE</ntsc>
						</rate>
						<duration>186</duration>
						<start>2694</start>
						<end>2880</end>
						<in>2724</in>
						<out>2910</out>
					</clipitem>
					<clipitem frameBlend="FALSE" id="clipitem-851">
						<file id="file-1"/>
						<name>bandicam 2025-06-02 00-01-10-144</name>
						<rate>
							<timebase>60</timebase>
							<ntsc>TRUE</ntsc>
						</rate>
						<rate>
							<timebase>60</timebase>
							<ntsc>TRUE</ntsc>
						</rate>
						<duration>12</duration>
						<start>2910</start>
						<end>2922</end>
						<in>2940</in>
						<out>2952</out>
					</clipitem>
					<clipitem frameBlend="FALSE" id="clipitem-852">
						<file id="file-1"/>
						<name>bandicam 2025-06-02 00-01-10-144</name>
						<rate>
							<timebase>60</timebase>
							<ntsc>TRUE</ntsc>
						</rate>
						<rate>
							<timebase>60</timebase>
							<ntsc>TRUE</ntsc>
						</rate>
						<duration>48</duration>
						<start>2952</start>
						<end>3000</end>
						<in>2964</in>
						<out>3012</out>
					</clipitem>
					<clipitem frameBlend="FALSE" id="clipitem-853">
						<file id="file-1"/>
						<name>bandicam 2025-06-02 00-01-10-144</name>
						<rate>
							<timebase>60</timebase>
							<ntsc>TRUE</ntsc>
						</rate>
						<rate>
							<timebase>60</timebase>
							<ntsc>TRUE</ntsc>
						</rate>
						<duration>0</duration>
						<start>3012</start>
						<end>3012</end>
						<in>3024</in>
						<out>3024</out>
					</clipitem>
					<clipitem frameBlend="FALSE" id="clipitem-854">
						<file id="file-1"/>
						<name>bandicam 2025-06-02 00-01-10-144</name>
						<rate>
							<timebase>60</timebase>
							<ntsc>TRUE</ntsc>
						</rate>
						<rate>
							<timebase>60</timebase>
							<ntsc>TRUE</ntsc>
						</rate>
						<duration>54</duration>
						<start>3024</start>
						<end>3078</end>
						<in>3054</in>
						<out>3108</out>
					</clipitem>
					<clipitem frameBlend="FALSE" id="clipitem-855">
						<file id="file-1"/>
						<name>bandicam 2025-06-02 00-01-10-144</name>
						<rate>
							<timebase>60</timebase>
							<ntsc>TRUE</ntsc>
						</rate>
						<rate>
							<timebase>60</timebase>
							<ntsc>TRUE</ntsc>
						</rate>
						<duration>42</duration>
						<start>3108</start>
						<end>3150</end>
						<in>3120</in>
						<out>3162</out>
					</clipitem>
					<clipitem frameBlend="FALSE" id="clipitem-856">
						<file id="file-1"/>
						<name>bandicam 2025-06-02 00-01-10-144</name>
						<rate>
							<timebase>60</timebase>
							<ntsc>TRUE</ntsc>
						</rate>
						<rate>
							<timebase>60</timebase>
							<ntsc>TRUE</ntsc>
						</rate>
						<duration>84</duration>
						<start>3162</start>
						<end>3246</end>
						<in>3222</in>
						<out>3306</out>
					</clipitem>
					<clipitem frameBlend="FALSE" id="clipitem-857">
						<file id="file-1"/>
						<name>bandicam 2025-06-02 00-01-10-144</name>
						<rate>
							<timebase>60</timebase>
							<ntsc>TRUE</ntsc>
						</rate>
						<rate>
							<timebase>60</timebase>
							<ntsc>TRUE</ntsc>
						</rate>
						<duration>12</duration>
						<start>3306</start>
						<end>3318</end>
						<in>3318</in>
						<out>3330</out>
					</clipitem>
					<clipitem frameBlend="FALSE" id="clipitem-858">
						<file id="file-1"/>
						<name>bandicam 2025-06-02 00-01-10-144</name>
						<rate>
							<timebase>60</timebase>
							<ntsc>TRUE</ntsc>
						</rate>
						<rate>
							<timebase>60</timebase>
							<ntsc>TRUE</ntsc>
						</rate>
						<duration>42</duration>
						<start>3330</start>
						<end>3372</end>
						<in>3372</in>
						<out>3414</out>
					</clipitem>
					<clipitem frameBlend="FALSE" id="clipitem-859">
						<file id="file-1"/>
						<name>bandicam 2025-06-02 00-01-10-144</name>
						<rate>
							<timebase>60</timebase>
							<ntsc>TRUE</ntsc>
						</rate>
						<rate>
							<timebase>60</timebase>
							<ntsc>TRUE</ntsc>
						</rate>
						<duration>24</duration>
						<start>3414</start>
						<end>3438</end>
						<in>3450</in>
						<out>3474</out>
					</clipitem>
					<clipitem frameBlend="FALSE" id="clipitem-860">
						<file id="file-1"/>
						<name>bandicam 2025-06-02 00-01-10-144</name>
						<rate>
							<timebase>60</timebase>
							<ntsc>TRUE</ntsc>
						</rate>
						<rate>
							<timebase>60</timebase>
							<ntsc>TRUE</ntsc>
						</rate>
						<duration>42</duration>
						<start>3474</start>
						<end>3516</end>
						<in>3498</in>
						<out>3540</out>
					</clipitem>
					<clipitem frameBlend="FALSE" id="clipitem-861">
						<file id="file-1"/>
						<name>bandicam 2025-06-02 00-01-10-144</name>
						<rate>
							<timebase>60</timebase>
							<ntsc>TRUE</ntsc>
						</rate>
						<rate>
							<timebase>60</timebase>
							<ntsc>TRUE</ntsc>
						</rate>
						<duration>0</duration>
						<start>3540</start>
						<end>3540</end>
						<in>3582</in>
						<out>3582</out>
					</clipitem>
					<clipitem frameBlend="FALSE" id="clipitem-862">
						<file id="file-1"/>
						<name>bandicam 2025-06-02 00-01-10-144</name>
						<rate>
							<timebase>60</timebase>
							<ntsc>TRUE</ntsc>
						</rate>
						<rate>
							<timebase>60</timebase>
							<ntsc>TRUE</ntsc>
						</rate>
						<duration>18</duration>
						<start>3582</start>
						<end>3600</end>
						<in>3624</in>
						<out>3642</out>
					</clipitem>
					<clipitem frameBlend="FALSE" id="clipitem-863">
						<file id="file-1"/>
						<name>bandicam 2025-06-02 00-01-10-144</name>
						<rate>
							<timebase>60</timebase>
							<ntsc>TRUE</ntsc>
						</rate>
						<rate>
							<timebase>60</timebase>
							<ntsc>TRUE</ntsc>
						</rate>
						<duration>6</duration>
						<start>3642</start>
						<end>3648</end>
						<in>3672</in>
						<out>3678</out>
					</clipitem>
					<clipitem frameBlend="FALSE" id="clipitem-864">
						<file id="file-1"/>
						<name>bandicam 2025-06-02 00-01-10-144</name>
						<rate>
							<timebase>60</timebase>
							<ntsc>TRUE</ntsc>
						</rate>
						<rate>
							<timebase>60</timebase>
							<ntsc>TRUE</ntsc>
						</rate>
						<duration>0</duration>
						<start>3678</start>
						<end>3678</end>
						<in>3696</in>
						<out>3696</out>
					</clipitem>
					<clipitem frameBlend="FALSE" id="clipitem-865">
						<file id="file-1"/>
						<name>bandicam 2025-06-02 00-01-10-144</name>
						<rate>
							<timebase>60</timebase>
							<ntsc>TRUE</ntsc>
						</rate>
						<rate>
							<timebase>60</timebase>
							<ntsc>TRUE</ntsc>
						</rate>
						<duration>12</duration>
						<start>3696</start>
						<end>3708</end>
						<in>3768</in>
						<out>3780</out>
					</clipitem>
					<clipitem frameBlend="FALSE" id="clipitem-866">
						<file id="file-1"/>
						<name>bandicam 2025-06-02 00-01-10-144</name>
						<rate>
							<timebase>60</timebase>
							<ntsc>TRUE</ntsc>
						</rate>
						<rate>
							<timebase>60</timebase>
							<ntsc>TRUE</ntsc>
						</rate>
						<duration>102</duration>
						<start>3780</start>
						<end>3882</end>
						<in>3846</in>
						<out>3948</out>
					</clipitem>
					<clipitem frameBlend="FALSE" id="clipitem-867">
						<file id="file-1"/>
						<name>bandicam 2025-06-02 00-01-10-144</name>
						<rate>
							<timebase>60</timebase>
							<ntsc>TRUE</ntsc>
						</rate>
						<rate>
							<timebase>60</timebase>
							<ntsc>TRUE</ntsc>
						</rate>
						<duration>6</duration>
						<start>3948</start>
						<end>3954</end>
						<in>4026</in>
						<out>4032</out>
					</clipitem>
					<clipitem frameBlend="FALSE" id="clipitem-868">
						<file id="file-1"/>
						<name>bandicam 2025-06-02 00-01-10-144</name>
						<rate>
							<timebase>60</timebase>
							<ntsc>TRUE</ntsc>
						</rate>
						<rate>
							<timebase>60</timebase>
							<ntsc>TRUE</ntsc>
						</rate>
						<duration>0</duration>
						<start>4032</start>
						<end>4032</end>
						<in>4044</in>
						<out>4044</out>
					</clipitem>
					<clipitem frameBlend="FALSE" id="clipitem-869">
						<file id="file-1"/>
						<name>bandicam 2025-06-02 00-01-10-144</name>
						<rate>
							<timebase>60</timebase>
							<ntsc>TRUE</ntsc>
						</rate>
						<rate>
							<timebase>60</timebase>
							<ntsc>TRUE</ntsc>
						</rate>
						<duration>150</duration>
						<start>4044</start>
						<end>4194</end>
						<in>4056</in>
						<out>4206</out>
					</clipitem>
					<clipitem frameBlend="FALSE" id="clipitem-870">
						<file id="file-1"/>
						<name>bandicam 2025-06-02 00-01-10-144</name>
						<rate>
							<timebase>60</timebase>
							<ntsc>TRUE</ntsc>
						</rate>
						<rate>
							<timebase>60</timebase>
							<ntsc>TRUE</ntsc>
						</rate>
						<duration>216</duration>
						<start>4206</start>
						<end>4422</end>
						<in>4218</in>
						<out>4434</out>
					</clipitem>
					<clipitem frameBlend="FALSE" id="clipitem-871">
						<file id="file-1"/>
						<name>bandicam 2025-06-02 00-01-10-144</name>
						<rate>
							<timebase>60</timebase>
							<ntsc>TRUE</ntsc>
						</rate>
						<rate>
							<timebase>60</timebase>
							<ntsc>TRUE</ntsc>
						</rate>
						<duration>90</duration>
						<start>4434</start>
						<end>4524</end>
						<in>4464</in>
						<out>4554</out>
					</clipitem>
					<clipitem frameBlend="FALSE" id="clipitem-872">
						<file id="file-1"/>
						<name>bandicam 2025-06-02 00-01-10-144</name>
						<rate>
							<timebase>60</timebase>
							<ntsc>TRUE</ntsc>
						</rate>
						<rate>
							<timebase>60</timebase>
							<ntsc>TRUE</ntsc>
						</rate>
						<duration>30</duration>
						<start>4554</start>
						<end>4584</end>
						<in>4602</in>
						<out>4632</out>
					</clipitem>
					<clipitem frameBlend="FALSE" id="clipitem-873">
						<file id="file-1"/>
						<name>bandicam 2025-06-02 00-01-10-144</name>
						<rate>
							<timebase>60</timebase>
							<ntsc>TRUE</ntsc>
						</rate>
						<rate>
							<timebase>60</timebase>
							<ntsc>TRUE</ntsc>
						</rate>
						<duration>42</duration>
						<start>4632</start>
						<end>4674</end>
						<in>4650</in>
						<out>4692</out>
					</clipitem>
					<clipitem frameBlend="FALSE" id="clipitem-874">
						<file id="file-1"/>
						<name>bandicam 2025-06-02 00-01-10-144</name>
						<rate>
							<timebase>60</timebase>
							<ntsc>TRUE</ntsc>
						</rate>
						<rate>
							<timebase>60</timebase>
							<ntsc>TRUE</ntsc>
						</rate>
						<duration>6</duration>
						<start>4692</start>
						<end>4698</end>
						<in>4704</in>
						<out>4710</out>
					</clipitem>
					<clipitem frameBlend="FALSE" id="clipitem-875">
						<file id="file-1"/>
						<name>bandicam 2025-06-02 00-01-10-144</name>
						<rate>
							<timebase>60</timebase>
							<ntsc>TRUE</ntsc>
						</rate>
						<rate>
							<timebase>60</timebase>
							<ntsc>TRUE</ntsc>
						</rate>
						<duration>126</duration>
						<start>4710</start>
						<end>4836</end>
						<in>4722</in>
						<out>4848</out>
					</clipitem>
					<clipitem frameBlend="FALSE" id="clipitem-876">
						<file id="file-1"/>
						<name>bandicam 2025-06-02 00-01-10-144</name>
						<rate>
							<timebase>60</timebase>
							<ntsc>TRUE</ntsc>
						</rate>
						<rate>
							<timebase>60</timebase>
							<ntsc>TRUE</ntsc>
						</rate>
						<duration>12</duration>
						<start>4848</start>
						<end>4860</end>
						<in>4860</in>
						<out>4872</out>
					</clipitem>
					<clipitem frameBlend="FALSE" id="clipitem-877">
						<file id="file-1"/>
						<name>bandicam 2025-06-02 00-01-10-144</name>
						<rate>
							<timebase>60</timebase>
							<ntsc>TRUE</ntsc>
						</rate>
						<rate>
							<timebase>60</timebase>
							<ntsc>TRUE</ntsc>
						</rate>
						<duration>6</duration>
						<start>4872</start>
						<end>4878</end>
						<in>4890</in>
						<out>4896</out>
					</clipitem>
					<clipitem frameBlend="FALSE" id="clipitem-878">
						<file id="file-1"/>
						<name>bandicam 2025-06-02 00-01-10-144</name>
						<rate>
							<timebase>60</timebase>
							<ntsc>TRUE</ntsc>
						</rate>
						<rate>
							<timebase>60</timebase>
							<ntsc>TRUE</ntsc>
						</rate>
						<duration>24</duration>
						<start>4896</start>
						<end>4920</end>
						<in>4908</in>
						<out>4932</out>
					</clipitem>
					<clipitem frameBlend="FALSE" id="clipitem-879">
						<file id="file-1"/>
						<name>bandicam 2025-06-02 00-01-10-144</name>
						<rate>
							<timebase>60</timebase>
							<ntsc>TRUE</ntsc>
						</rate>
						<rate>
							<timebase>60</timebase>
							<ntsc>TRUE</ntsc>
						</rate>
						<duration>234</duration>
						<start>4932</start>
						<end>5166</end>
						<in>4944</in>
						<out>5178</out>
					</clipitem>
					<clipitem frameBlend="FALSE" id="clipitem-880">
						<file id="file-1"/>
						<name>bandicam 2025-06-02 00-01-10-144</name>
						<rate>
							<timebase>60</timebase>
							<ntsc>TRUE</ntsc>
						</rate>
						<rate>
							<timebase>60</timebase>
							<ntsc>TRUE</ntsc>
						</rate>
						<duration>12</duration>
						<start>5178</start>
						<end>5190</end>
						<in>5202</in>
						<out>5214</out>
					</clipitem>
					<clipitem frameBlend="FALSE" id="clipitem-881">
						<file id="file-1"/>
						<name>bandicam 2025-06-02 00-01-10-144</name>
						<rate>
							<timebase>60</timebase>
							<ntsc>TRUE</ntsc>
						</rate>
						<rate>
							<timebase>60</timebase>
							<ntsc>TRUE</ntsc>
						</rate>
						<duration>42</duration>
						<start>5214</start>
						<end>5256</end>
						<in>5232</in>
						<out>5274</out>
					</clipitem>
					<clipitem frameBlend="FALSE" id="clipitem-882">
						<file id="file-1"/>
						<name>bandicam 2025-06-02 00-01-10-144</name>
						<rate>
							<timebase>60</timebase>
							<ntsc>TRUE</ntsc>
						</rate>
						<rate>
							<timebase>60</timebase>
							<ntsc>TRUE</ntsc>
						</rate>
						<duration>36</duration>
						<start>5274</start>
						<end>5310</end>
						<in>5328</in>
						<out>5364</out>
					</clipitem>
					<clipitem frameBlend="FALSE" id="clipitem-883">
						<file id="file-1"/>
						<name>bandicam 2025-06-02 00-01-10-144</name>
						<rate>
							<timebase>60</timebase>
							<ntsc>TRUE</ntsc>
						</rate>
						<rate>
							<timebase>60</timebase>
							<ntsc>TRUE</ntsc>
						</rate>
						<duration>84</duration>
						<start>5364</start>
						<end>5448</end>
						<in>5382</in>
						<out>5466</out>
					</clipitem>
					<clipitem frameBlend="FALSE" id="clipitem-884">
						<file id="file-1"/>
						<name>bandicam 2025-06-02 00-01-10-144</name>
						<rate>
							<timebase>60</timebase>
							<ntsc>TRUE</ntsc>
						</rate>
						<rate>
							<timebase>60</timebase>
							<ntsc>TRUE</ntsc>
						</rate>
						<duration>30</duration>
						<start>5466</start>
						<end>5496</end>
						<in>5490</in>
						<out>5520</out>
					</clipitem>
					<clipitem frameBlend="FALSE" id="clipitem-885">
						<file id="file-1"/>
						<name>bandicam 2025-06-02 00-01-10-144</name>
						<rate>
							<timebase>60</timebase>
							<ntsc>TRUE</ntsc>
						</rate>
						<rate>
							<timebase>60</timebase>
							<ntsc>TRUE</ntsc>
						</rate>
						<duration>66</duration>
						<start>5520</start>
						<end>5586</end>
						<in>5532</in>
						<out>5598</out>
					</clipitem>
					<clipitem frameBlend="FALSE" id="clipitem-886">
						<file id="file-1"/>
						<name>bandicam 2025-06-02 00-01-10-144</name>
						<rate>
							<timebase>60</timebase>
							<ntsc>TRUE</ntsc>
						</rate>
						<rate>
							<timebase>60</timebase>
							<ntsc>TRUE</ntsc>
						</rate>
						<duration>24</duration>
						<start>5598</start>
						<end>5622</end>
						<in>5622</in>
						<out>5646</out>
					</clipitem>
					<clipitem frameBlend="FALSE" id="clipitem-887">
						<file id="file-1"/>
						<name>bandicam 2025-06-02 00-01-10-144</name>
						<rate>
							<timebase>60</timebase>
							<ntsc>TRUE</ntsc>
						</rate>
						<rate>
							<timebase>60</timebase>
							<ntsc>TRUE</ntsc>
						</rate>
						<duration>30</duration>
						<start>5646</start>
						<end>5676</end>
						<in>5664</in>
						<out>5694</out>
					</clipitem>
					<clipitem frameBlend="FALSE" id="clipitem-888">
						<file id="file-1"/>
						<name>bandicam 2025-06-02 00-01-10-144</name>
						<rate>
							<timebase>60</timebase>
							<ntsc>TRUE</ntsc>
						</rate>
						<rate>
							<timebase>60</timebase>
							<ntsc>TRUE</ntsc>
						</rate>
						<duration>72</duration>
						<start>5694</start>
						<end>5766</end>
						<in>5712</in>
						<out>5784</out>
					</clipitem>
					<clipitem frameBlend="FALSE" id="clipitem-889">
						<file id="file-1"/>
						<name>bandicam 2025-06-02 00-01-10-144</name>
						<rate>
							<timebase>60</timebase>
							<ntsc>TRUE</ntsc>
						</rate>
						<rate>
							<timebase>60</timebase>
							<ntsc>TRUE</ntsc>
						</rate>
						<duration>294</duration>
						<start>5784</start>
						<end>6078</end>
						<in>5802</in>
						<out>6096</out>
					</clipitem>
					<clipitem frameBlend="FALSE" id="clipitem-890">
						<file id="file-1"/>
						<name>bandicam 2025-06-02 00-01-10-144</name>
						<rate>
							<timebase>60</timebase>
							<ntsc>TRUE</ntsc>
						</rate>
						<rate>
							<timebase>60</timebase>
							<ntsc>TRUE</ntsc>
						</rate>
						<duration>6</duration>
						<start>6096</start>
						<end>6102</end>
						<in>6132</in>
						<out>6138</out>
					</clipitem>
					<clipitem frameBlend="FALSE" id="clipitem-891">
						<file id="file-1"/>
						<name>bandicam 2025-06-02 00-01-10-144</name>
						<rate>
							<timebase>60</timebase>
							<ntsc>TRUE</ntsc>
						</rate>
						<rate>
							<timebase>60</timebase>
							<ntsc>TRUE</ntsc>
						</rate>
						<duration>60</duration>
						<start>6138</start>
						<end>6198</end>
						<in>6150</in>
						<out>6210</out>
					</clipitem>
					<clipitem frameBlend="FALSE" id="clipitem-892">
						<file id="file-1"/>
						<name>bandicam 2025-06-02 00-01-10-144</name>
						<rate>
							<timebase>60</timebase>
							<ntsc>TRUE</ntsc>
						</rate>
						<rate>
							<timebase>60</timebase>
							<ntsc>TRUE</ntsc>
						</rate>
						<duration>42</duration>
						<start>6210</start>
						<end>6252</end>
						<in>6222</in>
						<out>6264</out>
					</clipitem>
					<clipitem frameBlend="FALSE" id="clipitem-893">
						<file id="file-1"/>
						<name>bandicam 2025-06-02 00-01-10-144</name>
						<rate>
							<timebase>60</timebase>
							<ntsc>TRUE</ntsc>
						</rate>
						<rate>
							<timebase>60</timebase>
							<ntsc>TRUE</ntsc>
						</rate>
						<duration>0</duration>
						<start>6264</start>
						<end>6264</end>
						<in>6282</in>
						<out>6282</out>
					</clipitem>
					<clipitem frameBlend="FALSE" id="clipitem-894">
						<file id="file-1"/>
						<name>bandicam 2025-06-02 00-01-10-144</name>
						<rate>
							<timebase>60</timebase>
							<ntsc>TRUE</ntsc>
						</rate>
						<rate>
							<timebase>60</timebase>
							<ntsc>TRUE</ntsc>
						</rate>
						<duration>0</duration>
						<start>6282</start>
						<end>6282</end>
						<in>6300</in>
						<out>6300</out>
					</clipitem>
					<clipitem frameBlend="FALSE" id="clipitem-895">
						<file id="file-1"/>
						<name>bandicam 2025-06-02 00-01-10-144</name>
						<rate>
							<timebase>60</timebase>
							<ntsc>TRUE</ntsc>
						</rate>
						<rate>
							<timebase>60</timebase>
							<ntsc>TRUE</ntsc>
						</rate>
						<duration>42</duration>
						<start>6300</start>
						<end>6342</end>
						<in>6312</in>
						<out>6354</out>
					</clipitem>
					<clipitem frameBlend="FALSE" id="clipitem-896">
						<file id="file-1"/>
						<name>bandicam 2025-06-02 00-01-10-144</name>
						<rate>
							<timebase>60</timebase>
							<ntsc>TRUE</ntsc>
						</rate>
						<rate>
							<timebase>60</timebase>
							<ntsc>TRUE</ntsc>
						</rate>
						<duration>36</duration>
						<start>6354</start>
						<end>6390</end>
						<in>6384</in>
						<out>6420</out>
					</clipitem>
					<clipitem frameBlend="FALSE" id="clipitem-897">
						<file id="file-1"/>
						<name>bandicam 2025-06-02 00-01-10-144</name>
						<rate>
							<timebase>60</timebase>
							<ntsc>TRUE</ntsc>
						</rate>
						<rate>
							<timebase>60</timebase>
							<ntsc>TRUE</ntsc>
						</rate>
						<duration>24</duration>
						<start>6420</start>
						<end>6444</end>
						<in>6432</in>
						<out>6456</out>
					</clipitem>
					<clipitem frameBlend="FALSE" id="clipitem-898">
						<file id="file-1"/>
						<name>bandicam 2025-06-02 00-01-10-144</name>
						<rate>
							<timebase>60</timebase>
							<ntsc>TRUE</ntsc>
						</rate>
						<rate>
							<timebase>60</timebase>
							<ntsc>TRUE</ntsc>
						</rate>
						<duration>120</duration>
						<start>6456</start>
						<end>6576</end>
						<in>6468</in>
						<out>6588</out>
					</clipitem>
					<clipitem frameBlend="FALSE" id="clipitem-899">
						<file id="file-1"/>
						<name>bandicam 2025-06-02 00-01-10-144</name>
						<rate>
							<timebase>60</timebase>
							<ntsc>TRUE</ntsc>
						</rate>
						<rate>
							<timebase>60</timebase>
							<ntsc>TRUE</ntsc>
						</rate>
						<duration>42</duration>
						<start>6588</start>
						<end>6630</end>
						<in>6612</in>
						<out>6654</out>
					</clipitem>
					<clipitem frameBlend="FALSE" id="clipitem-900">
						<file id="file-1"/>
						<name>bandicam 2025-06-02 00-01-10-144</name>
						<rate>
							<timebase>60</timebase>
							<ntsc>TRUE</ntsc>
						</rate>
						<rate>
							<timebase>60</timebase>
							<ntsc>TRUE</ntsc>
						</rate>
						<duration>0</duration>
						<start>6654</start>
						<end>6654</end>
						<in>6714</in>
						<out>6714</out>
					</clipitem>
					<clipitem frameBlend="FALSE" id="clipitem-901">
						<file id="file-1"/>
						<name>bandicam 2025-06-02 00-01-10-144</name>
						<rate>
							<timebase>60</timebase>
							<ntsc>TRUE</ntsc>
						</rate>
						<rate>
							<timebase>60</timebase>
							<ntsc>TRUE</ntsc>
						</rate>
						<duration>6</duration>
						<start>6714</start>
						<end>6720</end>
						<in>6726</in>
						<out>6732</out>
					</clipitem>
					<clipitem frameBlend="FALSE" id="clipitem-902">
						<file id="file-1"/>
						<name>bandicam 2025-06-02 00-01-10-144</name>
						<rate>
							<timebase>60</timebase>
							<ntsc>TRUE</ntsc>
						</rate>
						<rate>
							<timebase>60</timebase>
							<ntsc>TRUE</ntsc>
						</rate>
						<duration>18</duration>
						<start>6732</start>
						<end>6750</end>
						<in>6750</in>
						<out>6768</out>
					</clipitem>
					<clipitem frameBlend="FALSE" id="clipitem-903">
						<file id="file-1"/>
						<name>bandicam 2025-06-02 00-01-10-144</name>
						<rate>
							<timebase>60</timebase>
							<ntsc>TRUE</ntsc>
						</rate>
						<rate>
							<timebase>60</timebase>
							<ntsc>TRUE</ntsc>
						</rate>
						<duration>72</duration>
						<start>6768</start>
						<end>6840</end>
						<in>6798</in>
						<out>6870</out>
					</clipitem>
					<clipitem frameBlend="FALSE" id="clipitem-904">
						<file id="file-1"/>
						<name>bandicam 2025-06-02 00-01-10-144</name>
						<rate>
							<timebase>60</timebase>
							<ntsc>TRUE</ntsc>
						</rate>
						<rate>
							<timebase>60</timebase>
							<ntsc>TRUE</ntsc>
						</rate>
						<duration>60</duration>
						<start>6870</start>
						<end>6930</end>
						<in>6894</in>
						<out>6954</out>
					</clipitem>
					<clipitem frameBlend="FALSE" id="clipitem-905">
						<file id="file-1"/>
						<name>bandicam 2025-06-02 00-01-10-144</name>
						<rate>
							<timebase>60</timebase>
							<ntsc>TRUE</ntsc>
						</rate>
						<rate>
							<timebase>60</timebase>
							<ntsc>TRUE</ntsc>
						</rate>
						<duration>54</duration>
						<start>6954</start>
						<end>7008</end>
						<in>6996</in>
						<out>7050</out>
					</clipitem>
					<clipitem frameBlend="FALSE" id="clipitem-906">
						<file id="file-1"/>
						<name>bandicam 2025-06-02 00-01-10-144</name>
						<rate>
							<timebase>60</timebase>
							<ntsc>TRUE</ntsc>
						</rate>
						<rate>
							<timebase>60</timebase>
							<ntsc>TRUE</ntsc>
						</rate>
						<duration>0</duration>
						<start>7050</start>
						<end>7050</end>
						<in>60</in>
						<out>60</out>
					</clipitem>
					<clipitem frameBlend="FALSE" id="clipitem-907">
						<file id="file-1"/>
						<name>bandicam 2025-06-02 00-01-10-144</name>
						<rate>
							<timebase>60</timebase>
							<ntsc>TRUE</ntsc>
						</rate>
						<rate>
							<timebase>60</timebase>
							<ntsc>TRUE</ntsc>
						</rate>
						<duration>12</duration>
						<start>60</start>
						<end>72</end>
						<in>114</in>
						<out>126</out>
					</clipitem>
					<clipitem frameBlend="FALSE" id="clipitem-908">
						<file id="file-1"/>
						<name>bandicam 2025-06-02 00-01-10-144</name>
						<rate>
							<timebase>60</timebase>
							<ntsc>TRUE</ntsc>
						</rate>
						<rate>
							<timebase>60</timebase>
							<ntsc>TRUE</ntsc>
						</rate>
						<duration>18</duration>
						<start>126</start>
						<end>144</end>
						<in>450</in>
						<out>468</out>
					</clipitem>
					<clipitem frameBlend="FALSE" id="clipitem-909">
						<file id="file-1"/>
						<name>bandicam 2025-06-02 00-01-10-144</name>
						<rate>
							<timebase>60</timebase>
							<ntsc>TRUE</ntsc>
						</rate>
						<rate>
							<timebase>60</timebase>
							<ntsc>TRUE</ntsc>
						</rate>
						<duration>6</duration>
						<start>468</start>
						<end>474</end>
						<in>582</in>
						<out>588</out>
					</clipitem>
					<clipitem frameBlend="FALSE" id="clipitem-910">
						<file id="file-1"/>
						<name>bandicam 2025-06-02 00-01-10-144</name>
						<rate>
							<timebase>60</timebase>
							<ntsc>TRUE</ntsc>
						</rate>
						<rate>
							<timebase>60</timebase>
							<ntsc>TRUE</ntsc>
						</rate>
						<duration>6</duration>
						<start>588</start>
						<end>594</end>
						<in>1410</in>
						<out>1416</out>
					</clipitem>
					<clipitem frameBlend="FALSE" id="clipitem-911">
						<file id="file-1"/>
						<name>bandicam 2025-06-02 00-01-10-144</name>
						<rate>
							<timebase>60</timebase>
							<ntsc>TRUE</ntsc>
						</rate>
						<rate>
							<timebase>60</timebase>
							<ntsc>TRUE</ntsc>
						</rate>
						<duration>0</duration>
						<start>1416</start>
						<end>1416</end>
						<in>1692</in>
						<out>1692</out>
					</clipitem>
					<clipitem frameBlend="FALSE" id="clipitem-912">
						<file id="file-1"/>
						<name>bandicam 2025-06-02 00-01-10-144</name>
						<rate>
							<timebase>60</timebase>
							<ntsc>TRUE</ntsc>
						</rate>
						<rate>
							<timebase>60</timebase>
							<ntsc>TRUE</ntsc>
						</rate>
						<duration>6</duration>
						<start>1692</start>
						<end>1698</end>
						<in>1704</in>
						<out>1710</out>
					</clipitem>
					<clipitem frameBlend="FALSE" id="clipitem-913">
						<file id="file-1"/>
						<name>bandicam 2025-06-02 00-01-10-144</name>
						<rate>
							<timebase>60</timebase>
							<ntsc>TRUE</ntsc>
						</rate>
						<rate>
							<timebase>60</timebase>
							<ntsc>TRUE</ntsc>
						</rate>
						<duration>12</duration>
						<start>1710</start>
						<end>1722</end>
						<in>1746</in>
						<out>1758</out>
					</clipitem>
					<clipitem frameBlend="FALSE" id="clipitem-914">
						<file id="file-1"/>
						<name>bandicam 2025-06-02 00-01-10-144</name>
						<rate>
							<timebase>60</timebase>
							<ntsc>TRUE</ntsc>
						</rate>
						<rate>
							<timebase>60</timebase>
							<ntsc>TRUE</ntsc>
						</rate>
						<duration>0</duration>
						<start>1758</start>
						<end>1758</end>
						<in>1812</in>
						<out>1812</out>
					</clipitem>
					<clipitem frameBlend="FALSE" id="clipitem-915">
						<file id="file-1"/>
						<name>bandicam 2025-06-02 00-01-10-144</name>
						<rate>
							<timebase>60</timebase>
							<ntsc>TRUE</ntsc>
						</rate>
						<rate>
							<timebase>60</timebase>
							<ntsc>TRUE</ntsc>
						</rate>
						<duration>0</duration>
						<start>1812</start>
						<end>1812</end>
						<in>1854</in>
						<out>1854</out>
					</clipitem>
					<clipitem frameBlend="FALSE" id="clipitem-916">
						<file id="file-1"/>
						<name>bandicam 2025-06-02 00-01-10-144</name>
						<rate>
							<timebase>60</timebase>
							<ntsc>TRUE</ntsc>
						</rate>
						<rate>
							<timebase>60</timebase>
							<ntsc>TRUE</ntsc>
						</rate>
						<duration>6</duration>
						<start>1854</start>
						<end>1860</end>
						<in>1884</in>
						<out>1890</out>
					</clipitem>
					<clipitem frameBlend="FALSE" id="clipitem-917">
						<file id="file-1"/>
						<name>bandicam 2025-06-02 00-01-10-144</name>
						<rate>
							<timebase>60</timebase>
							<ntsc>TRUE</ntsc>
						</rate>
						<rate>
							<timebase>60</timebase>
							<ntsc>TRUE</ntsc>
						</rate>
						<duration>0</duration>
						<start>1890</start>
						<end>1890</end>
						<in>2292</in>
						<out>2292</out>
					</clipitem>
					<clipitem frameBlend="FALSE" id="clipitem-918">
						<file id="file-1"/>
						<name>bandicam 2025-06-02 00-01-10-144</name>
						<rate>
							<timebase>60</timebase>
							<ntsc>TRUE</ntsc>
						</rate>
						<rate>
							<timebase>60</timebase>
							<ntsc>TRUE</ntsc>
						</rate>
						<duration>12</duration>
						<start>2292</start>
						<end>2304</end>
						<in>2310</in>
						<out>2322</out>
					</clipitem>
					<clipitem frameBlend="FALSE" id="clipitem-919">
						<file id="file-1"/>
						<name>bandicam 2025-06-02 00-01-10-144</name>
						<rate>
							<timebase>60</timebase>
							<ntsc>TRUE</ntsc>
						</rate>
						<rate>
							<timebase>60</timebase>
							<ntsc>TRUE</ntsc>
						</rate>
						<duration>6</duration>
						<start>2322</start>
						<end>2328</end>
						<in>2448</in>
						<out>2454</out>
					</clipitem>
					<clipitem frameBlend="FALSE" id="clipitem-920">
						<file id="file-1"/>
						<name>bandicam 2025-06-02 00-01-10-144</name>
						<rate>
							<timebase>60</timebase>
							<ntsc>TRUE</ntsc>
						</rate>
						<rate>
							<timebase>60</timebase>
							<ntsc>TRUE</ntsc>
						</rate>
						<duration>12</duration>
						<start>2454</start>
						<end>2466</end>
						<in>2742</in>
						<out>2754</out>
					</clipitem>
					<clipitem frameBlend="FALSE" id="clipitem-921">
						<file id="file-1"/>
						<name>bandicam 2025-06-02 00-01-10-144</name>
						<rate>
							<timebase>60</timebase>
							<ntsc>TRUE</ntsc>
						</rate>
						<rate>
							<timebase>60</timebase>
							<ntsc>TRUE</ntsc>
						</rate>
						<duration>6</duration>
						<start>2754</start>
						<end>2760</end>
						<in>2766</in>
						<out>2772</out>
					</clipitem>
					<clipitem frameBlend="FALSE" id="clipitem-922">
						<file id="file-1"/>
						<name>bandicam 2025-06-02 00-01-10-144</name>
						<rate>
							<timebase>60</timebase>
							<ntsc>TRUE</ntsc>
						</rate>
						<rate>
							<timebase>60</timebase>
							<ntsc>TRUE</ntsc>
						</rate>
						<duration>18</duration>
						<start>2772</start>
						<end>2790</end>
						<in>2802</in>
						<out>2820</out>
					</clipitem>
					<clipitem frameBlend="FALSE" id="clipitem-923">
						<file id="file-1"/>
						<name>bandicam 2025-06-02 00-01-10-144</name>
						<rate>
							<timebase>60</timebase>
							<ntsc>TRUE</ntsc>
						</rate>
						<rate>
							<timebase>60</timebase>
							<ntsc>TRUE</ntsc>
						</rate>
						<duration>30</duration>
						<start>2820</start>
						<end>2850</end>
						<in>3072</in>
						<out>3102</out>
					</clipitem>
					<clipitem frameBlend="FALSE" id="clipitem-924">
						<file id="file-1"/>
						<name>bandicam 2025-06-02 00-01-10-144</name>
						<rate>
							<timebase>60</timebase>
							<ntsc>TRUE</ntsc>
						</rate>
						<rate>
							<timebase>60</timebase>
							<ntsc>TRUE</ntsc>
						</rate>
						<duration>18</duration>
						<start>3102</start>
						<end>3120</end>
						<in>3270</in>
						<out>3288</out>
					</clipitem>
					<clipitem frameBlend="FALSE" id="clipitem-925">
						<file id="file-1"/>
						<name>bandicam 2025-06-02 00-01-10-144</name>
						<rate>
							<timebase>60</timebase>
							<ntsc>TRUE</ntsc>
						</rate>
						<rate>
							<timebase>60</timebase>
							<ntsc>TRUE</ntsc>
						</rate>
						<duration>18</duration>
						<start>3288</start>
						<end>3306</end>
						<in>3456</in>
						<out>3474</out>
					</clipitem>
					<clipitem frameBlend="FALSE" id="clipitem-926">
						<file id="file-1"/>
						<name>bandicam 2025-06-02 00-01-10-144</name>
						<rate>
							<timebase>60</timebase>
							<ntsc>TRUE</ntsc>
						</rate>
						<rate>
							<timebase>60</timebase>
							<ntsc>TRUE</ntsc>
						</rate>
						<duration>12</duration>
						<start>3474</start>
						<end>3486</end>
						<in>3630</in>
						<out>3642</out>
					</clipitem>
					<clipitem frameBlend="FALSE" id="clipitem-927">
						<file id="file-1"/>
						<name>bandicam 2025-06-02 00-01-10-144</name>
						<rate>
							<timebase>60</timebase>
							<ntsc>TRUE</ntsc>
						</rate>
						<rate>
							<timebase>60</timebase>
							<ntsc>TRUE</ntsc>
						</rate>
						<duration>6</duration>
						<start>3642</start>
						<end>3648</end>
						<in>4086</in>
						<out>4092</out>
					</clipitem>
					<clipitem frameBlend="FALSE" id="clipitem-928">
						<file id="file-1"/>
						<name>bandicam 2025-06-02 00-01-10-144</name>
						<rate>
							<timebase>60</timebase>
							<ntsc>TRUE</ntsc>
						</rate>
						<rate>
							<timebase>60</timebase>
							<ntsc>TRUE</ntsc>
						</rate>
						<duration>6</duration>
						<start>4092</start>
						<end>4098</end>
						<in>4104</in>
						<out>4110</out>
					</clipitem>
					<clipitem frameBlend="FALSE" id="clipitem-929">
						<file id="file-1"/>
						<name>bandicam 2025-06-02 00-01-10-144</name>
						<rate>
							<timebase>60</timebase>
							<ntsc>TRUE</ntsc>
						</rate>
						<rate>
							<timebase>60</timebase>
							<ntsc>TRUE</ntsc>
						</rate>
						<duration>0</duration>
						<start>4110</start>
						<end>4110</end>
						<in>4134</in>
						<out>4134</out>
					</clipitem>
					<clipitem frameBlend="FALSE" id="clipitem-930">
						<file id="file-1"/>
						<name>bandicam 2025-06-02 00-01-10-144</name>
						<rate>
							<timebase>60</timebase>
							<ntsc>TRUE</ntsc>
						</rate>
						<rate>
							<timebase>60</timebase>
							<ntsc>TRUE</ntsc>
						</rate>
						<duration>6</duration>
						<start>4134</start>
						<end>4140</end>
						<in>4188</in>
						<out>4194</out>
					</clipitem>
					<clipitem frameBlend="FALSE" id="clipitem-931">
						<file id="file-1"/>
						<name>bandicam 2025-06-02 00-01-10-144</name>
						<rate>
							<timebase>60</timebase>
							<ntsc>TRUE</ntsc>
						</rate>
						<rate>
							<timebase>60</timebase>
							<ntsc>TRUE</ntsc>
						</rate>
						<duration>0</duration>
						<start>4194</start>
						<end>4194</end>
						<in>4230</in>
						<out>4230</out>
					</clipitem>
					<clipitem frameBlend="FALSE" id="clipitem-932">
						<file id="file-1"/>
						<name>bandicam 2025-06-02 00-01-10-144</name>
						<rate>
							<timebase>60</timebase>
							<ntsc>TRUE</ntsc>
						</rate>
						<rate>
							<timebase>60</timebase>
							<ntsc>TRUE</ntsc>
						</rate>
						<duration>6</duration>
						<start>4230</start>
						<end>4236</end>
						<in>4242</in>
						<out>4248</out>
					</clipitem>
					<clipitem frameBlend="FALSE" id="clipitem-933">
						<file id="file-1"/>
						<name>bandicam 2025-06-02 00-01-10-144</name>
						<rate>
							<timebase>60</timebase>
							<ntsc>TRUE</ntsc>
						</rate>
						<rate>
							<timebase>60</timebase>
							<ntsc>TRUE</ntsc>
						</rate>
						<duration>66</duration>
						<start>4248</start>
						<end>4314</end>
						<in>4302</in>
						<out>4368</out>
					</clipitem>
					<clipitem frameBlend="FALSE" id="clipitem-934">
						<file id="file-1"/>
						<name>bandicam 2025-06-02 00-01-10-144</name>
						<rate>
							<timebase>60</timebase>
							<ntsc>TRUE</ntsc>
						</rate>
						<rate>
							<timebase>60</timebase>
							<ntsc>TRUE</ntsc>
						</rate>
						<duration>42</duration>
						<start>4368</start>
						<end>4410</end>
						<in>4392</in>
						<out>4434</out>
					</clipitem>
					<clipitem frameBlend="FALSE" id="clipitem-935">
						<file id="file-1"/>
						<name>bandicam 2025-06-02 00-01-10-144</name>
						<rate>
							<timebase>60</timebase>
							<ntsc>TRUE</ntsc>
						</rate>
						<rate>
							<timebase>60</timebase>
							<ntsc>TRUE</ntsc>
						</rate>
						<duration>18</duration>
						<start>4434</start>
						<end>4452</end>
						<in>4506</in>
						<out>4524</out>
					</clipitem>
					<clipitem frameBlend="FALSE" id="clipitem-936">
						<file id="file-1"/>
						<name>bandicam 2025-06-02 00-01-10-144</name>
						<rate>
							<timebase>60</timebase>
							<ntsc>TRUE</ntsc>
						</rate>
						<rate>
							<timebase>60</timebase>
							<ntsc>TRUE</ntsc>
						</rate>
						<duration>12</duration>
						<start>4524</start>
						<end>4536</end>
						<in>4542</in>
						<out>4554</out>
					</clipitem>
					<clipitem frameBlend="FALSE" id="clipitem-937">
						<file id="file-1"/>
						<name>bandicam 2025-06-02 00-01-10-144</name>
						<rate>
							<timebase>60</timebase>
							<ntsc>TRUE</ntsc>
						</rate>
						<rate>
							<timebase>60</timebase>
							<ntsc>TRUE</ntsc>
						</rate>
						<duration>24</duration>
						<start>4554</start>
						<end>4578</end>
						<in>4602</in>
						<out>4626</out>
					</clipitem>
					<clipitem frameBlend="FALSE" id="clipitem-938">
						<file id="file-1"/>
						<name>bandicam 2025-06-02 00-01-10-144</name>
						<rate>
							<timebase>60</timebase>
							<ntsc>TRUE</ntsc>
						</rate>
						<rate>
							<timebase>60</timebase>
							<ntsc>TRUE</ntsc>
						</rate>
						<duration>0</duration>
						<start>4626</start>
						<end>4626</end>
						<in>4704</in>
						<out>4704</out>
					</clipitem>
					<clipitem frameBlend="FALSE" id="clipitem-939">
						<file id="file-1"/>
						<name>bandicam 2025-06-02 00-01-10-144</name>
						<rate>
							<timebase>60</timebase>
							<ntsc>TRUE</ntsc>
						</rate>
						<rate>
							<timebase>60</timebase>
							<ntsc>TRUE</ntsc>
						</rate>
						<duration>48</duration>
						<start>4704</start>
						<end>4752</end>
						<in>4722</in>
						<out>4770</out>
					</clipitem>
					<clipitem frameBlend="FALSE" id="clipitem-940">
						<file id="file-1"/>
						<name>bandicam 2025-06-02 00-01-10-144</name>
						<rate>
							<timebase>60</timebase>
							<ntsc>TRUE</ntsc>
						</rate>
						<rate>
							<timebase>60</timebase>
							<ntsc>TRUE</ntsc>
						</rate>
						<duration>6</duration>
						<start>4770</start>
						<end>4776</end>
						<in>4860</in>
						<out>4866</out>
					</clipitem>
					<clipitem frameBlend="FALSE" id="clipitem-941">
						<file id="file-1"/>
						<name>bandicam 2025-06-02 00-01-10-144</name>
						<rate>
							<timebase>60</timebase>
							<ntsc>TRUE</ntsc>
						</rate>
						<rate>
							<timebase>60</timebase>
							<ntsc>TRUE</ntsc>
						</rate>
						<duration>6</duration>
						<start>4866</start>
						<end>4872</end>
						<in>4968</in>
						<out>4974</out>
					</clipitem>
					<clipitem frameBlend="FALSE" id="clipitem-942">
						<file id="file-1"/>
						<name>bandicam 2025-06-02 00-01-10-144</name>
						<rate>
							<timebase>60</timebase>
							<ntsc>TRUE</ntsc>
						</rate>
						<rate>
							<timebase>60</timebase>
							<ntsc>TRUE</ntsc>
						</rate>
						<duration>6</duration>
						<start>4974</start>
						<end>4980</end>
						<in>5112</in>
						<out>5118</out>
					</clipitem>
					<clipitem frameBlend="FALSE" id="clipitem-943">
						<file id="file-1"/>
						<name>bandicam 2025-06-02 00-01-10-144</name>
						<rate>
							<timebase>60</timebase>
							<ntsc>TRUE</ntsc>
						</rate>
						<rate>
							<timebase>60</timebase>
							<ntsc>TRUE</ntsc>
						</rate>
						<duration>6</duration>
						<start>5118</start>
						<end>5124</end>
						<in>5142</in>
						<out>5148</out>
					</clipitem>
					<clipitem frameBlend="FALSE" id="clipitem-944">
						<file id="file-1"/>
						<name>bandicam 2025-06-02 00-01-10-144</name>
						<rate>
							<timebase>60</timebase>
							<ntsc>TRUE</ntsc>
						</rate>
						<rate>
							<timebase>60</timebase>
							<ntsc>TRUE</ntsc>
						</rate>
						<duration>18</duration>
						<start>5148</start>
						<end>5166</end>
						<in>5160</in>
						<out>5178</out>
					</clipitem>
					<clipitem frameBlend="FALSE" id="clipitem-945">
						<file id="file-1"/>
						<name>bandicam 2025-06-02 00-01-10-144</name>
						<rate>
							<timebase>60</timebase>
							<ntsc>TRUE</ntsc>
						</rate>
						<rate>
							<timebase>60</timebase>
							<ntsc>TRUE</ntsc>
						</rate>
						<duration>12</duration>
						<start>5178</start>
						<end>5190</end>
						<in>5328</in>
						<out>5340</out>
					</clipitem>
					<clipitem frameBlend="FALSE" id="clipitem-946">
						<file id="file-1"/>
						<name>bandicam 2025-06-02 00-01-10-144</name>
						<rate>
							<timebase>60</timebase>
							<ntsc>TRUE</ntsc>
						</rate>
						<rate>
							<timebase>60</timebase>
							<ntsc>TRUE</ntsc>
						</rate>
						<duration>12</duration>
						<start>5340</start>
						<end>5352</end>
						<in>5412</in>
						<out>5424</out>
					</clipitem>
					<clipitem frameBlend="FALSE" id="clipitem-947">
						<file id="file-1"/>
						<name>bandicam 2025-06-02 00-01-10-144</name>
						<rate>
							<timebase>60</timebase>
							<ntsc>TRUE</ntsc>
						</rate>
						<rate>
							<timebase>60</timebase>
							<ntsc>TRUE</ntsc>
						</rate>
						<duration>0</duration>
						<start>5424</start>
						<end>5424</end>
						<in>5448</in>
						<out>5448</out>
					</clipitem>
					<clipitem frameBlend="FALSE" id="clipitem-948">
						<file id="file-1"/>
						<name>bandicam 2025-06-02 00-01-10-144</name>
						<rate>
							<timebase>60</timebase>
							<ntsc>TRUE</ntsc>
						</rate>
						<rate>
							<timebase>60</timebase>
							<ntsc>TRUE</ntsc>
						</rate>
						<duration>0</duration>
						<start>5448</start>
						<end>5448</end>
						<in>5592</in>
						<out>5592</out>
					</clipitem>
					<clipitem frameBlend="FALSE" id="clipitem-949">
						<file id="file-1"/>
						<name>bandicam 2025-06-02 00-01-10-144</name>
						<rate>
							<timebase>60</timebase>
							<ntsc>TRUE</ntsc>
						</rate>
						<rate>
							<timebase>60</timebase>
							<ntsc>TRUE</ntsc>
						</rate>
						<duration>18</duration>
						<start>5592</start>
						<end>5610</end>
						<in>5670</in>
						<out>5688</out>
					</clipitem>
					<clipitem frameBlend="FALSE" id="clipitem-950">
						<file id="file-1"/>
						<name>bandicam 2025-06-02 00-01-10-144</name>
						<rate>
							<timebase>60</timebase>
							<ntsc>TRUE</ntsc>
						</rate>
						<rate>
							<timebase>60</timebase>
							<ntsc>TRUE</ntsc>
						</rate>
						<duration>18</duration>
						<start>5688</start>
						<end>5706</end>
						<in>5760</in>
						<out>5778</out>
					</clipitem>
					<clipitem frameBlend="FALSE" id="clipitem-951">
						<file id="file-1"/>
						<name>bandicam 2025-06-02 00-01-10-144</name>
						<rate>
							<timebase>60</timebase>
							<ntsc>TRUE</ntsc>
						</rate>
						<rate>
							<timebase>60</timebase>
							<ntsc>TRUE</ntsc>
						</rate>
						<duration>72</duration>
						<start>5778</start>
						<end>5850</end>
						<in>5802</in>
						<out>5874</out>
					</clipitem>
					<clipitem frameBlend="FALSE" id="clipitem-952">
						<file id="file-1"/>
						<name>bandicam 2025-06-02 00-01-10-144</name>
						<rate>
							<timebase>60</timebase>
							<ntsc>TRUE</ntsc>
						</rate>
						<rate>
							<timebase>60</timebase>
							<ntsc>TRUE</ntsc>
						</rate>
						<duration>48</duration>
						<start>5874</start>
						<end>5922</end>
						<in>5910</in>
						<out>5958</out>
					</clipitem>
					<clipitem frameBlend="FALSE" id="clipitem-953">
						<file id="file-1"/>
						<name>bandicam 2025-06-02 00-01-10-144</name>
						<rate>
							<timebase>60</timebase>
							<ntsc>TRUE</ntsc>
						</rate>
						<rate>
							<timebase>60</timebase>
							<ntsc>TRUE</ntsc>
						</rate>
						<duration>0</duration>
						<start>5958</start>
						<end>5958</end>
						<in>6000</in>
						<out>6000</out>
					</clipitem>
					<clipitem frameBlend="FALSE" id="clipitem-954">
						<file id="file-1"/>
						<name>bandicam 2025-06-02 00-01-10-144</name>
						<rate>
							<timebase>60</timebase>
							<ntsc>TRUE</ntsc>
						</rate>
						<rate>
							<timebase>60</timebase>
							<ntsc>TRUE</ntsc>
						</rate>
						<duration>24</duration>
						<start>6000</start>
						<end>6024</end>
						<in>6012</in>
						<out>6036</out>
					</clipitem>
					<clipitem frameBlend="FALSE" id="clipitem-955">
						<file id="file-1"/>
						<name>bandicam 2025-06-02 00-01-10-144</name>
						<rate>
							<timebase>60</timebase>
							<ntsc>TRUE</ntsc>
						</rate>
						<rate>
							<timebase>60</timebase>
							<ntsc>TRUE</ntsc>
						</rate>
						<duration>24</duration>
						<start>6036</start>
						<end>6060</end>
						<in>6156</in>
						<out>6180</out>
					</clipitem>
					<clipitem frameBlend="FALSE" id="clipitem-956">
						<file id="file-1"/>
						<name>bandicam 2025-06-02 00-01-10-144</name>
						<rate>
							<timebase>60</timebase>
							<ntsc>TRUE</ntsc>
						</rate>
						<rate>
							<timebase>60</timebase>
							<ntsc>TRUE</ntsc>
						</rate>
						<duration>6</duration>
						<start>6180</start>
						<end>6186</end>
						<in>6234</in>
						<out>6240</out>
					</clipitem>
					<clipitem frameBlend="FALSE" id="clipitem-957">
						<file id="file-1"/>
						<name>bandicam 2025-06-02 00-01-10-144</name>
						<rate>
							<timebase>60</timebase>
							<ntsc>TRUE</ntsc>
						</rate>
						<rate>
							<timebase>60</timebase>
							<ntsc>TRUE</ntsc>
						</rate>
						<duration>0</duration>
						<start>6240</start>
						<end>6240</end>
						<in>6522</in>
						<out>6522</out>
					</clipitem>
					<clipitem frameBlend="FALSE" id="clipitem-958">
						<file id="file-1"/>
						<name>bandicam 2025-06-02 00-01-10-144</name>
						<rate>
							<timebase>60</timebase>
							<ntsc>TRUE</ntsc>
						</rate>
						<rate>
							<timebase>60</timebase>
							<ntsc>TRUE</ntsc>
						</rate>
						<duration>0</duration>
						<start>6522</start>
						<end>6522</end>
						<in>6894</in>
						<out>6894</out>
					</clipitem>
					<clipitem frameBlend="FALSE" id="clipitem-959">
						<file id="file-1"/>
						<name>bandicam 2025-06-02 00-01-10-144</name>
						<rate>
							<timebase>60</timebase>
							<ntsc>TRUE</ntsc>
						</rate>
						<rate>
							<timebase>60</timebase>
							<ntsc>TRUE</ntsc>
						</rate>
						<duration>0</duration>
						<start>6894</start>
						<end>6894</end>
						<in>6954</in>
						<out>6954</out>
					</clipitem>
					<clipitem frameBlend="FALSE" id="clipitem-960">
						<file id="file-1"/>
						<name>bandicam 2025-06-02 00-01-10-144</name>
						<rate>
							<timebase>60</timebase>
							<ntsc>TRUE</ntsc>
						</rate>
						<rate>
							<timebase>60</timebase>
							<ntsc>TRUE</ntsc>
						</rate>
						<duration>6</duration>
						<start>6954</start>
						<end>6960</end>
						<in>114</in>
						<out>120</out>
					</clipitem>
					<clipitem frameBlend="FALSE" id="clipitem-961">
						<file id="file-1"/>
						<name>bandicam 2025-06-02 00-01-10-144</name>
						<rate>
							<timebase>60</timebase>
							<ntsc>TRUE</ntsc>
						</rate>
						<rate>
							<timebase>60</timebase>
							<ntsc>TRUE</ntsc>
						</rate>
						<duration>6</duration>
						<start>120</start>
						<end>126</end>
						<in>1410</in>
						<out>1416</out>
					</clipitem>
					<clipitem frameBlend="FALSE" id="clipitem-962">
						<file id="file-1"/>
						<name>bandicam 2025-06-02 00-01-10-144</name>
						<rate>
							<timebase>60</timebase>
							<ntsc>TRUE</ntsc>
						</rate>
						<rate>
							<timebase>60</timebase>
							<ntsc>TRUE</ntsc>
						</rate>
						<duration>0</duration>
						<start>1416</start>
						<end>1416</end>
						<in>1704</in>
						<out>1704</out>
					</clipitem>
					<clipitem frameBlend="FALSE" id="clipitem-963">
						<file id="file-1"/>
						<name>bandicam 2025-06-02 00-01-10-144</name>
						<rate>
							<timebase>60</timebase>
							<ntsc>TRUE</ntsc>
						</rate>
						<rate>
							<timebase>60</timebase>
							<ntsc>TRUE</ntsc>
						</rate>
						<duration>12</duration>
						<start>1704</start>
						<end>1716</end>
						<in>1746</in>
						<out>1758</out>
					</clipitem>
					<clipitem frameBlend="FALSE" id="clipitem-964">
						<file id="file-1"/>
						<name>bandicam 2025-06-02 00-01-10-144</name>
						<rate>
							<timebase>60</timebase>
							<ntsc>TRUE</ntsc>
						</rate>
						<rate>
							<timebase>60</timebase>
							<ntsc>TRUE</ntsc>
						</rate>
						<duration>6</duration>
						<start>1758</start>
						<end>1764</end>
						<in>2448</in>
						<out>2454</out>
					</clipitem>
					<clipitem frameBlend="FALSE" id="clipitem-965">
						<file id="file-1"/>
						<name>bandicam 2025-06-02 00-01-10-144</name>
						<rate>
							<timebase>60</timebase>
							<ntsc>TRUE</ntsc>
						</rate>
						<rate>
							<timebase>60</timebase>
							<ntsc>TRUE</ntsc>
						</rate>
						<duration>12</duration>
						<start>2454</start>
						<end>2466</end>
						<in>2742</in>
						<out>2754</out>
					</clipitem>
					<clipitem frameBlend="FALSE" id="clipitem-966">
						<file id="file-1"/>
						<name>bandicam 2025-06-02 00-01-10-144</name>
						<rate>
							<timebase>60</timebase>
							<ntsc>TRUE</ntsc>
						</rate>
						<rate>
							<timebase>60</timebase>
							<ntsc>TRUE</ntsc>
						</rate>
						<duration>0</duration>
						<start>2754</start>
						<end>2754</end>
						<in>2820</in>
						<out>2820</out>
					</clipitem>
					<clipitem frameBlend="FALSE" id="clipitem-967">
						<file id="file-1"/>
						<name>bandicam 2025-06-02 00-01-10-144</name>
						<rate>
							<timebase>60</timebase>
							<ntsc>TRUE</ntsc>
						</rate>
						<rate>
							<timebase>60</timebase>
							<ntsc>TRUE</ntsc>
						</rate>
						<duration>30</duration>
						<start>2820</start>
						<end>2850</end>
						<in>3072</in>
						<out>3102</out>
					</clipitem>
					<clipitem frameBlend="FALSE" id="clipitem-968">
						<file id="file-1"/>
						<name>bandicam 2025-06-02 00-01-10-144</name>
						<rate>
							<timebase>60</timebase>
							<ntsc>TRUE</ntsc>
						</rate>
						<rate>
							<timebase>60</timebase>
							<ntsc>TRUE</ntsc>
						</rate>
						<duration>18</duration>
						<start>3102</start>
						<end>3120</end>
						<in>3270</in>
						<out>3288</out>
					</clipitem>
					<clipitem frameBlend="FALSE" id="clipitem-969">
						<file id="file-1"/>
						<name>bandicam 2025-06-02 00-01-10-144</name>
						<rate>
							<timebase>60</timebase>
							<ntsc>TRUE</ntsc>
						</rate>
						<rate>
							<timebase>60</timebase>
							<ntsc>TRUE</ntsc>
						</rate>
						<duration>6</duration>
						<start>3288</start>
						<end>3294</end>
						<in>4086</in>
						<out>4092</out>
					</clipitem>
					<clipitem frameBlend="FALSE" id="clipitem-970">
						<file id="file-1"/>
						<name>bandicam 2025-06-02 00-01-10-144</name>
						<rate>
							<timebase>60</timebase>
							<ntsc>TRUE</ntsc>
						</rate>
						<rate>
							<timebase>60</timebase>
							<ntsc>TRUE</ntsc>
						</rate>
						<duration>6</duration>
						<start>4092</start>
						<end>4098</end>
						<in>4104</in>
						<out>4110</out>
					</clipitem>
					<clipitem frameBlend="FALSE" id="clipitem-971">
						<file id="file-1"/>
						<name>bandicam 2025-06-02 00-01-10-144</name>
						<rate>
							<timebase>60</timebase>
							<ntsc>TRUE</ntsc>
						</rate>
						<rate>
							<timebase>60</timebase>
							<ntsc>TRUE</ntsc>
						</rate>
						<duration>0</duration>
						<start>4110</start>
						<end>4110</end>
						<in>4134</in>
						<out>4134</out>
					</clipitem>
					<clipitem frameBlend="FALSE" id="clipitem-972">
						<file id="file-1"/>
						<name>bandicam 2025-06-02 00-01-10-144</name>
						<rate>
							<timebase>60</timebase>
							<ntsc>TRUE</ntsc>
						</rate>
						<rate>
							<timebase>60</timebase>
							<ntsc>TRUE</ntsc>
						</rate>
						<duration>6</duration>
						<start>4134</start>
						<end>4140</end>
						<in>4188</in>
						<out>4194</out>
					</clipitem>
					<clipitem frameBlend="FALSE" id="clipitem-973">
						<file id="file-1"/>
						<name>bandicam 2025-06-02 00-01-10-144</name>
						<rate>
							<timebase>60</timebase>
							<ntsc>TRUE</ntsc>
						</rate>
						<rate>
							<timebase>60</timebase>
							<ntsc>TRUE</ntsc>
						</rate>
						<duration>0</duration>
						<start>4194</start>
						<end>4194</end>
						<in>4230</in>
						<out>4230</out>
					</clipitem>
					<clipitem frameBlend="FALSE" id="clipitem-974">
						<file id="file-1"/>
						<name>bandicam 2025-06-02 00-01-10-144</name>
						<rate>
							<timebase>60</timebase>
							<ntsc>TRUE</ntsc>
						</rate>
						<rate>
							<timebase>60</timebase>
							<ntsc>TRUE</ntsc>
						</rate>
						<duration>6</duration>
						<start>4230</start>
						<end>4236</end>
						<in>4242</in>
						<out>4248</out>
					</clipitem>
					<clipitem frameBlend="FALSE" id="clipitem-975">
						<file id="file-1"/>
						<name>bandicam 2025-06-02 00-01-10-144</name>
						<rate>
							<timebase>60</timebase>
							<ntsc>TRUE</ntsc>
						</rate>
						<rate>
							<timebase>60</timebase>
							<ntsc>TRUE</ntsc>
						</rate>
						<duration>0</duration>
						<start>4248</start>
						<end>4248</end>
						<in>4368</in>
						<out>4368</out>
					</clipitem>
					<clipitem frameBlend="FALSE" id="clipitem-976">
						<file id="file-1"/>
						<name>bandicam 2025-06-02 00-01-10-144</name>
						<rate>
							<timebase>60</timebase>
							<ntsc>TRUE</ntsc>
						</rate>
						<rate>
							<timebase>60</timebase>
							<ntsc>TRUE</ntsc>
						</rate>
						<duration>0</duration>
						<start>4368</start>
						<end>4368</end>
						<in>4722</in>
						<out>4722</out>
					</clipitem>
					<clipitem frameBlend="FALSE" id="clipitem-977">
						<file id="file-1"/>
						<name>bandicam 2025-06-02 00-01-10-144</name>
						<rate>
							<timebase>60</timebase>
							<ntsc>TRUE</ntsc>
						</rate>
						<rate>
							<timebase>60</timebase>
							<ntsc>TRUE</ntsc>
						</rate>
						<duration>6</duration>
						<start>4722</start>
						<end>4728</end>
						<in>5112</in>
						<out>5118</out>
					</clipitem>
					<clipitem frameBlend="FALSE" id="clipitem-978">
						<file id="file-1"/>
						<name>bandicam 2025-06-02 00-01-10-144</name>
						<rate>
							<timebase>60</timebase>
							<ntsc>TRUE</ntsc>
						</rate>
						<rate>
							<timebase>60</timebase>
							<ntsc>TRUE</ntsc>
						</rate>
						<duration>6</duration>
						<start>5118</start>
						<end>5124</end>
						<in>5142</in>
						<out>5148</out>
					</clipitem>
					<clipitem frameBlend="FALSE" id="clipitem-979">
						<file id="file-1"/>
						<name>bandicam 2025-06-02 00-01-10-144</name>
						<rate>
							<timebase>60</timebase>
							<ntsc>TRUE</ntsc>
						</rate>
						<rate>
							<timebase>60</timebase>
							<ntsc>TRUE</ntsc>
						</rate>
						<duration>12</duration>
						<start>5148</start>
						<end>5160</end>
						<in>5160</in>
						<out>5172</out>
					</clipitem>
					<clipitem frameBlend="FALSE" id="clipitem-980">
						<file id="file-1"/>
						<name>bandicam 2025-06-02 00-01-10-144</name>
						<rate>
							<timebase>60</timebase>
							<ntsc>TRUE</ntsc>
						</rate>
						<rate>
							<timebase>60</timebase>
							<ntsc>TRUE</ntsc>
						</rate>
						<duration>0</duration>
						<start>5172</start>
						<end>5172</end>
						<in>5340</in>
						<out>5340</out>
					</clipitem>
					<clipitem frameBlend="FALSE" id="clipitem-981">
						<file id="file-1"/>
						<name>bandicam 2025-06-02 00-01-10-144</name>
						<rate>
							<timebase>60</timebase>
							<ntsc>TRUE</ntsc>
						</rate>
						<rate>
							<timebase>60</timebase>
							<ntsc>TRUE</ntsc>
						</rate>
						<duration>0</duration>
						<start>5340</start>
						<end>5340</end>
						<in>5592</in>
						<out>5592</out>
					</clipitem>
					<clipitem frameBlend="FALSE" id="clipitem-982">
						<file id="file-1"/>
						<name>bandicam 2025-06-02 00-01-10-144</name>
						<rate>
							<timebase>60</timebase>
							<ntsc>TRUE</ntsc>
						</rate>
						<rate>
							<timebase>60</timebase>
							<ntsc>TRUE</ntsc>
						</rate>
						<duration>18</duration>
						<start>5592</start>
						<end>5610</end>
						<in>5670</in>
						<out>5688</out>
					</clipitem>
					<clipitem frameBlend="FALSE" id="clipitem-983">
						<file id="file-1"/>
						<name>bandicam 2025-06-02 00-01-10-144</name>
						<rate>
							<timebase>60</timebase>
							<ntsc>TRUE</ntsc>
						</rate>
						<rate>
							<timebase>60</timebase>
							<ntsc>TRUE</ntsc>
						</rate>
						<duration>18</duration>
						<start>5688</start>
						<end>5706</end>
						<in>5760</in>
						<out>5778</out>
					</clipitem>
					<clipitem frameBlend="FALSE" id="clipitem-984">
						<file id="file-1"/>
						<name>bandicam 2025-06-02 00-01-10-144</name>
						<rate>
							<timebase>60</timebase>
							<ntsc>TRUE</ntsc>
						</rate>
						<rate>
							<timebase>60</timebase>
							<ntsc>TRUE</ntsc>
						</rate>
						<duration>72</duration>
						<start>5778</start>
						<end>5850</end>
						<in>5802</in>
						<out>5874</out>
					</clipitem>
					<clipitem frameBlend="FALSE" id="clipitem-985">
						<file id="file-1"/>
						<name>bandicam 2025-06-02 00-01-10-144</name>
						<rate>
							<timebase>60</timebase>
							<ntsc>TRUE</ntsc>
						</rate>
						<rate>
							<timebase>60</timebase>
							<ntsc>TRUE</ntsc>
						</rate>
						<duration>0</duration>
						<start>5874</start>
						<end>5874</end>
						<in>5910</in>
						<out>5910</out>
					</clipitem>
					<clipitem frameBlend="FALSE" id="clipitem-986">
						<file id="file-1"/>
						<name>bandicam 2025-06-02 00-01-10-144</name>
						<rate>
							<timebase>60</timebase>
							<ntsc>TRUE</ntsc>
						</rate>
						<rate>
							<timebase>60</timebase>
							<ntsc>TRUE</ntsc>
						</rate>
						<duration>12</duration>
						<start>5910</start>
						<end>5922</end>
						<in>5922</in>
						<out>5934</out>
					</clipitem>
					<clipitem frameBlend="FALSE" id="clipitem-987">
						<file id="file-1"/>
						<name>bandicam 2025-06-02 00-01-10-144</name>
						<rate>
							<timebase>60</timebase>
							<ntsc>TRUE</ntsc>
						</rate>
						<rate>
							<timebase>60</timebase>
							<ntsc>TRUE</ntsc>
						</rate>
						<duration>6</duration>
						<start>5934</start>
						<end>5940</end>
						<in>5952</in>
						<out>5958</out>
					</clipitem>
					<clipitem frameBlend="FALSE" id="clipitem-988">
						<file id="file-1"/>
						<name>bandicam 2025-06-02 00-01-10-144</name>
						<rate>
							<timebase>60</timebase>
							<ntsc>TRUE</ntsc>
						</rate>
						<rate>
							<timebase>60</timebase>
							<ntsc>TRUE</ntsc>
						</rate>
						<duration>12</duration>
						<start>5958</start>
						<end>5970</end>
						<in>6012</in>
						<out>6024</out>
					</clipitem>
					<clipitem frameBlend="FALSE" id="clipitem-989">
						<file id="file-1"/>
						<name>bandicam 2025-06-02 00-01-10-144</name>
						<rate>
							<timebase>60</timebase>
							<ntsc>TRUE</ntsc>
						</rate>
						<rate>
							<timebase>60</timebase>
							<ntsc>TRUE</ntsc>
						</rate>
						<duration>24</duration>
						<start>6024</start>
						<end>6048</end>
						<in>6156</in>
						<out>6180</out>
					</clipitem>
					<clipitem frameBlend="FALSE" id="clipitem-990">
						<file id="file-1"/>
						<name>bandicam 2025-06-02 00-01-10-144</name>
						<rate>
							<timebase>60</timebase>
							<ntsc>TRUE</ntsc>
						</rate>
						<rate>
							<timebase>60</timebase>
							<ntsc>TRUE</ntsc>
						</rate>
						<duration>0</duration>
						<start>6180</start>
						<end>6180</end>
						<in>6234</in>
						<out>6234</out>
					</clipitem>
					<clipitem frameBlend="FALSE" id="clipitem-991">
						<file id="file-1"/>
						<name>bandicam 2025-06-02 00-01-10-144</name>
						<rate>
							<timebase>60</timebase>
							<ntsc>TRUE</ntsc>
						</rate>
						<rate>
							<timebase>60</timebase>
							<ntsc>TRUE</ntsc>
						</rate>
						<duration>24</duration>
						<start>6234</start>
						<end>6258</end>
						<in>12</in>
						<out>36</out>
					</clipitem>
					<clipitem frameBlend="FALSE" id="clipitem-992">
						<file id="file-1"/>
						<name>bandicam 2025-06-02 00-01-10-144</name>
						<rate>
							<timebase>60</timebase>
							<ntsc>TRUE</ntsc>
						</rate>
						<rate>
							<timebase>60</timebase>
							<ntsc>TRUE</ntsc>
						</rate>
						<duration>36</duration>
						<start>36</start>
						<end>72</end>
						<in>54</in>
						<out>90</out>
					</clipitem>
					<clipitem frameBlend="FALSE" id="clipitem-993">
						<file id="file-1"/>
						<name>bandicam 2025-06-02 00-01-10-144</name>
						<rate>
							<timebase>60</timebase>
							<ntsc>TRUE</ntsc>
						</rate>
						<rate>
							<timebase>60</timebase>
							<ntsc>TRUE</ntsc>
						</rate>
						<duration>18</duration>
						<start>90</start>
						<end>108</end>
						<in>108</in>
						<out>126</out>
					</clipitem>
					<clipitem frameBlend="FALSE" id="clipitem-994">
						<file id="file-1"/>
						<name>bandicam 2025-06-02 00-01-10-144</name>
						<rate>
							<timebase>60</timebase>
							<ntsc>TRUE</ntsc>
						</rate>
						<rate>
							<timebase>60</timebase>
							<ntsc>TRUE</ntsc>
						</rate>
						<duration>24</duration>
						<start>126</start>
						<end>150</end>
						<in>174</in>
						<out>198</out>
					</clipitem>
					<clipitem frameBlend="FALSE" id="clipitem-995">
						<file id="file-1"/>
						<name>bandicam 2025-06-02 00-01-10-144</name>
						<rate>
							<timebase>60</timebase>
							<ntsc>TRUE</ntsc>
						</rate>
						<rate>
							<timebase>60</timebase>
							<ntsc>TRUE</ntsc>
						</rate>
						<duration>0</duration>
						<start>198</start>
						<end>198</end>
						<in>300</in>
						<out>300</out>
					</clipitem>
					<clipitem frameBlend="FALSE" id="clipitem-996">
						<file id="file-1"/>
						<name>bandicam 2025-06-02 00-01-10-144</name>
						<rate>
							<timebase>60</timebase>
							<ntsc>TRUE</ntsc>
						</rate>
						<rate>
							<timebase>60</timebase>
							<ntsc>TRUE</ntsc>
						</rate>
						<duration>30</duration>
						<start>300</start>
						<end>330</end>
						<in>360</in>
						<out>390</out>
					</clipitem>
					<clipitem frameBlend="FALSE" id="clipitem-997">
						<file id="file-1"/>
						<name>bandicam 2025-06-02 00-01-10-144</name>
						<rate>
							<timebase>60</timebase>
							<ntsc>TRUE</ntsc>
						</rate>
						<rate>
							<timebase>60</timebase>
							<ntsc>TRUE</ntsc>
						</rate>
						<duration>0</duration>
						<start>390</start>
						<end>390</end>
						<in>438</in>
						<out>438</out>
					</clipitem>
					<clipitem frameBlend="FALSE" id="clipitem-998">
						<file id="file-1"/>
						<name>bandicam 2025-06-02 00-01-10-144</name>
						<rate>
							<timebase>60</timebase>
							<ntsc>TRUE</ntsc>
						</rate>
						<rate>
							<timebase>60</timebase>
							<ntsc>TRUE</ntsc>
						</rate>
						<duration>42</duration>
						<start>438</start>
						<end>480</end>
						<in>450</in>
						<out>492</out>
					</clipitem>
					<clipitem frameBlend="FALSE" id="clipitem-999">
						<file id="file-1"/>
						<name>bandicam 2025-06-02 00-01-10-144</name>
						<rate>
							<timebase>60</timebase>
							<ntsc>TRUE</ntsc>
						</rate>
						<rate>
							<timebase>60</timebase>
							<ntsc>TRUE</ntsc>
						</rate>
						<duration>0</duration>
						<start>492</start>
						<end>492</end>
						<in>504</in>
						<out>504</out>
					</clipitem>
					<clipitem frameBlend="FALSE" id="clipitem-1000">
						<file id="file-1"/>
						<name>bandicam 2025-06-02 00-01-10-144</name>
						<rate>
							<timebase>60</timebase>
							<ntsc>TRUE</ntsc>
						</rate>
						<rate>
							<timebase>60</timebase>
							<ntsc>TRUE</ntsc>
						</rate>
						<duration>24</duration>
						<start>504</start>
						<end>528</end>
						<in>528</in>
						<out>552</out>
					</clipitem>
					<clipitem frameBlend="FALSE" id="clipitem-1001">
						<file id="file-1"/>
						<name>bandicam 2025-06-02 00-01-10-144</name>
						<rate>
							<timebase>60</timebase>
							<ntsc>TRUE</ntsc>
						</rate>
						<rate>
							<timebase>60</timebase>
							<ntsc>TRUE</ntsc>
						</rate>
						<duration>24</duration>
						<start>552</start>
						<end>576</end>
						<in>582</in>
						<out>606</out>
					</clipitem>
					<clipitem frameBlend="FALSE" id="clipitem-1002">
						<file id="file-1"/>
						<name>bandicam 2025-06-02 00-01-10-144</name>
						<rate>
							<timebase>60</timebase>
							<ntsc>TRUE</ntsc>
						</rate>
						<rate>
							<timebase>60</timebase>
							<ntsc>TRUE</ntsc>
						</rate>
						<duration>18</duration>
						<start>606</start>
						<end>624</end>
						<in>624</in>
						<out>642</out>
					</clipitem>
					<clipitem frameBlend="FALSE" id="clipitem-1003">
						<file id="file-1"/>
						<name>bandicam 2025-06-02 00-01-10-144</name>
						<rate>
							<timebase>60</timebase>
							<ntsc>TRUE</ntsc>
						</rate>
						<rate>
							<timebase>60</timebase>
							<ntsc>TRUE</ntsc>
						</rate>
						<duration>0</duration>
						<start>642</start>
						<end>642</end>
						<in>816</in>
						<out>816</out>
					</clipitem>
					<clipitem frameBlend="FALSE" id="clipitem-1004">
						<file id="file-1"/>
						<name>bandicam 2025-06-02 00-01-10-144</name>
						<rate>
							<timebase>60</timebase>
							<ntsc>TRUE</ntsc>
						</rate>
						<rate>
							<timebase>60</timebase>
							<ntsc>TRUE</ntsc>
						</rate>
						<duration>0</duration>
						<start>816</start>
						<end>816</end>
						<in>852</in>
						<out>852</out>
					</clipitem>
					<clipitem frameBlend="FALSE" id="clipitem-1005">
						<file id="file-1"/>
						<name>bandicam 2025-06-02 00-01-10-144</name>
						<rate>
							<timebase>60</timebase>
							<ntsc>TRUE</ntsc>
						</rate>
						<rate>
							<timebase>60</timebase>
							<ntsc>TRUE</ntsc>
						</rate>
						<duration>0</duration>
						<start>852</start>
						<end>852</end>
						<in>912</in>
						<out>912</out>
					</clipitem>
					<clipitem frameBlend="FALSE" id="clipitem-1006">
						<file id="file-1"/>
						<name>bandicam 2025-06-02 00-01-10-144</name>
						<rate>
							<timebase>60</timebase>
							<ntsc>TRUE</ntsc>
						</rate>
						<rate>
							<timebase>60</timebase>
							<ntsc>TRUE</ntsc>
						</rate>
						<duration>0</duration>
						<start>912</start>
						<end>912</end>
						<in>936</in>
						<out>936</out>
					</clipitem>
					<clipitem frameBlend="FALSE" id="clipitem-1007">
						<file id="file-1"/>
						<name>bandicam 2025-06-02 00-01-10-144</name>
						<rate>
							<timebase>60</timebase>
							<ntsc>TRUE</ntsc>
						</rate>
						<rate>
							<timebase>60</timebase>
							<ntsc>TRUE</ntsc>
						</rate>
						<duration>0</duration>
						<start>936</start>
						<end>936</end>
						<in>954</in>
						<out>954</out>
					</clipitem>
					<clipitem frameBlend="FALSE" id="clipitem-1008">
						<file id="file-1"/>
						<name>bandicam 2025-06-02 00-01-10-144</name>
						<rate>
							<timebase>60</timebase>
							<ntsc>TRUE</ntsc>
						</rate>
						<rate>
							<timebase>60</timebase>
							<ntsc>TRUE</ntsc>
						</rate>
						<duration>12</duration>
						<start>954</start>
						<end>966</end>
						<in>984</in>
						<out>996</out>
					</clipitem>
					<clipitem frameBlend="FALSE" id="clipitem-1009">
						<file id="file-1"/>
						<name>bandicam 2025-06-02 00-01-10-144</name>
						<rate>
							<timebase>60</timebase>
							<ntsc>TRUE</ntsc>
						</rate>
						<rate>
							<timebase>60</timebase>
							<ntsc>TRUE</ntsc>
						</rate>
						<duration>12</duration>
						<start>996</start>
						<end>1008</end>
						<in>1086</in>
						<out>1098</out>
					</clipitem>
					<clipitem frameBlend="FALSE" id="clipitem-1010">
						<file id="file-1"/>
						<name>bandicam 2025-06-02 00-01-10-144</name>
						<rate>
							<timebase>60</timebase>
							<ntsc>TRUE</ntsc>
						</rate>
						<rate>
							<timebase>60</timebase>
							<ntsc>TRUE</ntsc>
						</rate>
						<duration>42</duration>
						<start>1098</start>
						<end>1140</end>
						<in>1188</in>
						<out>1230</out>
					</clipitem>
					<clipitem frameBlend="FALSE" id="clipitem-1011">
						<file id="file-1"/>
						<name>bandicam 2025-06-02 00-01-10-144</name>
						<rate>
							<timebase>60</timebase>
							<ntsc>TRUE</ntsc>
						</rate>
						<rate>
							<timebase>60</timebase>
							<ntsc>TRUE</ntsc>
						</rate>
						<duration>0</duration>
						<start>1230</start>
						<end>1230</end>
						<in>1320</in>
						<out>1320</out>
					</clipitem>
					<clipitem frameBlend="FALSE" id="clipitem-1012">
						<file id="file-1"/>
						<name>bandicam 2025-06-02 00-01-10-144</name>
						<rate>
							<timebase>60</timebase>
							<ntsc>TRUE</ntsc>
						</rate>
						<rate>
							<timebase>60</timebase>
							<ntsc>TRUE</ntsc>
						</rate>
						<duration>54</duration>
						<start>1320</start>
						<end>1374</end>
						<in>1374</in>
						<out>1428</out>
					</clipitem>
					<clipitem frameBlend="FALSE" id="clipitem-1013">
						<file id="file-1"/>
						<name>bandicam 2025-06-02 00-01-10-144</name>
						<rate>
							<timebase>60</timebase>
							<ntsc>TRUE</ntsc>
						</rate>
						<rate>
							<timebase>60</timebase>
							<ntsc>TRUE</ntsc>
						</rate>
						<duration>24</duration>
						<start>1428</start>
						<end>1452</end>
						<in>1446</in>
						<out>1470</out>
					</clipitem>
					<clipitem frameBlend="FALSE" id="clipitem-1014">
						<file id="file-1"/>
						<name>bandicam 2025-06-02 00-01-10-144</name>
						<rate>
							<timebase>60</timebase>
							<ntsc>TRUE</ntsc>
						</rate>
						<rate>
							<timebase>60</timebase>
							<ntsc>TRUE</ntsc>
						</rate>
						<duration>0</duration>
						<start>1470</start>
						<end>1470</end>
						<in>1536</in>
						<out>1536</out>
					</clipitem>
					<clipitem frameBlend="FALSE" id="clipitem-1015">
						<file id="file-1"/>
						<name>bandicam 2025-06-02 00-01-10-144</name>
						<rate>
							<timebase>60</timebase>
							<ntsc>TRUE</ntsc>
						</rate>
						<rate>
							<timebase>60</timebase>
							<ntsc>TRUE</ntsc>
						</rate>
						<duration>24</duration>
						<start>1536</start>
						<end>1560</end>
						<in>1566</in>
						<out>1590</out>
					</clipitem>
					<clipitem frameBlend="FALSE" id="clipitem-1016">
						<file id="file-1"/>
						<name>bandicam 2025-06-02 00-01-10-144</name>
						<rate>
							<timebase>60</timebase>
							<ntsc>TRUE</ntsc>
						</rate>
						<rate>
							<timebase>60</timebase>
							<ntsc>TRUE</ntsc>
						</rate>
						<duration>42</duration>
						<start>1590</start>
						<end>1632</end>
						<in>1692</in>
						<out>1734</out>
					</clipitem>
					<clipitem frameBlend="FALSE" id="clipitem-1017">
						<file id="file-1"/>
						<name>bandicam 2025-06-02 00-01-10-144</name>
						<rate>
							<timebase>60</timebase>
							<ntsc>TRUE</ntsc>
						</rate>
						<rate>
							<timebase>60</timebase>
							<ntsc>TRUE</ntsc>
						</rate>
						<duration>36</duration>
						<start>1734</start>
						<end>1770</end>
						<in>1746</in>
						<out>1782</out>
					</clipitem>
					<clipitem frameBlend="FALSE" id="clipitem-1018">
						<file id="file-1"/>
						<name>bandicam 2025-06-02 00-01-10-144</name>
						<rate>
							<timebase>60</timebase>
							<ntsc>TRUE</ntsc>
						</rate>
						<rate>
							<timebase>60</timebase>
							<ntsc>TRUE</ntsc>
						</rate>
						<duration>30</duration>
						<start>1782</start>
						<end>1812</end>
						<in>1800</in>
						<out>1830</out>
					</clipitem>
					<clipitem frameBlend="FALSE" id="clipitem-1019">
						<file id="file-1"/>
						<name>bandicam 2025-06-02 00-01-10-144</name>
						<rate>
							<timebase>60</timebase>
							<ntsc>TRUE</ntsc>
						</rate>
						<rate>
							<timebase>60</timebase>
							<ntsc>TRUE</ntsc>
						</rate>
						<duration>30</duration>
						<start>1830</start>
						<end>1860</end>
						<in>1842</in>
						<out>1872</out>
					</clipitem>
					<clipitem frameBlend="FALSE" id="clipitem-1020">
						<file id="file-1"/>
						<name>bandicam 2025-06-02 00-01-10-144</name>
						<rate>
							<timebase>60</timebase>
							<ntsc>TRUE</ntsc>
						</rate>
						<rate>
							<timebase>60</timebase>
							<ntsc>TRUE</ntsc>
						</rate>
						<duration>24</duration>
						<start>1872</start>
						<end>1896</end>
						<in>1884</in>
						<out>1908</out>
					</clipitem>
					<clipitem frameBlend="FALSE" id="clipitem-1021">
						<file id="file-1"/>
						<name>bandicam 2025-06-02 00-01-10-144</name>
						<rate>
							<timebase>60</timebase>
							<ntsc>TRUE</ntsc>
						</rate>
						<rate>
							<timebase>60</timebase>
							<ntsc>TRUE</ntsc>
						</rate>
						<duration>24</duration>
						<start>1908</start>
						<end>1932</end>
						<in>1926</in>
						<out>1950</out>
					</clipitem>
					<clipitem frameBlend="FALSE" id="clipitem-1022">
						<file id="file-1"/>
						<name>bandicam 2025-06-02 00-01-10-144</name>
						<rate>
							<timebase>60</timebase>
							<ntsc>TRUE</ntsc>
						</rate>
						<rate>
							<timebase>60</timebase>
							<ntsc>TRUE</ntsc>
						</rate>
						<duration>24</duration>
						<start>1950</start>
						<end>1974</end>
						<in>2178</in>
						<out>2202</out>
					</clipitem>
					<clipitem frameBlend="FALSE" id="clipitem-1023">
						<file id="file-1"/>
						<name>bandicam 2025-06-02 00-01-10-144</name>
						<rate>
							<timebase>60</timebase>
							<ntsc>TRUE</ntsc>
						</rate>
						<rate>
							<timebase>60</timebase>
							<ntsc>TRUE</ntsc>
						</rate>
						<duration>78</duration>
						<start>2202</start>
						<end>2280</end>
						<in>2280</in>
						<out>2358</out>
					</clipitem>
					<clipitem frameBlend="FALSE" id="clipitem-1024">
						<file id="file-1"/>
						<name>bandicam 2025-06-02 00-01-10-144</name>
						<rate>
							<timebase>60</timebase>
							<ntsc>TRUE</ntsc>
						</rate>
						<rate>
							<timebase>60</timebase>
							<ntsc>TRUE</ntsc>
						</rate>
						<duration>18</duration>
						<start>2358</start>
						<end>2376</end>
						<in>2448</in>
						<out>2466</out>
					</clipitem>
					<clipitem frameBlend="FALSE" id="clipitem-1025">
						<file id="file-1"/>
						<name>bandicam 2025-06-02 00-01-10-144</name>
						<rate>
							<timebase>60</timebase>
							<ntsc>TRUE</ntsc>
						</rate>
						<rate>
							<timebase>60</timebase>
							<ntsc>TRUE</ntsc>
						</rate>
						<duration>6</duration>
						<start>2466</start>
						<end>2472</end>
						<in>2478</in>
						<out>2484</out>
					</clipitem>
					<clipitem frameBlend="FALSE" id="clipitem-1026">
						<file id="file-1"/>
						<name>bandicam 2025-06-02 00-01-10-144</name>
						<rate>
							<timebase>60</timebase>
							<ntsc>TRUE</ntsc>
						</rate>
						<rate>
							<timebase>60</timebase>
							<ntsc>TRUE</ntsc>
						</rate>
						<duration>6</duration>
						<start>2484</start>
						<end>2490</end>
						<in>2496</in>
						<out>2502</out>
					</clipitem>
					<clipitem frameBlend="FALSE" id="clipitem-1027">
						<file id="file-1"/>
						<name>bandicam 2025-06-02 00-01-10-144</name>
						<rate>
							<timebase>60</timebase>
							<ntsc>TRUE</ntsc>
						</rate>
						<rate>
							<timebase>60</timebase>
							<ntsc>TRUE</ntsc>
						</rate>
						<duration>30</duration>
						<start>2502</start>
						<end>2532</end>
						<in>2538</in>
						<out>2568</out>
					</clipitem>
					<clipitem frameBlend="FALSE" id="clipitem-1028">
						<file id="file-1"/>
						<name>bandicam 2025-06-02 00-01-10-144</name>
						<rate>
							<timebase>60</timebase>
							<ntsc>TRUE</ntsc>
						</rate>
						<rate>
							<timebase>60</timebase>
							<ntsc>TRUE</ntsc>
						</rate>
						<duration>84</duration>
						<start>2568</start>
						<end>2652</end>
						<in>2592</in>
						<out>2676</out>
					</clipitem>
					<clipitem frameBlend="FALSE" id="clipitem-1029">
						<file id="file-1"/>
						<name>bandicam 2025-06-02 00-01-10-144</name>
						<rate>
							<timebase>60</timebase>
							<ntsc>TRUE</ntsc>
						</rate>
						<rate>
							<timebase>60</timebase>
							<ntsc>TRUE</ntsc>
						</rate>
						<duration>132</duration>
						<start>2676</start>
						<end>2808</end>
						<in>2724</in>
						<out>2856</out>
					</clipitem>
					<clipitem frameBlend="FALSE" id="clipitem-1030">
						<file id="file-1"/>
						<name>bandicam 2025-06-02 00-01-10-144</name>
						<rate>
							<timebase>60</timebase>
							<ntsc>TRUE</ntsc>
						</rate>
						<rate>
							<timebase>60</timebase>
							<ntsc>TRUE</ntsc>
						</rate>
						<duration>42</duration>
						<start>2856</start>
						<end>2898</end>
						<in>2868</in>
						<out>2910</out>
					</clipitem>
					<clipitem frameBlend="FALSE" id="clipitem-1031">
						<file id="file-1"/>
						<name>bandicam 2025-06-02 00-01-10-144</name>
						<rate>
							<timebase>60</timebase>
							<ntsc>TRUE</ntsc>
						</rate>
						<rate>
							<timebase>60</timebase>
							<ntsc>TRUE</ntsc>
						</rate>
						<duration>0</duration>
						<start>2910</start>
						<end>2910</end>
						<in>2946</in>
						<out>2946</out>
					</clipitem>
					<clipitem frameBlend="FALSE" id="clipitem-1032">
						<file id="file-1"/>
						<name>bandicam 2025-06-02 00-01-10-144</name>
						<rate>
							<timebase>60</timebase>
							<ntsc>TRUE</ntsc>
						</rate>
						<rate>
							<timebase>60</timebase>
							<ntsc>TRUE</ntsc>
						</rate>
						<duration>24</duration>
						<start>2946</start>
						<end>2970</end>
						<in>2964</in>
						<out>2988</out>
					</clipitem>
					<clipitem frameBlend="FALSE" id="clipitem-1033">
						<file id="file-1"/>
						<name>bandicam 2025-06-02 00-01-10-144</name>
						<rate>
							<timebase>60</timebase>
							<ntsc>TRUE</ntsc>
						</rate>
						<rate>
							<timebase>60</timebase>
							<ntsc>TRUE</ntsc>
						</rate>
						<duration>42</duration>
						<start>2988</start>
						<end>3030</end>
						<in>3060</in>
						<out>3102</out>
					</clipitem>
					<clipitem frameBlend="FALSE" id="clipitem-1034">
						<file id="file-1"/>
						<name>bandicam 2025-06-02 00-01-10-144</name>
						<rate>
							<timebase>60</timebase>
							<ntsc>TRUE</ntsc>
						</rate>
						<rate>
							<timebase>60</timebase>
							<ntsc>TRUE</ntsc>
						</rate>
						<duration>24</duration>
						<start>3102</start>
						<end>3126</end>
						<in>3120</in>
						<out>3144</out>
					</clipitem>
					<clipitem frameBlend="FALSE" id="clipitem-1035">
						<file id="file-1"/>
						<name>bandicam 2025-06-02 00-01-10-144</name>
						<rate>
							<timebase>60</timebase>
							<ntsc>TRUE</ntsc>
						</rate>
						<rate>
							<timebase>60</timebase>
							<ntsc>TRUE</ntsc>
						</rate>
						<duration>30</duration>
						<start>3144</start>
						<end>3174</end>
						<in>3222</in>
						<out>3252</out>
					</clipitem>
					<clipitem frameBlend="FALSE" id="clipitem-1036">
						<file id="file-1"/>
						<name>bandicam 2025-06-02 00-01-10-144</name>
						<rate>
							<timebase>60</timebase>
							<ntsc>TRUE</ntsc>
						</rate>
						<rate>
							<timebase>60</timebase>
							<ntsc>TRUE</ntsc>
						</rate>
						<duration>36</duration>
						<start>3252</start>
						<end>3288</end>
						<in>3270</in>
						<out>3306</out>
					</clipitem>
					<clipitem frameBlend="FALSE" id="clipitem-1037">
						<file id="file-1"/>
						<name>bandicam 2025-06-02 00-01-10-144</name>
						<rate>
							<timebase>60</timebase>
							<ntsc>TRUE</ntsc>
						</rate>
						<rate>
							<timebase>60</timebase>
							<ntsc>TRUE</ntsc>
						</rate>
						<duration>24</duration>
						<start>3306</start>
						<end>3330</end>
						<in>3372</in>
						<out>3396</out>
					</clipitem>
					<clipitem frameBlend="FALSE" id="clipitem-1038">
						<file id="file-1"/>
						<name>bandicam 2025-06-02 00-01-10-144</name>
						<rate>
							<timebase>60</timebase>
							<ntsc>TRUE</ntsc>
						</rate>
						<rate>
							<timebase>60</timebase>
							<ntsc>TRUE</ntsc>
						</rate>
						<duration>24</duration>
						<start>3396</start>
						<end>3420</end>
						<in>3450</in>
						<out>3474</out>
					</clipitem>
					<clipitem frameBlend="FALSE" id="clipitem-1039">
						<file id="file-1"/>
						<name>bandicam 2025-06-02 00-01-10-144</name>
						<rate>
							<timebase>60</timebase>
							<ntsc>TRUE</ntsc>
						</rate>
						<rate>
							<timebase>60</timebase>
							<ntsc>TRUE</ntsc>
						</rate>
						<duration>24</duration>
						<start>3474</start>
						<end>3498</end>
						<in>3498</in>
						<out>3522</out>
					</clipitem>
					<clipitem frameBlend="FALSE" id="clipitem-1040">
						<file id="file-1"/>
						<name>bandicam 2025-06-02 00-01-10-144</name>
						<rate>
							<timebase>60</timebase>
							<ntsc>TRUE</ntsc>
						</rate>
						<rate>
							<timebase>60</timebase>
							<ntsc>TRUE</ntsc>
						</rate>
						<duration>0</duration>
						<start>3522</start>
						<end>3522</end>
						<in>3582</in>
						<out>3582</out>
					</clipitem>
					<clipitem frameBlend="FALSE" id="clipitem-1041">
						<file id="file-1"/>
						<name>bandicam 2025-06-02 00-01-10-144</name>
						<rate>
							<timebase>60</timebase>
							<ntsc>TRUE</ntsc>
						</rate>
						<rate>
							<timebase>60</timebase>
							<ntsc>TRUE</ntsc>
						</rate>
						<duration>18</duration>
						<start>3582</start>
						<end>3600</end>
						<in>3624</in>
						<out>3642</out>
					</clipitem>
					<clipitem frameBlend="FALSE" id="clipitem-1042">
						<file id="file-1"/>
						<name>bandicam 2025-06-02 00-01-10-144</name>
						<rate>
							<timebase>60</timebase>
							<ntsc>TRUE</ntsc>
						</rate>
						<rate>
							<timebase>60</timebase>
							<ntsc>TRUE</ntsc>
						</rate>
						<duration>0</duration>
						<start>3642</start>
						<end>3642</end>
						<in>3672</in>
						<out>3672</out>
					</clipitem>
					<clipitem frameBlend="FALSE" id="clipitem-1043">
						<file id="file-1"/>
						<name>bandicam 2025-06-02 00-01-10-144</name>
						<rate>
							<timebase>60</timebase>
							<ntsc>TRUE</ntsc>
						</rate>
						<rate>
							<timebase>60</timebase>
							<ntsc>TRUE</ntsc>
						</rate>
						<duration>0</duration>
						<start>3672</start>
						<end>3672</end>
						<in>3696</in>
						<out>3696</out>
					</clipitem>
					<clipitem frameBlend="FALSE" id="clipitem-1044">
						<file id="file-1"/>
						<name>bandicam 2025-06-02 00-01-10-144</name>
						<rate>
							<timebase>60</timebase>
							<ntsc>TRUE</ntsc>
						</rate>
						<rate>
							<timebase>60</timebase>
							<ntsc>TRUE</ntsc>
						</rate>
						<duration>12</duration>
						<start>3696</start>
						<end>3708</end>
						<in>3768</in>
						<out>3780</out>
					</clipitem>
					<clipitem frameBlend="FALSE" id="clipitem-1045">
						<file id="file-1"/>
						<name>bandicam 2025-06-02 00-01-10-144</name>
						<rate>
							<timebase>60</timebase>
							<ntsc>TRUE</ntsc>
						</rate>
						<rate>
							<timebase>60</timebase>
							<ntsc>TRUE</ntsc>
						</rate>
						<duration>24</duration>
						<start>3780</start>
						<end>3804</end>
						<in>3852</in>
						<out>3876</out>
					</clipitem>
					<clipitem frameBlend="FALSE" id="clipitem-1046">
						<file id="file-1"/>
						<name>bandicam 2025-06-02 00-01-10-144</name>
						<rate>
							<timebase>60</timebase>
							<ntsc>TRUE</ntsc>
						</rate>
						<rate>
							<timebase>60</timebase>
							<ntsc>TRUE</ntsc>
						</rate>
						<duration>24</duration>
						<start>3876</start>
						<end>3900</end>
						<in>3906</in>
						<out>3930</out>
					</clipitem>
					<clipitem frameBlend="FALSE" id="clipitem-1047">
						<file id="file-1"/>
						<name>bandicam 2025-06-02 00-01-10-144</name>
						<rate>
							<timebase>60</timebase>
							<ntsc>TRUE</ntsc>
						</rate>
						<rate>
							<timebase>60</timebase>
							<ntsc>TRUE</ntsc>
						</rate>
						<duration>6</duration>
						<start>3930</start>
						<end>3936</end>
						<in>4026</in>
						<out>4032</out>
					</clipitem>
					<clipitem frameBlend="FALSE" id="clipitem-1048">
						<file id="file-1"/>
						<name>bandicam 2025-06-02 00-01-10-144</name>
						<rate>
							<timebase>60</timebase>
							<ntsc>TRUE</ntsc>
						</rate>
						<rate>
							<timebase>60</timebase>
							<ntsc>TRUE</ntsc>
						</rate>
						<duration>0</duration>
						<start>4032</start>
						<end>4032</end>
						<in>4044</in>
						<out>4044</out>
					</clipitem>
					<clipitem frameBlend="FALSE" id="clipitem-1049">
						<file id="file-1"/>
						<name>bandicam 2025-06-02 00-01-10-144</name>
						<rate>
							<timebase>60</timebase>
							<ntsc>TRUE</ntsc>
						</rate>
						<rate>
							<timebase>60</timebase>
							<ntsc>TRUE</ntsc>
						</rate>
						<duration>78</duration>
						<start>4044</start>
						<end>4122</end>
						<in>4086</in>
						<out>4164</out>
					</clipitem>
					<clipitem frameBlend="FALSE" id="clipitem-1050">
						<file id="file-1"/>
						<name>bandicam 2025-06-02 00-01-10-144</name>
						<rate>
							<timebase>60</timebase>
							<ntsc>TRUE</ntsc>
						</rate>
						<rate>
							<timebase>60</timebase>
							<ntsc>TRUE</ntsc>
						</rate>
						<duration>12</duration>
						<start>4164</start>
						<end>4176</end>
						<in>4188</in>
						<out>4200</out>
					</clipitem>
					<clipitem frameBlend="FALSE" id="clipitem-1051">
						<file id="file-1"/>
						<name>bandicam 2025-06-02 00-01-10-144</name>
						<rate>
							<timebase>60</timebase>
							<ntsc>TRUE</ntsc>
						</rate>
						<rate>
							<timebase>60</timebase>
							<ntsc>TRUE</ntsc>
						</rate>
						<duration>54</duration>
						<start>4200</start>
						<end>4254</end>
						<in>4224</in>
						<out>4278</out>
					</clipitem>
					<clipitem frameBlend="FALSE" id="clipitem-1052">
						<file id="file-1"/>
						<name>bandicam 2025-06-02 00-01-10-144</name>
						<rate>
							<timebase>60</timebase>
							<ntsc>TRUE</ntsc>
						</rate>
						<rate>
							<timebase>60</timebase>
							<ntsc>TRUE</ntsc>
						</rate>
						<duration>132</duration>
						<start>4278</start>
						<end>4410</end>
						<in>4302</in>
						<out>4434</out>
					</clipitem>
					<clipitem frameBlend="FALSE" id="clipitem-1053">
						<file id="file-1"/>
						<name>bandicam 2025-06-02 00-01-10-144</name>
						<rate>
							<timebase>60</timebase>
							<ntsc>TRUE</ntsc>
						</rate>
						<rate>
							<timebase>60</timebase>
							<ntsc>TRUE</ntsc>
						</rate>
						<duration>12</duration>
						<start>4434</start>
						<end>4446</end>
						<in>4470</in>
						<out>4482</out>
					</clipitem>
					<clipitem frameBlend="FALSE" id="clipitem-1054">
						<file id="file-1"/>
						<name>bandicam 2025-06-02 00-01-10-144</name>
						<rate>
							<timebase>60</timebase>
							<ntsc>TRUE</ntsc>
						</rate>
						<rate>
							<timebase>60</timebase>
							<ntsc>TRUE</ntsc>
						</rate>
						<duration>48</duration>
						<start>4482</start>
						<end>4530</end>
						<in>4506</in>
						<out>4554</out>
					</clipitem>
					<clipitem frameBlend="FALSE" id="clipitem-1055">
						<file id="file-1"/>
						<name>bandicam 2025-06-02 00-01-10-144</name>
						<rate>
							<timebase>60</timebase>
							<ntsc>TRUE</ntsc>
						</rate>
						<rate>
							<timebase>60</timebase>
							<ntsc>TRUE</ntsc>
						</rate>
						<duration>30</duration>
						<start>4554</start>
						<end>4584</end>
						<in>4602</in>
						<out>4632</out>
					</clipitem>
					<clipitem frameBlend="FALSE" id="clipitem-1056">
						<file id="file-1"/>
						<name>bandicam 2025-06-02 00-01-10-144</name>
						<rate>
							<timebase>60</timebase>
							<ntsc>TRUE</ntsc>
						</rate>
						<rate>
							<timebase>60</timebase>
							<ntsc>TRUE</ntsc>
						</rate>
						<duration>24</duration>
						<start>4632</start>
						<end>4656</end>
						<in>4650</in>
						<out>4674</out>
					</clipitem>
					<clipitem frameBlend="FALSE" id="clipitem-1057">
						<file id="file-1"/>
						<name>bandicam 2025-06-02 00-01-10-144</name>
						<rate>
							<timebase>60</timebase>
							<ntsc>TRUE</ntsc>
						</rate>
						<rate>
							<timebase>60</timebase>
							<ntsc>TRUE</ntsc>
						</rate>
						<duration>0</duration>
						<start>4674</start>
						<end>4674</end>
						<in>4704</in>
						<out>4704</out>
					</clipitem>
					<clipitem frameBlend="FALSE" id="clipitem-1058">
						<file id="file-1"/>
						<name>bandicam 2025-06-02 00-01-10-144</name>
						<rate>
							<timebase>60</timebase>
							<ntsc>TRUE</ntsc>
						</rate>
						<rate>
							<timebase>60</timebase>
							<ntsc>TRUE</ntsc>
						</rate>
						<duration>90</duration>
						<start>4704</start>
						<end>4794</end>
						<in>4722</in>
						<out>4812</out>
					</clipitem>
					<clipitem frameBlend="FALSE" id="clipitem-1059">
						<file id="file-1"/>
						<name>bandicam 2025-06-02 00-01-10-144</name>
						<rate>
							<timebase>60</timebase>
							<ntsc>TRUE</ntsc>
						</rate>
						<rate>
							<timebase>60</timebase>
							<ntsc>TRUE</ntsc>
						</rate>
						<duration>0</duration>
						<start>4812</start>
						<end>4812</end>
						<in>4848</in>
						<out>4848</out>
					</clipitem>
					<clipitem frameBlend="FALSE" id="clipitem-1060">
						<file id="file-1"/>
						<name>bandicam 2025-06-02 00-01-10-144</name>
						<rate>
							<timebase>60</timebase>
							<ntsc>TRUE</ntsc>
						</rate>
						<rate>
							<timebase>60</timebase>
							<ntsc>TRUE</ntsc>
						</rate>
						<duration>12</duration>
						<start>4848</start>
						<end>4860</end>
						<in>4860</in>
						<out>4872</out>
					</clipitem>
					<clipitem frameBlend="FALSE" id="clipitem-1061">
						<file id="file-1"/>
						<name>bandicam 2025-06-02 00-01-10-144</name>
						<rate>
							<timebase>60</timebase>
							<ntsc>TRUE</ntsc>
						</rate>
						<rate>
							<timebase>60</timebase>
							<ntsc>TRUE</ntsc>
						</rate>
						<duration>6</duration>
						<start>4872</start>
						<end>4878</end>
						<in>4890</in>
						<out>4896</out>
					</clipitem>
					<clipitem frameBlend="FALSE" id="clipitem-1062">
						<file id="file-1"/>
						<name>bandicam 2025-06-02 00-01-10-144</name>
						<rate>
							<timebase>60</timebase>
							<ntsc>TRUE</ntsc>
						</rate>
						<rate>
							<timebase>60</timebase>
							<ntsc>TRUE</ntsc>
						</rate>
						<duration>24</duration>
						<start>4896</start>
						<end>4920</end>
						<in>4908</in>
						<out>4932</out>
					</clipitem>
					<clipitem frameBlend="FALSE" id="clipitem-1063">
						<file id="file-1"/>
						<name>bandicam 2025-06-02 00-01-10-144</name>
						<rate>
							<timebase>60</timebase>
							<ntsc>TRUE</ntsc>
						</rate>
						<rate>
							<timebase>60</timebase>
							<ntsc>TRUE</ntsc>
						</rate>
						<duration>30</duration>
						<start>4932</start>
						<end>4962</end>
						<in>4944</in>
						<out>4974</out>
					</clipitem>
					<clipitem frameBlend="FALSE" id="clipitem-1064">
						<file id="file-1"/>
						<name>bandicam 2025-06-02 00-01-10-144</name>
						<rate>
							<timebase>60</timebase>
							<ntsc>TRUE</ntsc>
						</rate>
						<rate>
							<timebase>60</timebase>
							<ntsc>TRUE</ntsc>
						</rate>
						<duration>30</duration>
						<start>4974</start>
						<end>5004</end>
						<in>5016</in>
						<out>5046</out>
					</clipitem>
					<clipitem frameBlend="FALSE" id="clipitem-1065">
						<file id="file-1"/>
						<name>bandicam 2025-06-02 00-01-10-144</name>
						<rate>
							<timebase>60</timebase>
							<ntsc>TRUE</ntsc>
						</rate>
						<rate>
							<timebase>60</timebase>
							<ntsc>TRUE</ntsc>
						</rate>
						<duration>6</duration>
						<start>5046</start>
						<end>5052</end>
						<in>5064</in>
						<out>5070</out>
					</clipitem>
					<clipitem frameBlend="FALSE" id="clipitem-1066">
						<file id="file-1"/>
						<name>bandicam 2025-06-02 00-01-10-144</name>
						<rate>
							<timebase>60</timebase>
							<ntsc>TRUE</ntsc>
						</rate>
						<rate>
							<timebase>60</timebase>
							<ntsc>TRUE</ntsc>
						</rate>
						<duration>96</duration>
						<start>5070</start>
						<end>5166</end>
						<in>5082</in>
						<out>5178</out>
					</clipitem>
					<clipitem frameBlend="FALSE" id="clipitem-1067">
						<file id="file-1"/>
						<name>bandicam 2025-06-02 00-01-10-144</name>
						<rate>
							<timebase>60</timebase>
							<ntsc>TRUE</ntsc>
						</rate>
						<rate>
							<timebase>60</timebase>
							<ntsc>TRUE</ntsc>
						</rate>
						<duration>24</duration>
						<start>5178</start>
						<end>5202</end>
						<in>5232</in>
						<out>5256</out>
					</clipitem>
					<clipitem frameBlend="FALSE" id="clipitem-1068">
						<file id="file-1"/>
						<name>bandicam 2025-06-02 00-01-10-144</name>
						<rate>
							<timebase>60</timebase>
							<ntsc>TRUE</ntsc>
						</rate>
						<rate>
							<timebase>60</timebase>
							<ntsc>TRUE</ntsc>
						</rate>
						<duration>12</duration>
						<start>5256</start>
						<end>5268</end>
						<in>5328</in>
						<out>5340</out>
					</clipitem>
					<clipitem frameBlend="FALSE" id="clipitem-1069">
						<file id="file-1"/>
						<name>bandicam 2025-06-02 00-01-10-144</name>
						<rate>
							<timebase>60</timebase>
							<ntsc>TRUE</ntsc>
						</rate>
						<rate>
							<timebase>60</timebase>
							<ntsc>TRUE</ntsc>
						</rate>
						<duration>12</duration>
						<start>5340</start>
						<end>5352</end>
						<in>5352</in>
						<out>5364</out>
					</clipitem>
					<clipitem frameBlend="FALSE" id="clipitem-1070">
						<file id="file-1"/>
						<name>bandicam 2025-06-02 00-01-10-144</name>
						<rate>
							<timebase>60</timebase>
							<ntsc>TRUE</ntsc>
						</rate>
						<rate>
							<timebase>60</timebase>
							<ntsc>TRUE</ntsc>
						</rate>
						<duration>84</duration>
						<start>5364</start>
						<end>5448</end>
						<in>5382</in>
						<out>5466</out>
					</clipitem>
					<clipitem frameBlend="FALSE" id="clipitem-1071">
						<file id="file-1"/>
						<name>bandicam 2025-06-02 00-01-10-144</name>
						<rate>
							<timebase>60</timebase>
							<ntsc>TRUE</ntsc>
						</rate>
						<rate>
							<timebase>60</timebase>
							<ntsc>TRUE</ntsc>
						</rate>
						<duration>18</duration>
						<start>5466</start>
						<end>5484</end>
						<in>5490</in>
						<out>5508</out>
					</clipitem>
					<clipitem frameBlend="FALSE" id="clipitem-1072">
						<file id="file-1"/>
						<name>bandicam 2025-06-02 00-01-10-144</name>
						<rate>
							<timebase>60</timebase>
							<ntsc>TRUE</ntsc>
						</rate>
						<rate>
							<timebase>60</timebase>
							<ntsc>TRUE</ntsc>
						</rate>
						<duration>0</duration>
						<start>5508</start>
						<end>5508</end>
						<in>5520</in>
						<out>5520</out>
					</clipitem>
					<clipitem frameBlend="FALSE" id="clipitem-1073">
						<file id="file-1"/>
						<name>bandicam 2025-06-02 00-01-10-144</name>
						<rate>
							<timebase>60</timebase>
							<ntsc>TRUE</ntsc>
						</rate>
						<rate>
							<timebase>60</timebase>
							<ntsc>TRUE</ntsc>
						</rate>
						<duration>36</duration>
						<start>5520</start>
						<end>5556</end>
						<in>5532</in>
						<out>5568</out>
					</clipitem>
					<clipitem frameBlend="FALSE" id="clipitem-1074">
						<file id="file-1"/>
						<name>bandicam 2025-06-02 00-01-10-144</name>
						<rate>
							<timebase>60</timebase>
							<ntsc>TRUE</ntsc>
						</rate>
						<rate>
							<timebase>60</timebase>
							<ntsc>TRUE</ntsc>
						</rate>
						<duration>18</duration>
						<start>5568</start>
						<end>5586</end>
						<in>5580</in>
						<out>5598</out>
					</clipitem>
					<clipitem frameBlend="FALSE" id="clipitem-1075">
						<file id="file-1"/>
						<name>bandicam 2025-06-02 00-01-10-144</name>
						<rate>
							<timebase>60</timebase>
							<ntsc>TRUE</ntsc>
						</rate>
						<rate>
							<timebase>60</timebase>
							<ntsc>TRUE</ntsc>
						</rate>
						<duration>24</duration>
						<start>5598</start>
						<end>5622</end>
						<in>5622</in>
						<out>5646</out>
					</clipitem>
					<clipitem frameBlend="FALSE" id="clipitem-1076">
						<file id="file-1"/>
						<name>bandicam 2025-06-02 00-01-10-144</name>
						<rate>
							<timebase>60</timebase>
							<ntsc>TRUE</ntsc>
						</rate>
						<rate>
							<timebase>60</timebase>
							<ntsc>TRUE</ntsc>
						</rate>
						<duration>30</duration>
						<start>5646</start>
						<end>5676</end>
						<in>5664</in>
						<out>5694</out>
					</clipitem>
					<clipitem frameBlend="FALSE" id="clipitem-1077">
						<file id="file-1"/>
						<name>bandicam 2025-06-02 00-01-10-144</name>
						<rate>
							<timebase>60</timebase>
							<ntsc>TRUE</ntsc>
						</rate>
						<rate>
							<timebase>60</timebase>
							<ntsc>TRUE</ntsc>
						</rate>
						<duration>6</duration>
						<start>5694</start>
						<end>5700</end>
						<in>5724</in>
						<out>5730</out>
					</clipitem>
					<clipitem frameBlend="FALSE" id="clipitem-1078">
						<file id="file-1"/>
						<name>bandicam 2025-06-02 00-01-10-144</name>
						<rate>
							<timebase>60</timebase>
							<ntsc>TRUE</ntsc>
						</rate>
						<rate>
							<timebase>60</timebase>
							<ntsc>TRUE</ntsc>
						</rate>
						<duration>30</duration>
						<start>5730</start>
						<end>5760</end>
						<in>5748</in>
						<out>5778</out>
					</clipitem>
					<clipitem frameBlend="FALSE" id="clipitem-1079">
						<file id="file-1"/>
						<name>bandicam 2025-06-02 00-01-10-144</name>
						<rate>
							<timebase>60</timebase>
							<ntsc>TRUE</ntsc>
						</rate>
						<rate>
							<timebase>60</timebase>
							<ntsc>TRUE</ntsc>
						</rate>
						<duration>186</duration>
						<start>5778</start>
						<end>5964</end>
						<in>5802</in>
						<out>5988</out>
					</clipitem>
					<clipitem frameBlend="FALSE" id="clipitem-1080">
						<file id="file-1"/>
						<name>bandicam 2025-06-02 00-01-10-144</name>
						<rate>
							<timebase>60</timebase>
							<ntsc>TRUE</ntsc>
						</rate>
						<rate>
							<timebase>60</timebase>
							<ntsc>TRUE</ntsc>
						</rate>
						<duration>78</duration>
						<start>5988</start>
						<end>6066</end>
						<in>6000</in>
						<out>6078</out>
					</clipitem>
					<clipitem frameBlend="FALSE" id="clipitem-1081">
						<file id="file-1"/>
						<name>bandicam 2025-06-02 00-01-10-144</name>
						<rate>
							<timebase>60</timebase>
							<ntsc>TRUE</ntsc>
						</rate>
						<rate>
							<timebase>60</timebase>
							<ntsc>TRUE</ntsc>
						</rate>
						<duration>0</duration>
						<start>6078</start>
						<end>6078</end>
						<in>6132</in>
						<out>6132</out>
					</clipitem>
					<clipitem frameBlend="FALSE" id="clipitem-1082">
						<file id="file-1"/>
						<name>bandicam 2025-06-02 00-01-10-144</name>
						<rate>
							<timebase>60</timebase>
							<ntsc>TRUE</ntsc>
						</rate>
						<rate>
							<timebase>60</timebase>
							<ntsc>TRUE</ntsc>
						</rate>
						<duration>60</duration>
						<start>6132</start>
						<end>6192</end>
						<in>6150</in>
						<out>6210</out>
					</clipitem>
					<clipitem frameBlend="FALSE" id="clipitem-1083">
						<file id="file-1"/>
						<name>bandicam 2025-06-02 00-01-10-144</name>
						<rate>
							<timebase>60</timebase>
							<ntsc>TRUE</ntsc>
						</rate>
						<rate>
							<timebase>60</timebase>
							<ntsc>TRUE</ntsc>
						</rate>
						<duration>36</duration>
						<start>6210</start>
						<end>6246</end>
						<in>6222</in>
						<out>6258</out>
					</clipitem>
					<clipitem frameBlend="FALSE" id="clipitem-1084">
						<file id="file-1"/>
						<name>bandicam 2025-06-02 00-01-10-144</name>
						<rate>
							<timebase>60</timebase>
							<ntsc>TRUE</ntsc>
						</rate>
						<rate>
							<timebase>60</timebase>
							<ntsc>TRUE</ntsc>
						</rate>
						<duration>0</duration>
						<start>6258</start>
						<end>6258</end>
						<in>6282</in>
						<out>6282</out>
					</clipitem>
					<clipitem frameBlend="FALSE" id="clipitem-1085">
						<file id="file-1"/>
						<name>bandicam 2025-06-02 00-01-10-144</name>
						<rate>
							<timebase>60</timebase>
							<ntsc>TRUE</ntsc>
						</rate>
						<rate>
							<timebase>60</timebase>
							<ntsc>TRUE</ntsc>
						</rate>
						<duration>0</duration>
						<start>6282</start>
						<end>6282</end>
						<in>6300</in>
						<out>6300</out>
					</clipitem>
					<clipitem frameBlend="FALSE" id="clipitem-1086">
						<file id="file-1"/>
						<name>bandicam 2025-06-02 00-01-10-144</name>
						<rate>
							<timebase>60</timebase>
							<ntsc>TRUE</ntsc>
						</rate>
						<rate>
							<timebase>60</timebase>
							<ntsc>TRUE</ntsc>
						</rate>
						<duration>24</duration>
						<start>6300</start>
						<end>6324</end>
						<in>6312</in>
						<out>6336</out>
					</clipitem>
					<clipitem frameBlend="FALSE" id="clipitem-1087">
						<file id="file-1"/>
						<name>bandicam 2025-06-02 00-01-10-144</name>
						<rate>
							<timebase>60</timebase>
							<ntsc>TRUE</ntsc>
						</rate>
						<rate>
							<timebase>60</timebase>
							<ntsc>TRUE</ntsc>
						</rate>
						<duration>24</duration>
						<start>6336</start>
						<end>6360</end>
						<in>6384</in>
						<out>6408</out>
					</clipitem>
					<clipitem frameBlend="FALSE" id="clipitem-1088">
						<file id="file-1"/>
						<name>bandicam 2025-06-02 00-01-10-144</name>
						<rate>
							<timebase>60</timebase>
							<ntsc>TRUE</ntsc>
						</rate>
						<rate>
							<timebase>60</timebase>
							<ntsc>TRUE</ntsc>
						</rate>
						<duration>24</duration>
						<start>6408</start>
						<end>6432</end>
						<in>6432</in>
						<out>6456</out>
					</clipitem>
					<clipitem frameBlend="FALSE" id="clipitem-1089">
						<file id="file-1"/>
						<name>bandicam 2025-06-02 00-01-10-144</name>
						<rate>
							<timebase>60</timebase>
							<ntsc>TRUE</ntsc>
						</rate>
						<rate>
							<timebase>60</timebase>
							<ntsc>TRUE</ntsc>
						</rate>
						<duration>66</duration>
						<start>6456</start>
						<end>6522</end>
						<in>6468</in>
						<out>6534</out>
					</clipitem>
					<clipitem frameBlend="FALSE" id="clipitem-1090">
						<file id="file-1"/>
						<name>bandicam 2025-06-02 00-01-10-144</name>
						<rate>
							<timebase>60</timebase>
							<ntsc>TRUE</ntsc>
						</rate>
						<rate>
							<timebase>60</timebase>
							<ntsc>TRUE</ntsc>
						</rate>
						<duration>42</duration>
						<start>6534</start>
						<end>6576</end>
						<in>6546</in>
						<out>6588</out>
					</clipitem>
					<clipitem frameBlend="FALSE" id="clipitem-1091">
						<file id="file-1"/>
						<name>bandicam 2025-06-02 00-01-10-144</name>
						<rate>
							<timebase>60</timebase>
							<ntsc>TRUE</ntsc>
						</rate>
						<rate>
							<timebase>60</timebase>
							<ntsc>TRUE</ntsc>
						</rate>
						<duration>24</duration>
						<start>6588</start>
						<end>6612</end>
						<in>6612</in>
						<out>6636</out>
					</clipitem>
					<clipitem frameBlend="FALSE" id="clipitem-1092">
						<file id="file-1"/>
						<name>bandicam 2025-06-02 00-01-10-144</name>
						<rate>
							<timebase>60</timebase>
							<ntsc>TRUE</ntsc>
						</rate>
						<rate>
							<timebase>60</timebase>
							<ntsc>TRUE</ntsc>
						</rate>
						<duration>0</duration>
						<start>6636</start>
						<end>6636</end>
						<in>6714</in>
						<out>6714</out>
					</clipitem>
					<clipitem frameBlend="FALSE" id="clipitem-1093">
						<file id="file-1"/>
						<name>bandicam 2025-06-02 00-01-10-144</name>
						<rate>
							<timebase>60</timebase>
							<ntsc>TRUE</ntsc>
						</rate>
						<rate>
							<timebase>60</timebase>
							<ntsc>TRUE</ntsc>
						</rate>
						<duration>12</duration>
						<start>6714</start>
						<end>6726</end>
						<in>6750</in>
						<out>6762</out>
					</clipitem>
					<clipitem frameBlend="FALSE" id="clipitem-1094">
						<file id="file-1"/>
						<name>bandicam 2025-06-02 00-01-10-144</name>
						<rate>
							<timebase>60</timebase>
							<ntsc>TRUE</ntsc>
						</rate>
						<rate>
							<timebase>60</timebase>
							<ntsc>TRUE</ntsc>
						</rate>
						<duration>12</duration>
						<start>6762</start>
						<end>6774</end>
						<in>6804</in>
						<out>6816</out>
					</clipitem>
					<clipitem frameBlend="FALSE" id="clipitem-1095">
						<file id="file-1"/>
						<name>bandicam 2025-06-02 00-01-10-144</name>
						<rate>
							<timebase>60</timebase>
							<ntsc>TRUE</ntsc>
						</rate>
						<rate>
							<timebase>60</timebase>
							<ntsc>TRUE</ntsc>
						</rate>
						<duration>24</duration>
						<start>6816</start>
						<end>6840</end>
						<in>6828</in>
						<out>6852</out>
					</clipitem>
					<clipitem frameBlend="FALSE" id="clipitem-1096">
						<file id="file-1"/>
						<name>bandicam 2025-06-02 00-01-10-144</name>
						<rate>
							<timebase>60</timebase>
							<ntsc>TRUE</ntsc>
						</rate>
						<rate>
							<timebase>60</timebase>
							<ntsc>TRUE</ntsc>
						</rate>
						<duration>6</duration>
						<start>6852</start>
						<end>6858</end>
						<in>6894</in>
						<out>6900</out>
					</clipitem>
					<clipitem frameBlend="FALSE" id="clipitem-1097">
						<file id="file-1"/>
						<name>bandicam 2025-06-02 00-01-10-144</name>
						<rate>
							<timebase>60</timebase>
							<ntsc>TRUE</ntsc>
						</rate>
						<rate>
							<timebase>60</timebase>
							<ntsc>TRUE</ntsc>
						</rate>
						<duration>24</duration>
						<start>6900</start>
						<end>6924</end>
						<in>6912</in>
						<out>6936</out>
					</clipitem>
					<clipitem frameBlend="FALSE" id="clipitem-1098">
						<file id="file-1"/>
						<name>bandicam 2025-06-02 00-01-10-144</name>
						<rate>
							<timebase>60</timebase>
							<ntsc>TRUE</ntsc>
						</rate>
						<rate>
							<timebase>60</timebase>
							<ntsc>TRUE</ntsc>
						</rate>
						<duration>0</duration>
						<start>6936</start>
						<end>6936</end>
						<in>6954</in>
						<out>6954</out>
					</clipitem>
					<clipitem frameBlend="FALSE" id="clipitem-1099">
						<file id="file-1"/>
						<name>bandicam 2025-06-02 00-01-10-144</name>
						<rate>
							<timebase>60</timebase>
							<ntsc>TRUE</ntsc>
						</rate>
						<rate>
							<timebase>60</timebase>
							<ntsc>TRUE</ntsc>
						</rate>
						<duration>0</duration>
						<start>6954</start>
						<end>6954</end>
						<in>7002</in>
						<out>7002</out>
					</clipitem>
					<clipitem frameBlend="FALSE" id="clipitem-1100">
						<file id="file-1"/>
						<name>bandicam 2025-06-02 00-01-10-144</name>
						<rate>
							<timebase>60</timebase>
							<ntsc>TRUE</ntsc>
						</rate>
						<rate>
							<timebase>60</timebase>
							<ntsc>TRUE</ntsc>
						</rate>
						<duration>24</duration>
						<start>7002</start>
						<end>7026</end>
						<in>7026</in>
						<out>7050</out>
					</clipitem>
					<clipitem frameBlend="FALSE" id="clipitem-1101">
						<file id="file-1"/>
						<name>bandicam 2025-06-02 00-01-10-144</name>
						<rate>
							<timebase>60</timebase>
							<ntsc>TRUE</ntsc>
						</rate>
						<rate>
							<timebase>60</timebase>
							<ntsc>TRUE</ntsc>
						</rate>
						<duration>18</duration>
						<start>7050</start>
						<end>7068</end>
						<in>12</in>
						<out>30</out>
					</clipitem>
					<clipitem frameBlend="FALSE" id="clipitem-1102">
						<file id="file-1"/>
						<name>bandicam 2025-06-02 00-01-10-144</name>
						<rate>
							<timebase>60</timebase>
							<ntsc>TRUE</ntsc>
						</rate>
						<rate>
							<timebase>60</timebase>
							<ntsc>TRUE</ntsc>
						</rate>
						<duration>36</duration>
						<start>30</start>
						<end>66</end>
						<in>54</in>
						<out>90</out>
					</clipitem>
					<clipitem frameBlend="FALSE" id="clipitem-1103">
						<file id="file-1"/>
						<name>bandicam 2025-06-02 00-01-10-144</name>
						<rate>
							<timebase>60</timebase>
							<ntsc>TRUE</ntsc>
						</rate>
						<rate>
							<timebase>60</timebase>
							<ntsc>TRUE</ntsc>
						</rate>
						<duration>18</duration>
						<start>90</start>
						<end>108</end>
						<in>108</in>
						<out>126</out>
					</clipitem>
					<clipitem frameBlend="FALSE" id="clipitem-1104">
						<file id="file-1"/>
						<name>bandicam 2025-06-02 00-01-10-144</name>
						<rate>
							<timebase>60</timebase>
							<ntsc>TRUE</ntsc>
						</rate>
						<rate>
							<timebase>60</timebase>
							<ntsc>TRUE</ntsc>
						</rate>
						<duration>24</duration>
						<start>126</start>
						<end>150</end>
						<in>174</in>
						<out>198</out>
					</clipitem>
					<clipitem frameBlend="FALSE" id="clipitem-1105">
						<file id="file-1"/>
						<name>bandicam 2025-06-02 00-01-10-144</name>
						<rate>
							<timebase>60</timebase>
							<ntsc>TRUE</ntsc>
						</rate>
						<rate>
							<timebase>60</timebase>
							<ntsc>TRUE</ntsc>
						</rate>
						<duration>0</duration>
						<start>198</start>
						<end>198</end>
						<in>300</in>
						<out>300</out>
					</clipitem>
					<clipitem frameBlend="FALSE" id="clipitem-1106">
						<file id="file-1"/>
						<name>bandicam 2025-06-02 00-01-10-144</name>
						<rate>
							<timebase>60</timebase>
							<ntsc>TRUE</ntsc>
						</rate>
						<rate>
							<timebase>60</timebase>
							<ntsc>TRUE</ntsc>
						</rate>
						<duration>24</duration>
						<start>300</start>
						<end>324</end>
						<in>360</in>
						<out>384</out>
					</clipitem>
					<clipitem frameBlend="FALSE" id="clipitem-1107">
						<file id="file-1"/>
						<name>bandicam 2025-06-02 00-01-10-144</name>
						<rate>
							<timebase>60</timebase>
							<ntsc>TRUE</ntsc>
						</rate>
						<rate>
							<timebase>60</timebase>
							<ntsc>TRUE</ntsc>
						</rate>
						<duration>0</duration>
						<start>384</start>
						<end>384</end>
						<in>438</in>
						<out>438</out>
					</clipitem>
					<clipitem frameBlend="FALSE" id="clipitem-1108">
						<file id="file-1"/>
						<name>bandicam 2025-06-02 00-01-10-144</name>
						<rate>
							<timebase>60</timebase>
							<ntsc>TRUE</ntsc>
						</rate>
						<rate>
							<timebase>60</timebase>
							<ntsc>TRUE</ntsc>
						</rate>
						<duration>42</duration>
						<start>438</start>
						<end>480</end>
						<in>450</in>
						<out>492</out>
					</clipitem>
					<clipitem frameBlend="FALSE" id="clipitem-1109">
						<file id="file-1"/>
						<name>bandicam 2025-06-02 00-01-10-144</name>
						<rate>
							<timebase>60</timebase>
							<ntsc>TRUE</ntsc>
						</rate>
						<rate>
							<timebase>60</timebase>
							<ntsc>TRUE</ntsc>
						</rate>
						<duration>0</duration>
						<start>492</start>
						<end>492</end>
						<in>504</in>
						<out>504</out>
					</clipitem>
					<clipitem frameBlend="FALSE" id="clipitem-1110">
						<file id="file-1"/>
						<name>bandicam 2025-06-02 00-01-10-144</name>
						<rate>
							<timebase>60</timebase>
							<ntsc>TRUE</ntsc>
						</rate>
						<rate>
							<timebase>60</timebase>
							<ntsc>TRUE</ntsc>
						</rate>
						<duration>18</duration>
						<start>504</start>
						<end>522</end>
						<in>528</in>
						<out>546</out>
					</clipitem>
					<clipitem frameBlend="FALSE" id="clipitem-1111">
						<file id="file-1"/>
						<name>bandicam 2025-06-02 00-01-10-144</name>
						<rate>
							<timebase>60</timebase>
							<ntsc>TRUE</ntsc>
						</rate>
						<rate>
							<timebase>60</timebase>
							<ntsc>TRUE</ntsc>
						</rate>
						<duration>24</duration>
						<start>546</start>
						<end>570</end>
						<in>582</in>
						<out>606</out>
					</clipitem>
					<clipitem frameBlend="FALSE" id="clipitem-1112">
						<file id="file-1"/>
						<name>bandicam 2025-06-02 00-01-10-144</name>
						<rate>
							<timebase>60</timebase>
							<ntsc>TRUE</ntsc>
						</rate>
						<rate>
							<timebase>60</timebase>
							<ntsc>TRUE</ntsc>
						</rate>
						<duration>18</duration>
						<start>606</start>
						<end>624</end>
						<in>624</in>
						<out>642</out>
					</clipitem>
					<clipitem frameBlend="FALSE" id="clipitem-1113">
						<file id="file-1"/>
						<name>bandicam 2025-06-02 00-01-10-144</name>
						<rate>
							<timebase>60</timebase>
							<ntsc>TRUE</ntsc>
						</rate>
						<rate>
							<timebase>60</timebase>
							<ntsc>TRUE</ntsc>
						</rate>
						<duration>0</duration>
						<start>642</start>
						<end>642</end>
						<in>852</in>
						<out>852</out>
					</clipitem>
					<clipitem frameBlend="FALSE" id="clipitem-1114">
						<file id="file-1"/>
						<name>bandicam 2025-06-02 00-01-10-144</name>
						<rate>
							<timebase>60</timebase>
							<ntsc>TRUE</ntsc>
						</rate>
						<rate>
							<timebase>60</timebase>
							<ntsc>TRUE</ntsc>
						</rate>
						<duration>0</duration>
						<start>852</start>
						<end>852</end>
						<in>912</in>
						<out>912</out>
					</clipitem>
					<clipitem frameBlend="FALSE" id="clipitem-1115">
						<file id="file-1"/>
						<name>bandicam 2025-06-02 00-01-10-144</name>
						<rate>
							<timebase>60</timebase>
							<ntsc>TRUE</ntsc>
						</rate>
						<rate>
							<timebase>60</timebase>
							<ntsc>TRUE</ntsc>
						</rate>
						<duration>0</duration>
						<start>912</start>
						<end>912</end>
						<in>936</in>
						<out>936</out>
					</clipitem>
					<clipitem frameBlend="FALSE" id="clipitem-1116">
						<file id="file-1"/>
						<name>bandicam 2025-06-02 00-01-10-144</name>
						<rate>
							<timebase>60</timebase>
							<ntsc>TRUE</ntsc>
						</rate>
						<rate>
							<timebase>60</timebase>
							<ntsc>TRUE</ntsc>
						</rate>
						<duration>0</duration>
						<start>936</start>
						<end>936</end>
						<in>954</in>
						<out>954</out>
					</clipitem>
					<clipitem frameBlend="FALSE" id="clipitem-1117">
						<file id="file-1"/>
						<name>bandicam 2025-06-02 00-01-10-144</name>
						<rate>
							<timebase>60</timebase>
							<ntsc>TRUE</ntsc>
						</rate>
						<rate>
							<timebase>60</timebase>
							<ntsc>TRUE</ntsc>
						</rate>
						<duration>12</duration>
						<start>954</start>
						<end>966</end>
						<in>984</in>
						<out>996</out>
					</clipitem>
					<clipitem frameBlend="FALSE" id="clipitem-1118">
						<file id="file-1"/>
						<name>bandicam 2025-06-02 00-01-10-144</name>
						<rate>
							<timebase>60</timebase>
							<ntsc>TRUE</ntsc>
						</rate>
						<rate>
							<timebase>60</timebase>
							<ntsc>TRUE</ntsc>
						</rate>
						<duration>12</duration>
						<start>996</start>
						<end>1008</end>
						<in>1086</in>
						<out>1098</out>
					</clipitem>
					<clipitem frameBlend="FALSE" id="clipitem-1119">
						<file id="file-1"/>
						<name>bandicam 2025-06-02 00-01-10-144</name>
						<rate>
							<timebase>60</timebase>
							<ntsc>TRUE</ntsc>
						</rate>
						<rate>
							<timebase>60</timebase>
							<ntsc>TRUE</ntsc>
						</rate>
						<duration>6</duration>
						<start>1098</start>
						<end>1104</end>
						<in>1188</in>
						<out>1194</out>
					</clipitem>
					<clipitem frameBlend="FALSE" id="clipitem-1120">
						<file id="file-1"/>
						<name>bandicam 2025-06-02 00-01-10-144</name>
						<rate>
							<timebase>60</timebase>
							<ntsc>TRUE</ntsc>
						</rate>
						<rate>
							<timebase>60</timebase>
							<ntsc>TRUE</ntsc>
						</rate>
						<duration>24</duration>
						<start>1194</start>
						<end>1218</end>
						<in>1206</in>
						<out>1230</out>
					</clipitem>
					<clipitem frameBlend="FALSE" id="clipitem-1121">
						<file id="file-1"/>
						<name>bandicam 2025-06-02 00-01-10-144</name>
						<rate>
							<timebase>60</timebase>
							<ntsc>TRUE</ntsc>
						</rate>
						<rate>
							<timebase>60</timebase>
							<ntsc>TRUE</ntsc>
						</rate>
						<duration>0</duration>
						<start>1230</start>
						<end>1230</end>
						<in>1320</in>
						<out>1320</out>
					</clipitem>
					<clipitem frameBlend="FALSE" id="clipitem-1122">
						<file id="file-1"/>
						<name>bandicam 2025-06-02 00-01-10-144</name>
						<rate>
							<timebase>60</timebase>
							<ntsc>TRUE</ntsc>
						</rate>
						<rate>
							<timebase>60</timebase>
							<ntsc>TRUE</ntsc>
						</rate>
						<duration>48</duration>
						<start>1320</start>
						<end>1368</end>
						<in>1374</in>
						<out>1422</out>
					</clipitem>
					<clipitem frameBlend="FALSE" id="clipitem-1123">
						<file id="file-1"/>
						<name>bandicam 2025-06-02 00-01-10-144</name>
						<rate>
							<timebase>60</timebase>
							<ntsc>TRUE</ntsc>
						</rate>
						<rate>
							<timebase>60</timebase>
							<ntsc>TRUE</ntsc>
						</rate>
						<duration>18</duration>
						<start>1422</start>
						<end>1440</end>
						<in>1446</in>
						<out>1464</out>
					</clipitem>
					<clipitem frameBlend="FALSE" id="clipitem-1124">
						<file id="file-1"/>
						<name>bandicam 2025-06-02 00-01-10-144</name>
						<rate>
							<timebase>60</timebase>
							<ntsc>TRUE</ntsc>
						</rate>
						<rate>
							<timebase>60</timebase>
							<ntsc>TRUE</ntsc>
						</rate>
						<duration>0</duration>
						<start>1464</start>
						<end>1464</end>
						<in>1536</in>
						<out>1536</out>
					</clipitem>
					<clipitem frameBlend="FALSE" id="clipitem-1125">
						<file id="file-1"/>
						<name>bandicam 2025-06-02 00-01-10-144</name>
						<rate>
							<timebase>60</timebase>
							<ntsc>TRUE</ntsc>
						</rate>
						<rate>
							<timebase>60</timebase>
							<ntsc>TRUE</ntsc>
						</rate>
						<duration>18</duration>
						<start>1536</start>
						<end>1554</end>
						<in>1566</in>
						<out>1584</out>
					</clipitem>
					<clipitem frameBlend="FALSE" id="clipitem-1126">
						<file id="file-1"/>
						<name>bandicam 2025-06-02 00-01-10-144</name>
						<rate>
							<timebase>60</timebase>
							<ntsc>TRUE</ntsc>
						</rate>
						<rate>
							<timebase>60</timebase>
							<ntsc>TRUE</ntsc>
						</rate>
						<duration>42</duration>
						<start>1584</start>
						<end>1626</end>
						<in>1692</in>
						<out>1734</out>
					</clipitem>
					<clipitem frameBlend="FALSE" id="clipitem-1127">
						<file id="file-1"/>
						<name>bandicam 2025-06-02 00-01-10-144</name>
						<rate>
							<timebase>60</timebase>
							<ntsc>TRUE</ntsc>
						</rate>
						<rate>
							<timebase>60</timebase>
							<ntsc>TRUE</ntsc>
						</rate>
						<duration>36</duration>
						<start>1734</start>
						<end>1770</end>
						<in>1746</in>
						<out>1782</out>
					</clipitem>
					<clipitem frameBlend="FALSE" id="clipitem-1128">
						<file id="file-1"/>
						<name>bandicam 2025-06-02 00-01-10-144</name>
						<rate>
							<timebase>60</timebase>
							<ntsc>TRUE</ntsc>
						</rate>
						<rate>
							<timebase>60</timebase>
							<ntsc>TRUE</ntsc>
						</rate>
						<duration>30</duration>
						<start>1782</start>
						<end>1812</end>
						<in>1800</in>
						<out>1830</out>
					</clipitem>
					<clipitem frameBlend="FALSE" id="clipitem-1129">
						<file id="file-1"/>
						<name>bandicam 2025-06-02 00-01-10-144</name>
						<rate>
							<timebase>60</timebase>
							<ntsc>TRUE</ntsc>
						</rate>
						<rate>
							<timebase>60</timebase>
							<ntsc>TRUE</ntsc>
						</rate>
						<duration>30</duration>
						<start>1830</start>
						<end>1860</end>
						<in>1842</in>
						<out>1872</out>
					</clipitem>
					<clipitem frameBlend="FALSE" id="clipitem-1130">
						<file id="file-1"/>
						<name>bandicam 2025-06-02 00-01-10-144</name>
						<rate>
							<timebase>60</timebase>
							<ntsc>TRUE</ntsc>
						</rate>
						<rate>
							<timebase>60</timebase>
							<ntsc>TRUE</ntsc>
						</rate>
						<duration>12</duration>
						<start>1872</start>
						<end>1884</end>
						<in>1884</in>
						<out>1896</out>
					</clipitem>
					<clipitem frameBlend="FALSE" id="clipitem-1131">
						<file id="file-1"/>
						<name>bandicam 2025-06-02 00-01-10-144</name>
						<rate>
							<timebase>60</timebase>
							<ntsc>TRUE</ntsc>
						</rate>
						<rate>
							<timebase>60</timebase>
							<ntsc>TRUE</ntsc>
						</rate>
						<duration>24</duration>
						<start>1896</start>
						<end>1920</end>
						<in>1926</in>
						<out>1950</out>
					</clipitem>
					<clipitem frameBlend="FALSE" id="clipitem-1132">
						<file id="file-1"/>
						<name>bandicam 2025-06-02 00-01-10-144</name>
						<rate>
							<timebase>60</timebase>
							<ntsc>TRUE</ntsc>
						</rate>
						<rate>
							<timebase>60</timebase>
							<ntsc>TRUE</ntsc>
						</rate>
						<duration>18</duration>
						<start>1950</start>
						<end>1968</end>
						<in>2178</in>
						<out>2196</out>
					</clipitem>
					<clipitem frameBlend="FALSE" id="clipitem-1133">
						<file id="file-1"/>
						<name>bandicam 2025-06-02 00-01-10-144</name>
						<rate>
							<timebase>60</timebase>
							<ntsc>TRUE</ntsc>
						</rate>
						<rate>
							<timebase>60</timebase>
							<ntsc>TRUE</ntsc>
						</rate>
						<duration>78</duration>
						<start>2196</start>
						<end>2274</end>
						<in>2280</in>
						<out>2358</out>
					</clipitem>
					<clipitem frameBlend="FALSE" id="clipitem-1134">
						<file id="file-1"/>
						<name>bandicam 2025-06-02 00-01-10-144</name>
						<rate>
							<timebase>60</timebase>
							<ntsc>TRUE</ntsc>
						</rate>
						<rate>
							<timebase>60</timebase>
							<ntsc>TRUE</ntsc>
						</rate>
						<duration>12</duration>
						<start>2358</start>
						<end>2370</end>
						<in>2448</in>
						<out>2460</out>
					</clipitem>
					<clipitem frameBlend="FALSE" id="clipitem-1135">
						<file id="file-1"/>
						<name>bandicam 2025-06-02 00-01-10-144</name>
						<rate>
							<timebase>60</timebase>
							<ntsc>TRUE</ntsc>
						</rate>
						<rate>
							<timebase>60</timebase>
							<ntsc>TRUE</ntsc>
						</rate>
						<duration>6</duration>
						<start>2460</start>
						<end>2466</end>
						<in>2478</in>
						<out>2484</out>
					</clipitem>
					<clipitem frameBlend="FALSE" id="clipitem-1136">
						<file id="file-1"/>
						<name>bandicam 2025-06-02 00-01-10-144</name>
						<rate>
							<timebase>60</timebase>
							<ntsc>TRUE</ntsc>
						</rate>
						<rate>
							<timebase>60</timebase>
							<ntsc>TRUE</ntsc>
						</rate>
						<duration>6</duration>
						<start>2484</start>
						<end>2490</end>
						<in>2496</in>
						<out>2502</out>
					</clipitem>
					<clipitem frameBlend="FALSE" id="clipitem-1137">
						<file id="file-1"/>
						<name>bandicam 2025-06-02 00-01-10-144</name>
						<rate>
							<timebase>60</timebase>
							<ntsc>TRUE</ntsc>
						</rate>
						<rate>
							<timebase>60</timebase>
							<ntsc>TRUE</ntsc>
						</rate>
						<duration>30</duration>
						<start>2502</start>
						<end>2532</end>
						<in>2538</in>
						<out>2568</out>
					</clipitem>
					<clipitem frameBlend="FALSE" id="clipitem-1138">
						<file id="file-1"/>
						<name>bandicam 2025-06-02 00-01-10-144</name>
						<rate>
							<timebase>60</timebase>
							<ntsc>TRUE</ntsc>
						</rate>
						<rate>
							<timebase>60</timebase>
							<ntsc>TRUE</ntsc>
						</rate>
						<duration>36</duration>
						<start>2568</start>
						<end>2604</end>
						<in>2592</in>
						<out>2628</out>
					</clipitem>
					<clipitem frameBlend="FALSE" id="clipitem-1139">
						<file id="file-1"/>
						<name>bandicam 2025-06-02 00-01-10-144</name>
						<rate>
							<timebase>60</timebase>
							<ntsc>TRUE</ntsc>
						</rate>
						<rate>
							<timebase>60</timebase>
							<ntsc>TRUE</ntsc>
						</rate>
						<duration>36</duration>
						<start>2628</start>
						<end>2664</end>
						<in>2640</in>
						<out>2676</out>
					</clipitem>
					<clipitem frameBlend="FALSE" id="clipitem-1140">
						<file id="file-1"/>
						<name>bandicam 2025-06-02 00-01-10-144</name>
						<rate>
							<timebase>60</timebase>
							<ntsc>TRUE</ntsc>
						</rate>
						<rate>
							<timebase>60</timebase>
							<ntsc>TRUE</ntsc>
						</rate>
						<duration>126</duration>
						<start>2676</start>
						<end>2802</end>
						<in>2724</in>
						<out>2850</out>
					</clipitem>
					<clipitem frameBlend="FALSE" id="clipitem-1141">
						<file id="file-1"/>
						<name>bandicam 2025-06-02 00-01-10-144</name>
						<rate>
							<timebase>60</timebase>
							<ntsc>TRUE</ntsc>
						</rate>
						<rate>
							<timebase>60</timebase>
							<ntsc>TRUE</ntsc>
						</rate>
						<duration>24</duration>
						<start>2850</start>
						<end>2874</end>
						<in>2868</in>
						<out>2892</out>
					</clipitem>
					<clipitem frameBlend="FALSE" id="clipitem-1142">
						<file id="file-1"/>
						<name>bandicam 2025-06-02 00-01-10-144</name>
						<rate>
							<timebase>60</timebase>
							<ntsc>TRUE</ntsc>
						</rate>
						<rate>
							<timebase>60</timebase>
							<ntsc>TRUE</ntsc>
						</rate>
						<duration>6</duration>
						<start>2892</start>
						<end>2898</end>
						<in>2904</in>
						<out>2910</out>
					</clipitem>
					<clipitem frameBlend="FALSE" id="clipitem-1143">
						<file id="file-1"/>
						<name>bandicam 2025-06-02 00-01-10-144</name>
						<rate>
							<timebase>60</timebase>
							<ntsc>TRUE</ntsc>
						</rate>
						<rate>
							<timebase>60</timebase>
							<ntsc>TRUE</ntsc>
						</rate>
						<duration>0</duration>
						<start>2910</start>
						<end>2910</end>
						<in>2946</in>
						<out>2946</out>
					</clipitem>
					<clipitem frameBlend="FALSE" id="clipitem-1144">
						<file id="file-1"/>
						<name>bandicam 2025-06-02 00-01-10-144</name>
						<rate>
							<timebase>60</timebase>
							<ntsc>TRUE</ntsc>
						</rate>
						<rate>
							<timebase>60</timebase>
							<ntsc>TRUE</ntsc>
						</rate>
						<duration>24</duration>
						<start>2946</start>
						<end>2970</end>
						<in>2964</in>
						<out>2988</out>
					</clipitem>
					<clipitem frameBlend="FALSE" id="clipitem-1145">
						<file id="file-1"/>
						<name>bandicam 2025-06-02 00-01-10-144</name>
						<rate>
							<timebase>60</timebase>
							<ntsc>TRUE</ntsc>
						</rate>
						<rate>
							<timebase>60</timebase>
							<ntsc>TRUE</ntsc>
						</rate>
						<duration>42</duration>
						<start>2988</start>
						<end>3030</end>
						<in>3060</in>
						<out>3102</out>
					</clipitem>
					<clipitem frameBlend="FALSE" id="clipitem-1146">
						<file id="file-1"/>
						<name>bandicam 2025-06-02 00-01-10-144</name>
						<rate>
							<timebase>60</timebase>
							<ntsc>TRUE</ntsc>
						</rate>
						<rate>
							<timebase>60</timebase>
							<ntsc>TRUE</ntsc>
						</rate>
						<duration>24</duration>
						<start>3102</start>
						<end>3126</end>
						<in>3120</in>
						<out>3144</out>
					</clipitem>
					<clipitem frameBlend="FALSE" id="clipitem-1147">
						<file id="file-1"/>
						<name>bandicam 2025-06-02 00-01-10-144</name>
						<rate>
							<timebase>60</timebase>
							<ntsc>TRUE</ntsc>
						</rate>
						<rate>
							<timebase>60</timebase>
							<ntsc>TRUE</ntsc>
						</rate>
						<duration>24</duration>
						<start>3144</start>
						<end>3168</end>
						<in>3228</in>
						<out>3252</out>
					</clipitem>
					<clipitem frameBlend="FALSE" id="clipitem-1148">
						<file id="file-1"/>
						<name>bandicam 2025-06-02 00-01-10-144</name>
						<rate>
							<timebase>60</timebase>
							<ntsc>TRUE</ntsc>
						</rate>
						<rate>
							<timebase>60</timebase>
							<ntsc>TRUE</ntsc>
						</rate>
						<duration>36</duration>
						<start>3252</start>
						<end>3288</end>
						<in>3270</in>
						<out>3306</out>
					</clipitem>
					<clipitem frameBlend="FALSE" id="clipitem-1149">
						<file id="file-1"/>
						<name>bandicam 2025-06-02 00-01-10-144</name>
						<rate>
							<timebase>60</timebase>
							<ntsc>TRUE</ntsc>
						</rate>
						<rate>
							<timebase>60</timebase>
							<ntsc>TRUE</ntsc>
						</rate>
						<duration>18</duration>
						<start>3306</start>
						<end>3324</end>
						<in>3372</in>
						<out>3390</out>
					</clipitem>
					<clipitem frameBlend="FALSE" id="clipitem-1150">
						<file id="file-1"/>
						<name>bandicam 2025-06-02 00-01-10-144</name>
						<rate>
							<timebase>60</timebase>
							<ntsc>TRUE</ntsc>
						</rate>
						<rate>
							<timebase>60</timebase>
							<ntsc>TRUE</ntsc>
						</rate>
						<duration>24</duration>
						<start>3390</start>
						<end>3414</end>
						<in>3450</in>
						<out>3474</out>
					</clipitem>
					<clipitem frameBlend="FALSE" id="clipitem-1151">
						<file id="file-1"/>
						<name>bandicam 2025-06-02 00-01-10-144</name>
						<rate>
							<timebase>60</timebase>
							<ntsc>TRUE</ntsc>
						</rate>
						<rate>
							<timebase>60</timebase>
							<ntsc>TRUE</ntsc>
						</rate>
						<duration>24</duration>
						<start>3474</start>
						<end>3498</end>
						<in>3498</in>
						<out>3522</out>
					</clipitem>
					<clipitem frameBlend="FALSE" id="clipitem-1152">
						<file id="file-1"/>
						<name>bandicam 2025-06-02 00-01-10-144</name>
						<rate>
							<timebase>60</timebase>
							<ntsc>TRUE</ntsc>
						</rate>
						<rate>
							<timebase>60</timebase>
							<ntsc>TRUE</ntsc>
						</rate>
						<duration>0</duration>
						<start>3522</start>
						<end>3522</end>
						<in>3582</in>
						<out>3582</out>
					</clipitem>
					<clipitem frameBlend="FALSE" id="clipitem-1153">
						<file id="file-1"/>
						<name>bandicam 2025-06-02 00-01-10-144</name>
						<rate>
							<timebase>60</timebase>
							<ntsc>TRUE</ntsc>
						</rate>
						<rate>
							<timebase>60</timebase>
							<ntsc>TRUE</ntsc>
						</rate>
						<duration>18</duration>
						<start>3582</start>
						<end>3600</end>
						<in>3624</in>
						<out>3642</out>
					</clipitem>
					<clipitem frameBlend="FALSE" id="clipitem-1154">
						<file id="file-1"/>
						<name>bandicam 2025-06-02 00-01-10-144</name>
						<rate>
							<timebase>60</timebase>
							<ntsc>TRUE</ntsc>
						</rate>
						<rate>
							<timebase>60</timebase>
							<ntsc>TRUE</ntsc>
						</rate>
						<duration>0</duration>
						<start>3642</start>
						<end>3642</end>
						<in>3696</in>
						<out>3696</out>
					</clipitem>
					<clipitem frameBlend="FALSE" id="clipitem-1155">
						<file id="file-1"/>
						<name>bandicam 2025-06-02 00-01-10-144</name>
						<rate>
							<timebase>60</timebase>
							<ntsc>TRUE</ntsc>
						</rate>
						<rate>
							<timebase>60</timebase>
							<ntsc>TRUE</ntsc>
						</rate>
						<duration>12</duration>
						<start>3696</start>
						<end>3708</end>
						<in>3768</in>
						<out>3780</out>
					</clipitem>
					<clipitem frameBlend="FALSE" id="clipitem-1156">
						<file id="file-1"/>
						<name>bandicam 2025-06-02 00-01-10-144</name>
						<rate>
							<timebase>60</timebase>
							<ntsc>TRUE</ntsc>
						</rate>
						<rate>
							<timebase>60</timebase>
							<ntsc>TRUE</ntsc>
						</rate>
						<duration>18</duration>
						<start>3780</start>
						<end>3798</end>
						<in>3852</in>
						<out>3870</out>
					</clipitem>
					<clipitem frameBlend="FALSE" id="clipitem-1157">
						<file id="file-1"/>
						<name>bandicam 2025-06-02 00-01-10-144</name>
						<rate>
							<timebase>60</timebase>
							<ntsc>TRUE</ntsc>
						</rate>
						<rate>
							<timebase>60</timebase>
							<ntsc>TRUE</ntsc>
						</rate>
						<duration>24</duration>
						<start>3870</start>
						<end>3894</end>
						<in>3906</in>
						<out>3930</out>
					</clipitem>
					<clipitem frameBlend="FALSE" id="clipitem-1158">
						<file id="file-1"/>
						<name>bandicam 2025-06-02 00-01-10-144</name>
						<rate>
							<timebase>60</timebase>
							<ntsc>TRUE</ntsc>
						</rate>
						<rate>
							<timebase>60</timebase>
							<ntsc>TRUE</ntsc>
						</rate>
						<duration>6</duration>
						<start>3930</start>
						<end>3936</end>
						<in>4026</in>
						<out>4032</out>
					</clipitem>
					<clipitem frameBlend="FALSE" id="clipitem-1159">
						<file id="file-1"/>
						<name>bandicam 2025-06-02 00-01-10-144</name>
						<rate>
							<timebase>60</timebase>
							<ntsc>TRUE</ntsc>
						</rate>
						<rate>
							<timebase>60</timebase>
							<ntsc>TRUE</ntsc>
						</rate>
						<duration>0</duration>
						<start>4032</start>
						<end>4032</end>
						<in>4044</in>
						<out>4044</out>
					</clipitem>
					<clipitem frameBlend="FALSE" id="clipitem-1160">
						<file id="file-1"/>
						<name>bandicam 2025-06-02 00-01-10-144</name>
						<rate>
							<timebase>60</timebase>
							<ntsc>TRUE</ntsc>
						</rate>
						<rate>
							<timebase>60</timebase>
							<ntsc>TRUE</ntsc>
						</rate>
						<duration>72</duration>
						<start>4044</start>
						<end>4116</end>
						<in>4086</in>
						<out>4158</out>
					</clipitem>
					<clipitem frameBlend="FALSE" id="clipitem-1161">
						<file id="file-1"/>
						<name>bandicam 2025-06-02 00-01-10-144</name>
						<rate>
							<timebase>60</timebase>
							<ntsc>TRUE</ntsc>
						</rate>
						<rate>
							<timebase>60</timebase>
							<ntsc>TRUE</ntsc>
						</rate>
						<duration>12</duration>
						<start>4158</start>
						<end>4170</end>
						<in>4188</in>
						<out>4200</out>
					</clipitem>
					<clipitem frameBlend="FALSE" id="clipitem-1162">
						<file id="file-1"/>
						<name>bandicam 2025-06-02 00-01-10-144</name>
						<rate>
							<timebase>60</timebase>
							<ntsc>TRUE</ntsc>
						</rate>
						<rate>
							<timebase>60</timebase>
							<ntsc>TRUE</ntsc>
						</rate>
						<duration>42</duration>
						<start>4200</start>
						<end>4242</end>
						<in>4230</in>
						<out>4272</out>
					</clipitem>
					<clipitem frameBlend="FALSE" id="clipitem-1163">
						<file id="file-1"/>
						<name>bandicam 2025-06-02 00-01-10-144</name>
						<rate>
							<timebase>60</timebase>
							<ntsc>TRUE</ntsc>
						</rate>
						<rate>
							<timebase>60</timebase>
							<ntsc>TRUE</ntsc>
						</rate>
						<duration>132</duration>
						<start>4272</start>
						<end>4404</end>
						<in>4302</in>
						<out>4434</out>
					</clipitem>
					<clipitem frameBlend="FALSE" id="clipitem-1164">
						<file id="file-1"/>
						<name>bandicam 2025-06-02 00-01-10-144</name>
						<rate>
							<timebase>60</timebase>
							<ntsc>TRUE</ntsc>
						</rate>
						<rate>
							<timebase>60</timebase>
							<ntsc>TRUE</ntsc>
						</rate>
						<duration>12</duration>
						<start>4434</start>
						<end>4446</end>
						<in>4470</in>
						<out>4482</out>
					</clipitem>
					<clipitem frameBlend="FALSE" id="clipitem-1165">
						<file id="file-1"/>
						<name>bandicam 2025-06-02 00-01-10-144</name>
						<rate>
							<timebase>60</timebase>
							<ntsc>TRUE</ntsc>
						</rate>
						<rate>
							<timebase>60</timebase>
							<ntsc>TRUE</ntsc>
						</rate>
						<duration>48</duration>
						<start>4482</start>
						<end>4530</end>
						<in>4506</in>
						<out>4554</out>
					</clipitem>
					<clipitem frameBlend="FALSE" id="clipitem-1166">
						<file id="file-1"/>
						<name>bandicam 2025-06-02 00-01-10-144</name>
						<rate>
							<timebase>60</timebase>
							<ntsc>TRUE</ntsc>
						</rate>
						<rate>
							<timebase>60</timebase>
							<ntsc>TRUE</ntsc>
						</rate>
						<duration>30</duration>
						<start>4554</start>
						<end>4584</end>
						<in>4602</in>
						<out>4632</out>
					</clipitem>
					<clipitem frameBlend="FALSE" id="clipitem-1167">
						<file id="file-1"/>
						<name>bandicam 2025-06-02 00-01-10-144</name>
						<rate>
							<timebase>60</timebase>
							<ntsc>TRUE</ntsc>
						</rate>
						<rate>
							<timebase>60</timebase>
							<ntsc>TRUE</ntsc>
						</rate>
						<duration>18</duration>
						<start>4632</start>
						<end>4650</end>
						<in>4650</in>
						<out>4668</out>
					</clipitem>
					<clipitem frameBlend="FALSE" id="clipitem-1168">
						<file id="file-1"/>
						<name>bandicam 2025-06-02 00-01-10-144</name>
						<rate>
							<timebase>60</timebase>
							<ntsc>TRUE</ntsc>
						</rate>
						<rate>
							<timebase>60</timebase>
							<ntsc>TRUE</ntsc>
						</rate>
						<duration>0</duration>
						<start>4668</start>
						<end>4668</end>
						<in>4704</in>
						<out>4704</out>
					</clipitem>
					<clipitem frameBlend="FALSE" id="clipitem-1169">
						<file id="file-1"/>
						<name>bandicam 2025-06-02 00-01-10-144</name>
						<rate>
							<timebase>60</timebase>
							<ntsc>TRUE</ntsc>
						</rate>
						<rate>
							<timebase>60</timebase>
							<ntsc>TRUE</ntsc>
						</rate>
						<duration>48</duration>
						<start>4704</start>
						<end>4752</end>
						<in>4722</in>
						<out>4770</out>
					</clipitem>
					<clipitem frameBlend="FALSE" id="clipitem-1170">
						<file id="file-1"/>
						<name>bandicam 2025-06-02 00-01-10-144</name>
						<rate>
							<timebase>60</timebase>
							<ntsc>TRUE</ntsc>
						</rate>
						<rate>
							<timebase>60</timebase>
							<ntsc>TRUE</ntsc>
						</rate>
						<duration>18</duration>
						<start>4770</start>
						<end>4788</end>
						<in>4788</in>
						<out>4806</out>
					</clipitem>
					<clipitem frameBlend="FALSE" id="clipitem-1171">
						<file id="file-1"/>
						<name>bandicam 2025-06-02 00-01-10-144</name>
						<rate>
							<timebase>60</timebase>
							<ntsc>TRUE</ntsc>
						</rate>
						<rate>
							<timebase>60</timebase>
							<ntsc>TRUE</ntsc>
						</rate>
						<duration>0</duration>
						<start>4806</start>
						<end>4806</end>
						<in>4848</in>
						<out>4848</out>
					</clipitem>
					<clipitem frameBlend="FALSE" id="clipitem-1172">
						<file id="file-1"/>
						<name>bandicam 2025-06-02 00-01-10-144</name>
						<rate>
							<timebase>60</timebase>
							<ntsc>TRUE</ntsc>
						</rate>
						<rate>
							<timebase>60</timebase>
							<ntsc>TRUE</ntsc>
						</rate>
						<duration>12</duration>
						<start>4848</start>
						<end>4860</end>
						<in>4860</in>
						<out>4872</out>
					</clipitem>
					<clipitem frameBlend="FALSE" id="clipitem-1173">
						<file id="file-1"/>
						<name>bandicam 2025-06-02 00-01-10-144</name>
						<rate>
							<timebase>60</timebase>
							<ntsc>TRUE</ntsc>
						</rate>
						<rate>
							<timebase>60</timebase>
							<ntsc>TRUE</ntsc>
						</rate>
						<duration>6</duration>
						<start>4872</start>
						<end>4878</end>
						<in>4890</in>
						<out>4896</out>
					</clipitem>
					<clipitem frameBlend="FALSE" id="clipitem-1174">
						<file id="file-1"/>
						<name>bandicam 2025-06-02 00-01-10-144</name>
						<rate>
							<timebase>60</timebase>
							<ntsc>TRUE</ntsc>
						</rate>
						<rate>
							<timebase>60</timebase>
							<ntsc>TRUE</ntsc>
						</rate>
						<duration>18</duration>
						<start>4896</start>
						<end>4914</end>
						<in>4908</in>
						<out>4926</out>
					</clipitem>
					<clipitem frameBlend="FALSE" id="clipitem-1175">
						<file id="file-1"/>
						<name>bandicam 2025-06-02 00-01-10-144</name>
						<rate>
							<timebase>60</timebase>
							<ntsc>TRUE</ntsc>
						</rate>
						<rate>
							<timebase>60</timebase>
							<ntsc>TRUE</ntsc>
						</rate>
						<duration>30</duration>
						<start>4926</start>
						<end>4956</end>
						<in>4944</in>
						<out>4974</out>
					</clipitem>
					<clipitem frameBlend="FALSE" id="clipitem-1176">
						<file id="file-1"/>
						<name>bandicam 2025-06-02 00-01-10-144</name>
						<rate>
							<timebase>60</timebase>
							<ntsc>TRUE</ntsc>
						</rate>
						<rate>
							<timebase>60</timebase>
							<ntsc>TRUE</ntsc>
						</rate>
						<duration>18</duration>
						<start>4974</start>
						<end>4992</end>
						<in>5022</in>
						<out>5040</out>
					</clipitem>
					<clipitem frameBlend="FALSE" id="clipitem-1177">
						<file id="file-1"/>
						<name>bandicam 2025-06-02 00-01-10-144</name>
						<rate>
							<timebase>60</timebase>
							<ntsc>TRUE</ntsc>
						</rate>
						<rate>
							<timebase>60</timebase>
							<ntsc>TRUE</ntsc>
						</rate>
						<duration>6</duration>
						<start>5040</start>
						<end>5046</end>
						<in>5064</in>
						<out>5070</out>
					</clipitem>
					<clipitem frameBlend="FALSE" id="clipitem-1178">
						<file id="file-1"/>
						<name>bandicam 2025-06-02 00-01-10-144</name>
						<rate>
							<timebase>60</timebase>
							<ntsc>TRUE</ntsc>
						</rate>
						<rate>
							<timebase>60</timebase>
							<ntsc>TRUE</ntsc>
						</rate>
						<duration>0</duration>
						<start>5070</start>
						<end>5070</end>
						<in>5082</in>
						<out>5082</out>
					</clipitem>
					<clipitem frameBlend="FALSE" id="clipitem-1179">
						<file id="file-1"/>
						<name>bandicam 2025-06-02 00-01-10-144</name>
						<rate>
							<timebase>60</timebase>
							<ntsc>TRUE</ntsc>
						</rate>
						<rate>
							<timebase>60</timebase>
							<ntsc>TRUE</ntsc>
						</rate>
						<duration>84</duration>
						<start>5082</start>
						<end>5166</end>
						<in>5094</in>
						<out>5178</out>
					</clipitem>
					<clipitem frameBlend="FALSE" id="clipitem-1180">
						<file id="file-1"/>
						<name>bandicam 2025-06-02 00-01-10-144</name>
						<rate>
							<timebase>60</timebase>
							<ntsc>TRUE</ntsc>
						</rate>
						<rate>
							<timebase>60</timebase>
							<ntsc>TRUE</ntsc>
						</rate>
						<duration>24</duration>
						<start>5178</start>
						<end>5202</end>
						<in>5232</in>
						<out>5256</out>
					</clipitem>
					<clipitem frameBlend="FALSE" id="clipitem-1181">
						<file id="file-1"/>
						<name>bandicam 2025-06-02 00-01-10-144</name>
						<rate>
							<timebase>60</timebase>
							<ntsc>TRUE</ntsc>
						</rate>
						<rate>
							<timebase>60</timebase>
							<ntsc>TRUE</ntsc>
						</rate>
						<duration>12</duration>
						<start>5256</start>
						<end>5268</end>
						<in>5328</in>
						<out>5340</out>
					</clipitem>
					<clipitem frameBlend="FALSE" id="clipitem-1182">
						<file id="file-1"/>
						<name>bandicam 2025-06-02 00-01-10-144</name>
						<rate>
							<timebase>60</timebase>
							<ntsc>TRUE</ntsc>
						</rate>
						<rate>
							<timebase>60</timebase>
							<ntsc>TRUE</ntsc>
						</rate>
						<duration>6</duration>
						<start>5340</start>
						<end>5346</end>
						<in>5352</in>
						<out>5358</out>
					</clipitem>
					<clipitem frameBlend="FALSE" id="clipitem-1183">
						<file id="file-1"/>
						<name>bandicam 2025-06-02 00-01-10-144</name>
						<rate>
							<timebase>60</timebase>
							<ntsc>TRUE</ntsc>
						</rate>
						<rate>
							<timebase>60</timebase>
							<ntsc>TRUE</ntsc>
						</rate>
						<duration>18</duration>
						<start>5358</start>
						<end>5376</end>
						<in>5382</in>
						<out>5400</out>
					</clipitem>
					<clipitem frameBlend="FALSE" id="clipitem-1184">
						<file id="file-1"/>
						<name>bandicam 2025-06-02 00-01-10-144</name>
						<rate>
							<timebase>60</timebase>
							<ntsc>TRUE</ntsc>
						</rate>
						<rate>
							<timebase>60</timebase>
							<ntsc>TRUE</ntsc>
						</rate>
						<duration>36</duration>
						<start>5400</start>
						<end>5436</end>
						<in>5412</in>
						<out>5448</out>
					</clipitem>
					<clipitem frameBlend="FALSE" id="clipitem-1185">
						<file id="file-1"/>
						<name>bandicam 2025-06-02 00-01-10-144</name>
						<rate>
							<timebase>60</timebase>
							<ntsc>TRUE</ntsc>
						</rate>
						<rate>
							<timebase>60</timebase>
							<ntsc>TRUE</ntsc>
						</rate>
						<duration>0</duration>
						<start>5448</start>
						<end>5448</end>
						<in>5466</in>
						<out>5466</out>
					</clipitem>
					<clipitem frameBlend="FALSE" id="clipitem-1186">
						<file id="file-1"/>
						<name>bandicam 2025-06-02 00-01-10-144</name>
						<rate>
							<timebase>60</timebase>
							<ntsc>TRUE</ntsc>
						</rate>
						<rate>
							<timebase>60</timebase>
							<ntsc>TRUE</ntsc>
						</rate>
						<duration>18</duration>
						<start>5466</start>
						<end>5484</end>
						<in>5490</in>
						<out>5508</out>
					</clipitem>
					<clipitem frameBlend="FALSE" id="clipitem-1187">
						<file id="file-1"/>
						<name>bandicam 2025-06-02 00-01-10-144</name>
						<rate>
							<timebase>60</timebase>
							<ntsc>TRUE</ntsc>
						</rate>
						<rate>
							<timebase>60</timebase>
							<ntsc>TRUE</ntsc>
						</rate>
						<duration>0</duration>
						<start>5508</start>
						<end>5508</end>
						<in>5520</in>
						<out>5520</out>
					</clipitem>
					<clipitem frameBlend="FALSE" id="clipitem-1188">
						<file id="file-1"/>
						<name>bandicam 2025-06-02 00-01-10-144</name>
						<rate>
							<timebase>60</timebase>
							<ntsc>TRUE</ntsc>
						</rate>
						<rate>
							<timebase>60</timebase>
							<ntsc>TRUE</ntsc>
						</rate>
						<duration>18</duration>
						<start>5520</start>
						<end>5538</end>
						<in>5532</in>
						<out>5550</out>
					</clipitem>
					<clipitem frameBlend="FALSE" id="clipitem-1189">
						<file id="file-1"/>
						<name>bandicam 2025-06-02 00-01-10-144</name>
						<rate>
							<timebase>60</timebase>
							<ntsc>TRUE</ntsc>
						</rate>
						<rate>
							<timebase>60</timebase>
							<ntsc>TRUE</ntsc>
						</rate>
						<duration>18</duration>
						<start>5550</start>
						<end>5568</end>
						<in>5580</in>
						<out>5598</out>
					</clipitem>
					<clipitem frameBlend="FALSE" id="clipitem-1190">
						<file id="file-1"/>
						<name>bandicam 2025-06-02 00-01-10-144</name>
						<rate>
							<timebase>60</timebase>
							<ntsc>TRUE</ntsc>
						</rate>
						<rate>
							<timebase>60</timebase>
							<ntsc>TRUE</ntsc>
						</rate>
						<duration>24</duration>
						<start>5598</start>
						<end>5622</end>
						<in>5622</in>
						<out>5646</out>
					</clipitem>
					<clipitem frameBlend="FALSE" id="clipitem-1191">
						<file id="file-1"/>
						<name>bandicam 2025-06-02 00-01-10-144</name>
						<rate>
							<timebase>60</timebase>
							<ntsc>TRUE</ntsc>
						</rate>
						<rate>
							<timebase>60</timebase>
							<ntsc>TRUE</ntsc>
						</rate>
						<duration>30</duration>
						<start>5646</start>
						<end>5676</end>
						<in>5664</in>
						<out>5694</out>
					</clipitem>
					<clipitem frameBlend="FALSE" id="clipitem-1192">
						<file id="file-1"/>
						<name>bandicam 2025-06-02 00-01-10-144</name>
						<rate>
							<timebase>60</timebase>
							<ntsc>TRUE</ntsc>
						</rate>
						<rate>
							<timebase>60</timebase>
							<ntsc>TRUE</ntsc>
						</rate>
						<duration>0</duration>
						<start>5694</start>
						<end>5694</end>
						<in>5724</in>
						<out>5724</out>
					</clipitem>
					<clipitem frameBlend="FALSE" id="clipitem-1193">
						<file id="file-1"/>
						<name>bandicam 2025-06-02 00-01-10-144</name>
						<rate>
							<timebase>60</timebase>
							<ntsc>TRUE</ntsc>
						</rate>
						<rate>
							<timebase>60</timebase>
							<ntsc>TRUE</ntsc>
						</rate>
						<duration>30</duration>
						<start>5724</start>
						<end>5754</end>
						<in>5748</in>
						<out>5778</out>
					</clipitem>
					<clipitem frameBlend="FALSE" id="clipitem-1194">
						<file id="file-1"/>
						<name>bandicam 2025-06-02 00-01-10-144</name>
						<rate>
							<timebase>60</timebase>
							<ntsc>TRUE</ntsc>
						</rate>
						<rate>
							<timebase>60</timebase>
							<ntsc>TRUE</ntsc>
						</rate>
						<duration>180</duration>
						<start>5778</start>
						<end>5958</end>
						<in>5802</in>
						<out>5982</out>
					</clipitem>
					<clipitem frameBlend="FALSE" id="clipitem-1195">
						<file id="file-1"/>
						<name>bandicam 2025-06-02 00-01-10-144</name>
						<rate>
							<timebase>60</timebase>
							<ntsc>TRUE</ntsc>
						</rate>
						<rate>
							<timebase>60</timebase>
							<ntsc>TRUE</ntsc>
						</rate>
						<duration>72</duration>
						<start>5982</start>
						<end>6054</end>
						<in>6000</in>
						<out>6072</out>
					</clipitem>
					<clipitem frameBlend="FALSE" id="clipitem-1196">
						<file id="file-1"/>
						<name>bandicam 2025-06-02 00-01-10-144</name>
						<rate>
							<timebase>60</timebase>
							<ntsc>TRUE</ntsc>
						</rate>
						<rate>
							<timebase>60</timebase>
							<ntsc>TRUE</ntsc>
						</rate>
						<duration>0</duration>
						<start>6072</start>
						<end>6072</end>
						<in>6132</in>
						<out>6132</out>
					</clipitem>
					<clipitem frameBlend="FALSE" id="clipitem-1197">
						<file id="file-1"/>
						<name>bandicam 2025-06-02 00-01-10-144</name>
						<rate>
							<timebase>60</timebase>
							<ntsc>TRUE</ntsc>
						</rate>
						<rate>
							<timebase>60</timebase>
							<ntsc>TRUE</ntsc>
						</rate>
						<duration>48</duration>
						<start>6132</start>
						<end>6180</end>
						<in>6156</in>
						<out>6204</out>
					</clipitem>
					<clipitem frameBlend="FALSE" id="clipitem-1198">
						<file id="file-1"/>
						<name>bandicam 2025-06-02 00-01-10-144</name>
						<rate>
							<timebase>60</timebase>
							<ntsc>TRUE</ntsc>
						</rate>
						<rate>
							<timebase>60</timebase>
							<ntsc>TRUE</ntsc>
						</rate>
						<duration>36</duration>
						<start>6204</start>
						<end>6240</end>
						<in>6222</in>
						<out>6258</out>
					</clipitem>
					<clipitem frameBlend="FALSE" id="clipitem-1199">
						<file id="file-1"/>
						<name>bandicam 2025-06-02 00-01-10-144</name>
						<rate>
							<timebase>60</timebase>
							<ntsc>TRUE</ntsc>
						</rate>
						<rate>
							<timebase>60</timebase>
							<ntsc>TRUE</ntsc>
						</rate>
						<duration>0</duration>
						<start>6258</start>
						<end>6258</end>
						<in>6282</in>
						<out>6282</out>
					</clipitem>
					<clipitem frameBlend="FALSE" id="clipitem-1200">
						<file id="file-1"/>
						<name>bandicam 2025-06-02 00-01-10-144</name>
						<rate>
							<timebase>60</timebase>
							<ntsc>TRUE</ntsc>
						</rate>
						<rate>
							<timebase>60</timebase>
							<ntsc>TRUE</ntsc>
						</rate>
						<duration>18</duration>
						<start>6282</start>
						<end>6300</end>
						<in>6312</in>
						<out>6330</out>
					</clipitem>
					<clipitem frameBlend="FALSE" id="clipitem-1201">
						<file id="file-1"/>
						<name>bandicam 2025-06-02 00-01-10-144</name>
						<rate>
							<timebase>60</timebase>
							<ntsc>TRUE</ntsc>
						</rate>
						<rate>
							<timebase>60</timebase>
							<ntsc>TRUE</ntsc>
						</rate>
						<duration>18</duration>
						<start>6330</start>
						<end>6348</end>
						<in>6384</in>
						<out>6402</out>
					</clipitem>
					<clipitem frameBlend="FALSE" id="clipitem-1202">
						<file id="file-1"/>
						<name>bandicam 2025-06-02 00-01-10-144</name>
						<rate>
							<timebase>60</timebase>
							<ntsc>TRUE</ntsc>
						</rate>
						<rate>
							<timebase>60</timebase>
							<ntsc>TRUE</ntsc>
						</rate>
						<duration>18</duration>
						<start>6402</start>
						<end>6420</end>
						<in>6432</in>
						<out>6450</out>
					</clipitem>
					<clipitem frameBlend="FALSE" id="clipitem-1203">
						<file id="file-1"/>
						<name>bandicam 2025-06-02 00-01-10-144</name>
						<rate>
							<timebase>60</timebase>
							<ntsc>TRUE</ntsc>
						</rate>
						<rate>
							<timebase>60</timebase>
							<ntsc>TRUE</ntsc>
						</rate>
						<duration>0</duration>
						<start>6450</start>
						<end>6450</end>
						<in>6486</in>
						<out>6486</out>
					</clipitem>
					<clipitem frameBlend="FALSE" id="clipitem-1204">
						<file id="file-1"/>
						<name>bandicam 2025-06-02 00-01-10-144</name>
						<rate>
							<timebase>60</timebase>
							<ntsc>TRUE</ntsc>
						</rate>
						<rate>
							<timebase>60</timebase>
							<ntsc>TRUE</ntsc>
						</rate>
						<duration>36</duration>
						<start>6486</start>
						<end>6522</end>
						<in>6498</in>
						<out>6534</out>
					</clipitem>
					<clipitem frameBlend="FALSE" id="clipitem-1205">
						<file id="file-1"/>
						<name>bandicam 2025-06-02 00-01-10-144</name>
						<rate>
							<timebase>60</timebase>
							<ntsc>TRUE</ntsc>
						</rate>
						<rate>
							<timebase>60</timebase>
							<ntsc>TRUE</ntsc>
						</rate>
						<duration>6</duration>
						<start>6534</start>
						<end>6540</end>
						<in>6576</in>
						<out>6582</out>
					</clipitem>
					<clipitem frameBlend="FALSE" id="clipitem-1206">
						<file id="file-1"/>
						<name>bandicam 2025-06-02 00-01-10-144</name>
						<rate>
							<timebase>60</timebase>
							<ntsc>TRUE</ntsc>
						</rate>
						<rate>
							<timebase>60</timebase>
							<ntsc>TRUE</ntsc>
						</rate>
						<duration>18</duration>
						<start>6582</start>
						<end>6600</end>
						<in>6612</in>
						<out>6630</out>
					</clipitem>
					<clipitem frameBlend="FALSE" id="clipitem-1207">
						<file id="file-1"/>
						<name>bandicam 2025-06-02 00-01-10-144</name>
						<rate>
							<timebase>60</timebase>
							<ntsc>TRUE</ntsc>
						</rate>
						<rate>
							<timebase>60</timebase>
							<ntsc>TRUE</ntsc>
						</rate>
						<duration>12</duration>
						<start>6630</start>
						<end>6642</end>
						<in>6750</in>
						<out>6762</out>
					</clipitem>
					<clipitem frameBlend="FALSE" id="clipitem-1208">
						<file id="file-1"/>
						<name>bandicam 2025-06-02 00-01-10-144</name>
						<rate>
							<timebase>60</timebase>
							<ntsc>TRUE</ntsc>
						</rate>
						<rate>
							<timebase>60</timebase>
							<ntsc>TRUE</ntsc>
						</rate>
						<duration>6</duration>
						<start>6762</start>
						<end>6768</end>
						<in>6810</in>
						<out>6816</out>
					</clipitem>
					<clipitem frameBlend="FALSE" id="clipitem-1209">
						<file id="file-1"/>
						<name>bandicam 2025-06-02 00-01-10-144</name>
						<rate>
							<timebase>60</timebase>
							<ntsc>TRUE</ntsc>
						</rate>
						<rate>
							<timebase>60</timebase>
							<ntsc>TRUE</ntsc>
						</rate>
						<duration>18</duration>
						<start>6816</start>
						<end>6834</end>
						<in>6828</in>
						<out>6846</out>
					</clipitem>
					<clipitem frameBlend="FALSE" id="clipitem-1210">
						<file id="file-1"/>
						<name>bandicam 2025-06-02 00-01-10-144</name>
						<rate>
							<timebase>60</timebase>
							<ntsc>TRUE</ntsc>
						</rate>
						<rate>
							<timebase>60</timebase>
							<ntsc>TRUE</ntsc>
						</rate>
						<duration>6</duration>
						<start>6846</start>
						<end>6852</end>
						<in>6894</in>
						<out>6900</out>
					</clipitem>
					<clipitem frameBlend="FALSE" id="clipitem-1211">
						<file id="file-1"/>
						<name>bandicam 2025-06-02 00-01-10-144</name>
						<rate>
							<timebase>60</timebase>
							<ntsc>TRUE</ntsc>
						</rate>
						<rate>
							<timebase>60</timebase>
							<ntsc>TRUE</ntsc>
						</rate>
						<duration>18</duration>
						<start>6900</start>
						<end>6918</end>
						<in>6912</in>
						<out>6930</out>
					</clipitem>
					<clipitem frameBlend="FALSE" id="clipitem-1212">
						<file id="file-1"/>
						<name>bandicam 2025-06-02 00-01-10-144</name>
						<rate>
							<timebase>60</timebase>
							<ntsc>TRUE</ntsc>
						</rate>
						<rate>
							<timebase>60</timebase>
							<ntsc>TRUE</ntsc>
						</rate>
						<duration>0</duration>
						<start>6930</start>
						<end>6930</end>
						<in>6954</in>
						<out>6954</out>
					</clipitem>
					<clipitem frameBlend="FALSE" id="clipitem-1213">
						<file id="file-1"/>
						<name>bandicam 2025-06-02 00-01-10-144</name>
						<rate>
							<timebase>60</timebase>
							<ntsc>TRUE</ntsc>
						</rate>
						<rate>
							<timebase>60</timebase>
							<ntsc>TRUE</ntsc>
						</rate>
						<duration>0</duration>
						<start>6954</start>
						<end>6954</end>
						<in>7002</in>
						<out>7002</out>
					</clipitem>
					<clipitem frameBlend="FALSE" id="clipitem-1214">
						<file id="file-1"/>
						<name>bandicam 2025-06-02 00-01-10-144</name>
						<rate>
							<timebase>60</timebase>
							<ntsc>TRUE</ntsc>
						</rate>
						<rate>
							<timebase>60</timebase>
							<ntsc>TRUE</ntsc>
						</rate>
						<duration>18</duration>
						<start>7002</start>
						<end>7020</end>
						<in>7026</in>
						<out>7044</out>
					</clipitem>
					<clipitem frameBlend="FALSE" id="clipitem-1215">
						<file id="file-1"/>
						<name>bandicam 2025-06-02 00-01-10-144</name>
						<rate>
							<timebase>60</timebase>
							<ntsc>TRUE</ntsc>
						</rate>
						<rate>
							<timebase>60</timebase>
							<ntsc>TRUE</ntsc>
						</rate>
						<duration>30</duration>
						<start>7044</start>
						<end>7074</end>
						<in>12</in>
						<out>42</out>
					</clipitem>
					<clipitem frameBlend="FALSE" id="clipitem-1216">
						<file id="file-1"/>
						<name>bandicam 2025-06-02 00-01-10-144</name>
						<rate>
							<timebase>60</timebase>
							<ntsc>TRUE</ntsc>
						</rate>
						<rate>
							<timebase>60</timebase>
							<ntsc>TRUE</ntsc>
						</rate>
						<duration>36</duration>
						<start>42</start>
						<end>78</end>
						<in>54</in>
						<out>90</out>
					</clipitem>
					<clipitem frameBlend="FALSE" id="clipitem-1217">
						<file id="file-1"/>
						<name>bandicam 2025-06-02 00-01-10-144</name>
						<rate>
							<timebase>60</timebase>
							<ntsc>TRUE</ntsc>
						</rate>
						<rate>
							<timebase>60</timebase>
							<ntsc>TRUE</ntsc>
						</rate>
						<duration>18</duration>
						<start>90</start>
						<end>108</end>
						<in>108</in>
						<out>126</out>
					</clipitem>
					<clipitem frameBlend="FALSE" id="clipitem-1218">
						<file id="file-1"/>
						<name>bandicam 2025-06-02 00-01-10-144</name>
						<rate>
							<timebase>60</timebase>
							<ntsc>TRUE</ntsc>
						</rate>
						<rate>
							<timebase>60</timebase>
							<ntsc>TRUE</ntsc>
						</rate>
						<duration>24</duration>
						<start>126</start>
						<end>150</end>
						<in>174</in>
						<out>198</out>
					</clipitem>
					<clipitem frameBlend="FALSE" id="clipitem-1219">
						<file id="file-1"/>
						<name>bandicam 2025-06-02 00-01-10-144</name>
						<rate>
							<timebase>60</timebase>
							<ntsc>TRUE</ntsc>
						</rate>
						<rate>
							<timebase>60</timebase>
							<ntsc>TRUE</ntsc>
						</rate>
						<duration>0</duration>
						<start>198</start>
						<end>198</end>
						<in>300</in>
						<out>300</out>
					</clipitem>
					<clipitem frameBlend="FALSE" id="clipitem-1220">
						<file id="file-1"/>
						<name>bandicam 2025-06-02 00-01-10-144</name>
						<rate>
							<timebase>60</timebase>
							<ntsc>TRUE</ntsc>
						</rate>
						<rate>
							<timebase>60</timebase>
							<ntsc>TRUE</ntsc>
						</rate>
						<duration>30</duration>
						<start>300</start>
						<end>330</end>
						<in>360</in>
						<out>390</out>
					</clipitem>
					<clipitem frameBlend="FALSE" id="clipitem-1221">
						<file id="file-1"/>
						<name>bandicam 2025-06-02 00-01-10-144</name>
						<rate>
							<timebase>60</timebase>
							<ntsc>TRUE</ntsc>
						</rate>
						<rate>
							<timebase>60</timebase>
							<ntsc>TRUE</ntsc>
						</rate>
						<duration>0</duration>
						<start>390</start>
						<end>390</end>
						<in>438</in>
						<out>438</out>
					</clipitem>
					<clipitem frameBlend="FALSE" id="clipitem-1222">
						<file id="file-1"/>
						<name>bandicam 2025-06-02 00-01-10-144</name>
						<rate>
							<timebase>60</timebase>
							<ntsc>TRUE</ntsc>
						</rate>
						<rate>
							<timebase>60</timebase>
							<ntsc>TRUE</ntsc>
						</rate>
						<duration>42</duration>
						<start>438</start>
						<end>480</end>
						<in>450</in>
						<out>492</out>
					</clipitem>
					<clipitem frameBlend="FALSE" id="clipitem-1223">
						<file id="file-1"/>
						<name>bandicam 2025-06-02 00-01-10-144</name>
						<rate>
							<timebase>60</timebase>
							<ntsc>TRUE</ntsc>
						</rate>
						<rate>
							<timebase>60</timebase>
							<ntsc>TRUE</ntsc>
						</rate>
						<duration>0</duration>
						<start>492</start>
						<end>492</end>
						<in>504</in>
						<out>504</out>
					</clipitem>
					<clipitem frameBlend="FALSE" id="clipitem-1224">
						<file id="file-1"/>
						<name>bandicam 2025-06-02 00-01-10-144</name>
						<rate>
							<timebase>60</timebase>
							<ntsc>TRUE</ntsc>
						</rate>
						<rate>
							<timebase>60</timebase>
							<ntsc>TRUE</ntsc>
						</rate>
						<duration>30</duration>
						<start>504</start>
						<end>534</end>
						<in>528</in>
						<out>558</out>
					</clipitem>
					<clipitem frameBlend="FALSE" id="clipitem-1225">
						<file id="file-1"/>
						<name>bandicam 2025-06-02 00-01-10-144</name>
						<rate>
							<timebase>60</timebase>
							<ntsc>TRUE</ntsc>
						</rate>
						<rate>
							<timebase>60</timebase>
							<ntsc>TRUE</ntsc>
						</rate>
						<duration>24</duration>
						<start>558</start>
						<end>582</end>
						<in>582</in>
						<out>606</out>
					</clipitem>
					<clipitem frameBlend="FALSE" id="clipitem-1226">
						<file id="file-1"/>
						<name>bandicam 2025-06-02 00-01-10-144</name>
						<rate>
							<timebase>60</timebase>
							<ntsc>TRUE</ntsc>
						</rate>
						<rate>
							<timebase>60</timebase>
							<ntsc>TRUE</ntsc>
						</rate>
						<duration>18</duration>
						<start>606</start>
						<end>624</end>
						<in>624</in>
						<out>642</out>
					</clipitem>
					<clipitem frameBlend="FALSE" id="clipitem-1227">
						<file id="file-1"/>
						<name>bandicam 2025-06-02 00-01-10-144</name>
						<rate>
							<timebase>60</timebase>
							<ntsc>TRUE</ntsc>
						</rate>
						<rate>
							<timebase>60</timebase>
							<ntsc>TRUE</ntsc>
						</rate>
						<duration>0</duration>
						<start>642</start>
						<end>642</end>
						<in>816</in>
						<out>816</out>
					</clipitem>
					<clipitem frameBlend="FALSE" id="clipitem-1228">
						<file id="file-1"/>
						<name>bandicam 2025-06-02 00-01-10-144</name>
						<rate>
							<timebase>60</timebase>
							<ntsc>TRUE</ntsc>
						</rate>
						<rate>
							<timebase>60</timebase>
							<ntsc>TRUE</ntsc>
						</rate>
						<duration>0</duration>
						<start>816</start>
						<end>816</end>
						<in>852</in>
						<out>852</out>
					</clipitem>
					<clipitem frameBlend="FALSE" id="clipitem-1229">
						<file id="file-1"/>
						<name>bandicam 2025-06-02 00-01-10-144</name>
						<rate>
							<timebase>60</timebase>
							<ntsc>TRUE</ntsc>
						</rate>
						<rate>
							<timebase>60</timebase>
							<ntsc>TRUE</ntsc>
						</rate>
						<duration>0</duration>
						<start>852</start>
						<end>852</end>
						<in>912</in>
						<out>912</out>
					</clipitem>
					<clipitem frameBlend="FALSE" id="clipitem-1230">
						<file id="file-1"/>
						<name>bandicam 2025-06-02 00-01-10-144</name>
						<rate>
							<timebase>60</timebase>
							<ntsc>TRUE</ntsc>
						</rate>
						<rate>
							<timebase>60</timebase>
							<ntsc>TRUE</ntsc>
						</rate>
						<duration>0</duration>
						<start>912</start>
						<end>912</end>
						<in>936</in>
						<out>936</out>
					</clipitem>
					<clipitem frameBlend="FALSE" id="clipitem-1231">
						<file id="file-1"/>
						<name>bandicam 2025-06-02 00-01-10-144</name>
						<rate>
							<timebase>60</timebase>
							<ntsc>TRUE</ntsc>
						</rate>
						<rate>
							<timebase>60</timebase>
							<ntsc>TRUE</ntsc>
						</rate>
						<duration>0</duration>
						<start>936</start>
						<end>936</end>
						<in>954</in>
						<out>954</out>
					</clipitem>
					<clipitem frameBlend="FALSE" id="clipitem-1232">
						<file id="file-1"/>
						<name>bandicam 2025-06-02 00-01-10-144</name>
						<rate>
							<timebase>60</timebase>
							<ntsc>TRUE</ntsc>
						</rate>
						<rate>
							<timebase>60</timebase>
							<ntsc>TRUE</ntsc>
						</rate>
						<duration>12</duration>
						<start>954</start>
						<end>966</end>
						<in>984</in>
						<out>996</out>
					</clipitem>
					<clipitem frameBlend="FALSE" id="clipitem-1233">
						<file id="file-1"/>
						<name>bandicam 2025-06-02 00-01-10-144</name>
						<rate>
							<timebase>60</timebase>
							<ntsc>TRUE</ntsc>
						</rate>
						<rate>
							<timebase>60</timebase>
							<ntsc>TRUE</ntsc>
						</rate>
						<duration>12</duration>
						<start>996</start>
						<end>1008</end>
						<in>1086</in>
						<out>1098</out>
					</clipitem>
					<clipitem frameBlend="FALSE" id="clipitem-1234">
						<file id="file-1"/>
						<name>bandicam 2025-06-02 00-01-10-144</name>
						<rate>
							<timebase>60</timebase>
							<ntsc>TRUE</ntsc>
						</rate>
						<rate>
							<timebase>60</timebase>
							<ntsc>TRUE</ntsc>
						</rate>
						<duration>48</duration>
						<start>1098</start>
						<end>1146</end>
						<in>1188</in>
						<out>1236</out>
					</clipitem>
					<clipitem frameBlend="FALSE" id="clipitem-1235">
						<file id="file-1"/>
						<name>bandicam 2025-06-02 00-01-10-144</name>
						<rate>
							<timebase>60</timebase>
							<ntsc>TRUE</ntsc>
						</rate>
						<rate>
							<timebase>60</timebase>
							<ntsc>TRUE</ntsc>
						</rate>
						<duration>0</duration>
						<start>1236</start>
						<end>1236</end>
						<in>1320</in>
						<out>1320</out>
					</clipitem>
					<clipitem frameBlend="FALSE" id="clipitem-1236">
						<file id="file-1"/>
						<name>bandicam 2025-06-02 00-01-10-144</name>
						<rate>
							<timebase>60</timebase>
							<ntsc>TRUE</ntsc>
						</rate>
						<rate>
							<timebase>60</timebase>
							<ntsc>TRUE</ntsc>
						</rate>
						<duration>54</duration>
						<start>1320</start>
						<end>1374</end>
						<in>1374</in>
						<out>1428</out>
					</clipitem>
					<clipitem frameBlend="FALSE" id="clipitem-1237">
						<file id="file-1"/>
						<name>bandicam 2025-06-02 00-01-10-144</name>
						<rate>
							<timebase>60</timebase>
							<ntsc>TRUE</ntsc>
						</rate>
						<rate>
							<timebase>60</timebase>
							<ntsc>TRUE</ntsc>
						</rate>
						<duration>36</duration>
						<start>1428</start>
						<end>1464</end>
						<in>1446</in>
						<out>1482</out>
					</clipitem>
					<clipitem frameBlend="FALSE" id="clipitem-1238">
						<file id="file-1"/>
						<name>bandicam 2025-06-02 00-01-10-144</name>
						<rate>
							<timebase>60</timebase>
							<ntsc>TRUE</ntsc>
						</rate>
						<rate>
							<timebase>60</timebase>
							<ntsc>TRUE</ntsc>
						</rate>
						<duration>0</duration>
						<start>1482</start>
						<end>1482</end>
						<in>1536</in>
						<out>1536</out>
					</clipitem>
					<clipitem frameBlend="FALSE" id="clipitem-1239">
						<file id="file-1"/>
						<name>bandicam 2025-06-02 00-01-10-144</name>
						<rate>
							<timebase>60</timebase>
							<ntsc>TRUE</ntsc>
						</rate>
						<rate>
							<timebase>60</timebase>
							<ntsc>TRUE</ntsc>
						</rate>
						<duration>30</duration>
						<start>1536</start>
						<end>1566</end>
						<in>1566</in>
						<out>1596</out>
					</clipitem>
					<clipitem frameBlend="FALSE" id="clipitem-1240">
						<file id="file-1"/>
						<name>bandicam 2025-06-02 00-01-10-144</name>
						<rate>
							<timebase>60</timebase>
							<ntsc>TRUE</ntsc>
						</rate>
						<rate>
							<timebase>60</timebase>
							<ntsc>TRUE</ntsc>
						</rate>
						<duration>90</duration>
						<start>1596</start>
						<end>1686</end>
						<in>1692</in>
						<out>1782</out>
					</clipitem>
					<clipitem frameBlend="FALSE" id="clipitem-1241">
						<file id="file-1"/>
						<name>bandicam 2025-06-02 00-01-10-144</name>
						<rate>
							<timebase>60</timebase>
							<ntsc>TRUE</ntsc>
						</rate>
						<rate>
							<timebase>60</timebase>
							<ntsc>TRUE</ntsc>
						</rate>
						<duration>72</duration>
						<start>1782</start>
						<end>1854</end>
						<in>1800</in>
						<out>1872</out>
					</clipitem>
					<clipitem frameBlend="FALSE" id="clipitem-1242">
						<file id="file-1"/>
						<name>bandicam 2025-06-02 00-01-10-144</name>
						<rate>
							<timebase>60</timebase>
							<ntsc>TRUE</ntsc>
						</rate>
						<rate>
							<timebase>60</timebase>
							<ntsc>TRUE</ntsc>
						</rate>
						<duration>24</duration>
						<start>1872</start>
						<end>1896</end>
						<in>1884</in>
						<out>1908</out>
					</clipitem>
					<clipitem frameBlend="FALSE" id="clipitem-1243">
						<file id="file-1"/>
						<name>bandicam 2025-06-02 00-01-10-144</name>
						<rate>
							<timebase>60</timebase>
							<ntsc>TRUE</ntsc>
						</rate>
						<rate>
							<timebase>60</timebase>
							<ntsc>TRUE</ntsc>
						</rate>
						<duration>30</duration>
						<start>1908</start>
						<end>1938</end>
						<in>1926</in>
						<out>1956</out>
					</clipitem>
					<clipitem frameBlend="FALSE" id="clipitem-1244">
						<file id="file-1"/>
						<name>bandicam 2025-06-02 00-01-10-144</name>
						<rate>
							<timebase>60</timebase>
							<ntsc>TRUE</ntsc>
						</rate>
						<rate>
							<timebase>60</timebase>
							<ntsc>TRUE</ntsc>
						</rate>
						<duration>36</duration>
						<start>1956</start>
						<end>1992</end>
						<in>2172</in>
						<out>2208</out>
					</clipitem>
					<clipitem frameBlend="FALSE" id="clipitem-1245">
						<file id="file-1"/>
						<name>bandicam 2025-06-02 00-01-10-144</name>
						<rate>
							<timebase>60</timebase>
							<ntsc>TRUE</ntsc>
						</rate>
						<rate>
							<timebase>60</timebase>
							<ntsc>TRUE</ntsc>
						</rate>
						<duration>90</duration>
						<start>2208</start>
						<end>2298</end>
						<in>2274</in>
						<out>2364</out>
					</clipitem>
					<clipitem frameBlend="FALSE" id="clipitem-1246">
						<file id="file-1"/>
						<name>bandicam 2025-06-02 00-01-10-144</name>
						<rate>
							<timebase>60</timebase>
							<ntsc>TRUE</ntsc>
						</rate>
						<rate>
							<timebase>60</timebase>
							<ntsc>TRUE</ntsc>
						</rate>
						<duration>18</duration>
						<start>2364</start>
						<end>2382</end>
						<in>2448</in>
						<out>2466</out>
					</clipitem>
					<clipitem frameBlend="FALSE" id="clipitem-1247">
						<file id="file-1"/>
						<name>bandicam 2025-06-02 00-01-10-144</name>
						<rate>
							<timebase>60</timebase>
							<ntsc>TRUE</ntsc>
						</rate>
						<rate>
							<timebase>60</timebase>
							<ntsc>TRUE</ntsc>
						</rate>
						<duration>6</duration>
						<start>2466</start>
						<end>2472</end>
						<in>2478</in>
						<out>2484</out>
					</clipitem>
					<clipitem frameBlend="FALSE" id="clipitem-1248">
						<file id="file-1"/>
						<name>bandicam 2025-06-02 00-01-10-144</name>
						<rate>
							<timebase>60</timebase>
							<ntsc>TRUE</ntsc>
						</rate>
						<rate>
							<timebase>60</timebase>
							<ntsc>TRUE</ntsc>
						</rate>
						<duration>6</duration>
						<start>2484</start>
						<end>2490</end>
						<in>2496</in>
						<out>2502</out>
					</clipitem>
					<clipitem frameBlend="FALSE" id="clipitem-1249">
						<file id="file-1"/>
						<name>bandicam 2025-06-02 00-01-10-144</name>
						<rate>
							<timebase>60</timebase>
							<ntsc>TRUE</ntsc>
						</rate>
						<rate>
							<timebase>60</timebase>
							<ntsc>TRUE</ntsc>
						</rate>
						<duration>36</duration>
						<start>2502</start>
						<end>2538</end>
						<in>2532</in>
						<out>2568</out>
					</clipitem>
					<clipitem frameBlend="FALSE" id="clipitem-1250">
						<file id="file-1"/>
						<name>bandicam 2025-06-02 00-01-10-144</name>
						<rate>
							<timebase>60</timebase>
							<ntsc>TRUE</ntsc>
						</rate>
						<rate>
							<timebase>60</timebase>
							<ntsc>TRUE</ntsc>
						</rate>
						<duration>90</duration>
						<start>2568</start>
						<end>2658</end>
						<in>2592</in>
						<out>2682</out>
					</clipitem>
					<clipitem frameBlend="FALSE" id="clipitem-1251">
						<file id="file-1"/>
						<name>bandicam 2025-06-02 00-01-10-144</name>
						<rate>
							<timebase>60</timebase>
							<ntsc>TRUE</ntsc>
						</rate>
						<rate>
							<timebase>60</timebase>
							<ntsc>TRUE</ntsc>
						</rate>
						<duration>0</duration>
						<start>2682</start>
						<end>2682</end>
						<in>2694</in>
						<out>2694</out>
					</clipitem>
					<clipitem frameBlend="FALSE" id="clipitem-1252">
						<file id="file-1"/>
						<name>bandicam 2025-06-02 00-01-10-144</name>
						<rate>
							<timebase>60</timebase>
							<ntsc>TRUE</ntsc>
						</rate>
						<rate>
							<timebase>60</timebase>
							<ntsc>TRUE</ntsc>
						</rate>
						<duration>132</duration>
						<start>2694</start>
						<end>2826</end>
						<in>2724</in>
						<out>2856</out>
					</clipitem>
					<clipitem frameBlend="FALSE" id="clipitem-1253">
						<file id="file-1"/>
						<name>bandicam 2025-06-02 00-01-10-144</name>
						<rate>
							<timebase>60</timebase>
							<ntsc>TRUE</ntsc>
						</rate>
						<rate>
							<timebase>60</timebase>
							<ntsc>TRUE</ntsc>
						</rate>
						<duration>42</duration>
						<start>2856</start>
						<end>2898</end>
						<in>2868</in>
						<out>2910</out>
					</clipitem>
					<clipitem frameBlend="FALSE" id="clipitem-1254">
						<file id="file-1"/>
						<name>bandicam 2025-06-02 00-01-10-144</name>
						<rate>
							<timebase>60</timebase>
							<ntsc>TRUE</ntsc>
						</rate>
						<rate>
							<timebase>60</timebase>
							<ntsc>TRUE</ntsc>
						</rate>
						<duration>12</duration>
						<start>2910</start>
						<end>2922</end>
						<in>2940</in>
						<out>2952</out>
					</clipitem>
					<clipitem frameBlend="FALSE" id="clipitem-1255">
						<file id="file-1"/>
						<name>bandicam 2025-06-02 00-01-10-144</name>
						<rate>
							<timebase>60</timebase>
							<ntsc>TRUE</ntsc>
						</rate>
						<rate>
							<timebase>60</timebase>
							<ntsc>TRUE</ntsc>
						</rate>
						<duration>30</duration>
						<start>2952</start>
						<end>2982</end>
						<in>2964</in>
						<out>2994</out>
					</clipitem>
					<clipitem frameBlend="FALSE" id="clipitem-1256">
						<file id="file-1"/>
						<name>bandicam 2025-06-02 00-01-10-144</name>
						<rate>
							<timebase>60</timebase>
							<ntsc>TRUE</ntsc>
						</rate>
						<rate>
							<timebase>60</timebase>
							<ntsc>TRUE</ntsc>
						</rate>
						<duration>0</duration>
						<start>2994</start>
						<end>2994</end>
						<in>3024</in>
						<out>3024</out>
					</clipitem>
					<clipitem frameBlend="FALSE" id="clipitem-1257">
						<file id="file-1"/>
						<name>bandicam 2025-06-02 00-01-10-144</name>
						<rate>
							<timebase>60</timebase>
							<ntsc>TRUE</ntsc>
						</rate>
						<rate>
							<timebase>60</timebase>
							<ntsc>TRUE</ntsc>
						</rate>
						<duration>48</duration>
						<start>3024</start>
						<end>3072</end>
						<in>3054</in>
						<out>3102</out>
					</clipitem>
					<clipitem frameBlend="FALSE" id="clipitem-1258">
						<file id="file-1"/>
						<name>bandicam 2025-06-02 00-01-10-144</name>
						<rate>
							<timebase>60</timebase>
							<ntsc>TRUE</ntsc>
						</rate>
						<rate>
							<timebase>60</timebase>
							<ntsc>TRUE</ntsc>
						</rate>
						<duration>30</duration>
						<start>3102</start>
						<end>3132</end>
						<in>3120</in>
						<out>3150</out>
					</clipitem>
					<clipitem frameBlend="FALSE" id="clipitem-1259">
						<file id="file-1"/>
						<name>bandicam 2025-06-02 00-01-10-144</name>
						<rate>
							<timebase>60</timebase>
							<ntsc>TRUE</ntsc>
						</rate>
						<rate>
							<timebase>60</timebase>
							<ntsc>TRUE</ntsc>
						</rate>
						<duration>36</duration>
						<start>3150</start>
						<end>3186</end>
						<in>3222</in>
						<out>3258</out>
					</clipitem>
					<clipitem frameBlend="FALSE" id="clipitem-1260">
						<file id="file-1"/>
						<name>bandicam 2025-06-02 00-01-10-144</name>
						<rate>
							<timebase>60</timebase>
							<ntsc>TRUE</ntsc>
						</rate>
						<rate>
							<timebase>60</timebase>
							<ntsc>TRUE</ntsc>
						</rate>
						<duration>36</duration>
						<start>3258</start>
						<end>3294</end>
						<in>3270</in>
						<out>3306</out>
					</clipitem>
					<clipitem frameBlend="FALSE" id="clipitem-1261">
						<file id="file-1"/>
						<name>bandicam 2025-06-02 00-01-10-144</name>
						<rate>
							<timebase>60</timebase>
							<ntsc>TRUE</ntsc>
						</rate>
						<rate>
							<timebase>60</timebase>
							<ntsc>TRUE</ntsc>
						</rate>
						<duration>30</duration>
						<start>3306</start>
						<end>3336</end>
						<in>3372</in>
						<out>3402</out>
					</clipitem>
					<clipitem frameBlend="FALSE" id="clipitem-1262">
						<file id="file-1"/>
						<name>bandicam 2025-06-02 00-01-10-144</name>
						<rate>
							<timebase>60</timebase>
							<ntsc>TRUE</ntsc>
						</rate>
						<rate>
							<timebase>60</timebase>
							<ntsc>TRUE</ntsc>
						</rate>
						<duration>24</duration>
						<start>3402</start>
						<end>3426</end>
						<in>3450</in>
						<out>3474</out>
					</clipitem>
					<clipitem frameBlend="FALSE" id="clipitem-1263">
						<file id="file-1"/>
						<name>bandicam 2025-06-02 00-01-10-144</name>
						<rate>
							<timebase>60</timebase>
							<ntsc>TRUE</ntsc>
						</rate>
						<rate>
							<timebase>60</timebase>
							<ntsc>TRUE</ntsc>
						</rate>
						<duration>30</duration>
						<start>3474</start>
						<end>3504</end>
						<in>3498</in>
						<out>3528</out>
					</clipitem>
					<clipitem frameBlend="FALSE" id="clipitem-1264">
						<file id="file-1"/>
						<name>bandicam 2025-06-02 00-01-10-144</name>
						<rate>
							<timebase>60</timebase>
							<ntsc>TRUE</ntsc>
						</rate>
						<rate>
							<timebase>60</timebase>
							<ntsc>TRUE</ntsc>
						</rate>
						<duration>0</duration>
						<start>3528</start>
						<end>3528</end>
						<in>3582</in>
						<out>3582</out>
					</clipitem>
					<clipitem frameBlend="FALSE" id="clipitem-1265">
						<file id="file-1"/>
						<name>bandicam 2025-06-02 00-01-10-144</name>
						<rate>
							<timebase>60</timebase>
							<ntsc>TRUE</ntsc>
						</rate>
						<rate>
							<timebase>60</timebase>
							<ntsc>TRUE</ntsc>
						</rate>
						<duration>18</duration>
						<start>3582</start>
						<end>3600</end>
						<in>3624</in>
						<out>3642</out>
					</clipitem>
					<clipitem frameBlend="FALSE" id="clipitem-1266">
						<file id="file-1"/>
						<name>bandicam 2025-06-02 00-01-10-144</name>
						<rate>
							<timebase>60</timebase>
							<ntsc>TRUE</ntsc>
						</rate>
						<rate>
							<timebase>60</timebase>
							<ntsc>TRUE</ntsc>
						</rate>
						<duration>0</duration>
						<start>3642</start>
						<end>3642</end>
						<in>3672</in>
						<out>3672</out>
					</clipitem>
					<clipitem frameBlend="FALSE" id="clipitem-1267">
						<file id="file-1"/>
						<name>bandicam 2025-06-02 00-01-10-144</name>
						<rate>
							<timebase>60</timebase>
							<ntsc>TRUE</ntsc>
						</rate>
						<rate>
							<timebase>60</timebase>
							<ntsc>TRUE</ntsc>
						</rate>
						<duration>0</duration>
						<start>3672</start>
						<end>3672</end>
						<in>3696</in>
						<out>3696</out>
					</clipitem>
					<clipitem frameBlend="FALSE" id="clipitem-1268">
						<file id="file-1"/>
						<name>bandicam 2025-06-02 00-01-10-144</name>
						<rate>
							<timebase>60</timebase>
							<ntsc>TRUE</ntsc>
						</rate>
						<rate>
							<timebase>60</timebase>
							<ntsc>TRUE</ntsc>
						</rate>
						<duration>12</duration>
						<start>3696</start>
						<end>3708</end>
						<in>3768</in>
						<out>3780</out>
					</clipitem>
					<clipitem frameBlend="FALSE" id="clipitem-1269">
						<file id="file-1"/>
						<name>bandicam 2025-06-02 00-01-10-144</name>
						<rate>
							<timebase>60</timebase>
							<ntsc>TRUE</ntsc>
						</rate>
						<rate>
							<timebase>60</timebase>
							<ntsc>TRUE</ntsc>
						</rate>
						<duration>30</duration>
						<start>3780</start>
						<end>3810</end>
						<in>3852</in>
						<out>3882</out>
					</clipitem>
					<clipitem frameBlend="FALSE" id="clipitem-1270">
						<file id="file-1"/>
						<name>bandicam 2025-06-02 00-01-10-144</name>
						<rate>
							<timebase>60</timebase>
							<ntsc>TRUE</ntsc>
						</rate>
						<rate>
							<timebase>60</timebase>
							<ntsc>TRUE</ntsc>
						</rate>
						<duration>30</duration>
						<start>3882</start>
						<end>3912</end>
						<in>3906</in>
						<out>3936</out>
					</clipitem>
					<clipitem frameBlend="FALSE" id="clipitem-1271">
						<file id="file-1"/>
						<name>bandicam 2025-06-02 00-01-10-144</name>
						<rate>
							<timebase>60</timebase>
							<ntsc>TRUE</ntsc>
						</rate>
						<rate>
							<timebase>60</timebase>
							<ntsc>TRUE</ntsc>
						</rate>
						<duration>6</duration>
						<start>3936</start>
						<end>3942</end>
						<in>4026</in>
						<out>4032</out>
					</clipitem>
					<clipitem frameBlend="FALSE" id="clipitem-1272">
						<file id="file-1"/>
						<name>bandicam 2025-06-02 00-01-10-144</name>
						<rate>
							<timebase>60</timebase>
							<ntsc>TRUE</ntsc>
						</rate>
						<rate>
							<timebase>60</timebase>
							<ntsc>TRUE</ntsc>
						</rate>
						<duration>0</duration>
						<start>4032</start>
						<end>4032</end>
						<in>4044</in>
						<out>4044</out>
					</clipitem>
					<clipitem frameBlend="FALSE" id="clipitem-1273">
						<file id="file-1"/>
						<name>bandicam 2025-06-02 00-01-10-144</name>
						<rate>
							<timebase>60</timebase>
							<ntsc>TRUE</ntsc>
						</rate>
						<rate>
							<timebase>60</timebase>
							<ntsc>TRUE</ntsc>
						</rate>
						<duration>84</duration>
						<start>4044</start>
						<end>4128</end>
						<in>4086</in>
						<out>4170</out>
					</clipitem>
					<clipitem frameBlend="FALSE" id="clipitem-1274">
						<file id="file-1"/>
						<name>bandicam 2025-06-02 00-01-10-144</name>
						<rate>
							<timebase>60</timebase>
							<ntsc>TRUE</ntsc>
						</rate>
						<rate>
							<timebase>60</timebase>
							<ntsc>TRUE</ntsc>
						</rate>
						<duration>18</duration>
						<start>4170</start>
						<end>4188</end>
						<in>4188</in>
						<out>4206</out>
					</clipitem>
					<clipitem frameBlend="FALSE" id="clipitem-1275">
						<file id="file-1"/>
						<name>bandicam 2025-06-02 00-01-10-144</name>
						<rate>
							<timebase>60</timebase>
							<ntsc>TRUE</ntsc>
						</rate>
						<rate>
							<timebase>60</timebase>
							<ntsc>TRUE</ntsc>
						</rate>
						<duration>66</duration>
						<start>4206</start>
						<end>4272</end>
						<in>4218</in>
						<out>4284</out>
					</clipitem>
					<clipitem frameBlend="FALSE" id="clipitem-1276">
						<file id="file-1"/>
						<name>bandicam 2025-06-02 00-01-10-144</name>
						<rate>
							<timebase>60</timebase>
							<ntsc>TRUE</ntsc>
						</rate>
						<rate>
							<timebase>60</timebase>
							<ntsc>TRUE</ntsc>
						</rate>
						<duration>132</duration>
						<start>4284</start>
						<end>4416</end>
						<in>4302</in>
						<out>4434</out>
					</clipitem>
					<clipitem frameBlend="FALSE" id="clipitem-1277">
						<file id="file-1"/>
						<name>bandicam 2025-06-02 00-01-10-144</name>
						<rate>
							<timebase>60</timebase>
							<ntsc>TRUE</ntsc>
						</rate>
						<rate>
							<timebase>60</timebase>
							<ntsc>TRUE</ntsc>
						</rate>
						<duration>12</duration>
						<start>4434</start>
						<end>4446</end>
						<in>4470</in>
						<out>4482</out>
					</clipitem>
					<clipitem frameBlend="FALSE" id="clipitem-1278">
						<file id="file-1"/>
						<name>bandicam 2025-06-02 00-01-10-144</name>
						<rate>
							<timebase>60</timebase>
							<ntsc>TRUE</ntsc>
						</rate>
						<rate>
							<timebase>60</timebase>
							<ntsc>TRUE</ntsc>
						</rate>
						<duration>48</duration>
						<start>4482</start>
						<end>4530</end>
						<in>4506</in>
						<out>4554</out>
					</clipitem>
					<clipitem frameBlend="FALSE" id="clipitem-1279">
						<file id="file-1"/>
						<name>bandicam 2025-06-02 00-01-10-144</name>
						<rate>
							<timebase>60</timebase>
							<ntsc>TRUE</ntsc>
						</rate>
						<rate>
							<timebase>60</timebase>
							<ntsc>TRUE</ntsc>
						</rate>
						<duration>30</duration>
						<start>4554</start>
						<end>4584</end>
						<in>4602</in>
						<out>4632</out>
					</clipitem>
					<clipitem frameBlend="FALSE" id="clipitem-1280">
						<file id="file-1"/>
						<name>bandicam 2025-06-02 00-01-10-144</name>
						<rate>
							<timebase>60</timebase>
							<ntsc>TRUE</ntsc>
						</rate>
						<rate>
							<timebase>60</timebase>
							<ntsc>TRUE</ntsc>
						</rate>
						<duration>30</duration>
						<start>4632</start>
						<end>4662</end>
						<in>4650</in>
						<out>4680</out>
					</clipitem>
					<clipitem frameBlend="FALSE" id="clipitem-1281">
						<file id="file-1"/>
						<name>bandicam 2025-06-02 00-01-10-144</name>
						<rate>
							<timebase>60</timebase>
							<ntsc>TRUE</ntsc>
						</rate>
						<rate>
							<timebase>60</timebase>
							<ntsc>TRUE</ntsc>
						</rate>
						<duration>0</duration>
						<start>4680</start>
						<end>4680</end>
						<in>4704</in>
						<out>4704</out>
					</clipitem>
					<clipitem frameBlend="FALSE" id="clipitem-1282">
						<file id="file-1"/>
						<name>bandicam 2025-06-02 00-01-10-144</name>
						<rate>
							<timebase>60</timebase>
							<ntsc>TRUE</ntsc>
						</rate>
						<rate>
							<timebase>60</timebase>
							<ntsc>TRUE</ntsc>
						</rate>
						<duration>96</duration>
						<start>4704</start>
						<end>4800</end>
						<in>4722</in>
						<out>4818</out>
					</clipitem>
					<clipitem frameBlend="FALSE" id="clipitem-1283">
						<file id="file-1"/>
						<name>bandicam 2025-06-02 00-01-10-144</name>
						<rate>
							<timebase>60</timebase>
							<ntsc>TRUE</ntsc>
						</rate>
						<rate>
							<timebase>60</timebase>
							<ntsc>TRUE</ntsc>
						</rate>
						<duration>0</duration>
						<start>4818</start>
						<end>4818</end>
						<in>4848</in>
						<out>4848</out>
					</clipitem>
					<clipitem frameBlend="FALSE" id="clipitem-1284">
						<file id="file-1"/>
						<name>bandicam 2025-06-02 00-01-10-144</name>
						<rate>
							<timebase>60</timebase>
							<ntsc>TRUE</ntsc>
						</rate>
						<rate>
							<timebase>60</timebase>
							<ntsc>TRUE</ntsc>
						</rate>
						<duration>12</duration>
						<start>4848</start>
						<end>4860</end>
						<in>4860</in>
						<out>4872</out>
					</clipitem>
					<clipitem frameBlend="FALSE" id="clipitem-1285">
						<file id="file-1"/>
						<name>bandicam 2025-06-02 00-01-10-144</name>
						<rate>
							<timebase>60</timebase>
							<ntsc>TRUE</ntsc>
						</rate>
						<rate>
							<timebase>60</timebase>
							<ntsc>TRUE</ntsc>
						</rate>
						<duration>6</duration>
						<start>4872</start>
						<end>4878</end>
						<in>4890</in>
						<out>4896</out>
					</clipitem>
					<clipitem frameBlend="FALSE" id="clipitem-1286">
						<file id="file-1"/>
						<name>bandicam 2025-06-02 00-01-10-144</name>
						<rate>
							<timebase>60</timebase>
							<ntsc>TRUE</ntsc>
						</rate>
						<rate>
							<timebase>60</timebase>
							<ntsc>TRUE</ntsc>
						</rate>
						<duration>24</duration>
						<start>4896</start>
						<end>4920</end>
						<in>4908</in>
						<out>4932</out>
					</clipitem>
					<clipitem frameBlend="FALSE" id="clipitem-1287">
						<file id="file-1"/>
						<name>bandicam 2025-06-02 00-01-10-144</name>
						<rate>
							<timebase>60</timebase>
							<ntsc>TRUE</ntsc>
						</rate>
						<rate>
							<timebase>60</timebase>
							<ntsc>TRUE</ntsc>
						</rate>
						<duration>30</duration>
						<start>4932</start>
						<end>4962</end>
						<in>4944</in>
						<out>4974</out>
					</clipitem>
					<clipitem frameBlend="FALSE" id="clipitem-1288">
						<file id="file-1"/>
						<name>bandicam 2025-06-02 00-01-10-144</name>
						<rate>
							<timebase>60</timebase>
							<ntsc>TRUE</ntsc>
						</rate>
						<rate>
							<timebase>60</timebase>
							<ntsc>TRUE</ntsc>
						</rate>
						<duration>30</duration>
						<start>4974</start>
						<end>5004</end>
						<in>5016</in>
						<out>5046</out>
					</clipitem>
					<clipitem frameBlend="FALSE" id="clipitem-1289">
						<file id="file-1"/>
						<name>bandicam 2025-06-02 00-01-10-144</name>
						<rate>
							<timebase>60</timebase>
							<ntsc>TRUE</ntsc>
						</rate>
						<rate>
							<timebase>60</timebase>
							<ntsc>TRUE</ntsc>
						</rate>
						<duration>6</duration>
						<start>5046</start>
						<end>5052</end>
						<in>5064</in>
						<out>5070</out>
					</clipitem>
					<clipitem frameBlend="FALSE" id="clipitem-1290">
						<file id="file-1"/>
						<name>bandicam 2025-06-02 00-01-10-144</name>
						<rate>
							<timebase>60</timebase>
							<ntsc>TRUE</ntsc>
						</rate>
						<rate>
							<timebase>60</timebase>
							<ntsc>TRUE</ntsc>
						</rate>
						<duration>96</duration>
						<start>5070</start>
						<end>5166</end>
						<in>5082</in>
						<out>5178</out>
					</clipitem>
					<clipitem frameBlend="FALSE" id="clipitem-1291">
						<file id="file-1"/>
						<name>bandicam 2025-06-02 00-01-10-144</name>
						<rate>
							<timebase>60</timebase>
							<ntsc>TRUE</ntsc>
						</rate>
						<rate>
							<timebase>60</timebase>
							<ntsc>TRUE</ntsc>
						</rate>
						<duration>6</duration>
						<start>5178</start>
						<end>5184</end>
						<in>5208</in>
						<out>5214</out>
					</clipitem>
					<clipitem frameBlend="FALSE" id="clipitem-1292">
						<file id="file-1"/>
						<name>bandicam 2025-06-02 00-01-10-144</name>
						<rate>
							<timebase>60</timebase>
							<ntsc>TRUE</ntsc>
						</rate>
						<rate>
							<timebase>60</timebase>
							<ntsc>TRUE</ntsc>
						</rate>
						<duration>30</duration>
						<start>5214</start>
						<end>5244</end>
						<in>5232</in>
						<out>5262</out>
					</clipitem>
					<clipitem frameBlend="FALSE" id="clipitem-1293">
						<file id="file-1"/>
						<name>bandicam 2025-06-02 00-01-10-144</name>
						<rate>
							<timebase>60</timebase>
							<ntsc>TRUE</ntsc>
						</rate>
						<rate>
							<timebase>60</timebase>
							<ntsc>TRUE</ntsc>
						</rate>
						<duration>36</duration>
						<start>5262</start>
						<end>5298</end>
						<in>5328</in>
						<out>5364</out>
					</clipitem>
					<clipitem frameBlend="FALSE" id="clipitem-1294">
						<file id="file-1"/>
						<name>bandicam 2025-06-02 00-01-10-144</name>
						<rate>
							<timebase>60</timebase>
							<ntsc>TRUE</ntsc>
						</rate>
						<rate>
							<timebase>60</timebase>
							<ntsc>TRUE</ntsc>
						</rate>
						<duration>84</duration>
						<start>5364</start>
						<end>5448</end>
						<in>5382</in>
						<out>5466</out>
					</clipitem>
					<clipitem frameBlend="FALSE" id="clipitem-1295">
						<file id="file-1"/>
						<name>bandicam 2025-06-02 00-01-10-144</name>
						<rate>
							<timebase>60</timebase>
							<ntsc>TRUE</ntsc>
						</rate>
						<rate>
							<timebase>60</timebase>
							<ntsc>TRUE</ntsc>
						</rate>
						<duration>30</duration>
						<start>5466</start>
						<end>5496</end>
						<in>5490</in>
						<out>5520</out>
					</clipitem>
					<clipitem frameBlend="FALSE" id="clipitem-1296">
						<file id="file-1"/>
						<name>bandicam 2025-06-02 00-01-10-144</name>
						<rate>
							<timebase>60</timebase>
							<ntsc>TRUE</ntsc>
						</rate>
						<rate>
							<timebase>60</timebase>
							<ntsc>TRUE</ntsc>
						</rate>
						<duration>66</duration>
						<start>5520</start>
						<end>5586</end>
						<in>5532</in>
						<out>5598</out>
					</clipitem>
					<clipitem frameBlend="FALSE" id="clipitem-1297">
						<file id="file-1"/>
						<name>bandicam 2025-06-02 00-01-10-144</name>
						<rate>
							<timebase>60</timebase>
							<ntsc>TRUE</ntsc>
						</rate>
						<rate>
							<timebase>60</timebase>
							<ntsc>TRUE</ntsc>
						</rate>
						<duration>24</duration>
						<start>5598</start>
						<end>5622</end>
						<in>5622</in>
						<out>5646</out>
					</clipitem>
					<clipitem frameBlend="FALSE" id="clipitem-1298">
						<file id="file-1"/>
						<name>bandicam 2025-06-02 00-01-10-144</name>
						<rate>
							<timebase>60</timebase>
							<ntsc>TRUE</ntsc>
						</rate>
						<rate>
							<timebase>60</timebase>
							<ntsc>TRUE</ntsc>
						</rate>
						<duration>30</duration>
						<start>5646</start>
						<end>5676</end>
						<in>5664</in>
						<out>5694</out>
					</clipitem>
					<clipitem frameBlend="FALSE" id="clipitem-1299">
						<file id="file-1"/>
						<name>bandicam 2025-06-02 00-01-10-144</name>
						<rate>
							<timebase>60</timebase>
							<ntsc>TRUE</ntsc>
						</rate>
						<rate>
							<timebase>60</timebase>
							<ntsc>TRUE</ntsc>
						</rate>
						<duration>66</duration>
						<start>5694</start>
						<end>5760</end>
						<in>5712</in>
						<out>5778</out>
					</clipitem>
					<clipitem frameBlend="FALSE" id="clipitem-1300">
						<file id="file-1"/>
						<name>bandicam 2025-06-02 00-01-10-144</name>
						<rate>
							<timebase>60</timebase>
							<ntsc>TRUE</ntsc>
						</rate>
						<rate>
							<timebase>60</timebase>
							<ntsc>TRUE</ntsc>
						</rate>
						<duration>282</duration>
						<start>5778</start>
						<end>6060</end>
						<in>5802</in>
						<out>6084</out>
					</clipitem>
					<clipitem frameBlend="FALSE" id="clipitem-1301">
						<file id="file-1"/>
						<name>bandicam 2025-06-02 00-01-10-144</name>
						<rate>
							<timebase>60</timebase>
							<ntsc>TRUE</ntsc>
						</rate>
						<rate>
							<timebase>60</timebase>
							<ntsc>TRUE</ntsc>
						</rate>
						<duration>0</duration>
						<start>6084</start>
						<end>6084</end>
						<in>6132</in>
						<out>6132</out>
					</clipitem>
					<clipitem frameBlend="FALSE" id="clipitem-1302">
						<file id="file-1"/>
						<name>bandicam 2025-06-02 00-01-10-144</name>
						<rate>
							<timebase>60</timebase>
							<ntsc>TRUE</ntsc>
						</rate>
						<rate>
							<timebase>60</timebase>
							<ntsc>TRUE</ntsc>
						</rate>
						<duration>60</duration>
						<start>6132</start>
						<end>6192</end>
						<in>6150</in>
						<out>6210</out>
					</clipitem>
					<clipitem frameBlend="FALSE" id="clipitem-1303">
						<file id="file-1"/>
						<name>bandicam 2025-06-02 00-01-10-144</name>
						<rate>
							<timebase>60</timebase>
							<ntsc>TRUE</ntsc>
						</rate>
						<rate>
							<timebase>60</timebase>
							<ntsc>TRUE</ntsc>
						</rate>
						<duration>36</duration>
						<start>6210</start>
						<end>6246</end>
						<in>6222</in>
						<out>6258</out>
					</clipitem>
					<clipitem frameBlend="FALSE" id="clipitem-1304">
						<file id="file-1"/>
						<name>bandicam 2025-06-02 00-01-10-144</name>
						<rate>
							<timebase>60</timebase>
							<ntsc>TRUE</ntsc>
						</rate>
						<rate>
							<timebase>60</timebase>
							<ntsc>TRUE</ntsc>
						</rate>
						<duration>0</duration>
						<start>6258</start>
						<end>6258</end>
						<in>6282</in>
						<out>6282</out>
					</clipitem>
					<clipitem frameBlend="FALSE" id="clipitem-1305">
						<file id="file-1"/>
						<name>bandicam 2025-06-02 00-01-10-144</name>
						<rate>
							<timebase>60</timebase>
							<ntsc>TRUE</ntsc>
						</rate>
						<rate>
							<timebase>60</timebase>
							<ntsc>TRUE</ntsc>
						</rate>
						<duration>0</duration>
						<start>6282</start>
						<end>6282</end>
						<in>6300</in>
						<out>6300</out>
					</clipitem>
					<clipitem frameBlend="FALSE" id="clipitem-1306">
						<file id="file-1"/>
						<name>bandicam 2025-06-02 00-01-10-144</name>
						<rate>
							<timebase>60</timebase>
							<ntsc>TRUE</ntsc>
						</rate>
						<rate>
							<timebase>60</timebase>
							<ntsc>TRUE</ntsc>
						</rate>
						<duration>30</duration>
						<start>6300</start>
						<end>6330</end>
						<in>6312</in>
						<out>6342</out>
					</clipitem>
					<clipitem frameBlend="FALSE" id="clipitem-1307">
						<file id="file-1"/>
						<name>bandicam 2025-06-02 00-01-10-144</name>
						<rate>
							<timebase>60</timebase>
							<ntsc>TRUE</ntsc>
						</rate>
						<rate>
							<timebase>60</timebase>
							<ntsc>TRUE</ntsc>
						</rate>
						<duration>30</duration>
						<start>6342</start>
						<end>6372</end>
						<in>6384</in>
						<out>6414</out>
					</clipitem>
					<clipitem frameBlend="FALSE" id="clipitem-1308">
						<file id="file-1"/>
						<name>bandicam 2025-06-02 00-01-10-144</name>
						<rate>
							<timebase>60</timebase>
							<ntsc>TRUE</ntsc>
						</rate>
						<rate>
							<timebase>60</timebase>
							<ntsc>TRUE</ntsc>
						</rate>
						<duration>24</duration>
						<start>6414</start>
						<end>6438</end>
						<in>6432</in>
						<out>6456</out>
					</clipitem>
					<clipitem frameBlend="FALSE" id="clipitem-1309">
						<file id="file-1"/>
						<name>bandicam 2025-06-02 00-01-10-144</name>
						<rate>
							<timebase>60</timebase>
							<ntsc>TRUE</ntsc>
						</rate>
						<rate>
							<timebase>60</timebase>
							<ntsc>TRUE</ntsc>
						</rate>
						<duration>120</duration>
						<start>6456</start>
						<end>6576</end>
						<in>6468</in>
						<out>6588</out>
					</clipitem>
					<clipitem frameBlend="FALSE" id="clipitem-1310">
						<file id="file-1"/>
						<name>bandicam 2025-06-02 00-01-10-144</name>
						<rate>
							<timebase>60</timebase>
							<ntsc>TRUE</ntsc>
						</rate>
						<rate>
							<timebase>60</timebase>
							<ntsc>TRUE</ntsc>
						</rate>
						<duration>30</duration>
						<start>6588</start>
						<end>6618</end>
						<in>6612</in>
						<out>6642</out>
					</clipitem>
					<clipitem frameBlend="FALSE" id="clipitem-1311">
						<file id="file-1"/>
						<name>bandicam 2025-06-02 00-01-10-144</name>
						<rate>
							<timebase>60</timebase>
							<ntsc>TRUE</ntsc>
						</rate>
						<rate>
							<timebase>60</timebase>
							<ntsc>TRUE</ntsc>
						</rate>
						<duration>0</duration>
						<start>6642</start>
						<end>6642</end>
						<in>6714</in>
						<out>6714</out>
					</clipitem>
					<clipitem frameBlend="FALSE" id="clipitem-1312">
						<file id="file-1"/>
						<name>bandicam 2025-06-02 00-01-10-144</name>
						<rate>
							<timebase>60</timebase>
							<ntsc>TRUE</ntsc>
						</rate>
						<rate>
							<timebase>60</timebase>
							<ntsc>TRUE</ntsc>
						</rate>
						<duration>0</duration>
						<start>6714</start>
						<end>6714</end>
						<in>6732</in>
						<out>6732</out>
					</clipitem>
					<clipitem frameBlend="FALSE" id="clipitem-1313">
						<file id="file-1"/>
						<name>bandicam 2025-06-02 00-01-10-144</name>
						<rate>
							<timebase>60</timebase>
							<ntsc>TRUE</ntsc>
						</rate>
						<rate>
							<timebase>60</timebase>
							<ntsc>TRUE</ntsc>
						</rate>
						<duration>18</duration>
						<start>6732</start>
						<end>6750</end>
						<in>6750</in>
						<out>6768</out>
					</clipitem>
					<clipitem frameBlend="FALSE" id="clipitem-1314">
						<file id="file-1"/>
						<name>bandicam 2025-06-02 00-01-10-144</name>
						<rate>
							<timebase>60</timebase>
							<ntsc>TRUE</ntsc>
						</rate>
						<rate>
							<timebase>60</timebase>
							<ntsc>TRUE</ntsc>
						</rate>
						<duration>60</duration>
						<start>6768</start>
						<end>6828</end>
						<in>6798</in>
						<out>6858</out>
					</clipitem>
					<clipitem frameBlend="FALSE" id="clipitem-1315">
						<file id="file-1"/>
						<name>bandicam 2025-06-02 00-01-10-144</name>
						<rate>
							<timebase>60</timebase>
							<ntsc>TRUE</ntsc>
						</rate>
						<rate>
							<timebase>60</timebase>
							<ntsc>TRUE</ntsc>
						</rate>
						<duration>6</duration>
						<start>6858</start>
						<end>6864</end>
						<in>6894</in>
						<out>6900</out>
					</clipitem>
					<clipitem frameBlend="FALSE" id="clipitem-1316">
						<file id="file-1"/>
						<name>bandicam 2025-06-02 00-01-10-144</name>
						<rate>
							<timebase>60</timebase>
							<ntsc>TRUE</ntsc>
						</rate>
						<rate>
							<timebase>60</timebase>
							<ntsc>TRUE</ntsc>
						</rate>
						<duration>30</duration>
						<start>6900</start>
						<end>6930</end>
						<in>6912</in>
						<out>6942</out>
					</clipitem>
					<clipitem frameBlend="FALSE" id="clipitem-1317">
						<file id="file-1"/>
						<name>bandicam 2025-06-02 00-01-10-144</name>
						<rate>
							<timebase>60</timebase>
							<ntsc>TRUE</ntsc>
						</rate>
						<rate>
							<timebase>60</timebase>
							<ntsc>TRUE</ntsc>
						</rate>
						<duration>0</duration>
						<start>6942</start>
						<end>6942</end>
						<in>6954</in>
						<out>6954</out>
					</clipitem>
					<clipitem frameBlend="FALSE" id="clipitem-1318">
						<file id="file-1"/>
						<name>bandicam 2025-06-02 00-01-10-144</name>
						<rate>
							<timebase>60</timebase>
							<ntsc>TRUE</ntsc>
						</rate>
						<rate>
							<timebase>60</timebase>
							<ntsc>TRUE</ntsc>
						</rate>
						<duration>6</duration>
						<start>6954</start>
						<end>6960</end>
						<in>7002</in>
						<out>7008</out>
					</clipitem>
					<clipitem frameBlend="FALSE" id="clipitem-1319">
						<file id="file-1"/>
						<name>bandicam 2025-06-02 00-01-10-144</name>
						<rate>
							<timebase>60</timebase>
							<ntsc>TRUE</ntsc>
						</rate>
						<rate>
							<timebase>60</timebase>
							<ntsc>TRUE</ntsc>
						</rate>
						<duration>30</duration>
						<start>7008</start>
						<end>7038</end>
						<in>7020</in>
						<out>7050</out>
					</clipitem>
					<clipitem frameBlend="FALSE" id="clipitem-1320">
						<file id="file-1"/>
						<name>bandicam 2025-06-02 00-01-10-144</name>
						<rate>
							<timebase>60</timebase>
							<ntsc>TRUE</ntsc>
						</rate>
						<rate>
							<timebase>60</timebase>
							<ntsc>TRUE</ntsc>
						</rate>
						<duration>12</duration>
						<start>7050</start>
						<end>7062</end>
						<in>12</in>
						<out>24</out>
					</clipitem>
					<clipitem frameBlend="FALSE" id="clipitem-1321">
						<file id="file-1"/>
						<name>bandicam 2025-06-02 00-01-10-144</name>
						<rate>
							<timebase>60</timebase>
							<ntsc>TRUE</ntsc>
						</rate>
						<rate>
							<timebase>60</timebase>
							<ntsc>TRUE</ntsc>
						</rate>
						<duration>36</duration>
						<start>24</start>
						<end>60</end>
						<in>54</in>
						<out>90</out>
					</clipitem>
					<clipitem frameBlend="FALSE" id="clipitem-1322">
						<file id="file-1"/>
						<name>bandicam 2025-06-02 00-01-10-144</name>
						<rate>
							<timebase>60</timebase>
							<ntsc>TRUE</ntsc>
						</rate>
						<rate>
							<timebase>60</timebase>
							<ntsc>TRUE</ntsc>
						</rate>
						<duration>18</duration>
						<start>90</start>
						<end>108</end>
						<in>108</in>
						<out>126</out>
					</clipitem>
					<clipitem frameBlend="FALSE" id="clipitem-1323">
						<file id="file-1"/>
						<name>bandicam 2025-06-02 00-01-10-144</name>
						<rate>
							<timebase>60</timebase>
							<ntsc>TRUE</ntsc>
						</rate>
						<rate>
							<timebase>60</timebase>
							<ntsc>TRUE</ntsc>
						</rate>
						<duration>12</duration>
						<start>126</start>
						<end>138</end>
						<in>174</in>
						<out>186</out>
					</clipitem>
					<clipitem frameBlend="FALSE" id="clipitem-1324">
						<file id="file-1"/>
						<name>bandicam 2025-06-02 00-01-10-144</name>
						<rate>
							<timebase>60</timebase>
							<ntsc>TRUE</ntsc>
						</rate>
						<rate>
							<timebase>60</timebase>
							<ntsc>TRUE</ntsc>
						</rate>
						<duration>0</duration>
						<start>186</start>
						<end>186</end>
						<in>300</in>
						<out>300</out>
					</clipitem>
					<clipitem frameBlend="FALSE" id="clipitem-1325">
						<file id="file-1"/>
						<name>bandicam 2025-06-02 00-01-10-144</name>
						<rate>
							<timebase>60</timebase>
							<ntsc>TRUE</ntsc>
						</rate>
						<rate>
							<timebase>60</timebase>
							<ntsc>TRUE</ntsc>
						</rate>
						<duration>18</duration>
						<start>300</start>
						<end>318</end>
						<in>360</in>
						<out>378</out>
					</clipitem>
					<clipitem frameBlend="FALSE" id="clipitem-1326">
						<file id="file-1"/>
						<name>bandicam 2025-06-02 00-01-10-144</name>
						<rate>
							<timebase>60</timebase>
							<ntsc>TRUE</ntsc>
						</rate>
						<rate>
							<timebase>60</timebase>
							<ntsc>TRUE</ntsc>
						</rate>
						<duration>0</duration>
						<start>378</start>
						<end>378</end>
						<in>438</in>
						<out>438</out>
					</clipitem>
					<clipitem frameBlend="FALSE" id="clipitem-1327">
						<file id="file-1"/>
						<name>bandicam 2025-06-02 00-01-10-144</name>
						<rate>
							<timebase>60</timebase>
							<ntsc>TRUE</ntsc>
						</rate>
						<rate>
							<timebase>60</timebase>
							<ntsc>TRUE</ntsc>
						</rate>
						<duration>36</duration>
						<start>438</start>
						<end>474</end>
						<in>450</in>
						<out>486</out>
					</clipitem>
					<clipitem frameBlend="FALSE" id="clipitem-1328">
						<file id="file-1"/>
						<name>bandicam 2025-06-02 00-01-10-144</name>
						<rate>
							<timebase>60</timebase>
							<ntsc>TRUE</ntsc>
						</rate>
						<rate>
							<timebase>60</timebase>
							<ntsc>TRUE</ntsc>
						</rate>
						<duration>0</duration>
						<start>486</start>
						<end>486</end>
						<in>504</in>
						<out>504</out>
					</clipitem>
					<clipitem frameBlend="FALSE" id="clipitem-1329">
						<file id="file-1"/>
						<name>bandicam 2025-06-02 00-01-10-144</name>
						<rate>
							<timebase>60</timebase>
							<ntsc>TRUE</ntsc>
						</rate>
						<rate>
							<timebase>60</timebase>
							<ntsc>TRUE</ntsc>
						</rate>
						<duration>12</duration>
						<start>504</start>
						<end>516</end>
						<in>528</in>
						<out>540</out>
					</clipitem>
					<clipitem frameBlend="FALSE" id="clipitem-1330">
						<file id="file-1"/>
						<name>bandicam 2025-06-02 00-01-10-144</name>
						<rate>
							<timebase>60</timebase>
							<ntsc>TRUE</ntsc>
						</rate>
						<rate>
							<timebase>60</timebase>
							<ntsc>TRUE</ntsc>
						</rate>
						<duration>24</duration>
						<start>540</start>
						<end>564</end>
						<in>582</in>
						<out>606</out>
					</clipitem>
					<clipitem frameBlend="FALSE" id="clipitem-1331">
						<file id="file-1"/>
						<name>bandicam 2025-06-02 00-01-10-144</name>
						<rate>
							<timebase>60</timebase>
							<ntsc>TRUE</ntsc>
						</rate>
						<rate>
							<timebase>60</timebase>
							<ntsc>TRUE</ntsc>
						</rate>
						<duration>12</duration>
						<start>606</start>
						<end>618</end>
						<in>624</in>
						<out>636</out>
					</clipitem>
					<clipitem frameBlend="FALSE" id="clipitem-1332">
						<file id="file-1"/>
						<name>bandicam 2025-06-02 00-01-10-144</name>
						<rate>
							<timebase>60</timebase>
							<ntsc>TRUE</ntsc>
						</rate>
						<rate>
							<timebase>60</timebase>
							<ntsc>TRUE</ntsc>
						</rate>
						<duration>0</duration>
						<start>636</start>
						<end>636</end>
						<in>852</in>
						<out>852</out>
					</clipitem>
					<clipitem frameBlend="FALSE" id="clipitem-1333">
						<file id="file-1"/>
						<name>bandicam 2025-06-02 00-01-10-144</name>
						<rate>
							<timebase>60</timebase>
							<ntsc>TRUE</ntsc>
						</rate>
						<rate>
							<timebase>60</timebase>
							<ntsc>TRUE</ntsc>
						</rate>
						<duration>0</duration>
						<start>852</start>
						<end>852</end>
						<in>912</in>
						<out>912</out>
					</clipitem>
					<clipitem frameBlend="FALSE" id="clipitem-1334">
						<file id="file-1"/>
						<name>bandicam 2025-06-02 00-01-10-144</name>
						<rate>
							<timebase>60</timebase>
							<ntsc>TRUE</ntsc>
						</rate>
						<rate>
							<timebase>60</timebase>
							<ntsc>TRUE</ntsc>
						</rate>
						<duration>0</duration>
						<start>912</start>
						<end>912</end>
						<in>936</in>
						<out>936</out>
					</clipitem>
					<clipitem frameBlend="FALSE" id="clipitem-1335">
						<file id="file-1"/>
						<name>bandicam 2025-06-02 00-01-10-144</name>
						<rate>
							<timebase>60</timebase>
							<ntsc>TRUE</ntsc>
						</rate>
						<rate>
							<timebase>60</timebase>
							<ntsc>TRUE</ntsc>
						</rate>
						<duration>0</duration>
						<start>936</start>
						<end>936</end>
						<in>954</in>
						<out>954</out>
					</clipitem>
					<clipitem frameBlend="FALSE" id="clipitem-1336">
						<file id="file-1"/>
						<name>bandicam 2025-06-02 00-01-10-144</name>
						<rate>
							<timebase>60</timebase>
							<ntsc>TRUE</ntsc>
						</rate>
						<rate>
							<timebase>60</timebase>
							<ntsc>TRUE</ntsc>
						</rate>
						<duration>12</duration>
						<start>954</start>
						<end>966</end>
						<in>984</in>
						<out>996</out>
					</clipitem>
					<clipitem frameBlend="FALSE" id="clipitem-1337">
						<file id="file-1"/>
						<name>bandicam 2025-06-02 00-01-10-144</name>
						<rate>
							<timebase>60</timebase>
							<ntsc>TRUE</ntsc>
						</rate>
						<rate>
							<timebase>60</timebase>
							<ntsc>TRUE</ntsc>
						</rate>
						<duration>12</duration>
						<start>996</start>
						<end>1008</end>
						<in>1086</in>
						<out>1098</out>
					</clipitem>
					<clipitem frameBlend="FALSE" id="clipitem-1338">
						<file id="file-1"/>
						<name>bandicam 2025-06-02 00-01-10-144</name>
						<rate>
							<timebase>60</timebase>
							<ntsc>TRUE</ntsc>
						</rate>
						<rate>
							<timebase>60</timebase>
							<ntsc>TRUE</ntsc>
						</rate>
						<duration>0</duration>
						<start>1098</start>
						<end>1098</end>
						<in>1194</in>
						<out>1194</out>
					</clipitem>
					<clipitem frameBlend="FALSE" id="clipitem-1339">
						<file id="file-1"/>
						<name>bandicam 2025-06-02 00-01-10-144</name>
						<rate>
							<timebase>60</timebase>
							<ntsc>TRUE</ntsc>
						</rate>
						<rate>
							<timebase>60</timebase>
							<ntsc>TRUE</ntsc>
						</rate>
						<duration>18</duration>
						<start>1194</start>
						<end>1212</end>
						<in>1206</in>
						<out>1224</out>
					</clipitem>
					<clipitem frameBlend="FALSE" id="clipitem-1340">
						<file id="file-1"/>
						<name>bandicam 2025-06-02 00-01-10-144</name>
						<rate>
							<timebase>60</timebase>
							<ntsc>TRUE</ntsc>
						</rate>
						<rate>
							<timebase>60</timebase>
							<ntsc>TRUE</ntsc>
						</rate>
						<duration>0</duration>
						<start>1224</start>
						<end>1224</end>
						<in>1320</in>
						<out>1320</out>
					</clipitem>
					<clipitem frameBlend="FALSE" id="clipitem-1341">
						<file id="file-1"/>
						<name>bandicam 2025-06-02 00-01-10-144</name>
						<rate>
							<timebase>60</timebase>
							<ntsc>TRUE</ntsc>
						</rate>
						<rate>
							<timebase>60</timebase>
							<ntsc>TRUE</ntsc>
						</rate>
						<duration>0</duration>
						<start>1320</start>
						<end>1320</end>
						<in>1386</in>
						<out>1386</out>
					</clipitem>
					<clipitem frameBlend="FALSE" id="clipitem-1342">
						<file id="file-1"/>
						<name>bandicam 2025-06-02 00-01-10-144</name>
						<rate>
							<timebase>60</timebase>
							<ntsc>TRUE</ntsc>
						</rate>
						<rate>
							<timebase>60</timebase>
							<ntsc>TRUE</ntsc>
						</rate>
						<duration>18</duration>
						<start>1386</start>
						<end>1404</end>
						<in>1404</in>
						<out>1422</out>
					</clipitem>
					<clipitem frameBlend="FALSE" id="clipitem-1343">
						<file id="file-1"/>
						<name>bandicam 2025-06-02 00-01-10-144</name>
						<rate>
							<timebase>60</timebase>
							<ntsc>TRUE</ntsc>
						</rate>
						<rate>
							<timebase>60</timebase>
							<ntsc>TRUE</ntsc>
						</rate>
						<duration>12</duration>
						<start>1422</start>
						<end>1434</end>
						<in>1446</in>
						<out>1458</out>
					</clipitem>
					<clipitem frameBlend="FALSE" id="clipitem-1344">
						<file id="file-1"/>
						<name>bandicam 2025-06-02 00-01-10-144</name>
						<rate>
							<timebase>60</timebase>
							<ntsc>TRUE</ntsc>
						</rate>
						<rate>
							<timebase>60</timebase>
							<ntsc>TRUE</ntsc>
						</rate>
						<duration>12</duration>
						<start>1458</start>
						<end>1470</end>
						<in>1566</in>
						<out>1578</out>
					</clipitem>
					<clipitem frameBlend="FALSE" id="clipitem-1345">
						<file id="file-1"/>
						<name>bandicam 2025-06-02 00-01-10-144</name>
						<rate>
							<timebase>60</timebase>
							<ntsc>TRUE</ntsc>
						</rate>
						<rate>
							<timebase>60</timebase>
							<ntsc>TRUE</ntsc>
						</rate>
						<duration>30</duration>
						<start>1578</start>
						<end>1608</end>
						<in>1692</in>
						<out>1722</out>
					</clipitem>
					<clipitem frameBlend="FALSE" id="clipitem-1346">
						<file id="file-1"/>
						<name>bandicam 2025-06-02 00-01-10-144</name>
						<rate>
							<timebase>60</timebase>
							<ntsc>TRUE</ntsc>
						</rate>
						<rate>
							<timebase>60</timebase>
							<ntsc>TRUE</ntsc>
						</rate>
						<duration>18</duration>
						<start>1722</start>
						<end>1740</end>
						<in>1746</in>
						<out>1764</out>
					</clipitem>
					<clipitem frameBlend="FALSE" id="clipitem-1347">
						<file id="file-1"/>
						<name>bandicam 2025-06-02 00-01-10-144</name>
						<rate>
							<timebase>60</timebase>
							<ntsc>TRUE</ntsc>
						</rate>
						<rate>
							<timebase>60</timebase>
							<ntsc>TRUE</ntsc>
						</rate>
						<duration>0</duration>
						<start>1764</start>
						<end>1764</end>
						<in>1776</in>
						<out>1776</out>
					</clipitem>
					<clipitem frameBlend="FALSE" id="clipitem-1348">
						<file id="file-1"/>
						<name>bandicam 2025-06-02 00-01-10-144</name>
						<rate>
							<timebase>60</timebase>
							<ntsc>TRUE</ntsc>
						</rate>
						<rate>
							<timebase>60</timebase>
							<ntsc>TRUE</ntsc>
						</rate>
						<duration>18</duration>
						<start>1776</start>
						<end>1794</end>
						<in>1812</in>
						<out>1830</out>
					</clipitem>
					<clipitem frameBlend="FALSE" id="clipitem-1349">
						<file id="file-1"/>
						<name>bandicam 2025-06-02 00-01-10-144</name>
						<rate>
							<timebase>60</timebase>
							<ntsc>TRUE</ntsc>
						</rate>
						<rate>
							<timebase>60</timebase>
							<ntsc>TRUE</ntsc>
						</rate>
						<duration>12</duration>
						<start>1830</start>
						<end>1842</end>
						<in>1842</in>
						<out>1854</out>
					</clipitem>
					<clipitem frameBlend="FALSE" id="clipitem-1350">
						<file id="file-1"/>
						<name>bandicam 2025-06-02 00-01-10-144</name>
						<rate>
							<timebase>60</timebase>
							<ntsc>TRUE</ntsc>
						</rate>
						<rate>
							<timebase>60</timebase>
							<ntsc>TRUE</ntsc>
						</rate>
						<duration>0</duration>
						<start>1854</start>
						<end>1854</end>
						<in>1872</in>
						<out>1872</out>
					</clipitem>
					<clipitem frameBlend="FALSE" id="clipitem-1351">
						<file id="file-1"/>
						<name>bandicam 2025-06-02 00-01-10-144</name>
						<rate>
							<timebase>60</timebase>
							<ntsc>TRUE</ntsc>
						</rate>
						<rate>
							<timebase>60</timebase>
							<ntsc>TRUE</ntsc>
						</rate>
						<duration>6</duration>
						<start>1872</start>
						<end>1878</end>
						<in>1884</in>
						<out>1890</out>
					</clipitem>
					<clipitem frameBlend="FALSE" id="clipitem-1352">
						<file id="file-1"/>
						<name>bandicam 2025-06-02 00-01-10-144</name>
						<rate>
							<timebase>60</timebase>
							<ntsc>TRUE</ntsc>
						</rate>
						<rate>
							<timebase>60</timebase>
							<ntsc>TRUE</ntsc>
						</rate>
						<duration>12</duration>
						<start>1890</start>
						<end>1902</end>
						<in>1926</in>
						<out>1938</out>
					</clipitem>
					<clipitem frameBlend="FALSE" id="clipitem-1353">
						<file id="file-1"/>
						<name>bandicam 2025-06-02 00-01-10-144</name>
						<rate>
							<timebase>60</timebase>
							<ntsc>TRUE</ntsc>
						</rate>
						<rate>
							<timebase>60</timebase>
							<ntsc>TRUE</ntsc>
						</rate>
						<duration>12</duration>
						<start>1938</start>
						<end>1950</end>
						<in>2178</in>
						<out>2190</out>
					</clipitem>
					<clipitem frameBlend="FALSE" id="clipitem-1354">
						<file id="file-1"/>
						<name>bandicam 2025-06-02 00-01-10-144</name>
						<rate>
							<timebase>60</timebase>
							<ntsc>TRUE</ntsc>
						</rate>
						<rate>
							<timebase>60</timebase>
							<ntsc>TRUE</ntsc>
						</rate>
						<duration>12</duration>
						<start>2190</start>
						<end>2202</end>
						<in>2280</in>
						<out>2292</out>
					</clipitem>
					<clipitem frameBlend="FALSE" id="clipitem-1355">
						<file id="file-1"/>
						<name>bandicam 2025-06-02 00-01-10-144</name>
						<rate>
							<timebase>60</timebase>
							<ntsc>TRUE</ntsc>
						</rate>
						<rate>
							<timebase>60</timebase>
							<ntsc>TRUE</ntsc>
						</rate>
						<duration>42</duration>
						<start>2292</start>
						<end>2334</end>
						<in>2304</in>
						<out>2346</out>
					</clipitem>
					<clipitem frameBlend="FALSE" id="clipitem-1356">
						<file id="file-1"/>
						<name>bandicam 2025-06-02 00-01-10-144</name>
						<rate>
							<timebase>60</timebase>
							<ntsc>TRUE</ntsc>
						</rate>
						<rate>
							<timebase>60</timebase>
							<ntsc>TRUE</ntsc>
						</rate>
						<duration>12</duration>
						<start>2346</start>
						<end>2358</end>
						<in>2448</in>
						<out>2460</out>
					</clipitem>
					<clipitem frameBlend="FALSE" id="clipitem-1357">
						<file id="file-1"/>
						<name>bandicam 2025-06-02 00-01-10-144</name>
						<rate>
							<timebase>60</timebase>
							<ntsc>TRUE</ntsc>
						</rate>
						<rate>
							<timebase>60</timebase>
							<ntsc>TRUE</ntsc>
						</rate>
						<duration>6</duration>
						<start>2460</start>
						<end>2466</end>
						<in>2478</in>
						<out>2484</out>
					</clipitem>
					<clipitem frameBlend="FALSE" id="clipitem-1358">
						<file id="file-1"/>
						<name>bandicam 2025-06-02 00-01-10-144</name>
						<rate>
							<timebase>60</timebase>
							<ntsc>TRUE</ntsc>
						</rate>
						<rate>
							<timebase>60</timebase>
							<ntsc>TRUE</ntsc>
						</rate>
						<duration>6</duration>
						<start>2484</start>
						<end>2490</end>
						<in>2496</in>
						<out>2502</out>
					</clipitem>
					<clipitem frameBlend="FALSE" id="clipitem-1359">
						<file id="file-1"/>
						<name>bandicam 2025-06-02 00-01-10-144</name>
						<rate>
							<timebase>60</timebase>
							<ntsc>TRUE</ntsc>
						</rate>
						<rate>
							<timebase>60</timebase>
							<ntsc>TRUE</ntsc>
						</rate>
						<duration>12</duration>
						<start>2502</start>
						<end>2514</end>
						<in>2538</in>
						<out>2550</out>
					</clipitem>
					<clipitem frameBlend="FALSE" id="clipitem-1360">
						<file id="file-1"/>
						<name>bandicam 2025-06-02 00-01-10-144</name>
						<rate>
							<timebase>60</timebase>
							<ntsc>TRUE</ntsc>
						</rate>
						<rate>
							<timebase>60</timebase>
							<ntsc>TRUE</ntsc>
						</rate>
						<duration>6</duration>
						<start>2550</start>
						<end>2556</end>
						<in>2562</in>
						<out>2568</out>
					</clipitem>
					<clipitem frameBlend="FALSE" id="clipitem-1361">
						<file id="file-1"/>
						<name>bandicam 2025-06-02 00-01-10-144</name>
						<rate>
							<timebase>60</timebase>
							<ntsc>TRUE</ntsc>
						</rate>
						<rate>
							<timebase>60</timebase>
							<ntsc>TRUE</ntsc>
						</rate>
						<duration>36</duration>
						<start>2568</start>
						<end>2604</end>
						<in>2592</in>
						<out>2628</out>
					</clipitem>
					<clipitem frameBlend="FALSE" id="clipitem-1362">
						<file id="file-1"/>
						<name>bandicam 2025-06-02 00-01-10-144</name>
						<rate>
							<timebase>60</timebase>
							<ntsc>TRUE</ntsc>
						</rate>
						<rate>
							<timebase>60</timebase>
							<ntsc>TRUE</ntsc>
						</rate>
						<duration>24</duration>
						<start>2628</start>
						<end>2652</end>
						<in>2640</in>
						<out>2664</out>
					</clipitem>
					<clipitem frameBlend="FALSE" id="clipitem-1363">
						<file id="file-1"/>
						<name>bandicam 2025-06-02 00-01-10-144</name>
						<rate>
							<timebase>60</timebase>
							<ntsc>TRUE</ntsc>
						</rate>
						<rate>
							<timebase>60</timebase>
							<ntsc>TRUE</ntsc>
						</rate>
						<duration>114</duration>
						<start>2664</start>
						<end>2778</end>
						<in>2724</in>
						<out>2838</out>
					</clipitem>
					<clipitem frameBlend="FALSE" id="clipitem-1364">
						<file id="file-1"/>
						<name>bandicam 2025-06-02 00-01-10-144</name>
						<rate>
							<timebase>60</timebase>
							<ntsc>TRUE</ntsc>
						</rate>
						<rate>
							<timebase>60</timebase>
							<ntsc>TRUE</ntsc>
						</rate>
						<duration>18</duration>
						<start>2838</start>
						<end>2856</end>
						<in>2868</in>
						<out>2886</out>
					</clipitem>
					<clipitem frameBlend="FALSE" id="clipitem-1365">
						<file id="file-1"/>
						<name>bandicam 2025-06-02 00-01-10-144</name>
						<rate>
							<timebase>60</timebase>
							<ntsc>TRUE</ntsc>
						</rate>
						<rate>
							<timebase>60</timebase>
							<ntsc>TRUE</ntsc>
						</rate>
						<duration>6</duration>
						<start>2886</start>
						<end>2892</end>
						<in>2904</in>
						<out>2910</out>
					</clipitem>
					<clipitem frameBlend="FALSE" id="clipitem-1366">
						<file id="file-1"/>
						<name>bandicam 2025-06-02 00-01-10-144</name>
						<rate>
							<timebase>60</timebase>
							<ntsc>TRUE</ntsc>
						</rate>
						<rate>
							<timebase>60</timebase>
							<ntsc>TRUE</ntsc>
						</rate>
						<duration>0</duration>
						<start>2910</start>
						<end>2910</end>
						<in>2946</in>
						<out>2946</out>
					</clipitem>
					<clipitem frameBlend="FALSE" id="clipitem-1367">
						<file id="file-1"/>
						<name>bandicam 2025-06-02 00-01-10-144</name>
						<rate>
							<timebase>60</timebase>
							<ntsc>TRUE</ntsc>
						</rate>
						<rate>
							<timebase>60</timebase>
							<ntsc>TRUE</ntsc>
						</rate>
						<duration>12</duration>
						<start>2946</start>
						<end>2958</end>
						<in>2964</in>
						<out>2976</out>
					</clipitem>
					<clipitem frameBlend="FALSE" id="clipitem-1368">
						<file id="file-1"/>
						<name>bandicam 2025-06-02 00-01-10-144</name>
						<rate>
							<timebase>60</timebase>
							<ntsc>TRUE</ntsc>
						</rate>
						<rate>
							<timebase>60</timebase>
							<ntsc>TRUE</ntsc>
						</rate>
						<duration>42</duration>
						<start>2976</start>
						<end>3018</end>
						<in>3060</in>
						<out>3102</out>
					</clipitem>
					<clipitem frameBlend="FALSE" id="clipitem-1369">
						<file id="file-1"/>
						<name>bandicam 2025-06-02 00-01-10-144</name>
						<rate>
							<timebase>60</timebase>
							<ntsc>TRUE</ntsc>
						</rate>
						<rate>
							<timebase>60</timebase>
							<ntsc>TRUE</ntsc>
						</rate>
						<duration>18</duration>
						<start>3102</start>
						<end>3120</end>
						<in>3120</in>
						<out>3138</out>
					</clipitem>
					<clipitem frameBlend="FALSE" id="clipitem-1370">
						<file id="file-1"/>
						<name>bandicam 2025-06-02 00-01-10-144</name>
						<rate>
							<timebase>60</timebase>
							<ntsc>TRUE</ntsc>
						</rate>
						<rate>
							<timebase>60</timebase>
							<ntsc>TRUE</ntsc>
						</rate>
						<duration>12</duration>
						<start>3138</start>
						<end>3150</end>
						<in>3228</in>
						<out>3240</out>
					</clipitem>
					<clipitem frameBlend="FALSE" id="clipitem-1371">
						<file id="file-1"/>
						<name>bandicam 2025-06-02 00-01-10-144</name>
						<rate>
							<timebase>60</timebase>
							<ntsc>TRUE</ntsc>
						</rate>
						<rate>
							<timebase>60</timebase>
							<ntsc>TRUE</ntsc>
						</rate>
						<duration>24</duration>
						<start>3240</start>
						<end>3264</end>
						<in>3270</in>
						<out>3294</out>
					</clipitem>
					<clipitem frameBlend="FALSE" id="clipitem-1372">
						<file id="file-1"/>
						<name>bandicam 2025-06-02 00-01-10-144</name>
						<rate>
							<timebase>60</timebase>
							<ntsc>TRUE</ntsc>
						</rate>
						<rate>
							<timebase>60</timebase>
							<ntsc>TRUE</ntsc>
						</rate>
						<duration>0</duration>
						<start>3294</start>
						<end>3294</end>
						<in>3306</in>
						<out>3306</out>
					</clipitem>
					<clipitem frameBlend="FALSE" id="clipitem-1373">
						<file id="file-1"/>
						<name>bandicam 2025-06-02 00-01-10-144</name>
						<rate>
							<timebase>60</timebase>
							<ntsc>TRUE</ntsc>
						</rate>
						<rate>
							<timebase>60</timebase>
							<ntsc>TRUE</ntsc>
						</rate>
						<duration>12</duration>
						<start>3306</start>
						<end>3318</end>
						<in>3372</in>
						<out>3384</out>
					</clipitem>
					<clipitem frameBlend="FALSE" id="clipitem-1374">
						<file id="file-1"/>
						<name>bandicam 2025-06-02 00-01-10-144</name>
						<rate>
							<timebase>60</timebase>
							<ntsc>TRUE</ntsc>
						</rate>
						<rate>
							<timebase>60</timebase>
							<ntsc>TRUE</ntsc>
						</rate>
						<duration>24</duration>
						<start>3384</start>
						<end>3408</end>
						<in>3450</in>
						<out>3474</out>
					</clipitem>
					<clipitem frameBlend="FALSE" id="clipitem-1375">
						<file id="file-1"/>
						<name>bandicam 2025-06-02 00-01-10-144</name>
						<rate>
							<timebase>60</timebase>
							<ntsc>TRUE</ntsc>
						</rate>
						<rate>
							<timebase>60</timebase>
							<ntsc>TRUE</ntsc>
						</rate>
						<duration>12</duration>
						<start>3474</start>
						<end>3486</end>
						<in>3498</in>
						<out>3510</out>
					</clipitem>
					<clipitem frameBlend="FALSE" id="clipitem-1376">
						<file id="file-1"/>
						<name>bandicam 2025-06-02 00-01-10-144</name>
						<rate>
							<timebase>60</timebase>
							<ntsc>TRUE</ntsc>
						</rate>
						<rate>
							<timebase>60</timebase>
							<ntsc>TRUE</ntsc>
						</rate>
						<duration>0</duration>
						<start>3510</start>
						<end>3510</end>
						<in>3582</in>
						<out>3582</out>
					</clipitem>
					<clipitem frameBlend="FALSE" id="clipitem-1377">
						<file id="file-1"/>
						<name>bandicam 2025-06-02 00-01-10-144</name>
						<rate>
							<timebase>60</timebase>
							<ntsc>TRUE</ntsc>
						</rate>
						<rate>
							<timebase>60</timebase>
							<ntsc>TRUE</ntsc>
						</rate>
						<duration>18</duration>
						<start>3582</start>
						<end>3600</end>
						<in>3624</in>
						<out>3642</out>
					</clipitem>
					<clipitem frameBlend="FALSE" id="clipitem-1378">
						<file id="file-1"/>
						<name>bandicam 2025-06-02 00-01-10-144</name>
						<rate>
							<timebase>60</timebase>
							<ntsc>TRUE</ntsc>
						</rate>
						<rate>
							<timebase>60</timebase>
							<ntsc>TRUE</ntsc>
						</rate>
						<duration>0</duration>
						<start>3642</start>
						<end>3642</end>
						<in>3696</in>
						<out>3696</out>
					</clipitem>
					<clipitem frameBlend="FALSE" id="clipitem-1379">
						<file id="file-1"/>
						<name>bandicam 2025-06-02 00-01-10-144</name>
						<rate>
							<timebase>60</timebase>
							<ntsc>TRUE</ntsc>
						</rate>
						<rate>
							<timebase>60</timebase>
							<ntsc>TRUE</ntsc>
						</rate>
						<duration>12</duration>
						<start>3696</start>
						<end>3708</end>
						<in>3768</in>
						<out>3780</out>
					</clipitem>
					<clipitem frameBlend="FALSE" id="clipitem-1380">
						<file id="file-1"/>
						<name>bandicam 2025-06-02 00-01-10-144</name>
						<rate>
							<timebase>60</timebase>
							<ntsc>TRUE</ntsc>
						</rate>
						<rate>
							<timebase>60</timebase>
							<ntsc>TRUE</ntsc>
						</rate>
						<duration>12</duration>
						<start>3780</start>
						<end>3792</end>
						<in>3852</in>
						<out>3864</out>
					</clipitem>
					<clipitem frameBlend="FALSE" id="clipitem-1381">
						<file id="file-1"/>
						<name>bandicam 2025-06-02 00-01-10-144</name>
						<rate>
							<timebase>60</timebase>
							<ntsc>TRUE</ntsc>
						</rate>
						<rate>
							<timebase>60</timebase>
							<ntsc>TRUE</ntsc>
						</rate>
						<duration>12</duration>
						<start>3864</start>
						<end>3876</end>
						<in>3906</in>
						<out>3918</out>
					</clipitem>
					<clipitem frameBlend="FALSE" id="clipitem-1382">
						<file id="file-1"/>
						<name>bandicam 2025-06-02 00-01-10-144</name>
						<rate>
							<timebase>60</timebase>
							<ntsc>TRUE</ntsc>
						</rate>
						<rate>
							<timebase>60</timebase>
							<ntsc>TRUE</ntsc>
						</rate>
						<duration>6</duration>
						<start>3918</start>
						<end>3924</end>
						<in>4026</in>
						<out>4032</out>
					</clipitem>
					<clipitem frameBlend="FALSE" id="clipitem-1383">
						<file id="file-1"/>
						<name>bandicam 2025-06-02 00-01-10-144</name>
						<rate>
							<timebase>60</timebase>
							<ntsc>TRUE</ntsc>
						</rate>
						<rate>
							<timebase>60</timebase>
							<ntsc>TRUE</ntsc>
						</rate>
						<duration>0</duration>
						<start>4032</start>
						<end>4032</end>
						<in>4044</in>
						<out>4044</out>
					</clipitem>
					<clipitem frameBlend="FALSE" id="clipitem-1384">
						<file id="file-1"/>
						<name>bandicam 2025-06-02 00-01-10-144</name>
						<rate>
							<timebase>60</timebase>
							<ntsc>TRUE</ntsc>
						</rate>
						<rate>
							<timebase>60</timebase>
							<ntsc>TRUE</ntsc>
						</rate>
						<duration>24</duration>
						<start>4044</start>
						<end>4068</end>
						<in>4086</in>
						<out>4110</out>
					</clipitem>
					<clipitem frameBlend="FALSE" id="clipitem-1385">
						<file id="file-1"/>
						<name>bandicam 2025-06-02 00-01-10-144</name>
						<rate>
							<timebase>60</timebase>
							<ntsc>TRUE</ntsc>
						</rate>
						<rate>
							<timebase>60</timebase>
							<ntsc>TRUE</ntsc>
						</rate>
						<duration>24</duration>
						<start>4110</start>
						<end>4134</end>
						<in>4128</in>
						<out>4152</out>
					</clipitem>
					<clipitem frameBlend="FALSE" id="clipitem-1386">
						<file id="file-1"/>
						<name>bandicam 2025-06-02 00-01-10-144</name>
						<rate>
							<timebase>60</timebase>
							<ntsc>TRUE</ntsc>
						</rate>
						<rate>
							<timebase>60</timebase>
							<ntsc>TRUE</ntsc>
						</rate>
						<duration>12</duration>
						<start>4152</start>
						<end>4164</end>
						<in>4188</in>
						<out>4200</out>
					</clipitem>
					<clipitem frameBlend="FALSE" id="clipitem-1387">
						<file id="file-1"/>
						<name>bandicam 2025-06-02 00-01-10-144</name>
						<rate>
							<timebase>60</timebase>
							<ntsc>TRUE</ntsc>
						</rate>
						<rate>
							<timebase>60</timebase>
							<ntsc>TRUE</ntsc>
						</rate>
						<duration>36</duration>
						<start>4200</start>
						<end>4236</end>
						<in>4230</in>
						<out>4266</out>
					</clipitem>
					<clipitem frameBlend="FALSE" id="clipitem-1388">
						<file id="file-1"/>
						<name>bandicam 2025-06-02 00-01-10-144</name>
						<rate>
							<timebase>60</timebase>
							<ntsc>TRUE</ntsc>
						</rate>
						<rate>
							<timebase>60</timebase>
							<ntsc>TRUE</ntsc>
						</rate>
						<duration>132</duration>
						<start>4266</start>
						<end>4398</end>
						<in>4302</in>
						<out>4434</out>
					</clipitem>
					<clipitem frameBlend="FALSE" id="clipitem-1389">
						<file id="file-1"/>
						<name>bandicam 2025-06-02 00-01-10-144</name>
						<rate>
							<timebase>60</timebase>
							<ntsc>TRUE</ntsc>
						</rate>
						<rate>
							<timebase>60</timebase>
							<ntsc>TRUE</ntsc>
						</rate>
						<duration>12</duration>
						<start>4434</start>
						<end>4446</end>
						<in>4470</in>
						<out>4482</out>
					</clipitem>
					<clipitem frameBlend="FALSE" id="clipitem-1390">
						<file id="file-1"/>
						<name>bandicam 2025-06-02 00-01-10-144</name>
						<rate>
							<timebase>60</timebase>
							<ntsc>TRUE</ntsc>
						</rate>
						<rate>
							<timebase>60</timebase>
							<ntsc>TRUE</ntsc>
						</rate>
						<duration>48</duration>
						<start>4482</start>
						<end>4530</end>
						<in>4506</in>
						<out>4554</out>
					</clipitem>
					<clipitem frameBlend="FALSE" id="clipitem-1391">
						<file id="file-1"/>
						<name>bandicam 2025-06-02 00-01-10-144</name>
						<rate>
							<timebase>60</timebase>
							<ntsc>TRUE</ntsc>
						</rate>
						<rate>
							<timebase>60</timebase>
							<ntsc>TRUE</ntsc>
						</rate>
						<duration>30</duration>
						<start>4554</start>
						<end>4584</end>
						<in>4602</in>
						<out>4632</out>
					</clipitem>
					<clipitem frameBlend="FALSE" id="clipitem-1392">
						<file id="file-1"/>
						<name>bandicam 2025-06-02 00-01-10-144</name>
						<rate>
							<timebase>60</timebase>
							<ntsc>TRUE</ntsc>
						</rate>
						<rate>
							<timebase>60</timebase>
							<ntsc>TRUE</ntsc>
						</rate>
						<duration>12</duration>
						<start>4632</start>
						<end>4644</end>
						<in>4650</in>
						<out>4662</out>
					</clipitem>
					<clipitem frameBlend="FALSE" id="clipitem-1393">
						<file id="file-1"/>
						<name>bandicam 2025-06-02 00-01-10-144</name>
						<rate>
							<timebase>60</timebase>
							<ntsc>TRUE</ntsc>
						</rate>
						<rate>
							<timebase>60</timebase>
							<ntsc>TRUE</ntsc>
						</rate>
						<duration>0</duration>
						<start>4662</start>
						<end>4662</end>
						<in>4704</in>
						<out>4704</out>
					</clipitem>
					<clipitem frameBlend="FALSE" id="clipitem-1394">
						<file id="file-1"/>
						<name>bandicam 2025-06-02 00-01-10-144</name>
						<rate>
							<timebase>60</timebase>
							<ntsc>TRUE</ntsc>
						</rate>
						<rate>
							<timebase>60</timebase>
							<ntsc>TRUE</ntsc>
						</rate>
						<duration>48</duration>
						<start>4704</start>
						<end>4752</end>
						<in>4722</in>
						<out>4770</out>
					</clipitem>
					<clipitem frameBlend="FALSE" id="clipitem-1395">
						<file id="file-1"/>
						<name>bandicam 2025-06-02 00-01-10-144</name>
						<rate>
							<timebase>60</timebase>
							<ntsc>TRUE</ntsc>
						</rate>
						<rate>
							<timebase>60</timebase>
							<ntsc>TRUE</ntsc>
						</rate>
						<duration>12</duration>
						<start>4770</start>
						<end>4782</end>
						<in>4788</in>
						<out>4800</out>
					</clipitem>
					<clipitem frameBlend="FALSE" id="clipitem-1396">
						<file id="file-1"/>
						<name>bandicam 2025-06-02 00-01-10-144</name>
						<rate>
							<timebase>60</timebase>
							<ntsc>TRUE</ntsc>
						</rate>
						<rate>
							<timebase>60</timebase>
							<ntsc>TRUE</ntsc>
						</rate>
						<duration>0</duration>
						<start>4800</start>
						<end>4800</end>
						<in>4848</in>
						<out>4848</out>
					</clipitem>
					<clipitem frameBlend="FALSE" id="clipitem-1397">
						<file id="file-1"/>
						<name>bandicam 2025-06-02 00-01-10-144</name>
						<rate>
							<timebase>60</timebase>
							<ntsc>TRUE</ntsc>
						</rate>
						<rate>
							<timebase>60</timebase>
							<ntsc>TRUE</ntsc>
						</rate>
						<duration>12</duration>
						<start>4848</start>
						<end>4860</end>
						<in>4860</in>
						<out>4872</out>
					</clipitem>
					<clipitem frameBlend="FALSE" id="clipitem-1398">
						<file id="file-1"/>
						<name>bandicam 2025-06-02 00-01-10-144</name>
						<rate>
							<timebase>60</timebase>
							<ntsc>TRUE</ntsc>
						</rate>
						<rate>
							<timebase>60</timebase>
							<ntsc>TRUE</ntsc>
						</rate>
						<duration>6</duration>
						<start>4872</start>
						<end>4878</end>
						<in>4890</in>
						<out>4896</out>
					</clipitem>
					<clipitem frameBlend="FALSE" id="clipitem-1399">
						<file id="file-1"/>
						<name>bandicam 2025-06-02 00-01-10-144</name>
						<rate>
							<timebase>60</timebase>
							<ntsc>TRUE</ntsc>
						</rate>
						<rate>
							<timebase>60</timebase>
							<ntsc>TRUE</ntsc>
						</rate>
						<duration>12</duration>
						<start>4896</start>
						<end>4908</end>
						<in>4908</in>
						<out>4920</out>
					</clipitem>
					<clipitem frameBlend="FALSE" id="clipitem-1400">
						<file id="file-1"/>
						<name>bandicam 2025-06-02 00-01-10-144</name>
						<rate>
							<timebase>60</timebase>
							<ntsc>TRUE</ntsc>
						</rate>
						<rate>
							<timebase>60</timebase>
							<ntsc>TRUE</ntsc>
						</rate>
						<duration>12</duration>
						<start>4920</start>
						<end>4932</end>
						<in>4944</in>
						<out>4956</out>
					</clipitem>
					<clipitem frameBlend="FALSE" id="clipitem-1401">
						<file id="file-1"/>
						<name>bandicam 2025-06-02 00-01-10-144</name>
						<rate>
							<timebase>60</timebase>
							<ntsc>TRUE</ntsc>
						</rate>
						<rate>
							<timebase>60</timebase>
							<ntsc>TRUE</ntsc>
						</rate>
						<duration>6</duration>
						<start>4956</start>
						<end>4962</end>
						<in>4968</in>
						<out>4974</out>
					</clipitem>
					<clipitem frameBlend="FALSE" id="clipitem-1402">
						<file id="file-1"/>
						<name>bandicam 2025-06-02 00-01-10-144</name>
						<rate>
							<timebase>60</timebase>
							<ntsc>TRUE</ntsc>
						</rate>
						<rate>
							<timebase>60</timebase>
							<ntsc>TRUE</ntsc>
						</rate>
						<duration>12</duration>
						<start>4974</start>
						<end>4986</end>
						<in>5022</in>
						<out>5034</out>
					</clipitem>
					<clipitem frameBlend="FALSE" id="clipitem-1403">
						<file id="file-1"/>
						<name>bandicam 2025-06-02 00-01-10-144</name>
						<rate>
							<timebase>60</timebase>
							<ntsc>TRUE</ntsc>
						</rate>
						<rate>
							<timebase>60</timebase>
							<ntsc>TRUE</ntsc>
						</rate>
						<duration>6</duration>
						<start>5034</start>
						<end>5040</end>
						<in>5064</in>
						<out>5070</out>
					</clipitem>
					<clipitem frameBlend="FALSE" id="clipitem-1404">
						<file id="file-1"/>
						<name>bandicam 2025-06-02 00-01-10-144</name>
						<rate>
							<timebase>60</timebase>
							<ntsc>TRUE</ntsc>
						</rate>
						<rate>
							<timebase>60</timebase>
							<ntsc>TRUE</ntsc>
						</rate>
						<duration>0</duration>
						<start>5070</start>
						<end>5070</end>
						<in>5082</in>
						<out>5082</out>
					</clipitem>
					<clipitem frameBlend="FALSE" id="clipitem-1405">
						<file id="file-1"/>
						<name>bandicam 2025-06-02 00-01-10-144</name>
						<rate>
							<timebase>60</timebase>
							<ntsc>TRUE</ntsc>
						</rate>
						<rate>
							<timebase>60</timebase>
							<ntsc>TRUE</ntsc>
						</rate>
						<duration>84</duration>
						<start>5082</start>
						<end>5166</end>
						<in>5094</in>
						<out>5178</out>
					</clipitem>
					<clipitem frameBlend="FALSE" id="clipitem-1406">
						<file id="file-1"/>
						<name>bandicam 2025-06-02 00-01-10-144</name>
						<rate>
							<timebase>60</timebase>
							<ntsc>TRUE</ntsc>
						</rate>
						<rate>
							<timebase>60</timebase>
							<ntsc>TRUE</ntsc>
						</rate>
						<duration>18</duration>
						<start>5178</start>
						<end>5196</end>
						<in>5232</in>
						<out>5250</out>
					</clipitem>
					<clipitem frameBlend="FALSE" id="clipitem-1407">
						<file id="file-1"/>
						<name>bandicam 2025-06-02 00-01-10-144</name>
						<rate>
							<timebase>60</timebase>
							<ntsc>TRUE</ntsc>
						</rate>
						<rate>
							<timebase>60</timebase>
							<ntsc>TRUE</ntsc>
						</rate>
						<duration>12</duration>
						<start>5250</start>
						<end>5262</end>
						<in>5328</in>
						<out>5340</out>
					</clipitem>
					<clipitem frameBlend="FALSE" id="clipitem-1408">
						<file id="file-1"/>
						<name>bandicam 2025-06-02 00-01-10-144</name>
						<rate>
							<timebase>60</timebase>
							<ntsc>TRUE</ntsc>
						</rate>
						<rate>
							<timebase>60</timebase>
							<ntsc>TRUE</ntsc>
						</rate>
						<duration>12</duration>
						<start>5340</start>
						<end>5352</end>
						<in>5382</in>
						<out>5394</out>
					</clipitem>
					<clipitem frameBlend="FALSE" id="clipitem-1409">
						<file id="file-1"/>
						<name>bandicam 2025-06-02 00-01-10-144</name>
						<rate>
							<timebase>60</timebase>
							<ntsc>TRUE</ntsc>
						</rate>
						<rate>
							<timebase>60</timebase>
							<ntsc>TRUE</ntsc>
						</rate>
						<duration>36</duration>
						<start>5394</start>
						<end>5430</end>
						<in>5412</in>
						<out>5448</out>
					</clipitem>
					<clipitem frameBlend="FALSE" id="clipitem-1410">
						<file id="file-1"/>
						<name>bandicam 2025-06-02 00-01-10-144</name>
						<rate>
							<timebase>60</timebase>
							<ntsc>TRUE</ntsc>
						</rate>
						<rate>
							<timebase>60</timebase>
							<ntsc>TRUE</ntsc>
						</rate>
						<duration>0</duration>
						<start>5448</start>
						<end>5448</end>
						<in>5466</in>
						<out>5466</out>
					</clipitem>
					<clipitem frameBlend="FALSE" id="clipitem-1411">
						<file id="file-1"/>
						<name>bandicam 2025-06-02 00-01-10-144</name>
						<rate>
							<timebase>60</timebase>
							<ntsc>TRUE</ntsc>
						</rate>
						<rate>
							<timebase>60</timebase>
							<ntsc>TRUE</ntsc>
						</rate>
						<duration>12</duration>
						<start>5466</start>
						<end>5478</end>
						<in>5490</in>
						<out>5502</out>
					</clipitem>
					<clipitem frameBlend="FALSE" id="clipitem-1412">
						<file id="file-1"/>
						<name>bandicam 2025-06-02 00-01-10-144</name>
						<rate>
							<timebase>60</timebase>
							<ntsc>TRUE</ntsc>
						</rate>
						<rate>
							<timebase>60</timebase>
							<ntsc>TRUE</ntsc>
						</rate>
						<duration>0</duration>
						<start>5502</start>
						<end>5502</end>
						<in>5520</in>
						<out>5520</out>
					</clipitem>
					<clipitem frameBlend="FALSE" id="clipitem-1413">
						<file id="file-1"/>
						<name>bandicam 2025-06-02 00-01-10-144</name>
						<rate>
							<timebase>60</timebase>
							<ntsc>TRUE</ntsc>
						</rate>
						<rate>
							<timebase>60</timebase>
							<ntsc>TRUE</ntsc>
						</rate>
						<duration>0</duration>
						<start>5520</start>
						<end>5520</end>
						<in>5532</in>
						<out>5532</out>
					</clipitem>
					<clipitem frameBlend="FALSE" id="clipitem-1414">
						<file id="file-1"/>
						<name>bandicam 2025-06-02 00-01-10-144</name>
						<rate>
							<timebase>60</timebase>
							<ntsc>TRUE</ntsc>
						</rate>
						<rate>
							<timebase>60</timebase>
							<ntsc>TRUE</ntsc>
						</rate>
						<duration>6</duration>
						<start>5532</start>
						<end>5538</end>
						<in>5544</in>
						<out>5550</out>
					</clipitem>
					<clipitem frameBlend="FALSE" id="clipitem-1415">
						<file id="file-1"/>
						<name>bandicam 2025-06-02 00-01-10-144</name>
						<rate>
							<timebase>60</timebase>
							<ntsc>TRUE</ntsc>
						</rate>
						<rate>
							<timebase>60</timebase>
							<ntsc>TRUE</ntsc>
						</rate>
						<duration>12</duration>
						<start>5550</start>
						<end>5562</end>
						<in>5580</in>
						<out>5592</out>
					</clipitem>
					<clipitem frameBlend="FALSE" id="clipitem-1416">
						<file id="file-1"/>
						<name>bandicam 2025-06-02 00-01-10-144</name>
						<rate>
							<timebase>60</timebase>
							<ntsc>TRUE</ntsc>
						</rate>
						<rate>
							<timebase>60</timebase>
							<ntsc>TRUE</ntsc>
						</rate>
						<duration>12</duration>
						<start>5592</start>
						<end>5604</end>
						<in>5628</in>
						<out>5640</out>
					</clipitem>
					<clipitem frameBlend="FALSE" id="clipitem-1417">
						<file id="file-1"/>
						<name>bandicam 2025-06-02 00-01-10-144</name>
						<rate>
							<timebase>60</timebase>
							<ntsc>TRUE</ntsc>
						</rate>
						<rate>
							<timebase>60</timebase>
							<ntsc>TRUE</ntsc>
						</rate>
						<duration>30</duration>
						<start>5640</start>
						<end>5670</end>
						<in>5664</in>
						<out>5694</out>
					</clipitem>
					<clipitem frameBlend="FALSE" id="clipitem-1418">
						<file id="file-1"/>
						<name>bandicam 2025-06-02 00-01-10-144</name>
						<rate>
							<timebase>60</timebase>
							<ntsc>TRUE</ntsc>
						</rate>
						<rate>
							<timebase>60</timebase>
							<ntsc>TRUE</ntsc>
						</rate>
						<duration>0</duration>
						<start>5694</start>
						<end>5694</end>
						<in>5724</in>
						<out>5724</out>
					</clipitem>
					<clipitem frameBlend="FALSE" id="clipitem-1419">
						<file id="file-1"/>
						<name>bandicam 2025-06-02 00-01-10-144</name>
						<rate>
							<timebase>60</timebase>
							<ntsc>TRUE</ntsc>
						</rate>
						<rate>
							<timebase>60</timebase>
							<ntsc>TRUE</ntsc>
						</rate>
						<duration>24</duration>
						<start>5724</start>
						<end>5748</end>
						<in>5754</in>
						<out>5778</out>
					</clipitem>
					<clipitem frameBlend="FALSE" id="clipitem-1420">
						<file id="file-1"/>
						<name>bandicam 2025-06-02 00-01-10-144</name>
						<rate>
							<timebase>60</timebase>
							<ntsc>TRUE</ntsc>
						</rate>
						<rate>
							<timebase>60</timebase>
							<ntsc>TRUE</ntsc>
						</rate>
						<duration>90</duration>
						<start>5778</start>
						<end>5868</end>
						<in>5802</in>
						<out>5892</out>
					</clipitem>
					<clipitem frameBlend="FALSE" id="clipitem-1421">
						<file id="file-1"/>
						<name>bandicam 2025-06-02 00-01-10-144</name>
						<rate>
							<timebase>60</timebase>
							<ntsc>TRUE</ntsc>
						</rate>
						<rate>
							<timebase>60</timebase>
							<ntsc>TRUE</ntsc>
						</rate>
						<duration>66</duration>
						<start>5892</start>
						<end>5958</end>
						<in>5910</in>
						<out>5976</out>
					</clipitem>
					<clipitem frameBlend="FALSE" id="clipitem-1422">
						<file id="file-1"/>
						<name>bandicam 2025-06-02 00-01-10-144</name>
						<rate>
							<timebase>60</timebase>
							<ntsc>TRUE</ntsc>
						</rate>
						<rate>
							<timebase>60</timebase>
							<ntsc>TRUE</ntsc>
						</rate>
						<duration>36</duration>
						<start>5976</start>
						<end>6012</end>
						<in>6000</in>
						<out>6036</out>
					</clipitem>
					<clipitem frameBlend="FALSE" id="clipitem-1423">
						<file id="file-1"/>
						<name>bandicam 2025-06-02 00-01-10-144</name>
						<rate>
							<timebase>60</timebase>
							<ntsc>TRUE</ntsc>
						</rate>
						<rate>
							<timebase>60</timebase>
							<ntsc>TRUE</ntsc>
						</rate>
						<duration>12</duration>
						<start>6036</start>
						<end>6048</end>
						<in>6054</in>
						<out>6066</out>
					</clipitem>
					<clipitem frameBlend="FALSE" id="clipitem-1424">
						<file id="file-1"/>
						<name>bandicam 2025-06-02 00-01-10-144</name>
						<rate>
							<timebase>60</timebase>
							<ntsc>TRUE</ntsc>
						</rate>
						<rate>
							<timebase>60</timebase>
							<ntsc>TRUE</ntsc>
						</rate>
						<duration>0</duration>
						<start>6066</start>
						<end>6066</end>
						<in>6132</in>
						<out>6132</out>
					</clipitem>
					<clipitem frameBlend="FALSE" id="clipitem-1425">
						<file id="file-1"/>
						<name>bandicam 2025-06-02 00-01-10-144</name>
						<rate>
							<timebase>60</timebase>
							<ntsc>TRUE</ntsc>
						</rate>
						<rate>
							<timebase>60</timebase>
							<ntsc>TRUE</ntsc>
						</rate>
						<duration>48</duration>
						<start>6132</start>
						<end>6180</end>
						<in>6156</in>
						<out>6204</out>
					</clipitem>
					<clipitem frameBlend="FALSE" id="clipitem-1426">
						<file id="file-1"/>
						<name>bandicam 2025-06-02 00-01-10-144</name>
						<rate>
							<timebase>60</timebase>
							<ntsc>TRUE</ntsc>
						</rate>
						<rate>
							<timebase>60</timebase>
							<ntsc>TRUE</ntsc>
						</rate>
						<duration>30</duration>
						<start>6204</start>
						<end>6234</end>
						<in>6222</in>
						<out>6252</out>
					</clipitem>
					<clipitem frameBlend="FALSE" id="clipitem-1427">
						<file id="file-1"/>
						<name>bandicam 2025-06-02 00-01-10-144</name>
						<rate>
							<timebase>60</timebase>
							<ntsc>TRUE</ntsc>
						</rate>
						<rate>
							<timebase>60</timebase>
							<ntsc>TRUE</ntsc>
						</rate>
						<duration>0</duration>
						<start>6252</start>
						<end>6252</end>
						<in>6282</in>
						<out>6282</out>
					</clipitem>
					<clipitem frameBlend="FALSE" id="clipitem-1428">
						<file id="file-1"/>
						<name>bandicam 2025-06-02 00-01-10-144</name>
						<rate>
							<timebase>60</timebase>
							<ntsc>TRUE</ntsc>
						</rate>
						<rate>
							<timebase>60</timebase>
							<ntsc>TRUE</ntsc>
						</rate>
						<duration>12</duration>
						<start>6282</start>
						<end>6294</end>
						<in>6312</in>
						<out>6324</out>
					</clipitem>
					<clipitem frameBlend="FALSE" id="clipitem-1429">
						<file id="file-1"/>
						<name>bandicam 2025-06-02 00-01-10-144</name>
						<rate>
							<timebase>60</timebase>
							<ntsc>TRUE</ntsc>
						</rate>
						<rate>
							<timebase>60</timebase>
							<ntsc>TRUE</ntsc>
						</rate>
						<duration>12</duration>
						<start>6324</start>
						<end>6336</end>
						<in>6384</in>
						<out>6396</out>
					</clipitem>
					<clipitem frameBlend="FALSE" id="clipitem-1430">
						<file id="file-1"/>
						<name>bandicam 2025-06-02 00-01-10-144</name>
						<rate>
							<timebase>60</timebase>
							<ntsc>TRUE</ntsc>
						</rate>
						<rate>
							<timebase>60</timebase>
							<ntsc>TRUE</ntsc>
						</rate>
						<duration>12</duration>
						<start>6396</start>
						<end>6408</end>
						<in>6432</in>
						<out>6444</out>
					</clipitem>
					<clipitem frameBlend="FALSE" id="clipitem-1431">
						<file id="file-1"/>
						<name>bandicam 2025-06-02 00-01-10-144</name>
						<rate>
							<timebase>60</timebase>
							<ntsc>TRUE</ntsc>
						</rate>
						<rate>
							<timebase>60</timebase>
							<ntsc>TRUE</ntsc>
						</rate>
						<duration>0</duration>
						<start>6444</start>
						<end>6444</end>
						<in>6486</in>
						<out>6486</out>
					</clipitem>
					<clipitem frameBlend="FALSE" id="clipitem-1432">
						<file id="file-1"/>
						<name>bandicam 2025-06-02 00-01-10-144</name>
						<rate>
							<timebase>60</timebase>
							<ntsc>TRUE</ntsc>
						</rate>
						<rate>
							<timebase>60</timebase>
							<ntsc>TRUE</ntsc>
						</rate>
						<duration>36</duration>
						<start>6486</start>
						<end>6522</end>
						<in>6498</in>
						<out>6534</out>
					</clipitem>
					<clipitem frameBlend="FALSE" id="clipitem-1433">
						<file id="file-1"/>
						<name>bandicam 2025-06-02 00-01-10-144</name>
						<rate>
							<timebase>60</timebase>
							<ntsc>TRUE</ntsc>
						</rate>
						<rate>
							<timebase>60</timebase>
							<ntsc>TRUE</ntsc>
						</rate>
						<duration>6</duration>
						<start>6534</start>
						<end>6540</end>
						<in>6576</in>
						<out>6582</out>
					</clipitem>
					<clipitem frameBlend="FALSE" id="clipitem-1434">
						<file id="file-1"/>
						<name>bandicam 2025-06-02 00-01-10-144</name>
						<rate>
							<timebase>60</timebase>
							<ntsc>TRUE</ntsc>
						</rate>
						<rate>
							<timebase>60</timebase>
							<ntsc>TRUE</ntsc>
						</rate>
						<duration>12</duration>
						<start>6582</start>
						<end>6594</end>
						<in>6612</in>
						<out>6624</out>
					</clipitem>
					<clipitem frameBlend="FALSE" id="clipitem-1435">
						<file id="file-1"/>
						<name>bandicam 2025-06-02 00-01-10-144</name>
						<rate>
							<timebase>60</timebase>
							<ntsc>TRUE</ntsc>
						</rate>
						<rate>
							<timebase>60</timebase>
							<ntsc>TRUE</ntsc>
						</rate>
						<duration>12</duration>
						<start>6624</start>
						<end>6636</end>
						<in>6750</in>
						<out>6762</out>
					</clipitem>
					<clipitem frameBlend="FALSE" id="clipitem-1436">
						<file id="file-1"/>
						<name>bandicam 2025-06-02 00-01-10-144</name>
						<rate>
							<timebase>60</timebase>
							<ntsc>TRUE</ntsc>
						</rate>
						<rate>
							<timebase>60</timebase>
							<ntsc>TRUE</ntsc>
						</rate>
						<duration>6</duration>
						<start>6762</start>
						<end>6768</end>
						<in>6810</in>
						<out>6816</out>
					</clipitem>
					<clipitem frameBlend="FALSE" id="clipitem-1437">
						<file id="file-1"/>
						<name>bandicam 2025-06-02 00-01-10-144</name>
						<rate>
							<timebase>60</timebase>
							<ntsc>TRUE</ntsc>
						</rate>
						<rate>
							<timebase>60</timebase>
							<ntsc>TRUE</ntsc>
						</rate>
						<duration>12</duration>
						<start>6816</start>
						<end>6828</end>
						<in>6828</in>
						<out>6840</out>
					</clipitem>
					<clipitem frameBlend="FALSE" id="clipitem-1438">
						<file id="file-1"/>
						<name>bandicam 2025-06-02 00-01-10-144</name>
						<rate>
							<timebase>60</timebase>
							<ntsc>TRUE</ntsc>
						</rate>
						<rate>
							<timebase>60</timebase>
							<ntsc>TRUE</ntsc>
						</rate>
						<duration>6</duration>
						<start>6840</start>
						<end>6846</end>
						<in>6894</in>
						<out>6900</out>
					</clipitem>
					<clipitem frameBlend="FALSE" id="clipitem-1439">
						<file id="file-1"/>
						<name>bandicam 2025-06-02 00-01-10-144</name>
						<rate>
							<timebase>60</timebase>
							<ntsc>TRUE</ntsc>
						</rate>
						<rate>
							<timebase>60</timebase>
							<ntsc>TRUE</ntsc>
						</rate>
						<duration>12</duration>
						<start>6900</start>
						<end>6912</end>
						<in>6912</in>
						<out>6924</out>
					</clipitem>
					<clipitem frameBlend="FALSE" id="clipitem-1440">
						<file id="file-1"/>
						<name>bandicam 2025-06-02 00-01-10-144</name>
						<rate>
							<timebase>60</timebase>
							<ntsc>TRUE</ntsc>
						</rate>
						<rate>
							<timebase>60</timebase>
							<ntsc>TRUE</ntsc>
						</rate>
						<duration>0</duration>
						<start>6924</start>
						<end>6924</end>
						<in>6954</in>
						<out>6954</out>
					</clipitem>
					<clipitem frameBlend="FALSE" id="clipitem-1441">
						<file id="file-1"/>
						<name>bandicam 2025-06-02 00-01-10-144</name>
						<rate>
							<timebase>60</timebase>
							<ntsc>TRUE</ntsc>
						</rate>
						<rate>
							<timebase>60</timebase>
							<ntsc>TRUE</ntsc>
						</rate>
						<duration>0</duration>
						<start>6954</start>
						<end>6954</end>
						<in>7002</in>
						<out>7002</out>
					</clipitem>
					<clipitem frameBlend="FALSE" id="clipitem-1442">
						<file id="file-1"/>
						<name>bandicam 2025-06-02 00-01-10-144</name>
						<rate>
							<timebase>60</timebase>
							<ntsc>TRUE</ntsc>
						</rate>
						<rate>
							<timebase>60</timebase>
							<ntsc>TRUE</ntsc>
						</rate>
						<duration>12</duration>
						<start>7002</start>
						<end>7014</end>
						<in>7026</in>
						<out>7038</out>
					</clipitem>
					<clipitem frameBlend="FALSE" id="clipitem-1443">
						<file id="file-1"/>
						<name>bandicam 2025-06-02 00-01-10-144</name>
						<rate>
							<timebase>60</timebase>
							<ntsc>TRUE</ntsc>
						</rate>
						<rate>
							<timebase>60</timebase>
							<ntsc>TRUE</ntsc>
						</rate>
						<duration>30</duration>
						<start>7038</start>
						<end>7068</end>
						<in>12</in>
						<out>42</out>
					</clipitem>
					<clipitem frameBlend="FALSE" id="clipitem-1444">
						<file id="file-1"/>
						<name>bandicam 2025-06-02 00-01-10-144</name>
						<rate>
							<timebase>60</timebase>
							<ntsc>TRUE</ntsc>
						</rate>
						<rate>
							<timebase>60</timebase>
							<ntsc>TRUE</ntsc>
						</rate>
						<duration>36</duration>
						<start>42</start>
						<end>78</end>
						<in>54</in>
						<out>90</out>
					</clipitem>
					<clipitem frameBlend="FALSE" id="clipitem-1445">
						<file id="file-1"/>
						<name>bandicam 2025-06-02 00-01-10-144</name>
						<rate>
							<timebase>60</timebase>
							<ntsc>TRUE</ntsc>
						</rate>
						<rate>
							<timebase>60</timebase>
							<ntsc>TRUE</ntsc>
						</rate>
						<duration>18</duration>
						<start>90</start>
						<end>108</end>
						<in>108</in>
						<out>126</out>
					</clipitem>
					<clipitem frameBlend="FALSE" id="clipitem-1446">
						<file id="file-1"/>
						<name>bandicam 2025-06-02 00-01-10-144</name>
						<rate>
							<timebase>60</timebase>
							<ntsc>TRUE</ntsc>
						</rate>
						<rate>
							<timebase>60</timebase>
							<ntsc>TRUE</ntsc>
						</rate>
						<duration>24</duration>
						<start>126</start>
						<end>150</end>
						<in>174</in>
						<out>198</out>
					</clipitem>
					<clipitem frameBlend="FALSE" id="clipitem-1447">
						<file id="file-1"/>
						<name>bandicam 2025-06-02 00-01-10-144</name>
						<rate>
							<timebase>60</timebase>
							<ntsc>TRUE</ntsc>
						</rate>
						<rate>
							<timebase>60</timebase>
							<ntsc>TRUE</ntsc>
						</rate>
						<duration>0</duration>
						<start>198</start>
						<end>198</end>
						<in>300</in>
						<out>300</out>
					</clipitem>
					<clipitem frameBlend="FALSE" id="clipitem-1448">
						<file id="file-1"/>
						<name>bandicam 2025-06-02 00-01-10-144</name>
						<rate>
							<timebase>60</timebase>
							<ntsc>TRUE</ntsc>
						</rate>
						<rate>
							<timebase>60</timebase>
							<ntsc>TRUE</ntsc>
						</rate>
						<duration>30</duration>
						<start>300</start>
						<end>330</end>
						<in>360</in>
						<out>390</out>
					</clipitem>
					<clipitem frameBlend="FALSE" id="clipitem-1449">
						<file id="file-1"/>
						<name>bandicam 2025-06-02 00-01-10-144</name>
						<rate>
							<timebase>60</timebase>
							<ntsc>TRUE</ntsc>
						</rate>
						<rate>
							<timebase>60</timebase>
							<ntsc>TRUE</ntsc>
						</rate>
						<duration>0</duration>
						<start>390</start>
						<end>390</end>
						<in>438</in>
						<out>438</out>
					</clipitem>
					<clipitem frameBlend="FALSE" id="clipitem-1450">
						<file id="file-1"/>
						<name>bandicam 2025-06-02 00-01-10-144</name>
						<rate>
							<timebase>60</timebase>
							<ntsc>TRUE</ntsc>
						</rate>
						<rate>
							<timebase>60</timebase>
							<ntsc>TRUE</ntsc>
						</rate>
						<duration>42</duration>
						<start>438</start>
						<end>480</end>
						<in>450</in>
						<out>492</out>
					</clipitem>
					<clipitem frameBlend="FALSE" id="clipitem-1451">
						<file id="file-1"/>
						<name>bandicam 2025-06-02 00-01-10-144</name>
						<rate>
							<timebase>60</timebase>
							<ntsc>TRUE</ntsc>
						</rate>
						<rate>
							<timebase>60</timebase>
							<ntsc>TRUE</ntsc>
						</rate>
						<duration>0</duration>
						<start>492</start>
						<end>492</end>
						<in>504</in>
						<out>504</out>
					</clipitem>
					<clipitem frameBlend="FALSE" id="clipitem-1452">
						<file id="file-1"/>
						<name>bandicam 2025-06-02 00-01-10-144</name>
						<rate>
							<timebase>60</timebase>
							<ntsc>TRUE</ntsc>
						</rate>
						<rate>
							<timebase>60</timebase>
							<ntsc>TRUE</ntsc>
						</rate>
						<duration>30</duration>
						<start>504</start>
						<end>534</end>
						<in>528</in>
						<out>558</out>
					</clipitem>
					<clipitem frameBlend="FALSE" id="clipitem-1453">
						<file id="file-1"/>
						<name>bandicam 2025-06-02 00-01-10-144</name>
						<rate>
							<timebase>60</timebase>
							<ntsc>TRUE</ntsc>
						</rate>
						<rate>
							<timebase>60</timebase>
							<ntsc>TRUE</ntsc>
						</rate>
						<duration>24</duration>
						<start>558</start>
						<end>582</end>
						<in>582</in>
						<out>606</out>
					</clipitem>
					<clipitem frameBlend="FALSE" id="clipitem-1454">
						<file id="file-1"/>
						<name>bandicam 2025-06-02 00-01-10-144</name>
						<rate>
							<timebase>60</timebase>
							<ntsc>TRUE</ntsc>
						</rate>
						<rate>
							<timebase>60</timebase>
							<ntsc>TRUE</ntsc>
						</rate>
						<duration>18</duration>
						<start>606</start>
						<end>624</end>
						<in>624</in>
						<out>642</out>
					</clipitem>
					<clipitem frameBlend="FALSE" id="clipitem-1455">
						<file id="file-1"/>
						<name>bandicam 2025-06-02 00-01-10-144</name>
						<rate>
							<timebase>60</timebase>
							<ntsc>TRUE</ntsc>
						</rate>
						<rate>
							<timebase>60</timebase>
							<ntsc>TRUE</ntsc>
						</rate>
						<duration>0</duration>
						<start>642</start>
						<end>642</end>
						<in>816</in>
						<out>816</out>
					</clipitem>
					<clipitem frameBlend="FALSE" id="clipitem-1456">
						<file id="file-1"/>
						<name>bandicam 2025-06-02 00-01-10-144</name>
						<rate>
							<timebase>60</timebase>
							<ntsc>TRUE</ntsc>
						</rate>
						<rate>
							<timebase>60</timebase>
							<ntsc>TRUE</ntsc>
						</rate>
						<duration>0</duration>
						<start>816</start>
						<end>816</end>
						<in>852</in>
						<out>852</out>
					</clipitem>
					<clipitem frameBlend="FALSE" id="clipitem-1457">
						<file id="file-1"/>
						<name>bandicam 2025-06-02 00-01-10-144</name>
						<rate>
							<timebase>60</timebase>
							<ntsc>TRUE</ntsc>
						</rate>
						<rate>
							<timebase>60</timebase>
							<ntsc>TRUE</ntsc>
						</rate>
						<duration>0</duration>
						<start>852</start>
						<end>852</end>
						<in>912</in>
						<out>912</out>
					</clipitem>
					<clipitem frameBlend="FALSE" id="clipitem-1458">
						<file id="file-1"/>
						<name>bandicam 2025-06-02 00-01-10-144</name>
						<rate>
							<timebase>60</timebase>
							<ntsc>TRUE</ntsc>
						</rate>
						<rate>
							<timebase>60</timebase>
							<ntsc>TRUE</ntsc>
						</rate>
						<duration>0</duration>
						<start>912</start>
						<end>912</end>
						<in>936</in>
						<out>936</out>
					</clipitem>
					<clipitem frameBlend="FALSE" id="clipitem-1459">
						<file id="file-1"/>
						<name>bandicam 2025-06-02 00-01-10-144</name>
						<rate>
							<timebase>60</timebase>
							<ntsc>TRUE</ntsc>
						</rate>
						<rate>
							<timebase>60</timebase>
							<ntsc>TRUE</ntsc>
						</rate>
						<duration>0</duration>
						<start>936</start>
						<end>936</end>
						<in>954</in>
						<out>954</out>
					</clipitem>
					<clipitem frameBlend="FALSE" id="clipitem-1460">
						<file id="file-1"/>
						<name>bandicam 2025-06-02 00-01-10-144</name>
						<rate>
							<timebase>60</timebase>
							<ntsc>TRUE</ntsc>
						</rate>
						<rate>
							<timebase>60</timebase>
							<ntsc>TRUE</ntsc>
						</rate>
						<duration>12</duration>
						<start>954</start>
						<end>966</end>
						<in>984</in>
						<out>996</out>
					</clipitem>
					<clipitem frameBlend="FALSE" id="clipitem-1461">
						<file id="file-1"/>
						<name>bandicam 2025-06-02 00-01-10-144</name>
						<rate>
							<timebase>60</timebase>
							<ntsc>TRUE</ntsc>
						</rate>
						<rate>
							<timebase>60</timebase>
							<ntsc>TRUE</ntsc>
						</rate>
						<duration>12</duration>
						<start>996</start>
						<end>1008</end>
						<in>1086</in>
						<out>1098</out>
					</clipitem>
					<clipitem frameBlend="FALSE" id="clipitem-1462">
						<file id="file-1"/>
						<name>bandicam 2025-06-02 00-01-10-144</name>
						<rate>
							<timebase>60</timebase>
							<ntsc>TRUE</ntsc>
						</rate>
						<rate>
							<timebase>60</timebase>
							<ntsc>TRUE</ntsc>
						</rate>
						<duration>48</duration>
						<start>1098</start>
						<end>1146</end>
						<in>1188</in>
						<out>1236</out>
					</clipitem>
					<clipitem frameBlend="FALSE" id="clipitem-1463">
						<file id="file-1"/>
						<name>bandicam 2025-06-02 00-01-10-144</name>
						<rate>
							<timebase>60</timebase>
							<ntsc>TRUE</ntsc>
						</rate>
						<rate>
							<timebase>60</timebase>
							<ntsc>TRUE</ntsc>
						</rate>
						<duration>0</duration>
						<start>1236</start>
						<end>1236</end>
						<in>1320</in>
						<out>1320</out>
					</clipitem>
					<clipitem frameBlend="FALSE" id="clipitem-1464">
						<file id="file-1"/>
						<name>bandicam 2025-06-02 00-01-10-144</name>
						<rate>
							<timebase>60</timebase>
							<ntsc>TRUE</ntsc>
						</rate>
						<rate>
							<timebase>60</timebase>
							<ntsc>TRUE</ntsc>
						</rate>
						<duration>54</duration>
						<start>1320</start>
						<end>1374</end>
						<in>1374</in>
						<out>1428</out>
					</clipitem>
					<clipitem frameBlend="FALSE" id="clipitem-1465">
						<file id="file-1"/>
						<name>bandicam 2025-06-02 00-01-10-144</name>
						<rate>
							<timebase>60</timebase>
							<ntsc>TRUE</ntsc>
						</rate>
						<rate>
							<timebase>60</timebase>
							<ntsc>TRUE</ntsc>
						</rate>
						<duration>36</duration>
						<start>1428</start>
						<end>1464</end>
						<in>1446</in>
						<out>1482</out>
					</clipitem>
					<clipitem frameBlend="FALSE" id="clipitem-1466">
						<file id="file-1"/>
						<name>bandicam 2025-06-02 00-01-10-144</name>
						<rate>
							<timebase>60</timebase>
							<ntsc>TRUE</ntsc>
						</rate>
						<rate>
							<timebase>60</timebase>
							<ntsc>TRUE</ntsc>
						</rate>
						<duration>0</duration>
						<start>1482</start>
						<end>1482</end>
						<in>1536</in>
						<out>1536</out>
					</clipitem>
					<clipitem frameBlend="FALSE" id="clipitem-1467">
						<file id="file-1"/>
						<name>bandicam 2025-06-02 00-01-10-144</name>
						<rate>
							<timebase>60</timebase>
							<ntsc>TRUE</ntsc>
						</rate>
						<rate>
							<timebase>60</timebase>
							<ntsc>TRUE</ntsc>
						</rate>
						<duration>30</duration>
						<start>1536</start>
						<end>1566</end>
						<in>1566</in>
						<out>1596</out>
					</clipitem>
					<clipitem frameBlend="FALSE" id="clipitem-1468">
						<file id="file-1"/>
						<name>bandicam 2025-06-02 00-01-10-144</name>
						<rate>
							<timebase>60</timebase>
							<ntsc>TRUE</ntsc>
						</rate>
						<rate>
							<timebase>60</timebase>
							<ntsc>TRUE</ntsc>
						</rate>
						<duration>90</duration>
						<start>1596</start>
						<end>1686</end>
						<in>1692</in>
						<out>1782</out>
					</clipitem>
					<clipitem frameBlend="FALSE" id="clipitem-1469">
						<file id="file-1"/>
						<name>bandicam 2025-06-02 00-01-10-144</name>
						<rate>
							<timebase>60</timebase>
							<ntsc>TRUE</ntsc>
						</rate>
						<rate>
							<timebase>60</timebase>
							<ntsc>TRUE</ntsc>
						</rate>
						<duration>30</duration>
						<start>1782</start>
						<end>1812</end>
						<in>1800</in>
						<out>1830</out>
					</clipitem>
					<clipitem frameBlend="FALSE" id="clipitem-1470">
						<file id="file-1"/>
						<name>bandicam 2025-06-02 00-01-10-144</name>
						<rate>
							<timebase>60</timebase>
							<ntsc>TRUE</ntsc>
						</rate>
						<rate>
							<timebase>60</timebase>
							<ntsc>TRUE</ntsc>
						</rate>
						<duration>30</duration>
						<start>1830</start>
						<end>1860</end>
						<in>1842</in>
						<out>1872</out>
					</clipitem>
					<clipitem frameBlend="FALSE" id="clipitem-1471">
						<file id="file-1"/>
						<name>bandicam 2025-06-02 00-01-10-144</name>
						<rate>
							<timebase>60</timebase>
							<ntsc>TRUE</ntsc>
						</rate>
						<rate>
							<timebase>60</timebase>
							<ntsc>TRUE</ntsc>
						</rate>
						<duration>24</duration>
						<start>1872</start>
						<end>1896</end>
						<in>1884</in>
						<out>1908</out>
					</clipitem>
					<clipitem frameBlend="FALSE" id="clipitem-1472">
						<file id="file-1"/>
						<name>bandicam 2025-06-02 00-01-10-144</name>
						<rate>
							<timebase>60</timebase>
							<ntsc>TRUE</ntsc>
						</rate>
						<rate>
							<timebase>60</timebase>
							<ntsc>TRUE</ntsc>
						</rate>
						<duration>30</duration>
						<start>1908</start>
						<end>1938</end>
						<in>1926</in>
						<out>1956</out>
					</clipitem>
					<clipitem frameBlend="FALSE" id="clipitem-1473">
						<file id="file-1"/>
						<name>bandicam 2025-06-02 00-01-10-144</name>
						<rate>
							<timebase>60</timebase>
							<ntsc>TRUE</ntsc>
						</rate>
						<rate>
							<timebase>60</timebase>
							<ntsc>TRUE</ntsc>
						</rate>
						<duration>36</duration>
						<start>1956</start>
						<end>1992</end>
						<in>2172</in>
						<out>2208</out>
					</clipitem>
					<clipitem frameBlend="FALSE" id="clipitem-1474">
						<file id="file-1"/>
						<name>bandicam 2025-06-02 00-01-10-144</name>
						<rate>
							<timebase>60</timebase>
							<ntsc>TRUE</ntsc>
						</rate>
						<rate>
							<timebase>60</timebase>
							<ntsc>TRUE</ntsc>
						</rate>
						<duration>90</duration>
						<start>2208</start>
						<end>2298</end>
						<in>2274</in>
						<out>2364</out>
					</clipitem>
					<clipitem frameBlend="FALSE" id="clipitem-1475">
						<file id="file-1"/>
						<name>bandicam 2025-06-02 00-01-10-144</name>
						<rate>
							<timebase>60</timebase>
							<ntsc>TRUE</ntsc>
						</rate>
						<rate>
							<timebase>60</timebase>
							<ntsc>TRUE</ntsc>
						</rate>
						<duration>18</duration>
						<start>2364</start>
						<end>2382</end>
						<in>2448</in>
						<out>2466</out>
					</clipitem>
					<clipitem frameBlend="FALSE" id="clipitem-1476">
						<file id="file-1"/>
						<name>bandicam 2025-06-02 00-01-10-144</name>
						<rate>
							<timebase>60</timebase>
							<ntsc>TRUE</ntsc>
						</rate>
						<rate>
							<timebase>60</timebase>
							<ntsc>TRUE</ntsc>
						</rate>
						<duration>6</duration>
						<start>2466</start>
						<end>2472</end>
						<in>2478</in>
						<out>2484</out>
					</clipitem>
					<clipitem frameBlend="FALSE" id="clipitem-1477">
						<file id="file-1"/>
						<name>bandicam 2025-06-02 00-01-10-144</name>
						<rate>
							<timebase>60</timebase>
							<ntsc>TRUE</ntsc>
						</rate>
						<rate>
							<timebase>60</timebase>
							<ntsc>TRUE</ntsc>
						</rate>
						<duration>6</duration>
						<start>2484</start>
						<end>2490</end>
						<in>2496</in>
						<out>2502</out>
					</clipitem>
					<clipitem frameBlend="FALSE" id="clipitem-1478">
						<file id="file-1"/>
						<name>bandicam 2025-06-02 00-01-10-144</name>
						<rate>
							<timebase>60</timebase>
							<ntsc>TRUE</ntsc>
						</rate>
						<rate>
							<timebase>60</timebase>
							<ntsc>TRUE</ntsc>
						</rate>
						<duration>36</duration>
						<start>2502</start>
						<end>2538</end>
						<in>2532</in>
						<out>2568</out>
					</clipitem>
					<clipitem frameBlend="FALSE" id="clipitem-1479">
						<file id="file-1"/>
						<name>bandicam 2025-06-02 00-01-10-144</name>
						<rate>
							<timebase>60</timebase>
							<ntsc>TRUE</ntsc>
						</rate>
						<rate>
							<timebase>60</timebase>
							<ntsc>TRUE</ntsc>
						</rate>
						<duration>90</duration>
						<start>2568</start>
						<end>2658</end>
						<in>2592</in>
						<out>2682</out>
					</clipitem>
					<clipitem frameBlend="FALSE" id="clipitem-1480">
						<file id="file-1"/>
						<name>bandicam 2025-06-02 00-01-10-144</name>
						<rate>
							<timebase>60</timebase>
							<ntsc>TRUE</ntsc>
						</rate>
						<rate>
							<timebase>60</timebase>
							<ntsc>TRUE</ntsc>
						</rate>
						<duration>132</duration>
						<start>2682</start>
						<end>2814</end>
						<in>2724</in>
						<out>2856</out>
					</clipitem>
					<clipitem frameBlend="FALSE" id="clipitem-1481">
						<file id="file-1"/>
						<name>bandicam 2025-06-02 00-01-10-144</name>
						<rate>
							<timebase>60</timebase>
							<ntsc>TRUE</ntsc>
						</rate>
						<rate>
							<timebase>60</timebase>
							<ntsc>TRUE</ntsc>
						</rate>
						<duration>42</duration>
						<start>2856</start>
						<end>2898</end>
						<in>2868</in>
						<out>2910</out>
					</clipitem>
					<clipitem frameBlend="FALSE" id="clipitem-1482">
						<file id="file-1"/>
						<name>bandicam 2025-06-02 00-01-10-144</name>
						<rate>
							<timebase>60</timebase>
							<ntsc>TRUE</ntsc>
						</rate>
						<rate>
							<timebase>60</timebase>
							<ntsc>TRUE</ntsc>
						</rate>
						<duration>6</duration>
						<start>2910</start>
						<end>2916</end>
						<in>2946</in>
						<out>2952</out>
					</clipitem>
					<clipitem frameBlend="FALSE" id="clipitem-1483">
						<file id="file-1"/>
						<name>bandicam 2025-06-02 00-01-10-144</name>
						<rate>
							<timebase>60</timebase>
							<ntsc>TRUE</ntsc>
						</rate>
						<rate>
							<timebase>60</timebase>
							<ntsc>TRUE</ntsc>
						</rate>
						<duration>30</duration>
						<start>2952</start>
						<end>2982</end>
						<in>2964</in>
						<out>2994</out>
					</clipitem>
					<clipitem frameBlend="FALSE" id="clipitem-1484">
						<file id="file-1"/>
						<name>bandicam 2025-06-02 00-01-10-144</name>
						<rate>
							<timebase>60</timebase>
							<ntsc>TRUE</ntsc>
						</rate>
						<rate>
							<timebase>60</timebase>
							<ntsc>TRUE</ntsc>
						</rate>
						<duration>0</duration>
						<start>2994</start>
						<end>2994</end>
						<in>3024</in>
						<out>3024</out>
					</clipitem>
					<clipitem frameBlend="FALSE" id="clipitem-1485">
						<file id="file-1"/>
						<name>bandicam 2025-06-02 00-01-10-144</name>
						<rate>
							<timebase>60</timebase>
							<ntsc>TRUE</ntsc>
						</rate>
						<rate>
							<timebase>60</timebase>
							<ntsc>TRUE</ntsc>
						</rate>
						<duration>42</duration>
						<start>3024</start>
						<end>3066</end>
						<in>3060</in>
						<out>3102</out>
					</clipitem>
					<clipitem frameBlend="FALSE" id="clipitem-1486">
						<file id="file-1"/>
						<name>bandicam 2025-06-02 00-01-10-144</name>
						<rate>
							<timebase>60</timebase>
							<ntsc>TRUE</ntsc>
						</rate>
						<rate>
							<timebase>60</timebase>
							<ntsc>TRUE</ntsc>
						</rate>
						<duration>30</duration>
						<start>3102</start>
						<end>3132</end>
						<in>3120</in>
						<out>3150</out>
					</clipitem>
					<clipitem frameBlend="FALSE" id="clipitem-1487">
						<file id="file-1"/>
						<name>bandicam 2025-06-02 00-01-10-144</name>
						<rate>
							<timebase>60</timebase>
							<ntsc>TRUE</ntsc>
						</rate>
						<rate>
							<timebase>60</timebase>
							<ntsc>TRUE</ntsc>
						</rate>
						<duration>36</duration>
						<start>3150</start>
						<end>3186</end>
						<in>3222</in>
						<out>3258</out>
					</clipitem>
					<clipitem frameBlend="FALSE" id="clipitem-1488">
						<file id="file-1"/>
						<name>bandicam 2025-06-02 00-01-10-144</name>
						<rate>
							<timebase>60</timebase>
							<ntsc>TRUE</ntsc>
						</rate>
						<rate>
							<timebase>60</timebase>
							<ntsc>TRUE</ntsc>
						</rate>
						<duration>36</duration>
						<start>3258</start>
						<end>3294</end>
						<in>3270</in>
						<out>3306</out>
					</clipitem>
					<clipitem frameBlend="FALSE" id="clipitem-1489">
						<file id="file-1"/>
						<name>bandicam 2025-06-02 00-01-10-144</name>
						<rate>
							<timebase>60</timebase>
							<ntsc>TRUE</ntsc>
						</rate>
						<rate>
							<timebase>60</timebase>
							<ntsc>TRUE</ntsc>
						</rate>
						<duration>30</duration>
						<start>3306</start>
						<end>3336</end>
						<in>3372</in>
						<out>3402</out>
					</clipitem>
					<clipitem frameBlend="FALSE" id="clipitem-1490">
						<file id="file-1"/>
						<name>bandicam 2025-06-02 00-01-10-144</name>
						<rate>
							<timebase>60</timebase>
							<ntsc>TRUE</ntsc>
						</rate>
						<rate>
							<timebase>60</timebase>
							<ntsc>TRUE</ntsc>
						</rate>
						<duration>24</duration>
						<start>3402</start>
						<end>3426</end>
						<in>3450</in>
						<out>3474</out>
					</clipitem>
					<clipitem frameBlend="FALSE" id="clipitem-1491">
						<file id="file-1"/>
						<name>bandicam 2025-06-02 00-01-10-144</name>
						<rate>
							<timebase>60</timebase>
							<ntsc>TRUE</ntsc>
						</rate>
						<rate>
							<timebase>60</timebase>
							<ntsc>TRUE</ntsc>
						</rate>
						<duration>30</duration>
						<start>3474</start>
						<end>3504</end>
						<in>3498</in>
						<out>3528</out>
					</clipitem>
					<clipitem frameBlend="FALSE" id="clipitem-1492">
						<file id="file-1"/>
						<name>bandicam 2025-06-02 00-01-10-144</name>
						<rate>
							<timebase>60</timebase>
							<ntsc>TRUE</ntsc>
						</rate>
						<rate>
							<timebase>60</timebase>
							<ntsc>TRUE</ntsc>
						</rate>
						<duration>0</duration>
						<start>3528</start>
						<end>3528</end>
						<in>3582</in>
						<out>3582</out>
					</clipitem>
					<clipitem frameBlend="FALSE" id="clipitem-1493">
						<file id="file-1"/>
						<name>bandicam 2025-06-02 00-01-10-144</name>
						<rate>
							<timebase>60</timebase>
							<ntsc>TRUE</ntsc>
						</rate>
						<rate>
							<timebase>60</timebase>
							<ntsc>TRUE</ntsc>
						</rate>
						<duration>18</duration>
						<start>3582</start>
						<end>3600</end>
						<in>3624</in>
						<out>3642</out>
					</clipitem>
					<clipitem frameBlend="FALSE" id="clipitem-1494">
						<file id="file-1"/>
						<name>bandicam 2025-06-02 00-01-10-144</name>
						<rate>
							<timebase>60</timebase>
							<ntsc>TRUE</ntsc>
						</rate>
						<rate>
							<timebase>60</timebase>
							<ntsc>TRUE</ntsc>
						</rate>
						<duration>0</duration>
						<start>3642</start>
						<end>3642</end>
						<in>3672</in>
						<out>3672</out>
					</clipitem>
					<clipitem frameBlend="FALSE" id="clipitem-1495">
						<file id="file-1"/>
						<name>bandicam 2025-06-02 00-01-10-144</name>
						<rate>
							<timebase>60</timebase>
							<ntsc>TRUE</ntsc>
						</rate>
						<rate>
							<timebase>60</timebase>
							<ntsc>TRUE</ntsc>
						</rate>
						<duration>0</duration>
						<start>3672</start>
						<end>3672</end>
						<in>3696</in>
						<out>3696</out>
					</clipitem>
					<clipitem frameBlend="FALSE" id="clipitem-1496">
						<file id="file-1"/>
						<name>bandicam 2025-06-02 00-01-10-144</name>
						<rate>
							<timebase>60</timebase>
							<ntsc>TRUE</ntsc>
						</rate>
						<rate>
							<timebase>60</timebase>
							<ntsc>TRUE</ntsc>
						</rate>
						<duration>12</duration>
						<start>3696</start>
						<end>3708</end>
						<in>3768</in>
						<out>3780</out>
					</clipitem>
					<clipitem frameBlend="FALSE" id="clipitem-1497">
						<file id="file-1"/>
						<name>bandicam 2025-06-02 00-01-10-144</name>
						<rate>
							<timebase>60</timebase>
							<ntsc>TRUE</ntsc>
						</rate>
						<rate>
							<timebase>60</timebase>
							<ntsc>TRUE</ntsc>
						</rate>
						<duration>30</duration>
						<start>3780</start>
						<end>3810</end>
						<in>3852</in>
						<out>3882</out>
					</clipitem>
					<clipitem frameBlend="FALSE" id="clipitem-1498">
						<file id="file-1"/>
						<name>bandicam 2025-06-02 00-01-10-144</name>
						<rate>
							<timebase>60</timebase>
							<ntsc>TRUE</ntsc>
						</rate>
						<rate>
							<timebase>60</timebase>
							<ntsc>TRUE</ntsc>
						</rate>
						<duration>30</duration>
						<start>3882</start>
						<end>3912</end>
						<in>3906</in>
						<out>3936</out>
					</clipitem>
					<clipitem frameBlend="FALSE" id="clipitem-1499">
						<file id="file-1"/>
						<name>bandicam 2025-06-02 00-01-10-144</name>
						<rate>
							<timebase>60</timebase>
							<ntsc>TRUE</ntsc>
						</rate>
						<rate>
							<timebase>60</timebase>
							<ntsc>TRUE</ntsc>
						</rate>
						<duration>6</duration>
						<start>3936</start>
						<end>3942</end>
						<in>4026</in>
						<out>4032</out>
					</clipitem>
					<clipitem frameBlend="FALSE" id="clipitem-1500">
						<file id="file-1"/>
						<name>bandicam 2025-06-02 00-01-10-144</name>
						<rate>
							<timebase>60</timebase>
							<ntsc>TRUE</ntsc>
						</rate>
						<rate>
							<timebase>60</timebase>
							<ntsc>TRUE</ntsc>
						</rate>
						<duration>0</duration>
						<start>4032</start>
						<end>4032</end>
						<in>4044</in>
						<out>4044</out>
					</clipitem>
					<clipitem frameBlend="FALSE" id="clipitem-1501">
						<file id="file-1"/>
						<name>bandicam 2025-06-02 00-01-10-144</name>
						<rate>
							<timebase>60</timebase>
							<ntsc>TRUE</ntsc>
						</rate>
						<rate>
							<timebase>60</timebase>
							<ntsc>TRUE</ntsc>
						</rate>
						<duration>84</duration>
						<start>4044</start>
						<end>4128</end>
						<in>4086</in>
						<out>4170</out>
					</clipitem>
					<clipitem frameBlend="FALSE" id="clipitem-1502">
						<file id="file-1"/>
						<name>bandicam 2025-06-02 00-01-10-144</name>
						<rate>
							<timebase>60</timebase>
							<ntsc>TRUE</ntsc>
						</rate>
						<rate>
							<timebase>60</timebase>
							<ntsc>TRUE</ntsc>
						</rate>
						<duration>18</duration>
						<start>4170</start>
						<end>4188</end>
						<in>4188</in>
						<out>4206</out>
					</clipitem>
					<clipitem frameBlend="FALSE" id="clipitem-1503">
						<file id="file-1"/>
						<name>bandicam 2025-06-02 00-01-10-144</name>
						<rate>
							<timebase>60</timebase>
							<ntsc>TRUE</ntsc>
						</rate>
						<rate>
							<timebase>60</timebase>
							<ntsc>TRUE</ntsc>
						</rate>
						<duration>66</duration>
						<start>4206</start>
						<end>4272</end>
						<in>4218</in>
						<out>4284</out>
					</clipitem>
					<clipitem frameBlend="FALSE" id="clipitem-1504">
						<file id="file-1"/>
						<name>bandicam 2025-06-02 00-01-10-144</name>
						<rate>
							<timebase>60</timebase>
							<ntsc>TRUE</ntsc>
						</rate>
						<rate>
							<timebase>60</timebase>
							<ntsc>TRUE</ntsc>
						</rate>
						<duration>132</duration>
						<start>4284</start>
						<end>4416</end>
						<in>4302</in>
						<out>4434</out>
					</clipitem>
					<clipitem frameBlend="FALSE" id="clipitem-1505">
						<file id="file-1"/>
						<name>bandicam 2025-06-02 00-01-10-144</name>
						<rate>
							<timebase>60</timebase>
							<ntsc>TRUE</ntsc>
						</rate>
						<rate>
							<timebase>60</timebase>
							<ntsc>TRUE</ntsc>
						</rate>
						<duration>12</duration>
						<start>4434</start>
						<end>4446</end>
						<in>4470</in>
						<out>4482</out>
					</clipitem>
					<clipitem frameBlend="FALSE" id="clipitem-1506">
						<file id="file-1"/>
						<name>bandicam 2025-06-02 00-01-10-144</name>
						<rate>
							<timebase>60</timebase>
							<ntsc>TRUE</ntsc>
						</rate>
						<rate>
							<timebase>60</timebase>
							<ntsc>TRUE</ntsc>
						</rate>
						<duration>48</duration>
						<start>4482</start>
						<end>4530</end>
						<in>4506</in>
						<out>4554</out>
					</clipitem>
					<clipitem frameBlend="FALSE" id="clipitem-1507">
						<file id="file-1"/>
						<name>bandicam 2025-06-02 00-01-10-144</name>
						<rate>
							<timebase>60</timebase>
							<ntsc>TRUE</ntsc>
						</rate>
						<rate>
							<timebase>60</timebase>
							<ntsc>TRUE</ntsc>
						</rate>
						<duration>30</duration>
						<start>4554</start>
						<end>4584</end>
						<in>4602</in>
						<out>4632</out>
					</clipitem>
					<clipitem frameBlend="FALSE" id="clipitem-1508">
						<file id="file-1"/>
						<name>bandicam 2025-06-02 00-01-10-144</name>
						<rate>
							<timebase>60</timebase>
							<ntsc>TRUE</ntsc>
						</rate>
						<rate>
							<timebase>60</timebase>
							<ntsc>TRUE</ntsc>
						</rate>
						<duration>30</duration>
						<start>4632</start>
						<end>4662</end>
						<in>4650</in>
						<out>4680</out>
					</clipitem>
					<clipitem frameBlend="FALSE" id="clipitem-1509">
						<file id="file-1"/>
						<name>bandicam 2025-06-02 00-01-10-144</name>
						<rate>
							<timebase>60</timebase>
							<ntsc>TRUE</ntsc>
						</rate>
						<rate>
							<timebase>60</timebase>
							<ntsc>TRUE</ntsc>
						</rate>
						<duration>0</duration>
						<start>4680</start>
						<end>4680</end>
						<in>4704</in>
						<out>4704</out>
					</clipitem>
					<clipitem frameBlend="FALSE" id="clipitem-1510">
						<file id="file-1"/>
						<name>bandicam 2025-06-02 00-01-10-144</name>
						<rate>
							<timebase>60</timebase>
							<ntsc>TRUE</ntsc>
						</rate>
						<rate>
							<timebase>60</timebase>
							<ntsc>TRUE</ntsc>
						</rate>
						<duration>96</duration>
						<start>4704</start>
						<end>4800</end>
						<in>4722</in>
						<out>4818</out>
					</clipitem>
					<clipitem frameBlend="FALSE" id="clipitem-1511">
						<file id="file-1"/>
						<name>bandicam 2025-06-02 00-01-10-144</name>
						<rate>
							<timebase>60</timebase>
							<ntsc>TRUE</ntsc>
						</rate>
						<rate>
							<timebase>60</timebase>
							<ntsc>TRUE</ntsc>
						</rate>
						<duration>0</duration>
						<start>4818</start>
						<end>4818</end>
						<in>4848</in>
						<out>4848</out>
					</clipitem>
					<clipitem frameBlend="FALSE" id="clipitem-1512">
						<file id="file-1"/>
						<name>bandicam 2025-06-02 00-01-10-144</name>
						<rate>
							<timebase>60</timebase>
							<ntsc>TRUE</ntsc>
						</rate>
						<rate>
							<timebase>60</timebase>
							<ntsc>TRUE</ntsc>
						</rate>
						<duration>12</duration>
						<start>4848</start>
						<end>4860</end>
						<in>4860</in>
						<out>4872</out>
					</clipitem>
					<clipitem frameBlend="FALSE" id="clipitem-1513">
						<file id="file-1"/>
						<name>bandicam 2025-06-02 00-01-10-144</name>
						<rate>
							<timebase>60</timebase>
							<ntsc>TRUE</ntsc>
						</rate>
						<rate>
							<timebase>60</timebase>
							<ntsc>TRUE</ntsc>
						</rate>
						<duration>6</duration>
						<start>4872</start>
						<end>4878</end>
						<in>4890</in>
						<out>4896</out>
					</clipitem>
					<clipitem frameBlend="FALSE" id="clipitem-1514">
						<file id="file-1"/>
						<name>bandicam 2025-06-02 00-01-10-144</name>
						<rate>
							<timebase>60</timebase>
							<ntsc>TRUE</ntsc>
						</rate>
						<rate>
							<timebase>60</timebase>
							<ntsc>TRUE</ntsc>
						</rate>
						<duration>24</duration>
						<start>4896</start>
						<end>4920</end>
						<in>4908</in>
						<out>4932</out>
					</clipitem>
					<clipitem frameBlend="FALSE" id="clipitem-1515">
						<file id="file-1"/>
						<name>bandicam 2025-06-02 00-01-10-144</name>
						<rate>
							<timebase>60</timebase>
							<ntsc>TRUE</ntsc>
						</rate>
						<rate>
							<timebase>60</timebase>
							<ntsc>TRUE</ntsc>
						</rate>
						<duration>30</duration>
						<start>4932</start>
						<end>4962</end>
						<in>4944</in>
						<out>4974</out>
					</clipitem>
					<clipitem frameBlend="FALSE" id="clipitem-1516">
						<file id="file-1"/>
						<name>bandicam 2025-06-02 00-01-10-144</name>
						<rate>
							<timebase>60</timebase>
							<ntsc>TRUE</ntsc>
						</rate>
						<rate>
							<timebase>60</timebase>
							<ntsc>TRUE</ntsc>
						</rate>
						<duration>30</duration>
						<start>4974</start>
						<end>5004</end>
						<in>5016</in>
						<out>5046</out>
					</clipitem>
					<clipitem frameBlend="FALSE" id="clipitem-1517">
						<file id="file-1"/>
						<name>bandicam 2025-06-02 00-01-10-144</name>
						<rate>
							<timebase>60</timebase>
							<ntsc>TRUE</ntsc>
						</rate>
						<rate>
							<timebase>60</timebase>
							<ntsc>TRUE</ntsc>
						</rate>
						<duration>6</duration>
						<start>5046</start>
						<end>5052</end>
						<in>5064</in>
						<out>5070</out>
					</clipitem>
					<clipitem frameBlend="FALSE" id="clipitem-1518">
						<file id="file-1"/>
						<name>bandicam 2025-06-02 00-01-10-144</name>
						<rate>
							<timebase>60</timebase>
							<ntsc>TRUE</ntsc>
						</rate>
						<rate>
							<timebase>60</timebase>
							<ntsc>TRUE</ntsc>
						</rate>
						<duration>96</duration>
						<start>5070</start>
						<end>5166</end>
						<in>5082</in>
						<out>5178</out>
					</clipitem>
					<clipitem frameBlend="FALSE" id="clipitem-1519">
						<file id="file-1"/>
						<name>bandicam 2025-06-02 00-01-10-144</name>
						<rate>
							<timebase>60</timebase>
							<ntsc>TRUE</ntsc>
						</rate>
						<rate>
							<timebase>60</timebase>
							<ntsc>TRUE</ntsc>
						</rate>
						<duration>30</duration>
						<start>5178</start>
						<end>5208</end>
						<in>5232</in>
						<out>5262</out>
					</clipitem>
					<clipitem frameBlend="FALSE" id="clipitem-1520">
						<file id="file-1"/>
						<name>bandicam 2025-06-02 00-01-10-144</name>
						<rate>
							<timebase>60</timebase>
							<ntsc>TRUE</ntsc>
						</rate>
						<rate>
							<timebase>60</timebase>
							<ntsc>TRUE</ntsc>
						</rate>
						<duration>12</duration>
						<start>5262</start>
						<end>5274</end>
						<in>5328</in>
						<out>5340</out>
					</clipitem>
					<clipitem frameBlend="FALSE" id="clipitem-1521">
						<file id="file-1"/>
						<name>bandicam 2025-06-02 00-01-10-144</name>
						<rate>
							<timebase>60</timebase>
							<ntsc>TRUE</ntsc>
						</rate>
						<rate>
							<timebase>60</timebase>
							<ntsc>TRUE</ntsc>
						</rate>
						<duration>12</duration>
						<start>5340</start>
						<end>5352</end>
						<in>5352</in>
						<out>5364</out>
					</clipitem>
					<clipitem frameBlend="FALSE" id="clipitem-1522">
						<file id="file-1"/>
						<name>bandicam 2025-06-02 00-01-10-144</name>
						<rate>
							<timebase>60</timebase>
							<ntsc>TRUE</ntsc>
						</rate>
						<rate>
							<timebase>60</timebase>
							<ntsc>TRUE</ntsc>
						</rate>
						<duration>84</duration>
						<start>5364</start>
						<end>5448</end>
						<in>5382</in>
						<out>5466</out>
					</clipitem>
					<clipitem frameBlend="FALSE" id="clipitem-1523">
						<file id="file-1"/>
						<name>bandicam 2025-06-02 00-01-10-144</name>
						<rate>
							<timebase>60</timebase>
							<ntsc>TRUE</ntsc>
						</rate>
						<rate>
							<timebase>60</timebase>
							<ntsc>TRUE</ntsc>
						</rate>
						<duration>30</duration>
						<start>5466</start>
						<end>5496</end>
						<in>5490</in>
						<out>5520</out>
					</clipitem>
					<clipitem frameBlend="FALSE" id="clipitem-1524">
						<file id="file-1"/>
						<name>bandicam 2025-06-02 00-01-10-144</name>
						<rate>
							<timebase>60</timebase>
							<ntsc>TRUE</ntsc>
						</rate>
						<rate>
							<timebase>60</timebase>
							<ntsc>TRUE</ntsc>
						</rate>
						<duration>66</duration>
						<start>5520</start>
						<end>5586</end>
						<in>5532</in>
						<out>5598</out>
					</clipitem>
					<clipitem frameBlend="FALSE" id="clipitem-1525">
						<file id="file-1"/>
						<name>bandicam 2025-06-02 00-01-10-144</name>
						<rate>
							<timebase>60</timebase>
							<ntsc>TRUE</ntsc>
						</rate>
						<rate>
							<timebase>60</timebase>
							<ntsc>TRUE</ntsc>
						</rate>
						<duration>24</duration>
						<start>5598</start>
						<end>5622</end>
						<in>5622</in>
						<out>5646</out>
					</clipitem>
					<clipitem frameBlend="FALSE" id="clipitem-1526">
						<file id="file-1"/>
						<name>bandicam 2025-06-02 00-01-10-144</name>
						<rate>
							<timebase>60</timebase>
							<ntsc>TRUE</ntsc>
						</rate>
						<rate>
							<timebase>60</timebase>
							<ntsc>TRUE</ntsc>
						</rate>
						<duration>30</duration>
						<start>5646</start>
						<end>5676</end>
						<in>5664</in>
						<out>5694</out>
					</clipitem>
					<clipitem frameBlend="FALSE" id="clipitem-1527">
						<file id="file-1"/>
						<name>bandicam 2025-06-02 00-01-10-144</name>
						<rate>
							<timebase>60</timebase>
							<ntsc>TRUE</ntsc>
						</rate>
						<rate>
							<timebase>60</timebase>
							<ntsc>TRUE</ntsc>
						</rate>
						<duration>66</duration>
						<start>5694</start>
						<end>5760</end>
						<in>5712</in>
						<out>5778</out>
					</clipitem>
					<clipitem frameBlend="FALSE" id="clipitem-1528">
						<file id="file-1"/>
						<name>bandicam 2025-06-02 00-01-10-144</name>
						<rate>
							<timebase>60</timebase>
							<ntsc>TRUE</ntsc>
						</rate>
						<rate>
							<timebase>60</timebase>
							<ntsc>TRUE</ntsc>
						</rate>
						<duration>282</duration>
						<start>5778</start>
						<end>6060</end>
						<in>5802</in>
						<out>6084</out>
					</clipitem>
					<clipitem frameBlend="FALSE" id="clipitem-1529">
						<file id="file-1"/>
						<name>bandicam 2025-06-02 00-01-10-144</name>
						<rate>
							<timebase>60</timebase>
							<ntsc>TRUE</ntsc>
						</rate>
						<rate>
							<timebase>60</timebase>
							<ntsc>TRUE</ntsc>
						</rate>
						<duration>0</duration>
						<start>6084</start>
						<end>6084</end>
						<in>6132</in>
						<out>6132</out>
					</clipitem>
					<clipitem frameBlend="FALSE" id="clipitem-1530">
						<file id="file-1"/>
						<name>bandicam 2025-06-02 00-01-10-144</name>
						<rate>
							<timebase>60</timebase>
							<ntsc>TRUE</ntsc>
						</rate>
						<rate>
							<timebase>60</timebase>
							<ntsc>TRUE</ntsc>
						</rate>
						<duration>60</duration>
						<start>6132</start>
						<end>6192</end>
						<in>6150</in>
						<out>6210</out>
					</clipitem>
					<clipitem frameBlend="FALSE" id="clipitem-1531">
						<file id="file-1"/>
						<name>bandicam 2025-06-02 00-01-10-144</name>
						<rate>
							<timebase>60</timebase>
							<ntsc>TRUE</ntsc>
						</rate>
						<rate>
							<timebase>60</timebase>
							<ntsc>TRUE</ntsc>
						</rate>
						<duration>36</duration>
						<start>6210</start>
						<end>6246</end>
						<in>6222</in>
						<out>6258</out>
					</clipitem>
					<clipitem frameBlend="FALSE" id="clipitem-1532">
						<file id="file-1"/>
						<name>bandicam 2025-06-02 00-01-10-144</name>
						<rate>
							<timebase>60</timebase>
							<ntsc>TRUE</ntsc>
						</rate>
						<rate>
							<timebase>60</timebase>
							<ntsc>TRUE</ntsc>
						</rate>
						<duration>0</duration>
						<start>6258</start>
						<end>6258</end>
						<in>6282</in>
						<out>6282</out>
					</clipitem>
					<clipitem frameBlend="FALSE" id="clipitem-1533">
						<file id="file-1"/>
						<name>bandicam 2025-06-02 00-01-10-144</name>
						<rate>
							<timebase>60</timebase>
							<ntsc>TRUE</ntsc>
						</rate>
						<rate>
							<timebase>60</timebase>
							<ntsc>TRUE</ntsc>
						</rate>
						<duration>0</duration>
						<start>6282</start>
						<end>6282</end>
						<in>6300</in>
						<out>6300</out>
					</clipitem>
					<clipitem frameBlend="FALSE" id="clipitem-1534">
						<file id="file-1"/>
						<name>bandicam 2025-06-02 00-01-10-144</name>
						<rate>
							<timebase>60</timebase>
							<ntsc>TRUE</ntsc>
						</rate>
						<rate>
							<timebase>60</timebase>
							<ntsc>TRUE</ntsc>
						</rate>
						<duration>30</duration>
						<start>6300</start>
						<end>6330</end>
						<in>6312</in>
						<out>6342</out>
					</clipitem>
					<clipitem frameBlend="FALSE" id="clipitem-1535">
						<file id="file-1"/>
						<name>bandicam 2025-06-02 00-01-10-144</name>
						<rate>
							<timebase>60</timebase>
							<ntsc>TRUE</ntsc>
						</rate>
						<rate>
							<timebase>60</timebase>
							<ntsc>TRUE</ntsc>
						</rate>
						<duration>30</duration>
						<start>6342</start>
						<end>6372</end>
						<in>6384</in>
						<out>6414</out>
					</clipitem>
					<clipitem frameBlend="FALSE" id="clipitem-1536">
						<file id="file-1"/>
						<name>bandicam 2025-06-02 00-01-10-144</name>
						<rate>
							<timebase>60</timebase>
							<ntsc>TRUE</ntsc>
						</rate>
						<rate>
							<timebase>60</timebase>
							<ntsc>TRUE</ntsc>
						</rate>
						<duration>24</duration>
						<start>6414</start>
						<end>6438</end>
						<in>6432</in>
						<out>6456</out>
					</clipitem>
					<clipitem frameBlend="FALSE" id="clipitem-1537">
						<file id="file-1"/>
						<name>bandicam 2025-06-02 00-01-10-144</name>
						<rate>
							<timebase>60</timebase>
							<ntsc>TRUE</ntsc>
						</rate>
						<rate>
							<timebase>60</timebase>
							<ntsc>TRUE</ntsc>
						</rate>
						<duration>120</duration>
						<start>6456</start>
						<end>6576</end>
						<in>6468</in>
						<out>6588</out>
					</clipitem>
					<clipitem frameBlend="FALSE" id="clipitem-1538">
						<file id="file-1"/>
						<name>bandicam 2025-06-02 00-01-10-144</name>
						<rate>
							<timebase>60</timebase>
							<ntsc>TRUE</ntsc>
						</rate>
						<rate>
							<timebase>60</timebase>
							<ntsc>TRUE</ntsc>
						</rate>
						<duration>24</duration>
						<start>6588</start>
						<end>6612</end>
						<in>6612</in>
						<out>6636</out>
					</clipitem>
					<clipitem frameBlend="FALSE" id="clipitem-1539">
						<file id="file-1"/>
						<name>bandicam 2025-06-02 00-01-10-144</name>
						<rate>
							<timebase>60</timebase>
							<ntsc>TRUE</ntsc>
						</rate>
						<rate>
							<timebase>60</timebase>
							<ntsc>TRUE</ntsc>
						</rate>
						<duration>0</duration>
						<start>6636</start>
						<end>6636</end>
						<in>6714</in>
						<out>6714</out>
					</clipitem>
					<clipitem frameBlend="FALSE" id="clipitem-1540">
						<file id="file-1"/>
						<name>bandicam 2025-06-02 00-01-10-144</name>
						<rate>
							<timebase>60</timebase>
							<ntsc>TRUE</ntsc>
						</rate>
						<rate>
							<timebase>60</timebase>
							<ntsc>TRUE</ntsc>
						</rate>
						<duration>0</duration>
						<start>6714</start>
						<end>6714</end>
						<in>6732</in>
						<out>6732</out>
					</clipitem>
					<clipitem frameBlend="FALSE" id="clipitem-1541">
						<file id="file-1"/>
						<name>bandicam 2025-06-02 00-01-10-144</name>
						<rate>
							<timebase>60</timebase>
							<ntsc>TRUE</ntsc>
						</rate>
						<rate>
							<timebase>60</timebase>
							<ntsc>TRUE</ntsc>
						</rate>
						<duration>18</duration>
						<start>6732</start>
						<end>6750</end>
						<in>6750</in>
						<out>6768</out>
					</clipitem>
					<clipitem frameBlend="FALSE" id="clipitem-1542">
						<file id="file-1"/>
						<name>bandicam 2025-06-02 00-01-10-144</name>
						<rate>
							<timebase>60</timebase>
							<ntsc>TRUE</ntsc>
						</rate>
						<rate>
							<timebase>60</timebase>
							<ntsc>TRUE</ntsc>
						</rate>
						<duration>60</duration>
						<start>6768</start>
						<end>6828</end>
						<in>6798</in>
						<out>6858</out>
					</clipitem>
					<clipitem frameBlend="FALSE" id="clipitem-1543">
						<file id="file-1"/>
						<name>bandicam 2025-06-02 00-01-10-144</name>
						<rate>
							<timebase>60</timebase>
							<ntsc>TRUE</ntsc>
						</rate>
						<rate>
							<timebase>60</timebase>
							<ntsc>TRUE</ntsc>
						</rate>
						<duration>6</duration>
						<start>6858</start>
						<end>6864</end>
						<in>6894</in>
						<out>6900</out>
					</clipitem>
					<clipitem frameBlend="FALSE" id="clipitem-1544">
						<file id="file-1"/>
						<name>bandicam 2025-06-02 00-01-10-144</name>
						<rate>
							<timebase>60</timebase>
							<ntsc>TRUE</ntsc>
						</rate>
						<rate>
							<timebase>60</timebase>
							<ntsc>TRUE</ntsc>
						</rate>
						<duration>30</duration>
						<start>6900</start>
						<end>6930</end>
						<in>6912</in>
						<out>6942</out>
					</clipitem>
					<clipitem frameBlend="FALSE" id="clipitem-1545">
						<file id="file-1"/>
						<name>bandicam 2025-06-02 00-01-10-144</name>
						<rate>
							<timebase>60</timebase>
							<ntsc>TRUE</ntsc>
						</rate>
						<rate>
							<timebase>60</timebase>
							<ntsc>TRUE</ntsc>
						</rate>
						<duration>0</duration>
						<start>6942</start>
						<end>6942</end>
						<in>6954</in>
						<out>6954</out>
					</clipitem>
					<clipitem frameBlend="FALSE" id="clipitem-1546">
						<file id="file-1"/>
						<name>bandicam 2025-06-02 00-01-10-144</name>
						<rate>
							<timebase>60</timebase>
							<ntsc>TRUE</ntsc>
						</rate>
						<rate>
							<timebase>60</timebase>
							<ntsc>TRUE</ntsc>
						</rate>
						<duration>0</duration>
						<start>6954</start>
						<end>6954</end>
						<in>7002</in>
						<out>7002</out>
					</clipitem>
					<clipitem frameBlend="FALSE" id="clipitem-1547">
						<file id="file-1"/>
						<name>bandicam 2025-06-02 00-01-10-144</name>
						<rate>
							<timebase>60</timebase>
							<ntsc>TRUE</ntsc>
						</rate>
						<rate>
							<timebase>60</timebase>
							<ntsc>TRUE</ntsc>
						</rate>
						<duration>24</duration>
						<start>7002</start>
						<end>7026</end>
						<in>7026</in>
						<out>7050</out>
					</clipitem>
					<clipitem frameBlend="FALSE" id="clipitem-1548">
						<file id="file-1"/>
						<name>bandicam 2025-06-02 00-01-10-144</name>
						<rate>
							<timebase>60</timebase>
							<ntsc>TRUE</ntsc>
						</rate>
						<rate>
							<timebase>60</timebase>
							<ntsc>TRUE</ntsc>
						</rate>
						<duration>6</duration>
						<start>7050</start>
						<end>7056</end>
						<in>114</in>
						<out>120</out>
					</clipitem>
					<clipitem frameBlend="FALSE" id="clipitem-1549">
						<file id="file-1"/>
						<name>bandicam 2025-06-02 00-01-10-144</name>
						<rate>
							<timebase>60</timebase>
							<ntsc>TRUE</ntsc>
						</rate>
						<rate>
							<timebase>60</timebase>
							<ntsc>TRUE</ntsc>
						</rate>
						<duration>6</duration>
						<start>120</start>
						<end>126</end>
						<in>1410</in>
						<out>1416</out>
					</clipitem>
					<clipitem frameBlend="FALSE" id="clipitem-1550">
						<file id="file-1"/>
						<name>bandicam 2025-06-02 00-01-10-144</name>
						<rate>
							<timebase>60</timebase>
							<ntsc>TRUE</ntsc>
						</rate>
						<rate>
							<timebase>60</timebase>
							<ntsc>TRUE</ntsc>
						</rate>
						<duration>0</duration>
						<start>1416</start>
						<end>1416</end>
						<in>1704</in>
						<out>1704</out>
					</clipitem>
					<clipitem frameBlend="FALSE" id="clipitem-1551">
						<file id="file-1"/>
						<name>bandicam 2025-06-02 00-01-10-144</name>
						<rate>
							<timebase>60</timebase>
							<ntsc>TRUE</ntsc>
						</rate>
						<rate>
							<timebase>60</timebase>
							<ntsc>TRUE</ntsc>
						</rate>
						<duration>12</duration>
						<start>1704</start>
						<end>1716</end>
						<in>1746</in>
						<out>1758</out>
					</clipitem>
					<clipitem frameBlend="FALSE" id="clipitem-1552">
						<file id="file-1"/>
						<name>bandicam 2025-06-02 00-01-10-144</name>
						<rate>
							<timebase>60</timebase>
							<ntsc>TRUE</ntsc>
						</rate>
						<rate>
							<timebase>60</timebase>
							<ntsc>TRUE</ntsc>
						</rate>
						<duration>0</duration>
						<start>1758</start>
						<end>1758</end>
						<in>1890</in>
						<out>1890</out>
					</clipitem>
					<clipitem frameBlend="FALSE" id="clipitem-1553">
						<file id="file-1"/>
						<name>bandicam 2025-06-02 00-01-10-144</name>
						<rate>
							<timebase>60</timebase>
							<ntsc>TRUE</ntsc>
						</rate>
						<rate>
							<timebase>60</timebase>
							<ntsc>TRUE</ntsc>
						</rate>
						<duration>6</duration>
						<start>1890</start>
						<end>1896</end>
						<in>2448</in>
						<out>2454</out>
					</clipitem>
					<clipitem frameBlend="FALSE" id="clipitem-1554">
						<file id="file-1"/>
						<name>bandicam 2025-06-02 00-01-10-144</name>
						<rate>
							<timebase>60</timebase>
							<ntsc>TRUE</ntsc>
						</rate>
						<rate>
							<timebase>60</timebase>
							<ntsc>TRUE</ntsc>
						</rate>
						<duration>12</duration>
						<start>2454</start>
						<end>2466</end>
						<in>2742</in>
						<out>2754</out>
					</clipitem>
					<clipitem frameBlend="FALSE" id="clipitem-1555">
						<file id="file-1"/>
						<name>bandicam 2025-06-02 00-01-10-144</name>
						<rate>
							<timebase>60</timebase>
							<ntsc>TRUE</ntsc>
						</rate>
						<rate>
							<timebase>60</timebase>
							<ntsc>TRUE</ntsc>
						</rate>
						<duration>6</duration>
						<start>2754</start>
						<end>2760</end>
						<in>2766</in>
						<out>2772</out>
					</clipitem>
					<clipitem frameBlend="FALSE" id="clipitem-1556">
						<file id="file-1"/>
						<name>bandicam 2025-06-02 00-01-10-144</name>
						<rate>
							<timebase>60</timebase>
							<ntsc>TRUE</ntsc>
						</rate>
						<rate>
							<timebase>60</timebase>
							<ntsc>TRUE</ntsc>
						</rate>
						<duration>18</duration>
						<start>2772</start>
						<end>2790</end>
						<in>2802</in>
						<out>2820</out>
					</clipitem>
					<clipitem frameBlend="FALSE" id="clipitem-1557">
						<file id="file-1"/>
						<name>bandicam 2025-06-02 00-01-10-144</name>
						<rate>
							<timebase>60</timebase>
							<ntsc>TRUE</ntsc>
						</rate>
						<rate>
							<timebase>60</timebase>
							<ntsc>TRUE</ntsc>
						</rate>
						<duration>30</duration>
						<start>2820</start>
						<end>2850</end>
						<in>3072</in>
						<out>3102</out>
					</clipitem>
					<clipitem frameBlend="FALSE" id="clipitem-1558">
						<file id="file-1"/>
						<name>bandicam 2025-06-02 00-01-10-144</name>
						<rate>
							<timebase>60</timebase>
							<ntsc>TRUE</ntsc>
						</rate>
						<rate>
							<timebase>60</timebase>
							<ntsc>TRUE</ntsc>
						</rate>
						<duration>18</duration>
						<start>3102</start>
						<end>3120</end>
						<in>3270</in>
						<out>3288</out>
					</clipitem>
					<clipitem frameBlend="FALSE" id="clipitem-1559">
						<file id="file-1"/>
						<name>bandicam 2025-06-02 00-01-10-144</name>
						<rate>
							<timebase>60</timebase>
							<ntsc>TRUE</ntsc>
						</rate>
						<rate>
							<timebase>60</timebase>
							<ntsc>TRUE</ntsc>
						</rate>
						<duration>0</duration>
						<start>3288</start>
						<end>3288</end>
						<in>3630</in>
						<out>3630</out>
					</clipitem>
					<clipitem frameBlend="FALSE" id="clipitem-1560">
						<file id="file-1"/>
						<name>bandicam 2025-06-02 00-01-10-144</name>
						<rate>
							<timebase>60</timebase>
							<ntsc>TRUE</ntsc>
						</rate>
						<rate>
							<timebase>60</timebase>
							<ntsc>TRUE</ntsc>
						</rate>
						<duration>6</duration>
						<start>3630</start>
						<end>3636</end>
						<in>4086</in>
						<out>4092</out>
					</clipitem>
					<clipitem frameBlend="FALSE" id="clipitem-1561">
						<file id="file-1"/>
						<name>bandicam 2025-06-02 00-01-10-144</name>
						<rate>
							<timebase>60</timebase>
							<ntsc>TRUE</ntsc>
						</rate>
						<rate>
							<timebase>60</timebase>
							<ntsc>TRUE</ntsc>
						</rate>
						<duration>6</duration>
						<start>4092</start>
						<end>4098</end>
						<in>4104</in>
						<out>4110</out>
					</clipitem>
					<clipitem frameBlend="FALSE" id="clipitem-1562">
						<file id="file-1"/>
						<name>bandicam 2025-06-02 00-01-10-144</name>
						<rate>
							<timebase>60</timebase>
							<ntsc>TRUE</ntsc>
						</rate>
						<rate>
							<timebase>60</timebase>
							<ntsc>TRUE</ntsc>
						</rate>
						<duration>0</duration>
						<start>4110</start>
						<end>4110</end>
						<in>4134</in>
						<out>4134</out>
					</clipitem>
					<clipitem frameBlend="FALSE" id="clipitem-1563">
						<file id="file-1"/>
						<name>bandicam 2025-06-02 00-01-10-144</name>
						<rate>
							<timebase>60</timebase>
							<ntsc>TRUE</ntsc>
						</rate>
						<rate>
							<timebase>60</timebase>
							<ntsc>TRUE</ntsc>
						</rate>
						<duration>6</duration>
						<start>4134</start>
						<end>4140</end>
						<in>4188</in>
						<out>4194</out>
					</clipitem>
					<clipitem frameBlend="FALSE" id="clipitem-1564">
						<file id="file-1"/>
						<name>bandicam 2025-06-02 00-01-10-144</name>
						<rate>
							<timebase>60</timebase>
							<ntsc>TRUE</ntsc>
						</rate>
						<rate>
							<timebase>60</timebase>
							<ntsc>TRUE</ntsc>
						</rate>
						<duration>0</duration>
						<start>4194</start>
						<end>4194</end>
						<in>4230</in>
						<out>4230</out>
					</clipitem>
					<clipitem frameBlend="FALSE" id="clipitem-1565">
						<file id="file-1"/>
						<name>bandicam 2025-06-02 00-01-10-144</name>
						<rate>
							<timebase>60</timebase>
							<ntsc>TRUE</ntsc>
						</rate>
						<rate>
							<timebase>60</timebase>
							<ntsc>TRUE</ntsc>
						</rate>
						<duration>6</duration>
						<start>4230</start>
						<end>4236</end>
						<in>4242</in>
						<out>4248</out>
					</clipitem>
					<clipitem frameBlend="FALSE" id="clipitem-1566">
						<file id="file-1"/>
						<name>bandicam 2025-06-02 00-01-10-144</name>
						<rate>
							<timebase>60</timebase>
							<ntsc>TRUE</ntsc>
						</rate>
						<rate>
							<timebase>60</timebase>
							<ntsc>TRUE</ntsc>
						</rate>
						<duration>12</duration>
						<start>4248</start>
						<end>4260</end>
						<in>4308</in>
						<out>4320</out>
					</clipitem>
					<clipitem frameBlend="FALSE" id="clipitem-1567">
						<file id="file-1"/>
						<name>bandicam 2025-06-02 00-01-10-144</name>
						<rate>
							<timebase>60</timebase>
							<ntsc>TRUE</ntsc>
						</rate>
						<rate>
							<timebase>60</timebase>
							<ntsc>TRUE</ntsc>
						</rate>
						<duration>18</duration>
						<start>4320</start>
						<end>4338</end>
						<in>4338</in>
						<out>4356</out>
					</clipitem>
					<clipitem frameBlend="FALSE" id="clipitem-1568">
						<file id="file-1"/>
						<name>bandicam 2025-06-02 00-01-10-144</name>
						<rate>
							<timebase>60</timebase>
							<ntsc>TRUE</ntsc>
						</rate>
						<rate>
							<timebase>60</timebase>
							<ntsc>TRUE</ntsc>
						</rate>
						<duration>0</duration>
						<start>4356</start>
						<end>4356</end>
						<in>4368</in>
						<out>4368</out>
					</clipitem>
					<clipitem frameBlend="FALSE" id="clipitem-1569">
						<file id="file-1"/>
						<name>bandicam 2025-06-02 00-01-10-144</name>
						<rate>
							<timebase>60</timebase>
							<ntsc>TRUE</ntsc>
						</rate>
						<rate>
							<timebase>60</timebase>
							<ntsc>TRUE</ntsc>
						</rate>
						<duration>6</duration>
						<start>4368</start>
						<end>4374</end>
						<in>4506</in>
						<out>4512</out>
					</clipitem>
					<clipitem frameBlend="FALSE" id="clipitem-1570">
						<file id="file-1"/>
						<name>bandicam 2025-06-02 00-01-10-144</name>
						<rate>
							<timebase>60</timebase>
							<ntsc>TRUE</ntsc>
						</rate>
						<rate>
							<timebase>60</timebase>
							<ntsc>TRUE</ntsc>
						</rate>
						<duration>0</duration>
						<start>4512</start>
						<end>4512</end>
						<in>4602</in>
						<out>4602</out>
					</clipitem>
					<clipitem frameBlend="FALSE" id="clipitem-1571">
						<file id="file-1"/>
						<name>bandicam 2025-06-02 00-01-10-144</name>
						<rate>
							<timebase>60</timebase>
							<ntsc>TRUE</ntsc>
						</rate>
						<rate>
							<timebase>60</timebase>
							<ntsc>TRUE</ntsc>
						</rate>
						<duration>6</duration>
						<start>4602</start>
						<end>4608</end>
						<in>4614</in>
						<out>4620</out>
					</clipitem>
					<clipitem frameBlend="FALSE" id="clipitem-1572">
						<file id="file-1"/>
						<name>bandicam 2025-06-02 00-01-10-144</name>
						<rate>
							<timebase>60</timebase>
							<ntsc>TRUE</ntsc>
						</rate>
						<rate>
							<timebase>60</timebase>
							<ntsc>TRUE</ntsc>
						</rate>
						<duration>0</duration>
						<start>4620</start>
						<end>4620</end>
						<in>4722</in>
						<out>4722</out>
					</clipitem>
					<clipitem frameBlend="FALSE" id="clipitem-1573">
						<file id="file-1"/>
						<name>bandicam 2025-06-02 00-01-10-144</name>
						<rate>
							<timebase>60</timebase>
							<ntsc>TRUE</ntsc>
						</rate>
						<rate>
							<timebase>60</timebase>
							<ntsc>TRUE</ntsc>
						</rate>
						<duration>6</duration>
						<start>4722</start>
						<end>4728</end>
						<in>5112</in>
						<out>5118</out>
					</clipitem>
					<clipitem frameBlend="FALSE" id="clipitem-1574">
						<file id="file-1"/>
						<name>bandicam 2025-06-02 00-01-10-144</name>
						<rate>
							<timebase>60</timebase>
							<ntsc>TRUE</ntsc>
						</rate>
						<rate>
							<timebase>60</timebase>
							<ntsc>TRUE</ntsc>
						</rate>
						<duration>6</duration>
						<start>5118</start>
						<end>5124</end>
						<in>5142</in>
						<out>5148</out>
					</clipitem>
					<clipitem frameBlend="FALSE" id="clipitem-1575">
						<file id="file-1"/>
						<name>bandicam 2025-06-02 00-01-10-144</name>
						<rate>
							<timebase>60</timebase>
							<ntsc>TRUE</ntsc>
						</rate>
						<rate>
							<timebase>60</timebase>
							<ntsc>TRUE</ntsc>
						</rate>
						<duration>12</duration>
						<start>5148</start>
						<end>5160</end>
						<in>5160</in>
						<out>5172</out>
					</clipitem>
					<clipitem frameBlend="FALSE" id="clipitem-1576">
						<file id="file-1"/>
						<name>bandicam 2025-06-02 00-01-10-144</name>
						<rate>
							<timebase>60</timebase>
							<ntsc>TRUE</ntsc>
						</rate>
						<rate>
							<timebase>60</timebase>
							<ntsc>TRUE</ntsc>
						</rate>
						<duration>0</duration>
						<start>5172</start>
						<end>5172</end>
						<in>5340</in>
						<out>5340</out>
					</clipitem>
					<clipitem frameBlend="FALSE" id="clipitem-1577">
						<file id="file-1"/>
						<name>bandicam 2025-06-02 00-01-10-144</name>
						<rate>
							<timebase>60</timebase>
							<ntsc>TRUE</ntsc>
						</rate>
						<rate>
							<timebase>60</timebase>
							<ntsc>TRUE</ntsc>
						</rate>
						<duration>0</duration>
						<start>5340</start>
						<end>5340</end>
						<in>5448</in>
						<out>5448</out>
					</clipitem>
					<clipitem frameBlend="FALSE" id="clipitem-1578">
						<file id="file-1"/>
						<name>bandicam 2025-06-02 00-01-10-144</name>
						<rate>
							<timebase>60</timebase>
							<ntsc>TRUE</ntsc>
						</rate>
						<rate>
							<timebase>60</timebase>
							<ntsc>TRUE</ntsc>
						</rate>
						<duration>0</duration>
						<start>5448</start>
						<end>5448</end>
						<in>5592</in>
						<out>5592</out>
					</clipitem>
					<clipitem frameBlend="FALSE" id="clipitem-1579">
						<file id="file-1"/>
						<name>bandicam 2025-06-02 00-01-10-144</name>
						<rate>
							<timebase>60</timebase>
							<ntsc>TRUE</ntsc>
						</rate>
						<rate>
							<timebase>60</timebase>
							<ntsc>TRUE</ntsc>
						</rate>
						<duration>18</duration>
						<start>5592</start>
						<end>5610</end>
						<in>5670</in>
						<out>5688</out>
					</clipitem>
					<clipitem frameBlend="FALSE" id="clipitem-1580">
						<file id="file-1"/>
						<name>bandicam 2025-06-02 00-01-10-144</name>
						<rate>
							<timebase>60</timebase>
							<ntsc>TRUE</ntsc>
						</rate>
						<rate>
							<timebase>60</timebase>
							<ntsc>TRUE</ntsc>
						</rate>
						<duration>18</duration>
						<start>5688</start>
						<end>5706</end>
						<in>5760</in>
						<out>5778</out>
					</clipitem>
					<clipitem frameBlend="FALSE" id="clipitem-1581">
						<file id="file-1"/>
						<name>bandicam 2025-06-02 00-01-10-144</name>
						<rate>
							<timebase>60</timebase>
							<ntsc>TRUE</ntsc>
						</rate>
						<rate>
							<timebase>60</timebase>
							<ntsc>TRUE</ntsc>
						</rate>
						<duration>72</duration>
						<start>5778</start>
						<end>5850</end>
						<in>5802</in>
						<out>5874</out>
					</clipitem>
					<clipitem frameBlend="FALSE" id="clipitem-1582">
						<file id="file-1"/>
						<name>bandicam 2025-06-02 00-01-10-144</name>
						<rate>
							<timebase>60</timebase>
							<ntsc>TRUE</ntsc>
						</rate>
						<rate>
							<timebase>60</timebase>
							<ntsc>TRUE</ntsc>
						</rate>
						<duration>48</duration>
						<start>5874</start>
						<end>5922</end>
						<in>5910</in>
						<out>5958</out>
					</clipitem>
					<clipitem frameBlend="FALSE" id="clipitem-1583">
						<file id="file-1"/>
						<name>bandicam 2025-06-02 00-01-10-144</name>
						<rate>
							<timebase>60</timebase>
							<ntsc>TRUE</ntsc>
						</rate>
						<rate>
							<timebase>60</timebase>
							<ntsc>TRUE</ntsc>
						</rate>
						<duration>0</duration>
						<start>5958</start>
						<end>5958</end>
						<in>6000</in>
						<out>6000</out>
					</clipitem>
					<clipitem frameBlend="FALSE" id="clipitem-1584">
						<file id="file-1"/>
						<name>bandicam 2025-06-02 00-01-10-144</name>
						<rate>
							<timebase>60</timebase>
							<ntsc>TRUE</ntsc>
						</rate>
						<rate>
							<timebase>60</timebase>
							<ntsc>TRUE</ntsc>
						</rate>
						<duration>18</duration>
						<start>6000</start>
						<end>6018</end>
						<in>6012</in>
						<out>6030</out>
					</clipitem>
					<clipitem frameBlend="FALSE" id="clipitem-1585">
						<file id="file-1"/>
						<name>bandicam 2025-06-02 00-01-10-144</name>
						<rate>
							<timebase>60</timebase>
							<ntsc>TRUE</ntsc>
						</rate>
						<rate>
							<timebase>60</timebase>
							<ntsc>TRUE</ntsc>
						</rate>
						<duration>24</duration>
						<start>6030</start>
						<end>6054</end>
						<in>6156</in>
						<out>6180</out>
					</clipitem>
					<clipitem frameBlend="FALSE" id="clipitem-1586">
						<file id="file-1"/>
						<name>bandicam 2025-06-02 00-01-10-144</name>
						<rate>
							<timebase>60</timebase>
							<ntsc>TRUE</ntsc>
						</rate>
						<rate>
							<timebase>60</timebase>
							<ntsc>TRUE</ntsc>
						</rate>
						<duration>0</duration>
						<start>6180</start>
						<end>6180</end>
						<in>6234</in>
						<out>6234</out>
					</clipitem>
				</track>
				<track>
					<clipitem frameBlend="FALSE" id="clipitem-rejected-1">
						<file id="file-1"/>
						<name>[REJECTED] bandicam 2025-06-02 00-01-10-144</name>
						<rate>
							<timebase>60</timebase>
							<ntsc>TRUE</ntsc>
						</rate>
						<rate>
							<timebase>60</timebase>
							<ntsc>TRUE</ntsc>
						</rate>
						<duration>6</duration>
						<start>0</start>
						<end>6</end>
						<in>0</in>
						<out>6</out>
						<enabled>FALSE</enabled>
					</clipitem>
					<clipitem frameBlend="FALSE" id="clipitem-rejected-2">
						<file id="file-1"/>
						<name>[REJECTED] bandicam 2025-06-02 00-01-10-144</name>
						<rate>
							<timebase>60</timebase>
							<ntsc>TRUE</ntsc>
						</rate>
						<rate>
							<timebase>60</timebase>
							<ntsc>TRUE</ntsc>
						</rate>
						<duration>18</duration>
						<start>30</start>
						<end>48</end>
						<in>30</in>
						<out>48</out>
						<enabled>FALSE</enabled>
					</clipitem>
					<clipitem frameBlend="FALSE" id="clipitem-rejected-3">
						<file id="file-1"/>
						<name>[REJECTED] bandicam 2025-06-02 00-01-10-144</name>
						<rate>
							<timebase>60</timebase>
							<ntsc>TRUE</ntsc>
						</rate>
						<rate>
							<timebase>60</timebase>
							<ntsc>TRUE</ntsc>
						</rate>
						<duration>6</duration>
						<start>96</start>
						<end>102</end>
						<in>96</in>
						<out>102</out>
						<enabled>FALSE</enabled>
					</clipitem>
					<clipitem frameBlend="FALSE" id="clipitem-rejected-4">
						<file id="file-1"/>
						<name>[REJECTED] bandicam 2025-06-02 00-01-10-144</name>
						<rate>
							<timebase>60</timebase>
							<ntsc>TRUE</ntsc>
						</rate>
						<rate>
							<timebase>60</timebase>
							<ntsc>TRUE</ntsc>
						</rate>
						<duration>36</duration>
						<start>132</start>
						<end>168</end>
						<in>132</in>
						<out>168</out>
						<enabled>FALSE</enabled>
					</clipitem>
					<clipitem frameBlend="FALSE" id="clipitem-rejected-5">
						<file id="file-1"/>
						<name>[REJECTED] bandicam 2025-06-02 00-01-10-144</name>
						<rate>
							<timebase>60</timebase>
							<ntsc>TRUE</ntsc>
						</rate>
						<rate>
							<timebase>60</timebase>
							<ntsc>TRUE</ntsc>
						</rate>
						<duration>102</duration>
						<start>192</start>
						<end>294</end>
						<in>192</in>
						<out>294</out>
						<enabled>FALSE</enabled>
					</clipitem>
					<clipitem frameBlend="FALSE" id="clipitem-rejected-6">
						<file id="file-1"/>
						<name>[REJECTED] bandicam 2025-06-02 00-01-10-144</name>
						<rate>
							<timebase>60</timebase>
							<ntsc>TRUE</ntsc>
						</rate>
						<rate>
							<timebase>60</timebase>
							<ntsc>TRUE</ntsc>
						</rate>
						<duration>48</duration>
						<start>306</start>
						<end>354</end>
						<in>306</in>
						<out>354</out>
						<enabled>FALSE</enabled>
					</clipitem>
					<clipitem frameBlend="FALSE" id="clipitem-rejected-7">
						<file id="file-1"/>
						<name>[REJECTED] bandicam 2025-06-02 00-01-10-144</name>
						<rate>
							<timebase>60</timebase>
							<ntsc>TRUE</ntsc>
						</rate>
						<rate>
							<timebase>60</timebase>
							<ntsc>TRUE</ntsc>
						</rate>
						<duration>54</duration>
						<start>378</start>
						<end>432</end>
						<in>378</in>
						<out>432</out>
						<enabled>FALSE</enabled>
					</clipitem>
					<clipitem frameBlend="FALSE" id="clipitem-rejected-8">
						<file id="file-1"/>
						<name>[REJECTED] bandicam 2025-06-02 00-01-10-144</name>
						<rate>
							<timebase>60</timebase>
							<ntsc>TRUE</ntsc>
						</rate>
						<rate>
							<timebase>60</timebase>
							<ntsc>TRUE</ntsc>
						</rate>
						<duration>0</duration>
						<start>444</start>
						<end>444</end>
						<in>444</in>
						<out>444</out>
						<enabled>FALSE</enabled>
					</clipitem>
					<clipitem frameBlend="FALSE" id="clipitem-rejected-9">
						<file id="file-1"/>
						<name>[REJECTED] bandicam 2025-06-02 00-01-10-144</name>
						<rate>
							<timebase>60</timebase>
							<ntsc>TRUE</ntsc>
						</rate>
						<rate>
							<timebase>60</timebase>
							<ntsc>TRUE</ntsc>
						</rate>
						<duration>6</duration>
						<start>492</start>
						<end>498</end>
						<in>492</in>
						<out>498</out>
						<enabled>FALSE</enabled>
					</clipitem>
					<clipitem frameBlend="FALSE" id="clipitem-rejected-10">
						<file id="file-1"/>
						<name>[REJECTED] bandicam 2025-06-02 00-01-10-144</name>
						<rate>
							<timebase>60</timebase>
							<ntsc>TRUE</ntsc>
						</rate>
						<rate>
							<timebase>60</timebase>
							<ntsc>TRUE</ntsc>
						</rate>
						<duration>12</duration>
						<start>510</start>
						<end>522</end>
						<in>510</in>
						<out>522</out>
						<enabled>FALSE</enabled>
					</clipitem>
					<clipitem frameBlend="FALSE" id="clipitem-rejected-11">
						<file id="file-1"/>
						<name>[REJECTED] bandicam 2025-06-02 00-01-10-144</name>
						<rate>
							<timebase>60</timebase>
							<ntsc>TRUE</ntsc>
						</rate>
						<rate>
							<timebase>60</timebase>
							<ntsc>TRUE</ntsc>
						</rate>
						<duration>30</duration>
						<start>546</start>
						<end>576</end>
						<in>546</in>
						<out>576</out>
						<enabled>FALSE</enabled>
					</clipitem>
					<clipitem frameBlend="FALSE" id="clipitem-rejected-12">
						<file id="file-1"/>
						<name>[REJECTED] bandicam 2025-06-02 00-01-10-144</name>
						<rate>
							<timebase>60</timebase>
							<ntsc>TRUE</ntsc>
						</rate>
						<rate>
							<timebase>60</timebase>
							<ntsc>TRUE</ntsc>
						</rate>
						<duration>6</duration>
						<start>612</start>
						<end>618</end>
						<in>612</in>
						<out>618</out>
						<enabled>FALSE</enabled>
					</clipitem>
					<clipitem frameBlend="FALSE" id="clipitem-rejected-13">
						<file id="file-1"/>
						<name>[REJECTED] bandicam 2025-06-02 00-01-10-144</name>
						<rate>
							<timebase>60</timebase>
							<ntsc>TRUE</ntsc>
						</rate>
						<rate>
							<timebase>60</timebase>
							<ntsc>TRUE</ntsc>
						</rate>
						<duration>204</duration>
						<start>642</start>
						<end>846</end>
						<in>642</in>
						<out>846</out>
						<enabled>FALSE</enabled>
					</clipitem>
					<clipitem frameBlend="FALSE" id="clipitem-rejected-14">
						<file id="file-1"/>
						<name>[REJECTED] bandicam 2025-06-02 00-01-10-144</name>
						<rate>
							<timebase>60</timebase>
							<ntsc>TRUE</ntsc>
						</rate>
						<rate>
							<timebase>60</timebase>
							<ntsc>TRUE</ntsc>
						</rate>
						<duration>48</duration>
						<start>858</start>
						<end>906</end>
						<in>858</in>
						<out>906</out>
						<enabled>FALSE</enabled>
					</clipitem>
					<clipitem frameBlend="FALSE" id="clipitem-rejected-15">
						<file id="file-1"/>
						<name>[REJECTED] bandicam 2025-06-02 00-01-10-144</name>
						<rate>
							<timebase>60</timebase>
							<ntsc>TRUE</ntsc>
						</rate>
						<rate>
							<timebase>60</timebase>
							<ntsc>TRUE</ntsc>
						</rate>
						<duration>12</duration>
						<start>918</start>
						<end>930</end>
						<in>918</in>
						<out>930</out>
						<enabled>FALSE</enabled>
					</clipitem>
					<clipitem frameBlend="FALSE" id="clipitem-rejected-16">
						<file id="file-1"/>
						<name>[REJECTED] bandicam 2025-06-02 00-01-10-144</name>
						<rate>
							<timebase>60</timebase>
							<ntsc>TRUE</ntsc>
						</rate>
						<rate>
							<timebase>60</timebase>
							<ntsc>TRUE</ntsc>
						</rate>
						<duration>6</duration>
						<start>942</start>
						<end>948</end>
						<in>942</in>
						<out>948</out>
						<enabled>FALSE</enabled>
					</clipitem>
					<clipitem frameBlend="FALSE" id="clipitem-rejected-17">
						<file id="file-1"/>
						<name>[REJECTED] bandicam 2025-06-02 00-01-10-144</name>
						<rate>
							<timebase>60</timebase>
							<ntsc>TRUE</ntsc>
						</rate>
						<rate>
							<timebase>60</timebase>
							<ntsc>TRUE</ntsc>
						</rate>
						<duration>18</duration>
						<start>960</start>
						<end>978</end>
						<in>960</in>
						<out>978</out>
						<enabled>FALSE</enabled>
					</clipitem>
					<clipitem frameBlend="FALSE" id="clipitem-rejected-18">
						<file id="file-1"/>
						<name>[REJECTED] bandicam 2025-06-02 00-01-10-144</name>
						<rate>
							<timebase>60</timebase>
							<ntsc>TRUE</ntsc>
						</rate>
						<rate>
							<timebase>60</timebase>
							<ntsc>TRUE</ntsc>
						</rate>
						<duration>78</duration>
						<start>1002</start>
						<end>1080</end>
						<in>1002</in>
						<out>1080</out>
						<enabled>FALSE</enabled>
					</clipitem>
					<clipitem frameBlend="FALSE" id="clipitem-rejected-19">
						<file id="file-1"/>
						<name>[REJECTED] bandicam 2025-06-02 00-01-10-144</name>
						<rate>
							<timebase>60</timebase>
							<ntsc>TRUE</ntsc>
						</rate>
						<rate>
							<timebase>60</timebase>
							<ntsc>TRUE</ntsc>
						</rate>
						<duration>84</duration>
						<start>1104</start>
						<end>1188</end>
						<in>1104</in>
						<out>1188</out>
						<enabled>FALSE</enabled>
					</clipitem>
					<clipitem frameBlend="FALSE" id="clipitem-rejected-20">
						<file id="file-1"/>
						<name>[REJECTED] bandicam 2025-06-02 00-01-10-144</name>
						<rate>
							<timebase>60</timebase>
							<ntsc>TRUE</ntsc>
						</rate>
						<rate>
							<timebase>60</timebase>
							<ntsc>TRUE</ntsc>
						</rate>
						<duration>0</duration>
						<start>1200</start>
						<end>1200</end>
						<in>1200</in>
						<out>1200</out>
						<enabled>FALSE</enabled>
					</clipitem>
					<clipitem frameBlend="FALSE" id="clipitem-rejected-21">
						<file id="file-1"/>
						<name>[REJECTED] bandicam 2025-06-02 00-01-10-144</name>
						<rate>
							<timebase>60</timebase>
							<ntsc>TRUE</ntsc>
						</rate>
						<rate>
							<timebase>60</timebase>
							<ntsc>TRUE</ntsc>
						</rate>
						<duration>90</duration>
						<start>1224</start>
						<end>1314</end>
						<in>1224</in>
						<out>1314</out>
						<enabled>FALSE</enabled>
					</clipitem>
					<clipitem frameBlend="FALSE" id="clipitem-rejected-22">
						<file id="file-1"/>
						<name>[REJECTED] bandicam 2025-06-02 00-01-10-144</name>
						<rate>
							<timebase>60</timebase>
							<ntsc>TRUE</ntsc>
						</rate>
						<rate>
							<timebase>60</timebase>
							<ntsc>TRUE</ntsc>
						</rate>
						<duration>54</duration>
						<start>1326</start>
						<end>1380</end>
						<in>1326</in>
						<out>1380</out>
						<enabled>FALSE</enabled>
					</clipitem>
					<clipitem frameBlend="FALSE" id="clipitem-rejected-23">
						<file id="file-1"/>
						<name>[REJECTED] bandicam 2025-06-02 00-01-10-144</name>
						<rate>
							<timebase>60</timebase>
							<ntsc>TRUE</ntsc>
						</rate>
						<rate>
							<timebase>60</timebase>
							<ntsc>TRUE</ntsc>
						</rate>
						<duration>6</duration>
						<start>1392</start>
						<end>1398</end>
						<in>1392</in>
						<out>1398</out>
						<enabled>FALSE</enabled>
					</clipitem>
					<clipitem frameBlend="FALSE" id="clipitem-rejected-24">
						<file id="file-1"/>
						<name>[REJECTED] bandicam 2025-06-02 00-01-10-144</name>
						<rate>
							<timebase>60</timebase>
							<ntsc>TRUE</ntsc>
						</rate>
						<rate>
							<timebase>60</timebase>
							<ntsc>TRUE</ntsc>
						</rate>
						<duration>12</duration>
						<start>1428</start>
						<end>1440</end>
						<in>1428</in>
						<out>1440</out>
						<enabled>FALSE</enabled>
					</clipitem>
					<clipitem frameBlend="FALSE" id="clipitem-rejected-25">
						<file id="file-1"/>
						<name>[REJECTED] bandicam 2025-06-02 00-01-10-144</name>
						<rate>
							<timebase>60</timebase>
							<ntsc>TRUE</ntsc>
						</rate>
						<rate>
							<timebase>60</timebase>
							<ntsc>TRUE</ntsc>
						</rate>
						<duration>96</duration>
						<start>1464</start>
						<end>1560</end>
						<in>1464</in>
						<out>1560</out>
						<enabled>FALSE</enabled>
					</clipitem>
					<clipitem frameBlend="FALSE" id="clipitem-rejected-26">
						<file id="file-1"/>
						<name>[REJECTED] bandicam 2025-06-02 00-01-10-144</name>
						<rate>
							<timebase>60</timebase>
							<ntsc>TRUE</ntsc>
						</rate>
						<rate>
							<timebase>60</timebase>
							<ntsc>TRUE</ntsc>
						</rate>
						<duration>102</duration>
						<start>1584</start>
						<end>1686</end>
						<in>1584</in>
						<out>1686</out>
						<enabled>FALSE</enabled>
					</clipitem>
					<clipitem frameBlend="FALSE" id="clipitem-rejected-27">
						<file id="file-1"/>
						<name>[REJECTED] bandicam 2025-06-02 00-01-10-144</name>
						<rate>
							<timebase>60</timebase>
							<ntsc>TRUE</ntsc>
						</rate>
						<rate>
							<timebase>60</timebase>
							<ntsc>TRUE</ntsc>
						</rate>
						<duration>12</duration>
						<start>1728</start>
						<end>1740</end>
						<in>1728</in>
						<out>1740</out>
						<enabled>FALSE</enabled>
					</clipitem>
					<clipitem frameBlend="FALSE" id="clipitem-rejected-28">
						<file id="file-1"/>
						<name>[REJECTED] bandicam 2025-06-02 00-01-10-144</name>
						<rate>
							<timebase>60</timebase>
							<ntsc>TRUE</ntsc>
						</rate>
						<rate>
							<timebase>60</timebase>
							<ntsc>TRUE</ntsc>
						</rate>
						<duration>0</duration>
						<start>1770</start>
						<end>1770</end>
						<in>1770</in>
						<out>1770</out>
						<enabled>FALSE</enabled>
					</clipitem>
					<clipitem frameBlend="FALSE" id="clipitem-rejected-29">
						<file id="file-1"/>
						<name>[REJECTED] bandicam 2025-06-02 00-01-10-144</name>
						<rate>
							<timebase>60</timebase>
							<ntsc>TRUE</ntsc>
						</rate>
						<rate>
							<timebase>60</timebase>
							<ntsc>TRUE</ntsc>
						</rate>
						<duration>24</duration>
						<start>1782</start>
						<end>1806</end>
						<in>1782</in>
						<out>1806</out>
						<enabled>FALSE</enabled>
					</clipitem>
					<clipitem frameBlend="FALSE" id="clipitem-rejected-30">
						<file id="file-1"/>
						<name>[REJECTED] bandicam 2025-06-02 00-01-10-144</name>
						<rate>
							<timebase>60</timebase>
							<ntsc>TRUE</ntsc>
						</rate>
						<rate>
							<timebase>60</timebase>
							<ntsc>TRUE</ntsc>
						</rate>
						<duration>0</duration>
						<start>1824</start>
						<end>1824</end>
						<in>1824</in>
						<out>1824</out>
						<enabled>FALSE</enabled>
					</clipitem>
					<clipitem frameBlend="FALSE" id="clipitem-rejected-31">
						<file id="file-1"/>
						<name>[REJECTED] bandicam 2025-06-02 00-01-10-144</name>
						<rate>
							<timebase>60</timebase>
							<ntsc>TRUE</ntsc>
						</rate>
						<rate>
							<timebase>60</timebase>
							<ntsc>TRUE</ntsc>
						</rate>
						<duration>0</duration>
						<start>1836</start>
						<end>1836</end>
						<in>1836</in>
						<out>1836</out>
						<enabled>FALSE</enabled>
					</clipitem>
					<clipitem frameBlend="FALSE" id="clipitem-rejected-32">
						<file id="file-1"/>
						<name>[REJECTED] bandicam 2025-06-02 00-01-10-144</name>
						<rate>
							<timebase>60</timebase>
							<ntsc>TRUE</ntsc>
						</rate>
						<rate>
							<timebase>60</timebase>
							<ntsc>TRUE</ntsc>
						</rate>
						<duration>6</duration>
						<start>1860</start>
						<end>1866</end>
						<in>1860</in>
						<out>1866</out>
						<enabled>FALSE</enabled>
					</clipitem>
					<clipitem frameBlend="FALSE" id="clipitem-rejected-33">
						<file id="file-1"/>
						<name>[REJECTED] bandicam 2025-06-02 00-01-10-144</name>
						<rate>
							<timebase>60</timebase>
							<ntsc>TRUE</ntsc>
						</rate>
						<rate>
							<timebase>60</timebase>
							<ntsc>TRUE</ntsc>
						</rate>
						<duration>0</duration>
						<start>1878</start>
						<end>1878</end>
						<in>1878</in>
						<out>1878</out>
						<enabled>FALSE</enabled>
					</clipitem>
					<clipitem frameBlend="FALSE" id="clipitem-rejected-34">
						<file id="file-1"/>
						<name>[REJECTED] bandicam 2025-06-02 00-01-10-144</name>
						<rate>
							<timebase>60</timebase>
							<ntsc>TRUE</ntsc>
						</rate>
						<rate>
							<timebase>60</timebase>
							<ntsc>TRUE</ntsc>
						</rate>
						<duration>24</duration>
						<start>1896</start>
						<end>1920</end>
						<in>1896</in>
						<out>1920</out>
						<enabled>FALSE</enabled>
					</clipitem>
					<clipitem frameBlend="FALSE" id="clipitem-rejected-35">
						<file id="file-1"/>
						<name>[REJECTED] bandicam 2025-06-02 00-01-10-144</name>
						<rate>
							<timebase>60</timebase>
							<ntsc>TRUE</ntsc>
						</rate>
						<rate>
							<timebase>60</timebase>
							<ntsc>TRUE</ntsc>
						</rate>
						<duration>228</duration>
						<start>1944</start>
						<end>2172</end>
						<in>1944</in>
						<out>2172</out>
						<enabled>FALSE</enabled>
					</clipitem>
					<clipitem frameBlend="FALSE" id="clipitem-rejected-36">
						<file id="file-1"/>
						<name>[REJECTED] bandicam 2025-06-02 00-01-10-144</name>
						<rate>
							<timebase>60</timebase>
							<ntsc>TRUE</ntsc>
						</rate>
						<rate>
							<timebase>60</timebase>
							<ntsc>TRUE</ntsc>
						</rate>
						<duration>78</duration>
						<start>2196</start>
						<end>2274</end>
						<in>2196</in>
						<out>2274</out>
						<enabled>FALSE</enabled>
					</clipitem>
					<clipitem frameBlend="FALSE" id="clipitem-rejected-37">
						<file id="file-1"/>
						<name>[REJECTED] bandicam 2025-06-02 00-01-10-144</name>
						<rate>
							<timebase>60</timebase>
							<ntsc>TRUE</ntsc>
						</rate>
						<rate>
							<timebase>60</timebase>
							<ntsc>TRUE</ntsc>
						</rate>
						<duration>0</duration>
						<start>2298</start>
						<end>2298</end>
						<in>2298</in>
						<out>2298</out>
						<enabled>FALSE</enabled>
					</clipitem>
					<clipitem frameBlend="FALSE" id="clipitem-rejected-38">
						<file id="file-1"/>
						<name>[REJECTED] bandicam 2025-06-02 00-01-10-144</name>
						<rate>
							<timebase>60</timebase>
							<ntsc>TRUE</ntsc>
						</rate>
						<rate>
							<timebase>60</timebase>
							<ntsc>TRUE</ntsc>
						</rate>
						<duration>90</duration>
						<start>2352</start>
						<end>2442</end>
						<in>2352</in>
						<out>2442</out>
						<enabled>FALSE</enabled>
					</clipitem>
					<clipitem frameBlend="FALSE" id="clipitem-rejected-39">
						<file id="file-1"/>
						<name>[REJECTED] bandicam 2025-06-02 00-01-10-144</name>
						<rate>
							<timebase>60</timebase>
							<ntsc>TRUE</ntsc>
						</rate>
						<rate>
							<timebase>60</timebase>
							<ntsc>TRUE</ntsc>
						</rate>
						<duration>6</duration>
						<start>2466</start>
						<end>2472</end>
						<in>2466</in>
						<out>2472</out>
						<enabled>FALSE</enabled>
					</clipitem>
					<clipitem frameBlend="FALSE" id="clipitem-rejected-40">
						<file id="file-1"/>
						<name>[REJECTED] bandicam 2025-06-02 00-01-10-144</name>
						<rate>
							<timebase>60</timebase>
							<ntsc>TRUE</ntsc>
						</rate>
						<rate>
							<timebase>60</timebase>
							<ntsc>TRUE</ntsc>
						</rate>
						<duration>0</duration>
						<start>2490</start>
						<end>2490</end>
						<in>2490</in>
						<out>2490</out>
						<enabled>FALSE</enabled>
					</clipitem>
					<clipitem frameBlend="FALSE" id="clipitem-rejected-41">
						<file id="file-1"/>
						<name>[REJECTED] bandicam 2025-06-02 00-01-10-144</name>
						<rate>
							<timebase>60</timebase>
							<ntsc>TRUE</ntsc>
						</rate>
						<rate>
							<timebase>60</timebase>
							<ntsc>TRUE</ntsc>
						</rate>
						<duration>24</duration>
						<start>2508</start>
						<end>2532</end>
						<in>2508</in>
						<out>2532</out>
						<enabled>FALSE</enabled>
					</clipitem>
					<clipitem frameBlend="FALSE" id="clipitem-rejected-42">
						<file id="file-1"/>
						<name>[REJECTED] bandicam 2025-06-02 00-01-10-144</name>
						<rate>
							<timebase>60</timebase>
							<ntsc>TRUE</ntsc>
						</rate>
						<rate>
							<timebase>60</timebase>
							<ntsc>TRUE</ntsc>
						</rate>
						<duration>0</duration>
						<start>2556</start>
						<end>2556</end>
						<in>2556</in>
						<out>2556</out>
						<enabled>FALSE</enabled>
					</clipitem>
					<clipitem frameBlend="FALSE" id="clipitem-rejected-43">
						<file id="file-1"/>
						<name>[REJECTED] bandicam 2025-06-02 00-01-10-144</name>
						<rate>
							<timebase>60</timebase>
							<ntsc>TRUE</ntsc>
						</rate>
						<rate>
							<timebase>60</timebase>
							<ntsc>TRUE</ntsc>
						</rate>
						<duration>12</duration>
						<start>2574</start>
						<end>2586</end>
						<in>2574</in>
						<out>2586</out>
						<enabled>FALSE</enabled>
					</clipitem>
					<clipitem frameBlend="FALSE" id="clipitem-rejected-44">
						<file id="file-1"/>
						<name>[REJECTED] bandicam 2025-06-02 00-01-10-144</name>
						<rate>
							<timebase>60</timebase>
							<ntsc>TRUE</ntsc>
						</rate>
						<rate>
							<timebase>60</timebase>
							<ntsc>TRUE</ntsc>
						</rate>
						<duration>0</duration>
						<start>2634</start>
						<end>2634</end>
						<in>2634</in>
						<out>2634</out>
						<enabled>FALSE</enabled>
					</clipitem>
					<clipitem frameBlend="FALSE" id="clipitem-rejected-45">
						<file id="file-1"/>
						<name>[REJECTED] bandicam 2025-06-02 00-01-10-144</name>
						<rate>
							<timebase>60</timebase>
							<ntsc>TRUE</ntsc>
						</rate>
						<rate>
							<timebase>60</timebase>
							<ntsc>TRUE</ntsc>
						</rate>
						<duration>48</duration>
						<start>2670</start>
						<end>2718</end>
						<in>2670</in>
						<out>2718</out>
						<enabled>FALSE</enabled>
					</clipitem>
					<clipitem frameBlend="FALSE" id="clipitem-rejected-46">
						<file id="file-1"/>
						<name>[REJECTED] bandicam 2025-06-02 00-01-10-144</name>
						<rate>
							<timebase>60</timebase>
							<ntsc>TRUE</ntsc>
						</rate>
						<rate>
							<timebase>60</timebase>
							<ntsc>TRUE</ntsc>
						</rate>
						<duration>18</duration>
						<start>2844</start>
						<end>2862</end>
						<in>2844</in>
						<out>2862</out>
						<enabled>FALSE</enabled>
					</clipitem>
					<clipitem frameBlend="FALSE" id="clipitem-rejected-47">
						<file id="file-1"/>
						<name>[REJECTED] bandicam 2025-06-02 00-01-10-144</name>
						<rate>
							<timebase>60</timebase>
							<ntsc>TRUE</ntsc>
						</rate>
						<rate>
							<timebase>60</timebase>
							<ntsc>TRUE</ntsc>
						</rate>
						<duration>6</duration>
						<start>2892</start>
						<end>2898</end>
						<in>2892</in>
						<out>2898</out>
						<enabled>FALSE</enabled>
					</clipitem>
					<clipitem frameBlend="FALSE" id="clipitem-rejected-48">
						<file id="file-1"/>
						<name>[REJECTED] bandicam 2025-06-02 00-01-10-144</name>
						<rate>
							<timebase>60</timebase>
							<ntsc>TRUE</ntsc>
						</rate>
						<rate>
							<timebase>60</timebase>
							<ntsc>TRUE</ntsc>
						</rate>
						<duration>24</duration>
						<start>2916</start>
						<end>2940</end>
						<in>2916</in>
						<out>2940</out>
						<enabled>FALSE</enabled>
					</clipitem>
					<clipitem frameBlend="FALSE" id="clipitem-rejected-49">
						<file id="file-1"/>
						<name>[REJECTED] bandicam 2025-06-02 00-01-10-144</name>
						<rate>
							<timebase>60</timebase>
							<ntsc>TRUE</ntsc>
						</rate>
						<rate>
							<timebase>60</timebase>
							<ntsc>TRUE</ntsc>
						</rate>
						<duration>6</duration>
						<start>2952</start>
						<end>2958</end>
						<in>2952</in>
						<out>2958</out>
						<enabled>FALSE</enabled>
					</clipitem>
					<clipitem frameBlend="FALSE" id="clipitem-rejected-50">
						<file id="file-1"/>
						<name>[REJECTED] bandicam 2025-06-02 00-01-10-144</name>
						<rate>
							<timebase>60</timebase>
							<ntsc>TRUE</ntsc>
						</rate>
						<rate>
							<timebase>60</timebase>
							<ntsc>TRUE</ntsc>
						</rate>
						<duration>72</duration>
						<start>2982</start>
						<end>3054</end>
						<in>2982</in>
						<out>3054</out>
						<enabled>FALSE</enabled>
					</clipitem>
					<clipitem frameBlend="FALSE" id="clipitem-rejected-51">
						<file id="file-1"/>
						<name>[REJECTED] bandicam 2025-06-02 00-01-10-144</name>
						<rate>
							<timebase>60</timebase>
							<ntsc>TRUE</ntsc>
						</rate>
						<rate>
							<timebase>60</timebase>
							<ntsc>TRUE</ntsc>
						</rate>
						<duration>6</duration>
						<start>3108</start>
						<end>3114</end>
						<in>3108</in>
						<out>3114</out>
						<enabled>FALSE</enabled>
					</clipitem>
					<clipitem frameBlend="FALSE" id="clipitem-rejected-52">
						<file id="file-1"/>
						<name>[REJECTED] bandicam 2025-06-02 00-01-10-144</name>
						<rate>
							<timebase>60</timebase>
							<ntsc>TRUE</ntsc>
						</rate>
						<rate>
							<timebase>60</timebase>
							<ntsc>TRUE</ntsc>
						</rate>
						<duration>84</duration>
						<start>3138</start>
						<end>3222</end>
						<in>3138</in>
						<out>3222</out>
						<enabled>FALSE</enabled>
					</clipitem>
					<clipitem frameBlend="FALSE" id="clipitem-rejected-53">
						<file id="file-1"/>
						<name>[REJECTED] bandicam 2025-06-02 00-01-10-144</name>
						<rate>
							<timebase>60</timebase>
							<ntsc>TRUE</ntsc>
						</rate>
						<rate>
							<timebase>60</timebase>
							<ntsc>TRUE</ntsc>
						</rate>
						<duration>18</duration>
						<start>3246</start>
						<end>3264</end>
						<in>3246</in>
						<out>3264</out>
						<enabled>FALSE</enabled>
					</clipitem>
					<clipitem frameBlend="FALSE" id="clipitem-rejected-54">
						<file id="file-1"/>
						<name>[REJECTED] bandicam 2025-06-02 00-01-10-144</name>
						<rate>
							<timebase>60</timebase>
							<ntsc>TRUE</ntsc>
						</rate>
						<rate>
							<timebase>60</timebase>
							<ntsc>TRUE</ntsc>
						</rate>
						<duration>0</duration>
						<start>3300</start>
						<end>3300</end>
						<in>3300</in>
						<out>3300</out>
						<enabled>FALSE</enabled>
					</clipitem>
					<clipitem frameBlend="FALSE" id="clipitem-rejected-55">
						<file id="file-1"/>
						<name>[REJECTED] bandicam 2025-06-02 00-01-10-144</name>
						<rate>
							<timebase>60</timebase>
							<ntsc>TRUE</ntsc>
						</rate>
						<rate>
							<timebase>60</timebase>
							<ntsc>TRUE</ntsc>
						</rate>
						<duration>54</duration>
						<start>3312</start>
						<end>3366</end>
						<in>3312</in>
						<out>3366</out>
						<enabled>FALSE</enabled>
					</clipitem>
					<clipitem frameBlend="FALSE" id="clipitem-rejected-56">
						<file id="file-1"/>
						<name>[REJECTED] bandicam 2025-06-02 00-01-10-144</name>
						<rate>
							<timebase>60</timebase>
							<ntsc>TRUE</ntsc>
						</rate>
						<rate>
							<timebase>60</timebase>
							<ntsc>TRUE</ntsc>
						</rate>
						<duration>54</duration>
						<start>3390</start>
						<end>3444</end>
						<in>3390</in>
						<out>3444</out>
						<enabled>FALSE</enabled>
					</clipitem>
					<clipitem frameBlend="FALSE" id="clipitem-rejected-57">
						<file id="file-1"/>
						<name>[REJECTED] bandicam 2025-06-02 00-01-10-144</name>
						<rate>
							<timebase>60</timebase>
							<ntsc>TRUE</ntsc>
						</rate>
						<rate>
							<timebase>60</timebase>
							<ntsc>TRUE</ntsc>
						</rate>
						<duration>12</duration>
						<start>3480</start>
						<end>3492</end>
						<in>3480</in>
						<out>3492</out>
						<enabled>FALSE</enabled>
					</clipitem>
					<clipitem frameBlend="FALSE" id="clipitem-rejected-58">
						<file id="file-1"/>
						<name>[REJECTED] bandicam 2025-06-02 00-01-10-144</name>
						<rate>
							<timebase>60</timebase>
							<ntsc>TRUE</ntsc>
						</rate>
						<rate>
							<timebase>60</timebase>
							<ntsc>TRUE</ntsc>
						</rate>
						<duration>60</duration>
						<start>3516</start>
						<end>3576</end>
						<in>3516</in>
						<out>3576</out>
						<enabled>FALSE</enabled>
					</clipitem>
					<clipitem frameBlend="FALSE" id="clipitem-rejected-59">
						<file id="file-1"/>
						<name>[REJECTED] bandicam 2025-06-02 00-01-10-144</name>
						<rate>
							<timebase>60</timebase>
							<ntsc>TRUE</ntsc>
						</rate>
						<rate>
							<timebase>60</timebase>
							<ntsc>TRUE</ntsc>
						</rate>
						<duration>30</duration>
						<start>3588</start>
						<end>3618</end>
						<in>3588</in>
						<out>3618</out>
						<enabled>FALSE</enabled>
					</clipitem>
					<clipitem frameBlend="FALSE" id="clipitem-rejected-60">
						<file id="file-1"/>
						<name>[REJECTED] bandicam 2025-06-02 00-01-10-144</name>
						<rate>
							<timebase>60</timebase>
							<ntsc>TRUE</ntsc>
						</rate>
						<rate>
							<timebase>60</timebase>
							<ntsc>TRUE</ntsc>
						</rate>
						<duration>42</duration>
						<start>3648</start>
						<end>3690</end>
						<in>3648</in>
						<out>3690</out>
						<enabled>FALSE</enabled>
					</clipitem>
					<clipitem frameBlend="FALSE" id="clipitem-rejected-61">
						<file id="file-1"/>
						<name>[REJECTED] bandicam 2025-06-02 00-01-10-144</name>
						<rate>
							<timebase>60</timebase>
							<ntsc>TRUE</ntsc>
						</rate>
						<rate>
							<timebase>60</timebase>
							<ntsc>TRUE</ntsc>
						</rate>
						<duration>60</duration>
						<start>3702</start>
						<end>3762</end>
						<in>3702</in>
						<out>3762</out>
						<enabled>FALSE</enabled>
					</clipitem>
					<clipitem frameBlend="FALSE" id="clipitem-rejected-62">
						<file id="file-1"/>
						<name>[REJECTED] bandicam 2025-06-02 00-01-10-144</name>
						<rate>
							<timebase>60</timebase>
							<ntsc>TRUE</ntsc>
						</rate>
						<rate>
							<timebase>60</timebase>
							<ntsc>TRUE</ntsc>
						</rate>
						<duration>60</duration>
						<start>3786</start>
						<end>3846</end>
						<in>3786</in>
						<out>3846</out>
						<enabled>FALSE</enabled>
					</clipitem>
					<clipitem frameBlend="FALSE" id="clipitem-rejected-63">
						<file id="file-1"/>
						<name>[REJECTED] bandicam 2025-06-02 00-01-10-144</name>
						<rate>
							<timebase>60</timebase>
							<ntsc>TRUE</ntsc>
						</rate>
						<rate>
							<timebase>60</timebase>
							<ntsc>TRUE</ntsc>
						</rate>
						<duration>30</duration>
						<start>3870</start>
						<end>3900</end>
						<in>3870</in>
						<out>3900</out>
						<enabled>FALSE</enabled>
					</clipitem>
					<clipitem frameBlend="FALSE" id="clipitem-rejected-64">
						<file id="file-1"/>
						<name>[REJECTED] bandicam 2025-06-02 00-01-10-144</name>
						<rate>
							<timebase>60</timebase>
							<ntsc>TRUE</ntsc>
						</rate>
						<rate>
							<timebase>60</timebase>
							<ntsc>TRUE</ntsc>
						</rate>
						<duration>96</duration>
						<start>3924</start>
						<end>4020</end>
						<in>3924</in>
						<out>4020</out>
						<enabled>FALSE</enabled>
					</clipitem>
					<clipitem frameBlend="FALSE" id="clipitem-rejected-65">
						<file id="file-1"/>
						<name>[REJECTED] bandicam 2025-06-02 00-01-10-144</name>
						<rate>
							<timebase>60</timebase>
							<ntsc>TRUE</ntsc>
						</rate>
						<rate>
							<timebase>60</timebase>
							<ntsc>TRUE</ntsc>
						</rate>
						<duration>0</duration>
						<start>4038</start>
						<end>4038</end>
						<in>4038</in>
						<out>4038</out>
						<enabled>FALSE</enabled>
					</clipitem>
					<clipitem frameBlend="FALSE" id="clipitem-rejected-66">
						<file id="file-1"/>
						<name>[REJECTED] bandicam 2025-06-02 00-01-10-144</name>
						<rate>
							<timebase>60</timebase>
							<ntsc>TRUE</ntsc>
						</rate>
						<rate>
							<timebase>60</timebase>
							<ntsc>TRUE</ntsc>
						</rate>
						<duration>30</duration>
						<start>4050</start>
						<end>4080</end>
						<in>4050</in>
						<out>4080</out>
						<enabled>FALSE</enabled>
					</clipitem>
					<clipitem frameBlend="FALSE" id="clipitem-rejected-67">
						<file id="file-1"/>
						<name>[REJECTED] bandicam 2025-06-02 00-01-10-144</name>
						<rate>
							<timebase>60</timebase>
							<ntsc>TRUE</ntsc>
						</rate>
						<rate>
							<timebase>60</timebase>
							<ntsc>TRUE</ntsc>
						</rate>
						<duration>6</duration>
						<start>4116</start>
						<end>4122</end>
						<in>4116</in>
						<out>4122</out>
						<enabled>FALSE</enabled>
					</clipitem>
					<clipitem frameBlend="FALSE" id="clipitem-rejected-68">
						<file id="file-1"/>
						<name>[REJECTED] bandicam 2025-06-02 00-01-10-144</name>
						<rate>
							<timebase>60</timebase>
							<ntsc>TRUE</ntsc>
						</rate>
						<rate>
							<timebase>60</timebase>
							<ntsc>TRUE</ntsc>
						</rate>
						<duration>24</duration>
						<start>4158</start>
						<end>4182</end>
						<in>4158</in>
						<out>4182</out>
						<enabled>FALSE</enabled>
					</clipitem>
					<clipitem frameBlend="FALSE" id="clipitem-rejected-69">
						<file id="file-1"/>
						<name>[REJECTED] bandicam 2025-06-02 00-01-10-144</name>
						<rate>
							<timebase>60</timebase>
							<ntsc>TRUE</ntsc>
						</rate>
						<rate>
							<timebase>60</timebase>
							<ntsc>TRUE</ntsc>
						</rate>
						<duration>18</duration>
						<start>4206</start>
						<end>4224</end>
						<in>4206</in>
						<out>4224</out>
						<enabled>FALSE</enabled>
					</clipitem>
					<clipitem frameBlend="FALSE" id="clipitem-rejected-70">
						<file id="file-1"/>
						<name>[REJECTED] bandicam 2025-06-02 00-01-10-144</name>
						<rate>
							<timebase>60</timebase>
							<ntsc>TRUE</ntsc>
						</rate>
						<rate>
							<timebase>60</timebase>
							<ntsc>TRUE</ntsc>
						</rate>
						<duration>24</duration>
						<start>4272</start>
						<end>4296</end>
						<in>4272</in>
						<out>4296</out>
						<enabled>FALSE</enabled>
					</clipitem>
					<clipitem frameBlend="FALSE" id="clipitem-rejected-71">
						<file id="file-1"/>
						<name>[REJECTED] bandicam 2025-06-02 00-01-10-144</name>
						<rate>
							<timebase>60</timebase>
							<ntsc>TRUE</ntsc>
						</rate>
						<rate>
							<timebase>60</timebase>
							<ntsc>TRUE</ntsc>
						</rate>
						<duration>24</duration>
						<start>4440</start>
						<end>4464</end>
						<in>4440</in>
						<out>4464</out>
						<enabled>FALSE</enabled>
					</clipitem>
					<clipitem frameBlend="FALSE" id="clipitem-rejected-72">
						<file id="file-1"/>
						<name>[REJECTED] bandicam 2025-06-02 00-01-10-144</name>
						<rate>
							<timebase>60</timebase>
							<ntsc>TRUE</ntsc>
						</rate>
						<rate>
							<timebase>60</timebase>
							<ntsc>TRUE</ntsc>
						</rate>
						<duration>12</duration>
						<start>4488</start>
						<end>4500</end>
						<in>4488</in>
						<out>4500</out>
						<enabled>FALSE</enabled>
					</clipitem>
					<clipitem frameBlend="FALSE" id="clipitem-rejected-73">
						<file id="file-1"/>
						<name>[REJECTED] bandicam 2025-06-02 00-01-10-144</name>
						<rate>
							<timebase>60</timebase>
							<ntsc>TRUE</ntsc>
						</rate>
						<rate>
							<timebase>60</timebase>
							<ntsc>TRUE</ntsc>
						</rate>
						<duration>36</duration>
						<start>4560</start>
						<end>4596</end>
						<in>4560</in>
						<out>4596</out>
						<enabled>FALSE</enabled>
					</clipitem>
					<clipitem frameBlend="FALSE" id="clipitem-rejected-74">
						<file id="file-1"/>
						<name>[REJECTED] bandicam 2025-06-02 00-01-10-144</name>
						<rate>
							<timebase>60</timebase>
							<ntsc>TRUE</ntsc>
						</rate>
						<rate>
							<timebase>60</timebase>
							<ntsc>TRUE</ntsc>
						</rate>
						<duration>6</duration>
						<start>4638</start>
						<end>4644</end>
						<in>4638</in>
						<out>4644</out>
						<enabled>FALSE</enabled>
					</clipitem>
					<clipitem frameBlend="FALSE" id="clipitem-rejected-75">
						<file id="file-1"/>
						<name>[REJECTED] bandicam 2025-06-02 00-01-10-144</name>
						<rate>
							<timebase>60</timebase>
							<ntsc>TRUE</ntsc>
						</rate>
						<rate>
							<timebase>60</timebase>
							<ntsc>TRUE</ntsc>
						</rate>
						<duration>30</duration>
						<start>4668</start>
						<end>4698</end>
						<in>4668</in>
						<out>4698</out>
						<enabled>FALSE</enabled>
					</clipitem>
					<clipitem frameBlend="FALSE" id="clipitem-rejected-76">
						<file id="file-1"/>
						<name>[REJECTED] bandicam 2025-06-02 00-01-10-144</name>
						<rate>
							<timebase>60</timebase>
							<ntsc>TRUE</ntsc>
						</rate>
						<rate>
							<timebase>60</timebase>
							<ntsc>TRUE</ntsc>
						</rate>
						<duration>6</duration>
						<start>4710</start>
						<end>4716</end>
						<in>4710</in>
						<out>4716</out>
						<enabled>FALSE</enabled>
					</clipitem>
					<clipitem frameBlend="FALSE" id="clipitem-rejected-77">
						<file id="file-1"/>
						<name>[REJECTED] bandicam 2025-06-02 00-01-10-144</name>
						<rate>
							<timebase>60</timebase>
							<ntsc>TRUE</ntsc>
						</rate>
						<rate>
							<timebase>60</timebase>
							<ntsc>TRUE</ntsc>
						</rate>
						<duration>6</duration>
						<start>4776</start>
						<end>4782</end>
						<in>4776</in>
						<out>4782</out>
						<enabled>FALSE</enabled>
					</clipitem>
					<clipitem frameBlend="FALSE" id="clipitem-rejected-78">
						<file id="file-1"/>
						<name>[REJECTED] bandicam 2025-06-02 00-01-10-144</name>
						<rate>
							<timebase>60</timebase>
							<ntsc>TRUE</ntsc>
						</rate>
						<rate>
							<timebase>60</timebase>
							<ntsc>TRUE</ntsc>
						</rate>
						<duration>36</duration>
						<start>4806</start>
						<end>4842</end>
						<in>4806</in>
						<out>4842</out>
						<enabled>FALSE</enabled>
					</clipitem>
					<clipitem frameBlend="FALSE" id="clipitem-rejected-79">
						<file id="file-1"/>
						<name>[REJECTED] bandicam 2025-06-02 00-01-10-144</name>
						<rate>
							<timebase>60</timebase>
							<ntsc>TRUE</ntsc>
						</rate>
						<rate>
							<timebase>60</timebase>
							<ntsc>TRUE</ntsc>
						</rate>
						<duration>0</duration>
						<start>4854</start>
						<end>4854</end>
						<in>4854</in>
						<out>4854</out>
						<enabled>FALSE</enabled>
					</clipitem>
					<clipitem frameBlend="FALSE" id="clipitem-rejected-80">
						<file id="file-1"/>
						<name>[REJECTED] bandicam 2025-06-02 00-01-10-144</name>
						<rate>
							<timebase>60</timebase>
							<ntsc>TRUE</ntsc>
						</rate>
						<rate>
							<timebase>60</timebase>
							<ntsc>TRUE</ntsc>
						</rate>
						<duration>6</duration>
						<start>4878</start>
						<end>4884</end>
						<in>4878</in>
						<out>4884</out>
						<enabled>FALSE</enabled>
					</clipitem>
					<clipitem frameBlend="FALSE" id="clipitem-rejected-81">
						<file id="file-1"/>
						<name>[REJECTED] bandicam 2025-06-02 00-01-10-144</name>
						<rate>
							<timebase>60</timebase>
							<ntsc>TRUE</ntsc>
						</rate>
						<rate>
							<timebase>60</timebase>
							<ntsc>TRUE</ntsc>
						</rate>
						<duration>0</duration>
						<start>4902</start>
						<end>4902</end>
						<in>4902</in>
						<out>4902</out>
						<enabled>FALSE</enabled>
					</clipitem>
					<clipitem frameBlend="FALSE" id="clipitem-rejected-82">
						<file id="file-1"/>
						<name>[REJECTED] bandicam 2025-06-02 00-01-10-144</name>
						<rate>
							<timebase>60</timebase>
							<ntsc>TRUE</ntsc>
						</rate>
						<rate>
							<timebase>60</timebase>
							<ntsc>TRUE</ntsc>
						</rate>
						<duration>12</duration>
						<start>4926</start>
						<end>4938</end>
						<in>4926</in>
						<out>4938</out>
						<enabled>FALSE</enabled>
					</clipitem>
					<clipitem frameBlend="FALSE" id="clipitem-rejected-83">
						<file id="file-1"/>
						<name>[REJECTED] bandicam 2025-06-02 00-01-10-144</name>
						<rate>
							<timebase>60</timebase>
							<ntsc>TRUE</ntsc>
						</rate>
						<rate>
							<timebase>60</timebase>
							<ntsc>TRUE</ntsc>
						</rate>
						<duration>0</duration>
						<start>4962</start>
						<end>4962</end>
						<in>4962</in>
						<out>4962</out>
						<enabled>FALSE</enabled>
					</clipitem>
					<clipitem frameBlend="FALSE" id="clipitem-rejected-84">
						<file id="file-1"/>
						<name>[REJECTED] bandicam 2025-06-02 00-01-10-144</name>
						<rate>
							<timebase>60</timebase>
							<ntsc>TRUE</ntsc>
						</rate>
						<rate>
							<timebase>60</timebase>
							<ntsc>TRUE</ntsc>
						</rate>
						<duration>36</duration>
						<start>4980</start>
						<end>5016</end>
						<in>4980</in>
						<out>5016</out>
						<enabled>FALSE</enabled>
					</clipitem>
					<clipitem frameBlend="FALSE" id="clipitem-rejected-85">
						<file id="file-1"/>
						<name>[REJECTED] bandicam 2025-06-02 00-01-10-144</name>
						<rate>
							<timebase>60</timebase>
							<ntsc>TRUE</ntsc>
						</rate>
						<rate>
							<timebase>60</timebase>
							<ntsc>TRUE</ntsc>
						</rate>
						<duration>18</duration>
						<start>5040</start>
						<end>5058</end>
						<in>5040</in>
						<out>5058</out>
						<enabled>FALSE</enabled>
					</clipitem>
					<clipitem frameBlend="FALSE" id="clipitem-rejected-86">
						<file id="file-1"/>
						<name>[REJECTED] bandicam 2025-06-02 00-01-10-144</name>
						<rate>
							<timebase>60</timebase>
							<ntsc>TRUE</ntsc>
						</rate>
						<rate>
							<timebase>60</timebase>
							<ntsc>TRUE</ntsc>
						</rate>
						<duration>0</duration>
						<start>5076</start>
						<end>5076</end>
						<in>5076</in>
						<out>5076</out>
						<enabled>FALSE</enabled>
					</clipitem>
					<clipitem frameBlend="FALSE" id="clipitem-rejected-87">
						<file id="file-1"/>
						<name>[REJECTED] bandicam 2025-06-02 00-01-10-144</name>
						<rate>
							<timebase>60</timebase>
							<ntsc>TRUE</ntsc>
						</rate>
						<rate>
							<timebase>60</timebase>
							<ntsc>TRUE</ntsc>
						</rate>
						<duration>0</duration>
						<start>5088</start>
						<end>5088</end>
						<in>5088</in>
						<out>5088</out>
						<enabled>FALSE</enabled>
					</clipitem>
					<clipitem frameBlend="FALSE" id="clipitem-rejected-88">
						<file id="file-1"/>
						<name>[REJECTED] bandicam 2025-06-02 00-01-10-144</name>
						<rate>
							<timebase>60</timebase>
							<ntsc>TRUE</ntsc>
						</rate>
						<rate>
							<timebase>60</timebase>
							<ntsc>TRUE</ntsc>
						</rate>
						<duration>42</duration>
						<start>5184</start>
						<end>5226</end>
						<in>5184</in>
						<out>5226</out>
						<enabled>FALSE</enabled>
					</clipitem>
					<clipitem frameBlend="FALSE" id="clipitem-rejected-89">
						<file id="file-1"/>
						<name>[REJECTED] bandicam 2025-06-02 00-01-10-144</name>
						<rate>
							<timebase>60</timebase>
							<ntsc>TRUE</ntsc>
						</rate>
						<rate>
							<timebase>60</timebase>
							<ntsc>TRUE</ntsc>
						</rate>
						<duration>72</duration>
						<start>5250</start>
						<end>5322</end>
						<in>5250</in>
						<out>5322</out>
						<enabled>FALSE</enabled>
					</clipitem>
					<clipitem frameBlend="FALSE" id="clipitem-rejected-90">
						<file id="file-1"/>
						<name>[REJECTED] bandicam 2025-06-02 00-01-10-144</name>
						<rate>
							<timebase>60</timebase>
							<ntsc>TRUE</ntsc>
						</rate>
						<rate>
							<timebase>60</timebase>
							<ntsc>TRUE</ntsc>
						</rate>
						<duration>30</duration>
						<start>5346</start>
						<end>5376</end>
						<in>5346</in>
						<out>5376</out>
						<enabled>FALSE</enabled>
					</clipitem>
					<clipitem frameBlend="FALSE" id="clipitem-rejected-91">
						<file id="file-1"/>
						<name>[REJECTED] bandicam 2025-06-02 00-01-10-144</name>
						<rate>
							<timebase>60</timebase>
							<ntsc>TRUE</ntsc>
						</rate>
						<rate>
							<timebase>60</timebase>
							<ntsc>TRUE</ntsc>
						</rate>
						<duration>6</duration>
						<start>5400</start>
						<end>5406</end>
						<in>5400</in>
						<out>5406</out>
						<enabled>FALSE</enabled>
					</clipitem>
					<clipitem frameBlend="FALSE" id="clipitem-rejected-92">
						<file id="file-1"/>
						<name>[REJECTED] bandicam 2025-06-02 00-01-10-144</name>
						<rate>
							<timebase>60</timebase>
							<ntsc>TRUE</ntsc>
						</rate>
						<rate>
							<timebase>60</timebase>
							<ntsc>TRUE</ntsc>
						</rate>
						<duration>6</duration>
						<start>5454</start>
						<end>5460</end>
						<in>5454</in>
						<out>5460</out>
						<enabled>FALSE</enabled>
					</clipitem>
					<clipitem frameBlend="FALSE" id="clipitem-rejected-93">
						<file id="file-1"/>
						<name>[REJECTED] bandicam 2025-06-02 00-01-10-144</name>
						<rate>
							<timebase>60</timebase>
							<ntsc>TRUE</ntsc>
						</rate>
						<rate>
							<timebase>60</timebase>
							<ntsc>TRUE</ntsc>
						</rate>
						<duration>12</duration>
						<start>5472</start>
						<end>5484</end>
						<in>5472</in>
						<out>5484</out>
						<enabled>FALSE</enabled>
					</clipitem>
					<clipitem frameBlend="FALSE" id="clipitem-rejected-94">
						<file id="file-1"/>
						<name>[REJECTED] bandicam 2025-06-02 00-01-10-144</name>
						<rate>
							<timebase>60</timebase>
							<ntsc>TRUE</ntsc>
						</rate>
						<rate>
							<timebase>60</timebase>
							<ntsc>TRUE</ntsc>
						</rate>
						<duration>6</duration>
						<start>5508</start>
						<end>5514</end>
						<in>5508</in>
						<out>5514</out>
						<enabled>FALSE</enabled>
					</clipitem>
					<clipitem frameBlend="FALSE" id="clipitem-rejected-95">
						<file id="file-1"/>
						<name>[REJECTED] bandicam 2025-06-02 00-01-10-144</name>
						<rate>
							<timebase>60</timebase>
							<ntsc>TRUE</ntsc>
						</rate>
						<rate>
							<timebase>60</timebase>
							<ntsc>TRUE</ntsc>
						</rate>
						<duration>0</duration>
						<start>5526</start>
						<end>5526</end>
						<in>5526</in>
						<out>5526</out>
						<enabled>FALSE</enabled>
					</clipitem>
					<clipitem frameBlend="FALSE" id="clipitem-rejected-96">
						<file id="file-1"/>
						<name>[REJECTED] bandicam 2025-06-02 00-01-10-144</name>
						<rate>
							<timebase>60</timebase>
							<ntsc>TRUE</ntsc>
						</rate>
						<rate>
							<timebase>60</timebase>
							<ntsc>TRUE</ntsc>
						</rate>
						<duration>0</duration>
						<start>5538</start>
						<end>5538</end>
						<in>5538</in>
						<out>5538</out>
						<enabled>FALSE</enabled>
					</clipitem>
					<clipitem frameBlend="FALSE" id="clipitem-rejected-97">
						<file id="file-1"/>
						<name>[REJECTED] bandicam 2025-06-02 00-01-10-144</name>
						<rate>
							<timebase>60</timebase>
							<ntsc>TRUE</ntsc>
						</rate>
						<rate>
							<timebase>60</timebase>
							<ntsc>TRUE</ntsc>
						</rate>
						<duration>18</duration>
						<start>5556</start>
						<end>5574</end>
						<in>5556</in>
						<out>5574</out>
						<enabled>FALSE</enabled>
					</clipitem>
					<clipitem frameBlend="FALSE" id="clipitem-rejected-98">
						<file id="file-1"/>
						<name>[REJECTED] bandicam 2025-06-02 00-01-10-144</name>
						<rate>
							<timebase>60</timebase>
							<ntsc>TRUE</ntsc>
						</rate>
						<rate>
							<timebase>60</timebase>
							<ntsc>TRUE</ntsc>
						</rate>
						<duration>24</duration>
						<start>5598</start>
						<end>5622</end>
						<in>5598</in>
						<out>5622</out>
						<enabled>FALSE</enabled>
					</clipitem>
					<clipitem frameBlend="FALSE" id="clipitem-rejected-99">
						<file id="file-1"/>
						<name>[REJECTED] bandicam 2025-06-02 00-01-10-144</name>
						<rate>
							<timebase>60</timebase>
							<ntsc>TRUE</ntsc>
						</rate>
						<rate>
							<timebase>60</timebase>
							<ntsc>TRUE</ntsc>
						</rate>
						<duration>12</duration>
						<start>5646</start>
						<end>5658</end>
						<in>5646</in>
						<out>5658</out>
						<enabled>FALSE</enabled>
					</clipitem>
					<clipitem frameBlend="FALSE" id="clipitem-rejected-100">
						<file id="file-1"/>
						<name>[REJECTED] bandicam 2025-06-02 00-01-10-144</name>
						<rate>
							<timebase>60</timebase>
							<ntsc>TRUE</ntsc>
						</rate>
						<rate>
							<timebase>60</timebase>
							<ntsc>TRUE</ntsc>
						</rate>
						<duration>18</duration>
						<start>5700</start>
						<end>5718</end>
						<in>5700</in>
						<out>5718</out>
						<enabled>FALSE</enabled>
					</clipitem>
					<clipitem frameBlend="FALSE" id="clipitem-rejected-101">
						<file id="file-1"/>
						<name>[REJECTED] bandicam 2025-06-02 00-01-10-144</name>
						<rate>
							<timebase>60</timebase>
							<ntsc>TRUE</ntsc>
						</rate>
						<rate>
							<timebase>60</timebase>
							<ntsc>TRUE</ntsc>
						</rate>
						<duration>18</duration>
						<start>5730</start>
						<end>5748</end>
						<in>5730</in>
						<out>5748</out>
						<enabled>FALSE</enabled>
					</clipitem>
					<clipitem frameBlend="FALSE" id="clipitem-rejected-102">
						<file id="file-1"/>
						<name>[REJECTED] bandicam 2025-06-02 00-01-10-144</name>
						<rate>
							<timebase>60</timebase>
							<ntsc>TRUE</ntsc>
						</rate>
						<rate>
							<timebase>60</timebase>
							<ntsc>TRUE</ntsc>
						</rate>
						<duration>12</duration>
						<start>5784</start>
						<end>5796</end>
						<in>5784</in>
						<out>5796</out>
						<enabled>FALSE</enabled>
					</clipitem>
					<clipitem frameBlend="FALSE" id="clipitem-rejected-103">
						<file id="file-1"/>
						<name>[REJECTED] bandicam 2025-06-02 00-01-10-144</name>
						<rate>
							<timebase>60</timebase>
							<ntsc>TRUE</ntsc>
						</rate>
						<rate>
							<timebase>60</timebase>
							<ntsc>TRUE</ntsc>
						</rate>
						<duration>6</duration>
						<start>5898</start>
						<end>5904</end>
						<in>5898</in>
						<out>5904</out>
						<enabled>FALSE</enabled>
					</clipitem>
					<clipitem frameBlend="FALSE" id="clipitem-rejected-104">
						<file id="file-1"/>
						<name>[REJECTED] bandicam 2025-06-02 00-01-10-144</name>
						<rate>
							<timebase>60</timebase>
							<ntsc>TRUE</ntsc>
						</rate>
						<rate>
							<timebase>60</timebase>
							<ntsc>TRUE</ntsc>
						</rate>
						<duration>12</duration>
						<start>5982</start>
						<end>5994</end>
						<in>5982</in>
						<out>5994</out>
						<enabled>FALSE</enabled>
					</clipitem>
					<clipitem frameBlend="FALSE" id="clipitem-rejected-105">
						<file id="file-1"/>
						<name>[REJECTED] bandicam 2025-06-02 00-01-10-144</name>
						<rate>
							<timebase>60</timebase>
							<ntsc>TRUE</ntsc>
						</rate>
						<rate>
							<timebase>60</timebase>
							<ntsc>TRUE</ntsc>
						</rate>
						<duration>6</duration>
						<start>6042</start>
						<end>6048</end>
						<in>6042</in>
						<out>6048</out>
						<enabled>FALSE</enabled>
					</clipitem>
					<clipitem frameBlend="FALSE" id="clipitem-rejected-106">
						<file id="file-1"/>
						<name>[REJECTED] bandicam 2025-06-02 00-01-10-144</name>
						<rate>
							<timebase>60</timebase>
							<ntsc>TRUE</ntsc>
						</rate>
						<rate>
							<timebase>60</timebase>
							<ntsc>TRUE</ntsc>
						</rate>
						<duration>54</duration>
						<start>6072</start>
						<end>6126</end>
						<in>6072</in>
						<out>6126</out>
						<enabled>FALSE</enabled>
					</clipitem>
					<clipitem frameBlend="FALSE" id="clipitem-rejected-107">
						<file id="file-1"/>
						<name>[REJECTED] bandicam 2025-06-02 00-01-10-144</name>
						<rate>
							<timebase>60</timebase>
							<ntsc>TRUE</ntsc>
						</rate>
						<rate>
							<timebase>60</timebase>
							<ntsc>TRUE</ntsc>
						</rate>
						<duration>12</duration>
						<start>6138</start>
						<end>6150</end>
						<in>6138</in>
						<out>6150</out>
						<enabled>FALSE</enabled>
					</clipitem>
					<clipitem frameBlend="FALSE" id="clipitem-rejected-108">
						<file id="file-1"/>
						<name>[REJECTED] bandicam 2025-06-02 00-01-10-144</name>
						<rate>
							<timebase>60</timebase>
							<ntsc>TRUE</ntsc>
						</rate>
						<rate>
							<timebase>60</timebase>
							<ntsc>TRUE</ntsc>
						</rate>
						<duration>6</duration>
						<start>6210</start>
						<end>6216</end>
						<in>6210</in>
						<out>6216</out>
						<enabled>FALSE</enabled>
					</clipitem>
					<clipitem frameBlend="FALSE" id="clipitem-rejected-109">
						<file id="file-1"/>
						<name>[REJECTED] bandicam 2025-06-02 00-01-10-144</name>
						<rate>
							<timebase>60</timebase>
							<ntsc>TRUE</ntsc>
						</rate>
						<rate>
							<timebase>60</timebase>
							<ntsc>TRUE</ntsc>
						</rate>
						<duration>18</duration>
						<start>6258</start>
						<end>6276</end>
						<in>6258</in>
						<out>6276</out>
						<enabled>FALSE</enabled>
					</clipitem>
					<clipitem frameBlend="FALSE" id="clipitem-rejected-110">
						<file id="file-1"/>
						<name>[REJECTED] bandicam 2025-06-02 00-01-10-144</name>
						<rate>
							<timebase>60</timebase>
							<ntsc>TRUE</ntsc>
						</rate>
						<rate>
							<timebase>60</timebase>
							<ntsc>TRUE</ntsc>
						</rate>
						<duration>18</duration>
						<start>6288</start>
						<end>6306</end>
						<in>6288</in>
						<out>6306</out>
						<enabled>FALSE</enabled>
					</clipitem>
					<clipitem frameBlend="FALSE" id="clipitem-rejected-111">
						<file id="file-1"/>
						<name>[REJECTED] bandicam 2025-06-02 00-01-10-144</name>
						<rate>
							<timebase>60</timebase>
							<ntsc>TRUE</ntsc>
						</rate>
						<rate>
							<timebase>60</timebase>
							<ntsc>TRUE</ntsc>
						</rate>
						<duration>48</duration>
						<start>6330</start>
						<end>6378</end>
						<in>6330</in>
						<out>6378</out>
						<enabled>FALSE</enabled>
					</clipitem>
					<clipitem frameBlend="FALSE" id="clipitem-rejected-112">
						<file id="file-1"/>
						<name>[REJECTED] bandicam 2025-06-02 00-01-10-144</name>
						<rate>
							<timebase>60</timebase>
							<ntsc>TRUE</ntsc>
						</rate>
						<rate>
							<timebase>60</timebase>
							<ntsc>TRUE</ntsc>
						</rate>
						<duration>24</duration>
						<start>6402</start>
						<end>6426</end>
						<in>6402</in>
						<out>6426</out>
						<enabled>FALSE</enabled>
					</clipitem>
					<clipitem frameBlend="FALSE" id="clipitem-rejected-113">
						<file id="file-1"/>
						<name>[REJECTED] bandicam 2025-06-02 00-01-10-144</name>
						<rate>
							<timebase>60</timebase>
							<ntsc>TRUE</ntsc>
						</rate>
						<rate>
							<timebase>60</timebase>
							<ntsc>TRUE</ntsc>
						</rate>
						<duration>30</duration>
						<start>6450</start>
						<end>6480</end>
						<in>6450</in>
						<out>6480</out>
						<enabled>FALSE</enabled>
					</clipitem>
					<clipitem frameBlend="FALSE" id="clipitem-rejected-114">
						<file id="file-1"/>
						<name>[REJECTED] bandicam 2025-06-02 00-01-10-144</name>
						<rate>
							<timebase>60</timebase>
							<ntsc>TRUE</ntsc>
						</rate>
						<rate>
							<timebase>60</timebase>
							<ntsc>TRUE</ntsc>
						</rate>
						<duration>0</duration>
						<start>6492</start>
						<end>6492</end>
						<in>6492</in>
						<out>6492</out>
						<enabled>FALSE</enabled>
					</clipitem>
					<clipitem frameBlend="FALSE" id="clipitem-rejected-115">
						<file id="file-1"/>
						<name>[REJECTED] bandicam 2025-06-02 00-01-10-144</name>
						<rate>
							<timebase>60</timebase>
							<ntsc>TRUE</ntsc>
						</rate>
						<rate>
							<timebase>60</timebase>
							<ntsc>TRUE</ntsc>
						</rate>
						<duration>30</duration>
						<start>6540</start>
						<end>6570</end>
						<in>6540</in>
						<out>6570</out>
						<enabled>FALSE</enabled>
					</clipitem>
					<clipitem frameBlend="FALSE" id="clipitem-rejected-116">
						<file id="file-1"/>
						<name>[REJECTED] bandicam 2025-06-02 00-01-10-144</name>
						<rate>
							<timebase>60</timebase>
							<ntsc>TRUE</ntsc>
						</rate>
						<rate>
							<timebase>60</timebase>
							<ntsc>TRUE</ntsc>
						</rate>
						<duration>18</duration>
						<start>6588</start>
						<end>6606</end>
						<in>6588</in>
						<out>6606</out>
						<enabled>FALSE</enabled>
					</clipitem>
					<clipitem frameBlend="FALSE" id="clipitem-rejected-117">
						<file id="file-1"/>
						<name>[REJECTED] bandicam 2025-06-02 00-01-10-144</name>
						<rate>
							<timebase>60</timebase>
							<ntsc>TRUE</ntsc>
						</rate>
						<rate>
							<timebase>60</timebase>
							<ntsc>TRUE</ntsc>
						</rate>
						<duration>114</duration>
						<start>6630</start>
						<end>6744</end>
						<in>6630</in>
						<out>6744</out>
						<enabled>FALSE</enabled>
					</clipitem>
					<clipitem frameBlend="FALSE" id="clipitem-rejected-118">
						<file id="file-1"/>
						<name>[REJECTED] bandicam 2025-06-02 00-01-10-144</name>
						<rate>
							<timebase>60</timebase>
							<ntsc>TRUE</ntsc>
						</rate>
						<rate>
							<timebase>60</timebase>
							<ntsc>TRUE</ntsc>
						</rate>
						<duration>36</duration>
						<start>6768</start>
						<end>6804</end>
						<in>6768</in>
						<out>6804</out>
						<enabled>FALSE</enabled>
					</clipitem>
					<clipitem frameBlend="FALSE" id="clipitem-rejected-119">
						<file id="file-1"/>
						<name>[REJECTED] bandicam 2025-06-02 00-01-10-144</name>
						<rate>
							<timebase>60</timebase>
							<ntsc>TRUE</ntsc>
						</rate>
						<rate>
							<timebase>60</timebase>
							<ntsc>TRUE</ntsc>
						</rate>
						<duration>0</duration>
						<start>6822</start>
						<end>6822</end>
						<in>6822</in>
						<out>6822</out>
						<enabled>FALSE</enabled>
					</clipitem>
					<clipitem frameBlend="FALSE" id="clipitem-rejected-120">
						<file id="file-1"/>
						<name>[REJECTED] bandicam 2025-06-02 00-01-10-144</name>
						<rate>
							<timebase>60</timebase>
							<ntsc>TRUE</ntsc>
						</rate>
						<rate>
							<timebase>60</timebase>
							<ntsc>TRUE</ntsc>
						</rate>
						<duration>42</duration>
						<start>6846</start>
						<end>6888</end>
						<in>6846</in>
						<out>6888</out>
						<enabled>FALSE</enabled>
					</clipitem>
					<clipitem frameBlend="FALSE" id="clipitem-rejected-121">
						<file id="file-1"/>
						<name>[REJECTED] bandicam 2025-06-02 00-01-10-144</name>
						<rate>
							<timebase>60</timebase>
							<ntsc>TRUE</ntsc>
						</rate>
						<rate>
							<timebase>60</timebase>
							<ntsc>TRUE</ntsc>
						</rate>
						<duration>0</duration>
						<start>6906</start>
						<end>6906</end>
						<in>6906</in>
						<out>6906</out>
						<enabled>FALSE</enabled>
					</clipitem>
					<clipitem frameBlend="FALSE" id="clipitem-rejected-122">
						<file id="file-1"/>
						<name>[REJECTED] bandicam 2025-06-02 00-01-10-144</name>
						<rate>
							<timebase>60</timebase>
							<ntsc>TRUE</ntsc>
						</rate>
						<rate>
							<timebase>60</timebase>
							<ntsc>TRUE</ntsc>
						</rate>
						<duration>18</duration>
						<start>6930</start>
						<end>6948</end>
						<in>6930</in>
						<out>6948</out>
						<enabled>FALSE</enabled>
					</clipitem>
					<clipitem frameBlend="FALSE" id="clipitem-rejected-123">
						<file id="file-1"/>
						<name>[REJECTED] bandicam 2025-06-02 00-01-10-144</name>
						<rate>
							<timebase>60</timebase>
							<ntsc>TRUE</ntsc>
						</rate>
						<rate>
							<timebase>60</timebase>
							<ntsc>TRUE</ntsc>
						</rate>
						<duration>36</duration>
						<start>6960</start>
						<end>6996</end>
						<in>6960</in>
						<out>6996</out>
						<enabled>FALSE</enabled>
					</clipitem>
					<clipitem frameBlend="FALSE" id="clipitem-rejected-124">
						<file id="file-1"/>
						<name>[REJECTED] bandicam 2025-06-02 00-01-10-144</name>
						<rate>
							<timebase>60</timebase>
							<ntsc>TRUE</ntsc>
						</rate>
						<rate>
							<timebase>60</timebase>
							<ntsc>TRUE</ntsc>
						</rate>
						<duration>12</duration>
						<start>7008</start>
						<end>7020</end>
						<in>7008</in>
						<out>7020</out>
						<enabled>FALSE</enabled>
					</clipitem>
					<clipitem frameBlend="FALSE" id="clipitem-rejected-125">
						<file id="file-1"/>
						<name>[REJECTED] bandicam 2025-06-02 00-01-10-144</name>
						<rate>
							<timebase>60</timebase>
							<ntsc>TRUE</ntsc>
						</rate>
						<rate>
							<timebase>60</timebase>
							<ntsc>TRUE</ntsc>
						</rate>
						<duration>24</duration>
						<start>7044</start>
						<end>7068</end>
						<in>7044</in>
						<out>7068</out>
						<enabled>FALSE</enabled>
					</clipitem>
					<clipitem frameBlend="FALSE" id="clipitem-rejected-126">
						<file id="file-1"/>
						<name>[REJECTED] bandicam 2025-06-02 00-01-10-144</name>
						<rate>
							<timebase>60</timebase>
							<ntsc>TRUE</ntsc>
						</rate>
						<rate>
							<timebase>60</timebase>
							<ntsc>TRUE</ntsc>
						</rate>
						<duration>54</duration>
						<start>0</start>
						<end>54</end>
						<in>0</in>
						<out>54</out>
						<enabled>FALSE</enabled>
					</clipitem>
					<clipitem frameBlend="FALSE" id="clipitem-rejected-127">
						<file id="file-1"/>
						<name>[REJECTED] bandicam 2025-06-02 00-01-10-144</name>
						<rate>
							<timebase>60</timebase>
							<ntsc>TRUE</ntsc>
						</rate>
						<rate>
							<timebase>60</timebase>
							<ntsc>TRUE</ntsc>
						</rate>
						<duration>42</duration>
						<start>66</start>
						<end>108</end>
						<in>66</in>
						<out>108</out>
						<enabled>FALSE</enabled>
					</clipitem>
					<clipitem frameBlend="FALSE" id="clipitem-rejected-128">
						<file id="file-1"/>
						<name>[REJECTED] bandicam 2025-06-02 00-01-10-144</name>
						<rate>
							<timebase>60</timebase>
							<ntsc>TRUE</ntsc>
						</rate>
						<rate>
							<timebase>60</timebase>
							<ntsc>TRUE</ntsc>
						</rate>
						<duration>312</duration>
						<start>132</start>
						<end>444</end>
						<in>132</in>
						<out>444</out>
						<enabled>FALSE</enabled>
					</clipitem>
					<clipitem frameBlend="FALSE" id="clipitem-rejected-129">
						<file id="file-1"/>
						<name>[REJECTED] bandicam 2025-06-02 00-01-10-144</name>
						<rate>
							<timebase>60</timebase>
							<ntsc>TRUE</ntsc>
						</rate>
						<rate>
							<timebase>60</timebase>
							<ntsc>TRUE</ntsc>
						</rate>
						<duration>102</duration>
						<start>474</start>
						<end>576</end>
						<in>474</in>
						<out>576</out>
						<enabled>FALSE</enabled>
					</clipitem>
					<clipitem frameBlend="FALSE" id="clipitem-rejected-130">
						<file id="file-1"/>
						<name>[REJECTED] bandicam 2025-06-02 00-01-10-144</name>
						<rate>
							<timebase>60</timebase>
							<ntsc>TRUE</ntsc>
						</rate>
						<rate>
							<timebase>60</timebase>
							<ntsc>TRUE</ntsc>
						</rate>
						<duration>810</duration>
						<start>594</start>
						<end>1404</end>
						<in>594</in>
						<out>1404</out>
						<enabled>FALSE</enabled>
					</clipitem>
					<clipitem frameBlend="FALSE" id="clipitem-rejected-131">
						<file id="file-1"/>
						<name>[REJECTED] bandicam 2025-06-02 00-01-10-144</name>
						<rate>
							<timebase>60</timebase>
							<ntsc>TRUE</ntsc>
						</rate>
						<rate>
							<timebase>60</timebase>
							<ntsc>TRUE</ntsc>
						</rate>
						<duration>264</duration>
						<start>1422</start>
						<end>1686</end>
						<in>1422</in>
						<out>1686</out>
						<enabled>FALSE</enabled>
					</clipitem>
					<clipitem frameBlend="FALSE" id="clipitem-rejected-132">
						<file id="file-1"/>
						<name>[REJECTED] bandicam 2025-06-02 00-01-10-144</name>
						<rate>
							<timebase>60</timebase>
							<ntsc>TRUE</ntsc>
						</rate>
						<rate>
							<timebase>60</timebase>
							<ntsc>TRUE</ntsc>
						</rate>
						<duration>0</duration>
						<start>1698</start>
						<end>1698</end>
						<in>1698</in>
						<out>1698</out>
						<enabled>FALSE</enabled>
					</clipitem>
					<clipitem frameBlend="FALSE" id="clipitem-rejected-133">
						<file id="file-1"/>
						<name>[REJECTED] bandicam 2025-06-02 00-01-10-144</name>
						<rate>
							<timebase>60</timebase>
							<ntsc>TRUE</ntsc>
						</rate>
						<rate>
							<timebase>60</timebase>
							<ntsc>TRUE</ntsc>
						</rate>
						<duration>24</duration>
						<start>1716</start>
						<end>1740</end>
						<in>1716</in>
						<out>1740</out>
						<enabled>FALSE</enabled>
					</clipitem>
					<clipitem frameBlend="FALSE" id="clipitem-rejected-134">
						<file id="file-1"/>
						<name>[REJECTED] bandicam 2025-06-02 00-01-10-144</name>
						<rate>
							<timebase>60</timebase>
							<ntsc>TRUE</ntsc>
						</rate>
						<rate>
							<timebase>60</timebase>
							<ntsc>TRUE</ntsc>
						</rate>
						<duration>42</duration>
						<start>1764</start>
						<end>1806</end>
						<in>1764</in>
						<out>1806</out>
						<enabled>FALSE</enabled>
					</clipitem>
					<clipitem frameBlend="FALSE" id="clipitem-rejected-135">
						<file id="file-1"/>
						<name>[REJECTED] bandicam 2025-06-02 00-01-10-144</name>
						<rate>
							<timebase>60</timebase>
							<ntsc>TRUE</ntsc>
						</rate>
						<rate>
							<timebase>60</timebase>
							<ntsc>TRUE</ntsc>
						</rate>
						<duration>30</duration>
						<start>1818</start>
						<end>1848</end>
						<in>1818</in>
						<out>1848</out>
						<enabled>FALSE</enabled>
					</clipitem>
					<clipitem frameBlend="FALSE" id="clipitem-rejected-136">
						<file id="file-1"/>
						<name>[REJECTED] bandicam 2025-06-02 00-01-10-144</name>
						<rate>
							<timebase>60</timebase>
							<ntsc>TRUE</ntsc>
						</rate>
						<rate>
							<timebase>60</timebase>
							<ntsc>TRUE</ntsc>
						</rate>
						<duration>18</duration>
						<start>1860</start>
						<end>1878</end>
						<in>1860</in>
						<out>1878</out>
						<enabled>FALSE</enabled>
					</clipitem>
					<clipitem frameBlend="FALSE" id="clipitem-rejected-137">
						<file id="file-1"/>
						<name>[REJECTED] bandicam 2025-06-02 00-01-10-144</name>
						<rate>
							<timebase>60</timebase>
							<ntsc>TRUE</ntsc>
						</rate>
						<rate>
							<timebase>60</timebase>
							<ntsc>TRUE</ntsc>
						</rate>
						<duration>390</duration>
						<start>1896</start>
						<end>2286</end>
						<in>1896</in>
						<out>2286</out>
						<enabled>FALSE</enabled>
					</clipitem>
					<clipitem frameBlend="FALSE" id="clipitem-rejected-138">
						<file id="file-1"/>
						<name>[REJECTED] bandicam 2025-06-02 00-01-10-144</name>
						<rate>
							<timebase>60</timebase>
							<ntsc>TRUE</ntsc>
						</rate>
						<rate>
							<timebase>60</timebase>
							<ntsc>TRUE</ntsc>
						</rate>
						<duration>6</duration>
						<start>2298</start>
						<end>2304</end>
						<in>2298</in>
						<out>2304</out>
						<enabled>FALSE</enabled>
					</clipitem>
					<clipitem frameBlend="FALSE" id="clipitem-rejected-139">
						<file id="file-1"/>
						<name>[REJECTED] bandicam 2025-06-02 00-01-10-144</name>
						<rate>
							<timebase>60</timebase>
							<ntsc>TRUE</ntsc>
						</rate>
						<rate>
							<timebase>60</timebase>
							<ntsc>TRUE</ntsc>
						</rate>
						<duration>114</duration>
						<start>2328</start>
						<end>2442</end>
						<in>2328</in>
						<out>2442</out>
						<enabled>FALSE</enabled>
					</clipitem>
					<clipitem frameBlend="FALSE" id="clipitem-rejected-140">
						<file id="file-1"/>
						<name>[REJECTED] bandicam 2025-06-02 00-01-10-144</name>
						<rate>
							<timebase>60</timebase>
							<ntsc>TRUE</ntsc>
						</rate>
						<rate>
							<timebase>60</timebase>
							<ntsc>TRUE</ntsc>
						</rate>
						<duration>276</duration>
						<start>2460</start>
						<end>2736</end>
						<in>2460</in>
						<out>2736</out>
						<enabled>FALSE</enabled>
					</clipitem>
					<clipitem frameBlend="FALSE" id="clipitem-rejected-141">
						<file id="file-1"/>
						<name>[REJECTED] bandicam 2025-06-02 00-01-10-144</name>
						<rate>
							<timebase>60</timebase>
							<ntsc>TRUE</ntsc>
						</rate>
						<rate>
							<timebase>60</timebase>
							<ntsc>TRUE</ntsc>
						</rate>
						<duration>0</duration>
						<start>2760</start>
						<end>2760</end>
						<in>2760</in>
						<out>2760</out>
						<enabled>FALSE</enabled>
					</clipitem>
					<clipitem frameBlend="FALSE" id="clipitem-rejected-142">
						<file id="file-1"/>
						<name>[REJECTED] bandicam 2025-06-02 00-01-10-144</name>
						<rate>
							<timebase>60</timebase>
							<ntsc>TRUE</ntsc>
						</rate>
						<rate>
							<timebase>60</timebase>
							<ntsc>TRUE</ntsc>
						</rate>
						<duration>18</duration>
						<start>2778</start>
						<end>2796</end>
						<in>2778</in>
						<out>2796</out>
						<enabled>FALSE</enabled>
					</clipitem>
					<clipitem frameBlend="FALSE" id="clipitem-rejected-143">
						<file id="file-1"/>
						<name>[REJECTED] bandicam 2025-06-02 00-01-10-144</name>
						<rate>
							<timebase>60</timebase>
							<ntsc>TRUE</ntsc>
						</rate>
						<rate>
							<timebase>60</timebase>
							<ntsc>TRUE</ntsc>
						</rate>
						<duration>240</duration>
						<start>2826</start>
						<end>3066</end>
						<in>2826</in>
						<out>3066</out>
						<enabled>FALSE</enabled>
					</clipitem>
					<clipitem frameBlend="FALSE" id="clipitem-rejected-144">
						<file id="file-1"/>
						<name>[REJECTED] bandicam 2025-06-02 00-01-10-144</name>
						<rate>
							<timebase>60</timebase>
							<ntsc>TRUE</ntsc>
						</rate>
						<rate>
							<timebase>60</timebase>
							<ntsc>TRUE</ntsc>
						</rate>
						<duration>156</duration>
						<start>3108</start>
						<end>3264</end>
						<in>3108</in>
						<out>3264</out>
						<enabled>FALSE</enabled>
					</clipitem>
					<clipitem frameBlend="FALSE" id="clipitem-rejected-145">
						<file id="file-1"/>
						<name>[REJECTED] bandicam 2025-06-02 00-01-10-144</name>
						<rate>
							<timebase>60</timebase>
							<ntsc>TRUE</ntsc>
						</rate>
						<rate>
							<timebase>60</timebase>
							<ntsc>TRUE</ntsc>
						</rate>
						<duration>156</duration>
						<start>3294</start>
						<end>3450</end>
						<in>3294</in>
						<out>3450</out>
						<enabled>FALSE</enabled>
					</clipitem>
					<clipitem frameBlend="FALSE" id="clipitem-rejected-146">
						<file id="file-1"/>
						<name>[REJECTED] bandicam 2025-06-02 00-01-10-144</name>
						<rate>
							<timebase>60</timebase>
							<ntsc>TRUE</ntsc>
						</rate>
						<rate>
							<timebase>60</timebase>
							<ntsc>TRUE</ntsc>
						</rate>
						<duration>144</duration>
						<start>3480</start>
						<end>3624</end>
						<in>3480</in>
						<out>3624</out>
						<enabled>FALSE</enabled>
					</clipitem>
					<clipitem frameBlend="FALSE" id="clipitem-rejected-147">
						<file id="file-1"/>
						<name>[REJECTED] bandicam 2025-06-02 00-01-10-144</name>
						<rate>
							<timebase>60</timebase>
							<ntsc>TRUE</ntsc>
						</rate>
						<rate>
							<timebase>60</timebase>
							<ntsc>TRUE</ntsc>
						</rate>
						<duration>432</duration>
						<start>3648</start>
						<end>4080</end>
						<in>3648</in>
						<out>4080</out>
						<enabled>FALSE</enabled>
					</clipitem>
					<clipitem frameBlend="FALSE" id="clipitem-rejected-148">
						<file id="file-1"/>
						<name>[REJECTED] bandicam 2025-06-02 00-01-10-144</name>
						<rate>
							<timebase>60</timebase>
							<ntsc>TRUE</ntsc>
						</rate>
						<rate>
							<timebase>60</timebase>
							<ntsc>TRUE</ntsc>
						</rate>
						<duration>0</duration>
						<start>4098</start>
						<end>4098</end>
						<in>4098</in>
						<out>4098</out>
						<enabled>FALSE</enabled>
					</clipitem>
					<clipitem frameBlend="FALSE" id="clipitem-rejected-149">
						<file id="file-1"/>
						<name>[REJECTED] bandicam 2025-06-02 00-01-10-144</name>
						<rate>
							<timebase>60</timebase>
							<ntsc>TRUE</ntsc>
						</rate>
						<rate>
							<timebase>60</timebase>
							<ntsc>TRUE</ntsc>
						</rate>
						<duration>12</duration>
						<start>4116</start>
						<end>4128</end>
						<in>4116</in>
						<out>4128</out>
						<enabled>FALSE</enabled>
					</clipitem>
					<clipitem frameBlend="FALSE" id="clipitem-rejected-150">
						<file id="file-1"/>
						<name>[REJECTED] bandicam 2025-06-02 00-01-10-144</name>
						<rate>
							<timebase>60</timebase>
							<ntsc>TRUE</ntsc>
						</rate>
						<rate>
							<timebase>60</timebase>
							<ntsc>TRUE</ntsc>
						</rate>
						<duration>42</duration>
						<start>4140</start>
						<end>4182</end>
						<in>4140</in>
						<out>4182</out>
						<enabled>FALSE</enabled>
					</clipitem>
					<clipitem frameBlend="FALSE" id="clipitem-rejected-151">
						<file id="file-1"/>
						<name>[REJECTED] bandicam 2025-06-02 00-01-10-144</name>
						<rate>
							<timebase>60</timebase>
							<ntsc>TRUE</ntsc>
						</rate>
						<rate>
							<timebase>60</timebase>
							<ntsc>TRUE</ntsc>
						</rate>
						<duration>24</duration>
						<start>4200</start>
						<end>4224</end>
						<in>4200</in>
						<out>4224</out>
						<enabled>FALSE</enabled>
					</clipitem>
					<clipitem frameBlend="FALSE" id="clipitem-rejected-152">
						<file id="file-1"/>
						<name>[REJECTED] bandicam 2025-06-02 00-01-10-144</name>
						<rate>
							<timebase>60</timebase>
							<ntsc>TRUE</ntsc>
						</rate>
						<rate>
							<timebase>60</timebase>
							<ntsc>TRUE</ntsc>
						</rate>
						<duration>0</duration>
						<start>4236</start>
						<end>4236</end>
						<in>4236</in>
						<out>4236</out>
						<enabled>FALSE</enabled>
					</clipitem>
					<clipitem frameBlend="FALSE" id="clipitem-rejected-153">
						<file id="file-1"/>
						<name>[REJECTED] bandicam 2025-06-02 00-01-10-144</name>
						<rate>
							<timebase>60</timebase>
							<ntsc>TRUE</ntsc>
						</rate>
						<rate>
							<timebase>60</timebase>
							<ntsc>TRUE</ntsc>
						</rate>
						<duration>42</duration>
						<start>4254</start>
						<end>4296</end>
						<in>4254</in>
						<out>4296</out>
						<enabled>FALSE</enabled>
					</clipitem>
					<clipitem frameBlend="FALSE" id="clipitem-rejected-154">
						<file id="file-1"/>
						<name>[REJECTED] bandicam 2025-06-02 00-01-10-144</name>
						<rate>
							<timebase>60</timebase>
							<ntsc>TRUE</ntsc>
						</rate>
						<rate>
							<timebase>60</timebase>
							<ntsc>TRUE</ntsc>
						</rate>
						<duration>12</duration>
						<start>4374</start>
						<end>4386</end>
						<in>4374</in>
						<out>4386</out>
						<enabled>FALSE</enabled>
					</clipitem>
					<clipitem frameBlend="FALSE" id="clipitem-rejected-155">
						<file id="file-1"/>
						<name>[REJECTED] bandicam 2025-06-02 00-01-10-144</name>
						<rate>
							<timebase>60</timebase>
							<ntsc>TRUE</ntsc>
						</rate>
						<rate>
							<timebase>60</timebase>
							<ntsc>TRUE</ntsc>
						</rate>
						<duration>60</duration>
						<start>4440</start>
						<end>4500</end>
						<in>4440</in>
						<out>4500</out>
						<enabled>FALSE</enabled>
					</clipitem>
					<clipitem frameBlend="FALSE" id="clipitem-rejected-156">
						<file id="file-1"/>
						<name>[REJECTED] bandicam 2025-06-02 00-01-10-144</name>
						<rate>
							<timebase>60</timebase>
							<ntsc>TRUE</ntsc>
						</rate>
						<rate>
							<timebase>60</timebase>
							<ntsc>TRUE</ntsc>
						</rate>
						<duration>6</duration>
						<start>4530</start>
						<end>4536</end>
						<in>4530</in>
						<out>4536</out>
						<enabled>FALSE</enabled>
					</clipitem>
					<clipitem frameBlend="FALSE" id="clipitem-rejected-157">
						<file id="file-1"/>
						<name>[REJECTED] bandicam 2025-06-02 00-01-10-144</name>
						<rate>
							<timebase>60</timebase>
							<ntsc>TRUE</ntsc>
						</rate>
						<rate>
							<timebase>60</timebase>
							<ntsc>TRUE</ntsc>
						</rate>
						<duration>36</duration>
						<start>4560</start>
						<end>4596</end>
						<in>4560</in>
						<out>4596</out>
						<enabled>FALSE</enabled>
					</clipitem>
					<clipitem frameBlend="FALSE" id="clipitem-rejected-158">
						<file id="file-1"/>
						<name>[REJECTED] bandicam 2025-06-02 00-01-10-144</name>
						<rate>
							<timebase>60</timebase>
							<ntsc>TRUE</ntsc>
						</rate>
						<rate>
							<timebase>60</timebase>
							<ntsc>TRUE</ntsc>
						</rate>
						<duration>66</duration>
						<start>4632</start>
						<end>4698</end>
						<in>4632</in>
						<out>4698</out>
						<enabled>FALSE</enabled>
					</clipitem>
					<clipitem frameBlend="FALSE" id="clipitem-rejected-159">
						<file id="file-1"/>
						<name>[REJECTED] bandicam 2025-06-02 00-01-10-144</name>
						<rate>
							<timebase>60</timebase>
							<ntsc>TRUE</ntsc>
						</rate>
						<rate>
							<timebase>60</timebase>
							<ntsc>TRUE</ntsc>
						</rate>
						<duration>6</duration>
						<start>4710</start>
						<end>4716</end>
						<in>4710</in>
						<out>4716</out>
						<enabled>FALSE</enabled>
					</clipitem>
					<clipitem frameBlend="FALSE" id="clipitem-rejected-160">
						<file id="file-1"/>
						<name>[REJECTED] bandicam 2025-06-02 00-01-10-144</name>
						<rate>
							<timebase>60</timebase>
							<ntsc>TRUE</ntsc>
						</rate>
						<rate>
							<timebase>60</timebase>
							<ntsc>TRUE</ntsc>
						</rate>
						<duration>78</duration>
						<start>4776</start>
						<end>4854</end>
						<in>4776</in>
						<out>4854</out>
						<enabled>FALSE</enabled>
					</clipitem>
					<clipitem frameBlend="FALSE" id="clipitem-rejected-161">
						<file id="file-1"/>
						<name>[REJECTED] bandicam 2025-06-02 00-01-10-144</name>
						<rate>
							<timebase>60</timebase>
							<ntsc>TRUE</ntsc>
						</rate>
						<rate>
							<timebase>60</timebase>
							<ntsc>TRUE</ntsc>
						</rate>
						<duration>90</duration>
						<start>4872</start>
						<end>4962</end>
						<in>4872</in>
						<out>4962</out>
						<enabled>FALSE</enabled>
					</clipitem>
					<clipitem frameBlend="FALSE" id="clipitem-rejected-162">
						<file id="file-1"/>
						<name>[REJECTED] bandicam 2025-06-02 00-01-10-144</name>
						<rate>
							<timebase>60</timebase>
							<ntsc>TRUE</ntsc>
						</rate>
						<rate>
							<timebase>60</timebase>
							<ntsc>TRUE</ntsc>
						</rate>
						<duration>126</duration>
						<start>4980</start>
						<end>5106</end>
						<in>4980</in>
						<out>5106</out>
						<enabled>FALSE</enabled>
					</clipitem>
					<clipitem frameBlend="FALSE" id="clipitem-rejected-163">
						<file id="file-1"/>
						<name>[REJECTED] bandicam 2025-06-02 00-01-10-144</name>
						<rate>
							<timebase>60</timebase>
							<ntsc>TRUE</ntsc>
						</rate>
						<rate>
							<timebase>60</timebase>
							<ntsc>TRUE</ntsc>
						</rate>
						<duration>12</duration>
						<start>5124</start>
						<end>5136</end>
						<in>5124</in>
						<out>5136</out>
						<enabled>FALSE</enabled>
					</clipitem>
					<clipitem frameBlend="FALSE" id="clipitem-rejected-164">
						<file id="file-1"/>
						<name>[REJECTED] bandicam 2025-06-02 00-01-10-144</name>
						<rate>
							<timebase>60</timebase>
							<ntsc>TRUE</ntsc>
						</rate>
						<rate>
							<timebase>60</timebase>
							<ntsc>TRUE</ntsc>
						</rate>
						<duration>0</duration>
						<start>5154</start>
						<end>5154</end>
						<in>5154</in>
						<out>5154</out>
						<enabled>FALSE</enabled>
					</clipitem>
					<clipitem frameBlend="FALSE" id="clipitem-rejected-165">
						<file id="file-1"/>
						<name>[REJECTED] bandicam 2025-06-02 00-01-10-144</name>
						<rate>
							<timebase>60</timebase>
							<ntsc>TRUE</ntsc>
						</rate>
						<rate>
							<timebase>60</timebase>
							<ntsc>TRUE</ntsc>
						</rate>
						<duration>138</duration>
						<start>5184</start>
						<end>5322</end>
						<in>5184</in>
						<out>5322</out>
						<enabled>FALSE</enabled>
					</clipitem>
					<clipitem frameBlend="FALSE" id="clipitem-rejected-166">
						<file id="file-1"/>
						<name>[REJECTED] bandicam 2025-06-02 00-01-10-144</name>
						<rate>
							<timebase>60</timebase>
							<ntsc>TRUE</ntsc>
						</rate>
						<rate>
							<timebase>60</timebase>
							<ntsc>TRUE</ntsc>
						</rate>
						<duration>60</duration>
						<start>5346</start>
						<end>5406</end>
						<in>5346</in>
						<out>5406</out>
						<enabled>FALSE</enabled>
					</clipitem>
					<clipitem frameBlend="FALSE" id="clipitem-rejected-167">
						<file id="file-1"/>
						<name>[REJECTED] bandicam 2025-06-02 00-01-10-144</name>
						<rate>
							<timebase>60</timebase>
							<ntsc>TRUE</ntsc>
						</rate>
						<rate>
							<timebase>60</timebase>
							<ntsc>TRUE</ntsc>
						</rate>
						<duration>12</duration>
						<start>5430</start>
						<end>5442</end>
						<in>5430</in>
						<out>5442</out>
						<enabled>FALSE</enabled>
					</clipitem>
					<clipitem frameBlend="FALSE" id="clipitem-rejected-168">
						<file id="file-1"/>
						<name>[REJECTED] bandicam 2025-06-02 00-01-10-144</name>
						<rate>
							<timebase>60</timebase>
							<ntsc>TRUE</ntsc>
						</rate>
						<rate>
							<timebase>60</timebase>
							<ntsc>TRUE</ntsc>
						</rate>
						<duration>132</duration>
						<start>5454</start>
						<end>5586</end>
						<in>5454</in>
						<out>5586</out>
						<enabled>FALSE</enabled>
					</clipitem>
					<clipitem frameBlend="FALSE" id="clipitem-rejected-169">
						<file id="file-1"/>
						<name>[REJECTED] bandicam 2025-06-02 00-01-10-144</name>
						<rate>
							<timebase>60</timebase>
							<ntsc>TRUE</ntsc>
						</rate>
						<rate>
							<timebase>60</timebase>
							<ntsc>TRUE</ntsc>
						</rate>
						<duration>66</duration>
						<start>5598</start>
						<end>5664</end>
						<in>5598</in>
						<out>5664</out>
						<enabled>FALSE</enabled>
					</clipitem>
					<clipitem frameBlend="FALSE" id="clipitem-rejected-170">
						<file id="file-1"/>
						<name>[REJECTED] bandicam 2025-06-02 00-01-10-144</name>
						<rate>
							<timebase>60</timebase>
							<ntsc>TRUE</ntsc>
						</rate>
						<rate>
							<timebase>60</timebase>
							<ntsc>TRUE</ntsc>
						</rate>
						<duration>60</duration>
						<start>5694</start>
						<end>5754</end>
						<in>5694</in>
						<out>5754</out>
						<enabled>FALSE</enabled>
					</clipitem>
					<clipitem frameBlend="FALSE" id="clipitem-rejected-171">
						<file id="file-1"/>
						<name>[REJECTED] bandicam 2025-06-02 00-01-10-144</name>
						<rate>
							<timebase>60</timebase>
							<ntsc>TRUE</ntsc>
						</rate>
						<rate>
							<timebase>60</timebase>
							<ntsc>TRUE</ntsc>
						</rate>
						<duration>12</duration>
						<start>5784</start>
						<end>5796</end>
						<in>5784</in>
						<out>5796</out>
						<enabled>FALSE</enabled>
					</clipitem>
					<clipitem frameBlend="FALSE" id="clipitem-rejected-172">
						<file id="file-1"/>
						<name>[REJECTED] bandicam 2025-06-02 00-01-10-144</name>
						<rate>
							<timebase>60</timebase>
							<ntsc>TRUE</ntsc>
						</rate>
						<rate>
							<timebase>60</timebase>
							<ntsc>TRUE</ntsc>
						</rate>
						<duration>24</duration>
						<start>5880</start>
						<end>5904</end>
						<in>5880</in>
						<out>5904</out>
						<enabled>FALSE</enabled>
					</clipitem>
					<clipitem frameBlend="FALSE" id="clipitem-rejected-173">
						<file id="file-1"/>
						<name>[REJECTED] bandicam 2025-06-02 00-01-10-144</name>
						<rate>
							<timebase>60</timebase>
							<ntsc>TRUE</ntsc>
						</rate>
						<rate>
							<timebase>60</timebase>
							<ntsc>TRUE</ntsc>
						</rate>
						<duration>30</duration>
						<start>5964</start>
						<end>5994</end>
						<in>5964</in>
						<out>5994</out>
						<enabled>FALSE</enabled>
					</clipitem>
					<clipitem frameBlend="FALSE" id="clipitem-rejected-174">
						<file id="file-1"/>
						<name>[REJECTED] bandicam 2025-06-02 00-01-10-144</name>
						<rate>
							<timebase>60</timebase>
							<ntsc>TRUE</ntsc>
						</rate>
						<rate>
							<timebase>60</timebase>
							<ntsc>TRUE</ntsc>
						</rate>
						<duration>0</duration>
						<start>6006</start>
						<end>6006</end>
						<in>6006</in>
						<out>6006</out>
						<enabled>FALSE</enabled>
					</clipitem>
					<clipitem frameBlend="FALSE" id="clipitem-rejected-175">
						<file id="file-1"/>
						<name>[REJECTED] bandicam 2025-06-02 00-01-10-144</name>
						<rate>
							<timebase>60</timebase>
							<ntsc>TRUE</ntsc>
						</rate>
						<rate>
							<timebase>60</timebase>
							<ntsc>TRUE</ntsc>
						</rate>
						<duration>108</duration>
						<start>6042</start>
						<end>6150</end>
						<in>6042</in>
						<out>6150</out>
						<enabled>FALSE</enabled>
					</clipitem>
					<clipitem frameBlend="FALSE" id="clipitem-rejected-176">
						<file id="file-1"/>
						<name>[REJECTED] bandicam 2025-06-02 00-01-10-144</name>
						<rate>
							<timebase>60</timebase>
							<ntsc>TRUE</ntsc>
						</rate>
						<rate>
							<timebase>60</timebase>
							<ntsc>TRUE</ntsc>
						</rate>
						<duration>42</duration>
						<start>6186</start>
						<end>6228</end>
						<in>6186</in>
						<out>6228</out>
						<enabled>FALSE</enabled>
					</clipitem>
					<clipitem frameBlend="FALSE" id="clipitem-rejected-177">
						<file id="file-1"/>
						<name>[REJECTED] bandicam 2025-06-02 00-01-10-144</name>
						<rate>
							<timebase>60</timebase>
							<ntsc>TRUE</ntsc>
						</rate>
						<rate>
							<timebase>60</timebase>
							<ntsc>TRUE</ntsc>
						</rate>
						<duration>270</duration>
						<start>6246</start>
						<end>6516</end>
						<in>6246</in>
						<out>6516</out>
						<enabled>FALSE</enabled>
					</clipitem>
					<clipitem frameBlend="FALSE" id="clipitem-rejected-178">
						<file id="file-1"/>
						<name>[REJECTED] bandicam 2025-06-02 00-01-10-144</name>
						<rate>
							<timebase>60</timebase>
							<ntsc>TRUE</ntsc>
						</rate>
						<rate>
							<timebase>60</timebase>
							<ntsc>TRUE</ntsc>
						</rate>
						<duration>360</duration>
						<start>6528</start>
						<end>6888</end>
						<in>6528</in>
						<out>6888</out>
						<enabled>FALSE</enabled>
					</clipitem>
					<clipitem frameBlend="FALSE" id="clipitem-rejected-179">
						<file id="file-1"/>
						<name>[REJECTED] bandicam 2025-06-02 00-01-10-144</name>
						<rate>
							<timebase>60</timebase>
							<ntsc>TRUE</ntsc>
						</rate>
						<rate>
							<timebase>60</timebase>
							<ntsc>TRUE</ntsc>
						</rate>
						<duration>48</duration>
						<start>6900</start>
						<end>6948</end>
						<in>6900</in>
						<out>6948</out>
						<enabled>FALSE</enabled>
					</clipitem>
					<clipitem frameBlend="FALSE" id="clipitem-rejected-180">
						<file id="file-1"/>
						<name>[REJECTED] bandicam 2025-06-02 00-01-10-144</name>
						<rate>
							<timebase>60</timebase>
							<ntsc>TRUE</ntsc>
						</rate>
						<rate>
							<timebase>60</timebase>
							<ntsc>TRUE</ntsc>
						</rate>
						<duration>108</duration>
						<start>6960</start>
						<end>7068</end>
						<in>6960</in>
						<out>7068</out>
						<enabled>FALSE</enabled>
					</clipitem>
					<clipitem frameBlend="FALSE" id="clipitem-rejected-181">
						<file id="file-1"/>
						<name>[REJECTED] bandicam 2025-06-02 00-01-10-144</name>
						<rate>
							<timebase>60</timebase>
							<ntsc>TRUE</ntsc>
						</rate>
						<rate>
							<timebase>60</timebase>
							<ntsc>TRUE</ntsc>
						</rate>
						<duration>6</duration>
						<start>0</start>
						<end>6</end>
						<in>0</in>
						<out>6</out>
						<enabled>FALSE</enabled>
					</clipitem>
					<clipitem frameBlend="FALSE" id="clipitem-rejected-182">
						<file id="file-1"/>
						<name>[REJECTED] bandicam 2025-06-02 00-01-10-144</name>
						<rate>
							<timebase>60</timebase>
							<ntsc>TRUE</ntsc>
						</rate>
						<rate>
							<timebase>60</timebase>
							<ntsc>TRUE</ntsc>
						</rate>
						<duration>0</duration>
						<start>48</start>
						<end>48</end>
						<in>48</in>
						<out>48</out>
						<enabled>FALSE</enabled>
					</clipitem>
					<clipitem frameBlend="FALSE" id="clipitem-rejected-183">
						<file id="file-1"/>
						<name>[REJECTED] bandicam 2025-06-02 00-01-10-144</name>
						<rate>
							<timebase>60</timebase>
							<ntsc>TRUE</ntsc>
						</rate>
						<rate>
							<timebase>60</timebase>
							<ntsc>TRUE</ntsc>
						</rate>
						<duration>6</duration>
						<start>96</start>
						<end>102</end>
						<in>96</in>
						<out>102</out>
						<enabled>FALSE</enabled>
					</clipitem>
					<clipitem frameBlend="FALSE" id="clipitem-rejected-184">
						<file id="file-1"/>
						<name>[REJECTED] bandicam 2025-06-02 00-01-10-144</name>
						<rate>
							<timebase>60</timebase>
							<ntsc>TRUE</ntsc>
						</rate>
						<rate>
							<timebase>60</timebase>
							<ntsc>TRUE</ntsc>
						</rate>
						<duration>36</duration>
						<start>132</start>
						<end>168</end>
						<in>132</in>
						<out>168</out>
						<enabled>FALSE</enabled>
					</clipitem>
					<clipitem frameBlend="FALSE" id="clipitem-rejected-185">
						<file id="file-1"/>
						<name>[REJECTED] bandicam 2025-06-02 00-01-10-144</name>
						<rate>
							<timebase>60</timebase>
							<ntsc>TRUE</ntsc>
						</rate>
						<rate>
							<timebase>60</timebase>
							<ntsc>TRUE</ntsc>
						</rate>
						<duration>90</duration>
						<start>204</start>
						<end>294</end>
						<in>204</in>
						<out>294</out>
						<enabled>FALSE</enabled>
					</clipitem>
					<clipitem frameBlend="FALSE" id="clipitem-rejected-186">
						<file id="file-1"/>
						<name>[REJECTED] bandicam 2025-06-02 00-01-10-144</name>
						<rate>
							<timebase>60</timebase>
							<ntsc>TRUE</ntsc>
						</rate>
						<rate>
							<timebase>60</timebase>
							<ntsc>TRUE</ntsc>
						</rate>
						<duration>48</duration>
						<start>306</start>
						<end>354</end>
						<in>306</in>
						<out>354</out>
						<enabled>FALSE</enabled>
					</clipitem>
					<clipitem frameBlend="FALSE" id="clipitem-rejected-187">
						<file id="file-1"/>
						<name>[REJECTED] bandicam 2025-06-02 00-01-10-144</name>
						<rate>
							<timebase>60</timebase>
							<ntsc>TRUE</ntsc>
						</rate>
						<rate>
							<timebase>60</timebase>
							<ntsc>TRUE</ntsc>
						</rate>
						<duration>36</duration>
						<start>396</start>
						<end>432</end>
						<in>396</in>
						<out>432</out>
						<enabled>FALSE</enabled>
					</clipitem>
					<clipitem frameBlend="FALSE" id="clipitem-rejected-188">
						<file id="file-1"/>
						<name>[REJECTED] bandicam 2025-06-02 00-01-10-144</name>
						<rate>
							<timebase>60</timebase>
							<ntsc>TRUE</ntsc>
						</rate>
						<rate>
							<timebase>60</timebase>
							<ntsc>TRUE</ntsc>
						</rate>
						<duration>0</duration>
						<start>444</start>
						<end>444</end>
						<in>444</in>
						<out>444</out>
						<enabled>FALSE</enabled>
					</clipitem>
					<clipitem frameBlend="FALSE" id="clipitem-rejected-189">
						<file id="file-1"/>
						<name>[REJECTED] bandicam 2025-06-02 00-01-10-144</name>
						<rate>
							<timebase>60</timebase>
							<ntsc>TRUE</ntsc>
						</rate>
						<rate>
							<timebase>60</timebase>
							<ntsc>TRUE</ntsc>
						</rate>
						<duration>0</duration>
						<start>498</start>
						<end>498</end>
						<in>498</in>
						<out>498</out>
						<enabled>FALSE</enabled>
					</clipitem>
					<clipitem frameBlend="FALSE" id="clipitem-rejected-190">
						<file id="file-1"/>
						<name>[REJECTED] bandicam 2025-06-02 00-01-10-144</name>
						<rate>
							<timebase>60</timebase>
							<ntsc>TRUE</ntsc>
						</rate>
						<rate>
							<timebase>60</timebase>
							<ntsc>TRUE</ntsc>
						</rate>
						<duration>12</duration>
						<start>510</start>
						<end>522</end>
						<in>510</in>
						<out>522</out>
						<enabled>FALSE</enabled>
					</clipitem>
					<clipitem frameBlend="FALSE" id="clipitem-rejected-191">
						<file id="file-1"/>
						<name>[REJECTED] bandicam 2025-06-02 00-01-10-144</name>
						<rate>
							<timebase>60</timebase>
							<ntsc>TRUE</ntsc>
						</rate>
						<rate>
							<timebase>60</timebase>
							<ntsc>TRUE</ntsc>
						</rate>
						<duration>6</duration>
						<start>570</start>
						<end>576</end>
						<in>570</in>
						<out>576</out>
						<enabled>FALSE</enabled>
					</clipitem>
					<clipitem frameBlend="FALSE" id="clipitem-rejected-192">
						<file id="file-1"/>
						<name>[REJECTED] bandicam 2025-06-02 00-01-10-144</name>
						<rate>
							<timebase>60</timebase>
							<ntsc>TRUE</ntsc>
						</rate>
						<rate>
							<timebase>60</timebase>
							<ntsc>TRUE</ntsc>
						</rate>
						<duration>6</duration>
						<start>612</start>
						<end>618</end>
						<in>612</in>
						<out>618</out>
						<enabled>FALSE</enabled>
					</clipitem>
					<clipitem frameBlend="FALSE" id="clipitem-rejected-193">
						<file id="file-1"/>
						<name>[REJECTED] bandicam 2025-06-02 00-01-10-144</name>
						<rate>
							<timebase>60</timebase>
							<ntsc>TRUE</ntsc>
						</rate>
						<rate>
							<timebase>60</timebase>
							<ntsc>TRUE</ntsc>
						</rate>
						<duration>162</duration>
						<start>648</start>
						<end>810</end>
						<in>648</in>
						<out>810</out>
						<enabled>FALSE</enabled>
					</clipitem>
					<clipitem frameBlend="FALSE" id="clipitem-rejected-194">
						<file id="file-1"/>
						<name>[REJECTED] bandicam 2025-06-02 00-01-10-144</name>
						<rate>
							<timebase>60</timebase>
							<ntsc>TRUE</ntsc>
						</rate>
						<rate>
							<timebase>60</timebase>
							<ntsc>TRUE</ntsc>
						</rate>
						<duration>24</duration>
						<start>822</start>
						<end>846</end>
						<in>822</in>
						<out>846</out>
						<enabled>FALSE</enabled>
					</clipitem>
					<clipitem frameBlend="FALSE" id="clipitem-rejected-195">
						<file id="file-1"/>
						<name>[REJECTED] bandicam 2025-06-02 00-01-10-144</name>
						<rate>
							<timebase>60</timebase>
							<ntsc>TRUE</ntsc>
						</rate>
						<rate>
							<timebase>60</timebase>
							<ntsc>TRUE</ntsc>
						</rate>
						<duration>30</duration>
						<start>858</start>
						<end>888</end>
						<in>858</in>
						<out>888</out>
						<enabled>FALSE</enabled>
					</clipitem>
					<clipitem frameBlend="FALSE" id="clipitem-rejected-196">
						<file id="file-1"/>
						<name>[REJECTED] bandicam 2025-06-02 00-01-10-144</name>
						<rate>
							<timebase>60</timebase>
							<ntsc>TRUE</ntsc>
						</rate>
						<rate>
							<timebase>60</timebase>
							<ntsc>TRUE</ntsc>
						</rate>
						<duration>6</duration>
						<start>900</start>
						<end>906</end>
						<in>900</in>
						<out>906</out>
						<enabled>FALSE</enabled>
					</clipitem>
					<clipitem frameBlend="FALSE" id="clipitem-rejected-197">
						<file id="file-1"/>
						<name>[REJECTED] bandicam 2025-06-02 00-01-10-144</name>
						<rate>
							<timebase>60</timebase>
							<ntsc>TRUE</ntsc>
						</rate>
						<rate>
							<timebase>60</timebase>
							<ntsc>TRUE</ntsc>
						</rate>
						<duration>12</duration>
						<start>918</start>
						<end>930</end>
						<in>918</in>
						<out>930</out>
						<enabled>FALSE</enabled>
					</clipitem>
					<clipitem frameBlend="FALSE" id="clipitem-rejected-198">
						<file id="file-1"/>
						<name>[REJECTED] bandicam 2025-06-02 00-01-10-144</name>
						<rate>
							<timebase>60</timebase>
							<ntsc>TRUE</ntsc>
						</rate>
						<rate>
							<timebase>60</timebase>
							<ntsc>TRUE</ntsc>
						</rate>
						<duration>6</duration>
						<start>942</start>
						<end>948</end>
						<in>942</in>
						<out>948</out>
						<enabled>FALSE</enabled>
					</clipitem>
					<clipitem frameBlend="FALSE" id="clipitem-rejected-199">
						<file id="file-1"/>
						<name>[REJECTED] bandicam 2025-06-02 00-01-10-144</name>
						<rate>
							<timebase>60</timebase>
							<ntsc>TRUE</ntsc>
						</rate>
						<rate>
							<timebase>60</timebase>
							<ntsc>TRUE</ntsc>
						</rate>
						<duration>18</duration>
						<start>960</start>
						<end>978</end>
						<in>960</in>
						<out>978</out>
						<enabled>FALSE</enabled>
					</clipitem>
					<clipitem frameBlend="FALSE" id="clipitem-rejected-200">
						<file id="file-1"/>
						<name>[REJECTED] bandicam 2025-06-02 00-01-10-144</name>
						<rate>
							<timebase>60</timebase>
							<ntsc>TRUE</ntsc>
						</rate>
						<rate>
							<timebase>60</timebase>
							<ntsc>TRUE</ntsc>
						</rate>
						<duration>78</duration>
						<start>1002</start>
						<end>1080</end>
						<in>1002</in>
						<out>1080</out>
						<enabled>FALSE</enabled>
					</clipitem>
					<clipitem frameBlend="FALSE" id="clipitem-rejected-201">
						<file id="file-1"/>
						<name>[REJECTED] bandicam 2025-06-02 00-01-10-144</name>
						<rate>
							<timebase>60</timebase>
							<ntsc>TRUE</ntsc>
						</rate>
						<rate>
							<timebase>60</timebase>
							<ntsc>TRUE</ntsc>
						</rate>
						<duration>78</duration>
						<start>1104</start>
						<end>1182</end>
						<in>1104</in>
						<out>1182</out>
						<enabled>FALSE</enabled>
					</clipitem>
					<clipitem frameBlend="FALSE" id="clipitem-rejected-202">
						<file id="file-1"/>
						<name>[REJECTED] bandicam 2025-06-02 00-01-10-144</name>
						<rate>
							<timebase>60</timebase>
							<ntsc>TRUE</ntsc>
						</rate>
						<rate>
							<timebase>60</timebase>
							<ntsc>TRUE</ntsc>
						</rate>
						<duration>66</duration>
						<start>1248</start>
						<end>1314</end>
						<in>1248</in>
						<out>1314</out>
						<enabled>FALSE</enabled>
					</clipitem>
					<clipitem frameBlend="FALSE" id="clipitem-rejected-203">
						<file id="file-1"/>
						<name>[REJECTED] bandicam 2025-06-02 00-01-10-144</name>
						<rate>
							<timebase>60</timebase>
							<ntsc>TRUE</ntsc>
						</rate>
						<rate>
							<timebase>60</timebase>
							<ntsc>TRUE</ntsc>
						</rate>
						<duration>42</duration>
						<start>1326</start>
						<end>1368</end>
						<in>1326</in>
						<out>1368</out>
						<enabled>FALSE</enabled>
					</clipitem>
					<clipitem frameBlend="FALSE" id="clipitem-rejected-204">
						<file id="file-1"/>
						<name>[REJECTED] bandicam 2025-06-02 00-01-10-144</name>
						<rate>
							<timebase>60</timebase>
							<ntsc>TRUE</ntsc>
						</rate>
						<rate>
							<timebase>60</timebase>
							<ntsc>TRUE</ntsc>
						</rate>
						<duration>0</duration>
						<start>1440</start>
						<end>1440</end>
						<in>1440</in>
						<out>1440</out>
						<enabled>FALSE</enabled>
					</clipitem>
					<clipitem frameBlend="FALSE" id="clipitem-rejected-205">
						<file id="file-1"/>
						<name>[REJECTED] bandicam 2025-06-02 00-01-10-144</name>
						<rate>
							<timebase>60</timebase>
							<ntsc>TRUE</ntsc>
						</rate>
						<rate>
							<timebase>60</timebase>
							<ntsc>TRUE</ntsc>
						</rate>
						<duration>36</duration>
						<start>1488</start>
						<end>1524</end>
						<in>1488</in>
						<out>1524</out>
						<enabled>FALSE</enabled>
					</clipitem>
					<clipitem frameBlend="FALSE" id="clipitem-rejected-206">
						<file id="file-1"/>
						<name>[REJECTED] bandicam 2025-06-02 00-01-10-144</name>
						<rate>
							<timebase>60</timebase>
							<ntsc>TRUE</ntsc>
						</rate>
						<rate>
							<timebase>60</timebase>
							<ntsc>TRUE</ntsc>
						</rate>
						<duration>18</duration>
						<start>1542</start>
						<end>1560</end>
						<in>1542</in>
						<out>1560</out>
						<enabled>FALSE</enabled>
					</clipitem>
					<clipitem frameBlend="FALSE" id="clipitem-rejected-207">
						<file id="file-1"/>
						<name>[REJECTED] bandicam 2025-06-02 00-01-10-144</name>
						<rate>
							<timebase>60</timebase>
							<ntsc>TRUE</ntsc>
						</rate>
						<rate>
							<timebase>60</timebase>
							<ntsc>TRUE</ntsc>
						</rate>
						<duration>78</duration>
						<start>1608</start>
						<end>1686</end>
						<in>1608</in>
						<out>1686</out>
						<enabled>FALSE</enabled>
					</clipitem>
					<clipitem frameBlend="FALSE" id="clipitem-rejected-208">
						<file id="file-1"/>
						<name>[REJECTED] bandicam 2025-06-02 00-01-10-144</name>
						<rate>
							<timebase>60</timebase>
							<ntsc>TRUE</ntsc>
						</rate>
						<rate>
							<timebase>60</timebase>
							<ntsc>TRUE</ntsc>
						</rate>
						<duration>6</duration>
						<start>1788</start>
						<end>1794</end>
						<in>1788</in>
						<out>1794</out>
						<enabled>FALSE</enabled>
					</clipitem>
					<clipitem frameBlend="FALSE" id="clipitem-rejected-209">
						<file id="file-1"/>
						<name>[REJECTED] bandicam 2025-06-02 00-01-10-144</name>
						<rate>
							<timebase>60</timebase>
							<ntsc>TRUE</ntsc>
						</rate>
						<rate>
							<timebase>60</timebase>
							<ntsc>TRUE</ntsc>
						</rate>
						<duration>0</duration>
						<start>1878</start>
						<end>1878</end>
						<in>1878</in>
						<out>1878</out>
						<enabled>FALSE</enabled>
					</clipitem>
					<clipitem frameBlend="FALSE" id="clipitem-rejected-210">
						<file id="file-1"/>
						<name>[REJECTED] bandicam 2025-06-02 00-01-10-144</name>
						<rate>
							<timebase>60</timebase>
							<ntsc>TRUE</ntsc>
						</rate>
						<rate>
							<timebase>60</timebase>
							<ntsc>TRUE</ntsc>
						</rate>
						<duration>6</duration>
						<start>1914</start>
						<end>1920</end>
						<in>1914</in>
						<out>1920</out>
						<enabled>FALSE</enabled>
					</clipitem>
					<clipitem frameBlend="FALSE" id="clipitem-rejected-211">
						<file id="file-1"/>
						<name>[REJECTED] bandicam 2025-06-02 00-01-10-144</name>
						<rate>
							<timebase>60</timebase>
							<ntsc>TRUE</ntsc>
						</rate>
						<rate>
							<timebase>60</timebase>
							<ntsc>TRUE</ntsc>
						</rate>
						<duration>198</duration>
						<start>1968</start>
						<end>2166</end>
						<in>1968</in>
						<out>2166</out>
						<enabled>FALSE</enabled>
					</clipitem>
					<clipitem frameBlend="FALSE" id="clipitem-rejected-212">
						<file id="file-1"/>
						<name>[REJECTED] bandicam 2025-06-02 00-01-10-144</name>
						<rate>
							<timebase>60</timebase>
							<ntsc>TRUE</ntsc>
						</rate>
						<rate>
							<timebase>60</timebase>
							<ntsc>TRUE</ntsc>
						</rate>
						<duration>48</duration>
						<start>2220</start>
						<end>2268</end>
						<in>2220</in>
						<out>2268</out>
						<enabled>FALSE</enabled>
					</clipitem>
					<clipitem frameBlend="FALSE" id="clipitem-rejected-213">
						<file id="file-1"/>
						<name>[REJECTED] bandicam 2025-06-02 00-01-10-144</name>
						<rate>
							<timebase>60</timebase>
							<ntsc>TRUE</ntsc>
						</rate>
						<rate>
							<timebase>60</timebase>
							<ntsc>TRUE</ntsc>
						</rate>
						<duration>66</duration>
						<start>2376</start>
						<end>2442</end>
						<in>2376</in>
						<out>2442</out>
						<enabled>FALSE</enabled>
					</clipitem>
					<clipitem frameBlend="FALSE" id="clipitem-rejected-214">
						<file id="file-1"/>
						<name>[REJECTED] bandicam 2025-06-02 00-01-10-144</name>
						<rate>
							<timebase>60</timebase>
							<ntsc>TRUE</ntsc>
						</rate>
						<rate>
							<timebase>60</timebase>
							<ntsc>TRUE</ntsc>
						</rate>
						<duration>0</duration>
						<start>2472</start>
						<end>2472</end>
						<in>2472</in>
						<out>2472</out>
						<enabled>FALSE</enabled>
					</clipitem>
					<clipitem frameBlend="FALSE" id="clipitem-rejected-215">
						<file id="file-1"/>
						<name>[REJECTED] bandicam 2025-06-02 00-01-10-144</name>
						<rate>
							<timebase>60</timebase>
							<ntsc>TRUE</ntsc>
						</rate>
						<rate>
							<timebase>60</timebase>
							<ntsc>TRUE</ntsc>
						</rate>
						<duration>0</duration>
						<start>2490</start>
						<end>2490</end>
						<in>2490</in>
						<out>2490</out>
						<enabled>FALSE</enabled>
					</clipitem>
					<clipitem frameBlend="FALSE" id="clipitem-rejected-216">
						<file id="file-1"/>
						<name>[REJECTED] bandicam 2025-06-02 00-01-10-144</name>
						<rate>
							<timebase>60</timebase>
							<ntsc>TRUE</ntsc>
						</rate>
						<rate>
							<timebase>60</timebase>
							<ntsc>TRUE</ntsc>
						</rate>
						<duration>18</duration>
						<start>2508</start>
						<end>2526</end>
						<in>2508</in>
						<out>2526</out>
						<enabled>FALSE</enabled>
					</clipitem>
					<clipitem frameBlend="FALSE" id="clipitem-rejected-217">
						<file id="file-1"/>
						<name>[REJECTED] bandicam 2025-06-02 00-01-10-144</name>
						<rate>
							<timebase>60</timebase>
							<ntsc>TRUE</ntsc>
						</rate>
						<rate>
							<timebase>60</timebase>
							<ntsc>TRUE</ntsc>
						</rate>
						<duration>12</duration>
						<start>2574</start>
						<end>2586</end>
						<in>2574</in>
						<out>2586</out>
						<enabled>FALSE</enabled>
					</clipitem>
					<clipitem frameBlend="FALSE" id="clipitem-rejected-218">
						<file id="file-1"/>
						<name>[REJECTED] bandicam 2025-06-02 00-01-10-144</name>
						<rate>
							<timebase>60</timebase>
							<ntsc>TRUE</ntsc>
						</rate>
						<rate>
							<timebase>60</timebase>
							<ntsc>TRUE</ntsc>
						</rate>
						<duration>18</duration>
						<start>2700</start>
						<end>2718</end>
						<in>2700</in>
						<out>2718</out>
						<enabled>FALSE</enabled>
					</clipitem>
					<clipitem frameBlend="FALSE" id="clipitem-rejected-219">
						<file id="file-1"/>
						<name>[REJECTED] bandicam 2025-06-02 00-01-10-144</name>
						<rate>
							<timebase>60</timebase>
							<ntsc>TRUE</ntsc>
						</rate>
						<rate>
							<timebase>60</timebase>
							<ntsc>TRUE</ntsc>
						</rate>
						<duration>18</duration>
						<start>2916</start>
						<end>2934</end>
						<in>2916</in>
						<out>2934</out>
						<enabled>FALSE</enabled>
					</clipitem>
					<clipitem frameBlend="FALSE" id="clipitem-rejected-220">
						<file id="file-1"/>
						<name>[REJECTED] bandicam 2025-06-02 00-01-10-144</name>
						<rate>
							<timebase>60</timebase>
							<ntsc>TRUE</ntsc>
						</rate>
						<rate>
							<timebase>60</timebase>
							<ntsc>TRUE</ntsc>
						</rate>
						<duration>0</duration>
						<start>2958</start>
						<end>2958</end>
						<in>2958</in>
						<out>2958</out>
						<enabled>FALSE</enabled>
					</clipitem>
					<clipitem frameBlend="FALSE" id="clipitem-rejected-221">
						<file id="file-1"/>
						<name>[REJECTED] bandicam 2025-06-02 00-01-10-144</name>
						<rate>
							<timebase>60</timebase>
							<ntsc>TRUE</ntsc>
						</rate>
						<rate>
							<timebase>60</timebase>
							<ntsc>TRUE</ntsc>
						</rate>
						<duration>0</duration>
						<start>3006</start>
						<end>3006</end>
						<in>3006</in>
						<out>3006</out>
						<enabled>FALSE</enabled>
					</clipitem>
					<clipitem frameBlend="FALSE" id="clipitem-rejected-222">
						<file id="file-1"/>
						<name>[REJECTED] bandicam 2025-06-02 00-01-10-144</name>
						<rate>
							<timebase>60</timebase>
							<ntsc>TRUE</ntsc>
						</rate>
						<rate>
							<timebase>60</timebase>
							<ntsc>TRUE</ntsc>
						</rate>
						<duration>0</duration>
						<start>3018</start>
						<end>3018</end>
						<in>3018</in>
						<out>3018</out>
						<enabled>FALSE</enabled>
					</clipitem>
					<clipitem frameBlend="FALSE" id="clipitem-rejected-223">
						<file id="file-1"/>
						<name>[REJECTED] bandicam 2025-06-02 00-01-10-144</name>
						<rate>
							<timebase>60</timebase>
							<ntsc>TRUE</ntsc>
						</rate>
						<rate>
							<timebase>60</timebase>
							<ntsc>TRUE</ntsc>
						</rate>
						<duration>18</duration>
						<start>3030</start>
						<end>3048</end>
						<in>3030</in>
						<out>3048</out>
						<enabled>FALSE</enabled>
					</clipitem>
					<clipitem frameBlend="FALSE" id="clipitem-rejected-224">
						<file id="file-1"/>
						<name>[REJECTED] bandicam 2025-06-02 00-01-10-144</name>
						<rate>
							<timebase>60</timebase>
							<ntsc>TRUE</ntsc>
						</rate>
						<rate>
							<timebase>60</timebase>
							<ntsc>TRUE</ntsc>
						</rate>
						<duration>6</duration>
						<start>3108</start>
						<end>3114</end>
						<in>3108</in>
						<out>3114</out>
						<enabled>FALSE</enabled>
					</clipitem>
					<clipitem frameBlend="FALSE" id="clipitem-rejected-225">
						<file id="file-1"/>
						<name>[REJECTED] bandicam 2025-06-02 00-01-10-144</name>
						<rate>
							<timebase>60</timebase>
							<ntsc>TRUE</ntsc>
						</rate>
						<rate>
							<timebase>60</timebase>
							<ntsc>TRUE</ntsc>
						</rate>
						<duration>54</duration>
						<start>3162</start>
						<end>3216</end>
						<in>3162</in>
						<out>3216</out>
						<enabled>FALSE</enabled>
					</clipitem>
					<clipitem frameBlend="FALSE" id="clipitem-rejected-226">
						<file id="file-1"/>
						<name>[REJECTED] bandicam 2025-06-02 00-01-10-144</name>
						<rate>
							<timebase>60</timebase>
							<ntsc>TRUE</ntsc>
						</rate>
						<rate>
							<timebase>60</timebase>
							<ntsc>TRUE</ntsc>
						</rate>
						<duration>54</duration>
						<start>3312</start>
						<end>3366</end>
						<in>3312</in>
						<out>3366</out>
						<enabled>FALSE</enabled>
					</clipitem>
					<clipitem frameBlend="FALSE" id="clipitem-rejected-227">
						<file id="file-1"/>
						<name>[REJECTED] bandicam 2025-06-02 00-01-10-144</name>
						<rate>
							<timebase>60</timebase>
							<ntsc>TRUE</ntsc>
						</rate>
						<rate>
							<timebase>60</timebase>
							<ntsc>TRUE</ntsc>
						</rate>
						<duration>30</duration>
						<start>3414</start>
						<end>3444</end>
						<in>3414</in>
						<out>3444</out>
						<enabled>FALSE</enabled>
					</clipitem>
					<clipitem frameBlend="FALSE" id="clipitem-rejected-228">
						<file id="file-1"/>
						<name>[REJECTED] bandicam 2025-06-02 00-01-10-144</name>
						<rate>
							<timebase>60</timebase>
							<ntsc>TRUE</ntsc>
						</rate>
						<rate>
							<timebase>60</timebase>
							<ntsc>TRUE</ntsc>
						</rate>
						<duration>12</duration>
						<start>3480</start>
						<end>3492</end>
						<in>3480</in>
						<out>3492</out>
						<enabled>FALSE</enabled>
					</clipitem>
					<clipitem frameBlend="FALSE" id="clipitem-rejected-229">
						<file id="file-1"/>
						<name>[REJECTED] bandicam 2025-06-02 00-01-10-144</name>
						<rate>
							<timebase>60</timebase>
							<ntsc>TRUE</ntsc>
						</rate>
						<rate>
							<timebase>60</timebase>
							<ntsc>TRUE</ntsc>
						</rate>
						<duration>36</duration>
						<start>3540</start>
						<end>3576</end>
						<in>3540</in>
						<out>3576</out>
						<enabled>FALSE</enabled>
					</clipitem>
					<clipitem frameBlend="FALSE" id="clipitem-rejected-230">
						<file id="file-1"/>
						<name>[REJECTED] bandicam 2025-06-02 00-01-10-144</name>
						<rate>
							<timebase>60</timebase>
							<ntsc>TRUE</ntsc>
						</rate>
						<rate>
							<timebase>60</timebase>
							<ntsc>TRUE</ntsc>
						</rate>
						<duration>30</duration>
						<start>3588</start>
						<end>3618</end>
						<in>3588</in>
						<out>3618</out>
						<enabled>FALSE</enabled>
					</clipitem>
					<clipitem frameBlend="FALSE" id="clipitem-rejected-231">
						<file id="file-1"/>
						<name>[REJECTED] bandicam 2025-06-02 00-01-10-144</name>
						<rate>
							<timebase>60</timebase>
							<ntsc>TRUE</ntsc>
						</rate>
						<rate>
							<timebase>60</timebase>
							<ntsc>TRUE</ntsc>
						</rate>
						<duration>18</duration>
						<start>3648</start>
						<end>3666</end>
						<in>3648</in>
						<out>3666</out>
						<enabled>FALSE</enabled>
					</clipitem>
					<clipitem frameBlend="FALSE" id="clipitem-rejected-232">
						<file id="file-1"/>
						<name>[REJECTED] bandicam 2025-06-02 00-01-10-144</name>
						<rate>
							<timebase>60</timebase>
							<ntsc>TRUE</ntsc>
						</rate>
						<rate>
							<timebase>60</timebase>
							<ntsc>TRUE</ntsc>
						</rate>
						<duration>12</duration>
						<start>3678</start>
						<end>3690</end>
						<in>3678</in>
						<out>3690</out>
						<enabled>FALSE</enabled>
					</clipitem>
					<clipitem frameBlend="FALSE" id="clipitem-rejected-233">
						<file id="file-1"/>
						<name>[REJECTED] bandicam 2025-06-02 00-01-10-144</name>
						<rate>
							<timebase>60</timebase>
							<ntsc>TRUE</ntsc>
						</rate>
						<rate>
							<timebase>60</timebase>
							<ntsc>TRUE</ntsc>
						</rate>
						<duration>60</duration>
						<start>3702</start>
						<end>3762</end>
						<in>3702</in>
						<out>3762</out>
						<enabled>FALSE</enabled>
					</clipitem>
					<clipitem frameBlend="FALSE" id="clipitem-rejected-234">
						<file id="file-1"/>
						<name>[REJECTED] bandicam 2025-06-02 00-01-10-144</name>
						<rate>
							<timebase>60</timebase>
							<ntsc>TRUE</ntsc>
						</rate>
						<rate>
							<timebase>60</timebase>
							<ntsc>TRUE</ntsc>
						</rate>
						<duration>54</duration>
						<start>3786</start>
						<end>3840</end>
						<in>3786</in>
						<out>3840</out>
						<enabled>FALSE</enabled>
					</clipitem>
					<clipitem frameBlend="FALSE" id="clipitem-rejected-235">
						<file id="file-1"/>
						<name>[REJECTED] bandicam 2025-06-02 00-01-10-144</name>
						<rate>
							<timebase>60</timebase>
							<ntsc>TRUE</ntsc>
						</rate>
						<rate>
							<timebase>60</timebase>
							<ntsc>TRUE</ntsc>
						</rate>
						<duration>0</duration>
						<start>3894</start>
						<end>3894</end>
						<in>3894</in>
						<out>3894</out>
						<enabled>FALSE</enabled>
					</clipitem>
					<clipitem frameBlend="FALSE" id="clipitem-rejected-236">
						<file id="file-1"/>
						<name>[REJECTED] bandicam 2025-06-02 00-01-10-144</name>
						<rate>
							<timebase>60</timebase>
							<ntsc>TRUE</ntsc>
						</rate>
						<rate>
							<timebase>60</timebase>
							<ntsc>TRUE</ntsc>
						</rate>
						<duration>72</duration>
						<start>3948</start>
						<end>4020</end>
						<in>3948</in>
						<out>4020</out>
						<enabled>FALSE</enabled>
					</clipitem>
					<clipitem frameBlend="FALSE" id="clipitem-rejected-237">
						<file id="file-1"/>
						<name>[REJECTED] bandicam 2025-06-02 00-01-10-144</name>
						<rate>
							<timebase>60</timebase>
							<ntsc>TRUE</ntsc>
						</rate>
						<rate>
							<timebase>60</timebase>
							<ntsc>TRUE</ntsc>
						</rate>
						<duration>0</duration>
						<start>4038</start>
						<end>4038</end>
						<in>4038</in>
						<out>4038</out>
						<enabled>FALSE</enabled>
					</clipitem>
					<clipitem frameBlend="FALSE" id="clipitem-rejected-238">
						<file id="file-1"/>
						<name>[REJECTED] bandicam 2025-06-02 00-01-10-144</name>
						<rate>
							<timebase>60</timebase>
							<ntsc>TRUE</ntsc>
						</rate>
						<rate>
							<timebase>60</timebase>
							<ntsc>TRUE</ntsc>
						</rate>
						<duration>18</duration>
						<start>4050</start>
						<end>4068</end>
						<in>4050</in>
						<out>4068</out>
						<enabled>FALSE</enabled>
					</clipitem>
					<clipitem frameBlend="FALSE" id="clipitem-rejected-239">
						<file id="file-1"/>
						<name>[REJECTED] bandicam 2025-06-02 00-01-10-144</name>
						<rate>
							<timebase>60</timebase>
							<ntsc>TRUE</ntsc>
						</rate>
						<rate>
							<timebase>60</timebase>
							<ntsc>TRUE</ntsc>
						</rate>
						<duration>0</duration>
						<start>4182</start>
						<end>4182</end>
						<in>4182</in>
						<out>4182</out>
						<enabled>FALSE</enabled>
					</clipitem>
					<clipitem frameBlend="FALSE" id="clipitem-rejected-240">
						<file id="file-1"/>
						<name>[REJECTED] bandicam 2025-06-02 00-01-10-144</name>
						<rate>
							<timebase>60</timebase>
							<ntsc>TRUE</ntsc>
						</rate>
						<rate>
							<timebase>60</timebase>
							<ntsc>TRUE</ntsc>
						</rate>
						<duration>0</duration>
						<start>4212</start>
						<end>4212</end>
						<in>4212</in>
						<out>4212</out>
						<enabled>FALSE</enabled>
					</clipitem>
					<clipitem frameBlend="FALSE" id="clipitem-rejected-241">
						<file id="file-1"/>
						<name>[REJECTED] bandicam 2025-06-02 00-01-10-144</name>
						<rate>
							<timebase>60</timebase>
							<ntsc>TRUE</ntsc>
						</rate>
						<rate>
							<timebase>60</timebase>
							<ntsc>TRUE</ntsc>
						</rate>
						<duration>0</duration>
						<start>4296</start>
						<end>4296</end>
						<in>4296</in>
						<out>4296</out>
						<enabled>FALSE</enabled>
					</clipitem>
					<clipitem frameBlend="FALSE" id="clipitem-rejected-242">
						<file id="file-1"/>
						<name>[REJECTED] bandicam 2025-06-02 00-01-10-144</name>
						<rate>
							<timebase>60</timebase>
							<ntsc>TRUE</ntsc>
						</rate>
						<rate>
							<timebase>60</timebase>
							<ntsc>TRUE</ntsc>
						</rate>
						<duration>18</duration>
						<start>4440</start>
						<end>4458</end>
						<in>4440</in>
						<out>4458</out>
						<enabled>FALSE</enabled>
					</clipitem>
					<clipitem frameBlend="FALSE" id="clipitem-rejected-243">
						<file id="file-1"/>
						<name>[REJECTED] bandicam 2025-06-02 00-01-10-144</name>
						<rate>
							<timebase>60</timebase>
							<ntsc>TRUE</ntsc>
						</rate>
						<rate>
							<timebase>60</timebase>
							<ntsc>TRUE</ntsc>
						</rate>
						<duration>36</duration>
						<start>4560</start>
						<end>4596</end>
						<in>4560</in>
						<out>4596</out>
						<enabled>FALSE</enabled>
					</clipitem>
					<clipitem frameBlend="FALSE" id="clipitem-rejected-244">
						<file id="file-1"/>
						<name>[REJECTED] bandicam 2025-06-02 00-01-10-144</name>
						<rate>
							<timebase>60</timebase>
							<ntsc>TRUE</ntsc>
						</rate>
						<rate>
							<timebase>60</timebase>
							<ntsc>TRUE</ntsc>
						</rate>
						<duration>6</duration>
						<start>4638</start>
						<end>4644</end>
						<in>4638</in>
						<out>4644</out>
						<enabled>FALSE</enabled>
					</clipitem>
					<clipitem frameBlend="FALSE" id="clipitem-rejected-245">
						<file id="file-1"/>
						<name>[REJECTED] bandicam 2025-06-02 00-01-10-144</name>
						<rate>
							<timebase>60</timebase>
							<ntsc>TRUE</ntsc>
						</rate>
						<rate>
							<timebase>60</timebase>
							<ntsc>TRUE</ntsc>
						</rate>
						<duration>6</duration>
						<start>4692</start>
						<end>4698</end>
						<in>4692</in>
						<out>4698</out>
						<enabled>FALSE</enabled>
					</clipitem>
					<clipitem frameBlend="FALSE" id="clipitem-rejected-246">
						<file id="file-1"/>
						<name>[REJECTED] bandicam 2025-06-02 00-01-10-144</name>
						<rate>
							<timebase>60</timebase>
							<ntsc>TRUE</ntsc>
						</rate>
						<rate>
							<timebase>60</timebase>
							<ntsc>TRUE</ntsc>
						</rate>
						<duration>0</duration>
						<start>4716</start>
						<end>4716</end>
						<in>4716</in>
						<out>4716</out>
						<enabled>FALSE</enabled>
					</clipitem>
					<clipitem frameBlend="FALSE" id="clipitem-rejected-247">
						<file id="file-1"/>
						<name>[REJECTED] bandicam 2025-06-02 00-01-10-144</name>
						<rate>
							<timebase>60</timebase>
							<ntsc>TRUE</ntsc>
						</rate>
						<rate>
							<timebase>60</timebase>
							<ntsc>TRUE</ntsc>
						</rate>
						<duration>0</duration>
						<start>4830</start>
						<end>4830</end>
						<in>4830</in>
						<out>4830</out>
						<enabled>FALSE</enabled>
					</clipitem>
					<clipitem frameBlend="FALSE" id="clipitem-rejected-248">
						<file id="file-1"/>
						<name>[REJECTED] bandicam 2025-06-02 00-01-10-144</name>
						<rate>
							<timebase>60</timebase>
							<ntsc>TRUE</ntsc>
						</rate>
						<rate>
							<timebase>60</timebase>
							<ntsc>TRUE</ntsc>
						</rate>
						<duration>0</duration>
						<start>4854</start>
						<end>4854</end>
						<in>4854</in>
						<out>4854</out>
						<enabled>FALSE</enabled>
					</clipitem>
					<clipitem frameBlend="FALSE" id="clipitem-rejected-249">
						<file id="file-1"/>
						<name>[REJECTED] bandicam 2025-06-02 00-01-10-144</name>
						<rate>
							<timebase>60</timebase>
							<ntsc>TRUE</ntsc>
						</rate>
						<rate>
							<timebase>60</timebase>
							<ntsc>TRUE</ntsc>
						</rate>
						<duration>6</duration>
						<start>4878</start>
						<end>4884</end>
						<in>4878</in>
						<out>4884</out>
						<enabled>FALSE</enabled>
					</clipitem>
					<clipitem frameBlend="FALSE" id="clipitem-rejected-250">
						<file id="file-1"/>
						<name>[REJECTED] bandicam 2025-06-02 00-01-10-144</name>
						<rate>
							<timebase>60</timebase>
							<ntsc>TRUE</ntsc>
						</rate>
						<rate>
							<timebase>60</timebase>
							<ntsc>TRUE</ntsc>
						</rate>
						<duration>0</duration>
						<start>4902</start>
						<end>4902</end>
						<in>4902</in>
						<out>4902</out>
						<enabled>FALSE</enabled>
					</clipitem>
					<clipitem frameBlend="FALSE" id="clipitem-rejected-251">
						<file id="file-1"/>
						<name>[REJECTED] bandicam 2025-06-02 00-01-10-144</name>
						<rate>
							<timebase>60</timebase>
							<ntsc>TRUE</ntsc>
						</rate>
						<rate>
							<timebase>60</timebase>
							<ntsc>TRUE</ntsc>
						</rate>
						<duration>0</duration>
						<start>4938</start>
						<end>4938</end>
						<in>4938</in>
						<out>4938</out>
						<enabled>FALSE</enabled>
					</clipitem>
					<clipitem frameBlend="FALSE" id="clipitem-rejected-252">
						<file id="file-1"/>
						<name>[REJECTED] bandicam 2025-06-02 00-01-10-144</name>
						<rate>
							<timebase>60</timebase>
							<ntsc>TRUE</ntsc>
						</rate>
						<rate>
							<timebase>60</timebase>
							<ntsc>TRUE</ntsc>
						</rate>
						<duration>0</duration>
						<start>5052</start>
						<end>5052</end>
						<in>5052</in>
						<out>5052</out>
						<enabled>FALSE</enabled>
					</clipitem>
					<clipitem frameBlend="FALSE" id="clipitem-rejected-253">
						<file id="file-1"/>
						<name>[REJECTED] bandicam 2025-06-02 00-01-10-144</name>
						<rate>
							<timebase>60</timebase>
							<ntsc>TRUE</ntsc>
						</rate>
						<rate>
							<timebase>60</timebase>
							<ntsc>TRUE</ntsc>
						</rate>
						<duration>12</duration>
						<start>5184</start>
						<end>5196</end>
						<in>5184</in>
						<out>5196</out>
						<enabled>FALSE</enabled>
					</clipitem>
					<clipitem frameBlend="FALSE" id="clipitem-rejected-254">
						<file id="file-1"/>
						<name>[REJECTED] bandicam 2025-06-02 00-01-10-144</name>
						<rate>
							<timebase>60</timebase>
							<ntsc>TRUE</ntsc>
						</rate>
						<rate>
							<timebase>60</timebase>
							<ntsc>TRUE</ntsc>
						</rate>
						<duration>6</duration>
						<start>5220</start>
						<end>5226</end>
						<in>5220</in>
						<out>5226</out>
						<enabled>FALSE</enabled>
					</clipitem>
					<clipitem frameBlend="FALSE" id="clipitem-rejected-255">
						<file id="file-1"/>
						<name>[REJECTED] bandicam 2025-06-02 00-01-10-144</name>
						<rate>
							<timebase>60</timebase>
							<ntsc>TRUE</ntsc>
						</rate>
						<rate>
							<timebase>60</timebase>
							<ntsc>TRUE</ntsc>
						</rate>
						<duration>48</duration>
						<start>5274</start>
						<end>5322</end>
						<in>5274</in>
						<out>5322</out>
						<enabled>FALSE</enabled>
					</clipitem>
					<clipitem frameBlend="FALSE" id="clipitem-rejected-256">
						<file id="file-1"/>
						<name>[REJECTED] bandicam 2025-06-02 00-01-10-144</name>
						<rate>
							<timebase>60</timebase>
							<ntsc>TRUE</ntsc>
						</rate>
						<rate>
							<timebase>60</timebase>
							<ntsc>TRUE</ntsc>
						</rate>
						<duration>6</duration>
						<start>5370</start>
						<end>5376</end>
						<in>5370</in>
						<out>5376</out>
						<enabled>FALSE</enabled>
					</clipitem>
					<clipitem frameBlend="FALSE" id="clipitem-rejected-257">
						<file id="file-1"/>
						<name>[REJECTED] bandicam 2025-06-02 00-01-10-144</name>
						<rate>
							<timebase>60</timebase>
							<ntsc>TRUE</ntsc>
						</rate>
						<rate>
							<timebase>60</timebase>
							<ntsc>TRUE</ntsc>
						</rate>
						<duration>12</duration>
						<start>5472</start>
						<end>5484</end>
						<in>5472</in>
						<out>5484</out>
						<enabled>FALSE</enabled>
					</clipitem>
					<clipitem frameBlend="FALSE" id="clipitem-rejected-258">
						<file id="file-1"/>
						<name>[REJECTED] bandicam 2025-06-02 00-01-10-144</name>
						<rate>
							<timebase>60</timebase>
							<ntsc>TRUE</ntsc>
						</rate>
						<rate>
							<timebase>60</timebase>
							<ntsc>TRUE</ntsc>
						</rate>
						<duration>0</duration>
						<start>5526</start>
						<end>5526</end>
						<in>5526</in>
						<out>5526</out>
						<enabled>FALSE</enabled>
					</clipitem>
					<clipitem frameBlend="FALSE" id="clipitem-rejected-259">
						<file id="file-1"/>
						<name>[REJECTED] bandicam 2025-06-02 00-01-10-144</name>
						<rate>
							<timebase>60</timebase>
							<ntsc>TRUE</ntsc>
						</rate>
						<rate>
							<timebase>60</timebase>
							<ntsc>TRUE</ntsc>
						</rate>
						<duration>12</duration>
						<start>5604</start>
						<end>5616</end>
						<in>5604</in>
						<out>5616</out>
						<enabled>FALSE</enabled>
					</clipitem>
					<clipitem frameBlend="FALSE" id="clipitem-rejected-260">
						<file id="file-1"/>
						<name>[REJECTED] bandicam 2025-06-02 00-01-10-144</name>
						<rate>
							<timebase>60</timebase>
							<ntsc>TRUE</ntsc>
						</rate>
						<rate>
							<timebase>60</timebase>
							<ntsc>TRUE</ntsc>
						</rate>
						<duration>6</duration>
						<start>5652</start>
						<end>5658</end>
						<in>5652</in>
						<out>5658</out>
						<enabled>FALSE</enabled>
					</clipitem>
					<clipitem frameBlend="FALSE" id="clipitem-rejected-261">
						<file id="file-1"/>
						<name>[REJECTED] bandicam 2025-06-02 00-01-10-144</name>
						<rate>
							<timebase>60</timebase>
							<ntsc>TRUE</ntsc>
						</rate>
						<rate>
							<timebase>60</timebase>
							<ntsc>TRUE</ntsc>
						</rate>
						<duration>6</duration>
						<start>5700</start>
						<end>5706</end>
						<in>5700</in>
						<out>5706</out>
						<enabled>FALSE</enabled>
					</clipitem>
					<clipitem frameBlend="FALSE" id="clipitem-rejected-262">
						<file id="file-1"/>
						<name>[REJECTED] bandicam 2025-06-02 00-01-10-144</name>
						<rate>
							<timebase>60</timebase>
							<ntsc>TRUE</ntsc>
						</rate>
						<rate>
							<timebase>60</timebase>
							<ntsc>TRUE</ntsc>
						</rate>
						<duration>6</duration>
						<start>5790</start>
						<end>5796</end>
						<in>5790</in>
						<out>5796</out>
						<enabled>FALSE</enabled>
					</clipitem>
					<clipitem frameBlend="FALSE" id="clipitem-rejected-263">
						<file id="file-1"/>
						<name>[REJECTED] bandicam 2025-06-02 00-01-10-144</name>
						<rate>
							<timebase>60</timebase>
							<ntsc>TRUE</ntsc>
						</rate>
						<rate>
							<timebase>60</timebase>
							<ntsc>TRUE</ntsc>
						</rate>
						<duration>30</duration>
						<start>6096</start>
						<end>6126</end>
						<in>6096</in>
						<out>6126</out>
						<enabled>FALSE</enabled>
					</clipitem>
					<clipitem frameBlend="FALSE" id="clipitem-rejected-264">
						<file id="file-1"/>
						<name>[REJECTED] bandicam 2025-06-02 00-01-10-144</name>
						<rate>
							<timebase>60</timebase>
							<ntsc>TRUE</ntsc>
						</rate>
						<rate>
							<timebase>60</timebase>
							<ntsc>TRUE</ntsc>
						</rate>
						<duration>6</duration>
						<start>6138</start>
						<end>6144</end>
						<in>6138</in>
						<out>6144</out>
						<enabled>FALSE</enabled>
					</clipitem>
					<clipitem frameBlend="FALSE" id="clipitem-rejected-265">
						<file id="file-1"/>
						<name>[REJECTED] bandicam 2025-06-02 00-01-10-144</name>
						<rate>
							<timebase>60</timebase>
							<ntsc>TRUE</ntsc>
						</rate>
						<rate>
							<timebase>60</timebase>
							<ntsc>TRUE</ntsc>
						</rate>
						<duration>0</duration>
						<start>6216</start>
						<end>6216</end>
						<in>6216</in>
						<out>6216</out>
						<enabled>FALSE</enabled>
					</clipitem>
					<clipitem frameBlend="FALSE" id="clipitem-rejected-266">
						<file id="file-1"/>
						<name>[REJECTED] bandicam 2025-06-02 00-01-10-144</name>
						<rate>
							<timebase>60</timebase>
							<ntsc>TRUE</ntsc>
						</rate>
						<rate>
							<timebase>60</timebase>
							<ntsc>TRUE</ntsc>
						</rate>
						<duration>6</duration>
						<start>6270</start>
						<end>6276</end>
						<in>6270</in>
						<out>6276</out>
						<enabled>FALSE</enabled>
					</clipitem>
					<clipitem frameBlend="FALSE" id="clipitem-rejected-267">
						<file id="file-1"/>
						<name>[REJECTED] bandicam 2025-06-02 00-01-10-144</name>
						<rate>
							<timebase>60</timebase>
							<ntsc>TRUE</ntsc>
						</rate>
						<rate>
							<timebase>60</timebase>
							<ntsc>TRUE</ntsc>
						</rate>
						<duration>6</duration>
						<start>6288</start>
						<end>6294</end>
						<in>6288</in>
						<out>6294</out>
						<enabled>FALSE</enabled>
					</clipitem>
					<clipitem frameBlend="FALSE" id="clipitem-rejected-268">
						<file id="file-1"/>
						<name>[REJECTED] bandicam 2025-06-02 00-01-10-144</name>
						<rate>
							<timebase>60</timebase>
							<ntsc>TRUE</ntsc>
						</rate>
						<rate>
							<timebase>60</timebase>
							<ntsc>TRUE</ntsc>
						</rate>
						<duration>0</duration>
						<start>6306</start>
						<end>6306</end>
						<in>6306</in>
						<out>6306</out>
						<enabled>FALSE</enabled>
					</clipitem>
					<clipitem frameBlend="FALSE" id="clipitem-rejected-269">
						<file id="file-1"/>
						<name>[REJECTED] bandicam 2025-06-02 00-01-10-144</name>
						<rate>
							<timebase>60</timebase>
							<ntsc>TRUE</ntsc>
						</rate>
						<rate>
							<timebase>60</timebase>
							<ntsc>TRUE</ntsc>
						</rate>
						<duration>24</duration>
						<start>6354</start>
						<end>6378</end>
						<in>6354</in>
						<out>6378</out>
						<enabled>FALSE</enabled>
					</clipitem>
					<clipitem frameBlend="FALSE" id="clipitem-rejected-270">
						<file id="file-1"/>
						<name>[REJECTED] bandicam 2025-06-02 00-01-10-144</name>
						<rate>
							<timebase>60</timebase>
							<ntsc>TRUE</ntsc>
						</rate>
						<rate>
							<timebase>60</timebase>
							<ntsc>TRUE</ntsc>
						</rate>
						<duration>0</duration>
						<start>6426</start>
						<end>6426</end>
						<in>6426</in>
						<out>6426</out>
						<enabled>FALSE</enabled>
					</clipitem>
					<clipitem frameBlend="FALSE" id="clipitem-rejected-271">
						<file id="file-1"/>
						<name>[REJECTED] bandicam 2025-06-02 00-01-10-144</name>
						<rate>
							<timebase>60</timebase>
							<ntsc>TRUE</ntsc>
						</rate>
						<rate>
							<timebase>60</timebase>
							<ntsc>TRUE</ntsc>
						</rate>
						<duration>0</duration>
						<start>6462</start>
						<end>6462</end>
						<in>6462</in>
						<out>6462</out>
						<enabled>FALSE</enabled>
					</clipitem>
					<clipitem frameBlend="FALSE" id="clipitem-rejected-272">
						<file id="file-1"/>
						<name>[REJECTED] bandicam 2025-06-02 00-01-10-144</name>
						<rate>
							<timebase>60</timebase>
							<ntsc>TRUE</ntsc>
						</rate>
						<rate>
							<timebase>60</timebase>
							<ntsc>TRUE</ntsc>
						</rate>
						<duration>12</duration>
						<start>6594</start>
						<end>6606</end>
						<in>6594</in>
						<out>6606</out>
						<enabled>FALSE</enabled>
					</clipitem>
					<clipitem frameBlend="FALSE" id="clipitem-rejected-273">
						<file id="file-1"/>
						<name>[REJECTED] bandicam 2025-06-02 00-01-10-144</name>
						<rate>
							<timebase>60</timebase>
							<ntsc>TRUE</ntsc>
						</rate>
						<rate>
							<timebase>60</timebase>
							<ntsc>TRUE</ntsc>
						</rate>
						<duration>54</duration>
						<start>6654</start>
						<end>6708</end>
						<in>6654</in>
						<out>6708</out>
						<enabled>FALSE</enabled>
					</clipitem>
					<clipitem frameBlend="FALSE" id="clipitem-rejected-274">
						<file id="file-1"/>
						<name>[REJECTED] bandicam 2025-06-02 00-01-10-144</name>
						<rate>
							<timebase>60</timebase>
							<ntsc>TRUE</ntsc>
						</rate>
						<rate>
							<timebase>60</timebase>
							<ntsc>TRUE</ntsc>
						</rate>
						<duration>0</duration>
						<start>6720</start>
						<end>6720</end>
						<in>6720</in>
						<out>6720</out>
						<enabled>FALSE</enabled>
					</clipitem>
					<clipitem frameBlend="FALSE" id="clipitem-rejected-275">
						<file id="file-1"/>
						<name>[REJECTED] bandicam 2025-06-02 00-01-10-144</name>
						<rate>
							<timebase>60</timebase>
							<ntsc>TRUE</ntsc>
						</rate>
						<rate>
							<timebase>60</timebase>
							<ntsc>TRUE</ntsc>
						</rate>
						<duration>6</duration>
						<start>6738</start>
						<end>6744</end>
						<in>6738</in>
						<out>6744</out>
						<enabled>FALSE</enabled>
					</clipitem>
					<clipitem frameBlend="FALSE" id="clipitem-rejected-276">
						<file id="file-1"/>
						<name>[REJECTED] bandicam 2025-06-02 00-01-10-144</name>
						<rate>
							<timebase>60</timebase>
							<ntsc>TRUE</ntsc>
						</rate>
						<rate>
							<timebase>60</timebase>
							<ntsc>TRUE</ntsc>
						</rate>
						<duration>18</duration>
						<start>6774</start>
						<end>6792</end>
						<in>6774</in>
						<out>6792</out>
						<enabled>FALSE</enabled>
					</clipitem>
					<clipitem frameBlend="FALSE" id="clipitem-rejected-277">
						<file id="file-1"/>
						<name>[REJECTED] bandicam 2025-06-02 00-01-10-144</name>
						<rate>
							<timebase>60</timebase>
							<ntsc>TRUE</ntsc>
						</rate>
						<rate>
							<timebase>60</timebase>
							<ntsc>TRUE</ntsc>
						</rate>
						<duration>18</duration>
						<start>6870</start>
						<end>6888</end>
						<in>6870</in>
						<out>6888</out>
						<enabled>FALSE</enabled>
					</clipitem>
					<clipitem frameBlend="FALSE" id="clipitem-rejected-278">
						<file id="file-1"/>
						<name>[REJECTED] bandicam 2025-06-02 00-01-10-144</name>
						<rate>
							<timebase>60</timebase>
							<ntsc>TRUE</ntsc>
						</rate>
						<rate>
							<timebase>60</timebase>
							<ntsc>TRUE</ntsc>
						</rate>
						<duration>0</duration>
						<start>6906</start>
						<end>6906</end>
						<in>6906</in>
						<out>6906</out>
						<enabled>FALSE</enabled>
					</clipitem>
					<clipitem frameBlend="FALSE" id="clipitem-rejected-279">
						<file id="file-1"/>
						<name>[REJECTED] bandicam 2025-06-02 00-01-10-144</name>
						<rate>
							<timebase>60</timebase>
							<ntsc>TRUE</ntsc>
						</rate>
						<rate>
							<timebase>60</timebase>
							<ntsc>TRUE</ntsc>
						</rate>
						<duration>30</duration>
						<start>6960</start>
						<end>6990</end>
						<in>6960</in>
						<out>6990</out>
						<enabled>FALSE</enabled>
					</clipitem>
					<clipitem frameBlend="FALSE" id="clipitem-rejected-280">
						<file id="file-1"/>
						<name>[REJECTED] bandicam 2025-06-02 00-01-10-144</name>
						<rate>
							<timebase>60</timebase>
							<ntsc>TRUE</ntsc>
						</rate>
						<rate>
							<timebase>60</timebase>
							<ntsc>TRUE</ntsc>
						</rate>
						<duration>12</duration>
						<start>7056</start>
						<end>7068</end>
						<in>7056</in>
						<out>7068</out>
						<enabled>FALSE</enabled>
					</clipitem>
					<clipitem frameBlend="FALSE" id="clipitem-rejected-281">
						<file id="file-1"/>
						<name>[REJECTED] bandicam 2025-06-02 00-01-10-144</name>
						<rate>
							<timebase>60</timebase>
							<ntsc>TRUE</ntsc>
						</rate>
						<rate>
							<timebase>60</timebase>
							<ntsc>TRUE</ntsc>
						</rate>
						<duration>108</duration>
						<start>0</start>
						<end>108</end>
						<in>0</in>
						<out>108</out>
						<enabled>FALSE</enabled>
					</clipitem>
					<clipitem frameBlend="FALSE" id="clipitem-rejected-282">
						<file id="file-1"/>
						<name>[REJECTED] bandicam 2025-06-02 00-01-10-144</name>
						<rate>
							<timebase>60</timebase>
							<ntsc>TRUE</ntsc>
						</rate>
						<rate>
							<timebase>60</timebase>
							<ntsc>TRUE</ntsc>
						</rate>
						<duration>1278</duration>
						<start>126</start>
						<end>1404</end>
						<in>126</in>
						<out>1404</out>
						<enabled>FALSE</enabled>
					</clipitem>
					<clipitem frameBlend="FALSE" id="clipitem-rejected-283">
						<file id="file-1"/>
						<name>[REJECTED] bandicam 2025-06-02 00-01-10-144</name>
						<rate>
							<timebase>60</timebase>
							<ntsc>TRUE</ntsc>
						</rate>
						<rate>
							<timebase>60</timebase>
							<ntsc>TRUE</ntsc>
						</rate>
						<duration>276</duration>
						<start>1422</start>
						<end>1698</end>
						<in>1422</in>
						<out>1698</out>
						<enabled>FALSE</enabled>
					</clipitem>
					<clipitem frameBlend="FALSE" id="clipitem-rejected-284">
						<file id="file-1"/>
						<name>[REJECTED] bandicam 2025-06-02 00-01-10-144</name>
						<rate>
							<timebase>60</timebase>
							<ntsc>TRUE</ntsc>
						</rate>
						<rate>
							<timebase>60</timebase>
							<ntsc>TRUE</ntsc>
						</rate>
						<duration>30</duration>
						<start>1710</start>
						<end>1740</end>
						<in>1710</in>
						<out>1740</out>
						<enabled>FALSE</enabled>
					</clipitem>
					<clipitem frameBlend="FALSE" id="clipitem-rejected-285">
						<file id="file-1"/>
						<name>[REJECTED] bandicam 2025-06-02 00-01-10-144</name>
						<rate>
							<timebase>60</timebase>
							<ntsc>TRUE</ntsc>
						</rate>
						<rate>
							<timebase>60</timebase>
							<ntsc>TRUE</ntsc>
						</rate>
						<duration>678</duration>
						<start>1764</start>
						<end>2442</end>
						<in>1764</in>
						<out>2442</out>
						<enabled>FALSE</enabled>
					</clipitem>
					<clipitem frameBlend="FALSE" id="clipitem-rejected-286">
						<file id="file-1"/>
						<name>[REJECTED] bandicam 2025-06-02 00-01-10-144</name>
						<rate>
							<timebase>60</timebase>
							<ntsc>TRUE</ntsc>
						</rate>
						<rate>
							<timebase>60</timebase>
							<ntsc>TRUE</ntsc>
						</rate>
						<duration>276</duration>
						<start>2460</start>
						<end>2736</end>
						<in>2460</in>
						<out>2736</out>
						<enabled>FALSE</enabled>
					</clipitem>
					<clipitem frameBlend="FALSE" id="clipitem-rejected-287">
						<file id="file-1"/>
						<name>[REJECTED] bandicam 2025-06-02 00-01-10-144</name>
						<rate>
							<timebase>60</timebase>
							<ntsc>TRUE</ntsc>
						</rate>
						<rate>
							<timebase>60</timebase>
							<ntsc>TRUE</ntsc>
						</rate>
						<duration>0</duration>
						<start>2760</start>
						<end>2760</end>
						<in>2760</in>
						<out>2760</out>
						<enabled>FALSE</enabled>
					</clipitem>
					<clipitem frameBlend="FALSE" id="clipitem-rejected-288">
						<file id="file-1"/>
						<name>[REJECTED] bandicam 2025-06-02 00-01-10-144</name>
						<rate>
							<timebase>60</timebase>
							<ntsc>TRUE</ntsc>
						</rate>
						<rate>
							<timebase>60</timebase>
							<ntsc>TRUE</ntsc>
						</rate>
						<duration>24</duration>
						<start>2778</start>
						<end>2802</end>
						<in>2778</in>
						<out>2802</out>
						<enabled>FALSE</enabled>
					</clipitem>
					<clipitem frameBlend="FALSE" id="clipitem-rejected-289">
						<file id="file-1"/>
						<name>[REJECTED] bandicam 2025-06-02 00-01-10-144</name>
						<rate>
							<timebase>60</timebase>
							<ntsc>TRUE</ntsc>
						</rate>
						<rate>
							<timebase>60</timebase>
							<ntsc>TRUE</ntsc>
						</rate>
						<duration>240</duration>
						<start>2826</start>
						<end>3066</end>
						<in>2826</in>
						<out>3066</out>
						<enabled>FALSE</enabled>
					</clipitem>
					<clipitem frameBlend="FALSE" id="clipitem-rejected-290">
						<file id="file-1"/>
						<name>[REJECTED] bandicam 2025-06-02 00-01-10-144</name>
						<rate>
							<timebase>60</timebase>
							<ntsc>TRUE</ntsc>
						</rate>
						<rate>
							<timebase>60</timebase>
							<ntsc>TRUE</ntsc>
						</rate>
						<duration>156</duration>
						<start>3108</start>
						<end>3264</end>
						<in>3108</in>
						<out>3264</out>
						<enabled>FALSE</enabled>
					</clipitem>
					<clipitem frameBlend="FALSE" id="clipitem-rejected-291">
						<file id="file-1"/>
						<name>[REJECTED] bandicam 2025-06-02 00-01-10-144</name>
						<rate>
							<timebase>60</timebase>
							<ntsc>TRUE</ntsc>
						</rate>
						<rate>
							<timebase>60</timebase>
							<ntsc>TRUE</ntsc>
						</rate>
						<duration>330</duration>
						<start>3294</start>
						<end>3624</end>
						<in>3294</in>
						<out>3624</out>
						<enabled>FALSE</enabled>
					</clipitem>
					<clipitem frameBlend="FALSE" id="clipitem-rejected-292">
						<file id="file-1"/>
						<name>[REJECTED] bandicam 2025-06-02 00-01-10-144</name>
						<rate>
							<timebase>60</timebase>
							<ntsc>TRUE</ntsc>
						</rate>
						<rate>
							<timebase>60</timebase>
							<ntsc>TRUE</ntsc>
						</rate>
						<duration>444</duration>
						<start>3636</start>
						<end>4080</end>
						<in>3636</in>
						<out>4080</out>
						<enabled>FALSE</enabled>
					</clipitem>
					<clipitem frameBlend="FALSE" id="clipitem-rejected-293">
						<file id="file-1"/>
						<name>[REJECTED] bandicam 2025-06-02 00-01-10-144</name>
						<rate>
							<timebase>60</timebase>
							<ntsc>TRUE</ntsc>
						</rate>
						<rate>
							<timebase>60</timebase>
							<ntsc>TRUE</ntsc>
						</rate>
						<duration>0</duration>
						<start>4098</start>
						<end>4098</end>
						<in>4098</in>
						<out>4098</out>
						<enabled>FALSE</enabled>
					</clipitem>
					<clipitem frameBlend="FALSE" id="clipitem-rejected-294">
						<file id="file-1"/>
						<name>[REJECTED] bandicam 2025-06-02 00-01-10-144</name>
						<rate>
							<timebase>60</timebase>
							<ntsc>TRUE</ntsc>
						</rate>
						<rate>
							<timebase>60</timebase>
							<ntsc>TRUE</ntsc>
						</rate>
						<duration>12</duration>
						<start>4116</start>
						<end>4128</end>
						<in>4116</in>
						<out>4128</out>
						<enabled>FALSE</enabled>
					</clipitem>
					<clipitem frameBlend="FALSE" id="clipitem-rejected-295">
						<file id="file-1"/>
						<name>[REJECTED] bandicam 2025-06-02 00-01-10-144</name>
						<rate>
							<timebase>60</timebase>
							<ntsc>TRUE</ntsc>
						</rate>
						<rate>
							<timebase>60</timebase>
							<ntsc>TRUE</ntsc>
						</rate>
						<duration>42</duration>
						<start>4140</start>
						<end>4182</end>
						<in>4140</in>
						<out>4182</out>
						<enabled>FALSE</enabled>
					</clipitem>
					<clipitem frameBlend="FALSE" id="clipitem-rejected-296">
						<file id="file-1"/>
						<name>[REJECTED] bandicam 2025-06-02 00-01-10-144</name>
						<rate>
							<timebase>60</timebase>
							<ntsc>TRUE</ntsc>
						</rate>
						<rate>
							<timebase>60</timebase>
							<ntsc>TRUE</ntsc>
						</rate>
						<duration>24</duration>
						<start>4200</start>
						<end>4224</end>
						<in>4200</in>
						<out>4224</out>
						<enabled>FALSE</enabled>
					</clipitem>
					<clipitem frameBlend="FALSE" id="clipitem-rejected-297">
						<file id="file-1"/>
						<name>[REJECTED] bandicam 2025-06-02 00-01-10-144</name>
						<rate>
							<timebase>60</timebase>
							<ntsc>TRUE</ntsc>
						</rate>
						<rate>
							<timebase>60</timebase>
							<ntsc>TRUE</ntsc>
						</rate>
						<duration>0</duration>
						<start>4236</start>
						<end>4236</end>
						<in>4236</in>
						<out>4236</out>
						<enabled>FALSE</enabled>
					</clipitem>
					<clipitem frameBlend="FALSE" id="clipitem-rejected-298">
						<file id="file-1"/>
						<name>[REJECTED] bandicam 2025-06-02 00-01-10-144</name>
						<rate>
							<timebase>60</timebase>
							<ntsc>TRUE</ntsc>
						</rate>
						<rate>
							<timebase>60</timebase>
							<ntsc>TRUE</ntsc>
						</rate>
						<duration>108</duration>
						<start>4254</start>
						<end>4362</end>
						<in>4254</in>
						<out>4362</out>
						<enabled>FALSE</enabled>
					</clipitem>
					<clipitem frameBlend="FALSE" id="clipitem-rejected-299">
						<file id="file-1"/>
						<name>[REJECTED] bandicam 2025-06-02 00-01-10-144</name>
						<rate>
							<timebase>60</timebase>
							<ntsc>TRUE</ntsc>
						</rate>
						<rate>
							<timebase>60</timebase>
							<ntsc>TRUE</ntsc>
						</rate>
						<duration>132</duration>
						<start>4374</start>
						<end>4506</end>
						<in>4374</in>
						<out>4506</out>
						<enabled>FALSE</enabled>
					</clipitem>
					<clipitem frameBlend="FALSE" id="clipitem-rejected-300">
						<file id="file-1"/>
						<name>[REJECTED] bandicam 2025-06-02 00-01-10-144</name>
						<rate>
							<timebase>60</timebase>
							<ntsc>TRUE</ntsc>
						</rate>
						<rate>
							<timebase>60</timebase>
							<ntsc>TRUE</ntsc>
						</rate>
						<duration>78</duration>
						<start>4518</start>
						<end>4596</end>
						<in>4518</in>
						<out>4596</out>
						<enabled>FALSE</enabled>
					</clipitem>
					<clipitem frameBlend="FALSE" id="clipitem-rejected-301">
						<file id="file-1"/>
						<name>[REJECTED] bandicam 2025-06-02 00-01-10-144</name>
						<rate>
							<timebase>60</timebase>
							<ntsc>TRUE</ntsc>
						</rate>
						<rate>
							<timebase>60</timebase>
							<ntsc>TRUE</ntsc>
						</rate>
						<duration>0</duration>
						<start>4608</start>
						<end>4608</end>
						<in>4608</in>
						<out>4608</out>
						<enabled>FALSE</enabled>
					</clipitem>
					<clipitem frameBlend="FALSE" id="clipitem-rejected-302">
						<file id="file-1"/>
						<name>[REJECTED] bandicam 2025-06-02 00-01-10-144</name>
						<rate>
							<timebase>60</timebase>
							<ntsc>TRUE</ntsc>
						</rate>
						<rate>
							<timebase>60</timebase>
							<ntsc>TRUE</ntsc>
						</rate>
						<duration>90</duration>
						<start>4626</start>
						<end>4716</end>
						<in>4626</in>
						<out>4716</out>
						<enabled>FALSE</enabled>
					</clipitem>
					<clipitem frameBlend="FALSE" id="clipitem-rejected-303">
						<file id="file-1"/>
						<name>[REJECTED] bandicam 2025-06-02 00-01-10-144</name>
						<rate>
							<timebase>60</timebase>
							<ntsc>TRUE</ntsc>
						</rate>
						<rate>
							<timebase>60</timebase>
							<ntsc>TRUE</ntsc>
						</rate>
						<duration>378</duration>
						<start>4728</start>
						<end>5106</end>
						<in>4728</in>
						<out>5106</out>
						<enabled>FALSE</enabled>
					</clipitem>
					<clipitem frameBlend="FALSE" id="clipitem-rejected-304">
						<file id="file-1"/>
						<name>[REJECTED] bandicam 2025-06-02 00-01-10-144</name>
						<rate>
							<timebase>60</timebase>
							<ntsc>TRUE</ntsc>
						</rate>
						<rate>
							<timebase>60</timebase>
							<ntsc>TRUE</ntsc>
						</rate>
						<duration>12</duration>
						<start>5124</start>
						<end>5136</end>
						<in>5124</in>
						<out>5136</out>
						<enabled>FALSE</enabled>
					</clipitem>
					<clipitem frameBlend="FALSE" id="clipitem-rejected-305">
						<file id="file-1"/>
						<name>[REJECTED] bandicam 2025-06-02 00-01-10-144</name>
						<rate>
							<timebase>60</timebase>
							<ntsc>TRUE</ntsc>
						</rate>
						<rate>
							<timebase>60</timebase>
							<ntsc>TRUE</ntsc>
						</rate>
						<duration>0</duration>
						<start>5154</start>
						<end>5154</end>
						<in>5154</in>
						<out>5154</out>
						<enabled>FALSE</enabled>
					</clipitem>
					<clipitem frameBlend="FALSE" id="clipitem-rejected-306">
						<file id="file-1"/>
						<name>[REJECTED] bandicam 2025-06-02 00-01-10-144</name>
						<rate>
							<timebase>60</timebase>
							<ntsc>TRUE</ntsc>
						</rate>
						<rate>
							<timebase>60</timebase>
							<ntsc>TRUE</ntsc>
						</rate>
						<duration>156</duration>
						<start>5178</start>
						<end>5334</end>
						<in>5178</in>
						<out>5334</out>
						<enabled>FALSE</enabled>
					</clipitem>
					<clipitem frameBlend="FALSE" id="clipitem-rejected-307">
						<file id="file-1"/>
						<name>[REJECTED] bandicam 2025-06-02 00-01-10-144</name>
						<rate>
							<timebase>60</timebase>
							<ntsc>TRUE</ntsc>
						</rate>
						<rate>
							<timebase>60</timebase>
							<ntsc>TRUE</ntsc>
						</rate>
						<duration>96</duration>
						<start>5346</start>
						<end>5442</end>
						<in>5346</in>
						<out>5442</out>
						<enabled>FALSE</enabled>
					</clipitem>
					<clipitem frameBlend="FALSE" id="clipitem-rejected-308">
						<file id="file-1"/>
						<name>[REJECTED] bandicam 2025-06-02 00-01-10-144</name>
						<rate>
							<timebase>60</timebase>
							<ntsc>TRUE</ntsc>
						</rate>
						<rate>
							<timebase>60</timebase>
							<ntsc>TRUE</ntsc>
						</rate>
						<duration>132</duration>
						<start>5454</start>
						<end>5586</end>
						<in>5454</in>
						<out>5586</out>
						<enabled>FALSE</enabled>
					</clipitem>
					<clipitem frameBlend="FALSE" id="clipitem-rejected-309">
						<file id="file-1"/>
						<name>[REJECTED] bandicam 2025-06-02 00-01-10-144</name>
						<rate>
							<timebase>60</timebase>
							<ntsc>TRUE</ntsc>
						</rate>
						<rate>
							<timebase>60</timebase>
							<ntsc>TRUE</ntsc>
						</rate>
						<duration>66</duration>
						<start>5598</start>
						<end>5664</end>
						<in>5598</in>
						<out>5664</out>
						<enabled>FALSE</enabled>
					</clipitem>
					<clipitem frameBlend="FALSE" id="clipitem-rejected-310">
						<file id="file-1"/>
						<name>[REJECTED] bandicam 2025-06-02 00-01-10-144</name>
						<rate>
							<timebase>60</timebase>
							<ntsc>TRUE</ntsc>
						</rate>
						<rate>
							<timebase>60</timebase>
							<ntsc>TRUE</ntsc>
						</rate>
						<duration>60</duration>
						<start>5694</start>
						<end>5754</end>
						<in>5694</in>
						<out>5754</out>
						<enabled>FALSE</enabled>
					</clipitem>
					<clipitem frameBlend="FALSE" id="clipitem-rejected-311">
						<file id="file-1"/>
						<name>[REJECTED] bandicam 2025-06-02 00-01-10-144</name>
						<rate>
							<timebase>60</timebase>
							<ntsc>TRUE</ntsc>
						</rate>
						<rate>
							<timebase>60</timebase>
							<ntsc>TRUE</ntsc>
						</rate>
						<duration>12</duration>
						<start>5784</start>
						<end>5796</end>
						<in>5784</in>
						<out>5796</out>
						<enabled>FALSE</enabled>
					</clipitem>
					<clipitem frameBlend="FALSE" id="clipitem-rejected-312">
						<file id="file-1"/>
						<name>[REJECTED] bandicam 2025-06-02 00-01-10-144</name>
						<rate>
							<timebase>60</timebase>
							<ntsc>TRUE</ntsc>
						</rate>
						<rate>
							<timebase>60</timebase>
							<ntsc>TRUE</ntsc>
						</rate>
						<duration>24</duration>
						<start>5880</start>
						<end>5904</end>
						<in>5880</in>
						<out>5904</out>
						<enabled>FALSE</enabled>
					</clipitem>
					<clipitem frameBlend="FALSE" id="clipitem-rejected-313">
						<file id="file-1"/>
						<name>[REJECTED] bandicam 2025-06-02 00-01-10-144</name>
						<rate>
							<timebase>60</timebase>
							<ntsc>TRUE</ntsc>
						</rate>
						<rate>
							<timebase>60</timebase>
							<ntsc>TRUE</ntsc>
						</rate>
						<duration>0</duration>
						<start>5916</start>
						<end>5916</end>
						<in>5916</in>
						<out>5916</out>
						<enabled>FALSE</enabled>
					</clipitem>
					<clipitem frameBlend="FALSE" id="clipitem-rejected-314">
						<file id="file-1"/>
						<name>[REJECTED] bandicam 2025-06-02 00-01-10-144</name>
						<rate>
							<timebase>60</timebase>
							<ntsc>TRUE</ntsc>
						</rate>
						<rate>
							<timebase>60</timebase>
							<ntsc>TRUE</ntsc>
						</rate>
						<duration>42</duration>
						<start>5964</start>
						<end>6006</end>
						<in>5964</in>
						<out>6006</out>
						<enabled>FALSE</enabled>
					</clipitem>
					<clipitem frameBlend="FALSE" id="clipitem-rejected-315">
						<file id="file-1"/>
						<name>[REJECTED] bandicam 2025-06-02 00-01-10-144</name>
						<rate>
							<timebase>60</timebase>
							<ntsc>TRUE</ntsc>
						</rate>
						<rate>
							<timebase>60</timebase>
							<ntsc>TRUE</ntsc>
						</rate>
						<duration>114</duration>
						<start>6036</start>
						<end>6150</end>
						<in>6036</in>
						<out>6150</out>
						<enabled>FALSE</enabled>
					</clipitem>
					<clipitem frameBlend="FALSE" id="clipitem-rejected-316">
						<file id="file-1"/>
						<name>[REJECTED] bandicam 2025-06-02 00-01-10-144</name>
						<rate>
							<timebase>60</timebase>
							<ntsc>TRUE</ntsc>
						</rate>
						<rate>
							<timebase>60</timebase>
							<ntsc>TRUE</ntsc>
						</rate>
						<duration>42</duration>
						<start>6186</start>
						<end>6228</end>
						<in>6186</in>
						<out>6228</out>
						<enabled>FALSE</enabled>
					</clipitem>
					<clipitem frameBlend="FALSE" id="clipitem-rejected-317">
						<file id="file-1"/>
						<name>[REJECTED] bandicam 2025-06-02 00-01-10-144</name>
						<rate>
							<timebase>60</timebase>
							<ntsc>TRUE</ntsc>
						</rate>
						<rate>
							<timebase>60</timebase>
							<ntsc>TRUE</ntsc>
						</rate>
						<duration>828</duration>
						<start>6240</start>
						<end>7068</end>
						<in>6240</in>
						<out>7068</out>
						<enabled>FALSE</enabled>
					</clipitem>
					<clipitem frameBlend="FALSE" id="clipitem-rejected-318">
						<file id="file-1"/>
						<name>[REJECTED] bandicam 2025-06-02 00-01-10-144</name>
						<rate>
							<timebase>60</timebase>
							<ntsc>TRUE</ntsc>
						</rate>
						<rate>
							<timebase>60</timebase>
							<ntsc>TRUE</ntsc>
						</rate>
						<duration>1698</duration>
						<start>0</start>
						<end>1698</end>
						<in>0</in>
						<out>1698</out>
						<enabled>FALSE</enabled>
					</clipitem>
					<clipitem frameBlend="FALSE" id="clipitem-rejected-319">
						<file id="file-1"/>
						<name>[REJECTED] bandicam 2025-06-02 00-01-10-144</name>
						<rate>
							<timebase>60</timebase>
							<ntsc>TRUE</ntsc>
						</rate>
						<rate>
							<timebase>60</timebase>
							<ntsc>TRUE</ntsc>
						</rate>
						<duration>732</duration>
						<start>1710</start>
						<end>2442</end>
						<in>1710</in>
						<out>2442</out>
						<enabled>FALSE</enabled>
					</clipitem>
					<clipitem frameBlend="FALSE" id="clipitem-rejected-320">
						<file id="file-1"/>
						<name>[REJECTED] bandicam 2025-06-02 00-01-10-144</name>
						<rate>
							<timebase>60</timebase>
							<ntsc>TRUE</ntsc>
						</rate>
						<rate>
							<timebase>60</timebase>
							<ntsc>TRUE</ntsc>
						</rate>
						<duration>624</duration>
						<start>2454</start>
						<end>3078</end>
						<in>2454</in>
						<out>3078</out>
						<enabled>FALSE</enabled>
					</clipitem>
					<clipitem frameBlend="FALSE" id="clipitem-rejected-321">
						<file id="file-1"/>
						<name>[REJECTED] bandicam 2025-06-02 00-01-10-144</name>
						<rate>
							<timebase>60</timebase>
							<ntsc>TRUE</ntsc>
						</rate>
						<rate>
							<timebase>60</timebase>
							<ntsc>TRUE</ntsc>
						</rate>
						<duration>174</duration>
						<start>3090</start>
						<end>3264</end>
						<in>3090</in>
						<out>3264</out>
						<enabled>FALSE</enabled>
					</clipitem>
					<clipitem frameBlend="FALSE" id="clipitem-rejected-322">
						<file id="file-1"/>
						<name>[REJECTED] bandicam 2025-06-02 00-01-10-144</name>
						<rate>
							<timebase>60</timebase>
							<ntsc>TRUE</ntsc>
						</rate>
						<rate>
							<timebase>60</timebase>
							<ntsc>TRUE</ntsc>
						</rate>
						<duration>840</duration>
						<start>3288</start>
						<end>4128</end>
						<in>3288</in>
						<out>4128</out>
						<enabled>FALSE</enabled>
					</clipitem>
					<clipitem frameBlend="FALSE" id="clipitem-rejected-323">
						<file id="file-1"/>
						<name>[REJECTED] bandicam 2025-06-02 00-01-10-144</name>
						<rate>
							<timebase>60</timebase>
							<ntsc>TRUE</ntsc>
						</rate>
						<rate>
							<timebase>60</timebase>
							<ntsc>TRUE</ntsc>
						</rate>
						<duration>42</duration>
						<start>4140</start>
						<end>4182</end>
						<in>4140</in>
						<out>4182</out>
						<enabled>FALSE</enabled>
					</clipitem>
					<clipitem frameBlend="FALSE" id="clipitem-rejected-324">
						<file id="file-1"/>
						<name>[REJECTED] bandicam 2025-06-02 00-01-10-144</name>
						<rate>
							<timebase>60</timebase>
							<ntsc>TRUE</ntsc>
						</rate>
						<rate>
							<timebase>60</timebase>
							<ntsc>TRUE</ntsc>
						</rate>
						<duration>162</duration>
						<start>4200</start>
						<end>4362</end>
						<in>4200</in>
						<out>4362</out>
						<enabled>FALSE</enabled>
					</clipitem>
					<clipitem frameBlend="FALSE" id="clipitem-rejected-325">
						<file id="file-1"/>
						<name>[REJECTED] bandicam 2025-06-02 00-01-10-144</name>
						<rate>
							<timebase>60</timebase>
							<ntsc>TRUE</ntsc>
						</rate>
						<rate>
							<timebase>60</timebase>
							<ntsc>TRUE</ntsc>
						</rate>
						<duration>342</duration>
						<start>4374</start>
						<end>4716</end>
						<in>4374</in>
						<out>4716</out>
						<enabled>FALSE</enabled>
					</clipitem>
					<clipitem frameBlend="FALSE" id="clipitem-rejected-326">
						<file id="file-1"/>
						<name>[REJECTED] bandicam 2025-06-02 00-01-10-144</name>
						<rate>
							<timebase>60</timebase>
							<ntsc>TRUE</ntsc>
						</rate>
						<rate>
							<timebase>60</timebase>
							<ntsc>TRUE</ntsc>
						</rate>
						<duration>408</duration>
						<start>4728</start>
						<end>5136</end>
						<in>4728</in>
						<out>5136</out>
						<enabled>FALSE</enabled>
					</clipitem>
					<clipitem frameBlend="FALSE" id="clipitem-rejected-327">
						<file id="file-1"/>
						<name>[REJECTED] bandicam 2025-06-02 00-01-10-144</name>
						<rate>
							<timebase>60</timebase>
							<ntsc>TRUE</ntsc>
						</rate>
						<rate>
							<timebase>60</timebase>
							<ntsc>TRUE</ntsc>
						</rate>
						<duration>516</duration>
						<start>5154</start>
						<end>5670</end>
						<in>5154</in>
						<out>5670</out>
						<enabled>FALSE</enabled>
					</clipitem>
					<clipitem frameBlend="FALSE" id="clipitem-rejected-328">
						<file id="file-1"/>
						<name>[REJECTED] bandicam 2025-06-02 00-01-10-144</name>
						<rate>
							<timebase>60</timebase>
							<ntsc>TRUE</ntsc>
						</rate>
						<rate>
							<timebase>60</timebase>
							<ntsc>TRUE</ntsc>
						</rate>
						<duration>66</duration>
						<start>5694</start>
						<end>5760</end>
						<in>5694</in>
						<out>5760</out>
						<enabled>FALSE</enabled>
					</clipitem>
					<clipitem frameBlend="FALSE" id="clipitem-rejected-329">
						<file id="file-1"/>
						<name>[REJECTED] bandicam 2025-06-02 00-01-10-144</name>
						<rate>
							<timebase>60</timebase>
							<ntsc>TRUE</ntsc>
						</rate>
						<rate>
							<timebase>60</timebase>
							<ntsc>TRUE</ntsc>
						</rate>
						<duration>36</duration>
						<start>5772</start>
						<end>5808</end>
						<in>5772</in>
						<out>5808</out>
						<enabled>FALSE</enabled>
					</clipitem>
					<clipitem frameBlend="FALSE" id="clipitem-rejected-330">
						<file id="file-1"/>
						<name>[REJECTED] bandicam 2025-06-02 00-01-10-144</name>
						<rate>
							<timebase>60</timebase>
							<ntsc>TRUE</ntsc>
						</rate>
						<rate>
							<timebase>60</timebase>
							<ntsc>TRUE</ntsc>
						</rate>
						<duration>12</duration>
						<start>5832</start>
						<end>5844</end>
						<in>5832</in>
						<out>5844</out>
						<enabled>FALSE</enabled>
					</clipitem>
					<clipitem frameBlend="FALSE" id="clipitem-rejected-331">
						<file id="file-1"/>
						<name>[REJECTED] bandicam 2025-06-02 00-01-10-144</name>
						<rate>
							<timebase>60</timebase>
							<ntsc>TRUE</ntsc>
						</rate>
						<rate>
							<timebase>60</timebase>
							<ntsc>TRUE</ntsc>
						</rate>
						<duration>1200</duration>
						<start>5868</start>
						<end>7068</end>
						<in>5868</in>
						<out>7068</out>
						<enabled>FALSE</enabled>
					</clipitem>
					<clipitem frameBlend="FALSE" id="clipitem-rejected-332">
						<file id="file-1"/>
						<name>[REJECTED] bandicam 2025-06-02 00-01-10-144</name>
						<rate>
							<timebase>60</timebase>
							<ntsc>TRUE</ntsc>
						</rate>
						<rate>
							<timebase>60</timebase>
							<ntsc>TRUE</ntsc>
						</rate>
						<duration>6</duration>
						<start>0</start>
						<end>6</end>
						<in>0</in>
						<out>6</out>
						<enabled>FALSE</enabled>
					</clipitem>
					<clipitem frameBlend="FALSE" id="clipitem-rejected-333">
						<file id="file-1"/>
						<name>[REJECTED] bandicam 2025-06-02 00-01-10-144</name>
						<rate>
							<timebase>60</timebase>
							<ntsc>TRUE</ntsc>
						</rate>
						<rate>
							<timebase>60</timebase>
							<ntsc>TRUE</ntsc>
						</rate>
						<duration>30</duration>
						<start>24</start>
						<end>54</end>
						<in>24</in>
						<out>54</out>
						<enabled>FALSE</enabled>
					</clipitem>
					<clipitem frameBlend="FALSE" id="clipitem-rejected-334">
						<file id="file-1"/>
						<name>[REJECTED] bandicam 2025-06-02 00-01-10-144</name>
						<rate>
							<timebase>60</timebase>
							<ntsc>TRUE</ntsc>
						</rate>
						<rate>
							<timebase>60</timebase>
							<ntsc>TRUE</ntsc>
						</rate>
						<duration>12</duration>
						<start>66</start>
						<end>78</end>
						<in>66</in>
						<out>78</out>
						<enabled>FALSE</enabled>
					</clipitem>
					<clipitem frameBlend="FALSE" id="clipitem-rejected-335">
						<file id="file-1"/>
						<name>[REJECTED] bandicam 2025-06-02 00-01-10-144</name>
						<rate>
							<timebase>60</timebase>
							<ntsc>TRUE</ntsc>
						</rate>
						<rate>
							<timebase>60</timebase>
							<ntsc>TRUE</ntsc>
						</rate>
						<duration>12</duration>
						<start>90</start>
						<end>102</end>
						<in>90</in>
						<out>102</out>
						<enabled>FALSE</enabled>
					</clipitem>
					<clipitem frameBlend="FALSE" id="clipitem-rejected-336">
						<file id="file-1"/>
						<name>[REJECTED] bandicam 2025-06-02 00-01-10-144</name>
						<rate>
							<timebase>60</timebase>
							<ntsc>TRUE</ntsc>
						</rate>
						<rate>
							<timebase>60</timebase>
							<ntsc>TRUE</ntsc>
						</rate>
						<duration>36</duration>
						<start>132</start>
						<end>168</end>
						<in>132</in>
						<out>168</out>
						<enabled>FALSE</enabled>
					</clipitem>
					<clipitem frameBlend="FALSE" id="clipitem-rejected-337">
						<file id="file-1"/>
						<name>[REJECTED] bandicam 2025-06-02 00-01-10-144</name>
						<rate>
							<timebase>60</timebase>
							<ntsc>TRUE</ntsc>
						</rate>
						<rate>
							<timebase>60</timebase>
							<ntsc>TRUE</ntsc>
						</rate>
						<duration>108</duration>
						<start>186</start>
						<end>294</end>
						<in>186</in>
						<out>294</out>
						<enabled>FALSE</enabled>
					</clipitem>
					<clipitem frameBlend="FALSE" id="clipitem-rejected-338">
						<file id="file-1"/>
						<name>[REJECTED] bandicam 2025-06-02 00-01-10-144</name>
						<rate>
							<timebase>60</timebase>
							<ntsc>TRUE</ntsc>
						</rate>
						<rate>
							<timebase>60</timebase>
							<ntsc>TRUE</ntsc>
						</rate>
						<duration>48</duration>
						<start>306</start>
						<end>354</end>
						<in>306</in>
						<out>354</out>
						<enabled>FALSE</enabled>
					</clipitem>
					<clipitem frameBlend="FALSE" id="clipitem-rejected-339">
						<file id="file-1"/>
						<name>[REJECTED] bandicam 2025-06-02 00-01-10-144</name>
						<rate>
							<timebase>60</timebase>
							<ntsc>TRUE</ntsc>
						</rate>
						<rate>
							<timebase>60</timebase>
							<ntsc>TRUE</ntsc>
						</rate>
						<duration>60</duration>
						<start>372</start>
						<end>432</end>
						<in>372</in>
						<out>432</out>
						<enabled>FALSE</enabled>
					</clipitem>
					<clipitem frameBlend="FALSE" id="clipitem-rejected-340">
						<file id="file-1"/>
						<name>[REJECTED] bandicam 2025-06-02 00-01-10-144</name>
						<rate>
							<timebase>60</timebase>
							<ntsc>TRUE</ntsc>
						</rate>
						<rate>
							<timebase>60</timebase>
							<ntsc>TRUE</ntsc>
						</rate>
						<duration>0</duration>
						<start>444</start>
						<end>444</end>
						<in>444</in>
						<out>444</out>
						<enabled>FALSE</enabled>
					</clipitem>
					<clipitem frameBlend="FALSE" id="clipitem-rejected-341">
						<file id="file-1"/>
						<name>[REJECTED] bandicam 2025-06-02 00-01-10-144</name>
						<rate>
							<timebase>60</timebase>
							<ntsc>TRUE</ntsc>
						</rate>
						<rate>
							<timebase>60</timebase>
							<ntsc>TRUE</ntsc>
						</rate>
						<duration>12</duration>
						<start>486</start>
						<end>498</end>
						<in>486</in>
						<out>498</out>
						<enabled>FALSE</enabled>
					</clipitem>
					<clipitem frameBlend="FALSE" id="clipitem-rejected-342">
						<file id="file-1"/>
						<name>[REJECTED] bandicam 2025-06-02 00-01-10-144</name>
						<rate>
							<timebase>60</timebase>
							<ntsc>TRUE</ntsc>
						</rate>
						<rate>
							<timebase>60</timebase>
							<ntsc>TRUE</ntsc>
						</rate>
						<duration>12</duration>
						<start>510</start>
						<end>522</end>
						<in>510</in>
						<out>522</out>
						<enabled>FALSE</enabled>
					</clipitem>
					<clipitem frameBlend="FALSE" id="clipitem-rejected-343">
						<file id="file-1"/>
						<name>[REJECTED] bandicam 2025-06-02 00-01-10-144</name>
						<rate>
							<timebase>60</timebase>
							<ntsc>TRUE</ntsc>
						</rate>
						<rate>
							<timebase>60</timebase>
							<ntsc>TRUE</ntsc>
						</rate>
						<duration>36</duration>
						<start>540</start>
						<end>576</end>
						<in>540</in>
						<out>576</out>
						<enabled>FALSE</enabled>
					</clipitem>
					<clipitem frameBlend="FALSE" id="clipitem-rejected-344">
						<file id="file-1"/>
						<name>[REJECTED] bandicam 2025-06-02 00-01-10-144</name>
						<rate>
							<timebase>60</timebase>
							<ntsc>TRUE</ntsc>
						</rate>
						<rate>
							<timebase>60</timebase>
							<ntsc>TRUE</ntsc>
						</rate>
						<duration>0</duration>
						<start>594</start>
						<end>594</end>
						<in>594</in>
						<out>594</out>
						<enabled>FALSE</enabled>
					</clipitem>
					<clipitem frameBlend="FALSE" id="clipitem-rejected-345">
						<file id="file-1"/>
						<name>[REJECTED] bandicam 2025-06-02 00-01-10-144</name>
						<rate>
							<timebase>60</timebase>
							<ntsc>TRUE</ntsc>
						</rate>
						<rate>
							<timebase>60</timebase>
							<ntsc>TRUE</ntsc>
						</rate>
						<duration>12</duration>
						<start>606</start>
						<end>618</end>
						<in>606</in>
						<out>618</out>
						<enabled>FALSE</enabled>
					</clipitem>
					<clipitem frameBlend="FALSE" id="clipitem-rejected-346">
						<file id="file-1"/>
						<name>[REJECTED] bandicam 2025-06-02 00-01-10-144</name>
						<rate>
							<timebase>60</timebase>
							<ntsc>TRUE</ntsc>
						</rate>
						<rate>
							<timebase>60</timebase>
							<ntsc>TRUE</ntsc>
						</rate>
						<duration>210</duration>
						<start>636</start>
						<end>846</end>
						<in>636</in>
						<out>846</out>
						<enabled>FALSE</enabled>
					</clipitem>
					<clipitem frameBlend="FALSE" id="clipitem-rejected-347">
						<file id="file-1"/>
						<name>[REJECTED] bandicam 2025-06-02 00-01-10-144</name>
						<rate>
							<timebase>60</timebase>
							<ntsc>TRUE</ntsc>
						</rate>
						<rate>
							<timebase>60</timebase>
							<ntsc>TRUE</ntsc>
						</rate>
						<duration>48</duration>
						<start>858</start>
						<end>906</end>
						<in>858</in>
						<out>906</out>
						<enabled>FALSE</enabled>
					</clipitem>
					<clipitem frameBlend="FALSE" id="clipitem-rejected-348">
						<file id="file-1"/>
						<name>[REJECTED] bandicam 2025-06-02 00-01-10-144</name>
						<rate>
							<timebase>60</timebase>
							<ntsc>TRUE</ntsc>
						</rate>
						<rate>
							<timebase>60</timebase>
							<ntsc>TRUE</ntsc>
						</rate>
						<duration>12</duration>
						<start>918</start>
						<end>930</end>
						<in>918</in>
						<out>930</out>
						<enabled>FALSE</enabled>
					</clipitem>
					<clipitem frameBlend="FALSE" id="clipitem-rejected-349">
						<file id="file-1"/>
						<name>[REJECTED] bandicam 2025-06-02 00-01-10-144</name>
						<rate>
							<timebase>60</timebase>
							<ntsc>TRUE</ntsc>
						</rate>
						<rate>
							<timebase>60</timebase>
							<ntsc>TRUE</ntsc>
						</rate>
						<duration>6</duration>
						<start>942</start>
						<end>948</end>
						<in>942</in>
						<out>948</out>
						<enabled>FALSE</enabled>
					</clipitem>
					<clipitem frameBlend="FALSE" id="clipitem-rejected-350">
						<file id="file-1"/>
						<name>[REJECTED] bandicam 2025-06-02 00-01-10-144</name>
						<rate>
							<timebase>60</timebase>
							<ntsc>TRUE</ntsc>
						</rate>
						<rate>
							<timebase>60</timebase>
							<ntsc>TRUE</ntsc>
						</rate>
						<duration>18</duration>
						<start>960</start>
						<end>978</end>
						<in>960</in>
						<out>978</out>
						<enabled>FALSE</enabled>
					</clipitem>
					<clipitem frameBlend="FALSE" id="clipitem-rejected-351">
						<file id="file-1"/>
						<name>[REJECTED] bandicam 2025-06-02 00-01-10-144</name>
						<rate>
							<timebase>60</timebase>
							<ntsc>TRUE</ntsc>
						</rate>
						<rate>
							<timebase>60</timebase>
							<ntsc>TRUE</ntsc>
						</rate>
						<duration>84</duration>
						<start>996</start>
						<end>1080</end>
						<in>996</in>
						<out>1080</out>
						<enabled>FALSE</enabled>
					</clipitem>
					<clipitem frameBlend="FALSE" id="clipitem-rejected-352">
						<file id="file-1"/>
						<name>[REJECTED] bandicam 2025-06-02 00-01-10-144</name>
						<rate>
							<timebase>60</timebase>
							<ntsc>TRUE</ntsc>
						</rate>
						<rate>
							<timebase>60</timebase>
							<ntsc>TRUE</ntsc>
						</rate>
						<duration>90</duration>
						<start>1098</start>
						<end>1188</end>
						<in>1098</in>
						<out>1188</out>
						<enabled>FALSE</enabled>
					</clipitem>
					<clipitem frameBlend="FALSE" id="clipitem-rejected-353">
						<file id="file-1"/>
						<name>[REJECTED] bandicam 2025-06-02 00-01-10-144</name>
						<rate>
							<timebase>60</timebase>
							<ntsc>TRUE</ntsc>
						</rate>
						<rate>
							<timebase>60</timebase>
							<ntsc>TRUE</ntsc>
						</rate>
						<duration>0</duration>
						<start>1200</start>
						<end>1200</end>
						<in>1200</in>
						<out>1200</out>
						<enabled>FALSE</enabled>
					</clipitem>
					<clipitem frameBlend="FALSE" id="clipitem-rejected-354">
						<file id="file-1"/>
						<name>[REJECTED] bandicam 2025-06-02 00-01-10-144</name>
						<rate>
							<timebase>60</timebase>
							<ntsc>TRUE</ntsc>
						</rate>
						<rate>
							<timebase>60</timebase>
							<ntsc>TRUE</ntsc>
						</rate>
						<duration>96</duration>
						<start>1218</start>
						<end>1314</end>
						<in>1218</in>
						<out>1314</out>
						<enabled>FALSE</enabled>
					</clipitem>
					<clipitem frameBlend="FALSE" id="clipitem-rejected-355">
						<file id="file-1"/>
						<name>[REJECTED] bandicam 2025-06-02 00-01-10-144</name>
						<rate>
							<timebase>60</timebase>
							<ntsc>TRUE</ntsc>
						</rate>
						<rate>
							<timebase>60</timebase>
							<ntsc>TRUE</ntsc>
						</rate>
						<duration>54</duration>
						<start>1326</start>
						<end>1380</end>
						<in>1326</in>
						<out>1380</out>
						<enabled>FALSE</enabled>
					</clipitem>
					<clipitem frameBlend="FALSE" id="clipitem-rejected-356">
						<file id="file-1"/>
						<name>[REJECTED] bandicam 2025-06-02 00-01-10-144</name>
						<rate>
							<timebase>60</timebase>
							<ntsc>TRUE</ntsc>
						</rate>
						<rate>
							<timebase>60</timebase>
							<ntsc>TRUE</ntsc>
						</rate>
						<duration>6</duration>
						<start>1392</start>
						<end>1398</end>
						<in>1392</in>
						<out>1398</out>
						<enabled>FALSE</enabled>
					</clipitem>
					<clipitem frameBlend="FALSE" id="clipitem-rejected-357">
						<file id="file-1"/>
						<name>[REJECTED] bandicam 2025-06-02 00-01-10-144</name>
						<rate>
							<timebase>60</timebase>
							<ntsc>TRUE</ntsc>
						</rate>
						<rate>
							<timebase>60</timebase>
							<ntsc>TRUE</ntsc>
						</rate>
						<duration>12</duration>
						<start>1428</start>
						<end>1440</end>
						<in>1428</in>
						<out>1440</out>
						<enabled>FALSE</enabled>
					</clipitem>
					<clipitem frameBlend="FALSE" id="clipitem-rejected-358">
						<file id="file-1"/>
						<name>[REJECTED] bandicam 2025-06-02 00-01-10-144</name>
						<rate>
							<timebase>60</timebase>
							<ntsc>TRUE</ntsc>
						</rate>
						<rate>
							<timebase>60</timebase>
							<ntsc>TRUE</ntsc>
						</rate>
						<duration>102</duration>
						<start>1458</start>
						<end>1560</end>
						<in>1458</in>
						<out>1560</out>
						<enabled>FALSE</enabled>
					</clipitem>
					<clipitem frameBlend="FALSE" id="clipitem-rejected-359">
						<file id="file-1"/>
						<name>[REJECTED] bandicam 2025-06-02 00-01-10-144</name>
						<rate>
							<timebase>60</timebase>
							<ntsc>TRUE</ntsc>
						</rate>
						<rate>
							<timebase>60</timebase>
							<ntsc>TRUE</ntsc>
						</rate>
						<duration>108</duration>
						<start>1578</start>
						<end>1686</end>
						<in>1578</in>
						<out>1686</out>
						<enabled>FALSE</enabled>
					</clipitem>
					<clipitem frameBlend="FALSE" id="clipitem-rejected-360">
						<file id="file-1"/>
						<name>[REJECTED] bandicam 2025-06-02 00-01-10-144</name>
						<rate>
							<timebase>60</timebase>
							<ntsc>TRUE</ntsc>
						</rate>
						<rate>
							<timebase>60</timebase>
							<ntsc>TRUE</ntsc>
						</rate>
						<duration>0</duration>
						<start>1698</start>
						<end>1698</end>
						<in>1698</in>
						<out>1698</out>
						<enabled>FALSE</enabled>
					</clipitem>
					<clipitem frameBlend="FALSE" id="clipitem-rejected-361">
						<file id="file-1"/>
						<name>[REJECTED] bandicam 2025-06-02 00-01-10-144</name>
						<rate>
							<timebase>60</timebase>
							<ntsc>TRUE</ntsc>
						</rate>
						<rate>
							<timebase>60</timebase>
							<ntsc>TRUE</ntsc>
						</rate>
						<duration>18</duration>
						<start>1722</start>
						<end>1740</end>
						<in>1722</in>
						<out>1740</out>
						<enabled>FALSE</enabled>
					</clipitem>
					<clipitem frameBlend="FALSE" id="clipitem-rejected-362">
						<file id="file-1"/>
						<name>[REJECTED] bandicam 2025-06-02 00-01-10-144</name>
						<rate>
							<timebase>60</timebase>
							<ntsc>TRUE</ntsc>
						</rate>
						<rate>
							<timebase>60</timebase>
							<ntsc>TRUE</ntsc>
						</rate>
						<duration>6</duration>
						<start>1764</start>
						<end>1770</end>
						<in>1764</in>
						<out>1770</out>
						<enabled>FALSE</enabled>
					</clipitem>
					<clipitem frameBlend="FALSE" id="clipitem-rejected-363">
						<file id="file-1"/>
						<name>[REJECTED] bandicam 2025-06-02 00-01-10-144</name>
						<rate>
							<timebase>60</timebase>
							<ntsc>TRUE</ntsc>
						</rate>
						<rate>
							<timebase>60</timebase>
							<ntsc>TRUE</ntsc>
						</rate>
						<duration>24</duration>
						<start>1782</start>
						<end>1806</end>
						<in>1782</in>
						<out>1806</out>
						<enabled>FALSE</enabled>
					</clipitem>
					<clipitem frameBlend="FALSE" id="clipitem-rejected-364">
						<file id="file-1"/>
						<name>[REJECTED] bandicam 2025-06-02 00-01-10-144</name>
						<rate>
							<timebase>60</timebase>
							<ntsc>TRUE</ntsc>
						</rate>
						<rate>
							<timebase>60</timebase>
							<ntsc>TRUE</ntsc>
						</rate>
						<duration>6</duration>
						<start>1818</start>
						<end>1824</end>
						<in>1818</in>
						<out>1824</out>
						<enabled>FALSE</enabled>
					</clipitem>
					<clipitem frameBlend="FALSE" id="clipitem-rejected-365">
						<file id="file-1"/>
						<name>[REJECTED] bandicam 2025-06-02 00-01-10-144</name>
						<rate>
							<timebase>60</timebase>
							<ntsc>TRUE</ntsc>
						</rate>
						<rate>
							<timebase>60</timebase>
							<ntsc>TRUE</ntsc>
						</rate>
						<duration>0</duration>
						<start>1836</start>
						<end>1836</end>
						<in>1836</in>
						<out>1836</out>
						<enabled>FALSE</enabled>
					</clipitem>
					<clipitem frameBlend="FALSE" id="clipitem-rejected-366">
						<file id="file-1"/>
						<name>[REJECTED] bandicam 2025-06-02 00-01-10-144</name>
						<rate>
							<timebase>60</timebase>
							<ntsc>TRUE</ntsc>
						</rate>
						<rate>
							<timebase>60</timebase>
							<ntsc>TRUE</ntsc>
						</rate>
						<duration>6</duration>
						<start>1860</start>
						<end>1866</end>
						<in>1860</in>
						<out>1866</out>
						<enabled>FALSE</enabled>
					</clipitem>
					<clipitem frameBlend="FALSE" id="clipitem-rejected-367">
						<file id="file-1"/>
						<name>[REJECTED] bandicam 2025-06-02 00-01-10-144</name>
						<rate>
							<timebase>60</timebase>
							<ntsc>TRUE</ntsc>
						</rate>
						<rate>
							<timebase>60</timebase>
							<ntsc>TRUE</ntsc>
						</rate>
						<duration>0</duration>
						<start>1878</start>
						<end>1878</end>
						<in>1878</in>
						<out>1878</out>
						<enabled>FALSE</enabled>
					</clipitem>
					<clipitem frameBlend="FALSE" id="clipitem-rejected-368">
						<file id="file-1"/>
						<name>[REJECTED] bandicam 2025-06-02 00-01-10-144</name>
						<rate>
							<timebase>60</timebase>
							<ntsc>TRUE</ntsc>
						</rate>
						<rate>
							<timebase>60</timebase>
							<ntsc>TRUE</ntsc>
						</rate>
						<duration>24</duration>
						<start>1896</start>
						<end>1920</end>
						<in>1896</in>
						<out>1920</out>
						<enabled>FALSE</enabled>
					</clipitem>
					<clipitem frameBlend="FALSE" id="clipitem-rejected-369">
						<file id="file-1"/>
						<name>[REJECTED] bandicam 2025-06-02 00-01-10-144</name>
						<rate>
							<timebase>60</timebase>
							<ntsc>TRUE</ntsc>
						</rate>
						<rate>
							<timebase>60</timebase>
							<ntsc>TRUE</ntsc>
						</rate>
						<duration>240</duration>
						<start>1938</start>
						<end>2178</end>
						<in>1938</in>
						<out>2178</out>
						<enabled>FALSE</enabled>
					</clipitem>
					<clipitem frameBlend="FALSE" id="clipitem-rejected-370">
						<file id="file-1"/>
						<name>[REJECTED] bandicam 2025-06-02 00-01-10-144</name>
						<rate>
							<timebase>60</timebase>
							<ntsc>TRUE</ntsc>
						</rate>
						<rate>
							<timebase>60</timebase>
							<ntsc>TRUE</ntsc>
						</rate>
						<duration>96</duration>
						<start>2190</start>
						<end>2286</end>
						<in>2190</in>
						<out>2286</out>
						<enabled>FALSE</enabled>
					</clipitem>
					<clipitem frameBlend="FALSE" id="clipitem-rejected-371">
						<file id="file-1"/>
						<name>[REJECTED] bandicam 2025-06-02 00-01-10-144</name>
						<rate>
							<timebase>60</timebase>
							<ntsc>TRUE</ntsc>
						</rate>
						<rate>
							<timebase>60</timebase>
							<ntsc>TRUE</ntsc>
						</rate>
						<duration>6</duration>
						<start>2298</start>
						<end>2304</end>
						<in>2298</in>
						<out>2304</out>
						<enabled>FALSE</enabled>
					</clipitem>
					<clipitem frameBlend="FALSE" id="clipitem-rejected-372">
						<file id="file-1"/>
						<name>[REJECTED] bandicam 2025-06-02 00-01-10-144</name>
						<rate>
							<timebase>60</timebase>
							<ntsc>TRUE</ntsc>
						</rate>
						<rate>
							<timebase>60</timebase>
							<ntsc>TRUE</ntsc>
						</rate>
						<duration>0</duration>
						<start>2328</start>
						<end>2328</end>
						<in>2328</in>
						<out>2328</out>
						<enabled>FALSE</enabled>
					</clipitem>
					<clipitem frameBlend="FALSE" id="clipitem-rejected-373">
						<file id="file-1"/>
						<name>[REJECTED] bandicam 2025-06-02 00-01-10-144</name>
						<rate>
							<timebase>60</timebase>
							<ntsc>TRUE</ntsc>
						</rate>
						<rate>
							<timebase>60</timebase>
							<ntsc>TRUE</ntsc>
						</rate>
						<duration>96</duration>
						<start>2346</start>
						<end>2442</end>
						<in>2346</in>
						<out>2442</out>
						<enabled>FALSE</enabled>
					</clipitem>
					<clipitem frameBlend="FALSE" id="clipitem-rejected-374">
						<file id="file-1"/>
						<name>[REJECTED] bandicam 2025-06-02 00-01-10-144</name>
						<rate>
							<timebase>60</timebase>
							<ntsc>TRUE</ntsc>
						</rate>
						<rate>
							<timebase>60</timebase>
							<ntsc>TRUE</ntsc>
						</rate>
						<duration>12</duration>
						<start>2460</start>
						<end>2472</end>
						<in>2460</in>
						<out>2472</out>
						<enabled>FALSE</enabled>
					</clipitem>
					<clipitem frameBlend="FALSE" id="clipitem-rejected-375">
						<file id="file-1"/>
						<name>[REJECTED] bandicam 2025-06-02 00-01-10-144</name>
						<rate>
							<timebase>60</timebase>
							<ntsc>TRUE</ntsc>
						</rate>
						<rate>
							<timebase>60</timebase>
							<ntsc>TRUE</ntsc>
						</rate>
						<duration>0</duration>
						<start>2490</start>
						<end>2490</end>
						<in>2490</in>
						<out>2490</out>
						<enabled>FALSE</enabled>
					</clipitem>
					<clipitem frameBlend="FALSE" id="clipitem-rejected-376">
						<file id="file-1"/>
						<name>[REJECTED] bandicam 2025-06-02 00-01-10-144</name>
						<rate>
							<timebase>60</timebase>
							<ntsc>TRUE</ntsc>
						</rate>
						<rate>
							<timebase>60</timebase>
							<ntsc>TRUE</ntsc>
						</rate>
						<duration>78</duration>
						<start>2508</start>
						<end>2586</end>
						<in>2508</in>
						<out>2586</out>
						<enabled>FALSE</enabled>
					</clipitem>
					<clipitem frameBlend="FALSE" id="clipitem-rejected-377">
						<file id="file-1"/>
						<name>[REJECTED] bandicam 2025-06-02 00-01-10-144</name>
						<rate>
							<timebase>60</timebase>
							<ntsc>TRUE</ntsc>
						</rate>
						<rate>
							<timebase>60</timebase>
							<ntsc>TRUE</ntsc>
						</rate>
						<duration>6</duration>
						<start>2604</start>
						<end>2610</end>
						<in>2604</in>
						<out>2610</out>
						<enabled>FALSE</enabled>
					</clipitem>
					<clipitem frameBlend="FALSE" id="clipitem-rejected-378">
						<file id="file-1"/>
						<name>[REJECTED] bandicam 2025-06-02 00-01-10-144</name>
						<rate>
							<timebase>60</timebase>
							<ntsc>TRUE</ntsc>
						</rate>
						<rate>
							<timebase>60</timebase>
							<ntsc>TRUE</ntsc>
						</rate>
						<duration>6</duration>
						<start>2628</start>
						<end>2634</end>
						<in>2628</in>
						<out>2634</out>
						<enabled>FALSE</enabled>
					</clipitem>
					<clipitem frameBlend="FALSE" id="clipitem-rejected-379">
						<file id="file-1"/>
						<name>[REJECTED] bandicam 2025-06-02 00-01-10-144</name>
						<rate>
							<timebase>60</timebase>
							<ntsc>TRUE</ntsc>
						</rate>
						<rate>
							<timebase>60</timebase>
							<ntsc>TRUE</ntsc>
						</rate>
						<duration>0</duration>
						<start>2646</start>
						<end>2646</end>
						<in>2646</in>
						<out>2646</out>
						<enabled>FALSE</enabled>
					</clipitem>
					<clipitem frameBlend="FALSE" id="clipitem-rejected-380">
						<file id="file-1"/>
						<name>[REJECTED] bandicam 2025-06-02 00-01-10-144</name>
						<rate>
							<timebase>60</timebase>
							<ntsc>TRUE</ntsc>
						</rate>
						<rate>
							<timebase>60</timebase>
							<ntsc>TRUE</ntsc>
						</rate>
						<duration>54</duration>
						<start>2664</start>
						<end>2718</end>
						<in>2664</in>
						<out>2718</out>
						<enabled>FALSE</enabled>
					</clipitem>
					<clipitem frameBlend="FALSE" id="clipitem-rejected-381">
						<file id="file-1"/>
						<name>[REJECTED] bandicam 2025-06-02 00-01-10-144</name>
						<rate>
							<timebase>60</timebase>
							<ntsc>TRUE</ntsc>
						</rate>
						<rate>
							<timebase>60</timebase>
							<ntsc>TRUE</ntsc>
						</rate>
						<duration>0</duration>
						<start>2736</start>
						<end>2736</end>
						<in>2736</in>
						<out>2736</out>
						<enabled>FALSE</enabled>
					</clipitem>
					<clipitem frameBlend="FALSE" id="clipitem-rejected-382">
						<file id="file-1"/>
						<name>[REJECTED] bandicam 2025-06-02 00-01-10-144</name>
						<rate>
							<timebase>60</timebase>
							<ntsc>TRUE</ntsc>
						</rate>
						<rate>
							<timebase>60</timebase>
							<ntsc>TRUE</ntsc>
						</rate>
						<duration>18</duration>
						<start>2778</start>
						<end>2796</end>
						<in>2778</in>
						<out>2796</out>
						<enabled>FALSE</enabled>
					</clipitem>
					<clipitem frameBlend="FALSE" id="clipitem-rejected-383">
						<file id="file-1"/>
						<name>[REJECTED] bandicam 2025-06-02 00-01-10-144</name>
						<rate>
							<timebase>60</timebase>
							<ntsc>TRUE</ntsc>
						</rate>
						<rate>
							<timebase>60</timebase>
							<ntsc>TRUE</ntsc>
						</rate>
						<duration>30</duration>
						<start>2838</start>
						<end>2868</end>
						<in>2838</in>
						<out>2868</out>
						<enabled>FALSE</enabled>
					</clipitem>
					<clipitem frameBlend="FALSE" id="clipitem-rejected-384">
						<file id="file-1"/>
						<name>[REJECTED] bandicam 2025-06-02 00-01-10-144</name>
						<rate>
							<timebase>60</timebase>
							<ntsc>TRUE</ntsc>
						</rate>
						<rate>
							<timebase>60</timebase>
							<ntsc>TRUE</ntsc>
						</rate>
						<duration>54</duration>
						<start>2886</start>
						<end>2940</end>
						<in>2886</in>
						<out>2940</out>
						<enabled>FALSE</enabled>
					</clipitem>
					<clipitem frameBlend="FALSE" id="clipitem-rejected-385">
						<file id="file-1"/>
						<name>[REJECTED] bandicam 2025-06-02 00-01-10-144</name>
						<rate>
							<timebase>60</timebase>
							<ntsc>TRUE</ntsc>
						</rate>
						<rate>
							<timebase>60</timebase>
							<ntsc>TRUE</ntsc>
						</rate>
						<duration>6</duration>
						<start>2952</start>
						<end>2958</end>
						<in>2952</in>
						<out>2958</out>
						<enabled>FALSE</enabled>
					</clipitem>
					<clipitem frameBlend="FALSE" id="clipitem-rejected-386">
						<file id="file-1"/>
						<name>[REJECTED] bandicam 2025-06-02 00-01-10-144</name>
						<rate>
							<timebase>60</timebase>
							<ntsc>TRUE</ntsc>
						</rate>
						<rate>
							<timebase>60</timebase>
							<ntsc>TRUE</ntsc>
						</rate>
						<duration>78</duration>
						<start>2976</start>
						<end>3054</end>
						<in>2976</in>
						<out>3054</out>
						<enabled>FALSE</enabled>
					</clipitem>
					<clipitem frameBlend="FALSE" id="clipitem-rejected-387">
						<file id="file-1"/>
						<name>[REJECTED] bandicam 2025-06-02 00-01-10-144</name>
						<rate>
							<timebase>60</timebase>
							<ntsc>TRUE</ntsc>
						</rate>
						<rate>
							<timebase>60</timebase>
							<ntsc>TRUE</ntsc>
						</rate>
						<duration>6</duration>
						<start>3108</start>
						<end>3114</end>
						<in>3108</in>
						<out>3114</out>
						<enabled>FALSE</enabled>
					</clipitem>
					<clipitem frameBlend="FALSE" id="clipitem-rejected-388">
						<file id="file-1"/>
						<name>[REJECTED] bandicam 2025-06-02 00-01-10-144</name>
						<rate>
							<timebase>60</timebase>
							<ntsc>TRUE</ntsc>
						</rate>
						<rate>
							<timebase>60</timebase>
							<ntsc>TRUE</ntsc>
						</rate>
						<duration>90</duration>
						<start>3132</start>
						<end>3222</end>
						<in>3132</in>
						<out>3222</out>
						<enabled>FALSE</enabled>
					</clipitem>
					<clipitem frameBlend="FALSE" id="clipitem-rejected-389">
						<file id="file-1"/>
						<name>[REJECTED] bandicam 2025-06-02 00-01-10-144</name>
						<rate>
							<timebase>60</timebase>
							<ntsc>TRUE</ntsc>
						</rate>
						<rate>
							<timebase>60</timebase>
							<ntsc>TRUE</ntsc>
						</rate>
						<duration>24</duration>
						<start>3240</start>
						<end>3264</end>
						<in>3240</in>
						<out>3264</out>
						<enabled>FALSE</enabled>
					</clipitem>
					<clipitem frameBlend="FALSE" id="clipitem-rejected-390">
						<file id="file-1"/>
						<name>[REJECTED] bandicam 2025-06-02 00-01-10-144</name>
						<rate>
							<timebase>60</timebase>
							<ntsc>TRUE</ntsc>
						</rate>
						<rate>
							<timebase>60</timebase>
							<ntsc>TRUE</ntsc>
						</rate>
						<duration>0</duration>
						<start>3300</start>
						<end>3300</end>
						<in>3300</in>
						<out>3300</out>
						<enabled>FALSE</enabled>
					</clipitem>
					<clipitem frameBlend="FALSE" id="clipitem-rejected-391">
						<file id="file-1"/>
						<name>[REJECTED] bandicam 2025-06-02 00-01-10-144</name>
						<rate>
							<timebase>60</timebase>
							<ntsc>TRUE</ntsc>
						</rate>
						<rate>
							<timebase>60</timebase>
							<ntsc>TRUE</ntsc>
						</rate>
						<duration>60</duration>
						<start>3312</start>
						<end>3372</end>
						<in>3312</in>
						<out>3372</out>
						<enabled>FALSE</enabled>
					</clipitem>
					<clipitem frameBlend="FALSE" id="clipitem-rejected-392">
						<file id="file-1"/>
						<name>[REJECTED] bandicam 2025-06-02 00-01-10-144</name>
						<rate>
							<timebase>60</timebase>
							<ntsc>TRUE</ntsc>
						</rate>
						<rate>
							<timebase>60</timebase>
							<ntsc>TRUE</ntsc>
						</rate>
						<duration>66</duration>
						<start>3384</start>
						<end>3450</end>
						<in>3384</in>
						<out>3450</out>
						<enabled>FALSE</enabled>
					</clipitem>
					<clipitem frameBlend="FALSE" id="clipitem-rejected-393">
						<file id="file-1"/>
						<name>[REJECTED] bandicam 2025-06-02 00-01-10-144</name>
						<rate>
							<timebase>60</timebase>
							<ntsc>TRUE</ntsc>
						</rate>
						<rate>
							<timebase>60</timebase>
							<ntsc>TRUE</ntsc>
						</rate>
						<duration>18</duration>
						<start>3480</start>
						<end>3498</end>
						<in>3480</in>
						<out>3498</out>
						<enabled>FALSE</enabled>
					</clipitem>
					<clipitem frameBlend="FALSE" id="clipitem-rejected-394">
						<file id="file-1"/>
						<name>[REJECTED] bandicam 2025-06-02 00-01-10-144</name>
						<rate>
							<timebase>60</timebase>
							<ntsc>TRUE</ntsc>
						</rate>
						<rate>
							<timebase>60</timebase>
							<ntsc>TRUE</ntsc>
						</rate>
						<duration>66</duration>
						<start>3510</start>
						<end>3576</end>
						<in>3510</in>
						<out>3576</out>
						<enabled>FALSE</enabled>
					</clipitem>
					<clipitem frameBlend="FALSE" id="clipitem-rejected-395">
						<file id="file-1"/>
						<name>[REJECTED] bandicam 2025-06-02 00-01-10-144</name>
						<rate>
							<timebase>60</timebase>
							<ntsc>TRUE</ntsc>
						</rate>
						<rate>
							<timebase>60</timebase>
							<ntsc>TRUE</ntsc>
						</rate>
						<duration>30</duration>
						<start>3588</start>
						<end>3618</end>
						<in>3588</in>
						<out>3618</out>
						<enabled>FALSE</enabled>
					</clipitem>
					<clipitem frameBlend="FALSE" id="clipitem-rejected-396">
						<file id="file-1"/>
						<name>[REJECTED] bandicam 2025-06-02 00-01-10-144</name>
						<rate>
							<timebase>60</timebase>
							<ntsc>TRUE</ntsc>
						</rate>
						<rate>
							<timebase>60</timebase>
							<ntsc>TRUE</ntsc>
						</rate>
						<duration>42</duration>
						<start>3648</start>
						<end>3690</end>
						<in>3648</in>
						<out>3690</out>
						<enabled>FALSE</enabled>
					</clipitem>
					<clipitem frameBlend="FALSE" id="clipitem-rejected-397">
						<file id="file-1"/>
						<name>[REJECTED] bandicam 2025-06-02 00-01-10-144</name>
						<rate>
							<timebase>60</timebase>
							<ntsc>TRUE</ntsc>
						</rate>
						<rate>
							<timebase>60</timebase>
							<ntsc>TRUE</ntsc>
						</rate>
						<duration>60</duration>
						<start>3702</start>
						<end>3762</end>
						<in>3702</in>
						<out>3762</out>
						<enabled>FALSE</enabled>
					</clipitem>
					<clipitem frameBlend="FALSE" id="clipitem-rejected-398">
						<file id="file-1"/>
						<name>[REJECTED] bandicam 2025-06-02 00-01-10-144</name>
						<rate>
							<timebase>60</timebase>
							<ntsc>TRUE</ntsc>
						</rate>
						<rate>
							<timebase>60</timebase>
							<ntsc>TRUE</ntsc>
						</rate>
						<duration>72</duration>
						<start>3780</start>
						<end>3852</end>
						<in>3780</in>
						<out>3852</out>
						<enabled>FALSE</enabled>
					</clipitem>
					<clipitem frameBlend="FALSE" id="clipitem-rejected-399">
						<file id="file-1"/>
						<name>[REJECTED] bandicam 2025-06-02 00-01-10-144</name>
						<rate>
							<timebase>60</timebase>
							<ntsc>TRUE</ntsc>
						</rate>
						<rate>
							<timebase>60</timebase>
							<ntsc>TRUE</ntsc>
						</rate>
						<duration>42</duration>
						<start>3864</start>
						<end>3906</end>
						<in>3864</in>
						<out>3906</out>
						<enabled>FALSE</enabled>
					</clipitem>
					<clipitem frameBlend="FALSE" id="clipitem-rejected-400">
						<file id="file-1"/>
						<name>[REJECTED] bandicam 2025-06-02 00-01-10-144</name>
						<rate>
							<timebase>60</timebase>
							<ntsc>TRUE</ntsc>
						</rate>
						<rate>
							<timebase>60</timebase>
							<ntsc>TRUE</ntsc>
						</rate>
						<duration>108</duration>
						<start>3918</start>
						<end>4026</end>
						<in>3918</in>
						<out>4026</out>
						<enabled>FALSE</enabled>
					</clipitem>
					<clipitem frameBlend="FALSE" id="clipitem-rejected-401">
						<file id="file-1"/>
						<name>[REJECTED] bandicam 2025-06-02 00-01-10-144</name>
						<rate>
							<timebase>60</timebase>
							<ntsc>TRUE</ntsc>
						</rate>
						<rate>
							<timebase>60</timebase>
							<ntsc>TRUE</ntsc>
						</rate>
						<duration>42</duration>
						<start>4038</start>
						<end>4080</end>
						<in>4038</in>
						<out>4080</out>
						<enabled>FALSE</enabled>
					</clipitem>
					<clipitem frameBlend="FALSE" id="clipitem-rejected-402">
						<file id="file-1"/>
						<name>[REJECTED] bandicam 2025-06-02 00-01-10-144</name>
						<rate>
							<timebase>60</timebase>
							<ntsc>TRUE</ntsc>
						</rate>
						<rate>
							<timebase>60</timebase>
							<ntsc>TRUE</ntsc>
						</rate>
						<duration>6</duration>
						<start>4116</start>
						<end>4122</end>
						<in>4116</in>
						<out>4122</out>
						<enabled>FALSE</enabled>
					</clipitem>
					<clipitem frameBlend="FALSE" id="clipitem-rejected-403">
						<file id="file-1"/>
						<name>[REJECTED] bandicam 2025-06-02 00-01-10-144</name>
						<rate>
							<timebase>60</timebase>
							<ntsc>TRUE</ntsc>
						</rate>
						<rate>
							<timebase>60</timebase>
							<ntsc>TRUE</ntsc>
						</rate>
						<duration>42</duration>
						<start>4140</start>
						<end>4182</end>
						<in>4140</in>
						<out>4182</out>
						<enabled>FALSE</enabled>
					</clipitem>
					<clipitem frameBlend="FALSE" id="clipitem-rejected-404">
						<file id="file-1"/>
						<name>[REJECTED] bandicam 2025-06-02 00-01-10-144</name>
						<rate>
							<timebase>60</timebase>
							<ntsc>TRUE</ntsc>
						</rate>
						<rate>
							<timebase>60</timebase>
							<ntsc>TRUE</ntsc>
						</rate>
						<duration>24</duration>
						<start>4200</start>
						<end>4224</end>
						<in>4200</in>
						<out>4224</out>
						<enabled>FALSE</enabled>
					</clipitem>
					<clipitem frameBlend="FALSE" id="clipitem-rejected-405">
						<file id="file-1"/>
						<name>[REJECTED] bandicam 2025-06-02 00-01-10-144</name>
						<rate>
							<timebase>60</timebase>
							<ntsc>TRUE</ntsc>
						</rate>
						<rate>
							<timebase>60</timebase>
							<ntsc>TRUE</ntsc>
						</rate>
						<duration>0</duration>
						<start>4254</start>
						<end>4254</end>
						<in>4254</in>
						<out>4254</out>
						<enabled>FALSE</enabled>
					</clipitem>
					<clipitem frameBlend="FALSE" id="clipitem-rejected-406">
						<file id="file-1"/>
						<name>[REJECTED] bandicam 2025-06-02 00-01-10-144</name>
						<rate>
							<timebase>60</timebase>
							<ntsc>TRUE</ntsc>
						</rate>
						<rate>
							<timebase>60</timebase>
							<ntsc>TRUE</ntsc>
						</rate>
						<duration>30</duration>
						<start>4266</start>
						<end>4296</end>
						<in>4266</in>
						<out>4296</out>
						<enabled>FALSE</enabled>
					</clipitem>
					<clipitem frameBlend="FALSE" id="clipitem-rejected-407">
						<file id="file-1"/>
						<name>[REJECTED] bandicam 2025-06-02 00-01-10-144</name>
						<rate>
							<timebase>60</timebase>
							<ntsc>TRUE</ntsc>
						</rate>
						<rate>
							<timebase>60</timebase>
							<ntsc>TRUE</ntsc>
						</rate>
						<duration>0</duration>
						<start>4374</start>
						<end>4374</end>
						<in>4374</in>
						<out>4374</out>
						<enabled>FALSE</enabled>
					</clipitem>
					<clipitem frameBlend="FALSE" id="clipitem-rejected-408">
						<file id="file-1"/>
						<name>[REJECTED] bandicam 2025-06-02 00-01-10-144</name>
						<rate>
							<timebase>60</timebase>
							<ntsc>TRUE</ntsc>
						</rate>
						<rate>
							<timebase>60</timebase>
							<ntsc>TRUE</ntsc>
						</rate>
						<duration>0</duration>
						<start>4386</start>
						<end>4386</end>
						<in>4386</in>
						<out>4386</out>
						<enabled>FALSE</enabled>
					</clipitem>
					<clipitem frameBlend="FALSE" id="clipitem-rejected-409">
						<file id="file-1"/>
						<name>[REJECTED] bandicam 2025-06-02 00-01-10-144</name>
						<rate>
							<timebase>60</timebase>
							<ntsc>TRUE</ntsc>
						</rate>
						<rate>
							<timebase>60</timebase>
							<ntsc>TRUE</ntsc>
						</rate>
						<duration>30</duration>
						<start>4440</start>
						<end>4470</end>
						<in>4440</in>
						<out>4470</out>
						<enabled>FALSE</enabled>
					</clipitem>
					<clipitem frameBlend="FALSE" id="clipitem-rejected-410">
						<file id="file-1"/>
						<name>[REJECTED] bandicam 2025-06-02 00-01-10-144</name>
						<rate>
							<timebase>60</timebase>
							<ntsc>TRUE</ntsc>
						</rate>
						<rate>
							<timebase>60</timebase>
							<ntsc>TRUE</ntsc>
						</rate>
						<duration>18</duration>
						<start>4482</start>
						<end>4500</end>
						<in>4482</in>
						<out>4500</out>
						<enabled>FALSE</enabled>
					</clipitem>
					<clipitem frameBlend="FALSE" id="clipitem-rejected-411">
						<file id="file-1"/>
						<name>[REJECTED] bandicam 2025-06-02 00-01-10-144</name>
						<rate>
							<timebase>60</timebase>
							<ntsc>TRUE</ntsc>
						</rate>
						<rate>
							<timebase>60</timebase>
							<ntsc>TRUE</ntsc>
						</rate>
						<duration>0</duration>
						<start>4536</start>
						<end>4536</end>
						<in>4536</in>
						<out>4536</out>
						<enabled>FALSE</enabled>
					</clipitem>
					<clipitem frameBlend="FALSE" id="clipitem-rejected-412">
						<file id="file-1"/>
						<name>[REJECTED] bandicam 2025-06-02 00-01-10-144</name>
						<rate>
							<timebase>60</timebase>
							<ntsc>TRUE</ntsc>
						</rate>
						<rate>
							<timebase>60</timebase>
							<ntsc>TRUE</ntsc>
						</rate>
						<duration>36</duration>
						<start>4560</start>
						<end>4596</end>
						<in>4560</in>
						<out>4596</out>
						<enabled>FALSE</enabled>
					</clipitem>
					<clipitem frameBlend="FALSE" id="clipitem-rejected-413">
						<file id="file-1"/>
						<name>[REJECTED] bandicam 2025-06-02 00-01-10-144</name>
						<rate>
							<timebase>60</timebase>
							<ntsc>TRUE</ntsc>
						</rate>
						<rate>
							<timebase>60</timebase>
							<ntsc>TRUE</ntsc>
						</rate>
						<duration>6</duration>
						<start>4638</start>
						<end>4644</end>
						<in>4638</in>
						<out>4644</out>
						<enabled>FALSE</enabled>
					</clipitem>
					<clipitem frameBlend="FALSE" id="clipitem-rejected-414">
						<file id="file-1"/>
						<name>[REJECTED] bandicam 2025-06-02 00-01-10-144</name>
						<rate>
							<timebase>60</timebase>
							<ntsc>TRUE</ntsc>
						</rate>
						<rate>
							<timebase>60</timebase>
							<ntsc>TRUE</ntsc>
						</rate>
						<duration>36</duration>
						<start>4662</start>
						<end>4698</end>
						<in>4662</in>
						<out>4698</out>
						<enabled>FALSE</enabled>
					</clipitem>
					<clipitem frameBlend="FALSE" id="clipitem-rejected-415">
						<file id="file-1"/>
						<name>[REJECTED] bandicam 2025-06-02 00-01-10-144</name>
						<rate>
							<timebase>60</timebase>
							<ntsc>TRUE</ntsc>
						</rate>
						<rate>
							<timebase>60</timebase>
							<ntsc>TRUE</ntsc>
						</rate>
						<duration>6</duration>
						<start>4710</start>
						<end>4716</end>
						<in>4710</in>
						<out>4716</out>
						<enabled>FALSE</enabled>
					</clipitem>
					<clipitem frameBlend="FALSE" id="clipitem-rejected-416">
						<file id="file-1"/>
						<name>[REJECTED] bandicam 2025-06-02 00-01-10-144</name>
						<rate>
							<timebase>60</timebase>
							<ntsc>TRUE</ntsc>
						</rate>
						<rate>
							<timebase>60</timebase>
							<ntsc>TRUE</ntsc>
						</rate>
						<duration>6</duration>
						<start>4776</start>
						<end>4782</end>
						<in>4776</in>
						<out>4782</out>
						<enabled>FALSE</enabled>
					</clipitem>
					<clipitem frameBlend="FALSE" id="clipitem-rejected-417">
						<file id="file-1"/>
						<name>[REJECTED] bandicam 2025-06-02 00-01-10-144</name>
						<rate>
							<timebase>60</timebase>
							<ntsc>TRUE</ntsc>
						</rate>
						<rate>
							<timebase>60</timebase>
							<ntsc>TRUE</ntsc>
						</rate>
						<duration>54</duration>
						<start>4800</start>
						<end>4854</end>
						<in>4800</in>
						<out>4854</out>
						<enabled>FALSE</enabled>
					</clipitem>
					<clipitem frameBlend="FALSE" id="clipitem-rejected-418">
						<file id="file-1"/>
						<name>[REJECTED] bandicam 2025-06-02 00-01-10-144</name>
						<rate>
							<timebase>60</timebase>
							<ntsc>TRUE</ntsc>
						</rate>
						<rate>
							<timebase>60</timebase>
							<ntsc>TRUE</ntsc>
						</rate>
						<duration>36</duration>
						<start>4872</start>
						<end>4908</end>
						<in>4872</in>
						<out>4908</out>
						<enabled>FALSE</enabled>
					</clipitem>
					<clipitem frameBlend="FALSE" id="clipitem-rejected-419">
						<file id="file-1"/>
						<name>[REJECTED] bandicam 2025-06-02 00-01-10-144</name>
						<rate>
							<timebase>60</timebase>
							<ntsc>TRUE</ntsc>
						</rate>
						<rate>
							<timebase>60</timebase>
							<ntsc>TRUE</ntsc>
						</rate>
						<duration>24</duration>
						<start>4920</start>
						<end>4944</end>
						<in>4920</in>
						<out>4944</out>
						<enabled>FALSE</enabled>
					</clipitem>
					<clipitem frameBlend="FALSE" id="clipitem-rejected-420">
						<file id="file-1"/>
						<name>[REJECTED] bandicam 2025-06-02 00-01-10-144</name>
						<rate>
							<timebase>60</timebase>
							<ntsc>TRUE</ntsc>
						</rate>
						<rate>
							<timebase>60</timebase>
							<ntsc>TRUE</ntsc>
						</rate>
						<duration>6</duration>
						<start>4956</start>
						<end>4962</end>
						<in>4956</in>
						<out>4962</out>
						<enabled>FALSE</enabled>
					</clipitem>
					<clipitem frameBlend="FALSE" id="clipitem-rejected-421">
						<file id="file-1"/>
						<name>[REJECTED] bandicam 2025-06-02 00-01-10-144</name>
						<rate>
							<timebase>60</timebase>
							<ntsc>TRUE</ntsc>
						</rate>
						<rate>
							<timebase>60</timebase>
							<ntsc>TRUE</ntsc>
						</rate>
						<duration>42</duration>
						<start>4980</start>
						<end>5022</end>
						<in>4980</in>
						<out>5022</out>
						<enabled>FALSE</enabled>
					</clipitem>
					<clipitem frameBlend="FALSE" id="clipitem-rejected-422">
						<file id="file-1"/>
						<name>[REJECTED] bandicam 2025-06-02 00-01-10-144</name>
						<rate>
							<timebase>60</timebase>
							<ntsc>TRUE</ntsc>
						</rate>
						<rate>
							<timebase>60</timebase>
							<ntsc>TRUE</ntsc>
						</rate>
						<duration>30</duration>
						<start>5034</start>
						<end>5064</end>
						<in>5034</in>
						<out>5064</out>
						<enabled>FALSE</enabled>
					</clipitem>
					<clipitem frameBlend="FALSE" id="clipitem-rejected-423">
						<file id="file-1"/>
						<name>[REJECTED] bandicam 2025-06-02 00-01-10-144</name>
						<rate>
							<timebase>60</timebase>
							<ntsc>TRUE</ntsc>
						</rate>
						<rate>
							<timebase>60</timebase>
							<ntsc>TRUE</ntsc>
						</rate>
						<duration>18</duration>
						<start>5076</start>
						<end>5094</end>
						<in>5076</in>
						<out>5094</out>
						<enabled>FALSE</enabled>
					</clipitem>
					<clipitem frameBlend="FALSE" id="clipitem-rejected-424">
						<file id="file-1"/>
						<name>[REJECTED] bandicam 2025-06-02 00-01-10-144</name>
						<rate>
							<timebase>60</timebase>
							<ntsc>TRUE</ntsc>
						</rate>
						<rate>
							<timebase>60</timebase>
							<ntsc>TRUE</ntsc>
						</rate>
						<duration>0</duration>
						<start>5106</start>
						<end>5106</end>
						<in>5106</in>
						<out>5106</out>
						<enabled>FALSE</enabled>
					</clipitem>
					<clipitem frameBlend="FALSE" id="clipitem-rejected-425">
						<file id="file-1"/>
						<name>[REJECTED] bandicam 2025-06-02 00-01-10-144</name>
						<rate>
							<timebase>60</timebase>
							<ntsc>TRUE</ntsc>
						</rate>
						<rate>
							<timebase>60</timebase>
							<ntsc>TRUE</ntsc>
						</rate>
						<duration>0</duration>
						<start>5124</start>
						<end>5124</end>
						<in>5124</in>
						<out>5124</out>
						<enabled>FALSE</enabled>
					</clipitem>
					<clipitem frameBlend="FALSE" id="clipitem-rejected-426">
						<file id="file-1"/>
						<name>[REJECTED] bandicam 2025-06-02 00-01-10-144</name>
						<rate>
							<timebase>60</timebase>
							<ntsc>TRUE</ntsc>
						</rate>
						<rate>
							<timebase>60</timebase>
							<ntsc>TRUE</ntsc>
						</rate>
						<duration>0</duration>
						<start>5136</start>
						<end>5136</end>
						<in>5136</in>
						<out>5136</out>
						<enabled>FALSE</enabled>
					</clipitem>
					<clipitem frameBlend="FALSE" id="clipitem-rejected-427">
						<file id="file-1"/>
						<name>[REJECTED] bandicam 2025-06-02 00-01-10-144</name>
						<rate>
							<timebase>60</timebase>
							<ntsc>TRUE</ntsc>
						</rate>
						<rate>
							<timebase>60</timebase>
							<ntsc>TRUE</ntsc>
						</rate>
						<duration>42</duration>
						<start>5184</start>
						<end>5226</end>
						<in>5184</in>
						<out>5226</out>
						<enabled>FALSE</enabled>
					</clipitem>
					<clipitem frameBlend="FALSE" id="clipitem-rejected-428">
						<file id="file-1"/>
						<name>[REJECTED] bandicam 2025-06-02 00-01-10-144</name>
						<rate>
							<timebase>60</timebase>
							<ntsc>TRUE</ntsc>
						</rate>
						<rate>
							<timebase>60</timebase>
							<ntsc>TRUE</ntsc>
						</rate>
						<duration>78</duration>
						<start>5244</start>
						<end>5322</end>
						<in>5244</in>
						<out>5322</out>
						<enabled>FALSE</enabled>
					</clipitem>
					<clipitem frameBlend="FALSE" id="clipitem-rejected-429">
						<file id="file-1"/>
						<name>[REJECTED] bandicam 2025-06-02 00-01-10-144</name>
						<rate>
							<timebase>60</timebase>
							<ntsc>TRUE</ntsc>
						</rate>
						<rate>
							<timebase>60</timebase>
							<ntsc>TRUE</ntsc>
						</rate>
						<duration>36</duration>
						<start>5346</start>
						<end>5382</end>
						<in>5346</in>
						<out>5382</out>
						<enabled>FALSE</enabled>
					</clipitem>
					<clipitem frameBlend="FALSE" id="clipitem-rejected-430">
						<file id="file-1"/>
						<name>[REJECTED] bandicam 2025-06-02 00-01-10-144</name>
						<rate>
							<timebase>60</timebase>
							<ntsc>TRUE</ntsc>
						</rate>
						<rate>
							<timebase>60</timebase>
							<ntsc>TRUE</ntsc>
						</rate>
						<duration>12</duration>
						<start>5394</start>
						<end>5406</end>
						<in>5394</in>
						<out>5406</out>
						<enabled>FALSE</enabled>
					</clipitem>
					<clipitem frameBlend="FALSE" id="clipitem-rejected-431">
						<file id="file-1"/>
						<name>[REJECTED] bandicam 2025-06-02 00-01-10-144</name>
						<rate>
							<timebase>60</timebase>
							<ntsc>TRUE</ntsc>
						</rate>
						<rate>
							<timebase>60</timebase>
							<ntsc>TRUE</ntsc>
						</rate>
						<duration>0</duration>
						<start>5430</start>
						<end>5430</end>
						<in>5430</in>
						<out>5430</out>
						<enabled>FALSE</enabled>
					</clipitem>
					<clipitem frameBlend="FALSE" id="clipitem-rejected-432">
						<file id="file-1"/>
						<name>[REJECTED] bandicam 2025-06-02 00-01-10-144</name>
						<rate>
							<timebase>60</timebase>
							<ntsc>TRUE</ntsc>
						</rate>
						<rate>
							<timebase>60</timebase>
							<ntsc>TRUE</ntsc>
						</rate>
						<duration>0</duration>
						<start>5442</start>
						<end>5442</end>
						<in>5442</in>
						<out>5442</out>
						<enabled>FALSE</enabled>
					</clipitem>
					<clipitem frameBlend="FALSE" id="clipitem-rejected-433">
						<file id="file-1"/>
						<name>[REJECTED] bandicam 2025-06-02 00-01-10-144</name>
						<rate>
							<timebase>60</timebase>
							<ntsc>TRUE</ntsc>
						</rate>
						<rate>
							<timebase>60</timebase>
							<ntsc>TRUE</ntsc>
						</rate>
						<duration>30</duration>
						<start>5454</start>
						<end>5484</end>
						<in>5454</in>
						<out>5484</out>
						<enabled>FALSE</enabled>
					</clipitem>
					<clipitem frameBlend="FALSE" id="clipitem-rejected-434">
						<file id="file-1"/>
						<name>[REJECTED] bandicam 2025-06-02 00-01-10-144</name>
						<rate>
							<timebase>60</timebase>
							<ntsc>TRUE</ntsc>
						</rate>
						<rate>
							<timebase>60</timebase>
							<ntsc>TRUE</ntsc>
						</rate>
						<duration>24</duration>
						<start>5502</start>
						<end>5526</end>
						<in>5502</in>
						<out>5526</out>
						<enabled>FALSE</enabled>
					</clipitem>
					<clipitem frameBlend="FALSE" id="clipitem-rejected-435">
						<file id="file-1"/>
						<name>[REJECTED] bandicam 2025-06-02 00-01-10-144</name>
						<rate>
							<timebase>60</timebase>
							<ntsc>TRUE</ntsc>
						</rate>
						<rate>
							<timebase>60</timebase>
							<ntsc>TRUE</ntsc>
						</rate>
						<duration>48</duration>
						<start>5538</start>
						<end>5586</end>
						<in>5538</in>
						<out>5586</out>
						<enabled>FALSE</enabled>
					</clipitem>
					<clipitem frameBlend="FALSE" id="clipitem-rejected-436">
						<file id="file-1"/>
						<name>[REJECTED] bandicam 2025-06-02 00-01-10-144</name>
						<rate>
							<timebase>60</timebase>
							<ntsc>TRUE</ntsc>
						</rate>
						<rate>
							<timebase>60</timebase>
							<ntsc>TRUE</ntsc>
						</rate>
						<duration>24</duration>
						<start>5598</start>
						<end>5622</end>
						<in>5598</in>
						<out>5622</out>
						<enabled>FALSE</enabled>
					</clipitem>
					<clipitem frameBlend="FALSE" id="clipitem-rejected-437">
						<file id="file-1"/>
						<name>[REJECTED] bandicam 2025-06-02 00-01-10-144</name>
						<rate>
							<timebase>60</timebase>
							<ntsc>TRUE</ntsc>
						</rate>
						<rate>
							<timebase>60</timebase>
							<ntsc>TRUE</ntsc>
						</rate>
						<duration>24</duration>
						<start>5634</start>
						<end>5658</end>
						<in>5634</in>
						<out>5658</out>
						<enabled>FALSE</enabled>
					</clipitem>
					<clipitem frameBlend="FALSE" id="clipitem-rejected-438">
						<file id="file-1"/>
						<name>[REJECTED] bandicam 2025-06-02 00-01-10-144</name>
						<rate>
							<timebase>60</timebase>
							<ntsc>TRUE</ntsc>
						</rate>
						<rate>
							<timebase>60</timebase>
							<ntsc>TRUE</ntsc>
						</rate>
						<duration>60</duration>
						<start>5694</start>
						<end>5754</end>
						<in>5694</in>
						<out>5754</out>
						<enabled>FALSE</enabled>
					</clipitem>
					<clipitem frameBlend="FALSE" id="clipitem-rejected-439">
						<file id="file-1"/>
						<name>[REJECTED] bandicam 2025-06-02 00-01-10-144</name>
						<rate>
							<timebase>60</timebase>
							<ntsc>TRUE</ntsc>
						</rate>
						<rate>
							<timebase>60</timebase>
							<ntsc>TRUE</ntsc>
						</rate>
						<duration>12</duration>
						<start>5784</start>
						<end>5796</end>
						<in>5784</in>
						<out>5796</out>
						<enabled>FALSE</enabled>
					</clipitem>
					<clipitem frameBlend="FALSE" id="clipitem-rejected-440">
						<file id="file-1"/>
						<name>[REJECTED] bandicam 2025-06-02 00-01-10-144</name>
						<rate>
							<timebase>60</timebase>
							<ntsc>TRUE</ntsc>
						</rate>
						<rate>
							<timebase>60</timebase>
							<ntsc>TRUE</ntsc>
						</rate>
						<duration>12</duration>
						<start>5892</start>
						<end>5904</end>
						<in>5892</in>
						<out>5904</out>
						<enabled>FALSE</enabled>
					</clipitem>
					<clipitem frameBlend="FALSE" id="clipitem-rejected-441">
						<file id="file-1"/>
						<name>[REJECTED] bandicam 2025-06-02 00-01-10-144</name>
						<rate>
							<timebase>60</timebase>
							<ntsc>TRUE</ntsc>
						</rate>
						<rate>
							<timebase>60</timebase>
							<ntsc>TRUE</ntsc>
						</rate>
						<duration>18</duration>
						<start>5976</start>
						<end>5994</end>
						<in>5976</in>
						<out>5994</out>
						<enabled>FALSE</enabled>
					</clipitem>
					<clipitem frameBlend="FALSE" id="clipitem-rejected-442">
						<file id="file-1"/>
						<name>[REJECTED] bandicam 2025-06-02 00-01-10-144</name>
						<rate>
							<timebase>60</timebase>
							<ntsc>TRUE</ntsc>
						</rate>
						<rate>
							<timebase>60</timebase>
							<ntsc>TRUE</ntsc>
						</rate>
						<duration>6</duration>
						<start>6042</start>
						<end>6048</end>
						<in>6042</in>
						<out>6048</out>
						<enabled>FALSE</enabled>
					</clipitem>
					<clipitem frameBlend="FALSE" id="clipitem-rejected-443">
						<file id="file-1"/>
						<name>[REJECTED] bandicam 2025-06-02 00-01-10-144</name>
						<rate>
							<timebase>60</timebase>
							<ntsc>TRUE</ntsc>
						</rate>
						<rate>
							<timebase>60</timebase>
							<ntsc>TRUE</ntsc>
						</rate>
						<duration>60</duration>
						<start>6066</start>
						<end>6126</end>
						<in>6066</in>
						<out>6126</out>
						<enabled>FALSE</enabled>
					</clipitem>
					<clipitem frameBlend="FALSE" id="clipitem-rejected-444">
						<file id="file-1"/>
						<name>[REJECTED] bandicam 2025-06-02 00-01-10-144</name>
						<rate>
							<timebase>60</timebase>
							<ntsc>TRUE</ntsc>
						</rate>
						<rate>
							<timebase>60</timebase>
							<ntsc>TRUE</ntsc>
						</rate>
						<duration>12</duration>
						<start>6138</start>
						<end>6150</end>
						<in>6138</in>
						<out>6150</out>
						<enabled>FALSE</enabled>
					</clipitem>
					<clipitem frameBlend="FALSE" id="clipitem-rejected-445">
						<file id="file-1"/>
						<name>[REJECTED] bandicam 2025-06-02 00-01-10-144</name>
						<rate>
							<timebase>60</timebase>
							<ntsc>TRUE</ntsc>
						</rate>
						<rate>
							<timebase>60</timebase>
							<ntsc>TRUE</ntsc>
						</rate>
						<duration>42</duration>
						<start>6186</start>
						<end>6228</end>
						<in>6186</in>
						<out>6228</out>
						<enabled>FALSE</enabled>
					</clipitem>
					<clipitem frameBlend="FALSE" id="clipitem-rejected-446">
						<file id="file-1"/>
						<name>[REJECTED] bandicam 2025-06-02 00-01-10-144</name>
						<rate>
							<timebase>60</timebase>
							<ntsc>TRUE</ntsc>
						</rate>
						<rate>
							<timebase>60</timebase>
							<ntsc>TRUE</ntsc>
						</rate>
						<duration>18</duration>
						<start>6258</start>
						<end>6276</end>
						<in>6258</in>
						<out>6276</out>
						<enabled>FALSE</enabled>
					</clipitem>
					<clipitem frameBlend="FALSE" id="clipitem-rejected-447">
						<file id="file-1"/>
						<name>[REJECTED] bandicam 2025-06-02 00-01-10-144</name>
						<rate>
							<timebase>60</timebase>
							<ntsc>TRUE</ntsc>
						</rate>
						<rate>
							<timebase>60</timebase>
							<ntsc>TRUE</ntsc>
						</rate>
						<duration>18</duration>
						<start>6288</start>
						<end>6306</end>
						<in>6288</in>
						<out>6306</out>
						<enabled>FALSE</enabled>
					</clipitem>
					<clipitem frameBlend="FALSE" id="clipitem-rejected-448">
						<file id="file-1"/>
						<name>[REJECTED] bandicam 2025-06-02 00-01-10-144</name>
						<rate>
							<timebase>60</timebase>
							<ntsc>TRUE</ntsc>
						</rate>
						<rate>
							<timebase>60</timebase>
							<ntsc>TRUE</ntsc>
						</rate>
						<duration>108</duration>
						<start>6324</start>
						<end>6432</end>
						<in>6324</in>
						<out>6432</out>
						<enabled>FALSE</enabled>
					</clipitem>
					<clipitem frameBlend="FALSE" id="clipitem-rejected-449">
						<file id="file-1"/>
						<name>[REJECTED] bandicam 2025-06-02 00-01-10-144</name>
						<rate>
							<timebase>60</timebase>
							<ntsc>TRUE</ntsc>
						</rate>
						<rate>
							<timebase>60</timebase>
							<ntsc>TRUE</ntsc>
						</rate>
						<duration>36</duration>
						<start>6444</start>
						<end>6480</end>
						<in>6444</in>
						<out>6480</out>
						<enabled>FALSE</enabled>
					</clipitem>
					<clipitem frameBlend="FALSE" id="clipitem-rejected-450">
						<file id="file-1"/>
						<name>[REJECTED] bandicam 2025-06-02 00-01-10-144</name>
						<rate>
							<timebase>60</timebase>
							<ntsc>TRUE</ntsc>
						</rate>
						<rate>
							<timebase>60</timebase>
							<ntsc>TRUE</ntsc>
						</rate>
						<duration>0</duration>
						<start>6492</start>
						<end>6492</end>
						<in>6492</in>
						<out>6492</out>
						<enabled>FALSE</enabled>
					</clipitem>
					<clipitem frameBlend="FALSE" id="clipitem-rejected-451">
						<file id="file-1"/>
						<name>[REJECTED] bandicam 2025-06-02 00-01-10-144</name>
						<rate>
							<timebase>60</timebase>
							<ntsc>TRUE</ntsc>
						</rate>
						<rate>
							<timebase>60</timebase>
							<ntsc>TRUE</ntsc>
						</rate>
						<duration>0</duration>
						<start>6528</start>
						<end>6528</end>
						<in>6528</in>
						<out>6528</out>
						<enabled>FALSE</enabled>
					</clipitem>
					<clipitem frameBlend="FALSE" id="clipitem-rejected-452">
						<file id="file-1"/>
						<name>[REJECTED] bandicam 2025-06-02 00-01-10-144</name>
						<rate>
							<timebase>60</timebase>
							<ntsc>TRUE</ntsc>
						</rate>
						<rate>
							<timebase>60</timebase>
							<ntsc>TRUE</ntsc>
						</rate>
						<duration>66</duration>
						<start>6540</start>
						<end>6606</end>
						<in>6540</in>
						<out>6606</out>
						<enabled>FALSE</enabled>
					</clipitem>
					<clipitem frameBlend="FALSE" id="clipitem-rejected-453">
						<file id="file-1"/>
						<name>[REJECTED] bandicam 2025-06-02 00-01-10-144</name>
						<rate>
							<timebase>60</timebase>
							<ntsc>TRUE</ntsc>
						</rate>
						<rate>
							<timebase>60</timebase>
							<ntsc>TRUE</ntsc>
						</rate>
						<duration>186</duration>
						<start>6624</start>
						<end>6810</end>
						<in>6624</in>
						<out>6810</out>
						<enabled>FALSE</enabled>
					</clipitem>
					<clipitem frameBlend="FALSE" id="clipitem-rejected-454">
						<file id="file-1"/>
						<name>[REJECTED] bandicam 2025-06-02 00-01-10-144</name>
						<rate>
							<timebase>60</timebase>
							<ntsc>TRUE</ntsc>
						</rate>
						<rate>
							<timebase>60</timebase>
							<ntsc>TRUE</ntsc>
						</rate>
						<duration>6</duration>
						<start>6822</start>
						<end>6828</end>
						<in>6822</in>
						<out>6828</out>
						<enabled>FALSE</enabled>
					</clipitem>
					<clipitem frameBlend="FALSE" id="clipitem-rejected-455">
						<file id="file-1"/>
						<name>[REJECTED] bandicam 2025-06-02 00-01-10-144</name>
						<rate>
							<timebase>60</timebase>
							<ntsc>TRUE</ntsc>
						</rate>
						<rate>
							<timebase>60</timebase>
							<ntsc>TRUE</ntsc>
						</rate>
						<duration>48</duration>
						<start>6840</start>
						<end>6888</end>
						<in>6840</in>
						<out>6888</out>
						<enabled>FALSE</enabled>
					</clipitem>
					<clipitem frameBlend="FALSE" id="clipitem-rejected-456">
						<file id="file-1"/>
						<name>[REJECTED] bandicam 2025-06-02 00-01-10-144</name>
						<rate>
							<timebase>60</timebase>
							<ntsc>TRUE</ntsc>
						</rate>
						<rate>
							<timebase>60</timebase>
							<ntsc>TRUE</ntsc>
						</rate>
						<duration>12</duration>
						<start>6900</start>
						<end>6912</end>
						<in>6900</in>
						<out>6912</out>
						<enabled>FALSE</enabled>
					</clipitem>
					<clipitem frameBlend="FALSE" id="clipitem-rejected-457">
						<file id="file-1"/>
						<name>[REJECTED] bandicam 2025-06-02 00-01-10-144</name>
						<rate>
							<timebase>60</timebase>
							<ntsc>TRUE</ntsc>
						</rate>
						<rate>
							<timebase>60</timebase>
							<ntsc>TRUE</ntsc>
						</rate>
						<duration>24</duration>
						<start>6924</start>
						<end>6948</end>
						<in>6924</in>
						<out>6948</out>
						<enabled>FALSE</enabled>
					</clipitem>
					<clipitem frameBlend="FALSE" id="clipitem-rejected-458">
						<file id="file-1"/>
						<name>[REJECTED] bandicam 2025-06-02 00-01-10-144</name>
						<rate>
							<timebase>60</timebase>
							<ntsc>TRUE</ntsc>
						</rate>
						<rate>
							<timebase>60</timebase>
							<ntsc>TRUE</ntsc>
						</rate>
						<duration>66</duration>
						<start>6960</start>
						<end>7026</end>
						<in>6960</in>
						<out>7026</out>
						<enabled>FALSE</enabled>
					</clipitem>
					<clipitem frameBlend="FALSE" id="clipitem-rejected-459">
						<file id="file-1"/>
						<name>[REJECTED] bandicam 2025-06-02 00-01-10-144</name>
						<rate>
							<timebase>60</timebase>
							<ntsc>TRUE</ntsc>
						</rate>
						<rate>
							<timebase>60</timebase>
							<ntsc>TRUE</ntsc>
						</rate>
						<duration>30</duration>
						<start>7038</start>
						<end>7068</end>
						<in>7038</in>
						<out>7068</out>
						<enabled>FALSE</enabled>
					</clipitem>
					<clipitem frameBlend="FALSE" id="clipitem-rejected-460">
						<file id="file-1"/>
						<name>[REJECTED] bandicam 2025-06-02 00-01-10-144</name>
						<rate>
							<timebase>60</timebase>
							<ntsc>TRUE</ntsc>
						</rate>
						<rate>
							<timebase>60</timebase>
							<ntsc>TRUE</ntsc>
						</rate>
						<duration>54</duration>
						<start>0</start>
						<end>54</end>
						<in>0</in>
						<out>54</out>
						<enabled>FALSE</enabled>
					</clipitem>
					<clipitem frameBlend="FALSE" id="clipitem-rejected-461">
						<file id="file-1"/>
						<name>[REJECTED] bandicam 2025-06-02 00-01-10-144</name>
						<rate>
							<timebase>60</timebase>
							<ntsc>TRUE</ntsc>
						</rate>
						<rate>
							<timebase>60</timebase>
							<ntsc>TRUE</ntsc>
						</rate>
						<duration>42</duration>
						<start>66</start>
						<end>108</end>
						<in>66</in>
						<out>108</out>
						<enabled>FALSE</enabled>
					</clipitem>
					<clipitem frameBlend="FALSE" id="clipitem-rejected-462">
						<file id="file-1"/>
						<name>[REJECTED] bandicam 2025-06-02 00-01-10-144</name>
						<rate>
							<timebase>60</timebase>
							<ntsc>TRUE</ntsc>
						</rate>
						<rate>
							<timebase>60</timebase>
							<ntsc>TRUE</ntsc>
						</rate>
						<duration>312</duration>
						<start>132</start>
						<end>444</end>
						<in>132</in>
						<out>444</out>
						<enabled>FALSE</enabled>
					</clipitem>
					<clipitem frameBlend="FALSE" id="clipitem-rejected-463">
						<file id="file-1"/>
						<name>[REJECTED] bandicam 2025-06-02 00-01-10-144</name>
						<rate>
							<timebase>60</timebase>
							<ntsc>TRUE</ntsc>
						</rate>
						<rate>
							<timebase>60</timebase>
							<ntsc>TRUE</ntsc>
						</rate>
						<duration>102</duration>
						<start>474</start>
						<end>576</end>
						<in>474</in>
						<out>576</out>
						<enabled>FALSE</enabled>
					</clipitem>
					<clipitem frameBlend="FALSE" id="clipitem-rejected-464">
						<file id="file-1"/>
						<name>[REJECTED] bandicam 2025-06-02 00-01-10-144</name>
						<rate>
							<timebase>60</timebase>
							<ntsc>TRUE</ntsc>
						</rate>
						<rate>
							<timebase>60</timebase>
							<ntsc>TRUE</ntsc>
						</rate>
						<duration>810</duration>
						<start>594</start>
						<end>1404</end>
						<in>594</in>
						<out>1404</out>
						<enabled>FALSE</enabled>
					</clipitem>
					<clipitem frameBlend="FALSE" id="clipitem-rejected-465">
						<file id="file-1"/>
						<name>[REJECTED] bandicam 2025-06-02 00-01-10-144</name>
						<rate>
							<timebase>60</timebase>
							<ntsc>TRUE</ntsc>
						</rate>
						<rate>
							<timebase>60</timebase>
							<ntsc>TRUE</ntsc>
						</rate>
						<duration>264</duration>
						<start>1422</start>
						<end>1686</end>
						<in>1422</in>
						<out>1686</out>
						<enabled>FALSE</enabled>
					</clipitem>
					<clipitem frameBlend="FALSE" id="clipitem-rejected-466">
						<file id="file-1"/>
						<name>[REJECTED] bandicam 2025-06-02 00-01-10-144</name>
						<rate>
							<timebase>60</timebase>
							<ntsc>TRUE</ntsc>
						</rate>
						<rate>
							<timebase>60</timebase>
							<ntsc>TRUE</ntsc>
						</rate>
						<duration>0</duration>
						<start>1698</start>
						<end>1698</end>
						<in>1698</in>
						<out>1698</out>
						<enabled>FALSE</enabled>
					</clipitem>
					<clipitem frameBlend="FALSE" id="clipitem-rejected-467">
						<file id="file-1"/>
						<name>[REJECTED] bandicam 2025-06-02 00-01-10-144</name>
						<rate>
							<timebase>60</timebase>
							<ntsc>TRUE</ntsc>
						</rate>
						<rate>
							<timebase>60</timebase>
							<ntsc>TRUE</ntsc>
						</rate>
						<duration>24</duration>
						<start>1716</start>
						<end>1740</end>
						<in>1716</in>
						<out>1740</out>
						<enabled>FALSE</enabled>
					</clipitem>
					<clipitem frameBlend="FALSE" id="clipitem-rejected-468">
						<file id="file-1"/>
						<name>[REJECTED] bandicam 2025-06-02 00-01-10-144</name>
						<rate>
							<timebase>60</timebase>
							<ntsc>TRUE</ntsc>
						</rate>
						<rate>
							<timebase>60</timebase>
							<ntsc>TRUE</ntsc>
						</rate>
						<duration>6</duration>
						<start>1764</start>
						<end>1770</end>
						<in>1764</in>
						<out>1770</out>
						<enabled>FALSE</enabled>
					</clipitem>
					<clipitem frameBlend="FALSE" id="clipitem-rejected-469">
						<file id="file-1"/>
						<name>[REJECTED] bandicam 2025-06-02 00-01-10-144</name>
						<rate>
							<timebase>60</timebase>
							<ntsc>TRUE</ntsc>
						</rate>
						<rate>
							<timebase>60</timebase>
							<ntsc>TRUE</ntsc>
						</rate>
						<duration>24</duration>
						<start>1782</start>
						<end>1806</end>
						<in>1782</in>
						<out>1806</out>
						<enabled>FALSE</enabled>
					</clipitem>
					<clipitem frameBlend="FALSE" id="clipitem-rejected-470">
						<file id="file-1"/>
						<name>[REJECTED] bandicam 2025-06-02 00-01-10-144</name>
						<rate>
							<timebase>60</timebase>
							<ntsc>TRUE</ntsc>
						</rate>
						<rate>
							<timebase>60</timebase>
							<ntsc>TRUE</ntsc>
						</rate>
						<duration>24</duration>
						<start>1818</start>
						<end>1842</end>
						<in>1818</in>
						<out>1842</out>
						<enabled>FALSE</enabled>
					</clipitem>
					<clipitem frameBlend="FALSE" id="clipitem-rejected-471">
						<file id="file-1"/>
						<name>[REJECTED] bandicam 2025-06-02 00-01-10-144</name>
						<rate>
							<timebase>60</timebase>
							<ntsc>TRUE</ntsc>
						</rate>
						<rate>
							<timebase>60</timebase>
							<ntsc>TRUE</ntsc>
						</rate>
						<duration>18</duration>
						<start>1860</start>
						<end>1878</end>
						<in>1860</in>
						<out>1878</out>
						<enabled>FALSE</enabled>
					</clipitem>
					<clipitem frameBlend="FALSE" id="clipitem-rejected-472">
						<file id="file-1"/>
						<name>[REJECTED] bandicam 2025-06-02 00-01-10-144</name>
						<rate>
							<timebase>60</timebase>
							<ntsc>TRUE</ntsc>
						</rate>
						<rate>
							<timebase>60</timebase>
							<ntsc>TRUE</ntsc>
						</rate>
						<duration>390</duration>
						<start>1896</start>
						<end>2286</end>
						<in>1896</in>
						<out>2286</out>
						<enabled>FALSE</enabled>
					</clipitem>
					<clipitem frameBlend="FALSE" id="clipitem-rejected-473">
						<file id="file-1"/>
						<name>[REJECTED] bandicam 2025-06-02 00-01-10-144</name>
						<rate>
							<timebase>60</timebase>
							<ntsc>TRUE</ntsc>
						</rate>
						<rate>
							<timebase>60</timebase>
							<ntsc>TRUE</ntsc>
						</rate>
						<duration>6</duration>
						<start>2298</start>
						<end>2304</end>
						<in>2298</in>
						<out>2304</out>
						<enabled>FALSE</enabled>
					</clipitem>
					<clipitem frameBlend="FALSE" id="clipitem-rejected-474">
						<file id="file-1"/>
						<name>[REJECTED] bandicam 2025-06-02 00-01-10-144</name>
						<rate>
							<timebase>60</timebase>
							<ntsc>TRUE</ntsc>
						</rate>
						<rate>
							<timebase>60</timebase>
							<ntsc>TRUE</ntsc>
						</rate>
						<duration>114</duration>
						<start>2328</start>
						<end>2442</end>
						<in>2328</in>
						<out>2442</out>
						<enabled>FALSE</enabled>
					</clipitem>
					<clipitem frameBlend="FALSE" id="clipitem-rejected-475">
						<file id="file-1"/>
						<name>[REJECTED] bandicam 2025-06-02 00-01-10-144</name>
						<rate>
							<timebase>60</timebase>
							<ntsc>TRUE</ntsc>
						</rate>
						<rate>
							<timebase>60</timebase>
							<ntsc>TRUE</ntsc>
						</rate>
						<duration>276</duration>
						<start>2460</start>
						<end>2736</end>
						<in>2460</in>
						<out>2736</out>
						<enabled>FALSE</enabled>
					</clipitem>
					<clipitem frameBlend="FALSE" id="clipitem-rejected-476">
						<file id="file-1"/>
						<name>[REJECTED] bandicam 2025-06-02 00-01-10-144</name>
						<rate>
							<timebase>60</timebase>
							<ntsc>TRUE</ntsc>
						</rate>
						<rate>
							<timebase>60</timebase>
							<ntsc>TRUE</ntsc>
						</rate>
						<duration>0</duration>
						<start>2760</start>
						<end>2760</end>
						<in>2760</in>
						<out>2760</out>
						<enabled>FALSE</enabled>
					</clipitem>
					<clipitem frameBlend="FALSE" id="clipitem-rejected-477">
						<file id="file-1"/>
						<name>[REJECTED] bandicam 2025-06-02 00-01-10-144</name>
						<rate>
							<timebase>60</timebase>
							<ntsc>TRUE</ntsc>
						</rate>
						<rate>
							<timebase>60</timebase>
							<ntsc>TRUE</ntsc>
						</rate>
						<duration>18</duration>
						<start>2778</start>
						<end>2796</end>
						<in>2778</in>
						<out>2796</out>
						<enabled>FALSE</enabled>
					</clipitem>
					<clipitem frameBlend="FALSE" id="clipitem-rejected-478">
						<file id="file-1"/>
						<name>[REJECTED] bandicam 2025-06-02 00-01-10-144</name>
						<rate>
							<timebase>60</timebase>
							<ntsc>TRUE</ntsc>
						</rate>
						<rate>
							<timebase>60</timebase>
							<ntsc>TRUE</ntsc>
						</rate>
						<duration>228</duration>
						<start>2826</start>
						<end>3054</end>
						<in>2826</in>
						<out>3054</out>
						<enabled>FALSE</enabled>
					</clipitem>
					<clipitem frameBlend="FALSE" id="clipitem-rejected-479">
						<file id="file-1"/>
						<name>[REJECTED] bandicam 2025-06-02 00-01-10-144</name>
						<rate>
							<timebase>60</timebase>
							<ntsc>TRUE</ntsc>
						</rate>
						<rate>
							<timebase>60</timebase>
							<ntsc>TRUE</ntsc>
						</rate>
						<duration>156</duration>
						<start>3108</start>
						<end>3264</end>
						<in>3108</in>
						<out>3264</out>
						<enabled>FALSE</enabled>
					</clipitem>
					<clipitem frameBlend="FALSE" id="clipitem-rejected-480">
						<file id="file-1"/>
						<name>[REJECTED] bandicam 2025-06-02 00-01-10-144</name>
						<rate>
							<timebase>60</timebase>
							<ntsc>TRUE</ntsc>
						</rate>
						<rate>
							<timebase>60</timebase>
							<ntsc>TRUE</ntsc>
						</rate>
						<duration>150</duration>
						<start>3300</start>
						<end>3450</end>
						<in>3300</in>
						<out>3450</out>
						<enabled>FALSE</enabled>
					</clipitem>
					<clipitem frameBlend="FALSE" id="clipitem-rejected-481">
						<file id="file-1"/>
						<name>[REJECTED] bandicam 2025-06-02 00-01-10-144</name>
						<rate>
							<timebase>60</timebase>
							<ntsc>TRUE</ntsc>
						</rate>
						<rate>
							<timebase>60</timebase>
							<ntsc>TRUE</ntsc>
						</rate>
						<duration>138</duration>
						<start>3480</start>
						<end>3618</end>
						<in>3480</in>
						<out>3618</out>
						<enabled>FALSE</enabled>
					</clipitem>
					<clipitem frameBlend="FALSE" id="clipitem-rejected-482">
						<file id="file-1"/>
						<name>[REJECTED] bandicam 2025-06-02 00-01-10-144</name>
						<rate>
							<timebase>60</timebase>
							<ntsc>TRUE</ntsc>
						</rate>
						<rate>
							<timebase>60</timebase>
							<ntsc>TRUE</ntsc>
						</rate>
						<duration>432</duration>
						<start>3648</start>
						<end>4080</end>
						<in>3648</in>
						<out>4080</out>
						<enabled>FALSE</enabled>
					</clipitem>
					<clipitem frameBlend="FALSE" id="clipitem-rejected-483">
						<file id="file-1"/>
						<name>[REJECTED] bandicam 2025-06-02 00-01-10-144</name>
						<rate>
							<timebase>60</timebase>
							<ntsc>TRUE</ntsc>
						</rate>
						<rate>
							<timebase>60</timebase>
							<ntsc>TRUE</ntsc>
						</rate>
						<duration>0</duration>
						<start>4098</start>
						<end>4098</end>
						<in>4098</in>
						<out>4098</out>
						<enabled>FALSE</enabled>
					</clipitem>
					<clipitem frameBlend="FALSE" id="clipitem-rejected-484">
						<file id="file-1"/>
						<name>[REJECTED] bandicam 2025-06-02 00-01-10-144</name>
						<rate>
							<timebase>60</timebase>
							<ntsc>TRUE</ntsc>
						</rate>
						<rate>
							<timebase>60</timebase>
							<ntsc>TRUE</ntsc>
						</rate>
						<duration>12</duration>
						<start>4116</start>
						<end>4128</end>
						<in>4116</in>
						<out>4128</out>
						<enabled>FALSE</enabled>
					</clipitem>
					<clipitem frameBlend="FALSE" id="clipitem-rejected-485">
						<file id="file-1"/>
						<name>[REJECTED] bandicam 2025-06-02 00-01-10-144</name>
						<rate>
							<timebase>60</timebase>
							<ntsc>TRUE</ntsc>
						</rate>
						<rate>
							<timebase>60</timebase>
							<ntsc>TRUE</ntsc>
						</rate>
						<duration>42</duration>
						<start>4140</start>
						<end>4182</end>
						<in>4140</in>
						<out>4182</out>
						<enabled>FALSE</enabled>
					</clipitem>
					<clipitem frameBlend="FALSE" id="clipitem-rejected-486">
						<file id="file-1"/>
						<name>[REJECTED] bandicam 2025-06-02 00-01-10-144</name>
						<rate>
							<timebase>60</timebase>
							<ntsc>TRUE</ntsc>
						</rate>
						<rate>
							<timebase>60</timebase>
							<ntsc>TRUE</ntsc>
						</rate>
						<duration>24</duration>
						<start>4200</start>
						<end>4224</end>
						<in>4200</in>
						<out>4224</out>
						<enabled>FALSE</enabled>
					</clipitem>
					<clipitem frameBlend="FALSE" id="clipitem-rejected-487">
						<file id="file-1"/>
						<name>[REJECTED] bandicam 2025-06-02 00-01-10-144</name>
						<rate>
							<timebase>60</timebase>
							<ntsc>TRUE</ntsc>
						</rate>
						<rate>
							<timebase>60</timebase>
							<ntsc>TRUE</ntsc>
						</rate>
						<duration>0</duration>
						<start>4236</start>
						<end>4236</end>
						<in>4236</in>
						<out>4236</out>
						<enabled>FALSE</enabled>
					</clipitem>
					<clipitem frameBlend="FALSE" id="clipitem-rejected-488">
						<file id="file-1"/>
						<name>[REJECTED] bandicam 2025-06-02 00-01-10-144</name>
						<rate>
							<timebase>60</timebase>
							<ntsc>TRUE</ntsc>
						</rate>
						<rate>
							<timebase>60</timebase>
							<ntsc>TRUE</ntsc>
						</rate>
						<duration>42</duration>
						<start>4254</start>
						<end>4296</end>
						<in>4254</in>
						<out>4296</out>
						<enabled>FALSE</enabled>
					</clipitem>
					<clipitem frameBlend="FALSE" id="clipitem-rejected-489">
						<file id="file-1"/>
						<name>[REJECTED] bandicam 2025-06-02 00-01-10-144</name>
						<rate>
							<timebase>60</timebase>
							<ntsc>TRUE</ntsc>
						</rate>
						<rate>
							<timebase>60</timebase>
							<ntsc>TRUE</ntsc>
						</rate>
						<duration>12</duration>
						<start>4374</start>
						<end>4386</end>
						<in>4374</in>
						<out>4386</out>
						<enabled>FALSE</enabled>
					</clipitem>
					<clipitem frameBlend="FALSE" id="clipitem-rejected-490">
						<file id="file-1"/>
						<name>[REJECTED] bandicam 2025-06-02 00-01-10-144</name>
						<rate>
							<timebase>60</timebase>
							<ntsc>TRUE</ntsc>
						</rate>
						<rate>
							<timebase>60</timebase>
							<ntsc>TRUE</ntsc>
						</rate>
						<duration>60</duration>
						<start>4440</start>
						<end>4500</end>
						<in>4440</in>
						<out>4500</out>
						<enabled>FALSE</enabled>
					</clipitem>
					<clipitem frameBlend="FALSE" id="clipitem-rejected-491">
						<file id="file-1"/>
						<name>[REJECTED] bandicam 2025-06-02 00-01-10-144</name>
						<rate>
							<timebase>60</timebase>
							<ntsc>TRUE</ntsc>
						</rate>
						<rate>
							<timebase>60</timebase>
							<ntsc>TRUE</ntsc>
						</rate>
						<duration>6</duration>
						<start>4530</start>
						<end>4536</end>
						<in>4530</in>
						<out>4536</out>
						<enabled>FALSE</enabled>
					</clipitem>
					<clipitem frameBlend="FALSE" id="clipitem-rejected-492">
						<file id="file-1"/>
						<name>[REJECTED] bandicam 2025-06-02 00-01-10-144</name>
						<rate>
							<timebase>60</timebase>
							<ntsc>TRUE</ntsc>
						</rate>
						<rate>
							<timebase>60</timebase>
							<ntsc>TRUE</ntsc>
						</rate>
						<duration>36</duration>
						<start>4560</start>
						<end>4596</end>
						<in>4560</in>
						<out>4596</out>
						<enabled>FALSE</enabled>
					</clipitem>
					<clipitem frameBlend="FALSE" id="clipitem-rejected-493">
						<file id="file-1"/>
						<name>[REJECTED] bandicam 2025-06-02 00-01-10-144</name>
						<rate>
							<timebase>60</timebase>
							<ntsc>TRUE</ntsc>
						</rate>
						<rate>
							<timebase>60</timebase>
							<ntsc>TRUE</ntsc>
						</rate>
						<duration>66</duration>
						<start>4632</start>
						<end>4698</end>
						<in>4632</in>
						<out>4698</out>
						<enabled>FALSE</enabled>
					</clipitem>
					<clipitem frameBlend="FALSE" id="clipitem-rejected-494">
						<file id="file-1"/>
						<name>[REJECTED] bandicam 2025-06-02 00-01-10-144</name>
						<rate>
							<timebase>60</timebase>
							<ntsc>TRUE</ntsc>
						</rate>
						<rate>
							<timebase>60</timebase>
							<ntsc>TRUE</ntsc>
						</rate>
						<duration>6</duration>
						<start>4710</start>
						<end>4716</end>
						<in>4710</in>
						<out>4716</out>
						<enabled>FALSE</enabled>
					</clipitem>
					<clipitem frameBlend="FALSE" id="clipitem-rejected-495">
						<file id="file-1"/>
						<name>[REJECTED] bandicam 2025-06-02 00-01-10-144</name>
						<rate>
							<timebase>60</timebase>
							<ntsc>TRUE</ntsc>
						</rate>
						<rate>
							<timebase>60</timebase>
							<ntsc>TRUE</ntsc>
						</rate>
						<duration>78</duration>
						<start>4776</start>
						<end>4854</end>
						<in>4776</in>
						<out>4854</out>
						<enabled>FALSE</enabled>
					</clipitem>
					<clipitem frameBlend="FALSE" id="clipitem-rejected-496">
						<file id="file-1"/>
						<name>[REJECTED] bandicam 2025-06-02 00-01-10-144</name>
						<rate>
							<timebase>60</timebase>
							<ntsc>TRUE</ntsc>
						</rate>
						<rate>
							<timebase>60</timebase>
							<ntsc>TRUE</ntsc>
						</rate>
						<duration>90</duration>
						<start>4872</start>
						<end>4962</end>
						<in>4872</in>
						<out>4962</out>
						<enabled>FALSE</enabled>
					</clipitem>
					<clipitem frameBlend="FALSE" id="clipitem-rejected-497">
						<file id="file-1"/>
						<name>[REJECTED] bandicam 2025-06-02 00-01-10-144</name>
						<rate>
							<timebase>60</timebase>
							<ntsc>TRUE</ntsc>
						</rate>
						<rate>
							<timebase>60</timebase>
							<ntsc>TRUE</ntsc>
						</rate>
						<duration>126</duration>
						<start>4980</start>
						<end>5106</end>
						<in>4980</in>
						<out>5106</out>
						<enabled>FALSE</enabled>
					</clipitem>
					<clipitem frameBlend="FALSE" id="clipitem-rejected-498">
						<file id="file-1"/>
						<name>[REJECTED] bandicam 2025-06-02 00-01-10-144</name>
						<rate>
							<timebase>60</timebase>
							<ntsc>TRUE</ntsc>
						</rate>
						<rate>
							<timebase>60</timebase>
							<ntsc>TRUE</ntsc>
						</rate>
						<duration>12</duration>
						<start>5124</start>
						<end>5136</end>
						<in>5124</in>
						<out>5136</out>
						<enabled>FALSE</enabled>
					</clipitem>
					<clipitem frameBlend="FALSE" id="clipitem-rejected-499">
						<file id="file-1"/>
						<name>[REJECTED] bandicam 2025-06-02 00-01-10-144</name>
						<rate>
							<timebase>60</timebase>
							<ntsc>TRUE</ntsc>
						</rate>
						<rate>
							<timebase>60</timebase>
							<ntsc>TRUE</ntsc>
						</rate>
						<duration>0</duration>
						<start>5154</start>
						<end>5154</end>
						<in>5154</in>
						<out>5154</out>
						<enabled>FALSE</enabled>
					</clipitem>
					<clipitem frameBlend="FALSE" id="clipitem-rejected-500">
						<file id="file-1"/>
						<name>[REJECTED] bandicam 2025-06-02 00-01-10-144</name>
						<rate>
							<timebase>60</timebase>
							<ntsc>TRUE</ntsc>
						</rate>
						<rate>
							<timebase>60</timebase>
							<ntsc>TRUE</ntsc>
						</rate>
						<duration>138</duration>
						<start>5184</start>
						<end>5322</end>
						<in>5184</in>
						<out>5322</out>
						<enabled>FALSE</enabled>
					</clipitem>
					<clipitem frameBlend="FALSE" id="clipitem-rejected-501">
						<file id="file-1"/>
						<name>[REJECTED] bandicam 2025-06-02 00-01-10-144</name>
						<rate>
							<timebase>60</timebase>
							<ntsc>TRUE</ntsc>
						</rate>
						<rate>
							<timebase>60</timebase>
							<ntsc>TRUE</ntsc>
						</rate>
						<duration>60</duration>
						<start>5346</start>
						<end>5406</end>
						<in>5346</in>
						<out>5406</out>
						<enabled>FALSE</enabled>
					</clipitem>
					<clipitem frameBlend="FALSE" id="clipitem-rejected-502">
						<file id="file-1"/>
						<name>[REJECTED] bandicam 2025-06-02 00-01-10-144</name>
						<rate>
							<timebase>60</timebase>
							<ntsc>TRUE</ntsc>
						</rate>
						<rate>
							<timebase>60</timebase>
							<ntsc>TRUE</ntsc>
						</rate>
						<duration>12</duration>
						<start>5430</start>
						<end>5442</end>
						<in>5430</in>
						<out>5442</out>
						<enabled>FALSE</enabled>
					</clipitem>
					<clipitem frameBlend="FALSE" id="clipitem-rejected-503">
						<file id="file-1"/>
						<name>[REJECTED] bandicam 2025-06-02 00-01-10-144</name>
						<rate>
							<timebase>60</timebase>
							<ntsc>TRUE</ntsc>
						</rate>
						<rate>
							<timebase>60</timebase>
							<ntsc>TRUE</ntsc>
						</rate>
						<duration>132</duration>
						<start>5454</start>
						<end>5586</end>
						<in>5454</in>
						<out>5586</out>
						<enabled>FALSE</enabled>
					</clipitem>
					<clipitem frameBlend="FALSE" id="clipitem-rejected-504">
						<file id="file-1"/>
						<name>[REJECTED] bandicam 2025-06-02 00-01-10-144</name>
						<rate>
							<timebase>60</timebase>
							<ntsc>TRUE</ntsc>
						</rate>
						<rate>
							<timebase>60</timebase>
							<ntsc>TRUE</ntsc>
						</rate>
						<duration>24</duration>
						<start>5598</start>
						<end>5622</end>
						<in>5598</in>
						<out>5622</out>
						<enabled>FALSE</enabled>
					</clipitem>
					<clipitem frameBlend="FALSE" id="clipitem-rejected-505">
						<file id="file-1"/>
						<name>[REJECTED] bandicam 2025-06-02 00-01-10-144</name>
						<rate>
							<timebase>60</timebase>
							<ntsc>TRUE</ntsc>
						</rate>
						<rate>
							<timebase>60</timebase>
							<ntsc>TRUE</ntsc>
						</rate>
						<duration>30</duration>
						<start>5634</start>
						<end>5664</end>
						<in>5634</in>
						<out>5664</out>
						<enabled>FALSE</enabled>
					</clipitem>
					<clipitem frameBlend="FALSE" id="clipitem-rejected-506">
						<file id="file-1"/>
						<name>[REJECTED] bandicam 2025-06-02 00-01-10-144</name>
						<rate>
							<timebase>60</timebase>
							<ntsc>TRUE</ntsc>
						</rate>
						<rate>
							<timebase>60</timebase>
							<ntsc>TRUE</ntsc>
						</rate>
						<duration>60</duration>
						<start>5694</start>
						<end>5754</end>
						<in>5694</in>
						<out>5754</out>
						<enabled>FALSE</enabled>
					</clipitem>
					<clipitem frameBlend="FALSE" id="clipitem-rejected-507">
						<file id="file-1"/>
						<name>[REJECTED] bandicam 2025-06-02 00-01-10-144</name>
						<rate>
							<timebase>60</timebase>
							<ntsc>TRUE</ntsc>
						</rate>
						<rate>
							<timebase>60</timebase>
							<ntsc>TRUE</ntsc>
						</rate>
						<duration>12</duration>
						<start>5784</start>
						<end>5796</end>
						<in>5784</in>
						<out>5796</out>
						<enabled>FALSE</enabled>
					</clipitem>
					<clipitem frameBlend="FALSE" id="clipitem-rejected-508">
						<file id="file-1"/>
						<name>[REJECTED] bandicam 2025-06-02 00-01-10-144</name>
						<rate>
							<timebase>60</timebase>
							<ntsc>TRUE</ntsc>
						</rate>
						<rate>
							<timebase>60</timebase>
							<ntsc>TRUE</ntsc>
						</rate>
						<duration>24</duration>
						<start>5880</start>
						<end>5904</end>
						<in>5880</in>
						<out>5904</out>
						<enabled>FALSE</enabled>
					</clipitem>
					<clipitem frameBlend="FALSE" id="clipitem-rejected-509">
						<file id="file-1"/>
						<name>[REJECTED] bandicam 2025-06-02 00-01-10-144</name>
						<rate>
							<timebase>60</timebase>
							<ntsc>TRUE</ntsc>
						</rate>
						<rate>
							<timebase>60</timebase>
							<ntsc>TRUE</ntsc>
						</rate>
						<duration>30</duration>
						<start>5964</start>
						<end>5994</end>
						<in>5964</in>
						<out>5994</out>
						<enabled>FALSE</enabled>
					</clipitem>
					<clipitem frameBlend="FALSE" id="clipitem-rejected-510">
						<file id="file-1"/>
						<name>[REJECTED] bandicam 2025-06-02 00-01-10-144</name>
						<rate>
							<timebase>60</timebase>
							<ntsc>TRUE</ntsc>
						</rate>
						<rate>
							<timebase>60</timebase>
							<ntsc>TRUE</ntsc>
						</rate>
						<duration>0</duration>
						<start>6006</start>
						<end>6006</end>
						<in>6006</in>
						<out>6006</out>
						<enabled>FALSE</enabled>
					</clipitem>
					<clipitem frameBlend="FALSE" id="clipitem-rejected-511">
						<file id="file-1"/>
						<name>[REJECTED] bandicam 2025-06-02 00-01-10-144</name>
						<rate>
							<timebase>60</timebase>
							<ntsc>TRUE</ntsc>
						</rate>
						<rate>
							<timebase>60</timebase>
							<ntsc>TRUE</ntsc>
						</rate>
						<duration>108</duration>
						<start>6042</start>
						<end>6150</end>
						<in>6042</in>
						<out>6150</out>
						<enabled>FALSE</enabled>
					</clipitem>
					<clipitem frameBlend="FALSE" id="clipitem-rejected-512">
						<file id="file-1"/>
						<name>[REJECTED] bandicam 2025-06-02 00-01-10-144</name>
						<rate>
							<timebase>60</timebase>
							<ntsc>TRUE</ntsc>
						</rate>
						<rate>
							<timebase>60</timebase>
							<ntsc>TRUE</ntsc>
						</rate>
						<duration>42</duration>
						<start>6186</start>
						<end>6228</end>
						<in>6186</in>
						<out>6228</out>
						<enabled>FALSE</enabled>
					</clipitem>
					<clipitem frameBlend="FALSE" id="clipitem-rejected-513">
						<file id="file-1"/>
						<name>[REJECTED] bandicam 2025-06-02 00-01-10-144</name>
						<rate>
							<timebase>60</timebase>
							<ntsc>TRUE</ntsc>
						</rate>
						<rate>
							<timebase>60</timebase>
							<ntsc>TRUE</ntsc>
						</rate>
						<duration>0</duration>
						<start>6246</start>
						<end>6246</end>
						<in>6246</in>
						<out>6246</out>
						<enabled>FALSE</enabled>
					</clipitem>
					<clipitem frameBlend="FALSE" id="clipitem-rejected-514">
						<file id="file-1"/>
						<name>[REJECTED] bandicam 2025-06-02 00-01-10-144</name>
						<rate>
							<timebase>60</timebase>
							<ntsc>TRUE</ntsc>
						</rate>
						<rate>
							<timebase>60</timebase>
							<ntsc>TRUE</ntsc>
						</rate>
						<duration>234</duration>
						<start>6258</start>
						<end>6492</end>
						<in>6258</in>
						<out>6492</out>
						<enabled>FALSE</enabled>
					</clipitem>
					<clipitem frameBlend="FALSE" id="clipitem-rejected-515">
						<file id="file-1"/>
						<name>[REJECTED] bandicam 2025-06-02 00-01-10-144</name>
						<rate>
							<timebase>60</timebase>
							<ntsc>TRUE</ntsc>
						</rate>
						<rate>
							<timebase>60</timebase>
							<ntsc>TRUE</ntsc>
						</rate>
						<duration>360</duration>
						<start>6528</start>
						<end>6888</end>
						<in>6528</in>
						<out>6888</out>
						<enabled>FALSE</enabled>
					</clipitem>
					<clipitem frameBlend="FALSE" id="clipitem-rejected-516">
						<file id="file-1"/>
						<name>[REJECTED] bandicam 2025-06-02 00-01-10-144</name>
						<rate>
							<timebase>60</timebase>
							<ntsc>TRUE</ntsc>
						</rate>
						<rate>
							<timebase>60</timebase>
							<ntsc>TRUE</ntsc>
						</rate>
						<duration>48</duration>
						<start>6900</start>
						<end>6948</end>
						<in>6900</in>
						<out>6948</out>
						<enabled>FALSE</enabled>
					</clipitem>
					<clipitem frameBlend="FALSE" id="clipitem-rejected-517">
						<file id="file-1"/>
						<name>[REJECTED] bandicam 2025-06-02 00-01-10-144</name>
						<rate>
							<timebase>60</timebase>
							<ntsc>TRUE</ntsc>
						</rate>
						<rate>
							<timebase>60</timebase>
							<ntsc>TRUE</ntsc>
						</rate>
						<duration>108</duration>
						<start>6960</start>
						<end>7068</end>
						<in>6960</in>
						<out>7068</out>
						<enabled>FALSE</enabled>
					</clipitem>
					<clipitem frameBlend="FALSE" id="clipitem-rejected-518">
						<file id="file-1"/>
						<name>[REJECTED] bandicam 2025-06-02 00-01-10-144</name>
						<rate>
							<timebase>60</timebase>
							<ntsc>TRUE</ntsc>
						</rate>
						<rate>
							<timebase>60</timebase>
							<ntsc>TRUE</ntsc>
						</rate>
						<duration>54</duration>
						<start>0</start>
						<end>54</end>
						<in>0</in>
						<out>54</out>
						<enabled>FALSE</enabled>
					</clipitem>
					<clipitem frameBlend="FALSE" id="clipitem-rejected-519">
						<file id="file-1"/>
						<name>[REJECTED] bandicam 2025-06-02 00-01-10-144</name>
						<rate>
							<timebase>60</timebase>
							<ntsc>TRUE</ntsc>
						</rate>
						<rate>
							<timebase>60</timebase>
							<ntsc>TRUE</ntsc>
						</rate>
						<duration>42</duration>
						<start>66</start>
						<end>108</end>
						<in>66</in>
						<out>108</out>
						<enabled>FALSE</enabled>
					</clipitem>
					<clipitem frameBlend="FALSE" id="clipitem-rejected-520">
						<file id="file-1"/>
						<name>[REJECTED] bandicam 2025-06-02 00-01-10-144</name>
						<rate>
							<timebase>60</timebase>
							<ntsc>TRUE</ntsc>
						</rate>
						<rate>
							<timebase>60</timebase>
							<ntsc>TRUE</ntsc>
						</rate>
						<duration>312</duration>
						<start>132</start>
						<end>444</end>
						<in>132</in>
						<out>444</out>
						<enabled>FALSE</enabled>
					</clipitem>
					<clipitem frameBlend="FALSE" id="clipitem-rejected-521">
						<file id="file-1"/>
						<name>[REJECTED] bandicam 2025-06-02 00-01-10-144</name>
						<rate>
							<timebase>60</timebase>
							<ntsc>TRUE</ntsc>
						</rate>
						<rate>
							<timebase>60</timebase>
							<ntsc>TRUE</ntsc>
						</rate>
						<duration>102</duration>
						<start>474</start>
						<end>576</end>
						<in>474</in>
						<out>576</out>
						<enabled>FALSE</enabled>
					</clipitem>
					<clipitem frameBlend="FALSE" id="clipitem-rejected-522">
						<file id="file-1"/>
						<name>[REJECTED] bandicam 2025-06-02 00-01-10-144</name>
						<rate>
							<timebase>60</timebase>
							<ntsc>TRUE</ntsc>
						</rate>
						<rate>
							<timebase>60</timebase>
							<ntsc>TRUE</ntsc>
						</rate>
						<duration>810</duration>
						<start>594</start>
						<end>1404</end>
						<in>594</in>
						<out>1404</out>
						<enabled>FALSE</enabled>
					</clipitem>
					<clipitem frameBlend="FALSE" id="clipitem-rejected-523">
						<file id="file-1"/>
						<name>[REJECTED] bandicam 2025-06-02 00-01-10-144</name>
						<rate>
							<timebase>60</timebase>
							<ntsc>TRUE</ntsc>
						</rate>
						<rate>
							<timebase>60</timebase>
							<ntsc>TRUE</ntsc>
						</rate>
						<duration>264</duration>
						<start>1422</start>
						<end>1686</end>
						<in>1422</in>
						<out>1686</out>
						<enabled>FALSE</enabled>
					</clipitem>
					<clipitem frameBlend="FALSE" id="clipitem-rejected-524">
						<file id="file-1"/>
						<name>[REJECTED] bandicam 2025-06-02 00-01-10-144</name>
						<rate>
							<timebase>60</timebase>
							<ntsc>TRUE</ntsc>
						</rate>
						<rate>
							<timebase>60</timebase>
							<ntsc>TRUE</ntsc>
						</rate>
						<duration>0</duration>
						<start>1698</start>
						<end>1698</end>
						<in>1698</in>
						<out>1698</out>
						<enabled>FALSE</enabled>
					</clipitem>
					<clipitem frameBlend="FALSE" id="clipitem-rejected-525">
						<file id="file-1"/>
						<name>[REJECTED] bandicam 2025-06-02 00-01-10-144</name>
						<rate>
							<timebase>60</timebase>
							<ntsc>TRUE</ntsc>
						</rate>
						<rate>
							<timebase>60</timebase>
							<ntsc>TRUE</ntsc>
						</rate>
						<duration>24</duration>
						<start>1716</start>
						<end>1740</end>
						<in>1716</in>
						<out>1740</out>
						<enabled>FALSE</enabled>
					</clipitem>
					<clipitem frameBlend="FALSE" id="clipitem-rejected-526">
						<file id="file-1"/>
						<name>[REJECTED] bandicam 2025-06-02 00-01-10-144</name>
						<rate>
							<timebase>60</timebase>
							<ntsc>TRUE</ntsc>
						</rate>
						<rate>
							<timebase>60</timebase>
							<ntsc>TRUE</ntsc>
						</rate>
						<duration>6</duration>
						<start>1764</start>
						<end>1770</end>
						<in>1764</in>
						<out>1770</out>
						<enabled>FALSE</enabled>
					</clipitem>
					<clipitem frameBlend="FALSE" id="clipitem-rejected-527">
						<file id="file-1"/>
						<name>[REJECTED] bandicam 2025-06-02 00-01-10-144</name>
						<rate>
							<timebase>60</timebase>
							<ntsc>TRUE</ntsc>
						</rate>
						<rate>
							<timebase>60</timebase>
							<ntsc>TRUE</ntsc>
						</rate>
						<duration>24</duration>
						<start>1782</start>
						<end>1806</end>
						<in>1782</in>
						<out>1806</out>
						<enabled>FALSE</enabled>
					</clipitem>
					<clipitem frameBlend="FALSE" id="clipitem-rejected-528">
						<file id="file-1"/>
						<name>[REJECTED] bandicam 2025-06-02 00-01-10-144</name>
						<rate>
							<timebase>60</timebase>
							<ntsc>TRUE</ntsc>
						</rate>
						<rate>
							<timebase>60</timebase>
							<ntsc>TRUE</ntsc>
						</rate>
						<duration>24</duration>
						<start>1818</start>
						<end>1842</end>
						<in>1818</in>
						<out>1842</out>
						<enabled>FALSE</enabled>
					</clipitem>
					<clipitem frameBlend="FALSE" id="clipitem-rejected-529">
						<file id="file-1"/>
						<name>[REJECTED] bandicam 2025-06-02 00-01-10-144</name>
						<rate>
							<timebase>60</timebase>
							<ntsc>TRUE</ntsc>
						</rate>
						<rate>
							<timebase>60</timebase>
							<ntsc>TRUE</ntsc>
						</rate>
						<duration>18</duration>
						<start>1860</start>
						<end>1878</end>
						<in>1860</in>
						<out>1878</out>
						<enabled>FALSE</enabled>
					</clipitem>
					<clipitem frameBlend="FALSE" id="clipitem-rejected-530">
						<file id="file-1"/>
						<name>[REJECTED] bandicam 2025-06-02 00-01-10-144</name>
						<rate>
							<timebase>60</timebase>
							<ntsc>TRUE</ntsc>
						</rate>
						<rate>
							<timebase>60</timebase>
							<ntsc>TRUE</ntsc>
						</rate>
						<duration>390</duration>
						<start>1896</start>
						<end>2286</end>
						<in>1896</in>
						<out>2286</out>
						<enabled>FALSE</enabled>
					</clipitem>
					<clipitem frameBlend="FALSE" id="clipitem-rejected-531">
						<file id="file-1"/>
						<name>[REJECTED] bandicam 2025-06-02 00-01-10-144</name>
						<rate>
							<timebase>60</timebase>
							<ntsc>TRUE</ntsc>
						</rate>
						<rate>
							<timebase>60</timebase>
							<ntsc>TRUE</ntsc>
						</rate>
						<duration>6</duration>
						<start>2298</start>
						<end>2304</end>
						<in>2298</in>
						<out>2304</out>
						<enabled>FALSE</enabled>
					</clipitem>
					<clipitem frameBlend="FALSE" id="clipitem-rejected-532">
						<file id="file-1"/>
						<name>[REJECTED] bandicam 2025-06-02 00-01-10-144</name>
						<rate>
							<timebase>60</timebase>
							<ntsc>TRUE</ntsc>
						</rate>
						<rate>
							<timebase>60</timebase>
							<ntsc>TRUE</ntsc>
						</rate>
						<duration>114</duration>
						<start>2328</start>
						<end>2442</end>
						<in>2328</in>
						<out>2442</out>
						<enabled>FALSE</enabled>
					</clipitem>
					<clipitem frameBlend="FALSE" id="clipitem-rejected-533">
						<file id="file-1"/>
						<name>[REJECTED] bandicam 2025-06-02 00-01-10-144</name>
						<rate>
							<timebase>60</timebase>
							<ntsc>TRUE</ntsc>
						</rate>
						<rate>
							<timebase>60</timebase>
							<ntsc>TRUE</ntsc>
						</rate>
						<duration>276</duration>
						<start>2460</start>
						<end>2736</end>
						<in>2460</in>
						<out>2736</out>
						<enabled>FALSE</enabled>
					</clipitem>
					<clipitem frameBlend="FALSE" id="clipitem-rejected-534">
						<file id="file-1"/>
						<name>[REJECTED] bandicam 2025-06-02 00-01-10-144</name>
						<rate>
							<timebase>60</timebase>
							<ntsc>TRUE</ntsc>
						</rate>
						<rate>
							<timebase>60</timebase>
							<ntsc>TRUE</ntsc>
						</rate>
						<duration>0</duration>
						<start>2760</start>
						<end>2760</end>
						<in>2760</in>
						<out>2760</out>
						<enabled>FALSE</enabled>
					</clipitem>
					<clipitem frameBlend="FALSE" id="clipitem-rejected-535">
						<file id="file-1"/>
						<name>[REJECTED] bandicam 2025-06-02 00-01-10-144</name>
						<rate>
							<timebase>60</timebase>
							<ntsc>TRUE</ntsc>
						</rate>
						<rate>
							<timebase>60</timebase>
							<ntsc>TRUE</ntsc>
						</rate>
						<duration>18</duration>
						<start>2778</start>
						<end>2796</end>
						<in>2778</in>
						<out>2796</out>
						<enabled>FALSE</enabled>
					</clipitem>
					<clipitem frameBlend="FALSE" id="clipitem-rejected-536">
						<file id="file-1"/>
						<name>[REJECTED] bandicam 2025-06-02 00-01-10-144</name>
						<rate>
							<timebase>60</timebase>
							<ntsc>TRUE</ntsc>
						</rate>
						<rate>
							<timebase>60</timebase>
							<ntsc>TRUE</ntsc>
						</rate>
						<duration>228</duration>
						<start>2826</start>
						<end>3054</end>
						<in>2826</in>
						<out>3054</out>
						<enabled>FALSE</enabled>
					</clipitem>
					<clipitem frameBlend="FALSE" id="clipitem-rejected-537">
						<file id="file-1"/>
						<name>[REJECTED] bandicam 2025-06-02 00-01-10-144</name>
						<rate>
							<timebase>60</timebase>
							<ntsc>TRUE</ntsc>
						</rate>
						<rate>
							<timebase>60</timebase>
							<ntsc>TRUE</ntsc>
						</rate>
						<duration>0</duration>
						<start>3066</start>
						<end>3066</end>
						<in>3066</in>
						<out>3066</out>
						<enabled>FALSE</enabled>
					</clipitem>
					<clipitem frameBlend="FALSE" id="clipitem-rejected-538">
						<file id="file-1"/>
						<name>[REJECTED] bandicam 2025-06-02 00-01-10-144</name>
						<rate>
							<timebase>60</timebase>
							<ntsc>TRUE</ntsc>
						</rate>
						<rate>
							<timebase>60</timebase>
							<ntsc>TRUE</ntsc>
						</rate>
						<duration>156</duration>
						<start>3108</start>
						<end>3264</end>
						<in>3108</in>
						<out>3264</out>
						<enabled>FALSE</enabled>
					</clipitem>
					<clipitem frameBlend="FALSE" id="clipitem-rejected-539">
						<file id="file-1"/>
						<name>[REJECTED] bandicam 2025-06-02 00-01-10-144</name>
						<rate>
							<timebase>60</timebase>
							<ntsc>TRUE</ntsc>
						</rate>
						<rate>
							<timebase>60</timebase>
							<ntsc>TRUE</ntsc>
						</rate>
						<duration>150</duration>
						<start>3300</start>
						<end>3450</end>
						<in>3300</in>
						<out>3450</out>
						<enabled>FALSE</enabled>
					</clipitem>
					<clipitem frameBlend="FALSE" id="clipitem-rejected-540">
						<file id="file-1"/>
						<name>[REJECTED] bandicam 2025-06-02 00-01-10-144</name>
						<rate>
							<timebase>60</timebase>
							<ntsc>TRUE</ntsc>
						</rate>
						<rate>
							<timebase>60</timebase>
							<ntsc>TRUE</ntsc>
						</rate>
						<duration>138</duration>
						<start>3480</start>
						<end>3618</end>
						<in>3480</in>
						<out>3618</out>
						<enabled>FALSE</enabled>
					</clipitem>
					<clipitem frameBlend="FALSE" id="clipitem-rejected-541">
						<file id="file-1"/>
						<name>[REJECTED] bandicam 2025-06-02 00-01-10-144</name>
						<rate>
							<timebase>60</timebase>
							<ntsc>TRUE</ntsc>
						</rate>
						<rate>
							<timebase>60</timebase>
							<ntsc>TRUE</ntsc>
						</rate>
						<duration>432</duration>
						<start>3648</start>
						<end>4080</end>
						<in>3648</in>
						<out>4080</out>
						<enabled>FALSE</enabled>
					</clipitem>
					<clipitem frameBlend="FALSE" id="clipitem-rejected-542">
						<file id="file-1"/>
						<name>[REJECTED] bandicam 2025-06-02 00-01-10-144</name>
						<rate>
							<timebase>60</timebase>
							<ntsc>TRUE</ntsc>
						</rate>
						<rate>
							<timebase>60</timebase>
							<ntsc>TRUE</ntsc>
						</rate>
						<duration>0</duration>
						<start>4098</start>
						<end>4098</end>
						<in>4098</in>
						<out>4098</out>
						<enabled>FALSE</enabled>
					</clipitem>
					<clipitem frameBlend="FALSE" id="clipitem-rejected-543">
						<file id="file-1"/>
						<name>[REJECTED] bandicam 2025-06-02 00-01-10-144</name>
						<rate>
							<timebase>60</timebase>
							<ntsc>TRUE</ntsc>
						</rate>
						<rate>
							<timebase>60</timebase>
							<ntsc>TRUE</ntsc>
						</rate>
						<duration>12</duration>
						<start>4116</start>
						<end>4128</end>
						<in>4116</in>
						<out>4128</out>
						<enabled>FALSE</enabled>
					</clipitem>
					<clipitem frameBlend="FALSE" id="clipitem-rejected-544">
						<file id="file-1"/>
						<name>[REJECTED] bandicam 2025-06-02 00-01-10-144</name>
						<rate>
							<timebase>60</timebase>
							<ntsc>TRUE</ntsc>
						</rate>
						<rate>
							<timebase>60</timebase>
							<ntsc>TRUE</ntsc>
						</rate>
						<duration>42</duration>
						<start>4140</start>
						<end>4182</end>
						<in>4140</in>
						<out>4182</out>
						<enabled>FALSE</enabled>
					</clipitem>
					<clipitem frameBlend="FALSE" id="clipitem-rejected-545">
						<file id="file-1"/>
						<name>[REJECTED] bandicam 2025-06-02 00-01-10-144</name>
						<rate>
							<timebase>60</timebase>
							<ntsc>TRUE</ntsc>
						</rate>
						<rate>
							<timebase>60</timebase>
							<ntsc>TRUE</ntsc>
						</rate>
						<duration>24</duration>
						<start>4200</start>
						<end>4224</end>
						<in>4200</in>
						<out>4224</out>
						<enabled>FALSE</enabled>
					</clipitem>
					<clipitem frameBlend="FALSE" id="clipitem-rejected-546">
						<file id="file-1"/>
						<name>[REJECTED] bandicam 2025-06-02 00-01-10-144</name>
						<rate>
							<timebase>60</timebase>
							<ntsc>TRUE</ntsc>
						</rate>
						<rate>
							<timebase>60</timebase>
							<ntsc>TRUE</ntsc>
						</rate>
						<duration>0</duration>
						<start>4236</start>
						<end>4236</end>
						<in>4236</in>
						<out>4236</out>
						<enabled>FALSE</enabled>
					</clipitem>
					<clipitem frameBlend="FALSE" id="clipitem-rejected-547">
						<file id="file-1"/>
						<name>[REJECTED] bandicam 2025-06-02 00-01-10-144</name>
						<rate>
							<timebase>60</timebase>
							<ntsc>TRUE</ntsc>
						</rate>
						<rate>
							<timebase>60</timebase>
							<ntsc>TRUE</ntsc>
						</rate>
						<duration>42</duration>
						<start>4254</start>
						<end>4296</end>
						<in>4254</in>
						<out>4296</out>
						<enabled>FALSE</enabled>
					</clipitem>
					<clipitem frameBlend="FALSE" id="clipitem-rejected-548">
						<file id="file-1"/>
						<name>[REJECTED] bandicam 2025-06-02 00-01-10-144</name>
						<rate>
							<timebase>60</timebase>
							<ntsc>TRUE</ntsc>
						</rate>
						<rate>
							<timebase>60</timebase>
							<ntsc>TRUE</ntsc>
						</rate>
						<duration>12</duration>
						<start>4374</start>
						<end>4386</end>
						<in>4374</in>
						<out>4386</out>
						<enabled>FALSE</enabled>
					</clipitem>
					<clipitem frameBlend="FALSE" id="clipitem-rejected-549">
						<file id="file-1"/>
						<name>[REJECTED] bandicam 2025-06-02 00-01-10-144</name>
						<rate>
							<timebase>60</timebase>
							<ntsc>TRUE</ntsc>
						</rate>
						<rate>
							<timebase>60</timebase>
							<ntsc>TRUE</ntsc>
						</rate>
						<duration>60</duration>
						<start>4440</start>
						<end>4500</end>
						<in>4440</in>
						<out>4500</out>
						<enabled>FALSE</enabled>
					</clipitem>
					<clipitem frameBlend="FALSE" id="clipitem-rejected-550">
						<file id="file-1"/>
						<name>[REJECTED] bandicam 2025-06-02 00-01-10-144</name>
						<rate>
							<timebase>60</timebase>
							<ntsc>TRUE</ntsc>
						</rate>
						<rate>
							<timebase>60</timebase>
							<ntsc>TRUE</ntsc>
						</rate>
						<duration>6</duration>
						<start>4530</start>
						<end>4536</end>
						<in>4530</in>
						<out>4536</out>
						<enabled>FALSE</enabled>
					</clipitem>
					<clipitem frameBlend="FALSE" id="clipitem-rejected-551">
						<file id="file-1"/>
						<name>[REJECTED] bandicam 2025-06-02 00-01-10-144</name>
						<rate>
							<timebase>60</timebase>
							<ntsc>TRUE</ntsc>
						</rate>
						<rate>
							<timebase>60</timebase>
							<ntsc>TRUE</ntsc>
						</rate>
						<duration>36</duration>
						<start>4560</start>
						<end>4596</end>
						<in>4560</in>
						<out>4596</out>
						<enabled>FALSE</enabled>
					</clipitem>
					<clipitem frameBlend="FALSE" id="clipitem-rejected-552">
						<file id="file-1"/>
						<name>[REJECTED] bandicam 2025-06-02 00-01-10-144</name>
						<rate>
							<timebase>60</timebase>
							<ntsc>TRUE</ntsc>
						</rate>
						<rate>
							<timebase>60</timebase>
							<ntsc>TRUE</ntsc>
						</rate>
						<duration>66</duration>
						<start>4632</start>
						<end>4698</end>
						<in>4632</in>
						<out>4698</out>
						<enabled>FALSE</enabled>
					</clipitem>
					<clipitem frameBlend="FALSE" id="clipitem-rejected-553">
						<file id="file-1"/>
						<name>[REJECTED] bandicam 2025-06-02 00-01-10-144</name>
						<rate>
							<timebase>60</timebase>
							<ntsc>TRUE</ntsc>
						</rate>
						<rate>
							<timebase>60</timebase>
							<ntsc>TRUE</ntsc>
						</rate>
						<duration>6</duration>
						<start>4710</start>
						<end>4716</end>
						<in>4710</in>
						<out>4716</out>
						<enabled>FALSE</enabled>
					</clipitem>
					<clipitem frameBlend="FALSE" id="clipitem-rejected-554">
						<file id="file-1"/>
						<name>[REJECTED] bandicam 2025-06-02 00-01-10-144</name>
						<rate>
							<timebase>60</timebase>
							<ntsc>TRUE</ntsc>
						</rate>
						<rate>
							<timebase>60</timebase>
							<ntsc>TRUE</ntsc>
						</rate>
						<duration>78</duration>
						<start>4776</start>
						<end>4854</end>
						<in>4776</in>
						<out>4854</out>
						<enabled>FALSE</enabled>
					</clipitem>
					<clipitem frameBlend="FALSE" id="clipitem-rejected-555">
						<file id="file-1"/>
						<name>[REJECTED] bandicam 2025-06-02 00-01-10-144</name>
						<rate>
							<timebase>60</timebase>
							<ntsc>TRUE</ntsc>
						</rate>
						<rate>
							<timebase>60</timebase>
							<ntsc>TRUE</ntsc>
						</rate>
						<duration>90</duration>
						<start>4872</start>
						<end>4962</end>
						<in>4872</in>
						<out>4962</out>
						<enabled>FALSE</enabled>
					</clipitem>
					<clipitem frameBlend="FALSE" id="clipitem-rejected-556">
						<file id="file-1"/>
						<name>[REJECTED] bandicam 2025-06-02 00-01-10-144</name>
						<rate>
							<timebase>60</timebase>
							<ntsc>TRUE</ntsc>
						</rate>
						<rate>
							<timebase>60</timebase>
							<ntsc>TRUE</ntsc>
						</rate>
						<duration>126</duration>
						<start>4980</start>
						<end>5106</end>
						<in>4980</in>
						<out>5106</out>
						<enabled>FALSE</enabled>
					</clipitem>
					<clipitem frameBlend="FALSE" id="clipitem-rejected-557">
						<file id="file-1"/>
						<name>[REJECTED] bandicam 2025-06-02 00-01-10-144</name>
						<rate>
							<timebase>60</timebase>
							<ntsc>TRUE</ntsc>
						</rate>
						<rate>
							<timebase>60</timebase>
							<ntsc>TRUE</ntsc>
						</rate>
						<duration>12</duration>
						<start>5124</start>
						<end>5136</end>
						<in>5124</in>
						<out>5136</out>
						<enabled>FALSE</enabled>
					</clipitem>
					<clipitem frameBlend="FALSE" id="clipitem-rejected-558">
						<file id="file-1"/>
						<name>[REJECTED] bandicam 2025-06-02 00-01-10-144</name>
						<rate>
							<timebase>60</timebase>
							<ntsc>TRUE</ntsc>
						</rate>
						<rate>
							<timebase>60</timebase>
							<ntsc>TRUE</ntsc>
						</rate>
						<duration>0</duration>
						<start>5154</start>
						<end>5154</end>
						<in>5154</in>
						<out>5154</out>
						<enabled>FALSE</enabled>
					</clipitem>
					<clipitem frameBlend="FALSE" id="clipitem-rejected-559">
						<file id="file-1"/>
						<name>[REJECTED] bandicam 2025-06-02 00-01-10-144</name>
						<rate>
							<timebase>60</timebase>
							<ntsc>TRUE</ntsc>
						</rate>
						<rate>
							<timebase>60</timebase>
							<ntsc>TRUE</ntsc>
						</rate>
						<duration>138</duration>
						<start>5184</start>
						<end>5322</end>
						<in>5184</in>
						<out>5322</out>
						<enabled>FALSE</enabled>
					</clipitem>
					<clipitem frameBlend="FALSE" id="clipitem-rejected-560">
						<file id="file-1"/>
						<name>[REJECTED] bandicam 2025-06-02 00-01-10-144</name>
						<rate>
							<timebase>60</timebase>
							<ntsc>TRUE</ntsc>
						</rate>
						<rate>
							<timebase>60</timebase>
							<ntsc>TRUE</ntsc>
						</rate>
						<duration>60</duration>
						<start>5346</start>
						<end>5406</end>
						<in>5346</in>
						<out>5406</out>
						<enabled>FALSE</enabled>
					</clipitem>
					<clipitem frameBlend="FALSE" id="clipitem-rejected-561">
						<file id="file-1"/>
						<name>[REJECTED] bandicam 2025-06-02 00-01-10-144</name>
						<rate>
							<timebase>60</timebase>
							<ntsc>TRUE</ntsc>
						</rate>
						<rate>
							<timebase>60</timebase>
							<ntsc>TRUE</ntsc>
						</rate>
						<duration>12</duration>
						<start>5430</start>
						<end>5442</end>
						<in>5430</in>
						<out>5442</out>
						<enabled>FALSE</enabled>
					</clipitem>
					<clipitem frameBlend="FALSE" id="clipitem-rejected-562">
						<file id="file-1"/>
						<name>[REJECTED] bandicam 2025-06-02 00-01-10-144</name>
						<rate>
							<timebase>60</timebase>
							<ntsc>TRUE</ntsc>
						</rate>
						<rate>
							<timebase>60</timebase>
							<ntsc>TRUE</ntsc>
						</rate>
						<duration>132</duration>
						<start>5454</start>
						<end>5586</end>
						<in>5454</in>
						<out>5586</out>
						<enabled>FALSE</enabled>
					</clipitem>
					<clipitem frameBlend="FALSE" id="clipitem-rejected-563">
						<file id="file-1"/>
						<name>[REJECTED] bandicam 2025-06-02 00-01-10-144</name>
						<rate>
							<timebase>60</timebase>
							<ntsc>TRUE</ntsc>
						</rate>
						<rate>
							<timebase>60</timebase>
							<ntsc>TRUE</ntsc>
						</rate>
						<duration>66</duration>
						<start>5598</start>
						<end>5664</end>
						<in>5598</in>
						<out>5664</out>
						<enabled>FALSE</enabled>
					</clipitem>
					<clipitem frameBlend="FALSE" id="clipitem-rejected-564">
						<file id="file-1"/>
						<name>[REJECTED] bandicam 2025-06-02 00-01-10-144</name>
						<rate>
							<timebase>60</timebase>
							<ntsc>TRUE</ntsc>
						</rate>
						<rate>
							<timebase>60</timebase>
							<ntsc>TRUE</ntsc>
						</rate>
						<duration>60</duration>
						<start>5694</start>
						<end>5754</end>
						<in>5694</in>
						<out>5754</out>
						<enabled>FALSE</enabled>
					</clipitem>
					<clipitem frameBlend="FALSE" id="clipitem-rejected-565">
						<file id="file-1"/>
						<name>[REJECTED] bandicam 2025-06-02 00-01-10-144</name>
						<rate>
							<timebase>60</timebase>
							<ntsc>TRUE</ntsc>
						</rate>
						<rate>
							<timebase>60</timebase>
							<ntsc>TRUE</ntsc>
						</rate>
						<duration>12</duration>
						<start>5784</start>
						<end>5796</end>
						<in>5784</in>
						<out>5796</out>
						<enabled>FALSE</enabled>
					</clipitem>
					<clipitem frameBlend="FALSE" id="clipitem-rejected-566">
						<file id="file-1"/>
						<name>[REJECTED] bandicam 2025-06-02 00-01-10-144</name>
						<rate>
							<timebase>60</timebase>
							<ntsc>TRUE</ntsc>
						</rate>
						<rate>
							<timebase>60</timebase>
							<ntsc>TRUE</ntsc>
						</rate>
						<duration>24</duration>
						<start>5880</start>
						<end>5904</end>
						<in>5880</in>
						<out>5904</out>
						<enabled>FALSE</enabled>
					</clipitem>
					<clipitem frameBlend="FALSE" id="clipitem-rejected-567">
						<file id="file-1"/>
						<name>[REJECTED] bandicam 2025-06-02 00-01-10-144</name>
						<rate>
							<timebase>60</timebase>
							<ntsc>TRUE</ntsc>
						</rate>
						<rate>
							<timebase>60</timebase>
							<ntsc>TRUE</ntsc>
						</rate>
						<duration>30</duration>
						<start>5964</start>
						<end>5994</end>
						<in>5964</in>
						<out>5994</out>
						<enabled>FALSE</enabled>
					</clipitem>
					<clipitem frameBlend="FALSE" id="clipitem-rejected-568">
						<file id="file-1"/>
						<name>[REJECTED] bandicam 2025-06-02 00-01-10-144</name>
						<rate>
							<timebase>60</timebase>
							<ntsc>TRUE</ntsc>
						</rate>
						<rate>
							<timebase>60</timebase>
							<ntsc>TRUE</ntsc>
						</rate>
						<duration>0</duration>
						<start>6006</start>
						<end>6006</end>
						<in>6006</in>
						<out>6006</out>
						<enabled>FALSE</enabled>
					</clipitem>
					<clipitem frameBlend="FALSE" id="clipitem-rejected-569">
						<file id="file-1"/>
						<name>[REJECTED] bandicam 2025-06-02 00-01-10-144</name>
						<rate>
							<timebase>60</timebase>
							<ntsc>TRUE</ntsc>
						</rate>
						<rate>
							<timebase>60</timebase>
							<ntsc>TRUE</ntsc>
						</rate>
						<duration>108</duration>
						<start>6042</start>
						<end>6150</end>
						<in>6042</in>
						<out>6150</out>
						<enabled>FALSE</enabled>
					</clipitem>
					<clipitem frameBlend="FALSE" id="clipitem-rejected-570">
						<file id="file-1"/>
						<name>[REJECTED] bandicam 2025-06-02 00-01-10-144</name>
						<rate>
							<timebase>60</timebase>
							<ntsc>TRUE</ntsc>
						</rate>
						<rate>
							<timebase>60</timebase>
							<ntsc>TRUE</ntsc>
						</rate>
						<duration>42</duration>
						<start>6186</start>
						<end>6228</end>
						<in>6186</in>
						<out>6228</out>
						<enabled>FALSE</enabled>
					</clipitem>
					<clipitem frameBlend="FALSE" id="clipitem-rejected-571">
						<file id="file-1"/>
						<name>[REJECTED] bandicam 2025-06-02 00-01-10-144</name>
						<rate>
							<timebase>60</timebase>
							<ntsc>TRUE</ntsc>
						</rate>
						<rate>
							<timebase>60</timebase>
							<ntsc>TRUE</ntsc>
						</rate>
						<duration>0</duration>
						<start>6246</start>
						<end>6246</end>
						<in>6246</in>
						<out>6246</out>
						<enabled>FALSE</enabled>
					</clipitem>
					<clipitem frameBlend="FALSE" id="clipitem-rejected-572">
						<file id="file-1"/>
						<name>[REJECTED] bandicam 2025-06-02 00-01-10-144</name>
						<rate>
							<timebase>60</timebase>
							<ntsc>TRUE</ntsc>
						</rate>
						<rate>
							<timebase>60</timebase>
							<ntsc>TRUE</ntsc>
						</rate>
						<duration>234</duration>
						<start>6258</start>
						<end>6492</end>
						<in>6258</in>
						<out>6492</out>
						<enabled>FALSE</enabled>
					</clipitem>
					<clipitem frameBlend="FALSE" id="clipitem-rejected-573">
						<file id="file-1"/>
						<name>[REJECTED] bandicam 2025-06-02 00-01-10-144</name>
						<rate>
							<timebase>60</timebase>
							<ntsc>TRUE</ntsc>
						</rate>
						<rate>
							<timebase>60</timebase>
							<ntsc>TRUE</ntsc>
						</rate>
						<duration>360</duration>
						<start>6528</start>
						<end>6888</end>
						<in>6528</in>
						<out>6888</out>
						<enabled>FALSE</enabled>
					</clipitem>
					<clipitem frameBlend="FALSE" id="clipitem-rejected-574">
						<file id="file-1"/>
						<name>[REJECTED] bandicam 2025-06-02 00-01-10-144</name>
						<rate>
							<timebase>60</timebase>
							<ntsc>TRUE</ntsc>
						</rate>
						<rate>
							<timebase>60</timebase>
							<ntsc>TRUE</ntsc>
						</rate>
						<duration>48</duration>
						<start>6900</start>
						<end>6948</end>
						<in>6900</in>
						<out>6948</out>
						<enabled>FALSE</enabled>
					</clipitem>
					<clipitem frameBlend="FALSE" id="clipitem-rejected-575">
						<file id="file-1"/>
						<name>[REJECTED] bandicam 2025-06-02 00-01-10-144</name>
						<rate>
							<timebase>60</timebase>
							<ntsc>TRUE</ntsc>
						</rate>
						<rate>
							<timebase>60</timebase>
							<ntsc>TRUE</ntsc>
						</rate>
						<duration>108</duration>
						<start>6960</start>
						<end>7068</end>
						<in>6960</in>
						<out>7068</out>
						<enabled>FALSE</enabled>
					</clipitem>
					<clipitem frameBlend="FALSE" id="clipitem-rejected-576">
						<file id="file-1"/>
						<name>[REJECTED] bandicam 2025-06-02 00-01-10-144</name>
						<rate>
							<timebase>60</timebase>
							<ntsc>TRUE</ntsc>
						</rate>
						<rate>
							<timebase>60</timebase>
							<ntsc>TRUE</ntsc>
						</rate>
						<duration>6</duration>
						<start>0</start>
						<end>6</end>
						<in>0</in>
						<out>6</out>
						<enabled>FALSE</enabled>
					</clipitem>
					<clipitem frameBlend="FALSE" id="clipitem-rejected-577">
						<file id="file-1"/>
						<name>[REJECTED] bandicam 2025-06-02 00-01-10-144</name>
						<rate>
							<timebase>60</timebase>
							<ntsc>TRUE</ntsc>
						</rate>
						<rate>
							<timebase>60</timebase>
							<ntsc>TRUE</ntsc>
						</rate>
						<duration>12</duration>
						<start>36</start>
						<end>48</end>
						<in>36</in>
						<out>48</out>
						<enabled>FALSE</enabled>
					</clipitem>
					<clipitem frameBlend="FALSE" id="clipitem-rejected-578">
						<file id="file-1"/>
						<name>[REJECTED] bandicam 2025-06-02 00-01-10-144</name>
						<rate>
							<timebase>60</timebase>
							<ntsc>TRUE</ntsc>
						</rate>
						<rate>
							<timebase>60</timebase>
							<ntsc>TRUE</ntsc>
						</rate>
						<duration>6</duration>
						<start>96</start>
						<end>102</end>
						<in>96</in>
						<out>102</out>
						<enabled>FALSE</enabled>
					</clipitem>
					<clipitem frameBlend="FALSE" id="clipitem-rejected-579">
						<file id="file-1"/>
						<name>[REJECTED] bandicam 2025-06-02 00-01-10-144</name>
						<rate>
							<timebase>60</timebase>
							<ntsc>TRUE</ntsc>
						</rate>
						<rate>
							<timebase>60</timebase>
							<ntsc>TRUE</ntsc>
						</rate>
						<duration>36</duration>
						<start>132</start>
						<end>168</end>
						<in>132</in>
						<out>168</out>
						<enabled>FALSE</enabled>
					</clipitem>
					<clipitem frameBlend="FALSE" id="clipitem-rejected-580">
						<file id="file-1"/>
						<name>[REJECTED] bandicam 2025-06-02 00-01-10-144</name>
						<rate>
							<timebase>60</timebase>
							<ntsc>TRUE</ntsc>
						</rate>
						<rate>
							<timebase>60</timebase>
							<ntsc>TRUE</ntsc>
						</rate>
						<duration>96</duration>
						<start>198</start>
						<end>294</end>
						<in>198</in>
						<out>294</out>
						<enabled>FALSE</enabled>
					</clipitem>
					<clipitem frameBlend="FALSE" id="clipitem-rejected-581">
						<file id="file-1"/>
						<name>[REJECTED] bandicam 2025-06-02 00-01-10-144</name>
						<rate>
							<timebase>60</timebase>
							<ntsc>TRUE</ntsc>
						</rate>
						<rate>
							<timebase>60</timebase>
							<ntsc>TRUE</ntsc>
						</rate>
						<duration>48</duration>
						<start>306</start>
						<end>354</end>
						<in>306</in>
						<out>354</out>
						<enabled>FALSE</enabled>
					</clipitem>
					<clipitem frameBlend="FALSE" id="clipitem-rejected-582">
						<file id="file-1"/>
						<name>[REJECTED] bandicam 2025-06-02 00-01-10-144</name>
						<rate>
							<timebase>60</timebase>
							<ntsc>TRUE</ntsc>
						</rate>
						<rate>
							<timebase>60</timebase>
							<ntsc>TRUE</ntsc>
						</rate>
						<duration>48</duration>
						<start>384</start>
						<end>432</end>
						<in>384</in>
						<out>432</out>
						<enabled>FALSE</enabled>
					</clipitem>
					<clipitem frameBlend="FALSE" id="clipitem-rejected-583">
						<file id="file-1"/>
						<name>[REJECTED] bandicam 2025-06-02 00-01-10-144</name>
						<rate>
							<timebase>60</timebase>
							<ntsc>TRUE</ntsc>
						</rate>
						<rate>
							<timebase>60</timebase>
							<ntsc>TRUE</ntsc>
						</rate>
						<duration>0</duration>
						<start>444</start>
						<end>444</end>
						<in>444</in>
						<out>444</out>
						<enabled>FALSE</enabled>
					</clipitem>
					<clipitem frameBlend="FALSE" id="clipitem-rejected-584">
						<file id="file-1"/>
						<name>[REJECTED] bandicam 2025-06-02 00-01-10-144</name>
						<rate>
							<timebase>60</timebase>
							<ntsc>TRUE</ntsc>
						</rate>
						<rate>
							<timebase>60</timebase>
							<ntsc>TRUE</ntsc>
						</rate>
						<duration>0</duration>
						<start>498</start>
						<end>498</end>
						<in>498</in>
						<out>498</out>
						<enabled>FALSE</enabled>
					</clipitem>
					<clipitem frameBlend="FALSE" id="clipitem-rejected-585">
						<file id="file-1"/>
						<name>[REJECTED] bandicam 2025-06-02 00-01-10-144</name>
						<rate>
							<timebase>60</timebase>
							<ntsc>TRUE</ntsc>
						</rate>
						<rate>
							<timebase>60</timebase>
							<ntsc>TRUE</ntsc>
						</rate>
						<duration>12</duration>
						<start>510</start>
						<end>522</end>
						<in>510</in>
						<out>522</out>
						<enabled>FALSE</enabled>
					</clipitem>
					<clipitem frameBlend="FALSE" id="clipitem-rejected-586">
						<file id="file-1"/>
						<name>[REJECTED] bandicam 2025-06-02 00-01-10-144</name>
						<rate>
							<timebase>60</timebase>
							<ntsc>TRUE</ntsc>
						</rate>
						<rate>
							<timebase>60</timebase>
							<ntsc>TRUE</ntsc>
						</rate>
						<duration>24</duration>
						<start>552</start>
						<end>576</end>
						<in>552</in>
						<out>576</out>
						<enabled>FALSE</enabled>
					</clipitem>
					<clipitem frameBlend="FALSE" id="clipitem-rejected-587">
						<file id="file-1"/>
						<name>[REJECTED] bandicam 2025-06-02 00-01-10-144</name>
						<rate>
							<timebase>60</timebase>
							<ntsc>TRUE</ntsc>
						</rate>
						<rate>
							<timebase>60</timebase>
							<ntsc>TRUE</ntsc>
						</rate>
						<duration>6</duration>
						<start>612</start>
						<end>618</end>
						<in>612</in>
						<out>618</out>
						<enabled>FALSE</enabled>
					</clipitem>
					<clipitem frameBlend="FALSE" id="clipitem-rejected-588">
						<file id="file-1"/>
						<name>[REJECTED] bandicam 2025-06-02 00-01-10-144</name>
						<rate>
							<timebase>60</timebase>
							<ntsc>TRUE</ntsc>
						</rate>
						<rate>
							<timebase>60</timebase>
							<ntsc>TRUE</ntsc>
						</rate>
						<duration>198</duration>
						<start>648</start>
						<end>846</end>
						<in>648</in>
						<out>846</out>
						<enabled>FALSE</enabled>
					</clipitem>
					<clipitem frameBlend="FALSE" id="clipitem-rejected-589">
						<file id="file-1"/>
						<name>[REJECTED] bandicam 2025-06-02 00-01-10-144</name>
						<rate>
							<timebase>60</timebase>
							<ntsc>TRUE</ntsc>
						</rate>
						<rate>
							<timebase>60</timebase>
							<ntsc>TRUE</ntsc>
						</rate>
						<duration>48</duration>
						<start>858</start>
						<end>906</end>
						<in>858</in>
						<out>906</out>
						<enabled>FALSE</enabled>
					</clipitem>
					<clipitem frameBlend="FALSE" id="clipitem-rejected-590">
						<file id="file-1"/>
						<name>[REJECTED] bandicam 2025-06-02 00-01-10-144</name>
						<rate>
							<timebase>60</timebase>
							<ntsc>TRUE</ntsc>
						</rate>
						<rate>
							<timebase>60</timebase>
							<ntsc>TRUE</ntsc>
						</rate>
						<duration>12</duration>
						<start>918</start>
						<end>930</end>
						<in>918</in>
						<out>930</out>
						<enabled>FALSE</enabled>
					</clipitem>
					<clipitem frameBlend="FALSE" id="clipitem-rejected-591">
						<file id="file-1"/>
						<name>[REJECTED] bandicam 2025-06-02 00-01-10-144</name>
						<rate>
							<timebase>60</timebase>
							<ntsc>TRUE</ntsc>
						</rate>
						<rate>
							<timebase>60</timebase>
							<ntsc>TRUE</ntsc>
						</rate>
						<duration>6</duration>
						<start>942</start>
						<end>948</end>
						<in>942</in>
						<out>948</out>
						<enabled>FALSE</enabled>
					</clipitem>
					<clipitem frameBlend="FALSE" id="clipitem-rejected-592">
						<file id="file-1"/>
						<name>[REJECTED] bandicam 2025-06-02 00-01-10-144</name>
						<rate>
							<timebase>60</timebase>
							<ntsc>TRUE</ntsc>
						</rate>
						<rate>
							<timebase>60</timebase>
							<ntsc>TRUE</ntsc>
						</rate>
						<duration>18</duration>
						<start>960</start>
						<end>978</end>
						<in>960</in>
						<out>978</out>
						<enabled>FALSE</enabled>
					</clipitem>
					<clipitem frameBlend="FALSE" id="clipitem-rejected-593">
						<file id="file-1"/>
						<name>[REJECTED] bandicam 2025-06-02 00-01-10-144</name>
						<rate>
							<timebase>60</timebase>
							<ntsc>TRUE</ntsc>
						</rate>
						<rate>
							<timebase>60</timebase>
							<ntsc>TRUE</ntsc>
						</rate>
						<duration>78</duration>
						<start>1002</start>
						<end>1080</end>
						<in>1002</in>
						<out>1080</out>
						<enabled>FALSE</enabled>
					</clipitem>
					<clipitem frameBlend="FALSE" id="clipitem-rejected-594">
						<file id="file-1"/>
						<name>[REJECTED] bandicam 2025-06-02 00-01-10-144</name>
						<rate>
							<timebase>60</timebase>
							<ntsc>TRUE</ntsc>
						</rate>
						<rate>
							<timebase>60</timebase>
							<ntsc>TRUE</ntsc>
						</rate>
						<duration>84</duration>
						<start>1104</start>
						<end>1188</end>
						<in>1104</in>
						<out>1188</out>
						<enabled>FALSE</enabled>
					</clipitem>
					<clipitem frameBlend="FALSE" id="clipitem-rejected-595">
						<file id="file-1"/>
						<name>[REJECTED] bandicam 2025-06-02 00-01-10-144</name>
						<rate>
							<timebase>60</timebase>
							<ntsc>TRUE</ntsc>
						</rate>
						<rate>
							<timebase>60</timebase>
							<ntsc>TRUE</ntsc>
						</rate>
						<duration>0</duration>
						<start>1200</start>
						<end>1200</end>
						<in>1200</in>
						<out>1200</out>
						<enabled>FALSE</enabled>
					</clipitem>
					<clipitem frameBlend="FALSE" id="clipitem-rejected-596">
						<file id="file-1"/>
						<name>[REJECTED] bandicam 2025-06-02 00-01-10-144</name>
						<rate>
							<timebase>60</timebase>
							<ntsc>TRUE</ntsc>
						</rate>
						<rate>
							<timebase>60</timebase>
							<ntsc>TRUE</ntsc>
						</rate>
						<duration>84</duration>
						<start>1230</start>
						<end>1314</end>
						<in>1230</in>
						<out>1314</out>
						<enabled>FALSE</enabled>
					</clipitem>
					<clipitem frameBlend="FALSE" id="clipitem-rejected-597">
						<file id="file-1"/>
						<name>[REJECTED] bandicam 2025-06-02 00-01-10-144</name>
						<rate>
							<timebase>60</timebase>
							<ntsc>TRUE</ntsc>
						</rate>
						<rate>
							<timebase>60</timebase>
							<ntsc>TRUE</ntsc>
						</rate>
						<duration>42</duration>
						<start>1326</start>
						<end>1368</end>
						<in>1326</in>
						<out>1368</out>
						<enabled>FALSE</enabled>
					</clipitem>
					<clipitem frameBlend="FALSE" id="clipitem-rejected-598">
						<file id="file-1"/>
						<name>[REJECTED] bandicam 2025-06-02 00-01-10-144</name>
						<rate>
							<timebase>60</timebase>
							<ntsc>TRUE</ntsc>
						</rate>
						<rate>
							<timebase>60</timebase>
							<ntsc>TRUE</ntsc>
						</rate>
						<duration>0</duration>
						<start>1392</start>
						<end>1392</end>
						<in>1392</in>
						<out>1392</out>
						<enabled>FALSE</enabled>
					</clipitem>
					<clipitem frameBlend="FALSE" id="clipitem-rejected-599">
						<file id="file-1"/>
						<name>[REJECTED] bandicam 2025-06-02 00-01-10-144</name>
						<rate>
							<timebase>60</timebase>
							<ntsc>TRUE</ntsc>
						</rate>
						<rate>
							<timebase>60</timebase>
							<ntsc>TRUE</ntsc>
						</rate>
						<duration>12</duration>
						<start>1428</start>
						<end>1440</end>
						<in>1428</in>
						<out>1440</out>
						<enabled>FALSE</enabled>
					</clipitem>
					<clipitem frameBlend="FALSE" id="clipitem-rejected-600">
						<file id="file-1"/>
						<name>[REJECTED] bandicam 2025-06-02 00-01-10-144</name>
						<rate>
							<timebase>60</timebase>
							<ntsc>TRUE</ntsc>
						</rate>
						<rate>
							<timebase>60</timebase>
							<ntsc>TRUE</ntsc>
						</rate>
						<duration>90</duration>
						<start>1470</start>
						<end>1560</end>
						<in>1470</in>
						<out>1560</out>
						<enabled>FALSE</enabled>
					</clipitem>
					<clipitem frameBlend="FALSE" id="clipitem-rejected-601">
						<file id="file-1"/>
						<name>[REJECTED] bandicam 2025-06-02 00-01-10-144</name>
						<rate>
							<timebase>60</timebase>
							<ntsc>TRUE</ntsc>
						</rate>
						<rate>
							<timebase>60</timebase>
							<ntsc>TRUE</ntsc>
						</rate>
						<duration>96</duration>
						<start>1590</start>
						<end>1686</end>
						<in>1590</in>
						<out>1686</out>
						<enabled>FALSE</enabled>
					</clipitem>
					<clipitem frameBlend="FALSE" id="clipitem-rejected-602">
						<file id="file-1"/>
						<name>[REJECTED] bandicam 2025-06-02 00-01-10-144</name>
						<rate>
							<timebase>60</timebase>
							<ntsc>TRUE</ntsc>
						</rate>
						<rate>
							<timebase>60</timebase>
							<ntsc>TRUE</ntsc>
						</rate>
						<duration>6</duration>
						<start>1734</start>
						<end>1740</end>
						<in>1734</in>
						<out>1740</out>
						<enabled>FALSE</enabled>
					</clipitem>
					<clipitem frameBlend="FALSE" id="clipitem-rejected-603">
						<file id="file-1"/>
						<name>[REJECTED] bandicam 2025-06-02 00-01-10-144</name>
						<rate>
							<timebase>60</timebase>
							<ntsc>TRUE</ntsc>
						</rate>
						<rate>
							<timebase>60</timebase>
							<ntsc>TRUE</ntsc>
						</rate>
						<duration>12</duration>
						<start>1788</start>
						<end>1800</end>
						<in>1788</in>
						<out>1800</out>
						<enabled>FALSE</enabled>
					</clipitem>
					<clipitem frameBlend="FALSE" id="clipitem-rejected-604">
						<file id="file-1"/>
						<name>[REJECTED] bandicam 2025-06-02 00-01-10-144</name>
						<rate>
							<timebase>60</timebase>
							<ntsc>TRUE</ntsc>
						</rate>
						<rate>
							<timebase>60</timebase>
							<ntsc>TRUE</ntsc>
						</rate>
						<duration>0</duration>
						<start>1836</start>
						<end>1836</end>
						<in>1836</in>
						<out>1836</out>
						<enabled>FALSE</enabled>
					</clipitem>
					<clipitem frameBlend="FALSE" id="clipitem-rejected-605">
						<file id="file-1"/>
						<name>[REJECTED] bandicam 2025-06-02 00-01-10-144</name>
						<rate>
							<timebase>60</timebase>
							<ntsc>TRUE</ntsc>
						</rate>
						<rate>
							<timebase>60</timebase>
							<ntsc>TRUE</ntsc>
						</rate>
						<duration>6</duration>
						<start>1860</start>
						<end>1866</end>
						<in>1860</in>
						<out>1866</out>
						<enabled>FALSE</enabled>
					</clipitem>
					<clipitem frameBlend="FALSE" id="clipitem-rejected-606">
						<file id="file-1"/>
						<name>[REJECTED] bandicam 2025-06-02 00-01-10-144</name>
						<rate>
							<timebase>60</timebase>
							<ntsc>TRUE</ntsc>
						</rate>
						<rate>
							<timebase>60</timebase>
							<ntsc>TRUE</ntsc>
						</rate>
						<duration>0</duration>
						<start>1878</start>
						<end>1878</end>
						<in>1878</in>
						<out>1878</out>
						<enabled>FALSE</enabled>
					</clipitem>
					<clipitem frameBlend="FALSE" id="clipitem-rejected-607">
						<file id="file-1"/>
						<name>[REJECTED] bandicam 2025-06-02 00-01-10-144</name>
						<rate>
							<timebase>60</timebase>
							<ntsc>TRUE</ntsc>
						</rate>
						<rate>
							<timebase>60</timebase>
							<ntsc>TRUE</ntsc>
						</rate>
						<duration>18</duration>
						<start>1902</start>
						<end>1920</end>
						<in>1902</in>
						<out>1920</out>
						<enabled>FALSE</enabled>
					</clipitem>
					<clipitem frameBlend="FALSE" id="clipitem-rejected-608">
						<file id="file-1"/>
						<name>[REJECTED] bandicam 2025-06-02 00-01-10-144</name>
						<rate>
							<timebase>60</timebase>
							<ntsc>TRUE</ntsc>
						</rate>
						<rate>
							<timebase>60</timebase>
							<ntsc>TRUE</ntsc>
						</rate>
						<duration>222</duration>
						<start>1950</start>
						<end>2172</end>
						<in>1950</in>
						<out>2172</out>
						<enabled>FALSE</enabled>
					</clipitem>
					<clipitem frameBlend="FALSE" id="clipitem-rejected-609">
						<file id="file-1"/>
						<name>[REJECTED] bandicam 2025-06-02 00-01-10-144</name>
						<rate>
							<timebase>60</timebase>
							<ntsc>TRUE</ntsc>
						</rate>
						<rate>
							<timebase>60</timebase>
							<ntsc>TRUE</ntsc>
						</rate>
						<duration>72</duration>
						<start>2202</start>
						<end>2274</end>
						<in>2202</in>
						<out>2274</out>
						<enabled>FALSE</enabled>
					</clipitem>
					<clipitem frameBlend="FALSE" id="clipitem-rejected-610">
						<file id="file-1"/>
						<name>[REJECTED] bandicam 2025-06-02 00-01-10-144</name>
						<rate>
							<timebase>60</timebase>
							<ntsc>TRUE</ntsc>
						</rate>
						<rate>
							<timebase>60</timebase>
							<ntsc>TRUE</ntsc>
						</rate>
						<duration>84</duration>
						<start>2358</start>
						<end>2442</end>
						<in>2358</in>
						<out>2442</out>
						<enabled>FALSE</enabled>
					</clipitem>
					<clipitem frameBlend="FALSE" id="clipitem-rejected-611">
						<file id="file-1"/>
						<name>[REJECTED] bandicam 2025-06-02 00-01-10-144</name>
						<rate>
							<timebase>60</timebase>
							<ntsc>TRUE</ntsc>
						</rate>
						<rate>
							<timebase>60</timebase>
							<ntsc>TRUE</ntsc>
						</rate>
						<duration>6</duration>
						<start>2466</start>
						<end>2472</end>
						<in>2466</in>
						<out>2472</out>
						<enabled>FALSE</enabled>
					</clipitem>
					<clipitem frameBlend="FALSE" id="clipitem-rejected-612">
						<file id="file-1"/>
						<name>[REJECTED] bandicam 2025-06-02 00-01-10-144</name>
						<rate>
							<timebase>60</timebase>
							<ntsc>TRUE</ntsc>
						</rate>
						<rate>
							<timebase>60</timebase>
							<ntsc>TRUE</ntsc>
						</rate>
						<duration>0</duration>
						<start>2490</start>
						<end>2490</end>
						<in>2490</in>
						<out>2490</out>
						<enabled>FALSE</enabled>
					</clipitem>
					<clipitem frameBlend="FALSE" id="clipitem-rejected-613">
						<file id="file-1"/>
						<name>[REJECTED] bandicam 2025-06-02 00-01-10-144</name>
						<rate>
							<timebase>60</timebase>
							<ntsc>TRUE</ntsc>
						</rate>
						<rate>
							<timebase>60</timebase>
							<ntsc>TRUE</ntsc>
						</rate>
						<duration>24</duration>
						<start>2508</start>
						<end>2532</end>
						<in>2508</in>
						<out>2532</out>
						<enabled>FALSE</enabled>
					</clipitem>
					<clipitem frameBlend="FALSE" id="clipitem-rejected-614">
						<file id="file-1"/>
						<name>[REJECTED] bandicam 2025-06-02 00-01-10-144</name>
						<rate>
							<timebase>60</timebase>
							<ntsc>TRUE</ntsc>
						</rate>
						<rate>
							<timebase>60</timebase>
							<ntsc>TRUE</ntsc>
						</rate>
						<duration>12</duration>
						<start>2574</start>
						<end>2586</end>
						<in>2574</in>
						<out>2586</out>
						<enabled>FALSE</enabled>
					</clipitem>
					<clipitem frameBlend="FALSE" id="clipitem-rejected-615">
						<file id="file-1"/>
						<name>[REJECTED] bandicam 2025-06-02 00-01-10-144</name>
						<rate>
							<timebase>60</timebase>
							<ntsc>TRUE</ntsc>
						</rate>
						<rate>
							<timebase>60</timebase>
							<ntsc>TRUE</ntsc>
						</rate>
						<duration>0</duration>
						<start>2634</start>
						<end>2634</end>
						<in>2634</in>
						<out>2634</out>
						<enabled>FALSE</enabled>
					</clipitem>
					<clipitem frameBlend="FALSE" id="clipitem-rejected-616">
						<file id="file-1"/>
						<name>[REJECTED] bandicam 2025-06-02 00-01-10-144</name>
						<rate>
							<timebase>60</timebase>
							<ntsc>TRUE</ntsc>
						</rate>
						<rate>
							<timebase>60</timebase>
							<ntsc>TRUE</ntsc>
						</rate>
						<duration>42</duration>
						<start>2676</start>
						<end>2718</end>
						<in>2676</in>
						<out>2718</out>
						<enabled>FALSE</enabled>
					</clipitem>
					<clipitem frameBlend="FALSE" id="clipitem-rejected-617">
						<file id="file-1"/>
						<name>[REJECTED] bandicam 2025-06-02 00-01-10-144</name>
						<rate>
							<timebase>60</timebase>
							<ntsc>TRUE</ntsc>
						</rate>
						<rate>
							<timebase>60</timebase>
							<ntsc>TRUE</ntsc>
						</rate>
						<duration>12</duration>
						<start>2850</start>
						<end>2862</end>
						<in>2850</in>
						<out>2862</out>
						<enabled>FALSE</enabled>
					</clipitem>
					<clipitem frameBlend="FALSE" id="clipitem-rejected-618">
						<file id="file-1"/>
						<name>[REJECTED] bandicam 2025-06-02 00-01-10-144</name>
						<rate>
							<timebase>60</timebase>
							<ntsc>TRUE</ntsc>
						</rate>
						<rate>
							<timebase>60</timebase>
							<ntsc>TRUE</ntsc>
						</rate>
						<duration>0</duration>
						<start>2898</start>
						<end>2898</end>
						<in>2898</in>
						<out>2898</out>
						<enabled>FALSE</enabled>
					</clipitem>
					<clipitem frameBlend="FALSE" id="clipitem-rejected-619">
						<file id="file-1"/>
						<name>[REJECTED] bandicam 2025-06-02 00-01-10-144</name>
						<rate>
							<timebase>60</timebase>
							<ntsc>TRUE</ntsc>
						</rate>
						<rate>
							<timebase>60</timebase>
							<ntsc>TRUE</ntsc>
						</rate>
						<duration>24</duration>
						<start>2916</start>
						<end>2940</end>
						<in>2916</in>
						<out>2940</out>
						<enabled>FALSE</enabled>
					</clipitem>
					<clipitem frameBlend="FALSE" id="clipitem-rejected-620">
						<file id="file-1"/>
						<name>[REJECTED] bandicam 2025-06-02 00-01-10-144</name>
						<rate>
							<timebase>60</timebase>
							<ntsc>TRUE</ntsc>
						</rate>
						<rate>
							<timebase>60</timebase>
							<ntsc>TRUE</ntsc>
						</rate>
						<duration>6</duration>
						<start>2952</start>
						<end>2958</end>
						<in>2952</in>
						<out>2958</out>
						<enabled>FALSE</enabled>
					</clipitem>
					<clipitem frameBlend="FALSE" id="clipitem-rejected-621">
						<file id="file-1"/>
						<name>[REJECTED] bandicam 2025-06-02 00-01-10-144</name>
						<rate>
							<timebase>60</timebase>
							<ntsc>TRUE</ntsc>
						</rate>
						<rate>
							<timebase>60</timebase>
							<ntsc>TRUE</ntsc>
						</rate>
						<duration>66</duration>
						<start>2988</start>
						<end>3054</end>
						<in>2988</in>
						<out>3054</out>
						<enabled>FALSE</enabled>
					</clipitem>
					<clipitem frameBlend="FALSE" id="clipitem-rejected-622">
						<file id="file-1"/>
						<name>[REJECTED] bandicam 2025-06-02 00-01-10-144</name>
						<rate>
							<timebase>60</timebase>
							<ntsc>TRUE</ntsc>
						</rate>
						<rate>
							<timebase>60</timebase>
							<ntsc>TRUE</ntsc>
						</rate>
						<duration>6</duration>
						<start>3108</start>
						<end>3114</end>
						<in>3108</in>
						<out>3114</out>
						<enabled>FALSE</enabled>
					</clipitem>
					<clipitem frameBlend="FALSE" id="clipitem-rejected-623">
						<file id="file-1"/>
						<name>[REJECTED] bandicam 2025-06-02 00-01-10-144</name>
						<rate>
							<timebase>60</timebase>
							<ntsc>TRUE</ntsc>
						</rate>
						<rate>
							<timebase>60</timebase>
							<ntsc>TRUE</ntsc>
						</rate>
						<duration>78</duration>
						<start>3144</start>
						<end>3222</end>
						<in>3144</in>
						<out>3222</out>
						<enabled>FALSE</enabled>
					</clipitem>
					<clipitem frameBlend="FALSE" id="clipitem-rejected-624">
						<file id="file-1"/>
						<name>[REJECTED] bandicam 2025-06-02 00-01-10-144</name>
						<rate>
							<timebase>60</timebase>
							<ntsc>TRUE</ntsc>
						</rate>
						<rate>
							<timebase>60</timebase>
							<ntsc>TRUE</ntsc>
						</rate>
						<duration>12</duration>
						<start>3252</start>
						<end>3264</end>
						<in>3252</in>
						<out>3264</out>
						<enabled>FALSE</enabled>
					</clipitem>
					<clipitem frameBlend="FALSE" id="clipitem-rejected-625">
						<file id="file-1"/>
						<name>[REJECTED] bandicam 2025-06-02 00-01-10-144</name>
						<rate>
							<timebase>60</timebase>
							<ntsc>TRUE</ntsc>
						</rate>
						<rate>
							<timebase>60</timebase>
							<ntsc>TRUE</ntsc>
						</rate>
						<duration>54</duration>
						<start>3312</start>
						<end>3366</end>
						<in>3312</in>
						<out>3366</out>
						<enabled>FALSE</enabled>
					</clipitem>
					<clipitem frameBlend="FALSE" id="clipitem-rejected-626">
						<file id="file-1"/>
						<name>[REJECTED] bandicam 2025-06-02 00-01-10-144</name>
						<rate>
							<timebase>60</timebase>
							<ntsc>TRUE</ntsc>
						</rate>
						<rate>
							<timebase>60</timebase>
							<ntsc>TRUE</ntsc>
						</rate>
						<duration>48</duration>
						<start>3396</start>
						<end>3444</end>
						<in>3396</in>
						<out>3444</out>
						<enabled>FALSE</enabled>
					</clipitem>
					<clipitem frameBlend="FALSE" id="clipitem-rejected-627">
						<file id="file-1"/>
						<name>[REJECTED] bandicam 2025-06-02 00-01-10-144</name>
						<rate>
							<timebase>60</timebase>
							<ntsc>TRUE</ntsc>
						</rate>
						<rate>
							<timebase>60</timebase>
							<ntsc>TRUE</ntsc>
						</rate>
						<duration>12</duration>
						<start>3480</start>
						<end>3492</end>
						<in>3480</in>
						<out>3492</out>
						<enabled>FALSE</enabled>
					</clipitem>
					<clipitem frameBlend="FALSE" id="clipitem-rejected-628">
						<file id="file-1"/>
						<name>[REJECTED] bandicam 2025-06-02 00-01-10-144</name>
						<rate>
							<timebase>60</timebase>
							<ntsc>TRUE</ntsc>
						</rate>
						<rate>
							<timebase>60</timebase>
							<ntsc>TRUE</ntsc>
						</rate>
						<duration>54</duration>
						<start>3522</start>
						<end>3576</end>
						<in>3522</in>
						<out>3576</out>
						<enabled>FALSE</enabled>
					</clipitem>
					<clipitem frameBlend="FALSE" id="clipitem-rejected-629">
						<file id="file-1"/>
						<name>[REJECTED] bandicam 2025-06-02 00-01-10-144</name>
						<rate>
							<timebase>60</timebase>
							<ntsc>TRUE</ntsc>
						</rate>
						<rate>
							<timebase>60</timebase>
							<ntsc>TRUE</ntsc>
						</rate>
						<duration>30</duration>
						<start>3588</start>
						<end>3618</end>
						<in>3588</in>
						<out>3618</out>
						<enabled>FALSE</enabled>
					</clipitem>
					<clipitem frameBlend="FALSE" id="clipitem-rejected-630">
						<file id="file-1"/>
						<name>[REJECTED] bandicam 2025-06-02 00-01-10-144</name>
						<rate>
							<timebase>60</timebase>
							<ntsc>TRUE</ntsc>
						</rate>
						<rate>
							<timebase>60</timebase>
							<ntsc>TRUE</ntsc>
						</rate>
						<duration>42</duration>
						<start>3648</start>
						<end>3690</end>
						<in>3648</in>
						<out>3690</out>
						<enabled>FALSE</enabled>
					</clipitem>
					<clipitem frameBlend="FALSE" id="clipitem-rejected-631">
						<file id="file-1"/>
						<name>[REJECTED] bandicam 2025-06-02 00-01-10-144</name>
						<rate>
							<timebase>60</timebase>
							<ntsc>TRUE</ntsc>
						</rate>
						<rate>
							<timebase>60</timebase>
							<ntsc>TRUE</ntsc>
						</rate>
						<duration>60</duration>
						<start>3702</start>
						<end>3762</end>
						<in>3702</in>
						<out>3762</out>
						<enabled>FALSE</enabled>
					</clipitem>
					<clipitem frameBlend="FALSE" id="clipitem-rejected-632">
						<file id="file-1"/>
						<name>[REJECTED] bandicam 2025-06-02 00-01-10-144</name>
						<rate>
							<timebase>60</timebase>
							<ntsc>TRUE</ntsc>
						</rate>
						<rate>
							<timebase>60</timebase>
							<ntsc>TRUE</ntsc>
						</rate>
						<duration>60</duration>
						<start>3786</start>
						<end>3846</end>
						<in>3786</in>
						<out>3846</out>
						<enabled>FALSE</enabled>
					</clipitem>
					<clipitem frameBlend="FALSE" id="clipitem-rejected-633">
						<file id="file-1"/>
						<name>[REJECTED] bandicam 2025-06-02 00-01-10-144</name>
						<rate>
							<timebase>60</timebase>
							<ntsc>TRUE</ntsc>
						</rate>
						<rate>
							<timebase>60</timebase>
							<ntsc>TRUE</ntsc>
						</rate>
						<duration>24</duration>
						<start>3876</start>
						<end>3900</end>
						<in>3876</in>
						<out>3900</out>
						<enabled>FALSE</enabled>
					</clipitem>
					<clipitem frameBlend="FALSE" id="clipitem-rejected-634">
						<file id="file-1"/>
						<name>[REJECTED] bandicam 2025-06-02 00-01-10-144</name>
						<rate>
							<timebase>60</timebase>
							<ntsc>TRUE</ntsc>
						</rate>
						<rate>
							<timebase>60</timebase>
							<ntsc>TRUE</ntsc>
						</rate>
						<duration>90</duration>
						<start>3930</start>
						<end>4020</end>
						<in>3930</in>
						<out>4020</out>
						<enabled>FALSE</enabled>
					</clipitem>
					<clipitem frameBlend="FALSE" id="clipitem-rejected-635">
						<file id="file-1"/>
						<name>[REJECTED] bandicam 2025-06-02 00-01-10-144</name>
						<rate>
							<timebase>60</timebase>
							<ntsc>TRUE</ntsc>
						</rate>
						<rate>
							<timebase>60</timebase>
							<ntsc>TRUE</ntsc>
						</rate>
						<duration>0</duration>
						<start>4038</start>
						<end>4038</end>
						<in>4038</in>
						<out>4038</out>
						<enabled>FALSE</enabled>
					</clipitem>
					<clipitem frameBlend="FALSE" id="clipitem-rejected-636">
						<file id="file-1"/>
						<name>[REJECTED] bandicam 2025-06-02 00-01-10-144</name>
						<rate>
							<timebase>60</timebase>
							<ntsc>TRUE</ntsc>
						</rate>
						<rate>
							<timebase>60</timebase>
							<ntsc>TRUE</ntsc>
						</rate>
						<duration>30</duration>
						<start>4050</start>
						<end>4080</end>
						<in>4050</in>
						<out>4080</out>
						<enabled>FALSE</enabled>
					</clipitem>
					<clipitem frameBlend="FALSE" id="clipitem-rejected-637">
						<file id="file-1"/>
						<name>[REJECTED] bandicam 2025-06-02 00-01-10-144</name>
						<rate>
							<timebase>60</timebase>
							<ntsc>TRUE</ntsc>
						</rate>
						<rate>
							<timebase>60</timebase>
							<ntsc>TRUE</ntsc>
						</rate>
						<duration>18</duration>
						<start>4164</start>
						<end>4182</end>
						<in>4164</in>
						<out>4182</out>
						<enabled>FALSE</enabled>
					</clipitem>
					<clipitem frameBlend="FALSE" id="clipitem-rejected-638">
						<file id="file-1"/>
						<name>[REJECTED] bandicam 2025-06-02 00-01-10-144</name>
						<rate>
							<timebase>60</timebase>
							<ntsc>TRUE</ntsc>
						</rate>
						<rate>
							<timebase>60</timebase>
							<ntsc>TRUE</ntsc>
						</rate>
						<duration>18</duration>
						<start>4206</start>
						<end>4224</end>
						<in>4206</in>
						<out>4224</out>
						<enabled>FALSE</enabled>
					</clipitem>
					<clipitem frameBlend="FALSE" id="clipitem-rejected-639">
						<file id="file-1"/>
						<name>[REJECTED] bandicam 2025-06-02 00-01-10-144</name>
						<rate>
							<timebase>60</timebase>
							<ntsc>TRUE</ntsc>
						</rate>
						<rate>
							<timebase>60</timebase>
							<ntsc>TRUE</ntsc>
						</rate>
						<duration>18</duration>
						<start>4278</start>
						<end>4296</end>
						<in>4278</in>
						<out>4296</out>
						<enabled>FALSE</enabled>
					</clipitem>
					<clipitem frameBlend="FALSE" id="clipitem-rejected-640">
						<file id="file-1"/>
						<name>[REJECTED] bandicam 2025-06-02 00-01-10-144</name>
						<rate>
							<timebase>60</timebase>
							<ntsc>TRUE</ntsc>
						</rate>
						<rate>
							<timebase>60</timebase>
							<ntsc>TRUE</ntsc>
						</rate>
						<duration>24</duration>
						<start>4440</start>
						<end>4464</end>
						<in>4440</in>
						<out>4464</out>
						<enabled>FALSE</enabled>
					</clipitem>
					<clipitem frameBlend="FALSE" id="clipitem-rejected-641">
						<file id="file-1"/>
						<name>[REJECTED] bandicam 2025-06-02 00-01-10-144</name>
						<rate>
							<timebase>60</timebase>
							<ntsc>TRUE</ntsc>
						</rate>
						<rate>
							<timebase>60</timebase>
							<ntsc>TRUE</ntsc>
						</rate>
						<duration>12</duration>
						<start>4488</start>
						<end>4500</end>
						<in>4488</in>
						<out>4500</out>
						<enabled>FALSE</enabled>
					</clipitem>
					<clipitem frameBlend="FALSE" id="clipitem-rejected-642">
						<file id="file-1"/>
						<name>[REJECTED] bandicam 2025-06-02 00-01-10-144</name>
						<rate>
							<timebase>60</timebase>
							<ntsc>TRUE</ntsc>
						</rate>
						<rate>
							<timebase>60</timebase>
							<ntsc>TRUE</ntsc>
						</rate>
						<duration>36</duration>
						<start>4560</start>
						<end>4596</end>
						<in>4560</in>
						<out>4596</out>
						<enabled>FALSE</enabled>
					</clipitem>
					<clipitem frameBlend="FALSE" id="clipitem-rejected-643">
						<file id="file-1"/>
						<name>[REJECTED] bandicam 2025-06-02 00-01-10-144</name>
						<rate>
							<timebase>60</timebase>
							<ntsc>TRUE</ntsc>
						</rate>
						<rate>
							<timebase>60</timebase>
							<ntsc>TRUE</ntsc>
						</rate>
						<duration>6</duration>
						<start>4638</start>
						<end>4644</end>
						<in>4638</in>
						<out>4644</out>
						<enabled>FALSE</enabled>
					</clipitem>
					<clipitem frameBlend="FALSE" id="clipitem-rejected-644">
						<file id="file-1"/>
						<name>[REJECTED] bandicam 2025-06-02 00-01-10-144</name>
						<rate>
							<timebase>60</timebase>
							<ntsc>TRUE</ntsc>
						</rate>
						<rate>
							<timebase>60</timebase>
							<ntsc>TRUE</ntsc>
						</rate>
						<duration>24</duration>
						<start>4674</start>
						<end>4698</end>
						<in>4674</in>
						<out>4698</out>
						<enabled>FALSE</enabled>
					</clipitem>
					<clipitem frameBlend="FALSE" id="clipitem-rejected-645">
						<file id="file-1"/>
						<name>[REJECTED] bandicam 2025-06-02 00-01-10-144</name>
						<rate>
							<timebase>60</timebase>
							<ntsc>TRUE</ntsc>
						</rate>
						<rate>
							<timebase>60</timebase>
							<ntsc>TRUE</ntsc>
						</rate>
						<duration>6</duration>
						<start>4710</start>
						<end>4716</end>
						<in>4710</in>
						<out>4716</out>
						<enabled>FALSE</enabled>
					</clipitem>
					<clipitem frameBlend="FALSE" id="clipitem-rejected-646">
						<file id="file-1"/>
						<name>[REJECTED] bandicam 2025-06-02 00-01-10-144</name>
						<rate>
							<timebase>60</timebase>
							<ntsc>TRUE</ntsc>
						</rate>
						<rate>
							<timebase>60</timebase>
							<ntsc>TRUE</ntsc>
						</rate>
						<duration>6</duration>
						<start>4776</start>
						<end>4782</end>
						<in>4776</in>
						<out>4782</out>
						<enabled>FALSE</enabled>
					</clipitem>
					<clipitem frameBlend="FALSE" id="clipitem-rejected-647">
						<file id="file-1"/>
						<name>[REJECTED] bandicam 2025-06-02 00-01-10-144</name>
						<rate>
							<timebase>60</timebase>
							<ntsc>TRUE</ntsc>
						</rate>
						<rate>
							<timebase>60</timebase>
							<ntsc>TRUE</ntsc>
						</rate>
						<duration>30</duration>
						<start>4812</start>
						<end>4842</end>
						<in>4812</in>
						<out>4842</out>
						<enabled>FALSE</enabled>
					</clipitem>
					<clipitem frameBlend="FALSE" id="clipitem-rejected-648">
						<file id="file-1"/>
						<name>[REJECTED] bandicam 2025-06-02 00-01-10-144</name>
						<rate>
							<timebase>60</timebase>
							<ntsc>TRUE</ntsc>
						</rate>
						<rate>
							<timebase>60</timebase>
							<ntsc>TRUE</ntsc>
						</rate>
						<duration>0</duration>
						<start>4854</start>
						<end>4854</end>
						<in>4854</in>
						<out>4854</out>
						<enabled>FALSE</enabled>
					</clipitem>
					<clipitem frameBlend="FALSE" id="clipitem-rejected-649">
						<file id="file-1"/>
						<name>[REJECTED] bandicam 2025-06-02 00-01-10-144</name>
						<rate>
							<timebase>60</timebase>
							<ntsc>TRUE</ntsc>
						</rate>
						<rate>
							<timebase>60</timebase>
							<ntsc>TRUE</ntsc>
						</rate>
						<duration>6</duration>
						<start>4878</start>
						<end>4884</end>
						<in>4878</in>
						<out>4884</out>
						<enabled>FALSE</enabled>
					</clipitem>
					<clipitem frameBlend="FALSE" id="clipitem-rejected-650">
						<file id="file-1"/>
						<name>[REJECTED] bandicam 2025-06-02 00-01-10-144</name>
						<rate>
							<timebase>60</timebase>
							<ntsc>TRUE</ntsc>
						</rate>
						<rate>
							<timebase>60</timebase>
							<ntsc>TRUE</ntsc>
						</rate>
						<duration>0</duration>
						<start>4902</start>
						<end>4902</end>
						<in>4902</in>
						<out>4902</out>
						<enabled>FALSE</enabled>
					</clipitem>
					<clipitem frameBlend="FALSE" id="clipitem-rejected-651">
						<file id="file-1"/>
						<name>[REJECTED] bandicam 2025-06-02 00-01-10-144</name>
						<rate>
							<timebase>60</timebase>
							<ntsc>TRUE</ntsc>
						</rate>
						<rate>
							<timebase>60</timebase>
							<ntsc>TRUE</ntsc>
						</rate>
						<duration>6</duration>
						<start>4932</start>
						<end>4938</end>
						<in>4932</in>
						<out>4938</out>
						<enabled>FALSE</enabled>
					</clipitem>
					<clipitem frameBlend="FALSE" id="clipitem-rejected-652">
						<file id="file-1"/>
						<name>[REJECTED] bandicam 2025-06-02 00-01-10-144</name>
						<rate>
							<timebase>60</timebase>
							<ntsc>TRUE</ntsc>
						</rate>
						<rate>
							<timebase>60</timebase>
							<ntsc>TRUE</ntsc>
						</rate>
						<duration>36</duration>
						<start>4980</start>
						<end>5016</end>
						<in>4980</in>
						<out>5016</out>
						<enabled>FALSE</enabled>
					</clipitem>
					<clipitem frameBlend="FALSE" id="clipitem-rejected-653">
						<file id="file-1"/>
						<name>[REJECTED] bandicam 2025-06-02 00-01-10-144</name>
						<rate>
							<timebase>60</timebase>
							<ntsc>TRUE</ntsc>
						</rate>
						<rate>
							<timebase>60</timebase>
							<ntsc>TRUE</ntsc>
						</rate>
						<duration>12</duration>
						<start>5046</start>
						<end>5058</end>
						<in>5046</in>
						<out>5058</out>
						<enabled>FALSE</enabled>
					</clipitem>
					<clipitem frameBlend="FALSE" id="clipitem-rejected-654">
						<file id="file-1"/>
						<name>[REJECTED] bandicam 2025-06-02 00-01-10-144</name>
						<rate>
							<timebase>60</timebase>
							<ntsc>TRUE</ntsc>
						</rate>
						<rate>
							<timebase>60</timebase>
							<ntsc>TRUE</ntsc>
						</rate>
						<duration>0</duration>
						<start>5076</start>
						<end>5076</end>
						<in>5076</in>
						<out>5076</out>
						<enabled>FALSE</enabled>
					</clipitem>
					<clipitem frameBlend="FALSE" id="clipitem-rejected-655">
						<file id="file-1"/>
						<name>[REJECTED] bandicam 2025-06-02 00-01-10-144</name>
						<rate>
							<timebase>60</timebase>
							<ntsc>TRUE</ntsc>
						</rate>
						<rate>
							<timebase>60</timebase>
							<ntsc>TRUE</ntsc>
						</rate>
						<duration>0</duration>
						<start>5088</start>
						<end>5088</end>
						<in>5088</in>
						<out>5088</out>
						<enabled>FALSE</enabled>
					</clipitem>
					<clipitem frameBlend="FALSE" id="clipitem-rejected-656">
						<file id="file-1"/>
						<name>[REJECTED] bandicam 2025-06-02 00-01-10-144</name>
						<rate>
							<timebase>60</timebase>
							<ntsc>TRUE</ntsc>
						</rate>
						<rate>
							<timebase>60</timebase>
							<ntsc>TRUE</ntsc>
						</rate>
						<duration>42</duration>
						<start>5184</start>
						<end>5226</end>
						<in>5184</in>
						<out>5226</out>
						<enabled>FALSE</enabled>
					</clipitem>
					<clipitem frameBlend="FALSE" id="clipitem-rejected-657">
						<file id="file-1"/>
						<name>[REJECTED] bandicam 2025-06-02 00-01-10-144</name>
						<rate>
							<timebase>60</timebase>
							<ntsc>TRUE</ntsc>
						</rate>
						<rate>
							<timebase>60</timebase>
							<ntsc>TRUE</ntsc>
						</rate>
						<duration>66</duration>
						<start>5256</start>
						<end>5322</end>
						<in>5256</in>
						<out>5322</out>
						<enabled>FALSE</enabled>
					</clipitem>
					<clipitem frameBlend="FALSE" id="clipitem-rejected-658">
						<file id="file-1"/>
						<name>[REJECTED] bandicam 2025-06-02 00-01-10-144</name>
						<rate>
							<timebase>60</timebase>
							<ntsc>TRUE</ntsc>
						</rate>
						<rate>
							<timebase>60</timebase>
							<ntsc>TRUE</ntsc>
						</rate>
						<duration>0</duration>
						<start>5346</start>
						<end>5346</end>
						<in>5346</in>
						<out>5346</out>
						<enabled>FALSE</enabled>
					</clipitem>
					<clipitem frameBlend="FALSE" id="clipitem-rejected-659">
						<file id="file-1"/>
						<name>[REJECTED] bandicam 2025-06-02 00-01-10-144</name>
						<rate>
							<timebase>60</timebase>
							<ntsc>TRUE</ntsc>
						</rate>
						<rate>
							<timebase>60</timebase>
							<ntsc>TRUE</ntsc>
						</rate>
						<duration>18</duration>
						<start>5358</start>
						<end>5376</end>
						<in>5358</in>
						<out>5376</out>
						<enabled>FALSE</enabled>
					</clipitem>
					<clipitem frameBlend="FALSE" id="clipitem-rejected-660">
						<file id="file-1"/>
						<name>[REJECTED] bandicam 2025-06-02 00-01-10-144</name>
						<rate>
							<timebase>60</timebase>
							<ntsc>TRUE</ntsc>
						</rate>
						<rate>
							<timebase>60</timebase>
							<ntsc>TRUE</ntsc>
						</rate>
						<duration>0</duration>
						<start>5406</start>
						<end>5406</end>
						<in>5406</in>
						<out>5406</out>
						<enabled>FALSE</enabled>
					</clipitem>
					<clipitem frameBlend="FALSE" id="clipitem-rejected-661">
						<file id="file-1"/>
						<name>[REJECTED] bandicam 2025-06-02 00-01-10-144</name>
						<rate>
							<timebase>60</timebase>
							<ntsc>TRUE</ntsc>
						</rate>
						<rate>
							<timebase>60</timebase>
							<ntsc>TRUE</ntsc>
						</rate>
						<duration>6</duration>
						<start>5454</start>
						<end>5460</end>
						<in>5454</in>
						<out>5460</out>
						<enabled>FALSE</enabled>
					</clipitem>
					<clipitem frameBlend="FALSE" id="clipitem-rejected-662">
						<file id="file-1"/>
						<name>[REJECTED] bandicam 2025-06-02 00-01-10-144</name>
						<rate>
							<timebase>60</timebase>
							<ntsc>TRUE</ntsc>
						</rate>
						<rate>
							<timebase>60</timebase>
							<ntsc>TRUE</ntsc>
						</rate>
						<duration>12</duration>
						<start>5472</start>
						<end>5484</end>
						<in>5472</in>
						<out>5484</out>
						<enabled>FALSE</enabled>
					</clipitem>
					<clipitem frameBlend="FALSE" id="clipitem-rejected-663">
						<file id="file-1"/>
						<name>[REJECTED] bandicam 2025-06-02 00-01-10-144</name>
						<rate>
							<timebase>60</timebase>
							<ntsc>TRUE</ntsc>
						</rate>
						<rate>
							<timebase>60</timebase>
							<ntsc>TRUE</ntsc>
						</rate>
						<duration>0</duration>
						<start>5514</start>
						<end>5514</end>
						<in>5514</in>
						<out>5514</out>
						<enabled>FALSE</enabled>
					</clipitem>
					<clipitem frameBlend="FALSE" id="clipitem-rejected-664">
						<file id="file-1"/>
						<name>[REJECTED] bandicam 2025-06-02 00-01-10-144</name>
						<rate>
							<timebase>60</timebase>
							<ntsc>TRUE</ntsc>
						</rate>
						<rate>
							<timebase>60</timebase>
							<ntsc>TRUE</ntsc>
						</rate>
						<duration>0</duration>
						<start>5526</start>
						<end>5526</end>
						<in>5526</in>
						<out>5526</out>
						<enabled>FALSE</enabled>
					</clipitem>
					<clipitem frameBlend="FALSE" id="clipitem-rejected-665">
						<file id="file-1"/>
						<name>[REJECTED] bandicam 2025-06-02 00-01-10-144</name>
						<rate>
							<timebase>60</timebase>
							<ntsc>TRUE</ntsc>
						</rate>
						<rate>
							<timebase>60</timebase>
							<ntsc>TRUE</ntsc>
						</rate>
						<duration>18</duration>
						<start>5556</start>
						<end>5574</end>
						<in>5556</in>
						<out>5574</out>
						<enabled>FALSE</enabled>
					</clipitem>
					<clipitem frameBlend="FALSE" id="clipitem-rejected-666">
						<file id="file-1"/>
						<name>[REJECTED] bandicam 2025-06-02 00-01-10-144</name>
						<rate>
							<timebase>60</timebase>
							<ntsc>TRUE</ntsc>
						</rate>
						<rate>
							<timebase>60</timebase>
							<ntsc>TRUE</ntsc>
						</rate>
						<duration>12</duration>
						<start>5604</start>
						<end>5616</end>
						<in>5604</in>
						<out>5616</out>
						<enabled>FALSE</enabled>
					</clipitem>
					<clipitem frameBlend="FALSE" id="clipitem-rejected-667">
						<file id="file-1"/>
						<name>[REJECTED] bandicam 2025-06-02 00-01-10-144</name>
						<rate>
							<timebase>60</timebase>
							<ntsc>TRUE</ntsc>
						</rate>
						<rate>
							<timebase>60</timebase>
							<ntsc>TRUE</ntsc>
						</rate>
						<duration>12</duration>
						<start>5646</start>
						<end>5658</end>
						<in>5646</in>
						<out>5658</out>
						<enabled>FALSE</enabled>
					</clipitem>
					<clipitem frameBlend="FALSE" id="clipitem-rejected-668">
						<file id="file-1"/>
						<name>[REJECTED] bandicam 2025-06-02 00-01-10-144</name>
						<rate>
							<timebase>60</timebase>
							<ntsc>TRUE</ntsc>
						</rate>
						<rate>
							<timebase>60</timebase>
							<ntsc>TRUE</ntsc>
						</rate>
						<duration>18</duration>
						<start>5700</start>
						<end>5718</end>
						<in>5700</in>
						<out>5718</out>
						<enabled>FALSE</enabled>
					</clipitem>
					<clipitem frameBlend="FALSE" id="clipitem-rejected-669">
						<file id="file-1"/>
						<name>[REJECTED] bandicam 2025-06-02 00-01-10-144</name>
						<rate>
							<timebase>60</timebase>
							<ntsc>TRUE</ntsc>
						</rate>
						<rate>
							<timebase>60</timebase>
							<ntsc>TRUE</ntsc>
						</rate>
						<duration>12</duration>
						<start>5730</start>
						<end>5742</end>
						<in>5730</in>
						<out>5742</out>
						<enabled>FALSE</enabled>
					</clipitem>
					<clipitem frameBlend="FALSE" id="clipitem-rejected-670">
						<file id="file-1"/>
						<name>[REJECTED] bandicam 2025-06-02 00-01-10-144</name>
						<rate>
							<timebase>60</timebase>
							<ntsc>TRUE</ntsc>
						</rate>
						<rate>
							<timebase>60</timebase>
							<ntsc>TRUE</ntsc>
						</rate>
						<duration>12</duration>
						<start>5784</start>
						<end>5796</end>
						<in>5784</in>
						<out>5796</out>
						<enabled>FALSE</enabled>
					</clipitem>
					<clipitem frameBlend="FALSE" id="clipitem-rejected-671">
						<file id="file-1"/>
						<name>[REJECTED] bandicam 2025-06-02 00-01-10-144</name>
						<rate>
							<timebase>60</timebase>
							<ntsc>TRUE</ntsc>
						</rate>
						<rate>
							<timebase>60</timebase>
							<ntsc>TRUE</ntsc>
						</rate>
						<duration>0</duration>
						<start>5904</start>
						<end>5904</end>
						<in>5904</in>
						<out>5904</out>
						<enabled>FALSE</enabled>
					</clipitem>
					<clipitem frameBlend="FALSE" id="clipitem-rejected-672">
						<file id="file-1"/>
						<name>[REJECTED] bandicam 2025-06-02 00-01-10-144</name>
						<rate>
							<timebase>60</timebase>
							<ntsc>TRUE</ntsc>
						</rate>
						<rate>
							<timebase>60</timebase>
							<ntsc>TRUE</ntsc>
						</rate>
						<duration>6</duration>
						<start>5988</start>
						<end>5994</end>
						<in>5988</in>
						<out>5994</out>
						<enabled>FALSE</enabled>
					</clipitem>
					<clipitem frameBlend="FALSE" id="clipitem-rejected-673">
						<file id="file-1"/>
						<name>[REJECTED] bandicam 2025-06-02 00-01-10-144</name>
						<rate>
							<timebase>60</timebase>
							<ntsc>TRUE</ntsc>
						</rate>
						<rate>
							<timebase>60</timebase>
							<ntsc>TRUE</ntsc>
						</rate>
						<duration>6</duration>
						<start>6042</start>
						<end>6048</end>
						<in>6042</in>
						<out>6048</out>
						<enabled>FALSE</enabled>
					</clipitem>
					<clipitem frameBlend="FALSE" id="clipitem-rejected-674">
						<file id="file-1"/>
						<name>[REJECTED] bandicam 2025-06-02 00-01-10-144</name>
						<rate>
							<timebase>60</timebase>
							<ntsc>TRUE</ntsc>
						</rate>
						<rate>
							<timebase>60</timebase>
							<ntsc>TRUE</ntsc>
						</rate>
						<duration>48</duration>
						<start>6078</start>
						<end>6126</end>
						<in>6078</in>
						<out>6126</out>
						<enabled>FALSE</enabled>
					</clipitem>
					<clipitem frameBlend="FALSE" id="clipitem-rejected-675">
						<file id="file-1"/>
						<name>[REJECTED] bandicam 2025-06-02 00-01-10-144</name>
						<rate>
							<timebase>60</timebase>
							<ntsc>TRUE</ntsc>
						</rate>
						<rate>
							<timebase>60</timebase>
							<ntsc>TRUE</ntsc>
						</rate>
						<duration>12</duration>
						<start>6138</start>
						<end>6150</end>
						<in>6138</in>
						<out>6150</out>
						<enabled>FALSE</enabled>
					</clipitem>
					<clipitem frameBlend="FALSE" id="clipitem-rejected-676">
						<file id="file-1"/>
						<name>[REJECTED] bandicam 2025-06-02 00-01-10-144</name>
						<rate>
							<timebase>60</timebase>
							<ntsc>TRUE</ntsc>
						</rate>
						<rate>
							<timebase>60</timebase>
							<ntsc>TRUE</ntsc>
						</rate>
						<duration>6</duration>
						<start>6210</start>
						<end>6216</end>
						<in>6210</in>
						<out>6216</out>
						<enabled>FALSE</enabled>
					</clipitem>
					<clipitem frameBlend="FALSE" id="clipitem-rejected-677">
						<file id="file-1"/>
						<name>[REJECTED] bandicam 2025-06-02 00-01-10-144</name>
						<rate>
							<timebase>60</timebase>
							<ntsc>TRUE</ntsc>
						</rate>
						<rate>
							<timebase>60</timebase>
							<ntsc>TRUE</ntsc>
						</rate>
						<duration>12</duration>
						<start>6264</start>
						<end>6276</end>
						<in>6264</in>
						<out>6276</out>
						<enabled>FALSE</enabled>
					</clipitem>
					<clipitem frameBlend="FALSE" id="clipitem-rejected-678">
						<file id="file-1"/>
						<name>[REJECTED] bandicam 2025-06-02 00-01-10-144</name>
						<rate>
							<timebase>60</timebase>
							<ntsc>TRUE</ntsc>
						</rate>
						<rate>
							<timebase>60</timebase>
							<ntsc>TRUE</ntsc>
						</rate>
						<duration>18</duration>
						<start>6288</start>
						<end>6306</end>
						<in>6288</in>
						<out>6306</out>
						<enabled>FALSE</enabled>
					</clipitem>
					<clipitem frameBlend="FALSE" id="clipitem-rejected-679">
						<file id="file-1"/>
						<name>[REJECTED] bandicam 2025-06-02 00-01-10-144</name>
						<rate>
							<timebase>60</timebase>
							<ntsc>TRUE</ntsc>
						</rate>
						<rate>
							<timebase>60</timebase>
							<ntsc>TRUE</ntsc>
						</rate>
						<duration>42</duration>
						<start>6336</start>
						<end>6378</end>
						<in>6336</in>
						<out>6378</out>
						<enabled>FALSE</enabled>
					</clipitem>
					<clipitem frameBlend="FALSE" id="clipitem-rejected-680">
						<file id="file-1"/>
						<name>[REJECTED] bandicam 2025-06-02 00-01-10-144</name>
						<rate>
							<timebase>60</timebase>
							<ntsc>TRUE</ntsc>
						</rate>
						<rate>
							<timebase>60</timebase>
							<ntsc>TRUE</ntsc>
						</rate>
						<duration>18</duration>
						<start>6408</start>
						<end>6426</end>
						<in>6408</in>
						<out>6426</out>
						<enabled>FALSE</enabled>
					</clipitem>
					<clipitem frameBlend="FALSE" id="clipitem-rejected-681">
						<file id="file-1"/>
						<name>[REJECTED] bandicam 2025-06-02 00-01-10-144</name>
						<rate>
							<timebase>60</timebase>
							<ntsc>TRUE</ntsc>
						</rate>
						<rate>
							<timebase>60</timebase>
							<ntsc>TRUE</ntsc>
						</rate>
						<duration>24</duration>
						<start>6456</start>
						<end>6480</end>
						<in>6456</in>
						<out>6480</out>
						<enabled>FALSE</enabled>
					</clipitem>
					<clipitem frameBlend="FALSE" id="clipitem-rejected-682">
						<file id="file-1"/>
						<name>[REJECTED] bandicam 2025-06-02 00-01-10-144</name>
						<rate>
							<timebase>60</timebase>
							<ntsc>TRUE</ntsc>
						</rate>
						<rate>
							<timebase>60</timebase>
							<ntsc>TRUE</ntsc>
						</rate>
						<duration>0</duration>
						<start>6492</start>
						<end>6492</end>
						<in>6492</in>
						<out>6492</out>
						<enabled>FALSE</enabled>
					</clipitem>
					<clipitem frameBlend="FALSE" id="clipitem-rejected-683">
						<file id="file-1"/>
						<name>[REJECTED] bandicam 2025-06-02 00-01-10-144</name>
						<rate>
							<timebase>60</timebase>
							<ntsc>TRUE</ntsc>
						</rate>
						<rate>
							<timebase>60</timebase>
							<ntsc>TRUE</ntsc>
						</rate>
						<duration>30</duration>
						<start>6540</start>
						<end>6570</end>
						<in>6540</in>
						<out>6570</out>
						<enabled>FALSE</enabled>
					</clipitem>
					<clipitem frameBlend="FALSE" id="clipitem-rejected-684">
						<file id="file-1"/>
						<name>[REJECTED] bandicam 2025-06-02 00-01-10-144</name>
						<rate>
							<timebase>60</timebase>
							<ntsc>TRUE</ntsc>
						</rate>
						<rate>
							<timebase>60</timebase>
							<ntsc>TRUE</ntsc>
						</rate>
						<duration>18</duration>
						<start>6588</start>
						<end>6606</end>
						<in>6588</in>
						<out>6606</out>
						<enabled>FALSE</enabled>
					</clipitem>
					<clipitem frameBlend="FALSE" id="clipitem-rejected-685">
						<file id="file-1"/>
						<name>[REJECTED] bandicam 2025-06-02 00-01-10-144</name>
						<rate>
							<timebase>60</timebase>
							<ntsc>TRUE</ntsc>
						</rate>
						<rate>
							<timebase>60</timebase>
							<ntsc>TRUE</ntsc>
						</rate>
						<duration>108</duration>
						<start>6636</start>
						<end>6744</end>
						<in>6636</in>
						<out>6744</out>
						<enabled>FALSE</enabled>
					</clipitem>
					<clipitem frameBlend="FALSE" id="clipitem-rejected-686">
						<file id="file-1"/>
						<name>[REJECTED] bandicam 2025-06-02 00-01-10-144</name>
						<rate>
							<timebase>60</timebase>
							<ntsc>TRUE</ntsc>
						</rate>
						<rate>
							<timebase>60</timebase>
							<ntsc>TRUE</ntsc>
						</rate>
						<duration>36</duration>
						<start>6768</start>
						<end>6804</end>
						<in>6768</in>
						<out>6804</out>
						<enabled>FALSE</enabled>
					</clipitem>
					<clipitem frameBlend="FALSE" id="clipitem-rejected-687">
						<file id="file-1"/>
						<name>[REJECTED] bandicam 2025-06-02 00-01-10-144</name>
						<rate>
							<timebase>60</timebase>
							<ntsc>TRUE</ntsc>
						</rate>
						<rate>
							<timebase>60</timebase>
							<ntsc>TRUE</ntsc>
						</rate>
						<duration>0</duration>
						<start>6822</start>
						<end>6822</end>
						<in>6822</in>
						<out>6822</out>
						<enabled>FALSE</enabled>
					</clipitem>
					<clipitem frameBlend="FALSE" id="clipitem-rejected-688">
						<file id="file-1"/>
						<name>[REJECTED] bandicam 2025-06-02 00-01-10-144</name>
						<rate>
							<timebase>60</timebase>
							<ntsc>TRUE</ntsc>
						</rate>
						<rate>
							<timebase>60</timebase>
							<ntsc>TRUE</ntsc>
						</rate>
						<duration>36</duration>
						<start>6852</start>
						<end>6888</end>
						<in>6852</in>
						<out>6888</out>
						<enabled>FALSE</enabled>
					</clipitem>
					<clipitem frameBlend="FALSE" id="clipitem-rejected-689">
						<file id="file-1"/>
						<name>[REJECTED] bandicam 2025-06-02 00-01-10-144</name>
						<rate>
							<timebase>60</timebase>
							<ntsc>TRUE</ntsc>
						</rate>
						<rate>
							<timebase>60</timebase>
							<ntsc>TRUE</ntsc>
						</rate>
						<duration>0</duration>
						<start>6906</start>
						<end>6906</end>
						<in>6906</in>
						<out>6906</out>
						<enabled>FALSE</enabled>
					</clipitem>
					<clipitem frameBlend="FALSE" id="clipitem-rejected-690">
						<file id="file-1"/>
						<name>[REJECTED] bandicam 2025-06-02 00-01-10-144</name>
						<rate>
							<timebase>60</timebase>
							<ntsc>TRUE</ntsc>
						</rate>
						<rate>
							<timebase>60</timebase>
							<ntsc>TRUE</ntsc>
						</rate>
						<duration>12</duration>
						<start>6936</start>
						<end>6948</end>
						<in>6936</in>
						<out>6948</out>
						<enabled>FALSE</enabled>
					</clipitem>
					<clipitem frameBlend="FALSE" id="clipitem-rejected-691">
						<file id="file-1"/>
						<name>[REJECTED] bandicam 2025-06-02 00-01-10-144</name>
						<rate>
							<timebase>60</timebase>
							<ntsc>TRUE</ntsc>
						</rate>
						<rate>
							<timebase>60</timebase>
							<ntsc>TRUE</ntsc>
						</rate>
						<duration>36</duration>
						<start>6960</start>
						<end>6996</end>
						<in>6960</in>
						<out>6996</out>
						<enabled>FALSE</enabled>
					</clipitem>
					<clipitem frameBlend="FALSE" id="clipitem-rejected-692">
						<file id="file-1"/>
						<name>[REJECTED] bandicam 2025-06-02 00-01-10-144</name>
						<rate>
							<timebase>60</timebase>
							<ntsc>TRUE</ntsc>
						</rate>
						<rate>
							<timebase>60</timebase>
							<ntsc>TRUE</ntsc>
						</rate>
						<duration>12</duration>
						<start>7008</start>
						<end>7020</end>
						<in>7008</in>
						<out>7020</out>
						<enabled>FALSE</enabled>
					</clipitem>
					<clipitem frameBlend="FALSE" id="clipitem-rejected-693">
						<file id="file-1"/>
						<name>[REJECTED] bandicam 2025-06-02 00-01-10-144</name>
						<rate>
							<timebase>60</timebase>
							<ntsc>TRUE</ntsc>
						</rate>
						<rate>
							<timebase>60</timebase>
							<ntsc>TRUE</ntsc>
						</rate>
						<duration>18</duration>
						<start>7050</start>
						<end>7068</end>
						<in>7050</in>
						<out>7068</out>
						<enabled>FALSE</enabled>
					</clipitem>
					<clipitem frameBlend="FALSE" id="clipitem-rejected-694">
						<file id="file-1"/>
						<name>[REJECTED] bandicam 2025-06-02 00-01-10-144</name>
						<rate>
							<timebase>60</timebase>
							<ntsc>TRUE</ntsc>
						</rate>
						<rate>
							<timebase>60</timebase>
							<ntsc>TRUE</ntsc>
						</rate>
						<duration>6</duration>
						<start>0</start>
						<end>6</end>
						<in>0</in>
						<out>6</out>
						<enabled>FALSE</enabled>
					</clipitem>
					<clipitem frameBlend="FALSE" id="clipitem-rejected-695">
						<file id="file-1"/>
						<name>[REJECTED] bandicam 2025-06-02 00-01-10-144</name>
						<rate>
							<timebase>60</timebase>
							<ntsc>TRUE</ntsc>
						</rate>
						<rate>
							<timebase>60</timebase>
							<ntsc>TRUE</ntsc>
						</rate>
						<duration>30</duration>
						<start>24</start>
						<end>54</end>
						<in>24</in>
						<out>54</out>
						<enabled>FALSE</enabled>
					</clipitem>
					<clipitem frameBlend="FALSE" id="clipitem-rejected-696">
						<file id="file-1"/>
						<name>[REJECTED] bandicam 2025-06-02 00-01-10-144</name>
						<rate>
							<timebase>60</timebase>
							<ntsc>TRUE</ntsc>
						</rate>
						<rate>
							<timebase>60</timebase>
							<ntsc>TRUE</ntsc>
						</rate>
						<duration>6</duration>
						<start>66</start>
						<end>72</end>
						<in>66</in>
						<out>72</out>
						<enabled>FALSE</enabled>
					</clipitem>
					<clipitem frameBlend="FALSE" id="clipitem-rejected-697">
						<file id="file-1"/>
						<name>[REJECTED] bandicam 2025-06-02 00-01-10-144</name>
						<rate>
							<timebase>60</timebase>
							<ntsc>TRUE</ntsc>
						</rate>
						<rate>
							<timebase>60</timebase>
							<ntsc>TRUE</ntsc>
						</rate>
						<duration>6</duration>
						<start>96</start>
						<end>102</end>
						<in>96</in>
						<out>102</out>
						<enabled>FALSE</enabled>
					</clipitem>
					<clipitem frameBlend="FALSE" id="clipitem-rejected-698">
						<file id="file-1"/>
						<name>[REJECTED] bandicam 2025-06-02 00-01-10-144</name>
						<rate>
							<timebase>60</timebase>
							<ntsc>TRUE</ntsc>
						</rate>
						<rate>
							<timebase>60</timebase>
							<ntsc>TRUE</ntsc>
						</rate>
						<duration>36</duration>
						<start>132</start>
						<end>168</end>
						<in>132</in>
						<out>168</out>
						<enabled>FALSE</enabled>
					</clipitem>
					<clipitem frameBlend="FALSE" id="clipitem-rejected-699">
						<file id="file-1"/>
						<name>[REJECTED] bandicam 2025-06-02 00-01-10-144</name>
						<rate>
							<timebase>60</timebase>
							<ntsc>TRUE</ntsc>
						</rate>
						<rate>
							<timebase>60</timebase>
							<ntsc>TRUE</ntsc>
						</rate>
						<duration>102</duration>
						<start>192</start>
						<end>294</end>
						<in>192</in>
						<out>294</out>
						<enabled>FALSE</enabled>
					</clipitem>
					<clipitem frameBlend="FALSE" id="clipitem-rejected-700">
						<file id="file-1"/>
						<name>[REJECTED] bandicam 2025-06-02 00-01-10-144</name>
						<rate>
							<timebase>60</timebase>
							<ntsc>TRUE</ntsc>
						</rate>
						<rate>
							<timebase>60</timebase>
							<ntsc>TRUE</ntsc>
						</rate>
						<duration>48</duration>
						<start>306</start>
						<end>354</end>
						<in>306</in>
						<out>354</out>
						<enabled>FALSE</enabled>
					</clipitem>
					<clipitem frameBlend="FALSE" id="clipitem-rejected-701">
						<file id="file-1"/>
						<name>[REJECTED] bandicam 2025-06-02 00-01-10-144</name>
						<rate>
							<timebase>60</timebase>
							<ntsc>TRUE</ntsc>
						</rate>
						<rate>
							<timebase>60</timebase>
							<ntsc>TRUE</ntsc>
						</rate>
						<duration>54</duration>
						<start>378</start>
						<end>432</end>
						<in>378</in>
						<out>432</out>
						<enabled>FALSE</enabled>
					</clipitem>
					<clipitem frameBlend="FALSE" id="clipitem-rejected-702">
						<file id="file-1"/>
						<name>[REJECTED] bandicam 2025-06-02 00-01-10-144</name>
						<rate>
							<timebase>60</timebase>
							<ntsc>TRUE</ntsc>
						</rate>
						<rate>
							<timebase>60</timebase>
							<ntsc>TRUE</ntsc>
						</rate>
						<duration>0</duration>
						<start>444</start>
						<end>444</end>
						<in>444</in>
						<out>444</out>
						<enabled>FALSE</enabled>
					</clipitem>
					<clipitem frameBlend="FALSE" id="clipitem-rejected-703">
						<file id="file-1"/>
						<name>[REJECTED] bandicam 2025-06-02 00-01-10-144</name>
						<rate>
							<timebase>60</timebase>
							<ntsc>TRUE</ntsc>
						</rate>
						<rate>
							<timebase>60</timebase>
							<ntsc>TRUE</ntsc>
						</rate>
						<duration>6</duration>
						<start>492</start>
						<end>498</end>
						<in>492</in>
						<out>498</out>
						<enabled>FALSE</enabled>
					</clipitem>
					<clipitem frameBlend="FALSE" id="clipitem-rejected-704">
						<file id="file-1"/>
						<name>[REJECTED] bandicam 2025-06-02 00-01-10-144</name>
						<rate>
							<timebase>60</timebase>
							<ntsc>TRUE</ntsc>
						</rate>
						<rate>
							<timebase>60</timebase>
							<ntsc>TRUE</ntsc>
						</rate>
						<duration>12</duration>
						<start>510</start>
						<end>522</end>
						<in>510</in>
						<out>522</out>
						<enabled>FALSE</enabled>
					</clipitem>
					<clipitem frameBlend="FALSE" id="clipitem-rejected-705">
						<file id="file-1"/>
						<name>[REJECTED] bandicam 2025-06-02 00-01-10-144</name>
						<rate>
							<timebase>60</timebase>
							<ntsc>TRUE</ntsc>
						</rate>
						<rate>
							<timebase>60</timebase>
							<ntsc>TRUE</ntsc>
						</rate>
						<duration>30</duration>
						<start>546</start>
						<end>576</end>
						<in>546</in>
						<out>576</out>
						<enabled>FALSE</enabled>
					</clipitem>
					<clipitem frameBlend="FALSE" id="clipitem-rejected-706">
						<file id="file-1"/>
						<name>[REJECTED] bandicam 2025-06-02 00-01-10-144</name>
						<rate>
							<timebase>60</timebase>
							<ntsc>TRUE</ntsc>
						</rate>
						<rate>
							<timebase>60</timebase>
							<ntsc>TRUE</ntsc>
						</rate>
						<duration>6</duration>
						<start>612</start>
						<end>618</end>
						<in>612</in>
						<out>618</out>
						<enabled>FALSE</enabled>
					</clipitem>
					<clipitem frameBlend="FALSE" id="clipitem-rejected-707">
						<file id="file-1"/>
						<name>[REJECTED] bandicam 2025-06-02 00-01-10-144</name>
						<rate>
							<timebase>60</timebase>
							<ntsc>TRUE</ntsc>
						</rate>
						<rate>
							<timebase>60</timebase>
							<ntsc>TRUE</ntsc>
						</rate>
						<duration>204</duration>
						<start>642</start>
						<end>846</end>
						<in>642</in>
						<out>846</out>
						<enabled>FALSE</enabled>
					</clipitem>
					<clipitem frameBlend="FALSE" id="clipitem-rejected-708">
						<file id="file-1"/>
						<name>[REJECTED] bandicam 2025-06-02 00-01-10-144</name>
						<rate>
							<timebase>60</timebase>
							<ntsc>TRUE</ntsc>
						</rate>
						<rate>
							<timebase>60</timebase>
							<ntsc>TRUE</ntsc>
						</rate>
						<duration>48</duration>
						<start>858</start>
						<end>906</end>
						<in>858</in>
						<out>906</out>
						<enabled>FALSE</enabled>
					</clipitem>
					<clipitem frameBlend="FALSE" id="clipitem-rejected-709">
						<file id="file-1"/>
						<name>[REJECTED] bandicam 2025-06-02 00-01-10-144</name>
						<rate>
							<timebase>60</timebase>
							<ntsc>TRUE</ntsc>
						</rate>
						<rate>
							<timebase>60</timebase>
							<ntsc>TRUE</ntsc>
						</rate>
						<duration>12</duration>
						<start>918</start>
						<end>930</end>
						<in>918</in>
						<out>930</out>
						<enabled>FALSE</enabled>
					</clipitem>
					<clipitem frameBlend="FALSE" id="clipitem-rejected-710">
						<file id="file-1"/>
						<name>[REJECTED] bandicam 2025-06-02 00-01-10-144</name>
						<rate>
							<timebase>60</timebase>
							<ntsc>TRUE</ntsc>
						</rate>
						<rate>
							<timebase>60</timebase>
							<ntsc>TRUE</ntsc>
						</rate>
						<duration>6</duration>
						<start>942</start>
						<end>948</end>
						<in>942</in>
						<out>948</out>
						<enabled>FALSE</enabled>
					</clipitem>
					<clipitem frameBlend="FALSE" id="clipitem-rejected-711">
						<file id="file-1"/>
						<name>[REJECTED] bandicam 2025-06-02 00-01-10-144</name>
						<rate>
							<timebase>60</timebase>
							<ntsc>TRUE</ntsc>
						</rate>
						<rate>
							<timebase>60</timebase>
							<ntsc>TRUE</ntsc>
						</rate>
						<duration>18</duration>
						<start>960</start>
						<end>978</end>
						<in>960</in>
						<out>978</out>
						<enabled>FALSE</enabled>
					</clipitem>
					<clipitem frameBlend="FALSE" id="clipitem-rejected-712">
						<file id="file-1"/>
						<name>[REJECTED] bandicam 2025-06-02 00-01-10-144</name>
						<rate>
							<timebase>60</timebase>
							<ntsc>TRUE</ntsc>
						</rate>
						<rate>
							<timebase>60</timebase>
							<ntsc>TRUE</ntsc>
						</rate>
						<duration>78</duration>
						<start>1002</start>
						<end>1080</end>
						<in>1002</in>
						<out>1080</out>
						<enabled>FALSE</enabled>
					</clipitem>
					<clipitem frameBlend="FALSE" id="clipitem-rejected-713">
						<file id="file-1"/>
						<name>[REJECTED] bandicam 2025-06-02 00-01-10-144</name>
						<rate>
							<timebase>60</timebase>
							<ntsc>TRUE</ntsc>
						</rate>
						<rate>
							<timebase>60</timebase>
							<ntsc>TRUE</ntsc>
						</rate>
						<duration>84</duration>
						<start>1104</start>
						<end>1188</end>
						<in>1104</in>
						<out>1188</out>
						<enabled>FALSE</enabled>
					</clipitem>
					<clipitem frameBlend="FALSE" id="clipitem-rejected-714">
						<file id="file-1"/>
						<name>[REJECTED] bandicam 2025-06-02 00-01-10-144</name>
						<rate>
							<timebase>60</timebase>
							<ntsc>TRUE</ntsc>
						</rate>
						<rate>
							<timebase>60</timebase>
							<ntsc>TRUE</ntsc>
						</rate>
						<duration>0</duration>
						<start>1200</start>
						<end>1200</end>
						<in>1200</in>
						<out>1200</out>
						<enabled>FALSE</enabled>
					</clipitem>
					<clipitem frameBlend="FALSE" id="clipitem-rejected-715">
						<file id="file-1"/>
						<name>[REJECTED] bandicam 2025-06-02 00-01-10-144</name>
						<rate>
							<timebase>60</timebase>
							<ntsc>TRUE</ntsc>
						</rate>
						<rate>
							<timebase>60</timebase>
							<ntsc>TRUE</ntsc>
						</rate>
						<duration>90</duration>
						<start>1224</start>
						<end>1314</end>
						<in>1224</in>
						<out>1314</out>
						<enabled>FALSE</enabled>
					</clipitem>
					<clipitem frameBlend="FALSE" id="clipitem-rejected-716">
						<file id="file-1"/>
						<name>[REJECTED] bandicam 2025-06-02 00-01-10-144</name>
						<rate>
							<timebase>60</timebase>
							<ntsc>TRUE</ntsc>
						</rate>
						<rate>
							<timebase>60</timebase>
							<ntsc>TRUE</ntsc>
						</rate>
						<duration>54</duration>
						<start>1326</start>
						<end>1380</end>
						<in>1326</in>
						<out>1380</out>
						<enabled>FALSE</enabled>
					</clipitem>
					<clipitem frameBlend="FALSE" id="clipitem-rejected-717">
						<file id="file-1"/>
						<name>[REJECTED] bandicam 2025-06-02 00-01-10-144</name>
						<rate>
							<timebase>60</timebase>
							<ntsc>TRUE</ntsc>
						</rate>
						<rate>
							<timebase>60</timebase>
							<ntsc>TRUE</ntsc>
						</rate>
						<duration>6</duration>
						<start>1392</start>
						<end>1398</end>
						<in>1392</in>
						<out>1398</out>
						<enabled>FALSE</enabled>
					</clipitem>
					<clipitem frameBlend="FALSE" id="clipitem-rejected-718">
						<file id="file-1"/>
						<name>[REJECTED] bandicam 2025-06-02 00-01-10-144</name>
						<rate>
							<timebase>60</timebase>
							<ntsc>TRUE</ntsc>
						</rate>
						<rate>
							<timebase>60</timebase>
							<ntsc>TRUE</ntsc>
						</rate>
						<duration>12</duration>
						<start>1428</start>
						<end>1440</end>
						<in>1428</in>
						<out>1440</out>
						<enabled>FALSE</enabled>
					</clipitem>
					<clipitem frameBlend="FALSE" id="clipitem-rejected-719">
						<file id="file-1"/>
						<name>[REJECTED] bandicam 2025-06-02 00-01-10-144</name>
						<rate>
							<timebase>60</timebase>
							<ntsc>TRUE</ntsc>
						</rate>
						<rate>
							<timebase>60</timebase>
							<ntsc>TRUE</ntsc>
						</rate>
						<duration>96</duration>
						<start>1464</start>
						<end>1560</end>
						<in>1464</in>
						<out>1560</out>
						<enabled>FALSE</enabled>
					</clipitem>
					<clipitem frameBlend="FALSE" id="clipitem-rejected-720">
						<file id="file-1"/>
						<name>[REJECTED] bandicam 2025-06-02 00-01-10-144</name>
						<rate>
							<timebase>60</timebase>
							<ntsc>TRUE</ntsc>
						</rate>
						<rate>
							<timebase>60</timebase>
							<ntsc>TRUE</ntsc>
						</rate>
						<duration>102</duration>
						<start>1584</start>
						<end>1686</end>
						<in>1584</in>
						<out>1686</out>
						<enabled>FALSE</enabled>
					</clipitem>
					<clipitem frameBlend="FALSE" id="clipitem-rejected-721">
						<file id="file-1"/>
						<name>[REJECTED] bandicam 2025-06-02 00-01-10-144</name>
						<rate>
							<timebase>60</timebase>
							<ntsc>TRUE</ntsc>
						</rate>
						<rate>
							<timebase>60</timebase>
							<ntsc>TRUE</ntsc>
						</rate>
						<duration>12</duration>
						<start>1728</start>
						<end>1740</end>
						<in>1728</in>
						<out>1740</out>
						<enabled>FALSE</enabled>
					</clipitem>
					<clipitem frameBlend="FALSE" id="clipitem-rejected-722">
						<file id="file-1"/>
						<name>[REJECTED] bandicam 2025-06-02 00-01-10-144</name>
						<rate>
							<timebase>60</timebase>
							<ntsc>TRUE</ntsc>
						</rate>
						<rate>
							<timebase>60</timebase>
							<ntsc>TRUE</ntsc>
						</rate>
						<duration>6</duration>
						<start>1764</start>
						<end>1770</end>
						<in>1764</in>
						<out>1770</out>
						<enabled>FALSE</enabled>
					</clipitem>
					<clipitem frameBlend="FALSE" id="clipitem-rejected-723">
						<file id="file-1"/>
						<name>[REJECTED] bandicam 2025-06-02 00-01-10-144</name>
						<rate>
							<timebase>60</timebase>
							<ntsc>TRUE</ntsc>
						</rate>
						<rate>
							<timebase>60</timebase>
							<ntsc>TRUE</ntsc>
						</rate>
						<duration>24</duration>
						<start>1782</start>
						<end>1806</end>
						<in>1782</in>
						<out>1806</out>
						<enabled>FALSE</enabled>
					</clipitem>
					<clipitem frameBlend="FALSE" id="clipitem-rejected-724">
						<file id="file-1"/>
						<name>[REJECTED] bandicam 2025-06-02 00-01-10-144</name>
						<rate>
							<timebase>60</timebase>
							<ntsc>TRUE</ntsc>
						</rate>
						<rate>
							<timebase>60</timebase>
							<ntsc>TRUE</ntsc>
						</rate>
						<duration>6</duration>
						<start>1818</start>
						<end>1824</end>
						<in>1818</in>
						<out>1824</out>
						<enabled>FALSE</enabled>
					</clipitem>
					<clipitem frameBlend="FALSE" id="clipitem-rejected-725">
						<file id="file-1"/>
						<name>[REJECTED] bandicam 2025-06-02 00-01-10-144</name>
						<rate>
							<timebase>60</timebase>
							<ntsc>TRUE</ntsc>
						</rate>
						<rate>
							<timebase>60</timebase>
							<ntsc>TRUE</ntsc>
						</rate>
						<duration>0</duration>
						<start>1836</start>
						<end>1836</end>
						<in>1836</in>
						<out>1836</out>
						<enabled>FALSE</enabled>
					</clipitem>
					<clipitem frameBlend="FALSE" id="clipitem-rejected-726">
						<file id="file-1"/>
						<name>[REJECTED] bandicam 2025-06-02 00-01-10-144</name>
						<rate>
							<timebase>60</timebase>
							<ntsc>TRUE</ntsc>
						</rate>
						<rate>
							<timebase>60</timebase>
							<ntsc>TRUE</ntsc>
						</rate>
						<duration>6</duration>
						<start>1860</start>
						<end>1866</end>
						<in>1860</in>
						<out>1866</out>
						<enabled>FALSE</enabled>
					</clipitem>
					<clipitem frameBlend="FALSE" id="clipitem-rejected-727">
						<file id="file-1"/>
						<name>[REJECTED] bandicam 2025-06-02 00-01-10-144</name>
						<rate>
							<timebase>60</timebase>
							<ntsc>TRUE</ntsc>
						</rate>
						<rate>
							<timebase>60</timebase>
							<ntsc>TRUE</ntsc>
						</rate>
						<duration>0</duration>
						<start>1878</start>
						<end>1878</end>
						<in>1878</in>
						<out>1878</out>
						<enabled>FALSE</enabled>
					</clipitem>
					<clipitem frameBlend="FALSE" id="clipitem-rejected-728">
						<file id="file-1"/>
						<name>[REJECTED] bandicam 2025-06-02 00-01-10-144</name>
						<rate>
							<timebase>60</timebase>
							<ntsc>TRUE</ntsc>
						</rate>
						<rate>
							<timebase>60</timebase>
							<ntsc>TRUE</ntsc>
						</rate>
						<duration>24</duration>
						<start>1896</start>
						<end>1920</end>
						<in>1896</in>
						<out>1920</out>
						<enabled>FALSE</enabled>
					</clipitem>
					<clipitem frameBlend="FALSE" id="clipitem-rejected-729">
						<file id="file-1"/>
						<name>[REJECTED] bandicam 2025-06-02 00-01-10-144</name>
						<rate>
							<timebase>60</timebase>
							<ntsc>TRUE</ntsc>
						</rate>
						<rate>
							<timebase>60</timebase>
							<ntsc>TRUE</ntsc>
						</rate>
						<duration>228</duration>
						<start>1944</start>
						<end>2172</end>
						<in>1944</in>
						<out>2172</out>
						<enabled>FALSE</enabled>
					</clipitem>
					<clipitem frameBlend="FALSE" id="clipitem-rejected-730">
						<file id="file-1"/>
						<name>[REJECTED] bandicam 2025-06-02 00-01-10-144</name>
						<rate>
							<timebase>60</timebase>
							<ntsc>TRUE</ntsc>
						</rate>
						<rate>
							<timebase>60</timebase>
							<ntsc>TRUE</ntsc>
						</rate>
						<duration>78</duration>
						<start>2196</start>
						<end>2274</end>
						<in>2196</in>
						<out>2274</out>
						<enabled>FALSE</enabled>
					</clipitem>
					<clipitem frameBlend="FALSE" id="clipitem-rejected-731">
						<file id="file-1"/>
						<name>[REJECTED] bandicam 2025-06-02 00-01-10-144</name>
						<rate>
							<timebase>60</timebase>
							<ntsc>TRUE</ntsc>
						</rate>
						<rate>
							<timebase>60</timebase>
							<ntsc>TRUE</ntsc>
						</rate>
						<duration>0</duration>
						<start>2298</start>
						<end>2298</end>
						<in>2298</in>
						<out>2298</out>
						<enabled>FALSE</enabled>
					</clipitem>
					<clipitem frameBlend="FALSE" id="clipitem-rejected-732">
						<file id="file-1"/>
						<name>[REJECTED] bandicam 2025-06-02 00-01-10-144</name>
						<rate>
							<timebase>60</timebase>
							<ntsc>TRUE</ntsc>
						</rate>
						<rate>
							<timebase>60</timebase>
							<ntsc>TRUE</ntsc>
						</rate>
						<duration>90</duration>
						<start>2352</start>
						<end>2442</end>
						<in>2352</in>
						<out>2442</out>
						<enabled>FALSE</enabled>
					</clipitem>
					<clipitem frameBlend="FALSE" id="clipitem-rejected-733">
						<file id="file-1"/>
						<name>[REJECTED] bandicam 2025-06-02 00-01-10-144</name>
						<rate>
							<timebase>60</timebase>
							<ntsc>TRUE</ntsc>
						</rate>
						<rate>
							<timebase>60</timebase>
							<ntsc>TRUE</ntsc>
						</rate>
						<duration>6</duration>
						<start>2466</start>
						<end>2472</end>
						<in>2466</in>
						<out>2472</out>
						<enabled>FALSE</enabled>
					</clipitem>
					<clipitem frameBlend="FALSE" id="clipitem-rejected-734">
						<file id="file-1"/>
						<name>[REJECTED] bandicam 2025-06-02 00-01-10-144</name>
						<rate>
							<timebase>60</timebase>
							<ntsc>TRUE</ntsc>
						</rate>
						<rate>
							<timebase>60</timebase>
							<ntsc>TRUE</ntsc>
						</rate>
						<duration>0</duration>
						<start>2490</start>
						<end>2490</end>
						<in>2490</in>
						<out>2490</out>
						<enabled>FALSE</enabled>
					</clipitem>
					<clipitem frameBlend="FALSE" id="clipitem-rejected-735">
						<file id="file-1"/>
						<name>[REJECTED] bandicam 2025-06-02 00-01-10-144</name>
						<rate>
							<timebase>60</timebase>
							<ntsc>TRUE</ntsc>
						</rate>
						<rate>
							<timebase>60</timebase>
							<ntsc>TRUE</ntsc>
						</rate>
						<duration>24</duration>
						<start>2508</start>
						<end>2532</end>
						<in>2508</in>
						<out>2532</out>
						<enabled>FALSE</enabled>
					</clipitem>
					<clipitem frameBlend="FALSE" id="clipitem-rejected-736">
						<file id="file-1"/>
						<name>[REJECTED] bandicam 2025-06-02 00-01-10-144</name>
						<rate>
							<timebase>60</timebase>
							<ntsc>TRUE</ntsc>
						</rate>
						<rate>
							<timebase>60</timebase>
							<ntsc>TRUE</ntsc>
						</rate>
						<duration>42</duration>
						<start>2544</start>
						<end>2586</end>
						<in>2544</in>
						<out>2586</out>
						<enabled>FALSE</enabled>
					</clipitem>
					<clipitem frameBlend="FALSE" id="clipitem-rejected-737">
						<file id="file-1"/>
						<name>[REJECTED] bandicam 2025-06-02 00-01-10-144</name>
						<rate>
							<timebase>60</timebase>
							<ntsc>TRUE</ntsc>
						</rate>
						<rate>
							<timebase>60</timebase>
							<ntsc>TRUE</ntsc>
						</rate>
						<duration>0</duration>
						<start>2610</start>
						<end>2610</end>
						<in>2610</in>
						<out>2610</out>
						<enabled>FALSE</enabled>
					</clipitem>
					<clipitem frameBlend="FALSE" id="clipitem-rejected-738">
						<file id="file-1"/>
						<name>[REJECTED] bandicam 2025-06-02 00-01-10-144</name>
						<rate>
							<timebase>60</timebase>
							<ntsc>TRUE</ntsc>
						</rate>
						<rate>
							<timebase>60</timebase>
							<ntsc>TRUE</ntsc>
						</rate>
						<duration>0</duration>
						<start>2634</start>
						<end>2634</end>
						<in>2634</in>
						<out>2634</out>
						<enabled>FALSE</enabled>
					</clipitem>
					<clipitem frameBlend="FALSE" id="clipitem-rejected-739">
						<file id="file-1"/>
						<name>[REJECTED] bandicam 2025-06-02 00-01-10-144</name>
						<rate>
							<timebase>60</timebase>
							<ntsc>TRUE</ntsc>
						</rate>
						<rate>
							<timebase>60</timebase>
							<ntsc>TRUE</ntsc>
						</rate>
						<duration>0</duration>
						<start>2646</start>
						<end>2646</end>
						<in>2646</in>
						<out>2646</out>
						<enabled>FALSE</enabled>
					</clipitem>
					<clipitem frameBlend="FALSE" id="clipitem-rejected-740">
						<file id="file-1"/>
						<name>[REJECTED] bandicam 2025-06-02 00-01-10-144</name>
						<rate>
							<timebase>60</timebase>
							<ntsc>TRUE</ntsc>
						</rate>
						<rate>
							<timebase>60</timebase>
							<ntsc>TRUE</ntsc>
						</rate>
						<duration>48</duration>
						<start>2670</start>
						<end>2718</end>
						<in>2670</in>
						<out>2718</out>
						<enabled>FALSE</enabled>
					</clipitem>
					<clipitem frameBlend="FALSE" id="clipitem-rejected-741">
						<file id="file-1"/>
						<name>[REJECTED] bandicam 2025-06-02 00-01-10-144</name>
						<rate>
							<timebase>60</timebase>
							<ntsc>TRUE</ntsc>
						</rate>
						<rate>
							<timebase>60</timebase>
							<ntsc>TRUE</ntsc>
						</rate>
						<duration>12</duration>
						<start>2778</start>
						<end>2790</end>
						<in>2778</in>
						<out>2790</out>
						<enabled>FALSE</enabled>
					</clipitem>
					<clipitem frameBlend="FALSE" id="clipitem-rejected-742">
						<file id="file-1"/>
						<name>[REJECTED] bandicam 2025-06-02 00-01-10-144</name>
						<rate>
							<timebase>60</timebase>
							<ntsc>TRUE</ntsc>
						</rate>
						<rate>
							<timebase>60</timebase>
							<ntsc>TRUE</ntsc>
						</rate>
						<duration>18</duration>
						<start>2844</start>
						<end>2862</end>
						<in>2844</in>
						<out>2862</out>
						<enabled>FALSE</enabled>
					</clipitem>
					<clipitem frameBlend="FALSE" id="clipitem-rejected-743">
						<file id="file-1"/>
						<name>[REJECTED] bandicam 2025-06-02 00-01-10-144</name>
						<rate>
							<timebase>60</timebase>
							<ntsc>TRUE</ntsc>
						</rate>
						<rate>
							<timebase>60</timebase>
							<ntsc>TRUE</ntsc>
						</rate>
						<duration>6</duration>
						<start>2892</start>
						<end>2898</end>
						<in>2892</in>
						<out>2898</out>
						<enabled>FALSE</enabled>
					</clipitem>
					<clipitem frameBlend="FALSE" id="clipitem-rejected-744">
						<file id="file-1"/>
						<name>[REJECTED] bandicam 2025-06-02 00-01-10-144</name>
						<rate>
							<timebase>60</timebase>
							<ntsc>TRUE</ntsc>
						</rate>
						<rate>
							<timebase>60</timebase>
							<ntsc>TRUE</ntsc>
						</rate>
						<duration>24</duration>
						<start>2916</start>
						<end>2940</end>
						<in>2916</in>
						<out>2940</out>
						<enabled>FALSE</enabled>
					</clipitem>
					<clipitem frameBlend="FALSE" id="clipitem-rejected-745">
						<file id="file-1"/>
						<name>[REJECTED] bandicam 2025-06-02 00-01-10-144</name>
						<rate>
							<timebase>60</timebase>
							<ntsc>TRUE</ntsc>
						</rate>
						<rate>
							<timebase>60</timebase>
							<ntsc>TRUE</ntsc>
						</rate>
						<duration>6</duration>
						<start>2952</start>
						<end>2958</end>
						<in>2952</in>
						<out>2958</out>
						<enabled>FALSE</enabled>
					</clipitem>
					<clipitem frameBlend="FALSE" id="clipitem-rejected-746">
						<file id="file-1"/>
						<name>[REJECTED] bandicam 2025-06-02 00-01-10-144</name>
						<rate>
							<timebase>60</timebase>
							<ntsc>TRUE</ntsc>
						</rate>
						<rate>
							<timebase>60</timebase>
							<ntsc>TRUE</ntsc>
						</rate>
						<duration>72</duration>
						<start>2982</start>
						<end>3054</end>
						<in>2982</in>
						<out>3054</out>
						<enabled>FALSE</enabled>
					</clipitem>
					<clipitem frameBlend="FALSE" id="clipitem-rejected-747">
						<file id="file-1"/>
						<name>[REJECTED] bandicam 2025-06-02 00-01-10-144</name>
						<rate>
							<timebase>60</timebase>
							<ntsc>TRUE</ntsc>
						</rate>
						<rate>
							<timebase>60</timebase>
							<ntsc>TRUE</ntsc>
						</rate>
						<duration>6</duration>
						<start>3108</start>
						<end>3114</end>
						<in>3108</in>
						<out>3114</out>
						<enabled>FALSE</enabled>
					</clipitem>
					<clipitem frameBlend="FALSE" id="clipitem-rejected-748">
						<file id="file-1"/>
						<name>[REJECTED] bandicam 2025-06-02 00-01-10-144</name>
						<rate>
							<timebase>60</timebase>
							<ntsc>TRUE</ntsc>
						</rate>
						<rate>
							<timebase>60</timebase>
							<ntsc>TRUE</ntsc>
						</rate>
						<duration>84</duration>
						<start>3138</start>
						<end>3222</end>
						<in>3138</in>
						<out>3222</out>
						<enabled>FALSE</enabled>
					</clipitem>
					<clipitem frameBlend="FALSE" id="clipitem-rejected-749">
						<file id="file-1"/>
						<name>[REJECTED] bandicam 2025-06-02 00-01-10-144</name>
						<rate>
							<timebase>60</timebase>
							<ntsc>TRUE</ntsc>
						</rate>
						<rate>
							<timebase>60</timebase>
							<ntsc>TRUE</ntsc>
						</rate>
						<duration>18</duration>
						<start>3246</start>
						<end>3264</end>
						<in>3246</in>
						<out>3264</out>
						<enabled>FALSE</enabled>
					</clipitem>
					<clipitem frameBlend="FALSE" id="clipitem-rejected-750">
						<file id="file-1"/>
						<name>[REJECTED] bandicam 2025-06-02 00-01-10-144</name>
						<rate>
							<timebase>60</timebase>
							<ntsc>TRUE</ntsc>
						</rate>
						<rate>
							<timebase>60</timebase>
							<ntsc>TRUE</ntsc>
						</rate>
						<duration>0</duration>
						<start>3300</start>
						<end>3300</end>
						<in>3300</in>
						<out>3300</out>
						<enabled>FALSE</enabled>
					</clipitem>
					<clipitem frameBlend="FALSE" id="clipitem-rejected-751">
						<file id="file-1"/>
						<name>[REJECTED] bandicam 2025-06-02 00-01-10-144</name>
						<rate>
							<timebase>60</timebase>
							<ntsc>TRUE</ntsc>
						</rate>
						<rate>
							<timebase>60</timebase>
							<ntsc>TRUE</ntsc>
						</rate>
						<duration>54</duration>
						<start>3312</start>
						<end>3366</end>
						<in>3312</in>
						<out>3366</out>
						<enabled>FALSE</enabled>
					</clipitem>
					<clipitem frameBlend="FALSE" id="clipitem-rejected-752">
						<file id="file-1"/>
						<name>[REJECTED] bandicam 2025-06-02 00-01-10-144</name>
						<rate>
							<timebase>60</timebase>
							<ntsc>TRUE</ntsc>
						</rate>
						<rate>
							<timebase>60</timebase>
							<ntsc>TRUE</ntsc>
						</rate>
						<duration>54</duration>
						<start>3390</start>
						<end>3444</end>
						<in>3390</in>
						<out>3444</out>
						<enabled>FALSE</enabled>
					</clipitem>
					<clipitem frameBlend="FALSE" id="clipitem-rejected-753">
						<file id="file-1"/>
						<name>[REJECTED] bandicam 2025-06-02 00-01-10-144</name>
						<rate>
							<timebase>60</timebase>
							<ntsc>TRUE</ntsc>
						</rate>
						<rate>
							<timebase>60</timebase>
							<ntsc>TRUE</ntsc>
						</rate>
						<duration>12</duration>
						<start>3480</start>
						<end>3492</end>
						<in>3480</in>
						<out>3492</out>
						<enabled>FALSE</enabled>
					</clipitem>
					<clipitem frameBlend="FALSE" id="clipitem-rejected-754">
						<file id="file-1"/>
						<name>[REJECTED] bandicam 2025-06-02 00-01-10-144</name>
						<rate>
							<timebase>60</timebase>
							<ntsc>TRUE</ntsc>
						</rate>
						<rate>
							<timebase>60</timebase>
							<ntsc>TRUE</ntsc>
						</rate>
						<duration>60</duration>
						<start>3516</start>
						<end>3576</end>
						<in>3516</in>
						<out>3576</out>
						<enabled>FALSE</enabled>
					</clipitem>
					<clipitem frameBlend="FALSE" id="clipitem-rejected-755">
						<file id="file-1"/>
						<name>[REJECTED] bandicam 2025-06-02 00-01-10-144</name>
						<rate>
							<timebase>60</timebase>
							<ntsc>TRUE</ntsc>
						</rate>
						<rate>
							<timebase>60</timebase>
							<ntsc>TRUE</ntsc>
						</rate>
						<duration>30</duration>
						<start>3588</start>
						<end>3618</end>
						<in>3588</in>
						<out>3618</out>
						<enabled>FALSE</enabled>
					</clipitem>
					<clipitem frameBlend="FALSE" id="clipitem-rejected-756">
						<file id="file-1"/>
						<name>[REJECTED] bandicam 2025-06-02 00-01-10-144</name>
						<rate>
							<timebase>60</timebase>
							<ntsc>TRUE</ntsc>
						</rate>
						<rate>
							<timebase>60</timebase>
							<ntsc>TRUE</ntsc>
						</rate>
						<duration>42</duration>
						<start>3648</start>
						<end>3690</end>
						<in>3648</in>
						<out>3690</out>
						<enabled>FALSE</enabled>
					</clipitem>
					<clipitem frameBlend="FALSE" id="clipitem-rejected-757">
						<file id="file-1"/>
						<name>[REJECTED] bandicam 2025-06-02 00-01-10-144</name>
						<rate>
							<timebase>60</timebase>
							<ntsc>TRUE</ntsc>
						</rate>
						<rate>
							<timebase>60</timebase>
							<ntsc>TRUE</ntsc>
						</rate>
						<duration>60</duration>
						<start>3702</start>
						<end>3762</end>
						<in>3702</in>
						<out>3762</out>
						<enabled>FALSE</enabled>
					</clipitem>
					<clipitem frameBlend="FALSE" id="clipitem-rejected-758">
						<file id="file-1"/>
						<name>[REJECTED] bandicam 2025-06-02 00-01-10-144</name>
						<rate>
							<timebase>60</timebase>
							<ntsc>TRUE</ntsc>
						</rate>
						<rate>
							<timebase>60</timebase>
							<ntsc>TRUE</ntsc>
						</rate>
						<duration>60</duration>
						<start>3786</start>
						<end>3846</end>
						<in>3786</in>
						<out>3846</out>
						<enabled>FALSE</enabled>
					</clipitem>
					<clipitem frameBlend="FALSE" id="clipitem-rejected-759">
						<file id="file-1"/>
						<name>[REJECTED] bandicam 2025-06-02 00-01-10-144</name>
						<rate>
							<timebase>60</timebase>
							<ntsc>TRUE</ntsc>
						</rate>
						<rate>
							<timebase>60</timebase>
							<ntsc>TRUE</ntsc>
						</rate>
						<duration>30</duration>
						<start>3870</start>
						<end>3900</end>
						<in>3870</in>
						<out>3900</out>
						<enabled>FALSE</enabled>
					</clipitem>
					<clipitem frameBlend="FALSE" id="clipitem-rejected-760">
						<file id="file-1"/>
						<name>[REJECTED] bandicam 2025-06-02 00-01-10-144</name>
						<rate>
							<timebase>60</timebase>
							<ntsc>TRUE</ntsc>
						</rate>
						<rate>
							<timebase>60</timebase>
							<ntsc>TRUE</ntsc>
						</rate>
						<duration>96</duration>
						<start>3924</start>
						<end>4020</end>
						<in>3924</in>
						<out>4020</out>
						<enabled>FALSE</enabled>
					</clipitem>
					<clipitem frameBlend="FALSE" id="clipitem-rejected-761">
						<file id="file-1"/>
						<name>[REJECTED] bandicam 2025-06-02 00-01-10-144</name>
						<rate>
							<timebase>60</timebase>
							<ntsc>TRUE</ntsc>
						</rate>
						<rate>
							<timebase>60</timebase>
							<ntsc>TRUE</ntsc>
						</rate>
						<duration>0</duration>
						<start>4038</start>
						<end>4038</end>
						<in>4038</in>
						<out>4038</out>
						<enabled>FALSE</enabled>
					</clipitem>
					<clipitem frameBlend="FALSE" id="clipitem-rejected-762">
						<file id="file-1"/>
						<name>[REJECTED] bandicam 2025-06-02 00-01-10-144</name>
						<rate>
							<timebase>60</timebase>
							<ntsc>TRUE</ntsc>
						</rate>
						<rate>
							<timebase>60</timebase>
							<ntsc>TRUE</ntsc>
						</rate>
						<duration>30</duration>
						<start>4050</start>
						<end>4080</end>
						<in>4050</in>
						<out>4080</out>
						<enabled>FALSE</enabled>
					</clipitem>
					<clipitem frameBlend="FALSE" id="clipitem-rejected-763">
						<file id="file-1"/>
						<name>[REJECTED] bandicam 2025-06-02 00-01-10-144</name>
						<rate>
							<timebase>60</timebase>
							<ntsc>TRUE</ntsc>
						</rate>
						<rate>
							<timebase>60</timebase>
							<ntsc>TRUE</ntsc>
						</rate>
						<duration>6</duration>
						<start>4116</start>
						<end>4122</end>
						<in>4116</in>
						<out>4122</out>
						<enabled>FALSE</enabled>
					</clipitem>
					<clipitem frameBlend="FALSE" id="clipitem-rejected-764">
						<file id="file-1"/>
						<name>[REJECTED] bandicam 2025-06-02 00-01-10-144</name>
						<rate>
							<timebase>60</timebase>
							<ntsc>TRUE</ntsc>
						</rate>
						<rate>
							<timebase>60</timebase>
							<ntsc>TRUE</ntsc>
						</rate>
						<duration>30</duration>
						<start>4152</start>
						<end>4182</end>
						<in>4152</in>
						<out>4182</out>
						<enabled>FALSE</enabled>
					</clipitem>
					<clipitem frameBlend="FALSE" id="clipitem-rejected-765">
						<file id="file-1"/>
						<name>[REJECTED] bandicam 2025-06-02 00-01-10-144</name>
						<rate>
							<timebase>60</timebase>
							<ntsc>TRUE</ntsc>
						</rate>
						<rate>
							<timebase>60</timebase>
							<ntsc>TRUE</ntsc>
						</rate>
						<duration>24</duration>
						<start>4200</start>
						<end>4224</end>
						<in>4200</in>
						<out>4224</out>
						<enabled>FALSE</enabled>
					</clipitem>
					<clipitem frameBlend="FALSE" id="clipitem-rejected-766">
						<file id="file-1"/>
						<name>[REJECTED] bandicam 2025-06-02 00-01-10-144</name>
						<rate>
							<timebase>60</timebase>
							<ntsc>TRUE</ntsc>
						</rate>
						<rate>
							<timebase>60</timebase>
							<ntsc>TRUE</ntsc>
						</rate>
						<duration>24</duration>
						<start>4272</start>
						<end>4296</end>
						<in>4272</in>
						<out>4296</out>
						<enabled>FALSE</enabled>
					</clipitem>
					<clipitem frameBlend="FALSE" id="clipitem-rejected-767">
						<file id="file-1"/>
						<name>[REJECTED] bandicam 2025-06-02 00-01-10-144</name>
						<rate>
							<timebase>60</timebase>
							<ntsc>TRUE</ntsc>
						</rate>
						<rate>
							<timebase>60</timebase>
							<ntsc>TRUE</ntsc>
						</rate>
						<duration>24</duration>
						<start>4440</start>
						<end>4464</end>
						<in>4440</in>
						<out>4464</out>
						<enabled>FALSE</enabled>
					</clipitem>
					<clipitem frameBlend="FALSE" id="clipitem-rejected-768">
						<file id="file-1"/>
						<name>[REJECTED] bandicam 2025-06-02 00-01-10-144</name>
						<rate>
							<timebase>60</timebase>
							<ntsc>TRUE</ntsc>
						</rate>
						<rate>
							<timebase>60</timebase>
							<ntsc>TRUE</ntsc>
						</rate>
						<duration>12</duration>
						<start>4488</start>
						<end>4500</end>
						<in>4488</in>
						<out>4500</out>
						<enabled>FALSE</enabled>
					</clipitem>
					<clipitem frameBlend="FALSE" id="clipitem-rejected-769">
						<file id="file-1"/>
						<name>[REJECTED] bandicam 2025-06-02 00-01-10-144</name>
						<rate>
							<timebase>60</timebase>
							<ntsc>TRUE</ntsc>
						</rate>
						<rate>
							<timebase>60</timebase>
							<ntsc>TRUE</ntsc>
						</rate>
						<duration>36</duration>
						<start>4560</start>
						<end>4596</end>
						<in>4560</in>
						<out>4596</out>
						<enabled>FALSE</enabled>
					</clipitem>
					<clipitem frameBlend="FALSE" id="clipitem-rejected-770">
						<file id="file-1"/>
						<name>[REJECTED] bandicam 2025-06-02 00-01-10-144</name>
						<rate>
							<timebase>60</timebase>
							<ntsc>TRUE</ntsc>
						</rate>
						<rate>
							<timebase>60</timebase>
							<ntsc>TRUE</ntsc>
						</rate>
						<duration>6</duration>
						<start>4638</start>
						<end>4644</end>
						<in>4638</in>
						<out>4644</out>
						<enabled>FALSE</enabled>
					</clipitem>
					<clipitem frameBlend="FALSE" id="clipitem-rejected-771">
						<file id="file-1"/>
						<name>[REJECTED] bandicam 2025-06-02 00-01-10-144</name>
						<rate>
							<timebase>60</timebase>
							<ntsc>TRUE</ntsc>
						</rate>
						<rate>
							<timebase>60</timebase>
							<ntsc>TRUE</ntsc>
						</rate>
						<duration>30</duration>
						<start>4668</start>
						<end>4698</end>
						<in>4668</in>
						<out>4698</out>
						<enabled>FALSE</enabled>
					</clipitem>
					<clipitem frameBlend="FALSE" id="clipitem-rejected-772">
						<file id="file-1"/>
						<name>[REJECTED] bandicam 2025-06-02 00-01-10-144</name>
						<rate>
							<timebase>60</timebase>
							<ntsc>TRUE</ntsc>
						</rate>
						<rate>
							<timebase>60</timebase>
							<ntsc>TRUE</ntsc>
						</rate>
						<duration>6</duration>
						<start>4710</start>
						<end>4716</end>
						<in>4710</in>
						<out>4716</out>
						<enabled>FALSE</enabled>
					</clipitem>
					<clipitem frameBlend="FALSE" id="clipitem-rejected-773">
						<file id="file-1"/>
						<name>[REJECTED] bandicam 2025-06-02 00-01-10-144</name>
						<rate>
							<timebase>60</timebase>
							<ntsc>TRUE</ntsc>
						</rate>
						<rate>
							<timebase>60</timebase>
							<ntsc>TRUE</ntsc>
						</rate>
						<duration>6</duration>
						<start>4776</start>
						<end>4782</end>
						<in>4776</in>
						<out>4782</out>
						<enabled>FALSE</enabled>
					</clipitem>
					<clipitem frameBlend="FALSE" id="clipitem-rejected-774">
						<file id="file-1"/>
						<name>[REJECTED] bandicam 2025-06-02 00-01-10-144</name>
						<rate>
							<timebase>60</timebase>
							<ntsc>TRUE</ntsc>
						</rate>
						<rate>
							<timebase>60</timebase>
							<ntsc>TRUE</ntsc>
						</rate>
						<duration>36</duration>
						<start>4806</start>
						<end>4842</end>
						<in>4806</in>
						<out>4842</out>
						<enabled>FALSE</enabled>
					</clipitem>
					<clipitem frameBlend="FALSE" id="clipitem-rejected-775">
						<file id="file-1"/>
						<name>[REJECTED] bandicam 2025-06-02 00-01-10-144</name>
						<rate>
							<timebase>60</timebase>
							<ntsc>TRUE</ntsc>
						</rate>
						<rate>
							<timebase>60</timebase>
							<ntsc>TRUE</ntsc>
						</rate>
						<duration>0</duration>
						<start>4854</start>
						<end>4854</end>
						<in>4854</in>
						<out>4854</out>
						<enabled>FALSE</enabled>
					</clipitem>
					<clipitem frameBlend="FALSE" id="clipitem-rejected-776">
						<file id="file-1"/>
						<name>[REJECTED] bandicam 2025-06-02 00-01-10-144</name>
						<rate>
							<timebase>60</timebase>
							<ntsc>TRUE</ntsc>
						</rate>
						<rate>
							<timebase>60</timebase>
							<ntsc>TRUE</ntsc>
						</rate>
						<duration>6</duration>
						<start>4878</start>
						<end>4884</end>
						<in>4878</in>
						<out>4884</out>
						<enabled>FALSE</enabled>
					</clipitem>
					<clipitem frameBlend="FALSE" id="clipitem-rejected-777">
						<file id="file-1"/>
						<name>[REJECTED] bandicam 2025-06-02 00-01-10-144</name>
						<rate>
							<timebase>60</timebase>
							<ntsc>TRUE</ntsc>
						</rate>
						<rate>
							<timebase>60</timebase>
							<ntsc>TRUE</ntsc>
						</rate>
						<duration>0</duration>
						<start>4902</start>
						<end>4902</end>
						<in>4902</in>
						<out>4902</out>
						<enabled>FALSE</enabled>
					</clipitem>
					<clipitem frameBlend="FALSE" id="clipitem-rejected-778">
						<file id="file-1"/>
						<name>[REJECTED] bandicam 2025-06-02 00-01-10-144</name>
						<rate>
							<timebase>60</timebase>
							<ntsc>TRUE</ntsc>
						</rate>
						<rate>
							<timebase>60</timebase>
							<ntsc>TRUE</ntsc>
						</rate>
						<duration>12</duration>
						<start>4926</start>
						<end>4938</end>
						<in>4926</in>
						<out>4938</out>
						<enabled>FALSE</enabled>
					</clipitem>
					<clipitem frameBlend="FALSE" id="clipitem-rejected-779">
						<file id="file-1"/>
						<name>[REJECTED] bandicam 2025-06-02 00-01-10-144</name>
						<rate>
							<timebase>60</timebase>
							<ntsc>TRUE</ntsc>
						</rate>
						<rate>
							<timebase>60</timebase>
							<ntsc>TRUE</ntsc>
						</rate>
						<duration>0</duration>
						<start>4962</start>
						<end>4962</end>
						<in>4962</in>
						<out>4962</out>
						<enabled>FALSE</enabled>
					</clipitem>
					<clipitem frameBlend="FALSE" id="clipitem-rejected-780">
						<file id="file-1"/>
						<name>[REJECTED] bandicam 2025-06-02 00-01-10-144</name>
						<rate>
							<timebase>60</timebase>
							<ntsc>TRUE</ntsc>
						</rate>
						<rate>
							<timebase>60</timebase>
							<ntsc>TRUE</ntsc>
						</rate>
						<duration>36</duration>
						<start>4980</start>
						<end>5016</end>
						<in>4980</in>
						<out>5016</out>
						<enabled>FALSE</enabled>
					</clipitem>
					<clipitem frameBlend="FALSE" id="clipitem-rejected-781">
						<file id="file-1"/>
						<name>[REJECTED] bandicam 2025-06-02 00-01-10-144</name>
						<rate>
							<timebase>60</timebase>
							<ntsc>TRUE</ntsc>
						</rate>
						<rate>
							<timebase>60</timebase>
							<ntsc>TRUE</ntsc>
						</rate>
						<duration>18</duration>
						<start>5040</start>
						<end>5058</end>
						<in>5040</in>
						<out>5058</out>
						<enabled>FALSE</enabled>
					</clipitem>
					<clipitem frameBlend="FALSE" id="clipitem-rejected-782">
						<file id="file-1"/>
						<name>[REJECTED] bandicam 2025-06-02 00-01-10-144</name>
						<rate>
							<timebase>60</timebase>
							<ntsc>TRUE</ntsc>
						</rate>
						<rate>
							<timebase>60</timebase>
							<ntsc>TRUE</ntsc>
						</rate>
						<duration>0</duration>
						<start>5076</start>
						<end>5076</end>
						<in>5076</in>
						<out>5076</out>
						<enabled>FALSE</enabled>
					</clipitem>
					<clipitem frameBlend="FALSE" id="clipitem-rejected-783">
						<file id="file-1"/>
						<name>[REJECTED] bandicam 2025-06-02 00-01-10-144</name>
						<rate>
							<timebase>60</timebase>
							<ntsc>TRUE</ntsc>
						</rate>
						<rate>
							<timebase>60</timebase>
							<ntsc>TRUE</ntsc>
						</rate>
						<duration>0</duration>
						<start>5088</start>
						<end>5088</end>
						<in>5088</in>
						<out>5088</out>
						<enabled>FALSE</enabled>
					</clipitem>
					<clipitem frameBlend="FALSE" id="clipitem-rejected-784">
						<file id="file-1"/>
						<name>[REJECTED] bandicam 2025-06-02 00-01-10-144</name>
						<rate>
							<timebase>60</timebase>
							<ntsc>TRUE</ntsc>
						</rate>
						<rate>
							<timebase>60</timebase>
							<ntsc>TRUE</ntsc>
						</rate>
						<duration>42</duration>
						<start>5184</start>
						<end>5226</end>
						<in>5184</in>
						<out>5226</out>
						<enabled>FALSE</enabled>
					</clipitem>
					<clipitem frameBlend="FALSE" id="clipitem-rejected-785">
						<file id="file-1"/>
						<name>[REJECTED] bandicam 2025-06-02 00-01-10-144</name>
						<rate>
							<timebase>60</timebase>
							<ntsc>TRUE</ntsc>
						</rate>
						<rate>
							<timebase>60</timebase>
							<ntsc>TRUE</ntsc>
						</rate>
						<duration>72</duration>
						<start>5250</start>
						<end>5322</end>
						<in>5250</in>
						<out>5322</out>
						<enabled>FALSE</enabled>
					</clipitem>
					<clipitem frameBlend="FALSE" id="clipitem-rejected-786">
						<file id="file-1"/>
						<name>[REJECTED] bandicam 2025-06-02 00-01-10-144</name>
						<rate>
							<timebase>60</timebase>
							<ntsc>TRUE</ntsc>
						</rate>
						<rate>
							<timebase>60</timebase>
							<ntsc>TRUE</ntsc>
						</rate>
						<duration>30</duration>
						<start>5346</start>
						<end>5376</end>
						<in>5346</in>
						<out>5376</out>
						<enabled>FALSE</enabled>
					</clipitem>
					<clipitem frameBlend="FALSE" id="clipitem-rejected-787">
						<file id="file-1"/>
						<name>[REJECTED] bandicam 2025-06-02 00-01-10-144</name>
						<rate>
							<timebase>60</timebase>
							<ntsc>TRUE</ntsc>
						</rate>
						<rate>
							<timebase>60</timebase>
							<ntsc>TRUE</ntsc>
						</rate>
						<duration>6</duration>
						<start>5400</start>
						<end>5406</end>
						<in>5400</in>
						<out>5406</out>
						<enabled>FALSE</enabled>
					</clipitem>
					<clipitem frameBlend="FALSE" id="clipitem-rejected-788">
						<file id="file-1"/>
						<name>[REJECTED] bandicam 2025-06-02 00-01-10-144</name>
						<rate>
							<timebase>60</timebase>
							<ntsc>TRUE</ntsc>
						</rate>
						<rate>
							<timebase>60</timebase>
							<ntsc>TRUE</ntsc>
						</rate>
						<duration>6</duration>
						<start>5454</start>
						<end>5460</end>
						<in>5454</in>
						<out>5460</out>
						<enabled>FALSE</enabled>
					</clipitem>
					<clipitem frameBlend="FALSE" id="clipitem-rejected-789">
						<file id="file-1"/>
						<name>[REJECTED] bandicam 2025-06-02 00-01-10-144</name>
						<rate>
							<timebase>60</timebase>
							<ntsc>TRUE</ntsc>
						</rate>
						<rate>
							<timebase>60</timebase>
							<ntsc>TRUE</ntsc>
						</rate>
						<duration>12</duration>
						<start>5472</start>
						<end>5484</end>
						<in>5472</in>
						<out>5484</out>
						<enabled>FALSE</enabled>
					</clipitem>
					<clipitem frameBlend="FALSE" id="clipitem-rejected-790">
						<file id="file-1"/>
						<name>[REJECTED] bandicam 2025-06-02 00-01-10-144</name>
						<rate>
							<timebase>60</timebase>
							<ntsc>TRUE</ntsc>
						</rate>
						<rate>
							<timebase>60</timebase>
							<ntsc>TRUE</ntsc>
						</rate>
						<duration>6</duration>
						<start>5508</start>
						<end>5514</end>
						<in>5508</in>
						<out>5514</out>
						<enabled>FALSE</enabled>
					</clipitem>
					<clipitem frameBlend="FALSE" id="clipitem-rejected-791">
						<file id="file-1"/>
						<name>[REJECTED] bandicam 2025-06-02 00-01-10-144</name>
						<rate>
							<timebase>60</timebase>
							<ntsc>TRUE</ntsc>
						</rate>
						<rate>
							<timebase>60</timebase>
							<ntsc>TRUE</ntsc>
						</rate>
						<duration>0</duration>
						<start>5526</start>
						<end>5526</end>
						<in>5526</in>
						<out>5526</out>
						<enabled>FALSE</enabled>
					</clipitem>
					<clipitem frameBlend="FALSE" id="clipitem-rejected-792">
						<file id="file-1"/>
						<name>[REJECTED] bandicam 2025-06-02 00-01-10-144</name>
						<rate>
							<timebase>60</timebase>
							<ntsc>TRUE</ntsc>
						</rate>
						<rate>
							<timebase>60</timebase>
							<ntsc>TRUE</ntsc>
						</rate>
						<duration>42</duration>
						<start>5538</start>
						<end>5580</end>
						<in>5538</in>
						<out>5580</out>
						<enabled>FALSE</enabled>
					</clipitem>
					<clipitem frameBlend="FALSE" id="clipitem-rejected-793">
						<file id="file-1"/>
						<name>[REJECTED] bandicam 2025-06-02 00-01-10-144</name>
						<rate>
							<timebase>60</timebase>
							<ntsc>TRUE</ntsc>
						</rate>
						<rate>
							<timebase>60</timebase>
							<ntsc>TRUE</ntsc>
						</rate>
						<duration>24</duration>
						<start>5598</start>
						<end>5622</end>
						<in>5598</in>
						<out>5622</out>
						<enabled>FALSE</enabled>
					</clipitem>
					<clipitem frameBlend="FALSE" id="clipitem-rejected-794">
						<file id="file-1"/>
						<name>[REJECTED] bandicam 2025-06-02 00-01-10-144</name>
						<rate>
							<timebase>60</timebase>
							<ntsc>TRUE</ntsc>
						</rate>
						<rate>
							<timebase>60</timebase>
							<ntsc>TRUE</ntsc>
						</rate>
						<duration>12</duration>
						<start>5646</start>
						<end>5658</end>
						<in>5646</in>
						<out>5658</out>
						<enabled>FALSE</enabled>
					</clipitem>
					<clipitem frameBlend="FALSE" id="clipitem-rejected-795">
						<file id="file-1"/>
						<name>[REJECTED] bandicam 2025-06-02 00-01-10-144</name>
						<rate>
							<timebase>60</timebase>
							<ntsc>TRUE</ntsc>
						</rate>
						<rate>
							<timebase>60</timebase>
							<ntsc>TRUE</ntsc>
						</rate>
						<duration>48</duration>
						<start>5700</start>
						<end>5748</end>
						<in>5700</in>
						<out>5748</out>
						<enabled>FALSE</enabled>
					</clipitem>
					<clipitem frameBlend="FALSE" id="clipitem-rejected-796">
						<file id="file-1"/>
						<name>[REJECTED] bandicam 2025-06-02 00-01-10-144</name>
						<rate>
							<timebase>60</timebase>
							<ntsc>TRUE</ntsc>
						</rate>
						<rate>
							<timebase>60</timebase>
							<ntsc>TRUE</ntsc>
						</rate>
						<duration>12</duration>
						<start>5784</start>
						<end>5796</end>
						<in>5784</in>
						<out>5796</out>
						<enabled>FALSE</enabled>
					</clipitem>
					<clipitem frameBlend="FALSE" id="clipitem-rejected-797">
						<file id="file-1"/>
						<name>[REJECTED] bandicam 2025-06-02 00-01-10-144</name>
						<rate>
							<timebase>60</timebase>
							<ntsc>TRUE</ntsc>
						</rate>
						<rate>
							<timebase>60</timebase>
							<ntsc>TRUE</ntsc>
						</rate>
						<duration>6</duration>
						<start>5898</start>
						<end>5904</end>
						<in>5898</in>
						<out>5904</out>
						<enabled>FALSE</enabled>
					</clipitem>
					<clipitem frameBlend="FALSE" id="clipitem-rejected-798">
						<file id="file-1"/>
						<name>[REJECTED] bandicam 2025-06-02 00-01-10-144</name>
						<rate>
							<timebase>60</timebase>
							<ntsc>TRUE</ntsc>
						</rate>
						<rate>
							<timebase>60</timebase>
							<ntsc>TRUE</ntsc>
						</rate>
						<duration>12</duration>
						<start>5982</start>
						<end>5994</end>
						<in>5982</in>
						<out>5994</out>
						<enabled>FALSE</enabled>
					</clipitem>
					<clipitem frameBlend="FALSE" id="clipitem-rejected-799">
						<file id="file-1"/>
						<name>[REJECTED] bandicam 2025-06-02 00-01-10-144</name>
						<rate>
							<timebase>60</timebase>
							<ntsc>TRUE</ntsc>
						</rate>
						<rate>
							<timebase>60</timebase>
							<ntsc>TRUE</ntsc>
						</rate>
						<duration>6</duration>
						<start>6042</start>
						<end>6048</end>
						<in>6042</in>
						<out>6048</out>
						<enabled>FALSE</enabled>
					</clipitem>
					<clipitem frameBlend="FALSE" id="clipitem-rejected-800">
						<file id="file-1"/>
						<name>[REJECTED] bandicam 2025-06-02 00-01-10-144</name>
						<rate>
							<timebase>60</timebase>
							<ntsc>TRUE</ntsc>
						</rate>
						<rate>
							<timebase>60</timebase>
							<ntsc>TRUE</ntsc>
						</rate>
						<duration>54</duration>
						<start>6072</start>
						<end>6126</end>
						<in>6072</in>
						<out>6126</out>
						<enabled>FALSE</enabled>
					</clipitem>
					<clipitem frameBlend="FALSE" id="clipitem-rejected-801">
						<file id="file-1"/>
						<name>[REJECTED] bandicam 2025-06-02 00-01-10-144</name>
						<rate>
							<timebase>60</timebase>
							<ntsc>TRUE</ntsc>
						</rate>
						<rate>
							<timebase>60</timebase>
							<ntsc>TRUE</ntsc>
						</rate>
						<duration>12</duration>
						<start>6138</start>
						<end>6150</end>
						<in>6138</in>
						<out>6150</out>
						<enabled>FALSE</enabled>
					</clipitem>
					<clipitem frameBlend="FALSE" id="clipitem-rejected-802">
						<file id="file-1"/>
						<name>[REJECTED] bandicam 2025-06-02 00-01-10-144</name>
						<rate>
							<timebase>60</timebase>
							<ntsc>TRUE</ntsc>
						</rate>
						<rate>
							<timebase>60</timebase>
							<ntsc>TRUE</ntsc>
						</rate>
						<duration>18</duration>
						<start>6210</start>
						<end>6228</end>
						<in>6210</in>
						<out>6228</out>
						<enabled>FALSE</enabled>
					</clipitem>
					<clipitem frameBlend="FALSE" id="clipitem-rejected-803">
						<file id="file-1"/>
						<name>[REJECTED] bandicam 2025-06-02 00-01-10-144</name>
						<rate>
							<timebase>60</timebase>
							<ntsc>TRUE</ntsc>
						</rate>
						<rate>
							<timebase>60</timebase>
							<ntsc>TRUE</ntsc>
						</rate>
						<duration>18</duration>
						<start>6258</start>
						<end>6276</end>
						<in>6258</in>
						<out>6276</out>
						<enabled>FALSE</enabled>
					</clipitem>
					<clipitem frameBlend="FALSE" id="clipitem-rejected-804">
						<file id="file-1"/>
						<name>[REJECTED] bandicam 2025-06-02 00-01-10-144</name>
						<rate>
							<timebase>60</timebase>
							<ntsc>TRUE</ntsc>
						</rate>
						<rate>
							<timebase>60</timebase>
							<ntsc>TRUE</ntsc>
						</rate>
						<duration>18</duration>
						<start>6288</start>
						<end>6306</end>
						<in>6288</in>
						<out>6306</out>
						<enabled>FALSE</enabled>
					</clipitem>
					<clipitem frameBlend="FALSE" id="clipitem-rejected-805">
						<file id="file-1"/>
						<name>[REJECTED] bandicam 2025-06-02 00-01-10-144</name>
						<rate>
							<timebase>60</timebase>
							<ntsc>TRUE</ntsc>
						</rate>
						<rate>
							<timebase>60</timebase>
							<ntsc>TRUE</ntsc>
						</rate>
						<duration>48</duration>
						<start>6330</start>
						<end>6378</end>
						<in>6330</in>
						<out>6378</out>
						<enabled>FALSE</enabled>
					</clipitem>
					<clipitem frameBlend="FALSE" id="clipitem-rejected-806">
						<file id="file-1"/>
						<name>[REJECTED] bandicam 2025-06-02 00-01-10-144</name>
						<rate>
							<timebase>60</timebase>
							<ntsc>TRUE</ntsc>
						</rate>
						<rate>
							<timebase>60</timebase>
							<ntsc>TRUE</ntsc>
						</rate>
						<duration>24</duration>
						<start>6402</start>
						<end>6426</end>
						<in>6402</in>
						<out>6426</out>
						<enabled>FALSE</enabled>
					</clipitem>
					<clipitem frameBlend="FALSE" id="clipitem-rejected-807">
						<file id="file-1"/>
						<name>[REJECTED] bandicam 2025-06-02 00-01-10-144</name>
						<rate>
							<timebase>60</timebase>
							<ntsc>TRUE</ntsc>
						</rate>
						<rate>
							<timebase>60</timebase>
							<ntsc>TRUE</ntsc>
						</rate>
						<duration>30</duration>
						<start>6450</start>
						<end>6480</end>
						<in>6450</in>
						<out>6480</out>
						<enabled>FALSE</enabled>
					</clipitem>
					<clipitem frameBlend="FALSE" id="clipitem-rejected-808">
						<file id="file-1"/>
						<name>[REJECTED] bandicam 2025-06-02 00-01-10-144</name>
						<rate>
							<timebase>60</timebase>
							<ntsc>TRUE</ntsc>
						</rate>
						<rate>
							<timebase>60</timebase>
							<ntsc>TRUE</ntsc>
						</rate>
						<duration>0</duration>
						<start>6492</start>
						<end>6492</end>
						<in>6492</in>
						<out>6492</out>
						<enabled>FALSE</enabled>
					</clipitem>
					<clipitem frameBlend="FALSE" id="clipitem-rejected-809">
						<file id="file-1"/>
						<name>[REJECTED] bandicam 2025-06-02 00-01-10-144</name>
						<rate>
							<timebase>60</timebase>
							<ntsc>TRUE</ntsc>
						</rate>
						<rate>
							<timebase>60</timebase>
							<ntsc>TRUE</ntsc>
						</rate>
						<duration>30</duration>
						<start>6540</start>
						<end>6570</end>
						<in>6540</in>
						<out>6570</out>
						<enabled>FALSE</enabled>
					</clipitem>
					<clipitem frameBlend="FALSE" id="clipitem-rejected-810">
						<file id="file-1"/>
						<name>[REJECTED] bandicam 2025-06-02 00-01-10-144</name>
						<rate>
							<timebase>60</timebase>
							<ntsc>TRUE</ntsc>
						</rate>
						<rate>
							<timebase>60</timebase>
							<ntsc>TRUE</ntsc>
						</rate>
						<duration>24</duration>
						<start>6582</start>
						<end>6606</end>
						<in>6582</in>
						<out>6606</out>
						<enabled>FALSE</enabled>
					</clipitem>
					<clipitem frameBlend="FALSE" id="clipitem-rejected-811">
						<file id="file-1"/>
						<name>[REJECTED] bandicam 2025-06-02 00-01-10-144</name>
						<rate>
							<timebase>60</timebase>
							<ntsc>TRUE</ntsc>
						</rate>
						<rate>
							<timebase>60</timebase>
							<ntsc>TRUE</ntsc>
						</rate>
						<duration>114</duration>
						<start>6630</start>
						<end>6744</end>
						<in>6630</in>
						<out>6744</out>
						<enabled>FALSE</enabled>
					</clipitem>
					<clipitem frameBlend="FALSE" id="clipitem-rejected-812">
						<file id="file-1"/>
						<name>[REJECTED] bandicam 2025-06-02 00-01-10-144</name>
						<rate>
							<timebase>60</timebase>
							<ntsc>TRUE</ntsc>
						</rate>
						<rate>
							<timebase>60</timebase>
							<ntsc>TRUE</ntsc>
						</rate>
						<duration>0</duration>
						<start>6756</start>
						<end>6756</end>
						<in>6756</in>
						<out>6756</out>
						<enabled>FALSE</enabled>
					</clipitem>
					<clipitem frameBlend="FALSE" id="clipitem-rejected-813">
						<file id="file-1"/>
						<name>[REJECTED] bandicam 2025-06-02 00-01-10-144</name>
						<rate>
							<timebase>60</timebase>
							<ntsc>TRUE</ntsc>
						</rate>
						<rate>
							<timebase>60</timebase>
							<ntsc>TRUE</ntsc>
						</rate>
						<duration>36</duration>
						<start>6768</start>
						<end>6804</end>
						<in>6768</in>
						<out>6804</out>
						<enabled>FALSE</enabled>
					</clipitem>
					<clipitem frameBlend="FALSE" id="clipitem-rejected-814">
						<file id="file-1"/>
						<name>[REJECTED] bandicam 2025-06-02 00-01-10-144</name>
						<rate>
							<timebase>60</timebase>
							<ntsc>TRUE</ntsc>
						</rate>
						<rate>
							<timebase>60</timebase>
							<ntsc>TRUE</ntsc>
						</rate>
						<duration>0</duration>
						<start>6822</start>
						<end>6822</end>
						<in>6822</in>
						<out>6822</out>
						<enabled>FALSE</enabled>
					</clipitem>
					<clipitem frameBlend="FALSE" id="clipitem-rejected-815">
						<file id="file-1"/>
						<name>[REJECTED] bandicam 2025-06-02 00-01-10-144</name>
						<rate>
							<timebase>60</timebase>
							<ntsc>TRUE</ntsc>
						</rate>
						<rate>
							<timebase>60</timebase>
							<ntsc>TRUE</ntsc>
						</rate>
						<duration>42</duration>
						<start>6846</start>
						<end>6888</end>
						<in>6846</in>
						<out>6888</out>
						<enabled>FALSE</enabled>
					</clipitem>
					<clipitem frameBlend="FALSE" id="clipitem-rejected-816">
						<file id="file-1"/>
						<name>[REJECTED] bandicam 2025-06-02 00-01-10-144</name>
						<rate>
							<timebase>60</timebase>
							<ntsc>TRUE</ntsc>
						</rate>
						<rate>
							<timebase>60</timebase>
							<ntsc>TRUE</ntsc>
						</rate>
						<duration>0</duration>
						<start>6906</start>
						<end>6906</end>
						<in>6906</in>
						<out>6906</out>
						<enabled>FALSE</enabled>
					</clipitem>
					<clipitem frameBlend="FALSE" id="clipitem-rejected-817">
						<file id="file-1"/>
						<name>[REJECTED] bandicam 2025-06-02 00-01-10-144</name>
						<rate>
							<timebase>60</timebase>
							<ntsc>TRUE</ntsc>
						</rate>
						<rate>
							<timebase>60</timebase>
							<ntsc>TRUE</ntsc>
						</rate>
						<duration>18</duration>
						<start>6930</start>
						<end>6948</end>
						<in>6930</in>
						<out>6948</out>
						<enabled>FALSE</enabled>
					</clipitem>
					<clipitem frameBlend="FALSE" id="clipitem-rejected-818">
						<file id="file-1"/>
						<name>[REJECTED] bandicam 2025-06-02 00-01-10-144</name>
						<rate>
							<timebase>60</timebase>
							<ntsc>TRUE</ntsc>
						</rate>
						<rate>
							<timebase>60</timebase>
							<ntsc>TRUE</ntsc>
						</rate>
						<duration>36</duration>
						<start>6960</start>
						<end>6996</end>
						<in>6960</in>
						<out>6996</out>
						<enabled>FALSE</enabled>
					</clipitem>
					<clipitem frameBlend="FALSE" id="clipitem-rejected-819">
						<file id="file-1"/>
						<name>[REJECTED] bandicam 2025-06-02 00-01-10-144</name>
						<rate>
							<timebase>60</timebase>
							<ntsc>TRUE</ntsc>
						</rate>
						<rate>
							<timebase>60</timebase>
							<ntsc>TRUE</ntsc>
						</rate>
						<duration>12</duration>
						<start>7008</start>
						<end>7020</end>
						<in>7008</in>
						<out>7020</out>
						<enabled>FALSE</enabled>
					</clipitem>
					<clipitem frameBlend="FALSE" id="clipitem-rejected-820">
						<file id="file-1"/>
						<name>[REJECTED] bandicam 2025-06-02 00-01-10-144</name>
						<rate>
							<timebase>60</timebase>
							<ntsc>TRUE</ntsc>
						</rate>
						<rate>
							<timebase>60</timebase>
							<ntsc>TRUE</ntsc>
						</rate>
						<duration>24</duration>
						<start>7044</start>
						<end>7068</end>
						<in>7044</in>
						<out>7068</out>
						<enabled>FALSE</enabled>
					</clipitem>
					<clipitem frameBlend="FALSE" id="clipitem-rejected-821">
						<file id="file-1"/>
						<name>[REJECTED] bandicam 2025-06-02 00-01-10-144</name>
						<rate>
							<timebase>60</timebase>
							<ntsc>TRUE</ntsc>
						</rate>
						<rate>
							<timebase>60</timebase>
							<ntsc>TRUE</ntsc>
						</rate>
						<duration>3270</duration>
						<start>0</start>
						<end>3270</end>
						<in>0</in>
						<out>3270</out>
						<enabled>FALSE</enabled>
					</clipitem>
					<clipitem frameBlend="FALSE" id="clipitem-rejected-822">
						<file id="file-1"/>
						<name>[REJECTED] bandicam 2025-06-02 00-01-10-144</name>
						<rate>
							<timebase>60</timebase>
							<ntsc>TRUE</ntsc>
						</rate>
						<rate>
							<timebase>60</timebase>
							<ntsc>TRUE</ntsc>
						</rate>
						<duration>3786</duration>
						<start>3282</start>
						<end>7068</end>
						<in>3282</in>
						<out>7068</out>
						<enabled>FALSE</enabled>
					</clipitem>
					<clipitem frameBlend="FALSE" id="clipitem-rejected-823">
						<file id="file-1"/>
						<name>[REJECTED] bandicam 2025-06-02 00-01-10-144</name>
						<rate>
							<timebase>60</timebase>
							<ntsc>TRUE</ntsc>
						</rate>
						<rate>
							<timebase>60</timebase>
							<ntsc>TRUE</ntsc>
						</rate>
						<duration>6</duration>
						<start>0</start>
						<end>6</end>
						<in>0</in>
						<out>6</out>
						<enabled>FALSE</enabled>
					</clipitem>
					<clipitem frameBlend="FALSE" id="clipitem-rejected-824">
						<file id="file-1"/>
						<name>[REJECTED] bandicam 2025-06-02 00-01-10-144</name>
						<rate>
							<timebase>60</timebase>
							<ntsc>TRUE</ntsc>
						</rate>
						<rate>
							<timebase>60</timebase>
							<ntsc>TRUE</ntsc>
						</rate>
						<duration>0</duration>
						<start>48</start>
						<end>48</end>
						<in>48</in>
						<out>48</out>
						<enabled>FALSE</enabled>
					</clipitem>
					<clipitem frameBlend="FALSE" id="clipitem-rejected-825">
						<file id="file-1"/>
						<name>[REJECTED] bandicam 2025-06-02 00-01-10-144</name>
						<rate>
							<timebase>60</timebase>
							<ntsc>TRUE</ntsc>
						</rate>
						<rate>
							<timebase>60</timebase>
							<ntsc>TRUE</ntsc>
						</rate>
						<duration>6</duration>
						<start>96</start>
						<end>102</end>
						<in>96</in>
						<out>102</out>
						<enabled>FALSE</enabled>
					</clipitem>
					<clipitem frameBlend="FALSE" id="clipitem-rejected-826">
						<file id="file-1"/>
						<name>[REJECTED] bandicam 2025-06-02 00-01-10-144</name>
						<rate>
							<timebase>60</timebase>
							<ntsc>TRUE</ntsc>
						</rate>
						<rate>
							<timebase>60</timebase>
							<ntsc>TRUE</ntsc>
						</rate>
						<duration>18</duration>
						<start>132</start>
						<end>150</end>
						<in>132</in>
						<out>150</out>
						<enabled>FALSE</enabled>
					</clipitem>
					<clipitem frameBlend="FALSE" id="clipitem-rejected-827">
						<file id="file-1"/>
						<name>[REJECTED] bandicam 2025-06-02 00-01-10-144</name>
						<rate>
							<timebase>60</timebase>
							<ntsc>TRUE</ntsc>
						</rate>
						<rate>
							<timebase>60</timebase>
							<ntsc>TRUE</ntsc>
						</rate>
						<duration>6</duration>
						<start>162</start>
						<end>168</end>
						<in>162</in>
						<out>168</out>
						<enabled>FALSE</enabled>
					</clipitem>
					<clipitem frameBlend="FALSE" id="clipitem-rejected-828">
						<file id="file-1"/>
						<name>[REJECTED] bandicam 2025-06-02 00-01-10-144</name>
						<rate>
							<timebase>60</timebase>
							<ntsc>TRUE</ntsc>
						</rate>
						<rate>
							<timebase>60</timebase>
							<ntsc>TRUE</ntsc>
						</rate>
						<duration>90</duration>
						<start>204</start>
						<end>294</end>
						<in>204</in>
						<out>294</out>
						<enabled>FALSE</enabled>
					</clipitem>
					<clipitem frameBlend="FALSE" id="clipitem-rejected-829">
						<file id="file-1"/>
						<name>[REJECTED] bandicam 2025-06-02 00-01-10-144</name>
						<rate>
							<timebase>60</timebase>
							<ntsc>TRUE</ntsc>
						</rate>
						<rate>
							<timebase>60</timebase>
							<ntsc>TRUE</ntsc>
						</rate>
						<duration>48</duration>
						<start>306</start>
						<end>354</end>
						<in>306</in>
						<out>354</out>
						<enabled>FALSE</enabled>
					</clipitem>
					<clipitem frameBlend="FALSE" id="clipitem-rejected-830">
						<file id="file-1"/>
						<name>[REJECTED] bandicam 2025-06-02 00-01-10-144</name>
						<rate>
							<timebase>60</timebase>
							<ntsc>TRUE</ntsc>
						</rate>
						<rate>
							<timebase>60</timebase>
							<ntsc>TRUE</ntsc>
						</rate>
						<duration>36</duration>
						<start>396</start>
						<end>432</end>
						<in>396</in>
						<out>432</out>
						<enabled>FALSE</enabled>
					</clipitem>
					<clipitem frameBlend="FALSE" id="clipitem-rejected-831">
						<file id="file-1"/>
						<name>[REJECTED] bandicam 2025-06-02 00-01-10-144</name>
						<rate>
							<timebase>60</timebase>
							<ntsc>TRUE</ntsc>
						</rate>
						<rate>
							<timebase>60</timebase>
							<ntsc>TRUE</ntsc>
						</rate>
						<duration>0</duration>
						<start>444</start>
						<end>444</end>
						<in>444</in>
						<out>444</out>
						<enabled>FALSE</enabled>
					</clipitem>
					<clipitem frameBlend="FALSE" id="clipitem-rejected-832">
						<file id="file-1"/>
						<name>[REJECTED] bandicam 2025-06-02 00-01-10-144</name>
						<rate>
							<timebase>60</timebase>
							<ntsc>TRUE</ntsc>
						</rate>
						<rate>
							<timebase>60</timebase>
							<ntsc>TRUE</ntsc>
						</rate>
						<duration>0</duration>
						<start>498</start>
						<end>498</end>
						<in>498</in>
						<out>498</out>
						<enabled>FALSE</enabled>
					</clipitem>
					<clipitem frameBlend="FALSE" id="clipitem-rejected-833">
						<file id="file-1"/>
						<name>[REJECTED] bandicam 2025-06-02 00-01-10-144</name>
						<rate>
							<timebase>60</timebase>
							<ntsc>TRUE</ntsc>
						</rate>
						<rate>
							<timebase>60</timebase>
							<ntsc>TRUE</ntsc>
						</rate>
						<duration>12</duration>
						<start>510</start>
						<end>522</end>
						<in>510</in>
						<out>522</out>
						<enabled>FALSE</enabled>
					</clipitem>
					<clipitem frameBlend="FALSE" id="clipitem-rejected-834">
						<file id="file-1"/>
						<name>[REJECTED] bandicam 2025-06-02 00-01-10-144</name>
						<rate>
							<timebase>60</timebase>
							<ntsc>TRUE</ntsc>
						</rate>
						<rate>
							<timebase>60</timebase>
							<ntsc>TRUE</ntsc>
						</rate>
						<duration>0</duration>
						<start>576</start>
						<end>576</end>
						<in>576</in>
						<out>576</out>
						<enabled>FALSE</enabled>
					</clipitem>
					<clipitem frameBlend="FALSE" id="clipitem-rejected-835">
						<file id="file-1"/>
						<name>[REJECTED] bandicam 2025-06-02 00-01-10-144</name>
						<rate>
							<timebase>60</timebase>
							<ntsc>TRUE</ntsc>
						</rate>
						<rate>
							<timebase>60</timebase>
							<ntsc>TRUE</ntsc>
						</rate>
						<duration>6</duration>
						<start>612</start>
						<end>618</end>
						<in>612</in>
						<out>618</out>
						<enabled>FALSE</enabled>
					</clipitem>
					<clipitem frameBlend="FALSE" id="clipitem-rejected-836">
						<file id="file-1"/>
						<name>[REJECTED] bandicam 2025-06-02 00-01-10-144</name>
						<rate>
							<timebase>60</timebase>
							<ntsc>TRUE</ntsc>
						</rate>
						<rate>
							<timebase>60</timebase>
							<ntsc>TRUE</ntsc>
						</rate>
						<duration>162</duration>
						<start>648</start>
						<end>810</end>
						<in>648</in>
						<out>810</out>
						<enabled>FALSE</enabled>
					</clipitem>
					<clipitem frameBlend="FALSE" id="clipitem-rejected-837">
						<file id="file-1"/>
						<name>[REJECTED] bandicam 2025-06-02 00-01-10-144</name>
						<rate>
							<timebase>60</timebase>
							<ntsc>TRUE</ntsc>
						</rate>
						<rate>
							<timebase>60</timebase>
							<ntsc>TRUE</ntsc>
						</rate>
						<duration>24</duration>
						<start>822</start>
						<end>846</end>
						<in>822</in>
						<out>846</out>
						<enabled>FALSE</enabled>
					</clipitem>
					<clipitem frameBlend="FALSE" id="clipitem-rejected-838">
						<file id="file-1"/>
						<name>[REJECTED] bandicam 2025-06-02 00-01-10-144</name>
						<rate>
							<timebase>60</timebase>
							<ntsc>TRUE</ntsc>
						</rate>
						<rate>
							<timebase>60</timebase>
							<ntsc>TRUE</ntsc>
						</rate>
						<duration>24</duration>
						<start>858</start>
						<end>882</end>
						<in>858</in>
						<out>882</out>
						<enabled>FALSE</enabled>
					</clipitem>
					<clipitem frameBlend="FALSE" id="clipitem-rejected-839">
						<file id="file-1"/>
						<name>[REJECTED] bandicam 2025-06-02 00-01-10-144</name>
						<rate>
							<timebase>60</timebase>
							<ntsc>TRUE</ntsc>
						</rate>
						<rate>
							<timebase>60</timebase>
							<ntsc>TRUE</ntsc>
						</rate>
						<duration>0</duration>
						<start>906</start>
						<end>906</end>
						<in>906</in>
						<out>906</out>
						<enabled>FALSE</enabled>
					</clipitem>
					<clipitem frameBlend="FALSE" id="clipitem-rejected-840">
						<file id="file-1"/>
						<name>[REJECTED] bandicam 2025-06-02 00-01-10-144</name>
						<rate>
							<timebase>60</timebase>
							<ntsc>TRUE</ntsc>
						</rate>
						<rate>
							<timebase>60</timebase>
							<ntsc>TRUE</ntsc>
						</rate>
						<duration>12</duration>
						<start>918</start>
						<end>930</end>
						<in>918</in>
						<out>930</out>
						<enabled>FALSE</enabled>
					</clipitem>
					<clipitem frameBlend="FALSE" id="clipitem-rejected-841">
						<file id="file-1"/>
						<name>[REJECTED] bandicam 2025-06-02 00-01-10-144</name>
						<rate>
							<timebase>60</timebase>
							<ntsc>TRUE</ntsc>
						</rate>
						<rate>
							<timebase>60</timebase>
							<ntsc>TRUE</ntsc>
						</rate>
						<duration>6</duration>
						<start>942</start>
						<end>948</end>
						<in>942</in>
						<out>948</out>
						<enabled>FALSE</enabled>
					</clipitem>
					<clipitem frameBlend="FALSE" id="clipitem-rejected-842">
						<file id="file-1"/>
						<name>[REJECTED] bandicam 2025-06-02 00-01-10-144</name>
						<rate>
							<timebase>60</timebase>
							<ntsc>TRUE</ntsc>
						</rate>
						<rate>
							<timebase>60</timebase>
							<ntsc>TRUE</ntsc>
						</rate>
						<duration>18</duration>
						<start>960</start>
						<end>978</end>
						<in>960</in>
						<out>978</out>
						<enabled>FALSE</enabled>
					</clipitem>
					<clipitem frameBlend="FALSE" id="clipitem-rejected-843">
						<file id="file-1"/>
						<name>[REJECTED] bandicam 2025-06-02 00-01-10-144</name>
						<rate>
							<timebase>60</timebase>
							<ntsc>TRUE</ntsc>
						</rate>
						<rate>
							<timebase>60</timebase>
							<ntsc>TRUE</ntsc>
						</rate>
						<duration>48</duration>
						<start>1002</start>
						<end>1050</end>
						<in>1002</in>
						<out>1050</out>
						<enabled>FALSE</enabled>
					</clipitem>
					<clipitem frameBlend="FALSE" id="clipitem-rejected-844">
						<file id="file-1"/>
						<name>[REJECTED] bandicam 2025-06-02 00-01-10-144</name>
						<rate>
							<timebase>60</timebase>
							<ntsc>TRUE</ntsc>
						</rate>
						<rate>
							<timebase>60</timebase>
							<ntsc>TRUE</ntsc>
						</rate>
						<duration>18</duration>
						<start>1062</start>
						<end>1080</end>
						<in>1062</in>
						<out>1080</out>
						<enabled>FALSE</enabled>
					</clipitem>
					<clipitem frameBlend="FALSE" id="clipitem-rejected-845">
						<file id="file-1"/>
						<name>[REJECTED] bandicam 2025-06-02 00-01-10-144</name>
						<rate>
							<timebase>60</timebase>
							<ntsc>TRUE</ntsc>
						</rate>
						<rate>
							<timebase>60</timebase>
							<ntsc>TRUE</ntsc>
						</rate>
						<duration>78</duration>
						<start>1104</start>
						<end>1182</end>
						<in>1104</in>
						<out>1182</out>
						<enabled>FALSE</enabled>
					</clipitem>
					<clipitem frameBlend="FALSE" id="clipitem-rejected-846">
						<file id="file-1"/>
						<name>[REJECTED] bandicam 2025-06-02 00-01-10-144</name>
						<rate>
							<timebase>60</timebase>
							<ntsc>TRUE</ntsc>
						</rate>
						<rate>
							<timebase>60</timebase>
							<ntsc>TRUE</ntsc>
						</rate>
						<duration>60</duration>
						<start>1254</start>
						<end>1314</end>
						<in>1254</in>
						<out>1314</out>
						<enabled>FALSE</enabled>
					</clipitem>
					<clipitem frameBlend="FALSE" id="clipitem-rejected-847">
						<file id="file-1"/>
						<name>[REJECTED] bandicam 2025-06-02 00-01-10-144</name>
						<rate>
							<timebase>60</timebase>
							<ntsc>TRUE</ntsc>
						</rate>
						<rate>
							<timebase>60</timebase>
							<ntsc>TRUE</ntsc>
						</rate>
						<duration>42</duration>
						<start>1326</start>
						<end>1368</end>
						<in>1326</in>
						<out>1368</out>
						<enabled>FALSE</enabled>
					</clipitem>
					<clipitem frameBlend="FALSE" id="clipitem-rejected-848">
						<file id="file-1"/>
						<name>[REJECTED] bandicam 2025-06-02 00-01-10-144</name>
						<rate>
							<timebase>60</timebase>
							<ntsc>TRUE</ntsc>
						</rate>
						<rate>
							<timebase>60</timebase>
							<ntsc>TRUE</ntsc>
						</rate>
						<duration>0</duration>
						<start>1440</start>
						<end>1440</end>
						<in>1440</in>
						<out>1440</out>
						<enabled>FALSE</enabled>
					</clipitem>
					<clipitem frameBlend="FALSE" id="clipitem-rejected-849">
						<file id="file-1"/>
						<name>[REJECTED] bandicam 2025-06-02 00-01-10-144</name>
						<rate>
							<timebase>60</timebase>
							<ntsc>TRUE</ntsc>
						</rate>
						<rate>
							<timebase>60</timebase>
							<ntsc>TRUE</ntsc>
						</rate>
						<duration>36</duration>
						<start>1488</start>
						<end>1524</end>
						<in>1488</in>
						<out>1524</out>
						<enabled>FALSE</enabled>
					</clipitem>
					<clipitem frameBlend="FALSE" id="clipitem-rejected-850">
						<file id="file-1"/>
						<name>[REJECTED] bandicam 2025-06-02 00-01-10-144</name>
						<rate>
							<timebase>60</timebase>
							<ntsc>TRUE</ntsc>
						</rate>
						<rate>
							<timebase>60</timebase>
							<ntsc>TRUE</ntsc>
						</rate>
						<duration>18</duration>
						<start>1542</start>
						<end>1560</end>
						<in>1542</in>
						<out>1560</out>
						<enabled>FALSE</enabled>
					</clipitem>
					<clipitem frameBlend="FALSE" id="clipitem-rejected-851">
						<file id="file-1"/>
						<name>[REJECTED] bandicam 2025-06-02 00-01-10-144</name>
						<rate>
							<timebase>60</timebase>
							<ntsc>TRUE</ntsc>
						</rate>
						<rate>
							<timebase>60</timebase>
							<ntsc>TRUE</ntsc>
						</rate>
						<duration>72</duration>
						<start>1614</start>
						<end>1686</end>
						<in>1614</in>
						<out>1686</out>
						<enabled>FALSE</enabled>
					</clipitem>
					<clipitem frameBlend="FALSE" id="clipitem-rejected-852">
						<file id="file-1"/>
						<name>[REJECTED] bandicam 2025-06-02 00-01-10-144</name>
						<rate>
							<timebase>60</timebase>
							<ntsc>TRUE</ntsc>
						</rate>
						<rate>
							<timebase>60</timebase>
							<ntsc>TRUE</ntsc>
						</rate>
						<duration>6</duration>
						<start>1788</start>
						<end>1794</end>
						<in>1788</in>
						<out>1794</out>
						<enabled>FALSE</enabled>
					</clipitem>
					<clipitem frameBlend="FALSE" id="clipitem-rejected-853">
						<file id="file-1"/>
						<name>[REJECTED] bandicam 2025-06-02 00-01-10-144</name>
						<rate>
							<timebase>60</timebase>
							<ntsc>TRUE</ntsc>
						</rate>
						<rate>
							<timebase>60</timebase>
							<ntsc>TRUE</ntsc>
						</rate>
						<duration>6</duration>
						<start>1914</start>
						<end>1920</end>
						<in>1914</in>
						<out>1920</out>
						<enabled>FALSE</enabled>
					</clipitem>
					<clipitem frameBlend="FALSE" id="clipitem-rejected-854">
						<file id="file-1"/>
						<name>[REJECTED] bandicam 2025-06-02 00-01-10-144</name>
						<rate>
							<timebase>60</timebase>
							<ntsc>TRUE</ntsc>
						</rate>
						<rate>
							<timebase>60</timebase>
							<ntsc>TRUE</ntsc>
						</rate>
						<duration>192</duration>
						<start>1974</start>
						<end>2166</end>
						<in>1974</in>
						<out>2166</out>
						<enabled>FALSE</enabled>
					</clipitem>
					<clipitem frameBlend="FALSE" id="clipitem-rejected-855">
						<file id="file-1"/>
						<name>[REJECTED] bandicam 2025-06-02 00-01-10-144</name>
						<rate>
							<timebase>60</timebase>
							<ntsc>TRUE</ntsc>
						</rate>
						<rate>
							<timebase>60</timebase>
							<ntsc>TRUE</ntsc>
						</rate>
						<duration>42</duration>
						<start>2226</start>
						<end>2268</end>
						<in>2226</in>
						<out>2268</out>
						<enabled>FALSE</enabled>
					</clipitem>
					<clipitem frameBlend="FALSE" id="clipitem-rejected-856">
						<file id="file-1"/>
						<name>[REJECTED] bandicam 2025-06-02 00-01-10-144</name>
						<rate>
							<timebase>60</timebase>
							<ntsc>TRUE</ntsc>
						</rate>
						<rate>
							<timebase>60</timebase>
							<ntsc>TRUE</ntsc>
						</rate>
						<duration>60</duration>
						<start>2382</start>
						<end>2442</end>
						<in>2382</in>
						<out>2442</out>
						<enabled>FALSE</enabled>
					</clipitem>
					<clipitem frameBlend="FALSE" id="clipitem-rejected-857">
						<file id="file-1"/>
						<name>[REJECTED] bandicam 2025-06-02 00-01-10-144</name>
						<rate>
							<timebase>60</timebase>
							<ntsc>TRUE</ntsc>
						</rate>
						<rate>
							<timebase>60</timebase>
							<ntsc>TRUE</ntsc>
						</rate>
						<duration>0</duration>
						<start>2472</start>
						<end>2472</end>
						<in>2472</in>
						<out>2472</out>
						<enabled>FALSE</enabled>
					</clipitem>
					<clipitem frameBlend="FALSE" id="clipitem-rejected-858">
						<file id="file-1"/>
						<name>[REJECTED] bandicam 2025-06-02 00-01-10-144</name>
						<rate>
							<timebase>60</timebase>
							<ntsc>TRUE</ntsc>
						</rate>
						<rate>
							<timebase>60</timebase>
							<ntsc>TRUE</ntsc>
						</rate>
						<duration>0</duration>
						<start>2490</start>
						<end>2490</end>
						<in>2490</in>
						<out>2490</out>
						<enabled>FALSE</enabled>
					</clipitem>
					<clipitem frameBlend="FALSE" id="clipitem-rejected-859">
						<file id="file-1"/>
						<name>[REJECTED] bandicam 2025-06-02 00-01-10-144</name>
						<rate>
							<timebase>60</timebase>
							<ntsc>TRUE</ntsc>
						</rate>
						<rate>
							<timebase>60</timebase>
							<ntsc>TRUE</ntsc>
						</rate>
						<duration>18</duration>
						<start>2508</start>
						<end>2526</end>
						<in>2508</in>
						<out>2526</out>
						<enabled>FALSE</enabled>
					</clipitem>
					<clipitem frameBlend="FALSE" id="clipitem-rejected-860">
						<file id="file-1"/>
						<name>[REJECTED] bandicam 2025-06-02 00-01-10-144</name>
						<rate>
							<timebase>60</timebase>
							<ntsc>TRUE</ntsc>
						</rate>
						<rate>
							<timebase>60</timebase>
							<ntsc>TRUE</ntsc>
						</rate>
						<duration>12</duration>
						<start>2574</start>
						<end>2586</end>
						<in>2574</in>
						<out>2586</out>
						<enabled>FALSE</enabled>
					</clipitem>
					<clipitem frameBlend="FALSE" id="clipitem-rejected-861">
						<file id="file-1"/>
						<name>[REJECTED] bandicam 2025-06-02 00-01-10-144</name>
						<rate>
							<timebase>60</timebase>
							<ntsc>TRUE</ntsc>
						</rate>
						<rate>
							<timebase>60</timebase>
							<ntsc>TRUE</ntsc>
						</rate>
						<duration>18</duration>
						<start>2700</start>
						<end>2718</end>
						<in>2700</in>
						<out>2718</out>
						<enabled>FALSE</enabled>
					</clipitem>
					<clipitem frameBlend="FALSE" id="clipitem-rejected-862">
						<file id="file-1"/>
						<name>[REJECTED] bandicam 2025-06-02 00-01-10-144</name>
						<rate>
							<timebase>60</timebase>
							<ntsc>TRUE</ntsc>
						</rate>
						<rate>
							<timebase>60</timebase>
							<ntsc>TRUE</ntsc>
						</rate>
						<duration>18</duration>
						<start>2916</start>
						<end>2934</end>
						<in>2916</in>
						<out>2934</out>
						<enabled>FALSE</enabled>
					</clipitem>
					<clipitem frameBlend="FALSE" id="clipitem-rejected-863">
						<file id="file-1"/>
						<name>[REJECTED] bandicam 2025-06-02 00-01-10-144</name>
						<rate>
							<timebase>60</timebase>
							<ntsc>TRUE</ntsc>
						</rate>
						<rate>
							<timebase>60</timebase>
							<ntsc>TRUE</ntsc>
						</rate>
						<duration>0</duration>
						<start>2958</start>
						<end>2958</end>
						<in>2958</in>
						<out>2958</out>
						<enabled>FALSE</enabled>
					</clipitem>
					<clipitem frameBlend="FALSE" id="clipitem-rejected-864">
						<file id="file-1"/>
						<name>[REJECTED] bandicam 2025-06-02 00-01-10-144</name>
						<rate>
							<timebase>60</timebase>
							<ntsc>TRUE</ntsc>
						</rate>
						<rate>
							<timebase>60</timebase>
							<ntsc>TRUE</ntsc>
						</rate>
						<duration>0</duration>
						<start>3018</start>
						<end>3018</end>
						<in>3018</in>
						<out>3018</out>
						<enabled>FALSE</enabled>
					</clipitem>
					<clipitem frameBlend="FALSE" id="clipitem-rejected-865">
						<file id="file-1"/>
						<name>[REJECTED] bandicam 2025-06-02 00-01-10-144</name>
						<rate>
							<timebase>60</timebase>
							<ntsc>TRUE</ntsc>
						</rate>
						<rate>
							<timebase>60</timebase>
							<ntsc>TRUE</ntsc>
						</rate>
						<duration>18</duration>
						<start>3030</start>
						<end>3048</end>
						<in>3030</in>
						<out>3048</out>
						<enabled>FALSE</enabled>
					</clipitem>
					<clipitem frameBlend="FALSE" id="clipitem-rejected-866">
						<file id="file-1"/>
						<name>[REJECTED] bandicam 2025-06-02 00-01-10-144</name>
						<rate>
							<timebase>60</timebase>
							<ntsc>TRUE</ntsc>
						</rate>
						<rate>
							<timebase>60</timebase>
							<ntsc>TRUE</ntsc>
						</rate>
						<duration>0</duration>
						<start>3114</start>
						<end>3114</end>
						<in>3114</in>
						<out>3114</out>
						<enabled>FALSE</enabled>
					</clipitem>
					<clipitem frameBlend="FALSE" id="clipitem-rejected-867">
						<file id="file-1"/>
						<name>[REJECTED] bandicam 2025-06-02 00-01-10-144</name>
						<rate>
							<timebase>60</timebase>
							<ntsc>TRUE</ntsc>
						</rate>
						<rate>
							<timebase>60</timebase>
							<ntsc>TRUE</ntsc>
						</rate>
						<duration>48</duration>
						<start>3168</start>
						<end>3216</end>
						<in>3168</in>
						<out>3216</out>
						<enabled>FALSE</enabled>
					</clipitem>
					<clipitem frameBlend="FALSE" id="clipitem-rejected-868">
						<file id="file-1"/>
						<name>[REJECTED] bandicam 2025-06-02 00-01-10-144</name>
						<rate>
							<timebase>60</timebase>
							<ntsc>TRUE</ntsc>
						</rate>
						<rate>
							<timebase>60</timebase>
							<ntsc>TRUE</ntsc>
						</rate>
						<duration>0</duration>
						<start>3312</start>
						<end>3312</end>
						<in>3312</in>
						<out>3312</out>
						<enabled>FALSE</enabled>
					</clipitem>
					<clipitem frameBlend="FALSE" id="clipitem-rejected-869">
						<file id="file-1"/>
						<name>[REJECTED] bandicam 2025-06-02 00-01-10-144</name>
						<rate>
							<timebase>60</timebase>
							<ntsc>TRUE</ntsc>
						</rate>
						<rate>
							<timebase>60</timebase>
							<ntsc>TRUE</ntsc>
						</rate>
						<duration>30</duration>
						<start>3336</start>
						<end>3366</end>
						<in>3336</in>
						<out>3366</out>
						<enabled>FALSE</enabled>
					</clipitem>
					<clipitem frameBlend="FALSE" id="clipitem-rejected-870">
						<file id="file-1"/>
						<name>[REJECTED] bandicam 2025-06-02 00-01-10-144</name>
						<rate>
							<timebase>60</timebase>
							<ntsc>TRUE</ntsc>
						</rate>
						<rate>
							<timebase>60</timebase>
							<ntsc>TRUE</ntsc>
						</rate>
						<duration>24</duration>
						<start>3420</start>
						<end>3444</end>
						<in>3420</in>
						<out>3444</out>
						<enabled>FALSE</enabled>
					</clipitem>
					<clipitem frameBlend="FALSE" id="clipitem-rejected-871">
						<file id="file-1"/>
						<name>[REJECTED] bandicam 2025-06-02 00-01-10-144</name>
						<rate>
							<timebase>60</timebase>
							<ntsc>TRUE</ntsc>
						</rate>
						<rate>
							<timebase>60</timebase>
							<ntsc>TRUE</ntsc>
						</rate>
						<duration>12</duration>
						<start>3480</start>
						<end>3492</end>
						<in>3480</in>
						<out>3492</out>
						<enabled>FALSE</enabled>
					</clipitem>
					<clipitem frameBlend="FALSE" id="clipitem-rejected-872">
						<file id="file-1"/>
						<name>[REJECTED] bandicam 2025-06-02 00-01-10-144</name>
						<rate>
							<timebase>60</timebase>
							<ntsc>TRUE</ntsc>
						</rate>
						<rate>
							<timebase>60</timebase>
							<ntsc>TRUE</ntsc>
						</rate>
						<duration>30</duration>
						<start>3546</start>
						<end>3576</end>
						<in>3546</in>
						<out>3576</out>
						<enabled>FALSE</enabled>
					</clipitem>
					<clipitem frameBlend="FALSE" id="clipitem-rejected-873">
						<file id="file-1"/>
						<name>[REJECTED] bandicam 2025-06-02 00-01-10-144</name>
						<rate>
							<timebase>60</timebase>
							<ntsc>TRUE</ntsc>
						</rate>
						<rate>
							<timebase>60</timebase>
							<ntsc>TRUE</ntsc>
						</rate>
						<duration>30</duration>
						<start>3588</start>
						<end>3618</end>
						<in>3588</in>
						<out>3618</out>
						<enabled>FALSE</enabled>
					</clipitem>
					<clipitem frameBlend="FALSE" id="clipitem-rejected-874">
						<file id="file-1"/>
						<name>[REJECTED] bandicam 2025-06-02 00-01-10-144</name>
						<rate>
							<timebase>60</timebase>
							<ntsc>TRUE</ntsc>
						</rate>
						<rate>
							<timebase>60</timebase>
							<ntsc>TRUE</ntsc>
						</rate>
						<duration>18</duration>
						<start>3648</start>
						<end>3666</end>
						<in>3648</in>
						<out>3666</out>
						<enabled>FALSE</enabled>
					</clipitem>
					<clipitem frameBlend="FALSE" id="clipitem-rejected-875">
						<file id="file-1"/>
						<name>[REJECTED] bandicam 2025-06-02 00-01-10-144</name>
						<rate>
							<timebase>60</timebase>
							<ntsc>TRUE</ntsc>
						</rate>
						<rate>
							<timebase>60</timebase>
							<ntsc>TRUE</ntsc>
						</rate>
						<duration>6</duration>
						<start>3684</start>
						<end>3690</end>
						<in>3684</in>
						<out>3690</out>
						<enabled>FALSE</enabled>
					</clipitem>
					<clipitem frameBlend="FALSE" id="clipitem-rejected-876">
						<file id="file-1"/>
						<name>[REJECTED] bandicam 2025-06-02 00-01-10-144</name>
						<rate>
							<timebase>60</timebase>
							<ntsc>TRUE</ntsc>
						</rate>
						<rate>
							<timebase>60</timebase>
							<ntsc>TRUE</ntsc>
						</rate>
						<duration>60</duration>
						<start>3702</start>
						<end>3762</end>
						<in>3702</in>
						<out>3762</out>
						<enabled>FALSE</enabled>
					</clipitem>
					<clipitem frameBlend="FALSE" id="clipitem-rejected-877">
						<file id="file-1"/>
						<name>[REJECTED] bandicam 2025-06-02 00-01-10-144</name>
						<rate>
							<timebase>60</timebase>
							<ntsc>TRUE</ntsc>
						</rate>
						<rate>
							<timebase>60</timebase>
							<ntsc>TRUE</ntsc>
						</rate>
						<duration>54</duration>
						<start>3786</start>
						<end>3840</end>
						<in>3786</in>
						<out>3840</out>
						<enabled>FALSE</enabled>
					</clipitem>
					<clipitem frameBlend="FALSE" id="clipitem-rejected-878">
						<file id="file-1"/>
						<name>[REJECTED] bandicam 2025-06-02 00-01-10-144</name>
						<rate>
							<timebase>60</timebase>
							<ntsc>TRUE</ntsc>
						</rate>
						<rate>
							<timebase>60</timebase>
							<ntsc>TRUE</ntsc>
						</rate>
						<duration>66</duration>
						<start>3954</start>
						<end>4020</end>
						<in>3954</in>
						<out>4020</out>
						<enabled>FALSE</enabled>
					</clipitem>
					<clipitem frameBlend="FALSE" id="clipitem-rejected-879">
						<file id="file-1"/>
						<name>[REJECTED] bandicam 2025-06-02 00-01-10-144</name>
						<rate>
							<timebase>60</timebase>
							<ntsc>TRUE</ntsc>
						</rate>
						<rate>
							<timebase>60</timebase>
							<ntsc>TRUE</ntsc>
						</rate>
						<duration>0</duration>
						<start>4038</start>
						<end>4038</end>
						<in>4038</in>
						<out>4038</out>
						<enabled>FALSE</enabled>
					</clipitem>
					<clipitem frameBlend="FALSE" id="clipitem-rejected-880">
						<file id="file-1"/>
						<name>[REJECTED] bandicam 2025-06-02 00-01-10-144</name>
						<rate>
							<timebase>60</timebase>
							<ntsc>TRUE</ntsc>
						</rate>
						<rate>
							<timebase>60</timebase>
							<ntsc>TRUE</ntsc>
						</rate>
						<duration>0</duration>
						<start>4050</start>
						<end>4050</end>
						<in>4050</in>
						<out>4050</out>
						<enabled>FALSE</enabled>
					</clipitem>
					<clipitem frameBlend="FALSE" id="clipitem-rejected-881">
						<file id="file-1"/>
						<name>[REJECTED] bandicam 2025-06-02 00-01-10-144</name>
						<rate>
							<timebase>60</timebase>
							<ntsc>TRUE</ntsc>
						</rate>
						<rate>
							<timebase>60</timebase>
							<ntsc>TRUE</ntsc>
						</rate>
						<duration>0</duration>
						<start>4212</start>
						<end>4212</end>
						<in>4212</in>
						<out>4212</out>
						<enabled>FALSE</enabled>
					</clipitem>
					<clipitem frameBlend="FALSE" id="clipitem-rejected-882">
						<file id="file-1"/>
						<name>[REJECTED] bandicam 2025-06-02 00-01-10-144</name>
						<rate>
							<timebase>60</timebase>
							<ntsc>TRUE</ntsc>
						</rate>
						<rate>
							<timebase>60</timebase>
							<ntsc>TRUE</ntsc>
						</rate>
						<duration>18</duration>
						<start>4440</start>
						<end>4458</end>
						<in>4440</in>
						<out>4458</out>
						<enabled>FALSE</enabled>
					</clipitem>
					<clipitem frameBlend="FALSE" id="clipitem-rejected-883">
						<file id="file-1"/>
						<name>[REJECTED] bandicam 2025-06-02 00-01-10-144</name>
						<rate>
							<timebase>60</timebase>
							<ntsc>TRUE</ntsc>
						</rate>
						<rate>
							<timebase>60</timebase>
							<ntsc>TRUE</ntsc>
						</rate>
						<duration>36</duration>
						<start>4560</start>
						<end>4596</end>
						<in>4560</in>
						<out>4596</out>
						<enabled>FALSE</enabled>
					</clipitem>
					<clipitem frameBlend="FALSE" id="clipitem-rejected-884">
						<file id="file-1"/>
						<name>[REJECTED] bandicam 2025-06-02 00-01-10-144</name>
						<rate>
							<timebase>60</timebase>
							<ntsc>TRUE</ntsc>
						</rate>
						<rate>
							<timebase>60</timebase>
							<ntsc>TRUE</ntsc>
						</rate>
						<duration>6</duration>
						<start>4638</start>
						<end>4644</end>
						<in>4638</in>
						<out>4644</out>
						<enabled>FALSE</enabled>
					</clipitem>
					<clipitem frameBlend="FALSE" id="clipitem-rejected-885">
						<file id="file-1"/>
						<name>[REJECTED] bandicam 2025-06-02 00-01-10-144</name>
						<rate>
							<timebase>60</timebase>
							<ntsc>TRUE</ntsc>
						</rate>
						<rate>
							<timebase>60</timebase>
							<ntsc>TRUE</ntsc>
						</rate>
						<duration>0</duration>
						<start>4698</start>
						<end>4698</end>
						<in>4698</in>
						<out>4698</out>
						<enabled>FALSE</enabled>
					</clipitem>
					<clipitem frameBlend="FALSE" id="clipitem-rejected-886">
						<file id="file-1"/>
						<name>[REJECTED] bandicam 2025-06-02 00-01-10-144</name>
						<rate>
							<timebase>60</timebase>
							<ntsc>TRUE</ntsc>
						</rate>
						<rate>
							<timebase>60</timebase>
							<ntsc>TRUE</ntsc>
						</rate>
						<duration>0</duration>
						<start>4716</start>
						<end>4716</end>
						<in>4716</in>
						<out>4716</out>
						<enabled>FALSE</enabled>
					</clipitem>
					<clipitem frameBlend="FALSE" id="clipitem-rejected-887">
						<file id="file-1"/>
						<name>[REJECTED] bandicam 2025-06-02 00-01-10-144</name>
						<rate>
							<timebase>60</timebase>
							<ntsc>TRUE</ntsc>
						</rate>
						<rate>
							<timebase>60</timebase>
							<ntsc>TRUE</ntsc>
						</rate>
						<duration>0</duration>
						<start>4854</start>
						<end>4854</end>
						<in>4854</in>
						<out>4854</out>
						<enabled>FALSE</enabled>
					</clipitem>
					<clipitem frameBlend="FALSE" id="clipitem-rejected-888">
						<file id="file-1"/>
						<name>[REJECTED] bandicam 2025-06-02 00-01-10-144</name>
						<rate>
							<timebase>60</timebase>
							<ntsc>TRUE</ntsc>
						</rate>
						<rate>
							<timebase>60</timebase>
							<ntsc>TRUE</ntsc>
						</rate>
						<duration>6</duration>
						<start>4878</start>
						<end>4884</end>
						<in>4878</in>
						<out>4884</out>
						<enabled>FALSE</enabled>
					</clipitem>
					<clipitem frameBlend="FALSE" id="clipitem-rejected-889">
						<file id="file-1"/>
						<name>[REJECTED] bandicam 2025-06-02 00-01-10-144</name>
						<rate>
							<timebase>60</timebase>
							<ntsc>TRUE</ntsc>
						</rate>
						<rate>
							<timebase>60</timebase>
							<ntsc>TRUE</ntsc>
						</rate>
						<duration>0</duration>
						<start>4902</start>
						<end>4902</end>
						<in>4902</in>
						<out>4902</out>
						<enabled>FALSE</enabled>
					</clipitem>
					<clipitem frameBlend="FALSE" id="clipitem-rejected-890">
						<file id="file-1"/>
						<name>[REJECTED] bandicam 2025-06-02 00-01-10-144</name>
						<rate>
							<timebase>60</timebase>
							<ntsc>TRUE</ntsc>
						</rate>
						<rate>
							<timebase>60</timebase>
							<ntsc>TRUE</ntsc>
						</rate>
						<duration>0</duration>
						<start>4938</start>
						<end>4938</end>
						<in>4938</in>
						<out>4938</out>
						<enabled>FALSE</enabled>
					</clipitem>
					<clipitem frameBlend="FALSE" id="clipitem-rejected-891">
						<file id="file-1"/>
						<name>[REJECTED] bandicam 2025-06-02 00-01-10-144</name>
						<rate>
							<timebase>60</timebase>
							<ntsc>TRUE</ntsc>
						</rate>
						<rate>
							<timebase>60</timebase>
							<ntsc>TRUE</ntsc>
						</rate>
						<duration>12</duration>
						<start>5184</start>
						<end>5196</end>
						<in>5184</in>
						<out>5196</out>
						<enabled>FALSE</enabled>
					</clipitem>
					<clipitem frameBlend="FALSE" id="clipitem-rejected-892">
						<file id="file-1"/>
						<name>[REJECTED] bandicam 2025-06-02 00-01-10-144</name>
						<rate>
							<timebase>60</timebase>
							<ntsc>TRUE</ntsc>
						</rate>
						<rate>
							<timebase>60</timebase>
							<ntsc>TRUE</ntsc>
						</rate>
						<duration>6</duration>
						<start>5220</start>
						<end>5226</end>
						<in>5220</in>
						<out>5226</out>
						<enabled>FALSE</enabled>
					</clipitem>
					<clipitem frameBlend="FALSE" id="clipitem-rejected-893">
						<file id="file-1"/>
						<name>[REJECTED] bandicam 2025-06-02 00-01-10-144</name>
						<rate>
							<timebase>60</timebase>
							<ntsc>TRUE</ntsc>
						</rate>
						<rate>
							<timebase>60</timebase>
							<ntsc>TRUE</ntsc>
						</rate>
						<duration>42</duration>
						<start>5280</start>
						<end>5322</end>
						<in>5280</in>
						<out>5322</out>
						<enabled>FALSE</enabled>
					</clipitem>
					<clipitem frameBlend="FALSE" id="clipitem-rejected-894">
						<file id="file-1"/>
						<name>[REJECTED] bandicam 2025-06-02 00-01-10-144</name>
						<rate>
							<timebase>60</timebase>
							<ntsc>TRUE</ntsc>
						</rate>
						<rate>
							<timebase>60</timebase>
							<ntsc>TRUE</ntsc>
						</rate>
						<duration>6</duration>
						<start>5370</start>
						<end>5376</end>
						<in>5370</in>
						<out>5376</out>
						<enabled>FALSE</enabled>
					</clipitem>
					<clipitem frameBlend="FALSE" id="clipitem-rejected-895">
						<file id="file-1"/>
						<name>[REJECTED] bandicam 2025-06-02 00-01-10-144</name>
						<rate>
							<timebase>60</timebase>
							<ntsc>TRUE</ntsc>
						</rate>
						<rate>
							<timebase>60</timebase>
							<ntsc>TRUE</ntsc>
						</rate>
						<duration>12</duration>
						<start>5472</start>
						<end>5484</end>
						<in>5472</in>
						<out>5484</out>
						<enabled>FALSE</enabled>
					</clipitem>
					<clipitem frameBlend="FALSE" id="clipitem-rejected-896">
						<file id="file-1"/>
						<name>[REJECTED] bandicam 2025-06-02 00-01-10-144</name>
						<rate>
							<timebase>60</timebase>
							<ntsc>TRUE</ntsc>
						</rate>
						<rate>
							<timebase>60</timebase>
							<ntsc>TRUE</ntsc>
						</rate>
						<duration>0</duration>
						<start>5526</start>
						<end>5526</end>
						<in>5526</in>
						<out>5526</out>
						<enabled>FALSE</enabled>
					</clipitem>
					<clipitem frameBlend="FALSE" id="clipitem-rejected-897">
						<file id="file-1"/>
						<name>[REJECTED] bandicam 2025-06-02 00-01-10-144</name>
						<rate>
							<timebase>60</timebase>
							<ntsc>TRUE</ntsc>
						</rate>
						<rate>
							<timebase>60</timebase>
							<ntsc>TRUE</ntsc>
						</rate>
						<duration>12</duration>
						<start>5604</start>
						<end>5616</end>
						<in>5604</in>
						<out>5616</out>
						<enabled>FALSE</enabled>
					</clipitem>
					<clipitem frameBlend="FALSE" id="clipitem-rejected-898">
						<file id="file-1"/>
						<name>[REJECTED] bandicam 2025-06-02 00-01-10-144</name>
						<rate>
							<timebase>60</timebase>
							<ntsc>TRUE</ntsc>
						</rate>
						<rate>
							<timebase>60</timebase>
							<ntsc>TRUE</ntsc>
						</rate>
						<duration>6</duration>
						<start>5652</start>
						<end>5658</end>
						<in>5652</in>
						<out>5658</out>
						<enabled>FALSE</enabled>
					</clipitem>
					<clipitem frameBlend="FALSE" id="clipitem-rejected-899">
						<file id="file-1"/>
						<name>[REJECTED] bandicam 2025-06-02 00-01-10-144</name>
						<rate>
							<timebase>60</timebase>
							<ntsc>TRUE</ntsc>
						</rate>
						<rate>
							<timebase>60</timebase>
							<ntsc>TRUE</ntsc>
						</rate>
						<duration>6</duration>
						<start>5700</start>
						<end>5706</end>
						<in>5700</in>
						<out>5706</out>
						<enabled>FALSE</enabled>
					</clipitem>
					<clipitem frameBlend="FALSE" id="clipitem-rejected-900">
						<file id="file-1"/>
						<name>[REJECTED] bandicam 2025-06-02 00-01-10-144</name>
						<rate>
							<timebase>60</timebase>
							<ntsc>TRUE</ntsc>
						</rate>
						<rate>
							<timebase>60</timebase>
							<ntsc>TRUE</ntsc>
						</rate>
						<duration>6</duration>
						<start>5790</start>
						<end>5796</end>
						<in>5790</in>
						<out>5796</out>
						<enabled>FALSE</enabled>
					</clipitem>
					<clipitem frameBlend="FALSE" id="clipitem-rejected-901">
						<file id="file-1"/>
						<name>[REJECTED] bandicam 2025-06-02 00-01-10-144</name>
						<rate>
							<timebase>60</timebase>
							<ntsc>TRUE</ntsc>
						</rate>
						<rate>
							<timebase>60</timebase>
							<ntsc>TRUE</ntsc>
						</rate>
						<duration>24</duration>
						<start>6102</start>
						<end>6126</end>
						<in>6102</in>
						<out>6126</out>
						<enabled>FALSE</enabled>
					</clipitem>
					<clipitem frameBlend="FALSE" id="clipitem-rejected-902">
						<file id="file-1"/>
						<name>[REJECTED] bandicam 2025-06-02 00-01-10-144</name>
						<rate>
							<timebase>60</timebase>
							<ntsc>TRUE</ntsc>
						</rate>
						<rate>
							<timebase>60</timebase>
							<ntsc>TRUE</ntsc>
						</rate>
						<duration>0</duration>
						<start>6144</start>
						<end>6144</end>
						<in>6144</in>
						<out>6144</out>
						<enabled>FALSE</enabled>
					</clipitem>
					<clipitem frameBlend="FALSE" id="clipitem-rejected-903">
						<file id="file-1"/>
						<name>[REJECTED] bandicam 2025-06-02 00-01-10-144</name>
						<rate>
							<timebase>60</timebase>
							<ntsc>TRUE</ntsc>
						</rate>
						<rate>
							<timebase>60</timebase>
							<ntsc>TRUE</ntsc>
						</rate>
						<duration>0</duration>
						<start>6216</start>
						<end>6216</end>
						<in>6216</in>
						<out>6216</out>
						<enabled>FALSE</enabled>
					</clipitem>
					<clipitem frameBlend="FALSE" id="clipitem-rejected-904">
						<file id="file-1"/>
						<name>[REJECTED] bandicam 2025-06-02 00-01-10-144</name>
						<rate>
							<timebase>60</timebase>
							<ntsc>TRUE</ntsc>
						</rate>
						<rate>
							<timebase>60</timebase>
							<ntsc>TRUE</ntsc>
						</rate>
						<duration>6</duration>
						<start>6270</start>
						<end>6276</end>
						<in>6270</in>
						<out>6276</out>
						<enabled>FALSE</enabled>
					</clipitem>
					<clipitem frameBlend="FALSE" id="clipitem-rejected-905">
						<file id="file-1"/>
						<name>[REJECTED] bandicam 2025-06-02 00-01-10-144</name>
						<rate>
							<timebase>60</timebase>
							<ntsc>TRUE</ntsc>
						</rate>
						<rate>
							<timebase>60</timebase>
							<ntsc>TRUE</ntsc>
						</rate>
						<duration>6</duration>
						<start>6288</start>
						<end>6294</end>
						<in>6288</in>
						<out>6294</out>
						<enabled>FALSE</enabled>
					</clipitem>
					<clipitem frameBlend="FALSE" id="clipitem-rejected-906">
						<file id="file-1"/>
						<name>[REJECTED] bandicam 2025-06-02 00-01-10-144</name>
						<rate>
							<timebase>60</timebase>
							<ntsc>TRUE</ntsc>
						</rate>
						<rate>
							<timebase>60</timebase>
							<ntsc>TRUE</ntsc>
						</rate>
						<duration>0</duration>
						<start>6306</start>
						<end>6306</end>
						<in>6306</in>
						<out>6306</out>
						<enabled>FALSE</enabled>
					</clipitem>
					<clipitem frameBlend="FALSE" id="clipitem-rejected-907">
						<file id="file-1"/>
						<name>[REJECTED] bandicam 2025-06-02 00-01-10-144</name>
						<rate>
							<timebase>60</timebase>
							<ntsc>TRUE</ntsc>
						</rate>
						<rate>
							<timebase>60</timebase>
							<ntsc>TRUE</ntsc>
						</rate>
						<duration>18</duration>
						<start>6360</start>
						<end>6378</end>
						<in>6360</in>
						<out>6378</out>
						<enabled>FALSE</enabled>
					</clipitem>
					<clipitem frameBlend="FALSE" id="clipitem-rejected-908">
						<file id="file-1"/>
						<name>[REJECTED] bandicam 2025-06-02 00-01-10-144</name>
						<rate>
							<timebase>60</timebase>
							<ntsc>TRUE</ntsc>
						</rate>
						<rate>
							<timebase>60</timebase>
							<ntsc>TRUE</ntsc>
						</rate>
						<duration>0</duration>
						<start>6426</start>
						<end>6426</end>
						<in>6426</in>
						<out>6426</out>
						<enabled>FALSE</enabled>
					</clipitem>
					<clipitem frameBlend="FALSE" id="clipitem-rejected-909">
						<file id="file-1"/>
						<name>[REJECTED] bandicam 2025-06-02 00-01-10-144</name>
						<rate>
							<timebase>60</timebase>
							<ntsc>TRUE</ntsc>
						</rate>
						<rate>
							<timebase>60</timebase>
							<ntsc>TRUE</ntsc>
						</rate>
						<duration>0</duration>
						<start>6462</start>
						<end>6462</end>
						<in>6462</in>
						<out>6462</out>
						<enabled>FALSE</enabled>
					</clipitem>
					<clipitem frameBlend="FALSE" id="clipitem-rejected-910">
						<file id="file-1"/>
						<name>[REJECTED] bandicam 2025-06-02 00-01-10-144</name>
						<rate>
							<timebase>60</timebase>
							<ntsc>TRUE</ntsc>
						</rate>
						<rate>
							<timebase>60</timebase>
							<ntsc>TRUE</ntsc>
						</rate>
						<duration>12</duration>
						<start>6594</start>
						<end>6606</end>
						<in>6594</in>
						<out>6606</out>
						<enabled>FALSE</enabled>
					</clipitem>
					<clipitem frameBlend="FALSE" id="clipitem-rejected-911">
						<file id="file-1"/>
						<name>[REJECTED] bandicam 2025-06-02 00-01-10-144</name>
						<rate>
							<timebase>60</timebase>
							<ntsc>TRUE</ntsc>
						</rate>
						<rate>
							<timebase>60</timebase>
							<ntsc>TRUE</ntsc>
						</rate>
						<duration>48</duration>
						<start>6660</start>
						<end>6708</end>
						<in>6660</in>
						<out>6708</out>
						<enabled>FALSE</enabled>
					</clipitem>
					<clipitem frameBlend="FALSE" id="clipitem-rejected-912">
						<file id="file-1"/>
						<name>[REJECTED] bandicam 2025-06-02 00-01-10-144</name>
						<rate>
							<timebase>60</timebase>
							<ntsc>TRUE</ntsc>
						</rate>
						<rate>
							<timebase>60</timebase>
							<ntsc>TRUE</ntsc>
						</rate>
						<duration>0</duration>
						<start>6720</start>
						<end>6720</end>
						<in>6720</in>
						<out>6720</out>
						<enabled>FALSE</enabled>
					</clipitem>
					<clipitem frameBlend="FALSE" id="clipitem-rejected-913">
						<file id="file-1"/>
						<name>[REJECTED] bandicam 2025-06-02 00-01-10-144</name>
						<rate>
							<timebase>60</timebase>
							<ntsc>TRUE</ntsc>
						</rate>
						<rate>
							<timebase>60</timebase>
							<ntsc>TRUE</ntsc>
						</rate>
						<duration>6</duration>
						<start>6738</start>
						<end>6744</end>
						<in>6738</in>
						<out>6744</out>
						<enabled>FALSE</enabled>
					</clipitem>
					<clipitem frameBlend="FALSE" id="clipitem-rejected-914">
						<file id="file-1"/>
						<name>[REJECTED] bandicam 2025-06-02 00-01-10-144</name>
						<rate>
							<timebase>60</timebase>
							<ntsc>TRUE</ntsc>
						</rate>
						<rate>
							<timebase>60</timebase>
							<ntsc>TRUE</ntsc>
						</rate>
						<duration>18</duration>
						<start>6774</start>
						<end>6792</end>
						<in>6774</in>
						<out>6792</out>
						<enabled>FALSE</enabled>
					</clipitem>
					<clipitem frameBlend="FALSE" id="clipitem-rejected-915">
						<file id="file-1"/>
						<name>[REJECTED] bandicam 2025-06-02 00-01-10-144</name>
						<rate>
							<timebase>60</timebase>
							<ntsc>TRUE</ntsc>
						</rate>
						<rate>
							<timebase>60</timebase>
							<ntsc>TRUE</ntsc>
						</rate>
						<duration>12</duration>
						<start>6876</start>
						<end>6888</end>
						<in>6876</in>
						<out>6888</out>
						<enabled>FALSE</enabled>
					</clipitem>
					<clipitem frameBlend="FALSE" id="clipitem-rejected-916">
						<file id="file-1"/>
						<name>[REJECTED] bandicam 2025-06-02 00-01-10-144</name>
						<rate>
							<timebase>60</timebase>
							<ntsc>TRUE</ntsc>
						</rate>
						<rate>
							<timebase>60</timebase>
							<ntsc>TRUE</ntsc>
						</rate>
						<duration>30</duration>
						<start>6960</start>
						<end>6990</end>
						<in>6960</in>
						<out>6990</out>
						<enabled>FALSE</enabled>
					</clipitem>
					<clipitem frameBlend="FALSE" id="clipitem-rejected-917">
						<file id="file-1"/>
						<name>[REJECTED] bandicam 2025-06-02 00-01-10-144</name>
						<rate>
							<timebase>60</timebase>
							<ntsc>TRUE</ntsc>
						</rate>
						<rate>
							<timebase>60</timebase>
							<ntsc>TRUE</ntsc>
						</rate>
						<duration>12</duration>
						<start>7056</start>
						<end>7068</end>
						<in>7056</in>
						<out>7068</out>
						<enabled>FALSE</enabled>
					</clipitem>
					<clipitem frameBlend="FALSE" id="clipitem-rejected-918">
						<file id="file-1"/>
						<name>[REJECTED] bandicam 2025-06-02 00-01-10-144</name>
						<rate>
							<timebase>60</timebase>
							<ntsc>TRUE</ntsc>
						</rate>
						<rate>
							<timebase>60</timebase>
							<ntsc>TRUE</ntsc>
						</rate>
						<duration>54</duration>
						<start>0</start>
						<end>54</end>
						<in>0</in>
						<out>54</out>
						<enabled>FALSE</enabled>
					</clipitem>
					<clipitem frameBlend="FALSE" id="clipitem-rejected-919">
						<file id="file-1"/>
						<name>[REJECTED] bandicam 2025-06-02 00-01-10-144</name>
						<rate>
							<timebase>60</timebase>
							<ntsc>TRUE</ntsc>
						</rate>
						<rate>
							<timebase>60</timebase>
							<ntsc>TRUE</ntsc>
						</rate>
						<duration>42</duration>
						<start>66</start>
						<end>108</end>
						<in>66</in>
						<out>108</out>
						<enabled>FALSE</enabled>
					</clipitem>
					<clipitem frameBlend="FALSE" id="clipitem-rejected-920">
						<file id="file-1"/>
						<name>[REJECTED] bandicam 2025-06-02 00-01-10-144</name>
						<rate>
							<timebase>60</timebase>
							<ntsc>TRUE</ntsc>
						</rate>
						<rate>
							<timebase>60</timebase>
							<ntsc>TRUE</ntsc>
						</rate>
						<duration>312</duration>
						<start>132</start>
						<end>444</end>
						<in>132</in>
						<out>444</out>
						<enabled>FALSE</enabled>
					</clipitem>
					<clipitem frameBlend="FALSE" id="clipitem-rejected-921">
						<file id="file-1"/>
						<name>[REJECTED] bandicam 2025-06-02 00-01-10-144</name>
						<rate>
							<timebase>60</timebase>
							<ntsc>TRUE</ntsc>
						</rate>
						<rate>
							<timebase>60</timebase>
							<ntsc>TRUE</ntsc>
						</rate>
						<duration>102</duration>
						<start>474</start>
						<end>576</end>
						<in>474</in>
						<out>576</out>
						<enabled>FALSE</enabled>
					</clipitem>
					<clipitem frameBlend="FALSE" id="clipitem-rejected-922">
						<file id="file-1"/>
						<name>[REJECTED] bandicam 2025-06-02 00-01-10-144</name>
						<rate>
							<timebase>60</timebase>
							<ntsc>TRUE</ntsc>
						</rate>
						<rate>
							<timebase>60</timebase>
							<ntsc>TRUE</ntsc>
						</rate>
						<duration>810</duration>
						<start>594</start>
						<end>1404</end>
						<in>594</in>
						<out>1404</out>
						<enabled>FALSE</enabled>
					</clipitem>
					<clipitem frameBlend="FALSE" id="clipitem-rejected-923">
						<file id="file-1"/>
						<name>[REJECTED] bandicam 2025-06-02 00-01-10-144</name>
						<rate>
							<timebase>60</timebase>
							<ntsc>TRUE</ntsc>
						</rate>
						<rate>
							<timebase>60</timebase>
							<ntsc>TRUE</ntsc>
						</rate>
						<duration>264</duration>
						<start>1422</start>
						<end>1686</end>
						<in>1422</in>
						<out>1686</out>
						<enabled>FALSE</enabled>
					</clipitem>
					<clipitem frameBlend="FALSE" id="clipitem-rejected-924">
						<file id="file-1"/>
						<name>[REJECTED] bandicam 2025-06-02 00-01-10-144</name>
						<rate>
							<timebase>60</timebase>
							<ntsc>TRUE</ntsc>
						</rate>
						<rate>
							<timebase>60</timebase>
							<ntsc>TRUE</ntsc>
						</rate>
						<duration>0</duration>
						<start>1698</start>
						<end>1698</end>
						<in>1698</in>
						<out>1698</out>
						<enabled>FALSE</enabled>
					</clipitem>
					<clipitem frameBlend="FALSE" id="clipitem-rejected-925">
						<file id="file-1"/>
						<name>[REJECTED] bandicam 2025-06-02 00-01-10-144</name>
						<rate>
							<timebase>60</timebase>
							<ntsc>TRUE</ntsc>
						</rate>
						<rate>
							<timebase>60</timebase>
							<ntsc>TRUE</ntsc>
						</rate>
						<duration>24</duration>
						<start>1716</start>
						<end>1740</end>
						<in>1716</in>
						<out>1740</out>
						<enabled>FALSE</enabled>
					</clipitem>
					<clipitem frameBlend="FALSE" id="clipitem-rejected-926">
						<file id="file-1"/>
						<name>[REJECTED] bandicam 2025-06-02 00-01-10-144</name>
						<rate>
							<timebase>60</timebase>
							<ntsc>TRUE</ntsc>
						</rate>
						<rate>
							<timebase>60</timebase>
							<ntsc>TRUE</ntsc>
						</rate>
						<duration>42</duration>
						<start>1764</start>
						<end>1806</end>
						<in>1764</in>
						<out>1806</out>
						<enabled>FALSE</enabled>
					</clipitem>
					<clipitem frameBlend="FALSE" id="clipitem-rejected-927">
						<file id="file-1"/>
						<name>[REJECTED] bandicam 2025-06-02 00-01-10-144</name>
						<rate>
							<timebase>60</timebase>
							<ntsc>TRUE</ntsc>
						</rate>
						<rate>
							<timebase>60</timebase>
							<ntsc>TRUE</ntsc>
						</rate>
						<duration>30</duration>
						<start>1818</start>
						<end>1848</end>
						<in>1818</in>
						<out>1848</out>
						<enabled>FALSE</enabled>
					</clipitem>
					<clipitem frameBlend="FALSE" id="clipitem-rejected-928">
						<file id="file-1"/>
						<name>[REJECTED] bandicam 2025-06-02 00-01-10-144</name>
						<rate>
							<timebase>60</timebase>
							<ntsc>TRUE</ntsc>
						</rate>
						<rate>
							<timebase>60</timebase>
							<ntsc>TRUE</ntsc>
						</rate>
						<duration>18</duration>
						<start>1860</start>
						<end>1878</end>
						<in>1860</in>
						<out>1878</out>
						<enabled>FALSE</enabled>
					</clipitem>
					<clipitem frameBlend="FALSE" id="clipitem-rejected-929">
						<file id="file-1"/>
						<name>[REJECTED] bandicam 2025-06-02 00-01-10-144</name>
						<rate>
							<timebase>60</timebase>
							<ntsc>TRUE</ntsc>
						</rate>
						<rate>
							<timebase>60</timebase>
							<ntsc>TRUE</ntsc>
						</rate>
						<duration>390</duration>
						<start>1896</start>
						<end>2286</end>
						<in>1896</in>
						<out>2286</out>
						<enabled>FALSE</enabled>
					</clipitem>
					<clipitem frameBlend="FALSE" id="clipitem-rejected-930">
						<file id="file-1"/>
						<name>[REJECTED] bandicam 2025-06-02 00-01-10-144</name>
						<rate>
							<timebase>60</timebase>
							<ntsc>TRUE</ntsc>
						</rate>
						<rate>
							<timebase>60</timebase>
							<ntsc>TRUE</ntsc>
						</rate>
						<duration>6</duration>
						<start>2298</start>
						<end>2304</end>
						<in>2298</in>
						<out>2304</out>
						<enabled>FALSE</enabled>
					</clipitem>
					<clipitem frameBlend="FALSE" id="clipitem-rejected-931">
						<file id="file-1"/>
						<name>[REJECTED] bandicam 2025-06-02 00-01-10-144</name>
						<rate>
							<timebase>60</timebase>
							<ntsc>TRUE</ntsc>
						</rate>
						<rate>
							<timebase>60</timebase>
							<ntsc>TRUE</ntsc>
						</rate>
						<duration>114</duration>
						<start>2328</start>
						<end>2442</end>
						<in>2328</in>
						<out>2442</out>
						<enabled>FALSE</enabled>
					</clipitem>
					<clipitem frameBlend="FALSE" id="clipitem-rejected-932">
						<file id="file-1"/>
						<name>[REJECTED] bandicam 2025-06-02 00-01-10-144</name>
						<rate>
							<timebase>60</timebase>
							<ntsc>TRUE</ntsc>
						</rate>
						<rate>
							<timebase>60</timebase>
							<ntsc>TRUE</ntsc>
						</rate>
						<duration>276</duration>
						<start>2460</start>
						<end>2736</end>
						<in>2460</in>
						<out>2736</out>
						<enabled>FALSE</enabled>
					</clipitem>
					<clipitem frameBlend="FALSE" id="clipitem-rejected-933">
						<file id="file-1"/>
						<name>[REJECTED] bandicam 2025-06-02 00-01-10-144</name>
						<rate>
							<timebase>60</timebase>
							<ntsc>TRUE</ntsc>
						</rate>
						<rate>
							<timebase>60</timebase>
							<ntsc>TRUE</ntsc>
						</rate>
						<duration>0</duration>
						<start>2760</start>
						<end>2760</end>
						<in>2760</in>
						<out>2760</out>
						<enabled>FALSE</enabled>
					</clipitem>
					<clipitem frameBlend="FALSE" id="clipitem-rejected-934">
						<file id="file-1"/>
						<name>[REJECTED] bandicam 2025-06-02 00-01-10-144</name>
						<rate>
							<timebase>60</timebase>
							<ntsc>TRUE</ntsc>
						</rate>
						<rate>
							<timebase>60</timebase>
							<ntsc>TRUE</ntsc>
						</rate>
						<duration>18</duration>
						<start>2778</start>
						<end>2796</end>
						<in>2778</in>
						<out>2796</out>
						<enabled>FALSE</enabled>
					</clipitem>
					<clipitem frameBlend="FALSE" id="clipitem-rejected-935">
						<file id="file-1"/>
						<name>[REJECTED] bandicam 2025-06-02 00-01-10-144</name>
						<rate>
							<timebase>60</timebase>
							<ntsc>TRUE</ntsc>
						</rate>
						<rate>
							<timebase>60</timebase>
							<ntsc>TRUE</ntsc>
						</rate>
						<duration>240</duration>
						<start>2826</start>
						<end>3066</end>
						<in>2826</in>
						<out>3066</out>
						<enabled>FALSE</enabled>
					</clipitem>
					<clipitem frameBlend="FALSE" id="clipitem-rejected-936">
						<file id="file-1"/>
						<name>[REJECTED] bandicam 2025-06-02 00-01-10-144</name>
						<rate>
							<timebase>60</timebase>
							<ntsc>TRUE</ntsc>
						</rate>
						<rate>
							<timebase>60</timebase>
							<ntsc>TRUE</ntsc>
						</rate>
						<duration>156</duration>
						<start>3108</start>
						<end>3264</end>
						<in>3108</in>
						<out>3264</out>
						<enabled>FALSE</enabled>
					</clipitem>
					<clipitem frameBlend="FALSE" id="clipitem-rejected-937">
						<file id="file-1"/>
						<name>[REJECTED] bandicam 2025-06-02 00-01-10-144</name>
						<rate>
							<timebase>60</timebase>
							<ntsc>TRUE</ntsc>
						</rate>
						<rate>
							<timebase>60</timebase>
							<ntsc>TRUE</ntsc>
						</rate>
						<duration>156</duration>
						<start>3294</start>
						<end>3450</end>
						<in>3294</in>
						<out>3450</out>
						<enabled>FALSE</enabled>
					</clipitem>
					<clipitem frameBlend="FALSE" id="clipitem-rejected-938">
						<file id="file-1"/>
						<name>[REJECTED] bandicam 2025-06-02 00-01-10-144</name>
						<rate>
							<timebase>60</timebase>
							<ntsc>TRUE</ntsc>
						</rate>
						<rate>
							<timebase>60</timebase>
							<ntsc>TRUE</ntsc>
						</rate>
						<duration>144</duration>
						<start>3480</start>
						<end>3624</end>
						<in>3480</in>
						<out>3624</out>
						<enabled>FALSE</enabled>
					</clipitem>
					<clipitem frameBlend="FALSE" id="clipitem-rejected-939">
						<file id="file-1"/>
						<name>[REJECTED] bandicam 2025-06-02 00-01-10-144</name>
						<rate>
							<timebase>60</timebase>
							<ntsc>TRUE</ntsc>
						</rate>
						<rate>
							<timebase>60</timebase>
							<ntsc>TRUE</ntsc>
						</rate>
						<duration>432</duration>
						<start>3648</start>
						<end>4080</end>
						<in>3648</in>
						<out>4080</out>
						<enabled>FALSE</enabled>
					</clipitem>
					<clipitem frameBlend="FALSE" id="clipitem-rejected-940">
						<file id="file-1"/>
						<name>[REJECTED] bandicam 2025-06-02 00-01-10-144</name>
						<rate>
							<timebase>60</timebase>
							<ntsc>TRUE</ntsc>
						</rate>
						<rate>
							<timebase>60</timebase>
							<ntsc>TRUE</ntsc>
						</rate>
						<duration>0</duration>
						<start>4098</start>
						<end>4098</end>
						<in>4098</in>
						<out>4098</out>
						<enabled>FALSE</enabled>
					</clipitem>
					<clipitem frameBlend="FALSE" id="clipitem-rejected-941">
						<file id="file-1"/>
						<name>[REJECTED] bandicam 2025-06-02 00-01-10-144</name>
						<rate>
							<timebase>60</timebase>
							<ntsc>TRUE</ntsc>
						</rate>
						<rate>
							<timebase>60</timebase>
							<ntsc>TRUE</ntsc>
						</rate>
						<duration>12</duration>
						<start>4116</start>
						<end>4128</end>
						<in>4116</in>
						<out>4128</out>
						<enabled>FALSE</enabled>
					</clipitem>
					<clipitem frameBlend="FALSE" id="clipitem-rejected-942">
						<file id="file-1"/>
						<name>[REJECTED] bandicam 2025-06-02 00-01-10-144</name>
						<rate>
							<timebase>60</timebase>
							<ntsc>TRUE</ntsc>
						</rate>
						<rate>
							<timebase>60</timebase>
							<ntsc>TRUE</ntsc>
						</rate>
						<duration>42</duration>
						<start>4140</start>
						<end>4182</end>
						<in>4140</in>
						<out>4182</out>
						<enabled>FALSE</enabled>
					</clipitem>
					<clipitem frameBlend="FALSE" id="clipitem-rejected-943">
						<file id="file-1"/>
						<name>[REJECTED] bandicam 2025-06-02 00-01-10-144</name>
						<rate>
							<timebase>60</timebase>
							<ntsc>TRUE</ntsc>
						</rate>
						<rate>
							<timebase>60</timebase>
							<ntsc>TRUE</ntsc>
						</rate>
						<duration>24</duration>
						<start>4200</start>
						<end>4224</end>
						<in>4200</in>
						<out>4224</out>
						<enabled>FALSE</enabled>
					</clipitem>
					<clipitem frameBlend="FALSE" id="clipitem-rejected-944">
						<file id="file-1"/>
						<name>[REJECTED] bandicam 2025-06-02 00-01-10-144</name>
						<rate>
							<timebase>60</timebase>
							<ntsc>TRUE</ntsc>
						</rate>
						<rate>
							<timebase>60</timebase>
							<ntsc>TRUE</ntsc>
						</rate>
						<duration>0</duration>
						<start>4236</start>
						<end>4236</end>
						<in>4236</in>
						<out>4236</out>
						<enabled>FALSE</enabled>
					</clipitem>
					<clipitem frameBlend="FALSE" id="clipitem-rejected-945">
						<file id="file-1"/>
						<name>[REJECTED] bandicam 2025-06-02 00-01-10-144</name>
						<rate>
							<timebase>60</timebase>
							<ntsc>TRUE</ntsc>
						</rate>
						<rate>
							<timebase>60</timebase>
							<ntsc>TRUE</ntsc>
						</rate>
						<duration>42</duration>
						<start>4254</start>
						<end>4296</end>
						<in>4254</in>
						<out>4296</out>
						<enabled>FALSE</enabled>
					</clipitem>
					<clipitem frameBlend="FALSE" id="clipitem-rejected-946">
						<file id="file-1"/>
						<name>[REJECTED] bandicam 2025-06-02 00-01-10-144</name>
						<rate>
							<timebase>60</timebase>
							<ntsc>TRUE</ntsc>
						</rate>
						<rate>
							<timebase>60</timebase>
							<ntsc>TRUE</ntsc>
						</rate>
						<duration>12</duration>
						<start>4374</start>
						<end>4386</end>
						<in>4374</in>
						<out>4386</out>
						<enabled>FALSE</enabled>
					</clipitem>
					<clipitem frameBlend="FALSE" id="clipitem-rejected-947">
						<file id="file-1"/>
						<name>[REJECTED] bandicam 2025-06-02 00-01-10-144</name>
						<rate>
							<timebase>60</timebase>
							<ntsc>TRUE</ntsc>
						</rate>
						<rate>
							<timebase>60</timebase>
							<ntsc>TRUE</ntsc>
						</rate>
						<duration>60</duration>
						<start>4440</start>
						<end>4500</end>
						<in>4440</in>
						<out>4500</out>
						<enabled>FALSE</enabled>
					</clipitem>
					<clipitem frameBlend="FALSE" id="clipitem-rejected-948">
						<file id="file-1"/>
						<name>[REJECTED] bandicam 2025-06-02 00-01-10-144</name>
						<rate>
							<timebase>60</timebase>
							<ntsc>TRUE</ntsc>
						</rate>
						<rate>
							<timebase>60</timebase>
							<ntsc>TRUE</ntsc>
						</rate>
						<duration>6</duration>
						<start>4530</start>
						<end>4536</end>
						<in>4530</in>
						<out>4536</out>
						<enabled>FALSE</enabled>
					</clipitem>
					<clipitem frameBlend="FALSE" id="clipitem-rejected-949">
						<file id="file-1"/>
						<name>[REJECTED] bandicam 2025-06-02 00-01-10-144</name>
						<rate>
							<timebase>60</timebase>
							<ntsc>TRUE</ntsc>
						</rate>
						<rate>
							<timebase>60</timebase>
							<ntsc>TRUE</ntsc>
						</rate>
						<duration>36</duration>
						<start>4560</start>
						<end>4596</end>
						<in>4560</in>
						<out>4596</out>
						<enabled>FALSE</enabled>
					</clipitem>
					<clipitem frameBlend="FALSE" id="clipitem-rejected-950">
						<file id="file-1"/>
						<name>[REJECTED] bandicam 2025-06-02 00-01-10-144</name>
						<rate>
							<timebase>60</timebase>
							<ntsc>TRUE</ntsc>
						</rate>
						<rate>
							<timebase>60</timebase>
							<ntsc>TRUE</ntsc>
						</rate>
						<duration>66</duration>
						<start>4632</start>
						<end>4698</end>
						<in>4632</in>
						<out>4698</out>
						<enabled>FALSE</enabled>
					</clipitem>
					<clipitem frameBlend="FALSE" id="clipitem-rejected-951">
						<file id="file-1"/>
						<name>[REJECTED] bandicam 2025-06-02 00-01-10-144</name>
						<rate>
							<timebase>60</timebase>
							<ntsc>TRUE</ntsc>
						</rate>
						<rate>
							<timebase>60</timebase>
							<ntsc>TRUE</ntsc>
						</rate>
						<duration>6</duration>
						<start>4710</start>
						<end>4716</end>
						<in>4710</in>
						<out>4716</out>
						<enabled>FALSE</enabled>
					</clipitem>
					<clipitem frameBlend="FALSE" id="clipitem-rejected-952">
						<file id="file-1"/>
						<name>[REJECTED] bandicam 2025-06-02 00-01-10-144</name>
						<rate>
							<timebase>60</timebase>
							<ntsc>TRUE</ntsc>
						</rate>
						<rate>
							<timebase>60</timebase>
							<ntsc>TRUE</ntsc>
						</rate>
						<duration>78</duration>
						<start>4776</start>
						<end>4854</end>
						<in>4776</in>
						<out>4854</out>
						<enabled>FALSE</enabled>
					</clipitem>
					<clipitem frameBlend="FALSE" id="clipitem-rejected-953">
						<file id="file-1"/>
						<name>[REJECTED] bandicam 2025-06-02 00-01-10-144</name>
						<rate>
							<timebase>60</timebase>
							<ntsc>TRUE</ntsc>
						</rate>
						<rate>
							<timebase>60</timebase>
							<ntsc>TRUE</ntsc>
						</rate>
						<duration>90</duration>
						<start>4872</start>
						<end>4962</end>
						<in>4872</in>
						<out>4962</out>
						<enabled>FALSE</enabled>
					</clipitem>
					<clipitem frameBlend="FALSE" id="clipitem-rejected-954">
						<file id="file-1"/>
						<name>[REJECTED] bandicam 2025-06-02 00-01-10-144</name>
						<rate>
							<timebase>60</timebase>
							<ntsc>TRUE</ntsc>
						</rate>
						<rate>
							<timebase>60</timebase>
							<ntsc>TRUE</ntsc>
						</rate>
						<duration>126</duration>
						<start>4980</start>
						<end>5106</end>
						<in>4980</in>
						<out>5106</out>
						<enabled>FALSE</enabled>
					</clipitem>
					<clipitem frameBlend="FALSE" id="clipitem-rejected-955">
						<file id="file-1"/>
						<name>[REJECTED] bandicam 2025-06-02 00-01-10-144</name>
						<rate>
							<timebase>60</timebase>
							<ntsc>TRUE</ntsc>
						</rate>
						<rate>
							<timebase>60</timebase>
							<ntsc>TRUE</ntsc>
						</rate>
						<duration>12</duration>
						<start>5124</start>
						<end>5136</end>
						<in>5124</in>
						<out>5136</out>
						<enabled>FALSE</enabled>
					</clipitem>
					<clipitem frameBlend="FALSE" id="clipitem-rejected-956">
						<file id="file-1"/>
						<name>[REJECTED] bandicam 2025-06-02 00-01-10-144</name>
						<rate>
							<timebase>60</timebase>
							<ntsc>TRUE</ntsc>
						</rate>
						<rate>
							<timebase>60</timebase>
							<ntsc>TRUE</ntsc>
						</rate>
						<duration>0</duration>
						<start>5154</start>
						<end>5154</end>
						<in>5154</in>
						<out>5154</out>
						<enabled>FALSE</enabled>
					</clipitem>
					<clipitem frameBlend="FALSE" id="clipitem-rejected-957">
						<file id="file-1"/>
						<name>[REJECTED] bandicam 2025-06-02 00-01-10-144</name>
						<rate>
							<timebase>60</timebase>
							<ntsc>TRUE</ntsc>
						</rate>
						<rate>
							<timebase>60</timebase>
							<ntsc>TRUE</ntsc>
						</rate>
						<duration>138</duration>
						<start>5184</start>
						<end>5322</end>
						<in>5184</in>
						<out>5322</out>
						<enabled>FALSE</enabled>
					</clipitem>
					<clipitem frameBlend="FALSE" id="clipitem-rejected-958">
						<file id="file-1"/>
						<name>[REJECTED] bandicam 2025-06-02 00-01-10-144</name>
						<rate>
							<timebase>60</timebase>
							<ntsc>TRUE</ntsc>
						</rate>
						<rate>
							<timebase>60</timebase>
							<ntsc>TRUE</ntsc>
						</rate>
						<duration>60</duration>
						<start>5346</start>
						<end>5406</end>
						<in>5346</in>
						<out>5406</out>
						<enabled>FALSE</enabled>
					</clipitem>
					<clipitem frameBlend="FALSE" id="clipitem-rejected-959">
						<file id="file-1"/>
						<name>[REJECTED] bandicam 2025-06-02 00-01-10-144</name>
						<rate>
							<timebase>60</timebase>
							<ntsc>TRUE</ntsc>
						</rate>
						<rate>
							<timebase>60</timebase>
							<ntsc>TRUE</ntsc>
						</rate>
						<duration>12</duration>
						<start>5430</start>
						<end>5442</end>
						<in>5430</in>
						<out>5442</out>
						<enabled>FALSE</enabled>
					</clipitem>
					<clipitem frameBlend="FALSE" id="clipitem-rejected-960">
						<file id="file-1"/>
						<name>[REJECTED] bandicam 2025-06-02 00-01-10-144</name>
						<rate>
							<timebase>60</timebase>
							<ntsc>TRUE</ntsc>
						</rate>
						<rate>
							<timebase>60</timebase>
							<ntsc>TRUE</ntsc>
						</rate>
						<duration>132</duration>
						<start>5454</start>
						<end>5586</end>
						<in>5454</in>
						<out>5586</out>
						<enabled>FALSE</enabled>
					</clipitem>
					<clipitem frameBlend="FALSE" id="clipitem-rejected-961">
						<file id="file-1"/>
						<name>[REJECTED] bandicam 2025-06-02 00-01-10-144</name>
						<rate>
							<timebase>60</timebase>
							<ntsc>TRUE</ntsc>
						</rate>
						<rate>
							<timebase>60</timebase>
							<ntsc>TRUE</ntsc>
						</rate>
						<duration>66</duration>
						<start>5598</start>
						<end>5664</end>
						<in>5598</in>
						<out>5664</out>
						<enabled>FALSE</enabled>
					</clipitem>
					<clipitem frameBlend="FALSE" id="clipitem-rejected-962">
						<file id="file-1"/>
						<name>[REJECTED] bandicam 2025-06-02 00-01-10-144</name>
						<rate>
							<timebase>60</timebase>
							<ntsc>TRUE</ntsc>
						</rate>
						<rate>
							<timebase>60</timebase>
							<ntsc>TRUE</ntsc>
						</rate>
						<duration>60</duration>
						<start>5694</start>
						<end>5754</end>
						<in>5694</in>
						<out>5754</out>
						<enabled>FALSE</enabled>
					</clipitem>
					<clipitem frameBlend="FALSE" id="clipitem-rejected-963">
						<file id="file-1"/>
						<name>[REJECTED] bandicam 2025-06-02 00-01-10-144</name>
						<rate>
							<timebase>60</timebase>
							<ntsc>TRUE</ntsc>
						</rate>
						<rate>
							<timebase>60</timebase>
							<ntsc>TRUE</ntsc>
						</rate>
						<duration>12</duration>
						<start>5784</start>
						<end>5796</end>
						<in>5784</in>
						<out>5796</out>
						<enabled>FALSE</enabled>
					</clipitem>
					<clipitem frameBlend="FALSE" id="clipitem-rejected-964">
						<file id="file-1"/>
						<name>[REJECTED] bandicam 2025-06-02 00-01-10-144</name>
						<rate>
							<timebase>60</timebase>
							<ntsc>TRUE</ntsc>
						</rate>
						<rate>
							<timebase>60</timebase>
							<ntsc>TRUE</ntsc>
						</rate>
						<duration>24</duration>
						<start>5880</start>
						<end>5904</end>
						<in>5880</in>
						<out>5904</out>
						<enabled>FALSE</enabled>
					</clipitem>
					<clipitem frameBlend="FALSE" id="clipitem-rejected-965">
						<file id="file-1"/>
						<name>[REJECTED] bandicam 2025-06-02 00-01-10-144</name>
						<rate>
							<timebase>60</timebase>
							<ntsc>TRUE</ntsc>
						</rate>
						<rate>
							<timebase>60</timebase>
							<ntsc>TRUE</ntsc>
						</rate>
						<duration>30</duration>
						<start>5964</start>
						<end>5994</end>
						<in>5964</in>
						<out>5994</out>
						<enabled>FALSE</enabled>
					</clipitem>
					<clipitem frameBlend="FALSE" id="clipitem-rejected-966">
						<file id="file-1"/>
						<name>[REJECTED] bandicam 2025-06-02 00-01-10-144</name>
						<rate>
							<timebase>60</timebase>
							<ntsc>TRUE</ntsc>
						</rate>
						<rate>
							<timebase>60</timebase>
							<ntsc>TRUE</ntsc>
						</rate>
						<duration>0</duration>
						<start>6006</start>
						<end>6006</end>
						<in>6006</in>
						<out>6006</out>
						<enabled>FALSE</enabled>
					</clipitem>
					<clipitem frameBlend="FALSE" id="clipitem-rejected-967">
						<file id="file-1"/>
						<name>[REJECTED] bandicam 2025-06-02 00-01-10-144</name>
						<rate>
							<timebase>60</timebase>
							<ntsc>TRUE</ntsc>
						</rate>
						<rate>
							<timebase>60</timebase>
							<ntsc>TRUE</ntsc>
						</rate>
						<duration>108</duration>
						<start>6042</start>
						<end>6150</end>
						<in>6042</in>
						<out>6150</out>
						<enabled>FALSE</enabled>
					</clipitem>
					<clipitem frameBlend="FALSE" id="clipitem-rejected-968">
						<file id="file-1"/>
						<name>[REJECTED] bandicam 2025-06-02 00-01-10-144</name>
						<rate>
							<timebase>60</timebase>
							<ntsc>TRUE</ntsc>
						</rate>
						<rate>
							<timebase>60</timebase>
							<ntsc>TRUE</ntsc>
						</rate>
						<duration>42</duration>
						<start>6186</start>
						<end>6228</end>
						<in>6186</in>
						<out>6228</out>
						<enabled>FALSE</enabled>
					</clipitem>
					<clipitem frameBlend="FALSE" id="clipitem-rejected-969">
						<file id="file-1"/>
						<name>[REJECTED] bandicam 2025-06-02 00-01-10-144</name>
						<rate>
							<timebase>60</timebase>
							<ntsc>TRUE</ntsc>
						</rate>
						<rate>
							<timebase>60</timebase>
							<ntsc>TRUE</ntsc>
						</rate>
						<duration>270</duration>
						<start>6246</start>
						<end>6516</end>
						<in>6246</in>
						<out>6516</out>
						<enabled>FALSE</enabled>
					</clipitem>
					<clipitem frameBlend="FALSE" id="clipitem-rejected-970">
						<file id="file-1"/>
						<name>[REJECTED] bandicam 2025-06-02 00-01-10-144</name>
						<rate>
							<timebase>60</timebase>
							<ntsc>TRUE</ntsc>
						</rate>
						<rate>
							<timebase>60</timebase>
							<ntsc>TRUE</ntsc>
						</rate>
						<duration>360</duration>
						<start>6528</start>
						<end>6888</end>
						<in>6528</in>
						<out>6888</out>
						<enabled>FALSE</enabled>
					</clipitem>
					<clipitem frameBlend="FALSE" id="clipitem-rejected-971">
						<file id="file-1"/>
						<name>[REJECTED] bandicam 2025-06-02 00-01-10-144</name>
						<rate>
							<timebase>60</timebase>
							<ntsc>TRUE</ntsc>
						</rate>
						<rate>
							<timebase>60</timebase>
							<ntsc>TRUE</ntsc>
						</rate>
						<duration>48</duration>
						<start>6900</start>
						<end>6948</end>
						<in>6900</in>
						<out>6948</out>
						<enabled>FALSE</enabled>
					</clipitem>
					<clipitem frameBlend="FALSE" id="clipitem-rejected-972">
						<file id="file-1"/>
						<name>[REJECTED] bandicam 2025-06-02 00-01-10-144</name>
						<rate>
							<timebase>60</timebase>
							<ntsc>TRUE</ntsc>
						</rate>
						<rate>
							<timebase>60</timebase>
							<ntsc>TRUE</ntsc>
						</rate>
						<duration>108</duration>
						<start>6960</start>
						<end>7068</end>
						<in>6960</in>
						<out>7068</out>
						<enabled>FALSE</enabled>
					</clipitem>
					<clipitem frameBlend="FALSE" id="clipitem-rejected-973">
						<file id="file-1"/>
						<name>[REJECTED] bandicam 2025-06-02 00-01-10-144</name>
						<rate>
							<timebase>60</timebase>
							<ntsc>TRUE</ntsc>
						</rate>
						<rate>
							<timebase>60</timebase>
							<ntsc>TRUE</ntsc>
						</rate>
						<duration>108</duration>
						<start>0</start>
						<end>108</end>
						<in>0</in>
						<out>108</out>
						<enabled>FALSE</enabled>
					</clipitem>
					<clipitem frameBlend="FALSE" id="clipitem-rejected-974">
						<file id="file-1"/>
						<name>[REJECTED] bandicam 2025-06-02 00-01-10-144</name>
						<rate>
							<timebase>60</timebase>
							<ntsc>TRUE</ntsc>
						</rate>
						<rate>
							<timebase>60</timebase>
							<ntsc>TRUE</ntsc>
						</rate>
						<duration>1278</duration>
						<start>126</start>
						<end>1404</end>
						<in>126</in>
						<out>1404</out>
						<enabled>FALSE</enabled>
					</clipitem>
					<clipitem frameBlend="FALSE" id="clipitem-rejected-975">
						<file id="file-1"/>
						<name>[REJECTED] bandicam 2025-06-02 00-01-10-144</name>
						<rate>
							<timebase>60</timebase>
							<ntsc>TRUE</ntsc>
						</rate>
						<rate>
							<timebase>60</timebase>
							<ntsc>TRUE</ntsc>
						</rate>
						<duration>276</duration>
						<start>1422</start>
						<end>1698</end>
						<in>1422</in>
						<out>1698</out>
						<enabled>FALSE</enabled>
					</clipitem>
					<clipitem frameBlend="FALSE" id="clipitem-rejected-976">
						<file id="file-1"/>
						<name>[REJECTED] bandicam 2025-06-02 00-01-10-144</name>
						<rate>
							<timebase>60</timebase>
							<ntsc>TRUE</ntsc>
						</rate>
						<rate>
							<timebase>60</timebase>
							<ntsc>TRUE</ntsc>
						</rate>
						<duration>30</duration>
						<start>1710</start>
						<end>1740</end>
						<in>1710</in>
						<out>1740</out>
						<enabled>FALSE</enabled>
					</clipitem>
					<clipitem frameBlend="FALSE" id="clipitem-rejected-977">
						<file id="file-1"/>
						<name>[REJECTED] bandicam 2025-06-02 00-01-10-144</name>
						<rate>
							<timebase>60</timebase>
							<ntsc>TRUE</ntsc>
						</rate>
						<rate>
							<timebase>60</timebase>
							<ntsc>TRUE</ntsc>
						</rate>
						<duration>678</duration>
						<start>1764</start>
						<end>2442</end>
						<in>1764</in>
						<out>2442</out>
						<enabled>FALSE</enabled>
					</clipitem>
					<clipitem frameBlend="FALSE" id="clipitem-rejected-978">
						<file id="file-1"/>
						<name>[REJECTED] bandicam 2025-06-02 00-01-10-144</name>
						<rate>
							<timebase>60</timebase>
							<ntsc>TRUE</ntsc>
						</rate>
						<rate>
							<timebase>60</timebase>
							<ntsc>TRUE</ntsc>
						</rate>
						<duration>276</duration>
						<start>2460</start>
						<end>2736</end>
						<in>2460</in>
						<out>2736</out>
						<enabled>FALSE</enabled>
					</clipitem>
					<clipitem frameBlend="FALSE" id="clipitem-rejected-979">
						<file id="file-1"/>
						<name>[REJECTED] bandicam 2025-06-02 00-01-10-144</name>
						<rate>
							<timebase>60</timebase>
							<ntsc>TRUE</ntsc>
						</rate>
						<rate>
							<timebase>60</timebase>
							<ntsc>TRUE</ntsc>
						</rate>
						<duration>54</duration>
						<start>2760</start>
						<end>2814</end>
						<in>2760</in>
						<out>2814</out>
						<enabled>FALSE</enabled>
					</clipitem>
					<clipitem frameBlend="FALSE" id="clipitem-rejected-980">
						<file id="file-1"/>
						<name>[REJECTED] bandicam 2025-06-02 00-01-10-144</name>
						<rate>
							<timebase>60</timebase>
							<ntsc>TRUE</ntsc>
						</rate>
						<rate>
							<timebase>60</timebase>
							<ntsc>TRUE</ntsc>
						</rate>
						<duration>240</duration>
						<start>2826</start>
						<end>3066</end>
						<in>2826</in>
						<out>3066</out>
						<enabled>FALSE</enabled>
					</clipitem>
					<clipitem frameBlend="FALSE" id="clipitem-rejected-981">
						<file id="file-1"/>
						<name>[REJECTED] bandicam 2025-06-02 00-01-10-144</name>
						<rate>
							<timebase>60</timebase>
							<ntsc>TRUE</ntsc>
						</rate>
						<rate>
							<timebase>60</timebase>
							<ntsc>TRUE</ntsc>
						</rate>
						<duration>156</duration>
						<start>3108</start>
						<end>3264</end>
						<in>3108</in>
						<out>3264</out>
						<enabled>FALSE</enabled>
					</clipitem>
					<clipitem frameBlend="FALSE" id="clipitem-rejected-982">
						<file id="file-1"/>
						<name>[REJECTED] bandicam 2025-06-02 00-01-10-144</name>
						<rate>
							<timebase>60</timebase>
							<ntsc>TRUE</ntsc>
						</rate>
						<rate>
							<timebase>60</timebase>
							<ntsc>TRUE</ntsc>
						</rate>
						<duration>786</duration>
						<start>3294</start>
						<end>4080</end>
						<in>3294</in>
						<out>4080</out>
						<enabled>FALSE</enabled>
					</clipitem>
					<clipitem frameBlend="FALSE" id="clipitem-rejected-983">
						<file id="file-1"/>
						<name>[REJECTED] bandicam 2025-06-02 00-01-10-144</name>
						<rate>
							<timebase>60</timebase>
							<ntsc>TRUE</ntsc>
						</rate>
						<rate>
							<timebase>60</timebase>
							<ntsc>TRUE</ntsc>
						</rate>
						<duration>0</duration>
						<start>4098</start>
						<end>4098</end>
						<in>4098</in>
						<out>4098</out>
						<enabled>FALSE</enabled>
					</clipitem>
					<clipitem frameBlend="FALSE" id="clipitem-rejected-984">
						<file id="file-1"/>
						<name>[REJECTED] bandicam 2025-06-02 00-01-10-144</name>
						<rate>
							<timebase>60</timebase>
							<ntsc>TRUE</ntsc>
						</rate>
						<rate>
							<timebase>60</timebase>
							<ntsc>TRUE</ntsc>
						</rate>
						<duration>12</duration>
						<start>4116</start>
						<end>4128</end>
						<in>4116</in>
						<out>4128</out>
						<enabled>FALSE</enabled>
					</clipitem>
					<clipitem frameBlend="FALSE" id="clipitem-rejected-985">
						<file id="file-1"/>
						<name>[REJECTED] bandicam 2025-06-02 00-01-10-144</name>
						<rate>
							<timebase>60</timebase>
							<ntsc>TRUE</ntsc>
						</rate>
						<rate>
							<timebase>60</timebase>
							<ntsc>TRUE</ntsc>
						</rate>
						<duration>42</duration>
						<start>4140</start>
						<end>4182</end>
						<in>4140</in>
						<out>4182</out>
						<enabled>FALSE</enabled>
					</clipitem>
					<clipitem frameBlend="FALSE" id="clipitem-rejected-986">
						<file id="file-1"/>
						<name>[REJECTED] bandicam 2025-06-02 00-01-10-144</name>
						<rate>
							<timebase>60</timebase>
							<ntsc>TRUE</ntsc>
						</rate>
						<rate>
							<timebase>60</timebase>
							<ntsc>TRUE</ntsc>
						</rate>
						<duration>24</duration>
						<start>4200</start>
						<end>4224</end>
						<in>4200</in>
						<out>4224</out>
						<enabled>FALSE</enabled>
					</clipitem>
					<clipitem frameBlend="FALSE" id="clipitem-rejected-987">
						<file id="file-1"/>
						<name>[REJECTED] bandicam 2025-06-02 00-01-10-144</name>
						<rate>
							<timebase>60</timebase>
							<ntsc>TRUE</ntsc>
						</rate>
						<rate>
							<timebase>60</timebase>
							<ntsc>TRUE</ntsc>
						</rate>
						<duration>0</duration>
						<start>4236</start>
						<end>4236</end>
						<in>4236</in>
						<out>4236</out>
						<enabled>FALSE</enabled>
					</clipitem>
					<clipitem frameBlend="FALSE" id="clipitem-rejected-988">
						<file id="file-1"/>
						<name>[REJECTED] bandicam 2025-06-02 00-01-10-144</name>
						<rate>
							<timebase>60</timebase>
							<ntsc>TRUE</ntsc>
						</rate>
						<rate>
							<timebase>60</timebase>
							<ntsc>TRUE</ntsc>
						</rate>
						<duration>108</duration>
						<start>4254</start>
						<end>4362</end>
						<in>4254</in>
						<out>4362</out>
						<enabled>FALSE</enabled>
					</clipitem>
					<clipitem frameBlend="FALSE" id="clipitem-rejected-989">
						<file id="file-1"/>
						<name>[REJECTED] bandicam 2025-06-02 00-01-10-144</name>
						<rate>
							<timebase>60</timebase>
							<ntsc>TRUE</ntsc>
						</rate>
						<rate>
							<timebase>60</timebase>
							<ntsc>TRUE</ntsc>
						</rate>
						<duration>342</duration>
						<start>4374</start>
						<end>4716</end>
						<in>4374</in>
						<out>4716</out>
						<enabled>FALSE</enabled>
					</clipitem>
					<clipitem frameBlend="FALSE" id="clipitem-rejected-990">
						<file id="file-1"/>
						<name>[REJECTED] bandicam 2025-06-02 00-01-10-144</name>
						<rate>
							<timebase>60</timebase>
							<ntsc>TRUE</ntsc>
						</rate>
						<rate>
							<timebase>60</timebase>
							<ntsc>TRUE</ntsc>
						</rate>
						<duration>378</duration>
						<start>4728</start>
						<end>5106</end>
						<in>4728</in>
						<out>5106</out>
						<enabled>FALSE</enabled>
					</clipitem>
					<clipitem frameBlend="FALSE" id="clipitem-rejected-991">
						<file id="file-1"/>
						<name>[REJECTED] bandicam 2025-06-02 00-01-10-144</name>
						<rate>
							<timebase>60</timebase>
							<ntsc>TRUE</ntsc>
						</rate>
						<rate>
							<timebase>60</timebase>
							<ntsc>TRUE</ntsc>
						</rate>
						<duration>12</duration>
						<start>5124</start>
						<end>5136</end>
						<in>5124</in>
						<out>5136</out>
						<enabled>FALSE</enabled>
					</clipitem>
					<clipitem frameBlend="FALSE" id="clipitem-rejected-992">
						<file id="file-1"/>
						<name>[REJECTED] bandicam 2025-06-02 00-01-10-144</name>
						<rate>
							<timebase>60</timebase>
							<ntsc>TRUE</ntsc>
						</rate>
						<rate>
							<timebase>60</timebase>
							<ntsc>TRUE</ntsc>
						</rate>
						<duration>0</duration>
						<start>5154</start>
						<end>5154</end>
						<in>5154</in>
						<out>5154</out>
						<enabled>FALSE</enabled>
					</clipitem>
					<clipitem frameBlend="FALSE" id="clipitem-rejected-993">
						<file id="file-1"/>
						<name>[REJECTED] bandicam 2025-06-02 00-01-10-144</name>
						<rate>
							<timebase>60</timebase>
							<ntsc>TRUE</ntsc>
						</rate>
						<rate>
							<timebase>60</timebase>
							<ntsc>TRUE</ntsc>
						</rate>
						<duration>156</duration>
						<start>5178</start>
						<end>5334</end>
						<in>5178</in>
						<out>5334</out>
						<enabled>FALSE</enabled>
					</clipitem>
					<clipitem frameBlend="FALSE" id="clipitem-rejected-994">
						<file id="file-1"/>
						<name>[REJECTED] bandicam 2025-06-02 00-01-10-144</name>
						<rate>
							<timebase>60</timebase>
							<ntsc>TRUE</ntsc>
						</rate>
						<rate>
							<timebase>60</timebase>
							<ntsc>TRUE</ntsc>
						</rate>
						<duration>240</duration>
						<start>5346</start>
						<end>5586</end>
						<in>5346</in>
						<out>5586</out>
						<enabled>FALSE</enabled>
					</clipitem>
					<clipitem frameBlend="FALSE" id="clipitem-rejected-995">
						<file id="file-1"/>
						<name>[REJECTED] bandicam 2025-06-02 00-01-10-144</name>
						<rate>
							<timebase>60</timebase>
							<ntsc>TRUE</ntsc>
						</rate>
						<rate>
							<timebase>60</timebase>
							<ntsc>TRUE</ntsc>
						</rate>
						<duration>66</duration>
						<start>5598</start>
						<end>5664</end>
						<in>5598</in>
						<out>5664</out>
						<enabled>FALSE</enabled>
					</clipitem>
					<clipitem frameBlend="FALSE" id="clipitem-rejected-996">
						<file id="file-1"/>
						<name>[REJECTED] bandicam 2025-06-02 00-01-10-144</name>
						<rate>
							<timebase>60</timebase>
							<ntsc>TRUE</ntsc>
						</rate>
						<rate>
							<timebase>60</timebase>
							<ntsc>TRUE</ntsc>
						</rate>
						<duration>60</duration>
						<start>5694</start>
						<end>5754</end>
						<in>5694</in>
						<out>5754</out>
						<enabled>FALSE</enabled>
					</clipitem>
					<clipitem frameBlend="FALSE" id="clipitem-rejected-997">
						<file id="file-1"/>
						<name>[REJECTED] bandicam 2025-06-02 00-01-10-144</name>
						<rate>
							<timebase>60</timebase>
							<ntsc>TRUE</ntsc>
						</rate>
						<rate>
							<timebase>60</timebase>
							<ntsc>TRUE</ntsc>
						</rate>
						<duration>12</duration>
						<start>5784</start>
						<end>5796</end>
						<in>5784</in>
						<out>5796</out>
						<enabled>FALSE</enabled>
					</clipitem>
					<clipitem frameBlend="FALSE" id="clipitem-rejected-998">
						<file id="file-1"/>
						<name>[REJECTED] bandicam 2025-06-02 00-01-10-144</name>
						<rate>
							<timebase>60</timebase>
							<ntsc>TRUE</ntsc>
						</rate>
						<rate>
							<timebase>60</timebase>
							<ntsc>TRUE</ntsc>
						</rate>
						<duration>24</duration>
						<start>5880</start>
						<end>5904</end>
						<in>5880</in>
						<out>5904</out>
						<enabled>FALSE</enabled>
					</clipitem>
					<clipitem frameBlend="FALSE" id="clipitem-rejected-999">
						<file id="file-1"/>
						<name>[REJECTED] bandicam 2025-06-02 00-01-10-144</name>
						<rate>
							<timebase>60</timebase>
							<ntsc>TRUE</ntsc>
						</rate>
						<rate>
							<timebase>60</timebase>
							<ntsc>TRUE</ntsc>
						</rate>
						<duration>0</duration>
						<start>5916</start>
						<end>5916</end>
						<in>5916</in>
						<out>5916</out>
						<enabled>FALSE</enabled>
					</clipitem>
					<clipitem frameBlend="FALSE" id="clipitem-rejected-1000">
						<file id="file-1"/>
						<name>[REJECTED] bandicam 2025-06-02 00-01-10-144</name>
						<rate>
							<timebase>60</timebase>
							<ntsc>TRUE</ntsc>
						</rate>
						<rate>
							<timebase>60</timebase>
							<ntsc>TRUE</ntsc>
						</rate>
						<duration>6</duration>
						<start>5940</start>
						<end>5946</end>
						<in>5940</in>
						<out>5946</out>
						<enabled>FALSE</enabled>
					</clipitem>
					<clipitem frameBlend="FALSE" id="clipitem-rejected-1001">
						<file id="file-1"/>
						<name>[REJECTED] bandicam 2025-06-02 00-01-10-144</name>
						<rate>
							<timebase>60</timebase>
							<ntsc>TRUE</ntsc>
						</rate>
						<rate>
							<timebase>60</timebase>
							<ntsc>TRUE</ntsc>
						</rate>
						<duration>42</duration>
						<start>5964</start>
						<end>6006</end>
						<in>5964</in>
						<out>6006</out>
						<enabled>FALSE</enabled>
					</clipitem>
					<clipitem frameBlend="FALSE" id="clipitem-rejected-1002">
						<file id="file-1"/>
						<name>[REJECTED] bandicam 2025-06-02 00-01-10-144</name>
						<rate>
							<timebase>60</timebase>
							<ntsc>TRUE</ntsc>
						</rate>
						<rate>
							<timebase>60</timebase>
							<ntsc>TRUE</ntsc>
						</rate>
						<duration>120</duration>
						<start>6030</start>
						<end>6150</end>
						<in>6030</in>
						<out>6150</out>
						<enabled>FALSE</enabled>
					</clipitem>
					<clipitem frameBlend="FALSE" id="clipitem-rejected-1003">
						<file id="file-1"/>
						<name>[REJECTED] bandicam 2025-06-02 00-01-10-144</name>
						<rate>
							<timebase>60</timebase>
							<ntsc>TRUE</ntsc>
						</rate>
						<rate>
							<timebase>60</timebase>
							<ntsc>TRUE</ntsc>
						</rate>
						<duration>42</duration>
						<start>6186</start>
						<end>6228</end>
						<in>6186</in>
						<out>6228</out>
						<enabled>FALSE</enabled>
					</clipitem>
					<clipitem frameBlend="FALSE" id="clipitem-rejected-1004">
						<file id="file-1"/>
						<name>[REJECTED] bandicam 2025-06-02 00-01-10-144</name>
						<rate>
							<timebase>60</timebase>
							<ntsc>TRUE</ntsc>
						</rate>
						<rate>
							<timebase>60</timebase>
							<ntsc>TRUE</ntsc>
						</rate>
						<duration>828</duration>
						<start>6240</start>
						<end>7068</end>
						<in>6240</in>
						<out>7068</out>
						<enabled>FALSE</enabled>
					</clipitem>
					<clipitem frameBlend="FALSE" id="clipitem-rejected-1005">
						<file id="file-1"/>
						<name>[REJECTED] bandicam 2025-06-02 00-01-10-144</name>
						<rate>
							<timebase>60</timebase>
							<ntsc>TRUE</ntsc>
						</rate>
						<rate>
							<timebase>60</timebase>
							<ntsc>TRUE</ntsc>
						</rate>
						<duration>6</duration>
						<start>0</start>
						<end>6</end>
						<in>0</in>
						<out>6</out>
						<enabled>FALSE</enabled>
					</clipitem>
					<clipitem frameBlend="FALSE" id="clipitem-rejected-1006">
						<file id="file-1"/>
						<name>[REJECTED] bandicam 2025-06-02 00-01-10-144</name>
						<rate>
							<timebase>60</timebase>
							<ntsc>TRUE</ntsc>
						</rate>
						<rate>
							<timebase>60</timebase>
							<ntsc>TRUE</ntsc>
						</rate>
						<duration>6</duration>
						<start>42</start>
						<end>48</end>
						<in>42</in>
						<out>48</out>
						<enabled>FALSE</enabled>
					</clipitem>
					<clipitem frameBlend="FALSE" id="clipitem-rejected-1007">
						<file id="file-1"/>
						<name>[REJECTED] bandicam 2025-06-02 00-01-10-144</name>
						<rate>
							<timebase>60</timebase>
							<ntsc>TRUE</ntsc>
						</rate>
						<rate>
							<timebase>60</timebase>
							<ntsc>TRUE</ntsc>
						</rate>
						<duration>6</duration>
						<start>96</start>
						<end>102</end>
						<in>96</in>
						<out>102</out>
						<enabled>FALSE</enabled>
					</clipitem>
					<clipitem frameBlend="FALSE" id="clipitem-rejected-1008">
						<file id="file-1"/>
						<name>[REJECTED] bandicam 2025-06-02 00-01-10-144</name>
						<rate>
							<timebase>60</timebase>
							<ntsc>TRUE</ntsc>
						</rate>
						<rate>
							<timebase>60</timebase>
							<ntsc>TRUE</ntsc>
						</rate>
						<duration>36</duration>
						<start>132</start>
						<end>168</end>
						<in>132</in>
						<out>168</out>
						<enabled>FALSE</enabled>
					</clipitem>
					<clipitem frameBlend="FALSE" id="clipitem-rejected-1009">
						<file id="file-1"/>
						<name>[REJECTED] bandicam 2025-06-02 00-01-10-144</name>
						<rate>
							<timebase>60</timebase>
							<ntsc>TRUE</ntsc>
						</rate>
						<rate>
							<timebase>60</timebase>
							<ntsc>TRUE</ntsc>
						</rate>
						<duration>90</duration>
						<start>204</start>
						<end>294</end>
						<in>204</in>
						<out>294</out>
						<enabled>FALSE</enabled>
					</clipitem>
					<clipitem frameBlend="FALSE" id="clipitem-rejected-1010">
						<file id="file-1"/>
						<name>[REJECTED] bandicam 2025-06-02 00-01-10-144</name>
						<rate>
							<timebase>60</timebase>
							<ntsc>TRUE</ntsc>
						</rate>
						<rate>
							<timebase>60</timebase>
							<ntsc>TRUE</ntsc>
						</rate>
						<duration>48</duration>
						<start>306</start>
						<end>354</end>
						<in>306</in>
						<out>354</out>
						<enabled>FALSE</enabled>
					</clipitem>
					<clipitem frameBlend="FALSE" id="clipitem-rejected-1011">
						<file id="file-1"/>
						<name>[REJECTED] bandicam 2025-06-02 00-01-10-144</name>
						<rate>
							<timebase>60</timebase>
							<ntsc>TRUE</ntsc>
						</rate>
						<rate>
							<timebase>60</timebase>
							<ntsc>TRUE</ntsc>
						</rate>
						<duration>36</duration>
						<start>396</start>
						<end>432</end>
						<in>396</in>
						<out>432</out>
						<enabled>FALSE</enabled>
					</clipitem>
					<clipitem frameBlend="FALSE" id="clipitem-rejected-1012">
						<file id="file-1"/>
						<name>[REJECTED] bandicam 2025-06-02 00-01-10-144</name>
						<rate>
							<timebase>60</timebase>
							<ntsc>TRUE</ntsc>
						</rate>
						<rate>
							<timebase>60</timebase>
							<ntsc>TRUE</ntsc>
						</rate>
						<duration>0</duration>
						<start>444</start>
						<end>444</end>
						<in>444</in>
						<out>444</out>
						<enabled>FALSE</enabled>
					</clipitem>
					<clipitem frameBlend="FALSE" id="clipitem-rejected-1013">
						<file id="file-1"/>
						<name>[REJECTED] bandicam 2025-06-02 00-01-10-144</name>
						<rate>
							<timebase>60</timebase>
							<ntsc>TRUE</ntsc>
						</rate>
						<rate>
							<timebase>60</timebase>
							<ntsc>TRUE</ntsc>
						</rate>
						<duration>0</duration>
						<start>498</start>
						<end>498</end>
						<in>498</in>
						<out>498</out>
						<enabled>FALSE</enabled>
					</clipitem>
					<clipitem frameBlend="FALSE" id="clipitem-rejected-1014">
						<file id="file-1"/>
						<name>[REJECTED] bandicam 2025-06-02 00-01-10-144</name>
						<rate>
							<timebase>60</timebase>
							<ntsc>TRUE</ntsc>
						</rate>
						<rate>
							<timebase>60</timebase>
							<ntsc>TRUE</ntsc>
						</rate>
						<duration>12</duration>
						<start>510</start>
						<end>522</end>
						<in>510</in>
						<out>522</out>
						<enabled>FALSE</enabled>
					</clipitem>
					<clipitem frameBlend="FALSE" id="clipitem-rejected-1015">
						<file id="file-1"/>
						<name>[REJECTED] bandicam 2025-06-02 00-01-10-144</name>
						<rate>
							<timebase>60</timebase>
							<ntsc>TRUE</ntsc>
						</rate>
						<rate>
							<timebase>60</timebase>
							<ntsc>TRUE</ntsc>
						</rate>
						<duration>18</duration>
						<start>558</start>
						<end>576</end>
						<in>558</in>
						<out>576</out>
						<enabled>FALSE</enabled>
					</clipitem>
					<clipitem frameBlend="FALSE" id="clipitem-rejected-1016">
						<file id="file-1"/>
						<name>[REJECTED] bandicam 2025-06-02 00-01-10-144</name>
						<rate>
							<timebase>60</timebase>
							<ntsc>TRUE</ntsc>
						</rate>
						<rate>
							<timebase>60</timebase>
							<ntsc>TRUE</ntsc>
						</rate>
						<duration>6</duration>
						<start>612</start>
						<end>618</end>
						<in>612</in>
						<out>618</out>
						<enabled>FALSE</enabled>
					</clipitem>
					<clipitem frameBlend="FALSE" id="clipitem-rejected-1017">
						<file id="file-1"/>
						<name>[REJECTED] bandicam 2025-06-02 00-01-10-144</name>
						<rate>
							<timebase>60</timebase>
							<ntsc>TRUE</ntsc>
						</rate>
						<rate>
							<timebase>60</timebase>
							<ntsc>TRUE</ntsc>
						</rate>
						<duration>162</duration>
						<start>648</start>
						<end>810</end>
						<in>648</in>
						<out>810</out>
						<enabled>FALSE</enabled>
					</clipitem>
					<clipitem frameBlend="FALSE" id="clipitem-rejected-1018">
						<file id="file-1"/>
						<name>[REJECTED] bandicam 2025-06-02 00-01-10-144</name>
						<rate>
							<timebase>60</timebase>
							<ntsc>TRUE</ntsc>
						</rate>
						<rate>
							<timebase>60</timebase>
							<ntsc>TRUE</ntsc>
						</rate>
						<duration>24</duration>
						<start>822</start>
						<end>846</end>
						<in>822</in>
						<out>846</out>
						<enabled>FALSE</enabled>
					</clipitem>
					<clipitem frameBlend="FALSE" id="clipitem-rejected-1019">
						<file id="file-1"/>
						<name>[REJECTED] bandicam 2025-06-02 00-01-10-144</name>
						<rate>
							<timebase>60</timebase>
							<ntsc>TRUE</ntsc>
						</rate>
						<rate>
							<timebase>60</timebase>
							<ntsc>TRUE</ntsc>
						</rate>
						<duration>48</duration>
						<start>858</start>
						<end>906</end>
						<in>858</in>
						<out>906</out>
						<enabled>FALSE</enabled>
					</clipitem>
					<clipitem frameBlend="FALSE" id="clipitem-rejected-1020">
						<file id="file-1"/>
						<name>[REJECTED] bandicam 2025-06-02 00-01-10-144</name>
						<rate>
							<timebase>60</timebase>
							<ntsc>TRUE</ntsc>
						</rate>
						<rate>
							<timebase>60</timebase>
							<ntsc>TRUE</ntsc>
						</rate>
						<duration>12</duration>
						<start>918</start>
						<end>930</end>
						<in>918</in>
						<out>930</out>
						<enabled>FALSE</enabled>
					</clipitem>
					<clipitem frameBlend="FALSE" id="clipitem-rejected-1021">
						<file id="file-1"/>
						<name>[REJECTED] bandicam 2025-06-02 00-01-10-144</name>
						<rate>
							<timebase>60</timebase>
							<ntsc>TRUE</ntsc>
						</rate>
						<rate>
							<timebase>60</timebase>
							<ntsc>TRUE</ntsc>
						</rate>
						<duration>6</duration>
						<start>942</start>
						<end>948</end>
						<in>942</in>
						<out>948</out>
						<enabled>FALSE</enabled>
					</clipitem>
					<clipitem frameBlend="FALSE" id="clipitem-rejected-1022">
						<file id="file-1"/>
						<name>[REJECTED] bandicam 2025-06-02 00-01-10-144</name>
						<rate>
							<timebase>60</timebase>
							<ntsc>TRUE</ntsc>
						</rate>
						<rate>
							<timebase>60</timebase>
							<ntsc>TRUE</ntsc>
						</rate>
						<duration>18</duration>
						<start>960</start>
						<end>978</end>
						<in>960</in>
						<out>978</out>
						<enabled>FALSE</enabled>
					</clipitem>
					<clipitem frameBlend="FALSE" id="clipitem-rejected-1023">
						<file id="file-1"/>
						<name>[REJECTED] bandicam 2025-06-02 00-01-10-144</name>
						<rate>
							<timebase>60</timebase>
							<ntsc>TRUE</ntsc>
						</rate>
						<rate>
							<timebase>60</timebase>
							<ntsc>TRUE</ntsc>
						</rate>
						<duration>78</duration>
						<start>1002</start>
						<end>1080</end>
						<in>1002</in>
						<out>1080</out>
						<enabled>FALSE</enabled>
					</clipitem>
					<clipitem frameBlend="FALSE" id="clipitem-rejected-1024">
						<file id="file-1"/>
						<name>[REJECTED] bandicam 2025-06-02 00-01-10-144</name>
						<rate>
							<timebase>60</timebase>
							<ntsc>TRUE</ntsc>
						</rate>
						<rate>
							<timebase>60</timebase>
							<ntsc>TRUE</ntsc>
						</rate>
						<duration>78</duration>
						<start>1104</start>
						<end>1182</end>
						<in>1104</in>
						<out>1182</out>
						<enabled>FALSE</enabled>
					</clipitem>
					<clipitem frameBlend="FALSE" id="clipitem-rejected-1025">
						<file id="file-1"/>
						<name>[REJECTED] bandicam 2025-06-02 00-01-10-144</name>
						<rate>
							<timebase>60</timebase>
							<ntsc>TRUE</ntsc>
						</rate>
						<rate>
							<timebase>60</timebase>
							<ntsc>TRUE</ntsc>
						</rate>
						<duration>78</duration>
						<start>1236</start>
						<end>1314</end>
						<in>1236</in>
						<out>1314</out>
						<enabled>FALSE</enabled>
					</clipitem>
					<clipitem frameBlend="FALSE" id="clipitem-rejected-1026">
						<file id="file-1"/>
						<name>[REJECTED] bandicam 2025-06-02 00-01-10-144</name>
						<rate>
							<timebase>60</timebase>
							<ntsc>TRUE</ntsc>
						</rate>
						<rate>
							<timebase>60</timebase>
							<ntsc>TRUE</ntsc>
						</rate>
						<duration>42</duration>
						<start>1326</start>
						<end>1368</end>
						<in>1326</in>
						<out>1368</out>
						<enabled>FALSE</enabled>
					</clipitem>
					<clipitem frameBlend="FALSE" id="clipitem-rejected-1027">
						<file id="file-1"/>
						<name>[REJECTED] bandicam 2025-06-02 00-01-10-144</name>
						<rate>
							<timebase>60</timebase>
							<ntsc>TRUE</ntsc>
						</rate>
						<rate>
							<timebase>60</timebase>
							<ntsc>TRUE</ntsc>
						</rate>
						<duration>6</duration>
						<start>1434</start>
						<end>1440</end>
						<in>1434</in>
						<out>1440</out>
						<enabled>FALSE</enabled>
					</clipitem>
					<clipitem frameBlend="FALSE" id="clipitem-rejected-1028">
						<file id="file-1"/>
						<name>[REJECTED] bandicam 2025-06-02 00-01-10-144</name>
						<rate>
							<timebase>60</timebase>
							<ntsc>TRUE</ntsc>
						</rate>
						<rate>
							<timebase>60</timebase>
							<ntsc>TRUE</ntsc>
						</rate>
						<duration>54</duration>
						<start>1476</start>
						<end>1530</end>
						<in>1476</in>
						<out>1530</out>
						<enabled>FALSE</enabled>
					</clipitem>
					<clipitem frameBlend="FALSE" id="clipitem-rejected-1029">
						<file id="file-1"/>
						<name>[REJECTED] bandicam 2025-06-02 00-01-10-144</name>
						<rate>
							<timebase>60</timebase>
							<ntsc>TRUE</ntsc>
						</rate>
						<rate>
							<timebase>60</timebase>
							<ntsc>TRUE</ntsc>
						</rate>
						<duration>18</duration>
						<start>1542</start>
						<end>1560</end>
						<in>1542</in>
						<out>1560</out>
						<enabled>FALSE</enabled>
					</clipitem>
					<clipitem frameBlend="FALSE" id="clipitem-rejected-1030">
						<file id="file-1"/>
						<name>[REJECTED] bandicam 2025-06-02 00-01-10-144</name>
						<rate>
							<timebase>60</timebase>
							<ntsc>TRUE</ntsc>
						</rate>
						<rate>
							<timebase>60</timebase>
							<ntsc>TRUE</ntsc>
						</rate>
						<duration>90</duration>
						<start>1596</start>
						<end>1686</end>
						<in>1596</in>
						<out>1686</out>
						<enabled>FALSE</enabled>
					</clipitem>
					<clipitem frameBlend="FALSE" id="clipitem-rejected-1031">
						<file id="file-1"/>
						<name>[REJECTED] bandicam 2025-06-02 00-01-10-144</name>
						<rate>
							<timebase>60</timebase>
							<ntsc>TRUE</ntsc>
						</rate>
						<rate>
							<timebase>60</timebase>
							<ntsc>TRUE</ntsc>
						</rate>
						<duration>0</duration>
						<start>1740</start>
						<end>1740</end>
						<in>1740</in>
						<out>1740</out>
						<enabled>FALSE</enabled>
					</clipitem>
					<clipitem frameBlend="FALSE" id="clipitem-rejected-1032">
						<file id="file-1"/>
						<name>[REJECTED] bandicam 2025-06-02 00-01-10-144</name>
						<rate>
							<timebase>60</timebase>
							<ntsc>TRUE</ntsc>
						</rate>
						<rate>
							<timebase>60</timebase>
							<ntsc>TRUE</ntsc>
						</rate>
						<duration>6</duration>
						<start>1788</start>
						<end>1794</end>
						<in>1788</in>
						<out>1794</out>
						<enabled>FALSE</enabled>
					</clipitem>
					<clipitem frameBlend="FALSE" id="clipitem-rejected-1033">
						<file id="file-1"/>
						<name>[REJECTED] bandicam 2025-06-02 00-01-10-144</name>
						<rate>
							<timebase>60</timebase>
							<ntsc>TRUE</ntsc>
						</rate>
						<rate>
							<timebase>60</timebase>
							<ntsc>TRUE</ntsc>
						</rate>
						<duration>0</duration>
						<start>1836</start>
						<end>1836</end>
						<in>1836</in>
						<out>1836</out>
						<enabled>FALSE</enabled>
					</clipitem>
					<clipitem frameBlend="FALSE" id="clipitem-rejected-1034">
						<file id="file-1"/>
						<name>[REJECTED] bandicam 2025-06-02 00-01-10-144</name>
						<rate>
							<timebase>60</timebase>
							<ntsc>TRUE</ntsc>
						</rate>
						<rate>
							<timebase>60</timebase>
							<ntsc>TRUE</ntsc>
						</rate>
						<duration>0</duration>
						<start>1878</start>
						<end>1878</end>
						<in>1878</in>
						<out>1878</out>
						<enabled>FALSE</enabled>
					</clipitem>
					<clipitem frameBlend="FALSE" id="clipitem-rejected-1035">
						<file id="file-1"/>
						<name>[REJECTED] bandicam 2025-06-02 00-01-10-144</name>
						<rate>
							<timebase>60</timebase>
							<ntsc>TRUE</ntsc>
						</rate>
						<rate>
							<timebase>60</timebase>
							<ntsc>TRUE</ntsc>
						</rate>
						<duration>6</duration>
						<start>1914</start>
						<end>1920</end>
						<in>1914</in>
						<out>1920</out>
						<enabled>FALSE</enabled>
					</clipitem>
					<clipitem frameBlend="FALSE" id="clipitem-rejected-1036">
						<file id="file-1"/>
						<name>[REJECTED] bandicam 2025-06-02 00-01-10-144</name>
						<rate>
							<timebase>60</timebase>
							<ntsc>TRUE</ntsc>
						</rate>
						<rate>
							<timebase>60</timebase>
							<ntsc>TRUE</ntsc>
						</rate>
						<duration>216</duration>
						<start>1956</start>
						<end>2172</end>
						<in>1956</in>
						<out>2172</out>
						<enabled>FALSE</enabled>
					</clipitem>
					<clipitem frameBlend="FALSE" id="clipitem-rejected-1037">
						<file id="file-1"/>
						<name>[REJECTED] bandicam 2025-06-02 00-01-10-144</name>
						<rate>
							<timebase>60</timebase>
							<ntsc>TRUE</ntsc>
						</rate>
						<rate>
							<timebase>60</timebase>
							<ntsc>TRUE</ntsc>
						</rate>
						<duration>66</duration>
						<start>2208</start>
						<end>2274</end>
						<in>2208</in>
						<out>2274</out>
						<enabled>FALSE</enabled>
					</clipitem>
					<clipitem frameBlend="FALSE" id="clipitem-rejected-1038">
						<file id="file-1"/>
						<name>[REJECTED] bandicam 2025-06-02 00-01-10-144</name>
						<rate>
							<timebase>60</timebase>
							<ntsc>TRUE</ntsc>
						</rate>
						<rate>
							<timebase>60</timebase>
							<ntsc>TRUE</ntsc>
						</rate>
						<duration>78</duration>
						<start>2364</start>
						<end>2442</end>
						<in>2364</in>
						<out>2442</out>
						<enabled>FALSE</enabled>
					</clipitem>
					<clipitem frameBlend="FALSE" id="clipitem-rejected-1039">
						<file id="file-1"/>
						<name>[REJECTED] bandicam 2025-06-02 00-01-10-144</name>
						<rate>
							<timebase>60</timebase>
							<ntsc>TRUE</ntsc>
						</rate>
						<rate>
							<timebase>60</timebase>
							<ntsc>TRUE</ntsc>
						</rate>
						<duration>0</duration>
						<start>2472</start>
						<end>2472</end>
						<in>2472</in>
						<out>2472</out>
						<enabled>FALSE</enabled>
					</clipitem>
					<clipitem frameBlend="FALSE" id="clipitem-rejected-1040">
						<file id="file-1"/>
						<name>[REJECTED] bandicam 2025-06-02 00-01-10-144</name>
						<rate>
							<timebase>60</timebase>
							<ntsc>TRUE</ntsc>
						</rate>
						<rate>
							<timebase>60</timebase>
							<ntsc>TRUE</ntsc>
						</rate>
						<duration>0</duration>
						<start>2490</start>
						<end>2490</end>
						<in>2490</in>
						<out>2490</out>
						<enabled>FALSE</enabled>
					</clipitem>
					<clipitem frameBlend="FALSE" id="clipitem-rejected-1041">
						<file id="file-1"/>
						<name>[REJECTED] bandicam 2025-06-02 00-01-10-144</name>
						<rate>
							<timebase>60</timebase>
							<ntsc>TRUE</ntsc>
						</rate>
						<rate>
							<timebase>60</timebase>
							<ntsc>TRUE</ntsc>
						</rate>
						<duration>24</duration>
						<start>2508</start>
						<end>2532</end>
						<in>2508</in>
						<out>2532</out>
						<enabled>FALSE</enabled>
					</clipitem>
					<clipitem frameBlend="FALSE" id="clipitem-rejected-1042">
						<file id="file-1"/>
						<name>[REJECTED] bandicam 2025-06-02 00-01-10-144</name>
						<rate>
							<timebase>60</timebase>
							<ntsc>TRUE</ntsc>
						</rate>
						<rate>
							<timebase>60</timebase>
							<ntsc>TRUE</ntsc>
						</rate>
						<duration>12</duration>
						<start>2574</start>
						<end>2586</end>
						<in>2574</in>
						<out>2586</out>
						<enabled>FALSE</enabled>
					</clipitem>
					<clipitem frameBlend="FALSE" id="clipitem-rejected-1043">
						<file id="file-1"/>
						<name>[REJECTED] bandicam 2025-06-02 00-01-10-144</name>
						<rate>
							<timebase>60</timebase>
							<ntsc>TRUE</ntsc>
						</rate>
						<rate>
							<timebase>60</timebase>
							<ntsc>TRUE</ntsc>
						</rate>
						<duration>36</duration>
						<start>2682</start>
						<end>2718</end>
						<in>2682</in>
						<out>2718</out>
						<enabled>FALSE</enabled>
					</clipitem>
					<clipitem frameBlend="FALSE" id="clipitem-rejected-1044">
						<file id="file-1"/>
						<name>[REJECTED] bandicam 2025-06-02 00-01-10-144</name>
						<rate>
							<timebase>60</timebase>
							<ntsc>TRUE</ntsc>
						</rate>
						<rate>
							<timebase>60</timebase>
							<ntsc>TRUE</ntsc>
						</rate>
						<duration>0</duration>
						<start>2862</start>
						<end>2862</end>
						<in>2862</in>
						<out>2862</out>
						<enabled>FALSE</enabled>
					</clipitem>
					<clipitem frameBlend="FALSE" id="clipitem-rejected-1045">
						<file id="file-1"/>
						<name>[REJECTED] bandicam 2025-06-02 00-01-10-144</name>
						<rate>
							<timebase>60</timebase>
							<ntsc>TRUE</ntsc>
						</rate>
						<rate>
							<timebase>60</timebase>
							<ntsc>TRUE</ntsc>
						</rate>
						<duration>24</duration>
						<start>2916</start>
						<end>2940</end>
						<in>2916</in>
						<out>2940</out>
						<enabled>FALSE</enabled>
					</clipitem>
					<clipitem frameBlend="FALSE" id="clipitem-rejected-1046">
						<file id="file-1"/>
						<name>[REJECTED] bandicam 2025-06-02 00-01-10-144</name>
						<rate>
							<timebase>60</timebase>
							<ntsc>TRUE</ntsc>
						</rate>
						<rate>
							<timebase>60</timebase>
							<ntsc>TRUE</ntsc>
						</rate>
						<duration>6</duration>
						<start>2952</start>
						<end>2958</end>
						<in>2952</in>
						<out>2958</out>
						<enabled>FALSE</enabled>
					</clipitem>
					<clipitem frameBlend="FALSE" id="clipitem-rejected-1047">
						<file id="file-1"/>
						<name>[REJECTED] bandicam 2025-06-02 00-01-10-144</name>
						<rate>
							<timebase>60</timebase>
							<ntsc>TRUE</ntsc>
						</rate>
						<rate>
							<timebase>60</timebase>
							<ntsc>TRUE</ntsc>
						</rate>
						<duration>60</duration>
						<start>2994</start>
						<end>3054</end>
						<in>2994</in>
						<out>3054</out>
						<enabled>FALSE</enabled>
					</clipitem>
					<clipitem frameBlend="FALSE" id="clipitem-rejected-1048">
						<file id="file-1"/>
						<name>[REJECTED] bandicam 2025-06-02 00-01-10-144</name>
						<rate>
							<timebase>60</timebase>
							<ntsc>TRUE</ntsc>
						</rate>
						<rate>
							<timebase>60</timebase>
							<ntsc>TRUE</ntsc>
						</rate>
						<duration>6</duration>
						<start>3108</start>
						<end>3114</end>
						<in>3108</in>
						<out>3114</out>
						<enabled>FALSE</enabled>
					</clipitem>
					<clipitem frameBlend="FALSE" id="clipitem-rejected-1049">
						<file id="file-1"/>
						<name>[REJECTED] bandicam 2025-06-02 00-01-10-144</name>
						<rate>
							<timebase>60</timebase>
							<ntsc>TRUE</ntsc>
						</rate>
						<rate>
							<timebase>60</timebase>
							<ntsc>TRUE</ntsc>
						</rate>
						<duration>66</duration>
						<start>3150</start>
						<end>3216</end>
						<in>3150</in>
						<out>3216</out>
						<enabled>FALSE</enabled>
					</clipitem>
					<clipitem frameBlend="FALSE" id="clipitem-rejected-1050">
						<file id="file-1"/>
						<name>[REJECTED] bandicam 2025-06-02 00-01-10-144</name>
						<rate>
							<timebase>60</timebase>
							<ntsc>TRUE</ntsc>
						</rate>
						<rate>
							<timebase>60</timebase>
							<ntsc>TRUE</ntsc>
						</rate>
						<duration>6</duration>
						<start>3258</start>
						<end>3264</end>
						<in>3258</in>
						<out>3264</out>
						<enabled>FALSE</enabled>
					</clipitem>
					<clipitem frameBlend="FALSE" id="clipitem-rejected-1051">
						<file id="file-1"/>
						<name>[REJECTED] bandicam 2025-06-02 00-01-10-144</name>
						<rate>
							<timebase>60</timebase>
							<ntsc>TRUE</ntsc>
						</rate>
						<rate>
							<timebase>60</timebase>
							<ntsc>TRUE</ntsc>
						</rate>
						<duration>54</duration>
						<start>3312</start>
						<end>3366</end>
						<in>3312</in>
						<out>3366</out>
						<enabled>FALSE</enabled>
					</clipitem>
					<clipitem frameBlend="FALSE" id="clipitem-rejected-1052">
						<file id="file-1"/>
						<name>[REJECTED] bandicam 2025-06-02 00-01-10-144</name>
						<rate>
							<timebase>60</timebase>
							<ntsc>TRUE</ntsc>
						</rate>
						<rate>
							<timebase>60</timebase>
							<ntsc>TRUE</ntsc>
						</rate>
						<duration>42</duration>
						<start>3402</start>
						<end>3444</end>
						<in>3402</in>
						<out>3444</out>
						<enabled>FALSE</enabled>
					</clipitem>
					<clipitem frameBlend="FALSE" id="clipitem-rejected-1053">
						<file id="file-1"/>
						<name>[REJECTED] bandicam 2025-06-02 00-01-10-144</name>
						<rate>
							<timebase>60</timebase>
							<ntsc>TRUE</ntsc>
						</rate>
						<rate>
							<timebase>60</timebase>
							<ntsc>TRUE</ntsc>
						</rate>
						<duration>12</duration>
						<start>3480</start>
						<end>3492</end>
						<in>3480</in>
						<out>3492</out>
						<enabled>FALSE</enabled>
					</clipitem>
					<clipitem frameBlend="FALSE" id="clipitem-rejected-1054">
						<file id="file-1"/>
						<name>[REJECTED] bandicam 2025-06-02 00-01-10-144</name>
						<rate>
							<timebase>60</timebase>
							<ntsc>TRUE</ntsc>
						</rate>
						<rate>
							<timebase>60</timebase>
							<ntsc>TRUE</ntsc>
						</rate>
						<duration>48</duration>
						<start>3528</start>
						<end>3576</end>
						<in>3528</in>
						<out>3576</out>
						<enabled>FALSE</enabled>
					</clipitem>
					<clipitem frameBlend="FALSE" id="clipitem-rejected-1055">
						<file id="file-1"/>
						<name>[REJECTED] bandicam 2025-06-02 00-01-10-144</name>
						<rate>
							<timebase>60</timebase>
							<ntsc>TRUE</ntsc>
						</rate>
						<rate>
							<timebase>60</timebase>
							<ntsc>TRUE</ntsc>
						</rate>
						<duration>30</duration>
						<start>3588</start>
						<end>3618</end>
						<in>3588</in>
						<out>3618</out>
						<enabled>FALSE</enabled>
					</clipitem>
					<clipitem frameBlend="FALSE" id="clipitem-rejected-1056">
						<file id="file-1"/>
						<name>[REJECTED] bandicam 2025-06-02 00-01-10-144</name>
						<rate>
							<timebase>60</timebase>
							<ntsc>TRUE</ntsc>
						</rate>
						<rate>
							<timebase>60</timebase>
							<ntsc>TRUE</ntsc>
						</rate>
						<duration>18</duration>
						<start>3648</start>
						<end>3666</end>
						<in>3648</in>
						<out>3666</out>
						<enabled>FALSE</enabled>
					</clipitem>
					<clipitem frameBlend="FALSE" id="clipitem-rejected-1057">
						<file id="file-1"/>
						<name>[REJECTED] bandicam 2025-06-02 00-01-10-144</name>
						<rate>
							<timebase>60</timebase>
							<ntsc>TRUE</ntsc>
						</rate>
						<rate>
							<timebase>60</timebase>
							<ntsc>TRUE</ntsc>
						</rate>
						<duration>12</duration>
						<start>3678</start>
						<end>3690</end>
						<in>3678</in>
						<out>3690</out>
						<enabled>FALSE</enabled>
					</clipitem>
					<clipitem frameBlend="FALSE" id="clipitem-rejected-1058">
						<file id="file-1"/>
						<name>[REJECTED] bandicam 2025-06-02 00-01-10-144</name>
						<rate>
							<timebase>60</timebase>
							<ntsc>TRUE</ntsc>
						</rate>
						<rate>
							<timebase>60</timebase>
							<ntsc>TRUE</ntsc>
						</rate>
						<duration>60</duration>
						<start>3702</start>
						<end>3762</end>
						<in>3702</in>
						<out>3762</out>
						<enabled>FALSE</enabled>
					</clipitem>
					<clipitem frameBlend="FALSE" id="clipitem-rejected-1059">
						<file id="file-1"/>
						<name>[REJECTED] bandicam 2025-06-02 00-01-10-144</name>
						<rate>
							<timebase>60</timebase>
							<ntsc>TRUE</ntsc>
						</rate>
						<rate>
							<timebase>60</timebase>
							<ntsc>TRUE</ntsc>
						</rate>
						<duration>60</duration>
						<start>3786</start>
						<end>3846</end>
						<in>3786</in>
						<out>3846</out>
						<enabled>FALSE</enabled>
					</clipitem>
					<clipitem frameBlend="FALSE" id="clipitem-rejected-1060">
						<file id="file-1"/>
						<name>[REJECTED] bandicam 2025-06-02 00-01-10-144</name>
						<rate>
							<timebase>60</timebase>
							<ntsc>TRUE</ntsc>
						</rate>
						<rate>
							<timebase>60</timebase>
							<ntsc>TRUE</ntsc>
						</rate>
						<duration>18</duration>
						<start>3882</start>
						<end>3900</end>
						<in>3882</in>
						<out>3900</out>
						<enabled>FALSE</enabled>
					</clipitem>
					<clipitem frameBlend="FALSE" id="clipitem-rejected-1061">
						<file id="file-1"/>
						<name>[REJECTED] bandicam 2025-06-02 00-01-10-144</name>
						<rate>
							<timebase>60</timebase>
							<ntsc>TRUE</ntsc>
						</rate>
						<rate>
							<timebase>60</timebase>
							<ntsc>TRUE</ntsc>
						</rate>
						<duration>84</duration>
						<start>3936</start>
						<end>4020</end>
						<in>3936</in>
						<out>4020</out>
						<enabled>FALSE</enabled>
					</clipitem>
					<clipitem frameBlend="FALSE" id="clipitem-rejected-1062">
						<file id="file-1"/>
						<name>[REJECTED] bandicam 2025-06-02 00-01-10-144</name>
						<rate>
							<timebase>60</timebase>
							<ntsc>TRUE</ntsc>
						</rate>
						<rate>
							<timebase>60</timebase>
							<ntsc>TRUE</ntsc>
						</rate>
						<duration>0</duration>
						<start>4038</start>
						<end>4038</end>
						<in>4038</in>
						<out>4038</out>
						<enabled>FALSE</enabled>
					</clipitem>
					<clipitem frameBlend="FALSE" id="clipitem-rejected-1063">
						<file id="file-1"/>
						<name>[REJECTED] bandicam 2025-06-02 00-01-10-144</name>
						<rate>
							<timebase>60</timebase>
							<ntsc>TRUE</ntsc>
						</rate>
						<rate>
							<timebase>60</timebase>
							<ntsc>TRUE</ntsc>
						</rate>
						<duration>30</duration>
						<start>4050</start>
						<end>4080</end>
						<in>4050</in>
						<out>4080</out>
						<enabled>FALSE</enabled>
					</clipitem>
					<clipitem frameBlend="FALSE" id="clipitem-rejected-1064">
						<file id="file-1"/>
						<name>[REJECTED] bandicam 2025-06-02 00-01-10-144</name>
						<rate>
							<timebase>60</timebase>
							<ntsc>TRUE</ntsc>
						</rate>
						<rate>
							<timebase>60</timebase>
							<ntsc>TRUE</ntsc>
						</rate>
						<duration>12</duration>
						<start>4170</start>
						<end>4182</end>
						<in>4170</in>
						<out>4182</out>
						<enabled>FALSE</enabled>
					</clipitem>
					<clipitem frameBlend="FALSE" id="clipitem-rejected-1065">
						<file id="file-1"/>
						<name>[REJECTED] bandicam 2025-06-02 00-01-10-144</name>
						<rate>
							<timebase>60</timebase>
							<ntsc>TRUE</ntsc>
						</rate>
						<rate>
							<timebase>60</timebase>
							<ntsc>TRUE</ntsc>
						</rate>
						<duration>12</duration>
						<start>4206</start>
						<end>4218</end>
						<in>4206</in>
						<out>4218</out>
						<enabled>FALSE</enabled>
					</clipitem>
					<clipitem frameBlend="FALSE" id="clipitem-rejected-1066">
						<file id="file-1"/>
						<name>[REJECTED] bandicam 2025-06-02 00-01-10-144</name>
						<rate>
							<timebase>60</timebase>
							<ntsc>TRUE</ntsc>
						</rate>
						<rate>
							<timebase>60</timebase>
							<ntsc>TRUE</ntsc>
						</rate>
						<duration>12</duration>
						<start>4284</start>
						<end>4296</end>
						<in>4284</in>
						<out>4296</out>
						<enabled>FALSE</enabled>
					</clipitem>
					<clipitem frameBlend="FALSE" id="clipitem-rejected-1067">
						<file id="file-1"/>
						<name>[REJECTED] bandicam 2025-06-02 00-01-10-144</name>
						<rate>
							<timebase>60</timebase>
							<ntsc>TRUE</ntsc>
						</rate>
						<rate>
							<timebase>60</timebase>
							<ntsc>TRUE</ntsc>
						</rate>
						<duration>24</duration>
						<start>4440</start>
						<end>4464</end>
						<in>4440</in>
						<out>4464</out>
						<enabled>FALSE</enabled>
					</clipitem>
					<clipitem frameBlend="FALSE" id="clipitem-rejected-1068">
						<file id="file-1"/>
						<name>[REJECTED] bandicam 2025-06-02 00-01-10-144</name>
						<rate>
							<timebase>60</timebase>
							<ntsc>TRUE</ntsc>
						</rate>
						<rate>
							<timebase>60</timebase>
							<ntsc>TRUE</ntsc>
						</rate>
						<duration>12</duration>
						<start>4488</start>
						<end>4500</end>
						<in>4488</in>
						<out>4500</out>
						<enabled>FALSE</enabled>
					</clipitem>
					<clipitem frameBlend="FALSE" id="clipitem-rejected-1069">
						<file id="file-1"/>
						<name>[REJECTED] bandicam 2025-06-02 00-01-10-144</name>
						<rate>
							<timebase>60</timebase>
							<ntsc>TRUE</ntsc>
						</rate>
						<rate>
							<timebase>60</timebase>
							<ntsc>TRUE</ntsc>
						</rate>
						<duration>36</duration>
						<start>4560</start>
						<end>4596</end>
						<in>4560</in>
						<out>4596</out>
						<enabled>FALSE</enabled>
					</clipitem>
					<clipitem frameBlend="FALSE" id="clipitem-rejected-1070">
						<file id="file-1"/>
						<name>[REJECTED] bandicam 2025-06-02 00-01-10-144</name>
						<rate>
							<timebase>60</timebase>
							<ntsc>TRUE</ntsc>
						</rate>
						<rate>
							<timebase>60</timebase>
							<ntsc>TRUE</ntsc>
						</rate>
						<duration>6</duration>
						<start>4638</start>
						<end>4644</end>
						<in>4638</in>
						<out>4644</out>
						<enabled>FALSE</enabled>
					</clipitem>
					<clipitem frameBlend="FALSE" id="clipitem-rejected-1071">
						<file id="file-1"/>
						<name>[REJECTED] bandicam 2025-06-02 00-01-10-144</name>
						<rate>
							<timebase>60</timebase>
							<ntsc>TRUE</ntsc>
						</rate>
						<rate>
							<timebase>60</timebase>
							<ntsc>TRUE</ntsc>
						</rate>
						<duration>18</duration>
						<start>4680</start>
						<end>4698</end>
						<in>4680</in>
						<out>4698</out>
						<enabled>FALSE</enabled>
					</clipitem>
					<clipitem frameBlend="FALSE" id="clipitem-rejected-1072">
						<file id="file-1"/>
						<name>[REJECTED] bandicam 2025-06-02 00-01-10-144</name>
						<rate>
							<timebase>60</timebase>
							<ntsc>TRUE</ntsc>
						</rate>
						<rate>
							<timebase>60</timebase>
							<ntsc>TRUE</ntsc>
						</rate>
						<duration>6</duration>
						<start>4710</start>
						<end>4716</end>
						<in>4710</in>
						<out>4716</out>
						<enabled>FALSE</enabled>
					</clipitem>
					<clipitem frameBlend="FALSE" id="clipitem-rejected-1073">
						<file id="file-1"/>
						<name>[REJECTED] bandicam 2025-06-02 00-01-10-144</name>
						<rate>
							<timebase>60</timebase>
							<ntsc>TRUE</ntsc>
						</rate>
						<rate>
							<timebase>60</timebase>
							<ntsc>TRUE</ntsc>
						</rate>
						<duration>24</duration>
						<start>4818</start>
						<end>4842</end>
						<in>4818</in>
						<out>4842</out>
						<enabled>FALSE</enabled>
					</clipitem>
					<clipitem frameBlend="FALSE" id="clipitem-rejected-1074">
						<file id="file-1"/>
						<name>[REJECTED] bandicam 2025-06-02 00-01-10-144</name>
						<rate>
							<timebase>60</timebase>
							<ntsc>TRUE</ntsc>
						</rate>
						<rate>
							<timebase>60</timebase>
							<ntsc>TRUE</ntsc>
						</rate>
						<duration>0</duration>
						<start>4854</start>
						<end>4854</end>
						<in>4854</in>
						<out>4854</out>
						<enabled>FALSE</enabled>
					</clipitem>
					<clipitem frameBlend="FALSE" id="clipitem-rejected-1075">
						<file id="file-1"/>
						<name>[REJECTED] bandicam 2025-06-02 00-01-10-144</name>
						<rate>
							<timebase>60</timebase>
							<ntsc>TRUE</ntsc>
						</rate>
						<rate>
							<timebase>60</timebase>
							<ntsc>TRUE</ntsc>
						</rate>
						<duration>6</duration>
						<start>4878</start>
						<end>4884</end>
						<in>4878</in>
						<out>4884</out>
						<enabled>FALSE</enabled>
					</clipitem>
					<clipitem frameBlend="FALSE" id="clipitem-rejected-1076">
						<file id="file-1"/>
						<name>[REJECTED] bandicam 2025-06-02 00-01-10-144</name>
						<rate>
							<timebase>60</timebase>
							<ntsc>TRUE</ntsc>
						</rate>
						<rate>
							<timebase>60</timebase>
							<ntsc>TRUE</ntsc>
						</rate>
						<duration>0</duration>
						<start>4902</start>
						<end>4902</end>
						<in>4902</in>
						<out>4902</out>
						<enabled>FALSE</enabled>
					</clipitem>
					<clipitem frameBlend="FALSE" id="clipitem-rejected-1077">
						<file id="file-1"/>
						<name>[REJECTED] bandicam 2025-06-02 00-01-10-144</name>
						<rate>
							<timebase>60</timebase>
							<ntsc>TRUE</ntsc>
						</rate>
						<rate>
							<timebase>60</timebase>
							<ntsc>TRUE</ntsc>
						</rate>
						<duration>0</duration>
						<start>4938</start>
						<end>4938</end>
						<in>4938</in>
						<out>4938</out>
						<enabled>FALSE</enabled>
					</clipitem>
					<clipitem frameBlend="FALSE" id="clipitem-rejected-1078">
						<file id="file-1"/>
						<name>[REJECTED] bandicam 2025-06-02 00-01-10-144</name>
						<rate>
							<timebase>60</timebase>
							<ntsc>TRUE</ntsc>
						</rate>
						<rate>
							<timebase>60</timebase>
							<ntsc>TRUE</ntsc>
						</rate>
						<duration>30</duration>
						<start>4980</start>
						<end>5010</end>
						<in>4980</in>
						<out>5010</out>
						<enabled>FALSE</enabled>
					</clipitem>
					<clipitem frameBlend="FALSE" id="clipitem-rejected-1079">
						<file id="file-1"/>
						<name>[REJECTED] bandicam 2025-06-02 00-01-10-144</name>
						<rate>
							<timebase>60</timebase>
							<ntsc>TRUE</ntsc>
						</rate>
						<rate>
							<timebase>60</timebase>
							<ntsc>TRUE</ntsc>
						</rate>
						<duration>6</duration>
						<start>5052</start>
						<end>5058</end>
						<in>5052</in>
						<out>5058</out>
						<enabled>FALSE</enabled>
					</clipitem>
					<clipitem frameBlend="FALSE" id="clipitem-rejected-1080">
						<file id="file-1"/>
						<name>[REJECTED] bandicam 2025-06-02 00-01-10-144</name>
						<rate>
							<timebase>60</timebase>
							<ntsc>TRUE</ntsc>
						</rate>
						<rate>
							<timebase>60</timebase>
							<ntsc>TRUE</ntsc>
						</rate>
						<duration>0</duration>
						<start>5076</start>
						<end>5076</end>
						<in>5076</in>
						<out>5076</out>
						<enabled>FALSE</enabled>
					</clipitem>
					<clipitem frameBlend="FALSE" id="clipitem-rejected-1081">
						<file id="file-1"/>
						<name>[REJECTED] bandicam 2025-06-02 00-01-10-144</name>
						<rate>
							<timebase>60</timebase>
							<ntsc>TRUE</ntsc>
						</rate>
						<rate>
							<timebase>60</timebase>
							<ntsc>TRUE</ntsc>
						</rate>
						<duration>42</duration>
						<start>5184</start>
						<end>5226</end>
						<in>5184</in>
						<out>5226</out>
						<enabled>FALSE</enabled>
					</clipitem>
					<clipitem frameBlend="FALSE" id="clipitem-rejected-1082">
						<file id="file-1"/>
						<name>[REJECTED] bandicam 2025-06-02 00-01-10-144</name>
						<rate>
							<timebase>60</timebase>
							<ntsc>TRUE</ntsc>
						</rate>
						<rate>
							<timebase>60</timebase>
							<ntsc>TRUE</ntsc>
						</rate>
						<duration>60</duration>
						<start>5262</start>
						<end>5322</end>
						<in>5262</in>
						<out>5322</out>
						<enabled>FALSE</enabled>
					</clipitem>
					<clipitem frameBlend="FALSE" id="clipitem-rejected-1083">
						<file id="file-1"/>
						<name>[REJECTED] bandicam 2025-06-02 00-01-10-144</name>
						<rate>
							<timebase>60</timebase>
							<ntsc>TRUE</ntsc>
						</rate>
						<rate>
							<timebase>60</timebase>
							<ntsc>TRUE</ntsc>
						</rate>
						<duration>0</duration>
						<start>5346</start>
						<end>5346</end>
						<in>5346</in>
						<out>5346</out>
						<enabled>FALSE</enabled>
					</clipitem>
					<clipitem frameBlend="FALSE" id="clipitem-rejected-1084">
						<file id="file-1"/>
						<name>[REJECTED] bandicam 2025-06-02 00-01-10-144</name>
						<rate>
							<timebase>60</timebase>
							<ntsc>TRUE</ntsc>
						</rate>
						<rate>
							<timebase>60</timebase>
							<ntsc>TRUE</ntsc>
						</rate>
						<duration>6</duration>
						<start>5370</start>
						<end>5376</end>
						<in>5370</in>
						<out>5376</out>
						<enabled>FALSE</enabled>
					</clipitem>
					<clipitem frameBlend="FALSE" id="clipitem-rejected-1085">
						<file id="file-1"/>
						<name>[REJECTED] bandicam 2025-06-02 00-01-10-144</name>
						<rate>
							<timebase>60</timebase>
							<ntsc>TRUE</ntsc>
						</rate>
						<rate>
							<timebase>60</timebase>
							<ntsc>TRUE</ntsc>
						</rate>
						<duration>12</duration>
						<start>5472</start>
						<end>5484</end>
						<in>5472</in>
						<out>5484</out>
						<enabled>FALSE</enabled>
					</clipitem>
					<clipitem frameBlend="FALSE" id="clipitem-rejected-1086">
						<file id="file-1"/>
						<name>[REJECTED] bandicam 2025-06-02 00-01-10-144</name>
						<rate>
							<timebase>60</timebase>
							<ntsc>TRUE</ntsc>
						</rate>
						<rate>
							<timebase>60</timebase>
							<ntsc>TRUE</ntsc>
						</rate>
						<duration>0</duration>
						<start>5514</start>
						<end>5514</end>
						<in>5514</in>
						<out>5514</out>
						<enabled>FALSE</enabled>
					</clipitem>
					<clipitem frameBlend="FALSE" id="clipitem-rejected-1087">
						<file id="file-1"/>
						<name>[REJECTED] bandicam 2025-06-02 00-01-10-144</name>
						<rate>
							<timebase>60</timebase>
							<ntsc>TRUE</ntsc>
						</rate>
						<rate>
							<timebase>60</timebase>
							<ntsc>TRUE</ntsc>
						</rate>
						<duration>0</duration>
						<start>5526</start>
						<end>5526</end>
						<in>5526</in>
						<out>5526</out>
						<enabled>FALSE</enabled>
					</clipitem>
					<clipitem frameBlend="FALSE" id="clipitem-rejected-1088">
						<file id="file-1"/>
						<name>[REJECTED] bandicam 2025-06-02 00-01-10-144</name>
						<rate>
							<timebase>60</timebase>
							<ntsc>TRUE</ntsc>
						</rate>
						<rate>
							<timebase>60</timebase>
							<ntsc>TRUE</ntsc>
						</rate>
						<duration>0</duration>
						<start>5574</start>
						<end>5574</end>
						<in>5574</in>
						<out>5574</out>
						<enabled>FALSE</enabled>
					</clipitem>
					<clipitem frameBlend="FALSE" id="clipitem-rejected-1089">
						<file id="file-1"/>
						<name>[REJECTED] bandicam 2025-06-02 00-01-10-144</name>
						<rate>
							<timebase>60</timebase>
							<ntsc>TRUE</ntsc>
						</rate>
						<rate>
							<timebase>60</timebase>
							<ntsc>TRUE</ntsc>
						</rate>
						<duration>12</duration>
						<start>5604</start>
						<end>5616</end>
						<in>5604</in>
						<out>5616</out>
						<enabled>FALSE</enabled>
					</clipitem>
					<clipitem frameBlend="FALSE" id="clipitem-rejected-1090">
						<file id="file-1"/>
						<name>[REJECTED] bandicam 2025-06-02 00-01-10-144</name>
						<rate>
							<timebase>60</timebase>
							<ntsc>TRUE</ntsc>
						</rate>
						<rate>
							<timebase>60</timebase>
							<ntsc>TRUE</ntsc>
						</rate>
						<duration>6</duration>
						<start>5652</start>
						<end>5658</end>
						<in>5652</in>
						<out>5658</out>
						<enabled>FALSE</enabled>
					</clipitem>
					<clipitem frameBlend="FALSE" id="clipitem-rejected-1091">
						<file id="file-1"/>
						<name>[REJECTED] bandicam 2025-06-02 00-01-10-144</name>
						<rate>
							<timebase>60</timebase>
							<ntsc>TRUE</ntsc>
						</rate>
						<rate>
							<timebase>60</timebase>
							<ntsc>TRUE</ntsc>
						</rate>
						<duration>18</duration>
						<start>5700</start>
						<end>5718</end>
						<in>5700</in>
						<out>5718</out>
						<enabled>FALSE</enabled>
					</clipitem>
					<clipitem frameBlend="FALSE" id="clipitem-rejected-1092">
						<file id="file-1"/>
						<name>[REJECTED] bandicam 2025-06-02 00-01-10-144</name>
						<rate>
							<timebase>60</timebase>
							<ntsc>TRUE</ntsc>
						</rate>
						<rate>
							<timebase>60</timebase>
							<ntsc>TRUE</ntsc>
						</rate>
						<duration>6</duration>
						<start>5736</start>
						<end>5742</end>
						<in>5736</in>
						<out>5742</out>
						<enabled>FALSE</enabled>
					</clipitem>
					<clipitem frameBlend="FALSE" id="clipitem-rejected-1093">
						<file id="file-1"/>
						<name>[REJECTED] bandicam 2025-06-02 00-01-10-144</name>
						<rate>
							<timebase>60</timebase>
							<ntsc>TRUE</ntsc>
						</rate>
						<rate>
							<timebase>60</timebase>
							<ntsc>TRUE</ntsc>
						</rate>
						<duration>12</duration>
						<start>5784</start>
						<end>5796</end>
						<in>5784</in>
						<out>5796</out>
						<enabled>FALSE</enabled>
					</clipitem>
					<clipitem frameBlend="FALSE" id="clipitem-rejected-1094">
						<file id="file-1"/>
						<name>[REJECTED] bandicam 2025-06-02 00-01-10-144</name>
						<rate>
							<timebase>60</timebase>
							<ntsc>TRUE</ntsc>
						</rate>
						<rate>
							<timebase>60</timebase>
							<ntsc>TRUE</ntsc>
						</rate>
						<duration>0</duration>
						<start>5994</start>
						<end>5994</end>
						<in>5994</in>
						<out>5994</out>
						<enabled>FALSE</enabled>
					</clipitem>
					<clipitem frameBlend="FALSE" id="clipitem-rejected-1095">
						<file id="file-1"/>
						<name>[REJECTED] bandicam 2025-06-02 00-01-10-144</name>
						<rate>
							<timebase>60</timebase>
							<ntsc>TRUE</ntsc>
						</rate>
						<rate>
							<timebase>60</timebase>
							<ntsc>TRUE</ntsc>
						</rate>
						<duration>42</duration>
						<start>6084</start>
						<end>6126</end>
						<in>6084</in>
						<out>6126</out>
						<enabled>FALSE</enabled>
					</clipitem>
					<clipitem frameBlend="FALSE" id="clipitem-rejected-1096">
						<file id="file-1"/>
						<name>[REJECTED] bandicam 2025-06-02 00-01-10-144</name>
						<rate>
							<timebase>60</timebase>
							<ntsc>TRUE</ntsc>
						</rate>
						<rate>
							<timebase>60</timebase>
							<ntsc>TRUE</ntsc>
						</rate>
						<duration>6</duration>
						<start>6138</start>
						<end>6144</end>
						<in>6138</in>
						<out>6144</out>
						<enabled>FALSE</enabled>
					</clipitem>
					<clipitem frameBlend="FALSE" id="clipitem-rejected-1097">
						<file id="file-1"/>
						<name>[REJECTED] bandicam 2025-06-02 00-01-10-144</name>
						<rate>
							<timebase>60</timebase>
							<ntsc>TRUE</ntsc>
						</rate>
						<rate>
							<timebase>60</timebase>
							<ntsc>TRUE</ntsc>
						</rate>
						<duration>0</duration>
						<start>6216</start>
						<end>6216</end>
						<in>6216</in>
						<out>6216</out>
						<enabled>FALSE</enabled>
					</clipitem>
					<clipitem frameBlend="FALSE" id="clipitem-rejected-1098">
						<file id="file-1"/>
						<name>[REJECTED] bandicam 2025-06-02 00-01-10-144</name>
						<rate>
							<timebase>60</timebase>
							<ntsc>TRUE</ntsc>
						</rate>
						<rate>
							<timebase>60</timebase>
							<ntsc>TRUE</ntsc>
						</rate>
						<duration>12</duration>
						<start>6264</start>
						<end>6276</end>
						<in>6264</in>
						<out>6276</out>
						<enabled>FALSE</enabled>
					</clipitem>
					<clipitem frameBlend="FALSE" id="clipitem-rejected-1099">
						<file id="file-1"/>
						<name>[REJECTED] bandicam 2025-06-02 00-01-10-144</name>
						<rate>
							<timebase>60</timebase>
							<ntsc>TRUE</ntsc>
						</rate>
						<rate>
							<timebase>60</timebase>
							<ntsc>TRUE</ntsc>
						</rate>
						<duration>6</duration>
						<start>6288</start>
						<end>6294</end>
						<in>6288</in>
						<out>6294</out>
						<enabled>FALSE</enabled>
					</clipitem>
					<clipitem frameBlend="FALSE" id="clipitem-rejected-1100">
						<file id="file-1"/>
						<name>[REJECTED] bandicam 2025-06-02 00-01-10-144</name>
						<rate>
							<timebase>60</timebase>
							<ntsc>TRUE</ntsc>
						</rate>
						<rate>
							<timebase>60</timebase>
							<ntsc>TRUE</ntsc>
						</rate>
						<duration>0</duration>
						<start>6306</start>
						<end>6306</end>
						<in>6306</in>
						<out>6306</out>
						<enabled>FALSE</enabled>
					</clipitem>
					<clipitem frameBlend="FALSE" id="clipitem-rejected-1101">
						<file id="file-1"/>
						<name>[REJECTED] bandicam 2025-06-02 00-01-10-144</name>
						<rate>
							<timebase>60</timebase>
							<ntsc>TRUE</ntsc>
						</rate>
						<rate>
							<timebase>60</timebase>
							<ntsc>TRUE</ntsc>
						</rate>
						<duration>36</duration>
						<start>6342</start>
						<end>6378</end>
						<in>6342</in>
						<out>6378</out>
						<enabled>FALSE</enabled>
					</clipitem>
					<clipitem frameBlend="FALSE" id="clipitem-rejected-1102">
						<file id="file-1"/>
						<name>[REJECTED] bandicam 2025-06-02 00-01-10-144</name>
						<rate>
							<timebase>60</timebase>
							<ntsc>TRUE</ntsc>
						</rate>
						<rate>
							<timebase>60</timebase>
							<ntsc>TRUE</ntsc>
						</rate>
						<duration>12</duration>
						<start>6414</start>
						<end>6426</end>
						<in>6414</in>
						<out>6426</out>
						<enabled>FALSE</enabled>
					</clipitem>
					<clipitem frameBlend="FALSE" id="clipitem-rejected-1103">
						<file id="file-1"/>
						<name>[REJECTED] bandicam 2025-06-02 00-01-10-144</name>
						<rate>
							<timebase>60</timebase>
							<ntsc>TRUE</ntsc>
						</rate>
						<rate>
							<timebase>60</timebase>
							<ntsc>TRUE</ntsc>
						</rate>
						<duration>0</duration>
						<start>6462</start>
						<end>6462</end>
						<in>6462</in>
						<out>6462</out>
						<enabled>FALSE</enabled>
					</clipitem>
					<clipitem frameBlend="FALSE" id="clipitem-rejected-1104">
						<file id="file-1"/>
						<name>[REJECTED] bandicam 2025-06-02 00-01-10-144</name>
						<rate>
							<timebase>60</timebase>
							<ntsc>TRUE</ntsc>
						</rate>
						<rate>
							<timebase>60</timebase>
							<ntsc>TRUE</ntsc>
						</rate>
						<duration>0</duration>
						<start>6540</start>
						<end>6540</end>
						<in>6540</in>
						<out>6540</out>
						<enabled>FALSE</enabled>
					</clipitem>
					<clipitem frameBlend="FALSE" id="clipitem-rejected-1105">
						<file id="file-1"/>
						<name>[REJECTED] bandicam 2025-06-02 00-01-10-144</name>
						<rate>
							<timebase>60</timebase>
							<ntsc>TRUE</ntsc>
						</rate>
						<rate>
							<timebase>60</timebase>
							<ntsc>TRUE</ntsc>
						</rate>
						<duration>12</duration>
						<start>6594</start>
						<end>6606</end>
						<in>6594</in>
						<out>6606</out>
						<enabled>FALSE</enabled>
					</clipitem>
					<clipitem frameBlend="FALSE" id="clipitem-rejected-1106">
						<file id="file-1"/>
						<name>[REJECTED] bandicam 2025-06-02 00-01-10-144</name>
						<rate>
							<timebase>60</timebase>
							<ntsc>TRUE</ntsc>
						</rate>
						<rate>
							<timebase>60</timebase>
							<ntsc>TRUE</ntsc>
						</rate>
						<duration>66</duration>
						<start>6642</start>
						<end>6708</end>
						<in>6642</in>
						<out>6708</out>
						<enabled>FALSE</enabled>
					</clipitem>
					<clipitem frameBlend="FALSE" id="clipitem-rejected-1107">
						<file id="file-1"/>
						<name>[REJECTED] bandicam 2025-06-02 00-01-10-144</name>
						<rate>
							<timebase>60</timebase>
							<ntsc>TRUE</ntsc>
						</rate>
						<rate>
							<timebase>60</timebase>
							<ntsc>TRUE</ntsc>
						</rate>
						<duration>24</duration>
						<start>6720</start>
						<end>6744</end>
						<in>6720</in>
						<out>6744</out>
						<enabled>FALSE</enabled>
					</clipitem>
					<clipitem frameBlend="FALSE" id="clipitem-rejected-1108">
						<file id="file-1"/>
						<name>[REJECTED] bandicam 2025-06-02 00-01-10-144</name>
						<rate>
							<timebase>60</timebase>
							<ntsc>TRUE</ntsc>
						</rate>
						<rate>
							<timebase>60</timebase>
							<ntsc>TRUE</ntsc>
						</rate>
						<duration>30</duration>
						<start>6768</start>
						<end>6798</end>
						<in>6768</in>
						<out>6798</out>
						<enabled>FALSE</enabled>
					</clipitem>
					<clipitem frameBlend="FALSE" id="clipitem-rejected-1109">
						<file id="file-1"/>
						<name>[REJECTED] bandicam 2025-06-02 00-01-10-144</name>
						<rate>
							<timebase>60</timebase>
							<ntsc>TRUE</ntsc>
						</rate>
						<rate>
							<timebase>60</timebase>
							<ntsc>TRUE</ntsc>
						</rate>
						<duration>0</duration>
						<start>6822</start>
						<end>6822</end>
						<in>6822</in>
						<out>6822</out>
						<enabled>FALSE</enabled>
					</clipitem>
					<clipitem frameBlend="FALSE" id="clipitem-rejected-1110">
						<file id="file-1"/>
						<name>[REJECTED] bandicam 2025-06-02 00-01-10-144</name>
						<rate>
							<timebase>60</timebase>
							<ntsc>TRUE</ntsc>
						</rate>
						<rate>
							<timebase>60</timebase>
							<ntsc>TRUE</ntsc>
						</rate>
						<duration>30</duration>
						<start>6858</start>
						<end>6888</end>
						<in>6858</in>
						<out>6888</out>
						<enabled>FALSE</enabled>
					</clipitem>
					<clipitem frameBlend="FALSE" id="clipitem-rejected-1111">
						<file id="file-1"/>
						<name>[REJECTED] bandicam 2025-06-02 00-01-10-144</name>
						<rate>
							<timebase>60</timebase>
							<ntsc>TRUE</ntsc>
						</rate>
						<rate>
							<timebase>60</timebase>
							<ntsc>TRUE</ntsc>
						</rate>
						<duration>0</duration>
						<start>6906</start>
						<end>6906</end>
						<in>6906</in>
						<out>6906</out>
						<enabled>FALSE</enabled>
					</clipitem>
					<clipitem frameBlend="FALSE" id="clipitem-rejected-1112">
						<file id="file-1"/>
						<name>[REJECTED] bandicam 2025-06-02 00-01-10-144</name>
						<rate>
							<timebase>60</timebase>
							<ntsc>TRUE</ntsc>
						</rate>
						<rate>
							<timebase>60</timebase>
							<ntsc>TRUE</ntsc>
						</rate>
						<duration>6</duration>
						<start>6942</start>
						<end>6948</end>
						<in>6942</in>
						<out>6948</out>
						<enabled>FALSE</enabled>
					</clipitem>
					<clipitem frameBlend="FALSE" id="clipitem-rejected-1113">
						<file id="file-1"/>
						<name>[REJECTED] bandicam 2025-06-02 00-01-10-144</name>
						<rate>
							<timebase>60</timebase>
							<ntsc>TRUE</ntsc>
						</rate>
						<rate>
							<timebase>60</timebase>
							<ntsc>TRUE</ntsc>
						</rate>
						<duration>36</duration>
						<start>6960</start>
						<end>6996</end>
						<in>6960</in>
						<out>6996</out>
						<enabled>FALSE</enabled>
					</clipitem>
					<clipitem frameBlend="FALSE" id="clipitem-rejected-1114">
						<file id="file-1"/>
						<name>[REJECTED] bandicam 2025-06-02 00-01-10-144</name>
						<rate>
							<timebase>60</timebase>
							<ntsc>TRUE</ntsc>
						</rate>
						<rate>
							<timebase>60</timebase>
							<ntsc>TRUE</ntsc>
						</rate>
						<duration>12</duration>
						<start>7008</start>
						<end>7020</end>
						<in>7008</in>
						<out>7020</out>
						<enabled>FALSE</enabled>
					</clipitem>
					<clipitem frameBlend="FALSE" id="clipitem-rejected-1115">
						<file id="file-1"/>
						<name>[REJECTED] bandicam 2025-06-02 00-01-10-144</name>
						<rate>
							<timebase>60</timebase>
							<ntsc>TRUE</ntsc>
						</rate>
						<rate>
							<timebase>60</timebase>
							<ntsc>TRUE</ntsc>
						</rate>
						<duration>12</duration>
						<start>7056</start>
						<end>7068</end>
						<in>7056</in>
						<out>7068</out>
						<enabled>FALSE</enabled>
					</clipitem>
					<clipitem frameBlend="FALSE" id="clipitem-rejected-1116">
						<file id="file-1"/>
						<name>[REJECTED] bandicam 2025-06-02 00-01-10-144</name>
						<rate>
							<timebase>60</timebase>
							<ntsc>TRUE</ntsc>
						</rate>
						<rate>
							<timebase>60</timebase>
							<ntsc>TRUE</ntsc>
						</rate>
						<duration>6</duration>
						<start>0</start>
						<end>6</end>
						<in>0</in>
						<out>6</out>
						<enabled>FALSE</enabled>
					</clipitem>
					<clipitem frameBlend="FALSE" id="clipitem-rejected-1117">
						<file id="file-1"/>
						<name>[REJECTED] bandicam 2025-06-02 00-01-10-144</name>
						<rate>
							<timebase>60</timebase>
							<ntsc>TRUE</ntsc>
						</rate>
						<rate>
							<timebase>60</timebase>
							<ntsc>TRUE</ntsc>
						</rate>
						<duration>12</duration>
						<start>36</start>
						<end>48</end>
						<in>36</in>
						<out>48</out>
						<enabled>FALSE</enabled>
					</clipitem>
					<clipitem frameBlend="FALSE" id="clipitem-rejected-1118">
						<file id="file-1"/>
						<name>[REJECTED] bandicam 2025-06-02 00-01-10-144</name>
						<rate>
							<timebase>60</timebase>
							<ntsc>TRUE</ntsc>
						</rate>
						<rate>
							<timebase>60</timebase>
							<ntsc>TRUE</ntsc>
						</rate>
						<duration>6</duration>
						<start>96</start>
						<end>102</end>
						<in>96</in>
						<out>102</out>
						<enabled>FALSE</enabled>
					</clipitem>
					<clipitem frameBlend="FALSE" id="clipitem-rejected-1119">
						<file id="file-1"/>
						<name>[REJECTED] bandicam 2025-06-02 00-01-10-144</name>
						<rate>
							<timebase>60</timebase>
							<ntsc>TRUE</ntsc>
						</rate>
						<rate>
							<timebase>60</timebase>
							<ntsc>TRUE</ntsc>
						</rate>
						<duration>36</duration>
						<start>132</start>
						<end>168</end>
						<in>132</in>
						<out>168</out>
						<enabled>FALSE</enabled>
					</clipitem>
					<clipitem frameBlend="FALSE" id="clipitem-rejected-1120">
						<file id="file-1"/>
						<name>[REJECTED] bandicam 2025-06-02 00-01-10-144</name>
						<rate>
							<timebase>60</timebase>
							<ntsc>TRUE</ntsc>
						</rate>
						<rate>
							<timebase>60</timebase>
							<ntsc>TRUE</ntsc>
						</rate>
						<duration>90</duration>
						<start>204</start>
						<end>294</end>
						<in>204</in>
						<out>294</out>
						<enabled>FALSE</enabled>
					</clipitem>
					<clipitem frameBlend="FALSE" id="clipitem-rejected-1121">
						<file id="file-1"/>
						<name>[REJECTED] bandicam 2025-06-02 00-01-10-144</name>
						<rate>
							<timebase>60</timebase>
							<ntsc>TRUE</ntsc>
						</rate>
						<rate>
							<timebase>60</timebase>
							<ntsc>TRUE</ntsc>
						</rate>
						<duration>48</duration>
						<start>306</start>
						<end>354</end>
						<in>306</in>
						<out>354</out>
						<enabled>FALSE</enabled>
					</clipitem>
					<clipitem frameBlend="FALSE" id="clipitem-rejected-1122">
						<file id="file-1"/>
						<name>[REJECTED] bandicam 2025-06-02 00-01-10-144</name>
						<rate>
							<timebase>60</timebase>
							<ntsc>TRUE</ntsc>
						</rate>
						<rate>
							<timebase>60</timebase>
							<ntsc>TRUE</ntsc>
						</rate>
						<duration>42</duration>
						<start>390</start>
						<end>432</end>
						<in>390</in>
						<out>432</out>
						<enabled>FALSE</enabled>
					</clipitem>
					<clipitem frameBlend="FALSE" id="clipitem-rejected-1123">
						<file id="file-1"/>
						<name>[REJECTED] bandicam 2025-06-02 00-01-10-144</name>
						<rate>
							<timebase>60</timebase>
							<ntsc>TRUE</ntsc>
						</rate>
						<rate>
							<timebase>60</timebase>
							<ntsc>TRUE</ntsc>
						</rate>
						<duration>0</duration>
						<start>444</start>
						<end>444</end>
						<in>444</in>
						<out>444</out>
						<enabled>FALSE</enabled>
					</clipitem>
					<clipitem frameBlend="FALSE" id="clipitem-rejected-1124">
						<file id="file-1"/>
						<name>[REJECTED] bandicam 2025-06-02 00-01-10-144</name>
						<rate>
							<timebase>60</timebase>
							<ntsc>TRUE</ntsc>
						</rate>
						<rate>
							<timebase>60</timebase>
							<ntsc>TRUE</ntsc>
						</rate>
						<duration>0</duration>
						<start>498</start>
						<end>498</end>
						<in>498</in>
						<out>498</out>
						<enabled>FALSE</enabled>
					</clipitem>
					<clipitem frameBlend="FALSE" id="clipitem-rejected-1125">
						<file id="file-1"/>
						<name>[REJECTED] bandicam 2025-06-02 00-01-10-144</name>
						<rate>
							<timebase>60</timebase>
							<ntsc>TRUE</ntsc>
						</rate>
						<rate>
							<timebase>60</timebase>
							<ntsc>TRUE</ntsc>
						</rate>
						<duration>12</duration>
						<start>510</start>
						<end>522</end>
						<in>510</in>
						<out>522</out>
						<enabled>FALSE</enabled>
					</clipitem>
					<clipitem frameBlend="FALSE" id="clipitem-rejected-1126">
						<file id="file-1"/>
						<name>[REJECTED] bandicam 2025-06-02 00-01-10-144</name>
						<rate>
							<timebase>60</timebase>
							<ntsc>TRUE</ntsc>
						</rate>
						<rate>
							<timebase>60</timebase>
							<ntsc>TRUE</ntsc>
						</rate>
						<duration>24</duration>
						<start>552</start>
						<end>576</end>
						<in>552</in>
						<out>576</out>
						<enabled>FALSE</enabled>
					</clipitem>
					<clipitem frameBlend="FALSE" id="clipitem-rejected-1127">
						<file id="file-1"/>
						<name>[REJECTED] bandicam 2025-06-02 00-01-10-144</name>
						<rate>
							<timebase>60</timebase>
							<ntsc>TRUE</ntsc>
						</rate>
						<rate>
							<timebase>60</timebase>
							<ntsc>TRUE</ntsc>
						</rate>
						<duration>6</duration>
						<start>612</start>
						<end>618</end>
						<in>612</in>
						<out>618</out>
						<enabled>FALSE</enabled>
					</clipitem>
					<clipitem frameBlend="FALSE" id="clipitem-rejected-1128">
						<file id="file-1"/>
						<name>[REJECTED] bandicam 2025-06-02 00-01-10-144</name>
						<rate>
							<timebase>60</timebase>
							<ntsc>TRUE</ntsc>
						</rate>
						<rate>
							<timebase>60</timebase>
							<ntsc>TRUE</ntsc>
						</rate>
						<duration>198</duration>
						<start>648</start>
						<end>846</end>
						<in>648</in>
						<out>846</out>
						<enabled>FALSE</enabled>
					</clipitem>
					<clipitem frameBlend="FALSE" id="clipitem-rejected-1129">
						<file id="file-1"/>
						<name>[REJECTED] bandicam 2025-06-02 00-01-10-144</name>
						<rate>
							<timebase>60</timebase>
							<ntsc>TRUE</ntsc>
						</rate>
						<rate>
							<timebase>60</timebase>
							<ntsc>TRUE</ntsc>
						</rate>
						<duration>48</duration>
						<start>858</start>
						<end>906</end>
						<in>858</in>
						<out>906</out>
						<enabled>FALSE</enabled>
					</clipitem>
					<clipitem frameBlend="FALSE" id="clipitem-rejected-1130">
						<file id="file-1"/>
						<name>[REJECTED] bandicam 2025-06-02 00-01-10-144</name>
						<rate>
							<timebase>60</timebase>
							<ntsc>TRUE</ntsc>
						</rate>
						<rate>
							<timebase>60</timebase>
							<ntsc>TRUE</ntsc>
						</rate>
						<duration>12</duration>
						<start>918</start>
						<end>930</end>
						<in>918</in>
						<out>930</out>
						<enabled>FALSE</enabled>
					</clipitem>
					<clipitem frameBlend="FALSE" id="clipitem-rejected-1131">
						<file id="file-1"/>
						<name>[REJECTED] bandicam 2025-06-02 00-01-10-144</name>
						<rate>
							<timebase>60</timebase>
							<ntsc>TRUE</ntsc>
						</rate>
						<rate>
							<timebase>60</timebase>
							<ntsc>TRUE</ntsc>
						</rate>
						<duration>6</duration>
						<start>942</start>
						<end>948</end>
						<in>942</in>
						<out>948</out>
						<enabled>FALSE</enabled>
					</clipitem>
					<clipitem frameBlend="FALSE" id="clipitem-rejected-1132">
						<file id="file-1"/>
						<name>[REJECTED] bandicam 2025-06-02 00-01-10-144</name>
						<rate>
							<timebase>60</timebase>
							<ntsc>TRUE</ntsc>
						</rate>
						<rate>
							<timebase>60</timebase>
							<ntsc>TRUE</ntsc>
						</rate>
						<duration>18</duration>
						<start>960</start>
						<end>978</end>
						<in>960</in>
						<out>978</out>
						<enabled>FALSE</enabled>
					</clipitem>
					<clipitem frameBlend="FALSE" id="clipitem-rejected-1133">
						<file id="file-1"/>
						<name>[REJECTED] bandicam 2025-06-02 00-01-10-144</name>
						<rate>
							<timebase>60</timebase>
							<ntsc>TRUE</ntsc>
						</rate>
						<rate>
							<timebase>60</timebase>
							<ntsc>TRUE</ntsc>
						</rate>
						<duration>78</duration>
						<start>1002</start>
						<end>1080</end>
						<in>1002</in>
						<out>1080</out>
						<enabled>FALSE</enabled>
					</clipitem>
					<clipitem frameBlend="FALSE" id="clipitem-rejected-1134">
						<file id="file-1"/>
						<name>[REJECTED] bandicam 2025-06-02 00-01-10-144</name>
						<rate>
							<timebase>60</timebase>
							<ntsc>TRUE</ntsc>
						</rate>
						<rate>
							<timebase>60</timebase>
							<ntsc>TRUE</ntsc>
						</rate>
						<duration>78</duration>
						<start>1104</start>
						<end>1182</end>
						<in>1104</in>
						<out>1182</out>
						<enabled>FALSE</enabled>
					</clipitem>
					<clipitem frameBlend="FALSE" id="clipitem-rejected-1135">
						<file id="file-1"/>
						<name>[REJECTED] bandicam 2025-06-02 00-01-10-144</name>
						<rate>
							<timebase>60</timebase>
							<ntsc>TRUE</ntsc>
						</rate>
						<rate>
							<timebase>60</timebase>
							<ntsc>TRUE</ntsc>
						</rate>
						<duration>0</duration>
						<start>1200</start>
						<end>1200</end>
						<in>1200</in>
						<out>1200</out>
						<enabled>FALSE</enabled>
					</clipitem>
					<clipitem frameBlend="FALSE" id="clipitem-rejected-1136">
						<file id="file-1"/>
						<name>[REJECTED] bandicam 2025-06-02 00-01-10-144</name>
						<rate>
							<timebase>60</timebase>
							<ntsc>TRUE</ntsc>
						</rate>
						<rate>
							<timebase>60</timebase>
							<ntsc>TRUE</ntsc>
						</rate>
						<duration>78</duration>
						<start>1236</start>
						<end>1314</end>
						<in>1236</in>
						<out>1314</out>
						<enabled>FALSE</enabled>
					</clipitem>
					<clipitem frameBlend="FALSE" id="clipitem-rejected-1137">
						<file id="file-1"/>
						<name>[REJECTED] bandicam 2025-06-02 00-01-10-144</name>
						<rate>
							<timebase>60</timebase>
							<ntsc>TRUE</ntsc>
						</rate>
						<rate>
							<timebase>60</timebase>
							<ntsc>TRUE</ntsc>
						</rate>
						<duration>42</duration>
						<start>1326</start>
						<end>1368</end>
						<in>1326</in>
						<out>1368</out>
						<enabled>FALSE</enabled>
					</clipitem>
					<clipitem frameBlend="FALSE" id="clipitem-rejected-1138">
						<file id="file-1"/>
						<name>[REJECTED] bandicam 2025-06-02 00-01-10-144</name>
						<rate>
							<timebase>60</timebase>
							<ntsc>TRUE</ntsc>
						</rate>
						<rate>
							<timebase>60</timebase>
							<ntsc>TRUE</ntsc>
						</rate>
						<duration>12</duration>
						<start>1428</start>
						<end>1440</end>
						<in>1428</in>
						<out>1440</out>
						<enabled>FALSE</enabled>
					</clipitem>
					<clipitem frameBlend="FALSE" id="clipitem-rejected-1139">
						<file id="file-1"/>
						<name>[REJECTED] bandicam 2025-06-02 00-01-10-144</name>
						<rate>
							<timebase>60</timebase>
							<ntsc>TRUE</ntsc>
						</rate>
						<rate>
							<timebase>60</timebase>
							<ntsc>TRUE</ntsc>
						</rate>
						<duration>60</duration>
						<start>1470</start>
						<end>1530</end>
						<in>1470</in>
						<out>1530</out>
						<enabled>FALSE</enabled>
					</clipitem>
					<clipitem frameBlend="FALSE" id="clipitem-rejected-1140">
						<file id="file-1"/>
						<name>[REJECTED] bandicam 2025-06-02 00-01-10-144</name>
						<rate>
							<timebase>60</timebase>
							<ntsc>TRUE</ntsc>
						</rate>
						<rate>
							<timebase>60</timebase>
							<ntsc>TRUE</ntsc>
						</rate>
						<duration>18</duration>
						<start>1542</start>
						<end>1560</end>
						<in>1542</in>
						<out>1560</out>
						<enabled>FALSE</enabled>
					</clipitem>
					<clipitem frameBlend="FALSE" id="clipitem-rejected-1141">
						<file id="file-1"/>
						<name>[REJECTED] bandicam 2025-06-02 00-01-10-144</name>
						<rate>
							<timebase>60</timebase>
							<ntsc>TRUE</ntsc>
						</rate>
						<rate>
							<timebase>60</timebase>
							<ntsc>TRUE</ntsc>
						</rate>
						<duration>96</duration>
						<start>1590</start>
						<end>1686</end>
						<in>1590</in>
						<out>1686</out>
						<enabled>FALSE</enabled>
					</clipitem>
					<clipitem frameBlend="FALSE" id="clipitem-rejected-1142">
						<file id="file-1"/>
						<name>[REJECTED] bandicam 2025-06-02 00-01-10-144</name>
						<rate>
							<timebase>60</timebase>
							<ntsc>TRUE</ntsc>
						</rate>
						<rate>
							<timebase>60</timebase>
							<ntsc>TRUE</ntsc>
						</rate>
						<duration>0</duration>
						<start>1740</start>
						<end>1740</end>
						<in>1740</in>
						<out>1740</out>
						<enabled>FALSE</enabled>
					</clipitem>
					<clipitem frameBlend="FALSE" id="clipitem-rejected-1143">
						<file id="file-1"/>
						<name>[REJECTED] bandicam 2025-06-02 00-01-10-144</name>
						<rate>
							<timebase>60</timebase>
							<ntsc>TRUE</ntsc>
						</rate>
						<rate>
							<timebase>60</timebase>
							<ntsc>TRUE</ntsc>
						</rate>
						<duration>6</duration>
						<start>1788</start>
						<end>1794</end>
						<in>1788</in>
						<out>1794</out>
						<enabled>FALSE</enabled>
					</clipitem>
					<clipitem frameBlend="FALSE" id="clipitem-rejected-1144">
						<file id="file-1"/>
						<name>[REJECTED] bandicam 2025-06-02 00-01-10-144</name>
						<rate>
							<timebase>60</timebase>
							<ntsc>TRUE</ntsc>
						</rate>
						<rate>
							<timebase>60</timebase>
							<ntsc>TRUE</ntsc>
						</rate>
						<duration>0</duration>
						<start>1836</start>
						<end>1836</end>
						<in>1836</in>
						<out>1836</out>
						<enabled>FALSE</enabled>
					</clipitem>
					<clipitem frameBlend="FALSE" id="clipitem-rejected-1145">
						<file id="file-1"/>
						<name>[REJECTED] bandicam 2025-06-02 00-01-10-144</name>
						<rate>
							<timebase>60</timebase>
							<ntsc>TRUE</ntsc>
						</rate>
						<rate>
							<timebase>60</timebase>
							<ntsc>TRUE</ntsc>
						</rate>
						<duration>0</duration>
						<start>1878</start>
						<end>1878</end>
						<in>1878</in>
						<out>1878</out>
						<enabled>FALSE</enabled>
					</clipitem>
					<clipitem frameBlend="FALSE" id="clipitem-rejected-1146">
						<file id="file-1"/>
						<name>[REJECTED] bandicam 2025-06-02 00-01-10-144</name>
						<rate>
							<timebase>60</timebase>
							<ntsc>TRUE</ntsc>
						</rate>
						<rate>
							<timebase>60</timebase>
							<ntsc>TRUE</ntsc>
						</rate>
						<duration>18</duration>
						<start>1902</start>
						<end>1920</end>
						<in>1902</in>
						<out>1920</out>
						<enabled>FALSE</enabled>
					</clipitem>
					<clipitem frameBlend="FALSE" id="clipitem-rejected-1147">
						<file id="file-1"/>
						<name>[REJECTED] bandicam 2025-06-02 00-01-10-144</name>
						<rate>
							<timebase>60</timebase>
							<ntsc>TRUE</ntsc>
						</rate>
						<rate>
							<timebase>60</timebase>
							<ntsc>TRUE</ntsc>
						</rate>
						<duration>216</duration>
						<start>1956</start>
						<end>2172</end>
						<in>1956</in>
						<out>2172</out>
						<enabled>FALSE</enabled>
					</clipitem>
					<clipitem frameBlend="FALSE" id="clipitem-rejected-1148">
						<file id="file-1"/>
						<name>[REJECTED] bandicam 2025-06-02 00-01-10-144</name>
						<rate>
							<timebase>60</timebase>
							<ntsc>TRUE</ntsc>
						</rate>
						<rate>
							<timebase>60</timebase>
							<ntsc>TRUE</ntsc>
						</rate>
						<duration>72</duration>
						<start>2202</start>
						<end>2274</end>
						<in>2202</in>
						<out>2274</out>
						<enabled>FALSE</enabled>
					</clipitem>
					<clipitem frameBlend="FALSE" id="clipitem-rejected-1149">
						<file id="file-1"/>
						<name>[REJECTED] bandicam 2025-06-02 00-01-10-144</name>
						<rate>
							<timebase>60</timebase>
							<ntsc>TRUE</ntsc>
						</rate>
						<rate>
							<timebase>60</timebase>
							<ntsc>TRUE</ntsc>
						</rate>
						<duration>78</duration>
						<start>2364</start>
						<end>2442</end>
						<in>2364</in>
						<out>2442</out>
						<enabled>FALSE</enabled>
					</clipitem>
					<clipitem frameBlend="FALSE" id="clipitem-rejected-1150">
						<file id="file-1"/>
						<name>[REJECTED] bandicam 2025-06-02 00-01-10-144</name>
						<rate>
							<timebase>60</timebase>
							<ntsc>TRUE</ntsc>
						</rate>
						<rate>
							<timebase>60</timebase>
							<ntsc>TRUE</ntsc>
						</rate>
						<duration>6</duration>
						<start>2466</start>
						<end>2472</end>
						<in>2466</in>
						<out>2472</out>
						<enabled>FALSE</enabled>
					</clipitem>
					<clipitem frameBlend="FALSE" id="clipitem-rejected-1151">
						<file id="file-1"/>
						<name>[REJECTED] bandicam 2025-06-02 00-01-10-144</name>
						<rate>
							<timebase>60</timebase>
							<ntsc>TRUE</ntsc>
						</rate>
						<rate>
							<timebase>60</timebase>
							<ntsc>TRUE</ntsc>
						</rate>
						<duration>0</duration>
						<start>2490</start>
						<end>2490</end>
						<in>2490</in>
						<out>2490</out>
						<enabled>FALSE</enabled>
					</clipitem>
					<clipitem frameBlend="FALSE" id="clipitem-rejected-1152">
						<file id="file-1"/>
						<name>[REJECTED] bandicam 2025-06-02 00-01-10-144</name>
						<rate>
							<timebase>60</timebase>
							<ntsc>TRUE</ntsc>
						</rate>
						<rate>
							<timebase>60</timebase>
							<ntsc>TRUE</ntsc>
						</rate>
						<duration>24</duration>
						<start>2508</start>
						<end>2532</end>
						<in>2508</in>
						<out>2532</out>
						<enabled>FALSE</enabled>
					</clipitem>
					<clipitem frameBlend="FALSE" id="clipitem-rejected-1153">
						<file id="file-1"/>
						<name>[REJECTED] bandicam 2025-06-02 00-01-10-144</name>
						<rate>
							<timebase>60</timebase>
							<ntsc>TRUE</ntsc>
						</rate>
						<rate>
							<timebase>60</timebase>
							<ntsc>TRUE</ntsc>
						</rate>
						<duration>12</duration>
						<start>2574</start>
						<end>2586</end>
						<in>2574</in>
						<out>2586</out>
						<enabled>FALSE</enabled>
					</clipitem>
					<clipitem frameBlend="FALSE" id="clipitem-rejected-1154">
						<file id="file-1"/>
						<name>[REJECTED] bandicam 2025-06-02 00-01-10-144</name>
						<rate>
							<timebase>60</timebase>
							<ntsc>TRUE</ntsc>
						</rate>
						<rate>
							<timebase>60</timebase>
							<ntsc>TRUE</ntsc>
						</rate>
						<duration>0</duration>
						<start>2634</start>
						<end>2634</end>
						<in>2634</in>
						<out>2634</out>
						<enabled>FALSE</enabled>
					</clipitem>
					<clipitem frameBlend="FALSE" id="clipitem-rejected-1155">
						<file id="file-1"/>
						<name>[REJECTED] bandicam 2025-06-02 00-01-10-144</name>
						<rate>
							<timebase>60</timebase>
							<ntsc>TRUE</ntsc>
						</rate>
						<rate>
							<timebase>60</timebase>
							<ntsc>TRUE</ntsc>
						</rate>
						<duration>36</duration>
						<start>2682</start>
						<end>2718</end>
						<in>2682</in>
						<out>2718</out>
						<enabled>FALSE</enabled>
					</clipitem>
					<clipitem frameBlend="FALSE" id="clipitem-rejected-1156">
						<file id="file-1"/>
						<name>[REJECTED] bandicam 2025-06-02 00-01-10-144</name>
						<rate>
							<timebase>60</timebase>
							<ntsc>TRUE</ntsc>
						</rate>
						<rate>
							<timebase>60</timebase>
							<ntsc>TRUE</ntsc>
						</rate>
						<duration>6</duration>
						<start>2856</start>
						<end>2862</end>
						<in>2856</in>
						<out>2862</out>
						<enabled>FALSE</enabled>
					</clipitem>
					<clipitem frameBlend="FALSE" id="clipitem-rejected-1157">
						<file id="file-1"/>
						<name>[REJECTED] bandicam 2025-06-02 00-01-10-144</name>
						<rate>
							<timebase>60</timebase>
							<ntsc>TRUE</ntsc>
						</rate>
						<rate>
							<timebase>60</timebase>
							<ntsc>TRUE</ntsc>
						</rate>
						<duration>0</duration>
						<start>2898</start>
						<end>2898</end>
						<in>2898</in>
						<out>2898</out>
						<enabled>FALSE</enabled>
					</clipitem>
					<clipitem frameBlend="FALSE" id="clipitem-rejected-1158">
						<file id="file-1"/>
						<name>[REJECTED] bandicam 2025-06-02 00-01-10-144</name>
						<rate>
							<timebase>60</timebase>
							<ntsc>TRUE</ntsc>
						</rate>
						<rate>
							<timebase>60</timebase>
							<ntsc>TRUE</ntsc>
						</rate>
						<duration>24</duration>
						<start>2916</start>
						<end>2940</end>
						<in>2916</in>
						<out>2940</out>
						<enabled>FALSE</enabled>
					</clipitem>
					<clipitem frameBlend="FALSE" id="clipitem-rejected-1159">
						<file id="file-1"/>
						<name>[REJECTED] bandicam 2025-06-02 00-01-10-144</name>
						<rate>
							<timebase>60</timebase>
							<ntsc>TRUE</ntsc>
						</rate>
						<rate>
							<timebase>60</timebase>
							<ntsc>TRUE</ntsc>
						</rate>
						<duration>6</duration>
						<start>2952</start>
						<end>2958</end>
						<in>2952</in>
						<out>2958</out>
						<enabled>FALSE</enabled>
					</clipitem>
					<clipitem frameBlend="FALSE" id="clipitem-rejected-1160">
						<file id="file-1"/>
						<name>[REJECTED] bandicam 2025-06-02 00-01-10-144</name>
						<rate>
							<timebase>60</timebase>
							<ntsc>TRUE</ntsc>
						</rate>
						<rate>
							<timebase>60</timebase>
							<ntsc>TRUE</ntsc>
						</rate>
						<duration>60</duration>
						<start>2994</start>
						<end>3054</end>
						<in>2994</in>
						<out>3054</out>
						<enabled>FALSE</enabled>
					</clipitem>
					<clipitem frameBlend="FALSE" id="clipitem-rejected-1161">
						<file id="file-1"/>
						<name>[REJECTED] bandicam 2025-06-02 00-01-10-144</name>
						<rate>
							<timebase>60</timebase>
							<ntsc>TRUE</ntsc>
						</rate>
						<rate>
							<timebase>60</timebase>
							<ntsc>TRUE</ntsc>
						</rate>
						<duration>6</duration>
						<start>3108</start>
						<end>3114</end>
						<in>3108</in>
						<out>3114</out>
						<enabled>FALSE</enabled>
					</clipitem>
					<clipitem frameBlend="FALSE" id="clipitem-rejected-1162">
						<file id="file-1"/>
						<name>[REJECTED] bandicam 2025-06-02 00-01-10-144</name>
						<rate>
							<timebase>60</timebase>
							<ntsc>TRUE</ntsc>
						</rate>
						<rate>
							<timebase>60</timebase>
							<ntsc>TRUE</ntsc>
						</rate>
						<duration>72</duration>
						<start>3150</start>
						<end>3222</end>
						<in>3150</in>
						<out>3222</out>
						<enabled>FALSE</enabled>
					</clipitem>
					<clipitem frameBlend="FALSE" id="clipitem-rejected-1163">
						<file id="file-1"/>
						<name>[REJECTED] bandicam 2025-06-02 00-01-10-144</name>
						<rate>
							<timebase>60</timebase>
							<ntsc>TRUE</ntsc>
						</rate>
						<rate>
							<timebase>60</timebase>
							<ntsc>TRUE</ntsc>
						</rate>
						<duration>6</duration>
						<start>3258</start>
						<end>3264</end>
						<in>3258</in>
						<out>3264</out>
						<enabled>FALSE</enabled>
					</clipitem>
					<clipitem frameBlend="FALSE" id="clipitem-rejected-1164">
						<file id="file-1"/>
						<name>[REJECTED] bandicam 2025-06-02 00-01-10-144</name>
						<rate>
							<timebase>60</timebase>
							<ntsc>TRUE</ntsc>
						</rate>
						<rate>
							<timebase>60</timebase>
							<ntsc>TRUE</ntsc>
						</rate>
						<duration>54</duration>
						<start>3312</start>
						<end>3366</end>
						<in>3312</in>
						<out>3366</out>
						<enabled>FALSE</enabled>
					</clipitem>
					<clipitem frameBlend="FALSE" id="clipitem-rejected-1165">
						<file id="file-1"/>
						<name>[REJECTED] bandicam 2025-06-02 00-01-10-144</name>
						<rate>
							<timebase>60</timebase>
							<ntsc>TRUE</ntsc>
						</rate>
						<rate>
							<timebase>60</timebase>
							<ntsc>TRUE</ntsc>
						</rate>
						<duration>48</duration>
						<start>3396</start>
						<end>3444</end>
						<in>3396</in>
						<out>3444</out>
						<enabled>FALSE</enabled>
					</clipitem>
					<clipitem frameBlend="FALSE" id="clipitem-rejected-1166">
						<file id="file-1"/>
						<name>[REJECTED] bandicam 2025-06-02 00-01-10-144</name>
						<rate>
							<timebase>60</timebase>
							<ntsc>TRUE</ntsc>
						</rate>
						<rate>
							<timebase>60</timebase>
							<ntsc>TRUE</ntsc>
						</rate>
						<duration>12</duration>
						<start>3480</start>
						<end>3492</end>
						<in>3480</in>
						<out>3492</out>
						<enabled>FALSE</enabled>
					</clipitem>
					<clipitem frameBlend="FALSE" id="clipitem-rejected-1167">
						<file id="file-1"/>
						<name>[REJECTED] bandicam 2025-06-02 00-01-10-144</name>
						<rate>
							<timebase>60</timebase>
							<ntsc>TRUE</ntsc>
						</rate>
						<rate>
							<timebase>60</timebase>
							<ntsc>TRUE</ntsc>
						</rate>
						<duration>48</duration>
						<start>3528</start>
						<end>3576</end>
						<in>3528</in>
						<out>3576</out>
						<enabled>FALSE</enabled>
					</clipitem>
					<clipitem frameBlend="FALSE" id="clipitem-rejected-1168">
						<file id="file-1"/>
						<name>[REJECTED] bandicam 2025-06-02 00-01-10-144</name>
						<rate>
							<timebase>60</timebase>
							<ntsc>TRUE</ntsc>
						</rate>
						<rate>
							<timebase>60</timebase>
							<ntsc>TRUE</ntsc>
						</rate>
						<duration>30</duration>
						<start>3588</start>
						<end>3618</end>
						<in>3588</in>
						<out>3618</out>
						<enabled>FALSE</enabled>
					</clipitem>
					<clipitem frameBlend="FALSE" id="clipitem-rejected-1169">
						<file id="file-1"/>
						<name>[REJECTED] bandicam 2025-06-02 00-01-10-144</name>
						<rate>
							<timebase>60</timebase>
							<ntsc>TRUE</ntsc>
						</rate>
						<rate>
							<timebase>60</timebase>
							<ntsc>TRUE</ntsc>
						</rate>
						<duration>42</duration>
						<start>3648</start>
						<end>3690</end>
						<in>3648</in>
						<out>3690</out>
						<enabled>FALSE</enabled>
					</clipitem>
					<clipitem frameBlend="FALSE" id="clipitem-rejected-1170">
						<file id="file-1"/>
						<name>[REJECTED] bandicam 2025-06-02 00-01-10-144</name>
						<rate>
							<timebase>60</timebase>
							<ntsc>TRUE</ntsc>
						</rate>
						<rate>
							<timebase>60</timebase>
							<ntsc>TRUE</ntsc>
						</rate>
						<duration>60</duration>
						<start>3702</start>
						<end>3762</end>
						<in>3702</in>
						<out>3762</out>
						<enabled>FALSE</enabled>
					</clipitem>
					<clipitem frameBlend="FALSE" id="clipitem-rejected-1171">
						<file id="file-1"/>
						<name>[REJECTED] bandicam 2025-06-02 00-01-10-144</name>
						<rate>
							<timebase>60</timebase>
							<ntsc>TRUE</ntsc>
						</rate>
						<rate>
							<timebase>60</timebase>
							<ntsc>TRUE</ntsc>
						</rate>
						<duration>60</duration>
						<start>3786</start>
						<end>3846</end>
						<in>3786</in>
						<out>3846</out>
						<enabled>FALSE</enabled>
					</clipitem>
					<clipitem frameBlend="FALSE" id="clipitem-rejected-1172">
						<file id="file-1"/>
						<name>[REJECTED] bandicam 2025-06-02 00-01-10-144</name>
						<rate>
							<timebase>60</timebase>
							<ntsc>TRUE</ntsc>
						</rate>
						<rate>
							<timebase>60</timebase>
							<ntsc>TRUE</ntsc>
						</rate>
						<duration>24</duration>
						<start>3876</start>
						<end>3900</end>
						<in>3876</in>
						<out>3900</out>
						<enabled>FALSE</enabled>
					</clipitem>
					<clipitem frameBlend="FALSE" id="clipitem-rejected-1173">
						<file id="file-1"/>
						<name>[REJECTED] bandicam 2025-06-02 00-01-10-144</name>
						<rate>
							<timebase>60</timebase>
							<ntsc>TRUE</ntsc>
						</rate>
						<rate>
							<timebase>60</timebase>
							<ntsc>TRUE</ntsc>
						</rate>
						<duration>84</duration>
						<start>3936</start>
						<end>4020</end>
						<in>3936</in>
						<out>4020</out>
						<enabled>FALSE</enabled>
					</clipitem>
					<clipitem frameBlend="FALSE" id="clipitem-rejected-1174">
						<file id="file-1"/>
						<name>[REJECTED] bandicam 2025-06-02 00-01-10-144</name>
						<rate>
							<timebase>60</timebase>
							<ntsc>TRUE</ntsc>
						</rate>
						<rate>
							<timebase>60</timebase>
							<ntsc>TRUE</ntsc>
						</rate>
						<duration>0</duration>
						<start>4038</start>
						<end>4038</end>
						<in>4038</in>
						<out>4038</out>
						<enabled>FALSE</enabled>
					</clipitem>
					<clipitem frameBlend="FALSE" id="clipitem-rejected-1175">
						<file id="file-1"/>
						<name>[REJECTED] bandicam 2025-06-02 00-01-10-144</name>
						<rate>
							<timebase>60</timebase>
							<ntsc>TRUE</ntsc>
						</rate>
						<rate>
							<timebase>60</timebase>
							<ntsc>TRUE</ntsc>
						</rate>
						<duration>30</duration>
						<start>4050</start>
						<end>4080</end>
						<in>4050</in>
						<out>4080</out>
						<enabled>FALSE</enabled>
					</clipitem>
					<clipitem frameBlend="FALSE" id="clipitem-rejected-1176">
						<file id="file-1"/>
						<name>[REJECTED] bandicam 2025-06-02 00-01-10-144</name>
						<rate>
							<timebase>60</timebase>
							<ntsc>TRUE</ntsc>
						</rate>
						<rate>
							<timebase>60</timebase>
							<ntsc>TRUE</ntsc>
						</rate>
						<duration>18</duration>
						<start>4164</start>
						<end>4182</end>
						<in>4164</in>
						<out>4182</out>
						<enabled>FALSE</enabled>
					</clipitem>
					<clipitem frameBlend="FALSE" id="clipitem-rejected-1177">
						<file id="file-1"/>
						<name>[REJECTED] bandicam 2025-06-02 00-01-10-144</name>
						<rate>
							<timebase>60</timebase>
							<ntsc>TRUE</ntsc>
						</rate>
						<rate>
							<timebase>60</timebase>
							<ntsc>TRUE</ntsc>
						</rate>
						<duration>18</duration>
						<start>4206</start>
						<end>4224</end>
						<in>4206</in>
						<out>4224</out>
						<enabled>FALSE</enabled>
					</clipitem>
					<clipitem frameBlend="FALSE" id="clipitem-rejected-1178">
						<file id="file-1"/>
						<name>[REJECTED] bandicam 2025-06-02 00-01-10-144</name>
						<rate>
							<timebase>60</timebase>
							<ntsc>TRUE</ntsc>
						</rate>
						<rate>
							<timebase>60</timebase>
							<ntsc>TRUE</ntsc>
						</rate>
						<duration>18</duration>
						<start>4278</start>
						<end>4296</end>
						<in>4278</in>
						<out>4296</out>
						<enabled>FALSE</enabled>
					</clipitem>
					<clipitem frameBlend="FALSE" id="clipitem-rejected-1179">
						<file id="file-1"/>
						<name>[REJECTED] bandicam 2025-06-02 00-01-10-144</name>
						<rate>
							<timebase>60</timebase>
							<ntsc>TRUE</ntsc>
						</rate>
						<rate>
							<timebase>60</timebase>
							<ntsc>TRUE</ntsc>
						</rate>
						<duration>24</duration>
						<start>4440</start>
						<end>4464</end>
						<in>4440</in>
						<out>4464</out>
						<enabled>FALSE</enabled>
					</clipitem>
					<clipitem frameBlend="FALSE" id="clipitem-rejected-1180">
						<file id="file-1"/>
						<name>[REJECTED] bandicam 2025-06-02 00-01-10-144</name>
						<rate>
							<timebase>60</timebase>
							<ntsc>TRUE</ntsc>
						</rate>
						<rate>
							<timebase>60</timebase>
							<ntsc>TRUE</ntsc>
						</rate>
						<duration>12</duration>
						<start>4488</start>
						<end>4500</end>
						<in>4488</in>
						<out>4500</out>
						<enabled>FALSE</enabled>
					</clipitem>
					<clipitem frameBlend="FALSE" id="clipitem-rejected-1181">
						<file id="file-1"/>
						<name>[REJECTED] bandicam 2025-06-02 00-01-10-144</name>
						<rate>
							<timebase>60</timebase>
							<ntsc>TRUE</ntsc>
						</rate>
						<rate>
							<timebase>60</timebase>
							<ntsc>TRUE</ntsc>
						</rate>
						<duration>36</duration>
						<start>4560</start>
						<end>4596</end>
						<in>4560</in>
						<out>4596</out>
						<enabled>FALSE</enabled>
					</clipitem>
					<clipitem frameBlend="FALSE" id="clipitem-rejected-1182">
						<file id="file-1"/>
						<name>[REJECTED] bandicam 2025-06-02 00-01-10-144</name>
						<rate>
							<timebase>60</timebase>
							<ntsc>TRUE</ntsc>
						</rate>
						<rate>
							<timebase>60</timebase>
							<ntsc>TRUE</ntsc>
						</rate>
						<duration>6</duration>
						<start>4638</start>
						<end>4644</end>
						<in>4638</in>
						<out>4644</out>
						<enabled>FALSE</enabled>
					</clipitem>
					<clipitem frameBlend="FALSE" id="clipitem-rejected-1183">
						<file id="file-1"/>
						<name>[REJECTED] bandicam 2025-06-02 00-01-10-144</name>
						<rate>
							<timebase>60</timebase>
							<ntsc>TRUE</ntsc>
						</rate>
						<rate>
							<timebase>60</timebase>
							<ntsc>TRUE</ntsc>
						</rate>
						<duration>24</duration>
						<start>4674</start>
						<end>4698</end>
						<in>4674</in>
						<out>4698</out>
						<enabled>FALSE</enabled>
					</clipitem>
					<clipitem frameBlend="FALSE" id="clipitem-rejected-1184">
						<file id="file-1"/>
						<name>[REJECTED] bandicam 2025-06-02 00-01-10-144</name>
						<rate>
							<timebase>60</timebase>
							<ntsc>TRUE</ntsc>
						</rate>
						<rate>
							<timebase>60</timebase>
							<ntsc>TRUE</ntsc>
						</rate>
						<duration>6</duration>
						<start>4710</start>
						<end>4716</end>
						<in>4710</in>
						<out>4716</out>
						<enabled>FALSE</enabled>
					</clipitem>
					<clipitem frameBlend="FALSE" id="clipitem-rejected-1185">
						<file id="file-1"/>
						<name>[REJECTED] bandicam 2025-06-02 00-01-10-144</name>
						<rate>
							<timebase>60</timebase>
							<ntsc>TRUE</ntsc>
						</rate>
						<rate>
							<timebase>60</timebase>
							<ntsc>TRUE</ntsc>
						</rate>
						<duration>6</duration>
						<start>4776</start>
						<end>4782</end>
						<in>4776</in>
						<out>4782</out>
						<enabled>FALSE</enabled>
					</clipitem>
					<clipitem frameBlend="FALSE" id="clipitem-rejected-1186">
						<file id="file-1"/>
						<name>[REJECTED] bandicam 2025-06-02 00-01-10-144</name>
						<rate>
							<timebase>60</timebase>
							<ntsc>TRUE</ntsc>
						</rate>
						<rate>
							<timebase>60</timebase>
							<ntsc>TRUE</ntsc>
						</rate>
						<duration>30</duration>
						<start>4812</start>
						<end>4842</end>
						<in>4812</in>
						<out>4842</out>
						<enabled>FALSE</enabled>
					</clipitem>
					<clipitem frameBlend="FALSE" id="clipitem-rejected-1187">
						<file id="file-1"/>
						<name>[REJECTED] bandicam 2025-06-02 00-01-10-144</name>
						<rate>
							<timebase>60</timebase>
							<ntsc>TRUE</ntsc>
						</rate>
						<rate>
							<timebase>60</timebase>
							<ntsc>TRUE</ntsc>
						</rate>
						<duration>0</duration>
						<start>4854</start>
						<end>4854</end>
						<in>4854</in>
						<out>4854</out>
						<enabled>FALSE</enabled>
					</clipitem>
					<clipitem frameBlend="FALSE" id="clipitem-rejected-1188">
						<file id="file-1"/>
						<name>[REJECTED] bandicam 2025-06-02 00-01-10-144</name>
						<rate>
							<timebase>60</timebase>
							<ntsc>TRUE</ntsc>
						</rate>
						<rate>
							<timebase>60</timebase>
							<ntsc>TRUE</ntsc>
						</rate>
						<duration>6</duration>
						<start>4878</start>
						<end>4884</end>
						<in>4878</in>
						<out>4884</out>
						<enabled>FALSE</enabled>
					</clipitem>
					<clipitem frameBlend="FALSE" id="clipitem-rejected-1189">
						<file id="file-1"/>
						<name>[REJECTED] bandicam 2025-06-02 00-01-10-144</name>
						<rate>
							<timebase>60</timebase>
							<ntsc>TRUE</ntsc>
						</rate>
						<rate>
							<timebase>60</timebase>
							<ntsc>TRUE</ntsc>
						</rate>
						<duration>0</duration>
						<start>4902</start>
						<end>4902</end>
						<in>4902</in>
						<out>4902</out>
						<enabled>FALSE</enabled>
					</clipitem>
					<clipitem frameBlend="FALSE" id="clipitem-rejected-1190">
						<file id="file-1"/>
						<name>[REJECTED] bandicam 2025-06-02 00-01-10-144</name>
						<rate>
							<timebase>60</timebase>
							<ntsc>TRUE</ntsc>
						</rate>
						<rate>
							<timebase>60</timebase>
							<ntsc>TRUE</ntsc>
						</rate>
						<duration>6</duration>
						<start>4932</start>
						<end>4938</end>
						<in>4932</in>
						<out>4938</out>
						<enabled>FALSE</enabled>
					</clipitem>
					<clipitem frameBlend="FALSE" id="clipitem-rejected-1191">
						<file id="file-1"/>
						<name>[REJECTED] bandicam 2025-06-02 00-01-10-144</name>
						<rate>
							<timebase>60</timebase>
							<ntsc>TRUE</ntsc>
						</rate>
						<rate>
							<timebase>60</timebase>
							<ntsc>TRUE</ntsc>
						</rate>
						<duration>36</duration>
						<start>4980</start>
						<end>5016</end>
						<in>4980</in>
						<out>5016</out>
						<enabled>FALSE</enabled>
					</clipitem>
					<clipitem frameBlend="FALSE" id="clipitem-rejected-1192">
						<file id="file-1"/>
						<name>[REJECTED] bandicam 2025-06-02 00-01-10-144</name>
						<rate>
							<timebase>60</timebase>
							<ntsc>TRUE</ntsc>
						</rate>
						<rate>
							<timebase>60</timebase>
							<ntsc>TRUE</ntsc>
						</rate>
						<duration>12</duration>
						<start>5046</start>
						<end>5058</end>
						<in>5046</in>
						<out>5058</out>
						<enabled>FALSE</enabled>
					</clipitem>
					<clipitem frameBlend="FALSE" id="clipitem-rejected-1193">
						<file id="file-1"/>
						<name>[REJECTED] bandicam 2025-06-02 00-01-10-144</name>
						<rate>
							<timebase>60</timebase>
							<ntsc>TRUE</ntsc>
						</rate>
						<rate>
							<timebase>60</timebase>
							<ntsc>TRUE</ntsc>
						</rate>
						<duration>0</duration>
						<start>5076</start>
						<end>5076</end>
						<in>5076</in>
						<out>5076</out>
						<enabled>FALSE</enabled>
					</clipitem>
					<clipitem frameBlend="FALSE" id="clipitem-rejected-1194">
						<file id="file-1"/>
						<name>[REJECTED] bandicam 2025-06-02 00-01-10-144</name>
						<rate>
							<timebase>60</timebase>
							<ntsc>TRUE</ntsc>
						</rate>
						<rate>
							<timebase>60</timebase>
							<ntsc>TRUE</ntsc>
						</rate>
						<duration>0</duration>
						<start>5088</start>
						<end>5088</end>
						<in>5088</in>
						<out>5088</out>
						<enabled>FALSE</enabled>
					</clipitem>
					<clipitem frameBlend="FALSE" id="clipitem-rejected-1195">
						<file id="file-1"/>
						<name>[REJECTED] bandicam 2025-06-02 00-01-10-144</name>
						<rate>
							<timebase>60</timebase>
							<ntsc>TRUE</ntsc>
						</rate>
						<rate>
							<timebase>60</timebase>
							<ntsc>TRUE</ntsc>
						</rate>
						<duration>42</duration>
						<start>5184</start>
						<end>5226</end>
						<in>5184</in>
						<out>5226</out>
						<enabled>FALSE</enabled>
					</clipitem>
					<clipitem frameBlend="FALSE" id="clipitem-rejected-1196">
						<file id="file-1"/>
						<name>[REJECTED] bandicam 2025-06-02 00-01-10-144</name>
						<rate>
							<timebase>60</timebase>
							<ntsc>TRUE</ntsc>
						</rate>
						<rate>
							<timebase>60</timebase>
							<ntsc>TRUE</ntsc>
						</rate>
						<duration>60</duration>
						<start>5262</start>
						<end>5322</end>
						<in>5262</in>
						<out>5322</out>
						<enabled>FALSE</enabled>
					</clipitem>
					<clipitem frameBlend="FALSE" id="clipitem-rejected-1197">
						<file id="file-1"/>
						<name>[REJECTED] bandicam 2025-06-02 00-01-10-144</name>
						<rate>
							<timebase>60</timebase>
							<ntsc>TRUE</ntsc>
						</rate>
						<rate>
							<timebase>60</timebase>
							<ntsc>TRUE</ntsc>
						</rate>
						<duration>0</duration>
						<start>5346</start>
						<end>5346</end>
						<in>5346</in>
						<out>5346</out>
						<enabled>FALSE</enabled>
					</clipitem>
					<clipitem frameBlend="FALSE" id="clipitem-rejected-1198">
						<file id="file-1"/>
						<name>[REJECTED] bandicam 2025-06-02 00-01-10-144</name>
						<rate>
							<timebase>60</timebase>
							<ntsc>TRUE</ntsc>
						</rate>
						<rate>
							<timebase>60</timebase>
							<ntsc>TRUE</ntsc>
						</rate>
						<duration>12</duration>
						<start>5364</start>
						<end>5376</end>
						<in>5364</in>
						<out>5376</out>
						<enabled>FALSE</enabled>
					</clipitem>
					<clipitem frameBlend="FALSE" id="clipitem-rejected-1199">
						<file id="file-1"/>
						<name>[REJECTED] bandicam 2025-06-02 00-01-10-144</name>
						<rate>
							<timebase>60</timebase>
							<ntsc>TRUE</ntsc>
						</rate>
						<rate>
							<timebase>60</timebase>
							<ntsc>TRUE</ntsc>
						</rate>
						<duration>0</duration>
						<start>5406</start>
						<end>5406</end>
						<in>5406</in>
						<out>5406</out>
						<enabled>FALSE</enabled>
					</clipitem>
					<clipitem frameBlend="FALSE" id="clipitem-rejected-1200">
						<file id="file-1"/>
						<name>[REJECTED] bandicam 2025-06-02 00-01-10-144</name>
						<rate>
							<timebase>60</timebase>
							<ntsc>TRUE</ntsc>
						</rate>
						<rate>
							<timebase>60</timebase>
							<ntsc>TRUE</ntsc>
						</rate>
						<duration>6</duration>
						<start>5454</start>
						<end>5460</end>
						<in>5454</in>
						<out>5460</out>
						<enabled>FALSE</enabled>
					</clipitem>
					<clipitem frameBlend="FALSE" id="clipitem-rejected-1201">
						<file id="file-1"/>
						<name>[REJECTED] bandicam 2025-06-02 00-01-10-144</name>
						<rate>
							<timebase>60</timebase>
							<ntsc>TRUE</ntsc>
						</rate>
						<rate>
							<timebase>60</timebase>
							<ntsc>TRUE</ntsc>
						</rate>
						<duration>12</duration>
						<start>5472</start>
						<end>5484</end>
						<in>5472</in>
						<out>5484</out>
						<enabled>FALSE</enabled>
					</clipitem>
					<clipitem frameBlend="FALSE" id="clipitem-rejected-1202">
						<file id="file-1"/>
						<name>[REJECTED] bandicam 2025-06-02 00-01-10-144</name>
						<rate>
							<timebase>60</timebase>
							<ntsc>TRUE</ntsc>
						</rate>
						<rate>
							<timebase>60</timebase>
							<ntsc>TRUE</ntsc>
						</rate>
						<duration>0</duration>
						<start>5514</start>
						<end>5514</end>
						<in>5514</in>
						<out>5514</out>
						<enabled>FALSE</enabled>
					</clipitem>
					<clipitem frameBlend="FALSE" id="clipitem-rejected-1203">
						<file id="file-1"/>
						<name>[REJECTED] bandicam 2025-06-02 00-01-10-144</name>
						<rate>
							<timebase>60</timebase>
							<ntsc>TRUE</ntsc>
						</rate>
						<rate>
							<timebase>60</timebase>
							<ntsc>TRUE</ntsc>
						</rate>
						<duration>0</duration>
						<start>5526</start>
						<end>5526</end>
						<in>5526</in>
						<out>5526</out>
						<enabled>FALSE</enabled>
					</clipitem>
					<clipitem frameBlend="FALSE" id="clipitem-rejected-1204">
						<file id="file-1"/>
						<name>[REJECTED] bandicam 2025-06-02 00-01-10-144</name>
						<rate>
							<timebase>60</timebase>
							<ntsc>TRUE</ntsc>
						</rate>
						<rate>
							<timebase>60</timebase>
							<ntsc>TRUE</ntsc>
						</rate>
						<duration>18</duration>
						<start>5556</start>
						<end>5574</end>
						<in>5556</in>
						<out>5574</out>
						<enabled>FALSE</enabled>
					</clipitem>
					<clipitem frameBlend="FALSE" id="clipitem-rejected-1205">
						<file id="file-1"/>
						<name>[REJECTED] bandicam 2025-06-02 00-01-10-144</name>
						<rate>
							<timebase>60</timebase>
							<ntsc>TRUE</ntsc>
						</rate>
						<rate>
							<timebase>60</timebase>
							<ntsc>TRUE</ntsc>
						</rate>
						<duration>12</duration>
						<start>5604</start>
						<end>5616</end>
						<in>5604</in>
						<out>5616</out>
						<enabled>FALSE</enabled>
					</clipitem>
					<clipitem frameBlend="FALSE" id="clipitem-rejected-1206">
						<file id="file-1"/>
						<name>[REJECTED] bandicam 2025-06-02 00-01-10-144</name>
						<rate>
							<timebase>60</timebase>
							<ntsc>TRUE</ntsc>
						</rate>
						<rate>
							<timebase>60</timebase>
							<ntsc>TRUE</ntsc>
						</rate>
						<duration>6</duration>
						<start>5652</start>
						<end>5658</end>
						<in>5652</in>
						<out>5658</out>
						<enabled>FALSE</enabled>
					</clipitem>
					<clipitem frameBlend="FALSE" id="clipitem-rejected-1207">
						<file id="file-1"/>
						<name>[REJECTED] bandicam 2025-06-02 00-01-10-144</name>
						<rate>
							<timebase>60</timebase>
							<ntsc>TRUE</ntsc>
						</rate>
						<rate>
							<timebase>60</timebase>
							<ntsc>TRUE</ntsc>
						</rate>
						<duration>18</duration>
						<start>5700</start>
						<end>5718</end>
						<in>5700</in>
						<out>5718</out>
						<enabled>FALSE</enabled>
					</clipitem>
					<clipitem frameBlend="FALSE" id="clipitem-rejected-1208">
						<file id="file-1"/>
						<name>[REJECTED] bandicam 2025-06-02 00-01-10-144</name>
						<rate>
							<timebase>60</timebase>
							<ntsc>TRUE</ntsc>
						</rate>
						<rate>
							<timebase>60</timebase>
							<ntsc>TRUE</ntsc>
						</rate>
						<duration>12</duration>
						<start>5730</start>
						<end>5742</end>
						<in>5730</in>
						<out>5742</out>
						<enabled>FALSE</enabled>
					</clipitem>
					<clipitem frameBlend="FALSE" id="clipitem-rejected-1209">
						<file id="file-1"/>
						<name>[REJECTED] bandicam 2025-06-02 00-01-10-144</name>
						<rate>
							<timebase>60</timebase>
							<ntsc>TRUE</ntsc>
						</rate>
						<rate>
							<timebase>60</timebase>
							<ntsc>TRUE</ntsc>
						</rate>
						<duration>12</duration>
						<start>5784</start>
						<end>5796</end>
						<in>5784</in>
						<out>5796</out>
						<enabled>FALSE</enabled>
					</clipitem>
					<clipitem frameBlend="FALSE" id="clipitem-rejected-1210">
						<file id="file-1"/>
						<name>[REJECTED] bandicam 2025-06-02 00-01-10-144</name>
						<rate>
							<timebase>60</timebase>
							<ntsc>TRUE</ntsc>
						</rate>
						<rate>
							<timebase>60</timebase>
							<ntsc>TRUE</ntsc>
						</rate>
						<duration>6</duration>
						<start>5988</start>
						<end>5994</end>
						<in>5988</in>
						<out>5994</out>
						<enabled>FALSE</enabled>
					</clipitem>
					<clipitem frameBlend="FALSE" id="clipitem-rejected-1211">
						<file id="file-1"/>
						<name>[REJECTED] bandicam 2025-06-02 00-01-10-144</name>
						<rate>
							<timebase>60</timebase>
							<ntsc>TRUE</ntsc>
						</rate>
						<rate>
							<timebase>60</timebase>
							<ntsc>TRUE</ntsc>
						</rate>
						<duration>48</duration>
						<start>6078</start>
						<end>6126</end>
						<in>6078</in>
						<out>6126</out>
						<enabled>FALSE</enabled>
					</clipitem>
					<clipitem frameBlend="FALSE" id="clipitem-rejected-1212">
						<file id="file-1"/>
						<name>[REJECTED] bandicam 2025-06-02 00-01-10-144</name>
						<rate>
							<timebase>60</timebase>
							<ntsc>TRUE</ntsc>
						</rate>
						<rate>
							<timebase>60</timebase>
							<ntsc>TRUE</ntsc>
						</rate>
						<duration>12</duration>
						<start>6138</start>
						<end>6150</end>
						<in>6138</in>
						<out>6150</out>
						<enabled>FALSE</enabled>
					</clipitem>
					<clipitem frameBlend="FALSE" id="clipitem-rejected-1213">
						<file id="file-1"/>
						<name>[REJECTED] bandicam 2025-06-02 00-01-10-144</name>
						<rate>
							<timebase>60</timebase>
							<ntsc>TRUE</ntsc>
						</rate>
						<rate>
							<timebase>60</timebase>
							<ntsc>TRUE</ntsc>
						</rate>
						<duration>6</duration>
						<start>6210</start>
						<end>6216</end>
						<in>6210</in>
						<out>6216</out>
						<enabled>FALSE</enabled>
					</clipitem>
					<clipitem frameBlend="FALSE" id="clipitem-rejected-1214">
						<file id="file-1"/>
						<name>[REJECTED] bandicam 2025-06-02 00-01-10-144</name>
						<rate>
							<timebase>60</timebase>
							<ntsc>TRUE</ntsc>
						</rate>
						<rate>
							<timebase>60</timebase>
							<ntsc>TRUE</ntsc>
						</rate>
						<duration>12</duration>
						<start>6264</start>
						<end>6276</end>
						<in>6264</in>
						<out>6276</out>
						<enabled>FALSE</enabled>
					</clipitem>
					<clipitem frameBlend="FALSE" id="clipitem-rejected-1215">
						<file id="file-1"/>
						<name>[REJECTED] bandicam 2025-06-02 00-01-10-144</name>
						<rate>
							<timebase>60</timebase>
							<ntsc>TRUE</ntsc>
						</rate>
						<rate>
							<timebase>60</timebase>
							<ntsc>TRUE</ntsc>
						</rate>
						<duration>18</duration>
						<start>6288</start>
						<end>6306</end>
						<in>6288</in>
						<out>6306</out>
						<enabled>FALSE</enabled>
					</clipitem>
					<clipitem frameBlend="FALSE" id="clipitem-rejected-1216">
						<file id="file-1"/>
						<name>[REJECTED] bandicam 2025-06-02 00-01-10-144</name>
						<rate>
							<timebase>60</timebase>
							<ntsc>TRUE</ntsc>
						</rate>
						<rate>
							<timebase>60</timebase>
							<ntsc>TRUE</ntsc>
						</rate>
						<duration>42</duration>
						<start>6336</start>
						<end>6378</end>
						<in>6336</in>
						<out>6378</out>
						<enabled>FALSE</enabled>
					</clipitem>
					<clipitem frameBlend="FALSE" id="clipitem-rejected-1217">
						<file id="file-1"/>
						<name>[REJECTED] bandicam 2025-06-02 00-01-10-144</name>
						<rate>
							<timebase>60</timebase>
							<ntsc>TRUE</ntsc>
						</rate>
						<rate>
							<timebase>60</timebase>
							<ntsc>TRUE</ntsc>
						</rate>
						<duration>18</duration>
						<start>6408</start>
						<end>6426</end>
						<in>6408</in>
						<out>6426</out>
						<enabled>FALSE</enabled>
					</clipitem>
					<clipitem frameBlend="FALSE" id="clipitem-rejected-1218">
						<file id="file-1"/>
						<name>[REJECTED] bandicam 2025-06-02 00-01-10-144</name>
						<rate>
							<timebase>60</timebase>
							<ntsc>TRUE</ntsc>
						</rate>
						<rate>
							<timebase>60</timebase>
							<ntsc>TRUE</ntsc>
						</rate>
						<duration>24</duration>
						<start>6456</start>
						<end>6480</end>
						<in>6456</in>
						<out>6480</out>
						<enabled>FALSE</enabled>
					</clipitem>
					<clipitem frameBlend="FALSE" id="clipitem-rejected-1219">
						<file id="file-1"/>
						<name>[REJECTED] bandicam 2025-06-02 00-01-10-144</name>
						<rate>
							<timebase>60</timebase>
							<ntsc>TRUE</ntsc>
						</rate>
						<rate>
							<timebase>60</timebase>
							<ntsc>TRUE</ntsc>
						</rate>
						<duration>0</duration>
						<start>6492</start>
						<end>6492</end>
						<in>6492</in>
						<out>6492</out>
						<enabled>FALSE</enabled>
					</clipitem>
					<clipitem frameBlend="FALSE" id="clipitem-rejected-1220">
						<file id="file-1"/>
						<name>[REJECTED] bandicam 2025-06-02 00-01-10-144</name>
						<rate>
							<timebase>60</timebase>
							<ntsc>TRUE</ntsc>
						</rate>
						<rate>
							<timebase>60</timebase>
							<ntsc>TRUE</ntsc>
						</rate>
						<duration>30</duration>
						<start>6540</start>
						<end>6570</end>
						<in>6540</in>
						<out>6570</out>
						<enabled>FALSE</enabled>
					</clipitem>
					<clipitem frameBlend="FALSE" id="clipitem-rejected-1221">
						<file id="file-1"/>
						<name>[REJECTED] bandicam 2025-06-02 00-01-10-144</name>
						<rate>
							<timebase>60</timebase>
							<ntsc>TRUE</ntsc>
						</rate>
						<rate>
							<timebase>60</timebase>
							<ntsc>TRUE</ntsc>
						</rate>
						<duration>18</duration>
						<start>6588</start>
						<end>6606</end>
						<in>6588</in>
						<out>6606</out>
						<enabled>FALSE</enabled>
					</clipitem>
					<clipitem frameBlend="FALSE" id="clipitem-rejected-1222">
						<file id="file-1"/>
						<name>[REJECTED] bandicam 2025-06-02 00-01-10-144</name>
						<rate>
							<timebase>60</timebase>
							<ntsc>TRUE</ntsc>
						</rate>
						<rate>
							<timebase>60</timebase>
							<ntsc>TRUE</ntsc>
						</rate>
						<duration>108</duration>
						<start>6636</start>
						<end>6744</end>
						<in>6636</in>
						<out>6744</out>
						<enabled>FALSE</enabled>
					</clipitem>
					<clipitem frameBlend="FALSE" id="clipitem-rejected-1223">
						<file id="file-1"/>
						<name>[REJECTED] bandicam 2025-06-02 00-01-10-144</name>
						<rate>
							<timebase>60</timebase>
							<ntsc>TRUE</ntsc>
						</rate>
						<rate>
							<timebase>60</timebase>
							<ntsc>TRUE</ntsc>
						</rate>
						<duration>36</duration>
						<start>6768</start>
						<end>6804</end>
						<in>6768</in>
						<out>6804</out>
						<enabled>FALSE</enabled>
					</clipitem>
					<clipitem frameBlend="FALSE" id="clipitem-rejected-1224">
						<file id="file-1"/>
						<name>[REJECTED] bandicam 2025-06-02 00-01-10-144</name>
						<rate>
							<timebase>60</timebase>
							<ntsc>TRUE</ntsc>
						</rate>
						<rate>
							<timebase>60</timebase>
							<ntsc>TRUE</ntsc>
						</rate>
						<duration>0</duration>
						<start>6822</start>
						<end>6822</end>
						<in>6822</in>
						<out>6822</out>
						<enabled>FALSE</enabled>
					</clipitem>
					<clipitem frameBlend="FALSE" id="clipitem-rejected-1225">
						<file id="file-1"/>
						<name>[REJECTED] bandicam 2025-06-02 00-01-10-144</name>
						<rate>
							<timebase>60</timebase>
							<ntsc>TRUE</ntsc>
						</rate>
						<rate>
							<timebase>60</timebase>
							<ntsc>TRUE</ntsc>
						</rate>
						<duration>36</duration>
						<start>6852</start>
						<end>6888</end>
						<in>6852</in>
						<out>6888</out>
						<enabled>FALSE</enabled>
					</clipitem>
					<clipitem frameBlend="FALSE" id="clipitem-rejected-1226">
						<file id="file-1"/>
						<name>[REJECTED] bandicam 2025-06-02 00-01-10-144</name>
						<rate>
							<timebase>60</timebase>
							<ntsc>TRUE</ntsc>
						</rate>
						<rate>
							<timebase>60</timebase>
							<ntsc>TRUE</ntsc>
						</rate>
						<duration>0</duration>
						<start>6906</start>
						<end>6906</end>
						<in>6906</in>
						<out>6906</out>
						<enabled>FALSE</enabled>
					</clipitem>
					<clipitem frameBlend="FALSE" id="clipitem-rejected-1227">
						<file id="file-1"/>
						<name>[REJECTED] bandicam 2025-06-02 00-01-10-144</name>
						<rate>
							<timebase>60</timebase>
							<ntsc>TRUE</ntsc>
						</rate>
						<rate>
							<timebase>60</timebase>
							<ntsc>TRUE</ntsc>
						</rate>
						<duration>12</duration>
						<start>6936</start>
						<end>6948</end>
						<in>6936</in>
						<out>6948</out>
						<enabled>FALSE</enabled>
					</clipitem>
					<clipitem frameBlend="FALSE" id="clipitem-rejected-1228">
						<file id="file-1"/>
						<name>[REJECTED] bandicam 2025-06-02 00-01-10-144</name>
						<rate>
							<timebase>60</timebase>
							<ntsc>TRUE</ntsc>
						</rate>
						<rate>
							<timebase>60</timebase>
							<ntsc>TRUE</ntsc>
						</rate>
						<duration>36</duration>
						<start>6960</start>
						<end>6996</end>
						<in>6960</in>
						<out>6996</out>
						<enabled>FALSE</enabled>
					</clipitem>
					<clipitem frameBlend="FALSE" id="clipitem-rejected-1229">
						<file id="file-1"/>
						<name>[REJECTED] bandicam 2025-06-02 00-01-10-144</name>
						<rate>
							<timebase>60</timebase>
							<ntsc>TRUE</ntsc>
						</rate>
						<rate>
							<timebase>60</timebase>
							<ntsc>TRUE</ntsc>
						</rate>
						<duration>12</duration>
						<start>7008</start>
						<end>7020</end>
						<in>7008</in>
						<out>7020</out>
						<enabled>FALSE</enabled>
					</clipitem>
					<clipitem frameBlend="FALSE" id="clipitem-rejected-1230">
						<file id="file-1"/>
						<name>[REJECTED] bandicam 2025-06-02 00-01-10-144</name>
						<rate>
							<timebase>60</timebase>
							<ntsc>TRUE</ntsc>
						</rate>
						<rate>
							<timebase>60</timebase>
							<ntsc>TRUE</ntsc>
						</rate>
						<duration>18</duration>
						<start>7050</start>
						<end>7068</end>
						<in>7050</in>
						<out>7068</out>
						<enabled>FALSE</enabled>
					</clipitem>
					<clipitem frameBlend="FALSE" id="clipitem-rejected-1231">
						<file id="file-1"/>
						<name>[REJECTED] bandicam 2025-06-02 00-01-10-144</name>
						<rate>
							<timebase>60</timebase>
							<ntsc>TRUE</ntsc>
						</rate>
						<rate>
							<timebase>60</timebase>
							<ntsc>TRUE</ntsc>
						</rate>
						<duration>6</duration>
						<start>0</start>
						<end>6</end>
						<in>0</in>
						<out>6</out>
						<enabled>FALSE</enabled>
					</clipitem>
					<clipitem frameBlend="FALSE" id="clipitem-rejected-1232">
						<file id="file-1"/>
						<name>[REJECTED] bandicam 2025-06-02 00-01-10-144</name>
						<rate>
							<timebase>60</timebase>
							<ntsc>TRUE</ntsc>
						</rate>
						<rate>
							<timebase>60</timebase>
							<ntsc>TRUE</ntsc>
						</rate>
						<duration>0</duration>
						<start>48</start>
						<end>48</end>
						<in>48</in>
						<out>48</out>
						<enabled>FALSE</enabled>
					</clipitem>
					<clipitem frameBlend="FALSE" id="clipitem-rejected-1233">
						<file id="file-1"/>
						<name>[REJECTED] bandicam 2025-06-02 00-01-10-144</name>
						<rate>
							<timebase>60</timebase>
							<ntsc>TRUE</ntsc>
						</rate>
						<rate>
							<timebase>60</timebase>
							<ntsc>TRUE</ntsc>
						</rate>
						<duration>6</duration>
						<start>96</start>
						<end>102</end>
						<in>96</in>
						<out>102</out>
						<enabled>FALSE</enabled>
					</clipitem>
					<clipitem frameBlend="FALSE" id="clipitem-rejected-1234">
						<file id="file-1"/>
						<name>[REJECTED] bandicam 2025-06-02 00-01-10-144</name>
						<rate>
							<timebase>60</timebase>
							<ntsc>TRUE</ntsc>
						</rate>
						<rate>
							<timebase>60</timebase>
							<ntsc>TRUE</ntsc>
						</rate>
						<duration>36</duration>
						<start>132</start>
						<end>168</end>
						<in>132</in>
						<out>168</out>
						<enabled>FALSE</enabled>
					</clipitem>
					<clipitem frameBlend="FALSE" id="clipitem-rejected-1235">
						<file id="file-1"/>
						<name>[REJECTED] bandicam 2025-06-02 00-01-10-144</name>
						<rate>
							<timebase>60</timebase>
							<ntsc>TRUE</ntsc>
						</rate>
						<rate>
							<timebase>60</timebase>
							<ntsc>TRUE</ntsc>
						</rate>
						<duration>90</duration>
						<start>204</start>
						<end>294</end>
						<in>204</in>
						<out>294</out>
						<enabled>FALSE</enabled>
					</clipitem>
					<clipitem frameBlend="FALSE" id="clipitem-rejected-1236">
						<file id="file-1"/>
						<name>[REJECTED] bandicam 2025-06-02 00-01-10-144</name>
						<rate>
							<timebase>60</timebase>
							<ntsc>TRUE</ntsc>
						</rate>
						<rate>
							<timebase>60</timebase>
							<ntsc>TRUE</ntsc>
						</rate>
						<duration>48</duration>
						<start>306</start>
						<end>354</end>
						<in>306</in>
						<out>354</out>
						<enabled>FALSE</enabled>
					</clipitem>
					<clipitem frameBlend="FALSE" id="clipitem-rejected-1237">
						<file id="file-1"/>
						<name>[REJECTED] bandicam 2025-06-02 00-01-10-144</name>
						<rate>
							<timebase>60</timebase>
							<ntsc>TRUE</ntsc>
						</rate>
						<rate>
							<timebase>60</timebase>
							<ntsc>TRUE</ntsc>
						</rate>
						<duration>36</duration>
						<start>396</start>
						<end>432</end>
						<in>396</in>
						<out>432</out>
						<enabled>FALSE</enabled>
					</clipitem>
					<clipitem frameBlend="FALSE" id="clipitem-rejected-1238">
						<file id="file-1"/>
						<name>[REJECTED] bandicam 2025-06-02 00-01-10-144</name>
						<rate>
							<timebase>60</timebase>
							<ntsc>TRUE</ntsc>
						</rate>
						<rate>
							<timebase>60</timebase>
							<ntsc>TRUE</ntsc>
						</rate>
						<duration>0</duration>
						<start>444</start>
						<end>444</end>
						<in>444</in>
						<out>444</out>
						<enabled>FALSE</enabled>
					</clipitem>
					<clipitem frameBlend="FALSE" id="clipitem-rejected-1239">
						<file id="file-1"/>
						<name>[REJECTED] bandicam 2025-06-02 00-01-10-144</name>
						<rate>
							<timebase>60</timebase>
							<ntsc>TRUE</ntsc>
						</rate>
						<rate>
							<timebase>60</timebase>
							<ntsc>TRUE</ntsc>
						</rate>
						<duration>0</duration>
						<start>498</start>
						<end>498</end>
						<in>498</in>
						<out>498</out>
						<enabled>FALSE</enabled>
					</clipitem>
					<clipitem frameBlend="FALSE" id="clipitem-rejected-1240">
						<file id="file-1"/>
						<name>[REJECTED] bandicam 2025-06-02 00-01-10-144</name>
						<rate>
							<timebase>60</timebase>
							<ntsc>TRUE</ntsc>
						</rate>
						<rate>
							<timebase>60</timebase>
							<ntsc>TRUE</ntsc>
						</rate>
						<duration>12</duration>
						<start>510</start>
						<end>522</end>
						<in>510</in>
						<out>522</out>
						<enabled>FALSE</enabled>
					</clipitem>
					<clipitem frameBlend="FALSE" id="clipitem-rejected-1241">
						<file id="file-1"/>
						<name>[REJECTED] bandicam 2025-06-02 00-01-10-144</name>
						<rate>
							<timebase>60</timebase>
							<ntsc>TRUE</ntsc>
						</rate>
						<rate>
							<timebase>60</timebase>
							<ntsc>TRUE</ntsc>
						</rate>
						<duration>12</duration>
						<start>564</start>
						<end>576</end>
						<in>564</in>
						<out>576</out>
						<enabled>FALSE</enabled>
					</clipitem>
					<clipitem frameBlend="FALSE" id="clipitem-rejected-1242">
						<file id="file-1"/>
						<name>[REJECTED] bandicam 2025-06-02 00-01-10-144</name>
						<rate>
							<timebase>60</timebase>
							<ntsc>TRUE</ntsc>
						</rate>
						<rate>
							<timebase>60</timebase>
							<ntsc>TRUE</ntsc>
						</rate>
						<duration>6</duration>
						<start>612</start>
						<end>618</end>
						<in>612</in>
						<out>618</out>
						<enabled>FALSE</enabled>
					</clipitem>
					<clipitem frameBlend="FALSE" id="clipitem-rejected-1243">
						<file id="file-1"/>
						<name>[REJECTED] bandicam 2025-06-02 00-01-10-144</name>
						<rate>
							<timebase>60</timebase>
							<ntsc>TRUE</ntsc>
						</rate>
						<rate>
							<timebase>60</timebase>
							<ntsc>TRUE</ntsc>
						</rate>
						<duration>162</duration>
						<start>648</start>
						<end>810</end>
						<in>648</in>
						<out>810</out>
						<enabled>FALSE</enabled>
					</clipitem>
					<clipitem frameBlend="FALSE" id="clipitem-rejected-1244">
						<file id="file-1"/>
						<name>[REJECTED] bandicam 2025-06-02 00-01-10-144</name>
						<rate>
							<timebase>60</timebase>
							<ntsc>TRUE</ntsc>
						</rate>
						<rate>
							<timebase>60</timebase>
							<ntsc>TRUE</ntsc>
						</rate>
						<duration>24</duration>
						<start>822</start>
						<end>846</end>
						<in>822</in>
						<out>846</out>
						<enabled>FALSE</enabled>
					</clipitem>
					<clipitem frameBlend="FALSE" id="clipitem-rejected-1245">
						<file id="file-1"/>
						<name>[REJECTED] bandicam 2025-06-02 00-01-10-144</name>
						<rate>
							<timebase>60</timebase>
							<ntsc>TRUE</ntsc>
						</rate>
						<rate>
							<timebase>60</timebase>
							<ntsc>TRUE</ntsc>
						</rate>
						<duration>48</duration>
						<start>858</start>
						<end>906</end>
						<in>858</in>
						<out>906</out>
						<enabled>FALSE</enabled>
					</clipitem>
					<clipitem frameBlend="FALSE" id="clipitem-rejected-1246">
						<file id="file-1"/>
						<name>[REJECTED] bandicam 2025-06-02 00-01-10-144</name>
						<rate>
							<timebase>60</timebase>
							<ntsc>TRUE</ntsc>
						</rate>
						<rate>
							<timebase>60</timebase>
							<ntsc>TRUE</ntsc>
						</rate>
						<duration>12</duration>
						<start>918</start>
						<end>930</end>
						<in>918</in>
						<out>930</out>
						<enabled>FALSE</enabled>
					</clipitem>
					<clipitem frameBlend="FALSE" id="clipitem-rejected-1247">
						<file id="file-1"/>
						<name>[REJECTED] bandicam 2025-06-02 00-01-10-144</name>
						<rate>
							<timebase>60</timebase>
							<ntsc>TRUE</ntsc>
						</rate>
						<rate>
							<timebase>60</timebase>
							<ntsc>TRUE</ntsc>
						</rate>
						<duration>6</duration>
						<start>942</start>
						<end>948</end>
						<in>942</in>
						<out>948</out>
						<enabled>FALSE</enabled>
					</clipitem>
					<clipitem frameBlend="FALSE" id="clipitem-rejected-1248">
						<file id="file-1"/>
						<name>[REJECTED] bandicam 2025-06-02 00-01-10-144</name>
						<rate>
							<timebase>60</timebase>
							<ntsc>TRUE</ntsc>
						</rate>
						<rate>
							<timebase>60</timebase>
							<ntsc>TRUE</ntsc>
						</rate>
						<duration>18</duration>
						<start>960</start>
						<end>978</end>
						<in>960</in>
						<out>978</out>
						<enabled>FALSE</enabled>
					</clipitem>
					<clipitem frameBlend="FALSE" id="clipitem-rejected-1249">
						<file id="file-1"/>
						<name>[REJECTED] bandicam 2025-06-02 00-01-10-144</name>
						<rate>
							<timebase>60</timebase>
							<ntsc>TRUE</ntsc>
						</rate>
						<rate>
							<timebase>60</timebase>
							<ntsc>TRUE</ntsc>
						</rate>
						<duration>78</duration>
						<start>1002</start>
						<end>1080</end>
						<in>1002</in>
						<out>1080</out>
						<enabled>FALSE</enabled>
					</clipitem>
					<clipitem frameBlend="FALSE" id="clipitem-rejected-1250">
						<file id="file-1"/>
						<name>[REJECTED] bandicam 2025-06-02 00-01-10-144</name>
						<rate>
							<timebase>60</timebase>
							<ntsc>TRUE</ntsc>
						</rate>
						<rate>
							<timebase>60</timebase>
							<ntsc>TRUE</ntsc>
						</rate>
						<duration>78</duration>
						<start>1104</start>
						<end>1182</end>
						<in>1104</in>
						<out>1182</out>
						<enabled>FALSE</enabled>
					</clipitem>
					<clipitem frameBlend="FALSE" id="clipitem-rejected-1251">
						<file id="file-1"/>
						<name>[REJECTED] bandicam 2025-06-02 00-01-10-144</name>
						<rate>
							<timebase>60</timebase>
							<ntsc>TRUE</ntsc>
						</rate>
						<rate>
							<timebase>60</timebase>
							<ntsc>TRUE</ntsc>
						</rate>
						<duration>72</duration>
						<start>1242</start>
						<end>1314</end>
						<in>1242</in>
						<out>1314</out>
						<enabled>FALSE</enabled>
					</clipitem>
					<clipitem frameBlend="FALSE" id="clipitem-rejected-1252">
						<file id="file-1"/>
						<name>[REJECTED] bandicam 2025-06-02 00-01-10-144</name>
						<rate>
							<timebase>60</timebase>
							<ntsc>TRUE</ntsc>
						</rate>
						<rate>
							<timebase>60</timebase>
							<ntsc>TRUE</ntsc>
						</rate>
						<duration>42</duration>
						<start>1326</start>
						<end>1368</end>
						<in>1326</in>
						<out>1368</out>
						<enabled>FALSE</enabled>
					</clipitem>
					<clipitem frameBlend="FALSE" id="clipitem-rejected-1253">
						<file id="file-1"/>
						<name>[REJECTED] bandicam 2025-06-02 00-01-10-144</name>
						<rate>
							<timebase>60</timebase>
							<ntsc>TRUE</ntsc>
						</rate>
						<rate>
							<timebase>60</timebase>
							<ntsc>TRUE</ntsc>
						</rate>
						<duration>6</duration>
						<start>1434</start>
						<end>1440</end>
						<in>1434</in>
						<out>1440</out>
						<enabled>FALSE</enabled>
					</clipitem>
					<clipitem frameBlend="FALSE" id="clipitem-rejected-1254">
						<file id="file-1"/>
						<name>[REJECTED] bandicam 2025-06-02 00-01-10-144</name>
						<rate>
							<timebase>60</timebase>
							<ntsc>TRUE</ntsc>
						</rate>
						<rate>
							<timebase>60</timebase>
							<ntsc>TRUE</ntsc>
						</rate>
						<duration>42</duration>
						<start>1488</start>
						<end>1530</end>
						<in>1488</in>
						<out>1530</out>
						<enabled>FALSE</enabled>
					</clipitem>
					<clipitem frameBlend="FALSE" id="clipitem-rejected-1255">
						<file id="file-1"/>
						<name>[REJECTED] bandicam 2025-06-02 00-01-10-144</name>
						<rate>
							<timebase>60</timebase>
							<ntsc>TRUE</ntsc>
						</rate>
						<rate>
							<timebase>60</timebase>
							<ntsc>TRUE</ntsc>
						</rate>
						<duration>18</duration>
						<start>1542</start>
						<end>1560</end>
						<in>1542</in>
						<out>1560</out>
						<enabled>FALSE</enabled>
					</clipitem>
					<clipitem frameBlend="FALSE" id="clipitem-rejected-1256">
						<file id="file-1"/>
						<name>[REJECTED] bandicam 2025-06-02 00-01-10-144</name>
						<rate>
							<timebase>60</timebase>
							<ntsc>TRUE</ntsc>
						</rate>
						<rate>
							<timebase>60</timebase>
							<ntsc>TRUE</ntsc>
						</rate>
						<duration>84</duration>
						<start>1602</start>
						<end>1686</end>
						<in>1602</in>
						<out>1686</out>
						<enabled>FALSE</enabled>
					</clipitem>
					<clipitem frameBlend="FALSE" id="clipitem-rejected-1257">
						<file id="file-1"/>
						<name>[REJECTED] bandicam 2025-06-02 00-01-10-144</name>
						<rate>
							<timebase>60</timebase>
							<ntsc>TRUE</ntsc>
						</rate>
						<rate>
							<timebase>60</timebase>
							<ntsc>TRUE</ntsc>
						</rate>
						<duration>6</duration>
						<start>1788</start>
						<end>1794</end>
						<in>1788</in>
						<out>1794</out>
						<enabled>FALSE</enabled>
					</clipitem>
					<clipitem frameBlend="FALSE" id="clipitem-rejected-1258">
						<file id="file-1"/>
						<name>[REJECTED] bandicam 2025-06-02 00-01-10-144</name>
						<rate>
							<timebase>60</timebase>
							<ntsc>TRUE</ntsc>
						</rate>
						<rate>
							<timebase>60</timebase>
							<ntsc>TRUE</ntsc>
						</rate>
						<duration>0</duration>
						<start>1878</start>
						<end>1878</end>
						<in>1878</in>
						<out>1878</out>
						<enabled>FALSE</enabled>
					</clipitem>
					<clipitem frameBlend="FALSE" id="clipitem-rejected-1259">
						<file id="file-1"/>
						<name>[REJECTED] bandicam 2025-06-02 00-01-10-144</name>
						<rate>
							<timebase>60</timebase>
							<ntsc>TRUE</ntsc>
						</rate>
						<rate>
							<timebase>60</timebase>
							<ntsc>TRUE</ntsc>
						</rate>
						<duration>6</duration>
						<start>1914</start>
						<end>1920</end>
						<in>1914</in>
						<out>1920</out>
						<enabled>FALSE</enabled>
					</clipitem>
					<clipitem frameBlend="FALSE" id="clipitem-rejected-1260">
						<file id="file-1"/>
						<name>[REJECTED] bandicam 2025-06-02 00-01-10-144</name>
						<rate>
							<timebase>60</timebase>
							<ntsc>TRUE</ntsc>
						</rate>
						<rate>
							<timebase>60</timebase>
							<ntsc>TRUE</ntsc>
						</rate>
						<duration>204</duration>
						<start>1962</start>
						<end>2166</end>
						<in>1962</in>
						<out>2166</out>
						<enabled>FALSE</enabled>
					</clipitem>
					<clipitem frameBlend="FALSE" id="clipitem-rejected-1261">
						<file id="file-1"/>
						<name>[REJECTED] bandicam 2025-06-02 00-01-10-144</name>
						<rate>
							<timebase>60</timebase>
							<ntsc>TRUE</ntsc>
						</rate>
						<rate>
							<timebase>60</timebase>
							<ntsc>TRUE</ntsc>
						</rate>
						<duration>54</duration>
						<start>2214</start>
						<end>2268</end>
						<in>2214</in>
						<out>2268</out>
						<enabled>FALSE</enabled>
					</clipitem>
					<clipitem frameBlend="FALSE" id="clipitem-rejected-1262">
						<file id="file-1"/>
						<name>[REJECTED] bandicam 2025-06-02 00-01-10-144</name>
						<rate>
							<timebase>60</timebase>
							<ntsc>TRUE</ntsc>
						</rate>
						<rate>
							<timebase>60</timebase>
							<ntsc>TRUE</ntsc>
						</rate>
						<duration>72</duration>
						<start>2370</start>
						<end>2442</end>
						<in>2370</in>
						<out>2442</out>
						<enabled>FALSE</enabled>
					</clipitem>
					<clipitem frameBlend="FALSE" id="clipitem-rejected-1263">
						<file id="file-1"/>
						<name>[REJECTED] bandicam 2025-06-02 00-01-10-144</name>
						<rate>
							<timebase>60</timebase>
							<ntsc>TRUE</ntsc>
						</rate>
						<rate>
							<timebase>60</timebase>
							<ntsc>TRUE</ntsc>
						</rate>
						<duration>0</duration>
						<start>2472</start>
						<end>2472</end>
						<in>2472</in>
						<out>2472</out>
						<enabled>FALSE</enabled>
					</clipitem>
					<clipitem frameBlend="FALSE" id="clipitem-rejected-1264">
						<file id="file-1"/>
						<name>[REJECTED] bandicam 2025-06-02 00-01-10-144</name>
						<rate>
							<timebase>60</timebase>
							<ntsc>TRUE</ntsc>
						</rate>
						<rate>
							<timebase>60</timebase>
							<ntsc>TRUE</ntsc>
						</rate>
						<duration>0</duration>
						<start>2490</start>
						<end>2490</end>
						<in>2490</in>
						<out>2490</out>
						<enabled>FALSE</enabled>
					</clipitem>
					<clipitem frameBlend="FALSE" id="clipitem-rejected-1265">
						<file id="file-1"/>
						<name>[REJECTED] bandicam 2025-06-02 00-01-10-144</name>
						<rate>
							<timebase>60</timebase>
							<ntsc>TRUE</ntsc>
						</rate>
						<rate>
							<timebase>60</timebase>
							<ntsc>TRUE</ntsc>
						</rate>
						<duration>18</duration>
						<start>2508</start>
						<end>2526</end>
						<in>2508</in>
						<out>2526</out>
						<enabled>FALSE</enabled>
					</clipitem>
					<clipitem frameBlend="FALSE" id="clipitem-rejected-1266">
						<file id="file-1"/>
						<name>[REJECTED] bandicam 2025-06-02 00-01-10-144</name>
						<rate>
							<timebase>60</timebase>
							<ntsc>TRUE</ntsc>
						</rate>
						<rate>
							<timebase>60</timebase>
							<ntsc>TRUE</ntsc>
						</rate>
						<duration>12</duration>
						<start>2574</start>
						<end>2586</end>
						<in>2574</in>
						<out>2586</out>
						<enabled>FALSE</enabled>
					</clipitem>
					<clipitem frameBlend="FALSE" id="clipitem-rejected-1267">
						<file id="file-1"/>
						<name>[REJECTED] bandicam 2025-06-02 00-01-10-144</name>
						<rate>
							<timebase>60</timebase>
							<ntsc>TRUE</ntsc>
						</rate>
						<rate>
							<timebase>60</timebase>
							<ntsc>TRUE</ntsc>
						</rate>
						<duration>0</duration>
						<start>2688</start>
						<end>2688</end>
						<in>2688</in>
						<out>2688</out>
						<enabled>FALSE</enabled>
					</clipitem>
					<clipitem frameBlend="FALSE" id="clipitem-rejected-1268">
						<file id="file-1"/>
						<name>[REJECTED] bandicam 2025-06-02 00-01-10-144</name>
						<rate>
							<timebase>60</timebase>
							<ntsc>TRUE</ntsc>
						</rate>
						<rate>
							<timebase>60</timebase>
							<ntsc>TRUE</ntsc>
						</rate>
						<duration>18</duration>
						<start>2700</start>
						<end>2718</end>
						<in>2700</in>
						<out>2718</out>
						<enabled>FALSE</enabled>
					</clipitem>
					<clipitem frameBlend="FALSE" id="clipitem-rejected-1269">
						<file id="file-1"/>
						<name>[REJECTED] bandicam 2025-06-02 00-01-10-144</name>
						<rate>
							<timebase>60</timebase>
							<ntsc>TRUE</ntsc>
						</rate>
						<rate>
							<timebase>60</timebase>
							<ntsc>TRUE</ntsc>
						</rate>
						<duration>0</duration>
						<start>2862</start>
						<end>2862</end>
						<in>2862</in>
						<out>2862</out>
						<enabled>FALSE</enabled>
					</clipitem>
					<clipitem frameBlend="FALSE" id="clipitem-rejected-1270">
						<file id="file-1"/>
						<name>[REJECTED] bandicam 2025-06-02 00-01-10-144</name>
						<rate>
							<timebase>60</timebase>
							<ntsc>TRUE</ntsc>
						</rate>
						<rate>
							<timebase>60</timebase>
							<ntsc>TRUE</ntsc>
						</rate>
						<duration>18</duration>
						<start>2916</start>
						<end>2934</end>
						<in>2916</in>
						<out>2934</out>
						<enabled>FALSE</enabled>
					</clipitem>
					<clipitem frameBlend="FALSE" id="clipitem-rejected-1271">
						<file id="file-1"/>
						<name>[REJECTED] bandicam 2025-06-02 00-01-10-144</name>
						<rate>
							<timebase>60</timebase>
							<ntsc>TRUE</ntsc>
						</rate>
						<rate>
							<timebase>60</timebase>
							<ntsc>TRUE</ntsc>
						</rate>
						<duration>0</duration>
						<start>2958</start>
						<end>2958</end>
						<in>2958</in>
						<out>2958</out>
						<enabled>FALSE</enabled>
					</clipitem>
					<clipitem frameBlend="FALSE" id="clipitem-rejected-1272">
						<file id="file-1"/>
						<name>[REJECTED] bandicam 2025-06-02 00-01-10-144</name>
						<rate>
							<timebase>60</timebase>
							<ntsc>TRUE</ntsc>
						</rate>
						<rate>
							<timebase>60</timebase>
							<ntsc>TRUE</ntsc>
						</rate>
						<duration>18</duration>
						<start>3000</start>
						<end>3018</end>
						<in>3000</in>
						<out>3018</out>
						<enabled>FALSE</enabled>
					</clipitem>
					<clipitem frameBlend="FALSE" id="clipitem-rejected-1273">
						<file id="file-1"/>
						<name>[REJECTED] bandicam 2025-06-02 00-01-10-144</name>
						<rate>
							<timebase>60</timebase>
							<ntsc>TRUE</ntsc>
						</rate>
						<rate>
							<timebase>60</timebase>
							<ntsc>TRUE</ntsc>
						</rate>
						<duration>18</duration>
						<start>3030</start>
						<end>3048</end>
						<in>3030</in>
						<out>3048</out>
						<enabled>FALSE</enabled>
					</clipitem>
					<clipitem frameBlend="FALSE" id="clipitem-rejected-1274">
						<file id="file-1"/>
						<name>[REJECTED] bandicam 2025-06-02 00-01-10-144</name>
						<rate>
							<timebase>60</timebase>
							<ntsc>TRUE</ntsc>
						</rate>
						<rate>
							<timebase>60</timebase>
							<ntsc>TRUE</ntsc>
						</rate>
						<duration>6</duration>
						<start>3108</start>
						<end>3114</end>
						<in>3108</in>
						<out>3114</out>
						<enabled>FALSE</enabled>
					</clipitem>
					<clipitem frameBlend="FALSE" id="clipitem-rejected-1275">
						<file id="file-1"/>
						<name>[REJECTED] bandicam 2025-06-02 00-01-10-144</name>
						<rate>
							<timebase>60</timebase>
							<ntsc>TRUE</ntsc>
						</rate>
						<rate>
							<timebase>60</timebase>
							<ntsc>TRUE</ntsc>
						</rate>
						<duration>60</duration>
						<start>3156</start>
						<end>3216</end>
						<in>3156</in>
						<out>3216</out>
						<enabled>FALSE</enabled>
					</clipitem>
					<clipitem frameBlend="FALSE" id="clipitem-rejected-1276">
						<file id="file-1"/>
						<name>[REJECTED] bandicam 2025-06-02 00-01-10-144</name>
						<rate>
							<timebase>60</timebase>
							<ntsc>TRUE</ntsc>
						</rate>
						<rate>
							<timebase>60</timebase>
							<ntsc>TRUE</ntsc>
						</rate>
						<duration>0</duration>
						<start>3264</start>
						<end>3264</end>
						<in>3264</in>
						<out>3264</out>
						<enabled>FALSE</enabled>
					</clipitem>
					<clipitem frameBlend="FALSE" id="clipitem-rejected-1277">
						<file id="file-1"/>
						<name>[REJECTED] bandicam 2025-06-02 00-01-10-144</name>
						<rate>
							<timebase>60</timebase>
							<ntsc>TRUE</ntsc>
						</rate>
						<rate>
							<timebase>60</timebase>
							<ntsc>TRUE</ntsc>
						</rate>
						<duration>54</duration>
						<start>3312</start>
						<end>3366</end>
						<in>3312</in>
						<out>3366</out>
						<enabled>FALSE</enabled>
					</clipitem>
					<clipitem frameBlend="FALSE" id="clipitem-rejected-1278">
						<file id="file-1"/>
						<name>[REJECTED] bandicam 2025-06-02 00-01-10-144</name>
						<rate>
							<timebase>60</timebase>
							<ntsc>TRUE</ntsc>
						</rate>
						<rate>
							<timebase>60</timebase>
							<ntsc>TRUE</ntsc>
						</rate>
						<duration>36</duration>
						<start>3408</start>
						<end>3444</end>
						<in>3408</in>
						<out>3444</out>
						<enabled>FALSE</enabled>
					</clipitem>
					<clipitem frameBlend="FALSE" id="clipitem-rejected-1279">
						<file id="file-1"/>
						<name>[REJECTED] bandicam 2025-06-02 00-01-10-144</name>
						<rate>
							<timebase>60</timebase>
							<ntsc>TRUE</ntsc>
						</rate>
						<rate>
							<timebase>60</timebase>
							<ntsc>TRUE</ntsc>
						</rate>
						<duration>12</duration>
						<start>3480</start>
						<end>3492</end>
						<in>3480</in>
						<out>3492</out>
						<enabled>FALSE</enabled>
					</clipitem>
					<clipitem frameBlend="FALSE" id="clipitem-rejected-1280">
						<file id="file-1"/>
						<name>[REJECTED] bandicam 2025-06-02 00-01-10-144</name>
						<rate>
							<timebase>60</timebase>
							<ntsc>TRUE</ntsc>
						</rate>
						<rate>
							<timebase>60</timebase>
							<ntsc>TRUE</ntsc>
						</rate>
						<duration>42</duration>
						<start>3534</start>
						<end>3576</end>
						<in>3534</in>
						<out>3576</out>
						<enabled>FALSE</enabled>
					</clipitem>
					<clipitem frameBlend="FALSE" id="clipitem-rejected-1281">
						<file id="file-1"/>
						<name>[REJECTED] bandicam 2025-06-02 00-01-10-144</name>
						<rate>
							<timebase>60</timebase>
							<ntsc>TRUE</ntsc>
						</rate>
						<rate>
							<timebase>60</timebase>
							<ntsc>TRUE</ntsc>
						</rate>
						<duration>30</duration>
						<start>3588</start>
						<end>3618</end>
						<in>3588</in>
						<out>3618</out>
						<enabled>FALSE</enabled>
					</clipitem>
					<clipitem frameBlend="FALSE" id="clipitem-rejected-1282">
						<file id="file-1"/>
						<name>[REJECTED] bandicam 2025-06-02 00-01-10-144</name>
						<rate>
							<timebase>60</timebase>
							<ntsc>TRUE</ntsc>
						</rate>
						<rate>
							<timebase>60</timebase>
							<ntsc>TRUE</ntsc>
						</rate>
						<duration>18</duration>
						<start>3648</start>
						<end>3666</end>
						<in>3648</in>
						<out>3666</out>
						<enabled>FALSE</enabled>
					</clipitem>
					<clipitem frameBlend="FALSE" id="clipitem-rejected-1283">
						<file id="file-1"/>
						<name>[REJECTED] bandicam 2025-06-02 00-01-10-144</name>
						<rate>
							<timebase>60</timebase>
							<ntsc>TRUE</ntsc>
						</rate>
						<rate>
							<timebase>60</timebase>
							<ntsc>TRUE</ntsc>
						</rate>
						<duration>12</duration>
						<start>3678</start>
						<end>3690</end>
						<in>3678</in>
						<out>3690</out>
						<enabled>FALSE</enabled>
					</clipitem>
					<clipitem frameBlend="FALSE" id="clipitem-rejected-1284">
						<file id="file-1"/>
						<name>[REJECTED] bandicam 2025-06-02 00-01-10-144</name>
						<rate>
							<timebase>60</timebase>
							<ntsc>TRUE</ntsc>
						</rate>
						<rate>
							<timebase>60</timebase>
							<ntsc>TRUE</ntsc>
						</rate>
						<duration>60</duration>
						<start>3702</start>
						<end>3762</end>
						<in>3702</in>
						<out>3762</out>
						<enabled>FALSE</enabled>
					</clipitem>
					<clipitem frameBlend="FALSE" id="clipitem-rejected-1285">
						<file id="file-1"/>
						<name>[REJECTED] bandicam 2025-06-02 00-01-10-144</name>
						<rate>
							<timebase>60</timebase>
							<ntsc>TRUE</ntsc>
						</rate>
						<rate>
							<timebase>60</timebase>
							<ntsc>TRUE</ntsc>
						</rate>
						<duration>60</duration>
						<start>3786</start>
						<end>3846</end>
						<in>3786</in>
						<out>3846</out>
						<enabled>FALSE</enabled>
					</clipitem>
					<clipitem frameBlend="FALSE" id="clipitem-rejected-1286">
						<file id="file-1"/>
						<name>[REJECTED] bandicam 2025-06-02 00-01-10-144</name>
						<rate>
							<timebase>60</timebase>
							<ntsc>TRUE</ntsc>
						</rate>
						<rate>
							<timebase>60</timebase>
							<ntsc>TRUE</ntsc>
						</rate>
						<duration>12</duration>
						<start>3888</start>
						<end>3900</end>
						<in>3888</in>
						<out>3900</out>
						<enabled>FALSE</enabled>
					</clipitem>
					<clipitem frameBlend="FALSE" id="clipitem-rejected-1287">
						<file id="file-1"/>
						<name>[REJECTED] bandicam 2025-06-02 00-01-10-144</name>
						<rate>
							<timebase>60</timebase>
							<ntsc>TRUE</ntsc>
						</rate>
						<rate>
							<timebase>60</timebase>
							<ntsc>TRUE</ntsc>
						</rate>
						<duration>78</duration>
						<start>3942</start>
						<end>4020</end>
						<in>3942</in>
						<out>4020</out>
						<enabled>FALSE</enabled>
					</clipitem>
					<clipitem frameBlend="FALSE" id="clipitem-rejected-1288">
						<file id="file-1"/>
						<name>[REJECTED] bandicam 2025-06-02 00-01-10-144</name>
						<rate>
							<timebase>60</timebase>
							<ntsc>TRUE</ntsc>
						</rate>
						<rate>
							<timebase>60</timebase>
							<ntsc>TRUE</ntsc>
						</rate>
						<duration>0</duration>
						<start>4038</start>
						<end>4038</end>
						<in>4038</in>
						<out>4038</out>
						<enabled>FALSE</enabled>
					</clipitem>
					<clipitem frameBlend="FALSE" id="clipitem-rejected-1289">
						<file id="file-1"/>
						<name>[REJECTED] bandicam 2025-06-02 00-01-10-144</name>
						<rate>
							<timebase>60</timebase>
							<ntsc>TRUE</ntsc>
						</rate>
						<rate>
							<timebase>60</timebase>
							<ntsc>TRUE</ntsc>
						</rate>
						<duration>30</duration>
						<start>4050</start>
						<end>4080</end>
						<in>4050</in>
						<out>4080</out>
						<enabled>FALSE</enabled>
					</clipitem>
					<clipitem frameBlend="FALSE" id="clipitem-rejected-1290">
						<file id="file-1"/>
						<name>[REJECTED] bandicam 2025-06-02 00-01-10-144</name>
						<rate>
							<timebase>60</timebase>
							<ntsc>TRUE</ntsc>
						</rate>
						<rate>
							<timebase>60</timebase>
							<ntsc>TRUE</ntsc>
						</rate>
						<duration>6</duration>
						<start>4176</start>
						<end>4182</end>
						<in>4176</in>
						<out>4182</out>
						<enabled>FALSE</enabled>
					</clipitem>
					<clipitem frameBlend="FALSE" id="clipitem-rejected-1291">
						<file id="file-1"/>
						<name>[REJECTED] bandicam 2025-06-02 00-01-10-144</name>
						<rate>
							<timebase>60</timebase>
							<ntsc>TRUE</ntsc>
						</rate>
						<rate>
							<timebase>60</timebase>
							<ntsc>TRUE</ntsc>
						</rate>
						<duration>0</duration>
						<start>4212</start>
						<end>4212</end>
						<in>4212</in>
						<out>4212</out>
						<enabled>FALSE</enabled>
					</clipitem>
					<clipitem frameBlend="FALSE" id="clipitem-rejected-1292">
						<file id="file-1"/>
						<name>[REJECTED] bandicam 2025-06-02 00-01-10-144</name>
						<rate>
							<timebase>60</timebase>
							<ntsc>TRUE</ntsc>
						</rate>
						<rate>
							<timebase>60</timebase>
							<ntsc>TRUE</ntsc>
						</rate>
						<duration>6</duration>
						<start>4290</start>
						<end>4296</end>
						<in>4290</in>
						<out>4296</out>
						<enabled>FALSE</enabled>
					</clipitem>
					<clipitem frameBlend="FALSE" id="clipitem-rejected-1293">
						<file id="file-1"/>
						<name>[REJECTED] bandicam 2025-06-02 00-01-10-144</name>
						<rate>
							<timebase>60</timebase>
							<ntsc>TRUE</ntsc>
						</rate>
						<rate>
							<timebase>60</timebase>
							<ntsc>TRUE</ntsc>
						</rate>
						<duration>24</duration>
						<start>4440</start>
						<end>4464</end>
						<in>4440</in>
						<out>4464</out>
						<enabled>FALSE</enabled>
					</clipitem>
					<clipitem frameBlend="FALSE" id="clipitem-rejected-1294">
						<file id="file-1"/>
						<name>[REJECTED] bandicam 2025-06-02 00-01-10-144</name>
						<rate>
							<timebase>60</timebase>
							<ntsc>TRUE</ntsc>
						</rate>
						<rate>
							<timebase>60</timebase>
							<ntsc>TRUE</ntsc>
						</rate>
						<duration>12</duration>
						<start>4488</start>
						<end>4500</end>
						<in>4488</in>
						<out>4500</out>
						<enabled>FALSE</enabled>
					</clipitem>
					<clipitem frameBlend="FALSE" id="clipitem-rejected-1295">
						<file id="file-1"/>
						<name>[REJECTED] bandicam 2025-06-02 00-01-10-144</name>
						<rate>
							<timebase>60</timebase>
							<ntsc>TRUE</ntsc>
						</rate>
						<rate>
							<timebase>60</timebase>
							<ntsc>TRUE</ntsc>
						</rate>
						<duration>36</duration>
						<start>4560</start>
						<end>4596</end>
						<in>4560</in>
						<out>4596</out>
						<enabled>FALSE</enabled>
					</clipitem>
					<clipitem frameBlend="FALSE" id="clipitem-rejected-1296">
						<file id="file-1"/>
						<name>[REJECTED] bandicam 2025-06-02 00-01-10-144</name>
						<rate>
							<timebase>60</timebase>
							<ntsc>TRUE</ntsc>
						</rate>
						<rate>
							<timebase>60</timebase>
							<ntsc>TRUE</ntsc>
						</rate>
						<duration>6</duration>
						<start>4638</start>
						<end>4644</end>
						<in>4638</in>
						<out>4644</out>
						<enabled>FALSE</enabled>
					</clipitem>
					<clipitem frameBlend="FALSE" id="clipitem-rejected-1297">
						<file id="file-1"/>
						<name>[REJECTED] bandicam 2025-06-02 00-01-10-144</name>
						<rate>
							<timebase>60</timebase>
							<ntsc>TRUE</ntsc>
						</rate>
						<rate>
							<timebase>60</timebase>
							<ntsc>TRUE</ntsc>
						</rate>
						<duration>12</duration>
						<start>4686</start>
						<end>4698</end>
						<in>4686</in>
						<out>4698</out>
						<enabled>FALSE</enabled>
					</clipitem>
					<clipitem frameBlend="FALSE" id="clipitem-rejected-1298">
						<file id="file-1"/>
						<name>[REJECTED] bandicam 2025-06-02 00-01-10-144</name>
						<rate>
							<timebase>60</timebase>
							<ntsc>TRUE</ntsc>
						</rate>
						<rate>
							<timebase>60</timebase>
							<ntsc>TRUE</ntsc>
						</rate>
						<duration>6</duration>
						<start>4710</start>
						<end>4716</end>
						<in>4710</in>
						<out>4716</out>
						<enabled>FALSE</enabled>
					</clipitem>
					<clipitem frameBlend="FALSE" id="clipitem-rejected-1299">
						<file id="file-1"/>
						<name>[REJECTED] bandicam 2025-06-02 00-01-10-144</name>
						<rate>
							<timebase>60</timebase>
							<ntsc>TRUE</ntsc>
						</rate>
						<rate>
							<timebase>60</timebase>
							<ntsc>TRUE</ntsc>
						</rate>
						<duration>18</duration>
						<start>4824</start>
						<end>4842</end>
						<in>4824</in>
						<out>4842</out>
						<enabled>FALSE</enabled>
					</clipitem>
					<clipitem frameBlend="FALSE" id="clipitem-rejected-1300">
						<file id="file-1"/>
						<name>[REJECTED] bandicam 2025-06-02 00-01-10-144</name>
						<rate>
							<timebase>60</timebase>
							<ntsc>TRUE</ntsc>
						</rate>
						<rate>
							<timebase>60</timebase>
							<ntsc>TRUE</ntsc>
						</rate>
						<duration>0</duration>
						<start>4854</start>
						<end>4854</end>
						<in>4854</in>
						<out>4854</out>
						<enabled>FALSE</enabled>
					</clipitem>
					<clipitem frameBlend="FALSE" id="clipitem-rejected-1301">
						<file id="file-1"/>
						<name>[REJECTED] bandicam 2025-06-02 00-01-10-144</name>
						<rate>
							<timebase>60</timebase>
							<ntsc>TRUE</ntsc>
						</rate>
						<rate>
							<timebase>60</timebase>
							<ntsc>TRUE</ntsc>
						</rate>
						<duration>6</duration>
						<start>4878</start>
						<end>4884</end>
						<in>4878</in>
						<out>4884</out>
						<enabled>FALSE</enabled>
					</clipitem>
					<clipitem frameBlend="FALSE" id="clipitem-rejected-1302">
						<file id="file-1"/>
						<name>[REJECTED] bandicam 2025-06-02 00-01-10-144</name>
						<rate>
							<timebase>60</timebase>
							<ntsc>TRUE</ntsc>
						</rate>
						<rate>
							<timebase>60</timebase>
							<ntsc>TRUE</ntsc>
						</rate>
						<duration>0</duration>
						<start>4902</start>
						<end>4902</end>
						<in>4902</in>
						<out>4902</out>
						<enabled>FALSE</enabled>
					</clipitem>
					<clipitem frameBlend="FALSE" id="clipitem-rejected-1303">
						<file id="file-1"/>
						<name>[REJECTED] bandicam 2025-06-02 00-01-10-144</name>
						<rate>
							<timebase>60</timebase>
							<ntsc>TRUE</ntsc>
						</rate>
						<rate>
							<timebase>60</timebase>
							<ntsc>TRUE</ntsc>
						</rate>
						<duration>0</duration>
						<start>4938</start>
						<end>4938</end>
						<in>4938</in>
						<out>4938</out>
						<enabled>FALSE</enabled>
					</clipitem>
					<clipitem frameBlend="FALSE" id="clipitem-rejected-1304">
						<file id="file-1"/>
						<name>[REJECTED] bandicam 2025-06-02 00-01-10-144</name>
						<rate>
							<timebase>60</timebase>
							<ntsc>TRUE</ntsc>
						</rate>
						<rate>
							<timebase>60</timebase>
							<ntsc>TRUE</ntsc>
						</rate>
						<duration>30</duration>
						<start>4980</start>
						<end>5010</end>
						<in>4980</in>
						<out>5010</out>
						<enabled>FALSE</enabled>
					</clipitem>
					<clipitem frameBlend="FALSE" id="clipitem-rejected-1305">
						<file id="file-1"/>
						<name>[REJECTED] bandicam 2025-06-02 00-01-10-144</name>
						<rate>
							<timebase>60</timebase>
							<ntsc>TRUE</ntsc>
						</rate>
						<rate>
							<timebase>60</timebase>
							<ntsc>TRUE</ntsc>
						</rate>
						<duration>6</duration>
						<start>5052</start>
						<end>5058</end>
						<in>5052</in>
						<out>5058</out>
						<enabled>FALSE</enabled>
					</clipitem>
					<clipitem frameBlend="FALSE" id="clipitem-rejected-1306">
						<file id="file-1"/>
						<name>[REJECTED] bandicam 2025-06-02 00-01-10-144</name>
						<rate>
							<timebase>60</timebase>
							<ntsc>TRUE</ntsc>
						</rate>
						<rate>
							<timebase>60</timebase>
							<ntsc>TRUE</ntsc>
						</rate>
						<duration>0</duration>
						<start>5076</start>
						<end>5076</end>
						<in>5076</in>
						<out>5076</out>
						<enabled>FALSE</enabled>
					</clipitem>
					<clipitem frameBlend="FALSE" id="clipitem-rejected-1307">
						<file id="file-1"/>
						<name>[REJECTED] bandicam 2025-06-02 00-01-10-144</name>
						<rate>
							<timebase>60</timebase>
							<ntsc>TRUE</ntsc>
						</rate>
						<rate>
							<timebase>60</timebase>
							<ntsc>TRUE</ntsc>
						</rate>
						<duration>18</duration>
						<start>5184</start>
						<end>5202</end>
						<in>5184</in>
						<out>5202</out>
						<enabled>FALSE</enabled>
					</clipitem>
					<clipitem frameBlend="FALSE" id="clipitem-rejected-1308">
						<file id="file-1"/>
						<name>[REJECTED] bandicam 2025-06-02 00-01-10-144</name>
						<rate>
							<timebase>60</timebase>
							<ntsc>TRUE</ntsc>
						</rate>
						<rate>
							<timebase>60</timebase>
							<ntsc>TRUE</ntsc>
						</rate>
						<duration>6</duration>
						<start>5220</start>
						<end>5226</end>
						<in>5220</in>
						<out>5226</out>
						<enabled>FALSE</enabled>
					</clipitem>
					<clipitem frameBlend="FALSE" id="clipitem-rejected-1309">
						<file id="file-1"/>
						<name>[REJECTED] bandicam 2025-06-02 00-01-10-144</name>
						<rate>
							<timebase>60</timebase>
							<ntsc>TRUE</ntsc>
						</rate>
						<rate>
							<timebase>60</timebase>
							<ntsc>TRUE</ntsc>
						</rate>
						<duration>54</duration>
						<start>5268</start>
						<end>5322</end>
						<in>5268</in>
						<out>5322</out>
						<enabled>FALSE</enabled>
					</clipitem>
					<clipitem frameBlend="FALSE" id="clipitem-rejected-1310">
						<file id="file-1"/>
						<name>[REJECTED] bandicam 2025-06-02 00-01-10-144</name>
						<rate>
							<timebase>60</timebase>
							<ntsc>TRUE</ntsc>
						</rate>
						<rate>
							<timebase>60</timebase>
							<ntsc>TRUE</ntsc>
						</rate>
						<duration>6</duration>
						<start>5370</start>
						<end>5376</end>
						<in>5370</in>
						<out>5376</out>
						<enabled>FALSE</enabled>
					</clipitem>
					<clipitem frameBlend="FALSE" id="clipitem-rejected-1311">
						<file id="file-1"/>
						<name>[REJECTED] bandicam 2025-06-02 00-01-10-144</name>
						<rate>
							<timebase>60</timebase>
							<ntsc>TRUE</ntsc>
						</rate>
						<rate>
							<timebase>60</timebase>
							<ntsc>TRUE</ntsc>
						</rate>
						<duration>12</duration>
						<start>5472</start>
						<end>5484</end>
						<in>5472</in>
						<out>5484</out>
						<enabled>FALSE</enabled>
					</clipitem>
					<clipitem frameBlend="FALSE" id="clipitem-rejected-1312">
						<file id="file-1"/>
						<name>[REJECTED] bandicam 2025-06-02 00-01-10-144</name>
						<rate>
							<timebase>60</timebase>
							<ntsc>TRUE</ntsc>
						</rate>
						<rate>
							<timebase>60</timebase>
							<ntsc>TRUE</ntsc>
						</rate>
						<duration>0</duration>
						<start>5526</start>
						<end>5526</end>
						<in>5526</in>
						<out>5526</out>
						<enabled>FALSE</enabled>
					</clipitem>
					<clipitem frameBlend="FALSE" id="clipitem-rejected-1313">
						<file id="file-1"/>
						<name>[REJECTED] bandicam 2025-06-02 00-01-10-144</name>
						<rate>
							<timebase>60</timebase>
							<ntsc>TRUE</ntsc>
						</rate>
						<rate>
							<timebase>60</timebase>
							<ntsc>TRUE</ntsc>
						</rate>
						<duration>12</duration>
						<start>5604</start>
						<end>5616</end>
						<in>5604</in>
						<out>5616</out>
						<enabled>FALSE</enabled>
					</clipitem>
					<clipitem frameBlend="FALSE" id="clipitem-rejected-1314">
						<file id="file-1"/>
						<name>[REJECTED] bandicam 2025-06-02 00-01-10-144</name>
						<rate>
							<timebase>60</timebase>
							<ntsc>TRUE</ntsc>
						</rate>
						<rate>
							<timebase>60</timebase>
							<ntsc>TRUE</ntsc>
						</rate>
						<duration>6</duration>
						<start>5652</start>
						<end>5658</end>
						<in>5652</in>
						<out>5658</out>
						<enabled>FALSE</enabled>
					</clipitem>
					<clipitem frameBlend="FALSE" id="clipitem-rejected-1315">
						<file id="file-1"/>
						<name>[REJECTED] bandicam 2025-06-02 00-01-10-144</name>
						<rate>
							<timebase>60</timebase>
							<ntsc>TRUE</ntsc>
						</rate>
						<rate>
							<timebase>60</timebase>
							<ntsc>TRUE</ntsc>
						</rate>
						<duration>6</duration>
						<start>5700</start>
						<end>5706</end>
						<in>5700</in>
						<out>5706</out>
						<enabled>FALSE</enabled>
					</clipitem>
					<clipitem frameBlend="FALSE" id="clipitem-rejected-1316">
						<file id="file-1"/>
						<name>[REJECTED] bandicam 2025-06-02 00-01-10-144</name>
						<rate>
							<timebase>60</timebase>
							<ntsc>TRUE</ntsc>
						</rate>
						<rate>
							<timebase>60</timebase>
							<ntsc>TRUE</ntsc>
						</rate>
						<duration>12</duration>
						<start>5784</start>
						<end>5796</end>
						<in>5784</in>
						<out>5796</out>
						<enabled>FALSE</enabled>
					</clipitem>
					<clipitem frameBlend="FALSE" id="clipitem-rejected-1317">
						<file id="file-1"/>
						<name>[REJECTED] bandicam 2025-06-02 00-01-10-144</name>
						<rate>
							<timebase>60</timebase>
							<ntsc>TRUE</ntsc>
						</rate>
						<rate>
							<timebase>60</timebase>
							<ntsc>TRUE</ntsc>
						</rate>
						<duration>36</duration>
						<start>6090</start>
						<end>6126</end>
						<in>6090</in>
						<out>6126</out>
						<enabled>FALSE</enabled>
					</clipitem>
					<clipitem frameBlend="FALSE" id="clipitem-rejected-1318">
						<file id="file-1"/>
						<name>[REJECTED] bandicam 2025-06-02 00-01-10-144</name>
						<rate>
							<timebase>60</timebase>
							<ntsc>TRUE</ntsc>
						</rate>
						<rate>
							<timebase>60</timebase>
							<ntsc>TRUE</ntsc>
						</rate>
						<duration>6</duration>
						<start>6138</start>
						<end>6144</end>
						<in>6138</in>
						<out>6144</out>
						<enabled>FALSE</enabled>
					</clipitem>
					<clipitem frameBlend="FALSE" id="clipitem-rejected-1319">
						<file id="file-1"/>
						<name>[REJECTED] bandicam 2025-06-02 00-01-10-144</name>
						<rate>
							<timebase>60</timebase>
							<ntsc>TRUE</ntsc>
						</rate>
						<rate>
							<timebase>60</timebase>
							<ntsc>TRUE</ntsc>
						</rate>
						<duration>0</duration>
						<start>6216</start>
						<end>6216</end>
						<in>6216</in>
						<out>6216</out>
						<enabled>FALSE</enabled>
					</clipitem>
					<clipitem frameBlend="FALSE" id="clipitem-rejected-1320">
						<file id="file-1"/>
						<name>[REJECTED] bandicam 2025-06-02 00-01-10-144</name>
						<rate>
							<timebase>60</timebase>
							<ntsc>TRUE</ntsc>
						</rate>
						<rate>
							<timebase>60</timebase>
							<ntsc>TRUE</ntsc>
						</rate>
						<duration>12</duration>
						<start>6264</start>
						<end>6276</end>
						<in>6264</in>
						<out>6276</out>
						<enabled>FALSE</enabled>
					</clipitem>
					<clipitem frameBlend="FALSE" id="clipitem-rejected-1321">
						<file id="file-1"/>
						<name>[REJECTED] bandicam 2025-06-02 00-01-10-144</name>
						<rate>
							<timebase>60</timebase>
							<ntsc>TRUE</ntsc>
						</rate>
						<rate>
							<timebase>60</timebase>
							<ntsc>TRUE</ntsc>
						</rate>
						<duration>6</duration>
						<start>6288</start>
						<end>6294</end>
						<in>6288</in>
						<out>6294</out>
						<enabled>FALSE</enabled>
					</clipitem>
					<clipitem frameBlend="FALSE" id="clipitem-rejected-1322">
						<file id="file-1"/>
						<name>[REJECTED] bandicam 2025-06-02 00-01-10-144</name>
						<rate>
							<timebase>60</timebase>
							<ntsc>TRUE</ntsc>
						</rate>
						<rate>
							<timebase>60</timebase>
							<ntsc>TRUE</ntsc>
						</rate>
						<duration>0</duration>
						<start>6306</start>
						<end>6306</end>
						<in>6306</in>
						<out>6306</out>
						<enabled>FALSE</enabled>
					</clipitem>
					<clipitem frameBlend="FALSE" id="clipitem-rejected-1323">
						<file id="file-1"/>
						<name>[REJECTED] bandicam 2025-06-02 00-01-10-144</name>
						<rate>
							<timebase>60</timebase>
							<ntsc>TRUE</ntsc>
						</rate>
						<rate>
							<timebase>60</timebase>
							<ntsc>TRUE</ntsc>
						</rate>
						<duration>30</duration>
						<start>6348</start>
						<end>6378</end>
						<in>6348</in>
						<out>6378</out>
						<enabled>FALSE</enabled>
					</clipitem>
					<clipitem frameBlend="FALSE" id="clipitem-rejected-1324">
						<file id="file-1"/>
						<name>[REJECTED] bandicam 2025-06-02 00-01-10-144</name>
						<rate>
							<timebase>60</timebase>
							<ntsc>TRUE</ntsc>
						</rate>
						<rate>
							<timebase>60</timebase>
							<ntsc>TRUE</ntsc>
						</rate>
						<duration>6</duration>
						<start>6420</start>
						<end>6426</end>
						<in>6420</in>
						<out>6426</out>
						<enabled>FALSE</enabled>
					</clipitem>
					<clipitem frameBlend="FALSE" id="clipitem-rejected-1325">
						<file id="file-1"/>
						<name>[REJECTED] bandicam 2025-06-02 00-01-10-144</name>
						<rate>
							<timebase>60</timebase>
							<ntsc>TRUE</ntsc>
						</rate>
						<rate>
							<timebase>60</timebase>
							<ntsc>TRUE</ntsc>
						</rate>
						<duration>0</duration>
						<start>6462</start>
						<end>6462</end>
						<in>6462</in>
						<out>6462</out>
						<enabled>FALSE</enabled>
					</clipitem>
					<clipitem frameBlend="FALSE" id="clipitem-rejected-1326">
						<file id="file-1"/>
						<name>[REJECTED] bandicam 2025-06-02 00-01-10-144</name>
						<rate>
							<timebase>60</timebase>
							<ntsc>TRUE</ntsc>
						</rate>
						<rate>
							<timebase>60</timebase>
							<ntsc>TRUE</ntsc>
						</rate>
						<duration>12</duration>
						<start>6594</start>
						<end>6606</end>
						<in>6594</in>
						<out>6606</out>
						<enabled>FALSE</enabled>
					</clipitem>
					<clipitem frameBlend="FALSE" id="clipitem-rejected-1327">
						<file id="file-1"/>
						<name>[REJECTED] bandicam 2025-06-02 00-01-10-144</name>
						<rate>
							<timebase>60</timebase>
							<ntsc>TRUE</ntsc>
						</rate>
						<rate>
							<timebase>60</timebase>
							<ntsc>TRUE</ntsc>
						</rate>
						<duration>60</duration>
						<start>6648</start>
						<end>6708</end>
						<in>6648</in>
						<out>6708</out>
						<enabled>FALSE</enabled>
					</clipitem>
					<clipitem frameBlend="FALSE" id="clipitem-rejected-1328">
						<file id="file-1"/>
						<name>[REJECTED] bandicam 2025-06-02 00-01-10-144</name>
						<rate>
							<timebase>60</timebase>
							<ntsc>TRUE</ntsc>
						</rate>
						<rate>
							<timebase>60</timebase>
							<ntsc>TRUE</ntsc>
						</rate>
						<duration>6</duration>
						<start>6720</start>
						<end>6726</end>
						<in>6720</in>
						<out>6726</out>
						<enabled>FALSE</enabled>
					</clipitem>
					<clipitem frameBlend="FALSE" id="clipitem-rejected-1329">
						<file id="file-1"/>
						<name>[REJECTED] bandicam 2025-06-02 00-01-10-144</name>
						<rate>
							<timebase>60</timebase>
							<ntsc>TRUE</ntsc>
						</rate>
						<rate>
							<timebase>60</timebase>
							<ntsc>TRUE</ntsc>
						</rate>
						<duration>6</duration>
						<start>6738</start>
						<end>6744</end>
						<in>6738</in>
						<out>6744</out>
						<enabled>FALSE</enabled>
					</clipitem>
					<clipitem frameBlend="FALSE" id="clipitem-rejected-1330">
						<file id="file-1"/>
						<name>[REJECTED] bandicam 2025-06-02 00-01-10-144</name>
						<rate>
							<timebase>60</timebase>
							<ntsc>TRUE</ntsc>
						</rate>
						<rate>
							<timebase>60</timebase>
							<ntsc>TRUE</ntsc>
						</rate>
						<duration>18</duration>
						<start>6774</start>
						<end>6792</end>
						<in>6774</in>
						<out>6792</out>
						<enabled>FALSE</enabled>
					</clipitem>
					<clipitem frameBlend="FALSE" id="clipitem-rejected-1331">
						<file id="file-1"/>
						<name>[REJECTED] bandicam 2025-06-02 00-01-10-144</name>
						<rate>
							<timebase>60</timebase>
							<ntsc>TRUE</ntsc>
						</rate>
						<rate>
							<timebase>60</timebase>
							<ntsc>TRUE</ntsc>
						</rate>
						<duration>24</duration>
						<start>6864</start>
						<end>6888</end>
						<in>6864</in>
						<out>6888</out>
						<enabled>FALSE</enabled>
					</clipitem>
					<clipitem frameBlend="FALSE" id="clipitem-rejected-1332">
						<file id="file-1"/>
						<name>[REJECTED] bandicam 2025-06-02 00-01-10-144</name>
						<rate>
							<timebase>60</timebase>
							<ntsc>TRUE</ntsc>
						</rate>
						<rate>
							<timebase>60</timebase>
							<ntsc>TRUE</ntsc>
						</rate>
						<duration>0</duration>
						<start>6906</start>
						<end>6906</end>
						<in>6906</in>
						<out>6906</out>
						<enabled>FALSE</enabled>
					</clipitem>
					<clipitem frameBlend="FALSE" id="clipitem-rejected-1333">
						<file id="file-1"/>
						<name>[REJECTED] bandicam 2025-06-02 00-01-10-144</name>
						<rate>
							<timebase>60</timebase>
							<ntsc>TRUE</ntsc>
						</rate>
						<rate>
							<timebase>60</timebase>
							<ntsc>TRUE</ntsc>
						</rate>
						<duration>0</duration>
						<start>6948</start>
						<end>6948</end>
						<in>6948</in>
						<out>6948</out>
						<enabled>FALSE</enabled>
					</clipitem>
					<clipitem frameBlend="FALSE" id="clipitem-rejected-1334">
						<file id="file-1"/>
						<name>[REJECTED] bandicam 2025-06-02 00-01-10-144</name>
						<rate>
							<timebase>60</timebase>
							<ntsc>TRUE</ntsc>
						</rate>
						<rate>
							<timebase>60</timebase>
							<ntsc>TRUE</ntsc>
						</rate>
						<duration>36</duration>
						<start>6960</start>
						<end>6996</end>
						<in>6960</in>
						<out>6996</out>
						<enabled>FALSE</enabled>
					</clipitem>
					<clipitem frameBlend="FALSE" id="clipitem-rejected-1335">
						<file id="file-1"/>
						<name>[REJECTED] bandicam 2025-06-02 00-01-10-144</name>
						<rate>
							<timebase>60</timebase>
							<ntsc>TRUE</ntsc>
						</rate>
						<rate>
							<timebase>60</timebase>
							<ntsc>TRUE</ntsc>
						</rate>
						<duration>0</duration>
						<start>7014</start>
						<end>7014</end>
						<in>7014</in>
						<out>7014</out>
						<enabled>FALSE</enabled>
					</clipitem>
					<clipitem frameBlend="FALSE" id="clipitem-rejected-1336">
						<file id="file-1"/>
						<name>[REJECTED] bandicam 2025-06-02 00-01-10-144</name>
						<rate>
							<timebase>60</timebase>
							<ntsc>TRUE</ntsc>
						</rate>
						<rate>
							<timebase>60</timebase>
							<ntsc>TRUE</ntsc>
						</rate>
						<duration>12</duration>
						<start>7056</start>
						<end>7068</end>
						<in>7056</in>
						<out>7068</out>
						<enabled>FALSE</enabled>
					</clipitem>
					<clipitem frameBlend="FALSE" id="clipitem-rejected-1337">
						<file id="file-1"/>
						<name>[REJECTED] bandicam 2025-06-02 00-01-10-144</name>
						<rate>
							<timebase>60</timebase>
							<ntsc>TRUE</ntsc>
						</rate>
						<rate>
							<timebase>60</timebase>
							<ntsc>TRUE</ntsc>
						</rate>
						<duration>6</duration>
						<start>0</start>
						<end>6</end>
						<in>0</in>
						<out>6</out>
						<enabled>FALSE</enabled>
					</clipitem>
					<clipitem frameBlend="FALSE" id="clipitem-rejected-1338">
						<file id="file-1"/>
						<name>[REJECTED] bandicam 2025-06-02 00-01-10-144</name>
						<rate>
							<timebase>60</timebase>
							<ntsc>TRUE</ntsc>
						</rate>
						<rate>
							<timebase>60</timebase>
							<ntsc>TRUE</ntsc>
						</rate>
						<duration>18</duration>
						<start>30</start>
						<end>48</end>
						<in>30</in>
						<out>48</out>
						<enabled>FALSE</enabled>
					</clipitem>
					<clipitem frameBlend="FALSE" id="clipitem-rejected-1339">
						<file id="file-1"/>
						<name>[REJECTED] bandicam 2025-06-02 00-01-10-144</name>
						<rate>
							<timebase>60</timebase>
							<ntsc>TRUE</ntsc>
						</rate>
						<rate>
							<timebase>60</timebase>
							<ntsc>TRUE</ntsc>
						</rate>
						<duration>6</duration>
						<start>96</start>
						<end>102</end>
						<in>96</in>
						<out>102</out>
						<enabled>FALSE</enabled>
					</clipitem>
					<clipitem frameBlend="FALSE" id="clipitem-rejected-1340">
						<file id="file-1"/>
						<name>[REJECTED] bandicam 2025-06-02 00-01-10-144</name>
						<rate>
							<timebase>60</timebase>
							<ntsc>TRUE</ntsc>
						</rate>
						<rate>
							<timebase>60</timebase>
							<ntsc>TRUE</ntsc>
						</rate>
						<duration>36</duration>
						<start>132</start>
						<end>168</end>
						<in>132</in>
						<out>168</out>
						<enabled>FALSE</enabled>
					</clipitem>
					<clipitem frameBlend="FALSE" id="clipitem-rejected-1341">
						<file id="file-1"/>
						<name>[REJECTED] bandicam 2025-06-02 00-01-10-144</name>
						<rate>
							<timebase>60</timebase>
							<ntsc>TRUE</ntsc>
						</rate>
						<rate>
							<timebase>60</timebase>
							<ntsc>TRUE</ntsc>
						</rate>
						<duration>102</duration>
						<start>192</start>
						<end>294</end>
						<in>192</in>
						<out>294</out>
						<enabled>FALSE</enabled>
					</clipitem>
					<clipitem frameBlend="FALSE" id="clipitem-rejected-1342">
						<file id="file-1"/>
						<name>[REJECTED] bandicam 2025-06-02 00-01-10-144</name>
						<rate>
							<timebase>60</timebase>
							<ntsc>TRUE</ntsc>
						</rate>
						<rate>
							<timebase>60</timebase>
							<ntsc>TRUE</ntsc>
						</rate>
						<duration>48</duration>
						<start>306</start>
						<end>354</end>
						<in>306</in>
						<out>354</out>
						<enabled>FALSE</enabled>
					</clipitem>
					<clipitem frameBlend="FALSE" id="clipitem-rejected-1343">
						<file id="file-1"/>
						<name>[REJECTED] bandicam 2025-06-02 00-01-10-144</name>
						<rate>
							<timebase>60</timebase>
							<ntsc>TRUE</ntsc>
						</rate>
						<rate>
							<timebase>60</timebase>
							<ntsc>TRUE</ntsc>
						</rate>
						<duration>48</duration>
						<start>384</start>
						<end>432</end>
						<in>384</in>
						<out>432</out>
						<enabled>FALSE</enabled>
					</clipitem>
					<clipitem frameBlend="FALSE" id="clipitem-rejected-1344">
						<file id="file-1"/>
						<name>[REJECTED] bandicam 2025-06-02 00-01-10-144</name>
						<rate>
							<timebase>60</timebase>
							<ntsc>TRUE</ntsc>
						</rate>
						<rate>
							<timebase>60</timebase>
							<ntsc>TRUE</ntsc>
						</rate>
						<duration>0</duration>
						<start>444</start>
						<end>444</end>
						<in>444</in>
						<out>444</out>
						<enabled>FALSE</enabled>
					</clipitem>
					<clipitem frameBlend="FALSE" id="clipitem-rejected-1345">
						<file id="file-1"/>
						<name>[REJECTED] bandicam 2025-06-02 00-01-10-144</name>
						<rate>
							<timebase>60</timebase>
							<ntsc>TRUE</ntsc>
						</rate>
						<rate>
							<timebase>60</timebase>
							<ntsc>TRUE</ntsc>
						</rate>
						<duration>6</duration>
						<start>492</start>
						<end>498</end>
						<in>492</in>
						<out>498</out>
						<enabled>FALSE</enabled>
					</clipitem>
					<clipitem frameBlend="FALSE" id="clipitem-rejected-1346">
						<file id="file-1"/>
						<name>[REJECTED] bandicam 2025-06-02 00-01-10-144</name>
						<rate>
							<timebase>60</timebase>
							<ntsc>TRUE</ntsc>
						</rate>
						<rate>
							<timebase>60</timebase>
							<ntsc>TRUE</ntsc>
						</rate>
						<duration>12</duration>
						<start>510</start>
						<end>522</end>
						<in>510</in>
						<out>522</out>
						<enabled>FALSE</enabled>
					</clipitem>
					<clipitem frameBlend="FALSE" id="clipitem-rejected-1347">
						<file id="file-1"/>
						<name>[REJECTED] bandicam 2025-06-02 00-01-10-144</name>
						<rate>
							<timebase>60</timebase>
							<ntsc>TRUE</ntsc>
						</rate>
						<rate>
							<timebase>60</timebase>
							<ntsc>TRUE</ntsc>
						</rate>
						<duration>30</duration>
						<start>546</start>
						<end>576</end>
						<in>546</in>
						<out>576</out>
						<enabled>FALSE</enabled>
					</clipitem>
					<clipitem frameBlend="FALSE" id="clipitem-rejected-1348">
						<file id="file-1"/>
						<name>[REJECTED] bandicam 2025-06-02 00-01-10-144</name>
						<rate>
							<timebase>60</timebase>
							<ntsc>TRUE</ntsc>
						</rate>
						<rate>
							<timebase>60</timebase>
							<ntsc>TRUE</ntsc>
						</rate>
						<duration>6</duration>
						<start>612</start>
						<end>618</end>
						<in>612</in>
						<out>618</out>
						<enabled>FALSE</enabled>
					</clipitem>
					<clipitem frameBlend="FALSE" id="clipitem-rejected-1349">
						<file id="file-1"/>
						<name>[REJECTED] bandicam 2025-06-02 00-01-10-144</name>
						<rate>
							<timebase>60</timebase>
							<ntsc>TRUE</ntsc>
						</rate>
						<rate>
							<timebase>60</timebase>
							<ntsc>TRUE</ntsc>
						</rate>
						<duration>204</duration>
						<start>642</start>
						<end>846</end>
						<in>642</in>
						<out>846</out>
						<enabled>FALSE</enabled>
					</clipitem>
					<clipitem frameBlend="FALSE" id="clipitem-rejected-1350">
						<file id="file-1"/>
						<name>[REJECTED] bandicam 2025-06-02 00-01-10-144</name>
						<rate>
							<timebase>60</timebase>
							<ntsc>TRUE</ntsc>
						</rate>
						<rate>
							<timebase>60</timebase>
							<ntsc>TRUE</ntsc>
						</rate>
						<duration>48</duration>
						<start>858</start>
						<end>906</end>
						<in>858</in>
						<out>906</out>
						<enabled>FALSE</enabled>
					</clipitem>
					<clipitem frameBlend="FALSE" id="clipitem-rejected-1351">
						<file id="file-1"/>
						<name>[REJECTED] bandicam 2025-06-02 00-01-10-144</name>
						<rate>
							<timebase>60</timebase>
							<ntsc>TRUE</ntsc>
						</rate>
						<rate>
							<timebase>60</timebase>
							<ntsc>TRUE</ntsc>
						</rate>
						<duration>12</duration>
						<start>918</start>
						<end>930</end>
						<in>918</in>
						<out>930</out>
						<enabled>FALSE</enabled>
					</clipitem>
					<clipitem frameBlend="FALSE" id="clipitem-rejected-1352">
						<file id="file-1"/>
						<name>[REJECTED] bandicam 2025-06-02 00-01-10-144</name>
						<rate>
							<timebase>60</timebase>
							<ntsc>TRUE</ntsc>
						</rate>
						<rate>
							<timebase>60</timebase>
							<ntsc>TRUE</ntsc>
						</rate>
						<duration>6</duration>
						<start>942</start>
						<end>948</end>
						<in>942</in>
						<out>948</out>
						<enabled>FALSE</enabled>
					</clipitem>
					<clipitem frameBlend="FALSE" id="clipitem-rejected-1353">
						<file id="file-1"/>
						<name>[REJECTED] bandicam 2025-06-02 00-01-10-144</name>
						<rate>
							<timebase>60</timebase>
							<ntsc>TRUE</ntsc>
						</rate>
						<rate>
							<timebase>60</timebase>
							<ntsc>TRUE</ntsc>
						</rate>
						<duration>18</duration>
						<start>960</start>
						<end>978</end>
						<in>960</in>
						<out>978</out>
						<enabled>FALSE</enabled>
					</clipitem>
					<clipitem frameBlend="FALSE" id="clipitem-rejected-1354">
						<file id="file-1"/>
						<name>[REJECTED] bandicam 2025-06-02 00-01-10-144</name>
						<rate>
							<timebase>60</timebase>
							<ntsc>TRUE</ntsc>
						</rate>
						<rate>
							<timebase>60</timebase>
							<ntsc>TRUE</ntsc>
						</rate>
						<duration>78</duration>
						<start>1002</start>
						<end>1080</end>
						<in>1002</in>
						<out>1080</out>
						<enabled>FALSE</enabled>
					</clipitem>
					<clipitem frameBlend="FALSE" id="clipitem-rejected-1355">
						<file id="file-1"/>
						<name>[REJECTED] bandicam 2025-06-02 00-01-10-144</name>
						<rate>
							<timebase>60</timebase>
							<ntsc>TRUE</ntsc>
						</rate>
						<rate>
							<timebase>60</timebase>
							<ntsc>TRUE</ntsc>
						</rate>
						<duration>84</duration>
						<start>1104</start>
						<end>1188</end>
						<in>1104</in>
						<out>1188</out>
						<enabled>FALSE</enabled>
					</clipitem>
					<clipitem frameBlend="FALSE" id="clipitem-rejected-1356">
						<file id="file-1"/>
						<name>[REJECTED] bandicam 2025-06-02 00-01-10-144</name>
						<rate>
							<timebase>60</timebase>
							<ntsc>TRUE</ntsc>
						</rate>
						<rate>
							<timebase>60</timebase>
							<ntsc>TRUE</ntsc>
						</rate>
						<duration>0</duration>
						<start>1200</start>
						<end>1200</end>
						<in>1200</in>
						<out>1200</out>
						<enabled>FALSE</enabled>
					</clipitem>
					<clipitem frameBlend="FALSE" id="clipitem-rejected-1357">
						<file id="file-1"/>
						<name>[REJECTED] bandicam 2025-06-02 00-01-10-144</name>
						<rate>
							<timebase>60</timebase>
							<ntsc>TRUE</ntsc>
						</rate>
						<rate>
							<timebase>60</timebase>
							<ntsc>TRUE</ntsc>
						</rate>
						<duration>84</duration>
						<start>1230</start>
						<end>1314</end>
						<in>1230</in>
						<out>1314</out>
						<enabled>FALSE</enabled>
					</clipitem>
					<clipitem frameBlend="FALSE" id="clipitem-rejected-1358">
						<file id="file-1"/>
						<name>[REJECTED] bandicam 2025-06-02 00-01-10-144</name>
						<rate>
							<timebase>60</timebase>
							<ntsc>TRUE</ntsc>
						</rate>
						<rate>
							<timebase>60</timebase>
							<ntsc>TRUE</ntsc>
						</rate>
						<duration>54</duration>
						<start>1326</start>
						<end>1380</end>
						<in>1326</in>
						<out>1380</out>
						<enabled>FALSE</enabled>
					</clipitem>
					<clipitem frameBlend="FALSE" id="clipitem-rejected-1359">
						<file id="file-1"/>
						<name>[REJECTED] bandicam 2025-06-02 00-01-10-144</name>
						<rate>
							<timebase>60</timebase>
							<ntsc>TRUE</ntsc>
						</rate>
						<rate>
							<timebase>60</timebase>
							<ntsc>TRUE</ntsc>
						</rate>
						<duration>6</duration>
						<start>1392</start>
						<end>1398</end>
						<in>1392</in>
						<out>1398</out>
						<enabled>FALSE</enabled>
					</clipitem>
					<clipitem frameBlend="FALSE" id="clipitem-rejected-1360">
						<file id="file-1"/>
						<name>[REJECTED] bandicam 2025-06-02 00-01-10-144</name>
						<rate>
							<timebase>60</timebase>
							<ntsc>TRUE</ntsc>
						</rate>
						<rate>
							<timebase>60</timebase>
							<ntsc>TRUE</ntsc>
						</rate>
						<duration>12</duration>
						<start>1428</start>
						<end>1440</end>
						<in>1428</in>
						<out>1440</out>
						<enabled>FALSE</enabled>
					</clipitem>
					<clipitem frameBlend="FALSE" id="clipitem-rejected-1361">
						<file id="file-1"/>
						<name>[REJECTED] bandicam 2025-06-02 00-01-10-144</name>
						<rate>
							<timebase>60</timebase>
							<ntsc>TRUE</ntsc>
						</rate>
						<rate>
							<timebase>60</timebase>
							<ntsc>TRUE</ntsc>
						</rate>
						<duration>96</duration>
						<start>1464</start>
						<end>1560</end>
						<in>1464</in>
						<out>1560</out>
						<enabled>FALSE</enabled>
					</clipitem>
					<clipitem frameBlend="FALSE" id="clipitem-rejected-1362">
						<file id="file-1"/>
						<name>[REJECTED] bandicam 2025-06-02 00-01-10-144</name>
						<rate>
							<timebase>60</timebase>
							<ntsc>TRUE</ntsc>
						</rate>
						<rate>
							<timebase>60</timebase>
							<ntsc>TRUE</ntsc>
						</rate>
						<duration>102</duration>
						<start>1584</start>
						<end>1686</end>
						<in>1584</in>
						<out>1686</out>
						<enabled>FALSE</enabled>
					</clipitem>
					<clipitem frameBlend="FALSE" id="clipitem-rejected-1363">
						<file id="file-1"/>
						<name>[REJECTED] bandicam 2025-06-02 00-01-10-144</name>
						<rate>
							<timebase>60</timebase>
							<ntsc>TRUE</ntsc>
						</rate>
						<rate>
							<timebase>60</timebase>
							<ntsc>TRUE</ntsc>
						</rate>
						<duration>12</duration>
						<start>1728</start>
						<end>1740</end>
						<in>1728</in>
						<out>1740</out>
						<enabled>FALSE</enabled>
					</clipitem>
					<clipitem frameBlend="FALSE" id="clipitem-rejected-1364">
						<file id="file-1"/>
						<name>[REJECTED] bandicam 2025-06-02 00-01-10-144</name>
						<rate>
							<timebase>60</timebase>
							<ntsc>TRUE</ntsc>
						</rate>
						<rate>
							<timebase>60</timebase>
							<ntsc>TRUE</ntsc>
						</rate>
						<duration>0</duration>
						<start>1770</start>
						<end>1770</end>
						<in>1770</in>
						<out>1770</out>
						<enabled>FALSE</enabled>
					</clipitem>
					<clipitem frameBlend="FALSE" id="clipitem-rejected-1365">
						<file id="file-1"/>
						<name>[REJECTED] bandicam 2025-06-02 00-01-10-144</name>
						<rate>
							<timebase>60</timebase>
							<ntsc>TRUE</ntsc>
						</rate>
						<rate>
							<timebase>60</timebase>
							<ntsc>TRUE</ntsc>
						</rate>
						<duration>24</duration>
						<start>1782</start>
						<end>1806</end>
						<in>1782</in>
						<out>1806</out>
						<enabled>FALSE</enabled>
					</clipitem>
					<clipitem frameBlend="FALSE" id="clipitem-rejected-1366">
						<file id="file-1"/>
						<name>[REJECTED] bandicam 2025-06-02 00-01-10-144</name>
						<rate>
							<timebase>60</timebase>
							<ntsc>TRUE</ntsc>
						</rate>
						<rate>
							<timebase>60</timebase>
							<ntsc>TRUE</ntsc>
						</rate>
						<duration>0</duration>
						<start>1836</start>
						<end>1836</end>
						<in>1836</in>
						<out>1836</out>
						<enabled>FALSE</enabled>
					</clipitem>
					<clipitem frameBlend="FALSE" id="clipitem-rejected-1367">
						<file id="file-1"/>
						<name>[REJECTED] bandicam 2025-06-02 00-01-10-144</name>
						<rate>
							<timebase>60</timebase>
							<ntsc>TRUE</ntsc>
						</rate>
						<rate>
							<timebase>60</timebase>
							<ntsc>TRUE</ntsc>
						</rate>
						<duration>6</duration>
						<start>1860</start>
						<end>1866</end>
						<in>1860</in>
						<out>1866</out>
						<enabled>FALSE</enabled>
					</clipitem>
					<clipitem frameBlend="FALSE" id="clipitem-rejected-1368">
						<file id="file-1"/>
						<name>[REJECTED] bandicam 2025-06-02 00-01-10-144</name>
						<rate>
							<timebase>60</timebase>
							<ntsc>TRUE</ntsc>
						</rate>
						<rate>
							<timebase>60</timebase>
							<ntsc>TRUE</ntsc>
						</rate>
						<duration>0</duration>
						<start>1878</start>
						<end>1878</end>
						<in>1878</in>
						<out>1878</out>
						<enabled>FALSE</enabled>
					</clipitem>
					<clipitem frameBlend="FALSE" id="clipitem-rejected-1369">
						<file id="file-1"/>
						<name>[REJECTED] bandicam 2025-06-02 00-01-10-144</name>
						<rate>
							<timebase>60</timebase>
							<ntsc>TRUE</ntsc>
						</rate>
						<rate>
							<timebase>60</timebase>
							<ntsc>TRUE</ntsc>
						</rate>
						<duration>24</duration>
						<start>1896</start>
						<end>1920</end>
						<in>1896</in>
						<out>1920</out>
						<enabled>FALSE</enabled>
					</clipitem>
					<clipitem frameBlend="FALSE" id="clipitem-rejected-1370">
						<file id="file-1"/>
						<name>[REJECTED] bandicam 2025-06-02 00-01-10-144</name>
						<rate>
							<timebase>60</timebase>
							<ntsc>TRUE</ntsc>
						</rate>
						<rate>
							<timebase>60</timebase>
							<ntsc>TRUE</ntsc>
						</rate>
						<duration>228</duration>
						<start>1944</start>
						<end>2172</end>
						<in>1944</in>
						<out>2172</out>
						<enabled>FALSE</enabled>
					</clipitem>
					<clipitem frameBlend="FALSE" id="clipitem-rejected-1371">
						<file id="file-1"/>
						<name>[REJECTED] bandicam 2025-06-02 00-01-10-144</name>
						<rate>
							<timebase>60</timebase>
							<ntsc>TRUE</ntsc>
						</rate>
						<rate>
							<timebase>60</timebase>
							<ntsc>TRUE</ntsc>
						</rate>
						<duration>78</duration>
						<start>2196</start>
						<end>2274</end>
						<in>2196</in>
						<out>2274</out>
						<enabled>FALSE</enabled>
					</clipitem>
					<clipitem frameBlend="FALSE" id="clipitem-rejected-1372">
						<file id="file-1"/>
						<name>[REJECTED] bandicam 2025-06-02 00-01-10-144</name>
						<rate>
							<timebase>60</timebase>
							<ntsc>TRUE</ntsc>
						</rate>
						<rate>
							<timebase>60</timebase>
							<ntsc>TRUE</ntsc>
						</rate>
						<duration>0</duration>
						<start>2298</start>
						<end>2298</end>
						<in>2298</in>
						<out>2298</out>
						<enabled>FALSE</enabled>
					</clipitem>
					<clipitem frameBlend="FALSE" id="clipitem-rejected-1373">
						<file id="file-1"/>
						<name>[REJECTED] bandicam 2025-06-02 00-01-10-144</name>
						<rate>
							<timebase>60</timebase>
							<ntsc>TRUE</ntsc>
						</rate>
						<rate>
							<timebase>60</timebase>
							<ntsc>TRUE</ntsc>
						</rate>
						<duration>90</duration>
						<start>2352</start>
						<end>2442</end>
						<in>2352</in>
						<out>2442</out>
						<enabled>FALSE</enabled>
					</clipitem>
					<clipitem frameBlend="FALSE" id="clipitem-rejected-1374">
						<file id="file-1"/>
						<name>[REJECTED] bandicam 2025-06-02 00-01-10-144</name>
						<rate>
							<timebase>60</timebase>
							<ntsc>TRUE</ntsc>
						</rate>
						<rate>
							<timebase>60</timebase>
							<ntsc>TRUE</ntsc>
						</rate>
						<duration>6</duration>
						<start>2466</start>
						<end>2472</end>
						<in>2466</in>
						<out>2472</out>
						<enabled>FALSE</enabled>
					</clipitem>
					<clipitem frameBlend="FALSE" id="clipitem-rejected-1375">
						<file id="file-1"/>
						<name>[REJECTED] bandicam 2025-06-02 00-01-10-144</name>
						<rate>
							<timebase>60</timebase>
							<ntsc>TRUE</ntsc>
						</rate>
						<rate>
							<timebase>60</timebase>
							<ntsc>TRUE</ntsc>
						</rate>
						<duration>0</duration>
						<start>2490</start>
						<end>2490</end>
						<in>2490</in>
						<out>2490</out>
						<enabled>FALSE</enabled>
					</clipitem>
					<clipitem frameBlend="FALSE" id="clipitem-rejected-1376">
						<file id="file-1"/>
						<name>[REJECTED] bandicam 2025-06-02 00-01-10-144</name>
						<rate>
							<timebase>60</timebase>
							<ntsc>TRUE</ntsc>
						</rate>
						<rate>
							<timebase>60</timebase>
							<ntsc>TRUE</ntsc>
						</rate>
						<duration>24</duration>
						<start>2508</start>
						<end>2532</end>
						<in>2508</in>
						<out>2532</out>
						<enabled>FALSE</enabled>
					</clipitem>
					<clipitem frameBlend="FALSE" id="clipitem-rejected-1377">
						<file id="file-1"/>
						<name>[REJECTED] bandicam 2025-06-02 00-01-10-144</name>
						<rate>
							<timebase>60</timebase>
							<ntsc>TRUE</ntsc>
						</rate>
						<rate>
							<timebase>60</timebase>
							<ntsc>TRUE</ntsc>
						</rate>
						<duration>0</duration>
						<start>2556</start>
						<end>2556</end>
						<in>2556</in>
						<out>2556</out>
						<enabled>FALSE</enabled>
					</clipitem>
					<clipitem frameBlend="FALSE" id="clipitem-rejected-1378">
						<file id="file-1"/>
						<name>[REJECTED] bandicam 2025-06-02 00-01-10-144</name>
						<rate>
							<timebase>60</timebase>
							<ntsc>TRUE</ntsc>
						</rate>
						<rate>
							<timebase>60</timebase>
							<ntsc>TRUE</ntsc>
						</rate>
						<duration>12</duration>
						<start>2574</start>
						<end>2586</end>
						<in>2574</in>
						<out>2586</out>
						<enabled>FALSE</enabled>
					</clipitem>
					<clipitem frameBlend="FALSE" id="clipitem-rejected-1379">
						<file id="file-1"/>
						<name>[REJECTED] bandicam 2025-06-02 00-01-10-144</name>
						<rate>
							<timebase>60</timebase>
							<ntsc>TRUE</ntsc>
						</rate>
						<rate>
							<timebase>60</timebase>
							<ntsc>TRUE</ntsc>
						</rate>
						<duration>0</duration>
						<start>2634</start>
						<end>2634</end>
						<in>2634</in>
						<out>2634</out>
						<enabled>FALSE</enabled>
					</clipitem>
					<clipitem frameBlend="FALSE" id="clipitem-rejected-1380">
						<file id="file-1"/>
						<name>[REJECTED] bandicam 2025-06-02 00-01-10-144</name>
						<rate>
							<timebase>60</timebase>
							<ntsc>TRUE</ntsc>
						</rate>
						<rate>
							<timebase>60</timebase>
							<ntsc>TRUE</ntsc>
						</rate>
						<duration>48</duration>
						<start>2670</start>
						<end>2718</end>
						<in>2670</in>
						<out>2718</out>
						<enabled>FALSE</enabled>
					</clipitem>
					<clipitem frameBlend="FALSE" id="clipitem-rejected-1381">
						<file id="file-1"/>
						<name>[REJECTED] bandicam 2025-06-02 00-01-10-144</name>
						<rate>
							<timebase>60</timebase>
							<ntsc>TRUE</ntsc>
						</rate>
						<rate>
							<timebase>60</timebase>
							<ntsc>TRUE</ntsc>
						</rate>
						<duration>18</duration>
						<start>2844</start>
						<end>2862</end>
						<in>2844</in>
						<out>2862</out>
						<enabled>FALSE</enabled>
					</clipitem>
					<clipitem frameBlend="FALSE" id="clipitem-rejected-1382">
						<file id="file-1"/>
						<name>[REJECTED] bandicam 2025-06-02 00-01-10-144</name>
						<rate>
							<timebase>60</timebase>
							<ntsc>TRUE</ntsc>
						</rate>
						<rate>
							<timebase>60</timebase>
							<ntsc>TRUE</ntsc>
						</rate>
						<duration>6</duration>
						<start>2892</start>
						<end>2898</end>
						<in>2892</in>
						<out>2898</out>
						<enabled>FALSE</enabled>
					</clipitem>
					<clipitem frameBlend="FALSE" id="clipitem-rejected-1383">
						<file id="file-1"/>
						<name>[REJECTED] bandicam 2025-06-02 00-01-10-144</name>
						<rate>
							<timebase>60</timebase>
							<ntsc>TRUE</ntsc>
						</rate>
						<rate>
							<timebase>60</timebase>
							<ntsc>TRUE</ntsc>
						</rate>
						<duration>24</duration>
						<start>2916</start>
						<end>2940</end>
						<in>2916</in>
						<out>2940</out>
						<enabled>FALSE</enabled>
					</clipitem>
					<clipitem frameBlend="FALSE" id="clipitem-rejected-1384">
						<file id="file-1"/>
						<name>[REJECTED] bandicam 2025-06-02 00-01-10-144</name>
						<rate>
							<timebase>60</timebase>
							<ntsc>TRUE</ntsc>
						</rate>
						<rate>
							<timebase>60</timebase>
							<ntsc>TRUE</ntsc>
						</rate>
						<duration>6</duration>
						<start>2952</start>
						<end>2958</end>
						<in>2952</in>
						<out>2958</out>
						<enabled>FALSE</enabled>
					</clipitem>
					<clipitem frameBlend="FALSE" id="clipitem-rejected-1385">
						<file id="file-1"/>
						<name>[REJECTED] bandicam 2025-06-02 00-01-10-144</name>
						<rate>
							<timebase>60</timebase>
							<ntsc>TRUE</ntsc>
						</rate>
						<rate>
							<timebase>60</timebase>
							<ntsc>TRUE</ntsc>
						</rate>
						<duration>72</duration>
						<start>2982</start>
						<end>3054</end>
						<in>2982</in>
						<out>3054</out>
						<enabled>FALSE</enabled>
					</clipitem>
					<clipitem frameBlend="FALSE" id="clipitem-rejected-1386">
						<file id="file-1"/>
						<name>[REJECTED] bandicam 2025-06-02 00-01-10-144</name>
						<rate>
							<timebase>60</timebase>
							<ntsc>TRUE</ntsc>
						</rate>
						<rate>
							<timebase>60</timebase>
							<ntsc>TRUE</ntsc>
						</rate>
						<duration>6</duration>
						<start>3108</start>
						<end>3114</end>
						<in>3108</in>
						<out>3114</out>
						<enabled>FALSE</enabled>
					</clipitem>
					<clipitem frameBlend="FALSE" id="clipitem-rejected-1387">
						<file id="file-1"/>
						<name>[REJECTED] bandicam 2025-06-02 00-01-10-144</name>
						<rate>
							<timebase>60</timebase>
							<ntsc>TRUE</ntsc>
						</rate>
						<rate>
							<timebase>60</timebase>
							<ntsc>TRUE</ntsc>
						</rate>
						<duration>78</duration>
						<start>3144</start>
						<end>3222</end>
						<in>3144</in>
						<out>3222</out>
						<enabled>FALSE</enabled>
					</clipitem>
					<clipitem frameBlend="FALSE" id="clipitem-rejected-1388">
						<file id="file-1"/>
						<name>[REJECTED] bandicam 2025-06-02 00-01-10-144</name>
						<rate>
							<timebase>60</timebase>
							<ntsc>TRUE</ntsc>
						</rate>
						<rate>
							<timebase>60</timebase>
							<ntsc>TRUE</ntsc>
						</rate>
						<duration>18</duration>
						<start>3246</start>
						<end>3264</end>
						<in>3246</in>
						<out>3264</out>
						<enabled>FALSE</enabled>
					</clipitem>
					<clipitem frameBlend="FALSE" id="clipitem-rejected-1389">
						<file id="file-1"/>
						<name>[REJECTED] bandicam 2025-06-02 00-01-10-144</name>
						<rate>
							<timebase>60</timebase>
							<ntsc>TRUE</ntsc>
						</rate>
						<rate>
							<timebase>60</timebase>
							<ntsc>TRUE</ntsc>
						</rate>
						<duration>0</duration>
						<start>3300</start>
						<end>3300</end>
						<in>3300</in>
						<out>3300</out>
						<enabled>FALSE</enabled>
					</clipitem>
					<clipitem frameBlend="FALSE" id="clipitem-rejected-1390">
						<file id="file-1"/>
						<name>[REJECTED] bandicam 2025-06-02 00-01-10-144</name>
						<rate>
							<timebase>60</timebase>
							<ntsc>TRUE</ntsc>
						</rate>
						<rate>
							<timebase>60</timebase>
							<ntsc>TRUE</ntsc>
						</rate>
						<duration>54</duration>
						<start>3312</start>
						<end>3366</end>
						<in>3312</in>
						<out>3366</out>
						<enabled>FALSE</enabled>
					</clipitem>
					<clipitem frameBlend="FALSE" id="clipitem-rejected-1391">
						<file id="file-1"/>
						<name>[REJECTED] bandicam 2025-06-02 00-01-10-144</name>
						<rate>
							<timebase>60</timebase>
							<ntsc>TRUE</ntsc>
						</rate>
						<rate>
							<timebase>60</timebase>
							<ntsc>TRUE</ntsc>
						</rate>
						<duration>54</duration>
						<start>3390</start>
						<end>3444</end>
						<in>3390</in>
						<out>3444</out>
						<enabled>FALSE</enabled>
					</clipitem>
					<clipitem frameBlend="FALSE" id="clipitem-rejected-1392">
						<file id="file-1"/>
						<name>[REJECTED] bandicam 2025-06-02 00-01-10-144</name>
						<rate>
							<timebase>60</timebase>
							<ntsc>TRUE</ntsc>
						</rate>
						<rate>
							<timebase>60</timebase>
							<ntsc>TRUE</ntsc>
						</rate>
						<duration>12</duration>
						<start>3480</start>
						<end>3492</end>
						<in>3480</in>
						<out>3492</out>
						<enabled>FALSE</enabled>
					</clipitem>
					<clipitem frameBlend="FALSE" id="clipitem-rejected-1393">
						<file id="file-1"/>
						<name>[REJECTED] bandicam 2025-06-02 00-01-10-144</name>
						<rate>
							<timebase>60</timebase>
							<ntsc>TRUE</ntsc>
						</rate>
						<rate>
							<timebase>60</timebase>
							<ntsc>TRUE</ntsc>
						</rate>
						<duration>60</duration>
						<start>3516</start>
						<end>3576</end>
						<in>3516</in>
						<out>3576</out>
						<enabled>FALSE</enabled>
					</clipitem>
					<clipitem frameBlend="FALSE" id="clipitem-rejected-1394">
						<file id="file-1"/>
						<name>[REJECTED] bandicam 2025-06-02 00-01-10-144</name>
						<rate>
							<timebase>60</timebase>
							<ntsc>TRUE</ntsc>
						</rate>
						<rate>
							<timebase>60</timebase>
							<ntsc>TRUE</ntsc>
						</rate>
						<duration>30</duration>
						<start>3588</start>
						<end>3618</end>
						<in>3588</in>
						<out>3618</out>
						<enabled>FALSE</enabled>
					</clipitem>
					<clipitem frameBlend="FALSE" id="clipitem-rejected-1395">
						<file id="file-1"/>
						<name>[REJECTED] bandicam 2025-06-02 00-01-10-144</name>
						<rate>
							<timebase>60</timebase>
							<ntsc>TRUE</ntsc>
						</rate>
						<rate>
							<timebase>60</timebase>
							<ntsc>TRUE</ntsc>
						</rate>
						<duration>42</duration>
						<start>3648</start>
						<end>3690</end>
						<in>3648</in>
						<out>3690</out>
						<enabled>FALSE</enabled>
					</clipitem>
					<clipitem frameBlend="FALSE" id="clipitem-rejected-1396">
						<file id="file-1"/>
						<name>[REJECTED] bandicam 2025-06-02 00-01-10-144</name>
						<rate>
							<timebase>60</timebase>
							<ntsc>TRUE</ntsc>
						</rate>
						<rate>
							<timebase>60</timebase>
							<ntsc>TRUE</ntsc>
						</rate>
						<duration>60</duration>
						<start>3702</start>
						<end>3762</end>
						<in>3702</in>
						<out>3762</out>
						<enabled>FALSE</enabled>
					</clipitem>
					<clipitem frameBlend="FALSE" id="clipitem-rejected-1397">
						<file id="file-1"/>
						<name>[REJECTED] bandicam 2025-06-02 00-01-10-144</name>
						<rate>
							<timebase>60</timebase>
							<ntsc>TRUE</ntsc>
						</rate>
						<rate>
							<timebase>60</timebase>
							<ntsc>TRUE</ntsc>
						</rate>
						<duration>60</duration>
						<start>3786</start>
						<end>3846</end>
						<in>3786</in>
						<out>3846</out>
						<enabled>FALSE</enabled>
					</clipitem>
					<clipitem frameBlend="FALSE" id="clipitem-rejected-1398">
						<file id="file-1"/>
						<name>[REJECTED] bandicam 2025-06-02 00-01-10-144</name>
						<rate>
							<timebase>60</timebase>
							<ntsc>TRUE</ntsc>
						</rate>
						<rate>
							<timebase>60</timebase>
							<ntsc>TRUE</ntsc>
						</rate>
						<duration>30</duration>
						<start>3870</start>
						<end>3900</end>
						<in>3870</in>
						<out>3900</out>
						<enabled>FALSE</enabled>
					</clipitem>
					<clipitem frameBlend="FALSE" id="clipitem-rejected-1399">
						<file id="file-1"/>
						<name>[REJECTED] bandicam 2025-06-02 00-01-10-144</name>
						<rate>
							<timebase>60</timebase>
							<ntsc>TRUE</ntsc>
						</rate>
						<rate>
							<timebase>60</timebase>
							<ntsc>TRUE</ntsc>
						</rate>
						<duration>96</duration>
						<start>3924</start>
						<end>4020</end>
						<in>3924</in>
						<out>4020</out>
						<enabled>FALSE</enabled>
					</clipitem>
					<clipitem frameBlend="FALSE" id="clipitem-rejected-1400">
						<file id="file-1"/>
						<name>[REJECTED] bandicam 2025-06-02 00-01-10-144</name>
						<rate>
							<timebase>60</timebase>
							<ntsc>TRUE</ntsc>
						</rate>
						<rate>
							<timebase>60</timebase>
							<ntsc>TRUE</ntsc>
						</rate>
						<duration>0</duration>
						<start>4038</start>
						<end>4038</end>
						<in>4038</in>
						<out>4038</out>
						<enabled>FALSE</enabled>
					</clipitem>
					<clipitem frameBlend="FALSE" id="clipitem-rejected-1401">
						<file id="file-1"/>
						<name>[REJECTED] bandicam 2025-06-02 00-01-10-144</name>
						<rate>
							<timebase>60</timebase>
							<ntsc>TRUE</ntsc>
						</rate>
						<rate>
							<timebase>60</timebase>
							<ntsc>TRUE</ntsc>
						</rate>
						<duration>30</duration>
						<start>4050</start>
						<end>4080</end>
						<in>4050</in>
						<out>4080</out>
						<enabled>FALSE</enabled>
					</clipitem>
					<clipitem frameBlend="FALSE" id="clipitem-rejected-1402">
						<file id="file-1"/>
						<name>[REJECTED] bandicam 2025-06-02 00-01-10-144</name>
						<rate>
							<timebase>60</timebase>
							<ntsc>TRUE</ntsc>
						</rate>
						<rate>
							<timebase>60</timebase>
							<ntsc>TRUE</ntsc>
						</rate>
						<duration>6</duration>
						<start>4116</start>
						<end>4122</end>
						<in>4116</in>
						<out>4122</out>
						<enabled>FALSE</enabled>
					</clipitem>
					<clipitem frameBlend="FALSE" id="clipitem-rejected-1403">
						<file id="file-1"/>
						<name>[REJECTED] bandicam 2025-06-02 00-01-10-144</name>
						<rate>
							<timebase>60</timebase>
							<ntsc>TRUE</ntsc>
						</rate>
						<rate>
							<timebase>60</timebase>
							<ntsc>TRUE</ntsc>
						</rate>
						<duration>24</duration>
						<start>4158</start>
						<end>4182</end>
						<in>4158</in>
						<out>4182</out>
						<enabled>FALSE</enabled>
					</clipitem>
					<clipitem frameBlend="FALSE" id="clipitem-rejected-1404">
						<file id="file-1"/>
						<name>[REJECTED] bandicam 2025-06-02 00-01-10-144</name>
						<rate>
							<timebase>60</timebase>
							<ntsc>TRUE</ntsc>
						</rate>
						<rate>
							<timebase>60</timebase>
							<ntsc>TRUE</ntsc>
						</rate>
						<duration>18</duration>
						<start>4206</start>
						<end>4224</end>
						<in>4206</in>
						<out>4224</out>
						<enabled>FALSE</enabled>
					</clipitem>
					<clipitem frameBlend="FALSE" id="clipitem-rejected-1405">
						<file id="file-1"/>
						<name>[REJECTED] bandicam 2025-06-02 00-01-10-144</name>
						<rate>
							<timebase>60</timebase>
							<ntsc>TRUE</ntsc>
						</rate>
						<rate>
							<timebase>60</timebase>
							<ntsc>TRUE</ntsc>
						</rate>
						<duration>24</duration>
						<start>4272</start>
						<end>4296</end>
						<in>4272</in>
						<out>4296</out>
						<enabled>FALSE</enabled>
					</clipitem>
					<clipitem frameBlend="FALSE" id="clipitem-rejected-1406">
						<file id="file-1"/>
						<name>[REJECTED] bandicam 2025-06-02 00-01-10-144</name>
						<rate>
							<timebase>60</timebase>
							<ntsc>TRUE</ntsc>
						</rate>
						<rate>
							<timebase>60</timebase>
							<ntsc>TRUE</ntsc>
						</rate>
						<duration>24</duration>
						<start>4440</start>
						<end>4464</end>
						<in>4440</in>
						<out>4464</out>
						<enabled>FALSE</enabled>
					</clipitem>
					<clipitem frameBlend="FALSE" id="clipitem-rejected-1407">
						<file id="file-1"/>
						<name>[REJECTED] bandicam 2025-06-02 00-01-10-144</name>
						<rate>
							<timebase>60</timebase>
							<ntsc>TRUE</ntsc>
						</rate>
						<rate>
							<timebase>60</timebase>
							<ntsc>TRUE</ntsc>
						</rate>
						<duration>12</duration>
						<start>4488</start>
						<end>4500</end>
						<in>4488</in>
						<out>4500</out>
						<enabled>FALSE</enabled>
					</clipitem>
					<clipitem frameBlend="FALSE" id="clipitem-rejected-1408">
						<file id="file-1"/>
						<name>[REJECTED] bandicam 2025-06-02 00-01-10-144</name>
						<rate>
							<timebase>60</timebase>
							<ntsc>TRUE</ntsc>
						</rate>
						<rate>
							<timebase>60</timebase>
							<ntsc>TRUE</ntsc>
						</rate>
						<duration>36</duration>
						<start>4560</start>
						<end>4596</end>
						<in>4560</in>
						<out>4596</out>
						<enabled>FALSE</enabled>
					</clipitem>
					<clipitem frameBlend="FALSE" id="clipitem-rejected-1409">
						<file id="file-1"/>
						<name>[REJECTED] bandicam 2025-06-02 00-01-10-144</name>
						<rate>
							<timebase>60</timebase>
							<ntsc>TRUE</ntsc>
						</rate>
						<rate>
							<timebase>60</timebase>
							<ntsc>TRUE</ntsc>
						</rate>
						<duration>6</duration>
						<start>4638</start>
						<end>4644</end>
						<in>4638</in>
						<out>4644</out>
						<enabled>FALSE</enabled>
					</clipitem>
					<clipitem frameBlend="FALSE" id="clipitem-rejected-1410">
						<file id="file-1"/>
						<name>[REJECTED] bandicam 2025-06-02 00-01-10-144</name>
						<rate>
							<timebase>60</timebase>
							<ntsc>TRUE</ntsc>
						</rate>
						<rate>
							<timebase>60</timebase>
							<ntsc>TRUE</ntsc>
						</rate>
						<duration>30</duration>
						<start>4668</start>
						<end>4698</end>
						<in>4668</in>
						<out>4698</out>
						<enabled>FALSE</enabled>
					</clipitem>
					<clipitem frameBlend="FALSE" id="clipitem-rejected-1411">
						<file id="file-1"/>
						<name>[REJECTED] bandicam 2025-06-02 00-01-10-144</name>
						<rate>
							<timebase>60</timebase>
							<ntsc>TRUE</ntsc>
						</rate>
						<rate>
							<timebase>60</timebase>
							<ntsc>TRUE</ntsc>
						</rate>
						<duration>6</duration>
						<start>4710</start>
						<end>4716</end>
						<in>4710</in>
						<out>4716</out>
						<enabled>FALSE</enabled>
					</clipitem>
					<clipitem frameBlend="FALSE" id="clipitem-rejected-1412">
						<file id="file-1"/>
						<name>[REJECTED] bandicam 2025-06-02 00-01-10-144</name>
						<rate>
							<timebase>60</timebase>
							<ntsc>TRUE</ntsc>
						</rate>
						<rate>
							<timebase>60</timebase>
							<ntsc>TRUE</ntsc>
						</rate>
						<duration>6</duration>
						<start>4776</start>
						<end>4782</end>
						<in>4776</in>
						<out>4782</out>
						<enabled>FALSE</enabled>
					</clipitem>
					<clipitem frameBlend="FALSE" id="clipitem-rejected-1413">
						<file id="file-1"/>
						<name>[REJECTED] bandicam 2025-06-02 00-01-10-144</name>
						<rate>
							<timebase>60</timebase>
							<ntsc>TRUE</ntsc>
						</rate>
						<rate>
							<timebase>60</timebase>
							<ntsc>TRUE</ntsc>
						</rate>
						<duration>36</duration>
						<start>4806</start>
						<end>4842</end>
						<in>4806</in>
						<out>4842</out>
						<enabled>FALSE</enabled>
					</clipitem>
					<clipitem frameBlend="FALSE" id="clipitem-rejected-1414">
						<file id="file-1"/>
						<name>[REJECTED] bandicam 2025-06-02 00-01-10-144</name>
						<rate>
							<timebase>60</timebase>
							<ntsc>TRUE</ntsc>
						</rate>
						<rate>
							<timebase>60</timebase>
							<ntsc>TRUE</ntsc>
						</rate>
						<duration>0</duration>
						<start>4854</start>
						<end>4854</end>
						<in>4854</in>
						<out>4854</out>
						<enabled>FALSE</enabled>
					</clipitem>
					<clipitem frameBlend="FALSE" id="clipitem-rejected-1415">
						<file id="file-1"/>
						<name>[REJECTED] bandicam 2025-06-02 00-01-10-144</name>
						<rate>
							<timebase>60</timebase>
							<ntsc>TRUE</ntsc>
						</rate>
						<rate>
							<timebase>60</timebase>
							<ntsc>TRUE</ntsc>
						</rate>
						<duration>6</duration>
						<start>4878</start>
						<end>4884</end>
						<in>4878</in>
						<out>4884</out>
						<enabled>FALSE</enabled>
					</clipitem>
					<clipitem frameBlend="FALSE" id="clipitem-rejected-1416">
						<file id="file-1"/>
						<name>[REJECTED] bandicam 2025-06-02 00-01-10-144</name>
						<rate>
							<timebase>60</timebase>
							<ntsc>TRUE</ntsc>
						</rate>
						<rate>
							<timebase>60</timebase>
							<ntsc>TRUE</ntsc>
						</rate>
						<duration>0</duration>
						<start>4902</start>
						<end>4902</end>
						<in>4902</in>
						<out>4902</out>
						<enabled>FALSE</enabled>
					</clipitem>
					<clipitem frameBlend="FALSE" id="clipitem-rejected-1417">
						<file id="file-1"/>
						<name>[REJECTED] bandicam 2025-06-02 00-01-10-144</name>
						<rate>
							<timebase>60</timebase>
							<ntsc>TRUE</ntsc>
						</rate>
						<rate>
							<timebase>60</timebase>
							<ntsc>TRUE</ntsc>
						</rate>
						<duration>12</duration>
						<start>4926</start>
						<end>4938</end>
						<in>4926</in>
						<out>4938</out>
						<enabled>FALSE</enabled>
					</clipitem>
					<clipitem frameBlend="FALSE" id="clipitem-rejected-1418">
						<file id="file-1"/>
						<name>[REJECTED] bandicam 2025-06-02 00-01-10-144</name>
						<rate>
							<timebase>60</timebase>
							<ntsc>TRUE</ntsc>
						</rate>
						<rate>
							<timebase>60</timebase>
							<ntsc>TRUE</ntsc>
						</rate>
						<duration>0</duration>
						<start>4962</start>
						<end>4962</end>
						<in>4962</in>
						<out>4962</out>
						<enabled>FALSE</enabled>
					</clipitem>
					<clipitem frameBlend="FALSE" id="clipitem-rejected-1419">
						<file id="file-1"/>
						<name>[REJECTED] bandicam 2025-06-02 00-01-10-144</name>
						<rate>
							<timebase>60</timebase>
							<ntsc>TRUE</ntsc>
						</rate>
						<rate>
							<timebase>60</timebase>
							<ntsc>TRUE</ntsc>
						</rate>
						<duration>36</duration>
						<start>4980</start>
						<end>5016</end>
						<in>4980</in>
						<out>5016</out>
						<enabled>FALSE</enabled>
					</clipitem>
					<clipitem frameBlend="FALSE" id="clipitem-rejected-1420">
						<file id="file-1"/>
						<name>[REJECTED] bandicam 2025-06-02 00-01-10-144</name>
						<rate>
							<timebase>60</timebase>
							<ntsc>TRUE</ntsc>
						</rate>
						<rate>
							<timebase>60</timebase>
							<ntsc>TRUE</ntsc>
						</rate>
						<duration>18</duration>
						<start>5040</start>
						<end>5058</end>
						<in>5040</in>
						<out>5058</out>
						<enabled>FALSE</enabled>
					</clipitem>
					<clipitem frameBlend="FALSE" id="clipitem-rejected-1421">
						<file id="file-1"/>
						<name>[REJECTED] bandicam 2025-06-02 00-01-10-144</name>
						<rate>
							<timebase>60</timebase>
							<ntsc>TRUE</ntsc>
						</rate>
						<rate>
							<timebase>60</timebase>
							<ntsc>TRUE</ntsc>
						</rate>
						<duration>0</duration>
						<start>5076</start>
						<end>5076</end>
						<in>5076</in>
						<out>5076</out>
						<enabled>FALSE</enabled>
					</clipitem>
					<clipitem frameBlend="FALSE" id="clipitem-rejected-1422">
						<file id="file-1"/>
						<name>[REJECTED] bandicam 2025-06-02 00-01-10-144</name>
						<rate>
							<timebase>60</timebase>
							<ntsc>TRUE</ntsc>
						</rate>
						<rate>
							<timebase>60</timebase>
							<ntsc>TRUE</ntsc>
						</rate>
						<duration>0</duration>
						<start>5088</start>
						<end>5088</end>
						<in>5088</in>
						<out>5088</out>
						<enabled>FALSE</enabled>
					</clipitem>
					<clipitem frameBlend="FALSE" id="clipitem-rejected-1423">
						<file id="file-1"/>
						<name>[REJECTED] bandicam 2025-06-02 00-01-10-144</name>
						<rate>
							<timebase>60</timebase>
							<ntsc>TRUE</ntsc>
						</rate>
						<rate>
							<timebase>60</timebase>
							<ntsc>TRUE</ntsc>
						</rate>
						<duration>42</duration>
						<start>5184</start>
						<end>5226</end>
						<in>5184</in>
						<out>5226</out>
						<enabled>FALSE</enabled>
					</clipitem>
					<clipitem frameBlend="FALSE" id="clipitem-rejected-1424">
						<file id="file-1"/>
						<name>[REJECTED] bandicam 2025-06-02 00-01-10-144</name>
						<rate>
							<timebase>60</timebase>
							<ntsc>TRUE</ntsc>
						</rate>
						<rate>
							<timebase>60</timebase>
							<ntsc>TRUE</ntsc>
						</rate>
						<duration>66</duration>
						<start>5256</start>
						<end>5322</end>
						<in>5256</in>
						<out>5322</out>
						<enabled>FALSE</enabled>
					</clipitem>
					<clipitem frameBlend="FALSE" id="clipitem-rejected-1425">
						<file id="file-1"/>
						<name>[REJECTED] bandicam 2025-06-02 00-01-10-144</name>
						<rate>
							<timebase>60</timebase>
							<ntsc>TRUE</ntsc>
						</rate>
						<rate>
							<timebase>60</timebase>
							<ntsc>TRUE</ntsc>
						</rate>
						<duration>30</duration>
						<start>5346</start>
						<end>5376</end>
						<in>5346</in>
						<out>5376</out>
						<enabled>FALSE</enabled>
					</clipitem>
					<clipitem frameBlend="FALSE" id="clipitem-rejected-1426">
						<file id="file-1"/>
						<name>[REJECTED] bandicam 2025-06-02 00-01-10-144</name>
						<rate>
							<timebase>60</timebase>
							<ntsc>TRUE</ntsc>
						</rate>
						<rate>
							<timebase>60</timebase>
							<ntsc>TRUE</ntsc>
						</rate>
						<duration>6</duration>
						<start>5400</start>
						<end>5406</end>
						<in>5400</in>
						<out>5406</out>
						<enabled>FALSE</enabled>
					</clipitem>
					<clipitem frameBlend="FALSE" id="clipitem-rejected-1427">
						<file id="file-1"/>
						<name>[REJECTED] bandicam 2025-06-02 00-01-10-144</name>
						<rate>
							<timebase>60</timebase>
							<ntsc>TRUE</ntsc>
						</rate>
						<rate>
							<timebase>60</timebase>
							<ntsc>TRUE</ntsc>
						</rate>
						<duration>6</duration>
						<start>5454</start>
						<end>5460</end>
						<in>5454</in>
						<out>5460</out>
						<enabled>FALSE</enabled>
					</clipitem>
					<clipitem frameBlend="FALSE" id="clipitem-rejected-1428">
						<file id="file-1"/>
						<name>[REJECTED] bandicam 2025-06-02 00-01-10-144</name>
						<rate>
							<timebase>60</timebase>
							<ntsc>TRUE</ntsc>
						</rate>
						<rate>
							<timebase>60</timebase>
							<ntsc>TRUE</ntsc>
						</rate>
						<duration>12</duration>
						<start>5472</start>
						<end>5484</end>
						<in>5472</in>
						<out>5484</out>
						<enabled>FALSE</enabled>
					</clipitem>
					<clipitem frameBlend="FALSE" id="clipitem-rejected-1429">
						<file id="file-1"/>
						<name>[REJECTED] bandicam 2025-06-02 00-01-10-144</name>
						<rate>
							<timebase>60</timebase>
							<ntsc>TRUE</ntsc>
						</rate>
						<rate>
							<timebase>60</timebase>
							<ntsc>TRUE</ntsc>
						</rate>
						<duration>6</duration>
						<start>5508</start>
						<end>5514</end>
						<in>5508</in>
						<out>5514</out>
						<enabled>FALSE</enabled>
					</clipitem>
					<clipitem frameBlend="FALSE" id="clipitem-rejected-1430">
						<file id="file-1"/>
						<name>[REJECTED] bandicam 2025-06-02 00-01-10-144</name>
						<rate>
							<timebase>60</timebase>
							<ntsc>TRUE</ntsc>
						</rate>
						<rate>
							<timebase>60</timebase>
							<ntsc>TRUE</ntsc>
						</rate>
						<duration>0</duration>
						<start>5526</start>
						<end>5526</end>
						<in>5526</in>
						<out>5526</out>
						<enabled>FALSE</enabled>
					</clipitem>
					<clipitem frameBlend="FALSE" id="clipitem-rejected-1431">
						<file id="file-1"/>
						<name>[REJECTED] bandicam 2025-06-02 00-01-10-144</name>
						<rate>
							<timebase>60</timebase>
							<ntsc>TRUE</ntsc>
						</rate>
						<rate>
							<timebase>60</timebase>
							<ntsc>TRUE</ntsc>
						</rate>
						<duration>0</duration>
						<start>5538</start>
						<end>5538</end>
						<in>5538</in>
						<out>5538</out>
						<enabled>FALSE</enabled>
					</clipitem>
					<clipitem frameBlend="FALSE" id="clipitem-rejected-1432">
						<file id="file-1"/>
						<name>[REJECTED] bandicam 2025-06-02 00-01-10-144</name>
						<rate>
							<timebase>60</timebase>
							<ntsc>TRUE</ntsc>
						</rate>
						<rate>
							<timebase>60</timebase>
							<ntsc>TRUE</ntsc>
						</rate>
						<duration>18</duration>
						<start>5556</start>
						<end>5574</end>
						<in>5556</in>
						<out>5574</out>
						<enabled>FALSE</enabled>
					</clipitem>
					<clipitem frameBlend="FALSE" id="clipitem-rejected-1433">
						<file id="file-1"/>
						<name>[REJECTED] bandicam 2025-06-02 00-01-10-144</name>
						<rate>
							<timebase>60</timebase>
							<ntsc>TRUE</ntsc>
						</rate>
						<rate>
							<timebase>60</timebase>
							<ntsc>TRUE</ntsc>
						</rate>
						<duration>24</duration>
						<start>5598</start>
						<end>5622</end>
						<in>5598</in>
						<out>5622</out>
						<enabled>FALSE</enabled>
					</clipitem>
					<clipitem frameBlend="FALSE" id="clipitem-rejected-1434">
						<file id="file-1"/>
						<name>[REJECTED] bandicam 2025-06-02 00-01-10-144</name>
						<rate>
							<timebase>60</timebase>
							<ntsc>TRUE</ntsc>
						</rate>
						<rate>
							<timebase>60</timebase>
							<ntsc>TRUE</ntsc>
						</rate>
						<duration>12</duration>
						<start>5646</start>
						<end>5658</end>
						<in>5646</in>
						<out>5658</out>
						<enabled>FALSE</enabled>
					</clipitem>
					<clipitem frameBlend="FALSE" id="clipitem-rejected-1435">
						<file id="file-1"/>
						<name>[REJECTED] bandicam 2025-06-02 00-01-10-144</name>
						<rate>
							<timebase>60</timebase>
							<ntsc>TRUE</ntsc>
						</rate>
						<rate>
							<timebase>60</timebase>
							<ntsc>TRUE</ntsc>
						</rate>
						<duration>18</duration>
						<start>5700</start>
						<end>5718</end>
						<in>5700</in>
						<out>5718</out>
						<enabled>FALSE</enabled>
					</clipitem>
					<clipitem frameBlend="FALSE" id="clipitem-rejected-1436">
						<file id="file-1"/>
						<name>[REJECTED] bandicam 2025-06-02 00-01-10-144</name>
						<rate>
							<timebase>60</timebase>
							<ntsc>TRUE</ntsc>
						</rate>
						<rate>
							<timebase>60</timebase>
							<ntsc>TRUE</ntsc>
						</rate>
						<duration>18</duration>
						<start>5730</start>
						<end>5748</end>
						<in>5730</in>
						<out>5748</out>
						<enabled>FALSE</enabled>
					</clipitem>
					<clipitem frameBlend="FALSE" id="clipitem-rejected-1437">
						<file id="file-1"/>
						<name>[REJECTED] bandicam 2025-06-02 00-01-10-144</name>
						<rate>
							<timebase>60</timebase>
							<ntsc>TRUE</ntsc>
						</rate>
						<rate>
							<timebase>60</timebase>
							<ntsc>TRUE</ntsc>
						</rate>
						<duration>12</duration>
						<start>5784</start>
						<end>5796</end>
						<in>5784</in>
						<out>5796</out>
						<enabled>FALSE</enabled>
					</clipitem>
					<clipitem frameBlend="FALSE" id="clipitem-rejected-1438">
						<file id="file-1"/>
						<name>[REJECTED] bandicam 2025-06-02 00-01-10-144</name>
						<rate>
							<timebase>60</timebase>
							<ntsc>TRUE</ntsc>
						</rate>
						<rate>
							<timebase>60</timebase>
							<ntsc>TRUE</ntsc>
						</rate>
						<duration>6</duration>
						<start>5898</start>
						<end>5904</end>
						<in>5898</in>
						<out>5904</out>
						<enabled>FALSE</enabled>
					</clipitem>
					<clipitem frameBlend="FALSE" id="clipitem-rejected-1439">
						<file id="file-1"/>
						<name>[REJECTED] bandicam 2025-06-02 00-01-10-144</name>
						<rate>
							<timebase>60</timebase>
							<ntsc>TRUE</ntsc>
						</rate>
						<rate>
							<timebase>60</timebase>
							<ntsc>TRUE</ntsc>
						</rate>
						<duration>12</duration>
						<start>5982</start>
						<end>5994</end>
						<in>5982</in>
						<out>5994</out>
						<enabled>FALSE</enabled>
					</clipitem>
					<clipitem frameBlend="FALSE" id="clipitem-rejected-1440">
						<file id="file-1"/>
						<name>[REJECTED] bandicam 2025-06-02 00-01-10-144</name>
						<rate>
							<timebase>60</timebase>
							<ntsc>TRUE</ntsc>
						</rate>
						<rate>
							<timebase>60</timebase>
							<ntsc>TRUE</ntsc>
						</rate>
						<duration>6</duration>
						<start>6042</start>
						<end>6048</end>
						<in>6042</in>
						<out>6048</out>
						<enabled>FALSE</enabled>
					</clipitem>
					<clipitem frameBlend="FALSE" id="clipitem-rejected-1441">
						<file id="file-1"/>
						<name>[REJECTED] bandicam 2025-06-02 00-01-10-144</name>
						<rate>
							<timebase>60</timebase>
							<ntsc>TRUE</ntsc>
						</rate>
						<rate>
							<timebase>60</timebase>
							<ntsc>TRUE</ntsc>
						</rate>
						<duration>54</duration>
						<start>6072</start>
						<end>6126</end>
						<in>6072</in>
						<out>6126</out>
						<enabled>FALSE</enabled>
					</clipitem>
					<clipitem frameBlend="FALSE" id="clipitem-rejected-1442">
						<file id="file-1"/>
						<name>[REJECTED] bandicam 2025-06-02 00-01-10-144</name>
						<rate>
							<timebase>60</timebase>
							<ntsc>TRUE</ntsc>
						</rate>
						<rate>
							<timebase>60</timebase>
							<ntsc>TRUE</ntsc>
						</rate>
						<duration>12</duration>
						<start>6138</start>
						<end>6150</end>
						<in>6138</in>
						<out>6150</out>
						<enabled>FALSE</enabled>
					</clipitem>
					<clipitem frameBlend="FALSE" id="clipitem-rejected-1443">
						<file id="file-1"/>
						<name>[REJECTED] bandicam 2025-06-02 00-01-10-144</name>
						<rate>
							<timebase>60</timebase>
							<ntsc>TRUE</ntsc>
						</rate>
						<rate>
							<timebase>60</timebase>
							<ntsc>TRUE</ntsc>
						</rate>
						<duration>6</duration>
						<start>6210</start>
						<end>6216</end>
						<in>6210</in>
						<out>6216</out>
						<enabled>FALSE</enabled>
					</clipitem>
					<clipitem frameBlend="FALSE" id="clipitem-rejected-1444">
						<file id="file-1"/>
						<name>[REJECTED] bandicam 2025-06-02 00-01-10-144</name>
						<rate>
							<timebase>60</timebase>
							<ntsc>TRUE</ntsc>
						</rate>
						<rate>
							<timebase>60</timebase>
							<ntsc>TRUE</ntsc>
						</rate>
						<duration>18</duration>
						<start>6258</start>
						<end>6276</end>
						<in>6258</in>
						<out>6276</out>
						<enabled>FALSE</enabled>
					</clipitem>
					<clipitem frameBlend="FALSE" id="clipitem-rejected-1445">
						<file id="file-1"/>
						<name>[REJECTED] bandicam 2025-06-02 00-01-10-144</name>
						<rate>
							<timebase>60</timebase>
							<ntsc>TRUE</ntsc>
						</rate>
						<rate>
							<timebase>60</timebase>
							<ntsc>TRUE</ntsc>
						</rate>
						<duration>18</duration>
						<start>6288</start>
						<end>6306</end>
						<in>6288</in>
						<out>6306</out>
						<enabled>FALSE</enabled>
					</clipitem>
					<clipitem frameBlend="FALSE" id="clipitem-rejected-1446">
						<file id="file-1"/>
						<name>[REJECTED] bandicam 2025-06-02 00-01-10-144</name>
						<rate>
							<timebase>60</timebase>
							<ntsc>TRUE</ntsc>
						</rate>
						<rate>
							<timebase>60</timebase>
							<ntsc>TRUE</ntsc>
						</rate>
						<duration>48</duration>
						<start>6330</start>
						<end>6378</end>
						<in>6330</in>
						<out>6378</out>
						<enabled>FALSE</enabled>
					</clipitem>
					<clipitem frameBlend="FALSE" id="clipitem-rejected-1447">
						<file id="file-1"/>
						<name>[REJECTED] bandicam 2025-06-02 00-01-10-144</name>
						<rate>
							<timebase>60</timebase>
							<ntsc>TRUE</ntsc>
						</rate>
						<rate>
							<timebase>60</timebase>
							<ntsc>TRUE</ntsc>
						</rate>
						<duration>24</duration>
						<start>6402</start>
						<end>6426</end>
						<in>6402</in>
						<out>6426</out>
						<enabled>FALSE</enabled>
					</clipitem>
					<clipitem frameBlend="FALSE" id="clipitem-rejected-1448">
						<file id="file-1"/>
						<name>[REJECTED] bandicam 2025-06-02 00-01-10-144</name>
						<rate>
							<timebase>60</timebase>
							<ntsc>TRUE</ntsc>
						</rate>
						<rate>
							<timebase>60</timebase>
							<ntsc>TRUE</ntsc>
						</rate>
						<duration>30</duration>
						<start>6450</start>
						<end>6480</end>
						<in>6450</in>
						<out>6480</out>
						<enabled>FALSE</enabled>
					</clipitem>
					<clipitem frameBlend="FALSE" id="clipitem-rejected-1449">
						<file id="file-1"/>
						<name>[REJECTED] bandicam 2025-06-02 00-01-10-144</name>
						<rate>
							<timebase>60</timebase>
							<ntsc>TRUE</ntsc>
						</rate>
						<rate>
							<timebase>60</timebase>
							<ntsc>TRUE</ntsc>
						</rate>
						<duration>0</duration>
						<start>6492</start>
						<end>6492</end>
						<in>6492</in>
						<out>6492</out>
						<enabled>FALSE</enabled>
					</clipitem>
					<clipitem frameBlend="FALSE" id="clipitem-rejected-1450">
						<file id="file-1"/>
						<name>[REJECTED] bandicam 2025-06-02 00-01-10-144</name>
						<rate>
							<timebase>60</timebase>
							<ntsc>TRUE</ntsc>
						</rate>
						<rate>
							<timebase>60</timebase>
							<ntsc>TRUE</ntsc>
						</rate>
						<duration>30</duration>
						<start>6540</start>
						<end>6570</end>
						<in>6540</in>
						<out>6570</out>
						<enabled>FALSE</enabled>
					</clipitem>
					<clipitem frameBlend="FALSE" id="clipitem-rejected-1451">
						<file id="file-1"/>
						<name>[REJECTED] bandicam 2025-06-02 00-01-10-144</name>
						<rate>
							<timebase>60</timebase>
							<ntsc>TRUE</ntsc>
						</rate>
						<rate>
							<timebase>60</timebase>
							<ntsc>TRUE</ntsc>
						</rate>
						<duration>18</duration>
						<start>6588</start>
						<end>6606</end>
						<in>6588</in>
						<out>6606</out>
						<enabled>FALSE</enabled>
					</clipitem>
					<clipitem frameBlend="FALSE" id="clipitem-rejected-1452">
						<file id="file-1"/>
						<name>[REJECTED] bandicam 2025-06-02 00-01-10-144</name>
						<rate>
							<timebase>60</timebase>
							<ntsc>TRUE</ntsc>
						</rate>
						<rate>
							<timebase>60</timebase>
							<ntsc>TRUE</ntsc>
						</rate>
						<duration>114</duration>
						<start>6630</start>
						<end>6744</end>
						<in>6630</in>
						<out>6744</out>
						<enabled>FALSE</enabled>
					</clipitem>
					<clipitem frameBlend="FALSE" id="clipitem-rejected-1453">
						<file id="file-1"/>
						<name>[REJECTED] bandicam 2025-06-02 00-01-10-144</name>
						<rate>
							<timebase>60</timebase>
							<ntsc>TRUE</ntsc>
						</rate>
						<rate>
							<timebase>60</timebase>
							<ntsc>TRUE</ntsc>
						</rate>
						<duration>36</duration>
						<start>6768</start>
						<end>6804</end>
						<in>6768</in>
						<out>6804</out>
						<enabled>FALSE</enabled>
					</clipitem>
					<clipitem frameBlend="FALSE" id="clipitem-rejected-1454">
						<file id="file-1"/>
						<name>[REJECTED] bandicam 2025-06-02 00-01-10-144</name>
						<rate>
							<timebase>60</timebase>
							<ntsc>TRUE</ntsc>
						</rate>
						<rate>
							<timebase>60</timebase>
							<ntsc>TRUE</ntsc>
						</rate>
						<duration>0</duration>
						<start>6822</start>
						<end>6822</end>
						<in>6822</in>
						<out>6822</out>
						<enabled>FALSE</enabled>
					</clipitem>
					<clipitem frameBlend="FALSE" id="clipitem-rejected-1455">
						<file id="file-1"/>
						<name>[REJECTED] bandicam 2025-06-02 00-01-10-144</name>
						<rate>
							<timebase>60</timebase>
							<ntsc>TRUE</ntsc>
						</rate>
						<rate>
							<timebase>60</timebase>
							<ntsc>TRUE</ntsc>
						</rate>
						<duration>42</duration>
						<start>6846</start>
						<end>6888</end>
						<in>6846</in>
						<out>6888</out>
						<enabled>FALSE</enabled>
					</clipitem>
					<clipitem frameBlend="FALSE" id="clipitem-rejected-1456">
						<file id="file-1"/>
						<name>[REJECTED] bandicam 2025-06-02 00-01-10-144</name>
						<rate>
							<timebase>60</timebase>
							<ntsc>TRUE</ntsc>
						</rate>
						<rate>
							<timebase>60</timebase>
							<ntsc>TRUE</ntsc>
						</rate>
						<duration>0</duration>
						<start>6906</start>
						<end>6906</end>
						<in>6906</in>
						<out>6906</out>
						<enabled>FALSE</enabled>
					</clipitem>
					<clipitem frameBlend="FALSE" id="clipitem-rejected-1457">
						<file id="file-1"/>
						<name>[REJECTED] bandicam 2025-06-02 00-01-10-144</name>
						<rate>
							<timebase>60</timebase>
							<ntsc>TRUE</ntsc>
						</rate>
						<rate>
							<timebase>60</timebase>
							<ntsc>TRUE</ntsc>
						</rate>
						<duration>18</duration>
						<start>6930</start>
						<end>6948</end>
						<in>6930</in>
						<out>6948</out>
						<enabled>FALSE</enabled>
					</clipitem>
					<clipitem frameBlend="FALSE" id="clipitem-rejected-1458">
						<file id="file-1"/>
						<name>[REJECTED] bandicam 2025-06-02 00-01-10-144</name>
						<rate>
							<timebase>60</timebase>
							<ntsc>TRUE</ntsc>
						</rate>
						<rate>
							<timebase>60</timebase>
							<ntsc>TRUE</ntsc>
						</rate>
						<duration>36</duration>
						<start>6960</start>
						<end>6996</end>
						<in>6960</in>
						<out>6996</out>
						<enabled>FALSE</enabled>
					</clipitem>
					<clipitem frameBlend="FALSE" id="clipitem-rejected-1459">
						<file id="file-1"/>
						<name>[REJECTED] bandicam 2025-06-02 00-01-10-144</name>
						<rate>
							<timebase>60</timebase>
							<ntsc>TRUE</ntsc>
						</rate>
						<rate>
							<timebase>60</timebase>
							<ntsc>TRUE</ntsc>
						</rate>
						<duration>12</duration>
						<start>7008</start>
						<end>7020</end>
						<in>7008</in>
						<out>7020</out>
						<enabled>FALSE</enabled>
					</clipitem>
					<clipitem frameBlend="FALSE" id="clipitem-rejected-1460">
						<file id="file-1"/>
						<name>[REJECTED] bandicam 2025-06-02 00-01-10-144</name>
						<rate>
							<timebase>60</timebase>
							<ntsc>TRUE</ntsc>
						</rate>
						<rate>
							<timebase>60</timebase>
							<ntsc>TRUE</ntsc>
						</rate>
						<duration>24</duration>
						<start>7044</start>
						<end>7068</end>
						<in>7044</in>
						<out>7068</out>
						<enabled>FALSE</enabled>
					</clipitem>
					<clipitem frameBlend="FALSE" id="clipitem-rejected-1461">
						<file id="file-1"/>
						<name>[REJECTED] bandicam 2025-06-02 00-01-10-144</name>
						<rate>
							<timebase>60</timebase>
							<ntsc>TRUE</ntsc>
						</rate>
						<rate>
							<timebase>60</timebase>
							<ntsc>TRUE</ntsc>
						</rate>
						<duration>6</duration>
						<start>0</start>
						<end>6</end>
						<in>0</in>
						<out>6</out>
						<enabled>FALSE</enabled>
					</clipitem>
					<clipitem frameBlend="FALSE" id="clipitem-rejected-1462">
						<file id="file-1"/>
						<name>[REJECTED] bandicam 2025-06-02 00-01-10-144</name>
						<rate>
							<timebase>60</timebase>
							<ntsc>TRUE</ntsc>
						</rate>
						<rate>
							<timebase>60</timebase>
							<ntsc>TRUE</ntsc>
						</rate>
						<duration>0</duration>
						<start>48</start>
						<end>48</end>
						<in>48</in>
						<out>48</out>
						<enabled>FALSE</enabled>
					</clipitem>
					<clipitem frameBlend="FALSE" id="clipitem-rejected-1463">
						<file id="file-1"/>
						<name>[REJECTED] bandicam 2025-06-02 00-01-10-144</name>
						<rate>
							<timebase>60</timebase>
							<ntsc>TRUE</ntsc>
						</rate>
						<rate>
							<timebase>60</timebase>
							<ntsc>TRUE</ntsc>
						</rate>
						<duration>6</duration>
						<start>96</start>
						<end>102</end>
						<in>96</in>
						<out>102</out>
						<enabled>FALSE</enabled>
					</clipitem>
					<clipitem frameBlend="FALSE" id="clipitem-rejected-1464">
						<file id="file-1"/>
						<name>[REJECTED] bandicam 2025-06-02 00-01-10-144</name>
						<rate>
							<timebase>60</timebase>
							<ntsc>TRUE</ntsc>
						</rate>
						<rate>
							<timebase>60</timebase>
							<ntsc>TRUE</ntsc>
						</rate>
						<duration>36</duration>
						<start>132</start>
						<end>168</end>
						<in>132</in>
						<out>168</out>
						<enabled>FALSE</enabled>
					</clipitem>
					<clipitem frameBlend="FALSE" id="clipitem-rejected-1465">
						<file id="file-1"/>
						<name>[REJECTED] bandicam 2025-06-02 00-01-10-144</name>
						<rate>
							<timebase>60</timebase>
							<ntsc>TRUE</ntsc>
						</rate>
						<rate>
							<timebase>60</timebase>
							<ntsc>TRUE</ntsc>
						</rate>
						<duration>90</duration>
						<start>204</start>
						<end>294</end>
						<in>204</in>
						<out>294</out>
						<enabled>FALSE</enabled>
					</clipitem>
					<clipitem frameBlend="FALSE" id="clipitem-rejected-1466">
						<file id="file-1"/>
						<name>[REJECTED] bandicam 2025-06-02 00-01-10-144</name>
						<rate>
							<timebase>60</timebase>
							<ntsc>TRUE</ntsc>
						</rate>
						<rate>
							<timebase>60</timebase>
							<ntsc>TRUE</ntsc>
						</rate>
						<duration>48</duration>
						<start>306</start>
						<end>354</end>
						<in>306</in>
						<out>354</out>
						<enabled>FALSE</enabled>
					</clipitem>
					<clipitem frameBlend="FALSE" id="clipitem-rejected-1467">
						<file id="file-1"/>
						<name>[REJECTED] bandicam 2025-06-02 00-01-10-144</name>
						<rate>
							<timebase>60</timebase>
							<ntsc>TRUE</ntsc>
						</rate>
						<rate>
							<timebase>60</timebase>
							<ntsc>TRUE</ntsc>
						</rate>
						<duration>36</duration>
						<start>396</start>
						<end>432</end>
						<in>396</in>
						<out>432</out>
						<enabled>FALSE</enabled>
					</clipitem>
					<clipitem frameBlend="FALSE" id="clipitem-rejected-1468">
						<file id="file-1"/>
						<name>[REJECTED] bandicam 2025-06-02 00-01-10-144</name>
						<rate>
							<timebase>60</timebase>
							<ntsc>TRUE</ntsc>
						</rate>
						<rate>
							<timebase>60</timebase>
							<ntsc>TRUE</ntsc>
						</rate>
						<duration>0</duration>
						<start>444</start>
						<end>444</end>
						<in>444</in>
						<out>444</out>
						<enabled>FALSE</enabled>
					</clipitem>
					<clipitem frameBlend="FALSE" id="clipitem-rejected-1469">
						<file id="file-1"/>
						<name>[REJECTED] bandicam 2025-06-02 00-01-10-144</name>
						<rate>
							<timebase>60</timebase>
							<ntsc>TRUE</ntsc>
						</rate>
						<rate>
							<timebase>60</timebase>
							<ntsc>TRUE</ntsc>
						</rate>
						<duration>0</duration>
						<start>498</start>
						<end>498</end>
						<in>498</in>
						<out>498</out>
						<enabled>FALSE</enabled>
					</clipitem>
					<clipitem frameBlend="FALSE" id="clipitem-rejected-1470">
						<file id="file-1"/>
						<name>[REJECTED] bandicam 2025-06-02 00-01-10-144</name>
						<rate>
							<timebase>60</timebase>
							<ntsc>TRUE</ntsc>
						</rate>
						<rate>
							<timebase>60</timebase>
							<ntsc>TRUE</ntsc>
						</rate>
						<duration>12</duration>
						<start>510</start>
						<end>522</end>
						<in>510</in>
						<out>522</out>
						<enabled>FALSE</enabled>
					</clipitem>
					<clipitem frameBlend="FALSE" id="clipitem-rejected-1471">
						<file id="file-1"/>
						<name>[REJECTED] bandicam 2025-06-02 00-01-10-144</name>
						<rate>
							<timebase>60</timebase>
							<ntsc>TRUE</ntsc>
						</rate>
						<rate>
							<timebase>60</timebase>
							<ntsc>TRUE</ntsc>
						</rate>
						<duration>12</duration>
						<start>564</start>
						<end>576</end>
						<in>564</in>
						<out>576</out>
						<enabled>FALSE</enabled>
					</clipitem>
					<clipitem frameBlend="FALSE" id="clipitem-rejected-1472">
						<file id="file-1"/>
						<name>[REJECTED] bandicam 2025-06-02 00-01-10-144</name>
						<rate>
							<timebase>60</timebase>
							<ntsc>TRUE</ntsc>
						</rate>
						<rate>
							<timebase>60</timebase>
							<ntsc>TRUE</ntsc>
						</rate>
						<duration>6</duration>
						<start>612</start>
						<end>618</end>
						<in>612</in>
						<out>618</out>
						<enabled>FALSE</enabled>
					</clipitem>
					<clipitem frameBlend="FALSE" id="clipitem-rejected-1473">
						<file id="file-1"/>
						<name>[REJECTED] bandicam 2025-06-02 00-01-10-144</name>
						<rate>
							<timebase>60</timebase>
							<ntsc>TRUE</ntsc>
						</rate>
						<rate>
							<timebase>60</timebase>
							<ntsc>TRUE</ntsc>
						</rate>
						<duration>162</duration>
						<start>648</start>
						<end>810</end>
						<in>648</in>
						<out>810</out>
						<enabled>FALSE</enabled>
					</clipitem>
					<clipitem frameBlend="FALSE" id="clipitem-rejected-1474">
						<file id="file-1"/>
						<name>[REJECTED] bandicam 2025-06-02 00-01-10-144</name>
						<rate>
							<timebase>60</timebase>
							<ntsc>TRUE</ntsc>
						</rate>
						<rate>
							<timebase>60</timebase>
							<ntsc>TRUE</ntsc>
						</rate>
						<duration>24</duration>
						<start>822</start>
						<end>846</end>
						<in>822</in>
						<out>846</out>
						<enabled>FALSE</enabled>
					</clipitem>
					<clipitem frameBlend="FALSE" id="clipitem-rejected-1475">
						<file id="file-1"/>
						<name>[REJECTED] bandicam 2025-06-02 00-01-10-144</name>
						<rate>
							<timebase>60</timebase>
							<ntsc>TRUE</ntsc>
						</rate>
						<rate>
							<timebase>60</timebase>
							<ntsc>TRUE</ntsc>
						</rate>
						<duration>48</duration>
						<start>858</start>
						<end>906</end>
						<in>858</in>
						<out>906</out>
						<enabled>FALSE</enabled>
					</clipitem>
					<clipitem frameBlend="FALSE" id="clipitem-rejected-1476">
						<file id="file-1"/>
						<name>[REJECTED] bandicam 2025-06-02 00-01-10-144</name>
						<rate>
							<timebase>60</timebase>
							<ntsc>TRUE</ntsc>
						</rate>
						<rate>
							<timebase>60</timebase>
							<ntsc>TRUE</ntsc>
						</rate>
						<duration>12</duration>
						<start>918</start>
						<end>930</end>
						<in>918</in>
						<out>930</out>
						<enabled>FALSE</enabled>
					</clipitem>
					<clipitem frameBlend="FALSE" id="clipitem-rejected-1477">
						<file id="file-1"/>
						<name>[REJECTED] bandicam 2025-06-02 00-01-10-144</name>
						<rate>
							<timebase>60</timebase>
							<ntsc>TRUE</ntsc>
						</rate>
						<rate>
							<timebase>60</timebase>
							<ntsc>TRUE</ntsc>
						</rate>
						<duration>6</duration>
						<start>942</start>
						<end>948</end>
						<in>942</in>
						<out>948</out>
						<enabled>FALSE</enabled>
					</clipitem>
					<clipitem frameBlend="FALSE" id="clipitem-rejected-1478">
						<file id="file-1"/>
						<name>[REJECTED] bandicam 2025-06-02 00-01-10-144</name>
						<rate>
							<timebase>60</timebase>
							<ntsc>TRUE</ntsc>
						</rate>
						<rate>
							<timebase>60</timebase>
							<ntsc>TRUE</ntsc>
						</rate>
						<duration>18</duration>
						<start>960</start>
						<end>978</end>
						<in>960</in>
						<out>978</out>
						<enabled>FALSE</enabled>
					</clipitem>
					<clipitem frameBlend="FALSE" id="clipitem-rejected-1479">
						<file id="file-1"/>
						<name>[REJECTED] bandicam 2025-06-02 00-01-10-144</name>
						<rate>
							<timebase>60</timebase>
							<ntsc>TRUE</ntsc>
						</rate>
						<rate>
							<timebase>60</timebase>
							<ntsc>TRUE</ntsc>
						</rate>
						<duration>78</duration>
						<start>1002</start>
						<end>1080</end>
						<in>1002</in>
						<out>1080</out>
						<enabled>FALSE</enabled>
					</clipitem>
					<clipitem frameBlend="FALSE" id="clipitem-rejected-1480">
						<file id="file-1"/>
						<name>[REJECTED] bandicam 2025-06-02 00-01-10-144</name>
						<rate>
							<timebase>60</timebase>
							<ntsc>TRUE</ntsc>
						</rate>
						<rate>
							<timebase>60</timebase>
							<ntsc>TRUE</ntsc>
						</rate>
						<duration>78</duration>
						<start>1104</start>
						<end>1182</end>
						<in>1104</in>
						<out>1182</out>
						<enabled>FALSE</enabled>
					</clipitem>
					<clipitem frameBlend="FALSE" id="clipitem-rejected-1481">
						<file id="file-1"/>
						<name>[REJECTED] bandicam 2025-06-02 00-01-10-144</name>
						<rate>
							<timebase>60</timebase>
							<ntsc>TRUE</ntsc>
						</rate>
						<rate>
							<timebase>60</timebase>
							<ntsc>TRUE</ntsc>
						</rate>
						<duration>72</duration>
						<start>1242</start>
						<end>1314</end>
						<in>1242</in>
						<out>1314</out>
						<enabled>FALSE</enabled>
					</clipitem>
					<clipitem frameBlend="FALSE" id="clipitem-rejected-1482">
						<file id="file-1"/>
						<name>[REJECTED] bandicam 2025-06-02 00-01-10-144</name>
						<rate>
							<timebase>60</timebase>
							<ntsc>TRUE</ntsc>
						</rate>
						<rate>
							<timebase>60</timebase>
							<ntsc>TRUE</ntsc>
						</rate>
						<duration>42</duration>
						<start>1326</start>
						<end>1368</end>
						<in>1326</in>
						<out>1368</out>
						<enabled>FALSE</enabled>
					</clipitem>
					<clipitem frameBlend="FALSE" id="clipitem-rejected-1483">
						<file id="file-1"/>
						<name>[REJECTED] bandicam 2025-06-02 00-01-10-144</name>
						<rate>
							<timebase>60</timebase>
							<ntsc>TRUE</ntsc>
						</rate>
						<rate>
							<timebase>60</timebase>
							<ntsc>TRUE</ntsc>
						</rate>
						<duration>6</duration>
						<start>1434</start>
						<end>1440</end>
						<in>1434</in>
						<out>1440</out>
						<enabled>FALSE</enabled>
					</clipitem>
					<clipitem frameBlend="FALSE" id="clipitem-rejected-1484">
						<file id="file-1"/>
						<name>[REJECTED] bandicam 2025-06-02 00-01-10-144</name>
						<rate>
							<timebase>60</timebase>
							<ntsc>TRUE</ntsc>
						</rate>
						<rate>
							<timebase>60</timebase>
							<ntsc>TRUE</ntsc>
						</rate>
						<duration>42</duration>
						<start>1488</start>
						<end>1530</end>
						<in>1488</in>
						<out>1530</out>
						<enabled>FALSE</enabled>
					</clipitem>
					<clipitem frameBlend="FALSE" id="clipitem-rejected-1485">
						<file id="file-1"/>
						<name>[REJECTED] bandicam 2025-06-02 00-01-10-144</name>
						<rate>
							<timebase>60</timebase>
							<ntsc>TRUE</ntsc>
						</rate>
						<rate>
							<timebase>60</timebase>
							<ntsc>TRUE</ntsc>
						</rate>
						<duration>18</duration>
						<start>1542</start>
						<end>1560</end>
						<in>1542</in>
						<out>1560</out>
						<enabled>FALSE</enabled>
					</clipitem>
					<clipitem frameBlend="FALSE" id="clipitem-rejected-1486">
						<file id="file-1"/>
						<name>[REJECTED] bandicam 2025-06-02 00-01-10-144</name>
						<rate>
							<timebase>60</timebase>
							<ntsc>TRUE</ntsc>
						</rate>
						<rate>
							<timebase>60</timebase>
							<ntsc>TRUE</ntsc>
						</rate>
						<duration>84</duration>
						<start>1602</start>
						<end>1686</end>
						<in>1602</in>
						<out>1686</out>
						<enabled>FALSE</enabled>
					</clipitem>
					<clipitem frameBlend="FALSE" id="clipitem-rejected-1487">
						<file id="file-1"/>
						<name>[REJECTED] bandicam 2025-06-02 00-01-10-144</name>
						<rate>
							<timebase>60</timebase>
							<ntsc>TRUE</ntsc>
						</rate>
						<rate>
							<timebase>60</timebase>
							<ntsc>TRUE</ntsc>
						</rate>
						<duration>6</duration>
						<start>1788</start>
						<end>1794</end>
						<in>1788</in>
						<out>1794</out>
						<enabled>FALSE</enabled>
					</clipitem>
					<clipitem frameBlend="FALSE" id="clipitem-rejected-1488">
						<file id="file-1"/>
						<name>[REJECTED] bandicam 2025-06-02 00-01-10-144</name>
						<rate>
							<timebase>60</timebase>
							<ntsc>TRUE</ntsc>
						</rate>
						<rate>
							<timebase>60</timebase>
							<ntsc>TRUE</ntsc>
						</rate>
						<duration>0</duration>
						<start>1836</start>
						<end>1836</end>
						<in>1836</in>
						<out>1836</out>
						<enabled>FALSE</enabled>
					</clipitem>
					<clipitem frameBlend="FALSE" id="clipitem-rejected-1489">
						<file id="file-1"/>
						<name>[REJECTED] bandicam 2025-06-02 00-01-10-144</name>
						<rate>
							<timebase>60</timebase>
							<ntsc>TRUE</ntsc>
						</rate>
						<rate>
							<timebase>60</timebase>
							<ntsc>TRUE</ntsc>
						</rate>
						<duration>0</duration>
						<start>1878</start>
						<end>1878</end>
						<in>1878</in>
						<out>1878</out>
						<enabled>FALSE</enabled>
					</clipitem>
					<clipitem frameBlend="FALSE" id="clipitem-rejected-1490">
						<file id="file-1"/>
						<name>[REJECTED] bandicam 2025-06-02 00-01-10-144</name>
						<rate>
							<timebase>60</timebase>
							<ntsc>TRUE</ntsc>
						</rate>
						<rate>
							<timebase>60</timebase>
							<ntsc>TRUE</ntsc>
						</rate>
						<duration>6</duration>
						<start>1914</start>
						<end>1920</end>
						<in>1914</in>
						<out>1920</out>
						<enabled>FALSE</enabled>
					</clipitem>
					<clipitem frameBlend="FALSE" id="clipitem-rejected-1491">
						<file id="file-1"/>
						<name>[REJECTED] bandicam 2025-06-02 00-01-10-144</name>
						<rate>
							<timebase>60</timebase>
							<ntsc>TRUE</ntsc>
						</rate>
						<rate>
							<timebase>60</timebase>
							<ntsc>TRUE</ntsc>
						</rate>
						<duration>204</duration>
						<start>1962</start>
						<end>2166</end>
						<in>1962</in>
						<out>2166</out>
						<enabled>FALSE</enabled>
					</clipitem>
					<clipitem frameBlend="FALSE" id="clipitem-rejected-1492">
						<file id="file-1"/>
						<name>[REJECTED] bandicam 2025-06-02 00-01-10-144</name>
						<rate>
							<timebase>60</timebase>
							<ntsc>TRUE</ntsc>
						</rate>
						<rate>
							<timebase>60</timebase>
							<ntsc>TRUE</ntsc>
						</rate>
						<duration>54</duration>
						<start>2214</start>
						<end>2268</end>
						<in>2214</in>
						<out>2268</out>
						<enabled>FALSE</enabled>
					</clipitem>
					<clipitem frameBlend="FALSE" id="clipitem-rejected-1493">
						<file id="file-1"/>
						<name>[REJECTED] bandicam 2025-06-02 00-01-10-144</name>
						<rate>
							<timebase>60</timebase>
							<ntsc>TRUE</ntsc>
						</rate>
						<rate>
							<timebase>60</timebase>
							<ntsc>TRUE</ntsc>
						</rate>
						<duration>72</duration>
						<start>2370</start>
						<end>2442</end>
						<in>2370</in>
						<out>2442</out>
						<enabled>FALSE</enabled>
					</clipitem>
					<clipitem frameBlend="FALSE" id="clipitem-rejected-1494">
						<file id="file-1"/>
						<name>[REJECTED] bandicam 2025-06-02 00-01-10-144</name>
						<rate>
							<timebase>60</timebase>
							<ntsc>TRUE</ntsc>
						</rate>
						<rate>
							<timebase>60</timebase>
							<ntsc>TRUE</ntsc>
						</rate>
						<duration>0</duration>
						<start>2472</start>
						<end>2472</end>
						<in>2472</in>
						<out>2472</out>
						<enabled>FALSE</enabled>
					</clipitem>
					<clipitem frameBlend="FALSE" id="clipitem-rejected-1495">
						<file id="file-1"/>
						<name>[REJECTED] bandicam 2025-06-02 00-01-10-144</name>
						<rate>
							<timebase>60</timebase>
							<ntsc>TRUE</ntsc>
						</rate>
						<rate>
							<timebase>60</timebase>
							<ntsc>TRUE</ntsc>
						</rate>
						<duration>0</duration>
						<start>2490</start>
						<end>2490</end>
						<in>2490</in>
						<out>2490</out>
						<enabled>FALSE</enabled>
					</clipitem>
					<clipitem frameBlend="FALSE" id="clipitem-rejected-1496">
						<file id="file-1"/>
						<name>[REJECTED] bandicam 2025-06-02 00-01-10-144</name>
						<rate>
							<timebase>60</timebase>
							<ntsc>TRUE</ntsc>
						</rate>
						<rate>
							<timebase>60</timebase>
							<ntsc>TRUE</ntsc>
						</rate>
						<duration>18</duration>
						<start>2508</start>
						<end>2526</end>
						<in>2508</in>
						<out>2526</out>
						<enabled>FALSE</enabled>
					</clipitem>
					<clipitem frameBlend="FALSE" id="clipitem-rejected-1497">
						<file id="file-1"/>
						<name>[REJECTED] bandicam 2025-06-02 00-01-10-144</name>
						<rate>
							<timebase>60</timebase>
							<ntsc>TRUE</ntsc>
						</rate>
						<rate>
							<timebase>60</timebase>
							<ntsc>TRUE</ntsc>
						</rate>
						<duration>12</duration>
						<start>2574</start>
						<end>2586</end>
						<in>2574</in>
						<out>2586</out>
						<enabled>FALSE</enabled>
					</clipitem>
					<clipitem frameBlend="FALSE" id="clipitem-rejected-1498">
						<file id="file-1"/>
						<name>[REJECTED] bandicam 2025-06-02 00-01-10-144</name>
						<rate>
							<timebase>60</timebase>
							<ntsc>TRUE</ntsc>
						</rate>
						<rate>
							<timebase>60</timebase>
							<ntsc>TRUE</ntsc>
						</rate>
						<duration>30</duration>
						<start>2688</start>
						<end>2718</end>
						<in>2688</in>
						<out>2718</out>
						<enabled>FALSE</enabled>
					</clipitem>
					<clipitem frameBlend="FALSE" id="clipitem-rejected-1499">
						<file id="file-1"/>
						<name>[REJECTED] bandicam 2025-06-02 00-01-10-144</name>
						<rate>
							<timebase>60</timebase>
							<ntsc>TRUE</ntsc>
						</rate>
						<rate>
							<timebase>60</timebase>
							<ntsc>TRUE</ntsc>
						</rate>
						<duration>0</duration>
						<start>2862</start>
						<end>2862</end>
						<in>2862</in>
						<out>2862</out>
						<enabled>FALSE</enabled>
					</clipitem>
					<clipitem frameBlend="FALSE" id="clipitem-rejected-1500">
						<file id="file-1"/>
						<name>[REJECTED] bandicam 2025-06-02 00-01-10-144</name>
						<rate>
							<timebase>60</timebase>
							<ntsc>TRUE</ntsc>
						</rate>
						<rate>
							<timebase>60</timebase>
							<ntsc>TRUE</ntsc>
						</rate>
						<duration>24</duration>
						<start>2916</start>
						<end>2940</end>
						<in>2916</in>
						<out>2940</out>
						<enabled>FALSE</enabled>
					</clipitem>
					<clipitem frameBlend="FALSE" id="clipitem-rejected-1501">
						<file id="file-1"/>
						<name>[REJECTED] bandicam 2025-06-02 00-01-10-144</name>
						<rate>
							<timebase>60</timebase>
							<ntsc>TRUE</ntsc>
						</rate>
						<rate>
							<timebase>60</timebase>
							<ntsc>TRUE</ntsc>
						</rate>
						<duration>0</duration>
						<start>2958</start>
						<end>2958</end>
						<in>2958</in>
						<out>2958</out>
						<enabled>FALSE</enabled>
					</clipitem>
					<clipitem frameBlend="FALSE" id="clipitem-rejected-1502">
						<file id="file-1"/>
						<name>[REJECTED] bandicam 2025-06-02 00-01-10-144</name>
						<rate>
							<timebase>60</timebase>
							<ntsc>TRUE</ntsc>
						</rate>
						<rate>
							<timebase>60</timebase>
							<ntsc>TRUE</ntsc>
						</rate>
						<duration>18</duration>
						<start>3000</start>
						<end>3018</end>
						<in>3000</in>
						<out>3018</out>
						<enabled>FALSE</enabled>
					</clipitem>
					<clipitem frameBlend="FALSE" id="clipitem-rejected-1503">
						<file id="file-1"/>
						<name>[REJECTED] bandicam 2025-06-02 00-01-10-144</name>
						<rate>
							<timebase>60</timebase>
							<ntsc>TRUE</ntsc>
						</rate>
						<rate>
							<timebase>60</timebase>
							<ntsc>TRUE</ntsc>
						</rate>
						<duration>24</duration>
						<start>3030</start>
						<end>3054</end>
						<in>3030</in>
						<out>3054</out>
						<enabled>FALSE</enabled>
					</clipitem>
					<clipitem frameBlend="FALSE" id="clipitem-rejected-1504">
						<file id="file-1"/>
						<name>[REJECTED] bandicam 2025-06-02 00-01-10-144</name>
						<rate>
							<timebase>60</timebase>
							<ntsc>TRUE</ntsc>
						</rate>
						<rate>
							<timebase>60</timebase>
							<ntsc>TRUE</ntsc>
						</rate>
						<duration>6</duration>
						<start>3108</start>
						<end>3114</end>
						<in>3108</in>
						<out>3114</out>
						<enabled>FALSE</enabled>
					</clipitem>
					<clipitem frameBlend="FALSE" id="clipitem-rejected-1505">
						<file id="file-1"/>
						<name>[REJECTED] bandicam 2025-06-02 00-01-10-144</name>
						<rate>
							<timebase>60</timebase>
							<ntsc>TRUE</ntsc>
						</rate>
						<rate>
							<timebase>60</timebase>
							<ntsc>TRUE</ntsc>
						</rate>
						<duration>60</duration>
						<start>3156</start>
						<end>3216</end>
						<in>3156</in>
						<out>3216</out>
						<enabled>FALSE</enabled>
					</clipitem>
					<clipitem frameBlend="FALSE" id="clipitem-rejected-1506">
						<file id="file-1"/>
						<name>[REJECTED] bandicam 2025-06-02 00-01-10-144</name>
						<rate>
							<timebase>60</timebase>
							<ntsc>TRUE</ntsc>
						</rate>
						<rate>
							<timebase>60</timebase>
							<ntsc>TRUE</ntsc>
						</rate>
						<duration>0</duration>
						<start>3264</start>
						<end>3264</end>
						<in>3264</in>
						<out>3264</out>
						<enabled>FALSE</enabled>
					</clipitem>
					<clipitem frameBlend="FALSE" id="clipitem-rejected-1507">
						<file id="file-1"/>
						<name>[REJECTED] bandicam 2025-06-02 00-01-10-144</name>
						<rate>
							<timebase>60</timebase>
							<ntsc>TRUE</ntsc>
						</rate>
						<rate>
							<timebase>60</timebase>
							<ntsc>TRUE</ntsc>
						</rate>
						<duration>54</duration>
						<start>3312</start>
						<end>3366</end>
						<in>3312</in>
						<out>3366</out>
						<enabled>FALSE</enabled>
					</clipitem>
					<clipitem frameBlend="FALSE" id="clipitem-rejected-1508">
						<file id="file-1"/>
						<name>[REJECTED] bandicam 2025-06-02 00-01-10-144</name>
						<rate>
							<timebase>60</timebase>
							<ntsc>TRUE</ntsc>
						</rate>
						<rate>
							<timebase>60</timebase>
							<ntsc>TRUE</ntsc>
						</rate>
						<duration>36</duration>
						<start>3408</start>
						<end>3444</end>
						<in>3408</in>
						<out>3444</out>
						<enabled>FALSE</enabled>
					</clipitem>
					<clipitem frameBlend="FALSE" id="clipitem-rejected-1509">
						<file id="file-1"/>
						<name>[REJECTED] bandicam 2025-06-02 00-01-10-144</name>
						<rate>
							<timebase>60</timebase>
							<ntsc>TRUE</ntsc>
						</rate>
						<rate>
							<timebase>60</timebase>
							<ntsc>TRUE</ntsc>
						</rate>
						<duration>12</duration>
						<start>3480</start>
						<end>3492</end>
						<in>3480</in>
						<out>3492</out>
						<enabled>FALSE</enabled>
					</clipitem>
					<clipitem frameBlend="FALSE" id="clipitem-rejected-1510">
						<file id="file-1"/>
						<name>[REJECTED] bandicam 2025-06-02 00-01-10-144</name>
						<rate>
							<timebase>60</timebase>
							<ntsc>TRUE</ntsc>
						</rate>
						<rate>
							<timebase>60</timebase>
							<ntsc>TRUE</ntsc>
						</rate>
						<duration>42</duration>
						<start>3534</start>
						<end>3576</end>
						<in>3534</in>
						<out>3576</out>
						<enabled>FALSE</enabled>
					</clipitem>
					<clipitem frameBlend="FALSE" id="clipitem-rejected-1511">
						<file id="file-1"/>
						<name>[REJECTED] bandicam 2025-06-02 00-01-10-144</name>
						<rate>
							<timebase>60</timebase>
							<ntsc>TRUE</ntsc>
						</rate>
						<rate>
							<timebase>60</timebase>
							<ntsc>TRUE</ntsc>
						</rate>
						<duration>30</duration>
						<start>3588</start>
						<end>3618</end>
						<in>3588</in>
						<out>3618</out>
						<enabled>FALSE</enabled>
					</clipitem>
					<clipitem frameBlend="FALSE" id="clipitem-rejected-1512">
						<file id="file-1"/>
						<name>[REJECTED] bandicam 2025-06-02 00-01-10-144</name>
						<rate>
							<timebase>60</timebase>
							<ntsc>TRUE</ntsc>
						</rate>
						<rate>
							<timebase>60</timebase>
							<ntsc>TRUE</ntsc>
						</rate>
						<duration>18</duration>
						<start>3648</start>
						<end>3666</end>
						<in>3648</in>
						<out>3666</out>
						<enabled>FALSE</enabled>
					</clipitem>
					<clipitem frameBlend="FALSE" id="clipitem-rejected-1513">
						<file id="file-1"/>
						<name>[REJECTED] bandicam 2025-06-02 00-01-10-144</name>
						<rate>
							<timebase>60</timebase>
							<ntsc>TRUE</ntsc>
						</rate>
						<rate>
							<timebase>60</timebase>
							<ntsc>TRUE</ntsc>
						</rate>
						<duration>12</duration>
						<start>3678</start>
						<end>3690</end>
						<in>3678</in>
						<out>3690</out>
						<enabled>FALSE</enabled>
					</clipitem>
					<clipitem frameBlend="FALSE" id="clipitem-rejected-1514">
						<file id="file-1"/>
						<name>[REJECTED] bandicam 2025-06-02 00-01-10-144</name>
						<rate>
							<timebase>60</timebase>
							<ntsc>TRUE</ntsc>
						</rate>
						<rate>
							<timebase>60</timebase>
							<ntsc>TRUE</ntsc>
						</rate>
						<duration>60</duration>
						<start>3702</start>
						<end>3762</end>
						<in>3702</in>
						<out>3762</out>
						<enabled>FALSE</enabled>
					</clipitem>
					<clipitem frameBlend="FALSE" id="clipitem-rejected-1515">
						<file id="file-1"/>
						<name>[REJECTED] bandicam 2025-06-02 00-01-10-144</name>
						<rate>
							<timebase>60</timebase>
							<ntsc>TRUE</ntsc>
						</rate>
						<rate>
							<timebase>60</timebase>
							<ntsc>TRUE</ntsc>
						</rate>
						<duration>60</duration>
						<start>3786</start>
						<end>3846</end>
						<in>3786</in>
						<out>3846</out>
						<enabled>FALSE</enabled>
					</clipitem>
					<clipitem frameBlend="FALSE" id="clipitem-rejected-1516">
						<file id="file-1"/>
						<name>[REJECTED] bandicam 2025-06-02 00-01-10-144</name>
						<rate>
							<timebase>60</timebase>
							<ntsc>TRUE</ntsc>
						</rate>
						<rate>
							<timebase>60</timebase>
							<ntsc>TRUE</ntsc>
						</rate>
						<duration>12</duration>
						<start>3888</start>
						<end>3900</end>
						<in>3888</in>
						<out>3900</out>
						<enabled>FALSE</enabled>
					</clipitem>
					<clipitem frameBlend="FALSE" id="clipitem-rejected-1517">
						<file id="file-1"/>
						<name>[REJECTED] bandicam 2025-06-02 00-01-10-144</name>
						<rate>
							<timebase>60</timebase>
							<ntsc>TRUE</ntsc>
						</rate>
						<rate>
							<timebase>60</timebase>
							<ntsc>TRUE</ntsc>
						</rate>
						<duration>78</duration>
						<start>3942</start>
						<end>4020</end>
						<in>3942</in>
						<out>4020</out>
						<enabled>FALSE</enabled>
					</clipitem>
					<clipitem frameBlend="FALSE" id="clipitem-rejected-1518">
						<file id="file-1"/>
						<name>[REJECTED] bandicam 2025-06-02 00-01-10-144</name>
						<rate>
							<timebase>60</timebase>
							<ntsc>TRUE</ntsc>
						</rate>
						<rate>
							<timebase>60</timebase>
							<ntsc>TRUE</ntsc>
						</rate>
						<duration>0</duration>
						<start>4038</start>
						<end>4038</end>
						<in>4038</in>
						<out>4038</out>
						<enabled>FALSE</enabled>
					</clipitem>
					<clipitem frameBlend="FALSE" id="clipitem-rejected-1519">
						<file id="file-1"/>
						<name>[REJECTED] bandicam 2025-06-02 00-01-10-144</name>
						<rate>
							<timebase>60</timebase>
							<ntsc>TRUE</ntsc>
						</rate>
						<rate>
							<timebase>60</timebase>
							<ntsc>TRUE</ntsc>
						</rate>
						<duration>30</duration>
						<start>4050</start>
						<end>4080</end>
						<in>4050</in>
						<out>4080</out>
						<enabled>FALSE</enabled>
					</clipitem>
					<clipitem frameBlend="FALSE" id="clipitem-rejected-1520">
						<file id="file-1"/>
						<name>[REJECTED] bandicam 2025-06-02 00-01-10-144</name>
						<rate>
							<timebase>60</timebase>
							<ntsc>TRUE</ntsc>
						</rate>
						<rate>
							<timebase>60</timebase>
							<ntsc>TRUE</ntsc>
						</rate>
						<duration>6</duration>
						<start>4176</start>
						<end>4182</end>
						<in>4176</in>
						<out>4182</out>
						<enabled>FALSE</enabled>
					</clipitem>
					<clipitem frameBlend="FALSE" id="clipitem-rejected-1521">
						<file id="file-1"/>
						<name>[REJECTED] bandicam 2025-06-02 00-01-10-144</name>
						<rate>
							<timebase>60</timebase>
							<ntsc>TRUE</ntsc>
						</rate>
						<rate>
							<timebase>60</timebase>
							<ntsc>TRUE</ntsc>
						</rate>
						<duration>0</duration>
						<start>4212</start>
						<end>4212</end>
						<in>4212</in>
						<out>4212</out>
						<enabled>FALSE</enabled>
					</clipitem>
					<clipitem frameBlend="FALSE" id="clipitem-rejected-1522">
						<file id="file-1"/>
						<name>[REJECTED] bandicam 2025-06-02 00-01-10-144</name>
						<rate>
							<timebase>60</timebase>
							<ntsc>TRUE</ntsc>
						</rate>
						<rate>
							<timebase>60</timebase>
							<ntsc>TRUE</ntsc>
						</rate>
						<duration>6</duration>
						<start>4290</start>
						<end>4296</end>
						<in>4290</in>
						<out>4296</out>
						<enabled>FALSE</enabled>
					</clipitem>
					<clipitem frameBlend="FALSE" id="clipitem-rejected-1523">
						<file id="file-1"/>
						<name>[REJECTED] bandicam 2025-06-02 00-01-10-144</name>
						<rate>
							<timebase>60</timebase>
							<ntsc>TRUE</ntsc>
						</rate>
						<rate>
							<timebase>60</timebase>
							<ntsc>TRUE</ntsc>
						</rate>
						<duration>24</duration>
						<start>4440</start>
						<end>4464</end>
						<in>4440</in>
						<out>4464</out>
						<enabled>FALSE</enabled>
					</clipitem>
					<clipitem frameBlend="FALSE" id="clipitem-rejected-1524">
						<file id="file-1"/>
						<name>[REJECTED] bandicam 2025-06-02 00-01-10-144</name>
						<rate>
							<timebase>60</timebase>
							<ntsc>TRUE</ntsc>
						</rate>
						<rate>
							<timebase>60</timebase>
							<ntsc>TRUE</ntsc>
						</rate>
						<duration>12</duration>
						<start>4488</start>
						<end>4500</end>
						<in>4488</in>
						<out>4500</out>
						<enabled>FALSE</enabled>
					</clipitem>
					<clipitem frameBlend="FALSE" id="clipitem-rejected-1525">
						<file id="file-1"/>
						<name>[REJECTED] bandicam 2025-06-02 00-01-10-144</name>
						<rate>
							<timebase>60</timebase>
							<ntsc>TRUE</ntsc>
						</rate>
						<rate>
							<timebase>60</timebase>
							<ntsc>TRUE</ntsc>
						</rate>
						<duration>36</duration>
						<start>4560</start>
						<end>4596</end>
						<in>4560</in>
						<out>4596</out>
						<enabled>FALSE</enabled>
					</clipitem>
					<clipitem frameBlend="FALSE" id="clipitem-rejected-1526">
						<file id="file-1"/>
						<name>[REJECTED] bandicam 2025-06-02 00-01-10-144</name>
						<rate>
							<timebase>60</timebase>
							<ntsc>TRUE</ntsc>
						</rate>
						<rate>
							<timebase>60</timebase>
							<ntsc>TRUE</ntsc>
						</rate>
						<duration>6</duration>
						<start>4638</start>
						<end>4644</end>
						<in>4638</in>
						<out>4644</out>
						<enabled>FALSE</enabled>
					</clipitem>
					<clipitem frameBlend="FALSE" id="clipitem-rejected-1527">
						<file id="file-1"/>
						<name>[REJECTED] bandicam 2025-06-02 00-01-10-144</name>
						<rate>
							<timebase>60</timebase>
							<ntsc>TRUE</ntsc>
						</rate>
						<rate>
							<timebase>60</timebase>
							<ntsc>TRUE</ntsc>
						</rate>
						<duration>12</duration>
						<start>4686</start>
						<end>4698</end>
						<in>4686</in>
						<out>4698</out>
						<enabled>FALSE</enabled>
					</clipitem>
					<clipitem frameBlend="FALSE" id="clipitem-rejected-1528">
						<file id="file-1"/>
						<name>[REJECTED] bandicam 2025-06-02 00-01-10-144</name>
						<rate>
							<timebase>60</timebase>
							<ntsc>TRUE</ntsc>
						</rate>
						<rate>
							<timebase>60</timebase>
							<ntsc>TRUE</ntsc>
						</rate>
						<duration>6</duration>
						<start>4710</start>
						<end>4716</end>
						<in>4710</in>
						<out>4716</out>
						<enabled>FALSE</enabled>
					</clipitem>
					<clipitem frameBlend="FALSE" id="clipitem-rejected-1529">
						<file id="file-1"/>
						<name>[REJECTED] bandicam 2025-06-02 00-01-10-144</name>
						<rate>
							<timebase>60</timebase>
							<ntsc>TRUE</ntsc>
						</rate>
						<rate>
							<timebase>60</timebase>
							<ntsc>TRUE</ntsc>
						</rate>
						<duration>18</duration>
						<start>4824</start>
						<end>4842</end>
						<in>4824</in>
						<out>4842</out>
						<enabled>FALSE</enabled>
					</clipitem>
					<clipitem frameBlend="FALSE" id="clipitem-rejected-1530">
						<file id="file-1"/>
						<name>[REJECTED] bandicam 2025-06-02 00-01-10-144</name>
						<rate>
							<timebase>60</timebase>
							<ntsc>TRUE</ntsc>
						</rate>
						<rate>
							<timebase>60</timebase>
							<ntsc>TRUE</ntsc>
						</rate>
						<duration>0</duration>
						<start>4854</start>
						<end>4854</end>
						<in>4854</in>
						<out>4854</out>
						<enabled>FALSE</enabled>
					</clipitem>
					<clipitem frameBlend="FALSE" id="clipitem-rejected-1531">
						<file id="file-1"/>
						<name>[REJECTED] bandicam 2025-06-02 00-01-10-144</name>
						<rate>
							<timebase>60</timebase>
							<ntsc>TRUE</ntsc>
						</rate>
						<rate>
							<timebase>60</timebase>
							<ntsc>TRUE</ntsc>
						</rate>
						<duration>6</duration>
						<start>4878</start>
						<end>4884</end>
						<in>4878</in>
						<out>4884</out>
						<enabled>FALSE</enabled>
					</clipitem>
					<clipitem frameBlend="FALSE" id="clipitem-rejected-1532">
						<file id="file-1"/>
						<name>[REJECTED] bandicam 2025-06-02 00-01-10-144</name>
						<rate>
							<timebase>60</timebase>
							<ntsc>TRUE</ntsc>
						</rate>
						<rate>
							<timebase>60</timebase>
							<ntsc>TRUE</ntsc>
						</rate>
						<duration>0</duration>
						<start>4902</start>
						<end>4902</end>
						<in>4902</in>
						<out>4902</out>
						<enabled>FALSE</enabled>
					</clipitem>
					<clipitem frameBlend="FALSE" id="clipitem-rejected-1533">
						<file id="file-1"/>
						<name>[REJECTED] bandicam 2025-06-02 00-01-10-144</name>
						<rate>
							<timebase>60</timebase>
							<ntsc>TRUE</ntsc>
						</rate>
						<rate>
							<timebase>60</timebase>
							<ntsc>TRUE</ntsc>
						</rate>
						<duration>0</duration>
						<start>4938</start>
						<end>4938</end>
						<in>4938</in>
						<out>4938</out>
						<enabled>FALSE</enabled>
					</clipitem>
					<clipitem frameBlend="FALSE" id="clipitem-rejected-1534">
						<file id="file-1"/>
						<name>[REJECTED] bandicam 2025-06-02 00-01-10-144</name>
						<rate>
							<timebase>60</timebase>
							<ntsc>TRUE</ntsc>
						</rate>
						<rate>
							<timebase>60</timebase>
							<ntsc>TRUE</ntsc>
						</rate>
						<duration>30</duration>
						<start>4980</start>
						<end>5010</end>
						<in>4980</in>
						<out>5010</out>
						<enabled>FALSE</enabled>
					</clipitem>
					<clipitem frameBlend="FALSE" id="clipitem-rejected-1535">
						<file id="file-1"/>
						<name>[REJECTED] bandicam 2025-06-02 00-01-10-144</name>
						<rate>
							<timebase>60</timebase>
							<ntsc>TRUE</ntsc>
						</rate>
						<rate>
							<timebase>60</timebase>
							<ntsc>TRUE</ntsc>
						</rate>
						<duration>6</duration>
						<start>5052</start>
						<end>5058</end>
						<in>5052</in>
						<out>5058</out>
						<enabled>FALSE</enabled>
					</clipitem>
					<clipitem frameBlend="FALSE" id="clipitem-rejected-1536">
						<file id="file-1"/>
						<name>[REJECTED] bandicam 2025-06-02 00-01-10-144</name>
						<rate>
							<timebase>60</timebase>
							<ntsc>TRUE</ntsc>
						</rate>
						<rate>
							<timebase>60</timebase>
							<ntsc>TRUE</ntsc>
						</rate>
						<duration>0</duration>
						<start>5076</start>
						<end>5076</end>
						<in>5076</in>
						<out>5076</out>
						<enabled>FALSE</enabled>
					</clipitem>
					<clipitem frameBlend="FALSE" id="clipitem-rejected-1537">
						<file id="file-1"/>
						<name>[REJECTED] bandicam 2025-06-02 00-01-10-144</name>
						<rate>
							<timebase>60</timebase>
							<ntsc>TRUE</ntsc>
						</rate>
						<rate>
							<timebase>60</timebase>
							<ntsc>TRUE</ntsc>
						</rate>
						<duration>42</duration>
						<start>5184</start>
						<end>5226</end>
						<in>5184</in>
						<out>5226</out>
						<enabled>FALSE</enabled>
					</clipitem>
					<clipitem frameBlend="FALSE" id="clipitem-rejected-1538">
						<file id="file-1"/>
						<name>[REJECTED] bandicam 2025-06-02 00-01-10-144</name>
						<rate>
							<timebase>60</timebase>
							<ntsc>TRUE</ntsc>
						</rate>
						<rate>
							<timebase>60</timebase>
							<ntsc>TRUE</ntsc>
						</rate>
						<duration>54</duration>
						<start>5268</start>
						<end>5322</end>
						<in>5268</in>
						<out>5322</out>
						<enabled>FALSE</enabled>
					</clipitem>
					<clipitem frameBlend="FALSE" id="clipitem-rejected-1539">
						<file id="file-1"/>
						<name>[REJECTED] bandicam 2025-06-02 00-01-10-144</name>
						<rate>
							<timebase>60</timebase>
							<ntsc>TRUE</ntsc>
						</rate>
						<rate>
							<timebase>60</timebase>
							<ntsc>TRUE</ntsc>
						</rate>
						<duration>0</duration>
						<start>5346</start>
						<end>5346</end>
						<in>5346</in>
						<out>5346</out>
						<enabled>FALSE</enabled>
					</clipitem>
					<clipitem frameBlend="FALSE" id="clipitem-rejected-1540">
						<file id="file-1"/>
						<name>[REJECTED] bandicam 2025-06-02 00-01-10-144</name>
						<rate>
							<timebase>60</timebase>
							<ntsc>TRUE</ntsc>
						</rate>
						<rate>
							<timebase>60</timebase>
							<ntsc>TRUE</ntsc>
						</rate>
						<duration>6</duration>
						<start>5370</start>
						<end>5376</end>
						<in>5370</in>
						<out>5376</out>
						<enabled>FALSE</enabled>
					</clipitem>
					<clipitem frameBlend="FALSE" id="clipitem-rejected-1541">
						<file id="file-1"/>
						<name>[REJECTED] bandicam 2025-06-02 00-01-10-144</name>
						<rate>
							<timebase>60</timebase>
							<ntsc>TRUE</ntsc>
						</rate>
						<rate>
							<timebase>60</timebase>
							<ntsc>TRUE</ntsc>
						</rate>
						<duration>12</duration>
						<start>5472</start>
						<end>5484</end>
						<in>5472</in>
						<out>5484</out>
						<enabled>FALSE</enabled>
					</clipitem>
					<clipitem frameBlend="FALSE" id="clipitem-rejected-1542">
						<file id="file-1"/>
						<name>[REJECTED] bandicam 2025-06-02 00-01-10-144</name>
						<rate>
							<timebase>60</timebase>
							<ntsc>TRUE</ntsc>
						</rate>
						<rate>
							<timebase>60</timebase>
							<ntsc>TRUE</ntsc>
						</rate>
						<duration>0</duration>
						<start>5526</start>
						<end>5526</end>
						<in>5526</in>
						<out>5526</out>
						<enabled>FALSE</enabled>
					</clipitem>
					<clipitem frameBlend="FALSE" id="clipitem-rejected-1543">
						<file id="file-1"/>
						<name>[REJECTED] bandicam 2025-06-02 00-01-10-144</name>
						<rate>
							<timebase>60</timebase>
							<ntsc>TRUE</ntsc>
						</rate>
						<rate>
							<timebase>60</timebase>
							<ntsc>TRUE</ntsc>
						</rate>
						<duration>12</duration>
						<start>5604</start>
						<end>5616</end>
						<in>5604</in>
						<out>5616</out>
						<enabled>FALSE</enabled>
					</clipitem>
					<clipitem frameBlend="FALSE" id="clipitem-rejected-1544">
						<file id="file-1"/>
						<name>[REJECTED] bandicam 2025-06-02 00-01-10-144</name>
						<rate>
							<timebase>60</timebase>
							<ntsc>TRUE</ntsc>
						</rate>
						<rate>
							<timebase>60</timebase>
							<ntsc>TRUE</ntsc>
						</rate>
						<duration>6</duration>
						<start>5652</start>
						<end>5658</end>
						<in>5652</in>
						<out>5658</out>
						<enabled>FALSE</enabled>
					</clipitem>
					<clipitem frameBlend="FALSE" id="clipitem-rejected-1545">
						<file id="file-1"/>
						<name>[REJECTED] bandicam 2025-06-02 00-01-10-144</name>
						<rate>
							<timebase>60</timebase>
							<ntsc>TRUE</ntsc>
						</rate>
						<rate>
							<timebase>60</timebase>
							<ntsc>TRUE</ntsc>
						</rate>
						<duration>6</duration>
						<start>5700</start>
						<end>5706</end>
						<in>5700</in>
						<out>5706</out>
						<enabled>FALSE</enabled>
					</clipitem>
					<clipitem frameBlend="FALSE" id="clipitem-rejected-1546">
						<file id="file-1"/>
						<name>[REJECTED] bandicam 2025-06-02 00-01-10-144</name>
						<rate>
							<timebase>60</timebase>
							<ntsc>TRUE</ntsc>
						</rate>
						<rate>
							<timebase>60</timebase>
							<ntsc>TRUE</ntsc>
						</rate>
						<duration>12</duration>
						<start>5784</start>
						<end>5796</end>
						<in>5784</in>
						<out>5796</out>
						<enabled>FALSE</enabled>
					</clipitem>
					<clipitem frameBlend="FALSE" id="clipitem-rejected-1547">
						<file id="file-1"/>
						<name>[REJECTED] bandicam 2025-06-02 00-01-10-144</name>
						<rate>
							<timebase>60</timebase>
							<ntsc>TRUE</ntsc>
						</rate>
						<rate>
							<timebase>60</timebase>
							<ntsc>TRUE</ntsc>
						</rate>
						<duration>36</duration>
						<start>6090</start>
						<end>6126</end>
						<in>6090</in>
						<out>6126</out>
						<enabled>FALSE</enabled>
					</clipitem>
					<clipitem frameBlend="FALSE" id="clipitem-rejected-1548">
						<file id="file-1"/>
						<name>[REJECTED] bandicam 2025-06-02 00-01-10-144</name>
						<rate>
							<timebase>60</timebase>
							<ntsc>TRUE</ntsc>
						</rate>
						<rate>
							<timebase>60</timebase>
							<ntsc>TRUE</ntsc>
						</rate>
						<duration>6</duration>
						<start>6138</start>
						<end>6144</end>
						<in>6138</in>
						<out>6144</out>
						<enabled>FALSE</enabled>
					</clipitem>
					<clipitem frameBlend="FALSE" id="clipitem-rejected-1549">
						<file id="file-1"/>
						<name>[REJECTED] bandicam 2025-06-02 00-01-10-144</name>
						<rate>
							<timebase>60</timebase>
							<ntsc>TRUE</ntsc>
						</rate>
						<rate>
							<timebase>60</timebase>
							<ntsc>TRUE</ntsc>
						</rate>
						<duration>0</duration>
						<start>6216</start>
						<end>6216</end>
						<in>6216</in>
						<out>6216</out>
						<enabled>FALSE</enabled>
					</clipitem>
					<clipitem frameBlend="FALSE" id="clipitem-rejected-1550">
						<file id="file-1"/>
						<name>[REJECTED] bandicam 2025-06-02 00-01-10-144</name>
						<rate>
							<timebase>60</timebase>
							<ntsc>TRUE</ntsc>
						</rate>
						<rate>
							<timebase>60</timebase>
							<ntsc>TRUE</ntsc>
						</rate>
						<duration>12</duration>
						<start>6264</start>
						<end>6276</end>
						<in>6264</in>
						<out>6276</out>
						<enabled>FALSE</enabled>
					</clipitem>
					<clipitem frameBlend="FALSE" id="clipitem-rejected-1551">
						<file id="file-1"/>
						<name>[REJECTED] bandicam 2025-06-02 00-01-10-144</name>
						<rate>
							<timebase>60</timebase>
							<ntsc>TRUE</ntsc>
						</rate>
						<rate>
							<timebase>60</timebase>
							<ntsc>TRUE</ntsc>
						</rate>
						<duration>6</duration>
						<start>6288</start>
						<end>6294</end>
						<in>6288</in>
						<out>6294</out>
						<enabled>FALSE</enabled>
					</clipitem>
					<clipitem frameBlend="FALSE" id="clipitem-rejected-1552">
						<file id="file-1"/>
						<name>[REJECTED] bandicam 2025-06-02 00-01-10-144</name>
						<rate>
							<timebase>60</timebase>
							<ntsc>TRUE</ntsc>
						</rate>
						<rate>
							<timebase>60</timebase>
							<ntsc>TRUE</ntsc>
						</rate>
						<duration>0</duration>
						<start>6306</start>
						<end>6306</end>
						<in>6306</in>
						<out>6306</out>
						<enabled>FALSE</enabled>
					</clipitem>
					<clipitem frameBlend="FALSE" id="clipitem-rejected-1553">
						<file id="file-1"/>
						<name>[REJECTED] bandicam 2025-06-02 00-01-10-144</name>
						<rate>
							<timebase>60</timebase>
							<ntsc>TRUE</ntsc>
						</rate>
						<rate>
							<timebase>60</timebase>
							<ntsc>TRUE</ntsc>
						</rate>
						<duration>30</duration>
						<start>6348</start>
						<end>6378</end>
						<in>6348</in>
						<out>6378</out>
						<enabled>FALSE</enabled>
					</clipitem>
					<clipitem frameBlend="FALSE" id="clipitem-rejected-1554">
						<file id="file-1"/>
						<name>[REJECTED] bandicam 2025-06-02 00-01-10-144</name>
						<rate>
							<timebase>60</timebase>
							<ntsc>TRUE</ntsc>
						</rate>
						<rate>
							<timebase>60</timebase>
							<ntsc>TRUE</ntsc>
						</rate>
						<duration>6</duration>
						<start>6420</start>
						<end>6426</end>
						<in>6420</in>
						<out>6426</out>
						<enabled>FALSE</enabled>
					</clipitem>
					<clipitem frameBlend="FALSE" id="clipitem-rejected-1555">
						<file id="file-1"/>
						<name>[REJECTED] bandicam 2025-06-02 00-01-10-144</name>
						<rate>
							<timebase>60</timebase>
							<ntsc>TRUE</ntsc>
						</rate>
						<rate>
							<timebase>60</timebase>
							<ntsc>TRUE</ntsc>
						</rate>
						<duration>0</duration>
						<start>6462</start>
						<end>6462</end>
						<in>6462</in>
						<out>6462</out>
						<enabled>FALSE</enabled>
					</clipitem>
					<clipitem frameBlend="FALSE" id="clipitem-rejected-1556">
						<file id="file-1"/>
						<name>[REJECTED] bandicam 2025-06-02 00-01-10-144</name>
						<rate>
							<timebase>60</timebase>
							<ntsc>TRUE</ntsc>
						</rate>
						<rate>
							<timebase>60</timebase>
							<ntsc>TRUE</ntsc>
						</rate>
						<duration>12</duration>
						<start>6594</start>
						<end>6606</end>
						<in>6594</in>
						<out>6606</out>
						<enabled>FALSE</enabled>
					</clipitem>
					<clipitem frameBlend="FALSE" id="clipitem-rejected-1557">
						<file id="file-1"/>
						<name>[REJECTED] bandicam 2025-06-02 00-01-10-144</name>
						<rate>
							<timebase>60</timebase>
							<ntsc>TRUE</ntsc>
						</rate>
						<rate>
							<timebase>60</timebase>
							<ntsc>TRUE</ntsc>
						</rate>
						<duration>66</duration>
						<start>6642</start>
						<end>6708</end>
						<in>6642</in>
						<out>6708</out>
						<enabled>FALSE</enabled>
					</clipitem>
					<clipitem frameBlend="FALSE" id="clipitem-rejected-1558">
						<file id="file-1"/>
						<name>[REJECTED] bandicam 2025-06-02 00-01-10-144</name>
						<rate>
							<timebase>60</timebase>
							<ntsc>TRUE</ntsc>
						</rate>
						<rate>
							<timebase>60</timebase>
							<ntsc>TRUE</ntsc>
						</rate>
						<duration>6</duration>
						<start>6720</start>
						<end>6726</end>
						<in>6720</in>
						<out>6726</out>
						<enabled>FALSE</enabled>
					</clipitem>
					<clipitem frameBlend="FALSE" id="clipitem-rejected-1559">
						<file id="file-1"/>
						<name>[REJECTED] bandicam 2025-06-02 00-01-10-144</name>
						<rate>
							<timebase>60</timebase>
							<ntsc>TRUE</ntsc>
						</rate>
						<rate>
							<timebase>60</timebase>
							<ntsc>TRUE</ntsc>
						</rate>
						<duration>6</duration>
						<start>6738</start>
						<end>6744</end>
						<in>6738</in>
						<out>6744</out>
						<enabled>FALSE</enabled>
					</clipitem>
					<clipitem frameBlend="FALSE" id="clipitem-rejected-1560">
						<file id="file-1"/>
						<name>[REJECTED] bandicam 2025-06-02 00-01-10-144</name>
						<rate>
							<timebase>60</timebase>
							<ntsc>TRUE</ntsc>
						</rate>
						<rate>
							<timebase>60</timebase>
							<ntsc>TRUE</ntsc>
						</rate>
						<duration>18</duration>
						<start>6774</start>
						<end>6792</end>
						<in>6774</in>
						<out>6792</out>
						<enabled>FALSE</enabled>
					</clipitem>
					<clipitem frameBlend="FALSE" id="clipitem-rejected-1561">
						<file id="file-1"/>
						<name>[REJECTED] bandicam 2025-06-02 00-01-10-144</name>
						<rate>
							<timebase>60</timebase>
							<ntsc>TRUE</ntsc>
						</rate>
						<rate>
							<timebase>60</timebase>
							<ntsc>TRUE</ntsc>
						</rate>
						<duration>24</duration>
						<start>6864</start>
						<end>6888</end>
						<in>6864</in>
						<out>6888</out>
						<enabled>FALSE</enabled>
					</clipitem>
					<clipitem frameBlend="FALSE" id="clipitem-rejected-1562">
						<file id="file-1"/>
						<name>[REJECTED] bandicam 2025-06-02 00-01-10-144</name>
						<rate>
							<timebase>60</timebase>
							<ntsc>TRUE</ntsc>
						</rate>
						<rate>
							<timebase>60</timebase>
							<ntsc>TRUE</ntsc>
						</rate>
						<duration>0</duration>
						<start>6906</start>
						<end>6906</end>
						<in>6906</in>
						<out>6906</out>
						<enabled>FALSE</enabled>
					</clipitem>
					<clipitem frameBlend="FALSE" id="clipitem-rejected-1563">
						<file id="file-1"/>
						<name>[REJECTED] bandicam 2025-06-02 00-01-10-144</name>
						<rate>
							<timebase>60</timebase>
							<ntsc>TRUE</ntsc>
						</rate>
						<rate>
							<timebase>60</timebase>
							<ntsc>TRUE</ntsc>
						</rate>
						<duration>0</duration>
						<start>6948</start>
						<end>6948</end>
						<in>6948</in>
						<out>6948</out>
						<enabled>FALSE</enabled>
					</clipitem>
					<clipitem frameBlend="FALSE" id="clipitem-rejected-1564">
						<file id="file-1"/>
						<name>[REJECTED] bandicam 2025-06-02 00-01-10-144</name>
						<rate>
							<timebase>60</timebase>
							<ntsc>TRUE</ntsc>
						</rate>
						<rate>
							<timebase>60</timebase>
							<ntsc>TRUE</ntsc>
						</rate>
						<duration>36</duration>
						<start>6960</start>
						<end>6996</end>
						<in>6960</in>
						<out>6996</out>
						<enabled>FALSE</enabled>
					</clipitem>
					<clipitem frameBlend="FALSE" id="clipitem-rejected-1565">
						<file id="file-1"/>
						<name>[REJECTED] bandicam 2025-06-02 00-01-10-144</name>
						<rate>
							<timebase>60</timebase>
							<ntsc>TRUE</ntsc>
						</rate>
						<rate>
							<timebase>60</timebase>
							<ntsc>TRUE</ntsc>
						</rate>
						<duration>12</duration>
						<start>7008</start>
						<end>7020</end>
						<in>7008</in>
						<out>7020</out>
						<enabled>FALSE</enabled>
					</clipitem>
					<clipitem frameBlend="FALSE" id="clipitem-rejected-1566">
						<file id="file-1"/>
						<name>[REJECTED] bandicam 2025-06-02 00-01-10-144</name>
						<rate>
							<timebase>60</timebase>
							<ntsc>TRUE</ntsc>
						</rate>
						<rate>
							<timebase>60</timebase>
							<ntsc>TRUE</ntsc>
						</rate>
						<duration>12</duration>
						<start>7056</start>
						<end>7068</end>
						<in>7056</in>
						<out>7068</out>
						<enabled>FALSE</enabled>
					</clipitem>
					<clipitem frameBlend="FALSE" id="clipitem-rejected-1567">
						<file id="file-1"/>
						<name>[REJECTED] bandicam 2025-06-02 00-01-10-144</name>
						<rate>
							<timebase>60</timebase>
							<ntsc>TRUE</ntsc>
						</rate>
						<rate>
							<timebase>60</timebase>
							<ntsc>TRUE</ntsc>
						</rate>
						<duration>108</duration>
						<start>0</start>
						<end>108</end>
						<in>0</in>
						<out>108</out>
						<enabled>FALSE</enabled>
					</clipitem>
					<clipitem frameBlend="FALSE" id="clipitem-rejected-1568">
						<file id="file-1"/>
						<name>[REJECTED] bandicam 2025-06-02 00-01-10-144</name>
						<rate>
							<timebase>60</timebase>
							<ntsc>TRUE</ntsc>
						</rate>
						<rate>
							<timebase>60</timebase>
							<ntsc>TRUE</ntsc>
						</rate>
						<duration>1278</duration>
						<start>126</start>
						<end>1404</end>
						<in>126</in>
						<out>1404</out>
						<enabled>FALSE</enabled>
					</clipitem>
					<clipitem frameBlend="FALSE" id="clipitem-rejected-1569">
						<file id="file-1"/>
						<name>[REJECTED] bandicam 2025-06-02 00-01-10-144</name>
						<rate>
							<timebase>60</timebase>
							<ntsc>TRUE</ntsc>
						</rate>
						<rate>
							<timebase>60</timebase>
							<ntsc>TRUE</ntsc>
						</rate>
						<duration>276</duration>
						<start>1422</start>
						<end>1698</end>
						<in>1422</in>
						<out>1698</out>
						<enabled>FALSE</enabled>
					</clipitem>
					<clipitem frameBlend="FALSE" id="clipitem-rejected-1570">
						<file id="file-1"/>
						<name>[REJECTED] bandicam 2025-06-02 00-01-10-144</name>
						<rate>
							<timebase>60</timebase>
							<ntsc>TRUE</ntsc>
						</rate>
						<rate>
							<timebase>60</timebase>
							<ntsc>TRUE</ntsc>
						</rate>
						<duration>30</duration>
						<start>1710</start>
						<end>1740</end>
						<in>1710</in>
						<out>1740</out>
						<enabled>FALSE</enabled>
					</clipitem>
					<clipitem frameBlend="FALSE" id="clipitem-rejected-1571">
						<file id="file-1"/>
						<name>[REJECTED] bandicam 2025-06-02 00-01-10-144</name>
						<rate>
							<timebase>60</timebase>
							<ntsc>TRUE</ntsc>
						</rate>
						<rate>
							<timebase>60</timebase>
							<ntsc>TRUE</ntsc>
						</rate>
						<duration>120</duration>
						<start>1764</start>
						<end>1884</end>
						<in>1764</in>
						<out>1884</out>
						<enabled>FALSE</enabled>
					</clipitem>
					<clipitem frameBlend="FALSE" id="clipitem-rejected-1572">
						<file id="file-1"/>
						<name>[REJECTED] bandicam 2025-06-02 00-01-10-144</name>
						<rate>
							<timebase>60</timebase>
							<ntsc>TRUE</ntsc>
						</rate>
						<rate>
							<timebase>60</timebase>
							<ntsc>TRUE</ntsc>
						</rate>
						<duration>546</duration>
						<start>1896</start>
						<end>2442</end>
						<in>1896</in>
						<out>2442</out>
						<enabled>FALSE</enabled>
					</clipitem>
					<clipitem frameBlend="FALSE" id="clipitem-rejected-1573">
						<file id="file-1"/>
						<name>[REJECTED] bandicam 2025-06-02 00-01-10-144</name>
						<rate>
							<timebase>60</timebase>
							<ntsc>TRUE</ntsc>
						</rate>
						<rate>
							<timebase>60</timebase>
							<ntsc>TRUE</ntsc>
						</rate>
						<duration>276</duration>
						<start>2460</start>
						<end>2736</end>
						<in>2460</in>
						<out>2736</out>
						<enabled>FALSE</enabled>
					</clipitem>
					<clipitem frameBlend="FALSE" id="clipitem-rejected-1574">
						<file id="file-1"/>
						<name>[REJECTED] bandicam 2025-06-02 00-01-10-144</name>
						<rate>
							<timebase>60</timebase>
							<ntsc>TRUE</ntsc>
						</rate>
						<rate>
							<timebase>60</timebase>
							<ntsc>TRUE</ntsc>
						</rate>
						<duration>0</duration>
						<start>2760</start>
						<end>2760</end>
						<in>2760</in>
						<out>2760</out>
						<enabled>FALSE</enabled>
					</clipitem>
					<clipitem frameBlend="FALSE" id="clipitem-rejected-1575">
						<file id="file-1"/>
						<name>[REJECTED] bandicam 2025-06-02 00-01-10-144</name>
						<rate>
							<timebase>60</timebase>
							<ntsc>TRUE</ntsc>
						</rate>
						<rate>
							<timebase>60</timebase>
							<ntsc>TRUE</ntsc>
						</rate>
						<duration>18</duration>
						<start>2778</start>
						<end>2796</end>
						<in>2778</in>
						<out>2796</out>
						<enabled>FALSE</enabled>
					</clipitem>
					<clipitem frameBlend="FALSE" id="clipitem-rejected-1576">
						<file id="file-1"/>
						<name>[REJECTED] bandicam 2025-06-02 00-01-10-144</name>
						<rate>
							<timebase>60</timebase>
							<ntsc>TRUE</ntsc>
						</rate>
						<rate>
							<timebase>60</timebase>
							<ntsc>TRUE</ntsc>
						</rate>
						<duration>240</duration>
						<start>2826</start>
						<end>3066</end>
						<in>2826</in>
						<out>3066</out>
						<enabled>FALSE</enabled>
					</clipitem>
					<clipitem frameBlend="FALSE" id="clipitem-rejected-1577">
						<file id="file-1"/>
						<name>[REJECTED] bandicam 2025-06-02 00-01-10-144</name>
						<rate>
							<timebase>60</timebase>
							<ntsc>TRUE</ntsc>
						</rate>
						<rate>
							<timebase>60</timebase>
							<ntsc>TRUE</ntsc>
						</rate>
						<duration>156</duration>
						<start>3108</start>
						<end>3264</end>
						<in>3108</in>
						<out>3264</out>
						<enabled>FALSE</enabled>
					</clipitem>
					<clipitem frameBlend="FALSE" id="clipitem-rejected-1578">
						<file id="file-1"/>
						<name>[REJECTED] bandicam 2025-06-02 00-01-10-144</name>
						<rate>
							<timebase>60</timebase>
							<ntsc>TRUE</ntsc>
						</rate>
						<rate>
							<timebase>60</timebase>
							<ntsc>TRUE</ntsc>
						</rate>
						<duration>330</duration>
						<start>3294</start>
						<end>3624</end>
						<in>3294</in>
						<out>3624</out>
						<enabled>FALSE</enabled>
					</clipitem>
					<clipitem frameBlend="FALSE" id="clipitem-rejected-1579">
						<file id="file-1"/>
						<name>[REJECTED] bandicam 2025-06-02 00-01-10-144</name>
						<rate>
							<timebase>60</timebase>
							<ntsc>TRUE</ntsc>
						</rate>
						<rate>
							<timebase>60</timebase>
							<ntsc>TRUE</ntsc>
						</rate>
						<duration>444</duration>
						<start>3636</start>
						<end>4080</end>
						<in>3636</in>
						<out>4080</out>
						<enabled>FALSE</enabled>
					</clipitem>
					<clipitem frameBlend="FALSE" id="clipitem-rejected-1580">
						<file id="file-1"/>
						<name>[REJECTED] bandicam 2025-06-02 00-01-10-144</name>
						<rate>
							<timebase>60</timebase>
							<ntsc>TRUE</ntsc>
						</rate>
						<rate>
							<timebase>60</timebase>
							<ntsc>TRUE</ntsc>
						</rate>
						<duration>0</duration>
						<start>4098</start>
						<end>4098</end>
						<in>4098</in>
						<out>4098</out>
						<enabled>FALSE</enabled>
					</clipitem>
					<clipitem frameBlend="FALSE" id="clipitem-rejected-1581">
						<file id="file-1"/>
						<name>[REJECTED] bandicam 2025-06-02 00-01-10-144</name>
						<rate>
							<timebase>60</timebase>
							<ntsc>TRUE</ntsc>
						</rate>
						<rate>
							<timebase>60</timebase>
							<ntsc>TRUE</ntsc>
						</rate>
						<duration>12</duration>
						<start>4116</start>
						<end>4128</end>
						<in>4116</in>
						<out>4128</out>
						<enabled>FALSE</enabled>
					</clipitem>
					<clipitem frameBlend="FALSE" id="clipitem-rejected-1582">
						<file id="file-1"/>
						<name>[REJECTED] bandicam 2025-06-02 00-01-10-144</name>
						<rate>
							<timebase>60</timebase>
							<ntsc>TRUE</ntsc>
						</rate>
						<rate>
							<timebase>60</timebase>
							<ntsc>TRUE</ntsc>
						</rate>
						<duration>42</duration>
						<start>4140</start>
						<end>4182</end>
						<in>4140</in>
						<out>4182</out>
						<enabled>FALSE</enabled>
					</clipitem>
					<clipitem frameBlend="FALSE" id="clipitem-rejected-1583">
						<file id="file-1"/>
						<name>[REJECTED] bandicam 2025-06-02 00-01-10-144</name>
						<rate>
							<timebase>60</timebase>
							<ntsc>TRUE</ntsc>
						</rate>
						<rate>
							<timebase>60</timebase>
							<ntsc>TRUE</ntsc>
						</rate>
						<duration>24</duration>
						<start>4200</start>
						<end>4224</end>
						<in>4200</in>
						<out>4224</out>
						<enabled>FALSE</enabled>
					</clipitem>
					<clipitem frameBlend="FALSE" id="clipitem-rejected-1584">
						<file id="file-1"/>
						<name>[REJECTED] bandicam 2025-06-02 00-01-10-144</name>
						<rate>
							<timebase>60</timebase>
							<ntsc>TRUE</ntsc>
						</rate>
						<rate>
							<timebase>60</timebase>
							<ntsc>TRUE</ntsc>
						</rate>
						<duration>0</duration>
						<start>4236</start>
						<end>4236</end>
						<in>4236</in>
						<out>4236</out>
						<enabled>FALSE</enabled>
					</clipitem>
					<clipitem frameBlend="FALSE" id="clipitem-rejected-1585">
						<file id="file-1"/>
						<name>[REJECTED] bandicam 2025-06-02 00-01-10-144</name>
						<rate>
							<timebase>60</timebase>
							<ntsc>TRUE</ntsc>
						</rate>
						<rate>
							<timebase>60</timebase>
							<ntsc>TRUE</ntsc>
						</rate>
						<duration>48</duration>
						<start>4254</start>
						<end>4302</end>
						<in>4254</in>
						<out>4302</out>
						<enabled>FALSE</enabled>
					</clipitem>
					<clipitem frameBlend="FALSE" id="clipitem-rejected-1586">
						<file id="file-1"/>
						<name>[REJECTED] bandicam 2025-06-02 00-01-10-144</name>
						<rate>
							<timebase>60</timebase>
							<ntsc>TRUE</ntsc>
						</rate>
						<rate>
							<timebase>60</timebase>
							<ntsc>TRUE</ntsc>
						</rate>
						<duration>6</duration>
						<start>4326</start>
						<end>4332</end>
						<in>4326</in>
						<out>4332</out>
						<enabled>FALSE</enabled>
					</clipitem>
					<clipitem frameBlend="FALSE" id="clipitem-rejected-1587">
						<file id="file-1"/>
						<name>[REJECTED] bandicam 2025-06-02 00-01-10-144</name>
						<rate>
							<timebase>60</timebase>
							<ntsc>TRUE</ntsc>
						</rate>
						<rate>
							<timebase>60</timebase>
							<ntsc>TRUE</ntsc>
						</rate>
						<duration>0</duration>
						<start>4362</start>
						<end>4362</end>
						<in>4362</in>
						<out>4362</out>
						<enabled>FALSE</enabled>
					</clipitem>
					<clipitem frameBlend="FALSE" id="clipitem-rejected-1588">
						<file id="file-1"/>
						<name>[REJECTED] bandicam 2025-06-02 00-01-10-144</name>
						<rate>
							<timebase>60</timebase>
							<ntsc>TRUE</ntsc>
						</rate>
						<rate>
							<timebase>60</timebase>
							<ntsc>TRUE</ntsc>
						</rate>
						<duration>126</duration>
						<start>4374</start>
						<end>4500</end>
						<in>4374</in>
						<out>4500</out>
						<enabled>FALSE</enabled>
					</clipitem>
					<clipitem frameBlend="FALSE" id="clipitem-rejected-1589">
						<file id="file-1"/>
						<name>[REJECTED] bandicam 2025-06-02 00-01-10-144</name>
						<rate>
							<timebase>60</timebase>
							<ntsc>TRUE</ntsc>
						</rate>
						<rate>
							<timebase>60</timebase>
							<ntsc>TRUE</ntsc>
						</rate>
						<duration>78</duration>
						<start>4518</start>
						<end>4596</end>
						<in>4518</in>
						<out>4596</out>
						<enabled>FALSE</enabled>
					</clipitem>
					<clipitem frameBlend="FALSE" id="clipitem-rejected-1590">
						<file id="file-1"/>
						<name>[REJECTED] bandicam 2025-06-02 00-01-10-144</name>
						<rate>
							<timebase>60</timebase>
							<ntsc>TRUE</ntsc>
						</rate>
						<rate>
							<timebase>60</timebase>
							<ntsc>TRUE</ntsc>
						</rate>
						<duration>0</duration>
						<start>4608</start>
						<end>4608</end>
						<in>4608</in>
						<out>4608</out>
						<enabled>FALSE</enabled>
					</clipitem>
					<clipitem frameBlend="FALSE" id="clipitem-rejected-1591">
						<file id="file-1"/>
						<name>[REJECTED] bandicam 2025-06-02 00-01-10-144</name>
						<rate>
							<timebase>60</timebase>
							<ntsc>TRUE</ntsc>
						</rate>
						<rate>
							<timebase>60</timebase>
							<ntsc>TRUE</ntsc>
						</rate>
						<duration>90</duration>
						<start>4626</start>
						<end>4716</end>
						<in>4626</in>
						<out>4716</out>
						<enabled>FALSE</enabled>
					</clipitem>
					<clipitem frameBlend="FALSE" id="clipitem-rejected-1592">
						<file id="file-1"/>
						<name>[REJECTED] bandicam 2025-06-02 00-01-10-144</name>
						<rate>
							<timebase>60</timebase>
							<ntsc>TRUE</ntsc>
						</rate>
						<rate>
							<timebase>60</timebase>
							<ntsc>TRUE</ntsc>
						</rate>
						<duration>378</duration>
						<start>4728</start>
						<end>5106</end>
						<in>4728</in>
						<out>5106</out>
						<enabled>FALSE</enabled>
					</clipitem>
					<clipitem frameBlend="FALSE" id="clipitem-rejected-1593">
						<file id="file-1"/>
						<name>[REJECTED] bandicam 2025-06-02 00-01-10-144</name>
						<rate>
							<timebase>60</timebase>
							<ntsc>TRUE</ntsc>
						</rate>
						<rate>
							<timebase>60</timebase>
							<ntsc>TRUE</ntsc>
						</rate>
						<duration>12</duration>
						<start>5124</start>
						<end>5136</end>
						<in>5124</in>
						<out>5136</out>
						<enabled>FALSE</enabled>
					</clipitem>
					<clipitem frameBlend="FALSE" id="clipitem-rejected-1594">
						<file id="file-1"/>
						<name>[REJECTED] bandicam 2025-06-02 00-01-10-144</name>
						<rate>
							<timebase>60</timebase>
							<ntsc>TRUE</ntsc>
						</rate>
						<rate>
							<timebase>60</timebase>
							<ntsc>TRUE</ntsc>
						</rate>
						<duration>0</duration>
						<start>5154</start>
						<end>5154</end>
						<in>5154</in>
						<out>5154</out>
						<enabled>FALSE</enabled>
					</clipitem>
					<clipitem frameBlend="FALSE" id="clipitem-rejected-1595">
						<file id="file-1"/>
						<name>[REJECTED] bandicam 2025-06-02 00-01-10-144</name>
						<rate>
							<timebase>60</timebase>
							<ntsc>TRUE</ntsc>
						</rate>
						<rate>
							<timebase>60</timebase>
							<ntsc>TRUE</ntsc>
						</rate>
						<duration>156</duration>
						<start>5178</start>
						<end>5334</end>
						<in>5178</in>
						<out>5334</out>
						<enabled>FALSE</enabled>
					</clipitem>
					<clipitem frameBlend="FALSE" id="clipitem-rejected-1596">
						<file id="file-1"/>
						<name>[REJECTED] bandicam 2025-06-02 00-01-10-144</name>
						<rate>
							<timebase>60</timebase>
							<ntsc>TRUE</ntsc>
						</rate>
						<rate>
							<timebase>60</timebase>
							<ntsc>TRUE</ntsc>
						</rate>
						<duration>96</duration>
						<start>5346</start>
						<end>5442</end>
						<in>5346</in>
						<out>5442</out>
						<enabled>FALSE</enabled>
					</clipitem>
					<clipitem frameBlend="FALSE" id="clipitem-rejected-1597">
						<file id="file-1"/>
						<name>[REJECTED] bandicam 2025-06-02 00-01-10-144</name>
						<rate>
							<timebase>60</timebase>
							<ntsc>TRUE</ntsc>
						</rate>
						<rate>
							<timebase>60</timebase>
							<ntsc>TRUE</ntsc>
						</rate>
						<duration>132</duration>
						<start>5454</start>
						<end>5586</end>
						<in>5454</in>
						<out>5586</out>
						<enabled>FALSE</enabled>
					</clipitem>
					<clipitem frameBlend="FALSE" id="clipitem-rejected-1598">
						<file id="file-1"/>
						<name>[REJECTED] bandicam 2025-06-02 00-01-10-144</name>
						<rate>
							<timebase>60</timebase>
							<ntsc>TRUE</ntsc>
						</rate>
						<rate>
							<timebase>60</timebase>
							<ntsc>TRUE</ntsc>
						</rate>
						<duration>66</duration>
						<start>5598</start>
						<end>5664</end>
						<in>5598</in>
						<out>5664</out>
						<enabled>FALSE</enabled>
					</clipitem>
					<clipitem frameBlend="FALSE" id="clipitem-rejected-1599">
						<file id="file-1"/>
						<name>[REJECTED] bandicam 2025-06-02 00-01-10-144</name>
						<rate>
							<timebase>60</timebase>
							<ntsc>TRUE</ntsc>
						</rate>
						<rate>
							<timebase>60</timebase>
							<ntsc>TRUE</ntsc>
						</rate>
						<duration>60</duration>
						<start>5694</start>
						<end>5754</end>
						<in>5694</in>
						<out>5754</out>
						<enabled>FALSE</enabled>
					</clipitem>
					<clipitem frameBlend="FALSE" id="clipitem-rejected-1600">
						<file id="file-1"/>
						<name>[REJECTED] bandicam 2025-06-02 00-01-10-144</name>
						<rate>
							<timebase>60</timebase>
							<ntsc>TRUE</ntsc>
						</rate>
						<rate>
							<timebase>60</timebase>
							<ntsc>TRUE</ntsc>
						</rate>
						<duration>12</duration>
						<start>5784</start>
						<end>5796</end>
						<in>5784</in>
						<out>5796</out>
						<enabled>FALSE</enabled>
					</clipitem>
					<clipitem frameBlend="FALSE" id="clipitem-rejected-1601">
						<file id="file-1"/>
						<name>[REJECTED] bandicam 2025-06-02 00-01-10-144</name>
						<rate>
							<timebase>60</timebase>
							<ntsc>TRUE</ntsc>
						</rate>
						<rate>
							<timebase>60</timebase>
							<ntsc>TRUE</ntsc>
						</rate>
						<duration>24</duration>
						<start>5880</start>
						<end>5904</end>
						<in>5880</in>
						<out>5904</out>
						<enabled>FALSE</enabled>
					</clipitem>
					<clipitem frameBlend="FALSE" id="clipitem-rejected-1602">
						<file id="file-1"/>
						<name>[REJECTED] bandicam 2025-06-02 00-01-10-144</name>
						<rate>
							<timebase>60</timebase>
							<ntsc>TRUE</ntsc>
						</rate>
						<rate>
							<timebase>60</timebase>
							<ntsc>TRUE</ntsc>
						</rate>
						<duration>30</duration>
						<start>5964</start>
						<end>5994</end>
						<in>5964</in>
						<out>5994</out>
						<enabled>FALSE</enabled>
					</clipitem>
					<clipitem frameBlend="FALSE" id="clipitem-rejected-1603">
						<file id="file-1"/>
						<name>[REJECTED] bandicam 2025-06-02 00-01-10-144</name>
						<rate>
							<timebase>60</timebase>
							<ntsc>TRUE</ntsc>
						</rate>
						<rate>
							<timebase>60</timebase>
							<ntsc>TRUE</ntsc>
						</rate>
						<duration>0</duration>
						<start>6006</start>
						<end>6006</end>
						<in>6006</in>
						<out>6006</out>
						<enabled>FALSE</enabled>
					</clipitem>
					<clipitem frameBlend="FALSE" id="clipitem-rejected-1604">
						<file id="file-1"/>
						<name>[REJECTED] bandicam 2025-06-02 00-01-10-144</name>
						<rate>
							<timebase>60</timebase>
							<ntsc>TRUE</ntsc>
						</rate>
						<rate>
							<timebase>60</timebase>
							<ntsc>TRUE</ntsc>
						</rate>
						<duration>114</duration>
						<start>6036</start>
						<end>6150</end>
						<in>6036</in>
						<out>6150</out>
						<enabled>FALSE</enabled>
					</clipitem>
					<clipitem frameBlend="FALSE" id="clipitem-rejected-1605">
						<file id="file-1"/>
						<name>[REJECTED] bandicam 2025-06-02 00-01-10-144</name>
						<rate>
							<timebase>60</timebase>
							<ntsc>TRUE</ntsc>
						</rate>
						<rate>
							<timebase>60</timebase>
							<ntsc>TRUE</ntsc>
						</rate>
						<duration>42</duration>
						<start>6186</start>
						<end>6228</end>
						<in>6186</in>
						<out>6228</out>
						<enabled>FALSE</enabled>
					</clipitem>
					<clipitem frameBlend="FALSE" id="clipitem-rejected-1606">
						<file id="file-1"/>
						<name>[REJECTED] bandicam 2025-06-02 00-01-10-144</name>
						<rate>
							<timebase>60</timebase>
							<ntsc>TRUE</ntsc>
						</rate>
						<rate>
							<timebase>60</timebase>
							<ntsc>TRUE</ntsc>
						</rate>
						<duration>828</duration>
						<start>6240</start>
						<end>7068</end>
						<in>6240</in>
						<out>7068</out>
						<enabled>FALSE</enabled>
					</clipitem>
				</track>
				<track>
					<clipitem frameBlend="FALSE" id="clipitem-telop-1">
						<file id="file-2">
							<name></name>
							<mediaSource>GraphicAndType</mediaSource>
							<rate>
								<timebase>60</timebase>
								<ntsc>TRUE</ntsc>
							</rate>
							<timecode>
								<rate>
									<timebase>60</timebase>
									<ntsc>TRUE</ntsc>
								</rate>
								<string>00:00:00:00</string>
								<frame>0</frame>
								<displayformat>NDF</displayformat>
							</timecode>
							<media>
								<video>
									<samplecharacteristics>
										<rate>
											<timebase>59</timebase>
											<ntsc>TRUE</ntsc>
										</rate>
										<width>1080</width>
										<height>1920</height>
										<anamorphic>FALSE</anamorphic>
										<pixelaspectratio>square</pixelaspectratio>
										<fielddominance>none</fielddominance>
									</samplecharacteristics>
								</video>
							</media>
						</file>
						<name>  </name>
						<rate>
							<timebase>60</timebase>
							<ntsc>TRUE</ntsc>
						</rate>
						<rate>
							<timebase>60</timebase>
							<ntsc>TRUE</ntsc>
						</rate>
						<duration>360</duration>
						<start>0</start>
						<end>360</end>
						<in>0</in>
						<out>360</out>
					</clipitem>
					<clipitem frameBlend="FALSE" id="clipitem-telop-34">
						<file id="file-2"/>
						<name>  </name>
						<rate>
							<timebase>60</timebase>
							<ntsc>TRUE</ntsc>
						</rate>
						<rate>
							<timebase>60</timebase>
							<ntsc>TRUE</ntsc>
						</rate>
						<duration>180</duration>
						<start>360</start>
						<end>540</end>
						<in>0</in>
						<out>180</out>
					</clipitem>
					<clipitem frameBlend="FALSE" id="clipitem-telop-54">
						<file id="file-2"/>
						<name> </name>
						<rate>
							<timebase>60</timebase>
							<ntsc>TRUE</ntsc>
						</rate>
						<rate>
							<timebase>60</timebase>
							<ntsc>TRUE</ntsc>
						</rate>
						<duration>120</duration>
						<start>540</start>
						<end>660</end>
						<in>0</in>
						<out>120</out>
					</clipitem>
					<clipitem frameBlend="FALSE" id="clipitem-telop-71">
						<file id="file-2"/>
						<name> </name>
						<rate>
							<timebase>60</timebase>
							<ntsc>TRUE</ntsc>
						</rate>
						<rate>
							<timebase>60</timebase>
							<ntsc>TRUE</ntsc>
						</rate>
						<duration>240</duration>
						<start>660</start>
						<end>900</end>
						<in>0</in>
						<out>240</out>
					</clipitem>
					<clipitem frameBlend="FALSE" id="clipitem-telop-104">
						<file id="file-2"/>
						<name>  </name>
						<rate>
							<timebase>60</timebase>
							<ntsc>TRUE</ntsc>
						</rate>
						<rate>
							<timebase>60</timebase>
							<ntsc>TRUE</ntsc>
						</rate>
						<duration>360</duration>
						<start>900</start>
						<end>1260</end>
						<in>0</in>
						<out>360</out>
					</clipitem>
					<clipitem frameBlend="FALSE" id="clipitem-telop-150">
						<file id="file-2"/>
						<name>    </name>
						<rate>
							<timebase>60</timebase>
							<ntsc>TRUE</ntsc>
						</rate>
						<rate>
							<timebase>60</timebase>
							<ntsc>TRUE</ntsc>
						</rate>
						<duration>180</duration>
						<start>1260</start>
						<end>1440</end>
						<in>0</in>
						<out>180</out>
					</clipitem>
					<clipitem frameBlend="FALSE" id="clipitem-telop-172">
						<file id="file-2"/>
						<name> 1</name>
						<rate>
							<timebase>60</timebase>
							<ntsc>TRUE</ntsc>
						</rate>
						<rate>
							<timebase>60</timebase>
							<ntsc>TRUE</ntsc>
						</rate>
						<duration>240</duration>
						<start>1440</start>
						<end>1680</end>
						<in>0</in>
						<out>240</out>
					</clipitem>
					<clipitem frameBlend="FALSE" id="clipitem-telop-198">
						<file id="file-2"/>
						<name>1 1</name>
						<rate>
							<timebase>60</timebase>
							<ntsc>TRUE</ntsc>
						</rate>
						<rate>
							<timebase>60</timebase>
							<ntsc>TRUE</ntsc>
						</rate>
						<duration>300</duration>
						<start>1680</start>
						<end>1980</end>
						<in>0</in>
						<out>300</out>
					</clipitem>
					<clipitem frameBlend="FALSE" id="clipitem-telop-236">
						<file id="file-2"/>
						<name>  </name>
						<rate>
							<timebase>60</timebase>
							<ntsc>TRUE</ntsc>
						</rate>
						<rate>
							<timebase>60</timebase>
							<ntsc>TRUE</ntsc>
						</rate>
						<duration>120</duration>
						<start>1980</start>
						<end>2100</end>
						<in>0</in>
						<out>120</out>
					</clipitem>
					<clipitem frameBlend="FALSE" id="clipitem-telop-243">
						<file id="file-2"/>
						<name> </name>
						<rate>
							<timebase>60</timebase>
							<ntsc>TRUE</ntsc>
						</rate>
						<rate>
							<timebase>60</timebase>
							<ntsc>TRUE</ntsc>
						</rate>
						<duration>300</duration>
						<start>2100</start>
						<end>2400</end>
						<in>0</in>
						<out>300</out>
					</clipitem>
					<clipitem frameBlend="FALSE" id="clipitem-telop-261">
						<file id="file-2"/>
						<name>   </name>
						<rate>
							<timebase>60</timebase>
							<ntsc>TRUE</ntsc>
						</rate>
						<rate>
							<timebase>60</timebase>
							<ntsc>TRUE</ntsc>
						</rate>
						<duration>240</duration>
						<start>2400</start>
						<end>2640</end>
						<in>0</in>
						<out>240</out>
					</clipitem>
					<clipitem frameBlend="FALSE" id="clipitem-telop-286">
						<file id="file-2"/>
						<name>  1</name>
						<rate>
							<timebase>60</timebase>
							<ntsc>TRUE</ntsc>
						</rate>
						<rate>
							<timebase>60</timebase>
							<ntsc>TRUE</ntsc>
						</rate>
						<duration>240</duration>
						<start>2640</start>
						<end>2880</end>
						<in>0</in>
						<out>240</out>
					</clipitem>
					<clipitem frameBlend="FALSE" id="clipitem-telop-313">
						<file id="file-2"/>
						<name>1   </name>
						<rate>
							<timebase>60</timebase>
							<ntsc>TRUE</ntsc>
						</rate>
						<rate>
							<timebase>60</timebase>
							<ntsc>TRUE</ntsc>
						</rate>
						<duration>120</duration>
						<start>2880</start>
						<end>3000</end>
						<in>0</in>
						<out>120</out>
					</clipitem>
					<clipitem frameBlend="FALSE" id="clipitem-telop-324">
						<file id="file-2"/>
						<name>1</name>
						<rate>
							<timebase>60</timebase>
							<ntsc>TRUE</ntsc>
						</rate>
						<rate>
							<timebase>60</timebase>
							<ntsc>TRUE</ntsc>
						</rate>
						<duration>240</duration>
						<start>3000</start>
						<end>3240</end>
						<in>0</in>
						<out>240</out>
					</clipitem>
					<clipitem frameBlend="FALSE" id="clipitem-telop-354">
						<file id="file-2"/>
						<name></name>
						<rate>
							<timebase>60</timebase>
							<ntsc>TRUE</ntsc>
						</rate>
						<rate>
							<timebase>60</timebase>
							<ntsc>TRUE</ntsc>
						</rate>
						<duration>60</duration>
						<start>3246</start>
						<end>3306</end>
						<in>0</in>
						<out>60</out>
					</clipitem>
					<clipitem frameBlend="FALSE" id="clipitem-telop-361">
						<file id="file-2"/>
						<name></name>
						<rate>
							<timebase>60</timebase>
							<ntsc>TRUE</ntsc>
						</rate>
						<rate>
							<timebase>60</timebase>
							<ntsc>TRUE</ntsc>
						</rate>
						<duration>60</duration>
						<start>3306</start>
						<end>3366</end>
						<in>0</in>
						<out>60</out>
					</clipitem>
					<clipitem frameBlend="FALSE" id="clipitem-telop-368">
						<file id="file-2"/>
						<name></name>
						<rate>
							<timebase>60</timebase>
							<ntsc>TRUE</ntsc>
						</rate>
						<rate>
							<timebase>60</timebase>
							<ntsc>TRUE</ntsc>
						</rate>
						<duration>60</duration>
						<start>3378</start>
						<end>3438</end>
						<in>0</in>
						<out>60</out>
					</clipitem>
					<clipitem frameBlend="FALSE" id="clipitem-telop-375">
						<file id="file-2"/>
						<name></name>
						<rate>
							<timebase>60</timebase>
							<ntsc>TRUE</ntsc>
						</rate>
						<rate>
							<timebase>60</timebase>
							<ntsc>TRUE</ntsc>
						</rate>
						<duration>60</duration>
						<start>3438</start>
						<end>3498</end>
						<in>0</in>
						<out>60</out>
					</clipitem>
					<clipitem frameBlend="FALSE" id="clipitem-telop-381">
						<file id="file-2"/>
						<name></name>
						<rate>
							<timebase>60</timebase>
							<ntsc>TRUE</ntsc>
						</rate>
						<rate>
							<timebase>60</timebase>
							<ntsc>TRUE</ntsc>
						</rate>
						<duration>60</duration>
						<start>3504</start>
						<end>3564</end>
						<in>0</in>
						<out>60</out>
					</clipitem>
					<clipitem frameBlend="FALSE" id="clipitem-telop-387">
						<file id="file-2"/>
						<name></name>
						<rate>
							<timebase>60</timebase>
							<ntsc>TRUE</ntsc>
						</rate>
						<rate>
							<timebase>60</timebase>
							<ntsc>TRUE</ntsc>
						</rate>
						<duration>66</duration>
						<start>3564</start>
						<end>3630</end>
						<in>0</in>
						<out>66</out>
					</clipitem>
					<clipitem frameBlend="FALSE" id="clipitem-telop-395">
						<file id="file-2"/>
						<name></name>
						<rate>
							<timebase>60</timebase>
							<ntsc>TRUE</ntsc>
						</rate>
						<rate>
							<timebase>60</timebase>
							<ntsc>TRUE</ntsc>
						</rate>
						<duration>60</duration>
						<start>3630</start>
						<end>3690</end>
						<in>0</in>
						<out>60</out>
					</clipitem>
					<clipitem frameBlend="FALSE" id="clipitem-telop-400">
						<file id="file-2"/>
						<name></name>
						<rate>
							<timebase>60</timebase>
							<ntsc>TRUE</ntsc>
						</rate>
						<rate>
							<timebase>60</timebase>
							<ntsc>TRUE</ntsc>
						</rate>
						<duration>60</duration>
						<start>3696</start>
						<end>3756</end>
						<in>0</in>
						<out>60</out>
					</clipitem>
					<clipitem frameBlend="FALSE" id="clipitem-telop-411">
						<file id="file-2"/>
						<name></name>
						<rate>
							<timebase>60</timebase>
							<ntsc>TRUE</ntsc>
						</rate>
						<rate>
							<timebase>60</timebase>
							<ntsc>TRUE</ntsc>
						</rate>
						<duration>60</duration>
						<start>3762</start>
						<end>3822</end>
						<in>0</in>
						<out>60</out>
					</clipitem>
					<clipitem frameBlend="FALSE" id="clipitem-telop-419">
						<file id="file-2"/>
						<name></name>
						<rate>
							<timebase>60</timebase>
							<ntsc>TRUE</ntsc>
						</rate>
						<rate>
							<timebase>60</timebase>
							<ntsc>TRUE</ntsc>
						</rate>
						<duration>60</duration>
						<start>3822</start>
						<end>3882</end>
						<in>0</in>
						<out>60</out>
					</clipitem>
					<clipitem frameBlend="FALSE" id="clipitem-telop-425">
						<file id="file-2"/>
						<name></name>
						<rate>
							<timebase>60</timebase>
							<ntsc>TRUE</ntsc>
						</rate>
						<rate>
							<timebase>60</timebase>
							<ntsc>TRUE</ntsc>
						</rate>
						<duration>60</duration>
						<start>3882</start>
						<end>3942</end>
						<in>0</in>
						<out>60</out>
					</clipitem>
					<clipitem frameBlend="FALSE" id="clipitem-telop-428">
						<file id="file-2"/>
						<name></name>
						<rate>
							<timebase>60</timebase>
							<ntsc>TRUE</ntsc>
						</rate>
						<rate>
							<timebase>60</timebase>
							<ntsc>TRUE</ntsc>
						</rate>
						<duration>60</duration>
						<start>3966</start>
						<end>4026</end>
						<in>0</in>
						<out>60</out>
					</clipitem>
					<clipitem frameBlend="FALSE" id="clipitem-telop-433">
						<file id="file-2"/>
						<name></name>
						<rate>
							<timebase>60</timebase>
							<ntsc>TRUE</ntsc>
						</rate>
						<rate>
							<timebase>60</timebase>
							<ntsc>TRUE</ntsc>
						</rate>
						<duration>60</duration>
						<start>4026</start>
						<end>4086</end>
						<in>0</in>
						<out>60</out>
					</clipitem>
					<clipitem frameBlend="FALSE" id="clipitem-telop-438">
						<file id="file-2"/>
						<name></name>
						<rate>
							<timebase>60</timebase>
							<ntsc>TRUE</ntsc>
						</rate>
						<rate>
							<timebase>60</timebase>
							<ntsc>TRUE</ntsc>
						</rate>
						<duration>60</duration>
						<start>4086</start>
						<end>4146</end>
						<in>0</in>
						<out>60</out>
					</clipitem>
					<clipitem frameBlend="FALSE" id="clipitem-telop-443">
						<file id="file-2"/>
						<name></name>
						<rate>
							<timebase>60</timebase>
							<ntsc>TRUE</ntsc>
						</rate>
						<rate>
							<timebase>60</timebase>
							<ntsc>TRUE</ntsc>
						</rate>
						<duration>66</duration>
						<start>4164</start>
						<end>4230</end>
						<in>0</in>
						<out>66</out>
					</clipitem>
					<clipitem frameBlend="FALSE" id="clipitem-telop-448">
						<file id="file-2"/>
						<name></name>
						<rate>
							<timebase>60</timebase>
							<ntsc>TRUE</ntsc>
						</rate>
						<rate>
							<timebase>60</timebase>
							<ntsc>TRUE</ntsc>
						</rate>
						<duration>60</duration>
						<start>4230</start>
						<end>4290</end>
						<in>0</in>
						<out>60</out>
					</clipitem>
					<clipitem frameBlend="FALSE" id="clipitem-telop-454">
						<file id="file-2"/>
						<name></name>
						<rate>
							<timebase>60</timebase>
							<ntsc>TRUE</ntsc>
						</rate>
						<rate>
							<timebase>60</timebase>
							<ntsc>TRUE</ntsc>
						</rate>
						<duration>60</duration>
						<start>4290</start>
						<end>4350</end>
						<in>0</in>
						<out>60</out>
					</clipitem>
					<clipitem frameBlend="FALSE" id="clipitem-telop-463">
						<file id="file-2"/>
						<name></name>
						<rate>
							<timebase>60</timebase>
							<ntsc>TRUE</ntsc>
						</rate>
						<rate>
							<timebase>60</timebase>
							<ntsc>TRUE</ntsc>
						</rate>
						<duration>66</duration>
						<start>4350</start>
						<end>4416</end>
						<in>0</in>
						<out>66</out>
					</clipitem>
					<clipitem frameBlend="FALSE" id="clipitem-telop-471">
						<file id="file-2"/>
						<name></name>
						<rate>
							<timebase>60</timebase>
							<ntsc>TRUE</ntsc>
						</rate>
						<rate>
							<timebase>60</timebase>
							<ntsc>TRUE</ntsc>
						</rate>
						<duration>66</duration>
						<start>4416</start>
						<end>4482</end>
						<in>0</in>
						<out>66</out>
					</clipitem>
					<clipitem frameBlend="FALSE" id="clipitem-telop-483">
						<file id="file-2"/>
						<name></name>
						<rate>
							<timebase>60</timebase>
							<ntsc>TRUE</ntsc>
						</rate>
						<rate>
							<timebase>60</timebase>
							<ntsc>TRUE</ntsc>
						</rate>
						<duration>66</duration>
						<start>4488</start>
						<end>4554</end>
						<in>0</in>
						<out>66</out>
					</clipitem>
					<clipitem frameBlend="FALSE" id="clipitem-telop-490">
						<file id="file-2"/>
						<name></name>
						<rate>
							<timebase>60</timebase>
							<ntsc>TRUE</ntsc>
						</rate>
						<rate>
							<timebase>60</timebase>
							<ntsc>TRUE</ntsc>
						</rate>
						<duration>60</duration>
						<start>4554</start>
						<end>4614</end>
						<in>0</in>
						<out>60</out>
					</clipitem>
					<clipitem frameBlend="FALSE" id="clipitem-telop-498">
						<file id="file-2"/>
						<name></name>
						<rate>
							<timebase>60</timebase>
							<ntsc>TRUE</ntsc>
						</rate>
						<rate>
							<timebase>60</timebase>
							<ntsc>TRUE</ntsc>
						</rate>
						<duration>60</duration>
						<start>4614</start>
						<end>4674</end>
						<in>0</in>
						<out>60</out>
					</clipitem>
					<clipitem frameBlend="FALSE" id="clipitem-telop-503">
						<file id="file-2"/>
						<name> </name>
						<rate>
							<timebase>60</timebase>
							<ntsc>TRUE</ntsc>
						</rate>
						<rate>
							<timebase>60</timebase>
							<ntsc>TRUE</ntsc>
						</rate>
						<duration>180</duration>
						<start>4680</start>
						<end>4860</end>
						<in>0</in>
						<out>180</out>
					</clipitem>
					<clipitem frameBlend="FALSE" id="clipitem-telop-524">
						<file id="file-2"/>
						<name></name>
						<rate>
							<timebase>60</timebase>
							<ntsc>TRUE</ntsc>
						</rate>
						<rate>
							<timebase>60</timebase>
							<ntsc>TRUE</ntsc>
						</rate>
						<duration>66</duration>
						<start>4866</start>
						<end>4932</end>
						<in>0</in>
						<out>66</out>
					</clipitem>
					<clipitem frameBlend="FALSE" id="clipitem-telop-531">
						<file id="file-2"/>
						<name></name>
						<rate>
							<timebase>60</timebase>
							<ntsc>TRUE</ntsc>
						</rate>
						<rate>
							<timebase>60</timebase>
							<ntsc>TRUE</ntsc>
						</rate>
						<duration>60</duration>
						<start>4932</start>
						<end>4992</end>
						<in>0</in>
						<out>60</out>
					</clipitem>
					<clipitem frameBlend="FALSE" id="clipitem-telop-535">
						<file id="file-2"/>
						<name></name>
						<rate>
							<timebase>60</timebase>
							<ntsc>TRUE</ntsc>
						</rate>
						<rate>
							<timebase>60</timebase>
							<ntsc>TRUE</ntsc>
						</rate>
						<duration>60</duration>
						<start>4992</start>
						<end>5052</end>
						<in>0</in>
						<out>60</out>
					</clipitem>
					<clipitem frameBlend="FALSE" id="clipitem-telop-543">
						<file id="file-2"/>
						<name></name>
						<rate>
							<timebase>60</timebase>
							<ntsc>TRUE</ntsc>
						</rate>
						<rate>
							<timebase>60</timebase>
							<ntsc>TRUE</ntsc>
						</rate>
						<duration>66</duration>
						<start>5052</start>
						<end>5118</end>
						<in>0</in>
						<out>66</out>
					</clipitem>
					<clipitem frameBlend="FALSE" id="clipitem-telop-551">
						<file id="file-2"/>
						<name></name>
						<rate>
							<timebase>60</timebase>
							<ntsc>TRUE</ntsc>
						</rate>
						<rate>
							<timebase>60</timebase>
							<ntsc>TRUE</ntsc>
						</rate>
						<duration>60</duration>
						<start>5124</start>
						<end>5184</end>
						<in>0</in>
						<out>60</out>
					</clipitem>
					<clipitem frameBlend="FALSE" id="clipitem-telop-556">
						<file id="file-2"/>
						<name></name>
						<rate>
							<timebase>60</timebase>
							<ntsc>TRUE</ntsc>
						</rate>
						<rate>
							<timebase>60</timebase>
							<ntsc>TRUE</ntsc>
						</rate>
						<duration>60</duration>
						<start>5184</start>
						<end>5244</end>
						<in>0</in>
						<out>60</out>
					</clipitem>
					<clipitem frameBlend="FALSE" id="clipitem-telop-561">
						<file id="file-2"/>
						<name></name>
						<rate>
							<timebase>60</timebase>
							<ntsc>TRUE</ntsc>
						</rate>
						<rate>
							<timebase>60</timebase>
							<ntsc>TRUE</ntsc>
						</rate>
						<duration>60</duration>
						<start>5244</start>
						<end>5304</end>
						<in>0</in>
						<out>60</out>
					</clipitem>
					<clipitem frameBlend="FALSE" id="clipitem-telop-571">
						<file id="file-2"/>
						<name></name>
						<rate>
							<timebase>60</timebase>
							<ntsc>TRUE</ntsc>
						</rate>
						<rate>
							<timebase>60</timebase>
							<ntsc>TRUE</ntsc>
						</rate>
						<duration>60</duration>
						<start>5304</start>
						<end>5364</end>
						<in>0</in>
						<out>60</out>
					</clipitem>
					<clipitem frameBlend="FALSE" id="clipitem-telop-576">
						<file id="file-2"/>
						<name></name>
						<rate>
							<timebase>60</timebase>
							<ntsc>TRUE</ntsc>
						</rate>
						<rate>
							<timebase>60</timebase>
							<ntsc>TRUE</ntsc>
						</rate>
						<duration>60</duration>
						<start>5364</start>
						<end>5424</end>
						<in>0</in>
						<out>60</out>
					</clipitem>
					<clipitem frameBlend="FALSE" id="clipitem-telop-578">
						<file id="file-2"/>
						<name></name>
						<rate>
							<timebase>60</timebase>
							<ntsc>TRUE</ntsc>
						</rate>
						<rate>
							<timebase>60</timebase>
							<ntsc>TRUE</ntsc>
						</rate>
						<duration>66</duration>
						<start>5436</start>
						<end>5502</end>
						<in>0</in>
						<out>66</out>
					</clipitem>
					<clipitem frameBlend="FALSE" id="clipitem-telop-581">
						<file id="file-2"/>
						<name></name>
						<rate>
							<timebase>60</timebase>
							<ntsc>TRUE</ntsc>
						</rate>
						<rate>
							<timebase>60</timebase>
							<ntsc>TRUE</ntsc>
						</rate>
						<duration>60</duration>
						<start>5502</start>
						<end>5562</end>
						<in>0</in>
						<out>60</out>
					</clipitem>
					<clipitem frameBlend="FALSE" id="clipitem-telop-593">
						<file id="file-2"/>
						<name></name>
						<rate>
							<timebase>60</timebase>
							<ntsc>TRUE</ntsc>
						</rate>
						<rate>
							<timebase>60</timebase>
							<ntsc>TRUE</ntsc>
						</rate>
						<duration>60</duration>
						<start>5568</start>
						<end>5628</end>
						<in>0</in>
						<out>60</out>
					</clipitem>
					<clipitem frameBlend="FALSE" id="clipitem-telop-604">
						<file id="file-2"/>
						<name></name>
						<rate>
							<timebase>60</timebase>
							<ntsc>TRUE</ntsc>
						</rate>
						<rate>
							<timebase>60</timebase>
							<ntsc>TRUE</ntsc>
						</rate>
						<duration>60</duration>
						<start>5628</start>
						<end>5688</end>
						<in>0</in>
						<out>60</out>
					</clipitem>
					<clipitem frameBlend="FALSE" id="clipitem-telop-610">
						<file id="file-2"/>
						<name></name>
						<rate>
							<timebase>60</timebase>
							<ntsc>TRUE</ntsc>
						</rate>
						<rate>
							<timebase>60</timebase>
							<ntsc>TRUE</ntsc>
						</rate>
						<duration>180</duration>
						<start>5700</start>
						<end>5880</end>
						<in>0</in>
						<out>180</out>
					</clipitem>
					<clipitem frameBlend="FALSE" id="clipitem-telop-632">
						<file id="file-2"/>
						<name></name>
						<rate>
							<timebase>60</timebase>
							<ntsc>TRUE</ntsc>
						</rate>
						<rate>
							<timebase>60</timebase>
							<ntsc>TRUE</ntsc>
						</rate>
						<duration>120</duration>
						<start>5880</start>
						<end>6000</end>
						<in>0</in>
						<out>120</out>
					</clipitem>
					<clipitem frameBlend="FALSE" id="clipitem-telop-646">
						<file id="file-2"/>
						<name></name>
						<rate>
							<timebase>60</timebase>
							<ntsc>TRUE</ntsc>
						</rate>
						<rate>
							<timebase>60</timebase>
							<ntsc>TRUE</ntsc>
						</rate>
						<duration>120</duration>
						<start>6000</start>
						<end>6120</end>
						<in>0</in>
						<out>120</out>
					</clipitem>
					<clipitem frameBlend="FALSE" id="clipitem-telop-661">
						<file id="file-2"/>
						<name>  ?</name>
						<rate>
							<timebase>60</timebase>
							<ntsc>TRUE</ntsc>
						</rate>
						<rate>
							<timebase>60</timebase>
							<ntsc>TRUE</ntsc>
						</rate>
						<duration>180</duration>
						<start>6120</start>
						<end>6300</end>
						<in>0</in>
						<out>180</out>
					</clipitem>
					<clipitem frameBlend="FALSE" id="clipitem-telop-685">
						<file id="file-2"/>
						<name> </name>
						<rate>
							<timebase>60</timebase>
							<ntsc>TRUE</ntsc>
						</rate>
						<rate>
							<timebase>60</timebase>
							<ntsc>TRUE</ntsc>
						</rate>
						<duration>120</duration>
						<start>6300</start>
						<end>6420</end>
						<in>0</in>
						<out>120</out>
					</clipitem>
					<clipitem frameBlend="FALSE" id="clipitem-telop-702">
						<file id="file-2"/>
						<name></name>
						<rate>
							<timebase>60</timebase>
							<ntsc>TRUE</ntsc>
						</rate>
						<rate>
							<timebase>60</timebase>
							<ntsc>TRUE</ntsc>
						</rate>
						<duration>120</duration>
						<start>6420</start>
						<end>6540</end>
						<in>0</in>
						<out>120</out>
					</clipitem>
					<clipitem frameBlend="FALSE" id="clipitem-telop-711">
						<file id="file-2"/>
						<name></name>
						<rate>
							<timebase>60</timebase>
							<ntsc>TRUE</ntsc>
						</rate>
						<rate>
							<timebase>60</timebase>
							<ntsc>TRUE</ntsc>
						</rate>
						<duration>180</duration>
						<start>6540</start>
						<end>6720</end>
						<in>0</in>
						<out>180</out>
					</clipitem>
					<clipitem frameBlend="FALSE" id="clipitem-telop-725">
						<file id="file-2"/>
						<name></name>
						<rate>
							<timebase>60</timebase>
							<ntsc>TRUE</ntsc>
						</rate>
						<rate>
							<timebase>60</timebase>
							<ntsc>TRUE</ntsc>
						</rate>
						<duration>180</duration>
						<start>6720</start>
						<end>6900</end>
						<in>0</in>
						<out>180</out>
					</clipitem>
					<clipitem frameBlend="FALSE" id="clipitem-telop-740">
						<file id="file-2"/>
						<name></name>
						<rate>
							<timebase>60</timebase>
							<ntsc>TRUE</ntsc>
						</rate>
						<rate>
							<timebase>60</timebase>
							<ntsc>TRUE</ntsc>
						</rate>
						<duration>120</duration>
						<start>6900</start>
						<end>7020</end>
						<in>0</in>
						<out>120</out>
					</clipitem>
					<clipitem frameBlend="FALSE" id="clipitem-telop-754">
						<file id="file-2"/>
						<name>1</name>
						<rate>
							<timebase>60</timebase>
							<ntsc>TRUE</ntsc>
						</rate>
						<rate>
							<timebase>60</timebase>
							<ntsc>TRUE</ntsc>
						</rate>
						<duration>180</duration>
						<start>7020</start>
						<end>7200</end>
						<in>0</in>
						<out>180</out>
					</clipitem>
				</track>
				<track>
					<clipitem frameBlend="FALSE" id="clipitem-telop-2">
						<file id="file-2"/>
						<name></name>
						<rate>
							<timebase>60</timebase>
							<ntsc>TRUE</ntsc>
						</rate>
						<rate>
							<timebase>60</timebase>
							<ntsc>TRUE</ntsc>
						</rate>
						<duration>66</duration>
						<start>48</start>
						<end>114</end>
						<in>0</in>
						<out>66</out>
					</clipitem>
					<clipitem frameBlend="FALSE" id="clipitem-telop-10">
						<file id="file-2"/>
						<name></name>
						<rate>
							<timebase>60</timebase>
							<ntsc>TRUE</ntsc>
						</rate>
						<rate>
							<timebase>60</timebase>
							<ntsc>TRUE</ntsc>
						</rate>
						<duration>60</duration>
						<start>114</start>
						<end>174</end>
						<in>0</in>
						<out>60</out>
					</clipitem>
					<clipitem frameBlend="FALSE" id="clipitem-telop-17">
						<file id="file-2"/>
						<name></name>
						<rate>
							<timebase>60</timebase>
							<ntsc>TRUE</ntsc>
						</rate>
						<rate>
							<timebase>60</timebase>
							<ntsc>TRUE</ntsc>
						</rate>
						<duration>60</duration>
						<start>210</start>
						<end>270</end>
						<in>0</in>
						<out>60</out>
					</clipitem>
					<clipitem frameBlend="FALSE" id="clipitem-telop-25">
						<file id="file-2"/>
						<name></name>
						<rate>
							<timebase>60</timebase>
							<ntsc>TRUE</ntsc>
						</rate>
						<rate>
							<timebase>60</timebase>
							<ntsc>TRUE</ntsc>
						</rate>
						<duration>60</duration>
						<start>270</start>
						<end>330</end>
						<in>0</in>
						<out>60</out>
					</clipitem>
					<clipitem frameBlend="FALSE" id="clipitem-telop-32">
						<file id="file-2"/>
						<name></name>
						<rate>
							<timebase>60</timebase>
							<ntsc>TRUE</ntsc>
						</rate>
						<rate>
							<timebase>60</timebase>
							<ntsc>TRUE</ntsc>
						</rate>
						<duration>60</duration>
						<start>330</start>
						<end>390</end>
						<in>0</in>
						<out>60</out>
					</clipitem>
					<clipitem frameBlend="FALSE" id="clipitem-telop-38">
						<file id="file-2"/>
						<name></name>
						<rate>
							<timebase>60</timebase>
							<ntsc>TRUE</ntsc>
						</rate>
						<rate>
							<timebase>60</timebase>
							<ntsc>TRUE</ntsc>
						</rate>
						<duration>60</duration>
						<start>390</start>
						<end>450</end>
						<in>0</in>
						<out>60</out>
					</clipitem>
					<clipitem frameBlend="FALSE" id="clipitem-telop-43">
						<file id="file-2"/>
						<name></name>
						<rate>
							<timebase>60</timebase>
							<ntsc>TRUE</ntsc>
						</rate>
						<rate>
							<timebase>60</timebase>
							<ntsc>TRUE</ntsc>
						</rate>
						<duration>66</duration>
						<start>456</start>
						<end>522</end>
						<in>0</in>
						<out>66</out>
					</clipitem>
					<clipitem frameBlend="FALSE" id="clipitem-telop-52">
						<file id="file-2"/>
						<name></name>
						<rate>
							<timebase>60</timebase>
							<ntsc>TRUE</ntsc>
						</rate>
						<rate>
							<timebase>60</timebase>
							<ntsc>TRUE</ntsc>
						</rate>
						<duration>60</duration>
						<start>534</start>
						<end>594</end>
						<in>0</in>
						<out>60</out>
					</clipitem>
					<clipitem frameBlend="FALSE" id="clipitem-telop-61">
						<file id="file-2"/>
						<name></name>
						<rate>
							<timebase>60</timebase>
							<ntsc>TRUE</ntsc>
						</rate>
						<rate>
							<timebase>60</timebase>
							<ntsc>TRUE</ntsc>
						</rate>
						<duration>60</duration>
						<start>594</start>
						<end>654</end>
						<in>0</in>
						<out>60</out>
					</clipitem>
					<clipitem frameBlend="FALSE" id="clipitem-telop-70">
						<file id="file-2"/>
						<name></name>
						<rate>
							<timebase>60</timebase>
							<ntsc>TRUE</ntsc>
						</rate>
						<rate>
							<timebase>60</timebase>
							<ntsc>TRUE</ntsc>
						</rate>
						<duration>60</duration>
						<start>654</start>
						<end>714</end>
						<in>0</in>
						<out>60</out>
					</clipitem>
					<clipitem frameBlend="FALSE" id="clipitem-telop-78">
						<file id="file-2"/>
						<name></name>
						<rate>
							<timebase>60</timebase>
							<ntsc>TRUE</ntsc>
						</rate>
						<rate>
							<timebase>60</timebase>
							<ntsc>TRUE</ntsc>
						</rate>
						<duration>66</duration>
						<start>714</start>
						<end>780</end>
						<in>0</in>
						<out>66</out>
					</clipitem>
					<clipitem frameBlend="FALSE" id="clipitem-telop-85">
						<file id="file-2"/>
						<name></name>
						<rate>
							<timebase>60</timebase>
							<ntsc>TRUE</ntsc>
						</rate>
						<rate>
							<timebase>60</timebase>
							<ntsc>TRUE</ntsc>
						</rate>
						<duration>60</duration>
						<start>780</start>
						<end>840</end>
						<in>0</in>
						<out>60</out>
					</clipitem>
					<clipitem frameBlend="FALSE" id="clipitem-telop-94">
						<file id="file-2"/>
						<name></name>
						<rate>
							<timebase>60</timebase>
							<ntsc>TRUE</ntsc>
						</rate>
						<rate>
							<timebase>60</timebase>
							<ntsc>TRUE</ntsc>
						</rate>
						<duration>60</duration>
						<start>846</start>
						<end>906</end>
						<in>0</in>
						<out>60</out>
					</clipitem>
					<clipitem frameBlend="FALSE" id="clipitem-telop-106">
						<file id="file-2"/>
						<name></name>
						<rate>
							<timebase>60</timebase>
							<ntsc>TRUE</ntsc>
						</rate>
						<rate>
							<timebase>60</timebase>
							<ntsc>TRUE</ntsc>
						</rate>
						<duration>60</duration>
						<start>912</start>
						<end>972</end>
						<in>0</in>
						<out>60</out>
					</clipitem>
					<clipitem frameBlend="FALSE" id="clipitem-telop-116">
						<file id="file-2"/>
						<name></name>
						<rate>
							<timebase>60</timebase>
							<ntsc>TRUE</ntsc>
						</rate>
						<rate>
							<timebase>60</timebase>
							<ntsc>TRUE</ntsc>
						</rate>
						<duration>60</duration>
						<start>972</start>
						<end>1032</end>
						<in>0</in>
						<out>60</out>
					</clipitem>
					<clipitem frameBlend="FALSE" id="clipitem-telop-127">
						<file id="file-2"/>
						<name></name>
						<rate>
							<timebase>60</timebase>
							<ntsc>TRUE</ntsc>
						</rate>
						<rate>
							<timebase>60</timebase>
							<ntsc>TRUE</ntsc>
						</rate>
						<duration>60</duration>
						<start>1032</start>
						<end>1092</end>
						<in>0</in>
						<out>60</out>
					</clipitem>
					<clipitem frameBlend="FALSE" id="clipitem-telop-136">
						<file id="file-2"/>
						<name></name>
						<rate>
							<timebase>60</timebase>
							<ntsc>TRUE</ntsc>
						</rate>
						<rate>
							<timebase>60</timebase>
							<ntsc>TRUE</ntsc>
						</rate>
						<duration>60</duration>
						<start>1098</start>
						<end>1158</end>
						<in>0</in>
						<out>60</out>
					</clipitem>
					<clipitem frameBlend="FALSE" id="clipitem-telop-141">
						<file id="file-2"/>
						<name></name>
						<rate>
							<timebase>60</timebase>
							<ntsc>TRUE</ntsc>
						</rate>
						<rate>
							<timebase>60</timebase>
							<ntsc>TRUE</ntsc>
						</rate>
						<duration>66</duration>
						<start>1158</start>
						<end>1224</end>
						<in>0</in>
						<out>66</out>
					</clipitem>
					<clipitem frameBlend="FALSE" id="clipitem-telop-148">
						<file id="file-2"/>
						<name></name>
						<rate>
							<timebase>60</timebase>
							<ntsc>TRUE</ntsc>
						</rate>
						<rate>
							<timebase>60</timebase>
							<ntsc>TRUE</ntsc>
						</rate>
						<duration>60</duration>
						<start>1248</start>
						<end>1308</end>
						<in>0</in>
						<out>60</out>
					</clipitem>
					<clipitem frameBlend="FALSE" id="clipitem-telop-157">
						<file id="file-2"/>
						<name></name>
						<rate>
							<timebase>60</timebase>
							<ntsc>TRUE</ntsc>
						</rate>
						<rate>
							<timebase>60</timebase>
							<ntsc>TRUE</ntsc>
						</rate>
						<duration>66</duration>
						<start>1314</start>
						<end>1380</end>
						<in>0</in>
						<out>66</out>
					</clipitem>
					<clipitem frameBlend="FALSE" id="clipitem-telop-164">
						<file id="file-2"/>
						<name></name>
						<rate>
							<timebase>60</timebase>
							<ntsc>TRUE</ntsc>
						</rate>
						<rate>
							<timebase>60</timebase>
							<ntsc>TRUE</ntsc>
						</rate>
						<duration>60</duration>
						<start>1386</start>
						<end>1446</end>
						<in>0</in>
						<out>60</out>
					</clipitem>
					<clipitem frameBlend="FALSE" id="clipitem-telop-173">
						<file id="file-2"/>
						<name></name>
						<rate>
							<timebase>60</timebase>
							<ntsc>TRUE</ntsc>
						</rate>
						<rate>
							<timebase>60</timebase>
							<ntsc>TRUE</ntsc>
						</rate>
						<duration>60</duration>
						<start>1446</start>
						<end>1506</end>
						<in>0</in>
						<out>60</out>
					</clipitem>
					<clipitem frameBlend="FALSE" id="clipitem-telop-179">
						<file id="file-2"/>
						<name></name>
						<rate>
							<timebase>60</timebase>
							<ntsc>TRUE</ntsc>
						</rate>
						<rate>
							<timebase>60</timebase>
							<ntsc>TRUE</ntsc>
						</rate>
						<duration>60</duration>
						<start>1506</start>
						<end>1566</end>
						<in>0</in>
						<out>60</out>
					</clipitem>
					<clipitem frameBlend="FALSE" id="clipitem-telop-186">
						<file id="file-2"/>
						<name></name>
						<rate>
							<timebase>60</timebase>
							<ntsc>TRUE</ntsc>
						</rate>
						<rate>
							<timebase>60</timebase>
							<ntsc>TRUE</ntsc>
						</rate>
						<duration>60</duration>
						<start>1572</start>
						<end>1632</end>
						<in>0</in>
						<out>60</out>
					</clipitem>
					<clipitem frameBlend="FALSE" id="clipitem-telop-193">
						<file id="file-2"/>
						<name></name>
						<rate>
							<timebase>60</timebase>
							<ntsc>TRUE</ntsc>
						</rate>
						<rate>
							<timebase>60</timebase>
							<ntsc>TRUE</ntsc>
						</rate>
						<duration>60</duration>
						<start>1638</start>
						<end>1698</end>
						<in>0</in>
						<out>60</out>
					</clipitem>
					<clipitem frameBlend="FALSE" id="clipitem-telop-200">
						<file id="file-2"/>
						<name></name>
						<rate>
							<timebase>60</timebase>
							<ntsc>TRUE</ntsc>
						</rate>
						<rate>
							<timebase>60</timebase>
							<ntsc>TRUE</ntsc>
						</rate>
						<duration>60</duration>
						<start>1704</start>
						<end>1764</end>
						<in>0</in>
						<out>60</out>
					</clipitem>
					<clipitem frameBlend="FALSE" id="clipitem-telop-207">
						<file id="file-2"/>
						<name></name>
						<rate>
							<timebase>60</timebase>
							<ntsc>TRUE</ntsc>
						</rate>
						<rate>
							<timebase>60</timebase>
							<ntsc>TRUE</ntsc>
						</rate>
						<duration>60</duration>
						<start>1770</start>
						<end>1830</end>
						<in>0</in>
						<out>60</out>
					</clipitem>
					<clipitem frameBlend="FALSE" id="clipitem-telop-218">
						<file id="file-2"/>
						<name></name>
						<rate>
							<timebase>60</timebase>
							<ntsc>TRUE</ntsc>
						</rate>
						<rate>
							<timebase>60</timebase>
							<ntsc>TRUE</ntsc>
						</rate>
						<duration>66</duration>
						<start>1830</start>
						<end>1896</end>
						<in>0</in>
						<out>66</out>
					</clipitem>
					<clipitem frameBlend="FALSE" id="clipitem-telop-224">
						<file id="file-2"/>
						<name></name>
						<rate>
							<timebase>60</timebase>
							<ntsc>TRUE</ntsc>
						</rate>
						<rate>
							<timebase>60</timebase>
							<ntsc>TRUE</ntsc>
						</rate>
						<duration>60</duration>
						<start>1896</start>
						<end>1956</end>
						<in>0</in>
						<out>60</out>
					</clipitem>
					<clipitem frameBlend="FALSE" id="clipitem-telop-233">
						<file id="file-2"/>
						<name></name>
						<rate>
							<timebase>60</timebase>
							<ntsc>TRUE</ntsc>
						</rate>
						<rate>
							<timebase>60</timebase>
							<ntsc>TRUE</ntsc>
						</rate>
						<duration>60</duration>
						<start>1956</start>
						<end>2016</end>
						<in>0</in>
						<out>60</out>
					</clipitem>
					<clipitem frameBlend="FALSE" id="clipitem-telop-239">
						<file id="file-2"/>
						<name></name>
						<rate>
							<timebase>60</timebase>
							<ntsc>TRUE</ntsc>
						</rate>
						<rate>
							<timebase>60</timebase>
							<ntsc>TRUE</ntsc>
						</rate>
						<duration>66</duration>
						<start>2022</start>
						<end>2088</end>
						<in>0</in>
						<out>66</out>
					</clipitem>
					<clipitem frameBlend="FALSE" id="clipitem-telop-242">
						<file id="file-2"/>
						<name></name>
						<rate>
							<timebase>60</timebase>
							<ntsc>TRUE</ntsc>
						</rate>
						<rate>
							<timebase>60</timebase>
							<ntsc>TRUE</ntsc>
						</rate>
						<duration>60</duration>
						<start>2088</start>
						<end>2148</end>
						<in>0</in>
						<out>60</out>
					</clipitem>
					<clipitem frameBlend="FALSE" id="clipitem-telop-244">
						<file id="file-2"/>
						<name></name>
						<rate>
							<timebase>60</timebase>
							<ntsc>TRUE</ntsc>
						</rate>
						<rate>
							<timebase>60</timebase>
							<ntsc>TRUE</ntsc>
						</rate>
						<duration>60</duration>
						<start>2148</start>
						<end>2208</end>
						<in>0</in>
						<out>60</out>
					</clipitem>
					<clipitem frameBlend="FALSE" id="clipitem-telop-252">
						<file id="file-2"/>
						<name></name>
						<rate>
							<timebase>60</timebase>
							<ntsc>TRUE</ntsc>
						</rate>
						<rate>
							<timebase>60</timebase>
							<ntsc>TRUE</ntsc>
						</rate>
						<duration>60</duration>
						<start>2208</start>
						<end>2268</end>
						<in>0</in>
						<out>60</out>
					</clipitem>
					<clipitem frameBlend="FALSE" id="clipitem-telop-253">
						<file id="file-2"/>
						<name></name>
						<rate>
							<timebase>60</timebase>
							<ntsc>TRUE</ntsc>
						</rate>
						<rate>
							<timebase>60</timebase>
							<ntsc>TRUE</ntsc>
						</rate>
						<duration>60</duration>
						<start>2298</start>
						<end>2358</end>
						<in>0</in>
						<out>60</out>
					</clipitem>
					<clipitem frameBlend="FALSE" id="clipitem-telop-259">
						<file id="file-2"/>
						<name></name>
						<rate>
							<timebase>60</timebase>
							<ntsc>TRUE</ntsc>
						</rate>
						<rate>
							<timebase>60</timebase>
							<ntsc>TRUE</ntsc>
						</rate>
						<duration>60</duration>
						<start>2364</start>
						<end>2424</end>
						<in>0</in>
						<out>60</out>
					</clipitem>
					<clipitem frameBlend="FALSE" id="clipitem-telop-264">
						<file id="file-2"/>
						<name></name>
						<rate>
							<timebase>60</timebase>
							<ntsc>TRUE</ntsc>
						</rate>
						<rate>
							<timebase>60</timebase>
							<ntsc>TRUE</ntsc>
						</rate>
						<duration>60</duration>
						<start>2424</start>
						<end>2484</end>
						<in>0</in>
						<out>60</out>
					</clipitem>
					<clipitem frameBlend="FALSE" id="clipitem-telop-270">
						<file id="file-2"/>
						<name></name>
						<rate>
							<timebase>60</timebase>
							<ntsc>TRUE</ntsc>
						</rate>
						<rate>
							<timebase>60</timebase>
							<ntsc>TRUE</ntsc>
						</rate>
						<duration>60</duration>
						<start>2502</start>
						<end>2562</end>
						<in>0</in>
						<out>60</out>
					</clipitem>
					<clipitem frameBlend="FALSE" id="clipitem-telop-276">
						<file id="file-2"/>
						<name></name>
						<rate>
							<timebase>60</timebase>
							<ntsc>TRUE</ntsc>
						</rate>
						<rate>
							<timebase>60</timebase>
							<ntsc>TRUE</ntsc>
						</rate>
						<duration>60</duration>
						<start>2562</start>
						<end>2622</end>
						<in>0</in>
						<out>60</out>
					</clipitem>
					<clipitem frameBlend="FALSE" id="clipitem-telop-283">
						<file id="file-2"/>
						<name></name>
						<rate>
							<timebase>60</timebase>
							<ntsc>TRUE</ntsc>
						</rate>
						<rate>
							<timebase>60</timebase>
							<ntsc>TRUE</ntsc>
						</rate>
						<duration>60</duration>
						<start>2628</start>
						<end>2688</end>
						<in>0</in>
						<out>60</out>
					</clipitem>
					<clipitem frameBlend="FALSE" id="clipitem-telop-292">
						<file id="file-2"/>
						<name></name>
						<rate>
							<timebase>60</timebase>
							<ntsc>TRUE</ntsc>
						</rate>
						<rate>
							<timebase>60</timebase>
							<ntsc>TRUE</ntsc>
						</rate>
						<duration>60</duration>
						<start>2694</start>
						<end>2754</end>
						<in>0</in>
						<out>60</out>
					</clipitem>
					<clipitem frameBlend="FALSE" id="clipitem-telop-299">
						<file id="file-2"/>
						<name></name>
						<rate>
							<timebase>60</timebase>
							<ntsc>TRUE</ntsc>
						</rate>
						<rate>
							<timebase>60</timebase>
							<ntsc>TRUE</ntsc>
						</rate>
						<duration>60</duration>
						<start>2760</start>
						<end>2820</end>
						<in>0</in>
						<out>60</out>
					</clipitem>
					<clipitem frameBlend="FALSE" id="clipitem-telop-307">
						<file id="file-2"/>
						<name></name>
						<rate>
							<timebase>60</timebase>
							<ntsc>TRUE</ntsc>
						</rate>
						<rate>
							<timebase>60</timebase>
							<ntsc>TRUE</ntsc>
						</rate>
						<duration>66</duration>
						<start>2820</start>
						<end>2886</end>
						<in>0</in>
						<out>66</out>
					</clipitem>
					<clipitem frameBlend="FALSE" id="clipitem-telop-314">
						<file id="file-2"/>
						<name></name>
						<rate>
							<timebase>60</timebase>
							<ntsc>TRUE</ntsc>
						</rate>
						<rate>
							<timebase>60</timebase>
							<ntsc>TRUE</ntsc>
						</rate>
						<duration>60</duration>
						<start>2886</start>
						<end>2946</end>
						<in>0</in>
						<out>60</out>
					</clipitem>
					<clipitem frameBlend="FALSE" id="clipitem-telop-319">
						<file id="file-2"/>
						<name></name>
						<rate>
							<timebase>60</timebase>
							<ntsc>TRUE</ntsc>
						</rate>
						<rate>
							<timebase>60</timebase>
							<ntsc>TRUE</ntsc>
						</rate>
						<duration>60</duration>
						<start>2952</start>
						<end>3012</end>
						<in>0</in>
						<out>60</out>
					</clipitem>
					<clipitem frameBlend="FALSE" id="clipitem-telop-327">
						<file id="file-2"/>
						<name></name>
						<rate>
							<timebase>60</timebase>
							<ntsc>TRUE</ntsc>
						</rate>
						<rate>
							<timebase>60</timebase>
							<ntsc>TRUE</ntsc>
						</rate>
						<duration>60</duration>
						<start>3018</start>
						<end>3078</end>
						<in>0</in>
						<out>60</out>
					</clipitem>
					<clipitem frameBlend="FALSE" id="clipitem-telop-334">
						<file id="file-2"/>
						<name></name>
						<rate>
							<timebase>60</timebase>
							<ntsc>TRUE</ntsc>
						</rate>
						<rate>
							<timebase>60</timebase>
							<ntsc>TRUE</ntsc>
						</rate>
						<duration>60</duration>
						<start>3096</start>
						<end>3156</end>
						<in>0</in>
						<out>60</out>
					</clipitem>
					<clipitem frameBlend="FALSE" id="clipitem-telop-343">
						<file id="file-2"/>
						<name></name>
						<rate>
							<timebase>60</timebase>
							<ntsc>TRUE</ntsc>
						</rate>
						<rate>
							<timebase>60</timebase>
							<ntsc>TRUE</ntsc>
						</rate>
						<duration>60</duration>
						<start>3162</start>
						<end>3222</end>
						<in>0</in>
						<out>60</out>
					</clipitem>
					<clipitem frameBlend="FALSE" id="clipitem-telop-350">
						<file id="file-2"/>
						<name></name>
						<rate>
							<timebase>60</timebase>
							<ntsc>TRUE</ntsc>
						</rate>
						<rate>
							<timebase>60</timebase>
							<ntsc>TRUE</ntsc>
						</rate>
						<duration>60</duration>
						<start>3222</start>
						<end>3282</end>
						<in>0</in>
						<out>60</out>
					</clipitem>
					<clipitem frameBlend="FALSE" id="clipitem-telop-358">
						<file id="file-2"/>
						<name></name>
						<rate>
							<timebase>60</timebase>
							<ntsc>TRUE</ntsc>
						</rate>
						<rate>
							<timebase>60</timebase>
							<ntsc>TRUE</ntsc>
						</rate>
						<duration>60</duration>
						<start>3288</start>
						<end>3348</end>
						<in>0</in>
						<out>60</out>
					</clipitem>
					<clipitem frameBlend="FALSE" id="clipitem-telop-366">
						<file id="file-2"/>
						<name></name>
						<rate>
							<timebase>60</timebase>
							<ntsc>TRUE</ntsc>
						</rate>
						<rate>
							<timebase>60</timebase>
							<ntsc>TRUE</ntsc>
						</rate>
						<duration>60</duration>
						<start>3348</start>
						<end>3408</end>
						<in>0</in>
						<out>60</out>
					</clipitem>
					<clipitem frameBlend="FALSE" id="clipitem-telop-372">
						<file id="file-2"/>
						<name>5</name>
						<rate>
							<timebase>60</timebase>
							<ntsc>TRUE</ntsc>
						</rate>
						<rate>
							<timebase>60</timebase>
							<ntsc>TRUE</ntsc>
						</rate>
						<duration>120</duration>
						<start>3420</start>
						<end>3540</end>
						<in>0</in>
						<out>120</out>
					</clipitem>
					<clipitem frameBlend="FALSE" id="clipitem-telop-384">
						<file id="file-2"/>
						<name>5 1</name>
						<rate>
							<timebase>60</timebase>
							<ntsc>TRUE</ntsc>
						</rate>
						<rate>
							<timebase>60</timebase>
							<ntsc>TRUE</ntsc>
						</rate>
						<duration>240</duration>
						<start>3540</start>
						<end>3780</end>
						<in>0</in>
						<out>240</out>
					</clipitem>
					<clipitem frameBlend="FALSE" id="clipitem-telop-414">
						<file id="file-2"/>
						<name></name>
						<rate>
							<timebase>60</timebase>
							<ntsc>TRUE</ntsc>
						</rate>
						<rate>
							<timebase>60</timebase>
							<ntsc>TRUE</ntsc>
						</rate>
						<duration>120</duration>
						<start>3780</start>
						<end>3900</end>
						<in>0</in>
						<out>120</out>
					</clipitem>
					<clipitem frameBlend="FALSE" id="clipitem-telop-427">
						<file id="file-2"/>
						<name></name>
						<rate>
							<timebase>60</timebase>
							<ntsc>TRUE</ntsc>
						</rate>
						<rate>
							<timebase>60</timebase>
							<ntsc>TRUE</ntsc>
						</rate>
						<duration>66</duration>
						<start>3936</start>
						<end>4002</end>
						<in>0</in>
						<out>66</out>
					</clipitem>
					<clipitem frameBlend="FALSE" id="clipitem-telop-431">
						<file id="file-2"/>
						<name></name>
						<rate>
							<timebase>60</timebase>
							<ntsc>TRUE</ntsc>
						</rate>
						<rate>
							<timebase>60</timebase>
							<ntsc>TRUE</ntsc>
						</rate>
						<duration>60</duration>
						<start>4014</start>
						<end>4074</end>
						<in>0</in>
						<out>60</out>
					</clipitem>
					<clipitem frameBlend="FALSE" id="clipitem-telop-437">
						<file id="file-2"/>
						<name></name>
						<rate>
							<timebase>60</timebase>
							<ntsc>TRUE</ntsc>
						</rate>
						<rate>
							<timebase>60</timebase>
							<ntsc>TRUE</ntsc>
						</rate>
						<duration>60</duration>
						<start>4080</start>
						<end>4140</end>
						<in>0</in>
						<out>60</out>
					</clipitem>
					<clipitem frameBlend="FALSE" id="clipitem-telop-441">
						<file id="file-2"/>
						<name> </name>
						<rate>
							<timebase>60</timebase>
							<ntsc>TRUE</ntsc>
						</rate>
						<rate>
							<timebase>60</timebase>
							<ntsc>TRUE</ntsc>
						</rate>
						<duration>180</duration>
						<start>4140</start>
						<end>4320</end>
						<in>0</in>
						<out>180</out>
					</clipitem>
					<clipitem frameBlend="FALSE" id="clipitem-telop-459">
						<file id="file-2"/>
						<name>   </name>
						<rate>
							<timebase>60</timebase>
							<ntsc>TRUE</ntsc>
						</rate>
						<rate>
							<timebase>60</timebase>
							<ntsc>TRUE</ntsc>
						</rate>
						<duration>180</duration>
						<start>4320</start>
						<end>4500</end>
						<in>0</in>
						<out>180</out>
					</clipitem>
					<clipitem frameBlend="FALSE" id="clipitem-telop-485">
						<file id="file-2"/>
						<name>   </name>
						<rate>
							<timebase>60</timebase>
							<ntsc>TRUE</ntsc>
						</rate>
						<rate>
							<timebase>60</timebase>
							<ntsc>TRUE</ntsc>
						</rate>
						<duration>180</duration>
						<start>4500</start>
						<end>4680</end>
						<in>0</in>
						<out>180</out>
					</clipitem>
					<clipitem frameBlend="FALSE" id="clipitem-telop-504">
						<file id="file-2"/>
						<name></name>
						<rate>
							<timebase>60</timebase>
							<ntsc>TRUE</ntsc>
						</rate>
						<rate>
							<timebase>60</timebase>
							<ntsc>TRUE</ntsc>
						</rate>
						<duration>66</duration>
						<start>4686</start>
						<end>4752</end>
						<in>0</in>
						<out>66</out>
					</clipitem>
					<clipitem frameBlend="FALSE" id="clipitem-telop-511">
						<file id="file-2"/>
						<name></name>
						<rate>
							<timebase>60</timebase>
							<ntsc>TRUE</ntsc>
						</rate>
						<rate>
							<timebase>60</timebase>
							<ntsc>TRUE</ntsc>
						</rate>
						<duration>60</duration>
						<start>4752</start>
						<end>4812</end>
						<in>0</in>
						<out>60</out>
					</clipitem>
					<clipitem frameBlend="FALSE" id="clipitem-telop-516">
						<file id="file-2"/>
						<name></name>
						<rate>
							<timebase>60</timebase>
							<ntsc>TRUE</ntsc>
						</rate>
						<rate>
							<timebase>60</timebase>
							<ntsc>TRUE</ntsc>
						</rate>
						<duration>60</duration>
						<start>4812</start>
						<end>4872</end>
						<in>0</in>
						<out>60</out>
					</clipitem>
					<clipitem frameBlend="FALSE" id="clipitem-telop-525">
						<file id="file-2"/>
						<name></name>
						<rate>
							<timebase>60</timebase>
							<ntsc>TRUE</ntsc>
						</rate>
						<rate>
							<timebase>60</timebase>
							<ntsc>TRUE</ntsc>
						</rate>
						<duration>66</duration>
						<start>4872</start>
						<end>4938</end>
						<in>0</in>
						<out>66</out>
					</clipitem>
					<clipitem frameBlend="FALSE" id="clipitem-telop-532">
						<file id="file-2"/>
						<name></name>
						<rate>
							<timebase>60</timebase>
							<ntsc>TRUE</ntsc>
						</rate>
						<rate>
							<timebase>60</timebase>
							<ntsc>TRUE</ntsc>
						</rate>
						<duration>60</duration>
						<start>4944</start>
						<end>5004</end>
						<in>0</in>
						<out>60</out>
					</clipitem>
					<clipitem frameBlend="FALSE" id="clipitem-telop-537">
						<file id="file-2"/>
						<name></name>
						<rate>
							<timebase>60</timebase>
							<ntsc>TRUE</ntsc>
						</rate>
						<rate>
							<timebase>60</timebase>
							<ntsc>TRUE</ntsc>
						</rate>
						<duration>60</duration>
						<start>5010</start>
						<end>5070</end>
						<in>0</in>
						<out>60</out>
					</clipitem>
					<clipitem frameBlend="FALSE" id="clipitem-telop-545">
						<file id="file-2"/>
						<name></name>
						<rate>
							<timebase>60</timebase>
							<ntsc>TRUE</ntsc>
						</rate>
						<rate>
							<timebase>60</timebase>
							<ntsc>TRUE</ntsc>
						</rate>
						<duration>60</duration>
						<start>5094</start>
						<end>5154</end>
						<in>0</in>
						<out>60</out>
					</clipitem>
					<clipitem frameBlend="FALSE" id="clipitem-telop-555">
						<file id="file-2"/>
						<name></name>
						<rate>
							<timebase>60</timebase>
							<ntsc>TRUE</ntsc>
						</rate>
						<rate>
							<timebase>60</timebase>
							<ntsc>TRUE</ntsc>
						</rate>
						<duration>60</duration>
						<start>5166</start>
						<end>5226</end>
						<in>0</in>
						<out>60</out>
					</clipitem>
					<clipitem frameBlend="FALSE" id="clipitem-telop-560">
						<file id="file-2"/>
						<name></name>
						<rate>
							<timebase>60</timebase>
							<ntsc>TRUE</ntsc>
						</rate>
						<rate>
							<timebase>60</timebase>
							<ntsc>TRUE</ntsc>
						</rate>
						<duration>60</duration>
						<start>5238</start>
						<end>5298</end>
						<in>0</in>
						<out>60</out>
					</clipitem>
					<clipitem frameBlend="FALSE" id="clipitem-telop-568">
						<file id="file-2"/>
						<name></name>
						<rate>
							<timebase>60</timebase>
							<ntsc>TRUE</ntsc>
						</rate>
						<rate>
							<timebase>60</timebase>
							<ntsc>TRUE</ntsc>
						</rate>
						<duration>60</duration>
						<start>5298</start>
						<end>5358</end>
						<in>0</in>
						<out>60</out>
					</clipitem>
					<clipitem frameBlend="FALSE" id="clipitem-telop-577">
						<file id="file-2"/>
						<name></name>
						<rate>
							<timebase>60</timebase>
							<ntsc>TRUE</ntsc>
						</rate>
						<rate>
							<timebase>60</timebase>
							<ntsc>TRUE</ntsc>
						</rate>
						<duration>60</duration>
						<start>5400</start>
						<end>5460</end>
						<in>0</in>
						<out>60</out>
					</clipitem>
					<clipitem frameBlend="FALSE" id="clipitem-telop-582">
						<file id="file-2"/>
						<name></name>
						<rate>
							<timebase>60</timebase>
							<ntsc>TRUE</ntsc>
						</rate>
						<rate>
							<timebase>60</timebase>
							<ntsc>TRUE</ntsc>
						</rate>
						<duration>60</duration>
						<start>5502</start>
						<end>5562</end>
						<in>0</in>
						<out>60</out>
					</clipitem>
					<clipitem frameBlend="FALSE" id="clipitem-telop-594">
						<file id="file-2"/>
						<name>w</name>
						<rate>
							<timebase>60</timebase>
							<ntsc>TRUE</ntsc>
						</rate>
						<rate>
							<timebase>60</timebase>
							<ntsc>TRUE</ntsc>
						</rate>
						<duration>30</duration>
						<start>5568</start>
						<end>5598</end>
						<in>0</in>
						<out>30</out>
					</clipitem>
					<clipitem frameBlend="FALSE" id="clipitem-telop-600">
						<file id="file-2"/>
						<name></name>
						<rate>
							<timebase>60</timebase>
							<ntsc>TRUE</ntsc>
						</rate>
						<rate>
							<timebase>60</timebase>
							<ntsc>TRUE</ntsc>
						</rate>
						<duration>60</duration>
						<start>5598</start>
						<end>5658</end>
						<in>0</in>
						<out>60</out>
					</clipitem>
					<clipitem frameBlend="FALSE" id="clipitem-telop-609">
						<file id="file-2"/>
						<name></name>
						<rate>
							<timebase>60</timebase>
							<ntsc>TRUE</ntsc>
						</rate>
						<rate>
							<timebase>60</timebase>
							<ntsc>TRUE</ntsc>
						</rate>
						<duration>60</duration>
						<start>5676</start>
						<end>5736</end>
						<in>0</in>
						<out>60</out>
					</clipitem>
					<clipitem frameBlend="FALSE" id="clipitem-telop-614">
						<file id="file-2"/>
						<name></name>
						<rate>
							<timebase>60</timebase>
							<ntsc>TRUE</ntsc>
						</rate>
						<rate>
							<timebase>60</timebase>
							<ntsc>TRUE</ntsc>
						</rate>
						<duration>60</duration>
						<start>5742</start>
						<end>5802</end>
						<in>0</in>
						<out>60</out>
					</clipitem>
					<clipitem frameBlend="FALSE" id="clipitem-telop-623">
						<file id="file-2"/>
						<name></name>
						<rate>
							<timebase>60</timebase>
							<ntsc>TRUE</ntsc>
						</rate>
						<rate>
							<timebase>60</timebase>
							<ntsc>TRUE</ntsc>
						</rate>
						<duration>60</duration>
						<start>5802</start>
						<end>5862</end>
						<in>0</in>
						<out>60</out>
					</clipitem>
					<clipitem frameBlend="FALSE" id="clipitem-telop-631">
						<file id="file-2"/>
						<name></name>
						<rate>
							<timebase>60</timebase>
							<ntsc>TRUE</ntsc>
						</rate>
						<rate>
							<timebase>60</timebase>
							<ntsc>TRUE</ntsc>
						</rate>
						<duration>66</duration>
						<start>5862</start>
						<end>5928</end>
						<in>0</in>
						<out>66</out>
					</clipitem>
					<clipitem frameBlend="FALSE" id="clipitem-telop-638">
						<file id="file-2"/>
						<name></name>
						<rate>
							<timebase>60</timebase>
							<ntsc>TRUE</ntsc>
						</rate>
						<rate>
							<timebase>60</timebase>
							<ntsc>TRUE</ntsc>
						</rate>
						<duration>60</duration>
						<start>5934</start>
						<end>5994</end>
						<in>0</in>
						<out>60</out>
					</clipitem>
					<clipitem frameBlend="FALSE" id="clipitem-telop-644">
						<file id="file-2"/>
						<name></name>
						<rate>
							<timebase>60</timebase>
							<ntsc>TRUE</ntsc>
						</rate>
						<rate>
							<timebase>60</timebase>
							<ntsc>TRUE</ntsc>
						</rate>
						<duration>60</duration>
						<start>5994</start>
						<end>6054</end>
						<in>0</in>
						<out>60</out>
					</clipitem>
					<clipitem frameBlend="FALSE" id="clipitem-telop-653">
						<file id="file-2"/>
						<name></name>
						<rate>
							<timebase>60</timebase>
							<ntsc>TRUE</ntsc>
						</rate>
						<rate>
							<timebase>60</timebase>
							<ntsc>TRUE</ntsc>
						</rate>
						<duration>60</duration>
						<start>6060</start>
						<end>6120</end>
						<in>0</in>
						<out>60</out>
					</clipitem>
					<clipitem frameBlend="FALSE" id="clipitem-telop-662">
						<file id="file-2"/>
						<name></name>
						<rate>
							<timebase>60</timebase>
							<ntsc>TRUE</ntsc>
						</rate>
						<rate>
							<timebase>60</timebase>
							<ntsc>TRUE</ntsc>
						</rate>
						<duration>60</duration>
						<start>6126</start>
						<end>6186</end>
						<in>0</in>
						<out>60</out>
					</clipitem>
					<clipitem frameBlend="FALSE" id="clipitem-telop-670">
						<file id="file-2"/>
						<name></name>
						<rate>
							<timebase>60</timebase>
							<ntsc>TRUE</ntsc>
						</rate>
						<rate>
							<timebase>60</timebase>
							<ntsc>TRUE</ntsc>
						</rate>
						<duration>60</duration>
						<start>6192</start>
						<end>6252</end>
						<in>0</in>
						<out>60</out>
					</clipitem>
					<clipitem frameBlend="FALSE" id="clipitem-telop-679">
						<file id="file-2"/>
						<name></name>
						<rate>
							<timebase>60</timebase>
							<ntsc>TRUE</ntsc>
						</rate>
						<rate>
							<timebase>60</timebase>
							<ntsc>TRUE</ntsc>
						</rate>
						<duration>60</duration>
						<start>6270</start>
						<end>6330</end>
						<in>0</in>
						<out>60</out>
					</clipitem>
					<clipitem frameBlend="FALSE" id="clipitem-telop-690">
						<file id="file-2"/>
						<name></name>
						<rate>
							<timebase>60</timebase>
							<ntsc>TRUE</ntsc>
						</rate>
						<rate>
							<timebase>60</timebase>
							<ntsc>TRUE</ntsc>
						</rate>
						<duration>60</duration>
						<start>6336</start>
						<end>6396</end>
						<in>0</in>
						<out>60</out>
					</clipitem>
					<clipitem frameBlend="FALSE" id="clipitem-telop-699">
						<file id="file-2"/>
						<name></name>
						<rate>
							<timebase>60</timebase>
							<ntsc>TRUE</ntsc>
						</rate>
						<rate>
							<timebase>60</timebase>
							<ntsc>TRUE</ntsc>
						</rate>
						<duration>60</duration>
						<start>6396</start>
						<end>6456</end>
						<in>0</in>
						<out>60</out>
					</clipitem>
					<clipitem frameBlend="FALSE" id="clipitem-telop-704">
						<file id="file-2"/>
						<name></name>
						<rate>
							<timebase>60</timebase>
							<ntsc>TRUE</ntsc>
						</rate>
						<rate>
							<timebase>60</timebase>
							<ntsc>TRUE</ntsc>
						</rate>
						<duration>60</duration>
						<start>6456</start>
						<end>6516</end>
						<in>0</in>
						<out>60</out>
					</clipitem>
					<clipitem frameBlend="FALSE" id="clipitem-telop-709">
						<file id="file-2"/>
						<name></name>
						<rate>
							<timebase>60</timebase>
							<ntsc>TRUE</ntsc>
						</rate>
						<rate>
							<timebase>60</timebase>
							<ntsc>TRUE</ntsc>
						</rate>
						<duration>66</duration>
						<start>6528</start>
						<end>6594</end>
						<in>0</in>
						<out>66</out>
					</clipitem>
					<clipitem frameBlend="FALSE" id="clipitem-telop-718">
						<file id="file-2"/>
						<name></name>
						<rate>
							<timebase>60</timebase>
							<ntsc>TRUE</ntsc>
						</rate>
						<rate>
							<timebase>60</timebase>
							<ntsc>TRUE</ntsc>
						</rate>
						<duration>66</duration>
						<start>6600</start>
						<end>6666</end>
						<in>0</in>
						<out>66</out>
					</clipitem>
					<clipitem frameBlend="FALSE" id="clipitem-telop-723">
						<file id="file-2"/>
						<name></name>
						<rate>
							<timebase>60</timebase>
							<ntsc>TRUE</ntsc>
						</rate>
						<rate>
							<timebase>60</timebase>
							<ntsc>TRUE</ntsc>
						</rate>
						<duration>66</duration>
						<start>6684</start>
						<end>6750</end>
						<in>0</in>
						<out>66</out>
					</clipitem>
					<clipitem frameBlend="FALSE" id="clipitem-telop-727">
						<file id="file-2"/>
						<name></name>
						<rate>
							<timebase>60</timebase>
							<ntsc>TRUE</ntsc>
						</rate>
						<rate>
							<timebase>60</timebase>
							<ntsc>TRUE</ntsc>
						</rate>
						<duration>66</duration>
						<start>6750</start>
						<end>6816</end>
						<in>0</in>
						<out>66</out>
					</clipitem>
					<clipitem frameBlend="FALSE" id="clipitem-telop-733">
						<file id="file-2"/>
						<name></name>
						<rate>
							<timebase>60</timebase>
							<ntsc>TRUE</ntsc>
						</rate>
						<rate>
							<timebase>60</timebase>
							<ntsc>TRUE</ntsc>
						</rate>
						<duration>60</duration>
						<start>6816</start>
						<end>6876</end>
						<in>0</in>
						<out>60</out>
					</clipitem>
					<clipitem frameBlend="FALSE" id="clipitem-telop-737">
						<file id="file-2"/>
						<name></name>
						<rate>
							<timebase>60</timebase>
							<ntsc>TRUE</ntsc>
						</rate>
						<rate>
							<timebase>60</timebase>
							<ntsc>TRUE</ntsc>
						</rate>
						<duration>60</duration>
						<start>6876</start>
						<end>6936</end>
						<in>0</in>
						<out>60</out>
					</clipitem>
					<clipitem frameBlend="FALSE" id="clipitem-telop-747">
						<file id="file-2"/>
						<name></name>
						<rate>
							<timebase>60</timebase>
							<ntsc>TRUE</ntsc>
						</rate>
						<rate>
							<timebase>60</timebase>
							<ntsc>TRUE</ntsc>
						</rate>
						<duration>66</duration>
						<start>6942</start>
						<end>7008</end>
						<in>0</in>
						<out>66</out>
					</clipitem>
					<clipitem frameBlend="FALSE" id="clipitem-telop-753">
						<file id="file-2"/>
						<name></name>
						<rate>
							<timebase>60</timebase>
							<ntsc>TRUE</ntsc>
						</rate>
						<rate>
							<timebase>60</timebase>
							<ntsc>TRUE</ntsc>
						</rate>
						<duration>54</duration>
						<start>7008</start>
						<end>7062</end>
						<in>0</in>
						<out>54</out>
					</clipitem>
				</track>
				<track>
					<clipitem frameBlend="FALSE" id="clipitem-telop-3">
						<file id="file-2"/>
						<name></name>
						<rate>
							<timebase>60</timebase>
							<ntsc>TRUE</ntsc>
						</rate>
						<rate>
							<timebase>60</timebase>
							<ntsc>TRUE</ntsc>
						</rate>
						<duration>60</duration>
						<start>54</start>
						<end>114</end>
						<in>0</in>
						<out>60</out>
					</clipitem>
					<clipitem frameBlend="FALSE" id="clipitem-telop-11">
						<file id="file-2"/>
						<name></name>
						<rate>
							<timebase>60</timebase>
							<ntsc>TRUE</ntsc>
						</rate>
						<rate>
							<timebase>60</timebase>
							<ntsc>TRUE</ntsc>
						</rate>
						<duration>66</duration>
						<start>120</start>
						<end>186</end>
						<in>0</in>
						<out>66</out>
					</clipitem>
					<clipitem frameBlend="FALSE" id="clipitem-telop-18">
						<file id="file-2"/>
						<name></name>
						<rate>
							<timebase>60</timebase>
							<ntsc>TRUE</ntsc>
						</rate>
						<rate>
							<timebase>60</timebase>
							<ntsc>TRUE</ntsc>
						</rate>
						<duration>60</duration>
						<start>216</start>
						<end>276</end>
						<in>0</in>
						<out>60</out>
					</clipitem>
					<clipitem frameBlend="FALSE" id="clipitem-telop-26">
						<file id="file-2"/>
						<name></name>
						<rate>
							<timebase>60</timebase>
							<ntsc>TRUE</ntsc>
						</rate>
						<rate>
							<timebase>60</timebase>
							<ntsc>TRUE</ntsc>
						</rate>
						<duration>66</duration>
						<start>276</start>
						<end>342</end>
						<in>0</in>
						<out>66</out>
					</clipitem>
					<clipitem frameBlend="FALSE" id="clipitem-telop-33">
						<file id="file-2"/>
						<name></name>
						<rate>
							<timebase>60</timebase>
							<ntsc>TRUE</ntsc>
						</rate>
						<rate>
							<timebase>60</timebase>
							<ntsc>TRUE</ntsc>
						</rate>
						<duration>66</duration>
						<start>342</start>
						<end>408</end>
						<in>0</in>
						<out>66</out>
					</clipitem>
					<clipitem frameBlend="FALSE" id="clipitem-telop-39">
						<file id="file-2"/>
						<name></name>
						<rate>
							<timebase>60</timebase>
							<ntsc>TRUE</ntsc>
						</rate>
						<rate>
							<timebase>60</timebase>
							<ntsc>TRUE</ntsc>
						</rate>
						<duration>66</duration>
						<start>408</start>
						<end>474</end>
						<in>0</in>
						<out>66</out>
					</clipitem>
					<clipitem frameBlend="FALSE" id="clipitem-telop-44">
						<file id="file-2"/>
						<name></name>
						<rate>
							<timebase>60</timebase>
							<ntsc>TRUE</ntsc>
						</rate>
						<rate>
							<timebase>60</timebase>
							<ntsc>TRUE</ntsc>
						</rate>
						<duration>60</duration>
						<start>474</start>
						<end>534</end>
						<in>0</in>
						<out>60</out>
					</clipitem>
					<clipitem frameBlend="FALSE" id="clipitem-telop-53">
						<file id="file-2"/>
						<name></name>
						<rate>
							<timebase>60</timebase>
							<ntsc>TRUE</ntsc>
						</rate>
						<rate>
							<timebase>60</timebase>
							<ntsc>TRUE</ntsc>
						</rate>
						<duration>66</duration>
						<start>534</start>
						<end>600</end>
						<in>0</in>
						<out>66</out>
					</clipitem>
					<clipitem frameBlend="FALSE" id="clipitem-telop-63">
						<file id="file-2"/>
						<name></name>
						<rate>
							<timebase>60</timebase>
							<ntsc>TRUE</ntsc>
						</rate>
						<rate>
							<timebase>60</timebase>
							<ntsc>TRUE</ntsc>
						</rate>
						<duration>60</duration>
						<start>600</start>
						<end>660</end>
						<in>0</in>
						<out>60</out>
					</clipitem>
					<clipitem frameBlend="FALSE" id="clipitem-telop-72">
						<file id="file-2"/>
						<name></name>
						<rate>
							<timebase>60</timebase>
							<ntsc>TRUE</ntsc>
						</rate>
						<rate>
							<timebase>60</timebase>
							<ntsc>TRUE</ntsc>
						</rate>
						<duration>60</duration>
						<start>666</start>
						<end>726</end>
						<in>0</in>
						<out>60</out>
					</clipitem>
					<clipitem frameBlend="FALSE" id="clipitem-telop-80">
						<file id="file-2"/>
						<name></name>
						<rate>
							<timebase>60</timebase>
							<ntsc>TRUE</ntsc>
						</rate>
						<rate>
							<timebase>60</timebase>
							<ntsc>TRUE</ntsc>
						</rate>
						<duration>60</duration>
						<start>744</start>
						<end>804</end>
						<in>0</in>
						<out>60</out>
					</clipitem>
					<clipitem frameBlend="FALSE" id="clipitem-telop-89">
						<file id="file-2"/>
						<name></name>
						<rate>
							<timebase>60</timebase>
							<ntsc>TRUE</ntsc>
						</rate>
						<rate>
							<timebase>60</timebase>
							<ntsc>TRUE</ntsc>
						</rate>
						<duration>60</duration>
						<start>804</start>
						<end>864</end>
						<in>0</in>
						<out>60</out>
					</clipitem>
					<clipitem frameBlend="FALSE" id="clipitem-telop-98">
						<file id="file-2"/>
						<name></name>
						<rate>
							<timebase>60</timebase>
							<ntsc>TRUE</ntsc>
						</rate>
						<rate>
							<timebase>60</timebase>
							<ntsc>TRUE</ntsc>
						</rate>
						<duration>60</duration>
						<start>864</start>
						<end>924</end>
						<in>0</in>
						<out>60</out>
					</clipitem>
					<clipitem frameBlend="FALSE" id="clipitem-telop-108">
						<file id="file-2"/>
						<name></name>
						<rate>
							<timebase>60</timebase>
							<ntsc>TRUE</ntsc>
						</rate>
						<rate>
							<timebase>60</timebase>
							<ntsc>TRUE</ntsc>
						</rate>
						<duration>60</duration>
						<start>924</start>
						<end>984</end>
						<in>0</in>
						<out>60</out>
					</clipitem>
					<clipitem frameBlend="FALSE" id="clipitem-telop-119">
						<file id="file-2"/>
						<name></name>
						<rate>
							<timebase>60</timebase>
							<ntsc>TRUE</ntsc>
						</rate>
						<rate>
							<timebase>60</timebase>
							<ntsc>TRUE</ntsc>
						</rate>
						<duration>60</duration>
						<start>984</start>
						<end>1044</end>
						<in>0</in>
						<out>60</out>
					</clipitem>
					<clipitem frameBlend="FALSE" id="clipitem-telop-130">
						<file id="file-2"/>
						<name></name>
						<rate>
							<timebase>60</timebase>
							<ntsc>TRUE</ntsc>
						</rate>
						<rate>
							<timebase>60</timebase>
							<ntsc>TRUE</ntsc>
						</rate>
						<duration>66</duration>
						<start>1044</start>
						<end>1110</end>
						<in>0</in>
						<out>66</out>
					</clipitem>
					<clipitem frameBlend="FALSE" id="clipitem-telop-137">
						<file id="file-2"/>
						<name></name>
						<rate>
							<timebase>60</timebase>
							<ntsc>TRUE</ntsc>
						</rate>
						<rate>
							<timebase>60</timebase>
							<ntsc>TRUE</ntsc>
						</rate>
						<duration>66</duration>
						<start>1110</start>
						<end>1176</end>
						<in>0</in>
						<out>66</out>
					</clipitem>
					<clipitem frameBlend="FALSE" id="clipitem-telop-143">
						<file id="file-2"/>
						<name></name>
						<rate>
							<timebase>60</timebase>
							<ntsc>TRUE</ntsc>
						</rate>
						<rate>
							<timebase>60</timebase>
							<ntsc>TRUE</ntsc>
						</rate>
						<duration>60</duration>
						<start>1182</start>
						<end>1242</end>
						<in>0</in>
						<out>60</out>
					</clipitem>
					<clipitem frameBlend="FALSE" id="clipitem-telop-149">
						<file id="file-2"/>
						<name></name>
						<rate>
							<timebase>60</timebase>
							<ntsc>TRUE</ntsc>
						</rate>
						<rate>
							<timebase>60</timebase>
							<ntsc>TRUE</ntsc>
						</rate>
						<duration>60</duration>
						<start>1254</start>
						<end>1314</end>
						<in>0</in>
						<out>60</out>
					</clipitem>
					<clipitem frameBlend="FALSE" id="clipitem-telop-158">
						<file id="file-2"/>
						<name></name>
						<rate>
							<timebase>60</timebase>
							<ntsc>TRUE</ntsc>
						</rate>
						<rate>
							<timebase>60</timebase>
							<ntsc>TRUE</ntsc>
						</rate>
						<duration>60</duration>
						<start>1332</start>
						<end>1392</end>
						<in>0</in>
						<out>60</out>
					</clipitem>
					<clipitem frameBlend="FALSE" id="clipitem-telop-167">
						<file id="file-2"/>
						<name></name>
						<rate>
							<timebase>60</timebase>
							<ntsc>TRUE</ntsc>
						</rate>
						<rate>
							<timebase>60</timebase>
							<ntsc>TRUE</ntsc>
						</rate>
						<duration>60</duration>
						<start>1404</start>
						<end>1464</end>
						<in>0</in>
						<out>60</out>
					</clipitem>
					<clipitem frameBlend="FALSE" id="clipitem-telop-175">
						<file id="file-2"/>
						<name></name>
						<rate>
							<timebase>60</timebase>
							<ntsc>TRUE</ntsc>
						</rate>
						<rate>
							<timebase>60</timebase>
							<ntsc>TRUE</ntsc>
						</rate>
						<duration>60</duration>
						<start>1476</start>
						<end>1536</end>
						<in>0</in>
						<out>60</out>
					</clipitem>
					<clipitem frameBlend="FALSE" id="clipitem-telop-182">
						<file id="file-2"/>
						<name></name>
						<rate>
							<timebase>60</timebase>
							<ntsc>TRUE</ntsc>
						</rate>
						<rate>
							<timebase>60</timebase>
							<ntsc>TRUE</ntsc>
						</rate>
						<duration>60</duration>
						<start>1536</start>
						<end>1596</end>
						<in>0</in>
						<out>60</out>
					</clipitem>
					<clipitem frameBlend="FALSE" id="clipitem-telop-187">
						<file id="file-2"/>
						<name></name>
						<rate>
							<timebase>60</timebase>
							<ntsc>TRUE</ntsc>
						</rate>
						<rate>
							<timebase>60</timebase>
							<ntsc>TRUE</ntsc>
						</rate>
						<duration>60</duration>
						<start>1602</start>
						<end>1662</end>
						<in>0</in>
						<out>60</out>
					</clipitem>
					<clipitem frameBlend="FALSE" id="clipitem-telop-196">
						<file id="file-2"/>
						<name></name>
						<rate>
							<timebase>60</timebase>
							<ntsc>TRUE</ntsc>
						</rate>
						<rate>
							<timebase>60</timebase>
							<ntsc>TRUE</ntsc>
						</rate>
						<duration>60</duration>
						<start>1662</start>
						<end>1722</end>
						<in>0</in>
						<out>60</out>
					</clipitem>
					<clipitem frameBlend="FALSE" id="clipitem-telop-202">
						<file id="file-2"/>
						<name></name>
						<rate>
							<timebase>60</timebase>
							<ntsc>TRUE</ntsc>
						</rate>
						<rate>
							<timebase>60</timebase>
							<ntsc>TRUE</ntsc>
						</rate>
						<duration>60</duration>
						<start>1728</start>
						<end>1788</end>
						<in>0</in>
						<out>60</out>
					</clipitem>
					<clipitem frameBlend="FALSE" id="clipitem-telop-211">
						<file id="file-2"/>
						<name></name>
						<rate>
							<timebase>60</timebase>
							<ntsc>TRUE</ntsc>
						</rate>
						<rate>
							<timebase>60</timebase>
							<ntsc>TRUE</ntsc>
						</rate>
						<duration>60</duration>
						<start>1788</start>
						<end>1848</end>
						<in>0</in>
						<out>60</out>
					</clipitem>
					<clipitem frameBlend="FALSE" id="clipitem-telop-221">
						<file id="file-2"/>
						<name></name>
						<rate>
							<timebase>60</timebase>
							<ntsc>TRUE</ntsc>
						</rate>
						<rate>
							<timebase>60</timebase>
							<ntsc>TRUE</ntsc>
						</rate>
						<duration>60</duration>
						<start>1878</start>
						<end>1938</end>
						<in>0</in>
						<out>60</out>
					</clipitem>
					<clipitem frameBlend="FALSE" id="clipitem-telop-230">
						<file id="file-2"/>
						<name></name>
						<rate>
							<timebase>60</timebase>
							<ntsc>TRUE</ntsc>
						</rate>
						<rate>
							<timebase>60</timebase>
							<ntsc>TRUE</ntsc>
						</rate>
						<duration>66</duration>
						<start>1938</start>
						<end>2004</end>
						<in>0</in>
						<out>66</out>
					</clipitem>
					<clipitem frameBlend="FALSE" id="clipitem-telop-238">
						<file id="file-2"/>
						<name></name>
						<rate>
							<timebase>60</timebase>
							<ntsc>TRUE</ntsc>
						</rate>
						<rate>
							<timebase>60</timebase>
							<ntsc>TRUE</ntsc>
						</rate>
						<duration>60</duration>
						<start>2010</start>
						<end>2070</end>
						<in>0</in>
						<out>60</out>
					</clipitem>
					<clipitem frameBlend="FALSE" id="clipitem-telop-245">
						<file id="file-2"/>
						<name></name>
						<rate>
							<timebase>60</timebase>
							<ntsc>TRUE</ntsc>
						</rate>
						<rate>
							<timebase>60</timebase>
							<ntsc>TRUE</ntsc>
						</rate>
						<duration>60</duration>
						<start>2154</start>
						<end>2214</end>
						<in>0</in>
						<out>60</out>
					</clipitem>
					<clipitem frameBlend="FALSE" id="clipitem-telop-254">
						<file id="file-2"/>
						<name></name>
						<rate>
							<timebase>60</timebase>
							<ntsc>TRUE</ntsc>
						</rate>
						<rate>
							<timebase>60</timebase>
							<ntsc>TRUE</ntsc>
						</rate>
						<duration>60</duration>
						<start>2304</start>
						<end>2364</end>
						<in>0</in>
						<out>60</out>
					</clipitem>
					<clipitem frameBlend="FALSE" id="clipitem-telop-260">
						<file id="file-2"/>
						<name></name>
						<rate>
							<timebase>60</timebase>
							<ntsc>TRUE</ntsc>
						</rate>
						<rate>
							<timebase>60</timebase>
							<ntsc>TRUE</ntsc>
						</rate>
						<duration>66</duration>
						<start>2370</start>
						<end>2436</end>
						<in>0</in>
						<out>66</out>
					</clipitem>
					<clipitem frameBlend="FALSE" id="clipitem-telop-265">
						<file id="file-2"/>
						<name></name>
						<rate>
							<timebase>60</timebase>
							<ntsc>TRUE</ntsc>
						</rate>
						<rate>
							<timebase>60</timebase>
							<ntsc>TRUE</ntsc>
						</rate>
						<duration>60</duration>
						<start>2436</start>
						<end>2496</end>
						<in>0</in>
						<out>60</out>
					</clipitem>
					<clipitem frameBlend="FALSE" id="clipitem-telop-271">
						<file id="file-2"/>
						<name></name>
						<rate>
							<timebase>60</timebase>
							<ntsc>TRUE</ntsc>
						</rate>
						<rate>
							<timebase>60</timebase>
							<ntsc>TRUE</ntsc>
						</rate>
						<duration>60</duration>
						<start>2514</start>
						<end>2574</end>
						<in>0</in>
						<out>60</out>
					</clipitem>
					<clipitem frameBlend="FALSE" id="clipitem-telop-279">
						<file id="file-2"/>
						<name></name>
						<rate>
							<timebase>60</timebase>
							<ntsc>TRUE</ntsc>
						</rate>
						<rate>
							<timebase>60</timebase>
							<ntsc>TRUE</ntsc>
						</rate>
						<duration>60</duration>
						<start>2580</start>
						<end>2640</end>
						<in>0</in>
						<out>60</out>
					</clipitem>
					<clipitem frameBlend="FALSE" id="clipitem-telop-287">
						<file id="file-2"/>
						<name></name>
						<rate>
							<timebase>60</timebase>
							<ntsc>TRUE</ntsc>
						</rate>
						<rate>
							<timebase>60</timebase>
							<ntsc>TRUE</ntsc>
						</rate>
						<duration>60</duration>
						<start>2646</start>
						<end>2706</end>
						<in>0</in>
						<out>60</out>
					</clipitem>
					<clipitem frameBlend="FALSE" id="clipitem-telop-294">
						<file id="file-2"/>
						<name></name>
						<rate>
							<timebase>60</timebase>
							<ntsc>TRUE</ntsc>
						</rate>
						<rate>
							<timebase>60</timebase>
							<ntsc>TRUE</ntsc>
						</rate>
						<duration>66</duration>
						<start>2724</start>
						<end>2790</end>
						<in>0</in>
						<out>66</out>
					</clipitem>
					<clipitem frameBlend="FALSE" id="clipitem-telop-303">
						<file id="file-2"/>
						<name></name>
						<rate>
							<timebase>60</timebase>
							<ntsc>TRUE</ntsc>
						</rate>
						<rate>
							<timebase>60</timebase>
							<ntsc>TRUE</ntsc>
						</rate>
						<duration>66</duration>
						<start>2790</start>
						<end>2856</end>
						<in>0</in>
						<out>66</out>
					</clipitem>
					<clipitem frameBlend="FALSE" id="clipitem-telop-311">
						<file id="file-2"/>
						<name></name>
						<rate>
							<timebase>60</timebase>
							<ntsc>TRUE</ntsc>
						</rate>
						<rate>
							<timebase>60</timebase>
							<ntsc>TRUE</ntsc>
						</rate>
						<duration>66</duration>
						<start>2856</start>
						<end>2922</end>
						<in>0</in>
						<out>66</out>
					</clipitem>
					<clipitem frameBlend="FALSE" id="clipitem-telop-317">
						<file id="file-2"/>
						<name></name>
						<rate>
							<timebase>60</timebase>
							<ntsc>TRUE</ntsc>
						</rate>
						<rate>
							<timebase>60</timebase>
							<ntsc>TRUE</ntsc>
						</rate>
						<duration>60</duration>
						<start>2922</start>
						<end>2982</end>
						<in>0</in>
						<out>60</out>
					</clipitem>
					<clipitem frameBlend="FALSE" id="clipitem-telop-322">
						<file id="file-2"/>
						<name></name>
						<rate>
							<timebase>60</timebase>
							<ntsc>TRUE</ntsc>
						</rate>
						<rate>
							<timebase>60</timebase>
							<ntsc>TRUE</ntsc>
						</rate>
						<duration>66</duration>
						<start>2982</start>
						<end>3048</end>
						<in>0</in>
						<out>66</out>
					</clipitem>
					<clipitem frameBlend="FALSE" id="clipitem-telop-332">
						<file id="file-2"/>
						<name>w</name>
						<rate>
							<timebase>60</timebase>
							<ntsc>TRUE</ntsc>
						</rate>
						<rate>
							<timebase>60</timebase>
							<ntsc>TRUE</ntsc>
						</rate>
						<duration>30</duration>
						<start>3048</start>
						<end>3078</end>
						<in>0</in>
						<out>30</out>
					</clipitem>
					<clipitem frameBlend="FALSE" id="clipitem-telop-335">
						<file id="file-2"/>
						<name></name>
						<rate>
							<timebase>60</timebase>
							<ntsc>TRUE</ntsc>
						</rate>
						<rate>
							<timebase>60</timebase>
							<ntsc>TRUE</ntsc>
						</rate>
						<duration>60</duration>
						<start>3114</start>
						<end>3174</end>
						<in>0</in>
						<out>60</out>
					</clipitem>
					<clipitem frameBlend="FALSE" id="clipitem-telop-344">
						<file id="file-2"/>
						<name></name>
						<rate>
							<timebase>60</timebase>
							<ntsc>TRUE</ntsc>
						</rate>
						<rate>
							<timebase>60</timebase>
							<ntsc>TRUE</ntsc>
						</rate>
						<duration>60</duration>
						<start>3180</start>
						<end>3240</end>
						<in>0</in>
						<out>60</out>
					</clipitem>
					<clipitem frameBlend="FALSE" id="clipitem-telop-355">
						<file id="file-2"/>
						<name></name>
						<rate>
							<timebase>60</timebase>
							<ntsc>TRUE</ntsc>
						</rate>
						<rate>
							<timebase>60</timebase>
							<ntsc>TRUE</ntsc>
						</rate>
						<duration>60</duration>
						<start>3252</start>
						<end>3312</end>
						<in>0</in>
						<out>60</out>
					</clipitem>
					<clipitem frameBlend="FALSE" id="clipitem-telop-362">
						<file id="file-2"/>
						<name></name>
						<rate>
							<timebase>60</timebase>
							<ntsc>TRUE</ntsc>
						</rate>
						<rate>
							<timebase>60</timebase>
							<ntsc>TRUE</ntsc>
						</rate>
						<duration>60</duration>
						<start>3318</start>
						<end>3378</end>
						<in>0</in>
						<out>60</out>
					</clipitem>
					<clipitem frameBlend="FALSE" id="clipitem-telop-369">
						<file id="file-2"/>
						<name></name>
						<rate>
							<timebase>60</timebase>
							<ntsc>TRUE</ntsc>
						</rate>
						<rate>
							<timebase>60</timebase>
							<ntsc>TRUE</ntsc>
						</rate>
						<duration>60</duration>
						<start>3384</start>
						<end>3444</end>
						<in>0</in>
						<out>60</out>
					</clipitem>
					<clipitem frameBlend="FALSE" id="clipitem-telop-376">
						<file id="file-2"/>
						<name></name>
						<rate>
							<timebase>60</timebase>
							<ntsc>TRUE</ntsc>
						</rate>
						<rate>
							<timebase>60</timebase>
							<ntsc>TRUE</ntsc>
						</rate>
						<duration>60</duration>
						<start>3450</start>
						<end>3510</end>
						<in>0</in>
						<out>60</out>
					</clipitem>
					<clipitem frameBlend="FALSE" id="clipitem-telop-382">
						<file id="file-2"/>
						<name></name>
						<rate>
							<timebase>60</timebase>
							<ntsc>TRUE</ntsc>
						</rate>
						<rate>
							<timebase>60</timebase>
							<ntsc>TRUE</ntsc>
						</rate>
						<duration>60</duration>
						<start>3510</start>
						<end>3570</end>
						<in>0</in>
						<out>60</out>
					</clipitem>
					<clipitem frameBlend="FALSE" id="clipitem-telop-388">
						<file id="file-2"/>
						<name></name>
						<rate>
							<timebase>60</timebase>
							<ntsc>TRUE</ntsc>
						</rate>
						<rate>
							<timebase>60</timebase>
							<ntsc>TRUE</ntsc>
						</rate>
						<duration>60</duration>
						<start>3582</start>
						<end>3642</end>
						<in>0</in>
						<out>60</out>
					</clipitem>
					<clipitem frameBlend="FALSE" id="clipitem-telop-396">
						<file id="file-2"/>
						<name></name>
						<rate>
							<timebase>60</timebase>
							<ntsc>TRUE</ntsc>
						</rate>
						<rate>
							<timebase>60</timebase>
							<ntsc>TRUE</ntsc>
						</rate>
						<duration>66</duration>
						<start>3642</start>
						<end>3708</end>
						<in>0</in>
						<out>66</out>
					</clipitem>
					<clipitem frameBlend="FALSE" id="clipitem-telop-402">
						<file id="file-2"/>
						<name></name>
						<rate>
							<timebase>60</timebase>
							<ntsc>TRUE</ntsc>
						</rate>
						<rate>
							<timebase>60</timebase>
							<ntsc>TRUE</ntsc>
						</rate>
						<duration>60</duration>
						<start>3714</start>
						<end>3774</end>
						<in>0</in>
						<out>60</out>
					</clipitem>
					<clipitem frameBlend="FALSE" id="clipitem-telop-413">
						<file id="file-2"/>
						<name></name>
						<rate>
							<timebase>60</timebase>
							<ntsc>TRUE</ntsc>
						</rate>
						<rate>
							<timebase>60</timebase>
							<ntsc>TRUE</ntsc>
						</rate>
						<duration>60</duration>
						<start>3774</start>
						<end>3834</end>
						<in>0</in>
						<out>60</out>
					</clipitem>
					<clipitem frameBlend="FALSE" id="clipitem-telop-420">
						<file id="file-2"/>
						<name></name>
						<rate>
							<timebase>60</timebase>
							<ntsc>TRUE</ntsc>
						</rate>
						<rate>
							<timebase>60</timebase>
							<ntsc>TRUE</ntsc>
						</rate>
						<duration>60</duration>
						<start>3840</start>
						<end>3900</end>
						<in>0</in>
						<out>60</out>
					</clipitem>
					<clipitem frameBlend="FALSE" id="clipitem-telop-429">
						<file id="file-2"/>
						<name></name>
						<rate>
							<timebase>60</timebase>
							<ntsc>TRUE</ntsc>
						</rate>
						<rate>
							<timebase>60</timebase>
							<ntsc>TRUE</ntsc>
						</rate>
						<duration>60</duration>
						<start>3972</start>
						<end>4032</end>
						<in>0</in>
						<out>60</out>
					</clipitem>
					<clipitem frameBlend="FALSE" id="clipitem-telop-434">
						<file id="file-2"/>
						<name></name>
						<rate>
							<timebase>60</timebase>
							<ntsc>TRUE</ntsc>
						</rate>
						<rate>
							<timebase>60</timebase>
							<ntsc>TRUE</ntsc>
						</rate>
						<duration>60</duration>
						<start>4050</start>
						<end>4110</end>
						<in>0</in>
						<out>60</out>
					</clipitem>
					<clipitem frameBlend="FALSE" id="clipitem-telop-440">
						<file id="file-2"/>
						<name></name>
						<rate>
							<timebase>60</timebase>
							<ntsc>TRUE</ntsc>
						</rate>
						<rate>
							<timebase>60</timebase>
							<ntsc>TRUE</ntsc>
						</rate>
						<duration>60</duration>
						<start>4116</start>
						<end>4176</end>
						<in>0</in>
						<out>60</out>
					</clipitem>
					<clipitem frameBlend="FALSE" id="clipitem-telop-444">
						<file id="file-2"/>
						<name></name>
						<rate>
							<timebase>60</timebase>
							<ntsc>TRUE</ntsc>
						</rate>
						<rate>
							<timebase>60</timebase>
							<ntsc>TRUE</ntsc>
						</rate>
						<duration>60</duration>
						<start>4182</start>
						<end>4242</end>
						<in>0</in>
						<out>60</out>
					</clipitem>
					<clipitem frameBlend="FALSE" id="clipitem-telop-451">
						<file id="file-2"/>
						<name></name>
						<rate>
							<timebase>60</timebase>
							<ntsc>TRUE</ntsc>
						</rate>
						<rate>
							<timebase>60</timebase>
							<ntsc>TRUE</ntsc>
						</rate>
						<duration>60</duration>
						<start>4260</start>
						<end>4320</end>
						<in>0</in>
						<out>60</out>
					</clipitem>
					<clipitem frameBlend="FALSE" id="clipitem-telop-460">
						<file id="file-2"/>
						<name></name>
						<rate>
							<timebase>60</timebase>
							<ntsc>TRUE</ntsc>
						</rate>
						<rate>
							<timebase>60</timebase>
							<ntsc>TRUE</ntsc>
						</rate>
						<duration>66</duration>
						<start>4320</start>
						<end>4386</end>
						<in>0</in>
						<out>66</out>
					</clipitem>
					<clipitem frameBlend="FALSE" id="clipitem-telop-467">
						<file id="file-2"/>
						<name></name>
						<rate>
							<timebase>60</timebase>
							<ntsc>TRUE</ntsc>
						</rate>
						<rate>
							<timebase>60</timebase>
							<ntsc>TRUE</ntsc>
						</rate>
						<duration>60</duration>
						<start>4392</start>
						<end>4452</end>
						<in>0</in>
						<out>60</out>
					</clipitem>
					<clipitem frameBlend="FALSE" id="clipitem-telop-476">
						<file id="file-2"/>
						<name></name>
						<rate>
							<timebase>60</timebase>
							<ntsc>TRUE</ntsc>
						</rate>
						<rate>
							<timebase>60</timebase>
							<ntsc>TRUE</ntsc>
						</rate>
						<duration>60</duration>
						<start>4452</start>
						<end>4512</end>
						<in>0</in>
						<out>60</out>
					</clipitem>
					<clipitem frameBlend="FALSE" id="clipitem-telop-488">
						<file id="file-2"/>
						<name></name>
						<rate>
							<timebase>60</timebase>
							<ntsc>TRUE</ntsc>
						</rate>
						<rate>
							<timebase>60</timebase>
							<ntsc>TRUE</ntsc>
						</rate>
						<duration>60</duration>
						<start>4536</start>
						<end>4596</end>
						<in>0</in>
						<out>60</out>
					</clipitem>
					<clipitem frameBlend="FALSE" id="clipitem-telop-495">
						<file id="file-2"/>
						<name></name>
						<rate>
							<timebase>60</timebase>
							<ntsc>TRUE</ntsc>
						</rate>
						<rate>
							<timebase>60</timebase>
							<ntsc>TRUE</ntsc>
						</rate>
						<duration>60</duration>
						<start>4596</start>
						<end>4656</end>
						<in>0</in>
						<out>60</out>
					</clipitem>
					<clipitem frameBlend="FALSE" id="clipitem-telop-501">
						<file id="file-2"/>
						<name></name>
						<rate>
							<timebase>60</timebase>
							<ntsc>TRUE</ntsc>
						</rate>
						<rate>
							<timebase>60</timebase>
							<ntsc>TRUE</ntsc>
						</rate>
						<duration>66</duration>
						<start>4656</start>
						<end>4722</end>
						<in>0</in>
						<out>66</out>
					</clipitem>
					<clipitem frameBlend="FALSE" id="clipitem-telop-508">
						<file id="file-2"/>
						<name></name>
						<rate>
							<timebase>60</timebase>
							<ntsc>TRUE</ntsc>
						</rate>
						<rate>
							<timebase>60</timebase>
							<ntsc>TRUE</ntsc>
						</rate>
						<duration>60</duration>
						<start>4728</start>
						<end>4788</end>
						<in>0</in>
						<out>60</out>
					</clipitem>
					<clipitem frameBlend="FALSE" id="clipitem-telop-514">
						<file id="file-2"/>
						<name></name>
						<rate>
							<timebase>60</timebase>
							<ntsc>TRUE</ntsc>
						</rate>
						<rate>
							<timebase>60</timebase>
							<ntsc>TRUE</ntsc>
						</rate>
						<duration>60</duration>
						<start>4794</start>
						<end>4854</end>
						<in>0</in>
						<out>60</out>
					</clipitem>
					<clipitem frameBlend="FALSE" id="clipitem-telop-526">
						<file id="file-2"/>
						<name></name>
						<rate>
							<timebase>60</timebase>
							<ntsc>TRUE</ntsc>
						</rate>
						<rate>
							<timebase>60</timebase>
							<ntsc>TRUE</ntsc>
						</rate>
						<duration>60</duration>
						<start>4890</start>
						<end>4950</end>
						<in>0</in>
						<out>60</out>
					</clipitem>
					<clipitem frameBlend="FALSE" id="clipitem-telop-533">
						<file id="file-2"/>
						<name></name>
						<rate>
							<timebase>60</timebase>
							<ntsc>TRUE</ntsc>
						</rate>
						<rate>
							<timebase>60</timebase>
							<ntsc>TRUE</ntsc>
						</rate>
						<duration>60</duration>
						<start>4968</start>
						<end>5028</end>
						<in>0</in>
						<out>60</out>
					</clipitem>
					<clipitem frameBlend="FALSE" id="clipitem-telop-538">
						<file id="file-2"/>
						<name></name>
						<rate>
							<timebase>60</timebase>
							<ntsc>TRUE</ntsc>
						</rate>
						<rate>
							<timebase>60</timebase>
							<ntsc>TRUE</ntsc>
						</rate>
						<duration>60</duration>
						<start>5028</start>
						<end>5088</end>
						<in>0</in>
						<out>60</out>
					</clipitem>
					<clipitem frameBlend="FALSE" id="clipitem-telop-546">
						<file id="file-2"/>
						<name></name>
						<rate>
							<timebase>60</timebase>
							<ntsc>TRUE</ntsc>
						</rate>
						<rate>
							<timebase>60</timebase>
							<ntsc>TRUE</ntsc>
						</rate>
						<duration>180</duration>
						<start>5100</start>
						<end>5280</end>
						<in>0</in>
						<out>180</out>
					</clipitem>
					<clipitem frameBlend="FALSE" id="clipitem-telop-566">
						<file id="file-2"/>
						<name> </name>
						<rate>
							<timebase>60</timebase>
							<ntsc>TRUE</ntsc>
						</rate>
						<rate>
							<timebase>60</timebase>
							<ntsc>TRUE</ntsc>
						</rate>
						<duration>240</duration>
						<start>5280</start>
						<end>5520</end>
						<in>0</in>
						<out>240</out>
					</clipitem>
					<clipitem frameBlend="FALSE" id="clipitem-telop-586">
						<file id="file-2"/>
						<name></name>
						<rate>
							<timebase>60</timebase>
							<ntsc>TRUE</ntsc>
						</rate>
						<rate>
							<timebase>60</timebase>
							<ntsc>TRUE</ntsc>
						</rate>
						<duration>180</duration>
						<start>5520</start>
						<end>5700</end>
						<in>0</in>
						<out>180</out>
					</clipitem>
					<clipitem frameBlend="FALSE" id="clipitem-telop-611">
						<file id="file-2"/>
						<name></name>
						<rate>
							<timebase>60</timebase>
							<ntsc>TRUE</ntsc>
						</rate>
						<rate>
							<timebase>60</timebase>
							<ntsc>TRUE</ntsc>
						</rate>
						<duration>60</duration>
						<start>5700</start>
						<end>5760</end>
						<in>0</in>
						<out>60</out>
					</clipitem>
					<clipitem frameBlend="FALSE" id="clipitem-telop-616">
						<file id="file-2"/>
						<name></name>
						<rate>
							<timebase>60</timebase>
							<ntsc>TRUE</ntsc>
						</rate>
						<rate>
							<timebase>60</timebase>
							<ntsc>TRUE</ntsc>
						</rate>
						<duration>60</duration>
						<start>5766</start>
						<end>5826</end>
						<in>0</in>
						<out>60</out>
					</clipitem>
					<clipitem frameBlend="FALSE" id="clipitem-telop-629">
						<file id="file-2"/>
						<name></name>
						<rate>
							<timebase>60</timebase>
							<ntsc>TRUE</ntsc>
						</rate>
						<rate>
							<timebase>60</timebase>
							<ntsc>TRUE</ntsc>
						</rate>
						<duration>60</duration>
						<start>5832</start>
						<end>5892</end>
						<in>0</in>
						<out>60</out>
					</clipitem>
					<clipitem frameBlend="FALSE" id="clipitem-telop-633">
						<file id="file-2"/>
						<name></name>
						<rate>
							<timebase>60</timebase>
							<ntsc>TRUE</ntsc>
						</rate>
						<rate>
							<timebase>60</timebase>
							<ntsc>TRUE</ntsc>
						</rate>
						<duration>60</duration>
						<start>5898</start>
						<end>5958</end>
						<in>0</in>
						<out>60</out>
					</clipitem>
					<clipitem frameBlend="FALSE" id="clipitem-telop-641">
						<file id="file-2"/>
						<name></name>
						<rate>
							<timebase>60</timebase>
							<ntsc>TRUE</ntsc>
						</rate>
						<rate>
							<timebase>60</timebase>
							<ntsc>TRUE</ntsc>
						</rate>
						<duration>60</duration>
						<start>5970</start>
						<end>6030</end>
						<in>0</in>
						<out>60</out>
					</clipitem>
					<clipitem frameBlend="FALSE" id="clipitem-telop-650">
						<file id="file-2"/>
						<name></name>
						<rate>
							<timebase>60</timebase>
							<ntsc>TRUE</ntsc>
						</rate>
						<rate>
							<timebase>60</timebase>
							<ntsc>TRUE</ntsc>
						</rate>
						<duration>66</duration>
						<start>6030</start>
						<end>6096</end>
						<in>0</in>
						<out>66</out>
					</clipitem>
					<clipitem frameBlend="FALSE" id="clipitem-telop-658">
						<file id="file-2"/>
						<name></name>
						<rate>
							<timebase>60</timebase>
							<ntsc>TRUE</ntsc>
						</rate>
						<rate>
							<timebase>60</timebase>
							<ntsc>TRUE</ntsc>
						</rate>
						<duration>60</duration>
						<start>6102</start>
						<end>6162</end>
						<in>0</in>
						<out>60</out>
					</clipitem>
					<clipitem frameBlend="FALSE" id="clipitem-telop-666">
						<file id="file-2"/>
						<name></name>
						<rate>
							<timebase>60</timebase>
							<ntsc>TRUE</ntsc>
						</rate>
						<rate>
							<timebase>60</timebase>
							<ntsc>TRUE</ntsc>
						</rate>
						<duration>60</duration>
						<start>6168</start>
						<end>6228</end>
						<in>0</in>
						<out>60</out>
					</clipitem>
					<clipitem frameBlend="FALSE" id="clipitem-telop-673">
						<file id="file-2"/>
						<name></name>
						<rate>
							<timebase>60</timebase>
							<ntsc>TRUE</ntsc>
						</rate>
						<rate>
							<timebase>60</timebase>
							<ntsc>TRUE</ntsc>
						</rate>
						<duration>60</duration>
						<start>6228</start>
						<end>6288</end>
						<in>0</in>
						<out>60</out>
					</clipitem>
					<clipitem frameBlend="FALSE" id="clipitem-telop-683">
						<file id="file-2"/>
						<name></name>
						<rate>
							<timebase>60</timebase>
							<ntsc>TRUE</ntsc>
						</rate>
						<rate>
							<timebase>60</timebase>
							<ntsc>TRUE</ntsc>
						</rate>
						<duration>60</duration>
						<start>6288</start>
						<end>6348</end>
						<in>0</in>
						<out>60</out>
					</clipitem>
					<clipitem frameBlend="FALSE" id="clipitem-telop-693">
						<file id="file-2"/>
						<name></name>
						<rate>
							<timebase>60</timebase>
							<ntsc>TRUE</ntsc>
						</rate>
						<rate>
							<timebase>60</timebase>
							<ntsc>TRUE</ntsc>
						</rate>
						<duration>60</duration>
						<start>6354</start>
						<end>6414</end>
						<in>0</in>
						<out>60</out>
					</clipitem>
					<clipitem frameBlend="FALSE" id="clipitem-telop-701">
						<file id="file-2"/>
						<name></name>
						<rate>
							<timebase>60</timebase>
							<ntsc>TRUE</ntsc>
						</rate>
						<rate>
							<timebase>60</timebase>
							<ntsc>TRUE</ntsc>
						</rate>
						<duration>66</duration>
						<start>6414</start>
						<end>6480</end>
						<in>0</in>
						<out>66</out>
					</clipitem>
					<clipitem frameBlend="FALSE" id="clipitem-telop-708">
						<file id="file-2"/>
						<name></name>
						<rate>
							<timebase>60</timebase>
							<ntsc>TRUE</ntsc>
						</rate>
						<rate>
							<timebase>60</timebase>
							<ntsc>TRUE</ntsc>
						</rate>
						<duration>60</duration>
						<start>6480</start>
						<end>6540</end>
						<in>0</in>
						<out>60</out>
					</clipitem>
					<clipitem frameBlend="FALSE" id="clipitem-telop-712">
						<file id="file-2"/>
						<name></name>
						<rate>
							<timebase>60</timebase>
							<ntsc>TRUE</ntsc>
						</rate>
						<rate>
							<timebase>60</timebase>
							<ntsc>TRUE</ntsc>
						</rate>
						<duration>60</duration>
						<start>6546</start>
						<end>6606</end>
						<in>0</in>
						<out>60</out>
					</clipitem>
					<clipitem frameBlend="FALSE" id="clipitem-telop-719">
						<file id="file-2"/>
						<name></name>
						<rate>
							<timebase>60</timebase>
							<ntsc>TRUE</ntsc>
						</rate>
						<rate>
							<timebase>60</timebase>
							<ntsc>TRUE</ntsc>
						</rate>
						<duration>60</duration>
						<start>6606</start>
						<end>6666</end>
						<in>0</in>
						<out>60</out>
					</clipitem>
					<clipitem frameBlend="FALSE" id="clipitem-telop-724">
						<file id="file-2"/>
						<name></name>
						<rate>
							<timebase>60</timebase>
							<ntsc>TRUE</ntsc>
						</rate>
						<rate>
							<timebase>60</timebase>
							<ntsc>TRUE</ntsc>
						</rate>
						<duration>60</duration>
						<start>6708</start>
						<end>6768</end>
						<in>0</in>
						<out>60</out>
					</clipitem>
					<clipitem frameBlend="FALSE" id="clipitem-telop-729">
						<file id="file-2"/>
						<name></name>
						<rate>
							<timebase>60</timebase>
							<ntsc>TRUE</ntsc>
						</rate>
						<rate>
							<timebase>60</timebase>
							<ntsc>TRUE</ntsc>
						</rate>
						<duration>60</duration>
						<start>6768</start>
						<end>6828</end>
						<in>0</in>
						<out>60</out>
					</clipitem>
					<clipitem frameBlend="FALSE" id="clipitem-telop-735">
						<file id="file-2"/>
						<name></name>
						<rate>
							<timebase>60</timebase>
							<ntsc>TRUE</ntsc>
						</rate>
						<rate>
							<timebase>60</timebase>
							<ntsc>TRUE</ntsc>
						</rate>
						<duration>66</duration>
						<start>6834</start>
						<end>6900</end>
						<in>0</in>
						<out>66</out>
					</clipitem>
					<clipitem frameBlend="FALSE" id="clipitem-telop-741">
						<file id="file-2"/>
						<name></name>
						<rate>
							<timebase>60</timebase>
							<ntsc>TRUE</ntsc>
						</rate>
						<rate>
							<timebase>60</timebase>
							<ntsc>TRUE</ntsc>
						</rate>
						<duration>60</duration>
						<start>6900</start>
						<end>6960</end>
						<in>0</in>
						<out>60</out>
					</clipitem>
					<clipitem frameBlend="FALSE" id="clipitem-telop-749">
						<file id="file-2"/>
						<name></name>
						<rate>
							<timebase>60</timebase>
							<ntsc>TRUE</ntsc>
						</rate>
						<rate>
							<timebase>60</timebase>
							<ntsc>TRUE</ntsc>
						</rate>
						<duration>60</duration>
						<start>6960</start>
						<end>7020</end>
						<in>0</in>
						<out>60</out>
					</clipitem>
					<clipitem frameBlend="FALSE" id="clipitem-telop-755">
						<file id="file-2"/>
						<name></name>
						<rate>
							<timebase>60</timebase>
							<ntsc>TRUE</ntsc>
						</rate>
						<rate>
							<timebase>60</timebase>
							<ntsc>TRUE</ntsc>
						</rate>
						<duration>24</duration>
						<start>7038</start>
						<end>7062</end>
						<in>0</in>
						<out>24</out>
					</clipitem>
				</track>
				<track>
					<clipitem frameBlend="FALSE" id="clipitem-telop-4">
						<file id="file-2"/>
						<name></name>
						<rate>
							<timebase>60</timebase>
							<ntsc>TRUE</ntsc>
						</rate>
						<rate>
							<timebase>60</timebase>
							<ntsc>TRUE</ntsc>
						</rate>
						<duration>60</duration>
						<start>60</start>
						<end>120</end>
						<in>0</in>
						<out>60</out>
					</clipitem>
					<clipitem frameBlend="FALSE" id="clipitem-telop-12">
						<file id="file-2"/>
						<name></name>
						<rate>
							<timebase>60</timebase>
							<ntsc>TRUE</ntsc>
						</rate>
						<rate>
							<timebase>60</timebase>
							<ntsc>TRUE</ntsc>
						</rate>
						<duration>60</duration>
						<start>132</start>
						<end>192</end>
						<in>0</in>
						<out>60</out>
					</clipitem>
					<clipitem frameBlend="FALSE" id="clipitem-telop-19">
						<file id="file-2"/>
						<name></name>
						<rate>
							<timebase>60</timebase>
							<ntsc>TRUE</ntsc>
						</rate>
						<rate>
							<timebase>60</timebase>
							<ntsc>TRUE</ntsc>
						</rate>
						<duration>66</duration>
						<start>234</start>
						<end>300</end>
						<in>0</in>
						<out>66</out>
					</clipitem>
					<clipitem frameBlend="FALSE" id="clipitem-telop-27">
						<file id="file-2"/>
						<name></name>
						<rate>
							<timebase>60</timebase>
							<ntsc>TRUE</ntsc>
						</rate>
						<rate>
							<timebase>60</timebase>
							<ntsc>TRUE</ntsc>
						</rate>
						<duration>60</duration>
						<start>300</start>
						<end>360</end>
						<in>0</in>
						<out>60</out>
					</clipitem>
					<clipitem frameBlend="FALSE" id="clipitem-telop-35">
						<file id="file-2"/>
						<name></name>
						<rate>
							<timebase>60</timebase>
							<ntsc>TRUE</ntsc>
						</rate>
						<rate>
							<timebase>60</timebase>
							<ntsc>TRUE</ntsc>
						</rate>
						<duration>60</duration>
						<start>366</start>
						<end>426</end>
						<in>0</in>
						<out>60</out>
					</clipitem>
					<clipitem frameBlend="FALSE" id="clipitem-telop-41">
						<file id="file-2"/>
						<name></name>
						<rate>
							<timebase>60</timebase>
							<ntsc>TRUE</ntsc>
						</rate>
						<rate>
							<timebase>60</timebase>
							<ntsc>TRUE</ntsc>
						</rate>
						<duration>60</duration>
						<start>438</start>
						<end>498</end>
						<in>0</in>
						<out>60</out>
					</clipitem>
					<clipitem frameBlend="FALSE" id="clipitem-telop-48">
						<file id="file-2"/>
						<name></name>
						<rate>
							<timebase>60</timebase>
							<ntsc>TRUE</ntsc>
						</rate>
						<rate>
							<timebase>60</timebase>
							<ntsc>TRUE</ntsc>
						</rate>
						<duration>60</duration>
						<start>498</start>
						<end>558</end>
						<in>0</in>
						<out>60</out>
					</clipitem>
					<clipitem frameBlend="FALSE" id="clipitem-telop-57">
						<file id="file-2"/>
						<name></name>
						<rate>
							<timebase>60</timebase>
							<ntsc>TRUE</ntsc>
						</rate>
						<rate>
							<timebase>60</timebase>
							<ntsc>TRUE</ntsc>
						</rate>
						<duration>60</duration>
						<start>564</start>
						<end>624</end>
						<in>0</in>
						<out>60</out>
					</clipitem>
					<clipitem frameBlend="FALSE" id="clipitem-telop-66">
						<file id="file-2"/>
						<name></name>
						<rate>
							<timebase>60</timebase>
							<ntsc>TRUE</ntsc>
						</rate>
						<rate>
							<timebase>60</timebase>
							<ntsc>TRUE</ntsc>
						</rate>
						<duration>60</duration>
						<start>624</start>
						<end>684</end>
						<in>0</in>
						<out>60</out>
					</clipitem>
					<clipitem frameBlend="FALSE" id="clipitem-telop-75">
						<file id="file-2"/>
						<name></name>
						<rate>
							<timebase>60</timebase>
							<ntsc>TRUE</ntsc>
						</rate>
						<rate>
							<timebase>60</timebase>
							<ntsc>TRUE</ntsc>
						</rate>
						<duration>66</duration>
						<start>690</start>
						<end>756</end>
						<in>0</in>
						<out>66</out>
					</clipitem>
					<clipitem frameBlend="FALSE" id="clipitem-telop-83">
						<file id="file-2"/>
						<name></name>
						<rate>
							<timebase>60</timebase>
							<ntsc>TRUE</ntsc>
						</rate>
						<rate>
							<timebase>60</timebase>
							<ntsc>TRUE</ntsc>
						</rate>
						<duration>60</duration>
						<start>762</start>
						<end>822</end>
						<in>0</in>
						<out>60</out>
					</clipitem>
					<clipitem frameBlend="FALSE" id="clipitem-telop-91">
						<file id="file-2"/>
						<name></name>
						<rate>
							<timebase>60</timebase>
							<ntsc>TRUE</ntsc>
						</rate>
						<rate>
							<timebase>60</timebase>
							<ntsc>TRUE</ntsc>
						</rate>
						<duration>66</duration>
						<start>822</start>
						<end>888</end>
						<in>0</in>
						<out>66</out>
					</clipitem>
					<clipitem frameBlend="FALSE" id="clipitem-telop-102">
						<file id="file-2"/>
						<name></name>
						<rate>
							<timebase>60</timebase>
							<ntsc>TRUE</ntsc>
						</rate>
						<rate>
							<timebase>60</timebase>
							<ntsc>TRUE</ntsc>
						</rate>
						<duration>60</duration>
						<start>888</start>
						<end>948</end>
						<in>0</in>
						<out>60</out>
					</clipitem>
					<clipitem frameBlend="FALSE" id="clipitem-telop-112">
						<file id="file-2"/>
						<name></name>
						<rate>
							<timebase>60</timebase>
							<ntsc>TRUE</ntsc>
						</rate>
						<rate>
							<timebase>60</timebase>
							<ntsc>TRUE</ntsc>
						</rate>
						<duration>60</duration>
						<start>948</start>
						<end>1008</end>
						<in>0</in>
						<out>60</out>
					</clipitem>
					<clipitem frameBlend="FALSE" id="clipitem-telop-124">
						<file id="file-2"/>
						<name></name>
						<rate>
							<timebase>60</timebase>
							<ntsc>TRUE</ntsc>
						</rate>
						<rate>
							<timebase>60</timebase>
							<ntsc>TRUE</ntsc>
						</rate>
						<duration>60</duration>
						<start>1008</start>
						<end>1068</end>
						<in>0</in>
						<out>60</out>
					</clipitem>
					<clipitem frameBlend="FALSE" id="clipitem-telop-132">
						<file id="file-2"/>
						<name></name>
						<rate>
							<timebase>60</timebase>
							<ntsc>TRUE</ntsc>
						</rate>
						<rate>
							<timebase>60</timebase>
							<ntsc>TRUE</ntsc>
						</rate>
						<duration>60</duration>
						<start>1068</start>
						<end>1128</end>
						<in>0</in>
						<out>60</out>
					</clipitem>
					<clipitem frameBlend="FALSE" id="clipitem-telop-139">
						<file id="file-2"/>
						<name></name>
						<rate>
							<timebase>60</timebase>
							<ntsc>TRUE</ntsc>
						</rate>
						<rate>
							<timebase>60</timebase>
							<ntsc>TRUE</ntsc>
						</rate>
						<duration>60</duration>
						<start>1152</start>
						<end>1212</end>
						<in>0</in>
						<out>60</out>
					</clipitem>
					<clipitem frameBlend="FALSE" id="clipitem-telop-146">
						<file id="file-2"/>
						<name></name>
						<rate>
							<timebase>60</timebase>
							<ntsc>TRUE</ntsc>
						</rate>
						<rate>
							<timebase>60</timebase>
							<ntsc>TRUE</ntsc>
						</rate>
						<duration>60</duration>
						<start>1212</start>
						<end>1272</end>
						<in>0</in>
						<out>60</out>
					</clipitem>
					<clipitem frameBlend="FALSE" id="clipitem-telop-153">
						<file id="file-2"/>
						<name></name>
						<rate>
							<timebase>60</timebase>
							<ntsc>TRUE</ntsc>
						</rate>
						<rate>
							<timebase>60</timebase>
							<ntsc>TRUE</ntsc>
						</rate>
						<duration>66</duration>
						<start>1278</start>
						<end>1344</end>
						<in>0</in>
						<out>66</out>
					</clipitem>
					<clipitem frameBlend="FALSE" id="clipitem-telop-159">
						<file id="file-2"/>
						<name></name>
						<rate>
							<timebase>60</timebase>
							<ntsc>TRUE</ntsc>
						</rate>
						<rate>
							<timebase>60</timebase>
							<ntsc>TRUE</ntsc>
						</rate>
						<duration>60</duration>
						<start>1344</start>
						<end>1404</end>
						<in>0</in>
						<out>60</out>
					</clipitem>
					<clipitem frameBlend="FALSE" id="clipitem-telop-168">
						<file id="file-2"/>
						<name></name>
						<rate>
							<timebase>60</timebase>
							<ntsc>TRUE</ntsc>
						</rate>
						<rate>
							<timebase>60</timebase>
							<ntsc>TRUE</ntsc>
						</rate>
						<duration>66</duration>
						<start>1416</start>
						<end>1482</end>
						<in>0</in>
						<out>66</out>
					</clipitem>
					<clipitem frameBlend="FALSE" id="clipitem-telop-177">
						<file id="file-2"/>
						<name></name>
						<rate>
							<timebase>60</timebase>
							<ntsc>TRUE</ntsc>
						</rate>
						<rate>
							<timebase>60</timebase>
							<ntsc>TRUE</ntsc>
						</rate>
						<duration>66</duration>
						<start>1482</start>
						<end>1548</end>
						<in>0</in>
						<out>66</out>
					</clipitem>
					<clipitem frameBlend="FALSE" id="clipitem-telop-183">
						<file id="file-2"/>
						<name></name>
						<rate>
							<timebase>60</timebase>
							<ntsc>TRUE</ntsc>
						</rate>
						<rate>
							<timebase>60</timebase>
							<ntsc>TRUE</ntsc>
						</rate>
						<duration>60</duration>
						<start>1548</start>
						<end>1608</end>
						<in>0</in>
						<out>60</out>
					</clipitem>
					<clipitem frameBlend="FALSE" id="clipitem-telop-189">
						<file id="file-2"/>
						<name></name>
						<rate>
							<timebase>60</timebase>
							<ntsc>TRUE</ntsc>
						</rate>
						<rate>
							<timebase>60</timebase>
							<ntsc>TRUE</ntsc>
						</rate>
						<duration>60</duration>
						<start>1608</start>
						<end>1668</end>
						<in>0</in>
						<out>60</out>
					</clipitem>
					<clipitem frameBlend="FALSE" id="clipitem-telop-197">
						<file id="file-2"/>
						<name></name>
						<rate>
							<timebase>60</timebase>
							<ntsc>TRUE</ntsc>
						</rate>
						<rate>
							<timebase>60</timebase>
							<ntsc>TRUE</ntsc>
						</rate>
						<duration>60</duration>
						<start>1674</start>
						<end>1734</end>
						<in>0</in>
						<out>60</out>
					</clipitem>
					<clipitem frameBlend="FALSE" id="clipitem-telop-203">
						<file id="file-2"/>
						<name></name>
						<rate>
							<timebase>60</timebase>
							<ntsc>TRUE</ntsc>
						</rate>
						<rate>
							<timebase>60</timebase>
							<ntsc>TRUE</ntsc>
						</rate>
						<duration>60</duration>
						<start>1734</start>
						<end>1794</end>
						<in>0</in>
						<out>60</out>
					</clipitem>
					<clipitem frameBlend="FALSE" id="clipitem-telop-212">
						<file id="file-2"/>
						<name></name>
						<rate>
							<timebase>60</timebase>
							<ntsc>TRUE</ntsc>
						</rate>
						<rate>
							<timebase>60</timebase>
							<ntsc>TRUE</ntsc>
						</rate>
						<duration>60</duration>
						<start>1794</start>
						<end>1854</end>
						<in>0</in>
						<out>60</out>
					</clipitem>
					<clipitem frameBlend="FALSE" id="clipitem-telop-222">
						<file id="file-2"/>
						<name></name>
						<rate>
							<timebase>60</timebase>
							<ntsc>TRUE</ntsc>
						</rate>
						<rate>
							<timebase>60</timebase>
							<ntsc>TRUE</ntsc>
						</rate>
						<duration>60</duration>
						<start>1884</start>
						<end>1944</end>
						<in>0</in>
						<out>60</out>
					</clipitem>
					<clipitem frameBlend="FALSE" id="clipitem-telop-231">
						<file id="file-2"/>
						<name></name>
						<rate>
							<timebase>60</timebase>
							<ntsc>TRUE</ntsc>
						</rate>
						<rate>
							<timebase>60</timebase>
							<ntsc>TRUE</ntsc>
						</rate>
						<duration>60</duration>
						<start>1944</start>
						<end>2004</end>
						<in>0</in>
						<out>60</out>
					</clipitem>
					<clipitem frameBlend="FALSE" id="clipitem-telop-240">
						<file id="file-2"/>
						<name></name>
						<rate>
							<timebase>60</timebase>
							<ntsc>TRUE</ntsc>
						</rate>
						<rate>
							<timebase>60</timebase>
							<ntsc>TRUE</ntsc>
						</rate>
						<duration>66</duration>
						<start>2040</start>
						<end>2106</end>
						<in>0</in>
						<out>66</out>
					</clipitem>
					<clipitem frameBlend="FALSE" id="clipitem-telop-246">
						<file id="file-2"/>
						<name></name>
						<rate>
							<timebase>60</timebase>
							<ntsc>TRUE</ntsc>
						</rate>
						<rate>
							<timebase>60</timebase>
							<ntsc>TRUE</ntsc>
						</rate>
						<duration>60</duration>
						<start>2166</start>
						<end>2226</end>
						<in>0</in>
						<out>60</out>
					</clipitem>
					<clipitem frameBlend="FALSE" id="clipitem-telop-255">
						<file id="file-2"/>
						<name></name>
						<rate>
							<timebase>60</timebase>
							<ntsc>TRUE</ntsc>
						</rate>
						<rate>
							<timebase>60</timebase>
							<ntsc>TRUE</ntsc>
						</rate>
						<duration>60</duration>
						<start>2310</start>
						<end>2370</end>
						<in>0</in>
						<out>60</out>
					</clipitem>
					<clipitem frameBlend="FALSE" id="clipitem-telop-262">
						<file id="file-2"/>
						<name></name>
						<rate>
							<timebase>60</timebase>
							<ntsc>TRUE</ntsc>
						</rate>
						<rate>
							<timebase>60</timebase>
							<ntsc>TRUE</ntsc>
						</rate>
						<duration>66</duration>
						<start>2400</start>
						<end>2466</end>
						<in>0</in>
						<out>66</out>
					</clipitem>
					<clipitem frameBlend="FALSE" id="clipitem-telop-272">
						<file id="file-2"/>
						<name></name>
						<rate>
							<timebase>60</timebase>
							<ntsc>TRUE</ntsc>
						</rate>
						<rate>
							<timebase>60</timebase>
							<ntsc>TRUE</ntsc>
						</rate>
						<duration>66</duration>
						<start>2514</start>
						<end>2580</end>
						<in>0</in>
						<out>66</out>
					</clipitem>
					<clipitem frameBlend="FALSE" id="clipitem-telop-280">
						<file id="file-2"/>
						<name></name>
						<rate>
							<timebase>60</timebase>
							<ntsc>TRUE</ntsc>
						</rate>
						<rate>
							<timebase>60</timebase>
							<ntsc>TRUE</ntsc>
						</rate>
						<duration>60</duration>
						<start>2592</start>
						<end>2652</end>
						<in>0</in>
						<out>60</out>
					</clipitem>
					<clipitem frameBlend="FALSE" id="clipitem-telop-289">
						<file id="file-2"/>
						<name></name>
						<rate>
							<timebase>60</timebase>
							<ntsc>TRUE</ntsc>
						</rate>
						<rate>
							<timebase>60</timebase>
							<ntsc>TRUE</ntsc>
						</rate>
						<duration>60</duration>
						<start>2670</start>
						<end>2730</end>
						<in>0</in>
						<out>60</out>
					</clipitem>
					<clipitem frameBlend="FALSE" id="clipitem-telop-295">
						<file id="file-2"/>
						<name></name>
						<rate>
							<timebase>60</timebase>
							<ntsc>TRUE</ntsc>
						</rate>
						<rate>
							<timebase>60</timebase>
							<ntsc>TRUE</ntsc>
						</rate>
						<duration>60</duration>
						<start>2730</start>
						<end>2790</end>
						<in>0</in>
						<out>60</out>
					</clipitem>
					<clipitem frameBlend="FALSE" id="clipitem-telop-304">
						<file id="file-2"/>
						<name></name>
						<rate>
							<timebase>60</timebase>
							<ntsc>TRUE</ntsc>
						</rate>
						<rate>
							<timebase>60</timebase>
							<ntsc>TRUE</ntsc>
						</rate>
						<duration>60</duration>
						<start>2796</start>
						<end>2856</end>
						<in>0</in>
						<out>60</out>
					</clipitem>
					<clipitem frameBlend="FALSE" id="clipitem-telop-312">
						<file id="file-2"/>
						<name></name>
						<rate>
							<timebase>60</timebase>
							<ntsc>TRUE</ntsc>
						</rate>
						<rate>
							<timebase>60</timebase>
							<ntsc>TRUE</ntsc>
						</rate>
						<duration>60</duration>
						<start>2868</start>
						<end>2928</end>
						<in>0</in>
						<out>60</out>
					</clipitem>
					<clipitem frameBlend="FALSE" id="clipitem-telop-318">
						<file id="file-2"/>
						<name></name>
						<rate>
							<timebase>60</timebase>
							<ntsc>TRUE</ntsc>
						</rate>
						<rate>
							<timebase>60</timebase>
							<ntsc>TRUE</ntsc>
						</rate>
						<duration>60</duration>
						<start>2940</start>
						<end>3000</end>
						<in>0</in>
						<out>60</out>
					</clipitem>
					<clipitem frameBlend="FALSE" id="clipitem-telop-325">
						<file id="file-2"/>
						<name></name>
						<rate>
							<timebase>60</timebase>
							<ntsc>TRUE</ntsc>
						</rate>
						<rate>
							<timebase>60</timebase>
							<ntsc>TRUE</ntsc>
						</rate>
						<duration>60</duration>
						<start>3000</start>
						<end>3060</end>
						<in>0</in>
						<out>60</out>
					</clipitem>
					<clipitem frameBlend="FALSE" id="clipitem-telop-333">
						<file id="file-2"/>
						<name></name>
						<rate>
							<timebase>60</timebase>
							<ntsc>TRUE</ntsc>
						</rate>
						<rate>
							<timebase>60</timebase>
							<ntsc>TRUE</ntsc>
						</rate>
						<duration>60</duration>
						<start>3060</start>
						<end>3120</end>
						<in>0</in>
						<out>60</out>
					</clipitem>
					<clipitem frameBlend="FALSE" id="clipitem-telop-336">
						<file id="file-2"/>
						<name></name>
						<rate>
							<timebase>60</timebase>
							<ntsc>TRUE</ntsc>
						</rate>
						<rate>
							<timebase>60</timebase>
							<ntsc>TRUE</ntsc>
						</rate>
						<duration>60</duration>
						<start>3120</start>
						<end>3180</end>
						<in>0</in>
						<out>60</out>
					</clipitem>
					<clipitem frameBlend="FALSE" id="clipitem-telop-345">
						<file id="file-2"/>
						<name></name>
						<rate>
							<timebase>60</timebase>
							<ntsc>TRUE</ntsc>
						</rate>
						<rate>
							<timebase>60</timebase>
							<ntsc>TRUE</ntsc>
						</rate>
						<duration>66</duration>
						<start>3186</start>
						<end>3252</end>
						<in>0</in>
						<out>66</out>
					</clipitem>
					<clipitem frameBlend="FALSE" id="clipitem-telop-356">
						<file id="file-2"/>
						<name></name>
						<rate>
							<timebase>60</timebase>
							<ntsc>TRUE</ntsc>
						</rate>
						<rate>
							<timebase>60</timebase>
							<ntsc>TRUE</ntsc>
						</rate>
						<duration>60</duration>
						<start>3264</start>
						<end>3324</end>
						<in>0</in>
						<out>60</out>
					</clipitem>
					<clipitem frameBlend="FALSE" id="clipitem-telop-363">
						<file id="file-2"/>
						<name></name>
						<rate>
							<timebase>60</timebase>
							<ntsc>TRUE</ntsc>
						</rate>
						<rate>
							<timebase>60</timebase>
							<ntsc>TRUE</ntsc>
						</rate>
						<duration>60</duration>
						<start>3330</start>
						<end>3390</end>
						<in>0</in>
						<out>60</out>
					</clipitem>
					<clipitem frameBlend="FALSE" id="clipitem-telop-370">
						<file id="file-2"/>
						<name></name>
						<rate>
							<timebase>60</timebase>
							<ntsc>TRUE</ntsc>
						</rate>
						<rate>
							<timebase>60</timebase>
							<ntsc>TRUE</ntsc>
						</rate>
						<duration>60</duration>
						<start>3390</start>
						<end>3450</end>
						<in>0</in>
						<out>60</out>
					</clipitem>
					<clipitem frameBlend="FALSE" id="clipitem-telop-377">
						<file id="file-2"/>
						<name></name>
						<rate>
							<timebase>60</timebase>
							<ntsc>TRUE</ntsc>
						</rate>
						<rate>
							<timebase>60</timebase>
							<ntsc>TRUE</ntsc>
						</rate>
						<duration>60</duration>
						<start>3456</start>
						<end>3516</end>
						<in>0</in>
						<out>60</out>
					</clipitem>
					<clipitem frameBlend="FALSE" id="clipitem-telop-383">
						<file id="file-2"/>
						<name></name>
						<rate>
							<timebase>60</timebase>
							<ntsc>TRUE</ntsc>
						</rate>
						<rate>
							<timebase>60</timebase>
							<ntsc>TRUE</ntsc>
						</rate>
						<duration>60</duration>
						<start>3522</start>
						<end>3582</end>
						<in>0</in>
						<out>60</out>
					</clipitem>
					<clipitem frameBlend="FALSE" id="clipitem-telop-389">
						<file id="file-2"/>
						<name></name>
						<rate>
							<timebase>60</timebase>
							<ntsc>TRUE</ntsc>
						</rate>
						<rate>
							<timebase>60</timebase>
							<ntsc>TRUE</ntsc>
						</rate>
						<duration>60</duration>
						<start>3606</start>
						<end>3666</end>
						<in>0</in>
						<out>60</out>
					</clipitem>
					<clipitem frameBlend="FALSE" id="clipitem-telop-398">
						<file id="file-2"/>
						<name></name>
						<rate>
							<timebase>60</timebase>
							<ntsc>TRUE</ntsc>
						</rate>
						<rate>
							<timebase>60</timebase>
							<ntsc>TRUE</ntsc>
						</rate>
						<duration>66</duration>
						<start>3672</start>
						<end>3738</end>
						<in>0</in>
						<out>66</out>
					</clipitem>
					<clipitem frameBlend="FALSE" id="clipitem-telop-407">
						<file id="file-2"/>
						<name></name>
						<rate>
							<timebase>60</timebase>
							<ntsc>TRUE</ntsc>
						</rate>
						<rate>
							<timebase>60</timebase>
							<ntsc>TRUE</ntsc>
						</rate>
						<duration>60</duration>
						<start>3738</start>
						<end>3798</end>
						<in>0</in>
						<out>60</out>
					</clipitem>
					<clipitem frameBlend="FALSE" id="clipitem-telop-415">
						<file id="file-2"/>
						<name></name>
						<rate>
							<timebase>60</timebase>
							<ntsc>TRUE</ntsc>
						</rate>
						<rate>
							<timebase>60</timebase>
							<ntsc>TRUE</ntsc>
						</rate>
						<duration>60</duration>
						<start>3798</start>
						<end>3858</end>
						<in>0</in>
						<out>60</out>
					</clipitem>
					<clipitem frameBlend="FALSE" id="clipitem-telop-423">
						<file id="file-2"/>
						<name></name>
						<rate>
							<timebase>60</timebase>
							<ntsc>TRUE</ntsc>
						</rate>
						<rate>
							<timebase>60</timebase>
							<ntsc>TRUE</ntsc>
						</rate>
						<duration>60</duration>
						<start>3858</start>
						<end>3918</end>
						<in>0</in>
						<out>60</out>
					</clipitem>
					<clipitem frameBlend="FALSE" id="clipitem-telop-430">
						<file id="file-2"/>
						<name></name>
						<rate>
							<timebase>60</timebase>
							<ntsc>TRUE</ntsc>
						</rate>
						<rate>
							<timebase>60</timebase>
							<ntsc>TRUE</ntsc>
						</rate>
						<duration>66</duration>
						<start>3984</start>
						<end>4050</end>
						<in>0</in>
						<out>66</out>
					</clipitem>
					<clipitem frameBlend="FALSE" id="clipitem-telop-435">
						<file id="file-2"/>
						<name></name>
						<rate>
							<timebase>60</timebase>
							<ntsc>TRUE</ntsc>
						</rate>
						<rate>
							<timebase>60</timebase>
							<ntsc>TRUE</ntsc>
						</rate>
						<duration>60</duration>
						<start>4062</start>
						<end>4122</end>
						<in>0</in>
						<out>60</out>
					</clipitem>
					<clipitem frameBlend="FALSE" id="clipitem-telop-442">
						<file id="file-2"/>
						<name></name>
						<rate>
							<timebase>60</timebase>
							<ntsc>TRUE</ntsc>
						</rate>
						<rate>
							<timebase>60</timebase>
							<ntsc>TRUE</ntsc>
						</rate>
						<duration>60</duration>
						<start>4140</start>
						<end>4200</end>
						<in>0</in>
						<out>60</out>
					</clipitem>
					<clipitem frameBlend="FALSE" id="clipitem-telop-445">
						<file id="file-2"/>
						<name></name>
						<rate>
							<timebase>60</timebase>
							<ntsc>TRUE</ntsc>
						</rate>
						<rate>
							<timebase>60</timebase>
							<ntsc>TRUE</ntsc>
						</rate>
						<duration>60</duration>
						<start>4212</start>
						<end>4272</end>
						<in>0</in>
						<out>60</out>
					</clipitem>
					<clipitem frameBlend="FALSE" id="clipitem-telop-453">
						<file id="file-2"/>
						<name></name>
						<rate>
							<timebase>60</timebase>
							<ntsc>TRUE</ntsc>
						</rate>
						<rate>
							<timebase>60</timebase>
							<ntsc>TRUE</ntsc>
						</rate>
						<duration>60</duration>
						<start>4272</start>
						<end>4332</end>
						<in>0</in>
						<out>60</out>
					</clipitem>
					<clipitem frameBlend="FALSE" id="clipitem-telop-461">
						<file id="file-2"/>
						<name></name>
						<rate>
							<timebase>60</timebase>
							<ntsc>TRUE</ntsc>
						</rate>
						<rate>
							<timebase>60</timebase>
							<ntsc>TRUE</ntsc>
						</rate>
						<duration>60</duration>
						<start>4338</start>
						<end>4398</end>
						<in>0</in>
						<out>60</out>
					</clipitem>
					<clipitem frameBlend="FALSE" id="clipitem-telop-468">
						<file id="file-2"/>
						<name></name>
						<rate>
							<timebase>60</timebase>
							<ntsc>TRUE</ntsc>
						</rate>
						<rate>
							<timebase>60</timebase>
							<ntsc>TRUE</ntsc>
						</rate>
						<duration>60</duration>
						<start>4398</start>
						<end>4458</end>
						<in>0</in>
						<out>60</out>
					</clipitem>
					<clipitem frameBlend="FALSE" id="clipitem-telop-478">
						<file id="file-2"/>
						<name></name>
						<rate>
							<timebase>60</timebase>
							<ntsc>TRUE</ntsc>
						</rate>
						<rate>
							<timebase>60</timebase>
							<ntsc>TRUE</ntsc>
						</rate>
						<duration>60</duration>
						<start>4458</start>
						<end>4518</end>
						<in>0</in>
						<out>60</out>
					</clipitem>
					<clipitem frameBlend="FALSE" id="clipitem-telop-489">
						<file id="file-2"/>
						<name></name>
						<rate>
							<timebase>60</timebase>
							<ntsc>TRUE</ntsc>
						</rate>
						<rate>
							<timebase>60</timebase>
							<ntsc>TRUE</ntsc>
						</rate>
						<duration>60</duration>
						<start>4548</start>
						<end>4608</end>
						<in>0</in>
						<out>60</out>
					</clipitem>
					<clipitem frameBlend="FALSE" id="clipitem-telop-497">
						<file id="file-2"/>
						<name></name>
						<rate>
							<timebase>60</timebase>
							<ntsc>TRUE</ntsc>
						</rate>
						<rate>
							<timebase>60</timebase>
							<ntsc>TRUE</ntsc>
						</rate>
						<duration>60</duration>
						<start>4608</start>
						<end>4668</end>
						<in>0</in>
						<out>60</out>
					</clipitem>
					<clipitem frameBlend="FALSE" id="clipitem-telop-502">
						<file id="file-2"/>
						<name></name>
						<rate>
							<timebase>60</timebase>
							<ntsc>TRUE</ntsc>
						</rate>
						<rate>
							<timebase>60</timebase>
							<ntsc>TRUE</ntsc>
						</rate>
						<duration>60</duration>
						<start>4668</start>
						<end>4728</end>
						<in>0</in>
						<out>60</out>
					</clipitem>
					<clipitem frameBlend="FALSE" id="clipitem-telop-509">
						<file id="file-2"/>
						<name></name>
						<rate>
							<timebase>60</timebase>
							<ntsc>TRUE</ntsc>
						</rate>
						<rate>
							<timebase>60</timebase>
							<ntsc>TRUE</ntsc>
						</rate>
						<duration>60</duration>
						<start>4728</start>
						<end>4788</end>
						<in>0</in>
						<out>60</out>
					</clipitem>
					<clipitem frameBlend="FALSE" id="clipitem-telop-515">
						<file id="file-2"/>
						<name></name>
						<rate>
							<timebase>60</timebase>
							<ntsc>TRUE</ntsc>
						</rate>
						<rate>
							<timebase>60</timebase>
							<ntsc>TRUE</ntsc>
						</rate>
						<duration>66</duration>
						<start>4800</start>
						<end>4866</end>
						<in>0</in>
						<out>66</out>
					</clipitem>
					<clipitem frameBlend="FALSE" id="clipitem-telop-527">
						<file id="file-2"/>
						<name></name>
						<rate>
							<timebase>60</timebase>
							<ntsc>TRUE</ntsc>
						</rate>
						<rate>
							<timebase>60</timebase>
							<ntsc>TRUE</ntsc>
						</rate>
						<duration>60</duration>
						<start>4914</start>
						<end>4974</end>
						<in>0</in>
						<out>60</out>
					</clipitem>
					<clipitem frameBlend="FALSE" id="clipitem-telop-534">
						<file id="file-2"/>
						<name></name>
						<rate>
							<timebase>60</timebase>
							<ntsc>TRUE</ntsc>
						</rate>
						<rate>
							<timebase>60</timebase>
							<ntsc>TRUE</ntsc>
						</rate>
						<duration>66</duration>
						<start>4986</start>
						<end>5052</end>
						<in>0</in>
						<out>66</out>
					</clipitem>
					<clipitem frameBlend="FALSE" id="clipitem-telop-544">
						<file id="file-2"/>
						<name></name>
						<rate>
							<timebase>60</timebase>
							<ntsc>TRUE</ntsc>
						</rate>
						<rate>
							<timebase>60</timebase>
							<ntsc>TRUE</ntsc>
						</rate>
						<duration>60</duration>
						<start>5058</start>
						<end>5118</end>
						<in>0</in>
						<out>60</out>
					</clipitem>
					<clipitem frameBlend="FALSE" id="clipitem-telop-552">
						<file id="file-2"/>
						<name></name>
						<rate>
							<timebase>60</timebase>
							<ntsc>TRUE</ntsc>
						</rate>
						<rate>
							<timebase>60</timebase>
							<ntsc>TRUE</ntsc>
						</rate>
						<duration>60</duration>
						<start>5130</start>
						<end>5190</end>
						<in>0</in>
						<out>60</out>
					</clipitem>
					<clipitem frameBlend="FALSE" id="clipitem-telop-558">
						<file id="file-2"/>
						<name></name>
						<rate>
							<timebase>60</timebase>
							<ntsc>TRUE</ntsc>
						</rate>
						<rate>
							<timebase>60</timebase>
							<ntsc>TRUE</ntsc>
						</rate>
						<duration>60</duration>
						<start>5202</start>
						<end>5262</end>
						<in>0</in>
						<out>60</out>
					</clipitem>
					<clipitem frameBlend="FALSE" id="clipitem-telop-563">
						<file id="file-2"/>
						<name></name>
						<rate>
							<timebase>60</timebase>
							<ntsc>TRUE</ntsc>
						</rate>
						<rate>
							<timebase>60</timebase>
							<ntsc>TRUE</ntsc>
						</rate>
						<duration>60</duration>
						<start>5262</start>
						<end>5322</end>
						<in>0</in>
						<out>60</out>
					</clipitem>
					<clipitem frameBlend="FALSE" id="clipitem-telop-573">
						<file id="file-2"/>
						<name></name>
						<rate>
							<timebase>60</timebase>
							<ntsc>TRUE</ntsc>
						</rate>
						<rate>
							<timebase>60</timebase>
							<ntsc>TRUE</ntsc>
						</rate>
						<duration>60</duration>
						<start>5322</start>
						<end>5382</end>
						<in>0</in>
						<out>60</out>
					</clipitem>
					<clipitem frameBlend="FALSE" id="clipitem-telop-579">
						<file id="file-2"/>
						<name></name>
						<rate>
							<timebase>60</timebase>
							<ntsc>TRUE</ntsc>
						</rate>
						<rate>
							<timebase>60</timebase>
							<ntsc>TRUE</ntsc>
						</rate>
						<duration>60</duration>
						<start>5442</start>
						<end>5502</end>
						<in>0</in>
						<out>60</out>
					</clipitem>
					<clipitem frameBlend="FALSE" id="clipitem-telop-583">
						<file id="file-2"/>
						<name></name>
						<rate>
							<timebase>60</timebase>
							<ntsc>TRUE</ntsc>
						</rate>
						<rate>
							<timebase>60</timebase>
							<ntsc>TRUE</ntsc>
						</rate>
						<duration>66</duration>
						<start>5502</start>
						<end>5568</end>
						<in>0</in>
						<out>66</out>
					</clipitem>
					<clipitem frameBlend="FALSE" id="clipitem-telop-595">
						<file id="file-2"/>
						<name></name>
						<rate>
							<timebase>60</timebase>
							<ntsc>TRUE</ntsc>
						</rate>
						<rate>
							<timebase>60</timebase>
							<ntsc>TRUE</ntsc>
						</rate>
						<duration>66</duration>
						<start>5568</start>
						<end>5634</end>
						<in>0</in>
						<out>66</out>
					</clipitem>
					<clipitem frameBlend="FALSE" id="clipitem-telop-605">
						<file id="file-2"/>
						<name></name>
						<rate>
							<timebase>60</timebase>
							<ntsc>TRUE</ntsc>
						</rate>
						<rate>
							<timebase>60</timebase>
							<ntsc>TRUE</ntsc>
						</rate>
						<duration>60</duration>
						<start>5634</start>
						<end>5694</end>
						<in>0</in>
						<out>60</out>
					</clipitem>
					<clipitem frameBlend="FALSE" id="clipitem-telop-612">
						<file id="file-2"/>
						<name></name>
						<rate>
							<timebase>60</timebase>
							<ntsc>TRUE</ntsc>
						</rate>
						<rate>
							<timebase>60</timebase>
							<ntsc>TRUE</ntsc>
						</rate>
						<duration>66</duration>
						<start>5718</start>
						<end>5784</end>
						<in>0</in>
						<out>66</out>
					</clipitem>
					<clipitem frameBlend="FALSE" id="clipitem-telop-619">
						<file id="file-2"/>
						<name></name>
						<rate>
							<timebase>60</timebase>
							<ntsc>TRUE</ntsc>
						</rate>
						<rate>
							<timebase>60</timebase>
							<ntsc>TRUE</ntsc>
						</rate>
						<duration>60</duration>
						<start>5784</start>
						<end>5844</end>
						<in>0</in>
						<out>60</out>
					</clipitem>
					<clipitem frameBlend="FALSE" id="clipitem-telop-634">
						<file id="file-2"/>
						<name></name>
						<rate>
							<timebase>60</timebase>
							<ntsc>TRUE</ntsc>
						</rate>
						<rate>
							<timebase>60</timebase>
							<ntsc>TRUE</ntsc>
						</rate>
						<duration>60</duration>
						<start>5898</start>
						<end>5958</end>
						<in>0</in>
						<out>60</out>
					</clipitem>
					<clipitem frameBlend="FALSE" id="clipitem-telop-642">
						<file id="file-2"/>
						<name></name>
						<rate>
							<timebase>60</timebase>
							<ntsc>TRUE</ntsc>
						</rate>
						<rate>
							<timebase>60</timebase>
							<ntsc>TRUE</ntsc>
						</rate>
						<duration>60</duration>
						<start>5982</start>
						<end>6042</end>
						<in>0</in>
						<out>60</out>
					</clipitem>
					<clipitem frameBlend="FALSE" id="clipitem-telop-652">
						<file id="file-2"/>
						<name></name>
						<rate>
							<timebase>60</timebase>
							<ntsc>TRUE</ntsc>
						</rate>
						<rate>
							<timebase>60</timebase>
							<ntsc>TRUE</ntsc>
						</rate>
						<duration>60</duration>
						<start>6042</start>
						<end>6102</end>
						<in>0</in>
						<out>60</out>
					</clipitem>
					<clipitem frameBlend="FALSE" id="clipitem-telop-659">
						<file id="file-2"/>
						<name></name>
						<rate>
							<timebase>60</timebase>
							<ntsc>TRUE</ntsc>
						</rate>
						<rate>
							<timebase>60</timebase>
							<ntsc>TRUE</ntsc>
						</rate>
						<duration>60</duration>
						<start>6108</start>
						<end>6168</end>
						<in>0</in>
						<out>60</out>
					</clipitem>
					<clipitem frameBlend="FALSE" id="clipitem-telop-667">
						<file id="file-2"/>
						<name></name>
						<rate>
							<timebase>60</timebase>
							<ntsc>TRUE</ntsc>
						</rate>
						<rate>
							<timebase>60</timebase>
							<ntsc>TRUE</ntsc>
						</rate>
						<duration>60</duration>
						<start>6174</start>
						<end>6234</end>
						<in>0</in>
						<out>60</out>
					</clipitem>
					<clipitem frameBlend="FALSE" id="clipitem-telop-674">
						<file id="file-2"/>
						<name></name>
						<rate>
							<timebase>60</timebase>
							<ntsc>TRUE</ntsc>
						</rate>
						<rate>
							<timebase>60</timebase>
							<ntsc>TRUE</ntsc>
						</rate>
						<duration>60</duration>
						<start>6234</start>
						<end>6294</end>
						<in>0</in>
						<out>60</out>
					</clipitem>
					<clipitem frameBlend="FALSE" id="clipitem-telop-684">
						<file id="file-2"/>
						<name></name>
						<rate>
							<timebase>60</timebase>
							<ntsc>TRUE</ntsc>
						</rate>
						<rate>
							<timebase>60</timebase>
							<ntsc>TRUE</ntsc>
						</rate>
						<duration>66</duration>
						<start>6294</start>
						<end>6360</end>
						<in>0</in>
						<out>66</out>
					</clipitem>
					<clipitem frameBlend="FALSE" id="clipitem-telop-694">
						<file id="file-2"/>
						<name></name>
						<rate>
							<timebase>60</timebase>
							<ntsc>TRUE</ntsc>
						</rate>
						<rate>
							<timebase>60</timebase>
							<ntsc>TRUE</ntsc>
						</rate>
						<duration>60</duration>
						<start>6360</start>
						<end>6420</end>
						<in>0</in>
						<out>60</out>
					</clipitem>
					<clipitem frameBlend="FALSE" id="clipitem-telop-703">
						<file id="file-2"/>
						<name></name>
						<rate>
							<timebase>60</timebase>
							<ntsc>TRUE</ntsc>
						</rate>
						<rate>
							<timebase>60</timebase>
							<ntsc>TRUE</ntsc>
						</rate>
						<duration>66</duration>
						<start>6444</start>
						<end>6510</end>
						<in>0</in>
						<out>66</out>
					</clipitem>
					<clipitem frameBlend="FALSE" id="clipitem-telop-710">
						<file id="file-2"/>
						<name></name>
						<rate>
							<timebase>60</timebase>
							<ntsc>TRUE</ntsc>
						</rate>
						<rate>
							<timebase>60</timebase>
							<ntsc>TRUE</ntsc>
						</rate>
						<duration>60</duration>
						<start>6534</start>
						<end>6594</end>
						<in>0</in>
						<out>60</out>
					</clipitem>
					<clipitem frameBlend="FALSE" id="clipitem-telop-720">
						<file id="file-2"/>
						<name></name>
						<rate>
							<timebase>60</timebase>
							<ntsc>TRUE</ntsc>
						</rate>
						<rate>
							<timebase>60</timebase>
							<ntsc>TRUE</ntsc>
						</rate>
						<duration>66</duration>
						<start>6618</start>
						<end>6684</end>
						<in>0</in>
						<out>66</out>
					</clipitem>
					<clipitem frameBlend="FALSE" id="clipitem-telop-726">
						<file id="file-2"/>
						<name></name>
						<rate>
							<timebase>60</timebase>
							<ntsc>TRUE</ntsc>
						</rate>
						<rate>
							<timebase>60</timebase>
							<ntsc>TRUE</ntsc>
						</rate>
						<duration>60</duration>
						<start>6726</start>
						<end>6786</end>
						<in>0</in>
						<out>60</out>
					</clipitem>
					<clipitem frameBlend="FALSE" id="clipitem-telop-731">
						<file id="file-2"/>
						<name></name>
						<rate>
							<timebase>60</timebase>
							<ntsc>TRUE</ntsc>
						</rate>
						<rate>
							<timebase>60</timebase>
							<ntsc>TRUE</ntsc>
						</rate>
						<duration>60</duration>
						<start>6786</start>
						<end>6846</end>
						<in>0</in>
						<out>60</out>
					</clipitem>
					<clipitem frameBlend="FALSE" id="clipitem-telop-736">
						<file id="file-2"/>
						<name></name>
						<rate>
							<timebase>60</timebase>
							<ntsc>TRUE</ntsc>
						</rate>
						<rate>
							<timebase>60</timebase>
							<ntsc>TRUE</ntsc>
						</rate>
						<duration>60</duration>
						<start>6846</start>
						<end>6906</end>
						<in>0</in>
						<out>60</out>
					</clipitem>
					<clipitem frameBlend="FALSE" id="clipitem-telop-742">
						<file id="file-2"/>
						<name></name>
						<rate>
							<timebase>60</timebase>
							<ntsc>TRUE</ntsc>
						</rate>
						<rate>
							<timebase>60</timebase>
							<ntsc>TRUE</ntsc>
						</rate>
						<duration>60</duration>
						<start>6912</start>
						<end>6972</end>
						<in>0</in>
						<out>60</out>
					</clipitem>
					<clipitem frameBlend="FALSE" id="clipitem-telop-750">
						<file id="file-2"/>
						<name></name>
						<rate>
							<timebase>60</timebase>
							<ntsc>TRUE</ntsc>
						</rate>
						<rate>
							<timebase>60</timebase>
							<ntsc>TRUE</ntsc>
						</rate>
						<duration>60</duration>
						<start>6972</start>
						<end>7032</end>
						<in>0</in>
						<out>60</out>
					</clipitem>
					<clipitem frameBlend="FALSE" id="clipitem-telop-756">
						<file id="file-2"/>
						<name></name>
						<rate>
							<timebase>60</timebase>
							<ntsc>TRUE</ntsc>
						</rate>
						<rate>
							<timebase>60</timebase>
							<ntsc>TRUE</ntsc>
						</rate>
						<duration>24</duration>
						<start>7038</start>
						<end>7062</end>
						<in>0</in>
						<out>24</out>
					</clipitem>
				</track>
				<track>
					<clipitem frameBlend="FALSE" id="clipitem-telop-5">
						<file id="file-2"/>
						<name></name>
						<rate>
							<timebase>60</timebase>
							<ntsc>TRUE</ntsc>
						</rate>
						<rate>
							<timebase>60</timebase>
							<ntsc>TRUE</ntsc>
						</rate>
						<duration>60</duration>
						<start>66</start>
						<end>126</end>
						<in>0</in>
						<out>60</out>
					</clipitem>
					<clipitem frameBlend="FALSE" id="clipitem-telop-13">
						<file id="file-2"/>
						<name></name>
						<rate>
							<timebase>60</timebase>
							<ntsc>TRUE</ntsc>
						</rate>
						<rate>
							<timebase>60</timebase>
							<ntsc>TRUE</ntsc>
						</rate>
						<duration>60</duration>
						<start>138</start>
						<end>198</end>
						<in>0</in>
						<out>60</out>
					</clipitem>
					<clipitem frameBlend="FALSE" id="clipitem-telop-20">
						<file id="file-2"/>
						<name></name>
						<rate>
							<timebase>60</timebase>
							<ntsc>TRUE</ntsc>
						</rate>
						<rate>
							<timebase>60</timebase>
							<ntsc>TRUE</ntsc>
						</rate>
						<duration>60</duration>
						<start>240</start>
						<end>300</end>
						<in>0</in>
						<out>60</out>
					</clipitem>
					<clipitem frameBlend="FALSE" id="clipitem-telop-28">
						<file id="file-2"/>
						<name></name>
						<rate>
							<timebase>60</timebase>
							<ntsc>TRUE</ntsc>
						</rate>
						<rate>
							<timebase>60</timebase>
							<ntsc>TRUE</ntsc>
						</rate>
						<duration>60</duration>
						<start>300</start>
						<end>360</end>
						<in>0</in>
						<out>60</out>
					</clipitem>
					<clipitem frameBlend="FALSE" id="clipitem-telop-36">
						<file id="file-2"/>
						<name></name>
						<rate>
							<timebase>60</timebase>
							<ntsc>TRUE</ntsc>
						</rate>
						<rate>
							<timebase>60</timebase>
							<ntsc>TRUE</ntsc>
						</rate>
						<duration>66</duration>
						<start>378</start>
						<end>444</end>
						<in>0</in>
						<out>66</out>
					</clipitem>
					<clipitem frameBlend="FALSE" id="clipitem-telop-42">
						<file id="file-2"/>
						<name></name>
						<rate>
							<timebase>60</timebase>
							<ntsc>TRUE</ntsc>
						</rate>
						<rate>
							<timebase>60</timebase>
							<ntsc>TRUE</ntsc>
						</rate>
						<duration>60</duration>
						<start>444</start>
						<end>504</end>
						<in>0</in>
						<out>60</out>
					</clipitem>
					<clipitem frameBlend="FALSE" id="clipitem-telop-49">
						<file id="file-2"/>
						<name></name>
						<rate>
							<timebase>60</timebase>
							<ntsc>TRUE</ntsc>
						</rate>
						<rate>
							<timebase>60</timebase>
							<ntsc>TRUE</ntsc>
						</rate>
						<duration>60</duration>
						<start>504</start>
						<end>564</end>
						<in>0</in>
						<out>60</out>
					</clipitem>
					<clipitem frameBlend="FALSE" id="clipitem-telop-58">
						<file id="file-2"/>
						<name></name>
						<rate>
							<timebase>60</timebase>
							<ntsc>TRUE</ntsc>
						</rate>
						<rate>
							<timebase>60</timebase>
							<ntsc>TRUE</ntsc>
						</rate>
						<duration>60</duration>
						<start>576</start>
						<end>636</end>
						<in>0</in>
						<out>60</out>
					</clipitem>
					<clipitem frameBlend="FALSE" id="clipitem-telop-67">
						<file id="file-2"/>
						<name></name>
						<rate>
							<timebase>60</timebase>
							<ntsc>TRUE</ntsc>
						</rate>
						<rate>
							<timebase>60</timebase>
							<ntsc>TRUE</ntsc>
						</rate>
						<duration>66</duration>
						<start>636</start>
						<end>702</end>
						<in>0</in>
						<out>66</out>
					</clipitem>
					<clipitem frameBlend="FALSE" id="clipitem-telop-76">
						<file id="file-2"/>
						<name></name>
						<rate>
							<timebase>60</timebase>
							<ntsc>TRUE</ntsc>
						</rate>
						<rate>
							<timebase>60</timebase>
							<ntsc>TRUE</ntsc>
						</rate>
						<duration>60</duration>
						<start>702</start>
						<end>762</end>
						<in>0</in>
						<out>60</out>
					</clipitem>
					<clipitem frameBlend="FALSE" id="clipitem-telop-84">
						<file id="file-2"/>
						<name></name>
						<rate>
							<timebase>60</timebase>
							<ntsc>TRUE</ntsc>
						</rate>
						<rate>
							<timebase>60</timebase>
							<ntsc>TRUE</ntsc>
						</rate>
						<duration>60</duration>
						<start>774</start>
						<end>834</end>
						<in>0</in>
						<out>60</out>
					</clipitem>
					<clipitem frameBlend="FALSE" id="clipitem-telop-93">
						<file id="file-2"/>
						<name></name>
						<rate>
							<timebase>60</timebase>
							<ntsc>TRUE</ntsc>
						</rate>
						<rate>
							<timebase>60</timebase>
							<ntsc>TRUE</ntsc>
						</rate>
						<duration>60</duration>
						<start>834</start>
						<end>894</end>
						<in>0</in>
						<out>60</out>
					</clipitem>
					<clipitem frameBlend="FALSE" id="clipitem-telop-103">
						<file id="file-2"/>
						<name></name>
						<rate>
							<timebase>60</timebase>
							<ntsc>TRUE</ntsc>
						</rate>
						<rate>
							<timebase>60</timebase>
							<ntsc>TRUE</ntsc>
						</rate>
						<duration>60</duration>
						<start>894</start>
						<end>954</end>
						<in>0</in>
						<out>60</out>
					</clipitem>
					<clipitem frameBlend="FALSE" id="clipitem-telop-113">
						<file id="file-2"/>
						<name></name>
						<rate>
							<timebase>60</timebase>
							<ntsc>TRUE</ntsc>
						</rate>
						<rate>
							<timebase>60</timebase>
							<ntsc>TRUE</ntsc>
						</rate>
						<duration>60</duration>
						<start>954</start>
						<end>1014</end>
						<in>0</in>
						<out>60</out>
					</clipitem>
					<clipitem frameBlend="FALSE" id="clipitem-telop-125">
						<file id="file-2"/>
						<name></name>
						<rate>
							<timebase>60</timebase>
							<ntsc>TRUE</ntsc>
						</rate>
						<rate>
							<timebase>60</timebase>
							<ntsc>TRUE</ntsc>
						</rate>
						<duration>60</duration>
						<start>1020</start>
						<end>1080</end>
						<in>0</in>
						<out>60</out>
					</clipitem>
					<clipitem frameBlend="FALSE" id="clipitem-telop-135">
						<file id="file-2"/>
						<name></name>
						<rate>
							<timebase>60</timebase>
							<ntsc>TRUE</ntsc>
						</rate>
						<rate>
							<timebase>60</timebase>
							<ntsc>TRUE</ntsc>
						</rate>
						<duration>60</duration>
						<start>1086</start>
						<end>1146</end>
						<in>0</in>
						<out>60</out>
					</clipitem>
					<clipitem frameBlend="FALSE" id="clipitem-telop-140">
						<file id="file-2"/>
						<name></name>
						<rate>
							<timebase>60</timebase>
							<ntsc>TRUE</ntsc>
						</rate>
						<rate>
							<timebase>60</timebase>
							<ntsc>TRUE</ntsc>
						</rate>
						<duration>60</duration>
						<start>1152</start>
						<end>1212</end>
						<in>0</in>
						<out>60</out>
					</clipitem>
					<clipitem frameBlend="FALSE" id="clipitem-telop-147">
						<file id="file-2"/>
						<name></name>
						<rate>
							<timebase>60</timebase>
							<ntsc>TRUE</ntsc>
						</rate>
						<rate>
							<timebase>60</timebase>
							<ntsc>TRUE</ntsc>
						</rate>
						<duration>60</duration>
						<start>1218</start>
						<end>1278</end>
						<in>0</in>
						<out>60</out>
					</clipitem>
					<clipitem frameBlend="FALSE" id="clipitem-telop-154">
						<file id="file-2"/>
						<name></name>
						<rate>
							<timebase>60</timebase>
							<ntsc>TRUE</ntsc>
						</rate>
						<rate>
							<timebase>60</timebase>
							<ntsc>TRUE</ntsc>
						</rate>
						<duration>60</duration>
						<start>1290</start>
						<end>1350</end>
						<in>0</in>
						<out>60</out>
					</clipitem>
					<clipitem frameBlend="FALSE" id="clipitem-telop-160">
						<file id="file-2"/>
						<name></name>
						<rate>
							<timebase>60</timebase>
							<ntsc>TRUE</ntsc>
						</rate>
						<rate>
							<timebase>60</timebase>
							<ntsc>TRUE</ntsc>
						</rate>
						<duration>60</duration>
						<start>1356</start>
						<end>1416</end>
						<in>0</in>
						<out>60</out>
					</clipitem>
					<clipitem frameBlend="FALSE" id="clipitem-telop-169">
						<file id="file-2"/>
						<name></name>
						<rate>
							<timebase>60</timebase>
							<ntsc>TRUE</ntsc>
						</rate>
						<rate>
							<timebase>60</timebase>
							<ntsc>TRUE</ntsc>
						</rate>
						<duration>60</duration>
						<start>1422</start>
						<end>1482</end>
						<in>0</in>
						<out>60</out>
					</clipitem>
					<clipitem frameBlend="FALSE" id="clipitem-telop-178">
						<file id="file-2"/>
						<name></name>
						<rate>
							<timebase>60</timebase>
							<ntsc>TRUE</ntsc>
						</rate>
						<rate>
							<timebase>60</timebase>
							<ntsc>TRUE</ntsc>
						</rate>
						<duration>60</duration>
						<start>1500</start>
						<end>1560</end>
						<in>0</in>
						<out>60</out>
					</clipitem>
					<clipitem frameBlend="FALSE" id="clipitem-telop-185">
						<file id="file-2"/>
						<name></name>
						<rate>
							<timebase>60</timebase>
							<ntsc>TRUE</ntsc>
						</rate>
						<rate>
							<timebase>60</timebase>
							<ntsc>TRUE</ntsc>
						</rate>
						<duration>60</duration>
						<start>1560</start>
						<end>1620</end>
						<in>0</in>
						<out>60</out>
					</clipitem>
					<clipitem frameBlend="FALSE" id="clipitem-telop-191">
						<file id="file-2"/>
						<name></name>
						<rate>
							<timebase>60</timebase>
							<ntsc>TRUE</ntsc>
						</rate>
						<rate>
							<timebase>60</timebase>
							<ntsc>TRUE</ntsc>
						</rate>
						<duration>60</duration>
						<start>1620</start>
						<end>1680</end>
						<in>0</in>
						<out>60</out>
					</clipitem>
					<clipitem frameBlend="FALSE" id="clipitem-telop-199">
						<file id="file-2"/>
						<name></name>
						<rate>
							<timebase>60</timebase>
							<ntsc>TRUE</ntsc>
						</rate>
						<rate>
							<timebase>60</timebase>
							<ntsc>TRUE</ntsc>
						</rate>
						<duration>60</duration>
						<start>1686</start>
						<end>1746</end>
						<in>0</in>
						<out>60</out>
					</clipitem>
					<clipitem frameBlend="FALSE" id="clipitem-telop-206">
						<file id="file-2"/>
						<name></name>
						<rate>
							<timebase>60</timebase>
							<ntsc>TRUE</ntsc>
						</rate>
						<rate>
							<timebase>60</timebase>
							<ntsc>TRUE</ntsc>
						</rate>
						<duration>60</duration>
						<start>1752</start>
						<end>1812</end>
						<in>0</in>
						<out>60</out>
					</clipitem>
					<clipitem frameBlend="FALSE" id="clipitem-telop-214">
						<file id="file-2"/>
						<name></name>
						<rate>
							<timebase>60</timebase>
							<ntsc>TRUE</ntsc>
						</rate>
						<rate>
							<timebase>60</timebase>
							<ntsc>TRUE</ntsc>
						</rate>
						<duration>60</duration>
						<start>1812</start>
						<end>1872</end>
						<in>0</in>
						<out>60</out>
					</clipitem>
					<clipitem frameBlend="FALSE" id="clipitem-telop-223">
						<file id="file-2"/>
						<name></name>
						<rate>
							<timebase>60</timebase>
							<ntsc>TRUE</ntsc>
						</rate>
						<rate>
							<timebase>60</timebase>
							<ntsc>TRUE</ntsc>
						</rate>
						<duration>60</duration>
						<start>1884</start>
						<end>1944</end>
						<in>0</in>
						<out>60</out>
					</clipitem>
					<clipitem frameBlend="FALSE" id="clipitem-telop-232">
						<file id="file-2"/>
						<name></name>
						<rate>
							<timebase>60</timebase>
							<ntsc>TRUE</ntsc>
						</rate>
						<rate>
							<timebase>60</timebase>
							<ntsc>TRUE</ntsc>
						</rate>
						<duration>60</duration>
						<start>1950</start>
						<end>2010</end>
						<in>0</in>
						<out>60</out>
					</clipitem>
					<clipitem frameBlend="FALSE" id="clipitem-telop-241">
						<file id="file-2"/>
						<name></name>
						<rate>
							<timebase>60</timebase>
							<ntsc>TRUE</ntsc>
						</rate>
						<rate>
							<timebase>60</timebase>
							<ntsc>TRUE</ntsc>
						</rate>
						<duration>60</duration>
						<start>2064</start>
						<end>2124</end>
						<in>0</in>
						<out>60</out>
					</clipitem>
					<clipitem frameBlend="FALSE" id="clipitem-telop-247">
						<file id="file-2"/>
						<name></name>
						<rate>
							<timebase>60</timebase>
							<ntsc>TRUE</ntsc>
						</rate>
						<rate>
							<timebase>60</timebase>
							<ntsc>TRUE</ntsc>
						</rate>
						<duration>60</duration>
						<start>2172</start>
						<end>2232</end>
						<in>0</in>
						<out>60</out>
					</clipitem>
					<clipitem frameBlend="FALSE" id="clipitem-telop-256">
						<file id="file-2"/>
						<name></name>
						<rate>
							<timebase>60</timebase>
							<ntsc>TRUE</ntsc>
						</rate>
						<rate>
							<timebase>60</timebase>
							<ntsc>TRUE</ntsc>
						</rate>
						<duration>60</duration>
						<start>2316</start>
						<end>2376</end>
						<in>0</in>
						<out>60</out>
					</clipitem>
					<clipitem frameBlend="FALSE" id="clipitem-telop-263">
						<file id="file-2"/>
						<name></name>
						<rate>
							<timebase>60</timebase>
							<ntsc>TRUE</ntsc>
						</rate>
						<rate>
							<timebase>60</timebase>
							<ntsc>TRUE</ntsc>
						</rate>
						<duration>60</duration>
						<start>2406</start>
						<end>2466</end>
						<in>0</in>
						<out>60</out>
					</clipitem>
					<clipitem frameBlend="FALSE" id="clipitem-telop-273">
						<file id="file-2"/>
						<name></name>
						<rate>
							<timebase>60</timebase>
							<ntsc>TRUE</ntsc>
						</rate>
						<rate>
							<timebase>60</timebase>
							<ntsc>TRUE</ntsc>
						</rate>
						<duration>60</duration>
						<start>2526</start>
						<end>2586</end>
						<in>0</in>
						<out>60</out>
					</clipitem>
					<clipitem frameBlend="FALSE" id="clipitem-telop-281">
						<file id="file-2"/>
						<name></name>
						<rate>
							<timebase>60</timebase>
							<ntsc>TRUE</ntsc>
						</rate>
						<rate>
							<timebase>60</timebase>
							<ntsc>TRUE</ntsc>
						</rate>
						<duration>60</duration>
						<start>2592</start>
						<end>2652</end>
						<in>0</in>
						<out>60</out>
					</clipitem>
					<clipitem frameBlend="FALSE" id="clipitem-telop-290">
						<file id="file-2"/>
						<name></name>
						<rate>
							<timebase>60</timebase>
							<ntsc>TRUE</ntsc>
						</rate>
						<rate>
							<timebase>60</timebase>
							<ntsc>TRUE</ntsc>
						</rate>
						<duration>66</duration>
						<start>2670</start>
						<end>2736</end>
						<in>0</in>
						<out>66</out>
					</clipitem>
					<clipitem frameBlend="FALSE" id="clipitem-telop-296">
						<file id="file-2"/>
						<name></name>
						<rate>
							<timebase>60</timebase>
							<ntsc>TRUE</ntsc>
						</rate>
						<rate>
							<timebase>60</timebase>
							<ntsc>TRUE</ntsc>
						</rate>
						<duration>60</duration>
						<start>2736</start>
						<end>2796</end>
						<in>0</in>
						<out>60</out>
					</clipitem>
					<clipitem frameBlend="FALSE" id="clipitem-telop-305">
						<file id="file-2"/>
						<name></name>
						<rate>
							<timebase>60</timebase>
							<ntsc>TRUE</ntsc>
						</rate>
						<rate>
							<timebase>60</timebase>
							<ntsc>TRUE</ntsc>
						</rate>
						<duration>60</duration>
						<start>2802</start>
						<end>2862</end>
						<in>0</in>
						<out>60</out>
					</clipitem>
					<clipitem frameBlend="FALSE" id="clipitem-telop-315">
						<file id="file-2"/>
						<name></name>
						<rate>
							<timebase>60</timebase>
							<ntsc>TRUE</ntsc>
						</rate>
						<rate>
							<timebase>60</timebase>
							<ntsc>TRUE</ntsc>
						</rate>
						<duration>60</duration>
						<start>2910</start>
						<end>2970</end>
						<in>0</in>
						<out>60</out>
					</clipitem>
					<clipitem frameBlend="FALSE" id="clipitem-telop-323">
						<file id="file-2"/>
						<name></name>
						<rate>
							<timebase>60</timebase>
							<ntsc>TRUE</ntsc>
						</rate>
						<rate>
							<timebase>60</timebase>
							<ntsc>TRUE</ntsc>
						</rate>
						<duration>60</duration>
						<start>2988</start>
						<end>3048</end>
						<in>0</in>
						<out>60</out>
					</clipitem>
					<clipitem frameBlend="FALSE" id="clipitem-telop-337">
						<file id="file-2"/>
						<name></name>
						<rate>
							<timebase>60</timebase>
							<ntsc>TRUE</ntsc>
						</rate>
						<rate>
							<timebase>60</timebase>
							<ntsc>TRUE</ntsc>
						</rate>
						<duration>60</duration>
						<start>3126</start>
						<end>3186</end>
						<in>0</in>
						<out>60</out>
					</clipitem>
					<clipitem frameBlend="FALSE" id="clipitem-telop-346">
						<file id="file-2"/>
						<name></name>
						<rate>
							<timebase>60</timebase>
							<ntsc>TRUE</ntsc>
						</rate>
						<rate>
							<timebase>60</timebase>
							<ntsc>TRUE</ntsc>
						</rate>
						<duration>66</duration>
						<start>3198</start>
						<end>3264</end>
						<in>0</in>
						<out>66</out>
					</clipitem>
					<clipitem frameBlend="FALSE" id="clipitem-telop-357">
						<file id="file-2"/>
						<name></name>
						<rate>
							<timebase>60</timebase>
							<ntsc>TRUE</ntsc>
						</rate>
						<rate>
							<timebase>60</timebase>
							<ntsc>TRUE</ntsc>
						</rate>
						<duration>66</duration>
						<start>3276</start>
						<end>3342</end>
						<in>0</in>
						<out>66</out>
					</clipitem>
					<clipitem frameBlend="FALSE" id="clipitem-telop-365">
						<file id="file-2"/>
						<name></name>
						<rate>
							<timebase>60</timebase>
							<ntsc>TRUE</ntsc>
						</rate>
						<rate>
							<timebase>60</timebase>
							<ntsc>TRUE</ntsc>
						</rate>
						<duration>66</duration>
						<start>3342</start>
						<end>3408</end>
						<in>0</in>
						<out>66</out>
					</clipitem>
					<clipitem frameBlend="FALSE" id="clipitem-telop-373">
						<file id="file-2"/>
						<name></name>
						<rate>
							<timebase>60</timebase>
							<ntsc>TRUE</ntsc>
						</rate>
						<rate>
							<timebase>60</timebase>
							<ntsc>TRUE</ntsc>
						</rate>
						<duration>60</duration>
						<start>3426</start>
						<end>3486</end>
						<in>0</in>
						<out>60</out>
					</clipitem>
					<clipitem frameBlend="FALSE" id="clipitem-telop-385">
						<file id="file-2"/>
						<name></name>
						<rate>
							<timebase>60</timebase>
							<ntsc>TRUE</ntsc>
						</rate>
						<rate>
							<timebase>60</timebase>
							<ntsc>TRUE</ntsc>
						</rate>
						<duration>60</duration>
						<start>3540</start>
						<end>3600</end>
						<in>0</in>
						<out>60</out>
					</clipitem>
					<clipitem frameBlend="FALSE" id="clipitem-telop-390">
						<file id="file-2"/>
						<name></name>
						<rate>
							<timebase>60</timebase>
							<ntsc>TRUE</ntsc>
						</rate>
						<rate>
							<timebase>60</timebase>
							<ntsc>TRUE</ntsc>
						</rate>
						<duration>60</duration>
						<start>3612</start>
						<end>3672</end>
						<in>0</in>
						<out>60</out>
					</clipitem>
					<clipitem frameBlend="FALSE" id="clipitem-telop-399">
						<file id="file-2"/>
						<name></name>
						<rate>
							<timebase>60</timebase>
							<ntsc>TRUE</ntsc>
						</rate>
						<rate>
							<timebase>60</timebase>
							<ntsc>TRUE</ntsc>
						</rate>
						<duration>60</duration>
						<start>3684</start>
						<end>3744</end>
						<in>0</in>
						<out>60</out>
					</clipitem>
					<clipitem frameBlend="FALSE" id="clipitem-telop-408">
						<file id="file-2"/>
						<name></name>
						<rate>
							<timebase>60</timebase>
							<ntsc>TRUE</ntsc>
						</rate>
						<rate>
							<timebase>60</timebase>
							<ntsc>TRUE</ntsc>
						</rate>
						<duration>60</duration>
						<start>3744</start>
						<end>3804</end>
						<in>0</in>
						<out>60</out>
					</clipitem>
					<clipitem frameBlend="FALSE" id="clipitem-telop-416">
						<file id="file-2"/>
						<name></name>
						<rate>
							<timebase>60</timebase>
							<ntsc>TRUE</ntsc>
						</rate>
						<rate>
							<timebase>60</timebase>
							<ntsc>TRUE</ntsc>
						</rate>
						<duration>60</duration>
						<start>3804</start>
						<end>3864</end>
						<in>0</in>
						<out>60</out>
					</clipitem>
					<clipitem frameBlend="FALSE" id="clipitem-telop-424">
						<file id="file-2"/>
						<name></name>
						<rate>
							<timebase>60</timebase>
							<ntsc>TRUE</ntsc>
						</rate>
						<rate>
							<timebase>60</timebase>
							<ntsc>TRUE</ntsc>
						</rate>
						<duration>60</duration>
						<start>3864</start>
						<end>3924</end>
						<in>0</in>
						<out>60</out>
					</clipitem>
					<clipitem frameBlend="FALSE" id="clipitem-telop-432">
						<file id="file-2"/>
						<name> </name>
						<rate>
							<timebase>60</timebase>
							<ntsc>TRUE</ntsc>
						</rate>
						<rate>
							<timebase>60</timebase>
							<ntsc>TRUE</ntsc>
						</rate>
						<duration>120</duration>
						<start>4020</start>
						<end>4140</end>
						<in>0</in>
						<out>120</out>
					</clipitem>
					<clipitem frameBlend="FALSE" id="clipitem-telop-446">
						<file id="file-2"/>
						<name></name>
						<rate>
							<timebase>60</timebase>
							<ntsc>TRUE</ntsc>
						</rate>
						<rate>
							<timebase>60</timebase>
							<ntsc>TRUE</ntsc>
						</rate>
						<duration>66</duration>
						<start>4218</start>
						<end>4284</end>
						<in>0</in>
						<out>66</out>
					</clipitem>
					<clipitem frameBlend="FALSE" id="clipitem-telop-455">
						<file id="file-2"/>
						<name></name>
						<rate>
							<timebase>60</timebase>
							<ntsc>TRUE</ntsc>
						</rate>
						<rate>
							<timebase>60</timebase>
							<ntsc>TRUE</ntsc>
						</rate>
						<duration>60</duration>
						<start>4296</start>
						<end>4356</end>
						<in>0</in>
						<out>60</out>
					</clipitem>
					<clipitem frameBlend="FALSE" id="clipitem-telop-464">
						<file id="file-2"/>
						<name></name>
						<rate>
							<timebase>60</timebase>
							<ntsc>TRUE</ntsc>
						</rate>
						<rate>
							<timebase>60</timebase>
							<ntsc>TRUE</ntsc>
						</rate>
						<duration>60</duration>
						<start>4368</start>
						<end>4428</end>
						<in>0</in>
						<out>60</out>
					</clipitem>
					<clipitem frameBlend="FALSE" id="clipitem-telop-473">
						<file id="file-2"/>
						<name></name>
						<rate>
							<timebase>60</timebase>
							<ntsc>TRUE</ntsc>
						</rate>
						<rate>
							<timebase>60</timebase>
							<ntsc>TRUE</ntsc>
						</rate>
						<duration>60</duration>
						<start>4428</start>
						<end>4488</end>
						<in>0</in>
						<out>60</out>
					</clipitem>
					<clipitem frameBlend="FALSE" id="clipitem-telop-484">
						<file id="file-2"/>
						<name></name>
						<rate>
							<timebase>60</timebase>
							<ntsc>TRUE</ntsc>
						</rate>
						<rate>
							<timebase>60</timebase>
							<ntsc>TRUE</ntsc>
						</rate>
						<duration>66</duration>
						<start>4494</start>
						<end>4560</end>
						<in>0</in>
						<out>66</out>
					</clipitem>
					<clipitem frameBlend="FALSE" id="clipitem-telop-491">
						<file id="file-2"/>
						<name></name>
						<rate>
							<timebase>60</timebase>
							<ntsc>TRUE</ntsc>
						</rate>
						<rate>
							<timebase>60</timebase>
							<ntsc>TRUE</ntsc>
						</rate>
						<duration>60</duration>
						<start>4566</start>
						<end>4626</end>
						<in>0</in>
						<out>60</out>
					</clipitem>
					<clipitem frameBlend="FALSE" id="clipitem-telop-499">
						<file id="file-2"/>
						<name></name>
						<rate>
							<timebase>60</timebase>
							<ntsc>TRUE</ntsc>
						</rate>
						<rate>
							<timebase>60</timebase>
							<ntsc>TRUE</ntsc>
						</rate>
						<duration>66</duration>
						<start>4626</start>
						<end>4692</end>
						<in>0</in>
						<out>66</out>
					</clipitem>
					<clipitem frameBlend="FALSE" id="clipitem-telop-505">
						<file id="file-2"/>
						<name></name>
						<rate>
							<timebase>60</timebase>
							<ntsc>TRUE</ntsc>
						</rate>
						<rate>
							<timebase>60</timebase>
							<ntsc>TRUE</ntsc>
						</rate>
						<duration>60</duration>
						<start>4698</start>
						<end>4758</end>
						<in>0</in>
						<out>60</out>
					</clipitem>
					<clipitem frameBlend="FALSE" id="clipitem-telop-512">
						<file id="file-2"/>
						<name></name>
						<rate>
							<timebase>60</timebase>
							<ntsc>TRUE</ntsc>
						</rate>
						<rate>
							<timebase>60</timebase>
							<ntsc>TRUE</ntsc>
						</rate>
						<duration>60</duration>
						<start>4758</start>
						<end>4818</end>
						<in>0</in>
						<out>60</out>
					</clipitem>
					<clipitem frameBlend="FALSE" id="clipitem-telop-517">
						<file id="file-2"/>
						<name></name>
						<rate>
							<timebase>60</timebase>
							<ntsc>TRUE</ntsc>
						</rate>
						<rate>
							<timebase>60</timebase>
							<ntsc>TRUE</ntsc>
						</rate>
						<duration>60</duration>
						<start>4818</start>
						<end>4878</end>
						<in>0</in>
						<out>60</out>
					</clipitem>
					<clipitem frameBlend="FALSE" id="clipitem-telop-528">
						<file id="file-2"/>
						<name></name>
						<rate>
							<timebase>60</timebase>
							<ntsc>TRUE</ntsc>
						</rate>
						<rate>
							<timebase>60</timebase>
							<ntsc>TRUE</ntsc>
						</rate>
						<duration>180</duration>
						<start>4920</start>
						<end>5100</end>
						<in>0</in>
						<out>180</out>
					</clipitem>
					<clipitem frameBlend="FALSE" id="clipitem-telop-547">
						<file id="file-2"/>
						<name></name>
						<rate>
							<timebase>60</timebase>
							<ntsc>TRUE</ntsc>
						</rate>
						<rate>
							<timebase>60</timebase>
							<ntsc>TRUE</ntsc>
						</rate>
						<duration>60</duration>
						<start>5100</start>
						<end>5160</end>
						<in>0</in>
						<out>60</out>
					</clipitem>
					<clipitem frameBlend="FALSE" id="clipitem-telop-557">
						<file id="file-2"/>
						<name></name>
						<rate>
							<timebase>60</timebase>
							<ntsc>TRUE</ntsc>
						</rate>
						<rate>
							<timebase>60</timebase>
							<ntsc>TRUE</ntsc>
						</rate>
						<duration>60</duration>
						<start>5184</start>
						<end>5244</end>
						<in>0</in>
						<out>60</out>
					</clipitem>
					<clipitem frameBlend="FALSE" id="clipitem-telop-562">
						<file id="file-2"/>
						<name></name>
						<rate>
							<timebase>60</timebase>
							<ntsc>TRUE</ntsc>
						</rate>
						<rate>
							<timebase>60</timebase>
							<ntsc>TRUE</ntsc>
						</rate>
						<duration>60</duration>
						<start>5256</start>
						<end>5316</end>
						<in>0</in>
						<out>60</out>
					</clipitem>
					<clipitem frameBlend="FALSE" id="clipitem-telop-572">
						<file id="file-2"/>
						<name></name>
						<rate>
							<timebase>60</timebase>
							<ntsc>TRUE</ntsc>
						</rate>
						<rate>
							<timebase>60</timebase>
							<ntsc>TRUE</ntsc>
						</rate>
						<duration>60</duration>
						<start>5316</start>
						<end>5376</end>
						<in>0</in>
						<out>60</out>
					</clipitem>
					<clipitem frameBlend="FALSE" id="clipitem-telop-580">
						<file id="file-2"/>
						<name></name>
						<rate>
							<timebase>60</timebase>
							<ntsc>TRUE</ntsc>
						</rate>
						<rate>
							<timebase>60</timebase>
							<ntsc>TRUE</ntsc>
						</rate>
						<duration>60</duration>
						<start>5448</start>
						<end>5508</end>
						<in>0</in>
						<out>60</out>
					</clipitem>
					<clipitem frameBlend="FALSE" id="clipitem-telop-584">
						<file id="file-2"/>
						<name></name>
						<rate>
							<timebase>60</timebase>
							<ntsc>TRUE</ntsc>
						</rate>
						<rate>
							<timebase>60</timebase>
							<ntsc>TRUE</ntsc>
						</rate>
						<duration>60</duration>
						<start>5514</start>
						<end>5574</end>
						<in>0</in>
						<out>60</out>
					</clipitem>
					<clipitem frameBlend="FALSE" id="clipitem-telop-596">
						<file id="file-2"/>
						<name></name>
						<rate>
							<timebase>60</timebase>
							<ntsc>TRUE</ntsc>
						</rate>
						<rate>
							<timebase>60</timebase>
							<ntsc>TRUE</ntsc>
						</rate>
						<duration>66</duration>
						<start>5574</start>
						<end>5640</end>
						<in>0</in>
						<out>66</out>
					</clipitem>
					<clipitem frameBlend="FALSE" id="clipitem-telop-606">
						<file id="file-2"/>
						<name></name>
						<rate>
							<timebase>60</timebase>
							<ntsc>TRUE</ntsc>
						</rate>
						<rate>
							<timebase>60</timebase>
							<ntsc>TRUE</ntsc>
						</rate>
						<duration>66</duration>
						<start>5640</start>
						<end>5706</end>
						<in>0</in>
						<out>66</out>
					</clipitem>
					<clipitem frameBlend="FALSE" id="clipitem-telop-613">
						<file id="file-2"/>
						<name></name>
						<rate>
							<timebase>60</timebase>
							<ntsc>TRUE</ntsc>
						</rate>
						<rate>
							<timebase>60</timebase>
							<ntsc>TRUE</ntsc>
						</rate>
						<duration>60</duration>
						<start>5730</start>
						<end>5790</end>
						<in>0</in>
						<out>60</out>
					</clipitem>
					<clipitem frameBlend="FALSE" id="clipitem-telop-620">
						<file id="file-2"/>
						<name></name>
						<rate>
							<timebase>60</timebase>
							<ntsc>TRUE</ntsc>
						</rate>
						<rate>
							<timebase>60</timebase>
							<ntsc>TRUE</ntsc>
						</rate>
						<duration>60</duration>
						<start>5790</start>
						<end>5850</end>
						<in>0</in>
						<out>60</out>
					</clipitem>
					<clipitem frameBlend="FALSE" id="clipitem-telop-635">
						<file id="file-2"/>
						<name></name>
						<rate>
							<timebase>60</timebase>
							<ntsc>TRUE</ntsc>
						</rate>
						<rate>
							<timebase>60</timebase>
							<ntsc>TRUE</ntsc>
						</rate>
						<duration>60</duration>
						<start>5904</start>
						<end>5964</end>
						<in>0</in>
						<out>60</out>
					</clipitem>
					<clipitem frameBlend="FALSE" id="clipitem-telop-643">
						<file id="file-2"/>
						<name></name>
						<rate>
							<timebase>60</timebase>
							<ntsc>TRUE</ntsc>
						</rate>
						<rate>
							<timebase>60</timebase>
							<ntsc>TRUE</ntsc>
						</rate>
						<duration>60</duration>
						<start>5988</start>
						<end>6048</end>
						<in>0</in>
						<out>60</out>
					</clipitem>
					<clipitem frameBlend="FALSE" id="clipitem-telop-654">
						<file id="file-2"/>
						<name></name>
						<rate>
							<timebase>60</timebase>
							<ntsc>TRUE</ntsc>
						</rate>
						<rate>
							<timebase>60</timebase>
							<ntsc>TRUE</ntsc>
						</rate>
						<duration>60</duration>
						<start>6078</start>
						<end>6138</end>
						<in>0</in>
						<out>60</out>
					</clipitem>
					<clipitem frameBlend="FALSE" id="clipitem-telop-664">
						<file id="file-2"/>
						<name></name>
						<rate>
							<timebase>60</timebase>
							<ntsc>TRUE</ntsc>
						</rate>
						<rate>
							<timebase>60</timebase>
							<ntsc>TRUE</ntsc>
						</rate>
						<duration>60</duration>
						<start>6144</start>
						<end>6204</end>
						<in>0</in>
						<out>60</out>
					</clipitem>
					<clipitem frameBlend="FALSE" id="clipitem-telop-671">
						<file id="file-2"/>
						<name></name>
						<rate>
							<timebase>60</timebase>
							<ntsc>TRUE</ntsc>
						</rate>
						<rate>
							<timebase>60</timebase>
							<ntsc>TRUE</ntsc>
						</rate>
						<duration>60</duration>
						<start>6210</start>
						<end>6270</end>
						<in>0</in>
						<out>60</out>
					</clipitem>
					<clipitem frameBlend="FALSE" id="clipitem-telop-680">
						<file id="file-2"/>
						<name></name>
						<rate>
							<timebase>60</timebase>
							<ntsc>TRUE</ntsc>
						</rate>
						<rate>
							<timebase>60</timebase>
							<ntsc>TRUE</ntsc>
						</rate>
						<duration>60</duration>
						<start>6276</start>
						<end>6336</end>
						<in>0</in>
						<out>60</out>
					</clipitem>
					<clipitem frameBlend="FALSE" id="clipitem-telop-691">
						<file id="file-2"/>
						<name></name>
						<rate>
							<timebase>60</timebase>
							<ntsc>TRUE</ntsc>
						</rate>
						<rate>
							<timebase>60</timebase>
							<ntsc>TRUE</ntsc>
						</rate>
						<duration>60</duration>
						<start>6342</start>
						<end>6402</end>
						<in>0</in>
						<out>60</out>
					</clipitem>
					<clipitem frameBlend="FALSE" id="clipitem-telop-700">
						<file id="file-2"/>
						<name></name>
						<rate>
							<timebase>60</timebase>
							<ntsc>TRUE</ntsc>
						</rate>
						<rate>
							<timebase>60</timebase>
							<ntsc>TRUE</ntsc>
						</rate>
						<duration>60</duration>
						<start>6402</start>
						<end>6462</end>
						<in>0</in>
						<out>60</out>
					</clipitem>
					<clipitem frameBlend="FALSE" id="clipitem-telop-705">
						<file id="file-2"/>
						<name></name>
						<rate>
							<timebase>60</timebase>
							<ntsc>TRUE</ntsc>
						</rate>
						<rate>
							<timebase>60</timebase>
							<ntsc>TRUE</ntsc>
						</rate>
						<duration>60</duration>
						<start>6468</start>
						<end>6528</end>
						<in>0</in>
						<out>60</out>
					</clipitem>
					<clipitem frameBlend="FALSE" id="clipitem-telop-713">
						<file id="file-2"/>
						<name></name>
						<rate>
							<timebase>60</timebase>
							<ntsc>TRUE</ntsc>
						</rate>
						<rate>
							<timebase>60</timebase>
							<ntsc>TRUE</ntsc>
						</rate>
						<duration>66</duration>
						<start>6552</start>
						<end>6618</end>
						<in>0</in>
						<out>66</out>
					</clipitem>
					<clipitem frameBlend="FALSE" id="clipitem-telop-721">
						<file id="file-2"/>
						<name></name>
						<rate>
							<timebase>60</timebase>
							<ntsc>TRUE</ntsc>
						</rate>
						<rate>
							<timebase>60</timebase>
							<ntsc>TRUE</ntsc>
						</rate>
						<duration>60</duration>
						<start>6642</start>
						<end>6702</end>
						<in>0</in>
						<out>60</out>
					</clipitem>
					<clipitem frameBlend="FALSE" id="clipitem-telop-728">
						<file id="file-2"/>
						<name></name>
						<rate>
							<timebase>60</timebase>
							<ntsc>TRUE</ntsc>
						</rate>
						<rate>
							<timebase>60</timebase>
							<ntsc>TRUE</ntsc>
						</rate>
						<duration>60</duration>
						<start>6762</start>
						<end>6822</end>
						<in>0</in>
						<out>60</out>
					</clipitem>
					<clipitem frameBlend="FALSE" id="clipitem-telop-738">
						<file id="file-2"/>
						<name></name>
						<rate>
							<timebase>60</timebase>
							<ntsc>TRUE</ntsc>
						</rate>
						<rate>
							<timebase>60</timebase>
							<ntsc>TRUE</ntsc>
						</rate>
						<duration>66</duration>
						<start>6882</start>
						<end>6948</end>
						<in>0</in>
						<out>66</out>
					</clipitem>
					<clipitem frameBlend="FALSE" id="clipitem-telop-748">
						<file id="file-2"/>
						<name></name>
						<rate>
							<timebase>60</timebase>
							<ntsc>TRUE</ntsc>
						</rate>
						<rate>
							<timebase>60</timebase>
							<ntsc>TRUE</ntsc>
						</rate>
						<duration>60</duration>
						<start>6948</start>
						<end>7008</end>
						<in>0</in>
						<out>60</out>
					</clipitem>
					<clipitem frameBlend="FALSE" id="clipitem-telop-757">
						<file id="file-2"/>
						<name></name>
						<rate>
							<timebase>60</timebase>
							<ntsc>TRUE</ntsc>
						</rate>
						<rate>
							<timebase>60</timebase>
							<ntsc>TRUE</ntsc>
						</rate>
						<duration>18</duration>
						<start>7044</start>
						<end>7062</end>
						<in>0</in>
						<out>18</out>
					</clipitem>
				</track>
				<track>
					<clipitem frameBlend="FALSE" id="clipitem-telop-6">
						<file id="file-2"/>
						<name></name>
						<rate>
							<timebase>60</timebase>
							<ntsc>TRUE</ntsc>
						</rate>
						<rate>
							<timebase>60</timebase>
							<ntsc>TRUE</ntsc>
						</rate>
						<duration>66</duration>
						<start>72</start>
						<end>138</end>
						<in>0</in>
						<out>66</out>
					</clipitem>
					<clipitem frameBlend="FALSE" id="clipitem-telop-14">
						<file id="file-2"/>
						<name></name>
						<rate>
							<timebase>60</timebase>
							<ntsc>TRUE</ntsc>
						</rate>
						<rate>
							<timebase>60</timebase>
							<ntsc>TRUE</ntsc>
						</rate>
						<duration>60</duration>
						<start>144</start>
						<end>204</end>
						<in>0</in>
						<out>60</out>
					</clipitem>
					<clipitem frameBlend="FALSE" id="clipitem-telop-21">
						<file id="file-2"/>
						<name></name>
						<rate>
							<timebase>60</timebase>
							<ntsc>TRUE</ntsc>
						</rate>
						<rate>
							<timebase>60</timebase>
							<ntsc>TRUE</ntsc>
						</rate>
						<duration>60</duration>
						<start>246</start>
						<end>306</end>
						<in>0</in>
						<out>60</out>
					</clipitem>
					<clipitem frameBlend="FALSE" id="clipitem-telop-29">
						<file id="file-2"/>
						<name></name>
						<rate>
							<timebase>60</timebase>
							<ntsc>TRUE</ntsc>
						</rate>
						<rate>
							<timebase>60</timebase>
							<ntsc>TRUE</ntsc>
						</rate>
						<duration>60</duration>
						<start>312</start>
						<end>372</end>
						<in>0</in>
						<out>60</out>
					</clipitem>
					<clipitem frameBlend="FALSE" id="clipitem-telop-37">
						<file id="file-2"/>
						<name></name>
						<rate>
							<timebase>60</timebase>
							<ntsc>TRUE</ntsc>
						</rate>
						<rate>
							<timebase>60</timebase>
							<ntsc>TRUE</ntsc>
						</rate>
						<duration>66</duration>
						<start>384</start>
						<end>450</end>
						<in>0</in>
						<out>66</out>
					</clipitem>
					<clipitem frameBlend="FALSE" id="clipitem-telop-45">
						<file id="file-2"/>
						<name></name>
						<rate>
							<timebase>60</timebase>
							<ntsc>TRUE</ntsc>
						</rate>
						<rate>
							<timebase>60</timebase>
							<ntsc>TRUE</ntsc>
						</rate>
						<duration>60</duration>
						<start>474</start>
						<end>534</end>
						<in>0</in>
						<out>60</out>
					</clipitem>
					<clipitem frameBlend="FALSE" id="clipitem-telop-55">
						<file id="file-2"/>
						<name></name>
						<rate>
							<timebase>60</timebase>
							<ntsc>TRUE</ntsc>
						</rate>
						<rate>
							<timebase>60</timebase>
							<ntsc>TRUE</ntsc>
						</rate>
						<duration>60</duration>
						<start>546</start>
						<end>606</end>
						<in>0</in>
						<out>60</out>
					</clipitem>
					<clipitem frameBlend="FALSE" id="clipitem-telop-64">
						<file id="file-2"/>
						<name></name>
						<rate>
							<timebase>60</timebase>
							<ntsc>TRUE</ntsc>
						</rate>
						<rate>
							<timebase>60</timebase>
							<ntsc>TRUE</ntsc>
						</rate>
						<duration>60</duration>
						<start>606</start>
						<end>666</end>
						<in>0</in>
						<out>60</out>
					</clipitem>
					<clipitem frameBlend="FALSE" id="clipitem-telop-73">
						<file id="file-2"/>
						<name></name>
						<rate>
							<timebase>60</timebase>
							<ntsc>TRUE</ntsc>
						</rate>
						<rate>
							<timebase>60</timebase>
							<ntsc>TRUE</ntsc>
						</rate>
						<duration>60</duration>
						<start>672</start>
						<end>732</end>
						<in>0</in>
						<out>60</out>
					</clipitem>
					<clipitem frameBlend="FALSE" id="clipitem-telop-81">
						<file id="file-2"/>
						<name></name>
						<rate>
							<timebase>60</timebase>
							<ntsc>TRUE</ntsc>
						</rate>
						<rate>
							<timebase>60</timebase>
							<ntsc>TRUE</ntsc>
						</rate>
						<duration>60</duration>
						<start>744</start>
						<end>804</end>
						<in>0</in>
						<out>60</out>
					</clipitem>
					<clipitem frameBlend="FALSE" id="clipitem-telop-90">
						<file id="file-2"/>
						<name></name>
						<rate>
							<timebase>60</timebase>
							<ntsc>TRUE</ntsc>
						</rate>
						<rate>
							<timebase>60</timebase>
							<ntsc>TRUE</ntsc>
						</rate>
						<duration>60</duration>
						<start>816</start>
						<end>876</end>
						<in>0</in>
						<out>60</out>
					</clipitem>
					<clipitem frameBlend="FALSE" id="clipitem-telop-100">
						<file id="file-2"/>
						<name></name>
						<rate>
							<timebase>60</timebase>
							<ntsc>TRUE</ntsc>
						</rate>
						<rate>
							<timebase>60</timebase>
							<ntsc>TRUE</ntsc>
						</rate>
						<duration>60</duration>
						<start>876</start>
						<end>936</end>
						<in>0</in>
						<out>60</out>
					</clipitem>
					<clipitem frameBlend="FALSE" id="clipitem-telop-110">
						<file id="file-2"/>
						<name></name>
						<rate>
							<timebase>60</timebase>
							<ntsc>TRUE</ntsc>
						</rate>
						<rate>
							<timebase>60</timebase>
							<ntsc>TRUE</ntsc>
						</rate>
						<duration>66</duration>
						<start>936</start>
						<end>1002</end>
						<in>0</in>
						<out>66</out>
					</clipitem>
					<clipitem frameBlend="FALSE" id="clipitem-telop-126">
						<file id="file-2"/>
						<name></name>
						<rate>
							<timebase>60</timebase>
							<ntsc>TRUE</ntsc>
						</rate>
						<rate>
							<timebase>60</timebase>
							<ntsc>TRUE</ntsc>
						</rate>
						<duration>60</duration>
						<start>1026</start>
						<end>1086</end>
						<in>0</in>
						<out>60</out>
					</clipitem>
					<clipitem frameBlend="FALSE" id="clipitem-telop-138">
						<file id="file-2"/>
						<name></name>
						<rate>
							<timebase>60</timebase>
							<ntsc>TRUE</ntsc>
						</rate>
						<rate>
							<timebase>60</timebase>
							<ntsc>TRUE</ntsc>
						</rate>
						<duration>60</duration>
						<start>1116</start>
						<end>1176</end>
						<in>0</in>
						<out>60</out>
					</clipitem>
					<clipitem frameBlend="FALSE" id="clipitem-telop-144">
						<file id="file-2"/>
						<name></name>
						<rate>
							<timebase>60</timebase>
							<ntsc>TRUE</ntsc>
						</rate>
						<rate>
							<timebase>60</timebase>
							<ntsc>TRUE</ntsc>
						</rate>
						<duration>60</duration>
						<start>1188</start>
						<end>1248</end>
						<in>0</in>
						<out>60</out>
					</clipitem>
					<clipitem frameBlend="FALSE" id="clipitem-telop-151">
						<file id="file-2"/>
						<name></name>
						<rate>
							<timebase>60</timebase>
							<ntsc>TRUE</ntsc>
						</rate>
						<rate>
							<timebase>60</timebase>
							<ntsc>TRUE</ntsc>
						</rate>
						<duration>60</duration>
						<start>1260</start>
						<end>1320</end>
						<in>0</in>
						<out>60</out>
					</clipitem>
					<clipitem frameBlend="FALSE" id="clipitem-telop-161">
						<file id="file-2"/>
						<name></name>
						<rate>
							<timebase>60</timebase>
							<ntsc>TRUE</ntsc>
						</rate>
						<rate>
							<timebase>60</timebase>
							<ntsc>TRUE</ntsc>
						</rate>
						<duration>66</duration>
						<start>1356</start>
						<end>1422</end>
						<in>0</in>
						<out>66</out>
					</clipitem>
					<clipitem frameBlend="FALSE" id="clipitem-telop-170">
						<file id="file-2"/>
						<name></name>
						<rate>
							<timebase>60</timebase>
							<ntsc>TRUE</ntsc>
						</rate>
						<rate>
							<timebase>60</timebase>
							<ntsc>TRUE</ntsc>
						</rate>
						<duration>60</duration>
						<start>1428</start>
						<end>1488</end>
						<in>0</in>
						<out>60</out>
					</clipitem>
					<clipitem frameBlend="FALSE" id="clipitem-telop-180">
						<file id="file-2"/>
						<name></name>
						<rate>
							<timebase>60</timebase>
							<ntsc>TRUE</ntsc>
						</rate>
						<rate>
							<timebase>60</timebase>
							<ntsc>TRUE</ntsc>
						</rate>
						<duration>60</duration>
						<start>1518</start>
						<end>1578</end>
						<in>0</in>
						<out>60</out>
					</clipitem>
					<clipitem frameBlend="FALSE" id="clipitem-telop-188">
						<file id="file-2"/>
						<name></name>
						<rate>
							<timebase>60</timebase>
							<ntsc>TRUE</ntsc>
						</rate>
						<rate>
							<timebase>60</timebase>
							<ntsc>TRUE</ntsc>
						</rate>
						<duration>66</duration>
						<start>1602</start>
						<end>1668</end>
						<in>0</in>
						<out>66</out>
					</clipitem>
					<clipitem frameBlend="FALSE" id="clipitem-telop-201">
						<file id="file-2"/>
						<name></name>
						<rate>
							<timebase>60</timebase>
							<ntsc>TRUE</ntsc>
						</rate>
						<rate>
							<timebase>60</timebase>
							<ntsc>TRUE</ntsc>
						</rate>
						<duration>66</duration>
						<start>1704</start>
						<end>1770</end>
						<in>0</in>
						<out>66</out>
					</clipitem>
					<clipitem frameBlend="FALSE" id="clipitem-telop-208">
						<file id="file-2"/>
						<name></name>
						<rate>
							<timebase>60</timebase>
							<ntsc>TRUE</ntsc>
						</rate>
						<rate>
							<timebase>60</timebase>
							<ntsc>TRUE</ntsc>
						</rate>
						<duration>66</duration>
						<start>1770</start>
						<end>1836</end>
						<in>0</in>
						<out>66</out>
					</clipitem>
					<clipitem frameBlend="FALSE" id="clipitem-telop-219">
						<file id="file-2"/>
						<name></name>
						<rate>
							<timebase>60</timebase>
							<ntsc>TRUE</ntsc>
						</rate>
						<rate>
							<timebase>60</timebase>
							<ntsc>TRUE</ntsc>
						</rate>
						<duration>60</duration>
						<start>1836</start>
						<end>1896</end>
						<in>0</in>
						<out>60</out>
					</clipitem>
					<clipitem frameBlend="FALSE" id="clipitem-telop-225">
						<file id="file-2"/>
						<name></name>
						<rate>
							<timebase>60</timebase>
							<ntsc>TRUE</ntsc>
						</rate>
						<rate>
							<timebase>60</timebase>
							<ntsc>TRUE</ntsc>
						</rate>
						<duration>60</duration>
						<start>1902</start>
						<end>1962</end>
						<in>0</in>
						<out>60</out>
					</clipitem>
					<clipitem frameBlend="FALSE" id="clipitem-telop-234">
						<file id="file-2"/>
						<name></name>
						<rate>
							<timebase>60</timebase>
							<ntsc>TRUE</ntsc>
						</rate>
						<rate>
							<timebase>60</timebase>
							<ntsc>TRUE</ntsc>
						</rate>
						<duration>60</duration>
						<start>1968</start>
						<end>2028</end>
						<in>0</in>
						<out>60</out>
					</clipitem>
					<clipitem frameBlend="FALSE" id="clipitem-telop-248">
						<file id="file-2"/>
						<name></name>
						<rate>
							<timebase>60</timebase>
							<ntsc>TRUE</ntsc>
						</rate>
						<rate>
							<timebase>60</timebase>
							<ntsc>TRUE</ntsc>
						</rate>
						<duration>66</duration>
						<start>2178</start>
						<end>2244</end>
						<in>0</in>
						<out>66</out>
					</clipitem>
					<clipitem frameBlend="FALSE" id="clipitem-telop-257">
						<file id="file-2"/>
						<name></name>
						<rate>
							<timebase>60</timebase>
							<ntsc>TRUE</ntsc>
						</rate>
						<rate>
							<timebase>60</timebase>
							<ntsc>TRUE</ntsc>
						</rate>
						<duration>60</duration>
						<start>2322</start>
						<end>2382</end>
						<in>0</in>
						<out>60</out>
					</clipitem>
					<clipitem frameBlend="FALSE" id="clipitem-telop-266">
						<file id="file-2"/>
						<name></name>
						<rate>
							<timebase>60</timebase>
							<ntsc>TRUE</ntsc>
						</rate>
						<rate>
							<timebase>60</timebase>
							<ntsc>TRUE</ntsc>
						</rate>
						<duration>60</duration>
						<start>2448</start>
						<end>2508</end>
						<in>0</in>
						<out>60</out>
					</clipitem>
					<clipitem frameBlend="FALSE" id="clipitem-telop-274">
						<file id="file-2"/>
						<name></name>
						<rate>
							<timebase>60</timebase>
							<ntsc>TRUE</ntsc>
						</rate>
						<rate>
							<timebase>60</timebase>
							<ntsc>TRUE</ntsc>
						</rate>
						<duration>60</duration>
						<start>2538</start>
						<end>2598</end>
						<in>0</in>
						<out>60</out>
					</clipitem>
					<clipitem frameBlend="FALSE" id="clipitem-telop-282">
						<file id="file-2"/>
						<name></name>
						<rate>
							<timebase>60</timebase>
							<ntsc>TRUE</ntsc>
						</rate>
						<rate>
							<timebase>60</timebase>
							<ntsc>TRUE</ntsc>
						</rate>
						<duration>60</duration>
						<start>2616</start>
						<end>2676</end>
						<in>0</in>
						<out>60</out>
					</clipitem>
					<clipitem frameBlend="FALSE" id="clipitem-telop-291">
						<file id="file-2"/>
						<name></name>
						<rate>
							<timebase>60</timebase>
							<ntsc>TRUE</ntsc>
						</rate>
						<rate>
							<timebase>60</timebase>
							<ntsc>TRUE</ntsc>
						</rate>
						<duration>60</duration>
						<start>2682</start>
						<end>2742</end>
						<in>0</in>
						<out>60</out>
					</clipitem>
					<clipitem frameBlend="FALSE" id="clipitem-telop-298">
						<file id="file-2"/>
						<name></name>
						<rate>
							<timebase>60</timebase>
							<ntsc>TRUE</ntsc>
						</rate>
						<rate>
							<timebase>60</timebase>
							<ntsc>TRUE</ntsc>
						</rate>
						<duration>66</duration>
						<start>2748</start>
						<end>2814</end>
						<in>0</in>
						<out>66</out>
					</clipitem>
					<clipitem frameBlend="FALSE" id="clipitem-telop-306">
						<file id="file-2"/>
						<name></name>
						<rate>
							<timebase>60</timebase>
							<ntsc>TRUE</ntsc>
						</rate>
						<rate>
							<timebase>60</timebase>
							<ntsc>TRUE</ntsc>
						</rate>
						<duration>66</duration>
						<start>2814</start>
						<end>2880</end>
						<in>0</in>
						<out>66</out>
					</clipitem>
					<clipitem frameBlend="FALSE" id="clipitem-telop-316">
						<file id="file-2"/>
						<name></name>
						<rate>
							<timebase>60</timebase>
							<ntsc>TRUE</ntsc>
						</rate>
						<rate>
							<timebase>60</timebase>
							<ntsc>TRUE</ntsc>
						</rate>
						<duration>60</duration>
						<start>2916</start>
						<end>2976</end>
						<in>0</in>
						<out>60</out>
					</clipitem>
					<clipitem frameBlend="FALSE" id="clipitem-telop-326">
						<file id="file-2"/>
						<name></name>
						<rate>
							<timebase>60</timebase>
							<ntsc>TRUE</ntsc>
						</rate>
						<rate>
							<timebase>60</timebase>
							<ntsc>TRUE</ntsc>
						</rate>
						<duration>60</duration>
						<start>3006</start>
						<end>3066</end>
						<in>0</in>
						<out>60</out>
					</clipitem>
					<clipitem frameBlend="FALSE" id="clipitem-telop-338">
						<file id="file-2"/>
						<name></name>
						<rate>
							<timebase>60</timebase>
							<ntsc>TRUE</ntsc>
						</rate>
						<rate>
							<timebase>60</timebase>
							<ntsc>TRUE</ntsc>
						</rate>
						<duration>60</duration>
						<start>3126</start>
						<end>3186</end>
						<in>0</in>
						<out>60</out>
					</clipitem>
					<clipitem frameBlend="FALSE" id="clipitem-telop-347">
						<file id="file-2"/>
						<name></name>
						<rate>
							<timebase>60</timebase>
							<ntsc>TRUE</ntsc>
						</rate>
						<rate>
							<timebase>60</timebase>
							<ntsc>TRUE</ntsc>
						</rate>
						<duration>60</duration>
						<start>3204</start>
						<end>3264</end>
						<in>0</in>
						<out>60</out>
					</clipitem>
					<clipitem frameBlend="FALSE" id="clipitem-telop-359">
						<file id="file-2"/>
						<name></name>
						<rate>
							<timebase>60</timebase>
							<ntsc>TRUE</ntsc>
						</rate>
						<rate>
							<timebase>60</timebase>
							<ntsc>TRUE</ntsc>
						</rate>
						<duration>60</duration>
						<start>3294</start>
						<end>3354</end>
						<in>0</in>
						<out>60</out>
					</clipitem>
					<clipitem frameBlend="FALSE" id="clipitem-telop-367">
						<file id="file-2"/>
						<name></name>
						<rate>
							<timebase>60</timebase>
							<ntsc>TRUE</ntsc>
						</rate>
						<rate>
							<timebase>60</timebase>
							<ntsc>TRUE</ntsc>
						</rate>
						<duration>60</duration>
						<start>3360</start>
						<end>3420</end>
						<in>0</in>
						<out>60</out>
					</clipitem>
					<clipitem frameBlend="FALSE" id="clipitem-telop-374">
						<file id="file-2"/>
						<name></name>
						<rate>
							<timebase>60</timebase>
							<ntsc>TRUE</ntsc>
						</rate>
						<rate>
							<timebase>60</timebase>
							<ntsc>TRUE</ntsc>
						</rate>
						<duration>66</duration>
						<start>3426</start>
						<end>3492</end>
						<in>0</in>
						<out>66</out>
					</clipitem>
					<clipitem frameBlend="FALSE" id="clipitem-telop-386">
						<file id="file-2"/>
						<name></name>
						<rate>
							<timebase>60</timebase>
							<ntsc>TRUE</ntsc>
						</rate>
						<rate>
							<timebase>60</timebase>
							<ntsc>TRUE</ntsc>
						</rate>
						<duration>60</duration>
						<start>3546</start>
						<end>3606</end>
						<in>0</in>
						<out>60</out>
					</clipitem>
					<clipitem frameBlend="FALSE" id="clipitem-telop-391">
						<file id="file-2"/>
						<name></name>
						<rate>
							<timebase>60</timebase>
							<ntsc>TRUE</ntsc>
						</rate>
						<rate>
							<timebase>60</timebase>
							<ntsc>TRUE</ntsc>
						</rate>
						<duration>60</duration>
						<start>3618</start>
						<end>3678</end>
						<in>0</in>
						<out>60</out>
					</clipitem>
					<clipitem frameBlend="FALSE" id="clipitem-telop-401">
						<file id="file-2"/>
						<name></name>
						<rate>
							<timebase>60</timebase>
							<ntsc>TRUE</ntsc>
						</rate>
						<rate>
							<timebase>60</timebase>
							<ntsc>TRUE</ntsc>
						</rate>
						<duration>60</duration>
						<start>3702</start>
						<end>3762</end>
						<in>0</in>
						<out>60</out>
					</clipitem>
					<clipitem frameBlend="FALSE" id="clipitem-telop-412">
						<file id="file-2"/>
						<name></name>
						<rate>
							<timebase>60</timebase>
							<ntsc>TRUE</ntsc>
						</rate>
						<rate>
							<timebase>60</timebase>
							<ntsc>TRUE</ntsc>
						</rate>
						<duration>66</duration>
						<start>3762</start>
						<end>3828</end>
						<in>0</in>
						<out>66</out>
					</clipitem>
					<clipitem frameBlend="FALSE" id="clipitem-telop-421">
						<file id="file-2"/>
						<name></name>
						<rate>
							<timebase>60</timebase>
							<ntsc>TRUE</ntsc>
						</rate>
						<rate>
							<timebase>60</timebase>
							<ntsc>TRUE</ntsc>
						</rate>
						<duration>60</duration>
						<start>3846</start>
						<end>3906</end>
						<in>0</in>
						<out>60</out>
					</clipitem>
					<clipitem frameBlend="FALSE" id="clipitem-telop-436">
						<file id="file-2"/>
						<name></name>
						<rate>
							<timebase>60</timebase>
							<ntsc>TRUE</ntsc>
						</rate>
						<rate>
							<timebase>60</timebase>
							<ntsc>TRUE</ntsc>
						</rate>
						<duration>60</duration>
						<start>4062</start>
						<end>4122</end>
						<in>0</in>
						<out>60</out>
					</clipitem>
					<clipitem frameBlend="FALSE" id="clipitem-telop-447">
						<file id="file-2"/>
						<name></name>
						<rate>
							<timebase>60</timebase>
							<ntsc>TRUE</ntsc>
						</rate>
						<rate>
							<timebase>60</timebase>
							<ntsc>TRUE</ntsc>
						</rate>
						<duration>60</duration>
						<start>4224</start>
						<end>4284</end>
						<in>0</in>
						<out>60</out>
					</clipitem>
					<clipitem frameBlend="FALSE" id="clipitem-telop-456">
						<file id="file-2"/>
						<name></name>
						<rate>
							<timebase>60</timebase>
							<ntsc>TRUE</ntsc>
						</rate>
						<rate>
							<timebase>60</timebase>
							<ntsc>TRUE</ntsc>
						</rate>
						<duration>60</duration>
						<start>4302</start>
						<end>4362</end>
						<in>0</in>
						<out>60</out>
					</clipitem>
					<clipitem frameBlend="FALSE" id="clipitem-telop-465">
						<file id="file-2"/>
						<name></name>
						<rate>
							<timebase>60</timebase>
							<ntsc>TRUE</ntsc>
						</rate>
						<rate>
							<timebase>60</timebase>
							<ntsc>TRUE</ntsc>
						</rate>
						<duration>60</duration>
						<start>4374</start>
						<end>4434</end>
						<in>0</in>
						<out>60</out>
					</clipitem>
					<clipitem frameBlend="FALSE" id="clipitem-telop-474">
						<file id="file-2"/>
						<name></name>
						<rate>
							<timebase>60</timebase>
							<ntsc>TRUE</ntsc>
						</rate>
						<rate>
							<timebase>60</timebase>
							<ntsc>TRUE</ntsc>
						</rate>
						<duration>60</duration>
						<start>4434</start>
						<end>4494</end>
						<in>0</in>
						<out>60</out>
					</clipitem>
					<clipitem frameBlend="FALSE" id="clipitem-telop-486">
						<file id="file-2"/>
						<name></name>
						<rate>
							<timebase>60</timebase>
							<ntsc>TRUE</ntsc>
						</rate>
						<rate>
							<timebase>60</timebase>
							<ntsc>TRUE</ntsc>
						</rate>
						<duration>66</duration>
						<start>4500</start>
						<end>4566</end>
						<in>0</in>
						<out>66</out>
					</clipitem>
					<clipitem frameBlend="FALSE" id="clipitem-telop-492">
						<file id="file-2"/>
						<name></name>
						<rate>
							<timebase>60</timebase>
							<ntsc>TRUE</ntsc>
						</rate>
						<rate>
							<timebase>60</timebase>
							<ntsc>TRUE</ntsc>
						</rate>
						<duration>66</duration>
						<start>4566</start>
						<end>4632</end>
						<in>0</in>
						<out>66</out>
					</clipitem>
					<clipitem frameBlend="FALSE" id="clipitem-telop-500">
						<file id="file-2"/>
						<name></name>
						<rate>
							<timebase>60</timebase>
							<ntsc>TRUE</ntsc>
						</rate>
						<rate>
							<timebase>60</timebase>
							<ntsc>TRUE</ntsc>
						</rate>
						<duration>60</duration>
						<start>4638</start>
						<end>4698</end>
						<in>0</in>
						<out>60</out>
					</clipitem>
					<clipitem frameBlend="FALSE" id="clipitem-telop-506">
						<file id="file-2"/>
						<name></name>
						<rate>
							<timebase>60</timebase>
							<ntsc>TRUE</ntsc>
						</rate>
						<rate>
							<timebase>60</timebase>
							<ntsc>TRUE</ntsc>
						</rate>
						<duration>60</duration>
						<start>4704</start>
						<end>4764</end>
						<in>0</in>
						<out>60</out>
					</clipitem>
					<clipitem frameBlend="FALSE" id="clipitem-telop-513">
						<file id="file-2"/>
						<name></name>
						<rate>
							<timebase>60</timebase>
							<ntsc>TRUE</ntsc>
						</rate>
						<rate>
							<timebase>60</timebase>
							<ntsc>TRUE</ntsc>
						</rate>
						<duration>60</duration>
						<start>4770</start>
						<end>4830</end>
						<in>0</in>
						<out>60</out>
					</clipitem>
					<clipitem frameBlend="FALSE" id="clipitem-telop-519">
						<file id="file-2"/>
						<name></name>
						<rate>
							<timebase>60</timebase>
							<ntsc>TRUE</ntsc>
						</rate>
						<rate>
							<timebase>60</timebase>
							<ntsc>TRUE</ntsc>
						</rate>
						<duration>60</duration>
						<start>4830</start>
						<end>4890</end>
						<in>0</in>
						<out>60</out>
					</clipitem>
					<clipitem frameBlend="FALSE" id="clipitem-telop-529">
						<file id="file-2"/>
						<name></name>
						<rate>
							<timebase>60</timebase>
							<ntsc>TRUE</ntsc>
						</rate>
						<rate>
							<timebase>60</timebase>
							<ntsc>TRUE</ntsc>
						</rate>
						<duration>60</duration>
						<start>4920</start>
						<end>4980</end>
						<in>0</in>
						<out>60</out>
					</clipitem>
					<clipitem frameBlend="FALSE" id="clipitem-telop-536">
						<file id="file-2"/>
						<name></name>
						<rate>
							<timebase>60</timebase>
							<ntsc>TRUE</ntsc>
						</rate>
						<rate>
							<timebase>60</timebase>
							<ntsc>TRUE</ntsc>
						</rate>
						<duration>60</duration>
						<start>4998</start>
						<end>5058</end>
						<in>0</in>
						<out>60</out>
					</clipitem>
					<clipitem frameBlend="FALSE" id="clipitem-telop-548">
						<file id="file-2"/>
						<name></name>
						<rate>
							<timebase>60</timebase>
							<ntsc>TRUE</ntsc>
						</rate>
						<rate>
							<timebase>60</timebase>
							<ntsc>TRUE</ntsc>
						</rate>
						<duration>60</duration>
						<start>5106</start>
						<end>5166</end>
						<in>0</in>
						<out>60</out>
					</clipitem>
					<clipitem frameBlend="FALSE" id="clipitem-telop-559">
						<file id="file-2"/>
						<name></name>
						<rate>
							<timebase>60</timebase>
							<ntsc>TRUE</ntsc>
						</rate>
						<rate>
							<timebase>60</timebase>
							<ntsc>TRUE</ntsc>
						</rate>
						<duration>60</duration>
						<start>5214</start>
						<end>5274</end>
						<in>0</in>
						<out>60</out>
					</clipitem>
					<clipitem frameBlend="FALSE" id="clipitem-telop-565">
						<file id="file-2"/>
						<name></name>
						<rate>
							<timebase>60</timebase>
							<ntsc>TRUE</ntsc>
						</rate>
						<rate>
							<timebase>60</timebase>
							<ntsc>TRUE</ntsc>
						</rate>
						<duration>60</duration>
						<start>5274</start>
						<end>5334</end>
						<in>0</in>
						<out>60</out>
					</clipitem>
					<clipitem frameBlend="FALSE" id="clipitem-telop-574">
						<file id="file-2"/>
						<name></name>
						<rate>
							<timebase>60</timebase>
							<ntsc>TRUE</ntsc>
						</rate>
						<rate>
							<timebase>60</timebase>
							<ntsc>TRUE</ntsc>
						</rate>
						<duration>66</duration>
						<start>5340</start>
						<end>5406</end>
						<in>0</in>
						<out>66</out>
					</clipitem>
					<clipitem frameBlend="FALSE" id="clipitem-telop-585">
						<file id="file-2"/>
						<name></name>
						<rate>
							<timebase>60</timebase>
							<ntsc>TRUE</ntsc>
						</rate>
						<rate>
							<timebase>60</timebase>
							<ntsc>TRUE</ntsc>
						</rate>
						<duration>66</duration>
						<start>5514</start>
						<end>5580</end>
						<in>0</in>
						<out>66</out>
					</clipitem>
					<clipitem frameBlend="FALSE" id="clipitem-telop-597">
						<file id="file-2"/>
						<name></name>
						<rate>
							<timebase>60</timebase>
							<ntsc>TRUE</ntsc>
						</rate>
						<rate>
							<timebase>60</timebase>
							<ntsc>TRUE</ntsc>
						</rate>
						<duration>66</duration>
						<start>5580</start>
						<end>5646</end>
						<in>0</in>
						<out>66</out>
					</clipitem>
					<clipitem frameBlend="FALSE" id="clipitem-telop-607">
						<file id="file-2"/>
						<name></name>
						<rate>
							<timebase>60</timebase>
							<ntsc>TRUE</ntsc>
						</rate>
						<rate>
							<timebase>60</timebase>
							<ntsc>TRUE</ntsc>
						</rate>
						<duration>66</duration>
						<start>5646</start>
						<end>5712</end>
						<in>0</in>
						<out>66</out>
					</clipitem>
					<clipitem frameBlend="FALSE" id="clipitem-telop-615">
						<file id="file-2"/>
						<name></name>
						<rate>
							<timebase>60</timebase>
							<ntsc>TRUE</ntsc>
						</rate>
						<rate>
							<timebase>60</timebase>
							<ntsc>TRUE</ntsc>
						</rate>
						<duration>60</duration>
						<start>5742</start>
						<end>5802</end>
						<in>0</in>
						<out>60</out>
					</clipitem>
					<clipitem frameBlend="FALSE" id="clipitem-telop-624">
						<file id="file-2"/>
						<name></name>
						<rate>
							<timebase>60</timebase>
							<ntsc>TRUE</ntsc>
						</rate>
						<rate>
							<timebase>60</timebase>
							<ntsc>TRUE</ntsc>
						</rate>
						<duration>60</duration>
						<start>5808</start>
						<end>5868</end>
						<in>0</in>
						<out>60</out>
					</clipitem>
					<clipitem frameBlend="FALSE" id="clipitem-telop-636">
						<file id="file-2"/>
						<name></name>
						<rate>
							<timebase>60</timebase>
							<ntsc>TRUE</ntsc>
						</rate>
						<rate>
							<timebase>60</timebase>
							<ntsc>TRUE</ntsc>
						</rate>
						<duration>66</duration>
						<start>5904</start>
						<end>5970</end>
						<in>0</in>
						<out>66</out>
					</clipitem>
					<clipitem frameBlend="FALSE" id="clipitem-telop-645">
						<file id="file-2"/>
						<name></name>
						<rate>
							<timebase>60</timebase>
							<ntsc>TRUE</ntsc>
						</rate>
						<rate>
							<timebase>60</timebase>
							<ntsc>TRUE</ntsc>
						</rate>
						<duration>60</duration>
						<start>5994</start>
						<end>6054</end>
						<in>0</in>
						<out>60</out>
					</clipitem>
					<clipitem frameBlend="FALSE" id="clipitem-telop-655">
						<file id="file-2"/>
						<name></name>
						<rate>
							<timebase>60</timebase>
							<ntsc>TRUE</ntsc>
						</rate>
						<rate>
							<timebase>60</timebase>
							<ntsc>TRUE</ntsc>
						</rate>
						<duration>60</duration>
						<start>6090</start>
						<end>6150</end>
						<in>0</in>
						<out>60</out>
					</clipitem>
					<clipitem frameBlend="FALSE" id="clipitem-telop-665">
						<file id="file-2"/>
						<name></name>
						<rate>
							<timebase>60</timebase>
							<ntsc>TRUE</ntsc>
						</rate>
						<rate>
							<timebase>60</timebase>
							<ntsc>TRUE</ntsc>
						</rate>
						<duration>60</duration>
						<start>6156</start>
						<end>6216</end>
						<in>0</in>
						<out>60</out>
					</clipitem>
					<clipitem frameBlend="FALSE" id="clipitem-telop-672">
						<file id="file-2"/>
						<name></name>
						<rate>
							<timebase>60</timebase>
							<ntsc>TRUE</ntsc>
						</rate>
						<rate>
							<timebase>60</timebase>
							<ntsc>TRUE</ntsc>
						</rate>
						<duration>60</duration>
						<start>6222</start>
						<end>6282</end>
						<in>0</in>
						<out>60</out>
					</clipitem>
					<clipitem frameBlend="FALSE" id="clipitem-telop-681">
						<file id="file-2"/>
						<name></name>
						<rate>
							<timebase>60</timebase>
							<ntsc>TRUE</ntsc>
						</rate>
						<rate>
							<timebase>60</timebase>
							<ntsc>TRUE</ntsc>
						</rate>
						<duration>60</duration>
						<start>6282</start>
						<end>6342</end>
						<in>0</in>
						<out>60</out>
					</clipitem>
					<clipitem frameBlend="FALSE" id="clipitem-telop-692">
						<file id="file-2"/>
						<name></name>
						<rate>
							<timebase>60</timebase>
							<ntsc>TRUE</ntsc>
						</rate>
						<rate>
							<timebase>60</timebase>
							<ntsc>TRUE</ntsc>
						</rate>
						<duration>60</duration>
						<start>6342</start>
						<end>6402</end>
						<in>0</in>
						<out>60</out>
					</clipitem>
					<clipitem frameBlend="FALSE" id="clipitem-telop-706">
						<file id="file-2"/>
						<name></name>
						<rate>
							<timebase>60</timebase>
							<ntsc>TRUE</ntsc>
						</rate>
						<rate>
							<timebase>60</timebase>
							<ntsc>TRUE</ntsc>
						</rate>
						<duration>66</duration>
						<start>6468</start>
						<end>6534</end>
						<in>0</in>
						<out>66</out>
					</clipitem>
					<clipitem frameBlend="FALSE" id="clipitem-telop-714">
						<file id="file-2"/>
						<name></name>
						<rate>
							<timebase>60</timebase>
							<ntsc>TRUE</ntsc>
						</rate>
						<rate>
							<timebase>60</timebase>
							<ntsc>TRUE</ntsc>
						</rate>
						<duration>66</duration>
						<start>6558</start>
						<end>6624</end>
						<in>0</in>
						<out>66</out>
					</clipitem>
					<clipitem frameBlend="FALSE" id="clipitem-telop-722">
						<file id="file-2"/>
						<name></name>
						<rate>
							<timebase>60</timebase>
							<ntsc>TRUE</ntsc>
						</rate>
						<rate>
							<timebase>60</timebase>
							<ntsc>TRUE</ntsc>
						</rate>
						<duration>60</duration>
						<start>6648</start>
						<end>6708</end>
						<in>0</in>
						<out>60</out>
					</clipitem>
					<clipitem frameBlend="FALSE" id="clipitem-telop-730">
						<file id="file-2"/>
						<name></name>
						<rate>
							<timebase>60</timebase>
							<ntsc>TRUE</ntsc>
						</rate>
						<rate>
							<timebase>60</timebase>
							<ntsc>TRUE</ntsc>
						</rate>
						<duration>60</duration>
						<start>6774</start>
						<end>6834</end>
						<in>0</in>
						<out>60</out>
					</clipitem>
					<clipitem frameBlend="FALSE" id="clipitem-telop-739">
						<file id="file-2"/>
						<name></name>
						<rate>
							<timebase>60</timebase>
							<ntsc>TRUE</ntsc>
						</rate>
						<rate>
							<timebase>60</timebase>
							<ntsc>TRUE</ntsc>
						</rate>
						<duration>60</duration>
						<start>6894</start>
						<end>6954</end>
						<in>0</in>
						<out>60</out>
					</clipitem>
					<clipitem frameBlend="FALSE" id="clipitem-telop-751">
						<file id="file-2"/>
						<name></name>
						<rate>
							<timebase>60</timebase>
							<ntsc>TRUE</ntsc>
						</rate>
						<rate>
							<timebase>60</timebase>
							<ntsc>TRUE</ntsc>
						</rate>
						<duration>60</duration>
						<start>6978</start>
						<end>7038</end>
						<in>0</in>
						<out>60</out>
					</clipitem>
					<clipitem frameBlend="FALSE" id="clipitem-telop-758">
						<file id="file-2"/>
						<name></name>
						<rate>
							<timebase>60</timebase>
							<ntsc>TRUE</ntsc>
						</rate>
						<rate>
							<timebase>60</timebase>
							<ntsc>TRUE</ntsc>
						</rate>
						<duration>6</duration>
						<start>7056</start>
						<end>7062</end>
						<in>0</in>
						<out>6</out>
					</clipitem>
				</track>
				<track>
					<clipitem frameBlend="FALSE" id="clipitem-telop-7">
						<file id="file-2"/>
						<name></name>
						<rate>
							<timebase>60</timebase>
							<ntsc>TRUE</ntsc>
						</rate>
						<rate>
							<timebase>60</timebase>
							<ntsc>TRUE</ntsc>
						</rate>
						<duration>60</duration>
						<start>90</start>
						<end>150</end>
						<in>0</in>
						<out>60</out>
					</clipitem>
					<clipitem frameBlend="FALSE" id="clipitem-telop-15">
						<file id="file-2"/>
						<name></name>
						<rate>
							<timebase>60</timebase>
							<ntsc>TRUE</ntsc>
						</rate>
						<rate>
							<timebase>60</timebase>
							<ntsc>TRUE</ntsc>
						</rate>
						<duration>60</duration>
						<start>150</start>
						<end>210</end>
						<in>0</in>
						<out>60</out>
					</clipitem>
					<clipitem frameBlend="FALSE" id="clipitem-telop-22">
						<file id="file-2"/>
						<name></name>
						<rate>
							<timebase>60</timebase>
							<ntsc>TRUE</ntsc>
						</rate>
						<rate>
							<timebase>60</timebase>
							<ntsc>TRUE</ntsc>
						</rate>
						<duration>60</duration>
						<start>252</start>
						<end>312</end>
						<in>0</in>
						<out>60</out>
					</clipitem>
					<clipitem frameBlend="FALSE" id="clipitem-telop-30">
						<file id="file-2"/>
						<name></name>
						<rate>
							<timebase>60</timebase>
							<ntsc>TRUE</ntsc>
						</rate>
						<rate>
							<timebase>60</timebase>
							<ntsc>TRUE</ntsc>
						</rate>
						<duration>60</duration>
						<start>324</start>
						<end>384</end>
						<in>0</in>
						<out>60</out>
					</clipitem>
					<clipitem frameBlend="FALSE" id="clipitem-telop-40">
						<file id="file-2"/>
						<name></name>
						<rate>
							<timebase>60</timebase>
							<ntsc>TRUE</ntsc>
						</rate>
						<rate>
							<timebase>60</timebase>
							<ntsc>TRUE</ntsc>
						</rate>
						<duration>60</duration>
						<start>414</start>
						<end>474</end>
						<in>0</in>
						<out>60</out>
					</clipitem>
					<clipitem frameBlend="FALSE" id="clipitem-telop-46">
						<file id="file-2"/>
						<name></name>
						<rate>
							<timebase>60</timebase>
							<ntsc>TRUE</ntsc>
						</rate>
						<rate>
							<timebase>60</timebase>
							<ntsc>TRUE</ntsc>
						</rate>
						<duration>60</duration>
						<start>486</start>
						<end>546</end>
						<in>0</in>
						<out>60</out>
					</clipitem>
					<clipitem frameBlend="FALSE" id="clipitem-telop-56">
						<file id="file-2"/>
						<name></name>
						<rate>
							<timebase>60</timebase>
							<ntsc>TRUE</ntsc>
						</rate>
						<rate>
							<timebase>60</timebase>
							<ntsc>TRUE</ntsc>
						</rate>
						<duration>60</duration>
						<start>552</start>
						<end>612</end>
						<in>0</in>
						<out>60</out>
					</clipitem>
					<clipitem frameBlend="FALSE" id="clipitem-telop-65">
						<file id="file-2"/>
						<name></name>
						<rate>
							<timebase>60</timebase>
							<ntsc>TRUE</ntsc>
						</rate>
						<rate>
							<timebase>60</timebase>
							<ntsc>TRUE</ntsc>
						</rate>
						<duration>66</duration>
						<start>618</start>
						<end>684</end>
						<in>0</in>
						<out>66</out>
					</clipitem>
					<clipitem frameBlend="FALSE" id="clipitem-telop-77">
						<file id="file-2"/>
						<name></name>
						<rate>
							<timebase>60</timebase>
							<ntsc>TRUE</ntsc>
						</rate>
						<rate>
							<timebase>60</timebase>
							<ntsc>TRUE</ntsc>
						</rate>
						<duration>60</duration>
						<start>708</start>
						<end>768</end>
						<in>0</in>
						<out>60</out>
					</clipitem>
					<clipitem frameBlend="FALSE" id="clipitem-telop-86">
						<file id="file-2"/>
						<name></name>
						<rate>
							<timebase>60</timebase>
							<ntsc>TRUE</ntsc>
						</rate>
						<rate>
							<timebase>60</timebase>
							<ntsc>TRUE</ntsc>
						</rate>
						<duration>60</duration>
						<start>792</start>
						<end>852</end>
						<in>0</in>
						<out>60</out>
					</clipitem>
					<clipitem frameBlend="FALSE" id="clipitem-telop-97">
						<file id="file-2"/>
						<name></name>
						<rate>
							<timebase>60</timebase>
							<ntsc>TRUE</ntsc>
						</rate>
						<rate>
							<timebase>60</timebase>
							<ntsc>TRUE</ntsc>
						</rate>
						<duration>60</duration>
						<start>852</start>
						<end>912</end>
						<in>0</in>
						<out>60</out>
					</clipitem>
					<clipitem frameBlend="FALSE" id="clipitem-telop-107">
						<file id="file-2"/>
						<name></name>
						<rate>
							<timebase>60</timebase>
							<ntsc>TRUE</ntsc>
						</rate>
						<rate>
							<timebase>60</timebase>
							<ntsc>TRUE</ntsc>
						</rate>
						<duration>66</duration>
						<start>912</start>
						<end>978</end>
						<in>0</in>
						<out>66</out>
					</clipitem>
					<clipitem frameBlend="FALSE" id="clipitem-telop-117">
						<file id="file-2"/>
						<name></name>
						<rate>
							<timebase>60</timebase>
							<ntsc>TRUE</ntsc>
						</rate>
						<rate>
							<timebase>60</timebase>
							<ntsc>TRUE</ntsc>
						</rate>
						<duration>60</duration>
						<start>978</start>
						<end>1038</end>
						<in>0</in>
						<out>60</out>
					</clipitem>
					<clipitem frameBlend="FALSE" id="clipitem-telop-129">
						<file id="file-2"/>
						<name></name>
						<rate>
							<timebase>60</timebase>
							<ntsc>TRUE</ntsc>
						</rate>
						<rate>
							<timebase>60</timebase>
							<ntsc>TRUE</ntsc>
						</rate>
						<duration>60</duration>
						<start>1038</start>
						<end>1098</end>
						<in>0</in>
						<out>60</out>
					</clipitem>
					<clipitem frameBlend="FALSE" id="clipitem-telop-142">
						<file id="file-2"/>
						<name></name>
						<rate>
							<timebase>60</timebase>
							<ntsc>TRUE</ntsc>
						</rate>
						<rate>
							<timebase>60</timebase>
							<ntsc>TRUE</ntsc>
						</rate>
						<duration>66</duration>
						<start>1170</start>
						<end>1236</end>
						<in>0</in>
						<out>66</out>
					</clipitem>
					<clipitem frameBlend="FALSE" id="clipitem-telop-152">
						<file id="file-2"/>
						<name></name>
						<rate>
							<timebase>60</timebase>
							<ntsc>TRUE</ntsc>
						</rate>
						<rate>
							<timebase>60</timebase>
							<ntsc>TRUE</ntsc>
						</rate>
						<duration>60</duration>
						<start>1266</start>
						<end>1326</end>
						<in>0</in>
						<out>60</out>
					</clipitem>
					<clipitem frameBlend="FALSE" id="clipitem-telop-162">
						<file id="file-2"/>
						<name></name>
						<rate>
							<timebase>60</timebase>
							<ntsc>TRUE</ntsc>
						</rate>
						<rate>
							<timebase>60</timebase>
							<ntsc>TRUE</ntsc>
						</rate>
						<duration>60</duration>
						<start>1368</start>
						<end>1428</end>
						<in>0</in>
						<out>60</out>
					</clipitem>
					<clipitem frameBlend="FALSE" id="clipitem-telop-171">
						<file id="file-2"/>
						<name></name>
						<rate>
							<timebase>60</timebase>
							<ntsc>TRUE</ntsc>
						</rate>
						<rate>
							<timebase>60</timebase>
							<ntsc>TRUE</ntsc>
						</rate>
						<duration>60</duration>
						<start>1434</start>
						<end>1494</end>
						<in>0</in>
						<out>60</out>
					</clipitem>
					<clipitem frameBlend="FALSE" id="clipitem-telop-181">
						<file id="file-2"/>
						<name></name>
						<rate>
							<timebase>60</timebase>
							<ntsc>TRUE</ntsc>
						</rate>
						<rate>
							<timebase>60</timebase>
							<ntsc>TRUE</ntsc>
						</rate>
						<duration>60</duration>
						<start>1530</start>
						<end>1590</end>
						<in>0</in>
						<out>60</out>
					</clipitem>
					<clipitem frameBlend="FALSE" id="clipitem-telop-190">
						<file id="file-2"/>
						<name></name>
						<rate>
							<timebase>60</timebase>
							<ntsc>TRUE</ntsc>
						</rate>
						<rate>
							<timebase>60</timebase>
							<ntsc>TRUE</ntsc>
						</rate>
						<duration>60</duration>
						<start>1614</start>
						<end>1674</end>
						<in>0</in>
						<out>60</out>
					</clipitem>
					<clipitem frameBlend="FALSE" id="clipitem-telop-204">
						<file id="file-2"/>
						<name></name>
						<rate>
							<timebase>60</timebase>
							<ntsc>TRUE</ntsc>
						</rate>
						<rate>
							<timebase>60</timebase>
							<ntsc>TRUE</ntsc>
						</rate>
						<duration>66</duration>
						<start>1734</start>
						<end>1800</end>
						<in>0</in>
						<out>66</out>
					</clipitem>
					<clipitem frameBlend="FALSE" id="clipitem-telop-213">
						<file id="file-2"/>
						<name></name>
						<rate>
							<timebase>60</timebase>
							<ntsc>TRUE</ntsc>
						</rate>
						<rate>
							<timebase>60</timebase>
							<ntsc>TRUE</ntsc>
						</rate>
						<duration>60</duration>
						<start>1800</start>
						<end>1860</end>
						<in>0</in>
						<out>60</out>
					</clipitem>
					<clipitem frameBlend="FALSE" id="clipitem-telop-226">
						<file id="file-2"/>
						<name></name>
						<rate>
							<timebase>60</timebase>
							<ntsc>TRUE</ntsc>
						</rate>
						<rate>
							<timebase>60</timebase>
							<ntsc>TRUE</ntsc>
						</rate>
						<duration>60</duration>
						<start>1908</start>
						<end>1968</end>
						<in>0</in>
						<out>60</out>
					</clipitem>
					<clipitem frameBlend="FALSE" id="clipitem-telop-235">
						<file id="file-2"/>
						<name></name>
						<rate>
							<timebase>60</timebase>
							<ntsc>TRUE</ntsc>
						</rate>
						<rate>
							<timebase>60</timebase>
							<ntsc>TRUE</ntsc>
						</rate>
						<duration>60</duration>
						<start>1974</start>
						<end>2034</end>
						<in>0</in>
						<out>60</out>
					</clipitem>
					<clipitem frameBlend="FALSE" id="clipitem-telop-249">
						<file id="file-2"/>
						<name></name>
						<rate>
							<timebase>60</timebase>
							<ntsc>TRUE</ntsc>
						</rate>
						<rate>
							<timebase>60</timebase>
							<ntsc>TRUE</ntsc>
						</rate>
						<duration>60</duration>
						<start>2184</start>
						<end>2244</end>
						<in>0</in>
						<out>60</out>
					</clipitem>
					<clipitem frameBlend="FALSE" id="clipitem-telop-258">
						<file id="file-2"/>
						<name></name>
						<rate>
							<timebase>60</timebase>
							<ntsc>TRUE</ntsc>
						</rate>
						<rate>
							<timebase>60</timebase>
							<ntsc>TRUE</ntsc>
						</rate>
						<duration>60</duration>
						<start>2328</start>
						<end>2388</end>
						<in>0</in>
						<out>60</out>
					</clipitem>
					<clipitem frameBlend="FALSE" id="clipitem-telop-267">
						<file id="file-2"/>
						<name></name>
						<rate>
							<timebase>60</timebase>
							<ntsc>TRUE</ntsc>
						</rate>
						<rate>
							<timebase>60</timebase>
							<ntsc>TRUE</ntsc>
						</rate>
						<duration>60</duration>
						<start>2454</start>
						<end>2514</end>
						<in>0</in>
						<out>60</out>
					</clipitem>
					<clipitem frameBlend="FALSE" id="clipitem-telop-275">
						<file id="file-2"/>
						<name></name>
						<rate>
							<timebase>60</timebase>
							<ntsc>TRUE</ntsc>
						</rate>
						<rate>
							<timebase>60</timebase>
							<ntsc>TRUE</ntsc>
						</rate>
						<duration>60</duration>
						<start>2556</start>
						<end>2616</end>
						<in>0</in>
						<out>60</out>
					</clipitem>
					<clipitem frameBlend="FALSE" id="clipitem-telop-284">
						<file id="file-2"/>
						<name></name>
						<rate>
							<timebase>60</timebase>
							<ntsc>TRUE</ntsc>
						</rate>
						<rate>
							<timebase>60</timebase>
							<ntsc>TRUE</ntsc>
						</rate>
						<duration>66</duration>
						<start>2628</start>
						<end>2694</end>
						<in>0</in>
						<out>66</out>
					</clipitem>
					<clipitem frameBlend="FALSE" id="clipitem-telop-293">
						<file id="file-2"/>
						<name></name>
						<rate>
							<timebase>60</timebase>
							<ntsc>TRUE</ntsc>
						</rate>
						<rate>
							<timebase>60</timebase>
							<ntsc>TRUE</ntsc>
						</rate>
						<duration>60</duration>
						<start>2700</start>
						<end>2760</end>
						<in>0</in>
						<out>60</out>
					</clipitem>
					<clipitem frameBlend="FALSE" id="clipitem-telop-300">
						<file id="file-2"/>
						<name></name>
						<rate>
							<timebase>60</timebase>
							<ntsc>TRUE</ntsc>
						</rate>
						<rate>
							<timebase>60</timebase>
							<ntsc>TRUE</ntsc>
						</rate>
						<duration>60</duration>
						<start>2766</start>
						<end>2826</end>
						<in>0</in>
						<out>60</out>
					</clipitem>
					<clipitem frameBlend="FALSE" id="clipitem-telop-308">
						<file id="file-2"/>
						<name></name>
						<rate>
							<timebase>60</timebase>
							<ntsc>TRUE</ntsc>
						</rate>
						<rate>
							<timebase>60</timebase>
							<ntsc>TRUE</ntsc>
						</rate>
						<duration>66</duration>
						<start>2832</start>
						<end>2898</end>
						<in>0</in>
						<out>66</out>
					</clipitem>
					<clipitem frameBlend="FALSE" id="clipitem-telop-320">
						<file id="file-2"/>
						<name></name>
						<rate>
							<timebase>60</timebase>
							<ntsc>TRUE</ntsc>
						</rate>
						<rate>
							<timebase>60</timebase>
							<ntsc>TRUE</ntsc>
						</rate>
						<duration>60</duration>
						<start>2952</start>
						<end>3012</end>
						<in>0</in>
						<out>60</out>
					</clipitem>
					<clipitem frameBlend="FALSE" id="clipitem-telop-328">
						<file id="file-2"/>
						<name></name>
						<rate>
							<timebase>60</timebase>
							<ntsc>TRUE</ntsc>
						</rate>
						<rate>
							<timebase>60</timebase>
							<ntsc>TRUE</ntsc>
						</rate>
						<duration>66</duration>
						<start>3024</start>
						<end>3090</end>
						<in>0</in>
						<out>66</out>
					</clipitem>
					<clipitem frameBlend="FALSE" id="clipitem-telop-339">
						<file id="file-2"/>
						<name></name>
						<rate>
							<timebase>60</timebase>
							<ntsc>TRUE</ntsc>
						</rate>
						<rate>
							<timebase>60</timebase>
							<ntsc>TRUE</ntsc>
						</rate>
						<duration>66</duration>
						<start>3126</start>
						<end>3192</end>
						<in>0</in>
						<out>66</out>
					</clipitem>
					<clipitem frameBlend="FALSE" id="clipitem-telop-348">
						<file id="file-2"/>
						<name></name>
						<rate>
							<timebase>60</timebase>
							<ntsc>TRUE</ntsc>
						</rate>
						<rate>
							<timebase>60</timebase>
							<ntsc>TRUE</ntsc>
						</rate>
						<duration>60</duration>
						<start>3210</start>
						<end>3270</end>
						<in>0</in>
						<out>60</out>
					</clipitem>
					<clipitem frameBlend="FALSE" id="clipitem-telop-360">
						<file id="file-2"/>
						<name>?</name>
						<rate>
							<timebase>60</timebase>
							<ntsc>TRUE</ntsc>
						</rate>
						<rate>
							<timebase>60</timebase>
							<ntsc>TRUE</ntsc>
						</rate>
						<duration>120</duration>
						<start>3300</start>
						<end>3420</end>
						<in>0</in>
						<out>120</out>
					</clipitem>
					<clipitem frameBlend="FALSE" id="clipitem-telop-378">
						<file id="file-2"/>
						<name></name>
						<rate>
							<timebase>60</timebase>
							<ntsc>TRUE</ntsc>
						</rate>
						<rate>
							<timebase>60</timebase>
							<ntsc>TRUE</ntsc>
						</rate>
						<duration>60</duration>
						<start>3468</start>
						<end>3528</end>
						<in>0</in>
						<out>60</out>
					</clipitem>
					<clipitem frameBlend="FALSE" id="clipitem-telop-392">
						<file id="file-2"/>
						<name></name>
						<rate>
							<timebase>60</timebase>
							<ntsc>TRUE</ntsc>
						</rate>
						<rate>
							<timebase>60</timebase>
							<ntsc>TRUE</ntsc>
						</rate>
						<duration>60</duration>
						<start>3618</start>
						<end>3678</end>
						<in>0</in>
						<out>60</out>
					</clipitem>
					<clipitem frameBlend="FALSE" id="clipitem-telop-403">
						<file id="file-2"/>
						<name></name>
						<rate>
							<timebase>60</timebase>
							<ntsc>TRUE</ntsc>
						</rate>
						<rate>
							<timebase>60</timebase>
							<ntsc>TRUE</ntsc>
						</rate>
						<duration>60</duration>
						<start>3714</start>
						<end>3774</end>
						<in>0</in>
						<out>60</out>
					</clipitem>
					<clipitem frameBlend="FALSE" id="clipitem-telop-417">
						<file id="file-2"/>
						<name></name>
						<rate>
							<timebase>60</timebase>
							<ntsc>TRUE</ntsc>
						</rate>
						<rate>
							<timebase>60</timebase>
							<ntsc>TRUE</ntsc>
						</rate>
						<duration>60</duration>
						<start>3810</start>
						<end>3870</end>
						<in>0</in>
						<out>60</out>
					</clipitem>
					<clipitem frameBlend="FALSE" id="clipitem-telop-426">
						<file id="file-2"/>
						<name></name>
						<rate>
							<timebase>60</timebase>
							<ntsc>TRUE</ntsc>
						</rate>
						<rate>
							<timebase>60</timebase>
							<ntsc>TRUE</ntsc>
						</rate>
						<duration>60</duration>
						<start>3882</start>
						<end>3942</end>
						<in>0</in>
						<out>60</out>
					</clipitem>
					<clipitem frameBlend="FALSE" id="clipitem-telop-439">
						<file id="file-2"/>
						<name></name>
						<rate>
							<timebase>60</timebase>
							<ntsc>TRUE</ntsc>
						</rate>
						<rate>
							<timebase>60</timebase>
							<ntsc>TRUE</ntsc>
						</rate>
						<duration>60</duration>
						<start>4104</start>
						<end>4164</end>
						<in>0</in>
						<out>60</out>
					</clipitem>
					<clipitem frameBlend="FALSE" id="clipitem-telop-449">
						<file id="file-2"/>
						<name></name>
						<rate>
							<timebase>60</timebase>
							<ntsc>TRUE</ntsc>
						</rate>
						<rate>
							<timebase>60</timebase>
							<ntsc>TRUE</ntsc>
						</rate>
						<duration>60</duration>
						<start>4236</start>
						<end>4296</end>
						<in>0</in>
						<out>60</out>
					</clipitem>
					<clipitem frameBlend="FALSE" id="clipitem-telop-457">
						<file id="file-2"/>
						<name></name>
						<rate>
							<timebase>60</timebase>
							<ntsc>TRUE</ntsc>
						</rate>
						<rate>
							<timebase>60</timebase>
							<ntsc>TRUE</ntsc>
						</rate>
						<duration>60</duration>
						<start>4302</start>
						<end>4362</end>
						<in>0</in>
						<out>60</out>
					</clipitem>
					<clipitem frameBlend="FALSE" id="clipitem-telop-466">
						<file id="file-2"/>
						<name></name>
						<rate>
							<timebase>60</timebase>
							<ntsc>TRUE</ntsc>
						</rate>
						<rate>
							<timebase>60</timebase>
							<ntsc>TRUE</ntsc>
						</rate>
						<duration>60</duration>
						<start>4380</start>
						<end>4440</end>
						<in>0</in>
						<out>60</out>
					</clipitem>
					<clipitem frameBlend="FALSE" id="clipitem-telop-475">
						<file id="file-2"/>
						<name></name>
						<rate>
							<timebase>60</timebase>
							<ntsc>TRUE</ntsc>
						</rate>
						<rate>
							<timebase>60</timebase>
							<ntsc>TRUE</ntsc>
						</rate>
						<duration>60</duration>
						<start>4446</start>
						<end>4506</end>
						<in>0</in>
						<out>60</out>
					</clipitem>
					<clipitem frameBlend="FALSE" id="clipitem-telop-487">
						<file id="file-2"/>
						<name></name>
						<rate>
							<timebase>60</timebase>
							<ntsc>TRUE</ntsc>
						</rate>
						<rate>
							<timebase>60</timebase>
							<ntsc>TRUE</ntsc>
						</rate>
						<duration>60</duration>
						<start>4506</start>
						<end>4566</end>
						<in>0</in>
						<out>60</out>
					</clipitem>
					<clipitem frameBlend="FALSE" id="clipitem-telop-493">
						<file id="file-2"/>
						<name></name>
						<rate>
							<timebase>60</timebase>
							<ntsc>TRUE</ntsc>
						</rate>
						<rate>
							<timebase>60</timebase>
							<ntsc>TRUE</ntsc>
						</rate>
						<duration>60</duration>
						<start>4584</start>
						<end>4644</end>
						<in>0</in>
						<out>60</out>
					</clipitem>
					<clipitem frameBlend="FALSE" id="clipitem-telop-507">
						<file id="file-2"/>
						<name></name>
						<rate>
							<timebase>60</timebase>
							<ntsc>TRUE</ntsc>
						</rate>
						<rate>
							<timebase>60</timebase>
							<ntsc>TRUE</ntsc>
						</rate>
						<duration>60</duration>
						<start>4710</start>
						<end>4770</end>
						<in>0</in>
						<out>60</out>
					</clipitem>
					<clipitem frameBlend="FALSE" id="clipitem-telop-518">
						<file id="file-2"/>
						<name></name>
						<rate>
							<timebase>60</timebase>
							<ntsc>TRUE</ntsc>
						</rate>
						<rate>
							<timebase>60</timebase>
							<ntsc>TRUE</ntsc>
						</rate>
						<duration>60</duration>
						<start>4824</start>
						<end>4884</end>
						<in>0</in>
						<out>60</out>
					</clipitem>
					<clipitem frameBlend="FALSE" id="clipitem-telop-530">
						<file id="file-2"/>
						<name></name>
						<rate>
							<timebase>60</timebase>
							<ntsc>TRUE</ntsc>
						</rate>
						<rate>
							<timebase>60</timebase>
							<ntsc>TRUE</ntsc>
						</rate>
						<duration>60</duration>
						<start>4926</start>
						<end>4986</end>
						<in>0</in>
						<out>60</out>
					</clipitem>
					<clipitem frameBlend="FALSE" id="clipitem-telop-539">
						<file id="file-2"/>
						<name></name>
						<rate>
							<timebase>60</timebase>
							<ntsc>TRUE</ntsc>
						</rate>
						<rate>
							<timebase>60</timebase>
							<ntsc>TRUE</ntsc>
						</rate>
						<duration>60</duration>
						<start>5028</start>
						<end>5088</end>
						<in>0</in>
						<out>60</out>
					</clipitem>
					<clipitem frameBlend="FALSE" id="clipitem-telop-549">
						<file id="file-2"/>
						<name></name>
						<rate>
							<timebase>60</timebase>
							<ntsc>TRUE</ntsc>
						</rate>
						<rate>
							<timebase>60</timebase>
							<ntsc>TRUE</ntsc>
						</rate>
						<duration>60</duration>
						<start>5106</start>
						<end>5166</end>
						<in>0</in>
						<out>60</out>
					</clipitem>
					<clipitem frameBlend="FALSE" id="clipitem-telop-564">
						<file id="file-2"/>
						<name></name>
						<rate>
							<timebase>60</timebase>
							<ntsc>TRUE</ntsc>
						</rate>
						<rate>
							<timebase>60</timebase>
							<ntsc>TRUE</ntsc>
						</rate>
						<duration>60</duration>
						<start>5268</start>
						<end>5328</end>
						<in>0</in>
						<out>60</out>
					</clipitem>
					<clipitem frameBlend="FALSE" id="clipitem-telop-575">
						<file id="file-2"/>
						<name></name>
						<rate>
							<timebase>60</timebase>
							<ntsc>TRUE</ntsc>
						</rate>
						<rate>
							<timebase>60</timebase>
							<ntsc>TRUE</ntsc>
						</rate>
						<duration>60</duration>
						<start>5352</start>
						<end>5412</end>
						<in>0</in>
						<out>60</out>
					</clipitem>
					<clipitem frameBlend="FALSE" id="clipitem-telop-587">
						<file id="file-2"/>
						<name></name>
						<rate>
							<timebase>60</timebase>
							<ntsc>TRUE</ntsc>
						</rate>
						<rate>
							<timebase>60</timebase>
							<ntsc>TRUE</ntsc>
						</rate>
						<duration>60</duration>
						<start>5526</start>
						<end>5586</end>
						<in>0</in>
						<out>60</out>
					</clipitem>
					<clipitem frameBlend="FALSE" id="clipitem-telop-598">
						<file id="file-2"/>
						<name>w</name>
						<rate>
							<timebase>60</timebase>
							<ntsc>TRUE</ntsc>
						</rate>
						<rate>
							<timebase>60</timebase>
							<ntsc>TRUE</ntsc>
						</rate>
						<duration>24</duration>
						<start>5586</start>
						<end>5610</end>
						<in>0</in>
						<out>24</out>
					</clipitem>
					<clipitem frameBlend="FALSE" id="clipitem-telop-602">
						<file id="file-2"/>
						<name></name>
						<rate>
							<timebase>60</timebase>
							<ntsc>TRUE</ntsc>
						</rate>
						<rate>
							<timebase>60</timebase>
							<ntsc>TRUE</ntsc>
						</rate>
						<duration>60</duration>
						<start>5616</start>
						<end>5676</end>
						<in>0</in>
						<out>60</out>
					</clipitem>
					<clipitem frameBlend="FALSE" id="clipitem-telop-617">
						<file id="file-2"/>
						<name></name>
						<rate>
							<timebase>60</timebase>
							<ntsc>TRUE</ntsc>
						</rate>
						<rate>
							<timebase>60</timebase>
							<ntsc>TRUE</ntsc>
						</rate>
						<duration>60</duration>
						<start>5766</start>
						<end>5826</end>
						<in>0</in>
						<out>60</out>
					</clipitem>
					<clipitem frameBlend="FALSE" id="clipitem-telop-630">
						<file id="file-2"/>
						<name></name>
						<rate>
							<timebase>60</timebase>
							<ntsc>TRUE</ntsc>
						</rate>
						<rate>
							<timebase>60</timebase>
							<ntsc>TRUE</ntsc>
						</rate>
						<duration>66</duration>
						<start>5832</start>
						<end>5898</end>
						<in>0</in>
						<out>66</out>
					</clipitem>
					<clipitem frameBlend="FALSE" id="clipitem-telop-637">
						<file id="file-2"/>
						<name></name>
						<rate>
							<timebase>60</timebase>
							<ntsc>TRUE</ntsc>
						</rate>
						<rate>
							<timebase>60</timebase>
							<ntsc>TRUE</ntsc>
						</rate>
						<duration>60</duration>
						<start>5922</start>
						<end>5982</end>
						<in>0</in>
						<out>60</out>
					</clipitem>
					<clipitem frameBlend="FALSE" id="clipitem-telop-647">
						<file id="file-2"/>
						<name></name>
						<rate>
							<timebase>60</timebase>
							<ntsc>TRUE</ntsc>
						</rate>
						<rate>
							<timebase>60</timebase>
							<ntsc>TRUE</ntsc>
						</rate>
						<duration>60</duration>
						<start>6012</start>
						<end>6072</end>
						<in>0</in>
						<out>60</out>
					</clipitem>
					<clipitem frameBlend="FALSE" id="clipitem-telop-656">
						<file id="file-2"/>
						<name></name>
						<rate>
							<timebase>60</timebase>
							<ntsc>TRUE</ntsc>
						</rate>
						<rate>
							<timebase>60</timebase>
							<ntsc>TRUE</ntsc>
						</rate>
						<duration>60</duration>
						<start>6090</start>
						<end>6150</end>
						<in>0</in>
						<out>60</out>
					</clipitem>
					<clipitem frameBlend="FALSE" id="clipitem-telop-668">
						<file id="file-2"/>
						<name></name>
						<rate>
							<timebase>60</timebase>
							<ntsc>TRUE</ntsc>
						</rate>
						<rate>
							<timebase>60</timebase>
							<ntsc>TRUE</ntsc>
						</rate>
						<duration>66</duration>
						<start>6174</start>
						<end>6240</end>
						<in>0</in>
						<out>66</out>
					</clipitem>
					<clipitem frameBlend="FALSE" id="clipitem-telop-676">
						<file id="file-2"/>
						<name>w</name>
						<rate>
							<timebase>60</timebase>
							<ntsc>TRUE</ntsc>
						</rate>
						<rate>
							<timebase>60</timebase>
							<ntsc>TRUE</ntsc>
						</rate>
						<duration>24</duration>
						<start>6240</start>
						<end>6264</end>
						<in>0</in>
						<out>24</out>
					</clipitem>
					<clipitem frameBlend="FALSE" id="clipitem-telop-682">
						<file id="file-2"/>
						<name></name>
						<rate>
							<timebase>60</timebase>
							<ntsc>TRUE</ntsc>
						</rate>
						<rate>
							<timebase>60</timebase>
							<ntsc>TRUE</ntsc>
						</rate>
						<duration>60</duration>
						<start>6282</start>
						<end>6342</end>
						<in>0</in>
						<out>60</out>
					</clipitem>
					<clipitem frameBlend="FALSE" id="clipitem-telop-695">
						<file id="file-2"/>
						<name></name>
						<rate>
							<timebase>60</timebase>
							<ntsc>TRUE</ntsc>
						</rate>
						<rate>
							<timebase>60</timebase>
							<ntsc>TRUE</ntsc>
						</rate>
						<duration>60</duration>
						<start>6372</start>
						<end>6432</end>
						<in>0</in>
						<out>60</out>
					</clipitem>
					<clipitem frameBlend="FALSE" id="clipitem-telop-707">
						<file id="file-2"/>
						<name></name>
						<rate>
							<timebase>60</timebase>
							<ntsc>TRUE</ntsc>
						</rate>
						<rate>
							<timebase>60</timebase>
							<ntsc>TRUE</ntsc>
						</rate>
						<duration>60</duration>
						<start>6474</start>
						<end>6534</end>
						<in>0</in>
						<out>60</out>
					</clipitem>
					<clipitem frameBlend="FALSE" id="clipitem-telop-715">
						<file id="file-2"/>
						<name></name>
						<rate>
							<timebase>60</timebase>
							<ntsc>TRUE</ntsc>
						</rate>
						<rate>
							<timebase>60</timebase>
							<ntsc>TRUE</ntsc>
						</rate>
						<duration>60</duration>
						<start>6570</start>
						<end>6630</end>
						<in>0</in>
						<out>60</out>
					</clipitem>
					<clipitem frameBlend="FALSE" id="clipitem-telop-732">
						<file id="file-2"/>
						<name></name>
						<rate>
							<timebase>60</timebase>
							<ntsc>TRUE</ntsc>
						</rate>
						<rate>
							<timebase>60</timebase>
							<ntsc>TRUE</ntsc>
						</rate>
						<duration>66</duration>
						<start>6804</start>
						<end>6870</end>
						<in>0</in>
						<out>66</out>
					</clipitem>
					<clipitem frameBlend="FALSE" id="clipitem-telop-743">
						<file id="file-2"/>
						<name></name>
						<rate>
							<timebase>60</timebase>
							<ntsc>TRUE</ntsc>
						</rate>
						<rate>
							<timebase>60</timebase>
							<ntsc>TRUE</ntsc>
						</rate>
						<duration>60</duration>
						<start>6918</start>
						<end>6978</end>
						<in>0</in>
						<out>60</out>
					</clipitem>
					<clipitem frameBlend="FALSE" id="clipitem-telop-752">
						<file id="file-2"/>
						<name></name>
						<rate>
							<timebase>60</timebase>
							<ntsc>TRUE</ntsc>
						</rate>
						<rate>
							<timebase>60</timebase>
							<ntsc>TRUE</ntsc>
						</rate>
						<duration>60</duration>
						<start>6990</start>
						<end>7050</end>
						<in>0</in>
						<out>60</out>
					</clipitem>
				</track>
				<track>
					<clipitem frameBlend="FALSE" id="clipitem-telop-8">
						<file id="file-2"/>
						<name></name>
						<rate>
							<timebase>60</timebase>
							<ntsc>TRUE</ntsc>
						</rate>
						<rate>
							<timebase>60</timebase>
							<ntsc>TRUE</ntsc>
						</rate>
						<duration>60</duration>
						<start>90</start>
						<end>150</end>
						<in>0</in>
						<out>60</out>
					</clipitem>
					<clipitem frameBlend="FALSE" id="clipitem-telop-16">
						<file id="file-2"/>
						<name></name>
						<rate>
							<timebase>60</timebase>
							<ntsc>TRUE</ntsc>
						</rate>
						<rate>
							<timebase>60</timebase>
							<ntsc>TRUE</ntsc>
						</rate>
						<duration>60</duration>
						<start>156</start>
						<end>216</end>
						<in>0</in>
						<out>60</out>
					</clipitem>
					<clipitem frameBlend="FALSE" id="clipitem-telop-23">
						<file id="file-2"/>
						<name></name>
						<rate>
							<timebase>60</timebase>
							<ntsc>TRUE</ntsc>
						</rate>
						<rate>
							<timebase>60</timebase>
							<ntsc>TRUE</ntsc>
						</rate>
						<duration>60</duration>
						<start>264</start>
						<end>324</end>
						<in>0</in>
						<out>60</out>
					</clipitem>
					<clipitem frameBlend="FALSE" id="clipitem-telop-31">
						<file id="file-2"/>
						<name></name>
						<rate>
							<timebase>60</timebase>
							<ntsc>TRUE</ntsc>
						</rate>
						<rate>
							<timebase>60</timebase>
							<ntsc>TRUE</ntsc>
						</rate>
						<duration>66</duration>
						<start>324</start>
						<end>390</end>
						<in>0</in>
						<out>66</out>
					</clipitem>
					<clipitem frameBlend="FALSE" id="clipitem-telop-47">
						<file id="file-2"/>
						<name></name>
						<rate>
							<timebase>60</timebase>
							<ntsc>TRUE</ntsc>
						</rate>
						<rate>
							<timebase>60</timebase>
							<ntsc>TRUE</ntsc>
						</rate>
						<duration>60</duration>
						<start>486</start>
						<end>546</end>
						<in>0</in>
						<out>60</out>
					</clipitem>
					<clipitem frameBlend="FALSE" id="clipitem-telop-59">
						<file id="file-2"/>
						<name></name>
						<rate>
							<timebase>60</timebase>
							<ntsc>TRUE</ntsc>
						</rate>
						<rate>
							<timebase>60</timebase>
							<ntsc>TRUE</ntsc>
						</rate>
						<duration>60</duration>
						<start>582</start>
						<end>642</end>
						<in>0</in>
						<out>60</out>
					</clipitem>
					<clipitem frameBlend="FALSE" id="clipitem-telop-68">
						<file id="file-2"/>
						<name></name>
						<rate>
							<timebase>60</timebase>
							<ntsc>TRUE</ntsc>
						</rate>
						<rate>
							<timebase>60</timebase>
							<ntsc>TRUE</ntsc>
						</rate>
						<duration>60</duration>
						<start>642</start>
						<end>702</end>
						<in>0</in>
						<out>60</out>
					</clipitem>
					<clipitem frameBlend="FALSE" id="clipitem-telop-79">
						<file id="file-2"/>
						<name></name>
						<rate>
							<timebase>60</timebase>
							<ntsc>TRUE</ntsc>
						</rate>
						<rate>
							<timebase>60</timebase>
							<ntsc>TRUE</ntsc>
						</rate>
						<duration>60</duration>
						<start>720</start>
						<end>780</end>
						<in>0</in>
						<out>60</out>
					</clipitem>
					<clipitem frameBlend="FALSE" id="clipitem-telop-87">
						<file id="file-2"/>
						<name></name>
						<rate>
							<timebase>60</timebase>
							<ntsc>TRUE</ntsc>
						</rate>
						<rate>
							<timebase>60</timebase>
							<ntsc>TRUE</ntsc>
						</rate>
						<duration>60</duration>
						<start>792</start>
						<end>852</end>
						<in>0</in>
						<out>60</out>
					</clipitem>
					<clipitem frameBlend="FALSE" id="clipitem-telop-99">
						<file id="file-2"/>
						<name></name>
						<rate>
							<timebase>60</timebase>
							<ntsc>TRUE</ntsc>
						</rate>
						<rate>
							<timebase>60</timebase>
							<ntsc>TRUE</ntsc>
						</rate>
						<duration>60</duration>
						<start>870</start>
						<end>930</end>
						<in>0</in>
						<out>60</out>
					</clipitem>
					<clipitem frameBlend="FALSE" id="clipitem-telop-109">
						<file id="file-2"/>
						<name></name>
						<rate>
							<timebase>60</timebase>
							<ntsc>TRUE</ntsc>
						</rate>
						<rate>
							<timebase>60</timebase>
							<ntsc>TRUE</ntsc>
						</rate>
						<duration>66</duration>
						<start>930</start>
						<end>996</end>
						<in>0</in>
						<out>66</out>
					</clipitem>
					<clipitem frameBlend="FALSE" id="clipitem-telop-123">
						<file id="file-2"/>
						<name></name>
						<rate>
							<timebase>60</timebase>
							<ntsc>TRUE</ntsc>
						</rate>
						<rate>
							<timebase>60</timebase>
							<ntsc>TRUE</ntsc>
						</rate>
						<duration>60</duration>
						<start>996</start>
						<end>1056</end>
						<in>0</in>
						<out>60</out>
					</clipitem>
					<clipitem frameBlend="FALSE" id="clipitem-telop-131">
						<file id="file-2"/>
						<name></name>
						<rate>
							<timebase>60</timebase>
							<ntsc>TRUE</ntsc>
						</rate>
						<rate>
							<timebase>60</timebase>
							<ntsc>TRUE</ntsc>
						</rate>
						<duration>60</duration>
						<start>1062</start>
						<end>1122</end>
						<in>0</in>
						<out>60</out>
					</clipitem>
					<clipitem frameBlend="FALSE" id="clipitem-telop-145">
						<file id="file-2"/>
						<name></name>
						<rate>
							<timebase>60</timebase>
							<ntsc>TRUE</ntsc>
						</rate>
						<rate>
							<timebase>60</timebase>
							<ntsc>TRUE</ntsc>
						</rate>
						<duration>60</duration>
						<start>1194</start>
						<end>1254</end>
						<in>0</in>
						<out>60</out>
					</clipitem>
					<clipitem frameBlend="FALSE" id="clipitem-telop-155">
						<file id="file-2"/>
						<name></name>
						<rate>
							<timebase>60</timebase>
							<ntsc>TRUE</ntsc>
						</rate>
						<rate>
							<timebase>60</timebase>
							<ntsc>TRUE</ntsc>
						</rate>
						<duration>60</duration>
						<start>1296</start>
						<end>1356</end>
						<in>0</in>
						<out>60</out>
					</clipitem>
					<clipitem frameBlend="FALSE" id="clipitem-telop-163">
						<file id="file-2"/>
						<name></name>
						<rate>
							<timebase>60</timebase>
							<ntsc>TRUE</ntsc>
						</rate>
						<rate>
							<timebase>60</timebase>
							<ntsc>TRUE</ntsc>
						</rate>
						<duration>60</duration>
						<start>1374</start>
						<end>1434</end>
						<in>0</in>
						<out>60</out>
					</clipitem>
					<clipitem frameBlend="FALSE" id="clipitem-telop-174">
						<file id="file-2"/>
						<name></name>
						<rate>
							<timebase>60</timebase>
							<ntsc>TRUE</ntsc>
						</rate>
						<rate>
							<timebase>60</timebase>
							<ntsc>TRUE</ntsc>
						</rate>
						<duration>60</duration>
						<start>1452</start>
						<end>1512</end>
						<in>0</in>
						<out>60</out>
					</clipitem>
					<clipitem frameBlend="FALSE" id="clipitem-telop-184">
						<file id="file-2"/>
						<name></name>
						<rate>
							<timebase>60</timebase>
							<ntsc>TRUE</ntsc>
						</rate>
						<rate>
							<timebase>60</timebase>
							<ntsc>TRUE</ntsc>
						</rate>
						<duration>60</duration>
						<start>1554</start>
						<end>1614</end>
						<in>0</in>
						<out>60</out>
					</clipitem>
					<clipitem frameBlend="FALSE" id="clipitem-telop-192">
						<file id="file-2"/>
						<name></name>
						<rate>
							<timebase>60</timebase>
							<ntsc>TRUE</ntsc>
						</rate>
						<rate>
							<timebase>60</timebase>
							<ntsc>TRUE</ntsc>
						</rate>
						<duration>66</duration>
						<start>1626</start>
						<end>1692</end>
						<in>0</in>
						<out>66</out>
					</clipitem>
					<clipitem frameBlend="FALSE" id="clipitem-telop-205">
						<file id="file-2"/>
						<name></name>
						<rate>
							<timebase>60</timebase>
							<ntsc>TRUE</ntsc>
						</rate>
						<rate>
							<timebase>60</timebase>
							<ntsc>TRUE</ntsc>
						</rate>
						<duration>60</duration>
						<start>1740</start>
						<end>1800</end>
						<in>0</in>
						<out>60</out>
					</clipitem>
					<clipitem frameBlend="FALSE" id="clipitem-telop-215">
						<file id="file-2"/>
						<name></name>
						<rate>
							<timebase>60</timebase>
							<ntsc>TRUE</ntsc>
						</rate>
						<rate>
							<timebase>60</timebase>
							<ntsc>TRUE</ntsc>
						</rate>
						<duration>60</duration>
						<start>1818</start>
						<end>1878</end>
						<in>0</in>
						<out>60</out>
					</clipitem>
					<clipitem frameBlend="FALSE" id="clipitem-telop-227">
						<file id="file-2"/>
						<name></name>
						<rate>
							<timebase>60</timebase>
							<ntsc>TRUE</ntsc>
						</rate>
						<rate>
							<timebase>60</timebase>
							<ntsc>TRUE</ntsc>
						</rate>
						<duration>60</duration>
						<start>1914</start>
						<end>1974</end>
						<in>0</in>
						<out>60</out>
					</clipitem>
					<clipitem frameBlend="FALSE" id="clipitem-telop-237">
						<file id="file-2"/>
						<name></name>
						<rate>
							<timebase>60</timebase>
							<ntsc>TRUE</ntsc>
						</rate>
						<rate>
							<timebase>60</timebase>
							<ntsc>TRUE</ntsc>
						</rate>
						<duration>60</duration>
						<start>1992</start>
						<end>2052</end>
						<in>0</in>
						<out>60</out>
					</clipitem>
					<clipitem frameBlend="FALSE" id="clipitem-telop-250">
						<file id="file-2"/>
						<name></name>
						<rate>
							<timebase>60</timebase>
							<ntsc>TRUE</ntsc>
						</rate>
						<rate>
							<timebase>60</timebase>
							<ntsc>TRUE</ntsc>
						</rate>
						<duration>60</duration>
						<start>2196</start>
						<end>2256</end>
						<in>0</in>
						<out>60</out>
					</clipitem>
					<clipitem frameBlend="FALSE" id="clipitem-telop-268">
						<file id="file-2"/>
						<name></name>
						<rate>
							<timebase>60</timebase>
							<ntsc>TRUE</ntsc>
						</rate>
						<rate>
							<timebase>60</timebase>
							<ntsc>TRUE</ntsc>
						</rate>
						<duration>60</duration>
						<start>2454</start>
						<end>2514</end>
						<in>0</in>
						<out>60</out>
					</clipitem>
					<clipitem frameBlend="FALSE" id="clipitem-telop-277">
						<file id="file-2"/>
						<name></name>
						<rate>
							<timebase>60</timebase>
							<ntsc>TRUE</ntsc>
						</rate>
						<rate>
							<timebase>60</timebase>
							<ntsc>TRUE</ntsc>
						</rate>
						<duration>66</duration>
						<start>2562</start>
						<end>2628</end>
						<in>0</in>
						<out>66</out>
					</clipitem>
					<clipitem frameBlend="FALSE" id="clipitem-telop-285">
						<file id="file-2"/>
						<name></name>
						<rate>
							<timebase>60</timebase>
							<ntsc>TRUE</ntsc>
						</rate>
						<rate>
							<timebase>60</timebase>
							<ntsc>TRUE</ntsc>
						</rate>
						<duration>60</duration>
						<start>2634</start>
						<end>2694</end>
						<in>0</in>
						<out>60</out>
					</clipitem>
					<clipitem frameBlend="FALSE" id="clipitem-telop-297">
						<file id="file-2"/>
						<name></name>
						<rate>
							<timebase>60</timebase>
							<ntsc>TRUE</ntsc>
						</rate>
						<rate>
							<timebase>60</timebase>
							<ntsc>TRUE</ntsc>
						</rate>
						<duration>66</duration>
						<start>2736</start>
						<end>2802</end>
						<in>0</in>
						<out>66</out>
					</clipitem>
					<clipitem frameBlend="FALSE" id="clipitem-telop-309">
						<file id="file-2"/>
						<name></name>
						<rate>
							<timebase>60</timebase>
							<ntsc>TRUE</ntsc>
						</rate>
						<rate>
							<timebase>60</timebase>
							<ntsc>TRUE</ntsc>
						</rate>
						<duration>66</duration>
						<start>2838</start>
						<end>2904</end>
						<in>0</in>
						<out>66</out>
					</clipitem>
					<clipitem frameBlend="FALSE" id="clipitem-telop-321">
						<file id="file-2"/>
						<name></name>
						<rate>
							<timebase>60</timebase>
							<ntsc>TRUE</ntsc>
						</rate>
						<rate>
							<timebase>60</timebase>
							<ntsc>TRUE</ntsc>
						</rate>
						<duration>60</duration>
						<start>2964</start>
						<end>3024</end>
						<in>0</in>
						<out>60</out>
					</clipitem>
					<clipitem frameBlend="FALSE" id="clipitem-telop-329">
						<file id="file-2"/>
						<name>w</name>
						<rate>
							<timebase>60</timebase>
							<ntsc>TRUE</ntsc>
						</rate>
						<rate>
							<timebase>60</timebase>
							<ntsc>TRUE</ntsc>
						</rate>
						<duration>24</duration>
						<start>3036</start>
						<end>3060</end>
						<in>0</in>
						<out>24</out>
					</clipitem>
					<clipitem frameBlend="FALSE" id="clipitem-telop-340">
						<file id="file-2"/>
						<name></name>
						<rate>
							<timebase>60</timebase>
							<ntsc>TRUE</ntsc>
						</rate>
						<rate>
							<timebase>60</timebase>
							<ntsc>TRUE</ntsc>
						</rate>
						<duration>60</duration>
						<start>3138</start>
						<end>3198</end>
						<in>0</in>
						<out>60</out>
					</clipitem>
					<clipitem frameBlend="FALSE" id="clipitem-telop-349">
						<file id="file-2"/>
						<name></name>
						<rate>
							<timebase>60</timebase>
							<ntsc>TRUE</ntsc>
						</rate>
						<rate>
							<timebase>60</timebase>
							<ntsc>TRUE</ntsc>
						</rate>
						<duration>60</duration>
						<start>3216</start>
						<end>3276</end>
						<in>0</in>
						<out>60</out>
					</clipitem>
					<clipitem frameBlend="FALSE" id="clipitem-telop-364">
						<file id="file-2"/>
						<name></name>
						<rate>
							<timebase>60</timebase>
							<ntsc>TRUE</ntsc>
						</rate>
						<rate>
							<timebase>60</timebase>
							<ntsc>TRUE</ntsc>
						</rate>
						<duration>60</duration>
						<start>3336</start>
						<end>3396</end>
						<in>0</in>
						<out>60</out>
					</clipitem>
					<clipitem frameBlend="FALSE" id="clipitem-telop-371">
						<file id="file-2"/>
						<name></name>
						<rate>
							<timebase>60</timebase>
							<ntsc>TRUE</ntsc>
						</rate>
						<rate>
							<timebase>60</timebase>
							<ntsc>TRUE</ntsc>
						</rate>
						<duration>66</duration>
						<start>3396</start>
						<end>3462</end>
						<in>0</in>
						<out>66</out>
					</clipitem>
					<clipitem frameBlend="FALSE" id="clipitem-telop-379">
						<file id="file-2"/>
						<name></name>
						<rate>
							<timebase>60</timebase>
							<ntsc>TRUE</ntsc>
						</rate>
						<rate>
							<timebase>60</timebase>
							<ntsc>TRUE</ntsc>
						</rate>
						<duration>60</duration>
						<start>3480</start>
						<end>3540</end>
						<in>0</in>
						<out>60</out>
					</clipitem>
					<clipitem frameBlend="FALSE" id="clipitem-telop-393">
						<file id="file-2"/>
						<name></name>
						<rate>
							<timebase>60</timebase>
							<ntsc>TRUE</ntsc>
						</rate>
						<rate>
							<timebase>60</timebase>
							<ntsc>TRUE</ntsc>
						</rate>
						<duration>60</duration>
						<start>3624</start>
						<end>3684</end>
						<in>0</in>
						<out>60</out>
					</clipitem>
					<clipitem frameBlend="FALSE" id="clipitem-telop-404">
						<file id="file-2"/>
						<name></name>
						<rate>
							<timebase>60</timebase>
							<ntsc>TRUE</ntsc>
						</rate>
						<rate>
							<timebase>60</timebase>
							<ntsc>TRUE</ntsc>
						</rate>
						<duration>60</duration>
						<start>3720</start>
						<end>3780</end>
						<in>0</in>
						<out>60</out>
					</clipitem>
					<clipitem frameBlend="FALSE" id="clipitem-telop-418">
						<file id="file-2"/>
						<name></name>
						<rate>
							<timebase>60</timebase>
							<ntsc>TRUE</ntsc>
						</rate>
						<rate>
							<timebase>60</timebase>
							<ntsc>TRUE</ntsc>
						</rate>
						<duration>60</duration>
						<start>3810</start>
						<end>3870</end>
						<in>0</in>
						<out>60</out>
					</clipitem>
					<clipitem frameBlend="FALSE" id="clipitem-telop-450">
						<file id="file-2"/>
						<name></name>
						<rate>
							<timebase>60</timebase>
							<ntsc>TRUE</ntsc>
						</rate>
						<rate>
							<timebase>60</timebase>
							<ntsc>TRUE</ntsc>
						</rate>
						<duration>66</duration>
						<start>4236</start>
						<end>4302</end>
						<in>0</in>
						<out>66</out>
					</clipitem>
					<clipitem frameBlend="FALSE" id="clipitem-telop-458">
						<file id="file-2"/>
						<name></name>
						<rate>
							<timebase>60</timebase>
							<ntsc>TRUE</ntsc>
						</rate>
						<rate>
							<timebase>60</timebase>
							<ntsc>TRUE</ntsc>
						</rate>
						<duration>60</duration>
						<start>4314</start>
						<end>4374</end>
						<in>0</in>
						<out>60</out>
					</clipitem>
					<clipitem frameBlend="FALSE" id="clipitem-telop-469">
						<file id="file-2"/>
						<name></name>
						<rate>
							<timebase>60</timebase>
							<ntsc>TRUE</ntsc>
						</rate>
						<rate>
							<timebase>60</timebase>
							<ntsc>TRUE</ntsc>
						</rate>
						<duration>60</duration>
						<start>4404</start>
						<end>4464</end>
						<in>0</in>
						<out>60</out>
					</clipitem>
					<clipitem frameBlend="FALSE" id="clipitem-telop-481">
						<file id="file-2"/>
						<name></name>
						<rate>
							<timebase>60</timebase>
							<ntsc>TRUE</ntsc>
						</rate>
						<rate>
							<timebase>60</timebase>
							<ntsc>TRUE</ntsc>
						</rate>
						<duration>60</duration>
						<start>4470</start>
						<end>4530</end>
						<in>0</in>
						<out>60</out>
					</clipitem>
					<clipitem frameBlend="FALSE" id="clipitem-telop-494">
						<file id="file-2"/>
						<name></name>
						<rate>
							<timebase>60</timebase>
							<ntsc>TRUE</ntsc>
						</rate>
						<rate>
							<timebase>60</timebase>
							<ntsc>TRUE</ntsc>
						</rate>
						<duration>60</duration>
						<start>4584</start>
						<end>4644</end>
						<in>0</in>
						<out>60</out>
					</clipitem>
					<clipitem frameBlend="FALSE" id="clipitem-telop-510">
						<file id="file-2"/>
						<name></name>
						<rate>
							<timebase>60</timebase>
							<ntsc>TRUE</ntsc>
						</rate>
						<rate>
							<timebase>60</timebase>
							<ntsc>TRUE</ntsc>
						</rate>
						<duration>60</duration>
						<start>4734</start>
						<end>4794</end>
						<in>0</in>
						<out>60</out>
					</clipitem>
					<clipitem frameBlend="FALSE" id="clipitem-telop-520">
						<file id="file-2"/>
						<name></name>
						<rate>
							<timebase>60</timebase>
							<ntsc>TRUE</ntsc>
						</rate>
						<rate>
							<timebase>60</timebase>
							<ntsc>TRUE</ntsc>
						</rate>
						<duration>60</duration>
						<start>4830</start>
						<end>4890</end>
						<in>0</in>
						<out>60</out>
					</clipitem>
					<clipitem frameBlend="FALSE" id="clipitem-telop-540">
						<file id="file-2"/>
						<name></name>
						<rate>
							<timebase>60</timebase>
							<ntsc>TRUE</ntsc>
						</rate>
						<rate>
							<timebase>60</timebase>
							<ntsc>TRUE</ntsc>
						</rate>
						<duration>60</duration>
						<start>5040</start>
						<end>5100</end>
						<in>0</in>
						<out>60</out>
					</clipitem>
					<clipitem frameBlend="FALSE" id="clipitem-telop-550">
						<file id="file-2"/>
						<name></name>
						<rate>
							<timebase>60</timebase>
							<ntsc>TRUE</ntsc>
						</rate>
						<rate>
							<timebase>60</timebase>
							<ntsc>TRUE</ntsc>
						</rate>
						<duration>66</duration>
						<start>5112</start>
						<end>5178</end>
						<in>0</in>
						<out>66</out>
					</clipitem>
					<clipitem frameBlend="FALSE" id="clipitem-telop-567">
						<file id="file-2"/>
						<name></name>
						<rate>
							<timebase>60</timebase>
							<ntsc>TRUE</ntsc>
						</rate>
						<rate>
							<timebase>60</timebase>
							<ntsc>TRUE</ntsc>
						</rate>
						<duration>60</duration>
						<start>5280</start>
						<end>5340</end>
						<in>0</in>
						<out>60</out>
					</clipitem>
					<clipitem frameBlend="FALSE" id="clipitem-telop-588">
						<file id="file-2"/>
						<name></name>
						<rate>
							<timebase>60</timebase>
							<ntsc>TRUE</ntsc>
						</rate>
						<rate>
							<timebase>60</timebase>
							<ntsc>TRUE</ntsc>
						</rate>
						<duration>60</duration>
						<start>5532</start>
						<end>5592</end>
						<in>0</in>
						<out>60</out>
					</clipitem>
					<clipitem frameBlend="FALSE" id="clipitem-telop-599">
						<file id="file-2"/>
						<name></name>
						<rate>
							<timebase>60</timebase>
							<ntsc>TRUE</ntsc>
						</rate>
						<rate>
							<timebase>60</timebase>
							<ntsc>TRUE</ntsc>
						</rate>
						<duration>60</duration>
						<start>5592</start>
						<end>5652</end>
						<in>0</in>
						<out>60</out>
					</clipitem>
					<clipitem frameBlend="FALSE" id="clipitem-telop-608">
						<file id="file-2"/>
						<name></name>
						<rate>
							<timebase>60</timebase>
							<ntsc>TRUE</ntsc>
						</rate>
						<rate>
							<timebase>60</timebase>
							<ntsc>TRUE</ntsc>
						</rate>
						<duration>60</duration>
						<start>5652</start>
						<end>5712</end>
						<in>0</in>
						<out>60</out>
					</clipitem>
					<clipitem frameBlend="FALSE" id="clipitem-telop-618">
						<file id="file-2"/>
						<name></name>
						<rate>
							<timebase>60</timebase>
							<ntsc>TRUE</ntsc>
						</rate>
						<rate>
							<timebase>60</timebase>
							<ntsc>TRUE</ntsc>
						</rate>
						<duration>66</duration>
						<start>5772</start>
						<end>5838</end>
						<in>0</in>
						<out>66</out>
					</clipitem>
					<clipitem frameBlend="FALSE" id="clipitem-telop-639">
						<file id="file-2"/>
						<name></name>
						<rate>
							<timebase>60</timebase>
							<ntsc>TRUE</ntsc>
						</rate>
						<rate>
							<timebase>60</timebase>
							<ntsc>TRUE</ntsc>
						</rate>
						<duration>66</duration>
						<start>5940</start>
						<end>6006</end>
						<in>0</in>
						<out>66</out>
					</clipitem>
					<clipitem frameBlend="FALSE" id="clipitem-telop-648">
						<file id="file-2"/>
						<name></name>
						<rate>
							<timebase>60</timebase>
							<ntsc>TRUE</ntsc>
						</rate>
						<rate>
							<timebase>60</timebase>
							<ntsc>TRUE</ntsc>
						</rate>
						<duration>60</duration>
						<start>6018</start>
						<end>6078</end>
						<in>0</in>
						<out>60</out>
					</clipitem>
					<clipitem frameBlend="FALSE" id="clipitem-telop-657">
						<file id="file-2"/>
						<name></name>
						<rate>
							<timebase>60</timebase>
							<ntsc>TRUE</ntsc>
						</rate>
						<rate>
							<timebase>60</timebase>
							<ntsc>TRUE</ntsc>
						</rate>
						<duration>66</duration>
						<start>6090</start>
						<end>6156</end>
						<in>0</in>
						<out>66</out>
					</clipitem>
					<clipitem frameBlend="FALSE" id="clipitem-telop-669">
						<file id="file-2"/>
						<name></name>
						<rate>
							<timebase>60</timebase>
							<ntsc>TRUE</ntsc>
						</rate>
						<rate>
							<timebase>60</timebase>
							<ntsc>TRUE</ntsc>
						</rate>
						<duration>66</duration>
						<start>6180</start>
						<end>6246</end>
						<in>0</in>
						<out>66</out>
					</clipitem>
					<clipitem frameBlend="FALSE" id="clipitem-telop-678">
						<file id="file-2"/>
						<name></name>
						<rate>
							<timebase>60</timebase>
							<ntsc>TRUE</ntsc>
						</rate>
						<rate>
							<timebase>60</timebase>
							<ntsc>TRUE</ntsc>
						</rate>
						<duration>60</duration>
						<start>6246</start>
						<end>6306</end>
						<in>0</in>
						<out>60</out>
					</clipitem>
					<clipitem frameBlend="FALSE" id="clipitem-telop-688">
						<file id="file-2"/>
						<name></name>
						<rate>
							<timebase>60</timebase>
							<ntsc>TRUE</ntsc>
						</rate>
						<rate>
							<timebase>60</timebase>
							<ntsc>TRUE</ntsc>
						</rate>
						<duration>66</duration>
						<start>6306</start>
						<end>6372</end>
						<in>0</in>
						<out>66</out>
					</clipitem>
					<clipitem frameBlend="FALSE" id="clipitem-telop-696">
						<file id="file-2"/>
						<name></name>
						<rate>
							<timebase>60</timebase>
							<ntsc>TRUE</ntsc>
						</rate>
						<rate>
							<timebase>60</timebase>
							<ntsc>TRUE</ntsc>
						</rate>
						<duration>60</duration>
						<start>6372</start>
						<end>6432</end>
						<in>0</in>
						<out>60</out>
					</clipitem>
					<clipitem frameBlend="FALSE" id="clipitem-telop-716">
						<file id="file-2"/>
						<name></name>
						<rate>
							<timebase>60</timebase>
							<ntsc>TRUE</ntsc>
						</rate>
						<rate>
							<timebase>60</timebase>
							<ntsc>TRUE</ntsc>
						</rate>
						<duration>60</duration>
						<start>6576</start>
						<end>6636</end>
						<in>0</in>
						<out>60</out>
					</clipitem>
					<clipitem frameBlend="FALSE" id="clipitem-telop-734">
						<file id="file-2"/>
						<name></name>
						<rate>
							<timebase>60</timebase>
							<ntsc>TRUE</ntsc>
						</rate>
						<rate>
							<timebase>60</timebase>
							<ntsc>TRUE</ntsc>
						</rate>
						<duration>60</duration>
						<start>6816</start>
						<end>6876</end>
						<in>0</in>
						<out>60</out>
					</clipitem>
					<clipitem frameBlend="FALSE" id="clipitem-telop-744">
						<file id="file-2"/>
						<name></name>
						<rate>
							<timebase>60</timebase>
							<ntsc>TRUE</ntsc>
						</rate>
						<rate>
							<timebase>60</timebase>
							<ntsc>TRUE</ntsc>
						</rate>
						<duration>60</duration>
						<start>6924</start>
						<end>6984</end>
						<in>0</in>
						<out>60</out>
					</clipitem>
				</track>
				<track>
					<clipitem frameBlend="FALSE" id="clipitem-telop-9">
						<file id="file-2"/>
						<name></name>
						<rate>
							<timebase>60</timebase>
							<ntsc>TRUE</ntsc>
						</rate>
						<rate>
							<timebase>60</timebase>
							<ntsc>TRUE</ntsc>
						</rate>
						<duration>60</duration>
						<start>108</start>
						<end>168</end>
						<in>0</in>
						<out>60</out>
					</clipitem>
					<clipitem frameBlend="FALSE" id="clipitem-telop-24">
						<file id="file-2"/>
						<name></name>
						<rate>
							<timebase>60</timebase>
							<ntsc>TRUE</ntsc>
						</rate>
						<rate>
							<timebase>60</timebase>
							<ntsc>TRUE</ntsc>
						</rate>
						<duration>66</duration>
						<start>264</start>
						<end>330</end>
						<in>0</in>
						<out>66</out>
					</clipitem>
					<clipitem frameBlend="FALSE" id="clipitem-telop-50">
						<file id="file-2"/>
						<name></name>
						<rate>
							<timebase>60</timebase>
							<ntsc>TRUE</ntsc>
						</rate>
						<rate>
							<timebase>60</timebase>
							<ntsc>TRUE</ntsc>
						</rate>
						<duration>60</duration>
						<start>510</start>
						<end>570</end>
						<in>0</in>
						<out>60</out>
					</clipitem>
					<clipitem frameBlend="FALSE" id="clipitem-telop-60">
						<file id="file-2"/>
						<name></name>
						<rate>
							<timebase>60</timebase>
							<ntsc>TRUE</ntsc>
						</rate>
						<rate>
							<timebase>60</timebase>
							<ntsc>TRUE</ntsc>
						</rate>
						<duration>60</duration>
						<start>588</start>
						<end>648</end>
						<in>0</in>
						<out>60</out>
					</clipitem>
					<clipitem frameBlend="FALSE" id="clipitem-telop-69">
						<file id="file-2"/>
						<name></name>
						<rate>
							<timebase>60</timebase>
							<ntsc>TRUE</ntsc>
						</rate>
						<rate>
							<timebase>60</timebase>
							<ntsc>TRUE</ntsc>
						</rate>
						<duration>60</duration>
						<start>648</start>
						<end>708</end>
						<in>0</in>
						<out>60</out>
					</clipitem>
					<clipitem frameBlend="FALSE" id="clipitem-telop-82">
						<file id="file-2"/>
						<name></name>
						<rate>
							<timebase>60</timebase>
							<ntsc>TRUE</ntsc>
						</rate>
						<rate>
							<timebase>60</timebase>
							<ntsc>TRUE</ntsc>
						</rate>
						<duration>60</duration>
						<start>750</start>
						<end>810</end>
						<in>0</in>
						<out>60</out>
					</clipitem>
					<clipitem frameBlend="FALSE" id="clipitem-telop-92">
						<file id="file-2"/>
						<name></name>
						<rate>
							<timebase>60</timebase>
							<ntsc>TRUE</ntsc>
						</rate>
						<rate>
							<timebase>60</timebase>
							<ntsc>TRUE</ntsc>
						</rate>
						<duration>60</duration>
						<start>828</start>
						<end>888</end>
						<in>0</in>
						<out>60</out>
					</clipitem>
					<clipitem frameBlend="FALSE" id="clipitem-telop-105">
						<file id="file-2"/>
						<name></name>
						<rate>
							<timebase>60</timebase>
							<ntsc>TRUE</ntsc>
						</rate>
						<rate>
							<timebase>60</timebase>
							<ntsc>TRUE</ntsc>
						</rate>
						<duration>66</duration>
						<start>900</start>
						<end>966</end>
						<in>0</in>
						<out>66</out>
					</clipitem>
					<clipitem frameBlend="FALSE" id="clipitem-telop-115">
						<file id="file-2"/>
						<name></name>
						<rate>
							<timebase>60</timebase>
							<ntsc>TRUE</ntsc>
						</rate>
						<rate>
							<timebase>60</timebase>
							<ntsc>TRUE</ntsc>
						</rate>
						<duration>60</duration>
						<start>966</start>
						<end>1026</end>
						<in>0</in>
						<out>60</out>
					</clipitem>
					<clipitem frameBlend="FALSE" id="clipitem-telop-128">
						<file id="file-2"/>
						<name></name>
						<rate>
							<timebase>60</timebase>
							<ntsc>TRUE</ntsc>
						</rate>
						<rate>
							<timebase>60</timebase>
							<ntsc>TRUE</ntsc>
						</rate>
						<duration>66</duration>
						<start>1032</start>
						<end>1098</end>
						<in>0</in>
						<out>66</out>
					</clipitem>
					<clipitem frameBlend="FALSE" id="clipitem-telop-156">
						<file id="file-2"/>
						<name></name>
						<rate>
							<timebase>60</timebase>
							<ntsc>TRUE</ntsc>
						</rate>
						<rate>
							<timebase>60</timebase>
							<ntsc>TRUE</ntsc>
						</rate>
						<duration>60</duration>
						<start>1302</start>
						<end>1362</end>
						<in>0</in>
						<out>60</out>
					</clipitem>
					<clipitem frameBlend="FALSE" id="clipitem-telop-165">
						<file id="file-2"/>
						<name></name>
						<rate>
							<timebase>60</timebase>
							<ntsc>TRUE</ntsc>
						</rate>
						<rate>
							<timebase>60</timebase>
							<ntsc>TRUE</ntsc>
						</rate>
						<duration>60</duration>
						<start>1386</start>
						<end>1446</end>
						<in>0</in>
						<out>60</out>
					</clipitem>
					<clipitem frameBlend="FALSE" id="clipitem-telop-176">
						<file id="file-2"/>
						<name></name>
						<rate>
							<timebase>60</timebase>
							<ntsc>TRUE</ntsc>
						</rate>
						<rate>
							<timebase>60</timebase>
							<ntsc>TRUE</ntsc>
						</rate>
						<duration>60</duration>
						<start>1476</start>
						<end>1536</end>
						<in>0</in>
						<out>60</out>
					</clipitem>
					<clipitem frameBlend="FALSE" id="clipitem-telop-194">
						<file id="file-2"/>
						<name></name>
						<rate>
							<timebase>60</timebase>
							<ntsc>TRUE</ntsc>
						</rate>
						<rate>
							<timebase>60</timebase>
							<ntsc>TRUE</ntsc>
						</rate>
						<duration>60</duration>
						<start>1638</start>
						<end>1698</end>
						<in>0</in>
						<out>60</out>
					</clipitem>
					<clipitem frameBlend="FALSE" id="clipitem-telop-209">
						<file id="file-2"/>
						<name></name>
						<rate>
							<timebase>60</timebase>
							<ntsc>TRUE</ntsc>
						</rate>
						<rate>
							<timebase>60</timebase>
							<ntsc>TRUE</ntsc>
						</rate>
						<duration>66</duration>
						<start>1776</start>
						<end>1842</end>
						<in>0</in>
						<out>66</out>
					</clipitem>
					<clipitem frameBlend="FALSE" id="clipitem-telop-228">
						<file id="file-2"/>
						<name></name>
						<rate>
							<timebase>60</timebase>
							<ntsc>TRUE</ntsc>
						</rate>
						<rate>
							<timebase>60</timebase>
							<ntsc>TRUE</ntsc>
						</rate>
						<duration>66</duration>
						<start>1920</start>
						<end>1986</end>
						<in>0</in>
						<out>66</out>
					</clipitem>
					<clipitem frameBlend="FALSE" id="clipitem-telop-251">
						<file id="file-2"/>
						<name></name>
						<rate>
							<timebase>60</timebase>
							<ntsc>TRUE</ntsc>
						</rate>
						<rate>
							<timebase>60</timebase>
							<ntsc>TRUE</ntsc>
						</rate>
						<duration>60</duration>
						<start>2202</start>
						<end>2262</end>
						<in>0</in>
						<out>60</out>
					</clipitem>
					<clipitem frameBlend="FALSE" id="clipitem-telop-269">
						<file id="file-2"/>
						<name></name>
						<rate>
							<timebase>60</timebase>
							<ntsc>TRUE</ntsc>
						</rate>
						<rate>
							<timebase>60</timebase>
							<ntsc>TRUE</ntsc>
						</rate>
						<duration>60</duration>
						<start>2454</start>
						<end>2514</end>
						<in>0</in>
						<out>60</out>
					</clipitem>
					<clipitem frameBlend="FALSE" id="clipitem-telop-278">
						<file id="file-2"/>
						<name></name>
						<rate>
							<timebase>60</timebase>
							<ntsc>TRUE</ntsc>
						</rate>
						<rate>
							<timebase>60</timebase>
							<ntsc>TRUE</ntsc>
						</rate>
						<duration>60</duration>
						<start>2568</start>
						<end>2628</end>
						<in>0</in>
						<out>60</out>
					</clipitem>
					<clipitem frameBlend="FALSE" id="clipitem-telop-288">
						<file id="file-2"/>
						<name></name>
						<rate>
							<timebase>60</timebase>
							<ntsc>TRUE</ntsc>
						</rate>
						<rate>
							<timebase>60</timebase>
							<ntsc>TRUE</ntsc>
						</rate>
						<duration>66</duration>
						<start>2646</start>
						<end>2712</end>
						<in>0</in>
						<out>66</out>
					</clipitem>
					<clipitem frameBlend="FALSE" id="clipitem-telop-301">
						<file id="file-2"/>
						<name></name>
						<rate>
							<timebase>60</timebase>
							<ntsc>TRUE</ntsc>
						</rate>
						<rate>
							<timebase>60</timebase>
							<ntsc>TRUE</ntsc>
						</rate>
						<duration>60</duration>
						<start>2772</start>
						<end>2832</end>
						<in>0</in>
						<out>60</out>
					</clipitem>
					<clipitem frameBlend="FALSE" id="clipitem-telop-310">
						<file id="file-2"/>
						<name></name>
						<rate>
							<timebase>60</timebase>
							<ntsc>TRUE</ntsc>
						</rate>
						<rate>
							<timebase>60</timebase>
							<ntsc>TRUE</ntsc>
						</rate>
						<duration>60</duration>
						<start>2850</start>
						<end>2910</end>
						<in>0</in>
						<out>60</out>
					</clipitem>
					<clipitem frameBlend="FALSE" id="clipitem-telop-330">
						<file id="file-2"/>
						<name></name>
						<rate>
							<timebase>60</timebase>
							<ntsc>TRUE</ntsc>
						</rate>
						<rate>
							<timebase>60</timebase>
							<ntsc>TRUE</ntsc>
						</rate>
						<duration>60</duration>
						<start>3036</start>
						<end>3096</end>
						<in>0</in>
						<out>60</out>
					</clipitem>
					<clipitem frameBlend="FALSE" id="clipitem-telop-341">
						<file id="file-2"/>
						<name></name>
						<rate>
							<timebase>60</timebase>
							<ntsc>TRUE</ntsc>
						</rate>
						<rate>
							<timebase>60</timebase>
							<ntsc>TRUE</ntsc>
						</rate>
						<duration>60</duration>
						<start>3150</start>
						<end>3210</end>
						<in>0</in>
						<out>60</out>
					</clipitem>
					<clipitem frameBlend="FALSE" id="clipitem-telop-351">
						<file id="file-2"/>
						<name></name>
						<rate>
							<timebase>60</timebase>
							<ntsc>TRUE</ntsc>
						</rate>
						<rate>
							<timebase>60</timebase>
							<ntsc>TRUE</ntsc>
						</rate>
						<duration>60</duration>
						<start>3228</start>
						<end>3288</end>
						<in>0</in>
						<out>60</out>
					</clipitem>
					<clipitem frameBlend="FALSE" id="clipitem-telop-380">
						<file id="file-2"/>
						<name></name>
						<rate>
							<timebase>60</timebase>
							<ntsc>TRUE</ntsc>
						</rate>
						<rate>
							<timebase>60</timebase>
							<ntsc>TRUE</ntsc>
						</rate>
						<duration>66</duration>
						<start>3480</start>
						<end>3546</end>
						<in>0</in>
						<out>66</out>
					</clipitem>
					<clipitem frameBlend="FALSE" id="clipitem-telop-394">
						<file id="file-2"/>
						<name></name>
						<rate>
							<timebase>60</timebase>
							<ntsc>TRUE</ntsc>
						</rate>
						<rate>
							<timebase>60</timebase>
							<ntsc>TRUE</ntsc>
						</rate>
						<duration>60</duration>
						<start>3624</start>
						<end>3684</end>
						<in>0</in>
						<out>60</out>
					</clipitem>
					<clipitem frameBlend="FALSE" id="clipitem-telop-405">
						<file id="file-2"/>
						<name></name>
						<rate>
							<timebase>60</timebase>
							<ntsc>TRUE</ntsc>
						</rate>
						<rate>
							<timebase>60</timebase>
							<ntsc>TRUE</ntsc>
						</rate>
						<duration>60</duration>
						<start>3720</start>
						<end>3780</end>
						<in>0</in>
						<out>60</out>
					</clipitem>
					<clipitem frameBlend="FALSE" id="clipitem-telop-422">
						<file id="file-2"/>
						<name></name>
						<rate>
							<timebase>60</timebase>
							<ntsc>TRUE</ntsc>
						</rate>
						<rate>
							<timebase>60</timebase>
							<ntsc>TRUE</ntsc>
						</rate>
						<duration>60</duration>
						<start>3852</start>
						<end>3912</end>
						<in>0</in>
						<out>60</out>
					</clipitem>
					<clipitem frameBlend="FALSE" id="clipitem-telop-452">
						<file id="file-2"/>
						<name></name>
						<rate>
							<timebase>60</timebase>
							<ntsc>TRUE</ntsc>
						</rate>
						<rate>
							<timebase>60</timebase>
							<ntsc>TRUE</ntsc>
						</rate>
						<duration>60</duration>
						<start>4266</start>
						<end>4326</end>
						<in>0</in>
						<out>60</out>
					</clipitem>
					<clipitem frameBlend="FALSE" id="clipitem-telop-462">
						<file id="file-2"/>
						<name></name>
						<rate>
							<timebase>60</timebase>
							<ntsc>TRUE</ntsc>
						</rate>
						<rate>
							<timebase>60</timebase>
							<ntsc>TRUE</ntsc>
						</rate>
						<duration>60</duration>
						<start>4338</start>
						<end>4398</end>
						<in>0</in>
						<out>60</out>
					</clipitem>
					<clipitem frameBlend="FALSE" id="clipitem-telop-470">
						<file id="file-2"/>
						<name></name>
						<rate>
							<timebase>60</timebase>
							<ntsc>TRUE</ntsc>
						</rate>
						<rate>
							<timebase>60</timebase>
							<ntsc>TRUE</ntsc>
						</rate>
						<duration>60</duration>
						<start>4410</start>
						<end>4470</end>
						<in>0</in>
						<out>60</out>
					</clipitem>
					<clipitem frameBlend="FALSE" id="clipitem-telop-482">
						<file id="file-2"/>
						<name></name>
						<rate>
							<timebase>60</timebase>
							<ntsc>TRUE</ntsc>
						</rate>
						<rate>
							<timebase>60</timebase>
							<ntsc>TRUE</ntsc>
						</rate>
						<duration>60</duration>
						<start>4476</start>
						<end>4536</end>
						<in>0</in>
						<out>60</out>
					</clipitem>
					<clipitem frameBlend="FALSE" id="clipitem-telop-496">
						<file id="file-2"/>
						<name></name>
						<rate>
							<timebase>60</timebase>
							<ntsc>TRUE</ntsc>
						</rate>
						<rate>
							<timebase>60</timebase>
							<ntsc>TRUE</ntsc>
						</rate>
						<duration>60</duration>
						<start>4596</start>
						<end>4656</end>
						<in>0</in>
						<out>60</out>
					</clipitem>
					<clipitem frameBlend="FALSE" id="clipitem-telop-521">
						<file id="file-2"/>
						<name></name>
						<rate>
							<timebase>60</timebase>
							<ntsc>TRUE</ntsc>
						</rate>
						<rate>
							<timebase>60</timebase>
							<ntsc>TRUE</ntsc>
						</rate>
						<duration>60</duration>
						<start>4842</start>
						<end>4902</end>
						<in>0</in>
						<out>60</out>
					</clipitem>
					<clipitem frameBlend="FALSE" id="clipitem-telop-541">
						<file id="file-2"/>
						<name></name>
						<rate>
							<timebase>60</timebase>
							<ntsc>TRUE</ntsc>
						</rate>
						<rate>
							<timebase>60</timebase>
							<ntsc>TRUE</ntsc>
						</rate>
						<duration>60</duration>
						<start>5046</start>
						<end>5106</end>
						<in>0</in>
						<out>60</out>
					</clipitem>
					<clipitem frameBlend="FALSE" id="clipitem-telop-553">
						<file id="file-2"/>
						<name></name>
						<rate>
							<timebase>60</timebase>
							<ntsc>TRUE</ntsc>
						</rate>
						<rate>
							<timebase>60</timebase>
							<ntsc>TRUE</ntsc>
						</rate>
						<duration>60</duration>
						<start>5136</start>
						<end>5196</end>
						<in>0</in>
						<out>60</out>
					</clipitem>
					<clipitem frameBlend="FALSE" id="clipitem-telop-569">
						<file id="file-2"/>
						<name></name>
						<rate>
							<timebase>60</timebase>
							<ntsc>TRUE</ntsc>
						</rate>
						<rate>
							<timebase>60</timebase>
							<ntsc>TRUE</ntsc>
						</rate>
						<duration>60</duration>
						<start>5298</start>
						<end>5358</end>
						<in>0</in>
						<out>60</out>
					</clipitem>
					<clipitem frameBlend="FALSE" id="clipitem-telop-589">
						<file id="file-2"/>
						<name>w</name>
						<rate>
							<timebase>60</timebase>
							<ntsc>TRUE</ntsc>
						</rate>
						<rate>
							<timebase>60</timebase>
							<ntsc>TRUE</ntsc>
						</rate>
						<duration>24</duration>
						<start>5544</start>
						<end>5568</end>
						<in>0</in>
						<out>24</out>
					</clipitem>
					<clipitem frameBlend="FALSE" id="clipitem-telop-601">
						<file id="file-2"/>
						<name></name>
						<rate>
							<timebase>60</timebase>
							<ntsc>TRUE</ntsc>
						</rate>
						<rate>
							<timebase>60</timebase>
							<ntsc>TRUE</ntsc>
						</rate>
						<duration>60</duration>
						<start>5604</start>
						<end>5664</end>
						<in>0</in>
						<out>60</out>
					</clipitem>
					<clipitem frameBlend="FALSE" id="clipitem-telop-621">
						<file id="file-2"/>
						<name></name>
						<rate>
							<timebase>60</timebase>
							<ntsc>TRUE</ntsc>
						</rate>
						<rate>
							<timebase>60</timebase>
							<ntsc>TRUE</ntsc>
						</rate>
						<duration>60</duration>
						<start>5790</start>
						<end>5850</end>
						<in>0</in>
						<out>60</out>
					</clipitem>
					<clipitem frameBlend="FALSE" id="clipitem-telop-640">
						<file id="file-2"/>
						<name></name>
						<rate>
							<timebase>60</timebase>
							<ntsc>TRUE</ntsc>
						</rate>
						<rate>
							<timebase>60</timebase>
							<ntsc>TRUE</ntsc>
						</rate>
						<duration>66</duration>
						<start>5946</start>
						<end>6012</end>
						<in>0</in>
						<out>66</out>
					</clipitem>
					<clipitem frameBlend="FALSE" id="clipitem-telop-649">
						<file id="file-2"/>
						<name></name>
						<rate>
							<timebase>60</timebase>
							<ntsc>TRUE</ntsc>
						</rate>
						<rate>
							<timebase>60</timebase>
							<ntsc>TRUE</ntsc>
						</rate>
						<duration>66</duration>
						<start>6018</start>
						<end>6084</end>
						<in>0</in>
						<out>66</out>
					</clipitem>
					<clipitem frameBlend="FALSE" id="clipitem-telop-660">
						<file id="file-2"/>
						<name></name>
						<rate>
							<timebase>60</timebase>
							<ntsc>TRUE</ntsc>
						</rate>
						<rate>
							<timebase>60</timebase>
							<ntsc>TRUE</ntsc>
						</rate>
						<duration>66</duration>
						<start>6114</start>
						<end>6180</end>
						<in>0</in>
						<out>66</out>
					</clipitem>
					<clipitem frameBlend="FALSE" id="clipitem-telop-675">
						<file id="file-2"/>
						<name></name>
						<rate>
							<timebase>60</timebase>
							<ntsc>TRUE</ntsc>
						</rate>
						<rate>
							<timebase>60</timebase>
							<ntsc>TRUE</ntsc>
						</rate>
						<duration>60</duration>
						<start>6234</start>
						<end>6294</end>
						<in>0</in>
						<out>60</out>
					</clipitem>
					<clipitem frameBlend="FALSE" id="clipitem-telop-686">
						<file id="file-2"/>
						<name></name>
						<rate>
							<timebase>60</timebase>
							<ntsc>TRUE</ntsc>
						</rate>
						<rate>
							<timebase>60</timebase>
							<ntsc>TRUE</ntsc>
						</rate>
						<duration>60</duration>
						<start>6300</start>
						<end>6360</end>
						<in>0</in>
						<out>60</out>
					</clipitem>
					<clipitem frameBlend="FALSE" id="clipitem-telop-697">
						<file id="file-2"/>
						<name></name>
						<rate>
							<timebase>60</timebase>
							<ntsc>TRUE</ntsc>
						</rate>
						<rate>
							<timebase>60</timebase>
							<ntsc>TRUE</ntsc>
						</rate>
						<duration>66</duration>
						<start>6372</start>
						<end>6438</end>
						<in>0</in>
						<out>66</out>
					</clipitem>
					<clipitem frameBlend="FALSE" id="clipitem-telop-717">
						<file id="file-2"/>
						<name></name>
						<rate>
							<timebase>60</timebase>
							<ntsc>TRUE</ntsc>
						</rate>
						<rate>
							<timebase>60</timebase>
							<ntsc>TRUE</ntsc>
						</rate>
						<duration>66</duration>
						<start>6582</start>
						<end>6648</end>
						<in>0</in>
						<out>66</out>
					</clipitem>
					<clipitem frameBlend="FALSE" id="clipitem-telop-745">
						<file id="file-2"/>
						<name></name>
						<rate>
							<timebase>60</timebase>
							<ntsc>TRUE</ntsc>
						</rate>
						<rate>
							<timebase>60</timebase>
							<ntsc>TRUE</ntsc>
						</rate>
						<duration>66</duration>
						<start>6924</start>
						<end>6990</end>
						<in>0</in>
						<out>66</out>
					</clipitem>
				</track>
				<track>
					<clipitem frameBlend="FALSE" id="clipitem-telop-51">
						<file id="file-2"/>
						<name></name>
						<rate>
							<timebase>60</timebase>
							<ntsc>TRUE</ntsc>
						</rate>
						<rate>
							<timebase>60</timebase>
							<ntsc>TRUE</ntsc>
						</rate>
						<duration>60</duration>
						<start>516</start>
						<end>576</end>
						<in>0</in>
						<out>60</out>
					</clipitem>
					<clipitem frameBlend="FALSE" id="clipitem-telop-62">
						<file id="file-2"/>
						<name></name>
						<rate>
							<timebase>60</timebase>
							<ntsc>TRUE</ntsc>
						</rate>
						<rate>
							<timebase>60</timebase>
							<ntsc>TRUE</ntsc>
						</rate>
						<duration>66</duration>
						<start>594</start>
						<end>660</end>
						<in>0</in>
						<out>66</out>
					</clipitem>
					<clipitem frameBlend="FALSE" id="clipitem-telop-74">
						<file id="file-2"/>
						<name></name>
						<rate>
							<timebase>60</timebase>
							<ntsc>TRUE</ntsc>
						</rate>
						<rate>
							<timebase>60</timebase>
							<ntsc>TRUE</ntsc>
						</rate>
						<duration>66</duration>
						<start>678</start>
						<end>744</end>
						<in>0</in>
						<out>66</out>
					</clipitem>
					<clipitem frameBlend="FALSE" id="clipitem-telop-88">
						<file id="file-2"/>
						<name></name>
						<rate>
							<timebase>60</timebase>
							<ntsc>TRUE</ntsc>
						</rate>
						<rate>
							<timebase>60</timebase>
							<ntsc>TRUE</ntsc>
						</rate>
						<duration>60</duration>
						<start>798</start>
						<end>858</end>
						<in>0</in>
						<out>60</out>
					</clipitem>
					<clipitem frameBlend="FALSE" id="clipitem-telop-101">
						<file id="file-2"/>
						<name></name>
						<rate>
							<timebase>60</timebase>
							<ntsc>TRUE</ntsc>
						</rate>
						<rate>
							<timebase>60</timebase>
							<ntsc>TRUE</ntsc>
						</rate>
						<duration>60</duration>
						<start>876</start>
						<end>936</end>
						<in>0</in>
						<out>60</out>
					</clipitem>
					<clipitem frameBlend="FALSE" id="clipitem-telop-111">
						<file id="file-2"/>
						<name></name>
						<rate>
							<timebase>60</timebase>
							<ntsc>TRUE</ntsc>
						</rate>
						<rate>
							<timebase>60</timebase>
							<ntsc>TRUE</ntsc>
						</rate>
						<duration>60</duration>
						<start>942</start>
						<end>1002</end>
						<in>0</in>
						<out>60</out>
					</clipitem>
					<clipitem frameBlend="FALSE" id="clipitem-telop-133">
						<file id="file-2"/>
						<name></name>
						<rate>
							<timebase>60</timebase>
							<ntsc>TRUE</ntsc>
						</rate>
						<rate>
							<timebase>60</timebase>
							<ntsc>TRUE</ntsc>
						</rate>
						<duration>60</duration>
						<start>1074</start>
						<end>1134</end>
						<in>0</in>
						<out>60</out>
					</clipitem>
					<clipitem frameBlend="FALSE" id="clipitem-telop-166">
						<file id="file-2"/>
						<name></name>
						<rate>
							<timebase>60</timebase>
							<ntsc>TRUE</ntsc>
						</rate>
						<rate>
							<timebase>60</timebase>
							<ntsc>TRUE</ntsc>
						</rate>
						<duration>66</duration>
						<start>1386</start>
						<end>1452</end>
						<in>0</in>
						<out>66</out>
					</clipitem>
					<clipitem frameBlend="FALSE" id="clipitem-telop-195">
						<file id="file-2"/>
						<name></name>
						<rate>
							<timebase>60</timebase>
							<ntsc>TRUE</ntsc>
						</rate>
						<rate>
							<timebase>60</timebase>
							<ntsc>TRUE</ntsc>
						</rate>
						<duration>60</duration>
						<start>1650</start>
						<end>1710</end>
						<in>0</in>
						<out>60</out>
					</clipitem>
					<clipitem frameBlend="FALSE" id="clipitem-telop-210">
						<file id="file-2"/>
						<name></name>
						<rate>
							<timebase>60</timebase>
							<ntsc>TRUE</ntsc>
						</rate>
						<rate>
							<timebase>60</timebase>
							<ntsc>TRUE</ntsc>
						</rate>
						<duration>60</duration>
						<start>1782</start>
						<end>1842</end>
						<in>0</in>
						<out>60</out>
					</clipitem>
					<clipitem frameBlend="FALSE" id="clipitem-telop-229">
						<file id="file-2"/>
						<name></name>
						<rate>
							<timebase>60</timebase>
							<ntsc>TRUE</ntsc>
						</rate>
						<rate>
							<timebase>60</timebase>
							<ntsc>TRUE</ntsc>
						</rate>
						<duration>60</duration>
						<start>1932</start>
						<end>1992</end>
						<in>0</in>
						<out>60</out>
					</clipitem>
					<clipitem frameBlend="FALSE" id="clipitem-telop-302">
						<file id="file-2"/>
						<name></name>
						<rate>
							<timebase>60</timebase>
							<ntsc>TRUE</ntsc>
						</rate>
						<rate>
							<timebase>60</timebase>
							<ntsc>TRUE</ntsc>
						</rate>
						<duration>60</duration>
						<start>2784</start>
						<end>2844</end>
						<in>0</in>
						<out>60</out>
					</clipitem>
					<clipitem frameBlend="FALSE" id="clipitem-telop-331">
						<file id="file-2"/>
						<name></name>
						<rate>
							<timebase>60</timebase>
							<ntsc>TRUE</ntsc>
						</rate>
						<rate>
							<timebase>60</timebase>
							<ntsc>TRUE</ntsc>
						</rate>
						<duration>60</duration>
						<start>3042</start>
						<end>3102</end>
						<in>0</in>
						<out>60</out>
					</clipitem>
					<clipitem frameBlend="FALSE" id="clipitem-telop-342">
						<file id="file-2"/>
						<name></name>
						<rate>
							<timebase>60</timebase>
							<ntsc>TRUE</ntsc>
						</rate>
						<rate>
							<timebase>60</timebase>
							<ntsc>TRUE</ntsc>
						</rate>
						<duration>66</duration>
						<start>3150</start>
						<end>3216</end>
						<in>0</in>
						<out>66</out>
					</clipitem>
					<clipitem frameBlend="FALSE" id="clipitem-telop-352">
						<file id="file-2"/>
						<name></name>
						<rate>
							<timebase>60</timebase>
							<ntsc>TRUE</ntsc>
						</rate>
						<rate>
							<timebase>60</timebase>
							<ntsc>TRUE</ntsc>
						</rate>
						<duration>60</duration>
						<start>3234</start>
						<end>3294</end>
						<in>0</in>
						<out>60</out>
					</clipitem>
					<clipitem frameBlend="FALSE" id="clipitem-telop-397">
						<file id="file-2"/>
						<name></name>
						<rate>
							<timebase>60</timebase>
							<ntsc>TRUE</ntsc>
						</rate>
						<rate>
							<timebase>60</timebase>
							<ntsc>TRUE</ntsc>
						</rate>
						<duration>66</duration>
						<start>3654</start>
						<end>3720</end>
						<in>0</in>
						<out>66</out>
					</clipitem>
					<clipitem frameBlend="FALSE" id="clipitem-telop-406">
						<file id="file-2"/>
						<name></name>
						<rate>
							<timebase>60</timebase>
							<ntsc>TRUE</ntsc>
						</rate>
						<rate>
							<timebase>60</timebase>
							<ntsc>TRUE</ntsc>
						</rate>
						<duration>60</duration>
						<start>3732</start>
						<end>3792</end>
						<in>0</in>
						<out>60</out>
					</clipitem>
					<clipitem frameBlend="FALSE" id="clipitem-telop-472">
						<file id="file-2"/>
						<name></name>
						<rate>
							<timebase>60</timebase>
							<ntsc>TRUE</ntsc>
						</rate>
						<rate>
							<timebase>60</timebase>
							<ntsc>TRUE</ntsc>
						</rate>
						<duration>66</duration>
						<start>4422</start>
						<end>4488</end>
						<in>0</in>
						<out>66</out>
					</clipitem>
					<clipitem frameBlend="FALSE" id="clipitem-telop-522">
						<file id="file-2"/>
						<name></name>
						<rate>
							<timebase>60</timebase>
							<ntsc>TRUE</ntsc>
						</rate>
						<rate>
							<timebase>60</timebase>
							<ntsc>TRUE</ntsc>
						</rate>
						<duration>60</duration>
						<start>4848</start>
						<end>4908</end>
						<in>0</in>
						<out>60</out>
					</clipitem>
					<clipitem frameBlend="FALSE" id="clipitem-telop-542">
						<file id="file-2"/>
						<name></name>
						<rate>
							<timebase>60</timebase>
							<ntsc>TRUE</ntsc>
						</rate>
						<rate>
							<timebase>60</timebase>
							<ntsc>TRUE</ntsc>
						</rate>
						<duration>60</duration>
						<start>5046</start>
						<end>5106</end>
						<in>0</in>
						<out>60</out>
					</clipitem>
					<clipitem frameBlend="FALSE" id="clipitem-telop-554">
						<file id="file-2"/>
						<name></name>
						<rate>
							<timebase>60</timebase>
							<ntsc>TRUE</ntsc>
						</rate>
						<rate>
							<timebase>60</timebase>
							<ntsc>TRUE</ntsc>
						</rate>
						<duration>66</duration>
						<start>5142</start>
						<end>5208</end>
						<in>0</in>
						<out>66</out>
					</clipitem>
					<clipitem frameBlend="FALSE" id="clipitem-telop-570">
						<file id="file-2"/>
						<name></name>
						<rate>
							<timebase>60</timebase>
							<ntsc>TRUE</ntsc>
						</rate>
						<rate>
							<timebase>60</timebase>
							<ntsc>TRUE</ntsc>
						</rate>
						<duration>66</duration>
						<start>5298</start>
						<end>5364</end>
						<in>0</in>
						<out>66</out>
					</clipitem>
					<clipitem frameBlend="FALSE" id="clipitem-telop-590">
						<file id="file-2"/>
						<name></name>
						<rate>
							<timebase>60</timebase>
							<ntsc>TRUE</ntsc>
						</rate>
						<rate>
							<timebase>60</timebase>
							<ntsc>TRUE</ntsc>
						</rate>
						<duration>60</duration>
						<start>5544</start>
						<end>5604</end>
						<in>0</in>
						<out>60</out>
					</clipitem>
					<clipitem frameBlend="FALSE" id="clipitem-telop-603">
						<file id="file-2"/>
						<name></name>
						<rate>
							<timebase>60</timebase>
							<ntsc>TRUE</ntsc>
						</rate>
						<rate>
							<timebase>60</timebase>
							<ntsc>TRUE</ntsc>
						</rate>
						<duration>66</duration>
						<start>5622</start>
						<end>5688</end>
						<in>0</in>
						<out>66</out>
					</clipitem>
					<clipitem frameBlend="FALSE" id="clipitem-telop-622">
						<file id="file-2"/>
						<name></name>
						<rate>
							<timebase>60</timebase>
							<ntsc>TRUE</ntsc>
						</rate>
						<rate>
							<timebase>60</timebase>
							<ntsc>TRUE</ntsc>
						</rate>
						<duration>60</duration>
						<start>5796</start>
						<end>5856</end>
						<in>0</in>
						<out>60</out>
					</clipitem>
					<clipitem frameBlend="FALSE" id="clipitem-telop-651">
						<file id="file-2"/>
						<name></name>
						<rate>
							<timebase>60</timebase>
							<ntsc>TRUE</ntsc>
						</rate>
						<rate>
							<timebase>60</timebase>
							<ntsc>TRUE</ntsc>
						</rate>
						<duration>60</duration>
						<start>6036</start>
						<end>6096</end>
						<in>0</in>
						<out>60</out>
					</clipitem>
					<clipitem frameBlend="FALSE" id="clipitem-telop-663">
						<file id="file-2"/>
						<name></name>
						<rate>
							<timebase>60</timebase>
							<ntsc>TRUE</ntsc>
						</rate>
						<rate>
							<timebase>60</timebase>
							<ntsc>TRUE</ntsc>
						</rate>
						<duration>60</duration>
						<start>6132</start>
						<end>6192</end>
						<in>0</in>
						<out>60</out>
					</clipitem>
					<clipitem frameBlend="FALSE" id="clipitem-telop-677">
						<file id="file-2"/>
						<name></name>
						<rate>
							<timebase>60</timebase>
							<ntsc>TRUE</ntsc>
						</rate>
						<rate>
							<timebase>60</timebase>
							<ntsc>TRUE</ntsc>
						</rate>
						<duration>66</duration>
						<start>6240</start>
						<end>6306</end>
						<in>0</in>
						<out>66</out>
					</clipitem>
					<clipitem frameBlend="FALSE" id="clipitem-telop-689">
						<file id="file-2"/>
						<name></name>
						<rate>
							<timebase>60</timebase>
							<ntsc>TRUE</ntsc>
						</rate>
						<rate>
							<timebase>60</timebase>
							<ntsc>TRUE</ntsc>
						</rate>
						<duration>60</duration>
						<start>6324</start>
						<end>6384</end>
						<in>0</in>
						<out>60</out>
					</clipitem>
					<clipitem frameBlend="FALSE" id="clipitem-telop-698">
						<file id="file-2"/>
						<name></name>
						<rate>
							<timebase>60</timebase>
							<ntsc>TRUE</ntsc>
						</rate>
						<rate>
							<timebase>60</timebase>
							<ntsc>TRUE</ntsc>
						</rate>
						<duration>60</duration>
						<start>6390</start>
						<end>6450</end>
						<in>0</in>
						<out>60</out>
					</clipitem>
					<clipitem frameBlend="FALSE" id="clipitem-telop-746">
						<file id="file-2"/>
						<name></name>
						<rate>
							<timebase>60</timebase>
							<ntsc>TRUE</ntsc>
						</rate>
						<rate>
							<timebase>60</timebase>
							<ntsc>TRUE</ntsc>
						</rate>
						<duration>60</duration>
						<start>6930</start>
						<end>6990</end>
						<in>0</in>
						<out>60</out>
					</clipitem>
				</track>
				<track>
					<clipitem frameBlend="FALSE" id="clipitem-telop-95">
						<file id="file-2"/>
						<name></name>
						<rate>
							<timebase>60</timebase>
							<ntsc>TRUE</ntsc>
						</rate>
						<rate>
							<timebase>60</timebase>
							<ntsc>TRUE</ntsc>
						</rate>
						<duration>60</duration>
						<start>846</start>
						<end>906</end>
						<in>0</in>
						<out>60</out>
					</clipitem>
					<clipitem frameBlend="FALSE" id="clipitem-telop-114">
						<file id="file-2"/>
						<name></name>
						<rate>
							<timebase>60</timebase>
							<ntsc>TRUE</ntsc>
						</rate>
						<rate>
							<timebase>60</timebase>
							<ntsc>TRUE</ntsc>
						</rate>
						<duration>60</duration>
						<start>960</start>
						<end>1020</end>
						<in>0</in>
						<out>60</out>
					</clipitem>
					<clipitem frameBlend="FALSE" id="clipitem-telop-134">
						<file id="file-2"/>
						<name></name>
						<rate>
							<timebase>60</timebase>
							<ntsc>TRUE</ntsc>
						</rate>
						<rate>
							<timebase>60</timebase>
							<ntsc>TRUE</ntsc>
						</rate>
						<duration>60</duration>
						<start>1074</start>
						<end>1134</end>
						<in>0</in>
						<out>60</out>
					</clipitem>
					<clipitem frameBlend="FALSE" id="clipitem-telop-216">
						<file id="file-2"/>
						<name></name>
						<rate>
							<timebase>60</timebase>
							<ntsc>TRUE</ntsc>
						</rate>
						<rate>
							<timebase>60</timebase>
							<ntsc>TRUE</ntsc>
						</rate>
						<duration>66</duration>
						<start>1818</start>
						<end>1884</end>
						<in>0</in>
						<out>66</out>
					</clipitem>
					<clipitem frameBlend="FALSE" id="clipitem-telop-353">
						<file id="file-2"/>
						<name></name>
						<rate>
							<timebase>60</timebase>
							<ntsc>TRUE</ntsc>
						</rate>
						<rate>
							<timebase>60</timebase>
							<ntsc>TRUE</ntsc>
						</rate>
						<duration>66</duration>
						<start>3234</start>
						<end>3300</end>
						<in>0</in>
						<out>66</out>
					</clipitem>
					<clipitem frameBlend="FALSE" id="clipitem-telop-409">
						<file id="file-2"/>
						<name></name>
						<rate>
							<timebase>60</timebase>
							<ntsc>TRUE</ntsc>
						</rate>
						<rate>
							<timebase>60</timebase>
							<ntsc>TRUE</ntsc>
						</rate>
						<duration>66</duration>
						<start>3744</start>
						<end>3810</end>
						<in>0</in>
						<out>66</out>
					</clipitem>
					<clipitem frameBlend="FALSE" id="clipitem-telop-477">
						<file id="file-2"/>
						<name></name>
						<rate>
							<timebase>60</timebase>
							<ntsc>TRUE</ntsc>
						</rate>
						<rate>
							<timebase>60</timebase>
							<ntsc>TRUE</ntsc>
						</rate>
						<duration>66</duration>
						<start>4452</start>
						<end>4518</end>
						<in>0</in>
						<out>66</out>
					</clipitem>
					<clipitem frameBlend="FALSE" id="clipitem-telop-523">
						<file id="file-2"/>
						<name></name>
						<rate>
							<timebase>60</timebase>
							<ntsc>TRUE</ntsc>
						</rate>
						<rate>
							<timebase>60</timebase>
							<ntsc>TRUE</ntsc>
						</rate>
						<duration>66</duration>
						<start>4848</start>
						<end>4914</end>
						<in>0</in>
						<out>66</out>
					</clipitem>
					<clipitem frameBlend="FALSE" id="clipitem-telop-591">
						<file id="file-2"/>
						<name></name>
						<rate>
							<timebase>60</timebase>
							<ntsc>TRUE</ntsc>
						</rate>
						<rate>
							<timebase>60</timebase>
							<ntsc>TRUE</ntsc>
						</rate>
						<duration>60</duration>
						<start>5556</start>
						<end>5616</end>
						<in>0</in>
						<out>60</out>
					</clipitem>
					<clipitem frameBlend="FALSE" id="clipitem-telop-625">
						<file id="file-2"/>
						<name></name>
						<rate>
							<timebase>60</timebase>
							<ntsc>TRUE</ntsc>
						</rate>
						<rate>
							<timebase>60</timebase>
							<ntsc>TRUE</ntsc>
						</rate>
						<duration>66</duration>
						<start>5808</start>
						<end>5874</end>
						<in>0</in>
						<out>66</out>
					</clipitem>
					<clipitem frameBlend="FALSE" id="clipitem-telop-687">
						<file id="file-2"/>
						<name></name>
						<rate>
							<timebase>60</timebase>
							<ntsc>TRUE</ntsc>
						</rate>
						<rate>
							<timebase>60</timebase>
							<ntsc>TRUE</ntsc>
						</rate>
						<duration>60</duration>
						<start>6300</start>
						<end>6360</end>
						<in>0</in>
						<out>60</out>
					</clipitem>
				</track>
				<track>
					<clipitem frameBlend="FALSE" id="clipitem-telop-96">
						<file id="file-2"/>
						<name></name>
						<rate>
							<timebase>60</timebase>
							<ntsc>TRUE</ntsc>
						</rate>
						<rate>
							<timebase>60</timebase>
							<ntsc>TRUE</ntsc>
						</rate>
						<duration>66</duration>
						<start>846</start>
						<end>912</end>
						<in>0</in>
						<out>66</out>
					</clipitem>
					<clipitem frameBlend="FALSE" id="clipitem-telop-118">
						<file id="file-2"/>
						<name></name>
						<rate>
							<timebase>60</timebase>
							<ntsc>TRUE</ntsc>
						</rate>
						<rate>
							<timebase>60</timebase>
							<ntsc>TRUE</ntsc>
						</rate>
						<duration>66</duration>
						<start>978</start>
						<end>1044</end>
						<in>0</in>
						<out>66</out>
					</clipitem>
					<clipitem frameBlend="FALSE" id="clipitem-telop-217">
						<file id="file-2"/>
						<name></name>
						<rate>
							<timebase>60</timebase>
							<ntsc>TRUE</ntsc>
						</rate>
						<rate>
							<timebase>60</timebase>
							<ntsc>TRUE</ntsc>
						</rate>
						<duration>66</duration>
						<start>1824</start>
						<end>1890</end>
						<in>0</in>
						<out>66</out>
					</clipitem>
					<clipitem frameBlend="FALSE" id="clipitem-telop-410">
						<file id="file-2"/>
						<name></name>
						<rate>
							<timebase>60</timebase>
							<ntsc>TRUE</ntsc>
						</rate>
						<rate>
							<timebase>60</timebase>
							<ntsc>TRUE</ntsc>
						</rate>
						<duration>66</duration>
						<start>3750</start>
						<end>3816</end>
						<in>0</in>
						<out>66</out>
					</clipitem>
					<clipitem frameBlend="FALSE" id="clipitem-telop-479">
						<file id="file-2"/>
						<name></name>
						<rate>
							<timebase>60</timebase>
							<ntsc>TRUE</ntsc>
						</rate>
						<rate>
							<timebase>60</timebase>
							<ntsc>TRUE</ntsc>
						</rate>
						<duration>60</duration>
						<start>4458</start>
						<end>4518</end>
						<in>0</in>
						<out>60</out>
					</clipitem>
					<clipitem frameBlend="FALSE" id="clipitem-telop-592">
						<file id="file-2"/>
						<name>w</name>
						<rate>
							<timebase>60</timebase>
							<ntsc>TRUE</ntsc>
						</rate>
						<rate>
							<timebase>60</timebase>
							<ntsc>TRUE</ntsc>
						</rate>
						<duration>30</duration>
						<start>5556</start>
						<end>5586</end>
						<in>0</in>
						<out>30</out>
					</clipitem>
					<clipitem frameBlend="FALSE" id="clipitem-telop-626">
						<file id="file-2"/>
						<name></name>
						<rate>
							<timebase>60</timebase>
							<ntsc>TRUE</ntsc>
						</rate>
						<rate>
							<timebase>60</timebase>
							<ntsc>TRUE</ntsc>
						</rate>
						<duration>60</duration>
						<start>5814</start>
						<end>5874</end>
						<in>0</in>
						<out>60</out>
					</clipitem>
				</track>
				<track>
					<clipitem frameBlend="FALSE" id="clipitem-telop-120">
						<file id="file-2"/>
						<name></name>
						<rate>
							<timebase>60</timebase>
							<ntsc>TRUE</ntsc>
						</rate>
						<rate>
							<timebase>60</timebase>
							<ntsc>TRUE</ntsc>
						</rate>
						<duration>66</duration>
						<start>984</start>
						<end>1050</end>
						<in>0</in>
						<out>66</out>
					</clipitem>
					<clipitem frameBlend="FALSE" id="clipitem-telop-220">
						<file id="file-2"/>
						<name></name>
						<rate>
							<timebase>60</timebase>
							<ntsc>TRUE</ntsc>
						</rate>
						<rate>
							<timebase>60</timebase>
							<ntsc>TRUE</ntsc>
						</rate>
						<duration>66</duration>
						<start>1836</start>
						<end>1902</end>
						<in>0</in>
						<out>66</out>
					</clipitem>
					<clipitem frameBlend="FALSE" id="clipitem-telop-480">
						<file id="file-2"/>
						<name></name>
						<rate>
							<timebase>60</timebase>
							<ntsc>TRUE</ntsc>
						</rate>
						<rate>
							<timebase>60</timebase>
							<ntsc>TRUE</ntsc>
						</rate>
						<duration>66</duration>
						<start>4458</start>
						<end>4524</end>
						<in>0</in>
						<out>66</out>
					</clipitem>
					<clipitem frameBlend="FALSE" id="clipitem-telop-627">
						<file id="file-2"/>
						<name></name>
						<rate>
							<timebase>60</timebase>
							<ntsc>TRUE</ntsc>
						</rate>
						<rate>
							<timebase>60</timebase>
							<ntsc>TRUE</ntsc>
						</rate>
						<duration>60</duration>
						<start>5820</start>
						<end>5880</end>
						<in>0</in>
						<out>60</out>
					</clipitem>
				</track>
				<track>
					<clipitem frameBlend="FALSE" id="clipitem-telop-121">
						<file id="file-2"/>
						<name></name>
						<rate>
							<timebase>60</timebase>
							<ntsc>TRUE</ntsc>
						</rate>
						<rate>
							<timebase>60</timebase>
							<ntsc>TRUE</ntsc>
						</rate>
						<duration>60</duration>
						<start>990</start>
						<end>1050</end>
						<in>0</in>
						<out>60</out>
					</clipitem>
					<clipitem frameBlend="FALSE" id="clipitem-telop-628">
						<file id="file-2"/>
						<name></name>
						<rate>
							<timebase>60</timebase>
							<ntsc>TRUE</ntsc>
						</rate>
						<rate>
							<timebase>60</timebase>
							<ntsc>TRUE</ntsc>
						</rate>
						<duration>60</duration>
						<start>5820</start>
						<end>5880</end>
						<in>0</in>
						<out>60</out>
					</clipitem>
				</track>
				<track>
					<clipitem frameBlend="FALSE" id="clipitem-telop-122">
						<file id="file-2"/>
						<name></name>
						<rate>
							<timebase>60</timebase>
							<ntsc>TRUE</ntsc>
						</rate>
						<rate>
							<timebase>60</timebase>
							<ntsc>TRUE</ntsc>
						</rate>
						<duration>66</duration>
						<start>990</start>
						<end>1056</end>
						<in>0</in>
						<out>66</out>
					</clipitem>
				</track>
			</video>
			<audio>
				<track>
					<clipitem frameBlend="FALSE" id="audioclip-1">
						<file id="file-1"/>
						<name>bandicam 2025-06-02 00-01-10-144 - Audio</name>
						<rate>
							<timebase>60</timebase>
							<ntsc>TRUE</ntsc>
						</rate>
						<rate>
							<timebase>60</timebase>
							<ntsc>TRUE</ntsc>
						</rate>
						<duration>12</duration>
						<start>0</start>
						<end>12</end>
						<in>12</in>
						<out>24</out>
					</clipitem>
					<clipitem frameBlend="FALSE" id="audioclip-2">
						<file id="file-1"/>
						<name>bandicam 2025-06-02 00-01-10-144 - Audio</name>
						<rate>
							<timebase>60</timebase>
							<ntsc>TRUE</ntsc>
						</rate>
						<rate>
							<timebase>60</timebase>
							<ntsc>TRUE</ntsc>
						</rate>
						<duration>36</duration>
						<start>12</start>
						<end>48</end>
						<in>54</in>
						<out>90</out>
					</clipitem>
					<clipitem frameBlend="FALSE" id="audioclip-3">
						<file id="file-1"/>
						<name>bandicam 2025-06-02 00-01-10-144 - Audio</name>
						<rate>
							<timebase>60</timebase>
							<ntsc>TRUE</ntsc>
						</rate>
						<rate>
							<timebase>60</timebase>
							<ntsc>TRUE</ntsc>
						</rate>
						<duration>18</duration>
						<start>48</start>
						<end>66</end>
						<in>108</in>
						<out>126</out>
					</clipitem>
					<clipitem frameBlend="FALSE" id="audioclip-4">
						<file id="file-1"/>
						<name>bandicam 2025-06-02 00-01-10-144 - Audio</name>
						<rate>
							<timebase>60</timebase>
							<ntsc>TRUE</ntsc>
						</rate>
						<rate>
							<timebase>60</timebase>
							<ntsc>TRUE</ntsc>
						</rate>
						<duration>12</duration>
						<start>66</start>
						<end>78</end>
						<in>174</in>
						<out>186</out>
					</clipitem>
					<clipitem frameBlend="FALSE" id="audioclip-5">
						<file id="file-1"/>
						<name>bandicam 2025-06-02 00-01-10-144 - Audio</name>
						<rate>
							<timebase>60</timebase>
							<ntsc>TRUE</ntsc>
						</rate>
						<rate>
							<timebase>60</timebase>
							<ntsc>TRUE</ntsc>
						</rate>
						<duration>0</duration>
						<start>78</start>
						<end>78</end>
						<in>300</in>
						<out>300</out>
					</clipitem>
					<clipitem frameBlend="FALSE" id="audioclip-6">
						<file id="file-1"/>
						<name>bandicam 2025-06-02 00-01-10-144 - Audio</name>
						<rate>
							<timebase>60</timebase>
							<ntsc>TRUE</ntsc>
						</rate>
						<rate>
							<timebase>60</timebase>
							<ntsc>TRUE</ntsc>
						</rate>
						<duration>12</duration>
						<start>78</start>
						<end>90</end>
						<in>360</in>
						<out>372</out>
					</clipitem>
					<clipitem frameBlend="FALSE" id="audioclip-7">
						<file id="file-1"/>
						<name>bandicam 2025-06-02 00-01-10-144 - Audio</name>
						<rate>
							<timebase>60</timebase>
							<ntsc>TRUE</ntsc>
						</rate>
						<rate>
							<timebase>60</timebase>
							<ntsc>TRUE</ntsc>
						</rate>
						<duration>0</duration>
						<start>90</start>
						<end>90</end>
						<in>438</in>
						<out>438</out>
					</clipitem>
					<clipitem frameBlend="FALSE" id="audioclip-8">
						<file id="file-1"/>
						<name>bandicam 2025-06-02 00-01-10-144 - Audio</name>
						<rate>
							<timebase>60</timebase>
							<ntsc>TRUE</ntsc>
						</rate>
						<rate>
							<timebase>60</timebase>
							<ntsc>TRUE</ntsc>
						</rate>
						<duration>36</duration>
						<start>90</start>
						<end>126</end>
						<in>450</in>
						<out>486</out>
					</clipitem>
					<clipitem frameBlend="FALSE" id="audioclip-9">
						<file id="file-1"/>
						<name>bandicam 2025-06-02 00-01-10-144 - Audio</name>
						<rate>
							<timebase>60</timebase>
							<ntsc>TRUE</ntsc>
						</rate>
						<rate>
							<timebase>60</timebase>
							<ntsc>TRUE</ntsc>
						</rate>
						<duration>0</duration>
						<start>126</start>
						<end>126</end>
						<in>504</in>
						<out>504</out>
					</clipitem>
					<clipitem frameBlend="FALSE" id="audioclip-10">
						<file id="file-1"/>
						<name>bandicam 2025-06-02 00-01-10-144 - Audio</name>
						<rate>
							<timebase>60</timebase>
							<ntsc>TRUE</ntsc>
						</rate>
						<rate>
							<timebase>60</timebase>
							<ntsc>TRUE</ntsc>
						</rate>
						<duration>12</duration>
						<start>126</start>
						<end>138</end>
						<in>528</in>
						<out>540</out>
					</clipitem>
					<clipitem frameBlend="FALSE" id="audioclip-11">
						<file id="file-1"/>
						<name>bandicam 2025-06-02 00-01-10-144 - Audio</name>
						<rate>
							<timebase>60</timebase>
							<ntsc>TRUE</ntsc>
						</rate>
						<rate>
							<timebase>60</timebase>
							<ntsc>TRUE</ntsc>
						</rate>
						<duration>24</duration>
						<start>138</start>
						<end>162</end>
						<in>582</in>
						<out>606</out>
					</clipitem>
					<clipitem frameBlend="FALSE" id="audioclip-12">
						<file id="file-1"/>
						<name>bandicam 2025-06-02 00-01-10-144 - Audio</name>
						<rate>
							<timebase>60</timebase>
							<ntsc>TRUE</ntsc>
						</rate>
						<rate>
							<timebase>60</timebase>
							<ntsc>TRUE</ntsc>
						</rate>
						<duration>12</duration>
						<start>162</start>
						<end>174</end>
						<in>624</in>
						<out>636</out>
					</clipitem>
					<clipitem frameBlend="FALSE" id="audioclip-13">
						<file id="file-1"/>
						<name>bandicam 2025-06-02 00-01-10-144 - Audio</name>
						<rate>
							<timebase>60</timebase>
							<ntsc>TRUE</ntsc>
						</rate>
						<rate>
							<timebase>60</timebase>
							<ntsc>TRUE</ntsc>
						</rate>
						<duration>0</duration>
						<start>174</start>
						<end>174</end>
						<in>852</in>
						<out>852</out>
					</clipitem>
					<clipitem frameBlend="FALSE" id="audioclip-14">
						<file id="file-1"/>
						<name>bandicam 2025-06-02 00-01-10-144 - Audio</name>
						<rate>
							<timebase>60</timebase>
							<ntsc>TRUE</ntsc>
						</rate>
						<rate>
							<timebase>60</timebase>
							<ntsc>TRUE</ntsc>
						</rate>
						<duration>0</duration>
						<start>174</start>
						<end>174</end>
						<in>912</in>
						<out>912</out>
					</clipitem>
					<clipitem frameBlend="FALSE" id="audioclip-15">
						<file id="file-1"/>
						<name>bandicam 2025-06-02 00-01-10-144 - Audio</name>
						<rate>
							<timebase>60</timebase>
							<ntsc>TRUE</ntsc>
						</rate>
						<rate>
							<timebase>60</timebase>
							<ntsc>TRUE</ntsc>
						</rate>
						<duration>0</duration>
						<start>174</start>
						<end>174</end>
						<in>936</in>
						<out>936</out>
					</clipitem>
					<clipitem frameBlend="FALSE" id="audioclip-16">
						<file id="file-1"/>
						<name>bandicam 2025-06-02 00-01-10-144 - Audio</name>
						<rate>
							<timebase>60</timebase>
							<ntsc>TRUE</ntsc>
						</rate>
						<rate>
							<timebase>60</timebase>
							<ntsc>TRUE</ntsc>
						</rate>
						<duration>0</duration>
						<start>174</start>
						<end>174</end>
						<in>954</in>
						<out>954</out>
					</clipitem>
					<clipitem frameBlend="FALSE" id="audioclip-17">
						<file id="file-1"/>
						<name>bandicam 2025-06-02 00-01-10-144 - Audio</name>
						<rate>
							<timebase>60</timebase>
							<ntsc>TRUE</ntsc>
						</rate>
						<rate>
							<timebase>60</timebase>
							<ntsc>TRUE</ntsc>
						</rate>
						<duration>12</duration>
						<start>174</start>
						<end>186</end>
						<in>984</in>
						<out>996</out>
					</clipitem>
					<clipitem frameBlend="FALSE" id="audioclip-18">
						<file id="file-1"/>
						<name>bandicam 2025-06-02 00-01-10-144 - Audio</name>
						<rate>
							<timebase>60</timebase>
							<ntsc>TRUE</ntsc>
						</rate>
						<rate>
							<timebase>60</timebase>
							<ntsc>TRUE</ntsc>
						</rate>
						<duration>12</duration>
						<start>186</start>
						<end>198</end>
						<in>1086</in>
						<out>1098</out>
					</clipitem>
					<clipitem frameBlend="FALSE" id="audioclip-19">
						<file id="file-1"/>
						<name>bandicam 2025-06-02 00-01-10-144 - Audio</name>
						<rate>
							<timebase>60</timebase>
							<ntsc>TRUE</ntsc>
						</rate>
						<rate>
							<timebase>60</timebase>
							<ntsc>TRUE</ntsc>
						</rate>
						<duration>0</duration>
						<start>198</start>
						<end>198</end>
						<in>1194</in>
						<out>1194</out>
					</clipitem>
					<clipitem frameBlend="FALSE" id="audioclip-20">
						<file id="file-1"/>
						<name>bandicam 2025-06-02 00-01-10-144 - Audio</name>
						<rate>
							<timebase>60</timebase>
							<ntsc>TRUE</ntsc>
						</rate>
						<rate>
							<timebase>60</timebase>
							<ntsc>TRUE</ntsc>
						</rate>
						<duration>12</duration>
						<start>198</start>
						<end>210</end>
						<in>1206</in>
						<out>1218</out>
					</clipitem>
					<clipitem frameBlend="FALSE" id="audioclip-21">
						<file id="file-1"/>
						<name>bandicam 2025-06-02 00-01-10-144 - Audio</name>
						<rate>
							<timebase>60</timebase>
							<ntsc>TRUE</ntsc>
						</rate>
						<rate>
							<timebase>60</timebase>
							<ntsc>TRUE</ntsc>
						</rate>
						<duration>0</duration>
						<start>210</start>
						<end>210</end>
						<in>1320</in>
						<out>1320</out>
					</clipitem>
					<clipitem frameBlend="FALSE" id="audioclip-22">
						<file id="file-1"/>
						<name>bandicam 2025-06-02 00-01-10-144 - Audio</name>
						<rate>
							<timebase>60</timebase>
							<ntsc>TRUE</ntsc>
						</rate>
						<rate>
							<timebase>60</timebase>
							<ntsc>TRUE</ntsc>
						</rate>
						<duration>0</duration>
						<start>210</start>
						<end>210</end>
						<in>1386</in>
						<out>1386</out>
					</clipitem>
					<clipitem frameBlend="FALSE" id="audioclip-23">
						<file id="file-1"/>
						<name>bandicam 2025-06-02 00-01-10-144 - Audio</name>
						<rate>
							<timebase>60</timebase>
							<ntsc>TRUE</ntsc>
						</rate>
						<rate>
							<timebase>60</timebase>
							<ntsc>TRUE</ntsc>
						</rate>
						<duration>18</duration>
						<start>210</start>
						<end>228</end>
						<in>1404</in>
						<out>1422</out>
					</clipitem>
					<clipitem frameBlend="FALSE" id="audioclip-24">
						<file id="file-1"/>
						<name>bandicam 2025-06-02 00-01-10-144 - Audio</name>
						<rate>
							<timebase>60</timebase>
							<ntsc>TRUE</ntsc>
						</rate>
						<rate>
							<timebase>60</timebase>
							<ntsc>TRUE</ntsc>
						</rate>
						<duration>12</duration>
						<start>228</start>
						<end>240</end>
						<in>1446</in>
						<out>1458</out>
					</clipitem>
					<clipitem frameBlend="FALSE" id="audioclip-25">
						<file id="file-1"/>
						<name>bandicam 2025-06-02 00-01-10-144 - Audio</name>
						<rate>
							<timebase>60</timebase>
							<ntsc>TRUE</ntsc>
						</rate>
						<rate>
							<timebase>60</timebase>
							<ntsc>TRUE</ntsc>
						</rate>
						<duration>12</duration>
						<start>240</start>
						<end>252</end>
						<in>1566</in>
						<out>1578</out>
					</clipitem>
					<clipitem frameBlend="FALSE" id="audioclip-26">
						<file id="file-1"/>
						<name>bandicam 2025-06-02 00-01-10-144 - Audio</name>
						<rate>
							<timebase>60</timebase>
							<ntsc>TRUE</ntsc>
						</rate>
						<rate>
							<timebase>60</timebase>
							<ntsc>TRUE</ntsc>
						</rate>
						<duration>30</duration>
						<start>252</start>
						<end>282</end>
						<in>1692</in>
						<out>1722</out>
					</clipitem>
					<clipitem frameBlend="FALSE" id="audioclip-27">
						<file id="file-1"/>
						<name>bandicam 2025-06-02 00-01-10-144 - Audio</name>
						<rate>
							<timebase>60</timebase>
							<ntsc>TRUE</ntsc>
						</rate>
						<rate>
							<timebase>60</timebase>
							<ntsc>TRUE</ntsc>
						</rate>
						<duration>18</duration>
						<start>282</start>
						<end>300</end>
						<in>1746</in>
						<out>1764</out>
					</clipitem>
					<clipitem frameBlend="FALSE" id="audioclip-28">
						<file id="file-1"/>
						<name>bandicam 2025-06-02 00-01-10-144 - Audio</name>
						<rate>
							<timebase>60</timebase>
							<ntsc>TRUE</ntsc>
						</rate>
						<rate>
							<timebase>60</timebase>
							<ntsc>TRUE</ntsc>
						</rate>
						<duration>0</duration>
						<start>300</start>
						<end>300</end>
						<in>1776</in>
						<out>1776</out>
					</clipitem>
					<clipitem frameBlend="FALSE" id="audioclip-29">
						<file id="file-1"/>
						<name>bandicam 2025-06-02 00-01-10-144 - Audio</name>
						<rate>
							<timebase>60</timebase>
							<ntsc>TRUE</ntsc>
						</rate>
						<rate>
							<timebase>60</timebase>
							<ntsc>TRUE</ntsc>
						</rate>
						<duration>6</duration>
						<start>300</start>
						<end>306</end>
						<in>1812</in>
						<out>1818</out>
					</clipitem>
					<clipitem frameBlend="FALSE" id="audioclip-30">
						<file id="file-1"/>
						<name>bandicam 2025-06-02 00-01-10-144 - Audio</name>
						<rate>
							<timebase>60</timebase>
							<ntsc>TRUE</ntsc>
						</rate>
						<rate>
							<timebase>60</timebase>
							<ntsc>TRUE</ntsc>
						</rate>
						<duration>0</duration>
						<start>306</start>
						<end>306</end>
						<in>1830</in>
						<out>1830</out>
					</clipitem>
					<clipitem frameBlend="FALSE" id="audioclip-31">
						<file id="file-1"/>
						<name>bandicam 2025-06-02 00-01-10-144 - Audio</name>
						<rate>
							<timebase>60</timebase>
							<ntsc>TRUE</ntsc>
						</rate>
						<rate>
							<timebase>60</timebase>
							<ntsc>TRUE</ntsc>
						</rate>
						<duration>12</duration>
						<start>306</start>
						<end>318</end>
						<in>1842</in>
						<out>1854</out>
					</clipitem>
					<clipitem frameBlend="FALSE" id="audioclip-32">
						<file id="file-1"/>
						<name>bandicam 2025-06-02 00-01-10-144 - Audio</name>
						<rate>
							<timebase>60</timebase>
							<ntsc>TRUE</ntsc>
						</rate>
						<rate>
							<timebase>60</timebase>
							<ntsc>TRUE</ntsc>
						</rate>
						<duration>0</duration>
						<start>318</start>
						<end>318</end>
						<in>1872</in>
						<out>1872</out>
					</clipitem>
					<clipitem frameBlend="FALSE" id="audioclip-33">
						<file id="file-1"/>
						<name>bandicam 2025-06-02 00-01-10-144 - Audio</name>
						<rate>
							<timebase>60</timebase>
							<ntsc>TRUE</ntsc>
						</rate>
						<rate>
							<timebase>60</timebase>
							<ntsc>TRUE</ntsc>
						</rate>
						<duration>6</duration>
						<start>318</start>
						<end>324</end>
						<in>1884</in>
						<out>1890</out>
					</clipitem>
					<clipitem frameBlend="FALSE" id="audioclip-34">
						<file id="file-1"/>
						<name>bandicam 2025-06-02 00-01-10-144 - Audio</name>
						<rate>
							<timebase>60</timebase>
							<ntsc>TRUE</ntsc>
						</rate>
						<rate>
							<timebase>60</timebase>
							<ntsc>TRUE</ntsc>
						</rate>
						<duration>12</duration>
						<start>324</start>
						<end>336</end>
						<in>1926</in>
						<out>1938</out>
					</clipitem>
					<clipitem frameBlend="FALSE" id="audioclip-35">
						<file id="file-1"/>
						<name>bandicam 2025-06-02 00-01-10-144 - Audio</name>
						<rate>
							<timebase>60</timebase>
							<ntsc>TRUE</ntsc>
						</rate>
						<rate>
							<timebase>60</timebase>
							<ntsc>TRUE</ntsc>
						</rate>
						<duration>12</duration>
						<start>336</start>
						<end>348</end>
						<in>2178</in>
						<out>2190</out>
					</clipitem>
					<clipitem frameBlend="FALSE" id="audioclip-36">
						<file id="file-1"/>
						<name>bandicam 2025-06-02 00-01-10-144 - Audio</name>
						<rate>
							<timebase>60</timebase>
							<ntsc>TRUE</ntsc>
						</rate>
						<rate>
							<timebase>60</timebase>
							<ntsc>TRUE</ntsc>
						</rate>
						<duration>12</duration>
						<start>348</start>
						<end>360</end>
						<in>2280</in>
						<out>2292</out>
					</clipitem>
					<clipitem frameBlend="FALSE" id="audioclip-37">
						<file id="file-1"/>
						<name>bandicam 2025-06-02 00-01-10-144 - Audio</name>
						<rate>
							<timebase>60</timebase>
							<ntsc>TRUE</ntsc>
						</rate>
						<rate>
							<timebase>60</timebase>
							<ntsc>TRUE</ntsc>
						</rate>
						<duration>42</duration>
						<start>360</start>
						<end>402</end>
						<in>2304</in>
						<out>2346</out>
					</clipitem>
					<clipitem frameBlend="FALSE" id="audioclip-38">
						<file id="file-1"/>
						<name>bandicam 2025-06-02 00-01-10-144 - Audio</name>
						<rate>
							<timebase>60</timebase>
							<ntsc>TRUE</ntsc>
						</rate>
						<rate>
							<timebase>60</timebase>
							<ntsc>TRUE</ntsc>
						</rate>
						<duration>12</duration>
						<start>402</start>
						<end>414</end>
						<in>2448</in>
						<out>2460</out>
					</clipitem>
					<clipitem frameBlend="FALSE" id="audioclip-39">
						<file id="file-1"/>
						<name>bandicam 2025-06-02 00-01-10-144 - Audio</name>
						<rate>
							<timebase>60</timebase>
							<ntsc>TRUE</ntsc>
						</rate>
						<rate>
							<timebase>60</timebase>
							<ntsc>TRUE</ntsc>
						</rate>
						<duration>6</duration>
						<start>414</start>
						<end>420</end>
						<in>2478</in>
						<out>2484</out>
					</clipitem>
					<clipitem frameBlend="FALSE" id="audioclip-40">
						<file id="file-1"/>
						<name>bandicam 2025-06-02 00-01-10-144 - Audio</name>
						<rate>
							<timebase>60</timebase>
							<ntsc>TRUE</ntsc>
						</rate>
						<rate>
							<timebase>60</timebase>
							<ntsc>TRUE</ntsc>
						</rate>
						<duration>6</duration>
						<start>420</start>
						<end>426</end>
						<in>2496</in>
						<out>2502</out>
					</clipitem>
					<clipitem frameBlend="FALSE" id="audioclip-41">
						<file id="file-1"/>
						<name>bandicam 2025-06-02 00-01-10-144 - Audio</name>
						<rate>
							<timebase>60</timebase>
							<ntsc>TRUE</ntsc>
						</rate>
						<rate>
							<timebase>60</timebase>
							<ntsc>TRUE</ntsc>
						</rate>
						<duration>12</duration>
						<start>426</start>
						<end>438</end>
						<in>2538</in>
						<out>2550</out>
					</clipitem>
					<clipitem frameBlend="FALSE" id="audioclip-42">
						<file id="file-1"/>
						<name>bandicam 2025-06-02 00-01-10-144 - Audio</name>
						<rate>
							<timebase>60</timebase>
							<ntsc>TRUE</ntsc>
						</rate>
						<rate>
							<timebase>60</timebase>
							<ntsc>TRUE</ntsc>
						</rate>
						<duration>6</duration>
						<start>438</start>
						<end>444</end>
						<in>2562</in>
						<out>2568</out>
					</clipitem>
					<clipitem frameBlend="FALSE" id="audioclip-43">
						<file id="file-1"/>
						<name>bandicam 2025-06-02 00-01-10-144 - Audio</name>
						<rate>
							<timebase>60</timebase>
							<ntsc>TRUE</ntsc>
						</rate>
						<rate>
							<timebase>60</timebase>
							<ntsc>TRUE</ntsc>
						</rate>
						<duration>36</duration>
						<start>444</start>
						<end>480</end>
						<in>2592</in>
						<out>2628</out>
					</clipitem>
					<clipitem frameBlend="FALSE" id="audioclip-44">
						<file id="file-1"/>
						<name>bandicam 2025-06-02 00-01-10-144 - Audio</name>
						<rate>
							<timebase>60</timebase>
							<ntsc>TRUE</ntsc>
						</rate>
						<rate>
							<timebase>60</timebase>
							<ntsc>TRUE</ntsc>
						</rate>
						<duration>24</duration>
						<start>480</start>
						<end>504</end>
						<in>2640</in>
						<out>2664</out>
					</clipitem>
					<clipitem frameBlend="FALSE" id="audioclip-45">
						<file id="file-1"/>
						<name>bandicam 2025-06-02 00-01-10-144 - Audio</name>
						<rate>
							<timebase>60</timebase>
							<ntsc>TRUE</ntsc>
						</rate>
						<rate>
							<timebase>60</timebase>
							<ntsc>TRUE</ntsc>
						</rate>
						<duration>114</duration>
						<start>504</start>
						<end>618</end>
						<in>2724</in>
						<out>2838</out>
					</clipitem>
					<clipitem frameBlend="FALSE" id="audioclip-46">
						<file id="file-1"/>
						<name>bandicam 2025-06-02 00-01-10-144 - Audio</name>
						<rate>
							<timebase>60</timebase>
							<ntsc>TRUE</ntsc>
						</rate>
						<rate>
							<timebase>60</timebase>
							<ntsc>TRUE</ntsc>
						</rate>
						<duration>18</duration>
						<start>618</start>
						<end>636</end>
						<in>2868</in>
						<out>2886</out>
					</clipitem>
					<clipitem frameBlend="FALSE" id="audioclip-47">
						<file id="file-1"/>
						<name>bandicam 2025-06-02 00-01-10-144 - Audio</name>
						<rate>
							<timebase>60</timebase>
							<ntsc>TRUE</ntsc>
						</rate>
						<rate>
							<timebase>60</timebase>
							<ntsc>TRUE</ntsc>
						</rate>
						<duration>6</duration>
						<start>636</start>
						<end>642</end>
						<in>2904</in>
						<out>2910</out>
					</clipitem>
					<clipitem frameBlend="FALSE" id="audioclip-48">
						<file id="file-1"/>
						<name>bandicam 2025-06-02 00-01-10-144 - Audio</name>
						<rate>
							<timebase>60</timebase>
							<ntsc>TRUE</ntsc>
						</rate>
						<rate>
							<timebase>60</timebase>
							<ntsc>TRUE</ntsc>
						</rate>
						<duration>0</duration>
						<start>642</start>
						<end>642</end>
						<in>2946</in>
						<out>2946</out>
					</clipitem>
					<clipitem frameBlend="FALSE" id="audioclip-49">
						<file id="file-1"/>
						<name>bandicam 2025-06-02 00-01-10-144 - Audio</name>
						<rate>
							<timebase>60</timebase>
							<ntsc>TRUE</ntsc>
						</rate>
						<rate>
							<timebase>60</timebase>
							<ntsc>TRUE</ntsc>
						</rate>
						<duration>12</duration>
						<start>642</start>
						<end>654</end>
						<in>2964</in>
						<out>2976</out>
					</clipitem>
					<clipitem frameBlend="FALSE" id="audioclip-50">
						<file id="file-1"/>
						<name>bandicam 2025-06-02 00-01-10-144 - Audio</name>
						<rate>
							<timebase>60</timebase>
							<ntsc>TRUE</ntsc>
						</rate>
						<rate>
							<timebase>60</timebase>
							<ntsc>TRUE</ntsc>
						</rate>
						<duration>42</duration>
						<start>654</start>
						<end>696</end>
						<in>3060</in>
						<out>3102</out>
					</clipitem>
					<clipitem frameBlend="FALSE" id="audioclip-51">
						<file id="file-1"/>
						<name>bandicam 2025-06-02 00-01-10-144 - Audio</name>
						<rate>
							<timebase>60</timebase>
							<ntsc>TRUE</ntsc>
						</rate>
						<rate>
							<timebase>60</timebase>
							<ntsc>TRUE</ntsc>
						</rate>
						<duration>12</duration>
						<start>696</start>
						<end>708</end>
						<in>3120</in>
						<out>3132</out>
					</clipitem>
					<clipitem frameBlend="FALSE" id="audioclip-52">
						<file id="file-1"/>
						<name>bandicam 2025-06-02 00-01-10-144 - Audio</name>
						<rate>
							<timebase>60</timebase>
							<ntsc>TRUE</ntsc>
						</rate>
						<rate>
							<timebase>60</timebase>
							<ntsc>TRUE</ntsc>
						</rate>
						<duration>12</duration>
						<start>708</start>
						<end>720</end>
						<in>3228</in>
						<out>3240</out>
					</clipitem>
					<clipitem frameBlend="FALSE" id="audioclip-53">
						<file id="file-1"/>
						<name>bandicam 2025-06-02 00-01-10-144 - Audio</name>
						<rate>
							<timebase>60</timebase>
							<ntsc>TRUE</ntsc>
						</rate>
						<rate>
							<timebase>60</timebase>
							<ntsc>TRUE</ntsc>
						</rate>
						<duration>24</duration>
						<start>720</start>
						<end>744</end>
						<in>3270</in>
						<out>3294</out>
					</clipitem>
					<clipitem frameBlend="FALSE" id="audioclip-54">
						<file id="file-1"/>
						<name>bandicam 2025-06-02 00-01-10-144 - Audio</name>
						<rate>
							<timebase>60</timebase>
							<ntsc>TRUE</ntsc>
						</rate>
						<rate>
							<timebase>60</timebase>
							<ntsc>TRUE</ntsc>
						</rate>
						<duration>0</duration>
						<start>744</start>
						<end>744</end>
						<in>3306</in>
						<out>3306</out>
					</clipitem>
					<clipitem frameBlend="FALSE" id="audioclip-55">
						<file id="file-1"/>
						<name>bandicam 2025-06-02 00-01-10-144 - Audio</name>
						<rate>
							<timebase>60</timebase>
							<ntsc>TRUE</ntsc>
						</rate>
						<rate>
							<timebase>60</timebase>
							<ntsc>TRUE</ntsc>
						</rate>
						<duration>12</duration>
						<start>744</start>
						<end>756</end>
						<in>3372</in>
						<out>3384</out>
					</clipitem>
					<clipitem frameBlend="FALSE" id="audioclip-56">
						<file id="file-1"/>
						<name>bandicam 2025-06-02 00-01-10-144 - Audio</name>
						<rate>
							<timebase>60</timebase>
							<ntsc>TRUE</ntsc>
						</rate>
						<rate>
							<timebase>60</timebase>
							<ntsc>TRUE</ntsc>
						</rate>
						<duration>24</duration>
						<start>756</start>
						<end>780</end>
						<in>3450</in>
						<out>3474</out>
					</clipitem>
					<clipitem frameBlend="FALSE" id="audioclip-57">
						<file id="file-1"/>
						<name>bandicam 2025-06-02 00-01-10-144 - Audio</name>
						<rate>
							<timebase>60</timebase>
							<ntsc>TRUE</ntsc>
						</rate>
						<rate>
							<timebase>60</timebase>
							<ntsc>TRUE</ntsc>
						</rate>
						<duration>12</duration>
						<start>780</start>
						<end>792</end>
						<in>3498</in>
						<out>3510</out>
					</clipitem>
					<clipitem frameBlend="FALSE" id="audioclip-58">
						<file id="file-1"/>
						<name>bandicam 2025-06-02 00-01-10-144 - Audio</name>
						<rate>
							<timebase>60</timebase>
							<ntsc>TRUE</ntsc>
						</rate>
						<rate>
							<timebase>60</timebase>
							<ntsc>TRUE</ntsc>
						</rate>
						<duration>0</duration>
						<start>792</start>
						<end>792</end>
						<in>3582</in>
						<out>3582</out>
					</clipitem>
					<clipitem frameBlend="FALSE" id="audioclip-59">
						<file id="file-1"/>
						<name>bandicam 2025-06-02 00-01-10-144 - Audio</name>
						<rate>
							<timebase>60</timebase>
							<ntsc>TRUE</ntsc>
						</rate>
						<rate>
							<timebase>60</timebase>
							<ntsc>TRUE</ntsc>
						</rate>
						<duration>18</duration>
						<start>792</start>
						<end>810</end>
						<in>3624</in>
						<out>3642</out>
					</clipitem>
					<clipitem frameBlend="FALSE" id="audioclip-60">
						<file id="file-1"/>
						<name>bandicam 2025-06-02 00-01-10-144 - Audio</name>
						<rate>
							<timebase>60</timebase>
							<ntsc>TRUE</ntsc>
						</rate>
						<rate>
							<timebase>60</timebase>
							<ntsc>TRUE</ntsc>
						</rate>
						<duration>0</duration>
						<start>810</start>
						<end>810</end>
						<in>3696</in>
						<out>3696</out>
					</clipitem>
					<clipitem frameBlend="FALSE" id="audioclip-61">
						<file id="file-1"/>
						<name>bandicam 2025-06-02 00-01-10-144 - Audio</name>
						<rate>
							<timebase>60</timebase>
							<ntsc>TRUE</ntsc>
						</rate>
						<rate>
							<timebase>60</timebase>
							<ntsc>TRUE</ntsc>
						</rate>
						<duration>12</duration>
						<start>810</start>
						<end>822</end>
						<in>3768</in>
						<out>3780</out>
					</clipitem>
					<clipitem frameBlend="FALSE" id="audioclip-62">
						<file id="file-1"/>
						<name>bandicam 2025-06-02 00-01-10-144 - Audio</name>
						<rate>
							<timebase>60</timebase>
							<ntsc>TRUE</ntsc>
						</rate>
						<rate>
							<timebase>60</timebase>
							<ntsc>TRUE</ntsc>
						</rate>
						<duration>12</duration>
						<start>822</start>
						<end>834</end>
						<in>3852</in>
						<out>3864</out>
					</clipitem>
					<clipitem frameBlend="FALSE" id="audioclip-63">
						<file id="file-1"/>
						<name>bandicam 2025-06-02 00-01-10-144 - Audio</name>
						<rate>
							<timebase>60</timebase>
							<ntsc>TRUE</ntsc>
						</rate>
						<rate>
							<timebase>60</timebase>
							<ntsc>TRUE</ntsc>
						</rate>
						<duration>12</duration>
						<start>834</start>
						<end>846</end>
						<in>3906</in>
						<out>3918</out>
					</clipitem>
					<clipitem frameBlend="FALSE" id="audioclip-64">
						<file id="file-1"/>
						<name>bandicam 2025-06-02 00-01-10-144 - Audio</name>
						<rate>
							<timebase>60</timebase>
							<ntsc>TRUE</ntsc>
						</rate>
						<rate>
							<timebase>60</timebase>
							<ntsc>TRUE</ntsc>
						</rate>
						<duration>6</duration>
						<start>846</start>
						<end>852</end>
						<in>4026</in>
						<out>4032</out>
					</clipitem>
					<clipitem frameBlend="FALSE" id="audioclip-65">
						<file id="file-1"/>
						<name>bandicam 2025-06-02 00-01-10-144 - Audio</name>
						<rate>
							<timebase>60</timebase>
							<ntsc>TRUE</ntsc>
						</rate>
						<rate>
							<timebase>60</timebase>
							<ntsc>TRUE</ntsc>
						</rate>
						<duration>0</duration>
						<start>852</start>
						<end>852</end>
						<in>4044</in>
						<out>4044</out>
					</clipitem>
					<clipitem frameBlend="FALSE" id="audioclip-66">
						<file id="file-1"/>
						<name>bandicam 2025-06-02 00-01-10-144 - Audio</name>
						<rate>
							<timebase>60</timebase>
							<ntsc>TRUE</ntsc>
						</rate>
						<rate>
							<timebase>60</timebase>
							<ntsc>TRUE</ntsc>
						</rate>
						<duration>24</duration>
						<start>852</start>
						<end>876</end>
						<in>4086</in>
						<out>4110</out>
					</clipitem>
					<clipitem frameBlend="FALSE" id="audioclip-67">
						<file id="file-1"/>
						<name>bandicam 2025-06-02 00-01-10-144 - Audio</name>
						<rate>
							<timebase>60</timebase>
							<ntsc>TRUE</ntsc>
						</rate>
						<rate>
							<timebase>60</timebase>
							<ntsc>TRUE</ntsc>
						</rate>
						<duration>24</duration>
						<start>876</start>
						<end>900</end>
						<in>4128</in>
						<out>4152</out>
					</clipitem>
					<clipitem frameBlend="FALSE" id="audioclip-68">
						<file id="file-1"/>
						<name>bandicam 2025-06-02 00-01-10-144 - Audio</name>
						<rate>
							<timebase>60</timebase>
							<ntsc>TRUE</ntsc>
						</rate>
						<rate>
							<timebase>60</timebase>
							<ntsc>TRUE</ntsc>
						</rate>
						<duration>12</duration>
						<start>900</start>
						<end>912</end>
						<in>4188</in>
						<out>4200</out>
					</clipitem>
					<clipitem frameBlend="FALSE" id="audioclip-69">
						<file id="file-1"/>
						<name>bandicam 2025-06-02 00-01-10-144 - Audio</name>
						<rate>
							<timebase>60</timebase>
							<ntsc>TRUE</ntsc>
						</rate>
						<rate>
							<timebase>60</timebase>
							<ntsc>TRUE</ntsc>
						</rate>
						<duration>36</duration>
						<start>912</start>
						<end>948</end>
						<in>4230</in>
						<out>4266</out>
					</clipitem>
					<clipitem frameBlend="FALSE" id="audioclip-70">
						<file id="file-1"/>
						<name>bandicam 2025-06-02 00-01-10-144 - Audio</name>
						<rate>
							<timebase>60</timebase>
							<ntsc>TRUE</ntsc>
						</rate>
						<rate>
							<timebase>60</timebase>
							<ntsc>TRUE</ntsc>
						</rate>
						<duration>132</duration>
						<start>948</start>
						<end>1080</end>
						<in>4302</in>
						<out>4434</out>
					</clipitem>
					<clipitem frameBlend="FALSE" id="audioclip-71">
						<file id="file-1"/>
						<name>bandicam 2025-06-02 00-01-10-144 - Audio</name>
						<rate>
							<timebase>60</timebase>
							<ntsc>TRUE</ntsc>
						</rate>
						<rate>
							<timebase>60</timebase>
							<ntsc>TRUE</ntsc>
						</rate>
						<duration>12</duration>
						<start>1080</start>
						<end>1092</end>
						<in>4470</in>
						<out>4482</out>
					</clipitem>
					<clipitem frameBlend="FALSE" id="audioclip-72">
						<file id="file-1"/>
						<name>bandicam 2025-06-02 00-01-10-144 - Audio</name>
						<rate>
							<timebase>60</timebase>
							<ntsc>TRUE</ntsc>
						</rate>
						<rate>
							<timebase>60</timebase>
							<ntsc>TRUE</ntsc>
						</rate>
						<duration>48</duration>
						<start>1092</start>
						<end>1140</end>
						<in>4506</in>
						<out>4554</out>
					</clipitem>
					<clipitem frameBlend="FALSE" id="audioclip-73">
						<file id="file-1"/>
						<name>bandicam 2025-06-02 00-01-10-144 - Audio</name>
						<rate>
							<timebase>60</timebase>
							<ntsc>TRUE</ntsc>
						</rate>
						<rate>
							<timebase>60</timebase>
							<ntsc>TRUE</ntsc>
						</rate>
						<duration>30</duration>
						<start>1140</start>
						<end>1170</end>
						<in>4602</in>
						<out>4632</out>
					</clipitem>
					<clipitem frameBlend="FALSE" id="audioclip-74">
						<file id="file-1"/>
						<name>bandicam 2025-06-02 00-01-10-144 - Audio</name>
						<rate>
							<timebase>60</timebase>
							<ntsc>TRUE</ntsc>
						</rate>
						<rate>
							<timebase>60</timebase>
							<ntsc>TRUE</ntsc>
						</rate>
						<duration>12</duration>
						<start>1170</start>
						<end>1182</end>
						<in>4650</in>
						<out>4662</out>
					</clipitem>
					<clipitem frameBlend="FALSE" id="audioclip-75">
						<file id="file-1"/>
						<name>bandicam 2025-06-02 00-01-10-144 - Audio</name>
						<rate>
							<timebase>60</timebase>
							<ntsc>TRUE</ntsc>
						</rate>
						<rate>
							<timebase>60</timebase>
							<ntsc>TRUE</ntsc>
						</rate>
						<duration>0</duration>
						<start>1182</start>
						<end>1182</end>
						<in>4704</in>
						<out>4704</out>
					</clipitem>
					<clipitem frameBlend="FALSE" id="audioclip-76">
						<file id="file-1"/>
						<name>bandicam 2025-06-02 00-01-10-144 - Audio</name>
						<rate>
							<timebase>60</timebase>
							<ntsc>TRUE</ntsc>
						</rate>
						<rate>
							<timebase>60</timebase>
							<ntsc>TRUE</ntsc>
						</rate>
						<duration>48</duration>
						<start>1182</start>
						<end>1230</end>
						<in>4722</in>
						<out>4770</out>
					</clipitem>
					<clipitem frameBlend="FALSE" id="audioclip-77">
						<file id="file-1"/>
						<name>bandicam 2025-06-02 00-01-10-144 - Audio</name>
						<rate>
							<timebase>60</timebase>
							<ntsc>TRUE</ntsc>
						</rate>
						<rate>
							<timebase>60</timebase>
							<ntsc>TRUE</ntsc>
						</rate>
						<duration>12</duration>
						<start>1230</start>
						<end>1242</end>
						<in>4788</in>
						<out>4800</out>
					</clipitem>
					<clipitem frameBlend="FALSE" id="audioclip-78">
						<file id="file-1"/>
						<name>bandicam 2025-06-02 00-01-10-144 - Audio</name>
						<rate>
							<timebase>60</timebase>
							<ntsc>TRUE</ntsc>
						</rate>
						<rate>
							<timebase>60</timebase>
							<ntsc>TRUE</ntsc>
						</rate>
						<duration>0</duration>
						<start>1242</start>
						<end>1242</end>
						<in>4848</in>
						<out>4848</out>
					</clipitem>
					<clipitem frameBlend="FALSE" id="audioclip-79">
						<file id="file-1"/>
						<name>bandicam 2025-06-02 00-01-10-144 - Audio</name>
						<rate>
							<timebase>60</timebase>
							<ntsc>TRUE</ntsc>
						</rate>
						<rate>
							<timebase>60</timebase>
							<ntsc>TRUE</ntsc>
						</rate>
						<duration>12</duration>
						<start>1242</start>
						<end>1254</end>
						<in>4860</in>
						<out>4872</out>
					</clipitem>
					<clipitem frameBlend="FALSE" id="audioclip-80">
						<file id="file-1"/>
						<name>bandicam 2025-06-02 00-01-10-144 - Audio</name>
						<rate>
							<timebase>60</timebase>
							<ntsc>TRUE</ntsc>
						</rate>
						<rate>
							<timebase>60</timebase>
							<ntsc>TRUE</ntsc>
						</rate>
						<duration>6</duration>
						<start>1254</start>
						<end>1260</end>
						<in>4890</in>
						<out>4896</out>
					</clipitem>
					<clipitem frameBlend="FALSE" id="audioclip-81">
						<file id="file-1"/>
						<name>bandicam 2025-06-02 00-01-10-144 - Audio</name>
						<rate>
							<timebase>60</timebase>
							<ntsc>TRUE</ntsc>
						</rate>
						<rate>
							<timebase>60</timebase>
							<ntsc>TRUE</ntsc>
						</rate>
						<duration>12</duration>
						<start>1260</start>
						<end>1272</end>
						<in>4908</in>
						<out>4920</out>
					</clipitem>
					<clipitem frameBlend="FALSE" id="audioclip-82">
						<file id="file-1"/>
						<name>bandicam 2025-06-02 00-01-10-144 - Audio</name>
						<rate>
							<timebase>60</timebase>
							<ntsc>TRUE</ntsc>
						</rate>
						<rate>
							<timebase>60</timebase>
							<ntsc>TRUE</ntsc>
						</rate>
						<duration>12</duration>
						<start>1272</start>
						<end>1284</end>
						<in>4944</in>
						<out>4956</out>
					</clipitem>
					<clipitem frameBlend="FALSE" id="audioclip-83">
						<file id="file-1"/>
						<name>bandicam 2025-06-02 00-01-10-144 - Audio</name>
						<rate>
							<timebase>60</timebase>
							<ntsc>TRUE</ntsc>
						</rate>
						<rate>
							<timebase>60</timebase>
							<ntsc>TRUE</ntsc>
						</rate>
						<duration>6</duration>
						<start>1284</start>
						<end>1290</end>
						<in>4968</in>
						<out>4974</out>
					</clipitem>
					<clipitem frameBlend="FALSE" id="audioclip-84">
						<file id="file-1"/>
						<name>bandicam 2025-06-02 00-01-10-144 - Audio</name>
						<rate>
							<timebase>60</timebase>
							<ntsc>TRUE</ntsc>
						</rate>
						<rate>
							<timebase>60</timebase>
							<ntsc>TRUE</ntsc>
						</rate>
						<duration>12</duration>
						<start>1290</start>
						<end>1302</end>
						<in>5022</in>
						<out>5034</out>
					</clipitem>
					<clipitem frameBlend="FALSE" id="audioclip-85">
						<file id="file-1"/>
						<name>bandicam 2025-06-02 00-01-10-144 - Audio</name>
						<rate>
							<timebase>60</timebase>
							<ntsc>TRUE</ntsc>
						</rate>
						<rate>
							<timebase>60</timebase>
							<ntsc>TRUE</ntsc>
						</rate>
						<duration>6</duration>
						<start>1302</start>
						<end>1308</end>
						<in>5064</in>
						<out>5070</out>
					</clipitem>
					<clipitem frameBlend="FALSE" id="audioclip-86">
						<file id="file-1"/>
						<name>bandicam 2025-06-02 00-01-10-144 - Audio</name>
						<rate>
							<timebase>60</timebase>
							<ntsc>TRUE</ntsc>
						</rate>
						<rate>
							<timebase>60</timebase>
							<ntsc>TRUE</ntsc>
						</rate>
						<duration>0</duration>
						<start>1308</start>
						<end>1308</end>
						<in>5082</in>
						<out>5082</out>
					</clipitem>
					<clipitem frameBlend="FALSE" id="audioclip-87">
						<file id="file-1"/>
						<name>bandicam 2025-06-02 00-01-10-144 - Audio</name>
						<rate>
							<timebase>60</timebase>
							<ntsc>TRUE</ntsc>
						</rate>
						<rate>
							<timebase>60</timebase>
							<ntsc>TRUE</ntsc>
						</rate>
						<duration>84</duration>
						<start>1308</start>
						<end>1392</end>
						<in>5094</in>
						<out>5178</out>
					</clipitem>
					<clipitem frameBlend="FALSE" id="audioclip-88">
						<file id="file-1"/>
						<name>bandicam 2025-06-02 00-01-10-144 - Audio</name>
						<rate>
							<timebase>60</timebase>
							<ntsc>TRUE</ntsc>
						</rate>
						<rate>
							<timebase>60</timebase>
							<ntsc>TRUE</ntsc>
						</rate>
						<duration>12</duration>
						<start>1392</start>
						<end>1404</end>
						<in>5232</in>
						<out>5244</out>
					</clipitem>
					<clipitem frameBlend="FALSE" id="audioclip-89">
						<file id="file-1"/>
						<name>bandicam 2025-06-02 00-01-10-144 - Audio</name>
						<rate>
							<timebase>60</timebase>
							<ntsc>TRUE</ntsc>
						</rate>
						<rate>
							<timebase>60</timebase>
							<ntsc>TRUE</ntsc>
						</rate>
						<duration>12</duration>
						<start>1404</start>
						<end>1416</end>
						<in>5328</in>
						<out>5340</out>
					</clipitem>
					<clipitem frameBlend="FALSE" id="audioclip-90">
						<file id="file-1"/>
						<name>bandicam 2025-06-02 00-01-10-144 - Audio</name>
						<rate>
							<timebase>60</timebase>
							<ntsc>TRUE</ntsc>
						</rate>
						<rate>
							<timebase>60</timebase>
							<ntsc>TRUE</ntsc>
						</rate>
						<duration>12</duration>
						<start>1416</start>
						<end>1428</end>
						<in>5382</in>
						<out>5394</out>
					</clipitem>
					<clipitem frameBlend="FALSE" id="audioclip-91">
						<file id="file-1"/>
						<name>bandicam 2025-06-02 00-01-10-144 - Audio</name>
						<rate>
							<timebase>60</timebase>
							<ntsc>TRUE</ntsc>
						</rate>
						<rate>
							<timebase>60</timebase>
							<ntsc>TRUE</ntsc>
						</rate>
						<duration>36</duration>
						<start>1428</start>
						<end>1464</end>
						<in>5412</in>
						<out>5448</out>
					</clipitem>
					<clipitem frameBlend="FALSE" id="audioclip-92">
						<file id="file-1"/>
						<name>bandicam 2025-06-02 00-01-10-144 - Audio</name>
						<rate>
							<timebase>60</timebase>
							<ntsc>TRUE</ntsc>
						</rate>
						<rate>
							<timebase>60</timebase>
							<ntsc>TRUE</ntsc>
						</rate>
						<duration>0</duration>
						<start>1464</start>
						<end>1464</end>
						<in>5466</in>
						<out>5466</out>
					</clipitem>
					<clipitem frameBlend="FALSE" id="audioclip-93">
						<file id="file-1"/>
						<name>bandicam 2025-06-02 00-01-10-144 - Audio</name>
						<rate>
							<timebase>60</timebase>
							<ntsc>TRUE</ntsc>
						</rate>
						<rate>
							<timebase>60</timebase>
							<ntsc>TRUE</ntsc>
						</rate>
						<duration>12</duration>
						<start>1464</start>
						<end>1476</end>
						<in>5490</in>
						<out>5502</out>
					</clipitem>
					<clipitem frameBlend="FALSE" id="audioclip-94">
						<file id="file-1"/>
						<name>bandicam 2025-06-02 00-01-10-144 - Audio</name>
						<rate>
							<timebase>60</timebase>
							<ntsc>TRUE</ntsc>
						</rate>
						<rate>
							<timebase>60</timebase>
							<ntsc>TRUE</ntsc>
						</rate>
						<duration>0</duration>
						<start>1476</start>
						<end>1476</end>
						<in>5520</in>
						<out>5520</out>
					</clipitem>
					<clipitem frameBlend="FALSE" id="audioclip-95">
						<file id="file-1"/>
						<name>bandicam 2025-06-02 00-01-10-144 - Audio</name>
						<rate>
							<timebase>60</timebase>
							<ntsc>TRUE</ntsc>
						</rate>
						<rate>
							<timebase>60</timebase>
							<ntsc>TRUE</ntsc>
						</rate>
						<duration>0</duration>
						<start>1476</start>
						<end>1476</end>
						<in>5532</in>
						<out>5532</out>
					</clipitem>
					<clipitem frameBlend="FALSE" id="audioclip-96">
						<file id="file-1"/>
						<name>bandicam 2025-06-02 00-01-10-144 - Audio</name>
						<rate>
							<timebase>60</timebase>
							<ntsc>TRUE</ntsc>
						</rate>
						<rate>
							<timebase>60</timebase>
							<ntsc>TRUE</ntsc>
						</rate>
						<duration>6</duration>
						<start>1476</start>
						<end>1482</end>
						<in>5544</in>
						<out>5550</out>
					</clipitem>
					<clipitem frameBlend="FALSE" id="audioclip-97">
						<file id="file-1"/>
						<name>bandicam 2025-06-02 00-01-10-144 - Audio</name>
						<rate>
							<timebase>60</timebase>
							<ntsc>TRUE</ntsc>
						</rate>
						<rate>
							<timebase>60</timebase>
							<ntsc>TRUE</ntsc>
						</rate>
						<duration>12</duration>
						<start>1482</start>
						<end>1494</end>
						<in>5580</in>
						<out>5592</out>
					</clipitem>
					<clipitem frameBlend="FALSE" id="audioclip-98">
						<file id="file-1"/>
						<name>bandicam 2025-06-02 00-01-10-144 - Audio</name>
						<rate>
							<timebase>60</timebase>
							<ntsc>TRUE</ntsc>
						</rate>
						<rate>
							<timebase>60</timebase>
							<ntsc>TRUE</ntsc>
						</rate>
						<duration>12</duration>
						<start>1494</start>
						<end>1506</end>
						<in>5628</in>
						<out>5640</out>
					</clipitem>
					<clipitem frameBlend="FALSE" id="audioclip-99">
						<file id="file-1"/>
						<name>bandicam 2025-06-02 00-01-10-144 - Audio</name>
						<rate>
							<timebase>60</timebase>
							<ntsc>TRUE</ntsc>
						</rate>
						<rate>
							<timebase>60</timebase>
							<ntsc>TRUE</ntsc>
						</rate>
						<duration>30</duration>
						<start>1506</start>
						<end>1536</end>
						<in>5664</in>
						<out>5694</out>
					</clipitem>
					<clipitem frameBlend="FALSE" id="audioclip-100">
						<file id="file-1"/>
						<name>bandicam 2025-06-02 00-01-10-144 - Audio</name>
						<rate>
							<timebase>60</timebase>
							<ntsc>TRUE</ntsc>
						</rate>
						<rate>
							<timebase>60</timebase>
							<ntsc>TRUE</ntsc>
						</rate>
						<duration>0</duration>
						<start>1536</start>
						<end>1536</end>
						<in>5724</in>
						<out>5724</out>
					</clipitem>
					<clipitem frameBlend="FALSE" id="audioclip-101">
						<file id="file-1"/>
						<name>bandicam 2025-06-02 00-01-10-144 - Audio</name>
						<rate>
							<timebase>60</timebase>
							<ntsc>TRUE</ntsc>
						</rate>
						<rate>
							<timebase>60</timebase>
							<ntsc>TRUE</ntsc>
						</rate>
						<duration>24</duration>
						<start>1536</start>
						<end>1560</end>
						<in>5754</in>
						<out>5778</out>
					</clipitem>
					<clipitem frameBlend="FALSE" id="audioclip-102">
						<file id="file-1"/>
						<name>bandicam 2025-06-02 00-01-10-144 - Audio</name>
						<rate>
							<timebase>60</timebase>
							<ntsc>TRUE</ntsc>
						</rate>
						<rate>
							<timebase>60</timebase>
							<ntsc>TRUE</ntsc>
						</rate>
						<duration>90</duration>
						<start>1560</start>
						<end>1650</end>
						<in>5802</in>
						<out>5892</out>
					</clipitem>
					<clipitem frameBlend="FALSE" id="audioclip-103">
						<file id="file-1"/>
						<name>bandicam 2025-06-02 00-01-10-144 - Audio</name>
						<rate>
							<timebase>60</timebase>
							<ntsc>TRUE</ntsc>
						</rate>
						<rate>
							<timebase>60</timebase>
							<ntsc>TRUE</ntsc>
						</rate>
						<duration>66</duration>
						<start>1650</start>
						<end>1716</end>
						<in>5910</in>
						<out>5976</out>
					</clipitem>
					<clipitem frameBlend="FALSE" id="audioclip-104">
						<file id="file-1"/>
						<name>bandicam 2025-06-02 00-01-10-144 - Audio</name>
						<rate>
							<timebase>60</timebase>
							<ntsc>TRUE</ntsc>
						</rate>
						<rate>
							<timebase>60</timebase>
							<ntsc>TRUE</ntsc>
						</rate>
						<duration>36</duration>
						<start>1716</start>
						<end>1752</end>
						<in>6000</in>
						<out>6036</out>
					</clipitem>
					<clipitem frameBlend="FALSE" id="audioclip-105">
						<file id="file-1"/>
						<name>bandicam 2025-06-02 00-01-10-144 - Audio</name>
						<rate>
							<timebase>60</timebase>
							<ntsc>TRUE</ntsc>
						</rate>
						<rate>
							<timebase>60</timebase>
							<ntsc>TRUE</ntsc>
						</rate>
						<duration>12</duration>
						<start>1752</start>
						<end>1764</end>
						<in>6054</in>
						<out>6066</out>
					</clipitem>
					<clipitem frameBlend="FALSE" id="audioclip-106">
						<file id="file-1"/>
						<name>bandicam 2025-06-02 00-01-10-144 - Audio</name>
						<rate>
							<timebase>60</timebase>
							<ntsc>TRUE</ntsc>
						</rate>
						<rate>
							<timebase>60</timebase>
							<ntsc>TRUE</ntsc>
						</rate>
						<duration>0</duration>
						<start>1764</start>
						<end>1764</end>
						<in>6132</in>
						<out>6132</out>
					</clipitem>
					<clipitem frameBlend="FALSE" id="audioclip-107">
						<file id="file-1"/>
						<name>bandicam 2025-06-02 00-01-10-144 - Audio</name>
						<rate>
							<timebase>60</timebase>
							<ntsc>TRUE</ntsc>
						</rate>
						<rate>
							<timebase>60</timebase>
							<ntsc>TRUE</ntsc>
						</rate>
						<duration>48</duration>
						<start>1764</start>
						<end>1812</end>
						<in>6156</in>
						<out>6204</out>
					</clipitem>
					<clipitem frameBlend="FALSE" id="audioclip-108">
						<file id="file-1"/>
						<name>bandicam 2025-06-02 00-01-10-144 - Audio</name>
						<rate>
							<timebase>60</timebase>
							<ntsc>TRUE</ntsc>
						</rate>
						<rate>
							<timebase>60</timebase>
							<ntsc>TRUE</ntsc>
						</rate>
						<duration>30</duration>
						<start>1812</start>
						<end>1842</end>
						<in>6222</in>
						<out>6252</out>
					</clipitem>
					<clipitem frameBlend="FALSE" id="audioclip-109">
						<file id="file-1"/>
						<name>bandicam 2025-06-02 00-01-10-144 - Audio</name>
						<rate>
							<timebase>60</timebase>
							<ntsc>TRUE</ntsc>
						</rate>
						<rate>
							<timebase>60</timebase>
							<ntsc>TRUE</ntsc>
						</rate>
						<duration>0</duration>
						<start>1842</start>
						<end>1842</end>
						<in>6282</in>
						<out>6282</out>
					</clipitem>
					<clipitem frameBlend="FALSE" id="audioclip-110">
						<file id="file-1"/>
						<name>bandicam 2025-06-02 00-01-10-144 - Audio</name>
						<rate>
							<timebase>60</timebase>
							<ntsc>TRUE</ntsc>
						</rate>
						<rate>
							<timebase>60</timebase>
							<ntsc>TRUE</ntsc>
						</rate>
						<duration>12</duration>
						<start>1842</start>
						<end>1854</end>
						<in>6312</in>
						<out>6324</out>
					</clipitem>
					<clipitem frameBlend="FALSE" id="audioclip-111">
						<file id="file-1"/>
						<name>bandicam 2025-06-02 00-01-10-144 - Audio</name>
						<rate>
							<timebase>60</timebase>
							<ntsc>TRUE</ntsc>
						</rate>
						<rate>
							<timebase>60</timebase>
							<ntsc>TRUE</ntsc>
						</rate>
						<duration>12</duration>
						<start>1854</start>
						<end>1866</end>
						<in>6384</in>
						<out>6396</out>
					</clipitem>
					<clipitem frameBlend="FALSE" id="audioclip-112">
						<file id="file-1"/>
						<name>bandicam 2025-06-02 00-01-10-144 - Audio</name>
						<rate>
							<timebase>60</timebase>
							<ntsc>TRUE</ntsc>
						</rate>
						<rate>
							<timebase>60</timebase>
							<ntsc>TRUE</ntsc>
						</rate>
						<duration>12</duration>
						<start>1866</start>
						<end>1878</end>
						<in>6432</in>
						<out>6444</out>
					</clipitem>
					<clipitem frameBlend="FALSE" id="audioclip-113">
						<file id="file-1"/>
						<name>bandicam 2025-06-02 00-01-10-144 - Audio</name>
						<rate>
							<timebase>60</timebase>
							<ntsc>TRUE</ntsc>
						</rate>
						<rate>
							<timebase>60</timebase>
							<ntsc>TRUE</ntsc>
						</rate>
						<duration>0</duration>
						<start>1878</start>
						<end>1878</end>
						<in>6486</in>
						<out>6486</out>
					</clipitem>
					<clipitem frameBlend="FALSE" id="audioclip-114">
						<file id="file-1"/>
						<name>bandicam 2025-06-02 00-01-10-144 - Audio</name>
						<rate>
							<timebase>60</timebase>
							<ntsc>TRUE</ntsc>
						</rate>
						<rate>
							<timebase>60</timebase>
							<ntsc>TRUE</ntsc>
						</rate>
						<duration>36</duration>
						<start>1878</start>
						<end>1914</end>
						<in>6498</in>
						<out>6534</out>
					</clipitem>
					<clipitem frameBlend="FALSE" id="audioclip-115">
						<file id="file-1"/>
						<name>bandicam 2025-06-02 00-01-10-144 - Audio</name>
						<rate>
							<timebase>60</timebase>
							<ntsc>TRUE</ntsc>
						</rate>
						<rate>
							<timebase>60</timebase>
							<ntsc>TRUE</ntsc>
						</rate>
						<duration>6</duration>
						<start>1914</start>
						<end>1920</end>
						<in>6576</in>
						<out>6582</out>
					</clipitem>
					<clipitem frameBlend="FALSE" id="audioclip-116">
						<file id="file-1"/>
						<name>bandicam 2025-06-02 00-01-10-144 - Audio</name>
						<rate>
							<timebase>60</timebase>
							<ntsc>TRUE</ntsc>
						</rate>
						<rate>
							<timebase>60</timebase>
							<ntsc>TRUE</ntsc>
						</rate>
						<duration>12</duration>
						<start>1920</start>
						<end>1932</end>
						<in>6612</in>
						<out>6624</out>
					</clipitem>
					<clipitem frameBlend="FALSE" id="audioclip-117">
						<file id="file-1"/>
						<name>bandicam 2025-06-02 00-01-10-144 - Audio</name>
						<rate>
							<timebase>60</timebase>
							<ntsc>TRUE</ntsc>
						</rate>
						<rate>
							<timebase>60</timebase>
							<ntsc>TRUE</ntsc>
						</rate>
						<duration>12</duration>
						<start>1932</start>
						<end>1944</end>
						<in>6750</in>
						<out>6762</out>
					</clipitem>
					<clipitem frameBlend="FALSE" id="audioclip-118">
						<file id="file-1"/>
						<name>bandicam 2025-06-02 00-01-10-144 - Audio</name>
						<rate>
							<timebase>60</timebase>
							<ntsc>TRUE</ntsc>
						</rate>
						<rate>
							<timebase>60</timebase>
							<ntsc>TRUE</ntsc>
						</rate>
						<duration>6</duration>
						<start>1944</start>
						<end>1950</end>
						<in>6810</in>
						<out>6816</out>
					</clipitem>
					<clipitem frameBlend="FALSE" id="audioclip-119">
						<file id="file-1"/>
						<name>bandicam 2025-06-02 00-01-10-144 - Audio</name>
						<rate>
							<timebase>60</timebase>
							<ntsc>TRUE</ntsc>
						</rate>
						<rate>
							<timebase>60</timebase>
							<ntsc>TRUE</ntsc>
						</rate>
						<duration>12</duration>
						<start>1950</start>
						<end>1962</end>
						<in>6828</in>
						<out>6840</out>
					</clipitem>
					<clipitem frameBlend="FALSE" id="audioclip-120">
						<file id="file-1"/>
						<name>bandicam 2025-06-02 00-01-10-144 - Audio</name>
						<rate>
							<timebase>60</timebase>
							<ntsc>TRUE</ntsc>
						</rate>
						<rate>
							<timebase>60</timebase>
							<ntsc>TRUE</ntsc>
						</rate>
						<duration>6</duration>
						<start>1962</start>
						<end>1968</end>
						<in>6894</in>
						<out>6900</out>
					</clipitem>
					<clipitem frameBlend="FALSE" id="audioclip-121">
						<file id="file-1"/>
						<name>bandicam 2025-06-02 00-01-10-144 - Audio</name>
						<rate>
							<timebase>60</timebase>
							<ntsc>TRUE</ntsc>
						</rate>
						<rate>
							<timebase>60</timebase>
							<ntsc>TRUE</ntsc>
						</rate>
						<duration>12</duration>
						<start>1968</start>
						<end>1980</end>
						<in>6912</in>
						<out>6924</out>
					</clipitem>
					<clipitem frameBlend="FALSE" id="audioclip-122">
						<file id="file-1"/>
						<name>bandicam 2025-06-02 00-01-10-144 - Audio</name>
						<rate>
							<timebase>60</timebase>
							<ntsc>TRUE</ntsc>
						</rate>
						<rate>
							<timebase>60</timebase>
							<ntsc>TRUE</ntsc>
						</rate>
						<duration>0</duration>
						<start>1980</start>
						<end>1980</end>
						<in>6954</in>
						<out>6954</out>
					</clipitem>
					<clipitem frameBlend="FALSE" id="audioclip-123">
						<file id="file-1"/>
						<name>bandicam 2025-06-02 00-01-10-144 - Audio</name>
						<rate>
							<timebase>60</timebase>
							<ntsc>TRUE</ntsc>
						</rate>
						<rate>
							<timebase>60</timebase>
							<ntsc>TRUE</ntsc>
						</rate>
						<duration>0</duration>
						<start>1980</start>
						<end>1980</end>
						<in>7002</in>
						<out>7002</out>
					</clipitem>
					<clipitem frameBlend="FALSE" id="audioclip-124">
						<file id="file-1"/>
						<name>bandicam 2025-06-02 00-01-10-144 - Audio</name>
						<rate>
							<timebase>60</timebase>
							<ntsc>TRUE</ntsc>
						</rate>
						<rate>
							<timebase>60</timebase>
							<ntsc>TRUE</ntsc>
						</rate>
						<duration>12</duration>
						<start>1980</start>
						<end>1992</end>
						<in>7026</in>
						<out>7038</out>
					</clipitem>
					<clipitem frameBlend="FALSE" id="audioclip-125">
						<file id="file-1"/>
						<name>bandicam 2025-06-02 00-01-10-144 - Audio</name>
						<rate>
							<timebase>60</timebase>
							<ntsc>TRUE</ntsc>
						</rate>
						<rate>
							<timebase>60</timebase>
							<ntsc>TRUE</ntsc>
						</rate>
						<duration>0</duration>
						<start>1992</start>
						<end>1992</end>
						<in>60</in>
						<out>60</out>
					</clipitem>
					<clipitem frameBlend="FALSE" id="audioclip-126">
						<file id="file-1"/>
						<name>bandicam 2025-06-02 00-01-10-144 - Audio</name>
						<rate>
							<timebase>60</timebase>
							<ntsc>TRUE</ntsc>
						</rate>
						<rate>
							<timebase>60</timebase>
							<ntsc>TRUE</ntsc>
						</rate>
						<duration>12</duration>
						<start>1992</start>
						<end>2004</end>
						<in>114</in>
						<out>126</out>
					</clipitem>
					<clipitem frameBlend="FALSE" id="audioclip-127">
						<file id="file-1"/>
						<name>bandicam 2025-06-02 00-01-10-144 - Audio</name>
						<rate>
							<timebase>60</timebase>
							<ntsc>TRUE</ntsc>
						</rate>
						<rate>
							<timebase>60</timebase>
							<ntsc>TRUE</ntsc>
						</rate>
						<duration>18</duration>
						<start>2004</start>
						<end>2022</end>
						<in>450</in>
						<out>468</out>
					</clipitem>
					<clipitem frameBlend="FALSE" id="audioclip-128">
						<file id="file-1"/>
						<name>bandicam 2025-06-02 00-01-10-144 - Audio</name>
						<rate>
							<timebase>60</timebase>
							<ntsc>TRUE</ntsc>
						</rate>
						<rate>
							<timebase>60</timebase>
							<ntsc>TRUE</ntsc>
						</rate>
						<duration>6</duration>
						<start>2022</start>
						<end>2028</end>
						<in>582</in>
						<out>588</out>
					</clipitem>
					<clipitem frameBlend="FALSE" id="audioclip-129">
						<file id="file-1"/>
						<name>bandicam 2025-06-02 00-01-10-144 - Audio</name>
						<rate>
							<timebase>60</timebase>
							<ntsc>TRUE</ntsc>
						</rate>
						<rate>
							<timebase>60</timebase>
							<ntsc>TRUE</ntsc>
						</rate>
						<duration>6</duration>
						<start>2028</start>
						<end>2034</end>
						<in>1410</in>
						<out>1416</out>
					</clipitem>
					<clipitem frameBlend="FALSE" id="audioclip-130">
						<file id="file-1"/>
						<name>bandicam 2025-06-02 00-01-10-144 - Audio</name>
						<rate>
							<timebase>60</timebase>
							<ntsc>TRUE</ntsc>
						</rate>
						<rate>
							<timebase>60</timebase>
							<ntsc>TRUE</ntsc>
						</rate>
						<duration>0</duration>
						<start>2034</start>
						<end>2034</end>
						<in>1692</in>
						<out>1692</out>
					</clipitem>
					<clipitem frameBlend="FALSE" id="audioclip-131">
						<file id="file-1"/>
						<name>bandicam 2025-06-02 00-01-10-144 - Audio</name>
						<rate>
							<timebase>60</timebase>
							<ntsc>TRUE</ntsc>
						</rate>
						<rate>
							<timebase>60</timebase>
							<ntsc>TRUE</ntsc>
						</rate>
						<duration>6</duration>
						<start>2034</start>
						<end>2040</end>
						<in>1704</in>
						<out>1710</out>
					</clipitem>
					<clipitem frameBlend="FALSE" id="audioclip-132">
						<file id="file-1"/>
						<name>bandicam 2025-06-02 00-01-10-144 - Audio</name>
						<rate>
							<timebase>60</timebase>
							<ntsc>TRUE</ntsc>
						</rate>
						<rate>
							<timebase>60</timebase>
							<ntsc>TRUE</ntsc>
						</rate>
						<duration>12</duration>
						<start>2040</start>
						<end>2052</end>
						<in>1746</in>
						<out>1758</out>
					</clipitem>
					<clipitem frameBlend="FALSE" id="audioclip-133">
						<file id="file-1"/>
						<name>bandicam 2025-06-02 00-01-10-144 - Audio</name>
						<rate>
							<timebase>60</timebase>
							<ntsc>TRUE</ntsc>
						</rate>
						<rate>
							<timebase>60</timebase>
							<ntsc>TRUE</ntsc>
						</rate>
						<duration>0</duration>
						<start>2052</start>
						<end>2052</end>
						<in>1812</in>
						<out>1812</out>
					</clipitem>
					<clipitem frameBlend="FALSE" id="audioclip-134">
						<file id="file-1"/>
						<name>bandicam 2025-06-02 00-01-10-144 - Audio</name>
						<rate>
							<timebase>60</timebase>
							<ntsc>TRUE</ntsc>
						</rate>
						<rate>
							<timebase>60</timebase>
							<ntsc>TRUE</ntsc>
						</rate>
						<duration>0</duration>
						<start>2052</start>
						<end>2052</end>
						<in>1854</in>
						<out>1854</out>
					</clipitem>
					<clipitem frameBlend="FALSE" id="audioclip-135">
						<file id="file-1"/>
						<name>bandicam 2025-06-02 00-01-10-144 - Audio</name>
						<rate>
							<timebase>60</timebase>
							<ntsc>TRUE</ntsc>
						</rate>
						<rate>
							<timebase>60</timebase>
							<ntsc>TRUE</ntsc>
						</rate>
						<duration>6</duration>
						<start>2052</start>
						<end>2058</end>
						<in>1884</in>
						<out>1890</out>
					</clipitem>
					<clipitem frameBlend="FALSE" id="audioclip-136">
						<file id="file-1"/>
						<name>bandicam 2025-06-02 00-01-10-144 - Audio</name>
						<rate>
							<timebase>60</timebase>
							<ntsc>TRUE</ntsc>
						</rate>
						<rate>
							<timebase>60</timebase>
							<ntsc>TRUE</ntsc>
						</rate>
						<duration>0</duration>
						<start>2058</start>
						<end>2058</end>
						<in>2292</in>
						<out>2292</out>
					</clipitem>
					<clipitem frameBlend="FALSE" id="audioclip-137">
						<file id="file-1"/>
						<name>bandicam 2025-06-02 00-01-10-144 - Audio</name>
						<rate>
							<timebase>60</timebase>
							<ntsc>TRUE</ntsc>
						</rate>
						<rate>
							<timebase>60</timebase>
							<ntsc>TRUE</ntsc>
						</rate>
						<duration>12</duration>
						<start>2058</start>
						<end>2070</end>
						<in>2310</in>
						<out>2322</out>
					</clipitem>
					<clipitem frameBlend="FALSE" id="audioclip-138">
						<file id="file-1"/>
						<name>bandicam 2025-06-02 00-01-10-144 - Audio</name>
						<rate>
							<timebase>60</timebase>
							<ntsc>TRUE</ntsc>
						</rate>
						<rate>
							<timebase>60</timebase>
							<ntsc>TRUE</ntsc>
						</rate>
						<duration>6</duration>
						<start>2070</start>
						<end>2076</end>
						<in>2448</in>
						<out>2454</out>
					</clipitem>
					<clipitem frameBlend="FALSE" id="audioclip-139">
						<file id="file-1"/>
						<name>bandicam 2025-06-02 00-01-10-144 - Audio</name>
						<rate>
							<timebase>60</timebase>
							<ntsc>TRUE</ntsc>
						</rate>
						<rate>
							<timebase>60</timebase>
							<ntsc>TRUE</ntsc>
						</rate>
						<duration>12</duration>
						<start>2076</start>
						<end>2088</end>
						<in>2742</in>
						<out>2754</out>
					</clipitem>
					<clipitem frameBlend="FALSE" id="audioclip-140">
						<file id="file-1"/>
						<name>bandicam 2025-06-02 00-01-10-144 - Audio</name>
						<rate>
							<timebase>60</timebase>
							<ntsc>TRUE</ntsc>
						</rate>
						<rate>
							<timebase>60</timebase>
							<ntsc>TRUE</ntsc>
						</rate>
						<duration>6</duration>
						<start>2088</start>
						<end>2094</end>
						<in>2766</in>
						<out>2772</out>
					</clipitem>
					<clipitem frameBlend="FALSE" id="audioclip-141">
						<file id="file-1"/>
						<name>bandicam 2025-06-02 00-01-10-144 - Audio</name>
						<rate>
							<timebase>60</timebase>
							<ntsc>TRUE</ntsc>
						</rate>
						<rate>
							<timebase>60</timebase>
							<ntsc>TRUE</ntsc>
						</rate>
						<duration>18</duration>
						<start>2094</start>
						<end>2112</end>
						<in>2802</in>
						<out>2820</out>
					</clipitem>
					<clipitem frameBlend="FALSE" id="audioclip-142">
						<file id="file-1"/>
						<name>bandicam 2025-06-02 00-01-10-144 - Audio</name>
						<rate>
							<timebase>60</timebase>
							<ntsc>TRUE</ntsc>
						</rate>
						<rate>
							<timebase>60</timebase>
							<ntsc>TRUE</ntsc>
						</rate>
						<duration>30</duration>
						<start>2112</start>
						<end>2142</end>
						<in>3072</in>
						<out>3102</out>
					</clipitem>
					<clipitem frameBlend="FALSE" id="audioclip-143">
						<file id="file-1"/>
						<name>bandicam 2025-06-02 00-01-10-144 - Audio</name>
						<rate>
							<timebase>60</timebase>
							<ntsc>TRUE</ntsc>
						</rate>
						<rate>
							<timebase>60</timebase>
							<ntsc>TRUE</ntsc>
						</rate>
						<duration>18</duration>
						<start>2142</start>
						<end>2160</end>
						<in>3270</in>
						<out>3288</out>
					</clipitem>
					<clipitem frameBlend="FALSE" id="audioclip-144">
						<file id="file-1"/>
						<name>bandicam 2025-06-02 00-01-10-144 - Audio</name>
						<rate>
							<timebase>60</timebase>
							<ntsc>TRUE</ntsc>
						</rate>
						<rate>
							<timebase>60</timebase>
							<ntsc>TRUE</ntsc>
						</rate>
						<duration>18</duration>
						<start>2160</start>
						<end>2178</end>
						<in>3456</in>
						<out>3474</out>
					</clipitem>
					<clipitem frameBlend="FALSE" id="audioclip-145">
						<file id="file-1"/>
						<name>bandicam 2025-06-02 00-01-10-144 - Audio</name>
						<rate>
							<timebase>60</timebase>
							<ntsc>TRUE</ntsc>
						</rate>
						<rate>
							<timebase>60</timebase>
							<ntsc>TRUE</ntsc>
						</rate>
						<duration>12</duration>
						<start>2178</start>
						<end>2190</end>
						<in>3630</in>
						<out>3642</out>
					</clipitem>
					<clipitem frameBlend="FALSE" id="audioclip-146">
						<file id="file-1"/>
						<name>bandicam 2025-06-02 00-01-10-144 - Audio</name>
						<rate>
							<timebase>60</timebase>
							<ntsc>TRUE</ntsc>
						</rate>
						<rate>
							<timebase>60</timebase>
							<ntsc>TRUE</ntsc>
						</rate>
						<duration>6</duration>
						<start>2190</start>
						<end>2196</end>
						<in>4086</in>
						<out>4092</out>
					</clipitem>
					<clipitem frameBlend="FALSE" id="audioclip-147">
						<file id="file-1"/>
						<name>bandicam 2025-06-02 00-01-10-144 - Audio</name>
						<rate>
							<timebase>60</timebase>
							<ntsc>TRUE</ntsc>
						</rate>
						<rate>
							<timebase>60</timebase>
							<ntsc>TRUE</ntsc>
						</rate>
						<duration>6</duration>
						<start>2196</start>
						<end>2202</end>
						<in>4104</in>
						<out>4110</out>
					</clipitem>
					<clipitem frameBlend="FALSE" id="audioclip-148">
						<file id="file-1"/>
						<name>bandicam 2025-06-02 00-01-10-144 - Audio</name>
						<rate>
							<timebase>60</timebase>
							<ntsc>TRUE</ntsc>
						</rate>
						<rate>
							<timebase>60</timebase>
							<ntsc>TRUE</ntsc>
						</rate>
						<duration>0</duration>
						<start>2202</start>
						<end>2202</end>
						<in>4134</in>
						<out>4134</out>
					</clipitem>
					<clipitem frameBlend="FALSE" id="audioclip-149">
						<file id="file-1"/>
						<name>bandicam 2025-06-02 00-01-10-144 - Audio</name>
						<rate>
							<timebase>60</timebase>
							<ntsc>TRUE</ntsc>
						</rate>
						<rate>
							<timebase>60</timebase>
							<ntsc>TRUE</ntsc>
						</rate>
						<duration>6</duration>
						<start>2202</start>
						<end>2208</end>
						<in>4188</in>
						<out>4194</out>
					</clipitem>
					<clipitem frameBlend="FALSE" id="audioclip-150">
						<file id="file-1"/>
						<name>bandicam 2025-06-02 00-01-10-144 - Audio</name>
						<rate>
							<timebase>60</timebase>
							<ntsc>TRUE</ntsc>
						</rate>
						<rate>
							<timebase>60</timebase>
							<ntsc>TRUE</ntsc>
						</rate>
						<duration>0</duration>
						<start>2208</start>
						<end>2208</end>
						<in>4230</in>
						<out>4230</out>
					</clipitem>
					<clipitem frameBlend="FALSE" id="audioclip-151">
						<file id="file-1"/>
						<name>bandicam 2025-06-02 00-01-10-144 - Audio</name>
						<rate>
							<timebase>60</timebase>
							<ntsc>TRUE</ntsc>
						</rate>
						<rate>
							<timebase>60</timebase>
							<ntsc>TRUE</ntsc>
						</rate>
						<duration>6</duration>
						<start>2208</start>
						<end>2214</end>
						<in>4242</in>
						<out>4248</out>
					</clipitem>
					<clipitem frameBlend="FALSE" id="audioclip-152">
						<file id="file-1"/>
						<name>bandicam 2025-06-02 00-01-10-144 - Audio</name>
						<rate>
							<timebase>60</timebase>
							<ntsc>TRUE</ntsc>
						</rate>
						<rate>
							<timebase>60</timebase>
							<ntsc>TRUE</ntsc>
						</rate>
						<duration>66</duration>
						<start>2214</start>
						<end>2280</end>
						<in>4302</in>
						<out>4368</out>
					</clipitem>
					<clipitem frameBlend="FALSE" id="audioclip-153">
						<file id="file-1"/>
						<name>bandicam 2025-06-02 00-01-10-144 - Audio</name>
						<rate>
							<timebase>60</timebase>
							<ntsc>TRUE</ntsc>
						</rate>
						<rate>
							<timebase>60</timebase>
							<ntsc>TRUE</ntsc>
						</rate>
						<duration>42</duration>
						<start>2280</start>
						<end>2322</end>
						<in>4392</in>
						<out>4434</out>
					</clipitem>
					<clipitem frameBlend="FALSE" id="audioclip-154">
						<file id="file-1"/>
						<name>bandicam 2025-06-02 00-01-10-144 - Audio</name>
						<rate>
							<timebase>60</timebase>
							<ntsc>TRUE</ntsc>
						</rate>
						<rate>
							<timebase>60</timebase>
							<ntsc>TRUE</ntsc>
						</rate>
						<duration>18</duration>
						<start>2322</start>
						<end>2340</end>
						<in>4506</in>
						<out>4524</out>
					</clipitem>
					<clipitem frameBlend="FALSE" id="audioclip-155">
						<file id="file-1"/>
						<name>bandicam 2025-06-02 00-01-10-144 - Audio</name>
						<rate>
							<timebase>60</timebase>
							<ntsc>TRUE</ntsc>
						</rate>
						<rate>
							<timebase>60</timebase>
							<ntsc>TRUE</ntsc>
						</rate>
						<duration>12</duration>
						<start>2340</start>
						<end>2352</end>
						<in>4542</in>
						<out>4554</out>
					</clipitem>
					<clipitem frameBlend="FALSE" id="audioclip-156">
						<file id="file-1"/>
						<name>bandicam 2025-06-02 00-01-10-144 - Audio</name>
						<rate>
							<timebase>60</timebase>
							<ntsc>TRUE</ntsc>
						</rate>
						<rate>
							<timebase>60</timebase>
							<ntsc>TRUE</ntsc>
						</rate>
						<duration>24</duration>
						<start>2352</start>
						<end>2376</end>
						<in>4602</in>
						<out>4626</out>
					</clipitem>
					<clipitem frameBlend="FALSE" id="audioclip-157">
						<file id="file-1"/>
						<name>bandicam 2025-06-02 00-01-10-144 - Audio</name>
						<rate>
							<timebase>60</timebase>
							<ntsc>TRUE</ntsc>
						</rate>
						<rate>
							<timebase>60</timebase>
							<ntsc>TRUE</ntsc>
						</rate>
						<duration>0</duration>
						<start>2376</start>
						<end>2376</end>
						<in>4704</in>
						<out>4704</out>
					</clipitem>
					<clipitem frameBlend="FALSE" id="audioclip-158">
						<file id="file-1"/>
						<name>bandicam 2025-06-02 00-01-10-144 - Audio</name>
						<rate>
							<timebase>60</timebase>
							<ntsc>TRUE</ntsc>
						</rate>
						<rate>
							<timebase>60</timebase>
							<ntsc>TRUE</ntsc>
						</rate>
						<duration>48</duration>
						<start>2376</start>
						<end>2424</end>
						<in>4722</in>
						<out>4770</out>
					</clipitem>
					<clipitem frameBlend="FALSE" id="audioclip-159">
						<file id="file-1"/>
						<name>bandicam 2025-06-02 00-01-10-144 - Audio</name>
						<rate>
							<timebase>60</timebase>
							<ntsc>TRUE</ntsc>
						</rate>
						<rate>
							<timebase>60</timebase>
							<ntsc>TRUE</ntsc>
						</rate>
						<duration>6</duration>
						<start>2424</start>
						<end>2430</end>
						<in>4860</in>
						<out>4866</out>
					</clipitem>
					<clipitem frameBlend="FALSE" id="audioclip-160">
						<file id="file-1"/>
						<name>bandicam 2025-06-02 00-01-10-144 - Audio</name>
						<rate>
							<timebase>60</timebase>
							<ntsc>TRUE</ntsc>
						</rate>
						<rate>
							<timebase>60</timebase>
							<ntsc>TRUE</ntsc>
						</rate>
						<duration>6</duration>
						<start>2430</start>
						<end>2436</end>
						<in>4968</in>
						<out>4974</out>
					</clipitem>
					<clipitem frameBlend="FALSE" id="audioclip-161">
						<file id="file-1"/>
						<name>bandicam 2025-06-02 00-01-10-144 - Audio</name>
						<rate>
							<timebase>60</timebase>
							<ntsc>TRUE</ntsc>
						</rate>
						<rate>
							<timebase>60</timebase>
							<ntsc>TRUE</ntsc>
						</rate>
						<duration>6</duration>
						<start>2436</start>
						<end>2442</end>
						<in>5112</in>
						<out>5118</out>
					</clipitem>
					<clipitem frameBlend="FALSE" id="audioclip-162">
						<file id="file-1"/>
						<name>bandicam 2025-06-02 00-01-10-144 - Audio</name>
						<rate>
							<timebase>60</timebase>
							<ntsc>TRUE</ntsc>
						</rate>
						<rate>
							<timebase>60</timebase>
							<ntsc>TRUE</ntsc>
						</rate>
						<duration>6</duration>
						<start>2442</start>
						<end>2448</end>
						<in>5142</in>
						<out>5148</out>
					</clipitem>
					<clipitem frameBlend="FALSE" id="audioclip-163">
						<file id="file-1"/>
						<name>bandicam 2025-06-02 00-01-10-144 - Audio</name>
						<rate>
							<timebase>60</timebase>
							<ntsc>TRUE</ntsc>
						</rate>
						<rate>
							<timebase>60</timebase>
							<ntsc>TRUE</ntsc>
						</rate>
						<duration>18</duration>
						<start>2448</start>
						<end>2466</end>
						<in>5160</in>
						<out>5178</out>
					</clipitem>
					<clipitem frameBlend="FALSE" id="audioclip-164">
						<file id="file-1"/>
						<name>bandicam 2025-06-02 00-01-10-144 - Audio</name>
						<rate>
							<timebase>60</timebase>
							<ntsc>TRUE</ntsc>
						</rate>
						<rate>
							<timebase>60</timebase>
							<ntsc>TRUE</ntsc>
						</rate>
						<duration>12</duration>
						<start>2466</start>
						<end>2478</end>
						<in>5328</in>
						<out>5340</out>
					</clipitem>
					<clipitem frameBlend="FALSE" id="audioclip-165">
						<file id="file-1"/>
						<name>bandicam 2025-06-02 00-01-10-144 - Audio</name>
						<rate>
							<timebase>60</timebase>
							<ntsc>TRUE</ntsc>
						</rate>
						<rate>
							<timebase>60</timebase>
							<ntsc>TRUE</ntsc>
						</rate>
						<duration>12</duration>
						<start>2478</start>
						<end>2490</end>
						<in>5412</in>
						<out>5424</out>
					</clipitem>
					<clipitem frameBlend="FALSE" id="audioclip-166">
						<file id="file-1"/>
						<name>bandicam 2025-06-02 00-01-10-144 - Audio</name>
						<rate>
							<timebase>60</timebase>
							<ntsc>TRUE</ntsc>
						</rate>
						<rate>
							<timebase>60</timebase>
							<ntsc>TRUE</ntsc>
						</rate>
						<duration>0</duration>
						<start>2490</start>
						<end>2490</end>
						<in>5448</in>
						<out>5448</out>
					</clipitem>
					<clipitem frameBlend="FALSE" id="audioclip-167">
						<file id="file-1"/>
						<name>bandicam 2025-06-02 00-01-10-144 - Audio</name>
						<rate>
							<timebase>60</timebase>
							<ntsc>TRUE</ntsc>
						</rate>
						<rate>
							<timebase>60</timebase>
							<ntsc>TRUE</ntsc>
						</rate>
						<duration>0</duration>
						<start>2490</start>
						<end>2490</end>
						<in>5592</in>
						<out>5592</out>
					</clipitem>
					<clipitem frameBlend="FALSE" id="audioclip-168">
						<file id="file-1"/>
						<name>bandicam 2025-06-02 00-01-10-144 - Audio</name>
						<rate>
							<timebase>60</timebase>
							<ntsc>TRUE</ntsc>
						</rate>
						<rate>
							<timebase>60</timebase>
							<ntsc>TRUE</ntsc>
						</rate>
						<duration>18</duration>
						<start>2490</start>
						<end>2508</end>
						<in>5670</in>
						<out>5688</out>
					</clipitem>
					<clipitem frameBlend="FALSE" id="audioclip-169">
						<file id="file-1"/>
						<name>bandicam 2025-06-02 00-01-10-144 - Audio</name>
						<rate>
							<timebase>60</timebase>
							<ntsc>TRUE</ntsc>
						</rate>
						<rate>
							<timebase>60</timebase>
							<ntsc>TRUE</ntsc>
						</rate>
						<duration>18</duration>
						<start>2508</start>
						<end>2526</end>
						<in>5760</in>
						<out>5778</out>
					</clipitem>
					<clipitem frameBlend="FALSE" id="audioclip-170">
						<file id="file-1"/>
						<name>bandicam 2025-06-02 00-01-10-144 - Audio</name>
						<rate>
							<timebase>60</timebase>
							<ntsc>TRUE</ntsc>
						</rate>
						<rate>
							<timebase>60</timebase>
							<ntsc>TRUE</ntsc>
						</rate>
						<duration>72</duration>
						<start>2526</start>
						<end>2598</end>
						<in>5802</in>
						<out>5874</out>
					</clipitem>
					<clipitem frameBlend="FALSE" id="audioclip-171">
						<file id="file-1"/>
						<name>bandicam 2025-06-02 00-01-10-144 - Audio</name>
						<rate>
							<timebase>60</timebase>
							<ntsc>TRUE</ntsc>
						</rate>
						<rate>
							<timebase>60</timebase>
							<ntsc>TRUE</ntsc>
						</rate>
						<duration>48</duration>
						<start>2598</start>
						<end>2646</end>
						<in>5910</in>
						<out>5958</out>
					</clipitem>
					<clipitem frameBlend="FALSE" id="audioclip-172">
						<file id="file-1"/>
						<name>bandicam 2025-06-02 00-01-10-144 - Audio</name>
						<rate>
							<timebase>60</timebase>
							<ntsc>TRUE</ntsc>
						</rate>
						<rate>
							<timebase>60</timebase>
							<ntsc>TRUE</ntsc>
						</rate>
						<duration>0</duration>
						<start>2646</start>
						<end>2646</end>
						<in>6000</in>
						<out>6000</out>
					</clipitem>
					<clipitem frameBlend="FALSE" id="audioclip-173">
						<file id="file-1"/>
						<name>bandicam 2025-06-02 00-01-10-144 - Audio</name>
						<rate>
							<timebase>60</timebase>
							<ntsc>TRUE</ntsc>
						</rate>
						<rate>
							<timebase>60</timebase>
							<ntsc>TRUE</ntsc>
						</rate>
						<duration>24</duration>
						<start>2646</start>
						<end>2670</end>
						<in>6012</in>
						<out>6036</out>
					</clipitem>
					<clipitem frameBlend="FALSE" id="audioclip-174">
						<file id="file-1"/>
						<name>bandicam 2025-06-02 00-01-10-144 - Audio</name>
						<rate>
							<timebase>60</timebase>
							<ntsc>TRUE</ntsc>
						</rate>
						<rate>
							<timebase>60</timebase>
							<ntsc>TRUE</ntsc>
						</rate>
						<duration>24</duration>
						<start>2670</start>
						<end>2694</end>
						<in>6156</in>
						<out>6180</out>
					</clipitem>
					<clipitem frameBlend="FALSE" id="audioclip-175">
						<file id="file-1"/>
						<name>bandicam 2025-06-02 00-01-10-144 - Audio</name>
						<rate>
							<timebase>60</timebase>
							<ntsc>TRUE</ntsc>
						</rate>
						<rate>
							<timebase>60</timebase>
							<ntsc>TRUE</ntsc>
						</rate>
						<duration>6</duration>
						<start>2694</start>
						<end>2700</end>
						<in>6234</in>
						<out>6240</out>
					</clipitem>
					<clipitem frameBlend="FALSE" id="audioclip-176">
						<file id="file-1"/>
						<name>bandicam 2025-06-02 00-01-10-144 - Audio</name>
						<rate>
							<timebase>60</timebase>
							<ntsc>TRUE</ntsc>
						</rate>
						<rate>
							<timebase>60</timebase>
							<ntsc>TRUE</ntsc>
						</rate>
						<duration>0</duration>
						<start>2700</start>
						<end>2700</end>
						<in>6522</in>
						<out>6522</out>
					</clipitem>
					<clipitem frameBlend="FALSE" id="audioclip-177">
						<file id="file-1"/>
						<name>bandicam 2025-06-02 00-01-10-144 - Audio</name>
						<rate>
							<timebase>60</timebase>
							<ntsc>TRUE</ntsc>
						</rate>
						<rate>
							<timebase>60</timebase>
							<ntsc>TRUE</ntsc>
						</rate>
						<duration>0</duration>
						<start>2700</start>
						<end>2700</end>
						<in>6894</in>
						<out>6894</out>
					</clipitem>
					<clipitem frameBlend="FALSE" id="audioclip-178">
						<file id="file-1"/>
						<name>bandicam 2025-06-02 00-01-10-144 - Audio</name>
						<rate>
							<timebase>60</timebase>
							<ntsc>TRUE</ntsc>
						</rate>
						<rate>
							<timebase>60</timebase>
							<ntsc>TRUE</ntsc>
						</rate>
						<duration>0</duration>
						<start>2700</start>
						<end>2700</end>
						<in>6954</in>
						<out>6954</out>
					</clipitem>
					<clipitem frameBlend="FALSE" id="audioclip-179">
						<file id="file-1"/>
						<name>bandicam 2025-06-02 00-01-10-144 - Audio</name>
						<rate>
							<timebase>60</timebase>
							<ntsc>TRUE</ntsc>
						</rate>
						<rate>
							<timebase>60</timebase>
							<ntsc>TRUE</ntsc>
						</rate>
						<duration>30</duration>
						<start>2700</start>
						<end>2730</end>
						<in>12</in>
						<out>42</out>
					</clipitem>
					<clipitem frameBlend="FALSE" id="audioclip-180">
						<file id="file-1"/>
						<name>bandicam 2025-06-02 00-01-10-144 - Audio</name>
						<rate>
							<timebase>60</timebase>
							<ntsc>TRUE</ntsc>
						</rate>
						<rate>
							<timebase>60</timebase>
							<ntsc>TRUE</ntsc>
						</rate>
						<duration>36</duration>
						<start>2730</start>
						<end>2766</end>
						<in>54</in>
						<out>90</out>
					</clipitem>
					<clipitem frameBlend="FALSE" id="audioclip-181">
						<file id="file-1"/>
						<name>bandicam 2025-06-02 00-01-10-144 - Audio</name>
						<rate>
							<timebase>60</timebase>
							<ntsc>TRUE</ntsc>
						</rate>
						<rate>
							<timebase>60</timebase>
							<ntsc>TRUE</ntsc>
						</rate>
						<duration>18</duration>
						<start>2766</start>
						<end>2784</end>
						<in>108</in>
						<out>126</out>
					</clipitem>
					<clipitem frameBlend="FALSE" id="audioclip-182">
						<file id="file-1"/>
						<name>bandicam 2025-06-02 00-01-10-144 - Audio</name>
						<rate>
							<timebase>60</timebase>
							<ntsc>TRUE</ntsc>
						</rate>
						<rate>
							<timebase>60</timebase>
							<ntsc>TRUE</ntsc>
						</rate>
						<duration>24</duration>
						<start>2784</start>
						<end>2808</end>
						<in>174</in>
						<out>198</out>
					</clipitem>
					<clipitem frameBlend="FALSE" id="audioclip-183">
						<file id="file-1"/>
						<name>bandicam 2025-06-02 00-01-10-144 - Audio</name>
						<rate>
							<timebase>60</timebase>
							<ntsc>TRUE</ntsc>
						</rate>
						<rate>
							<timebase>60</timebase>
							<ntsc>TRUE</ntsc>
						</rate>
						<duration>0</duration>
						<start>2808</start>
						<end>2808</end>
						<in>300</in>
						<out>300</out>
					</clipitem>
					<clipitem frameBlend="FALSE" id="audioclip-184">
						<file id="file-1"/>
						<name>bandicam 2025-06-02 00-01-10-144 - Audio</name>
						<rate>
							<timebase>60</timebase>
							<ntsc>TRUE</ntsc>
						</rate>
						<rate>
							<timebase>60</timebase>
							<ntsc>TRUE</ntsc>
						</rate>
						<duration>30</duration>
						<start>2808</start>
						<end>2838</end>
						<in>360</in>
						<out>390</out>
					</clipitem>
					<clipitem frameBlend="FALSE" id="audioclip-185">
						<file id="file-1"/>
						<name>bandicam 2025-06-02 00-01-10-144 - Audio</name>
						<rate>
							<timebase>60</timebase>
							<ntsc>TRUE</ntsc>
						</rate>
						<rate>
							<timebase>60</timebase>
							<ntsc>TRUE</ntsc>
						</rate>
						<duration>0</duration>
						<start>2838</start>
						<end>2838</end>
						<in>438</in>
						<out>438</out>
					</clipitem>
					<clipitem frameBlend="FALSE" id="audioclip-186">
						<file id="file-1"/>
						<name>bandicam 2025-06-02 00-01-10-144 - Audio</name>
						<rate>
							<timebase>60</timebase>
							<ntsc>TRUE</ntsc>
						</rate>
						<rate>
							<timebase>60</timebase>
							<ntsc>TRUE</ntsc>
						</rate>
						<duration>42</duration>
						<start>2838</start>
						<end>2880</end>
						<in>450</in>
						<out>492</out>
					</clipitem>
					<clipitem frameBlend="FALSE" id="audioclip-187">
						<file id="file-1"/>
						<name>bandicam 2025-06-02 00-01-10-144 - Audio</name>
						<rate>
							<timebase>60</timebase>
							<ntsc>TRUE</ntsc>
						</rate>
						<rate>
							<timebase>60</timebase>
							<ntsc>TRUE</ntsc>
						</rate>
						<duration>0</duration>
						<start>2880</start>
						<end>2880</end>
						<in>504</in>
						<out>504</out>
					</clipitem>
					<clipitem frameBlend="FALSE" id="audioclip-188">
						<file id="file-1"/>
						<name>bandicam 2025-06-02 00-01-10-144 - Audio</name>
						<rate>
							<timebase>60</timebase>
							<ntsc>TRUE</ntsc>
						</rate>
						<rate>
							<timebase>60</timebase>
							<ntsc>TRUE</ntsc>
						</rate>
						<duration>36</duration>
						<start>2880</start>
						<end>2916</end>
						<in>528</in>
						<out>564</out>
					</clipitem>
					<clipitem frameBlend="FALSE" id="audioclip-189">
						<file id="file-1"/>
						<name>bandicam 2025-06-02 00-01-10-144 - Audio</name>
						<rate>
							<timebase>60</timebase>
							<ntsc>TRUE</ntsc>
						</rate>
						<rate>
							<timebase>60</timebase>
							<ntsc>TRUE</ntsc>
						</rate>
						<duration>24</duration>
						<start>2916</start>
						<end>2940</end>
						<in>582</in>
						<out>606</out>
					</clipitem>
					<clipitem frameBlend="FALSE" id="audioclip-190">
						<file id="file-1"/>
						<name>bandicam 2025-06-02 00-01-10-144 - Audio</name>
						<rate>
							<timebase>60</timebase>
							<ntsc>TRUE</ntsc>
						</rate>
						<rate>
							<timebase>60</timebase>
							<ntsc>TRUE</ntsc>
						</rate>
						<duration>18</duration>
						<start>2940</start>
						<end>2958</end>
						<in>624</in>
						<out>642</out>
					</clipitem>
					<clipitem frameBlend="FALSE" id="audioclip-191">
						<file id="file-1"/>
						<name>bandicam 2025-06-02 00-01-10-144 - Audio</name>
						<rate>
							<timebase>60</timebase>
							<ntsc>TRUE</ntsc>
						</rate>
						<rate>
							<timebase>60</timebase>
							<ntsc>TRUE</ntsc>
						</rate>
						<duration>0</duration>
						<start>2958</start>
						<end>2958</end>
						<in>816</in>
						<out>816</out>
					</clipitem>
					<clipitem frameBlend="FALSE" id="audioclip-192">
						<file id="file-1"/>
						<name>bandicam 2025-06-02 00-01-10-144 - Audio</name>
						<rate>
							<timebase>60</timebase>
							<ntsc>TRUE</ntsc>
						</rate>
						<rate>
							<timebase>60</timebase>
							<ntsc>TRUE</ntsc>
						</rate>
						<duration>0</duration>
						<start>2958</start>
						<end>2958</end>
						<in>852</in>
						<out>852</out>
					</clipitem>
					<clipitem frameBlend="FALSE" id="audioclip-193">
						<file id="file-1"/>
						<name>bandicam 2025-06-02 00-01-10-144 - Audio</name>
						<rate>
							<timebase>60</timebase>
							<ntsc>TRUE</ntsc>
						</rate>
						<rate>
							<timebase>60</timebase>
							<ntsc>TRUE</ntsc>
						</rate>
						<duration>0</duration>
						<start>2958</start>
						<end>2958</end>
						<in>894</in>
						<out>894</out>
					</clipitem>
					<clipitem frameBlend="FALSE" id="audioclip-194">
						<file id="file-1"/>
						<name>bandicam 2025-06-02 00-01-10-144 - Audio</name>
						<rate>
							<timebase>60</timebase>
							<ntsc>TRUE</ntsc>
						</rate>
						<rate>
							<timebase>60</timebase>
							<ntsc>TRUE</ntsc>
						</rate>
						<duration>0</duration>
						<start>2958</start>
						<end>2958</end>
						<in>912</in>
						<out>912</out>
					</clipitem>
					<clipitem frameBlend="FALSE" id="audioclip-195">
						<file id="file-1"/>
						<name>bandicam 2025-06-02 00-01-10-144 - Audio</name>
						<rate>
							<timebase>60</timebase>
							<ntsc>TRUE</ntsc>
						</rate>
						<rate>
							<timebase>60</timebase>
							<ntsc>TRUE</ntsc>
						</rate>
						<duration>0</duration>
						<start>2958</start>
						<end>2958</end>
						<in>936</in>
						<out>936</out>
					</clipitem>
					<clipitem frameBlend="FALSE" id="audioclip-196">
						<file id="file-1"/>
						<name>bandicam 2025-06-02 00-01-10-144 - Audio</name>
						<rate>
							<timebase>60</timebase>
							<ntsc>TRUE</ntsc>
						</rate>
						<rate>
							<timebase>60</timebase>
							<ntsc>TRUE</ntsc>
						</rate>
						<duration>0</duration>
						<start>2958</start>
						<end>2958</end>
						<in>954</in>
						<out>954</out>
					</clipitem>
					<clipitem frameBlend="FALSE" id="audioclip-197">
						<file id="file-1"/>
						<name>bandicam 2025-06-02 00-01-10-144 - Audio</name>
						<rate>
							<timebase>60</timebase>
							<ntsc>TRUE</ntsc>
						</rate>
						<rate>
							<timebase>60</timebase>
							<ntsc>TRUE</ntsc>
						</rate>
						<duration>12</duration>
						<start>2958</start>
						<end>2970</end>
						<in>984</in>
						<out>996</out>
					</clipitem>
					<clipitem frameBlend="FALSE" id="audioclip-198">
						<file id="file-1"/>
						<name>bandicam 2025-06-02 00-01-10-144 - Audio</name>
						<rate>
							<timebase>60</timebase>
							<ntsc>TRUE</ntsc>
						</rate>
						<rate>
							<timebase>60</timebase>
							<ntsc>TRUE</ntsc>
						</rate>
						<duration>12</duration>
						<start>2970</start>
						<end>2982</end>
						<in>1086</in>
						<out>1098</out>
					</clipitem>
					<clipitem frameBlend="FALSE" id="audioclip-199">
						<file id="file-1"/>
						<name>bandicam 2025-06-02 00-01-10-144 - Audio</name>
						<rate>
							<timebase>60</timebase>
							<ntsc>TRUE</ntsc>
						</rate>
						<rate>
							<timebase>60</timebase>
							<ntsc>TRUE</ntsc>
						</rate>
						<duration>54</duration>
						<start>2982</start>
						<end>3036</end>
						<in>1188</in>
						<out>1242</out>
					</clipitem>
					<clipitem frameBlend="FALSE" id="audioclip-200">
						<file id="file-1"/>
						<name>bandicam 2025-06-02 00-01-10-144 - Audio</name>
						<rate>
							<timebase>60</timebase>
							<ntsc>TRUE</ntsc>
						</rate>
						<rate>
							<timebase>60</timebase>
							<ntsc>TRUE</ntsc>
						</rate>
						<duration>0</duration>
						<start>3036</start>
						<end>3036</end>
						<in>1320</in>
						<out>1320</out>
					</clipitem>
					<clipitem frameBlend="FALSE" id="audioclip-201">
						<file id="file-1"/>
						<name>bandicam 2025-06-02 00-01-10-144 - Audio</name>
						<rate>
							<timebase>60</timebase>
							<ntsc>TRUE</ntsc>
						</rate>
						<rate>
							<timebase>60</timebase>
							<ntsc>TRUE</ntsc>
						</rate>
						<duration>60</duration>
						<start>3036</start>
						<end>3096</end>
						<in>1374</in>
						<out>1434</out>
					</clipitem>
					<clipitem frameBlend="FALSE" id="audioclip-202">
						<file id="file-1"/>
						<name>bandicam 2025-06-02 00-01-10-144 - Audio</name>
						<rate>
							<timebase>60</timebase>
							<ntsc>TRUE</ntsc>
						</rate>
						<rate>
							<timebase>60</timebase>
							<ntsc>TRUE</ntsc>
						</rate>
						<duration>36</duration>
						<start>3096</start>
						<end>3132</end>
						<in>1446</in>
						<out>1482</out>
					</clipitem>
					<clipitem frameBlend="FALSE" id="audioclip-203">
						<file id="file-1"/>
						<name>bandicam 2025-06-02 00-01-10-144 - Audio</name>
						<rate>
							<timebase>60</timebase>
							<ntsc>TRUE</ntsc>
						</rate>
						<rate>
							<timebase>60</timebase>
							<ntsc>TRUE</ntsc>
						</rate>
						<duration>6</duration>
						<start>3132</start>
						<end>3138</end>
						<in>1530</in>
						<out>1536</out>
					</clipitem>
					<clipitem frameBlend="FALSE" id="audioclip-204">
						<file id="file-1"/>
						<name>bandicam 2025-06-02 00-01-10-144 - Audio</name>
						<rate>
							<timebase>60</timebase>
							<ntsc>TRUE</ntsc>
						</rate>
						<rate>
							<timebase>60</timebase>
							<ntsc>TRUE</ntsc>
						</rate>
						<duration>36</duration>
						<start>3138</start>
						<end>3174</end>
						<in>1566</in>
						<out>1602</out>
					</clipitem>
					<clipitem frameBlend="FALSE" id="audioclip-205">
						<file id="file-1"/>
						<name>bandicam 2025-06-02 00-01-10-144 - Audio</name>
						<rate>
							<timebase>60</timebase>
							<ntsc>TRUE</ntsc>
						</rate>
						<rate>
							<timebase>60</timebase>
							<ntsc>TRUE</ntsc>
						</rate>
						<duration>90</duration>
						<start>3174</start>
						<end>3264</end>
						<in>1692</in>
						<out>1782</out>
					</clipitem>
					<clipitem frameBlend="FALSE" id="audioclip-206">
						<file id="file-1"/>
						<name>bandicam 2025-06-02 00-01-10-144 - Audio</name>
						<rate>
							<timebase>60</timebase>
							<ntsc>TRUE</ntsc>
						</rate>
						<rate>
							<timebase>60</timebase>
							<ntsc>TRUE</ntsc>
						</rate>
						<duration>72</duration>
						<start>3264</start>
						<end>3336</end>
						<in>1800</in>
						<out>1872</out>
					</clipitem>
					<clipitem frameBlend="FALSE" id="audioclip-207">
						<file id="file-1"/>
						<name>bandicam 2025-06-02 00-01-10-144 - Audio</name>
						<rate>
							<timebase>60</timebase>
							<ntsc>TRUE</ntsc>
						</rate>
						<rate>
							<timebase>60</timebase>
							<ntsc>TRUE</ntsc>
						</rate>
						<duration>24</duration>
						<start>3336</start>
						<end>3360</end>
						<in>1884</in>
						<out>1908</out>
					</clipitem>
					<clipitem frameBlend="FALSE" id="audioclip-208">
						<file id="file-1"/>
						<name>bandicam 2025-06-02 00-01-10-144 - Audio</name>
						<rate>
							<timebase>60</timebase>
							<ntsc>TRUE</ntsc>
						</rate>
						<rate>
							<timebase>60</timebase>
							<ntsc>TRUE</ntsc>
						</rate>
						<duration>36</duration>
						<start>3360</start>
						<end>3396</end>
						<in>1926</in>
						<out>1962</out>
					</clipitem>
					<clipitem frameBlend="FALSE" id="audioclip-209">
						<file id="file-1"/>
						<name>bandicam 2025-06-02 00-01-10-144 - Audio</name>
						<rate>
							<timebase>60</timebase>
							<ntsc>TRUE</ntsc>
						</rate>
						<rate>
							<timebase>60</timebase>
							<ntsc>TRUE</ntsc>
						</rate>
						<duration>42</duration>
						<start>3396</start>
						<end>3438</end>
						<in>2172</in>
						<out>2214</out>
					</clipitem>
					<clipitem frameBlend="FALSE" id="audioclip-210">
						<file id="file-1"/>
						<name>bandicam 2025-06-02 00-01-10-144 - Audio</name>
						<rate>
							<timebase>60</timebase>
							<ntsc>TRUE</ntsc>
						</rate>
						<rate>
							<timebase>60</timebase>
							<ntsc>TRUE</ntsc>
						</rate>
						<duration>96</duration>
						<start>3438</start>
						<end>3534</end>
						<in>2274</in>
						<out>2370</out>
					</clipitem>
					<clipitem frameBlend="FALSE" id="audioclip-211">
						<file id="file-1"/>
						<name>bandicam 2025-06-02 00-01-10-144 - Audio</name>
						<rate>
							<timebase>60</timebase>
							<ntsc>TRUE</ntsc>
						</rate>
						<rate>
							<timebase>60</timebase>
							<ntsc>TRUE</ntsc>
						</rate>
						<duration>18</duration>
						<start>3534</start>
						<end>3552</end>
						<in>2448</in>
						<out>2466</out>
					</clipitem>
					<clipitem frameBlend="FALSE" id="audioclip-212">
						<file id="file-1"/>
						<name>bandicam 2025-06-02 00-01-10-144 - Audio</name>
						<rate>
							<timebase>60</timebase>
							<ntsc>TRUE</ntsc>
						</rate>
						<rate>
							<timebase>60</timebase>
							<ntsc>TRUE</ntsc>
						</rate>
						<duration>6</duration>
						<start>3552</start>
						<end>3558</end>
						<in>2478</in>
						<out>2484</out>
					</clipitem>
					<clipitem frameBlend="FALSE" id="audioclip-213">
						<file id="file-1"/>
						<name>bandicam 2025-06-02 00-01-10-144 - Audio</name>
						<rate>
							<timebase>60</timebase>
							<ntsc>TRUE</ntsc>
						</rate>
						<rate>
							<timebase>60</timebase>
							<ntsc>TRUE</ntsc>
						</rate>
						<duration>6</duration>
						<start>3558</start>
						<end>3564</end>
						<in>2496</in>
						<out>2502</out>
					</clipitem>
					<clipitem frameBlend="FALSE" id="audioclip-214">
						<file id="file-1"/>
						<name>bandicam 2025-06-02 00-01-10-144 - Audio</name>
						<rate>
							<timebase>60</timebase>
							<ntsc>TRUE</ntsc>
						</rate>
						<rate>
							<timebase>60</timebase>
							<ntsc>TRUE</ntsc>
						</rate>
						<duration>36</duration>
						<start>3564</start>
						<end>3600</end>
						<in>2532</in>
						<out>2568</out>
					</clipitem>
					<clipitem frameBlend="FALSE" id="audioclip-215">
						<file id="file-1"/>
						<name>bandicam 2025-06-02 00-01-10-144 - Audio</name>
						<rate>
							<timebase>60</timebase>
							<ntsc>TRUE</ntsc>
						</rate>
						<rate>
							<timebase>60</timebase>
							<ntsc>TRUE</ntsc>
						</rate>
						<duration>102</duration>
						<start>3600</start>
						<end>3702</end>
						<in>2592</in>
						<out>2694</out>
					</clipitem>
					<clipitem frameBlend="FALSE" id="audioclip-216">
						<file id="file-1"/>
						<name>bandicam 2025-06-02 00-01-10-144 - Audio</name>
						<rate>
							<timebase>60</timebase>
							<ntsc>TRUE</ntsc>
						</rate>
						<rate>
							<timebase>60</timebase>
							<ntsc>TRUE</ntsc>
						</rate>
						<duration>186</duration>
						<start>3702</start>
						<end>3888</end>
						<in>2724</in>
						<out>2910</out>
					</clipitem>
					<clipitem frameBlend="FALSE" id="audioclip-217">
						<file id="file-1"/>
						<name>bandicam 2025-06-02 00-01-10-144 - Audio</name>
						<rate>
							<timebase>60</timebase>
							<ntsc>TRUE</ntsc>
						</rate>
						<rate>
							<timebase>60</timebase>
							<ntsc>TRUE</ntsc>
						</rate>
						<duration>12</duration>
						<start>3888</start>
						<end>3900</end>
						<in>2940</in>
						<out>2952</out>
					</clipitem>
					<clipitem frameBlend="FALSE" id="audioclip-218">
						<file id="file-1"/>
						<name>bandicam 2025-06-02 00-01-10-144 - Audio</name>
						<rate>
							<timebase>60</timebase>
							<ntsc>TRUE</ntsc>
						</rate>
						<rate>
							<timebase>60</timebase>
							<ntsc>TRUE</ntsc>
						</rate>
						<duration>36</duration>
						<start>3900</start>
						<end>3936</end>
						<in>2964</in>
						<out>3000</out>
					</clipitem>
					<clipitem frameBlend="FALSE" id="audioclip-219">
						<file id="file-1"/>
						<name>bandicam 2025-06-02 00-01-10-144 - Audio</name>
						<rate>
							<timebase>60</timebase>
							<ntsc>TRUE</ntsc>
						</rate>
						<rate>
							<timebase>60</timebase>
							<ntsc>TRUE</ntsc>
						</rate>
						<duration>0</duration>
						<start>3936</start>
						<end>3936</end>
						<in>3012</in>
						<out>3012</out>
					</clipitem>
					<clipitem frameBlend="FALSE" id="audioclip-220">
						<file id="file-1"/>
						<name>bandicam 2025-06-02 00-01-10-144 - Audio</name>
						<rate>
							<timebase>60</timebase>
							<ntsc>TRUE</ntsc>
						</rate>
						<rate>
							<timebase>60</timebase>
							<ntsc>TRUE</ntsc>
						</rate>
						<duration>0</duration>
						<start>3936</start>
						<end>3936</end>
						<in>3024</in>
						<out>3024</out>
					</clipitem>
					<clipitem frameBlend="FALSE" id="audioclip-221">
						<file id="file-1"/>
						<name>bandicam 2025-06-02 00-01-10-144 - Audio</name>
						<rate>
							<timebase>60</timebase>
							<ntsc>TRUE</ntsc>
						</rate>
						<rate>
							<timebase>60</timebase>
							<ntsc>TRUE</ntsc>
						</rate>
						<duration>48</duration>
						<start>3936</start>
						<end>3984</end>
						<in>3054</in>
						<out>3102</out>
					</clipitem>
					<clipitem frameBlend="FALSE" id="audioclip-222">
						<file id="file-1"/>
						<name>bandicam 2025-06-02 00-01-10-144 - Audio</name>
						<rate>
							<timebase>60</timebase>
							<ntsc>TRUE</ntsc>
						</rate>
						<rate>
							<timebase>60</timebase>
							<ntsc>TRUE</ntsc>
						</rate>
						<duration>36</duration>
						<start>3984</start>
						<end>4020</end>
						<in>3120</in>
						<out>3156</out>
					</clipitem>
					<clipitem frameBlend="FALSE" id="audioclip-223">
						<file id="file-1"/>
						<name>bandicam 2025-06-02 00-01-10-144 - Audio</name>
						<rate>
							<timebase>60</timebase>
							<ntsc>TRUE</ntsc>
						</rate>
						<rate>
							<timebase>60</timebase>
							<ntsc>TRUE</ntsc>
						</rate>
						<duration>84</duration>
						<start>4020</start>
						<end>4104</end>
						<in>3222</in>
						<out>3306</out>
					</clipitem>
					<clipitem frameBlend="FALSE" id="audioclip-224">
						<file id="file-1"/>
						<name>bandicam 2025-06-02 00-01-10-144 - Audio</name>
						<rate>
							<timebase>60</timebase>
							<ntsc>TRUE</ntsc>
						</rate>
						<rate>
							<timebase>60</timebase>
							<ntsc>TRUE</ntsc>
						</rate>
						<duration>36</duration>
						<start>4104</start>
						<end>4140</end>
						<in>3372</in>
						<out>3408</out>
					</clipitem>
					<clipitem frameBlend="FALSE" id="audioclip-225">
						<file id="file-1"/>
						<name>bandicam 2025-06-02 00-01-10-144 - Audio</name>
						<rate>
							<timebase>60</timebase>
							<ntsc>TRUE</ntsc>
						</rate>
						<rate>
							<timebase>60</timebase>
							<ntsc>TRUE</ntsc>
						</rate>
						<duration>24</duration>
						<start>4140</start>
						<end>4164</end>
						<in>3450</in>
						<out>3474</out>
					</clipitem>
					<clipitem frameBlend="FALSE" id="audioclip-226">
						<file id="file-1"/>
						<name>bandicam 2025-06-02 00-01-10-144 - Audio</name>
						<rate>
							<timebase>60</timebase>
							<ntsc>TRUE</ntsc>
						</rate>
						<rate>
							<timebase>60</timebase>
							<ntsc>TRUE</ntsc>
						</rate>
						<duration>36</duration>
						<start>4164</start>
						<end>4200</end>
						<in>3498</in>
						<out>3534</out>
					</clipitem>
					<clipitem frameBlend="FALSE" id="audioclip-227">
						<file id="file-1"/>
						<name>bandicam 2025-06-02 00-01-10-144 - Audio</name>
						<rate>
							<timebase>60</timebase>
							<ntsc>TRUE</ntsc>
						</rate>
						<rate>
							<timebase>60</timebase>
							<ntsc>TRUE</ntsc>
						</rate>
						<duration>0</duration>
						<start>4200</start>
						<end>4200</end>
						<in>3582</in>
						<out>3582</out>
					</clipitem>
					<clipitem frameBlend="FALSE" id="audioclip-228">
						<file id="file-1"/>
						<name>bandicam 2025-06-02 00-01-10-144 - Audio</name>
						<rate>
							<timebase>60</timebase>
							<ntsc>TRUE</ntsc>
						</rate>
						<rate>
							<timebase>60</timebase>
							<ntsc>TRUE</ntsc>
						</rate>
						<duration>18</duration>
						<start>4200</start>
						<end>4218</end>
						<in>3624</in>
						<out>3642</out>
					</clipitem>
					<clipitem frameBlend="FALSE" id="audioclip-229">
						<file id="file-1"/>
						<name>bandicam 2025-06-02 00-01-10-144 - Audio</name>
						<rate>
							<timebase>60</timebase>
							<ntsc>TRUE</ntsc>
						</rate>
						<rate>
							<timebase>60</timebase>
							<ntsc>TRUE</ntsc>
						</rate>
						<duration>0</duration>
						<start>4218</start>
						<end>4218</end>
						<in>3672</in>
						<out>3672</out>
					</clipitem>
					<clipitem frameBlend="FALSE" id="audioclip-230">
						<file id="file-1"/>
						<name>bandicam 2025-06-02 00-01-10-144 - Audio</name>
						<rate>
							<timebase>60</timebase>
							<ntsc>TRUE</ntsc>
						</rate>
						<rate>
							<timebase>60</timebase>
							<ntsc>TRUE</ntsc>
						</rate>
						<duration>0</duration>
						<start>4218</start>
						<end>4218</end>
						<in>3696</in>
						<out>3696</out>
					</clipitem>
					<clipitem frameBlend="FALSE" id="audioclip-231">
						<file id="file-1"/>
						<name>bandicam 2025-06-02 00-01-10-144 - Audio</name>
						<rate>
							<timebase>60</timebase>
							<ntsc>TRUE</ntsc>
						</rate>
						<rate>
							<timebase>60</timebase>
							<ntsc>TRUE</ntsc>
						</rate>
						<duration>12</duration>
						<start>4218</start>
						<end>4230</end>
						<in>3768</in>
						<out>3780</out>
					</clipitem>
					<clipitem frameBlend="FALSE" id="audioclip-232">
						<file id="file-1"/>
						<name>bandicam 2025-06-02 00-01-10-144 - Audio</name>
						<rate>
							<timebase>60</timebase>
							<ntsc>TRUE</ntsc>
						</rate>
						<rate>
							<timebase>60</timebase>
							<ntsc>TRUE</ntsc>
						</rate>
						<duration>42</duration>
						<start>4230</start>
						<end>4272</end>
						<in>3846</in>
						<out>3888</out>
					</clipitem>
					<clipitem frameBlend="FALSE" id="audioclip-233">
						<file id="file-1"/>
						<name>bandicam 2025-06-02 00-01-10-144 - Audio</name>
						<rate>
							<timebase>60</timebase>
							<ntsc>TRUE</ntsc>
						</rate>
						<rate>
							<timebase>60</timebase>
							<ntsc>TRUE</ntsc>
						</rate>
						<duration>42</duration>
						<start>4272</start>
						<end>4314</end>
						<in>3900</in>
						<out>3942</out>
					</clipitem>
					<clipitem frameBlend="FALSE" id="audioclip-234">
						<file id="file-1"/>
						<name>bandicam 2025-06-02 00-01-10-144 - Audio</name>
						<rate>
							<timebase>60</timebase>
							<ntsc>TRUE</ntsc>
						</rate>
						<rate>
							<timebase>60</timebase>
							<ntsc>TRUE</ntsc>
						</rate>
						<duration>6</duration>
						<start>4314</start>
						<end>4320</end>
						<in>4026</in>
						<out>4032</out>
					</clipitem>
					<clipitem frameBlend="FALSE" id="audioclip-235">
						<file id="file-1"/>
						<name>bandicam 2025-06-02 00-01-10-144 - Audio</name>
						<rate>
							<timebase>60</timebase>
							<ntsc>TRUE</ntsc>
						</rate>
						<rate>
							<timebase>60</timebase>
							<ntsc>TRUE</ntsc>
						</rate>
						<duration>0</duration>
						<start>4320</start>
						<end>4320</end>
						<in>4044</in>
						<out>4044</out>
					</clipitem>
					<clipitem frameBlend="FALSE" id="audioclip-236">
						<file id="file-1"/>
						<name>bandicam 2025-06-02 00-01-10-144 - Audio</name>
						<rate>
							<timebase>60</timebase>
							<ntsc>TRUE</ntsc>
						</rate>
						<rate>
							<timebase>60</timebase>
							<ntsc>TRUE</ntsc>
						</rate>
						<duration>102</duration>
						<start>4320</start>
						<end>4422</end>
						<in>4074</in>
						<out>4176</out>
					</clipitem>
					<clipitem frameBlend="FALSE" id="audioclip-237">
						<file id="file-1"/>
						<name>bandicam 2025-06-02 00-01-10-144 - Audio</name>
						<rate>
							<timebase>60</timebase>
							<ntsc>TRUE</ntsc>
						</rate>
						<rate>
							<timebase>60</timebase>
							<ntsc>TRUE</ntsc>
						</rate>
						<duration>18</duration>
						<start>4422</start>
						<end>4440</end>
						<in>4188</in>
						<out>4206</out>
					</clipitem>
					<clipitem frameBlend="FALSE" id="audioclip-238">
						<file id="file-1"/>
						<name>bandicam 2025-06-02 00-01-10-144 - Audio</name>
						<rate>
							<timebase>60</timebase>
							<ntsc>TRUE</ntsc>
						</rate>
						<rate>
							<timebase>60</timebase>
							<ntsc>TRUE</ntsc>
						</rate>
						<duration>72</duration>
						<start>4440</start>
						<end>4512</end>
						<in>4218</in>
						<out>4290</out>
					</clipitem>
					<clipitem frameBlend="FALSE" id="audioclip-239">
						<file id="file-1"/>
						<name>bandicam 2025-06-02 00-01-10-144 - Audio</name>
						<rate>
							<timebase>60</timebase>
							<ntsc>TRUE</ntsc>
						</rate>
						<rate>
							<timebase>60</timebase>
							<ntsc>TRUE</ntsc>
						</rate>
						<duration>132</duration>
						<start>4512</start>
						<end>4644</end>
						<in>4302</in>
						<out>4434</out>
					</clipitem>
					<clipitem frameBlend="FALSE" id="audioclip-240">
						<file id="file-1"/>
						<name>bandicam 2025-06-02 00-01-10-144 - Audio</name>
						<rate>
							<timebase>60</timebase>
							<ntsc>TRUE</ntsc>
						</rate>
						<rate>
							<timebase>60</timebase>
							<ntsc>TRUE</ntsc>
						</rate>
						<duration>90</duration>
						<start>4644</start>
						<end>4734</end>
						<in>4464</in>
						<out>4554</out>
					</clipitem>
					<clipitem frameBlend="FALSE" id="audioclip-241">
						<file id="file-1"/>
						<name>bandicam 2025-06-02 00-01-10-144 - Audio</name>
						<rate>
							<timebase>60</timebase>
							<ntsc>TRUE</ntsc>
						</rate>
						<rate>
							<timebase>60</timebase>
							<ntsc>TRUE</ntsc>
						</rate>
						<duration>30</duration>
						<start>4734</start>
						<end>4764</end>
						<in>4602</in>
						<out>4632</out>
					</clipitem>
					<clipitem frameBlend="FALSE" id="audioclip-242">
						<file id="file-1"/>
						<name>bandicam 2025-06-02 00-01-10-144 - Audio</name>
						<rate>
							<timebase>60</timebase>
							<ntsc>TRUE</ntsc>
						</rate>
						<rate>
							<timebase>60</timebase>
							<ntsc>TRUE</ntsc>
						</rate>
						<duration>36</duration>
						<start>4764</start>
						<end>4800</end>
						<in>4650</in>
						<out>4686</out>
					</clipitem>
					<clipitem frameBlend="FALSE" id="audioclip-243">
						<file id="file-1"/>
						<name>bandicam 2025-06-02 00-01-10-144 - Audio</name>
						<rate>
							<timebase>60</timebase>
							<ntsc>TRUE</ntsc>
						</rate>
						<rate>
							<timebase>60</timebase>
							<ntsc>TRUE</ntsc>
						</rate>
						<duration>6</duration>
						<start>4800</start>
						<end>4806</end>
						<in>4704</in>
						<out>4710</out>
					</clipitem>
					<clipitem frameBlend="FALSE" id="audioclip-244">
						<file id="file-1"/>
						<name>bandicam 2025-06-02 00-01-10-144 - Audio</name>
						<rate>
							<timebase>60</timebase>
							<ntsc>TRUE</ntsc>
						</rate>
						<rate>
							<timebase>60</timebase>
							<ntsc>TRUE</ntsc>
						</rate>
						<duration>102</duration>
						<start>4806</start>
						<end>4908</end>
						<in>4722</in>
						<out>4824</out>
					</clipitem>
					<clipitem frameBlend="FALSE" id="audioclip-245">
						<file id="file-1"/>
						<name>bandicam 2025-06-02 00-01-10-144 - Audio</name>
						<rate>
							<timebase>60</timebase>
							<ntsc>TRUE</ntsc>
						</rate>
						<rate>
							<timebase>60</timebase>
							<ntsc>TRUE</ntsc>
						</rate>
						<duration>12</duration>
						<start>4908</start>
						<end>4920</end>
						<in>4836</in>
						<out>4848</out>
					</clipitem>
					<clipitem frameBlend="FALSE" id="audioclip-246">
						<file id="file-1"/>
						<name>bandicam 2025-06-02 00-01-10-144 - Audio</name>
						<rate>
							<timebase>60</timebase>
							<ntsc>TRUE</ntsc>
						</rate>
						<rate>
							<timebase>60</timebase>
							<ntsc>TRUE</ntsc>
						</rate>
						<duration>12</duration>
						<start>4920</start>
						<end>4932</end>
						<in>4860</in>
						<out>4872</out>
					</clipitem>
					<clipitem frameBlend="FALSE" id="audioclip-247">
						<file id="file-1"/>
						<name>bandicam 2025-06-02 00-01-10-144 - Audio</name>
						<rate>
							<timebase>60</timebase>
							<ntsc>TRUE</ntsc>
						</rate>
						<rate>
							<timebase>60</timebase>
							<ntsc>TRUE</ntsc>
						</rate>
						<duration>6</duration>
						<start>4932</start>
						<end>4938</end>
						<in>4890</in>
						<out>4896</out>
					</clipitem>
					<clipitem frameBlend="FALSE" id="audioclip-248">
						<file id="file-1"/>
						<name>bandicam 2025-06-02 00-01-10-144 - Audio</name>
						<rate>
							<timebase>60</timebase>
							<ntsc>TRUE</ntsc>
						</rate>
						<rate>
							<timebase>60</timebase>
							<ntsc>TRUE</ntsc>
						</rate>
						<duration>24</duration>
						<start>4938</start>
						<end>4962</end>
						<in>4908</in>
						<out>4932</out>
					</clipitem>
					<clipitem frameBlend="FALSE" id="audioclip-249">
						<file id="file-1"/>
						<name>bandicam 2025-06-02 00-01-10-144 - Audio</name>
						<rate>
							<timebase>60</timebase>
							<ntsc>TRUE</ntsc>
						</rate>
						<rate>
							<timebase>60</timebase>
							<ntsc>TRUE</ntsc>
						</rate>
						<duration>102</duration>
						<start>4962</start>
						<end>5064</end>
						<in>4944</in>
						<out>5046</out>
					</clipitem>
					<clipitem frameBlend="FALSE" id="audioclip-250">
						<file id="file-1"/>
						<name>bandicam 2025-06-02 00-01-10-144 - Audio</name>
						<rate>
							<timebase>60</timebase>
							<ntsc>TRUE</ntsc>
						</rate>
						<rate>
							<timebase>60</timebase>
							<ntsc>TRUE</ntsc>
						</rate>
						<duration>120</duration>
						<start>5064</start>
						<end>5184</end>
						<in>5058</in>
						<out>5178</out>
					</clipitem>
					<clipitem frameBlend="FALSE" id="audioclip-251">
						<file id="file-1"/>
						<name>bandicam 2025-06-02 00-01-10-144 - Audio</name>
						<rate>
							<timebase>60</timebase>
							<ntsc>TRUE</ntsc>
						</rate>
						<rate>
							<timebase>60</timebase>
							<ntsc>TRUE</ntsc>
						</rate>
						<duration>12</duration>
						<start>5184</start>
						<end>5196</end>
						<in>5202</in>
						<out>5214</out>
					</clipitem>
					<clipitem frameBlend="FALSE" id="audioclip-252">
						<file id="file-1"/>
						<name>bandicam 2025-06-02 00-01-10-144 - Audio</name>
						<rate>
							<timebase>60</timebase>
							<ntsc>TRUE</ntsc>
						</rate>
						<rate>
							<timebase>60</timebase>
							<ntsc>TRUE</ntsc>
						</rate>
						<duration>36</duration>
						<start>5196</start>
						<end>5232</end>
						<in>5232</in>
						<out>5268</out>
					</clipitem>
					<clipitem frameBlend="FALSE" id="audioclip-253">
						<file id="file-1"/>
						<name>bandicam 2025-06-02 00-01-10-144 - Audio</name>
						<rate>
							<timebase>60</timebase>
							<ntsc>TRUE</ntsc>
						</rate>
						<rate>
							<timebase>60</timebase>
							<ntsc>TRUE</ntsc>
						</rate>
						<duration>36</duration>
						<start>5232</start>
						<end>5268</end>
						<in>5328</in>
						<out>5364</out>
					</clipitem>
					<clipitem frameBlend="FALSE" id="audioclip-254">
						<file id="file-1"/>
						<name>bandicam 2025-06-02 00-01-10-144 - Audio</name>
						<rate>
							<timebase>60</timebase>
							<ntsc>TRUE</ntsc>
						</rate>
						<rate>
							<timebase>60</timebase>
							<ntsc>TRUE</ntsc>
						</rate>
						<duration>84</duration>
						<start>5268</start>
						<end>5352</end>
						<in>5382</in>
						<out>5466</out>
					</clipitem>
					<clipitem frameBlend="FALSE" id="audioclip-255">
						<file id="file-1"/>
						<name>bandicam 2025-06-02 00-01-10-144 - Audio</name>
						<rate>
							<timebase>60</timebase>
							<ntsc>TRUE</ntsc>
						</rate>
						<rate>
							<timebase>60</timebase>
							<ntsc>TRUE</ntsc>
						</rate>
						<duration>30</duration>
						<start>5352</start>
						<end>5382</end>
						<in>5490</in>
						<out>5520</out>
					</clipitem>
					<clipitem frameBlend="FALSE" id="audioclip-256">
						<file id="file-1"/>
						<name>bandicam 2025-06-02 00-01-10-144 - Audio</name>
						<rate>
							<timebase>60</timebase>
							<ntsc>TRUE</ntsc>
						</rate>
						<rate>
							<timebase>60</timebase>
							<ntsc>TRUE</ntsc>
						</rate>
						<duration>66</duration>
						<start>5382</start>
						<end>5448</end>
						<in>5532</in>
						<out>5598</out>
					</clipitem>
					<clipitem frameBlend="FALSE" id="audioclip-257">
						<file id="file-1"/>
						<name>bandicam 2025-06-02 00-01-10-144 - Audio</name>
						<rate>
							<timebase>60</timebase>
							<ntsc>TRUE</ntsc>
						</rate>
						<rate>
							<timebase>60</timebase>
							<ntsc>TRUE</ntsc>
						</rate>
						<duration>24</duration>
						<start>5448</start>
						<end>5472</end>
						<in>5622</in>
						<out>5646</out>
					</clipitem>
					<clipitem frameBlend="FALSE" id="audioclip-258">
						<file id="file-1"/>
						<name>bandicam 2025-06-02 00-01-10-144 - Audio</name>
						<rate>
							<timebase>60</timebase>
							<ntsc>TRUE</ntsc>
						</rate>
						<rate>
							<timebase>60</timebase>
							<ntsc>TRUE</ntsc>
						</rate>
						<duration>30</duration>
						<start>5472</start>
						<end>5502</end>
						<in>5664</in>
						<out>5694</out>
					</clipitem>
					<clipitem frameBlend="FALSE" id="audioclip-259">
						<file id="file-1"/>
						<name>bandicam 2025-06-02 00-01-10-144 - Audio</name>
						<rate>
							<timebase>60</timebase>
							<ntsc>TRUE</ntsc>
						</rate>
						<rate>
							<timebase>60</timebase>
							<ntsc>TRUE</ntsc>
						</rate>
						<duration>72</duration>
						<start>5502</start>
						<end>5574</end>
						<in>5712</in>
						<out>5784</out>
					</clipitem>
					<clipitem frameBlend="FALSE" id="audioclip-260">
						<file id="file-1"/>
						<name>bandicam 2025-06-02 00-01-10-144 - Audio</name>
						<rate>
							<timebase>60</timebase>
							<ntsc>TRUE</ntsc>
						</rate>
						<rate>
							<timebase>60</timebase>
							<ntsc>TRUE</ntsc>
						</rate>
						<duration>288</duration>
						<start>5574</start>
						<end>5862</end>
						<in>5802</in>
						<out>6090</out>
					</clipitem>
					<clipitem frameBlend="FALSE" id="audioclip-261">
						<file id="file-1"/>
						<name>bandicam 2025-06-02 00-01-10-144 - Audio</name>
						<rate>
							<timebase>60</timebase>
							<ntsc>TRUE</ntsc>
						</rate>
						<rate>
							<timebase>60</timebase>
							<ntsc>TRUE</ntsc>
						</rate>
						<duration>0</duration>
						<start>5862</start>
						<end>5862</end>
						<in>6132</in>
						<out>6132</out>
					</clipitem>
					<clipitem frameBlend="FALSE" id="audioclip-262">
						<file id="file-1"/>
						<name>bandicam 2025-06-02 00-01-10-144 - Audio</name>
						<rate>
							<timebase>60</timebase>
							<ntsc>TRUE</ntsc>
						</rate>
						<rate>
							<timebase>60</timebase>
							<ntsc>TRUE</ntsc>
						</rate>
						<duration>60</duration>
						<start>5862</start>
						<end>5922</end>
						<in>6150</in>
						<out>6210</out>
					</clipitem>
					<clipitem frameBlend="FALSE" id="audioclip-263">
						<file id="file-1"/>
						<name>bandicam 2025-06-02 00-01-10-144 - Audio</name>
						<rate>
							<timebase>60</timebase>
							<ntsc>TRUE</ntsc>
						</rate>
						<rate>
							<timebase>60</timebase>
							<ntsc>TRUE</ntsc>
						</rate>
						<duration>42</duration>
						<start>5922</start>
						<end>5964</end>
						<in>6222</in>
						<out>6264</out>
					</clipitem>
					<clipitem frameBlend="FALSE" id="audioclip-264">
						<file id="file-1"/>
						<name>bandicam 2025-06-02 00-01-10-144 - Audio</name>
						<rate>
							<timebase>60</timebase>
							<ntsc>TRUE</ntsc>
						</rate>
						<rate>
							<timebase>60</timebase>
							<ntsc>TRUE</ntsc>
						</rate>
						<duration>0</duration>
						<start>5964</start>
						<end>5964</end>
						<in>6282</in>
						<out>6282</out>
					</clipitem>
					<clipitem frameBlend="FALSE" id="audioclip-265">
						<file id="file-1"/>
						<name>bandicam 2025-06-02 00-01-10-144 - Audio</name>
						<rate>
							<timebase>60</timebase>
							<ntsc>TRUE</ntsc>
						</rate>
						<rate>
							<timebase>60</timebase>
							<ntsc>TRUE</ntsc>
						</rate>
						<duration>0</duration>
						<start>5964</start>
						<end>5964</end>
						<in>6300</in>
						<out>6300</out>
					</clipitem>
					<clipitem frameBlend="FALSE" id="audioclip-266">
						<file id="file-1"/>
						<name>bandicam 2025-06-02 00-01-10-144 - Audio</name>
						<rate>
							<timebase>60</timebase>
							<ntsc>TRUE</ntsc>
						</rate>
						<rate>
							<timebase>60</timebase>
							<ntsc>TRUE</ntsc>
						</rate>
						<duration>36</duration>
						<start>5964</start>
						<end>6000</end>
						<in>6312</in>
						<out>6348</out>
					</clipitem>
					<clipitem frameBlend="FALSE" id="audioclip-267">
						<file id="file-1"/>
						<name>bandicam 2025-06-02 00-01-10-144 - Audio</name>
						<rate>
							<timebase>60</timebase>
							<ntsc>TRUE</ntsc>
						</rate>
						<rate>
							<timebase>60</timebase>
							<ntsc>TRUE</ntsc>
						</rate>
						<duration>36</duration>
						<start>6000</start>
						<end>6036</end>
						<in>6384</in>
						<out>6420</out>
					</clipitem>
					<clipitem frameBlend="FALSE" id="audioclip-268">
						<file id="file-1"/>
						<name>bandicam 2025-06-02 00-01-10-144 - Audio</name>
						<rate>
							<timebase>60</timebase>
							<ntsc>TRUE</ntsc>
						</rate>
						<rate>
							<timebase>60</timebase>
							<ntsc>TRUE</ntsc>
						</rate>
						<duration>24</duration>
						<start>6036</start>
						<end>6060</end>
						<in>6432</in>
						<out>6456</out>
					</clipitem>
					<clipitem frameBlend="FALSE" id="audioclip-269">
						<file id="file-1"/>
						<name>bandicam 2025-06-02 00-01-10-144 - Audio</name>
						<rate>
							<timebase>60</timebase>
							<ntsc>TRUE</ntsc>
						</rate>
						<rate>
							<timebase>60</timebase>
							<ntsc>TRUE</ntsc>
						</rate>
						<duration>120</duration>
						<start>6060</start>
						<end>6180</end>
						<in>6468</in>
						<out>6588</out>
					</clipitem>
					<clipitem frameBlend="FALSE" id="audioclip-270">
						<file id="file-1"/>
						<name>bandicam 2025-06-02 00-01-10-144 - Audio</name>
						<rate>
							<timebase>60</timebase>
							<ntsc>TRUE</ntsc>
						</rate>
						<rate>
							<timebase>60</timebase>
							<ntsc>TRUE</ntsc>
						</rate>
						<duration>36</duration>
						<start>6180</start>
						<end>6216</end>
						<in>6612</in>
						<out>6648</out>
					</clipitem>
					<clipitem frameBlend="FALSE" id="audioclip-271">
						<file id="file-1"/>
						<name>bandicam 2025-06-02 00-01-10-144 - Audio</name>
						<rate>
							<timebase>60</timebase>
							<ntsc>TRUE</ntsc>
						</rate>
						<rate>
							<timebase>60</timebase>
							<ntsc>TRUE</ntsc>
						</rate>
						<duration>0</duration>
						<start>6216</start>
						<end>6216</end>
						<in>6714</in>
						<out>6714</out>
					</clipitem>
					<clipitem frameBlend="FALSE" id="audioclip-272">
						<file id="file-1"/>
						<name>bandicam 2025-06-02 00-01-10-144 - Audio</name>
						<rate>
							<timebase>60</timebase>
							<ntsc>TRUE</ntsc>
						</rate>
						<rate>
							<timebase>60</timebase>
							<ntsc>TRUE</ntsc>
						</rate>
						<duration>6</duration>
						<start>6216</start>
						<end>6222</end>
						<in>6726</in>
						<out>6732</out>
					</clipitem>
					<clipitem frameBlend="FALSE" id="audioclip-273">
						<file id="file-1"/>
						<name>bandicam 2025-06-02 00-01-10-144 - Audio</name>
						<rate>
							<timebase>60</timebase>
							<ntsc>TRUE</ntsc>
						</rate>
						<rate>
							<timebase>60</timebase>
							<ntsc>TRUE</ntsc>
						</rate>
						<duration>18</duration>
						<start>6222</start>
						<end>6240</end>
						<in>6750</in>
						<out>6768</out>
					</clipitem>
					<clipitem frameBlend="FALSE" id="audioclip-274">
						<file id="file-1"/>
						<name>bandicam 2025-06-02 00-01-10-144 - Audio</name>
						<rate>
							<timebase>60</timebase>
							<ntsc>TRUE</ntsc>
						</rate>
						<rate>
							<timebase>60</timebase>
							<ntsc>TRUE</ntsc>
						</rate>
						<duration>66</duration>
						<start>6240</start>
						<end>6306</end>
						<in>6798</in>
						<out>6864</out>
					</clipitem>
					<clipitem frameBlend="FALSE" id="audioclip-275">
						<file id="file-1"/>
						<name>bandicam 2025-06-02 00-01-10-144 - Audio</name>
						<rate>
							<timebase>60</timebase>
							<ntsc>TRUE</ntsc>
						</rate>
						<rate>
							<timebase>60</timebase>
							<ntsc>TRUE</ntsc>
						</rate>
						<duration>6</duration>
						<start>6306</start>
						<end>6312</end>
						<in>6894</in>
						<out>6900</out>
					</clipitem>
					<clipitem frameBlend="FALSE" id="audioclip-276">
						<file id="file-1"/>
						<name>bandicam 2025-06-02 00-01-10-144 - Audio</name>
						<rate>
							<timebase>60</timebase>
							<ntsc>TRUE</ntsc>
						</rate>
						<rate>
							<timebase>60</timebase>
							<ntsc>TRUE</ntsc>
						</rate>
						<duration>42</duration>
						<start>6312</start>
						<end>6354</end>
						<in>6912</in>
						<out>6954</out>
					</clipitem>
					<clipitem frameBlend="FALSE" id="audioclip-277">
						<file id="file-1"/>
						<name>bandicam 2025-06-02 00-01-10-144 - Audio</name>
						<rate>
							<timebase>60</timebase>
							<ntsc>TRUE</ntsc>
						</rate>
						<rate>
							<timebase>60</timebase>
							<ntsc>TRUE</ntsc>
						</rate>
						<duration>54</duration>
						<start>6354</start>
						<end>6408</end>
						<in>6996</in>
						<out>7050</out>
					</clipitem>
					<clipitem frameBlend="FALSE" id="audioclip-278">
						<file id="file-1"/>
						<name>bandicam 2025-06-02 00-01-10-144 - Audio</name>
						<rate>
							<timebase>60</timebase>
							<ntsc>TRUE</ntsc>
						</rate>
						<rate>
							<timebase>60</timebase>
							<ntsc>TRUE</ntsc>
						</rate>
						<duration>6</duration>
						<start>6408</start>
						<end>6414</end>
						<in>114</in>
						<out>120</out>
					</clipitem>
					<clipitem frameBlend="FALSE" id="audioclip-279">
						<file id="file-1"/>
						<name>bandicam 2025-06-02 00-01-10-144 - Audio</name>
						<rate>
							<timebase>60</timebase>
							<ntsc>TRUE</ntsc>
						</rate>
						<rate>
							<timebase>60</timebase>
							<ntsc>TRUE</ntsc>
						</rate>
						<duration>6</duration>
						<start>6414</start>
						<end>6420</end>
						<in>1410</in>
						<out>1416</out>
					</clipitem>
					<clipitem frameBlend="FALSE" id="audioclip-280">
						<file id="file-1"/>
						<name>bandicam 2025-06-02 00-01-10-144 - Audio</name>
						<rate>
							<timebase>60</timebase>
							<ntsc>TRUE</ntsc>
						</rate>
						<rate>
							<timebase>60</timebase>
							<ntsc>TRUE</ntsc>
						</rate>
						<duration>0</duration>
						<start>6420</start>
						<end>6420</end>
						<in>1704</in>
						<out>1704</out>
					</clipitem>
					<clipitem frameBlend="FALSE" id="audioclip-281">
						<file id="file-1"/>
						<name>bandicam 2025-06-02 00-01-10-144 - Audio</name>
						<rate>
							<timebase>60</timebase>
							<ntsc>TRUE</ntsc>
						</rate>
						<rate>
							<timebase>60</timebase>
							<ntsc>TRUE</ntsc>
						</rate>
						<duration>12</duration>
						<start>6420</start>
						<end>6432</end>
						<in>1746</in>
						<out>1758</out>
					</clipitem>
					<clipitem frameBlend="FALSE" id="audioclip-282">
						<file id="file-1"/>
						<name>bandicam 2025-06-02 00-01-10-144 - Audio</name>
						<rate>
							<timebase>60</timebase>
							<ntsc>TRUE</ntsc>
						</rate>
						<rate>
							<timebase>60</timebase>
							<ntsc>TRUE</ntsc>
						</rate>
						<duration>6</duration>
						<start>6432</start>
						<end>6438</end>
						<in>2448</in>
						<out>2454</out>
					</clipitem>
					<clipitem frameBlend="FALSE" id="audioclip-283">
						<file id="file-1"/>
						<name>bandicam 2025-06-02 00-01-10-144 - Audio</name>
						<rate>
							<timebase>60</timebase>
							<ntsc>TRUE</ntsc>
						</rate>
						<rate>
							<timebase>60</timebase>
							<ntsc>TRUE</ntsc>
						</rate>
						<duration>12</duration>
						<start>6438</start>
						<end>6450</end>
						<in>2742</in>
						<out>2754</out>
					</clipitem>
					<clipitem frameBlend="FALSE" id="audioclip-284">
						<file id="file-1"/>
						<name>bandicam 2025-06-02 00-01-10-144 - Audio</name>
						<rate>
							<timebase>60</timebase>
							<ntsc>TRUE</ntsc>
						</rate>
						<rate>
							<timebase>60</timebase>
							<ntsc>TRUE</ntsc>
						</rate>
						<duration>6</duration>
						<start>6450</start>
						<end>6456</end>
						<in>2766</in>
						<out>2772</out>
					</clipitem>
					<clipitem frameBlend="FALSE" id="audioclip-285">
						<file id="file-1"/>
						<name>bandicam 2025-06-02 00-01-10-144 - Audio</name>
						<rate>
							<timebase>60</timebase>
							<ntsc>TRUE</ntsc>
						</rate>
						<rate>
							<timebase>60</timebase>
							<ntsc>TRUE</ntsc>
						</rate>
						<duration>12</duration>
						<start>6456</start>
						<end>6468</end>
						<in>2808</in>
						<out>2820</out>
					</clipitem>
					<clipitem frameBlend="FALSE" id="audioclip-286">
						<file id="file-1"/>
						<name>bandicam 2025-06-02 00-01-10-144 - Audio</name>
						<rate>
							<timebase>60</timebase>
							<ntsc>TRUE</ntsc>
						</rate>
						<rate>
							<timebase>60</timebase>
							<ntsc>TRUE</ntsc>
						</rate>
						<duration>30</duration>
						<start>6468</start>
						<end>6498</end>
						<in>3072</in>
						<out>3102</out>
					</clipitem>
					<clipitem frameBlend="FALSE" id="audioclip-287">
						<file id="file-1"/>
						<name>bandicam 2025-06-02 00-01-10-144 - Audio</name>
						<rate>
							<timebase>60</timebase>
							<ntsc>TRUE</ntsc>
						</rate>
						<rate>
							<timebase>60</timebase>
							<ntsc>TRUE</ntsc>
						</rate>
						<duration>18</duration>
						<start>6498</start>
						<end>6516</end>
						<in>3270</in>
						<out>3288</out>
					</clipitem>
					<clipitem frameBlend="FALSE" id="audioclip-288">
						<file id="file-1"/>
						<name>bandicam 2025-06-02 00-01-10-144 - Audio</name>
						<rate>
							<timebase>60</timebase>
							<ntsc>TRUE</ntsc>
						</rate>
						<rate>
							<timebase>60</timebase>
							<ntsc>TRUE</ntsc>
						</rate>
						<duration>0</duration>
						<start>6516</start>
						<end>6516</end>
						<in>3630</in>
						<out>3630</out>
					</clipitem>
					<clipitem frameBlend="FALSE" id="audioclip-289">
						<file id="file-1"/>
						<name>bandicam 2025-06-02 00-01-10-144 - Audio</name>
						<rate>
							<timebase>60</timebase>
							<ntsc>TRUE</ntsc>
						</rate>
						<rate>
							<timebase>60</timebase>
							<ntsc>TRUE</ntsc>
						</rate>
						<duration>6</duration>
						<start>6516</start>
						<end>6522</end>
						<in>4086</in>
						<out>4092</out>
					</clipitem>
					<clipitem frameBlend="FALSE" id="audioclip-290">
						<file id="file-1"/>
						<name>bandicam 2025-06-02 00-01-10-144 - Audio</name>
						<rate>
							<timebase>60</timebase>
							<ntsc>TRUE</ntsc>
						</rate>
						<rate>
							<timebase>60</timebase>
							<ntsc>TRUE</ntsc>
						</rate>
						<duration>6</duration>
						<start>6522</start>
						<end>6528</end>
						<in>4104</in>
						<out>4110</out>
					</clipitem>
					<clipitem frameBlend="FALSE" id="audioclip-291">
						<file id="file-1"/>
						<name>bandicam 2025-06-02 00-01-10-144 - Audio</name>
						<rate>
							<timebase>60</timebase>
							<ntsc>TRUE</ntsc>
						</rate>
						<rate>
							<timebase>60</timebase>
							<ntsc>TRUE</ntsc>
						</rate>
						<duration>0</duration>
						<start>6528</start>
						<end>6528</end>
						<in>4134</in>
						<out>4134</out>
					</clipitem>
					<clipitem frameBlend="FALSE" id="audioclip-292">
						<file id="file-1"/>
						<name>bandicam 2025-06-02 00-01-10-144 - Audio</name>
						<rate>
							<timebase>60</timebase>
							<ntsc>TRUE</ntsc>
						</rate>
						<rate>
							<timebase>60</timebase>
							<ntsc>TRUE</ntsc>
						</rate>
						<duration>6</duration>
						<start>6528</start>
						<end>6534</end>
						<in>4188</in>
						<out>4194</out>
					</clipitem>
					<clipitem frameBlend="FALSE" id="audioclip-293">
						<file id="file-1"/>
						<name>bandicam 2025-06-02 00-01-10-144 - Audio</name>
						<rate>
							<timebase>60</timebase>
							<ntsc>TRUE</ntsc>
						</rate>
						<rate>
							<timebase>60</timebase>
							<ntsc>TRUE</ntsc>
						</rate>
						<duration>0</duration>
						<start>6534</start>
						<end>6534</end>
						<in>4230</in>
						<out>4230</out>
					</clipitem>
					<clipitem frameBlend="FALSE" id="audioclip-294">
						<file id="file-1"/>
						<name>bandicam 2025-06-02 00-01-10-144 - Audio</name>
						<rate>
							<timebase>60</timebase>
							<ntsc>TRUE</ntsc>
						</rate>
						<rate>
							<timebase>60</timebase>
							<ntsc>TRUE</ntsc>
						</rate>
						<duration>6</duration>
						<start>6534</start>
						<end>6540</end>
						<in>4242</in>
						<out>4248</out>
					</clipitem>
					<clipitem frameBlend="FALSE" id="audioclip-295">
						<file id="file-1"/>
						<name>bandicam 2025-06-02 00-01-10-144 - Audio</name>
						<rate>
							<timebase>60</timebase>
							<ntsc>TRUE</ntsc>
						</rate>
						<rate>
							<timebase>60</timebase>
							<ntsc>TRUE</ntsc>
						</rate>
						<duration>0</duration>
						<start>6540</start>
						<end>6540</end>
						<in>4368</in>
						<out>4368</out>
					</clipitem>
					<clipitem frameBlend="FALSE" id="audioclip-296">
						<file id="file-1"/>
						<name>bandicam 2025-06-02 00-01-10-144 - Audio</name>
						<rate>
							<timebase>60</timebase>
							<ntsc>TRUE</ntsc>
						</rate>
						<rate>
							<timebase>60</timebase>
							<ntsc>TRUE</ntsc>
						</rate>
						<duration>0</duration>
						<start>6540</start>
						<end>6540</end>
						<in>4512</in>
						<out>4512</out>
					</clipitem>
					<clipitem frameBlend="FALSE" id="audioclip-297">
						<file id="file-1"/>
						<name>bandicam 2025-06-02 00-01-10-144 - Audio</name>
						<rate>
							<timebase>60</timebase>
							<ntsc>TRUE</ntsc>
						</rate>
						<rate>
							<timebase>60</timebase>
							<ntsc>TRUE</ntsc>
						</rate>
						<duration>0</duration>
						<start>6540</start>
						<end>6540</end>
						<in>4602</in>
						<out>4602</out>
					</clipitem>
					<clipitem frameBlend="FALSE" id="audioclip-298">
						<file id="file-1"/>
						<name>bandicam 2025-06-02 00-01-10-144 - Audio</name>
						<rate>
							<timebase>60</timebase>
							<ntsc>TRUE</ntsc>
						</rate>
						<rate>
							<timebase>60</timebase>
							<ntsc>TRUE</ntsc>
						</rate>
						<duration>6</duration>
						<start>6540</start>
						<end>6546</end>
						<in>4614</in>
						<out>4620</out>
					</clipitem>
					<clipitem frameBlend="FALSE" id="audioclip-299">
						<file id="file-1"/>
						<name>bandicam 2025-06-02 00-01-10-144 - Audio</name>
						<rate>
							<timebase>60</timebase>
							<ntsc>TRUE</ntsc>
						</rate>
						<rate>
							<timebase>60</timebase>
							<ntsc>TRUE</ntsc>
						</rate>
						<duration>0</duration>
						<start>6546</start>
						<end>6546</end>
						<in>4722</in>
						<out>4722</out>
					</clipitem>
					<clipitem frameBlend="FALSE" id="audioclip-300">
						<file id="file-1"/>
						<name>bandicam 2025-06-02 00-01-10-144 - Audio</name>
						<rate>
							<timebase>60</timebase>
							<ntsc>TRUE</ntsc>
						</rate>
						<rate>
							<timebase>60</timebase>
							<ntsc>TRUE</ntsc>
						</rate>
						<duration>6</duration>
						<start>6546</start>
						<end>6552</end>
						<in>5112</in>
						<out>5118</out>
					</clipitem>
					<clipitem frameBlend="FALSE" id="audioclip-301">
						<file id="file-1"/>
						<name>bandicam 2025-06-02 00-01-10-144 - Audio</name>
						<rate>
							<timebase>60</timebase>
							<ntsc>TRUE</ntsc>
						</rate>
						<rate>
							<timebase>60</timebase>
							<ntsc>TRUE</ntsc>
						</rate>
						<duration>6</duration>
						<start>6552</start>
						<end>6558</end>
						<in>5142</in>
						<out>5148</out>
					</clipitem>
					<clipitem frameBlend="FALSE" id="audioclip-302">
						<file id="file-1"/>
						<name>bandicam 2025-06-02 00-01-10-144 - Audio</name>
						<rate>
							<timebase>60</timebase>
							<ntsc>TRUE</ntsc>
						</rate>
						<rate>
							<timebase>60</timebase>
							<ntsc>TRUE</ntsc>
						</rate>
						<duration>12</duration>
						<start>6558</start>
						<end>6570</end>
						<in>5160</in>
						<out>5172</out>
					</clipitem>
					<clipitem frameBlend="FALSE" id="audioclip-303">
						<file id="file-1"/>
						<name>bandicam 2025-06-02 00-01-10-144 - Audio</name>
						<rate>
							<timebase>60</timebase>
							<ntsc>TRUE</ntsc>
						</rate>
						<rate>
							<timebase>60</timebase>
							<ntsc>TRUE</ntsc>
						</rate>
						<duration>0</duration>
						<start>6570</start>
						<end>6570</end>
						<in>5340</in>
						<out>5340</out>
					</clipitem>
					<clipitem frameBlend="FALSE" id="audioclip-304">
						<file id="file-1"/>
						<name>bandicam 2025-06-02 00-01-10-144 - Audio</name>
						<rate>
							<timebase>60</timebase>
							<ntsc>TRUE</ntsc>
						</rate>
						<rate>
							<timebase>60</timebase>
							<ntsc>TRUE</ntsc>
						</rate>
						<duration>0</duration>
						<start>6570</start>
						<end>6570</end>
						<in>5448</in>
						<out>5448</out>
					</clipitem>
					<clipitem frameBlend="FALSE" id="audioclip-305">
						<file id="file-1"/>
						<name>bandicam 2025-06-02 00-01-10-144 - Audio</name>
						<rate>
							<timebase>60</timebase>
							<ntsc>TRUE</ntsc>
						</rate>
						<rate>
							<timebase>60</timebase>
							<ntsc>TRUE</ntsc>
						</rate>
						<duration>0</duration>
						<start>6570</start>
						<end>6570</end>
						<in>5592</in>
						<out>5592</out>
					</clipitem>
					<clipitem frameBlend="FALSE" id="audioclip-306">
						<file id="file-1"/>
						<name>bandicam 2025-06-02 00-01-10-144 - Audio</name>
						<rate>
							<timebase>60</timebase>
							<ntsc>TRUE</ntsc>
						</rate>
						<rate>
							<timebase>60</timebase>
							<ntsc>TRUE</ntsc>
						</rate>
						<duration>18</duration>
						<start>6570</start>
						<end>6588</end>
						<in>5670</in>
						<out>5688</out>
					</clipitem>
					<clipitem frameBlend="FALSE" id="audioclip-307">
						<file id="file-1"/>
						<name>bandicam 2025-06-02 00-01-10-144 - Audio</name>
						<rate>
							<timebase>60</timebase>
							<ntsc>TRUE</ntsc>
						</rate>
						<rate>
							<timebase>60</timebase>
							<ntsc>TRUE</ntsc>
						</rate>
						<duration>18</duration>
						<start>6588</start>
						<end>6606</end>
						<in>5760</in>
						<out>5778</out>
					</clipitem>
					<clipitem frameBlend="FALSE" id="audioclip-308">
						<file id="file-1"/>
						<name>bandicam 2025-06-02 00-01-10-144 - Audio</name>
						<rate>
							<timebase>60</timebase>
							<ntsc>TRUE</ntsc>
						</rate>
						<rate>
							<timebase>60</timebase>
							<ntsc>TRUE</ntsc>
						</rate>
						<duration>72</duration>
						<start>6606</start>
						<end>6678</end>
						<in>5802</in>
						<out>5874</out>
					</clipitem>
					<clipitem frameBlend="FALSE" id="audioclip-309">
						<file id="file-1"/>
						<name>bandicam 2025-06-02 00-01-10-144 - Audio</name>
						<rate>
							<timebase>60</timebase>
							<ntsc>TRUE</ntsc>
						</rate>
						<rate>
							<timebase>60</timebase>
							<ntsc>TRUE</ntsc>
						</rate>
						<duration>0</duration>
						<start>6678</start>
						<end>6678</end>
						<in>5910</in>
						<out>5910</out>
					</clipitem>
					<clipitem frameBlend="FALSE" id="audioclip-310">
						<file id="file-1"/>
						<name>bandicam 2025-06-02 00-01-10-144 - Audio</name>
						<rate>
							<timebase>60</timebase>
							<ntsc>TRUE</ntsc>
						</rate>
						<rate>
							<timebase>60</timebase>
							<ntsc>TRUE</ntsc>
						</rate>
						<duration>36</duration>
						<start>6678</start>
						<end>6714</end>
						<in>5922</in>
						<out>5958</out>
					</clipitem>
					<clipitem frameBlend="FALSE" id="audioclip-311">
						<file id="file-1"/>
						<name>bandicam 2025-06-02 00-01-10-144 - Audio</name>
						<rate>
							<timebase>60</timebase>
							<ntsc>TRUE</ntsc>
						</rate>
						<rate>
							<timebase>60</timebase>
							<ntsc>TRUE</ntsc>
						</rate>
						<duration>18</duration>
						<start>6714</start>
						<end>6732</end>
						<in>6012</in>
						<out>6030</out>
					</clipitem>
					<clipitem frameBlend="FALSE" id="audioclip-312">
						<file id="file-1"/>
						<name>bandicam 2025-06-02 00-01-10-144 - Audio</name>
						<rate>
							<timebase>60</timebase>
							<ntsc>TRUE</ntsc>
						</rate>
						<rate>
							<timebase>60</timebase>
							<ntsc>TRUE</ntsc>
						</rate>
						<duration>24</duration>
						<start>6732</start>
						<end>6756</end>
						<in>6156</in>
						<out>6180</out>
					</clipitem>
					<clipitem frameBlend="FALSE" id="audioclip-313">
						<file id="file-1"/>
						<name>bandicam 2025-06-02 00-01-10-144 - Audio</name>
						<rate>
							<timebase>60</timebase>
							<ntsc>TRUE</ntsc>
						</rate>
						<rate>
							<timebase>60</timebase>
							<ntsc>TRUE</ntsc>
						</rate>
						<duration>0</duration>
						<start>6756</start>
						<end>6756</end>
						<in>6234</in>
						<out>6234</out>
					</clipitem>
					<clipitem frameBlend="FALSE" id="audioclip-314">
						<file id="file-1"/>
						<name>bandicam 2025-06-02 00-01-10-144 - Audio</name>
						<rate>
							<timebase>60</timebase>
							<ntsc>TRUE</ntsc>
						</rate>
						<rate>
							<timebase>60</timebase>
							<ntsc>TRUE</ntsc>
						</rate>
						<duration>0</duration>
						<start>6756</start>
						<end>6756</end>
						<in>1704</in>
						<out>1704</out>
					</clipitem>
					<clipitem frameBlend="FALSE" id="audioclip-315">
						<file id="file-1"/>
						<name>bandicam 2025-06-02 00-01-10-144 - Audio</name>
						<rate>
							<timebase>60</timebase>
							<ntsc>TRUE</ntsc>
						</rate>
						<rate>
							<timebase>60</timebase>
							<ntsc>TRUE</ntsc>
						</rate>
						<duration>0</duration>
						<start>6756</start>
						<end>6756</end>
						<in>2448</in>
						<out>2448</out>
					</clipitem>
					<clipitem frameBlend="FALSE" id="audioclip-316">
						<file id="file-1"/>
						<name>bandicam 2025-06-02 00-01-10-144 - Audio</name>
						<rate>
							<timebase>60</timebase>
							<ntsc>TRUE</ntsc>
						</rate>
						<rate>
							<timebase>60</timebase>
							<ntsc>TRUE</ntsc>
						</rate>
						<duration>0</duration>
						<start>6756</start>
						<end>6756</end>
						<in>3084</in>
						<out>3084</out>
					</clipitem>
					<clipitem frameBlend="FALSE" id="audioclip-317">
						<file id="file-1"/>
						<name>bandicam 2025-06-02 00-01-10-144 - Audio</name>
						<rate>
							<timebase>60</timebase>
							<ntsc>TRUE</ntsc>
						</rate>
						<rate>
							<timebase>60</timebase>
							<ntsc>TRUE</ntsc>
						</rate>
						<duration>12</duration>
						<start>6756</start>
						<end>6768</end>
						<in>3270</in>
						<out>3282</out>
					</clipitem>
					<clipitem frameBlend="FALSE" id="audioclip-318">
						<file id="file-1"/>
						<name>bandicam 2025-06-02 00-01-10-144 - Audio</name>
						<rate>
							<timebase>60</timebase>
							<ntsc>TRUE</ntsc>
						</rate>
						<rate>
							<timebase>60</timebase>
							<ntsc>TRUE</ntsc>
						</rate>
						<duration>0</duration>
						<start>6768</start>
						<end>6768</end>
						<in>4134</in>
						<out>4134</out>
					</clipitem>
					<clipitem frameBlend="FALSE" id="audioclip-319">
						<file id="file-1"/>
						<name>bandicam 2025-06-02 00-01-10-144 - Audio</name>
						<rate>
							<timebase>60</timebase>
							<ntsc>TRUE</ntsc>
						</rate>
						<rate>
							<timebase>60</timebase>
							<ntsc>TRUE</ntsc>
						</rate>
						<duration>6</duration>
						<start>6768</start>
						<end>6774</end>
						<in>4188</in>
						<out>4194</out>
					</clipitem>
					<clipitem frameBlend="FALSE" id="audioclip-320">
						<file id="file-1"/>
						<name>bandicam 2025-06-02 00-01-10-144 - Audio</name>
						<rate>
							<timebase>60</timebase>
							<ntsc>TRUE</ntsc>
						</rate>
						<rate>
							<timebase>60</timebase>
							<ntsc>TRUE</ntsc>
						</rate>
						<duration>0</duration>
						<start>6774</start>
						<end>6774</end>
						<in>4368</in>
						<out>4368</out>
					</clipitem>
					<clipitem frameBlend="FALSE" id="audioclip-321">
						<file id="file-1"/>
						<name>bandicam 2025-06-02 00-01-10-144 - Audio</name>
						<rate>
							<timebase>60</timebase>
							<ntsc>TRUE</ntsc>
						</rate>
						<rate>
							<timebase>60</timebase>
							<ntsc>TRUE</ntsc>
						</rate>
						<duration>0</duration>
						<start>6774</start>
						<end>6774</end>
						<in>4722</in>
						<out>4722</out>
					</clipitem>
					<clipitem frameBlend="FALSE" id="audioclip-322">
						<file id="file-1"/>
						<name>bandicam 2025-06-02 00-01-10-144 - Audio</name>
						<rate>
							<timebase>60</timebase>
							<ntsc>TRUE</ntsc>
						</rate>
						<rate>
							<timebase>60</timebase>
							<ntsc>TRUE</ntsc>
						</rate>
						<duration>6</duration>
						<start>6774</start>
						<end>6780</end>
						<in>5142</in>
						<out>5148</out>
					</clipitem>
					<clipitem frameBlend="FALSE" id="audioclip-323">
						<file id="file-1"/>
						<name>bandicam 2025-06-02 00-01-10-144 - Audio</name>
						<rate>
							<timebase>60</timebase>
							<ntsc>TRUE</ntsc>
						</rate>
						<rate>
							<timebase>60</timebase>
							<ntsc>TRUE</ntsc>
						</rate>
						<duration>12</duration>
						<start>6780</start>
						<end>6792</end>
						<in>5676</in>
						<out>5688</out>
					</clipitem>
					<clipitem frameBlend="FALSE" id="audioclip-324">
						<file id="file-1"/>
						<name>bandicam 2025-06-02 00-01-10-144 - Audio</name>
						<rate>
							<timebase>60</timebase>
							<ntsc>TRUE</ntsc>
						</rate>
						<rate>
							<timebase>60</timebase>
							<ntsc>TRUE</ntsc>
						</rate>
						<duration>0</duration>
						<start>6792</start>
						<end>6792</end>
						<in>5766</in>
						<out>5766</out>
					</clipitem>
					<clipitem frameBlend="FALSE" id="audioclip-325">
						<file id="file-1"/>
						<name>bandicam 2025-06-02 00-01-10-144 - Audio</name>
						<rate>
							<timebase>60</timebase>
							<ntsc>TRUE</ntsc>
						</rate>
						<rate>
							<timebase>60</timebase>
							<ntsc>TRUE</ntsc>
						</rate>
						<duration>12</duration>
						<start>6792</start>
						<end>6804</end>
						<in>5814</in>
						<out>5826</out>
					</clipitem>
					<clipitem frameBlend="FALSE" id="audioclip-326">
						<file id="file-1"/>
						<name>bandicam 2025-06-02 00-01-10-144 - Audio</name>
						<rate>
							<timebase>60</timebase>
							<ntsc>TRUE</ntsc>
						</rate>
						<rate>
							<timebase>60</timebase>
							<ntsc>TRUE</ntsc>
						</rate>
						<duration>12</duration>
						<start>6804</start>
						<end>6816</end>
						<in>5850</in>
						<out>5862</out>
					</clipitem>
					<clipitem frameBlend="FALSE" id="audioclip-327">
						<file id="file-1"/>
						<name>bandicam 2025-06-02 00-01-10-144 - Audio</name>
						<rate>
							<timebase>60</timebase>
							<ntsc>TRUE</ntsc>
						</rate>
						<rate>
							<timebase>60</timebase>
							<ntsc>TRUE</ntsc>
						</rate>
						<duration>6</duration>
						<start>6816</start>
						<end>6822</end>
						<in>12</in>
						<out>18</out>
					</clipitem>
					<clipitem frameBlend="FALSE" id="audioclip-328">
						<file id="file-1"/>
						<name>bandicam 2025-06-02 00-01-10-144 - Audio</name>
						<rate>
							<timebase>60</timebase>
							<ntsc>TRUE</ntsc>
						</rate>
						<rate>
							<timebase>60</timebase>
							<ntsc>TRUE</ntsc>
						</rate>
						<duration>0</duration>
						<start>6822</start>
						<end>6822</end>
						<in>60</in>
						<out>60</out>
					</clipitem>
					<clipitem frameBlend="FALSE" id="audioclip-329">
						<file id="file-1"/>
						<name>bandicam 2025-06-02 00-01-10-144 - Audio</name>
						<rate>
							<timebase>60</timebase>
							<ntsc>TRUE</ntsc>
						</rate>
						<rate>
							<timebase>60</timebase>
							<ntsc>TRUE</ntsc>
						</rate>
						<duration>0</duration>
						<start>6822</start>
						<end>6822</end>
						<in>84</in>
						<out>84</out>
					</clipitem>
					<clipitem frameBlend="FALSE" id="audioclip-330">
						<file id="file-1"/>
						<name>bandicam 2025-06-02 00-01-10-144 - Audio</name>
						<rate>
							<timebase>60</timebase>
							<ntsc>TRUE</ntsc>
						</rate>
						<rate>
							<timebase>60</timebase>
							<ntsc>TRUE</ntsc>
						</rate>
						<duration>18</duration>
						<start>6822</start>
						<end>6840</end>
						<in>108</in>
						<out>126</out>
					</clipitem>
					<clipitem frameBlend="FALSE" id="audioclip-331">
						<file id="file-1"/>
						<name>bandicam 2025-06-02 00-01-10-144 - Audio</name>
						<rate>
							<timebase>60</timebase>
							<ntsc>TRUE</ntsc>
						</rate>
						<rate>
							<timebase>60</timebase>
							<ntsc>TRUE</ntsc>
						</rate>
						<duration>6</duration>
						<start>6840</start>
						<end>6846</end>
						<in>174</in>
						<out>180</out>
					</clipitem>
					<clipitem frameBlend="FALSE" id="audioclip-332">
						<file id="file-1"/>
						<name>bandicam 2025-06-02 00-01-10-144 - Audio</name>
						<rate>
							<timebase>60</timebase>
							<ntsc>TRUE</ntsc>
						</rate>
						<rate>
							<timebase>60</timebase>
							<ntsc>TRUE</ntsc>
						</rate>
						<duration>0</duration>
						<start>6846</start>
						<end>6846</end>
						<in>300</in>
						<out>300</out>
					</clipitem>
					<clipitem frameBlend="FALSE" id="audioclip-333">
						<file id="file-1"/>
						<name>bandicam 2025-06-02 00-01-10-144 - Audio</name>
						<rate>
							<timebase>60</timebase>
							<ntsc>TRUE</ntsc>
						</rate>
						<rate>
							<timebase>60</timebase>
							<ntsc>TRUE</ntsc>
						</rate>
						<duration>6</duration>
						<start>6846</start>
						<end>6852</end>
						<in>360</in>
						<out>366</out>
					</clipitem>
					<clipitem frameBlend="FALSE" id="audioclip-334">
						<file id="file-1"/>
						<name>bandicam 2025-06-02 00-01-10-144 - Audio</name>
						<rate>
							<timebase>60</timebase>
							<ntsc>TRUE</ntsc>
						</rate>
						<rate>
							<timebase>60</timebase>
							<ntsc>TRUE</ntsc>
						</rate>
						<duration>0</duration>
						<start>6852</start>
						<end>6852</end>
						<in>438</in>
						<out>438</out>
					</clipitem>
					<clipitem frameBlend="FALSE" id="audioclip-335">
						<file id="file-1"/>
						<name>bandicam 2025-06-02 00-01-10-144 - Audio</name>
						<rate>
							<timebase>60</timebase>
							<ntsc>TRUE</ntsc>
						</rate>
						<rate>
							<timebase>60</timebase>
							<ntsc>TRUE</ntsc>
						</rate>
						<duration>30</duration>
						<start>6852</start>
						<end>6882</end>
						<in>450</in>
						<out>480</out>
					</clipitem>
					<clipitem frameBlend="FALSE" id="audioclip-336">
						<file id="file-1"/>
						<name>bandicam 2025-06-02 00-01-10-144 - Audio</name>
						<rate>
							<timebase>60</timebase>
							<ntsc>TRUE</ntsc>
						</rate>
						<rate>
							<timebase>60</timebase>
							<ntsc>TRUE</ntsc>
						</rate>
						<duration>0</duration>
						<start>6882</start>
						<end>6882</end>
						<in>504</in>
						<out>504</out>
					</clipitem>
					<clipitem frameBlend="FALSE" id="audioclip-337">
						<file id="file-1"/>
						<name>bandicam 2025-06-02 00-01-10-144 - Audio</name>
						<rate>
							<timebase>60</timebase>
							<ntsc>TRUE</ntsc>
						</rate>
						<rate>
							<timebase>60</timebase>
							<ntsc>TRUE</ntsc>
						</rate>
						<duration>6</duration>
						<start>6882</start>
						<end>6888</end>
						<in>528</in>
						<out>534</out>
					</clipitem>
					<clipitem frameBlend="FALSE" id="audioclip-338">
						<file id="file-1"/>
						<name>bandicam 2025-06-02 00-01-10-144 - Audio</name>
						<rate>
							<timebase>60</timebase>
							<ntsc>TRUE</ntsc>
						</rate>
						<rate>
							<timebase>60</timebase>
							<ntsc>TRUE</ntsc>
						</rate>
						<duration>6</duration>
						<start>6888</start>
						<end>6894</end>
						<in>582</in>
						<out>588</out>
					</clipitem>
					<clipitem frameBlend="FALSE" id="audioclip-339">
						<file id="file-1"/>
						<name>bandicam 2025-06-02 00-01-10-144 - Audio</name>
						<rate>
							<timebase>60</timebase>
							<ntsc>TRUE</ntsc>
						</rate>
						<rate>
							<timebase>60</timebase>
							<ntsc>TRUE</ntsc>
						</rate>
						<duration>0</duration>
						<start>6894</start>
						<end>6894</end>
						<in>600</in>
						<out>600</out>
					</clipitem>
					<clipitem frameBlend="FALSE" id="audioclip-340">
						<file id="file-1"/>
						<name>bandicam 2025-06-02 00-01-10-144 - Audio</name>
						<rate>
							<timebase>60</timebase>
							<ntsc>TRUE</ntsc>
						</rate>
						<rate>
							<timebase>60</timebase>
							<ntsc>TRUE</ntsc>
						</rate>
						<duration>6</duration>
						<start>6894</start>
						<end>6900</end>
						<in>624</in>
						<out>630</out>
					</clipitem>
					<clipitem frameBlend="FALSE" id="audioclip-341">
						<file id="file-1"/>
						<name>bandicam 2025-06-02 00-01-10-144 - Audio</name>
						<rate>
							<timebase>60</timebase>
							<ntsc>TRUE</ntsc>
						</rate>
						<rate>
							<timebase>60</timebase>
							<ntsc>TRUE</ntsc>
						</rate>
						<duration>0</duration>
						<start>6900</start>
						<end>6900</end>
						<in>852</in>
						<out>852</out>
					</clipitem>
					<clipitem frameBlend="FALSE" id="audioclip-342">
						<file id="file-1"/>
						<name>bandicam 2025-06-02 00-01-10-144 - Audio</name>
						<rate>
							<timebase>60</timebase>
							<ntsc>TRUE</ntsc>
						</rate>
						<rate>
							<timebase>60</timebase>
							<ntsc>TRUE</ntsc>
						</rate>
						<duration>0</duration>
						<start>6900</start>
						<end>6900</end>
						<in>912</in>
						<out>912</out>
					</clipitem>
					<clipitem frameBlend="FALSE" id="audioclip-343">
						<file id="file-1"/>
						<name>bandicam 2025-06-02 00-01-10-144 - Audio</name>
						<rate>
							<timebase>60</timebase>
							<ntsc>TRUE</ntsc>
						</rate>
						<rate>
							<timebase>60</timebase>
							<ntsc>TRUE</ntsc>
						</rate>
						<duration>0</duration>
						<start>6900</start>
						<end>6900</end>
						<in>936</in>
						<out>936</out>
					</clipitem>
					<clipitem frameBlend="FALSE" id="audioclip-344">
						<file id="file-1"/>
						<name>bandicam 2025-06-02 00-01-10-144 - Audio</name>
						<rate>
							<timebase>60</timebase>
							<ntsc>TRUE</ntsc>
						</rate>
						<rate>
							<timebase>60</timebase>
							<ntsc>TRUE</ntsc>
						</rate>
						<duration>0</duration>
						<start>6900</start>
						<end>6900</end>
						<in>954</in>
						<out>954</out>
					</clipitem>
					<clipitem frameBlend="FALSE" id="audioclip-345">
						<file id="file-1"/>
						<name>bandicam 2025-06-02 00-01-10-144 - Audio</name>
						<rate>
							<timebase>60</timebase>
							<ntsc>TRUE</ntsc>
						</rate>
						<rate>
							<timebase>60</timebase>
							<ntsc>TRUE</ntsc>
						</rate>
						<duration>6</duration>
						<start>6900</start>
						<end>6906</end>
						<in>984</in>
						<out>990</out>
					</clipitem>
					<clipitem frameBlend="FALSE" id="audioclip-346">
						<file id="file-1"/>
						<name>bandicam 2025-06-02 00-01-10-144 - Audio</name>
						<rate>
							<timebase>60</timebase>
							<ntsc>TRUE</ntsc>
						</rate>
						<rate>
							<timebase>60</timebase>
							<ntsc>TRUE</ntsc>
						</rate>
						<duration>6</duration>
						<start>6906</start>
						<end>6912</end>
						<in>1086</in>
						<out>1092</out>
					</clipitem>
					<clipitem frameBlend="FALSE" id="audioclip-347">
						<file id="file-1"/>
						<name>bandicam 2025-06-02 00-01-10-144 - Audio</name>
						<rate>
							<timebase>60</timebase>
							<ntsc>TRUE</ntsc>
						</rate>
						<rate>
							<timebase>60</timebase>
							<ntsc>TRUE</ntsc>
						</rate>
						<duration>0</duration>
						<start>6912</start>
						<end>6912</end>
						<in>1194</in>
						<out>1194</out>
					</clipitem>
					<clipitem frameBlend="FALSE" id="audioclip-348">
						<file id="file-1"/>
						<name>bandicam 2025-06-02 00-01-10-144 - Audio</name>
						<rate>
							<timebase>60</timebase>
							<ntsc>TRUE</ntsc>
						</rate>
						<rate>
							<timebase>60</timebase>
							<ntsc>TRUE</ntsc>
						</rate>
						<duration>6</duration>
						<start>6912</start>
						<end>6918</end>
						<in>1206</in>
						<out>1212</out>
					</clipitem>
					<clipitem frameBlend="FALSE" id="audioclip-349">
						<file id="file-1"/>
						<name>bandicam 2025-06-02 00-01-10-144 - Audio</name>
						<rate>
							<timebase>60</timebase>
							<ntsc>TRUE</ntsc>
						</rate>
						<rate>
							<timebase>60</timebase>
							<ntsc>TRUE</ntsc>
						</rate>
						<duration>0</duration>
						<start>6918</start>
						<end>6918</end>
						<in>1320</in>
						<out>1320</out>
					</clipitem>
					<clipitem frameBlend="FALSE" id="audioclip-350">
						<file id="file-1"/>
						<name>bandicam 2025-06-02 00-01-10-144 - Audio</name>
						<rate>
							<timebase>60</timebase>
							<ntsc>TRUE</ntsc>
						</rate>
						<rate>
							<timebase>60</timebase>
							<ntsc>TRUE</ntsc>
						</rate>
						<duration>0</duration>
						<start>6918</start>
						<end>6918</end>
						<in>1386</in>
						<out>1386</out>
					</clipitem>
					<clipitem frameBlend="FALSE" id="audioclip-351">
						<file id="file-1"/>
						<name>bandicam 2025-06-02 00-01-10-144 - Audio</name>
						<rate>
							<timebase>60</timebase>
							<ntsc>TRUE</ntsc>
						</rate>
						<rate>
							<timebase>60</timebase>
							<ntsc>TRUE</ntsc>
						</rate>
						<duration>18</duration>
						<start>6918</start>
						<end>6936</end>
						<in>1404</in>
						<out>1422</out>
					</clipitem>
					<clipitem frameBlend="FALSE" id="audioclip-352">
						<file id="file-1"/>
						<name>bandicam 2025-06-02 00-01-10-144 - Audio</name>
						<rate>
							<timebase>60</timebase>
							<ntsc>TRUE</ntsc>
						</rate>
						<rate>
							<timebase>60</timebase>
							<ntsc>TRUE</ntsc>
						</rate>
						<duration>6</duration>
						<start>6936</start>
						<end>6942</end>
						<in>1446</in>
						<out>1452</out>
					</clipitem>
					<clipitem frameBlend="FALSE" id="audioclip-353">
						<file id="file-1"/>
						<name>bandicam 2025-06-02 00-01-10-144 - Audio</name>
						<rate>
							<timebase>60</timebase>
							<ntsc>TRUE</ntsc>
						</rate>
						<rate>
							<timebase>60</timebase>
							<ntsc>TRUE</ntsc>
						</rate>
						<duration>6</duration>
						<start>6942</start>
						<end>6948</end>
						<in>1566</in>
						<out>1572</out>
					</clipitem>
					<clipitem frameBlend="FALSE" id="audioclip-354">
						<file id="file-1"/>
						<name>bandicam 2025-06-02 00-01-10-144 - Audio</name>
						<rate>
							<timebase>60</timebase>
							<ntsc>TRUE</ntsc>
						</rate>
						<rate>
							<timebase>60</timebase>
							<ntsc>TRUE</ntsc>
						</rate>
						<duration>0</duration>
						<start>6948</start>
						<end>6948</end>
						<in>1692</in>
						<out>1692</out>
					</clipitem>
					<clipitem frameBlend="FALSE" id="audioclip-355">
						<file id="file-1"/>
						<name>bandicam 2025-06-02 00-01-10-144 - Audio</name>
						<rate>
							<timebase>60</timebase>
							<ntsc>TRUE</ntsc>
						</rate>
						<rate>
							<timebase>60</timebase>
							<ntsc>TRUE</ntsc>
						</rate>
						<duration>12</duration>
						<start>6948</start>
						<end>6960</end>
						<in>1704</in>
						<out>1716</out>
					</clipitem>
					<clipitem frameBlend="FALSE" id="audioclip-356">
						<file id="file-1"/>
						<name>bandicam 2025-06-02 00-01-10-144 - Audio</name>
						<rate>
							<timebase>60</timebase>
							<ntsc>TRUE</ntsc>
						</rate>
						<rate>
							<timebase>60</timebase>
							<ntsc>TRUE</ntsc>
						</rate>
						<duration>12</duration>
						<start>6960</start>
						<end>6972</end>
						<in>1746</in>
						<out>1758</out>
					</clipitem>
					<clipitem frameBlend="FALSE" id="audioclip-357">
						<file id="file-1"/>
						<name>bandicam 2025-06-02 00-01-10-144 - Audio</name>
						<rate>
							<timebase>60</timebase>
							<ntsc>TRUE</ntsc>
						</rate>
						<rate>
							<timebase>60</timebase>
							<ntsc>TRUE</ntsc>
						</rate>
						<duration>0</duration>
						<start>6972</start>
						<end>6972</end>
						<in>1776</in>
						<out>1776</out>
					</clipitem>
					<clipitem frameBlend="FALSE" id="audioclip-358">
						<file id="file-1"/>
						<name>bandicam 2025-06-02 00-01-10-144 - Audio</name>
						<rate>
							<timebase>60</timebase>
							<ntsc>TRUE</ntsc>
						</rate>
						<rate>
							<timebase>60</timebase>
							<ntsc>TRUE</ntsc>
						</rate>
						<duration>0</duration>
						<start>6972</start>
						<end>6972</end>
						<in>1812</in>
						<out>1812</out>
					</clipitem>
					<clipitem frameBlend="FALSE" id="audioclip-359">
						<file id="file-1"/>
						<name>bandicam 2025-06-02 00-01-10-144 - Audio</name>
						<rate>
							<timebase>60</timebase>
							<ntsc>TRUE</ntsc>
						</rate>
						<rate>
							<timebase>60</timebase>
							<ntsc>TRUE</ntsc>
						</rate>
						<duration>0</duration>
						<start>6972</start>
						<end>6972</end>
						<in>1830</in>
						<out>1830</out>
					</clipitem>
					<clipitem frameBlend="FALSE" id="audioclip-360">
						<file id="file-1"/>
						<name>bandicam 2025-06-02 00-01-10-144 - Audio</name>
						<rate>
							<timebase>60</timebase>
							<ntsc>TRUE</ntsc>
						</rate>
						<rate>
							<timebase>60</timebase>
							<ntsc>TRUE</ntsc>
						</rate>
						<duration>12</duration>
						<start>6972</start>
						<end>6984</end>
						<in>1842</in>
						<out>1854</out>
					</clipitem>
					<clipitem frameBlend="FALSE" id="audioclip-361">
						<file id="file-1"/>
						<name>bandicam 2025-06-02 00-01-10-144 - Audio</name>
						<rate>
							<timebase>60</timebase>
							<ntsc>TRUE</ntsc>
						</rate>
						<rate>
							<timebase>60</timebase>
							<ntsc>TRUE</ntsc>
						</rate>
						<duration>0</duration>
						<start>6984</start>
						<end>6984</end>
						<in>1872</in>
						<out>1872</out>
					</clipitem>
					<clipitem frameBlend="FALSE" id="audioclip-362">
						<file id="file-1"/>
						<name>bandicam 2025-06-02 00-01-10-144 - Audio</name>
						<rate>
							<timebase>60</timebase>
							<ntsc>TRUE</ntsc>
						</rate>
						<rate>
							<timebase>60</timebase>
							<ntsc>TRUE</ntsc>
						</rate>
						<duration>6</duration>
						<start>6984</start>
						<end>6990</end>
						<in>1884</in>
						<out>1890</out>
					</clipitem>
					<clipitem frameBlend="FALSE" id="audioclip-363">
						<file id="file-1"/>
						<name>bandicam 2025-06-02 00-01-10-144 - Audio</name>
						<rate>
							<timebase>60</timebase>
							<ntsc>TRUE</ntsc>
						</rate>
						<rate>
							<timebase>60</timebase>
							<ntsc>TRUE</ntsc>
						</rate>
						<duration>6</duration>
						<start>6990</start>
						<end>6996</end>
						<in>1926</in>
						<out>1932</out>
					</clipitem>
					<clipitem frameBlend="FALSE" id="audioclip-364">
						<file id="file-1"/>
						<name>bandicam 2025-06-02 00-01-10-144 - Audio</name>
						<rate>
							<timebase>60</timebase>
							<ntsc>TRUE</ntsc>
						</rate>
						<rate>
							<timebase>60</timebase>
							<ntsc>TRUE</ntsc>
						</rate>
						<duration>0</duration>
						<start>6996</start>
						<end>6996</end>
						<in>2184</in>
						<out>2184</out>
					</clipitem>
					<clipitem frameBlend="FALSE" id="audioclip-365">
						<file id="file-1"/>
						<name>bandicam 2025-06-02 00-01-10-144 - Audio</name>
						<rate>
							<timebase>60</timebase>
							<ntsc>TRUE</ntsc>
						</rate>
						<rate>
							<timebase>60</timebase>
							<ntsc>TRUE</ntsc>
						</rate>
						<duration>0</duration>
						<start>6996</start>
						<end>6996</end>
						<in>2292</in>
						<out>2292</out>
					</clipitem>
					<clipitem frameBlend="FALSE" id="audioclip-366">
						<file id="file-1"/>
						<name>bandicam 2025-06-02 00-01-10-144 - Audio</name>
						<rate>
							<timebase>60</timebase>
							<ntsc>TRUE</ntsc>
						</rate>
						<rate>
							<timebase>60</timebase>
							<ntsc>TRUE</ntsc>
						</rate>
						<duration>12</duration>
						<start>6996</start>
						<end>7008</end>
						<in>2310</in>
						<out>2322</out>
					</clipitem>
					<clipitem frameBlend="FALSE" id="audioclip-367">
						<file id="file-1"/>
						<name>bandicam 2025-06-02 00-01-10-144 - Audio</name>
						<rate>
							<timebase>60</timebase>
							<ntsc>TRUE</ntsc>
						</rate>
						<rate>
							<timebase>60</timebase>
							<ntsc>TRUE</ntsc>
						</rate>
						<duration>6</duration>
						<start>7008</start>
						<end>7014</end>
						<in>2334</in>
						<out>2340</out>
					</clipitem>
					<clipitem frameBlend="FALSE" id="audioclip-368">
						<file id="file-1"/>
						<name>bandicam 2025-06-02 00-01-10-144 - Audio</name>
						<rate>
							<timebase>60</timebase>
							<ntsc>TRUE</ntsc>
						</rate>
						<rate>
							<timebase>60</timebase>
							<ntsc>TRUE</ntsc>
						</rate>
						<duration>6</duration>
						<start>7014</start>
						<end>7020</end>
						<in>2448</in>
						<out>2454</out>
					</clipitem>
					<clipitem frameBlend="FALSE" id="audioclip-369">
						<file id="file-1"/>
						<name>bandicam 2025-06-02 00-01-10-144 - Audio</name>
						<rate>
							<timebase>60</timebase>
							<ntsc>TRUE</ntsc>
						</rate>
						<rate>
							<timebase>60</timebase>
							<ntsc>TRUE</ntsc>
						</rate>
						<duration>6</duration>
						<start>7020</start>
						<end>7026</end>
						<in>2478</in>
						<out>2484</out>
					</clipitem>
					<clipitem frameBlend="FALSE" id="audioclip-370">
						<file id="file-1"/>
						<name>bandicam 2025-06-02 00-01-10-144 - Audio</name>
						<rate>
							<timebase>60</timebase>
							<ntsc>TRUE</ntsc>
						</rate>
						<rate>
							<timebase>60</timebase>
							<ntsc>TRUE</ntsc>
						</rate>
						<duration>6</duration>
						<start>7026</start>
						<end>7032</end>
						<in>2496</in>
						<out>2502</out>
					</clipitem>
					<clipitem frameBlend="FALSE" id="audioclip-371">
						<file id="file-1"/>
						<name>bandicam 2025-06-02 00-01-10-144 - Audio</name>
						<rate>
							<timebase>60</timebase>
							<ntsc>TRUE</ntsc>
						</rate>
						<rate>
							<timebase>60</timebase>
							<ntsc>TRUE</ntsc>
						</rate>
						<duration>6</duration>
						<start>7032</start>
						<end>7038</end>
						<in>2592</in>
						<out>2598</out>
					</clipitem>
					<clipitem frameBlend="FALSE" id="audioclip-372">
						<file id="file-1"/>
						<name>bandicam 2025-06-02 00-01-10-144 - Audio</name>
						<rate>
							<timebase>60</timebase>
							<ntsc>TRUE</ntsc>
						</rate>
						<rate>
							<timebase>60</timebase>
							<ntsc>TRUE</ntsc>
						</rate>
						<duration>6</duration>
						<start>7038</start>
						<end>7044</end>
						<in>2616</in>
						<out>2622</out>
					</clipitem>
					<clipitem frameBlend="FALSE" id="audioclip-373">
						<file id="file-1"/>
						<name>bandicam 2025-06-02 00-01-10-144 - Audio</name>
						<rate>
							<timebase>60</timebase>
							<ntsc>TRUE</ntsc>
						</rate>
						<rate>
							<timebase>60</timebase>
							<ntsc>TRUE</ntsc>
						</rate>
						<duration>0</duration>
						<start>7044</start>
						<end>7044</end>
						<in>2640</in>
						<out>2640</out>
					</clipitem>
					<clipitem frameBlend="FALSE" id="audioclip-374">
						<file id="file-1"/>
						<name>bandicam 2025-06-02 00-01-10-144 - Audio</name>
						<rate>
							<timebase>60</timebase>
							<ntsc>TRUE</ntsc>
						</rate>
						<rate>
							<timebase>60</timebase>
							<ntsc>TRUE</ntsc>
						</rate>
						<duration>6</duration>
						<start>7044</start>
						<end>7050</end>
						<in>2652</in>
						<out>2658</out>
					</clipitem>
					<clipitem frameBlend="FALSE" id="audioclip-375">
						<file id="file-1"/>
						<name>bandicam 2025-06-02 00-01-10-144 - Audio</name>
						<rate>
							<timebase>60</timebase>
							<ntsc>TRUE</ntsc>
						</rate>
						<rate>
							<timebase>60</timebase>
							<ntsc>TRUE</ntsc>
						</rate>
						<duration>6</duration>
						<start>7050</start>
						<end>7056</end>
						<in>2724</in>
						<out>2730</out>
					</clipitem>
					<clipitem frameBlend="FALSE" id="audioclip-376">
						<file id="file-1"/>
						<name>bandicam 2025-06-02 00-01-10-144 - Audio</name>
						<rate>
							<timebase>60</timebase>
							<ntsc>TRUE</ntsc>
						</rate>
						<rate>
							<timebase>60</timebase>
							<ntsc>TRUE</ntsc>
						</rate>
						<duration>30</duration>
						<start>7056</start>
						<end>7086</end>
						<in>2742</in>
						<out>2772</out>
					</clipitem>
					<clipitem frameBlend="FALSE" id="audioclip-377">
						<file id="file-1"/>
						<name>bandicam 2025-06-02 00-01-10-144 - Audio</name>
						<rate>
							<timebase>60</timebase>
							<ntsc>TRUE</ntsc>
						</rate>
						<rate>
							<timebase>60</timebase>
							<ntsc>TRUE</ntsc>
						</rate>
						<duration>30</duration>
						<start>7086</start>
						<end>7116</end>
						<in>2802</in>
						<out>2832</out>
					</clipitem>
					<clipitem frameBlend="FALSE" id="audioclip-378">
						<file id="file-1"/>
						<name>bandicam 2025-06-02 00-01-10-144 - Audio</name>
						<rate>
							<timebase>60</timebase>
							<ntsc>TRUE</ntsc>
						</rate>
						<rate>
							<timebase>60</timebase>
							<ntsc>TRUE</ntsc>
						</rate>
						<duration>6</duration>
						<start>7116</start>
						<end>7122</end>
						<in>2874</in>
						<out>2880</out>
					</clipitem>
					<clipitem frameBlend="FALSE" id="audioclip-379">
						<file id="file-1"/>
						<name>bandicam 2025-06-02 00-01-10-144 - Audio</name>
						<rate>
							<timebase>60</timebase>
							<ntsc>TRUE</ntsc>
						</rate>
						<rate>
							<timebase>60</timebase>
							<ntsc>TRUE</ntsc>
						</rate>
						<duration>0</duration>
						<start>7122</start>
						<end>7122</end>
						<in>2946</in>
						<out>2946</out>
					</clipitem>
					<clipitem frameBlend="FALSE" id="audioclip-380">
						<file id="file-1"/>
						<name>bandicam 2025-06-02 00-01-10-144 - Audio</name>
						<rate>
							<timebase>60</timebase>
							<ntsc>TRUE</ntsc>
						</rate>
						<rate>
							<timebase>60</timebase>
							<ntsc>TRUE</ntsc>
						</rate>
						<duration>6</duration>
						<start>7122</start>
						<end>7128</end>
						<in>2964</in>
						<out>2970</out>
					</clipitem>
					<clipitem frameBlend="FALSE" id="audioclip-381">
						<file id="file-1"/>
						<name>bandicam 2025-06-02 00-01-10-144 - Audio</name>
						<rate>
							<timebase>60</timebase>
							<ntsc>TRUE</ntsc>
						</rate>
						<rate>
							<timebase>60</timebase>
							<ntsc>TRUE</ntsc>
						</rate>
						<duration>42</duration>
						<start>7128</start>
						<end>7170</end>
						<in>3060</in>
						<out>3102</out>
					</clipitem>
					<clipitem frameBlend="FALSE" id="audioclip-382">
						<file id="file-1"/>
						<name>bandicam 2025-06-02 00-01-10-144 - Audio</name>
						<rate>
							<timebase>60</timebase>
							<ntsc>TRUE</ntsc>
						</rate>
						<rate>
							<timebase>60</timebase>
							<ntsc>TRUE</ntsc>
						</rate>
						<duration>6</duration>
						<start>7170</start>
						<end>7176</end>
						<in>3120</in>
						<out>3126</out>
					</clipitem>
					<clipitem frameBlend="FALSE" id="audioclip-383">
						<file id="file-1"/>
						<name>bandicam 2025-06-02 00-01-10-144 - Audio</name>
						<rate>
							<timebase>60</timebase>
							<ntsc>TRUE</ntsc>
						</rate>
						<rate>
							<timebase>60</timebase>
							<ntsc>TRUE</ntsc>
						</rate>
						<duration>6</duration>
						<start>7176</start>
						<end>7182</end>
						<in>3228</in>
						<out>3234</out>
					</clipitem>
					<clipitem frameBlend="FALSE" id="audioclip-384">
						<file id="file-1"/>
						<name>bandicam 2025-06-02 00-01-10-144 - Audio</name>
						<rate>
							<timebase>60</timebase>
							<ntsc>TRUE</ntsc>
						</rate>
						<rate>
							<timebase>60</timebase>
							<ntsc>TRUE</ntsc>
						</rate>
						<duration>24</duration>
						<start>7182</start>
						<end>7206</end>
						<in>3270</in>
						<out>3294</out>
					</clipitem>
					<clipitem frameBlend="FALSE" id="audioclip-385">
						<file id="file-1"/>
						<name>bandicam 2025-06-02 00-01-10-144 - Audio</name>
						<rate>
							<timebase>60</timebase>
							<ntsc>TRUE</ntsc>
						</rate>
						<rate>
							<timebase>60</timebase>
							<ntsc>TRUE</ntsc>
						</rate>
						<duration>0</duration>
						<start>7206</start>
						<end>7206</end>
						<in>3306</in>
						<out>3306</out>
					</clipitem>
					<clipitem frameBlend="FALSE" id="audioclip-386">
						<file id="file-1"/>
						<name>bandicam 2025-06-02 00-01-10-144 - Audio</name>
						<rate>
							<timebase>60</timebase>
							<ntsc>TRUE</ntsc>
						</rate>
						<rate>
							<timebase>60</timebase>
							<ntsc>TRUE</ntsc>
						</rate>
						<duration>0</duration>
						<start>7206</start>
						<end>7206</end>
						<in>3378</in>
						<out>3378</out>
					</clipitem>
					<clipitem frameBlend="FALSE" id="audioclip-387">
						<file id="file-1"/>
						<name>bandicam 2025-06-02 00-01-10-144 - Audio</name>
						<rate>
							<timebase>60</timebase>
							<ntsc>TRUE</ntsc>
						</rate>
						<rate>
							<timebase>60</timebase>
							<ntsc>TRUE</ntsc>
						</rate>
						<duration>18</duration>
						<start>7206</start>
						<end>7224</end>
						<in>3456</in>
						<out>3474</out>
					</clipitem>
					<clipitem frameBlend="FALSE" id="audioclip-388">
						<file id="file-1"/>
						<name>bandicam 2025-06-02 00-01-10-144 - Audio</name>
						<rate>
							<timebase>60</timebase>
							<ntsc>TRUE</ntsc>
						</rate>
						<rate>
							<timebase>60</timebase>
							<ntsc>TRUE</ntsc>
						</rate>
						<duration>0</duration>
						<start>7224</start>
						<end>7224</end>
						<in>3504</in>
						<out>3504</out>
					</clipitem>
					<clipitem frameBlend="FALSE" id="audioclip-389">
						<file id="file-1"/>
						<name>bandicam 2025-06-02 00-01-10-144 - Audio</name>
						<rate>
							<timebase>60</timebase>
							<ntsc>TRUE</ntsc>
						</rate>
						<rate>
							<timebase>60</timebase>
							<ntsc>TRUE</ntsc>
						</rate>
						<duration>0</duration>
						<start>7224</start>
						<end>7224</end>
						<in>3582</in>
						<out>3582</out>
					</clipitem>
					<clipitem frameBlend="FALSE" id="audioclip-390">
						<file id="file-1"/>
						<name>bandicam 2025-06-02 00-01-10-144 - Audio</name>
						<rate>
							<timebase>60</timebase>
							<ntsc>TRUE</ntsc>
						</rate>
						<rate>
							<timebase>60</timebase>
							<ntsc>TRUE</ntsc>
						</rate>
						<duration>18</duration>
						<start>7224</start>
						<end>7242</end>
						<in>3624</in>
						<out>3642</out>
					</clipitem>
					<clipitem frameBlend="FALSE" id="audioclip-391">
						<file id="file-1"/>
						<name>bandicam 2025-06-02 00-01-10-144 - Audio</name>
						<rate>
							<timebase>60</timebase>
							<ntsc>TRUE</ntsc>
						</rate>
						<rate>
							<timebase>60</timebase>
							<ntsc>TRUE</ntsc>
						</rate>
						<duration>0</duration>
						<start>7242</start>
						<end>7242</end>
						<in>3696</in>
						<out>3696</out>
					</clipitem>
					<clipitem frameBlend="FALSE" id="audioclip-392">
						<file id="file-1"/>
						<name>bandicam 2025-06-02 00-01-10-144 - Audio</name>
						<rate>
							<timebase>60</timebase>
							<ntsc>TRUE</ntsc>
						</rate>
						<rate>
							<timebase>60</timebase>
							<ntsc>TRUE</ntsc>
						</rate>
						<duration>6</duration>
						<start>7242</start>
						<end>7248</end>
						<in>3768</in>
						<out>3774</out>
					</clipitem>
					<clipitem frameBlend="FALSE" id="audioclip-393">
						<file id="file-1"/>
						<name>bandicam 2025-06-02 00-01-10-144 - Audio</name>
						<rate>
							<timebase>60</timebase>
							<ntsc>TRUE</ntsc>
						</rate>
						<rate>
							<timebase>60</timebase>
							<ntsc>TRUE</ntsc>
						</rate>
						<duration>0</duration>
						<start>7248</start>
						<end>7248</end>
						<in>3858</in>
						<out>3858</out>
					</clipitem>
					<clipitem frameBlend="FALSE" id="audioclip-394">
						<file id="file-1"/>
						<name>bandicam 2025-06-02 00-01-10-144 - Audio</name>
						<rate>
							<timebase>60</timebase>
							<ntsc>TRUE</ntsc>
						</rate>
						<rate>
							<timebase>60</timebase>
							<ntsc>TRUE</ntsc>
						</rate>
						<duration>0</duration>
						<start>7248</start>
						<end>7248</end>
						<in>3912</in>
						<out>3912</out>
					</clipitem>
					<clipitem frameBlend="FALSE" id="audioclip-395">
						<file id="file-1"/>
						<name>bandicam 2025-06-02 00-01-10-144 - Audio</name>
						<rate>
							<timebase>60</timebase>
							<ntsc>TRUE</ntsc>
						</rate>
						<rate>
							<timebase>60</timebase>
							<ntsc>TRUE</ntsc>
						</rate>
						<duration>0</duration>
						<start>7248</start>
						<end>7248</end>
						<in>4032</in>
						<out>4032</out>
					</clipitem>
					<clipitem frameBlend="FALSE" id="audioclip-396">
						<file id="file-1"/>
						<name>bandicam 2025-06-02 00-01-10-144 - Audio</name>
						<rate>
							<timebase>60</timebase>
							<ntsc>TRUE</ntsc>
						</rate>
						<rate>
							<timebase>60</timebase>
							<ntsc>TRUE</ntsc>
						</rate>
						<duration>24</duration>
						<start>7248</start>
						<end>7272</end>
						<in>4086</in>
						<out>4110</out>
					</clipitem>
					<clipitem frameBlend="FALSE" id="audioclip-397">
						<file id="file-1"/>
						<name>bandicam 2025-06-02 00-01-10-144 - Audio</name>
						<rate>
							<timebase>60</timebase>
							<ntsc>TRUE</ntsc>
						</rate>
						<rate>
							<timebase>60</timebase>
							<ntsc>TRUE</ntsc>
						</rate>
						<duration>6</duration>
						<start>7272</start>
						<end>7278</end>
						<in>4128</in>
						<out>4134</out>
					</clipitem>
					<clipitem frameBlend="FALSE" id="audioclip-398">
						<file id="file-1"/>
						<name>bandicam 2025-06-02 00-01-10-144 - Audio</name>
						<rate>
							<timebase>60</timebase>
							<ntsc>TRUE</ntsc>
						</rate>
						<rate>
							<timebase>60</timebase>
							<ntsc>TRUE</ntsc>
						</rate>
						<duration>6</duration>
						<start>7278</start>
						<end>7284</end>
						<in>4188</in>
						<out>4194</out>
					</clipitem>
					<clipitem frameBlend="FALSE" id="audioclip-399">
						<file id="file-1"/>
						<name>bandicam 2025-06-02 00-01-10-144 - Audio</name>
						<rate>
							<timebase>60</timebase>
							<ntsc>TRUE</ntsc>
						</rate>
						<rate>
							<timebase>60</timebase>
							<ntsc>TRUE</ntsc>
						</rate>
						<duration>18</duration>
						<start>7284</start>
						<end>7302</end>
						<in>4230</in>
						<out>4248</out>
					</clipitem>
					<clipitem frameBlend="FALSE" id="audioclip-400">
						<file id="file-1"/>
						<name>bandicam 2025-06-02 00-01-10-144 - Audio</name>
						<rate>
							<timebase>60</timebase>
							<ntsc>TRUE</ntsc>
						</rate>
						<rate>
							<timebase>60</timebase>
							<ntsc>TRUE</ntsc>
						</rate>
						<duration>0</duration>
						<start>7302</start>
						<end>7302</end>
						<in>4260</in>
						<out>4260</out>
					</clipitem>
					<clipitem frameBlend="FALSE" id="audioclip-401">
						<file id="file-1"/>
						<name>bandicam 2025-06-02 00-01-10-144 - Audio</name>
						<rate>
							<timebase>60</timebase>
							<ntsc>TRUE</ntsc>
						</rate>
						<rate>
							<timebase>60</timebase>
							<ntsc>TRUE</ntsc>
						</rate>
						<duration>66</duration>
						<start>7302</start>
						<end>7368</end>
						<in>4302</in>
						<out>4368</out>
					</clipitem>
					<clipitem frameBlend="FALSE" id="audioclip-402">
						<file id="file-1"/>
						<name>bandicam 2025-06-02 00-01-10-144 - Audio</name>
						<rate>
							<timebase>60</timebase>
							<ntsc>TRUE</ntsc>
						</rate>
						<rate>
							<timebase>60</timebase>
							<ntsc>TRUE</ntsc>
						</rate>
						<duration>0</duration>
						<start>7368</start>
						<end>7368</end>
						<in>4380</in>
						<out>4380</out>
					</clipitem>
					<clipitem frameBlend="FALSE" id="audioclip-403">
						<file id="file-1"/>
						<name>bandicam 2025-06-02 00-01-10-144 - Audio</name>
						<rate>
							<timebase>60</timebase>
							<ntsc>TRUE</ntsc>
						</rate>
						<rate>
							<timebase>60</timebase>
							<ntsc>TRUE</ntsc>
						</rate>
						<duration>42</duration>
						<start>7368</start>
						<end>7410</end>
						<in>4392</in>
						<out>4434</out>
					</clipitem>
					<clipitem frameBlend="FALSE" id="audioclip-404">
						<file id="file-1"/>
						<name>bandicam 2025-06-02 00-01-10-144 - Audio</name>
						<rate>
							<timebase>60</timebase>
							<ntsc>TRUE</ntsc>
						</rate>
						<rate>
							<timebase>60</timebase>
							<ntsc>TRUE</ntsc>
						</rate>
						<duration>0</duration>
						<start>7410</start>
						<end>7410</end>
						<in>4476</in>
						<out>4476</out>
					</clipitem>
					<clipitem frameBlend="FALSE" id="audioclip-405">
						<file id="file-1"/>
						<name>bandicam 2025-06-02 00-01-10-144 - Audio</name>
						<rate>
							<timebase>60</timebase>
							<ntsc>TRUE</ntsc>
						</rate>
						<rate>
							<timebase>60</timebase>
							<ntsc>TRUE</ntsc>
						</rate>
						<duration>24</duration>
						<start>7410</start>
						<end>7434</end>
						<in>4506</in>
						<out>4530</out>
					</clipitem>
					<clipitem frameBlend="FALSE" id="audioclip-406">
						<file id="file-1"/>
						<name>bandicam 2025-06-02 00-01-10-144 - Audio</name>
						<rate>
							<timebase>60</timebase>
							<ntsc>TRUE</ntsc>
						</rate>
						<rate>
							<timebase>60</timebase>
							<ntsc>TRUE</ntsc>
						</rate>
						<duration>12</duration>
						<start>7434</start>
						<end>7446</end>
						<in>4542</in>
						<out>4554</out>
					</clipitem>
					<clipitem frameBlend="FALSE" id="audioclip-407">
						<file id="file-1"/>
						<name>bandicam 2025-06-02 00-01-10-144 - Audio</name>
						<rate>
							<timebase>60</timebase>
							<ntsc>TRUE</ntsc>
						</rate>
						<rate>
							<timebase>60</timebase>
							<ntsc>TRUE</ntsc>
						</rate>
						<duration>30</duration>
						<start>7446</start>
						<end>7476</end>
						<in>4602</in>
						<out>4632</out>
					</clipitem>
					<clipitem frameBlend="FALSE" id="audioclip-408">
						<file id="file-1"/>
						<name>bandicam 2025-06-02 00-01-10-144 - Audio</name>
						<rate>
							<timebase>60</timebase>
							<ntsc>TRUE</ntsc>
						</rate>
						<rate>
							<timebase>60</timebase>
							<ntsc>TRUE</ntsc>
						</rate>
						<duration>6</duration>
						<start>7476</start>
						<end>7482</end>
						<in>4650</in>
						<out>4656</out>
					</clipitem>
					<clipitem frameBlend="FALSE" id="audioclip-409">
						<file id="file-1"/>
						<name>bandicam 2025-06-02 00-01-10-144 - Audio</name>
						<rate>
							<timebase>60</timebase>
							<ntsc>TRUE</ntsc>
						</rate>
						<rate>
							<timebase>60</timebase>
							<ntsc>TRUE</ntsc>
						</rate>
						<duration>0</duration>
						<start>7482</start>
						<end>7482</end>
						<in>4704</in>
						<out>4704</out>
					</clipitem>
					<clipitem frameBlend="FALSE" id="audioclip-410">
						<file id="file-1"/>
						<name>bandicam 2025-06-02 00-01-10-144 - Audio</name>
						<rate>
							<timebase>60</timebase>
							<ntsc>TRUE</ntsc>
						</rate>
						<rate>
							<timebase>60</timebase>
							<ntsc>TRUE</ntsc>
						</rate>
						<duration>48</duration>
						<start>7482</start>
						<end>7530</end>
						<in>4722</in>
						<out>4770</out>
					</clipitem>
					<clipitem frameBlend="FALSE" id="audioclip-411">
						<file id="file-1"/>
						<name>bandicam 2025-06-02 00-01-10-144 - Audio</name>
						<rate>
							<timebase>60</timebase>
							<ntsc>TRUE</ntsc>
						</rate>
						<rate>
							<timebase>60</timebase>
							<ntsc>TRUE</ntsc>
						</rate>
						<duration>6</duration>
						<start>7530</start>
						<end>7536</end>
						<in>4788</in>
						<out>4794</out>
					</clipitem>
					<clipitem frameBlend="FALSE" id="audioclip-412">
						<file id="file-1"/>
						<name>bandicam 2025-06-02 00-01-10-144 - Audio</name>
						<rate>
							<timebase>60</timebase>
							<ntsc>TRUE</ntsc>
						</rate>
						<rate>
							<timebase>60</timebase>
							<ntsc>TRUE</ntsc>
						</rate>
						<duration>6</duration>
						<start>7536</start>
						<end>7542</end>
						<in>4860</in>
						<out>4866</out>
					</clipitem>
					<clipitem frameBlend="FALSE" id="audioclip-413">
						<file id="file-1"/>
						<name>bandicam 2025-06-02 00-01-10-144 - Audio</name>
						<rate>
							<timebase>60</timebase>
							<ntsc>TRUE</ntsc>
						</rate>
						<rate>
							<timebase>60</timebase>
							<ntsc>TRUE</ntsc>
						</rate>
						<duration>0</duration>
						<start>7542</start>
						<end>7542</end>
						<in>4914</in>
						<out>4914</out>
					</clipitem>
					<clipitem frameBlend="FALSE" id="audioclip-414">
						<file id="file-1"/>
						<name>bandicam 2025-06-02 00-01-10-144 - Audio</name>
						<rate>
							<timebase>60</timebase>
							<ntsc>TRUE</ntsc>
						</rate>
						<rate>
							<timebase>60</timebase>
							<ntsc>TRUE</ntsc>
						</rate>
						<duration>0</duration>
						<start>7542</start>
						<end>7542</end>
						<in>4950</in>
						<out>4950</out>
					</clipitem>
					<clipitem frameBlend="FALSE" id="audioclip-415">
						<file id="file-1"/>
						<name>bandicam 2025-06-02 00-01-10-144 - Audio</name>
						<rate>
							<timebase>60</timebase>
							<ntsc>TRUE</ntsc>
						</rate>
						<rate>
							<timebase>60</timebase>
							<ntsc>TRUE</ntsc>
						</rate>
						<duration>6</duration>
						<start>7542</start>
						<end>7548</end>
						<in>4968</in>
						<out>4974</out>
					</clipitem>
					<clipitem frameBlend="FALSE" id="audioclip-416">
						<file id="file-1"/>
						<name>bandicam 2025-06-02 00-01-10-144 - Audio</name>
						<rate>
							<timebase>60</timebase>
							<ntsc>TRUE</ntsc>
						</rate>
						<rate>
							<timebase>60</timebase>
							<ntsc>TRUE</ntsc>
						</rate>
						<duration>0</duration>
						<start>7548</start>
						<end>7548</end>
						<in>5028</in>
						<out>5028</out>
					</clipitem>
					<clipitem frameBlend="FALSE" id="audioclip-417">
						<file id="file-1"/>
						<name>bandicam 2025-06-02 00-01-10-144 - Audio</name>
						<rate>
							<timebase>60</timebase>
							<ntsc>TRUE</ntsc>
						</rate>
						<rate>
							<timebase>60</timebase>
							<ntsc>TRUE</ntsc>
						</rate>
						<duration>0</duration>
						<start>7548</start>
						<end>7548</end>
						<in>5070</in>
						<out>5070</out>
					</clipitem>
					<clipitem frameBlend="FALSE" id="audioclip-418">
						<file id="file-1"/>
						<name>bandicam 2025-06-02 00-01-10-144 - Audio</name>
						<rate>
							<timebase>60</timebase>
							<ntsc>TRUE</ntsc>
						</rate>
						<rate>
							<timebase>60</timebase>
							<ntsc>TRUE</ntsc>
						</rate>
						<duration>0</duration>
						<start>7548</start>
						<end>7548</end>
						<in>5100</in>
						<out>5100</out>
					</clipitem>
					<clipitem frameBlend="FALSE" id="audioclip-419">
						<file id="file-1"/>
						<name>bandicam 2025-06-02 00-01-10-144 - Audio</name>
						<rate>
							<timebase>60</timebase>
							<ntsc>TRUE</ntsc>
						</rate>
						<rate>
							<timebase>60</timebase>
							<ntsc>TRUE</ntsc>
						</rate>
						<duration>6</duration>
						<start>7548</start>
						<end>7554</end>
						<in>5112</in>
						<out>5118</out>
					</clipitem>
					<clipitem frameBlend="FALSE" id="audioclip-420">
						<file id="file-1"/>
						<name>bandicam 2025-06-02 00-01-10-144 - Audio</name>
						<rate>
							<timebase>60</timebase>
							<ntsc>TRUE</ntsc>
						</rate>
						<rate>
							<timebase>60</timebase>
							<ntsc>TRUE</ntsc>
						</rate>
						<duration>0</duration>
						<start>7554</start>
						<end>7554</end>
						<in>5130</in>
						<out>5130</out>
					</clipitem>
					<clipitem frameBlend="FALSE" id="audioclip-421">
						<file id="file-1"/>
						<name>bandicam 2025-06-02 00-01-10-144 - Audio</name>
						<rate>
							<timebase>60</timebase>
							<ntsc>TRUE</ntsc>
						</rate>
						<rate>
							<timebase>60</timebase>
							<ntsc>TRUE</ntsc>
						</rate>
						<duration>36</duration>
						<start>7554</start>
						<end>7590</end>
						<in>5142</in>
						<out>5178</out>
					</clipitem>
					<clipitem frameBlend="FALSE" id="audioclip-422">
						<file id="file-1"/>
						<name>bandicam 2025-06-02 00-01-10-144 - Audio</name>
						<rate>
							<timebase>60</timebase>
							<ntsc>TRUE</ntsc>
						</rate>
						<rate>
							<timebase>60</timebase>
							<ntsc>TRUE</ntsc>
						</rate>
						<duration>6</duration>
						<start>7590</start>
						<end>7596</end>
						<in>5232</in>
						<out>5238</out>
					</clipitem>
					<clipitem frameBlend="FALSE" id="audioclip-423">
						<file id="file-1"/>
						<name>bandicam 2025-06-02 00-01-10-144 - Audio</name>
						<rate>
							<timebase>60</timebase>
							<ntsc>TRUE</ntsc>
						</rate>
						<rate>
							<timebase>60</timebase>
							<ntsc>TRUE</ntsc>
						</rate>
						<duration>12</duration>
						<start>7596</start>
						<end>7608</end>
						<in>5328</in>
						<out>5340</out>
					</clipitem>
					<clipitem frameBlend="FALSE" id="audioclip-424">
						<file id="file-1"/>
						<name>bandicam 2025-06-02 00-01-10-144 - Audio</name>
						<rate>
							<timebase>60</timebase>
							<ntsc>TRUE</ntsc>
						</rate>
						<rate>
							<timebase>60</timebase>
							<ntsc>TRUE</ntsc>
						</rate>
						<duration>0</duration>
						<start>7608</start>
						<end>7608</end>
						<in>5388</in>
						<out>5388</out>
					</clipitem>
					<clipitem frameBlend="FALSE" id="audioclip-425">
						<file id="file-1"/>
						<name>bandicam 2025-06-02 00-01-10-144 - Audio</name>
						<rate>
							<timebase>60</timebase>
							<ntsc>TRUE</ntsc>
						</rate>
						<rate>
							<timebase>60</timebase>
							<ntsc>TRUE</ntsc>
						</rate>
						<duration>12</duration>
						<start>7608</start>
						<end>7620</end>
						<in>5412</in>
						<out>5424</out>
					</clipitem>
					<clipitem frameBlend="FALSE" id="audioclip-426">
						<file id="file-1"/>
						<name>bandicam 2025-06-02 00-01-10-144 - Audio</name>
						<rate>
							<timebase>60</timebase>
							<ntsc>TRUE</ntsc>
						</rate>
						<rate>
							<timebase>60</timebase>
							<ntsc>TRUE</ntsc>
						</rate>
						<duration>0</duration>
						<start>7620</start>
						<end>7620</end>
						<in>5436</in>
						<out>5436</out>
					</clipitem>
					<clipitem frameBlend="FALSE" id="audioclip-427">
						<file id="file-1"/>
						<name>bandicam 2025-06-02 00-01-10-144 - Audio</name>
						<rate>
							<timebase>60</timebase>
							<ntsc>TRUE</ntsc>
						</rate>
						<rate>
							<timebase>60</timebase>
							<ntsc>TRUE</ntsc>
						</rate>
						<duration>0</duration>
						<start>7620</start>
						<end>7620</end>
						<in>5448</in>
						<out>5448</out>
					</clipitem>
					<clipitem frameBlend="FALSE" id="audioclip-428">
						<file id="file-1"/>
						<name>bandicam 2025-06-02 00-01-10-144 - Audio</name>
						<rate>
							<timebase>60</timebase>
							<ntsc>TRUE</ntsc>
						</rate>
						<rate>
							<timebase>60</timebase>
							<ntsc>TRUE</ntsc>
						</rate>
						<duration>6</duration>
						<start>7620</start>
						<end>7626</end>
						<in>5490</in>
						<out>5496</out>
					</clipitem>
					<clipitem frameBlend="FALSE" id="audioclip-429">
						<file id="file-1"/>
						<name>bandicam 2025-06-02 00-01-10-144 - Audio</name>
						<rate>
							<timebase>60</timebase>
							<ntsc>TRUE</ntsc>
						</rate>
						<rate>
							<timebase>60</timebase>
							<ntsc>TRUE</ntsc>
						</rate>
						<duration>0</duration>
						<start>7626</start>
						<end>7626</end>
						<in>5532</in>
						<out>5532</out>
					</clipitem>
					<clipitem frameBlend="FALSE" id="audioclip-430">
						<file id="file-1"/>
						<name>bandicam 2025-06-02 00-01-10-144 - Audio</name>
						<rate>
							<timebase>60</timebase>
							<ntsc>TRUE</ntsc>
						</rate>
						<rate>
							<timebase>60</timebase>
							<ntsc>TRUE</ntsc>
						</rate>
						<duration>0</duration>
						<start>7626</start>
						<end>7626</end>
						<in>5592</in>
						<out>5592</out>
					</clipitem>
					<clipitem frameBlend="FALSE" id="audioclip-431">
						<file id="file-1"/>
						<name>bandicam 2025-06-02 00-01-10-144 - Audio</name>
						<rate>
							<timebase>60</timebase>
							<ntsc>TRUE</ntsc>
						</rate>
						<rate>
							<timebase>60</timebase>
							<ntsc>TRUE</ntsc>
						</rate>
						<duration>0</duration>
						<start>7626</start>
						<end>7626</end>
						<in>5628</in>
						<out>5628</out>
					</clipitem>
					<clipitem frameBlend="FALSE" id="audioclip-432">
						<file id="file-1"/>
						<name>bandicam 2025-06-02 00-01-10-144 - Audio</name>
						<rate>
							<timebase>60</timebase>
							<ntsc>TRUE</ntsc>
						</rate>
						<rate>
							<timebase>60</timebase>
							<ntsc>TRUE</ntsc>
						</rate>
						<duration>24</duration>
						<start>7626</start>
						<end>7650</end>
						<in>5664</in>
						<out>5688</out>
					</clipitem>
					<clipitem frameBlend="FALSE" id="audioclip-433">
						<file id="file-1"/>
						<name>bandicam 2025-06-02 00-01-10-144 - Audio</name>
						<rate>
							<timebase>60</timebase>
							<ntsc>TRUE</ntsc>
						</rate>
						<rate>
							<timebase>60</timebase>
							<ntsc>TRUE</ntsc>
						</rate>
						<duration>18</duration>
						<start>7650</start>
						<end>7668</end>
						<in>5760</in>
						<out>5778</out>
					</clipitem>
					<clipitem frameBlend="FALSE" id="audioclip-434">
						<file id="file-1"/>
						<name>bandicam 2025-06-02 00-01-10-144 - Audio</name>
						<rate>
							<timebase>60</timebase>
							<ntsc>TRUE</ntsc>
						</rate>
						<rate>
							<timebase>60</timebase>
							<ntsc>TRUE</ntsc>
						</rate>
						<duration>84</duration>
						<start>7668</start>
						<end>7752</end>
						<in>5802</in>
						<out>5886</out>
					</clipitem>
					<clipitem frameBlend="FALSE" id="audioclip-435">
						<file id="file-1"/>
						<name>bandicam 2025-06-02 00-01-10-144 - Audio</name>
						<rate>
							<timebase>60</timebase>
							<ntsc>TRUE</ntsc>
						</rate>
						<rate>
							<timebase>60</timebase>
							<ntsc>TRUE</ntsc>
						</rate>
						<duration>60</duration>
						<start>7752</start>
						<end>7812</end>
						<in>5910</in>
						<out>5970</out>
					</clipitem>
					<clipitem frameBlend="FALSE" id="audioclip-436">
						<file id="file-1"/>
						<name>bandicam 2025-06-02 00-01-10-144 - Audio</name>
						<rate>
							<timebase>60</timebase>
							<ntsc>TRUE</ntsc>
						</rate>
						<rate>
							<timebase>60</timebase>
							<ntsc>TRUE</ntsc>
						</rate>
						<duration>36</duration>
						<start>7812</start>
						<end>7848</end>
						<in>6000</in>
						<out>6036</out>
					</clipitem>
					<clipitem frameBlend="FALSE" id="audioclip-437">
						<file id="file-1"/>
						<name>bandicam 2025-06-02 00-01-10-144 - Audio</name>
						<rate>
							<timebase>60</timebase>
							<ntsc>TRUE</ntsc>
						</rate>
						<rate>
							<timebase>60</timebase>
							<ntsc>TRUE</ntsc>
						</rate>
						<duration>6</duration>
						<start>7848</start>
						<end>7854</end>
						<in>6054</in>
						<out>6060</out>
					</clipitem>
					<clipitem frameBlend="FALSE" id="audioclip-438">
						<file id="file-1"/>
						<name>bandicam 2025-06-02 00-01-10-144 - Audio</name>
						<rate>
							<timebase>60</timebase>
							<ntsc>TRUE</ntsc>
						</rate>
						<rate>
							<timebase>60</timebase>
							<ntsc>TRUE</ntsc>
						</rate>
						<duration>0</duration>
						<start>7854</start>
						<end>7854</end>
						<in>6132</in>
						<out>6132</out>
					</clipitem>
					<clipitem frameBlend="FALSE" id="audioclip-439">
						<file id="file-1"/>
						<name>bandicam 2025-06-02 00-01-10-144 - Audio</name>
						<rate>
							<timebase>60</timebase>
							<ntsc>TRUE</ntsc>
						</rate>
						<rate>
							<timebase>60</timebase>
							<ntsc>TRUE</ntsc>
						</rate>
						<duration>24</duration>
						<start>7854</start>
						<end>7878</end>
						<in>6156</in>
						<out>6180</out>
					</clipitem>
					<clipitem frameBlend="FALSE" id="audioclip-440">
						<file id="file-1"/>
						<name>bandicam 2025-06-02 00-01-10-144 - Audio</name>
						<rate>
							<timebase>60</timebase>
							<ntsc>TRUE</ntsc>
						</rate>
						<rate>
							<timebase>60</timebase>
							<ntsc>TRUE</ntsc>
						</rate>
						<duration>18</duration>
						<start>7878</start>
						<end>7896</end>
						<in>6234</in>
						<out>6252</out>
					</clipitem>
					<clipitem frameBlend="FALSE" id="audioclip-441">
						<file id="file-1"/>
						<name>bandicam 2025-06-02 00-01-10-144 - Audio</name>
						<rate>
							<timebase>60</timebase>
							<ntsc>TRUE</ntsc>
						</rate>
						<rate>
							<timebase>60</timebase>
							<ntsc>TRUE</ntsc>
						</rate>
						<duration>0</duration>
						<start>7896</start>
						<end>7896</end>
						<in>6282</in>
						<out>6282</out>
					</clipitem>
					<clipitem frameBlend="FALSE" id="audioclip-442">
						<file id="file-1"/>
						<name>bandicam 2025-06-02 00-01-10-144 - Audio</name>
						<rate>
							<timebase>60</timebase>
							<ntsc>TRUE</ntsc>
						</rate>
						<rate>
							<timebase>60</timebase>
							<ntsc>TRUE</ntsc>
						</rate>
						<duration>6</duration>
						<start>7896</start>
						<end>7902</end>
						<in>6312</in>
						<out>6318</out>
					</clipitem>
					<clipitem frameBlend="FALSE" id="audioclip-443">
						<file id="file-1"/>
						<name>bandicam 2025-06-02 00-01-10-144 - Audio</name>
						<rate>
							<timebase>60</timebase>
							<ntsc>TRUE</ntsc>
						</rate>
						<rate>
							<timebase>60</timebase>
							<ntsc>TRUE</ntsc>
						</rate>
						<duration>0</duration>
						<start>7902</start>
						<end>7902</end>
						<in>6438</in>
						<out>6438</out>
					</clipitem>
					<clipitem frameBlend="FALSE" id="audioclip-444">
						<file id="file-1"/>
						<name>bandicam 2025-06-02 00-01-10-144 - Audio</name>
						<rate>
							<timebase>60</timebase>
							<ntsc>TRUE</ntsc>
						</rate>
						<rate>
							<timebase>60</timebase>
							<ntsc>TRUE</ntsc>
						</rate>
						<duration>0</duration>
						<start>7902</start>
						<end>7902</end>
						<in>6486</in>
						<out>6486</out>
					</clipitem>
					<clipitem frameBlend="FALSE" id="audioclip-445">
						<file id="file-1"/>
						<name>bandicam 2025-06-02 00-01-10-144 - Audio</name>
						<rate>
							<timebase>60</timebase>
							<ntsc>TRUE</ntsc>
						</rate>
						<rate>
							<timebase>60</timebase>
							<ntsc>TRUE</ntsc>
						</rate>
						<duration>24</duration>
						<start>7902</start>
						<end>7926</end>
						<in>6498</in>
						<out>6522</out>
					</clipitem>
					<clipitem frameBlend="FALSE" id="audioclip-446">
						<file id="file-1"/>
						<name>bandicam 2025-06-02 00-01-10-144 - Audio</name>
						<rate>
							<timebase>60</timebase>
							<ntsc>TRUE</ntsc>
						</rate>
						<rate>
							<timebase>60</timebase>
							<ntsc>TRUE</ntsc>
						</rate>
						<duration>0</duration>
						<start>7926</start>
						<end>7926</end>
						<in>6534</in>
						<out>6534</out>
					</clipitem>
					<clipitem frameBlend="FALSE" id="audioclip-447">
						<file id="file-1"/>
						<name>bandicam 2025-06-02 00-01-10-144 - Audio</name>
						<rate>
							<timebase>60</timebase>
							<ntsc>TRUE</ntsc>
						</rate>
						<rate>
							<timebase>60</timebase>
							<ntsc>TRUE</ntsc>
						</rate>
						<duration>6</duration>
						<start>7926</start>
						<end>7932</end>
						<in>6612</in>
						<out>6618</out>
					</clipitem>
					<clipitem frameBlend="FALSE" id="audioclip-448">
						<file id="file-1"/>
						<name>bandicam 2025-06-02 00-01-10-144 - Audio</name>
						<rate>
							<timebase>60</timebase>
							<ntsc>TRUE</ntsc>
						</rate>
						<rate>
							<timebase>60</timebase>
							<ntsc>TRUE</ntsc>
						</rate>
						<duration>0</duration>
						<start>7932</start>
						<end>7932</end>
						<in>6816</in>
						<out>6816</out>
					</clipitem>
					<clipitem frameBlend="FALSE" id="audioclip-449">
						<file id="file-1"/>
						<name>bandicam 2025-06-02 00-01-10-144 - Audio</name>
						<rate>
							<timebase>60</timebase>
							<ntsc>TRUE</ntsc>
						</rate>
						<rate>
							<timebase>60</timebase>
							<ntsc>TRUE</ntsc>
						</rate>
						<duration>0</duration>
						<start>7932</start>
						<end>7932</end>
						<in>6834</in>
						<out>6834</out>
					</clipitem>
					<clipitem frameBlend="FALSE" id="audioclip-450">
						<file id="file-1"/>
						<name>bandicam 2025-06-02 00-01-10-144 - Audio</name>
						<rate>
							<timebase>60</timebase>
							<ntsc>TRUE</ntsc>
						</rate>
						<rate>
							<timebase>60</timebase>
							<ntsc>TRUE</ntsc>
						</rate>
						<duration>0</duration>
						<start>7932</start>
						<end>7932</end>
						<in>6894</in>
						<out>6894</out>
					</clipitem>
					<clipitem frameBlend="FALSE" id="audioclip-451">
						<file id="file-1"/>
						<name>bandicam 2025-06-02 00-01-10-144 - Audio</name>
						<rate>
							<timebase>60</timebase>
							<ntsc>TRUE</ntsc>
						</rate>
						<rate>
							<timebase>60</timebase>
							<ntsc>TRUE</ntsc>
						</rate>
						<duration>0</duration>
						<start>7932</start>
						<end>7932</end>
						<in>6918</in>
						<out>6918</out>
					</clipitem>
					<clipitem frameBlend="FALSE" id="audioclip-452">
						<file id="file-1"/>
						<name>bandicam 2025-06-02 00-01-10-144 - Audio</name>
						<rate>
							<timebase>60</timebase>
							<ntsc>TRUE</ntsc>
						</rate>
						<rate>
							<timebase>60</timebase>
							<ntsc>TRUE</ntsc>
						</rate>
						<duration>0</duration>
						<start>7932</start>
						<end>7932</end>
						<in>6954</in>
						<out>6954</out>
					</clipitem>
					<clipitem frameBlend="FALSE" id="audioclip-453">
						<file id="file-1"/>
						<name>bandicam 2025-06-02 00-01-10-144 - Audio</name>
						<rate>
							<timebase>60</timebase>
							<ntsc>TRUE</ntsc>
						</rate>
						<rate>
							<timebase>60</timebase>
							<ntsc>TRUE</ntsc>
						</rate>
						<duration>0</duration>
						<start>7932</start>
						<end>7932</end>
						<in>7032</in>
						<out>7032</out>
					</clipitem>
					<clipitem frameBlend="FALSE" id="audioclip-454">
						<file id="file-1"/>
						<name>bandicam 2025-06-02 00-01-10-144 - Audio</name>
						<rate>
							<timebase>60</timebase>
							<ntsc>TRUE</ntsc>
						</rate>
						<rate>
							<timebase>60</timebase>
							<ntsc>TRUE</ntsc>
						</rate>
						<duration>0</duration>
						<start>7932</start>
						<end>7932</end>
						<in>60</in>
						<out>60</out>
					</clipitem>
					<clipitem frameBlend="FALSE" id="audioclip-455">
						<file id="file-1"/>
						<name>bandicam 2025-06-02 00-01-10-144 - Audio</name>
						<rate>
							<timebase>60</timebase>
							<ntsc>TRUE</ntsc>
						</rate>
						<rate>
							<timebase>60</timebase>
							<ntsc>TRUE</ntsc>
						</rate>
						<duration>12</duration>
						<start>7932</start>
						<end>7944</end>
						<in>114</in>
						<out>126</out>
					</clipitem>
					<clipitem frameBlend="FALSE" id="audioclip-456">
						<file id="file-1"/>
						<name>bandicam 2025-06-02 00-01-10-144 - Audio</name>
						<rate>
							<timebase>60</timebase>
							<ntsc>TRUE</ntsc>
						</rate>
						<rate>
							<timebase>60</timebase>
							<ntsc>TRUE</ntsc>
						</rate>
						<duration>18</duration>
						<start>7944</start>
						<end>7962</end>
						<in>450</in>
						<out>468</out>
					</clipitem>
					<clipitem frameBlend="FALSE" id="audioclip-457">
						<file id="file-1"/>
						<name>bandicam 2025-06-02 00-01-10-144 - Audio</name>
						<rate>
							<timebase>60</timebase>
							<ntsc>TRUE</ntsc>
						</rate>
						<rate>
							<timebase>60</timebase>
							<ntsc>TRUE</ntsc>
						</rate>
						<duration>6</duration>
						<start>7962</start>
						<end>7968</end>
						<in>582</in>
						<out>588</out>
					</clipitem>
					<clipitem frameBlend="FALSE" id="audioclip-458">
						<file id="file-1"/>
						<name>bandicam 2025-06-02 00-01-10-144 - Audio</name>
						<rate>
							<timebase>60</timebase>
							<ntsc>TRUE</ntsc>
						</rate>
						<rate>
							<timebase>60</timebase>
							<ntsc>TRUE</ntsc>
						</rate>
						<duration>6</duration>
						<start>7968</start>
						<end>7974</end>
						<in>1410</in>
						<out>1416</out>
					</clipitem>
					<clipitem frameBlend="FALSE" id="audioclip-459">
						<file id="file-1"/>
						<name>bandicam 2025-06-02 00-01-10-144 - Audio</name>
						<rate>
							<timebase>60</timebase>
							<ntsc>TRUE</ntsc>
						</rate>
						<rate>
							<timebase>60</timebase>
							<ntsc>TRUE</ntsc>
						</rate>
						<duration>0</duration>
						<start>7974</start>
						<end>7974</end>
						<in>1692</in>
						<out>1692</out>
					</clipitem>
					<clipitem frameBlend="FALSE" id="audioclip-460">
						<file id="file-1"/>
						<name>bandicam 2025-06-02 00-01-10-144 - Audio</name>
						<rate>
							<timebase>60</timebase>
							<ntsc>TRUE</ntsc>
						</rate>
						<rate>
							<timebase>60</timebase>
							<ntsc>TRUE</ntsc>
						</rate>
						<duration>6</duration>
						<start>7974</start>
						<end>7980</end>
						<in>1704</in>
						<out>1710</out>
					</clipitem>
					<clipitem frameBlend="FALSE" id="audioclip-461">
						<file id="file-1"/>
						<name>bandicam 2025-06-02 00-01-10-144 - Audio</name>
						<rate>
							<timebase>60</timebase>
							<ntsc>TRUE</ntsc>
						</rate>
						<rate>
							<timebase>60</timebase>
							<ntsc>TRUE</ntsc>
						</rate>
						<duration>12</duration>
						<start>7980</start>
						<end>7992</end>
						<in>1746</in>
						<out>1758</out>
					</clipitem>
					<clipitem frameBlend="FALSE" id="audioclip-462">
						<file id="file-1"/>
						<name>bandicam 2025-06-02 00-01-10-144 - Audio</name>
						<rate>
							<timebase>60</timebase>
							<ntsc>TRUE</ntsc>
						</rate>
						<rate>
							<timebase>60</timebase>
							<ntsc>TRUE</ntsc>
						</rate>
						<duration>0</duration>
						<start>7992</start>
						<end>7992</end>
						<in>1776</in>
						<out>1776</out>
					</clipitem>
					<clipitem frameBlend="FALSE" id="audioclip-463">
						<file id="file-1"/>
						<name>bandicam 2025-06-02 00-01-10-144 - Audio</name>
						<rate>
							<timebase>60</timebase>
							<ntsc>TRUE</ntsc>
						</rate>
						<rate>
							<timebase>60</timebase>
							<ntsc>TRUE</ntsc>
						</rate>
						<duration>0</duration>
						<start>7992</start>
						<end>7992</end>
						<in>1812</in>
						<out>1812</out>
					</clipitem>
					<clipitem frameBlend="FALSE" id="audioclip-464">
						<file id="file-1"/>
						<name>bandicam 2025-06-02 00-01-10-144 - Audio</name>
						<rate>
							<timebase>60</timebase>
							<ntsc>TRUE</ntsc>
						</rate>
						<rate>
							<timebase>60</timebase>
							<ntsc>TRUE</ntsc>
						</rate>
						<duration>6</duration>
						<start>7992</start>
						<end>7998</end>
						<in>1848</in>
						<out>1854</out>
					</clipitem>
					<clipitem frameBlend="FALSE" id="audioclip-465">
						<file id="file-1"/>
						<name>bandicam 2025-06-02 00-01-10-144 - Audio</name>
						<rate>
							<timebase>60</timebase>
							<ntsc>TRUE</ntsc>
						</rate>
						<rate>
							<timebase>60</timebase>
							<ntsc>TRUE</ntsc>
						</rate>
						<duration>6</duration>
						<start>7998</start>
						<end>8004</end>
						<in>1884</in>
						<out>1890</out>
					</clipitem>
					<clipitem frameBlend="FALSE" id="audioclip-466">
						<file id="file-1"/>
						<name>bandicam 2025-06-02 00-01-10-144 - Audio</name>
						<rate>
							<timebase>60</timebase>
							<ntsc>TRUE</ntsc>
						</rate>
						<rate>
							<timebase>60</timebase>
							<ntsc>TRUE</ntsc>
						</rate>
						<duration>0</duration>
						<start>8004</start>
						<end>8004</end>
						<in>2292</in>
						<out>2292</out>
					</clipitem>
					<clipitem frameBlend="FALSE" id="audioclip-467">
						<file id="file-1"/>
						<name>bandicam 2025-06-02 00-01-10-144 - Audio</name>
						<rate>
							<timebase>60</timebase>
							<ntsc>TRUE</ntsc>
						</rate>
						<rate>
							<timebase>60</timebase>
							<ntsc>TRUE</ntsc>
						</rate>
						<duration>12</duration>
						<start>8004</start>
						<end>8016</end>
						<in>2310</in>
						<out>2322</out>
					</clipitem>
					<clipitem frameBlend="FALSE" id="audioclip-468">
						<file id="file-1"/>
						<name>bandicam 2025-06-02 00-01-10-144 - Audio</name>
						<rate>
							<timebase>60</timebase>
							<ntsc>TRUE</ntsc>
						</rate>
						<rate>
							<timebase>60</timebase>
							<ntsc>TRUE</ntsc>
						</rate>
						<duration>6</duration>
						<start>8016</start>
						<end>8022</end>
						<in>2448</in>
						<out>2454</out>
					</clipitem>
					<clipitem frameBlend="FALSE" id="audioclip-469">
						<file id="file-1"/>
						<name>bandicam 2025-06-02 00-01-10-144 - Audio</name>
						<rate>
							<timebase>60</timebase>
							<ntsc>TRUE</ntsc>
						</rate>
						<rate>
							<timebase>60</timebase>
							<ntsc>TRUE</ntsc>
						</rate>
						<duration>12</duration>
						<start>8022</start>
						<end>8034</end>
						<in>2742</in>
						<out>2754</out>
					</clipitem>
					<clipitem frameBlend="FALSE" id="audioclip-470">
						<file id="file-1"/>
						<name>bandicam 2025-06-02 00-01-10-144 - Audio</name>
						<rate>
							<timebase>60</timebase>
							<ntsc>TRUE</ntsc>
						</rate>
						<rate>
							<timebase>60</timebase>
							<ntsc>TRUE</ntsc>
						</rate>
						<duration>6</duration>
						<start>8034</start>
						<end>8040</end>
						<in>2766</in>
						<out>2772</out>
					</clipitem>
					<clipitem frameBlend="FALSE" id="audioclip-471">
						<file id="file-1"/>
						<name>bandicam 2025-06-02 00-01-10-144 - Audio</name>
						<rate>
							<timebase>60</timebase>
							<ntsc>TRUE</ntsc>
						</rate>
						<rate>
							<timebase>60</timebase>
							<ntsc>TRUE</ntsc>
						</rate>
						<duration>18</duration>
						<start>8040</start>
						<end>8058</end>
						<in>2802</in>
						<out>2820</out>
					</clipitem>
					<clipitem frameBlend="FALSE" id="audioclip-472">
						<file id="file-1"/>
						<name>bandicam 2025-06-02 00-01-10-144 - Audio</name>
						<rate>
							<timebase>60</timebase>
							<ntsc>TRUE</ntsc>
						</rate>
						<rate>
							<timebase>60</timebase>
							<ntsc>TRUE</ntsc>
						</rate>
						<duration>42</duration>
						<start>8058</start>
						<end>8100</end>
						<in>3060</in>
						<out>3102</out>
					</clipitem>
					<clipitem frameBlend="FALSE" id="audioclip-473">
						<file id="file-1"/>
						<name>bandicam 2025-06-02 00-01-10-144 - Audio</name>
						<rate>
							<timebase>60</timebase>
							<ntsc>TRUE</ntsc>
						</rate>
						<rate>
							<timebase>60</timebase>
							<ntsc>TRUE</ntsc>
						</rate>
						<duration>24</duration>
						<start>8100</start>
						<end>8124</end>
						<in>3270</in>
						<out>3294</out>
					</clipitem>
					<clipitem frameBlend="FALSE" id="audioclip-474">
						<file id="file-1"/>
						<name>bandicam 2025-06-02 00-01-10-144 - Audio</name>
						<rate>
							<timebase>60</timebase>
							<ntsc>TRUE</ntsc>
						</rate>
						<rate>
							<timebase>60</timebase>
							<ntsc>TRUE</ntsc>
						</rate>
						<duration>18</duration>
						<start>8124</start>
						<end>8142</end>
						<in>3456</in>
						<out>3474</out>
					</clipitem>
					<clipitem frameBlend="FALSE" id="audioclip-475">
						<file id="file-1"/>
						<name>bandicam 2025-06-02 00-01-10-144 - Audio</name>
						<rate>
							<timebase>60</timebase>
							<ntsc>TRUE</ntsc>
						</rate>
						<rate>
							<timebase>60</timebase>
							<ntsc>TRUE</ntsc>
						</rate>
						<duration>18</duration>
						<start>8142</start>
						<end>8160</end>
						<in>3624</in>
						<out>3642</out>
					</clipitem>
					<clipitem frameBlend="FALSE" id="audioclip-476">
						<file id="file-1"/>
						<name>bandicam 2025-06-02 00-01-10-144 - Audio</name>
						<rate>
							<timebase>60</timebase>
							<ntsc>TRUE</ntsc>
						</rate>
						<rate>
							<timebase>60</timebase>
							<ntsc>TRUE</ntsc>
						</rate>
						<duration>6</duration>
						<start>8160</start>
						<end>8166</end>
						<in>4086</in>
						<out>4092</out>
					</clipitem>
					<clipitem frameBlend="FALSE" id="audioclip-477">
						<file id="file-1"/>
						<name>bandicam 2025-06-02 00-01-10-144 - Audio</name>
						<rate>
							<timebase>60</timebase>
							<ntsc>TRUE</ntsc>
						</rate>
						<rate>
							<timebase>60</timebase>
							<ntsc>TRUE</ntsc>
						</rate>
						<duration>6</duration>
						<start>8166</start>
						<end>8172</end>
						<in>4104</in>
						<out>4110</out>
					</clipitem>
					<clipitem frameBlend="FALSE" id="audioclip-478">
						<file id="file-1"/>
						<name>bandicam 2025-06-02 00-01-10-144 - Audio</name>
						<rate>
							<timebase>60</timebase>
							<ntsc>TRUE</ntsc>
						</rate>
						<rate>
							<timebase>60</timebase>
							<ntsc>TRUE</ntsc>
						</rate>
						<duration>0</duration>
						<start>8172</start>
						<end>8172</end>
						<in>4134</in>
						<out>4134</out>
					</clipitem>
					<clipitem frameBlend="FALSE" id="audioclip-479">
						<file id="file-1"/>
						<name>bandicam 2025-06-02 00-01-10-144 - Audio</name>
						<rate>
							<timebase>60</timebase>
							<ntsc>TRUE</ntsc>
						</rate>
						<rate>
							<timebase>60</timebase>
							<ntsc>TRUE</ntsc>
						</rate>
						<duration>6</duration>
						<start>8172</start>
						<end>8178</end>
						<in>4188</in>
						<out>4194</out>
					</clipitem>
					<clipitem frameBlend="FALSE" id="audioclip-480">
						<file id="file-1"/>
						<name>bandicam 2025-06-02 00-01-10-144 - Audio</name>
						<rate>
							<timebase>60</timebase>
							<ntsc>TRUE</ntsc>
						</rate>
						<rate>
							<timebase>60</timebase>
							<ntsc>TRUE</ntsc>
						</rate>
						<duration>0</duration>
						<start>8178</start>
						<end>8178</end>
						<in>4230</in>
						<out>4230</out>
					</clipitem>
					<clipitem frameBlend="FALSE" id="audioclip-481">
						<file id="file-1"/>
						<name>bandicam 2025-06-02 00-01-10-144 - Audio</name>
						<rate>
							<timebase>60</timebase>
							<ntsc>TRUE</ntsc>
						</rate>
						<rate>
							<timebase>60</timebase>
							<ntsc>TRUE</ntsc>
						</rate>
						<duration>6</duration>
						<start>8178</start>
						<end>8184</end>
						<in>4242</in>
						<out>4248</out>
					</clipitem>
					<clipitem frameBlend="FALSE" id="audioclip-482">
						<file id="file-1"/>
						<name>bandicam 2025-06-02 00-01-10-144 - Audio</name>
						<rate>
							<timebase>60</timebase>
							<ntsc>TRUE</ntsc>
						</rate>
						<rate>
							<timebase>60</timebase>
							<ntsc>TRUE</ntsc>
						</rate>
						<duration>66</duration>
						<start>8184</start>
						<end>8250</end>
						<in>4302</in>
						<out>4368</out>
					</clipitem>
					<clipitem frameBlend="FALSE" id="audioclip-483">
						<file id="file-1"/>
						<name>bandicam 2025-06-02 00-01-10-144 - Audio</name>
						<rate>
							<timebase>60</timebase>
							<ntsc>TRUE</ntsc>
						</rate>
						<rate>
							<timebase>60</timebase>
							<ntsc>TRUE</ntsc>
						</rate>
						<duration>42</duration>
						<start>8250</start>
						<end>8292</end>
						<in>4392</in>
						<out>4434</out>
					</clipitem>
					<clipitem frameBlend="FALSE" id="audioclip-484">
						<file id="file-1"/>
						<name>bandicam 2025-06-02 00-01-10-144 - Audio</name>
						<rate>
							<timebase>60</timebase>
							<ntsc>TRUE</ntsc>
						</rate>
						<rate>
							<timebase>60</timebase>
							<ntsc>TRUE</ntsc>
						</rate>
						<duration>18</duration>
						<start>8292</start>
						<end>8310</end>
						<in>4506</in>
						<out>4524</out>
					</clipitem>
					<clipitem frameBlend="FALSE" id="audioclip-485">
						<file id="file-1"/>
						<name>bandicam 2025-06-02 00-01-10-144 - Audio</name>
						<rate>
							<timebase>60</timebase>
							<ntsc>TRUE</ntsc>
						</rate>
						<rate>
							<timebase>60</timebase>
							<ntsc>TRUE</ntsc>
						</rate>
						<duration>12</duration>
						<start>8310</start>
						<end>8322</end>
						<in>4542</in>
						<out>4554</out>
					</clipitem>
					<clipitem frameBlend="FALSE" id="audioclip-486">
						<file id="file-1"/>
						<name>bandicam 2025-06-02 00-01-10-144 - Audio</name>
						<rate>
							<timebase>60</timebase>
							<ntsc>TRUE</ntsc>
						</rate>
						<rate>
							<timebase>60</timebase>
							<ntsc>TRUE</ntsc>
						</rate>
						<duration>24</duration>
						<start>8322</start>
						<end>8346</end>
						<in>4602</in>
						<out>4626</out>
					</clipitem>
					<clipitem frameBlend="FALSE" id="audioclip-487">
						<file id="file-1"/>
						<name>bandicam 2025-06-02 00-01-10-144 - Audio</name>
						<rate>
							<timebase>60</timebase>
							<ntsc>TRUE</ntsc>
						</rate>
						<rate>
							<timebase>60</timebase>
							<ntsc>TRUE</ntsc>
						</rate>
						<duration>0</duration>
						<start>8346</start>
						<end>8346</end>
						<in>4704</in>
						<out>4704</out>
					</clipitem>
					<clipitem frameBlend="FALSE" id="audioclip-488">
						<file id="file-1"/>
						<name>bandicam 2025-06-02 00-01-10-144 - Audio</name>
						<rate>
							<timebase>60</timebase>
							<ntsc>TRUE</ntsc>
						</rate>
						<rate>
							<timebase>60</timebase>
							<ntsc>TRUE</ntsc>
						</rate>
						<duration>48</duration>
						<start>8346</start>
						<end>8394</end>
						<in>4722</in>
						<out>4770</out>
					</clipitem>
					<clipitem frameBlend="FALSE" id="audioclip-489">
						<file id="file-1"/>
						<name>bandicam 2025-06-02 00-01-10-144 - Audio</name>
						<rate>
							<timebase>60</timebase>
							<ntsc>TRUE</ntsc>
						</rate>
						<rate>
							<timebase>60</timebase>
							<ntsc>TRUE</ntsc>
						</rate>
						<duration>6</duration>
						<start>8394</start>
						<end>8400</end>
						<in>4860</in>
						<out>4866</out>
					</clipitem>
					<clipitem frameBlend="FALSE" id="audioclip-490">
						<file id="file-1"/>
						<name>bandicam 2025-06-02 00-01-10-144 - Audio</name>
						<rate>
							<timebase>60</timebase>
							<ntsc>TRUE</ntsc>
						</rate>
						<rate>
							<timebase>60</timebase>
							<ntsc>TRUE</ntsc>
						</rate>
						<duration>6</duration>
						<start>8400</start>
						<end>8406</end>
						<in>4968</in>
						<out>4974</out>
					</clipitem>
					<clipitem frameBlend="FALSE" id="audioclip-491">
						<file id="file-1"/>
						<name>bandicam 2025-06-02 00-01-10-144 - Audio</name>
						<rate>
							<timebase>60</timebase>
							<ntsc>TRUE</ntsc>
						</rate>
						<rate>
							<timebase>60</timebase>
							<ntsc>TRUE</ntsc>
						</rate>
						<duration>6</duration>
						<start>8406</start>
						<end>8412</end>
						<in>5112</in>
						<out>5118</out>
					</clipitem>
					<clipitem frameBlend="FALSE" id="audioclip-492">
						<file id="file-1"/>
						<name>bandicam 2025-06-02 00-01-10-144 - Audio</name>
						<rate>
							<timebase>60</timebase>
							<ntsc>TRUE</ntsc>
						</rate>
						<rate>
							<timebase>60</timebase>
							<ntsc>TRUE</ntsc>
						</rate>
						<duration>6</duration>
						<start>8412</start>
						<end>8418</end>
						<in>5142</in>
						<out>5148</out>
					</clipitem>
					<clipitem frameBlend="FALSE" id="audioclip-493">
						<file id="file-1"/>
						<name>bandicam 2025-06-02 00-01-10-144 - Audio</name>
						<rate>
							<timebase>60</timebase>
							<ntsc>TRUE</ntsc>
						</rate>
						<rate>
							<timebase>60</timebase>
							<ntsc>TRUE</ntsc>
						</rate>
						<duration>18</duration>
						<start>8418</start>
						<end>8436</end>
						<in>5160</in>
						<out>5178</out>
					</clipitem>
					<clipitem frameBlend="FALSE" id="audioclip-494">
						<file id="file-1"/>
						<name>bandicam 2025-06-02 00-01-10-144 - Audio</name>
						<rate>
							<timebase>60</timebase>
							<ntsc>TRUE</ntsc>
						</rate>
						<rate>
							<timebase>60</timebase>
							<ntsc>TRUE</ntsc>
						</rate>
						<duration>12</duration>
						<start>8436</start>
						<end>8448</end>
						<in>5328</in>
						<out>5340</out>
					</clipitem>
					<clipitem frameBlend="FALSE" id="audioclip-495">
						<file id="file-1"/>
						<name>bandicam 2025-06-02 00-01-10-144 - Audio</name>
						<rate>
							<timebase>60</timebase>
							<ntsc>TRUE</ntsc>
						</rate>
						<rate>
							<timebase>60</timebase>
							<ntsc>TRUE</ntsc>
						</rate>
						<duration>12</duration>
						<start>8448</start>
						<end>8460</end>
						<in>5412</in>
						<out>5424</out>
					</clipitem>
					<clipitem frameBlend="FALSE" id="audioclip-496">
						<file id="file-1"/>
						<name>bandicam 2025-06-02 00-01-10-144 - Audio</name>
						<rate>
							<timebase>60</timebase>
							<ntsc>TRUE</ntsc>
						</rate>
						<rate>
							<timebase>60</timebase>
							<ntsc>TRUE</ntsc>
						</rate>
						<duration>0</duration>
						<start>8460</start>
						<end>8460</end>
						<in>5448</in>
						<out>5448</out>
					</clipitem>
					<clipitem frameBlend="FALSE" id="audioclip-497">
						<file id="file-1"/>
						<name>bandicam 2025-06-02 00-01-10-144 - Audio</name>
						<rate>
							<timebase>60</timebase>
							<ntsc>TRUE</ntsc>
						</rate>
						<rate>
							<timebase>60</timebase>
							<ntsc>TRUE</ntsc>
						</rate>
						<duration>0</duration>
						<start>8460</start>
						<end>8460</end>
						<in>5592</in>
						<out>5592</out>
					</clipitem>
					<clipitem frameBlend="FALSE" id="audioclip-498">
						<file id="file-1"/>
						<name>bandicam 2025-06-02 00-01-10-144 - Audio</name>
						<rate>
							<timebase>60</timebase>
							<ntsc>TRUE</ntsc>
						</rate>
						<rate>
							<timebase>60</timebase>
							<ntsc>TRUE</ntsc>
						</rate>
						<duration>0</duration>
						<start>8460</start>
						<end>8460</end>
						<in>5628</in>
						<out>5628</out>
					</clipitem>
					<clipitem frameBlend="FALSE" id="audioclip-499">
						<file id="file-1"/>
						<name>bandicam 2025-06-02 00-01-10-144 - Audio</name>
						<rate>
							<timebase>60</timebase>
							<ntsc>TRUE</ntsc>
						</rate>
						<rate>
							<timebase>60</timebase>
							<ntsc>TRUE</ntsc>
						</rate>
						<duration>18</duration>
						<start>8460</start>
						<end>8478</end>
						<in>5670</in>
						<out>5688</out>
					</clipitem>
					<clipitem frameBlend="FALSE" id="audioclip-500">
						<file id="file-1"/>
						<name>bandicam 2025-06-02 00-01-10-144 - Audio</name>
						<rate>
							<timebase>60</timebase>
							<ntsc>TRUE</ntsc>
						</rate>
						<rate>
							<timebase>60</timebase>
							<ntsc>TRUE</ntsc>
						</rate>
						<duration>18</duration>
						<start>8478</start>
						<end>8496</end>
						<in>5760</in>
						<out>5778</out>
					</clipitem>
					<clipitem frameBlend="FALSE" id="audioclip-501">
						<file id="file-1"/>
						<name>bandicam 2025-06-02 00-01-10-144 - Audio</name>
						<rate>
							<timebase>60</timebase>
							<ntsc>TRUE</ntsc>
						</rate>
						<rate>
							<timebase>60</timebase>
							<ntsc>TRUE</ntsc>
						</rate>
						<duration>72</duration>
						<start>8496</start>
						<end>8568</end>
						<in>5802</in>
						<out>5874</out>
					</clipitem>
					<clipitem frameBlend="FALSE" id="audioclip-502">
						<file id="file-1"/>
						<name>bandicam 2025-06-02 00-01-10-144 - Audio</name>
						<rate>
							<timebase>60</timebase>
							<ntsc>TRUE</ntsc>
						</rate>
						<rate>
							<timebase>60</timebase>
							<ntsc>TRUE</ntsc>
						</rate>
						<duration>48</duration>
						<start>8568</start>
						<end>8616</end>
						<in>5910</in>
						<out>5958</out>
					</clipitem>
					<clipitem frameBlend="FALSE" id="audioclip-503">
						<file id="file-1"/>
						<name>bandicam 2025-06-02 00-01-10-144 - Audio</name>
						<rate>
							<timebase>60</timebase>
							<ntsc>TRUE</ntsc>
						</rate>
						<rate>
							<timebase>60</timebase>
							<ntsc>TRUE</ntsc>
						</rate>
						<duration>0</duration>
						<start>8616</start>
						<end>8616</end>
						<in>6000</in>
						<out>6000</out>
					</clipitem>
					<clipitem frameBlend="FALSE" id="audioclip-504">
						<file id="file-1"/>
						<name>bandicam 2025-06-02 00-01-10-144 - Audio</name>
						<rate>
							<timebase>60</timebase>
							<ntsc>TRUE</ntsc>
						</rate>
						<rate>
							<timebase>60</timebase>
							<ntsc>TRUE</ntsc>
						</rate>
						<duration>24</duration>
						<start>8616</start>
						<end>8640</end>
						<in>6012</in>
						<out>6036</out>
					</clipitem>
					<clipitem frameBlend="FALSE" id="audioclip-505">
						<file id="file-1"/>
						<name>bandicam 2025-06-02 00-01-10-144 - Audio</name>
						<rate>
							<timebase>60</timebase>
							<ntsc>TRUE</ntsc>
						</rate>
						<rate>
							<timebase>60</timebase>
							<ntsc>TRUE</ntsc>
						</rate>
						<duration>24</duration>
						<start>8640</start>
						<end>8664</end>
						<in>6156</in>
						<out>6180</out>
					</clipitem>
					<clipitem frameBlend="FALSE" id="audioclip-506">
						<file id="file-1"/>
						<name>bandicam 2025-06-02 00-01-10-144 - Audio</name>
						<rate>
							<timebase>60</timebase>
							<ntsc>TRUE</ntsc>
						</rate>
						<rate>
							<timebase>60</timebase>
							<ntsc>TRUE</ntsc>
						</rate>
						<duration>6</duration>
						<start>8664</start>
						<end>8670</end>
						<in>6234</in>
						<out>6240</out>
					</clipitem>
					<clipitem frameBlend="FALSE" id="audioclip-507">
						<file id="file-1"/>
						<name>bandicam 2025-06-02 00-01-10-144 - Audio</name>
						<rate>
							<timebase>60</timebase>
							<ntsc>TRUE</ntsc>
						</rate>
						<rate>
							<timebase>60</timebase>
							<ntsc>TRUE</ntsc>
						</rate>
						<duration>0</duration>
						<start>8670</start>
						<end>8670</end>
						<in>6252</in>
						<out>6252</out>
					</clipitem>
					<clipitem frameBlend="FALSE" id="audioclip-508">
						<file id="file-1"/>
						<name>bandicam 2025-06-02 00-01-10-144 - Audio</name>
						<rate>
							<timebase>60</timebase>
							<ntsc>TRUE</ntsc>
						</rate>
						<rate>
							<timebase>60</timebase>
							<ntsc>TRUE</ntsc>
						</rate>
						<duration>24</duration>
						<start>8670</start>
						<end>8694</end>
						<in>6498</in>
						<out>6522</out>
					</clipitem>
					<clipitem frameBlend="FALSE" id="audioclip-509">
						<file id="file-1"/>
						<name>bandicam 2025-06-02 00-01-10-144 - Audio</name>
						<rate>
							<timebase>60</timebase>
							<ntsc>TRUE</ntsc>
						</rate>
						<rate>
							<timebase>60</timebase>
							<ntsc>TRUE</ntsc>
						</rate>
						<duration>0</duration>
						<start>8694</start>
						<end>8694</end>
						<in>6894</in>
						<out>6894</out>
					</clipitem>
					<clipitem frameBlend="FALSE" id="audioclip-510">
						<file id="file-1"/>
						<name>bandicam 2025-06-02 00-01-10-144 - Audio</name>
						<rate>
							<timebase>60</timebase>
							<ntsc>TRUE</ntsc>
						</rate>
						<rate>
							<timebase>60</timebase>
							<ntsc>TRUE</ntsc>
						</rate>
						<duration>0</duration>
						<start>8694</start>
						<end>8694</end>
						<in>6954</in>
						<out>6954</out>
					</clipitem>
					<clipitem frameBlend="FALSE" id="audioclip-511">
						<file id="file-1"/>
						<name>bandicam 2025-06-02 00-01-10-144 - Audio</name>
						<rate>
							<timebase>60</timebase>
							<ntsc>TRUE</ntsc>
						</rate>
						<rate>
							<timebase>60</timebase>
							<ntsc>TRUE</ntsc>
						</rate>
						<duration>0</duration>
						<start>8694</start>
						<end>8694</end>
						<in>60</in>
						<out>60</out>
					</clipitem>
					<clipitem frameBlend="FALSE" id="audioclip-512">
						<file id="file-1"/>
						<name>bandicam 2025-06-02 00-01-10-144 - Audio</name>
						<rate>
							<timebase>60</timebase>
							<ntsc>TRUE</ntsc>
						</rate>
						<rate>
							<timebase>60</timebase>
							<ntsc>TRUE</ntsc>
						</rate>
						<duration>12</duration>
						<start>8694</start>
						<end>8706</end>
						<in>114</in>
						<out>126</out>
					</clipitem>
					<clipitem frameBlend="FALSE" id="audioclip-513">
						<file id="file-1"/>
						<name>bandicam 2025-06-02 00-01-10-144 - Audio</name>
						<rate>
							<timebase>60</timebase>
							<ntsc>TRUE</ntsc>
						</rate>
						<rate>
							<timebase>60</timebase>
							<ntsc>TRUE</ntsc>
						</rate>
						<duration>18</duration>
						<start>8706</start>
						<end>8724</end>
						<in>450</in>
						<out>468</out>
					</clipitem>
					<clipitem frameBlend="FALSE" id="audioclip-514">
						<file id="file-1"/>
						<name>bandicam 2025-06-02 00-01-10-144 - Audio</name>
						<rate>
							<timebase>60</timebase>
							<ntsc>TRUE</ntsc>
						</rate>
						<rate>
							<timebase>60</timebase>
							<ntsc>TRUE</ntsc>
						</rate>
						<duration>6</duration>
						<start>8724</start>
						<end>8730</end>
						<in>582</in>
						<out>588</out>
					</clipitem>
					<clipitem frameBlend="FALSE" id="audioclip-515">
						<file id="file-1"/>
						<name>bandicam 2025-06-02 00-01-10-144 - Audio</name>
						<rate>
							<timebase>60</timebase>
							<ntsc>TRUE</ntsc>
						</rate>
						<rate>
							<timebase>60</timebase>
							<ntsc>TRUE</ntsc>
						</rate>
						<duration>6</duration>
						<start>8730</start>
						<end>8736</end>
						<in>1410</in>
						<out>1416</out>
					</clipitem>
					<clipitem frameBlend="FALSE" id="audioclip-516">
						<file id="file-1"/>
						<name>bandicam 2025-06-02 00-01-10-144 - Audio</name>
						<rate>
							<timebase>60</timebase>
							<ntsc>TRUE</ntsc>
						</rate>
						<rate>
							<timebase>60</timebase>
							<ntsc>TRUE</ntsc>
						</rate>
						<duration>0</duration>
						<start>8736</start>
						<end>8736</end>
						<in>1692</in>
						<out>1692</out>
					</clipitem>
					<clipitem frameBlend="FALSE" id="audioclip-517">
						<file id="file-1"/>
						<name>bandicam 2025-06-02 00-01-10-144 - Audio</name>
						<rate>
							<timebase>60</timebase>
							<ntsc>TRUE</ntsc>
						</rate>
						<rate>
							<timebase>60</timebase>
							<ntsc>TRUE</ntsc>
						</rate>
						<duration>6</duration>
						<start>8736</start>
						<end>8742</end>
						<in>1704</in>
						<out>1710</out>
					</clipitem>
					<clipitem frameBlend="FALSE" id="audioclip-518">
						<file id="file-1"/>
						<name>bandicam 2025-06-02 00-01-10-144 - Audio</name>
						<rate>
							<timebase>60</timebase>
							<ntsc>TRUE</ntsc>
						</rate>
						<rate>
							<timebase>60</timebase>
							<ntsc>TRUE</ntsc>
						</rate>
						<duration>12</duration>
						<start>8742</start>
						<end>8754</end>
						<in>1746</in>
						<out>1758</out>
					</clipitem>
					<clipitem frameBlend="FALSE" id="audioclip-519">
						<file id="file-1"/>
						<name>bandicam 2025-06-02 00-01-10-144 - Audio</name>
						<rate>
							<timebase>60</timebase>
							<ntsc>TRUE</ntsc>
						</rate>
						<rate>
							<timebase>60</timebase>
							<ntsc>TRUE</ntsc>
						</rate>
						<duration>0</duration>
						<start>8754</start>
						<end>8754</end>
						<in>1776</in>
						<out>1776</out>
					</clipitem>
					<clipitem frameBlend="FALSE" id="audioclip-520">
						<file id="file-1"/>
						<name>bandicam 2025-06-02 00-01-10-144 - Audio</name>
						<rate>
							<timebase>60</timebase>
							<ntsc>TRUE</ntsc>
						</rate>
						<rate>
							<timebase>60</timebase>
							<ntsc>TRUE</ntsc>
						</rate>
						<duration>0</duration>
						<start>8754</start>
						<end>8754</end>
						<in>1812</in>
						<out>1812</out>
					</clipitem>
					<clipitem frameBlend="FALSE" id="audioclip-521">
						<file id="file-1"/>
						<name>bandicam 2025-06-02 00-01-10-144 - Audio</name>
						<rate>
							<timebase>60</timebase>
							<ntsc>TRUE</ntsc>
						</rate>
						<rate>
							<timebase>60</timebase>
							<ntsc>TRUE</ntsc>
						</rate>
						<duration>6</duration>
						<start>8754</start>
						<end>8760</end>
						<in>1848</in>
						<out>1854</out>
					</clipitem>
					<clipitem frameBlend="FALSE" id="audioclip-522">
						<file id="file-1"/>
						<name>bandicam 2025-06-02 00-01-10-144 - Audio</name>
						<rate>
							<timebase>60</timebase>
							<ntsc>TRUE</ntsc>
						</rate>
						<rate>
							<timebase>60</timebase>
							<ntsc>TRUE</ntsc>
						</rate>
						<duration>6</duration>
						<start>8760</start>
						<end>8766</end>
						<in>1884</in>
						<out>1890</out>
					</clipitem>
					<clipitem frameBlend="FALSE" id="audioclip-523">
						<file id="file-1"/>
						<name>bandicam 2025-06-02 00-01-10-144 - Audio</name>
						<rate>
							<timebase>60</timebase>
							<ntsc>TRUE</ntsc>
						</rate>
						<rate>
							<timebase>60</timebase>
							<ntsc>TRUE</ntsc>
						</rate>
						<duration>0</duration>
						<start>8766</start>
						<end>8766</end>
						<in>2292</in>
						<out>2292</out>
					</clipitem>
					<clipitem frameBlend="FALSE" id="audioclip-524">
						<file id="file-1"/>
						<name>bandicam 2025-06-02 00-01-10-144 - Audio</name>
						<rate>
							<timebase>60</timebase>
							<ntsc>TRUE</ntsc>
						</rate>
						<rate>
							<timebase>60</timebase>
							<ntsc>TRUE</ntsc>
						</rate>
						<duration>12</duration>
						<start>8766</start>
						<end>8778</end>
						<in>2310</in>
						<out>2322</out>
					</clipitem>
					<clipitem frameBlend="FALSE" id="audioclip-525">
						<file id="file-1"/>
						<name>bandicam 2025-06-02 00-01-10-144 - Audio</name>
						<rate>
							<timebase>60</timebase>
							<ntsc>TRUE</ntsc>
						</rate>
						<rate>
							<timebase>60</timebase>
							<ntsc>TRUE</ntsc>
						</rate>
						<duration>6</duration>
						<start>8778</start>
						<end>8784</end>
						<in>2448</in>
						<out>2454</out>
					</clipitem>
					<clipitem frameBlend="FALSE" id="audioclip-526">
						<file id="file-1"/>
						<name>bandicam 2025-06-02 00-01-10-144 - Audio</name>
						<rate>
							<timebase>60</timebase>
							<ntsc>TRUE</ntsc>
						</rate>
						<rate>
							<timebase>60</timebase>
							<ntsc>TRUE</ntsc>
						</rate>
						<duration>12</duration>
						<start>8784</start>
						<end>8796</end>
						<in>2742</in>
						<out>2754</out>
					</clipitem>
					<clipitem frameBlend="FALSE" id="audioclip-527">
						<file id="file-1"/>
						<name>bandicam 2025-06-02 00-01-10-144 - Audio</name>
						<rate>
							<timebase>60</timebase>
							<ntsc>TRUE</ntsc>
						</rate>
						<rate>
							<timebase>60</timebase>
							<ntsc>TRUE</ntsc>
						</rate>
						<duration>6</duration>
						<start>8796</start>
						<end>8802</end>
						<in>2766</in>
						<out>2772</out>
					</clipitem>
					<clipitem frameBlend="FALSE" id="audioclip-528">
						<file id="file-1"/>
						<name>bandicam 2025-06-02 00-01-10-144 - Audio</name>
						<rate>
							<timebase>60</timebase>
							<ntsc>TRUE</ntsc>
						</rate>
						<rate>
							<timebase>60</timebase>
							<ntsc>TRUE</ntsc>
						</rate>
						<duration>18</duration>
						<start>8802</start>
						<end>8820</end>
						<in>2802</in>
						<out>2820</out>
					</clipitem>
					<clipitem frameBlend="FALSE" id="audioclip-529">
						<file id="file-1"/>
						<name>bandicam 2025-06-02 00-01-10-144 - Audio</name>
						<rate>
							<timebase>60</timebase>
							<ntsc>TRUE</ntsc>
						</rate>
						<rate>
							<timebase>60</timebase>
							<ntsc>TRUE</ntsc>
						</rate>
						<duration>0</duration>
						<start>8820</start>
						<end>8820</end>
						<in>3060</in>
						<out>3060</out>
					</clipitem>
					<clipitem frameBlend="FALSE" id="audioclip-530">
						<file id="file-1"/>
						<name>bandicam 2025-06-02 00-01-10-144 - Audio</name>
						<rate>
							<timebase>60</timebase>
							<ntsc>TRUE</ntsc>
						</rate>
						<rate>
							<timebase>60</timebase>
							<ntsc>TRUE</ntsc>
						</rate>
						<duration>30</duration>
						<start>8820</start>
						<end>8850</end>
						<in>3072</in>
						<out>3102</out>
					</clipitem>
					<clipitem frameBlend="FALSE" id="audioclip-531">
						<file id="file-1"/>
						<name>bandicam 2025-06-02 00-01-10-144 - Audio</name>
						<rate>
							<timebase>60</timebase>
							<ntsc>TRUE</ntsc>
						</rate>
						<rate>
							<timebase>60</timebase>
							<ntsc>TRUE</ntsc>
						</rate>
						<duration>24</duration>
						<start>8850</start>
						<end>8874</end>
						<in>3270</in>
						<out>3294</out>
					</clipitem>
					<clipitem frameBlend="FALSE" id="audioclip-532">
						<file id="file-1"/>
						<name>bandicam 2025-06-02 00-01-10-144 - Audio</name>
						<rate>
							<timebase>60</timebase>
							<ntsc>TRUE</ntsc>
						</rate>
						<rate>
							<timebase>60</timebase>
							<ntsc>TRUE</ntsc>
						</rate>
						<duration>18</duration>
						<start>8874</start>
						<end>8892</end>
						<in>3456</in>
						<out>3474</out>
					</clipitem>
					<clipitem frameBlend="FALSE" id="audioclip-533">
						<file id="file-1"/>
						<name>bandicam 2025-06-02 00-01-10-144 - Audio</name>
						<rate>
							<timebase>60</timebase>
							<ntsc>TRUE</ntsc>
						</rate>
						<rate>
							<timebase>60</timebase>
							<ntsc>TRUE</ntsc>
						</rate>
						<duration>18</duration>
						<start>8892</start>
						<end>8910</end>
						<in>3624</in>
						<out>3642</out>
					</clipitem>
					<clipitem frameBlend="FALSE" id="audioclip-534">
						<file id="file-1"/>
						<name>bandicam 2025-06-02 00-01-10-144 - Audio</name>
						<rate>
							<timebase>60</timebase>
							<ntsc>TRUE</ntsc>
						</rate>
						<rate>
							<timebase>60</timebase>
							<ntsc>TRUE</ntsc>
						</rate>
						<duration>6</duration>
						<start>8910</start>
						<end>8916</end>
						<in>4086</in>
						<out>4092</out>
					</clipitem>
					<clipitem frameBlend="FALSE" id="audioclip-535">
						<file id="file-1"/>
						<name>bandicam 2025-06-02 00-01-10-144 - Audio</name>
						<rate>
							<timebase>60</timebase>
							<ntsc>TRUE</ntsc>
						</rate>
						<rate>
							<timebase>60</timebase>
							<ntsc>TRUE</ntsc>
						</rate>
						<duration>6</duration>
						<start>8916</start>
						<end>8922</end>
						<in>4104</in>
						<out>4110</out>
					</clipitem>
					<clipitem frameBlend="FALSE" id="audioclip-536">
						<file id="file-1"/>
						<name>bandicam 2025-06-02 00-01-10-144 - Audio</name>
						<rate>
							<timebase>60</timebase>
							<ntsc>TRUE</ntsc>
						</rate>
						<rate>
							<timebase>60</timebase>
							<ntsc>TRUE</ntsc>
						</rate>
						<duration>0</duration>
						<start>8922</start>
						<end>8922</end>
						<in>4134</in>
						<out>4134</out>
					</clipitem>
					<clipitem frameBlend="FALSE" id="audioclip-537">
						<file id="file-1"/>
						<name>bandicam 2025-06-02 00-01-10-144 - Audio</name>
						<rate>
							<timebase>60</timebase>
							<ntsc>TRUE</ntsc>
						</rate>
						<rate>
							<timebase>60</timebase>
							<ntsc>TRUE</ntsc>
						</rate>
						<duration>6</duration>
						<start>8922</start>
						<end>8928</end>
						<in>4188</in>
						<out>4194</out>
					</clipitem>
					<clipitem frameBlend="FALSE" id="audioclip-538">
						<file id="file-1"/>
						<name>bandicam 2025-06-02 00-01-10-144 - Audio</name>
						<rate>
							<timebase>60</timebase>
							<ntsc>TRUE</ntsc>
						</rate>
						<rate>
							<timebase>60</timebase>
							<ntsc>TRUE</ntsc>
						</rate>
						<duration>0</duration>
						<start>8928</start>
						<end>8928</end>
						<in>4230</in>
						<out>4230</out>
					</clipitem>
					<clipitem frameBlend="FALSE" id="audioclip-539">
						<file id="file-1"/>
						<name>bandicam 2025-06-02 00-01-10-144 - Audio</name>
						<rate>
							<timebase>60</timebase>
							<ntsc>TRUE</ntsc>
						</rate>
						<rate>
							<timebase>60</timebase>
							<ntsc>TRUE</ntsc>
						</rate>
						<duration>6</duration>
						<start>8928</start>
						<end>8934</end>
						<in>4242</in>
						<out>4248</out>
					</clipitem>
					<clipitem frameBlend="FALSE" id="audioclip-540">
						<file id="file-1"/>
						<name>bandicam 2025-06-02 00-01-10-144 - Audio</name>
						<rate>
							<timebase>60</timebase>
							<ntsc>TRUE</ntsc>
						</rate>
						<rate>
							<timebase>60</timebase>
							<ntsc>TRUE</ntsc>
						</rate>
						<duration>66</duration>
						<start>8934</start>
						<end>9000</end>
						<in>4302</in>
						<out>4368</out>
					</clipitem>
					<clipitem frameBlend="FALSE" id="audioclip-541">
						<file id="file-1"/>
						<name>bandicam 2025-06-02 00-01-10-144 - Audio</name>
						<rate>
							<timebase>60</timebase>
							<ntsc>TRUE</ntsc>
						</rate>
						<rate>
							<timebase>60</timebase>
							<ntsc>TRUE</ntsc>
						</rate>
						<duration>42</duration>
						<start>9000</start>
						<end>9042</end>
						<in>4392</in>
						<out>4434</out>
					</clipitem>
					<clipitem frameBlend="FALSE" id="audioclip-542">
						<file id="file-1"/>
						<name>bandicam 2025-06-02 00-01-10-144 - Audio</name>
						<rate>
							<timebase>60</timebase>
							<ntsc>TRUE</ntsc>
						</rate>
						<rate>
							<timebase>60</timebase>
							<ntsc>TRUE</ntsc>
						</rate>
						<duration>18</duration>
						<start>9042</start>
						<end>9060</end>
						<in>4506</in>
						<out>4524</out>
					</clipitem>
					<clipitem frameBlend="FALSE" id="audioclip-543">
						<file id="file-1"/>
						<name>bandicam 2025-06-02 00-01-10-144 - Audio</name>
						<rate>
							<timebase>60</timebase>
							<ntsc>TRUE</ntsc>
						</rate>
						<rate>
							<timebase>60</timebase>
							<ntsc>TRUE</ntsc>
						</rate>
						<duration>12</duration>
						<start>9060</start>
						<end>9072</end>
						<in>4542</in>
						<out>4554</out>
					</clipitem>
					<clipitem frameBlend="FALSE" id="audioclip-544">
						<file id="file-1"/>
						<name>bandicam 2025-06-02 00-01-10-144 - Audio</name>
						<rate>
							<timebase>60</timebase>
							<ntsc>TRUE</ntsc>
						</rate>
						<rate>
							<timebase>60</timebase>
							<ntsc>TRUE</ntsc>
						</rate>
						<duration>24</duration>
						<start>9072</start>
						<end>9096</end>
						<in>4602</in>
						<out>4626</out>
					</clipitem>
					<clipitem frameBlend="FALSE" id="audioclip-545">
						<file id="file-1"/>
						<name>bandicam 2025-06-02 00-01-10-144 - Audio</name>
						<rate>
							<timebase>60</timebase>
							<ntsc>TRUE</ntsc>
						</rate>
						<rate>
							<timebase>60</timebase>
							<ntsc>TRUE</ntsc>
						</rate>
						<duration>0</duration>
						<start>9096</start>
						<end>9096</end>
						<in>4704</in>
						<out>4704</out>
					</clipitem>
					<clipitem frameBlend="FALSE" id="audioclip-546">
						<file id="file-1"/>
						<name>bandicam 2025-06-02 00-01-10-144 - Audio</name>
						<rate>
							<timebase>60</timebase>
							<ntsc>TRUE</ntsc>
						</rate>
						<rate>
							<timebase>60</timebase>
							<ntsc>TRUE</ntsc>
						</rate>
						<duration>48</duration>
						<start>9096</start>
						<end>9144</end>
						<in>4722</in>
						<out>4770</out>
					</clipitem>
					<clipitem frameBlend="FALSE" id="audioclip-547">
						<file id="file-1"/>
						<name>bandicam 2025-06-02 00-01-10-144 - Audio</name>
						<rate>
							<timebase>60</timebase>
							<ntsc>TRUE</ntsc>
						</rate>
						<rate>
							<timebase>60</timebase>
							<ntsc>TRUE</ntsc>
						</rate>
						<duration>6</duration>
						<start>9144</start>
						<end>9150</end>
						<in>4860</in>
						<out>4866</out>
					</clipitem>
					<clipitem frameBlend="FALSE" id="audioclip-548">
						<file id="file-1"/>
						<name>bandicam 2025-06-02 00-01-10-144 - Audio</name>
						<rate>
							<timebase>60</timebase>
							<ntsc>TRUE</ntsc>
						</rate>
						<rate>
							<timebase>60</timebase>
							<ntsc>TRUE</ntsc>
						</rate>
						<duration>6</duration>
						<start>9150</start>
						<end>9156</end>
						<in>4968</in>
						<out>4974</out>
					</clipitem>
					<clipitem frameBlend="FALSE" id="audioclip-549">
						<file id="file-1"/>
						<name>bandicam 2025-06-02 00-01-10-144 - Audio</name>
						<rate>
							<timebase>60</timebase>
							<ntsc>TRUE</ntsc>
						</rate>
						<rate>
							<timebase>60</timebase>
							<ntsc>TRUE</ntsc>
						</rate>
						<duration>6</duration>
						<start>9156</start>
						<end>9162</end>
						<in>5112</in>
						<out>5118</out>
					</clipitem>
					<clipitem frameBlend="FALSE" id="audioclip-550">
						<file id="file-1"/>
						<name>bandicam 2025-06-02 00-01-10-144 - Audio</name>
						<rate>
							<timebase>60</timebase>
							<ntsc>TRUE</ntsc>
						</rate>
						<rate>
							<timebase>60</timebase>
							<ntsc>TRUE</ntsc>
						</rate>
						<duration>6</duration>
						<start>9162</start>
						<end>9168</end>
						<in>5142</in>
						<out>5148</out>
					</clipitem>
					<clipitem frameBlend="FALSE" id="audioclip-551">
						<file id="file-1"/>
						<name>bandicam 2025-06-02 00-01-10-144 - Audio</name>
						<rate>
							<timebase>60</timebase>
							<ntsc>TRUE</ntsc>
						</rate>
						<rate>
							<timebase>60</timebase>
							<ntsc>TRUE</ntsc>
						</rate>
						<duration>18</duration>
						<start>9168</start>
						<end>9186</end>
						<in>5160</in>
						<out>5178</out>
					</clipitem>
					<clipitem frameBlend="FALSE" id="audioclip-552">
						<file id="file-1"/>
						<name>bandicam 2025-06-02 00-01-10-144 - Audio</name>
						<rate>
							<timebase>60</timebase>
							<ntsc>TRUE</ntsc>
						</rate>
						<rate>
							<timebase>60</timebase>
							<ntsc>TRUE</ntsc>
						</rate>
						<duration>12</duration>
						<start>9186</start>
						<end>9198</end>
						<in>5328</in>
						<out>5340</out>
					</clipitem>
					<clipitem frameBlend="FALSE" id="audioclip-553">
						<file id="file-1"/>
						<name>bandicam 2025-06-02 00-01-10-144 - Audio</name>
						<rate>
							<timebase>60</timebase>
							<ntsc>TRUE</ntsc>
						</rate>
						<rate>
							<timebase>60</timebase>
							<ntsc>TRUE</ntsc>
						</rate>
						<duration>12</duration>
						<start>9198</start>
						<end>9210</end>
						<in>5412</in>
						<out>5424</out>
					</clipitem>
					<clipitem frameBlend="FALSE" id="audioclip-554">
						<file id="file-1"/>
						<name>bandicam 2025-06-02 00-01-10-144 - Audio</name>
						<rate>
							<timebase>60</timebase>
							<ntsc>TRUE</ntsc>
						</rate>
						<rate>
							<timebase>60</timebase>
							<ntsc>TRUE</ntsc>
						</rate>
						<duration>0</duration>
						<start>9210</start>
						<end>9210</end>
						<in>5448</in>
						<out>5448</out>
					</clipitem>
					<clipitem frameBlend="FALSE" id="audioclip-555">
						<file id="file-1"/>
						<name>bandicam 2025-06-02 00-01-10-144 - Audio</name>
						<rate>
							<timebase>60</timebase>
							<ntsc>TRUE</ntsc>
						</rate>
						<rate>
							<timebase>60</timebase>
							<ntsc>TRUE</ntsc>
						</rate>
						<duration>0</duration>
						<start>9210</start>
						<end>9210</end>
						<in>5592</in>
						<out>5592</out>
					</clipitem>
					<clipitem frameBlend="FALSE" id="audioclip-556">
						<file id="file-1"/>
						<name>bandicam 2025-06-02 00-01-10-144 - Audio</name>
						<rate>
							<timebase>60</timebase>
							<ntsc>TRUE</ntsc>
						</rate>
						<rate>
							<timebase>60</timebase>
							<ntsc>TRUE</ntsc>
						</rate>
						<duration>18</duration>
						<start>9210</start>
						<end>9228</end>
						<in>5670</in>
						<out>5688</out>
					</clipitem>
					<clipitem frameBlend="FALSE" id="audioclip-557">
						<file id="file-1"/>
						<name>bandicam 2025-06-02 00-01-10-144 - Audio</name>
						<rate>
							<timebase>60</timebase>
							<ntsc>TRUE</ntsc>
						</rate>
						<rate>
							<timebase>60</timebase>
							<ntsc>TRUE</ntsc>
						</rate>
						<duration>18</duration>
						<start>9228</start>
						<end>9246</end>
						<in>5760</in>
						<out>5778</out>
					</clipitem>
					<clipitem frameBlend="FALSE" id="audioclip-558">
						<file id="file-1"/>
						<name>bandicam 2025-06-02 00-01-10-144 - Audio</name>
						<rate>
							<timebase>60</timebase>
							<ntsc>TRUE</ntsc>
						</rate>
						<rate>
							<timebase>60</timebase>
							<ntsc>TRUE</ntsc>
						</rate>
						<duration>72</duration>
						<start>9246</start>
						<end>9318</end>
						<in>5802</in>
						<out>5874</out>
					</clipitem>
					<clipitem frameBlend="FALSE" id="audioclip-559">
						<file id="file-1"/>
						<name>bandicam 2025-06-02 00-01-10-144 - Audio</name>
						<rate>
							<timebase>60</timebase>
							<ntsc>TRUE</ntsc>
						</rate>
						<rate>
							<timebase>60</timebase>
							<ntsc>TRUE</ntsc>
						</rate>
						<duration>48</duration>
						<start>9318</start>
						<end>9366</end>
						<in>5910</in>
						<out>5958</out>
					</clipitem>
					<clipitem frameBlend="FALSE" id="audioclip-560">
						<file id="file-1"/>
						<name>bandicam 2025-06-02 00-01-10-144 - Audio</name>
						<rate>
							<timebase>60</timebase>
							<ntsc>TRUE</ntsc>
						</rate>
						<rate>
							<timebase>60</timebase>
							<ntsc>TRUE</ntsc>
						</rate>
						<duration>0</duration>
						<start>9366</start>
						<end>9366</end>
						<in>6000</in>
						<out>6000</out>
					</clipitem>
					<clipitem frameBlend="FALSE" id="audioclip-561">
						<file id="file-1"/>
						<name>bandicam 2025-06-02 00-01-10-144 - Audio</name>
						<rate>
							<timebase>60</timebase>
							<ntsc>TRUE</ntsc>
						</rate>
						<rate>
							<timebase>60</timebase>
							<ntsc>TRUE</ntsc>
						</rate>
						<duration>24</duration>
						<start>9366</start>
						<end>9390</end>
						<in>6012</in>
						<out>6036</out>
					</clipitem>
					<clipitem frameBlend="FALSE" id="audioclip-562">
						<file id="file-1"/>
						<name>bandicam 2025-06-02 00-01-10-144 - Audio</name>
						<rate>
							<timebase>60</timebase>
							<ntsc>TRUE</ntsc>
						</rate>
						<rate>
							<timebase>60</timebase>
							<ntsc>TRUE</ntsc>
						</rate>
						<duration>24</duration>
						<start>9390</start>
						<end>9414</end>
						<in>6156</in>
						<out>6180</out>
					</clipitem>
					<clipitem frameBlend="FALSE" id="audioclip-563">
						<file id="file-1"/>
						<name>bandicam 2025-06-02 00-01-10-144 - Audio</name>
						<rate>
							<timebase>60</timebase>
							<ntsc>TRUE</ntsc>
						</rate>
						<rate>
							<timebase>60</timebase>
							<ntsc>TRUE</ntsc>
						</rate>
						<duration>6</duration>
						<start>9414</start>
						<end>9420</end>
						<in>6234</in>
						<out>6240</out>
					</clipitem>
					<clipitem frameBlend="FALSE" id="audioclip-564">
						<file id="file-1"/>
						<name>bandicam 2025-06-02 00-01-10-144 - Audio</name>
						<rate>
							<timebase>60</timebase>
							<ntsc>TRUE</ntsc>
						</rate>
						<rate>
							<timebase>60</timebase>
							<ntsc>TRUE</ntsc>
						</rate>
						<duration>0</duration>
						<start>9420</start>
						<end>9420</end>
						<in>6252</in>
						<out>6252</out>
					</clipitem>
					<clipitem frameBlend="FALSE" id="audioclip-565">
						<file id="file-1"/>
						<name>bandicam 2025-06-02 00-01-10-144 - Audio</name>
						<rate>
							<timebase>60</timebase>
							<ntsc>TRUE</ntsc>
						</rate>
						<rate>
							<timebase>60</timebase>
							<ntsc>TRUE</ntsc>
						</rate>
						<duration>24</duration>
						<start>9420</start>
						<end>9444</end>
						<in>6498</in>
						<out>6522</out>
					</clipitem>
					<clipitem frameBlend="FALSE" id="audioclip-566">
						<file id="file-1"/>
						<name>bandicam 2025-06-02 00-01-10-144 - Audio</name>
						<rate>
							<timebase>60</timebase>
							<ntsc>TRUE</ntsc>
						</rate>
						<rate>
							<timebase>60</timebase>
							<ntsc>TRUE</ntsc>
						</rate>
						<duration>0</duration>
						<start>9444</start>
						<end>9444</end>
						<in>6894</in>
						<out>6894</out>
					</clipitem>
					<clipitem frameBlend="FALSE" id="audioclip-567">
						<file id="file-1"/>
						<name>bandicam 2025-06-02 00-01-10-144 - Audio</name>
						<rate>
							<timebase>60</timebase>
							<ntsc>TRUE</ntsc>
						</rate>
						<rate>
							<timebase>60</timebase>
							<ntsc>TRUE</ntsc>
						</rate>
						<duration>0</duration>
						<start>9444</start>
						<end>9444</end>
						<in>6954</in>
						<out>6954</out>
					</clipitem>
					<clipitem frameBlend="FALSE" id="audioclip-568">
						<file id="file-1"/>
						<name>bandicam 2025-06-02 00-01-10-144 - Audio</name>
						<rate>
							<timebase>60</timebase>
							<ntsc>TRUE</ntsc>
						</rate>
						<rate>
							<timebase>60</timebase>
							<ntsc>TRUE</ntsc>
						</rate>
						<duration>18</duration>
						<start>9444</start>
						<end>9462</end>
						<in>12</in>
						<out>30</out>
					</clipitem>
					<clipitem frameBlend="FALSE" id="audioclip-569">
						<file id="file-1"/>
						<name>bandicam 2025-06-02 00-01-10-144 - Audio</name>
						<rate>
							<timebase>60</timebase>
							<ntsc>TRUE</ntsc>
						</rate>
						<rate>
							<timebase>60</timebase>
							<ntsc>TRUE</ntsc>
						</rate>
						<duration>36</duration>
						<start>9462</start>
						<end>9498</end>
						<in>54</in>
						<out>90</out>
					</clipitem>
					<clipitem frameBlend="FALSE" id="audioclip-570">
						<file id="file-1"/>
						<name>bandicam 2025-06-02 00-01-10-144 - Audio</name>
						<rate>
							<timebase>60</timebase>
							<ntsc>TRUE</ntsc>
						</rate>
						<rate>
							<timebase>60</timebase>
							<ntsc>TRUE</ntsc>
						</rate>
						<duration>18</duration>
						<start>9498</start>
						<end>9516</end>
						<in>108</in>
						<out>126</out>
					</clipitem>
					<clipitem frameBlend="FALSE" id="audioclip-571">
						<file id="file-1"/>
						<name>bandicam 2025-06-02 00-01-10-144 - Audio</name>
						<rate>
							<timebase>60</timebase>
							<ntsc>TRUE</ntsc>
						</rate>
						<rate>
							<timebase>60</timebase>
							<ntsc>TRUE</ntsc>
						</rate>
						<duration>18</duration>
						<start>9516</start>
						<end>9534</end>
						<in>174</in>
						<out>192</out>
					</clipitem>
					<clipitem frameBlend="FALSE" id="audioclip-572">
						<file id="file-1"/>
						<name>bandicam 2025-06-02 00-01-10-144 - Audio</name>
						<rate>
							<timebase>60</timebase>
							<ntsc>TRUE</ntsc>
						</rate>
						<rate>
							<timebase>60</timebase>
							<ntsc>TRUE</ntsc>
						</rate>
						<duration>0</duration>
						<start>9534</start>
						<end>9534</end>
						<in>300</in>
						<out>300</out>
					</clipitem>
					<clipitem frameBlend="FALSE" id="audioclip-573">
						<file id="file-1"/>
						<name>bandicam 2025-06-02 00-01-10-144 - Audio</name>
						<rate>
							<timebase>60</timebase>
							<ntsc>TRUE</ntsc>
						</rate>
						<rate>
							<timebase>60</timebase>
							<ntsc>TRUE</ntsc>
						</rate>
						<duration>18</duration>
						<start>9534</start>
						<end>9552</end>
						<in>360</in>
						<out>378</out>
					</clipitem>
					<clipitem frameBlend="FALSE" id="audioclip-574">
						<file id="file-1"/>
						<name>bandicam 2025-06-02 00-01-10-144 - Audio</name>
						<rate>
							<timebase>60</timebase>
							<ntsc>TRUE</ntsc>
						</rate>
						<rate>
							<timebase>60</timebase>
							<ntsc>TRUE</ntsc>
						</rate>
						<duration>0</duration>
						<start>9552</start>
						<end>9552</end>
						<in>438</in>
						<out>438</out>
					</clipitem>
					<clipitem frameBlend="FALSE" id="audioclip-575">
						<file id="file-1"/>
						<name>bandicam 2025-06-02 00-01-10-144 - Audio</name>
						<rate>
							<timebase>60</timebase>
							<ntsc>TRUE</ntsc>
						</rate>
						<rate>
							<timebase>60</timebase>
							<ntsc>TRUE</ntsc>
						</rate>
						<duration>42</duration>
						<start>9552</start>
						<end>9594</end>
						<in>450</in>
						<out>492</out>
					</clipitem>
					<clipitem frameBlend="FALSE" id="audioclip-576">
						<file id="file-1"/>
						<name>bandicam 2025-06-02 00-01-10-144 - Audio</name>
						<rate>
							<timebase>60</timebase>
							<ntsc>TRUE</ntsc>
						</rate>
						<rate>
							<timebase>60</timebase>
							<ntsc>TRUE</ntsc>
						</rate>
						<duration>0</duration>
						<start>9594</start>
						<end>9594</end>
						<in>504</in>
						<out>504</out>
					</clipitem>
					<clipitem frameBlend="FALSE" id="audioclip-577">
						<file id="file-1"/>
						<name>bandicam 2025-06-02 00-01-10-144 - Audio</name>
						<rate>
							<timebase>60</timebase>
							<ntsc>TRUE</ntsc>
						</rate>
						<rate>
							<timebase>60</timebase>
							<ntsc>TRUE</ntsc>
						</rate>
						<duration>18</duration>
						<start>9594</start>
						<end>9612</end>
						<in>528</in>
						<out>546</out>
					</clipitem>
					<clipitem frameBlend="FALSE" id="audioclip-578">
						<file id="file-1"/>
						<name>bandicam 2025-06-02 00-01-10-144 - Audio</name>
						<rate>
							<timebase>60</timebase>
							<ntsc>TRUE</ntsc>
						</rate>
						<rate>
							<timebase>60</timebase>
							<ntsc>TRUE</ntsc>
						</rate>
						<duration>24</duration>
						<start>9612</start>
						<end>9636</end>
						<in>582</in>
						<out>606</out>
					</clipitem>
					<clipitem frameBlend="FALSE" id="audioclip-579">
						<file id="file-1"/>
						<name>bandicam 2025-06-02 00-01-10-144 - Audio</name>
						<rate>
							<timebase>60</timebase>
							<ntsc>TRUE</ntsc>
						</rate>
						<rate>
							<timebase>60</timebase>
							<ntsc>TRUE</ntsc>
						</rate>
						<duration>18</duration>
						<start>9636</start>
						<end>9654</end>
						<in>624</in>
						<out>642</out>
					</clipitem>
					<clipitem frameBlend="FALSE" id="audioclip-580">
						<file id="file-1"/>
						<name>bandicam 2025-06-02 00-01-10-144 - Audio</name>
						<rate>
							<timebase>60</timebase>
							<ntsc>TRUE</ntsc>
						</rate>
						<rate>
							<timebase>60</timebase>
							<ntsc>TRUE</ntsc>
						</rate>
						<duration>0</duration>
						<start>9654</start>
						<end>9654</end>
						<in>852</in>
						<out>852</out>
					</clipitem>
					<clipitem frameBlend="FALSE" id="audioclip-581">
						<file id="file-1"/>
						<name>bandicam 2025-06-02 00-01-10-144 - Audio</name>
						<rate>
							<timebase>60</timebase>
							<ntsc>TRUE</ntsc>
						</rate>
						<rate>
							<timebase>60</timebase>
							<ntsc>TRUE</ntsc>
						</rate>
						<duration>0</duration>
						<start>9654</start>
						<end>9654</end>
						<in>912</in>
						<out>912</out>
					</clipitem>
					<clipitem frameBlend="FALSE" id="audioclip-582">
						<file id="file-1"/>
						<name>bandicam 2025-06-02 00-01-10-144 - Audio</name>
						<rate>
							<timebase>60</timebase>
							<ntsc>TRUE</ntsc>
						</rate>
						<rate>
							<timebase>60</timebase>
							<ntsc>TRUE</ntsc>
						</rate>
						<duration>0</duration>
						<start>9654</start>
						<end>9654</end>
						<in>936</in>
						<out>936</out>
					</clipitem>
					<clipitem frameBlend="FALSE" id="audioclip-583">
						<file id="file-1"/>
						<name>bandicam 2025-06-02 00-01-10-144 - Audio</name>
						<rate>
							<timebase>60</timebase>
							<ntsc>TRUE</ntsc>
						</rate>
						<rate>
							<timebase>60</timebase>
							<ntsc>TRUE</ntsc>
						</rate>
						<duration>0</duration>
						<start>9654</start>
						<end>9654</end>
						<in>954</in>
						<out>954</out>
					</clipitem>
					<clipitem frameBlend="FALSE" id="audioclip-584">
						<file id="file-1"/>
						<name>bandicam 2025-06-02 00-01-10-144 - Audio</name>
						<rate>
							<timebase>60</timebase>
							<ntsc>TRUE</ntsc>
						</rate>
						<rate>
							<timebase>60</timebase>
							<ntsc>TRUE</ntsc>
						</rate>
						<duration>12</duration>
						<start>9654</start>
						<end>9666</end>
						<in>984</in>
						<out>996</out>
					</clipitem>
					<clipitem frameBlend="FALSE" id="audioclip-585">
						<file id="file-1"/>
						<name>bandicam 2025-06-02 00-01-10-144 - Audio</name>
						<rate>
							<timebase>60</timebase>
							<ntsc>TRUE</ntsc>
						</rate>
						<rate>
							<timebase>60</timebase>
							<ntsc>TRUE</ntsc>
						</rate>
						<duration>12</duration>
						<start>9666</start>
						<end>9678</end>
						<in>1086</in>
						<out>1098</out>
					</clipitem>
					<clipitem frameBlend="FALSE" id="audioclip-586">
						<file id="file-1"/>
						<name>bandicam 2025-06-02 00-01-10-144 - Audio</name>
						<rate>
							<timebase>60</timebase>
							<ntsc>TRUE</ntsc>
						</rate>
						<rate>
							<timebase>60</timebase>
							<ntsc>TRUE</ntsc>
						</rate>
						<duration>0</duration>
						<start>9678</start>
						<end>9678</end>
						<in>1194</in>
						<out>1194</out>
					</clipitem>
					<clipitem frameBlend="FALSE" id="audioclip-587">
						<file id="file-1"/>
						<name>bandicam 2025-06-02 00-01-10-144 - Audio</name>
						<rate>
							<timebase>60</timebase>
							<ntsc>TRUE</ntsc>
						</rate>
						<rate>
							<timebase>60</timebase>
							<ntsc>TRUE</ntsc>
						</rate>
						<duration>18</duration>
						<start>9678</start>
						<end>9696</end>
						<in>1206</in>
						<out>1224</out>
					</clipitem>
					<clipitem frameBlend="FALSE" id="audioclip-588">
						<file id="file-1"/>
						<name>bandicam 2025-06-02 00-01-10-144 - Audio</name>
						<rate>
							<timebase>60</timebase>
							<ntsc>TRUE</ntsc>
						</rate>
						<rate>
							<timebase>60</timebase>
							<ntsc>TRUE</ntsc>
						</rate>
						<duration>0</duration>
						<start>9696</start>
						<end>9696</end>
						<in>1320</in>
						<out>1320</out>
					</clipitem>
					<clipitem frameBlend="FALSE" id="audioclip-589">
						<file id="file-1"/>
						<name>bandicam 2025-06-02 00-01-10-144 - Audio</name>
						<rate>
							<timebase>60</timebase>
							<ntsc>TRUE</ntsc>
						</rate>
						<rate>
							<timebase>60</timebase>
							<ntsc>TRUE</ntsc>
						</rate>
						<duration>12</duration>
						<start>9696</start>
						<end>9708</end>
						<in>1374</in>
						<out>1386</out>
					</clipitem>
					<clipitem frameBlend="FALSE" id="audioclip-590">
						<file id="file-1"/>
						<name>bandicam 2025-06-02 00-01-10-144 - Audio</name>
						<rate>
							<timebase>60</timebase>
							<ntsc>TRUE</ntsc>
						</rate>
						<rate>
							<timebase>60</timebase>
							<ntsc>TRUE</ntsc>
						</rate>
						<duration>24</duration>
						<start>9708</start>
						<end>9732</end>
						<in>1398</in>
						<out>1422</out>
					</clipitem>
					<clipitem frameBlend="FALSE" id="audioclip-591">
						<file id="file-1"/>
						<name>bandicam 2025-06-02 00-01-10-144 - Audio</name>
						<rate>
							<timebase>60</timebase>
							<ntsc>TRUE</ntsc>
						</rate>
						<rate>
							<timebase>60</timebase>
							<ntsc>TRUE</ntsc>
						</rate>
						<duration>18</duration>
						<start>9732</start>
						<end>9750</end>
						<in>1446</in>
						<out>1464</out>
					</clipitem>
					<clipitem frameBlend="FALSE" id="audioclip-592">
						<file id="file-1"/>
						<name>bandicam 2025-06-02 00-01-10-144 - Audio</name>
						<rate>
							<timebase>60</timebase>
							<ntsc>TRUE</ntsc>
						</rate>
						<rate>
							<timebase>60</timebase>
							<ntsc>TRUE</ntsc>
						</rate>
						<duration>18</duration>
						<start>9750</start>
						<end>9768</end>
						<in>1566</in>
						<out>1584</out>
					</clipitem>
					<clipitem frameBlend="FALSE" id="audioclip-593">
						<file id="file-1"/>
						<name>bandicam 2025-06-02 00-01-10-144 - Audio</name>
						<rate>
							<timebase>60</timebase>
							<ntsc>TRUE</ntsc>
						</rate>
						<rate>
							<timebase>60</timebase>
							<ntsc>TRUE</ntsc>
						</rate>
						<duration>36</duration>
						<start>9768</start>
						<end>9804</end>
						<in>1692</in>
						<out>1728</out>
					</clipitem>
					<clipitem frameBlend="FALSE" id="audioclip-594">
						<file id="file-1"/>
						<name>bandicam 2025-06-02 00-01-10-144 - Audio</name>
						<rate>
							<timebase>60</timebase>
							<ntsc>TRUE</ntsc>
						</rate>
						<rate>
							<timebase>60</timebase>
							<ntsc>TRUE</ntsc>
						</rate>
						<duration>36</duration>
						<start>9804</start>
						<end>9840</end>
						<in>1746</in>
						<out>1782</out>
					</clipitem>
					<clipitem frameBlend="FALSE" id="audioclip-595">
						<file id="file-1"/>
						<name>bandicam 2025-06-02 00-01-10-144 - Audio</name>
						<rate>
							<timebase>60</timebase>
							<ntsc>TRUE</ntsc>
						</rate>
						<rate>
							<timebase>60</timebase>
							<ntsc>TRUE</ntsc>
						</rate>
						<duration>24</duration>
						<start>9840</start>
						<end>9864</end>
						<in>1806</in>
						<out>1830</out>
					</clipitem>
					<clipitem frameBlend="FALSE" id="audioclip-596">
						<file id="file-1"/>
						<name>bandicam 2025-06-02 00-01-10-144 - Audio</name>
						<rate>
							<timebase>60</timebase>
							<ntsc>TRUE</ntsc>
						</rate>
						<rate>
							<timebase>60</timebase>
							<ntsc>TRUE</ntsc>
						</rate>
						<duration>12</duration>
						<start>9864</start>
						<end>9876</end>
						<in>1842</in>
						<out>1854</out>
					</clipitem>
					<clipitem frameBlend="FALSE" id="audioclip-597">
						<file id="file-1"/>
						<name>bandicam 2025-06-02 00-01-10-144 - Audio</name>
						<rate>
							<timebase>60</timebase>
							<ntsc>TRUE</ntsc>
						</rate>
						<rate>
							<timebase>60</timebase>
							<ntsc>TRUE</ntsc>
						</rate>
						<duration>0</duration>
						<start>9876</start>
						<end>9876</end>
						<in>1872</in>
						<out>1872</out>
					</clipitem>
					<clipitem frameBlend="FALSE" id="audioclip-598">
						<file id="file-1"/>
						<name>bandicam 2025-06-02 00-01-10-144 - Audio</name>
						<rate>
							<timebase>60</timebase>
							<ntsc>TRUE</ntsc>
						</rate>
						<rate>
							<timebase>60</timebase>
							<ntsc>TRUE</ntsc>
						</rate>
						<duration>12</duration>
						<start>9876</start>
						<end>9888</end>
						<in>1884</in>
						<out>1896</out>
					</clipitem>
					<clipitem frameBlend="FALSE" id="audioclip-599">
						<file id="file-1"/>
						<name>bandicam 2025-06-02 00-01-10-144 - Audio</name>
						<rate>
							<timebase>60</timebase>
							<ntsc>TRUE</ntsc>
						</rate>
						<rate>
							<timebase>60</timebase>
							<ntsc>TRUE</ntsc>
						</rate>
						<duration>18</duration>
						<start>9888</start>
						<end>9906</end>
						<in>1926</in>
						<out>1944</out>
					</clipitem>
					<clipitem frameBlend="FALSE" id="audioclip-600">
						<file id="file-1"/>
						<name>bandicam 2025-06-02 00-01-10-144 - Audio</name>
						<rate>
							<timebase>60</timebase>
							<ntsc>TRUE</ntsc>
						</rate>
						<rate>
							<timebase>60</timebase>
							<ntsc>TRUE</ntsc>
						</rate>
						<duration>18</duration>
						<start>9906</start>
						<end>9924</end>
						<in>2178</in>
						<out>2196</out>
					</clipitem>
					<clipitem frameBlend="FALSE" id="audioclip-601">
						<file id="file-1"/>
						<name>bandicam 2025-06-02 00-01-10-144 - Audio</name>
						<rate>
							<timebase>60</timebase>
							<ntsc>TRUE</ntsc>
						</rate>
						<rate>
							<timebase>60</timebase>
							<ntsc>TRUE</ntsc>
						</rate>
						<duration>72</duration>
						<start>9924</start>
						<end>9996</end>
						<in>2280</in>
						<out>2352</out>
					</clipitem>
					<clipitem frameBlend="FALSE" id="audioclip-602">
						<file id="file-1"/>
						<name>bandicam 2025-06-02 00-01-10-144 - Audio</name>
						<rate>
							<timebase>60</timebase>
							<ntsc>TRUE</ntsc>
						</rate>
						<rate>
							<timebase>60</timebase>
							<ntsc>TRUE</ntsc>
						</rate>
						<duration>12</duration>
						<start>9996</start>
						<end>10008</end>
						<in>2448</in>
						<out>2460</out>
					</clipitem>
					<clipitem frameBlend="FALSE" id="audioclip-603">
						<file id="file-1"/>
						<name>bandicam 2025-06-02 00-01-10-144 - Audio</name>
						<rate>
							<timebase>60</timebase>
							<ntsc>TRUE</ntsc>
						</rate>
						<rate>
							<timebase>60</timebase>
							<ntsc>TRUE</ntsc>
						</rate>
						<duration>6</duration>
						<start>10008</start>
						<end>10014</end>
						<in>2478</in>
						<out>2484</out>
					</clipitem>
					<clipitem frameBlend="FALSE" id="audioclip-604">
						<file id="file-1"/>
						<name>bandicam 2025-06-02 00-01-10-144 - Audio</name>
						<rate>
							<timebase>60</timebase>
							<ntsc>TRUE</ntsc>
						</rate>
						<rate>
							<timebase>60</timebase>
							<ntsc>TRUE</ntsc>
						</rate>
						<duration>6</duration>
						<start>10014</start>
						<end>10020</end>
						<in>2496</in>
						<out>2502</out>
					</clipitem>
					<clipitem frameBlend="FALSE" id="audioclip-605">
						<file id="file-1"/>
						<name>bandicam 2025-06-02 00-01-10-144 - Audio</name>
						<rate>
							<timebase>60</timebase>
							<ntsc>TRUE</ntsc>
						</rate>
						<rate>
							<timebase>60</timebase>
							<ntsc>TRUE</ntsc>
						</rate>
						<duration>30</duration>
						<start>10020</start>
						<end>10050</end>
						<in>2538</in>
						<out>2568</out>
					</clipitem>
					<clipitem frameBlend="FALSE" id="audioclip-606">
						<file id="file-1"/>
						<name>bandicam 2025-06-02 00-01-10-144 - Audio</name>
						<rate>
							<timebase>60</timebase>
							<ntsc>TRUE</ntsc>
						</rate>
						<rate>
							<timebase>60</timebase>
							<ntsc>TRUE</ntsc>
						</rate>
						<duration>36</duration>
						<start>10050</start>
						<end>10086</end>
						<in>2592</in>
						<out>2628</out>
					</clipitem>
					<clipitem frameBlend="FALSE" id="audioclip-607">
						<file id="file-1"/>
						<name>bandicam 2025-06-02 00-01-10-144 - Audio</name>
						<rate>
							<timebase>60</timebase>
							<ntsc>TRUE</ntsc>
						</rate>
						<rate>
							<timebase>60</timebase>
							<ntsc>TRUE</ntsc>
						</rate>
						<duration>30</duration>
						<start>10086</start>
						<end>10116</end>
						<in>2640</in>
						<out>2670</out>
					</clipitem>
					<clipitem frameBlend="FALSE" id="audioclip-608">
						<file id="file-1"/>
						<name>bandicam 2025-06-02 00-01-10-144 - Audio</name>
						<rate>
							<timebase>60</timebase>
							<ntsc>TRUE</ntsc>
						</rate>
						<rate>
							<timebase>60</timebase>
							<ntsc>TRUE</ntsc>
						</rate>
						<duration>120</duration>
						<start>10116</start>
						<end>10236</end>
						<in>2724</in>
						<out>2844</out>
					</clipitem>
					<clipitem frameBlend="FALSE" id="audioclip-609">
						<file id="file-1"/>
						<name>bandicam 2025-06-02 00-01-10-144 - Audio</name>
						<rate>
							<timebase>60</timebase>
							<ntsc>TRUE</ntsc>
						</rate>
						<rate>
							<timebase>60</timebase>
							<ntsc>TRUE</ntsc>
						</rate>
						<duration>24</duration>
						<start>10236</start>
						<end>10260</end>
						<in>2868</in>
						<out>2892</out>
					</clipitem>
					<clipitem frameBlend="FALSE" id="audioclip-610">
						<file id="file-1"/>
						<name>bandicam 2025-06-02 00-01-10-144 - Audio</name>
						<rate>
							<timebase>60</timebase>
							<ntsc>TRUE</ntsc>
						</rate>
						<rate>
							<timebase>60</timebase>
							<ntsc>TRUE</ntsc>
						</rate>
						<duration>6</duration>
						<start>10260</start>
						<end>10266</end>
						<in>2904</in>
						<out>2910</out>
					</clipitem>
					<clipitem frameBlend="FALSE" id="audioclip-611">
						<file id="file-1"/>
						<name>bandicam 2025-06-02 00-01-10-144 - Audio</name>
						<rate>
							<timebase>60</timebase>
							<ntsc>TRUE</ntsc>
						</rate>
						<rate>
							<timebase>60</timebase>
							<ntsc>TRUE</ntsc>
						</rate>
						<duration>0</duration>
						<start>10266</start>
						<end>10266</end>
						<in>2946</in>
						<out>2946</out>
					</clipitem>
					<clipitem frameBlend="FALSE" id="audioclip-612">
						<file id="file-1"/>
						<name>bandicam 2025-06-02 00-01-10-144 - Audio</name>
						<rate>
							<timebase>60</timebase>
							<ntsc>TRUE</ntsc>
						</rate>
						<rate>
							<timebase>60</timebase>
							<ntsc>TRUE</ntsc>
						</rate>
						<duration>18</duration>
						<start>10266</start>
						<end>10284</end>
						<in>2964</in>
						<out>2982</out>
					</clipitem>
					<clipitem frameBlend="FALSE" id="audioclip-613">
						<file id="file-1"/>
						<name>bandicam 2025-06-02 00-01-10-144 - Audio</name>
						<rate>
							<timebase>60</timebase>
							<ntsc>TRUE</ntsc>
						</rate>
						<rate>
							<timebase>60</timebase>
							<ntsc>TRUE</ntsc>
						</rate>
						<duration>42</duration>
						<start>10284</start>
						<end>10326</end>
						<in>3060</in>
						<out>3102</out>
					</clipitem>
					<clipitem frameBlend="FALSE" id="audioclip-614">
						<file id="file-1"/>
						<name>bandicam 2025-06-02 00-01-10-144 - Audio</name>
						<rate>
							<timebase>60</timebase>
							<ntsc>TRUE</ntsc>
						</rate>
						<rate>
							<timebase>60</timebase>
							<ntsc>TRUE</ntsc>
						</rate>
						<duration>18</duration>
						<start>10326</start>
						<end>10344</end>
						<in>3120</in>
						<out>3138</out>
					</clipitem>
					<clipitem frameBlend="FALSE" id="audioclip-615">
						<file id="file-1"/>
						<name>bandicam 2025-06-02 00-01-10-144 - Audio</name>
						<rate>
							<timebase>60</timebase>
							<ntsc>TRUE</ntsc>
						</rate>
						<rate>
							<timebase>60</timebase>
							<ntsc>TRUE</ntsc>
						</rate>
						<duration>18</duration>
						<start>10344</start>
						<end>10362</end>
						<in>3228</in>
						<out>3246</out>
					</clipitem>
					<clipitem frameBlend="FALSE" id="audioclip-616">
						<file id="file-1"/>
						<name>bandicam 2025-06-02 00-01-10-144 - Audio</name>
						<rate>
							<timebase>60</timebase>
							<ntsc>TRUE</ntsc>
						</rate>
						<rate>
							<timebase>60</timebase>
							<ntsc>TRUE</ntsc>
						</rate>
						<duration>36</duration>
						<start>10362</start>
						<end>10398</end>
						<in>3270</in>
						<out>3306</out>
					</clipitem>
					<clipitem frameBlend="FALSE" id="audioclip-617">
						<file id="file-1"/>
						<name>bandicam 2025-06-02 00-01-10-144 - Audio</name>
						<rate>
							<timebase>60</timebase>
							<ntsc>TRUE</ntsc>
						</rate>
						<rate>
							<timebase>60</timebase>
							<ntsc>TRUE</ntsc>
						</rate>
						<duration>18</duration>
						<start>10398</start>
						<end>10416</end>
						<in>3372</in>
						<out>3390</out>
					</clipitem>
					<clipitem frameBlend="FALSE" id="audioclip-618">
						<file id="file-1"/>
						<name>bandicam 2025-06-02 00-01-10-144 - Audio</name>
						<rate>
							<timebase>60</timebase>
							<ntsc>TRUE</ntsc>
						</rate>
						<rate>
							<timebase>60</timebase>
							<ntsc>TRUE</ntsc>
						</rate>
						<duration>24</duration>
						<start>10416</start>
						<end>10440</end>
						<in>3450</in>
						<out>3474</out>
					</clipitem>
					<clipitem frameBlend="FALSE" id="audioclip-619">
						<file id="file-1"/>
						<name>bandicam 2025-06-02 00-01-10-144 - Audio</name>
						<rate>
							<timebase>60</timebase>
							<ntsc>TRUE</ntsc>
						</rate>
						<rate>
							<timebase>60</timebase>
							<ntsc>TRUE</ntsc>
						</rate>
						<duration>18</duration>
						<start>10440</start>
						<end>10458</end>
						<in>3498</in>
						<out>3516</out>
					</clipitem>
					<clipitem frameBlend="FALSE" id="audioclip-620">
						<file id="file-1"/>
						<name>bandicam 2025-06-02 00-01-10-144 - Audio</name>
						<rate>
							<timebase>60</timebase>
							<ntsc>TRUE</ntsc>
						</rate>
						<rate>
							<timebase>60</timebase>
							<ntsc>TRUE</ntsc>
						</rate>
						<duration>0</duration>
						<start>10458</start>
						<end>10458</end>
						<in>3582</in>
						<out>3582</out>
					</clipitem>
					<clipitem frameBlend="FALSE" id="audioclip-621">
						<file id="file-1"/>
						<name>bandicam 2025-06-02 00-01-10-144 - Audio</name>
						<rate>
							<timebase>60</timebase>
							<ntsc>TRUE</ntsc>
						</rate>
						<rate>
							<timebase>60</timebase>
							<ntsc>TRUE</ntsc>
						</rate>
						<duration>18</duration>
						<start>10458</start>
						<end>10476</end>
						<in>3624</in>
						<out>3642</out>
					</clipitem>
					<clipitem frameBlend="FALSE" id="audioclip-622">
						<file id="file-1"/>
						<name>bandicam 2025-06-02 00-01-10-144 - Audio</name>
						<rate>
							<timebase>60</timebase>
							<ntsc>TRUE</ntsc>
						</rate>
						<rate>
							<timebase>60</timebase>
							<ntsc>TRUE</ntsc>
						</rate>
						<duration>0</duration>
						<start>10476</start>
						<end>10476</end>
						<in>3696</in>
						<out>3696</out>
					</clipitem>
					<clipitem frameBlend="FALSE" id="audioclip-623">
						<file id="file-1"/>
						<name>bandicam 2025-06-02 00-01-10-144 - Audio</name>
						<rate>
							<timebase>60</timebase>
							<ntsc>TRUE</ntsc>
						</rate>
						<rate>
							<timebase>60</timebase>
							<ntsc>TRUE</ntsc>
						</rate>
						<duration>12</duration>
						<start>10476</start>
						<end>10488</end>
						<in>3768</in>
						<out>3780</out>
					</clipitem>
					<clipitem frameBlend="FALSE" id="audioclip-624">
						<file id="file-1"/>
						<name>bandicam 2025-06-02 00-01-10-144 - Audio</name>
						<rate>
							<timebase>60</timebase>
							<ntsc>TRUE</ntsc>
						</rate>
						<rate>
							<timebase>60</timebase>
							<ntsc>TRUE</ntsc>
						</rate>
						<duration>18</duration>
						<start>10488</start>
						<end>10506</end>
						<in>3852</in>
						<out>3870</out>
					</clipitem>
					<clipitem frameBlend="FALSE" id="audioclip-625">
						<file id="file-1"/>
						<name>bandicam 2025-06-02 00-01-10-144 - Audio</name>
						<rate>
							<timebase>60</timebase>
							<ntsc>TRUE</ntsc>
						</rate>
						<rate>
							<timebase>60</timebase>
							<ntsc>TRUE</ntsc>
						</rate>
						<duration>18</duration>
						<start>10506</start>
						<end>10524</end>
						<in>3906</in>
						<out>3924</out>
					</clipitem>
					<clipitem frameBlend="FALSE" id="audioclip-626">
						<file id="file-1"/>
						<name>bandicam 2025-06-02 00-01-10-144 - Audio</name>
						<rate>
							<timebase>60</timebase>
							<ntsc>TRUE</ntsc>
						</rate>
						<rate>
							<timebase>60</timebase>
							<ntsc>TRUE</ntsc>
						</rate>
						<duration>6</duration>
						<start>10524</start>
						<end>10530</end>
						<in>4026</in>
						<out>4032</out>
					</clipitem>
					<clipitem frameBlend="FALSE" id="audioclip-627">
						<file id="file-1"/>
						<name>bandicam 2025-06-02 00-01-10-144 - Audio</name>
						<rate>
							<timebase>60</timebase>
							<ntsc>TRUE</ntsc>
						</rate>
						<rate>
							<timebase>60</timebase>
							<ntsc>TRUE</ntsc>
						</rate>
						<duration>0</duration>
						<start>10530</start>
						<end>10530</end>
						<in>4044</in>
						<out>4044</out>
					</clipitem>
					<clipitem frameBlend="FALSE" id="audioclip-628">
						<file id="file-1"/>
						<name>bandicam 2025-06-02 00-01-10-144 - Audio</name>
						<rate>
							<timebase>60</timebase>
							<ntsc>TRUE</ntsc>
						</rate>
						<rate>
							<timebase>60</timebase>
							<ntsc>TRUE</ntsc>
						</rate>
						<duration>72</duration>
						<start>10530</start>
						<end>10602</end>
						<in>4086</in>
						<out>4158</out>
					</clipitem>
					<clipitem frameBlend="FALSE" id="audioclip-629">
						<file id="file-1"/>
						<name>bandicam 2025-06-02 00-01-10-144 - Audio</name>
						<rate>
							<timebase>60</timebase>
							<ntsc>TRUE</ntsc>
						</rate>
						<rate>
							<timebase>60</timebase>
							<ntsc>TRUE</ntsc>
						</rate>
						<duration>12</duration>
						<start>10602</start>
						<end>10614</end>
						<in>4188</in>
						<out>4200</out>
					</clipitem>
					<clipitem frameBlend="FALSE" id="audioclip-630">
						<file id="file-1"/>
						<name>bandicam 2025-06-02 00-01-10-144 - Audio</name>
						<rate>
							<timebase>60</timebase>
							<ntsc>TRUE</ntsc>
						</rate>
						<rate>
							<timebase>60</timebase>
							<ntsc>TRUE</ntsc>
						</rate>
						<duration>42</duration>
						<start>10614</start>
						<end>10656</end>
						<in>4230</in>
						<out>4272</out>
					</clipitem>
					<clipitem frameBlend="FALSE" id="audioclip-631">
						<file id="file-1"/>
						<name>bandicam 2025-06-02 00-01-10-144 - Audio</name>
						<rate>
							<timebase>60</timebase>
							<ntsc>TRUE</ntsc>
						</rate>
						<rate>
							<timebase>60</timebase>
							<ntsc>TRUE</ntsc>
						</rate>
						<duration>132</duration>
						<start>10656</start>
						<end>10788</end>
						<in>4302</in>
						<out>4434</out>
					</clipitem>
					<clipitem frameBlend="FALSE" id="audioclip-632">
						<file id="file-1"/>
						<name>bandicam 2025-06-02 00-01-10-144 - Audio</name>
						<rate>
							<timebase>60</timebase>
							<ntsc>TRUE</ntsc>
						</rate>
						<rate>
							<timebase>60</timebase>
							<ntsc>TRUE</ntsc>
						</rate>
						<duration>12</duration>
						<start>10788</start>
						<end>10800</end>
						<in>4470</in>
						<out>4482</out>
					</clipitem>
					<clipitem frameBlend="FALSE" id="audioclip-633">
						<file id="file-1"/>
						<name>bandicam 2025-06-02 00-01-10-144 - Audio</name>
						<rate>
							<timebase>60</timebase>
							<ntsc>TRUE</ntsc>
						</rate>
						<rate>
							<timebase>60</timebase>
							<ntsc>TRUE</ntsc>
						</rate>
						<duration>48</duration>
						<start>10800</start>
						<end>10848</end>
						<in>4506</in>
						<out>4554</out>
					</clipitem>
					<clipitem frameBlend="FALSE" id="audioclip-634">
						<file id="file-1"/>
						<name>bandicam 2025-06-02 00-01-10-144 - Audio</name>
						<rate>
							<timebase>60</timebase>
							<ntsc>TRUE</ntsc>
						</rate>
						<rate>
							<timebase>60</timebase>
							<ntsc>TRUE</ntsc>
						</rate>
						<duration>30</duration>
						<start>10848</start>
						<end>10878</end>
						<in>4602</in>
						<out>4632</out>
					</clipitem>
					<clipitem frameBlend="FALSE" id="audioclip-635">
						<file id="file-1"/>
						<name>bandicam 2025-06-02 00-01-10-144 - Audio</name>
						<rate>
							<timebase>60</timebase>
							<ntsc>TRUE</ntsc>
						</rate>
						<rate>
							<timebase>60</timebase>
							<ntsc>TRUE</ntsc>
						</rate>
						<duration>18</duration>
						<start>10878</start>
						<end>10896</end>
						<in>4650</in>
						<out>4668</out>
					</clipitem>
					<clipitem frameBlend="FALSE" id="audioclip-636">
						<file id="file-1"/>
						<name>bandicam 2025-06-02 00-01-10-144 - Audio</name>
						<rate>
							<timebase>60</timebase>
							<ntsc>TRUE</ntsc>
						</rate>
						<rate>
							<timebase>60</timebase>
							<ntsc>TRUE</ntsc>
						</rate>
						<duration>0</duration>
						<start>10896</start>
						<end>10896</end>
						<in>4704</in>
						<out>4704</out>
					</clipitem>
					<clipitem frameBlend="FALSE" id="audioclip-637">
						<file id="file-1"/>
						<name>bandicam 2025-06-02 00-01-10-144 - Audio</name>
						<rate>
							<timebase>60</timebase>
							<ntsc>TRUE</ntsc>
						</rate>
						<rate>
							<timebase>60</timebase>
							<ntsc>TRUE</ntsc>
						</rate>
						<duration>48</duration>
						<start>10896</start>
						<end>10944</end>
						<in>4722</in>
						<out>4770</out>
					</clipitem>
					<clipitem frameBlend="FALSE" id="audioclip-638">
						<file id="file-1"/>
						<name>bandicam 2025-06-02 00-01-10-144 - Audio</name>
						<rate>
							<timebase>60</timebase>
							<ntsc>TRUE</ntsc>
						</rate>
						<rate>
							<timebase>60</timebase>
							<ntsc>TRUE</ntsc>
						</rate>
						<duration>18</duration>
						<start>10944</start>
						<end>10962</end>
						<in>4788</in>
						<out>4806</out>
					</clipitem>
					<clipitem frameBlend="FALSE" id="audioclip-639">
						<file id="file-1"/>
						<name>bandicam 2025-06-02 00-01-10-144 - Audio</name>
						<rate>
							<timebase>60</timebase>
							<ntsc>TRUE</ntsc>
						</rate>
						<rate>
							<timebase>60</timebase>
							<ntsc>TRUE</ntsc>
						</rate>
						<duration>0</duration>
						<start>10962</start>
						<end>10962</end>
						<in>4848</in>
						<out>4848</out>
					</clipitem>
					<clipitem frameBlend="FALSE" id="audioclip-640">
						<file id="file-1"/>
						<name>bandicam 2025-06-02 00-01-10-144 - Audio</name>
						<rate>
							<timebase>60</timebase>
							<ntsc>TRUE</ntsc>
						</rate>
						<rate>
							<timebase>60</timebase>
							<ntsc>TRUE</ntsc>
						</rate>
						<duration>12</duration>
						<start>10962</start>
						<end>10974</end>
						<in>4860</in>
						<out>4872</out>
					</clipitem>
					<clipitem frameBlend="FALSE" id="audioclip-641">
						<file id="file-1"/>
						<name>bandicam 2025-06-02 00-01-10-144 - Audio</name>
						<rate>
							<timebase>60</timebase>
							<ntsc>TRUE</ntsc>
						</rate>
						<rate>
							<timebase>60</timebase>
							<ntsc>TRUE</ntsc>
						</rate>
						<duration>6</duration>
						<start>10974</start>
						<end>10980</end>
						<in>4890</in>
						<out>4896</out>
					</clipitem>
					<clipitem frameBlend="FALSE" id="audioclip-642">
						<file id="file-1"/>
						<name>bandicam 2025-06-02 00-01-10-144 - Audio</name>
						<rate>
							<timebase>60</timebase>
							<ntsc>TRUE</ntsc>
						</rate>
						<rate>
							<timebase>60</timebase>
							<ntsc>TRUE</ntsc>
						</rate>
						<duration>18</duration>
						<start>10980</start>
						<end>10998</end>
						<in>4908</in>
						<out>4926</out>
					</clipitem>
					<clipitem frameBlend="FALSE" id="audioclip-643">
						<file id="file-1"/>
						<name>bandicam 2025-06-02 00-01-10-144 - Audio</name>
						<rate>
							<timebase>60</timebase>
							<ntsc>TRUE</ntsc>
						</rate>
						<rate>
							<timebase>60</timebase>
							<ntsc>TRUE</ntsc>
						</rate>
						<duration>30</duration>
						<start>10998</start>
						<end>11028</end>
						<in>4944</in>
						<out>4974</out>
					</clipitem>
					<clipitem frameBlend="FALSE" id="audioclip-644">
						<file id="file-1"/>
						<name>bandicam 2025-06-02 00-01-10-144 - Audio</name>
						<rate>
							<timebase>60</timebase>
							<ntsc>TRUE</ntsc>
						</rate>
						<rate>
							<timebase>60</timebase>
							<ntsc>TRUE</ntsc>
						</rate>
						<duration>18</duration>
						<start>11028</start>
						<end>11046</end>
						<in>5022</in>
						<out>5040</out>
					</clipitem>
					<clipitem frameBlend="FALSE" id="audioclip-645">
						<file id="file-1"/>
						<name>bandicam 2025-06-02 00-01-10-144 - Audio</name>
						<rate>
							<timebase>60</timebase>
							<ntsc>TRUE</ntsc>
						</rate>
						<rate>
							<timebase>60</timebase>
							<ntsc>TRUE</ntsc>
						</rate>
						<duration>6</duration>
						<start>11046</start>
						<end>11052</end>
						<in>5064</in>
						<out>5070</out>
					</clipitem>
					<clipitem frameBlend="FALSE" id="audioclip-646">
						<file id="file-1"/>
						<name>bandicam 2025-06-02 00-01-10-144 - Audio</name>
						<rate>
							<timebase>60</timebase>
							<ntsc>TRUE</ntsc>
						</rate>
						<rate>
							<timebase>60</timebase>
							<ntsc>TRUE</ntsc>
						</rate>
						<duration>0</duration>
						<start>11052</start>
						<end>11052</end>
						<in>5082</in>
						<out>5082</out>
					</clipitem>
					<clipitem frameBlend="FALSE" id="audioclip-647">
						<file id="file-1"/>
						<name>bandicam 2025-06-02 00-01-10-144 - Audio</name>
						<rate>
							<timebase>60</timebase>
							<ntsc>TRUE</ntsc>
						</rate>
						<rate>
							<timebase>60</timebase>
							<ntsc>TRUE</ntsc>
						</rate>
						<duration>84</duration>
						<start>11052</start>
						<end>11136</end>
						<in>5094</in>
						<out>5178</out>
					</clipitem>
					<clipitem frameBlend="FALSE" id="audioclip-648">
						<file id="file-1"/>
						<name>bandicam 2025-06-02 00-01-10-144 - Audio</name>
						<rate>
							<timebase>60</timebase>
							<ntsc>TRUE</ntsc>
						</rate>
						<rate>
							<timebase>60</timebase>
							<ntsc>TRUE</ntsc>
						</rate>
						<duration>18</duration>
						<start>11136</start>
						<end>11154</end>
						<in>5232</in>
						<out>5250</out>
					</clipitem>
					<clipitem frameBlend="FALSE" id="audioclip-649">
						<file id="file-1"/>
						<name>bandicam 2025-06-02 00-01-10-144 - Audio</name>
						<rate>
							<timebase>60</timebase>
							<ntsc>TRUE</ntsc>
						</rate>
						<rate>
							<timebase>60</timebase>
							<ntsc>TRUE</ntsc>
						</rate>
						<duration>12</duration>
						<start>11154</start>
						<end>11166</end>
						<in>5328</in>
						<out>5340</out>
					</clipitem>
					<clipitem frameBlend="FALSE" id="audioclip-650">
						<file id="file-1"/>
						<name>bandicam 2025-06-02 00-01-10-144 - Audio</name>
						<rate>
							<timebase>60</timebase>
							<ntsc>TRUE</ntsc>
						</rate>
						<rate>
							<timebase>60</timebase>
							<ntsc>TRUE</ntsc>
						</rate>
						<duration>0</duration>
						<start>11166</start>
						<end>11166</end>
						<in>5352</in>
						<out>5352</out>
					</clipitem>
					<clipitem frameBlend="FALSE" id="audioclip-651">
						<file id="file-1"/>
						<name>bandicam 2025-06-02 00-01-10-144 - Audio</name>
						<rate>
							<timebase>60</timebase>
							<ntsc>TRUE</ntsc>
						</rate>
						<rate>
							<timebase>60</timebase>
							<ntsc>TRUE</ntsc>
						</rate>
						<duration>18</duration>
						<start>11166</start>
						<end>11184</end>
						<in>5382</in>
						<out>5400</out>
					</clipitem>
					<clipitem frameBlend="FALSE" id="audioclip-652">
						<file id="file-1"/>
						<name>bandicam 2025-06-02 00-01-10-144 - Audio</name>
						<rate>
							<timebase>60</timebase>
							<ntsc>TRUE</ntsc>
						</rate>
						<rate>
							<timebase>60</timebase>
							<ntsc>TRUE</ntsc>
						</rate>
						<duration>36</duration>
						<start>11184</start>
						<end>11220</end>
						<in>5412</in>
						<out>5448</out>
					</clipitem>
					<clipitem frameBlend="FALSE" id="audioclip-653">
						<file id="file-1"/>
						<name>bandicam 2025-06-02 00-01-10-144 - Audio</name>
						<rate>
							<timebase>60</timebase>
							<ntsc>TRUE</ntsc>
						</rate>
						<rate>
							<timebase>60</timebase>
							<ntsc>TRUE</ntsc>
						</rate>
						<duration>0</duration>
						<start>11220</start>
						<end>11220</end>
						<in>5466</in>
						<out>5466</out>
					</clipitem>
					<clipitem frameBlend="FALSE" id="audioclip-654">
						<file id="file-1"/>
						<name>bandicam 2025-06-02 00-01-10-144 - Audio</name>
						<rate>
							<timebase>60</timebase>
							<ntsc>TRUE</ntsc>
						</rate>
						<rate>
							<timebase>60</timebase>
							<ntsc>TRUE</ntsc>
						</rate>
						<duration>18</duration>
						<start>11220</start>
						<end>11238</end>
						<in>5490</in>
						<out>5508</out>
					</clipitem>
					<clipitem frameBlend="FALSE" id="audioclip-655">
						<file id="file-1"/>
						<name>bandicam 2025-06-02 00-01-10-144 - Audio</name>
						<rate>
							<timebase>60</timebase>
							<ntsc>TRUE</ntsc>
						</rate>
						<rate>
							<timebase>60</timebase>
							<ntsc>TRUE</ntsc>
						</rate>
						<duration>0</duration>
						<start>11238</start>
						<end>11238</end>
						<in>5520</in>
						<out>5520</out>
					</clipitem>
					<clipitem frameBlend="FALSE" id="audioclip-656">
						<file id="file-1"/>
						<name>bandicam 2025-06-02 00-01-10-144 - Audio</name>
						<rate>
							<timebase>60</timebase>
							<ntsc>TRUE</ntsc>
						</rate>
						<rate>
							<timebase>60</timebase>
							<ntsc>TRUE</ntsc>
						</rate>
						<duration>18</duration>
						<start>11238</start>
						<end>11256</end>
						<in>5532</in>
						<out>5550</out>
					</clipitem>
					<clipitem frameBlend="FALSE" id="audioclip-657">
						<file id="file-1"/>
						<name>bandicam 2025-06-02 00-01-10-144 - Audio</name>
						<rate>
							<timebase>60</timebase>
							<ntsc>TRUE</ntsc>
						</rate>
						<rate>
							<timebase>60</timebase>
							<ntsc>TRUE</ntsc>
						</rate>
						<duration>18</duration>
						<start>11256</start>
						<end>11274</end>
						<in>5580</in>
						<out>5598</out>
					</clipitem>
					<clipitem frameBlend="FALSE" id="audioclip-658">
						<file id="file-1"/>
						<name>bandicam 2025-06-02 00-01-10-144 - Audio</name>
						<rate>
							<timebase>60</timebase>
							<ntsc>TRUE</ntsc>
						</rate>
						<rate>
							<timebase>60</timebase>
							<ntsc>TRUE</ntsc>
						</rate>
						<duration>18</duration>
						<start>11274</start>
						<end>11292</end>
						<in>5622</in>
						<out>5640</out>
					</clipitem>
					<clipitem frameBlend="FALSE" id="audioclip-659">
						<file id="file-1"/>
						<name>bandicam 2025-06-02 00-01-10-144 - Audio</name>
						<rate>
							<timebase>60</timebase>
							<ntsc>TRUE</ntsc>
						</rate>
						<rate>
							<timebase>60</timebase>
							<ntsc>TRUE</ntsc>
						</rate>
						<duration>30</duration>
						<start>11292</start>
						<end>11322</end>
						<in>5664</in>
						<out>5694</out>
					</clipitem>
					<clipitem frameBlend="FALSE" id="audioclip-660">
						<file id="file-1"/>
						<name>bandicam 2025-06-02 00-01-10-144 - Audio</name>
						<rate>
							<timebase>60</timebase>
							<ntsc>TRUE</ntsc>
						</rate>
						<rate>
							<timebase>60</timebase>
							<ntsc>TRUE</ntsc>
						</rate>
						<duration>0</duration>
						<start>11322</start>
						<end>11322</end>
						<in>5724</in>
						<out>5724</out>
					</clipitem>
					<clipitem frameBlend="FALSE" id="audioclip-661">
						<file id="file-1"/>
						<name>bandicam 2025-06-02 00-01-10-144 - Audio</name>
						<rate>
							<timebase>60</timebase>
							<ntsc>TRUE</ntsc>
						</rate>
						<rate>
							<timebase>60</timebase>
							<ntsc>TRUE</ntsc>
						</rate>
						<duration>30</duration>
						<start>11322</start>
						<end>11352</end>
						<in>5748</in>
						<out>5778</out>
					</clipitem>
					<clipitem frameBlend="FALSE" id="audioclip-662">
						<file id="file-1"/>
						<name>bandicam 2025-06-02 00-01-10-144 - Audio</name>
						<rate>
							<timebase>60</timebase>
							<ntsc>TRUE</ntsc>
						</rate>
						<rate>
							<timebase>60</timebase>
							<ntsc>TRUE</ntsc>
						</rate>
						<duration>96</duration>
						<start>11352</start>
						<end>11448</end>
						<in>5802</in>
						<out>5898</out>
					</clipitem>
					<clipitem frameBlend="FALSE" id="audioclip-663">
						<file id="file-1"/>
						<name>bandicam 2025-06-02 00-01-10-144 - Audio</name>
						<rate>
							<timebase>60</timebase>
							<ntsc>TRUE</ntsc>
						</rate>
						<rate>
							<timebase>60</timebase>
							<ntsc>TRUE</ntsc>
						</rate>
						<duration>72</duration>
						<start>11448</start>
						<end>11520</end>
						<in>5910</in>
						<out>5982</out>
					</clipitem>
					<clipitem frameBlend="FALSE" id="audioclip-664">
						<file id="file-1"/>
						<name>bandicam 2025-06-02 00-01-10-144 - Audio</name>
						<rate>
							<timebase>60</timebase>
							<ntsc>TRUE</ntsc>
						</rate>
						<rate>
							<timebase>60</timebase>
							<ntsc>TRUE</ntsc>
						</rate>
						<duration>36</duration>
						<start>11520</start>
						<end>11556</end>
						<in>6000</in>
						<out>6036</out>
					</clipitem>
					<clipitem frameBlend="FALSE" id="audioclip-665">
						<file id="file-1"/>
						<name>bandicam 2025-06-02 00-01-10-144 - Audio</name>
						<rate>
							<timebase>60</timebase>
							<ntsc>TRUE</ntsc>
						</rate>
						<rate>
							<timebase>60</timebase>
							<ntsc>TRUE</ntsc>
						</rate>
						<duration>18</duration>
						<start>11556</start>
						<end>11574</end>
						<in>6054</in>
						<out>6072</out>
					</clipitem>
					<clipitem frameBlend="FALSE" id="audioclip-666">
						<file id="file-1"/>
						<name>bandicam 2025-06-02 00-01-10-144 - Audio</name>
						<rate>
							<timebase>60</timebase>
							<ntsc>TRUE</ntsc>
						</rate>
						<rate>
							<timebase>60</timebase>
							<ntsc>TRUE</ntsc>
						</rate>
						<duration>0</duration>
						<start>11574</start>
						<end>11574</end>
						<in>6132</in>
						<out>6132</out>
					</clipitem>
					<clipitem frameBlend="FALSE" id="audioclip-667">
						<file id="file-1"/>
						<name>bandicam 2025-06-02 00-01-10-144 - Audio</name>
						<rate>
							<timebase>60</timebase>
							<ntsc>TRUE</ntsc>
						</rate>
						<rate>
							<timebase>60</timebase>
							<ntsc>TRUE</ntsc>
						</rate>
						<duration>48</duration>
						<start>11574</start>
						<end>11622</end>
						<in>6156</in>
						<out>6204</out>
					</clipitem>
					<clipitem frameBlend="FALSE" id="audioclip-668">
						<file id="file-1"/>
						<name>bandicam 2025-06-02 00-01-10-144 - Audio</name>
						<rate>
							<timebase>60</timebase>
							<ntsc>TRUE</ntsc>
						</rate>
						<rate>
							<timebase>60</timebase>
							<ntsc>TRUE</ntsc>
						</rate>
						<duration>36</duration>
						<start>11622</start>
						<end>11658</end>
						<in>6222</in>
						<out>6258</out>
					</clipitem>
					<clipitem frameBlend="FALSE" id="audioclip-669">
						<file id="file-1"/>
						<name>bandicam 2025-06-02 00-01-10-144 - Audio</name>
						<rate>
							<timebase>60</timebase>
							<ntsc>TRUE</ntsc>
						</rate>
						<rate>
							<timebase>60</timebase>
							<ntsc>TRUE</ntsc>
						</rate>
						<duration>0</duration>
						<start>11658</start>
						<end>11658</end>
						<in>6282</in>
						<out>6282</out>
					</clipitem>
					<clipitem frameBlend="FALSE" id="audioclip-670">
						<file id="file-1"/>
						<name>bandicam 2025-06-02 00-01-10-144 - Audio</name>
						<rate>
							<timebase>60</timebase>
							<ntsc>TRUE</ntsc>
						</rate>
						<rate>
							<timebase>60</timebase>
							<ntsc>TRUE</ntsc>
						</rate>
						<duration>18</duration>
						<start>11658</start>
						<end>11676</end>
						<in>6312</in>
						<out>6330</out>
					</clipitem>
					<clipitem frameBlend="FALSE" id="audioclip-671">
						<file id="file-1"/>
						<name>bandicam 2025-06-02 00-01-10-144 - Audio</name>
						<rate>
							<timebase>60</timebase>
							<ntsc>TRUE</ntsc>
						</rate>
						<rate>
							<timebase>60</timebase>
							<ntsc>TRUE</ntsc>
						</rate>
						<duration>18</duration>
						<start>11676</start>
						<end>11694</end>
						<in>6384</in>
						<out>6402</out>
					</clipitem>
					<clipitem frameBlend="FALSE" id="audioclip-672">
						<file id="file-1"/>
						<name>bandicam 2025-06-02 00-01-10-144 - Audio</name>
						<rate>
							<timebase>60</timebase>
							<ntsc>TRUE</ntsc>
						</rate>
						<rate>
							<timebase>60</timebase>
							<ntsc>TRUE</ntsc>
						</rate>
						<duration>18</duration>
						<start>11694</start>
						<end>11712</end>
						<in>6432</in>
						<out>6450</out>
					</clipitem>
					<clipitem frameBlend="FALSE" id="audioclip-673">
						<file id="file-1"/>
						<name>bandicam 2025-06-02 00-01-10-144 - Audio</name>
						<rate>
							<timebase>60</timebase>
							<ntsc>TRUE</ntsc>
						</rate>
						<rate>
							<timebase>60</timebase>
							<ntsc>TRUE</ntsc>
						</rate>
						<duration>0</duration>
						<start>11712</start>
						<end>11712</end>
						<in>6486</in>
						<out>6486</out>
					</clipitem>
					<clipitem frameBlend="FALSE" id="audioclip-674">
						<file id="file-1"/>
						<name>bandicam 2025-06-02 00-01-10-144 - Audio</name>
						<rate>
							<timebase>60</timebase>
							<ntsc>TRUE</ntsc>
						</rate>
						<rate>
							<timebase>60</timebase>
							<ntsc>TRUE</ntsc>
						</rate>
						<duration>36</duration>
						<start>11712</start>
						<end>11748</end>
						<in>6498</in>
						<out>6534</out>
					</clipitem>
					<clipitem frameBlend="FALSE" id="audioclip-675">
						<file id="file-1"/>
						<name>bandicam 2025-06-02 00-01-10-144 - Audio</name>
						<rate>
							<timebase>60</timebase>
							<ntsc>TRUE</ntsc>
						</rate>
						<rate>
							<timebase>60</timebase>
							<ntsc>TRUE</ntsc>
						</rate>
						<duration>6</duration>
						<start>11748</start>
						<end>11754</end>
						<in>6576</in>
						<out>6582</out>
					</clipitem>
					<clipitem frameBlend="FALSE" id="audioclip-676">
						<file id="file-1"/>
						<name>bandicam 2025-06-02 00-01-10-144 - Audio</name>
						<rate>
							<timebase>60</timebase>
							<ntsc>TRUE</ntsc>
						</rate>
						<rate>
							<timebase>60</timebase>
							<ntsc>TRUE</ntsc>
						</rate>
						<duration>18</duration>
						<start>11754</start>
						<end>11772</end>
						<in>6612</in>
						<out>6630</out>
					</clipitem>
					<clipitem frameBlend="FALSE" id="audioclip-677">
						<file id="file-1"/>
						<name>bandicam 2025-06-02 00-01-10-144 - Audio</name>
						<rate>
							<timebase>60</timebase>
							<ntsc>TRUE</ntsc>
						</rate>
						<rate>
							<timebase>60</timebase>
							<ntsc>TRUE</ntsc>
						</rate>
						<duration>12</duration>
						<start>11772</start>
						<end>11784</end>
						<in>6750</in>
						<out>6762</out>
					</clipitem>
					<clipitem frameBlend="FALSE" id="audioclip-678">
						<file id="file-1"/>
						<name>bandicam 2025-06-02 00-01-10-144 - Audio</name>
						<rate>
							<timebase>60</timebase>
							<ntsc>TRUE</ntsc>
						</rate>
						<rate>
							<timebase>60</timebase>
							<ntsc>TRUE</ntsc>
						</rate>
						<duration>6</duration>
						<start>11784</start>
						<end>11790</end>
						<in>6810</in>
						<out>6816</out>
					</clipitem>
					<clipitem frameBlend="FALSE" id="audioclip-679">
						<file id="file-1"/>
						<name>bandicam 2025-06-02 00-01-10-144 - Audio</name>
						<rate>
							<timebase>60</timebase>
							<ntsc>TRUE</ntsc>
						</rate>
						<rate>
							<timebase>60</timebase>
							<ntsc>TRUE</ntsc>
						</rate>
						<duration>18</duration>
						<start>11790</start>
						<end>11808</end>
						<in>6828</in>
						<out>6846</out>
					</clipitem>
					<clipitem frameBlend="FALSE" id="audioclip-680">
						<file id="file-1"/>
						<name>bandicam 2025-06-02 00-01-10-144 - Audio</name>
						<rate>
							<timebase>60</timebase>
							<ntsc>TRUE</ntsc>
						</rate>
						<rate>
							<timebase>60</timebase>
							<ntsc>TRUE</ntsc>
						</rate>
						<duration>6</duration>
						<start>11808</start>
						<end>11814</end>
						<in>6894</in>
						<out>6900</out>
					</clipitem>
					<clipitem frameBlend="FALSE" id="audioclip-681">
						<file id="file-1"/>
						<name>bandicam 2025-06-02 00-01-10-144 - Audio</name>
						<rate>
							<timebase>60</timebase>
							<ntsc>TRUE</ntsc>
						</rate>
						<rate>
							<timebase>60</timebase>
							<ntsc>TRUE</ntsc>
						</rate>
						<duration>18</duration>
						<start>11814</start>
						<end>11832</end>
						<in>6912</in>
						<out>6930</out>
					</clipitem>
					<clipitem frameBlend="FALSE" id="audioclip-682">
						<file id="file-1"/>
						<name>bandicam 2025-06-02 00-01-10-144 - Audio</name>
						<rate>
							<timebase>60</timebase>
							<ntsc>TRUE</ntsc>
						</rate>
						<rate>
							<timebase>60</timebase>
							<ntsc>TRUE</ntsc>
						</rate>
						<duration>0</duration>
						<start>11832</start>
						<end>11832</end>
						<in>6954</in>
						<out>6954</out>
					</clipitem>
					<clipitem frameBlend="FALSE" id="audioclip-683">
						<file id="file-1"/>
						<name>bandicam 2025-06-02 00-01-10-144 - Audio</name>
						<rate>
							<timebase>60</timebase>
							<ntsc>TRUE</ntsc>
						</rate>
						<rate>
							<timebase>60</timebase>
							<ntsc>TRUE</ntsc>
						</rate>
						<duration>0</duration>
						<start>11832</start>
						<end>11832</end>
						<in>7002</in>
						<out>7002</out>
					</clipitem>
					<clipitem frameBlend="FALSE" id="audioclip-684">
						<file id="file-1"/>
						<name>bandicam 2025-06-02 00-01-10-144 - Audio</name>
						<rate>
							<timebase>60</timebase>
							<ntsc>TRUE</ntsc>
						</rate>
						<rate>
							<timebase>60</timebase>
							<ntsc>TRUE</ntsc>
						</rate>
						<duration>18</duration>
						<start>11832</start>
						<end>11850</end>
						<in>7026</in>
						<out>7044</out>
					</clipitem>
					<clipitem frameBlend="FALSE" id="audioclip-685">
						<file id="file-1"/>
						<name>bandicam 2025-06-02 00-01-10-144 - Audio</name>
						<rate>
							<timebase>60</timebase>
							<ntsc>TRUE</ntsc>
						</rate>
						<rate>
							<timebase>60</timebase>
							<ntsc>TRUE</ntsc>
						</rate>
						<duration>6</duration>
						<start>11850</start>
						<end>11856</end>
						<in>12</in>
						<out>18</out>
					</clipitem>
					<clipitem frameBlend="FALSE" id="audioclip-686">
						<file id="file-1"/>
						<name>bandicam 2025-06-02 00-01-10-144 - Audio</name>
						<rate>
							<timebase>60</timebase>
							<ntsc>TRUE</ntsc>
						</rate>
						<rate>
							<timebase>60</timebase>
							<ntsc>TRUE</ntsc>
						</rate>
						<duration>0</duration>
						<start>11856</start>
						<end>11856</end>
						<in>60</in>
						<out>60</out>
					</clipitem>
					<clipitem frameBlend="FALSE" id="audioclip-687">
						<file id="file-1"/>
						<name>bandicam 2025-06-02 00-01-10-144 - Audio</name>
						<rate>
							<timebase>60</timebase>
							<ntsc>TRUE</ntsc>
						</rate>
						<rate>
							<timebase>60</timebase>
							<ntsc>TRUE</ntsc>
						</rate>
						<duration>12</duration>
						<start>11856</start>
						<end>11868</end>
						<in>78</in>
						<out>90</out>
					</clipitem>
					<clipitem frameBlend="FALSE" id="audioclip-688">
						<file id="file-1"/>
						<name>bandicam 2025-06-02 00-01-10-144 - Audio</name>
						<rate>
							<timebase>60</timebase>
							<ntsc>TRUE</ntsc>
						</rate>
						<rate>
							<timebase>60</timebase>
							<ntsc>TRUE</ntsc>
						</rate>
						<duration>18</duration>
						<start>11868</start>
						<end>11886</end>
						<in>108</in>
						<out>126</out>
					</clipitem>
					<clipitem frameBlend="FALSE" id="audioclip-689">
						<file id="file-1"/>
						<name>bandicam 2025-06-02 00-01-10-144 - Audio</name>
						<rate>
							<timebase>60</timebase>
							<ntsc>TRUE</ntsc>
						</rate>
						<rate>
							<timebase>60</timebase>
							<ntsc>TRUE</ntsc>
						</rate>
						<duration>12</duration>
						<start>11886</start>
						<end>11898</end>
						<in>174</in>
						<out>186</out>
					</clipitem>
					<clipitem frameBlend="FALSE" id="audioclip-690">
						<file id="file-1"/>
						<name>bandicam 2025-06-02 00-01-10-144 - Audio</name>
						<rate>
							<timebase>60</timebase>
							<ntsc>TRUE</ntsc>
						</rate>
						<rate>
							<timebase>60</timebase>
							<ntsc>TRUE</ntsc>
						</rate>
						<duration>0</duration>
						<start>11898</start>
						<end>11898</end>
						<in>300</in>
						<out>300</out>
					</clipitem>
					<clipitem frameBlend="FALSE" id="audioclip-691">
						<file id="file-1"/>
						<name>bandicam 2025-06-02 00-01-10-144 - Audio</name>
						<rate>
							<timebase>60</timebase>
							<ntsc>TRUE</ntsc>
						</rate>
						<rate>
							<timebase>60</timebase>
							<ntsc>TRUE</ntsc>
						</rate>
						<duration>12</duration>
						<start>11898</start>
						<end>11910</end>
						<in>360</in>
						<out>372</out>
					</clipitem>
					<clipitem frameBlend="FALSE" id="audioclip-692">
						<file id="file-1"/>
						<name>bandicam 2025-06-02 00-01-10-144 - Audio</name>
						<rate>
							<timebase>60</timebase>
							<ntsc>TRUE</ntsc>
						</rate>
						<rate>
							<timebase>60</timebase>
							<ntsc>TRUE</ntsc>
						</rate>
						<duration>0</duration>
						<start>11910</start>
						<end>11910</end>
						<in>438</in>
						<out>438</out>
					</clipitem>
					<clipitem frameBlend="FALSE" id="audioclip-693">
						<file id="file-1"/>
						<name>bandicam 2025-06-02 00-01-10-144 - Audio</name>
						<rate>
							<timebase>60</timebase>
							<ntsc>TRUE</ntsc>
						</rate>
						<rate>
							<timebase>60</timebase>
							<ntsc>TRUE</ntsc>
						</rate>
						<duration>36</duration>
						<start>11910</start>
						<end>11946</end>
						<in>450</in>
						<out>486</out>
					</clipitem>
					<clipitem frameBlend="FALSE" id="audioclip-694">
						<file id="file-1"/>
						<name>bandicam 2025-06-02 00-01-10-144 - Audio</name>
						<rate>
							<timebase>60</timebase>
							<ntsc>TRUE</ntsc>
						</rate>
						<rate>
							<timebase>60</timebase>
							<ntsc>TRUE</ntsc>
						</rate>
						<duration>0</duration>
						<start>11946</start>
						<end>11946</end>
						<in>504</in>
						<out>504</out>
					</clipitem>
					<clipitem frameBlend="FALSE" id="audioclip-695">
						<file id="file-1"/>
						<name>bandicam 2025-06-02 00-01-10-144 - Audio</name>
						<rate>
							<timebase>60</timebase>
							<ntsc>TRUE</ntsc>
						</rate>
						<rate>
							<timebase>60</timebase>
							<ntsc>TRUE</ntsc>
						</rate>
						<duration>12</duration>
						<start>11946</start>
						<end>11958</end>
						<in>528</in>
						<out>540</out>
					</clipitem>
					<clipitem frameBlend="FALSE" id="audioclip-696">
						<file id="file-1"/>
						<name>bandicam 2025-06-02 00-01-10-144 - Audio</name>
						<rate>
							<timebase>60</timebase>
							<ntsc>TRUE</ntsc>
						</rate>
						<rate>
							<timebase>60</timebase>
							<ntsc>TRUE</ntsc>
						</rate>
						<duration>24</duration>
						<start>11958</start>
						<end>11982</end>
						<in>582</in>
						<out>606</out>
					</clipitem>
					<clipitem frameBlend="FALSE" id="audioclip-697">
						<file id="file-1"/>
						<name>bandicam 2025-06-02 00-01-10-144 - Audio</name>
						<rate>
							<timebase>60</timebase>
							<ntsc>TRUE</ntsc>
						</rate>
						<rate>
							<timebase>60</timebase>
							<ntsc>TRUE</ntsc>
						</rate>
						<duration>12</duration>
						<start>11982</start>
						<end>11994</end>
						<in>624</in>
						<out>636</out>
					</clipitem>
					<clipitem frameBlend="FALSE" id="audioclip-698">
						<file id="file-1"/>
						<name>bandicam 2025-06-02 00-01-10-144 - Audio</name>
						<rate>
							<timebase>60</timebase>
							<ntsc>TRUE</ntsc>
						</rate>
						<rate>
							<timebase>60</timebase>
							<ntsc>TRUE</ntsc>
						</rate>
						<duration>0</duration>
						<start>11994</start>
						<end>11994</end>
						<in>852</in>
						<out>852</out>
					</clipitem>
					<clipitem frameBlend="FALSE" id="audioclip-699">
						<file id="file-1"/>
						<name>bandicam 2025-06-02 00-01-10-144 - Audio</name>
						<rate>
							<timebase>60</timebase>
							<ntsc>TRUE</ntsc>
						</rate>
						<rate>
							<timebase>60</timebase>
							<ntsc>TRUE</ntsc>
						</rate>
						<duration>0</duration>
						<start>11994</start>
						<end>11994</end>
						<in>912</in>
						<out>912</out>
					</clipitem>
					<clipitem frameBlend="FALSE" id="audioclip-700">
						<file id="file-1"/>
						<name>bandicam 2025-06-02 00-01-10-144 - Audio</name>
						<rate>
							<timebase>60</timebase>
							<ntsc>TRUE</ntsc>
						</rate>
						<rate>
							<timebase>60</timebase>
							<ntsc>TRUE</ntsc>
						</rate>
						<duration>0</duration>
						<start>11994</start>
						<end>11994</end>
						<in>936</in>
						<out>936</out>
					</clipitem>
					<clipitem frameBlend="FALSE" id="audioclip-701">
						<file id="file-1"/>
						<name>bandicam 2025-06-02 00-01-10-144 - Audio</name>
						<rate>
							<timebase>60</timebase>
							<ntsc>TRUE</ntsc>
						</rate>
						<rate>
							<timebase>60</timebase>
							<ntsc>TRUE</ntsc>
						</rate>
						<duration>0</duration>
						<start>11994</start>
						<end>11994</end>
						<in>954</in>
						<out>954</out>
					</clipitem>
					<clipitem frameBlend="FALSE" id="audioclip-702">
						<file id="file-1"/>
						<name>bandicam 2025-06-02 00-01-10-144 - Audio</name>
						<rate>
							<timebase>60</timebase>
							<ntsc>TRUE</ntsc>
						</rate>
						<rate>
							<timebase>60</timebase>
							<ntsc>TRUE</ntsc>
						</rate>
						<duration>12</duration>
						<start>11994</start>
						<end>12006</end>
						<in>984</in>
						<out>996</out>
					</clipitem>
					<clipitem frameBlend="FALSE" id="audioclip-703">
						<file id="file-1"/>
						<name>bandicam 2025-06-02 00-01-10-144 - Audio</name>
						<rate>
							<timebase>60</timebase>
							<ntsc>TRUE</ntsc>
						</rate>
						<rate>
							<timebase>60</timebase>
							<ntsc>TRUE</ntsc>
						</rate>
						<duration>12</duration>
						<start>12006</start>
						<end>12018</end>
						<in>1086</in>
						<out>1098</out>
					</clipitem>
					<clipitem frameBlend="FALSE" id="audioclip-704">
						<file id="file-1"/>
						<name>bandicam 2025-06-02 00-01-10-144 - Audio</name>
						<rate>
							<timebase>60</timebase>
							<ntsc>TRUE</ntsc>
						</rate>
						<rate>
							<timebase>60</timebase>
							<ntsc>TRUE</ntsc>
						</rate>
						<duration>0</duration>
						<start>12018</start>
						<end>12018</end>
						<in>1194</in>
						<out>1194</out>
					</clipitem>
					<clipitem frameBlend="FALSE" id="audioclip-705">
						<file id="file-1"/>
						<name>bandicam 2025-06-02 00-01-10-144 - Audio</name>
						<rate>
							<timebase>60</timebase>
							<ntsc>TRUE</ntsc>
						</rate>
						<rate>
							<timebase>60</timebase>
							<ntsc>TRUE</ntsc>
						</rate>
						<duration>12</duration>
						<start>12018</start>
						<end>12030</end>
						<in>1206</in>
						<out>1218</out>
					</clipitem>
					<clipitem frameBlend="FALSE" id="audioclip-706">
						<file id="file-1"/>
						<name>bandicam 2025-06-02 00-01-10-144 - Audio</name>
						<rate>
							<timebase>60</timebase>
							<ntsc>TRUE</ntsc>
						</rate>
						<rate>
							<timebase>60</timebase>
							<ntsc>TRUE</ntsc>
						</rate>
						<duration>0</duration>
						<start>12030</start>
						<end>12030</end>
						<in>1320</in>
						<out>1320</out>
					</clipitem>
					<clipitem frameBlend="FALSE" id="audioclip-707">
						<file id="file-1"/>
						<name>bandicam 2025-06-02 00-01-10-144 - Audio</name>
						<rate>
							<timebase>60</timebase>
							<ntsc>TRUE</ntsc>
						</rate>
						<rate>
							<timebase>60</timebase>
							<ntsc>TRUE</ntsc>
						</rate>
						<duration>0</duration>
						<start>12030</start>
						<end>12030</end>
						<in>1386</in>
						<out>1386</out>
					</clipitem>
					<clipitem frameBlend="FALSE" id="audioclip-708">
						<file id="file-1"/>
						<name>bandicam 2025-06-02 00-01-10-144 - Audio</name>
						<rate>
							<timebase>60</timebase>
							<ntsc>TRUE</ntsc>
						</rate>
						<rate>
							<timebase>60</timebase>
							<ntsc>TRUE</ntsc>
						</rate>
						<duration>18</duration>
						<start>12030</start>
						<end>12048</end>
						<in>1404</in>
						<out>1422</out>
					</clipitem>
					<clipitem frameBlend="FALSE" id="audioclip-709">
						<file id="file-1"/>
						<name>bandicam 2025-06-02 00-01-10-144 - Audio</name>
						<rate>
							<timebase>60</timebase>
							<ntsc>TRUE</ntsc>
						</rate>
						<rate>
							<timebase>60</timebase>
							<ntsc>TRUE</ntsc>
						</rate>
						<duration>12</duration>
						<start>12048</start>
						<end>12060</end>
						<in>1446</in>
						<out>1458</out>
					</clipitem>
					<clipitem frameBlend="FALSE" id="audioclip-710">
						<file id="file-1"/>
						<name>bandicam 2025-06-02 00-01-10-144 - Audio</name>
						<rate>
							<timebase>60</timebase>
							<ntsc>TRUE</ntsc>
						</rate>
						<rate>
							<timebase>60</timebase>
							<ntsc>TRUE</ntsc>
						</rate>
						<duration>12</duration>
						<start>12060</start>
						<end>12072</end>
						<in>1566</in>
						<out>1578</out>
					</clipitem>
					<clipitem frameBlend="FALSE" id="audioclip-711">
						<file id="file-1"/>
						<name>bandicam 2025-06-02 00-01-10-144 - Audio</name>
						<rate>
							<timebase>60</timebase>
							<ntsc>TRUE</ntsc>
						</rate>
						<rate>
							<timebase>60</timebase>
							<ntsc>TRUE</ntsc>
						</rate>
						<duration>30</duration>
						<start>12072</start>
						<end>12102</end>
						<in>1692</in>
						<out>1722</out>
					</clipitem>
					<clipitem frameBlend="FALSE" id="audioclip-712">
						<file id="file-1"/>
						<name>bandicam 2025-06-02 00-01-10-144 - Audio</name>
						<rate>
							<timebase>60</timebase>
							<ntsc>TRUE</ntsc>
						</rate>
						<rate>
							<timebase>60</timebase>
							<ntsc>TRUE</ntsc>
						</rate>
						<duration>12</duration>
						<start>12102</start>
						<end>12114</end>
						<in>1746</in>
						<out>1758</out>
					</clipitem>
					<clipitem frameBlend="FALSE" id="audioclip-713">
						<file id="file-1"/>
						<name>bandicam 2025-06-02 00-01-10-144 - Audio</name>
						<rate>
							<timebase>60</timebase>
							<ntsc>TRUE</ntsc>
						</rate>
						<rate>
							<timebase>60</timebase>
							<ntsc>TRUE</ntsc>
						</rate>
						<duration>0</duration>
						<start>12114</start>
						<end>12114</end>
						<in>1776</in>
						<out>1776</out>
					</clipitem>
					<clipitem frameBlend="FALSE" id="audioclip-714">
						<file id="file-1"/>
						<name>bandicam 2025-06-02 00-01-10-144 - Audio</name>
						<rate>
							<timebase>60</timebase>
							<ntsc>TRUE</ntsc>
						</rate>
						<rate>
							<timebase>60</timebase>
							<ntsc>TRUE</ntsc>
						</rate>
						<duration>0</duration>
						<start>12114</start>
						<end>12114</end>
						<in>1812</in>
						<out>1812</out>
					</clipitem>
					<clipitem frameBlend="FALSE" id="audioclip-715">
						<file id="file-1"/>
						<name>bandicam 2025-06-02 00-01-10-144 - Audio</name>
						<rate>
							<timebase>60</timebase>
							<ntsc>TRUE</ntsc>
						</rate>
						<rate>
							<timebase>60</timebase>
							<ntsc>TRUE</ntsc>
						</rate>
						<duration>0</duration>
						<start>12114</start>
						<end>12114</end>
						<in>1830</in>
						<out>1830</out>
					</clipitem>
					<clipitem frameBlend="FALSE" id="audioclip-716">
						<file id="file-1"/>
						<name>bandicam 2025-06-02 00-01-10-144 - Audio</name>
						<rate>
							<timebase>60</timebase>
							<ntsc>TRUE</ntsc>
						</rate>
						<rate>
							<timebase>60</timebase>
							<ntsc>TRUE</ntsc>
						</rate>
						<duration>12</duration>
						<start>12114</start>
						<end>12126</end>
						<in>1842</in>
						<out>1854</out>
					</clipitem>
					<clipitem frameBlend="FALSE" id="audioclip-717">
						<file id="file-1"/>
						<name>bandicam 2025-06-02 00-01-10-144 - Audio</name>
						<rate>
							<timebase>60</timebase>
							<ntsc>TRUE</ntsc>
						</rate>
						<rate>
							<timebase>60</timebase>
							<ntsc>TRUE</ntsc>
						</rate>
						<duration>0</duration>
						<start>12126</start>
						<end>12126</end>
						<in>1872</in>
						<out>1872</out>
					</clipitem>
					<clipitem frameBlend="FALSE" id="audioclip-718">
						<file id="file-1"/>
						<name>bandicam 2025-06-02 00-01-10-144 - Audio</name>
						<rate>
							<timebase>60</timebase>
							<ntsc>TRUE</ntsc>
						</rate>
						<rate>
							<timebase>60</timebase>
							<ntsc>TRUE</ntsc>
						</rate>
						<duration>6</duration>
						<start>12126</start>
						<end>12132</end>
						<in>1884</in>
						<out>1890</out>
					</clipitem>
					<clipitem frameBlend="FALSE" id="audioclip-719">
						<file id="file-1"/>
						<name>bandicam 2025-06-02 00-01-10-144 - Audio</name>
						<rate>
							<timebase>60</timebase>
							<ntsc>TRUE</ntsc>
						</rate>
						<rate>
							<timebase>60</timebase>
							<ntsc>TRUE</ntsc>
						</rate>
						<duration>12</duration>
						<start>12132</start>
						<end>12144</end>
						<in>1926</in>
						<out>1938</out>
					</clipitem>
					<clipitem frameBlend="FALSE" id="audioclip-720">
						<file id="file-1"/>
						<name>bandicam 2025-06-02 00-01-10-144 - Audio</name>
						<rate>
							<timebase>60</timebase>
							<ntsc>TRUE</ntsc>
						</rate>
						<rate>
							<timebase>60</timebase>
							<ntsc>TRUE</ntsc>
						</rate>
						<duration>12</duration>
						<start>12144</start>
						<end>12156</end>
						<in>2178</in>
						<out>2190</out>
					</clipitem>
					<clipitem frameBlend="FALSE" id="audioclip-721">
						<file id="file-1"/>
						<name>bandicam 2025-06-02 00-01-10-144 - Audio</name>
						<rate>
							<timebase>60</timebase>
							<ntsc>TRUE</ntsc>
						</rate>
						<rate>
							<timebase>60</timebase>
							<ntsc>TRUE</ntsc>
						</rate>
						<duration>12</duration>
						<start>12156</start>
						<end>12168</end>
						<in>2280</in>
						<out>2292</out>
					</clipitem>
					<clipitem frameBlend="FALSE" id="audioclip-722">
						<file id="file-1"/>
						<name>bandicam 2025-06-02 00-01-10-144 - Audio</name>
						<rate>
							<timebase>60</timebase>
							<ntsc>TRUE</ntsc>
						</rate>
						<rate>
							<timebase>60</timebase>
							<ntsc>TRUE</ntsc>
						</rate>
						<duration>42</duration>
						<start>12168</start>
						<end>12210</end>
						<in>2304</in>
						<out>2346</out>
					</clipitem>
					<clipitem frameBlend="FALSE" id="audioclip-723">
						<file id="file-1"/>
						<name>bandicam 2025-06-02 00-01-10-144 - Audio</name>
						<rate>
							<timebase>60</timebase>
							<ntsc>TRUE</ntsc>
						</rate>
						<rate>
							<timebase>60</timebase>
							<ntsc>TRUE</ntsc>
						</rate>
						<duration>12</duration>
						<start>12210</start>
						<end>12222</end>
						<in>2448</in>
						<out>2460</out>
					</clipitem>
					<clipitem frameBlend="FALSE" id="audioclip-724">
						<file id="file-1"/>
						<name>bandicam 2025-06-02 00-01-10-144 - Audio</name>
						<rate>
							<timebase>60</timebase>
							<ntsc>TRUE</ntsc>
						</rate>
						<rate>
							<timebase>60</timebase>
							<ntsc>TRUE</ntsc>
						</rate>
						<duration>6</duration>
						<start>12222</start>
						<end>12228</end>
						<in>2478</in>
						<out>2484</out>
					</clipitem>
					<clipitem frameBlend="FALSE" id="audioclip-725">
						<file id="file-1"/>
						<name>bandicam 2025-06-02 00-01-10-144 - Audio</name>
						<rate>
							<timebase>60</timebase>
							<ntsc>TRUE</ntsc>
						</rate>
						<rate>
							<timebase>60</timebase>
							<ntsc>TRUE</ntsc>
						</rate>
						<duration>6</duration>
						<start>12228</start>
						<end>12234</end>
						<in>2496</in>
						<out>2502</out>
					</clipitem>
					<clipitem frameBlend="FALSE" id="audioclip-726">
						<file id="file-1"/>
						<name>bandicam 2025-06-02 00-01-10-144 - Audio</name>
						<rate>
							<timebase>60</timebase>
							<ntsc>TRUE</ntsc>
						</rate>
						<rate>
							<timebase>60</timebase>
							<ntsc>TRUE</ntsc>
						</rate>
						<duration>0</duration>
						<start>12234</start>
						<end>12234</end>
						<in>2538</in>
						<out>2538</out>
					</clipitem>
					<clipitem frameBlend="FALSE" id="audioclip-727">
						<file id="file-1"/>
						<name>bandicam 2025-06-02 00-01-10-144 - Audio</name>
						<rate>
							<timebase>60</timebase>
							<ntsc>TRUE</ntsc>
						</rate>
						<rate>
							<timebase>60</timebase>
							<ntsc>TRUE</ntsc>
						</rate>
						<duration>12</duration>
						<start>12234</start>
						<end>12246</end>
						<in>2592</in>
						<out>2604</out>
					</clipitem>
					<clipitem frameBlend="FALSE" id="audioclip-728">
						<file id="file-1"/>
						<name>bandicam 2025-06-02 00-01-10-144 - Audio</name>
						<rate>
							<timebase>60</timebase>
							<ntsc>TRUE</ntsc>
						</rate>
						<rate>
							<timebase>60</timebase>
							<ntsc>TRUE</ntsc>
						</rate>
						<duration>12</duration>
						<start>12246</start>
						<end>12258</end>
						<in>2616</in>
						<out>2628</out>
					</clipitem>
					<clipitem frameBlend="FALSE" id="audioclip-729">
						<file id="file-1"/>
						<name>bandicam 2025-06-02 00-01-10-144 - Audio</name>
						<rate>
							<timebase>60</timebase>
							<ntsc>TRUE</ntsc>
						</rate>
						<rate>
							<timebase>60</timebase>
							<ntsc>TRUE</ntsc>
						</rate>
						<duration>0</duration>
						<start>12258</start>
						<end>12258</end>
						<in>2640</in>
						<out>2640</out>
					</clipitem>
					<clipitem frameBlend="FALSE" id="audioclip-730">
						<file id="file-1"/>
						<name>bandicam 2025-06-02 00-01-10-144 - Audio</name>
						<rate>
							<timebase>60</timebase>
							<ntsc>TRUE</ntsc>
						</rate>
						<rate>
							<timebase>60</timebase>
							<ntsc>TRUE</ntsc>
						</rate>
						<duration>12</duration>
						<start>12258</start>
						<end>12270</end>
						<in>2652</in>
						<out>2664</out>
					</clipitem>
					<clipitem frameBlend="FALSE" id="audioclip-731">
						<file id="file-1"/>
						<name>bandicam 2025-06-02 00-01-10-144 - Audio</name>
						<rate>
							<timebase>60</timebase>
							<ntsc>TRUE</ntsc>
						</rate>
						<rate>
							<timebase>60</timebase>
							<ntsc>TRUE</ntsc>
						</rate>
						<duration>48</duration>
						<start>12270</start>
						<end>12318</end>
						<in>2724</in>
						<out>2772</out>
					</clipitem>
					<clipitem frameBlend="FALSE" id="audioclip-732">
						<file id="file-1"/>
						<name>bandicam 2025-06-02 00-01-10-144 - Audio</name>
						<rate>
							<timebase>60</timebase>
							<ntsc>TRUE</ntsc>
						</rate>
						<rate>
							<timebase>60</timebase>
							<ntsc>TRUE</ntsc>
						</rate>
						<duration>42</duration>
						<start>12318</start>
						<end>12360</end>
						<in>2796</in>
						<out>2838</out>
					</clipitem>
					<clipitem frameBlend="FALSE" id="audioclip-733">
						<file id="file-1"/>
						<name>bandicam 2025-06-02 00-01-10-144 - Audio</name>
						<rate>
							<timebase>60</timebase>
							<ntsc>TRUE</ntsc>
						</rate>
						<rate>
							<timebase>60</timebase>
							<ntsc>TRUE</ntsc>
						</rate>
						<duration>18</duration>
						<start>12360</start>
						<end>12378</end>
						<in>2868</in>
						<out>2886</out>
					</clipitem>
					<clipitem frameBlend="FALSE" id="audioclip-734">
						<file id="file-1"/>
						<name>bandicam 2025-06-02 00-01-10-144 - Audio</name>
						<rate>
							<timebase>60</timebase>
							<ntsc>TRUE</ntsc>
						</rate>
						<rate>
							<timebase>60</timebase>
							<ntsc>TRUE</ntsc>
						</rate>
						<duration>6</duration>
						<start>12378</start>
						<end>12384</end>
						<in>2904</in>
						<out>2910</out>
					</clipitem>
					<clipitem frameBlend="FALSE" id="audioclip-735">
						<file id="file-1"/>
						<name>bandicam 2025-06-02 00-01-10-144 - Audio</name>
						<rate>
							<timebase>60</timebase>
							<ntsc>TRUE</ntsc>
						</rate>
						<rate>
							<timebase>60</timebase>
							<ntsc>TRUE</ntsc>
						</rate>
						<duration>0</duration>
						<start>12384</start>
						<end>12384</end>
						<in>2946</in>
						<out>2946</out>
					</clipitem>
					<clipitem frameBlend="FALSE" id="audioclip-736">
						<file id="file-1"/>
						<name>bandicam 2025-06-02 00-01-10-144 - Audio</name>
						<rate>
							<timebase>60</timebase>
							<ntsc>TRUE</ntsc>
						</rate>
						<rate>
							<timebase>60</timebase>
							<ntsc>TRUE</ntsc>
						</rate>
						<duration>12</duration>
						<start>12384</start>
						<end>12396</end>
						<in>2964</in>
						<out>2976</out>
					</clipitem>
					<clipitem frameBlend="FALSE" id="audioclip-737">
						<file id="file-1"/>
						<name>bandicam 2025-06-02 00-01-10-144 - Audio</name>
						<rate>
							<timebase>60</timebase>
							<ntsc>TRUE</ntsc>
						</rate>
						<rate>
							<timebase>60</timebase>
							<ntsc>TRUE</ntsc>
						</rate>
						<duration>42</duration>
						<start>12396</start>
						<end>12438</end>
						<in>3060</in>
						<out>3102</out>
					</clipitem>
					<clipitem frameBlend="FALSE" id="audioclip-738">
						<file id="file-1"/>
						<name>bandicam 2025-06-02 00-01-10-144 - Audio</name>
						<rate>
							<timebase>60</timebase>
							<ntsc>TRUE</ntsc>
						</rate>
						<rate>
							<timebase>60</timebase>
							<ntsc>TRUE</ntsc>
						</rate>
						<duration>12</duration>
						<start>12438</start>
						<end>12450</end>
						<in>3120</in>
						<out>3132</out>
					</clipitem>
					<clipitem frameBlend="FALSE" id="audioclip-739">
						<file id="file-1"/>
						<name>bandicam 2025-06-02 00-01-10-144 - Audio</name>
						<rate>
							<timebase>60</timebase>
							<ntsc>TRUE</ntsc>
						</rate>
						<rate>
							<timebase>60</timebase>
							<ntsc>TRUE</ntsc>
						</rate>
						<duration>12</duration>
						<start>12450</start>
						<end>12462</end>
						<in>3228</in>
						<out>3240</out>
					</clipitem>
					<clipitem frameBlend="FALSE" id="audioclip-740">
						<file id="file-1"/>
						<name>bandicam 2025-06-02 00-01-10-144 - Audio</name>
						<rate>
							<timebase>60</timebase>
							<ntsc>TRUE</ntsc>
						</rate>
						<rate>
							<timebase>60</timebase>
							<ntsc>TRUE</ntsc>
						</rate>
						<duration>24</duration>
						<start>12462</start>
						<end>12486</end>
						<in>3270</in>
						<out>3294</out>
					</clipitem>
					<clipitem frameBlend="FALSE" id="audioclip-741">
						<file id="file-1"/>
						<name>bandicam 2025-06-02 00-01-10-144 - Audio</name>
						<rate>
							<timebase>60</timebase>
							<ntsc>TRUE</ntsc>
						</rate>
						<rate>
							<timebase>60</timebase>
							<ntsc>TRUE</ntsc>
						</rate>
						<duration>0</duration>
						<start>12486</start>
						<end>12486</end>
						<in>3306</in>
						<out>3306</out>
					</clipitem>
					<clipitem frameBlend="FALSE" id="audioclip-742">
						<file id="file-1"/>
						<name>bandicam 2025-06-02 00-01-10-144 - Audio</name>
						<rate>
							<timebase>60</timebase>
							<ntsc>TRUE</ntsc>
						</rate>
						<rate>
							<timebase>60</timebase>
							<ntsc>TRUE</ntsc>
						</rate>
						<duration>12</duration>
						<start>12486</start>
						<end>12498</end>
						<in>3372</in>
						<out>3384</out>
					</clipitem>
					<clipitem frameBlend="FALSE" id="audioclip-743">
						<file id="file-1"/>
						<name>bandicam 2025-06-02 00-01-10-144 - Audio</name>
						<rate>
							<timebase>60</timebase>
							<ntsc>TRUE</ntsc>
						</rate>
						<rate>
							<timebase>60</timebase>
							<ntsc>TRUE</ntsc>
						</rate>
						<duration>24</duration>
						<start>12498</start>
						<end>12522</end>
						<in>3450</in>
						<out>3474</out>
					</clipitem>
					<clipitem frameBlend="FALSE" id="audioclip-744">
						<file id="file-1"/>
						<name>bandicam 2025-06-02 00-01-10-144 - Audio</name>
						<rate>
							<timebase>60</timebase>
							<ntsc>TRUE</ntsc>
						</rate>
						<rate>
							<timebase>60</timebase>
							<ntsc>TRUE</ntsc>
						</rate>
						<duration>12</duration>
						<start>12522</start>
						<end>12534</end>
						<in>3498</in>
						<out>3510</out>
					</clipitem>
					<clipitem frameBlend="FALSE" id="audioclip-745">
						<file id="file-1"/>
						<name>bandicam 2025-06-02 00-01-10-144 - Audio</name>
						<rate>
							<timebase>60</timebase>
							<ntsc>TRUE</ntsc>
						</rate>
						<rate>
							<timebase>60</timebase>
							<ntsc>TRUE</ntsc>
						</rate>
						<duration>0</duration>
						<start>12534</start>
						<end>12534</end>
						<in>3582</in>
						<out>3582</out>
					</clipitem>
					<clipitem frameBlend="FALSE" id="audioclip-746">
						<file id="file-1"/>
						<name>bandicam 2025-06-02 00-01-10-144 - Audio</name>
						<rate>
							<timebase>60</timebase>
							<ntsc>TRUE</ntsc>
						</rate>
						<rate>
							<timebase>60</timebase>
							<ntsc>TRUE</ntsc>
						</rate>
						<duration>18</duration>
						<start>12534</start>
						<end>12552</end>
						<in>3624</in>
						<out>3642</out>
					</clipitem>
					<clipitem frameBlend="FALSE" id="audioclip-747">
						<file id="file-1"/>
						<name>bandicam 2025-06-02 00-01-10-144 - Audio</name>
						<rate>
							<timebase>60</timebase>
							<ntsc>TRUE</ntsc>
						</rate>
						<rate>
							<timebase>60</timebase>
							<ntsc>TRUE</ntsc>
						</rate>
						<duration>0</duration>
						<start>12552</start>
						<end>12552</end>
						<in>3696</in>
						<out>3696</out>
					</clipitem>
					<clipitem frameBlend="FALSE" id="audioclip-748">
						<file id="file-1"/>
						<name>bandicam 2025-06-02 00-01-10-144 - Audio</name>
						<rate>
							<timebase>60</timebase>
							<ntsc>TRUE</ntsc>
						</rate>
						<rate>
							<timebase>60</timebase>
							<ntsc>TRUE</ntsc>
						</rate>
						<duration>12</duration>
						<start>12552</start>
						<end>12564</end>
						<in>3768</in>
						<out>3780</out>
					</clipitem>
					<clipitem frameBlend="FALSE" id="audioclip-749">
						<file id="file-1"/>
						<name>bandicam 2025-06-02 00-01-10-144 - Audio</name>
						<rate>
							<timebase>60</timebase>
							<ntsc>TRUE</ntsc>
						</rate>
						<rate>
							<timebase>60</timebase>
							<ntsc>TRUE</ntsc>
						</rate>
						<duration>12</duration>
						<start>12564</start>
						<end>12576</end>
						<in>3852</in>
						<out>3864</out>
					</clipitem>
					<clipitem frameBlend="FALSE" id="audioclip-750">
						<file id="file-1"/>
						<name>bandicam 2025-06-02 00-01-10-144 - Audio</name>
						<rate>
							<timebase>60</timebase>
							<ntsc>TRUE</ntsc>
						</rate>
						<rate>
							<timebase>60</timebase>
							<ntsc>TRUE</ntsc>
						</rate>
						<duration>12</duration>
						<start>12576</start>
						<end>12588</end>
						<in>3906</in>
						<out>3918</out>
					</clipitem>
					<clipitem frameBlend="FALSE" id="audioclip-751">
						<file id="file-1"/>
						<name>bandicam 2025-06-02 00-01-10-144 - Audio</name>
						<rate>
							<timebase>60</timebase>
							<ntsc>TRUE</ntsc>
						</rate>
						<rate>
							<timebase>60</timebase>
							<ntsc>TRUE</ntsc>
						</rate>
						<duration>6</duration>
						<start>12588</start>
						<end>12594</end>
						<in>4026</in>
						<out>4032</out>
					</clipitem>
					<clipitem frameBlend="FALSE" id="audioclip-752">
						<file id="file-1"/>
						<name>bandicam 2025-06-02 00-01-10-144 - Audio</name>
						<rate>
							<timebase>60</timebase>
							<ntsc>TRUE</ntsc>
						</rate>
						<rate>
							<timebase>60</timebase>
							<ntsc>TRUE</ntsc>
						</rate>
						<duration>0</duration>
						<start>12594</start>
						<end>12594</end>
						<in>4044</in>
						<out>4044</out>
					</clipitem>
					<clipitem frameBlend="FALSE" id="audioclip-753">
						<file id="file-1"/>
						<name>bandicam 2025-06-02 00-01-10-144 - Audio</name>
						<rate>
							<timebase>60</timebase>
							<ntsc>TRUE</ntsc>
						</rate>
						<rate>
							<timebase>60</timebase>
							<ntsc>TRUE</ntsc>
						</rate>
						<duration>24</duration>
						<start>12594</start>
						<end>12618</end>
						<in>4086</in>
						<out>4110</out>
					</clipitem>
					<clipitem frameBlend="FALSE" id="audioclip-754">
						<file id="file-1"/>
						<name>bandicam 2025-06-02 00-01-10-144 - Audio</name>
						<rate>
							<timebase>60</timebase>
							<ntsc>TRUE</ntsc>
						</rate>
						<rate>
							<timebase>60</timebase>
							<ntsc>TRUE</ntsc>
						</rate>
						<duration>18</duration>
						<start>12618</start>
						<end>12636</end>
						<in>4128</in>
						<out>4146</out>
					</clipitem>
					<clipitem frameBlend="FALSE" id="audioclip-755">
						<file id="file-1"/>
						<name>bandicam 2025-06-02 00-01-10-144 - Audio</name>
						<rate>
							<timebase>60</timebase>
							<ntsc>TRUE</ntsc>
						</rate>
						<rate>
							<timebase>60</timebase>
							<ntsc>TRUE</ntsc>
						</rate>
						<duration>6</duration>
						<start>12636</start>
						<end>12642</end>
						<in>4188</in>
						<out>4194</out>
					</clipitem>
					<clipitem frameBlend="FALSE" id="audioclip-756">
						<file id="file-1"/>
						<name>bandicam 2025-06-02 00-01-10-144 - Audio</name>
						<rate>
							<timebase>60</timebase>
							<ntsc>TRUE</ntsc>
						</rate>
						<rate>
							<timebase>60</timebase>
							<ntsc>TRUE</ntsc>
						</rate>
						<duration>36</duration>
						<start>12642</start>
						<end>12678</end>
						<in>4230</in>
						<out>4266</out>
					</clipitem>
					<clipitem frameBlend="FALSE" id="audioclip-757">
						<file id="file-1"/>
						<name>bandicam 2025-06-02 00-01-10-144 - Audio</name>
						<rate>
							<timebase>60</timebase>
							<ntsc>TRUE</ntsc>
						</rate>
						<rate>
							<timebase>60</timebase>
							<ntsc>TRUE</ntsc>
						</rate>
						<duration>132</duration>
						<start>12678</start>
						<end>12810</end>
						<in>4302</in>
						<out>4434</out>
					</clipitem>
					<clipitem frameBlend="FALSE" id="audioclip-758">
						<file id="file-1"/>
						<name>bandicam 2025-06-02 00-01-10-144 - Audio</name>
						<rate>
							<timebase>60</timebase>
							<ntsc>TRUE</ntsc>
						</rate>
						<rate>
							<timebase>60</timebase>
							<ntsc>TRUE</ntsc>
						</rate>
						<duration>12</duration>
						<start>12810</start>
						<end>12822</end>
						<in>4470</in>
						<out>4482</out>
					</clipitem>
					<clipitem frameBlend="FALSE" id="audioclip-759">
						<file id="file-1"/>
						<name>bandicam 2025-06-02 00-01-10-144 - Audio</name>
						<rate>
							<timebase>60</timebase>
							<ntsc>TRUE</ntsc>
						</rate>
						<rate>
							<timebase>60</timebase>
							<ntsc>TRUE</ntsc>
						</rate>
						<duration>48</duration>
						<start>12822</start>
						<end>12870</end>
						<in>4506</in>
						<out>4554</out>
					</clipitem>
					<clipitem frameBlend="FALSE" id="audioclip-760">
						<file id="file-1"/>
						<name>bandicam 2025-06-02 00-01-10-144 - Audio</name>
						<rate>
							<timebase>60</timebase>
							<ntsc>TRUE</ntsc>
						</rate>
						<rate>
							<timebase>60</timebase>
							<ntsc>TRUE</ntsc>
						</rate>
						<duration>30</duration>
						<start>12870</start>
						<end>12900</end>
						<in>4602</in>
						<out>4632</out>
					</clipitem>
					<clipitem frameBlend="FALSE" id="audioclip-761">
						<file id="file-1"/>
						<name>bandicam 2025-06-02 00-01-10-144 - Audio</name>
						<rate>
							<timebase>60</timebase>
							<ntsc>TRUE</ntsc>
						</rate>
						<rate>
							<timebase>60</timebase>
							<ntsc>TRUE</ntsc>
						</rate>
						<duration>12</duration>
						<start>12900</start>
						<end>12912</end>
						<in>4650</in>
						<out>4662</out>
					</clipitem>
					<clipitem frameBlend="FALSE" id="audioclip-762">
						<file id="file-1"/>
						<name>bandicam 2025-06-02 00-01-10-144 - Audio</name>
						<rate>
							<timebase>60</timebase>
							<ntsc>TRUE</ntsc>
						</rate>
						<rate>
							<timebase>60</timebase>
							<ntsc>TRUE</ntsc>
						</rate>
						<duration>0</duration>
						<start>12912</start>
						<end>12912</end>
						<in>4704</in>
						<out>4704</out>
					</clipitem>
					<clipitem frameBlend="FALSE" id="audioclip-763">
						<file id="file-1"/>
						<name>bandicam 2025-06-02 00-01-10-144 - Audio</name>
						<rate>
							<timebase>60</timebase>
							<ntsc>TRUE</ntsc>
						</rate>
						<rate>
							<timebase>60</timebase>
							<ntsc>TRUE</ntsc>
						</rate>
						<duration>48</duration>
						<start>12912</start>
						<end>12960</end>
						<in>4722</in>
						<out>4770</out>
					</clipitem>
					<clipitem frameBlend="FALSE" id="audioclip-764">
						<file id="file-1"/>
						<name>bandicam 2025-06-02 00-01-10-144 - Audio</name>
						<rate>
							<timebase>60</timebase>
							<ntsc>TRUE</ntsc>
						</rate>
						<rate>
							<timebase>60</timebase>
							<ntsc>TRUE</ntsc>
						</rate>
						<duration>12</duration>
						<start>12960</start>
						<end>12972</end>
						<in>4788</in>
						<out>4800</out>
					</clipitem>
					<clipitem frameBlend="FALSE" id="audioclip-765">
						<file id="file-1"/>
						<name>bandicam 2025-06-02 00-01-10-144 - Audio</name>
						<rate>
							<timebase>60</timebase>
							<ntsc>TRUE</ntsc>
						</rate>
						<rate>
							<timebase>60</timebase>
							<ntsc>TRUE</ntsc>
						</rate>
						<duration>0</duration>
						<start>12972</start>
						<end>12972</end>
						<in>4848</in>
						<out>4848</out>
					</clipitem>
					<clipitem frameBlend="FALSE" id="audioclip-766">
						<file id="file-1"/>
						<name>bandicam 2025-06-02 00-01-10-144 - Audio</name>
						<rate>
							<timebase>60</timebase>
							<ntsc>TRUE</ntsc>
						</rate>
						<rate>
							<timebase>60</timebase>
							<ntsc>TRUE</ntsc>
						</rate>
						<duration>12</duration>
						<start>12972</start>
						<end>12984</end>
						<in>4860</in>
						<out>4872</out>
					</clipitem>
					<clipitem frameBlend="FALSE" id="audioclip-767">
						<file id="file-1"/>
						<name>bandicam 2025-06-02 00-01-10-144 - Audio</name>
						<rate>
							<timebase>60</timebase>
							<ntsc>TRUE</ntsc>
						</rate>
						<rate>
							<timebase>60</timebase>
							<ntsc>TRUE</ntsc>
						</rate>
						<duration>6</duration>
						<start>12984</start>
						<end>12990</end>
						<in>4890</in>
						<out>4896</out>
					</clipitem>
					<clipitem frameBlend="FALSE" id="audioclip-768">
						<file id="file-1"/>
						<name>bandicam 2025-06-02 00-01-10-144 - Audio</name>
						<rate>
							<timebase>60</timebase>
							<ntsc>TRUE</ntsc>
						</rate>
						<rate>
							<timebase>60</timebase>
							<ntsc>TRUE</ntsc>
						</rate>
						<duration>12</duration>
						<start>12990</start>
						<end>13002</end>
						<in>4908</in>
						<out>4920</out>
					</clipitem>
					<clipitem frameBlend="FALSE" id="audioclip-769">
						<file id="file-1"/>
						<name>bandicam 2025-06-02 00-01-10-144 - Audio</name>
						<rate>
							<timebase>60</timebase>
							<ntsc>TRUE</ntsc>
						</rate>
						<rate>
							<timebase>60</timebase>
							<ntsc>TRUE</ntsc>
						</rate>
						<duration>12</duration>
						<start>13002</start>
						<end>13014</end>
						<in>4944</in>
						<out>4956</out>
					</clipitem>
					<clipitem frameBlend="FALSE" id="audioclip-770">
						<file id="file-1"/>
						<name>bandicam 2025-06-02 00-01-10-144 - Audio</name>
						<rate>
							<timebase>60</timebase>
							<ntsc>TRUE</ntsc>
						</rate>
						<rate>
							<timebase>60</timebase>
							<ntsc>TRUE</ntsc>
						</rate>
						<duration>6</duration>
						<start>13014</start>
						<end>13020</end>
						<in>4968</in>
						<out>4974</out>
					</clipitem>
					<clipitem frameBlend="FALSE" id="audioclip-771">
						<file id="file-1"/>
						<name>bandicam 2025-06-02 00-01-10-144 - Audio</name>
						<rate>
							<timebase>60</timebase>
							<ntsc>TRUE</ntsc>
						</rate>
						<rate>
							<timebase>60</timebase>
							<ntsc>TRUE</ntsc>
						</rate>
						<duration>12</duration>
						<start>13020</start>
						<end>13032</end>
						<in>5022</in>
						<out>5034</out>
					</clipitem>
					<clipitem frameBlend="FALSE" id="audioclip-772">
						<file id="file-1"/>
						<name>bandicam 2025-06-02 00-01-10-144 - Audio</name>
						<rate>
							<timebase>60</timebase>
							<ntsc>TRUE</ntsc>
						</rate>
						<rate>
							<timebase>60</timebase>
							<ntsc>TRUE</ntsc>
						</rate>
						<duration>6</duration>
						<start>13032</start>
						<end>13038</end>
						<in>5064</in>
						<out>5070</out>
					</clipitem>
					<clipitem frameBlend="FALSE" id="audioclip-773">
						<file id="file-1"/>
						<name>bandicam 2025-06-02 00-01-10-144 - Audio</name>
						<rate>
							<timebase>60</timebase>
							<ntsc>TRUE</ntsc>
						</rate>
						<rate>
							<timebase>60</timebase>
							<ntsc>TRUE</ntsc>
						</rate>
						<duration>0</duration>
						<start>13038</start>
						<end>13038</end>
						<in>5082</in>
						<out>5082</out>
					</clipitem>
					<clipitem frameBlend="FALSE" id="audioclip-774">
						<file id="file-1"/>
						<name>bandicam 2025-06-02 00-01-10-144 - Audio</name>
						<rate>
							<timebase>60</timebase>
							<ntsc>TRUE</ntsc>
						</rate>
						<rate>
							<timebase>60</timebase>
							<ntsc>TRUE</ntsc>
						</rate>
						<duration>84</duration>
						<start>13038</start>
						<end>13122</end>
						<in>5094</in>
						<out>5178</out>
					</clipitem>
					<clipitem frameBlend="FALSE" id="audioclip-775">
						<file id="file-1"/>
						<name>bandicam 2025-06-02 00-01-10-144 - Audio</name>
						<rate>
							<timebase>60</timebase>
							<ntsc>TRUE</ntsc>
						</rate>
						<rate>
							<timebase>60</timebase>
							<ntsc>TRUE</ntsc>
						</rate>
						<duration>12</duration>
						<start>13122</start>
						<end>13134</end>
						<in>5232</in>
						<out>5244</out>
					</clipitem>
					<clipitem frameBlend="FALSE" id="audioclip-776">
						<file id="file-1"/>
						<name>bandicam 2025-06-02 00-01-10-144 - Audio</name>
						<rate>
							<timebase>60</timebase>
							<ntsc>TRUE</ntsc>
						</rate>
						<rate>
							<timebase>60</timebase>
							<ntsc>TRUE</ntsc>
						</rate>
						<duration>12</duration>
						<start>13134</start>
						<end>13146</end>
						<in>5328</in>
						<out>5340</out>
					</clipitem>
					<clipitem frameBlend="FALSE" id="audioclip-777">
						<file id="file-1"/>
						<name>bandicam 2025-06-02 00-01-10-144 - Audio</name>
						<rate>
							<timebase>60</timebase>
							<ntsc>TRUE</ntsc>
						</rate>
						<rate>
							<timebase>60</timebase>
							<ntsc>TRUE</ntsc>
						</rate>
						<duration>12</duration>
						<start>13146</start>
						<end>13158</end>
						<in>5382</in>
						<out>5394</out>
					</clipitem>
					<clipitem frameBlend="FALSE" id="audioclip-778">
						<file id="file-1"/>
						<name>bandicam 2025-06-02 00-01-10-144 - Audio</name>
						<rate>
							<timebase>60</timebase>
							<ntsc>TRUE</ntsc>
						</rate>
						<rate>
							<timebase>60</timebase>
							<ntsc>TRUE</ntsc>
						</rate>
						<duration>36</duration>
						<start>13158</start>
						<end>13194</end>
						<in>5412</in>
						<out>5448</out>
					</clipitem>
					<clipitem frameBlend="FALSE" id="audioclip-779">
						<file id="file-1"/>
						<name>bandicam 2025-06-02 00-01-10-144 - Audio</name>
						<rate>
							<timebase>60</timebase>
							<ntsc>TRUE</ntsc>
						</rate>
						<rate>
							<timebase>60</timebase>
							<ntsc>TRUE</ntsc>
						</rate>
						<duration>0</duration>
						<start>13194</start>
						<end>13194</end>
						<in>5466</in>
						<out>5466</out>
					</clipitem>
					<clipitem frameBlend="FALSE" id="audioclip-780">
						<file id="file-1"/>
						<name>bandicam 2025-06-02 00-01-10-144 - Audio</name>
						<rate>
							<timebase>60</timebase>
							<ntsc>TRUE</ntsc>
						</rate>
						<rate>
							<timebase>60</timebase>
							<ntsc>TRUE</ntsc>
						</rate>
						<duration>12</duration>
						<start>13194</start>
						<end>13206</end>
						<in>5490</in>
						<out>5502</out>
					</clipitem>
					<clipitem frameBlend="FALSE" id="audioclip-781">
						<file id="file-1"/>
						<name>bandicam 2025-06-02 00-01-10-144 - Audio</name>
						<rate>
							<timebase>60</timebase>
							<ntsc>TRUE</ntsc>
						</rate>
						<rate>
							<timebase>60</timebase>
							<ntsc>TRUE</ntsc>
						</rate>
						<duration>0</duration>
						<start>13206</start>
						<end>13206</end>
						<in>5520</in>
						<out>5520</out>
					</clipitem>
					<clipitem frameBlend="FALSE" id="audioclip-782">
						<file id="file-1"/>
						<name>bandicam 2025-06-02 00-01-10-144 - Audio</name>
						<rate>
							<timebase>60</timebase>
							<ntsc>TRUE</ntsc>
						</rate>
						<rate>
							<timebase>60</timebase>
							<ntsc>TRUE</ntsc>
						</rate>
						<duration>0</duration>
						<start>13206</start>
						<end>13206</end>
						<in>5532</in>
						<out>5532</out>
					</clipitem>
					<clipitem frameBlend="FALSE" id="audioclip-783">
						<file id="file-1"/>
						<name>bandicam 2025-06-02 00-01-10-144 - Audio</name>
						<rate>
							<timebase>60</timebase>
							<ntsc>TRUE</ntsc>
						</rate>
						<rate>
							<timebase>60</timebase>
							<ntsc>TRUE</ntsc>
						</rate>
						<duration>6</duration>
						<start>13206</start>
						<end>13212</end>
						<in>5586</in>
						<out>5592</out>
					</clipitem>
					<clipitem frameBlend="FALSE" id="audioclip-784">
						<file id="file-1"/>
						<name>bandicam 2025-06-02 00-01-10-144 - Audio</name>
						<rate>
							<timebase>60</timebase>
							<ntsc>TRUE</ntsc>
						</rate>
						<rate>
							<timebase>60</timebase>
							<ntsc>TRUE</ntsc>
						</rate>
						<duration>12</duration>
						<start>13212</start>
						<end>13224</end>
						<in>5628</in>
						<out>5640</out>
					</clipitem>
					<clipitem frameBlend="FALSE" id="audioclip-785">
						<file id="file-1"/>
						<name>bandicam 2025-06-02 00-01-10-144 - Audio</name>
						<rate>
							<timebase>60</timebase>
							<ntsc>TRUE</ntsc>
						</rate>
						<rate>
							<timebase>60</timebase>
							<ntsc>TRUE</ntsc>
						</rate>
						<duration>30</duration>
						<start>13224</start>
						<end>13254</end>
						<in>5664</in>
						<out>5694</out>
					</clipitem>
					<clipitem frameBlend="FALSE" id="audioclip-786">
						<file id="file-1"/>
						<name>bandicam 2025-06-02 00-01-10-144 - Audio</name>
						<rate>
							<timebase>60</timebase>
							<ntsc>TRUE</ntsc>
						</rate>
						<rate>
							<timebase>60</timebase>
							<ntsc>TRUE</ntsc>
						</rate>
						<duration>24</duration>
						<start>13254</start>
						<end>13278</end>
						<in>5754</in>
						<out>5778</out>
					</clipitem>
					<clipitem frameBlend="FALSE" id="audioclip-787">
						<file id="file-1"/>
						<name>bandicam 2025-06-02 00-01-10-144 - Audio</name>
						<rate>
							<timebase>60</timebase>
							<ntsc>TRUE</ntsc>
						</rate>
						<rate>
							<timebase>60</timebase>
							<ntsc>TRUE</ntsc>
						</rate>
						<duration>90</duration>
						<start>13278</start>
						<end>13368</end>
						<in>5802</in>
						<out>5892</out>
					</clipitem>
					<clipitem frameBlend="FALSE" id="audioclip-788">
						<file id="file-1"/>
						<name>bandicam 2025-06-02 00-01-10-144 - Audio</name>
						<rate>
							<timebase>60</timebase>
							<ntsc>TRUE</ntsc>
						</rate>
						<rate>
							<timebase>60</timebase>
							<ntsc>TRUE</ntsc>
						</rate>
						<duration>66</duration>
						<start>13368</start>
						<end>13434</end>
						<in>5910</in>
						<out>5976</out>
					</clipitem>
					<clipitem frameBlend="FALSE" id="audioclip-789">
						<file id="file-1"/>
						<name>bandicam 2025-06-02 00-01-10-144 - Audio</name>
						<rate>
							<timebase>60</timebase>
							<ntsc>TRUE</ntsc>
						</rate>
						<rate>
							<timebase>60</timebase>
							<ntsc>TRUE</ntsc>
						</rate>
						<duration>36</duration>
						<start>13434</start>
						<end>13470</end>
						<in>6000</in>
						<out>6036</out>
					</clipitem>
					<clipitem frameBlend="FALSE" id="audioclip-790">
						<file id="file-1"/>
						<name>bandicam 2025-06-02 00-01-10-144 - Audio</name>
						<rate>
							<timebase>60</timebase>
							<ntsc>TRUE</ntsc>
						</rate>
						<rate>
							<timebase>60</timebase>
							<ntsc>TRUE</ntsc>
						</rate>
						<duration>12</duration>
						<start>13470</start>
						<end>13482</end>
						<in>6054</in>
						<out>6066</out>
					</clipitem>
					<clipitem frameBlend="FALSE" id="audioclip-791">
						<file id="file-1"/>
						<name>bandicam 2025-06-02 00-01-10-144 - Audio</name>
						<rate>
							<timebase>60</timebase>
							<ntsc>TRUE</ntsc>
						</rate>
						<rate>
							<timebase>60</timebase>
							<ntsc>TRUE</ntsc>
						</rate>
						<duration>0</duration>
						<start>13482</start>
						<end>13482</end>
						<in>6132</in>
						<out>6132</out>
					</clipitem>
					<clipitem frameBlend="FALSE" id="audioclip-792">
						<file id="file-1"/>
						<name>bandicam 2025-06-02 00-01-10-144 - Audio</name>
						<rate>
							<timebase>60</timebase>
							<ntsc>TRUE</ntsc>
						</rate>
						<rate>
							<timebase>60</timebase>
							<ntsc>TRUE</ntsc>
						</rate>
						<duration>48</duration>
						<start>13482</start>
						<end>13530</end>
						<in>6156</in>
						<out>6204</out>
					</clipitem>
					<clipitem frameBlend="FALSE" id="audioclip-793">
						<file id="file-1"/>
						<name>bandicam 2025-06-02 00-01-10-144 - Audio</name>
						<rate>
							<timebase>60</timebase>
							<ntsc>TRUE</ntsc>
						</rate>
						<rate>
							<timebase>60</timebase>
							<ntsc>TRUE</ntsc>
						</rate>
						<duration>18</duration>
						<start>13530</start>
						<end>13548</end>
						<in>6234</in>
						<out>6252</out>
					</clipitem>
					<clipitem frameBlend="FALSE" id="audioclip-794">
						<file id="file-1"/>
						<name>bandicam 2025-06-02 00-01-10-144 - Audio</name>
						<rate>
							<timebase>60</timebase>
							<ntsc>TRUE</ntsc>
						</rate>
						<rate>
							<timebase>60</timebase>
							<ntsc>TRUE</ntsc>
						</rate>
						<duration>0</duration>
						<start>13548</start>
						<end>13548</end>
						<in>6282</in>
						<out>6282</out>
					</clipitem>
					<clipitem frameBlend="FALSE" id="audioclip-795">
						<file id="file-1"/>
						<name>bandicam 2025-06-02 00-01-10-144 - Audio</name>
						<rate>
							<timebase>60</timebase>
							<ntsc>TRUE</ntsc>
						</rate>
						<rate>
							<timebase>60</timebase>
							<ntsc>TRUE</ntsc>
						</rate>
						<duration>12</duration>
						<start>13548</start>
						<end>13560</end>
						<in>6312</in>
						<out>6324</out>
					</clipitem>
					<clipitem frameBlend="FALSE" id="audioclip-796">
						<file id="file-1"/>
						<name>bandicam 2025-06-02 00-01-10-144 - Audio</name>
						<rate>
							<timebase>60</timebase>
							<ntsc>TRUE</ntsc>
						</rate>
						<rate>
							<timebase>60</timebase>
							<ntsc>TRUE</ntsc>
						</rate>
						<duration>12</duration>
						<start>13560</start>
						<end>13572</end>
						<in>6384</in>
						<out>6396</out>
					</clipitem>
					<clipitem frameBlend="FALSE" id="audioclip-797">
						<file id="file-1"/>
						<name>bandicam 2025-06-02 00-01-10-144 - Audio</name>
						<rate>
							<timebase>60</timebase>
							<ntsc>TRUE</ntsc>
						</rate>
						<rate>
							<timebase>60</timebase>
							<ntsc>TRUE</ntsc>
						</rate>
						<duration>12</duration>
						<start>13572</start>
						<end>13584</end>
						<in>6432</in>
						<out>6444</out>
					</clipitem>
					<clipitem frameBlend="FALSE" id="audioclip-798">
						<file id="file-1"/>
						<name>bandicam 2025-06-02 00-01-10-144 - Audio</name>
						<rate>
							<timebase>60</timebase>
							<ntsc>TRUE</ntsc>
						</rate>
						<rate>
							<timebase>60</timebase>
							<ntsc>TRUE</ntsc>
						</rate>
						<duration>0</duration>
						<start>13584</start>
						<end>13584</end>
						<in>6486</in>
						<out>6486</out>
					</clipitem>
					<clipitem frameBlend="FALSE" id="audioclip-799">
						<file id="file-1"/>
						<name>bandicam 2025-06-02 00-01-10-144 - Audio</name>
						<rate>
							<timebase>60</timebase>
							<ntsc>TRUE</ntsc>
						</rate>
						<rate>
							<timebase>60</timebase>
							<ntsc>TRUE</ntsc>
						</rate>
						<duration>36</duration>
						<start>13584</start>
						<end>13620</end>
						<in>6498</in>
						<out>6534</out>
					</clipitem>
					<clipitem frameBlend="FALSE" id="audioclip-800">
						<file id="file-1"/>
						<name>bandicam 2025-06-02 00-01-10-144 - Audio</name>
						<rate>
							<timebase>60</timebase>
							<ntsc>TRUE</ntsc>
						</rate>
						<rate>
							<timebase>60</timebase>
							<ntsc>TRUE</ntsc>
						</rate>
						<duration>0</duration>
						<start>13620</start>
						<end>13620</end>
						<in>6576</in>
						<out>6576</out>
					</clipitem>
					<clipitem frameBlend="FALSE" id="audioclip-801">
						<file id="file-1"/>
						<name>bandicam 2025-06-02 00-01-10-144 - Audio</name>
						<rate>
							<timebase>60</timebase>
							<ntsc>TRUE</ntsc>
						</rate>
						<rate>
							<timebase>60</timebase>
							<ntsc>TRUE</ntsc>
						</rate>
						<duration>12</duration>
						<start>13620</start>
						<end>13632</end>
						<in>6612</in>
						<out>6624</out>
					</clipitem>
					<clipitem frameBlend="FALSE" id="audioclip-802">
						<file id="file-1"/>
						<name>bandicam 2025-06-02 00-01-10-144 - Audio</name>
						<rate>
							<timebase>60</timebase>
							<ntsc>TRUE</ntsc>
						</rate>
						<rate>
							<timebase>60</timebase>
							<ntsc>TRUE</ntsc>
						</rate>
						<duration>0</duration>
						<start>13632</start>
						<end>13632</end>
						<in>6750</in>
						<out>6750</out>
					</clipitem>
					<clipitem frameBlend="FALSE" id="audioclip-803">
						<file id="file-1"/>
						<name>bandicam 2025-06-02 00-01-10-144 - Audio</name>
						<rate>
							<timebase>60</timebase>
							<ntsc>TRUE</ntsc>
						</rate>
						<rate>
							<timebase>60</timebase>
							<ntsc>TRUE</ntsc>
						</rate>
						<duration>0</duration>
						<start>13632</start>
						<end>13632</end>
						<in>6762</in>
						<out>6762</out>
					</clipitem>
					<clipitem frameBlend="FALSE" id="audioclip-804">
						<file id="file-1"/>
						<name>bandicam 2025-06-02 00-01-10-144 - Audio</name>
						<rate>
							<timebase>60</timebase>
							<ntsc>TRUE</ntsc>
						</rate>
						<rate>
							<timebase>60</timebase>
							<ntsc>TRUE</ntsc>
						</rate>
						<duration>6</duration>
						<start>13632</start>
						<end>13638</end>
						<in>6810</in>
						<out>6816</out>
					</clipitem>
					<clipitem frameBlend="FALSE" id="audioclip-805">
						<file id="file-1"/>
						<name>bandicam 2025-06-02 00-01-10-144 - Audio</name>
						<rate>
							<timebase>60</timebase>
							<ntsc>TRUE</ntsc>
						</rate>
						<rate>
							<timebase>60</timebase>
							<ntsc>TRUE</ntsc>
						</rate>
						<duration>12</duration>
						<start>13638</start>
						<end>13650</end>
						<in>6828</in>
						<out>6840</out>
					</clipitem>
					<clipitem frameBlend="FALSE" id="audioclip-806">
						<file id="file-1"/>
						<name>bandicam 2025-06-02 00-01-10-144 - Audio</name>
						<rate>
							<timebase>60</timebase>
							<ntsc>TRUE</ntsc>
						</rate>
						<rate>
							<timebase>60</timebase>
							<ntsc>TRUE</ntsc>
						</rate>
						<duration>6</duration>
						<start>13650</start>
						<end>13656</end>
						<in>6894</in>
						<out>6900</out>
					</clipitem>
					<clipitem frameBlend="FALSE" id="audioclip-807">
						<file id="file-1"/>
						<name>bandicam 2025-06-02 00-01-10-144 - Audio</name>
						<rate>
							<timebase>60</timebase>
							<ntsc>TRUE</ntsc>
						</rate>
						<rate>
							<timebase>60</timebase>
							<ntsc>TRUE</ntsc>
						</rate>
						<duration>12</duration>
						<start>13656</start>
						<end>13668</end>
						<in>6912</in>
						<out>6924</out>
					</clipitem>
					<clipitem frameBlend="FALSE" id="audioclip-808">
						<file id="file-1"/>
						<name>bandicam 2025-06-02 00-01-10-144 - Audio</name>
						<rate>
							<timebase>60</timebase>
							<ntsc>TRUE</ntsc>
						</rate>
						<rate>
							<timebase>60</timebase>
							<ntsc>TRUE</ntsc>
						</rate>
						<duration>0</duration>
						<start>13668</start>
						<end>13668</end>
						<in>6954</in>
						<out>6954</out>
					</clipitem>
					<clipitem frameBlend="FALSE" id="audioclip-809">
						<file id="file-1"/>
						<name>bandicam 2025-06-02 00-01-10-144 - Audio</name>
						<rate>
							<timebase>60</timebase>
							<ntsc>TRUE</ntsc>
						</rate>
						<rate>
							<timebase>60</timebase>
							<ntsc>TRUE</ntsc>
						</rate>
						<duration>0</duration>
						<start>13668</start>
						<end>13668</end>
						<in>7002</in>
						<out>7002</out>
					</clipitem>
					<clipitem frameBlend="FALSE" id="audioclip-810">
						<file id="file-1"/>
						<name>bandicam 2025-06-02 00-01-10-144 - Audio</name>
						<rate>
							<timebase>60</timebase>
							<ntsc>TRUE</ntsc>
						</rate>
						<rate>
							<timebase>60</timebase>
							<ntsc>TRUE</ntsc>
						</rate>
						<duration>12</duration>
						<start>13668</start>
						<end>13680</end>
						<in>7026</in>
						<out>7038</out>
					</clipitem>
					<clipitem frameBlend="FALSE" id="audioclip-811">
						<file id="file-1"/>
						<name>bandicam 2025-06-02 00-01-10-144 - Audio</name>
						<rate>
							<timebase>60</timebase>
							<ntsc>TRUE</ntsc>
						</rate>
						<rate>
							<timebase>60</timebase>
							<ntsc>TRUE</ntsc>
						</rate>
						<duration>0</duration>
						<start>13680</start>
						<end>13680</end>
						<in>3276</in>
						<out>3276</out>
					</clipitem>
					<clipitem frameBlend="FALSE" id="audioclip-812">
						<file id="file-1"/>
						<name>bandicam 2025-06-02 00-01-10-144 - Audio</name>
						<rate>
							<timebase>60</timebase>
							<ntsc>TRUE</ntsc>
						</rate>
						<rate>
							<timebase>60</timebase>
							<ntsc>TRUE</ntsc>
						</rate>
						<duration>30</duration>
						<start>13680</start>
						<end>13710</end>
						<in>12</in>
						<out>42</out>
					</clipitem>
					<clipitem frameBlend="FALSE" id="audioclip-813">
						<file id="file-1"/>
						<name>bandicam 2025-06-02 00-01-10-144 - Audio</name>
						<rate>
							<timebase>60</timebase>
							<ntsc>TRUE</ntsc>
						</rate>
						<rate>
							<timebase>60</timebase>
							<ntsc>TRUE</ntsc>
						</rate>
						<duration>36</duration>
						<start>13710</start>
						<end>13746</end>
						<in>54</in>
						<out>90</out>
					</clipitem>
					<clipitem frameBlend="FALSE" id="audioclip-814">
						<file id="file-1"/>
						<name>bandicam 2025-06-02 00-01-10-144 - Audio</name>
						<rate>
							<timebase>60</timebase>
							<ntsc>TRUE</ntsc>
						</rate>
						<rate>
							<timebase>60</timebase>
							<ntsc>TRUE</ntsc>
						</rate>
						<duration>18</duration>
						<start>13746</start>
						<end>13764</end>
						<in>108</in>
						<out>126</out>
					</clipitem>
					<clipitem frameBlend="FALSE" id="audioclip-815">
						<file id="file-1"/>
						<name>bandicam 2025-06-02 00-01-10-144 - Audio</name>
						<rate>
							<timebase>60</timebase>
							<ntsc>TRUE</ntsc>
						</rate>
						<rate>
							<timebase>60</timebase>
							<ntsc>TRUE</ntsc>
						</rate>
						<duration>0</duration>
						<start>13764</start>
						<end>13764</end>
						<in>156</in>
						<out>156</out>
					</clipitem>
					<clipitem frameBlend="FALSE" id="audioclip-816">
						<file id="file-1"/>
						<name>bandicam 2025-06-02 00-01-10-144 - Audio</name>
						<rate>
							<timebase>60</timebase>
							<ntsc>TRUE</ntsc>
						</rate>
						<rate>
							<timebase>60</timebase>
							<ntsc>TRUE</ntsc>
						</rate>
						<duration>24</duration>
						<start>13764</start>
						<end>13788</end>
						<in>174</in>
						<out>198</out>
					</clipitem>
					<clipitem frameBlend="FALSE" id="audioclip-817">
						<file id="file-1"/>
						<name>bandicam 2025-06-02 00-01-10-144 - Audio</name>
						<rate>
							<timebase>60</timebase>
							<ntsc>TRUE</ntsc>
						</rate>
						<rate>
							<timebase>60</timebase>
							<ntsc>TRUE</ntsc>
						</rate>
						<duration>0</duration>
						<start>13788</start>
						<end>13788</end>
						<in>300</in>
						<out>300</out>
					</clipitem>
					<clipitem frameBlend="FALSE" id="audioclip-818">
						<file id="file-1"/>
						<name>bandicam 2025-06-02 00-01-10-144 - Audio</name>
						<rate>
							<timebase>60</timebase>
							<ntsc>TRUE</ntsc>
						</rate>
						<rate>
							<timebase>60</timebase>
							<ntsc>TRUE</ntsc>
						</rate>
						<duration>30</duration>
						<start>13788</start>
						<end>13818</end>
						<in>360</in>
						<out>390</out>
					</clipitem>
					<clipitem frameBlend="FALSE" id="audioclip-819">
						<file id="file-1"/>
						<name>bandicam 2025-06-02 00-01-10-144 - Audio</name>
						<rate>
							<timebase>60</timebase>
							<ntsc>TRUE</ntsc>
						</rate>
						<rate>
							<timebase>60</timebase>
							<ntsc>TRUE</ntsc>
						</rate>
						<duration>0</duration>
						<start>13818</start>
						<end>13818</end>
						<in>438</in>
						<out>438</out>
					</clipitem>
					<clipitem frameBlend="FALSE" id="audioclip-820">
						<file id="file-1"/>
						<name>bandicam 2025-06-02 00-01-10-144 - Audio</name>
						<rate>
							<timebase>60</timebase>
							<ntsc>TRUE</ntsc>
						</rate>
						<rate>
							<timebase>60</timebase>
							<ntsc>TRUE</ntsc>
						</rate>
						<duration>42</duration>
						<start>13818</start>
						<end>13860</end>
						<in>450</in>
						<out>492</out>
					</clipitem>
					<clipitem frameBlend="FALSE" id="audioclip-821">
						<file id="file-1"/>
						<name>bandicam 2025-06-02 00-01-10-144 - Audio</name>
						<rate>
							<timebase>60</timebase>
							<ntsc>TRUE</ntsc>
						</rate>
						<rate>
							<timebase>60</timebase>
							<ntsc>TRUE</ntsc>
						</rate>
						<duration>0</duration>
						<start>13860</start>
						<end>13860</end>
						<in>504</in>
						<out>504</out>
					</clipitem>
					<clipitem frameBlend="FALSE" id="audioclip-822">
						<file id="file-1"/>
						<name>bandicam 2025-06-02 00-01-10-144 - Audio</name>
						<rate>
							<timebase>60</timebase>
							<ntsc>TRUE</ntsc>
						</rate>
						<rate>
							<timebase>60</timebase>
							<ntsc>TRUE</ntsc>
						</rate>
						<duration>42</duration>
						<start>13860</start>
						<end>13902</end>
						<in>528</in>
						<out>570</out>
					</clipitem>
					<clipitem frameBlend="FALSE" id="audioclip-823">
						<file id="file-1"/>
						<name>bandicam 2025-06-02 00-01-10-144 - Audio</name>
						<rate>
							<timebase>60</timebase>
							<ntsc>TRUE</ntsc>
						</rate>
						<rate>
							<timebase>60</timebase>
							<ntsc>TRUE</ntsc>
						</rate>
						<duration>24</duration>
						<start>13902</start>
						<end>13926</end>
						<in>582</in>
						<out>606</out>
					</clipitem>
					<clipitem frameBlend="FALSE" id="audioclip-824">
						<file id="file-1"/>
						<name>bandicam 2025-06-02 00-01-10-144 - Audio</name>
						<rate>
							<timebase>60</timebase>
							<ntsc>TRUE</ntsc>
						</rate>
						<rate>
							<timebase>60</timebase>
							<ntsc>TRUE</ntsc>
						</rate>
						<duration>18</duration>
						<start>13926</start>
						<end>13944</end>
						<in>624</in>
						<out>642</out>
					</clipitem>
					<clipitem frameBlend="FALSE" id="audioclip-825">
						<file id="file-1"/>
						<name>bandicam 2025-06-02 00-01-10-144 - Audio</name>
						<rate>
							<timebase>60</timebase>
							<ntsc>TRUE</ntsc>
						</rate>
						<rate>
							<timebase>60</timebase>
							<ntsc>TRUE</ntsc>
						</rate>
						<duration>0</duration>
						<start>13944</start>
						<end>13944</end>
						<in>816</in>
						<out>816</out>
					</clipitem>
					<clipitem frameBlend="FALSE" id="audioclip-826">
						<file id="file-1"/>
						<name>bandicam 2025-06-02 00-01-10-144 - Audio</name>
						<rate>
							<timebase>60</timebase>
							<ntsc>TRUE</ntsc>
						</rate>
						<rate>
							<timebase>60</timebase>
							<ntsc>TRUE</ntsc>
						</rate>
						<duration>0</duration>
						<start>13944</start>
						<end>13944</end>
						<in>852</in>
						<out>852</out>
					</clipitem>
					<clipitem frameBlend="FALSE" id="audioclip-827">
						<file id="file-1"/>
						<name>bandicam 2025-06-02 00-01-10-144 - Audio</name>
						<rate>
							<timebase>60</timebase>
							<ntsc>TRUE</ntsc>
						</rate>
						<rate>
							<timebase>60</timebase>
							<ntsc>TRUE</ntsc>
						</rate>
						<duration>12</duration>
						<start>13944</start>
						<end>13956</end>
						<in>888</in>
						<out>900</out>
					</clipitem>
					<clipitem frameBlend="FALSE" id="audioclip-828">
						<file id="file-1"/>
						<name>bandicam 2025-06-02 00-01-10-144 - Audio</name>
						<rate>
							<timebase>60</timebase>
							<ntsc>TRUE</ntsc>
						</rate>
						<rate>
							<timebase>60</timebase>
							<ntsc>TRUE</ntsc>
						</rate>
						<duration>0</duration>
						<start>13956</start>
						<end>13956</end>
						<in>912</in>
						<out>912</out>
					</clipitem>
					<clipitem frameBlend="FALSE" id="audioclip-829">
						<file id="file-1"/>
						<name>bandicam 2025-06-02 00-01-10-144 - Audio</name>
						<rate>
							<timebase>60</timebase>
							<ntsc>TRUE</ntsc>
						</rate>
						<rate>
							<timebase>60</timebase>
							<ntsc>TRUE</ntsc>
						</rate>
						<duration>0</duration>
						<start>13956</start>
						<end>13956</end>
						<in>936</in>
						<out>936</out>
					</clipitem>
					<clipitem frameBlend="FALSE" id="audioclip-830">
						<file id="file-1"/>
						<name>bandicam 2025-06-02 00-01-10-144 - Audio</name>
						<rate>
							<timebase>60</timebase>
							<ntsc>TRUE</ntsc>
						</rate>
						<rate>
							<timebase>60</timebase>
							<ntsc>TRUE</ntsc>
						</rate>
						<duration>0</duration>
						<start>13956</start>
						<end>13956</end>
						<in>954</in>
						<out>954</out>
					</clipitem>
					<clipitem frameBlend="FALSE" id="audioclip-831">
						<file id="file-1"/>
						<name>bandicam 2025-06-02 00-01-10-144 - Audio</name>
						<rate>
							<timebase>60</timebase>
							<ntsc>TRUE</ntsc>
						</rate>
						<rate>
							<timebase>60</timebase>
							<ntsc>TRUE</ntsc>
						</rate>
						<duration>12</duration>
						<start>13956</start>
						<end>13968</end>
						<in>984</in>
						<out>996</out>
					</clipitem>
					<clipitem frameBlend="FALSE" id="audioclip-832">
						<file id="file-1"/>
						<name>bandicam 2025-06-02 00-01-10-144 - Audio</name>
						<rate>
							<timebase>60</timebase>
							<ntsc>TRUE</ntsc>
						</rate>
						<rate>
							<timebase>60</timebase>
							<ntsc>TRUE</ntsc>
						</rate>
						<duration>0</duration>
						<start>13968</start>
						<end>13968</end>
						<in>1056</in>
						<out>1056</out>
					</clipitem>
					<clipitem frameBlend="FALSE" id="audioclip-833">
						<file id="file-1"/>
						<name>bandicam 2025-06-02 00-01-10-144 - Audio</name>
						<rate>
							<timebase>60</timebase>
							<ntsc>TRUE</ntsc>
						</rate>
						<rate>
							<timebase>60</timebase>
							<ntsc>TRUE</ntsc>
						</rate>
						<duration>12</duration>
						<start>13968</start>
						<end>13980</end>
						<in>1086</in>
						<out>1098</out>
					</clipitem>
					<clipitem frameBlend="FALSE" id="audioclip-834">
						<file id="file-1"/>
						<name>bandicam 2025-06-02 00-01-10-144 - Audio</name>
						<rate>
							<timebase>60</timebase>
							<ntsc>TRUE</ntsc>
						</rate>
						<rate>
							<timebase>60</timebase>
							<ntsc>TRUE</ntsc>
						</rate>
						<duration>60</duration>
						<start>13980</start>
						<end>14040</end>
						<in>1188</in>
						<out>1248</out>
					</clipitem>
					<clipitem frameBlend="FALSE" id="audioclip-835">
						<file id="file-1"/>
						<name>bandicam 2025-06-02 00-01-10-144 - Audio</name>
						<rate>
							<timebase>60</timebase>
							<ntsc>TRUE</ntsc>
						</rate>
						<rate>
							<timebase>60</timebase>
							<ntsc>TRUE</ntsc>
						</rate>
						<duration>0</duration>
						<start>14040</start>
						<end>14040</end>
						<in>1320</in>
						<out>1320</out>
					</clipitem>
					<clipitem frameBlend="FALSE" id="audioclip-836">
						<file id="file-1"/>
						<name>bandicam 2025-06-02 00-01-10-144 - Audio</name>
						<rate>
							<timebase>60</timebase>
							<ntsc>TRUE</ntsc>
						</rate>
						<rate>
							<timebase>60</timebase>
							<ntsc>TRUE</ntsc>
						</rate>
						<duration>60</duration>
						<start>14040</start>
						<end>14100</end>
						<in>1374</in>
						<out>1434</out>
					</clipitem>
					<clipitem frameBlend="FALSE" id="audioclip-837">
						<file id="file-1"/>
						<name>bandicam 2025-06-02 00-01-10-144 - Audio</name>
						<rate>
							<timebase>60</timebase>
							<ntsc>TRUE</ntsc>
						</rate>
						<rate>
							<timebase>60</timebase>
							<ntsc>TRUE</ntsc>
						</rate>
						<duration>36</duration>
						<start>14100</start>
						<end>14136</end>
						<in>1446</in>
						<out>1482</out>
					</clipitem>
					<clipitem frameBlend="FALSE" id="audioclip-838">
						<file id="file-1"/>
						<name>bandicam 2025-06-02 00-01-10-144 - Audio</name>
						<rate>
							<timebase>60</timebase>
							<ntsc>TRUE</ntsc>
						</rate>
						<rate>
							<timebase>60</timebase>
							<ntsc>TRUE</ntsc>
						</rate>
						<duration>6</duration>
						<start>14136</start>
						<end>14142</end>
						<in>1530</in>
						<out>1536</out>
					</clipitem>
					<clipitem frameBlend="FALSE" id="audioclip-839">
						<file id="file-1"/>
						<name>bandicam 2025-06-02 00-01-10-144 - Audio</name>
						<rate>
							<timebase>60</timebase>
							<ntsc>TRUE</ntsc>
						</rate>
						<rate>
							<timebase>60</timebase>
							<ntsc>TRUE</ntsc>
						</rate>
						<duration>42</duration>
						<start>14142</start>
						<end>14184</end>
						<in>1566</in>
						<out>1608</out>
					</clipitem>
					<clipitem frameBlend="FALSE" id="audioclip-840">
						<file id="file-1"/>
						<name>bandicam 2025-06-02 00-01-10-144 - Audio</name>
						<rate>
							<timebase>60</timebase>
							<ntsc>TRUE</ntsc>
						</rate>
						<rate>
							<timebase>60</timebase>
							<ntsc>TRUE</ntsc>
						</rate>
						<duration>90</duration>
						<start>14184</start>
						<end>14274</end>
						<in>1692</in>
						<out>1782</out>
					</clipitem>
					<clipitem frameBlend="FALSE" id="audioclip-841">
						<file id="file-1"/>
						<name>bandicam 2025-06-02 00-01-10-144 - Audio</name>
						<rate>
							<timebase>60</timebase>
							<ntsc>TRUE</ntsc>
						</rate>
						<rate>
							<timebase>60</timebase>
							<ntsc>TRUE</ntsc>
						</rate>
						<duration>108</duration>
						<start>14274</start>
						<end>14382</end>
						<in>1800</in>
						<out>1908</out>
					</clipitem>
					<clipitem frameBlend="FALSE" id="audioclip-842">
						<file id="file-1"/>
						<name>bandicam 2025-06-02 00-01-10-144 - Audio</name>
						<rate>
							<timebase>60</timebase>
							<ntsc>TRUE</ntsc>
						</rate>
						<rate>
							<timebase>60</timebase>
							<ntsc>TRUE</ntsc>
						</rate>
						<duration>42</duration>
						<start>14382</start>
						<end>14424</end>
						<in>1926</in>
						<out>1968</out>
					</clipitem>
					<clipitem frameBlend="FALSE" id="audioclip-843">
						<file id="file-1"/>
						<name>bandicam 2025-06-02 00-01-10-144 - Audio</name>
						<rate>
							<timebase>60</timebase>
							<ntsc>TRUE</ntsc>
						</rate>
						<rate>
							<timebase>60</timebase>
							<ntsc>TRUE</ntsc>
						</rate>
						<duration>48</duration>
						<start>14424</start>
						<end>14472</end>
						<in>2172</in>
						<out>2220</out>
					</clipitem>
					<clipitem frameBlend="FALSE" id="audioclip-844">
						<file id="file-1"/>
						<name>bandicam 2025-06-02 00-01-10-144 - Audio</name>
						<rate>
							<timebase>60</timebase>
							<ntsc>TRUE</ntsc>
						</rate>
						<rate>
							<timebase>60</timebase>
							<ntsc>TRUE</ntsc>
						</rate>
						<duration>102</duration>
						<start>14472</start>
						<end>14574</end>
						<in>2274</in>
						<out>2376</out>
					</clipitem>
					<clipitem frameBlend="FALSE" id="audioclip-845">
						<file id="file-1"/>
						<name>bandicam 2025-06-02 00-01-10-144 - Audio</name>
						<rate>
							<timebase>60</timebase>
							<ntsc>TRUE</ntsc>
						</rate>
						<rate>
							<timebase>60</timebase>
							<ntsc>TRUE</ntsc>
						</rate>
						<duration>18</duration>
						<start>14574</start>
						<end>14592</end>
						<in>2448</in>
						<out>2466</out>
					</clipitem>
					<clipitem frameBlend="FALSE" id="audioclip-846">
						<file id="file-1"/>
						<name>bandicam 2025-06-02 00-01-10-144 - Audio</name>
						<rate>
							<timebase>60</timebase>
							<ntsc>TRUE</ntsc>
						</rate>
						<rate>
							<timebase>60</timebase>
							<ntsc>TRUE</ntsc>
						</rate>
						<duration>6</duration>
						<start>14592</start>
						<end>14598</end>
						<in>2478</in>
						<out>2484</out>
					</clipitem>
					<clipitem frameBlend="FALSE" id="audioclip-847">
						<file id="file-1"/>
						<name>bandicam 2025-06-02 00-01-10-144 - Audio</name>
						<rate>
							<timebase>60</timebase>
							<ntsc>TRUE</ntsc>
						</rate>
						<rate>
							<timebase>60</timebase>
							<ntsc>TRUE</ntsc>
						</rate>
						<duration>6</duration>
						<start>14598</start>
						<end>14604</end>
						<in>2496</in>
						<out>2502</out>
					</clipitem>
					<clipitem frameBlend="FALSE" id="audioclip-848">
						<file id="file-1"/>
						<name>bandicam 2025-06-02 00-01-10-144 - Audio</name>
						<rate>
							<timebase>60</timebase>
							<ntsc>TRUE</ntsc>
						</rate>
						<rate>
							<timebase>60</timebase>
							<ntsc>TRUE</ntsc>
						</rate>
						<duration>36</duration>
						<start>14604</start>
						<end>14640</end>
						<in>2532</in>
						<out>2568</out>
					</clipitem>
					<clipitem frameBlend="FALSE" id="audioclip-849">
						<file id="file-1"/>
						<name>bandicam 2025-06-02 00-01-10-144 - Audio</name>
						<rate>
							<timebase>60</timebase>
							<ntsc>TRUE</ntsc>
						</rate>
						<rate>
							<timebase>60</timebase>
							<ntsc>TRUE</ntsc>
						</rate>
						<duration>102</duration>
						<start>14640</start>
						<end>14742</end>
						<in>2592</in>
						<out>2694</out>
					</clipitem>
					<clipitem frameBlend="FALSE" id="audioclip-850">
						<file id="file-1"/>
						<name>bandicam 2025-06-02 00-01-10-144 - Audio</name>
						<rate>
							<timebase>60</timebase>
							<ntsc>TRUE</ntsc>
						</rate>
						<rate>
							<timebase>60</timebase>
							<ntsc>TRUE</ntsc>
						</rate>
						<duration>186</duration>
						<start>14742</start>
						<end>14928</end>
						<in>2724</in>
						<out>2910</out>
					</clipitem>
					<clipitem frameBlend="FALSE" id="audioclip-851">
						<file id="file-1"/>
						<name>bandicam 2025-06-02 00-01-10-144 - Audio</name>
						<rate>
							<timebase>60</timebase>
							<ntsc>TRUE</ntsc>
						</rate>
						<rate>
							<timebase>60</timebase>
							<ntsc>TRUE</ntsc>
						</rate>
						<duration>12</duration>
						<start>14928</start>
						<end>14940</end>
						<in>2940</in>
						<out>2952</out>
					</clipitem>
					<clipitem frameBlend="FALSE" id="audioclip-852">
						<file id="file-1"/>
						<name>bandicam 2025-06-02 00-01-10-144 - Audio</name>
						<rate>
							<timebase>60</timebase>
							<ntsc>TRUE</ntsc>
						</rate>
						<rate>
							<timebase>60</timebase>
							<ntsc>TRUE</ntsc>
						</rate>
						<duration>48</duration>
						<start>14940</start>
						<end>14988</end>
						<in>2964</in>
						<out>3012</out>
					</clipitem>
					<clipitem frameBlend="FALSE" id="audioclip-853">
						<file id="file-1"/>
						<name>bandicam 2025-06-02 00-01-10-144 - Audio</name>
						<rate>
							<timebase>60</timebase>
							<ntsc>TRUE</ntsc>
						</rate>
						<rate>
							<timebase>60</timebase>
							<ntsc>TRUE</ntsc>
						</rate>
						<duration>0</duration>
						<start>14988</start>
						<end>14988</end>
						<in>3024</in>
						<out>3024</out>
					</clipitem>
					<clipitem frameBlend="FALSE" id="audioclip-854">
						<file id="file-1"/>
						<name>bandicam 2025-06-02 00-01-10-144 - Audio</name>
						<rate>
							<timebase>60</timebase>
							<ntsc>TRUE</ntsc>
						</rate>
						<rate>
							<timebase>60</timebase>
							<ntsc>TRUE</ntsc>
						</rate>
						<duration>54</duration>
						<start>14988</start>
						<end>15042</end>
						<in>3054</in>
						<out>3108</out>
					</clipitem>
					<clipitem frameBlend="FALSE" id="audioclip-855">
						<file id="file-1"/>
						<name>bandicam 2025-06-02 00-01-10-144 - Audio</name>
						<rate>
							<timebase>60</timebase>
							<ntsc>TRUE</ntsc>
						</rate>
						<rate>
							<timebase>60</timebase>
							<ntsc>TRUE</ntsc>
						</rate>
						<duration>42</duration>
						<start>15042</start>
						<end>15084</end>
						<in>3120</in>
						<out>3162</out>
					</clipitem>
					<clipitem frameBlend="FALSE" id="audioclip-856">
						<file id="file-1"/>
						<name>bandicam 2025-06-02 00-01-10-144 - Audio</name>
						<rate>
							<timebase>60</timebase>
							<ntsc>TRUE</ntsc>
						</rate>
						<rate>
							<timebase>60</timebase>
							<ntsc>TRUE</ntsc>
						</rate>
						<duration>84</duration>
						<start>15084</start>
						<end>15168</end>
						<in>3222</in>
						<out>3306</out>
					</clipitem>
					<clipitem frameBlend="FALSE" id="audioclip-857">
						<file id="file-1"/>
						<name>bandicam 2025-06-02 00-01-10-144 - Audio</name>
						<rate>
							<timebase>60</timebase>
							<ntsc>TRUE</ntsc>
						</rate>
						<rate>
							<timebase>60</timebase>
							<ntsc>TRUE</ntsc>
						</rate>
						<duration>12</duration>
						<start>15168</start>
						<end>15180</end>
						<in>3318</in>
						<out>3330</out>
					</clipitem>
					<clipitem frameBlend="FALSE" id="audioclip-858">
						<file id="file-1"/>
						<name>bandicam 2025-06-02 00-01-10-144 - Audio</name>
						<rate>
							<timebase>60</timebase>
							<ntsc>TRUE</ntsc>
						</rate>
						<rate>
							<timebase>60</timebase>
							<ntsc>TRUE</ntsc>
						</rate>
						<duration>42</duration>
						<start>15180</start>
						<end>15222</end>
						<in>3372</in>
						<out>3414</out>
					</clipitem>
					<clipitem frameBlend="FALSE" id="audioclip-859">
						<file id="file-1"/>
						<name>bandicam 2025-06-02 00-01-10-144 - Audio</name>
						<rate>
							<timebase>60</timebase>
							<ntsc>TRUE</ntsc>
						</rate>
						<rate>
							<timebase>60</timebase>
							<ntsc>TRUE</ntsc>
						</rate>
						<duration>24</duration>
						<start>15222</start>
						<end>15246</end>
						<in>3450</in>
						<out>3474</out>
					</clipitem>
					<clipitem frameBlend="FALSE" id="audioclip-860">
						<file id="file-1"/>
						<name>bandicam 2025-06-02 00-01-10-144 - Audio</name>
						<rate>
							<timebase>60</timebase>
							<ntsc>TRUE</ntsc>
						</rate>
						<rate>
							<timebase>60</timebase>
							<ntsc>TRUE</ntsc>
						</rate>
						<duration>42</duration>
						<start>15246</start>
						<end>15288</end>
						<in>3498</in>
						<out>3540</out>
					</clipitem>
					<clipitem frameBlend="FALSE" id="audioclip-861">
						<file id="file-1"/>
						<name>bandicam 2025-06-02 00-01-10-144 - Audio</name>
						<rate>
							<timebase>60</timebase>
							<ntsc>TRUE</ntsc>
						</rate>
						<rate>
							<timebase>60</timebase>
							<ntsc>TRUE</ntsc>
						</rate>
						<duration>0</duration>
						<start>15288</start>
						<end>15288</end>
						<in>3582</in>
						<out>3582</out>
					</clipitem>
					<clipitem frameBlend="FALSE" id="audioclip-862">
						<file id="file-1"/>
						<name>bandicam 2025-06-02 00-01-10-144 - Audio</name>
						<rate>
							<timebase>60</timebase>
							<ntsc>TRUE</ntsc>
						</rate>
						<rate>
							<timebase>60</timebase>
							<ntsc>TRUE</ntsc>
						</rate>
						<duration>18</duration>
						<start>15288</start>
						<end>15306</end>
						<in>3624</in>
						<out>3642</out>
					</clipitem>
					<clipitem frameBlend="FALSE" id="audioclip-863">
						<file id="file-1"/>
						<name>bandicam 2025-06-02 00-01-10-144 - Audio</name>
						<rate>
							<timebase>60</timebase>
							<ntsc>TRUE</ntsc>
						</rate>
						<rate>
							<timebase>60</timebase>
							<ntsc>TRUE</ntsc>
						</rate>
						<duration>6</duration>
						<start>15306</start>
						<end>15312</end>
						<in>3672</in>
						<out>3678</out>
					</clipitem>
					<clipitem frameBlend="FALSE" id="audioclip-864">
						<file id="file-1"/>
						<name>bandicam 2025-06-02 00-01-10-144 - Audio</name>
						<rate>
							<timebase>60</timebase>
							<ntsc>TRUE</ntsc>
						</rate>
						<rate>
							<timebase>60</timebase>
							<ntsc>TRUE</ntsc>
						</rate>
						<duration>0</duration>
						<start>15312</start>
						<end>15312</end>
						<in>3696</in>
						<out>3696</out>
					</clipitem>
					<clipitem frameBlend="FALSE" id="audioclip-865">
						<file id="file-1"/>
						<name>bandicam 2025-06-02 00-01-10-144 - Audio</name>
						<rate>
							<timebase>60</timebase>
							<ntsc>TRUE</ntsc>
						</rate>
						<rate>
							<timebase>60</timebase>
							<ntsc>TRUE</ntsc>
						</rate>
						<duration>12</duration>
						<start>15312</start>
						<end>15324</end>
						<in>3768</in>
						<out>3780</out>
					</clipitem>
					<clipitem frameBlend="FALSE" id="audioclip-866">
						<file id="file-1"/>
						<name>bandicam 2025-06-02 00-01-10-144 - Audio</name>
						<rate>
							<timebase>60</timebase>
							<ntsc>TRUE</ntsc>
						</rate>
						<rate>
							<timebase>60</timebase>
							<ntsc>TRUE</ntsc>
						</rate>
						<duration>102</duration>
						<start>15324</start>
						<end>15426</end>
						<in>3846</in>
						<out>3948</out>
					</clipitem>
					<clipitem frameBlend="FALSE" id="audioclip-867">
						<file id="file-1"/>
						<name>bandicam 2025-06-02 00-01-10-144 - Audio</name>
						<rate>
							<timebase>60</timebase>
							<ntsc>TRUE</ntsc>
						</rate>
						<rate>
							<timebase>60</timebase>
							<ntsc>TRUE</ntsc>
						</rate>
						<duration>6</duration>
						<start>15426</start>
						<end>15432</end>
						<in>4026</in>
						<out>4032</out>
					</clipitem>
					<clipitem frameBlend="FALSE" id="audioclip-868">
						<file id="file-1"/>
						<name>bandicam 2025-06-02 00-01-10-144 - Audio</name>
						<rate>
							<timebase>60</timebase>
							<ntsc>TRUE</ntsc>
						</rate>
						<rate>
							<timebase>60</timebase>
							<ntsc>TRUE</ntsc>
						</rate>
						<duration>0</duration>
						<start>15432</start>
						<end>15432</end>
						<in>4044</in>
						<out>4044</out>
					</clipitem>
					<clipitem frameBlend="FALSE" id="audioclip-869">
						<file id="file-1"/>
						<name>bandicam 2025-06-02 00-01-10-144 - Audio</name>
						<rate>
							<timebase>60</timebase>
							<ntsc>TRUE</ntsc>
						</rate>
						<rate>
							<timebase>60</timebase>
							<ntsc>TRUE</ntsc>
						</rate>
						<duration>150</duration>
						<start>15432</start>
						<end>15582</end>
						<in>4056</in>
						<out>4206</out>
					</clipitem>
					<clipitem frameBlend="FALSE" id="audioclip-870">
						<file id="file-1"/>
						<name>bandicam 2025-06-02 00-01-10-144 - Audio</name>
						<rate>
							<timebase>60</timebase>
							<ntsc>TRUE</ntsc>
						</rate>
						<rate>
							<timebase>60</timebase>
							<ntsc>TRUE</ntsc>
						</rate>
						<duration>216</duration>
						<start>15582</start>
						<end>15798</end>
						<in>4218</in>
						<out>4434</out>
					</clipitem>
					<clipitem frameBlend="FALSE" id="audioclip-871">
						<file id="file-1"/>
						<name>bandicam 2025-06-02 00-01-10-144 - Audio</name>
						<rate>
							<timebase>60</timebase>
							<ntsc>TRUE</ntsc>
						</rate>
						<rate>
							<timebase>60</timebase>
							<ntsc>TRUE</ntsc>
						</rate>
						<duration>90</duration>
						<start>15798</start>
						<end>15888</end>
						<in>4464</in>
						<out>4554</out>
					</clipitem>
					<clipitem frameBlend="FALSE" id="audioclip-872">
						<file id="file-1"/>
						<name>bandicam 2025-06-02 00-01-10-144 - Audio</name>
						<rate>
							<timebase>60</timebase>
							<ntsc>TRUE</ntsc>
						</rate>
						<rate>
							<timebase>60</timebase>
							<ntsc>TRUE</ntsc>
						</rate>
						<duration>30</duration>
						<start>15888</start>
						<end>15918</end>
						<in>4602</in>
						<out>4632</out>
					</clipitem>
					<clipitem frameBlend="FALSE" id="audioclip-873">
						<file id="file-1"/>
						<name>bandicam 2025-06-02 00-01-10-144 - Audio</name>
						<rate>
							<timebase>60</timebase>
							<ntsc>TRUE</ntsc>
						</rate>
						<rate>
							<timebase>60</timebase>
							<ntsc>TRUE</ntsc>
						</rate>
						<duration>42</duration>
						<start>15918</start>
						<end>15960</end>
						<in>4650</in>
						<out>4692</out>
					</clipitem>
					<clipitem frameBlend="FALSE" id="audioclip-874">
						<file id="file-1"/>
						<name>bandicam 2025-06-02 00-01-10-144 - Audio</name>
						<rate>
							<timebase>60</timebase>
							<ntsc>TRUE</ntsc>
						</rate>
						<rate>
							<timebase>60</timebase>
							<ntsc>TRUE</ntsc>
						</rate>
						<duration>6</duration>
						<start>15960</start>
						<end>15966</end>
						<in>4704</in>
						<out>4710</out>
					</clipitem>
					<clipitem frameBlend="FALSE" id="audioclip-875">
						<file id="file-1"/>
						<name>bandicam 2025-06-02 00-01-10-144 - Audio</name>
						<rate>
							<timebase>60</timebase>
							<ntsc>TRUE</ntsc>
						</rate>
						<rate>
							<timebase>60</timebase>
							<ntsc>TRUE</ntsc>
						</rate>
						<duration>126</duration>
						<start>15966</start>
						<end>16092</end>
						<in>4722</in>
						<out>4848</out>
					</clipitem>
					<clipitem frameBlend="FALSE" id="audioclip-876">
						<file id="file-1"/>
						<name>bandicam 2025-06-02 00-01-10-144 - Audio</name>
						<rate>
							<timebase>60</timebase>
							<ntsc>TRUE</ntsc>
						</rate>
						<rate>
							<timebase>60</timebase>
							<ntsc>TRUE</ntsc>
						</rate>
						<duration>12</duration>
						<start>16092</start>
						<end>16104</end>
						<in>4860</in>
						<out>4872</out>
					</clipitem>
					<clipitem frameBlend="FALSE" id="audioclip-877">
						<file id="file-1"/>
						<name>bandicam 2025-06-02 00-01-10-144 - Audio</name>
						<rate>
							<timebase>60</timebase>
							<ntsc>TRUE</ntsc>
						</rate>
						<rate>
							<timebase>60</timebase>
							<ntsc>TRUE</ntsc>
						</rate>
						<duration>6</duration>
						<start>16104</start>
						<end>16110</end>
						<in>4890</in>
						<out>4896</out>
					</clipitem>
					<clipitem frameBlend="FALSE" id="audioclip-878">
						<file id="file-1"/>
						<name>bandicam 2025-06-02 00-01-10-144 - Audio</name>
						<rate>
							<timebase>60</timebase>
							<ntsc>TRUE</ntsc>
						</rate>
						<rate>
							<timebase>60</timebase>
							<ntsc>TRUE</ntsc>
						</rate>
						<duration>24</duration>
						<start>16110</start>
						<end>16134</end>
						<in>4908</in>
						<out>4932</out>
					</clipitem>
					<clipitem frameBlend="FALSE" id="audioclip-879">
						<file id="file-1"/>
						<name>bandicam 2025-06-02 00-01-10-144 - Audio</name>
						<rate>
							<timebase>60</timebase>
							<ntsc>TRUE</ntsc>
						</rate>
						<rate>
							<timebase>60</timebase>
							<ntsc>TRUE</ntsc>
						</rate>
						<duration>234</duration>
						<start>16134</start>
						<end>16368</end>
						<in>4944</in>
						<out>5178</out>
					</clipitem>
					<clipitem frameBlend="FALSE" id="audioclip-880">
						<file id="file-1"/>
						<name>bandicam 2025-06-02 00-01-10-144 - Audio</name>
						<rate>
							<timebase>60</timebase>
							<ntsc>TRUE</ntsc>
						</rate>
						<rate>
							<timebase>60</timebase>
							<ntsc>TRUE</ntsc>
						</rate>
						<duration>12</duration>
						<start>16368</start>
						<end>16380</end>
						<in>5202</in>
						<out>5214</out>
					</clipitem>
					<clipitem frameBlend="FALSE" id="audioclip-881">
						<file id="file-1"/>
						<name>bandicam 2025-06-02 00-01-10-144 - Audio</name>
						<rate>
							<timebase>60</timebase>
							<ntsc>TRUE</ntsc>
						</rate>
						<rate>
							<timebase>60</timebase>
							<ntsc>TRUE</ntsc>
						</rate>
						<duration>42</duration>
						<start>16380</start>
						<end>16422</end>
						<in>5232</in>
						<out>5274</out>
					</clipitem>
					<clipitem frameBlend="FALSE" id="audioclip-882">
						<file id="file-1"/>
						<name>bandicam 2025-06-02 00-01-10-144 - Audio</name>
						<rate>
							<timebase>60</timebase>
							<ntsc>TRUE</ntsc>
						</rate>
						<rate>
							<timebase>60</timebase>
							<ntsc>TRUE</ntsc>
						</rate>
						<duration>36</duration>
						<start>16422</start>
						<end>16458</end>
						<in>5328</in>
						<out>5364</out>
					</clipitem>
					<clipitem frameBlend="FALSE" id="audioclip-883">
						<file id="file-1"/>
						<name>bandicam 2025-06-02 00-01-10-144 - Audio</name>
						<rate>
							<timebase>60</timebase>
							<ntsc>TRUE</ntsc>
						</rate>
						<rate>
							<timebase>60</timebase>
							<ntsc>TRUE</ntsc>
						</rate>
						<duration>84</duration>
						<start>16458</start>
						<end>16542</end>
						<in>5382</in>
						<out>5466</out>
					</clipitem>
					<clipitem frameBlend="FALSE" id="audioclip-884">
						<file id="file-1"/>
						<name>bandicam 2025-06-02 00-01-10-144 - Audio</name>
						<rate>
							<timebase>60</timebase>
							<ntsc>TRUE</ntsc>
						</rate>
						<rate>
							<timebase>60</timebase>
							<ntsc>TRUE</ntsc>
						</rate>
						<duration>30</duration>
						<start>16542</start>
						<end>16572</end>
						<in>5490</in>
						<out>5520</out>
					</clipitem>
					<clipitem frameBlend="FALSE" id="audioclip-885">
						<file id="file-1"/>
						<name>bandicam 2025-06-02 00-01-10-144 - Audio</name>
						<rate>
							<timebase>60</timebase>
							<ntsc>TRUE</ntsc>
						</rate>
						<rate>
							<timebase>60</timebase>
							<ntsc>TRUE</ntsc>
						</rate>
						<duration>66</duration>
						<start>16572</start>
						<end>16638</end>
						<in>5532</in>
						<out>5598</out>
					</clipitem>
					<clipitem frameBlend="FALSE" id="audioclip-886">
						<file id="file-1"/>
						<name>bandicam 2025-06-02 00-01-10-144 - Audio</name>
						<rate>
							<timebase>60</timebase>
							<ntsc>TRUE</ntsc>
						</rate>
						<rate>
							<timebase>60</timebase>
							<ntsc>TRUE</ntsc>
						</rate>
						<duration>24</duration>
						<start>16638</start>
						<end>16662</end>
						<in>5622</in>
						<out>5646</out>
					</clipitem>
					<clipitem frameBlend="FALSE" id="audioclip-887">
						<file id="file-1"/>
						<name>bandicam 2025-06-02 00-01-10-144 - Audio</name>
						<rate>
							<timebase>60</timebase>
							<ntsc>TRUE</ntsc>
						</rate>
						<rate>
							<timebase>60</timebase>
							<ntsc>TRUE</ntsc>
						</rate>
						<duration>30</duration>
						<start>16662</start>
						<end>16692</end>
						<in>5664</in>
						<out>5694</out>
					</clipitem>
					<clipitem frameBlend="FALSE" id="audioclip-888">
						<file id="file-1"/>
						<name>bandicam 2025-06-02 00-01-10-144 - Audio</name>
						<rate>
							<timebase>60</timebase>
							<ntsc>TRUE</ntsc>
						</rate>
						<rate>
							<timebase>60</timebase>
							<ntsc>TRUE</ntsc>
						</rate>
						<duration>72</duration>
						<start>16692</start>
						<end>16764</end>
						<in>5712</in>
						<out>5784</out>
					</clipitem>
					<clipitem frameBlend="FALSE" id="audioclip-889">
						<file id="file-1"/>
						<name>bandicam 2025-06-02 00-01-10-144 - Audio</name>
						<rate>
							<timebase>60</timebase>
							<ntsc>TRUE</ntsc>
						</rate>
						<rate>
							<timebase>60</timebase>
							<ntsc>TRUE</ntsc>
						</rate>
						<duration>294</duration>
						<start>16764</start>
						<end>17058</end>
						<in>5802</in>
						<out>6096</out>
					</clipitem>
					<clipitem frameBlend="FALSE" id="audioclip-890">
						<file id="file-1"/>
						<name>bandicam 2025-06-02 00-01-10-144 - Audio</name>
						<rate>
							<timebase>60</timebase>
							<ntsc>TRUE</ntsc>
						</rate>
						<rate>
							<timebase>60</timebase>
							<ntsc>TRUE</ntsc>
						</rate>
						<duration>6</duration>
						<start>17058</start>
						<end>17064</end>
						<in>6132</in>
						<out>6138</out>
					</clipitem>
					<clipitem frameBlend="FALSE" id="audioclip-891">
						<file id="file-1"/>
						<name>bandicam 2025-06-02 00-01-10-144 - Audio</name>
						<rate>
							<timebase>60</timebase>
							<ntsc>TRUE</ntsc>
						</rate>
						<rate>
							<timebase>60</timebase>
							<ntsc>TRUE</ntsc>
						</rate>
						<duration>60</duration>
						<start>17064</start>
						<end>17124</end>
						<in>6150</in>
						<out>6210</out>
					</clipitem>
					<clipitem frameBlend="FALSE" id="audioclip-892">
						<file id="file-1"/>
						<name>bandicam 2025-06-02 00-01-10-144 - Audio</name>
						<rate>
							<timebase>60</timebase>
							<ntsc>TRUE</ntsc>
						</rate>
						<rate>
							<timebase>60</timebase>
							<ntsc>TRUE</ntsc>
						</rate>
						<duration>42</duration>
						<start>17124</start>
						<end>17166</end>
						<in>6222</in>
						<out>6264</out>
					</clipitem>
					<clipitem frameBlend="FALSE" id="audioclip-893">
						<file id="file-1"/>
						<name>bandicam 2025-06-02 00-01-10-144 - Audio</name>
						<rate>
							<timebase>60</timebase>
							<ntsc>TRUE</ntsc>
						</rate>
						<rate>
							<timebase>60</timebase>
							<ntsc>TRUE</ntsc>
						</rate>
						<duration>0</duration>
						<start>17166</start>
						<end>17166</end>
						<in>6282</in>
						<out>6282</out>
					</clipitem>
					<clipitem frameBlend="FALSE" id="audioclip-894">
						<file id="file-1"/>
						<name>bandicam 2025-06-02 00-01-10-144 - Audio</name>
						<rate>
							<timebase>60</timebase>
							<ntsc>TRUE</ntsc>
						</rate>
						<rate>
							<timebase>60</timebase>
							<ntsc>TRUE</ntsc>
						</rate>
						<duration>0</duration>
						<start>17166</start>
						<end>17166</end>
						<in>6300</in>
						<out>6300</out>
					</clipitem>
					<clipitem frameBlend="FALSE" id="audioclip-895">
						<file id="file-1"/>
						<name>bandicam 2025-06-02 00-01-10-144 - Audio</name>
						<rate>
							<timebase>60</timebase>
							<ntsc>TRUE</ntsc>
						</rate>
						<rate>
							<timebase>60</timebase>
							<ntsc>TRUE</ntsc>
						</rate>
						<duration>42</duration>
						<start>17166</start>
						<end>17208</end>
						<in>6312</in>
						<out>6354</out>
					</clipitem>
					<clipitem frameBlend="FALSE" id="audioclip-896">
						<file id="file-1"/>
						<name>bandicam 2025-06-02 00-01-10-144 - Audio</name>
						<rate>
							<timebase>60</timebase>
							<ntsc>TRUE</ntsc>
						</rate>
						<rate>
							<timebase>60</timebase>
							<ntsc>TRUE</ntsc>
						</rate>
						<duration>36</duration>
						<start>17208</start>
						<end>17244</end>
						<in>6384</in>
						<out>6420</out>
					</clipitem>
					<clipitem frameBlend="FALSE" id="audioclip-897">
						<file id="file-1"/>
						<name>bandicam 2025-06-02 00-01-10-144 - Audio</name>
						<rate>
							<timebase>60</timebase>
							<ntsc>TRUE</ntsc>
						</rate>
						<rate>
							<timebase>60</timebase>
							<ntsc>TRUE</ntsc>
						</rate>
						<duration>24</duration>
						<start>17244</start>
						<end>17268</end>
						<in>6432</in>
						<out>6456</out>
					</clipitem>
					<clipitem frameBlend="FALSE" id="audioclip-898">
						<file id="file-1"/>
						<name>bandicam 2025-06-02 00-01-10-144 - Audio</name>
						<rate>
							<timebase>60</timebase>
							<ntsc>TRUE</ntsc>
						</rate>
						<rate>
							<timebase>60</timebase>
							<ntsc>TRUE</ntsc>
						</rate>
						<duration>120</duration>
						<start>17268</start>
						<end>17388</end>
						<in>6468</in>
						<out>6588</out>
					</clipitem>
					<clipitem frameBlend="FALSE" id="audioclip-899">
						<file id="file-1"/>
						<name>bandicam 2025-06-02 00-01-10-144 - Audio</name>
						<rate>
							<timebase>60</timebase>
							<ntsc>TRUE</ntsc>
						</rate>
						<rate>
							<timebase>60</timebase>
							<ntsc>TRUE</ntsc>
						</rate>
						<duration>42</duration>
						<start>17388</start>
						<end>17430</end>
						<in>6612</in>
						<out>6654</out>
					</clipitem>
					<clipitem frameBlend="FALSE" id="audioclip-900">
						<file id="file-1"/>
						<name>bandicam 2025-06-02 00-01-10-144 - Audio</name>
						<rate>
							<timebase>60</timebase>
							<ntsc>TRUE</ntsc>
						</rate>
						<rate>
							<timebase>60</timebase>
							<ntsc>TRUE</ntsc>
						</rate>
						<duration>0</duration>
						<start>17430</start>
						<end>17430</end>
						<in>6714</in>
						<out>6714</out>
					</clipitem>
					<clipitem frameBlend="FALSE" id="audioclip-901">
						<file id="file-1"/>
						<name>bandicam 2025-06-02 00-01-10-144 - Audio</name>
						<rate>
							<timebase>60</timebase>
							<ntsc>TRUE</ntsc>
						</rate>
						<rate>
							<timebase>60</timebase>
							<ntsc>TRUE</ntsc>
						</rate>
						<duration>6</duration>
						<start>17430</start>
						<end>17436</end>
						<in>6726</in>
						<out>6732</out>
					</clipitem>
					<clipitem frameBlend="FALSE" id="audioclip-902">
						<file id="file-1"/>
						<name>bandicam 2025-06-02 00-01-10-144 - Audio</name>
						<rate>
							<timebase>60</timebase>
							<ntsc>TRUE</ntsc>
						</rate>
						<rate>
							<timebase>60</timebase>
							<ntsc>TRUE</ntsc>
						</rate>
						<duration>18</duration>
						<start>17436</start>
						<end>17454</end>
						<in>6750</in>
						<out>6768</out>
					</clipitem>
					<clipitem frameBlend="FALSE" id="audioclip-903">
						<file id="file-1"/>
						<name>bandicam 2025-06-02 00-01-10-144 - Audio</name>
						<rate>
							<timebase>60</timebase>
							<ntsc>TRUE</ntsc>
						</rate>
						<rate>
							<timebase>60</timebase>
							<ntsc>TRUE</ntsc>
						</rate>
						<duration>72</duration>
						<start>17454</start>
						<end>17526</end>
						<in>6798</in>
						<out>6870</out>
					</clipitem>
					<clipitem frameBlend="FALSE" id="audioclip-904">
						<file id="file-1"/>
						<name>bandicam 2025-06-02 00-01-10-144 - Audio</name>
						<rate>
							<timebase>60</timebase>
							<ntsc>TRUE</ntsc>
						</rate>
						<rate>
							<timebase>60</timebase>
							<ntsc>TRUE</ntsc>
						</rate>
						<duration>60</duration>
						<start>17526</start>
						<end>17586</end>
						<in>6894</in>
						<out>6954</out>
					</clipitem>
					<clipitem frameBlend="FALSE" id="audioclip-905">
						<file id="file-1"/>
						<name>bandicam 2025-06-02 00-01-10-144 - Audio</name>
						<rate>
							<timebase>60</timebase>
							<ntsc>TRUE</ntsc>
						</rate>
						<rate>
							<timebase>60</timebase>
							<ntsc>TRUE</ntsc>
						</rate>
						<duration>54</duration>
						<start>17586</start>
						<end>17640</end>
						<in>6996</in>
						<out>7050</out>
					</clipitem>
					<clipitem frameBlend="FALSE" id="audioclip-906">
						<file id="file-1"/>
						<name>bandicam 2025-06-02 00-01-10-144 - Audio</name>
						<rate>
							<timebase>60</timebase>
							<ntsc>TRUE</ntsc>
						</rate>
						<rate>
							<timebase>60</timebase>
							<ntsc>TRUE</ntsc>
						</rate>
						<duration>0</duration>
						<start>17640</start>
						<end>17640</end>
						<in>60</in>
						<out>60</out>
					</clipitem>
					<clipitem frameBlend="FALSE" id="audioclip-907">
						<file id="file-1"/>
						<name>bandicam 2025-06-02 00-01-10-144 - Audio</name>
						<rate>
							<timebase>60</timebase>
							<ntsc>TRUE</ntsc>
						</rate>
						<rate>
							<timebase>60</timebase>
							<ntsc>TRUE</ntsc>
						</rate>
						<duration>12</duration>
						<start>17640</start>
						<end>17652</end>
						<in>114</in>
						<out>126</out>
					</clipitem>
					<clipitem frameBlend="FALSE" id="audioclip-908">
						<file id="file-1"/>
						<name>bandicam 2025-06-02 00-01-10-144 - Audio</name>
						<rate>
							<timebase>60</timebase>
							<ntsc>TRUE</ntsc>
						</rate>
						<rate>
							<timebase>60</timebase>
							<ntsc>TRUE</ntsc>
						</rate>
						<duration>18</duration>
						<start>17652</start>
						<end>17670</end>
						<in>450</in>
						<out>468</out>
					</clipitem>
					<clipitem frameBlend="FALSE" id="audioclip-909">
						<file id="file-1"/>
						<name>bandicam 2025-06-02 00-01-10-144 - Audio</name>
						<rate>
							<timebase>60</timebase>
							<ntsc>TRUE</ntsc>
						</rate>
						<rate>
							<timebase>60</timebase>
							<ntsc>TRUE</ntsc>
						</rate>
						<duration>6</duration>
						<start>17670</start>
						<end>17676</end>
						<in>582</in>
						<out>588</out>
					</clipitem>
					<clipitem frameBlend="FALSE" id="audioclip-910">
						<file id="file-1"/>
						<name>bandicam 2025-06-02 00-01-10-144 - Audio</name>
						<rate>
							<timebase>60</timebase>
							<ntsc>TRUE</ntsc>
						</rate>
						<rate>
							<timebase>60</timebase>
							<ntsc>TRUE</ntsc>
						</rate>
						<duration>6</duration>
						<start>17676</start>
						<end>17682</end>
						<in>1410</in>
						<out>1416</out>
					</clipitem>
					<clipitem frameBlend="FALSE" id="audioclip-911">
						<file id="file-1"/>
						<name>bandicam 2025-06-02 00-01-10-144 - Audio</name>
						<rate>
							<timebase>60</timebase>
							<ntsc>TRUE</ntsc>
						</rate>
						<rate>
							<timebase>60</timebase>
							<ntsc>TRUE</ntsc>
						</rate>
						<duration>0</duration>
						<start>17682</start>
						<end>17682</end>
						<in>1692</in>
						<out>1692</out>
					</clipitem>
					<clipitem frameBlend="FALSE" id="audioclip-912">
						<file id="file-1"/>
						<name>bandicam 2025-06-02 00-01-10-144 - Audio</name>
						<rate>
							<timebase>60</timebase>
							<ntsc>TRUE</ntsc>
						</rate>
						<rate>
							<timebase>60</timebase>
							<ntsc>TRUE</ntsc>
						</rate>
						<duration>6</duration>
						<start>17682</start>
						<end>17688</end>
						<in>1704</in>
						<out>1710</out>
					</clipitem>
					<clipitem frameBlend="FALSE" id="audioclip-913">
						<file id="file-1"/>
						<name>bandicam 2025-06-02 00-01-10-144 - Audio</name>
						<rate>
							<timebase>60</timebase>
							<ntsc>TRUE</ntsc>
						</rate>
						<rate>
							<timebase>60</timebase>
							<ntsc>TRUE</ntsc>
						</rate>
						<duration>12</duration>
						<start>17688</start>
						<end>17700</end>
						<in>1746</in>
						<out>1758</out>
					</clipitem>
					<clipitem frameBlend="FALSE" id="audioclip-914">
						<file id="file-1"/>
						<name>bandicam 2025-06-02 00-01-10-144 - Audio</name>
						<rate>
							<timebase>60</timebase>
							<ntsc>TRUE</ntsc>
						</rate>
						<rate>
							<timebase>60</timebase>
							<ntsc>TRUE</ntsc>
						</rate>
						<duration>0</duration>
						<start>17700</start>
						<end>17700</end>
						<in>1812</in>
						<out>1812</out>
					</clipitem>
					<clipitem frameBlend="FALSE" id="audioclip-915">
						<file id="file-1"/>
						<name>bandicam 2025-06-02 00-01-10-144 - Audio</name>
						<rate>
							<timebase>60</timebase>
							<ntsc>TRUE</ntsc>
						</rate>
						<rate>
							<timebase>60</timebase>
							<ntsc>TRUE</ntsc>
						</rate>
						<duration>0</duration>
						<start>17700</start>
						<end>17700</end>
						<in>1854</in>
						<out>1854</out>
					</clipitem>
					<clipitem frameBlend="FALSE" id="audioclip-916">
						<file id="file-1"/>
						<name>bandicam 2025-06-02 00-01-10-144 - Audio</name>
						<rate>
							<timebase>60</timebase>
							<ntsc>TRUE</ntsc>
						</rate>
						<rate>
							<timebase>60</timebase>
							<ntsc>TRUE</ntsc>
						</rate>
						<duration>6</duration>
						<start>17700</start>
						<end>17706</end>
						<in>1884</in>
						<out>1890</out>
					</clipitem>
					<clipitem frameBlend="FALSE" id="audioclip-917">
						<file id="file-1"/>
						<name>bandicam 2025-06-02 00-01-10-144 - Audio</name>
						<rate>
							<timebase>60</timebase>
							<ntsc>TRUE</ntsc>
						</rate>
						<rate>
							<timebase>60</timebase>
							<ntsc>TRUE</ntsc>
						</rate>
						<duration>0</duration>
						<start>17706</start>
						<end>17706</end>
						<in>2292</in>
						<out>2292</out>
					</clipitem>
					<clipitem frameBlend="FALSE" id="audioclip-918">
						<file id="file-1"/>
						<name>bandicam 2025-06-02 00-01-10-144 - Audio</name>
						<rate>
							<timebase>60</timebase>
							<ntsc>TRUE</ntsc>
						</rate>
						<rate>
							<timebase>60</timebase>
							<ntsc>TRUE</ntsc>
						</rate>
						<duration>12</duration>
						<start>17706</start>
						<end>17718</end>
						<in>2310</in>
						<out>2322</out>
					</clipitem>
					<clipitem frameBlend="FALSE" id="audioclip-919">
						<file id="file-1"/>
						<name>bandicam 2025-06-02 00-01-10-144 - Audio</name>
						<rate>
							<timebase>60</timebase>
							<ntsc>TRUE</ntsc>
						</rate>
						<rate>
							<timebase>60</timebase>
							<ntsc>TRUE</ntsc>
						</rate>
						<duration>6</duration>
						<start>17718</start>
						<end>17724</end>
						<in>2448</in>
						<out>2454</out>
					</clipitem>
					<clipitem frameBlend="FALSE" id="audioclip-920">
						<file id="file-1"/>
						<name>bandicam 2025-06-02 00-01-10-144 - Audio</name>
						<rate>
							<timebase>60</timebase>
							<ntsc>TRUE</ntsc>
						</rate>
						<rate>
							<timebase>60</timebase>
							<ntsc>TRUE</ntsc>
						</rate>
						<duration>12</duration>
						<start>17724</start>
						<end>17736</end>
						<in>2742</in>
						<out>2754</out>
					</clipitem>
					<clipitem frameBlend="FALSE" id="audioclip-921">
						<file id="file-1"/>
						<name>bandicam 2025-06-02 00-01-10-144 - Audio</name>
						<rate>
							<timebase>60</timebase>
							<ntsc>TRUE</ntsc>
						</rate>
						<rate>
							<timebase>60</timebase>
							<ntsc>TRUE</ntsc>
						</rate>
						<duration>6</duration>
						<start>17736</start>
						<end>17742</end>
						<in>2766</in>
						<out>2772</out>
					</clipitem>
					<clipitem frameBlend="FALSE" id="audioclip-922">
						<file id="file-1"/>
						<name>bandicam 2025-06-02 00-01-10-144 - Audio</name>
						<rate>
							<timebase>60</timebase>
							<ntsc>TRUE</ntsc>
						</rate>
						<rate>
							<timebase>60</timebase>
							<ntsc>TRUE</ntsc>
						</rate>
						<duration>18</duration>
						<start>17742</start>
						<end>17760</end>
						<in>2802</in>
						<out>2820</out>
					</clipitem>
					<clipitem frameBlend="FALSE" id="audioclip-923">
						<file id="file-1"/>
						<name>bandicam 2025-06-02 00-01-10-144 - Audio</name>
						<rate>
							<timebase>60</timebase>
							<ntsc>TRUE</ntsc>
						</rate>
						<rate>
							<timebase>60</timebase>
							<ntsc>TRUE</ntsc>
						</rate>
						<duration>30</duration>
						<start>17760</start>
						<end>17790</end>
						<in>3072</in>
						<out>3102</out>
					</clipitem>
					<clipitem frameBlend="FALSE" id="audioclip-924">
						<file id="file-1"/>
						<name>bandicam 2025-06-02 00-01-10-144 - Audio</name>
						<rate>
							<timebase>60</timebase>
							<ntsc>TRUE</ntsc>
						</rate>
						<rate>
							<timebase>60</timebase>
							<ntsc>TRUE</ntsc>
						</rate>
						<duration>18</duration>
						<start>17790</start>
						<end>17808</end>
						<in>3270</in>
						<out>3288</out>
					</clipitem>
					<clipitem frameBlend="FALSE" id="audioclip-925">
						<file id="file-1"/>
						<name>bandicam 2025-06-02 00-01-10-144 - Audio</name>
						<rate>
							<timebase>60</timebase>
							<ntsc>TRUE</ntsc>
						</rate>
						<rate>
							<timebase>60</timebase>
							<ntsc>TRUE</ntsc>
						</rate>
						<duration>18</duration>
						<start>17808</start>
						<end>17826</end>
						<in>3456</in>
						<out>3474</out>
					</clipitem>
					<clipitem frameBlend="FALSE" id="audioclip-926">
						<file id="file-1"/>
						<name>bandicam 2025-06-02 00-01-10-144 - Audio</name>
						<rate>
							<timebase>60</timebase>
							<ntsc>TRUE</ntsc>
						</rate>
						<rate>
							<timebase>60</timebase>
							<ntsc>TRUE</ntsc>
						</rate>
						<duration>12</duration>
						<start>17826</start>
						<end>17838</end>
						<in>3630</in>
						<out>3642</out>
					</clipitem>
					<clipitem frameBlend="FALSE" id="audioclip-927">
						<file id="file-1"/>
						<name>bandicam 2025-06-02 00-01-10-144 - Audio</name>
						<rate>
							<timebase>60</timebase>
							<ntsc>TRUE</ntsc>
						</rate>
						<rate>
							<timebase>60</timebase>
							<ntsc>TRUE</ntsc>
						</rate>
						<duration>6</duration>
						<start>17838</start>
						<end>17844</end>
						<in>4086</in>
						<out>4092</out>
					</clipitem>
					<clipitem frameBlend="FALSE" id="audioclip-928">
						<file id="file-1"/>
						<name>bandicam 2025-06-02 00-01-10-144 - Audio</name>
						<rate>
							<timebase>60</timebase>
							<ntsc>TRUE</ntsc>
						</rate>
						<rate>
							<timebase>60</timebase>
							<ntsc>TRUE</ntsc>
						</rate>
						<duration>6</duration>
						<start>17844</start>
						<end>17850</end>
						<in>4104</in>
						<out>4110</out>
					</clipitem>
					<clipitem frameBlend="FALSE" id="audioclip-929">
						<file id="file-1"/>
						<name>bandicam 2025-06-02 00-01-10-144 - Audio</name>
						<rate>
							<timebase>60</timebase>
							<ntsc>TRUE</ntsc>
						</rate>
						<rate>
							<timebase>60</timebase>
							<ntsc>TRUE</ntsc>
						</rate>
						<duration>0</duration>
						<start>17850</start>
						<end>17850</end>
						<in>4134</in>
						<out>4134</out>
					</clipitem>
					<clipitem frameBlend="FALSE" id="audioclip-930">
						<file id="file-1"/>
						<name>bandicam 2025-06-02 00-01-10-144 - Audio</name>
						<rate>
							<timebase>60</timebase>
							<ntsc>TRUE</ntsc>
						</rate>
						<rate>
							<timebase>60</timebase>
							<ntsc>TRUE</ntsc>
						</rate>
						<duration>6</duration>
						<start>17850</start>
						<end>17856</end>
						<in>4188</in>
						<out>4194</out>
					</clipitem>
					<clipitem frameBlend="FALSE" id="audioclip-931">
						<file id="file-1"/>
						<name>bandicam 2025-06-02 00-01-10-144 - Audio</name>
						<rate>
							<timebase>60</timebase>
							<ntsc>TRUE</ntsc>
						</rate>
						<rate>
							<timebase>60</timebase>
							<ntsc>TRUE</ntsc>
						</rate>
						<duration>0</duration>
						<start>17856</start>
						<end>17856</end>
						<in>4230</in>
						<out>4230</out>
					</clipitem>
					<clipitem frameBlend="FALSE" id="audioclip-932">
						<file id="file-1"/>
						<name>bandicam 2025-06-02 00-01-10-144 - Audio</name>
						<rate>
							<timebase>60</timebase>
							<ntsc>TRUE</ntsc>
						</rate>
						<rate>
							<timebase>60</timebase>
							<ntsc>TRUE</ntsc>
						</rate>
						<duration>6</duration>
						<start>17856</start>
						<end>17862</end>
						<in>4242</in>
						<out>4248</out>
					</clipitem>
					<clipitem frameBlend="FALSE" id="audioclip-933">
						<file id="file-1"/>
						<name>bandicam 2025-06-02 00-01-10-144 - Audio</name>
						<rate>
							<timebase>60</timebase>
							<ntsc>TRUE</ntsc>
						</rate>
						<rate>
							<timebase>60</timebase>
							<ntsc>TRUE</ntsc>
						</rate>
						<duration>66</duration>
						<start>17862</start>
						<end>17928</end>
						<in>4302</in>
						<out>4368</out>
					</clipitem>
					<clipitem frameBlend="FALSE" id="audioclip-934">
						<file id="file-1"/>
						<name>bandicam 2025-06-02 00-01-10-144 - Audio</name>
						<rate>
							<timebase>60</timebase>
							<ntsc>TRUE</ntsc>
						</rate>
						<rate>
							<timebase>60</timebase>
							<ntsc>TRUE</ntsc>
						</rate>
						<duration>42</duration>
						<start>17928</start>
						<end>17970</end>
						<in>4392</in>
						<out>4434</out>
					</clipitem>
					<clipitem frameBlend="FALSE" id="audioclip-935">
						<file id="file-1"/>
						<name>bandicam 2025-06-02 00-01-10-144 - Audio</name>
						<rate>
							<timebase>60</timebase>
							<ntsc>TRUE</ntsc>
						</rate>
						<rate>
							<timebase>60</timebase>
							<ntsc>TRUE</ntsc>
						</rate>
						<duration>18</duration>
						<start>17970</start>
						<end>17988</end>
						<in>4506</in>
						<out>4524</out>
					</clipitem>
					<clipitem frameBlend="FALSE" id="audioclip-936">
						<file id="file-1"/>
						<name>bandicam 2025-06-02 00-01-10-144 - Audio</name>
						<rate>
							<timebase>60</timebase>
							<ntsc>TRUE</ntsc>
						</rate>
						<rate>
							<timebase>60</timebase>
							<ntsc>TRUE</ntsc>
						</rate>
						<duration>12</duration>
						<start>17988</start>
						<end>18000</end>
						<in>4542</in>
						<out>4554</out>
					</clipitem>
					<clipitem frameBlend="FALSE" id="audioclip-937">
						<file id="file-1"/>
						<name>bandicam 2025-06-02 00-01-10-144 - Audio</name>
						<rate>
							<timebase>60</timebase>
							<ntsc>TRUE</ntsc>
						</rate>
						<rate>
							<timebase>60</timebase>
							<ntsc>TRUE</ntsc>
						</rate>
						<duration>24</duration>
						<start>18000</start>
						<end>18024</end>
						<in>4602</in>
						<out>4626</out>
					</clipitem>
					<clipitem frameBlend="FALSE" id="audioclip-938">
						<file id="file-1"/>
						<name>bandicam 2025-06-02 00-01-10-144 - Audio</name>
						<rate>
							<timebase>60</timebase>
							<ntsc>TRUE</ntsc>
						</rate>
						<rate>
							<timebase>60</timebase>
							<ntsc>TRUE</ntsc>
						</rate>
						<duration>0</duration>
						<start>18024</start>
						<end>18024</end>
						<in>4704</in>
						<out>4704</out>
					</clipitem>
					<clipitem frameBlend="FALSE" id="audioclip-939">
						<file id="file-1"/>
						<name>bandicam 2025-06-02 00-01-10-144 - Audio</name>
						<rate>
							<timebase>60</timebase>
							<ntsc>TRUE</ntsc>
						</rate>
						<rate>
							<timebase>60</timebase>
							<ntsc>TRUE</ntsc>
						</rate>
						<duration>48</duration>
						<start>18024</start>
						<end>18072</end>
						<in>4722</in>
						<out>4770</out>
					</clipitem>
					<clipitem frameBlend="FALSE" id="audioclip-940">
						<file id="file-1"/>
						<name>bandicam 2025-06-02 00-01-10-144 - Audio</name>
						<rate>
							<timebase>60</timebase>
							<ntsc>TRUE</ntsc>
						</rate>
						<rate>
							<timebase>60</timebase>
							<ntsc>TRUE</ntsc>
						</rate>
						<duration>6</duration>
						<start>18072</start>
						<end>18078</end>
						<in>4860</in>
						<out>4866</out>
					</clipitem>
					<clipitem frameBlend="FALSE" id="audioclip-941">
						<file id="file-1"/>
						<name>bandicam 2025-06-02 00-01-10-144 - Audio</name>
						<rate>
							<timebase>60</timebase>
							<ntsc>TRUE</ntsc>
						</rate>
						<rate>
							<timebase>60</timebase>
							<ntsc>TRUE</ntsc>
						</rate>
						<duration>6</duration>
						<start>18078</start>
						<end>18084</end>
						<in>4968</in>
						<out>4974</out>
					</clipitem>
					<clipitem frameBlend="FALSE" id="audioclip-942">
						<file id="file-1"/>
						<name>bandicam 2025-06-02 00-01-10-144 - Audio</name>
						<rate>
							<timebase>60</timebase>
							<ntsc>TRUE</ntsc>
						</rate>
						<rate>
							<timebase>60</timebase>
							<ntsc>TRUE</ntsc>
						</rate>
						<duration>6</duration>
						<start>18084</start>
						<end>18090</end>
						<in>5112</in>
						<out>5118</out>
					</clipitem>
					<clipitem frameBlend="FALSE" id="audioclip-943">
						<file id="file-1"/>
						<name>bandicam 2025-06-02 00-01-10-144 - Audio</name>
						<rate>
							<timebase>60</timebase>
							<ntsc>TRUE</ntsc>
						</rate>
						<rate>
							<timebase>60</timebase>
							<ntsc>TRUE</ntsc>
						</rate>
						<duration>6</duration>
						<start>18090</start>
						<end>18096</end>
						<in>5142</in>
						<out>5148</out>
					</clipitem>
					<clipitem frameBlend="FALSE" id="audioclip-944">
						<file id="file-1"/>
						<name>bandicam 2025-06-02 00-01-10-144 - Audio</name>
						<rate>
							<timebase>60</timebase>
							<ntsc>TRUE</ntsc>
						</rate>
						<rate>
							<timebase>60</timebase>
							<ntsc>TRUE</ntsc>
						</rate>
						<duration>18</duration>
						<start>18096</start>
						<end>18114</end>
						<in>5160</in>
						<out>5178</out>
					</clipitem>
					<clipitem frameBlend="FALSE" id="audioclip-945">
						<file id="file-1"/>
						<name>bandicam 2025-06-02 00-01-10-144 - Audio</name>
						<rate>
							<timebase>60</timebase>
							<ntsc>TRUE</ntsc>
						</rate>
						<rate>
							<timebase>60</timebase>
							<ntsc>TRUE</ntsc>
						</rate>
						<duration>12</duration>
						<start>18114</start>
						<end>18126</end>
						<in>5328</in>
						<out>5340</out>
					</clipitem>
					<clipitem frameBlend="FALSE" id="audioclip-946">
						<file id="file-1"/>
						<name>bandicam 2025-06-02 00-01-10-144 - Audio</name>
						<rate>
							<timebase>60</timebase>
							<ntsc>TRUE</ntsc>
						</rate>
						<rate>
							<timebase>60</timebase>
							<ntsc>TRUE</ntsc>
						</rate>
						<duration>12</duration>
						<start>18126</start>
						<end>18138</end>
						<in>5412</in>
						<out>5424</out>
					</clipitem>
					<clipitem frameBlend="FALSE" id="audioclip-947">
						<file id="file-1"/>
						<name>bandicam 2025-06-02 00-01-10-144 - Audio</name>
						<rate>
							<timebase>60</timebase>
							<ntsc>TRUE</ntsc>
						</rate>
						<rate>
							<timebase>60</timebase>
							<ntsc>TRUE</ntsc>
						</rate>
						<duration>0</duration>
						<start>18138</start>
						<end>18138</end>
						<in>5448</in>
						<out>5448</out>
					</clipitem>
					<clipitem frameBlend="FALSE" id="audioclip-948">
						<file id="file-1"/>
						<name>bandicam 2025-06-02 00-01-10-144 - Audio</name>
						<rate>
							<timebase>60</timebase>
							<ntsc>TRUE</ntsc>
						</rate>
						<rate>
							<timebase>60</timebase>
							<ntsc>TRUE</ntsc>
						</rate>
						<duration>0</duration>
						<start>18138</start>
						<end>18138</end>
						<in>5592</in>
						<out>5592</out>
					</clipitem>
					<clipitem frameBlend="FALSE" id="audioclip-949">
						<file id="file-1"/>
						<name>bandicam 2025-06-02 00-01-10-144 - Audio</name>
						<rate>
							<timebase>60</timebase>
							<ntsc>TRUE</ntsc>
						</rate>
						<rate>
							<timebase>60</timebase>
							<ntsc>TRUE</ntsc>
						</rate>
						<duration>18</duration>
						<start>18138</start>
						<end>18156</end>
						<in>5670</in>
						<out>5688</out>
					</clipitem>
					<clipitem frameBlend="FALSE" id="audioclip-950">
						<file id="file-1"/>
						<name>bandicam 2025-06-02 00-01-10-144 - Audio</name>
						<rate>
							<timebase>60</timebase>
							<ntsc>TRUE</ntsc>
						</rate>
						<rate>
							<timebase>60</timebase>
							<ntsc>TRUE</ntsc>
						</rate>
						<duration>18</duration>
						<start>18156</start>
						<end>18174</end>
						<in>5760</in>
						<out>5778</out>
					</clipitem>
					<clipitem frameBlend="FALSE" id="audioclip-951">
						<file id="file-1"/>
						<name>bandicam 2025-06-02 00-01-10-144 - Audio</name>
						<rate>
							<timebase>60</timebase>
							<ntsc>TRUE</ntsc>
						</rate>
						<rate>
							<timebase>60</timebase>
							<ntsc>TRUE</ntsc>
						</rate>
						<duration>72</duration>
						<start>18174</start>
						<end>18246</end>
						<in>5802</in>
						<out>5874</out>
					</clipitem>
					<clipitem frameBlend="FALSE" id="audioclip-952">
						<file id="file-1"/>
						<name>bandicam 2025-06-02 00-01-10-144 - Audio</name>
						<rate>
							<timebase>60</timebase>
							<ntsc>TRUE</ntsc>
						</rate>
						<rate>
							<timebase>60</timebase>
							<ntsc>TRUE</ntsc>
						</rate>
						<duration>48</duration>
						<start>18246</start>
						<end>18294</end>
						<in>5910</in>
						<out>5958</out>
					</clipitem>
					<clipitem frameBlend="FALSE" id="audioclip-953">
						<file id="file-1"/>
						<name>bandicam 2025-06-02 00-01-10-144 - Audio</name>
						<rate>
							<timebase>60</timebase>
							<ntsc>TRUE</ntsc>
						</rate>
						<rate>
							<timebase>60</timebase>
							<ntsc>TRUE</ntsc>
						</rate>
						<duration>0</duration>
						<start>18294</start>
						<end>18294</end>
						<in>6000</in>
						<out>6000</out>
					</clipitem>
					<clipitem frameBlend="FALSE" id="audioclip-954">
						<file id="file-1"/>
						<name>bandicam 2025-06-02 00-01-10-144 - Audio</name>
						<rate>
							<timebase>60</timebase>
							<ntsc>TRUE</ntsc>
						</rate>
						<rate>
							<timebase>60</timebase>
							<ntsc>TRUE</ntsc>
						</rate>
						<duration>24</duration>
						<start>18294</start>
						<end>18318</end>
						<in>6012</in>
						<out>6036</out>
					</clipitem>
					<clipitem frameBlend="FALSE" id="audioclip-955">
						<file id="file-1"/>
						<name>bandicam 2025-06-02 00-01-10-144 - Audio</name>
						<rate>
							<timebase>60</timebase>
							<ntsc>TRUE</ntsc>
						</rate>
						<rate>
							<timebase>60</timebase>
							<ntsc>TRUE</ntsc>
						</rate>
						<duration>24</duration>
						<start>18318</start>
						<end>18342</end>
						<in>6156</in>
						<out>6180</out>
					</clipitem>
					<clipitem frameBlend="FALSE" id="audioclip-956">
						<file id="file-1"/>
						<name>bandicam 2025-06-02 00-01-10-144 - Audio</name>
						<rate>
							<timebase>60</timebase>
							<ntsc>TRUE</ntsc>
						</rate>
						<rate>
							<timebase>60</timebase>
							<ntsc>TRUE</ntsc>
						</rate>
						<duration>6</duration>
						<start>18342</start>
						<end>18348</end>
						<in>6234</in>
						<out>6240</out>
					</clipitem>
					<clipitem frameBlend="FALSE" id="audioclip-957">
						<file id="file-1"/>
						<name>bandicam 2025-06-02 00-01-10-144 - Audio</name>
						<rate>
							<timebase>60</timebase>
							<ntsc>TRUE</ntsc>
						</rate>
						<rate>
							<timebase>60</timebase>
							<ntsc>TRUE</ntsc>
						</rate>
						<duration>0</duration>
						<start>18348</start>
						<end>18348</end>
						<in>6522</in>
						<out>6522</out>
					</clipitem>
					<clipitem frameBlend="FALSE" id="audioclip-958">
						<file id="file-1"/>
						<name>bandicam 2025-06-02 00-01-10-144 - Audio</name>
						<rate>
							<timebase>60</timebase>
							<ntsc>TRUE</ntsc>
						</rate>
						<rate>
							<timebase>60</timebase>
							<ntsc>TRUE</ntsc>
						</rate>
						<duration>0</duration>
						<start>18348</start>
						<end>18348</end>
						<in>6894</in>
						<out>6894</out>
					</clipitem>
					<clipitem frameBlend="FALSE" id="audioclip-959">
						<file id="file-1"/>
						<name>bandicam 2025-06-02 00-01-10-144 - Audio</name>
						<rate>
							<timebase>60</timebase>
							<ntsc>TRUE</ntsc>
						</rate>
						<rate>
							<timebase>60</timebase>
							<ntsc>TRUE</ntsc>
						</rate>
						<duration>0</duration>
						<start>18348</start>
						<end>18348</end>
						<in>6954</in>
						<out>6954</out>
					</clipitem>
					<clipitem frameBlend="FALSE" id="audioclip-960">
						<file id="file-1"/>
						<name>bandicam 2025-06-02 00-01-10-144 - Audio</name>
						<rate>
							<timebase>60</timebase>
							<ntsc>TRUE</ntsc>
						</rate>
						<rate>
							<timebase>60</timebase>
							<ntsc>TRUE</ntsc>
						</rate>
						<duration>6</duration>
						<start>18348</start>
						<end>18354</end>
						<in>114</in>
						<out>120</out>
					</clipitem>
					<clipitem frameBlend="FALSE" id="audioclip-961">
						<file id="file-1"/>
						<name>bandicam 2025-06-02 00-01-10-144 - Audio</name>
						<rate>
							<timebase>60</timebase>
							<ntsc>TRUE</ntsc>
						</rate>
						<rate>
							<timebase>60</timebase>
							<ntsc>TRUE</ntsc>
						</rate>
						<duration>6</duration>
						<start>18354</start>
						<end>18360</end>
						<in>1410</in>
						<out>1416</out>
					</clipitem>
					<clipitem frameBlend="FALSE" id="audioclip-962">
						<file id="file-1"/>
						<name>bandicam 2025-06-02 00-01-10-144 - Audio</name>
						<rate>
							<timebase>60</timebase>
							<ntsc>TRUE</ntsc>
						</rate>
						<rate>
							<timebase>60</timebase>
							<ntsc>TRUE</ntsc>
						</rate>
						<duration>0</duration>
						<start>18360</start>
						<end>18360</end>
						<in>1704</in>
						<out>1704</out>
					</clipitem>
					<clipitem frameBlend="FALSE" id="audioclip-963">
						<file id="file-1"/>
						<name>bandicam 2025-06-02 00-01-10-144 - Audio</name>
						<rate>
							<timebase>60</timebase>
							<ntsc>TRUE</ntsc>
						</rate>
						<rate>
							<timebase>60</timebase>
							<ntsc>TRUE</ntsc>
						</rate>
						<duration>12</duration>
						<start>18360</start>
						<end>18372</end>
						<in>1746</in>
						<out>1758</out>
					</clipitem>
					<clipitem frameBlend="FALSE" id="audioclip-964">
						<file id="file-1"/>
						<name>bandicam 2025-06-02 00-01-10-144 - Audio</name>
						<rate>
							<timebase>60</timebase>
							<ntsc>TRUE</ntsc>
						</rate>
						<rate>
							<timebase>60</timebase>
							<ntsc>TRUE</ntsc>
						</rate>
						<duration>6</duration>
						<start>18372</start>
						<end>18378</end>
						<in>2448</in>
						<out>2454</out>
					</clipitem>
					<clipitem frameBlend="FALSE" id="audioclip-965">
						<file id="file-1"/>
						<name>bandicam 2025-06-02 00-01-10-144 - Audio</name>
						<rate>
							<timebase>60</timebase>
							<ntsc>TRUE</ntsc>
						</rate>
						<rate>
							<timebase>60</timebase>
							<ntsc>TRUE</ntsc>
						</rate>
						<duration>12</duration>
						<start>18378</start>
						<end>18390</end>
						<in>2742</in>
						<out>2754</out>
					</clipitem>
					<clipitem frameBlend="FALSE" id="audioclip-966">
						<file id="file-1"/>
						<name>bandicam 2025-06-02 00-01-10-144 - Audio</name>
						<rate>
							<timebase>60</timebase>
							<ntsc>TRUE</ntsc>
						</rate>
						<rate>
							<timebase>60</timebase>
							<ntsc>TRUE</ntsc>
						</rate>
						<duration>0</duration>
						<start>18390</start>
						<end>18390</end>
						<in>2820</in>
						<out>2820</out>
					</clipitem>
					<clipitem frameBlend="FALSE" id="audioclip-967">
						<file id="file-1"/>
						<name>bandicam 2025-06-02 00-01-10-144 - Audio</name>
						<rate>
							<timebase>60</timebase>
							<ntsc>TRUE</ntsc>
						</rate>
						<rate>
							<timebase>60</timebase>
							<ntsc>TRUE</ntsc>
						</rate>
						<duration>30</duration>
						<start>18390</start>
						<end>18420</end>
						<in>3072</in>
						<out>3102</out>
					</clipitem>
					<clipitem frameBlend="FALSE" id="audioclip-968">
						<file id="file-1"/>
						<name>bandicam 2025-06-02 00-01-10-144 - Audio</name>
						<rate>
							<timebase>60</timebase>
							<ntsc>TRUE</ntsc>
						</rate>
						<rate>
							<timebase>60</timebase>
							<ntsc>TRUE</ntsc>
						</rate>
						<duration>18</duration>
						<start>18420</start>
						<end>18438</end>
						<in>3270</in>
						<out>3288</out>
					</clipitem>
					<clipitem frameBlend="FALSE" id="audioclip-969">
						<file id="file-1"/>
						<name>bandicam 2025-06-02 00-01-10-144 - Audio</name>
						<rate>
							<timebase>60</timebase>
							<ntsc>TRUE</ntsc>
						</rate>
						<rate>
							<timebase>60</timebase>
							<ntsc>TRUE</ntsc>
						</rate>
						<duration>6</duration>
						<start>18438</start>
						<end>18444</end>
						<in>4086</in>
						<out>4092</out>
					</clipitem>
					<clipitem frameBlend="FALSE" id="audioclip-970">
						<file id="file-1"/>
						<name>bandicam 2025-06-02 00-01-10-144 - Audio</name>
						<rate>
							<timebase>60</timebase>
							<ntsc>TRUE</ntsc>
						</rate>
						<rate>
							<timebase>60</timebase>
							<ntsc>TRUE</ntsc>
						</rate>
						<duration>6</duration>
						<start>18444</start>
						<end>18450</end>
						<in>4104</in>
						<out>4110</out>
					</clipitem>
					<clipitem frameBlend="FALSE" id="audioclip-971">
						<file id="file-1"/>
						<name>bandicam 2025-06-02 00-01-10-144 - Audio</name>
						<rate>
							<timebase>60</timebase>
							<ntsc>TRUE</ntsc>
						</rate>
						<rate>
							<timebase>60</timebase>
							<ntsc>TRUE</ntsc>
						</rate>
						<duration>0</duration>
						<start>18450</start>
						<end>18450</end>
						<in>4134</in>
						<out>4134</out>
					</clipitem>
					<clipitem frameBlend="FALSE" id="audioclip-972">
						<file id="file-1"/>
						<name>bandicam 2025-06-02 00-01-10-144 - Audio</name>
						<rate>
							<timebase>60</timebase>
							<ntsc>TRUE</ntsc>
						</rate>
						<rate>
							<timebase>60</timebase>
							<ntsc>TRUE</ntsc>
						</rate>
						<duration>6</duration>
						<start>18450</start>
						<end>18456</end>
						<in>4188</in>
						<out>4194</out>
					</clipitem>
					<clipitem frameBlend="FALSE" id="audioclip-973">
						<file id="file-1"/>
						<name>bandicam 2025-06-02 00-01-10-144 - Audio</name>
						<rate>
							<timebase>60</timebase>
							<ntsc>TRUE</ntsc>
						</rate>
						<rate>
							<timebase>60</timebase>
							<ntsc>TRUE</ntsc>
						</rate>
						<duration>0</duration>
						<start>18456</start>
						<end>18456</end>
						<in>4230</in>
						<out>4230</out>
					</clipitem>
					<clipitem frameBlend="FALSE" id="audioclip-974">
						<file id="file-1"/>
						<name>bandicam 2025-06-02 00-01-10-144 - Audio</name>
						<rate>
							<timebase>60</timebase>
							<ntsc>TRUE</ntsc>
						</rate>
						<rate>
							<timebase>60</timebase>
							<ntsc>TRUE</ntsc>
						</rate>
						<duration>6</duration>
						<start>18456</start>
						<end>18462</end>
						<in>4242</in>
						<out>4248</out>
					</clipitem>
					<clipitem frameBlend="FALSE" id="audioclip-975">
						<file id="file-1"/>
						<name>bandicam 2025-06-02 00-01-10-144 - Audio</name>
						<rate>
							<timebase>60</timebase>
							<ntsc>TRUE</ntsc>
						</rate>
						<rate>
							<timebase>60</timebase>
							<ntsc>TRUE</ntsc>
						</rate>
						<duration>0</duration>
						<start>18462</start>
						<end>18462</end>
						<in>4368</in>
						<out>4368</out>
					</clipitem>
					<clipitem frameBlend="FALSE" id="audioclip-976">
						<file id="file-1"/>
						<name>bandicam 2025-06-02 00-01-10-144 - Audio</name>
						<rate>
							<timebase>60</timebase>
							<ntsc>TRUE</ntsc>
						</rate>
						<rate>
							<timebase>60</timebase>
							<ntsc>TRUE</ntsc>
						</rate>
						<duration>0</duration>
						<start>18462</start>
						<end>18462</end>
						<in>4722</in>
						<out>4722</out>
					</clipitem>
					<clipitem frameBlend="FALSE" id="audioclip-977">
						<file id="file-1"/>
						<name>bandicam 2025-06-02 00-01-10-144 - Audio</name>
						<rate>
							<timebase>60</timebase>
							<ntsc>TRUE</ntsc>
						</rate>
						<rate>
							<timebase>60</timebase>
							<ntsc>TRUE</ntsc>
						</rate>
						<duration>6</duration>
						<start>18462</start>
						<end>18468</end>
						<in>5112</in>
						<out>5118</out>
					</clipitem>
					<clipitem frameBlend="FALSE" id="audioclip-978">
						<file id="file-1"/>
						<name>bandicam 2025-06-02 00-01-10-144 - Audio</name>
						<rate>
							<timebase>60</timebase>
							<ntsc>TRUE</ntsc>
						</rate>
						<rate>
							<timebase>60</timebase>
							<ntsc>TRUE</ntsc>
						</rate>
						<duration>6</duration>
						<start>18468</start>
						<end>18474</end>
						<in>5142</in>
						<out>5148</out>
					</clipitem>
					<clipitem frameBlend="FALSE" id="audioclip-979">
						<file id="file-1"/>
						<name>bandicam 2025-06-02 00-01-10-144 - Audio</name>
						<rate>
							<timebase>60</timebase>
							<ntsc>TRUE</ntsc>
						</rate>
						<rate>
							<timebase>60</timebase>
							<ntsc>TRUE</ntsc>
						</rate>
						<duration>12</duration>
						<start>18474</start>
						<end>18486</end>
						<in>5160</in>
						<out>5172</out>
					</clipitem>
					<clipitem frameBlend="FALSE" id="audioclip-980">
						<file id="file-1"/>
						<name>bandicam 2025-06-02 00-01-10-144 - Audio</name>
						<rate>
							<timebase>60</timebase>
							<ntsc>TRUE</ntsc>
						</rate>
						<rate>
							<timebase>60</timebase>
							<ntsc>TRUE</ntsc>
						</rate>
						<duration>0</duration>
						<start>18486</start>
						<end>18486</end>
						<in>5340</in>
						<out>5340</out>
					</clipitem>
					<clipitem frameBlend="FALSE" id="audioclip-981">
						<file id="file-1"/>
						<name>bandicam 2025-06-02 00-01-10-144 - Audio</name>
						<rate>
							<timebase>60</timebase>
							<ntsc>TRUE</ntsc>
						</rate>
						<rate>
							<timebase>60</timebase>
							<ntsc>TRUE</ntsc>
						</rate>
						<duration>0</duration>
						<start>18486</start>
						<end>18486</end>
						<in>5592</in>
						<out>5592</out>
					</clipitem>
					<clipitem frameBlend="FALSE" id="audioclip-982">
						<file id="file-1"/>
						<name>bandicam 2025-06-02 00-01-10-144 - Audio</name>
						<rate>
							<timebase>60</timebase>
							<ntsc>TRUE</ntsc>
						</rate>
						<rate>
							<timebase>60</timebase>
							<ntsc>TRUE</ntsc>
						</rate>
						<duration>18</duration>
						<start>18486</start>
						<end>18504</end>
						<in>5670</in>
						<out>5688</out>
					</clipitem>
					<clipitem frameBlend="FALSE" id="audioclip-983">
						<file id="file-1"/>
						<name>bandicam 2025-06-02 00-01-10-144 - Audio</name>
						<rate>
							<timebase>60</timebase>
							<ntsc>TRUE</ntsc>
						</rate>
						<rate>
							<timebase>60</timebase>
							<ntsc>TRUE</ntsc>
						</rate>
						<duration>18</duration>
						<start>18504</start>
						<end>18522</end>
						<in>5760</in>
						<out>5778</out>
					</clipitem>
					<clipitem frameBlend="FALSE" id="audioclip-984">
						<file id="file-1"/>
						<name>bandicam 2025-06-02 00-01-10-144 - Audio</name>
						<rate>
							<timebase>60</timebase>
							<ntsc>TRUE</ntsc>
						</rate>
						<rate>
							<timebase>60</timebase>
							<ntsc>TRUE</ntsc>
						</rate>
						<duration>72</duration>
						<start>18522</start>
						<end>18594</end>
						<in>5802</in>
						<out>5874</out>
					</clipitem>
					<clipitem frameBlend="FALSE" id="audioclip-985">
						<file id="file-1"/>
						<name>bandicam 2025-06-02 00-01-10-144 - Audio</name>
						<rate>
							<timebase>60</timebase>
							<ntsc>TRUE</ntsc>
						</rate>
						<rate>
							<timebase>60</timebase>
							<ntsc>TRUE</ntsc>
						</rate>
						<duration>0</duration>
						<start>18594</start>
						<end>18594</end>
						<in>5910</in>
						<out>5910</out>
					</clipitem>
					<clipitem frameBlend="FALSE" id="audioclip-986">
						<file id="file-1"/>
						<name>bandicam 2025-06-02 00-01-10-144 - Audio</name>
						<rate>
							<timebase>60</timebase>
							<ntsc>TRUE</ntsc>
						</rate>
						<rate>
							<timebase>60</timebase>
							<ntsc>TRUE</ntsc>
						</rate>
						<duration>12</duration>
						<start>18594</start>
						<end>18606</end>
						<in>5922</in>
						<out>5934</out>
					</clipitem>
					<clipitem frameBlend="FALSE" id="audioclip-987">
						<file id="file-1"/>
						<name>bandicam 2025-06-02 00-01-10-144 - Audio</name>
						<rate>
							<timebase>60</timebase>
							<ntsc>TRUE</ntsc>
						</rate>
						<rate>
							<timebase>60</timebase>
							<ntsc>TRUE</ntsc>
						</rate>
						<duration>6</duration>
						<start>18606</start>
						<end>18612</end>
						<in>5952</in>
						<out>5958</out>
					</clipitem>
					<clipitem frameBlend="FALSE" id="audioclip-988">
						<file id="file-1"/>
						<name>bandicam 2025-06-02 00-01-10-144 - Audio</name>
						<rate>
							<timebase>60</timebase>
							<ntsc>TRUE</ntsc>
						</rate>
						<rate>
							<timebase>60</timebase>
							<ntsc>TRUE</ntsc>
						</rate>
						<duration>12</duration>
						<start>18612</start>
						<end>18624</end>
						<in>6012</in>
						<out>6024</out>
					</clipitem>
					<clipitem frameBlend="FALSE" id="audioclip-989">
						<file id="file-1"/>
						<name>bandicam 2025-06-02 00-01-10-144 - Audio</name>
						<rate>
							<timebase>60</timebase>
							<ntsc>TRUE</ntsc>
						</rate>
						<rate>
							<timebase>60</timebase>
							<ntsc>TRUE</ntsc>
						</rate>
						<duration>24</duration>
						<start>18624</start>
						<end>18648</end>
						<in>6156</in>
						<out>6180</out>
					</clipitem>
					<clipitem frameBlend="FALSE" id="audioclip-990">
						<file id="file-1"/>
						<name>bandicam 2025-06-02 00-01-10-144 - Audio</name>
						<rate>
							<timebase>60</timebase>
							<ntsc>TRUE</ntsc>
						</rate>
						<rate>
							<timebase>60</timebase>
							<ntsc>TRUE</ntsc>
						</rate>
						<duration>0</duration>
						<start>18648</start>
						<end>18648</end>
						<in>6234</in>
						<out>6234</out>
					</clipitem>
					<clipitem frameBlend="FALSE" id="audioclip-991">
						<file id="file-1"/>
						<name>bandicam 2025-06-02 00-01-10-144 - Audio</name>
						<rate>
							<timebase>60</timebase>
							<ntsc>TRUE</ntsc>
						</rate>
						<rate>
							<timebase>60</timebase>
							<ntsc>TRUE</ntsc>
						</rate>
						<duration>24</duration>
						<start>18648</start>
						<end>18672</end>
						<in>12</in>
						<out>36</out>
					</clipitem>
					<clipitem frameBlend="FALSE" id="audioclip-992">
						<file id="file-1"/>
						<name>bandicam 2025-06-02 00-01-10-144 - Audio</name>
						<rate>
							<timebase>60</timebase>
							<ntsc>TRUE</ntsc>
						</rate>
						<rate>
							<timebase>60</timebase>
							<ntsc>TRUE</ntsc>
						</rate>
						<duration>36</duration>
						<start>18672</start>
						<end>18708</end>
						<in>54</in>
						<out>90</out>
					</clipitem>
					<clipitem frameBlend="FALSE" id="audioclip-993">
						<file id="file-1"/>
						<name>bandicam 2025-06-02 00-01-10-144 - Audio</name>
						<rate>
							<timebase>60</timebase>
							<ntsc>TRUE</ntsc>
						</rate>
						<rate>
							<timebase>60</timebase>
							<ntsc>TRUE</ntsc>
						</rate>
						<duration>18</duration>
						<start>18708</start>
						<end>18726</end>
						<in>108</in>
						<out>126</out>
					</clipitem>
					<clipitem frameBlend="FALSE" id="audioclip-994">
						<file id="file-1"/>
						<name>bandicam 2025-06-02 00-01-10-144 - Audio</name>
						<rate>
							<timebase>60</timebase>
							<ntsc>TRUE</ntsc>
						</rate>
						<rate>
							<timebase>60</timebase>
							<ntsc>TRUE</ntsc>
						</rate>
						<duration>24</duration>
						<start>18726</start>
						<end>18750</end>
						<in>174</in>
						<out>198</out>
					</clipitem>
					<clipitem frameBlend="FALSE" id="audioclip-995">
						<file id="file-1"/>
						<name>bandicam 2025-06-02 00-01-10-144 - Audio</name>
						<rate>
							<timebase>60</timebase>
							<ntsc>TRUE</ntsc>
						</rate>
						<rate>
							<timebase>60</timebase>
							<ntsc>TRUE</ntsc>
						</rate>
						<duration>0</duration>
						<start>18750</start>
						<end>18750</end>
						<in>300</in>
						<out>300</out>
					</clipitem>
					<clipitem frameBlend="FALSE" id="audioclip-996">
						<file id="file-1"/>
						<name>bandicam 2025-06-02 00-01-10-144 - Audio</name>
						<rate>
							<timebase>60</timebase>
							<ntsc>TRUE</ntsc>
						</rate>
						<rate>
							<timebase>60</timebase>
							<ntsc>TRUE</ntsc>
						</rate>
						<duration>30</duration>
						<start>18750</start>
						<end>18780</end>
						<in>360</in>
						<out>390</out>
					</clipitem>
					<clipitem frameBlend="FALSE" id="audioclip-997">
						<file id="file-1"/>
						<name>bandicam 2025-06-02 00-01-10-144 - Audio</name>
						<rate>
							<timebase>60</timebase>
							<ntsc>TRUE</ntsc>
						</rate>
						<rate>
							<timebase>60</timebase>
							<ntsc>TRUE</ntsc>
						</rate>
						<duration>0</duration>
						<start>18780</start>
						<end>18780</end>
						<in>438</in>
						<out>438</out>
					</clipitem>
					<clipitem frameBlend="FALSE" id="audioclip-998">
						<file id="file-1"/>
						<name>bandicam 2025-06-02 00-01-10-144 - Audio</name>
						<rate>
							<timebase>60</timebase>
							<ntsc>TRUE</ntsc>
						</rate>
						<rate>
							<timebase>60</timebase>
							<ntsc>TRUE</ntsc>
						</rate>
						<duration>42</duration>
						<start>18780</start>
						<end>18822</end>
						<in>450</in>
						<out>492</out>
					</clipitem>
					<clipitem frameBlend="FALSE" id="audioclip-999">
						<file id="file-1"/>
						<name>bandicam 2025-06-02 00-01-10-144 - Audio</name>
						<rate>
							<timebase>60</timebase>
							<ntsc>TRUE</ntsc>
						</rate>
						<rate>
							<timebase>60</timebase>
							<ntsc>TRUE</ntsc>
						</rate>
						<duration>0</duration>
						<start>18822</start>
						<end>18822</end>
						<in>504</in>
						<out>504</out>
					</clipitem>
					<clipitem frameBlend="FALSE" id="audioclip-1000">
						<file id="file-1"/>
						<name>bandicam 2025-06-02 00-01-10-144 - Audio</name>
						<rate>
							<timebase>60</timebase>
							<ntsc>TRUE</ntsc>
						</rate>
						<rate>
							<timebase>60</timebase>
							<ntsc>TRUE</ntsc>
						</rate>
						<duration>24</duration>
						<start>18822</start>
						<end>18846</end>
						<in>528</in>
						<out>552</out>
					</clipitem>
					<clipitem frameBlend="FALSE" id="audioclip-1001">
						<file id="file-1"/>
						<name>bandicam 2025-06-02 00-01-10-144 - Audio</name>
						<rate>
							<timebase>60</timebase>
							<ntsc>TRUE</ntsc>
						</rate>
						<rate>
							<timebase>60</timebase>
							<ntsc>TRUE</ntsc>
						</rate>
						<duration>24</duration>
						<start>18846</start>
						<end>18870</end>
						<in>582</in>
						<out>606</out>
					</clipitem>
					<clipitem frameBlend="FALSE" id="audioclip-1002">
						<file id="file-1"/>
						<name>bandicam 2025-06-02 00-01-10-144 - Audio</name>
						<rate>
							<timebase>60</timebase>
							<ntsc>TRUE</ntsc>
						</rate>
						<rate>
							<timebase>60</timebase>
							<ntsc>TRUE</ntsc>
						</rate>
						<duration>18</duration>
						<start>18870</start>
						<end>18888</end>
						<in>624</in>
						<out>642</out>
					</clipitem>
					<clipitem frameBlend="FALSE" id="audioclip-1003">
						<file id="file-1"/>
						<name>bandicam 2025-06-02 00-01-10-144 - Audio</name>
						<rate>
							<timebase>60</timebase>
							<ntsc>TRUE</ntsc>
						</rate>
						<rate>
							<timebase>60</timebase>
							<ntsc>TRUE</ntsc>
						</rate>
						<duration>0</duration>
						<start>18888</start>
						<end>18888</end>
						<in>816</in>
						<out>816</out>
					</clipitem>
					<clipitem frameBlend="FALSE" id="audioclip-1004">
						<file id="file-1"/>
						<name>bandicam 2025-06-02 00-01-10-144 - Audio</name>
						<rate>
							<timebase>60</timebase>
							<ntsc>TRUE</ntsc>
						</rate>
						<rate>
							<timebase>60</timebase>
							<ntsc>TRUE</ntsc>
						</rate>
						<duration>0</duration>
						<start>18888</start>
						<end>18888</end>
						<in>852</in>
						<out>852</out>
					</clipitem>
					<clipitem frameBlend="FALSE" id="audioclip-1005">
						<file id="file-1"/>
						<name>bandicam 2025-06-02 00-01-10-144 - Audio</name>
						<rate>
							<timebase>60</timebase>
							<ntsc>TRUE</ntsc>
						</rate>
						<rate>
							<timebase>60</timebase>
							<ntsc>TRUE</ntsc>
						</rate>
						<duration>0</duration>
						<start>18888</start>
						<end>18888</end>
						<in>912</in>
						<out>912</out>
					</clipitem>
					<clipitem frameBlend="FALSE" id="audioclip-1006">
						<file id="file-1"/>
						<name>bandicam 2025-06-02 00-01-10-144 - Audio</name>
						<rate>
							<timebase>60</timebase>
							<ntsc>TRUE</ntsc>
						</rate>
						<rate>
							<timebase>60</timebase>
							<ntsc>TRUE</ntsc>
						</rate>
						<duration>0</duration>
						<start>18888</start>
						<end>18888</end>
						<in>936</in>
						<out>936</out>
					</clipitem>
					<clipitem frameBlend="FALSE" id="audioclip-1007">
						<file id="file-1"/>
						<name>bandicam 2025-06-02 00-01-10-144 - Audio</name>
						<rate>
							<timebase>60</timebase>
							<ntsc>TRUE</ntsc>
						</rate>
						<rate>
							<timebase>60</timebase>
							<ntsc>TRUE</ntsc>
						</rate>
						<duration>0</duration>
						<start>18888</start>
						<end>18888</end>
						<in>954</in>
						<out>954</out>
					</clipitem>
					<clipitem frameBlend="FALSE" id="audioclip-1008">
						<file id="file-1"/>
						<name>bandicam 2025-06-02 00-01-10-144 - Audio</name>
						<rate>
							<timebase>60</timebase>
							<ntsc>TRUE</ntsc>
						</rate>
						<rate>
							<timebase>60</timebase>
							<ntsc>TRUE</ntsc>
						</rate>
						<duration>12</duration>
						<start>18888</start>
						<end>18900</end>
						<in>984</in>
						<out>996</out>
					</clipitem>
					<clipitem frameBlend="FALSE" id="audioclip-1009">
						<file id="file-1"/>
						<name>bandicam 2025-06-02 00-01-10-144 - Audio</name>
						<rate>
							<timebase>60</timebase>
							<ntsc>TRUE</ntsc>
						</rate>
						<rate>
							<timebase>60</timebase>
							<ntsc>TRUE</ntsc>
						</rate>
						<duration>12</duration>
						<start>18900</start>
						<end>18912</end>
						<in>1086</in>
						<out>1098</out>
					</clipitem>
					<clipitem frameBlend="FALSE" id="audioclip-1010">
						<file id="file-1"/>
						<name>bandicam 2025-06-02 00-01-10-144 - Audio</name>
						<rate>
							<timebase>60</timebase>
							<ntsc>TRUE</ntsc>
						</rate>
						<rate>
							<timebase>60</timebase>
							<ntsc>TRUE</ntsc>
						</rate>
						<duration>42</duration>
						<start>18912</start>
						<end>18954</end>
						<in>1188</in>
						<out>1230</out>
					</clipitem>
					<clipitem frameBlend="FALSE" id="audioclip-1011">
						<file id="file-1"/>
						<name>bandicam 2025-06-02 00-01-10-144 - Audio</name>
						<rate>
							<timebase>60</timebase>
							<ntsc>TRUE</ntsc>
						</rate>
						<rate>
							<timebase>60</timebase>
							<ntsc>TRUE</ntsc>
						</rate>
						<duration>0</duration>
						<start>18954</start>
						<end>18954</end>
						<in>1320</in>
						<out>1320</out>
					</clipitem>
					<clipitem frameBlend="FALSE" id="audioclip-1012">
						<file id="file-1"/>
						<name>bandicam 2025-06-02 00-01-10-144 - Audio</name>
						<rate>
							<timebase>60</timebase>
							<ntsc>TRUE</ntsc>
						</rate>
						<rate>
							<timebase>60</timebase>
							<ntsc>TRUE</ntsc>
						</rate>
						<duration>54</duration>
						<start>18954</start>
						<end>19008</end>
						<in>1374</in>
						<out>1428</out>
					</clipitem>
					<clipitem frameBlend="FALSE" id="audioclip-1013">
						<file id="file-1"/>
						<name>bandicam 2025-06-02 00-01-10-144 - Audio</name>
						<rate>
							<timebase>60</timebase>
							<ntsc>TRUE</ntsc>
						</rate>
						<rate>
							<timebase>60</timebase>
							<ntsc>TRUE</ntsc>
						</rate>
						<duration>24</duration>
						<start>19008</start>
						<end>19032</end>
						<in>1446</in>
						<out>1470</out>
					</clipitem>
					<clipitem frameBlend="FALSE" id="audioclip-1014">
						<file id="file-1"/>
						<name>bandicam 2025-06-02 00-01-10-144 - Audio</name>
						<rate>
							<timebase>60</timebase>
							<ntsc>TRUE</ntsc>
						</rate>
						<rate>
							<timebase>60</timebase>
							<ntsc>TRUE</ntsc>
						</rate>
						<duration>0</duration>
						<start>19032</start>
						<end>19032</end>
						<in>1536</in>
						<out>1536</out>
					</clipitem>
					<clipitem frameBlend="FALSE" id="audioclip-1015">
						<file id="file-1"/>
						<name>bandicam 2025-06-02 00-01-10-144 - Audio</name>
						<rate>
							<timebase>60</timebase>
							<ntsc>TRUE</ntsc>
						</rate>
						<rate>
							<timebase>60</timebase>
							<ntsc>TRUE</ntsc>
						</rate>
						<duration>24</duration>
						<start>19032</start>
						<end>19056</end>
						<in>1566</in>
						<out>1590</out>
					</clipitem>
					<clipitem frameBlend="FALSE" id="audioclip-1016">
						<file id="file-1"/>
						<name>bandicam 2025-06-02 00-01-10-144 - Audio</name>
						<rate>
							<timebase>60</timebase>
							<ntsc>TRUE</ntsc>
						</rate>
						<rate>
							<timebase>60</timebase>
							<ntsc>TRUE</ntsc>
						</rate>
						<duration>42</duration>
						<start>19056</start>
						<end>19098</end>
						<in>1692</in>
						<out>1734</out>
					</clipitem>
					<clipitem frameBlend="FALSE" id="audioclip-1017">
						<file id="file-1"/>
						<name>bandicam 2025-06-02 00-01-10-144 - Audio</name>
						<rate>
							<timebase>60</timebase>
							<ntsc>TRUE</ntsc>
						</rate>
						<rate>
							<timebase>60</timebase>
							<ntsc>TRUE</ntsc>
						</rate>
						<duration>36</duration>
						<start>19098</start>
						<end>19134</end>
						<in>1746</in>
						<out>1782</out>
					</clipitem>
					<clipitem frameBlend="FALSE" id="audioclip-1018">
						<file id="file-1"/>
						<name>bandicam 2025-06-02 00-01-10-144 - Audio</name>
						<rate>
							<timebase>60</timebase>
							<ntsc>TRUE</ntsc>
						</rate>
						<rate>
							<timebase>60</timebase>
							<ntsc>TRUE</ntsc>
						</rate>
						<duration>30</duration>
						<start>19134</start>
						<end>19164</end>
						<in>1800</in>
						<out>1830</out>
					</clipitem>
					<clipitem frameBlend="FALSE" id="audioclip-1019">
						<file id="file-1"/>
						<name>bandicam 2025-06-02 00-01-10-144 - Audio</name>
						<rate>
							<timebase>60</timebase>
							<ntsc>TRUE</ntsc>
						</rate>
						<rate>
							<timebase>60</timebase>
							<ntsc>TRUE</ntsc>
						</rate>
						<duration>30</duration>
						<start>19164</start>
						<end>19194</end>
						<in>1842</in>
						<out>1872</out>
					</clipitem>
					<clipitem frameBlend="FALSE" id="audioclip-1020">
						<file id="file-1"/>
						<name>bandicam 2025-06-02 00-01-10-144 - Audio</name>
						<rate>
							<timebase>60</timebase>
							<ntsc>TRUE</ntsc>
						</rate>
						<rate>
							<timebase>60</timebase>
							<ntsc>TRUE</ntsc>
						</rate>
						<duration>24</duration>
						<start>19194</start>
						<end>19218</end>
						<in>1884</in>
						<out>1908</out>
					</clipitem>
					<clipitem frameBlend="FALSE" id="audioclip-1021">
						<file id="file-1"/>
						<name>bandicam 2025-06-02 00-01-10-144 - Audio</name>
						<rate>
							<timebase>60</timebase>
							<ntsc>TRUE</ntsc>
						</rate>
						<rate>
							<timebase>60</timebase>
							<ntsc>TRUE</ntsc>
						</rate>
						<duration>24</duration>
						<start>19218</start>
						<end>19242</end>
						<in>1926</in>
						<out>1950</out>
					</clipitem>
					<clipitem frameBlend="FALSE" id="audioclip-1022">
						<file id="file-1"/>
						<name>bandicam 2025-06-02 00-01-10-144 - Audio</name>
						<rate>
							<timebase>60</timebase>
							<ntsc>TRUE</ntsc>
						</rate>
						<rate>
							<timebase>60</timebase>
							<ntsc>TRUE</ntsc>
						</rate>
						<duration>24</duration>
						<start>19242</start>
						<end>19266</end>
						<in>2178</in>
						<out>2202</out>
					</clipitem>
					<clipitem frameBlend="FALSE" id="audioclip-1023">
						<file id="file-1"/>
						<name>bandicam 2025-06-02 00-01-10-144 - Audio</name>
						<rate>
							<timebase>60</timebase>
							<ntsc>TRUE</ntsc>
						</rate>
						<rate>
							<timebase>60</timebase>
							<ntsc>TRUE</ntsc>
						</rate>
						<duration>78</duration>
						<start>19266</start>
						<end>19344</end>
						<in>2280</in>
						<out>2358</out>
					</clipitem>
					<clipitem frameBlend="FALSE" id="audioclip-1024">
						<file id="file-1"/>
						<name>bandicam 2025-06-02 00-01-10-144 - Audio</name>
						<rate>
							<timebase>60</timebase>
							<ntsc>TRUE</ntsc>
						</rate>
						<rate>
							<timebase>60</timebase>
							<ntsc>TRUE</ntsc>
						</rate>
						<duration>18</duration>
						<start>19344</start>
						<end>19362</end>
						<in>2448</in>
						<out>2466</out>
					</clipitem>
					<clipitem frameBlend="FALSE" id="audioclip-1025">
						<file id="file-1"/>
						<name>bandicam 2025-06-02 00-01-10-144 - Audio</name>
						<rate>
							<timebase>60</timebase>
							<ntsc>TRUE</ntsc>
						</rate>
						<rate>
							<timebase>60</timebase>
							<ntsc>TRUE</ntsc>
						</rate>
						<duration>6</duration>
						<start>19362</start>
						<end>19368</end>
						<in>2478</in>
						<out>2484</out>
					</clipitem>
					<clipitem frameBlend="FALSE" id="audioclip-1026">
						<file id="file-1"/>
						<name>bandicam 2025-06-02 00-01-10-144 - Audio</name>
						<rate>
							<timebase>60</timebase>
							<ntsc>TRUE</ntsc>
						</rate>
						<rate>
							<timebase>60</timebase>
							<ntsc>TRUE</ntsc>
						</rate>
						<duration>6</duration>
						<start>19368</start>
						<end>19374</end>
						<in>2496</in>
						<out>2502</out>
					</clipitem>
					<clipitem frameBlend="FALSE" id="audioclip-1027">
						<file id="file-1"/>
						<name>bandicam 2025-06-02 00-01-10-144 - Audio</name>
						<rate>
							<timebase>60</timebase>
							<ntsc>TRUE</ntsc>
						</rate>
						<rate>
							<timebase>60</timebase>
							<ntsc>TRUE</ntsc>
						</rate>
						<duration>30</duration>
						<start>19374</start>
						<end>19404</end>
						<in>2538</in>
						<out>2568</out>
					</clipitem>
					<clipitem frameBlend="FALSE" id="audioclip-1028">
						<file id="file-1"/>
						<name>bandicam 2025-06-02 00-01-10-144 - Audio</name>
						<rate>
							<timebase>60</timebase>
							<ntsc>TRUE</ntsc>
						</rate>
						<rate>
							<timebase>60</timebase>
							<ntsc>TRUE</ntsc>
						</rate>
						<duration>84</duration>
						<start>19404</start>
						<end>19488</end>
						<in>2592</in>
						<out>2676</out>
					</clipitem>
					<clipitem frameBlend="FALSE" id="audioclip-1029">
						<file id="file-1"/>
						<name>bandicam 2025-06-02 00-01-10-144 - Audio</name>
						<rate>
							<timebase>60</timebase>
							<ntsc>TRUE</ntsc>
						</rate>
						<rate>
							<timebase>60</timebase>
							<ntsc>TRUE</ntsc>
						</rate>
						<duration>132</duration>
						<start>19488</start>
						<end>19620</end>
						<in>2724</in>
						<out>2856</out>
					</clipitem>
					<clipitem frameBlend="FALSE" id="audioclip-1030">
						<file id="file-1"/>
						<name>bandicam 2025-06-02 00-01-10-144 - Audio</name>
						<rate>
							<timebase>60</timebase>
							<ntsc>TRUE</ntsc>
						</rate>
						<rate>
							<timebase>60</timebase>
							<ntsc>TRUE</ntsc>
						</rate>
						<duration>42</duration>
						<start>19620</start>
						<end>19662</end>
						<in>2868</in>
						<out>2910</out>
					</clipitem>
					<clipitem frameBlend="FALSE" id="audioclip-1031">
						<file id="file-1"/>
						<name>bandicam 2025-06-02 00-01-10-144 - Audio</name>
						<rate>
							<timebase>60</timebase>
							<ntsc>TRUE</ntsc>
						</rate>
						<rate>
							<timebase>60</timebase>
							<ntsc>TRUE</ntsc>
						</rate>
						<duration>0</duration>
						<start>19662</start>
						<end>19662</end>
						<in>2946</in>
						<out>2946</out>
					</clipitem>
					<clipitem frameBlend="FALSE" id="audioclip-1032">
						<file id="file-1"/>
						<name>bandicam 2025-06-02 00-01-10-144 - Audio</name>
						<rate>
							<timebase>60</timebase>
							<ntsc>TRUE</ntsc>
						</rate>
						<rate>
							<timebase>60</timebase>
							<ntsc>TRUE</ntsc>
						</rate>
						<duration>24</duration>
						<start>19662</start>
						<end>19686</end>
						<in>2964</in>
						<out>2988</out>
					</clipitem>
					<clipitem frameBlend="FALSE" id="audioclip-1033">
						<file id="file-1"/>
						<name>bandicam 2025-06-02 00-01-10-144 - Audio</name>
						<rate>
							<timebase>60</timebase>
							<ntsc>TRUE</ntsc>
						</rate>
						<rate>
							<timebase>60</timebase>
							<ntsc>TRUE</ntsc>
						</rate>
						<duration>42</duration>
						<start>19686</start>
						<end>19728</end>
						<in>3060</in>
						<out>3102</out>
					</clipitem>
					<clipitem frameBlend="FALSE" id="audioclip-1034">
						<file id="file-1"/>
						<name>bandicam 2025-06-02 00-01-10-144 - Audio</name>
						<rate>
							<timebase>60</timebase>
							<ntsc>TRUE</ntsc>
						</rate>
						<rate>
							<timebase>60</timebase>
							<ntsc>TRUE</ntsc>
						</rate>
						<duration>24</duration>
						<start>19728</start>
						<end>19752</end>
						<in>3120</in>
						<out>3144</out>
					</clipitem>
					<clipitem frameBlend="FALSE" id="audioclip-1035">
						<file id="file-1"/>
						<name>bandicam 2025-06-02 00-01-10-144 - Audio</name>
						<rate>
							<timebase>60</timebase>
							<ntsc>TRUE</ntsc>
						</rate>
						<rate>
							<timebase>60</timebase>
							<ntsc>TRUE</ntsc>
						</rate>
						<duration>30</duration>
						<start>19752</start>
						<end>19782</end>
						<in>3222</in>
						<out>3252</out>
					</clipitem>
					<clipitem frameBlend="FALSE" id="audioclip-1036">
						<file id="file-1"/>
						<name>bandicam 2025-06-02 00-01-10-144 - Audio</name>
						<rate>
							<timebase>60</timebase>
							<ntsc>TRUE</ntsc>
						</rate>
						<rate>
							<timebase>60</timebase>
							<ntsc>TRUE</ntsc>
						</rate>
						<duration>36</duration>
						<start>19782</start>
						<end>19818</end>
						<in>3270</in>
						<out>3306</out>
					</clipitem>
					<clipitem frameBlend="FALSE" id="audioclip-1037">
						<file id="file-1"/>
						<name>bandicam 2025-06-02 00-01-10-144 - Audio</name>
						<rate>
							<timebase>60</timebase>
							<ntsc>TRUE</ntsc>
						</rate>
						<rate>
							<timebase>60</timebase>
							<ntsc>TRUE</ntsc>
						</rate>
						<duration>24</duration>
						<start>19818</start>
						<end>19842</end>
						<in>3372</in>
						<out>3396</out>
					</clipitem>
					<clipitem frameBlend="FALSE" id="audioclip-1038">
						<file id="file-1"/>
						<name>bandicam 2025-06-02 00-01-10-144 - Audio</name>
						<rate>
							<timebase>60</timebase>
							<ntsc>TRUE</ntsc>
						</rate>
						<rate>
							<timebase>60</timebase>
							<ntsc>TRUE</ntsc>
						</rate>
						<duration>24</duration>
						<start>19842</start>
						<end>19866</end>
						<in>3450</in>
						<out>3474</out>
					</clipitem>
					<clipitem frameBlend="FALSE" id="audioclip-1039">
						<file id="file-1"/>
						<name>bandicam 2025-06-02 00-01-10-144 - Audio</name>
						<rate>
							<timebase>60</timebase>
							<ntsc>TRUE</ntsc>
						</rate>
						<rate>
							<timebase>60</timebase>
							<ntsc>TRUE</ntsc>
						</rate>
						<duration>24</duration>
						<start>19866</start>
						<end>19890</end>
						<in>3498</in>
						<out>3522</out>
					</clipitem>
					<clipitem frameBlend="FALSE" id="audioclip-1040">
						<file id="file-1"/>
						<name>bandicam 2025-06-02 00-01-10-144 - Audio</name>
						<rate>
							<timebase>60</timebase>
							<ntsc>TRUE</ntsc>
						</rate>
						<rate>
							<timebase>60</timebase>
							<ntsc>TRUE</ntsc>
						</rate>
						<duration>0</duration>
						<start>19890</start>
						<end>19890</end>
						<in>3582</in>
						<out>3582</out>
					</clipitem>
					<clipitem frameBlend="FALSE" id="audioclip-1041">
						<file id="file-1"/>
						<name>bandicam 2025-06-02 00-01-10-144 - Audio</name>
						<rate>
							<timebase>60</timebase>
							<ntsc>TRUE</ntsc>
						</rate>
						<rate>
							<timebase>60</timebase>
							<ntsc>TRUE</ntsc>
						</rate>
						<duration>18</duration>
						<start>19890</start>
						<end>19908</end>
						<in>3624</in>
						<out>3642</out>
					</clipitem>
					<clipitem frameBlend="FALSE" id="audioclip-1042">
						<file id="file-1"/>
						<name>bandicam 2025-06-02 00-01-10-144 - Audio</name>
						<rate>
							<timebase>60</timebase>
							<ntsc>TRUE</ntsc>
						</rate>
						<rate>
							<timebase>60</timebase>
							<ntsc>TRUE</ntsc>
						</rate>
						<duration>0</duration>
						<start>19908</start>
						<end>19908</end>
						<in>3672</in>
						<out>3672</out>
					</clipitem>
					<clipitem frameBlend="FALSE" id="audioclip-1043">
						<file id="file-1"/>
						<name>bandicam 2025-06-02 00-01-10-144 - Audio</name>
						<rate>
							<timebase>60</timebase>
							<ntsc>TRUE</ntsc>
						</rate>
						<rate>
							<timebase>60</timebase>
							<ntsc>TRUE</ntsc>
						</rate>
						<duration>0</duration>
						<start>19908</start>
						<end>19908</end>
						<in>3696</in>
						<out>3696</out>
					</clipitem>
					<clipitem frameBlend="FALSE" id="audioclip-1044">
						<file id="file-1"/>
						<name>bandicam 2025-06-02 00-01-10-144 - Audio</name>
						<rate>
							<timebase>60</timebase>
							<ntsc>TRUE</ntsc>
						</rate>
						<rate>
							<timebase>60</timebase>
							<ntsc>TRUE</ntsc>
						</rate>
						<duration>12</duration>
						<start>19908</start>
						<end>19920</end>
						<in>3768</in>
						<out>3780</out>
					</clipitem>
					<clipitem frameBlend="FALSE" id="audioclip-1045">
						<file id="file-1"/>
						<name>bandicam 2025-06-02 00-01-10-144 - Audio</name>
						<rate>
							<timebase>60</timebase>
							<ntsc>TRUE</ntsc>
						</rate>
						<rate>
							<timebase>60</timebase>
							<ntsc>TRUE</ntsc>
						</rate>
						<duration>24</duration>
						<start>19920</start>
						<end>19944</end>
						<in>3852</in>
						<out>3876</out>
					</clipitem>
					<clipitem frameBlend="FALSE" id="audioclip-1046">
						<file id="file-1"/>
						<name>bandicam 2025-06-02 00-01-10-144 - Audio</name>
						<rate>
							<timebase>60</timebase>
							<ntsc>TRUE</ntsc>
						</rate>
						<rate>
							<timebase>60</timebase>
							<ntsc>TRUE</ntsc>
						</rate>
						<duration>24</duration>
						<start>19944</start>
						<end>19968</end>
						<in>3906</in>
						<out>3930</out>
					</clipitem>
					<clipitem frameBlend="FALSE" id="audioclip-1047">
						<file id="file-1"/>
						<name>bandicam 2025-06-02 00-01-10-144 - Audio</name>
						<rate>
							<timebase>60</timebase>
							<ntsc>TRUE</ntsc>
						</rate>
						<rate>
							<timebase>60</timebase>
							<ntsc>TRUE</ntsc>
						</rate>
						<duration>6</duration>
						<start>19968</start>
						<end>19974</end>
						<in>4026</in>
						<out>4032</out>
					</clipitem>
					<clipitem frameBlend="FALSE" id="audioclip-1048">
						<file id="file-1"/>
						<name>bandicam 2025-06-02 00-01-10-144 - Audio</name>
						<rate>
							<timebase>60</timebase>
							<ntsc>TRUE</ntsc>
						</rate>
						<rate>
							<timebase>60</timebase>
							<ntsc>TRUE</ntsc>
						</rate>
						<duration>0</duration>
						<start>19974</start>
						<end>19974</end>
						<in>4044</in>
						<out>4044</out>
					</clipitem>
					<clipitem frameBlend="FALSE" id="audioclip-1049">
						<file id="file-1"/>
						<name>bandicam 2025-06-02 00-01-10-144 - Audio</name>
						<rate>
							<timebase>60</timebase>
							<ntsc>TRUE</ntsc>
						</rate>
						<rate>
							<timebase>60</timebase>
							<ntsc>TRUE</ntsc>
						</rate>
						<duration>78</duration>
						<start>19974</start>
						<end>20052</end>
						<in>4086</in>
						<out>4164</out>
					</clipitem>
					<clipitem frameBlend="FALSE" id="audioclip-1050">
						<file id="file-1"/>
						<name>bandicam 2025-06-02 00-01-10-144 - Audio</name>
						<rate>
							<timebase>60</timebase>
							<ntsc>TRUE</ntsc>
						</rate>
						<rate>
							<timebase>60</timebase>
							<ntsc>TRUE</ntsc>
						</rate>
						<duration>12</duration>
						<start>20052</start>
						<end>20064</end>
						<in>4188</in>
						<out>4200</out>
					</clipitem>
					<clipitem frameBlend="FALSE" id="audioclip-1051">
						<file id="file-1"/>
						<name>bandicam 2025-06-02 00-01-10-144 - Audio</name>
						<rate>
							<timebase>60</timebase>
							<ntsc>TRUE</ntsc>
						</rate>
						<rate>
							<timebase>60</timebase>
							<ntsc>TRUE</ntsc>
						</rate>
						<duration>54</duration>
						<start>20064</start>
						<end>20118</end>
						<in>4224</in>
						<out>4278</out>
					</clipitem>
					<clipitem frameBlend="FALSE" id="audioclip-1052">
						<file id="file-1"/>
						<name>bandicam 2025-06-02 00-01-10-144 - Audio</name>
						<rate>
							<timebase>60</timebase>
							<ntsc>TRUE</ntsc>
						</rate>
						<rate>
							<timebase>60</timebase>
							<ntsc>TRUE</ntsc>
						</rate>
						<duration>132</duration>
						<start>20118</start>
						<end>20250</end>
						<in>4302</in>
						<out>4434</out>
					</clipitem>
					<clipitem frameBlend="FALSE" id="audioclip-1053">
						<file id="file-1"/>
						<name>bandicam 2025-06-02 00-01-10-144 - Audio</name>
						<rate>
							<timebase>60</timebase>
							<ntsc>TRUE</ntsc>
						</rate>
						<rate>
							<timebase>60</timebase>
							<ntsc>TRUE</ntsc>
						</rate>
						<duration>12</duration>
						<start>20250</start>
						<end>20262</end>
						<in>4470</in>
						<out>4482</out>
					</clipitem>
					<clipitem frameBlend="FALSE" id="audioclip-1054">
						<file id="file-1"/>
						<name>bandicam 2025-06-02 00-01-10-144 - Audio</name>
						<rate>
							<timebase>60</timebase>
							<ntsc>TRUE</ntsc>
						</rate>
						<rate>
							<timebase>60</timebase>
							<ntsc>TRUE</ntsc>
						</rate>
						<duration>48</duration>
						<start>20262</start>
						<end>20310</end>
						<in>4506</in>
						<out>4554</out>
					</clipitem>
					<clipitem frameBlend="FALSE" id="audioclip-1055">
						<file id="file-1"/>
						<name>bandicam 2025-06-02 00-01-10-144 - Audio</name>
						<rate>
							<timebase>60</timebase>
							<ntsc>TRUE</ntsc>
						</rate>
						<rate>
							<timebase>60</timebase>
							<ntsc>TRUE</ntsc>
						</rate>
						<duration>30</duration>
						<start>20310</start>
						<end>20340</end>
						<in>4602</in>
						<out>4632</out>
					</clipitem>
					<clipitem frameBlend="FALSE" id="audioclip-1056">
						<file id="file-1"/>
						<name>bandicam 2025-06-02 00-01-10-144 - Audio</name>
						<rate>
							<timebase>60</timebase>
							<ntsc>TRUE</ntsc>
						</rate>
						<rate>
							<timebase>60</timebase>
							<ntsc>TRUE</ntsc>
						</rate>
						<duration>24</duration>
						<start>20340</start>
						<end>20364</end>
						<in>4650</in>
						<out>4674</out>
					</clipitem>
					<clipitem frameBlend="FALSE" id="audioclip-1057">
						<file id="file-1"/>
						<name>bandicam 2025-06-02 00-01-10-144 - Audio</name>
						<rate>
							<timebase>60</timebase>
							<ntsc>TRUE</ntsc>
						</rate>
						<rate>
							<timebase>60</timebase>
							<ntsc>TRUE</ntsc>
						</rate>
						<duration>0</duration>
						<start>20364</start>
						<end>20364</end>
						<in>4704</in>
						<out>4704</out>
					</clipitem>
					<clipitem frameBlend="FALSE" id="audioclip-1058">
						<file id="file-1"/>
						<name>bandicam 2025-06-02 00-01-10-144 - Audio</name>
						<rate>
							<timebase>60</timebase>
							<ntsc>TRUE</ntsc>
						</rate>
						<rate>
							<timebase>60</timebase>
							<ntsc>TRUE</ntsc>
						</rate>
						<duration>90</duration>
						<start>20364</start>
						<end>20454</end>
						<in>4722</in>
						<out>4812</out>
					</clipitem>
					<clipitem frameBlend="FALSE" id="audioclip-1059">
						<file id="file-1"/>
						<name>bandicam 2025-06-02 00-01-10-144 - Audio</name>
						<rate>
							<timebase>60</timebase>
							<ntsc>TRUE</ntsc>
						</rate>
						<rate>
							<timebase>60</timebase>
							<ntsc>TRUE</ntsc>
						</rate>
						<duration>0</duration>
						<start>20454</start>
						<end>20454</end>
						<in>4848</in>
						<out>4848</out>
					</clipitem>
					<clipitem frameBlend="FALSE" id="audioclip-1060">
						<file id="file-1"/>
						<name>bandicam 2025-06-02 00-01-10-144 - Audio</name>
						<rate>
							<timebase>60</timebase>
							<ntsc>TRUE</ntsc>
						</rate>
						<rate>
							<timebase>60</timebase>
							<ntsc>TRUE</ntsc>
						</rate>
						<duration>12</duration>
						<start>20454</start>
						<end>20466</end>
						<in>4860</in>
						<out>4872</out>
					</clipitem>
					<clipitem frameBlend="FALSE" id="audioclip-1061">
						<file id="file-1"/>
						<name>bandicam 2025-06-02 00-01-10-144 - Audio</name>
						<rate>
							<timebase>60</timebase>
							<ntsc>TRUE</ntsc>
						</rate>
						<rate>
							<timebase>60</timebase>
							<ntsc>TRUE</ntsc>
						</rate>
						<duration>6</duration>
						<start>20466</start>
						<end>20472</end>
						<in>4890</in>
						<out>4896</out>
					</clipitem>
					<clipitem frameBlend="FALSE" id="audioclip-1062">
						<file id="file-1"/>
						<name>bandicam 2025-06-02 00-01-10-144 - Audio</name>
						<rate>
							<timebase>60</timebase>
							<ntsc>TRUE</ntsc>
						</rate>
						<rate>
							<timebase>60</timebase>
							<ntsc>TRUE</ntsc>
						</rate>
						<duration>24</duration>
						<start>20472</start>
						<end>20496</end>
						<in>4908</in>
						<out>4932</out>
					</clipitem>
					<clipitem frameBlend="FALSE" id="audioclip-1063">
						<file id="file-1"/>
						<name>bandicam 2025-06-02 00-01-10-144 - Audio</name>
						<rate>
							<timebase>60</timebase>
							<ntsc>TRUE</ntsc>
						</rate>
						<rate>
							<timebase>60</timebase>
							<ntsc>TRUE</ntsc>
						</rate>
						<duration>30</duration>
						<start>20496</start>
						<end>20526</end>
						<in>4944</in>
						<out>4974</out>
					</clipitem>
					<clipitem frameBlend="FALSE" id="audioclip-1064">
						<file id="file-1"/>
						<name>bandicam 2025-06-02 00-01-10-144 - Audio</name>
						<rate>
							<timebase>60</timebase>
							<ntsc>TRUE</ntsc>
						</rate>
						<rate>
							<timebase>60</timebase>
							<ntsc>TRUE</ntsc>
						</rate>
						<duration>30</duration>
						<start>20526</start>
						<end>20556</end>
						<in>5016</in>
						<out>5046</out>
					</clipitem>
					<clipitem frameBlend="FALSE" id="audioclip-1065">
						<file id="file-1"/>
						<name>bandicam 2025-06-02 00-01-10-144 - Audio</name>
						<rate>
							<timebase>60</timebase>
							<ntsc>TRUE</ntsc>
						</rate>
						<rate>
							<timebase>60</timebase>
							<ntsc>TRUE</ntsc>
						</rate>
						<duration>6</duration>
						<start>20556</start>
						<end>20562</end>
						<in>5064</in>
						<out>5070</out>
					</clipitem>
					<clipitem frameBlend="FALSE" id="audioclip-1066">
						<file id="file-1"/>
						<name>bandicam 2025-06-02 00-01-10-144 - Audio</name>
						<rate>
							<timebase>60</timebase>
							<ntsc>TRUE</ntsc>
						</rate>
						<rate>
							<timebase>60</timebase>
							<ntsc>TRUE</ntsc>
						</rate>
						<duration>96</duration>
						<start>20562</start>
						<end>20658</end>
						<in>5082</in>
						<out>5178</out>
					</clipitem>
					<clipitem frameBlend="FALSE" id="audioclip-1067">
						<file id="file-1"/>
						<name>bandicam 2025-06-02 00-01-10-144 - Audio</name>
						<rate>
							<timebase>60</timebase>
							<ntsc>TRUE</ntsc>
						</rate>
						<rate>
							<timebase>60</timebase>
							<ntsc>TRUE</ntsc>
						</rate>
						<duration>24</duration>
						<start>20658</start>
						<end>20682</end>
						<in>5232</in>
						<out>5256</out>
					</clipitem>
					<clipitem frameBlend="FALSE" id="audioclip-1068">
						<file id="file-1"/>
						<name>bandicam 2025-06-02 00-01-10-144 - Audio</name>
						<rate>
							<timebase>60</timebase>
							<ntsc>TRUE</ntsc>
						</rate>
						<rate>
							<timebase>60</timebase>
							<ntsc>TRUE</ntsc>
						</rate>
						<duration>12</duration>
						<start>20682</start>
						<end>20694</end>
						<in>5328</in>
						<out>5340</out>
					</clipitem>
					<clipitem frameBlend="FALSE" id="audioclip-1069">
						<file id="file-1"/>
						<name>bandicam 2025-06-02 00-01-10-144 - Audio</name>
						<rate>
							<timebase>60</timebase>
							<ntsc>TRUE</ntsc>
						</rate>
						<rate>
							<timebase>60</timebase>
							<ntsc>TRUE</ntsc>
						</rate>
						<duration>12</duration>
						<start>20694</start>
						<end>20706</end>
						<in>5352</in>
						<out>5364</out>
					</clipitem>
					<clipitem frameBlend="FALSE" id="audioclip-1070">
						<file id="file-1"/>
						<name>bandicam 2025-06-02 00-01-10-144 - Audio</name>
						<rate>
							<timebase>60</timebase>
							<ntsc>TRUE</ntsc>
						</rate>
						<rate>
							<timebase>60</timebase>
							<ntsc>TRUE</ntsc>
						</rate>
						<duration>84</duration>
						<start>20706</start>
						<end>20790</end>
						<in>5382</in>
						<out>5466</out>
					</clipitem>
					<clipitem frameBlend="FALSE" id="audioclip-1071">
						<file id="file-1"/>
						<name>bandicam 2025-06-02 00-01-10-144 - Audio</name>
						<rate>
							<timebase>60</timebase>
							<ntsc>TRUE</ntsc>
						</rate>
						<rate>
							<timebase>60</timebase>
							<ntsc>TRUE</ntsc>
						</rate>
						<duration>18</duration>
						<start>20790</start>
						<end>20808</end>
						<in>5490</in>
						<out>5508</out>
					</clipitem>
					<clipitem frameBlend="FALSE" id="audioclip-1072">
						<file id="file-1"/>
						<name>bandicam 2025-06-02 00-01-10-144 - Audio</name>
						<rate>
							<timebase>60</timebase>
							<ntsc>TRUE</ntsc>
						</rate>
						<rate>
							<timebase>60</timebase>
							<ntsc>TRUE</ntsc>
						</rate>
						<duration>0</duration>
						<start>20808</start>
						<end>20808</end>
						<in>5520</in>
						<out>5520</out>
					</clipitem>
					<clipitem frameBlend="FALSE" id="audioclip-1073">
						<file id="file-1"/>
						<name>bandicam 2025-06-02 00-01-10-144 - Audio</name>
						<rate>
							<timebase>60</timebase>
							<ntsc>TRUE</ntsc>
						</rate>
						<rate>
							<timebase>60</timebase>
							<ntsc>TRUE</ntsc>
						</rate>
						<duration>36</duration>
						<start>20808</start>
						<end>20844</end>
						<in>5532</in>
						<out>5568</out>
					</clipitem>
					<clipitem frameBlend="FALSE" id="audioclip-1074">
						<file id="file-1"/>
						<name>bandicam 2025-06-02 00-01-10-144 - Audio</name>
						<rate>
							<timebase>60</timebase>
							<ntsc>TRUE</ntsc>
						</rate>
						<rate>
							<timebase>60</timebase>
							<ntsc>TRUE</ntsc>
						</rate>
						<duration>18</duration>
						<start>20844</start>
						<end>20862</end>
						<in>5580</in>
						<out>5598</out>
					</clipitem>
					<clipitem frameBlend="FALSE" id="audioclip-1075">
						<file id="file-1"/>
						<name>bandicam 2025-06-02 00-01-10-144 - Audio</name>
						<rate>
							<timebase>60</timebase>
							<ntsc>TRUE</ntsc>
						</rate>
						<rate>
							<timebase>60</timebase>
							<ntsc>TRUE</ntsc>
						</rate>
						<duration>24</duration>
						<start>20862</start>
						<end>20886</end>
						<in>5622</in>
						<out>5646</out>
					</clipitem>
					<clipitem frameBlend="FALSE" id="audioclip-1076">
						<file id="file-1"/>
						<name>bandicam 2025-06-02 00-01-10-144 - Audio</name>
						<rate>
							<timebase>60</timebase>
							<ntsc>TRUE</ntsc>
						</rate>
						<rate>
							<timebase>60</timebase>
							<ntsc>TRUE</ntsc>
						</rate>
						<duration>30</duration>
						<start>20886</start>
						<end>20916</end>
						<in>5664</in>
						<out>5694</out>
					</clipitem>
					<clipitem frameBlend="FALSE" id="audioclip-1077">
						<file id="file-1"/>
						<name>bandicam 2025-06-02 00-01-10-144 - Audio</name>
						<rate>
							<timebase>60</timebase>
							<ntsc>TRUE</ntsc>
						</rate>
						<rate>
							<timebase>60</timebase>
							<ntsc>TRUE</ntsc>
						</rate>
						<duration>6</duration>
						<start>20916</start>
						<end>20922</end>
						<in>5724</in>
						<out>5730</out>
					</clipitem>
					<clipitem frameBlend="FALSE" id="audioclip-1078">
						<file id="file-1"/>
						<name>bandicam 2025-06-02 00-01-10-144 - Audio</name>
						<rate>
							<timebase>60</timebase>
							<ntsc>TRUE</ntsc>
						</rate>
						<rate>
							<timebase>60</timebase>
							<ntsc>TRUE</ntsc>
						</rate>
						<duration>30</duration>
						<start>20922</start>
						<end>20952</end>
						<in>5748</in>
						<out>5778</out>
					</clipitem>
					<clipitem frameBlend="FALSE" id="audioclip-1079">
						<file id="file-1"/>
						<name>bandicam 2025-06-02 00-01-10-144 - Audio</name>
						<rate>
							<timebase>60</timebase>
							<ntsc>TRUE</ntsc>
						</rate>
						<rate>
							<timebase>60</timebase>
							<ntsc>TRUE</ntsc>
						</rate>
						<duration>186</duration>
						<start>20952</start>
						<end>21138</end>
						<in>5802</in>
						<out>5988</out>
					</clipitem>
					<clipitem frameBlend="FALSE" id="audioclip-1080">
						<file id="file-1"/>
						<name>bandicam 2025-06-02 00-01-10-144 - Audio</name>
						<rate>
							<timebase>60</timebase>
							<ntsc>TRUE</ntsc>
						</rate>
						<rate>
							<timebase>60</timebase>
							<ntsc>TRUE</ntsc>
						</rate>
						<duration>78</duration>
						<start>21138</start>
						<end>21216</end>
						<in>6000</in>
						<out>6078</out>
					</clipitem>
					<clipitem frameBlend="FALSE" id="audioclip-1081">
						<file id="file-1"/>
						<name>bandicam 2025-06-02 00-01-10-144 - Audio</name>
						<rate>
							<timebase>60</timebase>
							<ntsc>TRUE</ntsc>
						</rate>
						<rate>
							<timebase>60</timebase>
							<ntsc>TRUE</ntsc>
						</rate>
						<duration>0</duration>
						<start>21216</start>
						<end>21216</end>
						<in>6132</in>
						<out>6132</out>
					</clipitem>
					<clipitem frameBlend="FALSE" id="audioclip-1082">
						<file id="file-1"/>
						<name>bandicam 2025-06-02 00-01-10-144 - Audio</name>
						<rate>
							<timebase>60</timebase>
							<ntsc>TRUE</ntsc>
						</rate>
						<rate>
							<timebase>60</timebase>
							<ntsc>TRUE</ntsc>
						</rate>
						<duration>60</duration>
						<start>21216</start>
						<end>21276</end>
						<in>6150</in>
						<out>6210</out>
					</clipitem>
					<clipitem frameBlend="FALSE" id="audioclip-1083">
						<file id="file-1"/>
						<name>bandicam 2025-06-02 00-01-10-144 - Audio</name>
						<rate>
							<timebase>60</timebase>
							<ntsc>TRUE</ntsc>
						</rate>
						<rate>
							<timebase>60</timebase>
							<ntsc>TRUE</ntsc>
						</rate>
						<duration>36</duration>
						<start>21276</start>
						<end>21312</end>
						<in>6222</in>
						<out>6258</out>
					</clipitem>
					<clipitem frameBlend="FALSE" id="audioclip-1084">
						<file id="file-1"/>
						<name>bandicam 2025-06-02 00-01-10-144 - Audio</name>
						<rate>
							<timebase>60</timebase>
							<ntsc>TRUE</ntsc>
						</rate>
						<rate>
							<timebase>60</timebase>
							<ntsc>TRUE</ntsc>
						</rate>
						<duration>0</duration>
						<start>21312</start>
						<end>21312</end>
						<in>6282</in>
						<out>6282</out>
					</clipitem>
					<clipitem frameBlend="FALSE" id="audioclip-1085">
						<file id="file-1"/>
						<name>bandicam 2025-06-02 00-01-10-144 - Audio</name>
						<rate>
							<timebase>60</timebase>
							<ntsc>TRUE</ntsc>
						</rate>
						<rate>
							<timebase>60</timebase>
							<ntsc>TRUE</ntsc>
						</rate>
						<duration>0</duration>
						<start>21312</start>
						<end>21312</end>
						<in>6300</in>
						<out>6300</out>
					</clipitem>
					<clipitem frameBlend="FALSE" id="audioclip-1086">
						<file id="file-1"/>
						<name>bandicam 2025-06-02 00-01-10-144 - Audio</name>
						<rate>
							<timebase>60</timebase>
							<ntsc>TRUE</ntsc>
						</rate>
						<rate>
							<timebase>60</timebase>
							<ntsc>TRUE</ntsc>
						</rate>
						<duration>24</duration>
						<start>21312</start>
						<end>21336</end>
						<in>6312</in>
						<out>6336</out>
					</clipitem>
					<clipitem frameBlend="FALSE" id="audioclip-1087">
						<file id="file-1"/>
						<name>bandicam 2025-06-02 00-01-10-144 - Audio</name>
						<rate>
							<timebase>60</timebase>
							<ntsc>TRUE</ntsc>
						</rate>
						<rate>
							<timebase>60</timebase>
							<ntsc>TRUE</ntsc>
						</rate>
						<duration>24</duration>
						<start>21336</start>
						<end>21360</end>
						<in>6384</in>
						<out>6408</out>
					</clipitem>
					<clipitem frameBlend="FALSE" id="audioclip-1088">
						<file id="file-1"/>
						<name>bandicam 2025-06-02 00-01-10-144 - Audio</name>
						<rate>
							<timebase>60</timebase>
							<ntsc>TRUE</ntsc>
						</rate>
						<rate>
							<timebase>60</timebase>
							<ntsc>TRUE</ntsc>
						</rate>
						<duration>24</duration>
						<start>21360</start>
						<end>21384</end>
						<in>6432</in>
						<out>6456</out>
					</clipitem>
					<clipitem frameBlend="FALSE" id="audioclip-1089">
						<file id="file-1"/>
						<name>bandicam 2025-06-02 00-01-10-144 - Audio</name>
						<rate>
							<timebase>60</timebase>
							<ntsc>TRUE</ntsc>
						</rate>
						<rate>
							<timebase>60</timebase>
							<ntsc>TRUE</ntsc>
						</rate>
						<duration>66</duration>
						<start>21384</start>
						<end>21450</end>
						<in>6468</in>
						<out>6534</out>
					</clipitem>
					<clipitem frameBlend="FALSE" id="audioclip-1090">
						<file id="file-1"/>
						<name>bandicam 2025-06-02 00-01-10-144 - Audio</name>
						<rate>
							<timebase>60</timebase>
							<ntsc>TRUE</ntsc>
						</rate>
						<rate>
							<timebase>60</timebase>
							<ntsc>TRUE</ntsc>
						</rate>
						<duration>42</duration>
						<start>21450</start>
						<end>21492</end>
						<in>6546</in>
						<out>6588</out>
					</clipitem>
					<clipitem frameBlend="FALSE" id="audioclip-1091">
						<file id="file-1"/>
						<name>bandicam 2025-06-02 00-01-10-144 - Audio</name>
						<rate>
							<timebase>60</timebase>
							<ntsc>TRUE</ntsc>
						</rate>
						<rate>
							<timebase>60</timebase>
							<ntsc>TRUE</ntsc>
						</rate>
						<duration>24</duration>
						<start>21492</start>
						<end>21516</end>
						<in>6612</in>
						<out>6636</out>
					</clipitem>
					<clipitem frameBlend="FALSE" id="audioclip-1092">
						<file id="file-1"/>
						<name>bandicam 2025-06-02 00-01-10-144 - Audio</name>
						<rate>
							<timebase>60</timebase>
							<ntsc>TRUE</ntsc>
						</rate>
						<rate>
							<timebase>60</timebase>
							<ntsc>TRUE</ntsc>
						</rate>
						<duration>0</duration>
						<start>21516</start>
						<end>21516</end>
						<in>6714</in>
						<out>6714</out>
					</clipitem>
					<clipitem frameBlend="FALSE" id="audioclip-1093">
						<file id="file-1"/>
						<name>bandicam 2025-06-02 00-01-10-144 - Audio</name>
						<rate>
							<timebase>60</timebase>
							<ntsc>TRUE</ntsc>
						</rate>
						<rate>
							<timebase>60</timebase>
							<ntsc>TRUE</ntsc>
						</rate>
						<duration>12</duration>
						<start>21516</start>
						<end>21528</end>
						<in>6750</in>
						<out>6762</out>
					</clipitem>
					<clipitem frameBlend="FALSE" id="audioclip-1094">
						<file id="file-1"/>
						<name>bandicam 2025-06-02 00-01-10-144 - Audio</name>
						<rate>
							<timebase>60</timebase>
							<ntsc>TRUE</ntsc>
						</rate>
						<rate>
							<timebase>60</timebase>
							<ntsc>TRUE</ntsc>
						</rate>
						<duration>12</duration>
						<start>21528</start>
						<end>21540</end>
						<in>6804</in>
						<out>6816</out>
					</clipitem>
					<clipitem frameBlend="FALSE" id="audioclip-1095">
						<file id="file-1"/>
						<name>bandicam 2025-06-02 00-01-10-144 - Audio</name>
						<rate>
							<timebase>60</timebase>
							<ntsc>TRUE</ntsc>
						</rate>
						<rate>
							<timebase>60</timebase>
							<ntsc>TRUE</ntsc>
						</rate>
						<duration>24</duration>
						<start>21540</start>
						<end>21564</end>
						<in>6828</in>
						<out>6852</out>
					</clipitem>
					<clipitem frameBlend="FALSE" id="audioclip-1096">
						<file id="file-1"/>
						<name>bandicam 2025-06-02 00-01-10-144 - Audio</name>
						<rate>
							<timebase>60</timebase>
							<ntsc>TRUE</ntsc>
						</rate>
						<rate>
							<timebase>60</timebase>
							<ntsc>TRUE</ntsc>
						</rate>
						<duration>6</duration>
						<start>21564</start>
						<end>21570</end>
						<in>6894</in>
						<out>6900</out>
					</clipitem>
					<clipitem frameBlend="FALSE" id="audioclip-1097">
						<file id="file-1"/>
						<name>bandicam 2025-06-02 00-01-10-144 - Audio</name>
						<rate>
							<timebase>60</timebase>
							<ntsc>TRUE</ntsc>
						</rate>
						<rate>
							<timebase>60</timebase>
							<ntsc>TRUE</ntsc>
						</rate>
						<duration>24</duration>
						<start>21570</start>
						<end>21594</end>
						<in>6912</in>
						<out>6936</out>
					</clipitem>
					<clipitem frameBlend="FALSE" id="audioclip-1098">
						<file id="file-1"/>
						<name>bandicam 2025-06-02 00-01-10-144 - Audio</name>
						<rate>
							<timebase>60</timebase>
							<ntsc>TRUE</ntsc>
						</rate>
						<rate>
							<timebase>60</timebase>
							<ntsc>TRUE</ntsc>
						</rate>
						<duration>0</duration>
						<start>21594</start>
						<end>21594</end>
						<in>6954</in>
						<out>6954</out>
					</clipitem>
					<clipitem frameBlend="FALSE" id="audioclip-1099">
						<file id="file-1"/>
						<name>bandicam 2025-06-02 00-01-10-144 - Audio</name>
						<rate>
							<timebase>60</timebase>
							<ntsc>TRUE</ntsc>
						</rate>
						<rate>
							<timebase>60</timebase>
							<ntsc>TRUE</ntsc>
						</rate>
						<duration>0</duration>
						<start>21594</start>
						<end>21594</end>
						<in>7002</in>
						<out>7002</out>
					</clipitem>
					<clipitem frameBlend="FALSE" id="audioclip-1100">
						<file id="file-1"/>
						<name>bandicam 2025-06-02 00-01-10-144 - Audio</name>
						<rate>
							<timebase>60</timebase>
							<ntsc>TRUE</ntsc>
						</rate>
						<rate>
							<timebase>60</timebase>
							<ntsc>TRUE</ntsc>
						</rate>
						<duration>24</duration>
						<start>21594</start>
						<end>21618</end>
						<in>7026</in>
						<out>7050</out>
					</clipitem>
					<clipitem frameBlend="FALSE" id="audioclip-1101">
						<file id="file-1"/>
						<name>bandicam 2025-06-02 00-01-10-144 - Audio</name>
						<rate>
							<timebase>60</timebase>
							<ntsc>TRUE</ntsc>
						</rate>
						<rate>
							<timebase>60</timebase>
							<ntsc>TRUE</ntsc>
						</rate>
						<duration>18</duration>
						<start>21618</start>
						<end>21636</end>
						<in>12</in>
						<out>30</out>
					</clipitem>
					<clipitem frameBlend="FALSE" id="audioclip-1102">
						<file id="file-1"/>
						<name>bandicam 2025-06-02 00-01-10-144 - Audio</name>
						<rate>
							<timebase>60</timebase>
							<ntsc>TRUE</ntsc>
						</rate>
						<rate>
							<timebase>60</timebase>
							<ntsc>TRUE</ntsc>
						</rate>
						<duration>36</duration>
						<start>21636</start>
						<end>21672</end>
						<in>54</in>
						<out>90</out>
					</clipitem>
					<clipitem frameBlend="FALSE" id="audioclip-1103">
						<file id="file-1"/>
						<name>bandicam 2025-06-02 00-01-10-144 - Audio</name>
						<rate>
							<timebase>60</timebase>
							<ntsc>TRUE</ntsc>
						</rate>
						<rate>
							<timebase>60</timebase>
							<ntsc>TRUE</ntsc>
						</rate>
						<duration>18</duration>
						<start>21672</start>
						<end>21690</end>
						<in>108</in>
						<out>126</out>
					</clipitem>
					<clipitem frameBlend="FALSE" id="audioclip-1104">
						<file id="file-1"/>
						<name>bandicam 2025-06-02 00-01-10-144 - Audio</name>
						<rate>
							<timebase>60</timebase>
							<ntsc>TRUE</ntsc>
						</rate>
						<rate>
							<timebase>60</timebase>
							<ntsc>TRUE</ntsc>
						</rate>
						<duration>24</duration>
						<start>21690</start>
						<end>21714</end>
						<in>174</in>
						<out>198</out>
					</clipitem>
					<clipitem frameBlend="FALSE" id="audioclip-1105">
						<file id="file-1"/>
						<name>bandicam 2025-06-02 00-01-10-144 - Audio</name>
						<rate>
							<timebase>60</timebase>
							<ntsc>TRUE</ntsc>
						</rate>
						<rate>
							<timebase>60</timebase>
							<ntsc>TRUE</ntsc>
						</rate>
						<duration>0</duration>
						<start>21714</start>
						<end>21714</end>
						<in>300</in>
						<out>300</out>
					</clipitem>
					<clipitem frameBlend="FALSE" id="audioclip-1106">
						<file id="file-1"/>
						<name>bandicam 2025-06-02 00-01-10-144 - Audio</name>
						<rate>
							<timebase>60</timebase>
							<ntsc>TRUE</ntsc>
						</rate>
						<rate>
							<timebase>60</timebase>
							<ntsc>TRUE</ntsc>
						</rate>
						<duration>24</duration>
						<start>21714</start>
						<end>21738</end>
						<in>360</in>
						<out>384</out>
					</clipitem>
					<clipitem frameBlend="FALSE" id="audioclip-1107">
						<file id="file-1"/>
						<name>bandicam 2025-06-02 00-01-10-144 - Audio</name>
						<rate>
							<timebase>60</timebase>
							<ntsc>TRUE</ntsc>
						</rate>
						<rate>
							<timebase>60</timebase>
							<ntsc>TRUE</ntsc>
						</rate>
						<duration>0</duration>
						<start>21738</start>
						<end>21738</end>
						<in>438</in>
						<out>438</out>
					</clipitem>
					<clipitem frameBlend="FALSE" id="audioclip-1108">
						<file id="file-1"/>
						<name>bandicam 2025-06-02 00-01-10-144 - Audio</name>
						<rate>
							<timebase>60</timebase>
							<ntsc>TRUE</ntsc>
						</rate>
						<rate>
							<timebase>60</timebase>
							<ntsc>TRUE</ntsc>
						</rate>
						<duration>42</duration>
						<start>21738</start>
						<end>21780</end>
						<in>450</in>
						<out>492</out>
					</clipitem>
					<clipitem frameBlend="FALSE" id="audioclip-1109">
						<file id="file-1"/>
						<name>bandicam 2025-06-02 00-01-10-144 - Audio</name>
						<rate>
							<timebase>60</timebase>
							<ntsc>TRUE</ntsc>
						</rate>
						<rate>
							<timebase>60</timebase>
							<ntsc>TRUE</ntsc>
						</rate>
						<duration>0</duration>
						<start>21780</start>
						<end>21780</end>
						<in>504</in>
						<out>504</out>
					</clipitem>
					<clipitem frameBlend="FALSE" id="audioclip-1110">
						<file id="file-1"/>
						<name>bandicam 2025-06-02 00-01-10-144 - Audio</name>
						<rate>
							<timebase>60</timebase>
							<ntsc>TRUE</ntsc>
						</rate>
						<rate>
							<timebase>60</timebase>
							<ntsc>TRUE</ntsc>
						</rate>
						<duration>18</duration>
						<start>21780</start>
						<end>21798</end>
						<in>528</in>
						<out>546</out>
					</clipitem>
					<clipitem frameBlend="FALSE" id="audioclip-1111">
						<file id="file-1"/>
						<name>bandicam 2025-06-02 00-01-10-144 - Audio</name>
						<rate>
							<timebase>60</timebase>
							<ntsc>TRUE</ntsc>
						</rate>
						<rate>
							<timebase>60</timebase>
							<ntsc>TRUE</ntsc>
						</rate>
						<duration>24</duration>
						<start>21798</start>
						<end>21822</end>
						<in>582</in>
						<out>606</out>
					</clipitem>
					<clipitem frameBlend="FALSE" id="audioclip-1112">
						<file id="file-1"/>
						<name>bandicam 2025-06-02 00-01-10-144 - Audio</name>
						<rate>
							<timebase>60</timebase>
							<ntsc>TRUE</ntsc>
						</rate>
						<rate>
							<timebase>60</timebase>
							<ntsc>TRUE</ntsc>
						</rate>
						<duration>18</duration>
						<start>21822</start>
						<end>21840</end>
						<in>624</in>
						<out>642</out>
					</clipitem>
					<clipitem frameBlend="FALSE" id="audioclip-1113">
						<file id="file-1"/>
						<name>bandicam 2025-06-02 00-01-10-144 - Audio</name>
						<rate>
							<timebase>60</timebase>
							<ntsc>TRUE</ntsc>
						</rate>
						<rate>
							<timebase>60</timebase>
							<ntsc>TRUE</ntsc>
						</rate>
						<duration>0</duration>
						<start>21840</start>
						<end>21840</end>
						<in>852</in>
						<out>852</out>
					</clipitem>
					<clipitem frameBlend="FALSE" id="audioclip-1114">
						<file id="file-1"/>
						<name>bandicam 2025-06-02 00-01-10-144 - Audio</name>
						<rate>
							<timebase>60</timebase>
							<ntsc>TRUE</ntsc>
						</rate>
						<rate>
							<timebase>60</timebase>
							<ntsc>TRUE</ntsc>
						</rate>
						<duration>0</duration>
						<start>21840</start>
						<end>21840</end>
						<in>912</in>
						<out>912</out>
					</clipitem>
					<clipitem frameBlend="FALSE" id="audioclip-1115">
						<file id="file-1"/>
						<name>bandicam 2025-06-02 00-01-10-144 - Audio</name>
						<rate>
							<timebase>60</timebase>
							<ntsc>TRUE</ntsc>
						</rate>
						<rate>
							<timebase>60</timebase>
							<ntsc>TRUE</ntsc>
						</rate>
						<duration>0</duration>
						<start>21840</start>
						<end>21840</end>
						<in>936</in>
						<out>936</out>
					</clipitem>
					<clipitem frameBlend="FALSE" id="audioclip-1116">
						<file id="file-1"/>
						<name>bandicam 2025-06-02 00-01-10-144 - Audio</name>
						<rate>
							<timebase>60</timebase>
							<ntsc>TRUE</ntsc>
						</rate>
						<rate>
							<timebase>60</timebase>
							<ntsc>TRUE</ntsc>
						</rate>
						<duration>0</duration>
						<start>21840</start>
						<end>21840</end>
						<in>954</in>
						<out>954</out>
					</clipitem>
					<clipitem frameBlend="FALSE" id="audioclip-1117">
						<file id="file-1"/>
						<name>bandicam 2025-06-02 00-01-10-144 - Audio</name>
						<rate>
							<timebase>60</timebase>
							<ntsc>TRUE</ntsc>
						</rate>
						<rate>
							<timebase>60</timebase>
							<ntsc>TRUE</ntsc>
						</rate>
						<duration>12</duration>
						<start>21840</start>
						<end>21852</end>
						<in>984</in>
						<out>996</out>
					</clipitem>
					<clipitem frameBlend="FALSE" id="audioclip-1118">
						<file id="file-1"/>
						<name>bandicam 2025-06-02 00-01-10-144 - Audio</name>
						<rate>
							<timebase>60</timebase>
							<ntsc>TRUE</ntsc>
						</rate>
						<rate>
							<timebase>60</timebase>
							<ntsc>TRUE</ntsc>
						</rate>
						<duration>12</duration>
						<start>21852</start>
						<end>21864</end>
						<in>1086</in>
						<out>1098</out>
					</clipitem>
					<clipitem frameBlend="FALSE" id="audioclip-1119">
						<file id="file-1"/>
						<name>bandicam 2025-06-02 00-01-10-144 - Audio</name>
						<rate>
							<timebase>60</timebase>
							<ntsc>TRUE</ntsc>
						</rate>
						<rate>
							<timebase>60</timebase>
							<ntsc>TRUE</ntsc>
						</rate>
						<duration>6</duration>
						<start>21864</start>
						<end>21870</end>
						<in>1188</in>
						<out>1194</out>
					</clipitem>
					<clipitem frameBlend="FALSE" id="audioclip-1120">
						<file id="file-1"/>
						<name>bandicam 2025-06-02 00-01-10-144 - Audio</name>
						<rate>
							<timebase>60</timebase>
							<ntsc>TRUE</ntsc>
						</rate>
						<rate>
							<timebase>60</timebase>
							<ntsc>TRUE</ntsc>
						</rate>
						<duration>24</duration>
						<start>21870</start>
						<end>21894</end>
						<in>1206</in>
						<out>1230</out>
					</clipitem>
					<clipitem frameBlend="FALSE" id="audioclip-1121">
						<file id="file-1"/>
						<name>bandicam 2025-06-02 00-01-10-144 - Audio</name>
						<rate>
							<timebase>60</timebase>
							<ntsc>TRUE</ntsc>
						</rate>
						<rate>
							<timebase>60</timebase>
							<ntsc>TRUE</ntsc>
						</rate>
						<duration>0</duration>
						<start>21894</start>
						<end>21894</end>
						<in>1320</in>
						<out>1320</out>
					</clipitem>
					<clipitem frameBlend="FALSE" id="audioclip-1122">
						<file id="file-1"/>
						<name>bandicam 2025-06-02 00-01-10-144 - Audio</name>
						<rate>
							<timebase>60</timebase>
							<ntsc>TRUE</ntsc>
						</rate>
						<rate>
							<timebase>60</timebase>
							<ntsc>TRUE</ntsc>
						</rate>
						<duration>48</duration>
						<start>21894</start>
						<end>21942</end>
						<in>1374</in>
						<out>1422</out>
					</clipitem>
					<clipitem frameBlend="FALSE" id="audioclip-1123">
						<file id="file-1"/>
						<name>bandicam 2025-06-02 00-01-10-144 - Audio</name>
						<rate>
							<timebase>60</timebase>
							<ntsc>TRUE</ntsc>
						</rate>
						<rate>
							<timebase>60</timebase>
							<ntsc>TRUE</ntsc>
						</rate>
						<duration>18</duration>
						<start>21942</start>
						<end>21960</end>
						<in>1446</in>
						<out>1464</out>
					</clipitem>
					<clipitem frameBlend="FALSE" id="audioclip-1124">
						<file id="file-1"/>
						<name>bandicam 2025-06-02 00-01-10-144 - Audio</name>
						<rate>
							<timebase>60</timebase>
							<ntsc>TRUE</ntsc>
						</rate>
						<rate>
							<timebase>60</timebase>
							<ntsc>TRUE</ntsc>
						</rate>
						<duration>0</duration>
						<start>21960</start>
						<end>21960</end>
						<in>1536</in>
						<out>1536</out>
					</clipitem>
					<clipitem frameBlend="FALSE" id="audioclip-1125">
						<file id="file-1"/>
						<name>bandicam 2025-06-02 00-01-10-144 - Audio</name>
						<rate>
							<timebase>60</timebase>
							<ntsc>TRUE</ntsc>
						</rate>
						<rate>
							<timebase>60</timebase>
							<ntsc>TRUE</ntsc>
						</rate>
						<duration>18</duration>
						<start>21960</start>
						<end>21978</end>
						<in>1566</in>
						<out>1584</out>
					</clipitem>
					<clipitem frameBlend="FALSE" id="audioclip-1126">
						<file id="file-1"/>
						<name>bandicam 2025-06-02 00-01-10-144 - Audio</name>
						<rate>
							<timebase>60</timebase>
							<ntsc>TRUE</ntsc>
						</rate>
						<rate>
							<timebase>60</timebase>
							<ntsc>TRUE</ntsc>
						</rate>
						<duration>42</duration>
						<start>21978</start>
						<end>22020</end>
						<in>1692</in>
						<out>1734</out>
					</clipitem>
					<clipitem frameBlend="FALSE" id="audioclip-1127">
						<file id="file-1"/>
						<name>bandicam 2025-06-02 00-01-10-144 - Audio</name>
						<rate>
							<timebase>60</timebase>
							<ntsc>TRUE</ntsc>
						</rate>
						<rate>
							<timebase>60</timebase>
							<ntsc>TRUE</ntsc>
						</rate>
						<duration>36</duration>
						<start>22020</start>
						<end>22056</end>
						<in>1746</in>
						<out>1782</out>
					</clipitem>
					<clipitem frameBlend="FALSE" id="audioclip-1128">
						<file id="file-1"/>
						<name>bandicam 2025-06-02 00-01-10-144 - Audio</name>
						<rate>
							<timebase>60</timebase>
							<ntsc>TRUE</ntsc>
						</rate>
						<rate>
							<timebase>60</timebase>
							<ntsc>TRUE</ntsc>
						</rate>
						<duration>30</duration>
						<start>22056</start>
						<end>22086</end>
						<in>1800</in>
						<out>1830</out>
					</clipitem>
					<clipitem frameBlend="FALSE" id="audioclip-1129">
						<file id="file-1"/>
						<name>bandicam 2025-06-02 00-01-10-144 - Audio</name>
						<rate>
							<timebase>60</timebase>
							<ntsc>TRUE</ntsc>
						</rate>
						<rate>
							<timebase>60</timebase>
							<ntsc>TRUE</ntsc>
						</rate>
						<duration>30</duration>
						<start>22086</start>
						<end>22116</end>
						<in>1842</in>
						<out>1872</out>
					</clipitem>
					<clipitem frameBlend="FALSE" id="audioclip-1130">
						<file id="file-1"/>
						<name>bandicam 2025-06-02 00-01-10-144 - Audio</name>
						<rate>
							<timebase>60</timebase>
							<ntsc>TRUE</ntsc>
						</rate>
						<rate>
							<timebase>60</timebase>
							<ntsc>TRUE</ntsc>
						</rate>
						<duration>12</duration>
						<start>22116</start>
						<end>22128</end>
						<in>1884</in>
						<out>1896</out>
					</clipitem>
					<clipitem frameBlend="FALSE" id="audioclip-1131">
						<file id="file-1"/>
						<name>bandicam 2025-06-02 00-01-10-144 - Audio</name>
						<rate>
							<timebase>60</timebase>
							<ntsc>TRUE</ntsc>
						</rate>
						<rate>
							<timebase>60</timebase>
							<ntsc>TRUE</ntsc>
						</rate>
						<duration>24</duration>
						<start>22128</start>
						<end>22152</end>
						<in>1926</in>
						<out>1950</out>
					</clipitem>
					<clipitem frameBlend="FALSE" id="audioclip-1132">
						<file id="file-1"/>
						<name>bandicam 2025-06-02 00-01-10-144 - Audio</name>
						<rate>
							<timebase>60</timebase>
							<ntsc>TRUE</ntsc>
						</rate>
						<rate>
							<timebase>60</timebase>
							<ntsc>TRUE</ntsc>
						</rate>
						<duration>18</duration>
						<start>22152</start>
						<end>22170</end>
						<in>2178</in>
						<out>2196</out>
					</clipitem>
					<clipitem frameBlend="FALSE" id="audioclip-1133">
						<file id="file-1"/>
						<name>bandicam 2025-06-02 00-01-10-144 - Audio</name>
						<rate>
							<timebase>60</timebase>
							<ntsc>TRUE</ntsc>
						</rate>
						<rate>
							<timebase>60</timebase>
							<ntsc>TRUE</ntsc>
						</rate>
						<duration>78</duration>
						<start>22170</start>
						<end>22248</end>
						<in>2280</in>
						<out>2358</out>
					</clipitem>
					<clipitem frameBlend="FALSE" id="audioclip-1134">
						<file id="file-1"/>
						<name>bandicam 2025-06-02 00-01-10-144 - Audio</name>
						<rate>
							<timebase>60</timebase>
							<ntsc>TRUE</ntsc>
						</rate>
						<rate>
							<timebase>60</timebase>
							<ntsc>TRUE</ntsc>
						</rate>
						<duration>12</duration>
						<start>22248</start>
						<end>22260</end>
						<in>2448</in>
						<out>2460</out>
					</clipitem>
					<clipitem frameBlend="FALSE" id="audioclip-1135">
						<file id="file-1"/>
						<name>bandicam 2025-06-02 00-01-10-144 - Audio</name>
						<rate>
							<timebase>60</timebase>
							<ntsc>TRUE</ntsc>
						</rate>
						<rate>
							<timebase>60</timebase>
							<ntsc>TRUE</ntsc>
						</rate>
						<duration>6</duration>
						<start>22260</start>
						<end>22266</end>
						<in>2478</in>
						<out>2484</out>
					</clipitem>
					<clipitem frameBlend="FALSE" id="audioclip-1136">
						<file id="file-1"/>
						<name>bandicam 2025-06-02 00-01-10-144 - Audio</name>
						<rate>
							<timebase>60</timebase>
							<ntsc>TRUE</ntsc>
						</rate>
						<rate>
							<timebase>60</timebase>
							<ntsc>TRUE</ntsc>
						</rate>
						<duration>6</duration>
						<start>22266</start>
						<end>22272</end>
						<in>2496</in>
						<out>2502</out>
					</clipitem>
					<clipitem frameBlend="FALSE" id="audioclip-1137">
						<file id="file-1"/>
						<name>bandicam 2025-06-02 00-01-10-144 - Audio</name>
						<rate>
							<timebase>60</timebase>
							<ntsc>TRUE</ntsc>
						</rate>
						<rate>
							<timebase>60</timebase>
							<ntsc>TRUE</ntsc>
						</rate>
						<duration>30</duration>
						<start>22272</start>
						<end>22302</end>
						<in>2538</in>
						<out>2568</out>
					</clipitem>
					<clipitem frameBlend="FALSE" id="audioclip-1138">
						<file id="file-1"/>
						<name>bandicam 2025-06-02 00-01-10-144 - Audio</name>
						<rate>
							<timebase>60</timebase>
							<ntsc>TRUE</ntsc>
						</rate>
						<rate>
							<timebase>60</timebase>
							<ntsc>TRUE</ntsc>
						</rate>
						<duration>36</duration>
						<start>22302</start>
						<end>22338</end>
						<in>2592</in>
						<out>2628</out>
					</clipitem>
					<clipitem frameBlend="FALSE" id="audioclip-1139">
						<file id="file-1"/>
						<name>bandicam 2025-06-02 00-01-10-144 - Audio</name>
						<rate>
							<timebase>60</timebase>
							<ntsc>TRUE</ntsc>
						</rate>
						<rate>
							<timebase>60</timebase>
							<ntsc>TRUE</ntsc>
						</rate>
						<duration>36</duration>
						<start>22338</start>
						<end>22374</end>
						<in>2640</in>
						<out>2676</out>
					</clipitem>
					<clipitem frameBlend="FALSE" id="audioclip-1140">
						<file id="file-1"/>
						<name>bandicam 2025-06-02 00-01-10-144 - Audio</name>
						<rate>
							<timebase>60</timebase>
							<ntsc>TRUE</ntsc>
						</rate>
						<rate>
							<timebase>60</timebase>
							<ntsc>TRUE</ntsc>
						</rate>
						<duration>126</duration>
						<start>22374</start>
						<end>22500</end>
						<in>2724</in>
						<out>2850</out>
					</clipitem>
					<clipitem frameBlend="FALSE" id="audioclip-1141">
						<file id="file-1"/>
						<name>bandicam 2025-06-02 00-01-10-144 - Audio</name>
						<rate>
							<timebase>60</timebase>
							<ntsc>TRUE</ntsc>
						</rate>
						<rate>
							<timebase>60</timebase>
							<ntsc>TRUE</ntsc>
						</rate>
						<duration>24</duration>
						<start>22500</start>
						<end>22524</end>
						<in>2868</in>
						<out>2892</out>
					</clipitem>
					<clipitem frameBlend="FALSE" id="audioclip-1142">
						<file id="file-1"/>
						<name>bandicam 2025-06-02 00-01-10-144 - Audio</name>
						<rate>
							<timebase>60</timebase>
							<ntsc>TRUE</ntsc>
						</rate>
						<rate>
							<timebase>60</timebase>
							<ntsc>TRUE</ntsc>
						</rate>
						<duration>6</duration>
						<start>22524</start>
						<end>22530</end>
						<in>2904</in>
						<out>2910</out>
					</clipitem>
					<clipitem frameBlend="FALSE" id="audioclip-1143">
						<file id="file-1"/>
						<name>bandicam 2025-06-02 00-01-10-144 - Audio</name>
						<rate>
							<timebase>60</timebase>
							<ntsc>TRUE</ntsc>
						</rate>
						<rate>
							<timebase>60</timebase>
							<ntsc>TRUE</ntsc>
						</rate>
						<duration>0</duration>
						<start>22530</start>
						<end>22530</end>
						<in>2946</in>
						<out>2946</out>
					</clipitem>
					<clipitem frameBlend="FALSE" id="audioclip-1144">
						<file id="file-1"/>
						<name>bandicam 2025-06-02 00-01-10-144 - Audio</name>
						<rate>
							<timebase>60</timebase>
							<ntsc>TRUE</ntsc>
						</rate>
						<rate>
							<timebase>60</timebase>
							<ntsc>TRUE</ntsc>
						</rate>
						<duration>24</duration>
						<start>22530</start>
						<end>22554</end>
						<in>2964</in>
						<out>2988</out>
					</clipitem>
					<clipitem frameBlend="FALSE" id="audioclip-1145">
						<file id="file-1"/>
						<name>bandicam 2025-06-02 00-01-10-144 - Audio</name>
						<rate>
							<timebase>60</timebase>
							<ntsc>TRUE</ntsc>
						</rate>
						<rate>
							<timebase>60</timebase>
							<ntsc>TRUE</ntsc>
						</rate>
						<duration>42</duration>
						<start>22554</start>
						<end>22596</end>
						<in>3060</in>
						<out>3102</out>
					</clipitem>
					<clipitem frameBlend="FALSE" id="audioclip-1146">
						<file id="file-1"/>
						<name>bandicam 2025-06-02 00-01-10-144 - Audio</name>
						<rate>
							<timebase>60</timebase>
							<ntsc>TRUE</ntsc>
						</rate>
						<rate>
							<timebase>60</timebase>
							<ntsc>TRUE</ntsc>
						</rate>
						<duration>24</duration>
						<start>22596</start>
						<end>22620</end>
						<in>3120</in>
						<out>3144</out>
					</clipitem>
					<clipitem frameBlend="FALSE" id="audioclip-1147">
						<file id="file-1"/>
						<name>bandicam 2025-06-02 00-01-10-144 - Audio</name>
						<rate>
							<timebase>60</timebase>
							<ntsc>TRUE</ntsc>
						</rate>
						<rate>
							<timebase>60</timebase>
							<ntsc>TRUE</ntsc>
						</rate>
						<duration>24</duration>
						<start>22620</start>
						<end>22644</end>
						<in>3228</in>
						<out>3252</out>
					</clipitem>
					<clipitem frameBlend="FALSE" id="audioclip-1148">
						<file id="file-1"/>
						<name>bandicam 2025-06-02 00-01-10-144 - Audio</name>
						<rate>
							<timebase>60</timebase>
							<ntsc>TRUE</ntsc>
						</rate>
						<rate>
							<timebase>60</timebase>
							<ntsc>TRUE</ntsc>
						</rate>
						<duration>36</duration>
						<start>22644</start>
						<end>22680</end>
						<in>3270</in>
						<out>3306</out>
					</clipitem>
					<clipitem frameBlend="FALSE" id="audioclip-1149">
						<file id="file-1"/>
						<name>bandicam 2025-06-02 00-01-10-144 - Audio</name>
						<rate>
							<timebase>60</timebase>
							<ntsc>TRUE</ntsc>
						</rate>
						<rate>
							<timebase>60</timebase>
							<ntsc>TRUE</ntsc>
						</rate>
						<duration>18</duration>
						<start>22680</start>
						<end>22698</end>
						<in>3372</in>
						<out>3390</out>
					</clipitem>
					<clipitem frameBlend="FALSE" id="audioclip-1150">
						<file id="file-1"/>
						<name>bandicam 2025-06-02 00-01-10-144 - Audio</name>
						<rate>
							<timebase>60</timebase>
							<ntsc>TRUE</ntsc>
						</rate>
						<rate>
							<timebase>60</timebase>
							<ntsc>TRUE</ntsc>
						</rate>
						<duration>24</duration>
						<start>22698</start>
						<end>22722</end>
						<in>3450</in>
						<out>3474</out>
					</clipitem>
					<clipitem frameBlend="FALSE" id="audioclip-1151">
						<file id="file-1"/>
						<name>bandicam 2025-06-02 00-01-10-144 - Audio</name>
						<rate>
							<timebase>60</timebase>
							<ntsc>TRUE</ntsc>
						</rate>
						<rate>
							<timebase>60</timebase>
							<ntsc>TRUE</ntsc>
						</rate>
						<duration>24</duration>
						<start>22722</start>
						<end>22746</end>
						<in>3498</in>
						<out>3522</out>
					</clipitem>
					<clipitem frameBlend="FALSE" id="audioclip-1152">
						<file id="file-1"/>
						<name>bandicam 2025-06-02 00-01-10-144 - Audio</name>
						<rate>
							<timebase>60</timebase>
							<ntsc>TRUE</ntsc>
						</rate>
						<rate>
							<timebase>60</timebase>
							<ntsc>TRUE</ntsc>
						</rate>
						<duration>0</duration>
						<start>22746</start>
						<end>22746</end>
						<in>3582</in>
						<out>3582</out>
					</clipitem>
					<clipitem frameBlend="FALSE" id="audioclip-1153">
						<file id="file-1"/>
						<name>bandicam 2025-06-02 00-01-10-144 - Audio</name>
						<rate>
							<timebase>60</timebase>
							<ntsc>TRUE</ntsc>
						</rate>
						<rate>
							<timebase>60</timebase>
							<ntsc>TRUE</ntsc>
						</rate>
						<duration>18</duration>
						<start>22746</start>
						<end>22764</end>
						<in>3624</in>
						<out>3642</out>
					</clipitem>
					<clipitem frameBlend="FALSE" id="audioclip-1154">
						<file id="file-1"/>
						<name>bandicam 2025-06-02 00-01-10-144 - Audio</name>
						<rate>
							<timebase>60</timebase>
							<ntsc>TRUE</ntsc>
						</rate>
						<rate>
							<timebase>60</timebase>
							<ntsc>TRUE</ntsc>
						</rate>
						<duration>0</duration>
						<start>22764</start>
						<end>22764</end>
						<in>3696</in>
						<out>3696</out>
					</clipitem>
					<clipitem frameBlend="FALSE" id="audioclip-1155">
						<file id="file-1"/>
						<name>bandicam 2025-06-02 00-01-10-144 - Audio</name>
						<rate>
							<timebase>60</timebase>
							<ntsc>TRUE</ntsc>
						</rate>
						<rate>
							<timebase>60</timebase>
							<ntsc>TRUE</ntsc>
						</rate>
						<duration>12</duration>
						<start>22764</start>
						<end>22776</end>
						<in>3768</in>
						<out>3780</out>
					</clipitem>
					<clipitem frameBlend="FALSE" id="audioclip-1156">
						<file id="file-1"/>
						<name>bandicam 2025-06-02 00-01-10-144 - Audio</name>
						<rate>
							<timebase>60</timebase>
							<ntsc>TRUE</ntsc>
						</rate>
						<rate>
							<timebase>60</timebase>
							<ntsc>TRUE</ntsc>
						</rate>
						<duration>18</duration>
						<start>22776</start>
						<end>22794</end>
						<in>3852</in>
						<out>3870</out>
					</clipitem>
					<clipitem frameBlend="FALSE" id="audioclip-1157">
						<file id="file-1"/>
						<name>bandicam 2025-06-02 00-01-10-144 - Audio</name>
						<rate>
							<timebase>60</timebase>
							<ntsc>TRUE</ntsc>
						</rate>
						<rate>
							<timebase>60</timebase>
							<ntsc>TRUE</ntsc>
						</rate>
						<duration>24</duration>
						<start>22794</start>
						<end>22818</end>
						<in>3906</in>
						<out>3930</out>
					</clipitem>
					<clipitem frameBlend="FALSE" id="audioclip-1158">
						<file id="file-1"/>
						<name>bandicam 2025-06-02 00-01-10-144 - Audio</name>
						<rate>
							<timebase>60</timebase>
							<ntsc>TRUE</ntsc>
						</rate>
						<rate>
							<timebase>60</timebase>
							<ntsc>TRUE</ntsc>
						</rate>
						<duration>6</duration>
						<start>22818</start>
						<end>22824</end>
						<in>4026</in>
						<out>4032</out>
					</clipitem>
					<clipitem frameBlend="FALSE" id="audioclip-1159">
						<file id="file-1"/>
						<name>bandicam 2025-06-02 00-01-10-144 - Audio</name>
						<rate>
							<timebase>60</timebase>
							<ntsc>TRUE</ntsc>
						</rate>
						<rate>
							<timebase>60</timebase>
							<ntsc>TRUE</ntsc>
						</rate>
						<duration>0</duration>
						<start>22824</start>
						<end>22824</end>
						<in>4044</in>
						<out>4044</out>
					</clipitem>
					<clipitem frameBlend="FALSE" id="audioclip-1160">
						<file id="file-1"/>
						<name>bandicam 2025-06-02 00-01-10-144 - Audio</name>
						<rate>
							<timebase>60</timebase>
							<ntsc>TRUE</ntsc>
						</rate>
						<rate>
							<timebase>60</timebase>
							<ntsc>TRUE</ntsc>
						</rate>
						<duration>72</duration>
						<start>22824</start>
						<end>22896</end>
						<in>4086</in>
						<out>4158</out>
					</clipitem>
					<clipitem frameBlend="FALSE" id="audioclip-1161">
						<file id="file-1"/>
						<name>bandicam 2025-06-02 00-01-10-144 - Audio</name>
						<rate>
							<timebase>60</timebase>
							<ntsc>TRUE</ntsc>
						</rate>
						<rate>
							<timebase>60</timebase>
							<ntsc>TRUE</ntsc>
						</rate>
						<duration>12</duration>
						<start>22896</start>
						<end>22908</end>
						<in>4188</in>
						<out>4200</out>
					</clipitem>
					<clipitem frameBlend="FALSE" id="audioclip-1162">
						<file id="file-1"/>
						<name>bandicam 2025-06-02 00-01-10-144 - Audio</name>
						<rate>
							<timebase>60</timebase>
							<ntsc>TRUE</ntsc>
						</rate>
						<rate>
							<timebase>60</timebase>
							<ntsc>TRUE</ntsc>
						</rate>
						<duration>42</duration>
						<start>22908</start>
						<end>22950</end>
						<in>4230</in>
						<out>4272</out>
					</clipitem>
					<clipitem frameBlend="FALSE" id="audioclip-1163">
						<file id="file-1"/>
						<name>bandicam 2025-06-02 00-01-10-144 - Audio</name>
						<rate>
							<timebase>60</timebase>
							<ntsc>TRUE</ntsc>
						</rate>
						<rate>
							<timebase>60</timebase>
							<ntsc>TRUE</ntsc>
						</rate>
						<duration>132</duration>
						<start>22950</start>
						<end>23082</end>
						<in>4302</in>
						<out>4434</out>
					</clipitem>
					<clipitem frameBlend="FALSE" id="audioclip-1164">
						<file id="file-1"/>
						<name>bandicam 2025-06-02 00-01-10-144 - Audio</name>
						<rate>
							<timebase>60</timebase>
							<ntsc>TRUE</ntsc>
						</rate>
						<rate>
							<timebase>60</timebase>
							<ntsc>TRUE</ntsc>
						</rate>
						<duration>12</duration>
						<start>23082</start>
						<end>23094</end>
						<in>4470</in>
						<out>4482</out>
					</clipitem>
					<clipitem frameBlend="FALSE" id="audioclip-1165">
						<file id="file-1"/>
						<name>bandicam 2025-06-02 00-01-10-144 - Audio</name>
						<rate>
							<timebase>60</timebase>
							<ntsc>TRUE</ntsc>
						</rate>
						<rate>
							<timebase>60</timebase>
							<ntsc>TRUE</ntsc>
						</rate>
						<duration>48</duration>
						<start>23094</start>
						<end>23142</end>
						<in>4506</in>
						<out>4554</out>
					</clipitem>
					<clipitem frameBlend="FALSE" id="audioclip-1166">
						<file id="file-1"/>
						<name>bandicam 2025-06-02 00-01-10-144 - Audio</name>
						<rate>
							<timebase>60</timebase>
							<ntsc>TRUE</ntsc>
						</rate>
						<rate>
							<timebase>60</timebase>
							<ntsc>TRUE</ntsc>
						</rate>
						<duration>30</duration>
						<start>23142</start>
						<end>23172</end>
						<in>4602</in>
						<out>4632</out>
					</clipitem>
					<clipitem frameBlend="FALSE" id="audioclip-1167">
						<file id="file-1"/>
						<name>bandicam 2025-06-02 00-01-10-144 - Audio</name>
						<rate>
							<timebase>60</timebase>
							<ntsc>TRUE</ntsc>
						</rate>
						<rate>
							<timebase>60</timebase>
							<ntsc>TRUE</ntsc>
						</rate>
						<duration>18</duration>
						<start>23172</start>
						<end>23190</end>
						<in>4650</in>
						<out>4668</out>
					</clipitem>
					<clipitem frameBlend="FALSE" id="audioclip-1168">
						<file id="file-1"/>
						<name>bandicam 2025-06-02 00-01-10-144 - Audio</name>
						<rate>
							<timebase>60</timebase>
							<ntsc>TRUE</ntsc>
						</rate>
						<rate>
							<timebase>60</timebase>
							<ntsc>TRUE</ntsc>
						</rate>
						<duration>0</duration>
						<start>23190</start>
						<end>23190</end>
						<in>4704</in>
						<out>4704</out>
					</clipitem>
					<clipitem frameBlend="FALSE" id="audioclip-1169">
						<file id="file-1"/>
						<name>bandicam 2025-06-02 00-01-10-144 - Audio</name>
						<rate>
							<timebase>60</timebase>
							<ntsc>TRUE</ntsc>
						</rate>
						<rate>
							<timebase>60</timebase>
							<ntsc>TRUE</ntsc>
						</rate>
						<duration>48</duration>
						<start>23190</start>
						<end>23238</end>
						<in>4722</in>
						<out>4770</out>
					</clipitem>
					<clipitem frameBlend="FALSE" id="audioclip-1170">
						<file id="file-1"/>
						<name>bandicam 2025-06-02 00-01-10-144 - Audio</name>
						<rate>
							<timebase>60</timebase>
							<ntsc>TRUE</ntsc>
						</rate>
						<rate>
							<timebase>60</timebase>
							<ntsc>TRUE</ntsc>
						</rate>
						<duration>18</duration>
						<start>23238</start>
						<end>23256</end>
						<in>4788</in>
						<out>4806</out>
					</clipitem>
					<clipitem frameBlend="FALSE" id="audioclip-1171">
						<file id="file-1"/>
						<name>bandicam 2025-06-02 00-01-10-144 - Audio</name>
						<rate>
							<timebase>60</timebase>
							<ntsc>TRUE</ntsc>
						</rate>
						<rate>
							<timebase>60</timebase>
							<ntsc>TRUE</ntsc>
						</rate>
						<duration>0</duration>
						<start>23256</start>
						<end>23256</end>
						<in>4848</in>
						<out>4848</out>
					</clipitem>
					<clipitem frameBlend="FALSE" id="audioclip-1172">
						<file id="file-1"/>
						<name>bandicam 2025-06-02 00-01-10-144 - Audio</name>
						<rate>
							<timebase>60</timebase>
							<ntsc>TRUE</ntsc>
						</rate>
						<rate>
							<timebase>60</timebase>
							<ntsc>TRUE</ntsc>
						</rate>
						<duration>12</duration>
						<start>23256</start>
						<end>23268</end>
						<in>4860</in>
						<out>4872</out>
					</clipitem>
					<clipitem frameBlend="FALSE" id="audioclip-1173">
						<file id="file-1"/>
						<name>bandicam 2025-06-02 00-01-10-144 - Audio</name>
						<rate>
							<timebase>60</timebase>
							<ntsc>TRUE</ntsc>
						</rate>
						<rate>
							<timebase>60</timebase>
							<ntsc>TRUE</ntsc>
						</rate>
						<duration>6</duration>
						<start>23268</start>
						<end>23274</end>
						<in>4890</in>
						<out>4896</out>
					</clipitem>
					<clipitem frameBlend="FALSE" id="audioclip-1174">
						<file id="file-1"/>
						<name>bandicam 2025-06-02 00-01-10-144 - Audio</name>
						<rate>
							<timebase>60</timebase>
							<ntsc>TRUE</ntsc>
						</rate>
						<rate>
							<timebase>60</timebase>
							<ntsc>TRUE</ntsc>
						</rate>
						<duration>18</duration>
						<start>23274</start>
						<end>23292</end>
						<in>4908</in>
						<out>4926</out>
					</clipitem>
					<clipitem frameBlend="FALSE" id="audioclip-1175">
						<file id="file-1"/>
						<name>bandicam 2025-06-02 00-01-10-144 - Audio</name>
						<rate>
							<timebase>60</timebase>
							<ntsc>TRUE</ntsc>
						</rate>
						<rate>
							<timebase>60</timebase>
							<ntsc>TRUE</ntsc>
						</rate>
						<duration>30</duration>
						<start>23292</start>
						<end>23322</end>
						<in>4944</in>
						<out>4974</out>
					</clipitem>
					<clipitem frameBlend="FALSE" id="audioclip-1176">
						<file id="file-1"/>
						<name>bandicam 2025-06-02 00-01-10-144 - Audio</name>
						<rate>
							<timebase>60</timebase>
							<ntsc>TRUE</ntsc>
						</rate>
						<rate>
							<timebase>60</timebase>
							<ntsc>TRUE</ntsc>
						</rate>
						<duration>18</duration>
						<start>23322</start>
						<end>23340</end>
						<in>5022</in>
						<out>5040</out>
					</clipitem>
					<clipitem frameBlend="FALSE" id="audioclip-1177">
						<file id="file-1"/>
						<name>bandicam 2025-06-02 00-01-10-144 - Audio</name>
						<rate>
							<timebase>60</timebase>
							<ntsc>TRUE</ntsc>
						</rate>
						<rate>
							<timebase>60</timebase>
							<ntsc>TRUE</ntsc>
						</rate>
						<duration>6</duration>
						<start>23340</start>
						<end>23346</end>
						<in>5064</in>
						<out>5070</out>
					</clipitem>
					<clipitem frameBlend="FALSE" id="audioclip-1178">
						<file id="file-1"/>
						<name>bandicam 2025-06-02 00-01-10-144 - Audio</name>
						<rate>
							<timebase>60</timebase>
							<ntsc>TRUE</ntsc>
						</rate>
						<rate>
							<timebase>60</timebase>
							<ntsc>TRUE</ntsc>
						</rate>
						<duration>0</duration>
						<start>23346</start>
						<end>23346</end>
						<in>5082</in>
						<out>5082</out>
					</clipitem>
					<clipitem frameBlend="FALSE" id="audioclip-1179">
						<file id="file-1"/>
						<name>bandicam 2025-06-02 00-01-10-144 - Audio</name>
						<rate>
							<timebase>60</timebase>
							<ntsc>TRUE</ntsc>
						</rate>
						<rate>
							<timebase>60</timebase>
							<ntsc>TRUE</ntsc>
						</rate>
						<duration>84</duration>
						<start>23346</start>
						<end>23430</end>
						<in>5094</in>
						<out>5178</out>
					</clipitem>
					<clipitem frameBlend="FALSE" id="audioclip-1180">
						<file id="file-1"/>
						<name>bandicam 2025-06-02 00-01-10-144 - Audio</name>
						<rate>
							<timebase>60</timebase>
							<ntsc>TRUE</ntsc>
						</rate>
						<rate>
							<timebase>60</timebase>
							<ntsc>TRUE</ntsc>
						</rate>
						<duration>24</duration>
						<start>23430</start>
						<end>23454</end>
						<in>5232</in>
						<out>5256</out>
					</clipitem>
					<clipitem frameBlend="FALSE" id="audioclip-1181">
						<file id="file-1"/>
						<name>bandicam 2025-06-02 00-01-10-144 - Audio</name>
						<rate>
							<timebase>60</timebase>
							<ntsc>TRUE</ntsc>
						</rate>
						<rate>
							<timebase>60</timebase>
							<ntsc>TRUE</ntsc>
						</rate>
						<duration>12</duration>
						<start>23454</start>
						<end>23466</end>
						<in>5328</in>
						<out>5340</out>
					</clipitem>
					<clipitem frameBlend="FALSE" id="audioclip-1182">
						<file id="file-1"/>
						<name>bandicam 2025-06-02 00-01-10-144 - Audio</name>
						<rate>
							<timebase>60</timebase>
							<ntsc>TRUE</ntsc>
						</rate>
						<rate>
							<timebase>60</timebase>
							<ntsc>TRUE</ntsc>
						</rate>
						<duration>6</duration>
						<start>23466</start>
						<end>23472</end>
						<in>5352</in>
						<out>5358</out>
					</clipitem>
					<clipitem frameBlend="FALSE" id="audioclip-1183">
						<file id="file-1"/>
						<name>bandicam 2025-06-02 00-01-10-144 - Audio</name>
						<rate>
							<timebase>60</timebase>
							<ntsc>TRUE</ntsc>
						</rate>
						<rate>
							<timebase>60</timebase>
							<ntsc>TRUE</ntsc>
						</rate>
						<duration>18</duration>
						<start>23472</start>
						<end>23490</end>
						<in>5382</in>
						<out>5400</out>
					</clipitem>
					<clipitem frameBlend="FALSE" id="audioclip-1184">
						<file id="file-1"/>
						<name>bandicam 2025-06-02 00-01-10-144 - Audio</name>
						<rate>
							<timebase>60</timebase>
							<ntsc>TRUE</ntsc>
						</rate>
						<rate>
							<timebase>60</timebase>
							<ntsc>TRUE</ntsc>
						</rate>
						<duration>36</duration>
						<start>23490</start>
						<end>23526</end>
						<in>5412</in>
						<out>5448</out>
					</clipitem>
					<clipitem frameBlend="FALSE" id="audioclip-1185">
						<file id="file-1"/>
						<name>bandicam 2025-06-02 00-01-10-144 - Audio</name>
						<rate>
							<timebase>60</timebase>
							<ntsc>TRUE</ntsc>
						</rate>
						<rate>
							<timebase>60</timebase>
							<ntsc>TRUE</ntsc>
						</rate>
						<duration>0</duration>
						<start>23526</start>
						<end>23526</end>
						<in>5466</in>
						<out>5466</out>
					</clipitem>
					<clipitem frameBlend="FALSE" id="audioclip-1186">
						<file id="file-1"/>
						<name>bandicam 2025-06-02 00-01-10-144 - Audio</name>
						<rate>
							<timebase>60</timebase>
							<ntsc>TRUE</ntsc>
						</rate>
						<rate>
							<timebase>60</timebase>
							<ntsc>TRUE</ntsc>
						</rate>
						<duration>18</duration>
						<start>23526</start>
						<end>23544</end>
						<in>5490</in>
						<out>5508</out>
					</clipitem>
					<clipitem frameBlend="FALSE" id="audioclip-1187">
						<file id="file-1"/>
						<name>bandicam 2025-06-02 00-01-10-144 - Audio</name>
						<rate>
							<timebase>60</timebase>
							<ntsc>TRUE</ntsc>
						</rate>
						<rate>
							<timebase>60</timebase>
							<ntsc>TRUE</ntsc>
						</rate>
						<duration>0</duration>
						<start>23544</start>
						<end>23544</end>
						<in>5520</in>
						<out>5520</out>
					</clipitem>
					<clipitem frameBlend="FALSE" id="audioclip-1188">
						<file id="file-1"/>
						<name>bandicam 2025-06-02 00-01-10-144 - Audio</name>
						<rate>
							<timebase>60</timebase>
							<ntsc>TRUE</ntsc>
						</rate>
						<rate>
							<timebase>60</timebase>
							<ntsc>TRUE</ntsc>
						</rate>
						<duration>18</duration>
						<start>23544</start>
						<end>23562</end>
						<in>5532</in>
						<out>5550</out>
					</clipitem>
					<clipitem frameBlend="FALSE" id="audioclip-1189">
						<file id="file-1"/>
						<name>bandicam 2025-06-02 00-01-10-144 - Audio</name>
						<rate>
							<timebase>60</timebase>
							<ntsc>TRUE</ntsc>
						</rate>
						<rate>
							<timebase>60</timebase>
							<ntsc>TRUE</ntsc>
						</rate>
						<duration>18</duration>
						<start>23562</start>
						<end>23580</end>
						<in>5580</in>
						<out>5598</out>
					</clipitem>
					<clipitem frameBlend="FALSE" id="audioclip-1190">
						<file id="file-1"/>
						<name>bandicam 2025-06-02 00-01-10-144 - Audio</name>
						<rate>
							<timebase>60</timebase>
							<ntsc>TRUE</ntsc>
						</rate>
						<rate>
							<timebase>60</timebase>
							<ntsc>TRUE</ntsc>
						</rate>
						<duration>24</duration>
						<start>23580</start>
						<end>23604</end>
						<in>5622</in>
						<out>5646</out>
					</clipitem>
					<clipitem frameBlend="FALSE" id="audioclip-1191">
						<file id="file-1"/>
						<name>bandicam 2025-06-02 00-01-10-144 - Audio</name>
						<rate>
							<timebase>60</timebase>
							<ntsc>TRUE</ntsc>
						</rate>
						<rate>
							<timebase>60</timebase>
							<ntsc>TRUE</ntsc>
						</rate>
						<duration>30</duration>
						<start>23604</start>
						<end>23634</end>
						<in>5664</in>
						<out>5694</out>
					</clipitem>
					<clipitem frameBlend="FALSE" id="audioclip-1192">
						<file id="file-1"/>
						<name>bandicam 2025-06-02 00-01-10-144 - Audio</name>
						<rate>
							<timebase>60</timebase>
							<ntsc>TRUE</ntsc>
						</rate>
						<rate>
							<timebase>60</timebase>
							<ntsc>TRUE</ntsc>
						</rate>
						<duration>0</duration>
						<start>23634</start>
						<end>23634</end>
						<in>5724</in>
						<out>5724</out>
					</clipitem>
					<clipitem frameBlend="FALSE" id="audioclip-1193">
						<file id="file-1"/>
						<name>bandicam 2025-06-02 00-01-10-144 - Audio</name>
						<rate>
							<timebase>60</timebase>
							<ntsc>TRUE</ntsc>
						</rate>
						<rate>
							<timebase>60</timebase>
							<ntsc>TRUE</ntsc>
						</rate>
						<duration>30</duration>
						<start>23634</start>
						<end>23664</end>
						<in>5748</in>
						<out>5778</out>
					</clipitem>
					<clipitem frameBlend="FALSE" id="audioclip-1194">
						<file id="file-1"/>
						<name>bandicam 2025-06-02 00-01-10-144 - Audio</name>
						<rate>
							<timebase>60</timebase>
							<ntsc>TRUE</ntsc>
						</rate>
						<rate>
							<timebase>60</timebase>
							<ntsc>TRUE</ntsc>
						</rate>
						<duration>180</duration>
						<start>23664</start>
						<end>23844</end>
						<in>5802</in>
						<out>5982</out>
					</clipitem>
					<clipitem frameBlend="FALSE" id="audioclip-1195">
						<file id="file-1"/>
						<name>bandicam 2025-06-02 00-01-10-144 - Audio</name>
						<rate>
							<timebase>60</timebase>
							<ntsc>TRUE</ntsc>
						</rate>
						<rate>
							<timebase>60</timebase>
							<ntsc>TRUE</ntsc>
						</rate>
						<duration>72</duration>
						<start>23844</start>
						<end>23916</end>
						<in>6000</in>
						<out>6072</out>
					</clipitem>
					<clipitem frameBlend="FALSE" id="audioclip-1196">
						<file id="file-1"/>
						<name>bandicam 2025-06-02 00-01-10-144 - Audio</name>
						<rate>
							<timebase>60</timebase>
							<ntsc>TRUE</ntsc>
						</rate>
						<rate>
							<timebase>60</timebase>
							<ntsc>TRUE</ntsc>
						</rate>
						<duration>0</duration>
						<start>23916</start>
						<end>23916</end>
						<in>6132</in>
						<out>6132</out>
					</clipitem>
					<clipitem frameBlend="FALSE" id="audioclip-1197">
						<file id="file-1"/>
						<name>bandicam 2025-06-02 00-01-10-144 - Audio</name>
						<rate>
							<timebase>60</timebase>
							<ntsc>TRUE</ntsc>
						</rate>
						<rate>
							<timebase>60</timebase>
							<ntsc>TRUE</ntsc>
						</rate>
						<duration>48</duration>
						<start>23916</start>
						<end>23964</end>
						<in>6156</in>
						<out>6204</out>
					</clipitem>
					<clipitem frameBlend="FALSE" id="audioclip-1198">
						<file id="file-1"/>
						<name>bandicam 2025-06-02 00-01-10-144 - Audio</name>
						<rate>
							<timebase>60</timebase>
							<ntsc>TRUE</ntsc>
						</rate>
						<rate>
							<timebase>60</timebase>
							<ntsc>TRUE</ntsc>
						</rate>
						<duration>36</duration>
						<start>23964</start>
						<end>24000</end>
						<in>6222</in>
						<out>6258</out>
					</clipitem>
					<clipitem frameBlend="FALSE" id="audioclip-1199">
						<file id="file-1"/>
						<name>bandicam 2025-06-02 00-01-10-144 - Audio</name>
						<rate>
							<timebase>60</timebase>
							<ntsc>TRUE</ntsc>
						</rate>
						<rate>
							<timebase>60</timebase>
							<ntsc>TRUE</ntsc>
						</rate>
						<duration>0</duration>
						<start>24000</start>
						<end>24000</end>
						<in>6282</in>
						<out>6282</out>
					</clipitem>
					<clipitem frameBlend="FALSE" id="audioclip-1200">
						<file id="file-1"/>
						<name>bandicam 2025-06-02 00-01-10-144 - Audio</name>
						<rate>
							<timebase>60</timebase>
							<ntsc>TRUE</ntsc>
						</rate>
						<rate>
							<timebase>60</timebase>
							<ntsc>TRUE</ntsc>
						</rate>
						<duration>18</duration>
						<start>24000</start>
						<end>24018</end>
						<in>6312</in>
						<out>6330</out>
					</clipitem>
					<clipitem frameBlend="FALSE" id="audioclip-1201">
						<file id="file-1"/>
						<name>bandicam 2025-06-02 00-01-10-144 - Audio</name>
						<rate>
							<timebase>60</timebase>
							<ntsc>TRUE</ntsc>
						</rate>
						<rate>
							<timebase>60</timebase>
							<ntsc>TRUE</ntsc>
						</rate>
						<duration>18</duration>
						<start>24018</start>
						<end>24036</end>
						<in>6384</in>
						<out>6402</out>
					</clipitem>
					<clipitem frameBlend="FALSE" id="audioclip-1202">
						<file id="file-1"/>
						<name>bandicam 2025-06-02 00-01-10-144 - Audio</name>
						<rate>
							<timebase>60</timebase>
							<ntsc>TRUE</ntsc>
						</rate>
						<rate>
							<timebase>60</timebase>
							<ntsc>TRUE</ntsc>
						</rate>
						<duration>18</duration>
						<start>24036</start>
						<end>24054</end>
						<in>6432</in>
						<out>6450</out>
					</clipitem>
					<clipitem frameBlend="FALSE" id="audioclip-1203">
						<file id="file-1"/>
						<name>bandicam 2025-06-02 00-01-10-144 - Audio</name>
						<rate>
							<timebase>60</timebase>
							<ntsc>TRUE</ntsc>
						</rate>
						<rate>
							<timebase>60</timebase>
							<ntsc>TRUE</ntsc>
						</rate>
						<duration>0</duration>
						<start>24054</start>
						<end>24054</end>
						<in>6486</in>
						<out>6486</out>
					</clipitem>
					<clipitem frameBlend="FALSE" id="audioclip-1204">
						<file id="file-1"/>
						<name>bandicam 2025-06-02 00-01-10-144 - Audio</name>
						<rate>
							<timebase>60</timebase>
							<ntsc>TRUE</ntsc>
						</rate>
						<rate>
							<timebase>60</timebase>
							<ntsc>TRUE</ntsc>
						</rate>
						<duration>36</duration>
						<start>24054</start>
						<end>24090</end>
						<in>6498</in>
						<out>6534</out>
					</clipitem>
					<clipitem frameBlend="FALSE" id="audioclip-1205">
						<file id="file-1"/>
						<name>bandicam 2025-06-02 00-01-10-144 - Audio</name>
						<rate>
							<timebase>60</timebase>
							<ntsc>TRUE</ntsc>
						</rate>
						<rate>
							<timebase>60</timebase>
							<ntsc>TRUE</ntsc>
						</rate>
						<duration>6</duration>
						<start>24090</start>
						<end>24096</end>
						<in>6576</in>
						<out>6582</out>
					</clipitem>
					<clipitem frameBlend="FALSE" id="audioclip-1206">
						<file id="file-1"/>
						<name>bandicam 2025-06-02 00-01-10-144 - Audio</name>
						<rate>
							<timebase>60</timebase>
							<ntsc>TRUE</ntsc>
						</rate>
						<rate>
							<timebase>60</timebase>
							<ntsc>TRUE</ntsc>
						</rate>
						<duration>18</duration>
						<start>24096</start>
						<end>24114</end>
						<in>6612</in>
						<out>6630</out>
					</clipitem>
					<clipitem frameBlend="FALSE" id="audioclip-1207">
						<file id="file-1"/>
						<name>bandicam 2025-06-02 00-01-10-144 - Audio</name>
						<rate>
							<timebase>60</timebase>
							<ntsc>TRUE</ntsc>
						</rate>
						<rate>
							<timebase>60</timebase>
							<ntsc>TRUE</ntsc>
						</rate>
						<duration>12</duration>
						<start>24114</start>
						<end>24126</end>
						<in>6750</in>
						<out>6762</out>
					</clipitem>
					<clipitem frameBlend="FALSE" id="audioclip-1208">
						<file id="file-1"/>
						<name>bandicam 2025-06-02 00-01-10-144 - Audio</name>
						<rate>
							<timebase>60</timebase>
							<ntsc>TRUE</ntsc>
						</rate>
						<rate>
							<timebase>60</timebase>
							<ntsc>TRUE</ntsc>
						</rate>
						<duration>6</duration>
						<start>24126</start>
						<end>24132</end>
						<in>6810</in>
						<out>6816</out>
					</clipitem>
					<clipitem frameBlend="FALSE" id="audioclip-1209">
						<file id="file-1"/>
						<name>bandicam 2025-06-02 00-01-10-144 - Audio</name>
						<rate>
							<timebase>60</timebase>
							<ntsc>TRUE</ntsc>
						</rate>
						<rate>
							<timebase>60</timebase>
							<ntsc>TRUE</ntsc>
						</rate>
						<duration>18</duration>
						<start>24132</start>
						<end>24150</end>
						<in>6828</in>
						<out>6846</out>
					</clipitem>
					<clipitem frameBlend="FALSE" id="audioclip-1210">
						<file id="file-1"/>
						<name>bandicam 2025-06-02 00-01-10-144 - Audio</name>
						<rate>
							<timebase>60</timebase>
							<ntsc>TRUE</ntsc>
						</rate>
						<rate>
							<timebase>60</timebase>
							<ntsc>TRUE</ntsc>
						</rate>
						<duration>6</duration>
						<start>24150</start>
						<end>24156</end>
						<in>6894</in>
						<out>6900</out>
					</clipitem>
					<clipitem frameBlend="FALSE" id="audioclip-1211">
						<file id="file-1"/>
						<name>bandicam 2025-06-02 00-01-10-144 - Audio</name>
						<rate>
							<timebase>60</timebase>
							<ntsc>TRUE</ntsc>
						</rate>
						<rate>
							<timebase>60</timebase>
							<ntsc>TRUE</ntsc>
						</rate>
						<duration>18</duration>
						<start>24156</start>
						<end>24174</end>
						<in>6912</in>
						<out>6930</out>
					</clipitem>
					<clipitem frameBlend="FALSE" id="audioclip-1212">
						<file id="file-1"/>
						<name>bandicam 2025-06-02 00-01-10-144 - Audio</name>
						<rate>
							<timebase>60</timebase>
							<ntsc>TRUE</ntsc>
						</rate>
						<rate>
							<timebase>60</timebase>
							<ntsc>TRUE</ntsc>
						</rate>
						<duration>0</duration>
						<start>24174</start>
						<end>24174</end>
						<in>6954</in>
						<out>6954</out>
					</clipitem>
					<clipitem frameBlend="FALSE" id="audioclip-1213">
						<file id="file-1"/>
						<name>bandicam 2025-06-02 00-01-10-144 - Audio</name>
						<rate>
							<timebase>60</timebase>
							<ntsc>TRUE</ntsc>
						</rate>
						<rate>
							<timebase>60</timebase>
							<ntsc>TRUE</ntsc>
						</rate>
						<duration>0</duration>
						<start>24174</start>
						<end>24174</end>
						<in>7002</in>
						<out>7002</out>
					</clipitem>
					<clipitem frameBlend="FALSE" id="audioclip-1214">
						<file id="file-1"/>
						<name>bandicam 2025-06-02 00-01-10-144 - Audio</name>
						<rate>
							<timebase>60</timebase>
							<ntsc>TRUE</ntsc>
						</rate>
						<rate>
							<timebase>60</timebase>
							<ntsc>TRUE</ntsc>
						</rate>
						<duration>18</duration>
						<start>24174</start>
						<end>24192</end>
						<in>7026</in>
						<out>7044</out>
					</clipitem>
					<clipitem frameBlend="FALSE" id="audioclip-1215">
						<file id="file-1"/>
						<name>bandicam 2025-06-02 00-01-10-144 - Audio</name>
						<rate>
							<timebase>60</timebase>
							<ntsc>TRUE</ntsc>
						</rate>
						<rate>
							<timebase>60</timebase>
							<ntsc>TRUE</ntsc>
						</rate>
						<duration>30</duration>
						<start>24192</start>
						<end>24222</end>
						<in>12</in>
						<out>42</out>
					</clipitem>
					<clipitem frameBlend="FALSE" id="audioclip-1216">
						<file id="file-1"/>
						<name>bandicam 2025-06-02 00-01-10-144 - Audio</name>
						<rate>
							<timebase>60</timebase>
							<ntsc>TRUE</ntsc>
						</rate>
						<rate>
							<timebase>60</timebase>
							<ntsc>TRUE</ntsc>
						</rate>
						<duration>36</duration>
						<start>24222</start>
						<end>24258</end>
						<in>54</in>
						<out>90</out>
					</clipitem>
					<clipitem frameBlend="FALSE" id="audioclip-1217">
						<file id="file-1"/>
						<name>bandicam 2025-06-02 00-01-10-144 - Audio</name>
						<rate>
							<timebase>60</timebase>
							<ntsc>TRUE</ntsc>
						</rate>
						<rate>
							<timebase>60</timebase>
							<ntsc>TRUE</ntsc>
						</rate>
						<duration>18</duration>
						<start>24258</start>
						<end>24276</end>
						<in>108</in>
						<out>126</out>
					</clipitem>
					<clipitem frameBlend="FALSE" id="audioclip-1218">
						<file id="file-1"/>
						<name>bandicam 2025-06-02 00-01-10-144 - Audio</name>
						<rate>
							<timebase>60</timebase>
							<ntsc>TRUE</ntsc>
						</rate>
						<rate>
							<timebase>60</timebase>
							<ntsc>TRUE</ntsc>
						</rate>
						<duration>24</duration>
						<start>24276</start>
						<end>24300</end>
						<in>174</in>
						<out>198</out>
					</clipitem>
					<clipitem frameBlend="FALSE" id="audioclip-1219">
						<file id="file-1"/>
						<name>bandicam 2025-06-02 00-01-10-144 - Audio</name>
						<rate>
							<timebase>60</timebase>
							<ntsc>TRUE</ntsc>
						</rate>
						<rate>
							<timebase>60</timebase>
							<ntsc>TRUE</ntsc>
						</rate>
						<duration>0</duration>
						<start>24300</start>
						<end>24300</end>
						<in>300</in>
						<out>300</out>
					</clipitem>
					<clipitem frameBlend="FALSE" id="audioclip-1220">
						<file id="file-1"/>
						<name>bandicam 2025-06-02 00-01-10-144 - Audio</name>
						<rate>
							<timebase>60</timebase>
							<ntsc>TRUE</ntsc>
						</rate>
						<rate>
							<timebase>60</timebase>
							<ntsc>TRUE</ntsc>
						</rate>
						<duration>30</duration>
						<start>24300</start>
						<end>24330</end>
						<in>360</in>
						<out>390</out>
					</clipitem>
					<clipitem frameBlend="FALSE" id="audioclip-1221">
						<file id="file-1"/>
						<name>bandicam 2025-06-02 00-01-10-144 - Audio</name>
						<rate>
							<timebase>60</timebase>
							<ntsc>TRUE</ntsc>
						</rate>
						<rate>
							<timebase>60</timebase>
							<ntsc>TRUE</ntsc>
						</rate>
						<duration>0</duration>
						<start>24330</start>
						<end>24330</end>
						<in>438</in>
						<out>438</out>
					</clipitem>
					<clipitem frameBlend="FALSE" id="audioclip-1222">
						<file id="file-1"/>
						<name>bandicam 2025-06-02 00-01-10-144 - Audio</name>
						<rate>
							<timebase>60</timebase>
							<ntsc>TRUE</ntsc>
						</rate>
						<rate>
							<timebase>60</timebase>
							<ntsc>TRUE</ntsc>
						</rate>
						<duration>42</duration>
						<start>24330</start>
						<end>24372</end>
						<in>450</in>
						<out>492</out>
					</clipitem>
					<clipitem frameBlend="FALSE" id="audioclip-1223">
						<file id="file-1"/>
						<name>bandicam 2025-06-02 00-01-10-144 - Audio</name>
						<rate>
							<timebase>60</timebase>
							<ntsc>TRUE</ntsc>
						</rate>
						<rate>
							<timebase>60</timebase>
							<ntsc>TRUE</ntsc>
						</rate>
						<duration>0</duration>
						<start>24372</start>
						<end>24372</end>
						<in>504</in>
						<out>504</out>
					</clipitem>
					<clipitem frameBlend="FALSE" id="audioclip-1224">
						<file id="file-1"/>
						<name>bandicam 2025-06-02 00-01-10-144 - Audio</name>
						<rate>
							<timebase>60</timebase>
							<ntsc>TRUE</ntsc>
						</rate>
						<rate>
							<timebase>60</timebase>
							<ntsc>TRUE</ntsc>
						</rate>
						<duration>30</duration>
						<start>24372</start>
						<end>24402</end>
						<in>528</in>
						<out>558</out>
					</clipitem>
					<clipitem frameBlend="FALSE" id="audioclip-1225">
						<file id="file-1"/>
						<name>bandicam 2025-06-02 00-01-10-144 - Audio</name>
						<rate>
							<timebase>60</timebase>
							<ntsc>TRUE</ntsc>
						</rate>
						<rate>
							<timebase>60</timebase>
							<ntsc>TRUE</ntsc>
						</rate>
						<duration>24</duration>
						<start>24402</start>
						<end>24426</end>
						<in>582</in>
						<out>606</out>
					</clipitem>
					<clipitem frameBlend="FALSE" id="audioclip-1226">
						<file id="file-1"/>
						<name>bandicam 2025-06-02 00-01-10-144 - Audio</name>
						<rate>
							<timebase>60</timebase>
							<ntsc>TRUE</ntsc>
						</rate>
						<rate>
							<timebase>60</timebase>
							<ntsc>TRUE</ntsc>
						</rate>
						<duration>18</duration>
						<start>24426</start>
						<end>24444</end>
						<in>624</in>
						<out>642</out>
					</clipitem>
					<clipitem frameBlend="FALSE" id="audioclip-1227">
						<file id="file-1"/>
						<name>bandicam 2025-06-02 00-01-10-144 - Audio</name>
						<rate>
							<timebase>60</timebase>
							<ntsc>TRUE</ntsc>
						</rate>
						<rate>
							<timebase>60</timebase>
							<ntsc>TRUE</ntsc>
						</rate>
						<duration>0</duration>
						<start>24444</start>
						<end>24444</end>
						<in>816</in>
						<out>816</out>
					</clipitem>
					<clipitem frameBlend="FALSE" id="audioclip-1228">
						<file id="file-1"/>
						<name>bandicam 2025-06-02 00-01-10-144 - Audio</name>
						<rate>
							<timebase>60</timebase>
							<ntsc>TRUE</ntsc>
						</rate>
						<rate>
							<timebase>60</timebase>
							<ntsc>TRUE</ntsc>
						</rate>
						<duration>0</duration>
						<start>24444</start>
						<end>24444</end>
						<in>852</in>
						<out>852</out>
					</clipitem>
					<clipitem frameBlend="FALSE" id="audioclip-1229">
						<file id="file-1"/>
						<name>bandicam 2025-06-02 00-01-10-144 - Audio</name>
						<rate>
							<timebase>60</timebase>
							<ntsc>TRUE</ntsc>
						</rate>
						<rate>
							<timebase>60</timebase>
							<ntsc>TRUE</ntsc>
						</rate>
						<duration>0</duration>
						<start>24444</start>
						<end>24444</end>
						<in>912</in>
						<out>912</out>
					</clipitem>
					<clipitem frameBlend="FALSE" id="audioclip-1230">
						<file id="file-1"/>
						<name>bandicam 2025-06-02 00-01-10-144 - Audio</name>
						<rate>
							<timebase>60</timebase>
							<ntsc>TRUE</ntsc>
						</rate>
						<rate>
							<timebase>60</timebase>
							<ntsc>TRUE</ntsc>
						</rate>
						<duration>0</duration>
						<start>24444</start>
						<end>24444</end>
						<in>936</in>
						<out>936</out>
					</clipitem>
					<clipitem frameBlend="FALSE" id="audioclip-1231">
						<file id="file-1"/>
						<name>bandicam 2025-06-02 00-01-10-144 - Audio</name>
						<rate>
							<timebase>60</timebase>
							<ntsc>TRUE</ntsc>
						</rate>
						<rate>
							<timebase>60</timebase>
							<ntsc>TRUE</ntsc>
						</rate>
						<duration>0</duration>
						<start>24444</start>
						<end>24444</end>
						<in>954</in>
						<out>954</out>
					</clipitem>
					<clipitem frameBlend="FALSE" id="audioclip-1232">
						<file id="file-1"/>
						<name>bandicam 2025-06-02 00-01-10-144 - Audio</name>
						<rate>
							<timebase>60</timebase>
							<ntsc>TRUE</ntsc>
						</rate>
						<rate>
							<timebase>60</timebase>
							<ntsc>TRUE</ntsc>
						</rate>
						<duration>12</duration>
						<start>24444</start>
						<end>24456</end>
						<in>984</in>
						<out>996</out>
					</clipitem>
					<clipitem frameBlend="FALSE" id="audioclip-1233">
						<file id="file-1"/>
						<name>bandicam 2025-06-02 00-01-10-144 - Audio</name>
						<rate>
							<timebase>60</timebase>
							<ntsc>TRUE</ntsc>
						</rate>
						<rate>
							<timebase>60</timebase>
							<ntsc>TRUE</ntsc>
						</rate>
						<duration>12</duration>
						<start>24456</start>
						<end>24468</end>
						<in>1086</in>
						<out>1098</out>
					</clipitem>
					<clipitem frameBlend="FALSE" id="audioclip-1234">
						<file id="file-1"/>
						<name>bandicam 2025-06-02 00-01-10-144 - Audio</name>
						<rate>
							<timebase>60</timebase>
							<ntsc>TRUE</ntsc>
						</rate>
						<rate>
							<timebase>60</timebase>
							<ntsc>TRUE</ntsc>
						</rate>
						<duration>48</duration>
						<start>24468</start>
						<end>24516</end>
						<in>1188</in>
						<out>1236</out>
					</clipitem>
					<clipitem frameBlend="FALSE" id="audioclip-1235">
						<file id="file-1"/>
						<name>bandicam 2025-06-02 00-01-10-144 - Audio</name>
						<rate>
							<timebase>60</timebase>
							<ntsc>TRUE</ntsc>
						</rate>
						<rate>
							<timebase>60</timebase>
							<ntsc>TRUE</ntsc>
						</rate>
						<duration>0</duration>
						<start>24516</start>
						<end>24516</end>
						<in>1320</in>
						<out>1320</out>
					</clipitem>
					<clipitem frameBlend="FALSE" id="audioclip-1236">
						<file id="file-1"/>
						<name>bandicam 2025-06-02 00-01-10-144 - Audio</name>
						<rate>
							<timebase>60</timebase>
							<ntsc>TRUE</ntsc>
						</rate>
						<rate>
							<timebase>60</timebase>
							<ntsc>TRUE</ntsc>
						</rate>
						<duration>54</duration>
						<start>24516</start>
						<end>24570</end>
						<in>1374</in>
						<out>1428</out>
					</clipitem>
					<clipitem frameBlend="FALSE" id="audioclip-1237">
						<file id="file-1"/>
						<name>bandicam 2025-06-02 00-01-10-144 - Audio</name>
						<rate>
							<timebase>60</timebase>
							<ntsc>TRUE</ntsc>
						</rate>
						<rate>
							<timebase>60</timebase>
							<ntsc>TRUE</ntsc>
						</rate>
						<duration>36</duration>
						<start>24570</start>
						<end>24606</end>
						<in>1446</in>
						<out>1482</out>
					</clipitem>
					<clipitem frameBlend="FALSE" id="audioclip-1238">
						<file id="file-1"/>
						<name>bandicam 2025-06-02 00-01-10-144 - Audio</name>
						<rate>
							<timebase>60</timebase>
							<ntsc>TRUE</ntsc>
						</rate>
						<rate>
							<timebase>60</timebase>
							<ntsc>TRUE</ntsc>
						</rate>
						<duration>0</duration>
						<start>24606</start>
						<end>24606</end>
						<in>1536</in>
						<out>1536</out>
					</clipitem>
					<clipitem frameBlend="FALSE" id="audioclip-1239">
						<file id="file-1"/>
						<name>bandicam 2025-06-02 00-01-10-144 - Audio</name>
						<rate>
							<timebase>60</timebase>
							<ntsc>TRUE</ntsc>
						</rate>
						<rate>
							<timebase>60</timebase>
							<ntsc>TRUE</ntsc>
						</rate>
						<duration>30</duration>
						<start>24606</start>
						<end>24636</end>
						<in>1566</in>
						<out>1596</out>
					</clipitem>
					<clipitem frameBlend="FALSE" id="audioclip-1240">
						<file id="file-1"/>
						<name>bandicam 2025-06-02 00-01-10-144 - Audio</name>
						<rate>
							<timebase>60</timebase>
							<ntsc>TRUE</ntsc>
						</rate>
						<rate>
							<timebase>60</timebase>
							<ntsc>TRUE</ntsc>
						</rate>
						<duration>90</duration>
						<start>24636</start>
						<end>24726</end>
						<in>1692</in>
						<out>1782</out>
					</clipitem>
					<clipitem frameBlend="FALSE" id="audioclip-1241">
						<file id="file-1"/>
						<name>bandicam 2025-06-02 00-01-10-144 - Audio</name>
						<rate>
							<timebase>60</timebase>
							<ntsc>TRUE</ntsc>
						</rate>
						<rate>
							<timebase>60</timebase>
							<ntsc>TRUE</ntsc>
						</rate>
						<duration>72</duration>
						<start>24726</start>
						<end>24798</end>
						<in>1800</in>
						<out>1872</out>
					</clipitem>
					<clipitem frameBlend="FALSE" id="audioclip-1242">
						<file id="file-1"/>
						<name>bandicam 2025-06-02 00-01-10-144 - Audio</name>
						<rate>
							<timebase>60</timebase>
							<ntsc>TRUE</ntsc>
						</rate>
						<rate>
							<timebase>60</timebase>
							<ntsc>TRUE</ntsc>
						</rate>
						<duration>24</duration>
						<start>24798</start>
						<end>24822</end>
						<in>1884</in>
						<out>1908</out>
					</clipitem>
					<clipitem frameBlend="FALSE" id="audioclip-1243">
						<file id="file-1"/>
						<name>bandicam 2025-06-02 00-01-10-144 - Audio</name>
						<rate>
							<timebase>60</timebase>
							<ntsc>TRUE</ntsc>
						</rate>
						<rate>
							<timebase>60</timebase>
							<ntsc>TRUE</ntsc>
						</rate>
						<duration>30</duration>
						<start>24822</start>
						<end>24852</end>
						<in>1926</in>
						<out>1956</out>
					</clipitem>
					<clipitem frameBlend="FALSE" id="audioclip-1244">
						<file id="file-1"/>
						<name>bandicam 2025-06-02 00-01-10-144 - Audio</name>
						<rate>
							<timebase>60</timebase>
							<ntsc>TRUE</ntsc>
						</rate>
						<rate>
							<timebase>60</timebase>
							<ntsc>TRUE</ntsc>
						</rate>
						<duration>36</duration>
						<start>24852</start>
						<end>24888</end>
						<in>2172</in>
						<out>2208</out>
					</clipitem>
					<clipitem frameBlend="FALSE" id="audioclip-1245">
						<file id="file-1"/>
						<name>bandicam 2025-06-02 00-01-10-144 - Audio</name>
						<rate>
							<timebase>60</timebase>
							<ntsc>TRUE</ntsc>
						</rate>
						<rate>
							<timebase>60</timebase>
							<ntsc>TRUE</ntsc>
						</rate>
						<duration>90</duration>
						<start>24888</start>
						<end>24978</end>
						<in>2274</in>
						<out>2364</out>
					</clipitem>
					<clipitem frameBlend="FALSE" id="audioclip-1246">
						<file id="file-1"/>
						<name>bandicam 2025-06-02 00-01-10-144 - Audio</name>
						<rate>
							<timebase>60</timebase>
							<ntsc>TRUE</ntsc>
						</rate>
						<rate>
							<timebase>60</timebase>
							<ntsc>TRUE</ntsc>
						</rate>
						<duration>18</duration>
						<start>24978</start>
						<end>24996</end>
						<in>2448</in>
						<out>2466</out>
					</clipitem>
					<clipitem frameBlend="FALSE" id="audioclip-1247">
						<file id="file-1"/>
						<name>bandicam 2025-06-02 00-01-10-144 - Audio</name>
						<rate>
							<timebase>60</timebase>
							<ntsc>TRUE</ntsc>
						</rate>
						<rate>
							<timebase>60</timebase>
							<ntsc>TRUE</ntsc>
						</rate>
						<duration>6</duration>
						<start>24996</start>
						<end>25002</end>
						<in>2478</in>
						<out>2484</out>
					</clipitem>
					<clipitem frameBlend="FALSE" id="audioclip-1248">
						<file id="file-1"/>
						<name>bandicam 2025-06-02 00-01-10-144 - Audio</name>
						<rate>
							<timebase>60</timebase>
							<ntsc>TRUE</ntsc>
						</rate>
						<rate>
							<timebase>60</timebase>
							<ntsc>TRUE</ntsc>
						</rate>
						<duration>6</duration>
						<start>25002</start>
						<end>25008</end>
						<in>2496</in>
						<out>2502</out>
					</clipitem>
					<clipitem frameBlend="FALSE" id="audioclip-1249">
						<file id="file-1"/>
						<name>bandicam 2025-06-02 00-01-10-144 - Audio</name>
						<rate>
							<timebase>60</timebase>
							<ntsc>TRUE</ntsc>
						</rate>
						<rate>
							<timebase>60</timebase>
							<ntsc>TRUE</ntsc>
						</rate>
						<duration>36</duration>
						<start>25008</start>
						<end>25044</end>
						<in>2532</in>
						<out>2568</out>
					</clipitem>
					<clipitem frameBlend="FALSE" id="audioclip-1250">
						<file id="file-1"/>
						<name>bandicam 2025-06-02 00-01-10-144 - Audio</name>
						<rate>
							<timebase>60</timebase>
							<ntsc>TRUE</ntsc>
						</rate>
						<rate>
							<timebase>60</timebase>
							<ntsc>TRUE</ntsc>
						</rate>
						<duration>90</duration>
						<start>25044</start>
						<end>25134</end>
						<in>2592</in>
						<out>2682</out>
					</clipitem>
					<clipitem frameBlend="FALSE" id="audioclip-1251">
						<file id="file-1"/>
						<name>bandicam 2025-06-02 00-01-10-144 - Audio</name>
						<rate>
							<timebase>60</timebase>
							<ntsc>TRUE</ntsc>
						</rate>
						<rate>
							<timebase>60</timebase>
							<ntsc>TRUE</ntsc>
						</rate>
						<duration>0</duration>
						<start>25134</start>
						<end>25134</end>
						<in>2694</in>
						<out>2694</out>
					</clipitem>
					<clipitem frameBlend="FALSE" id="audioclip-1252">
						<file id="file-1"/>
						<name>bandicam 2025-06-02 00-01-10-144 - Audio</name>
						<rate>
							<timebase>60</timebase>
							<ntsc>TRUE</ntsc>
						</rate>
						<rate>
							<timebase>60</timebase>
							<ntsc>TRUE</ntsc>
						</rate>
						<duration>132</duration>
						<start>25134</start>
						<end>25266</end>
						<in>2724</in>
						<out>2856</out>
					</clipitem>
					<clipitem frameBlend="FALSE" id="audioclip-1253">
						<file id="file-1"/>
						<name>bandicam 2025-06-02 00-01-10-144 - Audio</name>
						<rate>
							<timebase>60</timebase>
							<ntsc>TRUE</ntsc>
						</rate>
						<rate>
							<timebase>60</timebase>
							<ntsc>TRUE</ntsc>
						</rate>
						<duration>42</duration>
						<start>25266</start>
						<end>25308</end>
						<in>2868</in>
						<out>2910</out>
					</clipitem>
					<clipitem frameBlend="FALSE" id="audioclip-1254">
						<file id="file-1"/>
						<name>bandicam 2025-06-02 00-01-10-144 - Audio</name>
						<rate>
							<timebase>60</timebase>
							<ntsc>TRUE</ntsc>
						</rate>
						<rate>
							<timebase>60</timebase>
							<ntsc>TRUE</ntsc>
						</rate>
						<duration>12</duration>
						<start>25308</start>
						<end>25320</end>
						<in>2940</in>
						<out>2952</out>
					</clipitem>
					<clipitem frameBlend="FALSE" id="audioclip-1255">
						<file id="file-1"/>
						<name>bandicam 2025-06-02 00-01-10-144 - Audio</name>
						<rate>
							<timebase>60</timebase>
							<ntsc>TRUE</ntsc>
						</rate>
						<rate>
							<timebase>60</timebase>
							<ntsc>TRUE</ntsc>
						</rate>
						<duration>30</duration>
						<start>25320</start>
						<end>25350</end>
						<in>2964</in>
						<out>2994</out>
					</clipitem>
					<clipitem frameBlend="FALSE" id="audioclip-1256">
						<file id="file-1"/>
						<name>bandicam 2025-06-02 00-01-10-144 - Audio</name>
						<rate>
							<timebase>60</timebase>
							<ntsc>TRUE</ntsc>
						</rate>
						<rate>
							<timebase>60</timebase>
							<ntsc>TRUE</ntsc>
						</rate>
						<duration>0</duration>
						<start>25350</start>
						<end>25350</end>
						<in>3024</in>
						<out>3024</out>
					</clipitem>
					<clipitem frameBlend="FALSE" id="audioclip-1257">
						<file id="file-1"/>
						<name>bandicam 2025-06-02 00-01-10-144 - Audio</name>
						<rate>
							<timebase>60</timebase>
							<ntsc>TRUE</ntsc>
						</rate>
						<rate>
							<timebase>60</timebase>
							<ntsc>TRUE</ntsc>
						</rate>
						<duration>48</duration>
						<start>25350</start>
						<end>25398</end>
						<in>3054</in>
						<out>3102</out>
					</clipitem>
					<clipitem frameBlend="FALSE" id="audioclip-1258">
						<file id="file-1"/>
						<name>bandicam 2025-06-02 00-01-10-144 - Audio</name>
						<rate>
							<timebase>60</timebase>
							<ntsc>TRUE</ntsc>
						</rate>
						<rate>
							<timebase>60</timebase>
							<ntsc>TRUE</ntsc>
						</rate>
						<duration>30</duration>
						<start>25398</start>
						<end>25428</end>
						<in>3120</in>
						<out>3150</out>
					</clipitem>
					<clipitem frameBlend="FALSE" id="audioclip-1259">
						<file id="file-1"/>
						<name>bandicam 2025-06-02 00-01-10-144 - Audio</name>
						<rate>
							<timebase>60</timebase>
							<ntsc>TRUE</ntsc>
						</rate>
						<rate>
							<timebase>60</timebase>
							<ntsc>TRUE</ntsc>
						</rate>
						<duration>36</duration>
						<start>25428</start>
						<end>25464</end>
						<in>3222</in>
						<out>3258</out>
					</clipitem>
					<clipitem frameBlend="FALSE" id="audioclip-1260">
						<file id="file-1"/>
						<name>bandicam 2025-06-02 00-01-10-144 - Audio</name>
						<rate>
							<timebase>60</timebase>
							<ntsc>TRUE</ntsc>
						</rate>
						<rate>
							<timebase>60</timebase>
							<ntsc>TRUE</ntsc>
						</rate>
						<duration>36</duration>
						<start>25464</start>
						<end>25500</end>
						<in>3270</in>
						<out>3306</out>
					</clipitem>
					<clipitem frameBlend="FALSE" id="audioclip-1261">
						<file id="file-1"/>
						<name>bandicam 2025-06-02 00-01-10-144 - Audio</name>
						<rate>
							<timebase>60</timebase>
							<ntsc>TRUE</ntsc>
						</rate>
						<rate>
							<timebase>60</timebase>
							<ntsc>TRUE</ntsc>
						</rate>
						<duration>30</duration>
						<start>25500</start>
						<end>25530</end>
						<in>3372</in>
						<out>3402</out>
					</clipitem>
					<clipitem frameBlend="FALSE" id="audioclip-1262">
						<file id="file-1"/>
						<name>bandicam 2025-06-02 00-01-10-144 - Audio</name>
						<rate>
							<timebase>60</timebase>
							<ntsc>TRUE</ntsc>
						</rate>
						<rate>
							<timebase>60</timebase>
							<ntsc>TRUE</ntsc>
						</rate>
						<duration>24</duration>
						<start>25530</start>
						<end>25554</end>
						<in>3450</in>
						<out>3474</out>
					</clipitem>
					<clipitem frameBlend="FALSE" id="audioclip-1263">
						<file id="file-1"/>
						<name>bandicam 2025-06-02 00-01-10-144 - Audio</name>
						<rate>
							<timebase>60</timebase>
							<ntsc>TRUE</ntsc>
						</rate>
						<rate>
							<timebase>60</timebase>
							<ntsc>TRUE</ntsc>
						</rate>
						<duration>30</duration>
						<start>25554</start>
						<end>25584</end>
						<in>3498</in>
						<out>3528</out>
					</clipitem>
					<clipitem frameBlend="FALSE" id="audioclip-1264">
						<file id="file-1"/>
						<name>bandicam 2025-06-02 00-01-10-144 - Audio</name>
						<rate>
							<timebase>60</timebase>
							<ntsc>TRUE</ntsc>
						</rate>
						<rate>
							<timebase>60</timebase>
							<ntsc>TRUE</ntsc>
						</rate>
						<duration>0</duration>
						<start>25584</start>
						<end>25584</end>
						<in>3582</in>
						<out>3582</out>
					</clipitem>
					<clipitem frameBlend="FALSE" id="audioclip-1265">
						<file id="file-1"/>
						<name>bandicam 2025-06-02 00-01-10-144 - Audio</name>
						<rate>
							<timebase>60</timebase>
							<ntsc>TRUE</ntsc>
						</rate>
						<rate>
							<timebase>60</timebase>
							<ntsc>TRUE</ntsc>
						</rate>
						<duration>18</duration>
						<start>25584</start>
						<end>25602</end>
						<in>3624</in>
						<out>3642</out>
					</clipitem>
					<clipitem frameBlend="FALSE" id="audioclip-1266">
						<file id="file-1"/>
						<name>bandicam 2025-06-02 00-01-10-144 - Audio</name>
						<rate>
							<timebase>60</timebase>
							<ntsc>TRUE</ntsc>
						</rate>
						<rate>
							<timebase>60</timebase>
							<ntsc>TRUE</ntsc>
						</rate>
						<duration>0</duration>
						<start>25602</start>
						<end>25602</end>
						<in>3672</in>
						<out>3672</out>
					</clipitem>
					<clipitem frameBlend="FALSE" id="audioclip-1267">
						<file id="file-1"/>
						<name>bandicam 2025-06-02 00-01-10-144 - Audio</name>
						<rate>
							<timebase>60</timebase>
							<ntsc>TRUE</ntsc>
						</rate>
						<rate>
							<timebase>60</timebase>
							<ntsc>TRUE</ntsc>
						</rate>
						<duration>0</duration>
						<start>25602</start>
						<end>25602</end>
						<in>3696</in>
						<out>3696</out>
					</clipitem>
					<clipitem frameBlend="FALSE" id="audioclip-1268">
						<file id="file-1"/>
						<name>bandicam 2025-06-02 00-01-10-144 - Audio</name>
						<rate>
							<timebase>60</timebase>
							<ntsc>TRUE</ntsc>
						</rate>
						<rate>
							<timebase>60</timebase>
							<ntsc>TRUE</ntsc>
						</rate>
						<duration>12</duration>
						<start>25602</start>
						<end>25614</end>
						<in>3768</in>
						<out>3780</out>
					</clipitem>
					<clipitem frameBlend="FALSE" id="audioclip-1269">
						<file id="file-1"/>
						<name>bandicam 2025-06-02 00-01-10-144 - Audio</name>
						<rate>
							<timebase>60</timebase>
							<ntsc>TRUE</ntsc>
						</rate>
						<rate>
							<timebase>60</timebase>
							<ntsc>TRUE</ntsc>
						</rate>
						<duration>30</duration>
						<start>25614</start>
						<end>25644</end>
						<in>3852</in>
						<out>3882</out>
					</clipitem>
					<clipitem frameBlend="FALSE" id="audioclip-1270">
						<file id="file-1"/>
						<name>bandicam 2025-06-02 00-01-10-144 - Audio</name>
						<rate>
							<timebase>60</timebase>
							<ntsc>TRUE</ntsc>
						</rate>
						<rate>
							<timebase>60</timebase>
							<ntsc>TRUE</ntsc>
						</rate>
						<duration>30</duration>
						<start>25644</start>
						<end>25674</end>
						<in>3906</in>
						<out>3936</out>
					</clipitem>
					<clipitem frameBlend="FALSE" id="audioclip-1271">
						<file id="file-1"/>
						<name>bandicam 2025-06-02 00-01-10-144 - Audio</name>
						<rate>
							<timebase>60</timebase>
							<ntsc>TRUE</ntsc>
						</rate>
						<rate>
							<timebase>60</timebase>
							<ntsc>TRUE</ntsc>
						</rate>
						<duration>6</duration>
						<start>25674</start>
						<end>25680</end>
						<in>4026</in>
						<out>4032</out>
					</clipitem>
					<clipitem frameBlend="FALSE" id="audioclip-1272">
						<file id="file-1"/>
						<name>bandicam 2025-06-02 00-01-10-144 - Audio</name>
						<rate>
							<timebase>60</timebase>
							<ntsc>TRUE</ntsc>
						</rate>
						<rate>
							<timebase>60</timebase>
							<ntsc>TRUE</ntsc>
						</rate>
						<duration>0</duration>
						<start>25680</start>
						<end>25680</end>
						<in>4044</in>
						<out>4044</out>
					</clipitem>
					<clipitem frameBlend="FALSE" id="audioclip-1273">
						<file id="file-1"/>
						<name>bandicam 2025-06-02 00-01-10-144 - Audio</name>
						<rate>
							<timebase>60</timebase>
							<ntsc>TRUE</ntsc>
						</rate>
						<rate>
							<timebase>60</timebase>
							<ntsc>TRUE</ntsc>
						</rate>
						<duration>84</duration>
						<start>25680</start>
						<end>25764</end>
						<in>4086</in>
						<out>4170</out>
					</clipitem>
					<clipitem frameBlend="FALSE" id="audioclip-1274">
						<file id="file-1"/>
						<name>bandicam 2025-06-02 00-01-10-144 - Audio</name>
						<rate>
							<timebase>60</timebase>
							<ntsc>TRUE</ntsc>
						</rate>
						<rate>
							<timebase>60</timebase>
							<ntsc>TRUE</ntsc>
						</rate>
						<duration>18</duration>
						<start>25764</start>
						<end>25782</end>
						<in>4188</in>
						<out>4206</out>
					</clipitem>
					<clipitem frameBlend="FALSE" id="audioclip-1275">
						<file id="file-1"/>
						<name>bandicam 2025-06-02 00-01-10-144 - Audio</name>
						<rate>
							<timebase>60</timebase>
							<ntsc>TRUE</ntsc>
						</rate>
						<rate>
							<timebase>60</timebase>
							<ntsc>TRUE</ntsc>
						</rate>
						<duration>66</duration>
						<start>25782</start>
						<end>25848</end>
						<in>4218</in>
						<out>4284</out>
					</clipitem>
					<clipitem frameBlend="FALSE" id="audioclip-1276">
						<file id="file-1"/>
						<name>bandicam 2025-06-02 00-01-10-144 - Audio</name>
						<rate>
							<timebase>60</timebase>
							<ntsc>TRUE</ntsc>
						</rate>
						<rate>
							<timebase>60</timebase>
							<ntsc>TRUE</ntsc>
						</rate>
						<duration>132</duration>
						<start>25848</start>
						<end>25980</end>
						<in>4302</in>
						<out>4434</out>
					</clipitem>
					<clipitem frameBlend="FALSE" id="audioclip-1277">
						<file id="file-1"/>
						<name>bandicam 2025-06-02 00-01-10-144 - Audio</name>
						<rate>
							<timebase>60</timebase>
							<ntsc>TRUE</ntsc>
						</rate>
						<rate>
							<timebase>60</timebase>
							<ntsc>TRUE</ntsc>
						</rate>
						<duration>12</duration>
						<start>25980</start>
						<end>25992</end>
						<in>4470</in>
						<out>4482</out>
					</clipitem>
					<clipitem frameBlend="FALSE" id="audioclip-1278">
						<file id="file-1"/>
						<name>bandicam 2025-06-02 00-01-10-144 - Audio</name>
						<rate>
							<timebase>60</timebase>
							<ntsc>TRUE</ntsc>
						</rate>
						<rate>
							<timebase>60</timebase>
							<ntsc>TRUE</ntsc>
						</rate>
						<duration>48</duration>
						<start>25992</start>
						<end>26040</end>
						<in>4506</in>
						<out>4554</out>
					</clipitem>
					<clipitem frameBlend="FALSE" id="audioclip-1279">
						<file id="file-1"/>
						<name>bandicam 2025-06-02 00-01-10-144 - Audio</name>
						<rate>
							<timebase>60</timebase>
							<ntsc>TRUE</ntsc>
						</rate>
						<rate>
							<timebase>60</timebase>
							<ntsc>TRUE</ntsc>
						</rate>
						<duration>30</duration>
						<start>26040</start>
						<end>26070</end>
						<in>4602</in>
						<out>4632</out>
					</clipitem>
					<clipitem frameBlend="FALSE" id="audioclip-1280">
						<file id="file-1"/>
						<name>bandicam 2025-06-02 00-01-10-144 - Audio</name>
						<rate>
							<timebase>60</timebase>
							<ntsc>TRUE</ntsc>
						</rate>
						<rate>
							<timebase>60</timebase>
							<ntsc>TRUE</ntsc>
						</rate>
						<duration>30</duration>
						<start>26070</start>
						<end>26100</end>
						<in>4650</in>
						<out>4680</out>
					</clipitem>
					<clipitem frameBlend="FALSE" id="audioclip-1281">
						<file id="file-1"/>
						<name>bandicam 2025-06-02 00-01-10-144 - Audio</name>
						<rate>
							<timebase>60</timebase>
							<ntsc>TRUE</ntsc>
						</rate>
						<rate>
							<timebase>60</timebase>
							<ntsc>TRUE</ntsc>
						</rate>
						<duration>0</duration>
						<start>26100</start>
						<end>26100</end>
						<in>4704</in>
						<out>4704</out>
					</clipitem>
					<clipitem frameBlend="FALSE" id="audioclip-1282">
						<file id="file-1"/>
						<name>bandicam 2025-06-02 00-01-10-144 - Audio</name>
						<rate>
							<timebase>60</timebase>
							<ntsc>TRUE</ntsc>
						</rate>
						<rate>
							<timebase>60</timebase>
							<ntsc>TRUE</ntsc>
						</rate>
						<duration>96</duration>
						<start>26100</start>
						<end>26196</end>
						<in>4722</in>
						<out>4818</out>
					</clipitem>
					<clipitem frameBlend="FALSE" id="audioclip-1283">
						<file id="file-1"/>
						<name>bandicam 2025-06-02 00-01-10-144 - Audio</name>
						<rate>
							<timebase>60</timebase>
							<ntsc>TRUE</ntsc>
						</rate>
						<rate>
							<timebase>60</timebase>
							<ntsc>TRUE</ntsc>
						</rate>
						<duration>0</duration>
						<start>26196</start>
						<end>26196</end>
						<in>4848</in>
						<out>4848</out>
					</clipitem>
					<clipitem frameBlend="FALSE" id="audioclip-1284">
						<file id="file-1"/>
						<name>bandicam 2025-06-02 00-01-10-144 - Audio</name>
						<rate>
							<timebase>60</timebase>
							<ntsc>TRUE</ntsc>
						</rate>
						<rate>
							<timebase>60</timebase>
							<ntsc>TRUE</ntsc>
						</rate>
						<duration>12</duration>
						<start>26196</start>
						<end>26208</end>
						<in>4860</in>
						<out>4872</out>
					</clipitem>
					<clipitem frameBlend="FALSE" id="audioclip-1285">
						<file id="file-1"/>
						<name>bandicam 2025-06-02 00-01-10-144 - Audio</name>
						<rate>
							<timebase>60</timebase>
							<ntsc>TRUE</ntsc>
						</rate>
						<rate>
							<timebase>60</timebase>
							<ntsc>TRUE</ntsc>
						</rate>
						<duration>6</duration>
						<start>26208</start>
						<end>26214</end>
						<in>4890</in>
						<out>4896</out>
					</clipitem>
					<clipitem frameBlend="FALSE" id="audioclip-1286">
						<file id="file-1"/>
						<name>bandicam 2025-06-02 00-01-10-144 - Audio</name>
						<rate>
							<timebase>60</timebase>
							<ntsc>TRUE</ntsc>
						</rate>
						<rate>
							<timebase>60</timebase>
							<ntsc>TRUE</ntsc>
						</rate>
						<duration>24</duration>
						<start>26214</start>
						<end>26238</end>
						<in>4908</in>
						<out>4932</out>
					</clipitem>
					<clipitem frameBlend="FALSE" id="audioclip-1287">
						<file id="file-1"/>
						<name>bandicam 2025-06-02 00-01-10-144 - Audio</name>
						<rate>
							<timebase>60</timebase>
							<ntsc>TRUE</ntsc>
						</rate>
						<rate>
							<timebase>60</timebase>
							<ntsc>TRUE</ntsc>
						</rate>
						<duration>30</duration>
						<start>26238</start>
						<end>26268</end>
						<in>4944</in>
						<out>4974</out>
					</clipitem>
					<clipitem frameBlend="FALSE" id="audioclip-1288">
						<file id="file-1"/>
						<name>bandicam 2025-06-02 00-01-10-144 - Audio</name>
						<rate>
							<timebase>60</timebase>
							<ntsc>TRUE</ntsc>
						</rate>
						<rate>
							<timebase>60</timebase>
							<ntsc>TRUE</ntsc>
						</rate>
						<duration>30</duration>
						<start>26268</start>
						<end>26298</end>
						<in>5016</in>
						<out>5046</out>
					</clipitem>
					<clipitem frameBlend="FALSE" id="audioclip-1289">
						<file id="file-1"/>
						<name>bandicam 2025-06-02 00-01-10-144 - Audio</name>
						<rate>
							<timebase>60</timebase>
							<ntsc>TRUE</ntsc>
						</rate>
						<rate>
							<timebase>60</timebase>
							<ntsc>TRUE</ntsc>
						</rate>
						<duration>6</duration>
						<start>26298</start>
						<end>26304</end>
						<in>5064</in>
						<out>5070</out>
					</clipitem>
					<clipitem frameBlend="FALSE" id="audioclip-1290">
						<file id="file-1"/>
						<name>bandicam 2025-06-02 00-01-10-144 - Audio</name>
						<rate>
							<timebase>60</timebase>
							<ntsc>TRUE</ntsc>
						</rate>
						<rate>
							<timebase>60</timebase>
							<ntsc>TRUE</ntsc>
						</rate>
						<duration>96</duration>
						<start>26304</start>
						<end>26400</end>
						<in>5082</in>
						<out>5178</out>
					</clipitem>
					<clipitem frameBlend="FALSE" id="audioclip-1291">
						<file id="file-1"/>
						<name>bandicam 2025-06-02 00-01-10-144 - Audio</name>
						<rate>
							<timebase>60</timebase>
							<ntsc>TRUE</ntsc>
						</rate>
						<rate>
							<timebase>60</timebase>
							<ntsc>TRUE</ntsc>
						</rate>
						<duration>6</duration>
						<start>26400</start>
						<end>26406</end>
						<in>5208</in>
						<out>5214</out>
					</clipitem>
					<clipitem frameBlend="FALSE" id="audioclip-1292">
						<file id="file-1"/>
						<name>bandicam 2025-06-02 00-01-10-144 - Audio</name>
						<rate>
							<timebase>60</timebase>
							<ntsc>TRUE</ntsc>
						</rate>
						<rate>
							<timebase>60</timebase>
							<ntsc>TRUE</ntsc>
						</rate>
						<duration>30</duration>
						<start>26406</start>
						<end>26436</end>
						<in>5232</in>
						<out>5262</out>
					</clipitem>
					<clipitem frameBlend="FALSE" id="audioclip-1293">
						<file id="file-1"/>
						<name>bandicam 2025-06-02 00-01-10-144 - Audio</name>
						<rate>
							<timebase>60</timebase>
							<ntsc>TRUE</ntsc>
						</rate>
						<rate>
							<timebase>60</timebase>
							<ntsc>TRUE</ntsc>
						</rate>
						<duration>36</duration>
						<start>26436</start>
						<end>26472</end>
						<in>5328</in>
						<out>5364</out>
					</clipitem>
					<clipitem frameBlend="FALSE" id="audioclip-1294">
						<file id="file-1"/>
						<name>bandicam 2025-06-02 00-01-10-144 - Audio</name>
						<rate>
							<timebase>60</timebase>
							<ntsc>TRUE</ntsc>
						</rate>
						<rate>
							<timebase>60</timebase>
							<ntsc>TRUE</ntsc>
						</rate>
						<duration>84</duration>
						<start>26472</start>
						<end>26556</end>
						<in>5382</in>
						<out>5466</out>
					</clipitem>
					<clipitem frameBlend="FALSE" id="audioclip-1295">
						<file id="file-1"/>
						<name>bandicam 2025-06-02 00-01-10-144 - Audio</name>
						<rate>
							<timebase>60</timebase>
							<ntsc>TRUE</ntsc>
						</rate>
						<rate>
							<timebase>60</timebase>
							<ntsc>TRUE</ntsc>
						</rate>
						<duration>30</duration>
						<start>26556</start>
						<end>26586</end>
						<in>5490</in>
						<out>5520</out>
					</clipitem>
					<clipitem frameBlend="FALSE" id="audioclip-1296">
						<file id="file-1"/>
						<name>bandicam 2025-06-02 00-01-10-144 - Audio</name>
						<rate>
							<timebase>60</timebase>
							<ntsc>TRUE</ntsc>
						</rate>
						<rate>
							<timebase>60</timebase>
							<ntsc>TRUE</ntsc>
						</rate>
						<duration>66</duration>
						<start>26586</start>
						<end>26652</end>
						<in>5532</in>
						<out>5598</out>
					</clipitem>
					<clipitem frameBlend="FALSE" id="audioclip-1297">
						<file id="file-1"/>
						<name>bandicam 2025-06-02 00-01-10-144 - Audio</name>
						<rate>
							<timebase>60</timebase>
							<ntsc>TRUE</ntsc>
						</rate>
						<rate>
							<timebase>60</timebase>
							<ntsc>TRUE</ntsc>
						</rate>
						<duration>24</duration>
						<start>26652</start>
						<end>26676</end>
						<in>5622</in>
						<out>5646</out>
					</clipitem>
					<clipitem frameBlend="FALSE" id="audioclip-1298">
						<file id="file-1"/>
						<name>bandicam 2025-06-02 00-01-10-144 - Audio</name>
						<rate>
							<timebase>60</timebase>
							<ntsc>TRUE</ntsc>
						</rate>
						<rate>
							<timebase>60</timebase>
							<ntsc>TRUE</ntsc>
						</rate>
						<duration>30</duration>
						<start>26676</start>
						<end>26706</end>
						<in>5664</in>
						<out>5694</out>
					</clipitem>
					<clipitem frameBlend="FALSE" id="audioclip-1299">
						<file id="file-1"/>
						<name>bandicam 2025-06-02 00-01-10-144 - Audio</name>
						<rate>
							<timebase>60</timebase>
							<ntsc>TRUE</ntsc>
						</rate>
						<rate>
							<timebase>60</timebase>
							<ntsc>TRUE</ntsc>
						</rate>
						<duration>66</duration>
						<start>26706</start>
						<end>26772</end>
						<in>5712</in>
						<out>5778</out>
					</clipitem>
					<clipitem frameBlend="FALSE" id="audioclip-1300">
						<file id="file-1"/>
						<name>bandicam 2025-06-02 00-01-10-144 - Audio</name>
						<rate>
							<timebase>60</timebase>
							<ntsc>TRUE</ntsc>
						</rate>
						<rate>
							<timebase>60</timebase>
							<ntsc>TRUE</ntsc>
						</rate>
						<duration>282</duration>
						<start>26772</start>
						<end>27054</end>
						<in>5802</in>
						<out>6084</out>
					</clipitem>
					<clipitem frameBlend="FALSE" id="audioclip-1301">
						<file id="file-1"/>
						<name>bandicam 2025-06-02 00-01-10-144 - Audio</name>
						<rate>
							<timebase>60</timebase>
							<ntsc>TRUE</ntsc>
						</rate>
						<rate>
							<timebase>60</timebase>
							<ntsc>TRUE</ntsc>
						</rate>
						<duration>0</duration>
						<start>27054</start>
						<end>27054</end>
						<in>6132</in>
						<out>6132</out>
					</clipitem>
					<clipitem frameBlend="FALSE" id="audioclip-1302">
						<file id="file-1"/>
						<name>bandicam 2025-06-02 00-01-10-144 - Audio</name>
						<rate>
							<timebase>60</timebase>
							<ntsc>TRUE</ntsc>
						</rate>
						<rate>
							<timebase>60</timebase>
							<ntsc>TRUE</ntsc>
						</rate>
						<duration>60</duration>
						<start>27054</start>
						<end>27114</end>
						<in>6150</in>
						<out>6210</out>
					</clipitem>
					<clipitem frameBlend="FALSE" id="audioclip-1303">
						<file id="file-1"/>
						<name>bandicam 2025-06-02 00-01-10-144 - Audio</name>
						<rate>
							<timebase>60</timebase>
							<ntsc>TRUE</ntsc>
						</rate>
						<rate>
							<timebase>60</timebase>
							<ntsc>TRUE</ntsc>
						</rate>
						<duration>36</duration>
						<start>27114</start>
						<end>27150</end>
						<in>6222</in>
						<out>6258</out>
					</clipitem>
					<clipitem frameBlend="FALSE" id="audioclip-1304">
						<file id="file-1"/>
						<name>bandicam 2025-06-02 00-01-10-144 - Audio</name>
						<rate>
							<timebase>60</timebase>
							<ntsc>TRUE</ntsc>
						</rate>
						<rate>
							<timebase>60</timebase>
							<ntsc>TRUE</ntsc>
						</rate>
						<duration>0</duration>
						<start>27150</start>
						<end>27150</end>
						<in>6282</in>
						<out>6282</out>
					</clipitem>
					<clipitem frameBlend="FALSE" id="audioclip-1305">
						<file id="file-1"/>
						<name>bandicam 2025-06-02 00-01-10-144 - Audio</name>
						<rate>
							<timebase>60</timebase>
							<ntsc>TRUE</ntsc>
						</rate>
						<rate>
							<timebase>60</timebase>
							<ntsc>TRUE</ntsc>
						</rate>
						<duration>0</duration>
						<start>27150</start>
						<end>27150</end>
						<in>6300</in>
						<out>6300</out>
					</clipitem>
					<clipitem frameBlend="FALSE" id="audioclip-1306">
						<file id="file-1"/>
						<name>bandicam 2025-06-02 00-01-10-144 - Audio</name>
						<rate>
							<timebase>60</timebase>
							<ntsc>TRUE</ntsc>
						</rate>
						<rate>
							<timebase>60</timebase>
							<ntsc>TRUE</ntsc>
						</rate>
						<duration>30</duration>
						<start>27150</start>
						<end>27180</end>
						<in>6312</in>
						<out>6342</out>
					</clipitem>
					<clipitem frameBlend="FALSE" id="audioclip-1307">
						<file id="file-1"/>
						<name>bandicam 2025-06-02 00-01-10-144 - Audio</name>
						<rate>
							<timebase>60</timebase>
							<ntsc>TRUE</ntsc>
						</rate>
						<rate>
							<timebase>60</timebase>
							<ntsc>TRUE</ntsc>
						</rate>
						<duration>30</duration>
						<start>27180</start>
						<end>27210</end>
						<in>6384</in>
						<out>6414</out>
					</clipitem>
					<clipitem frameBlend="FALSE" id="audioclip-1308">
						<file id="file-1"/>
						<name>bandicam 2025-06-02 00-01-10-144 - Audio</name>
						<rate>
							<timebase>60</timebase>
							<ntsc>TRUE</ntsc>
						</rate>
						<rate>
							<timebase>60</timebase>
							<ntsc>TRUE</ntsc>
						</rate>
						<duration>24</duration>
						<start>27210</start>
						<end>27234</end>
						<in>6432</in>
						<out>6456</out>
					</clipitem>
					<clipitem frameBlend="FALSE" id="audioclip-1309">
						<file id="file-1"/>
						<name>bandicam 2025-06-02 00-01-10-144 - Audio</name>
						<rate>
							<timebase>60</timebase>
							<ntsc>TRUE</ntsc>
						</rate>
						<rate>
							<timebase>60</timebase>
							<ntsc>TRUE</ntsc>
						</rate>
						<duration>120</duration>
						<start>27234</start>
						<end>27354</end>
						<in>6468</in>
						<out>6588</out>
					</clipitem>
					<clipitem frameBlend="FALSE" id="audioclip-1310">
						<file id="file-1"/>
						<name>bandicam 2025-06-02 00-01-10-144 - Audio</name>
						<rate>
							<timebase>60</timebase>
							<ntsc>TRUE</ntsc>
						</rate>
						<rate>
							<timebase>60</timebase>
							<ntsc>TRUE</ntsc>
						</rate>
						<duration>30</duration>
						<start>27354</start>
						<end>27384</end>
						<in>6612</in>
						<out>6642</out>
					</clipitem>
					<clipitem frameBlend="FALSE" id="audioclip-1311">
						<file id="file-1"/>
						<name>bandicam 2025-06-02 00-01-10-144 - Audio</name>
						<rate>
							<timebase>60</timebase>
							<ntsc>TRUE</ntsc>
						</rate>
						<rate>
							<timebase>60</timebase>
							<ntsc>TRUE</ntsc>
						</rate>
						<duration>0</duration>
						<start>27384</start>
						<end>27384</end>
						<in>6714</in>
						<out>6714</out>
					</clipitem>
					<clipitem frameBlend="FALSE" id="audioclip-1312">
						<file id="file-1"/>
						<name>bandicam 2025-06-02 00-01-10-144 - Audio</name>
						<rate>
							<timebase>60</timebase>
							<ntsc>TRUE</ntsc>
						</rate>
						<rate>
							<timebase>60</timebase>
							<ntsc>TRUE</ntsc>
						</rate>
						<duration>0</duration>
						<start>27384</start>
						<end>27384</end>
						<in>6732</in>
						<out>6732</out>
					</clipitem>
					<clipitem frameBlend="FALSE" id="audioclip-1313">
						<file id="file-1"/>
						<name>bandicam 2025-06-02 00-01-10-144 - Audio</name>
						<rate>
							<timebase>60</timebase>
							<ntsc>TRUE</ntsc>
						</rate>
						<rate>
							<timebase>60</timebase>
							<ntsc>TRUE</ntsc>
						</rate>
						<duration>18</duration>
						<start>27384</start>
						<end>27402</end>
						<in>6750</in>
						<out>6768</out>
					</clipitem>
					<clipitem frameBlend="FALSE" id="audioclip-1314">
						<file id="file-1"/>
						<name>bandicam 2025-06-02 00-01-10-144 - Audio</name>
						<rate>
							<timebase>60</timebase>
							<ntsc>TRUE</ntsc>
						</rate>
						<rate>
							<timebase>60</timebase>
							<ntsc>TRUE</ntsc>
						</rate>
						<duration>60</duration>
						<start>27402</start>
						<end>27462</end>
						<in>6798</in>
						<out>6858</out>
					</clipitem>
					<clipitem frameBlend="FALSE" id="audioclip-1315">
						<file id="file-1"/>
						<name>bandicam 2025-06-02 00-01-10-144 - Audio</name>
						<rate>
							<timebase>60</timebase>
							<ntsc>TRUE</ntsc>
						</rate>
						<rate>
							<timebase>60</timebase>
							<ntsc>TRUE</ntsc>
						</rate>
						<duration>6</duration>
						<start>27462</start>
						<end>27468</end>
						<in>6894</in>
						<out>6900</out>
					</clipitem>
					<clipitem frameBlend="FALSE" id="audioclip-1316">
						<file id="file-1"/>
						<name>bandicam 2025-06-02 00-01-10-144 - Audio</name>
						<rate>
							<timebase>60</timebase>
							<ntsc>TRUE</ntsc>
						</rate>
						<rate>
							<timebase>60</timebase>
							<ntsc>TRUE</ntsc>
						</rate>
						<duration>30</duration>
						<start>27468</start>
						<end>27498</end>
						<in>6912</in>
						<out>6942</out>
					</clipitem>
					<clipitem frameBlend="FALSE" id="audioclip-1317">
						<file id="file-1"/>
						<name>bandicam 2025-06-02 00-01-10-144 - Audio</name>
						<rate>
							<timebase>60</timebase>
							<ntsc>TRUE</ntsc>
						</rate>
						<rate>
							<timebase>60</timebase>
							<ntsc>TRUE</ntsc>
						</rate>
						<duration>0</duration>
						<start>27498</start>
						<end>27498</end>
						<in>6954</in>
						<out>6954</out>
					</clipitem>
					<clipitem frameBlend="FALSE" id="audioclip-1318">
						<file id="file-1"/>
						<name>bandicam 2025-06-02 00-01-10-144 - Audio</name>
						<rate>
							<timebase>60</timebase>
							<ntsc>TRUE</ntsc>
						</rate>
						<rate>
							<timebase>60</timebase>
							<ntsc>TRUE</ntsc>
						</rate>
						<duration>6</duration>
						<start>27498</start>
						<end>27504</end>
						<in>7002</in>
						<out>7008</out>
					</clipitem>
					<clipitem frameBlend="FALSE" id="audioclip-1319">
						<file id="file-1"/>
						<name>bandicam 2025-06-02 00-01-10-144 - Audio</name>
						<rate>
							<timebase>60</timebase>
							<ntsc>TRUE</ntsc>
						</rate>
						<rate>
							<timebase>60</timebase>
							<ntsc>TRUE</ntsc>
						</rate>
						<duration>30</duration>
						<start>27504</start>
						<end>27534</end>
						<in>7020</in>
						<out>7050</out>
					</clipitem>
					<clipitem frameBlend="FALSE" id="audioclip-1320">
						<file id="file-1"/>
						<name>bandicam 2025-06-02 00-01-10-144 - Audio</name>
						<rate>
							<timebase>60</timebase>
							<ntsc>TRUE</ntsc>
						</rate>
						<rate>
							<timebase>60</timebase>
							<ntsc>TRUE</ntsc>
						</rate>
						<duration>12</duration>
						<start>27534</start>
						<end>27546</end>
						<in>12</in>
						<out>24</out>
					</clipitem>
					<clipitem frameBlend="FALSE" id="audioclip-1321">
						<file id="file-1"/>
						<name>bandicam 2025-06-02 00-01-10-144 - Audio</name>
						<rate>
							<timebase>60</timebase>
							<ntsc>TRUE</ntsc>
						</rate>
						<rate>
							<timebase>60</timebase>
							<ntsc>TRUE</ntsc>
						</rate>
						<duration>36</duration>
						<start>27546</start>
						<end>27582</end>
						<in>54</in>
						<out>90</out>
					</clipitem>
					<clipitem frameBlend="FALSE" id="audioclip-1322">
						<file id="file-1"/>
						<name>bandicam 2025-06-02 00-01-10-144 - Audio</name>
						<rate>
							<timebase>60</timebase>
							<ntsc>TRUE</ntsc>
						</rate>
						<rate>
							<timebase>60</timebase>
							<ntsc>TRUE</ntsc>
						</rate>
						<duration>18</duration>
						<start>27582</start>
						<end>27600</end>
						<in>108</in>
						<out>126</out>
					</clipitem>
					<clipitem frameBlend="FALSE" id="audioclip-1323">
						<file id="file-1"/>
						<name>bandicam 2025-06-02 00-01-10-144 - Audio</name>
						<rate>
							<timebase>60</timebase>
							<ntsc>TRUE</ntsc>
						</rate>
						<rate>
							<timebase>60</timebase>
							<ntsc>TRUE</ntsc>
						</rate>
						<duration>12</duration>
						<start>27600</start>
						<end>27612</end>
						<in>174</in>
						<out>186</out>
					</clipitem>
					<clipitem frameBlend="FALSE" id="audioclip-1324">
						<file id="file-1"/>
						<name>bandicam 2025-06-02 00-01-10-144 - Audio</name>
						<rate>
							<timebase>60</timebase>
							<ntsc>TRUE</ntsc>
						</rate>
						<rate>
							<timebase>60</timebase>
							<ntsc>TRUE</ntsc>
						</rate>
						<duration>0</duration>
						<start>27612</start>
						<end>27612</end>
						<in>300</in>
						<out>300</out>
					</clipitem>
					<clipitem frameBlend="FALSE" id="audioclip-1325">
						<file id="file-1"/>
						<name>bandicam 2025-06-02 00-01-10-144 - Audio</name>
						<rate>
							<timebase>60</timebase>
							<ntsc>TRUE</ntsc>
						</rate>
						<rate>
							<timebase>60</timebase>
							<ntsc>TRUE</ntsc>
						</rate>
						<duration>18</duration>
						<start>27612</start>
						<end>27630</end>
						<in>360</in>
						<out>378</out>
					</clipitem>
					<clipitem frameBlend="FALSE" id="audioclip-1326">
						<file id="file-1"/>
						<name>bandicam 2025-06-02 00-01-10-144 - Audio</name>
						<rate>
							<timebase>60</timebase>
							<ntsc>TRUE</ntsc>
						</rate>
						<rate>
							<timebase>60</timebase>
							<ntsc>TRUE</ntsc>
						</rate>
						<duration>0</duration>
						<start>27630</start>
						<end>27630</end>
						<in>438</in>
						<out>438</out>
					</clipitem>
					<clipitem frameBlend="FALSE" id="audioclip-1327">
						<file id="file-1"/>
						<name>bandicam 2025-06-02 00-01-10-144 - Audio</name>
						<rate>
							<timebase>60</timebase>
							<ntsc>TRUE</ntsc>
						</rate>
						<rate>
							<timebase>60</timebase>
							<ntsc>TRUE</ntsc>
						</rate>
						<duration>36</duration>
						<start>27630</start>
						<end>27666</end>
						<in>450</in>
						<out>486</out>
					</clipitem>
					<clipitem frameBlend="FALSE" id="audioclip-1328">
						<file id="file-1"/>
						<name>bandicam 2025-06-02 00-01-10-144 - Audio</name>
						<rate>
							<timebase>60</timebase>
							<ntsc>TRUE</ntsc>
						</rate>
						<rate>
							<timebase>60</timebase>
							<ntsc>TRUE</ntsc>
						</rate>
						<duration>0</duration>
						<start>27666</start>
						<end>27666</end>
						<in>504</in>
						<out>504</out>
					</clipitem>
					<clipitem frameBlend="FALSE" id="audioclip-1329">
						<file id="file-1"/>
						<name>bandicam 2025-06-02 00-01-10-144 - Audio</name>
						<rate>
							<timebase>60</timebase>
							<ntsc>TRUE</ntsc>
						</rate>
						<rate>
							<timebase>60</timebase>
							<ntsc>TRUE</ntsc>
						</rate>
						<duration>12</duration>
						<start>27666</start>
						<end>27678</end>
						<in>528</in>
						<out>540</out>
					</clipitem>
					<clipitem frameBlend="FALSE" id="audioclip-1330">
						<file id="file-1"/>
						<name>bandicam 2025-06-02 00-01-10-144 - Audio</name>
						<rate>
							<timebase>60</timebase>
							<ntsc>TRUE</ntsc>
						</rate>
						<rate>
							<timebase>60</timebase>
							<ntsc>TRUE</ntsc>
						</rate>
						<duration>24</duration>
						<start>27678</start>
						<end>27702</end>
						<in>582</in>
						<out>606</out>
					</clipitem>
					<clipitem frameBlend="FALSE" id="audioclip-1331">
						<file id="file-1"/>
						<name>bandicam 2025-06-02 00-01-10-144 - Audio</name>
						<rate>
							<timebase>60</timebase>
							<ntsc>TRUE</ntsc>
						</rate>
						<rate>
							<timebase>60</timebase>
							<ntsc>TRUE</ntsc>
						</rate>
						<duration>12</duration>
						<start>27702</start>
						<end>27714</end>
						<in>624</in>
						<out>636</out>
					</clipitem>
					<clipitem frameBlend="FALSE" id="audioclip-1332">
						<file id="file-1"/>
						<name>bandicam 2025-06-02 00-01-10-144 - Audio</name>
						<rate>
							<timebase>60</timebase>
							<ntsc>TRUE</ntsc>
						</rate>
						<rate>
							<timebase>60</timebase>
							<ntsc>TRUE</ntsc>
						</rate>
						<duration>0</duration>
						<start>27714</start>
						<end>27714</end>
						<in>852</in>
						<out>852</out>
					</clipitem>
					<clipitem frameBlend="FALSE" id="audioclip-1333">
						<file id="file-1"/>
						<name>bandicam 2025-06-02 00-01-10-144 - Audio</name>
						<rate>
							<timebase>60</timebase>
							<ntsc>TRUE</ntsc>
						</rate>
						<rate>
							<timebase>60</timebase>
							<ntsc>TRUE</ntsc>
						</rate>
						<duration>0</duration>
						<start>27714</start>
						<end>27714</end>
						<in>912</in>
						<out>912</out>
					</clipitem>
					<clipitem frameBlend="FALSE" id="audioclip-1334">
						<file id="file-1"/>
						<name>bandicam 2025-06-02 00-01-10-144 - Audio</name>
						<rate>
							<timebase>60</timebase>
							<ntsc>TRUE</ntsc>
						</rate>
						<rate>
							<timebase>60</timebase>
							<ntsc>TRUE</ntsc>
						</rate>
						<duration>0</duration>
						<start>27714</start>
						<end>27714</end>
						<in>936</in>
						<out>936</out>
					</clipitem>
					<clipitem frameBlend="FALSE" id="audioclip-1335">
						<file id="file-1"/>
						<name>bandicam 2025-06-02 00-01-10-144 - Audio</name>
						<rate>
							<timebase>60</timebase>
							<ntsc>TRUE</ntsc>
						</rate>
						<rate>
							<timebase>60</timebase>
							<ntsc>TRUE</ntsc>
						</rate>
						<duration>0</duration>
						<start>27714</start>
						<end>27714</end>
						<in>954</in>
						<out>954</out>
					</clipitem>
					<clipitem frameBlend="FALSE" id="audioclip-1336">
						<file id="file-1"/>
						<name>bandicam 2025-06-02 00-01-10-144 - Audio</name>
						<rate>
							<timebase>60</timebase>
							<ntsc>TRUE</ntsc>
						</rate>
						<rate>
							<timebase>60</timebase>
							<ntsc>TRUE</ntsc>
						</rate>
						<duration>12</duration>
						<start>27714</start>
						<end>27726</end>
						<in>984</in>
						<out>996</out>
					</clipitem>
					<clipitem frameBlend="FALSE" id="audioclip-1337">
						<file id="file-1"/>
						<name>bandicam 2025-06-02 00-01-10-144 - Audio</name>
						<rate>
							<timebase>60</timebase>
							<ntsc>TRUE</ntsc>
						</rate>
						<rate>
							<timebase>60</timebase>
							<ntsc>TRUE</ntsc>
						</rate>
						<duration>12</duration>
						<start>27726</start>
						<end>27738</end>
						<in>1086</in>
						<out>1098</out>
					</clipitem>
					<clipitem frameBlend="FALSE" id="audioclip-1338">
						<file id="file-1"/>
						<name>bandicam 2025-06-02 00-01-10-144 - Audio</name>
						<rate>
							<timebase>60</timebase>
							<ntsc>TRUE</ntsc>
						</rate>
						<rate>
							<timebase>60</timebase>
							<ntsc>TRUE</ntsc>
						</rate>
						<duration>0</duration>
						<start>27738</start>
						<end>27738</end>
						<in>1194</in>
						<out>1194</out>
					</clipitem>
					<clipitem frameBlend="FALSE" id="audioclip-1339">
						<file id="file-1"/>
						<name>bandicam 2025-06-02 00-01-10-144 - Audio</name>
						<rate>
							<timebase>60</timebase>
							<ntsc>TRUE</ntsc>
						</rate>
						<rate>
							<timebase>60</timebase>
							<ntsc>TRUE</ntsc>
						</rate>
						<duration>18</duration>
						<start>27738</start>
						<end>27756</end>
						<in>1206</in>
						<out>1224</out>
					</clipitem>
					<clipitem frameBlend="FALSE" id="audioclip-1340">
						<file id="file-1"/>
						<name>bandicam 2025-06-02 00-01-10-144 - Audio</name>
						<rate>
							<timebase>60</timebase>
							<ntsc>TRUE</ntsc>
						</rate>
						<rate>
							<timebase>60</timebase>
							<ntsc>TRUE</ntsc>
						</rate>
						<duration>0</duration>
						<start>27756</start>
						<end>27756</end>
						<in>1320</in>
						<out>1320</out>
					</clipitem>
					<clipitem frameBlend="FALSE" id="audioclip-1341">
						<file id="file-1"/>
						<name>bandicam 2025-06-02 00-01-10-144 - Audio</name>
						<rate>
							<timebase>60</timebase>
							<ntsc>TRUE</ntsc>
						</rate>
						<rate>
							<timebase>60</timebase>
							<ntsc>TRUE</ntsc>
						</rate>
						<duration>0</duration>
						<start>27756</start>
						<end>27756</end>
						<in>1386</in>
						<out>1386</out>
					</clipitem>
					<clipitem frameBlend="FALSE" id="audioclip-1342">
						<file id="file-1"/>
						<name>bandicam 2025-06-02 00-01-10-144 - Audio</name>
						<rate>
							<timebase>60</timebase>
							<ntsc>TRUE</ntsc>
						</rate>
						<rate>
							<timebase>60</timebase>
							<ntsc>TRUE</ntsc>
						</rate>
						<duration>18</duration>
						<start>27756</start>
						<end>27774</end>
						<in>1404</in>
						<out>1422</out>
					</clipitem>
					<clipitem frameBlend="FALSE" id="audioclip-1343">
						<file id="file-1"/>
						<name>bandicam 2025-06-02 00-01-10-144 - Audio</name>
						<rate>
							<timebase>60</timebase>
							<ntsc>TRUE</ntsc>
						</rate>
						<rate>
							<timebase>60</timebase>
							<ntsc>TRUE</ntsc>
						</rate>
						<duration>12</duration>
						<start>27774</start>
						<end>27786</end>
						<in>1446</in>
						<out>1458</out>
					</clipitem>
					<clipitem frameBlend="FALSE" id="audioclip-1344">
						<file id="file-1"/>
						<name>bandicam 2025-06-02 00-01-10-144 - Audio</name>
						<rate>
							<timebase>60</timebase>
							<ntsc>TRUE</ntsc>
						</rate>
						<rate>
							<timebase>60</timebase>
							<ntsc>TRUE</ntsc>
						</rate>
						<duration>12</duration>
						<start>27786</start>
						<end>27798</end>
						<in>1566</in>
						<out>1578</out>
					</clipitem>
					<clipitem frameBlend="FALSE" id="audioclip-1345">
						<file id="file-1"/>
						<name>bandicam 2025-06-02 00-01-10-144 - Audio</name>
						<rate>
							<timebase>60</timebase>
							<ntsc>TRUE</ntsc>
						</rate>
						<rate>
							<timebase>60</timebase>
							<ntsc>TRUE</ntsc>
						</rate>
						<duration>30</duration>
						<start>27798</start>
						<end>27828</end>
						<in>1692</in>
						<out>1722</out>
					</clipitem>
					<clipitem frameBlend="FALSE" id="audioclip-1346">
						<file id="file-1"/>
						<name>bandicam 2025-06-02 00-01-10-144 - Audio</name>
						<rate>
							<timebase>60</timebase>
							<ntsc>TRUE</ntsc>
						</rate>
						<rate>
							<timebase>60</timebase>
							<ntsc>TRUE</ntsc>
						</rate>
						<duration>18</duration>
						<start>27828</start>
						<end>27846</end>
						<in>1746</in>
						<out>1764</out>
					</clipitem>
					<clipitem frameBlend="FALSE" id="audioclip-1347">
						<file id="file-1"/>
						<name>bandicam 2025-06-02 00-01-10-144 - Audio</name>
						<rate>
							<timebase>60</timebase>
							<ntsc>TRUE</ntsc>
						</rate>
						<rate>
							<timebase>60</timebase>
							<ntsc>TRUE</ntsc>
						</rate>
						<duration>0</duration>
						<start>27846</start>
						<end>27846</end>
						<in>1776</in>
						<out>1776</out>
					</clipitem>
					<clipitem frameBlend="FALSE" id="audioclip-1348">
						<file id="file-1"/>
						<name>bandicam 2025-06-02 00-01-10-144 - Audio</name>
						<rate>
							<timebase>60</timebase>
							<ntsc>TRUE</ntsc>
						</rate>
						<rate>
							<timebase>60</timebase>
							<ntsc>TRUE</ntsc>
						</rate>
						<duration>18</duration>
						<start>27846</start>
						<end>27864</end>
						<in>1812</in>
						<out>1830</out>
					</clipitem>
					<clipitem frameBlend="FALSE" id="audioclip-1349">
						<file id="file-1"/>
						<name>bandicam 2025-06-02 00-01-10-144 - Audio</name>
						<rate>
							<timebase>60</timebase>
							<ntsc>TRUE</ntsc>
						</rate>
						<rate>
							<timebase>60</timebase>
							<ntsc>TRUE</ntsc>
						</rate>
						<duration>12</duration>
						<start>27864</start>
						<end>27876</end>
						<in>1842</in>
						<out>1854</out>
					</clipitem>
					<clipitem frameBlend="FALSE" id="audioclip-1350">
						<file id="file-1"/>
						<name>bandicam 2025-06-02 00-01-10-144 - Audio</name>
						<rate>
							<timebase>60</timebase>
							<ntsc>TRUE</ntsc>
						</rate>
						<rate>
							<timebase>60</timebase>
							<ntsc>TRUE</ntsc>
						</rate>
						<duration>0</duration>
						<start>27876</start>
						<end>27876</end>
						<in>1872</in>
						<out>1872</out>
					</clipitem>
					<clipitem frameBlend="FALSE" id="audioclip-1351">
						<file id="file-1"/>
						<name>bandicam 2025-06-02 00-01-10-144 - Audio</name>
						<rate>
							<timebase>60</timebase>
							<ntsc>TRUE</ntsc>
						</rate>
						<rate>
							<timebase>60</timebase>
							<ntsc>TRUE</ntsc>
						</rate>
						<duration>6</duration>
						<start>27876</start>
						<end>27882</end>
						<in>1884</in>
						<out>1890</out>
					</clipitem>
					<clipitem frameBlend="FALSE" id="audioclip-1352">
						<file id="file-1"/>
						<name>bandicam 2025-06-02 00-01-10-144 - Audio</name>
						<rate>
							<timebase>60</timebase>
							<ntsc>TRUE</ntsc>
						</rate>
						<rate>
							<timebase>60</timebase>
							<ntsc>TRUE</ntsc>
						</rate>
						<duration>12</duration>
						<start>27882</start>
						<end>27894</end>
						<in>1926</in>
						<out>1938</out>
					</clipitem>
					<clipitem frameBlend="FALSE" id="audioclip-1353">
						<file id="file-1"/>
						<name>bandicam 2025-06-02 00-01-10-144 - Audio</name>
						<rate>
							<timebase>60</timebase>
							<ntsc>TRUE</ntsc>
						</rate>
						<rate>
							<timebase>60</timebase>
							<ntsc>TRUE</ntsc>
						</rate>
						<duration>12</duration>
						<start>27894</start>
						<end>27906</end>
						<in>2178</in>
						<out>2190</out>
					</clipitem>
					<clipitem frameBlend="FALSE" id="audioclip-1354">
						<file id="file-1"/>
						<name>bandicam 2025-06-02 00-01-10-144 - Audio</name>
						<rate>
							<timebase>60</timebase>
							<ntsc>TRUE</ntsc>
						</rate>
						<rate>
							<timebase>60</timebase>
							<ntsc>TRUE</ntsc>
						</rate>
						<duration>12</duration>
						<start>27906</start>
						<end>27918</end>
						<in>2280</in>
						<out>2292</out>
					</clipitem>
					<clipitem frameBlend="FALSE" id="audioclip-1355">
						<file id="file-1"/>
						<name>bandicam 2025-06-02 00-01-10-144 - Audio</name>
						<rate>
							<timebase>60</timebase>
							<ntsc>TRUE</ntsc>
						</rate>
						<rate>
							<timebase>60</timebase>
							<ntsc>TRUE</ntsc>
						</rate>
						<duration>42</duration>
						<start>27918</start>
						<end>27960</end>
						<in>2304</in>
						<out>2346</out>
					</clipitem>
					<clipitem frameBlend="FALSE" id="audioclip-1356">
						<file id="file-1"/>
						<name>bandicam 2025-06-02 00-01-10-144 - Audio</name>
						<rate>
							<timebase>60</timebase>
							<ntsc>TRUE</ntsc>
						</rate>
						<rate>
							<timebase>60</timebase>
							<ntsc>TRUE</ntsc>
						</rate>
						<duration>12</duration>
						<start>27960</start>
						<end>27972</end>
						<in>2448</in>
						<out>2460</out>
					</clipitem>
					<clipitem frameBlend="FALSE" id="audioclip-1357">
						<file id="file-1"/>
						<name>bandicam 2025-06-02 00-01-10-144 - Audio</name>
						<rate>
							<timebase>60</timebase>
							<ntsc>TRUE</ntsc>
						</rate>
						<rate>
							<timebase>60</timebase>
							<ntsc>TRUE</ntsc>
						</rate>
						<duration>6</duration>
						<start>27972</start>
						<end>27978</end>
						<in>2478</in>
						<out>2484</out>
					</clipitem>
					<clipitem frameBlend="FALSE" id="audioclip-1358">
						<file id="file-1"/>
						<name>bandicam 2025-06-02 00-01-10-144 - Audio</name>
						<rate>
							<timebase>60</timebase>
							<ntsc>TRUE</ntsc>
						</rate>
						<rate>
							<timebase>60</timebase>
							<ntsc>TRUE</ntsc>
						</rate>
						<duration>6</duration>
						<start>27978</start>
						<end>27984</end>
						<in>2496</in>
						<out>2502</out>
					</clipitem>
					<clipitem frameBlend="FALSE" id="audioclip-1359">
						<file id="file-1"/>
						<name>bandicam 2025-06-02 00-01-10-144 - Audio</name>
						<rate>
							<timebase>60</timebase>
							<ntsc>TRUE</ntsc>
						</rate>
						<rate>
							<timebase>60</timebase>
							<ntsc>TRUE</ntsc>
						</rate>
						<duration>12</duration>
						<start>27984</start>
						<end>27996</end>
						<in>2538</in>
						<out>2550</out>
					</clipitem>
					<clipitem frameBlend="FALSE" id="audioclip-1360">
						<file id="file-1"/>
						<name>bandicam 2025-06-02 00-01-10-144 - Audio</name>
						<rate>
							<timebase>60</timebase>
							<ntsc>TRUE</ntsc>
						</rate>
						<rate>
							<timebase>60</timebase>
							<ntsc>TRUE</ntsc>
						</rate>
						<duration>6</duration>
						<start>27996</start>
						<end>28002</end>
						<in>2562</in>
						<out>2568</out>
					</clipitem>
					<clipitem frameBlend="FALSE" id="audioclip-1361">
						<file id="file-1"/>
						<name>bandicam 2025-06-02 00-01-10-144 - Audio</name>
						<rate>
							<timebase>60</timebase>
							<ntsc>TRUE</ntsc>
						</rate>
						<rate>
							<timebase>60</timebase>
							<ntsc>TRUE</ntsc>
						</rate>
						<duration>36</duration>
						<start>28002</start>
						<end>28038</end>
						<in>2592</in>
						<out>2628</out>
					</clipitem>
					<clipitem frameBlend="FALSE" id="audioclip-1362">
						<file id="file-1"/>
						<name>bandicam 2025-06-02 00-01-10-144 - Audio</name>
						<rate>
							<timebase>60</timebase>
							<ntsc>TRUE</ntsc>
						</rate>
						<rate>
							<timebase>60</timebase>
							<ntsc>TRUE</ntsc>
						</rate>
						<duration>24</duration>
						<start>28038</start>
						<end>28062</end>
						<in>2640</in>
						<out>2664</out>
					</clipitem>
					<clipitem frameBlend="FALSE" id="audioclip-1363">
						<file id="file-1"/>
						<name>bandicam 2025-06-02 00-01-10-144 - Audio</name>
						<rate>
							<timebase>60</timebase>
							<ntsc>TRUE</ntsc>
						</rate>
						<rate>
							<timebase>60</timebase>
							<ntsc>TRUE</ntsc>
						</rate>
						<duration>114</duration>
						<start>28062</start>
						<end>28176</end>
						<in>2724</in>
						<out>2838</out>
					</clipitem>
					<clipitem frameBlend="FALSE" id="audioclip-1364">
						<file id="file-1"/>
						<name>bandicam 2025-06-02 00-01-10-144 - Audio</name>
						<rate>
							<timebase>60</timebase>
							<ntsc>TRUE</ntsc>
						</rate>
						<rate>
							<timebase>60</timebase>
							<ntsc>TRUE</ntsc>
						</rate>
						<duration>18</duration>
						<start>28176</start>
						<end>28194</end>
						<in>2868</in>
						<out>2886</out>
					</clipitem>
					<clipitem frameBlend="FALSE" id="audioclip-1365">
						<file id="file-1"/>
						<name>bandicam 2025-06-02 00-01-10-144 - Audio</name>
						<rate>
							<timebase>60</timebase>
							<ntsc>TRUE</ntsc>
						</rate>
						<rate>
							<timebase>60</timebase>
							<ntsc>TRUE</ntsc>
						</rate>
						<duration>6</duration>
						<start>28194</start>
						<end>28200</end>
						<in>2904</in>
						<out>2910</out>
					</clipitem>
					<clipitem frameBlend="FALSE" id="audioclip-1366">
						<file id="file-1"/>
						<name>bandicam 2025-06-02 00-01-10-144 - Audio</name>
						<rate>
							<timebase>60</timebase>
							<ntsc>TRUE</ntsc>
						</rate>
						<rate>
							<timebase>60</timebase>
							<ntsc>TRUE</ntsc>
						</rate>
						<duration>0</duration>
						<start>28200</start>
						<end>28200</end>
						<in>2946</in>
						<out>2946</out>
					</clipitem>
					<clipitem frameBlend="FALSE" id="audioclip-1367">
						<file id="file-1"/>
						<name>bandicam 2025-06-02 00-01-10-144 - Audio</name>
						<rate>
							<timebase>60</timebase>
							<ntsc>TRUE</ntsc>
						</rate>
						<rate>
							<timebase>60</timebase>
							<ntsc>TRUE</ntsc>
						</rate>
						<duration>12</duration>
						<start>28200</start>
						<end>28212</end>
						<in>2964</in>
						<out>2976</out>
					</clipitem>
					<clipitem frameBlend="FALSE" id="audioclip-1368">
						<file id="file-1"/>
						<name>bandicam 2025-06-02 00-01-10-144 - Audio</name>
						<rate>
							<timebase>60</timebase>
							<ntsc>TRUE</ntsc>
						</rate>
						<rate>
							<timebase>60</timebase>
							<ntsc>TRUE</ntsc>
						</rate>
						<duration>42</duration>
						<start>28212</start>
						<end>28254</end>
						<in>3060</in>
						<out>3102</out>
					</clipitem>
					<clipitem frameBlend="FALSE" id="audioclip-1369">
						<file id="file-1"/>
						<name>bandicam 2025-06-02 00-01-10-144 - Audio</name>
						<rate>
							<timebase>60</timebase>
							<ntsc>TRUE</ntsc>
						</rate>
						<rate>
							<timebase>60</timebase>
							<ntsc>TRUE</ntsc>
						</rate>
						<duration>18</duration>
						<start>28254</start>
						<end>28272</end>
						<in>3120</in>
						<out>3138</out>
					</clipitem>
					<clipitem frameBlend="FALSE" id="audioclip-1370">
						<file id="file-1"/>
						<name>bandicam 2025-06-02 00-01-10-144 - Audio</name>
						<rate>
							<timebase>60</timebase>
							<ntsc>TRUE</ntsc>
						</rate>
						<rate>
							<timebase>60</timebase>
							<ntsc>TRUE</ntsc>
						</rate>
						<duration>12</duration>
						<start>28272</start>
						<end>28284</end>
						<in>3228</in>
						<out>3240</out>
					</clipitem>
					<clipitem frameBlend="FALSE" id="audioclip-1371">
						<file id="file-1"/>
						<name>bandicam 2025-06-02 00-01-10-144 - Audio</name>
						<rate>
							<timebase>60</timebase>
							<ntsc>TRUE</ntsc>
						</rate>
						<rate>
							<timebase>60</timebase>
							<ntsc>TRUE</ntsc>
						</rate>
						<duration>24</duration>
						<start>28284</start>
						<end>28308</end>
						<in>3270</in>
						<out>3294</out>
					</clipitem>
					<clipitem frameBlend="FALSE" id="audioclip-1372">
						<file id="file-1"/>
						<name>bandicam 2025-06-02 00-01-10-144 - Audio</name>
						<rate>
							<timebase>60</timebase>
							<ntsc>TRUE</ntsc>
						</rate>
						<rate>
							<timebase>60</timebase>
							<ntsc>TRUE</ntsc>
						</rate>
						<duration>0</duration>
						<start>28308</start>
						<end>28308</end>
						<in>3306</in>
						<out>3306</out>
					</clipitem>
					<clipitem frameBlend="FALSE" id="audioclip-1373">
						<file id="file-1"/>
						<name>bandicam 2025-06-02 00-01-10-144 - Audio</name>
						<rate>
							<timebase>60</timebase>
							<ntsc>TRUE</ntsc>
						</rate>
						<rate>
							<timebase>60</timebase>
							<ntsc>TRUE</ntsc>
						</rate>
						<duration>12</duration>
						<start>28308</start>
						<end>28320</end>
						<in>3372</in>
						<out>3384</out>
					</clipitem>
					<clipitem frameBlend="FALSE" id="audioclip-1374">
						<file id="file-1"/>
						<name>bandicam 2025-06-02 00-01-10-144 - Audio</name>
						<rate>
							<timebase>60</timebase>
							<ntsc>TRUE</ntsc>
						</rate>
						<rate>
							<timebase>60</timebase>
							<ntsc>TRUE</ntsc>
						</rate>
						<duration>24</duration>
						<start>28320</start>
						<end>28344</end>
						<in>3450</in>
						<out>3474</out>
					</clipitem>
					<clipitem frameBlend="FALSE" id="audioclip-1375">
						<file id="file-1"/>
						<name>bandicam 2025-06-02 00-01-10-144 - Audio</name>
						<rate>
							<timebase>60</timebase>
							<ntsc>TRUE</ntsc>
						</rate>
						<rate>
							<timebase>60</timebase>
							<ntsc>TRUE</ntsc>
						</rate>
						<duration>12</duration>
						<start>28344</start>
						<end>28356</end>
						<in>3498</in>
						<out>3510</out>
					</clipitem>
					<clipitem frameBlend="FALSE" id="audioclip-1376">
						<file id="file-1"/>
						<name>bandicam 2025-06-02 00-01-10-144 - Audio</name>
						<rate>
							<timebase>60</timebase>
							<ntsc>TRUE</ntsc>
						</rate>
						<rate>
							<timebase>60</timebase>
							<ntsc>TRUE</ntsc>
						</rate>
						<duration>0</duration>
						<start>28356</start>
						<end>28356</end>
						<in>3582</in>
						<out>3582</out>
					</clipitem>
					<clipitem frameBlend="FALSE" id="audioclip-1377">
						<file id="file-1"/>
						<name>bandicam 2025-06-02 00-01-10-144 - Audio</name>
						<rate>
							<timebase>60</timebase>
							<ntsc>TRUE</ntsc>
						</rate>
						<rate>
							<timebase>60</timebase>
							<ntsc>TRUE</ntsc>
						</rate>
						<duration>18</duration>
						<start>28356</start>
						<end>28374</end>
						<in>3624</in>
						<out>3642</out>
					</clipitem>
					<clipitem frameBlend="FALSE" id="audioclip-1378">
						<file id="file-1"/>
						<name>bandicam 2025-06-02 00-01-10-144 - Audio</name>
						<rate>
							<timebase>60</timebase>
							<ntsc>TRUE</ntsc>
						</rate>
						<rate>
							<timebase>60</timebase>
							<ntsc>TRUE</ntsc>
						</rate>
						<duration>0</duration>
						<start>28374</start>
						<end>28374</end>
						<in>3696</in>
						<out>3696</out>
					</clipitem>
					<clipitem frameBlend="FALSE" id="audioclip-1379">
						<file id="file-1"/>
						<name>bandicam 2025-06-02 00-01-10-144 - Audio</name>
						<rate>
							<timebase>60</timebase>
							<ntsc>TRUE</ntsc>
						</rate>
						<rate>
							<timebase>60</timebase>
							<ntsc>TRUE</ntsc>
						</rate>
						<duration>12</duration>
						<start>28374</start>
						<end>28386</end>
						<in>3768</in>
						<out>3780</out>
					</clipitem>
					<clipitem frameBlend="FALSE" id="audioclip-1380">
						<file id="file-1"/>
						<name>bandicam 2025-06-02 00-01-10-144 - Audio</name>
						<rate>
							<timebase>60</timebase>
							<ntsc>TRUE</ntsc>
						</rate>
						<rate>
							<timebase>60</timebase>
							<ntsc>TRUE</ntsc>
						</rate>
						<duration>12</duration>
						<start>28386</start>
						<end>28398</end>
						<in>3852</in>
						<out>3864</out>
					</clipitem>
					<clipitem frameBlend="FALSE" id="audioclip-1381">
						<file id="file-1"/>
						<name>bandicam 2025-06-02 00-01-10-144 - Audio</name>
						<rate>
							<timebase>60</timebase>
							<ntsc>TRUE</ntsc>
						</rate>
						<rate>
							<timebase>60</timebase>
							<ntsc>TRUE</ntsc>
						</rate>
						<duration>12</duration>
						<start>28398</start>
						<end>28410</end>
						<in>3906</in>
						<out>3918</out>
					</clipitem>
					<clipitem frameBlend="FALSE" id="audioclip-1382">
						<file id="file-1"/>
						<name>bandicam 2025-06-02 00-01-10-144 - Audio</name>
						<rate>
							<timebase>60</timebase>
							<ntsc>TRUE</ntsc>
						</rate>
						<rate>
							<timebase>60</timebase>
							<ntsc>TRUE</ntsc>
						</rate>
						<duration>6</duration>
						<start>28410</start>
						<end>28416</end>
						<in>4026</in>
						<out>4032</out>
					</clipitem>
					<clipitem frameBlend="FALSE" id="audioclip-1383">
						<file id="file-1"/>
						<name>bandicam 2025-06-02 00-01-10-144 - Audio</name>
						<rate>
							<timebase>60</timebase>
							<ntsc>TRUE</ntsc>
						</rate>
						<rate>
							<timebase>60</timebase>
							<ntsc>TRUE</ntsc>
						</rate>
						<duration>0</duration>
						<start>28416</start>
						<end>28416</end>
						<in>4044</in>
						<out>4044</out>
					</clipitem>
					<clipitem frameBlend="FALSE" id="audioclip-1384">
						<file id="file-1"/>
						<name>bandicam 2025-06-02 00-01-10-144 - Audio</name>
						<rate>
							<timebase>60</timebase>
							<ntsc>TRUE</ntsc>
						</rate>
						<rate>
							<timebase>60</timebase>
							<ntsc>TRUE</ntsc>
						</rate>
						<duration>24</duration>
						<start>28416</start>
						<end>28440</end>
						<in>4086</in>
						<out>4110</out>
					</clipitem>
					<clipitem frameBlend="FALSE" id="audioclip-1385">
						<file id="file-1"/>
						<name>bandicam 2025-06-02 00-01-10-144 - Audio</name>
						<rate>
							<timebase>60</timebase>
							<ntsc>TRUE</ntsc>
						</rate>
						<rate>
							<timebase>60</timebase>
							<ntsc>TRUE</ntsc>
						</rate>
						<duration>24</duration>
						<start>28440</start>
						<end>28464</end>
						<in>4128</in>
						<out>4152</out>
					</clipitem>
					<clipitem frameBlend="FALSE" id="audioclip-1386">
						<file id="file-1"/>
						<name>bandicam 2025-06-02 00-01-10-144 - Audio</name>
						<rate>
							<timebase>60</timebase>
							<ntsc>TRUE</ntsc>
						</rate>
						<rate>
							<timebase>60</timebase>
							<ntsc>TRUE</ntsc>
						</rate>
						<duration>12</duration>
						<start>28464</start>
						<end>28476</end>
						<in>4188</in>
						<out>4200</out>
					</clipitem>
					<clipitem frameBlend="FALSE" id="audioclip-1387">
						<file id="file-1"/>
						<name>bandicam 2025-06-02 00-01-10-144 - Audio</name>
						<rate>
							<timebase>60</timebase>
							<ntsc>TRUE</ntsc>
						</rate>
						<rate>
							<timebase>60</timebase>
							<ntsc>TRUE</ntsc>
						</rate>
						<duration>36</duration>
						<start>28476</start>
						<end>28512</end>
						<in>4230</in>
						<out>4266</out>
					</clipitem>
					<clipitem frameBlend="FALSE" id="audioclip-1388">
						<file id="file-1"/>
						<name>bandicam 2025-06-02 00-01-10-144 - Audio</name>
						<rate>
							<timebase>60</timebase>
							<ntsc>TRUE</ntsc>
						</rate>
						<rate>
							<timebase>60</timebase>
							<ntsc>TRUE</ntsc>
						</rate>
						<duration>132</duration>
						<start>28512</start>
						<end>28644</end>
						<in>4302</in>
						<out>4434</out>
					</clipitem>
					<clipitem frameBlend="FALSE" id="audioclip-1389">
						<file id="file-1"/>
						<name>bandicam 2025-06-02 00-01-10-144 - Audio</name>
						<rate>
							<timebase>60</timebase>
							<ntsc>TRUE</ntsc>
						</rate>
						<rate>
							<timebase>60</timebase>
							<ntsc>TRUE</ntsc>
						</rate>
						<duration>12</duration>
						<start>28644</start>
						<end>28656</end>
						<in>4470</in>
						<out>4482</out>
					</clipitem>
					<clipitem frameBlend="FALSE" id="audioclip-1390">
						<file id="file-1"/>
						<name>bandicam 2025-06-02 00-01-10-144 - Audio</name>
						<rate>
							<timebase>60</timebase>
							<ntsc>TRUE</ntsc>
						</rate>
						<rate>
							<timebase>60</timebase>
							<ntsc>TRUE</ntsc>
						</rate>
						<duration>48</duration>
						<start>28656</start>
						<end>28704</end>
						<in>4506</in>
						<out>4554</out>
					</clipitem>
					<clipitem frameBlend="FALSE" id="audioclip-1391">
						<file id="file-1"/>
						<name>bandicam 2025-06-02 00-01-10-144 - Audio</name>
						<rate>
							<timebase>60</timebase>
							<ntsc>TRUE</ntsc>
						</rate>
						<rate>
							<timebase>60</timebase>
							<ntsc>TRUE</ntsc>
						</rate>
						<duration>30</duration>
						<start>28704</start>
						<end>28734</end>
						<in>4602</in>
						<out>4632</out>
					</clipitem>
					<clipitem frameBlend="FALSE" id="audioclip-1392">
						<file id="file-1"/>
						<name>bandicam 2025-06-02 00-01-10-144 - Audio</name>
						<rate>
							<timebase>60</timebase>
							<ntsc>TRUE</ntsc>
						</rate>
						<rate>
							<timebase>60</timebase>
							<ntsc>TRUE</ntsc>
						</rate>
						<duration>12</duration>
						<start>28734</start>
						<end>28746</end>
						<in>4650</in>
						<out>4662</out>
					</clipitem>
					<clipitem frameBlend="FALSE" id="audioclip-1393">
						<file id="file-1"/>
						<name>bandicam 2025-06-02 00-01-10-144 - Audio</name>
						<rate>
							<timebase>60</timebase>
							<ntsc>TRUE</ntsc>
						</rate>
						<rate>
							<timebase>60</timebase>
							<ntsc>TRUE</ntsc>
						</rate>
						<duration>0</duration>
						<start>28746</start>
						<end>28746</end>
						<in>4704</in>
						<out>4704</out>
					</clipitem>
					<clipitem frameBlend="FALSE" id="audioclip-1394">
						<file id="file-1"/>
						<name>bandicam 2025-06-02 00-01-10-144 - Audio</name>
						<rate>
							<timebase>60</timebase>
							<ntsc>TRUE</ntsc>
						</rate>
						<rate>
							<timebase>60</timebase>
							<ntsc>TRUE</ntsc>
						</rate>
						<duration>48</duration>
						<start>28746</start>
						<end>28794</end>
						<in>4722</in>
						<out>4770</out>
					</clipitem>
					<clipitem frameBlend="FALSE" id="audioclip-1395">
						<file id="file-1"/>
						<name>bandicam 2025-06-02 00-01-10-144 - Audio</name>
						<rate>
							<timebase>60</timebase>
							<ntsc>TRUE</ntsc>
						</rate>
						<rate>
							<timebase>60</timebase>
							<ntsc>TRUE</ntsc>
						</rate>
						<duration>12</duration>
						<start>28794</start>
						<end>28806</end>
						<in>4788</in>
						<out>4800</out>
					</clipitem>
					<clipitem frameBlend="FALSE" id="audioclip-1396">
						<file id="file-1"/>
						<name>bandicam 2025-06-02 00-01-10-144 - Audio</name>
						<rate>
							<timebase>60</timebase>
							<ntsc>TRUE</ntsc>
						</rate>
						<rate>
							<timebase>60</timebase>
							<ntsc>TRUE</ntsc>
						</rate>
						<duration>0</duration>
						<start>28806</start>
						<end>28806</end>
						<in>4848</in>
						<out>4848</out>
					</clipitem>
					<clipitem frameBlend="FALSE" id="audioclip-1397">
						<file id="file-1"/>
						<name>bandicam 2025-06-02 00-01-10-144 - Audio</name>
						<rate>
							<timebase>60</timebase>
							<ntsc>TRUE</ntsc>
						</rate>
						<rate>
							<timebase>60</timebase>
							<ntsc>TRUE</ntsc>
						</rate>
						<duration>12</duration>
						<start>28806</start>
						<end>28818</end>
						<in>4860</in>
						<out>4872</out>
					</clipitem>
					<clipitem frameBlend="FALSE" id="audioclip-1398">
						<file id="file-1"/>
						<name>bandicam 2025-06-02 00-01-10-144 - Audio</name>
						<rate>
							<timebase>60</timebase>
							<ntsc>TRUE</ntsc>
						</rate>
						<rate>
							<timebase>60</timebase>
							<ntsc>TRUE</ntsc>
						</rate>
						<duration>6</duration>
						<start>28818</start>
						<end>28824</end>
						<in>4890</in>
						<out>4896</out>
					</clipitem>
					<clipitem frameBlend="FALSE" id="audioclip-1399">
						<file id="file-1"/>
						<name>bandicam 2025-06-02 00-01-10-144 - Audio</name>
						<rate>
							<timebase>60</timebase>
							<ntsc>TRUE</ntsc>
						</rate>
						<rate>
							<timebase>60</timebase>
							<ntsc>TRUE</ntsc>
						</rate>
						<duration>12</duration>
						<start>28824</start>
						<end>28836</end>
						<in>4908</in>
						<out>4920</out>
					</clipitem>
					<clipitem frameBlend="FALSE" id="audioclip-1400">
						<file id="file-1"/>
						<name>bandicam 2025-06-02 00-01-10-144 - Audio</name>
						<rate>
							<timebase>60</timebase>
							<ntsc>TRUE</ntsc>
						</rate>
						<rate>
							<timebase>60</timebase>
							<ntsc>TRUE</ntsc>
						</rate>
						<duration>12</duration>
						<start>28836</start>
						<end>28848</end>
						<in>4944</in>
						<out>4956</out>
					</clipitem>
					<clipitem frameBlend="FALSE" id="audioclip-1401">
						<file id="file-1"/>
						<name>bandicam 2025-06-02 00-01-10-144 - Audio</name>
						<rate>
							<timebase>60</timebase>
							<ntsc>TRUE</ntsc>
						</rate>
						<rate>
							<timebase>60</timebase>
							<ntsc>TRUE</ntsc>
						</rate>
						<duration>6</duration>
						<start>28848</start>
						<end>28854</end>
						<in>4968</in>
						<out>4974</out>
					</clipitem>
					<clipitem frameBlend="FALSE" id="audioclip-1402">
						<file id="file-1"/>
						<name>bandicam 2025-06-02 00-01-10-144 - Audio</name>
						<rate>
							<timebase>60</timebase>
							<ntsc>TRUE</ntsc>
						</rate>
						<rate>
							<timebase>60</timebase>
							<ntsc>TRUE</ntsc>
						</rate>
						<duration>12</duration>
						<start>28854</start>
						<end>28866</end>
						<in>5022</in>
						<out>5034</out>
					</clipitem>
					<clipitem frameBlend="FALSE" id="audioclip-1403">
						<file id="file-1"/>
						<name>bandicam 2025-06-02 00-01-10-144 - Audio</name>
						<rate>
							<timebase>60</timebase>
							<ntsc>TRUE</ntsc>
						</rate>
						<rate>
							<timebase>60</timebase>
							<ntsc>TRUE</ntsc>
						</rate>
						<duration>6</duration>
						<start>28866</start>
						<end>28872</end>
						<in>5064</in>
						<out>5070</out>
					</clipitem>
					<clipitem frameBlend="FALSE" id="audioclip-1404">
						<file id="file-1"/>
						<name>bandicam 2025-06-02 00-01-10-144 - Audio</name>
						<rate>
							<timebase>60</timebase>
							<ntsc>TRUE</ntsc>
						</rate>
						<rate>
							<timebase>60</timebase>
							<ntsc>TRUE</ntsc>
						</rate>
						<duration>0</duration>
						<start>28872</start>
						<end>28872</end>
						<in>5082</in>
						<out>5082</out>
					</clipitem>
					<clipitem frameBlend="FALSE" id="audioclip-1405">
						<file id="file-1"/>
						<name>bandicam 2025-06-02 00-01-10-144 - Audio</name>
						<rate>
							<timebase>60</timebase>
							<ntsc>TRUE</ntsc>
						</rate>
						<rate>
							<timebase>60</timebase>
							<ntsc>TRUE</ntsc>
						</rate>
						<duration>84</duration>
						<start>28872</start>
						<end>28956</end>
						<in>5094</in>
						<out>5178</out>
					</clipitem>
					<clipitem frameBlend="FALSE" id="audioclip-1406">
						<file id="file-1"/>
						<name>bandicam 2025-06-02 00-01-10-144 - Audio</name>
						<rate>
							<timebase>60</timebase>
							<ntsc>TRUE</ntsc>
						</rate>
						<rate>
							<timebase>60</timebase>
							<ntsc>TRUE</ntsc>
						</rate>
						<duration>18</duration>
						<start>28956</start>
						<end>28974</end>
						<in>5232</in>
						<out>5250</out>
					</clipitem>
					<clipitem frameBlend="FALSE" id="audioclip-1407">
						<file id="file-1"/>
						<name>bandicam 2025-06-02 00-01-10-144 - Audio</name>
						<rate>
							<timebase>60</timebase>
							<ntsc>TRUE</ntsc>
						</rate>
						<rate>
							<timebase>60</timebase>
							<ntsc>TRUE</ntsc>
						</rate>
						<duration>12</duration>
						<start>28974</start>
						<end>28986</end>
						<in>5328</in>
						<out>5340</out>
					</clipitem>
					<clipitem frameBlend="FALSE" id="audioclip-1408">
						<file id="file-1"/>
						<name>bandicam 2025-06-02 00-01-10-144 - Audio</name>
						<rate>
							<timebase>60</timebase>
							<ntsc>TRUE</ntsc>
						</rate>
						<rate>
							<timebase>60</timebase>
							<ntsc>TRUE</ntsc>
						</rate>
						<duration>12</duration>
						<start>28986</start>
						<end>28998</end>
						<in>5382</in>
						<out>5394</out>
					</clipitem>
					<clipitem frameBlend="FALSE" id="audioclip-1409">
						<file id="file-1"/>
						<name>bandicam 2025-06-02 00-01-10-144 - Audio</name>
						<rate>
							<timebase>60</timebase>
							<ntsc>TRUE</ntsc>
						</rate>
						<rate>
							<timebase>60</timebase>
							<ntsc>TRUE</ntsc>
						</rate>
						<duration>36</duration>
						<start>28998</start>
						<end>29034</end>
						<in>5412</in>
						<out>5448</out>
					</clipitem>
					<clipitem frameBlend="FALSE" id="audioclip-1410">
						<file id="file-1"/>
						<name>bandicam 2025-06-02 00-01-10-144 - Audio</name>
						<rate>
							<timebase>60</timebase>
							<ntsc>TRUE</ntsc>
						</rate>
						<rate>
							<timebase>60</timebase>
							<ntsc>TRUE</ntsc>
						</rate>
						<duration>0</duration>
						<start>29034</start>
						<end>29034</end>
						<in>5466</in>
						<out>5466</out>
					</clipitem>
					<clipitem frameBlend="FALSE" id="audioclip-1411">
						<file id="file-1"/>
						<name>bandicam 2025-06-02 00-01-10-144 - Audio</name>
						<rate>
							<timebase>60</timebase>
							<ntsc>TRUE</ntsc>
						</rate>
						<rate>
							<timebase>60</timebase>
							<ntsc>TRUE</ntsc>
						</rate>
						<duration>12</duration>
						<start>29034</start>
						<end>29046</end>
						<in>5490</in>
						<out>5502</out>
					</clipitem>
					<clipitem frameBlend="FALSE" id="audioclip-1412">
						<file id="file-1"/>
						<name>bandicam 2025-06-02 00-01-10-144 - Audio</name>
						<rate>
							<timebase>60</timebase>
							<ntsc>TRUE</ntsc>
						</rate>
						<rate>
							<timebase>60</timebase>
							<ntsc>TRUE</ntsc>
						</rate>
						<duration>0</duration>
						<start>29046</start>
						<end>29046</end>
						<in>5520</in>
						<out>5520</out>
					</clipitem>
					<clipitem frameBlend="FALSE" id="audioclip-1413">
						<file id="file-1"/>
						<name>bandicam 2025-06-02 00-01-10-144 - Audio</name>
						<rate>
							<timebase>60</timebase>
							<ntsc>TRUE</ntsc>
						</rate>
						<rate>
							<timebase>60</timebase>
							<ntsc>TRUE</ntsc>
						</rate>
						<duration>0</duration>
						<start>29046</start>
						<end>29046</end>
						<in>5532</in>
						<out>5532</out>
					</clipitem>
					<clipitem frameBlend="FALSE" id="audioclip-1414">
						<file id="file-1"/>
						<name>bandicam 2025-06-02 00-01-10-144 - Audio</name>
						<rate>
							<timebase>60</timebase>
							<ntsc>TRUE</ntsc>
						</rate>
						<rate>
							<timebase>60</timebase>
							<ntsc>TRUE</ntsc>
						</rate>
						<duration>6</duration>
						<start>29046</start>
						<end>29052</end>
						<in>5544</in>
						<out>5550</out>
					</clipitem>
					<clipitem frameBlend="FALSE" id="audioclip-1415">
						<file id="file-1"/>
						<name>bandicam 2025-06-02 00-01-10-144 - Audio</name>
						<rate>
							<timebase>60</timebase>
							<ntsc>TRUE</ntsc>
						</rate>
						<rate>
							<timebase>60</timebase>
							<ntsc>TRUE</ntsc>
						</rate>
						<duration>12</duration>
						<start>29052</start>
						<end>29064</end>
						<in>5580</in>
						<out>5592</out>
					</clipitem>
					<clipitem frameBlend="FALSE" id="audioclip-1416">
						<file id="file-1"/>
						<name>bandicam 2025-06-02 00-01-10-144 - Audio</name>
						<rate>
							<timebase>60</timebase>
							<ntsc>TRUE</ntsc>
						</rate>
						<rate>
							<timebase>60</timebase>
							<ntsc>TRUE</ntsc>
						</rate>
						<duration>12</duration>
						<start>29064</start>
						<end>29076</end>
						<in>5628</in>
						<out>5640</out>
					</clipitem>
					<clipitem frameBlend="FALSE" id="audioclip-1417">
						<file id="file-1"/>
						<name>bandicam 2025-06-02 00-01-10-144 - Audio</name>
						<rate>
							<timebase>60</timebase>
							<ntsc>TRUE</ntsc>
						</rate>
						<rate>
							<timebase>60</timebase>
							<ntsc>TRUE</ntsc>
						</rate>
						<duration>30</duration>
						<start>29076</start>
						<end>29106</end>
						<in>5664</in>
						<out>5694</out>
					</clipitem>
					<clipitem frameBlend="FALSE" id="audioclip-1418">
						<file id="file-1"/>
						<name>bandicam 2025-06-02 00-01-10-144 - Audio</name>
						<rate>
							<timebase>60</timebase>
							<ntsc>TRUE</ntsc>
						</rate>
						<rate>
							<timebase>60</timebase>
							<ntsc>TRUE</ntsc>
						</rate>
						<duration>0</duration>
						<start>29106</start>
						<end>29106</end>
						<in>5724</in>
						<out>5724</out>
					</clipitem>
					<clipitem frameBlend="FALSE" id="audioclip-1419">
						<file id="file-1"/>
						<name>bandicam 2025-06-02 00-01-10-144 - Audio</name>
						<rate>
							<timebase>60</timebase>
							<ntsc>TRUE</ntsc>
						</rate>
						<rate>
							<timebase>60</timebase>
							<ntsc>TRUE</ntsc>
						</rate>
						<duration>24</duration>
						<start>29106</start>
						<end>29130</end>
						<in>5754</in>
						<out>5778</out>
					</clipitem>
					<clipitem frameBlend="FALSE" id="audioclip-1420">
						<file id="file-1"/>
						<name>bandicam 2025-06-02 00-01-10-144 - Audio</name>
						<rate>
							<timebase>60</timebase>
							<ntsc>TRUE</ntsc>
						</rate>
						<rate>
							<timebase>60</timebase>
							<ntsc>TRUE</ntsc>
						</rate>
						<duration>90</duration>
						<start>29130</start>
						<end>29220</end>
						<in>5802</in>
						<out>5892</out>
					</clipitem>
					<clipitem frameBlend="FALSE" id="audioclip-1421">
						<file id="file-1"/>
						<name>bandicam 2025-06-02 00-01-10-144 - Audio</name>
						<rate>
							<timebase>60</timebase>
							<ntsc>TRUE</ntsc>
						</rate>
						<rate>
							<timebase>60</timebase>
							<ntsc>TRUE</ntsc>
						</rate>
						<duration>66</duration>
						<start>29220</start>
						<end>29286</end>
						<in>5910</in>
						<out>5976</out>
					</clipitem>
					<clipitem frameBlend="FALSE" id="audioclip-1422">
						<file id="file-1"/>
						<name>bandicam 2025-06-02 00-01-10-144 - Audio</name>
						<rate>
							<timebase>60</timebase>
							<ntsc>TRUE</ntsc>
						</rate>
						<rate>
							<timebase>60</timebase>
							<ntsc>TRUE</ntsc>
						</rate>
						<duration>36</duration>
						<start>29286</start>
						<end>29322</end>
						<in>6000</in>
						<out>6036</out>
					</clipitem>
					<clipitem frameBlend="FALSE" id="audioclip-1423">
						<file id="file-1"/>
						<name>bandicam 2025-06-02 00-01-10-144 - Audio</name>
						<rate>
							<timebase>60</timebase>
							<ntsc>TRUE</ntsc>
						</rate>
						<rate>
							<timebase>60</timebase>
							<ntsc>TRUE</ntsc>
						</rate>
						<duration>12</duration>
						<start>29322</start>
						<end>29334</end>
						<in>6054</in>
						<out>6066</out>
					</clipitem>
					<clipitem frameBlend="FALSE" id="audioclip-1424">
						<file id="file-1"/>
						<name>bandicam 2025-06-02 00-01-10-144 - Audio</name>
						<rate>
							<timebase>60</timebase>
							<ntsc>TRUE</ntsc>
						</rate>
						<rate>
							<timebase>60</timebase>
							<ntsc>TRUE</ntsc>
						</rate>
						<duration>0</duration>
						<start>29334</start>
						<end>29334</end>
						<in>6132</in>
						<out>6132</out>
					</clipitem>
					<clipitem frameBlend="FALSE" id="audioclip-1425">
						<file id="file-1"/>
						<name>bandicam 2025-06-02 00-01-10-144 - Audio</name>
						<rate>
							<timebase>60</timebase>
							<ntsc>TRUE</ntsc>
						</rate>
						<rate>
							<timebase>60</timebase>
							<ntsc>TRUE</ntsc>
						</rate>
						<duration>48</duration>
						<start>29334</start>
						<end>29382</end>
						<in>6156</in>
						<out>6204</out>
					</clipitem>
					<clipitem frameBlend="FALSE" id="audioclip-1426">
						<file id="file-1"/>
						<name>bandicam 2025-06-02 00-01-10-144 - Audio</name>
						<rate>
							<timebase>60</timebase>
							<ntsc>TRUE</ntsc>
						</rate>
						<rate>
							<timebase>60</timebase>
							<ntsc>TRUE</ntsc>
						</rate>
						<duration>30</duration>
						<start>29382</start>
						<end>29412</end>
						<in>6222</in>
						<out>6252</out>
					</clipitem>
					<clipitem frameBlend="FALSE" id="audioclip-1427">
						<file id="file-1"/>
						<name>bandicam 2025-06-02 00-01-10-144 - Audio</name>
						<rate>
							<timebase>60</timebase>
							<ntsc>TRUE</ntsc>
						</rate>
						<rate>
							<timebase>60</timebase>
							<ntsc>TRUE</ntsc>
						</rate>
						<duration>0</duration>
						<start>29412</start>
						<end>29412</end>
						<in>6282</in>
						<out>6282</out>
					</clipitem>
					<clipitem frameBlend="FALSE" id="audioclip-1428">
						<file id="file-1"/>
						<name>bandicam 2025-06-02 00-01-10-144 - Audio</name>
						<rate>
							<timebase>60</timebase>
							<ntsc>TRUE</ntsc>
						</rate>
						<rate>
							<timebase>60</timebase>
							<ntsc>TRUE</ntsc>
						</rate>
						<duration>12</duration>
						<start>29412</start>
						<end>29424</end>
						<in>6312</in>
						<out>6324</out>
					</clipitem>
					<clipitem frameBlend="FALSE" id="audioclip-1429">
						<file id="file-1"/>
						<name>bandicam 2025-06-02 00-01-10-144 - Audio</name>
						<rate>
							<timebase>60</timebase>
							<ntsc>TRUE</ntsc>
						</rate>
						<rate>
							<timebase>60</timebase>
							<ntsc>TRUE</ntsc>
						</rate>
						<duration>12</duration>
						<start>29424</start>
						<end>29436</end>
						<in>6384</in>
						<out>6396</out>
					</clipitem>
					<clipitem frameBlend="FALSE" id="audioclip-1430">
						<file id="file-1"/>
						<name>bandicam 2025-06-02 00-01-10-144 - Audio</name>
						<rate>
							<timebase>60</timebase>
							<ntsc>TRUE</ntsc>
						</rate>
						<rate>
							<timebase>60</timebase>
							<ntsc>TRUE</ntsc>
						</rate>
						<duration>12</duration>
						<start>29436</start>
						<end>29448</end>
						<in>6432</in>
						<out>6444</out>
					</clipitem>
					<clipitem frameBlend="FALSE" id="audioclip-1431">
						<file id="file-1"/>
						<name>bandicam 2025-06-02 00-01-10-144 - Audio</name>
						<rate>
							<timebase>60</timebase>
							<ntsc>TRUE</ntsc>
						</rate>
						<rate>
							<timebase>60</timebase>
							<ntsc>TRUE</ntsc>
						</rate>
						<duration>0</duration>
						<start>29448</start>
						<end>29448</end>
						<in>6486</in>
						<out>6486</out>
					</clipitem>
					<clipitem frameBlend="FALSE" id="audioclip-1432">
						<file id="file-1"/>
						<name>bandicam 2025-06-02 00-01-10-144 - Audio</name>
						<rate>
							<timebase>60</timebase>
							<ntsc>TRUE</ntsc>
						</rate>
						<rate>
							<timebase>60</timebase>
							<ntsc>TRUE</ntsc>
						</rate>
						<duration>36</duration>
						<start>29448</start>
						<end>29484</end>
						<in>6498</in>
						<out>6534</out>
					</clipitem>
					<clipitem frameBlend="FALSE" id="audioclip-1433">
						<file id="file-1"/>
						<name>bandicam 2025-06-02 00-01-10-144 - Audio</name>
						<rate>
							<timebase>60</timebase>
							<ntsc>TRUE</ntsc>
						</rate>
						<rate>
							<timebase>60</timebase>
							<ntsc>TRUE</ntsc>
						</rate>
						<duration>6</duration>
						<start>29484</start>
						<end>29490</end>
						<in>6576</in>
						<out>6582</out>
					</clipitem>
					<clipitem frameBlend="FALSE" id="audioclip-1434">
						<file id="file-1"/>
						<name>bandicam 2025-06-02 00-01-10-144 - Audio</name>
						<rate>
							<timebase>60</timebase>
							<ntsc>TRUE</ntsc>
						</rate>
						<rate>
							<timebase>60</timebase>
							<ntsc>TRUE</ntsc>
						</rate>
						<duration>12</duration>
						<start>29490</start>
						<end>29502</end>
						<in>6612</in>
						<out>6624</out>
					</clipitem>
					<clipitem frameBlend="FALSE" id="audioclip-1435">
						<file id="file-1"/>
						<name>bandicam 2025-06-02 00-01-10-144 - Audio</name>
						<rate>
							<timebase>60</timebase>
							<ntsc>TRUE</ntsc>
						</rate>
						<rate>
							<timebase>60</timebase>
							<ntsc>TRUE</ntsc>
						</rate>
						<duration>12</duration>
						<start>29502</start>
						<end>29514</end>
						<in>6750</in>
						<out>6762</out>
					</clipitem>
					<clipitem frameBlend="FALSE" id="audioclip-1436">
						<file id="file-1"/>
						<name>bandicam 2025-06-02 00-01-10-144 - Audio</name>
						<rate>
							<timebase>60</timebase>
							<ntsc>TRUE</ntsc>
						</rate>
						<rate>
							<timebase>60</timebase>
							<ntsc>TRUE</ntsc>
						</rate>
						<duration>6</duration>
						<start>29514</start>
						<end>29520</end>
						<in>6810</in>
						<out>6816</out>
					</clipitem>
					<clipitem frameBlend="FALSE" id="audioclip-1437">
						<file id="file-1"/>
						<name>bandicam 2025-06-02 00-01-10-144 - Audio</name>
						<rate>
							<timebase>60</timebase>
							<ntsc>TRUE</ntsc>
						</rate>
						<rate>
							<timebase>60</timebase>
							<ntsc>TRUE</ntsc>
						</rate>
						<duration>12</duration>
						<start>29520</start>
						<end>29532</end>
						<in>6828</in>
						<out>6840</out>
					</clipitem>
					<clipitem frameBlend="FALSE" id="audioclip-1438">
						<file id="file-1"/>
						<name>bandicam 2025-06-02 00-01-10-144 - Audio</name>
						<rate>
							<timebase>60</timebase>
							<ntsc>TRUE</ntsc>
						</rate>
						<rate>
							<timebase>60</timebase>
							<ntsc>TRUE</ntsc>
						</rate>
						<duration>6</duration>
						<start>29532</start>
						<end>29538</end>
						<in>6894</in>
						<out>6900</out>
					</clipitem>
					<clipitem frameBlend="FALSE" id="audioclip-1439">
						<file id="file-1"/>
						<name>bandicam 2025-06-02 00-01-10-144 - Audio</name>
						<rate>
							<timebase>60</timebase>
							<ntsc>TRUE</ntsc>
						</rate>
						<rate>
							<timebase>60</timebase>
							<ntsc>TRUE</ntsc>
						</rate>
						<duration>12</duration>
						<start>29538</start>
						<end>29550</end>
						<in>6912</in>
						<out>6924</out>
					</clipitem>
					<clipitem frameBlend="FALSE" id="audioclip-1440">
						<file id="file-1"/>
						<name>bandicam 2025-06-02 00-01-10-144 - Audio</name>
						<rate>
							<timebase>60</timebase>
							<ntsc>TRUE</ntsc>
						</rate>
						<rate>
							<timebase>60</timebase>
							<ntsc>TRUE</ntsc>
						</rate>
						<duration>0</duration>
						<start>29550</start>
						<end>29550</end>
						<in>6954</in>
						<out>6954</out>
					</clipitem>
					<clipitem frameBlend="FALSE" id="audioclip-1441">
						<file id="file-1"/>
						<name>bandicam 2025-06-02 00-01-10-144 - Audio</name>
						<rate>
							<timebase>60</timebase>
							<ntsc>TRUE</ntsc>
						</rate>
						<rate>
							<timebase>60</timebase>
							<ntsc>TRUE</ntsc>
						</rate>
						<duration>0</duration>
						<start>29550</start>
						<end>29550</end>
						<in>7002</in>
						<out>7002</out>
					</clipitem>
					<clipitem frameBlend="FALSE" id="audioclip-1442">
						<file id="file-1"/>
						<name>bandicam 2025-06-02 00-01-10-144 - Audio</name>
						<rate>
							<timebase>60</timebase>
							<ntsc>TRUE</ntsc>
						</rate>
						<rate>
							<timebase>60</timebase>
							<ntsc>TRUE</ntsc>
						</rate>
						<duration>12</duration>
						<start>29550</start>
						<end>29562</end>
						<in>7026</in>
						<out>7038</out>
					</clipitem>
					<clipitem frameBlend="FALSE" id="audioclip-1443">
						<file id="file-1"/>
						<name>bandicam 2025-06-02 00-01-10-144 - Audio</name>
						<rate>
							<timebase>60</timebase>
							<ntsc>TRUE</ntsc>
						</rate>
						<rate>
							<timebase>60</timebase>
							<ntsc>TRUE</ntsc>
						</rate>
						<duration>30</duration>
						<start>29562</start>
						<end>29592</end>
						<in>12</in>
						<out>42</out>
					</clipitem>
					<clipitem frameBlend="FALSE" id="audioclip-1444">
						<file id="file-1"/>
						<name>bandicam 2025-06-02 00-01-10-144 - Audio</name>
						<rate>
							<timebase>60</timebase>
							<ntsc>TRUE</ntsc>
						</rate>
						<rate>
							<timebase>60</timebase>
							<ntsc>TRUE</ntsc>
						</rate>
						<duration>36</duration>
						<start>29592</start>
						<end>29628</end>
						<in>54</in>
						<out>90</out>
					</clipitem>
					<clipitem frameBlend="FALSE" id="audioclip-1445">
						<file id="file-1"/>
						<name>bandicam 2025-06-02 00-01-10-144 - Audio</name>
						<rate>
							<timebase>60</timebase>
							<ntsc>TRUE</ntsc>
						</rate>
						<rate>
							<timebase>60</timebase>
							<ntsc>TRUE</ntsc>
						</rate>
						<duration>18</duration>
						<start>29628</start>
						<end>29646</end>
						<in>108</in>
						<out>126</out>
					</clipitem>
					<clipitem frameBlend="FALSE" id="audioclip-1446">
						<file id="file-1"/>
						<name>bandicam 2025-06-02 00-01-10-144 - Audio</name>
						<rate>
							<timebase>60</timebase>
							<ntsc>TRUE</ntsc>
						</rate>
						<rate>
							<timebase>60</timebase>
							<ntsc>TRUE</ntsc>
						</rate>
						<duration>24</duration>
						<start>29646</start>
						<end>29670</end>
						<in>174</in>
						<out>198</out>
					</clipitem>
					<clipitem frameBlend="FALSE" id="audioclip-1447">
						<file id="file-1"/>
						<name>bandicam 2025-06-02 00-01-10-144 - Audio</name>
						<rate>
							<timebase>60</timebase>
							<ntsc>TRUE</ntsc>
						</rate>
						<rate>
							<timebase>60</timebase>
							<ntsc>TRUE</ntsc>
						</rate>
						<duration>0</duration>
						<start>29670</start>
						<end>29670</end>
						<in>300</in>
						<out>300</out>
					</clipitem>
					<clipitem frameBlend="FALSE" id="audioclip-1448">
						<file id="file-1"/>
						<name>bandicam 2025-06-02 00-01-10-144 - Audio</name>
						<rate>
							<timebase>60</timebase>
							<ntsc>TRUE</ntsc>
						</rate>
						<rate>
							<timebase>60</timebase>
							<ntsc>TRUE</ntsc>
						</rate>
						<duration>30</duration>
						<start>29670</start>
						<end>29700</end>
						<in>360</in>
						<out>390</out>
					</clipitem>
					<clipitem frameBlend="FALSE" id="audioclip-1449">
						<file id="file-1"/>
						<name>bandicam 2025-06-02 00-01-10-144 - Audio</name>
						<rate>
							<timebase>60</timebase>
							<ntsc>TRUE</ntsc>
						</rate>
						<rate>
							<timebase>60</timebase>
							<ntsc>TRUE</ntsc>
						</rate>
						<duration>0</duration>
						<start>29700</start>
						<end>29700</end>
						<in>438</in>
						<out>438</out>
					</clipitem>
					<clipitem frameBlend="FALSE" id="audioclip-1450">
						<file id="file-1"/>
						<name>bandicam 2025-06-02 00-01-10-144 - Audio</name>
						<rate>
							<timebase>60</timebase>
							<ntsc>TRUE</ntsc>
						</rate>
						<rate>
							<timebase>60</timebase>
							<ntsc>TRUE</ntsc>
						</rate>
						<duration>42</duration>
						<start>29700</start>
						<end>29742</end>
						<in>450</in>
						<out>492</out>
					</clipitem>
					<clipitem frameBlend="FALSE" id="audioclip-1451">
						<file id="file-1"/>
						<name>bandicam 2025-06-02 00-01-10-144 - Audio</name>
						<rate>
							<timebase>60</timebase>
							<ntsc>TRUE</ntsc>
						</rate>
						<rate>
							<timebase>60</timebase>
							<ntsc>TRUE</ntsc>
						</rate>
						<duration>0</duration>
						<start>29742</start>
						<end>29742</end>
						<in>504</in>
						<out>504</out>
					</clipitem>
					<clipitem frameBlend="FALSE" id="audioclip-1452">
						<file id="file-1"/>
						<name>bandicam 2025-06-02 00-01-10-144 - Audio</name>
						<rate>
							<timebase>60</timebase>
							<ntsc>TRUE</ntsc>
						</rate>
						<rate>
							<timebase>60</timebase>
							<ntsc>TRUE</ntsc>
						</rate>
						<duration>30</duration>
						<start>29742</start>
						<end>29772</end>
						<in>528</in>
						<out>558</out>
					</clipitem>
					<clipitem frameBlend="FALSE" id="audioclip-1453">
						<file id="file-1"/>
						<name>bandicam 2025-06-02 00-01-10-144 - Audio</name>
						<rate>
							<timebase>60</timebase>
							<ntsc>TRUE</ntsc>
						</rate>
						<rate>
							<timebase>60</timebase>
							<ntsc>TRUE</ntsc>
						</rate>
						<duration>24</duration>
						<start>29772</start>
						<end>29796</end>
						<in>582</in>
						<out>606</out>
					</clipitem>
					<clipitem frameBlend="FALSE" id="audioclip-1454">
						<file id="file-1"/>
						<name>bandicam 2025-06-02 00-01-10-144 - Audio</name>
						<rate>
							<timebase>60</timebase>
							<ntsc>TRUE</ntsc>
						</rate>
						<rate>
							<timebase>60</timebase>
							<ntsc>TRUE</ntsc>
						</rate>
						<duration>18</duration>
						<start>29796</start>
						<end>29814</end>
						<in>624</in>
						<out>642</out>
					</clipitem>
					<clipitem frameBlend="FALSE" id="audioclip-1455">
						<file id="file-1"/>
						<name>bandicam 2025-06-02 00-01-10-144 - Audio</name>
						<rate>
							<timebase>60</timebase>
							<ntsc>TRUE</ntsc>
						</rate>
						<rate>
							<timebase>60</timebase>
							<ntsc>TRUE</ntsc>
						</rate>
						<duration>0</duration>
						<start>29814</start>
						<end>29814</end>
						<in>816</in>
						<out>816</out>
					</clipitem>
					<clipitem frameBlend="FALSE" id="audioclip-1456">
						<file id="file-1"/>
						<name>bandicam 2025-06-02 00-01-10-144 - Audio</name>
						<rate>
							<timebase>60</timebase>
							<ntsc>TRUE</ntsc>
						</rate>
						<rate>
							<timebase>60</timebase>
							<ntsc>TRUE</ntsc>
						</rate>
						<duration>0</duration>
						<start>29814</start>
						<end>29814</end>
						<in>852</in>
						<out>852</out>
					</clipitem>
					<clipitem frameBlend="FALSE" id="audioclip-1457">
						<file id="file-1"/>
						<name>bandicam 2025-06-02 00-01-10-144 - Audio</name>
						<rate>
							<timebase>60</timebase>
							<ntsc>TRUE</ntsc>
						</rate>
						<rate>
							<timebase>60</timebase>
							<ntsc>TRUE</ntsc>
						</rate>
						<duration>0</duration>
						<start>29814</start>
						<end>29814</end>
						<in>912</in>
						<out>912</out>
					</clipitem>
					<clipitem frameBlend="FALSE" id="audioclip-1458">
						<file id="file-1"/>
						<name>bandicam 2025-06-02 00-01-10-144 - Audio</name>
						<rate>
							<timebase>60</timebase>
							<ntsc>TRUE</ntsc>
						</rate>
						<rate>
							<timebase>60</timebase>
							<ntsc>TRUE</ntsc>
						</rate>
						<duration>0</duration>
						<start>29814</start>
						<end>29814</end>
						<in>936</in>
						<out>936</out>
					</clipitem>
					<clipitem frameBlend="FALSE" id="audioclip-1459">
						<file id="file-1"/>
						<name>bandicam 2025-06-02 00-01-10-144 - Audio</name>
						<rate>
							<timebase>60</timebase>
							<ntsc>TRUE</ntsc>
						</rate>
						<rate>
							<timebase>60</timebase>
							<ntsc>TRUE</ntsc>
						</rate>
						<duration>0</duration>
						<start>29814</start>
						<end>29814</end>
						<in>954</in>
						<out>954</out>
					</clipitem>
					<clipitem frameBlend="FALSE" id="audioclip-1460">
						<file id="file-1"/>
						<name>bandicam 2025-06-02 00-01-10-144 - Audio</name>
						<rate>
							<timebase>60</timebase>
							<ntsc>TRUE</ntsc>
						</rate>
						<rate>
							<timebase>60</timebase>
							<ntsc>TRUE</ntsc>
						</rate>
						<duration>12</duration>
						<start>29814</start>
						<end>29826</end>
						<in>984</in>
						<out>996</out>
					</clipitem>
					<clipitem frameBlend="FALSE" id="audioclip-1461">
						<file id="file-1"/>
						<name>bandicam 2025-06-02 00-01-10-144 - Audio</name>
						<rate>
							<timebase>60</timebase>
							<ntsc>TRUE</ntsc>
						</rate>
						<rate>
							<timebase>60</timebase>
							<ntsc>TRUE</ntsc>
						</rate>
						<duration>12</duration>
						<start>29826</start>
						<end>29838</end>
						<in>1086</in>
						<out>1098</out>
					</clipitem>
					<clipitem frameBlend="FALSE" id="audioclip-1462">
						<file id="file-1"/>
						<name>bandicam 2025-06-02 00-01-10-144 - Audio</name>
						<rate>
							<timebase>60</timebase>
							<ntsc>TRUE</ntsc>
						</rate>
						<rate>
							<timebase>60</timebase>
							<ntsc>TRUE</ntsc>
						</rate>
						<duration>48</duration>
						<start>29838</start>
						<end>29886</end>
						<in>1188</in>
						<out>1236</out>
					</clipitem>
					<clipitem frameBlend="FALSE" id="audioclip-1463">
						<file id="file-1"/>
						<name>bandicam 2025-06-02 00-01-10-144 - Audio</name>
						<rate>
							<timebase>60</timebase>
							<ntsc>TRUE</ntsc>
						</rate>
						<rate>
							<timebase>60</timebase>
							<ntsc>TRUE</ntsc>
						</rate>
						<duration>0</duration>
						<start>29886</start>
						<end>29886</end>
						<in>1320</in>
						<out>1320</out>
					</clipitem>
					<clipitem frameBlend="FALSE" id="audioclip-1464">
						<file id="file-1"/>
						<name>bandicam 2025-06-02 00-01-10-144 - Audio</name>
						<rate>
							<timebase>60</timebase>
							<ntsc>TRUE</ntsc>
						</rate>
						<rate>
							<timebase>60</timebase>
							<ntsc>TRUE</ntsc>
						</rate>
						<duration>54</duration>
						<start>29886</start>
						<end>29940</end>
						<in>1374</in>
						<out>1428</out>
					</clipitem>
					<clipitem frameBlend="FALSE" id="audioclip-1465">
						<file id="file-1"/>
						<name>bandicam 2025-06-02 00-01-10-144 - Audio</name>
						<rate>
							<timebase>60</timebase>
							<ntsc>TRUE</ntsc>
						</rate>
						<rate>
							<timebase>60</timebase>
							<ntsc>TRUE</ntsc>
						</rate>
						<duration>36</duration>
						<start>29940</start>
						<end>29976</end>
						<in>1446</in>
						<out>1482</out>
					</clipitem>
					<clipitem frameBlend="FALSE" id="audioclip-1466">
						<file id="file-1"/>
						<name>bandicam 2025-06-02 00-01-10-144 - Audio</name>
						<rate>
							<timebase>60</timebase>
							<ntsc>TRUE</ntsc>
						</rate>
						<rate>
							<timebase>60</timebase>
							<ntsc>TRUE</ntsc>
						</rate>
						<duration>0</duration>
						<start>29976</start>
						<end>29976</end>
						<in>1536</in>
						<out>1536</out>
					</clipitem>
					<clipitem frameBlend="FALSE" id="audioclip-1467">
						<file id="file-1"/>
						<name>bandicam 2025-06-02 00-01-10-144 - Audio</name>
						<rate>
							<timebase>60</timebase>
							<ntsc>TRUE</ntsc>
						</rate>
						<rate>
							<timebase>60</timebase>
							<ntsc>TRUE</ntsc>
						</rate>
						<duration>30</duration>
						<start>29976</start>
						<end>30006</end>
						<in>1566</in>
						<out>1596</out>
					</clipitem>
					<clipitem frameBlend="FALSE" id="audioclip-1468">
						<file id="file-1"/>
						<name>bandicam 2025-06-02 00-01-10-144 - Audio</name>
						<rate>
							<timebase>60</timebase>
							<ntsc>TRUE</ntsc>
						</rate>
						<rate>
							<timebase>60</timebase>
							<ntsc>TRUE</ntsc>
						</rate>
						<duration>90</duration>
						<start>30006</start>
						<end>30096</end>
						<in>1692</in>
						<out>1782</out>
					</clipitem>
					<clipitem frameBlend="FALSE" id="audioclip-1469">
						<file id="file-1"/>
						<name>bandicam 2025-06-02 00-01-10-144 - Audio</name>
						<rate>
							<timebase>60</timebase>
							<ntsc>TRUE</ntsc>
						</rate>
						<rate>
							<timebase>60</timebase>
							<ntsc>TRUE</ntsc>
						</rate>
						<duration>30</duration>
						<start>30096</start>
						<end>30126</end>
						<in>1800</in>
						<out>1830</out>
					</clipitem>
					<clipitem frameBlend="FALSE" id="audioclip-1470">
						<file id="file-1"/>
						<name>bandicam 2025-06-02 00-01-10-144 - Audio</name>
						<rate>
							<timebase>60</timebase>
							<ntsc>TRUE</ntsc>
						</rate>
						<rate>
							<timebase>60</timebase>
							<ntsc>TRUE</ntsc>
						</rate>
						<duration>30</duration>
						<start>30126</start>
						<end>30156</end>
						<in>1842</in>
						<out>1872</out>
					</clipitem>
					<clipitem frameBlend="FALSE" id="audioclip-1471">
						<file id="file-1"/>
						<name>bandicam 2025-06-02 00-01-10-144 - Audio</name>
						<rate>
							<timebase>60</timebase>
							<ntsc>TRUE</ntsc>
						</rate>
						<rate>
							<timebase>60</timebase>
							<ntsc>TRUE</ntsc>
						</rate>
						<duration>24</duration>
						<start>30156</start>
						<end>30180</end>
						<in>1884</in>
						<out>1908</out>
					</clipitem>
					<clipitem frameBlend="FALSE" id="audioclip-1472">
						<file id="file-1"/>
						<name>bandicam 2025-06-02 00-01-10-144 - Audio</name>
						<rate>
							<timebase>60</timebase>
							<ntsc>TRUE</ntsc>
						</rate>
						<rate>
							<timebase>60</timebase>
							<ntsc>TRUE</ntsc>
						</rate>
						<duration>30</duration>
						<start>30180</start>
						<end>30210</end>
						<in>1926</in>
						<out>1956</out>
					</clipitem>
					<clipitem frameBlend="FALSE" id="audioclip-1473">
						<file id="file-1"/>
						<name>bandicam 2025-06-02 00-01-10-144 - Audio</name>
						<rate>
							<timebase>60</timebase>
							<ntsc>TRUE</ntsc>
						</rate>
						<rate>
							<timebase>60</timebase>
							<ntsc>TRUE</ntsc>
						</rate>
						<duration>36</duration>
						<start>30210</start>
						<end>30246</end>
						<in>2172</in>
						<out>2208</out>
					</clipitem>
					<clipitem frameBlend="FALSE" id="audioclip-1474">
						<file id="file-1"/>
						<name>bandicam 2025-06-02 00-01-10-144 - Audio</name>
						<rate>
							<timebase>60</timebase>
							<ntsc>TRUE</ntsc>
						</rate>
						<rate>
							<timebase>60</timebase>
							<ntsc>TRUE</ntsc>
						</rate>
						<duration>90</duration>
						<start>30246</start>
						<end>30336</end>
						<in>2274</in>
						<out>2364</out>
					</clipitem>
					<clipitem frameBlend="FALSE" id="audioclip-1475">
						<file id="file-1"/>
						<name>bandicam 2025-06-02 00-01-10-144 - Audio</name>
						<rate>
							<timebase>60</timebase>
							<ntsc>TRUE</ntsc>
						</rate>
						<rate>
							<timebase>60</timebase>
							<ntsc>TRUE</ntsc>
						</rate>
						<duration>18</duration>
						<start>30336</start>
						<end>30354</end>
						<in>2448</in>
						<out>2466</out>
					</clipitem>
					<clipitem frameBlend="FALSE" id="audioclip-1476">
						<file id="file-1"/>
						<name>bandicam 2025-06-02 00-01-10-144 - Audio</name>
						<rate>
							<timebase>60</timebase>
							<ntsc>TRUE</ntsc>
						</rate>
						<rate>
							<timebase>60</timebase>
							<ntsc>TRUE</ntsc>
						</rate>
						<duration>6</duration>
						<start>30354</start>
						<end>30360</end>
						<in>2478</in>
						<out>2484</out>
					</clipitem>
					<clipitem frameBlend="FALSE" id="audioclip-1477">
						<file id="file-1"/>
						<name>bandicam 2025-06-02 00-01-10-144 - Audio</name>
						<rate>
							<timebase>60</timebase>
							<ntsc>TRUE</ntsc>
						</rate>
						<rate>
							<timebase>60</timebase>
							<ntsc>TRUE</ntsc>
						</rate>
						<duration>6</duration>
						<start>30360</start>
						<end>30366</end>
						<in>2496</in>
						<out>2502</out>
					</clipitem>
					<clipitem frameBlend="FALSE" id="audioclip-1478">
						<file id="file-1"/>
						<name>bandicam 2025-06-02 00-01-10-144 - Audio</name>
						<rate>
							<timebase>60</timebase>
							<ntsc>TRUE</ntsc>
						</rate>
						<rate>
							<timebase>60</timebase>
							<ntsc>TRUE</ntsc>
						</rate>
						<duration>36</duration>
						<start>30366</start>
						<end>30402</end>
						<in>2532</in>
						<out>2568</out>
					</clipitem>
					<clipitem frameBlend="FALSE" id="audioclip-1479">
						<file id="file-1"/>
						<name>bandicam 2025-06-02 00-01-10-144 - Audio</name>
						<rate>
							<timebase>60</timebase>
							<ntsc>TRUE</ntsc>
						</rate>
						<rate>
							<timebase>60</timebase>
							<ntsc>TRUE</ntsc>
						</rate>
						<duration>90</duration>
						<start>30402</start>
						<end>30492</end>
						<in>2592</in>
						<out>2682</out>
					</clipitem>
					<clipitem frameBlend="FALSE" id="audioclip-1480">
						<file id="file-1"/>
						<name>bandicam 2025-06-02 00-01-10-144 - Audio</name>
						<rate>
							<timebase>60</timebase>
							<ntsc>TRUE</ntsc>
						</rate>
						<rate>
							<timebase>60</timebase>
							<ntsc>TRUE</ntsc>
						</rate>
						<duration>132</duration>
						<start>30492</start>
						<end>30624</end>
						<in>2724</in>
						<out>2856</out>
					</clipitem>
					<clipitem frameBlend="FALSE" id="audioclip-1481">
						<file id="file-1"/>
						<name>bandicam 2025-06-02 00-01-10-144 - Audio</name>
						<rate>
							<timebase>60</timebase>
							<ntsc>TRUE</ntsc>
						</rate>
						<rate>
							<timebase>60</timebase>
							<ntsc>TRUE</ntsc>
						</rate>
						<duration>42</duration>
						<start>30624</start>
						<end>30666</end>
						<in>2868</in>
						<out>2910</out>
					</clipitem>
					<clipitem frameBlend="FALSE" id="audioclip-1482">
						<file id="file-1"/>
						<name>bandicam 2025-06-02 00-01-10-144 - Audio</name>
						<rate>
							<timebase>60</timebase>
							<ntsc>TRUE</ntsc>
						</rate>
						<rate>
							<timebase>60</timebase>
							<ntsc>TRUE</ntsc>
						</rate>
						<duration>6</duration>
						<start>30666</start>
						<end>30672</end>
						<in>2946</in>
						<out>2952</out>
					</clipitem>
					<clipitem frameBlend="FALSE" id="audioclip-1483">
						<file id="file-1"/>
						<name>bandicam 2025-06-02 00-01-10-144 - Audio</name>
						<rate>
							<timebase>60</timebase>
							<ntsc>TRUE</ntsc>
						</rate>
						<rate>
							<timebase>60</timebase>
							<ntsc>TRUE</ntsc>
						</rate>
						<duration>30</duration>
						<start>30672</start>
						<end>30702</end>
						<in>2964</in>
						<out>2994</out>
					</clipitem>
					<clipitem frameBlend="FALSE" id="audioclip-1484">
						<file id="file-1"/>
						<name>bandicam 2025-06-02 00-01-10-144 - Audio</name>
						<rate>
							<timebase>60</timebase>
							<ntsc>TRUE</ntsc>
						</rate>
						<rate>
							<timebase>60</timebase>
							<ntsc>TRUE</ntsc>
						</rate>
						<duration>0</duration>
						<start>30702</start>
						<end>30702</end>
						<in>3024</in>
						<out>3024</out>
					</clipitem>
					<clipitem frameBlend="FALSE" id="audioclip-1485">
						<file id="file-1"/>
						<name>bandicam 2025-06-02 00-01-10-144 - Audio</name>
						<rate>
							<timebase>60</timebase>
							<ntsc>TRUE</ntsc>
						</rate>
						<rate>
							<timebase>60</timebase>
							<ntsc>TRUE</ntsc>
						</rate>
						<duration>42</duration>
						<start>30702</start>
						<end>30744</end>
						<in>3060</in>
						<out>3102</out>
					</clipitem>
					<clipitem frameBlend="FALSE" id="audioclip-1486">
						<file id="file-1"/>
						<name>bandicam 2025-06-02 00-01-10-144 - Audio</name>
						<rate>
							<timebase>60</timebase>
							<ntsc>TRUE</ntsc>
						</rate>
						<rate>
							<timebase>60</timebase>
							<ntsc>TRUE</ntsc>
						</rate>
						<duration>30</duration>
						<start>30744</start>
						<end>30774</end>
						<in>3120</in>
						<out>3150</out>
					</clipitem>
					<clipitem frameBlend="FALSE" id="audioclip-1487">
						<file id="file-1"/>
						<name>bandicam 2025-06-02 00-01-10-144 - Audio</name>
						<rate>
							<timebase>60</timebase>
							<ntsc>TRUE</ntsc>
						</rate>
						<rate>
							<timebase>60</timebase>
							<ntsc>TRUE</ntsc>
						</rate>
						<duration>36</duration>
						<start>30774</start>
						<end>30810</end>
						<in>3222</in>
						<out>3258</out>
					</clipitem>
					<clipitem frameBlend="FALSE" id="audioclip-1488">
						<file id="file-1"/>
						<name>bandicam 2025-06-02 00-01-10-144 - Audio</name>
						<rate>
							<timebase>60</timebase>
							<ntsc>TRUE</ntsc>
						</rate>
						<rate>
							<timebase>60</timebase>
							<ntsc>TRUE</ntsc>
						</rate>
						<duration>36</duration>
						<start>30810</start>
						<end>30846</end>
						<in>3270</in>
						<out>3306</out>
					</clipitem>
					<clipitem frameBlend="FALSE" id="audioclip-1489">
						<file id="file-1"/>
						<name>bandicam 2025-06-02 00-01-10-144 - Audio</name>
						<rate>
							<timebase>60</timebase>
							<ntsc>TRUE</ntsc>
						</rate>
						<rate>
							<timebase>60</timebase>
							<ntsc>TRUE</ntsc>
						</rate>
						<duration>30</duration>
						<start>30846</start>
						<end>30876</end>
						<in>3372</in>
						<out>3402</out>
					</clipitem>
					<clipitem frameBlend="FALSE" id="audioclip-1490">
						<file id="file-1"/>
						<name>bandicam 2025-06-02 00-01-10-144 - Audio</name>
						<rate>
							<timebase>60</timebase>
							<ntsc>TRUE</ntsc>
						</rate>
						<rate>
							<timebase>60</timebase>
							<ntsc>TRUE</ntsc>
						</rate>
						<duration>24</duration>
						<start>30876</start>
						<end>30900</end>
						<in>3450</in>
						<out>3474</out>
					</clipitem>
					<clipitem frameBlend="FALSE" id="audioclip-1491">
						<file id="file-1"/>
						<name>bandicam 2025-06-02 00-01-10-144 - Audio</name>
						<rate>
							<timebase>60</timebase>
							<ntsc>TRUE</ntsc>
						</rate>
						<rate>
							<timebase>60</timebase>
							<ntsc>TRUE</ntsc>
						</rate>
						<duration>30</duration>
						<start>30900</start>
						<end>30930</end>
						<in>3498</in>
						<out>3528</out>
					</clipitem>
					<clipitem frameBlend="FALSE" id="audioclip-1492">
						<file id="file-1"/>
						<name>bandicam 2025-06-02 00-01-10-144 - Audio</name>
						<rate>
							<timebase>60</timebase>
							<ntsc>TRUE</ntsc>
						</rate>
						<rate>
							<timebase>60</timebase>
							<ntsc>TRUE</ntsc>
						</rate>
						<duration>0</duration>
						<start>30930</start>
						<end>30930</end>
						<in>3582</in>
						<out>3582</out>
					</clipitem>
					<clipitem frameBlend="FALSE" id="audioclip-1493">
						<file id="file-1"/>
						<name>bandicam 2025-06-02 00-01-10-144 - Audio</name>
						<rate>
							<timebase>60</timebase>
							<ntsc>TRUE</ntsc>
						</rate>
						<rate>
							<timebase>60</timebase>
							<ntsc>TRUE</ntsc>
						</rate>
						<duration>18</duration>
						<start>30930</start>
						<end>30948</end>
						<in>3624</in>
						<out>3642</out>
					</clipitem>
					<clipitem frameBlend="FALSE" id="audioclip-1494">
						<file id="file-1"/>
						<name>bandicam 2025-06-02 00-01-10-144 - Audio</name>
						<rate>
							<timebase>60</timebase>
							<ntsc>TRUE</ntsc>
						</rate>
						<rate>
							<timebase>60</timebase>
							<ntsc>TRUE</ntsc>
						</rate>
						<duration>0</duration>
						<start>30948</start>
						<end>30948</end>
						<in>3672</in>
						<out>3672</out>
					</clipitem>
					<clipitem frameBlend="FALSE" id="audioclip-1495">
						<file id="file-1"/>
						<name>bandicam 2025-06-02 00-01-10-144 - Audio</name>
						<rate>
							<timebase>60</timebase>
							<ntsc>TRUE</ntsc>
						</rate>
						<rate>
							<timebase>60</timebase>
							<ntsc>TRUE</ntsc>
						</rate>
						<duration>0</duration>
						<start>30948</start>
						<end>30948</end>
						<in>3696</in>
						<out>3696</out>
					</clipitem>
					<clipitem frameBlend="FALSE" id="audioclip-1496">
						<file id="file-1"/>
						<name>bandicam 2025-06-02 00-01-10-144 - Audio</name>
						<rate>
							<timebase>60</timebase>
							<ntsc>TRUE</ntsc>
						</rate>
						<rate>
							<timebase>60</timebase>
							<ntsc>TRUE</ntsc>
						</rate>
						<duration>12</duration>
						<start>30948</start>
						<end>30960</end>
						<in>3768</in>
						<out>3780</out>
					</clipitem>
					<clipitem frameBlend="FALSE" id="audioclip-1497">
						<file id="file-1"/>
						<name>bandicam 2025-06-02 00-01-10-144 - Audio</name>
						<rate>
							<timebase>60</timebase>
							<ntsc>TRUE</ntsc>
						</rate>
						<rate>
							<timebase>60</timebase>
							<ntsc>TRUE</ntsc>
						</rate>
						<duration>30</duration>
						<start>30960</start>
						<end>30990</end>
						<in>3852</in>
						<out>3882</out>
					</clipitem>
					<clipitem frameBlend="FALSE" id="audioclip-1498">
						<file id="file-1"/>
						<name>bandicam 2025-06-02 00-01-10-144 - Audio</name>
						<rate>
							<timebase>60</timebase>
							<ntsc>TRUE</ntsc>
						</rate>
						<rate>
							<timebase>60</timebase>
							<ntsc>TRUE</ntsc>
						</rate>
						<duration>30</duration>
						<start>30990</start>
						<end>31020</end>
						<in>3906</in>
						<out>3936</out>
					</clipitem>
					<clipitem frameBlend="FALSE" id="audioclip-1499">
						<file id="file-1"/>
						<name>bandicam 2025-06-02 00-01-10-144 - Audio</name>
						<rate>
							<timebase>60</timebase>
							<ntsc>TRUE</ntsc>
						</rate>
						<rate>
							<timebase>60</timebase>
							<ntsc>TRUE</ntsc>
						</rate>
						<duration>6</duration>
						<start>31020</start>
						<end>31026</end>
						<in>4026</in>
						<out>4032</out>
					</clipitem>
					<clipitem frameBlend="FALSE" id="audioclip-1500">
						<file id="file-1"/>
						<name>bandicam 2025-06-02 00-01-10-144 - Audio</name>
						<rate>
							<timebase>60</timebase>
							<ntsc>TRUE</ntsc>
						</rate>
						<rate>
							<timebase>60</timebase>
							<ntsc>TRUE</ntsc>
						</rate>
						<duration>0</duration>
						<start>31026</start>
						<end>31026</end>
						<in>4044</in>
						<out>4044</out>
					</clipitem>
					<clipitem frameBlend="FALSE" id="audioclip-1501">
						<file id="file-1"/>
						<name>bandicam 2025-06-02 00-01-10-144 - Audio</name>
						<rate>
							<timebase>60</timebase>
							<ntsc>TRUE</ntsc>
						</rate>
						<rate>
							<timebase>60</timebase>
							<ntsc>TRUE</ntsc>
						</rate>
						<duration>84</duration>
						<start>31026</start>
						<end>31110</end>
						<in>4086</in>
						<out>4170</out>
					</clipitem>
					<clipitem frameBlend="FALSE" id="audioclip-1502">
						<file id="file-1"/>
						<name>bandicam 2025-06-02 00-01-10-144 - Audio</name>
						<rate>
							<timebase>60</timebase>
							<ntsc>TRUE</ntsc>
						</rate>
						<rate>
							<timebase>60</timebase>
							<ntsc>TRUE</ntsc>
						</rate>
						<duration>18</duration>
						<start>31110</start>
						<end>31128</end>
						<in>4188</in>
						<out>4206</out>
					</clipitem>
					<clipitem frameBlend="FALSE" id="audioclip-1503">
						<file id="file-1"/>
						<name>bandicam 2025-06-02 00-01-10-144 - Audio</name>
						<rate>
							<timebase>60</timebase>
							<ntsc>TRUE</ntsc>
						</rate>
						<rate>
							<timebase>60</timebase>
							<ntsc>TRUE</ntsc>
						</rate>
						<duration>66</duration>
						<start>31128</start>
						<end>31194</end>
						<in>4218</in>
						<out>4284</out>
					</clipitem>
					<clipitem frameBlend="FALSE" id="audioclip-1504">
						<file id="file-1"/>
						<name>bandicam 2025-06-02 00-01-10-144 - Audio</name>
						<rate>
							<timebase>60</timebase>
							<ntsc>TRUE</ntsc>
						</rate>
						<rate>
							<timebase>60</timebase>
							<ntsc>TRUE</ntsc>
						</rate>
						<duration>132</duration>
						<start>31194</start>
						<end>31326</end>
						<in>4302</in>
						<out>4434</out>
					</clipitem>
					<clipitem frameBlend="FALSE" id="audioclip-1505">
						<file id="file-1"/>
						<name>bandicam 2025-06-02 00-01-10-144 - Audio</name>
						<rate>
							<timebase>60</timebase>
							<ntsc>TRUE</ntsc>
						</rate>
						<rate>
							<timebase>60</timebase>
							<ntsc>TRUE</ntsc>
						</rate>
						<duration>12</duration>
						<start>31326</start>
						<end>31338</end>
						<in>4470</in>
						<out>4482</out>
					</clipitem>
					<clipitem frameBlend="FALSE" id="audioclip-1506">
						<file id="file-1"/>
						<name>bandicam 2025-06-02 00-01-10-144 - Audio</name>
						<rate>
							<timebase>60</timebase>
							<ntsc>TRUE</ntsc>
						</rate>
						<rate>
							<timebase>60</timebase>
							<ntsc>TRUE</ntsc>
						</rate>
						<duration>48</duration>
						<start>31338</start>
						<end>31386</end>
						<in>4506</in>
						<out>4554</out>
					</clipitem>
					<clipitem frameBlend="FALSE" id="audioclip-1507">
						<file id="file-1"/>
						<name>bandicam 2025-06-02 00-01-10-144 - Audio</name>
						<rate>
							<timebase>60</timebase>
							<ntsc>TRUE</ntsc>
						</rate>
						<rate>
							<timebase>60</timebase>
							<ntsc>TRUE</ntsc>
						</rate>
						<duration>30</duration>
						<start>31386</start>
						<end>31416</end>
						<in>4602</in>
						<out>4632</out>
					</clipitem>
					<clipitem frameBlend="FALSE" id="audioclip-1508">
						<file id="file-1"/>
						<name>bandicam 2025-06-02 00-01-10-144 - Audio</name>
						<rate>
							<timebase>60</timebase>
							<ntsc>TRUE</ntsc>
						</rate>
						<rate>
							<timebase>60</timebase>
							<ntsc>TRUE</ntsc>
						</rate>
						<duration>30</duration>
						<start>31416</start>
						<end>31446</end>
						<in>4650</in>
						<out>4680</out>
					</clipitem>
					<clipitem frameBlend="FALSE" id="audioclip-1509">
						<file id="file-1"/>
						<name>bandicam 2025-06-02 00-01-10-144 - Audio</name>
						<rate>
							<timebase>60</timebase>
							<ntsc>TRUE</ntsc>
						</rate>
						<rate>
							<timebase>60</timebase>
							<ntsc>TRUE</ntsc>
						</rate>
						<duration>0</duration>
						<start>31446</start>
						<end>31446</end>
						<in>4704</in>
						<out>4704</out>
					</clipitem>
					<clipitem frameBlend="FALSE" id="audioclip-1510">
						<file id="file-1"/>
						<name>bandicam 2025-06-02 00-01-10-144 - Audio</name>
						<rate>
							<timebase>60</timebase>
							<ntsc>TRUE</ntsc>
						</rate>
						<rate>
							<timebase>60</timebase>
							<ntsc>TRUE</ntsc>
						</rate>
						<duration>96</duration>
						<start>31446</start>
						<end>31542</end>
						<in>4722</in>
						<out>4818</out>
					</clipitem>
					<clipitem frameBlend="FALSE" id="audioclip-1511">
						<file id="file-1"/>
						<name>bandicam 2025-06-02 00-01-10-144 - Audio</name>
						<rate>
							<timebase>60</timebase>
							<ntsc>TRUE</ntsc>
						</rate>
						<rate>
							<timebase>60</timebase>
							<ntsc>TRUE</ntsc>
						</rate>
						<duration>0</duration>
						<start>31542</start>
						<end>31542</end>
						<in>4848</in>
						<out>4848</out>
					</clipitem>
					<clipitem frameBlend="FALSE" id="audioclip-1512">
						<file id="file-1"/>
						<name>bandicam 2025-06-02 00-01-10-144 - Audio</name>
						<rate>
							<timebase>60</timebase>
							<ntsc>TRUE</ntsc>
						</rate>
						<rate>
							<timebase>60</timebase>
							<ntsc>TRUE</ntsc>
						</rate>
						<duration>12</duration>
						<start>31542</start>
						<end>31554</end>
						<in>4860</in>
						<out>4872</out>
					</clipitem>
					<clipitem frameBlend="FALSE" id="audioclip-1513">
						<file id="file-1"/>
						<name>bandicam 2025-06-02 00-01-10-144 - Audio</name>
						<rate>
							<timebase>60</timebase>
							<ntsc>TRUE</ntsc>
						</rate>
						<rate>
							<timebase>60</timebase>
							<ntsc>TRUE</ntsc>
						</rate>
						<duration>6</duration>
						<start>31554</start>
						<end>31560</end>
						<in>4890</in>
						<out>4896</out>
					</clipitem>
					<clipitem frameBlend="FALSE" id="audioclip-1514">
						<file id="file-1"/>
						<name>bandicam 2025-06-02 00-01-10-144 - Audio</name>
						<rate>
							<timebase>60</timebase>
							<ntsc>TRUE</ntsc>
						</rate>
						<rate>
							<timebase>60</timebase>
							<ntsc>TRUE</ntsc>
						</rate>
						<duration>24</duration>
						<start>31560</start>
						<end>31584</end>
						<in>4908</in>
						<out>4932</out>
					</clipitem>
					<clipitem frameBlend="FALSE" id="audioclip-1515">
						<file id="file-1"/>
						<name>bandicam 2025-06-02 00-01-10-144 - Audio</name>
						<rate>
							<timebase>60</timebase>
							<ntsc>TRUE</ntsc>
						</rate>
						<rate>
							<timebase>60</timebase>
							<ntsc>TRUE</ntsc>
						</rate>
						<duration>30</duration>
						<start>31584</start>
						<end>31614</end>
						<in>4944</in>
						<out>4974</out>
					</clipitem>
					<clipitem frameBlend="FALSE" id="audioclip-1516">
						<file id="file-1"/>
						<name>bandicam 2025-06-02 00-01-10-144 - Audio</name>
						<rate>
							<timebase>60</timebase>
							<ntsc>TRUE</ntsc>
						</rate>
						<rate>
							<timebase>60</timebase>
							<ntsc>TRUE</ntsc>
						</rate>
						<duration>30</duration>
						<start>31614</start>
						<end>31644</end>
						<in>5016</in>
						<out>5046</out>
					</clipitem>
					<clipitem frameBlend="FALSE" id="audioclip-1517">
						<file id="file-1"/>
						<name>bandicam 2025-06-02 00-01-10-144 - Audio</name>
						<rate>
							<timebase>60</timebase>
							<ntsc>TRUE</ntsc>
						</rate>
						<rate>
							<timebase>60</timebase>
							<ntsc>TRUE</ntsc>
						</rate>
						<duration>6</duration>
						<start>31644</start>
						<end>31650</end>
						<in>5064</in>
						<out>5070</out>
					</clipitem>
					<clipitem frameBlend="FALSE" id="audioclip-1518">
						<file id="file-1"/>
						<name>bandicam 2025-06-02 00-01-10-144 - Audio</name>
						<rate>
							<timebase>60</timebase>
							<ntsc>TRUE</ntsc>
						</rate>
						<rate>
							<timebase>60</timebase>
							<ntsc>TRUE</ntsc>
						</rate>
						<duration>96</duration>
						<start>31650</start>
						<end>31746</end>
						<in>5082</in>
						<out>5178</out>
					</clipitem>
					<clipitem frameBlend="FALSE" id="audioclip-1519">
						<file id="file-1"/>
						<name>bandicam 2025-06-02 00-01-10-144 - Audio</name>
						<rate>
							<timebase>60</timebase>
							<ntsc>TRUE</ntsc>
						</rate>
						<rate>
							<timebase>60</timebase>
							<ntsc>TRUE</ntsc>
						</rate>
						<duration>30</duration>
						<start>31746</start>
						<end>31776</end>
						<in>5232</in>
						<out>5262</out>
					</clipitem>
					<clipitem frameBlend="FALSE" id="audioclip-1520">
						<file id="file-1"/>
						<name>bandicam 2025-06-02 00-01-10-144 - Audio</name>
						<rate>
							<timebase>60</timebase>
							<ntsc>TRUE</ntsc>
						</rate>
						<rate>
							<timebase>60</timebase>
							<ntsc>TRUE</ntsc>
						</rate>
						<duration>12</duration>
						<start>31776</start>
						<end>31788</end>
						<in>5328</in>
						<out>5340</out>
					</clipitem>
					<clipitem frameBlend="FALSE" id="audioclip-1521">
						<file id="file-1"/>
						<name>bandicam 2025-06-02 00-01-10-144 - Audio</name>
						<rate>
							<timebase>60</timebase>
							<ntsc>TRUE</ntsc>
						</rate>
						<rate>
							<timebase>60</timebase>
							<ntsc>TRUE</ntsc>
						</rate>
						<duration>12</duration>
						<start>31788</start>
						<end>31800</end>
						<in>5352</in>
						<out>5364</out>
					</clipitem>
					<clipitem frameBlend="FALSE" id="audioclip-1522">
						<file id="file-1"/>
						<name>bandicam 2025-06-02 00-01-10-144 - Audio</name>
						<rate>
							<timebase>60</timebase>
							<ntsc>TRUE</ntsc>
						</rate>
						<rate>
							<timebase>60</timebase>
							<ntsc>TRUE</ntsc>
						</rate>
						<duration>84</duration>
						<start>31800</start>
						<end>31884</end>
						<in>5382</in>
						<out>5466</out>
					</clipitem>
					<clipitem frameBlend="FALSE" id="audioclip-1523">
						<file id="file-1"/>
						<name>bandicam 2025-06-02 00-01-10-144 - Audio</name>
						<rate>
							<timebase>60</timebase>
							<ntsc>TRUE</ntsc>
						</rate>
						<rate>
							<timebase>60</timebase>
							<ntsc>TRUE</ntsc>
						</rate>
						<duration>30</duration>
						<start>31884</start>
						<end>31914</end>
						<in>5490</in>
						<out>5520</out>
					</clipitem>
					<clipitem frameBlend="FALSE" id="audioclip-1524">
						<file id="file-1"/>
						<name>bandicam 2025-06-02 00-01-10-144 - Audio</name>
						<rate>
							<timebase>60</timebase>
							<ntsc>TRUE</ntsc>
						</rate>
						<rate>
							<timebase>60</timebase>
							<ntsc>TRUE</ntsc>
						</rate>
						<duration>66</duration>
						<start>31914</start>
						<end>31980</end>
						<in>5532</in>
						<out>5598</out>
					</clipitem>
					<clipitem frameBlend="FALSE" id="audioclip-1525">
						<file id="file-1"/>
						<name>bandicam 2025-06-02 00-01-10-144 - Audio</name>
						<rate>
							<timebase>60</timebase>
							<ntsc>TRUE</ntsc>
						</rate>
						<rate>
							<timebase>60</timebase>
							<ntsc>TRUE</ntsc>
						</rate>
						<duration>24</duration>
						<start>31980</start>
						<end>32004</end>
						<in>5622</in>
						<out>5646</out>
					</clipitem>
					<clipitem frameBlend="FALSE" id="audioclip-1526">
						<file id="file-1"/>
						<name>bandicam 2025-06-02 00-01-10-144 - Audio</name>
						<rate>
							<timebase>60</timebase>
							<ntsc>TRUE</ntsc>
						</rate>
						<rate>
							<timebase>60</timebase>
							<ntsc>TRUE</ntsc>
						</rate>
						<duration>30</duration>
						<start>32004</start>
						<end>32034</end>
						<in>5664</in>
						<out>5694</out>
					</clipitem>
					<clipitem frameBlend="FALSE" id="audioclip-1527">
						<file id="file-1"/>
						<name>bandicam 2025-06-02 00-01-10-144 - Audio</name>
						<rate>
							<timebase>60</timebase>
							<ntsc>TRUE</ntsc>
						</rate>
						<rate>
							<timebase>60</timebase>
							<ntsc>TRUE</ntsc>
						</rate>
						<duration>66</duration>
						<start>32034</start>
						<end>32100</end>
						<in>5712</in>
						<out>5778</out>
					</clipitem>
					<clipitem frameBlend="FALSE" id="audioclip-1528">
						<file id="file-1"/>
						<name>bandicam 2025-06-02 00-01-10-144 - Audio</name>
						<rate>
							<timebase>60</timebase>
							<ntsc>TRUE</ntsc>
						</rate>
						<rate>
							<timebase>60</timebase>
							<ntsc>TRUE</ntsc>
						</rate>
						<duration>282</duration>
						<start>32100</start>
						<end>32382</end>
						<in>5802</in>
						<out>6084</out>
					</clipitem>
					<clipitem frameBlend="FALSE" id="audioclip-1529">
						<file id="file-1"/>
						<name>bandicam 2025-06-02 00-01-10-144 - Audio</name>
						<rate>
							<timebase>60</timebase>
							<ntsc>TRUE</ntsc>
						</rate>
						<rate>
							<timebase>60</timebase>
							<ntsc>TRUE</ntsc>
						</rate>
						<duration>0</duration>
						<start>32382</start>
						<end>32382</end>
						<in>6132</in>
						<out>6132</out>
					</clipitem>
					<clipitem frameBlend="FALSE" id="audioclip-1530">
						<file id="file-1"/>
						<name>bandicam 2025-06-02 00-01-10-144 - Audio</name>
						<rate>
							<timebase>60</timebase>
							<ntsc>TRUE</ntsc>
						</rate>
						<rate>
							<timebase>60</timebase>
							<ntsc>TRUE</ntsc>
						</rate>
						<duration>60</duration>
						<start>32382</start>
						<end>32442</end>
						<in>6150</in>
						<out>6210</out>
					</clipitem>
					<clipitem frameBlend="FALSE" id="audioclip-1531">
						<file id="file-1"/>
						<name>bandicam 2025-06-02 00-01-10-144 - Audio</name>
						<rate>
							<timebase>60</timebase>
							<ntsc>TRUE</ntsc>
						</rate>
						<rate>
							<timebase>60</timebase>
							<ntsc>TRUE</ntsc>
						</rate>
						<duration>36</duration>
						<start>32442</start>
						<end>32478</end>
						<in>6222</in>
						<out>6258</out>
					</clipitem>
					<clipitem frameBlend="FALSE" id="audioclip-1532">
						<file id="file-1"/>
						<name>bandicam 2025-06-02 00-01-10-144 - Audio</name>
						<rate>
							<timebase>60</timebase>
							<ntsc>TRUE</ntsc>
						</rate>
						<rate>
							<timebase>60</timebase>
							<ntsc>TRUE</ntsc>
						</rate>
						<duration>0</duration>
						<start>32478</start>
						<end>32478</end>
						<in>6282</in>
						<out>6282</out>
					</clipitem>
					<clipitem frameBlend="FALSE" id="audioclip-1533">
						<file id="file-1"/>
						<name>bandicam 2025-06-02 00-01-10-144 - Audio</name>
						<rate>
							<timebase>60</timebase>
							<ntsc>TRUE</ntsc>
						</rate>
						<rate>
							<timebase>60</timebase>
							<ntsc>TRUE</ntsc>
						</rate>
						<duration>0</duration>
						<start>32478</start>
						<end>32478</end>
						<in>6300</in>
						<out>6300</out>
					</clipitem>
					<clipitem frameBlend="FALSE" id="audioclip-1534">
						<file id="file-1"/>
						<name>bandicam 2025-06-02 00-01-10-144 - Audio</name>
						<rate>
							<timebase>60</timebase>
							<ntsc>TRUE</ntsc>
						</rate>
						<rate>
							<timebase>60</timebase>
							<ntsc>TRUE</ntsc>
						</rate>
						<duration>30</duration>
						<start>32478</start>
						<end>32508</end>
						<in>6312</in>
						<out>6342</out>
					</clipitem>
					<clipitem frameBlend="FALSE" id="audioclip-1535">
						<file id="file-1"/>
						<name>bandicam 2025-06-02 00-01-10-144 - Audio</name>
						<rate>
							<timebase>60</timebase>
							<ntsc>TRUE</ntsc>
						</rate>
						<rate>
							<timebase>60</timebase>
							<ntsc>TRUE</ntsc>
						</rate>
						<duration>30</duration>
						<start>32508</start>
						<end>32538</end>
						<in>6384</in>
						<out>6414</out>
					</clipitem>
					<clipitem frameBlend="FALSE" id="audioclip-1536">
						<file id="file-1"/>
						<name>bandicam 2025-06-02 00-01-10-144 - Audio</name>
						<rate>
							<timebase>60</timebase>
							<ntsc>TRUE</ntsc>
						</rate>
						<rate>
							<timebase>60</timebase>
							<ntsc>TRUE</ntsc>
						</rate>
						<duration>24</duration>
						<start>32538</start>
						<end>32562</end>
						<in>6432</in>
						<out>6456</out>
					</clipitem>
					<clipitem frameBlend="FALSE" id="audioclip-1537">
						<file id="file-1"/>
						<name>bandicam 2025-06-02 00-01-10-144 - Audio</name>
						<rate>
							<timebase>60</timebase>
							<ntsc>TRUE</ntsc>
						</rate>
						<rate>
							<timebase>60</timebase>
							<ntsc>TRUE</ntsc>
						</rate>
						<duration>120</duration>
						<start>32562</start>
						<end>32682</end>
						<in>6468</in>
						<out>6588</out>
					</clipitem>
					<clipitem frameBlend="FALSE" id="audioclip-1538">
						<file id="file-1"/>
						<name>bandicam 2025-06-02 00-01-10-144 - Audio</name>
						<rate>
							<timebase>60</timebase>
							<ntsc>TRUE</ntsc>
						</rate>
						<rate>
							<timebase>60</timebase>
							<ntsc>TRUE</ntsc>
						</rate>
						<duration>24</duration>
						<start>32682</start>
						<end>32706</end>
						<in>6612</in>
						<out>6636</out>
					</clipitem>
					<clipitem frameBlend="FALSE" id="audioclip-1539">
						<file id="file-1"/>
						<name>bandicam 2025-06-02 00-01-10-144 - Audio</name>
						<rate>
							<timebase>60</timebase>
							<ntsc>TRUE</ntsc>
						</rate>
						<rate>
							<timebase>60</timebase>
							<ntsc>TRUE</ntsc>
						</rate>
						<duration>0</duration>
						<start>32706</start>
						<end>32706</end>
						<in>6714</in>
						<out>6714</out>
					</clipitem>
					<clipitem frameBlend="FALSE" id="audioclip-1540">
						<file id="file-1"/>
						<name>bandicam 2025-06-02 00-01-10-144 - Audio</name>
						<rate>
							<timebase>60</timebase>
							<ntsc>TRUE</ntsc>
						</rate>
						<rate>
							<timebase>60</timebase>
							<ntsc>TRUE</ntsc>
						</rate>
						<duration>0</duration>
						<start>32706</start>
						<end>32706</end>
						<in>6732</in>
						<out>6732</out>
					</clipitem>
					<clipitem frameBlend="FALSE" id="audioclip-1541">
						<file id="file-1"/>
						<name>bandicam 2025-06-02 00-01-10-144 - Audio</name>
						<rate>
							<timebase>60</timebase>
							<ntsc>TRUE</ntsc>
						</rate>
						<rate>
							<timebase>60</timebase>
							<ntsc>TRUE</ntsc>
						</rate>
						<duration>18</duration>
						<start>32706</start>
						<end>32724</end>
						<in>6750</in>
						<out>6768</out>
					</clipitem>
					<clipitem frameBlend="FALSE" id="audioclip-1542">
						<file id="file-1"/>
						<name>bandicam 2025-06-02 00-01-10-144 - Audio</name>
						<rate>
							<timebase>60</timebase>
							<ntsc>TRUE</ntsc>
						</rate>
						<rate>
							<timebase>60</timebase>
							<ntsc>TRUE</ntsc>
						</rate>
						<duration>60</duration>
						<start>32724</start>
						<end>32784</end>
						<in>6798</in>
						<out>6858</out>
					</clipitem>
					<clipitem frameBlend="FALSE" id="audioclip-1543">
						<file id="file-1"/>
						<name>bandicam 2025-06-02 00-01-10-144 - Audio</name>
						<rate>
							<timebase>60</timebase>
							<ntsc>TRUE</ntsc>
						</rate>
						<rate>
							<timebase>60</timebase>
							<ntsc>TRUE</ntsc>
						</rate>
						<duration>6</duration>
						<start>32784</start>
						<end>32790</end>
						<in>6894</in>
						<out>6900</out>
					</clipitem>
					<clipitem frameBlend="FALSE" id="audioclip-1544">
						<file id="file-1"/>
						<name>bandicam 2025-06-02 00-01-10-144 - Audio</name>
						<rate>
							<timebase>60</timebase>
							<ntsc>TRUE</ntsc>
						</rate>
						<rate>
							<timebase>60</timebase>
							<ntsc>TRUE</ntsc>
						</rate>
						<duration>30</duration>
						<start>32790</start>
						<end>32820</end>
						<in>6912</in>
						<out>6942</out>
					</clipitem>
					<clipitem frameBlend="FALSE" id="audioclip-1545">
						<file id="file-1"/>
						<name>bandicam 2025-06-02 00-01-10-144 - Audio</name>
						<rate>
							<timebase>60</timebase>
							<ntsc>TRUE</ntsc>
						</rate>
						<rate>
							<timebase>60</timebase>
							<ntsc>TRUE</ntsc>
						</rate>
						<duration>0</duration>
						<start>32820</start>
						<end>32820</end>
						<in>6954</in>
						<out>6954</out>
					</clipitem>
					<clipitem frameBlend="FALSE" id="audioclip-1546">
						<file id="file-1"/>
						<name>bandicam 2025-06-02 00-01-10-144 - Audio</name>
						<rate>
							<timebase>60</timebase>
							<ntsc>TRUE</ntsc>
						</rate>
						<rate>
							<timebase>60</timebase>
							<ntsc>TRUE</ntsc>
						</rate>
						<duration>0</duration>
						<start>32820</start>
						<end>32820</end>
						<in>7002</in>
						<out>7002</out>
					</clipitem>
					<clipitem frameBlend="FALSE" id="audioclip-1547">
						<file id="file-1"/>
						<name>bandicam 2025-06-02 00-01-10-144 - Audio</name>
						<rate>
							<timebase>60</timebase>
							<ntsc>TRUE</ntsc>
						</rate>
						<rate>
							<timebase>60</timebase>
							<ntsc>TRUE</ntsc>
						</rate>
						<duration>24</duration>
						<start>32820</start>
						<end>32844</end>
						<in>7026</in>
						<out>7050</out>
					</clipitem>
					<clipitem frameBlend="FALSE" id="audioclip-1548">
						<file id="file-1"/>
						<name>bandicam 2025-06-02 00-01-10-144 - Audio</name>
						<rate>
							<timebase>60</timebase>
							<ntsc>TRUE</ntsc>
						</rate>
						<rate>
							<timebase>60</timebase>
							<ntsc>TRUE</ntsc>
						</rate>
						<duration>6</duration>
						<start>32844</start>
						<end>32850</end>
						<in>114</in>
						<out>120</out>
					</clipitem>
					<clipitem frameBlend="FALSE" id="audioclip-1549">
						<file id="file-1"/>
						<name>bandicam 2025-06-02 00-01-10-144 - Audio</name>
						<rate>
							<timebase>60</timebase>
							<ntsc>TRUE</ntsc>
						</rate>
						<rate>
							<timebase>60</timebase>
							<ntsc>TRUE</ntsc>
						</rate>
						<duration>6</duration>
						<start>32850</start>
						<end>32856</end>
						<in>1410</in>
						<out>1416</out>
					</clipitem>
					<clipitem frameBlend="FALSE" id="audioclip-1550">
						<file id="file-1"/>
						<name>bandicam 2025-06-02 00-01-10-144 - Audio</name>
						<rate>
							<timebase>60</timebase>
							<ntsc>TRUE</ntsc>
						</rate>
						<rate>
							<timebase>60</timebase>
							<ntsc>TRUE</ntsc>
						</rate>
						<duration>0</duration>
						<start>32856</start>
						<end>32856</end>
						<in>1704</in>
						<out>1704</out>
					</clipitem>
					<clipitem frameBlend="FALSE" id="audioclip-1551">
						<file id="file-1"/>
						<name>bandicam 2025-06-02 00-01-10-144 - Audio</name>
						<rate>
							<timebase>60</timebase>
							<ntsc>TRUE</ntsc>
						</rate>
						<rate>
							<timebase>60</timebase>
							<ntsc>TRUE</ntsc>
						</rate>
						<duration>12</duration>
						<start>32856</start>
						<end>32868</end>
						<in>1746</in>
						<out>1758</out>
					</clipitem>
					<clipitem frameBlend="FALSE" id="audioclip-1552">
						<file id="file-1"/>
						<name>bandicam 2025-06-02 00-01-10-144 - Audio</name>
						<rate>
							<timebase>60</timebase>
							<ntsc>TRUE</ntsc>
						</rate>
						<rate>
							<timebase>60</timebase>
							<ntsc>TRUE</ntsc>
						</rate>
						<duration>0</duration>
						<start>32868</start>
						<end>32868</end>
						<in>1890</in>
						<out>1890</out>
					</clipitem>
					<clipitem frameBlend="FALSE" id="audioclip-1553">
						<file id="file-1"/>
						<name>bandicam 2025-06-02 00-01-10-144 - Audio</name>
						<rate>
							<timebase>60</timebase>
							<ntsc>TRUE</ntsc>
						</rate>
						<rate>
							<timebase>60</timebase>
							<ntsc>TRUE</ntsc>
						</rate>
						<duration>6</duration>
						<start>32868</start>
						<end>32874</end>
						<in>2448</in>
						<out>2454</out>
					</clipitem>
					<clipitem frameBlend="FALSE" id="audioclip-1554">
						<file id="file-1"/>
						<name>bandicam 2025-06-02 00-01-10-144 - Audio</name>
						<rate>
							<timebase>60</timebase>
							<ntsc>TRUE</ntsc>
						</rate>
						<rate>
							<timebase>60</timebase>
							<ntsc>TRUE</ntsc>
						</rate>
						<duration>12</duration>
						<start>32874</start>
						<end>32886</end>
						<in>2742</in>
						<out>2754</out>
					</clipitem>
					<clipitem frameBlend="FALSE" id="audioclip-1555">
						<file id="file-1"/>
						<name>bandicam 2025-06-02 00-01-10-144 - Audio</name>
						<rate>
							<timebase>60</timebase>
							<ntsc>TRUE</ntsc>
						</rate>
						<rate>
							<timebase>60</timebase>
							<ntsc>TRUE</ntsc>
						</rate>
						<duration>6</duration>
						<start>32886</start>
						<end>32892</end>
						<in>2766</in>
						<out>2772</out>
					</clipitem>
					<clipitem frameBlend="FALSE" id="audioclip-1556">
						<file id="file-1"/>
						<name>bandicam 2025-06-02 00-01-10-144 - Audio</name>
						<rate>
							<timebase>60</timebase>
							<ntsc>TRUE</ntsc>
						</rate>
						<rate>
							<timebase>60</timebase>
							<ntsc>TRUE</ntsc>
						</rate>
						<duration>18</duration>
						<start>32892</start>
						<end>32910</end>
						<in>2802</in>
						<out>2820</out>
					</clipitem>
					<clipitem frameBlend="FALSE" id="audioclip-1557">
						<file id="file-1"/>
						<name>bandicam 2025-06-02 00-01-10-144 - Audio</name>
						<rate>
							<timebase>60</timebase>
							<ntsc>TRUE</ntsc>
						</rate>
						<rate>
							<timebase>60</timebase>
							<ntsc>TRUE</ntsc>
						</rate>
						<duration>30</duration>
						<start>32910</start>
						<end>32940</end>
						<in>3072</in>
						<out>3102</out>
					</clipitem>
					<clipitem frameBlend="FALSE" id="audioclip-1558">
						<file id="file-1"/>
						<name>bandicam 2025-06-02 00-01-10-144 - Audio</name>
						<rate>
							<timebase>60</timebase>
							<ntsc>TRUE</ntsc>
						</rate>
						<rate>
							<timebase>60</timebase>
							<ntsc>TRUE</ntsc>
						</rate>
						<duration>18</duration>
						<start>32940</start>
						<end>32958</end>
						<in>3270</in>
						<out>3288</out>
					</clipitem>
					<clipitem frameBlend="FALSE" id="audioclip-1559">
						<file id="file-1"/>
						<name>bandicam 2025-06-02 00-01-10-144 - Audio</name>
						<rate>
							<timebase>60</timebase>
							<ntsc>TRUE</ntsc>
						</rate>
						<rate>
							<timebase>60</timebase>
							<ntsc>TRUE</ntsc>
						</rate>
						<duration>0</duration>
						<start>32958</start>
						<end>32958</end>
						<in>3630</in>
						<out>3630</out>
					</clipitem>
					<clipitem frameBlend="FALSE" id="audioclip-1560">
						<file id="file-1"/>
						<name>bandicam 2025-06-02 00-01-10-144 - Audio</name>
						<rate>
							<timebase>60</timebase>
							<ntsc>TRUE</ntsc>
						</rate>
						<rate>
							<timebase>60</timebase>
							<ntsc>TRUE</ntsc>
						</rate>
						<duration>6</duration>
						<start>32958</start>
						<end>32964</end>
						<in>4086</in>
						<out>4092</out>
					</clipitem>
					<clipitem frameBlend="FALSE" id="audioclip-1561">
						<file id="file-1"/>
						<name>bandicam 2025-06-02 00-01-10-144 - Audio</name>
						<rate>
							<timebase>60</timebase>
							<ntsc>TRUE</ntsc>
						</rate>
						<rate>
							<timebase>60</timebase>
							<ntsc>TRUE</ntsc>
						</rate>
						<duration>6</duration>
						<start>32964</start>
						<end>32970</end>
						<in>4104</in>
						<out>4110</out>
					</clipitem>
					<clipitem frameBlend="FALSE" id="audioclip-1562">
						<file id="file-1"/>
						<name>bandicam 2025-06-02 00-01-10-144 - Audio</name>
						<rate>
							<timebase>60</timebase>
							<ntsc>TRUE</ntsc>
						</rate>
						<rate>
							<timebase>60</timebase>
							<ntsc>TRUE</ntsc>
						</rate>
						<duration>0</duration>
						<start>32970</start>
						<end>32970</end>
						<in>4134</in>
						<out>4134</out>
					</clipitem>
					<clipitem frameBlend="FALSE" id="audioclip-1563">
						<file id="file-1"/>
						<name>bandicam 2025-06-02 00-01-10-144 - Audio</name>
						<rate>
							<timebase>60</timebase>
							<ntsc>TRUE</ntsc>
						</rate>
						<rate>
							<timebase>60</timebase>
							<ntsc>TRUE</ntsc>
						</rate>
						<duration>6</duration>
						<start>32970</start>
						<end>32976</end>
						<in>4188</in>
						<out>4194</out>
					</clipitem>
					<clipitem frameBlend="FALSE" id="audioclip-1564">
						<file id="file-1"/>
						<name>bandicam 2025-06-02 00-01-10-144 - Audio</name>
						<rate>
							<timebase>60</timebase>
							<ntsc>TRUE</ntsc>
						</rate>
						<rate>
							<timebase>60</timebase>
							<ntsc>TRUE</ntsc>
						</rate>
						<duration>0</duration>
						<start>32976</start>
						<end>32976</end>
						<in>4230</in>
						<out>4230</out>
					</clipitem>
					<clipitem frameBlend="FALSE" id="audioclip-1565">
						<file id="file-1"/>
						<name>bandicam 2025-06-02 00-01-10-144 - Audio</name>
						<rate>
							<timebase>60</timebase>
							<ntsc>TRUE</ntsc>
						</rate>
						<rate>
							<timebase>60</timebase>
							<ntsc>TRUE</ntsc>
						</rate>
						<duration>6</duration>
						<start>32976</start>
						<end>32982</end>
						<in>4242</in>
						<out>4248</out>
					</clipitem>
					<clipitem frameBlend="FALSE" id="audioclip-1566">
						<file id="file-1"/>
						<name>bandicam 2025-06-02 00-01-10-144 - Audio</name>
						<rate>
							<timebase>60</timebase>
							<ntsc>TRUE</ntsc>
						</rate>
						<rate>
							<timebase>60</timebase>
							<ntsc>TRUE</ntsc>
						</rate>
						<duration>12</duration>
						<start>32982</start>
						<end>32994</end>
						<in>4308</in>
						<out>4320</out>
					</clipitem>
					<clipitem frameBlend="FALSE" id="audioclip-1567">
						<file id="file-1"/>
						<name>bandicam 2025-06-02 00-01-10-144 - Audio</name>
						<rate>
							<timebase>60</timebase>
							<ntsc>TRUE</ntsc>
						</rate>
						<rate>
							<timebase>60</timebase>
							<ntsc>TRUE</ntsc>
						</rate>
						<duration>18</duration>
						<start>32994</start>
						<end>33012</end>
						<in>4338</in>
						<out>4356</out>
					</clipitem>
					<clipitem frameBlend="FALSE" id="audioclip-1568">
						<file id="file-1"/>
						<name>bandicam 2025-06-02 00-01-10-144 - Audio</name>
						<rate>
							<timebase>60</timebase>
							<ntsc>TRUE</ntsc>
						</rate>
						<rate>
							<timebase>60</timebase>
							<ntsc>TRUE</ntsc>
						</rate>
						<duration>0</duration>
						<start>33012</start>
						<end>33012</end>
						<in>4368</in>
						<out>4368</out>
					</clipitem>
					<clipitem frameBlend="FALSE" id="audioclip-1569">
						<file id="file-1"/>
						<name>bandicam 2025-06-02 00-01-10-144 - Audio</name>
						<rate>
							<timebase>60</timebase>
							<ntsc>TRUE</ntsc>
						</rate>
						<rate>
							<timebase>60</timebase>
							<ntsc>TRUE</ntsc>
						</rate>
						<duration>6</duration>
						<start>33012</start>
						<end>33018</end>
						<in>4506</in>
						<out>4512</out>
					</clipitem>
					<clipitem frameBlend="FALSE" id="audioclip-1570">
						<file id="file-1"/>
						<name>bandicam 2025-06-02 00-01-10-144 - Audio</name>
						<rate>
							<timebase>60</timebase>
							<ntsc>TRUE</ntsc>
						</rate>
						<rate>
							<timebase>60</timebase>
							<ntsc>TRUE</ntsc>
						</rate>
						<duration>0</duration>
						<start>33018</start>
						<end>33018</end>
						<in>4602</in>
						<out>4602</out>
					</clipitem>
					<clipitem frameBlend="FALSE" id="audioclip-1571">
						<file id="file-1"/>
						<name>bandicam 2025-06-02 00-01-10-144 - Audio</name>
						<rate>
							<timebase>60</timebase>
							<ntsc>TRUE</ntsc>
						</rate>
						<rate>
							<timebase>60</timebase>
							<ntsc>TRUE</ntsc>
						</rate>
						<duration>6</duration>
						<start>33018</start>
						<end>33024</end>
						<in>4614</in>
						<out>4620</out>
					</clipitem>
					<clipitem frameBlend="FALSE" id="audioclip-1572">
						<file id="file-1"/>
						<name>bandicam 2025-06-02 00-01-10-144 - Audio</name>
						<rate>
							<timebase>60</timebase>
							<ntsc>TRUE</ntsc>
						</rate>
						<rate>
							<timebase>60</timebase>
							<ntsc>TRUE</ntsc>
						</rate>
						<duration>0</duration>
						<start>33024</start>
						<end>33024</end>
						<in>4722</in>
						<out>4722</out>
					</clipitem>
					<clipitem frameBlend="FALSE" id="audioclip-1573">
						<file id="file-1"/>
						<name>bandicam 2025-06-02 00-01-10-144 - Audio</name>
						<rate>
							<timebase>60</timebase>
							<ntsc>TRUE</ntsc>
						</rate>
						<rate>
							<timebase>60</timebase>
							<ntsc>TRUE</ntsc>
						</rate>
						<duration>6</duration>
						<start>33024</start>
						<end>33030</end>
						<in>5112</in>
						<out>5118</out>
					</clipitem>
					<clipitem frameBlend="FALSE" id="audioclip-1574">
						<file id="file-1"/>
						<name>bandicam 2025-06-02 00-01-10-144 - Audio</name>
						<rate>
							<timebase>60</timebase>
							<ntsc>TRUE</ntsc>
						</rate>
						<rate>
							<timebase>60</timebase>
							<ntsc>TRUE</ntsc>
						</rate>
						<duration>6</duration>
						<start>33030</start>
						<end>33036</end>
						<in>5142</in>
						<out>5148</out>
					</clipitem>
					<clipitem frameBlend="FALSE" id="audioclip-1575">
						<file id="file-1"/>
						<name>bandicam 2025-06-02 00-01-10-144 - Audio</name>
						<rate>
							<timebase>60</timebase>
							<ntsc>TRUE</ntsc>
						</rate>
						<rate>
							<timebase>60</timebase>
							<ntsc>TRUE</ntsc>
						</rate>
						<duration>12</duration>
						<start>33036</start>
						<end>33048</end>
						<in>5160</in>
						<out>5172</out>
					</clipitem>
					<clipitem frameBlend="FALSE" id="audioclip-1576">
						<file id="file-1"/>
						<name>bandicam 2025-06-02 00-01-10-144 - Audio</name>
						<rate>
							<timebase>60</timebase>
							<ntsc>TRUE</ntsc>
						</rate>
						<rate>
							<timebase>60</timebase>
							<ntsc>TRUE</ntsc>
						</rate>
						<duration>0</duration>
						<start>33048</start>
						<end>33048</end>
						<in>5340</in>
						<out>5340</out>
					</clipitem>
					<clipitem frameBlend="FALSE" id="audioclip-1577">
						<file id="file-1"/>
						<name>bandicam 2025-06-02 00-01-10-144 - Audio</name>
						<rate>
							<timebase>60</timebase>
							<ntsc>TRUE</ntsc>
						</rate>
						<rate>
							<timebase>60</timebase>
							<ntsc>TRUE</ntsc>
						</rate>
						<duration>0</duration>
						<start>33048</start>
						<end>33048</end>
						<in>5448</in>
						<out>5448</out>
					</clipitem>
					<clipitem frameBlend="FALSE" id="audioclip-1578">
						<file id="file-1"/>
						<name>bandicam 2025-06-02 00-01-10-144 - Audio</name>
						<rate>
							<timebase>60</timebase>
							<ntsc>TRUE</ntsc>
						</rate>
						<rate>
							<timebase>60</timebase>
							<ntsc>TRUE</ntsc>
						</rate>
						<duration>0</duration>
						<start>33048</start>
						<end>33048</end>
						<in>5592</in>
						<out>5592</out>
					</clipitem>
					<clipitem frameBlend="FALSE" id="audioclip-1579">
						<file id="file-1"/>
						<name>bandicam 2025-06-02 00-01-10-144 - Audio</name>
						<rate>
							<timebase>60</timebase>
							<ntsc>TRUE</ntsc>
						</rate>
						<rate>
							<timebase>60</timebase>
							<ntsc>TRUE</ntsc>
						</rate>
						<duration>18</duration>
						<start>33048</start>
						<end>33066</end>
						<in>5670</in>
						<out>5688</out>
					</clipitem>
					<clipitem frameBlend="FALSE" id="audioclip-1580">
						<file id="file-1"/>
						<name>bandicam 2025-06-02 00-01-10-144 - Audio</name>
						<rate>
							<timebase>60</timebase>
							<ntsc>TRUE</ntsc>
						</rate>
						<rate>
							<timebase>60</timebase>
							<ntsc>TRUE</ntsc>
						</rate>
						<duration>18</duration>
						<start>33066</start>
						<end>33084</end>
						<in>5760</in>
						<out>5778</out>
					</clipitem>
					<clipitem frameBlend="FALSE" id="audioclip-1581">
						<file id="file-1"/>
						<name>bandicam 2025-06-02 00-01-10-144 - Audio</name>
						<rate>
							<timebase>60</timebase>
							<ntsc>TRUE</ntsc>
						</rate>
						<rate>
							<timebase>60</timebase>
							<ntsc>TRUE</ntsc>
						</rate>
						<duration>72</duration>
						<start>33084</start>
						<end>33156</end>
						<in>5802</in>
						<out>5874</out>
					</clipitem>
					<clipitem frameBlend="FALSE" id="audioclip-1582">
						<file id="file-1"/>
						<name>bandicam 2025-06-02 00-01-10-144 - Audio</name>
						<rate>
							<timebase>60</timebase>
							<ntsc>TRUE</ntsc>
						</rate>
						<rate>
							<timebase>60</timebase>
							<ntsc>TRUE</ntsc>
						</rate>
						<duration>48</duration>
						<start>33156</start>
						<end>33204</end>
						<in>5910</in>
						<out>5958</out>
					</clipitem>
					<clipitem frameBlend="FALSE" id="audioclip-1583">
						<file id="file-1"/>
						<name>bandicam 2025-06-02 00-01-10-144 - Audio</name>
						<rate>
							<timebase>60</timebase>
							<ntsc>TRUE</ntsc>
						</rate>
						<rate>
							<timebase>60</timebase>
							<ntsc>TRUE</ntsc>
						</rate>
						<duration>0</duration>
						<start>33204</start>
						<end>33204</end>
						<in>6000</in>
						<out>6000</out>
					</clipitem>
					<clipitem frameBlend="FALSE" id="audioclip-1584">
						<file id="file-1"/>
						<name>bandicam 2025-06-02 00-01-10-144 - Audio</name>
						<rate>
							<timebase>60</timebase>
							<ntsc>TRUE</ntsc>
						</rate>
						<rate>
							<timebase>60</timebase>
							<ntsc>TRUE</ntsc>
						</rate>
						<duration>18</duration>
						<start>33204</start>
						<end>33222</end>
						<in>6012</in>
						<out>6030</out>
					</clipitem>
					<clipitem frameBlend="FALSE" id="audioclip-1585">
						<file id="file-1"/>
						<name>bandicam 2025-06-02 00-01-10-144 - Audio</name>
						<rate>
							<timebase>60</timebase>
							<ntsc>TRUE</ntsc>
						</rate>
						<rate>
							<timebase>60</timebase>
							<ntsc>TRUE</ntsc>
						</rate>
						<duration>24</duration>
						<start>33222</start>
						<end>33246</end>
						<in>6156</in>
						<out>6180</out>
					</clipitem>
					<clipitem frameBlend="FALSE" id="audioclip-1586">
						<file id="file-1"/>
						<name>bandicam 2025-06-02 00-01-10-144 - Audio</name>
						<rate>
							<timebase>60</timebase>
							<ntsc>TRUE</ntsc>
						</rate>
						<rate>
							<timebase>60</timebase>
							<ntsc>TRUE</ntsc>
						</rate>
						<duration>0</duration>
						<start>33246</start>
						<end>33246</end>
						<in>6234</in>
						<out>6234</out>
					</clipitem>
				</track>
			</audio>
		</media>
	</sequence>
</xmeml>