<?xml version="1.0" ?>
<xmeml version="4">
    <project>
        <name>bandicam 2025-06-02 00-01-10-144</name>
        <children>
            <sequence id="sequence-1">
                <name>bandicam 2025-06-02 00-01-10-144</name>
                <duration>14276</duration>
                <rate>
                    <timebase>60</timebase>
                    <ntsc>TRUE</ntsc>
                </rate>
                <media>
                    <video>
                        <format/>
                        <track>
                            <clipitem frameBlend="FALSE" id="clipitem-1">
                                <file id="file-1">
                                    <pathurl>file://localhost/D%3A/%E5%88%87%E3%82%8A%E6%8A%9C%E3%81%8D/2025-6/2025-6-02/bandicam%202025-06-02%2000-01-10-144.mp4</pathurl>
                                    <name>bandicam%202025-06-02%2000-01-10-144.mp4</name>
                                    <rate>
                                        <timebase>60</timebase>
                                        <ntsc>TRUE</ntsc>
                                    </rate>
                                    <duration>7071</duration>
                                    <timecode>
                                        <rate>
                                            <timebase>60</timebase>
                                            <ntsc>TRUE</ntsc>
                                        </rate>
                                        <string>00:00:00:00</string>
                                        <frame>0</frame>
                                        <displayformat>NDF</displayformat>
                                    </timecode>
                                    <media>
                                        <video/>
                                        <audio/>
                                    </media>
                                </file>
                                <name>bandicam 2025-06-02 00-01-10-144</name>
                                <rate>
                                    <timebase>60</timebase>
                                    <ntsc>TRUE</ntsc>
                                </rate>
                                <rate>
                                    <timebase>60</timebase>
                                    <ntsc>TRUE</ntsc>
                                </rate>
                                <duration>809</duration>
                                <start>0</start>
                                <end>809</end>
                                <in>0</in>
                                <out>809</out>
                            </clipitem>
                            <clipitem frameBlend="FALSE" id="clipitem-2">
                                <file id="file-1"/>
                                <name>bandicam 2025-06-02 00-01-10-144</name>
                                <rate>
                                    <timebase>60</timebase>
                                    <ntsc>TRUE</ntsc>
                                </rate>
                                <rate>
                                    <timebase>60</timebase>
                                    <ntsc>TRUE</ntsc>
                                </rate>
                                <duration>18</duration>
                                <start>809</start>
                                <end>827</end>
                                <in>905</in>
                                <out>923</out>
                            </clipitem>
                            <clipitem frameBlend="FALSE" id="clipitem-3">
                                <file id="file-1"/>
                                <name>bandicam 2025-06-02 00-01-10-144</name>
                                <rate>
                                    <timebase>60</timebase>
                                    <ntsc>TRUE</ntsc>
                                </rate>
                                <rate>
                                    <timebase>60</timebase>
                                    <ntsc>TRUE</ntsc>
                                </rate>
                                <duration>6083</duration>
                                <start>827</start>
                                <end>6910</end>
                                <in>983</in>
                                <out>7066</out>
                            </clipitem>
                            <clipitem frameBlend="FALSE" id="clipitem-4">
                                <file id="file-1"/>
                                <name>bandicam 2025-06-02 00-01-10-144</name>
                                <rate>
                                    <timebase>60</timebase>
                                    <ntsc>TRUE</ntsc>
                                </rate>
                                <rate>
                                    <timebase>60</timebase>
                                    <ntsc>TRUE</ntsc>
                                </rate>
                                <duration>36</duration>
                                <start>6910</start>
                                <end>6946</end>
                                <in>1031</in>
                                <out>1067</out>
                            </clipitem>
                            <clipitem frameBlend="FALSE" id="clipitem-5">
                                <file id="file-1"/>
                                <name>bandicam 2025-06-02 00-01-10-144</name>
                                <rate>
                                    <timebase>60</timebase>
                                    <ntsc>TRUE</ntsc>
                                </rate>
                                <rate>
                                    <timebase>60</timebase>
                                    <ntsc>TRUE</ntsc>
                                </rate>
                                <duration>6</duration>
                                <start>6946</start>
                                <end>6952</end>
                                <in>1085</in>
                                <out>1091</out>
                            </clipitem>
                            <clipitem frameBlend="FALSE" id="clipitem-6">
                                <file id="file-1"/>
                                <name>bandicam 2025-06-02 00-01-10-144</name>
                                <rate>
                                    <timebase>60</timebase>
                                    <ntsc>TRUE</ntsc>
                                </rate>
                                <rate>
                                    <timebase>60</timebase>
                                    <ntsc>TRUE</ntsc>
                                </rate>
                                <duration>48</duration>
                                <start>6952</start>
                                <end>7000</end>
                                <in>1109</in>
                                <out>1157</out>
                            </clipitem>
                            <clipitem frameBlend="FALSE" id="clipitem-7">
                                <file id="file-1"/>
                                <name>bandicam 2025-06-02 00-01-10-144</name>
                                <rate>
                                    <timebase>60</timebase>
                                    <ntsc>TRUE</ntsc>
                                </rate>
                                <rate>
                                    <timebase>60</timebase>
                                    <ntsc>TRUE</ntsc>
                                </rate>
                                <duration>0</duration>
                                <start>7000</start>
                                <end>7000</end>
                                <in>1319</in>
                                <out>1319</out>
                            </clipitem>
                            <clipitem frameBlend="FALSE" id="clipitem-8">
                                <file id="file-1"/>
                                <name>bandicam 2025-06-02 00-01-10-144</name>
                                <rate>
                                    <timebase>60</timebase>
                                    <ntsc>TRUE</ntsc>
                                </rate>
                                <rate>
                                    <timebase>60</timebase>
                                    <ntsc>TRUE</ntsc>
                                </rate>
                                <duration>24</duration>
                                <start>7000</start>
                                <end>7024</end>
                                <in>1349</in>
                                <out>1373</out>
                            </clipitem>
                            <clipitem frameBlend="FALSE" id="clipitem-9">
                                <file id="file-1"/>
                                <name>bandicam 2025-06-02 00-01-10-144</name>
                                <rate>
                                    <timebase>60</timebase>
                                    <ntsc>TRUE</ntsc>
                                </rate>
                                <rate>
                                    <timebase>60</timebase>
                                    <ntsc>TRUE</ntsc>
                                </rate>
                                <duration>48</duration>
                                <start>7024</start>
                                <end>7072</end>
                                <in>1397</in>
                                <out>1445</out>
                            </clipitem>
                            <clipitem frameBlend="FALSE" id="clipitem-10">
                                <file id="file-1"/>
                                <name>bandicam 2025-06-02 00-01-10-144</name>
                                <rate>
                                    <timebase>60</timebase>
                                    <ntsc>TRUE</ntsc>
                                </rate>
                                <rate>
                                    <timebase>60</timebase>
                                    <ntsc>TRUE</ntsc>
                                </rate>
                                <duration>192</duration>
                                <start>7072</start>
                                <end>7264</end>
                                <in>1457</in>
                                <out>1649</out>
                            </clipitem>
                            <clipitem frameBlend="FALSE" id="clipitem-11">
                                <file id="file-1"/>
                                <name>bandicam 2025-06-02 00-01-10-144</name>
                                <rate>
                                    <timebase>60</timebase>
                                    <ntsc>TRUE</ntsc>
                                </rate>
                                <rate>
                                    <timebase>60</timebase>
                                    <ntsc>TRUE</ntsc>
                                </rate>
                                <duration>60</duration>
                                <start>7264</start>
                                <end>7324</end>
                                <in>1697</in>
                                <out>1757</out>
                            </clipitem>
                            <clipitem frameBlend="FALSE" id="clipitem-12">
                                <file id="file-1"/>
                                <name>bandicam 2025-06-02 00-01-10-144</name>
                                <rate>
                                    <timebase>60</timebase>
                                    <ntsc>TRUE</ntsc>
                                </rate>
                                <rate>
                                    <timebase>60</timebase>
                                    <ntsc>TRUE</ntsc>
                                </rate>
                                <duration>90</duration>
                                <start>7324</start>
                                <end>7414</end>
                                <in>1847</in>
                                <out>1937</out>
                            </clipitem>
                            <clipitem frameBlend="FALSE" id="clipitem-13">
                                <file id="file-1"/>
                                <name>bandicam 2025-06-02 00-01-10-144</name>
                                <rate>
                                    <timebase>60</timebase>
                                    <ntsc>TRUE</ntsc>
                                </rate>
                                <rate>
                                    <timebase>60</timebase>
                                    <ntsc>TRUE</ntsc>
                                </rate>
                                <duration>126</duration>
                                <start>7414</start>
                                <end>7540</end>
                                <in>1961</in>
                                <out>2087</out>
                            </clipitem>
                            <clipitem frameBlend="FALSE" id="clipitem-14">
                                <file id="file-1"/>
                                <name>bandicam 2025-06-02 00-01-10-144</name>
                                <rate>
                                    <timebase>60</timebase>
                                    <ntsc>TRUE</ntsc>
                                </rate>
                                <rate>
                                    <timebase>60</timebase>
                                    <ntsc>TRUE</ntsc>
                                </rate>
                                <duration>30</duration>
                                <start>7540</start>
                                <end>7570</end>
                                <in>2219</in>
                                <out>2249</out>
                            </clipitem>
                            <clipitem frameBlend="FALSE" id="clipitem-15">
                                <file id="file-1"/>
                                <name>bandicam 2025-06-02 00-01-10-144</name>
                                <rate>
                                    <timebase>60</timebase>
                                    <ntsc>TRUE</ntsc>
                                </rate>
                                <rate>
                                    <timebase>60</timebase>
                                    <ntsc>TRUE</ntsc>
                                </rate>
                                <duration>24</duration>
                                <start>7570</start>
                                <end>7594</end>
                                <in>2267</in>
                                <out>2291</out>
                            </clipitem>
                            <clipitem frameBlend="FALSE" id="clipitem-16">
                                <file id="file-1"/>
                                <name>bandicam 2025-06-02 00-01-10-144</name>
                                <rate>
                                    <timebase>60</timebase>
                                    <ntsc>TRUE</ntsc>
                                </rate>
                                <rate>
                                    <timebase>60</timebase>
                                    <ntsc>TRUE</ntsc>
                                </rate>
                                <duration>48</duration>
                                <start>7594</start>
                                <end>7642</end>
                                <in>2327</in>
                                <out>2375</out>
                            </clipitem>
                            <clipitem frameBlend="FALSE" id="clipitem-17">
                                <file id="file-1"/>
                                <name>bandicam 2025-06-02 00-01-10-144</name>
                                <rate>
                                    <timebase>60</timebase>
                                    <ntsc>TRUE</ntsc>
                                </rate>
                                <rate>
                                    <timebase>60</timebase>
                                    <ntsc>TRUE</ntsc>
                                </rate>
                                <duration>36</duration>
                                <start>7642</start>
                                <end>7678</end>
                                <in>2405</in>
                                <out>2441</out>
                            </clipitem>
                            <clipitem frameBlend="FALSE" id="clipitem-18">
                                <file id="file-1"/>
                                <name>bandicam 2025-06-02 00-01-10-144</name>
                                <rate>
                                    <timebase>60</timebase>
                                    <ntsc>TRUE</ntsc>
                                </rate>
                                <rate>
                                    <timebase>60</timebase>
                                    <ntsc>TRUE</ntsc>
                                </rate>
                                <duration>18</duration>
                                <start>7678</start>
                                <end>7696</end>
                                <in>2477</in>
                                <out>2495</out>
                            </clipitem>
                            <clipitem frameBlend="FALSE" id="clipitem-19">
                                <file id="file-1"/>
                                <name>bandicam 2025-06-02 00-01-10-144</name>
                                <rate>
                                    <timebase>60</timebase>
                                    <ntsc>TRUE</ntsc>
                                </rate>
                                <rate>
                                    <timebase>60</timebase>
                                    <ntsc>TRUE</ntsc>
                                </rate>
                                <duration>54</duration>
                                <start>7696</start>
                                <end>7750</end>
                                <in>2531</in>
                                <out>2585</out>
                            </clipitem>
                            <clipitem frameBlend="FALSE" id="clipitem-20">
                                <file id="file-1"/>
                                <name>bandicam 2025-06-02 00-01-10-144</name>
                                <rate>
                                    <timebase>60</timebase>
                                    <ntsc>TRUE</ntsc>
                                </rate>
                                <rate>
                                    <timebase>60</timebase>
                                    <ntsc>TRUE</ntsc>
                                </rate>
                                <duration>96</duration>
                                <start>7750</start>
                                <end>7846</end>
                                <in>2639</in>
                                <out>2735</out>
                            </clipitem>
                            <clipitem frameBlend="FALSE" id="clipitem-21">
                                <file id="file-1"/>
                                <name>bandicam 2025-06-02 00-01-10-144</name>
                                <rate>
                                    <timebase>60</timebase>
                                    <ntsc>TRUE</ntsc>
                                </rate>
                                <rate>
                                    <timebase>60</timebase>
                                    <ntsc>TRUE</ntsc>
                                </rate>
                                <duration>917</duration>
                                <start>7846</start>
                                <end>8763</end>
                                <in>2759</in>
                                <out>3676</out>
                            </clipitem>
                            <clipitem frameBlend="FALSE" id="clipitem-22">
                                <file id="file-1"/>
                                <name>bandicam 2025-06-02 00-01-10-144</name>
                                <rate>
                                    <timebase>60</timebase>
                                    <ntsc>TRUE</ntsc>
                                </rate>
                                <rate>
                                    <timebase>60</timebase>
                                    <ntsc>TRUE</ntsc>
                                </rate>
                                <duration>42</duration>
                                <start>8763</start>
                                <end>8805</end>
                                <in>3706</in>
                                <out>3748</out>
                            </clipitem>
                            <clipitem frameBlend="FALSE" id="clipitem-23">
                                <file id="file-1"/>
                                <name>bandicam 2025-06-02 00-01-10-144</name>
                                <rate>
                                    <timebase>60</timebase>
                                    <ntsc>TRUE</ntsc>
                                </rate>
                                <rate>
                                    <timebase>60</timebase>
                                    <ntsc>TRUE</ntsc>
                                </rate>
                                <duration>66</duration>
                                <start>8805</start>
                                <end>8871</end>
                                <in>3778</in>
                                <out>3844</out>
                            </clipitem>
                            <clipitem frameBlend="FALSE" id="clipitem-24">
                                <file id="file-1"/>
                                <name>bandicam 2025-06-02 00-01-10-144</name>
                                <rate>
                                    <timebase>60</timebase>
                                    <ntsc>TRUE</ntsc>
                                </rate>
                                <rate>
                                    <timebase>60</timebase>
                                    <ntsc>TRUE</ntsc>
                                </rate>
                                <duration>120</duration>
                                <start>8871</start>
                                <end>8991</end>
                                <in>3874</in>
                                <out>3994</out>
                            </clipitem>
                            <clipitem frameBlend="FALSE" id="clipitem-25">
                                <file id="file-1"/>
                                <name>bandicam 2025-06-02 00-01-10-144</name>
                                <rate>
                                    <timebase>60</timebase>
                                    <ntsc>TRUE</ntsc>
                                </rate>
                                <rate>
                                    <timebase>60</timebase>
                                    <ntsc>TRUE</ntsc>
                                </rate>
                                <duration>36</duration>
                                <start>8991</start>
                                <end>9027</end>
                                <in>4012</in>
                                <out>4048</out>
                            </clipitem>
                            <clipitem frameBlend="FALSE" id="clipitem-26">
                                <file id="file-1"/>
                                <name>bandicam 2025-06-02 00-01-10-144</name>
                                <rate>
                                    <timebase>60</timebase>
                                    <ntsc>TRUE</ntsc>
                                </rate>
                                <rate>
                                    <timebase>60</timebase>
                                    <ntsc>TRUE</ntsc>
                                </rate>
                                <duration>228</duration>
                                <start>9027</start>
                                <end>9255</end>
                                <in>4066</in>
                                <out>4294</out>
                            </clipitem>
                            <clipitem frameBlend="FALSE" id="clipitem-27">
                                <file id="file-1"/>
                                <name>bandicam 2025-06-02 00-01-10-144</name>
                                <rate>
                                    <timebase>60</timebase>
                                    <ntsc>TRUE</ntsc>
                                </rate>
                                <rate>
                                    <timebase>60</timebase>
                                    <ntsc>TRUE</ntsc>
                                </rate>
                                <duration>12</duration>
                                <start>9255</start>
                                <end>9267</end>
                                <in>4330</in>
                                <out>4342</out>
                            </clipitem>
                            <clipitem frameBlend="FALSE" id="clipitem-28">
                                <file id="file-1"/>
                                <name>bandicam 2025-06-02 00-01-10-144</name>
                                <rate>
                                    <timebase>60</timebase>
                                    <ntsc>TRUE</ntsc>
                                </rate>
                                <rate>
                                    <timebase>60</timebase>
                                    <ntsc>TRUE</ntsc>
                                </rate>
                                <duration>342</duration>
                                <start>9267</start>
                                <end>9609</end>
                                <in>4414</in>
                                <out>4756</out>
                            </clipitem>
                            <clipitem frameBlend="FALSE" id="clipitem-29">
                                <file id="file-1"/>
                                <name>bandicam 2025-06-02 00-01-10-144</name>
                                <rate>
                                    <timebase>60</timebase>
                                    <ntsc>TRUE</ntsc>
                                </rate>
                                <rate>
                                    <timebase>60</timebase>
                                    <ntsc>TRUE</ntsc>
                                </rate>
                                <duration>18</duration>
                                <start>9609</start>
                                <end>9627</end>
                                <in>4786</in>
                                <out>4804</out>
                            </clipitem>
                            <clipitem frameBlend="FALSE" id="clipitem-30">
                                <file id="file-1"/>
                                <name>bandicam 2025-06-02 00-01-10-144</name>
                                <rate>
                                    <timebase>60</timebase>
                                    <ntsc>TRUE</ntsc>
                                </rate>
                                <rate>
                                    <timebase>60</timebase>
                                    <ntsc>TRUE</ntsc>
                                </rate>
                                <duration>18</duration>
                                <start>9627</start>
                                <end>9645</end>
                                <in>4834</in>
                                <out>4852</out>
                            </clipitem>
                            <clipitem frameBlend="FALSE" id="clipitem-31">
                                <file id="file-1"/>
                                <name>bandicam 2025-06-02 00-01-10-144</name>
                                <rate>
                                    <timebase>60</timebase>
                                    <ntsc>TRUE</ntsc>
                                </rate>
                                <rate>
                                    <timebase>60</timebase>
                                    <ntsc>TRUE</ntsc>
                                </rate>
                                <duration>198</duration>
                                <start>9645</start>
                                <end>9843</end>
                                <in>4870</in>
                                <out>5068</out>
                            </clipitem>
                            <clipitem frameBlend="FALSE" id="clipitem-32">
                                <file id="file-1"/>
                                <name>bandicam 2025-06-02 00-01-10-144</name>
                                <rate>
                                    <timebase>60</timebase>
                                    <ntsc>TRUE</ntsc>
                                </rate>
                                <rate>
                                    <timebase>60</timebase>
                                    <ntsc>TRUE</ntsc>
                                </rate>
                                <duration>6</duration>
                                <start>9843</start>
                                <end>9849</end>
                                <in>5086</in>
                                <out>5092</out>
                            </clipitem>
                            <clipitem frameBlend="FALSE" id="clipitem-33">
                                <file id="file-1"/>
                                <name>bandicam 2025-06-02 00-01-10-144</name>
                                <rate>
                                    <timebase>60</timebase>
                                    <ntsc>TRUE</ntsc>
                                </rate>
                                <rate>
                                    <timebase>60</timebase>
                                    <ntsc>TRUE</ntsc>
                                </rate>
                                <duration>786</duration>
                                <start>9849</start>
                                <end>10635</end>
                                <in>5140</in>
                                <out>5926</out>
                            </clipitem>
                            <clipitem frameBlend="FALSE" id="clipitem-34">
                                <file id="file-1"/>
                                <name>bandicam 2025-06-02 00-01-10-144</name>
                                <rate>
                                    <timebase>60</timebase>
                                    <ntsc>TRUE</ntsc>
                                </rate>
                                <rate>
                                    <timebase>60</timebase>
                                    <ntsc>TRUE</ntsc>
                                </rate>
                                <duration>120</duration>
                                <start>10635</start>
                                <end>10755</end>
                                <in>5944</in>
                                <out>6064</out>
                            </clipitem>
                            <clipitem frameBlend="FALSE" id="clipitem-35">
                                <file id="file-1"/>
                                <name>bandicam 2025-06-02 00-01-10-144</name>
                                <rate>
                                    <timebase>60</timebase>
                                    <ntsc>TRUE</ntsc>
                                </rate>
                                <rate>
                                    <timebase>60</timebase>
                                    <ntsc>TRUE</ntsc>
                                </rate>
                                <duration>324</duration>
                                <start>10755</start>
                                <end>11079</end>
                                <in>6088</in>
                                <out>6412</out>
                            </clipitem>
                            <clipitem frameBlend="FALSE" id="clipitem-36">
                                <file id="file-1"/>
                                <name>bandicam 2025-06-02 00-01-10-144</name>
                                <rate>
                                    <timebase>60</timebase>
                                    <ntsc>TRUE</ntsc>
                                </rate>
                                <rate>
                                    <timebase>60</timebase>
                                    <ntsc>TRUE</ntsc>
                                </rate>
                                <duration>108</duration>
                                <start>11079</start>
                                <end>11187</end>
                                <in>6442</in>
                                <out>6550</out>
                            </clipitem>
                            <clipitem frameBlend="FALSE" id="clipitem-37">
                                <file id="file-1"/>
                                <name>bandicam 2025-06-02 00-01-10-144</name>
                                <rate>
                                    <timebase>60</timebase>
                                    <ntsc>TRUE</ntsc>
                                </rate>
                                <rate>
                                    <timebase>60</timebase>
                                    <ntsc>TRUE</ntsc>
                                </rate>
                                <duration>0</duration>
                                <start>11187</start>
                                <end>11187</end>
                                <in>6610</in>
                                <out>6610</out>
                            </clipitem>
                            <clipitem frameBlend="FALSE" id="clipitem-38">
                                <file id="file-1"/>
                                <name>bandicam 2025-06-02 00-01-10-144</name>
                                <rate>
                                    <timebase>60</timebase>
                                    <ntsc>TRUE</ntsc>
                                </rate>
                                <rate>
                                    <timebase>60</timebase>
                                    <ntsc>TRUE</ntsc>
                                </rate>
                                <duration>228</duration>
                                <start>11187</start>
                                <end>11415</end>
                                <in>6634</in>
                                <out>6862</out>
                            </clipitem>
                            <clipitem frameBlend="FALSE" id="clipitem-39">
                                <file id="file-1"/>
                                <name>bandicam 2025-06-02 00-01-10-144</name>
                                <rate>
                                    <timebase>60</timebase>
                                    <ntsc>TRUE</ntsc>
                                </rate>
                                <rate>
                                    <timebase>60</timebase>
                                    <ntsc>TRUE</ntsc>
                                </rate>
                                <duration>36</duration>
                                <start>11415</start>
                                <end>11451</end>
                                <in>6874</in>
                                <out>6910</out>
                            </clipitem>
                            <clipitem frameBlend="FALSE" id="clipitem-40">
                                <file id="file-1"/>
                                <name>bandicam 2025-06-02 00-01-10-144</name>
                                <rate>
                                    <timebase>60</timebase>
                                    <ntsc>TRUE</ntsc>
                                </rate>
                                <rate>
                                    <timebase>60</timebase>
                                    <ntsc>TRUE</ntsc>
                                </rate>
                                <duration>30</duration>
                                <start>11451</start>
                                <end>11481</end>
                                <in>6964</in>
                                <out>6994</out>
                            </clipitem>
                            <clipitem frameBlend="FALSE" id="clipitem-41">
                                <file id="file-1"/>
                                <name>bandicam 2025-06-02 00-01-10-144</name>
                                <rate>
                                    <timebase>60</timebase>
                                    <ntsc>TRUE</ntsc>
                                </rate>
                                <rate>
                                    <timebase>60</timebase>
                                    <ntsc>TRUE</ntsc>
                                </rate>
                                <duration>24</duration>
                                <start>11481</start>
                                <end>11505</end>
                                <in>1469</in>
                                <out>1493</out>
                            </clipitem>
                            <clipitem frameBlend="FALSE" id="clipitem-42">
                                <file id="file-1"/>
                                <name>bandicam 2025-06-02 00-01-10-144</name>
                                <rate>
                                    <timebase>60</timebase>
                                    <ntsc>TRUE</ntsc>
                                </rate>
                                <rate>
                                    <timebase>60</timebase>
                                    <ntsc>TRUE</ntsc>
                                </rate>
                                <duration>72</duration>
                                <start>11505</start>
                                <end>11577</end>
                                <in>1517</in>
                                <out>1589</out>
                            </clipitem>
                            <clipitem frameBlend="FALSE" id="clipitem-43">
                                <file id="file-1"/>
                                <name>bandicam 2025-06-02 00-01-10-144</name>
                                <rate>
                                    <timebase>60</timebase>
                                    <ntsc>TRUE</ntsc>
                                </rate>
                                <rate>
                                    <timebase>60</timebase>
                                    <ntsc>TRUE</ntsc>
                                </rate>
                                <duration>0</duration>
                                <start>11577</start>
                                <end>11577</end>
                                <in>1619</in>
                                <out>1619</out>
                            </clipitem>
                            <clipitem frameBlend="FALSE" id="clipitem-44">
                                <file id="file-1"/>
                                <name>bandicam 2025-06-02 00-01-10-144</name>
                                <rate>
                                    <timebase>60</timebase>
                                    <ntsc>TRUE</ntsc>
                                </rate>
                                <rate>
                                    <timebase>60</timebase>
                                    <ntsc>TRUE</ntsc>
                                </rate>
                                <duration>54</duration>
                                <start>11577</start>
                                <end>11631</end>
                                <in>1871</in>
                                <out>1925</out>
                            </clipitem>
                            <clipitem frameBlend="FALSE" id="clipitem-45">
                                <file id="file-1"/>
                                <name>bandicam 2025-06-02 00-01-10-144</name>
                                <rate>
                                    <timebase>60</timebase>
                                    <ntsc>TRUE</ntsc>
                                </rate>
                                <rate>
                                    <timebase>60</timebase>
                                    <ntsc>TRUE</ntsc>
                                </rate>
                                <duration>72</duration>
                                <start>11631</start>
                                <end>11703</end>
                                <in>1997</in>
                                <out>2069</out>
                            </clipitem>
                            <clipitem frameBlend="FALSE" id="clipitem-46">
                                <file id="file-1"/>
                                <name>bandicam 2025-06-02 00-01-10-144</name>
                                <rate>
                                    <timebase>60</timebase>
                                    <ntsc>TRUE</ntsc>
                                </rate>
                                <rate>
                                    <timebase>60</timebase>
                                    <ntsc>TRUE</ntsc>
                                </rate>
                                <duration>6</duration>
                                <start>11703</start>
                                <end>11709</end>
                                <in>2231</in>
                                <out>2237</out>
                            </clipitem>
                            <clipitem frameBlend="FALSE" id="clipitem-47">
                                <file id="file-1"/>
                                <name>bandicam 2025-06-02 00-01-10-144</name>
                                <rate>
                                    <timebase>60</timebase>
                                    <ntsc>TRUE</ntsc>
                                </rate>
                                <rate>
                                    <timebase>60</timebase>
                                    <ntsc>TRUE</ntsc>
                                </rate>
                                <duration>18</duration>
                                <start>11709</start>
                                <end>11727</end>
                                <in>2561</in>
                                <out>2579</out>
                            </clipitem>
                            <clipitem frameBlend="FALSE" id="clipitem-48">
                                <file id="file-1"/>
                                <name>bandicam 2025-06-02 00-01-10-144</name>
                                <rate>
                                    <timebase>60</timebase>
                                    <ntsc>TRUE</ntsc>
                                </rate>
                                <rate>
                                    <timebase>60</timebase>
                                    <ntsc>TRUE</ntsc>
                                </rate>
                                <duration>18</duration>
                                <start>11727</start>
                                <end>11745</end>
                                <in>2663</in>
                                <out>2681</out>
                            </clipitem>
                            <clipitem frameBlend="FALSE" id="clipitem-49">
                                <file id="file-1"/>
                                <name>bandicam 2025-06-02 00-01-10-144</name>
                                <rate>
                                    <timebase>60</timebase>
                                    <ntsc>TRUE</ntsc>
                                </rate>
                                <rate>
                                    <timebase>60</timebase>
                                    <ntsc>TRUE</ntsc>
                                </rate>
                                <duration>12</duration>
                                <start>11745</start>
                                <end>11757</end>
                                <in>2699</in>
                                <out>2711</out>
                            </clipitem>
                            <clipitem frameBlend="FALSE" id="clipitem-50">
                                <file id="file-1"/>
                                <name>bandicam 2025-06-02 00-01-10-144</name>
                                <rate>
                                    <timebase>60</timebase>
                                    <ntsc>TRUE</ntsc>
                                </rate>
                                <rate>
                                    <timebase>60</timebase>
                                    <ntsc>TRUE</ntsc>
                                </rate>
                                <duration>552</duration>
                                <start>11757</start>
                                <end>12309</end>
                                <in>2771</in>
                                <out>3323</out>
                            </clipitem>
                            <clipitem frameBlend="FALSE" id="clipitem-51">
                                <file id="file-1"/>
                                <name>bandicam 2025-06-02 00-01-10-144</name>
                                <rate>
                                    <timebase>60</timebase>
                                    <ntsc>TRUE</ntsc>
                                </rate>
                                <rate>
                                    <timebase>60</timebase>
                                    <ntsc>TRUE</ntsc>
                                </rate>
                                <duration>18</duration>
                                <start>12309</start>
                                <end>12327</end>
                                <in>3341</in>
                                <out>3359</out>
                            </clipitem>
                            <clipitem frameBlend="FALSE" id="clipitem-52">
                                <file id="file-1"/>
                                <name>bandicam 2025-06-02 00-01-10-144</name>
                                <rate>
                                    <timebase>60</timebase>
                                    <ntsc>TRUE</ntsc>
                                </rate>
                                <rate>
                                    <timebase>60</timebase>
                                    <ntsc>TRUE</ntsc>
                                </rate>
                                <duration>215</duration>
                                <start>12327</start>
                                <end>12542</end>
                                <in>3389</in>
                                <out>3604</out>
                            </clipitem>
                            <clipitem frameBlend="FALSE" id="clipitem-53">
                                <file id="file-1"/>
                                <name>bandicam 2025-06-02 00-01-10-144</name>
                                <rate>
                                    <timebase>60</timebase>
                                    <ntsc>TRUE</ntsc>
                                </rate>
                                <rate>
                                    <timebase>60</timebase>
                                    <ntsc>TRUE</ntsc>
                                </rate>
                                <duration>54</duration>
                                <start>12542</start>
                                <end>12596</end>
                                <in>3616</in>
                                <out>3670</out>
                            </clipitem>
                            <clipitem frameBlend="FALSE" id="clipitem-54">
                                <file id="file-1"/>
                                <name>bandicam 2025-06-02 00-01-10-144</name>
                                <rate>
                                    <timebase>60</timebase>
                                    <ntsc>TRUE</ntsc>
                                </rate>
                                <rate>
                                    <timebase>60</timebase>
                                    <ntsc>TRUE</ntsc>
                                </rate>
                                <duration>30</duration>
                                <start>12596</start>
                                <end>12626</end>
                                <in>3784</in>
                                <out>3814</out>
                            </clipitem>
                            <clipitem frameBlend="FALSE" id="clipitem-55">
                                <file id="file-1"/>
                                <name>bandicam 2025-06-02 00-01-10-144</name>
                                <rate>
                                    <timebase>60</timebase>
                                    <ntsc>TRUE</ntsc>
                                </rate>
                                <rate>
                                    <timebase>60</timebase>
                                    <ntsc>TRUE</ntsc>
                                </rate>
                                <duration>18</duration>
                                <start>12626</start>
                                <end>12644</end>
                                <in>3910</in>
                                <out>3928</out>
                            </clipitem>
                            <clipitem frameBlend="FALSE" id="clipitem-56">
                                <file id="file-1"/>
                                <name>bandicam 2025-06-02 00-01-10-144</name>
                                <rate>
                                    <timebase>60</timebase>
                                    <ntsc>TRUE</ntsc>
                                </rate>
                                <rate>
                                    <timebase>60</timebase>
                                    <ntsc>TRUE</ntsc>
                                </rate>
                                <duration>174</duration>
                                <start>12644</start>
                                <end>12818</end>
                                <in>4078</in>
                                <out>4252</out>
                            </clipitem>
                            <clipitem frameBlend="FALSE" id="clipitem-57">
                                <file id="file-1"/>
                                <name>bandicam 2025-06-02 00-01-10-144</name>
                                <rate>
                                    <timebase>60</timebase>
                                    <ntsc>TRUE</ntsc>
                                </rate>
                                <rate>
                                    <timebase>60</timebase>
                                    <ntsc>TRUE</ntsc>
                                </rate>
                                <duration>72</duration>
                                <start>12818</start>
                                <end>12890</end>
                                <in>4432</in>
                                <out>4504</out>
                            </clipitem>
                            <clipitem frameBlend="FALSE" id="clipitem-58">
                                <file id="file-1"/>
                                <name>bandicam 2025-06-02 00-01-10-144</name>
                                <rate>
                                    <timebase>60</timebase>
                                    <ntsc>TRUE</ntsc>
                                </rate>
                                <rate>
                                    <timebase>60</timebase>
                                    <ntsc>TRUE</ntsc>
                                </rate>
                                <duration>60</duration>
                                <start>12890</start>
                                <end>12950</end>
                                <in>4540</in>
                                <out>4600</out>
                            </clipitem>
                            <clipitem frameBlend="FALSE" id="clipitem-59">
                                <file id="file-1"/>
                                <name>bandicam 2025-06-02 00-01-10-144</name>
                                <rate>
                                    <timebase>60</timebase>
                                    <ntsc>TRUE</ntsc>
                                </rate>
                                <rate>
                                    <timebase>60</timebase>
                                    <ntsc>TRUE</ntsc>
                                </rate>
                                <duration>18</duration>
                                <start>12950</start>
                                <end>12968</end>
                                <in>4648</in>
                                <out>4666</out>
                            </clipitem>
                            <clipitem frameBlend="FALSE" id="clipitem-60">
                                <file id="file-1"/>
                                <name>bandicam 2025-06-02 00-01-10-144</name>
                                <rate>
                                    <timebase>60</timebase>
                                    <ntsc>TRUE</ntsc>
                                </rate>
                                <rate>
                                    <timebase>60</timebase>
                                    <ntsc>TRUE</ntsc>
                                </rate>
                                <duration>36</duration>
                                <start>12968</start>
                                <end>13004</end>
                                <in>4708</in>
                                <out>4744</out>
                            </clipitem>
                            <clipitem frameBlend="FALSE" id="clipitem-61">
                                <file id="file-1"/>
                                <name>bandicam 2025-06-02 00-01-10-144</name>
                                <rate>
                                    <timebase>60</timebase>
                                    <ntsc>TRUE</ntsc>
                                </rate>
                                <rate>
                                    <timebase>60</timebase>
                                    <ntsc>TRUE</ntsc>
                                </rate>
                                <duration>18</duration>
                                <start>13004</start>
                                <end>13022</end>
                                <in>4882</in>
                                <out>4900</out>
                            </clipitem>
                            <clipitem frameBlend="FALSE" id="clipitem-62">
                                <file id="file-1"/>
                                <name>bandicam 2025-06-02 00-01-10-144</name>
                                <rate>
                                    <timebase>60</timebase>
                                    <ntsc>TRUE</ntsc>
                                </rate>
                                <rate>
                                    <timebase>60</timebase>
                                    <ntsc>TRUE</ntsc>
                                </rate>
                                <duration>96</duration>
                                <start>13022</start>
                                <end>13118</end>
                                <in>4954</in>
                                <out>5050</out>
                            </clipitem>
                            <clipitem frameBlend="FALSE" id="clipitem-63">
                                <file id="file-1"/>
                                <name>bandicam 2025-06-02 00-01-10-144</name>
                                <rate>
                                    <timebase>60</timebase>
                                    <ntsc>TRUE</ntsc>
                                </rate>
                                <rate>
                                    <timebase>60</timebase>
                                    <ntsc>TRUE</ntsc>
                                </rate>
                                <duration>0</duration>
                                <start>13118</start>
                                <end>13118</end>
                                <in>5152</in>
                                <out>5152</out>
                            </clipitem>
                            <clipitem frameBlend="FALSE" id="clipitem-64">
                                <file id="file-1"/>
                                <name>bandicam 2025-06-02 00-01-10-144</name>
                                <rate>
                                    <timebase>60</timebase>
                                    <ntsc>TRUE</ntsc>
                                </rate>
                                <rate>
                                    <timebase>60</timebase>
                                    <ntsc>TRUE</ntsc>
                                </rate>
                                <duration>216</duration>
                                <start>13118</start>
                                <end>13334</end>
                                <in>5182</in>
                                <out>5398</out>
                            </clipitem>
                            <clipitem frameBlend="FALSE" id="clipitem-65">
                                <file id="file-1"/>
                                <name>bandicam 2025-06-02 00-01-10-144</name>
                                <rate>
                                    <timebase>60</timebase>
                                    <ntsc>TRUE</ntsc>
                                </rate>
                                <rate>
                                    <timebase>60</timebase>
                                    <ntsc>TRUE</ntsc>
                                </rate>
                                <duration>324</duration>
                                <start>13334</start>
                                <end>13658</end>
                                <in>5440</in>
                                <out>5764</out>
                            </clipitem>
                            <clipitem frameBlend="FALSE" id="clipitem-66">
                                <file id="file-1"/>
                                <name>bandicam 2025-06-02 00-01-10-144</name>
                                <rate>
                                    <timebase>60</timebase>
                                    <ntsc>TRUE</ntsc>
                                </rate>
                                <rate>
                                    <timebase>60</timebase>
                                    <ntsc>TRUE</ntsc>
                                </rate>
                                <duration>24</duration>
                                <start>13658</start>
                                <end>13682</end>
                                <in>5782</in>
                                <out>5806</out>
                            </clipitem>
                            <clipitem frameBlend="FALSE" id="clipitem-67">
                                <file id="file-1"/>
                                <name>bandicam 2025-06-02 00-01-10-144</name>
                                <rate>
                                    <timebase>60</timebase>
                                    <ntsc>TRUE</ntsc>
                                </rate>
                                <rate>
                                    <timebase>60</timebase>
                                    <ntsc>TRUE</ntsc>
                                </rate>
                                <duration>6</duration>
                                <start>13682</start>
                                <end>13688</end>
                                <in>5842</in>
                                <out>5848</out>
                            </clipitem>
                            <clipitem frameBlend="FALSE" id="clipitem-68">
                                <file id="file-1"/>
                                <name>bandicam 2025-06-02 00-01-10-144</name>
                                <rate>
                                    <timebase>60</timebase>
                                    <ntsc>TRUE</ntsc>
                                </rate>
                                <rate>
                                    <timebase>60</timebase>
                                    <ntsc>TRUE</ntsc>
                                </rate>
                                <duration>36</duration>
                                <start>13688</start>
                                <end>13724</end>
                                <in>5878</in>
                                <out>5914</out>
                            </clipitem>
                            <clipitem frameBlend="FALSE" id="clipitem-69">
                                <file id="file-1"/>
                                <name>bandicam 2025-06-02 00-01-10-144</name>
                                <rate>
                                    <timebase>60</timebase>
                                    <ntsc>TRUE</ntsc>
                                </rate>
                                <rate>
                                    <timebase>60</timebase>
                                    <ntsc>TRUE</ntsc>
                                </rate>
                                <duration>72</duration>
                                <start>13724</start>
                                <end>13796</end>
                                <in>5956</in>
                                <out>6028</out>
                            </clipitem>
                            <clipitem frameBlend="FALSE" id="clipitem-70">
                                <file id="file-1"/>
                                <name>bandicam 2025-06-02 00-01-10-144</name>
                                <rate>
                                    <timebase>60</timebase>
                                    <ntsc>TRUE</ntsc>
                                </rate>
                                <rate>
                                    <timebase>60</timebase>
                                    <ntsc>TRUE</ntsc>
                                </rate>
                                <duration>102</duration>
                                <start>13796</start>
                                <end>13898</end>
                                <in>6100</in>
                                <out>6202</out>
                            </clipitem>
                            <clipitem frameBlend="FALSE" id="clipitem-71">
                                <file id="file-1"/>
                                <name>bandicam 2025-06-02 00-01-10-144</name>
                                <rate>
                                    <timebase>60</timebase>
                                    <ntsc>TRUE</ntsc>
                                </rate>
                                <rate>
                                    <timebase>60</timebase>
                                    <ntsc>TRUE</ntsc>
                                </rate>
                                <duration>24</duration>
                                <start>13898</start>
                                <end>13922</end>
                                <in>6226</in>
                                <out>6250</out>
                            </clipitem>
                            <clipitem frameBlend="FALSE" id="clipitem-72">
                                <file id="file-1"/>
                                <name>bandicam 2025-06-02 00-01-10-144</name>
                                <rate>
                                    <timebase>60</timebase>
                                    <ntsc>TRUE</ntsc>
                                </rate>
                                <rate>
                                    <timebase>60</timebase>
                                    <ntsc>TRUE</ntsc>
                                </rate>
                                <duration>132</duration>
                                <start>13922</start>
                                <end>14054</end>
                                <in>6274</in>
                                <out>6406</out>
                            </clipitem>
                            <clipitem frameBlend="FALSE" id="clipitem-73">
                                <file id="file-1"/>
                                <name>bandicam 2025-06-02 00-01-10-144</name>
                                <rate>
                                    <timebase>60</timebase>
                                    <ntsc>TRUE</ntsc>
                                </rate>
                                <rate>
                                    <timebase>60</timebase>
                                    <ntsc>TRUE</ntsc>
                                </rate>
                                <duration>12</duration>
                                <start>14054</start>
                                <end>14066</end>
                                <in>6526</in>
                                <out>6538</out>
                            </clipitem>
                            <clipitem frameBlend="FALSE" id="clipitem-74">
                                <file id="file-1"/>
                                <name>bandicam 2025-06-02 00-01-10-144</name>
                                <rate>
                                    <timebase>60</timebase>
                                    <ntsc>TRUE</ntsc>
                                </rate>
                                <rate>
                                    <timebase>60</timebase>
                                    <ntsc>TRUE</ntsc>
                                </rate>
                                <duration>72</duration>
                                <start>14066</start>
                                <end>14138</end>
                                <in>6652</in>
                                <out>6724</out>
                            </clipitem>
                            <clipitem frameBlend="FALSE" id="clipitem-75">
                                <file id="file-1"/>
                                <name>bandicam 2025-06-02 00-01-10-144</name>
                                <rate>
                                    <timebase>60</timebase>
                                    <ntsc>TRUE</ntsc>
                                </rate>
                                <rate>
                                    <timebase>60</timebase>
                                    <ntsc>TRUE</ntsc>
                                </rate>
                                <duration>72</duration>
                                <start>14138</start>
                                <end>14210</end>
                                <in>6754</in>
                                <out>6826</out>
                            </clipitem>
                            <clipitem frameBlend="FALSE" id="clipitem-76">
                                <file id="file-1"/>
                                <name>bandicam 2025-06-02 00-01-10-144</name>
                                <rate>
                                    <timebase>60</timebase>
                                    <ntsc>TRUE</ntsc>
                                </rate>
                                <rate>
                                    <timebase>60</timebase>
                                    <ntsc>TRUE</ntsc>
                                </rate>
                                <duration>18</duration>
                                <start>14210</start>
                                <end>14228</end>
                                <in>2783</in>
                                <out>2801</out>
                            </clipitem>
                            <clipitem frameBlend="FALSE" id="clipitem-77">
                                <file id="file-1"/>
                                <name>bandicam 2025-06-02 00-01-10-144</name>
                                <rate>
                                    <timebase>60</timebase>
                                    <ntsc>TRUE</ntsc>
                                </rate>
                                <rate>
                                    <timebase>60</timebase>
                                    <ntsc>TRUE</ntsc>
                                </rate>
                                <duration>6</duration>
                                <start>14228</start>
                                <end>14234</end>
                                <in>2885</in>
                                <out>2891</out>
                            </clipitem>
                            <clipitem frameBlend="FALSE" id="clipitem-78">
                                <file id="file-1"/>
                                <name>bandicam 2025-06-02 00-01-10-144</name>
                                <rate>
                                    <timebase>60</timebase>
                                    <ntsc>TRUE</ntsc>
                                </rate>
                                <rate>
                                    <timebase>60</timebase>
                                    <ntsc>TRUE</ntsc>
                                </rate>
                                <duration>18</duration>
                                <start>14234</start>
                                <end>14252</end>
                                <in>2969</in>
                                <out>2987</out>
                            </clipitem>
                            <clipitem frameBlend="FALSE" id="clipitem-79">
                                <file id="file-1"/>
                                <name>bandicam 2025-06-02 00-01-10-144</name>
                                <rate>
                                    <timebase>60</timebase>
                                    <ntsc>TRUE</ntsc>
                                </rate>
                                <rate>
                                    <timebase>60</timebase>
                                    <ntsc>TRUE</ntsc>
                                </rate>
                                <duration>6</duration>
                                <start>14252</start>
                                <end>14258</end>
                                <in>4096</in>
                                <out>4102</out>
                            </clipitem>
                            <clipitem frameBlend="FALSE" id="clipitem-80">
                                <file id="file-1"/>
                                <name>bandicam 2025-06-02 00-01-10-144</name>
                                <rate>
                                    <timebase>60</timebase>
                                    <ntsc>TRUE</ntsc>
                                </rate>
                                <rate>
                                    <timebase>60</timebase>
                                    <ntsc>TRUE</ntsc>
                                </rate>
                                <duration>0</duration>
                                <start>14258</start>
                                <end>14258</end>
                                <in>4132</in>
                                <out>4132</out>
                            </clipitem>
                            <clipitem frameBlend="FALSE" id="clipitem-81">
                                <file id="file-1"/>
                                <name>bandicam 2025-06-02 00-01-10-144</name>
                                <rate>
                                    <timebase>60</timebase>
                                    <ntsc>TRUE</ntsc>
                                </rate>
                                <rate>
                                    <timebase>60</timebase>
                                    <ntsc>TRUE</ntsc>
                                </rate>
                                <duration>6</duration>
                                <start>14258</start>
                                <end>14264</end>
                                <in>5578</in>
                                <out>5584</out>
                            </clipitem>
                            <clipitem frameBlend="FALSE" id="clipitem-82">
                                <file id="file-1"/>
                                <name>bandicam 2025-06-02 00-01-10-144</name>
                                <rate>
                                    <timebase>60</timebase>
                                    <ntsc>TRUE</ntsc>
                                </rate>
                                <rate>
                                    <timebase>60</timebase>
                                    <ntsc>TRUE</ntsc>
                                </rate>
                                <duration>12</duration>
                                <start>14264</start>
                                <end>14276</end>
                                <in>5644</in>
                                <out>5656</out>
                            </clipitem>
                        </track>
                        <track>
                            <clipitem frameBlend="FALSE" id="clipitem-83">
                                <name>  </name>
                                <file id="file-2"/>
                                <rate>
                                    <timebase>60</timebase>
                                    <ntsc>TRUE</ntsc>
                                </rate>
                                <duration>359</duration>
                                <start>0</start>
                                <end>359</end>
                                <in>0</in>
                                <out>359</out>
                            </clipitem>
                        </track>
                        <track>
                            <clipitem frameBlend="FALSE" id="clipitem-84">
                                <name>  </name>
                                <file id="file-2"/>
                                <rate>
                                    <timebase>60</timebase>
                                    <ntsc>TRUE</ntsc>
                                </rate>
                                <duration>180</duration>
                                <start>359</start>
                                <end>539</end>
                                <in>359</in>
                                <out>539</out>
                            </clipitem>
                        </track>
                        <track>
                            <clipitem frameBlend="FALSE" id="clipitem-85">
                                <name> </name>
                                <file id="file-2"/>
                                <rate>
                                    <timebase>60</timebase>
                                    <ntsc>TRUE</ntsc>
                                </rate>
                                <duration>120</duration>
                                <start>539</start>
                                <end>659</end>
                                <in>539</in>
                                <out>659</out>
                            </clipitem>
                        </track>
                        <track>
                            <clipitem frameBlend="FALSE" id="clipitem-86">
                                <name> </name>
                                <file id="file-2"/>
                                <rate>
                                    <timebase>60</timebase>
                                    <ntsc>TRUE</ntsc>
                                </rate>
                                <duration>240</duration>
                                <start>659</start>
                                <end>899</end>
                                <in>659</in>
                                <out>899</out>
                            </clipitem>
                        </track>
                        <track>
                            <clipitem frameBlend="FALSE" id="clipitem-87">
                                <name>  </name>
                                <file id="file-2"/>
                                <rate>
                                    <timebase>60</timebase>
                                    <ntsc>TRUE</ntsc>
                                </rate>
                                <duration>360</duration>
                                <start>899</start>
                                <end>1259</end>
                                <in>899</in>
                                <out>1259</out>
                            </clipitem>
                        </track>
                        <track>
                            <clipitem frameBlend="FALSE" id="clipitem-88">
                                <name>    </name>
                                <file id="file-2"/>
                                <rate>
                                    <timebase>60</timebase>
                                    <ntsc>TRUE</ntsc>
                                </rate>
                                <duration>180</duration>
                                <start>1259</start>
                                <end>1439</end>
                                <in>1259</in>
                                <out>1439</out>
                            </clipitem>
                        </track>
                        <track>
                            <clipitem frameBlend="FALSE" id="clipitem-89">
                                <name> 1</name>
                                <file id="file-2"/>
                                <rate>
                                    <timebase>60</timebase>
                                    <ntsc>TRUE</ntsc>
                                </rate>
                                <duration>240</duration>
                                <start>1439</start>
                                <end>1679</end>
                                <in>1439</in>
                                <out>1679</out>
                            </clipitem>
                        </track>
                        <track>
                            <clipitem frameBlend="FALSE" id="clipitem-90">
                                <name>1 1</name>
                                <file id="file-2"/>
                                <rate>
                                    <timebase>60</timebase>
                                    <ntsc>TRUE</ntsc>
                                </rate>
                                <duration>300</duration>
                                <start>1679</start>
                                <end>1979</end>
                                <in>1679</in>
                                <out>1979</out>
                            </clipitem>
                        </track>
                        <track>
                            <clipitem frameBlend="FALSE" id="clipitem-91">
                                <name>  </name>
                                <file id="file-2"/>
                                <rate>
                                    <timebase>60</timebase>
                                    <ntsc>TRUE</ntsc>
                                </rate>
                                <duration>120</duration>
                                <start>1979</start>
                                <end>2099</end>
                                <in>1979</in>
                                <out>2099</out>
                            </clipitem>
                        </track>
                        <track>
                            <clipitem frameBlend="FALSE" id="clipitem-92">
                                <name> </name>
                                <file id="file-2"/>
                                <rate>
                                    <timebase>60</timebase>
                                    <ntsc>TRUE</ntsc>
                                </rate>
                                <duration>300</duration>
                                <start>2099</start>
                                <end>2399</end>
                                <in>2099</in>
                                <out>2399</out>
                            </clipitem>
                        </track>
                        <track>
                            <clipitem frameBlend="FALSE" id="clipitem-93">
                                <name>   </name>
                                <file id="file-2"/>
                                <rate>
                                    <timebase>60</timebase>
                                    <ntsc>TRUE</ntsc>
                                </rate>
                                <duration>240</duration>
                                <start>2399</start>
                                <end>2639</end>
                                <in>2399</in>
                                <out>2639</out>
                            </clipitem>
                        </track>
                        <track>
                            <clipitem frameBlend="FALSE" id="clipitem-94">
                                <name>  1</name>
                                <file id="file-2"/>
                                <rate>
                                    <timebase>60</timebase>
                                    <ntsc>TRUE</ntsc>
                                </rate>
                                <duration>240</duration>
                                <start>2639</start>
                                <end>2879</end>
                                <in>2639</in>
                                <out>2879</out>
                            </clipitem>
                        </track>
                        <track>
                            <clipitem frameBlend="FALSE" id="clipitem-95">
                                <name>1   </name>
                                <file id="file-2"/>
                                <rate>
                                    <timebase>60</timebase>
                                    <ntsc>TRUE</ntsc>
                                </rate>
                                <duration>120</duration>
                                <start>2879</start>
                                <end>2999</end>
                                <in>2879</in>
                                <out>2999</out>
                            </clipitem>
                        </track>
                        <track>
                            <clipitem frameBlend="FALSE" id="clipitem-96">
                                <name>1</name>
                                <file id="file-2"/>
                                <rate>
                                    <timebase>60</timebase>
                                    <ntsc>TRUE</ntsc>
                                </rate>
                                <duration>240</duration>
                                <start>2999</start>
                                <end>3239</end>
                                <in>2999</in>
                                <out>3239</out>
                            </clipitem>
                        </track>
                        <track>
                            <clipitem frameBlend="FALSE" id="clipitem-97">
                                <name>?</name>
                                <file id="file-2"/>
                                <rate>
                                    <timebase>60</timebase>
                                    <ntsc>TRUE</ntsc>
                                </rate>
                                <duration>120</duration>
                                <start>3299</start>
                                <end>3419</end>
                                <in>3299</in>
                                <out>3419</out>
                            </clipitem>
                        </track>
                        <track>
                            <clipitem frameBlend="FALSE" id="clipitem-98">
                                <name>5</name>
                                <file id="file-2"/>
                                <rate>
                                    <timebase>60</timebase>
                                    <ntsc>TRUE</ntsc>
                                </rate>
                                <duration>119</duration>
                                <start>3419</start>
                                <end>3538</end>
                                <in>3419</in>
                                <out>3538</out>
                            </clipitem>
                        </track>
                        <track>
                            <clipitem frameBlend="FALSE" id="clipitem-99">
                                <name>5 1</name>
                                <file id="file-2"/>
                                <rate>
                                    <timebase>60</timebase>
                                    <ntsc>TRUE</ntsc>
                                </rate>
                                <duration>240</duration>
                                <start>3538</start>
                                <end>3778</end>
                                <in>3538</in>
                                <out>3778</out>
                            </clipitem>
                        </track>
                        <track>
                            <clipitem frameBlend="FALSE" id="clipitem-100">
                                <name></name>
                                <file id="file-2"/>
                                <rate>
                                    <timebase>60</timebase>
                                    <ntsc>TRUE</ntsc>
                                </rate>
                                <duration>120</duration>
                                <start>3778</start>
                                <end>3898</end>
                                <in>3778</in>
                                <out>3898</out>
                            </clipitem>
                        </track>
                        <track>
                            <clipitem frameBlend="FALSE" id="clipitem-101">
                                <name> </name>
                                <file id="file-2"/>
                                <rate>
                                    <timebase>60</timebase>
                                    <ntsc>TRUE</ntsc>
                                </rate>
                                <duration>120</duration>
                                <start>4018</start>
                                <end>4138</end>
                                <in>4018</in>
                                <out>4138</out>
                            </clipitem>
                        </track>
                        <track>
                            <clipitem frameBlend="FALSE" id="clipitem-102">
                                <name> </name>
                                <file id="file-2"/>
                                <rate>
                                    <timebase>60</timebase>
                                    <ntsc>TRUE</ntsc>
                                </rate>
                                <duration>180</duration>
                                <start>4138</start>
                                <end>4318</end>
                                <in>4138</in>
                                <out>4318</out>
                            </clipitem>
                        </track>
                        <track>
                            <clipitem frameBlend="FALSE" id="clipitem-103">
                                <name>   </name>
                                <file id="file-2"/>
                                <rate>
                                    <timebase>60</timebase>
                                    <ntsc>TRUE</ntsc>
                                </rate>
                                <duration>180</duration>
                                <start>4318</start>
                                <end>4498</end>
                                <in>4318</in>
                                <out>4498</out>
                            </clipitem>
                        </track>
                        <track>
                            <clipitem frameBlend="FALSE" id="clipitem-104">
                                <name>   </name>
                                <file id="file-2"/>
                                <rate>
                                    <timebase>60</timebase>
                                    <ntsc>TRUE</ntsc>
                                </rate>
                                <duration>180</duration>
                                <start>4498</start>
                                <end>4678</end>
                                <in>4498</in>
                                <out>4678</out>
                            </clipitem>
                        </track>
                        <track>
                            <clipitem frameBlend="FALSE" id="clipitem-105">
                                <name> </name>
                                <file id="file-2"/>
                                <rate>
                                    <timebase>60</timebase>
                                    <ntsc>TRUE</ntsc>
                                </rate>
                                <duration>180</duration>
                                <start>4678</start>
                                <end>4858</end>
                                <in>4678</in>
                                <out>4858</out>
                            </clipitem>
                        </track>
                        <track>
                            <clipitem frameBlend="FALSE" id="clipitem-106">
                                <name></name>
                                <file id="file-2"/>
                                <rate>
                                    <timebase>60</timebase>
                                    <ntsc>TRUE</ntsc>
                                </rate>
                                <duration>180</duration>
                                <start>4918</start>
                                <end>5098</end>
                                <in>4918</in>
                                <out>5098</out>
                            </clipitem>
                        </track>
                        <track>
                            <clipitem frameBlend="FALSE" id="clipitem-107">
                                <name></name>
                                <file id="file-2"/>
                                <rate>
                                    <timebase>60</timebase>
                                    <ntsc>TRUE</ntsc>
                                </rate>
                                <duration>180</duration>
                                <start>5098</start>
                                <end>5278</end>
                                <in>5098</in>
                                <out>5278</out>
                            </clipitem>
                        </track>
                        <track>
                            <clipitem frameBlend="FALSE" id="clipitem-108">
                                <name> </name>
                                <file id="file-2"/>
                                <rate>
                                    <timebase>60</timebase>
                                    <ntsc>TRUE</ntsc>
                                </rate>
                                <duration>240</duration>
                                <start>5278</start>
                                <end>5518</end>
                                <in>5278</in>
                                <out>5518</out>
                            </clipitem>
                        </track>
                        <track>
                            <clipitem frameBlend="FALSE" id="clipitem-109">
                                <name></name>
                                <file id="file-2"/>
                                <rate>
                                    <timebase>60</timebase>
                                    <ntsc>TRUE</ntsc>
                                </rate>
                                <duration>180</duration>
                                <start>5518</start>
                                <end>5698</end>
                                <in>5518</in>
                                <out>5698</out>
                            </clipitem>
                        </track>
                        <track>
                            <clipitem frameBlend="FALSE" id="clipitem-110">
                                <name></name>
                                <file id="file-2"/>
                                <rate>
                                    <timebase>60</timebase>
                                    <ntsc>TRUE</ntsc>
                                </rate>
                                <duration>180</duration>
                                <start>5698</start>
                                <end>5878</end>
                                <in>5698</in>
                                <out>5878</out>
                            </clipitem>
                        </track>
                        <track>
                            <clipitem frameBlend="FALSE" id="clipitem-111">
                                <name></name>
                                <file id="file-2"/>
                                <rate>
                                    <timebase>60</timebase>
                                    <ntsc>TRUE</ntsc>
                                </rate>
                                <duration>120</duration>
                                <start>5878</start>
                                <end>5998</end>
                                <in>5878</in>
                                <out>5998</out>
                            </clipitem>
                        </track>
                        <track>
                            <clipitem frameBlend="FALSE" id="clipitem-112">
                                <name></name>
                                <file id="file-2"/>
                                <rate>
                                    <timebase>60</timebase>
                                    <ntsc>TRUE</ntsc>
                                </rate>
                                <duration>120</duration>
                                <start>5998</start>
                                <end>6118</end>
                                <in>5998</in>
                                <out>6118</out>
                            </clipitem>
                        </track>
                        <track>
                            <clipitem frameBlend="FALSE" id="clipitem-113">
                                <name>  ?</name>
                                <file id="file-2"/>
                                <rate>
                                    <timebase>60</timebase>
                                    <ntsc>TRUE</ntsc>
                                </rate>
                                <duration>180</duration>
                                <start>6118</start>
                                <end>6298</end>
                                <in>6118</in>
                                <out>6298</out>
                            </clipitem>
                        </track>
                        <track>
                            <clipitem frameBlend="FALSE" id="clipitem-114">
                                <name> </name>
                                <file id="file-2"/>
                                <rate>
                                    <timebase>60</timebase>
                                    <ntsc>TRUE</ntsc>
                                </rate>
                                <duration>120</duration>
                                <start>6298</start>
                                <end>6418</end>
                                <in>6298</in>
                                <out>6418</out>
                            </clipitem>
                        </track>
                        <track>
                            <clipitem frameBlend="FALSE" id="clipitem-115">
                                <name></name>
                                <file id="file-2"/>
                                <rate>
                                    <timebase>60</timebase>
                                    <ntsc>TRUE</ntsc>
                                </rate>
                                <duration>120</duration>
                                <start>6418</start>
                                <end>6538</end>
                                <in>6418</in>
                                <out>6538</out>
                            </clipitem>
                        </track>
                        <track>
                            <clipitem frameBlend="FALSE" id="clipitem-116">
                                <name></name>
                                <file id="file-2"/>
                                <rate>
                                    <timebase>60</timebase>
                                    <ntsc>TRUE</ntsc>
                                </rate>
                                <duration>180</duration>
                                <start>6538</start>
                                <end>6718</end>
                                <in>6538</in>
                                <out>6718</out>
                            </clipitem>
                        </track>
                        <track>
                            <clipitem frameBlend="FALSE" id="clipitem-117">
                                <name></name>
                                <file id="file-2"/>
                                <rate>
                                    <timebase>60</timebase>
                                    <ntsc>TRUE</ntsc>
                                </rate>
                                <duration>180</duration>
                                <start>6718</start>
                                <end>6898</end>
                                <in>6718</in>
                                <out>6898</out>
                            </clipitem>
                        </track>
                        <track>
                            <clipitem frameBlend="FALSE" id="clipitem-118">
                                <name></name>
                                <file id="file-2"/>
                                <rate>
                                    <timebase>60</timebase>
                                    <ntsc>TRUE</ntsc>
                                </rate>
                                <duration>120</duration>
                                <start>6898</start>
                                <end>7018</end>
                                <in>6898</in>
                                <out>7018</out>
                            </clipitem>
                        </track>
                        <track>
                            <clipitem frameBlend="FALSE" id="clipitem-119">
                                <name>1</name>
                                <file id="file-2"/>
                                <rate>
                                    <timebase>60</timebase>
                                    <ntsc>TRUE</ntsc>
                                </rate>
                                <duration>179</duration>
                                <start>7018</start>
                                <end>7197</end>
                                <in>7018</in>
                                <out>7197</out>
                            </clipitem>
                        </track>
                        <track>
                            <clipitem frameBlend="FALSE" id="clipitem-120">
                                <name></name>
                                <file id="file-2"/>
                                <rate>
                                    <timebase>60</timebase>
                                    <ntsc>TRUE</ntsc>
                                </rate>
                                <duration>66</duration>
                                <start>47</start>
                                <end>113</end>
                                <in>47</in>
                                <out>113</out>
                            </clipitem>
                        </track>
                        <track>
                            <clipitem frameBlend="FALSE" id="clipitem-121">
                                <name></name>
                                <file id="file-2"/>
                                <rate>
                                    <timebase>60</timebase>
                                    <ntsc>TRUE</ntsc>
                                </rate>
                                <duration>60</duration>
                                <start>53</start>
                                <end>113</end>
                                <in>53</in>
                                <out>113</out>
                            </clipitem>
                        </track>
                        <track>
                            <clipitem frameBlend="FALSE" id="clipitem-122">
                                <name></name>
                                <file id="file-2"/>
                                <rate>
                                    <timebase>60</timebase>
                                    <ntsc>TRUE</ntsc>
                                </rate>
                                <duration>60</duration>
                                <start>59</start>
                                <end>119</end>
                                <in>59</in>
                                <out>119</out>
                            </clipitem>
                        </track>
                        <track>
                            <clipitem frameBlend="FALSE" id="clipitem-123">
                                <name></name>
                                <file id="file-2"/>
                                <rate>
                                    <timebase>60</timebase>
                                    <ntsc>TRUE</ntsc>
                                </rate>
                                <duration>60</duration>
                                <start>65</start>
                                <end>125</end>
                                <in>65</in>
                                <out>125</out>
                            </clipitem>
                        </track>
                        <track>
                            <clipitem frameBlend="FALSE" id="clipitem-124">
                                <name></name>
                                <file id="file-2"/>
                                <rate>
                                    <timebase>60</timebase>
                                    <ntsc>TRUE</ntsc>
                                </rate>
                                <duration>66</duration>
                                <start>71</start>
                                <end>137</end>
                                <in>71</in>
                                <out>137</out>
                            </clipitem>
                        </track>
                        <track>
                            <clipitem frameBlend="FALSE" id="clipitem-125">
                                <name></name>
                                <file id="file-2"/>
                                <rate>
                                    <timebase>60</timebase>
                                    <ntsc>TRUE</ntsc>
                                </rate>
                                <duration>60</duration>
                                <start>89</start>
                                <end>149</end>
                                <in>89</in>
                                <out>149</out>
                            </clipitem>
                        </track>
                        <track>
                            <clipitem id="clipitem-125"/>
                        </track>
                        <track>
                            <clipitem frameBlend="FALSE" id="clipitem-126">
                                <name></name>
                                <file id="file-2"/>
                                <rate>
                                    <timebase>60</timebase>
                                    <ntsc>TRUE</ntsc>
                                </rate>
                                <duration>60</duration>
                                <start>107</start>
                                <end>167</end>
                                <in>107</in>
                                <out>167</out>
                            </clipitem>
                        </track>
                        <track>
                            <clipitem frameBlend="FALSE" id="clipitem-127">
                                <name></name>
                                <file id="file-2"/>
                                <rate>
                                    <timebase>60</timebase>
                                    <ntsc>TRUE</ntsc>
                                </rate>
                                <duration>60</duration>
                                <start>113</start>
                                <end>173</end>
                                <in>113</in>
                                <out>173</out>
                            </clipitem>
                        </track>
                        <track>
                            <clipitem frameBlend="FALSE" id="clipitem-128">
                                <name></name>
                                <file id="file-2"/>
                                <rate>
                                    <timebase>60</timebase>
                                    <ntsc>TRUE</ntsc>
                                </rate>
                                <duration>66</duration>
                                <start>119</start>
                                <end>185</end>
                                <in>119</in>
                                <out>185</out>
                            </clipitem>
                        </track>
                        <track>
                            <clipitem frameBlend="FALSE" id="clipitem-129">
                                <name></name>
                                <file id="file-2"/>
                                <rate>
                                    <timebase>60</timebase>
                                    <ntsc>TRUE</ntsc>
                                </rate>
                                <duration>60</duration>
                                <start>131</start>
                                <end>191</end>
                                <in>131</in>
                                <out>191</out>
                            </clipitem>
                        </track>
                        <track>
                            <clipitem frameBlend="FALSE" id="clipitem-130">
                                <name></name>
                                <file id="file-2"/>
                                <rate>
                                    <timebase>60</timebase>
                                    <ntsc>TRUE</ntsc>
                                </rate>
                                <duration>60</duration>
                                <start>137</start>
                                <end>197</end>
                                <in>137</in>
                                <out>197</out>
                            </clipitem>
                        </track>
                        <track>
                            <clipitem frameBlend="FALSE" id="clipitem-131">
                                <name></name>
                                <file id="file-2"/>
                                <rate>
                                    <timebase>60</timebase>
                                    <ntsc>TRUE</ntsc>
                                </rate>
                                <duration>60</duration>
                                <start>143</start>
                                <end>203</end>
                                <in>143</in>
                                <out>203</out>
                            </clipitem>
                        </track>
                        <track>
                            <clipitem frameBlend="FALSE" id="clipitem-132">
                                <name></name>
                                <file id="file-2"/>
                                <rate>
                                    <timebase>60</timebase>
                                    <ntsc>TRUE</ntsc>
                                </rate>
                                <duration>60</duration>
                                <start>149</start>
                                <end>209</end>
                                <in>149</in>
                                <out>209</out>
                            </clipitem>
                        </track>
                        <track>
                            <clipitem frameBlend="FALSE" id="clipitem-133">
                                <name></name>
                                <file id="file-2"/>
                                <rate>
                                    <timebase>60</timebase>
                                    <ntsc>TRUE</ntsc>
                                </rate>
                                <duration>60</duration>
                                <start>155</start>
                                <end>215</end>
                                <in>155</in>
                                <out>215</out>
                            </clipitem>
                        </track>
                        <track>
                            <clipitem frameBlend="FALSE" id="clipitem-134">
                                <name></name>
                                <file id="file-2"/>
                                <rate>
                                    <timebase>60</timebase>
                                    <ntsc>TRUE</ntsc>
                                </rate>
                                <duration>60</duration>
                                <start>209</start>
                                <end>269</end>
                                <in>209</in>
                                <out>269</out>
                            </clipitem>
                        </track>
                        <track>
                            <clipitem frameBlend="FALSE" id="clipitem-135">
                                <name></name>
                                <file id="file-2"/>
                                <rate>
                                    <timebase>60</timebase>
                                    <ntsc>TRUE</ntsc>
                                </rate>
                                <duration>60</duration>
                                <start>215</start>
                                <end>275</end>
                                <in>215</in>
                                <out>275</out>
                            </clipitem>
                        </track>
                        <track>
                            <clipitem frameBlend="FALSE" id="clipitem-136">
                                <name></name>
                                <file id="file-2"/>
                                <rate>
                                    <timebase>60</timebase>
                                    <ntsc>TRUE</ntsc>
                                </rate>
                                <duration>66</duration>
                                <start>233</start>
                                <end>299</end>
                                <in>233</in>
                                <out>299</out>
                            </clipitem>
                        </track>
                        <track>
                            <clipitem frameBlend="FALSE" id="clipitem-137">
                                <name></name>
                                <file id="file-2"/>
                                <rate>
                                    <timebase>60</timebase>
                                    <ntsc>TRUE</ntsc>
                                </rate>
                                <duration>60</duration>
                                <start>239</start>
                                <end>299</end>
                                <in>239</in>
                                <out>299</out>
                            </clipitem>
                        </track>
                        <track>
                            <clipitem frameBlend="FALSE" id="clipitem-138">
                                <name></name>
                                <file id="file-2"/>
                                <rate>
                                    <timebase>60</timebase>
                                    <ntsc>TRUE</ntsc>
                                </rate>
                                <duration>60</duration>
                                <start>245</start>
                                <end>305</end>
                                <in>245</in>
                                <out>305</out>
                            </clipitem>
                        </track>
                        <track>
                            <clipitem frameBlend="FALSE" id="clipitem-139">
                                <name></name>
                                <file id="file-2"/>
                                <rate>
                                    <timebase>60</timebase>
                                    <ntsc>TRUE</ntsc>
                                </rate>
                                <duration>60</duration>
                                <start>251</start>
                                <end>311</end>
                                <in>251</in>
                                <out>311</out>
                            </clipitem>
                        </track>
                        <track>
                            <clipitem frameBlend="FALSE" id="clipitem-140">
                                <name></name>
                                <file id="file-2"/>
                                <rate>
                                    <timebase>60</timebase>
                                    <ntsc>TRUE</ntsc>
                                </rate>
                                <duration>60</duration>
                                <start>263</start>
                                <end>323</end>
                                <in>263</in>
                                <out>323</out>
                            </clipitem>
                        </track>
                        <track>
                            <clipitem frameBlend="FALSE" id="clipitem-141">
                                <name></name>
                                <file id="file-2"/>
                                <rate>
                                    <timebase>60</timebase>
                                    <ntsc>TRUE</ntsc>
                                </rate>
                                <duration>66</duration>
                                <start>263</start>
                                <end>329</end>
                                <in>263</in>
                                <out>329</out>
                            </clipitem>
                        </track>
                        <track>
                            <clipitem frameBlend="FALSE" id="clipitem-142">
                                <name></name>
                                <file id="file-2"/>
                                <rate>
                                    <timebase>60</timebase>
                                    <ntsc>TRUE</ntsc>
                                </rate>
                                <duration>60</duration>
                                <start>269</start>
                                <end>329</end>
                                <in>269</in>
                                <out>329</out>
                            </clipitem>
                        </track>
                        <track>
                            <clipitem frameBlend="FALSE" id="clipitem-143">
                                <name></name>
                                <file id="file-2"/>
                                <rate>
                                    <timebase>60</timebase>
                                    <ntsc>TRUE</ntsc>
                                </rate>
                                <duration>66</duration>
                                <start>275</start>
                                <end>341</end>
                                <in>275</in>
                                <out>341</out>
                            </clipitem>
                        </track>
                        <track>
                            <clipitem frameBlend="FALSE" id="clipitem-144">
                                <name></name>
                                <file id="file-2"/>
                                <rate>
                                    <timebase>60</timebase>
                                    <ntsc>TRUE</ntsc>
                                </rate>
                                <duration>60</duration>
                                <start>299</start>
                                <end>359</end>
                                <in>299</in>
                                <out>359</out>
                            </clipitem>
                        </track>
                        <track>
                            <clipitem id="clipitem-144"/>
                        </track>
                        <track>
                            <clipitem frameBlend="FALSE" id="clipitem-145">
                                <name></name>
                                <file id="file-2"/>
                                <rate>
                                    <timebase>60</timebase>
                                    <ntsc>TRUE</ntsc>
                                </rate>
                                <duration>60</duration>
                                <start>311</start>
                                <end>371</end>
                                <in>311</in>
                                <out>371</out>
                            </clipitem>
                        </track>
                        <track>
                            <clipitem frameBlend="FALSE" id="clipitem-146">
                                <name></name>
                                <file id="file-2"/>
                                <rate>
                                    <timebase>60</timebase>
                                    <ntsc>TRUE</ntsc>
                                </rate>
                                <duration>60</duration>
                                <start>323</start>
                                <end>383</end>
                                <in>323</in>
                                <out>383</out>
                            </clipitem>
                        </track>
                        <track>
                            <clipitem frameBlend="FALSE" id="clipitem-147">
                                <name></name>
                                <file id="file-2"/>
                                <rate>
                                    <timebase>60</timebase>
                                    <ntsc>TRUE</ntsc>
                                </rate>
                                <duration>66</duration>
                                <start>323</start>
                                <end>389</end>
                                <in>323</in>
                                <out>389</out>
                            </clipitem>
                        </track>
                        <track>
                            <clipitem frameBlend="FALSE" id="clipitem-148">
                                <name></name>
                                <file id="file-2"/>
                                <rate>
                                    <timebase>60</timebase>
                                    <ntsc>TRUE</ntsc>
                                </rate>
                                <duration>60</duration>
                                <start>329</start>
                                <end>389</end>
                                <in>329</in>
                                <out>389</out>
                            </clipitem>
                        </track>
                        <track>
                            <clipitem frameBlend="FALSE" id="clipitem-149">
                                <name></name>
                                <file id="file-2"/>
                                <rate>
                                    <timebase>60</timebase>
                                    <ntsc>TRUE</ntsc>
                                </rate>
                                <duration>66</duration>
                                <start>341</start>
                                <end>407</end>
                                <in>341</in>
                                <out>407</out>
                            </clipitem>
                        </track>
                        <track>
                            <clipitem frameBlend="FALSE" id="clipitem-150">
                                <name></name>
                                <file id="file-2"/>
                                <rate>
                                    <timebase>60</timebase>
                                    <ntsc>TRUE</ntsc>
                                </rate>
                                <duration>60</duration>
                                <start>365</start>
                                <end>425</end>
                                <in>365</in>
                                <out>425</out>
                            </clipitem>
                        </track>
                        <track>
                            <clipitem frameBlend="FALSE" id="clipitem-151">
                                <name></name>
                                <file id="file-2"/>
                                <rate>
                                    <timebase>60</timebase>
                                    <ntsc>TRUE</ntsc>
                                </rate>
                                <duration>66</duration>
                                <start>377</start>
                                <end>443</end>
                                <in>377</in>
                                <out>443</out>
                            </clipitem>
                        </track>
                        <track>
                            <clipitem frameBlend="FALSE" id="clipitem-152">
                                <name></name>
                                <file id="file-2"/>
                                <rate>
                                    <timebase>60</timebase>
                                    <ntsc>TRUE</ntsc>
                                </rate>
                                <duration>66</duration>
                                <start>383</start>
                                <end>449</end>
                                <in>383</in>
                                <out>449</out>
                            </clipitem>
                        </track>
                        <track>
                            <clipitem frameBlend="FALSE" id="clipitem-153">
                                <name></name>
                                <file id="file-2"/>
                                <rate>
                                    <timebase>60</timebase>
                                    <ntsc>TRUE</ntsc>
                                </rate>
                                <duration>60</duration>
                                <start>389</start>
                                <end>449</end>
                                <in>389</in>
                                <out>449</out>
                            </clipitem>
                        </track>
                        <track>
                            <clipitem frameBlend="FALSE" id="clipitem-154">
                                <name></name>
                                <file id="file-2"/>
                                <rate>
                                    <timebase>60</timebase>
                                    <ntsc>TRUE</ntsc>
                                </rate>
                                <duration>66</duration>
                                <start>407</start>
                                <end>473</end>
                                <in>407</in>
                                <out>473</out>
                            </clipitem>
                        </track>
                        <track>
                            <clipitem frameBlend="FALSE" id="clipitem-155">
                                <name></name>
                                <file id="file-2"/>
                                <rate>
                                    <timebase>60</timebase>
                                    <ntsc>TRUE</ntsc>
                                </rate>
                                <duration>60</duration>
                                <start>413</start>
                                <end>473</end>
                                <in>413</in>
                                <out>473</out>
                            </clipitem>
                        </track>
                        <track>
                            <clipitem frameBlend="FALSE" id="clipitem-156">
                                <name></name>
                                <file id="file-2"/>
                                <rate>
                                    <timebase>60</timebase>
                                    <ntsc>TRUE</ntsc>
                                </rate>
                                <duration>60</duration>
                                <start>437</start>
                                <end>497</end>
                                <in>437</in>
                                <out>497</out>
                            </clipitem>
                        </track>
                        <track>
                            <clipitem frameBlend="FALSE" id="clipitem-157">
                                <name></name>
                                <file id="file-2"/>
                                <rate>
                                    <timebase>60</timebase>
                                    <ntsc>TRUE</ntsc>
                                </rate>
                                <duration>60</duration>
                                <start>443</start>
                                <end>503</end>
                                <in>443</in>
                                <out>503</out>
                            </clipitem>
                        </track>
                        <track>
                            <clipitem frameBlend="FALSE" id="clipitem-158">
                                <name></name>
                                <file id="file-2"/>
                                <rate>
                                    <timebase>60</timebase>
                                    <ntsc>TRUE</ntsc>
                                </rate>
                                <duration>66</duration>
                                <start>455</start>
                                <end>521</end>
                                <in>455</in>
                                <out>521</out>
                            </clipitem>
                        </track>
                        <track>
                            <clipitem frameBlend="FALSE" id="clipitem-159">
                                <name></name>
                                <file id="file-2"/>
                                <rate>
                                    <timebase>60</timebase>
                                    <ntsc>TRUE</ntsc>
                                </rate>
                                <duration>60</duration>
                                <start>473</start>
                                <end>533</end>
                                <in>473</in>
                                <out>533</out>
                            </clipitem>
                        </track>
                        <track>
                            <clipitem id="clipitem-159"/>
                        </track>
                        <track>
                            <clipitem frameBlend="FALSE" id="clipitem-160">
                                <name></name>
                                <file id="file-2"/>
                                <rate>
                                    <timebase>60</timebase>
                                    <ntsc>TRUE</ntsc>
                                </rate>
                                <duration>60</duration>
                                <start>485</start>
                                <end>545</end>
                                <in>485</in>
                                <out>545</out>
                            </clipitem>
                        </track>
                        <track>
                            <clipitem id="clipitem-160"/>
                        </track>
                        <track>
                            <clipitem frameBlend="FALSE" id="clipitem-161">
                                <name></name>
                                <file id="file-2"/>
                                <rate>
                                    <timebase>60</timebase>
                                    <ntsc>TRUE</ntsc>
                                </rate>
                                <duration>60</duration>
                                <start>497</start>
                                <end>557</end>
                                <in>497</in>
                                <out>557</out>
                            </clipitem>
                        </track>
                        <track>
                            <clipitem frameBlend="FALSE" id="clipitem-162">
                                <name></name>
                                <file id="file-2"/>
                                <rate>
                                    <timebase>60</timebase>
                                    <ntsc>TRUE</ntsc>
                                </rate>
                                <duration>60</duration>
                                <start>503</start>
                                <end>563</end>
                                <in>503</in>
                                <out>563</out>
                            </clipitem>
                        </track>
                        <track>
                            <clipitem frameBlend="FALSE" id="clipitem-163">
                                <name></name>
                                <file id="file-2"/>
                                <rate>
                                    <timebase>60</timebase>
                                    <ntsc>TRUE</ntsc>
                                </rate>
                                <duration>60</duration>
                                <start>509</start>
                                <end>569</end>
                                <in>509</in>
                                <out>569</out>
                            </clipitem>
                        </track>
                        <track>
                            <clipitem frameBlend="FALSE" id="clipitem-164">
                                <name></name>
                                <file id="file-2"/>
                                <rate>
                                    <timebase>60</timebase>
                                    <ntsc>TRUE</ntsc>
                                </rate>
                                <duration>60</duration>
                                <start>515</start>
                                <end>575</end>
                                <in>515</in>
                                <out>575</out>
                            </clipitem>
                        </track>
                        <track>
                            <clipitem frameBlend="FALSE" id="clipitem-165">
                                <name></name>
                                <file id="file-2"/>
                                <rate>
                                    <timebase>60</timebase>
                                    <ntsc>TRUE</ntsc>
                                </rate>
                                <duration>60</duration>
                                <start>533</start>
                                <end>593</end>
                                <in>533</in>
                                <out>593</out>
                            </clipitem>
                        </track>
                        <track>
                            <clipitem frameBlend="FALSE" id="clipitem-166">
                                <name></name>
                                <file id="file-2"/>
                                <rate>
                                    <timebase>60</timebase>
                                    <ntsc>TRUE</ntsc>
                                </rate>
                                <duration>66</duration>
                                <start>533</start>
                                <end>599</end>
                                <in>533</in>
                                <out>599</out>
                            </clipitem>
                        </track>
                        <track>
                            <clipitem frameBlend="FALSE" id="clipitem-167">
                                <name></name>
                                <file id="file-2"/>
                                <rate>
                                    <timebase>60</timebase>
                                    <ntsc>TRUE</ntsc>
                                </rate>
                                <duration>60</duration>
                                <start>545</start>
                                <end>605</end>
                                <in>545</in>
                                <out>605</out>
                            </clipitem>
                        </track>
                        <track>
                            <clipitem frameBlend="FALSE" id="clipitem-168">
                                <name></name>
                                <file id="file-2"/>
                                <rate>
                                    <timebase>60</timebase>
                                    <ntsc>TRUE</ntsc>
                                </rate>
                                <duration>60</duration>
                                <start>551</start>
                                <end>611</end>
                                <in>551</in>
                                <out>611</out>
                            </clipitem>
                        </track>
                        <track>
                            <clipitem frameBlend="FALSE" id="clipitem-169">
                                <name></name>
                                <file id="file-2"/>
                                <rate>
                                    <timebase>60</timebase>
                                    <ntsc>TRUE</ntsc>
                                </rate>
                                <duration>60</duration>
                                <start>563</start>
                                <end>623</end>
                                <in>563</in>
                                <out>623</out>
                            </clipitem>
                        </track>
                        <track>
                            <clipitem frameBlend="FALSE" id="clipitem-170">
                                <name></name>
                                <file id="file-2"/>
                                <rate>
                                    <timebase>60</timebase>
                                    <ntsc>TRUE</ntsc>
                                </rate>
                                <duration>60</duration>
                                <start>575</start>
                                <end>635</end>
                                <in>575</in>
                                <out>635</out>
                            </clipitem>
                        </track>
                        <track>
                            <clipitem frameBlend="FALSE" id="clipitem-171">
                                <name></name>
                                <file id="file-2"/>
                                <rate>
                                    <timebase>60</timebase>
                                    <ntsc>TRUE</ntsc>
                                </rate>
                                <duration>60</duration>
                                <start>581</start>
                                <end>641</end>
                                <in>581</in>
                                <out>641</out>
                            </clipitem>
                        </track>
                        <track>
                            <clipitem frameBlend="FALSE" id="clipitem-172">
                                <name></name>
                                <file id="file-2"/>
                                <rate>
                                    <timebase>60</timebase>
                                    <ntsc>TRUE</ntsc>
                                </rate>
                                <duration>60</duration>
                                <start>587</start>
                                <end>647</end>
                                <in>587</in>
                                <out>647</out>
                            </clipitem>
                        </track>
                        <track>
                            <clipitem frameBlend="FALSE" id="clipitem-173">
                                <name></name>
                                <file id="file-2"/>
                                <rate>
                                    <timebase>60</timebase>
                                    <ntsc>TRUE</ntsc>
                                </rate>
                                <duration>60</duration>
                                <start>593</start>
                                <end>653</end>
                                <in>593</in>
                                <out>653</out>
                            </clipitem>
                        </track>
                        <track>
                            <clipitem frameBlend="FALSE" id="clipitem-174">
                                <name></name>
                                <file id="file-2"/>
                                <rate>
                                    <timebase>60</timebase>
                                    <ntsc>TRUE</ntsc>
                                </rate>
                                <duration>66</duration>
                                <start>593</start>
                                <end>659</end>
                                <in>593</in>
                                <out>659</out>
                            </clipitem>
                        </track>
                        <track>
                            <clipitem frameBlend="FALSE" id="clipitem-175">
                                <name></name>
                                <file id="file-2"/>
                                <rate>
                                    <timebase>60</timebase>
                                    <ntsc>TRUE</ntsc>
                                </rate>
                                <duration>60</duration>
                                <start>599</start>
                                <end>659</end>
                                <in>599</in>
                                <out>659</out>
                            </clipitem>
                        </track>
                        <track>
                            <clipitem frameBlend="FALSE" id="clipitem-176">
                                <name></name>
                                <file id="file-2"/>
                                <rate>
                                    <timebase>60</timebase>
                                    <ntsc>TRUE</ntsc>
                                </rate>
                                <duration>60</duration>
                                <start>605</start>
                                <end>665</end>
                                <in>605</in>
                                <out>665</out>
                            </clipitem>
                        </track>
                        <track>
                            <clipitem frameBlend="FALSE" id="clipitem-177">
                                <name></name>
                                <file id="file-2"/>
                                <rate>
                                    <timebase>60</timebase>
                                    <ntsc>TRUE</ntsc>
                                </rate>
                                <duration>66</duration>
                                <start>617</start>
                                <end>683</end>
                                <in>617</in>
                                <out>683</out>
                            </clipitem>
                        </track>
                        <track>
                            <clipitem frameBlend="FALSE" id="clipitem-178">
                                <name></name>
                                <file id="file-2"/>
                                <rate>
                                    <timebase>60</timebase>
                                    <ntsc>TRUE</ntsc>
                                </rate>
                                <duration>60</duration>
                                <start>623</start>
                                <end>683</end>
                                <in>623</in>
                                <out>683</out>
                            </clipitem>
                        </track>
                        <track>
                            <clipitem frameBlend="FALSE" id="clipitem-179">
                                <name></name>
                                <file id="file-2"/>
                                <rate>
                                    <timebase>60</timebase>
                                    <ntsc>TRUE</ntsc>
                                </rate>
                                <duration>66</duration>
                                <start>635</start>
                                <end>701</end>
                                <in>635</in>
                                <out>701</out>
                            </clipitem>
                        </track>
                        <track>
                            <clipitem frameBlend="FALSE" id="clipitem-180">
                                <name></name>
                                <file id="file-2"/>
                                <rate>
                                    <timebase>60</timebase>
                                    <ntsc>TRUE</ntsc>
                                </rate>
                                <duration>60</duration>
                                <start>641</start>
                                <end>701</end>
                                <in>641</in>
                                <out>701</out>
                            </clipitem>
                        </track>
                        <track>
                            <clipitem frameBlend="FALSE" id="clipitem-181">
                                <name></name>
                                <file id="file-2"/>
                                <rate>
                                    <timebase>60</timebase>
                                    <ntsc>TRUE</ntsc>
                                </rate>
                                <duration>60</duration>
                                <start>647</start>
                                <end>707</end>
                                <in>647</in>
                                <out>707</out>
                            </clipitem>
                        </track>
                        <track>
                            <clipitem frameBlend="FALSE" id="clipitem-182">
                                <name></name>
                                <file id="file-2"/>
                                <rate>
                                    <timebase>60</timebase>
                                    <ntsc>TRUE</ntsc>
                                </rate>
                                <duration>60</duration>
                                <start>653</start>
                                <end>713</end>
                                <in>653</in>
                                <out>713</out>
                            </clipitem>
                        </track>
                        <track>
                            <clipitem frameBlend="FALSE" id="clipitem-183">
                                <name></name>
                                <file id="file-2"/>
                                <rate>
                                    <timebase>60</timebase>
                                    <ntsc>TRUE</ntsc>
                                </rate>
                                <duration>60</duration>
                                <start>665</start>
                                <end>725</end>
                                <in>665</in>
                                <out>725</out>
                            </clipitem>
                        </track>
                        <track>
                            <clipitem frameBlend="FALSE" id="clipitem-184">
                                <name></name>
                                <file id="file-2"/>
                                <rate>
                                    <timebase>60</timebase>
                                    <ntsc>TRUE</ntsc>
                                </rate>
                                <duration>60</duration>
                                <start>671</start>
                                <end>731</end>
                                <in>671</in>
                                <out>731</out>
                            </clipitem>
                        </track>
                        <track>
                            <clipitem frameBlend="FALSE" id="clipitem-185">
                                <name></name>
                                <file id="file-2"/>
                                <rate>
                                    <timebase>60</timebase>
                                    <ntsc>TRUE</ntsc>
                                </rate>
                                <duration>66</duration>
                                <start>677</start>
                                <end>743</end>
                                <in>677</in>
                                <out>743</out>
                            </clipitem>
                        </track>
                        <track>
                            <clipitem frameBlend="FALSE" id="clipitem-186">
                                <name></name>
                                <file id="file-2"/>
                                <rate>
                                    <timebase>60</timebase>
                                    <ntsc>TRUE</ntsc>
                                </rate>
                                <duration>66</duration>
                                <start>689</start>
                                <end>755</end>
                                <in>689</in>
                                <out>755</out>
                            </clipitem>
                        </track>
                        <track>
                            <clipitem frameBlend="FALSE" id="clipitem-187">
                                <name></name>
                                <file id="file-2"/>
                                <rate>
                                    <timebase>60</timebase>
                                    <ntsc>TRUE</ntsc>
                                </rate>
                                <duration>60</duration>
                                <start>701</start>
                                <end>761</end>
                                <in>701</in>
                                <out>761</out>
                            </clipitem>
                        </track>
                        <track>
                            <clipitem frameBlend="FALSE" id="clipitem-188">
                                <name></name>
                                <file id="file-2"/>
                                <rate>
                                    <timebase>60</timebase>
                                    <ntsc>TRUE</ntsc>
                                </rate>
                                <duration>60</duration>
                                <start>707</start>
                                <end>767</end>
                                <in>707</in>
                                <out>767</out>
                            </clipitem>
                        </track>
                        <track>
                            <clipitem frameBlend="FALSE" id="clipitem-189">
                                <name></name>
                                <file id="file-2"/>
                                <rate>
                                    <timebase>60</timebase>
                                    <ntsc>TRUE</ntsc>
                                </rate>
                                <duration>66</duration>
                                <start>713</start>
                                <end>779</end>
                                <in>713</in>
                                <out>779</out>
                            </clipitem>
                        </track>
                        <track>
                            <clipitem frameBlend="FALSE" id="clipitem-190">
                                <name></name>
                                <file id="file-2"/>
                                <rate>
                                    <timebase>60</timebase>
                                    <ntsc>TRUE</ntsc>
                                </rate>
                                <duration>60</duration>
                                <start>719</start>
                                <end>779</end>
                                <in>719</in>
                                <out>779</out>
                            </clipitem>
                        </track>
                        <track>
                            <clipitem frameBlend="FALSE" id="clipitem-191">
                                <name></name>
                                <file id="file-2"/>
                                <rate>
                                    <timebase>60</timebase>
                                    <ntsc>TRUE</ntsc>
                                </rate>
                                <duration>60</duration>
                                <start>743</start>
                                <end>803</end>
                                <in>743</in>
                                <out>803</out>
                            </clipitem>
                        </track>
                        <track>
                            <clipitem id="clipitem-191"/>
                        </track>
                        <track>
                            <clipitem frameBlend="FALSE" id="clipitem-192">
                                <name></name>
                                <file id="file-2"/>
                                <rate>
                                    <timebase>60</timebase>
                                    <ntsc>TRUE</ntsc>
                                </rate>
                                <duration>60</duration>
                                <start>749</start>
                                <end>809</end>
                                <in>749</in>
                                <out>809</out>
                            </clipitem>
                        </track>
                        <track>
                            <clipitem frameBlend="FALSE" id="clipitem-193">
                                <name></name>
                                <file id="file-2"/>
                                <rate>
                                    <timebase>60</timebase>
                                    <ntsc>TRUE</ntsc>
                                </rate>
                                <duration>60</duration>
                                <start>761</start>
                                <end>821</end>
                                <in>761</in>
                                <out>821</out>
                            </clipitem>
                        </track>
                        <track>
                            <clipitem frameBlend="FALSE" id="clipitem-194">
                                <name></name>
                                <file id="file-2"/>
                                <rate>
                                    <timebase>60</timebase>
                                    <ntsc>TRUE</ntsc>
                                </rate>
                                <duration>60</duration>
                                <start>773</start>
                                <end>833</end>
                                <in>773</in>
                                <out>833</out>
                            </clipitem>
                        </track>
                        <track>
                            <clipitem frameBlend="FALSE" id="clipitem-195">
                                <name></name>
                                <file id="file-2"/>
                                <rate>
                                    <timebase>60</timebase>
                                    <ntsc>TRUE</ntsc>
                                </rate>
                                <duration>60</duration>
                                <start>779</start>
                                <end>839</end>
                                <in>779</in>
                                <out>839</out>
                            </clipitem>
                        </track>
                        <track>
                            <clipitem frameBlend="FALSE" id="clipitem-196">
                                <name></name>
                                <file id="file-2"/>
                                <rate>
                                    <timebase>60</timebase>
                                    <ntsc>TRUE</ntsc>
                                </rate>
                                <duration>60</duration>
                                <start>791</start>
                                <end>851</end>
                                <in>791</in>
                                <out>851</out>
                            </clipitem>
                        </track>
                        <track>
                            <clipitem id="clipitem-196"/>
                        </track>
                        <track>
                            <clipitem frameBlend="FALSE" id="clipitem-197">
                                <name></name>
                                <file id="file-2"/>
                                <rate>
                                    <timebase>60</timebase>
                                    <ntsc>TRUE</ntsc>
                                </rate>
                                <duration>60</duration>
                                <start>797</start>
                                <end>857</end>
                                <in>797</in>
                                <out>857</out>
                            </clipitem>
                        </track>
                        <track>
                            <clipitem frameBlend="FALSE" id="clipitem-198">
                                <name></name>
                                <file id="file-2"/>
                                <rate>
                                    <timebase>60</timebase>
                                    <ntsc>TRUE</ntsc>
                                </rate>
                                <duration>60</duration>
                                <start>803</start>
                                <end>863</end>
                                <in>803</in>
                                <out>863</out>
                            </clipitem>
                        </track>
                        <track>
                            <clipitem frameBlend="FALSE" id="clipitem-199">
                                <name></name>
                                <file id="file-2"/>
                                <rate>
                                    <timebase>60</timebase>
                                    <ntsc>TRUE</ntsc>
                                </rate>
                                <duration>60</duration>
                                <start>815</start>
                                <end>875</end>
                                <in>815</in>
                                <out>875</out>
                            </clipitem>
                        </track>
                        <track>
                            <clipitem frameBlend="FALSE" id="clipitem-200">
                                <name></name>
                                <file id="file-2"/>
                                <rate>
                                    <timebase>60</timebase>
                                    <ntsc>TRUE</ntsc>
                                </rate>
                                <duration>66</duration>
                                <start>821</start>
                                <end>887</end>
                                <in>821</in>
                                <out>887</out>
                            </clipitem>
                        </track>
                        <track>
                            <clipitem frameBlend="FALSE" id="clipitem-201">
                                <name></name>
                                <file id="file-2"/>
                                <rate>
                                    <timebase>60</timebase>
                                    <ntsc>TRUE</ntsc>
                                </rate>
                                <duration>60</duration>
                                <start>827</start>
                                <end>887</end>
                                <in>827</in>
                                <out>887</out>
                            </clipitem>
                        </track>
                        <track>
                            <clipitem frameBlend="FALSE" id="clipitem-202">
                                <name></name>
                                <file id="file-2"/>
                                <rate>
                                    <timebase>60</timebase>
                                    <ntsc>TRUE</ntsc>
                                </rate>
                                <duration>60</duration>
                                <start>833</start>
                                <end>893</end>
                                <in>833</in>
                                <out>893</out>
                            </clipitem>
                        </track>
                        <track>
                            <clipitem frameBlend="FALSE" id="clipitem-203">
                                <name></name>
                                <file id="file-2"/>
                                <rate>
                                    <timebase>60</timebase>
                                    <ntsc>TRUE</ntsc>
                                </rate>
                                <duration>60</duration>
                                <start>845</start>
                                <end>905</end>
                                <in>845</in>
                                <out>905</out>
                            </clipitem>
                        </track>
                        <track>
                            <clipitem id="clipitem-203"/>
                        </track>
                        <track>
                            <clipitem frameBlend="FALSE" id="clipitem-204">
                                <name></name>
                                <file id="file-2"/>
                                <rate>
                                    <timebase>60</timebase>
                                    <ntsc>TRUE</ntsc>
                                </rate>
                                <duration>66</duration>
                                <start>845</start>
                                <end>911</end>
                                <in>845</in>
                                <out>911</out>
                            </clipitem>
                        </track>
                        <track>
                            <clipitem frameBlend="FALSE" id="clipitem-205">
                                <name></name>
                                <file id="file-2"/>
                                <rate>
                                    <timebase>60</timebase>
                                    <ntsc>TRUE</ntsc>
                                </rate>
                                <duration>60</duration>
                                <start>851</start>
                                <end>911</end>
                                <in>851</in>
                                <out>911</out>
                            </clipitem>
                        </track>
                        <track>
                            <clipitem frameBlend="FALSE" id="clipitem-206">
                                <name></name>
                                <file id="file-2"/>
                                <rate>
                                    <timebase>60</timebase>
                                    <ntsc>TRUE</ntsc>
                                </rate>
                                <duration>60</duration>
                                <start>863</start>
                                <end>923</end>
                                <in>863</in>
                                <out>923</out>
                            </clipitem>
                        </track>
                        <track>
                            <clipitem frameBlend="FALSE" id="clipitem-207">
                                <name></name>
                                <file id="file-2"/>
                                <rate>
                                    <timebase>60</timebase>
                                    <ntsc>TRUE</ntsc>
                                </rate>
                                <duration>60</duration>
                                <start>869</start>
                                <end>929</end>
                                <in>869</in>
                                <out>929</out>
                            </clipitem>
                        </track>
                        <track>
                            <clipitem frameBlend="FALSE" id="clipitem-208">
                                <name></name>
                                <file id="file-2"/>
                                <rate>
                                    <timebase>60</timebase>
                                    <ntsc>TRUE</ntsc>
                                </rate>
                                <duration>60</duration>
                                <start>875</start>
                                <end>935</end>
                                <in>875</in>
                                <out>935</out>
                            </clipitem>
                        </track>
                        <track>
                            <clipitem id="clipitem-208"/>
                        </track>
                        <track>
                            <clipitem frameBlend="FALSE" id="clipitem-209">
                                <name></name>
                                <file id="file-2"/>
                                <rate>
                                    <timebase>60</timebase>
                                    <ntsc>TRUE</ntsc>
                                </rate>
                                <duration>60</duration>
                                <start>887</start>
                                <end>947</end>
                                <in>887</in>
                                <out>947</out>
                            </clipitem>
                        </track>
                        <track>
                            <clipitem frameBlend="FALSE" id="clipitem-210">
                                <name></name>
                                <file id="file-2"/>
                                <rate>
                                    <timebase>60</timebase>
                                    <ntsc>TRUE</ntsc>
                                </rate>
                                <duration>60</duration>
                                <start>893</start>
                                <end>953</end>
                                <in>893</in>
                                <out>953</out>
                            </clipitem>
                        </track>
                        <track>
                            <clipitem frameBlend="FALSE" id="clipitem-211">
                                <name></name>
                                <file id="file-2"/>
                                <rate>
                                    <timebase>60</timebase>
                                    <ntsc>TRUE</ntsc>
                                </rate>
                                <duration>66</duration>
                                <start>899</start>
                                <end>965</end>
                                <in>899</in>
                                <out>965</out>
                            </clipitem>
                        </track>
                        <track>
                            <clipitem frameBlend="FALSE" id="clipitem-212">
                                <name></name>
                                <file id="file-2"/>
                                <rate>
                                    <timebase>60</timebase>
                                    <ntsc>TRUE</ntsc>
                                </rate>
                                <duration>60</duration>
                                <start>911</start>
                                <end>971</end>
                                <in>911</in>
                                <out>971</out>
                            </clipitem>
                        </track>
                        <track>
                            <clipitem frameBlend="FALSE" id="clipitem-213">
                                <name></name>
                                <file id="file-2"/>
                                <rate>
                                    <timebase>60</timebase>
                                    <ntsc>TRUE</ntsc>
                                </rate>
                                <duration>66</duration>
                                <start>911</start>
                                <end>977</end>
                                <in>911</in>
                                <out>977</out>
                            </clipitem>
                        </track>
                        <track>
                            <clipitem frameBlend="FALSE" id="clipitem-214">
                                <name></name>
                                <file id="file-2"/>
                                <rate>
                                    <timebase>60</timebase>
                                    <ntsc>TRUE</ntsc>
                                </rate>
                                <duration>60</duration>
                                <start>923</start>
                                <end>983</end>
                                <in>923</in>
                                <out>983</out>
                            </clipitem>
                        </track>
                        <track>
                            <clipitem frameBlend="FALSE" id="clipitem-215">
                                <name></name>
                                <file id="file-2"/>
                                <rate>
                                    <timebase>60</timebase>
                                    <ntsc>TRUE</ntsc>
                                </rate>
                                <duration>66</duration>
                                <start>929</start>
                                <end>995</end>
                                <in>929</in>
                                <out>995</out>
                            </clipitem>
                        </track>
                        <track>
                            <clipitem frameBlend="FALSE" id="clipitem-216">
                                <name></name>
                                <file id="file-2"/>
                                <rate>
                                    <timebase>60</timebase>
                                    <ntsc>TRUE</ntsc>
                                </rate>
                                <duration>66</duration>
                                <start>935</start>
                                <end>1001</end>
                                <in>935</in>
                                <out>1001</out>
                            </clipitem>
                        </track>
                        <track>
                            <clipitem frameBlend="FALSE" id="clipitem-217">
                                <name></name>
                                <file id="file-2"/>
                                <rate>
                                    <timebase>60</timebase>
                                    <ntsc>TRUE</ntsc>
                                </rate>
                                <duration>60</duration>
                                <start>941</start>
                                <end>1001</end>
                                <in>941</in>
                                <out>1001</out>
                            </clipitem>
                        </track>
                        <track>
                            <clipitem frameBlend="FALSE" id="clipitem-218">
                                <name></name>
                                <file id="file-2"/>
                                <rate>
                                    <timebase>60</timebase>
                                    <ntsc>TRUE</ntsc>
                                </rate>
                                <duration>60</duration>
                                <start>947</start>
                                <end>1007</end>
                                <in>947</in>
                                <out>1007</out>
                            </clipitem>
                        </track>
                        <track>
                            <clipitem frameBlend="FALSE" id="clipitem-219">
                                <name></name>
                                <file id="file-2"/>
                                <rate>
                                    <timebase>60</timebase>
                                    <ntsc>TRUE</ntsc>
                                </rate>
                                <duration>60</duration>
                                <start>953</start>
                                <end>1013</end>
                                <in>953</in>
                                <out>1013</out>
                            </clipitem>
                        </track>
                        <track>
                            <clipitem frameBlend="FALSE" id="clipitem-220">
                                <name></name>
                                <file id="file-2"/>
                                <rate>
                                    <timebase>60</timebase>
                                    <ntsc>TRUE</ntsc>
                                </rate>
                                <duration>60</duration>
                                <start>959</start>
                                <end>1019</end>
                                <in>959</in>
                                <out>1019</out>
                            </clipitem>
                        </track>
                        <track>
                            <clipitem frameBlend="FALSE" id="clipitem-221">
                                <name></name>
                                <file id="file-2"/>
                                <rate>
                                    <timebase>60</timebase>
                                    <ntsc>TRUE</ntsc>
                                </rate>
                                <duration>60</duration>
                                <start>965</start>
                                <end>1025</end>
                                <in>965</in>
                                <out>1025</out>
                            </clipitem>
                        </track>
                        <track>
                            <clipitem frameBlend="FALSE" id="clipitem-222">
                                <name></name>
                                <file id="file-2"/>
                                <rate>
                                    <timebase>60</timebase>
                                    <ntsc>TRUE</ntsc>
                                </rate>
                                <duration>60</duration>
                                <start>971</start>
                                <end>1031</end>
                                <in>971</in>
                                <out>1031</out>
                            </clipitem>
                        </track>
                        <track>
                            <clipitem frameBlend="FALSE" id="clipitem-223">
                                <name></name>
                                <file id="file-2"/>
                                <rate>
                                    <timebase>60</timebase>
                                    <ntsc>TRUE</ntsc>
                                </rate>
                                <duration>60</duration>
                                <start>977</start>
                                <end>1037</end>
                                <in>977</in>
                                <out>1037</out>
                            </clipitem>
                        </track>
                        <track>
                            <clipitem frameBlend="FALSE" id="clipitem-224">
                                <name></name>
                                <file id="file-2"/>
                                <rate>
                                    <timebase>60</timebase>
                                    <ntsc>TRUE</ntsc>
                                </rate>
                                <duration>66</duration>
                                <start>977</start>
                                <end>1043</end>
                                <in>977</in>
                                <out>1043</out>
                            </clipitem>
                        </track>
                        <track>
                            <clipitem frameBlend="FALSE" id="clipitem-225">
                                <name></name>
                                <file id="file-2"/>
                                <rate>
                                    <timebase>60</timebase>
                                    <ntsc>TRUE</ntsc>
                                </rate>
                                <duration>60</duration>
                                <start>983</start>
                                <end>1043</end>
                                <in>983</in>
                                <out>1043</out>
                            </clipitem>
                        </track>
                        <track>
                            <clipitem frameBlend="FALSE" id="clipitem-226">
                                <name></name>
                                <file id="file-2"/>
                                <rate>
                                    <timebase>60</timebase>
                                    <ntsc>TRUE</ntsc>
                                </rate>
                                <duration>66</duration>
                                <start>983</start>
                                <end>1049</end>
                                <in>983</in>
                                <out>1049</out>
                            </clipitem>
                        </track>
                        <track>
                            <clipitem frameBlend="FALSE" id="clipitem-227">
                                <name></name>
                                <file id="file-2"/>
                                <rate>
                                    <timebase>60</timebase>
                                    <ntsc>TRUE</ntsc>
                                </rate>
                                <duration>60</duration>
                                <start>989</start>
                                <end>1049</end>
                                <in>989</in>
                                <out>1049</out>
                            </clipitem>
                        </track>
                        <track>
                            <clipitem frameBlend="FALSE" id="clipitem-228">
                                <name></name>
                                <file id="file-2"/>
                                <rate>
                                    <timebase>60</timebase>
                                    <ntsc>TRUE</ntsc>
                                </rate>
                                <duration>66</duration>
                                <start>989</start>
                                <end>1055</end>
                                <in>989</in>
                                <out>1055</out>
                            </clipitem>
                        </track>
                        <track>
                            <clipitem frameBlend="FALSE" id="clipitem-229">
                                <name></name>
                                <file id="file-2"/>
                                <rate>
                                    <timebase>60</timebase>
                                    <ntsc>TRUE</ntsc>
                                </rate>
                                <duration>60</duration>
                                <start>995</start>
                                <end>1055</end>
                                <in>995</in>
                                <out>1055</out>
                            </clipitem>
                        </track>
                        <track>
                            <clipitem frameBlend="FALSE" id="clipitem-230">
                                <name></name>
                                <file id="file-2"/>
                                <rate>
                                    <timebase>60</timebase>
                                    <ntsc>TRUE</ntsc>
                                </rate>
                                <duration>60</duration>
                                <start>1007</start>
                                <end>1067</end>
                                <in>1007</in>
                                <out>1067</out>
                            </clipitem>
                        </track>
                        <track>
                            <clipitem frameBlend="FALSE" id="clipitem-231">
                                <name></name>
                                <file id="file-2"/>
                                <rate>
                                    <timebase>60</timebase>
                                    <ntsc>TRUE</ntsc>
                                </rate>
                                <duration>60</duration>
                                <start>1019</start>
                                <end>1079</end>
                                <in>1019</in>
                                <out>1079</out>
                            </clipitem>
                        </track>
                        <track>
                            <clipitem frameBlend="FALSE" id="clipitem-232">
                                <name></name>
                                <file id="file-2"/>
                                <rate>
                                    <timebase>60</timebase>
                                    <ntsc>TRUE</ntsc>
                                </rate>
                                <duration>60</duration>
                                <start>1025</start>
                                <end>1085</end>
                                <in>1025</in>
                                <out>1085</out>
                            </clipitem>
                        </track>
                        <track>
                            <clipitem frameBlend="FALSE" id="clipitem-233">
                                <name></name>
                                <file id="file-2"/>
                                <rate>
                                    <timebase>60</timebase>
                                    <ntsc>TRUE</ntsc>
                                </rate>
                                <duration>60</duration>
                                <start>1031</start>
                                <end>1091</end>
                                <in>1031</in>
                                <out>1091</out>
                            </clipitem>
                        </track>
                        <track>
                            <clipitem frameBlend="FALSE" id="clipitem-234">
                                <name></name>
                                <file id="file-2"/>
                                <rate>
                                    <timebase>60</timebase>
                                    <ntsc>TRUE</ntsc>
                                </rate>
                                <duration>66</duration>
                                <start>1031</start>
                                <end>1097</end>
                                <in>1031</in>
                                <out>1097</out>
                            </clipitem>
                        </track>
                        <track>
                            <clipitem frameBlend="FALSE" id="clipitem-235">
                                <name></name>
                                <file id="file-2"/>
                                <rate>
                                    <timebase>60</timebase>
                                    <ntsc>TRUE</ntsc>
                                </rate>
                                <duration>60</duration>
                                <start>1037</start>
                                <end>1097</end>
                                <in>1037</in>
                                <out>1097</out>
                            </clipitem>
                        </track>
                        <track>
                            <clipitem frameBlend="FALSE" id="clipitem-236">
                                <name></name>
                                <file id="file-2"/>
                                <rate>
                                    <timebase>60</timebase>
                                    <ntsc>TRUE</ntsc>
                                </rate>
                                <duration>66</duration>
                                <start>1043</start>
                                <end>1109</end>
                                <in>1043</in>
                                <out>1109</out>
                            </clipitem>
                        </track>
                        <track>
                            <clipitem frameBlend="FALSE" id="clipitem-237">
                                <name></name>
                                <file id="file-2"/>
                                <rate>
                                    <timebase>60</timebase>
                                    <ntsc>TRUE</ntsc>
                                </rate>
                                <duration>60</duration>
                                <start>1061</start>
                                <end>1121</end>
                                <in>1061</in>
                                <out>1121</out>
                            </clipitem>
                        </track>
                        <track>
                            <clipitem frameBlend="FALSE" id="clipitem-238">
                                <name></name>
                                <file id="file-2"/>
                                <rate>
                                    <timebase>60</timebase>
                                    <ntsc>TRUE</ntsc>
                                </rate>
                                <duration>60</duration>
                                <start>1067</start>
                                <end>1127</end>
                                <in>1067</in>
                                <out>1127</out>
                            </clipitem>
                        </track>
                        <track>
                            <clipitem frameBlend="FALSE" id="clipitem-239">
                                <name></name>
                                <file id="file-2"/>
                                <rate>
                                    <timebase>60</timebase>
                                    <ntsc>TRUE</ntsc>
                                </rate>
                                <duration>60</duration>
                                <start>1073</start>
                                <end>1133</end>
                                <in>1073</in>
                                <out>1133</out>
                            </clipitem>
                        </track>
                        <track>
                            <clipitem id="clipitem-239"/>
                        </track>
                        <track>
                            <clipitem frameBlend="FALSE" id="clipitem-240">
                                <name></name>
                                <file id="file-2"/>
                                <rate>
                                    <timebase>60</timebase>
                                    <ntsc>TRUE</ntsc>
                                </rate>
                                <duration>60</duration>
                                <start>1085</start>
                                <end>1145</end>
                                <in>1085</in>
                                <out>1145</out>
                            </clipitem>
                        </track>
                        <track>
                            <clipitem frameBlend="FALSE" id="clipitem-241">
                                <name></name>
                                <file id="file-2"/>
                                <rate>
                                    <timebase>60</timebase>
                                    <ntsc>TRUE</ntsc>
                                </rate>
                                <duration>60</duration>
                                <start>1097</start>
                                <end>1157</end>
                                <in>1097</in>
                                <out>1157</out>
                            </clipitem>
                        </track>
                        <track>
                            <clipitem frameBlend="FALSE" id="clipitem-242">
                                <name></name>
                                <file id="file-2"/>
                                <rate>
                                    <timebase>60</timebase>
                                    <ntsc>TRUE</ntsc>
                                </rate>
                                <duration>66</duration>
                                <start>1109</start>
                                <end>1175</end>
                                <in>1109</in>
                                <out>1175</out>
                            </clipitem>
                        </track>
                        <track>
                            <clipitem frameBlend="FALSE" id="clipitem-243">
                                <name></name>
                                <file id="file-2"/>
                                <rate>
                                    <timebase>60</timebase>
                                    <ntsc>TRUE</ntsc>
                                </rate>
                                <duration>60</duration>
                                <start>1115</start>
                                <end>1175</end>
                                <in>1115</in>
                                <out>1175</out>
                            </clipitem>
                        </track>
                        <track>
                            <clipitem frameBlend="FALSE" id="clipitem-244">
                                <name></name>
                                <file id="file-2"/>
                                <rate>
                                    <timebase>60</timebase>
                                    <ntsc>TRUE</ntsc>
                                </rate>
                                <duration>60</duration>
                                <start>1151</start>
                                <end>1211</end>
                                <in>1151</in>
                                <out>1211</out>
                            </clipitem>
                        </track>
                        <track>
                            <clipitem id="clipitem-244"/>
                        </track>
                        <track>
                            <clipitem frameBlend="FALSE" id="clipitem-245">
                                <name></name>
                                <file id="file-2"/>
                                <rate>
                                    <timebase>60</timebase>
                                    <ntsc>TRUE</ntsc>
                                </rate>
                                <duration>66</duration>
                                <start>1157</start>
                                <end>1223</end>
                                <in>1157</in>
                                <out>1223</out>
                            </clipitem>
                        </track>
                        <track>
                            <clipitem frameBlend="FALSE" id="clipitem-246">
                                <name></name>
                                <file id="file-2"/>
                                <rate>
                                    <timebase>60</timebase>
                                    <ntsc>TRUE</ntsc>
                                </rate>
                                <duration>66</duration>
                                <start>1169</start>
                                <end>1235</end>
                                <in>1169</in>
                                <out>1235</out>
                            </clipitem>
                        </track>
                        <track>
                            <clipitem frameBlend="FALSE" id="clipitem-247">
                                <name></name>
                                <file id="file-2"/>
                                <rate>
                                    <timebase>60</timebase>
                                    <ntsc>TRUE</ntsc>
                                </rate>
                                <duration>60</duration>
                                <start>1181</start>
                                <end>1241</end>
                                <in>1181</in>
                                <out>1241</out>
                            </clipitem>
                        </track>
                        <track>
                            <clipitem frameBlend="FALSE" id="clipitem-248">
                                <name></name>
                                <file id="file-2"/>
                                <rate>
                                    <timebase>60</timebase>
                                    <ntsc>TRUE</ntsc>
                                </rate>
                                <duration>60</duration>
                                <start>1187</start>
                                <end>1247</end>
                                <in>1187</in>
                                <out>1247</out>
                            </clipitem>
                        </track>
                        <track>
                            <clipitem frameBlend="FALSE" id="clipitem-249">
                                <name></name>
                                <file id="file-2"/>
                                <rate>
                                    <timebase>60</timebase>
                                    <ntsc>TRUE</ntsc>
                                </rate>
                                <duration>60</duration>
                                <start>1193</start>
                                <end>1253</end>
                                <in>1193</in>
                                <out>1253</out>
                            </clipitem>
                        </track>
                        <track>
                            <clipitem frameBlend="FALSE" id="clipitem-250">
                                <name></name>
                                <file id="file-2"/>
                                <rate>
                                    <timebase>60</timebase>
                                    <ntsc>TRUE</ntsc>
                                </rate>
                                <duration>60</duration>
                                <start>1211</start>
                                <end>1271</end>
                                <in>1211</in>
                                <out>1271</out>
                            </clipitem>
                        </track>
                        <track>
                            <clipitem frameBlend="FALSE" id="clipitem-251">
                                <name></name>
                                <file id="file-2"/>
                                <rate>
                                    <timebase>60</timebase>
                                    <ntsc>TRUE</ntsc>
                                </rate>
                                <duration>60</duration>
                                <start>1217</start>
                                <end>1277</end>
                                <in>1217</in>
                                <out>1277</out>
                            </clipitem>
                        </track>
                        <track>
                            <clipitem frameBlend="FALSE" id="clipitem-252">
                                <name></name>
                                <file id="file-2"/>
                                <rate>
                                    <timebase>60</timebase>
                                    <ntsc>TRUE</ntsc>
                                </rate>
                                <duration>60</duration>
                                <start>1247</start>
                                <end>1307</end>
                                <in>1247</in>
                                <out>1307</out>
                            </clipitem>
                        </track>
                        <track>
                            <clipitem frameBlend="FALSE" id="clipitem-253">
                                <name></name>
                                <file id="file-2"/>
                                <rate>
                                    <timebase>60</timebase>
                                    <ntsc>TRUE</ntsc>
                                </rate>
                                <duration>60</duration>
                                <start>1253</start>
                                <end>1313</end>
                                <in>1253</in>
                                <out>1313</out>
                            </clipitem>
                        </track>
                        <track>
                            <clipitem frameBlend="FALSE" id="clipitem-254">
                                <name></name>
                                <file id="file-2"/>
                                <rate>
                                    <timebase>60</timebase>
                                    <ntsc>TRUE</ntsc>
                                </rate>
                                <duration>60</duration>
                                <start>1259</start>
                                <end>1319</end>
                                <in>1259</in>
                                <out>1319</out>
                            </clipitem>
                        </track>
                        <track>
                            <clipitem frameBlend="FALSE" id="clipitem-255">
                                <name></name>
                                <file id="file-2"/>
                                <rate>
                                    <timebase>60</timebase>
                                    <ntsc>TRUE</ntsc>
                                </rate>
                                <duration>60</duration>
                                <start>1265</start>
                                <end>1325</end>
                                <in>1265</in>
                                <out>1325</out>
                            </clipitem>
                        </track>
                        <track>
                            <clipitem frameBlend="FALSE" id="clipitem-256">
                                <name></name>
                                <file id="file-2"/>
                                <rate>
                                    <timebase>60</timebase>
                                    <ntsc>TRUE</ntsc>
                                </rate>
                                <duration>66</duration>
                                <start>1277</start>
                                <end>1343</end>
                                <in>1277</in>
                                <out>1343</out>
                            </clipitem>
                        </track>
                        <track>
                            <clipitem frameBlend="FALSE" id="clipitem-257">
                                <name></name>
                                <file id="file-2"/>
                                <rate>
                                    <timebase>60</timebase>
                                    <ntsc>TRUE</ntsc>
                                </rate>
                                <duration>60</duration>
                                <start>1289</start>
                                <end>1349</end>
                                <in>1289</in>
                                <out>1349</out>
                            </clipitem>
                        </track>
                        <track>
                            <clipitem frameBlend="FALSE" id="clipitem-258">
                                <name></name>
                                <file id="file-2"/>
                                <rate>
                                    <timebase>60</timebase>
                                    <ntsc>TRUE</ntsc>
                                </rate>
                                <duration>60</duration>
                                <start>1295</start>
                                <end>1355</end>
                                <in>1295</in>
                                <out>1355</out>
                            </clipitem>
                        </track>
                        <track>
                            <clipitem frameBlend="FALSE" id="clipitem-259">
                                <name></name>
                                <file id="file-2"/>
                                <rate>
                                    <timebase>60</timebase>
                                    <ntsc>TRUE</ntsc>
                                </rate>
                                <duration>60</duration>
                                <start>1301</start>
                                <end>1361</end>
                                <in>1301</in>
                                <out>1361</out>
                            </clipitem>
                        </track>
                        <track>
                            <clipitem frameBlend="FALSE" id="clipitem-260">
                                <name></name>
                                <file id="file-2"/>
                                <rate>
                                    <timebase>60</timebase>
                                    <ntsc>TRUE</ntsc>
                                </rate>
                                <duration>66</duration>
                                <start>1313</start>
                                <end>1379</end>
                                <in>1313</in>
                                <out>1379</out>
                            </clipitem>
                        </track>
                        <track>
                            <clipitem frameBlend="FALSE" id="clipitem-261">
                                <name></name>
                                <file id="file-2"/>
                                <rate>
                                    <timebase>60</timebase>
                                    <ntsc>TRUE</ntsc>
                                </rate>
                                <duration>60</duration>
                                <start>1331</start>
                                <end>1391</end>
                                <in>1331</in>
                                <out>1391</out>
                            </clipitem>
                        </track>
                        <track>
                            <clipitem frameBlend="FALSE" id="clipitem-262">
                                <name></name>
                                <file id="file-2"/>
                                <rate>
                                    <timebase>60</timebase>
                                    <ntsc>TRUE</ntsc>
                                </rate>
                                <duration>60</duration>
                                <start>1343</start>
                                <end>1403</end>
                                <in>1343</in>
                                <out>1403</out>
                            </clipitem>
                        </track>
                        <track>
                            <clipitem frameBlend="FALSE" id="clipitem-263">
                                <name></name>
                                <file id="file-2"/>
                                <rate>
                                    <timebase>60</timebase>
                                    <ntsc>TRUE</ntsc>
                                </rate>
                                <duration>60</duration>
                                <start>1355</start>
                                <end>1415</end>
                                <in>1355</in>
                                <out>1415</out>
                            </clipitem>
                        </track>
                        <track>
                            <clipitem frameBlend="FALSE" id="clipitem-264">
                                <name></name>
                                <file id="file-2"/>
                                <rate>
                                    <timebase>60</timebase>
                                    <ntsc>TRUE</ntsc>
                                </rate>
                                <duration>66</duration>
                                <start>1355</start>
                                <end>1421</end>
                                <in>1355</in>
                                <out>1421</out>
                            </clipitem>
                        </track>
                        <track>
                            <clipitem frameBlend="FALSE" id="clipitem-265">
                                <name></name>
                                <file id="file-2"/>
                                <rate>
                                    <timebase>60</timebase>
                                    <ntsc>TRUE</ntsc>
                                </rate>
                                <duration>60</duration>
                                <start>1367</start>
                                <end>1427</end>
                                <in>1367</in>
                                <out>1427</out>
                            </clipitem>
                        </track>
                        <track>
                            <clipitem frameBlend="FALSE" id="clipitem-266">
                                <name></name>
                                <file id="file-2"/>
                                <rate>
                                    <timebase>60</timebase>
                                    <ntsc>TRUE</ntsc>
                                </rate>
                                <duration>60</duration>
                                <start>1373</start>
                                <end>1433</end>
                                <in>1373</in>
                                <out>1433</out>
                            </clipitem>
                        </track>
                        <track>
                            <clipitem frameBlend="FALSE" id="clipitem-267">
                                <name></name>
                                <file id="file-2"/>
                                <rate>
                                    <timebase>60</timebase>
                                    <ntsc>TRUE</ntsc>
                                </rate>
                                <duration>60</duration>
                                <start>1385</start>
                                <end>1445</end>
                                <in>1385</in>
                                <out>1445</out>
                            </clipitem>
                        </track>
                        <track>
                            <clipitem id="clipitem-267"/>
                        </track>
                        <track>
                            <clipitem frameBlend="FALSE" id="clipitem-268">
                                <name></name>
                                <file id="file-2"/>
                                <rate>
                                    <timebase>60</timebase>
                                    <ntsc>TRUE</ntsc>
                                </rate>
                                <duration>66</duration>
                                <start>1385</start>
                                <end>1451</end>
                                <in>1385</in>
                                <out>1451</out>
                            </clipitem>
                        </track>
                        <track>
                            <clipitem frameBlend="FALSE" id="clipitem-269">
                                <name></name>
                                <file id="file-2"/>
                                <rate>
                                    <timebase>60</timebase>
                                    <ntsc>TRUE</ntsc>
                                </rate>
                                <duration>60</duration>
                                <start>1403</start>
                                <end>1463</end>
                                <in>1403</in>
                                <out>1463</out>
                            </clipitem>
                        </track>
                        <track>
                            <clipitem frameBlend="FALSE" id="clipitem-270">
                                <name></name>
                                <file id="file-2"/>
                                <rate>
                                    <timebase>60</timebase>
                                    <ntsc>TRUE</ntsc>
                                </rate>
                                <duration>66</duration>
                                <start>1415</start>
                                <end>1481</end>
                                <in>1415</in>
                                <out>1481</out>
                            </clipitem>
                        </track>
                        <track>
                            <clipitem frameBlend="FALSE" id="clipitem-271">
                                <name></name>
                                <file id="file-2"/>
                                <rate>
                                    <timebase>60</timebase>
                                    <ntsc>TRUE</ntsc>
                                </rate>
                                <duration>60</duration>
                                <start>1421</start>
                                <end>1481</end>
                                <in>1421</in>
                                <out>1481</out>
                            </clipitem>
                        </track>
                        <track>
                            <clipitem frameBlend="FALSE" id="clipitem-272">
                                <name></name>
                                <file id="file-2"/>
                                <rate>
                                    <timebase>60</timebase>
                                    <ntsc>TRUE</ntsc>
                                </rate>
                                <duration>60</duration>
                                <start>1427</start>
                                <end>1487</end>
                                <in>1427</in>
                                <out>1487</out>
                            </clipitem>
                        </track>
                        <track>
                            <clipitem frameBlend="FALSE" id="clipitem-273">
                                <name></name>
                                <file id="file-2"/>
                                <rate>
                                    <timebase>60</timebase>
                                    <ntsc>TRUE</ntsc>
                                </rate>
                                <duration>60</duration>
                                <start>1433</start>
                                <end>1493</end>
                                <in>1433</in>
                                <out>1493</out>
                            </clipitem>
                        </track>
                        <track>
                            <clipitem frameBlend="FALSE" id="clipitem-274">
                                <name></name>
                                <file id="file-2"/>
                                <rate>
                                    <timebase>60</timebase>
                                    <ntsc>TRUE</ntsc>
                                </rate>
                                <duration>60</duration>
                                <start>1445</start>
                                <end>1505</end>
                                <in>1445</in>
                                <out>1505</out>
                            </clipitem>
                        </track>
                        <track>
                            <clipitem frameBlend="FALSE" id="clipitem-275">
                                <name></name>
                                <file id="file-2"/>
                                <rate>
                                    <timebase>60</timebase>
                                    <ntsc>TRUE</ntsc>
                                </rate>
                                <duration>60</duration>
                                <start>1451</start>
                                <end>1511</end>
                                <in>1451</in>
                                <out>1511</out>
                            </clipitem>
                        </track>
                        <track>
                            <clipitem frameBlend="FALSE" id="clipitem-276">
                                <name></name>
                                <file id="file-2"/>
                                <rate>
                                    <timebase>60</timebase>
                                    <ntsc>TRUE</ntsc>
                                </rate>
                                <duration>60</duration>
                                <start>1475</start>
                                <end>1535</end>
                                <in>1475</in>
                                <out>1535</out>
                            </clipitem>
                        </track>
                        <track>
                            <clipitem id="clipitem-276"/>
                        </track>
                        <track>
                            <clipitem frameBlend="FALSE" id="clipitem-277">
                                <name></name>
                                <file id="file-2"/>
                                <rate>
                                    <timebase>60</timebase>
                                    <ntsc>TRUE</ntsc>
                                </rate>
                                <duration>66</duration>
                                <start>1481</start>
                                <end>1547</end>
                                <in>1481</in>
                                <out>1547</out>
                            </clipitem>
                        </track>
                        <track>
                            <clipitem frameBlend="FALSE" id="clipitem-278">
                                <name></name>
                                <file id="file-2"/>
                                <rate>
                                    <timebase>60</timebase>
                                    <ntsc>TRUE</ntsc>
                                </rate>
                                <duration>60</duration>
                                <start>1499</start>
                                <end>1559</end>
                                <in>1499</in>
                                <out>1559</out>
                            </clipitem>
                        </track>
                        <track>
                            <clipitem frameBlend="FALSE" id="clipitem-279">
                                <name></name>
                                <file id="file-2"/>
                                <rate>
                                    <timebase>60</timebase>
                                    <ntsc>TRUE</ntsc>
                                </rate>
                                <duration>60</duration>
                                <start>1505</start>
                                <end>1565</end>
                                <in>1505</in>
                                <out>1565</out>
                            </clipitem>
                        </track>
                        <track>
                            <clipitem frameBlend="FALSE" id="clipitem-280">
                                <name></name>
                                <file id="file-2"/>
                                <rate>
                                    <timebase>60</timebase>
                                    <ntsc>TRUE</ntsc>
                                </rate>
                                <duration>60</duration>
                                <start>1517</start>
                                <end>1577</end>
                                <in>1517</in>
                                <out>1577</out>
                            </clipitem>
                        </track>
                        <track>
                            <clipitem frameBlend="FALSE" id="clipitem-281">
                                <name></name>
                                <file id="file-2"/>
                                <rate>
                                    <timebase>60</timebase>
                                    <ntsc>TRUE</ntsc>
                                </rate>
                                <duration>60</duration>
                                <start>1529</start>
                                <end>1589</end>
                                <in>1529</in>
                                <out>1589</out>
                            </clipitem>
                        </track>
                        <track>
                            <clipitem frameBlend="FALSE" id="clipitem-282">
                                <name></name>
                                <file id="file-2"/>
                                <rate>
                                    <timebase>60</timebase>
                                    <ntsc>TRUE</ntsc>
                                </rate>
                                <duration>60</duration>
                                <start>1535</start>
                                <end>1595</end>
                                <in>1535</in>
                                <out>1595</out>
                            </clipitem>
                        </track>
                        <track>
                            <clipitem frameBlend="FALSE" id="clipitem-283">
                                <name></name>
                                <file id="file-2"/>
                                <rate>
                                    <timebase>60</timebase>
                                    <ntsc>TRUE</ntsc>
                                </rate>
                                <duration>60</duration>
                                <start>1547</start>
                                <end>1607</end>
                                <in>1547</in>
                                <out>1607</out>
                            </clipitem>
                        </track>
                        <track>
                            <clipitem frameBlend="FALSE" id="clipitem-284">
                                <name></name>
                                <file id="file-2"/>
                                <rate>
                                    <timebase>60</timebase>
                                    <ntsc>TRUE</ntsc>
                                </rate>
                                <duration>60</duration>
                                <start>1553</start>
                                <end>1613</end>
                                <in>1553</in>
                                <out>1613</out>
                            </clipitem>
                        </track>
                        <track>
                            <clipitem frameBlend="FALSE" id="clipitem-285">
                                <name></name>
                                <file id="file-2"/>
                                <rate>
                                    <timebase>60</timebase>
                                    <ntsc>TRUE</ntsc>
                                </rate>
                                <duration>60</duration>
                                <start>1559</start>
                                <end>1619</end>
                                <in>1559</in>
                                <out>1619</out>
                            </clipitem>
                        </track>
                        <track>
                            <clipitem frameBlend="FALSE" id="clipitem-286">
                                <name></name>
                                <file id="file-2"/>
                                <rate>
                                    <timebase>60</timebase>
                                    <ntsc>TRUE</ntsc>
                                </rate>
                                <duration>60</duration>
                                <start>1571</start>
                                <end>1631</end>
                                <in>1571</in>
                                <out>1631</out>
                            </clipitem>
                        </track>
                        <track>
                            <clipitem frameBlend="FALSE" id="clipitem-287">
                                <name></name>
                                <file id="file-2"/>
                                <rate>
                                    <timebase>60</timebase>
                                    <ntsc>TRUE</ntsc>
                                </rate>
                                <duration>60</duration>
                                <start>1601</start>
                                <end>1661</end>
                                <in>1601</in>
                                <out>1661</out>
                            </clipitem>
                        </track>
                        <track>
                            <clipitem frameBlend="FALSE" id="clipitem-288">
                                <name></name>
                                <file id="file-2"/>
                                <rate>
                                    <timebase>60</timebase>
                                    <ntsc>TRUE</ntsc>
                                </rate>
                                <duration>66</duration>
                                <start>1601</start>
                                <end>1667</end>
                                <in>1601</in>
                                <out>1667</out>
                            </clipitem>
                        </track>
                        <track>
                            <clipitem frameBlend="FALSE" id="clipitem-289">
                                <name></name>
                                <file id="file-2"/>
                                <rate>
                                    <timebase>60</timebase>
                                    <ntsc>TRUE</ntsc>
                                </rate>
                                <duration>60</duration>
                                <start>1607</start>
                                <end>1667</end>
                                <in>1607</in>
                                <out>1667</out>
                            </clipitem>
                        </track>
                        <track>
                            <clipitem frameBlend="FALSE" id="clipitem-290">
                                <name></name>
                                <file id="file-2"/>
                                <rate>
                                    <timebase>60</timebase>
                                    <ntsc>TRUE</ntsc>
                                </rate>
                                <duration>60</duration>
                                <start>1613</start>
                                <end>1673</end>
                                <in>1613</in>
                                <out>1673</out>
                            </clipitem>
                        </track>
                        <track>
                            <clipitem frameBlend="FALSE" id="clipitem-291">
                                <name></name>
                                <file id="file-2"/>
                                <rate>
                                    <timebase>60</timebase>
                                    <ntsc>TRUE</ntsc>
                                </rate>
                                <duration>60</duration>
                                <start>1619</start>
                                <end>1679</end>
                                <in>1619</in>
                                <out>1679</out>
                            </clipitem>
                        </track>
                        <track>
                            <clipitem frameBlend="FALSE" id="clipitem-292">
                                <name></name>
                                <file id="file-2"/>
                                <rate>
                                    <timebase>60</timebase>
                                    <ntsc>TRUE</ntsc>
                                </rate>
                                <duration>66</duration>
                                <start>1625</start>
                                <end>1691</end>
                                <in>1625</in>
                                <out>1691</out>
                            </clipitem>
                        </track>
                        <track>
                            <clipitem frameBlend="FALSE" id="clipitem-293">
                                <name></name>
                                <file id="file-2"/>
                                <rate>
                                    <timebase>60</timebase>
                                    <ntsc>TRUE</ntsc>
                                </rate>
                                <duration>60</duration>
                                <start>1637</start>
                                <end>1697</end>
                                <in>1637</in>
                                <out>1697</out>
                            </clipitem>
                        </track>
                        <track>
                            <clipitem id="clipitem-293"/>
                        </track>
                        <track>
                            <clipitem frameBlend="FALSE" id="clipitem-294">
                                <name></name>
                                <file id="file-2"/>
                                <rate>
                                    <timebase>60</timebase>
                                    <ntsc>TRUE</ntsc>
                                </rate>
                                <duration>60</duration>
                                <start>1649</start>
                                <end>1709</end>
                                <in>1649</in>
                                <out>1709</out>
                            </clipitem>
                        </track>
                        <track>
                            <clipitem frameBlend="FALSE" id="clipitem-295">
                                <name></name>
                                <file id="file-2"/>
                                <rate>
                                    <timebase>60</timebase>
                                    <ntsc>TRUE</ntsc>
                                </rate>
                                <duration>60</duration>
                                <start>1661</start>
                                <end>1721</end>
                                <in>1661</in>
                                <out>1721</out>
                            </clipitem>
                        </track>
                        <track>
                            <clipitem frameBlend="FALSE" id="clipitem-296">
                                <name></name>
                                <file id="file-2"/>
                                <rate>
                                    <timebase>60</timebase>
                                    <ntsc>TRUE</ntsc>
                                </rate>
                                <duration>60</duration>
                                <start>1673</start>
                                <end>1733</end>
                                <in>1673</in>
                                <out>1733</out>
                            </clipitem>
                        </track>
                        <track>
                            <clipitem frameBlend="FALSE" id="clipitem-297">
                                <name></name>
                                <file id="file-2"/>
                                <rate>
                                    <timebase>60</timebase>
                                    <ntsc>TRUE</ntsc>
                                </rate>
                                <duration>60</duration>
                                <start>1685</start>
                                <end>1745</end>
                                <in>1685</in>
                                <out>1745</out>
                            </clipitem>
                        </track>
                        <track>
                            <clipitem frameBlend="FALSE" id="clipitem-298">
                                <name></name>
                                <file id="file-2"/>
                                <rate>
                                    <timebase>60</timebase>
                                    <ntsc>TRUE</ntsc>
                                </rate>
                                <duration>60</duration>
                                <start>1703</start>
                                <end>1763</end>
                                <in>1703</in>
                                <out>1763</out>
                            </clipitem>
                        </track>
                        <track>
                            <clipitem frameBlend="FALSE" id="clipitem-299">
                                <name></name>
                                <file id="file-2"/>
                                <rate>
                                    <timebase>60</timebase>
                                    <ntsc>TRUE</ntsc>
                                </rate>
                                <duration>66</duration>
                                <start>1703</start>
                                <end>1769</end>
                                <in>1703</in>
                                <out>1769</out>
                            </clipitem>
                        </track>
                        <track>
                            <clipitem frameBlend="FALSE" id="clipitem-300">
                                <name></name>
                                <file id="file-2"/>
                                <rate>
                                    <timebase>60</timebase>
                                    <ntsc>TRUE</ntsc>
                                </rate>
                                <duration>60</duration>
                                <start>1727</start>
                                <end>1787</end>
                                <in>1727</in>
                                <out>1787</out>
                            </clipitem>
                        </track>
                        <track>
                            <clipitem frameBlend="FALSE" id="clipitem-301">
                                <name></name>
                                <file id="file-2"/>
                                <rate>
                                    <timebase>60</timebase>
                                    <ntsc>TRUE</ntsc>
                                </rate>
                                <duration>60</duration>
                                <start>1733</start>
                                <end>1793</end>
                                <in>1733</in>
                                <out>1793</out>
                            </clipitem>
                        </track>
                        <track>
                            <clipitem frameBlend="FALSE" id="clipitem-302">
                                <name></name>
                                <file id="file-2"/>
                                <rate>
                                    <timebase>60</timebase>
                                    <ntsc>TRUE</ntsc>
                                </rate>
                                <duration>66</duration>
                                <start>1733</start>
                                <end>1799</end>
                                <in>1733</in>
                                <out>1799</out>
                            </clipitem>
                        </track>
                        <track>
                            <clipitem frameBlend="FALSE" id="clipitem-303">
                                <name></name>
                                <file id="file-2"/>
                                <rate>
                                    <timebase>60</timebase>
                                    <ntsc>TRUE</ntsc>
                                </rate>
                                <duration>60</duration>
                                <start>1739</start>
                                <end>1799</end>
                                <in>1739</in>
                                <out>1799</out>
                            </clipitem>
                        </track>
                        <track>
                            <clipitem frameBlend="FALSE" id="clipitem-304">
                                <name></name>
                                <file id="file-2"/>
                                <rate>
                                    <timebase>60</timebase>
                                    <ntsc>TRUE</ntsc>
                                </rate>
                                <duration>60</duration>
                                <start>1751</start>
                                <end>1811</end>
                                <in>1751</in>
                                <out>1811</out>
                            </clipitem>
                        </track>
                        <track>
                            <clipitem frameBlend="FALSE" id="clipitem-305">
                                <name></name>
                                <file id="file-2"/>
                                <rate>
                                    <timebase>60</timebase>
                                    <ntsc>TRUE</ntsc>
                                </rate>
                                <duration>60</duration>
                                <start>1769</start>
                                <end>1829</end>
                                <in>1769</in>
                                <out>1829</out>
                            </clipitem>
                        </track>
                        <track>
                            <clipitem frameBlend="FALSE" id="clipitem-306">
                                <name></name>
                                <file id="file-2"/>
                                <rate>
                                    <timebase>60</timebase>
                                    <ntsc>TRUE</ntsc>
                                </rate>
                                <duration>66</duration>
                                <start>1769</start>
                                <end>1835</end>
                                <in>1769</in>
                                <out>1835</out>
                            </clipitem>
                        </track>
                        <track>
                            <clipitem frameBlend="FALSE" id="clipitem-307">
                                <name></name>
                                <file id="file-2"/>
                                <rate>
                                    <timebase>60</timebase>
                                    <ntsc>TRUE</ntsc>
                                </rate>
                                <duration>66</duration>
                                <start>1775</start>
                                <end>1841</end>
                                <in>1775</in>
                                <out>1841</out>
                            </clipitem>
                        </track>
                        <track>
                            <clipitem frameBlend="FALSE" id="clipitem-308">
                                <name></name>
                                <file id="file-2"/>
                                <rate>
                                    <timebase>60</timebase>
                                    <ntsc>TRUE</ntsc>
                                </rate>
                                <duration>60</duration>
                                <start>1781</start>
                                <end>1841</end>
                                <in>1781</in>
                                <out>1841</out>
                            </clipitem>
                        </track>
                        <track>
                            <clipitem frameBlend="FALSE" id="clipitem-309">
                                <name></name>
                                <file id="file-2"/>
                                <rate>
                                    <timebase>60</timebase>
                                    <ntsc>TRUE</ntsc>
                                </rate>
                                <duration>60</duration>
                                <start>1787</start>
                                <end>1847</end>
                                <in>1787</in>
                                <out>1847</out>
                            </clipitem>
                        </track>
                        <track>
                            <clipitem frameBlend="FALSE" id="clipitem-310">
                                <name></name>
                                <file id="file-2"/>
                                <rate>
                                    <timebase>60</timebase>
                                    <ntsc>TRUE</ntsc>
                                </rate>
                                <duration>60</duration>
                                <start>1793</start>
                                <end>1853</end>
                                <in>1793</in>
                                <out>1853</out>
                            </clipitem>
                        </track>
                        <track>
                            <clipitem frameBlend="FALSE" id="clipitem-311">
                                <name></name>
                                <file id="file-2"/>
                                <rate>
                                    <timebase>60</timebase>
                                    <ntsc>TRUE</ntsc>
                                </rate>
                                <duration>60</duration>
                                <start>1799</start>
                                <end>1859</end>
                                <in>1799</in>
                                <out>1859</out>
                            </clipitem>
                        </track>
                        <track>
                            <clipitem frameBlend="FALSE" id="clipitem-312">
                                <name></name>
                                <file id="file-2"/>
                                <rate>
                                    <timebase>60</timebase>
                                    <ntsc>TRUE</ntsc>
                                </rate>
                                <duration>60</duration>
                                <start>1811</start>
                                <end>1871</end>
                                <in>1811</in>
                                <out>1871</out>
                            </clipitem>
                        </track>
                        <track>
                            <clipitem frameBlend="FALSE" id="clipitem-313">
                                <name></name>
                                <file id="file-2"/>
                                <rate>
                                    <timebase>60</timebase>
                                    <ntsc>TRUE</ntsc>
                                </rate>
                                <duration>60</duration>
                                <start>1817</start>
                                <end>1877</end>
                                <in>1817</in>
                                <out>1877</out>
                            </clipitem>
                        </track>
                        <track>
                            <clipitem frameBlend="FALSE" id="clipitem-314">
                                <name></name>
                                <file id="file-2"/>
                                <rate>
                                    <timebase>60</timebase>
                                    <ntsc>TRUE</ntsc>
                                </rate>
                                <duration>66</duration>
                                <start>1817</start>
                                <end>1883</end>
                                <in>1817</in>
                                <out>1883</out>
                            </clipitem>
                        </track>
                        <track>
                            <clipitem frameBlend="FALSE" id="clipitem-315">
                                <name></name>
                                <file id="file-2"/>
                                <rate>
                                    <timebase>60</timebase>
                                    <ntsc>TRUE</ntsc>
                                </rate>
                                <duration>66</duration>
                                <start>1823</start>
                                <end>1889</end>
                                <in>1823</in>
                                <out>1889</out>
                            </clipitem>
                        </track>
                        <track>
                            <clipitem frameBlend="FALSE" id="clipitem-316">
                                <name></name>
                                <file id="file-2"/>
                                <rate>
                                    <timebase>60</timebase>
                                    <ntsc>TRUE</ntsc>
                                </rate>
                                <duration>66</duration>
                                <start>1829</start>
                                <end>1895</end>
                                <in>1829</in>
                                <out>1895</out>
                            </clipitem>
                        </track>
                        <track>
                            <clipitem frameBlend="FALSE" id="clipitem-317">
                                <name></name>
                                <file id="file-2"/>
                                <rate>
                                    <timebase>60</timebase>
                                    <ntsc>TRUE</ntsc>
                                </rate>
                                <duration>60</duration>
                                <start>1835</start>
                                <end>1895</end>
                                <in>1835</in>
                                <out>1895</out>
                            </clipitem>
                        </track>
                        <track>
                            <clipitem frameBlend="FALSE" id="clipitem-318">
                                <name></name>
                                <file id="file-2"/>
                                <rate>
                                    <timebase>60</timebase>
                                    <ntsc>TRUE</ntsc>
                                </rate>
                                <duration>66</duration>
                                <start>1835</start>
                                <end>1901</end>
                                <in>1835</in>
                                <out>1901</out>
                            </clipitem>
                        </track>
                        <track>
                            <clipitem frameBlend="FALSE" id="clipitem-319">
                                <name></name>
                                <file id="file-2"/>
                                <rate>
                                    <timebase>60</timebase>
                                    <ntsc>TRUE</ntsc>
                                </rate>
                                <duration>60</duration>
                                <start>1877</start>
                                <end>1937</end>
                                <in>1877</in>
                                <out>1937</out>
                            </clipitem>
                        </track>
                        <track>
                            <clipitem frameBlend="FALSE" id="clipitem-320">
                                <name></name>
                                <file id="file-2"/>
                                <rate>
                                    <timebase>60</timebase>
                                    <ntsc>TRUE</ntsc>
                                </rate>
                                <duration>60</duration>
                                <start>1883</start>
                                <end>1943</end>
                                <in>1883</in>
                                <out>1943</out>
                            </clipitem>
                        </track>
                        <track>
                            <clipitem id="clipitem-320"/>
                        </track>
                        <track>
                            <clipitem frameBlend="FALSE" id="clipitem-321">
                                <name></name>
                                <file id="file-2"/>
                                <rate>
                                    <timebase>60</timebase>
                                    <ntsc>TRUE</ntsc>
                                </rate>
                                <duration>60</duration>
                                <start>1895</start>
                                <end>1955</end>
                                <in>1895</in>
                                <out>1955</out>
                            </clipitem>
                        </track>
                        <track>
                            <clipitem frameBlend="FALSE" id="clipitem-322">
                                <name></name>
                                <file id="file-2"/>
                                <rate>
                                    <timebase>60</timebase>
                                    <ntsc>TRUE</ntsc>
                                </rate>
                                <duration>60</duration>
                                <start>1901</start>
                                <end>1961</end>
                                <in>1901</in>
                                <out>1961</out>
                            </clipitem>
                        </track>
                        <track>
                            <clipitem frameBlend="FALSE" id="clipitem-323">
                                <name></name>
                                <file id="file-2"/>
                                <rate>
                                    <timebase>60</timebase>
                                    <ntsc>TRUE</ntsc>
                                </rate>
                                <duration>60</duration>
                                <start>1907</start>
                                <end>1967</end>
                                <in>1907</in>
                                <out>1967</out>
                            </clipitem>
                        </track>
                        <track>
                            <clipitem frameBlend="FALSE" id="clipitem-324">
                                <name></name>
                                <file id="file-2"/>
                                <rate>
                                    <timebase>60</timebase>
                                    <ntsc>TRUE</ntsc>
                                </rate>
                                <duration>60</duration>
                                <start>1913</start>
                                <end>1973</end>
                                <in>1913</in>
                                <out>1973</out>
                            </clipitem>
                        </track>
                        <track>
                            <clipitem frameBlend="FALSE" id="clipitem-325">
                                <name></name>
                                <file id="file-2"/>
                                <rate>
                                    <timebase>60</timebase>
                                    <ntsc>TRUE</ntsc>
                                </rate>
                                <duration>66</duration>
                                <start>1919</start>
                                <end>1985</end>
                                <in>1919</in>
                                <out>1985</out>
                            </clipitem>
                        </track>
                        <track>
                            <clipitem frameBlend="FALSE" id="clipitem-326">
                                <name></name>
                                <file id="file-2"/>
                                <rate>
                                    <timebase>60</timebase>
                                    <ntsc>TRUE</ntsc>
                                </rate>
                                <duration>60</duration>
                                <start>1931</start>
                                <end>1991</end>
                                <in>1931</in>
                                <out>1991</out>
                            </clipitem>
                        </track>
                        <track>
                            <clipitem frameBlend="FALSE" id="clipitem-327">
                                <name></name>
                                <file id="file-2"/>
                                <rate>
                                    <timebase>60</timebase>
                                    <ntsc>TRUE</ntsc>
                                </rate>
                                <duration>66</duration>
                                <start>1937</start>
                                <end>2003</end>
                                <in>1937</in>
                                <out>2003</out>
                            </clipitem>
                        </track>
                        <track>
                            <clipitem frameBlend="FALSE" id="clipitem-328">
                                <name></name>
                                <file id="file-2"/>
                                <rate>
                                    <timebase>60</timebase>
                                    <ntsc>TRUE</ntsc>
                                </rate>
                                <duration>60</duration>
                                <start>1943</start>
                                <end>2003</end>
                                <in>1943</in>
                                <out>2003</out>
                            </clipitem>
                        </track>
                        <track>
                            <clipitem frameBlend="FALSE" id="clipitem-329">
                                <name></name>
                                <file id="file-2"/>
                                <rate>
                                    <timebase>60</timebase>
                                    <ntsc>TRUE</ntsc>
                                </rate>
                                <duration>60</duration>
                                <start>1949</start>
                                <end>2009</end>
                                <in>1949</in>
                                <out>2009</out>
                            </clipitem>
                        </track>
                        <track>
                            <clipitem frameBlend="FALSE" id="clipitem-330">
                                <name></name>
                                <file id="file-2"/>
                                <rate>
                                    <timebase>60</timebase>
                                    <ntsc>TRUE</ntsc>
                                </rate>
                                <duration>60</duration>
                                <start>1955</start>
                                <end>2015</end>
                                <in>1955</in>
                                <out>2015</out>
                            </clipitem>
                        </track>
                        <track>
                            <clipitem frameBlend="FALSE" id="clipitem-331">
                                <name></name>
                                <file id="file-2"/>
                                <rate>
                                    <timebase>60</timebase>
                                    <ntsc>TRUE</ntsc>
                                </rate>
                                <duration>60</duration>
                                <start>1967</start>
                                <end>2027</end>
                                <in>1967</in>
                                <out>2027</out>
                            </clipitem>
                        </track>
                        <track>
                            <clipitem frameBlend="FALSE" id="clipitem-332">
                                <name></name>
                                <file id="file-2"/>
                                <rate>
                                    <timebase>60</timebase>
                                    <ntsc>TRUE</ntsc>
                                </rate>
                                <duration>60</duration>
                                <start>1973</start>
                                <end>2033</end>
                                <in>1973</in>
                                <out>2033</out>
                            </clipitem>
                        </track>
                        <track>
                            <clipitem frameBlend="FALSE" id="clipitem-333">
                                <name></name>
                                <file id="file-2"/>
                                <rate>
                                    <timebase>60</timebase>
                                    <ntsc>TRUE</ntsc>
                                </rate>
                                <duration>60</duration>
                                <start>1991</start>
                                <end>2051</end>
                                <in>1991</in>
                                <out>2051</out>
                            </clipitem>
                        </track>
                        <track>
                            <clipitem frameBlend="FALSE" id="clipitem-334">
                                <name></name>
                                <file id="file-2"/>
                                <rate>
                                    <timebase>60</timebase>
                                    <ntsc>TRUE</ntsc>
                                </rate>
                                <duration>60</duration>
                                <start>2009</start>
                                <end>2069</end>
                                <in>2009</in>
                                <out>2069</out>
                            </clipitem>
                        </track>
                        <track>
                            <clipitem frameBlend="FALSE" id="clipitem-335">
                                <name></name>
                                <file id="file-2"/>
                                <rate>
                                    <timebase>60</timebase>
                                    <ntsc>TRUE</ntsc>
                                </rate>
                                <duration>66</duration>
                                <start>2021</start>
                                <end>2087</end>
                                <in>2021</in>
                                <out>2087</out>
                            </clipitem>
                        </track>
                        <track>
                            <clipitem frameBlend="FALSE" id="clipitem-336">
                                <name></name>
                                <file id="file-2"/>
                                <rate>
                                    <timebase>60</timebase>
                                    <ntsc>TRUE</ntsc>
                                </rate>
                                <duration>66</duration>
                                <start>2039</start>
                                <end>2105</end>
                                <in>2039</in>
                                <out>2105</out>
                            </clipitem>
                        </track>
                        <track>
                            <clipitem frameBlend="FALSE" id="clipitem-337">
                                <name></name>
                                <file id="file-2"/>
                                <rate>
                                    <timebase>60</timebase>
                                    <ntsc>TRUE</ntsc>
                                </rate>
                                <duration>60</duration>
                                <start>2063</start>
                                <end>2123</end>
                                <in>2063</in>
                                <out>2123</out>
                            </clipitem>
                        </track>
                        <track>
                            <clipitem frameBlend="FALSE" id="clipitem-338">
                                <name></name>
                                <file id="file-2"/>
                                <rate>
                                    <timebase>60</timebase>
                                    <ntsc>TRUE</ntsc>
                                </rate>
                                <duration>60</duration>
                                <start>2087</start>
                                <end>2147</end>
                                <in>2087</in>
                                <out>2147</out>
                            </clipitem>
                        </track>
                        <track>
                            <clipitem frameBlend="FALSE" id="clipitem-339">
                                <name></name>
                                <file id="file-2"/>
                                <rate>
                                    <timebase>60</timebase>
                                    <ntsc>TRUE</ntsc>
                                </rate>
                                <duration>60</duration>
                                <start>2147</start>
                                <end>2207</end>
                                <in>2147</in>
                                <out>2207</out>
                            </clipitem>
                        </track>
                        <track>
                            <clipitem frameBlend="FALSE" id="clipitem-340">
                                <name></name>
                                <file id="file-2"/>
                                <rate>
                                    <timebase>60</timebase>
                                    <ntsc>TRUE</ntsc>
                                </rate>
                                <duration>60</duration>
                                <start>2153</start>
                                <end>2213</end>
                                <in>2153</in>
                                <out>2213</out>
                            </clipitem>
                        </track>
                        <track>
                            <clipitem frameBlend="FALSE" id="clipitem-341">
                                <name></name>
                                <file id="file-2"/>
                                <rate>
                                    <timebase>60</timebase>
                                    <ntsc>TRUE</ntsc>
                                </rate>
                                <duration>60</duration>
                                <start>2165</start>
                                <end>2225</end>
                                <in>2165</in>
                                <out>2225</out>
                            </clipitem>
                        </track>
                        <track>
                            <clipitem frameBlend="FALSE" id="clipitem-342">
                                <name></name>
                                <file id="file-2"/>
                                <rate>
                                    <timebase>60</timebase>
                                    <ntsc>TRUE</ntsc>
                                </rate>
                                <duration>60</duration>
                                <start>2171</start>
                                <end>2231</end>
                                <in>2171</in>
                                <out>2231</out>
                            </clipitem>
                        </track>
                        <track>
                            <clipitem frameBlend="FALSE" id="clipitem-343">
                                <name></name>
                                <file id="file-2"/>
                                <rate>
                                    <timebase>60</timebase>
                                    <ntsc>TRUE</ntsc>
                                </rate>
                                <duration>66</duration>
                                <start>2177</start>
                                <end>2243</end>
                                <in>2177</in>
                                <out>2243</out>
                            </clipitem>
                        </track>
                        <track>
                            <clipitem frameBlend="FALSE" id="clipitem-344">
                                <name></name>
                                <file id="file-2"/>
                                <rate>
                                    <timebase>60</timebase>
                                    <ntsc>TRUE</ntsc>
                                </rate>
                                <duration>60</duration>
                                <start>2183</start>
                                <end>2243</end>
                                <in>2183</in>
                                <out>2243</out>
                            </clipitem>
                        </track>
                        <track>
                            <clipitem frameBlend="FALSE" id="clipitem-345">
                                <name></name>
                                <file id="file-2"/>
                                <rate>
                                    <timebase>60</timebase>
                                    <ntsc>TRUE</ntsc>
                                </rate>
                                <duration>60</duration>
                                <start>2195</start>
                                <end>2255</end>
                                <in>2195</in>
                                <out>2255</out>
                            </clipitem>
                        </track>
                        <track>
                            <clipitem frameBlend="FALSE" id="clipitem-346">
                                <name></name>
                                <file id="file-2"/>
                                <rate>
                                    <timebase>60</timebase>
                                    <ntsc>TRUE</ntsc>
                                </rate>
                                <duration>60</duration>
                                <start>2201</start>
                                <end>2261</end>
                                <in>2201</in>
                                <out>2261</out>
                            </clipitem>
                        </track>
                        <track>
                            <clipitem frameBlend="FALSE" id="clipitem-347">
                                <name></name>
                                <file id="file-2"/>
                                <rate>
                                    <timebase>60</timebase>
                                    <ntsc>TRUE</ntsc>
                                </rate>
                                <duration>60</duration>
                                <start>2207</start>
                                <end>2267</end>
                                <in>2207</in>
                                <out>2267</out>
                            </clipitem>
                        </track>
                        <track>
                            <clipitem frameBlend="FALSE" id="clipitem-348">
                                <name></name>
                                <file id="file-2"/>
                                <rate>
                                    <timebase>60</timebase>
                                    <ntsc>TRUE</ntsc>
                                </rate>
                                <duration>60</duration>
                                <start>2297</start>
                                <end>2357</end>
                                <in>2297</in>
                                <out>2357</out>
                            </clipitem>
                        </track>
                        <track>
                            <clipitem frameBlend="FALSE" id="clipitem-349">
                                <name></name>
                                <file id="file-2"/>
                                <rate>
                                    <timebase>60</timebase>
                                    <ntsc>TRUE</ntsc>
                                </rate>
                                <duration>60</duration>
                                <start>2303</start>
                                <end>2363</end>
                                <in>2303</in>
                                <out>2363</out>
                            </clipitem>
                        </track>
                        <track>
                            <clipitem frameBlend="FALSE" id="clipitem-350">
                                <name></name>
                                <file id="file-2"/>
                                <rate>
                                    <timebase>60</timebase>
                                    <ntsc>TRUE</ntsc>
                                </rate>
                                <duration>60</duration>
                                <start>2309</start>
                                <end>2369</end>
                                <in>2309</in>
                                <out>2369</out>
                            </clipitem>
                        </track>
                        <track>
                            <clipitem frameBlend="FALSE" id="clipitem-351">
                                <name></name>
                                <file id="file-2"/>
                                <rate>
                                    <timebase>60</timebase>
                                    <ntsc>TRUE</ntsc>
                                </rate>
                                <duration>60</duration>
                                <start>2315</start>
                                <end>2375</end>
                                <in>2315</in>
                                <out>2375</out>
                            </clipitem>
                        </track>
                        <track>
                            <clipitem frameBlend="FALSE" id="clipitem-352">
                                <name></name>
                                <file id="file-2"/>
                                <rate>
                                    <timebase>60</timebase>
                                    <ntsc>TRUE</ntsc>
                                </rate>
                                <duration>60</duration>
                                <start>2321</start>
                                <end>2381</end>
                                <in>2321</in>
                                <out>2381</out>
                            </clipitem>
                        </track>
                        <track>
                            <clipitem frameBlend="FALSE" id="clipitem-353">
                                <name></name>
                                <file id="file-2"/>
                                <rate>
                                    <timebase>60</timebase>
                                    <ntsc>TRUE</ntsc>
                                </rate>
                                <duration>60</duration>
                                <start>2327</start>
                                <end>2387</end>
                                <in>2327</in>
                                <out>2387</out>
                            </clipitem>
                        </track>
                        <track>
                            <clipitem frameBlend="FALSE" id="clipitem-354">
                                <name></name>
                                <file id="file-2"/>
                                <rate>
                                    <timebase>60</timebase>
                                    <ntsc>TRUE</ntsc>
                                </rate>
                                <duration>60</duration>
                                <start>2363</start>
                                <end>2423</end>
                                <in>2363</in>
                                <out>2423</out>
                            </clipitem>
                        </track>
                        <track>
                            <clipitem frameBlend="FALSE" id="clipitem-355">
                                <name></name>
                                <file id="file-2"/>
                                <rate>
                                    <timebase>60</timebase>
                                    <ntsc>TRUE</ntsc>
                                </rate>
                                <duration>66</duration>
                                <start>2369</start>
                                <end>2435</end>
                                <in>2369</in>
                                <out>2435</out>
                            </clipitem>
                        </track>
                        <track>
                            <clipitem frameBlend="FALSE" id="clipitem-356">
                                <name></name>
                                <file id="file-2"/>
                                <rate>
                                    <timebase>60</timebase>
                                    <ntsc>TRUE</ntsc>
                                </rate>
                                <duration>66</duration>
                                <start>2399</start>
                                <end>2465</end>
                                <in>2399</in>
                                <out>2465</out>
                            </clipitem>
                        </track>
                        <track>
                            <clipitem frameBlend="FALSE" id="clipitem-357">
                                <name></name>
                                <file id="file-2"/>
                                <rate>
                                    <timebase>60</timebase>
                                    <ntsc>TRUE</ntsc>
                                </rate>
                                <duration>60</duration>
                                <start>2405</start>
                                <end>2465</end>
                                <in>2405</in>
                                <out>2465</out>
                            </clipitem>
                        </track>
                        <track>
                            <clipitem frameBlend="FALSE" id="clipitem-358">
                                <name></name>
                                <file id="file-2"/>
                                <rate>
                                    <timebase>60</timebase>
                                    <ntsc>TRUE</ntsc>
                                </rate>
                                <duration>60</duration>
                                <start>2423</start>
                                <end>2483</end>
                                <in>2423</in>
                                <out>2483</out>
                            </clipitem>
                        </track>
                        <track>
                            <clipitem frameBlend="FALSE" id="clipitem-359">
                                <name></name>
                                <file id="file-2"/>
                                <rate>
                                    <timebase>60</timebase>
                                    <ntsc>TRUE</ntsc>
                                </rate>
                                <duration>60</duration>
                                <start>2435</start>
                                <end>2495</end>
                                <in>2435</in>
                                <out>2495</out>
                            </clipitem>
                        </track>
                        <track>
                            <clipitem frameBlend="FALSE" id="clipitem-360">
                                <name></name>
                                <file id="file-2"/>
                                <rate>
                                    <timebase>60</timebase>
                                    <ntsc>TRUE</ntsc>
                                </rate>
                                <duration>60</duration>
                                <start>2447</start>
                                <end>2507</end>
                                <in>2447</in>
                                <out>2507</out>
                            </clipitem>
                        </track>
                        <track>
                            <clipitem frameBlend="FALSE" id="clipitem-361">
                                <name></name>
                                <file id="file-2"/>
                                <rate>
                                    <timebase>60</timebase>
                                    <ntsc>TRUE</ntsc>
                                </rate>
                                <duration>60</duration>
                                <start>2453</start>
                                <end>2513</end>
                                <in>2453</in>
                                <out>2513</out>
                            </clipitem>
                        </track>
                        <track>
                            <clipitem id="clipitem-361"/>
                        </track>
                        <track>
                            <clipitem id="clipitem-361"/>
                        </track>
                        <track>
                            <clipitem frameBlend="FALSE" id="clipitem-362">
                                <name></name>
                                <file id="file-2"/>
                                <rate>
                                    <timebase>60</timebase>
                                    <ntsc>TRUE</ntsc>
                                </rate>
                                <duration>60</duration>
                                <start>2501</start>
                                <end>2561</end>
                                <in>2501</in>
                                <out>2561</out>
                            </clipitem>
                        </track>
                        <track>
                            <clipitem frameBlend="FALSE" id="clipitem-363">
                                <name></name>
                                <file id="file-2"/>
                                <rate>
                                    <timebase>60</timebase>
                                    <ntsc>TRUE</ntsc>
                                </rate>
                                <duration>60</duration>
                                <start>2513</start>
                                <end>2573</end>
                                <in>2513</in>
                                <out>2573</out>
                            </clipitem>
                        </track>
                        <track>
                            <clipitem frameBlend="FALSE" id="clipitem-364">
                                <name></name>
                                <file id="file-2"/>
                                <rate>
                                    <timebase>60</timebase>
                                    <ntsc>TRUE</ntsc>
                                </rate>
                                <duration>66</duration>
                                <start>2513</start>
                                <end>2579</end>
                                <in>2513</in>
                                <out>2579</out>
                            </clipitem>
                        </track>
                        <track>
                            <clipitem frameBlend="FALSE" id="clipitem-365">
                                <name></name>
                                <file id="file-2"/>
                                <rate>
                                    <timebase>60</timebase>
                                    <ntsc>TRUE</ntsc>
                                </rate>
                                <duration>60</duration>
                                <start>2525</start>
                                <end>2585</end>
                                <in>2525</in>
                                <out>2585</out>
                            </clipitem>
                        </track>
                        <track>
                            <clipitem frameBlend="FALSE" id="clipitem-366">
                                <name></name>
                                <file id="file-2"/>
                                <rate>
                                    <timebase>60</timebase>
                                    <ntsc>TRUE</ntsc>
                                </rate>
                                <duration>60</duration>
                                <start>2537</start>
                                <end>2597</end>
                                <in>2537</in>
                                <out>2597</out>
                            </clipitem>
                        </track>
                        <track>
                            <clipitem frameBlend="FALSE" id="clipitem-367">
                                <name></name>
                                <file id="file-2"/>
                                <rate>
                                    <timebase>60</timebase>
                                    <ntsc>TRUE</ntsc>
                                </rate>
                                <duration>60</duration>
                                <start>2555</start>
                                <end>2615</end>
                                <in>2555</in>
                                <out>2615</out>
                            </clipitem>
                        </track>
                        <track>
                            <clipitem frameBlend="FALSE" id="clipitem-368">
                                <name></name>
                                <file id="file-2"/>
                                <rate>
                                    <timebase>60</timebase>
                                    <ntsc>TRUE</ntsc>
                                </rate>
                                <duration>60</duration>
                                <start>2561</start>
                                <end>2621</end>
                                <in>2561</in>
                                <out>2621</out>
                            </clipitem>
                        </track>
                        <track>
                            <clipitem frameBlend="FALSE" id="clipitem-369">
                                <name></name>
                                <file id="file-2"/>
                                <rate>
                                    <timebase>60</timebase>
                                    <ntsc>TRUE</ntsc>
                                </rate>
                                <duration>66</duration>
                                <start>2561</start>
                                <end>2627</end>
                                <in>2561</in>
                                <out>2627</out>
                            </clipitem>
                        </track>
                        <track>
                            <clipitem frameBlend="FALSE" id="clipitem-370">
                                <name></name>
                                <file id="file-2"/>
                                <rate>
                                    <timebase>60</timebase>
                                    <ntsc>TRUE</ntsc>
                                </rate>
                                <duration>60</duration>
                                <start>2567</start>
                                <end>2627</end>
                                <in>2567</in>
                                <out>2627</out>
                            </clipitem>
                        </track>
                        <track>
                            <clipitem frameBlend="FALSE" id="clipitem-371">
                                <name></name>
                                <file id="file-2"/>
                                <rate>
                                    <timebase>60</timebase>
                                    <ntsc>TRUE</ntsc>
                                </rate>
                                <duration>60</duration>
                                <start>2579</start>
                                <end>2639</end>
                                <in>2579</in>
                                <out>2639</out>
                            </clipitem>
                        </track>
                        <track>
                            <clipitem frameBlend="FALSE" id="clipitem-372">
                                <name></name>
                                <file id="file-2"/>
                                <rate>
                                    <timebase>60</timebase>
                                    <ntsc>TRUE</ntsc>
                                </rate>
                                <duration>60</duration>
                                <start>2591</start>
                                <end>2651</end>
                                <in>2591</in>
                                <out>2651</out>
                            </clipitem>
                        </track>
                        <track>
                            <clipitem id="clipitem-372"/>
                        </track>
                        <track>
                            <clipitem frameBlend="FALSE" id="clipitem-373">
                                <name></name>
                                <file id="file-2"/>
                                <rate>
                                    <timebase>60</timebase>
                                    <ntsc>TRUE</ntsc>
                                </rate>
                                <duration>60</duration>
                                <start>2615</start>
                                <end>2675</end>
                                <in>2615</in>
                                <out>2675</out>
                            </clipitem>
                        </track>
                        <track>
                            <clipitem frameBlend="FALSE" id="clipitem-374">
                                <name></name>
                                <file id="file-2"/>
                                <rate>
                                    <timebase>60</timebase>
                                    <ntsc>TRUE</ntsc>
                                </rate>
                                <duration>60</duration>
                                <start>2627</start>
                                <end>2687</end>
                                <in>2627</in>
                                <out>2687</out>
                            </clipitem>
                        </track>
                        <track>
                            <clipitem frameBlend="FALSE" id="clipitem-375">
                                <name></name>
                                <file id="file-2"/>
                                <rate>
                                    <timebase>60</timebase>
                                    <ntsc>TRUE</ntsc>
                                </rate>
                                <duration>66</duration>
                                <start>2627</start>
                                <end>2693</end>
                                <in>2627</in>
                                <out>2693</out>
                            </clipitem>
                        </track>
                        <track>
                            <clipitem frameBlend="FALSE" id="clipitem-376">
                                <name></name>
                                <file id="file-2"/>
                                <rate>
                                    <timebase>60</timebase>
                                    <ntsc>TRUE</ntsc>
                                </rate>
                                <duration>60</duration>
                                <start>2633</start>
                                <end>2693</end>
                                <in>2633</in>
                                <out>2693</out>
                            </clipitem>
                        </track>
                        <track>
                            <clipitem frameBlend="FALSE" id="clipitem-377">
                                <name></name>
                                <file id="file-2"/>
                                <rate>
                                    <timebase>60</timebase>
                                    <ntsc>TRUE</ntsc>
                                </rate>
                                <duration>60</duration>
                                <start>2645</start>
                                <end>2705</end>
                                <in>2645</in>
                                <out>2705</out>
                            </clipitem>
                        </track>
                        <track>
                            <clipitem frameBlend="FALSE" id="clipitem-378">
                                <name></name>
                                <file id="file-2"/>
                                <rate>
                                    <timebase>60</timebase>
                                    <ntsc>TRUE</ntsc>
                                </rate>
                                <duration>66</duration>
                                <start>2645</start>
                                <end>2711</end>
                                <in>2645</in>
                                <out>2711</out>
                            </clipitem>
                        </track>
                        <track>
                            <clipitem frameBlend="FALSE" id="clipitem-379">
                                <name></name>
                                <file id="file-2"/>
                                <rate>
                                    <timebase>60</timebase>
                                    <ntsc>TRUE</ntsc>
                                </rate>
                                <duration>60</duration>
                                <start>2669</start>
                                <end>2729</end>
                                <in>2669</in>
                                <out>2729</out>
                            </clipitem>
                        </track>
                        <track>
                            <clipitem frameBlend="FALSE" id="clipitem-380">
                                <name></name>
                                <file id="file-2"/>
                                <rate>
                                    <timebase>60</timebase>
                                    <ntsc>TRUE</ntsc>
                                </rate>
                                <duration>66</duration>
                                <start>2669</start>
                                <end>2735</end>
                                <in>2669</in>
                                <out>2735</out>
                            </clipitem>
                        </track>
                        <track>
                            <clipitem frameBlend="FALSE" id="clipitem-381">
                                <name></name>
                                <file id="file-2"/>
                                <rate>
                                    <timebase>60</timebase>
                                    <ntsc>TRUE</ntsc>
                                </rate>
                                <duration>60</duration>
                                <start>2681</start>
                                <end>2741</end>
                                <in>2681</in>
                                <out>2741</out>
                            </clipitem>
                        </track>
                        <track>
                            <clipitem frameBlend="FALSE" id="clipitem-382">
                                <name></name>
                                <file id="file-2"/>
                                <rate>
                                    <timebase>60</timebase>
                                    <ntsc>TRUE</ntsc>
                                </rate>
                                <duration>60</duration>
                                <start>2693</start>
                                <end>2753</end>
                                <in>2693</in>
                                <out>2753</out>
                            </clipitem>
                        </track>
                        <track>
                            <clipitem frameBlend="FALSE" id="clipitem-383">
                                <name></name>
                                <file id="file-2"/>
                                <rate>
                                    <timebase>60</timebase>
                                    <ntsc>TRUE</ntsc>
                                </rate>
                                <duration>60</duration>
                                <start>2699</start>
                                <end>2759</end>
                                <in>2699</in>
                                <out>2759</out>
                            </clipitem>
                        </track>
                        <track>
                            <clipitem frameBlend="FALSE" id="clipitem-384">
                                <name></name>
                                <file id="file-2"/>
                                <rate>
                                    <timebase>60</timebase>
                                    <ntsc>TRUE</ntsc>
                                </rate>
                                <duration>66</duration>
                                <start>2723</start>
                                <end>2789</end>
                                <in>2723</in>
                                <out>2789</out>
                            </clipitem>
                        </track>
                        <track>
                            <clipitem frameBlend="FALSE" id="clipitem-385">
                                <name></name>
                                <file id="file-2"/>
                                <rate>
                                    <timebase>60</timebase>
                                    <ntsc>TRUE</ntsc>
                                </rate>
                                <duration>60</duration>
                                <start>2729</start>
                                <end>2789</end>
                                <in>2729</in>
                                <out>2789</out>
                            </clipitem>
                        </track>
                        <track>
                            <clipitem frameBlend="FALSE" id="clipitem-386">
                                <name></name>
                                <file id="file-2"/>
                                <rate>
                                    <timebase>60</timebase>
                                    <ntsc>TRUE</ntsc>
                                </rate>
                                <duration>60</duration>
                                <start>2735</start>
                                <end>2795</end>
                                <in>2735</in>
                                <out>2795</out>
                            </clipitem>
                        </track>
                        <track>
                            <clipitem frameBlend="FALSE" id="clipitem-387">
                                <name></name>
                                <file id="file-2"/>
                                <rate>
                                    <timebase>60</timebase>
                                    <ntsc>TRUE</ntsc>
                                </rate>
                                <duration>66</duration>
                                <start>2735</start>
                                <end>2801</end>
                                <in>2735</in>
                                <out>2801</out>
                            </clipitem>
                        </track>
                        <track>
                            <clipitem frameBlend="FALSE" id="clipitem-388">
                                <name></name>
                                <file id="file-2"/>
                                <rate>
                                    <timebase>60</timebase>
                                    <ntsc>TRUE</ntsc>
                                </rate>
                                <duration>66</duration>
                                <start>2747</start>
                                <end>2813</end>
                                <in>2747</in>
                                <out>2813</out>
                            </clipitem>
                        </track>
                        <track>
                            <clipitem frameBlend="FALSE" id="clipitem-389">
                                <name></name>
                                <file id="file-2"/>
                                <rate>
                                    <timebase>60</timebase>
                                    <ntsc>TRUE</ntsc>
                                </rate>
                                <duration>60</duration>
                                <start>2759</start>
                                <end>2819</end>
                                <in>2759</in>
                                <out>2819</out>
                            </clipitem>
                        </track>
                        <track>
                            <clipitem frameBlend="FALSE" id="clipitem-390">
                                <name></name>
                                <file id="file-2"/>
                                <rate>
                                    <timebase>60</timebase>
                                    <ntsc>TRUE</ntsc>
                                </rate>
                                <duration>60</duration>
                                <start>2765</start>
                                <end>2825</end>
                                <in>2765</in>
                                <out>2825</out>
                            </clipitem>
                        </track>
                        <track>
                            <clipitem frameBlend="FALSE" id="clipitem-391">
                                <name></name>
                                <file id="file-2"/>
                                <rate>
                                    <timebase>60</timebase>
                                    <ntsc>TRUE</ntsc>
                                </rate>
                                <duration>60</duration>
                                <start>2771</start>
                                <end>2831</end>
                                <in>2771</in>
                                <out>2831</out>
                            </clipitem>
                        </track>
                        <track>
                            <clipitem frameBlend="FALSE" id="clipitem-392">
                                <name></name>
                                <file id="file-2"/>
                                <rate>
                                    <timebase>60</timebase>
                                    <ntsc>TRUE</ntsc>
                                </rate>
                                <duration>60</duration>
                                <start>2783</start>
                                <end>2843</end>
                                <in>2783</in>
                                <out>2843</out>
                            </clipitem>
                        </track>
                        <track>
                            <clipitem frameBlend="FALSE" id="clipitem-393">
                                <name></name>
                                <file id="file-2"/>
                                <rate>
                                    <timebase>60</timebase>
                                    <ntsc>TRUE</ntsc>
                                </rate>
                                <duration>66</duration>
                                <start>2789</start>
                                <end>2855</end>
                                <in>2789</in>
                                <out>2855</out>
                            </clipitem>
                        </track>
                        <track>
                            <clipitem frameBlend="FALSE" id="clipitem-394">
                                <name></name>
                                <file id="file-2"/>
                                <rate>
                                    <timebase>60</timebase>
                                    <ntsc>TRUE</ntsc>
                                </rate>
                                <duration>60</duration>
                                <start>2795</start>
                                <end>2855</end>
                                <in>2795</in>
                                <out>2855</out>
                            </clipitem>
                        </track>
                        <track>
                            <clipitem frameBlend="FALSE" id="clipitem-395">
                                <name></name>
                                <file id="file-2"/>
                                <rate>
                                    <timebase>60</timebase>
                                    <ntsc>TRUE</ntsc>
                                </rate>
                                <duration>60</duration>
                                <start>2801</start>
                                <end>2861</end>
                                <in>2801</in>
                                <out>2861</out>
                            </clipitem>
                        </track>
                        <track>
                            <clipitem frameBlend="FALSE" id="clipitem-396">
                                <name></name>
                                <file id="file-2"/>
                                <rate>
                                    <timebase>60</timebase>
                                    <ntsc>TRUE</ntsc>
                                </rate>
                                <duration>66</duration>
                                <start>2813</start>
                                <end>2879</end>
                                <in>2813</in>
                                <out>2879</out>
                            </clipitem>
                        </track>
                        <track>
                            <clipitem frameBlend="FALSE" id="clipitem-397">
                                <name></name>
                                <file id="file-2"/>
                                <rate>
                                    <timebase>60</timebase>
                                    <ntsc>TRUE</ntsc>
                                </rate>
                                <duration>66</duration>
                                <start>2819</start>
                                <end>2885</end>
                                <in>2819</in>
                                <out>2885</out>
                            </clipitem>
                        </track>
                        <track>
                            <clipitem frameBlend="FALSE" id="clipitem-398">
                                <name></name>
                                <file id="file-2"/>
                                <rate>
                                    <timebase>60</timebase>
                                    <ntsc>TRUE</ntsc>
                                </rate>
                                <duration>66</duration>
                                <start>2831</start>
                                <end>2897</end>
                                <in>2831</in>
                                <out>2897</out>
                            </clipitem>
                        </track>
                        <track>
                            <clipitem frameBlend="FALSE" id="clipitem-399">
                                <name></name>
                                <file id="file-2"/>
                                <rate>
                                    <timebase>60</timebase>
                                    <ntsc>TRUE</ntsc>
                                </rate>
                                <duration>66</duration>
                                <start>2837</start>
                                <end>2903</end>
                                <in>2837</in>
                                <out>2903</out>
                            </clipitem>
                        </track>
                        <track>
                            <clipitem frameBlend="FALSE" id="clipitem-400">
                                <name></name>
                                <file id="file-2"/>
                                <rate>
                                    <timebase>60</timebase>
                                    <ntsc>TRUE</ntsc>
                                </rate>
                                <duration>60</duration>
                                <start>2849</start>
                                <end>2909</end>
                                <in>2849</in>
                                <out>2909</out>
                            </clipitem>
                        </track>
                        <track>
                            <clipitem frameBlend="FALSE" id="clipitem-401">
                                <name></name>
                                <file id="file-2"/>
                                <rate>
                                    <timebase>60</timebase>
                                    <ntsc>TRUE</ntsc>
                                </rate>
                                <duration>66</duration>
                                <start>2855</start>
                                <end>2921</end>
                                <in>2855</in>
                                <out>2921</out>
                            </clipitem>
                        </track>
                        <track>
                            <clipitem frameBlend="FALSE" id="clipitem-402">
                                <name></name>
                                <file id="file-2"/>
                                <rate>
                                    <timebase>60</timebase>
                                    <ntsc>TRUE</ntsc>
                                </rate>
                                <duration>60</duration>
                                <start>2867</start>
                                <end>2927</end>
                                <in>2867</in>
                                <out>2927</out>
                            </clipitem>
                        </track>
                        <track>
                            <clipitem frameBlend="FALSE" id="clipitem-403">
                                <name></name>
                                <file id="file-2"/>
                                <rate>
                                    <timebase>60</timebase>
                                    <ntsc>TRUE</ntsc>
                                </rate>
                                <duration>60</duration>
                                <start>2885</start>
                                <end>2945</end>
                                <in>2885</in>
                                <out>2945</out>
                            </clipitem>
                        </track>
                        <track>
                            <clipitem frameBlend="FALSE" id="clipitem-404">
                                <name></name>
                                <file id="file-2"/>
                                <rate>
                                    <timebase>60</timebase>
                                    <ntsc>TRUE</ntsc>
                                </rate>
                                <duration>60</duration>
                                <start>2909</start>
                                <end>2969</end>
                                <in>2909</in>
                                <out>2969</out>
                            </clipitem>
                        </track>
                        <track>
                            <clipitem frameBlend="FALSE" id="clipitem-405">
                                <name></name>
                                <file id="file-2"/>
                                <rate>
                                    <timebase>60</timebase>
                                    <ntsc>TRUE</ntsc>
                                </rate>
                                <duration>60</duration>
                                <start>2915</start>
                                <end>2975</end>
                                <in>2915</in>
                                <out>2975</out>
                            </clipitem>
                        </track>
                        <track>
                            <clipitem frameBlend="FALSE" id="clipitem-406">
                                <name></name>
                                <file id="file-2"/>
                                <rate>
                                    <timebase>60</timebase>
                                    <ntsc>TRUE</ntsc>
                                </rate>
                                <duration>60</duration>
                                <start>2921</start>
                                <end>2981</end>
                                <in>2921</in>
                                <out>2981</out>
                            </clipitem>
                        </track>
                        <track>
                            <clipitem frameBlend="FALSE" id="clipitem-407">
                                <name></name>
                                <file id="file-2"/>
                                <rate>
                                    <timebase>60</timebase>
                                    <ntsc>TRUE</ntsc>
                                </rate>
                                <duration>60</duration>
                                <start>2939</start>
                                <end>2999</end>
                                <in>2939</in>
                                <out>2999</out>
                            </clipitem>
                        </track>
                        <track>
                            <clipitem frameBlend="FALSE" id="clipitem-408">
                                <name></name>
                                <file id="file-2"/>
                                <rate>
                                    <timebase>60</timebase>
                                    <ntsc>TRUE</ntsc>
                                </rate>
                                <duration>60</duration>
                                <start>2951</start>
                                <end>3011</end>
                                <in>2951</in>
                                <out>3011</out>
                            </clipitem>
                        </track>
                        <track>
                            <clipitem id="clipitem-408"/>
                        </track>
                        <track>
                            <clipitem frameBlend="FALSE" id="clipitem-409">
                                <name></name>
                                <file id="file-2"/>
                                <rate>
                                    <timebase>60</timebase>
                                    <ntsc>TRUE</ntsc>
                                </rate>
                                <duration>60</duration>
                                <start>2963</start>
                                <end>3023</end>
                                <in>2963</in>
                                <out>3023</out>
                            </clipitem>
                        </track>
                        <track>
                            <clipitem frameBlend="FALSE" id="clipitem-410">
                                <name></name>
                                <file id="file-2"/>
                                <rate>
                                    <timebase>60</timebase>
                                    <ntsc>TRUE</ntsc>
                                </rate>
                                <duration>66</duration>
                                <start>2981</start>
                                <end>3047</end>
                                <in>2981</in>
                                <out>3047</out>
                            </clipitem>
                        </track>
                        <track>
                            <clipitem frameBlend="FALSE" id="clipitem-411">
                                <name></name>
                                <file id="file-2"/>
                                <rate>
                                    <timebase>60</timebase>
                                    <ntsc>TRUE</ntsc>
                                </rate>
                                <duration>60</duration>
                                <start>2987</start>
                                <end>3047</end>
                                <in>2987</in>
                                <out>3047</out>
                            </clipitem>
                        </track>
                        <track>
                            <clipitem frameBlend="FALSE" id="clipitem-412">
                                <name></name>
                                <file id="file-2"/>
                                <rate>
                                    <timebase>60</timebase>
                                    <ntsc>TRUE</ntsc>
                                </rate>
                                <duration>60</duration>
                                <start>2999</start>
                                <end>3059</end>
                                <in>2999</in>
                                <out>3059</out>
                            </clipitem>
                        </track>
                        <track>
                            <clipitem frameBlend="FALSE" id="clipitem-413">
                                <name></name>
                                <file id="file-2"/>
                                <rate>
                                    <timebase>60</timebase>
                                    <ntsc>TRUE</ntsc>
                                </rate>
                                <duration>60</duration>
                                <start>3005</start>
                                <end>3065</end>
                                <in>3005</in>
                                <out>3065</out>
                            </clipitem>
                        </track>
                        <track>
                            <clipitem frameBlend="FALSE" id="clipitem-414">
                                <name></name>
                                <file id="file-2"/>
                                <rate>
                                    <timebase>60</timebase>
                                    <ntsc>TRUE</ntsc>
                                </rate>
                                <duration>60</duration>
                                <start>3017</start>
                                <end>3077</end>
                                <in>3017</in>
                                <out>3077</out>
                            </clipitem>
                        </track>
                        <track>
                            <clipitem frameBlend="FALSE" id="clipitem-415">
                                <name></name>
                                <file id="file-2"/>
                                <rate>
                                    <timebase>60</timebase>
                                    <ntsc>TRUE</ntsc>
                                </rate>
                                <duration>66</duration>
                                <start>3023</start>
                                <end>3089</end>
                                <in>3023</in>
                                <out>3089</out>
                            </clipitem>
                        </track>
                        <track>
                            <clipitem frameBlend="FALSE" id="clipitem-416">
                                <name>w</name>
                                <file id="file-2"/>
                                <rate>
                                    <timebase>60</timebase>
                                    <ntsc>TRUE</ntsc>
                                </rate>
                                <duration>24</duration>
                                <start>3035</start>
                                <end>3059</end>
                                <in>3035</in>
                                <out>3059</out>
                            </clipitem>
                        </track>
                        <track>
                            <clipitem frameBlend="FALSE" id="clipitem-417">
                                <name></name>
                                <file id="file-2"/>
                                <rate>
                                    <timebase>60</timebase>
                                    <ntsc>TRUE</ntsc>
                                </rate>
                                <duration>60</duration>
                                <start>3035</start>
                                <end>3095</end>
                                <in>3035</in>
                                <out>3095</out>
                            </clipitem>
                        </track>
                        <track>
                            <clipitem frameBlend="FALSE" id="clipitem-418">
                                <name></name>
                                <file id="file-2"/>
                                <rate>
                                    <timebase>60</timebase>
                                    <ntsc>TRUE</ntsc>
                                </rate>
                                <duration>60</duration>
                                <start>3041</start>
                                <end>3101</end>
                                <in>3041</in>
                                <out>3101</out>
                            </clipitem>
                        </track>
                        <track>
                            <clipitem frameBlend="FALSE" id="clipitem-419">
                                <name>w</name>
                                <file id="file-2"/>
                                <rate>
                                    <timebase>60</timebase>
                                    <ntsc>TRUE</ntsc>
                                </rate>
                                <duration>30</duration>
                                <start>3047</start>
                                <end>3077</end>
                                <in>3047</in>
                                <out>3077</out>
                            </clipitem>
                        </track>
                        <track>
                            <clipitem frameBlend="FALSE" id="clipitem-420">
                                <name></name>
                                <file id="file-2"/>
                                <rate>
                                    <timebase>60</timebase>
                                    <ntsc>TRUE</ntsc>
                                </rate>
                                <duration>60</duration>
                                <start>3059</start>
                                <end>3119</end>
                                <in>3059</in>
                                <out>3119</out>
                            </clipitem>
                        </track>
                        <track>
                            <clipitem frameBlend="FALSE" id="clipitem-421">
                                <name></name>
                                <file id="file-2"/>
                                <rate>
                                    <timebase>60</timebase>
                                    <ntsc>TRUE</ntsc>
                                </rate>
                                <duration>60</duration>
                                <start>3095</start>
                                <end>3155</end>
                                <in>3095</in>
                                <out>3155</out>
                            </clipitem>
                        </track>
                        <track>
                            <clipitem frameBlend="FALSE" id="clipitem-422">
                                <name></name>
                                <file id="file-2"/>
                                <rate>
                                    <timebase>60</timebase>
                                    <ntsc>TRUE</ntsc>
                                </rate>
                                <duration>60</duration>
                                <start>3113</start>
                                <end>3173</end>
                                <in>3113</in>
                                <out>3173</out>
                            </clipitem>
                        </track>
                        <track>
                            <clipitem frameBlend="FALSE" id="clipitem-423">
                                <name></name>
                                <file id="file-2"/>
                                <rate>
                                    <timebase>60</timebase>
                                    <ntsc>TRUE</ntsc>
                                </rate>
                                <duration>60</duration>
                                <start>3119</start>
                                <end>3179</end>
                                <in>3119</in>
                                <out>3179</out>
                            </clipitem>
                        </track>
                        <track>
                            <clipitem frameBlend="FALSE" id="clipitem-424">
                                <name></name>
                                <file id="file-2"/>
                                <rate>
                                    <timebase>60</timebase>
                                    <ntsc>TRUE</ntsc>
                                </rate>
                                <duration>60</duration>
                                <start>3125</start>
                                <end>3185</end>
                                <in>3125</in>
                                <out>3185</out>
                            </clipitem>
                        </track>
                        <track>
                            <clipitem id="clipitem-424"/>
                        </track>
                        <track>
                            <clipitem frameBlend="FALSE" id="clipitem-425">
                                <name></name>
                                <file id="file-2"/>
                                <rate>
                                    <timebase>60</timebase>
                                    <ntsc>TRUE</ntsc>
                                </rate>
                                <duration>66</duration>
                                <start>3125</start>
                                <end>3191</end>
                                <in>3125</in>
                                <out>3191</out>
                            </clipitem>
                        </track>
                        <track>
                            <clipitem frameBlend="FALSE" id="clipitem-426">
                                <name></name>
                                <file id="file-2"/>
                                <rate>
                                    <timebase>60</timebase>
                                    <ntsc>TRUE</ntsc>
                                </rate>
                                <duration>60</duration>
                                <start>3137</start>
                                <end>3197</end>
                                <in>3137</in>
                                <out>3197</out>
                            </clipitem>
                        </track>
                        <track>
                            <clipitem frameBlend="FALSE" id="clipitem-427">
                                <name></name>
                                <file id="file-2"/>
                                <rate>
                                    <timebase>60</timebase>
                                    <ntsc>TRUE</ntsc>
                                </rate>
                                <duration>60</duration>
                                <start>3149</start>
                                <end>3209</end>
                                <in>3149</in>
                                <out>3209</out>
                            </clipitem>
                        </track>
                        <track>
                            <clipitem frameBlend="FALSE" id="clipitem-428">
                                <name></name>
                                <file id="file-2"/>
                                <rate>
                                    <timebase>60</timebase>
                                    <ntsc>TRUE</ntsc>
                                </rate>
                                <duration>66</duration>
                                <start>3149</start>
                                <end>3215</end>
                                <in>3149</in>
                                <out>3215</out>
                            </clipitem>
                        </track>
                        <track>
                            <clipitem frameBlend="FALSE" id="clipitem-429">
                                <name></name>
                                <file id="file-2"/>
                                <rate>
                                    <timebase>60</timebase>
                                    <ntsc>TRUE</ntsc>
                                </rate>
                                <duration>60</duration>
                                <start>3161</start>
                                <end>3221</end>
                                <in>3161</in>
                                <out>3221</out>
                            </clipitem>
                        </track>
                        <track>
                            <clipitem frameBlend="FALSE" id="clipitem-430">
                                <name></name>
                                <file id="file-2"/>
                                <rate>
                                    <timebase>60</timebase>
                                    <ntsc>TRUE</ntsc>
                                </rate>
                                <duration>60</duration>
                                <start>3179</start>
                                <end>3239</end>
                                <in>3179</in>
                                <out>3239</out>
                            </clipitem>
                        </track>
                        <track>
                            <clipitem frameBlend="FALSE" id="clipitem-431">
                                <name></name>
                                <file id="file-2"/>
                                <rate>
                                    <timebase>60</timebase>
                                    <ntsc>TRUE</ntsc>
                                </rate>
                                <duration>66</duration>
                                <start>3185</start>
                                <end>3251</end>
                                <in>3185</in>
                                <out>3251</out>
                            </clipitem>
                        </track>
                        <track>
                            <clipitem frameBlend="FALSE" id="clipitem-432">
                                <name></name>
                                <file id="file-2"/>
                                <rate>
                                    <timebase>60</timebase>
                                    <ntsc>TRUE</ntsc>
                                </rate>
                                <duration>66</duration>
                                <start>3197</start>
                                <end>3263</end>
                                <in>3197</in>
                                <out>3263</out>
                            </clipitem>
                        </track>
                        <track>
                            <clipitem frameBlend="FALSE" id="clipitem-433">
                                <name></name>
                                <file id="file-2"/>
                                <rate>
                                    <timebase>60</timebase>
                                    <ntsc>TRUE</ntsc>
                                </rate>
                                <duration>60</duration>
                                <start>3203</start>
                                <end>3263</end>
                                <in>3203</in>
                                <out>3263</out>
                            </clipitem>
                        </track>
                        <track>
                            <clipitem frameBlend="FALSE" id="clipitem-434">
                                <name></name>
                                <file id="file-2"/>
                                <rate>
                                    <timebase>60</timebase>
                                    <ntsc>TRUE</ntsc>
                                </rate>
                                <duration>60</duration>
                                <start>3209</start>
                                <end>3269</end>
                                <in>3209</in>
                                <out>3269</out>
                            </clipitem>
                        </track>
                        <track>
                            <clipitem frameBlend="FALSE" id="clipitem-435">
                                <name></name>
                                <file id="file-2"/>
                                <rate>
                                    <timebase>60</timebase>
                                    <ntsc>TRUE</ntsc>
                                </rate>
                                <duration>60</duration>
                                <start>3215</start>
                                <end>3275</end>
                                <in>3215</in>
                                <out>3275</out>
                            </clipitem>
                        </track>
                        <track>
                            <clipitem frameBlend="FALSE" id="clipitem-436">
                                <name></name>
                                <file id="file-2"/>
                                <rate>
                                    <timebase>60</timebase>
                                    <ntsc>TRUE</ntsc>
                                </rate>
                                <duration>60</duration>
                                <start>3221</start>
                                <end>3281</end>
                                <in>3221</in>
                                <out>3281</out>
                            </clipitem>
                        </track>
                        <track>
                            <clipitem frameBlend="FALSE" id="clipitem-437">
                                <name></name>
                                <file id="file-2"/>
                                <rate>
                                    <timebase>60</timebase>
                                    <ntsc>TRUE</ntsc>
                                </rate>
                                <duration>60</duration>
                                <start>3227</start>
                                <end>3287</end>
                                <in>3227</in>
                                <out>3287</out>
                            </clipitem>
                        </track>
                        <track>
                            <clipitem frameBlend="FALSE" id="clipitem-438">
                                <name></name>
                                <file id="file-2"/>
                                <rate>
                                    <timebase>60</timebase>
                                    <ntsc>TRUE</ntsc>
                                </rate>
                                <duration>60</duration>
                                <start>3233</start>
                                <end>3293</end>
                                <in>3233</in>
                                <out>3293</out>
                            </clipitem>
                        </track>
                        <track>
                            <clipitem frameBlend="FALSE" id="clipitem-439">
                                <name></name>
                                <file id="file-2"/>
                                <rate>
                                    <timebase>60</timebase>
                                    <ntsc>TRUE</ntsc>
                                </rate>
                                <duration>66</duration>
                                <start>3233</start>
                                <end>3299</end>
                                <in>3233</in>
                                <out>3299</out>
                            </clipitem>
                        </track>
                        <track>
                            <clipitem frameBlend="FALSE" id="clipitem-440">
                                <name></name>
                                <file id="file-2"/>
                                <rate>
                                    <timebase>60</timebase>
                                    <ntsc>TRUE</ntsc>
                                </rate>
                                <duration>60</duration>
                                <start>3245</start>
                                <end>3305</end>
                                <in>3245</in>
                                <out>3305</out>
                            </clipitem>
                        </track>
                        <track>
                            <clipitem frameBlend="FALSE" id="clipitem-441">
                                <name></name>
                                <file id="file-2"/>
                                <rate>
                                    <timebase>60</timebase>
                                    <ntsc>TRUE</ntsc>
                                </rate>
                                <duration>60</duration>
                                <start>3251</start>
                                <end>3311</end>
                                <in>3251</in>
                                <out>3311</out>
                            </clipitem>
                        </track>
                        <track>
                            <clipitem frameBlend="FALSE" id="clipitem-442">
                                <name></name>
                                <file id="file-2"/>
                                <rate>
                                    <timebase>60</timebase>
                                    <ntsc>TRUE</ntsc>
                                </rate>
                                <duration>60</duration>
                                <start>3263</start>
                                <end>3323</end>
                                <in>3263</in>
                                <out>3323</out>
                            </clipitem>
                        </track>
                        <track>
                            <clipitem frameBlend="FALSE" id="clipitem-443">
                                <name></name>
                                <file id="file-2"/>
                                <rate>
                                    <timebase>60</timebase>
                                    <ntsc>TRUE</ntsc>
                                </rate>
                                <duration>66</duration>
                                <start>3275</start>
                                <end>3341</end>
                                <in>3275</in>
                                <out>3341</out>
                            </clipitem>
                        </track>
                        <track>
                            <clipitem frameBlend="FALSE" id="clipitem-444">
                                <name></name>
                                <file id="file-2"/>
                                <rate>
                                    <timebase>60</timebase>
                                    <ntsc>TRUE</ntsc>
                                </rate>
                                <duration>60</duration>
                                <start>3287</start>
                                <end>3347</end>
                                <in>3287</in>
                                <out>3347</out>
                            </clipitem>
                        </track>
                        <track>
                            <clipitem frameBlend="FALSE" id="clipitem-445">
                                <name></name>
                                <file id="file-2"/>
                                <rate>
                                    <timebase>60</timebase>
                                    <ntsc>TRUE</ntsc>
                                </rate>
                                <duration>60</duration>
                                <start>3293</start>
                                <end>3353</end>
                                <in>3293</in>
                                <out>3353</out>
                            </clipitem>
                        </track>
                        <track>
                            <clipitem frameBlend="FALSE" id="clipitem-446">
                                <name></name>
                                <file id="file-2"/>
                                <rate>
                                    <timebase>60</timebase>
                                    <ntsc>TRUE</ntsc>
                                </rate>
                                <duration>60</duration>
                                <start>3305</start>
                                <end>3365</end>
                                <in>3305</in>
                                <out>3365</out>
                            </clipitem>
                        </track>
                        <track>
                            <clipitem frameBlend="FALSE" id="clipitem-447">
                                <name></name>
                                <file id="file-2"/>
                                <rate>
                                    <timebase>60</timebase>
                                    <ntsc>TRUE</ntsc>
                                </rate>
                                <duration>60</duration>
                                <start>3317</start>
                                <end>3377</end>
                                <in>3317</in>
                                <out>3377</out>
                            </clipitem>
                        </track>
                        <track>
                            <clipitem frameBlend="FALSE" id="clipitem-448">
                                <name></name>
                                <file id="file-2"/>
                                <rate>
                                    <timebase>60</timebase>
                                    <ntsc>TRUE</ntsc>
                                </rate>
                                <duration>60</duration>
                                <start>3329</start>
                                <end>3389</end>
                                <in>3329</in>
                                <out>3389</out>
                            </clipitem>
                        </track>
                        <track>
                            <clipitem frameBlend="FALSE" id="clipitem-449">
                                <name></name>
                                <file id="file-2"/>
                                <rate>
                                    <timebase>60</timebase>
                                    <ntsc>TRUE</ntsc>
                                </rate>
                                <duration>60</duration>
                                <start>3335</start>
                                <end>3395</end>
                                <in>3335</in>
                                <out>3395</out>
                            </clipitem>
                        </track>
                        <track>
                            <clipitem frameBlend="FALSE" id="clipitem-450">
                                <name></name>
                                <file id="file-2"/>
                                <rate>
                                    <timebase>60</timebase>
                                    <ntsc>TRUE</ntsc>
                                </rate>
                                <duration>66</duration>
                                <start>3341</start>
                                <end>3407</end>
                                <in>3341</in>
                                <out>3407</out>
                            </clipitem>
                        </track>
                        <track>
                            <clipitem frameBlend="FALSE" id="clipitem-451">
                                <name></name>
                                <file id="file-2"/>
                                <rate>
                                    <timebase>60</timebase>
                                    <ntsc>TRUE</ntsc>
                                </rate>
                                <duration>60</duration>
                                <start>3347</start>
                                <end>3407</end>
                                <in>3347</in>
                                <out>3407</out>
                            </clipitem>
                        </track>
                        <track>
                            <clipitem frameBlend="FALSE" id="clipitem-452">
                                <name></name>
                                <file id="file-2"/>
                                <rate>
                                    <timebase>60</timebase>
                                    <ntsc>TRUE</ntsc>
                                </rate>
                                <duration>60</duration>
                                <start>3359</start>
                                <end>3419</end>
                                <in>3359</in>
                                <out>3419</out>
                            </clipitem>
                        </track>
                        <track>
                            <clipitem frameBlend="FALSE" id="clipitem-453">
                                <name></name>
                                <file id="file-2"/>
                                <rate>
                                    <timebase>60</timebase>
                                    <ntsc>TRUE</ntsc>
                                </rate>
                                <duration>60</duration>
                                <start>3377</start>
                                <end>3437</end>
                                <in>3377</in>
                                <out>3437</out>
                            </clipitem>
                        </track>
                        <track>
                            <clipitem frameBlend="FALSE" id="clipitem-454">
                                <name></name>
                                <file id="file-2"/>
                                <rate>
                                    <timebase>60</timebase>
                                    <ntsc>TRUE</ntsc>
                                </rate>
                                <duration>60</duration>
                                <start>3383</start>
                                <end>3443</end>
                                <in>3383</in>
                                <out>3443</out>
                            </clipitem>
                        </track>
                        <track>
                            <clipitem frameBlend="FALSE" id="clipitem-455">
                                <name></name>
                                <file id="file-2"/>
                                <rate>
                                    <timebase>60</timebase>
                                    <ntsc>TRUE</ntsc>
                                </rate>
                                <duration>60</duration>
                                <start>3389</start>
                                <end>3449</end>
                                <in>3389</in>
                                <out>3449</out>
                            </clipitem>
                        </track>
                        <track>
                            <clipitem frameBlend="FALSE" id="clipitem-456">
                                <name></name>
                                <file id="file-2"/>
                                <rate>
                                    <timebase>60</timebase>
                                    <ntsc>TRUE</ntsc>
                                </rate>
                                <duration>66</duration>
                                <start>3395</start>
                                <end>3461</end>
                                <in>3395</in>
                                <out>3461</out>
                            </clipitem>
                        </track>
                        <track>
                            <clipitem frameBlend="FALSE" id="clipitem-457">
                                <name></name>
                                <file id="file-2"/>
                                <rate>
                                    <timebase>60</timebase>
                                    <ntsc>TRUE</ntsc>
                                </rate>
                                <duration>60</duration>
                                <start>3425</start>
                                <end>3485</end>
                                <in>3425</in>
                                <out>3485</out>
                            </clipitem>
                        </track>
                        <track>
                            <clipitem frameBlend="FALSE" id="clipitem-458">
                                <name></name>
                                <file id="file-2"/>
                                <rate>
                                    <timebase>60</timebase>
                                    <ntsc>TRUE</ntsc>
                                </rate>
                                <duration>66</duration>
                                <start>3425</start>
                                <end>3491</end>
                                <in>3425</in>
                                <out>3491</out>
                            </clipitem>
                        </track>
                        <track>
                            <clipitem frameBlend="FALSE" id="clipitem-459">
                                <name></name>
                                <file id="file-2"/>
                                <rate>
                                    <timebase>60</timebase>
                                    <ntsc>TRUE</ntsc>
                                </rate>
                                <duration>60</duration>
                                <start>3437</start>
                                <end>3497</end>
                                <in>3437</in>
                                <out>3497</out>
                            </clipitem>
                        </track>
                        <track>
                            <clipitem frameBlend="FALSE" id="clipitem-460">
                                <name></name>
                                <file id="file-2"/>
                                <rate>
                                    <timebase>60</timebase>
                                    <ntsc>TRUE</ntsc>
                                </rate>
                                <duration>60</duration>
                                <start>3449</start>
                                <end>3509</end>
                                <in>3449</in>
                                <out>3509</out>
                            </clipitem>
                        </track>
                        <track>
                            <clipitem frameBlend="FALSE" id="clipitem-461">
                                <name></name>
                                <file id="file-2"/>
                                <rate>
                                    <timebase>60</timebase>
                                    <ntsc>TRUE</ntsc>
                                </rate>
                                <duration>60</duration>
                                <start>3455</start>
                                <end>3515</end>
                                <in>3455</in>
                                <out>3515</out>
                            </clipitem>
                        </track>
                        <track>
                            <clipitem frameBlend="FALSE" id="clipitem-462">
                                <name></name>
                                <file id="file-2"/>
                                <rate>
                                    <timebase>60</timebase>
                                    <ntsc>TRUE</ntsc>
                                </rate>
                                <duration>60</duration>
                                <start>3467</start>
                                <end>3527</end>
                                <in>3467</in>
                                <out>3527</out>
                            </clipitem>
                        </track>
                        <track>
                            <clipitem frameBlend="FALSE" id="clipitem-463">
                                <name></name>
                                <file id="file-2"/>
                                <rate>
                                    <timebase>60</timebase>
                                    <ntsc>TRUE</ntsc>
                                </rate>
                                <duration>59</duration>
                                <start>3479</start>
                                <end>3538</end>
                                <in>3479</in>
                                <out>3538</out>
                            </clipitem>
                        </track>
                        <track>
                            <clipitem frameBlend="FALSE" id="clipitem-464">
                                <name></name>
                                <file id="file-2"/>
                                <rate>
                                    <timebase>60</timebase>
                                    <ntsc>TRUE</ntsc>
                                </rate>
                                <duration>65</duration>
                                <start>3479</start>
                                <end>3544</end>
                                <in>3479</in>
                                <out>3544</out>
                            </clipitem>
                        </track>
                        <track>
                            <clipitem frameBlend="FALSE" id="clipitem-465">
                                <name></name>
                                <file id="file-2"/>
                                <rate>
                                    <timebase>60</timebase>
                                    <ntsc>TRUE</ntsc>
                                </rate>
                                <duration>59</duration>
                                <start>3503</start>
                                <end>3562</end>
                                <in>3503</in>
                                <out>3562</out>
                            </clipitem>
                        </track>
                        <track>
                            <clipitem frameBlend="FALSE" id="clipitem-466">
                                <name></name>
                                <file id="file-2"/>
                                <rate>
                                    <timebase>60</timebase>
                                    <ntsc>TRUE</ntsc>
                                </rate>
                                <duration>59</duration>
                                <start>3509</start>
                                <end>3568</end>
                                <in>3509</in>
                                <out>3568</out>
                            </clipitem>
                        </track>
                        <track>
                            <clipitem frameBlend="FALSE" id="clipitem-467">
                                <name></name>
                                <file id="file-2"/>
                                <rate>
                                    <timebase>60</timebase>
                                    <ntsc>TRUE</ntsc>
                                </rate>
                                <duration>59</duration>
                                <start>3521</start>
                                <end>3580</end>
                                <in>3521</in>
                                <out>3580</out>
                            </clipitem>
                        </track>
                        <track>
                            <clipitem frameBlend="FALSE" id="clipitem-468">
                                <name></name>
                                <file id="file-2"/>
                                <rate>
                                    <timebase>60</timebase>
                                    <ntsc>TRUE</ntsc>
                                </rate>
                                <duration>60</duration>
                                <start>3538</start>
                                <end>3598</end>
                                <in>3538</in>
                                <out>3598</out>
                            </clipitem>
                        </track>
                        <track>
                            <clipitem frameBlend="FALSE" id="clipitem-469">
                                <name></name>
                                <file id="file-2"/>
                                <rate>
                                    <timebase>60</timebase>
                                    <ntsc>TRUE</ntsc>
                                </rate>
                                <duration>60</duration>
                                <start>3544</start>
                                <end>3604</end>
                                <in>3544</in>
                                <out>3604</out>
                            </clipitem>
                        </track>
                        <track>
                            <clipitem frameBlend="FALSE" id="clipitem-470">
                                <name></name>
                                <file id="file-2"/>
                                <rate>
                                    <timebase>60</timebase>
                                    <ntsc>TRUE</ntsc>
                                </rate>
                                <duration>66</duration>
                                <start>3562</start>
                                <end>3628</end>
                                <in>3562</in>
                                <out>3628</out>
                            </clipitem>
                        </track>
                        <track>
                            <clipitem frameBlend="FALSE" id="clipitem-471">
                                <name></name>
                                <file id="file-2"/>
                                <rate>
                                    <timebase>60</timebase>
                                    <ntsc>TRUE</ntsc>
                                </rate>
                                <duration>60</duration>
                                <start>3580</start>
                                <end>3640</end>
                                <in>3580</in>
                                <out>3640</out>
                            </clipitem>
                        </track>
                        <track>
                            <clipitem frameBlend="FALSE" id="clipitem-472">
                                <name></name>
                                <file id="file-2"/>
                                <rate>
                                    <timebase>60</timebase>
                                    <ntsc>TRUE</ntsc>
                                </rate>
                                <duration>60</duration>
                                <start>3604</start>
                                <end>3664</end>
                                <in>3604</in>
                                <out>3664</out>
                            </clipitem>
                        </track>
                        <track>
                            <clipitem frameBlend="FALSE" id="clipitem-473">
                                <name></name>
                                <file id="file-2"/>
                                <rate>
                                    <timebase>60</timebase>
                                    <ntsc>TRUE</ntsc>
                                </rate>
                                <duration>60</duration>
                                <start>3610</start>
                                <end>3670</end>
                                <in>3610</in>
                                <out>3670</out>
                            </clipitem>
                        </track>
                        <track>
                            <clipitem frameBlend="FALSE" id="clipitem-474">
                                <name></name>
                                <file id="file-2"/>
                                <rate>
                                    <timebase>60</timebase>
                                    <ntsc>TRUE</ntsc>
                                </rate>
                                <duration>60</duration>
                                <start>3616</start>
                                <end>3676</end>
                                <in>3616</in>
                                <out>3676</out>
                            </clipitem>
                        </track>
                        <track>
                            <clipitem id="clipitem-474"/>
                        </track>
                        <track>
                            <clipitem frameBlend="FALSE" id="clipitem-475">
                                <name></name>
                                <file id="file-2"/>
                                <rate>
                                    <timebase>60</timebase>
                                    <ntsc>TRUE</ntsc>
                                </rate>
                                <duration>60</duration>
                                <start>3622</start>
                                <end>3682</end>
                                <in>3622</in>
                                <out>3682</out>
                            </clipitem>
                        </track>
                        <track>
                            <clipitem id="clipitem-475"/>
                        </track>
                        <track>
                            <clipitem frameBlend="FALSE" id="clipitem-476">
                                <name></name>
                                <file id="file-2"/>
                                <rate>
                                    <timebase>60</timebase>
                                    <ntsc>TRUE</ntsc>
                                </rate>
                                <duration>60</duration>
                                <start>3628</start>
                                <end>3688</end>
                                <in>3628</in>
                                <out>3688</out>
                            </clipitem>
                        </track>
                        <track>
                            <clipitem frameBlend="FALSE" id="clipitem-477">
                                <name></name>
                                <file id="file-2"/>
                                <rate>
                                    <timebase>60</timebase>
                                    <ntsc>TRUE</ntsc>
                                </rate>
                                <duration>66</duration>
                                <start>3640</start>
                                <end>3706</end>
                                <in>3640</in>
                                <out>3706</out>
                            </clipitem>
                        </track>
                        <track>
                            <clipitem frameBlend="FALSE" id="clipitem-478">
                                <name></name>
                                <file id="file-2"/>
                                <rate>
                                    <timebase>60</timebase>
                                    <ntsc>TRUE</ntsc>
                                </rate>
                                <duration>66</duration>
                                <start>3652</start>
                                <end>3718</end>
                                <in>3652</in>
                                <out>3718</out>
                            </clipitem>
                        </track>
                        <track>
                            <clipitem frameBlend="FALSE" id="clipitem-479">
                                <name></name>
                                <file id="file-2"/>
                                <rate>
                                    <timebase>60</timebase>
                                    <ntsc>TRUE</ntsc>
                                </rate>
                                <duration>66</duration>
                                <start>3670</start>
                                <end>3736</end>
                                <in>3670</in>
                                <out>3736</out>
                            </clipitem>
                        </track>
                        <track>
                            <clipitem frameBlend="FALSE" id="clipitem-480">
                                <name></name>
                                <file id="file-2"/>
                                <rate>
                                    <timebase>60</timebase>
                                    <ntsc>TRUE</ntsc>
                                </rate>
                                <duration>60</duration>
                                <start>3682</start>
                                <end>3742</end>
                                <in>3682</in>
                                <out>3742</out>
                            </clipitem>
                        </track>
                        <track>
                            <clipitem frameBlend="FALSE" id="clipitem-481">
                                <name></name>
                                <file id="file-2"/>
                                <rate>
                                    <timebase>60</timebase>
                                    <ntsc>TRUE</ntsc>
                                </rate>
                                <duration>60</duration>
                                <start>3694</start>
                                <end>3754</end>
                                <in>3694</in>
                                <out>3754</out>
                            </clipitem>
                        </track>
                        <track>
                            <clipitem frameBlend="FALSE" id="clipitem-482">
                                <name></name>
                                <file id="file-2"/>
                                <rate>
                                    <timebase>60</timebase>
                                    <ntsc>TRUE</ntsc>
                                </rate>
                                <duration>60</duration>
                                <start>3700</start>
                                <end>3760</end>
                                <in>3700</in>
                                <out>3760</out>
                            </clipitem>
                        </track>
                        <track>
                            <clipitem frameBlend="FALSE" id="clipitem-483">
                                <name></name>
                                <file id="file-2"/>
                                <rate>
                                    <timebase>60</timebase>
                                    <ntsc>TRUE</ntsc>
                                </rate>
                                <duration>60</duration>
                                <start>3712</start>
                                <end>3772</end>
                                <in>3712</in>
                                <out>3772</out>
                            </clipitem>
                        </track>
                        <track>
                            <clipitem id="clipitem-483"/>
                        </track>
                        <track>
                            <clipitem frameBlend="FALSE" id="clipitem-484">
                                <name></name>
                                <file id="file-2"/>
                                <rate>
                                    <timebase>60</timebase>
                                    <ntsc>TRUE</ntsc>
                                </rate>
                                <duration>60</duration>
                                <start>3718</start>
                                <end>3778</end>
                                <in>3718</in>
                                <out>3778</out>
                            </clipitem>
                        </track>
                        <track>
                            <clipitem id="clipitem-484"/>
                        </track>
                        <track>
                            <clipitem frameBlend="FALSE" id="clipitem-485">
                                <name></name>
                                <file id="file-2"/>
                                <rate>
                                    <timebase>60</timebase>
                                    <ntsc>TRUE</ntsc>
                                </rate>
                                <duration>60</duration>
                                <start>3730</start>
                                <end>3790</end>
                                <in>3730</in>
                                <out>3790</out>
                            </clipitem>
                        </track>
                        <track>
                            <clipitem frameBlend="FALSE" id="clipitem-486">
                                <name></name>
                                <file id="file-2"/>
                                <rate>
                                    <timebase>60</timebase>
                                    <ntsc>TRUE</ntsc>
                                </rate>
                                <duration>60</duration>
                                <start>3736</start>
                                <end>3796</end>
                                <in>3736</in>
                                <out>3796</out>
                            </clipitem>
                        </track>
                        <track>
                            <clipitem frameBlend="FALSE" id="clipitem-487">
                                <name></name>
                                <file id="file-2"/>
                                <rate>
                                    <timebase>60</timebase>
                                    <ntsc>TRUE</ntsc>
                                </rate>
                                <duration>60</duration>
                                <start>3742</start>
                                <end>3802</end>
                                <in>3742</in>
                                <out>3802</out>
                            </clipitem>
                        </track>
                        <track>
                            <clipitem frameBlend="FALSE" id="clipitem-488">
                                <name></name>
                                <file id="file-2"/>
                                <rate>
                                    <timebase>60</timebase>
                                    <ntsc>TRUE</ntsc>
                                </rate>
                                <duration>66</duration>
                                <start>3742</start>
                                <end>3808</end>
                                <in>3742</in>
                                <out>3808</out>
                            </clipitem>
                        </track>
                        <track>
                            <clipitem frameBlend="FALSE" id="clipitem-489">
                                <name></name>
                                <file id="file-2"/>
                                <rate>
                                    <timebase>60</timebase>
                                    <ntsc>TRUE</ntsc>
                                </rate>
                                <duration>66</duration>
                                <start>3748</start>
                                <end>3814</end>
                                <in>3748</in>
                                <out>3814</out>
                            </clipitem>
                        </track>
                        <track>
                            <clipitem frameBlend="FALSE" id="clipitem-490">
                                <name></name>
                                <file id="file-2"/>
                                <rate>
                                    <timebase>60</timebase>
                                    <ntsc>TRUE</ntsc>
                                </rate>
                                <duration>60</duration>
                                <start>3760</start>
                                <end>3820</end>
                                <in>3760</in>
                                <out>3820</out>
                            </clipitem>
                        </track>
                        <track>
                            <clipitem frameBlend="FALSE" id="clipitem-491">
                                <name></name>
                                <file id="file-2"/>
                                <rate>
                                    <timebase>60</timebase>
                                    <ntsc>TRUE</ntsc>
                                </rate>
                                <duration>66</duration>
                                <start>3760</start>
                                <end>3826</end>
                                <in>3760</in>
                                <out>3826</out>
                            </clipitem>
                        </track>
                        <track>
                            <clipitem frameBlend="FALSE" id="clipitem-492">
                                <name></name>
                                <file id="file-2"/>
                                <rate>
                                    <timebase>60</timebase>
                                    <ntsc>TRUE</ntsc>
                                </rate>
                                <duration>60</duration>
                                <start>3772</start>
                                <end>3832</end>
                                <in>3772</in>
                                <out>3832</out>
                            </clipitem>
                        </track>
                        <track>
                            <clipitem frameBlend="FALSE" id="clipitem-493">
                                <name></name>
                                <file id="file-2"/>
                                <rate>
                                    <timebase>60</timebase>
                                    <ntsc>TRUE</ntsc>
                                </rate>
                                <duration>60</duration>
                                <start>3796</start>
                                <end>3856</end>
                                <in>3796</in>
                                <out>3856</out>
                            </clipitem>
                        </track>
                        <track>
                            <clipitem frameBlend="FALSE" id="clipitem-494">
                                <name></name>
                                <file id="file-2"/>
                                <rate>
                                    <timebase>60</timebase>
                                    <ntsc>TRUE</ntsc>
                                </rate>
                                <duration>60</duration>
                                <start>3802</start>
                                <end>3862</end>
                                <in>3802</in>
                                <out>3862</out>
                            </clipitem>
                        </track>
                        <track>
                            <clipitem frameBlend="FALSE" id="clipitem-495">
                                <name></name>
                                <file id="file-2"/>
                                <rate>
                                    <timebase>60</timebase>
                                    <ntsc>TRUE</ntsc>
                                </rate>
                                <duration>60</duration>
                                <start>3808</start>
                                <end>3868</end>
                                <in>3808</in>
                                <out>3868</out>
                            </clipitem>
                        </track>
                        <track>
                            <clipitem id="clipitem-495"/>
                        </track>
                        <track>
                            <clipitem frameBlend="FALSE" id="clipitem-496">
                                <name></name>
                                <file id="file-2"/>
                                <rate>
                                    <timebase>60</timebase>
                                    <ntsc>TRUE</ntsc>
                                </rate>
                                <duration>60</duration>
                                <start>3820</start>
                                <end>3880</end>
                                <in>3820</in>
                                <out>3880</out>
                            </clipitem>
                        </track>
                        <track>
                            <clipitem frameBlend="FALSE" id="clipitem-497">
                                <name></name>
                                <file id="file-2"/>
                                <rate>
                                    <timebase>60</timebase>
                                    <ntsc>TRUE</ntsc>
                                </rate>
                                <duration>60</duration>
                                <start>3838</start>
                                <end>3898</end>
                                <in>3838</in>
                                <out>3898</out>
                            </clipitem>
                        </track>
                        <track>
                            <clipitem frameBlend="FALSE" id="clipitem-498">
                                <name></name>
                                <file id="file-2"/>
                                <rate>
                                    <timebase>60</timebase>
                                    <ntsc>TRUE</ntsc>
                                </rate>
                                <duration>60</duration>
                                <start>3844</start>
                                <end>3904</end>
                                <in>3844</in>
                                <out>3904</out>
                            </clipitem>
                        </track>
                        <track>
                            <clipitem frameBlend="FALSE" id="clipitem-499">
                                <name></name>
                                <file id="file-2"/>
                                <rate>
                                    <timebase>60</timebase>
                                    <ntsc>TRUE</ntsc>
                                </rate>
                                <duration>60</duration>
                                <start>3850</start>
                                <end>3910</end>
                                <in>3850</in>
                                <out>3910</out>
                            </clipitem>
                        </track>
                        <track>
                            <clipitem frameBlend="FALSE" id="clipitem-500">
                                <name></name>
                                <file id="file-2"/>
                                <rate>
                                    <timebase>60</timebase>
                                    <ntsc>TRUE</ntsc>
                                </rate>
                                <duration>60</duration>
                                <start>3856</start>
                                <end>3916</end>
                                <in>3856</in>
                                <out>3916</out>
                            </clipitem>
                        </track>
                        <track>
                            <clipitem frameBlend="FALSE" id="clipitem-501">
                                <name></name>
                                <file id="file-2"/>
                                <rate>
                                    <timebase>60</timebase>
                                    <ntsc>TRUE</ntsc>
                                </rate>
                                <duration>60</duration>
                                <start>3862</start>
                                <end>3922</end>
                                <in>3862</in>
                                <out>3922</out>
                            </clipitem>
                        </track>
                        <track>
                            <clipitem frameBlend="FALSE" id="clipitem-502">
                                <name></name>
                                <file id="file-2"/>
                                <rate>
                                    <timebase>60</timebase>
                                    <ntsc>TRUE</ntsc>
                                </rate>
                                <duration>60</duration>
                                <start>3880</start>
                                <end>3940</end>
                                <in>3880</in>
                                <out>3940</out>
                            </clipitem>
                        </track>
                        <track>
                            <clipitem id="clipitem-502"/>
                        </track>
                        <track>
                            <clipitem frameBlend="FALSE" id="clipitem-503">
                                <name></name>
                                <file id="file-2"/>
                                <rate>
                                    <timebase>60</timebase>
                                    <ntsc>TRUE</ntsc>
                                </rate>
                                <duration>66</duration>
                                <start>3934</start>
                                <end>4000</end>
                                <in>3934</in>
                                <out>4000</out>
                            </clipitem>
                        </track>
                        <track>
                            <clipitem frameBlend="FALSE" id="clipitem-504">
                                <name></name>
                                <file id="file-2"/>
                                <rate>
                                    <timebase>60</timebase>
                                    <ntsc>TRUE</ntsc>
                                </rate>
                                <duration>60</duration>
                                <start>3964</start>
                                <end>4024</end>
                                <in>3964</in>
                                <out>4024</out>
                            </clipitem>
                        </track>
                        <track>
                            <clipitem frameBlend="FALSE" id="clipitem-505">
                                <name></name>
                                <file id="file-2"/>
                                <rate>
                                    <timebase>60</timebase>
                                    <ntsc>TRUE</ntsc>
                                </rate>
                                <duration>60</duration>
                                <start>3970</start>
                                <end>4030</end>
                                <in>3970</in>
                                <out>4030</out>
                            </clipitem>
                        </track>
                        <track>
                            <clipitem frameBlend="FALSE" id="clipitem-506">
                                <name></name>
                                <file id="file-2"/>
                                <rate>
                                    <timebase>60</timebase>
                                    <ntsc>TRUE</ntsc>
                                </rate>
                                <duration>66</duration>
                                <start>3982</start>
                                <end>4048</end>
                                <in>3982</in>
                                <out>4048</out>
                            </clipitem>
                        </track>
                        <track>
                            <clipitem frameBlend="FALSE" id="clipitem-507">
                                <name></name>
                                <file id="file-2"/>
                                <rate>
                                    <timebase>60</timebase>
                                    <ntsc>TRUE</ntsc>
                                </rate>
                                <duration>60</duration>
                                <start>4012</start>
                                <end>4072</end>
                                <in>4012</in>
                                <out>4072</out>
                            </clipitem>
                        </track>
                        <track>
                            <clipitem frameBlend="FALSE" id="clipitem-508">
                                <name></name>
                                <file id="file-2"/>
                                <rate>
                                    <timebase>60</timebase>
                                    <ntsc>TRUE</ntsc>
                                </rate>
                                <duration>60</duration>
                                <start>4024</start>
                                <end>4084</end>
                                <in>4024</in>
                                <out>4084</out>
                            </clipitem>
                        </track>
                        <track>
                            <clipitem frameBlend="FALSE" id="clipitem-509">
                                <name></name>
                                <file id="file-2"/>
                                <rate>
                                    <timebase>60</timebase>
                                    <ntsc>TRUE</ntsc>
                                </rate>
                                <duration>60</duration>
                                <start>4048</start>
                                <end>4108</end>
                                <in>4048</in>
                                <out>4108</out>
                            </clipitem>
                        </track>
                        <track>
                            <clipitem frameBlend="FALSE" id="clipitem-510">
                                <name></name>
                                <file id="file-2"/>
                                <rate>
                                    <timebase>60</timebase>
                                    <ntsc>TRUE</ntsc>
                                </rate>
                                <duration>60</duration>
                                <start>4060</start>
                                <end>4120</end>
                                <in>4060</in>
                                <out>4120</out>
                            </clipitem>
                        </track>
                        <track>
                            <clipitem id="clipitem-510"/>
                        </track>
                        <track>
                            <clipitem frameBlend="FALSE" id="clipitem-511">
                                <name></name>
                                <file id="file-2"/>
                                <rate>
                                    <timebase>60</timebase>
                                    <ntsc>TRUE</ntsc>
                                </rate>
                                <duration>60</duration>
                                <start>4078</start>
                                <end>4138</end>
                                <in>4078</in>
                                <out>4138</out>
                            </clipitem>
                        </track>
                        <track>
                            <clipitem frameBlend="FALSE" id="clipitem-512">
                                <name></name>
                                <file id="file-2"/>
                                <rate>
                                    <timebase>60</timebase>
                                    <ntsc>TRUE</ntsc>
                                </rate>
                                <duration>60</duration>
                                <start>4084</start>
                                <end>4144</end>
                                <in>4084</in>
                                <out>4144</out>
                            </clipitem>
                        </track>
                        <track>
                            <clipitem frameBlend="FALSE" id="clipitem-513">
                                <name></name>
                                <file id="file-2"/>
                                <rate>
                                    <timebase>60</timebase>
                                    <ntsc>TRUE</ntsc>
                                </rate>
                                <duration>60</duration>
                                <start>4102</start>
                                <end>4162</end>
                                <in>4102</in>
                                <out>4162</out>
                            </clipitem>
                        </track>
                        <track>
                            <clipitem frameBlend="FALSE" id="clipitem-514">
                                <name></name>
                                <file id="file-2"/>
                                <rate>
                                    <timebase>60</timebase>
                                    <ntsc>TRUE</ntsc>
                                </rate>
                                <duration>60</duration>
                                <start>4114</start>
                                <end>4174</end>
                                <in>4114</in>
                                <out>4174</out>
                            </clipitem>
                        </track>
                        <track>
                            <clipitem frameBlend="FALSE" id="clipitem-515">
                                <name></name>
                                <file id="file-2"/>
                                <rate>
                                    <timebase>60</timebase>
                                    <ntsc>TRUE</ntsc>
                                </rate>
                                <duration>60</duration>
                                <start>4138</start>
                                <end>4198</end>
                                <in>4138</in>
                                <out>4198</out>
                            </clipitem>
                        </track>
                        <track>
                            <clipitem frameBlend="FALSE" id="clipitem-516">
                                <name></name>
                                <file id="file-2"/>
                                <rate>
                                    <timebase>60</timebase>
                                    <ntsc>TRUE</ntsc>
                                </rate>
                                <duration>66</duration>
                                <start>4162</start>
                                <end>4228</end>
                                <in>4162</in>
                                <out>4228</out>
                            </clipitem>
                        </track>
                        <track>
                            <clipitem frameBlend="FALSE" id="clipitem-517">
                                <name></name>
                                <file id="file-2"/>
                                <rate>
                                    <timebase>60</timebase>
                                    <ntsc>TRUE</ntsc>
                                </rate>
                                <duration>60</duration>
                                <start>4180</start>
                                <end>4240</end>
                                <in>4180</in>
                                <out>4240</out>
                            </clipitem>
                        </track>
                        <track>
                            <clipitem frameBlend="FALSE" id="clipitem-518">
                                <name></name>
                                <file id="file-2"/>
                                <rate>
                                    <timebase>60</timebase>
                                    <ntsc>TRUE</ntsc>
                                </rate>
                                <duration>60</duration>
                                <start>4210</start>
                                <end>4270</end>
                                <in>4210</in>
                                <out>4270</out>
                            </clipitem>
                        </track>
                        <track>
                            <clipitem frameBlend="FALSE" id="clipitem-519">
                                <name></name>
                                <file id="file-2"/>
                                <rate>
                                    <timebase>60</timebase>
                                    <ntsc>TRUE</ntsc>
                                </rate>
                                <duration>66</duration>
                                <start>4216</start>
                                <end>4282</end>
                                <in>4216</in>
                                <out>4282</out>
                            </clipitem>
                        </track>
                        <track>
                            <clipitem frameBlend="FALSE" id="clipitem-520">
                                <name></name>
                                <file id="file-2"/>
                                <rate>
                                    <timebase>60</timebase>
                                    <ntsc>TRUE</ntsc>
                                </rate>
                                <duration>60</duration>
                                <start>4222</start>
                                <end>4282</end>
                                <in>4222</in>
                                <out>4282</out>
                            </clipitem>
                        </track>
                        <track>
                            <clipitem frameBlend="FALSE" id="clipitem-521">
                                <name></name>
                                <file id="file-2"/>
                                <rate>
                                    <timebase>60</timebase>
                                    <ntsc>TRUE</ntsc>
                                </rate>
                                <duration>60</duration>
                                <start>4228</start>
                                <end>4288</end>
                                <in>4228</in>
                                <out>4288</out>
                            </clipitem>
                        </track>
                        <track>
                            <clipitem frameBlend="FALSE" id="clipitem-522">
                                <name></name>
                                <file id="file-2"/>
                                <rate>
                                    <timebase>60</timebase>
                                    <ntsc>TRUE</ntsc>
                                </rate>
                                <duration>60</duration>
                                <start>4234</start>
                                <end>4294</end>
                                <in>4234</in>
                                <out>4294</out>
                            </clipitem>
                        </track>
                        <track>
                            <clipitem frameBlend="FALSE" id="clipitem-523">
                                <name></name>
                                <file id="file-2"/>
                                <rate>
                                    <timebase>60</timebase>
                                    <ntsc>TRUE</ntsc>
                                </rate>
                                <duration>66</duration>
                                <start>4234</start>
                                <end>4300</end>
                                <in>4234</in>
                                <out>4300</out>
                            </clipitem>
                        </track>
                        <track>
                            <clipitem frameBlend="FALSE" id="clipitem-524">
                                <name></name>
                                <file id="file-2"/>
                                <rate>
                                    <timebase>60</timebase>
                                    <ntsc>TRUE</ntsc>
                                </rate>
                                <duration>60</duration>
                                <start>4258</start>
                                <end>4318</end>
                                <in>4258</in>
                                <out>4318</out>
                            </clipitem>
                        </track>
                        <track>
                            <clipitem frameBlend="FALSE" id="clipitem-525">
                                <name></name>
                                <file id="file-2"/>
                                <rate>
                                    <timebase>60</timebase>
                                    <ntsc>TRUE</ntsc>
                                </rate>
                                <duration>60</duration>
                                <start>4264</start>
                                <end>4324</end>
                                <in>4264</in>
                                <out>4324</out>
                            </clipitem>
                        </track>
                        <track>
                            <clipitem frameBlend="FALSE" id="clipitem-526">
                                <name></name>
                                <file id="file-2"/>
                                <rate>
                                    <timebase>60</timebase>
                                    <ntsc>TRUE</ntsc>
                                </rate>
                                <duration>60</duration>
                                <start>4270</start>
                                <end>4330</end>
                                <in>4270</in>
                                <out>4330</out>
                            </clipitem>
                        </track>
                        <track>
                            <clipitem frameBlend="FALSE" id="clipitem-527">
                                <name></name>
                                <file id="file-2"/>
                                <rate>
                                    <timebase>60</timebase>
                                    <ntsc>TRUE</ntsc>
                                </rate>
                                <duration>60</duration>
                                <start>4288</start>
                                <end>4348</end>
                                <in>4288</in>
                                <out>4348</out>
                            </clipitem>
                        </track>
                        <track>
                            <clipitem frameBlend="FALSE" id="clipitem-528">
                                <name></name>
                                <file id="file-2"/>
                                <rate>
                                    <timebase>60</timebase>
                                    <ntsc>TRUE</ntsc>
                                </rate>
                                <duration>60</duration>
                                <start>4294</start>
                                <end>4354</end>
                                <in>4294</in>
                                <out>4354</out>
                            </clipitem>
                        </track>
                        <track>
                            <clipitem frameBlend="FALSE" id="clipitem-529">
                                <name></name>
                                <file id="file-2"/>
                                <rate>
                                    <timebase>60</timebase>
                                    <ntsc>TRUE</ntsc>
                                </rate>
                                <duration>60</duration>
                                <start>4300</start>
                                <end>4360</end>
                                <in>4300</in>
                                <out>4360</out>
                            </clipitem>
                        </track>
                        <track>
                            <clipitem id="clipitem-529"/>
                        </track>
                        <track>
                            <clipitem frameBlend="FALSE" id="clipitem-530">
                                <name></name>
                                <file id="file-2"/>
                                <rate>
                                    <timebase>60</timebase>
                                    <ntsc>TRUE</ntsc>
                                </rate>
                                <duration>60</duration>
                                <start>4312</start>
                                <end>4372</end>
                                <in>4312</in>
                                <out>4372</out>
                            </clipitem>
                        </track>
                        <track>
                            <clipitem frameBlend="FALSE" id="clipitem-531">
                                <name></name>
                                <file id="file-2"/>
                                <rate>
                                    <timebase>60</timebase>
                                    <ntsc>TRUE</ntsc>
                                </rate>
                                <duration>66</duration>
                                <start>4318</start>
                                <end>4384</end>
                                <in>4318</in>
                                <out>4384</out>
                            </clipitem>
                        </track>
                        <track>
                            <clipitem frameBlend="FALSE" id="clipitem-532">
                                <name></name>
                                <file id="file-2"/>
                                <rate>
                                    <timebase>60</timebase>
                                    <ntsc>TRUE</ntsc>
                                </rate>
                                <duration>60</duration>
                                <start>4336</start>
                                <end>4396</end>
                                <in>4336</in>
                                <out>4396</out>
                            </clipitem>
                        </track>
                        <track>
                            <clipitem id="clipitem-532"/>
                        </track>
                        <track>
                            <clipitem frameBlend="FALSE" id="clipitem-533">
                                <name></name>
                                <file id="file-2"/>
                                <rate>
                                    <timebase>60</timebase>
                                    <ntsc>TRUE</ntsc>
                                </rate>
                                <duration>66</duration>
                                <start>4348</start>
                                <end>4414</end>
                                <in>4348</in>
                                <out>4414</out>
                            </clipitem>
                        </track>
                        <track>
                            <clipitem frameBlend="FALSE" id="clipitem-534">
                                <name></name>
                                <file id="file-2"/>
                                <rate>
                                    <timebase>60</timebase>
                                    <ntsc>TRUE</ntsc>
                                </rate>
                                <duration>60</duration>
                                <start>4366</start>
                                <end>4426</end>
                                <in>4366</in>
                                <out>4426</out>
                            </clipitem>
                        </track>
                        <track>
                            <clipitem frameBlend="FALSE" id="clipitem-535">
                                <name></name>
                                <file id="file-2"/>
                                <rate>
                                    <timebase>60</timebase>
                                    <ntsc>TRUE</ntsc>
                                </rate>
                                <duration>60</duration>
                                <start>4372</start>
                                <end>4432</end>
                                <in>4372</in>
                                <out>4432</out>
                            </clipitem>
                        </track>
                        <track>
                            <clipitem frameBlend="FALSE" id="clipitem-536">
                                <name></name>
                                <file id="file-2"/>
                                <rate>
                                    <timebase>60</timebase>
                                    <ntsc>TRUE</ntsc>
                                </rate>
                                <duration>60</duration>
                                <start>4378</start>
                                <end>4438</end>
                                <in>4378</in>
                                <out>4438</out>
                            </clipitem>
                        </track>
                        <track>
                            <clipitem frameBlend="FALSE" id="clipitem-537">
                                <name></name>
                                <file id="file-2"/>
                                <rate>
                                    <timebase>60</timebase>
                                    <ntsc>TRUE</ntsc>
                                </rate>
                                <duration>60</duration>
                                <start>4390</start>
                                <end>4450</end>
                                <in>4390</in>
                                <out>4450</out>
                            </clipitem>
                        </track>
                        <track>
                            <clipitem frameBlend="FALSE" id="clipitem-538">
                                <name></name>
                                <file id="file-2"/>
                                <rate>
                                    <timebase>60</timebase>
                                    <ntsc>TRUE</ntsc>
                                </rate>
                                <duration>60</duration>
                                <start>4396</start>
                                <end>4456</end>
                                <in>4396</in>
                                <out>4456</out>
                            </clipitem>
                        </track>
                        <track>
                            <clipitem frameBlend="FALSE" id="clipitem-539">
                                <name></name>
                                <file id="file-2"/>
                                <rate>
                                    <timebase>60</timebase>
                                    <ntsc>TRUE</ntsc>
                                </rate>
                                <duration>60</duration>
                                <start>4402</start>
                                <end>4462</end>
                                <in>4402</in>
                                <out>4462</out>
                            </clipitem>
                        </track>
                        <track>
                            <clipitem frameBlend="FALSE" id="clipitem-540">
                                <name></name>
                                <file id="file-2"/>
                                <rate>
                                    <timebase>60</timebase>
                                    <ntsc>TRUE</ntsc>
                                </rate>
                                <duration>60</duration>
                                <start>4408</start>
                                <end>4468</end>
                                <in>4408</in>
                                <out>4468</out>
                            </clipitem>
                        </track>
                        <track>
                            <clipitem frameBlend="FALSE" id="clipitem-541">
                                <name></name>
                                <file id="file-2"/>
                                <rate>
                                    <timebase>60</timebase>
                                    <ntsc>TRUE</ntsc>
                                </rate>
                                <duration>66</duration>
                                <start>4414</start>
                                <end>4480</end>
                                <in>4414</in>
                                <out>4480</out>
                            </clipitem>
                        </track>
                        <track>
                            <clipitem frameBlend="FALSE" id="clipitem-542">
                                <name></name>
                                <file id="file-2"/>
                                <rate>
                                    <timebase>60</timebase>
                                    <ntsc>TRUE</ntsc>
                                </rate>
                                <duration>66</duration>
                                <start>4420</start>
                                <end>4486</end>
                                <in>4420</in>
                                <out>4486</out>
                            </clipitem>
                        </track>
                        <track>
                            <clipitem frameBlend="FALSE" id="clipitem-543">
                                <name></name>
                                <file id="file-2"/>
                                <rate>
                                    <timebase>60</timebase>
                                    <ntsc>TRUE</ntsc>
                                </rate>
                                <duration>60</duration>
                                <start>4426</start>
                                <end>4486</end>
                                <in>4426</in>
                                <out>4486</out>
                            </clipitem>
                        </track>
                        <track>
                            <clipitem frameBlend="FALSE" id="clipitem-544">
                                <name></name>
                                <file id="file-2"/>
                                <rate>
                                    <timebase>60</timebase>
                                    <ntsc>TRUE</ntsc>
                                </rate>
                                <duration>60</duration>
                                <start>4432</start>
                                <end>4492</end>
                                <in>4432</in>
                                <out>4492</out>
                            </clipitem>
                        </track>
                        <track>
                            <clipitem frameBlend="FALSE" id="clipitem-545">
                                <name></name>
                                <file id="file-2"/>
                                <rate>
                                    <timebase>60</timebase>
                                    <ntsc>TRUE</ntsc>
                                </rate>
                                <duration>60</duration>
                                <start>4444</start>
                                <end>4504</end>
                                <in>4444</in>
                                <out>4504</out>
                            </clipitem>
                        </track>
                        <track>
                            <clipitem frameBlend="FALSE" id="clipitem-546">
                                <name></name>
                                <file id="file-2"/>
                                <rate>
                                    <timebase>60</timebase>
                                    <ntsc>TRUE</ntsc>
                                </rate>
                                <duration>60</duration>
                                <start>4450</start>
                                <end>4510</end>
                                <in>4450</in>
                                <out>4510</out>
                            </clipitem>
                        </track>
                        <track>
                            <clipitem frameBlend="FALSE" id="clipitem-547">
                                <name></name>
                                <file id="file-2"/>
                                <rate>
                                    <timebase>60</timebase>
                                    <ntsc>TRUE</ntsc>
                                </rate>
                                <duration>66</duration>
                                <start>4450</start>
                                <end>4516</end>
                                <in>4450</in>
                                <out>4516</out>
                            </clipitem>
                        </track>
                        <track>
                            <clipitem frameBlend="FALSE" id="clipitem-548">
                                <name></name>
                                <file id="file-2"/>
                                <rate>
                                    <timebase>60</timebase>
                                    <ntsc>TRUE</ntsc>
                                </rate>
                                <duration>60</duration>
                                <start>4456</start>
                                <end>4516</end>
                                <in>4456</in>
                                <out>4516</out>
                            </clipitem>
                        </track>
                        <track>
                            <clipitem id="clipitem-548"/>
                        </track>
                        <track>
                            <clipitem frameBlend="FALSE" id="clipitem-549">
                                <name></name>
                                <file id="file-2"/>
                                <rate>
                                    <timebase>60</timebase>
                                    <ntsc>TRUE</ntsc>
                                </rate>
                                <duration>66</duration>
                                <start>4456</start>
                                <end>4522</end>
                                <in>4456</in>
                                <out>4522</out>
                            </clipitem>
                        </track>
                        <track>
                            <clipitem frameBlend="FALSE" id="clipitem-550">
                                <name></name>
                                <file id="file-2"/>
                                <rate>
                                    <timebase>60</timebase>
                                    <ntsc>TRUE</ntsc>
                                </rate>
                                <duration>60</duration>
                                <start>4468</start>
                                <end>4528</end>
                                <in>4468</in>
                                <out>4528</out>
                            </clipitem>
                        </track>
                        <track>
                            <clipitem frameBlend="FALSE" id="clipitem-551">
                                <name></name>
                                <file id="file-2"/>
                                <rate>
                                    <timebase>60</timebase>
                                    <ntsc>TRUE</ntsc>
                                </rate>
                                <duration>60</duration>
                                <start>4474</start>
                                <end>4534</end>
                                <in>4474</in>
                                <out>4534</out>
                            </clipitem>
                        </track>
                        <track>
                            <clipitem frameBlend="FALSE" id="clipitem-552">
                                <name></name>
                                <file id="file-2"/>
                                <rate>
                                    <timebase>60</timebase>
                                    <ntsc>TRUE</ntsc>
                                </rate>
                                <duration>66</duration>
                                <start>4486</start>
                                <end>4552</end>
                                <in>4486</in>
                                <out>4552</out>
                            </clipitem>
                        </track>
                        <track>
                            <clipitem frameBlend="FALSE" id="clipitem-553">
                                <name></name>
                                <file id="file-2"/>
                                <rate>
                                    <timebase>60</timebase>
                                    <ntsc>TRUE</ntsc>
                                </rate>
                                <duration>66</duration>
                                <start>4492</start>
                                <end>4558</end>
                                <in>4492</in>
                                <out>4558</out>
                            </clipitem>
                        </track>
                        <track>
                            <clipitem frameBlend="FALSE" id="clipitem-554">
                                <name></name>
                                <file id="file-2"/>
                                <rate>
                                    <timebase>60</timebase>
                                    <ntsc>TRUE</ntsc>
                                </rate>
                                <duration>66</duration>
                                <start>4498</start>
                                <end>4564</end>
                                <in>4498</in>
                                <out>4564</out>
                            </clipitem>
                        </track>
                        <track>
                            <clipitem frameBlend="FALSE" id="clipitem-555">
                                <name></name>
                                <file id="file-2"/>
                                <rate>
                                    <timebase>60</timebase>
                                    <ntsc>TRUE</ntsc>
                                </rate>
                                <duration>60</duration>
                                <start>4504</start>
                                <end>4564</end>
                                <in>4504</in>
                                <out>4564</out>
                            </clipitem>
                        </track>
                        <track>
                            <clipitem frameBlend="FALSE" id="clipitem-556">
                                <name></name>
                                <file id="file-2"/>
                                <rate>
                                    <timebase>60</timebase>
                                    <ntsc>TRUE</ntsc>
                                </rate>
                                <duration>60</duration>
                                <start>4534</start>
                                <end>4594</end>
                                <in>4534</in>
                                <out>4594</out>
                            </clipitem>
                        </track>
                        <track>
                            <clipitem frameBlend="FALSE" id="clipitem-557">
                                <name></name>
                                <file id="file-2"/>
                                <rate>
                                    <timebase>60</timebase>
                                    <ntsc>TRUE</ntsc>
                                </rate>
                                <duration>60</duration>
                                <start>4546</start>
                                <end>4606</end>
                                <in>4546</in>
                                <out>4606</out>
                            </clipitem>
                        </track>
                        <track>
                            <clipitem frameBlend="FALSE" id="clipitem-558">
                                <name></name>
                                <file id="file-2"/>
                                <rate>
                                    <timebase>60</timebase>
                                    <ntsc>TRUE</ntsc>
                                </rate>
                                <duration>60</duration>
                                <start>4552</start>
                                <end>4612</end>
                                <in>4552</in>
                                <out>4612</out>
                            </clipitem>
                        </track>
                        <track>
                            <clipitem frameBlend="FALSE" id="clipitem-559">
                                <name></name>
                                <file id="file-2"/>
                                <rate>
                                    <timebase>60</timebase>
                                    <ntsc>TRUE</ntsc>
                                </rate>
                                <duration>60</duration>
                                <start>4564</start>
                                <end>4624</end>
                                <in>4564</in>
                                <out>4624</out>
                            </clipitem>
                        </track>
                        <track>
                            <clipitem frameBlend="FALSE" id="clipitem-560">
                                <name></name>
                                <file id="file-2"/>
                                <rate>
                                    <timebase>60</timebase>
                                    <ntsc>TRUE</ntsc>
                                </rate>
                                <duration>66</duration>
                                <start>4564</start>
                                <end>4630</end>
                                <in>4564</in>
                                <out>4630</out>
                            </clipitem>
                        </track>
                        <track>
                            <clipitem frameBlend="FALSE" id="clipitem-561">
                                <name></name>
                                <file id="file-2"/>
                                <rate>
                                    <timebase>60</timebase>
                                    <ntsc>TRUE</ntsc>
                                </rate>
                                <duration>60</duration>
                                <start>4582</start>
                                <end>4642</end>
                                <in>4582</in>
                                <out>4642</out>
                            </clipitem>
                        </track>
                        <track>
                            <clipitem id="clipitem-561"/>
                        </track>
                        <track>
                            <clipitem frameBlend="FALSE" id="clipitem-562">
                                <name></name>
                                <file id="file-2"/>
                                <rate>
                                    <timebase>60</timebase>
                                    <ntsc>TRUE</ntsc>
                                </rate>
                                <duration>60</duration>
                                <start>4594</start>
                                <end>4654</end>
                                <in>4594</in>
                                <out>4654</out>
                            </clipitem>
                        </track>
                        <track>
                            <clipitem id="clipitem-562"/>
                        </track>
                        <track>
                            <clipitem frameBlend="FALSE" id="clipitem-563">
                                <name></name>
                                <file id="file-2"/>
                                <rate>
                                    <timebase>60</timebase>
                                    <ntsc>TRUE</ntsc>
                                </rate>
                                <duration>60</duration>
                                <start>4606</start>
                                <end>4666</end>
                                <in>4606</in>
                                <out>4666</out>
                            </clipitem>
                        </track>
                        <track>
                            <clipitem frameBlend="FALSE" id="clipitem-564">
                                <name></name>
                                <file id="file-2"/>
                                <rate>
                                    <timebase>60</timebase>
                                    <ntsc>TRUE</ntsc>
                                </rate>
                                <duration>60</duration>
                                <start>4612</start>
                                <end>4672</end>
                                <in>4612</in>
                                <out>4672</out>
                            </clipitem>
                        </track>
                        <track>
                            <clipitem frameBlend="FALSE" id="clipitem-565">
                                <name></name>
                                <file id="file-2"/>
                                <rate>
                                    <timebase>60</timebase>
                                    <ntsc>TRUE</ntsc>
                                </rate>
                                <duration>66</duration>
                                <start>4624</start>
                                <end>4690</end>
                                <in>4624</in>
                                <out>4690</out>
                            </clipitem>
                        </track>
                        <track>
                            <clipitem frameBlend="FALSE" id="clipitem-566">
                                <name></name>
                                <file id="file-2"/>
                                <rate>
                                    <timebase>60</timebase>
                                    <ntsc>TRUE</ntsc>
                                </rate>
                                <duration>60</duration>
                                <start>4636</start>
                                <end>4696</end>
                                <in>4636</in>
                                <out>4696</out>
                            </clipitem>
                        </track>
                        <track>
                            <clipitem frameBlend="FALSE" id="clipitem-567">
                                <name></name>
                                <file id="file-2"/>
                                <rate>
                                    <timebase>60</timebase>
                                    <ntsc>TRUE</ntsc>
                                </rate>
                                <duration>66</duration>
                                <start>4654</start>
                                <end>4720</end>
                                <in>4654</in>
                                <out>4720</out>
                            </clipitem>
                        </track>
                        <track>
                            <clipitem frameBlend="FALSE" id="clipitem-568">
                                <name></name>
                                <file id="file-2"/>
                                <rate>
                                    <timebase>60</timebase>
                                    <ntsc>TRUE</ntsc>
                                </rate>
                                <duration>60</duration>
                                <start>4666</start>
                                <end>4726</end>
                                <in>4666</in>
                                <out>4726</out>
                            </clipitem>
                        </track>
                        <track>
                            <clipitem frameBlend="FALSE" id="clipitem-569">
                                <name></name>
                                <file id="file-2"/>
                                <rate>
                                    <timebase>60</timebase>
                                    <ntsc>TRUE</ntsc>
                                </rate>
                                <duration>66</duration>
                                <start>4684</start>
                                <end>4750</end>
                                <in>4684</in>
                                <out>4750</out>
                            </clipitem>
                        </track>
                        <track>
                            <clipitem frameBlend="FALSE" id="clipitem-570">
                                <name></name>
                                <file id="file-2"/>
                                <rate>
                                    <timebase>60</timebase>
                                    <ntsc>TRUE</ntsc>
                                </rate>
                                <duration>60</duration>
                                <start>4696</start>
                                <end>4756</end>
                                <in>4696</in>
                                <out>4756</out>
                            </clipitem>
                        </track>
                        <track>
                            <clipitem frameBlend="FALSE" id="clipitem-571">
                                <name></name>
                                <file id="file-2"/>
                                <rate>
                                    <timebase>60</timebase>
                                    <ntsc>TRUE</ntsc>
                                </rate>
                                <duration>60</duration>
                                <start>4702</start>
                                <end>4762</end>
                                <in>4702</in>
                                <out>4762</out>
                            </clipitem>
                        </track>
                        <track>
                            <clipitem frameBlend="FALSE" id="clipitem-572">
                                <name></name>
                                <file id="file-2"/>
                                <rate>
                                    <timebase>60</timebase>
                                    <ntsc>TRUE</ntsc>
                                </rate>
                                <duration>60</duration>
                                <start>4708</start>
                                <end>4768</end>
                                <in>4708</in>
                                <out>4768</out>
                            </clipitem>
                        </track>
                        <track>
                            <clipitem frameBlend="FALSE" id="clipitem-573">
                                <name></name>
                                <file id="file-2"/>
                                <rate>
                                    <timebase>60</timebase>
                                    <ntsc>TRUE</ntsc>
                                </rate>
                                <duration>60</duration>
                                <start>4726</start>
                                <end>4786</end>
                                <in>4726</in>
                                <out>4786</out>
                            </clipitem>
                        </track>
                        <track>
                            <clipitem id="clipitem-573"/>
                        </track>
                        <track>
                            <clipitem frameBlend="FALSE" id="clipitem-574">
                                <name></name>
                                <file id="file-2"/>
                                <rate>
                                    <timebase>60</timebase>
                                    <ntsc>TRUE</ntsc>
                                </rate>
                                <duration>60</duration>
                                <start>4732</start>
                                <end>4792</end>
                                <in>4732</in>
                                <out>4792</out>
                            </clipitem>
                        </track>
                        <track>
                            <clipitem frameBlend="FALSE" id="clipitem-575">
                                <name></name>
                                <file id="file-2"/>
                                <rate>
                                    <timebase>60</timebase>
                                    <ntsc>TRUE</ntsc>
                                </rate>
                                <duration>60</duration>
                                <start>4750</start>
                                <end>4810</end>
                                <in>4750</in>
                                <out>4810</out>
                            </clipitem>
                        </track>
                        <track>
                            <clipitem frameBlend="FALSE" id="clipitem-576">
                                <name></name>
                                <file id="file-2"/>
                                <rate>
                                    <timebase>60</timebase>
                                    <ntsc>TRUE</ntsc>
                                </rate>
                                <duration>60</duration>
                                <start>4756</start>
                                <end>4816</end>
                                <in>4756</in>
                                <out>4816</out>
                            </clipitem>
                        </track>
                        <track>
                            <clipitem frameBlend="FALSE" id="clipitem-577">
                                <name></name>
                                <file id="file-2"/>
                                <rate>
                                    <timebase>60</timebase>
                                    <ntsc>TRUE</ntsc>
                                </rate>
                                <duration>60</duration>
                                <start>4768</start>
                                <end>4828</end>
                                <in>4768</in>
                                <out>4828</out>
                            </clipitem>
                        </track>
                        <track>
                            <clipitem frameBlend="FALSE" id="clipitem-578">
                                <name></name>
                                <file id="file-2"/>
                                <rate>
                                    <timebase>60</timebase>
                                    <ntsc>TRUE</ntsc>
                                </rate>
                                <duration>60</duration>
                                <start>4792</start>
                                <end>4852</end>
                                <in>4792</in>
                                <out>4852</out>
                            </clipitem>
                        </track>
                        <track>
                            <clipitem frameBlend="FALSE" id="clipitem-579">
                                <name></name>
                                <file id="file-2"/>
                                <rate>
                                    <timebase>60</timebase>
                                    <ntsc>TRUE</ntsc>
                                </rate>
                                <duration>66</duration>
                                <start>4798</start>
                                <end>4864</end>
                                <in>4798</in>
                                <out>4864</out>
                            </clipitem>
                        </track>
                        <track>
                            <clipitem frameBlend="FALSE" id="clipitem-580">
                                <name></name>
                                <file id="file-2"/>
                                <rate>
                                    <timebase>60</timebase>
                                    <ntsc>TRUE</ntsc>
                                </rate>
                                <duration>60</duration>
                                <start>4810</start>
                                <end>4870</end>
                                <in>4810</in>
                                <out>4870</out>
                            </clipitem>
                        </track>
                        <track>
                            <clipitem frameBlend="FALSE" id="clipitem-581">
                                <name></name>
                                <file id="file-2"/>
                                <rate>
                                    <timebase>60</timebase>
                                    <ntsc>TRUE</ntsc>
                                </rate>
                                <duration>60</duration>
                                <start>4816</start>
                                <end>4876</end>
                                <in>4816</in>
                                <out>4876</out>
                            </clipitem>
                        </track>
                        <track>
                            <clipitem frameBlend="FALSE" id="clipitem-582">
                                <name></name>
                                <file id="file-2"/>
                                <rate>
                                    <timebase>60</timebase>
                                    <ntsc>TRUE</ntsc>
                                </rate>
                                <duration>60</duration>
                                <start>4822</start>
                                <end>4882</end>
                                <in>4822</in>
                                <out>4882</out>
                            </clipitem>
                        </track>
                        <track>
                            <clipitem frameBlend="FALSE" id="clipitem-583">
                                <name></name>
                                <file id="file-2"/>
                                <rate>
                                    <timebase>60</timebase>
                                    <ntsc>TRUE</ntsc>
                                </rate>
                                <duration>60</duration>
                                <start>4828</start>
                                <end>4888</end>
                                <in>4828</in>
                                <out>4888</out>
                            </clipitem>
                        </track>
                        <track>
                            <clipitem id="clipitem-583"/>
                        </track>
                        <track>
                            <clipitem frameBlend="FALSE" id="clipitem-584">
                                <name></name>
                                <file id="file-2"/>
                                <rate>
                                    <timebase>60</timebase>
                                    <ntsc>TRUE</ntsc>
                                </rate>
                                <duration>60</duration>
                                <start>4840</start>
                                <end>4900</end>
                                <in>4840</in>
                                <out>4900</out>
                            </clipitem>
                        </track>
                        <track>
                            <clipitem frameBlend="FALSE" id="clipitem-585">
                                <name></name>
                                <file id="file-2"/>
                                <rate>
                                    <timebase>60</timebase>
                                    <ntsc>TRUE</ntsc>
                                </rate>
                                <duration>60</duration>
                                <start>4846</start>
                                <end>4906</end>
                                <in>4846</in>
                                <out>4906</out>
                            </clipitem>
                        </track>
                        <track>
                            <clipitem frameBlend="FALSE" id="clipitem-586">
                                <name></name>
                                <file id="file-2"/>
                                <rate>
                                    <timebase>60</timebase>
                                    <ntsc>TRUE</ntsc>
                                </rate>
                                <duration>66</duration>
                                <start>4846</start>
                                <end>4912</end>
                                <in>4846</in>
                                <out>4912</out>
                            </clipitem>
                        </track>
                        <track>
                            <clipitem frameBlend="FALSE" id="clipitem-587">
                                <name></name>
                                <file id="file-2"/>
                                <rate>
                                    <timebase>60</timebase>
                                    <ntsc>TRUE</ntsc>
                                </rate>
                                <duration>66</duration>
                                <start>4864</start>
                                <end>4930</end>
                                <in>4864</in>
                                <out>4930</out>
                            </clipitem>
                        </track>
                        <track>
                            <clipitem frameBlend="FALSE" id="clipitem-588">
                                <name></name>
                                <file id="file-2"/>
                                <rate>
                                    <timebase>60</timebase>
                                    <ntsc>TRUE</ntsc>
                                </rate>
                                <duration>66</duration>
                                <start>4870</start>
                                <end>4936</end>
                                <in>4870</in>
                                <out>4936</out>
                            </clipitem>
                        </track>
                        <track>
                            <clipitem frameBlend="FALSE" id="clipitem-589">
                                <name></name>
                                <file id="file-2"/>
                                <rate>
                                    <timebase>60</timebase>
                                    <ntsc>TRUE</ntsc>
                                </rate>
                                <duration>60</duration>
                                <start>4888</start>
                                <end>4948</end>
                                <in>4888</in>
                                <out>4948</out>
                            </clipitem>
                        </track>
                        <track>
                            <clipitem frameBlend="FALSE" id="clipitem-590">
                                <name></name>
                                <file id="file-2"/>
                                <rate>
                                    <timebase>60</timebase>
                                    <ntsc>TRUE</ntsc>
                                </rate>
                                <duration>60</duration>
                                <start>4912</start>
                                <end>4972</end>
                                <in>4912</in>
                                <out>4972</out>
                            </clipitem>
                        </track>
                        <track>
                            <clipitem frameBlend="FALSE" id="clipitem-591">
                                <name></name>
                                <file id="file-2"/>
                                <rate>
                                    <timebase>60</timebase>
                                    <ntsc>TRUE</ntsc>
                                </rate>
                                <duration>60</duration>
                                <start>4918</start>
                                <end>4978</end>
                                <in>4918</in>
                                <out>4978</out>
                            </clipitem>
                        </track>
                        <track>
                            <clipitem frameBlend="FALSE" id="clipitem-592">
                                <name></name>
                                <file id="file-2"/>
                                <rate>
                                    <timebase>60</timebase>
                                    <ntsc>TRUE</ntsc>
                                </rate>
                                <duration>60</duration>
                                <start>4924</start>
                                <end>4984</end>
                                <in>4924</in>
                                <out>4984</out>
                            </clipitem>
                        </track>
                        <track>
                            <clipitem frameBlend="FALSE" id="clipitem-593">
                                <name></name>
                                <file id="file-2"/>
                                <rate>
                                    <timebase>60</timebase>
                                    <ntsc>TRUE</ntsc>
                                </rate>
                                <duration>60</duration>
                                <start>4930</start>
                                <end>4990</end>
                                <in>4930</in>
                                <out>4990</out>
                            </clipitem>
                        </track>
                        <track>
                            <clipitem frameBlend="FALSE" id="clipitem-594">
                                <name></name>
                                <file id="file-2"/>
                                <rate>
                                    <timebase>60</timebase>
                                    <ntsc>TRUE</ntsc>
                                </rate>
                                <duration>60</duration>
                                <start>4942</start>
                                <end>5002</end>
                                <in>4942</in>
                                <out>5002</out>
                            </clipitem>
                        </track>
                        <track>
                            <clipitem frameBlend="FALSE" id="clipitem-595">
                                <name></name>
                                <file id="file-2"/>
                                <rate>
                                    <timebase>60</timebase>
                                    <ntsc>TRUE</ntsc>
                                </rate>
                                <duration>60</duration>
                                <start>4966</start>
                                <end>5026</end>
                                <in>4966</in>
                                <out>5026</out>
                            </clipitem>
                        </track>
                        <track>
                            <clipitem frameBlend="FALSE" id="clipitem-596">
                                <name></name>
                                <file id="file-2"/>
                                <rate>
                                    <timebase>60</timebase>
                                    <ntsc>TRUE</ntsc>
                                </rate>
                                <duration>66</duration>
                                <start>4984</start>
                                <end>5050</end>
                                <in>4984</in>
                                <out>5050</out>
                            </clipitem>
                        </track>
                        <track>
                            <clipitem frameBlend="FALSE" id="clipitem-597">
                                <name></name>
                                <file id="file-2"/>
                                <rate>
                                    <timebase>60</timebase>
                                    <ntsc>TRUE</ntsc>
                                </rate>
                                <duration>60</duration>
                                <start>4990</start>
                                <end>5050</end>
                                <in>4990</in>
                                <out>5050</out>
                            </clipitem>
                        </track>
                        <track>
                            <clipitem frameBlend="FALSE" id="clipitem-598">
                                <name></name>
                                <file id="file-2"/>
                                <rate>
                                    <timebase>60</timebase>
                                    <ntsc>TRUE</ntsc>
                                </rate>
                                <duration>60</duration>
                                <start>4996</start>
                                <end>5056</end>
                                <in>4996</in>
                                <out>5056</out>
                            </clipitem>
                        </track>
                        <track>
                            <clipitem frameBlend="FALSE" id="clipitem-599">
                                <name></name>
                                <file id="file-2"/>
                                <rate>
                                    <timebase>60</timebase>
                                    <ntsc>TRUE</ntsc>
                                </rate>
                                <duration>60</duration>
                                <start>5008</start>
                                <end>5068</end>
                                <in>5008</in>
                                <out>5068</out>
                            </clipitem>
                        </track>
                        <track>
                            <clipitem frameBlend="FALSE" id="clipitem-600">
                                <name></name>
                                <file id="file-2"/>
                                <rate>
                                    <timebase>60</timebase>
                                    <ntsc>TRUE</ntsc>
                                </rate>
                                <duration>60</duration>
                                <start>5026</start>
                                <end>5086</end>
                                <in>5026</in>
                                <out>5086</out>
                            </clipitem>
                        </track>
                        <track>
                            <clipitem id="clipitem-600"/>
                        </track>
                        <track>
                            <clipitem frameBlend="FALSE" id="clipitem-601">
                                <name></name>
                                <file id="file-2"/>
                                <rate>
                                    <timebase>60</timebase>
                                    <ntsc>TRUE</ntsc>
                                </rate>
                                <duration>60</duration>
                                <start>5038</start>
                                <end>5098</end>
                                <in>5038</in>
                                <out>5098</out>
                            </clipitem>
                        </track>
                        <track>
                            <clipitem frameBlend="FALSE" id="clipitem-602">
                                <name></name>
                                <file id="file-2"/>
                                <rate>
                                    <timebase>60</timebase>
                                    <ntsc>TRUE</ntsc>
                                </rate>
                                <duration>60</duration>
                                <start>5044</start>
                                <end>5104</end>
                                <in>5044</in>
                                <out>5104</out>
                            </clipitem>
                        </track>
                        <track>
                            <clipitem id="clipitem-602"/>
                        </track>
                        <track>
                            <clipitem frameBlend="FALSE" id="clipitem-603">
                                <name></name>
                                <file id="file-2"/>
                                <rate>
                                    <timebase>60</timebase>
                                    <ntsc>TRUE</ntsc>
                                </rate>
                                <duration>66</duration>
                                <start>5050</start>
                                <end>5116</end>
                                <in>5050</in>
                                <out>5116</out>
                            </clipitem>
                        </track>
                        <track>
                            <clipitem frameBlend="FALSE" id="clipitem-604">
                                <name></name>
                                <file id="file-2"/>
                                <rate>
                                    <timebase>60</timebase>
                                    <ntsc>TRUE</ntsc>
                                </rate>
                                <duration>60</duration>
                                <start>5056</start>
                                <end>5116</end>
                                <in>5056</in>
                                <out>5116</out>
                            </clipitem>
                        </track>
                        <track>
                            <clipitem frameBlend="FALSE" id="clipitem-605">
                                <name></name>
                                <file id="file-2"/>
                                <rate>
                                    <timebase>60</timebase>
                                    <ntsc>TRUE</ntsc>
                                </rate>
                                <duration>60</duration>
                                <start>5092</start>
                                <end>5152</end>
                                <in>5092</in>
                                <out>5152</out>
                            </clipitem>
                        </track>
                        <track>
                            <clipitem frameBlend="FALSE" id="clipitem-606">
                                <name></name>
                                <file id="file-2"/>
                                <rate>
                                    <timebase>60</timebase>
                                    <ntsc>TRUE</ntsc>
                                </rate>
                                <duration>60</duration>
                                <start>5098</start>
                                <end>5158</end>
                                <in>5098</in>
                                <out>5158</out>
                            </clipitem>
                        </track>
                        <track>
                            <clipitem frameBlend="FALSE" id="clipitem-607">
                                <name></name>
                                <file id="file-2"/>
                                <rate>
                                    <timebase>60</timebase>
                                    <ntsc>TRUE</ntsc>
                                </rate>
                                <duration>60</duration>
                                <start>5104</start>
                                <end>5164</end>
                                <in>5104</in>
                                <out>5164</out>
                            </clipitem>
                        </track>
                        <track>
                            <clipitem id="clipitem-607"/>
                        </track>
                        <track>
                            <clipitem frameBlend="FALSE" id="clipitem-608">
                                <name></name>
                                <file id="file-2"/>
                                <rate>
                                    <timebase>60</timebase>
                                    <ntsc>TRUE</ntsc>
                                </rate>
                                <duration>66</duration>
                                <start>5110</start>
                                <end>5176</end>
                                <in>5110</in>
                                <out>5176</out>
                            </clipitem>
                        </track>
                        <track>
                            <clipitem frameBlend="FALSE" id="clipitem-609">
                                <name></name>
                                <file id="file-2"/>
                                <rate>
                                    <timebase>60</timebase>
                                    <ntsc>TRUE</ntsc>
                                </rate>
                                <duration>60</duration>
                                <start>5122</start>
                                <end>5182</end>
                                <in>5122</in>
                                <out>5182</out>
                            </clipitem>
                        </track>
                        <track>
                            <clipitem frameBlend="FALSE" id="clipitem-610">
                                <name></name>
                                <file id="file-2"/>
                                <rate>
                                    <timebase>60</timebase>
                                    <ntsc>TRUE</ntsc>
                                </rate>
                                <duration>60</duration>
                                <start>5128</start>
                                <end>5188</end>
                                <in>5128</in>
                                <out>5188</out>
                            </clipitem>
                        </track>
                        <track>
                            <clipitem frameBlend="FALSE" id="clipitem-611">
                                <name></name>
                                <file id="file-2"/>
                                <rate>
                                    <timebase>60</timebase>
                                    <ntsc>TRUE</ntsc>
                                </rate>
                                <duration>60</duration>
                                <start>5134</start>
                                <end>5194</end>
                                <in>5134</in>
                                <out>5194</out>
                            </clipitem>
                        </track>
                        <track>
                            <clipitem frameBlend="FALSE" id="clipitem-612">
                                <name></name>
                                <file id="file-2"/>
                                <rate>
                                    <timebase>60</timebase>
                                    <ntsc>TRUE</ntsc>
                                </rate>
                                <duration>66</duration>
                                <start>5140</start>
                                <end>5206</end>
                                <in>5140</in>
                                <out>5206</out>
                            </clipitem>
                        </track>
                        <track>
                            <clipitem frameBlend="FALSE" id="clipitem-613">
                                <name></name>
                                <file id="file-2"/>
                                <rate>
                                    <timebase>60</timebase>
                                    <ntsc>TRUE</ntsc>
                                </rate>
                                <duration>60</duration>
                                <start>5164</start>
                                <end>5224</end>
                                <in>5164</in>
                                <out>5224</out>
                            </clipitem>
                        </track>
                        <track>
                            <clipitem frameBlend="FALSE" id="clipitem-614">
                                <name></name>
                                <file id="file-2"/>
                                <rate>
                                    <timebase>60</timebase>
                                    <ntsc>TRUE</ntsc>
                                </rate>
                                <duration>60</duration>
                                <start>5182</start>
                                <end>5242</end>
                                <in>5182</in>
                                <out>5242</out>
                            </clipitem>
                        </track>
                        <track>
                            <clipitem id="clipitem-614"/>
                        </track>
                        <track>
                            <clipitem frameBlend="FALSE" id="clipitem-615">
                                <name></name>
                                <file id="file-2"/>
                                <rate>
                                    <timebase>60</timebase>
                                    <ntsc>TRUE</ntsc>
                                </rate>
                                <duration>60</duration>
                                <start>5200</start>
                                <end>5260</end>
                                <in>5200</in>
                                <out>5260</out>
                            </clipitem>
                        </track>
                        <track>
                            <clipitem frameBlend="FALSE" id="clipitem-616">
                                <name></name>
                                <file id="file-2"/>
                                <rate>
                                    <timebase>60</timebase>
                                    <ntsc>TRUE</ntsc>
                                </rate>
                                <duration>60</duration>
                                <start>5212</start>
                                <end>5272</end>
                                <in>5212</in>
                                <out>5272</out>
                            </clipitem>
                        </track>
                        <track>
                            <clipitem frameBlend="FALSE" id="clipitem-617">
                                <name></name>
                                <file id="file-2"/>
                                <rate>
                                    <timebase>60</timebase>
                                    <ntsc>TRUE</ntsc>
                                </rate>
                                <duration>60</duration>
                                <start>5236</start>
                                <end>5296</end>
                                <in>5236</in>
                                <out>5296</out>
                            </clipitem>
                        </track>
                        <track>
                            <clipitem frameBlend="FALSE" id="clipitem-618">
                                <name></name>
                                <file id="file-2"/>
                                <rate>
                                    <timebase>60</timebase>
                                    <ntsc>TRUE</ntsc>
                                </rate>
                                <duration>60</duration>
                                <start>5242</start>
                                <end>5302</end>
                                <in>5242</in>
                                <out>5302</out>
                            </clipitem>
                        </track>
                        <track>
                            <clipitem frameBlend="FALSE" id="clipitem-619">
                                <name></name>
                                <file id="file-2"/>
                                <rate>
                                    <timebase>60</timebase>
                                    <ntsc>TRUE</ntsc>
                                </rate>
                                <duration>60</duration>
                                <start>5254</start>
                                <end>5314</end>
                                <in>5254</in>
                                <out>5314</out>
                            </clipitem>
                        </track>
                        <track>
                            <clipitem frameBlend="FALSE" id="clipitem-620">
                                <name></name>
                                <file id="file-2"/>
                                <rate>
                                    <timebase>60</timebase>
                                    <ntsc>TRUE</ntsc>
                                </rate>
                                <duration>60</duration>
                                <start>5260</start>
                                <end>5320</end>
                                <in>5260</in>
                                <out>5320</out>
                            </clipitem>
                        </track>
                        <track>
                            <clipitem frameBlend="FALSE" id="clipitem-621">
                                <name></name>
                                <file id="file-2"/>
                                <rate>
                                    <timebase>60</timebase>
                                    <ntsc>TRUE</ntsc>
                                </rate>
                                <duration>60</duration>
                                <start>5266</start>
                                <end>5326</end>
                                <in>5266</in>
                                <out>5326</out>
                            </clipitem>
                        </track>
                        <track>
                            <clipitem frameBlend="FALSE" id="clipitem-622">
                                <name></name>
                                <file id="file-2"/>
                                <rate>
                                    <timebase>60</timebase>
                                    <ntsc>TRUE</ntsc>
                                </rate>
                                <duration>60</duration>
                                <start>5272</start>
                                <end>5332</end>
                                <in>5272</in>
                                <out>5332</out>
                            </clipitem>
                        </track>
                        <track>
                            <clipitem frameBlend="FALSE" id="clipitem-623">
                                <name></name>
                                <file id="file-2"/>
                                <rate>
                                    <timebase>60</timebase>
                                    <ntsc>TRUE</ntsc>
                                </rate>
                                <duration>60</duration>
                                <start>5278</start>
                                <end>5338</end>
                                <in>5278</in>
                                <out>5338</out>
                            </clipitem>
                        </track>
                        <track>
                            <clipitem frameBlend="FALSE" id="clipitem-624">
                                <name></name>
                                <file id="file-2"/>
                                <rate>
                                    <timebase>60</timebase>
                                    <ntsc>TRUE</ntsc>
                                </rate>
                                <duration>60</duration>
                                <start>5296</start>
                                <end>5356</end>
                                <in>5296</in>
                                <out>5356</out>
                            </clipitem>
                        </track>
                        <track>
                            <clipitem id="clipitem-624"/>
                        </track>
                        <track>
                            <clipitem frameBlend="FALSE" id="clipitem-625">
                                <name></name>
                                <file id="file-2"/>
                                <rate>
                                    <timebase>60</timebase>
                                    <ntsc>TRUE</ntsc>
                                </rate>
                                <duration>66</duration>
                                <start>5296</start>
                                <end>5362</end>
                                <in>5296</in>
                                <out>5362</out>
                            </clipitem>
                        </track>
                        <track>
                            <clipitem frameBlend="FALSE" id="clipitem-626">
                                <name></name>
                                <file id="file-2"/>
                                <rate>
                                    <timebase>60</timebase>
                                    <ntsc>TRUE</ntsc>
                                </rate>
                                <duration>60</duration>
                                <start>5302</start>
                                <end>5362</end>
                                <in>5302</in>
                                <out>5362</out>
                            </clipitem>
                        </track>
                        <track>
                            <clipitem frameBlend="FALSE" id="clipitem-627">
                                <name></name>
                                <file id="file-2"/>
                                <rate>
                                    <timebase>60</timebase>
                                    <ntsc>TRUE</ntsc>
                                </rate>
                                <duration>60</duration>
                                <start>5314</start>
                                <end>5374</end>
                                <in>5314</in>
                                <out>5374</out>
                            </clipitem>
                        </track>
                        <track>
                            <clipitem frameBlend="FALSE" id="clipitem-628">
                                <name></name>
                                <file id="file-2"/>
                                <rate>
                                    <timebase>60</timebase>
                                    <ntsc>TRUE</ntsc>
                                </rate>
                                <duration>60</duration>
                                <start>5320</start>
                                <end>5380</end>
                                <in>5320</in>
                                <out>5380</out>
                            </clipitem>
                        </track>
                        <track>
                            <clipitem frameBlend="FALSE" id="clipitem-629">
                                <name></name>
                                <file id="file-2"/>
                                <rate>
                                    <timebase>60</timebase>
                                    <ntsc>TRUE</ntsc>
                                </rate>
                                <duration>66</duration>
                                <start>5338</start>
                                <end>5404</end>
                                <in>5338</in>
                                <out>5404</out>
                            </clipitem>
                        </track>
                        <track>
                            <clipitem frameBlend="FALSE" id="clipitem-630">
                                <name></name>
                                <file id="file-2"/>
                                <rate>
                                    <timebase>60</timebase>
                                    <ntsc>TRUE</ntsc>
                                </rate>
                                <duration>60</duration>
                                <start>5350</start>
                                <end>5410</end>
                                <in>5350</in>
                                <out>5410</out>
                            </clipitem>
                        </track>
                        <track>
                            <clipitem frameBlend="FALSE" id="clipitem-631">
                                <name></name>
                                <file id="file-2"/>
                                <rate>
                                    <timebase>60</timebase>
                                    <ntsc>TRUE</ntsc>
                                </rate>
                                <duration>60</duration>
                                <start>5362</start>
                                <end>5422</end>
                                <in>5362</in>
                                <out>5422</out>
                            </clipitem>
                        </track>
                        <track>
                            <clipitem frameBlend="FALSE" id="clipitem-632">
                                <name></name>
                                <file id="file-2"/>
                                <rate>
                                    <timebase>60</timebase>
                                    <ntsc>TRUE</ntsc>
                                </rate>
                                <duration>60</duration>
                                <start>5398</start>
                                <end>5458</end>
                                <in>5398</in>
                                <out>5458</out>
                            </clipitem>
                        </track>
                        <track>
                            <clipitem frameBlend="FALSE" id="clipitem-633">
                                <name></name>
                                <file id="file-2"/>
                                <rate>
                                    <timebase>60</timebase>
                                    <ntsc>TRUE</ntsc>
                                </rate>
                                <duration>66</duration>
                                <start>5434</start>
                                <end>5500</end>
                                <in>5434</in>
                                <out>5500</out>
                            </clipitem>
                        </track>
                        <track>
                            <clipitem frameBlend="FALSE" id="clipitem-634">
                                <name></name>
                                <file id="file-2"/>
                                <rate>
                                    <timebase>60</timebase>
                                    <ntsc>TRUE</ntsc>
                                </rate>
                                <duration>60</duration>
                                <start>5440</start>
                                <end>5500</end>
                                <in>5440</in>
                                <out>5500</out>
                            </clipitem>
                        </track>
                        <track>
                            <clipitem frameBlend="FALSE" id="clipitem-635">
                                <name></name>
                                <file id="file-2"/>
                                <rate>
                                    <timebase>60</timebase>
                                    <ntsc>TRUE</ntsc>
                                </rate>
                                <duration>60</duration>
                                <start>5446</start>
                                <end>5506</end>
                                <in>5446</in>
                                <out>5506</out>
                            </clipitem>
                        </track>
                        <track>
                            <clipitem frameBlend="FALSE" id="clipitem-636">
                                <name></name>
                                <file id="file-2"/>
                                <rate>
                                    <timebase>60</timebase>
                                    <ntsc>TRUE</ntsc>
                                </rate>
                                <duration>60</duration>
                                <start>5500</start>
                                <end>5560</end>
                                <in>5500</in>
                                <out>5560</out>
                            </clipitem>
                        </track>
                        <track>
                            <clipitem id="clipitem-636"/>
                        </track>
                        <track>
                            <clipitem frameBlend="FALSE" id="clipitem-637">
                                <name></name>
                                <file id="file-2"/>
                                <rate>
                                    <timebase>60</timebase>
                                    <ntsc>TRUE</ntsc>
                                </rate>
                                <duration>66</duration>
                                <start>5500</start>
                                <end>5566</end>
                                <in>5500</in>
                                <out>5566</out>
                            </clipitem>
                        </track>
                        <track>
                            <clipitem frameBlend="FALSE" id="clipitem-638">
                                <name></name>
                                <file id="file-2"/>
                                <rate>
                                    <timebase>60</timebase>
                                    <ntsc>TRUE</ntsc>
                                </rate>
                                <duration>60</duration>
                                <start>5512</start>
                                <end>5572</end>
                                <in>5512</in>
                                <out>5572</out>
                            </clipitem>
                        </track>
                        <track>
                            <clipitem frameBlend="FALSE" id="clipitem-639">
                                <name></name>
                                <file id="file-2"/>
                                <rate>
                                    <timebase>60</timebase>
                                    <ntsc>TRUE</ntsc>
                                </rate>
                                <duration>66</duration>
                                <start>5512</start>
                                <end>5578</end>
                                <in>5512</in>
                                <out>5578</out>
                            </clipitem>
                        </track>
                        <track>
                            <clipitem frameBlend="FALSE" id="clipitem-640">
                                <name></name>
                                <file id="file-2"/>
                                <rate>
                                    <timebase>60</timebase>
                                    <ntsc>TRUE</ntsc>
                                </rate>
                                <duration>60</duration>
                                <start>5524</start>
                                <end>5584</end>
                                <in>5524</in>
                                <out>5584</out>
                            </clipitem>
                        </track>
                        <track>
                            <clipitem frameBlend="FALSE" id="clipitem-641">
                                <name></name>
                                <file id="file-2"/>
                                <rate>
                                    <timebase>60</timebase>
                                    <ntsc>TRUE</ntsc>
                                </rate>
                                <duration>60</duration>
                                <start>5530</start>
                                <end>5590</end>
                                <in>5530</in>
                                <out>5590</out>
                            </clipitem>
                        </track>
                        <track>
                            <clipitem frameBlend="FALSE" id="clipitem-642">
                                <name>w</name>
                                <file id="file-2"/>
                                <rate>
                                    <timebase>60</timebase>
                                    <ntsc>TRUE</ntsc>
                                </rate>
                                <duration>24</duration>
                                <start>5542</start>
                                <end>5566</end>
                                <in>5542</in>
                                <out>5566</out>
                            </clipitem>
                        </track>
                        <track>
                            <clipitem frameBlend="FALSE" id="clipitem-643">
                                <name></name>
                                <file id="file-2"/>
                                <rate>
                                    <timebase>60</timebase>
                                    <ntsc>TRUE</ntsc>
                                </rate>
                                <duration>60</duration>
                                <start>5542</start>
                                <end>5602</end>
                                <in>5542</in>
                                <out>5602</out>
                            </clipitem>
                        </track>
                        <track>
                            <clipitem frameBlend="FALSE" id="clipitem-644">
                                <name></name>
                                <file id="file-2"/>
                                <rate>
                                    <timebase>60</timebase>
                                    <ntsc>TRUE</ntsc>
                                </rate>
                                <duration>60</duration>
                                <start>5554</start>
                                <end>5614</end>
                                <in>5554</in>
                                <out>5614</out>
                            </clipitem>
                        </track>
                        <track>
                            <clipitem frameBlend="FALSE" id="clipitem-645">
                                <name>w</name>
                                <file id="file-2"/>
                                <rate>
                                    <timebase>60</timebase>
                                    <ntsc>TRUE</ntsc>
                                </rate>
                                <duration>30</duration>
                                <start>5554</start>
                                <end>5584</end>
                                <in>5554</in>
                                <out>5584</out>
                            </clipitem>
                        </track>
                        <track>
                            <clipitem frameBlend="FALSE" id="clipitem-646">
                                <name></name>
                                <file id="file-2"/>
                                <rate>
                                    <timebase>60</timebase>
                                    <ntsc>TRUE</ntsc>
                                </rate>
                                <duration>60</duration>
                                <start>5566</start>
                                <end>5626</end>
                                <in>5566</in>
                                <out>5626</out>
                            </clipitem>
                        </track>
                        <track>
                            <clipitem frameBlend="FALSE" id="clipitem-647">
                                <name>w</name>
                                <file id="file-2"/>
                                <rate>
                                    <timebase>60</timebase>
                                    <ntsc>TRUE</ntsc>
                                </rate>
                                <duration>30</duration>
                                <start>5566</start>
                                <end>5596</end>
                                <in>5566</in>
                                <out>5596</out>
                            </clipitem>
                        </track>
                        <track>
                            <clipitem frameBlend="FALSE" id="clipitem-648">
                                <name></name>
                                <file id="file-2"/>
                                <rate>
                                    <timebase>60</timebase>
                                    <ntsc>TRUE</ntsc>
                                </rate>
                                <duration>66</duration>
                                <start>5566</start>
                                <end>5632</end>
                                <in>5566</in>
                                <out>5632</out>
                            </clipitem>
                        </track>
                        <track>
                            <clipitem frameBlend="FALSE" id="clipitem-649">
                                <name></name>
                                <file id="file-2"/>
                                <rate>
                                    <timebase>60</timebase>
                                    <ntsc>TRUE</ntsc>
                                </rate>
                                <duration>66</duration>
                                <start>5572</start>
                                <end>5638</end>
                                <in>5572</in>
                                <out>5638</out>
                            </clipitem>
                        </track>
                        <track>
                            <clipitem frameBlend="FALSE" id="clipitem-650">
                                <name></name>
                                <file id="file-2"/>
                                <rate>
                                    <timebase>60</timebase>
                                    <ntsc>TRUE</ntsc>
                                </rate>
                                <duration>66</duration>
                                <start>5578</start>
                                <end>5644</end>
                                <in>5578</in>
                                <out>5644</out>
                            </clipitem>
                        </track>
                        <track>
                            <clipitem frameBlend="FALSE" id="clipitem-651">
                                <name>w</name>
                                <file id="file-2"/>
                                <rate>
                                    <timebase>60</timebase>
                                    <ntsc>TRUE</ntsc>
                                </rate>
                                <duration>24</duration>
                                <start>5584</start>
                                <end>5608</end>
                                <in>5584</in>
                                <out>5608</out>
                            </clipitem>
                        </track>
                        <track>
                            <clipitem frameBlend="FALSE" id="clipitem-652">
                                <name></name>
                                <file id="file-2"/>
                                <rate>
                                    <timebase>60</timebase>
                                    <ntsc>TRUE</ntsc>
                                </rate>
                                <duration>60</duration>
                                <start>5590</start>
                                <end>5650</end>
                                <in>5590</in>
                                <out>5650</out>
                            </clipitem>
                        </track>
                        <track>
                            <clipitem frameBlend="FALSE" id="clipitem-653">
                                <name></name>
                                <file id="file-2"/>
                                <rate>
                                    <timebase>60</timebase>
                                    <ntsc>TRUE</ntsc>
                                </rate>
                                <duration>60</duration>
                                <start>5596</start>
                                <end>5656</end>
                                <in>5596</in>
                                <out>5656</out>
                            </clipitem>
                        </track>
                        <track>
                            <clipitem frameBlend="FALSE" id="clipitem-654">
                                <name></name>
                                <file id="file-2"/>
                                <rate>
                                    <timebase>60</timebase>
                                    <ntsc>TRUE</ntsc>
                                </rate>
                                <duration>60</duration>
                                <start>5602</start>
                                <end>5662</end>
                                <in>5602</in>
                                <out>5662</out>
                            </clipitem>
                        </track>
                        <track>
                            <clipitem frameBlend="FALSE" id="clipitem-655">
                                <name></name>
                                <file id="file-2"/>
                                <rate>
                                    <timebase>60</timebase>
                                    <ntsc>TRUE</ntsc>
                                </rate>
                                <duration>60</duration>
                                <start>5614</start>
                                <end>5674</end>
                                <in>5614</in>
                                <out>5674</out>
                            </clipitem>
                        </track>
                        <track>
                            <clipitem frameBlend="FALSE" id="clipitem-656">
                                <name></name>
                                <file id="file-2"/>
                                <rate>
                                    <timebase>60</timebase>
                                    <ntsc>TRUE</ntsc>
                                </rate>
                                <duration>66</duration>
                                <start>5620</start>
                                <end>5686</end>
                                <in>5620</in>
                                <out>5686</out>
                            </clipitem>
                        </track>
                        <track>
                            <clipitem frameBlend="FALSE" id="clipitem-657">
                                <name></name>
                                <file id="file-2"/>
                                <rate>
                                    <timebase>60</timebase>
                                    <ntsc>TRUE</ntsc>
                                </rate>
                                <duration>60</duration>
                                <start>5626</start>
                                <end>5686</end>
                                <in>5626</in>
                                <out>5686</out>
                            </clipitem>
                        </track>
                        <track>
                            <clipitem frameBlend="FALSE" id="clipitem-658">
                                <name></name>
                                <file id="file-2"/>
                                <rate>
                                    <timebase>60</timebase>
                                    <ntsc>TRUE</ntsc>
                                </rate>
                                <duration>60</duration>
                                <start>5632</start>
                                <end>5692</end>
                                <in>5632</in>
                                <out>5692</out>
                            </clipitem>
                        </track>
                        <track>
                            <clipitem frameBlend="FALSE" id="clipitem-659">
                                <name></name>
                                <file id="file-2"/>
                                <rate>
                                    <timebase>60</timebase>
                                    <ntsc>TRUE</ntsc>
                                </rate>
                                <duration>66</duration>
                                <start>5638</start>
                                <end>5704</end>
                                <in>5638</in>
                                <out>5704</out>
                            </clipitem>
                        </track>
                        <track>
                            <clipitem frameBlend="FALSE" id="clipitem-660">
                                <name></name>
                                <file id="file-2"/>
                                <rate>
                                    <timebase>60</timebase>
                                    <ntsc>TRUE</ntsc>
                                </rate>
                                <duration>66</duration>
                                <start>5644</start>
                                <end>5710</end>
                                <in>5644</in>
                                <out>5710</out>
                            </clipitem>
                        </track>
                        <track>
                            <clipitem frameBlend="FALSE" id="clipitem-661">
                                <name></name>
                                <file id="file-2"/>
                                <rate>
                                    <timebase>60</timebase>
                                    <ntsc>TRUE</ntsc>
                                </rate>
                                <duration>60</duration>
                                <start>5650</start>
                                <end>5710</end>
                                <in>5650</in>
                                <out>5710</out>
                            </clipitem>
                        </track>
                        <track>
                            <clipitem frameBlend="FALSE" id="clipitem-662">
                                <name></name>
                                <file id="file-2"/>
                                <rate>
                                    <timebase>60</timebase>
                                    <ntsc>TRUE</ntsc>
                                </rate>
                                <duration>60</duration>
                                <start>5674</start>
                                <end>5734</end>
                                <in>5674</in>
                                <out>5734</out>
                            </clipitem>
                        </track>
                        <track>
                            <clipitem frameBlend="FALSE" id="clipitem-663">
                                <name></name>
                                <file id="file-2"/>
                                <rate>
                                    <timebase>60</timebase>
                                    <ntsc>TRUE</ntsc>
                                </rate>
                                <duration>60</duration>
                                <start>5698</start>
                                <end>5758</end>
                                <in>5698</in>
                                <out>5758</out>
                            </clipitem>
                        </track>
                        <track>
                            <clipitem frameBlend="FALSE" id="clipitem-664">
                                <name></name>
                                <file id="file-2"/>
                                <rate>
                                    <timebase>60</timebase>
                                    <ntsc>TRUE</ntsc>
                                </rate>
                                <duration>66</duration>
                                <start>5716</start>
                                <end>5782</end>
                                <in>5716</in>
                                <out>5782</out>
                            </clipitem>
                        </track>
                        <track>
                            <clipitem frameBlend="FALSE" id="clipitem-665">
                                <name></name>
                                <file id="file-2"/>
                                <rate>
                                    <timebase>60</timebase>
                                    <ntsc>TRUE</ntsc>
                                </rate>
                                <duration>60</duration>
                                <start>5728</start>
                                <end>5788</end>
                                <in>5728</in>
                                <out>5788</out>
                            </clipitem>
                        </track>
                        <track>
                            <clipitem frameBlend="FALSE" id="clipitem-666">
                                <name></name>
                                <file id="file-2"/>
                                <rate>
                                    <timebase>60</timebase>
                                    <ntsc>TRUE</ntsc>
                                </rate>
                                <duration>60</duration>
                                <start>5740</start>
                                <end>5800</end>
                                <in>5740</in>
                                <out>5800</out>
                            </clipitem>
                        </track>
                        <track>
                            <clipitem id="clipitem-666"/>
                        </track>
                        <track>
                            <clipitem frameBlend="FALSE" id="clipitem-667">
                                <name></name>
                                <file id="file-2"/>
                                <rate>
                                    <timebase>60</timebase>
                                    <ntsc>TRUE</ntsc>
                                </rate>
                                <duration>60</duration>
                                <start>5764</start>
                                <end>5824</end>
                                <in>5764</in>
                                <out>5824</out>
                            </clipitem>
                        </track>
                        <track>
                            <clipitem id="clipitem-667"/>
                        </track>
                        <track>
                            <clipitem frameBlend="FALSE" id="clipitem-668">
                                <name></name>
                                <file id="file-2"/>
                                <rate>
                                    <timebase>60</timebase>
                                    <ntsc>TRUE</ntsc>
                                </rate>
                                <duration>66</duration>
                                <start>5770</start>
                                <end>5836</end>
                                <in>5770</in>
                                <out>5836</out>
                            </clipitem>
                        </track>
                        <track>
                            <clipitem frameBlend="FALSE" id="clipitem-669">
                                <name></name>
                                <file id="file-2"/>
                                <rate>
                                    <timebase>60</timebase>
                                    <ntsc>TRUE</ntsc>
                                </rate>
                                <duration>60</duration>
                                <start>5782</start>
                                <end>5842</end>
                                <in>5782</in>
                                <out>5842</out>
                            </clipitem>
                        </track>
                        <track>
                            <clipitem frameBlend="FALSE" id="clipitem-670">
                                <name></name>
                                <file id="file-2"/>
                                <rate>
                                    <timebase>60</timebase>
                                    <ntsc>TRUE</ntsc>
                                </rate>
                                <duration>60</duration>
                                <start>5788</start>
                                <end>5848</end>
                                <in>5788</in>
                                <out>5848</out>
                            </clipitem>
                        </track>
                        <track>
                            <clipitem id="clipitem-670"/>
                        </track>
                        <track>
                            <clipitem frameBlend="FALSE" id="clipitem-671">
                                <name></name>
                                <file id="file-2"/>
                                <rate>
                                    <timebase>60</timebase>
                                    <ntsc>TRUE</ntsc>
                                </rate>
                                <duration>60</duration>
                                <start>5794</start>
                                <end>5854</end>
                                <in>5794</in>
                                <out>5854</out>
                            </clipitem>
                        </track>
                        <track>
                            <clipitem frameBlend="FALSE" id="clipitem-672">
                                <name></name>
                                <file id="file-2"/>
                                <rate>
                                    <timebase>60</timebase>
                                    <ntsc>TRUE</ntsc>
                                </rate>
                                <duration>60</duration>
                                <start>5800</start>
                                <end>5860</end>
                                <in>5800</in>
                                <out>5860</out>
                            </clipitem>
                        </track>
                        <track>
                            <clipitem frameBlend="FALSE" id="clipitem-673">
                                <name></name>
                                <file id="file-2"/>
                                <rate>
                                    <timebase>60</timebase>
                                    <ntsc>TRUE</ntsc>
                                </rate>
                                <duration>60</duration>
                                <start>5806</start>
                                <end>5866</end>
                                <in>5806</in>
                                <out>5866</out>
                            </clipitem>
                        </track>
                        <track>
                            <clipitem frameBlend="FALSE" id="clipitem-674">
                                <name></name>
                                <file id="file-2"/>
                                <rate>
                                    <timebase>60</timebase>
                                    <ntsc>TRUE</ntsc>
                                </rate>
                                <duration>66</duration>
                                <start>5806</start>
                                <end>5872</end>
                                <in>5806</in>
                                <out>5872</out>
                            </clipitem>
                        </track>
                        <track>
                            <clipitem frameBlend="FALSE" id="clipitem-675">
                                <name></name>
                                <file id="file-2"/>
                                <rate>
                                    <timebase>60</timebase>
                                    <ntsc>TRUE</ntsc>
                                </rate>
                                <duration>60</duration>
                                <start>5812</start>
                                <end>5872</end>
                                <in>5812</in>
                                <out>5872</out>
                            </clipitem>
                        </track>
                        <track>
                            <clipitem frameBlend="FALSE" id="clipitem-676">
                                <name></name>
                                <file id="file-2"/>
                                <rate>
                                    <timebase>60</timebase>
                                    <ntsc>TRUE</ntsc>
                                </rate>
                                <duration>60</duration>
                                <start>5818</start>
                                <end>5878</end>
                                <in>5818</in>
                                <out>5878</out>
                            </clipitem>
                        </track>
                        <track>
                            <clipitem id="clipitem-676"/>
                        </track>
                        <track>
                            <clipitem frameBlend="FALSE" id="clipitem-677">
                                <name></name>
                                <file id="file-2"/>
                                <rate>
                                    <timebase>60</timebase>
                                    <ntsc>TRUE</ntsc>
                                </rate>
                                <duration>60</duration>
                                <start>5830</start>
                                <end>5890</end>
                                <in>5830</in>
                                <out>5890</out>
                            </clipitem>
                        </track>
                        <track>
                            <clipitem frameBlend="FALSE" id="clipitem-678">
                                <name></name>
                                <file id="file-2"/>
                                <rate>
                                    <timebase>60</timebase>
                                    <ntsc>TRUE</ntsc>
                                </rate>
                                <duration>66</duration>
                                <start>5830</start>
                                <end>5896</end>
                                <in>5830</in>
                                <out>5896</out>
                            </clipitem>
                        </track>
                        <track>
                            <clipitem frameBlend="FALSE" id="clipitem-679">
                                <name></name>
                                <file id="file-2"/>
                                <rate>
                                    <timebase>60</timebase>
                                    <ntsc>TRUE</ntsc>
                                </rate>
                                <duration>66</duration>
                                <start>5860</start>
                                <end>5926</end>
                                <in>5860</in>
                                <out>5926</out>
                            </clipitem>
                        </track>
                        <track>
                            <clipitem frameBlend="FALSE" id="clipitem-680">
                                <name></name>
                                <file id="file-2"/>
                                <rate>
                                    <timebase>60</timebase>
                                    <ntsc>TRUE</ntsc>
                                </rate>
                                <duration>60</duration>
                                <start>5896</start>
                                <end>5956</end>
                                <in>5896</in>
                                <out>5956</out>
                            </clipitem>
                        </track>
                        <track>
                            <clipitem id="clipitem-680"/>
                        </track>
                        <track>
                            <clipitem frameBlend="FALSE" id="clipitem-681">
                                <name></name>
                                <file id="file-2"/>
                                <rate>
                                    <timebase>60</timebase>
                                    <ntsc>TRUE</ntsc>
                                </rate>
                                <duration>60</duration>
                                <start>5902</start>
                                <end>5962</end>
                                <in>5902</in>
                                <out>5962</out>
                            </clipitem>
                        </track>
                        <track>
                            <clipitem frameBlend="FALSE" id="clipitem-682">
                                <name></name>
                                <file id="file-2"/>
                                <rate>
                                    <timebase>60</timebase>
                                    <ntsc>TRUE</ntsc>
                                </rate>
                                <duration>66</duration>
                                <start>5902</start>
                                <end>5968</end>
                                <in>5902</in>
                                <out>5968</out>
                            </clipitem>
                        </track>
                        <track>
                            <clipitem frameBlend="FALSE" id="clipitem-683">
                                <name></name>
                                <file id="file-2"/>
                                <rate>
                                    <timebase>60</timebase>
                                    <ntsc>TRUE</ntsc>
                                </rate>
                                <duration>60</duration>
                                <start>5920</start>
                                <end>5980</end>
                                <in>5920</in>
                                <out>5980</out>
                            </clipitem>
                        </track>
                        <track>
                            <clipitem frameBlend="FALSE" id="clipitem-684">
                                <name></name>
                                <file id="file-2"/>
                                <rate>
                                    <timebase>60</timebase>
                                    <ntsc>TRUE</ntsc>
                                </rate>
                                <duration>60</duration>
                                <start>5932</start>
                                <end>5992</end>
                                <in>5932</in>
                                <out>5992</out>
                            </clipitem>
                        </track>
                        <track>
                            <clipitem frameBlend="FALSE" id="clipitem-685">
                                <name></name>
                                <file id="file-2"/>
                                <rate>
                                    <timebase>60</timebase>
                                    <ntsc>TRUE</ntsc>
                                </rate>
                                <duration>66</duration>
                                <start>5938</start>
                                <end>6004</end>
                                <in>5938</in>
                                <out>6004</out>
                            </clipitem>
                        </track>
                        <track>
                            <clipitem frameBlend="FALSE" id="clipitem-686">
                                <name></name>
                                <file id="file-2"/>
                                <rate>
                                    <timebase>60</timebase>
                                    <ntsc>TRUE</ntsc>
                                </rate>
                                <duration>66</duration>
                                <start>5944</start>
                                <end>6010</end>
                                <in>5944</in>
                                <out>6010</out>
                            </clipitem>
                        </track>
                        <track>
                            <clipitem frameBlend="FALSE" id="clipitem-687">
                                <name></name>
                                <file id="file-2"/>
                                <rate>
                                    <timebase>60</timebase>
                                    <ntsc>TRUE</ntsc>
                                </rate>
                                <duration>60</duration>
                                <start>5968</start>
                                <end>6028</end>
                                <in>5968</in>
                                <out>6028</out>
                            </clipitem>
                        </track>
                        <track>
                            <clipitem frameBlend="FALSE" id="clipitem-688">
                                <name></name>
                                <file id="file-2"/>
                                <rate>
                                    <timebase>60</timebase>
                                    <ntsc>TRUE</ntsc>
                                </rate>
                                <duration>60</duration>
                                <start>5980</start>
                                <end>6040</end>
                                <in>5980</in>
                                <out>6040</out>
                            </clipitem>
                        </track>
                        <track>
                            <clipitem frameBlend="FALSE" id="clipitem-689">
                                <name></name>
                                <file id="file-2"/>
                                <rate>
                                    <timebase>60</timebase>
                                    <ntsc>TRUE</ntsc>
                                </rate>
                                <duration>60</duration>
                                <start>5986</start>
                                <end>6046</end>
                                <in>5986</in>
                                <out>6046</out>
                            </clipitem>
                        </track>
                        <track>
                            <clipitem frameBlend="FALSE" id="clipitem-690">
                                <name></name>
                                <file id="file-2"/>
                                <rate>
                                    <timebase>60</timebase>
                                    <ntsc>TRUE</ntsc>
                                </rate>
                                <duration>60</duration>
                                <start>5992</start>
                                <end>6052</end>
                                <in>5992</in>
                                <out>6052</out>
                            </clipitem>
                        </track>
                        <track>
                            <clipitem id="clipitem-690"/>
                        </track>
                        <track>
                            <clipitem frameBlend="FALSE" id="clipitem-691">
                                <name></name>
                                <file id="file-2"/>
                                <rate>
                                    <timebase>60</timebase>
                                    <ntsc>TRUE</ntsc>
                                </rate>
                                <duration>60</duration>
                                <start>6010</start>
                                <end>6070</end>
                                <in>6010</in>
                                <out>6070</out>
                            </clipitem>
                        </track>
                        <track>
                            <clipitem frameBlend="FALSE" id="clipitem-692">
                                <name></name>
                                <file id="file-2"/>
                                <rate>
                                    <timebase>60</timebase>
                                    <ntsc>TRUE</ntsc>
                                </rate>
                                <duration>60</duration>
                                <start>6016</start>
                                <end>6076</end>
                                <in>6016</in>
                                <out>6076</out>
                            </clipitem>
                        </track>
                        <track>
                            <clipitem frameBlend="FALSE" id="clipitem-693">
                                <name></name>
                                <file id="file-2"/>
                                <rate>
                                    <timebase>60</timebase>
                                    <ntsc>TRUE</ntsc>
                                </rate>
                                <duration>66</duration>
                                <start>6016</start>
                                <end>6082</end>
                                <in>6016</in>
                                <out>6082</out>
                            </clipitem>
                        </track>
                        <track>
                            <clipitem frameBlend="FALSE" id="clipitem-694">
                                <name></name>
                                <file id="file-2"/>
                                <rate>
                                    <timebase>60</timebase>
                                    <ntsc>TRUE</ntsc>
                                </rate>
                                <duration>66</duration>
                                <start>6028</start>
                                <end>6094</end>
                                <in>6028</in>
                                <out>6094</out>
                            </clipitem>
                        </track>
                        <track>
                            <clipitem frameBlend="FALSE" id="clipitem-695">
                                <name></name>
                                <file id="file-2"/>
                                <rate>
                                    <timebase>60</timebase>
                                    <ntsc>TRUE</ntsc>
                                </rate>
                                <duration>60</duration>
                                <start>6034</start>
                                <end>6094</end>
                                <in>6034</in>
                                <out>6094</out>
                            </clipitem>
                        </track>
                        <track>
                            <clipitem frameBlend="FALSE" id="clipitem-696">
                                <name></name>
                                <file id="file-2"/>
                                <rate>
                                    <timebase>60</timebase>
                                    <ntsc>TRUE</ntsc>
                                </rate>
                                <duration>60</duration>
                                <start>6040</start>
                                <end>6100</end>
                                <in>6040</in>
                                <out>6100</out>
                            </clipitem>
                        </track>
                        <track>
                            <clipitem frameBlend="FALSE" id="clipitem-697">
                                <name></name>
                                <file id="file-2"/>
                                <rate>
                                    <timebase>60</timebase>
                                    <ntsc>TRUE</ntsc>
                                </rate>
                                <duration>60</duration>
                                <start>6058</start>
                                <end>6118</end>
                                <in>6058</in>
                                <out>6118</out>
                            </clipitem>
                        </track>
                        <track>
                            <clipitem frameBlend="FALSE" id="clipitem-698">
                                <name></name>
                                <file id="file-2"/>
                                <rate>
                                    <timebase>60</timebase>
                                    <ntsc>TRUE</ntsc>
                                </rate>
                                <duration>60</duration>
                                <start>6076</start>
                                <end>6136</end>
                                <in>6076</in>
                                <out>6136</out>
                            </clipitem>
                        </track>
                        <track>
                            <clipitem frameBlend="FALSE" id="clipitem-699">
                                <name></name>
                                <file id="file-2"/>
                                <rate>
                                    <timebase>60</timebase>
                                    <ntsc>TRUE</ntsc>
                                </rate>
                                <duration>60</duration>
                                <start>6088</start>
                                <end>6148</end>
                                <in>6088</in>
                                <out>6148</out>
                            </clipitem>
                        </track>
                        <track>
                            <clipitem id="clipitem-699"/>
                        </track>
                        <track>
                            <clipitem frameBlend="FALSE" id="clipitem-700">
                                <name></name>
                                <file id="file-2"/>
                                <rate>
                                    <timebase>60</timebase>
                                    <ntsc>TRUE</ntsc>
                                </rate>
                                <duration>66</duration>
                                <start>6088</start>
                                <end>6154</end>
                                <in>6088</in>
                                <out>6154</out>
                            </clipitem>
                        </track>
                        <track>
                            <clipitem frameBlend="FALSE" id="clipitem-701">
                                <name></name>
                                <file id="file-2"/>
                                <rate>
                                    <timebase>60</timebase>
                                    <ntsc>TRUE</ntsc>
                                </rate>
                                <duration>60</duration>
                                <start>6100</start>
                                <end>6160</end>
                                <in>6100</in>
                                <out>6160</out>
                            </clipitem>
                        </track>
                        <track>
                            <clipitem frameBlend="FALSE" id="clipitem-702">
                                <name></name>
                                <file id="file-2"/>
                                <rate>
                                    <timebase>60</timebase>
                                    <ntsc>TRUE</ntsc>
                                </rate>
                                <duration>60</duration>
                                <start>6106</start>
                                <end>6166</end>
                                <in>6106</in>
                                <out>6166</out>
                            </clipitem>
                        </track>
                        <track>
                            <clipitem frameBlend="FALSE" id="clipitem-703">
                                <name></name>
                                <file id="file-2"/>
                                <rate>
                                    <timebase>60</timebase>
                                    <ntsc>TRUE</ntsc>
                                </rate>
                                <duration>66</duration>
                                <start>6112</start>
                                <end>6178</end>
                                <in>6112</in>
                                <out>6178</out>
                            </clipitem>
                        </track>
                        <track>
                            <clipitem frameBlend="FALSE" id="clipitem-704">
                                <name></name>
                                <file id="file-2"/>
                                <rate>
                                    <timebase>60</timebase>
                                    <ntsc>TRUE</ntsc>
                                </rate>
                                <duration>60</duration>
                                <start>6124</start>
                                <end>6184</end>
                                <in>6124</in>
                                <out>6184</out>
                            </clipitem>
                        </track>
                        <track>
                            <clipitem frameBlend="FALSE" id="clipitem-705">
                                <name></name>
                                <file id="file-2"/>
                                <rate>
                                    <timebase>60</timebase>
                                    <ntsc>TRUE</ntsc>
                                </rate>
                                <duration>60</duration>
                                <start>6130</start>
                                <end>6190</end>
                                <in>6130</in>
                                <out>6190</out>
                            </clipitem>
                        </track>
                        <track>
                            <clipitem frameBlend="FALSE" id="clipitem-706">
                                <name></name>
                                <file id="file-2"/>
                                <rate>
                                    <timebase>60</timebase>
                                    <ntsc>TRUE</ntsc>
                                </rate>
                                <duration>60</duration>
                                <start>6142</start>
                                <end>6202</end>
                                <in>6142</in>
                                <out>6202</out>
                            </clipitem>
                        </track>
                        <track>
                            <clipitem frameBlend="FALSE" id="clipitem-707">
                                <name></name>
                                <file id="file-2"/>
                                <rate>
                                    <timebase>60</timebase>
                                    <ntsc>TRUE</ntsc>
                                </rate>
                                <duration>60</duration>
                                <start>6154</start>
                                <end>6214</end>
                                <in>6154</in>
                                <out>6214</out>
                            </clipitem>
                        </track>
                        <track>
                            <clipitem frameBlend="FALSE" id="clipitem-708">
                                <name></name>
                                <file id="file-2"/>
                                <rate>
                                    <timebase>60</timebase>
                                    <ntsc>TRUE</ntsc>
                                </rate>
                                <duration>60</duration>
                                <start>6166</start>
                                <end>6226</end>
                                <in>6166</in>
                                <out>6226</out>
                            </clipitem>
                        </track>
                        <track>
                            <clipitem frameBlend="FALSE" id="clipitem-709">
                                <name></name>
                                <file id="file-2"/>
                                <rate>
                                    <timebase>60</timebase>
                                    <ntsc>TRUE</ntsc>
                                </rate>
                                <duration>60</duration>
                                <start>6172</start>
                                <end>6232</end>
                                <in>6172</in>
                                <out>6232</out>
                            </clipitem>
                        </track>
                        <track>
                            <clipitem frameBlend="FALSE" id="clipitem-710">
                                <name></name>
                                <file id="file-2"/>
                                <rate>
                                    <timebase>60</timebase>
                                    <ntsc>TRUE</ntsc>
                                </rate>
                                <duration>66</duration>
                                <start>6172</start>
                                <end>6238</end>
                                <in>6172</in>
                                <out>6238</out>
                            </clipitem>
                        </track>
                        <track>
                            <clipitem frameBlend="FALSE" id="clipitem-711">
                                <name></name>
                                <file id="file-2"/>
                                <rate>
                                    <timebase>60</timebase>
                                    <ntsc>TRUE</ntsc>
                                </rate>
                                <duration>66</duration>
                                <start>6178</start>
                                <end>6244</end>
                                <in>6178</in>
                                <out>6244</out>
                            </clipitem>
                        </track>
                        <track>
                            <clipitem frameBlend="FALSE" id="clipitem-712">
                                <name></name>
                                <file id="file-2"/>
                                <rate>
                                    <timebase>60</timebase>
                                    <ntsc>TRUE</ntsc>
                                </rate>
                                <duration>60</duration>
                                <start>6190</start>
                                <end>6250</end>
                                <in>6190</in>
                                <out>6250</out>
                            </clipitem>
                        </track>
                        <track>
                            <clipitem frameBlend="FALSE" id="clipitem-713">
                                <name></name>
                                <file id="file-2"/>
                                <rate>
                                    <timebase>60</timebase>
                                    <ntsc>TRUE</ntsc>
                                </rate>
                                <duration>60</duration>
                                <start>6208</start>
                                <end>6268</end>
                                <in>6208</in>
                                <out>6268</out>
                            </clipitem>
                        </track>
                        <track>
                            <clipitem frameBlend="FALSE" id="clipitem-714">
                                <name></name>
                                <file id="file-2"/>
                                <rate>
                                    <timebase>60</timebase>
                                    <ntsc>TRUE</ntsc>
                                </rate>
                                <duration>60</duration>
                                <start>6220</start>
                                <end>6280</end>
                                <in>6220</in>
                                <out>6280</out>
                            </clipitem>
                        </track>
                        <track>
                            <clipitem frameBlend="FALSE" id="clipitem-715">
                                <name></name>
                                <file id="file-2"/>
                                <rate>
                                    <timebase>60</timebase>
                                    <ntsc>TRUE</ntsc>
                                </rate>
                                <duration>60</duration>
                                <start>6226</start>
                                <end>6286</end>
                                <in>6226</in>
                                <out>6286</out>
                            </clipitem>
                        </track>
                        <track>
                            <clipitem frameBlend="FALSE" id="clipitem-716">
                                <name></name>
                                <file id="file-2"/>
                                <rate>
                                    <timebase>60</timebase>
                                    <ntsc>TRUE</ntsc>
                                </rate>
                                <duration>60</duration>
                                <start>6232</start>
                                <end>6292</end>
                                <in>6232</in>
                                <out>6292</out>
                            </clipitem>
                        </track>
                        <track>
                            <clipitem id="clipitem-716"/>
                        </track>
                        <track>
                            <clipitem frameBlend="FALSE" id="clipitem-717">
                                <name>w</name>
                                <file id="file-2"/>
                                <rate>
                                    <timebase>60</timebase>
                                    <ntsc>TRUE</ntsc>
                                </rate>
                                <duration>24</duration>
                                <start>6238</start>
                                <end>6262</end>
                                <in>6238</in>
                                <out>6262</out>
                            </clipitem>
                        </track>
                        <track>
                            <clipitem frameBlend="FALSE" id="clipitem-718">
                                <name></name>
                                <file id="file-2"/>
                                <rate>
                                    <timebase>60</timebase>
                                    <ntsc>TRUE</ntsc>
                                </rate>
                                <duration>66</duration>
                                <start>6238</start>
                                <end>6304</end>
                                <in>6238</in>
                                <out>6304</out>
                            </clipitem>
                        </track>
                        <track>
                            <clipitem frameBlend="FALSE" id="clipitem-719">
                                <name></name>
                                <file id="file-2"/>
                                <rate>
                                    <timebase>60</timebase>
                                    <ntsc>TRUE</ntsc>
                                </rate>
                                <duration>60</duration>
                                <start>6244</start>
                                <end>6304</end>
                                <in>6244</in>
                                <out>6304</out>
                            </clipitem>
                        </track>
                        <track>
                            <clipitem frameBlend="FALSE" id="clipitem-720">
                                <name></name>
                                <file id="file-2"/>
                                <rate>
                                    <timebase>60</timebase>
                                    <ntsc>TRUE</ntsc>
                                </rate>
                                <duration>60</duration>
                                <start>6268</start>
                                <end>6328</end>
                                <in>6268</in>
                                <out>6328</out>
                            </clipitem>
                        </track>
                        <track>
                            <clipitem frameBlend="FALSE" id="clipitem-721">
                                <name></name>
                                <file id="file-2"/>
                                <rate>
                                    <timebase>60</timebase>
                                    <ntsc>TRUE</ntsc>
                                </rate>
                                <duration>60</duration>
                                <start>6274</start>
                                <end>6334</end>
                                <in>6274</in>
                                <out>6334</out>
                            </clipitem>
                        </track>
                        <track>
                            <clipitem frameBlend="FALSE" id="clipitem-722">
                                <name></name>
                                <file id="file-2"/>
                                <rate>
                                    <timebase>60</timebase>
                                    <ntsc>TRUE</ntsc>
                                </rate>
                                <duration>60</duration>
                                <start>6280</start>
                                <end>6340</end>
                                <in>6280</in>
                                <out>6340</out>
                            </clipitem>
                        </track>
                        <track>
                            <clipitem id="clipitem-722"/>
                        </track>
                        <track>
                            <clipitem frameBlend="FALSE" id="clipitem-723">
                                <name></name>
                                <file id="file-2"/>
                                <rate>
                                    <timebase>60</timebase>
                                    <ntsc>TRUE</ntsc>
                                </rate>
                                <duration>60</duration>
                                <start>6286</start>
                                <end>6346</end>
                                <in>6286</in>
                                <out>6346</out>
                            </clipitem>
                        </track>
                        <track>
                            <clipitem frameBlend="FALSE" id="clipitem-724">
                                <name></name>
                                <file id="file-2"/>
                                <rate>
                                    <timebase>60</timebase>
                                    <ntsc>TRUE</ntsc>
                                </rate>
                                <duration>66</duration>
                                <start>6292</start>
                                <end>6358</end>
                                <in>6292</in>
                                <out>6358</out>
                            </clipitem>
                        </track>
                        <track>
                            <clipitem frameBlend="FALSE" id="clipitem-725">
                                <name></name>
                                <file id="file-2"/>
                                <rate>
                                    <timebase>60</timebase>
                                    <ntsc>TRUE</ntsc>
                                </rate>
                                <duration>60</duration>
                                <start>6298</start>
                                <end>6358</end>
                                <in>6298</in>
                                <out>6358</out>
                            </clipitem>
                        </track>
                        <track>
                            <clipitem id="clipitem-725"/>
                        </track>
                        <track>
                            <clipitem frameBlend="FALSE" id="clipitem-726">
                                <name></name>
                                <file id="file-2"/>
                                <rate>
                                    <timebase>60</timebase>
                                    <ntsc>TRUE</ntsc>
                                </rate>
                                <duration>66</duration>
                                <start>6304</start>
                                <end>6370</end>
                                <in>6304</in>
                                <out>6370</out>
                            </clipitem>
                        </track>
                        <track>
                            <clipitem frameBlend="FALSE" id="clipitem-727">
                                <name></name>
                                <file id="file-2"/>
                                <rate>
                                    <timebase>60</timebase>
                                    <ntsc>TRUE</ntsc>
                                </rate>
                                <duration>60</duration>
                                <start>6322</start>
                                <end>6382</end>
                                <in>6322</in>
                                <out>6382</out>
                            </clipitem>
                        </track>
                        <track>
                            <clipitem frameBlend="FALSE" id="clipitem-728">
                                <name></name>
                                <file id="file-2"/>
                                <rate>
                                    <timebase>60</timebase>
                                    <ntsc>TRUE</ntsc>
                                </rate>
                                <duration>60</duration>
                                <start>6334</start>
                                <end>6394</end>
                                <in>6334</in>
                                <out>6394</out>
                            </clipitem>
                        </track>
                        <track>
                            <clipitem frameBlend="FALSE" id="clipitem-729">
                                <name></name>
                                <file id="file-2"/>
                                <rate>
                                    <timebase>60</timebase>
                                    <ntsc>TRUE</ntsc>
                                </rate>
                                <duration>60</duration>
                                <start>6340</start>
                                <end>6400</end>
                                <in>6340</in>
                                <out>6400</out>
                            </clipitem>
                        </track>
                        <track>
                            <clipitem id="clipitem-729"/>
                        </track>
                        <track>
                            <clipitem frameBlend="FALSE" id="clipitem-730">
                                <name></name>
                                <file id="file-2"/>
                                <rate>
                                    <timebase>60</timebase>
                                    <ntsc>TRUE</ntsc>
                                </rate>
                                <duration>60</duration>
                                <start>6352</start>
                                <end>6412</end>
                                <in>6352</in>
                                <out>6412</out>
                            </clipitem>
                        </track>
                        <track>
                            <clipitem frameBlend="FALSE" id="clipitem-731">
                                <name></name>
                                <file id="file-2"/>
                                <rate>
                                    <timebase>60</timebase>
                                    <ntsc>TRUE</ntsc>
                                </rate>
                                <duration>60</duration>
                                <start>6358</start>
                                <end>6418</end>
                                <in>6358</in>
                                <out>6418</out>
                            </clipitem>
                        </track>
                        <track>
                            <clipitem frameBlend="FALSE" id="clipitem-732">
                                <name></name>
                                <file id="file-2"/>
                                <rate>
                                    <timebase>60</timebase>
                                    <ntsc>TRUE</ntsc>
                                </rate>
                                <duration>60</duration>
                                <start>6370</start>
                                <end>6430</end>
                                <in>6370</in>
                                <out>6430</out>
                            </clipitem>
                        </track>
                        <track>
                            <clipitem id="clipitem-732"/>
                        </track>
                        <track>
                            <clipitem frameBlend="FALSE" id="clipitem-733">
                                <name></name>
                                <file id="file-2"/>
                                <rate>
                                    <timebase>60</timebase>
                                    <ntsc>TRUE</ntsc>
                                </rate>
                                <duration>66</duration>
                                <start>6370</start>
                                <end>6436</end>
                                <in>6370</in>
                                <out>6436</out>
                            </clipitem>
                        </track>
                        <track>
                            <clipitem frameBlend="FALSE" id="clipitem-734">
                                <name></name>
                                <file id="file-2"/>
                                <rate>
                                    <timebase>60</timebase>
                                    <ntsc>TRUE</ntsc>
                                </rate>
                                <duration>60</duration>
                                <start>6388</start>
                                <end>6448</end>
                                <in>6388</in>
                                <out>6448</out>
                            </clipitem>
                        </track>
                        <track>
                            <clipitem frameBlend="FALSE" id="clipitem-735">
                                <name></name>
                                <file id="file-2"/>
                                <rate>
                                    <timebase>60</timebase>
                                    <ntsc>TRUE</ntsc>
                                </rate>
                                <duration>60</duration>
                                <start>6394</start>
                                <end>6454</end>
                                <in>6394</in>
                                <out>6454</out>
                            </clipitem>
                        </track>
                        <track>
                            <clipitem frameBlend="FALSE" id="clipitem-736">
                                <name></name>
                                <file id="file-2"/>
                                <rate>
                                    <timebase>60</timebase>
                                    <ntsc>TRUE</ntsc>
                                </rate>
                                <duration>60</duration>
                                <start>6400</start>
                                <end>6460</end>
                                <in>6400</in>
                                <out>6460</out>
                            </clipitem>
                        </track>
                        <track>
                            <clipitem frameBlend="FALSE" id="clipitem-737">
                                <name></name>
                                <file id="file-2"/>
                                <rate>
                                    <timebase>60</timebase>
                                    <ntsc>TRUE</ntsc>
                                </rate>
                                <duration>66</duration>
                                <start>6412</start>
                                <end>6478</end>
                                <in>6412</in>
                                <out>6478</out>
                            </clipitem>
                        </track>
                        <track>
                            <clipitem frameBlend="FALSE" id="clipitem-738">
                                <name></name>
                                <file id="file-2"/>
                                <rate>
                                    <timebase>60</timebase>
                                    <ntsc>TRUE</ntsc>
                                </rate>
                                <duration>66</duration>
                                <start>6442</start>
                                <end>6508</end>
                                <in>6442</in>
                                <out>6508</out>
                            </clipitem>
                        </track>
                        <track>
                            <clipitem frameBlend="FALSE" id="clipitem-739">
                                <name></name>
                                <file id="file-2"/>
                                <rate>
                                    <timebase>60</timebase>
                                    <ntsc>TRUE</ntsc>
                                </rate>
                                <duration>60</duration>
                                <start>6454</start>
                                <end>6514</end>
                                <in>6454</in>
                                <out>6514</out>
                            </clipitem>
                        </track>
                        <track>
                            <clipitem frameBlend="FALSE" id="clipitem-740">
                                <name></name>
                                <file id="file-2"/>
                                <rate>
                                    <timebase>60</timebase>
                                    <ntsc>TRUE</ntsc>
                                </rate>
                                <duration>60</duration>
                                <start>6466</start>
                                <end>6526</end>
                                <in>6466</in>
                                <out>6526</out>
                            </clipitem>
                        </track>
                        <track>
                            <clipitem frameBlend="FALSE" id="clipitem-741">
                                <name></name>
                                <file id="file-2"/>
                                <rate>
                                    <timebase>60</timebase>
                                    <ntsc>TRUE</ntsc>
                                </rate>
                                <duration>66</duration>
                                <start>6466</start>
                                <end>6532</end>
                                <in>6466</in>
                                <out>6532</out>
                            </clipitem>
                        </track>
                        <track>
                            <clipitem frameBlend="FALSE" id="clipitem-742">
                                <name></name>
                                <file id="file-2"/>
                                <rate>
                                    <timebase>60</timebase>
                                    <ntsc>TRUE</ntsc>
                                </rate>
                                <duration>60</duration>
                                <start>6472</start>
                                <end>6532</end>
                                <in>6472</in>
                                <out>6532</out>
                            </clipitem>
                        </track>
                        <track>
                            <clipitem frameBlend="FALSE" id="clipitem-743">
                                <name></name>
                                <file id="file-2"/>
                                <rate>
                                    <timebase>60</timebase>
                                    <ntsc>TRUE</ntsc>
                                </rate>
                                <duration>60</duration>
                                <start>6478</start>
                                <end>6538</end>
                                <in>6478</in>
                                <out>6538</out>
                            </clipitem>
                        </track>
                        <track>
                            <clipitem frameBlend="FALSE" id="clipitem-744">
                                <name></name>
                                <file id="file-2"/>
                                <rate>
                                    <timebase>60</timebase>
                                    <ntsc>TRUE</ntsc>
                                </rate>
                                <duration>66</duration>
                                <start>6526</start>
                                <end>6592</end>
                                <in>6526</in>
                                <out>6592</out>
                            </clipitem>
                        </track>
                        <track>
                            <clipitem frameBlend="FALSE" id="clipitem-745">
                                <name></name>
                                <file id="file-2"/>
                                <rate>
                                    <timebase>60</timebase>
                                    <ntsc>TRUE</ntsc>
                                </rate>
                                <duration>60</duration>
                                <start>6532</start>
                                <end>6592</end>
                                <in>6532</in>
                                <out>6592</out>
                            </clipitem>
                        </track>
                        <track>
                            <clipitem frameBlend="FALSE" id="clipitem-746">
                                <name></name>
                                <file id="file-2"/>
                                <rate>
                                    <timebase>60</timebase>
                                    <ntsc>TRUE</ntsc>
                                </rate>
                                <duration>60</duration>
                                <start>6544</start>
                                <end>6604</end>
                                <in>6544</in>
                                <out>6604</out>
                            </clipitem>
                        </track>
                        <track>
                            <clipitem frameBlend="FALSE" id="clipitem-747">
                                <name></name>
                                <file id="file-2"/>
                                <rate>
                                    <timebase>60</timebase>
                                    <ntsc>TRUE</ntsc>
                                </rate>
                                <duration>66</duration>
                                <start>6550</start>
                                <end>6616</end>
                                <in>6550</in>
                                <out>6616</out>
                            </clipitem>
                        </track>
                        <track>
                            <clipitem frameBlend="FALSE" id="clipitem-748">
                                <name></name>
                                <file id="file-2"/>
                                <rate>
                                    <timebase>60</timebase>
                                    <ntsc>TRUE</ntsc>
                                </rate>
                                <duration>66</duration>
                                <start>6556</start>
                                <end>6622</end>
                                <in>6556</in>
                                <out>6622</out>
                            </clipitem>
                        </track>
                        <track>
                            <clipitem frameBlend="FALSE" id="clipitem-749">
                                <name></name>
                                <file id="file-2"/>
                                <rate>
                                    <timebase>60</timebase>
                                    <ntsc>TRUE</ntsc>
                                </rate>
                                <duration>60</duration>
                                <start>6568</start>
                                <end>6628</end>
                                <in>6568</in>
                                <out>6628</out>
                            </clipitem>
                        </track>
                        <track>
                            <clipitem frameBlend="FALSE" id="clipitem-750">
                                <name></name>
                                <file id="file-2"/>
                                <rate>
                                    <timebase>60</timebase>
                                    <ntsc>TRUE</ntsc>
                                </rate>
                                <duration>60</duration>
                                <start>6574</start>
                                <end>6634</end>
                                <in>6574</in>
                                <out>6634</out>
                            </clipitem>
                        </track>
                        <track>
                            <clipitem frameBlend="FALSE" id="clipitem-751">
                                <name></name>
                                <file id="file-2"/>
                                <rate>
                                    <timebase>60</timebase>
                                    <ntsc>TRUE</ntsc>
                                </rate>
                                <duration>66</duration>
                                <start>6580</start>
                                <end>6646</end>
                                <in>6580</in>
                                <out>6646</out>
                            </clipitem>
                        </track>
                        <track>
                            <clipitem frameBlend="FALSE" id="clipitem-752">
                                <name></name>
                                <file id="file-2"/>
                                <rate>
                                    <timebase>60</timebase>
                                    <ntsc>TRUE</ntsc>
                                </rate>
                                <duration>66</duration>
                                <start>6598</start>
                                <end>6664</end>
                                <in>6598</in>
                                <out>6664</out>
                            </clipitem>
                        </track>
                        <track>
                            <clipitem frameBlend="FALSE" id="clipitem-753">
                                <name></name>
                                <file id="file-2"/>
                                <rate>
                                    <timebase>60</timebase>
                                    <ntsc>TRUE</ntsc>
                                </rate>
                                <duration>60</duration>
                                <start>6604</start>
                                <end>6664</end>
                                <in>6604</in>
                                <out>6664</out>
                            </clipitem>
                        </track>
                        <track>
                            <clipitem frameBlend="FALSE" id="clipitem-754">
                                <name></name>
                                <file id="file-2"/>
                                <rate>
                                    <timebase>60</timebase>
                                    <ntsc>TRUE</ntsc>
                                </rate>
                                <duration>66</duration>
                                <start>6616</start>
                                <end>6682</end>
                                <in>6616</in>
                                <out>6682</out>
                            </clipitem>
                        </track>
                        <track>
                            <clipitem frameBlend="FALSE" id="clipitem-755">
                                <name></name>
                                <file id="file-2"/>
                                <rate>
                                    <timebase>60</timebase>
                                    <ntsc>TRUE</ntsc>
                                </rate>
                                <duration>60</duration>
                                <start>6640</start>
                                <end>6700</end>
                                <in>6640</in>
                                <out>6700</out>
                            </clipitem>
                        </track>
                        <track>
                            <clipitem frameBlend="FALSE" id="clipitem-756">
                                <name></name>
                                <file id="file-2"/>
                                <rate>
                                    <timebase>60</timebase>
                                    <ntsc>TRUE</ntsc>
                                </rate>
                                <duration>60</duration>
                                <start>6646</start>
                                <end>6706</end>
                                <in>6646</in>
                                <out>6706</out>
                            </clipitem>
                        </track>
                        <track>
                            <clipitem frameBlend="FALSE" id="clipitem-757">
                                <name></name>
                                <file id="file-2"/>
                                <rate>
                                    <timebase>60</timebase>
                                    <ntsc>TRUE</ntsc>
                                </rate>
                                <duration>66</duration>
                                <start>6682</start>
                                <end>6748</end>
                                <in>6682</in>
                                <out>6748</out>
                            </clipitem>
                        </track>
                        <track>
                            <clipitem frameBlend="FALSE" id="clipitem-758">
                                <name></name>
                                <file id="file-2"/>
                                <rate>
                                    <timebase>60</timebase>
                                    <ntsc>TRUE</ntsc>
                                </rate>
                                <duration>60</duration>
                                <start>6706</start>
                                <end>6766</end>
                                <in>6706</in>
                                <out>6766</out>
                            </clipitem>
                        </track>
                        <track>
                            <clipitem frameBlend="FALSE" id="clipitem-759">
                                <name></name>
                                <file id="file-2"/>
                                <rate>
                                    <timebase>60</timebase>
                                    <ntsc>TRUE</ntsc>
                                </rate>
                                <duration>60</duration>
                                <start>6724</start>
                                <end>6784</end>
                                <in>6724</in>
                                <out>6784</out>
                            </clipitem>
                        </track>
                        <track>
                            <clipitem frameBlend="FALSE" id="clipitem-760">
                                <name></name>
                                <file id="file-2"/>
                                <rate>
                                    <timebase>60</timebase>
                                    <ntsc>TRUE</ntsc>
                                </rate>
                                <duration>66</duration>
                                <start>6748</start>
                                <end>6814</end>
                                <in>6748</in>
                                <out>6814</out>
                            </clipitem>
                        </track>
                        <track>
                            <clipitem frameBlend="FALSE" id="clipitem-761">
                                <name></name>
                                <file id="file-2"/>
                                <rate>
                                    <timebase>60</timebase>
                                    <ntsc>TRUE</ntsc>
                                </rate>
                                <duration>60</duration>
                                <start>6760</start>
                                <end>6820</end>
                                <in>6760</in>
                                <out>6820</out>
                            </clipitem>
                        </track>
                        <track>
                            <clipitem frameBlend="FALSE" id="clipitem-762">
                                <name></name>
                                <file id="file-2"/>
                                <rate>
                                    <timebase>60</timebase>
                                    <ntsc>TRUE</ntsc>
                                </rate>
                                <duration>60</duration>
                                <start>6766</start>
                                <end>6826</end>
                                <in>6766</in>
                                <out>6826</out>
                            </clipitem>
                        </track>
                        <track>
                            <clipitem frameBlend="FALSE" id="clipitem-763">
                                <name></name>
                                <file id="file-2"/>
                                <rate>
                                    <timebase>60</timebase>
                                    <ntsc>TRUE</ntsc>
                                </rate>
                                <duration>60</duration>
                                <start>6772</start>
                                <end>6832</end>
                                <in>6772</in>
                                <out>6832</out>
                            </clipitem>
                        </track>
                        <track>
                            <clipitem frameBlend="FALSE" id="clipitem-764">
                                <name></name>
                                <file id="file-2"/>
                                <rate>
                                    <timebase>60</timebase>
                                    <ntsc>TRUE</ntsc>
                                </rate>
                                <duration>60</duration>
                                <start>6784</start>
                                <end>6844</end>
                                <in>6784</in>
                                <out>6844</out>
                            </clipitem>
                        </track>
                        <track>
                            <clipitem frameBlend="FALSE" id="clipitem-765">
                                <name></name>
                                <file id="file-2"/>
                                <rate>
                                    <timebase>60</timebase>
                                    <ntsc>TRUE</ntsc>
                                </rate>
                                <duration>66</duration>
                                <start>6802</start>
                                <end>6868</end>
                                <in>6802</in>
                                <out>6868</out>
                            </clipitem>
                        </track>
                        <track>
                            <clipitem frameBlend="FALSE" id="clipitem-766">
                                <name></name>
                                <file id="file-2"/>
                                <rate>
                                    <timebase>60</timebase>
                                    <ntsc>TRUE</ntsc>
                                </rate>
                                <duration>60</duration>
                                <start>6814</start>
                                <end>6874</end>
                                <in>6814</in>
                                <out>6874</out>
                            </clipitem>
                        </track>
                        <track>
                            <clipitem id="clipitem-766"/>
                        </track>
                        <track>
                            <clipitem frameBlend="FALSE" id="clipitem-767">
                                <name></name>
                                <file id="file-2"/>
                                <rate>
                                    <timebase>60</timebase>
                                    <ntsc>TRUE</ntsc>
                                </rate>
                                <duration>66</duration>
                                <start>6832</start>
                                <end>6898</end>
                                <in>6832</in>
                                <out>6898</out>
                            </clipitem>
                        </track>
                        <track>
                            <clipitem frameBlend="FALSE" id="clipitem-768">
                                <name></name>
                                <file id="file-2"/>
                                <rate>
                                    <timebase>60</timebase>
                                    <ntsc>TRUE</ntsc>
                                </rate>
                                <duration>60</duration>
                                <start>6844</start>
                                <end>6904</end>
                                <in>6844</in>
                                <out>6904</out>
                            </clipitem>
                        </track>
                        <track>
                            <clipitem frameBlend="FALSE" id="clipitem-769">
                                <name></name>
                                <file id="file-2"/>
                                <rate>
                                    <timebase>60</timebase>
                                    <ntsc>TRUE</ntsc>
                                </rate>
                                <duration>60</duration>
                                <start>6874</start>
                                <end>6934</end>
                                <in>6874</in>
                                <out>6934</out>
                            </clipitem>
                        </track>
                        <track>
                            <clipitem frameBlend="FALSE" id="clipitem-770">
                                <name></name>
                                <file id="file-2"/>
                                <rate>
                                    <timebase>60</timebase>
                                    <ntsc>TRUE</ntsc>
                                </rate>
                                <duration>66</duration>
                                <start>6880</start>
                                <end>6946</end>
                                <in>6880</in>
                                <out>6946</out>
                            </clipitem>
                        </track>
                        <track>
                            <clipitem frameBlend="FALSE" id="clipitem-771">
                                <name></name>
                                <file id="file-2"/>
                                <rate>
                                    <timebase>60</timebase>
                                    <ntsc>TRUE</ntsc>
                                </rate>
                                <duration>60</duration>
                                <start>6892</start>
                                <end>6952</end>
                                <in>6892</in>
                                <out>6952</out>
                            </clipitem>
                        </track>
                        <track>
                            <clipitem frameBlend="FALSE" id="clipitem-772">
                                <name></name>
                                <file id="file-2"/>
                                <rate>
                                    <timebase>60</timebase>
                                    <ntsc>TRUE</ntsc>
                                </rate>
                                <duration>60</duration>
                                <start>6898</start>
                                <end>6958</end>
                                <in>6898</in>
                                <out>6958</out>
                            </clipitem>
                        </track>
                        <track>
                            <clipitem frameBlend="FALSE" id="clipitem-773">
                                <name></name>
                                <file id="file-2"/>
                                <rate>
                                    <timebase>60</timebase>
                                    <ntsc>TRUE</ntsc>
                                </rate>
                                <duration>60</duration>
                                <start>6910</start>
                                <end>6970</end>
                                <in>6910</in>
                                <out>6970</out>
                            </clipitem>
                        </track>
                        <track>
                            <clipitem frameBlend="FALSE" id="clipitem-774">
                                <name></name>
                                <file id="file-2"/>
                                <rate>
                                    <timebase>60</timebase>
                                    <ntsc>TRUE</ntsc>
                                </rate>
                                <duration>60</duration>
                                <start>6916</start>
                                <end>6976</end>
                                <in>6916</in>
                                <out>6976</out>
                            </clipitem>
                        </track>
                        <track>
                            <clipitem frameBlend="FALSE" id="clipitem-775">
                                <name></name>
                                <file id="file-2"/>
                                <rate>
                                    <timebase>60</timebase>
                                    <ntsc>TRUE</ntsc>
                                </rate>
                                <duration>60</duration>
                                <start>6922</start>
                                <end>6982</end>
                                <in>6922</in>
                                <out>6982</out>
                            </clipitem>
                        </track>
                        <track>
                            <clipitem frameBlend="FALSE" id="clipitem-776">
                                <name></name>
                                <file id="file-2"/>
                                <rate>
                                    <timebase>60</timebase>
                                    <ntsc>TRUE</ntsc>
                                </rate>
                                <duration>66</duration>
                                <start>6922</start>
                                <end>6988</end>
                                <in>6922</in>
                                <out>6988</out>
                            </clipitem>
                        </track>
                        <track>
                            <clipitem frameBlend="FALSE" id="clipitem-777">
                                <name></name>
                                <file id="file-2"/>
                                <rate>
                                    <timebase>60</timebase>
                                    <ntsc>TRUE</ntsc>
                                </rate>
                                <duration>60</duration>
                                <start>6928</start>
                                <end>6988</end>
                                <in>6928</in>
                                <out>6988</out>
                            </clipitem>
                        </track>
                        <track>
                            <clipitem frameBlend="FALSE" id="clipitem-778">
                                <name></name>
                                <file id="file-2"/>
                                <rate>
                                    <timebase>60</timebase>
                                    <ntsc>TRUE</ntsc>
                                </rate>
                                <duration>66</duration>
                                <start>6940</start>
                                <end>7006</end>
                                <in>6940</in>
                                <out>7006</out>
                            </clipitem>
                        </track>
                        <track>
                            <clipitem frameBlend="FALSE" id="clipitem-779">
                                <name></name>
                                <file id="file-2"/>
                                <rate>
                                    <timebase>60</timebase>
                                    <ntsc>TRUE</ntsc>
                                </rate>
                                <duration>60</duration>
                                <start>6946</start>
                                <end>7006</end>
                                <in>6946</in>
                                <out>7006</out>
                            </clipitem>
                        </track>
                        <track>
                            <clipitem frameBlend="FALSE" id="clipitem-780">
                                <name></name>
                                <file id="file-2"/>
                                <rate>
                                    <timebase>60</timebase>
                                    <ntsc>TRUE</ntsc>
                                </rate>
                                <duration>60</duration>
                                <start>6958</start>
                                <end>7018</end>
                                <in>6958</in>
                                <out>7018</out>
                            </clipitem>
                        </track>
                        <track>
                            <clipitem frameBlend="FALSE" id="clipitem-781">
                                <name></name>
                                <file id="file-2"/>
                                <rate>
                                    <timebase>60</timebase>
                                    <ntsc>TRUE</ntsc>
                                </rate>
                                <duration>60</duration>
                                <start>6970</start>
                                <end>7030</end>
                                <in>6970</in>
                                <out>7030</out>
                            </clipitem>
                        </track>
                        <track>
                            <clipitem frameBlend="FALSE" id="clipitem-782">
                                <name></name>
                                <file id="file-2"/>
                                <rate>
                                    <timebase>60</timebase>
                                    <ntsc>TRUE</ntsc>
                                </rate>
                                <duration>60</duration>
                                <start>6976</start>
                                <end>7036</end>
                                <in>6976</in>
                                <out>7036</out>
                            </clipitem>
                        </track>
                        <track>
                            <clipitem frameBlend="FALSE" id="clipitem-783">
                                <name></name>
                                <file id="file-2"/>
                                <rate>
                                    <timebase>60</timebase>
                                    <ntsc>TRUE</ntsc>
                                </rate>
                                <duration>60</duration>
                                <start>6988</start>
                                <end>7048</end>
                                <in>6988</in>
                                <out>7048</out>
                            </clipitem>
                        </track>
                        <track>
                            <clipitem frameBlend="FALSE" id="clipitem-784">
                                <name></name>
                                <file id="file-2"/>
                                <rate>
                                    <timebase>60</timebase>
                                    <ntsc>TRUE</ntsc>
                                </rate>
                                <duration>54</duration>
                                <start>7006</start>
                                <end>7060</end>
                                <in>7006</in>
                                <out>7060</out>
                            </clipitem>
                        </track>
                        <track>
                            <clipitem frameBlend="FALSE" id="clipitem-785">
                                <name></name>
                                <file id="file-2"/>
                                <rate>
                                    <timebase>60</timebase>
                                    <ntsc>TRUE</ntsc>
                                </rate>
                                <duration>24</duration>
                                <start>7036</start>
                                <end>7060</end>
                                <in>7036</in>
                                <out>7060</out>
                            </clipitem>
                        </track>
                        <track>
                            <clipitem id="clipitem-785"/>
                        </track>
                        <track>
                            <clipitem frameBlend="FALSE" id="clipitem-786">
                                <name></name>
                                <file id="file-2"/>
                                <rate>
                                    <timebase>60</timebase>
                                    <ntsc>TRUE</ntsc>
                                </rate>
                                <duration>18</duration>
                                <start>7042</start>
                                <end>7060</end>
                                <in>7042</in>
                                <out>7060</out>
                            </clipitem>
                        </track>
                        <track>
                            <clipitem frameBlend="FALSE" id="clipitem-787">
                                <name></name>
                                <file id="file-2"/>
                                <rate>
                                    <timebase>60</timebase>
                                    <ntsc>TRUE</ntsc>
                                </rate>
                                <duration>6</duration>
                                <start>7054</start>
                                <end>7060</end>
                                <in>7054</in>
                                <out>7060</out>
                            </clipitem>
                        </track>
                    </video>
                    <audio>
                        <track>
                            <clipitem frameBlend="FALSE" id="clipitem-788">
                                <file id="file-1"/>
                                <name>bandicam 2025-06-02 00-01-10-144 - Audio</name>
                                <rate>
                                    <timebase>60</timebase>
                                    <ntsc>TRUE</ntsc>
                                </rate>
                                <rate>
                                    <timebase>60</timebase>
                                    <ntsc>TRUE</ntsc>
                                </rate>
                                <duration>809</duration>
                                <start>0</start>
                                <end>809</end>
                                <in>0</in>
                                <out>809</out>
                            </clipitem>
                            <clipitem frameBlend="FALSE" id="clipitem-789">
                                <file id="file-1"/>
                                <name>bandicam 2025-06-02 00-01-10-144 - Audio</name>
                                <rate>
                                    <timebase>60</timebase>
                                    <ntsc>TRUE</ntsc>
                                </rate>
                                <rate>
                                    <timebase>60</timebase>
                                    <ntsc>TRUE</ntsc>
                                </rate>
                                <duration>18</duration>
                                <start>809</start>
                                <end>827</end>
                                <in>905</in>
                                <out>923</out>
                            </clipitem>
                            <clipitem frameBlend="FALSE" id="clipitem-790">
                                <file id="file-1"/>
                                <name>bandicam 2025-06-02 00-01-10-144 - Audio</name>
                                <rate>
                                    <timebase>60</timebase>
                                    <ntsc>TRUE</ntsc>
                                </rate>
                                <rate>
                                    <timebase>60</timebase>
                                    <ntsc>TRUE</ntsc>
                                </rate>
                                <duration>6083</duration>
                                <start>827</start>
                                <end>6910</end>
                                <in>983</in>
                                <out>7066</out>
                            </clipitem>
                            <clipitem frameBlend="FALSE" id="clipitem-791">
                                <file id="file-1"/>
                                <name>bandicam 2025-06-02 00-01-10-144 - Audio</name>
                                <rate>
                                    <timebase>60</timebase>
                                    <ntsc>TRUE</ntsc>
                                </rate>
                                <rate>
                                    <timebase>60</timebase>
                                    <ntsc>TRUE</ntsc>
                                </rate>
                                <duration>36</duration>
                                <start>6910</start>
                                <end>6946</end>
                                <in>1031</in>
                                <out>1067</out>
                            </clipitem>
                            <clipitem frameBlend="FALSE" id="clipitem-792">
                                <file id="file-1"/>
                                <name>bandicam 2025-06-02 00-01-10-144 - Audio</name>
                                <rate>
                                    <timebase>60</timebase>
                                    <ntsc>TRUE</ntsc>
                                </rate>
                                <rate>
                                    <timebase>60</timebase>
                                    <ntsc>TRUE</ntsc>
                                </rate>
                                <duration>6</duration>
                                <start>6946</start>
                                <end>6952</end>
                                <in>1085</in>
                                <out>1091</out>
                            </clipitem>
                            <clipitem frameBlend="FALSE" id="clipitem-793">
                                <file id="file-1"/>
                                <name>bandicam 2025-06-02 00-01-10-144 - Audio</name>
                                <rate>
                                    <timebase>60</timebase>
                                    <ntsc>TRUE</ntsc>
                                </rate>
                                <rate>
                                    <timebase>60</timebase>
                                    <ntsc>TRUE</ntsc>
                                </rate>
                                <duration>48</duration>
                                <start>6952</start>
                                <end>7000</end>
                                <in>1109</in>
                                <out>1157</out>
                            </clipitem>
                            <clipitem frameBlend="FALSE" id="clipitem-794">
                                <file id="file-1"/>
                                <name>bandicam 2025-06-02 00-01-10-144 - Audio</name>
                                <rate>
                                    <timebase>60</timebase>
                                    <ntsc>TRUE</ntsc>
                                </rate>
                                <rate>
                                    <timebase>60</timebase>
                                    <ntsc>TRUE</ntsc>
                                </rate>
                                <duration>0</duration>
                                <start>7000</start>
                                <end>7000</end>
                                <in>1319</in>
                                <out>1319</out>
                            </clipitem>
                            <clipitem frameBlend="FALSE" id="clipitem-795">
                                <file id="file-1"/>
                                <name>bandicam 2025-06-02 00-01-10-144 - Audio</name>
                                <rate>
                                    <timebase>60</timebase>
                                    <ntsc>TRUE</ntsc>
                                </rate>
                                <rate>
                                    <timebase>60</timebase>
                                    <ntsc>TRUE</ntsc>
                                </rate>
                                <duration>24</duration>
                                <start>7000</start>
                                <end>7024</end>
                                <in>1349</in>
                                <out>1373</out>
                            </clipitem>
                            <clipitem frameBlend="FALSE" id="clipitem-796">
                                <file id="file-1"/>
                                <name>bandicam 2025-06-02 00-01-10-144 - Audio</name>
                                <rate>
                                    <timebase>60</timebase>
                                    <ntsc>TRUE</ntsc>
                                </rate>
                                <rate>
                                    <timebase>60</timebase>
                                    <ntsc>TRUE</ntsc>
                                </rate>
                                <duration>48</duration>
                                <start>7024</start>
                                <end>7072</end>
                                <in>1397</in>
                                <out>1445</out>
                            </clipitem>
                            <clipitem frameBlend="FALSE" id="clipitem-797">
                                <file id="file-1"/>
                                <name>bandicam 2025-06-02 00-01-10-144 - Audio</name>
                                <rate>
                                    <timebase>60</timebase>
                                    <ntsc>TRUE</ntsc>
                                </rate>
                                <rate>
                                    <timebase>60</timebase>
                                    <ntsc>TRUE</ntsc>
                                </rate>
                                <duration>192</duration>
                                <start>7072</start>
                                <end>7264</end>
                                <in>1457</in>
                                <out>1649</out>
                            </clipitem>
                            <clipitem frameBlend="FALSE" id="clipitem-798">
                                <file id="file-1"/>
                                <name>bandicam 2025-06-02 00-01-10-144 - Audio</name>
                                <rate>
                                    <timebase>60</timebase>
                                    <ntsc>TRUE</ntsc>
                                </rate>
                                <rate>
                                    <timebase>60</timebase>
                                    <ntsc>TRUE</ntsc>
                                </rate>
                                <duration>60</duration>
                                <start>7264</start>
                                <end>7324</end>
                                <in>1697</in>
                                <out>1757</out>
                            </clipitem>
                            <clipitem frameBlend="FALSE" id="clipitem-799">
                                <file id="file-1"/>
                                <name>bandicam 2025-06-02 00-01-10-144 - Audio</name>
                                <rate>
                                    <timebase>60</timebase>
                                    <ntsc>TRUE</ntsc>
                                </rate>
                                <rate>
                                    <timebase>60</timebase>
                                    <ntsc>TRUE</ntsc>
                                </rate>
                                <duration>90</duration>
                                <start>7324</start>
                                <end>7414</end>
                                <in>1847</in>
                                <out>1937</out>
                            </clipitem>
                            <clipitem frameBlend="FALSE" id="clipitem-800">
                                <file id="file-1"/>
                                <name>bandicam 2025-06-02 00-01-10-144 - Audio</name>
                                <rate>
                                    <timebase>60</timebase>
                                    <ntsc>TRUE</ntsc>
                                </rate>
                                <rate>
                                    <timebase>60</timebase>
                                    <ntsc>TRUE</ntsc>
                                </rate>
                                <duration>126</duration>
                                <start>7414</start>
                                <end>7540</end>
                                <in>1961</in>
                                <out>2087</out>
                            </clipitem>
                            <clipitem frameBlend="FALSE" id="clipitem-801">
                                <file id="file-1"/>
                                <name>bandicam 2025-06-02 00-01-10-144 - Audio</name>
                                <rate>
                                    <timebase>60</timebase>
                                    <ntsc>TRUE</ntsc>
                                </rate>
                                <rate>
                                    <timebase>60</timebase>
                                    <ntsc>TRUE</ntsc>
                                </rate>
                                <duration>30</duration>
                                <start>7540</start>
                                <end>7570</end>
                                <in>2219</in>
                                <out>2249</out>
                            </clipitem>
                            <clipitem frameBlend="FALSE" id="clipitem-802">
                                <file id="file-1"/>
                                <name>bandicam 2025-06-02 00-01-10-144 - Audio</name>
                                <rate>
                                    <timebase>60</timebase>
                                    <ntsc>TRUE</ntsc>
                                </rate>
                                <rate>
                                    <timebase>60</timebase>
                                    <ntsc>TRUE</ntsc>
                                </rate>
                                <duration>24</duration>
                                <start>7570</start>
                                <end>7594</end>
                                <in>2267</in>
                                <out>2291</out>
                            </clipitem>
                            <clipitem frameBlend="FALSE" id="clipitem-803">
                                <file id="file-1"/>
                                <name>bandicam 2025-06-02 00-01-10-144 - Audio</name>
                                <rate>
                                    <timebase>60</timebase>
                                    <ntsc>TRUE</ntsc>
                                </rate>
                                <rate>
                                    <timebase>60</timebase>
                                    <ntsc>TRUE</ntsc>
                                </rate>
                                <duration>48</duration>
                                <start>7594</start>
                                <end>7642</end>
                                <in>2327</in>
                                <out>2375</out>
                            </clipitem>
                            <clipitem frameBlend="FALSE" id="clipitem-804">
                                <file id="file-1"/>
                                <name>bandicam 2025-06-02 00-01-10-144 - Audio</name>
                                <rate>
                                    <timebase>60</timebase>
                                    <ntsc>TRUE</ntsc>
                                </rate>
                                <rate>
                                    <timebase>60</timebase>
                                    <ntsc>TRUE</ntsc>
                                </rate>
                                <duration>36</duration>
                                <start>7642</start>
                                <end>7678</end>
                                <in>2405</in>
                                <out>2441</out>
                            </clipitem>
                            <clipitem frameBlend="FALSE" id="clipitem-805">
                                <file id="file-1"/>
                                <name>bandicam 2025-06-02 00-01-10-144 - Audio</name>
                                <rate>
                                    <timebase>60</timebase>
                                    <ntsc>TRUE</ntsc>
                                </rate>
                                <rate>
                                    <timebase>60</timebase>
                                    <ntsc>TRUE</ntsc>
                                </rate>
                                <duration>18</duration>
                                <start>7678</start>
                                <end>7696</end>
                                <in>2477</in>
                                <out>2495</out>
                            </clipitem>
                            <clipitem frameBlend="FALSE" id="clipitem-806">
                                <file id="file-1"/>
                                <name>bandicam 2025-06-02 00-01-10-144 - Audio</name>
                                <rate>
                                    <timebase>60</timebase>
                                    <ntsc>TRUE</ntsc>
                                </rate>
                                <rate>
                                    <timebase>60</timebase>
                                    <ntsc>TRUE</ntsc>
                                </rate>
                                <duration>54</duration>
                                <start>7696</start>
                                <end>7750</end>
                                <in>2531</in>
                                <out>2585</out>
                            </clipitem>
                            <clipitem frameBlend="FALSE" id="clipitem-807">
                                <file id="file-1"/>
                                <name>bandicam 2025-06-02 00-01-10-144 - Audio</name>
                                <rate>
                                    <timebase>60</timebase>
                                    <ntsc>TRUE</ntsc>
                                </rate>
                                <rate>
                                    <timebase>60</timebase>
                                    <ntsc>TRUE</ntsc>
                                </rate>
                                <duration>96</duration>
                                <start>7750</start>
                                <end>7846</end>
                                <in>2639</in>
                                <out>2735</out>
                            </clipitem>
                            <clipitem frameBlend="FALSE" id="clipitem-808">
                                <file id="file-1"/>
                                <name>bandicam 2025-06-02 00-01-10-144 - Audio</name>
                                <rate>
                                    <timebase>60</timebase>
                                    <ntsc>TRUE</ntsc>
                                </rate>
                                <rate>
                                    <timebase>60</timebase>
                                    <ntsc>TRUE</ntsc>
                                </rate>
                                <duration>917</duration>
                                <start>7846</start>
                                <end>8763</end>
                                <in>2759</in>
                                <out>3676</out>
                            </clipitem>
                            <clipitem frameBlend="FALSE" id="clipitem-809">
                                <file id="file-1"/>
                                <name>bandicam 2025-06-02 00-01-10-144 - Audio</name>
                                <rate>
                                    <timebase>60</timebase>
                                    <ntsc>TRUE</ntsc>
                                </rate>
                                <rate>
                                    <timebase>60</timebase>
                                    <ntsc>TRUE</ntsc>
                                </rate>
                                <duration>42</duration>
                                <start>8763</start>
                                <end>8805</end>
                                <in>3706</in>
                                <out>3748</out>
                            </clipitem>
                            <clipitem frameBlend="FALSE" id="clipitem-810">
                                <file id="file-1"/>
                                <name>bandicam 2025-06-02 00-01-10-144 - Audio</name>
                                <rate>
                                    <timebase>60</timebase>
                                    <ntsc>TRUE</ntsc>
                                </rate>
                                <rate>
                                    <timebase>60</timebase>
                                    <ntsc>TRUE</ntsc>
                                </rate>
                                <duration>66</duration>
                                <start>8805</start>
                                <end>8871</end>
                                <in>3778</in>
                                <out>3844</out>
                            </clipitem>
                            <clipitem frameBlend="FALSE" id="clipitem-811">
                                <file id="file-1"/>
                                <name>bandicam 2025-06-02 00-01-10-144 - Audio</name>
                                <rate>
                                    <timebase>60</timebase>
                                    <ntsc>TRUE</ntsc>
                                </rate>
                                <rate>
                                    <timebase>60</timebase>
                                    <ntsc>TRUE</ntsc>
                                </rate>
                                <duration>120</duration>
                                <start>8871</start>
                                <end>8991</end>
                                <in>3874</in>
                                <out>3994</out>
                            </clipitem>
                            <clipitem frameBlend="FALSE" id="clipitem-812">
                                <file id="file-1"/>
                                <name>bandicam 2025-06-02 00-01-10-144 - Audio</name>
                                <rate>
                                    <timebase>60</timebase>
                                    <ntsc>TRUE</ntsc>
                                </rate>
                                <rate>
                                    <timebase>60</timebase>
                                    <ntsc>TRUE</ntsc>
                                </rate>
                                <duration>36</duration>
                                <start>8991</start>
                                <end>9027</end>
                                <in>4012</in>
                                <out>4048</out>
                            </clipitem>
                            <clipitem frameBlend="FALSE" id="clipitem-813">
                                <file id="file-1"/>
                                <name>bandicam 2025-06-02 00-01-10-144 - Audio</name>
                                <rate>
                                    <timebase>60</timebase>
                                    <ntsc>TRUE</ntsc>
                                </rate>
                                <rate>
                                    <timebase>60</timebase>
                                    <ntsc>TRUE</ntsc>
                                </rate>
                                <duration>228</duration>
                                <start>9027</start>
                                <end>9255</end>
                                <in>4066</in>
                                <out>4294</out>
                            </clipitem>
                            <clipitem frameBlend="FALSE" id="clipitem-814">
                                <file id="file-1"/>
                                <name>bandicam 2025-06-02 00-01-10-144 - Audio</name>
                                <rate>
                                    <timebase>60</timebase>
                                    <ntsc>TRUE</ntsc>
                                </rate>
                                <rate>
                                    <timebase>60</timebase>
                                    <ntsc>TRUE</ntsc>
                                </rate>
                                <duration>12</duration>
                                <start>9255</start>
                                <end>9267</end>
                                <in>4330</in>
                                <out>4342</out>
                            </clipitem>
                            <clipitem frameBlend="FALSE" id="clipitem-815">
                                <file id="file-1"/>
                                <name>bandicam 2025-06-02 00-01-10-144 - Audio</name>
                                <rate>
                                    <timebase>60</timebase>
                                    <ntsc>TRUE</ntsc>
                                </rate>
                                <rate>
                                    <timebase>60</timebase>
                                    <ntsc>TRUE</ntsc>
                                </rate>
                                <duration>342</duration>
                                <start>9267</start>
                                <end>9609</end>
                                <in>4414</in>
                                <out>4756</out>
                            </clipitem>
                            <clipitem frameBlend="FALSE" id="clipitem-816">
                                <file id="file-1"/>
                                <name>bandicam 2025-06-02 00-01-10-144 - Audio</name>
                                <rate>
                                    <timebase>60</timebase>
                                    <ntsc>TRUE</ntsc>
                                </rate>
                                <rate>
                                    <timebase>60</timebase>
                                    <ntsc>TRUE</ntsc>
                                </rate>
                                <duration>18</duration>
                                <start>9609</start>
                                <end>9627</end>
                                <in>4786</in>
                                <out>4804</out>
                            </clipitem>
                            <clipitem frameBlend="FALSE" id="clipitem-817">
                                <file id="file-1"/>
                                <name>bandicam 2025-06-02 00-01-10-144 - Audio</name>
                                <rate>
                                    <timebase>60</timebase>
                                    <ntsc>TRUE</ntsc>
                                </rate>
                                <rate>
                                    <timebase>60</timebase>
                                    <ntsc>TRUE</ntsc>
                                </rate>
                                <duration>18</duration>
                                <start>9627</start>
                                <end>9645</end>
                                <in>4834</in>
                                <out>4852</out>
                            </clipitem>
                            <clipitem frameBlend="FALSE" id="clipitem-818">
                                <file id="file-1"/>
                                <name>bandicam 2025-06-02 00-01-10-144 - Audio</name>
                                <rate>
                                    <timebase>60</timebase>
                                    <ntsc>TRUE</ntsc>
                                </rate>
                                <rate>
                                    <timebase>60</timebase>
                                    <ntsc>TRUE</ntsc>
                                </rate>
                                <duration>198</duration>
                                <start>9645</start>
                                <end>9843</end>
                                <in>4870</in>
                                <out>5068</out>
                            </clipitem>
                            <clipitem frameBlend="FALSE" id="clipitem-819">
                                <file id="file-1"/>
                                <name>bandicam 2025-06-02 00-01-10-144 - Audio</name>
                                <rate>
                                    <timebase>60</timebase>
                                    <ntsc>TRUE</ntsc>
                                </rate>
                                <rate>
                                    <timebase>60</timebase>
                                    <ntsc>TRUE</ntsc>
                                </rate>
                                <duration>6</duration>
                                <start>9843</start>
                                <end>9849</end>
                                <in>5086</in>
                                <out>5092</out>
                            </clipitem>
                            <clipitem frameBlend="FALSE" id="clipitem-820">
                                <file id="file-1"/>
                                <name>bandicam 2025-06-02 00-01-10-144 - Audio</name>
                                <rate>
                                    <timebase>60</timebase>
                                    <ntsc>TRUE</ntsc>
                                </rate>
                                <rate>
                                    <timebase>60</timebase>
                                    <ntsc>TRUE</ntsc>
                                </rate>
                                <duration>786</duration>
                                <start>9849</start>
                                <end>10635</end>
                                <in>5140</in>
                                <out>5926</out>
                            </clipitem>
                            <clipitem frameBlend="FALSE" id="clipitem-821">
                                <file id="file-1"/>
                                <name>bandicam 2025-06-02 00-01-10-144 - Audio</name>
                                <rate>
                                    <timebase>60</timebase>
                                    <ntsc>TRUE</ntsc>
                                </rate>
                                <rate>
                                    <timebase>60</timebase>
                                    <ntsc>TRUE</ntsc>
                                </rate>
                                <duration>120</duration>
                                <start>10635</start>
                                <end>10755</end>
                                <in>5944</in>
                                <out>6064</out>
                            </clipitem>
                            <clipitem frameBlend="FALSE" id="clipitem-822">
                                <file id="file-1"/>
                                <name>bandicam 2025-06-02 00-01-10-144 - Audio</name>
                                <rate>
                                    <timebase>60</timebase>
                                    <ntsc>TRUE</ntsc>
                                </rate>
                                <rate>
                                    <timebase>60</timebase>
                                    <ntsc>TRUE</ntsc>
                                </rate>
                                <duration>324</duration>
                                <start>10755</start>
                                <end>11079</end>
                                <in>6088</in>
                                <out>6412</out>
                            </clipitem>
                            <clipitem frameBlend="FALSE" id="clipitem-823">
                                <file id="file-1"/>
                                <name>bandicam 2025-06-02 00-01-10-144 - Audio</name>
                                <rate>
                                    <timebase>60</timebase>
                                    <ntsc>TRUE</ntsc>
                                </rate>
                                <rate>
                                    <timebase>60</timebase>
                                    <ntsc>TRUE</ntsc>
                                </rate>
                                <duration>108</duration>
                                <start>11079</start>
                                <end>11187</end>
                                <in>6442</in>
                                <out>6550</out>
                            </clipitem>
                            <clipitem frameBlend="FALSE" id="clipitem-824">
                                <file id="file-1"/>
                                <name>bandicam 2025-06-02 00-01-10-144 - Audio</name>
                                <rate>
                                    <timebase>60</timebase>
                                    <ntsc>TRUE</ntsc>
                                </rate>
                                <rate>
                                    <timebase>60</timebase>
                                    <ntsc>TRUE</ntsc>
                                </rate>
                                <duration>0</duration>
                                <start>11187</start>
                                <end>11187</end>
                                <in>6610</in>
                                <out>6610</out>
                            </clipitem>
                            <clipitem frameBlend="FALSE" id="clipitem-825">
                                <file id="file-1"/>
                                <name>bandicam 2025-06-02 00-01-10-144 - Audio</name>
                                <rate>
                                    <timebase>60</timebase>
                                    <ntsc>TRUE</ntsc>
                                </rate>
                                <rate>
                                    <timebase>60</timebase>
                                    <ntsc>TRUE</ntsc>
                                </rate>
                                <duration>228</duration>
                                <start>11187</start>
                                <end>11415</end>
                                <in>6634</in>
                                <out>6862</out>
                            </clipitem>
                            <clipitem frameBlend="FALSE" id="clipitem-826">
                                <file id="file-1"/>
                                <name>bandicam 2025-06-02 00-01-10-144 - Audio</name>
                                <rate>
                                    <timebase>60</timebase>
                                    <ntsc>TRUE</ntsc>
                                </rate>
                                <rate>
                                    <timebase>60</timebase>
                                    <ntsc>TRUE</ntsc>
                                </rate>
                                <duration>36</duration>
                                <start>11415</start>
                                <end>11451</end>
                                <in>6874</in>
                                <out>6910</out>
                            </clipitem>
                            <clipitem frameBlend="FALSE" id="clipitem-827">
                                <file id="file-1"/>
                                <name>bandicam 2025-06-02 00-01-10-144 - Audio</name>
                                <rate>
                                    <timebase>60</timebase>
                                    <ntsc>TRUE</ntsc>
                                </rate>
                                <rate>
                                    <timebase>60</timebase>
                                    <ntsc>TRUE</ntsc>
                                </rate>
                                <duration>30</duration>
                                <start>11451</start>
                                <end>11481</end>
                                <in>6964</in>
                                <out>6994</out>
                            </clipitem>
                            <clipitem frameBlend="FALSE" id="clipitem-828">
                                <file id="file-1"/>
                                <name>bandicam 2025-06-02 00-01-10-144 - Audio</name>
                                <rate>
                                    <timebase>60</timebase>
                                    <ntsc>TRUE</ntsc>
                                </rate>
                                <rate>
                                    <timebase>60</timebase>
                                    <ntsc>TRUE</ntsc>
                                </rate>
                                <duration>24</duration>
                                <start>11481</start>
                                <end>11505</end>
                                <in>1469</in>
                                <out>1493</out>
                            </clipitem>
                            <clipitem frameBlend="FALSE" id="clipitem-829">
                                <file id="file-1"/>
                                <name>bandicam 2025-06-02 00-01-10-144 - Audio</name>
                                <rate>
                                    <timebase>60</timebase>
                                    <ntsc>TRUE</ntsc>
                                </rate>
                                <rate>
                                    <timebase>60</timebase>
                                    <ntsc>TRUE</ntsc>
                                </rate>
                                <duration>72</duration>
                                <start>11505</start>
                                <end>11577</end>
                                <in>1517</in>
                                <out>1589</out>
                            </clipitem>
                            <clipitem frameBlend="FALSE" id="clipitem-830">
                                <file id="file-1"/>
                                <name>bandicam 2025-06-02 00-01-10-144 - Audio</name>
                                <rate>
                                    <timebase>60</timebase>
                                    <ntsc>TRUE</ntsc>
                                </rate>
                                <rate>
                                    <timebase>60</timebase>
                                    <ntsc>TRUE</ntsc>
                                </rate>
                                <duration>0</duration>
                                <start>11577</start>
                                <end>11577</end>
                                <in>1619</in>
                                <out>1619</out>
                            </clipitem>
                            <clipitem frameBlend="FALSE" id="clipitem-831">
                                <file id="file-1"/>
                                <name>bandicam 2025-06-02 00-01-10-144 - Audio</name>
                                <rate>
                                    <timebase>60</timebase>
                                    <ntsc>TRUE</ntsc>
                                </rate>
                                <rate>
                                    <timebase>60</timebase>
                                    <ntsc>TRUE</ntsc>
                                </rate>
                                <duration>54</duration>
                                <start>11577</start>
                                <end>11631</end>
                                <in>1871</in>
                                <out>1925</out>
                            </clipitem>
                            <clipitem frameBlend="FALSE" id="clipitem-832">
                                <file id="file-1"/>
                                <name>bandicam 2025-06-02 00-01-10-144 - Audio</name>
                                <rate>
                                    <timebase>60</timebase>
                                    <ntsc>TRUE</ntsc>
                                </rate>
                                <rate>
                                    <timebase>60</timebase>
                                    <ntsc>TRUE</ntsc>
                                </rate>
                                <duration>72</duration>
                                <start>11631</start>
                                <end>11703</end>
                                <in>1997</in>
                                <out>2069</out>
                            </clipitem>
                            <clipitem frameBlend="FALSE" id="clipitem-833">
                                <file id="file-1"/>
                                <name>bandicam 2025-06-02 00-01-10-144 - Audio</name>
                                <rate>
                                    <timebase>60</timebase>
                                    <ntsc>TRUE</ntsc>
                                </rate>
                                <rate>
                                    <timebase>60</timebase>
                                    <ntsc>TRUE</ntsc>
                                </rate>
                                <duration>6</duration>
                                <start>11703</start>
                                <end>11709</end>
                                <in>2231</in>
                                <out>2237</out>
                            </clipitem>
                            <clipitem frameBlend="FALSE" id="clipitem-834">
                                <file id="file-1"/>
                                <name>bandicam 2025-06-02 00-01-10-144 - Audio</name>
                                <rate>
                                    <timebase>60</timebase>
                                    <ntsc>TRUE</ntsc>
                                </rate>
                                <rate>
                                    <timebase>60</timebase>
                                    <ntsc>TRUE</ntsc>
                                </rate>
                                <duration>18</duration>
                                <start>11709</start>
                                <end>11727</end>
                                <in>2561</in>
                                <out>2579</out>
                            </clipitem>
                            <clipitem frameBlend="FALSE" id="clipitem-835">
                                <file id="file-1"/>
                                <name>bandicam 2025-06-02 00-01-10-144 - Audio</name>
                                <rate>
                                    <timebase>60</timebase>
                                    <ntsc>TRUE</ntsc>
                                </rate>
                                <rate>
                                    <timebase>60</timebase>
                                    <ntsc>TRUE</ntsc>
                                </rate>
                                <duration>18</duration>
                                <start>11727</start>
                                <end>11745</end>
                                <in>2663</in>
                                <out>2681</out>
                            </clipitem>
                            <clipitem frameBlend="FALSE" id="clipitem-836">
                                <file id="file-1"/>
                                <name>bandicam 2025-06-02 00-01-10-144 - Audio</name>
                                <rate>
                                    <timebase>60</timebase>
                                    <ntsc>TRUE</ntsc>
                                </rate>
                                <rate>
                                    <timebase>60</timebase>
                                    <ntsc>TRUE</ntsc>
                                </rate>
                                <duration>12</duration>
                                <start>11745</start>
                                <end>11757</end>
                                <in>2699</in>
                                <out>2711</out>
                            </clipitem>
                            <clipitem frameBlend="FALSE" id="clipitem-837">
                                <file id="file-1"/>
                                <name>bandicam 2025-06-02 00-01-10-144 - Audio</name>
                                <rate>
                                    <timebase>60</timebase>
                                    <ntsc>TRUE</ntsc>
                                </rate>
                                <rate>
                                    <timebase>60</timebase>
                                    <ntsc>TRUE</ntsc>
                                </rate>
                                <duration>552</duration>
                                <start>11757</start>
                                <end>12309</end>
                                <in>2771</in>
                                <out>3323</out>
                            </clipitem>
                            <clipitem frameBlend="FALSE" id="clipitem-838">
                                <file id="file-1"/>
                                <name>bandicam 2025-06-02 00-01-10-144 - Audio</name>
                                <rate>
                                    <timebase>60</timebase>
                                    <ntsc>TRUE</ntsc>
                                </rate>
                                <rate>
                                    <timebase>60</timebase>
                                    <ntsc>TRUE</ntsc>
                                </rate>
                                <duration>18</duration>
                                <start>12309</start>
                                <end>12327</end>
                                <in>3341</in>
                                <out>3359</out>
                            </clipitem>
                            <clipitem frameBlend="FALSE" id="clipitem-839">
                                <file id="file-1"/>
                                <name>bandicam 2025-06-02 00-01-10-144 - Audio</name>
                                <rate>
                                    <timebase>60</timebase>
                                    <ntsc>TRUE</ntsc>
                                </rate>
                                <rate>
                                    <timebase>60</timebase>
                                    <ntsc>TRUE</ntsc>
                                </rate>
                                <duration>215</duration>
                                <start>12327</start>
                                <end>12542</end>
                                <in>3389</in>
                                <out>3604</out>
                            </clipitem>
                            <clipitem frameBlend="FALSE" id="clipitem-840">
                                <file id="file-1"/>
                                <name>bandicam 2025-06-02 00-01-10-144 - Audio</name>
                                <rate>
                                    <timebase>60</timebase>
                                    <ntsc>TRUE</ntsc>
                                </rate>
                                <rate>
                                    <timebase>60</timebase>
                                    <ntsc>TRUE</ntsc>
                                </rate>
                                <duration>54</duration>
                                <start>12542</start>
                                <end>12596</end>
                                <in>3616</in>
                                <out>3670</out>
                            </clipitem>
                            <clipitem frameBlend="FALSE" id="clipitem-841">
                                <file id="file-1"/>
                                <name>bandicam 2025-06-02 00-01-10-144 - Audio</name>
                                <rate>
                                    <timebase>60</timebase>
                                    <ntsc>TRUE</ntsc>
                                </rate>
                                <rate>
                                    <timebase>60</timebase>
                                    <ntsc>TRUE</ntsc>
                                </rate>
                                <duration>30</duration>
                                <start>12596</start>
                                <end>12626</end>
                                <in>3784</in>
                                <out>3814</out>
                            </clipitem>
                            <clipitem frameBlend="FALSE" id="clipitem-842">
                                <file id="file-1"/>
                                <name>bandicam 2025-06-02 00-01-10-144 - Audio</name>
                                <rate>
                                    <timebase>60</timebase>
                                    <ntsc>TRUE</ntsc>
                                </rate>
                                <rate>
                                    <timebase>60</timebase>
                                    <ntsc>TRUE</ntsc>
                                </rate>
                                <duration>18</duration>
                                <start>12626</start>
                                <end>12644</end>
                                <in>3910</in>
                                <out>3928</out>
                            </clipitem>
                            <clipitem frameBlend="FALSE" id="clipitem-843">
                                <file id="file-1"/>
                                <name>bandicam 2025-06-02 00-01-10-144 - Audio</name>
                                <rate>
                                    <timebase>60</timebase>
                                    <ntsc>TRUE</ntsc>
                                </rate>
                                <rate>
                                    <timebase>60</timebase>
                                    <ntsc>TRUE</ntsc>
                                </rate>
                                <duration>174</duration>
                                <start>12644</start>
                                <end>12818</end>
                                <in>4078</in>
                                <out>4252</out>
                            </clipitem>
                            <clipitem frameBlend="FALSE" id="clipitem-844">
                                <file id="file-1"/>
                                <name>bandicam 2025-06-02 00-01-10-144 - Audio</name>
                                <rate>
                                    <timebase>60</timebase>
                                    <ntsc>TRUE</ntsc>
                                </rate>
                                <rate>
                                    <timebase>60</timebase>
                                    <ntsc>TRUE</ntsc>
                                </rate>
                                <duration>72</duration>
                                <start>12818</start>
                                <end>12890</end>
                                <in>4432</in>
                                <out>4504</out>
                            </clipitem>
                            <clipitem frameBlend="FALSE" id="clipitem-845">
                                <file id="file-1"/>
                                <name>bandicam 2025-06-02 00-01-10-144 - Audio</name>
                                <rate>
                                    <timebase>60</timebase>
                                    <ntsc>TRUE</ntsc>
                                </rate>
                                <rate>
                                    <timebase>60</timebase>
                                    <ntsc>TRUE</ntsc>
                                </rate>
                                <duration>60</duration>
                                <start>12890</start>
                                <end>12950</end>
                                <in>4540</in>
                                <out>4600</out>
                            </clipitem>
                            <clipitem frameBlend="FALSE" id="clipitem-846">
                                <file id="file-1"/>
                                <name>bandicam 2025-06-02 00-01-10-144 - Audio</name>
                                <rate>
                                    <timebase>60</timebase>
                                    <ntsc>TRUE</ntsc>
                                </rate>
                                <rate>
                                    <timebase>60</timebase>
                                    <ntsc>TRUE</ntsc>
                                </rate>
                                <duration>18</duration>
                                <start>12950</start>
                                <end>12968</end>
                                <in>4648</in>
                                <out>4666</out>
                            </clipitem>
                            <clipitem frameBlend="FALSE" id="clipitem-847">
                                <file id="file-1"/>
                                <name>bandicam 2025-06-02 00-01-10-144 - Audio</name>
                                <rate>
                                    <timebase>60</timebase>
                                    <ntsc>TRUE</ntsc>
                                </rate>
                                <rate>
                                    <timebase>60</timebase>
                                    <ntsc>TRUE</ntsc>
                                </rate>
                                <duration>36</duration>
                                <start>12968</start>
                                <end>13004</end>
                                <in>4708</in>
                                <out>4744</out>
                            </clipitem>
                            <clipitem frameBlend="FALSE" id="clipitem-848">
                                <file id="file-1"/>
                                <name>bandicam 2025-06-02 00-01-10-144 - Audio</name>
                                <rate>
                                    <timebase>60</timebase>
                                    <ntsc>TRUE</ntsc>
                                </rate>
                                <rate>
                                    <timebase>60</timebase>
                                    <ntsc>TRUE</ntsc>
                                </rate>
                                <duration>18</duration>
                                <start>13004</start>
                                <end>13022</end>
                                <in>4882</in>
                                <out>4900</out>
                            </clipitem>
                            <clipitem frameBlend="FALSE" id="clipitem-849">
                                <file id="file-1"/>
                                <name>bandicam 2025-06-02 00-01-10-144 - Audio</name>
                                <rate>
                                    <timebase>60</timebase>
                                    <ntsc>TRUE</ntsc>
                                </rate>
                                <rate>
                                    <timebase>60</timebase>
                                    <ntsc>TRUE</ntsc>
                                </rate>
                                <duration>96</duration>
                                <start>13022</start>
                                <end>13118</end>
                                <in>4954</in>
                                <out>5050</out>
                            </clipitem>
                            <clipitem frameBlend="FALSE" id="clipitem-850">
                                <file id="file-1"/>
                                <name>bandicam 2025-06-02 00-01-10-144 - Audio</name>
                                <rate>
                                    <timebase>60</timebase>
                                    <ntsc>TRUE</ntsc>
                                </rate>
                                <rate>
                                    <timebase>60</timebase>
                                    <ntsc>TRUE</ntsc>
                                </rate>
                                <duration>0</duration>
                                <start>13118</start>
                                <end>13118</end>
                                <in>5152</in>
                                <out>5152</out>
                            </clipitem>
                            <clipitem frameBlend="FALSE" id="clipitem-851">
                                <file id="file-1"/>
                                <name>bandicam 2025-06-02 00-01-10-144 - Audio</name>
                                <rate>
                                    <timebase>60</timebase>
                                    <ntsc>TRUE</ntsc>
                                </rate>
                                <rate>
                                    <timebase>60</timebase>
                                    <ntsc>TRUE</ntsc>
                                </rate>
                                <duration>216</duration>
                                <start>13118</start>
                                <end>13334</end>
                                <in>5182</in>
                                <out>5398</out>
                            </clipitem>
                            <clipitem frameBlend="FALSE" id="clipitem-852">
                                <file id="file-1"/>
                                <name>bandicam 2025-06-02 00-01-10-144 - Audio</name>
                                <rate>
                                    <timebase>60</timebase>
                                    <ntsc>TRUE</ntsc>
                                </rate>
                                <rate>
                                    <timebase>60</timebase>
                                    <ntsc>TRUE</ntsc>
                                </rate>
                                <duration>324</duration>
                                <start>13334</start>
                                <end>13658</end>
                                <in>5440</in>
                                <out>5764</out>
                            </clipitem>
                            <clipitem frameBlend="FALSE" id="clipitem-853">
                                <file id="file-1"/>
                                <name>bandicam 2025-06-02 00-01-10-144 - Audio</name>
                                <rate>
                                    <timebase>60</timebase>
                                    <ntsc>TRUE</ntsc>
                                </rate>
                                <rate>
                                    <timebase>60</timebase>
                                    <ntsc>TRUE</ntsc>
                                </rate>
                                <duration>24</duration>
                                <start>13658</start>
                                <end>13682</end>
                                <in>5782</in>
                                <out>5806</out>
                            </clipitem>
                            <clipitem frameBlend="FALSE" id="clipitem-854">
                                <file id="file-1"/>
                                <name>bandicam 2025-06-02 00-01-10-144 - Audio</name>
                                <rate>
                                    <timebase>60</timebase>
                                    <ntsc>TRUE</ntsc>
                                </rate>
                                <rate>
                                    <timebase>60</timebase>
                                    <ntsc>TRUE</ntsc>
                                </rate>
                                <duration>6</duration>
                                <start>13682</start>
                                <end>13688</end>
                                <in>5842</in>
                                <out>5848</out>
                            </clipitem>
                            <clipitem frameBlend="FALSE" id="clipitem-855">
                                <file id="file-1"/>
                                <name>bandicam 2025-06-02 00-01-10-144 - Audio</name>
                                <rate>
                                    <timebase>60</timebase>
                                    <ntsc>TRUE</ntsc>
                                </rate>
                                <rate>
                                    <timebase>60</timebase>
                                    <ntsc>TRUE</ntsc>
                                </rate>
                                <duration>36</duration>
                                <start>13688</start>
                                <end>13724</end>
                                <in>5878</in>
                                <out>5914</out>
                            </clipitem>
                            <clipitem frameBlend="FALSE" id="clipitem-856">
                                <file id="file-1"/>
                                <name>bandicam 2025-06-02 00-01-10-144 - Audio</name>
                                <rate>
                                    <timebase>60</timebase>
                                    <ntsc>TRUE</ntsc>
                                </rate>
                                <rate>
                                    <timebase>60</timebase>
                                    <ntsc>TRUE</ntsc>
                                </rate>
                                <duration>72</duration>
                                <start>13724</start>
                                <end>13796</end>
                                <in>5956</in>
                                <out>6028</out>
                            </clipitem>
                            <clipitem frameBlend="FALSE" id="clipitem-857">
                                <file id="file-1"/>
                                <name>bandicam 2025-06-02 00-01-10-144 - Audio</name>
                                <rate>
                                    <timebase>60</timebase>
                                    <ntsc>TRUE</ntsc>
                                </rate>
                                <rate>
                                    <timebase>60</timebase>
                                    <ntsc>TRUE</ntsc>
                                </rate>
                                <duration>102</duration>
                                <start>13796</start>
                                <end>13898</end>
                                <in>6100</in>
                                <out>6202</out>
                            </clipitem>
                            <clipitem frameBlend="FALSE" id="clipitem-858">
                                <file id="file-1"/>
                                <name>bandicam 2025-06-02 00-01-10-144 - Audio</name>
                                <rate>
                                    <timebase>60</timebase>
                                    <ntsc>TRUE</ntsc>
                                </rate>
                                <rate>
                                    <timebase>60</timebase>
                                    <ntsc>TRUE</ntsc>
                                </rate>
                                <duration>24</duration>
                                <start>13898</start>
                                <end>13922</end>
                                <in>6226</in>
                                <out>6250</out>
                            </clipitem>
                            <clipitem frameBlend="FALSE" id="clipitem-859">
                                <file id="file-1"/>
                                <name>bandicam 2025-06-02 00-01-10-144 - Audio</name>
                                <rate>
                                    <timebase>60</timebase>
                                    <ntsc>TRUE</ntsc>
                                </rate>
                                <rate>
                                    <timebase>60</timebase>
                                    <ntsc>TRUE</ntsc>
                                </rate>
                                <duration>132</duration>
                                <start>13922</start>
                                <end>14054</end>
                                <in>6274</in>
                                <out>6406</out>
                            </clipitem>
                            <clipitem frameBlend="FALSE" id="clipitem-860">
                                <file id="file-1"/>
                                <name>bandicam 2025-06-02 00-01-10-144 - Audio</name>
                                <rate>
                                    <timebase>60</timebase>
                                    <ntsc>TRUE</ntsc>
                                </rate>
                                <rate>
                                    <timebase>60</timebase>
                                    <ntsc>TRUE</ntsc>
                                </rate>
                                <duration>12</duration>
                                <start>14054</start>
                                <end>14066</end>
                                <in>6526</in>
                                <out>6538</out>
                            </clipitem>
                            <clipitem frameBlend="FALSE" id="clipitem-861">
                                <file id="file-1"/>
                                <name>bandicam 2025-06-02 00-01-10-144 - Audio</name>
                                <rate>
                                    <timebase>60</timebase>
                                    <ntsc>TRUE</ntsc>
                                </rate>
                                <rate>
                                    <timebase>60</timebase>
                                    <ntsc>TRUE</ntsc>
                                </rate>
                                <duration>72</duration>
                                <start>14066</start>
                                <end>14138</end>
                                <in>6652</in>
                                <out>6724</out>
                            </clipitem>
                            <clipitem frameBlend="FALSE" id="clipitem-862">
                                <file id="file-1"/>
                                <name>bandicam 2025-06-02 00-01-10-144 - Audio</name>
                                <rate>
                                    <timebase>60</timebase>
                                    <ntsc>TRUE</ntsc>
                                </rate>
                                <rate>
                                    <timebase>60</timebase>
                                    <ntsc>TRUE</ntsc>
                                </rate>
                                <duration>72</duration>
                                <start>14138</start>
                                <end>14210</end>
                                <in>6754</in>
                                <out>6826</out>
                            </clipitem>
                            <clipitem frameBlend="FALSE" id="clipitem-863">
                                <file id="file-1"/>
                                <name>bandicam 2025-06-02 00-01-10-144 - Audio</name>
                                <rate>
                                    <timebase>60</timebase>
                                    <ntsc>TRUE</ntsc>
                                </rate>
                                <rate>
                                    <timebase>60</timebase>
                                    <ntsc>TRUE</ntsc>
                                </rate>
                                <duration>18</duration>
                                <start>14210</start>
                                <end>14228</end>
                                <in>2783</in>
                                <out>2801</out>
                            </clipitem>
                            <clipitem frameBlend="FALSE" id="clipitem-864">
                                <file id="file-1"/>
                                <name>bandicam 2025-06-02 00-01-10-144 - Audio</name>
                                <rate>
                                    <timebase>60</timebase>
                                    <ntsc>TRUE</ntsc>
                                </rate>
                                <rate>
                                    <timebase>60</timebase>
                                    <ntsc>TRUE</ntsc>
                                </rate>
                                <duration>6</duration>
                                <start>14228</start>
                                <end>14234</end>
                                <in>2885</in>
                                <out>2891</out>
                            </clipitem>
                            <clipitem frameBlend="FALSE" id="clipitem-865">
                                <file id="file-1"/>
                                <name>bandicam 2025-06-02 00-01-10-144 - Audio</name>
                                <rate>
                                    <timebase>60</timebase>
                                    <ntsc>TRUE</ntsc>
                                </rate>
                                <rate>
                                    <timebase>60</timebase>
                                    <ntsc>TRUE</ntsc>
                                </rate>
                                <duration>18</duration>
                                <start>14234</start>
                                <end>14252</end>
                                <in>2969</in>
                                <out>2987</out>
                            </clipitem>
                            <clipitem frameBlend="FALSE" id="clipitem-866">
                                <file id="file-1"/>
                                <name>bandicam 2025-06-02 00-01-10-144 - Audio</name>
                                <rate>
                                    <timebase>60</timebase>
                                    <ntsc>TRUE</ntsc>
                                </rate>
                                <rate>
                                    <timebase>60</timebase>
                                    <ntsc>TRUE</ntsc>
                                </rate>
                                <duration>6</duration>
                                <start>14252</start>
                                <end>14258</end>
                                <in>4096</in>
                                <out>4102</out>
                            </clipitem>
                            <clipitem frameBlend="FALSE" id="clipitem-867">
                                <file id="file-1"/>
                                <name>bandicam 2025-06-02 00-01-10-144 - Audio</name>
                                <rate>
                                    <timebase>60</timebase>
                                    <ntsc>TRUE</ntsc>
                                </rate>
                                <rate>
                                    <timebase>60</timebase>
                                    <ntsc>TRUE</ntsc>
                                </rate>
                                <duration>0</duration>
                                <start>14258</start>
                                <end>14258</end>
                                <in>4132</in>
                                <out>4132</out>
                            </clipitem>
                            <clipitem frameBlend="FALSE" id="clipitem-868">
                                <file id="file-1"/>
                                <name>bandicam 2025-06-02 00-01-10-144 - Audio</name>
                                <rate>
                                    <timebase>60</timebase>
                                    <ntsc>TRUE</ntsc>
                                </rate>
                                <rate>
                                    <timebase>60</timebase>
                                    <ntsc>TRUE</ntsc>
                                </rate>
                                <duration>6</duration>
                                <start>14258</start>
                                <end>14264</end>
                                <in>5578</in>
                                <out>5584</out>
                            </clipitem>
                            <clipitem frameBlend="FALSE" id="clipitem-869">
                                <file id="file-1"/>
                                <name>bandicam 2025-06-02 00-01-10-144 - Audio</name>
                                <rate>
                                    <timebase>60</timebase>
                                    <ntsc>TRUE</ntsc>
                                </rate>
                                <rate>
                                    <timebase>60</timebase>
                                    <ntsc>TRUE</ntsc>
                                </rate>
                                <duration>12</duration>
                                <start>14264</start>
                                <end>14276</end>
                                <in>5644</in>
                                <out>5656</out>
                            </clipitem>
                        </track>
                    </audio>
                </media>
            </sequence>
        </children>
    </project>
</xmeml>
